0, 0, Header, 1, 6, 480
1, 0, Start_track
1, 0, Title_t, "Untitled"
1, 0, Time_signature, 3, 2, 24, 8
1, 0, Key_signature, 0, "major"
1, 0, Tempo, 500000
1, 0, Marker_t, "Mozart"
1, 960, Tempo, 425531
1, 1380, Tempo, 428571
1, 1440, Tempo, 425531
1, 1440, Marker_t, "Piano Sonata No.5,   Rev."
1, 2880, Marker_t, "Bunji Hisamori"
1, 4260, Tempo, 428571
1, 4320, Tempo, 425531
1, 4320, Marker_t, "Feb.2000"
1, 6660, Tempo, 428571
1, 7140, Tempo, 434782
1, 7200, Tempo, 428571
1, 8580, Tempo, 434782
1, 8640, Tempo, 428571
1, 10020, Tempo, 434782
1, 10080, Tempo, 428571
1, 11480, Tempo, 434782
1, 11520, Tempo, 425531
1, 14400, Tempo, 428571
1, 15140, Tempo, 447761
1, 15360, Tempo, 428571
1, 15780, Tempo, 434782
1, 15840, Tempo, 428571
1, 17220, Tempo, 434782
1, 17280, Tempo, 428571
1, 18660, Tempo, 434782
1, 18720, Tempo, 428571
1, 20120, Tempo, 434782
1, 20160, Tempo, 425531
1, 23040, Tempo, 428571
1, 23760, Tempo, 425531
1, 24480, Tempo, 428571
1, 24540, Tempo, 425531
1, 25920, Tempo, 428571
1, 25980, Tempo, 425531
1, 31620, Tempo, 428571
1, 32055, Tempo, 428571
1, 32160, Tempo, 500000
1, 32280, Tempo, 425531
1, 32670, Tempo, 434782
1, 33120, Tempo, 434782
1, 35940, Tempo, 441176
1, 36000, Tempo, 434782
1, 38760, Tempo, 441176
1, 38880, Tempo, 428571
1, 41700, Tempo, 434782
1, 41760, Tempo, 428571
1, 43200, Tempo, 434782
1, 43920, Tempo, 441176
1, 44180, Tempo, 425531
1, 44520, Tempo, 428571
1, 44820, Tempo, 425531
1, 45540, Tempo, 428571
1, 45600, Tempo, 425531
1, 46020, Tempo, 428571
1, 46260, Tempo, 425531
1, 46980, Tempo, 428571
1, 47040, Tempo, 425531
1, 47460, Tempo, 428571
1, 47700, Tempo, 425531
1, 48420, Tempo, 428571
1, 48480, Tempo, 425531
1, 48900, Tempo, 428571
1, 50160, Tempo, 434782
1, 50400, Tempo, 425531
1, 51780, Tempo, 428571
1, 51840, Tempo, 425531
1, 53220, Tempo, 428571
1, 54680, Tempo, 434782
1, 54880, Tempo, 425531
1, 55620, Tempo, 428571
1, 55680, Tempo, 425531
1, 56100, Tempo, 428571
1, 57350, Tempo, 434782
1, 57600, Tempo, 425531
1, 58980, Tempo, 428571
1, 59040, Tempo, 425531
1, 60430, Tempo, 428571
1, 61880, Tempo, 434782
1, 61980, Tempo, 428571
1, 63300, Tempo, 434782
1, 63420, Tempo, 428571
1, 64760, Tempo, 434782
1, 64800, Tempo, 434782
1, 67640, Tempo, 441176
1, 68990, Tempo, 447761
1, 69120, Tempo, 428571
1, 71940, Tempo, 434782
1, 73380, Tempo, 441176
1, 73440, Tempo, 428571
1, 74840, Tempo, 434782
1, 74880, Tempo, 428571
1, 76260, Tempo, 472440
1, 76320, Tempo, 434782
1, 76800, Tempo, 500000
1, 77280, Tempo, 500000
1, 77640, Tempo, 500000
1, 77760, Tempo, 425531
1, 79160, Tempo, 428571
1, 79200, Tempo, 425531
1, 80600, Tempo, 428571
1, 80640, Tempo, 425531
1, 82040, Tempo, 428571
1, 82080, Tempo, 425531
1, 83480, Tempo, 428571
1, 83520, Tempo, 425531
1, 84920, Tempo, 428571
1, 84960, Tempo, 425531
1, 86360, Tempo, 428571
1, 86400, Tempo, 425531
1, 87800, Tempo, 428571
1, 87840, Tempo, 425531
1, 89240, Tempo, 428571
1, 89280, Tempo, 425531
1, 92120, Tempo, 428571
1, 92160, Tempo, 425531
1, 95000, Tempo, 428571
1, 95040, Tempo, 425531
1, 97880, Tempo, 428571
1, 97920, Tempo, 425531
1, 99320, Tempo, 434782
1, 99360, Tempo, 428571
1, 100760, Tempo, 441176
1, 100800, Tempo, 425531
1, 101280, Tempo, 659340
1, 101520, Tempo, 428571
1, 103020, Tempo, 434782
1, 103080, Tempo, 454545
1, 103200, Tempo, 425531
1, 103620, Tempo, 428571
1, 103680, Tempo, 425531
1, 105060, Tempo, 428571
1, 105120, Tempo, 425531
1, 106500, Tempo, 428571
1, 106560, Tempo, 425531
1, 107950, Tempo, 434782
1, 108000, Tempo, 441176
1, 108830, Tempo, 461538
1, 108960, Tempo, 425531
1, 109380, Tempo, 428571
1, 109440, Tempo, 425531
1, 110820, Tempo, 428571
1, 110880, Tempo, 425531
1, 112260, Tempo, 428571
1, 112320, Tempo, 425531
1, 113700, Tempo, 434782
1, 113760, Tempo, 441176
1, 114610, Tempo, 461538
1, 114720, Tempo, 428571
1, 115140, Tempo, 434782
1, 115200, Tempo, 428571
1, 116580, Tempo, 434782
1, 116640, Tempo, 428571
1, 118020, Tempo, 434782
1, 118080, Tempo, 428571
1, 119460, Tempo, 434782
1, 120000, Tempo, 434782
1, 120240, Tempo, 425531
1, 120960, Tempo, 428571
1, 121020, Tempo, 425531
1, 122400, Tempo, 428571
1, 122460, Tempo, 425531
1, 128100, Tempo, 428571
1, 128600, Tempo, 428571
1, 128640, Tempo, 425531
1, 129120, Tempo, 428571
1, 129360, Tempo, 600000
1, 129600, Tempo, 434782
1, 132420, Tempo, 441176
1, 132480, Tempo, 434782
1, 135300, Tempo, 447761
1, 135360, Tempo, 428571
1, 138180, Tempo, 434782
1, 138240, Tempo, 428571
1, 139620, Tempo, 428571
1, 140400, Tempo, 441176
1, 140660, Tempo, 425531
1, 141060, Tempo, 428571
1, 141300, Tempo, 425531
1, 142020, Tempo, 428571
1, 142080, Tempo, 425531
1, 142500, Tempo, 428571
1, 142740, Tempo, 425531
1, 143460, Tempo, 428571
1, 143520, Tempo, 425531
1, 143940, Tempo, 428571
1, 144180, Tempo, 425531
1, 144900, Tempo, 428571
1, 144960, Tempo, 425531
1, 145380, Tempo, 428571
1, 146630, Tempo, 434782
1, 146880, Tempo, 425531
1, 148260, Tempo, 428571
1, 148320, Tempo, 425531
1, 149700, Tempo, 428571
1, 151160, Tempo, 434782
1, 151360, Tempo, 425531
1, 152100, Tempo, 428571
1, 152160, Tempo, 425531
1, 152580, Tempo, 428571
1, 153840, Tempo, 434782
1, 154080, Tempo, 425531
1, 155460, Tempo, 428571
1, 155520, Tempo, 425531
1, 156910, Tempo, 428571
1, 158360, Tempo, 434782
1, 158460, Tempo, 428571
1, 159780, Tempo, 434782
1, 159900, Tempo, 428571
1, 161220, Tempo, 434782
1, 161280, Tempo, 434782
1, 164100, Tempo, 441176
1, 165560, Tempo, 454545
1, 165600, Tempo, 428571
1, 168420, Tempo, 434782
1, 169920, Tempo, 428571
1, 171320, Tempo, 434782
1, 171360, Tempo, 434782
1, 172500, Tempo, 441176
1, 172700, Tempo, 769230
1, 172800, Tempo, 550458
1, 173280, Tempo, 2222222
1, 174240, Time_signature, 4, 2, 24, 8
1, 174240, Tempo, 952380
1, 174240, Marker_t, "(2)"
1, 176120, Tempo, 967741
1, 176160, Tempo, 952380
1, 178040, Tempo, 967741
1, 178080, Tempo, 952380
1, 179940, Tempo, 967741
1, 181640, Tempo, 1000000
1, 181680, Tempo, 1176470
1, 181920, Tempo, 952380
1, 183800, Tempo, 967741
1, 183840, Tempo, 952380
1, 185720, Tempo, 967741
1, 185760, Tempo, 952380
1, 186960, Tempo, 967741
1, 187640, Tempo, 1000000
1, 187680, Tempo, 1034482
1, 188640, Tempo, 1176470
1, 188880, Tempo, 1000000
1, 189135, Tempo, 1176470
1, 189600, Tempo, 952380
1, 191480, Tempo, 967741
1, 191520, Tempo, 952380
1, 193400, Tempo, 967741
1, 193440, Tempo, 952380
1, 195255, Tempo, 967741
1, 195360, Tempo, 952380
1, 195840, Tempo, 1000000
1, 195880, Tempo, 967741
1, 196260, Tempo, 1000000
1, 196320, Tempo, 967741
1, 197160, Tempo, 1000000
1, 197280, Tempo, 952380
1, 199140, Tempo, 967741
1, 199210, Tempo, 952380
1, 201060, Tempo, 967741
1, 203000, Tempo, 1000000
1, 203040, Tempo, 967741
1, 203960, Tempo, 1000000
1, 204848, Tempo, 1276595
1, 204960, Tempo, 952380
1, 206840, Tempo, 967741
1, 206880, Tempo, 952380
1, 208670, Tempo, 967741
1, 208800, Tempo, 952380
1, 210680, Tempo, 967741
1, 210720, Tempo, 952380
1, 212520, Tempo, 1000000
1, 212640, Tempo, 952380
1, 214520, Tempo, 967741
1, 214560, Tempo, 952380
1, 216440, Tempo, 967741
1, 216480, Tempo, 952380
1, 217900, Tempo, 967741
1, 218360, Tempo, 1000000
1, 218400, Tempo, 952380
1, 220200, Tempo, 967741
1, 220320, Tempo, 1000000
1, 221280, Tempo, 1363636
1, 221760, Tempo, 967741
1, 224120, Tempo, 1000000
1, 224160, Tempo, 967741
1, 225120, Tempo, 1000000
1, 226080, Tempo, 1034482
1, 226320, Tempo, 952380
1, 227880, Tempo, 1000000
1, 228110, Tempo, 952380
1, 229880, Tempo, 1000000
1, 230060, Tempo, 952380
1, 231800, Tempo, 1034482
1, 231940, Tempo, 952380
1, 232740, Tempo, 967741
1, 233220, Tempo, 1000000
1, 233530, Tempo, 1071428
1, 233647, Tempo, 1578947
1, 233760, Tempo, 952380
1, 235640, Tempo, 967741
1, 235680, Tempo, 952380
1, 237560, Tempo, 967741
1, 237600, Tempo, 952380
1, 239480, Tempo, 967741
1, 239520, Tempo, 952380
1, 240420, Tempo, 967741
1, 240900, Tempo, 1000000
1, 241210, Tempo, 1071428
1, 241327, Tempo, 1363636
1, 241440, Tempo, 952380
1, 243320, Tempo, 967741
1, 243360, Tempo, 952380
1, 245240, Tempo, 967741
1, 245280, Tempo, 952380
1, 247160, Tempo, 967741
1, 247200, Tempo, 952380
1, 248900, Tempo, 1000000
1, 249120, Tempo, 967741
1, 251000, Tempo, 1034482
1, 251040, Tempo, 967741
1, 252730, Tempo, 1071428
1, 252960, Tempo, 1034482
1, 253000, Tempo, 1000000
1, 254840, Tempo, 1071428
1, 254880, Tempo, 967741
1, 255800, Tempo, 1071428
1, 255840, Tempo, 967741
1, 256760, Tempo, 1000000
1, 256800, Tempo, 967741
1, 257720, Tempo, 1071428
1, 257760, Tempo, 967741
1, 258680, Tempo, 1000000
1, 259200, Tempo, 1034482
1, 260505, Tempo, 1333333
1, 260880, Tempo, 1034482
1, 262260, Tempo, 1071428
1, 262320, Tempo, 1428571
1, 262560, Tempo, 952380
1, 264440, Tempo, 967741
1, 264480, Tempo, 952380
1, 266360, Tempo, 967741
1, 266400, Tempo, 952380
1, 268280, Tempo, 967741
1, 268320, Tempo, 952380
1, 270105, Tempo, 1111111
1, 270240, Tempo, 952380
1, 272120, Tempo, 967741
1, 272160, Tempo, 952380
1, 273120, Tempo, 967741
1, 273160, Tempo, 952380
1, 274040, Tempo, 967741
1, 274080, Tempo, 952380
1, 275960, Tempo, 967741
1, 276000, Tempo, 967741
1, 276840, Tempo, 1000000
1, 277440, Tempo, 1071428
1, 277920, Tempo, 952380
1, 279800, Tempo, 967741
1, 279840, Tempo, 952380
1, 281720, Tempo, 967741
1, 281760, Tempo, 952380
1, 283605, Tempo, 1034482
1, 283680, Tempo, 952380
1, 284145, Tempo, 1034482
1, 284185, Tempo, 1000000
1, 284565, Tempo, 1071428
1, 284625, Tempo, 967741
1, 285545, Tempo, 1071428
1, 285600, Tempo, 952380
1, 286520, Tempo, 967741
1, 286560, Tempo, 952380
1, 287480, Tempo, 967741
1, 287520, Tempo, 952380
1, 289440, Tempo, 967741
1, 289560, Tempo, 952380
1, 290820, Tempo, 967741
1, 291240, Tempo, 1000000
1, 291360, Tempo, 967741
1, 292800, Tempo, 1000000
1, 293120, Tempo, 1132075
1, 293280, Tempo, 952380
1, 295160, Tempo, 967741
1, 295200, Tempo, 952380
1, 297080, Tempo, 967741
1, 297120, Tempo, 952380
1, 299000, Tempo, 967741
1, 299040, Tempo, 952380
1, 300900, Tempo, 1071428
1, 300960, Tempo, 952380
1, 302840, Tempo, 1000000
1, 302880, Tempo, 952380
1, 304760, Tempo, 967741
1, 304800, Tempo, 952380
1, 306240, Tempo, 967741
1, 306280, Tempo, 952380
1, 306680, Tempo, 1000000
1, 306720, Tempo, 952380
1, 308600, Tempo, 1000000
1, 308640, Tempo, 1000000
1, 309600, Tempo, 1333333
1, 310080, Tempo, 967741
1, 312440, Tempo, 1000000
1, 312480, Tempo, 967741
1, 315800, Tempo, 1000000
1, 316070, Tempo, 1034482
1, 316280, Tempo, 1666666
1, 316320, Tempo, 952380
1, 318200, Tempo, 967741
1, 318240, Tempo, 952380
1, 320070, Tempo, 1071428
1, 320160, Tempo, 967741
1, 321080, Tempo, 1000000
1, 321825, Tempo, 1333333
1, 322080, Tempo, 1071428
1, 322920, Tempo, 1111111
1, 323040, Tempo, 1500000
1, 324040, Tempo, 441176
1, 325920, Time_signature, 3, 3, 24, 8
1, 325920, Tempo, 377358
1, 325920, Marker_t, "(3) "
1, 328740, Tempo, 379746
1, 328800, Tempo, 377358
1, 331620, Tempo, 379746
1, 331680, Tempo, 377358
1, 334500, Tempo, 379746
1, 334560, Tempo, 377358
1, 337380, Tempo, 379746
1, 343140, Tempo, 384615
1, 343200, Tempo, 377358
1, 348900, Tempo, 379746
1, 348960, Tempo, 377358
1, 353950, Tempo, 413793
1, 354000, Tempo, 434782
1, 354720, Tempo, 377358
1, 356100, Tempo, 379746
1, 356160, Tempo, 377358
1, 361860, Tempo, 379746
1, 361920, Tempo, 377358
1, 371940, Tempo, 379746
1, 372000, Tempo, 377358
1, 374820, Tempo, 379746
1, 374880, Tempo, 377358
1, 376980, Tempo, 379746
1, 377700, Tempo, 384615
1, 378240, Tempo, 377358
1, 382740, Tempo, 379746
1, 383460, Tempo, 384615
1, 384000, Tempo, 377358
1, 387840, Tempo, 379746
1, 388560, Tempo, 384615
1, 389280, Tempo, 377358
1, 390660, Tempo, 379746
1, 390720, Tempo, 377358
1, 392100, Tempo, 379746
1, 392160, Tempo, 377358
1, 394980, Tempo, 379746
1, 395520, Tempo, 377358
1, 398580, Tempo, 419580
1, 399360, Tempo, 377358
1, 402180, Tempo, 379746
1, 402240, Tempo, 377358
1, 407940, Tempo, 379746
1, 408000, Tempo, 377358
1, 409380, Tempo, 379746
1, 409440, Tempo, 377358
1, 410820, Tempo, 379746
1, 410880, Tempo, 377358
1, 413700, Tempo, 379746
1, 413760, Tempo, 377358
1, 416580, Tempo, 379746
1, 416640, Tempo, 377358
1, 419460, Tempo, 379746
1, 419520, Tempo, 377358
1, 423060, Tempo, 379746
1, 423120, Tempo, 377358
1, 423780, Tempo, 379746
1, 424500, Tempo, 384615
1, 425040, Tempo, 377358
1, 429540, Tempo, 379746
1, 430980, Tempo, 419580
1, 431040, Tempo, 465116
1, 431280, Tempo, 500000
1, 431520, Tempo, 377358
1, 433140, Tempo, 379746
1, 433200, Tempo, 377358
1, 436020, Tempo, 379746
1, 436080, Tempo, 377358
1, 438900, Tempo, 379746
1, 438960, Tempo, 377358
1, 441780, Tempo, 379746
1, 441840, Tempo, 377358
1, 442500, Tempo, 379746
1, 443220, Tempo, 384615
1, 443280, Tempo, 379746
1, 443520, Tempo, 377358
1, 444660, Tempo, 379746
1, 444720, Tempo, 377358
1, 445380, Tempo, 379746
1, 446100, Tempo, 384615
1, 446220, Tempo, 379746
1, 447420, Tempo, 384615
1, 447480, Tempo, 394736
1, 448320, Tempo, 500000
1, 449040, Tempo, 377358
1, 451860, Tempo, 379746
1, 451920, Tempo, 377358
1, 454740, Tempo, 379746
1, 454800, Tempo, 377358
1, 457620, Tempo, 379746
1, 457680, Tempo, 377358
1, 460500, Tempo, 379746
1, 466260, Tempo, 384615
1, 466320, Tempo, 377358
1, 472020, Tempo, 379746
1, 472080, Tempo, 377358
1, 477070, Tempo, 419580
1, 477120, Tempo, 434782
1, 477840, Tempo, 377358
1, 479220, Tempo, 379746
1, 479280, Tempo, 377358
1, 484980, Tempo, 379746
1, 485040, Tempo, 377358
1, 495060, Tempo, 379746
1, 495120, Tempo, 377358
1, 497940, Tempo, 379746
1, 498000, Tempo, 377358
1, 500100, Tempo, 379746
1, 500820, Tempo, 384615
1, 501360, Tempo, 377358
1, 505860, Tempo, 379746
1, 506580, Tempo, 384615
1, 507120, Tempo, 377358
1, 510960, Tempo, 379746
1, 511680, Tempo, 384615
1, 512400, Tempo, 377358
1, 513780, Tempo, 379746
1, 513840, Tempo, 377358
1, 515220, Tempo, 379746
1, 515280, Tempo, 377358
1, 518100, Tempo, 379746
1, 518640, Tempo, 377358
1, 521650, Tempo, 425531
1, 522480, Tempo, 408163
1, 523200, Tempo, 413793
1, 523920, Tempo, 425531
1, 524175, Tempo, 508474
1, 524175, End_track
2, 0, Start_track
2, 0, Title_t, "Unnamed Track"
2, 0, Control_c, 1, 0, 0
2, 0, Control_c, 1, 32, 0
2, 0, Program_c, 1, 0
2, 0, Control_c, 1, 7, 127
2, 0, Pitch_bend_c, 1, 8192
2, 0, Control_c, 1, 1, 0
2, 0, Control_c, 1, 1, 0
2, 0, Pitch_bend_c, 1, 8192
2, 0, Control_c, 1, 93, 18
2, 0, Pitch_bend_c, 1, 8192
2, 0, Control_c, 1, 64, 0
2, 0, Control_c, 1, 93, 28
2, 0, Control_c, 1, 91, 100
2, 0, Control_c, 1, 10, 73
2, 960, Note_on_c, 1, 74, 52
2, 1320, Note_off_c, 1, 74, 0
2, 1320, Note_on_c, 1, 71, 54
2, 1415, Note_off_c, 1, 71, 0
2, 1440, Note_on_c, 1, 74, 54
2, 1865, Note_off_c, 1, 74, 0
2, 2400, Note_on_c, 1, 67, 54
2, 2880, Note_off_c, 1, 67, 0
2, 2880, Note_on_c, 1, 66, 52
2, 3300, Note_off_c, 1, 66, 0
2, 3840, Note_on_c, 1, 81, 56
2, 4200, Note_off_c, 1, 81, 0
2, 4200, Note_on_c, 1, 78, 57
2, 4295, Note_off_c, 1, 78, 0
2, 4320, Note_on_c, 1, 81, 58
2, 4740, Note_off_c, 1, 81, 0
2, 5280, Note_on_c, 1, 72, 58
2, 5760, Note_off_c, 1, 72, 0
2, 5760, Note_on_c, 1, 71, 57
2, 6180, Note_off_c, 1, 71, 0
2, 6720, Note_on_c, 1, 79, 65
2, 7080, Note_off_c, 1, 79, 0
2, 7080, Note_on_c, 1, 78, 69
2, 7175, Note_off_c, 1, 78, 0
2, 7200, Note_on_c, 1, 78, 74
2, 7440, Note_off_c, 1, 78, 0
2, 7440, Note_on_c, 1, 76, 71
2, 7625, Note_off_c, 1, 76, 0
2, 7680, Note_on_c, 1, 76, 68
2, 8105, Note_off_c, 1, 76, 0
2, 8160, Note_on_c, 1, 79, 70
2, 8520, Note_off_c, 1, 79, 0
2, 8520, Note_on_c, 1, 76, 74
2, 8615, Note_off_c, 1, 76, 0
2, 8640, Note_on_c, 1, 76, 79
2, 8880, Note_off_c, 1, 76, 0
2, 8880, Note_on_c, 1, 74, 77
2, 9065, Note_off_c, 1, 74, 0
2, 9120, Note_on_c, 1, 74, 75
2, 9545, Note_off_c, 1, 74, 0
2, 9600, Note_on_c, 1, 79, 71
2, 9960, Note_off_c, 1, 79, 0
2, 9960, Note_on_c, 1, 74, 77
2, 10055, Note_off_c, 1, 74, 0
2, 10080, Note_on_c, 1, 74, 80
2, 10320, Note_off_c, 1, 74, 0
2, 10560, Note_on_c, 1, 74, 79
2, 10800, Note_off_c, 1, 74, 0
2, 11040, Note_on_c, 1, 74, 82
2, 11280, Note_off_c, 1, 74, 0
2, 11520, Note_on_c, 1, 74, 85
2, 11640, Note_off_c, 1, 74, 0
2, 11640, Note_on_c, 1, 76, 83
2, 11760, Note_off_c, 1, 76, 0
2, 11760, Note_on_c, 1, 78, 83
2, 11880, Note_off_c, 1, 78, 0
2, 11880, Note_on_c, 1, 79, 82
2, 12000, Note_off_c, 1, 79, 0
2, 12000, Note_on_c, 1, 81, 82
2, 12120, Note_off_c, 1, 81, 0
2, 12120, Note_on_c, 1, 83, 81
2, 12240, Note_off_c, 1, 83, 0
2, 12240, Note_on_c, 1, 84, 80
2, 12360, Note_off_c, 1, 84, 0
2, 12360, Note_on_c, 1, 86, 80
2, 12480, Note_off_c, 1, 86, 0
2, 12480, Note_on_c, 1, 84, 79
2, 12600, Note_off_c, 1, 84, 0
2, 12600, Note_on_c, 1, 83, 79
2, 12720, Note_off_c, 1, 83, 0
2, 12720, Note_on_c, 1, 81, 78
2, 12840, Note_off_c, 1, 81, 0
2, 12840, Note_on_c, 1, 79, 78
2, 12960, Note_off_c, 1, 79, 0
2, 12960, Note_on_c, 1, 78, 77
2, 13080, Note_off_c, 1, 78, 0
2, 13080, Note_on_c, 1, 76, 77
2, 13200, Note_off_c, 1, 76, 0
2, 13200, Note_on_c, 1, 74, 76
2, 13320, Note_off_c, 1, 74, 0
2, 13320, Note_on_c, 1, 72, 75
2, 13415, Note_off_c, 1, 72, 0
2, 13440, Note_on_c, 1, 71, 75
2, 13560, Note_off_c, 1, 71, 0
2, 13560, Note_on_c, 1, 74, 74
2, 13680, Note_off_c, 1, 74, 0
2, 13680, Note_on_c, 1, 71, 74
2, 13800, Note_off_c, 1, 71, 0
2, 13800, Note_on_c, 1, 67, 73
2, 13895, Note_off_c, 1, 67, 0
2, 13920, Note_on_c, 1, 69, 73
2, 14040, Note_off_c, 1, 69, 0
2, 14040, Note_on_c, 1, 72, 72
2, 14160, Note_off_c, 1, 72, 0
2, 14160, Note_on_c, 1, 69, 72
2, 14280, Note_off_c, 1, 69, 0
2, 14280, Note_on_c, 1, 66, 71
2, 14375, Note_off_c, 1, 66, 0
2, 14400, Note_on_c, 1, 67, 70
2, 14825, Note_off_c, 1, 67, 0
2, 15360, Note_on_c, 1, 67, 48
2, 15720, Note_off_c, 1, 67, 0
2, 15720, Note_on_c, 1, 66, 53
2, 15815, Note_off_c, 1, 66, 0
2, 15840, Note_on_c, 1, 66, 55
2, 16080, Note_off_c, 1, 66, 0
2, 16080, Note_on_c, 1, 64, 52
2, 16260, Note_off_c, 1, 64, 0
2, 16320, Note_on_c, 1, 64, 48
2, 16745, Note_off_c, 1, 64, 0
2, 16800, Note_on_c, 1, 67, 51
2, 17160, Note_off_c, 1, 67, 0
2, 17160, Note_on_c, 1, 64, 55
2, 17255, Note_off_c, 1, 64, 0
2, 17280, Note_on_c, 1, 64, 61
2, 17520, Note_off_c, 1, 64, 0
2, 17520, Note_on_c, 1, 62, 58
2, 17700, Note_off_c, 1, 62, 0
2, 17760, Note_on_c, 1, 62, 56
2, 18185, Note_off_c, 1, 62, 0
2, 18240, Note_on_c, 1, 79, 67
2, 18600, Note_off_c, 1, 79, 0
2, 18600, Note_on_c, 1, 74, 69
2, 18695, Note_off_c, 1, 74, 0
2, 18720, Note_on_c, 1, 74, 74
2, 18960, Note_off_c, 1, 74, 0
2, 19200, Note_on_c, 1, 74, 74
2, 19440, Note_off_c, 1, 74, 0
2, 19680, Note_on_c, 1, 74, 81
2, 19920, Note_off_c, 1, 74, 0
2, 20160, Note_on_c, 1, 74, 85
2, 20280, Note_off_c, 1, 74, 0
2, 20280, Note_on_c, 1, 76, 81
2, 20400, Note_off_c, 1, 76, 0
2, 20400, Note_on_c, 1, 78, 81
2, 20520, Note_off_c, 1, 78, 0
2, 20520, Note_on_c, 1, 79, 80
2, 20640, Note_off_c, 1, 79, 0
2, 20640, Note_on_c, 1, 81, 80
2, 20760, Note_off_c, 1, 81, 0
2, 20760, Note_on_c, 1, 83, 79
2, 20880, Note_off_c, 1, 83, 0
2, 20880, Note_on_c, 1, 84, 79
2, 21000, Note_off_c, 1, 84, 0
2, 21000, Note_on_c, 1, 86, 78
2, 21120, Note_off_c, 1, 86, 0
2, 21120, Note_on_c, 1, 84, 78
2, 21240, Note_off_c, 1, 84, 0
2, 21240, Note_on_c, 1, 83, 77
2, 21360, Note_off_c, 1, 83, 0
2, 21360, Note_on_c, 1, 81, 77
2, 21480, Note_off_c, 1, 81, 0
2, 21480, Note_on_c, 1, 79, 76
2, 21600, Note_off_c, 1, 79, 0
2, 21600, Note_on_c, 1, 78, 76
2, 21720, Note_off_c, 1, 78, 0
2, 21720, Note_on_c, 1, 76, 76
2, 21840, Note_off_c, 1, 76, 0
2, 21840, Note_on_c, 1, 74, 75
2, 21960, Note_off_c, 1, 74, 0
2, 21960, Note_on_c, 1, 72, 75
2, 22055, Note_off_c, 1, 72, 0
2, 22080, Note_on_c, 1, 71, 74
2, 22200, Note_off_c, 1, 71, 0
2, 22200, Note_on_c, 1, 74, 74
2, 22320, Note_off_c, 1, 74, 0
2, 22320, Note_on_c, 1, 71, 73
2, 22440, Note_off_c, 1, 71, 0
2, 22440, Note_on_c, 1, 67, 73
2, 22535, Note_off_c, 1, 67, 0
2, 22560, Note_on_c, 1, 69, 72
2, 22680, Note_off_c, 1, 69, 0
2, 22680, Note_on_c, 1, 72, 72
2, 22800, Note_off_c, 1, 72, 0
2, 22800, Note_on_c, 1, 69, 71
2, 22920, Note_off_c, 1, 69, 0
2, 22920, Note_on_c, 1, 66, 71
2, 23015, Note_off_c, 1, 66, 0
2, 23040, Note_on_c, 1, 67, 70
2, 23430, Note_off_c, 1, 67, 0
2, 23760, Note_on_c, 1, 55, 42
2, 23855, Note_off_c, 1, 55, 0
2, 23880, Note_on_c, 1, 59, 43
2, 23975, Note_off_c, 1, 59, 0
2, 24000, Note_on_c, 1, 57, 43
2, 24095, Note_off_c, 1, 57, 0
2, 24120, Note_on_c, 1, 60, 44
2, 24215, Note_off_c, 1, 60, 0
2, 24240, Note_on_c, 1, 59, 45
2, 24335, Note_off_c, 1, 59, 0
2, 24360, Note_on_c, 1, 62, 45
2, 24455, Note_off_c, 1, 62, 0
2, 24480, Note_on_c, 1, 60, 46
2, 24960, Note_off_c, 1, 60, 0
2, 25200, Note_on_c, 1, 57, 50
2, 25295, Note_off_c, 1, 57, 0
2, 25320, Note_on_c, 1, 60, 51
2, 25415, Note_off_c, 1, 60, 0
2, 25440, Note_on_c, 1, 59, 52
2, 25535, Note_off_c, 1, 59, 0
2, 25560, Note_on_c, 1, 62, 53
2, 25655, Note_off_c, 1, 62, 0
2, 25680, Note_on_c, 1, 60, 53
2, 25775, Note_off_c, 1, 60, 0
2, 25800, Note_on_c, 1, 64, 54
2, 25895, Note_off_c, 1, 64, 0
2, 25920, Note_on_c, 1, 62, 55
2, 26400, Note_off_c, 1, 62, 0
2, 26640, Note_on_c, 1, 59, 59
2, 26735, Note_off_c, 1, 59, 0
2, 26760, Note_on_c, 1, 62, 60
2, 26855, Note_off_c, 1, 62, 0
2, 26880, Note_on_c, 1, 60, 60
2, 26975, Note_off_c, 1, 60, 0
2, 27000, Note_on_c, 1, 64, 61
2, 27095, Note_off_c, 1, 64, 0
2, 27120, Note_on_c, 1, 62, 62
2, 27215, Note_off_c, 1, 62, 0
2, 27240, Note_on_c, 1, 65, 63
2, 27335, Note_off_c, 1, 65, 0
2, 27360, Note_on_c, 1, 64, 63
2, 27455, Note_off_c, 1, 64, 0
2, 27480, Note_on_c, 1, 65, 64
2, 27575, Note_off_c, 1, 65, 0
2, 27600, Note_on_c, 1, 62, 65
2, 27695, Note_off_c, 1, 62, 0
2, 27720, Note_on_c, 1, 64, 65
2, 27815, Note_off_c, 1, 64, 0
2, 27840, Note_on_c, 1, 60, 66
2, 27935, Note_off_c, 1, 60, 0
2, 27960, Note_on_c, 1, 64, 67
2, 28055, Note_off_c, 1, 64, 0
2, 28080, Note_on_c, 1, 62, 68
2, 28175, Note_off_c, 1, 62, 0
2, 28200, Note_on_c, 1, 65, 68
2, 28295, Note_off_c, 1, 65, 0
2, 28320, Note_on_c, 1, 64, 69
2, 28415, Note_off_c, 1, 64, 0
2, 28440, Note_on_c, 1, 67, 70
2, 28535, Note_off_c, 1, 67, 0
2, 28560, Note_on_c, 1, 66, 70
2, 28655, Note_off_c, 1, 66, 0
2, 28680, Note_on_c, 1, 69, 71
2, 28775, Note_off_c, 1, 69, 0
2, 28800, Note_on_c, 1, 67, 72
2, 28895, Note_off_c, 1, 67, 0
2, 28920, Note_on_c, 1, 69, 73
2, 29015, Note_off_c, 1, 69, 0
2, 29040, Note_on_c, 1, 66, 73
2, 29135, Note_off_c, 1, 66, 0
2, 29160, Note_on_c, 1, 67, 74
2, 29255, Note_off_c, 1, 67, 0
2, 29280, Note_on_c, 1, 64, 75
2, 29375, Note_off_c, 1, 64, 0
2, 29400, Note_on_c, 1, 67, 75
2, 29495, Note_off_c, 1, 67, 0
2, 29520, Note_on_c, 1, 66, 76
2, 29615, Note_off_c, 1, 66, 0
2, 29640, Note_on_c, 1, 69, 77
2, 29735, Note_off_c, 1, 69, 0
2, 29760, Note_on_c, 1, 67, 78
2, 29855, Note_off_c, 1, 67, 0
2, 29880, Note_on_c, 1, 71, 78
2, 29975, Note_off_c, 1, 71, 0
2, 30000, Note_on_c, 1, 69, 79
2, 30095, Note_off_c, 1, 69, 0
2, 30120, Note_on_c, 1, 72, 80
2, 30215, Note_off_c, 1, 72, 0
2, 30240, Note_on_c, 1, 71, 80
2, 30335, Note_off_c, 1, 71, 0
2, 30360, Note_on_c, 1, 72, 81
2, 30455, Note_off_c, 1, 72, 0
2, 30480, Note_on_c, 1, 69, 82
2, 30575, Note_off_c, 1, 69, 0
2, 30600, Note_on_c, 1, 71, 83
2, 30695, Note_off_c, 1, 71, 0
2, 30720, Note_on_c, 1, 67, 83
2, 30815, Note_off_c, 1, 67, 0
2, 30840, Note_on_c, 1, 71, 84
2, 30935, Note_off_c, 1, 71, 0
2, 30960, Note_on_c, 1, 69, 85
2, 31055, Note_off_c, 1, 69, 0
2, 31080, Note_on_c, 1, 72, 85
2, 31175, Note_off_c, 1, 72, 0
2, 31200, Note_on_c, 1, 71, 86
2, 31295, Note_off_c, 1, 71, 0
2, 31320, Note_on_c, 1, 74, 87
2, 31415, Note_off_c, 1, 74, 0
2, 31440, Note_on_c, 1, 73, 88
2, 31535, Note_off_c, 1, 73, 0
2, 31560, Note_on_c, 1, 76, 88
2, 31655, Note_off_c, 1, 76, 0
2, 31680, Note_on_c, 1, 74, 89
2, 32065, Note_off_c, 1, 74, 0
2, 32160, Note_on_c, 1, 62, 87
2, 32220, Note_on_c, 1, 61, 87
2, 32250, Note_off_c, 1, 62, 0
2, 32280, Note_on_c, 1, 62, 87
2, 32315, Note_off_c, 1, 61, 0
2, 32645, Note_off_c, 1, 62, 0
2, 33360, Note_on_c, 1, 81, 45
2, 33840, Note_off_c, 1, 81, 0
2, 33840, Note_on_c, 1, 79, 47
2, 34320, Note_off_c, 1, 79, 0
2, 34320, Note_on_c, 1, 78, 48
2, 34800, Note_off_c, 1, 78, 0
2, 34800, Note_on_c, 1, 76, 50
2, 35280, Note_off_c, 1, 76, 0
2, 35280, Note_on_c, 1, 74, 52
2, 35760, Note_off_c, 1, 74, 0
2, 35760, Note_on_c, 1, 73, 54
2, 35970, Note_off_c, 1, 73, 0
2, 36000, Note_on_c, 1, 76, 55
2, 36120, Note_on_c, 1, 74, 55
2, 36135, Note_off_c, 1, 76, 0
2, 36420, Note_off_c, 1, 74, 0
2, 36480, Note_on_c, 1, 78, 54
2, 36600, Note_on_c, 1, 76, 53
2, 36620, Note_off_c, 1, 78, 0
2, 36905, Note_off_c, 1, 76, 0
2, 36960, Note_on_c, 1, 79, 52
2, 37080, Note_on_c, 1, 78, 51
2, 37100, Note_off_c, 1, 79, 0
2, 37385, Note_off_c, 1, 78, 0
2, 37440, Note_on_c, 1, 81, 51
2, 37800, Note_off_c, 1, 81, 0
2, 37800, Note_on_c, 1, 79, 47
2, 37920, Note_off_c, 1, 79, 0
2, 37920, Note_on_c, 1, 76, 44
2, 38355, Note_off_c, 1, 76, 0
2, 39120, Note_on_c, 1, 81, 58
2, 39240, Note_off_c, 1, 81, 0
2, 39240, Note_on_c, 1, 83, 59
2, 39360, Note_off_c, 1, 83, 0
2, 39360, Note_on_c, 1, 79, 60
2, 39540, Note_off_c, 1, 79, 0
2, 39600, Note_on_c, 1, 79, 61
2, 39720, Note_off_c, 1, 79, 0
2, 39720, Note_on_c, 1, 81, 62
2, 39840, Note_off_c, 1, 81, 0
2, 39840, Note_on_c, 1, 78, 63
2, 40020, Note_off_c, 1, 78, 0
2, 40080, Note_on_c, 1, 78, 64
2, 40200, Note_off_c, 1, 78, 0
2, 40200, Note_on_c, 1, 79, 65
2, 40320, Note_off_c, 1, 79, 0
2, 40320, Note_on_c, 1, 76, 66
2, 40500, Note_off_c, 1, 76, 0
2, 40560, Note_on_c, 1, 76, 67
2, 40680, Note_off_c, 1, 76, 0
2, 40680, Note_on_c, 1, 78, 68
2, 40800, Note_off_c, 1, 78, 0
2, 40800, Note_on_c, 1, 74, 69
2, 40980, Note_off_c, 1, 74, 0
2, 41040, Note_on_c, 1, 74, 70
2, 41160, Note_off_c, 1, 74, 0
2, 41160, Note_on_c, 1, 76, 71
2, 41280, Note_off_c, 1, 76, 0
2, 41280, Note_on_c, 1, 73, 72
2, 41460, Note_off_c, 1, 73, 0
2, 41520, Note_on_c, 1, 73, 73
2, 41640, Note_off_c, 1, 73, 0
2, 41640, Note_on_c, 1, 76, 74
2, 41760, Note_off_c, 1, 76, 0
2, 41760, Note_on_c, 1, 74, 73
2, 41880, Note_off_c, 1, 74, 0
2, 41880, Note_on_c, 1, 76, 73
2, 42000, Note_off_c, 1, 76, 0
2, 42000, Note_on_c, 1, 78, 72
2, 42120, Note_off_c, 1, 78, 0
2, 42120, Note_on_c, 1, 74, 72
2, 42240, Note_off_c, 1, 74, 0
2, 42240, Note_on_c, 1, 76, 71
2, 42360, Note_off_c, 1, 76, 0
2, 42360, Note_on_c, 1, 78, 70
2, 42480, Note_off_c, 1, 78, 0
2, 42480, Note_on_c, 1, 79, 70
2, 42600, Note_off_c, 1, 79, 0
2, 42600, Note_on_c, 1, 76, 69
2, 42720, Note_off_c, 1, 76, 0
2, 42720, Note_on_c, 1, 78, 69
2, 42840, Note_off_c, 1, 78, 0
2, 42840, Note_on_c, 1, 79, 68
2, 42960, Note_off_c, 1, 79, 0
2, 42960, Note_on_c, 1, 81, 67
2, 43080, Note_off_c, 1, 81, 0
2, 43080, Note_on_c, 1, 78, 67
2, 43200, Note_off_c, 1, 78, 0
2, 43200, Note_on_c, 1, 81, 65
2, 43320, Note_off_c, 1, 81, 0
2, 43320, Note_on_c, 1, 79, 64
2, 43440, Note_off_c, 1, 79, 0
2, 43440, Note_on_c, 1, 81, 63
2, 43560, Note_off_c, 1, 81, 0
2, 43560, Note_on_c, 1, 79, 61
2, 43680, Note_off_c, 1, 79, 0
2, 43680, Note_on_c, 1, 76, 60
2, 44105, Note_off_c, 1, 76, 0
2, 44880, Note_on_c, 1, 74, 54
2, 45035, Note_off_c, 1, 74, 0
2, 45120, Note_on_c, 1, 73, 56
2, 45275, Note_off_c, 1, 73, 0
2, 45360, Note_on_c, 1, 74, 58
2, 45515, Note_off_c, 1, 74, 0
2, 45600, Note_on_c, 1, 79, 73
2, 45840, Note_off_c, 1, 79, 0
2, 45840, Note_on_c, 1, 78, 64
2, 46000, Note_off_c, 1, 78, 0
2, 46320, Note_on_c, 1, 74, 58
2, 46475, Note_off_c, 1, 74, 0
2, 46560, Note_on_c, 1, 73, 59
2, 46715, Note_off_c, 1, 73, 0
2, 46800, Note_on_c, 1, 74, 61
2, 46955, Note_off_c, 1, 74, 0
2, 47040, Note_on_c, 1, 83, 75
2, 47280, Note_off_c, 1, 83, 0
2, 47280, Note_on_c, 1, 81, 66
2, 47435, Note_off_c, 1, 81, 0
2, 47760, Note_on_c, 1, 74, 61
2, 47915, Note_off_c, 1, 74, 0
2, 48000, Note_on_c, 1, 73, 62
2, 48155, Note_off_c, 1, 73, 0
2, 48240, Note_on_c, 1, 74, 63
2, 48395, Note_off_c, 1, 74, 0
2, 48480, Note_on_c, 1, 86, 77
2, 48720, Note_off_c, 1, 86, 0
2, 48720, Note_on_c, 1, 85, 66
2, 48875, Note_off_c, 1, 85, 0
2, 48960, Note_on_c, 1, 84, 78
2, 49200, Note_off_c, 1, 84, 0
2, 49200, Note_on_c, 1, 83, 68
2, 49355, Note_off_c, 1, 83, 0
2, 49440, Note_on_c, 1, 80, 81
2, 49680, Note_off_c, 1, 80, 0
2, 49680, Note_on_c, 1, 81, 68
2, 49835, Note_off_c, 1, 81, 0
2, 49920, Note_on_c, 1, 78, 81
2, 50160, Note_off_c, 1, 78, 0
2, 50160, Note_on_c, 1, 79, 70
2, 50315, Note_off_c, 1, 79, 0
2, 50400, Note_on_c, 1, 79, 80
2, 50520, Note_off_c, 1, 79, 0
2, 50520, Note_on_c, 1, 76, 80
2, 50640, Note_off_c, 1, 76, 0
2, 50640, Note_on_c, 1, 73, 80
2, 50760, Note_off_c, 1, 73, 0
2, 50760, Note_on_c, 1, 69, 80
2, 50880, Note_off_c, 1, 69, 0
2, 50880, Note_on_c, 1, 68, 80
2, 51000, Note_off_c, 1, 68, 0
2, 51000, Note_on_c, 1, 69, 80
2, 51120, Note_off_c, 1, 69, 0
2, 51120, Note_on_c, 1, 71, 81
2, 51240, Note_off_c, 1, 71, 0
2, 51240, Note_on_c, 1, 69, 81
2, 51335, Note_off_c, 1, 69, 0
2, 51360, Note_on_c, 1, 79, 89
2, 51480, Note_off_c, 1, 79, 0
2, 51480, Note_on_c, 1, 76, 87
2, 51600, Note_off_c, 1, 76, 0
2, 51600, Note_on_c, 1, 73, 85
2, 51720, Note_off_c, 1, 73, 0
2, 51720, Note_on_c, 1, 69, 83
2, 51815, Note_off_c, 1, 69, 0
2, 51840, Note_on_c, 1, 81, 82
2, 51960, Note_off_c, 1, 81, 0
2, 51960, Note_on_c, 1, 78, 82
2, 52080, Note_off_c, 1, 78, 0
2, 52080, Note_on_c, 1, 74, 82
2, 52200, Note_off_c, 1, 74, 0
2, 52200, Note_on_c, 1, 69, 82
2, 52320, Note_off_c, 1, 69, 0
2, 52320, Note_on_c, 1, 68, 82
2, 52440, Note_off_c, 1, 68, 0
2, 52440, Note_on_c, 1, 69, 82
2, 52560, Note_off_c, 1, 69, 0
2, 52560, Note_on_c, 1, 71, 82
2, 52680, Note_off_c, 1, 71, 0
2, 52680, Note_on_c, 1, 69, 83
2, 52775, Note_off_c, 1, 69, 0
2, 52800, Note_on_c, 1, 81, 92
2, 52920, Note_off_c, 1, 81, 0
2, 52920, Note_on_c, 1, 78, 89
2, 53040, Note_off_c, 1, 78, 0
2, 53040, Note_on_c, 1, 74, 86
2, 53160, Note_off_c, 1, 74, 0
2, 53160, Note_on_c, 1, 69, 83
2, 53255, Note_off_c, 1, 69, 0
2, 53280, Note_on_c, 1, 71, 81
2, 53400, Note_off_c, 1, 71, 0
2, 53400, Note_on_c, 1, 76, 83
2, 53520, Note_off_c, 1, 76, 0
2, 53520, Note_on_c, 1, 79, 85
2, 53640, Note_off_c, 1, 79, 0
2, 53640, Note_on_c, 1, 83, 88
2, 53735, Note_off_c, 1, 83, 0
2, 53760, Note_on_c, 1, 83, 89
2, 53880, Note_off_c, 1, 83, 0
2, 53880, Note_on_c, 1, 81, 88
2, 54000, Note_off_c, 1, 81, 0
2, 54000, Note_on_c, 1, 79, 87
2, 54120, Note_off_c, 1, 79, 0
2, 54120, Note_on_c, 1, 78, 86
2, 54215, Note_off_c, 1, 78, 0
2, 54240, Note_on_c, 1, 78, 86
2, 54360, Note_off_c, 1, 78, 0
2, 54360, Note_on_c, 1, 76, 85
2, 54480, Note_off_c, 1, 76, 0
2, 54480, Note_on_c, 1, 74, 84
2, 54600, Note_off_c, 1, 74, 0
2, 54600, Note_on_c, 1, 73, 83
2, 54695, Note_off_c, 1, 73, 0
2, 54960, Note_on_c, 1, 74, 68
2, 55115, Note_off_c, 1, 74, 0
2, 55200, Note_on_c, 1, 73, 70
2, 55355, Note_off_c, 1, 73, 0
2, 55440, Note_on_c, 1, 74, 71
2, 55595, Note_off_c, 1, 74, 0
2, 55680, Note_on_c, 1, 86, 86
2, 55920, Note_off_c, 1, 86, 0
2, 55920, Note_on_c, 1, 85, 70
2, 56075, Note_off_c, 1, 85, 0
2, 56160, Note_on_c, 1, 84, 86
2, 56400, Note_off_c, 1, 84, 0
2, 56400, Note_on_c, 1, 83, 72
2, 56555, Note_off_c, 1, 83, 0
2, 56640, Note_on_c, 1, 80, 88
2, 56880, Note_off_c, 1, 80, 0
2, 56880, Note_on_c, 1, 81, 73
2, 57035, Note_off_c, 1, 81, 0
2, 57120, Note_on_c, 1, 78, 91
2, 57360, Note_off_c, 1, 78, 0
2, 57360, Note_on_c, 1, 79, 74
2, 57515, Note_off_c, 1, 79, 0
2, 57600, Note_on_c, 1, 79, 89
2, 57720, Note_off_c, 1, 79, 0
2, 57720, Note_on_c, 1, 76, 89
2, 57840, Note_off_c, 1, 76, 0
2, 57840, Note_on_c, 1, 73, 89
2, 57960, Note_off_c, 1, 73, 0
2, 57960, Note_on_c, 1, 69, 89
2, 58080, Note_off_c, 1, 69, 0
2, 58080, Note_on_c, 1, 68, 90
2, 58200, Note_off_c, 1, 68, 0
2, 58200, Note_on_c, 1, 69, 90
2, 58320, Note_off_c, 1, 69, 0
2, 58320, Note_on_c, 1, 71, 90
2, 58440, Note_off_c, 1, 71, 0
2, 58440, Note_on_c, 1, 69, 90
2, 58535, Note_off_c, 1, 69, 0
2, 58560, Note_on_c, 1, 79, 101
2, 58680, Note_off_c, 1, 79, 0
2, 58680, Note_on_c, 1, 76, 98
2, 58800, Note_off_c, 1, 76, 0
2, 58800, Note_on_c, 1, 73, 95
2, 58920, Note_off_c, 1, 73, 0
2, 58920, Note_on_c, 1, 69, 92
2, 59040, Note_off_c, 1, 69, 0
2, 59040, Note_on_c, 1, 81, 90
2, 59160, Note_off_c, 1, 81, 0
2, 59160, Note_on_c, 1, 78, 91
2, 59280, Note_off_c, 1, 78, 0
2, 59280, Note_on_c, 1, 74, 91
2, 59400, Note_off_c, 1, 74, 0
2, 59400, Note_on_c, 1, 69, 91
2, 59520, Note_off_c, 1, 69, 0
2, 59520, Note_on_c, 1, 68, 91
2, 59640, Note_off_c, 1, 68, 0
2, 59640, Note_on_c, 1, 69, 92
2, 59760, Note_off_c, 1, 69, 0
2, 59760, Note_on_c, 1, 71, 92
2, 59880, Note_off_c, 1, 71, 0
2, 59880, Note_on_c, 1, 69, 92
2, 59975, Note_off_c, 1, 69, 0
2, 60000, Note_on_c, 1, 81, 101
2, 60120, Note_off_c, 1, 81, 0
2, 60120, Note_on_c, 1, 78, 98
2, 60240, Note_off_c, 1, 78, 0
2, 60240, Note_on_c, 1, 74, 96
2, 60360, Note_off_c, 1, 74, 0
2, 60360, Note_on_c, 1, 69, 94
2, 60455, Note_off_c, 1, 69, 0
2, 60480, Note_on_c, 1, 71, 93
2, 60600, Note_off_c, 1, 71, 0
2, 60600, Note_on_c, 1, 76, 93
2, 60720, Note_off_c, 1, 76, 0
2, 60720, Note_on_c, 1, 79, 96
2, 60840, Note_off_c, 1, 79, 0
2, 60840, Note_on_c, 1, 83, 98
2, 60935, Note_off_c, 1, 83, 0
2, 60960, Note_on_c, 1, 83, 98
2, 61080, Note_off_c, 1, 83, 0
2, 61080, Note_on_c, 1, 81, 97
2, 61200, Note_off_c, 1, 81, 0
2, 61200, Note_on_c, 1, 79, 95
2, 61320, Note_off_c, 1, 79, 0
2, 61320, Note_on_c, 1, 78, 94
2, 61415, Note_off_c, 1, 78, 0
2, 61440, Note_on_c, 1, 78, 92
2, 61560, Note_off_c, 1, 78, 0
2, 61560, Note_on_c, 1, 76, 91
2, 61680, Note_off_c, 1, 76, 0
2, 61680, Note_on_c, 1, 74, 89
2, 61800, Note_off_c, 1, 74, 0
2, 61800, Note_on_c, 1, 73, 88
2, 61895, Note_off_c, 1, 73, 0
2, 61920, Note_on_c, 1, 74, 89
2, 62075, Note_off_c, 1, 74, 0
2, 62160, Note_on_c, 1, 74, 86
2, 62280, Note_off_c, 1, 74, 0
2, 62280, Note_on_c, 1, 78, 85
2, 62400, Note_off_c, 1, 78, 0
2, 62400, Note_on_c, 1, 76, 83
2, 62520, Note_off_c, 1, 76, 0
2, 62520, Note_on_c, 1, 79, 82
2, 62640, Note_off_c, 1, 79, 0
2, 62640, Note_on_c, 1, 78, 80
2, 62760, Note_off_c, 1, 78, 0
2, 62760, Note_on_c, 1, 81, 79
2, 62855, Note_off_c, 1, 81, 0
2, 62880, Note_on_c, 1, 79, 77
2, 62960, Note_off_c, 1, 79, 0
2, 62960, Note_on_c, 1, 81, 76
2, 63040, Note_off_c, 1, 81, 0
2, 63040, Note_on_c, 1, 79, 75
2, 63120, Note_off_c, 1, 79, 0
2, 63120, Note_on_c, 1, 78, 74
2, 63240, Note_off_c, 1, 78, 0
2, 63240, Note_on_c, 1, 79, 73
2, 63335, Note_off_c, 1, 79, 0
2, 63360, Note_on_c, 1, 74, 70
2, 63515, Note_off_c, 1, 74, 0
2, 63600, Note_on_c, 1, 74, 67
2, 63720, Note_off_c, 1, 74, 0
2, 63720, Note_on_c, 1, 78, 65
2, 63840, Note_off_c, 1, 78, 0
2, 63840, Note_on_c, 1, 76, 63
2, 63960, Note_off_c, 1, 76, 0
2, 63960, Note_on_c, 1, 79, 61
2, 64080, Note_off_c, 1, 79, 0
2, 64080, Note_on_c, 1, 78, 60
2, 64200, Note_off_c, 1, 78, 0
2, 64200, Note_on_c, 1, 81, 58
2, 64295, Note_off_c, 1, 81, 0
2, 64320, Note_on_c, 1, 79, 56
2, 64400, Note_off_c, 1, 79, 0
2, 64400, Note_on_c, 1, 81, 55
2, 64480, Note_off_c, 1, 81, 0
2, 64480, Note_on_c, 1, 79, 54
2, 64560, Note_off_c, 1, 79, 0
2, 64560, Note_on_c, 1, 78, 50
2, 64680, Note_off_c, 1, 78, 0
2, 64680, Note_on_c, 1, 79, 48
2, 64775, Note_off_c, 1, 79, 0
2, 65040, Note_on_c, 1, 83, 47
2, 65520, Note_off_c, 1, 83, 0
2, 65520, Note_on_c, 1, 81, 49
2, 66000, Note_off_c, 1, 81, 0
2, 66000, Note_on_c, 1, 79, 51
2, 66480, Note_off_c, 1, 79, 0
2, 66480, Note_on_c, 1, 78, 54
2, 66960, Note_off_c, 1, 78, 0
2, 66960, Note_on_c, 1, 76, 56
2, 67440, Note_off_c, 1, 76, 0
2, 67440, Note_on_c, 1, 74, 58
2, 67625, Note_off_c, 1, 74, 0
2, 67680, Note_on_c, 1, 75, 61
2, 67920, Note_off_c, 1, 75, 0
2, 67920, Note_on_c, 1, 76, 59
2, 68115, Note_off_c, 1, 76, 0
2, 68400, Note_on_c, 1, 79, 54
2, 68520, Note_off_c, 1, 79, 0
2, 68640, Note_on_c, 1, 76, 51
2, 68760, Note_off_c, 1, 76, 0
2, 68880, Note_on_c, 1, 73, 47
2, 69000, Note_off_c, 1, 73, 0
2, 69120, Note_on_c, 1, 78, 64
2, 69600, Note_off_c, 1, 78, 0
2, 69600, Note_on_c, 1, 76, 66
2, 70080, Note_off_c, 1, 76, 0
2, 70080, Note_on_c, 1, 74, 68
2, 70560, Note_off_c, 1, 74, 0
2, 70560, Note_on_c, 1, 73, 70
2, 71040, Note_off_c, 1, 73, 0
2, 71040, Note_on_c, 1, 71, 72
2, 71520, Note_off_c, 1, 71, 0
2, 71520, Note_on_c, 1, 69, 74
2, 71970, Note_off_c, 1, 69, 0
2, 72000, Note_on_c, 1, 76, 77
2, 72120, Note_off_c, 1, 76, 0
2, 72120, Note_on_c, 1, 79, 77
2, 72240, Note_off_c, 1, 79, 0
2, 72240, Note_on_c, 1, 83, 76
2, 72360, Note_off_c, 1, 83, 0
2, 72360, Note_on_c, 1, 79, 76
2, 72455, Note_off_c, 1, 79, 0
2, 72480, Note_on_c, 1, 78, 75
2, 72600, Note_off_c, 1, 78, 0
2, 72600, Note_on_c, 1, 81, 74
2, 72720, Note_off_c, 1, 81, 0
2, 72720, Note_on_c, 1, 74, 74
2, 72840, Note_off_c, 1, 74, 0
2, 72840, Note_on_c, 1, 78, 73
2, 72935, Note_off_c, 1, 78, 0
2, 72960, Note_on_c, 1, 76, 73
2, 73080, Note_off_c, 1, 76, 0
2, 73080, Note_on_c, 1, 79, 72
2, 73200, Note_off_c, 1, 79, 0
2, 73200, Note_on_c, 1, 73, 72
2, 73320, Note_off_c, 1, 73, 0
2, 73320, Note_on_c, 1, 76, 71
2, 73415, Note_off_c, 1, 76, 0
2, 73440, Note_on_c, 1, 74, 70
2, 73920, Note_off_c, 1, 74, 0
2, 74160, Note_on_c, 1, 72, 68
2, 74280, Note_off_c, 1, 72, 0
2, 74400, Note_on_c, 1, 71, 66
2, 74520, Note_off_c, 1, 71, 0
2, 74640, Note_on_c, 1, 73, 63
2, 74760, Note_off_c, 1, 73, 0
2, 74880, Note_on_c, 1, 74, 61
2, 75360, Note_off_c, 1, 74, 0
2, 75600, Note_on_c, 1, 84, 59
2, 75720, Note_off_c, 1, 84, 0
2, 75840, Note_on_c, 1, 83, 57
2, 75960, Note_off_c, 1, 83, 0
2, 76080, Note_on_c, 1, 85, 53
2, 76200, Note_off_c, 1, 85, 0
2, 76320, Note_on_c, 1, 86, 49
2, 76800, Note_off_c, 1, 86, 0
2, 77280, Control_c, 1, 64, 0
2, 77760, Note_on_c, 1, 80, 39
2, 77880, Note_on_c, 1, 81, 41
2, 77900, Note_off_c, 1, 80, 0
2, 78195, Note_off_c, 1, 81, 0
2, 79200, Note_on_c, 1, 79, 40
2, 79320, Note_off_c, 1, 79, 0
2, 79320, Note_on_c, 1, 78, 41
2, 79440, Note_off_c, 1, 78, 0
2, 79440, Note_on_c, 1, 76, 41
2, 79560, Note_off_c, 1, 76, 0
2, 79560, Note_on_c, 1, 74, 41
2, 79655, Note_off_c, 1, 74, 0
2, 79680, Note_on_c, 1, 73, 41
2, 80105, Note_off_c, 1, 73, 0
2, 80640, Note_on_c, 1, 74, 42
2, 80760, Note_on_c, 1, 86, 45
2, 80775, Note_off_c, 1, 74, 0
2, 81065, Note_off_c, 1, 86, 0
2, 82080, Note_on_c, 1, 76, 44
2, 82680, Note_on_c, 1, 78, 44
2, 82695, Note_off_c, 1, 76, 0
2, 82800, Note_off_c, 1, 78, 0
2, 82800, Note_on_c, 1, 79, 44
2, 82920, Note_off_c, 1, 79, 0
2, 82920, Note_on_c, 1, 78, 45
2, 83015, Note_off_c, 1, 78, 0
2, 83040, Note_on_c, 1, 81, 45
2, 83160, Note_off_c, 1, 81, 0
2, 83160, Note_on_c, 1, 79, 45
2, 83280, Note_off_c, 1, 79, 0
2, 83280, Note_on_c, 1, 78, 45
2, 83400, Note_off_c, 1, 78, 0
2, 83400, Note_on_c, 1, 76, 45
2, 83495, Note_off_c, 1, 76, 0
2, 83520, Note_on_c, 1, 80, 45
2, 83640, Note_off_c, 1, 80, 0
2, 83640, Note_on_c, 1, 81, 45
2, 83760, Note_off_c, 1, 81, 0
2, 83760, Note_on_c, 1, 80, 45
2, 83880, Note_off_c, 1, 80, 0
2, 83880, Note_on_c, 1, 81, 46
2, 83975, Note_off_c, 1, 81, 0
2, 84000, Note_on_c, 1, 83, 46
2, 84120, Note_off_c, 1, 83, 0
2, 84120, Note_on_c, 1, 81, 46
2, 84425, Note_off_c, 1, 81, 0
2, 84960, Note_on_c, 1, 81, 47
2, 85080, Note_off_c, 1, 81, 0
2, 85080, Note_on_c, 1, 79, 47
2, 85200, Note_off_c, 1, 79, 0
2, 85200, Note_on_c, 1, 78, 47
2, 85320, Note_off_c, 1, 78, 0
2, 85320, Note_on_c, 1, 76, 47
2, 85415, Note_off_c, 1, 76, 0
2, 85440, Note_on_c, 1, 74, 47
2, 85920, Note_off_c, 1, 74, 0
2, 85920, Note_on_c, 1, 73, 48
2, 86160, Note_off_c, 1, 73, 0
2, 86400, Note_on_c, 1, 85, 48
2, 86520, Note_off_c, 1, 85, 0
2, 86520, Note_on_c, 1, 86, 48
2, 86640, Note_off_c, 1, 86, 0
2, 86640, Note_on_c, 1, 85, 49
2, 86760, Note_off_c, 1, 85, 0
2, 86760, Note_on_c, 1, 86, 49
2, 86855, Note_off_c, 1, 86, 0
2, 86880, Note_on_c, 1, 88, 49
2, 87000, Note_off_c, 1, 88, 0
2, 87000, Note_on_c, 1, 86, 49
2, 87315, Note_off_c, 1, 86, 0
2, 87840, Note_on_c, 1, 86, 50
2, 87960, Note_on_c, 1, 76, 50
2, 87995, Note_off_c, 1, 86, 0
2, 88440, Note_on_c, 1, 75, 51
2, 88445, Note_off_c, 1, 76, 0
2, 88560, Note_off_c, 1, 75, 0
2, 88560, Note_on_c, 1, 76, 51
2, 88680, Note_off_c, 1, 76, 0
2, 88680, Note_on_c, 1, 78, 51
2, 88775, Note_off_c, 1, 78, 0
2, 88800, Note_on_c, 1, 81, 51
2, 88920, Note_off_c, 1, 81, 0
2, 88920, Note_on_c, 1, 79, 51
2, 89040, Note_off_c, 1, 79, 0
2, 89040, Note_on_c, 1, 78, 51
2, 89160, Note_off_c, 1, 78, 0
2, 89160, Note_on_c, 1, 76, 51
2, 89255, Note_off_c, 1, 76, 0
2, 89280, Note_on_c, 1, 74, 73
2, 89705, Note_off_c, 1, 74, 0
2, 90000, Note_on_c, 1, 76, 64
2, 90080, Note_off_c, 1, 76, 0
2, 90080, Note_on_c, 1, 74, 64
2, 90160, Note_off_c, 1, 74, 0
2, 90160, Note_on_c, 1, 73, 65
2, 90240, Note_off_c, 1, 73, 0
2, 90240, Note_on_c, 1, 74, 65
2, 90360, Note_off_c, 1, 74, 0
2, 90480, Note_on_c, 1, 74, 65
2, 90600, Note_off_c, 1, 74, 0
2, 90720, Note_on_c, 1, 83, 65
2, 90840, Note_off_c, 1, 83, 0
2, 90960, Note_on_c, 1, 81, 66
2, 91080, Note_off_c, 1, 81, 0
2, 91200, Note_on_c, 1, 79, 66
2, 91320, Note_off_c, 1, 79, 0
2, 91440, Note_on_c, 1, 78, 66
2, 91560, Note_off_c, 1, 78, 0
2, 91680, Note_on_c, 1, 76, 66
2, 91800, Note_off_c, 1, 76, 0
2, 91920, Note_on_c, 1, 74, 67
2, 92040, Note_off_c, 1, 74, 0
2, 92160, Note_on_c, 1, 72, 76
2, 92640, Note_off_c, 1, 72, 0
2, 92880, Note_on_c, 1, 74, 68
2, 92960, Note_off_c, 1, 74, 0
2, 92960, Note_on_c, 1, 72, 68
2, 93040, Note_off_c, 1, 72, 0
2, 93040, Note_on_c, 1, 71, 68
2, 93120, Note_off_c, 1, 71, 0
2, 93120, Note_on_c, 1, 72, 68
2, 93240, Note_off_c, 1, 72, 0
2, 93360, Note_on_c, 1, 72, 68
2, 93480, Note_off_c, 1, 72, 0
2, 93600, Note_on_c, 1, 81, 69
2, 93720, Note_off_c, 1, 81, 0
2, 93840, Note_on_c, 1, 79, 69
2, 93960, Note_off_c, 1, 79, 0
2, 94080, Note_on_c, 1, 78, 69
2, 94200, Note_off_c, 1, 78, 0
2, 94320, Note_on_c, 1, 76, 69
2, 94440, Note_off_c, 1, 76, 0
2, 94560, Note_on_c, 1, 74, 70
2, 94680, Note_off_c, 1, 74, 0
2, 94800, Note_on_c, 1, 72, 70
2, 94920, Note_off_c, 1, 72, 0
2, 95040, Note_on_c, 1, 71, 82
2, 95520, Note_off_c, 1, 71, 0
2, 95760, Note_on_c, 1, 72, 71
2, 95840, Note_off_c, 1, 72, 0
2, 95840, Note_on_c, 1, 71, 71
2, 95920, Note_off_c, 1, 71, 0
2, 95920, Note_on_c, 1, 69, 71
2, 96000, Note_off_c, 1, 69, 0
2, 96000, Note_on_c, 1, 71, 71
2, 96120, Note_off_c, 1, 71, 0
2, 96240, Note_on_c, 1, 71, 72
2, 96360, Note_off_c, 1, 71, 0
2, 96480, Note_on_c, 1, 79, 72
2, 96600, Note_off_c, 1, 79, 0
2, 96720, Note_on_c, 1, 78, 72
2, 96840, Note_off_c, 1, 78, 0
2, 96960, Note_on_c, 1, 76, 73
2, 97080, Note_off_c, 1, 76, 0
2, 97200, Note_on_c, 1, 74, 73
2, 97320, Note_off_c, 1, 74, 0
2, 97440, Note_on_c, 1, 72, 73
2, 97560, Note_off_c, 1, 72, 0
2, 97680, Note_on_c, 1, 71, 73
2, 97800, Note_off_c, 1, 71, 0
2, 97920, Note_on_c, 1, 69, 84
2, 98400, Note_off_c, 1, 69, 0
2, 98640, Note_on_c, 1, 62, 83
2, 98720, Note_off_c, 1, 62, 0
2, 98760, Note_on_c, 1, 64, 82
2, 98840, Note_off_c, 1, 64, 0
2, 98880, Note_on_c, 1, 66, 80
2, 98960, Note_off_c, 1, 66, 0
2, 99120, Note_on_c, 1, 67, 78
2, 99200, Note_off_c, 1, 67, 0
2, 99360, Note_on_c, 1, 69, 76
2, 99840, Note_off_c, 1, 69, 0
2, 100080, Note_on_c, 1, 66, 86
2, 100160, Note_off_c, 1, 66, 0
2, 100200, Note_on_c, 1, 67, 85
2, 100280, Note_off_c, 1, 67, 0
2, 100320, Note_on_c, 1, 69, 84
2, 100400, Note_off_c, 1, 69, 0
2, 100560, Note_on_c, 1, 71, 81
2, 100640, Note_off_c, 1, 71, 0
2, 100800, Note_on_c, 1, 72, 79
2, 101280, Note_off_c, 1, 72, 0
2, 101520, Note_on_c, 1, 84, 56
2, 101640, Note_off_c, 1, 84, 0
2, 101640, Note_on_c, 1, 83, 54
2, 101760, Note_off_c, 1, 83, 0
2, 101760, Note_on_c, 1, 81, 53
2, 101950, Note_off_c, 1, 81, 0
2, 102000, Note_on_c, 1, 81, 51
2, 102120, Note_off_c, 1, 81, 0
2, 102120, Note_on_c, 1, 79, 50
2, 102240, Note_off_c, 1, 79, 0
2, 102240, Note_on_c, 1, 78, 49
2, 102430, Note_off_c, 1, 78, 0
2, 102480, Note_on_c, 1, 78, 46
2, 102600, Note_off_c, 1, 78, 0
2, 102600, Note_on_c, 1, 76, 45
2, 102720, Note_off_c, 1, 76, 0
2, 102720, Note_on_c, 1, 74, 44
2, 102910, Note_off_c, 1, 74, 0
2, 102960, Note_on_c, 1, 74, 42
2, 103080, Note_off_c, 1, 74, 0
2, 103080, Note_on_c, 1, 73, 40
2, 103200, Note_off_c, 1, 73, 0
2, 103200, Note_on_c, 1, 74, 44
2, 103560, Note_off_c, 1, 74, 0
2, 103560, Note_on_c, 1, 71, 43
2, 103655, Note_off_c, 1, 71, 0
2, 103680, Note_on_c, 1, 74, 45
2, 104105, Note_off_c, 1, 74, 0
2, 104640, Note_on_c, 1, 67, 44
2, 105120, Note_off_c, 1, 67, 0
2, 105120, Note_on_c, 1, 66, 43
2, 105540, Note_off_c, 1, 66, 0
2, 106080, Note_on_c, 1, 81, 45
2, 106440, Note_off_c, 1, 81, 0
2, 106440, Note_on_c, 1, 78, 46
2, 106535, Note_off_c, 1, 78, 0
2, 106560, Note_on_c, 1, 81, 47
2, 106995, Note_off_c, 1, 81, 0
2, 107520, Note_on_c, 1, 72, 46
2, 108000, Note_off_c, 1, 72, 0
2, 108000, Note_on_c, 1, 71, 45
2, 108435, Note_off_c, 1, 71, 0
2, 108960, Note_on_c, 1, 76, 47
2, 109320, Note_off_c, 1, 76, 0
2, 109320, Note_on_c, 1, 72, 47
2, 109415, Note_off_c, 1, 72, 0
2, 109440, Note_on_c, 1, 76, 48
2, 109860, Note_off_c, 1, 76, 0
2, 110400, Note_on_c, 1, 69, 48
2, 110880, Note_off_c, 1, 69, 0
2, 110880, Note_on_c, 1, 68, 46
2, 111315, Note_off_c, 1, 68, 0
2, 111840, Note_on_c, 1, 83, 49
2, 112200, Note_off_c, 1, 83, 0
2, 112200, Note_on_c, 1, 80, 51
2, 112295, Note_off_c, 1, 80, 0
2, 112320, Note_on_c, 1, 83, 52
2, 112755, Note_off_c, 1, 83, 0
2, 113280, Note_on_c, 1, 74, 50
2, 113760, Note_off_c, 1, 74, 0
2, 113760, Note_on_c, 1, 72, 48
2, 114180, Note_off_c, 1, 72, 0
2, 114720, Note_on_c, 1, 84, 49
2, 115080, Note_off_c, 1, 84, 0
2, 115080, Note_on_c, 1, 81, 52
2, 115175, Note_off_c, 1, 81, 0
2, 115200, Note_on_c, 1, 79, 55
2, 115440, Note_on_c, 1, 77, 53
2, 115445, Note_off_c, 1, 79, 0
2, 115610, Note_off_c, 1, 77, 0
2, 115680, Note_on_c, 1, 77, 52
2, 115920, Note_off_c, 1, 77, 0
2, 116160, Note_on_c, 1, 77, 48
2, 116400, Note_off_c, 1, 77, 0
2, 116640, Note_on_c, 1, 75, 51
2, 117120, Note_off_c, 1, 75, 0
2, 117120, Note_on_c, 1, 76, 48
2, 117360, Note_off_c, 1, 76, 0
2, 117600, Note_on_c, 1, 84, 52
2, 117960, Note_off_c, 1, 84, 0
2, 117960, Note_on_c, 1, 79, 54
2, 118055, Note_off_c, 1, 79, 0
2, 118080, Note_on_c, 1, 76, 56
2, 118670, Note_off_c, 1, 76, 0
2, 118680, Note_on_c, 1, 79, 53
2, 118800, Note_off_c, 1, 79, 0
2, 118800, Note_on_c, 1, 78, 53
2, 118920, Note_off_c, 1, 78, 0
2, 118920, Note_on_c, 1, 79, 53
2, 119040, Note_off_c, 1, 79, 0
2, 119040, Note_on_c, 1, 81, 53
2, 119160, Note_off_c, 1, 81, 0
2, 119160, Note_on_c, 1, 79, 53
2, 119280, Note_off_c, 1, 79, 0
2, 119280, Note_on_c, 1, 78, 53
2, 119400, Note_off_c, 1, 78, 0
2, 119400, Note_on_c, 1, 76, 53
2, 119495, Note_off_c, 1, 76, 0
2, 119520, Note_on_c, 1, 73, 53
2, 119640, Note_on_c, 1, 74, 52
2, 119670, Note_off_c, 1, 73, 0
2, 119945, Note_off_c, 1, 74, 0
2, 120240, Note_on_c, 1, 55, 50
2, 120335, Note_off_c, 1, 55, 0
2, 120360, Note_on_c, 1, 59, 51
2, 120455, Note_off_c, 1, 59, 0
2, 120480, Note_on_c, 1, 57, 51
2, 120575, Note_off_c, 1, 57, 0
2, 120600, Note_on_c, 1, 60, 52
2, 120695, Note_off_c, 1, 60, 0
2, 120720, Note_on_c, 1, 59, 52
2, 120815, Note_off_c, 1, 59, 0
2, 120840, Note_on_c, 1, 62, 53
2, 120935, Note_off_c, 1, 62, 0
2, 120960, Note_on_c, 1, 60, 54
2, 121440, Note_off_c, 1, 60, 0
2, 121680, Note_on_c, 1, 57, 57
2, 121775, Note_off_c, 1, 57, 0
2, 121800, Note_on_c, 1, 60, 58
2, 121895, Note_off_c, 1, 60, 0
2, 121920, Note_on_c, 1, 59, 59
2, 122015, Note_off_c, 1, 59, 0
2, 122040, Note_on_c, 1, 62, 59
2, 122135, Note_off_c, 1, 62, 0
2, 122160, Note_on_c, 1, 60, 60
2, 122255, Note_off_c, 1, 60, 0
2, 122280, Note_on_c, 1, 64, 60
2, 122375, Note_off_c, 1, 64, 0
2, 122400, Note_on_c, 1, 62, 61
2, 122880, Note_off_c, 1, 62, 0
2, 123120, Note_on_c, 1, 59, 65
2, 123215, Note_off_c, 1, 59, 0
2, 123240, Note_on_c, 1, 62, 65
2, 123335, Note_off_c, 1, 62, 0
2, 123360, Note_on_c, 1, 60, 66
2, 123455, Note_off_c, 1, 60, 0
2, 123480, Note_on_c, 1, 64, 67
2, 123575, Note_off_c, 1, 64, 0
2, 123600, Note_on_c, 1, 62, 67
2, 123695, Note_off_c, 1, 62, 0
2, 123720, Note_on_c, 1, 65, 68
2, 123815, Note_off_c, 1, 65, 0
2, 123840, Note_on_c, 1, 64, 68
2, 123935, Note_off_c, 1, 64, 0
2, 123960, Note_on_c, 1, 65, 69
2, 124055, Note_off_c, 1, 65, 0
2, 124080, Note_on_c, 1, 62, 70
2, 124175, Note_off_c, 1, 62, 0
2, 124200, Note_on_c, 1, 64, 70
2, 124295, Note_off_c, 1, 64, 0
2, 124320, Note_on_c, 1, 60, 71
2, 124415, Note_off_c, 1, 60, 0
2, 124440, Note_on_c, 1, 64, 72
2, 124535, Note_off_c, 1, 64, 0
2, 124560, Note_on_c, 1, 62, 72
2, 124655, Note_off_c, 1, 62, 0
2, 124680, Note_on_c, 1, 65, 73
2, 124775, Note_off_c, 1, 65, 0
2, 124800, Note_on_c, 1, 64, 73
2, 124895, Note_off_c, 1, 64, 0
2, 124920, Note_on_c, 1, 67, 74
2, 125015, Note_off_c, 1, 67, 0
2, 125040, Note_on_c, 1, 66, 75
2, 125135, Note_off_c, 1, 66, 0
2, 125160, Note_on_c, 1, 69, 75
2, 125255, Note_off_c, 1, 69, 0
2, 125280, Note_on_c, 1, 67, 76
2, 125375, Note_off_c, 1, 67, 0
2, 125400, Note_on_c, 1, 69, 77
2, 125495, Note_off_c, 1, 69, 0
2, 125520, Note_on_c, 1, 66, 77
2, 125615, Note_off_c, 1, 66, 0
2, 125640, Note_on_c, 1, 67, 78
2, 125735, Note_off_c, 1, 67, 0
2, 125760, Note_on_c, 1, 64, 78
2, 125855, Note_off_c, 1, 64, 0
2, 125880, Note_on_c, 1, 67, 79
2, 125975, Note_off_c, 1, 67, 0
2, 126000, Note_on_c, 1, 66, 80
2, 126095, Note_off_c, 1, 66, 0
2, 126120, Note_on_c, 1, 69, 80
2, 126215, Note_off_c, 1, 69, 0
2, 126240, Note_on_c, 1, 67, 81
2, 126335, Note_off_c, 1, 67, 0
2, 126360, Note_on_c, 1, 71, 81
2, 126455, Note_off_c, 1, 71, 0
2, 126480, Note_on_c, 1, 69, 82
2, 126575, Note_off_c, 1, 69, 0
2, 126600, Note_on_c, 1, 72, 83
2, 126695, Note_off_c, 1, 72, 0
2, 126720, Note_on_c, 1, 71, 83
2, 126815, Note_off_c, 1, 71, 0
2, 126840, Note_on_c, 1, 72, 84
2, 126935, Note_off_c, 1, 72, 0
2, 126960, Note_on_c, 1, 69, 85
2, 127055, Note_off_c, 1, 69, 0
2, 127080, Note_on_c, 1, 71, 85
2, 127175, Note_off_c, 1, 71, 0
2, 127200, Note_on_c, 1, 67, 86
2, 127295, Note_off_c, 1, 67, 0
2, 127320, Note_on_c, 1, 71, 86
2, 127415, Note_off_c, 1, 71, 0
2, 127440, Note_on_c, 1, 69, 87
2, 127535, Note_off_c, 1, 69, 0
2, 127560, Note_on_c, 1, 72, 88
2, 127655, Note_off_c, 1, 72, 0
2, 127680, Note_on_c, 1, 71, 88
2, 127775, Note_off_c, 1, 71, 0
2, 127800, Note_on_c, 1, 74, 89
2, 127895, Note_off_c, 1, 74, 0
2, 127920, Note_on_c, 1, 73, 90
2, 128015, Note_off_c, 1, 73, 0
2, 128040, Note_on_c, 1, 76, 90
2, 128135, Note_off_c, 1, 76, 0
2, 128160, Note_on_c, 1, 74, 91
2, 128545, Note_off_c, 1, 74, 0
2, 128640, Note_on_c, 1, 62, 88
2, 128700, Note_on_c, 1, 61, 87
2, 128730, Note_off_c, 1, 62, 0
2, 128760, Note_on_c, 1, 62, 87
2, 128795, Note_off_c, 1, 61, 0
2, 129125, Note_off_c, 1, 62, 0
2, 129840, Note_on_c, 1, 74, 41
2, 130320, Note_off_c, 1, 74, 0
2, 130320, Note_on_c, 1, 72, 42
2, 130800, Note_off_c, 1, 72, 0
2, 130800, Note_on_c, 1, 71, 43
2, 131280, Note_off_c, 1, 71, 0
2, 131280, Note_on_c, 1, 69, 44
2, 131760, Note_off_c, 1, 69, 0
2, 131760, Note_on_c, 1, 67, 45
2, 132240, Note_off_c, 1, 67, 0
2, 132240, Note_on_c, 1, 66, 46
2, 132435, Note_off_c, 1, 66, 0
2, 132480, Note_on_c, 1, 69, 47
2, 132600, Note_on_c, 1, 67, 47
2, 132605, Note_off_c, 1, 69, 0
2, 132905, Note_off_c, 1, 67, 0
2, 132960, Note_on_c, 1, 71, 46
2, 133080, Note_on_c, 1, 69, 45
2, 133085, Note_off_c, 1, 71, 0
2, 133385, Note_off_c, 1, 69, 0
2, 133440, Note_on_c, 1, 72, 44
2, 133560, Note_on_c, 1, 71, 43
2, 133575, Note_off_c, 1, 72, 0
2, 133860, Note_off_c, 1, 71, 0
2, 133920, Note_on_c, 1, 74, 42
2, 134280, Note_off_c, 1, 74, 0
2, 134280, Note_on_c, 1, 72, 41
2, 134400, Note_off_c, 1, 72, 0
2, 134400, Note_on_c, 1, 69, 40
2, 134820, Note_off_c, 1, 69, 0
2, 135600, Note_on_c, 1, 86, 49
2, 135720, Note_off_c, 1, 86, 0
2, 135720, Note_on_c, 1, 88, 49
2, 135840, Note_off_c, 1, 88, 0
2, 135840, Note_on_c, 1, 84, 50
2, 136025, Note_off_c, 1, 84, 0
2, 136080, Note_on_c, 1, 84, 50
2, 136200, Note_off_c, 1, 84, 0
2, 136200, Note_on_c, 1, 86, 51
2, 136320, Note_off_c, 1, 86, 0
2, 136320, Note_on_c, 1, 83, 51
2, 136505, Note_off_c, 1, 83, 0
2, 136560, Note_on_c, 1, 83, 52
2, 136680, Note_off_c, 1, 83, 0
2, 136680, Note_on_c, 1, 84, 52
2, 136800, Note_off_c, 1, 84, 0
2, 136800, Note_on_c, 1, 81, 52
2, 136980, Note_off_c, 1, 81, 0
2, 137040, Note_on_c, 1, 81, 53
2, 137160, Note_off_c, 1, 81, 0
2, 137160, Note_on_c, 1, 83, 54
2, 137280, Note_off_c, 1, 83, 0
2, 137280, Note_on_c, 1, 79, 54
2, 137465, Note_off_c, 1, 79, 0
2, 137520, Note_on_c, 1, 79, 55
2, 137640, Note_off_c, 1, 79, 0
2, 137640, Note_on_c, 1, 81, 55
2, 137760, Note_off_c, 1, 81, 0
2, 137760, Note_on_c, 1, 78, 55
2, 137945, Note_off_c, 1, 78, 0
2, 138000, Note_on_c, 1, 78, 56
2, 138120, Note_off_c, 1, 78, 0
2, 138120, Note_on_c, 1, 81, 57
2, 138240, Note_off_c, 1, 81, 0
2, 138240, Note_on_c, 1, 79, 57
2, 138360, Note_off_c, 1, 79, 0
2, 138360, Note_on_c, 1, 81, 57
2, 138480, Note_off_c, 1, 81, 0
2, 138480, Note_on_c, 1, 83, 56
2, 138600, Note_off_c, 1, 83, 0
2, 138600, Note_on_c, 1, 79, 56
2, 138720, Note_off_c, 1, 79, 0
2, 138720, Note_on_c, 1, 81, 55
2, 138840, Note_off_c, 1, 81, 0
2, 138840, Note_on_c, 1, 83, 55
2, 138960, Note_off_c, 1, 83, 0
2, 138960, Note_on_c, 1, 84, 54
2, 139080, Note_off_c, 1, 84, 0
2, 139080, Note_on_c, 1, 81, 54
2, 139200, Note_off_c, 1, 81, 0
2, 139200, Note_on_c, 1, 83, 53
2, 139320, Note_off_c, 1, 83, 0
2, 139320, Note_on_c, 1, 84, 53
2, 139440, Note_off_c, 1, 84, 0
2, 139440, Note_on_c, 1, 86, 52
2, 139560, Note_off_c, 1, 86, 0
2, 139560, Note_on_c, 1, 83, 52
2, 139680, Note_off_c, 1, 83, 0
2, 139680, Note_on_c, 1, 86, 53
2, 139800, Note_off_c, 1, 86, 0
2, 139800, Note_on_c, 1, 84, 51
2, 139920, Note_off_c, 1, 84, 0
2, 139920, Note_on_c, 1, 86, 49
2, 140040, Note_off_c, 1, 86, 0
2, 140040, Note_on_c, 1, 84, 48
2, 140160, Note_off_c, 1, 84, 0
2, 140160, Note_on_c, 1, 81, 46
2, 140510, Note_off_c, 1, 81, 0
2, 141360, Note_on_c, 1, 67, 52
2, 141515, Note_off_c, 1, 67, 0
2, 141600, Note_on_c, 1, 66, 54
2, 141755, Note_off_c, 1, 66, 0
2, 141840, Note_on_c, 1, 67, 55
2, 141995, Note_off_c, 1, 67, 0
2, 142080, Note_on_c, 1, 72, 68
2, 142320, Note_off_c, 1, 72, 0
2, 142320, Note_on_c, 1, 71, 60
2, 142475, Note_off_c, 1, 71, 0
2, 142800, Note_on_c, 1, 67, 55
2, 142955, Note_off_c, 1, 67, 0
2, 143040, Note_on_c, 1, 66, 56
2, 143195, Note_off_c, 1, 66, 0
2, 143280, Note_on_c, 1, 67, 57
2, 143435, Note_off_c, 1, 67, 0
2, 143520, Note_on_c, 1, 76, 70
2, 143760, Note_off_c, 1, 76, 0
2, 143760, Note_on_c, 1, 74, 64
2, 143915, Note_off_c, 1, 74, 0
2, 144240, Note_on_c, 1, 67, 58
2, 144395, Note_off_c, 1, 67, 0
2, 144480, Note_on_c, 1, 66, 58
2, 144635, Note_off_c, 1, 66, 0
2, 144720, Note_on_c, 1, 67, 59
2, 144875, Note_off_c, 1, 67, 0
2, 144960, Note_on_c, 1, 79, 69
2, 145200, Note_off_c, 1, 79, 0
2, 145200, Note_on_c, 1, 78, 60
2, 145355, Note_off_c, 1, 78, 0
2, 145440, Note_on_c, 1, 77, 70
2, 145680, Note_off_c, 1, 77, 0
2, 145680, Note_on_c, 1, 76, 61
2, 145835, Note_off_c, 1, 76, 0
2, 145920, Note_on_c, 1, 73, 72
2, 146160, Note_off_c, 1, 73, 0
2, 146160, Note_on_c, 1, 74, 62
2, 146315, Note_off_c, 1, 74, 0
2, 146400, Note_on_c, 1, 71, 74
2, 146640, Note_off_c, 1, 71, 0
2, 146640, Note_on_c, 1, 72, 63
2, 146795, Note_off_c, 1, 72, 0
2, 146880, Note_on_c, 1, 72, 75
2, 147000, Note_off_c, 1, 72, 0
2, 147000, Note_on_c, 1, 69, 75
2, 147120, Note_off_c, 1, 69, 0
2, 147120, Note_on_c, 1, 66, 75
2, 147240, Note_off_c, 1, 66, 0
2, 147240, Note_on_c, 1, 62, 75
2, 147360, Note_off_c, 1, 62, 0
2, 147360, Note_on_c, 1, 61, 75
2, 147480, Note_off_c, 1, 61, 0
2, 147480, Note_on_c, 1, 62, 75
2, 147600, Note_off_c, 1, 62, 0
2, 147600, Note_on_c, 1, 64, 76
2, 147720, Note_off_c, 1, 64, 0
2, 147720, Note_on_c, 1, 62, 76
2, 147815, Note_off_c, 1, 62, 0
2, 147840, Note_on_c, 1, 72, 85
2, 147960, Note_off_c, 1, 72, 0
2, 147960, Note_on_c, 1, 69, 82
2, 148080, Note_off_c, 1, 69, 0
2, 148080, Note_on_c, 1, 66, 80
2, 148200, Note_off_c, 1, 66, 0
2, 148200, Note_on_c, 1, 62, 78
2, 148295, Note_off_c, 1, 62, 0
2, 148320, Note_on_c, 1, 74, 77
2, 148440, Note_off_c, 1, 74, 0
2, 148440, Note_on_c, 1, 71, 77
2, 148560, Note_off_c, 1, 71, 0
2, 148560, Note_on_c, 1, 67, 77
2, 148680, Note_off_c, 1, 67, 0
2, 148680, Note_on_c, 1, 62, 77
2, 148800, Note_off_c, 1, 62, 0
2, 148800, Note_on_c, 1, 61, 77
2, 148920, Note_off_c, 1, 61, 0
2, 148920, Note_on_c, 1, 62, 78
2, 149040, Note_off_c, 1, 62, 0
2, 149040, Note_on_c, 1, 64, 78
2, 149160, Note_off_c, 1, 64, 0
2, 149160, Note_on_c, 1, 62, 78
2, 149280, Note_off_c, 1, 62, 0
2, 149280, Note_on_c, 1, 74, 78
2, 149400, Note_off_c, 1, 74, 0
2, 149400, Note_on_c, 1, 71, 85
2, 149520, Note_off_c, 1, 71, 0
2, 149520, Note_on_c, 1, 67, 83
2, 149640, Note_off_c, 1, 67, 0
2, 149640, Note_on_c, 1, 62, 80
2, 149735, Note_off_c, 1, 62, 0
2, 149760, Note_on_c, 1, 64, 78
2, 149880, Note_off_c, 1, 64, 0
2, 149880, Note_on_c, 1, 69, 80
2, 150000, Note_off_c, 1, 69, 0
2, 150000, Note_on_c, 1, 72, 82
2, 150120, Note_off_c, 1, 72, 0
2, 150120, Note_on_c, 1, 76, 84
2, 150215, Note_off_c, 1, 76, 0
2, 150240, Note_on_c, 1, 76, 87
2, 150360, Note_off_c, 1, 76, 0
2, 150360, Note_on_c, 1, 74, 86
2, 150480, Note_off_c, 1, 74, 0
2, 150480, Note_on_c, 1, 72, 85
2, 150600, Note_off_c, 1, 72, 0
2, 150600, Note_on_c, 1, 71, 84
2, 150695, Note_off_c, 1, 71, 0
2, 150720, Note_on_c, 1, 71, 83
2, 150840, Note_off_c, 1, 71, 0
2, 150840, Note_on_c, 1, 69, 82
2, 150960, Note_off_c, 1, 69, 0
2, 150960, Note_on_c, 1, 67, 81
2, 151080, Note_off_c, 1, 67, 0
2, 151080, Note_on_c, 1, 66, 79
2, 151175, Note_off_c, 1, 66, 0
2, 151440, Note_on_c, 1, 67, 68
2, 151595, Note_off_c, 1, 67, 0
2, 151680, Note_on_c, 1, 66, 69
2, 151835, Note_off_c, 1, 66, 0
2, 151920, Note_on_c, 1, 67, 69
2, 152075, Note_off_c, 1, 67, 0
2, 152160, Note_on_c, 1, 79, 82
2, 152400, Note_off_c, 1, 79, 0
2, 152400, Note_on_c, 1, 78, 71
2, 152555, Note_off_c, 1, 78, 0
2, 152640, Note_on_c, 1, 77, 83
2, 152880, Note_off_c, 1, 77, 0
2, 152880, Note_on_c, 1, 76, 70
2, 153035, Note_off_c, 1, 76, 0
2, 153120, Note_on_c, 1, 73, 84
2, 153360, Note_off_c, 1, 73, 0
2, 153360, Note_on_c, 1, 74, 70
2, 153515, Note_off_c, 1, 74, 0
2, 153600, Note_on_c, 1, 71, 84
2, 153840, Note_off_c, 1, 71, 0
2, 153840, Note_on_c, 1, 72, 71
2, 153995, Note_off_c, 1, 72, 0
2, 154080, Note_on_c, 1, 84, 85
2, 154200, Note_off_c, 1, 84, 0
2, 154200, Note_on_c, 1, 81, 85
2, 154320, Note_off_c, 1, 81, 0
2, 154320, Note_on_c, 1, 78, 85
2, 154440, Note_off_c, 1, 78, 0
2, 154440, Note_on_c, 1, 74, 86
2, 154560, Note_off_c, 1, 74, 0
2, 154560, Note_on_c, 1, 73, 86
2, 154680, Note_off_c, 1, 73, 0
2, 154680, Note_on_c, 1, 74, 86
2, 154800, Note_off_c, 1, 74, 0
2, 154800, Note_on_c, 1, 76, 86
2, 154920, Note_off_c, 1, 76, 0
2, 154920, Note_on_c, 1, 74, 86
2, 155015, Note_off_c, 1, 74, 0
2, 155040, Note_on_c, 1, 84, 95
2, 155160, Note_off_c, 1, 84, 0
2, 155160, Note_on_c, 1, 81, 92
2, 155280, Note_off_c, 1, 81, 0
2, 155280, Note_on_c, 1, 78, 90
2, 155400, Note_off_c, 1, 78, 0
2, 155400, Note_on_c, 1, 74, 88
2, 155495, Note_off_c, 1, 74, 0
2, 155520, Note_on_c, 1, 86, 87
2, 155640, Note_off_c, 1, 86, 0
2, 155640, Note_on_c, 1, 83, 87
2, 155760, Note_off_c, 1, 83, 0
2, 155760, Note_on_c, 1, 79, 87
2, 155880, Note_off_c, 1, 79, 0
2, 155880, Note_on_c, 1, 74, 88
2, 156000, Note_off_c, 1, 74, 0
2, 156000, Note_on_c, 1, 73, 88
2, 156120, Note_off_c, 1, 73, 0
2, 156120, Note_on_c, 1, 74, 88
2, 156240, Note_off_c, 1, 74, 0
2, 156240, Note_on_c, 1, 76, 88
2, 156360, Note_off_c, 1, 76, 0
2, 156360, Note_on_c, 1, 74, 88
2, 156455, Note_off_c, 1, 74, 0
2, 156480, Note_on_c, 1, 86, 98
2, 156600, Note_off_c, 1, 86, 0
2, 156600, Note_on_c, 1, 83, 96
2, 156720, Note_off_c, 1, 83, 0
2, 156720, Note_on_c, 1, 79, 94
2, 156840, Note_off_c, 1, 79, 0
2, 156840, Note_on_c, 1, 74, 92
2, 156935, Note_off_c, 1, 74, 0
2, 156960, Note_on_c, 1, 76, 90
2, 157080, Note_off_c, 1, 76, 0
2, 157080, Note_on_c, 1, 81, 92
2, 157200, Note_off_c, 1, 81, 0
2, 157200, Note_on_c, 1, 84, 93
2, 157320, Note_off_c, 1, 84, 0
2, 157320, Note_on_c, 1, 88, 95
2, 157415, Note_off_c, 1, 88, 0
2, 157440, Note_on_c, 1, 88, 97
2, 157560, Note_off_c, 1, 88, 0
2, 157560, Note_on_c, 1, 86, 97
2, 157680, Note_off_c, 1, 86, 0
2, 157680, Note_on_c, 1, 84, 96
2, 157800, Note_off_c, 1, 84, 0
2, 157800, Note_on_c, 1, 83, 96
2, 157895, Note_off_c, 1, 83, 0
2, 157920, Note_on_c, 1, 83, 95
2, 158040, Note_off_c, 1, 83, 0
2, 158040, Note_on_c, 1, 81, 94
2, 158160, Note_off_c, 1, 81, 0
2, 158160, Note_on_c, 1, 79, 94
2, 158280, Note_off_c, 1, 79, 0
2, 158280, Note_on_c, 1, 78, 93
2, 158375, Note_off_c, 1, 78, 0
2, 158400, Note_on_c, 1, 79, 93
2, 158555, Note_off_c, 1, 79, 0
2, 158640, Note_on_c, 1, 79, 92
2, 158760, Note_off_c, 1, 79, 0
2, 158760, Note_on_c, 1, 83, 91
2, 158880, Note_off_c, 1, 83, 0
2, 158880, Note_on_c, 1, 81, 90
2, 159000, Note_off_c, 1, 81, 0
2, 159000, Note_on_c, 1, 84, 90
2, 159120, Note_off_c, 1, 84, 0
2, 159120, Note_on_c, 1, 83, 89
2, 159240, Note_off_c, 1, 83, 0
2, 159240, Note_on_c, 1, 86, 89
2, 159360, Note_off_c, 1, 86, 0
2, 159360, Note_on_c, 1, 84, 88
2, 159440, Note_off_c, 1, 84, 0
2, 159440, Note_on_c, 1, 86, 88
2, 159520, Note_off_c, 1, 86, 0
2, 159520, Note_on_c, 1, 84, 87
2, 159600, Note_off_c, 1, 84, 0
2, 159600, Note_on_c, 1, 83, 87
2, 159720, Note_off_c, 1, 83, 0
2, 159720, Note_on_c, 1, 84, 86
2, 159815, Note_off_c, 1, 84, 0
2, 159840, Note_on_c, 1, 83, 85
2, 159995, Note_off_c, 1, 83, 0
2, 160080, Note_on_c, 1, 67, 82
2, 160200, Note_off_c, 1, 67, 0
2, 160200, Note_on_c, 1, 71, 81
2, 160320, Note_off_c, 1, 71, 0
2, 160320, Note_on_c, 1, 69, 79
2, 160440, Note_off_c, 1, 69, 0
2, 160440, Note_on_c, 1, 72, 78
2, 160560, Note_off_c, 1, 72, 0
2, 160560, Note_on_c, 1, 71, 77
2, 160680, Note_off_c, 1, 71, 0
2, 160680, Note_on_c, 1, 74, 75
2, 160800, Note_off_c, 1, 74, 0
2, 160800, Note_on_c, 1, 72, 72
2, 160880, Note_off_c, 1, 72, 0
2, 160880, Note_on_c, 1, 74, 70
2, 160960, Note_off_c, 1, 74, 0
2, 160960, Note_on_c, 1, 72, 67
2, 161040, Note_off_c, 1, 72, 0
2, 161040, Note_on_c, 1, 71, 65
2, 161160, Note_off_c, 1, 71, 0
2, 161160, Note_on_c, 1, 72, 62
2, 161255, Note_off_c, 1, 72, 0
2, 161520, Note_on_c, 1, 76, 54
2, 162000, Note_off_c, 1, 76, 0
2, 162000, Note_on_c, 1, 74, 55
2, 162480, Note_off_c, 1, 74, 0
2, 162480, Note_on_c, 1, 72, 56
2, 162960, Note_off_c, 1, 72, 0
2, 162960, Note_on_c, 1, 71, 57
2, 163440, Note_off_c, 1, 71, 0
2, 163440, Note_on_c, 1, 69, 58
2, 163920, Note_off_c, 1, 69, 0
2, 163920, Note_on_c, 1, 67, 59
2, 164100, Note_off_c, 1, 67, 0
2, 164160, Note_on_c, 1, 68, 61
2, 164400, Note_off_c, 1, 68, 0
2, 164400, Note_on_c, 1, 69, 59
2, 164585, Note_off_c, 1, 69, 0
2, 164880, Note_on_c, 1, 72, 56
2, 165000, Note_off_c, 1, 72, 0
2, 165120, Note_on_c, 1, 71, 54
2, 165240, Note_off_c, 1, 71, 0
2, 165360, Note_on_c, 1, 69, 52
2, 165480, Note_off_c, 1, 69, 0
2, 165600, Note_on_c, 1, 83, 72
2, 166080, Note_off_c, 1, 83, 0
2, 166080, Note_on_c, 1, 81, 74
2, 166560, Note_off_c, 1, 81, 0
2, 166560, Note_on_c, 1, 79, 77
2, 167040, Note_off_c, 1, 79, 0
2, 167040, Note_on_c, 1, 78, 79
2, 167520, Note_off_c, 1, 78, 0
2, 167520, Note_on_c, 1, 76, 81
2, 168000, Note_off_c, 1, 76, 0
2, 168000, Note_on_c, 1, 74, 83
2, 168450, Note_off_c, 1, 74, 0
2, 168480, Note_on_c, 1, 76, 85
2, 168600, Note_off_c, 1, 76, 0
2, 168600, Note_on_c, 1, 79, 84
2, 168720, Note_off_c, 1, 79, 0
2, 168720, Note_on_c, 1, 76, 84
2, 168840, Note_off_c, 1, 76, 0
2, 168840, Note_on_c, 1, 72, 83
2, 168935, Note_off_c, 1, 72, 0
2, 168960, Note_on_c, 1, 71, 82
2, 169080, Note_off_c, 1, 71, 0
2, 169080, Note_on_c, 1, 74, 82
2, 169200, Note_off_c, 1, 74, 0
2, 169200, Note_on_c, 1, 67, 81
2, 169320, Note_off_c, 1, 67, 0
2, 169320, Note_on_c, 1, 71, 80
2, 169415, Note_off_c, 1, 71, 0
2, 169440, Note_on_c, 1, 69, 80
2, 169560, Note_off_c, 1, 69, 0
2, 169560, Note_on_c, 1, 72, 79
2, 169680, Note_off_c, 1, 72, 0
2, 169680, Note_on_c, 1, 66, 78
2, 169800, Note_off_c, 1, 66, 0
2, 169800, Note_on_c, 1, 69, 78
2, 169895, Note_off_c, 1, 69, 0
2, 169920, Note_on_c, 1, 67, 77
2, 170400, Note_off_c, 1, 67, 0
2, 170640, Note_on_c, 1, 71, 73
2, 170760, Note_off_c, 1, 71, 0
2, 170880, Note_on_c, 1, 72, 70
2, 171000, Note_off_c, 1, 72, 0
2, 171120, Note_on_c, 1, 72, 68
2, 171240, Note_off_c, 1, 72, 0
2, 171360, Note_on_c, 1, 71, 66
2, 171840, Note_off_c, 1, 71, 0
2, 172080, Note_on_c, 1, 77, 63
2, 172200, Note_off_c, 1, 77, 0
2, 172320, Note_on_c, 1, 76, 60
2, 172440, Note_off_c, 1, 76, 0
2, 172560, Note_on_c, 1, 78, 57
2, 172680, Note_off_c, 1, 78, 0
2, 172800, Note_on_c, 1, 79, 53
2, 173280, Note_off_c, 1, 79, 0
2, 174240, Control_c, 1, 64, 0
2, 174240, Note_on_c, 1, 72, 44
2, 174480, Note_off_c, 1, 72, 0
2, 174720, Note_on_c, 1, 72, 45
2, 174960, Note_off_c, 1, 72, 0
2, 175200, Note_on_c, 1, 72, 46
2, 175440, Note_off_c, 1, 72, 0
2, 175680, Note_on_c, 1, 72, 47
2, 175920, Note_off_c, 1, 72, 0
2, 176160, Note_on_c, 1, 71, 48
2, 176640, Note_off_c, 1, 71, 0
2, 176640, Note_on_c, 1, 77, 49
2, 176880, Note_off_c, 1, 77, 0
2, 177120, Note_on_c, 1, 77, 50
2, 177840, Note_off_c, 1, 77, 0
2, 178080, Note_on_c, 1, 76, 52
2, 179000, Note_off_c, 1, 76, 0
2, 179040, Note_on_c, 1, 79, 52
2, 179280, Note_off_c, 1, 79, 0
2, 179280, Note_on_c, 1, 77, 51
2, 179520, Note_off_c, 1, 77, 0
2, 179520, Note_on_c, 1, 76, 49
2, 179760, Note_off_c, 1, 76, 0
2, 179760, Note_on_c, 1, 74, 48
2, 179965, Note_off_c, 1, 74, 0
2, 180000, Note_on_c, 1, 72, 47
2, 180240, Note_off_c, 1, 72, 0
2, 180240, Note_on_c, 1, 71, 45
2, 180480, Note_off_c, 1, 71, 0
2, 180480, Note_on_c, 1, 69, 44
2, 180720, Note_off_c, 1, 69, 0
2, 180720, Note_on_c, 1, 67, 43
2, 180960, Note_off_c, 1, 67, 0
2, 180960, Note_on_c, 1, 71, 42
2, 181000, Note_on_c, 1, 69, 41
2, 181035, Note_off_c, 1, 71, 0
2, 181040, Note_on_c, 1, 71, 41
2, 181080, Note_off_c, 1, 69, 0
2, 181080, Note_on_c, 1, 69, 42
2, 181110, Note_off_c, 1, 71, 0
2, 181200, Note_on_c, 1, 67, 40
2, 181215, Note_off_c, 1, 69, 0
2, 181440, Note_off_c, 1, 67, 0
2, 181440, Note_on_c, 1, 69, 38
2, 181680, Note_off_c, 1, 69, 0
2, 181680, Note_on_c, 1, 71, 36
2, 181885, Note_off_c, 1, 71, 0
2, 181920, Note_on_c, 1, 72, 58
2, 182160, Note_off_c, 1, 72, 0
2, 182400, Note_on_c, 1, 72, 59
2, 182640, Note_off_c, 1, 72, 0
2, 182880, Note_on_c, 1, 72, 60
2, 183120, Note_off_c, 1, 72, 0
2, 183360, Note_on_c, 1, 72, 61
2, 183600, Note_off_c, 1, 72, 0
2, 183840, Note_on_c, 1, 71, 62
2, 184320, Note_off_c, 1, 71, 0
2, 184320, Note_on_c, 1, 77, 64
2, 184560, Note_off_c, 1, 77, 0
2, 184800, Note_on_c, 1, 77, 65
2, 185720, Note_off_c, 1, 77, 0
2, 185760, Note_on_c, 1, 77, 69
2, 186000, Note_off_c, 1, 77, 0
2, 186000, Note_on_c, 1, 76, 67
2, 186200, Note_off_c, 1, 76, 0
2, 186240, Note_on_c, 1, 77, 66
2, 186480, Note_off_c, 1, 77, 0
2, 186480, Note_on_c, 1, 74, 66
2, 186680, Note_off_c, 1, 74, 0
2, 186720, Note_on_c, 1, 72, 65
2, 187105, Note_off_c, 1, 72, 0
2, 187200, Note_on_c, 1, 71, 64
2, 187585, Note_off_c, 1, 71, 0
2, 187680, Note_on_c, 1, 71, 62
2, 188640, Note_off_c, 1, 71, 0
2, 188640, Note_on_c, 1, 72, 51
2, 189000, Note_off_c, 1, 72, 0
2, 189600, Note_on_c, 1, 76, 56
2, 190560, Note_off_c, 1, 76, 0
2, 190560, Note_on_c, 1, 79, 60
2, 191280, Note_off_c, 1, 79, 0
2, 191280, Note_on_c, 1, 77, 62
2, 191475, Note_off_c, 1, 77, 0
2, 191520, Note_on_c, 1, 76, 63
2, 191760, Note_off_c, 1, 76, 0
2, 192360, Note_on_c, 1, 74, 54
2, 192440, Note_off_c, 1, 74, 0
2, 192480, Note_on_c, 1, 72, 53
2, 192720, Note_off_c, 1, 72, 0
2, 193320, Note_on_c, 1, 76, 48
2, 193400, Note_off_c, 1, 76, 0
2, 193440, Note_on_c, 1, 74, 50
2, 193680, Note_off_c, 1, 74, 0
2, 194280, Note_on_c, 1, 78, 54
2, 194360, Note_off_c, 1, 78, 0
2, 194400, Note_on_c, 1, 79, 55
2, 194640, Note_off_c, 1, 79, 0
2, 195240, Note_on_c, 1, 83, 61
2, 195320, Note_off_c, 1, 83, 0
2, 195360, Note_on_c, 1, 74, 60
2, 195840, Note_off_c, 1, 74, 0
2, 197280, Note_on_c, 1, 69, 73
2, 198240, Note_off_c, 1, 69, 0
2, 198240, Note_on_c, 1, 72, 69
2, 198480, Note_off_c, 1, 72, 0
2, 198480, Note_on_c, 1, 71, 68
2, 198720, Note_off_c, 1, 71, 0
2, 198720, Note_on_c, 1, 69, 67
2, 198960, Note_off_c, 1, 69, 0
2, 198960, Note_on_c, 1, 67, 66
2, 199160, Note_off_c, 1, 67, 0
2, 199200, Note_on_c, 1, 66, 65
2, 199440, Note_off_c, 1, 66, 0
2, 199440, Note_on_c, 1, 67, 64
2, 199680, Note_off_c, 1, 67, 0
2, 199680, Note_on_c, 1, 69, 64
2, 199920, Note_off_c, 1, 69, 0
2, 199920, Note_on_c, 1, 71, 63
2, 200160, Note_off_c, 1, 71, 0
2, 200160, Note_on_c, 1, 72, 62
2, 200400, Note_off_c, 1, 72, 0
2, 200400, Note_on_c, 1, 74, 61
2, 200640, Note_off_c, 1, 74, 0
2, 200640, Note_on_c, 1, 76, 60
2, 200880, Note_off_c, 1, 76, 0
2, 200880, Note_on_c, 1, 78, 59
2, 201080, Note_off_c, 1, 78, 0
2, 201120, Note_on_c, 1, 79, 58
2, 201360, Note_off_c, 1, 79, 0
2, 201360, Note_on_c, 1, 81, 57
2, 201600, Note_off_c, 1, 81, 0
2, 201600, Note_on_c, 1, 83, 56
2, 201840, Note_off_c, 1, 83, 0
2, 201840, Note_on_c, 1, 84, 55
2, 202040, Note_off_c, 1, 84, 0
2, 202080, Note_on_c, 1, 86, 54
2, 202320, Note_off_c, 1, 86, 0
2, 202320, Note_on_c, 1, 83, 53
2, 202520, Note_off_c, 1, 83, 0
2, 202560, Note_on_c, 1, 88, 52
2, 202800, Note_off_c, 1, 88, 0
2, 202800, Note_on_c, 1, 84, 51
2, 203000, Note_off_c, 1, 84, 0
2, 203040, Note_on_c, 1, 83, 50
2, 204000, Note_off_c, 1, 83, 0
2, 204000, Note_on_c, 1, 81, 45
2, 204480, Note_off_c, 1, 81, 0
2, 204960, Note_on_c, 1, 74, 72
2, 205680, Note_off_c, 1, 74, 0
2, 205680, Note_on_c, 1, 76, 74
2, 205800, Note_off_c, 1, 76, 0
2, 205800, Note_on_c, 1, 78, 74
2, 205920, Note_off_c, 1, 78, 0
2, 205920, Note_on_c, 1, 79, 74
2, 206040, Note_off_c, 1, 79, 0
2, 206160, Note_on_c, 1, 78, 75
2, 206280, Note_off_c, 1, 78, 0
2, 206400, Note_on_c, 1, 76, 76
2, 206520, Note_off_c, 1, 76, 0
2, 206640, Note_on_c, 1, 74, 77
2, 206760, Note_off_c, 1, 74, 0
2, 206880, Note_on_c, 1, 74, 77
2, 207120, Note_off_c, 1, 74, 0
2, 207120, Note_on_c, 1, 72, 75
2, 207240, Note_off_c, 1, 72, 0
2, 207360, Note_on_c, 1, 71, 73
2, 207600, Note_off_c, 1, 71, 0
2, 207600, Note_on_c, 1, 69, 72
2, 207720, Note_off_c, 1, 69, 0
2, 207840, Note_on_c, 1, 67, 71
2, 208320, Note_off_c, 1, 67, 0
2, 208320, Note_on_c, 1, 66, 66
2, 208560, Note_off_c, 1, 66, 0
2, 208800, Note_on_c, 1, 74, 50
2, 209520, Note_off_c, 1, 74, 0
2, 209520, Note_on_c, 1, 76, 52
2, 209640, Note_off_c, 1, 76, 0
2, 209640, Note_on_c, 1, 78, 52
2, 209760, Note_off_c, 1, 78, 0
2, 209760, Note_on_c, 1, 79, 52
2, 209880, Note_off_c, 1, 79, 0
2, 209880, Note_on_c, 1, 81, 53
2, 210000, Note_off_c, 1, 81, 0
2, 210000, Note_on_c, 1, 83, 53
2, 210120, Note_off_c, 1, 83, 0
2, 210120, Note_on_c, 1, 78, 53
2, 210240, Note_off_c, 1, 78, 0
2, 210240, Note_on_c, 1, 79, 54
2, 210360, Note_off_c, 1, 79, 0
2, 210360, Note_on_c, 1, 74, 54
2, 210480, Note_off_c, 1, 74, 0
2, 210480, Note_on_c, 1, 76, 54
2, 210600, Note_off_c, 1, 76, 0
2, 210600, Note_on_c, 1, 71, 55
2, 210690, Note_off_c, 1, 71, 0
2, 210720, Note_on_c, 1, 74, 55
2, 210840, Note_off_c, 1, 74, 0
2, 210960, Note_on_c, 1, 74, 54
2, 211080, Note_off_c, 1, 74, 0
2, 211080, Note_on_c, 1, 72, 53
2, 211170, Note_off_c, 1, 72, 0
2, 211200, Note_on_c, 1, 71, 53
2, 211320, Note_off_c, 1, 71, 0
2, 211440, Note_on_c, 1, 71, 51
2, 211560, Note_off_c, 1, 71, 0
2, 211560, Note_on_c, 1, 69, 51
2, 211645, Note_off_c, 1, 69, 0
2, 211680, Note_on_c, 1, 67, 50
2, 212160, Note_off_c, 1, 67, 0
2, 212160, Note_on_c, 1, 66, 45
2, 212400, Note_off_c, 1, 66, 0
2, 212640, Note_on_c, 1, 67, 66
2, 212880, Note_off_c, 1, 67, 0
2, 212880, Note_on_c, 1, 79, 68
2, 213085, Note_off_c, 1, 79, 0
2, 213120, Note_on_c, 1, 79, 70
2, 214080, Note_off_c, 1, 79, 0
2, 214080, Note_on_c, 1, 77, 72
2, 214520, Note_off_c, 1, 77, 0
2, 214560, Note_on_c, 1, 75, 72
2, 215040, Note_off_c, 1, 75, 0
2, 215040, Note_on_c, 1, 76, 69
2, 215425, Note_off_c, 1, 76, 0
2, 215520, Note_on_c, 1, 81, 66
2, 215760, Note_off_c, 1, 81, 0
2, 215760, Note_on_c, 1, 79, 64
2, 216000, Note_off_c, 1, 79, 0
2, 216000, Note_on_c, 1, 78, 62
2, 216240, Note_off_c, 1, 78, 0
2, 216240, Note_on_c, 1, 76, 61
2, 216435, Note_off_c, 1, 76, 0
2, 216480, Note_on_c, 1, 76, 59
2, 216720, Note_off_c, 1, 76, 0
2, 216720, Note_on_c, 1, 74, 57
2, 216915, Note_off_c, 1, 74, 0
2, 216960, Note_on_c, 1, 76, 56
2, 217200, Note_off_c, 1, 76, 0
2, 217200, Note_on_c, 1, 72, 54
2, 217390, Note_off_c, 1, 72, 0
2, 217440, Note_on_c, 1, 71, 52
2, 217920, Note_off_c, 1, 71, 0
2, 217920, Note_on_c, 1, 71, 49
2, 217960, Note_on_c, 1, 69, 48
2, 217980, Note_off_c, 1, 71, 0
2, 218000, Note_on_c, 1, 71, 48
2, 218020, Note_off_c, 1, 69, 0
2, 218040, Note_on_c, 1, 69, 48
2, 218060, Note_off_c, 1, 71, 0
2, 218080, Note_on_c, 1, 71, 48
2, 218100, Note_off_c, 1, 69, 0
2, 218120, Note_on_c, 1, 69, 47
2, 218140, Note_off_c, 1, 71, 0
2, 218160, Note_on_c, 1, 71, 47
2, 218180, Note_off_c, 1, 69, 0
2, 218220, Note_on_c, 1, 69, 47
2, 218231, Note_off_c, 1, 71, 0
2, 218280, Note_off_c, 1, 69, 0
2, 218280, Note_on_c, 1, 67, 46
2, 218340, Note_off_c, 1, 67, 0
2, 218340, Note_on_c, 1, 69, 46
2, 218400, Note_off_c, 1, 69, 0
2, 218400, Note_on_c, 1, 67, 72
2, 218640, Note_off_c, 1, 67, 0
2, 218640, Note_on_c, 1, 79, 74
2, 218840, Note_off_c, 1, 79, 0
2, 218880, Note_on_c, 1, 79, 77
2, 219840, Note_off_c, 1, 79, 0
2, 219840, Note_on_c, 1, 77, 78
2, 220280, Note_off_c, 1, 77, 0
2, 220320, Note_on_c, 1, 75, 79
2, 220800, Note_off_c, 1, 75, 0
2, 220800, Note_on_c, 1, 76, 65
2, 221185, Note_off_c, 1, 76, 0
2, 221760, Note_on_c, 1, 81, 68
2, 221880, Note_off_c, 1, 81, 0
2, 221880, Note_on_c, 1, 79, 67
2, 222000, Note_off_c, 1, 79, 0
2, 222000, Note_on_c, 1, 78, 66
2, 222120, Note_off_c, 1, 78, 0
2, 222120, Note_on_c, 1, 76, 66
2, 222215, Note_off_c, 1, 76, 0
2, 222240, Note_on_c, 1, 73, 65
2, 222360, Note_off_c, 1, 73, 0
2, 222360, Note_on_c, 1, 74, 64
2, 222480, Note_off_c, 1, 74, 0
2, 222480, Note_on_c, 1, 73, 64
2, 222600, Note_off_c, 1, 73, 0
2, 222600, Note_on_c, 1, 74, 63
2, 222695, Note_off_c, 1, 74, 0
2, 222720, Note_on_c, 1, 78, 62
2, 222840, Note_off_c, 1, 78, 0
2, 222840, Note_on_c, 1, 76, 61
2, 222960, Note_off_c, 1, 76, 0
2, 222960, Note_on_c, 1, 74, 61
2, 223080, Note_off_c, 1, 74, 0
2, 223080, Note_on_c, 1, 72, 60
2, 223175, Note_off_c, 1, 72, 0
2, 223200, Note_on_c, 1, 70, 59
2, 223320, Note_off_c, 1, 70, 0
2, 223320, Note_on_c, 1, 71, 59
2, 223440, Note_off_c, 1, 71, 0
2, 223440, Note_on_c, 1, 70, 58
2, 223560, Note_off_c, 1, 70, 0
2, 223560, Note_on_c, 1, 71, 57
2, 223655, Note_off_c, 1, 71, 0
2, 223680, Note_on_c, 1, 74, 57
2, 223800, Note_off_c, 1, 74, 0
2, 223800, Note_on_c, 1, 72, 56
2, 223920, Note_off_c, 1, 72, 0
2, 223920, Note_on_c, 1, 71, 55
2, 224040, Note_off_c, 1, 71, 0
2, 224040, Note_on_c, 1, 69, 54
2, 224135, Note_off_c, 1, 69, 0
2, 224160, Note_on_c, 1, 67, 54
2, 224515, Note_off_c, 1, 67, 0
2, 224640, Note_on_c, 1, 72, 52
2, 224760, Note_off_c, 1, 72, 0
2, 224760, Note_on_c, 1, 71, 50
2, 224880, Note_off_c, 1, 71, 0
2, 224880, Note_on_c, 1, 72, 48
2, 225000, Note_off_c, 1, 72, 0
2, 225000, Note_on_c, 1, 69, 46
2, 225120, Note_off_c, 1, 69, 0
2, 225120, Note_on_c, 1, 67, 44
2, 225300, Note_off_c, 1, 67, 0
2, 225600, Note_on_c, 1, 72, 46
2, 225720, Note_off_c, 1, 72, 0
2, 225720, Note_on_c, 1, 71, 45
2, 225840, Note_off_c, 1, 71, 0
2, 225840, Note_on_c, 1, 72, 44
2, 225960, Note_off_c, 1, 72, 0
2, 225960, Note_on_c, 1, 69, 42
2, 226080, Note_off_c, 1, 69, 0
2, 226080, Note_on_c, 1, 67, 41
2, 226260, Note_off_c, 1, 67, 0
2, 228240, Note_on_c, 1, 78, 66
2, 228480, Note_off_c, 1, 78, 0
2, 228480, Note_on_c, 1, 79, 67
2, 228720, Note_off_c, 1, 79, 0
2, 228720, Note_on_c, 1, 81, 69
2, 228960, Note_off_c, 1, 81, 0
2, 228960, Note_on_c, 1, 82, 71
2, 229200, Note_off_c, 1, 82, 0
2, 229200, Note_on_c, 1, 79, 67
2, 229440, Note_off_c, 1, 79, 0
2, 229440, Note_on_c, 1, 76, 64
2, 229680, Note_off_c, 1, 76, 0
2, 229680, Note_on_c, 1, 74, 61
2, 229920, Note_off_c, 1, 74, 0
2, 229920, Note_on_c, 1, 73, 59
2, 230400, Note_off_c, 1, 73, 0
2, 232080, Note_on_c, 1, 78, 53
2, 232320, Note_off_c, 1, 78, 0
2, 232320, Note_on_c, 1, 79, 55
2, 232560, Note_off_c, 1, 79, 0
2, 232560, Note_on_c, 1, 81, 57
2, 232755, Note_off_c, 1, 81, 0
2, 232800, Note_on_c, 1, 84, 58
2, 232920, Note_off_c, 1, 84, 0
2, 232920, Note_on_c, 1, 82, 56
2, 233040, Note_off_c, 1, 82, 0
2, 233040, Note_on_c, 1, 81, 55
2, 233160, Note_off_c, 1, 81, 0
2, 233160, Note_on_c, 1, 79, 54
2, 233255, Note_off_c, 1, 79, 0
2, 233280, Note_on_c, 1, 81, 52
2, 233400, Note_off_c, 1, 81, 0
2, 233400, Note_on_c, 1, 79, 51
2, 233520, Note_off_c, 1, 79, 0
2, 233520, Note_on_c, 1, 77, 50
2, 233640, Note_off_c, 1, 77, 0
2, 233640, Note_on_c, 1, 76, 48
2, 233735, Note_off_c, 1, 76, 0
2, 233760, Note_on_c, 1, 74, 50
2, 234000, Note_off_c, 1, 74, 0
2, 234240, Note_on_c, 1, 74, 51
2, 234480, Note_off_c, 1, 74, 0
2, 234720, Note_on_c, 1, 74, 52
2, 234960, Note_off_c, 1, 74, 0
2, 235200, Note_on_c, 1, 74, 53
2, 235440, Note_off_c, 1, 74, 0
2, 235680, Note_on_c, 1, 73, 53
2, 236160, Note_off_c, 1, 73, 0
2, 236160, Note_on_c, 1, 79, 54
2, 236400, Note_off_c, 1, 79, 0
2, 236640, Note_on_c, 1, 79, 55
2, 237560, Note_off_c, 1, 79, 0
2, 237600, Note_on_c, 1, 77, 59
2, 238515, Note_off_c, 1, 77, 0
2, 238560, Note_on_c, 1, 81, 56
2, 238800, Note_off_c, 1, 81, 0
2, 238800, Note_on_c, 1, 79, 55
2, 239040, Note_off_c, 1, 79, 0
2, 239040, Note_on_c, 1, 77, 54
2, 239280, Note_off_c, 1, 77, 0
2, 239280, Note_on_c, 1, 76, 53
2, 239480, Note_off_c, 1, 76, 0
2, 239520, Note_on_c, 1, 74, 52
2, 240440, Note_off_c, 1, 74, 0
2, 240480, Note_on_c, 1, 79, 49
2, 240720, Note_off_c, 1, 79, 0
2, 240720, Note_on_c, 1, 77, 48
2, 240960, Note_off_c, 1, 77, 0
2, 240960, Note_on_c, 1, 76, 47
2, 241200, Note_off_c, 1, 76, 0
2, 241200, Note_on_c, 1, 74, 46
2, 241400, Note_off_c, 1, 74, 0
2, 241440, Note_on_c, 1, 72, 62
2, 241680, Note_off_c, 1, 72, 0
2, 241920, Note_on_c, 1, 72, 64
2, 242160, Note_off_c, 1, 72, 0
2, 242400, Note_on_c, 1, 72, 66
2, 242640, Note_off_c, 1, 72, 0
2, 242880, Note_on_c, 1, 72, 68
2, 243120, Note_off_c, 1, 72, 0
2, 243360, Note_on_c, 1, 71, 71
2, 243840, Note_off_c, 1, 71, 0
2, 243840, Note_on_c, 1, 77, 68
2, 244080, Note_off_c, 1, 77, 0
2, 244320, Note_on_c, 1, 77, 65
2, 244680, Note_off_c, 1, 77, 0
2, 249120, Note_on_c, 1, 69, 57
2, 249600, Note_off_c, 1, 69, 0
2, 249600, Note_on_c, 1, 63, 56
2, 249985, Note_off_c, 1, 63, 0
2, 250080, Note_on_c, 1, 63, 54
2, 250850, Note_off_c, 1, 63, 0
2, 251040, Note_on_c, 1, 86, 45
2, 251520, Note_off_c, 1, 86, 0
2, 251520, Note_on_c, 1, 74, 44
2, 251905, Note_off_c, 1, 74, 0
2, 252000, Note_on_c, 1, 74, 42
2, 252770, Note_off_c, 1, 74, 0
2, 254880, Note_on_c, 1, 71, 46
2, 255000, Note_off_c, 1, 71, 0
2, 255120, Note_on_c, 1, 76, 47
2, 255360, Note_off_c, 1, 76, 0
2, 255360, Note_on_c, 1, 75, 46
2, 255600, Note_off_c, 1, 75, 0
2, 255600, Note_on_c, 1, 76, 45
2, 255795, Note_off_c, 1, 76, 0
2, 256080, Note_on_c, 1, 81, 53
2, 256200, Note_off_c, 1, 81, 0
2, 256200, Note_on_c, 1, 83, 54
2, 256295, Note_off_c, 1, 83, 0
2, 256320, Note_on_c, 1, 86, 55
2, 256440, Note_off_c, 1, 86, 0
2, 256440, Note_on_c, 1, 84, 53
2, 256560, Note_off_c, 1, 84, 0
2, 256560, Note_on_c, 1, 83, 52
2, 256680, Note_off_c, 1, 83, 0
2, 256680, Note_on_c, 1, 81, 51
2, 256775, Note_off_c, 1, 81, 0
2, 256800, Note_on_c, 1, 80, 50
2, 256920, Note_off_c, 1, 80, 0
2, 257040, Note_on_c, 1, 76, 51
2, 257280, Note_off_c, 1, 76, 0
2, 257280, Note_on_c, 1, 75, 49
2, 257520, Note_off_c, 1, 75, 0
2, 257520, Note_on_c, 1, 76, 47
2, 257720, Note_off_c, 1, 76, 0
2, 258000, Note_on_c, 1, 81, 56
2, 258120, Note_off_c, 1, 81, 0
2, 258120, Note_on_c, 1, 83, 58
2, 258215, Note_off_c, 1, 83, 0
2, 258240, Note_on_c, 1, 86, 60
2, 258360, Note_off_c, 1, 86, 0
2, 258360, Note_on_c, 1, 84, 57
2, 258480, Note_off_c, 1, 84, 0
2, 258480, Note_on_c, 1, 83, 56
2, 258600, Note_off_c, 1, 83, 0
2, 258600, Note_on_c, 1, 81, 55
2, 258695, Note_off_c, 1, 81, 0
2, 258720, Note_on_c, 1, 80, 54
2, 259145, Note_off_c, 1, 80, 0
2, 259200, Note_on_c, 1, 64, 50
2, 260135, Note_off_c, 1, 64, 0
2, 260160, Note_on_c, 1, 64, 42
2, 260875, Note_off_c, 1, 64, 0
2, 260880, Note_on_c, 1, 65, 39
2, 261120, Note_off_c, 1, 65, 0
2, 261120, Note_on_c, 1, 66, 40
2, 261360, Note_off_c, 1, 66, 0
2, 261360, Note_on_c, 1, 67, 42
2, 261600, Note_off_c, 1, 67, 0
2, 261600, Note_on_c, 1, 68, 43
2, 261840, Note_off_c, 1, 68, 0
2, 261840, Note_on_c, 1, 69, 44
2, 262080, Note_off_c, 1, 69, 0
2, 262080, Note_on_c, 1, 70, 46
2, 262320, Note_off_c, 1, 70, 0
2, 262320, Note_on_c, 1, 71, 47
2, 262525, Note_off_c, 1, 71, 0
2, 262560, Note_on_c, 1, 72, 46
2, 262800, Note_off_c, 1, 72, 0
2, 263040, Note_on_c, 1, 72, 46
2, 263280, Note_off_c, 1, 72, 0
2, 263520, Note_on_c, 1, 72, 47
2, 263760, Note_off_c, 1, 72, 0
2, 264000, Note_on_c, 1, 72, 48
2, 264240, Note_off_c, 1, 72, 0
2, 264480, Note_on_c, 1, 71, 49
2, 264960, Note_off_c, 1, 71, 0
2, 264960, Note_on_c, 1, 77, 49
2, 265200, Note_off_c, 1, 77, 0
2, 265440, Note_on_c, 1, 77, 50
2, 266160, Note_off_c, 1, 77, 0
2, 266400, Note_on_c, 1, 76, 51
2, 267320, Note_off_c, 1, 76, 0
2, 267360, Note_on_c, 1, 79, 49
2, 267600, Note_off_c, 1, 79, 0
2, 267600, Note_on_c, 1, 77, 48
2, 267840, Note_off_c, 1, 77, 0
2, 267840, Note_on_c, 1, 76, 47
2, 268080, Note_off_c, 1, 76, 0
2, 268080, Note_on_c, 1, 74, 47
2, 268285, Note_off_c, 1, 74, 0
2, 268320, Note_on_c, 1, 72, 46
2, 268560, Note_off_c, 1, 72, 0
2, 268560, Note_on_c, 1, 71, 46
2, 268800, Note_off_c, 1, 71, 0
2, 268800, Note_on_c, 1, 69, 45
2, 269040, Note_off_c, 1, 69, 0
2, 269040, Note_on_c, 1, 67, 44
2, 269280, Note_off_c, 1, 67, 0
2, 269280, Note_on_c, 1, 71, 45
2, 269320, Note_on_c, 1, 69, 44
2, 269340, Note_off_c, 1, 71, 0
2, 269360, Note_on_c, 1, 71, 44
2, 269380, Note_off_c, 1, 69, 0
2, 269400, Note_on_c, 1, 69, 44
2, 269415, Note_off_c, 1, 71, 0
2, 269520, Note_on_c, 1, 67, 43
2, 269535, Note_off_c, 1, 69, 0
2, 269760, Note_off_c, 1, 67, 0
2, 269760, Note_on_c, 1, 69, 42
2, 270000, Note_off_c, 1, 69, 0
2, 270000, Note_on_c, 1, 71, 41
2, 270200, Note_off_c, 1, 71, 0
2, 270240, Note_on_c, 1, 72, 60
2, 270480, Note_off_c, 1, 72, 0
2, 270720, Note_on_c, 1, 72, 61
2, 270960, Note_off_c, 1, 72, 0
2, 271200, Note_on_c, 1, 72, 61
2, 271440, Note_off_c, 1, 72, 0
2, 271680, Note_on_c, 1, 72, 62
2, 271920, Note_off_c, 1, 72, 0
2, 272160, Note_on_c, 1, 71, 63
2, 272640, Note_off_c, 1, 71, 0
2, 272640, Note_on_c, 1, 77, 64
2, 272880, Note_off_c, 1, 77, 0
2, 274080, Note_on_c, 1, 77, 67
2, 274320, Note_off_c, 1, 77, 0
2, 274320, Note_on_c, 1, 76, 66
2, 274520, Note_off_c, 1, 76, 0
2, 274560, Note_on_c, 1, 77, 65
2, 274800, Note_off_c, 1, 77, 0
2, 274800, Note_on_c, 1, 74, 64
2, 275000, Note_off_c, 1, 74, 0
2, 275040, Note_on_c, 1, 72, 62
2, 275520, Note_off_c, 1, 72, 0
2, 276000, Note_on_c, 1, 72, 53
2, 276480, Note_off_c, 1, 72, 0
2, 276480, Note_on_c, 1, 82, 53
2, 276865, Note_off_c, 1, 82, 0
2, 276960, Note_on_c, 1, 82, 49
2, 277320, Note_off_c, 1, 82, 0
2, 277920, Note_on_c, 1, 81, 70
2, 278880, Note_off_c, 1, 81, 0
2, 278880, Note_on_c, 1, 84, 73
2, 279600, Note_off_c, 1, 84, 0
2, 279600, Note_on_c, 1, 82, 75
2, 279805, Note_off_c, 1, 82, 0
2, 279840, Note_on_c, 1, 81, 71
2, 280080, Note_off_c, 1, 81, 0
2, 280680, Note_on_c, 1, 79, 60
2, 280760, Note_off_c, 1, 79, 0
2, 280800, Note_on_c, 1, 77, 59
2, 281040, Note_off_c, 1, 77, 0
2, 281640, Note_on_c, 1, 81, 48
2, 281720, Note_off_c, 1, 81, 0
2, 281760, Note_on_c, 1, 79, 50
2, 282000, Note_off_c, 1, 79, 0
2, 282600, Note_on_c, 1, 83, 55
2, 282680, Note_off_c, 1, 83, 0
2, 282720, Note_on_c, 1, 84, 56
2, 282960, Note_off_c, 1, 84, 0
2, 283560, Note_on_c, 1, 88, 60
2, 283640, Note_off_c, 1, 88, 0
2, 283680, Note_on_c, 1, 79, 61
2, 284160, Note_off_c, 1, 79, 0
2, 285600, Note_on_c, 1, 74, 75
2, 286560, Note_off_c, 1, 74, 0
2, 286560, Note_on_c, 1, 77, 71
2, 286800, Note_off_c, 1, 77, 0
2, 286800, Note_on_c, 1, 76, 70
2, 287040, Note_off_c, 1, 76, 0
2, 287040, Note_on_c, 1, 74, 68
2, 287280, Note_off_c, 1, 74, 0
2, 287280, Note_on_c, 1, 72, 67
2, 287480, Note_off_c, 1, 72, 0
2, 287520, Note_on_c, 1, 71, 66
2, 287760, Note_off_c, 1, 71, 0
2, 287760, Note_on_c, 1, 72, 65
2, 288000, Note_off_c, 1, 72, 0
2, 288000, Note_on_c, 1, 74, 64
2, 288240, Note_off_c, 1, 74, 0
2, 288240, Note_on_c, 1, 76, 63
2, 288480, Note_off_c, 1, 76, 0
2, 288480, Note_on_c, 1, 77, 62
2, 288720, Note_off_c, 1, 77, 0
2, 288720, Note_on_c, 1, 79, 61
2, 288960, Note_off_c, 1, 79, 0
2, 288960, Note_on_c, 1, 81, 60
2, 289200, Note_off_c, 1, 81, 0
2, 289200, Note_on_c, 1, 83, 58
2, 289440, Note_off_c, 1, 83, 0
2, 289440, Note_on_c, 1, 84, 57
2, 289640, Note_off_c, 1, 84, 0
2, 289680, Note_on_c, 1, 74, 56
2, 289920, Note_off_c, 1, 74, 0
2, 289920, Note_on_c, 1, 76, 55
2, 290160, Note_off_c, 1, 76, 0
2, 290160, Note_on_c, 1, 77, 54
2, 290360, Note_off_c, 1, 77, 0
2, 290400, Note_on_c, 1, 79, 53
2, 290640, Note_off_c, 1, 79, 0
2, 290640, Note_on_c, 1, 76, 52
2, 290840, Note_off_c, 1, 76, 0
2, 290880, Note_on_c, 1, 81, 51
2, 291120, Note_off_c, 1, 81, 0
2, 291120, Note_on_c, 1, 77, 50
2, 291315, Note_off_c, 1, 77, 0
2, 291360, Note_on_c, 1, 76, 49
2, 292320, Note_off_c, 1, 76, 0
2, 292320, Note_on_c, 1, 74, 40
2, 292800, Note_off_c, 1, 74, 0
2, 293280, Note_on_c, 1, 67, 70
2, 294000, Note_off_c, 1, 67, 0
2, 294000, Note_on_c, 1, 69, 73
2, 294120, Note_off_c, 1, 69, 0
2, 294120, Note_on_c, 1, 71, 74
2, 294220, Note_off_c, 1, 71, 0
2, 294240, Note_on_c, 1, 72, 74
2, 294360, Note_off_c, 1, 72, 0
2, 294480, Note_on_c, 1, 71, 75
2, 294600, Note_off_c, 1, 71, 0
2, 294720, Note_on_c, 1, 69, 76
2, 294840, Note_off_c, 1, 69, 0
2, 294960, Note_on_c, 1, 67, 78
2, 295080, Note_off_c, 1, 67, 0
2, 295200, Note_on_c, 1, 67, 79
2, 295440, Note_off_c, 1, 67, 0
2, 295440, Note_on_c, 1, 65, 76
2, 295560, Note_off_c, 1, 65, 0
2, 295680, Note_on_c, 1, 64, 75
2, 295920, Note_off_c, 1, 64, 0
2, 295920, Note_on_c, 1, 62, 73
2, 296040, Note_off_c, 1, 62, 0
2, 296160, Note_on_c, 1, 60, 71
2, 296640, Note_off_c, 1, 60, 0
2, 296640, Note_on_c, 1, 59, 63
2, 296880, Note_off_c, 1, 59, 0
2, 297120, Note_on_c, 1, 79, 50
2, 297840, Note_off_c, 1, 79, 0
2, 297840, Note_on_c, 1, 81, 54
2, 297960, Note_off_c, 1, 81, 0
2, 297960, Note_on_c, 1, 83, 55
2, 298080, Note_off_c, 1, 83, 0
2, 298080, Note_on_c, 1, 84, 56
2, 298200, Note_off_c, 1, 84, 0
2, 298200, Note_on_c, 1, 86, 56
2, 298320, Note_off_c, 1, 86, 0
2, 298320, Note_on_c, 1, 88, 57
2, 298440, Note_off_c, 1, 88, 0
2, 298440, Note_on_c, 1, 83, 58
2, 298560, Note_off_c, 1, 83, 0
2, 298560, Note_on_c, 1, 84, 58
2, 298680, Note_off_c, 1, 84, 0
2, 298680, Note_on_c, 1, 79, 59
2, 298800, Note_off_c, 1, 79, 0
2, 298800, Note_on_c, 1, 81, 60
2, 298920, Note_off_c, 1, 81, 0
2, 298920, Note_on_c, 1, 76, 60
2, 299015, Note_off_c, 1, 76, 0
2, 299040, Note_on_c, 1, 79, 61
2, 299160, Note_off_c, 1, 79, 0
2, 299280, Note_on_c, 1, 79, 58
2, 299400, Note_off_c, 1, 79, 0
2, 299400, Note_on_c, 1, 77, 58
2, 299520, Note_off_c, 1, 77, 0
2, 299520, Note_on_c, 1, 76, 57
2, 299640, Note_off_c, 1, 76, 0
2, 299760, Note_on_c, 1, 76, 56
2, 299880, Note_off_c, 1, 76, 0
2, 299880, Note_on_c, 1, 74, 55
2, 300000, Note_off_c, 1, 74, 0
2, 300000, Note_on_c, 1, 72, 54
2, 300480, Note_off_c, 1, 72, 0
2, 300480, Note_on_c, 1, 71, 49
2, 300720, Note_off_c, 1, 71, 0
2, 300960, Note_on_c, 1, 72, 70
2, 301200, Note_off_c, 1, 72, 0
2, 301200, Note_on_c, 1, 84, 72
2, 301405, Note_off_c, 1, 84, 0
2, 301440, Note_on_c, 1, 84, 75
2, 302400, Note_off_c, 1, 84, 0
2, 302400, Note_on_c, 1, 82, 75
2, 302840, Note_off_c, 1, 82, 0
2, 302880, Note_on_c, 1, 80, 76
2, 303360, Note_off_c, 1, 80, 0
2, 303360, Note_on_c, 1, 81, 77
2, 303745, Note_off_c, 1, 81, 0
2, 303840, Note_on_c, 1, 86, 72
2, 304080, Note_off_c, 1, 86, 0
2, 304080, Note_on_c, 1, 84, 70
2, 304320, Note_off_c, 1, 84, 0
2, 304320, Note_on_c, 1, 83, 68
2, 304560, Note_off_c, 1, 83, 0
2, 304560, Note_on_c, 1, 81, 67
2, 304760, Note_off_c, 1, 81, 0
2, 304800, Note_on_c, 1, 81, 65
2, 305040, Note_off_c, 1, 81, 0
2, 305040, Note_on_c, 1, 79, 63
2, 305245, Note_off_c, 1, 79, 0
2, 305280, Note_on_c, 1, 81, 61
2, 305520, Note_off_c, 1, 81, 0
2, 305520, Note_on_c, 1, 77, 59
2, 305725, Note_off_c, 1, 77, 0
2, 305760, Note_on_c, 1, 76, 57
2, 306240, Note_off_c, 1, 76, 0
2, 306240, Note_on_c, 1, 76, 53
2, 306280, Note_on_c, 1, 74, 53
2, 306300, Note_off_c, 1, 76, 0
2, 306320, Note_on_c, 1, 76, 53
2, 306340, Note_off_c, 1, 74, 0
2, 306360, Note_on_c, 1, 74, 52
2, 306380, Note_off_c, 1, 76, 0
2, 306400, Note_on_c, 1, 76, 52
2, 306420, Note_off_c, 1, 74, 0
2, 306440, Note_on_c, 1, 74, 52
2, 306460, Note_off_c, 1, 76, 0
2, 306480, Note_on_c, 1, 76, 51
2, 306506, Note_off_c, 1, 74, 0
2, 306540, Note_on_c, 1, 74, 51
2, 306543, Note_off_c, 1, 76, 0
2, 306600, Note_on_c, 1, 72, 50
2, 306603, Note_off_c, 1, 74, 0
2, 306660, Note_off_c, 1, 72, 0
2, 306660, Note_on_c, 1, 74, 50
2, 306720, Note_off_c, 1, 74, 0
2, 306720, Note_on_c, 1, 72, 70
2, 306960, Note_off_c, 1, 72, 0
2, 306960, Note_on_c, 1, 84, 73
2, 307155, Note_off_c, 1, 84, 0
2, 307200, Note_on_c, 1, 84, 77
2, 308160, Note_off_c, 1, 84, 0
2, 308160, Note_on_c, 1, 82, 78
2, 308600, Note_off_c, 1, 82, 0
2, 308640, Note_on_c, 1, 80, 81
2, 309120, Note_off_c, 1, 80, 0
2, 309120, Note_on_c, 1, 81, 67
2, 309520, Note_off_c, 1, 81, 0
2, 310080, Note_on_c, 1, 86, 68
2, 310200, Note_off_c, 1, 86, 0
2, 310200, Note_on_c, 1, 84, 67
2, 310320, Note_off_c, 1, 84, 0
2, 310320, Note_on_c, 1, 83, 67
2, 310440, Note_off_c, 1, 83, 0
2, 310440, Note_on_c, 1, 81, 66
2, 310535, Note_off_c, 1, 81, 0
2, 310560, Note_on_c, 1, 78, 65
2, 310680, Note_off_c, 1, 78, 0
2, 310680, Note_on_c, 1, 79, 65
2, 310800, Note_off_c, 1, 79, 0
2, 310800, Note_on_c, 1, 78, 64
2, 310920, Note_off_c, 1, 78, 0
2, 310920, Note_on_c, 1, 79, 63
2, 311015, Note_off_c, 1, 79, 0
2, 311040, Note_on_c, 1, 83, 63
2, 311160, Note_off_c, 1, 83, 0
2, 311160, Note_on_c, 1, 81, 62
2, 311280, Note_off_c, 1, 81, 0
2, 311280, Note_on_c, 1, 79, 62
2, 311400, Note_off_c, 1, 79, 0
2, 311400, Note_on_c, 1, 77, 61
2, 311495, Note_off_c, 1, 77, 0
2, 311520, Note_on_c, 1, 75, 60
2, 311640, Note_off_c, 1, 75, 0
2, 311640, Note_on_c, 1, 76, 60
2, 311760, Note_off_c, 1, 76, 0
2, 311760, Note_on_c, 1, 75, 59
2, 311880, Note_off_c, 1, 75, 0
2, 311880, Note_on_c, 1, 76, 58
2, 311975, Note_off_c, 1, 76, 0
2, 312000, Note_on_c, 1, 79, 58
2, 312120, Note_off_c, 1, 79, 0
2, 312120, Note_on_c, 1, 77, 57
2, 312240, Note_off_c, 1, 77, 0
2, 312240, Note_on_c, 1, 76, 56
2, 312360, Note_off_c, 1, 76, 0
2, 312360, Note_on_c, 1, 74, 56
2, 312455, Note_off_c, 1, 74, 0
2, 312480, Note_on_c, 1, 72, 55
2, 312720, Note_off_c, 1, 72, 0
2, 312960, Note_on_c, 1, 72, 54
2, 313080, Note_off_c, 1, 72, 0
2, 313080, Note_on_c, 1, 71, 53
2, 313200, Note_off_c, 1, 71, 0
2, 313200, Note_on_c, 1, 72, 51
2, 313320, Note_off_c, 1, 72, 0
2, 313320, Note_on_c, 1, 69, 50
2, 313440, Note_off_c, 1, 69, 0
2, 313440, Note_on_c, 1, 67, 48
2, 313680, Note_off_c, 1, 67, 0
2, 313920, Note_on_c, 1, 84, 50
2, 314040, Note_off_c, 1, 84, 0
2, 314040, Note_on_c, 1, 83, 48
2, 314160, Note_off_c, 1, 83, 0
2, 314160, Note_on_c, 1, 84, 46
2, 314280, Note_off_c, 1, 84, 0
2, 314280, Note_on_c, 1, 81, 45
2, 314400, Note_off_c, 1, 81, 0
2, 314400, Note_on_c, 1, 79, 43
2, 314640, Note_off_c, 1, 79, 0
2, 314880, Note_on_c, 1, 81, 46
2, 315000, Note_off_c, 1, 81, 0
2, 315000, Note_on_c, 1, 79, 44
2, 315120, Note_off_c, 1, 79, 0
2, 315120, Note_on_c, 1, 81, 43
2, 315240, Note_off_c, 1, 81, 0
2, 315240, Note_on_c, 1, 77, 41
2, 315360, Note_off_c, 1, 77, 0
2, 315360, Note_on_c, 1, 76, 39
2, 315600, Note_off_c, 1, 76, 0
2, 315840, Note_on_c, 1, 77, 38
2, 315960, Note_off_c, 1, 77, 0
2, 315960, Note_on_c, 1, 76, 36
2, 316080, Note_off_c, 1, 76, 0
2, 316080, Note_on_c, 1, 77, 34
2, 316200, Note_off_c, 1, 77, 0
2, 316200, Note_on_c, 1, 74, 32
2, 316295, Note_off_c, 1, 74, 0
2, 316320, Note_on_c, 1, 72, 62
2, 316560, Note_off_c, 1, 72, 0
2, 316800, Note_on_c, 1, 72, 63
2, 317040, Note_off_c, 1, 72, 0
2, 317280, Note_on_c, 1, 72, 64
2, 317520, Note_off_c, 1, 72, 0
2, 317760, Note_on_c, 1, 72, 65
2, 318000, Note_off_c, 1, 72, 0
2, 318240, Note_on_c, 1, 71, 67
2, 318720, Note_off_c, 1, 71, 0
2, 318720, Note_on_c, 1, 77, 68
2, 319105, Note_off_c, 1, 77, 0
2, 319200, Note_on_c, 1, 77, 69
2, 319970, Note_off_c, 1, 77, 0
2, 320160, Note_on_c, 1, 76, 71
2, 321120, Note_off_c, 1, 76, 0
2, 321120, Note_on_c, 1, 79, 61
2, 321360, Note_off_c, 1, 79, 0
2, 321360, Note_on_c, 1, 77, 60
2, 321600, Note_off_c, 1, 77, 0
2, 321600, Note_on_c, 1, 76, 58
2, 321840, Note_off_c, 1, 76, 0
2, 321840, Note_on_c, 1, 74, 57
2, 322040, Note_off_c, 1, 74, 0
2, 322080, Note_on_c, 1, 74, 56
2, 323040, Note_off_c, 1, 74, 0
2, 323040, Note_on_c, 1, 72, 41
2, 323350, Note_off_c, 1, 72, 0
2, 325920, Control_c, 1, 64, 0
2, 325920, Note_on_c, 1, 71, 36
2, 326305, Note_off_c, 1, 71, 0
2, 326400, Note_on_c, 1, 74, 39
2, 326460, Note_off_c, 1, 74, 0
2, 326460, Note_on_c, 1, 72, 39
2, 326520, Note_off_c, 1, 72, 0
2, 326520, Note_on_c, 1, 71, 40
2, 326580, Note_off_c, 1, 71, 0
2, 326580, Note_on_c, 1, 72, 40
2, 326640, Note_off_c, 1, 72, 0
2, 326640, Note_on_c, 1, 74, 40
2, 326830, Note_off_c, 1, 74, 0
2, 327120, Note_on_c, 1, 74, 43
2, 327310, Note_off_c, 1, 74, 0
2, 327360, Note_on_c, 1, 79, 45
2, 327840, Note_off_c, 1, 79, 0
2, 327840, Note_on_c, 1, 78, 43
2, 328030, Note_off_c, 1, 78, 0
2, 328080, Note_on_c, 1, 78, 42
2, 328200, Note_off_c, 1, 78, 0
2, 328200, Note_on_c, 1, 76, 41
2, 328535, Note_off_c, 1, 76, 0
2, 328560, Note_on_c, 1, 74, 39
2, 328750, Note_off_c, 1, 74, 0
2, 328800, Note_on_c, 1, 71, 38
2, 329185, Note_off_c, 1, 71, 0
2, 329280, Note_on_c, 1, 74, 41
2, 329340, Note_off_c, 1, 74, 0
2, 329340, Note_on_c, 1, 72, 42
2, 329400, Note_off_c, 1, 72, 0
2, 329400, Note_on_c, 1, 71, 42
2, 329460, Note_off_c, 1, 71, 0
2, 329460, Note_on_c, 1, 72, 43
2, 329520, Note_off_c, 1, 72, 0
2, 329520, Note_on_c, 1, 74, 43
2, 329710, Note_off_c, 1, 74, 0
2, 330000, Note_on_c, 1, 74, 47
2, 330190, Note_off_c, 1, 74, 0
2, 330240, Note_on_c, 1, 76, 49
2, 330720, Note_off_c, 1, 76, 0
2, 330720, Note_on_c, 1, 74, 47
2, 330910, Note_off_c, 1, 74, 0
2, 330960, Note_on_c, 1, 74, 45
2, 331080, Note_off_c, 1, 74, 0
2, 331080, Note_on_c, 1, 72, 44
2, 331410, Note_off_c, 1, 72, 0
2, 331440, Note_on_c, 1, 71, 42
2, 331630, Note_off_c, 1, 71, 0
2, 331680, Note_on_c, 1, 62, 58
2, 332040, Note_off_c, 1, 62, 0
2, 332400, Note_on_c, 1, 64, 60
2, 332760, Note_off_c, 1, 64, 0
2, 333120, Note_on_c, 1, 66, 62
2, 333480, Note_off_c, 1, 66, 0
2, 333840, Note_on_c, 1, 67, 63
2, 334200, Note_off_c, 1, 67, 0
2, 334560, Note_on_c, 1, 74, 65
2, 334750, Note_off_c, 1, 74, 0
2, 335040, Note_on_c, 1, 84, 67
2, 335230, Note_off_c, 1, 84, 0
2, 335280, Note_on_c, 1, 83, 67
2, 335470, Note_off_c, 1, 83, 0
2, 335760, Note_on_c, 1, 74, 68
2, 335950, Note_off_c, 1, 74, 0
2, 336000, Note_on_c, 1, 72, 69
2, 336190, Note_off_c, 1, 72, 0
2, 336480, Note_on_c, 1, 78, 70
2, 336670, Note_off_c, 1, 78, 0
2, 336720, Note_on_c, 1, 79, 71
2, 336910, Note_off_c, 1, 79, 0
2, 337200, Note_on_c, 1, 71, 72
2, 337390, Note_off_c, 1, 71, 0
2, 337440, Note_on_c, 1, 69, 71
2, 337560, Note_off_c, 1, 69, 0
2, 337560, Note_on_c, 1, 68, 71
2, 337680, Note_off_c, 1, 68, 0
2, 337680, Note_on_c, 1, 71, 72
2, 337800, Note_off_c, 1, 71, 0
2, 337800, Note_on_c, 1, 69, 73
2, 337920, Note_off_c, 1, 69, 0
2, 337920, Note_on_c, 1, 72, 74
2, 338040, Note_off_c, 1, 72, 0
2, 338040, Note_on_c, 1, 71, 75
2, 338160, Note_off_c, 1, 71, 0
2, 338160, Note_on_c, 1, 74, 76
2, 338280, Note_off_c, 1, 74, 0
2, 338280, Note_on_c, 1, 72, 77
2, 338375, Note_off_c, 1, 72, 0
2, 338400, Note_on_c, 1, 76, 78
2, 339090, Note_off_c, 1, 76, 0
2, 339120, Note_on_c, 1, 72, 70
2, 339817, Note_off_c, 1, 72, 0
2, 339840, Note_on_c, 1, 71, 63
2, 340530, Note_off_c, 1, 71, 0
2, 340560, Note_on_c, 1, 69, 57
2, 341250, Note_off_c, 1, 69, 0
2, 341280, Note_on_c, 1, 67, 50
2, 341955, Note_off_c, 1, 67, 0
2, 342000, Note_on_c, 1, 66, 44
2, 342710, Note_off_c, 1, 66, 0
2, 342720, Note_on_c, 1, 67, 43
2, 342910, Note_off_c, 1, 67, 0
2, 342960, Note_on_c, 1, 69, 47
2, 343150, Note_off_c, 1, 69, 0
2, 343200, Note_on_c, 1, 71, 57
2, 343775, Note_off_c, 1, 71, 0
2, 343920, Note_on_c, 1, 64, 54
2, 344040, Note_off_c, 1, 64, 0
2, 344040, Note_on_c, 1, 67, 54
2, 344160, Note_off_c, 1, 67, 0
2, 344160, Note_on_c, 1, 72, 54
2, 344280, Note_off_c, 1, 72, 0
2, 344280, Note_on_c, 1, 67, 54
2, 344400, Note_off_c, 1, 67, 0
2, 344400, Note_on_c, 1, 76, 55
2, 344520, Note_off_c, 1, 76, 0
2, 344520, Note_on_c, 1, 72, 55
2, 344615, Note_off_c, 1, 72, 0
2, 344640, Note_on_c, 1, 78, 58
2, 345215, Note_off_c, 1, 78, 0
2, 345360, Note_on_c, 1, 79, 57
2, 345480, Note_off_c, 1, 79, 0
2, 345480, Note_on_c, 1, 83, 57
2, 345600, Note_off_c, 1, 83, 0
2, 345600, Note_on_c, 1, 79, 58
2, 345720, Note_off_c, 1, 79, 0
2, 345720, Note_on_c, 1, 74, 58
2, 345840, Note_off_c, 1, 74, 0
2, 345840, Note_on_c, 1, 71, 58
2, 345960, Note_off_c, 1, 71, 0
2, 345960, Note_on_c, 1, 67, 59
2, 346055, Note_off_c, 1, 67, 0
2, 346080, Note_on_c, 1, 71, 62
2, 346655, Note_off_c, 1, 71, 0
2, 346800, Note_on_c, 1, 64, 61
2, 346920, Note_off_c, 1, 64, 0
2, 346920, Note_on_c, 1, 67, 61
2, 347040, Note_off_c, 1, 67, 0
2, 347040, Note_on_c, 1, 72, 61
2, 347160, Note_off_c, 1, 72, 0
2, 347160, Note_on_c, 1, 67, 62
2, 347280, Note_off_c, 1, 67, 0
2, 347280, Note_on_c, 1, 76, 62
2, 347400, Note_off_c, 1, 76, 0
2, 347400, Note_on_c, 1, 72, 62
2, 347495, Note_off_c, 1, 72, 0
2, 347520, Note_on_c, 1, 78, 69
2, 348095, Note_off_c, 1, 78, 0
2, 348240, Note_on_c, 1, 79, 64
2, 348360, Note_off_c, 1, 79, 0
2, 348360, Note_on_c, 1, 81, 65
2, 348480, Note_off_c, 1, 81, 0
2, 348480, Note_on_c, 1, 83, 65
2, 348600, Note_off_c, 1, 83, 0
2, 348600, Note_on_c, 1, 79, 65
2, 348720, Note_off_c, 1, 79, 0
2, 348720, Note_on_c, 1, 78, 65
2, 348840, Note_off_c, 1, 78, 0
2, 348840, Note_on_c, 1, 75, 66
2, 348935, Note_off_c, 1, 75, 0
2, 348960, Note_on_c, 1, 76, 66
2, 349440, Note_off_c, 1, 76, 0
2, 349440, Note_on_c, 1, 74, 67
2, 349665, Note_off_c, 1, 74, 0
2, 349680, Note_on_c, 1, 74, 68
2, 349800, Note_off_c, 1, 74, 0
2, 349800, Note_on_c, 1, 72, 68
2, 350150, Note_off_c, 1, 72, 0
2, 350160, Note_on_c, 1, 71, 69
2, 350375, Note_off_c, 1, 71, 0
2, 350400, Note_on_c, 1, 71, 70
2, 350640, Note_off_c, 1, 71, 0
2, 350640, Note_on_c, 1, 69, 70
2, 350880, Note_off_c, 1, 69, 0
2, 350880, Note_on_c, 1, 71, 71
2, 351105, Note_off_c, 1, 71, 0
2, 351120, Note_on_c, 1, 74, 71
2, 351240, Note_off_c, 1, 74, 0
2, 351240, Note_on_c, 1, 72, 72
2, 351590, Note_off_c, 1, 72, 0
2, 351600, Note_on_c, 1, 71, 73
2, 351815, Note_off_c, 1, 71, 0
2, 351840, Note_on_c, 1, 71, 73
2, 352080, Note_off_c, 1, 71, 0
2, 352080, Note_on_c, 1, 69, 74
2, 352320, Note_off_c, 1, 69, 0
2, 352320, Note_on_c, 1, 71, 74
2, 352535, Note_off_c, 1, 71, 0
2, 352560, Note_on_c, 1, 74, 75
2, 352680, Note_off_c, 1, 74, 0
2, 352680, Note_on_c, 1, 72, 75
2, 353030, Note_off_c, 1, 72, 0
2, 353040, Note_on_c, 1, 71, 76
2, 353255, Note_off_c, 1, 71, 0
2, 353280, Note_on_c, 1, 69, 77
2, 353435, Note_off_c, 1, 69, 0
2, 353520, Note_on_c, 1, 86, 77
2, 353675, Note_off_c, 1, 86, 0
2, 353760, Note_on_c, 1, 86, 75
2, 353915, Note_off_c, 1, 86, 0
2, 354000, Note_on_c, 1, 86, 73
2, 354155, Note_off_c, 1, 86, 0
2, 354720, Note_on_c, 1, 81, 38
2, 354960, Note_off_c, 1, 81, 0
2, 354960, Note_on_c, 1, 80, 39
2, 355200, Note_off_c, 1, 80, 0
2, 355200, Note_on_c, 1, 83, 40
2, 355440, Note_off_c, 1, 83, 0
2, 355440, Note_on_c, 1, 81, 41
2, 355680, Note_off_c, 1, 81, 0
2, 355680, Note_on_c, 1, 80, 42
2, 355920, Note_off_c, 1, 80, 0
2, 355920, Note_on_c, 1, 83, 44
2, 356115, Note_off_c, 1, 83, 0
2, 356160, Note_on_c, 1, 81, 45
2, 357800, Note_off_c, 1, 81, 0
2, 358080, Note_on_c, 1, 78, 43
2, 358200, Note_off_c, 1, 78, 0
2, 358200, Note_on_c, 1, 74, 43
2, 358320, Note_off_c, 1, 74, 0
2, 358320, Note_on_c, 1, 79, 44
2, 358440, Note_off_c, 1, 79, 0
2, 358800, Note_on_c, 1, 76, 44
2, 358920, Note_off_c, 1, 76, 0
2, 358920, Note_on_c, 1, 73, 44
2, 359040, Note_off_c, 1, 73, 0
2, 359040, Note_on_c, 1, 74, 45
2, 359160, Note_off_c, 1, 74, 0
2, 359520, Note_on_c, 1, 69, 45
2, 359640, Note_off_c, 1, 69, 0
2, 359640, Note_on_c, 1, 78, 46
2, 359760, Note_off_c, 1, 78, 0
2, 359760, Note_on_c, 1, 76, 46
2, 359880, Note_off_c, 1, 76, 0
2, 360000, Note_on_c, 1, 76, 46
2, 360120, Note_off_c, 1, 76, 0
2, 360120, Note_on_c, 1, 79, 46
2, 360240, Note_off_c, 1, 79, 0
2, 360240, Note_on_c, 1, 78, 46
2, 360360, Note_off_c, 1, 78, 0
2, 360360, Note_on_c, 1, 81, 47
2, 360455, Note_off_c, 1, 81, 0
2, 360480, Note_on_c, 1, 79, 47
2, 360720, Note_off_c, 1, 79, 0
2, 360720, Note_on_c, 1, 78, 45
2, 360960, Note_off_c, 1, 78, 0
2, 360960, Note_on_c, 1, 81, 47
2, 361200, Note_off_c, 1, 81, 0
2, 361200, Note_on_c, 1, 79, 48
2, 361440, Note_off_c, 1, 79, 0
2, 361440, Note_on_c, 1, 78, 50
2, 361680, Note_off_c, 1, 78, 0
2, 361680, Note_on_c, 1, 81, 51
2, 361885, Note_off_c, 1, 81, 0
2, 361920, Note_on_c, 1, 79, 53
2, 363560, Note_off_c, 1, 79, 0
2, 363840, Note_on_c, 1, 76, 52
2, 363960, Note_off_c, 1, 76, 0
2, 363960, Note_on_c, 1, 73, 52
2, 364080, Note_off_c, 1, 73, 0
2, 364080, Note_on_c, 1, 74, 52
2, 364200, Note_off_c, 1, 74, 0
2, 364560, Note_on_c, 1, 69, 53
2, 364680, Note_off_c, 1, 69, 0
2, 364680, Note_on_c, 1, 78, 53
2, 364800, Note_off_c, 1, 78, 0
2, 364800, Note_on_c, 1, 76, 53
2, 364920, Note_off_c, 1, 76, 0
2, 365280, Note_on_c, 1, 69, 54
2, 365400, Note_off_c, 1, 69, 0
2, 365400, Note_on_c, 1, 79, 54
2, 365520, Note_off_c, 1, 79, 0
2, 365520, Note_on_c, 1, 78, 54
2, 365640, Note_off_c, 1, 78, 0
2, 365760, Note_on_c, 1, 78, 62
2, 365880, Note_off_c, 1, 78, 0
2, 365880, Note_on_c, 1, 81, 62
2, 366000, Note_off_c, 1, 81, 0
2, 366000, Note_on_c, 1, 79, 62
2, 366120, Note_off_c, 1, 79, 0
2, 366120, Note_on_c, 1, 83, 62
2, 366215, Note_off_c, 1, 83, 0
2, 366240, Note_on_c, 1, 81, 62
2, 366480, Note_off_c, 1, 81, 0
2, 367680, Note_on_c, 1, 83, 65
2, 367920, Note_off_c, 1, 83, 0
2, 367920, Note_on_c, 1, 82, 65
2, 368160, Note_off_c, 1, 82, 0
2, 368160, Note_on_c, 1, 85, 65
2, 368400, Note_off_c, 1, 85, 0
2, 368400, Note_on_c, 1, 83, 66
2, 368590, Note_off_c, 1, 83, 0
2, 368760, Note_on_c, 1, 74, 66
2, 368880, Note_off_c, 1, 74, 0
2, 368880, Note_on_c, 1, 72, 67
2, 369000, Note_off_c, 1, 72, 0
2, 369000, Note_on_c, 1, 76, 67
2, 369120, Note_off_c, 1, 76, 0
2, 369120, Note_on_c, 1, 74, 67
2, 369310, Note_off_c, 1, 74, 0
2, 370560, Note_on_c, 1, 76, 69
2, 370800, Note_off_c, 1, 76, 0
2, 370800, Note_on_c, 1, 75, 70
2, 371040, Note_off_c, 1, 75, 0
2, 371040, Note_on_c, 1, 78, 70
2, 371280, Note_off_c, 1, 78, 0
2, 371280, Note_on_c, 1, 76, 70
2, 371470, Note_off_c, 1, 76, 0
2, 371520, Note_on_c, 1, 76, 71
2, 371640, Note_off_c, 1, 76, 0
2, 371640, Note_on_c, 1, 75, 71
2, 371760, Note_off_c, 1, 75, 0
2, 371760, Note_on_c, 1, 78, 71
2, 371880, Note_off_c, 1, 78, 0
2, 371880, Note_on_c, 1, 76, 71
2, 371975, Note_off_c, 1, 76, 0
2, 372000, Note_on_c, 1, 79, 55
2, 372120, Note_off_c, 1, 79, 0
2, 372120, Note_on_c, 1, 76, 59
2, 372240, Note_off_c, 1, 76, 0
2, 372240, Note_on_c, 1, 73, 62
2, 372360, Note_off_c, 1, 73, 0
2, 372360, Note_on_c, 1, 70, 66
2, 372480, Note_off_c, 1, 70, 0
2, 372480, Note_on_c, 1, 69, 78
2, 372635, Note_off_c, 1, 69, 0
2, 372720, Note_on_c, 1, 79, 59
2, 372840, Note_off_c, 1, 79, 0
2, 372840, Note_on_c, 1, 76, 61
2, 372960, Note_off_c, 1, 76, 0
2, 372960, Note_on_c, 1, 73, 64
2, 373080, Note_off_c, 1, 73, 0
2, 373080, Note_on_c, 1, 70, 66
2, 373200, Note_off_c, 1, 70, 0
2, 373200, Note_on_c, 1, 69, 77
2, 373355, Note_off_c, 1, 69, 0
2, 373440, Note_on_c, 1, 79, 58
2, 373560, Note_off_c, 1, 79, 0
2, 373560, Note_on_c, 1, 76, 62
2, 373680, Note_off_c, 1, 76, 0
2, 373680, Note_on_c, 1, 73, 65
2, 373800, Note_off_c, 1, 73, 0
2, 373800, Note_on_c, 1, 70, 68
2, 373920, Note_off_c, 1, 70, 0
2, 373920, Note_on_c, 1, 69, 80
2, 374080, Note_off_c, 1, 69, 0
2, 374160, Note_on_c, 1, 79, 60
2, 374280, Note_off_c, 1, 79, 0
2, 374280, Note_on_c, 1, 76, 63
2, 374400, Note_off_c, 1, 76, 0
2, 374400, Note_on_c, 1, 73, 67
2, 374520, Note_off_c, 1, 73, 0
2, 374520, Note_on_c, 1, 70, 70
2, 374640, Note_off_c, 1, 70, 0
2, 374640, Note_on_c, 1, 69, 80
2, 374800, Note_off_c, 1, 69, 0
2, 375360, Note_on_c, 1, 81, 82
2, 375515, Note_off_c, 1, 81, 0
2, 376080, Note_on_c, 1, 86, 81
2, 376235, Note_off_c, 1, 86, 0
2, 376320, Note_on_c, 1, 69, 77
2, 377040, Note_off_c, 1, 69, 0
2, 378240, Note_on_c, 1, 81, 51
2, 378395, Note_off_c, 1, 81, 0
2, 378480, Note_on_c, 1, 79, 51
2, 378720, Note_off_c, 1, 79, 0
2, 378720, Note_on_c, 1, 78, 50
2, 378875, Note_off_c, 1, 78, 0
2, 378960, Note_on_c, 1, 78, 50
2, 379115, Note_off_c, 1, 78, 0
2, 379200, Note_on_c, 1, 78, 50
2, 379355, Note_off_c, 1, 78, 0
2, 379680, Note_on_c, 1, 78, 49
2, 379835, Note_off_c, 1, 78, 0
2, 379920, Note_on_c, 1, 84, 48
2, 380160, Note_off_c, 1, 84, 0
2, 380160, Note_on_c, 1, 83, 48
2, 380315, Note_off_c, 1, 83, 0
2, 380400, Note_on_c, 1, 83, 48
2, 380555, Note_off_c, 1, 83, 0
2, 380640, Note_on_c, 1, 83, 47
2, 381120, Note_off_c, 1, 83, 0
2, 381120, Note_on_c, 1, 76, 46
2, 381310, Note_off_c, 1, 76, 0
2, 381360, Note_on_c, 1, 81, 46
2, 381840, Note_off_c, 1, 81, 0
2, 381840, Note_on_c, 1, 74, 45
2, 382030, Note_off_c, 1, 74, 0
2, 382080, Note_on_c, 1, 79, 45
2, 382235, Note_off_c, 1, 79, 0
2, 382560, Note_on_c, 1, 78, 44
2, 382715, Note_off_c, 1, 78, 0
2, 382800, Note_on_c, 1, 78, 44
2, 382860, Note_off_c, 1, 78, 0
2, 382860, Note_on_c, 1, 76, 43
2, 382920, Note_off_c, 1, 76, 0
2, 382920, Note_on_c, 1, 78, 43
2, 382980, Note_off_c, 1, 78, 0
2, 382980, Note_on_c, 1, 76, 43
2, 383040, Note_off_c, 1, 76, 0
2, 383040, Note_on_c, 1, 78, 43
2, 383100, Note_off_c, 1, 78, 0
2, 383100, Note_on_c, 1, 76, 43
2, 383160, Note_off_c, 1, 76, 0
2, 383160, Note_on_c, 1, 78, 43
2, 383220, Note_off_c, 1, 78, 0
2, 383220, Note_on_c, 1, 76, 43
2, 383280, Note_off_c, 1, 76, 0
2, 383280, Note_on_c, 1, 78, 43
2, 383340, Note_off_c, 1, 78, 0
2, 383340, Note_on_c, 1, 76, 43
2, 383400, Note_off_c, 1, 76, 0
2, 383400, Note_on_c, 1, 74, 43
2, 383460, Note_off_c, 1, 74, 0
2, 383460, Note_on_c, 1, 76, 42
2, 383520, Note_off_c, 1, 76, 0
2, 383520, Note_on_c, 1, 74, 42
2, 383710, Note_off_c, 1, 74, 0
2, 384720, Note_on_c, 1, 77, 40
2, 384875, Note_off_c, 1, 77, 0
2, 384960, Note_on_c, 1, 78, 40
2, 385115, Note_off_c, 1, 78, 0
2, 386160, Note_on_c, 1, 82, 38
2, 386315, Note_off_c, 1, 82, 0
2, 386640, Note_on_c, 1, 81, 37
2, 386880, Note_off_c, 1, 81, 0
2, 386880, Note_on_c, 1, 80, 37
2, 387070, Note_off_c, 1, 80, 0
2, 387360, Note_on_c, 1, 79, 36
2, 387600, Note_off_c, 1, 79, 0
2, 387600, Note_on_c, 1, 78, 36
2, 387790, Note_off_c, 1, 78, 0
2, 387840, Note_on_c, 1, 83, 35
2, 388030, Note_off_c, 1, 83, 0
2, 388560, Note_on_c, 1, 79, 34
2, 388765, Note_off_c, 1, 79, 0
2, 389280, Note_on_c, 1, 66, 50
2, 389400, Note_off_c, 1, 66, 0
2, 389400, Note_on_c, 1, 69, 52
2, 389520, Note_off_c, 1, 69, 0
2, 389520, Note_on_c, 1, 74, 54
2, 389640, Note_off_c, 1, 74, 0
2, 389640, Note_on_c, 1, 78, 57
2, 389760, Note_off_c, 1, 78, 0
2, 389760, Note_on_c, 1, 81, 69
2, 389920, Note_off_c, 1, 81, 0
2, 390000, Note_on_c, 1, 67, 53
2, 390120, Note_off_c, 1, 67, 0
2, 390120, Note_on_c, 1, 71, 55
2, 390240, Note_off_c, 1, 71, 0
2, 390240, Note_on_c, 1, 74, 57
2, 390360, Note_off_c, 1, 74, 0
2, 390360, Note_on_c, 1, 79, 59
2, 390480, Note_off_c, 1, 79, 0
2, 390480, Note_on_c, 1, 83, 70
2, 390640, Note_off_c, 1, 83, 0
2, 391200, Note_on_c, 1, 86, 73
2, 391355, Note_off_c, 1, 86, 0
2, 391920, Note_on_c, 1, 86, 76
2, 392075, Note_off_c, 1, 86, 0
2, 392280, Note_on_c, 1, 86, 71
2, 392400, Note_off_c, 1, 86, 0
2, 392520, Note_on_c, 1, 86, 72
2, 392640, Note_off_c, 1, 86, 0
2, 392760, Note_on_c, 1, 86, 72
2, 392880, Note_off_c, 1, 86, 0
2, 393000, Note_on_c, 1, 86, 73
2, 393120, Note_off_c, 1, 86, 0
2, 393240, Note_on_c, 1, 86, 73
2, 393360, Note_off_c, 1, 86, 0
2, 393480, Note_on_c, 1, 86, 74
2, 393600, Note_off_c, 1, 86, 0
2, 393720, Note_on_c, 1, 85, 75
2, 393840, Note_off_c, 1, 85, 0
2, 393960, Note_on_c, 1, 85, 75
2, 394080, Note_off_c, 1, 85, 0
2, 394200, Note_on_c, 1, 85, 76
2, 394320, Note_off_c, 1, 85, 0
2, 394440, Note_on_c, 1, 85, 76
2, 394560, Note_off_c, 1, 85, 0
2, 394680, Note_on_c, 1, 85, 77
2, 394800, Note_off_c, 1, 85, 0
2, 394920, Note_on_c, 1, 85, 77
2, 395040, Note_off_c, 1, 85, 0
2, 395040, Note_on_c, 1, 86, 78
2, 395230, Note_off_c, 1, 86, 0
2, 395520, Note_on_c, 1, 66, 54
2, 395675, Note_off_c, 1, 66, 0
2, 395760, Note_on_c, 1, 67, 55
2, 395915, Note_off_c, 1, 67, 0
2, 396000, Note_on_c, 1, 68, 56
2, 396155, Note_off_c, 1, 68, 0
2, 396240, Note_on_c, 1, 69, 57
2, 396395, Note_off_c, 1, 69, 0
2, 396480, Note_on_c, 1, 70, 64
2, 396635, Note_off_c, 1, 70, 0
2, 396720, Note_on_c, 1, 71, 60
2, 396875, Note_off_c, 1, 71, 0
2, 396960, Note_on_c, 1, 68, 61
2, 397200, Note_off_c, 1, 68, 0
2, 397200, Note_on_c, 1, 69, 62
2, 397355, Note_off_c, 1, 69, 0
2, 397680, Note_on_c, 1, 69, 64
2, 397835, Note_off_c, 1, 69, 0
2, 397920, Note_on_c, 1, 62, 65
2, 398075, Note_off_c, 1, 62, 0
2, 398400, Note_on_c, 1, 85, 86
2, 398555, Note_off_c, 1, 85, 0
2, 398640, Note_on_c, 1, 86, 86
2, 398795, Note_off_c, 1, 86, 0
2, 399360, Control_c, 1, 64, 0
2, 399600, Note_on_c, 1, 62, 38
2, 399755, Note_off_c, 1, 62, 0
2, 399840, Note_on_c, 1, 62, 40
2, 399995, Note_off_c, 1, 62, 0
2, 400080, Note_on_c, 1, 62, 42
2, 400560, Note_off_c, 1, 62, 0
2, 400560, Note_on_c, 1, 65, 39
2, 400750, Note_off_c, 1, 65, 0
2, 401040, Note_on_c, 1, 62, 40
2, 401195, Note_off_c, 1, 62, 0
2, 401280, Note_on_c, 1, 62, 43
2, 401435, Note_off_c, 1, 62, 0
2, 401520, Note_on_c, 1, 62, 45
2, 402000, Note_off_c, 1, 62, 0
2, 402000, Note_on_c, 1, 69, 41
2, 402190, Note_off_c, 1, 69, 0
2, 402240, Control_c, 1, 64, 127
2, 402480, Note_on_c, 1, 86, 54
2, 402600, Note_off_c, 1, 86, 0
2, 402600, Note_on_c, 1, 89, 54
2, 402720, Note_off_c, 1, 89, 0
2, 402720, Note_on_c, 1, 83, 55
2, 402840, Note_off_c, 1, 83, 0
2, 402840, Note_on_c, 1, 86, 55
2, 402960, Note_off_c, 1, 86, 0
2, 402960, Note_on_c, 1, 80, 55
2, 403080, Note_off_c, 1, 80, 0
2, 403080, Note_on_c, 1, 83, 56
2, 403200, Note_off_c, 1, 83, 0
2, 403200, Note_on_c, 1, 77, 56
2, 403320, Note_off_c, 1, 77, 0
2, 403320, Note_on_c, 1, 80, 56
2, 403440, Note_off_c, 1, 80, 0
2, 403440, Note_on_c, 1, 74, 57
2, 403560, Note_off_c, 1, 74, 0
2, 403560, Note_on_c, 1, 77, 57
2, 403680, Note_off_c, 1, 77, 0
2, 403680, Note_on_c, 1, 71, 57
2, 403800, Note_off_c, 1, 71, 0
2, 403800, Note_on_c, 1, 74, 58
2, 403920, Note_off_c, 1, 74, 0
2, 403920, Note_on_c, 1, 68, 58
2, 404040, Note_off_c, 1, 68, 0
2, 404040, Note_on_c, 1, 71, 58
2, 404160, Note_off_c, 1, 71, 0
2, 404160, Note_on_c, 1, 65, 59
2, 404280, Note_off_c, 1, 65, 0
2, 404280, Note_on_c, 1, 68, 59
2, 404400, Note_off_c, 1, 68, 0
2, 404400, Note_on_c, 1, 62, 59
2, 404520, Note_off_c, 1, 62, 0
2, 404520, Note_on_c, 1, 65, 60
2, 404640, Note_off_c, 1, 65, 0
2, 404640, Note_on_c, 1, 59, 60
2, 404760, Note_off_c, 1, 59, 0
2, 404760, Note_on_c, 1, 62, 60
2, 404880, Note_off_c, 1, 62, 0
2, 404880, Note_on_c, 1, 56, 61
2, 405000, Note_off_c, 1, 56, 0
2, 405000, Note_on_c, 1, 59, 61
2, 405060, Control_c, 1, 64, 0
2, 405120, Note_off_c, 1, 59, 0
2, 405360, Note_on_c, 1, 64, 45
2, 405515, Note_off_c, 1, 64, 0
2, 405600, Note_on_c, 1, 64, 47
2, 405755, Note_off_c, 1, 64, 0
2, 405840, Note_on_c, 1, 64, 51
2, 406320, Note_off_c, 1, 64, 0
2, 406320, Note_on_c, 1, 69, 46
2, 406510, Note_off_c, 1, 69, 0
2, 406800, Note_on_c, 1, 69, 47
2, 406955, Note_off_c, 1, 69, 0
2, 407040, Note_on_c, 1, 69, 48
2, 407195, Note_off_c, 1, 69, 0
2, 407280, Note_on_c, 1, 69, 52
2, 407760, Note_off_c, 1, 69, 0
2, 407760, Note_on_c, 1, 76, 48
2, 407950, Note_off_c, 1, 76, 0
2, 408060, Control_c, 1, 64, 127
2, 408240, Note_on_c, 1, 81, 64
2, 408360, Note_off_c, 1, 81, 0
2, 408360, Note_on_c, 1, 84, 64
2, 408480, Note_off_c, 1, 84, 0
2, 408480, Note_on_c, 1, 78, 64
2, 408600, Note_off_c, 1, 78, 0
2, 408600, Note_on_c, 1, 81, 64
2, 408720, Note_off_c, 1, 81, 0
2, 408720, Note_on_c, 1, 75, 64
2, 408840, Note_off_c, 1, 75, 0
2, 408840, Note_on_c, 1, 78, 64
2, 408960, Note_off_c, 1, 78, 0
2, 408960, Note_on_c, 1, 72, 64
2, 409080, Note_off_c, 1, 72, 0
2, 409080, Note_on_c, 1, 75, 65
2, 409200, Note_off_c, 1, 75, 0
2, 409200, Note_on_c, 1, 69, 65
2, 409320, Control_c, 1, 64, 0
2, 409320, Note_off_c, 1, 69, 0
2, 409320, Note_on_c, 1, 72, 65
2, 409440, Control_c, 1, 64, 127
2, 409440, Note_off_c, 1, 72, 0
2, 409680, Note_on_c, 1, 79, 65
2, 409800, Note_off_c, 1, 79, 0
2, 409800, Note_on_c, 1, 83, 65
2, 409920, Note_off_c, 1, 83, 0
2, 409920, Note_on_c, 1, 76, 66
2, 410040, Note_off_c, 1, 76, 0
2, 410040, Note_on_c, 1, 79, 66
2, 410160, Note_off_c, 1, 79, 0
2, 410160, Note_on_c, 1, 71, 66
2, 410280, Note_off_c, 1, 71, 0
2, 410280, Note_on_c, 1, 76, 66
2, 410400, Note_off_c, 1, 76, 0
2, 410400, Note_on_c, 1, 67, 66
2, 410520, Note_off_c, 1, 67, 0
2, 410520, Note_on_c, 1, 71, 66
2, 410640, Note_off_c, 1, 71, 0
2, 410640, Note_on_c, 1, 64, 66
2, 410760, Note_off_c, 1, 64, 0
2, 410760, Note_on_c, 1, 67, 67
2, 410820, Control_c, 1, 64, 0
2, 410880, Note_off_c, 1, 67, 0
2, 410940, Control_c, 1, 64, 127
2, 411120, Note_on_c, 1, 82, 67
2, 411240, Note_off_c, 1, 82, 0
2, 411240, Note_on_c, 1, 88, 67
2, 411360, Note_off_c, 1, 88, 0
2, 411360, Note_on_c, 1, 79, 67
2, 411480, Note_off_c, 1, 79, 0
2, 411480, Note_on_c, 1, 82, 67
2, 411600, Note_off_c, 1, 82, 0
2, 411600, Note_on_c, 1, 76, 68
2, 411720, Note_off_c, 1, 76, 0
2, 411720, Note_on_c, 1, 79, 68
2, 411840, Note_off_c, 1, 79, 0
2, 411840, Note_on_c, 1, 72, 68
2, 411960, Note_off_c, 1, 72, 0
2, 411960, Note_on_c, 1, 76, 68
2, 412080, Note_off_c, 1, 76, 0
2, 412080, Note_on_c, 1, 70, 68
2, 412200, Note_off_c, 1, 70, 0
2, 412200, Note_on_c, 1, 72, 68
2, 412320, Note_off_c, 1, 72, 0
2, 412320, Note_on_c, 1, 67, 68
2, 412440, Note_off_c, 1, 67, 0
2, 412440, Note_on_c, 1, 70, 69
2, 412560, Note_off_c, 1, 70, 0
2, 412560, Note_on_c, 1, 64, 69
2, 412680, Note_off_c, 1, 64, 0
2, 412680, Note_on_c, 1, 67, 69
2, 412800, Note_off_c, 1, 67, 0
2, 412800, Note_on_c, 1, 60, 69
2, 412920, Note_off_c, 1, 60, 0
2, 412920, Note_on_c, 1, 64, 69
2, 413040, Control_c, 1, 64, 0
2, 413040, Note_off_c, 1, 64, 0
2, 413040, Note_on_c, 1, 58, 69
2, 413160, Note_off_c, 1, 58, 0
2, 413160, Note_on_c, 1, 67, 69
2, 413280, Note_off_c, 1, 67, 0
2, 413280, Note_on_c, 1, 66, 70
2, 413400, Note_off_c, 1, 66, 0
2, 413400, Note_on_c, 1, 67, 70
2, 413520, Note_off_c, 1, 67, 0
2, 413520, Note_on_c, 1, 66, 70
2, 413640, Note_off_c, 1, 66, 0
2, 413640, Note_on_c, 1, 64, 70
2, 413700, Control_c, 1, 64, 0
2, 413760, Note_off_c, 1, 64, 0
2, 413760, Note_on_c, 1, 63, 70
2, 413950, Note_off_c, 1, 63, 0
2, 414240, Note_on_c, 1, 71, 71
2, 414430, Note_off_c, 1, 71, 0
2, 414480, Note_on_c, 1, 72, 71
2, 414670, Note_off_c, 1, 72, 0
2, 414960, Note_on_c, 1, 73, 72
2, 415150, Note_off_c, 1, 73, 0
2, 415200, Note_on_c, 1, 74, 72
2, 415390, Note_off_c, 1, 74, 0
2, 415680, Note_on_c, 1, 75, 72
2, 415870, Note_off_c, 1, 75, 0
2, 415920, Note_on_c, 1, 76, 73
2, 416110, Note_off_c, 1, 76, 0
2, 416400, Note_on_c, 1, 79, 73
2, 416590, Note_off_c, 1, 79, 0
2, 416640, Note_on_c, 1, 78, 74
2, 416791, Note_off_c, 1, 78, 0
2, 417120, Note_on_c, 1, 71, 74
2, 417271, Note_off_c, 1, 71, 0
2, 417360, Note_on_c, 1, 72, 74
2, 417511, Note_off_c, 1, 72, 0
2, 417840, Note_on_c, 1, 73, 75
2, 417991, Note_off_c, 1, 73, 0
2, 418080, Note_on_c, 1, 74, 75
2, 418231, Note_off_c, 1, 74, 0
2, 418560, Note_on_c, 1, 75, 76
2, 418711, Note_off_c, 1, 75, 0
2, 418800, Note_on_c, 1, 76, 76
2, 418951, Note_off_c, 1, 76, 0
2, 419280, Note_on_c, 1, 79, 77
2, 419431, Note_off_c, 1, 79, 0
2, 419520, Note_on_c, 1, 78, 77
2, 419671, Note_off_c, 1, 78, 0
2, 420000, Note_on_c, 1, 82, 78
2, 420095, Note_off_c, 1, 82, 0
2, 420240, Note_on_c, 1, 84, 61
2, 420360, Note_off_c, 1, 84, 0
2, 420360, Note_on_c, 1, 81, 64
2, 420480, Note_off_c, 1, 81, 0
2, 420480, Note_on_c, 1, 78, 67
2, 420600, Note_off_c, 1, 78, 0
2, 420600, Note_on_c, 1, 76, 70
2, 420720, Note_off_c, 1, 76, 0
2, 420720, Note_on_c, 1, 75, 82
2, 420880, Note_off_c, 1, 75, 0
2, 420960, Note_on_c, 1, 84, 64
2, 421080, Note_off_c, 1, 84, 0
2, 421080, Note_on_c, 1, 81, 66
2, 421200, Note_off_c, 1, 81, 0
2, 421200, Note_on_c, 1, 78, 69
2, 421320, Note_off_c, 1, 78, 0
2, 421320, Note_on_c, 1, 76, 72
2, 421440, Note_off_c, 1, 76, 0
2, 421440, Note_on_c, 1, 75, 82
2, 421600, Note_off_c, 1, 75, 0
2, 421680, Note_on_c, 1, 79, 65
2, 421800, Note_off_c, 1, 79, 0
2, 421800, Note_on_c, 1, 76, 67
2, 421920, Note_off_c, 1, 76, 0
2, 421920, Note_on_c, 1, 72, 69
2, 422040, Note_off_c, 1, 72, 0
2, 422040, Note_on_c, 1, 71, 71
2, 422160, Note_off_c, 1, 71, 0
2, 422160, Note_on_c, 1, 70, 84
2, 422320, Note_off_c, 1, 70, 0
2, 422400, Note_on_c, 1, 79, 64
2, 422520, Note_off_c, 1, 79, 0
2, 422520, Note_on_c, 1, 76, 66
2, 422640, Note_off_c, 1, 76, 0
2, 422640, Note_on_c, 1, 72, 68
2, 422760, Note_off_c, 1, 72, 0
2, 422760, Note_on_c, 1, 71, 70
2, 422880, Note_off_c, 1, 71, 0
2, 422880, Note_on_c, 1, 70, 84
2, 423040, Note_off_c, 1, 70, 0
2, 423120, Note_on_c, 1, 71, 81
2, 423840, Note_off_c, 1, 71, 0
2, 425040, Note_on_c, 1, 67, 58
2, 425195, Note_off_c, 1, 67, 0
2, 425280, Note_on_c, 1, 68, 59
2, 425435, Note_off_c, 1, 68, 0
2, 425520, Note_on_c, 1, 69, 59
2, 425675, Note_off_c, 1, 69, 0
2, 425760, Note_on_c, 1, 70, 60
2, 425915, Note_off_c, 1, 70, 0
2, 426000, Note_on_c, 1, 71, 66
2, 426240, Note_off_c, 1, 71, 0
2, 426240, Note_on_c, 1, 72, 60
2, 426395, Note_off_c, 1, 72, 0
2, 426480, Note_on_c, 1, 70, 61
2, 426720, Note_off_c, 1, 70, 0
2, 426720, Note_on_c, 1, 71, 61
2, 426875, Note_off_c, 1, 71, 0
2, 427200, Note_on_c, 1, 71, 62
2, 427355, Note_off_c, 1, 71, 0
2, 427440, Note_on_c, 1, 64, 62
2, 427595, Note_off_c, 1, 64, 0
2, 427920, Note_on_c, 1, 87, 80
2, 428075, Note_off_c, 1, 87, 0
2, 428160, Note_on_c, 1, 88, 81
2, 428315, Note_off_c, 1, 88, 0
2, 429360, Note_on_c, 1, 85, 82
2, 429515, Note_off_c, 1, 85, 0
2, 429600, Note_on_c, 1, 86, 83
2, 429755, Note_off_c, 1, 86, 0
2, 430800, Note_on_c, 1, 83, 91
2, 430955, Note_off_c, 1, 83, 0
2, 431040, Note_on_c, 1, 84, 92
2, 431195, Note_off_c, 1, 84, 0
2, 431520, Note_on_c, 1, 75, 36
2, 431760, Note_off_c, 1, 75, 0
2, 431760, Note_on_c, 1, 76, 38
2, 432000, Note_off_c, 1, 76, 0
2, 432000, Note_on_c, 1, 71, 39
2, 432240, Note_off_c, 1, 71, 0
2, 432240, Note_on_c, 1, 72, 41
2, 432480, Note_off_c, 1, 72, 0
2, 432480, Note_on_c, 1, 68, 42
2, 432720, Note_off_c, 1, 68, 0
2, 432720, Note_on_c, 1, 69, 44
2, 432960, Note_off_c, 1, 69, 0
2, 432960, Note_on_c, 1, 64, 45
2, 433165, Note_off_c, 1, 64, 0
2, 433200, Note_on_c, 1, 67, 50
2, 433920, Note_off_c, 1, 67, 0
2, 433920, Note_on_c, 1, 66, 44
2, 434110, Note_off_c, 1, 66, 0
2, 434400, Note_on_c, 1, 78, 42
2, 434640, Note_off_c, 1, 78, 0
2, 434640, Note_on_c, 1, 79, 44
2, 434880, Note_off_c, 1, 79, 0
2, 434880, Note_on_c, 1, 75, 45
2, 435120, Note_off_c, 1, 75, 0
2, 435120, Note_on_c, 1, 76, 46
2, 435360, Note_off_c, 1, 76, 0
2, 435360, Note_on_c, 1, 71, 47
2, 435600, Note_off_c, 1, 71, 0
2, 435600, Note_on_c, 1, 72, 49
2, 435840, Note_off_c, 1, 72, 0
2, 435840, Note_on_c, 1, 67, 50
2, 436050, Note_off_c, 1, 67, 0
2, 436080, Note_on_c, 1, 71, 56
2, 436800, Note_off_c, 1, 71, 0
2, 436800, Note_on_c, 1, 69, 48
2, 436990, Note_off_c, 1, 69, 0
2, 439200, Note_on_c, 1, 79, 53
2, 439440, Note_off_c, 1, 79, 0
2, 439440, Note_on_c, 1, 80, 53
2, 439680, Note_off_c, 1, 80, 0
2, 439680, Note_on_c, 1, 81, 54
2, 439870, Note_off_c, 1, 81, 0
2, 439920, Note_on_c, 1, 76, 54
2, 440160, Note_off_c, 1, 76, 0
2, 440160, Note_on_c, 1, 79, 55
2, 440400, Note_off_c, 1, 79, 0
2, 440400, Note_on_c, 1, 78, 55
2, 440590, Note_off_c, 1, 78, 0
2, 440640, Note_on_c, 1, 74, 62
2, 440880, Note_off_c, 1, 74, 0
2, 440880, Note_on_c, 1, 73, 63
2, 441120, Note_off_c, 1, 73, 0
2, 441120, Note_on_c, 1, 74, 63
2, 441360, Note_off_c, 1, 74, 0
2, 441360, Note_on_c, 1, 73, 64
2, 441600, Note_off_c, 1, 73, 0
2, 441600, Note_on_c, 1, 74, 64
2, 441800, Note_off_c, 1, 74, 0
2, 441840, Note_on_c, 1, 69, 65
2, 442560, Note_off_c, 1, 69, 0
2, 443280, Note_on_c, 1, 69, 62
2, 443470, Note_off_c, 1, 69, 0
2, 443520, Note_on_c, 1, 81, 68
2, 443760, Note_off_c, 1, 81, 0
2, 443760, Note_on_c, 1, 80, 69
2, 444000, Note_off_c, 1, 80, 0
2, 444000, Note_on_c, 1, 81, 69
2, 444240, Note_off_c, 1, 81, 0
2, 444240, Note_on_c, 1, 80, 70
2, 444480, Note_off_c, 1, 80, 0
2, 444480, Note_on_c, 1, 81, 70
2, 444685, Note_off_c, 1, 81, 0
2, 444720, Note_on_c, 1, 79, 71
2, 445200, Note_off_c, 1, 79, 0
2, 445200, Note_on_c, 1, 82, 71
2, 445390, Note_off_c, 1, 82, 0
2, 446160, Note_on_c, 1, 74, 66
2, 446280, Note_off_c, 1, 74, 0
2, 446280, Note_on_c, 1, 75, 73
2, 446400, Note_off_c, 1, 75, 0
2, 446400, Note_on_c, 1, 76, 71
2, 446520, Note_off_c, 1, 76, 0
2, 446520, Note_on_c, 1, 77, 70
2, 446640, Note_off_c, 1, 77, 0
2, 446640, Note_on_c, 1, 78, 68
2, 446760, Note_off_c, 1, 78, 0
2, 446760, Note_on_c, 1, 79, 67
2, 446880, Note_off_c, 1, 79, 0
2, 446880, Note_on_c, 1, 80, 66
2, 447000, Note_off_c, 1, 80, 0
2, 447000, Note_on_c, 1, 81, 64
2, 447120, Note_off_c, 1, 81, 0
2, 447120, Note_on_c, 1, 82, 63
2, 447240, Note_off_c, 1, 82, 0
2, 447240, Note_on_c, 1, 83, 60
2, 447360, Note_off_c, 1, 83, 0
2, 447360, Note_on_c, 1, 84, 57
2, 447480, Note_off_c, 1, 84, 0
2, 447480, Note_on_c, 1, 85, 54
2, 447600, Note_off_c, 1, 85, 0
2, 447600, Note_on_c, 1, 86, 51
2, 448080, Note_off_c, 1, 86, 0
2, 449040, Control_c, 1, 64, 0
2, 449040, Note_on_c, 1, 71, 36
2, 449425, Note_off_c, 1, 71, 0
2, 449520, Note_on_c, 1, 74, 36
2, 449580, Note_off_c, 1, 74, 0
2, 449580, Note_on_c, 1, 72, 37
2, 449640, Note_off_c, 1, 72, 0
2, 449640, Note_on_c, 1, 71, 37
2, 449700, Note_off_c, 1, 71, 0
2, 449700, Note_on_c, 1, 72, 38
2, 449760, Note_off_c, 1, 72, 0
2, 449760, Note_on_c, 1, 74, 38
2, 449950, Note_off_c, 1, 74, 0
2, 450240, Note_on_c, 1, 74, 41
2, 450430, Note_off_c, 1, 74, 0
2, 450480, Note_on_c, 1, 79, 43
2, 450960, Note_off_c, 1, 79, 0
2, 450960, Note_on_c, 1, 78, 42
2, 451150, Note_off_c, 1, 78, 0
2, 451200, Note_on_c, 1, 78, 41
2, 451320, Note_off_c, 1, 78, 0
2, 451320, Note_on_c, 1, 76, 40
2, 451655, Note_off_c, 1, 76, 0
2, 451680, Note_on_c, 1, 74, 39
2, 451870, Note_off_c, 1, 74, 0
2, 451920, Note_on_c, 1, 71, 40
2, 452305, Note_off_c, 1, 71, 0
2, 452400, Note_on_c, 1, 74, 43
2, 452460, Note_off_c, 1, 74, 0
2, 452460, Note_on_c, 1, 72, 43
2, 452520, Note_off_c, 1, 72, 0
2, 452520, Note_on_c, 1, 71, 43
2, 452580, Note_off_c, 1, 71, 0
2, 452580, Note_on_c, 1, 72, 43
2, 452640, Note_off_c, 1, 72, 0
2, 452640, Note_on_c, 1, 74, 44
2, 452830, Note_off_c, 1, 74, 0
2, 453120, Note_on_c, 1, 74, 46
2, 453310, Note_off_c, 1, 74, 0
2, 453360, Note_on_c, 1, 76, 47
2, 453840, Note_off_c, 1, 76, 0
2, 453840, Note_on_c, 1, 74, 45
2, 454030, Note_off_c, 1, 74, 0
2, 454080, Note_on_c, 1, 74, 44
2, 454200, Note_off_c, 1, 74, 0
2, 454200, Note_on_c, 1, 72, 44
2, 454530, Note_off_c, 1, 72, 0
2, 454560, Note_on_c, 1, 71, 42
2, 454750, Note_off_c, 1, 71, 0
2, 454800, Note_on_c, 1, 62, 58
2, 455160, Note_off_c, 1, 62, 0
2, 455520, Note_on_c, 1, 64, 60
2, 455880, Note_off_c, 1, 64, 0
2, 456240, Note_on_c, 1, 66, 62
2, 456600, Note_off_c, 1, 66, 0
2, 456960, Note_on_c, 1, 67, 63
2, 457320, Note_off_c, 1, 67, 0
2, 457680, Note_on_c, 1, 74, 65
2, 457870, Note_off_c, 1, 74, 0
2, 458160, Note_on_c, 1, 84, 67
2, 458350, Note_off_c, 1, 84, 0
2, 458400, Note_on_c, 1, 83, 67
2, 458590, Note_off_c, 1, 83, 0
2, 458880, Note_on_c, 1, 74, 68
2, 459070, Note_off_c, 1, 74, 0
2, 459120, Note_on_c, 1, 72, 69
2, 459310, Note_off_c, 1, 72, 0
2, 459600, Note_on_c, 1, 78, 70
2, 459790, Note_off_c, 1, 78, 0
2, 459840, Note_on_c, 1, 79, 71
2, 460030, Note_off_c, 1, 79, 0
2, 460320, Note_on_c, 1, 71, 72
2, 460510, Note_off_c, 1, 71, 0
2, 460560, Note_on_c, 1, 69, 73
2, 460680, Note_off_c, 1, 69, 0
2, 460680, Note_on_c, 1, 68, 66
2, 460800, Note_off_c, 1, 68, 0
2, 460800, Note_on_c, 1, 71, 68
2, 460920, Note_off_c, 1, 71, 0
2, 460920, Note_on_c, 1, 69, 69
2, 461040, Note_off_c, 1, 69, 0
2, 461040, Note_on_c, 1, 72, 71
2, 461160, Note_off_c, 1, 72, 0
2, 461160, Note_on_c, 1, 71, 72
2, 461280, Note_off_c, 1, 71, 0
2, 461280, Note_on_c, 1, 74, 74
2, 461400, Note_off_c, 1, 74, 0
2, 461400, Note_on_c, 1, 72, 75
2, 461495, Note_off_c, 1, 72, 0
2, 461520, Note_on_c, 1, 76, 77
2, 462210, Note_off_c, 1, 76, 0
2, 462240, Note_on_c, 1, 72, 68
2, 462937, Note_off_c, 1, 72, 0
2, 462960, Note_on_c, 1, 71, 62
2, 463650, Note_off_c, 1, 71, 0
2, 463680, Note_on_c, 1, 69, 56
2, 464370, Note_off_c, 1, 69, 0
2, 464400, Note_on_c, 1, 67, 50
2, 465075, Note_off_c, 1, 67, 0
2, 465120, Note_on_c, 1, 66, 44
2, 465830, Note_off_c, 1, 66, 0
2, 465840, Note_on_c, 1, 67, 43
2, 466030, Note_off_c, 1, 67, 0
2, 466080, Note_on_c, 1, 69, 47
2, 466270, Note_off_c, 1, 69, 0
2, 466320, Note_on_c, 1, 71, 52
2, 466895, Note_off_c, 1, 71, 0
2, 467040, Note_on_c, 1, 64, 54
2, 467160, Note_off_c, 1, 64, 0
2, 467160, Note_on_c, 1, 67, 54
2, 467280, Note_off_c, 1, 67, 0
2, 467280, Note_on_c, 1, 72, 54
2, 467400, Note_off_c, 1, 72, 0
2, 467400, Note_on_c, 1, 67, 54
2, 467520, Note_off_c, 1, 67, 0
2, 467520, Note_on_c, 1, 76, 55
2, 467640, Note_off_c, 1, 76, 0
2, 467640, Note_on_c, 1, 72, 55
2, 467735, Note_off_c, 1, 72, 0
2, 467760, Note_on_c, 1, 78, 60
2, 468335, Note_off_c, 1, 78, 0
2, 468480, Note_on_c, 1, 79, 57
2, 468600, Note_off_c, 1, 79, 0
2, 468600, Note_on_c, 1, 83, 57
2, 468720, Note_off_c, 1, 83, 0
2, 468720, Note_on_c, 1, 79, 58
2, 468840, Note_off_c, 1, 79, 0
2, 468840, Note_on_c, 1, 74, 58
2, 468960, Note_off_c, 1, 74, 0
2, 468960, Note_on_c, 1, 71, 58
2, 469080, Note_off_c, 1, 71, 0
2, 469080, Note_on_c, 1, 67, 59
2, 469175, Note_off_c, 1, 67, 0
2, 469200, Note_on_c, 1, 71, 63
2, 469775, Note_off_c, 1, 71, 0
2, 469920, Note_on_c, 1, 64, 61
2, 470040, Note_off_c, 1, 64, 0
2, 470040, Note_on_c, 1, 67, 61
2, 470160, Note_off_c, 1, 67, 0
2, 470160, Note_on_c, 1, 72, 61
2, 470280, Note_off_c, 1, 72, 0
2, 470280, Note_on_c, 1, 67, 62
2, 470400, Note_off_c, 1, 67, 0
2, 470400, Note_on_c, 1, 76, 62
2, 470520, Note_off_c, 1, 76, 0
2, 470520, Note_on_c, 1, 72, 62
2, 470615, Note_off_c, 1, 72, 0
2, 470640, Note_on_c, 1, 78, 68
2, 471215, Note_off_c, 1, 78, 0
2, 471360, Note_on_c, 1, 79, 64
2, 471480, Note_off_c, 1, 79, 0
2, 471480, Note_on_c, 1, 81, 65
2, 471600, Note_off_c, 1, 81, 0
2, 471600, Note_on_c, 1, 83, 65
2, 471720, Note_off_c, 1, 83, 0
2, 471720, Note_on_c, 1, 79, 65
2, 471840, Note_off_c, 1, 79, 0
2, 471840, Note_on_c, 1, 78, 65
2, 471960, Note_off_c, 1, 78, 0
2, 471960, Note_on_c, 1, 75, 66
2, 472055, Note_off_c, 1, 75, 0
2, 472080, Note_on_c, 1, 76, 70
2, 472560, Note_off_c, 1, 76, 0
2, 472560, Note_on_c, 1, 74, 67
2, 472785, Note_off_c, 1, 74, 0
2, 472800, Note_on_c, 1, 74, 68
2, 472920, Note_off_c, 1, 74, 0
2, 472920, Note_on_c, 1, 72, 68
2, 473270, Note_off_c, 1, 72, 0
2, 473280, Note_on_c, 1, 71, 69
2, 473495, Note_off_c, 1, 71, 0
2, 473520, Note_on_c, 1, 71, 70
2, 473760, Note_off_c, 1, 71, 0
2, 473760, Note_on_c, 1, 69, 70
2, 474000, Note_off_c, 1, 69, 0
2, 474000, Note_on_c, 1, 71, 71
2, 474225, Note_off_c, 1, 71, 0
2, 474240, Note_on_c, 1, 74, 71
2, 474360, Note_off_c, 1, 74, 0
2, 474360, Note_on_c, 1, 72, 72
2, 474710, Note_off_c, 1, 72, 0
2, 474720, Note_on_c, 1, 71, 73
2, 474935, Note_off_c, 1, 71, 0
2, 474960, Note_on_c, 1, 71, 73
2, 475200, Note_off_c, 1, 71, 0
2, 475200, Note_on_c, 1, 69, 74
2, 475440, Note_off_c, 1, 69, 0
2, 475440, Note_on_c, 1, 71, 74
2, 475655, Note_off_c, 1, 71, 0
2, 475680, Note_on_c, 1, 74, 75
2, 475800, Note_off_c, 1, 74, 0
2, 475800, Note_on_c, 1, 72, 75
2, 476150, Note_off_c, 1, 72, 0
2, 476160, Note_on_c, 1, 71, 76
2, 476375, Note_off_c, 1, 71, 0
2, 476400, Note_on_c, 1, 69, 77
2, 476555, Note_off_c, 1, 69, 0
2, 476640, Note_on_c, 1, 86, 77
2, 476795, Note_off_c, 1, 86, 0
2, 476880, Note_on_c, 1, 86, 75
2, 477035, Note_off_c, 1, 86, 0
2, 477120, Note_on_c, 1, 86, 73
2, 477275, Note_off_c, 1, 86, 0
2, 477840, Note_on_c, 1, 86, 36
2, 478080, Note_off_c, 1, 86, 0
2, 478080, Note_on_c, 1, 85, 37
2, 478320, Note_off_c, 1, 85, 0
2, 478320, Note_on_c, 1, 88, 39
2, 478560, Note_off_c, 1, 88, 0
2, 478560, Note_on_c, 1, 86, 40
2, 478800, Note_off_c, 1, 86, 0
2, 478800, Note_on_c, 1, 85, 42
2, 479040, Note_off_c, 1, 85, 0
2, 479040, Note_on_c, 1, 88, 43
2, 479235, Note_off_c, 1, 88, 0
2, 479280, Note_on_c, 1, 86, 45
2, 480920, Note_off_c, 1, 86, 0
2, 481200, Note_on_c, 1, 83, 43
2, 481320, Note_off_c, 1, 83, 0
2, 481320, Note_on_c, 1, 79, 43
2, 481440, Note_off_c, 1, 79, 0
2, 481440, Note_on_c, 1, 84, 44
2, 481560, Note_off_c, 1, 84, 0
2, 481920, Note_on_c, 1, 81, 44
2, 482040, Note_off_c, 1, 81, 0
2, 482040, Note_on_c, 1, 78, 44
2, 482160, Note_off_c, 1, 78, 0
2, 482160, Note_on_c, 1, 79, 45
2, 482280, Note_off_c, 1, 79, 0
2, 482640, Note_on_c, 1, 74, 45
2, 482760, Note_off_c, 1, 74, 0
2, 482760, Note_on_c, 1, 83, 46
2, 482880, Note_off_c, 1, 83, 0
2, 482880, Note_on_c, 1, 81, 46
2, 483000, Note_off_c, 1, 81, 0
2, 483120, Note_on_c, 1, 81, 46
2, 483240, Note_off_c, 1, 81, 0
2, 483240, Note_on_c, 1, 84, 46
2, 483360, Note_off_c, 1, 84, 0
2, 483360, Note_on_c, 1, 83, 46
2, 483480, Note_off_c, 1, 83, 0
2, 483480, Note_on_c, 1, 86, 47
2, 483575, Note_off_c, 1, 86, 0
2, 483600, Note_on_c, 1, 84, 47
2, 483840, Note_off_c, 1, 84, 0
2, 483840, Note_on_c, 1, 83, 45
2, 484080, Note_off_c, 1, 83, 0
2, 484080, Note_on_c, 1, 86, 47
2, 484320, Note_off_c, 1, 86, 0
2, 484320, Note_on_c, 1, 84, 48
2, 484560, Note_off_c, 1, 84, 0
2, 484560, Note_on_c, 1, 83, 50
2, 484800, Note_off_c, 1, 83, 0
2, 484800, Note_on_c, 1, 86, 51
2, 485005, Note_off_c, 1, 86, 0
2, 485040, Note_on_c, 1, 84, 53
2, 486680, Note_off_c, 1, 84, 0
2, 486960, Note_on_c, 1, 81, 52
2, 487080, Note_off_c, 1, 81, 0
2, 487080, Note_on_c, 1, 78, 52
2, 487200, Note_off_c, 1, 78, 0
2, 487200, Note_on_c, 1, 79, 52
2, 487320, Note_off_c, 1, 79, 0
2, 487680, Note_on_c, 1, 74, 53
2, 487800, Note_off_c, 1, 74, 0
2, 487800, Note_on_c, 1, 83, 53
2, 487920, Note_off_c, 1, 83, 0
2, 487920, Note_on_c, 1, 81, 53
2, 488040, Note_off_c, 1, 81, 0
2, 488400, Note_on_c, 1, 74, 54
2, 488520, Note_off_c, 1, 74, 0
2, 488520, Note_on_c, 1, 84, 54
2, 488640, Note_off_c, 1, 84, 0
2, 488640, Note_on_c, 1, 83, 54
2, 488760, Note_off_c, 1, 83, 0
2, 488880, Note_on_c, 1, 83, 62
2, 489000, Note_off_c, 1, 83, 0
2, 489000, Note_on_c, 1, 86, 62
2, 489120, Note_off_c, 1, 86, 0
2, 489120, Note_on_c, 1, 84, 62
2, 489240, Note_off_c, 1, 84, 0
2, 489240, Note_on_c, 1, 88, 62
2, 489335, Note_off_c, 1, 88, 0
2, 489360, Note_on_c, 1, 86, 62
2, 489600, Note_off_c, 1, 86, 0
2, 490800, Note_on_c, 1, 76, 65
2, 491040, Note_off_c, 1, 76, 0
2, 491040, Note_on_c, 1, 75, 65
2, 491280, Note_off_c, 1, 75, 0
2, 491280, Note_on_c, 1, 78, 65
2, 491520, Note_off_c, 1, 78, 0
2, 491520, Note_on_c, 1, 76, 66
2, 491710, Note_off_c, 1, 76, 0
2, 491760, Note_on_c, 1, 64, 66
2, 491880, Note_off_c, 1, 64, 0
2, 491880, Note_on_c, 1, 67, 66
2, 492000, Note_off_c, 1, 67, 0
2, 492000, Note_on_c, 1, 65, 67
2, 492120, Note_off_c, 1, 65, 0
2, 492120, Note_on_c, 1, 69, 67
2, 492240, Note_off_c, 1, 69, 0
2, 492240, Note_on_c, 1, 67, 67
2, 492430, Note_off_c, 1, 67, 0
2, 493200, Note_on_c, 1, 60, 69
2, 493320, Note_off_c, 1, 60, 0
2, 493320, Note_on_c, 1, 64, 69
2, 493440, Note_off_c, 1, 64, 0
2, 493440, Note_on_c, 1, 62, 69
2, 493560, Note_off_c, 1, 62, 0
2, 493560, Note_on_c, 1, 65, 69
2, 493680, Note_off_c, 1, 65, 0
2, 493680, Note_on_c, 1, 81, 69
2, 493920, Note_off_c, 1, 81, 0
2, 493920, Note_on_c, 1, 80, 70
2, 494160, Note_off_c, 1, 80, 0
2, 494160, Note_on_c, 1, 83, 70
2, 494400, Note_off_c, 1, 83, 0
2, 494400, Note_on_c, 1, 81, 70
2, 494590, Note_off_c, 1, 81, 0
2, 494640, Note_on_c, 1, 81, 71
2, 494760, Note_off_c, 1, 81, 0
2, 494760, Note_on_c, 1, 80, 71
2, 494880, Note_off_c, 1, 80, 0
2, 494880, Note_on_c, 1, 83, 71
2, 495000, Note_off_c, 1, 83, 0
2, 495000, Note_on_c, 1, 81, 71
2, 495095, Note_off_c, 1, 81, 0
2, 495120, Note_on_c, 1, 84, 55
2, 495240, Note_off_c, 1, 84, 0
2, 495240, Note_on_c, 1, 81, 59
2, 495360, Note_off_c, 1, 81, 0
2, 495360, Note_on_c, 1, 78, 62
2, 495480, Note_off_c, 1, 78, 0
2, 495480, Note_on_c, 1, 75, 66
2, 495600, Note_off_c, 1, 75, 0
2, 495600, Note_on_c, 1, 74, 78
2, 495755, Note_off_c, 1, 74, 0
2, 495840, Note_on_c, 1, 84, 59
2, 495960, Note_off_c, 1, 84, 0
2, 495960, Note_on_c, 1, 81, 61
2, 496080, Note_off_c, 1, 81, 0
2, 496080, Note_on_c, 1, 78, 64
2, 496200, Note_off_c, 1, 78, 0
2, 496200, Note_on_c, 1, 75, 66
2, 496320, Note_off_c, 1, 75, 0
2, 496320, Note_on_c, 1, 74, 77
2, 496475, Note_off_c, 1, 74, 0
2, 496560, Note_on_c, 1, 84, 58
2, 496680, Note_off_c, 1, 84, 0
2, 496680, Note_on_c, 1, 81, 62
2, 496800, Note_off_c, 1, 81, 0
2, 496800, Note_on_c, 1, 78, 65
2, 496920, Note_off_c, 1, 78, 0
2, 496920, Note_on_c, 1, 75, 68
2, 497040, Note_off_c, 1, 75, 0
2, 497040, Note_on_c, 1, 74, 80
2, 497200, Note_off_c, 1, 74, 0
2, 497280, Note_on_c, 1, 84, 60
2, 497400, Note_off_c, 1, 84, 0
2, 497400, Note_on_c, 1, 81, 63
2, 497520, Note_off_c, 1, 81, 0
2, 497520, Note_on_c, 1, 78, 67
2, 497640, Note_off_c, 1, 78, 0
2, 497640, Note_on_c, 1, 75, 70
2, 497760, Note_off_c, 1, 75, 0
2, 497760, Note_on_c, 1, 74, 80
2, 497920, Note_off_c, 1, 74, 0
2, 498480, Note_on_c, 1, 86, 82
2, 498635, Note_off_c, 1, 86, 0
2, 499200, Note_on_c, 1, 91, 81
2, 499355, Note_off_c, 1, 91, 0
2, 499440, Note_on_c, 1, 74, 77
2, 500160, Note_off_c, 1, 74, 0
2, 501360, Note_on_c, 1, 86, 51
2, 501515, Note_off_c, 1, 86, 0
2, 501600, Note_on_c, 1, 84, 51
2, 501840, Note_off_c, 1, 84, 0
2, 501840, Note_on_c, 1, 83, 50
2, 501995, Note_off_c, 1, 83, 0
2, 502080, Note_on_c, 1, 83, 50
2, 502235, Note_off_c, 1, 83, 0
2, 502320, Note_on_c, 1, 83, 50
2, 502475, Note_off_c, 1, 83, 0
2, 502800, Note_on_c, 1, 83, 49
2, 502955, Note_off_c, 1, 83, 0
2, 503040, Note_on_c, 1, 89, 48
2, 503280, Note_off_c, 1, 89, 0
2, 503280, Note_on_c, 1, 88, 48
2, 503435, Note_off_c, 1, 88, 0
2, 503520, Note_on_c, 1, 88, 48
2, 503675, Note_off_c, 1, 88, 0
2, 503760, Note_on_c, 1, 88, 47
2, 504240, Note_off_c, 1, 88, 0
2, 504240, Note_on_c, 1, 81, 46
2, 504430, Note_off_c, 1, 81, 0
2, 504480, Note_on_c, 1, 86, 46
2, 504960, Note_off_c, 1, 86, 0
2, 504960, Note_on_c, 1, 79, 45
2, 505150, Note_off_c, 1, 79, 0
2, 505200, Note_on_c, 1, 84, 45
2, 505355, Note_off_c, 1, 84, 0
2, 505680, Note_on_c, 1, 83, 44
2, 505835, Note_off_c, 1, 83, 0
2, 505920, Note_on_c, 1, 83, 44
2, 505980, Note_off_c, 1, 83, 0
2, 505980, Note_on_c, 1, 81, 43
2, 506040, Note_off_c, 1, 81, 0
2, 506040, Note_on_c, 1, 83, 43
2, 506100, Note_off_c, 1, 83, 0
2, 506100, Note_on_c, 1, 81, 42
2, 506160, Note_off_c, 1, 81, 0
2, 506160, Note_on_c, 1, 83, 42
2, 506220, Note_off_c, 1, 83, 0
2, 506220, Note_on_c, 1, 81, 41
2, 506280, Note_off_c, 1, 81, 0
2, 506280, Note_on_c, 1, 83, 41
2, 506340, Note_off_c, 1, 83, 0
2, 506340, Note_on_c, 1, 81, 41
2, 506400, Note_off_c, 1, 81, 0
2, 506400, Note_on_c, 1, 83, 40
2, 506460, Note_off_c, 1, 83, 0
2, 506460, Note_on_c, 1, 81, 40
2, 506520, Note_off_c, 1, 81, 0
2, 506520, Note_on_c, 1, 79, 39
2, 506580, Note_off_c, 1, 79, 0
2, 506580, Note_on_c, 1, 81, 39
2, 506640, Note_off_c, 1, 81, 0
2, 506640, Note_on_c, 1, 79, 39
2, 506830, Note_off_c, 1, 79, 0
2, 507840, Note_on_c, 1, 76, 40
2, 507995, Note_off_c, 1, 76, 0
2, 508080, Note_on_c, 1, 75, 40
2, 508236, Note_off_c, 1, 75, 0
2, 509280, Note_on_c, 1, 75, 38
2, 509435, Note_off_c, 1, 75, 0
2, 509760, Note_on_c, 1, 74, 37
2, 510000, Note_off_c, 1, 74, 0
2, 510000, Note_on_c, 1, 73, 37
2, 510190, Note_off_c, 1, 73, 0
2, 510480, Note_on_c, 1, 72, 36
2, 510720, Note_off_c, 1, 72, 0
2, 510720, Note_on_c, 1, 71, 36
2, 510910, Note_off_c, 1, 71, 0
2, 510960, Note_on_c, 1, 76, 35
2, 511150, Note_off_c, 1, 76, 0
2, 511680, Note_on_c, 1, 72, 34
2, 511885, Note_off_c, 1, 72, 0
2, 512400, Note_on_c, 1, 71, 50
2, 512520, Note_off_c, 1, 71, 0
2, 512520, Note_on_c, 1, 74, 52
2, 512640, Note_off_c, 1, 74, 0
2, 512640, Note_on_c, 1, 79, 54
2, 512760, Note_off_c, 1, 79, 0
2, 512760, Note_on_c, 1, 83, 57
2, 512880, Note_off_c, 1, 83, 0
2, 512880, Note_on_c, 1, 86, 69
2, 513040, Note_off_c, 1, 86, 0
2, 513120, Note_on_c, 1, 72, 53
2, 513240, Note_off_c, 1, 72, 0
2, 513240, Note_on_c, 1, 76, 55
2, 513360, Note_off_c, 1, 76, 0
2, 513360, Note_on_c, 1, 79, 57
2, 513480, Note_off_c, 1, 79, 0
2, 513480, Note_on_c, 1, 84, 59
2, 513600, Note_off_c, 1, 84, 0
2, 513600, Note_on_c, 1, 88, 70
2, 513760, Note_off_c, 1, 88, 0
2, 514320, Note_on_c, 1, 86, 73
2, 514475, Note_off_c, 1, 86, 0
2, 515040, Note_on_c, 1, 84, 76
2, 515195, Note_off_c, 1, 84, 0
2, 515400, Note_on_c, 1, 83, 71
2, 515520, Note_off_c, 1, 83, 0
2, 515640, Note_on_c, 1, 83, 72
2, 515760, Note_off_c, 1, 83, 0
2, 515880, Note_on_c, 1, 83, 72
2, 516000, Note_off_c, 1, 83, 0
2, 516120, Note_on_c, 1, 83, 73
2, 516240, Note_off_c, 1, 83, 0
2, 516360, Note_on_c, 1, 83, 73
2, 516480, Note_off_c, 1, 83, 0
2, 516600, Note_on_c, 1, 83, 74
2, 516720, Note_off_c, 1, 83, 0
2, 516840, Note_on_c, 1, 81, 75
2, 516960, Note_off_c, 1, 81, 0
2, 517080, Note_on_c, 1, 81, 75
2, 517200, Note_off_c, 1, 81, 0
2, 517320, Note_on_c, 1, 81, 76
2, 517440, Note_off_c, 1, 81, 0
2, 517560, Note_on_c, 1, 81, 76
2, 517680, Note_off_c, 1, 81, 0
2, 517800, Note_on_c, 1, 81, 77
2, 517920, Note_off_c, 1, 81, 0
2, 518040, Note_on_c, 1, 81, 77
2, 518160, Note_off_c, 1, 81, 0
2, 518160, Note_on_c, 1, 79, 78
2, 518350, Note_off_c, 1, 79, 0
2, 518640, Note_on_c, 1, 71, 54
2, 518795, Note_off_c, 1, 71, 0
2, 518880, Note_on_c, 1, 72, 55
2, 519035, Note_off_c, 1, 72, 0
2, 519120, Note_on_c, 1, 73, 56
2, 519275, Note_off_c, 1, 73, 0
2, 519360, Note_on_c, 1, 74, 57
2, 519515, Note_off_c, 1, 74, 0
2, 519600, Note_on_c, 1, 75, 66
2, 519755, Note_off_c, 1, 75, 0
2, 519840, Note_on_c, 1, 76, 60
2, 519995, Note_off_c, 1, 76, 0
2, 520080, Note_on_c, 1, 73, 61
2, 520320, Note_off_c, 1, 73, 0
2, 520320, Note_on_c, 1, 74, 62
2, 520475, Note_off_c, 1, 74, 0
2, 520800, Note_on_c, 1, 74, 64
2, 520955, Note_off_c, 1, 74, 0
2, 521040, Note_on_c, 1, 67, 65
2, 521195, Note_off_c, 1, 67, 0
2, 521520, Note_on_c, 1, 90, 86
2, 521675, Note_off_c, 1, 90, 0
2, 521760, Note_on_c, 1, 91, 91
2, 521915, Note_off_c, 1, 91, 0
2, 522480, Control_c, 1, 64, 127
2, 522760, Note_on_c, 1, 78, 95
2, 523000, Note_off_c, 1, 78, 0
2, 523200, Control_c, 1, 64, 0
2, 523920, Control_c, 1, 64, 127
2, 524160, Note_on_c, 1, 79, 95
2, 524400, Note_off_c, 1, 79, 0
2, 524640, Control_c, 1, 64, 0
2, 524640, End_track
3, 0, Start_track
3, 0, Title_t, "Unnamed Track"
3, 0, Control_c, 2, 0, 0
3, 0, Control_c, 2, 32, 0
3, 0, Program_c, 2, 0
3, 0, Control_c, 2, 10, 73
3, 0, Control_c, 2, 91, 100
3, 0, Control_c, 2, 93, 28
3, 0, Control_c, 2, 64, 0
3, 0, Pitch_bend_c, 2, 8192
3, 0, Control_c, 2, 93, 18
3, 0, Pitch_bend_c, 2, 8192
3, 0, Control_c, 2, 1, 0
3, 0, Control_c, 2, 1, 0
3, 0, Pitch_bend_c, 2, 8192
3, 0, Control_c, 2, 7, 122
3, 45600, Note_on_c, 2, 76, 73
3, 45840, Note_off_c, 2, 76, 0
3, 45840, Note_on_c, 2, 74, 64
3, 46000, Note_off_c, 2, 74, 0
3, 47040, Note_on_c, 2, 79, 75
3, 47280, Note_off_c, 2, 79, 0
3, 47280, Note_on_c, 2, 78, 66
3, 47435, Note_off_c, 2, 78, 0
3, 48480, Note_on_c, 2, 83, 77
3, 48720, Note_off_c, 2, 83, 0
3, 48720, Note_on_c, 2, 81, 66
3, 48875, Note_off_c, 2, 81, 0
3, 48960, Note_on_c, 2, 81, 78
3, 49200, Note_off_c, 2, 81, 0
3, 49200, Note_on_c, 2, 79, 68
3, 49355, Note_off_c, 2, 79, 0
3, 49440, Note_on_c, 2, 77, 81
3, 49680, Note_off_c, 2, 77, 0
3, 49680, Note_on_c, 2, 76, 68
3, 49835, Note_off_c, 2, 76, 0
3, 49920, Note_on_c, 2, 75, 81
3, 50160, Note_off_c, 2, 75, 0
3, 50160, Note_on_c, 2, 74, 70
3, 50315, Note_off_c, 2, 74, 0
3, 55680, Note_on_c, 2, 83, 86
3, 55920, Note_off_c, 2, 83, 0
3, 55920, Note_on_c, 2, 81, 70
3, 56075, Note_off_c, 2, 81, 0
3, 56160, Note_on_c, 2, 81, 86
3, 56400, Note_off_c, 2, 81, 0
3, 56400, Note_on_c, 2, 79, 72
3, 56555, Note_off_c, 2, 79, 0
3, 56640, Note_on_c, 2, 77, 88
3, 56880, Note_off_c, 2, 77, 0
3, 56880, Note_on_c, 2, 76, 73
3, 57035, Note_off_c, 2, 76, 0
3, 57120, Note_on_c, 2, 75, 91
3, 57360, Note_off_c, 2, 75, 0
3, 57360, Note_on_c, 2, 74, 74
3, 57515, Note_off_c, 2, 74, 0
3, 64800, Note_on_c, 2, 78, 46
3, 65280, Note_off_c, 2, 78, 0
3, 65280, Note_on_c, 2, 76, 48
3, 65760, Note_off_c, 2, 76, 0
3, 65760, Note_on_c, 2, 74, 50
3, 66240, Note_off_c, 2, 74, 0
3, 66240, Note_on_c, 2, 73, 53
3, 66720, Note_off_c, 2, 73, 0
3, 66720, Note_on_c, 2, 71, 55
3, 67200, Note_off_c, 2, 71, 0
3, 67200, Note_on_c, 2, 69, 57
3, 67635, Note_off_c, 2, 69, 0
3, 67680, Note_on_c, 2, 71, 61
3, 68105, Note_off_c, 2, 71, 0
3, 68400, Note_on_c, 2, 71, 54
3, 68520, Note_off_c, 2, 71, 0
3, 68640, Note_on_c, 2, 67, 51
3, 68760, Note_off_c, 2, 67, 0
3, 68880, Note_on_c, 2, 64, 47
3, 69000, Note_off_c, 2, 64, 0
3, 69240, Note_on_c, 2, 80, 64
3, 69360, Note_off_c, 2, 80, 0
3, 69360, Note_on_c, 2, 82, 65
3, 69480, Note_off_c, 2, 82, 0
3, 69480, Note_on_c, 2, 83, 65
3, 69575, Note_off_c, 2, 83, 0
3, 69720, Note_on_c, 2, 83, 66
3, 69840, Note_off_c, 2, 83, 0
3, 69840, Note_on_c, 2, 80, 67
3, 69960, Note_off_c, 2, 80, 0
3, 69960, Note_on_c, 2, 81, 67
3, 70055, Note_off_c, 2, 81, 0
3, 70200, Note_on_c, 2, 76, 68
3, 70320, Note_off_c, 2, 76, 0
3, 70320, Note_on_c, 2, 78, 69
3, 70440, Note_off_c, 2, 78, 0
3, 70440, Note_on_c, 2, 79, 69
3, 70535, Note_off_c, 2, 79, 0
3, 70680, Note_on_c, 2, 79, 71
3, 70800, Note_off_c, 2, 79, 0
3, 70800, Note_on_c, 2, 77, 71
3, 70920, Note_off_c, 2, 77, 0
3, 70920, Note_on_c, 2, 78, 72
3, 71015, Note_off_c, 2, 78, 0
3, 71160, Note_on_c, 2, 73, 73
3, 71280, Note_off_c, 2, 73, 0
3, 71280, Note_on_c, 2, 75, 73
3, 71400, Note_off_c, 2, 75, 0
3, 71400, Note_on_c, 2, 76, 74
3, 71495, Note_off_c, 2, 76, 0
3, 71640, Note_on_c, 2, 76, 75
3, 71760, Note_off_c, 2, 76, 0
3, 71760, Note_on_c, 2, 73, 75
3, 71880, Note_off_c, 2, 73, 0
3, 71880, Note_on_c, 2, 74, 76
3, 71975, Note_off_c, 2, 74, 0
3, 74160, Note_on_c, 2, 69, 68
3, 74160, Note_on_c, 2, 66, 68
3, 74280, Note_off_c, 2, 66, 0
3, 74280, Note_off_c, 2, 69, 0
3, 74400, Note_on_c, 2, 67, 66
3, 74400, Note_on_c, 2, 62, 66
3, 74520, Note_off_c, 2, 62, 0
3, 74520, Note_off_c, 2, 67, 0
3, 74640, Note_on_c, 2, 67, 63
3, 74640, Note_on_c, 2, 64, 63
3, 74760, Note_off_c, 2, 64, 0
3, 74760, Note_off_c, 2, 67, 0
3, 74880, Note_on_c, 2, 69, 61
3, 74880, Note_on_c, 2, 66, 61
3, 75360, Note_off_c, 2, 66, 0
3, 75360, Note_off_c, 2, 69, 0
3, 75600, Note_on_c, 2, 81, 59
3, 75600, Note_on_c, 2, 78, 59
3, 75720, Note_off_c, 2, 78, 0
3, 75720, Note_off_c, 2, 81, 0
3, 75840, Note_on_c, 2, 74, 57
3, 75840, Note_on_c, 2, 79, 57
3, 75960, Note_off_c, 2, 79, 0
3, 75960, Note_off_c, 2, 74, 0
3, 76080, Note_on_c, 2, 79, 53
3, 76080, Note_on_c, 2, 76, 53
3, 76200, Note_off_c, 2, 76, 0
3, 76200, Note_off_c, 2, 79, 0
3, 76320, Note_on_c, 2, 81, 49
3, 76320, Note_on_c, 2, 78, 49
3, 76800, Note_off_c, 2, 78, 0
3, 76800, Note_off_c, 2, 81, 0
3, 90720, Note_on_c, 2, 79, 65
3, 90840, Note_off_c, 2, 79, 0
3, 90960, Note_on_c, 2, 78, 66
3, 91080, Note_off_c, 2, 78, 0
3, 91200, Note_on_c, 2, 76, 66
3, 91320, Note_off_c, 2, 76, 0
3, 91440, Note_on_c, 2, 74, 66
3, 91560, Note_off_c, 2, 74, 0
3, 91680, Note_on_c, 2, 72, 66
3, 91800, Note_off_c, 2, 72, 0
3, 91920, Note_on_c, 2, 71, 67
3, 92040, Note_off_c, 2, 71, 0
3, 92160, Note_on_c, 2, 69, 76
3, 92640, Note_off_c, 2, 69, 0
3, 93600, Note_on_c, 2, 78, 69
3, 93720, Note_off_c, 2, 78, 0
3, 93840, Note_on_c, 2, 76, 69
3, 93960, Note_off_c, 2, 76, 0
3, 94080, Note_on_c, 2, 74, 69
3, 94200, Note_off_c, 2, 74, 0
3, 94320, Note_on_c, 2, 72, 69
3, 94440, Note_off_c, 2, 72, 0
3, 94560, Note_on_c, 2, 71, 70
3, 94680, Note_off_c, 2, 71, 0
3, 94800, Note_on_c, 2, 69, 70
3, 94920, Note_off_c, 2, 69, 0
3, 95040, Note_on_c, 2, 67, 82
3, 95520, Note_off_c, 2, 67, 0
3, 96480, Note_on_c, 2, 71, 72
3, 96600, Note_off_c, 2, 71, 0
3, 96720, Note_on_c, 2, 69, 72
3, 96840, Note_off_c, 2, 69, 0
3, 96960, Note_on_c, 2, 72, 73
3, 97080, Note_off_c, 2, 72, 0
3, 97200, Note_on_c, 2, 71, 73
3, 97320, Note_off_c, 2, 71, 0
3, 97440, Note_on_c, 2, 69, 73
3, 97560, Note_off_c, 2, 69, 0
3, 97680, Note_on_c, 2, 67, 73
3, 97800, Note_off_c, 2, 67, 0
3, 97920, Note_on_c, 2, 66, 84
3, 98400, Note_off_c, 2, 66, 0
3, 142080, Note_on_c, 2, 69, 68
3, 142320, Note_off_c, 2, 69, 0
3, 142320, Note_on_c, 2, 67, 60
3, 142475, Note_off_c, 2, 67, 0
3, 143520, Note_on_c, 2, 72, 70
3, 143760, Note_off_c, 2, 72, 0
3, 143760, Note_on_c, 2, 71, 64
3, 143915, Note_off_c, 2, 71, 0
3, 144960, Note_on_c, 2, 76, 69
3, 145200, Note_off_c, 2, 76, 0
3, 145200, Note_on_c, 2, 74, 60
3, 145355, Note_off_c, 2, 74, 0
3, 145440, Note_on_c, 2, 74, 70
3, 145680, Note_off_c, 2, 74, 0
3, 145680, Note_on_c, 2, 72, 61
3, 145835, Note_off_c, 2, 72, 0
3, 145920, Note_on_c, 2, 70, 72
3, 146160, Note_off_c, 2, 70, 0
3, 146160, Note_on_c, 2, 69, 62
3, 146315, Note_off_c, 2, 69, 0
3, 146400, Note_on_c, 2, 68, 74
3, 146640, Note_off_c, 2, 68, 0
3, 146640, Note_on_c, 2, 67, 63
3, 146795, Note_off_c, 2, 67, 0
3, 152160, Note_on_c, 2, 76, 82
3, 152400, Note_off_c, 2, 76, 0
3, 152400, Note_on_c, 2, 74, 71
3, 152555, Note_off_c, 2, 74, 0
3, 152640, Note_on_c, 2, 74, 83
3, 152880, Note_off_c, 2, 74, 0
3, 152880, Note_on_c, 2, 72, 70
3, 153035, Note_off_c, 2, 72, 0
3, 153120, Note_on_c, 2, 70, 84
3, 153360, Note_off_c, 2, 70, 0
3, 153360, Note_on_c, 2, 69, 70
3, 153515, Note_off_c, 2, 69, 0
3, 153600, Note_on_c, 2, 68, 84
3, 153840, Note_off_c, 2, 68, 0
3, 153840, Note_on_c, 2, 67, 71
3, 153995, Note_off_c, 2, 67, 0
3, 161280, Note_on_c, 2, 71, 54
3, 161760, Note_off_c, 2, 71, 0
3, 161760, Note_on_c, 2, 69, 55
3, 162240, Note_off_c, 2, 69, 0
3, 162240, Note_on_c, 2, 67, 56
3, 162720, Note_off_c, 2, 67, 0
3, 162720, Note_on_c, 2, 66, 56
3, 163200, Note_off_c, 2, 66, 0
3, 163200, Note_on_c, 2, 64, 57
3, 163680, Note_off_c, 2, 64, 0
3, 163680, Note_on_c, 2, 62, 58
3, 164100, Note_off_c, 2, 62, 0
3, 164160, Note_on_c, 2, 64, 61
3, 164585, Note_off_c, 2, 64, 0
3, 164880, Note_on_c, 2, 69, 56
3, 165000, Note_off_c, 2, 69, 0
3, 165120, Note_on_c, 2, 67, 54
3, 165240, Note_off_c, 2, 67, 0
3, 165360, Note_on_c, 2, 66, 52
3, 165480, Note_off_c, 2, 66, 0
3, 165720, Note_on_c, 2, 85, 73
3, 165840, Note_off_c, 2, 85, 0
3, 165840, Note_on_c, 2, 87, 73
3, 165960, Note_off_c, 2, 87, 0
3, 165960, Note_on_c, 2, 88, 74
3, 166055, Note_off_c, 2, 88, 0
3, 166200, Note_on_c, 2, 88, 75
3, 166320, Note_off_c, 2, 88, 0
3, 166320, Note_on_c, 2, 85, 75
3, 166440, Note_off_c, 2, 85, 0
3, 166440, Note_on_c, 2, 86, 76
3, 166535, Note_off_c, 2, 86, 0
3, 166680, Note_on_c, 2, 81, 77
3, 166800, Note_off_c, 2, 81, 0
3, 166800, Note_on_c, 2, 83, 78
3, 166920, Note_off_c, 2, 83, 0
3, 166920, Note_on_c, 2, 84, 78
3, 167015, Note_off_c, 2, 84, 0
3, 167160, Note_on_c, 2, 84, 79
3, 167280, Note_off_c, 2, 84, 0
3, 167280, Note_on_c, 2, 82, 80
3, 167400, Note_off_c, 2, 82, 0
3, 167400, Note_on_c, 2, 83, 80
3, 167495, Note_off_c, 2, 83, 0
3, 167640, Note_on_c, 2, 78, 81
3, 167760, Note_off_c, 2, 78, 0
3, 167760, Note_on_c, 2, 80, 82
3, 167880, Note_off_c, 2, 80, 0
3, 167880, Note_on_c, 2, 81, 83
3, 167975, Note_off_c, 2, 81, 0
3, 168120, Note_on_c, 2, 81, 84
3, 168240, Note_off_c, 2, 81, 0
3, 168240, Note_on_c, 2, 78, 84
3, 168360, Note_off_c, 2, 78, 0
3, 168360, Note_on_c, 2, 79, 85
3, 168455, Note_off_c, 2, 79, 0
3, 170640, Note_on_c, 2, 65, 73
3, 170640, Note_on_c, 2, 62, 73
3, 170760, Note_off_c, 2, 62, 0
3, 170760, Note_off_c, 2, 65, 0
3, 170880, Note_on_c, 2, 67, 70
3, 170880, Note_on_c, 2, 64, 70
3, 171000, Note_off_c, 2, 64, 0
3, 171000, Note_off_c, 2, 67, 0
3, 171120, Note_on_c, 2, 69, 68
3, 171120, Note_on_c, 2, 66, 68
3, 171240, Note_off_c, 2, 66, 0
3, 171240, Note_off_c, 2, 69, 0
3, 171360, Note_on_c, 2, 67, 66
3, 171840, Note_off_c, 2, 67, 0
3, 172080, Note_on_c, 2, 74, 63
3, 172080, Note_on_c, 2, 71, 63
3, 172200, Note_off_c, 2, 71, 0
3, 172200, Note_off_c, 2, 74, 0
3, 172320, Note_on_c, 2, 72, 60
3, 172440, Note_off_c, 2, 72, 0
3, 172560, Note_on_c, 2, 72, 57
3, 172560, Note_on_c, 2, 69, 57
3, 172680, Note_off_c, 2, 69, 0
3, 172680, Note_off_c, 2, 72, 0
3, 172800, Note_on_c, 2, 71, 53
3, 172800, Note_on_c, 2, 67, 53
3, 173280, Note_off_c, 2, 67, 0
3, 173280, Note_off_c, 2, 71, 0
3, 174240, Control_c, 2, 64, 0
3, 187200, Note_on_c, 2, 65, 64
3, 187585, Note_off_c, 2, 65, 0
3, 187680, Note_on_c, 2, 62, 62
3, 187680, Note_on_c, 2, 65, 62
3, 188640, Note_off_c, 2, 65, 0
3, 188640, Note_off_c, 2, 62, 0
3, 188640, Note_on_c, 2, 64, 51
3, 189000, Note_off_c, 2, 64, 0
3, 195840, Note_on_c, 2, 74, 56
3, 195880, Note_on_c, 2, 72, 55
3, 195900, Note_off_c, 2, 74, 0
3, 195920, Note_on_c, 2, 74, 55
3, 195940, Note_off_c, 2, 72, 0
3, 195960, Note_on_c, 2, 72, 55
3, 195980, Note_off_c, 2, 74, 0
3, 196000, Note_on_c, 2, 74, 54
3, 196020, Note_off_c, 2, 72, 0
3, 196040, Note_on_c, 2, 72, 54
3, 196060, Note_off_c, 2, 74, 0
3, 196080, Note_on_c, 2, 74, 54
3, 196100, Note_off_c, 2, 72, 0
3, 196140, Note_off_c, 2, 74, 0
3, 196140, Note_on_c, 2, 72, 53
3, 196200, Note_off_c, 2, 72, 0
3, 196200, Note_on_c, 2, 71, 53
3, 196260, Note_off_c, 2, 71, 0
3, 196260, Note_on_c, 2, 72, 52
3, 196320, Note_off_c, 2, 72, 0
3, 196320, Note_on_c, 2, 71, 52
3, 196800, Note_off_c, 2, 71, 0
3, 203040, Note_on_c, 2, 79, 50
3, 204000, Note_off_c, 2, 79, 0
3, 204000, Note_on_c, 2, 78, 45
3, 204480, Note_off_c, 2, 78, 0
3, 245520, Note_on_c, 2, 76, 45
3, 245760, Note_off_c, 2, 76, 0
3, 245760, Note_on_c, 2, 75, 46
3, 246000, Note_off_c, 2, 75, 0
3, 246000, Note_on_c, 2, 76, 47
3, 246240, Note_off_c, 2, 76, 0
3, 246240, Note_on_c, 2, 74, 48
3, 246480, Note_off_c, 2, 74, 0
3, 246480, Note_on_c, 2, 72, 49
3, 246720, Note_off_c, 2, 72, 0
3, 246720, Note_on_c, 2, 71, 49
3, 246960, Note_off_c, 2, 71, 0
3, 246960, Note_on_c, 2, 69, 50
3, 247160, Note_off_c, 2, 69, 0
3, 247440, Note_on_c, 2, 74, 51
3, 247680, Note_off_c, 2, 74, 0
3, 247680, Note_on_c, 2, 73, 50
3, 247920, Note_off_c, 2, 73, 0
3, 247920, Note_on_c, 2, 74, 48
3, 248160, Note_off_c, 2, 74, 0
3, 248160, Note_on_c, 2, 72, 47
3, 248400, Note_off_c, 2, 72, 0
3, 248400, Note_on_c, 2, 71, 45
3, 248640, Note_off_c, 2, 71, 0
3, 248640, Note_on_c, 2, 69, 44
3, 248880, Note_off_c, 2, 69, 0
3, 248880, Note_on_c, 2, 68, 43
3, 249075, Note_off_c, 2, 68, 0
3, 252960, Note_on_c, 2, 74, 53
3, 253000, Note_on_c, 2, 72, 53
3, 253020, Note_off_c, 2, 74, 0
3, 253040, Note_on_c, 2, 74, 53
3, 253060, Note_off_c, 2, 72, 0
3, 253080, Note_on_c, 2, 72, 53
3, 253100, Note_off_c, 2, 74, 0
3, 253120, Note_on_c, 2, 74, 53
3, 253140, Note_off_c, 2, 72, 0
3, 253160, Note_on_c, 2, 72, 53
3, 253180, Note_off_c, 2, 74, 0
3, 253200, Note_on_c, 2, 74, 53
3, 253220, Note_off_c, 2, 72, 0
3, 253240, Note_on_c, 2, 72, 52
3, 253260, Note_off_c, 2, 74, 0
3, 253280, Note_on_c, 2, 74, 52
3, 253300, Note_off_c, 2, 72, 0
3, 253320, Note_on_c, 2, 72, 52
3, 253340, Note_off_c, 2, 74, 0
3, 253360, Note_on_c, 2, 74, 52
3, 253380, Note_off_c, 2, 72, 0
3, 253400, Note_on_c, 2, 72, 52
3, 253420, Note_off_c, 2, 74, 0
3, 253440, Note_on_c, 2, 74, 52
3, 253460, Note_off_c, 2, 72, 0
3, 253480, Note_on_c, 2, 72, 51
3, 253500, Note_off_c, 2, 74, 0
3, 253520, Note_on_c, 2, 74, 51
3, 253540, Note_off_c, 2, 72, 0
3, 253560, Note_on_c, 2, 72, 51
3, 253580, Note_off_c, 2, 74, 0
3, 253600, Note_on_c, 2, 74, 51
3, 253620, Note_off_c, 2, 72, 0
3, 253640, Note_on_c, 2, 72, 51
3, 253660, Note_off_c, 2, 74, 0
3, 253680, Note_on_c, 2, 74, 51
3, 253700, Note_off_c, 2, 72, 0
3, 253720, Note_on_c, 2, 72, 51
3, 253740, Note_off_c, 2, 74, 0
3, 253760, Note_on_c, 2, 74, 50
3, 253780, Note_off_c, 2, 72, 0
3, 253800, Note_on_c, 2, 72, 50
3, 253820, Note_off_c, 2, 74, 0
3, 253840, Note_on_c, 2, 74, 50
3, 253860, Note_off_c, 2, 72, 0
3, 253880, Note_on_c, 2, 72, 50
3, 253900, Note_off_c, 2, 74, 0
3, 253920, Note_on_c, 2, 74, 50
3, 253940, Note_off_c, 2, 72, 0
3, 253960, Note_on_c, 2, 72, 50
3, 253980, Note_off_c, 2, 74, 0
3, 254000, Note_on_c, 2, 74, 49
3, 254020, Note_off_c, 2, 72, 0
3, 254040, Note_on_c, 2, 72, 49
3, 254060, Note_off_c, 2, 74, 0
3, 254080, Note_on_c, 2, 74, 49
3, 254100, Note_off_c, 2, 72, 0
3, 254120, Note_on_c, 2, 72, 49
3, 254140, Note_off_c, 2, 74, 0
3, 254160, Note_on_c, 2, 74, 49
3, 254180, Note_off_c, 2, 72, 0
3, 254200, Note_on_c, 2, 72, 49
3, 254220, Note_off_c, 2, 74, 0
3, 254240, Note_on_c, 2, 74, 49
3, 254260, Note_off_c, 2, 72, 0
3, 254280, Note_on_c, 2, 72, 48
3, 254300, Note_off_c, 2, 74, 0
3, 254320, Note_on_c, 2, 74, 48
3, 254340, Note_off_c, 2, 72, 0
3, 254360, Note_on_c, 2, 72, 48
3, 254380, Note_off_c, 2, 74, 0
3, 254400, Note_on_c, 2, 74, 48
3, 254420, Note_off_c, 2, 72, 0
3, 254440, Note_on_c, 2, 72, 48
3, 254460, Note_off_c, 2, 74, 0
3, 254480, Note_on_c, 2, 74, 48
3, 254500, Note_off_c, 2, 72, 0
3, 254520, Note_on_c, 2, 72, 47
3, 254540, Note_off_c, 2, 74, 0
3, 254560, Note_on_c, 2, 74, 47
3, 254580, Note_off_c, 2, 72, 0
3, 254600, Note_on_c, 2, 72, 47
3, 254620, Note_off_c, 2, 74, 0
3, 254640, Note_on_c, 2, 74, 47
3, 254665, Note_off_c, 2, 72, 0
3, 254700, Note_on_c, 2, 72, 47
3, 254710, Note_off_c, 2, 74, 0
3, 254760, Note_on_c, 2, 71, 47
3, 254770, Note_off_c, 2, 72, 0
3, 254820, Note_on_c, 2, 72, 46
3, 254825, Note_off_c, 2, 71, 0
3, 254880, Note_off_c, 2, 72, 0
3, 273120, Note_on_c, 2, 79, 65
3, 273160, Note_on_c, 2, 77, 65
3, 273180, Note_off_c, 2, 79, 0
3, 273200, Note_on_c, 2, 79, 65
3, 273220, Note_off_c, 2, 77, 0
3, 273240, Note_on_c, 2, 77, 64
3, 273260, Note_off_c, 2, 79, 0
3, 273280, Note_on_c, 2, 79, 64
3, 273300, Note_off_c, 2, 77, 0
3, 273320, Note_on_c, 2, 77, 64
3, 273340, Note_off_c, 2, 79, 0
3, 273360, Note_on_c, 2, 79, 63
3, 273380, Note_off_c, 2, 77, 0
3, 273400, Note_on_c, 2, 77, 63
3, 273420, Note_off_c, 2, 79, 0
3, 273440, Note_on_c, 2, 79, 63
3, 273460, Note_off_c, 2, 77, 0
3, 273480, Note_on_c, 2, 77, 62
3, 273500, Note_off_c, 2, 79, 0
3, 273520, Note_on_c, 2, 79, 62
3, 273540, Note_off_c, 2, 77, 0
3, 273560, Note_on_c, 2, 77, 62
3, 273580, Note_off_c, 2, 79, 0
3, 273600, Note_on_c, 2, 79, 61
3, 273620, Note_off_c, 2, 77, 0
3, 273640, Note_on_c, 2, 77, 61
3, 273660, Note_off_c, 2, 79, 0
3, 273680, Note_on_c, 2, 79, 61
3, 273700, Note_off_c, 2, 77, 0
3, 273720, Note_on_c, 2, 77, 60
3, 273740, Note_off_c, 2, 79, 0
3, 273760, Note_on_c, 2, 79, 60
3, 273780, Note_off_c, 2, 77, 0
3, 273800, Note_on_c, 2, 77, 60
3, 273820, Note_off_c, 2, 79, 0
3, 273840, Note_on_c, 2, 79, 59
3, 273862, Note_off_c, 2, 77, 0
3, 273900, Note_off_c, 2, 79, 0
3, 273900, Note_on_c, 2, 77, 59
3, 273960, Note_off_c, 2, 77, 0
3, 273960, Note_on_c, 2, 76, 58
3, 274020, Note_off_c, 2, 76, 0
3, 274020, Note_on_c, 2, 77, 58
3, 274083, Note_off_c, 2, 77, 0
3, 275520, Note_on_c, 2, 72, 58
3, 275560, Note_on_c, 2, 71, 57
3, 275580, Note_off_c, 2, 72, 0
3, 275600, Note_on_c, 2, 72, 57
3, 275620, Note_off_c, 2, 71, 0
3, 275640, Note_on_c, 2, 71, 57
3, 275660, Note_off_c, 2, 72, 0
3, 275680, Note_on_c, 2, 72, 56
3, 275700, Note_off_c, 2, 71, 0
3, 275720, Note_on_c, 2, 71, 56
3, 275740, Note_off_c, 2, 72, 0
3, 275760, Note_on_c, 2, 72, 55
3, 275780, Note_off_c, 2, 71, 0
3, 275800, Note_on_c, 2, 71, 55
3, 275820, Note_off_c, 2, 72, 0
3, 275840, Note_on_c, 2, 72, 55
3, 275860, Note_off_c, 2, 71, 0
3, 275880, Note_on_c, 2, 71, 54
3, 275900, Note_off_c, 2, 72, 0
3, 275920, Note_on_c, 2, 69, 54
3, 275940, Note_off_c, 2, 71, 0
3, 275960, Note_on_c, 2, 71, 53
3, 275980, Note_off_c, 2, 69, 0
3, 276011, Note_off_c, 2, 71, 0
3, 284160, Note_on_c, 2, 79, 58
3, 284200, Note_on_c, 2, 77, 57
3, 284220, Note_off_c, 2, 79, 0
3, 284240, Note_on_c, 2, 79, 57
3, 284260, Note_off_c, 2, 77, 0
3, 284280, Note_on_c, 2, 77, 56
3, 284300, Note_off_c, 2, 79, 0
3, 284320, Note_on_c, 2, 79, 56
3, 284340, Note_off_c, 2, 77, 0
3, 284360, Note_on_c, 2, 77, 56
3, 284380, Note_off_c, 2, 79, 0
3, 284400, Note_on_c, 2, 79, 55
3, 284420, Note_off_c, 2, 77, 0
3, 284460, Note_off_c, 2, 79, 0
3, 284460, Note_on_c, 2, 77, 54
3, 284520, Note_on_c, 2, 76, 54
3, 284531, Note_off_c, 2, 77, 0
3, 284580, Note_on_c, 2, 77, 53
3, 284591, Note_off_c, 2, 76, 0
3, 284640, Note_off_c, 2, 77, 0
3, 284640, Note_on_c, 2, 76, 52
3, 284880, Note_off_c, 2, 76, 0
3, 291360, Note_on_c, 2, 72, 49
3, 292320, Note_off_c, 2, 72, 0
3, 292320, Note_on_c, 2, 71, 40
3, 292800, Note_off_c, 2, 71, 0
3, 320640, Note_on_c, 2, 67, 63
3, 321120, Note_off_c, 2, 67, 0
3, 321120, Note_on_c, 2, 69, 61
3, 321600, Note_off_c, 2, 69, 0
3, 321600, Note_on_c, 2, 71, 58
3, 321600, Note_on_c, 2, 65, 58
3, 322035, Note_off_c, 2, 71, 0
3, 322045, Note_off_c, 2, 65, 0
3, 322080, Note_on_c, 2, 65, 56
3, 322080, Note_on_c, 2, 71, 56
3, 323040, Note_off_c, 2, 71, 0
3, 323040, Note_off_c, 2, 65, 0
3, 323040, Note_on_c, 2, 64, 41
3, 323040, Note_on_c, 2, 67, 41
3, 323350, Note_off_c, 2, 67, 0
3, 323350, Note_off_c, 2, 64, 0
3, 325920, Control_c, 2, 64, 0
3, 325920, Note_on_c, 2, 67, 36
3, 326305, Note_off_c, 2, 67, 0
3, 326400, Note_on_c, 2, 69, 39
3, 326590, Note_off_c, 2, 69, 0
3, 326640, Note_on_c, 2, 71, 40
3, 326830, Note_off_c, 2, 71, 0
3, 327120, Note_on_c, 2, 71, 43
3, 327310, Note_off_c, 2, 71, 0
3, 327360, Note_on_c, 2, 76, 45
3, 327840, Note_off_c, 2, 76, 0
3, 327840, Note_on_c, 2, 74, 43
3, 328030, Note_off_c, 2, 74, 0
3, 328080, Note_on_c, 2, 72, 42
3, 328560, Note_off_c, 2, 72, 0
3, 328560, Note_on_c, 2, 71, 39
3, 328750, Note_off_c, 2, 71, 0
3, 328800, Note_on_c, 2, 67, 38
3, 329185, Note_off_c, 2, 67, 0
3, 329280, Note_on_c, 2, 69, 41
3, 329470, Note_off_c, 2, 69, 0
3, 329520, Note_on_c, 2, 71, 43
3, 329710, Note_off_c, 2, 71, 0
3, 330000, Note_on_c, 2, 71, 47
3, 330190, Note_off_c, 2, 71, 0
3, 330240, Note_on_c, 2, 72, 49
3, 330720, Note_off_c, 2, 72, 0
3, 330720, Note_on_c, 2, 71, 47
3, 330910, Note_off_c, 2, 71, 0
3, 330960, Note_on_c, 2, 69, 45
3, 331440, Note_off_c, 2, 69, 0
3, 331440, Note_on_c, 2, 67, 42
3, 331630, Note_off_c, 2, 67, 0
3, 331800, Note_on_c, 2, 67, 58
3, 331920, Note_off_c, 2, 67, 0
3, 331920, Note_on_c, 2, 66, 59
3, 332040, Note_off_c, 2, 66, 0
3, 332040, Note_on_c, 2, 67, 59
3, 332160, Note_off_c, 2, 67, 0
3, 332160, Note_on_c, 2, 71, 59
3, 332280, Note_off_c, 2, 71, 0
3, 332280, Note_on_c, 2, 67, 59
3, 332375, Note_off_c, 2, 67, 0
3, 332520, Note_on_c, 2, 69, 60
3, 332640, Note_off_c, 2, 69, 0
3, 332640, Note_on_c, 2, 68, 60
3, 332760, Note_off_c, 2, 68, 0
3, 332760, Note_on_c, 2, 69, 61
3, 332880, Note_off_c, 2, 69, 0
3, 332880, Note_on_c, 2, 72, 61
3, 333000, Note_off_c, 2, 72, 0
3, 333000, Note_on_c, 2, 69, 61
3, 333095, Note_off_c, 2, 69, 0
3, 333240, Note_on_c, 2, 71, 62
3, 333360, Note_off_c, 2, 71, 0
3, 333360, Note_on_c, 2, 70, 62
3, 333480, Note_off_c, 2, 70, 0
3, 333480, Note_on_c, 2, 71, 63
3, 333600, Note_off_c, 2, 71, 0
3, 333600, Note_on_c, 2, 74, 63
3, 333720, Note_off_c, 2, 74, 0
3, 333720, Note_on_c, 2, 71, 63
3, 333815, Note_off_c, 2, 71, 0
3, 333960, Note_on_c, 2, 72, 64
3, 334080, Note_off_c, 2, 72, 0
3, 334080, Note_on_c, 2, 71, 64
3, 334200, Note_off_c, 2, 71, 0
3, 334200, Note_on_c, 2, 72, 64
3, 334320, Note_off_c, 2, 72, 0
3, 334320, Note_on_c, 2, 76, 65
3, 334440, Note_off_c, 2, 76, 0
3, 334440, Note_on_c, 2, 72, 65
3, 334535, Note_off_c, 2, 72, 0
3, 335040, Note_on_c, 2, 81, 67
3, 335230, Note_off_c, 2, 81, 0
3, 335280, Note_on_c, 2, 79, 67
3, 335470, Note_off_c, 2, 79, 0
3, 335760, Note_on_c, 2, 71, 68
3, 335950, Note_off_c, 2, 71, 0
3, 336000, Note_on_c, 2, 69, 69
3, 336190, Note_off_c, 2, 69, 0
3, 336480, Note_on_c, 2, 72, 70
3, 336670, Note_off_c, 2, 72, 0
3, 336720, Note_on_c, 2, 71, 71
3, 336910, Note_off_c, 2, 71, 0
3, 337200, Note_on_c, 2, 67, 72
3, 337390, Note_off_c, 2, 67, 0
3, 343200, Note_on_c, 2, 65, 57
3, 343200, Note_on_c, 2, 62, 57
3, 343775, Note_off_c, 2, 62, 0
3, 343775, Note_off_c, 2, 65, 0
3, 344640, Note_on_c, 2, 69, 58
3, 344640, Note_on_c, 2, 72, 58
3, 345215, Note_off_c, 2, 72, 0
3, 345215, Note_off_c, 2, 69, 0
3, 346080, Note_on_c, 2, 62, 62
3, 346080, Note_on_c, 2, 65, 62
3, 346655, Note_off_c, 2, 65, 0
3, 346655, Note_off_c, 2, 62, 0
3, 347520, Note_on_c, 2, 72, 69
3, 347520, Note_on_c, 2, 69, 69
3, 348095, Note_off_c, 2, 69, 0
3, 348095, Note_off_c, 2, 72, 0
3, 353520, Note_on_c, 2, 81, 77
3, 353520, Note_on_c, 2, 78, 77
3, 353675, Note_off_c, 2, 78, 0
3, 353675, Note_off_c, 2, 81, 0
3, 353760, Note_on_c, 2, 81, 75
3, 353760, Note_on_c, 2, 78, 75
3, 353915, Note_off_c, 2, 78, 0
3, 353915, Note_off_c, 2, 81, 0
3, 354000, Note_on_c, 2, 81, 73
3, 354000, Note_on_c, 2, 78, 73
3, 354155, Note_off_c, 2, 78, 0
3, 354155, Note_off_c, 2, 81, 0
3, 356160, Note_on_c, 2, 74, 45
3, 356400, Note_off_c, 2, 74, 0
3, 356400, Note_on_c, 2, 73, 41
3, 356640, Note_off_c, 2, 73, 0
3, 356640, Note_on_c, 2, 76, 41
3, 356880, Note_off_c, 2, 76, 0
3, 356880, Note_on_c, 2, 74, 41
3, 357120, Note_off_c, 2, 74, 0
3, 357120, Note_on_c, 2, 73, 42
3, 357360, Note_off_c, 2, 73, 0
3, 357360, Note_on_c, 2, 76, 42
3, 357600, Note_off_c, 2, 76, 0
3, 357600, Note_on_c, 2, 74, 42
3, 357795, Note_off_c, 2, 74, 0
3, 361920, Note_on_c, 2, 73, 53
3, 362160, Note_off_c, 2, 73, 0
3, 362160, Note_on_c, 2, 71, 49
3, 362400, Note_off_c, 2, 71, 0
3, 362400, Note_on_c, 2, 74, 50
3, 362640, Note_off_c, 2, 74, 0
3, 362640, Note_on_c, 2, 73, 50
3, 362880, Note_off_c, 2, 73, 0
3, 362880, Note_on_c, 2, 71, 50
3, 363120, Note_off_c, 2, 71, 0
3, 363120, Note_on_c, 2, 74, 51
3, 363360, Note_off_c, 2, 74, 0
3, 363360, Note_on_c, 2, 73, 51
3, 363555, Note_off_c, 2, 73, 0
3, 365760, Note_on_c, 2, 74, 62
3, 365950, Note_off_c, 2, 74, 0
3, 366000, Note_on_c, 2, 76, 62
3, 366190, Note_off_c, 2, 76, 0
3, 366240, Note_on_c, 2, 78, 62
3, 366480, Note_off_c, 2, 78, 0
3, 367680, Note_on_c, 2, 71, 65
3, 367920, Note_off_c, 2, 71, 0
3, 367920, Note_on_c, 2, 70, 65
3, 368160, Note_off_c, 2, 70, 0
3, 368160, Note_on_c, 2, 73, 65
3, 368400, Note_off_c, 2, 73, 0
3, 368400, Note_on_c, 2, 71, 66
3, 368590, Note_off_c, 2, 71, 0
3, 368640, Note_on_c, 2, 67, 66
3, 368640, Note_on_c, 2, 71, 66
3, 368760, Note_off_c, 2, 71, 0
3, 368880, Note_off_c, 2, 67, 0
3, 368880, Note_on_c, 2, 69, 67
3, 369120, Note_off_c, 2, 69, 0
3, 369120, Note_on_c, 2, 71, 67
3, 369310, Note_off_c, 2, 71, 0
3, 370560, Note_on_c, 2, 64, 69
3, 370800, Note_off_c, 2, 64, 0
3, 370800, Note_on_c, 2, 63, 70
3, 371040, Note_off_c, 2, 63, 0
3, 371040, Note_on_c, 2, 66, 70
3, 371280, Note_off_c, 2, 66, 0
3, 371280, Note_on_c, 2, 64, 70
3, 371470, Note_off_c, 2, 64, 0
3, 375360, Note_on_c, 2, 74, 82
3, 375360, Note_on_c, 2, 78, 82
3, 375515, Note_off_c, 2, 78, 0
3, 375515, Note_off_c, 2, 74, 0
3, 376080, Note_on_c, 2, 74, 81
3, 376080, Note_on_c, 2, 79, 81
3, 376235, Note_off_c, 2, 79, 0
3, 376235, Note_off_c, 2, 74, 0
3, 377040, Note_on_c, 2, 78, 78
3, 377100, Note_off_c, 2, 78, 0
3, 377100, Note_on_c, 2, 76, 77
3, 377160, Note_off_c, 2, 76, 0
3, 377160, Note_on_c, 2, 78, 77
3, 377220, Note_off_c, 2, 78, 0
3, 377220, Note_on_c, 2, 76, 76
3, 377280, Note_off_c, 2, 76, 0
3, 377280, Note_on_c, 2, 78, 76
3, 377340, Note_off_c, 2, 78, 0
3, 377340, Note_on_c, 2, 76, 75
3, 377400, Note_off_c, 2, 76, 0
3, 377400, Note_on_c, 2, 78, 75
3, 377460, Note_off_c, 2, 78, 0
3, 377460, Note_on_c, 2, 76, 74
3, 377520, Note_off_c, 2, 76, 0
3, 377520, Note_on_c, 2, 78, 74
3, 377580, Note_off_c, 2, 78, 0
3, 377580, Note_on_c, 2, 76, 74
3, 377640, Note_off_c, 2, 76, 0
3, 377640, Note_on_c, 2, 74, 73
3, 377700, Note_off_c, 2, 74, 0
3, 377700, Note_on_c, 2, 76, 73
3, 377760, Note_off_c, 2, 76, 0
3, 377760, Note_on_c, 2, 74, 72
3, 377950, Note_off_c, 2, 74, 0
3, 384720, Note_on_c, 2, 71, 40
3, 384875, Note_off_c, 2, 71, 0
3, 384960, Note_on_c, 2, 66, 40
3, 384960, Note_on_c, 2, 70, 40
3, 385115, Note_off_c, 2, 70, 0
3, 385115, Note_off_c, 2, 66, 0
3, 386160, Note_on_c, 2, 76, 38
3, 386315, Note_off_c, 2, 76, 0
3, 386640, Note_on_c, 2, 75, 37
3, 386880, Note_off_c, 2, 75, 0
3, 386880, Note_on_c, 2, 74, 37
3, 387070, Note_off_c, 2, 74, 0
3, 387360, Note_on_c, 2, 73, 36
3, 387600, Note_off_c, 2, 73, 0
3, 387600, Note_on_c, 2, 74, 36
3, 387790, Note_off_c, 2, 74, 0
3, 387840, Note_on_c, 2, 74, 35
3, 388030, Note_off_c, 2, 74, 0
3, 388560, Note_on_c, 2, 73, 34
3, 388760, Note_off_c, 2, 73, 0
3, 391200, Note_on_c, 2, 74, 73
3, 391200, Note_on_c, 2, 81, 73
3, 391355, Note_off_c, 2, 81, 0
3, 391355, Note_off_c, 2, 74, 0
3, 391920, Note_on_c, 2, 81, 76
3, 391920, Note_on_c, 2, 74, 76
3, 392075, Note_off_c, 2, 74, 0
3, 392075, Note_off_c, 2, 81, 0
3, 392160, Note_on_c, 2, 78, 71
3, 392364, Note_off_c, 2, 78, 0
3, 392400, Note_on_c, 2, 78, 71
3, 392604, Note_off_c, 2, 78, 0
3, 392640, Note_on_c, 2, 78, 72
3, 392844, Note_off_c, 2, 78, 0
3, 392880, Note_on_c, 2, 78, 73
3, 393084, Note_off_c, 2, 78, 0
3, 393120, Note_on_c, 2, 78, 73
3, 393324, Note_off_c, 2, 78, 0
3, 393360, Note_on_c, 2, 69, 74
3, 393360, Note_on_c, 2, 78, 74
3, 393550, Note_off_c, 2, 69, 0
3, 393564, Note_off_c, 2, 78, 0
3, 393600, Note_on_c, 2, 76, 74
3, 393804, Note_off_c, 2, 76, 0
3, 393840, Note_on_c, 2, 76, 75
3, 394044, Note_off_c, 2, 76, 0
3, 394080, Note_on_c, 2, 76, 75
3, 394284, Note_off_c, 2, 76, 0
3, 394320, Note_on_c, 2, 76, 76
3, 394524, Note_off_c, 2, 76, 0
3, 394560, Note_on_c, 2, 76, 77
3, 394764, Note_off_c, 2, 76, 0
3, 394800, Note_on_c, 2, 76, 77
3, 395004, Note_off_c, 2, 76, 0
3, 395040, Note_on_c, 2, 78, 78
3, 395230, Note_off_c, 2, 78, 0
3, 398400, Note_on_c, 2, 76, 86
3, 398400, Note_on_c, 2, 81, 86
3, 398555, Note_off_c, 2, 81, 0
3, 398555, Note_off_c, 2, 76, 0
3, 398640, Note_on_c, 2, 81, 86
3, 398640, Note_on_c, 2, 78, 86
3, 398640, Note_on_c, 2, 74, 86
3, 398795, Note_off_c, 2, 74, 0
3, 398795, Note_off_c, 2, 78, 0
3, 398795, Note_off_c, 2, 81, 0
3, 399360, Control_c, 2, 64, 0
3, 402240, Control_c, 2, 64, 127
3, 405060, Control_c, 2, 64, 0
3, 408060, Control_c, 2, 64, 127
3, 409320, Control_c, 2, 64, 0
3, 409440, Control_c, 2, 64, 127
3, 410820, Control_c, 2, 64, 0
3, 410940, Control_c, 2, 64, 127
3, 413700, Control_c, 2, 64, 0
3, 414240, Note_on_c, 2, 63, 71
3, 414430, Note_off_c, 2, 63, 0
3, 414480, Note_on_c, 2, 64, 71
3, 414670, Note_off_c, 2, 64, 0
3, 414960, Note_on_c, 2, 64, 72
3, 415150, Note_off_c, 2, 64, 0
3, 415200, Note_on_c, 2, 66, 72
3, 415390, Note_off_c, 2, 66, 0
3, 415680, Note_on_c, 2, 69, 72
3, 415680, Note_on_c, 2, 66, 72
3, 415870, Note_off_c, 2, 66, 0
3, 415870, Note_off_c, 2, 69, 0
3, 415920, Note_on_c, 2, 67, 73
3, 416110, Note_off_c, 2, 67, 0
3, 416400, Note_on_c, 2, 76, 73
3, 416590, Note_off_c, 2, 76, 0
3, 416640, Note_on_c, 2, 75, 74
3, 416760, Note_on_c, 2, 83, 74
3, 416791, Note_off_c, 2, 75, 0
3, 416855, Note_off_c, 2, 83, 0
3, 416880, Note_on_c, 2, 82, 74
3, 416975, Note_off_c, 2, 82, 0
3, 417000, Note_on_c, 2, 83, 74
3, 417095, Note_off_c, 2, 83, 0
3, 417240, Note_on_c, 2, 83, 74
3, 417335, Note_off_c, 2, 83, 0
3, 417480, Note_on_c, 2, 83, 75
3, 417575, Note_off_c, 2, 83, 0
3, 417600, Note_on_c, 2, 82, 75
3, 417695, Note_off_c, 2, 82, 0
3, 417720, Note_on_c, 2, 83, 75
3, 417815, Note_off_c, 2, 83, 0
3, 417960, Note_on_c, 2, 83, 75
3, 418055, Note_off_c, 2, 83, 0
3, 418200, Note_on_c, 2, 83, 76
3, 418295, Note_off_c, 2, 83, 0
3, 418320, Note_on_c, 2, 82, 76
3, 418415, Note_off_c, 2, 82, 0
3, 418440, Note_on_c, 2, 83, 76
3, 418535, Note_off_c, 2, 83, 0
3, 418680, Note_on_c, 2, 83, 76
3, 418775, Note_off_c, 2, 83, 0
3, 418920, Note_on_c, 2, 83, 76
3, 419015, Note_off_c, 2, 83, 0
3, 419040, Note_on_c, 2, 82, 77
3, 419135, Note_off_c, 2, 82, 0
3, 419160, Note_on_c, 2, 83, 77
3, 419255, Note_off_c, 2, 83, 0
3, 419400, Note_on_c, 2, 83, 77
3, 419495, Note_off_c, 2, 83, 0
3, 419640, Note_on_c, 2, 83, 77
3, 419735, Note_off_c, 2, 83, 0
3, 419760, Note_on_c, 2, 82, 77
3, 419855, Note_off_c, 2, 82, 0
3, 419880, Note_on_c, 2, 83, 78
3, 419975, Note_off_c, 2, 83, 0
3, 420120, Note_on_c, 2, 83, 78
3, 420215, Note_off_c, 2, 83, 0
3, 423840, Note_on_c, 2, 79, 83
3, 423900, Note_off_c, 2, 79, 0
3, 423900, Note_on_c, 2, 78, 83
3, 423960, Note_off_c, 2, 78, 0
3, 423960, Note_on_c, 2, 79, 82
3, 424020, Note_off_c, 2, 79, 0
3, 424020, Note_on_c, 2, 78, 82
3, 424080, Note_off_c, 2, 78, 0
3, 424080, Note_on_c, 2, 79, 81
3, 424140, Note_off_c, 2, 79, 0
3, 424140, Note_on_c, 2, 78, 80
3, 424200, Note_off_c, 2, 78, 0
3, 424200, Note_on_c, 2, 79, 80
3, 424260, Note_off_c, 2, 79, 0
3, 424260, Note_on_c, 2, 78, 79
3, 424320, Note_off_c, 2, 78, 0
3, 424320, Note_on_c, 2, 79, 79
3, 424380, Note_off_c, 2, 79, 0
3, 424380, Note_on_c, 2, 78, 78
3, 424440, Note_off_c, 2, 78, 0
3, 424440, Note_on_c, 2, 76, 77
3, 424500, Note_off_c, 2, 76, 0
3, 424500, Note_on_c, 2, 78, 77
3, 424560, Note_off_c, 2, 78, 0
3, 424560, Note_on_c, 2, 76, 76
3, 424715, Note_off_c, 2, 76, 0
3, 427920, Note_on_c, 2, 81, 80
3, 427920, Note_on_c, 2, 78, 80
3, 428075, Note_off_c, 2, 78, 0
3, 428075, Note_off_c, 2, 81, 0
3, 428160, Note_on_c, 2, 76, 81
3, 428160, Note_on_c, 2, 79, 81
3, 428315, Note_off_c, 2, 79, 0
3, 428315, Note_off_c, 2, 76, 0
3, 429360, Note_on_c, 2, 76, 82
3, 429360, Note_on_c, 2, 79, 82
3, 429515, Note_off_c, 2, 79, 0
3, 429515, Note_off_c, 2, 76, 0
3, 429600, Note_on_c, 2, 77, 83
3, 429600, Note_on_c, 2, 74, 83
3, 429755, Note_off_c, 2, 74, 0
3, 429755, Note_off_c, 2, 77, 0
3, 430800, Note_on_c, 2, 74, 91
3, 430800, Note_on_c, 2, 77, 91
3, 430955, Note_off_c, 2, 77, 0
3, 430955, Note_off_c, 2, 74, 0
3, 431040, Note_on_c, 2, 76, 92
3, 431040, Note_on_c, 2, 72, 92
3, 431195, Note_off_c, 2, 72, 0
3, 431195, Note_off_c, 2, 76, 0
3, 439200, Note_on_c, 2, 76, 53
3, 439440, Note_off_c, 2, 76, 0
3, 439440, Note_on_c, 2, 77, 53
3, 439680, Note_off_c, 2, 77, 0
3, 439680, Note_on_c, 2, 76, 54
3, 439870, Note_off_c, 2, 76, 0
3, 439920, Note_on_c, 2, 69, 54
3, 440160, Note_off_c, 2, 69, 0
3, 440160, Note_on_c, 2, 70, 55
3, 440400, Note_off_c, 2, 70, 0
3, 440400, Note_on_c, 2, 69, 55
3, 440590, Note_off_c, 2, 69, 0
3, 441840, Note_on_c, 2, 66, 65
3, 442560, Note_off_c, 2, 66, 0
3, 442560, Note_on_c, 2, 72, 66
3, 442560, Note_on_c, 2, 67, 66
3, 442620, Note_off_c, 2, 72, 0
3, 442620, Note_on_c, 2, 70, 65
3, 442680, Note_off_c, 2, 70, 0
3, 442680, Note_on_c, 2, 72, 65
3, 442740, Note_off_c, 2, 72, 0
3, 442740, Note_on_c, 2, 70, 65
3, 442800, Note_off_c, 2, 70, 0
3, 442800, Note_on_c, 2, 72, 64
3, 442860, Note_off_c, 2, 72, 0
3, 442860, Note_on_c, 2, 70, 64
3, 442920, Note_off_c, 2, 70, 0
3, 442920, Note_on_c, 2, 69, 64
3, 442980, Note_off_c, 2, 69, 0
3, 442980, Note_on_c, 2, 70, 63
3, 443040, Note_off_c, 2, 70, 0
3, 443040, Note_on_c, 2, 72, 63
3, 443100, Note_off_c, 2, 72, 0
3, 443100, Note_on_c, 2, 70, 63
3, 443160, Note_off_c, 2, 70, 0
3, 443160, Note_on_c, 2, 69, 62
3, 443220, Note_off_c, 2, 69, 0
3, 443220, Note_on_c, 2, 70, 62
3, 443280, Note_off_c, 2, 70, 0
3, 443280, Note_off_c, 2, 67, 0
3, 443280, Note_on_c, 2, 66, 62
3, 443470, Note_off_c, 2, 66, 0
3, 445440, Note_on_c, 2, 74, 72
3, 445500, Note_off_c, 2, 74, 0
3, 445500, Note_on_c, 2, 73, 71
3, 445560, Note_off_c, 2, 73, 0
3, 445560, Note_on_c, 2, 74, 71
3, 445620, Note_off_c, 2, 74, 0
3, 445620, Note_on_c, 2, 73, 70
3, 445680, Note_off_c, 2, 73, 0
3, 445680, Note_on_c, 2, 74, 70
3, 445740, Note_off_c, 2, 74, 0
3, 445740, Note_on_c, 2, 73, 69
3, 445800, Note_off_c, 2, 73, 0
3, 445800, Note_on_c, 2, 74, 69
3, 445860, Note_off_c, 2, 74, 0
3, 445860, Note_on_c, 2, 73, 68
3, 445920, Note_off_c, 2, 73, 0
3, 445920, Note_on_c, 2, 74, 68
3, 445980, Note_off_c, 2, 74, 0
3, 445980, Note_on_c, 2, 73, 67
3, 446040, Note_off_c, 2, 73, 0
3, 446040, Note_on_c, 2, 71, 67
3, 446100, Note_off_c, 2, 71, 0
3, 446100, Note_on_c, 2, 73, 66
3, 446160, Note_off_c, 2, 73, 0
3, 449040, Control_c, 2, 64, 0
3, 449040, Note_on_c, 2, 67, 36
3, 449425, Note_off_c, 2, 67, 0
3, 449520, Note_on_c, 2, 69, 36
3, 449710, Note_off_c, 2, 69, 0
3, 449760, Note_on_c, 2, 71, 38
3, 449950, Note_off_c, 2, 71, 0
3, 450240, Note_on_c, 2, 71, 41
3, 450430, Note_off_c, 2, 71, 0
3, 450480, Note_on_c, 2, 76, 43
3, 450960, Note_off_c, 2, 76, 0
3, 450960, Note_on_c, 2, 74, 42
3, 451150, Note_off_c, 2, 74, 0
3, 451200, Note_on_c, 2, 72, 41
3, 451680, Note_off_c, 2, 72, 0
3, 451680, Note_on_c, 2, 71, 39
3, 451870, Note_off_c, 2, 71, 0
3, 451920, Note_on_c, 2, 67, 40
3, 452305, Note_off_c, 2, 67, 0
3, 452400, Note_on_c, 2, 69, 43
3, 452590, Note_off_c, 2, 69, 0
3, 452640, Note_on_c, 2, 71, 44
3, 452830, Note_off_c, 2, 71, 0
3, 453120, Note_on_c, 2, 71, 46
3, 453310, Note_off_c, 2, 71, 0
3, 453360, Note_on_c, 2, 72, 47
3, 453840, Note_off_c, 2, 72, 0
3, 453840, Note_on_c, 2, 71, 45
3, 454030, Note_off_c, 2, 71, 0
3, 454080, Note_on_c, 2, 69, 44
3, 454560, Note_off_c, 2, 69, 0
3, 454560, Note_on_c, 2, 67, 42
3, 454750, Note_off_c, 2, 67, 0
3, 454920, Note_on_c, 2, 67, 58
3, 455040, Note_off_c, 2, 67, 0
3, 455040, Note_on_c, 2, 66, 59
3, 455160, Note_off_c, 2, 66, 0
3, 455160, Note_on_c, 2, 67, 59
3, 455280, Note_off_c, 2, 67, 0
3, 455280, Note_on_c, 2, 71, 59
3, 455400, Note_off_c, 2, 71, 0
3, 455400, Note_on_c, 2, 67, 59
3, 455495, Note_off_c, 2, 67, 0
3, 455640, Note_on_c, 2, 69, 60
3, 455760, Note_off_c, 2, 69, 0
3, 455760, Note_on_c, 2, 68, 60
3, 455880, Note_off_c, 2, 68, 0
3, 455880, Note_on_c, 2, 69, 61
3, 456000, Note_off_c, 2, 69, 0
3, 456000, Note_on_c, 2, 72, 61
3, 456120, Note_off_c, 2, 72, 0
3, 456120, Note_on_c, 2, 69, 61
3, 456215, Note_off_c, 2, 69, 0
3, 456360, Note_on_c, 2, 71, 62
3, 456480, Note_off_c, 2, 71, 0
3, 456480, Note_on_c, 2, 70, 62
3, 456600, Note_off_c, 2, 70, 0
3, 456600, Note_on_c, 2, 71, 63
3, 456720, Note_off_c, 2, 71, 0
3, 456720, Note_on_c, 2, 74, 63
3, 456840, Note_off_c, 2, 74, 0
3, 456840, Note_on_c, 2, 71, 63
3, 456935, Note_off_c, 2, 71, 0
3, 457080, Note_on_c, 2, 72, 64
3, 457200, Note_off_c, 2, 72, 0
3, 457200, Note_on_c, 2, 71, 64
3, 457320, Note_off_c, 2, 71, 0
3, 457320, Note_on_c, 2, 72, 64
3, 457440, Note_off_c, 2, 72, 0
3, 457440, Note_on_c, 2, 76, 65
3, 457560, Note_off_c, 2, 76, 0
3, 457560, Note_on_c, 2, 72, 65
3, 457655, Note_off_c, 2, 72, 0
3, 458160, Note_on_c, 2, 81, 67
3, 458350, Note_off_c, 2, 81, 0
3, 458400, Note_on_c, 2, 79, 67
3, 458590, Note_off_c, 2, 79, 0
3, 458880, Note_on_c, 2, 71, 68
3, 459070, Note_off_c, 2, 71, 0
3, 459120, Note_on_c, 2, 69, 69
3, 459310, Note_off_c, 2, 69, 0
3, 459600, Note_on_c, 2, 72, 70
3, 459790, Note_off_c, 2, 72, 0
3, 459840, Note_on_c, 2, 71, 71
3, 460030, Note_off_c, 2, 71, 0
3, 460320, Note_on_c, 2, 67, 72
3, 460510, Note_off_c, 2, 67, 0
3, 466320, Note_on_c, 2, 62, 52
3, 466320, Note_on_c, 2, 65, 52
3, 466895, Note_off_c, 2, 65, 0
3, 466895, Note_off_c, 2, 62, 0
3, 467760, Note_on_c, 2, 72, 60
3, 467760, Note_on_c, 2, 69, 60
3, 468335, Note_off_c, 2, 69, 0
3, 468335, Note_off_c, 2, 72, 0
3, 469200, Note_on_c, 2, 65, 63
3, 469200, Note_on_c, 2, 62, 63
3, 469775, Note_off_c, 2, 62, 0
3, 469775, Note_off_c, 2, 65, 0
3, 470640, Note_on_c, 2, 69, 68
3, 470640, Note_on_c, 2, 72, 68
3, 471215, Note_off_c, 2, 72, 0
3, 471215, Note_off_c, 2, 69, 0
3, 476640, Note_on_c, 2, 78, 77
3, 476640, Note_on_c, 2, 81, 77
3, 476795, Note_off_c, 2, 81, 0
3, 476795, Note_off_c, 2, 78, 0
3, 476880, Note_on_c, 2, 78, 75
3, 476880, Note_on_c, 2, 81, 75
3, 477035, Note_off_c, 2, 81, 0
3, 477035, Note_off_c, 2, 78, 0
3, 477120, Note_on_c, 2, 78, 73
3, 477120, Note_on_c, 2, 81, 73
3, 477275, Note_off_c, 2, 81, 0
3, 477275, Note_off_c, 2, 78, 0
3, 479280, Note_on_c, 2, 79, 45
3, 479520, Note_off_c, 2, 79, 0
3, 479520, Note_on_c, 2, 78, 41
3, 479760, Note_off_c, 2, 78, 0
3, 479760, Note_on_c, 2, 81, 41
3, 480000, Note_off_c, 2, 81, 0
3, 480000, Note_on_c, 2, 79, 41
3, 480240, Note_off_c, 2, 79, 0
3, 480240, Note_on_c, 2, 78, 42
3, 480480, Note_off_c, 2, 78, 0
3, 480480, Note_on_c, 2, 81, 42
3, 480720, Note_off_c, 2, 81, 0
3, 480720, Note_on_c, 2, 79, 42
3, 480915, Note_off_c, 2, 79, 0
3, 485040, Note_on_c, 2, 78, 53
3, 485280, Note_off_c, 2, 78, 0
3, 485280, Note_on_c, 2, 76, 49
3, 485520, Note_off_c, 2, 76, 0
3, 485520, Note_on_c, 2, 79, 50
3, 485760, Note_off_c, 2, 79, 0
3, 485760, Note_on_c, 2, 78, 50
3, 486000, Note_off_c, 2, 78, 0
3, 486000, Note_on_c, 2, 76, 50
3, 486240, Note_off_c, 2, 76, 0
3, 486240, Note_on_c, 2, 79, 51
3, 486480, Note_off_c, 2, 79, 0
3, 486480, Note_on_c, 2, 78, 51
3, 486675, Note_off_c, 2, 78, 0
3, 488880, Note_on_c, 2, 79, 62
3, 489070, Note_off_c, 2, 79, 0
3, 489120, Note_on_c, 2, 81, 62
3, 489310, Note_off_c, 2, 81, 0
3, 489360, Note_on_c, 2, 83, 62
3, 489600, Note_off_c, 2, 83, 0
3, 490800, Note_on_c, 2, 64, 65
3, 491040, Note_off_c, 2, 64, 0
3, 491040, Note_on_c, 2, 63, 65
3, 491280, Note_off_c, 2, 63, 0
3, 491280, Note_on_c, 2, 66, 65
3, 491520, Note_off_c, 2, 66, 0
3, 491520, Note_on_c, 2, 64, 66
3, 491710, Note_off_c, 2, 64, 0
3, 491760, Note_on_c, 2, 60, 66
3, 492000, Note_off_c, 2, 60, 0
3, 492000, Note_on_c, 2, 62, 67
3, 492240, Note_off_c, 2, 62, 0
3, 492240, Note_on_c, 2, 64, 67
3, 492430, Note_off_c, 2, 64, 0
3, 493200, Note_on_c, 2, 57, 69
3, 493440, Note_off_c, 2, 57, 0
3, 493440, Note_on_c, 2, 59, 69
3, 493680, Note_off_c, 2, 59, 0
3, 493680, Note_on_c, 2, 69, 69
3, 493920, Note_off_c, 2, 69, 0
3, 493920, Note_on_c, 2, 68, 70
3, 494160, Note_off_c, 2, 68, 0
3, 494160, Note_on_c, 2, 71, 70
3, 494400, Note_off_c, 2, 71, 0
3, 494400, Note_on_c, 2, 69, 70
3, 494590, Note_off_c, 2, 69, 0
3, 498480, Note_on_c, 2, 83, 82
3, 498480, Note_on_c, 2, 79, 82
3, 498635, Note_off_c, 2, 79, 0
3, 498635, Note_off_c, 2, 83, 0
3, 499200, Note_on_c, 2, 84, 81
3, 499200, Note_on_c, 2, 79, 81
3, 499355, Note_off_c, 2, 79, 0
3, 499355, Note_off_c, 2, 84, 0
3, 500160, Note_on_c, 2, 83, 77
3, 500220, Note_off_c, 2, 83, 0
3, 500220, Note_on_c, 2, 81, 77
3, 500280, Note_off_c, 2, 81, 0
3, 500280, Note_on_c, 2, 83, 76
3, 500340, Note_off_c, 2, 83, 0
3, 500340, Note_on_c, 2, 81, 76
3, 500400, Note_off_c, 2, 81, 0
3, 500400, Note_on_c, 2, 83, 76
3, 500460, Note_off_c, 2, 83, 0
3, 500460, Note_on_c, 2, 81, 75
3, 500520, Note_off_c, 2, 81, 0
3, 500520, Note_on_c, 2, 83, 75
3, 500580, Note_off_c, 2, 83, 0
3, 500580, Note_on_c, 2, 81, 74
3, 500640, Note_off_c, 2, 81, 0
3, 500640, Note_on_c, 2, 83, 74
3, 500700, Note_off_c, 2, 83, 0
3, 500700, Note_on_c, 2, 81, 73
3, 500760, Note_off_c, 2, 81, 0
3, 500760, Note_on_c, 2, 79, 73
3, 500820, Note_off_c, 2, 79, 0
3, 500820, Note_on_c, 2, 81, 73
3, 500880, Note_off_c, 2, 81, 0
3, 500880, Note_on_c, 2, 79, 72
3, 501070, Note_off_c, 2, 79, 0
3, 507840, Note_on_c, 2, 70, 40
3, 507995, Note_off_c, 2, 70, 0
3, 508080, Note_on_c, 2, 71, 40
3, 508235, Note_off_c, 2, 71, 0
3, 509280, Note_on_c, 2, 69, 38
3, 509435, Note_off_c, 2, 69, 0
3, 509760, Note_on_c, 2, 68, 37
3, 510000, Note_off_c, 2, 68, 0
3, 510000, Note_on_c, 2, 67, 37
3, 510190, Note_off_c, 2, 67, 0
3, 510480, Note_on_c, 2, 66, 36
3, 510720, Note_off_c, 2, 66, 0
3, 510720, Note_on_c, 2, 67, 36
3, 510910, Note_off_c, 2, 67, 0
3, 510960, Note_on_c, 2, 67, 35
3, 511150, Note_off_c, 2, 67, 0
3, 511680, Note_on_c, 2, 66, 34
3, 511880, Note_off_c, 2, 66, 0
3, 514320, Note_on_c, 2, 74, 73
3, 514320, Note_on_c, 2, 79, 73
3, 514475, Note_off_c, 2, 79, 0
3, 514475, Note_off_c, 2, 74, 0
3, 515040, Note_on_c, 2, 79, 76
3, 515040, Note_on_c, 2, 72, 76
3, 515040, Note_on_c, 2, 76, 76
3, 515195, Note_off_c, 2, 72, 0
3, 515195, Note_off_c, 2, 79, 0
3, 515196, Note_off_c, 2, 76, 0
3, 515280, Note_on_c, 2, 71, 71
3, 515280, Note_on_c, 2, 74, 71
3, 515280, Note_on_c, 2, 79, 71
3, 515498, Note_off_c, 2, 79, 0
3, 515498, Note_off_c, 2, 74, 0
3, 515498, Note_off_c, 2, 71, 0
3, 515520, Note_on_c, 2, 71, 71
3, 515520, Note_on_c, 2, 74, 71
3, 515520, Note_on_c, 2, 79, 71
3, 515738, Note_off_c, 2, 79, 0
3, 515738, Note_off_c, 2, 74, 0
3, 515738, Note_off_c, 2, 71, 0
3, 515760, Note_on_c, 2, 71, 72
3, 515760, Note_on_c, 2, 74, 72
3, 515760, Note_on_c, 2, 79, 72
3, 515978, Note_off_c, 2, 79, 0
3, 515978, Note_off_c, 2, 74, 0
3, 515978, Note_off_c, 2, 71, 0
3, 516000, Note_on_c, 2, 71, 73
3, 516000, Note_on_c, 2, 74, 73
3, 516000, Note_on_c, 2, 79, 73
3, 516218, Note_off_c, 2, 79, 0
3, 516218, Note_off_c, 2, 74, 0
3, 516218, Note_off_c, 2, 71, 0
3, 516240, Note_on_c, 2, 71, 73
3, 516240, Note_on_c, 2, 74, 73
3, 516240, Note_on_c, 2, 79, 73
3, 516458, Note_off_c, 2, 79, 0
3, 516458, Note_off_c, 2, 74, 0
3, 516458, Note_off_c, 2, 71, 0
3, 516480, Note_on_c, 2, 71, 74
3, 516480, Note_on_c, 2, 74, 74
3, 516480, Note_on_c, 2, 79, 74
3, 516698, Note_off_c, 2, 79, 0
3, 516698, Note_off_c, 2, 74, 0
3, 516698, Note_off_c, 2, 71, 0
3, 516720, Note_on_c, 2, 69, 74
3, 516720, Note_on_c, 2, 74, 74
3, 516720, Note_on_c, 2, 78, 74
3, 516938, Note_off_c, 2, 78, 0
3, 516938, Note_off_c, 2, 74, 0
3, 516938, Note_off_c, 2, 69, 0
3, 516960, Note_on_c, 2, 69, 75
3, 516960, Note_on_c, 2, 74, 75
3, 516960, Note_on_c, 2, 78, 75
3, 517178, Note_off_c, 2, 78, 0
3, 517178, Note_off_c, 2, 74, 0
3, 517178, Note_off_c, 2, 69, 0
3, 517200, Note_on_c, 2, 69, 75
3, 517200, Note_on_c, 2, 72, 75
3, 517200, Note_on_c, 2, 78, 75
3, 517418, Note_off_c, 2, 78, 0
3, 517418, Note_off_c, 2, 72, 0
3, 517418, Note_off_c, 2, 69, 0
3, 517440, Note_on_c, 2, 69, 76
3, 517440, Note_on_c, 2, 74, 76
3, 517440, Note_on_c, 2, 78, 76
3, 517658, Note_off_c, 2, 78, 0
3, 517658, Note_off_c, 2, 74, 0
3, 517658, Note_off_c, 2, 69, 0
3, 517680, Note_on_c, 2, 69, 77
3, 517680, Note_on_c, 2, 78, 77
3, 517680, Note_on_c, 2, 74, 77
3, 517898, Note_off_c, 2, 74, 0
3, 517898, Note_off_c, 2, 78, 0
3, 517898, Note_off_c, 2, 69, 0
3, 517920, Note_on_c, 2, 69, 77
3, 517920, Note_on_c, 2, 74, 77
3, 517920, Note_on_c, 2, 78, 77
3, 518138, Note_off_c, 2, 78, 0
3, 518138, Note_off_c, 2, 74, 0
3, 518138, Note_off_c, 2, 69, 0
3, 518160, Note_on_c, 2, 71, 78
3, 518350, Note_off_c, 2, 71, 0
3, 521520, Note_on_c, 2, 86, 86
3, 521520, Note_on_c, 2, 81, 86
3, 521675, Note_off_c, 2, 81, 0
3, 521675, Note_off_c, 2, 86, 0
3, 521760, Note_on_c, 2, 79, 91
3, 521760, Note_on_c, 2, 83, 91
3, 521760, Note_on_c, 2, 86, 91
3, 521915, Note_off_c, 2, 86, 0
3, 521915, Note_off_c, 2, 83, 0
3, 521915, Note_off_c, 2, 79, 0
3, 522480, Control_c, 2, 64, 127
3, 522480, Control_c, 2, 64, 127
3, 522640, Note_on_c, 2, 69, 95
3, 522680, Note_on_c, 2, 72, 95
3, 522720, Note_on_c, 2, 74, 95
3, 522880, Note_off_c, 2, 69, 0
3, 522920, Note_off_c, 2, 72, 0
3, 522960, Note_off_c, 2, 74, 0
3, 523200, Control_c, 2, 64, 0
3, 523200, Control_c, 2, 64, 0
3, 523920, Control_c, 2, 64, 127
3, 523920, Control_c, 2, 64, 127
3, 524080, Note_on_c, 2, 67, 95
3, 524120, Note_on_c, 2, 71, 95
3, 524160, Note_on_c, 2, 74, 95
3, 524320, Note_off_c, 2, 67, 0
3, 524360, Note_off_c, 2, 71, 0
3, 524400, Note_off_c, 2, 74, 0
3, 524640, Control_c, 2, 64, 0
3, 524640, Control_c, 2, 64, 0
3, 524640, End_track
4, 0, Start_track
4, 0, Title_t, "Unnamed Track"
4, 0, Control_c, 3, 0, 0
4, 0, Control_c, 3, 32, 0
4, 0, Program_c, 3, 0
4, 0, Control_c, 3, 7, 112
4, 0, Pitch_bend_c, 3, 8192
4, 0, Control_c, 3, 1, 0
4, 0, Control_c, 3, 1, 0
4, 0, Pitch_bend_c, 3, 8192
4, 0, Control_c, 3, 93, 18
4, 0, Pitch_bend_c, 3, 8192
4, 0, Control_c, 3, 64, 0
4, 0, Control_c, 3, 93, 28
4, 0, Control_c, 3, 91, 100
4, 0, Control_c, 3, 10, 64
4, 1680, Note_on_c, 3, 59, 53
4, 1920, Note_off_c, 3, 59, 0
4, 1920, Note_on_c, 3, 62, 53
4, 2160, Note_off_c, 3, 62, 0
4, 2160, Note_on_c, 3, 59, 53
4, 2400, Note_off_c, 3, 59, 0
4, 2400, Note_on_c, 3, 62, 54
4, 2640, Note_off_c, 3, 62, 0
4, 2640, Note_on_c, 3, 59, 54
4, 2880, Note_off_c, 3, 59, 0
4, 3120, Note_on_c, 3, 60, 55
4, 3360, Note_off_c, 3, 60, 0
4, 3360, Note_on_c, 3, 62, 55
4, 3600, Note_off_c, 3, 62, 0
4, 3600, Note_on_c, 3, 60, 55
4, 3840, Note_off_c, 3, 60, 0
4, 3840, Note_on_c, 3, 62, 56
4, 4080, Note_off_c, 3, 62, 0
4, 4080, Note_on_c, 3, 60, 56
4, 4320, Note_off_c, 3, 60, 0
4, 4560, Note_on_c, 3, 57, 57
4, 4800, Note_off_c, 3, 57, 0
4, 4800, Note_on_c, 3, 62, 57
4, 5040, Note_off_c, 3, 62, 0
4, 5040, Note_on_c, 3, 57, 57
4, 5280, Note_off_c, 3, 57, 0
4, 5280, Note_on_c, 3, 62, 58
4, 5520, Note_off_c, 3, 62, 0
4, 5520, Note_on_c, 3, 57, 58
4, 5760, Note_off_c, 3, 57, 0
4, 6000, Note_on_c, 3, 59, 59
4, 6240, Note_off_c, 3, 59, 0
4, 6240, Note_on_c, 3, 62, 59
4, 6480, Note_off_c, 3, 62, 0
4, 6480, Note_on_c, 3, 59, 59
4, 6720, Note_off_c, 3, 59, 0
4, 33360, Note_on_c, 3, 69, 45
4, 33600, Note_off_c, 3, 69, 0
4, 33840, Note_on_c, 3, 69, 47
4, 34080, Note_off_c, 3, 69, 0
4, 34320, Note_on_c, 3, 69, 48
4, 34560, Note_off_c, 3, 69, 0
4, 34800, Note_on_c, 3, 69, 50
4, 35040, Note_off_c, 3, 69, 0
4, 35280, Note_on_c, 3, 69, 52
4, 35520, Note_off_c, 3, 69, 0
4, 35760, Note_on_c, 3, 69, 54
4, 35960, Note_off_c, 3, 69, 0
4, 36240, Note_on_c, 3, 69, 54
4, 36480, Note_off_c, 3, 69, 0
4, 36720, Note_on_c, 3, 69, 53
4, 36960, Note_off_c, 3, 69, 0
4, 37200, Note_on_c, 3, 69, 51
4, 37440, Note_off_c, 3, 69, 0
4, 37680, Note_on_c, 3, 69, 50
4, 37920, Note_off_c, 3, 69, 0
4, 38160, Note_on_c, 3, 69, 47
4, 38400, Note_off_c, 3, 69, 0
4, 38640, Note_on_c, 3, 69, 44
4, 38850, Note_off_c, 3, 69, 0
4, 39000, Note_on_c, 3, 69, 57
4, 39120, Note_off_c, 3, 69, 0
4, 39240, Note_on_c, 3, 69, 59
4, 39360, Note_off_c, 3, 69, 0
4, 39480, Note_on_c, 3, 69, 60
4, 39600, Note_off_c, 3, 69, 0
4, 39720, Note_on_c, 3, 69, 62
4, 39840, Note_off_c, 3, 69, 0
4, 39960, Note_on_c, 3, 69, 63
4, 40080, Note_off_c, 3, 69, 0
4, 40200, Note_on_c, 3, 69, 65
4, 40320, Note_off_c, 3, 69, 0
4, 40440, Note_on_c, 3, 69, 66
4, 40560, Note_off_c, 3, 69, 0
4, 40680, Note_on_c, 3, 69, 68
4, 40800, Note_off_c, 3, 69, 0
4, 40920, Note_on_c, 3, 69, 69
4, 41040, Note_off_c, 3, 69, 0
4, 41160, Note_on_c, 3, 69, 71
4, 41280, Note_off_c, 3, 69, 0
4, 41400, Note_on_c, 3, 69, 72
4, 41520, Note_off_c, 3, 69, 0
4, 41640, Note_on_c, 3, 69, 74
4, 41760, Note_off_c, 3, 69, 0
4, 41880, Note_on_c, 3, 69, 73
4, 42000, Note_off_c, 3, 69, 0
4, 42120, Note_on_c, 3, 69, 72
4, 42240, Note_off_c, 3, 69, 0
4, 42360, Note_on_c, 3, 69, 70
4, 42480, Note_off_c, 3, 69, 0
4, 42600, Note_on_c, 3, 69, 69
4, 42720, Note_off_c, 3, 69, 0
4, 42840, Note_on_c, 3, 69, 68
4, 42960, Note_off_c, 3, 69, 0
4, 43080, Note_on_c, 3, 69, 67
4, 43200, Note_off_c, 3, 69, 0
4, 43320, Note_on_c, 3, 69, 66
4, 43440, Note_off_c, 3, 69, 0
4, 43560, Note_on_c, 3, 69, 63
4, 43680, Note_off_c, 3, 69, 0
4, 43800, Note_on_c, 3, 69, 61
4, 43920, Note_off_c, 3, 69, 0
4, 44040, Note_on_c, 3, 69, 58
4, 44160, Note_off_c, 3, 69, 0
4, 73560, Note_on_c, 3, 62, 70
4, 73680, Note_off_c, 3, 62, 0
4, 73680, Note_on_c, 3, 61, 69
4, 73800, Note_off_c, 3, 61, 0
4, 73800, Note_on_c, 3, 62, 69
4, 73920, Note_off_c, 3, 62, 0
4, 74040, Note_on_c, 3, 62, 68
4, 74160, Note_off_c, 3, 62, 0
4, 74160, Note_on_c, 3, 61, 67
4, 74280, Note_off_c, 3, 61, 0
4, 74280, Note_on_c, 3, 62, 67
4, 74400, Note_off_c, 3, 62, 0
4, 74520, Note_on_c, 3, 62, 65
4, 74640, Note_off_c, 3, 62, 0
4, 74640, Note_on_c, 3, 61, 65
4, 74760, Note_off_c, 3, 61, 0
4, 74760, Note_on_c, 3, 62, 64
4, 74880, Note_off_c, 3, 62, 0
4, 75000, Note_on_c, 3, 62, 65
4, 75120, Note_off_c, 3, 62, 0
4, 75120, Note_on_c, 3, 61, 64
4, 75240, Note_off_c, 3, 61, 0
4, 75240, Note_on_c, 3, 62, 63
4, 75360, Note_off_c, 3, 62, 0
4, 75480, Note_on_c, 3, 62, 60
4, 75600, Note_off_c, 3, 62, 0
4, 75600, Note_on_c, 3, 61, 59
4, 75720, Note_off_c, 3, 61, 0
4, 75720, Note_on_c, 3, 62, 58
4, 75840, Note_off_c, 3, 62, 0
4, 75960, Note_on_c, 3, 62, 55
4, 76080, Note_off_c, 3, 62, 0
4, 76080, Note_on_c, 3, 61, 53
4, 76200, Note_off_c, 3, 61, 0
4, 76200, Note_on_c, 3, 62, 51
4, 76320, Note_off_c, 3, 62, 0
4, 103920, Note_on_c, 3, 59, 44
4, 104160, Note_off_c, 3, 59, 0
4, 104160, Note_on_c, 3, 62, 44
4, 104400, Note_off_c, 3, 62, 0
4, 104400, Note_on_c, 3, 59, 44
4, 104640, Note_off_c, 3, 59, 0
4, 104640, Note_on_c, 3, 62, 44
4, 104880, Note_off_c, 3, 62, 0
4, 104880, Note_on_c, 3, 59, 45
4, 105120, Note_off_c, 3, 59, 0
4, 105360, Note_on_c, 3, 60, 45
4, 105600, Note_off_c, 3, 60, 0
4, 105600, Note_on_c, 3, 62, 45
4, 105840, Note_off_c, 3, 62, 0
4, 105840, Note_on_c, 3, 60, 45
4, 106080, Note_off_c, 3, 60, 0
4, 106080, Note_on_c, 3, 62, 45
4, 106320, Note_off_c, 3, 62, 0
4, 106320, Note_on_c, 3, 60, 45
4, 106560, Note_off_c, 3, 60, 0
4, 106800, Note_on_c, 3, 57, 46
4, 107040, Note_off_c, 3, 57, 0
4, 107040, Note_on_c, 3, 62, 46
4, 107280, Note_off_c, 3, 62, 0
4, 107280, Note_on_c, 3, 57, 46
4, 107520, Note_off_c, 3, 57, 0
4, 107520, Note_on_c, 3, 62, 46
4, 107760, Note_off_c, 3, 62, 0
4, 107760, Note_on_c, 3, 57, 46
4, 108000, Note_off_c, 3, 57, 0
4, 109680, Note_on_c, 3, 60, 47
4, 109920, Note_off_c, 3, 60, 0
4, 109920, Note_on_c, 3, 64, 48
4, 110160, Note_off_c, 3, 64, 0
4, 110160, Note_on_c, 3, 60, 48
4, 110400, Note_off_c, 3, 60, 0
4, 110400, Note_on_c, 3, 64, 48
4, 110640, Note_off_c, 3, 64, 0
4, 110640, Note_on_c, 3, 60, 48
4, 110880, Note_off_c, 3, 60, 0
4, 111120, Note_on_c, 3, 62, 48
4, 111360, Note_off_c, 3, 62, 0
4, 111360, Note_on_c, 3, 64, 48
4, 111600, Note_off_c, 3, 64, 0
4, 111600, Note_on_c, 3, 62, 49
4, 111840, Note_off_c, 3, 62, 0
4, 111840, Note_on_c, 3, 64, 49
4, 112080, Note_off_c, 3, 64, 0
4, 112080, Note_on_c, 3, 62, 49
4, 112320, Note_off_c, 3, 62, 0
4, 112560, Note_on_c, 3, 59, 49
4, 112800, Note_off_c, 3, 59, 0
4, 112800, Note_on_c, 3, 64, 49
4, 113040, Note_off_c, 3, 64, 0
4, 113040, Note_on_c, 3, 59, 49
4, 113280, Note_off_c, 3, 59, 0
4, 113280, Note_on_c, 3, 64, 50
4, 113520, Note_off_c, 3, 64, 0
4, 113520, Note_on_c, 3, 59, 50
4, 113760, Note_off_c, 3, 59, 0
4, 115440, Note_on_c, 3, 60, 51
4, 115680, Note_off_c, 3, 60, 0
4, 115680, Note_on_c, 3, 65, 51
4, 115920, Note_off_c, 3, 65, 0
4, 116400, Note_on_c, 3, 67, 51
4, 116640, Note_off_c, 3, 67, 0
4, 116880, Note_on_c, 3, 67, 52
4, 117120, Note_off_c, 3, 67, 0
4, 117120, Note_on_c, 3, 72, 52
4, 117360, Note_off_c, 3, 72, 0
4, 117360, Note_on_c, 3, 67, 52
4, 117600, Note_off_c, 3, 67, 0
4, 117840, Note_on_c, 3, 67, 52
4, 118080, Note_off_c, 3, 67, 0
4, 118320, Note_on_c, 3, 64, 52
4, 118560, Note_off_c, 3, 64, 0
4, 118560, Note_on_c, 3, 67, 53
4, 118800, Note_off_c, 3, 67, 0
4, 118800, Note_on_c, 3, 64, 53
4, 119040, Note_off_c, 3, 64, 0
4, 119280, Note_on_c, 3, 64, 53
4, 119520, Note_off_c, 3, 64, 0
4, 129840, Note_on_c, 3, 62, 41
4, 130080, Note_off_c, 3, 62, 0
4, 130320, Note_on_c, 3, 62, 42
4, 130560, Note_off_c, 3, 62, 0
4, 130800, Note_on_c, 3, 62, 43
4, 131040, Note_off_c, 3, 62, 0
4, 131280, Note_on_c, 3, 62, 44
4, 131520, Note_off_c, 3, 62, 0
4, 131760, Note_on_c, 3, 62, 45
4, 132000, Note_off_c, 3, 62, 0
4, 132240, Note_on_c, 3, 62, 46
4, 132440, Note_off_c, 3, 62, 0
4, 132720, Note_on_c, 3, 62, 47
4, 132960, Note_off_c, 3, 62, 0
4, 133200, Note_on_c, 3, 62, 45
4, 133440, Note_off_c, 3, 62, 0
4, 133680, Note_on_c, 3, 62, 44
4, 133920, Note_off_c, 3, 62, 0
4, 134160, Note_on_c, 3, 62, 43
4, 134400, Note_off_c, 3, 62, 0
4, 134640, Note_on_c, 3, 62, 41
4, 134880, Note_off_c, 3, 62, 0
4, 135120, Note_on_c, 3, 62, 40
4, 135300, Note_off_c, 3, 62, 0
4, 135480, Note_on_c, 3, 74, 48
4, 135600, Note_off_c, 3, 74, 0
4, 135720, Note_on_c, 3, 74, 49
4, 135840, Note_off_c, 3, 74, 0
4, 135960, Note_on_c, 3, 74, 50
4, 136080, Note_off_c, 3, 74, 0
4, 136200, Note_on_c, 3, 74, 51
4, 136320, Note_off_c, 3, 74, 0
4, 136440, Note_on_c, 3, 74, 51
4, 136560, Note_off_c, 3, 74, 0
4, 136680, Note_on_c, 3, 74, 52
4, 136800, Note_off_c, 3, 74, 0
4, 136920, Note_on_c, 3, 74, 53
4, 137040, Note_off_c, 3, 74, 0
4, 137160, Note_on_c, 3, 74, 54
4, 137280, Note_off_c, 3, 74, 0
4, 137400, Note_on_c, 3, 74, 54
4, 137520, Note_off_c, 3, 74, 0
4, 137640, Note_on_c, 3, 74, 55
4, 137760, Note_off_c, 3, 74, 0
4, 137880, Note_on_c, 3, 74, 56
4, 138000, Note_off_c, 3, 74, 0
4, 138120, Note_on_c, 3, 74, 57
4, 138240, Note_off_c, 3, 74, 0
4, 138360, Note_on_c, 3, 74, 57
4, 138480, Note_off_c, 3, 74, 0
4, 138600, Note_on_c, 3, 74, 56
4, 138720, Note_off_c, 3, 74, 0
4, 138840, Note_on_c, 3, 74, 55
4, 138960, Note_off_c, 3, 74, 0
4, 139080, Note_on_c, 3, 74, 54
4, 139200, Note_off_c, 3, 74, 0
4, 139320, Note_on_c, 3, 74, 53
4, 139440, Note_off_c, 3, 74, 0
4, 139560, Note_on_c, 3, 74, 52
4, 139680, Note_off_c, 3, 74, 0
4, 139800, Note_on_c, 3, 74, 51
4, 139920, Note_off_c, 3, 74, 0
4, 140040, Note_on_c, 3, 74, 50
4, 140160, Note_off_c, 3, 74, 0
4, 140280, Note_on_c, 3, 74, 49
4, 140400, Note_off_c, 3, 74, 0
4, 140520, Note_on_c, 3, 74, 48
4, 140640, Note_off_c, 3, 74, 0
4, 174240, Control_c, 3, 64, 127
4, 174240, Note_on_c, 3, 64, 44
4, 174480, Note_off_c, 3, 64, 0
4, 174480, Note_on_c, 3, 67, 44
4, 174720, Note_off_c, 3, 67, 0
4, 174720, Note_on_c, 3, 64, 45
4, 174960, Note_off_c, 3, 64, 0
4, 174960, Note_on_c, 3, 67, 45
4, 175140, Control_c, 3, 64, 0
4, 175200, Control_c, 3, 64, 127
4, 175200, Note_off_c, 3, 67, 0
4, 175200, Note_on_c, 3, 64, 46
4, 175440, Note_off_c, 3, 64, 0
4, 175440, Note_on_c, 3, 67, 46
4, 175680, Note_off_c, 3, 67, 0
4, 175680, Note_on_c, 3, 64, 47
4, 175920, Note_off_c, 3, 64, 0
4, 175920, Note_on_c, 3, 67, 47
4, 176100, Control_c, 3, 64, 0
4, 176120, Note_off_c, 3, 67, 0
4, 176160, Control_c, 3, 64, 127
4, 176160, Note_on_c, 3, 65, 48
4, 176400, Note_off_c, 3, 65, 0
4, 176400, Note_on_c, 3, 67, 48
4, 176640, Note_off_c, 3, 67, 0
4, 176640, Note_on_c, 3, 65, 49
4, 176880, Note_off_c, 3, 65, 0
4, 176880, Note_on_c, 3, 67, 49
4, 177060, Control_c, 3, 64, 0
4, 177120, Control_c, 3, 64, 127
4, 177120, Note_off_c, 3, 67, 0
4, 177120, Note_on_c, 3, 62, 50
4, 177360, Note_off_c, 3, 62, 0
4, 177360, Note_on_c, 3, 67, 50
4, 177540, Control_c, 3, 64, 0
4, 177600, Control_c, 3, 64, 127
4, 177600, Note_off_c, 3, 67, 0
4, 177600, Note_on_c, 3, 59, 51
4, 177840, Note_off_c, 3, 59, 0
4, 177840, Note_on_c, 3, 67, 51
4, 178020, Control_c, 3, 64, 0
4, 178040, Note_off_c, 3, 67, 0
4, 178080, Control_c, 3, 64, 127
4, 178320, Note_on_c, 3, 67, 51
4, 178500, Control_c, 3, 64, 0
4, 178560, Control_c, 3, 64, 127
4, 178560, Note_off_c, 3, 67, 0
4, 178800, Note_on_c, 3, 67, 49
4, 178980, Control_c, 3, 64, 0
4, 179040, Control_c, 3, 64, 127
4, 179040, Note_off_c, 3, 67, 0
4, 179280, Note_on_c, 3, 60, 48
4, 179460, Control_c, 3, 64, 0
4, 179520, Control_c, 3, 64, 127
4, 179520, Note_off_c, 3, 60, 0
4, 179760, Note_on_c, 3, 65, 46
4, 179940, Control_c, 3, 64, 0
4, 179955, Note_off_c, 3, 65, 0
4, 180000, Note_on_c, 3, 64, 45
4, 180240, Note_off_c, 3, 64, 0
4, 180240, Note_on_c, 3, 62, 45
4, 180480, Note_off_c, 3, 62, 0
4, 180480, Note_on_c, 3, 60, 44
4, 180720, Note_off_c, 3, 60, 0
4, 180720, Note_on_c, 3, 59, 43
4, 180960, Note_off_c, 3, 59, 0
4, 180960, Note_on_c, 3, 62, 42
4, 181000, Note_on_c, 3, 60, 42
4, 181035, Note_off_c, 3, 62, 0
4, 181040, Note_on_c, 3, 62, 42
4, 181075, Note_off_c, 3, 60, 0
4, 181080, Note_on_c, 3, 60, 42
4, 181100, Note_off_c, 3, 62, 0
4, 181200, Note_on_c, 3, 59, 41
4, 181245, Note_off_c, 3, 60, 0
4, 181440, Note_off_c, 3, 59, 0
4, 181440, Note_on_c, 3, 60, 40
4, 181680, Note_off_c, 3, 60, 0
4, 181680, Note_on_c, 3, 62, 38
4, 181860, Control_c, 3, 64, 0
4, 181890, Note_off_c, 3, 62, 0
4, 181920, Control_c, 3, 64, 127
4, 181920, Note_on_c, 3, 55, 58
4, 182160, Note_off_c, 3, 55, 0
4, 182160, Note_on_c, 3, 60, 58
4, 182400, Note_off_c, 3, 60, 0
4, 182400, Note_on_c, 3, 55, 59
4, 182640, Note_off_c, 3, 55, 0
4, 182640, Note_on_c, 3, 60, 59
4, 182820, Control_c, 3, 64, 0
4, 182880, Control_c, 3, 64, 127
4, 182880, Note_off_c, 3, 60, 0
4, 182880, Note_on_c, 3, 53, 60
4, 183120, Note_off_c, 3, 53, 0
4, 183120, Note_on_c, 3, 60, 61
4, 183300, Control_c, 3, 64, 0
4, 183360, Control_c, 3, 64, 127
4, 183360, Note_off_c, 3, 60, 0
4, 183360, Note_on_c, 3, 52, 61
4, 183600, Note_off_c, 3, 52, 0
4, 183600, Note_on_c, 3, 60, 62
4, 183780, Control_c, 3, 64, 0
4, 183800, Note_off_c, 3, 60, 0
4, 183840, Control_c, 3, 64, 127
4, 183840, Note_on_c, 3, 53, 62
4, 184080, Note_off_c, 3, 53, 0
4, 184080, Note_on_c, 3, 55, 63
4, 184320, Note_off_c, 3, 55, 0
4, 184320, Note_on_c, 3, 53, 64
4, 184560, Note_off_c, 3, 53, 0
4, 184560, Note_on_c, 3, 55, 64
4, 184740, Control_c, 3, 64, 0
4, 184800, Control_c, 3, 64, 127
4, 184800, Note_off_c, 3, 55, 0
4, 184800, Note_on_c, 3, 50, 65
4, 185040, Note_off_c, 3, 50, 0
4, 185040, Note_on_c, 3, 55, 65
4, 185220, Control_c, 3, 64, 0
4, 185280, Control_c, 3, 64, 127
4, 185280, Note_off_c, 3, 55, 0
4, 185280, Note_on_c, 3, 47, 66
4, 185520, Note_off_c, 3, 47, 0
4, 185520, Note_on_c, 3, 55, 67
4, 185700, Control_c, 3, 64, 0
4, 185715, Note_off_c, 3, 55, 0
4, 185760, Control_c, 3, 64, 127
4, 186000, Note_on_c, 3, 55, 67
4, 186180, Control_c, 3, 64, 0
4, 186240, Control_c, 3, 64, 127
4, 186240, Note_off_c, 3, 55, 0
4, 186240, Note_on_c, 3, 57, 66
4, 186480, Note_off_c, 3, 57, 0
4, 186480, Note_on_c, 3, 65, 66
4, 186660, Control_c, 3, 64, 0
4, 186680, Note_off_c, 3, 65, 0
4, 186720, Note_on_c, 3, 64, 65
4, 187105, Note_off_c, 3, 64, 0
4, 187200, Note_on_c, 3, 62, 64
4, 187585, Note_off_c, 3, 62, 0
4, 189540, Control_c, 3, 64, 0
4, 189600, Control_c, 3, 64, 127
4, 189840, Note_on_c, 3, 67, 57
4, 190020, Control_c, 3, 64, 0
4, 190080, Control_c, 3, 64, 127
4, 190080, Note_off_c, 3, 67, 0
4, 190320, Note_on_c, 3, 67, 59
4, 190500, Control_c, 3, 64, 0
4, 190560, Control_c, 3, 64, 127
4, 190560, Note_off_c, 3, 67, 0
4, 190800, Note_on_c, 3, 67, 60
4, 191040, Note_off_c, 3, 67, 0
4, 191280, Note_on_c, 3, 67, 62
4, 191460, Control_c, 3, 64, 0
4, 191480, Note_off_c, 3, 67, 0
4, 191520, Control_c, 3, 64, 127
4, 191760, Note_on_c, 3, 67, 60
4, 192000, Note_off_c, 3, 67, 0
4, 192240, Note_on_c, 3, 67, 56
4, 192420, Control_c, 3, 64, 0
4, 192480, Control_c, 3, 64, 127
4, 192480, Note_off_c, 3, 67, 0
4, 192720, Note_on_c, 3, 67, 51
4, 192960, Note_off_c, 3, 67, 0
4, 193200, Note_on_c, 3, 67, 49
4, 193380, Control_c, 3, 64, 0
4, 193405, Note_off_c, 3, 67, 0
4, 193440, Control_c, 3, 64, 127
4, 193680, Note_on_c, 3, 62, 51
4, 193860, Control_c, 3, 64, 0
4, 193920, Control_c, 3, 64, 127
4, 193920, Note_off_c, 3, 62, 0
4, 194160, Note_on_c, 3, 60, 54
4, 194340, Control_c, 3, 64, 0
4, 194400, Control_c, 3, 64, 127
4, 194400, Note_off_c, 3, 60, 0
4, 194640, Note_on_c, 3, 62, 56
4, 194820, Control_c, 3, 64, 0
4, 194880, Control_c, 3, 64, 127
4, 194880, Note_off_c, 3, 62, 0
4, 195120, Note_on_c, 3, 59, 59
4, 195300, Control_c, 3, 64, 0
4, 195325, Note_off_c, 3, 59, 0
4, 195360, Control_c, 3, 64, 127
4, 195600, Note_on_c, 3, 62, 58
4, 195780, Control_c, 3, 64, 0
4, 195840, Control_c, 3, 64, 127
4, 195840, Note_off_c, 3, 62, 0
4, 196080, Note_on_c, 3, 62, 56
4, 196260, Control_c, 3, 64, 0
4, 196320, Note_off_c, 3, 62, 0
4, 204900, Control_c, 3, 64, 0
4, 204960, Control_c, 3, 64, 127
4, 205200, Note_on_c, 3, 62, 72
4, 205440, Note_off_c, 3, 62, 0
4, 205440, Note_on_c, 3, 59, 73
4, 205680, Note_off_c, 3, 59, 0
4, 205680, Note_on_c, 3, 62, 74
4, 205860, Control_c, 3, 64, 0
4, 205920, Control_c, 3, 64, 127
4, 205920, Note_off_c, 3, 62, 0
4, 206160, Note_on_c, 3, 62, 75
4, 206400, Note_off_c, 3, 62, 0
4, 206400, Note_on_c, 3, 59, 76
4, 206640, Note_off_c, 3, 59, 0
4, 206640, Note_on_c, 3, 62, 77
4, 206820, Control_c, 3, 64, 0
4, 206845, Note_off_c, 3, 62, 0
4, 206880, Control_c, 3, 64, 127
4, 207120, Note_on_c, 3, 62, 75
4, 207360, Note_off_c, 3, 62, 0
4, 207360, Note_on_c, 3, 60, 73
4, 207600, Note_off_c, 3, 60, 0
4, 207600, Note_on_c, 3, 62, 72
4, 207780, Control_c, 3, 64, 0
4, 207840, Control_c, 3, 64, 127
4, 207840, Note_off_c, 3, 62, 0
4, 208080, Note_on_c, 3, 62, 70
4, 208320, Note_off_c, 3, 62, 0
4, 208320, Note_on_c, 3, 60, 69
4, 208560, Note_off_c, 3, 60, 0
4, 208560, Note_on_c, 3, 62, 68
4, 208740, Control_c, 3, 64, 0
4, 208765, Note_off_c, 3, 62, 0
4, 208800, Control_c, 3, 64, 127
4, 209040, Note_on_c, 3, 62, 51
4, 209280, Note_off_c, 3, 62, 0
4, 209280, Note_on_c, 3, 59, 51
4, 209520, Note_off_c, 3, 59, 0
4, 209520, Note_on_c, 3, 62, 52
4, 209700, Control_c, 3, 64, 0
4, 209760, Control_c, 3, 64, 127
4, 209760, Note_off_c, 3, 62, 0
4, 210000, Note_on_c, 3, 62, 53
4, 210240, Note_off_c, 3, 62, 0
4, 210240, Note_on_c, 3, 59, 54
4, 210480, Note_off_c, 3, 59, 0
4, 210480, Note_on_c, 3, 62, 54
4, 210660, Control_c, 3, 64, 0
4, 210680, Note_off_c, 3, 62, 0
4, 210720, Control_c, 3, 64, 127
4, 210960, Note_on_c, 3, 62, 54
4, 211200, Note_off_c, 3, 62, 0
4, 211200, Note_on_c, 3, 60, 53
4, 211440, Note_off_c, 3, 60, 0
4, 211440, Note_on_c, 3, 62, 51
4, 211620, Control_c, 3, 64, 0
4, 211680, Control_c, 3, 64, 127
4, 211680, Note_off_c, 3, 62, 0
4, 211920, Note_on_c, 3, 62, 49
4, 212160, Note_off_c, 3, 62, 0
4, 212160, Note_on_c, 3, 60, 47
4, 212400, Note_off_c, 3, 60, 0
4, 212400, Note_on_c, 3, 62, 46
4, 212580, Control_c, 3, 64, 0
4, 212595, Note_off_c, 3, 62, 0
4, 212640, Control_c, 3, 64, 127
4, 212880, Note_on_c, 3, 67, 68
4, 213120, Note_off_c, 3, 67, 0
4, 213120, Note_on_c, 3, 62, 69
4, 213360, Note_off_c, 3, 62, 0
4, 213360, Note_on_c, 3, 67, 70
4, 213540, Control_c, 3, 64, 0
4, 213600, Control_c, 3, 64, 127
4, 213600, Note_off_c, 3, 67, 0
4, 213840, Note_on_c, 3, 67, 71
4, 214080, Note_off_c, 3, 67, 0
4, 214080, Note_on_c, 3, 62, 72
4, 214320, Note_off_c, 3, 62, 0
4, 214320, Note_on_c, 3, 67, 73
4, 214500, Control_c, 3, 64, 0
4, 214515, Note_off_c, 3, 67, 0
4, 214560, Control_c, 3, 64, 127
4, 214800, Note_on_c, 3, 67, 71
4, 215040, Note_off_c, 3, 67, 0
4, 215040, Note_on_c, 3, 64, 69
4, 215280, Note_off_c, 3, 64, 0
4, 215280, Note_on_c, 3, 67, 67
4, 215460, Control_c, 3, 64, 0
4, 215520, Control_c, 3, 64, 127
4, 215520, Note_off_c, 3, 67, 0
4, 215760, Note_on_c, 3, 67, 64
4, 216000, Note_off_c, 3, 67, 0
4, 216000, Note_on_c, 3, 64, 62
4, 216240, Note_off_c, 3, 64, 0
4, 216240, Note_on_c, 3, 67, 61
4, 216420, Control_c, 3, 64, 0
4, 216445, Note_off_c, 3, 67, 0
4, 216480, Control_c, 3, 64, 127
4, 216720, Note_on_c, 3, 67, 57
4, 216900, Control_c, 3, 64, 0
4, 216960, Control_c, 3, 64, 127
4, 216960, Note_off_c, 3, 67, 0
4, 217200, Note_on_c, 3, 69, 54
4, 217380, Control_c, 3, 64, 0
4, 217440, Control_c, 3, 64, 127
4, 217440, Note_off_c, 3, 69, 0
4, 217680, Note_on_c, 3, 67, 50
4, 217860, Control_c, 3, 64, 0
4, 217920, Control_c, 3, 64, 127
4, 217920, Note_off_c, 3, 67, 0
4, 218160, Note_on_c, 3, 66, 47
4, 218340, Control_c, 3, 64, 0
4, 218385, Note_off_c, 3, 66, 0
4, 218400, Control_c, 3, 64, 127
4, 218640, Note_on_c, 3, 67, 74
4, 218880, Note_off_c, 3, 67, 0
4, 218880, Note_on_c, 3, 62, 75
4, 219120, Note_off_c, 3, 62, 0
4, 219120, Note_on_c, 3, 67, 76
4, 219300, Control_c, 3, 64, 0
4, 219360, Control_c, 3, 64, 127
4, 219360, Note_off_c, 3, 67, 0
4, 219600, Note_on_c, 3, 67, 77
4, 219840, Note_off_c, 3, 67, 0
4, 219840, Note_on_c, 3, 62, 78
4, 220080, Note_off_c, 3, 62, 0
4, 220080, Note_on_c, 3, 67, 78
4, 220260, Control_c, 3, 64, 0
4, 220280, Note_off_c, 3, 67, 0
4, 220320, Note_on_c, 3, 67, 79
4, 221200, Note_off_c, 3, 67, 0
4, 222240, Note_on_c, 3, 67, 65
4, 222605, Note_off_c, 3, 67, 0
4, 222720, Note_on_c, 3, 67, 62
4, 223080, Note_off_c, 3, 67, 0
4, 223200, Note_on_c, 3, 67, 59
4, 223560, Note_off_c, 3, 67, 0
4, 223680, Note_on_c, 3, 66, 57
4, 224045, Note_off_c, 3, 66, 0
4, 233700, Control_c, 3, 64, 0
4, 233760, Control_c, 3, 64, 127
4, 233760, Note_on_c, 3, 65, 50
4, 234000, Note_off_c, 3, 65, 0
4, 234000, Note_on_c, 3, 69, 50
4, 234240, Note_off_c, 3, 69, 0
4, 234240, Note_on_c, 3, 65, 51
4, 234480, Note_off_c, 3, 65, 0
4, 234480, Note_on_c, 3, 69, 51
4, 234720, Note_off_c, 3, 69, 0
4, 234720, Note_on_c, 3, 65, 52
4, 234960, Note_off_c, 3, 65, 0
4, 234960, Note_on_c, 3, 69, 52
4, 235200, Note_off_c, 3, 69, 0
4, 235200, Note_on_c, 3, 65, 53
4, 235440, Note_off_c, 3, 65, 0
4, 235440, Note_on_c, 3, 69, 53
4, 235620, Control_c, 3, 64, 0
4, 235645, Note_off_c, 3, 69, 0
4, 235680, Control_c, 3, 64, 127
4, 235680, Note_on_c, 3, 67, 53
4, 235920, Note_off_c, 3, 67, 0
4, 235920, Note_on_c, 3, 69, 54
4, 236160, Note_off_c, 3, 69, 0
4, 236160, Note_on_c, 3, 67, 54
4, 236400, Note_off_c, 3, 67, 0
4, 236400, Note_on_c, 3, 69, 55
4, 236580, Control_c, 3, 64, 0
4, 236640, Control_c, 3, 64, 127
4, 236640, Note_off_c, 3, 69, 0
4, 236640, Note_on_c, 3, 64, 55
4, 236880, Note_off_c, 3, 64, 0
4, 236880, Note_on_c, 3, 69, 56
4, 237060, Control_c, 3, 64, 0
4, 237120, Control_c, 3, 64, 127
4, 237120, Note_off_c, 3, 69, 0
4, 237120, Note_on_c, 3, 61, 56
4, 237360, Note_off_c, 3, 61, 0
4, 237360, Note_on_c, 3, 69, 57
4, 237540, Control_c, 3, 64, 0
4, 237560, Note_off_c, 3, 69, 0
4, 237600, Control_c, 3, 64, 127
4, 237840, Note_on_c, 3, 69, 58
4, 238080, Note_off_c, 3, 69, 0
4, 238080, Note_on_c, 3, 65, 57
4, 238320, Note_off_c, 3, 65, 0
4, 238320, Note_on_c, 3, 69, 56
4, 238500, Control_c, 3, 64, 0
4, 238560, Control_c, 3, 64, 127
4, 238560, Note_off_c, 3, 69, 0
4, 238800, Note_on_c, 3, 69, 55
4, 238980, Control_c, 3, 64, 0
4, 239040, Control_c, 3, 64, 127
4, 239040, Note_off_c, 3, 69, 0
4, 239280, Note_on_c, 3, 69, 53
4, 239460, Control_c, 3, 64, 0
4, 239480, Note_off_c, 3, 69, 0
4, 239520, Control_c, 3, 64, 127
4, 239760, Note_on_c, 3, 69, 51
4, 239940, Control_c, 3, 64, 0
4, 240000, Control_c, 3, 64, 127
4, 240000, Note_off_c, 3, 69, 0
4, 240420, Control_c, 3, 64, 0
4, 240480, Control_c, 3, 64, 127
4, 240900, Control_c, 3, 64, 0
4, 240960, Control_c, 3, 64, 127
4, 241380, Control_c, 3, 64, 0
4, 241440, Control_c, 3, 64, 127
4, 241440, Note_on_c, 3, 64, 62
4, 241680, Note_off_c, 3, 64, 0
4, 241680, Note_on_c, 3, 67, 63
4, 241920, Note_off_c, 3, 67, 0
4, 241920, Note_on_c, 3, 64, 64
4, 242160, Note_off_c, 3, 64, 0
4, 242160, Note_on_c, 3, 67, 65
4, 242400, Note_off_c, 3, 67, 0
4, 242400, Note_on_c, 3, 64, 65
4, 242640, Note_off_c, 3, 64, 0
4, 242640, Note_on_c, 3, 67, 66
4, 242880, Note_off_c, 3, 67, 0
4, 242880, Note_on_c, 3, 64, 67
4, 243120, Note_off_c, 3, 64, 0
4, 243120, Note_on_c, 3, 67, 68
4, 243300, Control_c, 3, 64, 0
4, 243315, Note_off_c, 3, 67, 0
4, 243360, Control_c, 3, 64, 127
4, 243360, Note_on_c, 3, 65, 71
4, 243600, Note_off_c, 3, 65, 0
4, 243600, Note_on_c, 3, 67, 69
4, 243840, Note_off_c, 3, 67, 0
4, 243840, Note_on_c, 3, 65, 68
4, 244080, Note_off_c, 3, 65, 0
4, 244080, Note_on_c, 3, 67, 66
4, 244260, Control_c, 3, 64, 0
4, 244320, Note_off_c, 3, 67, 0
4, 244320, Note_on_c, 3, 67, 65
4, 244680, Note_off_c, 3, 67, 0
4, 249360, Note_on_c, 3, 57, 55
4, 249600, Note_off_c, 3, 57, 0
4, 249600, Note_on_c, 3, 56, 54
4, 249840, Note_off_c, 3, 56, 0
4, 249840, Note_on_c, 3, 57, 53
4, 250080, Note_off_c, 3, 57, 0
4, 250080, Note_on_c, 3, 56, 52
4, 250320, Note_off_c, 3, 56, 0
4, 250320, Note_on_c, 3, 57, 50
4, 250560, Note_off_c, 3, 57, 0
4, 250560, Note_on_c, 3, 56, 49
4, 250800, Note_off_c, 3, 56, 0
4, 250800, Note_on_c, 3, 57, 48
4, 251000, Note_off_c, 3, 57, 0
4, 251280, Note_on_c, 3, 68, 44
4, 251520, Note_off_c, 3, 68, 0
4, 251520, Note_on_c, 3, 69, 44
4, 251760, Note_off_c, 3, 69, 0
4, 251760, Note_on_c, 3, 68, 43
4, 252000, Note_off_c, 3, 68, 0
4, 252000, Note_on_c, 3, 69, 42
4, 252240, Note_off_c, 3, 69, 0
4, 252240, Note_on_c, 3, 68, 41
4, 252480, Note_off_c, 3, 68, 0
4, 252480, Note_on_c, 3, 69, 41
4, 252720, Note_off_c, 3, 69, 0
4, 252720, Note_on_c, 3, 68, 40
4, 252920, Note_off_c, 3, 68, 0
4, 252960, Note_on_c, 3, 69, 55
4, 254880, Note_off_c, 3, 69, 0
4, 254880, Note_on_c, 3, 68, 48
4, 255360, Note_off_c, 3, 68, 0
4, 255840, Note_on_c, 3, 75, 57
4, 256800, Note_off_c, 3, 75, 0
4, 256800, Note_on_c, 3, 76, 50
4, 257263, Note_off_c, 3, 76, 0
4, 257760, Note_on_c, 3, 75, 61
4, 258720, Note_off_c, 3, 75, 0
4, 258720, Note_on_c, 3, 76, 54
4, 259200, Note_off_c, 3, 76, 0
4, 262500, Control_c, 3, 64, 0
4, 262560, Control_c, 3, 64, 127
4, 262560, Note_on_c, 3, 64, 46
4, 262800, Note_off_c, 3, 64, 0
4, 262800, Note_on_c, 3, 67, 46
4, 263040, Note_off_c, 3, 67, 0
4, 263040, Note_on_c, 3, 64, 46
4, 263280, Note_off_c, 3, 64, 0
4, 263280, Note_on_c, 3, 67, 47
4, 263520, Note_off_c, 3, 67, 0
4, 263520, Note_on_c, 3, 64, 47
4, 263760, Note_off_c, 3, 64, 0
4, 263760, Note_on_c, 3, 67, 47
4, 264000, Note_off_c, 3, 67, 0
4, 264000, Note_on_c, 3, 64, 48
4, 264240, Note_off_c, 3, 64, 0
4, 264240, Note_on_c, 3, 67, 48
4, 264420, Control_c, 3, 64, 0
4, 264440, Note_off_c, 3, 67, 0
4, 264480, Control_c, 3, 64, 127
4, 264480, Note_on_c, 3, 65, 49
4, 264720, Note_off_c, 3, 65, 0
4, 264720, Note_on_c, 3, 67, 49
4, 264960, Note_off_c, 3, 67, 0
4, 264960, Note_on_c, 3, 65, 49
4, 265200, Note_off_c, 3, 65, 0
4, 265200, Note_on_c, 3, 67, 50
4, 265380, Control_c, 3, 64, 0
4, 265440, Control_c, 3, 64, 127
4, 265440, Note_off_c, 3, 67, 0
4, 265440, Note_on_c, 3, 62, 50
4, 265680, Note_off_c, 3, 62, 0
4, 265680, Note_on_c, 3, 67, 50
4, 265860, Control_c, 3, 64, 0
4, 265920, Control_c, 3, 64, 127
4, 265920, Note_off_c, 3, 67, 0
4, 265920, Note_on_c, 3, 59, 51
4, 266160, Note_off_c, 3, 59, 0
4, 266160, Note_on_c, 3, 67, 51
4, 266340, Control_c, 3, 64, 0
4, 266355, Note_off_c, 3, 67, 0
4, 266400, Control_c, 3, 64, 127
4, 266640, Note_on_c, 3, 67, 51
4, 266820, Control_c, 3, 64, 0
4, 266880, Control_c, 3, 64, 127
4, 266880, Note_off_c, 3, 67, 0
4, 267120, Note_on_c, 3, 67, 49
4, 267300, Control_c, 3, 64, 0
4, 267360, Control_c, 3, 64, 127
4, 267360, Note_off_c, 3, 67, 0
4, 267600, Note_on_c, 3, 60, 48
4, 267780, Control_c, 3, 64, 0
4, 267840, Control_c, 3, 64, 127
4, 267840, Note_off_c, 3, 60, 0
4, 268080, Note_on_c, 3, 65, 47
4, 268260, Control_c, 3, 64, 0
4, 268275, Note_off_c, 3, 65, 0
4, 268320, Note_on_c, 3, 64, 46
4, 268560, Note_off_c, 3, 64, 0
4, 268560, Note_on_c, 3, 62, 46
4, 268800, Note_off_c, 3, 62, 0
4, 268800, Note_on_c, 3, 60, 45
4, 269040, Note_off_c, 3, 60, 0
4, 269040, Note_on_c, 3, 59, 44
4, 269280, Note_off_c, 3, 59, 0
4, 269280, Note_on_c, 3, 62, 45
4, 269320, Note_on_c, 3, 60, 44
4, 269340, Note_off_c, 3, 62, 0
4, 269360, Note_on_c, 3, 62, 44
4, 269380, Note_off_c, 3, 60, 0
4, 269400, Note_on_c, 3, 60, 44
4, 269420, Note_off_c, 3, 62, 0
4, 269520, Note_on_c, 3, 59, 43
4, 269565, Note_off_c, 3, 60, 0
4, 269760, Note_off_c, 3, 59, 0
4, 269760, Note_on_c, 3, 60, 42
4, 270000, Note_off_c, 3, 60, 0
4, 270000, Note_on_c, 3, 62, 41
4, 270180, Control_c, 3, 64, 0
4, 270205, Note_off_c, 3, 62, 0
4, 270240, Control_c, 3, 64, 127
4, 270240, Note_on_c, 3, 55, 60
4, 270480, Note_off_c, 3, 55, 0
4, 270480, Note_on_c, 3, 60, 60
4, 270720, Note_off_c, 3, 60, 0
4, 270720, Note_on_c, 3, 55, 61
4, 270960, Note_off_c, 3, 55, 0
4, 270960, Note_on_c, 3, 60, 61
4, 271140, Control_c, 3, 64, 0
4, 271200, Control_c, 3, 64, 127
4, 271200, Note_off_c, 3, 60, 0
4, 271200, Note_on_c, 3, 53, 61
4, 271440, Note_off_c, 3, 53, 0
4, 271440, Note_on_c, 3, 60, 62
4, 271620, Control_c, 3, 64, 0
4, 271680, Control_c, 3, 64, 127
4, 271680, Note_off_c, 3, 60, 0
4, 271680, Note_on_c, 3, 52, 62
4, 271920, Note_off_c, 3, 52, 0
4, 271920, Note_on_c, 3, 60, 63
4, 272100, Control_c, 3, 64, 0
4, 272120, Note_off_c, 3, 60, 0
4, 272160, Control_c, 3, 64, 127
4, 272160, Note_on_c, 3, 53, 63
4, 272400, Note_off_c, 3, 53, 0
4, 272400, Note_on_c, 3, 55, 64
4, 272640, Note_off_c, 3, 55, 0
4, 272640, Note_on_c, 3, 53, 64
4, 272880, Note_off_c, 3, 53, 0
4, 272880, Note_on_c, 3, 55, 65
4, 273060, Control_c, 3, 64, 0
4, 273120, Control_c, 3, 64, 127
4, 273120, Note_off_c, 3, 55, 0
4, 273120, Note_on_c, 3, 50, 65
4, 273360, Note_off_c, 3, 50, 0
4, 273360, Note_on_c, 3, 55, 66
4, 273540, Control_c, 3, 64, 0
4, 273600, Control_c, 3, 64, 127
4, 273600, Note_off_c, 3, 55, 0
4, 273600, Note_on_c, 3, 47, 66
4, 273840, Note_off_c, 3, 47, 0
4, 273840, Note_on_c, 3, 55, 67
4, 274020, Control_c, 3, 64, 0
4, 274045, Note_off_c, 3, 55, 0
4, 274320, Note_on_c, 3, 55, 66
4, 274520, Note_off_c, 3, 55, 0
4, 274560, Note_on_c, 3, 57, 65
4, 274800, Note_off_c, 3, 57, 0
4, 274800, Note_on_c, 3, 65, 64
4, 275000, Note_off_c, 3, 65, 0
4, 275280, Note_on_c, 3, 64, 61
4, 275520, Note_off_c, 3, 64, 0
4, 275520, Note_on_c, 3, 65, 60
4, 275760, Note_on_c, 3, 62, 59
4, 275905, Note_off_c, 3, 65, 0
4, 275970, Note_off_c, 3, 62, 0
4, 276000, Note_on_c, 3, 55, 57
4, 276240, Note_off_c, 3, 55, 0
4, 276240, Note_on_c, 3, 60, 55
4, 276480, Note_off_c, 3, 60, 0
4, 276480, Note_on_c, 3, 53, 53
4, 276720, Note_off_c, 3, 53, 0
4, 276720, Note_on_c, 3, 60, 51
4, 276960, Note_off_c, 3, 60, 0
4, 276960, Note_on_c, 3, 52, 49
4, 277320, Note_off_c, 3, 52, 0
4, 277860, Control_c, 3, 64, 0
4, 277920, Control_c, 3, 64, 127
4, 278160, Note_on_c, 3, 72, 71
4, 278400, Note_off_c, 3, 72, 0
4, 278400, Note_on_c, 3, 69, 71
4, 278640, Note_off_c, 3, 69, 0
4, 278640, Note_on_c, 3, 72, 72
4, 278820, Control_c, 3, 64, 0
4, 278880, Control_c, 3, 64, 127
4, 278880, Note_off_c, 3, 72, 0
4, 279120, Note_on_c, 3, 72, 74
4, 279360, Note_off_c, 3, 72, 0
4, 279360, Note_on_c, 3, 67, 74
4, 279600, Note_off_c, 3, 67, 0
4, 279600, Note_on_c, 3, 72, 75
4, 279780, Control_c, 3, 64, 0
4, 279800, Note_off_c, 3, 72, 0
4, 279840, Control_c, 3, 64, 127
4, 280080, Note_on_c, 3, 72, 68
4, 280260, Control_c, 3, 64, 0
4, 280320, Control_c, 3, 64, 127
4, 280320, Note_off_c, 3, 72, 0
4, 280560, Note_on_c, 3, 72, 62
4, 280740, Control_c, 3, 64, 0
4, 280800, Control_c, 3, 64, 127
4, 280800, Note_off_c, 3, 72, 0
4, 281040, Note_on_c, 3, 72, 56
4, 281220, Control_c, 3, 64, 0
4, 281280, Control_c, 3, 64, 127
4, 281280, Note_off_c, 3, 72, 0
4, 281520, Note_on_c, 3, 72, 50
4, 281700, Control_c, 3, 64, 0
4, 281725, Note_off_c, 3, 72, 0
4, 281760, Control_c, 3, 64, 127
4, 282000, Note_on_c, 3, 67, 51
4, 282180, Control_c, 3, 64, 0
4, 282240, Control_c, 3, 64, 127
4, 282240, Note_off_c, 3, 67, 0
4, 282480, Note_on_c, 3, 65, 54
4, 282660, Control_c, 3, 64, 0
4, 282720, Control_c, 3, 64, 127
4, 282720, Note_off_c, 3, 65, 0
4, 282960, Note_on_c, 3, 67, 57
4, 283140, Control_c, 3, 64, 0
4, 283160, Note_off_c, 3, 67, 0
4, 283200, Control_c, 3, 64, 127
4, 283440, Note_on_c, 3, 64, 60
4, 283620, Control_c, 3, 64, 0
4, 283680, Control_c, 3, 64, 127
4, 283680, Note_off_c, 3, 64, 0
4, 283920, Note_on_c, 3, 67, 58
4, 284100, Control_c, 3, 64, 0
4, 284160, Control_c, 3, 64, 127
4, 284160, Note_off_c, 3, 67, 0
4, 284400, Note_on_c, 3, 67, 55
4, 284580, Control_c, 3, 64, 0
4, 284640, Note_off_c, 3, 67, 0
4, 293220, Control_c, 3, 64, 0
4, 293280, Control_c, 3, 64, 127
4, 293520, Note_on_c, 3, 55, 71
4, 293760, Note_off_c, 3, 55, 0
4, 293760, Note_on_c, 3, 52, 72
4, 294000, Note_off_c, 3, 52, 0
4, 294000, Note_on_c, 3, 55, 73
4, 294180, Control_c, 3, 64, 0
4, 294240, Control_c, 3, 64, 127
4, 294240, Note_off_c, 3, 55, 0
4, 294480, Note_on_c, 3, 55, 75
4, 294720, Note_off_c, 3, 55, 0
4, 294720, Note_on_c, 3, 52, 76
4, 294960, Note_off_c, 3, 52, 0
4, 294960, Note_on_c, 3, 55, 78
4, 295140, Control_c, 3, 64, 0
4, 295160, Note_off_c, 3, 55, 0
4, 295200, Control_c, 3, 64, 127
4, 295440, Note_on_c, 3, 55, 76
4, 295680, Note_off_c, 3, 55, 0
4, 295680, Note_on_c, 3, 53, 75
4, 295920, Note_off_c, 3, 53, 0
4, 295920, Note_on_c, 3, 55, 73
4, 296100, Control_c, 3, 64, 0
4, 296160, Control_c, 3, 64, 127
4, 296160, Note_off_c, 3, 55, 0
4, 296400, Note_on_c, 3, 55, 70
4, 296640, Note_off_c, 3, 55, 0
4, 296640, Note_on_c, 3, 53, 68
4, 296880, Note_off_c, 3, 53, 0
4, 296880, Note_on_c, 3, 55, 66
4, 297060, Control_c, 3, 64, 0
4, 297085, Note_off_c, 3, 55, 0
4, 297120, Control_c, 3, 64, 127
4, 297360, Note_on_c, 3, 67, 52
4, 297600, Note_off_c, 3, 67, 0
4, 297600, Note_on_c, 3, 64, 53
4, 297840, Note_off_c, 3, 64, 0
4, 297840, Note_on_c, 3, 67, 54
4, 298020, Control_c, 3, 64, 0
4, 298080, Control_c, 3, 64, 127
4, 298080, Note_off_c, 3, 67, 0
4, 298320, Note_on_c, 3, 67, 57
4, 298560, Note_off_c, 3, 67, 0
4, 298560, Note_on_c, 3, 64, 58
4, 298800, Note_off_c, 3, 64, 0
4, 298800, Note_on_c, 3, 67, 60
4, 298980, Control_c, 3, 64, 0
4, 299005, Note_off_c, 3, 67, 0
4, 299040, Control_c, 3, 64, 127
4, 299280, Note_on_c, 3, 67, 58
4, 299520, Note_off_c, 3, 67, 0
4, 299520, Note_on_c, 3, 65, 57
4, 299760, Note_off_c, 3, 65, 0
4, 299760, Note_on_c, 3, 67, 56
4, 299940, Control_c, 3, 64, 0
4, 300000, Control_c, 3, 64, 127
4, 300000, Note_off_c, 3, 67, 0
4, 300240, Note_on_c, 3, 67, 53
4, 300480, Note_off_c, 3, 67, 0
4, 300480, Note_on_c, 3, 65, 52
4, 300720, Note_off_c, 3, 65, 0
4, 300720, Note_on_c, 3, 67, 50
4, 300900, Control_c, 3, 64, 0
4, 300910, Note_off_c, 3, 67, 0
4, 300960, Control_c, 3, 64, 127
4, 301200, Note_on_c, 3, 72, 72
4, 301440, Note_off_c, 3, 72, 0
4, 301440, Note_on_c, 3, 67, 73
4, 301680, Note_off_c, 3, 67, 0
4, 301680, Note_on_c, 3, 72, 73
4, 301860, Control_c, 3, 64, 0
4, 301920, Control_c, 3, 64, 127
4, 301920, Note_off_c, 3, 72, 0
4, 302160, Note_on_c, 3, 72, 74
4, 302400, Note_off_c, 3, 72, 0
4, 302400, Note_on_c, 3, 67, 75
4, 302640, Note_off_c, 3, 67, 0
4, 302640, Note_on_c, 3, 72, 75
4, 302820, Control_c, 3, 64, 0
4, 302835, Note_off_c, 3, 72, 0
4, 302880, Control_c, 3, 64, 127
4, 303120, Note_on_c, 3, 72, 76
4, 303360, Note_off_c, 3, 72, 0
4, 303360, Note_on_c, 3, 69, 77
4, 303600, Note_off_c, 3, 69, 0
4, 303600, Note_on_c, 3, 72, 77
4, 303780, Control_c, 3, 64, 0
4, 303840, Control_c, 3, 64, 127
4, 303840, Note_off_c, 3, 72, 0
4, 304080, Note_on_c, 3, 72, 70
4, 304320, Note_off_c, 3, 72, 0
4, 304320, Note_on_c, 3, 69, 68
4, 304560, Note_off_c, 3, 69, 0
4, 304560, Note_on_c, 3, 72, 67
4, 304740, Control_c, 3, 64, 0
4, 304765, Note_off_c, 3, 72, 0
4, 304800, Control_c, 3, 64, 127
4, 305040, Note_on_c, 3, 72, 63
4, 305220, Control_c, 3, 64, 0
4, 305280, Control_c, 3, 64, 127
4, 305280, Note_off_c, 3, 72, 0
4, 305520, Note_on_c, 3, 74, 59
4, 305700, Control_c, 3, 64, 0
4, 305760, Control_c, 3, 64, 127
4, 305760, Note_off_c, 3, 74, 0
4, 306000, Note_on_c, 3, 72, 55
4, 306180, Control_c, 3, 64, 0
4, 306240, Control_c, 3, 64, 127
4, 306240, Note_off_c, 3, 72, 0
4, 306480, Note_on_c, 3, 71, 51
4, 306660, Control_c, 3, 64, 0
4, 306690, Note_off_c, 3, 71, 0
4, 306720, Control_c, 3, 64, 127
4, 306960, Note_on_c, 3, 72, 73
4, 307200, Note_off_c, 3, 72, 0
4, 307200, Note_on_c, 3, 67, 74
4, 307440, Note_off_c, 3, 67, 0
4, 307440, Note_on_c, 3, 72, 75
4, 307620, Control_c, 3, 64, 0
4, 307680, Control_c, 3, 64, 127
4, 307680, Note_off_c, 3, 72, 0
4, 307920, Note_on_c, 3, 72, 77
4, 308160, Note_off_c, 3, 72, 0
4, 308160, Note_on_c, 3, 67, 78
4, 308400, Note_off_c, 3, 67, 0
4, 308400, Note_on_c, 3, 72, 79
4, 308580, Control_c, 3, 64, 0
4, 308600, Note_off_c, 3, 72, 0
4, 308640, Note_on_c, 3, 72, 81
4, 309520, Note_off_c, 3, 72, 0
4, 310560, Note_on_c, 3, 72, 65
4, 310945, Note_off_c, 3, 72, 0
4, 311040, Note_on_c, 3, 72, 63
4, 311425, Note_off_c, 3, 72, 0
4, 311520, Note_on_c, 3, 72, 60
4, 311905, Note_off_c, 3, 72, 0
4, 312000, Note_on_c, 3, 71, 58
4, 312385, Note_off_c, 3, 71, 0
4, 316260, Control_c, 3, 64, 0
4, 316320, Control_c, 3, 64, 127
4, 316320, Note_on_c, 3, 62, 62
4, 316560, Note_off_c, 3, 62, 0
4, 316560, Note_on_c, 3, 66, 62
4, 316800, Note_off_c, 3, 66, 0
4, 316800, Note_on_c, 3, 62, 63
4, 317040, Note_off_c, 3, 62, 0
4, 317040, Note_on_c, 3, 66, 63
4, 317220, Control_c, 3, 64, 0
4, 317280, Control_c, 3, 64, 127
4, 317280, Note_off_c, 3, 66, 0
4, 317280, Note_on_c, 3, 62, 64
4, 317520, Note_off_c, 3, 62, 0
4, 317520, Note_on_c, 3, 66, 65
4, 317700, Control_c, 3, 64, 0
4, 317760, Control_c, 3, 64, 127
4, 317760, Note_off_c, 3, 66, 0
4, 317760, Note_on_c, 3, 62, 65
4, 318000, Note_off_c, 3, 62, 0
4, 318000, Note_on_c, 3, 66, 66
4, 318180, Control_c, 3, 64, 0
4, 318195, Note_off_c, 3, 66, 0
4, 318240, Control_c, 3, 64, 127
4, 318240, Note_on_c, 3, 62, 67
4, 318480, Note_off_c, 3, 62, 0
4, 318480, Note_on_c, 3, 65, 67
4, 318720, Note_off_c, 3, 65, 0
4, 318720, Note_on_c, 3, 62, 68
4, 318960, Note_off_c, 3, 62, 0
4, 318960, Note_on_c, 3, 65, 68
4, 319140, Control_c, 3, 64, 0
4, 319200, Control_c, 3, 64, 127
4, 319200, Note_off_c, 3, 65, 0
4, 319200, Note_on_c, 3, 59, 69
4, 319440, Note_off_c, 3, 59, 0
4, 319440, Note_on_c, 3, 62, 70
4, 319620, Control_c, 3, 64, 0
4, 319680, Control_c, 3, 64, 127
4, 319680, Note_off_c, 3, 62, 0
4, 319680, Note_on_c, 3, 59, 70
4, 319920, Note_off_c, 3, 59, 0
4, 319920, Note_on_c, 3, 62, 71
4, 320100, Control_c, 3, 64, 0
4, 320120, Note_off_c, 3, 62, 0
4, 325920, Control_c, 3, 64, 0
4, 334680, Note_on_c, 3, 62, 66
4, 334800, Note_off_c, 3, 62, 0
4, 334800, Note_on_c, 3, 61, 66
4, 334920, Note_off_c, 3, 61, 0
4, 334920, Note_on_c, 3, 62, 66
4, 335040, Note_off_c, 3, 62, 0
4, 335160, Note_on_c, 3, 62, 67
4, 335255, Note_off_c, 3, 62, 0
4, 335400, Note_on_c, 3, 62, 67
4, 335520, Note_off_c, 3, 62, 0
4, 335520, Note_on_c, 3, 61, 68
4, 335640, Note_off_c, 3, 61, 0
4, 335640, Note_on_c, 3, 62, 68
4, 335760, Note_off_c, 3, 62, 0
4, 335880, Note_on_c, 3, 62, 69
4, 335975, Note_off_c, 3, 62, 0
4, 336120, Note_on_c, 3, 62, 69
4, 336240, Note_off_c, 3, 62, 0
4, 336240, Note_on_c, 3, 61, 70
4, 336360, Note_off_c, 3, 61, 0
4, 336360, Note_on_c, 3, 62, 70
4, 336480, Note_off_c, 3, 62, 0
4, 336600, Note_on_c, 3, 62, 71
4, 336695, Note_off_c, 3, 62, 0
4, 336840, Note_on_c, 3, 62, 71
4, 336960, Note_off_c, 3, 62, 0
4, 336960, Note_on_c, 3, 61, 71
4, 337080, Note_off_c, 3, 61, 0
4, 337080, Note_on_c, 3, 62, 72
4, 337200, Note_off_c, 3, 62, 0
4, 337320, Note_on_c, 3, 62, 72
4, 337415, Note_off_c, 3, 62, 0
4, 343320, Note_on_c, 3, 55, 52
4, 343440, Note_off_c, 3, 55, 0
4, 343440, Note_on_c, 3, 54, 52
4, 343560, Note_off_c, 3, 54, 0
4, 343560, Note_on_c, 3, 55, 53
4, 343680, Note_off_c, 3, 55, 0
4, 343680, Note_on_c, 3, 57, 53
4, 343800, Note_off_c, 3, 57, 0
4, 343800, Note_on_c, 3, 55, 53
4, 343895, Note_off_c, 3, 55, 0
4, 344760, Note_on_c, 3, 55, 56
4, 344880, Note_off_c, 3, 55, 0
4, 344880, Note_on_c, 3, 54, 56
4, 345000, Note_off_c, 3, 54, 0
4, 345000, Note_on_c, 3, 55, 56
4, 345120, Note_off_c, 3, 55, 0
4, 345120, Note_on_c, 3, 57, 57
4, 345240, Note_off_c, 3, 57, 0
4, 345240, Note_on_c, 3, 55, 57
4, 345335, Note_off_c, 3, 55, 0
4, 346200, Note_on_c, 3, 55, 59
4, 346320, Note_off_c, 3, 55, 0
4, 346320, Note_on_c, 3, 54, 60
4, 346440, Note_off_c, 3, 54, 0
4, 346440, Note_on_c, 3, 55, 60
4, 346560, Note_off_c, 3, 55, 0
4, 346560, Note_on_c, 3, 57, 60
4, 346680, Note_off_c, 3, 57, 0
4, 346680, Note_on_c, 3, 55, 60
4, 346775, Note_off_c, 3, 55, 0
4, 347640, Note_on_c, 3, 55, 63
4, 347760, Note_off_c, 3, 55, 0
4, 347760, Note_on_c, 3, 54, 63
4, 347880, Note_off_c, 3, 54, 0
4, 347880, Note_on_c, 3, 55, 63
4, 348000, Note_off_c, 3, 55, 0
4, 348000, Note_on_c, 3, 57, 64
4, 348120, Note_off_c, 3, 57, 0
4, 348120, Note_on_c, 3, 55, 64
4, 348215, Note_off_c, 3, 55, 0
4, 349080, Note_on_c, 3, 67, 66
4, 349200, Note_off_c, 3, 67, 0
4, 349200, Note_on_c, 3, 66, 67
4, 349320, Note_off_c, 3, 66, 0
4, 349320, Note_on_c, 3, 67, 67
4, 349440, Note_off_c, 3, 67, 0
4, 349560, Note_on_c, 3, 67, 68
4, 349680, Note_off_c, 3, 67, 0
4, 349800, Note_on_c, 3, 67, 68
4, 349920, Note_off_c, 3, 67, 0
4, 349920, Note_on_c, 3, 66, 68
4, 350040, Note_off_c, 3, 66, 0
4, 350040, Note_on_c, 3, 67, 69
4, 350160, Note_off_c, 3, 67, 0
4, 350280, Note_on_c, 3, 67, 69
4, 350375, Note_off_c, 3, 67, 0
4, 350520, Note_on_c, 3, 67, 70
4, 350640, Note_off_c, 3, 67, 0
4, 350640, Note_on_c, 3, 66, 70
4, 350760, Note_off_c, 3, 66, 0
4, 350760, Note_on_c, 3, 67, 70
4, 350880, Note_off_c, 3, 67, 0
4, 351000, Note_on_c, 3, 67, 71
4, 351120, Note_off_c, 3, 67, 0
4, 351240, Note_on_c, 3, 67, 72
4, 351360, Note_off_c, 3, 67, 0
4, 351360, Note_on_c, 3, 66, 72
4, 351480, Note_off_c, 3, 66, 0
4, 351480, Note_on_c, 3, 67, 72
4, 351600, Note_off_c, 3, 67, 0
4, 351720, Note_on_c, 3, 67, 73
4, 351815, Note_off_c, 3, 67, 0
4, 351960, Note_on_c, 3, 67, 73
4, 352080, Note_off_c, 3, 67, 0
4, 352080, Note_on_c, 3, 66, 74
4, 352200, Note_off_c, 3, 66, 0
4, 352200, Note_on_c, 3, 67, 74
4, 352320, Note_off_c, 3, 67, 0
4, 352440, Note_on_c, 3, 67, 75
4, 352560, Note_off_c, 3, 67, 0
4, 352680, Note_on_c, 3, 67, 75
4, 352800, Note_off_c, 3, 67, 0
4, 352800, Note_on_c, 3, 66, 76
4, 352920, Note_off_c, 3, 66, 0
4, 352920, Note_on_c, 3, 67, 76
4, 353040, Note_off_c, 3, 67, 0
4, 353160, Note_on_c, 3, 67, 76
4, 353255, Note_off_c, 3, 67, 0
4, 376440, Note_on_c, 3, 66, 77
4, 376560, Note_off_c, 3, 66, 0
4, 376560, Note_on_c, 3, 62, 77
4, 376680, Note_off_c, 3, 62, 0
4, 376680, Note_on_c, 3, 66, 76
4, 376800, Note_off_c, 3, 66, 0
4, 376800, Note_on_c, 3, 57, 76
4, 376920, Note_on_c, 3, 66, 75
4, 376992, Note_off_c, 3, 57, 0
4, 377040, Note_off_c, 3, 66, 0
4, 377160, Note_on_c, 3, 67, 74
4, 377280, Note_off_c, 3, 67, 0
4, 377280, Note_on_c, 3, 61, 74
4, 377400, Note_off_c, 3, 61, 0
4, 377400, Note_on_c, 3, 67, 73
4, 377520, Note_off_c, 3, 67, 0
4, 377520, Note_on_c, 3, 57, 72
4, 377640, Note_on_c, 3, 67, 72
4, 377712, Note_off_c, 3, 57, 0
4, 377760, Note_off_c, 3, 67, 0
4, 399360, Control_c, 3, 64, 0
4, 402240, Control_c, 3, 64, 127
4, 405060, Control_c, 3, 64, 0
4, 408060, Control_c, 3, 64, 127
4, 409320, Control_c, 3, 64, 0
4, 409440, Control_c, 3, 64, 127
4, 410820, Control_c, 3, 64, 0
4, 410940, Control_c, 3, 64, 127
4, 413700, Control_c, 3, 64, 0
4, 413880, Note_on_c, 3, 59, 70
4, 413975, Note_off_c, 3, 59, 0
4, 414000, Note_on_c, 3, 58, 70
4, 414095, Note_off_c, 3, 58, 0
4, 414120, Note_on_c, 3, 59, 71
4, 414215, Note_off_c, 3, 59, 0
4, 414240, Note_on_c, 3, 58, 71
4, 414335, Note_off_c, 3, 58, 0
4, 414360, Note_on_c, 3, 59, 71
4, 414455, Note_off_c, 3, 59, 0
4, 414600, Note_on_c, 3, 59, 71
4, 414695, Note_off_c, 3, 59, 0
4, 414720, Note_on_c, 3, 58, 71
4, 414815, Note_off_c, 3, 58, 0
4, 414840, Note_on_c, 3, 59, 71
4, 414935, Note_off_c, 3, 59, 0
4, 414960, Note_on_c, 3, 58, 72
4, 415055, Note_off_c, 3, 58, 0
4, 415080, Note_on_c, 3, 59, 72
4, 415175, Note_off_c, 3, 59, 0
4, 415320, Note_on_c, 3, 59, 72
4, 415415, Note_off_c, 3, 59, 0
4, 415440, Note_on_c, 3, 58, 72
4, 415535, Note_off_c, 3, 58, 0
4, 415560, Note_on_c, 3, 59, 72
4, 415655, Note_off_c, 3, 59, 0
4, 415680, Note_on_c, 3, 58, 72
4, 415775, Note_off_c, 3, 58, 0
4, 415800, Note_on_c, 3, 59, 73
4, 415895, Note_off_c, 3, 59, 0
4, 416040, Note_on_c, 3, 59, 73
4, 416135, Note_off_c, 3, 59, 0
4, 416160, Note_on_c, 3, 58, 73
4, 416255, Note_off_c, 3, 58, 0
4, 416280, Note_on_c, 3, 59, 73
4, 416375, Note_off_c, 3, 59, 0
4, 416400, Note_on_c, 3, 58, 73
4, 416495, Note_off_c, 3, 58, 0
4, 416520, Note_on_c, 3, 59, 73
4, 416615, Note_off_c, 3, 59, 0
4, 423240, Note_on_c, 3, 67, 82
4, 423360, Note_off_c, 3, 67, 0
4, 423360, Note_on_c, 3, 64, 82
4, 423480, Note_off_c, 3, 64, 0
4, 423480, Note_on_c, 3, 67, 82
4, 423600, Note_off_c, 3, 67, 0
4, 423600, Note_on_c, 3, 59, 82
4, 423720, Note_off_c, 3, 59, 0
4, 423720, Note_on_c, 3, 67, 82
4, 423840, Note_off_c, 3, 67, 0
4, 423960, Note_on_c, 3, 69, 82
4, 424080, Note_off_c, 3, 69, 0
4, 424080, Note_on_c, 3, 63, 81
4, 424200, Note_off_c, 3, 63, 0
4, 424200, Note_on_c, 3, 69, 80
4, 424320, Note_off_c, 3, 69, 0
4, 424320, Note_on_c, 3, 59, 79
4, 424440, Note_off_c, 3, 59, 0
4, 424440, Note_on_c, 3, 69, 77
4, 424560, Note_off_c, 3, 69, 0
4, 449040, Control_c, 3, 64, 0
4, 449280, Note_on_c, 3, 55, 37
4, 449470, Note_off_c, 3, 55, 0
4, 449520, Note_on_c, 3, 55, 38
4, 449710, Note_off_c, 3, 55, 0
4, 449760, Note_on_c, 3, 55, 39
4, 449950, Note_off_c, 3, 55, 0
4, 450000, Note_on_c, 3, 55, 40
4, 450190, Note_off_c, 3, 55, 0
4, 450240, Note_on_c, 3, 55, 42
4, 450430, Note_off_c, 3, 55, 0
4, 450480, Note_on_c, 3, 55, 43
4, 450670, Note_off_c, 3, 55, 0
4, 450720, Note_on_c, 3, 55, 43
4, 450910, Note_off_c, 3, 55, 0
4, 450960, Note_on_c, 3, 55, 42
4, 451150, Note_off_c, 3, 55, 0
4, 451200, Note_on_c, 3, 55, 41
4, 451390, Note_off_c, 3, 55, 0
4, 451440, Note_on_c, 3, 55, 40
4, 451630, Note_off_c, 3, 55, 0
4, 451680, Note_on_c, 3, 55, 39
4, 451870, Note_off_c, 3, 55, 0
4, 452160, Note_on_c, 3, 55, 39
4, 452350, Note_off_c, 3, 55, 0
4, 452400, Note_on_c, 3, 55, 40
4, 452590, Note_off_c, 3, 55, 0
4, 452640, Note_on_c, 3, 55, 42
4, 452830, Note_off_c, 3, 55, 0
4, 452880, Note_on_c, 3, 55, 44
4, 453070, Note_off_c, 3, 55, 0
4, 453120, Note_on_c, 3, 55, 45
4, 453310, Note_off_c, 3, 55, 0
4, 453360, Note_on_c, 3, 55, 47
4, 453550, Note_off_c, 3, 55, 0
4, 453600, Note_on_c, 3, 55, 47
4, 453790, Note_off_c, 3, 55, 0
4, 453840, Note_on_c, 3, 55, 45
4, 454030, Note_off_c, 3, 55, 0
4, 454080, Note_on_c, 3, 55, 44
4, 454270, Note_off_c, 3, 55, 0
4, 454320, Note_on_c, 3, 55, 43
4, 454510, Note_off_c, 3, 55, 0
4, 454560, Note_on_c, 3, 55, 42
4, 454750, Note_off_c, 3, 55, 0
4, 457800, Note_on_c, 3, 62, 66
4, 457920, Note_off_c, 3, 62, 0
4, 457920, Note_on_c, 3, 61, 66
4, 458040, Note_off_c, 3, 61, 0
4, 458040, Note_on_c, 3, 62, 66
4, 458160, Note_off_c, 3, 62, 0
4, 458280, Note_on_c, 3, 62, 67
4, 458375, Note_off_c, 3, 62, 0
4, 458520, Note_on_c, 3, 62, 67
4, 458640, Note_off_c, 3, 62, 0
4, 458640, Note_on_c, 3, 61, 68
4, 458760, Note_off_c, 3, 61, 0
4, 458760, Note_on_c, 3, 62, 68
4, 458880, Note_off_c, 3, 62, 0
4, 459000, Note_on_c, 3, 62, 69
4, 459095, Note_off_c, 3, 62, 0
4, 459240, Note_on_c, 3, 62, 69
4, 459360, Note_off_c, 3, 62, 0
4, 459360, Note_on_c, 3, 61, 70
4, 459480, Note_off_c, 3, 61, 0
4, 459480, Note_on_c, 3, 62, 70
4, 459600, Note_off_c, 3, 62, 0
4, 459720, Note_on_c, 3, 62, 71
4, 459815, Note_off_c, 3, 62, 0
4, 459960, Note_on_c, 3, 62, 71
4, 460080, Note_off_c, 3, 62, 0
4, 460080, Note_on_c, 3, 61, 71
4, 460200, Note_off_c, 3, 61, 0
4, 460200, Note_on_c, 3, 62, 72
4, 460320, Note_off_c, 3, 62, 0
4, 460440, Note_on_c, 3, 62, 72
4, 460535, Note_off_c, 3, 62, 0
4, 466440, Note_on_c, 3, 55, 52
4, 466560, Note_off_c, 3, 55, 0
4, 466560, Note_on_c, 3, 54, 52
4, 466680, Note_off_c, 3, 54, 0
4, 466680, Note_on_c, 3, 55, 53
4, 466800, Note_off_c, 3, 55, 0
4, 466800, Note_on_c, 3, 57, 53
4, 466920, Note_off_c, 3, 57, 0
4, 466920, Note_on_c, 3, 55, 53
4, 467015, Note_off_c, 3, 55, 0
4, 467880, Note_on_c, 3, 55, 56
4, 468000, Note_off_c, 3, 55, 0
4, 468000, Note_on_c, 3, 54, 56
4, 468120, Note_off_c, 3, 54, 0
4, 468120, Note_on_c, 3, 55, 56
4, 468240, Note_off_c, 3, 55, 0
4, 468240, Note_on_c, 3, 57, 57
4, 468360, Note_off_c, 3, 57, 0
4, 468360, Note_on_c, 3, 55, 57
4, 468455, Note_off_c, 3, 55, 0
4, 469320, Note_on_c, 3, 55, 59
4, 469440, Note_off_c, 3, 55, 0
4, 469440, Note_on_c, 3, 54, 60
4, 469560, Note_off_c, 3, 54, 0
4, 469560, Note_on_c, 3, 55, 60
4, 469680, Note_off_c, 3, 55, 0
4, 469680, Note_on_c, 3, 57, 60
4, 469800, Note_off_c, 3, 57, 0
4, 469800, Note_on_c, 3, 55, 60
4, 469895, Note_off_c, 3, 55, 0
4, 470760, Note_on_c, 3, 55, 63
4, 470880, Note_off_c, 3, 55, 0
4, 470880, Note_on_c, 3, 54, 63
4, 471000, Note_off_c, 3, 54, 0
4, 471000, Note_on_c, 3, 55, 63
4, 471120, Note_off_c, 3, 55, 0
4, 471120, Note_on_c, 3, 57, 64
4, 471240, Note_off_c, 3, 57, 0
4, 471240, Note_on_c, 3, 55, 64
4, 471335, Note_off_c, 3, 55, 0
4, 472200, Note_on_c, 3, 67, 66
4, 472320, Note_off_c, 3, 67, 0
4, 472320, Note_on_c, 3, 66, 67
4, 472440, Note_off_c, 3, 66, 0
4, 472440, Note_on_c, 3, 67, 67
4, 472560, Note_off_c, 3, 67, 0
4, 472680, Note_on_c, 3, 67, 68
4, 472800, Note_off_c, 3, 67, 0
4, 472920, Note_on_c, 3, 67, 68
4, 473040, Note_off_c, 3, 67, 0
4, 473040, Note_on_c, 3, 66, 68
4, 473160, Note_off_c, 3, 66, 0
4, 473160, Note_on_c, 3, 67, 69
4, 473280, Note_off_c, 3, 67, 0
4, 473400, Note_on_c, 3, 67, 69
4, 473495, Note_off_c, 3, 67, 0
4, 473640, Note_on_c, 3, 67, 70
4, 473760, Note_off_c, 3, 67, 0
4, 473760, Note_on_c, 3, 66, 70
4, 473880, Note_off_c, 3, 66, 0
4, 473880, Note_on_c, 3, 67, 70
4, 474000, Note_off_c, 3, 67, 0
4, 474120, Note_on_c, 3, 67, 71
4, 474240, Note_off_c, 3, 67, 0
4, 474360, Note_on_c, 3, 67, 72
4, 474480, Note_off_c, 3, 67, 0
4, 474480, Note_on_c, 3, 66, 72
4, 474600, Note_off_c, 3, 66, 0
4, 474600, Note_on_c, 3, 67, 72
4, 474720, Note_off_c, 3, 67, 0
4, 474840, Note_on_c, 3, 67, 73
4, 474935, Note_off_c, 3, 67, 0
4, 475080, Note_on_c, 3, 67, 73
4, 475200, Note_off_c, 3, 67, 0
4, 475200, Note_on_c, 3, 66, 74
4, 475320, Note_off_c, 3, 66, 0
4, 475320, Note_on_c, 3, 67, 74
4, 475440, Note_off_c, 3, 67, 0
4, 475560, Note_on_c, 3, 67, 75
4, 475680, Note_off_c, 3, 67, 0
4, 475800, Note_on_c, 3, 67, 75
4, 475920, Note_off_c, 3, 67, 0
4, 475920, Note_on_c, 3, 66, 76
4, 476040, Note_off_c, 3, 66, 0
4, 476040, Note_on_c, 3, 67, 76
4, 476160, Note_off_c, 3, 67, 0
4, 476280, Note_on_c, 3, 67, 76
4, 476375, Note_off_c, 3, 67, 0
4, 499560, Note_on_c, 3, 71, 77
4, 499680, Note_off_c, 3, 71, 0
4, 499680, Note_on_c, 3, 67, 79
4, 499800, Note_off_c, 3, 67, 0
4, 499800, Note_on_c, 3, 71, 78
4, 499920, Note_off_c, 3, 71, 0
4, 499920, Note_on_c, 3, 62, 77
4, 500040, Note_off_c, 3, 62, 0
4, 500040, Note_on_c, 3, 71, 76
4, 500160, Note_off_c, 3, 71, 0
4, 500280, Note_on_c, 3, 72, 74
4, 500400, Note_off_c, 3, 72, 0
4, 500400, Note_on_c, 3, 66, 74
4, 500520, Note_off_c, 3, 66, 0
4, 500520, Note_on_c, 3, 72, 73
4, 500640, Note_off_c, 3, 72, 0
4, 500640, Note_on_c, 3, 62, 72
4, 500760, Note_off_c, 3, 62, 0
4, 500760, Note_on_c, 3, 72, 71
4, 500880, Note_off_c, 3, 72, 0
4, 522480, Control_c, 3, 64, 127
4, 523200, Control_c, 3, 64, 0
4, 523920, Control_c, 3, 64, 127
4, 524640, Control_c, 3, 64, 0
4, 524640, End_track
5, 0, Start_track
5, 0, Title_t, "Unnamed Track"
5, 0, Control_c, 4, 0, 0
5, 0, Control_c, 4, 32, 0
5, 0, Program_c, 4, 0
5, 0, Control_c, 4, 7, 120
5, 0, Pitch_bend_c, 4, 8192
5, 0, Control_c, 4, 1, 0
5, 0, Control_c, 4, 1, 0
5, 0, Pitch_bend_c, 4, 8192
5, 0, Control_c, 4, 93, 18
5, 0, Pitch_bend_c, 4, 8192
5, 0, Control_c, 4, 64, 0
5, 0, Control_c, 4, 93, 28
5, 0, Control_c, 4, 91, 100
5, 0, Control_c, 4, 10, 55
5, 7200, Note_on_c, 4, 67, 74
5, 8100, Note_off_c, 4, 67, 0
5, 8640, Note_on_c, 4, 67, 79
5, 9540, Note_off_c, 4, 67, 0
5, 10080, Note_on_c, 4, 60, 80
5, 10287, Note_off_c, 4, 60, 0
5, 10560, Note_on_c, 4, 59, 79
5, 10767, Note_off_c, 4, 59, 0
5, 11040, Note_on_c, 4, 57, 82
5, 11280, Note_off_c, 4, 57, 0
5, 11520, Note_on_c, 4, 59, 85
5, 11905, Note_off_c, 4, 59, 0
5, 12480, Note_on_c, 4, 55, 79
5, 12865, Note_off_c, 4, 55, 0
5, 13440, Note_on_c, 4, 55, 75
5, 13825, Note_off_c, 4, 55, 0
5, 13920, Note_on_c, 4, 60, 73
5, 14305, Note_off_c, 4, 60, 0
5, 14400, Note_on_c, 4, 59, 70
5, 14710, Note_off_c, 4, 59, 0
5, 15840, Note_on_c, 4, 55, 55
5, 16740, Note_off_c, 4, 55, 0
5, 17280, Note_on_c, 4, 55, 61
5, 18185, Note_off_c, 4, 55, 0
5, 18720, Note_on_c, 4, 60, 74
5, 18990, Note_off_c, 4, 60, 0
5, 19200, Note_on_c, 4, 59, 74
5, 19470, Note_off_c, 4, 59, 0
5, 19680, Note_on_c, 4, 57, 80
5, 19920, Note_off_c, 4, 57, 0
5, 20160, Note_on_c, 4, 59, 85
5, 20545, Note_off_c, 4, 59, 0
5, 21120, Note_on_c, 4, 55, 78
5, 21505, Note_off_c, 4, 55, 0
5, 22080, Note_on_c, 4, 55, 74
5, 22465, Note_off_c, 4, 55, 0
5, 22560, Note_on_c, 4, 60, 72
5, 22945, Note_off_c, 4, 60, 0
5, 23040, Note_on_c, 4, 59, 68
5, 23425, Note_off_c, 4, 59, 0
5, 51360, Note_on_c, 4, 64, 89
5, 51360, Note_on_c, 4, 57, 89
5, 51745, Note_off_c, 4, 57, 0
5, 51745, Note_off_c, 4, 64, 0
5, 51840, Note_on_c, 4, 57, 82
5, 51840, Note_on_c, 4, 62, 82
5, 52225, Note_off_c, 4, 62, 0
5, 52225, Note_off_c, 4, 57, 0
5, 52800, Note_on_c, 4, 57, 92
5, 52800, Note_on_c, 4, 62, 92
5, 53185, Note_off_c, 4, 62, 0
5, 53185, Note_off_c, 4, 57, 0
5, 53280, Note_on_c, 4, 64, 81
5, 53280, Note_on_c, 4, 59, 81
5, 53665, Note_off_c, 4, 59, 0
5, 53665, Note_off_c, 4, 64, 0
5, 53760, Note_on_c, 4, 62, 89
5, 53760, Note_on_c, 4, 66, 89
5, 54145, Note_off_c, 4, 66, 0
5, 54145, Note_off_c, 4, 62, 0
5, 54240, Note_on_c, 4, 64, 86
5, 54240, Note_on_c, 4, 67, 86
5, 54625, Note_off_c, 4, 67, 0
5, 54625, Note_off_c, 4, 64, 0
5, 54720, Note_on_c, 4, 66, 82
5, 55105, Note_off_c, 4, 66, 0
5, 58320, Note_on_c, 4, 61, 90
5, 58320, Note_on_c, 4, 64, 90
5, 58440, Note_off_c, 4, 64, 0
5, 58440, Note_off_c, 4, 61, 0
5, 58560, Note_on_c, 4, 57, 101
5, 58560, Note_on_c, 4, 64, 101
5, 58680, Note_off_c, 4, 64, 0
5, 58680, Note_off_c, 4, 57, 0
5, 58800, Note_on_c, 4, 57, 95
5, 58800, Note_on_c, 4, 64, 95
5, 58920, Note_off_c, 4, 64, 0
5, 58920, Note_off_c, 4, 57, 0
5, 59040, Note_on_c, 4, 57, 90
5, 59040, Note_on_c, 4, 62, 90
5, 59520, Note_off_c, 4, 62, 0
5, 59520, Note_off_c, 4, 57, 0
5, 59760, Note_on_c, 4, 57, 92
5, 59760, Note_on_c, 4, 62, 92
5, 59880, Note_off_c, 4, 62, 0
5, 59880, Note_off_c, 4, 57, 0
5, 60000, Note_on_c, 4, 57, 101
5, 60000, Note_on_c, 4, 62, 101
5, 60120, Note_off_c, 4, 62, 0
5, 60120, Note_off_c, 4, 57, 0
5, 60240, Note_on_c, 4, 57, 96
5, 60240, Note_on_c, 4, 62, 96
5, 60360, Note_off_c, 4, 62, 0
5, 60360, Note_off_c, 4, 57, 0
5, 60480, Note_on_c, 4, 59, 93
5, 60480, Note_on_c, 4, 64, 93
5, 60865, Note_off_c, 4, 64, 0
5, 60865, Note_off_c, 4, 59, 0
5, 60960, Note_on_c, 4, 62, 98
5, 60960, Note_on_c, 4, 66, 98
5, 61345, Note_off_c, 4, 66, 0
5, 61345, Note_off_c, 4, 62, 0
5, 61440, Note_on_c, 4, 64, 92
5, 61440, Note_on_c, 4, 67, 92
5, 61825, Note_off_c, 4, 67, 0
5, 61825, Note_off_c, 4, 64, 0
5, 61920, Note_on_c, 4, 66, 89
5, 62305, Note_off_c, 4, 66, 0
5, 78240, Note_on_c, 4, 66, 32
5, 78625, Note_off_c, 4, 66, 0
5, 78720, Note_on_c, 4, 66, 32
5, 79105, Note_off_c, 4, 66, 0
5, 79680, Note_on_c, 4, 67, 34
5, 80065, Note_off_c, 4, 67, 0
5, 80160, Note_on_c, 4, 67, 35
5, 80545, Note_off_c, 4, 67, 0
5, 81120, Note_on_c, 4, 69, 36
5, 81505, Note_off_c, 4, 69, 0
5, 81600, Note_on_c, 4, 69, 37
5, 81985, Note_off_c, 4, 69, 0
5, 82560, Note_on_c, 4, 71, 38
5, 82945, Note_off_c, 4, 71, 0
5, 83040, Note_on_c, 4, 73, 39
5, 83425, Note_off_c, 4, 73, 0
5, 84000, Note_on_c, 4, 54, 40
5, 84385, Note_off_c, 4, 54, 0
5, 84480, Note_on_c, 4, 54, 41
5, 84865, Note_off_c, 4, 54, 0
5, 85440, Note_on_c, 4, 55, 42
5, 85825, Note_off_c, 4, 55, 0
5, 85920, Note_on_c, 4, 55, 43
5, 86305, Note_off_c, 4, 55, 0
5, 86880, Note_on_c, 4, 57, 44
5, 87265, Note_off_c, 4, 57, 0
5, 87360, Note_on_c, 4, 57, 45
5, 87745, Note_off_c, 4, 57, 0
5, 88320, Note_on_c, 4, 59, 47
5, 88705, Note_off_c, 4, 59, 0
5, 88800, Note_on_c, 4, 61, 47
5, 89185, Note_off_c, 4, 61, 0
5, 89520, Note_on_c, 4, 62, 64
5, 89710, Note_off_c, 4, 62, 0
5, 89760, Note_on_c, 4, 62, 64
5, 89950, Note_off_c, 4, 62, 0
5, 90000, Note_on_c, 4, 62, 64
5, 90190, Note_off_c, 4, 62, 0
5, 90240, Note_on_c, 4, 62, 65
5, 90430, Note_off_c, 4, 62, 0
5, 90480, Note_on_c, 4, 62, 65
5, 90670, Note_off_c, 4, 62, 0
5, 90720, Note_on_c, 4, 62, 65
5, 90910, Note_off_c, 4, 62, 0
5, 90960, Note_on_c, 4, 62, 66
5, 91150, Note_off_c, 4, 62, 0
5, 91200, Note_on_c, 4, 62, 66
5, 91390, Note_off_c, 4, 62, 0
5, 91440, Note_on_c, 4, 62, 66
5, 91630, Note_off_c, 4, 62, 0
5, 91680, Note_on_c, 4, 62, 66
5, 91870, Note_off_c, 4, 62, 0
5, 91920, Note_on_c, 4, 62, 67
5, 92110, Note_off_c, 4, 62, 0
5, 92400, Note_on_c, 4, 62, 67
5, 92590, Note_off_c, 4, 62, 0
5, 92640, Note_on_c, 4, 62, 67
5, 92830, Note_off_c, 4, 62, 0
5, 92880, Note_on_c, 4, 62, 68
5, 93070, Note_off_c, 4, 62, 0
5, 93120, Note_on_c, 4, 62, 68
5, 93310, Note_off_c, 4, 62, 0
5, 93360, Note_on_c, 4, 62, 68
5, 93550, Note_off_c, 4, 62, 0
5, 93600, Note_on_c, 4, 62, 69
5, 93790, Note_off_c, 4, 62, 0
5, 93840, Note_on_c, 4, 62, 69
5, 94030, Note_off_c, 4, 62, 0
5, 94080, Note_on_c, 4, 62, 69
5, 94270, Note_off_c, 4, 62, 0
5, 94320, Note_on_c, 4, 62, 69
5, 94510, Note_off_c, 4, 62, 0
5, 94560, Note_on_c, 4, 62, 70
5, 94750, Note_off_c, 4, 62, 0
5, 94800, Note_on_c, 4, 62, 70
5, 94990, Note_off_c, 4, 62, 0
5, 95280, Note_on_c, 4, 62, 71
5, 95470, Note_off_c, 4, 62, 0
5, 95520, Note_on_c, 4, 62, 71
5, 95710, Note_off_c, 4, 62, 0
5, 95760, Note_on_c, 4, 62, 71
5, 95950, Note_off_c, 4, 62, 0
5, 96000, Note_on_c, 4, 62, 71
5, 96190, Note_off_c, 4, 62, 0
5, 96240, Note_on_c, 4, 62, 72
5, 96430, Note_off_c, 4, 62, 0
5, 96480, Note_on_c, 4, 62, 72
5, 96670, Note_off_c, 4, 62, 0
5, 96720, Note_on_c, 4, 62, 72
5, 96910, Note_off_c, 4, 62, 0
5, 96960, Note_on_c, 4, 62, 73
5, 97150, Note_off_c, 4, 62, 0
5, 97200, Note_on_c, 4, 62, 73
5, 97390, Note_off_c, 4, 62, 0
5, 97440, Note_on_c, 4, 62, 73
5, 97630, Note_off_c, 4, 62, 0
5, 97680, Note_on_c, 4, 62, 73
5, 97870, Note_off_c, 4, 62, 0
5, 108240, Note_on_c, 4, 62, 67
5, 108480, Note_off_c, 4, 62, 0
5, 108480, Note_on_c, 4, 60, 60
5, 108720, Note_off_c, 4, 60, 0
5, 108720, Note_on_c, 4, 59, 54
5, 108910, Note_off_c, 4, 59, 0
5, 114000, Note_on_c, 4, 64, 68
5, 114240, Note_off_c, 4, 64, 0
5, 114240, Note_on_c, 4, 62, 62
5, 114480, Note_off_c, 4, 62, 0
5, 114480, Note_on_c, 4, 60, 56
5, 114670, Note_off_c, 4, 60, 0
5, 147840, Note_on_c, 4, 57, 85
5, 147840, Note_on_c, 4, 50, 85
5, 148225, Note_off_c, 4, 50, 0
5, 148225, Note_off_c, 4, 57, 0
5, 148320, Note_on_c, 4, 55, 77
5, 148320, Note_on_c, 4, 50, 77
5, 148705, Note_off_c, 4, 50, 0
5, 148705, Note_off_c, 4, 55, 0
5, 149280, Note_on_c, 4, 55, 78
5, 149280, Note_on_c, 4, 50, 78
5, 149665, Note_off_c, 4, 50, 0
5, 149665, Note_off_c, 4, 55, 0
5, 149760, Note_on_c, 4, 57, 78
5, 149760, Note_on_c, 4, 52, 78
5, 150145, Note_off_c, 4, 52, 0
5, 150145, Note_off_c, 4, 57, 0
5, 150240, Note_on_c, 4, 59, 87
5, 150240, Note_on_c, 4, 55, 87
5, 150625, Note_off_c, 4, 55, 0
5, 150625, Note_off_c, 4, 59, 0
5, 150720, Note_on_c, 4, 60, 83
5, 150720, Note_on_c, 4, 57, 83
5, 151105, Note_off_c, 4, 57, 0
5, 151105, Note_off_c, 4, 60, 0
5, 151200, Note_on_c, 4, 59, 78
5, 151585, Note_off_c, 4, 59, 0
5, 154800, Note_on_c, 4, 66, 86
5, 154800, Note_on_c, 4, 69, 86
5, 154895, Note_off_c, 4, 69, 0
5, 154895, Note_off_c, 4, 66, 0
5, 155040, Note_on_c, 4, 62, 95
5, 155040, Note_on_c, 4, 69, 95
5, 155135, Note_off_c, 4, 69, 0
5, 155135, Note_off_c, 4, 62, 0
5, 155280, Note_on_c, 4, 62, 90
5, 155280, Note_on_c, 4, 69, 90
5, 155375, Note_off_c, 4, 69, 0
5, 155375, Note_off_c, 4, 62, 0
5, 155520, Note_on_c, 4, 62, 87
5, 155520, Note_on_c, 4, 67, 87
5, 155905, Note_off_c, 4, 67, 0
5, 155905, Note_off_c, 4, 62, 0
5, 156240, Note_on_c, 4, 62, 88
5, 156240, Note_on_c, 4, 67, 88
5, 156335, Note_off_c, 4, 67, 0
5, 156335, Note_off_c, 4, 62, 0
5, 156480, Note_on_c, 4, 62, 98
5, 156480, Note_on_c, 4, 67, 98
5, 156575, Note_off_c, 4, 67, 0
5, 156575, Note_off_c, 4, 62, 0
5, 156720, Note_on_c, 4, 62, 94
5, 156720, Note_on_c, 4, 67, 94
5, 156815, Note_off_c, 4, 67, 0
5, 156815, Note_off_c, 4, 62, 0
5, 156960, Note_on_c, 4, 64, 90
5, 156960, Note_on_c, 4, 69, 90
5, 157345, Note_off_c, 4, 69, 0
5, 157345, Note_off_c, 4, 64, 0
5, 157440, Note_on_c, 4, 71, 97
5, 157440, Note_on_c, 4, 67, 97
5, 157825, Note_off_c, 4, 67, 0
5, 157825, Note_off_c, 4, 71, 0
5, 157920, Note_on_c, 4, 72, 95
5, 157920, Note_on_c, 4, 69, 95
5, 158305, Note_off_c, 4, 69, 0
5, 158305, Note_off_c, 4, 72, 0
5, 158400, Note_on_c, 4, 71, 93
5, 158785, Note_off_c, 4, 71, 0
5, 170040, Note_on_c, 4, 55, 76
5, 170160, Note_off_c, 4, 55, 0
5, 170160, Note_on_c, 4, 54, 76
5, 170280, Note_off_c, 4, 54, 0
5, 170280, Note_on_c, 4, 55, 75
5, 170400, Note_off_c, 4, 55, 0
5, 170520, Note_on_c, 4, 55, 74
5, 170640, Note_off_c, 4, 55, 0
5, 170640, Note_on_c, 4, 54, 73
5, 170760, Note_off_c, 4, 54, 0
5, 170760, Note_on_c, 4, 55, 72
5, 170880, Note_off_c, 4, 55, 0
5, 171000, Note_on_c, 4, 55, 71
5, 171120, Note_off_c, 4, 55, 0
5, 171120, Note_on_c, 4, 54, 70
5, 171240, Note_off_c, 4, 54, 0
5, 171240, Note_on_c, 4, 55, 70
5, 171360, Note_off_c, 4, 55, 0
5, 171480, Note_on_c, 4, 55, 68
5, 171600, Note_off_c, 4, 55, 0
5, 171600, Note_on_c, 4, 54, 67
5, 171720, Note_off_c, 4, 54, 0
5, 171720, Note_on_c, 4, 55, 66
5, 171840, Note_off_c, 4, 55, 0
5, 171960, Note_on_c, 4, 55, 64
5, 172080, Note_off_c, 4, 55, 0
5, 172080, Note_on_c, 4, 54, 62
5, 172200, Note_off_c, 4, 54, 0
5, 172200, Note_on_c, 4, 55, 62
5, 172320, Note_off_c, 4, 55, 0
5, 172440, Note_on_c, 4, 55, 58
5, 172560, Note_off_c, 4, 55, 0
5, 172560, Note_on_c, 4, 54, 55
5, 172680, Note_off_c, 4, 54, 0
5, 172680, Note_on_c, 4, 55, 53
5, 172800, Note_off_c, 4, 55, 0
5, 174240, Control_c, 4, 64, 127
5, 174240, Note_on_c, 4, 60, 44
5, 175140, Control_c, 4, 64, 0
5, 175200, Control_c, 4, 64, 127
5, 176088, Note_off_c, 4, 60, 0
5, 176100, Control_c, 4, 64, 0
5, 176160, Control_c, 4, 64, 127
5, 176160, Note_on_c, 4, 62, 48
5, 177060, Control_c, 4, 64, 0
5, 177120, Control_c, 4, 64, 127
5, 177120, Note_off_c, 4, 62, 0
5, 177120, Note_on_c, 4, 59, 50
5, 177540, Control_c, 4, 64, 0
5, 177600, Control_c, 4, 64, 127
5, 177600, Note_off_c, 4, 59, 0
5, 177600, Note_on_c, 4, 55, 51
5, 178020, Control_c, 4, 64, 0
5, 178045, Note_off_c, 4, 55, 0
5, 178080, Control_c, 4, 64, 127
5, 178080, Note_on_c, 4, 60, 52
5, 178440, Note_off_c, 4, 60, 0
5, 178500, Control_c, 4, 64, 0
5, 178560, Control_c, 4, 64, 127
5, 178560, Note_on_c, 4, 59, 50
5, 178920, Note_off_c, 4, 59, 0
5, 178980, Control_c, 4, 64, 0
5, 179040, Control_c, 4, 64, 127
5, 179040, Note_on_c, 4, 57, 49
5, 179400, Note_off_c, 4, 57, 0
5, 179460, Control_c, 4, 64, 0
5, 179520, Control_c, 4, 64, 127
5, 179520, Note_on_c, 4, 53, 47
5, 179880, Note_off_c, 4, 53, 0
5, 179940, Control_c, 4, 64, 0
5, 180000, Note_on_c, 4, 55, 45
5, 181440, Note_off_c, 4, 55, 0
5, 181440, Note_on_c, 4, 53, 40
5, 181860, Control_c, 4, 64, 0
5, 181880, Note_off_c, 4, 53, 0
5, 181920, Control_c, 4, 64, 127
5, 181920, Note_on_c, 4, 52, 58
5, 182820, Control_c, 4, 64, 0
5, 182880, Control_c, 4, 64, 127
5, 182880, Note_off_c, 4, 52, 0
5, 182880, Note_on_c, 4, 50, 60
5, 183300, Control_c, 4, 64, 0
5, 183360, Control_c, 4, 64, 127
5, 183360, Note_off_c, 4, 50, 0
5, 183360, Note_on_c, 4, 48, 61
5, 183780, Control_c, 4, 64, 0
5, 183800, Note_off_c, 4, 48, 0
5, 183840, Control_c, 4, 64, 127
5, 183840, Note_on_c, 4, 50, 62
5, 184740, Control_c, 4, 64, 0
5, 184800, Control_c, 4, 64, 127
5, 184800, Note_off_c, 4, 50, 0
5, 184800, Note_on_c, 4, 47, 65
5, 185220, Control_c, 4, 64, 0
5, 185280, Control_c, 4, 64, 127
5, 185280, Note_off_c, 4, 47, 0
5, 185280, Note_on_c, 4, 43, 66
5, 185700, Control_c, 4, 64, 0
5, 185715, Note_off_c, 4, 43, 0
5, 185760, Control_c, 4, 64, 127
5, 185760, Note_on_c, 4, 48, 69
5, 186120, Note_off_c, 4, 48, 0
5, 186180, Control_c, 4, 64, 0
5, 186240, Control_c, 4, 64, 127
5, 186240, Note_on_c, 4, 53, 66
5, 186660, Control_c, 4, 64, 0
5, 186680, Note_off_c, 4, 53, 0
5, 186720, Note_on_c, 4, 55, 65
5, 187105, Note_off_c, 4, 55, 0
5, 187200, Note_on_c, 4, 55, 64
5, 187585, Note_off_c, 4, 55, 0
5, 187680, Note_on_c, 4, 60, 62
5, 188160, Note_off_c, 4, 60, 0
5, 188160, Note_on_c, 4, 55, 59
5, 188640, Note_off_c, 4, 55, 0
5, 188640, Note_on_c, 4, 48, 51
5, 189000, Note_off_c, 4, 48, 0
5, 189540, Control_c, 4, 64, 0
5, 189600, Control_c, 4, 64, 127
5, 189600, Note_on_c, 4, 60, 56
5, 189840, Note_off_c, 4, 60, 0
5, 190020, Control_c, 4, 64, 0
5, 190080, Control_c, 4, 64, 127
5, 190080, Note_on_c, 4, 64, 58
5, 190320, Note_off_c, 4, 64, 0
5, 190500, Control_c, 4, 64, 0
5, 190560, Control_c, 4, 64, 127
5, 190560, Note_on_c, 4, 59, 60
5, 190800, Note_off_c, 4, 59, 0
5, 191040, Note_on_c, 4, 62, 61
5, 191280, Note_off_c, 4, 62, 0
5, 191460, Control_c, 4, 64, 0
5, 191520, Control_c, 4, 64, 127
5, 191520, Note_on_c, 4, 60, 63
5, 191760, Note_off_c, 4, 60, 0
5, 192000, Note_on_c, 4, 62, 58
5, 192240, Note_off_c, 4, 62, 0
5, 192420, Control_c, 4, 64, 0
5, 192480, Control_c, 4, 64, 127
5, 192480, Note_on_c, 4, 64, 53
5, 192720, Note_off_c, 4, 64, 0
5, 192960, Note_on_c, 4, 60, 49
5, 193200, Note_off_c, 4, 60, 0
5, 193380, Control_c, 4, 64, 0
5, 193440, Control_c, 4, 64, 127
5, 193440, Note_on_c, 4, 59, 50
5, 193680, Note_off_c, 4, 59, 0
5, 193860, Control_c, 4, 64, 0
5, 193920, Control_c, 4, 64, 127
5, 193920, Note_on_c, 4, 57, 52
5, 194160, Note_off_c, 4, 57, 0
5, 194340, Control_c, 4, 64, 0
5, 194400, Control_c, 4, 64, 127
5, 194400, Note_on_c, 4, 59, 55
5, 194640, Note_off_c, 4, 59, 0
5, 194820, Control_c, 4, 64, 0
5, 194880, Control_c, 4, 64, 127
5, 194880, Note_on_c, 4, 55, 58
5, 195120, Note_off_c, 4, 55, 0
5, 195300, Control_c, 4, 64, 0
5, 195360, Control_c, 4, 64, 127
5, 195360, Note_on_c, 4, 57, 60
5, 195600, Note_off_c, 4, 57, 0
5, 195780, Control_c, 4, 64, 0
5, 195840, Control_c, 4, 64, 127
5, 195840, Note_on_c, 4, 54, 57
5, 196080, Note_off_c, 4, 54, 0
5, 196260, Control_c, 4, 64, 0
5, 196320, Note_on_c, 4, 55, 54
5, 196560, Note_off_c, 4, 55, 0
5, 196560, Note_on_c, 4, 54, 53
5, 196800, Note_off_c, 4, 54, 0
5, 196800, Note_on_c, 4, 52, 51
5, 197040, Note_off_c, 4, 52, 0
5, 197040, Note_on_c, 4, 50, 49
5, 197235, Note_off_c, 4, 50, 0
5, 197280, Note_on_c, 4, 48, 71
5, 197520, Note_off_c, 4, 48, 0
5, 197520, Note_on_c, 4, 52, 70
5, 197760, Note_off_c, 4, 52, 0
5, 197760, Note_on_c, 4, 57, 70
5, 198000, Note_off_c, 4, 57, 0
5, 198000, Note_on_c, 4, 60, 69
5, 198240, Note_off_c, 4, 60, 0
5, 198240, Note_on_c, 4, 64, 68
5, 198480, Note_off_c, 4, 64, 0
5, 198480, Note_on_c, 4, 62, 68
5, 198720, Note_off_c, 4, 62, 0
5, 198720, Note_on_c, 4, 60, 67
5, 198960, Note_off_c, 4, 60, 0
5, 198960, Note_on_c, 4, 59, 66
5, 199160, Note_off_c, 4, 59, 0
5, 199200, Note_on_c, 4, 57, 66
5, 199440, Note_off_c, 4, 57, 0
5, 199440, Note_on_c, 4, 59, 65
5, 199680, Note_off_c, 4, 59, 0
5, 199680, Note_on_c, 4, 60, 65
5, 199920, Note_off_c, 4, 60, 0
5, 199920, Note_on_c, 4, 59, 64
5, 200160, Note_off_c, 4, 59, 0
5, 200160, Note_on_c, 4, 57, 63
5, 200400, Note_off_c, 4, 57, 0
5, 200400, Note_on_c, 4, 59, 63
5, 200640, Note_off_c, 4, 59, 0
5, 200640, Note_on_c, 4, 60, 62
5, 200880, Note_off_c, 4, 60, 0
5, 200880, Note_on_c, 4, 57, 61
5, 201075, Note_off_c, 4, 57, 0
5, 201120, Note_on_c, 4, 59, 61
5, 201360, Note_off_c, 4, 59, 0
5, 201360, Note_on_c, 4, 54, 60
5, 201600, Note_off_c, 4, 54, 0
5, 201600, Note_on_c, 4, 55, 58
5, 201840, Note_off_c, 4, 55, 0
5, 201840, Note_on_c, 4, 57, 57
5, 202080, Note_off_c, 4, 57, 0
5, 202080, Note_on_c, 4, 59, 56
5, 202320, Note_off_c, 4, 59, 0
5, 202320, Note_on_c, 4, 55, 54
5, 202515, Note_off_c, 4, 55, 0
5, 202560, Note_on_c, 4, 60, 53
5, 202800, Note_off_c, 4, 60, 0
5, 202800, Note_on_c, 4, 57, 51
5, 203040, Note_off_c, 4, 57, 0
5, 203040, Note_on_c, 4, 62, 50
5, 203280, Note_off_c, 4, 62, 0
5, 203280, Note_on_c, 4, 67, 49
5, 203520, Note_off_c, 4, 67, 0
5, 203520, Note_on_c, 4, 64, 47
5, 203760, Note_off_c, 4, 64, 0
5, 203760, Note_on_c, 4, 61, 46
5, 204000, Note_off_c, 4, 61, 0
5, 204000, Note_on_c, 4, 62, 45
5, 204240, Note_off_c, 4, 62, 0
5, 204240, Note_on_c, 4, 60, 43
5, 204480, Note_off_c, 4, 60, 0
5, 204480, Note_on_c, 4, 59, 42
5, 204720, Note_off_c, 4, 59, 0
5, 204720, Note_on_c, 4, 57, 40
5, 204900, Control_c, 4, 64, 0
5, 204925, Note_off_c, 4, 57, 0
5, 204960, Control_c, 4, 64, 127
5, 204960, Note_on_c, 4, 55, 72
5, 205200, Note_off_c, 4, 55, 0
5, 205860, Control_c, 4, 64, 0
5, 205920, Control_c, 4, 64, 127
5, 205920, Note_on_c, 4, 55, 74
5, 206160, Note_off_c, 4, 55, 0
5, 206820, Control_c, 4, 64, 0
5, 206880, Control_c, 4, 64, 127
5, 206880, Note_on_c, 4, 57, 77
5, 207120, Note_off_c, 4, 57, 0
5, 207780, Control_c, 4, 64, 0
5, 207840, Control_c, 4, 64, 127
5, 207840, Note_on_c, 4, 57, 71
5, 208080, Note_off_c, 4, 57, 0
5, 208740, Control_c, 4, 64, 0
5, 208800, Control_c, 4, 64, 127
5, 208800, Note_on_c, 4, 55, 50
5, 209040, Note_off_c, 4, 55, 0
5, 209700, Control_c, 4, 64, 0
5, 209760, Control_c, 4, 64, 127
5, 209760, Note_on_c, 4, 55, 52
5, 210000, Note_off_c, 4, 55, 0
5, 210660, Control_c, 4, 64, 0
5, 210720, Control_c, 4, 64, 127
5, 210720, Note_on_c, 4, 57, 55
5, 210960, Note_off_c, 4, 57, 0
5, 211620, Control_c, 4, 64, 0
5, 211680, Control_c, 4, 64, 127
5, 211680, Note_on_c, 4, 57, 50
5, 211920, Note_off_c, 4, 57, 0
5, 212580, Control_c, 4, 64, 0
5, 212640, Control_c, 4, 64, 127
5, 212640, Note_on_c, 4, 59, 68
5, 212880, Note_off_c, 4, 59, 0
5, 213540, Control_c, 4, 64, 0
5, 213600, Control_c, 4, 64, 127
5, 213600, Note_on_c, 4, 59, 71
5, 213840, Note_off_c, 4, 59, 0
5, 214500, Control_c, 4, 64, 0
5, 214560, Control_c, 4, 64, 127
5, 214560, Note_on_c, 4, 60, 72
5, 214800, Note_off_c, 4, 60, 0
5, 215460, Control_c, 4, 64, 0
5, 215520, Control_c, 4, 64, 127
5, 215520, Note_on_c, 4, 60, 66
5, 215760, Note_off_c, 4, 60, 0
5, 216420, Control_c, 4, 64, 0
5, 216480, Control_c, 4, 64, 127
5, 216480, Note_on_c, 4, 59, 59
5, 216720, Note_off_c, 4, 59, 0
5, 216900, Control_c, 4, 64, 0
5, 216960, Control_c, 4, 64, 127
5, 216960, Note_on_c, 4, 60, 56
5, 217200, Note_off_c, 4, 60, 0
5, 217380, Control_c, 4, 64, 0
5, 217440, Control_c, 4, 64, 127
5, 217440, Note_on_c, 4, 62, 52
5, 217680, Note_off_c, 4, 62, 0
5, 217860, Control_c, 4, 64, 0
5, 217920, Control_c, 4, 64, 127
5, 217920, Note_on_c, 4, 60, 49
5, 218160, Note_off_c, 4, 60, 0
5, 218340, Control_c, 4, 64, 0
5, 218400, Control_c, 4, 64, 127
5, 218400, Note_on_c, 4, 59, 74
5, 218640, Note_off_c, 4, 59, 0
5, 219300, Control_c, 4, 64, 0
5, 219360, Control_c, 4, 64, 127
5, 219360, Note_on_c, 4, 59, 76
5, 219600, Note_off_c, 4, 59, 0
5, 220260, Control_c, 4, 64, 0
5, 220320, Note_on_c, 4, 60, 79
5, 221195, Note_off_c, 4, 60, 0
5, 222240, Note_on_c, 4, 59, 65
5, 222600, Note_off_c, 4, 59, 0
5, 222720, Note_on_c, 4, 60, 62
5, 223080, Note_off_c, 4, 60, 0
5, 223200, Note_on_c, 4, 62, 59
5, 223555, Note_off_c, 4, 62, 0
5, 223680, Note_on_c, 4, 62, 57
5, 224045, Note_off_c, 4, 62, 0
5, 224160, Note_on_c, 4, 55, 54
5, 224525, Note_off_c, 4, 55, 0
5, 226320, Note_on_c, 4, 66, 64
5, 226560, Note_off_c, 4, 66, 0
5, 226560, Note_on_c, 4, 67, 64
5, 226800, Note_off_c, 4, 67, 0
5, 226800, Note_on_c, 4, 69, 65
5, 227040, Note_off_c, 4, 69, 0
5, 227040, Note_on_c, 4, 70, 66
5, 227280, Note_off_c, 4, 70, 0
5, 227280, Note_on_c, 4, 67, 64
5, 227520, Note_off_c, 4, 67, 0
5, 227520, Note_on_c, 4, 64, 63
5, 227760, Note_off_c, 4, 64, 0
5, 227760, Note_on_c, 4, 62, 61
5, 228000, Note_off_c, 4, 62, 0
5, 228000, Note_on_c, 4, 61, 59
5, 228480, Note_off_c, 4, 61, 0
5, 230160, Note_on_c, 4, 66, 59
5, 230400, Note_off_c, 4, 66, 0
5, 230400, Note_on_c, 4, 67, 60
5, 230640, Note_off_c, 4, 67, 0
5, 230640, Note_on_c, 4, 69, 62
5, 230840, Note_off_c, 4, 69, 0
5, 230880, Note_on_c, 4, 72, 65
5, 231000, Note_off_c, 4, 72, 0
5, 231000, Note_on_c, 4, 70, 64
5, 231120, Note_off_c, 4, 70, 0
5, 231120, Note_on_c, 4, 69, 62
5, 231240, Note_off_c, 4, 69, 0
5, 231240, Note_on_c, 4, 67, 61
5, 231335, Note_off_c, 4, 67, 0
5, 231360, Note_on_c, 4, 67, 59
5, 231480, Note_off_c, 4, 67, 0
5, 231480, Note_on_c, 4, 65, 58
5, 231600, Note_off_c, 4, 65, 0
5, 231600, Note_on_c, 4, 64, 56
5, 231720, Note_off_c, 4, 64, 0
5, 231720, Note_on_c, 4, 62, 55
5, 231815, Note_off_c, 4, 62, 0
5, 231840, Note_on_c, 4, 61, 53
5, 232320, Note_off_c, 4, 61, 0
5, 233700, Control_c, 4, 64, 0
5, 233760, Control_c, 4, 64, 127
5, 233760, Note_on_c, 4, 62, 50
5, 235620, Control_c, 4, 64, 0
5, 235657, Note_off_c, 4, 62, 0
5, 235680, Control_c, 4, 64, 127
5, 235680, Note_on_c, 4, 64, 53
5, 236580, Control_c, 4, 64, 0
5, 236640, Control_c, 4, 64, 127
5, 236640, Note_off_c, 4, 64, 0
5, 236640, Note_on_c, 4, 61, 55
5, 237060, Control_c, 4, 64, 0
5, 237120, Control_c, 4, 64, 127
5, 237120, Note_off_c, 4, 61, 0
5, 237120, Note_on_c, 4, 57, 56
5, 237540, Control_c, 4, 64, 0
5, 237560, Note_off_c, 4, 57, 0
5, 237600, Control_c, 4, 64, 127
5, 237600, Note_on_c, 4, 62, 59
5, 237840, Note_off_c, 4, 62, 0
5, 238500, Control_c, 4, 64, 0
5, 238560, Control_c, 4, 64, 127
5, 238560, Note_on_c, 4, 61, 56
5, 238800, Note_off_c, 4, 61, 0
5, 238980, Control_c, 4, 64, 0
5, 239040, Control_c, 4, 64, 127
5, 239040, Note_on_c, 4, 60, 54
5, 239280, Note_off_c, 4, 60, 0
5, 239460, Control_c, 4, 64, 0
5, 239520, Control_c, 4, 64, 127
5, 239520, Note_on_c, 4, 59, 52
5, 239760, Note_off_c, 4, 59, 0
5, 239940, Control_c, 4, 64, 0
5, 240000, Control_c, 4, 64, 127
5, 240000, Note_on_c, 4, 59, 50
5, 240240, Note_off_c, 4, 59, 0
5, 240240, Note_on_c, 4, 68, 50
5, 240420, Control_c, 4, 64, 0
5, 240480, Control_c, 4, 64, 127
5, 240480, Note_off_c, 4, 68, 0
5, 240480, Note_on_c, 4, 59, 49
5, 240720, Note_off_c, 4, 59, 0
5, 240720, Note_on_c, 4, 67, 48
5, 240900, Control_c, 4, 64, 0
5, 240960, Control_c, 4, 64, 127
5, 240960, Note_off_c, 4, 67, 0
5, 240960, Note_on_c, 4, 59, 47
5, 241200, Note_off_c, 4, 59, 0
5, 241200, Note_on_c, 4, 65, 46
5, 241380, Control_c, 4, 64, 0
5, 241400, Note_off_c, 4, 65, 0
5, 241440, Control_c, 4, 64, 127
5, 241440, Note_on_c, 4, 60, 62
5, 242400, Note_off_c, 4, 60, 0
5, 243300, Control_c, 4, 64, 0
5, 243360, Control_c, 4, 64, 127
5, 243360, Note_on_c, 4, 62, 71
5, 244260, Control_c, 4, 64, 0
5, 244320, Note_off_c, 4, 62, 0
5, 244320, Note_on_c, 4, 59, 65
5, 244680, Note_off_c, 4, 59, 0
5, 245280, Note_on_c, 4, 57, 53
5, 245520, Note_off_c, 4, 57, 0
5, 245760, Note_on_c, 4, 57, 55
5, 246000, Note_off_c, 4, 57, 0
5, 246240, Note_on_c, 4, 57, 57
5, 246480, Note_off_c, 4, 57, 0
5, 246720, Note_on_c, 4, 57, 58
5, 246960, Note_off_c, 4, 57, 0
5, 247200, Note_on_c, 4, 56, 60
5, 247680, Note_off_c, 4, 56, 0
5, 247680, Note_on_c, 4, 62, 54
5, 247920, Note_off_c, 4, 62, 0
5, 248160, Note_on_c, 4, 62, 51
5, 248640, Note_off_c, 4, 62, 0
5, 249360, Note_on_c, 4, 53, 55
5, 249600, Note_off_c, 4, 53, 0
5, 249600, Note_on_c, 4, 52, 54
5, 249840, Note_off_c, 4, 52, 0
5, 249840, Note_on_c, 4, 53, 53
5, 250080, Note_off_c, 4, 53, 0
5, 250080, Note_on_c, 4, 52, 52
5, 250320, Note_off_c, 4, 52, 0
5, 250320, Note_on_c, 4, 53, 50
5, 250560, Note_off_c, 4, 53, 0
5, 250560, Note_on_c, 4, 52, 49
5, 250800, Note_off_c, 4, 52, 0
5, 250800, Note_on_c, 4, 53, 48
5, 251005, Note_off_c, 4, 53, 0
5, 251280, Note_on_c, 4, 64, 44
5, 251520, Note_off_c, 4, 64, 0
5, 251520, Note_on_c, 4, 65, 44
5, 251760, Note_off_c, 4, 65, 0
5, 251760, Note_on_c, 4, 64, 43
5, 252000, Note_off_c, 4, 64, 0
5, 252000, Note_on_c, 4, 65, 42
5, 252240, Note_off_c, 4, 65, 0
5, 252240, Note_on_c, 4, 64, 41
5, 252480, Note_off_c, 4, 64, 0
5, 252480, Note_on_c, 4, 65, 41
5, 252720, Note_off_c, 4, 65, 0
5, 252720, Note_on_c, 4, 64, 40
5, 252920, Note_off_c, 4, 64, 0
5, 252960, Note_on_c, 4, 63, 55
5, 253440, Note_off_c, 4, 63, 0
5, 253440, Note_on_c, 4, 64, 53
5, 253920, Note_off_c, 4, 64, 0
5, 253920, Note_on_c, 4, 65, 52
5, 254400, Note_off_c, 4, 65, 0
5, 254400, Note_on_c, 4, 63, 50
5, 254880, Note_off_c, 4, 63, 0
5, 254880, Note_on_c, 4, 64, 48
5, 255360, Note_off_c, 4, 64, 0
5, 255840, Note_on_c, 4, 65, 57
5, 256800, Note_off_c, 4, 65, 0
5, 256800, Note_on_c, 4, 64, 50
5, 257280, Note_off_c, 4, 64, 0
5, 257760, Note_on_c, 4, 65, 61
5, 258720, Note_off_c, 4, 65, 0
5, 258720, Note_on_c, 4, 64, 54
5, 259200, Note_off_c, 4, 64, 0
5, 262500, Control_c, 4, 64, 0
5, 262560, Control_c, 4, 64, 127
5, 262560, Note_on_c, 4, 60, 46
5, 264402, Note_off_c, 4, 60, 0
5, 264420, Control_c, 4, 64, 0
5, 264480, Control_c, 4, 64, 127
5, 264480, Note_on_c, 4, 62, 49
5, 265380, Control_c, 4, 64, 0
5, 265440, Control_c, 4, 64, 127
5, 265440, Note_off_c, 4, 62, 0
5, 265440, Note_on_c, 4, 59, 50
5, 265860, Control_c, 4, 64, 0
5, 265920, Control_c, 4, 64, 127
5, 265920, Note_off_c, 4, 59, 0
5, 265920, Note_on_c, 4, 55, 51
5, 266340, Control_c, 4, 64, 0
5, 266355, Note_off_c, 4, 55, 0
5, 266400, Control_c, 4, 64, 127
5, 266400, Note_on_c, 4, 60, 51
5, 266760, Note_off_c, 4, 60, 0
5, 266820, Control_c, 4, 64, 0
5, 266880, Control_c, 4, 64, 127
5, 266880, Note_on_c, 4, 59, 50
5, 267240, Note_off_c, 4, 59, 0
5, 267300, Control_c, 4, 64, 0
5, 267360, Control_c, 4, 64, 127
5, 267360, Note_on_c, 4, 57, 49
5, 267720, Note_off_c, 4, 57, 0
5, 267780, Control_c, 4, 64, 0
5, 267840, Control_c, 4, 64, 127
5, 267840, Note_on_c, 4, 53, 47
5, 268200, Note_off_c, 4, 53, 0
5, 268260, Control_c, 4, 64, 0
5, 268320, Note_on_c, 4, 55, 46
5, 269760, Note_off_c, 4, 55, 0
5, 269760, Note_on_c, 4, 53, 42
5, 270180, Control_c, 4, 64, 0
5, 270200, Note_off_c, 4, 53, 0
5, 270240, Control_c, 4, 64, 127
5, 270240, Note_on_c, 4, 52, 60
5, 271140, Control_c, 4, 64, 0
5, 271200, Control_c, 4, 64, 127
5, 271200, Note_off_c, 4, 52, 0
5, 271200, Note_on_c, 4, 50, 61
5, 271620, Control_c, 4, 64, 0
5, 271680, Control_c, 4, 64, 127
5, 271680, Note_off_c, 4, 50, 0
5, 271680, Note_on_c, 4, 48, 62
5, 272100, Control_c, 4, 64, 0
5, 272120, Note_off_c, 4, 48, 0
5, 272160, Control_c, 4, 64, 127
5, 272160, Note_on_c, 4, 50, 63
5, 273060, Control_c, 4, 64, 0
5, 273120, Control_c, 4, 64, 127
5, 273120, Note_off_c, 4, 50, 0
5, 273120, Note_on_c, 4, 47, 65
5, 273540, Control_c, 4, 64, 0
5, 273600, Control_c, 4, 64, 127
5, 273600, Note_off_c, 4, 47, 0
5, 273600, Note_on_c, 4, 43, 66
5, 274020, Control_c, 4, 64, 0
5, 274055, Note_off_c, 4, 43, 0
5, 274080, Note_on_c, 4, 48, 67
5, 274440, Note_off_c, 4, 48, 0
5, 274560, Note_on_c, 4, 53, 65
5, 275000, Note_off_c, 4, 53, 0
5, 275040, Note_on_c, 4, 55, 62
5, 275280, Note_off_c, 4, 55, 0
5, 275520, Note_on_c, 4, 53, 60
5, 275760, Note_off_c, 4, 53, 0
5, 276000, Note_on_c, 4, 52, 57
5, 276480, Note_off_c, 4, 52, 0
5, 276480, Note_on_c, 4, 50, 53
5, 276960, Note_off_c, 4, 50, 0
5, 276960, Note_on_c, 4, 48, 49
5, 277320, Note_off_c, 4, 48, 0
5, 277860, Control_c, 4, 64, 0
5, 277920, Control_c, 4, 64, 127
5, 277920, Note_on_c, 4, 65, 70
5, 278160, Note_off_c, 4, 65, 0
5, 278820, Control_c, 4, 64, 0
5, 278880, Control_c, 4, 64, 127
5, 278880, Note_on_c, 4, 64, 73
5, 279120, Note_off_c, 4, 64, 0
5, 279780, Control_c, 4, 64, 0
5, 279840, Control_c, 4, 64, 127
5, 279840, Note_on_c, 4, 65, 71
5, 280080, Note_off_c, 4, 65, 0
5, 280260, Control_c, 4, 64, 0
5, 280320, Control_c, 4, 64, 127
5, 280320, Note_on_c, 4, 67, 65
5, 280560, Note_off_c, 4, 67, 0
5, 280740, Control_c, 4, 64, 0
5, 280800, Control_c, 4, 64, 127
5, 280800, Note_on_c, 4, 69, 59
5, 281040, Note_off_c, 4, 69, 0
5, 281220, Control_c, 4, 64, 0
5, 281280, Control_c, 4, 64, 127
5, 281280, Note_on_c, 4, 65, 53
5, 281520, Note_off_c, 4, 65, 0
5, 281700, Control_c, 4, 64, 0
5, 281760, Control_c, 4, 64, 127
5, 281760, Note_on_c, 4, 64, 50
5, 282000, Note_off_c, 4, 64, 0
5, 282180, Control_c, 4, 64, 0
5, 282240, Control_c, 4, 64, 127
5, 282240, Note_on_c, 4, 62, 53
5, 282480, Note_off_c, 4, 62, 0
5, 282660, Control_c, 4, 64, 0
5, 282720, Control_c, 4, 64, 127
5, 282720, Note_on_c, 4, 64, 56
5, 282960, Note_off_c, 4, 64, 0
5, 283140, Control_c, 4, 64, 0
5, 283200, Control_c, 4, 64, 127
5, 283200, Note_on_c, 4, 60, 58
5, 283440, Note_off_c, 4, 60, 0
5, 283620, Control_c, 4, 64, 0
5, 283680, Control_c, 4, 64, 127
5, 283680, Note_on_c, 4, 62, 61
5, 283920, Note_off_c, 4, 62, 0
5, 284100, Control_c, 4, 64, 0
5, 284160, Control_c, 4, 64, 127
5, 284160, Note_on_c, 4, 59, 57
5, 284400, Note_off_c, 4, 59, 0
5, 284580, Control_c, 4, 64, 0
5, 284640, Note_on_c, 4, 60, 54
5, 284880, Note_off_c, 4, 60, 0
5, 284880, Note_on_c, 4, 59, 53
5, 285120, Note_off_c, 4, 59, 0
5, 285120, Note_on_c, 4, 57, 51
5, 285360, Note_off_c, 4, 57, 0
5, 285360, Note_on_c, 4, 55, 49
5, 285560, Note_off_c, 4, 55, 0
5, 285600, Note_on_c, 4, 53, 73
5, 285840, Note_off_c, 4, 53, 0
5, 285840, Note_on_c, 4, 57, 72
5, 286080, Note_off_c, 4, 57, 0
5, 286080, Note_on_c, 4, 62, 71
5, 286320, Note_off_c, 4, 62, 0
5, 286320, Note_on_c, 4, 65, 70
5, 286560, Note_off_c, 4, 65, 0
5, 286560, Note_on_c, 4, 69, 69
5, 286800, Note_off_c, 4, 69, 0
5, 286800, Note_on_c, 4, 67, 68
5, 287040, Note_off_c, 4, 67, 0
5, 287040, Note_on_c, 4, 65, 67
5, 287280, Note_off_c, 4, 65, 0
5, 287280, Note_on_c, 4, 64, 66
5, 287485, Note_off_c, 4, 64, 0
5, 287520, Note_on_c, 4, 62, 66
5, 287760, Note_off_c, 4, 62, 0
5, 287760, Note_on_c, 4, 64, 65
5, 288000, Note_off_c, 4, 64, 0
5, 288000, Note_on_c, 4, 65, 64
5, 288240, Note_off_c, 4, 65, 0
5, 288240, Note_on_c, 4, 64, 63
5, 288480, Note_off_c, 4, 64, 0
5, 288480, Note_on_c, 4, 62, 62
5, 288720, Note_off_c, 4, 62, 0
5, 288720, Note_on_c, 4, 64, 61
5, 288960, Note_off_c, 4, 64, 0
5, 288960, Note_on_c, 4, 65, 60
5, 289200, Note_off_c, 4, 65, 0
5, 289200, Note_on_c, 4, 62, 59
5, 289440, Note_off_c, 4, 62, 0
5, 289440, Note_on_c, 4, 64, 58
5, 289640, Note_off_c, 4, 64, 0
5, 289680, Note_on_c, 4, 59, 57
5, 289920, Note_off_c, 4, 59, 0
5, 289920, Note_on_c, 4, 60, 56
5, 290160, Note_off_c, 4, 60, 0
5, 290160, Note_on_c, 4, 62, 55
5, 290365, Note_off_c, 4, 62, 0
5, 290400, Note_on_c, 4, 64, 54
5, 290640, Note_off_c, 4, 64, 0
5, 290640, Note_on_c, 4, 60, 54
5, 290840, Note_off_c, 4, 60, 0
5, 290880, Note_on_c, 4, 65, 52
5, 291120, Note_off_c, 4, 65, 0
5, 291120, Note_on_c, 4, 62, 51
5, 291320, Note_off_c, 4, 62, 0
5, 291360, Note_on_c, 4, 60, 49
5, 291600, Note_off_c, 4, 60, 0
5, 291600, Note_on_c, 4, 57, 47
5, 291840, Note_off_c, 4, 57, 0
5, 291840, Note_on_c, 4, 55, 46
5, 292080, Note_off_c, 4, 55, 0
5, 292080, Note_on_c, 4, 54, 44
5, 292320, Note_off_c, 4, 54, 0
5, 292320, Note_on_c, 4, 55, 43
5, 292560, Note_off_c, 4, 55, 0
5, 292560, Note_on_c, 4, 53, 41
5, 292800, Note_off_c, 4, 53, 0
5, 292800, Note_on_c, 4, 52, 40
5, 293040, Note_off_c, 4, 52, 0
5, 293040, Note_on_c, 4, 50, 38
5, 293220, Control_c, 4, 64, 0
5, 293235, Note_off_c, 4, 50, 0
5, 293280, Control_c, 4, 64, 127
5, 293280, Note_on_c, 4, 48, 70
5, 293520, Note_off_c, 4, 48, 0
5, 294180, Control_c, 4, 64, 0
5, 294240, Control_c, 4, 64, 127
5, 294240, Note_on_c, 4, 48, 74
5, 294480, Note_off_c, 4, 48, 0
5, 295140, Control_c, 4, 64, 0
5, 295200, Control_c, 4, 64, 127
5, 295200, Note_on_c, 4, 50, 79
5, 295440, Note_off_c, 4, 50, 0
5, 296100, Control_c, 4, 64, 0
5, 296160, Control_c, 4, 64, 127
5, 296160, Note_on_c, 4, 50, 71
5, 296400, Note_off_c, 4, 50, 0
5, 297060, Control_c, 4, 64, 0
5, 297120, Control_c, 4, 64, 127
5, 297120, Note_on_c, 4, 60, 50
5, 297360, Note_off_c, 4, 60, 0
5, 298020, Control_c, 4, 64, 0
5, 298080, Control_c, 4, 64, 127
5, 298080, Note_on_c, 4, 60, 56
5, 298320, Note_off_c, 4, 60, 0
5, 298980, Control_c, 4, 64, 0
5, 299040, Control_c, 4, 64, 127
5, 299040, Note_on_c, 4, 62, 61
5, 299280, Note_off_c, 4, 62, 0
5, 299940, Control_c, 4, 64, 0
5, 300000, Control_c, 4, 64, 127
5, 300000, Note_on_c, 4, 62, 54
5, 300240, Note_off_c, 4, 62, 0
5, 300900, Control_c, 4, 64, 0
5, 300960, Control_c, 4, 64, 127
5, 300960, Note_on_c, 4, 64, 72
5, 301200, Note_off_c, 4, 64, 0
5, 301860, Control_c, 4, 64, 0
5, 301920, Control_c, 4, 64, 127
5, 301920, Note_on_c, 4, 64, 74
5, 302160, Note_off_c, 4, 64, 0
5, 302820, Control_c, 4, 64, 0
5, 302880, Control_c, 4, 64, 127
5, 302880, Note_on_c, 4, 65, 76
5, 303120, Note_off_c, 4, 65, 0
5, 303780, Control_c, 4, 64, 0
5, 303840, Control_c, 4, 64, 127
5, 303840, Note_on_c, 4, 65, 72
5, 304080, Note_off_c, 4, 65, 0
5, 304740, Control_c, 4, 64, 0
5, 304800, Control_c, 4, 64, 127
5, 304800, Note_on_c, 4, 64, 65
5, 305040, Note_off_c, 4, 64, 0
5, 305220, Control_c, 4, 64, 0
5, 305280, Control_c, 4, 64, 127
5, 305280, Note_on_c, 4, 65, 61
5, 305520, Note_off_c, 4, 65, 0
5, 305700, Control_c, 4, 64, 0
5, 305760, Control_c, 4, 64, 127
5, 305760, Note_on_c, 4, 67, 57
5, 306000, Note_off_c, 4, 67, 0
5, 306180, Control_c, 4, 64, 0
5, 306240, Control_c, 4, 64, 127
5, 306240, Note_on_c, 4, 65, 53
5, 306480, Note_off_c, 4, 65, 0
5, 306660, Control_c, 4, 64, 0
5, 306720, Control_c, 4, 64, 127
5, 306720, Note_on_c, 4, 64, 72
5, 306960, Note_off_c, 4, 64, 0
5, 307620, Control_c, 4, 64, 0
5, 307680, Control_c, 4, 64, 127
5, 307680, Note_on_c, 4, 64, 76
5, 307920, Note_off_c, 4, 64, 0
5, 308580, Control_c, 4, 64, 0
5, 308640, Note_on_c, 4, 65, 81
5, 309525, Note_off_c, 4, 65, 0
5, 310560, Note_on_c, 4, 64, 65
5, 310945, Note_off_c, 4, 64, 0
5, 311040, Note_on_c, 4, 65, 63
5, 311425, Note_off_c, 4, 65, 0
5, 311520, Note_on_c, 4, 67, 60
5, 311905, Note_off_c, 4, 67, 0
5, 312000, Note_on_c, 4, 67, 58
5, 312385, Note_off_c, 4, 67, 0
5, 312480, Note_on_c, 4, 60, 55
5, 312704, Note_off_c, 4, 60, 0
5, 313920, Note_on_c, 4, 69, 48
5, 314040, Note_off_c, 4, 69, 0
5, 314040, Note_on_c, 4, 67, 47
5, 314160, Note_off_c, 4, 67, 0
5, 314160, Note_on_c, 4, 69, 46
5, 314280, Note_off_c, 4, 69, 0
5, 314280, Note_on_c, 4, 65, 46
5, 314400, Note_off_c, 4, 65, 0
5, 314400, Note_on_c, 4, 64, 45
5, 314640, Note_off_c, 4, 64, 0
5, 314880, Note_on_c, 4, 65, 43
5, 315000, Note_off_c, 4, 65, 0
5, 315000, Note_on_c, 4, 64, 42
5, 315120, Note_off_c, 4, 64, 0
5, 315120, Note_on_c, 4, 65, 41
5, 315240, Note_off_c, 4, 65, 0
5, 315240, Note_on_c, 4, 62, 41
5, 315360, Note_off_c, 4, 62, 0
5, 315360, Note_on_c, 4, 60, 40
5, 315600, Note_off_c, 4, 60, 0
5, 316260, Control_c, 4, 64, 0
5, 316320, Control_c, 4, 64, 127
5, 316320, Note_on_c, 4, 57, 62
5, 317220, Control_c, 4, 64, 0
5, 317280, Control_c, 4, 64, 127
5, 317280, Note_off_c, 4, 57, 0
5, 317280, Note_on_c, 4, 57, 64
5, 317700, Control_c, 4, 64, 0
5, 317760, Control_c, 4, 64, 127
5, 317760, Note_off_c, 4, 57, 0
5, 317760, Note_on_c, 4, 57, 65
5, 318180, Control_c, 4, 64, 0
5, 318195, Note_off_c, 4, 57, 0
5, 318240, Control_c, 4, 64, 127
5, 318240, Note_on_c, 4, 55, 67
5, 319140, Control_c, 4, 64, 0
5, 319200, Control_c, 4, 64, 127
5, 319200, Note_off_c, 4, 55, 0
5, 319200, Note_on_c, 4, 55, 69
5, 319620, Control_c, 4, 64, 0
5, 319680, Control_c, 4, 64, 127
5, 319680, Note_off_c, 4, 55, 0
5, 319680, Note_on_c, 4, 56, 70
5, 320100, Control_c, 4, 64, 0
5, 320120, Note_off_c, 4, 56, 0
5, 320160, Note_on_c, 4, 60, 71
5, 320160, Note_on_c, 4, 57, 71
5, 320640, Note_off_c, 4, 57, 0
5, 320640, Note_on_c, 4, 55, 63
5, 321120, Note_off_c, 4, 55, 0
5, 321120, Note_on_c, 4, 53, 61
5, 321600, Note_off_c, 4, 53, 0
5, 321600, Note_off_c, 4, 60, 0
5, 321600, Note_on_c, 4, 55, 58
5, 322040, Note_off_c, 4, 55, 0
5, 322080, Note_on_c, 4, 60, 56
5, 322555, Note_off_c, 4, 60, 0
5, 322560, Note_on_c, 4, 55, 50
5, 323040, Note_off_c, 4, 55, 0
5, 323040, Note_on_c, 4, 48, 44
5, 323350, Note_off_c, 4, 48, 0
5, 325920, Control_c, 4, 64, 0
5, 326160, Note_on_c, 4, 55, 35
5, 326350, Note_off_c, 4, 55, 0
5, 326400, Note_on_c, 4, 55, 37
5, 326590, Note_off_c, 4, 55, 0
5, 326640, Note_on_c, 4, 55, 39
5, 326830, Note_off_c, 4, 55, 0
5, 326880, Note_on_c, 4, 55, 41
5, 327070, Note_off_c, 4, 55, 0
5, 327120, Note_on_c, 4, 55, 43
5, 327310, Note_off_c, 4, 55, 0
5, 327360, Note_on_c, 4, 55, 45
5, 327550, Note_off_c, 4, 55, 0
5, 327600, Note_on_c, 4, 55, 45
5, 327790, Note_off_c, 4, 55, 0
5, 327840, Note_on_c, 4, 55, 44
5, 328030, Note_off_c, 4, 55, 0
5, 328080, Note_on_c, 4, 55, 43
5, 328270, Note_off_c, 4, 55, 0
5, 328320, Note_on_c, 4, 55, 42
5, 328510, Note_off_c, 4, 55, 0
5, 328560, Note_on_c, 4, 55, 41
5, 328750, Note_off_c, 4, 55, 0
5, 329040, Note_on_c, 4, 55, 41
5, 329230, Note_off_c, 4, 55, 0
5, 329280, Note_on_c, 4, 55, 42
5, 329470, Note_off_c, 4, 55, 0
5, 329520, Note_on_c, 4, 55, 43
5, 329710, Note_off_c, 4, 55, 0
5, 329760, Note_on_c, 4, 55, 44
5, 329950, Note_off_c, 4, 55, 0
5, 330000, Note_on_c, 4, 55, 46
5, 330190, Note_off_c, 4, 55, 0
5, 330240, Note_on_c, 4, 55, 47
5, 330430, Note_off_c, 4, 55, 0
5, 330480, Note_on_c, 4, 55, 48
5, 330670, Note_off_c, 4, 55, 0
5, 330720, Note_on_c, 4, 55, 47
5, 330910, Note_off_c, 4, 55, 0
5, 330960, Note_on_c, 4, 55, 46
5, 331150, Note_off_c, 4, 55, 0
5, 331200, Note_on_c, 4, 55, 45
5, 331390, Note_off_c, 4, 55, 0
5, 331440, Note_on_c, 4, 55, 44
5, 331630, Note_off_c, 4, 55, 0
5, 337440, Note_on_c, 4, 64, 73
5, 337680, Note_off_c, 4, 64, 0
5, 338640, Note_on_c, 4, 67, 69
5, 338880, Note_off_c, 4, 67, 0
5, 338880, Note_on_c, 4, 66, 67
5, 339070, Note_off_c, 4, 66, 0
5, 339360, Note_on_c, 4, 66, 64
5, 339600, Note_off_c, 4, 66, 0
5, 339600, Note_on_c, 4, 67, 62
5, 339790, Note_off_c, 4, 67, 0
5, 340080, Note_on_c, 4, 67, 58
5, 340320, Note_off_c, 4, 67, 0
5, 340320, Note_on_c, 4, 64, 57
5, 340510, Note_off_c, 4, 64, 0
5, 340800, Note_on_c, 4, 60, 53
5, 341040, Note_off_c, 4, 60, 0
5, 341040, Note_on_c, 4, 59, 51
5, 341230, Note_off_c, 4, 59, 0
5, 341520, Note_on_c, 4, 59, 48
5, 341760, Note_off_c, 4, 59, 0
5, 341760, Note_on_c, 4, 57, 46
5, 341950, Note_off_c, 4, 57, 0
5, 342240, Note_on_c, 4, 57, 43
5, 342480, Note_off_c, 4, 57, 0
5, 342480, Note_on_c, 4, 59, 41
5, 342670, Note_off_c, 4, 59, 0
5, 353280, Note_on_c, 4, 66, 77
5, 353435, Note_off_c, 4, 66, 0
5, 356160, Note_on_c, 4, 66, 40
5, 356400, Note_off_c, 4, 66, 0
5, 356400, Note_on_c, 4, 64, 41
5, 356640, Note_off_c, 4, 64, 0
5, 356640, Note_on_c, 4, 67, 41
5, 356880, Note_off_c, 4, 67, 0
5, 356880, Note_on_c, 4, 66, 41
5, 357120, Note_off_c, 4, 66, 0
5, 357120, Note_on_c, 4, 64, 42
5, 357360, Note_off_c, 4, 64, 0
5, 357360, Note_on_c, 4, 67, 42
5, 357600, Note_off_c, 4, 67, 0
5, 357600, Note_on_c, 4, 66, 42
5, 357800, Note_off_c, 4, 66, 0
5, 361920, Note_on_c, 4, 64, 49
5, 362160, Note_off_c, 4, 64, 0
5, 362160, Note_on_c, 4, 62, 49
5, 362400, Note_off_c, 4, 62, 0
5, 362400, Note_on_c, 4, 66, 50
5, 362640, Note_off_c, 4, 66, 0
5, 362640, Note_on_c, 4, 64, 50
5, 362880, Note_off_c, 4, 64, 0
5, 362880, Note_on_c, 4, 62, 50
5, 363120, Note_off_c, 4, 62, 0
5, 363120, Note_on_c, 4, 66, 51
5, 363360, Note_off_c, 4, 66, 0
5, 363360, Note_on_c, 4, 64, 51
5, 363565, Note_off_c, 4, 64, 0
5, 367200, Note_on_c, 4, 62, 64
5, 367320, Note_off_c, 4, 62, 0
5, 367320, Note_on_c, 4, 66, 64
5, 367440, Note_off_c, 4, 66, 0
5, 367440, Note_on_c, 4, 64, 64
5, 367560, Note_off_c, 4, 64, 0
5, 367560, Note_on_c, 4, 67, 65
5, 367680, Note_off_c, 4, 67, 0
5, 367680, Note_on_c, 4, 66, 65
5, 367920, Note_off_c, 4, 66, 0
5, 370080, Note_on_c, 4, 55, 69
5, 370200, Note_off_c, 4, 55, 0
5, 370200, Note_on_c, 4, 59, 69
5, 370320, Note_off_c, 4, 59, 0
5, 370320, Note_on_c, 4, 57, 69
5, 370440, Note_off_c, 4, 57, 0
5, 370440, Note_on_c, 4, 60, 69
5, 370560, Note_off_c, 4, 60, 0
5, 370560, Note_on_c, 4, 55, 69
5, 370800, Note_off_c, 4, 55, 0
5, 372480, Note_on_c, 4, 67, 78
5, 372480, Note_on_c, 4, 64, 78
5, 372635, Note_off_c, 4, 64, 0
5, 372635, Note_off_c, 4, 67, 0
5, 373200, Note_on_c, 4, 64, 77
5, 373200, Note_on_c, 4, 67, 77
5, 373355, Note_off_c, 4, 67, 0
5, 373355, Note_off_c, 4, 64, 0
5, 373920, Note_on_c, 4, 67, 80
5, 373920, Note_on_c, 4, 64, 80
5, 374075, Note_off_c, 4, 64, 0
5, 374075, Note_off_c, 4, 67, 0
5, 374640, Note_on_c, 4, 67, 80
5, 374640, Note_on_c, 4, 64, 80
5, 374795, Note_off_c, 4, 64, 0
5, 374795, Note_off_c, 4, 67, 0
5, 378960, Note_on_c, 4, 64, 50
5, 379115, Note_off_c, 4, 64, 0
5, 379200, Note_on_c, 4, 62, 50
5, 379355, Note_off_c, 4, 62, 0
5, 380400, Note_on_c, 4, 69, 48
5, 380555, Note_off_c, 4, 69, 0
5, 380880, Note_on_c, 4, 68, 47
5, 381035, Note_off_c, 4, 68, 0
5, 381120, Note_on_c, 4, 67, 46
5, 381275, Note_off_c, 4, 67, 0
5, 381600, Note_on_c, 4, 66, 46
5, 381755, Note_off_c, 4, 66, 0
5, 381840, Note_on_c, 4, 67, 45
5, 381995, Note_off_c, 4, 67, 0
5, 382080, Note_on_c, 4, 61, 45
5, 382235, Note_off_c, 4, 61, 0
5, 382560, Note_on_c, 4, 62, 44
5, 382715, Note_off_c, 4, 62, 0
5, 382800, Note_on_c, 4, 62, 44
5, 383230, Note_off_c, 4, 62, 0
5, 383280, Note_on_c, 4, 61, 43
5, 383470, Note_off_c, 4, 61, 0
5, 389760, Note_on_c, 4, 57, 69
5, 389760, Note_on_c, 4, 62, 69
5, 389915, Note_off_c, 4, 62, 0
5, 389915, Note_off_c, 4, 57, 0
5, 390480, Note_on_c, 4, 59, 70
5, 390480, Note_on_c, 4, 62, 70
5, 390635, Note_off_c, 4, 62, 0
5, 390635, Note_off_c, 4, 59, 0
5, 399360, Control_c, 4, 64, 0
5, 399360, Note_on_c, 4, 57, 38
5, 399360, Note_on_c, 4, 53, 38
5, 399550, Note_off_c, 4, 53, 0
5, 399550, Note_off_c, 4, 57, 0
5, 400320, Note_on_c, 4, 57, 39
5, 400320, Note_on_c, 4, 53, 39
5, 400510, Note_off_c, 4, 53, 0
5, 400510, Note_off_c, 4, 57, 0
5, 400560, Note_on_c, 4, 57, 39
5, 400560, Note_on_c, 4, 53, 39
5, 400750, Note_off_c, 4, 53, 0
5, 400750, Note_off_c, 4, 57, 0
5, 400800, Note_on_c, 4, 57, 40
5, 400800, Note_on_c, 4, 53, 40
5, 400990, Note_off_c, 4, 53, 0
5, 400990, Note_off_c, 4, 57, 0
5, 401760, Note_on_c, 4, 57, 41
5, 401760, Note_on_c, 4, 53, 41
5, 401950, Note_off_c, 4, 53, 0
5, 401950, Note_off_c, 4, 57, 0
5, 402000, Note_on_c, 4, 53, 41
5, 402000, Note_on_c, 4, 57, 41
5, 402190, Note_off_c, 4, 57, 0
5, 402190, Note_off_c, 4, 53, 0
5, 402240, Control_c, 4, 64, 127
5, 402240, Note_on_c, 4, 59, 46
5, 402240, Note_on_c, 4, 53, 46
5, 402240, Note_on_c, 4, 56, 46
5, 402960, Note_off_c, 4, 56, 0
5, 402960, Note_off_c, 4, 53, 0
5, 402960, Note_off_c, 4, 59, 0
5, 405060, Control_c, 4, 64, 0
5, 405120, Note_on_c, 4, 57, 61
5, 405120, Note_on_c, 4, 52, 61
5, 405310, Note_off_c, 4, 52, 0
5, 405310, Note_off_c, 4, 57, 0
5, 406080, Note_on_c, 4, 57, 46
5, 406080, Note_on_c, 4, 52, 46
5, 406270, Note_off_c, 4, 52, 0
5, 406270, Note_off_c, 4, 57, 0
5, 406320, Note_on_c, 4, 52, 46
5, 406320, Note_on_c, 4, 57, 46
5, 406510, Note_off_c, 4, 57, 0
5, 406510, Note_off_c, 4, 52, 0
5, 406560, Note_on_c, 4, 57, 47
5, 406560, Note_on_c, 4, 52, 47
5, 406750, Note_off_c, 4, 52, 0
5, 406750, Note_off_c, 4, 57, 0
5, 407520, Note_on_c, 4, 57, 48
5, 407520, Note_on_c, 4, 52, 48
5, 407710, Note_off_c, 4, 52, 0
5, 407710, Note_off_c, 4, 57, 0
5, 407760, Note_on_c, 4, 52, 48
5, 407760, Note_on_c, 4, 57, 48
5, 407950, Note_off_c, 4, 57, 0
5, 407950, Note_off_c, 4, 52, 0
5, 408000, Note_on_c, 4, 60, 53
5, 408000, Note_on_c, 4, 57, 53
5, 408000, Note_on_c, 4, 54, 53
5, 408060, Control_c, 4, 64, 127
5, 408240, Note_off_c, 4, 54, 0
5, 408240, Note_off_c, 4, 57, 0
5, 408240, Note_off_c, 4, 60, 0
5, 409320, Control_c, 4, 64, 0
5, 409440, Control_c, 4, 64, 127
5, 409480, Note_on_c, 4, 55, 65
5, 409520, Note_on_c, 4, 59, 65
5, 409805, Note_off_c, 4, 59, 0
5, 409805, Note_off_c, 4, 55, 0
5, 410820, Control_c, 4, 64, 0
5, 410880, Note_on_c, 4, 55, 67
5, 410880, Note_on_c, 4, 58, 67
5, 410880, Note_on_c, 4, 52, 67
5, 410940, Control_c, 4, 64, 127
5, 411600, Note_off_c, 4, 52, 0
5, 411600, Note_off_c, 4, 58, 0
5, 411600, Note_off_c, 4, 55, 0
5, 413700, Control_c, 4, 64, 0
5, 417120, Note_on_c, 4, 63, 74
5, 417310, Note_off_c, 4, 63, 0
5, 417360, Note_on_c, 4, 64, 74
5, 417550, Note_off_c, 4, 64, 0
5, 417840, Note_on_c, 4, 64, 75
5, 418030, Note_off_c, 4, 64, 0
5, 418080, Note_on_c, 4, 66, 75
5, 418270, Note_off_c, 4, 66, 0
5, 418560, Note_on_c, 4, 66, 76
5, 418750, Note_off_c, 4, 66, 0
5, 418800, Note_on_c, 4, 67, 76
5, 418990, Note_off_c, 4, 67, 0
5, 419280, Note_on_c, 4, 64, 77
5, 419470, Note_off_c, 4, 64, 0
5, 419520, Note_on_c, 4, 63, 77
5, 419710, Note_off_c, 4, 63, 0
5, 420720, Note_on_c, 4, 72, 82
5, 420720, Note_on_c, 4, 69, 82
5, 420875, Note_off_c, 4, 69, 0
5, 420875, Note_off_c, 4, 72, 0
5, 421440, Note_on_c, 4, 69, 82
5, 421440, Note_on_c, 4, 72, 82
5, 421595, Note_off_c, 4, 72, 0
5, 421595, Note_off_c, 4, 69, 0
5, 422160, Note_on_c, 4, 67, 84
5, 422160, Note_on_c, 4, 64, 84
5, 422315, Note_off_c, 4, 64, 0
5, 422315, Note_off_c, 4, 67, 0
5, 422880, Note_on_c, 4, 67, 84
5, 422880, Note_on_c, 4, 64, 84
5, 423035, Note_off_c, 4, 64, 0
5, 423035, Note_off_c, 4, 67, 0
5, 424560, Note_on_c, 4, 67, 76
5, 424750, Note_off_c, 4, 67, 0
5, 433440, Note_on_c, 4, 60, 46
5, 433440, Note_on_c, 4, 57, 46
5, 433630, Note_off_c, 4, 57, 0
5, 433630, Note_off_c, 4, 60, 0
5, 433680, Note_on_c, 4, 60, 45
5, 433680, Note_on_c, 4, 57, 45
5, 433870, Note_off_c, 4, 57, 0
5, 433870, Note_off_c, 4, 60, 0
5, 433920, Note_on_c, 4, 60, 44
5, 433920, Note_on_c, 4, 57, 44
5, 434110, Note_off_c, 4, 57, 0
5, 434110, Note_off_c, 4, 60, 0
5, 434160, Note_on_c, 4, 57, 43
5, 434160, Note_on_c, 4, 60, 43
5, 434350, Note_off_c, 4, 60, 0
5, 434350, Note_off_c, 4, 57, 0
5, 434400, Note_on_c, 4, 59, 42
5, 434400, Note_on_c, 4, 57, 42
5, 434590, Note_off_c, 4, 57, 0
5, 434590, Note_off_c, 4, 59, 0
5, 434640, Note_on_c, 4, 55, 44
5, 434640, Note_on_c, 4, 59, 44
5, 434830, Note_off_c, 4, 59, 0
5, 434830, Note_off_c, 4, 55, 0
5, 436320, Note_on_c, 4, 62, 51
5, 436510, Note_off_c, 4, 62, 0
5, 436560, Note_on_c, 4, 62, 50
5, 436750, Note_off_c, 4, 62, 0
5, 436800, Note_on_c, 4, 62, 48
5, 436990, Note_off_c, 4, 62, 0
5, 437040, Note_on_c, 4, 62, 47
5, 437230, Note_off_c, 4, 62, 0
5, 444960, Note_on_c, 4, 67, 71
5, 445200, Note_off_c, 4, 67, 0
5, 445200, Note_on_c, 4, 66, 71
5, 445440, Note_off_c, 4, 66, 0
5, 445440, Note_on_c, 4, 67, 72
5, 445680, Note_off_c, 4, 67, 0
5, 445680, Note_on_c, 4, 66, 72
5, 445920, Note_off_c, 4, 66, 0
5, 445920, Note_on_c, 4, 67, 73
5, 446160, Note_off_c, 4, 67, 0
5, 446160, Note_on_c, 4, 66, 73
5, 446400, Note_off_c, 4, 66, 0
5, 449040, Control_c, 4, 64, 0
5, 460560, Note_on_c, 4, 64, 73
5, 460800, Note_off_c, 4, 64, 0
5, 461760, Note_on_c, 4, 67, 69
5, 462000, Note_off_c, 4, 67, 0
5, 462000, Note_on_c, 4, 66, 67
5, 462190, Note_off_c, 4, 66, 0
5, 462480, Note_on_c, 4, 66, 64
5, 462720, Note_off_c, 4, 66, 0
5, 462720, Note_on_c, 4, 67, 62
5, 462910, Note_off_c, 4, 67, 0
5, 463200, Note_on_c, 4, 67, 58
5, 463440, Note_off_c, 4, 67, 0
5, 463440, Note_on_c, 4, 64, 57
5, 463630, Note_off_c, 4, 64, 0
5, 464160, Note_on_c, 4, 59, 51
5, 464350, Note_off_c, 4, 59, 0
5, 464640, Note_on_c, 4, 59, 48
5, 464880, Note_off_c, 4, 59, 0
5, 464880, Note_on_c, 4, 57, 46
5, 465070, Note_off_c, 4, 57, 0
5, 465360, Note_on_c, 4, 57, 43
5, 465600, Note_off_c, 4, 57, 0
5, 465600, Note_on_c, 4, 59, 41
5, 465790, Note_off_c, 4, 59, 0
5, 476400, Note_on_c, 4, 66, 77
5, 476555, Note_off_c, 4, 66, 0
5, 479280, Note_on_c, 4, 71, 40
5, 479520, Note_off_c, 4, 71, 0
5, 479520, Note_on_c, 4, 69, 41
5, 479760, Note_off_c, 4, 69, 0
5, 479760, Note_on_c, 4, 72, 41
5, 480000, Note_off_c, 4, 72, 0
5, 480000, Note_on_c, 4, 71, 41
5, 480240, Note_off_c, 4, 71, 0
5, 480240, Note_on_c, 4, 69, 42
5, 480480, Note_off_c, 4, 69, 0
5, 480480, Note_on_c, 4, 72, 42
5, 480720, Note_off_c, 4, 72, 0
5, 480720, Note_on_c, 4, 71, 42
5, 480920, Note_off_c, 4, 71, 0
5, 485040, Note_on_c, 4, 69, 49
5, 485280, Note_off_c, 4, 69, 0
5, 485280, Note_on_c, 4, 67, 49
5, 485520, Note_off_c, 4, 67, 0
5, 485520, Note_on_c, 4, 71, 50
5, 485760, Note_off_c, 4, 71, 0
5, 485760, Note_on_c, 4, 69, 50
5, 486000, Note_off_c, 4, 69, 0
5, 486000, Note_on_c, 4, 67, 50
5, 486240, Note_off_c, 4, 67, 0
5, 486240, Note_on_c, 4, 71, 51
5, 486480, Note_off_c, 4, 71, 0
5, 486480, Note_on_c, 4, 69, 51
5, 486685, Note_off_c, 4, 69, 0
5, 490320, Note_on_c, 4, 55, 64
5, 490440, Note_off_c, 4, 55, 0
5, 490440, Note_on_c, 4, 59, 64
5, 490560, Note_off_c, 4, 59, 0
5, 490560, Note_on_c, 4, 57, 64
5, 490680, Note_off_c, 4, 57, 0
5, 490680, Note_on_c, 4, 60, 65
5, 490800, Note_off_c, 4, 60, 0
5, 490800, Note_on_c, 4, 59, 65
5, 491040, Note_off_c, 4, 59, 0
5, 493680, Note_on_c, 4, 64, 69
5, 493920, Note_off_c, 4, 64, 0
5, 495600, Note_on_c, 4, 69, 78
5, 495600, Note_on_c, 4, 72, 78
5, 495755, Note_off_c, 4, 72, 0
5, 495755, Note_off_c, 4, 69, 0
5, 496320, Note_on_c, 4, 72, 77
5, 496320, Note_on_c, 4, 69, 77
5, 496475, Note_off_c, 4, 69, 0
5, 496475, Note_off_c, 4, 72, 0
5, 497040, Note_on_c, 4, 69, 80
5, 497040, Note_on_c, 4, 72, 80
5, 497195, Note_off_c, 4, 72, 0
5, 497195, Note_off_c, 4, 69, 0
5, 497760, Note_on_c, 4, 69, 80
5, 497760, Note_on_c, 4, 72, 80
5, 497915, Note_off_c, 4, 72, 0
5, 497915, Note_off_c, 4, 69, 0
5, 502080, Note_on_c, 4, 69, 50
5, 502235, Note_off_c, 4, 69, 0
5, 502320, Note_on_c, 4, 67, 50
5, 502475, Note_off_c, 4, 67, 0
5, 503520, Note_on_c, 4, 74, 48
5, 503675, Note_off_c, 4, 74, 0
5, 504000, Note_on_c, 4, 73, 47
5, 504155, Note_off_c, 4, 73, 0
5, 504240, Note_on_c, 4, 72, 46
5, 504395, Note_off_c, 4, 72, 0
5, 504720, Note_on_c, 4, 71, 46
5, 504875, Note_off_c, 4, 71, 0
5, 504960, Note_on_c, 4, 72, 45
5, 505115, Note_off_c, 4, 72, 0
5, 505200, Note_on_c, 4, 66, 45
5, 505355, Note_off_c, 4, 66, 0
5, 505680, Note_on_c, 4, 67, 44
5, 505835, Note_off_c, 4, 67, 0
5, 505920, Note_on_c, 4, 67, 44
5, 506350, Note_off_c, 4, 67, 0
5, 506400, Note_on_c, 4, 66, 43
5, 506590, Note_off_c, 4, 66, 0
5, 512880, Note_on_c, 4, 67, 69
5, 513035, Note_off_c, 4, 67, 0
5, 513600, Note_on_c, 4, 64, 70
5, 513600, Note_on_c, 4, 67, 70
5, 513755, Note_off_c, 4, 67, 0
5, 513755, Note_off_c, 4, 64, 0
5, 522480, Control_c, 4, 64, 127
5, 522480, Control_c, 4, 64, 127
5, 522520, Note_on_c, 4, 54, 95
5, 522560, Note_on_c, 4, 57, 95
5, 522600, Note_on_c, 4, 62, 95
5, 522760, Note_off_c, 4, 54, 0
5, 522800, Note_off_c, 4, 57, 0
5, 522840, Note_off_c, 4, 62, 0
5, 523200, Control_c, 4, 64, 0
5, 523200, Control_c, 4, 64, 0
5, 523920, Control_c, 4, 64, 127
5, 523920, Control_c, 4, 64, 127
5, 523960, Note_on_c, 4, 47, 95
5, 524000, Note_on_c, 4, 50, 95
5, 524040, Note_on_c, 4, 55, 95
5, 524200, Note_off_c, 4, 47, 0
5, 524240, Note_off_c, 4, 50, 0
5, 524280, Note_off_c, 4, 55, 0
5, 524640, Control_c, 4, 64, 0
5, 524640, Control_c, 4, 64, 0
5, 524640, End_track
6, 0, Start_track
6, 0, Title_t, "Unnamed Track"
6, 0, Control_c, 5, 0, 0
6, 0, Control_c, 5, 32, 0
6, 0, Program_c, 5, 0
6, 0, Control_c, 5, 10, 55
6, 0, Control_c, 5, 91, 100
6, 0, Control_c, 5, 93, 28
6, 0, Control_c, 5, 64, 0
6, 0, Pitch_bend_c, 5, 8192
6, 0, Control_c, 5, 93, 18
6, 0, Pitch_bend_c, 5, 8192
6, 0, Control_c, 5, 1, 0
6, 0, Control_c, 5, 1, 0
6, 0, Pitch_bend_c, 5, 8192
6, 0, Control_c, 5, 7, 125
6, 1440, Note_on_c, 5, 55, 52
6, 1920, Note_off_c, 5, 55, 0
6, 2880, Note_on_c, 5, 57, 54
6, 3360, Note_off_c, 5, 57, 0
6, 4320, Note_on_c, 5, 54, 56
6, 4800, Note_off_c, 5, 54, 0
6, 5760, Note_on_c, 5, 55, 58
6, 6240, Note_off_c, 5, 55, 0
6, 6720, Note_on_c, 5, 55, 65
6, 7100, Note_off_c, 5, 55, 0
6, 7200, Note_on_c, 5, 60, 74
6, 8100, Note_off_c, 5, 60, 0
6, 8640, Note_on_c, 5, 59, 79
6, 9545, Note_off_c, 5, 59, 0
6, 10080, Note_on_c, 5, 57, 80
6, 10287, Note_off_c, 5, 57, 0
6, 10560, Note_on_c, 5, 55, 79
6, 10767, Note_off_c, 5, 55, 0
6, 11040, Note_on_c, 5, 54, 82
6, 11280, Note_off_c, 5, 54, 0
6, 11520, Note_on_c, 5, 55, 85
6, 11905, Note_off_c, 5, 55, 0
6, 12480, Note_on_c, 5, 52, 79
6, 12865, Note_off_c, 5, 52, 0
6, 13440, Note_on_c, 5, 50, 75
6, 14300, Note_off_c, 5, 50, 0
6, 14400, Note_on_c, 5, 55, 70
6, 14710, Note_off_c, 5, 55, 0
6, 14880, Note_on_c, 5, 43, 66
6, 15190, Note_off_c, 5, 43, 0
6, 15840, Note_on_c, 5, 48, 55
6, 16740, Note_off_c, 5, 48, 0
6, 17280, Note_on_c, 5, 47, 61
6, 18185, Note_off_c, 5, 47, 0
6, 18720, Note_on_c, 5, 57, 74
6, 18990, Note_off_c, 5, 57, 0
6, 19200, Note_on_c, 5, 55, 74
6, 19470, Note_off_c, 5, 55, 0
6, 19680, Note_on_c, 5, 54, 80
6, 19920, Note_off_c, 5, 54, 0
6, 20160, Note_on_c, 5, 55, 85
6, 20545, Note_off_c, 5, 55, 0
6, 21120, Note_on_c, 5, 52, 78
6, 21505, Note_off_c, 5, 52, 0
6, 22080, Note_on_c, 5, 50, 74
6, 22925, Note_off_c, 5, 50, 0
6, 23040, Note_on_c, 5, 55, 68
6, 23425, Note_off_c, 5, 55, 0
6, 23760, Note_on_c, 5, 31, 42
6, 23760, Note_on_c, 5, 43, 42
6, 23915, Note_off_c, 5, 43, 0
6, 23915, Note_off_c, 5, 31, 0
6, 24000, Note_on_c, 5, 33, 43
6, 24000, Note_on_c, 5, 45, 43
6, 24155, Note_off_c, 5, 45, 0
6, 24155, Note_off_c, 5, 33, 0
6, 24240, Note_on_c, 5, 35, 45
6, 24240, Note_on_c, 5, 47, 45
6, 24395, Note_off_c, 5, 47, 0
6, 24395, Note_off_c, 5, 35, 0
6, 24480, Note_on_c, 5, 36, 46
6, 24480, Note_on_c, 5, 48, 46
6, 24960, Note_off_c, 5, 48, 0
6, 24960, Note_off_c, 5, 36, 0
6, 25200, Note_on_c, 5, 33, 50
6, 25200, Note_on_c, 5, 45, 50
6, 25355, Note_off_c, 5, 45, 0
6, 25355, Note_off_c, 5, 33, 0
6, 25440, Note_on_c, 5, 35, 52
6, 25440, Note_on_c, 5, 47, 52
6, 25595, Note_off_c, 5, 47, 0
6, 25595, Note_off_c, 5, 35, 0
6, 25680, Note_on_c, 5, 36, 53
6, 25680, Note_on_c, 5, 48, 53
6, 25835, Note_off_c, 5, 48, 0
6, 25835, Note_off_c, 5, 36, 0
6, 25920, Note_on_c, 5, 38, 55
6, 25920, Note_on_c, 5, 50, 55
6, 26400, Note_off_c, 5, 50, 0
6, 26400, Note_off_c, 5, 38, 0
6, 26640, Note_on_c, 5, 35, 59
6, 26640, Note_on_c, 5, 47, 59
6, 26795, Note_off_c, 5, 47, 0
6, 26795, Note_off_c, 5, 35, 0
6, 26880, Note_on_c, 5, 36, 60
6, 26880, Note_on_c, 5, 48, 60
6, 27035, Note_off_c, 5, 48, 0
6, 27035, Note_off_c, 5, 36, 0
6, 27120, Note_on_c, 5, 38, 62
6, 27120, Note_on_c, 5, 50, 62
6, 27275, Note_off_c, 5, 50, 0
6, 27275, Note_off_c, 5, 38, 0
6, 27360, Note_on_c, 5, 52, 63
6, 27360, Note_on_c, 5, 40, 63
6, 27515, Note_off_c, 5, 40, 0
6, 27515, Note_off_c, 5, 52, 0
6, 27600, Note_on_c, 5, 38, 65
6, 27600, Note_on_c, 5, 50, 65
6, 27755, Note_off_c, 5, 50, 0
6, 27755, Note_off_c, 5, 38, 0
6, 27840, Note_on_c, 5, 48, 66
6, 27840, Note_on_c, 5, 36, 66
6, 27995, Note_off_c, 5, 36, 0
6, 27995, Note_off_c, 5, 48, 0
6, 28080, Note_on_c, 5, 38, 68
6, 28080, Note_on_c, 5, 50, 68
6, 28235, Note_off_c, 5, 50, 0
6, 28235, Note_off_c, 5, 38, 0
6, 28320, Note_on_c, 5, 52, 69
6, 28320, Note_on_c, 5, 40, 69
6, 28475, Note_off_c, 5, 40, 0
6, 28475, Note_off_c, 5, 52, 0
6, 28560, Note_on_c, 5, 54, 70
6, 28560, Note_on_c, 5, 42, 70
6, 28715, Note_off_c, 5, 42, 0
6, 28715, Note_off_c, 5, 54, 0
6, 28800, Note_on_c, 5, 55, 72
6, 28800, Note_on_c, 5, 43, 72
6, 28955, Note_off_c, 5, 43, 0
6, 28955, Note_off_c, 5, 55, 0
6, 29040, Note_on_c, 5, 54, 73
6, 29040, Note_on_c, 5, 42, 73
6, 29195, Note_off_c, 5, 42, 0
6, 29195, Note_off_c, 5, 54, 0
6, 29280, Note_on_c, 5, 52, 75
6, 29280, Note_on_c, 5, 40, 75
6, 29435, Note_off_c, 5, 40, 0
6, 29435, Note_off_c, 5, 52, 0
6, 29520, Note_on_c, 5, 54, 76
6, 29520, Note_on_c, 5, 42, 76
6, 29675, Note_off_c, 5, 42, 0
6, 29675, Note_off_c, 5, 54, 0
6, 29760, Note_on_c, 5, 55, 78
6, 29760, Note_on_c, 5, 43, 78
6, 29915, Note_off_c, 5, 43, 0
6, 29915, Note_off_c, 5, 55, 0
6, 30000, Note_on_c, 5, 57, 79
6, 30000, Note_on_c, 5, 45, 79
6, 30155, Note_off_c, 5, 45, 0
6, 30155, Note_off_c, 5, 57, 0
6, 30240, Note_on_c, 5, 59, 80
6, 30240, Note_on_c, 5, 47, 80
6, 30395, Note_off_c, 5, 47, 0
6, 30395, Note_off_c, 5, 59, 0
6, 30480, Note_on_c, 5, 57, 82
6, 30480, Note_on_c, 5, 45, 82
6, 30635, Note_off_c, 5, 45, 0
6, 30635, Note_off_c, 5, 57, 0
6, 30720, Note_on_c, 5, 55, 83
6, 30720, Note_on_c, 5, 43, 83
6, 30875, Note_off_c, 5, 43, 0
6, 30875, Note_off_c, 5, 55, 0
6, 30960, Note_on_c, 5, 57, 85
6, 30960, Note_on_c, 5, 45, 85
6, 31115, Note_off_c, 5, 45, 0
6, 31115, Note_off_c, 5, 57, 0
6, 31200, Note_on_c, 5, 59, 86
6, 31200, Note_on_c, 5, 47, 86
6, 31355, Note_off_c, 5, 47, 0
6, 31355, Note_off_c, 5, 59, 0
6, 31440, Note_on_c, 5, 61, 88
6, 31440, Note_on_c, 5, 49, 88
6, 31595, Note_off_c, 5, 49, 0
6, 31595, Note_off_c, 5, 61, 0
6, 31680, Note_on_c, 5, 62, 89
6, 31680, Note_on_c, 5, 50, 89
6, 32065, Note_off_c, 5, 50, 0
6, 32065, Note_off_c, 5, 62, 0
6, 32160, Note_on_c, 5, 50, 87
6, 32160, Note_on_c, 5, 38, 87
6, 32640, Note_off_c, 5, 50, 0
6, 32645, Note_off_c, 5, 38, 0
6, 33120, Note_on_c, 5, 66, 44
6, 33360, Note_off_c, 5, 66, 0
6, 33600, Note_on_c, 5, 64, 46
6, 33840, Note_off_c, 5, 64, 0
6, 34080, Note_on_c, 5, 62, 48
6, 34320, Note_off_c, 5, 62, 0
6, 34560, Note_on_c, 5, 61, 49
6, 34800, Note_off_c, 5, 61, 0
6, 35040, Note_on_c, 5, 59, 51
6, 35280, Note_off_c, 5, 59, 0
6, 35520, Note_on_c, 5, 57, 53
6, 35760, Note_off_c, 5, 57, 0
6, 36000, Note_on_c, 5, 59, 55
6, 36240, Note_off_c, 5, 59, 0
6, 36480, Note_on_c, 5, 61, 54
6, 36720, Note_off_c, 5, 61, 0
6, 36960, Note_on_c, 5, 62, 52
6, 37200, Note_off_c, 5, 62, 0
6, 37440, Note_on_c, 5, 64, 51
6, 37680, Note_off_c, 5, 64, 0
6, 37920, Note_on_c, 5, 61, 48
6, 38160, Note_off_c, 5, 61, 0
6, 38400, Note_on_c, 5, 57, 46
6, 38640, Note_off_c, 5, 57, 0
6, 38880, Note_on_c, 5, 66, 56
6, 39000, Note_off_c, 5, 66, 0
6, 39120, Note_on_c, 5, 66, 58
6, 39240, Note_off_c, 5, 66, 0
6, 39360, Note_on_c, 5, 64, 60
6, 39480, Note_off_c, 5, 64, 0
6, 39600, Note_on_c, 5, 64, 61
6, 39720, Note_off_c, 5, 64, 0
6, 39840, Note_on_c, 5, 62, 63
6, 39960, Note_off_c, 5, 62, 0
6, 40080, Note_on_c, 5, 62, 64
6, 40200, Note_off_c, 5, 62, 0
6, 40320, Note_on_c, 5, 61, 66
6, 40440, Note_off_c, 5, 61, 0
6, 40560, Note_on_c, 5, 61, 67
6, 40680, Note_off_c, 5, 61, 0
6, 40800, Note_on_c, 5, 59, 69
6, 40920, Note_off_c, 5, 59, 0
6, 41040, Note_on_c, 5, 59, 70
6, 41160, Note_off_c, 5, 59, 0
6, 41280, Note_on_c, 5, 57, 72
6, 41400, Note_off_c, 5, 57, 0
6, 41520, Note_on_c, 5, 57, 73
6, 41640, Note_off_c, 5, 57, 0
6, 41760, Note_on_c, 5, 59, 73
6, 41880, Note_off_c, 5, 59, 0
6, 42000, Note_on_c, 5, 59, 72
6, 42120, Note_off_c, 5, 59, 0
6, 42240, Note_on_c, 5, 61, 71
6, 42360, Note_off_c, 5, 61, 0
6, 42480, Note_on_c, 5, 61, 70
6, 42600, Note_off_c, 5, 61, 0
6, 42720, Note_on_c, 5, 62, 69
6, 42840, Note_off_c, 5, 62, 0
6, 42960, Note_on_c, 5, 62, 67
6, 43080, Note_off_c, 5, 62, 0
6, 43200, Note_on_c, 5, 64, 67
6, 43320, Note_off_c, 5, 64, 0
6, 43440, Note_on_c, 5, 64, 65
6, 43560, Note_off_c, 5, 64, 0
6, 43680, Note_on_c, 5, 61, 62
6, 43800, Note_off_c, 5, 61, 0
6, 43920, Note_on_c, 5, 61, 60
6, 44040, Note_off_c, 5, 61, 0
6, 44160, Note_on_c, 5, 57, 65
6, 44280, Note_off_c, 5, 57, 0
6, 44280, Note_on_c, 5, 55, 67
6, 44400, Note_off_c, 5, 55, 0
6, 44400, Note_on_c, 5, 54, 69
6, 44520, Note_off_c, 5, 54, 0
6, 44520, Note_on_c, 5, 52, 71
6, 44640, Note_off_c, 5, 52, 0
6, 44640, Note_on_c, 5, 50, 72
6, 45120, Note_off_c, 5, 50, 0
6, 45600, Note_on_c, 5, 61, 73
6, 45840, Note_off_c, 5, 61, 0
6, 45840, Note_on_c, 5, 62, 64
6, 45995, Note_off_c, 5, 62, 0
6, 46080, Note_on_c, 5, 50, 56
6, 46560, Note_off_c, 5, 50, 0
6, 47040, Note_on_c, 5, 61, 75
6, 47280, Note_off_c, 5, 61, 0
6, 47280, Note_on_c, 5, 62, 66
6, 47435, Note_off_c, 5, 62, 0
6, 47520, Note_on_c, 5, 50, 60
6, 48000, Note_off_c, 5, 50, 0
6, 48480, Note_on_c, 5, 68, 77
6, 48720, Note_off_c, 5, 68, 0
6, 48720, Note_on_c, 5, 69, 66
6, 48875, Note_off_c, 5, 69, 0
6, 48960, Note_on_c, 5, 66, 78
6, 49200, Note_off_c, 5, 66, 0
6, 49200, Note_on_c, 5, 67, 68
6, 49355, Note_off_c, 5, 67, 0
6, 49440, Note_on_c, 5, 62, 78
6, 49680, Note_off_c, 5, 62, 0
6, 49680, Note_on_c, 5, 61, 68
6, 49835, Note_off_c, 5, 61, 0
6, 49920, Note_on_c, 5, 60, 80
6, 50160, Note_off_c, 5, 60, 0
6, 50160, Note_on_c, 5, 59, 70
6, 50315, Note_off_c, 5, 59, 0
6, 50400, Note_on_c, 5, 57, 80
6, 50880, Note_off_c, 5, 57, 0
6, 51360, Note_on_c, 5, 55, 89
6, 51745, Note_off_c, 5, 55, 0
6, 51840, Note_on_c, 5, 54, 82
6, 52225, Note_off_c, 5, 54, 0
6, 52800, Note_on_c, 5, 54, 92
6, 53185, Note_off_c, 5, 54, 0
6, 53280, Note_on_c, 5, 55, 81
6, 53665, Note_off_c, 5, 55, 0
6, 53760, Note_on_c, 5, 57, 89
6, 54630, Note_off_c, 5, 57, 0
6, 54720, Note_on_c, 5, 62, 82
6, 55105, Note_off_c, 5, 62, 0
6, 55680, Note_on_c, 5, 68, 86
6, 55920, Note_off_c, 5, 68, 0
6, 55920, Note_on_c, 5, 69, 70
6, 56075, Note_off_c, 5, 69, 0
6, 56160, Note_on_c, 5, 66, 86
6, 56400, Note_off_c, 5, 66, 0
6, 56400, Note_on_c, 5, 67, 72
6, 56555, Note_off_c, 5, 67, 0
6, 56640, Note_on_c, 5, 62, 87
6, 56880, Note_off_c, 5, 62, 0
6, 56880, Note_on_c, 5, 61, 73
6, 57035, Note_off_c, 5, 61, 0
6, 57120, Note_on_c, 5, 60, 88
6, 57360, Note_off_c, 5, 60, 0
6, 57360, Note_on_c, 5, 59, 74
6, 57515, Note_off_c, 5, 59, 0
6, 57600, Note_on_c, 5, 57, 90
6, 58080, Note_off_c, 5, 57, 0
6, 58320, Note_on_c, 5, 57, 90
6, 58440, Note_off_c, 5, 57, 0
6, 58560, Note_on_c, 5, 55, 101
6, 58680, Note_off_c, 5, 55, 0
6, 58800, Note_on_c, 5, 55, 95
6, 58920, Note_off_c, 5, 55, 0
6, 59040, Note_on_c, 5, 54, 90
6, 59520, Note_off_c, 5, 54, 0
6, 59760, Note_on_c, 5, 54, 92
6, 59880, Note_off_c, 5, 54, 0
6, 60000, Note_on_c, 5, 54, 101
6, 60120, Note_off_c, 5, 54, 0
6, 60240, Note_on_c, 5, 54, 96
6, 60360, Note_off_c, 5, 54, 0
6, 60480, Note_on_c, 5, 55, 93
6, 60865, Note_off_c, 5, 55, 0
6, 60960, Note_on_c, 5, 57, 98
6, 61830, Note_off_c, 5, 57, 0
6, 61920, Note_on_c, 5, 62, 89
6, 62305, Note_off_c, 5, 62, 0
6, 62640, Note_on_c, 5, 57, 80
6, 62760, Note_off_c, 5, 57, 0
6, 62760, Note_on_c, 5, 61, 79
6, 62880, Note_off_c, 5, 61, 0
6, 62880, Note_on_c, 5, 59, 77
6, 63000, Note_off_c, 5, 59, 0
6, 63000, Note_on_c, 5, 62, 76
6, 63120, Note_off_c, 5, 62, 0
6, 63120, Note_on_c, 5, 61, 74
6, 63240, Note_off_c, 5, 61, 0
6, 63240, Note_on_c, 5, 64, 73
6, 63335, Note_off_c, 5, 64, 0
6, 63360, Note_on_c, 5, 62, 70
6, 63840, Note_off_c, 5, 62, 0
6, 64080, Note_on_c, 5, 57, 60
6, 64200, Note_off_c, 5, 57, 0
6, 64200, Note_on_c, 5, 61, 58
6, 64320, Note_off_c, 5, 61, 0
6, 64320, Note_on_c, 5, 59, 56
6, 64440, Note_off_c, 5, 59, 0
6, 64440, Note_on_c, 5, 62, 55
6, 64560, Note_off_c, 5, 62, 0
6, 64560, Note_on_c, 5, 61, 50
6, 64680, Note_off_c, 5, 61, 0
6, 64680, Note_on_c, 5, 64, 48
6, 64800, Note_off_c, 5, 64, 0
6, 64800, Note_on_c, 5, 62, 46
6, 65280, Note_off_c, 5, 62, 0
6, 65280, Note_on_c, 5, 61, 48
6, 65760, Note_off_c, 5, 61, 0
6, 65760, Note_on_c, 5, 59, 50
6, 66240, Note_off_c, 5, 59, 0
6, 66240, Note_on_c, 5, 57, 53
6, 66720, Note_off_c, 5, 57, 0
6, 66720, Note_on_c, 5, 55, 55
6, 67200, Note_off_c, 5, 55, 0
6, 67200, Note_on_c, 5, 54, 57
6, 67625, Note_off_c, 5, 54, 0
6, 67680, Note_on_c, 5, 55, 61
6, 68040, Note_off_c, 5, 55, 0
6, 68160, Note_on_c, 5, 52, 56
6, 68470, Note_off_c, 5, 52, 0
6, 68640, Note_on_c, 5, 57, 51
6, 68950, Note_off_c, 5, 57, 0
6, 69120, Note_on_c, 5, 62, 64
6, 69600, Note_off_c, 5, 62, 0
6, 69600, Note_on_c, 5, 61, 66
6, 70080, Note_off_c, 5, 61, 0
6, 70080, Note_on_c, 5, 59, 68
6, 70560, Note_off_c, 5, 59, 0
6, 70560, Note_on_c, 5, 57, 70
6, 71040, Note_off_c, 5, 57, 0
6, 71040, Note_on_c, 5, 55, 72
6, 71520, Note_off_c, 5, 55, 0
6, 71520, Note_on_c, 5, 54, 74
6, 71975, Note_off_c, 5, 54, 0
6, 72000, Note_on_c, 5, 55, 77
6, 72365, Note_off_c, 5, 55, 0
6, 72480, Note_on_c, 5, 57, 75
6, 72790, Note_off_c, 5, 57, 0
6, 72960, Note_on_c, 5, 45, 73
6, 73270, Note_off_c, 5, 45, 0
6, 73440, Note_on_c, 5, 50, 70
6, 73620, Note_off_c, 5, 50, 0
6, 73920, Note_on_c, 5, 50, 68
6, 74100, Note_off_c, 5, 50, 0
6, 74400, Note_on_c, 5, 50, 66
6, 74580, Note_off_c, 5, 50, 0
6, 74880, Note_on_c, 5, 50, 64
6, 75060, Note_off_c, 5, 50, 0
6, 75360, Note_on_c, 5, 50, 61
6, 75540, Note_off_c, 5, 50, 0
6, 75840, Note_on_c, 5, 50, 57
6, 76020, Note_off_c, 5, 50, 0
6, 76320, Note_on_c, 5, 50, 49
6, 76800, Note_off_c, 5, 50, 0
6, 78240, Note_on_c, 5, 62, 32
6, 78625, Note_off_c, 5, 62, 0
6, 78720, Note_on_c, 5, 62, 32
6, 79105, Note_off_c, 5, 62, 0
6, 79680, Note_on_c, 5, 64, 34
6, 80065, Note_off_c, 5, 64, 0
6, 80160, Note_on_c, 5, 64, 35
6, 80545, Note_off_c, 5, 64, 0
6, 81120, Note_on_c, 5, 66, 36
6, 81505, Note_off_c, 5, 66, 0
6, 81600, Note_on_c, 5, 66, 37
6, 81985, Note_off_c, 5, 66, 0
6, 82560, Note_on_c, 5, 67, 38
6, 82945, Note_off_c, 5, 67, 0
6, 83040, Note_on_c, 5, 69, 39
6, 83425, Note_off_c, 5, 69, 0
6, 84000, Note_on_c, 5, 50, 40
6, 84385, Note_off_c, 5, 50, 0
6, 84480, Note_on_c, 5, 50, 41
6, 84865, Note_off_c, 5, 50, 0
6, 85440, Note_on_c, 5, 52, 42
6, 85825, Note_off_c, 5, 52, 0
6, 85920, Note_on_c, 5, 52, 43
6, 86305, Note_off_c, 5, 52, 0
6, 86880, Note_on_c, 5, 54, 44
6, 87265, Note_off_c, 5, 54, 0
6, 87360, Note_on_c, 5, 54, 45
6, 87745, Note_off_c, 5, 54, 0
6, 88320, Note_on_c, 5, 55, 47
6, 88705, Note_off_c, 5, 55, 0
6, 88800, Note_on_c, 5, 57, 47
6, 89185, Note_off_c, 5, 57, 0
6, 89280, Note_on_c, 5, 50, 72
6, 91200, Note_off_c, 5, 50, 0
6, 92160, Note_on_c, 5, 50, 76
6, 94080, Note_off_c, 5, 50, 0
6, 95040, Note_on_c, 5, 50, 82
6, 96960, Note_off_c, 5, 50, 0
6, 97920, Note_on_c, 5, 62, 84
6, 98400, Note_off_c, 5, 62, 0
6, 98640, Note_on_c, 5, 50, 83
6, 98720, Note_off_c, 5, 50, 0
6, 98760, Note_on_c, 5, 52, 81
6, 98840, Note_off_c, 5, 52, 0
6, 98880, Note_on_c, 5, 54, 80
6, 99000, Note_off_c, 5, 54, 0
6, 99120, Note_on_c, 5, 55, 77
6, 99240, Note_off_c, 5, 55, 0
6, 99360, Note_on_c, 5, 57, 75
6, 99840, Note_off_c, 5, 57, 0
6, 100080, Note_on_c, 5, 54, 86
6, 100160, Note_off_c, 5, 54, 0
6, 100200, Note_on_c, 5, 55, 85
6, 100280, Note_off_c, 5, 55, 0
6, 100320, Note_on_c, 5, 57, 84
6, 100440, Note_off_c, 5, 57, 0
6, 100560, Note_on_c, 5, 59, 81
6, 100680, Note_off_c, 5, 59, 0
6, 100800, Note_on_c, 5, 60, 76
6, 101280, Note_off_c, 5, 60, 0
6, 103680, Note_on_c, 5, 55, 44
6, 104160, Note_off_c, 5, 55, 0
6, 105120, Note_on_c, 5, 57, 45
6, 105600, Note_off_c, 5, 57, 0
6, 106560, Note_on_c, 5, 54, 46
6, 107040, Note_off_c, 5, 54, 0
6, 108000, Note_on_c, 5, 55, 46
6, 108180, Note_off_c, 5, 55, 0
6, 108240, Note_on_c, 5, 59, 67
6, 108480, Note_off_c, 5, 59, 0
6, 108480, Note_on_c, 5, 57, 60
6, 108720, Note_off_c, 5, 57, 0
6, 108720, Note_on_c, 5, 56, 54
6, 108910, Note_off_c, 5, 56, 0
6, 109440, Note_on_c, 5, 57, 47
6, 109920, Note_off_c, 5, 57, 0
6, 110880, Note_on_c, 5, 59, 48
6, 111360, Note_off_c, 5, 59, 0
6, 112320, Note_on_c, 5, 56, 49
6, 112800, Note_off_c, 5, 56, 0
6, 113760, Note_on_c, 5, 57, 50
6, 113915, Note_off_c, 5, 57, 0
6, 114000, Note_on_c, 5, 60, 68
6, 114240, Note_off_c, 5, 60, 0
6, 114240, Note_on_c, 5, 59, 62
6, 114480, Note_off_c, 5, 59, 0
6, 114480, Note_on_c, 5, 57, 56
6, 114670, Note_off_c, 5, 57, 0
6, 115200, Note_on_c, 5, 57, 51
6, 115440, Note_off_c, 5, 57, 0
6, 115920, Note_on_c, 5, 57, 51
6, 116160, Note_off_c, 5, 57, 0
6, 116160, Note_on_c, 5, 59, 51
6, 116400, Note_off_c, 5, 59, 0
6, 116640, Note_on_c, 5, 60, 51
6, 116880, Note_off_c, 5, 60, 0
6, 117600, Note_on_c, 5, 64, 52
6, 117840, Note_off_c, 5, 64, 0
6, 118080, Note_on_c, 5, 60, 52
6, 118320, Note_off_c, 5, 60, 0
6, 119040, Note_on_c, 5, 60, 53
6, 119280, Note_off_c, 5, 60, 0
6, 119520, Note_on_c, 5, 67, 53
6, 119520, Note_on_c, 5, 59, 53
6, 119945, Note_off_c, 5, 59, 0
6, 119945, Note_off_c, 5, 67, 0
6, 120240, Note_on_c, 5, 43, 50
6, 120240, Note_on_c, 5, 31, 50
6, 120395, Note_off_c, 5, 31, 0
6, 120395, Note_off_c, 5, 43, 0
6, 120480, Note_on_c, 5, 45, 51
6, 120480, Note_on_c, 5, 33, 51
6, 120635, Note_off_c, 5, 33, 0
6, 120635, Note_off_c, 5, 45, 0
6, 120720, Note_on_c, 5, 47, 52
6, 120720, Note_on_c, 5, 35, 52
6, 120875, Note_off_c, 5, 35, 0
6, 120875, Note_off_c, 5, 47, 0
6, 120960, Note_on_c, 5, 48, 54
6, 120960, Note_on_c, 5, 36, 54
6, 121440, Note_off_c, 5, 36, 0
6, 121440, Note_off_c, 5, 48, 0
6, 121680, Note_on_c, 5, 45, 57
6, 121680, Note_on_c, 5, 33, 57
6, 121835, Note_off_c, 5, 33, 0
6, 121835, Note_off_c, 5, 45, 0
6, 121920, Note_on_c, 5, 47, 59
6, 121920, Note_on_c, 5, 35, 59
6, 122075, Note_off_c, 5, 35, 0
6, 122075, Note_off_c, 5, 47, 0
6, 122160, Note_on_c, 5, 48, 60
6, 122160, Note_on_c, 5, 36, 60
6, 122315, Note_off_c, 5, 36, 0
6, 122315, Note_off_c, 5, 48, 0
6, 122400, Note_on_c, 5, 50, 61
6, 122400, Note_on_c, 5, 38, 61
6, 122880, Note_off_c, 5, 38, 0
6, 122880, Note_off_c, 5, 50, 0
6, 123120, Note_on_c, 5, 47, 65
6, 123120, Note_on_c, 5, 35, 65
6, 123275, Note_off_c, 5, 35, 0
6, 123275, Note_off_c, 5, 47, 0
6, 123360, Note_on_c, 5, 48, 66
6, 123360, Note_on_c, 5, 36, 66
6, 123515, Note_off_c, 5, 36, 0
6, 123515, Note_off_c, 5, 48, 0
6, 123600, Note_on_c, 5, 50, 67
6, 123600, Note_on_c, 5, 38, 67
6, 123755, Note_off_c, 5, 38, 0
6, 123755, Note_off_c, 5, 50, 0
6, 123840, Note_on_c, 5, 52, 68
6, 123840, Note_on_c, 5, 40, 68
6, 123995, Note_off_c, 5, 40, 0
6, 123995, Note_off_c, 5, 52, 0
6, 124080, Note_on_c, 5, 50, 70
6, 124080, Note_on_c, 5, 38, 70
6, 124235, Note_off_c, 5, 38, 0
6, 124235, Note_off_c, 5, 50, 0
6, 124320, Note_on_c, 5, 36, 71
6, 124320, Note_on_c, 5, 48, 71
6, 124475, Note_off_c, 5, 48, 0
6, 124475, Note_off_c, 5, 36, 0
6, 124560, Note_on_c, 5, 50, 72
6, 124560, Note_on_c, 5, 38, 72
6, 124715, Note_off_c, 5, 38, 0
6, 124715, Note_off_c, 5, 50, 0
6, 124800, Note_on_c, 5, 52, 73
6, 124800, Note_on_c, 5, 40, 73
6, 124955, Note_off_c, 5, 40, 0
6, 124955, Note_off_c, 5, 52, 0
6, 125040, Note_on_c, 5, 54, 75
6, 125040, Note_on_c, 5, 42, 75
6, 125195, Note_off_c, 5, 42, 0
6, 125195, Note_off_c, 5, 54, 0
6, 125280, Note_on_c, 5, 55, 76
6, 125280, Note_on_c, 5, 43, 76
6, 125435, Note_off_c, 5, 43, 0
6, 125435, Note_off_c, 5, 55, 0
6, 125520, Note_on_c, 5, 42, 77
6, 125520, Note_on_c, 5, 54, 77
6, 125675, Note_off_c, 5, 54, 0
6, 125675, Note_off_c, 5, 42, 0
6, 125760, Note_on_c, 5, 52, 78
6, 125760, Note_on_c, 5, 40, 78
6, 125915, Note_off_c, 5, 40, 0
6, 125915, Note_off_c, 5, 52, 0
6, 126000, Note_on_c, 5, 42, 80
6, 126000, Note_on_c, 5, 54, 80
6, 126155, Note_off_c, 5, 54, 0
6, 126155, Note_off_c, 5, 42, 0
6, 126240, Note_on_c, 5, 55, 81
6, 126240, Note_on_c, 5, 43, 81
6, 126395, Note_off_c, 5, 43, 0
6, 126395, Note_off_c, 5, 55, 0
6, 126480, Note_on_c, 5, 57, 82
6, 126480, Note_on_c, 5, 45, 82
6, 126635, Note_off_c, 5, 45, 0
6, 126635, Note_off_c, 5, 57, 0
6, 126720, Note_on_c, 5, 59, 83
6, 126720, Note_on_c, 5, 47, 83
6, 126875, Note_off_c, 5, 47, 0
6, 126875, Note_off_c, 5, 59, 0
6, 126960, Note_on_c, 5, 57, 85
6, 126960, Note_on_c, 5, 45, 85
6, 127115, Note_off_c, 5, 45, 0
6, 127115, Note_off_c, 5, 57, 0
6, 127200, Note_on_c, 5, 55, 86
6, 127200, Note_on_c, 5, 43, 86
6, 127355, Note_off_c, 5, 43, 0
6, 127355, Note_off_c, 5, 55, 0
6, 127440, Note_on_c, 5, 57, 87
6, 127440, Note_on_c, 5, 45, 87
6, 127595, Note_off_c, 5, 45, 0
6, 127595, Note_off_c, 5, 57, 0
6, 127680, Note_on_c, 5, 59, 88
6, 127680, Note_on_c, 5, 47, 88
6, 127835, Note_off_c, 5, 47, 0
6, 127835, Note_off_c, 5, 59, 0
6, 127920, Note_on_c, 5, 61, 90
6, 127920, Note_on_c, 5, 49, 90
6, 128075, Note_off_c, 5, 49, 0
6, 128075, Note_off_c, 5, 61, 0
6, 128160, Note_on_c, 5, 62, 91
6, 128160, Note_on_c, 5, 50, 91
6, 128545, Note_off_c, 5, 50, 0
6, 128545, Note_off_c, 5, 62, 0
6, 128640, Note_on_c, 5, 50, 88
6, 128640, Note_on_c, 5, 38, 88
6, 129125, Note_off_c, 5, 38, 0
6, 129125, Note_off_c, 5, 50, 0
6, 129600, Note_on_c, 5, 59, 40
6, 129840, Note_off_c, 5, 59, 0
6, 130080, Note_on_c, 5, 57, 41
6, 130320, Note_off_c, 5, 57, 0
6, 130560, Note_on_c, 5, 55, 42
6, 130800, Note_off_c, 5, 55, 0
6, 131040, Note_on_c, 5, 54, 43
6, 131280, Note_off_c, 5, 54, 0
6, 131520, Note_on_c, 5, 52, 45
6, 131760, Note_off_c, 5, 52, 0
6, 132000, Note_on_c, 5, 50, 46
6, 132240, Note_off_c, 5, 50, 0
6, 132480, Note_on_c, 5, 52, 47
6, 132720, Note_off_c, 5, 52, 0
6, 132960, Note_on_c, 5, 54, 46
6, 133200, Note_off_c, 5, 54, 0
6, 133440, Note_on_c, 5, 55, 45
6, 133680, Note_off_c, 5, 55, 0
6, 133920, Note_on_c, 5, 57, 43
6, 134160, Note_off_c, 5, 57, 0
6, 134400, Note_on_c, 5, 54, 42
6, 134640, Note_off_c, 5, 54, 0
6, 134880, Note_on_c, 5, 50, 41
6, 135120, Note_off_c, 5, 50, 0
6, 135360, Note_on_c, 5, 71, 48
6, 135480, Note_off_c, 5, 71, 0
6, 135600, Note_on_c, 5, 71, 49
6, 135720, Note_off_c, 5, 71, 0
6, 135840, Note_on_c, 5, 69, 50
6, 135960, Note_off_c, 5, 69, 0
6, 136080, Note_on_c, 5, 69, 50
6, 136200, Note_off_c, 5, 69, 0
6, 136320, Note_on_c, 5, 67, 51
6, 136440, Note_off_c, 5, 67, 0
6, 136560, Note_on_c, 5, 67, 52
6, 136680, Note_off_c, 5, 67, 0
6, 136800, Note_on_c, 5, 66, 52
6, 136920, Note_off_c, 5, 66, 0
6, 137040, Note_on_c, 5, 66, 53
6, 137160, Note_off_c, 5, 66, 0
6, 137280, Note_on_c, 5, 64, 54
6, 137400, Note_off_c, 5, 64, 0
6, 137520, Note_on_c, 5, 64, 55
6, 137640, Note_off_c, 5, 64, 0
6, 137760, Note_on_c, 5, 62, 55
6, 137880, Note_off_c, 5, 62, 0
6, 138000, Note_on_c, 5, 62, 56
6, 138120, Note_off_c, 5, 62, 0
6, 138240, Note_on_c, 5, 64, 57
6, 138360, Note_off_c, 5, 64, 0
6, 138480, Note_on_c, 5, 64, 56
6, 138600, Note_off_c, 5, 64, 0
6, 138720, Note_on_c, 5, 66, 55
6, 138840, Note_off_c, 5, 66, 0
6, 138960, Note_on_c, 5, 66, 54
6, 139080, Note_off_c, 5, 66, 0
6, 139200, Note_on_c, 5, 67, 53
6, 139320, Note_off_c, 5, 67, 0
6, 139440, Note_on_c, 5, 67, 52
6, 139560, Note_off_c, 5, 67, 0
6, 139680, Note_on_c, 5, 69, 51
6, 139800, Note_off_c, 5, 69, 0
6, 139920, Note_on_c, 5, 69, 50
6, 140040, Note_off_c, 5, 69, 0
6, 140160, Note_on_c, 5, 66, 49
6, 140280, Note_off_c, 5, 66, 0
6, 140400, Note_on_c, 5, 66, 48
6, 140520, Note_off_c, 5, 66, 0
6, 140640, Note_on_c, 5, 62, 61
6, 140760, Note_off_c, 5, 62, 0
6, 140760, Note_on_c, 5, 60, 63
6, 140880, Note_off_c, 5, 60, 0
6, 140880, Note_on_c, 5, 59, 65
6, 141000, Note_off_c, 5, 59, 0
6, 141000, Note_on_c, 5, 57, 67
6, 141120, Note_off_c, 5, 57, 0
6, 141120, Note_on_c, 5, 55, 69
6, 141120, Note_on_c, 5, 43, 69
6, 141600, Note_off_c, 5, 43, 0
6, 141600, Note_off_c, 5, 55, 0
6, 142080, Note_on_c, 5, 54, 68
6, 142320, Note_off_c, 5, 54, 0
6, 142320, Note_on_c, 5, 55, 60
6, 142475, Note_off_c, 5, 55, 0
6, 142560, Note_on_c, 5, 43, 54
6, 143040, Note_off_c, 5, 43, 0
6, 143520, Note_on_c, 5, 54, 70
6, 143675, Note_off_c, 5, 54, 0
6, 143760, Note_on_c, 5, 55, 64
6, 143915, Note_off_c, 5, 55, 0
6, 144000, Note_on_c, 5, 43, 58
6, 144480, Note_off_c, 5, 43, 0
6, 144960, Note_on_c, 5, 61, 73
6, 145200, Note_off_c, 5, 61, 0
6, 145200, Note_on_c, 5, 62, 63
6, 145355, Note_off_c, 5, 62, 0
6, 145440, Note_on_c, 5, 59, 73
6, 145680, Note_off_c, 5, 59, 0
6, 145680, Note_on_c, 5, 60, 64
6, 145835, Note_off_c, 5, 60, 0
6, 145920, Note_on_c, 5, 55, 72
6, 146160, Note_off_c, 5, 55, 0
6, 146160, Note_on_c, 5, 54, 66
6, 146315, Note_off_c, 5, 54, 0
6, 146400, Note_on_c, 5, 53, 74
6, 146640, Note_off_c, 5, 53, 0
6, 146640, Note_on_c, 5, 52, 67
6, 146795, Note_off_c, 5, 52, 0
6, 146880, Note_on_c, 5, 50, 75
6, 147360, Note_off_c, 5, 50, 0
6, 147840, Note_on_c, 5, 48, 85
6, 148225, Note_off_c, 5, 48, 0
6, 148320, Note_on_c, 5, 47, 77
6, 148705, Note_off_c, 5, 47, 0
6, 149280, Note_on_c, 5, 47, 78
6, 149665, Note_off_c, 5, 47, 0
6, 149760, Note_on_c, 5, 48, 78
6, 150145, Note_off_c, 5, 48, 0
6, 150240, Note_on_c, 5, 50, 87
6, 151100, Note_off_c, 5, 50, 0
6, 151200, Note_on_c, 5, 55, 78
6, 151585, Note_off_c, 5, 55, 0
6, 152160, Note_on_c, 5, 61, 80
6, 152400, Note_off_c, 5, 61, 0
6, 152400, Note_on_c, 5, 62, 71
6, 152555, Note_off_c, 5, 62, 0
6, 152640, Note_on_c, 5, 59, 83
6, 152880, Note_off_c, 5, 59, 0
6, 152880, Note_on_c, 5, 60, 70
6, 153035, Note_off_c, 5, 60, 0
6, 153120, Note_on_c, 5, 55, 84
6, 153360, Note_off_c, 5, 55, 0
6, 153360, Note_on_c, 5, 54, 70
6, 153515, Note_off_c, 5, 54, 0
6, 153600, Note_on_c, 5, 53, 84
6, 153840, Note_off_c, 5, 53, 0
6, 153840, Note_on_c, 5, 52, 71
6, 153995, Note_off_c, 5, 52, 0
6, 154080, Note_on_c, 5, 50, 85
6, 154560, Note_off_c, 5, 50, 0
6, 154800, Note_on_c, 5, 62, 86
6, 154895, Note_off_c, 5, 62, 0
6, 155040, Note_on_c, 5, 60, 95
6, 155135, Note_off_c, 5, 60, 0
6, 155280, Note_on_c, 5, 60, 90
6, 155375, Note_off_c, 5, 60, 0
6, 155520, Note_on_c, 5, 59, 87
6, 155905, Note_off_c, 5, 59, 0
6, 156240, Note_on_c, 5, 59, 88
6, 156335, Note_off_c, 5, 59, 0
6, 156480, Note_on_c, 5, 59, 98
6, 156575, Note_off_c, 5, 59, 0
6, 156720, Note_on_c, 5, 59, 94
6, 156815, Note_off_c, 5, 59, 0
6, 156960, Note_on_c, 5, 60, 90
6, 157345, Note_off_c, 5, 60, 0
6, 157440, Note_on_c, 5, 62, 97
6, 158300, Note_off_c, 5, 62, 0
6, 158400, Note_on_c, 5, 67, 93
6, 158785, Note_off_c, 5, 67, 0
6, 159120, Note_on_c, 5, 62, 89
6, 159240, Note_off_c, 5, 62, 0
6, 159240, Note_on_c, 5, 66, 89
6, 159360, Note_off_c, 5, 66, 0
6, 159360, Note_on_c, 5, 64, 88
6, 159480, Note_off_c, 5, 64, 0
6, 159480, Note_on_c, 5, 67, 88
6, 159600, Note_off_c, 5, 67, 0
6, 159600, Note_on_c, 5, 66, 87
6, 159720, Note_off_c, 5, 66, 0
6, 159720, Note_on_c, 5, 69, 86
6, 159815, Note_off_c, 5, 69, 0
6, 159840, Note_on_c, 5, 67, 85
6, 160070, Note_off_c, 5, 67, 0
6, 160560, Note_on_c, 5, 50, 77
6, 160680, Note_off_c, 5, 50, 0
6, 160680, Note_on_c, 5, 54, 75
6, 160800, Note_off_c, 5, 54, 0
6, 160800, Note_on_c, 5, 52, 73
6, 160920, Note_off_c, 5, 52, 0
6, 160920, Note_on_c, 5, 55, 70
6, 161040, Note_off_c, 5, 55, 0
6, 161040, Note_on_c, 5, 54, 68
6, 161160, Note_off_c, 5, 54, 0
6, 161160, Note_on_c, 5, 57, 66
6, 161255, Note_off_c, 5, 57, 0
6, 161280, Note_on_c, 5, 55, 54
6, 161760, Note_off_c, 5, 55, 0
6, 161760, Note_on_c, 5, 54, 55
6, 162240, Note_off_c, 5, 54, 0
6, 162240, Note_on_c, 5, 52, 56
6, 162720, Note_off_c, 5, 52, 0
6, 162720, Note_on_c, 5, 50, 56
6, 163200, Note_off_c, 5, 50, 0
6, 163200, Note_on_c, 5, 48, 57
6, 163680, Note_off_c, 5, 48, 0
6, 163680, Note_on_c, 5, 47, 58
6, 164100, Note_off_c, 5, 47, 0
6, 164160, Note_on_c, 5, 48, 60
6, 164520, Note_off_c, 5, 48, 0
6, 164640, Note_on_c, 5, 45, 57
6, 164950, Note_off_c, 5, 45, 0
6, 165120, Note_on_c, 5, 50, 54
6, 165430, Note_off_c, 5, 50, 0
6, 165600, Note_on_c, 5, 67, 72
6, 166080, Note_off_c, 5, 67, 0
6, 166080, Note_on_c, 5, 66, 74
6, 166560, Note_off_c, 5, 66, 0
6, 166560, Note_on_c, 5, 64, 77
6, 167040, Note_off_c, 5, 64, 0
6, 167040, Note_on_c, 5, 62, 79
6, 167520, Note_off_c, 5, 62, 0
6, 167520, Note_on_c, 5, 60, 81
6, 168000, Note_off_c, 5, 60, 0
6, 168000, Note_on_c, 5, 59, 83
6, 168450, Note_off_c, 5, 59, 0
6, 168480, Note_on_c, 5, 60, 85
6, 168845, Note_off_c, 5, 60, 0
6, 168960, Note_on_c, 5, 62, 82
6, 169270, Note_off_c, 5, 62, 0
6, 169440, Note_on_c, 5, 50, 80
6, 169750, Note_off_c, 5, 50, 0
6, 169920, Note_on_c, 5, 43, 77
6, 170280, Note_off_c, 5, 43, 0
6, 170400, Note_on_c, 5, 43, 74
6, 170760, Note_off_c, 5, 43, 0
6, 170880, Note_on_c, 5, 43, 72
6, 171240, Note_off_c, 5, 43, 0
6, 171360, Note_on_c, 5, 43, 69
6, 171720, Note_off_c, 5, 43, 0
6, 171840, Note_on_c, 5, 43, 65
6, 172200, Note_off_c, 5, 43, 0
6, 172320, Note_on_c, 5, 43, 60
6, 172680, Note_off_c, 5, 43, 0
6, 172800, Note_on_c, 5, 43, 50
6, 173280, Note_off_c, 5, 43, 0
6, 174240, Control_c, 5, 64, 0
6, 325920, Control_c, 5, 64, 0
6, 325920, Note_on_c, 5, 43, 36
6, 328652, Note_off_c, 5, 43, 0
6, 328800, Note_on_c, 5, 43, 41
6, 331532, Note_off_c, 5, 43, 0
6, 331680, Note_on_c, 5, 35, 58
6, 331680, Note_on_c, 5, 47, 58
6, 332255, Note_off_c, 5, 47, 0
6, 332255, Note_off_c, 5, 35, 0
6, 332400, Note_on_c, 5, 48, 60
6, 332400, Note_on_c, 5, 36, 60
6, 332975, Note_off_c, 5, 36, 0
6, 332975, Note_off_c, 5, 48, 0
6, 333120, Note_on_c, 5, 50, 62
6, 333120, Note_on_c, 5, 38, 62
6, 333695, Note_off_c, 5, 38, 0
6, 333695, Note_off_c, 5, 50, 0
6, 333840, Note_on_c, 5, 52, 63
6, 333840, Note_on_c, 5, 40, 63
6, 334415, Note_off_c, 5, 40, 0
6, 334415, Note_off_c, 5, 52, 0
6, 334560, Note_on_c, 5, 54, 65
6, 334752, Note_off_c, 5, 54, 0
6, 335040, Note_on_c, 5, 54, 67
6, 335232, Note_off_c, 5, 54, 0
6, 335280, Note_on_c, 5, 55, 67
6, 335472, Note_off_c, 5, 55, 0
6, 335760, Note_on_c, 5, 55, 68
6, 335952, Note_off_c, 5, 55, 0
6, 336000, Note_on_c, 5, 57, 69
6, 336192, Note_off_c, 5, 57, 0
6, 336480, Note_on_c, 5, 57, 70
6, 336672, Note_off_c, 5, 57, 0
6, 336720, Note_on_c, 5, 59, 71
6, 336912, Note_off_c, 5, 59, 0
6, 337200, Note_on_c, 5, 59, 72
6, 337392, Note_off_c, 5, 59, 0
6, 337440, Note_on_c, 5, 60, 73
6, 337680, Note_off_c, 5, 60, 0
6, 338640, Note_on_c, 5, 60, 69
6, 338880, Note_off_c, 5, 60, 0
6, 338880, Note_on_c, 5, 62, 67
6, 339070, Note_off_c, 5, 62, 0
6, 339360, Note_on_c, 5, 62, 64
6, 339600, Note_off_c, 5, 62, 0
6, 339600, Note_on_c, 5, 64, 62
6, 339790, Note_off_c, 5, 64, 0
6, 340080, Note_on_c, 5, 64, 58
6, 340320, Note_off_c, 5, 64, 0
6, 340320, Note_on_c, 5, 60, 57
6, 340510, Note_off_c, 5, 60, 0
6, 340800, Note_on_c, 5, 48, 53
6, 341040, Note_off_c, 5, 48, 0
6, 341040, Note_on_c, 5, 50, 51
6, 341230, Note_off_c, 5, 50, 0
6, 341520, Note_on_c, 5, 50, 48
6, 341760, Note_off_c, 5, 50, 0
6, 341760, Note_on_c, 5, 50, 46
6, 341950, Note_off_c, 5, 50, 0
6, 342240, Note_on_c, 5, 50, 43
6, 342480, Note_off_c, 5, 50, 0
6, 342480, Note_on_c, 5, 55, 41
6, 342670, Note_off_c, 5, 55, 0
6, 343200, Note_on_c, 5, 43, 52
6, 343560, Note_off_c, 5, 43, 0
6, 343920, Note_on_c, 5, 43, 54
6, 344160, Note_off_c, 5, 43, 0
6, 344640, Note_on_c, 5, 43, 55
6, 345000, Note_off_c, 5, 43, 0
6, 345360, Note_on_c, 5, 43, 57
6, 345600, Note_off_c, 5, 43, 0
6, 346080, Note_on_c, 5, 43, 59
6, 346440, Note_off_c, 5, 43, 0
6, 346800, Note_on_c, 5, 43, 61
6, 347040, Note_off_c, 5, 43, 0
6, 347520, Note_on_c, 5, 43, 62
6, 347880, Note_off_c, 5, 43, 0
6, 348240, Note_on_c, 5, 43, 64
6, 348480, Note_off_c, 5, 43, 0
6, 348960, Note_on_c, 5, 60, 66
6, 349152, Note_off_c, 5, 60, 0
6, 349440, Note_on_c, 5, 62, 67
6, 349632, Note_off_c, 5, 62, 0
6, 349680, Note_on_c, 5, 64, 68
6, 349872, Note_off_c, 5, 64, 0
6, 350160, Note_on_c, 5, 62, 69
6, 350352, Note_off_c, 5, 62, 0
6, 350400, Note_on_c, 5, 60, 70
6, 350592, Note_off_c, 5, 60, 0
6, 350880, Note_on_c, 5, 62, 71
6, 351072, Note_off_c, 5, 62, 0
6, 351120, Note_on_c, 5, 64, 71
6, 351312, Note_off_c, 5, 64, 0
6, 351600, Note_on_c, 5, 62, 73
6, 351792, Note_off_c, 5, 62, 0
6, 351840, Note_on_c, 5, 60, 73
6, 352032, Note_off_c, 5, 60, 0
6, 352320, Note_on_c, 5, 62, 74
6, 352512, Note_off_c, 5, 62, 0
6, 352560, Note_on_c, 5, 64, 75
6, 352752, Note_off_c, 5, 64, 0
6, 353040, Note_on_c, 5, 61, 76
6, 353232, Note_off_c, 5, 61, 0
6, 353280, Note_on_c, 5, 62, 77
6, 353435, Note_off_c, 5, 62, 0
6, 353520, Note_on_c, 5, 57, 77
6, 353675, Note_off_c, 5, 57, 0
6, 353760, Note_on_c, 5, 54, 75
6, 353915, Note_off_c, 5, 54, 0
6, 354000, Note_on_c, 5, 50, 73
6, 354155, Note_off_c, 5, 50, 0
6, 356160, Note_on_c, 5, 57, 40
6, 357800, Note_off_c, 5, 57, 0
6, 357840, Note_on_c, 5, 57, 43
6, 358080, Note_off_c, 5, 57, 0
6, 358080, Note_on_c, 5, 62, 43
6, 358320, Note_off_c, 5, 62, 0
6, 358320, Note_on_c, 5, 61, 44
6, 358560, Note_off_c, 5, 61, 0
6, 358560, Note_on_c, 5, 57, 44
6, 358800, Note_off_c, 5, 57, 0
6, 358800, Note_on_c, 5, 67, 44
6, 359040, Note_off_c, 5, 67, 0
6, 359040, Note_on_c, 5, 66, 45
6, 359280, Note_off_c, 5, 66, 0
6, 359280, Note_on_c, 5, 57, 45
6, 359520, Note_off_c, 5, 57, 0
6, 359520, Note_on_c, 5, 62, 45
6, 359760, Note_off_c, 5, 62, 0
6, 359760, Note_on_c, 5, 61, 46
6, 359960, Note_off_c, 5, 61, 0
6, 361920, Note_on_c, 5, 57, 49
6, 363555, Note_off_c, 5, 57, 0
6, 363600, Note_on_c, 5, 57, 52
6, 363830, Note_off_c, 5, 57, 0
6, 363840, Note_on_c, 5, 67, 52
6, 364080, Note_off_c, 5, 67, 0
6, 364080, Note_on_c, 5, 66, 52
6, 364320, Note_off_c, 5, 66, 0
6, 364320, Note_on_c, 5, 57, 53
6, 364560, Note_off_c, 5, 57, 0
6, 364560, Note_on_c, 5, 62, 53
6, 364800, Note_off_c, 5, 62, 0
6, 364800, Note_on_c, 5, 61, 53
6, 365040, Note_off_c, 5, 61, 0
6, 365040, Note_on_c, 5, 57, 54
6, 365280, Note_off_c, 5, 57, 0
6, 365280, Note_on_c, 5, 61, 54
6, 365520, Note_off_c, 5, 61, 0
6, 365520, Note_on_c, 5, 62, 54
6, 365760, Note_off_c, 5, 62, 0
6, 366240, Note_on_c, 5, 62, 62
6, 366240, Note_on_c, 5, 50, 62
6, 366480, Note_off_c, 5, 50, 0
6, 366480, Note_off_c, 5, 62, 0
6, 366480, Note_on_c, 5, 61, 63
6, 366480, Note_on_c, 5, 49, 63
6, 366720, Note_off_c, 5, 49, 0
6, 366720, Note_off_c, 5, 61, 0
6, 366720, Note_on_c, 5, 64, 63
6, 366720, Note_on_c, 5, 52, 63
6, 366960, Note_off_c, 5, 52, 0
6, 366960, Note_off_c, 5, 64, 0
6, 366960, Note_on_c, 5, 62, 64
6, 366960, Note_on_c, 5, 50, 64
6, 367150, Note_off_c, 5, 50, 0
6, 367150, Note_off_c, 5, 62, 0
6, 367200, Note_on_c, 5, 59, 64
6, 367440, Note_off_c, 5, 59, 0
6, 367440, Note_on_c, 5, 61, 64
6, 367680, Note_off_c, 5, 61, 0
6, 367680, Note_on_c, 5, 62, 65
6, 367920, Note_off_c, 5, 62, 0
6, 369120, Note_on_c, 5, 55, 67
6, 369120, Note_on_c, 5, 43, 67
6, 369360, Note_off_c, 5, 43, 0
6, 369360, Note_off_c, 5, 55, 0
6, 369360, Note_on_c, 5, 42, 67
6, 369360, Note_on_c, 5, 54, 67
6, 369600, Note_off_c, 5, 54, 0
6, 369600, Note_off_c, 5, 42, 0
6, 369600, Note_on_c, 5, 45, 68
6, 369600, Note_on_c, 5, 57, 68
6, 369840, Note_off_c, 5, 57, 0
6, 369840, Note_off_c, 5, 45, 0
6, 369840, Note_on_c, 5, 55, 68
6, 369840, Note_on_c, 5, 43, 68
6, 370030, Note_off_c, 5, 43, 0
6, 370030, Note_off_c, 5, 55, 0
6, 370080, Note_on_c, 5, 52, 69
6, 370320, Note_off_c, 5, 52, 0
6, 370320, Note_on_c, 5, 54, 69
6, 370560, Note_off_c, 5, 54, 0
6, 370560, Note_on_c, 5, 59, 69
6, 370800, Note_off_c, 5, 59, 0
6, 372480, Note_on_c, 5, 61, 78
6, 372635, Note_off_c, 5, 61, 0
6, 373200, Note_on_c, 5, 61, 77
6, 373355, Note_off_c, 5, 61, 0
6, 373920, Note_on_c, 5, 61, 80
6, 374075, Note_off_c, 5, 61, 0
6, 374640, Note_on_c, 5, 61, 80
6, 374795, Note_off_c, 5, 61, 0
6, 374880, Note_on_c, 5, 50, 61
6, 375000, Note_off_c, 5, 50, 0
6, 375000, Note_on_c, 5, 54, 65
6, 375120, Note_off_c, 5, 54, 0
6, 375120, Note_on_c, 5, 57, 68
6, 375240, Note_off_c, 5, 57, 0
6, 375240, Note_on_c, 5, 62, 71
6, 375360, Note_off_c, 5, 62, 0
6, 375600, Note_on_c, 5, 43, 60
6, 375720, Note_off_c, 5, 43, 0
6, 375720, Note_on_c, 5, 47, 62
6, 375840, Note_off_c, 5, 47, 0
6, 375840, Note_on_c, 5, 50, 65
6, 375960, Note_off_c, 5, 50, 0
6, 375960, Note_on_c, 5, 55, 68
6, 376080, Note_off_c, 5, 55, 0
6, 376080, Note_on_c, 5, 59, 81
6, 376235, Note_off_c, 5, 59, 0
6, 376320, Note_on_c, 5, 57, 77
6, 376680, Note_off_c, 5, 57, 0
6, 377040, Note_on_c, 5, 57, 78
6, 377400, Note_off_c, 5, 57, 0
6, 377760, Note_on_c, 5, 62, 76
6, 377950, Note_off_c, 5, 62, 0
6, 378960, Note_on_c, 5, 58, 50
6, 379115, Note_off_c, 5, 58, 0
6, 379200, Note_on_c, 5, 59, 50
6, 379355, Note_off_c, 5, 59, 0
6, 380400, Note_on_c, 5, 63, 48
6, 380555, Note_off_c, 5, 63, 0
6, 380880, Note_on_c, 5, 62, 47
6, 381035, Note_off_c, 5, 62, 0
6, 381120, Note_on_c, 5, 61, 46
6, 381275, Note_off_c, 5, 61, 0
6, 381600, Note_on_c, 5, 60, 46
6, 381755, Note_off_c, 5, 60, 0
6, 381840, Note_on_c, 5, 59, 45
6, 381995, Note_off_c, 5, 59, 0
6, 382080, Note_on_c, 5, 57, 45
6, 382235, Note_off_c, 5, 57, 0
6, 382560, Note_on_c, 5, 59, 44
6, 382715, Note_off_c, 5, 59, 0
6, 382800, Note_on_c, 5, 55, 44
6, 382990, Note_off_c, 5, 55, 0
6, 383040, Note_on_c, 5, 52, 43
6, 383230, Note_off_c, 5, 52, 0
6, 383280, Note_on_c, 5, 57, 43
6, 383470, Note_off_c, 5, 57, 0
6, 383520, Note_on_c, 5, 62, 42
6, 383715, Note_off_c, 5, 62, 0
6, 383760, Note_on_c, 5, 50, 42
6, 383915, Note_off_c, 5, 50, 0
6, 384000, Note_on_c, 5, 69, 42
6, 384155, Note_off_c, 5, 69, 0
6, 384240, Note_on_c, 5, 67, 47
6, 384480, Note_off_c, 5, 67, 0
6, 384480, Note_on_c, 5, 66, 43
6, 384635, Note_off_c, 5, 66, 0
6, 384720, Note_on_c, 5, 66, 39
6, 384875, Note_off_c, 5, 66, 0
6, 385440, Note_on_c, 5, 66, 42
6, 385595, Note_off_c, 5, 66, 0
6, 385680, Note_on_c, 5, 72, 45
6, 385920, Note_off_c, 5, 72, 0
6, 385920, Note_on_c, 5, 71, 42
6, 386075, Note_off_c, 5, 71, 0
6, 386160, Note_on_c, 5, 71, 39
6, 386315, Note_off_c, 5, 71, 0
6, 386400, Note_on_c, 5, 71, 38
6, 386880, Note_off_c, 5, 71, 0
6, 386880, Note_on_c, 5, 64, 37
6, 387070, Note_off_c, 5, 64, 0
6, 387120, Note_on_c, 5, 69, 36
6, 387600, Note_off_c, 5, 69, 0
6, 387600, Note_on_c, 5, 62, 36
6, 387790, Note_off_c, 5, 62, 0
6, 387840, Note_on_c, 5, 67, 35
6, 388030, Note_off_c, 5, 67, 0
6, 388560, Note_on_c, 5, 69, 34
6, 388755, Note_off_c, 5, 69, 0
6, 389760, Note_on_c, 5, 54, 69
6, 389915, Note_off_c, 5, 54, 0
6, 390480, Note_on_c, 5, 55, 70
6, 390635, Note_off_c, 5, 55, 0
6, 390720, Note_on_c, 5, 50, 53
6, 390840, Note_off_c, 5, 50, 0
6, 390840, Note_on_c, 5, 54, 56
6, 390960, Note_off_c, 5, 54, 0
6, 390960, Note_on_c, 5, 57, 58
6, 391080, Note_off_c, 5, 57, 0
6, 391080, Note_on_c, 5, 62, 61
6, 391200, Note_off_c, 5, 62, 0
6, 391200, Note_on_c, 5, 66, 73
6, 391355, Note_off_c, 5, 66, 0
6, 391440, Note_on_c, 5, 43, 55
6, 391560, Note_off_c, 5, 43, 0
6, 391560, Note_on_c, 5, 47, 57
6, 391680, Note_off_c, 5, 47, 0
6, 391680, Note_on_c, 5, 50, 59
6, 391800, Note_off_c, 5, 50, 0
6, 391800, Note_on_c, 5, 55, 61
6, 391920, Note_off_c, 5, 55, 0
6, 391920, Note_on_c, 5, 59, 76
6, 392075, Note_off_c, 5, 59, 0
6, 392160, Note_on_c, 5, 45, 71
6, 392160, Note_on_c, 5, 57, 71
6, 392545, Note_off_c, 5, 57, 0
6, 392545, Note_off_c, 5, 45, 0
6, 392640, Note_on_c, 5, 50, 72
6, 392640, Note_on_c, 5, 62, 72
6, 392830, Note_off_c, 5, 62, 0
6, 392830, Note_off_c, 5, 50, 0
6, 392880, Note_on_c, 5, 66, 73
6, 392880, Note_on_c, 5, 54, 73
6, 393255, Note_off_c, 5, 66, 0
6, 393265, Note_off_c, 5, 54, 0
6, 393360, Note_on_c, 5, 69, 74
6, 393360, Note_on_c, 5, 57, 74
6, 393550, Note_off_c, 5, 57, 0
6, 393550, Note_off_c, 5, 69, 0
6, 393600, Note_on_c, 5, 55, 74
6, 393600, Note_on_c, 5, 67, 74
6, 393790, Note_off_c, 5, 67, 0
6, 393790, Note_off_c, 5, 55, 0
6, 393840, Note_on_c, 5, 55, 75
6, 393840, Note_on_c, 5, 67, 75
6, 394030, Note_off_c, 5, 67, 0
6, 394030, Note_off_c, 5, 55, 0
6, 394080, Note_on_c, 5, 52, 75
6, 394080, Note_on_c, 5, 64, 75
6, 394270, Note_off_c, 5, 64, 0
6, 394270, Note_off_c, 5, 52, 0
6, 394320, Note_on_c, 5, 61, 76
6, 394320, Note_on_c, 5, 49, 76
6, 394510, Note_off_c, 5, 49, 0
6, 394510, Note_off_c, 5, 61, 0
6, 394560, Note_on_c, 5, 61, 77
6, 394560, Note_on_c, 5, 49, 77
6, 394750, Note_off_c, 5, 49, 0
6, 394750, Note_off_c, 5, 61, 0
6, 394800, Note_on_c, 5, 45, 77
6, 394800, Note_on_c, 5, 57, 77
6, 394990, Note_off_c, 5, 57, 0
6, 394990, Note_off_c, 5, 45, 0
6, 395040, Note_on_c, 5, 62, 78
6, 395040, Note_on_c, 5, 50, 78
6, 395230, Note_off_c, 5, 50, 0
6, 395230, Note_off_c, 5, 62, 0
6, 395520, Note_on_c, 5, 54, 54
6, 395675, Note_off_c, 5, 54, 0
6, 395760, Note_on_c, 5, 55, 55
6, 395915, Note_off_c, 5, 55, 0
6, 396000, Note_on_c, 5, 56, 56
6, 396155, Note_off_c, 5, 56, 0
6, 396240, Note_on_c, 5, 57, 57
6, 396395, Note_off_c, 5, 57, 0
6, 396480, Note_on_c, 5, 58, 64
6, 396635, Note_off_c, 5, 58, 0
6, 396720, Note_on_c, 5, 59, 60
6, 396875, Note_off_c, 5, 59, 0
6, 396960, Note_on_c, 5, 56, 61
6, 397200, Note_off_c, 5, 56, 0
6, 397200, Note_on_c, 5, 57, 62
6, 397355, Note_off_c, 5, 57, 0
6, 397680, Note_on_c, 5, 57, 64
6, 397835, Note_off_c, 5, 57, 0
6, 397920, Note_on_c, 5, 50, 65
6, 398075, Note_off_c, 5, 50, 0
6, 398400, Note_on_c, 5, 45, 86
6, 398400, Note_on_c, 5, 57, 86
6, 398640, Note_off_c, 5, 57, 0
6, 398640, Note_off_c, 5, 45, 0
6, 398640, Note_on_c, 5, 38, 86
6, 398640, Note_on_c, 5, 50, 86
6, 398880, Note_off_c, 5, 50, 0
6, 398880, Note_off_c, 5, 38, 0
6, 399360, Control_c, 5, 64, 0
6, 399360, Note_on_c, 5, 50, 38
6, 399550, Note_off_c, 5, 50, 0
6, 400320, Note_on_c, 5, 50, 39
6, 400510, Note_off_c, 5, 50, 0
6, 400560, Note_on_c, 5, 50, 39
6, 400750, Note_off_c, 5, 50, 0
6, 400800, Note_on_c, 5, 50, 40
6, 400990, Note_off_c, 5, 50, 0
6, 401760, Note_on_c, 5, 50, 41
6, 401950, Note_off_c, 5, 50, 0
6, 402000, Note_on_c, 5, 50, 41
6, 402190, Note_off_c, 5, 50, 0
6, 402240, Control_c, 5, 64, 127
6, 402240, Note_on_c, 5, 50, 46
6, 402960, Note_off_c, 5, 50, 0
6, 405060, Control_c, 5, 64, 0
6, 405120, Note_on_c, 5, 48, 61
6, 405310, Note_off_c, 5, 48, 0
6, 406080, Note_on_c, 5, 48, 46
6, 406270, Note_off_c, 5, 48, 0
6, 406320, Note_on_c, 5, 48, 46
6, 406510, Note_off_c, 5, 48, 0
6, 406560, Note_on_c, 5, 48, 47
6, 406750, Note_off_c, 5, 48, 0
6, 407520, Note_on_c, 5, 48, 48
6, 407710, Note_off_c, 5, 48, 0
6, 407760, Note_on_c, 5, 48, 48
6, 407950, Note_off_c, 5, 48, 0
6, 408000, Note_on_c, 5, 51, 53
6, 408060, Control_c, 5, 64, 127
6, 408240, Note_off_c, 5, 51, 0
6, 409320, Control_c, 5, 64, 0
6, 409440, Control_c, 5, 64, 127
6, 409440, Note_on_c, 5, 52, 65
6, 409800, Note_off_c, 5, 52, 0
6, 410820, Control_c, 5, 64, 0
6, 410880, Note_on_c, 5, 48, 67
6, 410940, Control_c, 5, 64, 127
6, 411600, Note_off_c, 5, 48, 0
6, 413700, Control_c, 5, 64, 0
6, 413760, Note_on_c, 5, 47, 70
6, 414120, Note_off_c, 5, 47, 0
6, 414480, Note_on_c, 5, 47, 71
6, 414840, Note_off_c, 5, 47, 0
6, 415200, Note_on_c, 5, 47, 72
6, 415560, Note_off_c, 5, 47, 0
6, 415920, Note_on_c, 5, 47, 73
6, 416280, Note_off_c, 5, 47, 0
6, 416640, Note_on_c, 5, 47, 74
6, 416830, Note_off_c, 5, 47, 0
6, 417120, Note_on_c, 5, 59, 74
6, 417310, Note_off_c, 5, 59, 0
6, 417360, Note_on_c, 5, 59, 74
6, 417550, Note_off_c, 5, 59, 0
6, 417840, Note_on_c, 5, 59, 75
6, 418030, Note_off_c, 5, 59, 0
6, 418080, Note_on_c, 5, 59, 75
6, 418270, Note_off_c, 5, 59, 0
6, 418560, Note_on_c, 5, 59, 76
6, 418750, Note_off_c, 5, 59, 0
6, 418800, Note_on_c, 5, 59, 76
6, 418990, Note_off_c, 5, 59, 0
6, 419280, Note_on_c, 5, 59, 77
6, 419470, Note_off_c, 5, 59, 0
6, 419520, Note_on_c, 5, 59, 77
6, 419710, Note_off_c, 5, 59, 0
6, 420720, Note_on_c, 5, 66, 82
6, 420875, Note_off_c, 5, 66, 0
6, 421440, Note_on_c, 5, 66, 82
6, 421595, Note_off_c, 5, 66, 0
6, 422160, Note_on_c, 5, 60, 84
6, 422315, Note_off_c, 5, 60, 0
6, 422880, Note_on_c, 5, 60, 84
6, 423035, Note_off_c, 5, 60, 0
6, 423120, Note_on_c, 5, 59, 81
6, 423480, Note_off_c, 5, 59, 0
6, 423840, Note_on_c, 5, 59, 83
6, 424200, Note_off_c, 5, 59, 0
6, 424560, Note_on_c, 5, 64, 76
6, 424750, Note_off_c, 5, 64, 0
6, 425040, Note_on_c, 5, 55, 58
6, 425195, Note_off_c, 5, 55, 0
6, 425280, Note_on_c, 5, 56, 59
6, 425435, Note_off_c, 5, 56, 0
6, 425520, Note_on_c, 5, 57, 59
6, 425675, Note_off_c, 5, 57, 0
6, 425760, Note_on_c, 5, 58, 60
6, 425915, Note_off_c, 5, 58, 0
6, 426000, Note_on_c, 5, 59, 66
6, 426155, Note_off_c, 5, 59, 0
6, 426240, Note_on_c, 5, 60, 60
6, 426395, Note_off_c, 5, 60, 0
6, 426480, Note_on_c, 5, 58, 61
6, 426720, Note_off_c, 5, 58, 0
6, 426720, Note_on_c, 5, 59, 61
6, 426875, Note_off_c, 5, 59, 0
6, 427200, Note_on_c, 5, 59, 62
6, 427355, Note_off_c, 5, 59, 0
6, 427440, Note_on_c, 5, 52, 62
6, 427595, Note_off_c, 5, 52, 0
6, 427920, Note_on_c, 5, 47, 80
6, 427920, Note_on_c, 5, 59, 80
6, 428160, Note_off_c, 5, 59, 0
6, 428160, Note_off_c, 5, 47, 0
6, 428160, Note_on_c, 5, 40, 81
6, 428160, Note_on_c, 5, 52, 81
6, 428400, Note_off_c, 5, 52, 0
6, 428400, Note_off_c, 5, 40, 0
6, 428640, Note_on_c, 5, 57, 65
6, 428640, Note_on_c, 5, 69, 65
6, 428795, Note_off_c, 5, 69, 0
6, 428880, Note_off_c, 5, 57, 0
6, 428880, Note_on_c, 5, 50, 65
6, 428880, Note_on_c, 5, 62, 65
6, 429035, Note_off_c, 5, 62, 0
6, 429120, Note_off_c, 5, 50, 0
6, 429360, Note_on_c, 5, 57, 82
6, 429360, Note_on_c, 5, 45, 82
6, 429600, Note_off_c, 5, 45, 0
6, 429600, Note_off_c, 5, 57, 0
6, 429600, Note_on_c, 5, 38, 83
6, 429600, Note_on_c, 5, 50, 83
6, 429840, Note_off_c, 5, 50, 0
6, 429840, Note_off_c, 5, 38, 0
6, 430080, Note_on_c, 5, 55, 67
6, 430080, Note_on_c, 5, 67, 67
6, 430235, Note_off_c, 5, 67, 0
6, 430320, Note_off_c, 5, 55, 0
6, 430320, Note_on_c, 5, 48, 68
6, 430320, Note_on_c, 5, 60, 68
6, 430475, Note_off_c, 5, 60, 0
6, 430560, Note_off_c, 5, 48, 0
6, 430800, Note_on_c, 5, 43, 91
6, 430800, Note_on_c, 5, 55, 91
6, 431040, Note_off_c, 5, 55, 0
6, 431040, Note_off_c, 5, 43, 0
6, 431040, Note_on_c, 5, 36, 92
6, 431040, Note_on_c, 5, 48, 92
6, 431280, Note_off_c, 5, 48, 0
6, 431280, Note_off_c, 5, 36, 0
6, 433440, Note_on_c, 5, 50, 46
6, 433630, Note_off_c, 5, 50, 0
6, 433680, Note_on_c, 5, 50, 45
6, 433870, Note_off_c, 5, 50, 0
6, 433920, Note_on_c, 5, 50, 44
6, 434110, Note_off_c, 5, 50, 0
6, 434160, Note_on_c, 5, 50, 43
6, 434350, Note_off_c, 5, 50, 0
6, 434400, Note_on_c, 5, 51, 42
6, 434590, Note_off_c, 5, 51, 0
6, 434640, Note_on_c, 5, 52, 44
6, 434830, Note_off_c, 5, 52, 0
6, 436320, Note_on_c, 5, 54, 51
6, 436510, Note_off_c, 5, 54, 0
6, 436560, Note_on_c, 5, 54, 50
6, 436750, Note_off_c, 5, 54, 0
6, 436800, Note_on_c, 5, 54, 48
6, 436990, Note_off_c, 5, 54, 0
6, 437040, Note_on_c, 5, 54, 47
6, 437230, Note_off_c, 5, 54, 0
6, 437280, Note_on_c, 5, 69, 46
6, 437520, Note_off_c, 5, 69, 0
6, 437520, Note_on_c, 5, 71, 48
6, 437760, Note_off_c, 5, 71, 0
6, 437760, Note_on_c, 5, 66, 50
6, 438000, Note_off_c, 5, 66, 0
6, 438000, Note_on_c, 5, 67, 51
6, 438240, Note_off_c, 5, 67, 0
6, 438240, Note_on_c, 5, 63, 53
6, 438480, Note_off_c, 5, 63, 0
6, 438480, Note_on_c, 5, 64, 55
6, 438720, Note_off_c, 5, 64, 0
6, 438720, Note_on_c, 5, 59, 56
6, 438935, Note_off_c, 5, 59, 0
6, 438960, Note_on_c, 5, 62, 58
6, 439680, Note_off_c, 5, 62, 0
6, 439680, Note_on_c, 5, 61, 54
6, 439870, Note_off_c, 5, 61, 0
6, 440400, Note_on_c, 5, 62, 55
6, 440590, Note_off_c, 5, 62, 0
6, 442080, Note_on_c, 5, 62, 65
6, 442320, Note_off_c, 5, 62, 0
6, 442320, Note_on_c, 5, 61, 66
6, 442560, Note_off_c, 5, 61, 0
6, 442560, Note_on_c, 5, 62, 66
6, 442800, Note_off_c, 5, 62, 0
6, 442800, Note_on_c, 5, 61, 67
6, 443040, Note_off_c, 5, 61, 0
6, 443040, Note_on_c, 5, 62, 67
6, 443280, Note_off_c, 5, 62, 0
6, 443280, Note_on_c, 5, 50, 68
6, 443470, Note_off_c, 5, 50, 0
6, 444960, Note_on_c, 5, 63, 71
6, 445200, Note_off_c, 5, 63, 0
6, 445200, Note_on_c, 5, 62, 71
6, 445440, Note_off_c, 5, 62, 0
6, 445440, Note_on_c, 5, 63, 72
6, 445680, Note_off_c, 5, 63, 0
6, 445680, Note_on_c, 5, 62, 72
6, 445920, Note_off_c, 5, 62, 0
6, 445920, Note_on_c, 5, 63, 73
6, 446160, Note_off_c, 5, 63, 0
6, 446160, Note_on_c, 5, 62, 73
6, 446400, Note_off_c, 5, 62, 0
6, 449040, Control_c, 5, 64, 0
6, 449040, Note_on_c, 5, 43, 36
6, 451772, Note_off_c, 5, 43, 0
6, 451920, Note_on_c, 5, 43, 38
6, 454652, Note_off_c, 5, 43, 0
6, 454800, Note_on_c, 5, 47, 58
6, 454800, Note_on_c, 5, 35, 58
6, 455375, Note_off_c, 5, 35, 0
6, 455375, Note_off_c, 5, 47, 0
6, 455520, Note_on_c, 5, 36, 60
6, 455520, Note_on_c, 5, 48, 60
6, 456095, Note_off_c, 5, 48, 0
6, 456095, Note_off_c, 5, 36, 0
6, 456240, Note_on_c, 5, 38, 62
6, 456240, Note_on_c, 5, 50, 62
6, 456815, Note_off_c, 5, 50, 0
6, 456815, Note_off_c, 5, 38, 0
6, 456960, Note_on_c, 5, 40, 63
6, 456960, Note_on_c, 5, 52, 63
6, 457535, Note_off_c, 5, 52, 0
6, 457535, Note_off_c, 5, 40, 0
6, 457680, Note_on_c, 5, 54, 65
6, 457872, Note_off_c, 5, 54, 0
6, 458160, Note_on_c, 5, 54, 67
6, 458352, Note_off_c, 5, 54, 0
6, 458400, Note_on_c, 5, 55, 67
6, 458592, Note_off_c, 5, 55, 0
6, 458880, Note_on_c, 5, 55, 68
6, 459072, Note_off_c, 5, 55, 0
6, 459120, Note_on_c, 5, 57, 69
6, 459312, Note_off_c, 5, 57, 0
6, 459600, Note_on_c, 5, 57, 70
6, 459792, Note_off_c, 5, 57, 0
6, 459840, Note_on_c, 5, 59, 71
6, 460032, Note_off_c, 5, 59, 0
6, 460320, Note_on_c, 5, 59, 72
6, 460512, Note_off_c, 5, 59, 0
6, 460560, Note_on_c, 5, 60, 73
6, 460800, Note_off_c, 5, 60, 0
6, 461760, Note_on_c, 5, 60, 69
6, 462000, Note_off_c, 5, 60, 0
6, 462000, Note_on_c, 5, 62, 67
6, 462190, Note_off_c, 5, 62, 0
6, 462480, Note_on_c, 5, 62, 64
6, 462720, Note_off_c, 5, 62, 0
6, 462720, Note_on_c, 5, 64, 62
6, 462910, Note_off_c, 5, 64, 0
6, 463200, Note_on_c, 5, 64, 58
6, 463440, Note_off_c, 5, 64, 0
6, 463440, Note_on_c, 5, 60, 57
6, 463630, Note_off_c, 5, 60, 0
6, 463920, Note_on_c, 5, 48, 53
6, 463920, Note_on_c, 5, 60, 53
6, 464160, Note_off_c, 5, 60, 0
6, 464160, Note_off_c, 5, 48, 0
6, 464160, Note_on_c, 5, 50, 51
6, 464350, Note_off_c, 5, 50, 0
6, 464640, Note_on_c, 5, 50, 48
6, 464880, Note_off_c, 5, 50, 0
6, 464880, Note_on_c, 5, 50, 46
6, 465070, Note_off_c, 5, 50, 0
6, 465360, Note_on_c, 5, 50, 43
6, 465600, Note_off_c, 5, 50, 0
6, 465600, Note_on_c, 5, 55, 41
6, 465790, Note_off_c, 5, 55, 0
6, 466320, Note_on_c, 5, 43, 52
6, 466680, Note_off_c, 5, 43, 0
6, 467040, Note_on_c, 5, 43, 54
6, 467280, Note_off_c, 5, 43, 0
6, 467760, Note_on_c, 5, 43, 55
6, 468120, Note_off_c, 5, 43, 0
6, 468480, Note_on_c, 5, 43, 57
6, 468720, Note_off_c, 5, 43, 0
6, 469200, Note_on_c, 5, 43, 59
6, 469560, Note_off_c, 5, 43, 0
6, 469920, Note_on_c, 5, 43, 61
6, 470160, Note_off_c, 5, 43, 0
6, 470640, Note_on_c, 5, 43, 62
6, 471000, Note_off_c, 5, 43, 0
6, 471360, Note_on_c, 5, 43, 64
6, 471600, Note_off_c, 5, 43, 0
6, 472080, Note_on_c, 5, 60, 66
6, 472272, Note_off_c, 5, 60, 0
6, 472560, Note_on_c, 5, 62, 67
6, 472752, Note_off_c, 5, 62, 0
6, 472800, Note_on_c, 5, 64, 68
6, 472992, Note_off_c, 5, 64, 0
6, 473280, Note_on_c, 5, 62, 69
6, 473472, Note_off_c, 5, 62, 0
6, 473520, Note_on_c, 5, 60, 70
6, 473712, Note_off_c, 5, 60, 0
6, 474000, Note_on_c, 5, 62, 71
6, 474192, Note_off_c, 5, 62, 0
6, 474240, Note_on_c, 5, 64, 71
6, 474432, Note_off_c, 5, 64, 0
6, 474720, Note_on_c, 5, 62, 73
6, 474912, Note_off_c, 5, 62, 0
6, 474960, Note_on_c, 5, 60, 73
6, 475152, Note_off_c, 5, 60, 0
6, 475440, Note_on_c, 5, 62, 74
6, 475632, Note_off_c, 5, 62, 0
6, 475680, Note_on_c, 5, 64, 75
6, 475872, Note_off_c, 5, 64, 0
6, 476160, Note_on_c, 5, 61, 76
6, 476352, Note_off_c, 5, 61, 0
6, 476400, Note_on_c, 5, 62, 77
6, 476555, Note_off_c, 5, 62, 0
6, 476640, Note_on_c, 5, 57, 77
6, 476795, Note_off_c, 5, 57, 0
6, 476880, Note_on_c, 5, 54, 75
6, 477035, Note_off_c, 5, 54, 0
6, 477120, Note_on_c, 5, 50, 73
6, 477275, Note_off_c, 5, 50, 0
6, 479280, Note_on_c, 5, 62, 40
6, 480920, Note_off_c, 5, 62, 0
6, 480960, Note_on_c, 5, 62, 43
6, 481200, Note_off_c, 5, 62, 0
6, 481200, Note_on_c, 5, 67, 43
6, 481440, Note_off_c, 5, 67, 0
6, 481440, Note_on_c, 5, 66, 44
6, 481680, Note_off_c, 5, 66, 0
6, 481680, Note_on_c, 5, 62, 44
6, 481920, Note_off_c, 5, 62, 0
6, 481920, Note_on_c, 5, 72, 44
6, 482160, Note_off_c, 5, 72, 0
6, 482160, Note_on_c, 5, 71, 45
6, 482400, Note_off_c, 5, 71, 0
6, 482400, Note_on_c, 5, 62, 45
6, 482640, Note_off_c, 5, 62, 0
6, 482640, Note_on_c, 5, 67, 45
6, 482880, Note_off_c, 5, 67, 0
6, 482880, Note_on_c, 5, 66, 46
6, 483080, Note_off_c, 5, 66, 0
6, 485040, Note_on_c, 5, 62, 49
6, 486675, Note_off_c, 5, 62, 0
6, 486720, Note_on_c, 5, 62, 52
6, 486950, Note_off_c, 5, 62, 0
6, 486960, Note_on_c, 5, 72, 52
6, 487200, Note_off_c, 5, 72, 0
6, 487200, Note_on_c, 5, 71, 52
6, 487440, Note_off_c, 5, 71, 0
6, 487440, Note_on_c, 5, 62, 53
6, 487680, Note_off_c, 5, 62, 0
6, 487680, Note_on_c, 5, 67, 53
6, 487920, Note_off_c, 5, 67, 0
6, 487920, Note_on_c, 5, 66, 53
6, 488160, Note_off_c, 5, 66, 0
6, 488160, Note_on_c, 5, 62, 54
6, 488400, Note_off_c, 5, 62, 0
6, 488400, Note_on_c, 5, 66, 54
6, 488640, Note_off_c, 5, 66, 0
6, 488640, Note_on_c, 5, 67, 54
6, 488880, Note_off_c, 5, 67, 0
6, 489360, Note_on_c, 5, 55, 62
6, 489360, Note_on_c, 5, 67, 62
6, 489600, Note_off_c, 5, 67, 0
6, 489600, Note_off_c, 5, 55, 0
6, 489600, Note_on_c, 5, 54, 63
6, 489600, Note_on_c, 5, 66, 63
6, 489840, Note_off_c, 5, 66, 0
6, 489840, Note_off_c, 5, 54, 0
6, 489840, Note_on_c, 5, 57, 63
6, 489840, Note_on_c, 5, 69, 63
6, 490080, Note_off_c, 5, 69, 0
6, 490080, Note_off_c, 5, 57, 0
6, 490080, Note_on_c, 5, 55, 64
6, 490080, Note_on_c, 5, 67, 64
6, 490270, Note_off_c, 5, 67, 0
6, 490270, Note_off_c, 5, 55, 0
6, 490320, Note_on_c, 5, 52, 64
6, 490560, Note_off_c, 5, 52, 0
6, 490560, Note_on_c, 5, 54, 64
6, 490800, Note_off_c, 5, 54, 0
6, 490800, Note_on_c, 5, 55, 65
6, 491040, Note_off_c, 5, 55, 0
6, 492240, Note_on_c, 5, 36, 67
6, 492240, Note_on_c, 5, 48, 67
6, 492480, Note_off_c, 5, 48, 0
6, 492480, Note_off_c, 5, 36, 0
6, 492480, Note_on_c, 5, 47, 67
6, 492480, Note_on_c, 5, 35, 67
6, 492720, Note_off_c, 5, 35, 0
6, 492720, Note_off_c, 5, 47, 0
6, 492720, Note_on_c, 5, 50, 68
6, 492720, Note_on_c, 5, 38, 68
6, 492960, Note_off_c, 5, 38, 0
6, 492960, Note_off_c, 5, 50, 0
6, 492960, Note_on_c, 5, 36, 68
6, 492960, Note_on_c, 5, 48, 68
6, 493150, Note_off_c, 5, 48, 0
6, 493150, Note_off_c, 5, 36, 0
6, 493680, Note_on_c, 5, 60, 69
6, 493920, Note_off_c, 5, 60, 0
6, 495600, Note_on_c, 5, 66, 78
6, 495755, Note_off_c, 5, 66, 0
6, 496320, Note_on_c, 5, 66, 77
6, 496475, Note_off_c, 5, 66, 0
6, 497040, Note_on_c, 5, 66, 80
6, 497195, Note_off_c, 5, 66, 0
6, 497760, Note_on_c, 5, 66, 80
6, 497915, Note_off_c, 5, 66, 0
6, 498000, Note_on_c, 5, 55, 61
6, 498120, Note_off_c, 5, 55, 0
6, 498120, Note_on_c, 5, 59, 65
6, 498240, Note_off_c, 5, 59, 0
6, 498240, Note_on_c, 5, 62, 68
6, 498360, Note_off_c, 5, 62, 0
6, 498360, Note_on_c, 5, 67, 71
6, 498480, Note_off_c, 5, 67, 0
6, 498720, Note_on_c, 5, 48, 60
6, 498840, Note_off_c, 5, 48, 0
6, 498840, Note_on_c, 5, 52, 62
6, 498960, Note_off_c, 5, 52, 0
6, 498960, Note_on_c, 5, 55, 65
6, 499080, Note_off_c, 5, 55, 0
6, 499080, Note_on_c, 5, 60, 68
6, 499200, Note_off_c, 5, 60, 0
6, 499200, Note_on_c, 5, 64, 81
6, 499355, Note_off_c, 5, 64, 0
6, 499440, Note_on_c, 5, 62, 77
6, 499800, Note_off_c, 5, 62, 0
6, 500160, Note_on_c, 5, 62, 78
6, 500520, Note_off_c, 5, 62, 0
6, 500880, Note_on_c, 5, 67, 74
6, 501070, Note_off_c, 5, 67, 0
6, 502080, Note_on_c, 5, 63, 50
6, 502235, Note_off_c, 5, 63, 0
6, 502320, Note_on_c, 5, 64, 50
6, 502475, Note_off_c, 5, 64, 0
6, 503520, Note_on_c, 5, 68, 48
6, 503675, Note_off_c, 5, 68, 0
6, 504000, Note_on_c, 5, 67, 47
6, 504155, Note_off_c, 5, 67, 0
6, 504240, Note_on_c, 5, 66, 46
6, 504395, Note_off_c, 5, 66, 0
6, 504720, Note_on_c, 5, 65, 46
6, 504875, Note_off_c, 5, 65, 0
6, 504960, Note_on_c, 5, 64, 45
6, 505115, Note_off_c, 5, 64, 0
6, 505200, Note_on_c, 5, 62, 45
6, 505355, Note_off_c, 5, 62, 0
6, 505680, Note_on_c, 5, 64, 44
6, 505835, Note_off_c, 5, 64, 0
6, 505920, Note_on_c, 5, 60, 44
6, 506110, Note_off_c, 5, 60, 0
6, 506160, Note_on_c, 5, 57, 43
6, 506350, Note_off_c, 5, 57, 0
6, 506400, Note_on_c, 5, 62, 43
6, 506590, Note_off_c, 5, 62, 0
6, 506640, Note_on_c, 5, 67, 39
6, 506835, Note_off_c, 5, 67, 0
6, 506880, Note_on_c, 5, 55, 42
6, 507035, Note_off_c, 5, 55, 0
6, 507120, Note_on_c, 5, 62, 42
6, 507275, Note_off_c, 5, 62, 0
6, 507360, Note_on_c, 5, 60, 47
6, 507600, Note_off_c, 5, 60, 0
6, 507600, Note_on_c, 5, 59, 43
6, 507755, Note_off_c, 5, 59, 0
6, 507840, Note_on_c, 5, 59, 40
6, 507995, Note_off_c, 5, 59, 0
6, 508080, Note_on_c, 5, 59, 40
6, 508235, Note_off_c, 5, 59, 0
6, 508560, Note_on_c, 5, 59, 39
6, 508715, Note_off_c, 5, 59, 0
6, 508800, Note_on_c, 5, 65, 45
6, 509040, Note_off_c, 5, 65, 0
6, 509040, Note_on_c, 5, 64, 42
6, 509195, Note_off_c, 5, 64, 0
6, 509280, Note_on_c, 5, 64, 38
6, 509435, Note_off_c, 5, 64, 0
6, 509520, Note_on_c, 5, 64, 38
6, 510000, Note_off_c, 5, 64, 0
6, 510000, Note_on_c, 5, 57, 37
6, 510190, Note_off_c, 5, 57, 0
6, 510240, Note_on_c, 5, 62, 36
6, 510720, Note_off_c, 5, 62, 0
6, 510720, Note_on_c, 5, 55, 36
6, 510910, Note_off_c, 5, 55, 0
6, 510960, Note_on_c, 5, 60, 35
6, 511150, Note_off_c, 5, 60, 0
6, 511680, Note_on_c, 5, 62, 34
6, 511875, Note_off_c, 5, 62, 0
6, 512880, Note_on_c, 5, 59, 69
6, 512880, Note_on_c, 5, 62, 69
6, 513035, Note_off_c, 5, 62, 0
6, 513035, Note_off_c, 5, 59, 0
6, 513600, Note_on_c, 5, 60, 70
6, 513755, Note_off_c, 5, 60, 0
6, 513840, Note_on_c, 5, 43, 53
6, 513960, Note_off_c, 5, 43, 0
6, 513960, Note_on_c, 5, 47, 56
6, 514080, Note_off_c, 5, 47, 0
6, 514080, Note_on_c, 5, 50, 58
6, 514200, Note_off_c, 5, 50, 0
6, 514200, Note_on_c, 5, 55, 61
6, 514320, Note_off_c, 5, 55, 0
6, 514320, Note_on_c, 5, 59, 73
6, 514475, Note_off_c, 5, 59, 0
6, 514560, Note_on_c, 5, 48, 55
6, 514680, Note_off_c, 5, 48, 0
6, 514680, Note_on_c, 5, 52, 57
6, 514800, Note_off_c, 5, 52, 0
6, 514800, Note_on_c, 5, 55, 59
6, 514920, Note_off_c, 5, 55, 0
6, 514920, Note_on_c, 5, 60, 61
6, 515040, Note_off_c, 5, 60, 0
6, 515040, Note_on_c, 5, 64, 76
6, 515195, Note_off_c, 5, 64, 0
6, 515280, Note_on_c, 5, 50, 71
6, 515280, Note_on_c, 5, 38, 71
6, 515665, Note_off_c, 5, 38, 0
6, 515665, Note_off_c, 5, 50, 0
6, 515760, Note_on_c, 5, 55, 72
6, 515760, Note_on_c, 5, 43, 72
6, 515950, Note_off_c, 5, 43, 0
6, 515950, Note_off_c, 5, 55, 0
6, 516000, Note_on_c, 5, 59, 73
6, 516000, Note_on_c, 5, 47, 73
6, 516385, Note_off_c, 5, 47, 0
6, 516397, Note_off_c, 5, 59, 0
6, 516480, Note_on_c, 5, 50, 74
6, 516480, Note_on_c, 5, 62, 74
6, 516670, Note_off_c, 5, 62, 0
6, 516670, Note_off_c, 5, 50, 0
6, 516720, Note_on_c, 5, 60, 74
6, 516720, Note_on_c, 5, 48, 74
6, 516910, Note_off_c, 5, 48, 0
6, 516910, Note_off_c, 5, 60, 0
6, 516960, Note_on_c, 5, 60, 75
6, 516960, Note_on_c, 5, 48, 75
6, 517150, Note_off_c, 5, 48, 0
6, 517150, Note_off_c, 5, 60, 0
6, 517200, Note_on_c, 5, 57, 75
6, 517200, Note_on_c, 5, 45, 75
6, 517390, Note_off_c, 5, 45, 0
6, 517390, Note_off_c, 5, 57, 0
6, 517440, Note_on_c, 5, 42, 76
6, 517440, Note_on_c, 5, 54, 76
6, 517630, Note_off_c, 5, 54, 0
6, 517630, Note_off_c, 5, 42, 0
6, 517680, Note_on_c, 5, 42, 77
6, 517680, Note_on_c, 5, 54, 77
6, 517870, Note_off_c, 5, 54, 0
6, 517870, Note_off_c, 5, 42, 0
6, 517920, Note_on_c, 5, 50, 77
6, 517920, Note_on_c, 5, 38, 77
6, 518110, Note_off_c, 5, 38, 0
6, 518110, Note_off_c, 5, 50, 0
6, 518160, Note_on_c, 5, 43, 78
6, 518160, Note_on_c, 5, 55, 78
6, 518350, Note_off_c, 5, 55, 0
6, 518350, Note_off_c, 5, 43, 0
6, 518640, Note_on_c, 5, 59, 54
6, 518795, Note_off_c, 5, 59, 0
6, 518880, Note_on_c, 5, 60, 55
6, 519035, Note_off_c, 5, 60, 0
6, 519120, Note_on_c, 5, 61, 56
6, 519275, Note_off_c, 5, 61, 0
6, 519360, Note_on_c, 5, 62, 57
6, 519515, Note_off_c, 5, 62, 0
6, 519600, Note_on_c, 5, 63, 66
6, 519755, Note_off_c, 5, 63, 0
6, 519840, Note_on_c, 5, 64, 60
6, 519995, Note_off_c, 5, 64, 0
6, 520080, Note_on_c, 5, 61, 61
6, 520320, Note_off_c, 5, 61, 0
6, 520320, Note_on_c, 5, 62, 62
6, 520475, Note_off_c, 5, 62, 0
6, 520800, Note_on_c, 5, 62, 64
6, 520955, Note_off_c, 5, 62, 0
6, 521040, Note_on_c, 5, 55, 65
6, 521195, Note_off_c, 5, 55, 0
6, 521520, Note_on_c, 5, 62, 86
6, 521520, Note_on_c, 5, 50, 86
6, 521760, Note_off_c, 5, 50, 0
6, 521760, Note_off_c, 5, 62, 0
6, 521760, Note_on_c, 5, 55, 92
6, 521760, Note_on_c, 5, 43, 92
6, 522000, Note_off_c, 5, 43, 0
6, 522000, Note_off_c, 5, 55, 0
6, 522480, Control_c, 5, 64, 127
6, 522480, Note_on_c, 5, 50, 95
6, 522720, Note_off_c, 5, 50, 0
6, 523200, Control_c, 5, 64, 0
6, 523920, Control_c, 5, 64, 127
6, 523920, Note_on_c, 5, 43, 95
6, 524160, Note_off_c, 5, 43, 0
6, 524640, Control_c, 5, 64, 0
6, 524640, End_track
0, 0, End_of_file