0, 0, Header, 1, 12, 480
1, 0, Start_track
1, 0, Title_t, "untitled"
1, 0, Time_signature, 3, 2, 24, 8
1, 0, Key_signature, 0, "major"
1, 0, Tempo, 491803
1, 1440, Tempo, 480000
1, 11520, Tempo, 491803
1, 12960, Tempo, 480000
1, 23040, Tempo, 500000
1, 24480, Tempo, 491803
1, 30240, Tempo, 480000
1, 34560, Tempo, 500000
1, 36000, Tempo, 491803
1, 41760, Tempo, 480000
1, 46080, Tempo, 508475
1, 47520, Tempo, 500000
1, 74880, Tempo, 508475
1, 76320, Tempo, 500000
1, 86400, Tempo, 508475
1, 87840, Tempo, 500000
1, 92160, Tempo, 508475
1, 93600, Tempo, 500000
1, 103680, Tempo, 491803
1, 105120, Tempo, 476190
1, 124320, Tempo, 487805
1, 124800, Tempo, 500000
1, 125280, Tempo, 512821
1, 125760, Tempo, 526316
1, 126240, Tempo, 540541
1, 126720, Tempo, 555556
1, 128160, Tempo, 476190
1, 128160, End_track
2, 0, Start_track
2, 0, Program_c, 0, 48
2, 0, Control_c, 0, 7, 127
2, 0, Control_c, 0, 10, 31
2, 0, Control_c, 0, 91, 80
2, 960, Note_on_c, 0, 74, 105
2, 1272, Note_on_c, 0, 74, 0
2, 1440, Note_on_c, 0, 79, 105
2, 1752, Note_on_c, 0, 79, 0
2, 1920, Note_on_c, 0, 81, 105
2, 2232, Note_on_c, 0, 81, 0
2, 2400, Note_on_c, 0, 83, 105
2, 2712, Note_on_c, 0, 83, 0
2, 2880, Note_on_c, 0, 84, 105
2, 3840, Note_on_c, 0, 84, 0
2, 3840, Note_on_c, 0, 81, 105
2, 4152, Note_on_c, 0, 81, 0
2, 4320, Note_on_c, 0, 83, 105
2, 4632, Note_on_c, 0, 83, 0
2, 4800, Note_on_c, 0, 79, 105
2, 5112, Note_on_c, 0, 79, 0
2, 5280, Note_on_c, 0, 81, 105
2, 5592, Note_on_c, 0, 81, 0
2, 5760, Note_on_c, 0, 79, 105
2, 6000, Note_on_c, 0, 79, 0
2, 6000, Note_on_c, 0, 78, 105
2, 6240, Note_on_c, 0, 78, 0
2, 6240, Note_on_c, 0, 76, 105
2, 6480, Note_on_c, 0, 76, 0
2, 6480, Note_on_c, 0, 74, 105
2, 6720, Note_on_c, 0, 74, 0
2, 6720, Note_on_c, 0, 76, 105
2, 6960, Note_on_c, 0, 76, 0
2, 6960, Note_on_c, 0, 78, 105
2, 7152, Note_on_c, 0, 78, 0
2, 7200, Note_on_c, 0, 79, 105
2, 7512, Note_on_c, 0, 79, 0
2, 7680, Note_on_c, 0, 81, 105
2, 7992, Note_on_c, 0, 81, 0
2, 8160, Note_on_c, 0, 83, 105
2, 8472, Note_on_c, 0, 83, 0
2, 8640, Note_on_c, 0, 84, 105
2, 8928, Note_on_c, 0, 84, 0
2, 9120, Note_on_c, 0, 83, 105
2, 9180, Note_on_c, 0, 83, 0
2, 9180, Note_on_c, 0, 81, 105
2, 9240, Note_on_c, 0, 81, 0
2, 9240, Note_on_c, 0, 83, 105
2, 9300, Note_on_c, 0, 83, 0
2, 9300, Note_on_c, 0, 81, 105
2, 9360, Note_on_c, 0, 81, 0
2, 9360, Note_on_c, 0, 79, 105
2, 9480, Note_on_c, 0, 79, 0
2, 9480, Note_on_c, 0, 81, 105
2, 9600, Note_on_c, 0, 81, 0
2, 9600, Note_on_c, 0, 83, 105
2, 9888, Note_on_c, 0, 83, 0
2, 10080, Note_on_c, 0, 81, 105
2, 10140, Note_on_c, 0, 81, 0
2, 10140, Note_on_c, 0, 79, 105
2, 10200, Note_on_c, 0, 79, 0
2, 10200, Note_on_c, 0, 81, 105
2, 10260, Note_on_c, 0, 81, 0
2, 10260, Note_on_c, 0, 79, 105
2, 10320, Note_on_c, 0, 79, 0
2, 10320, Note_on_c, 0, 78, 105
2, 10440, Note_on_c, 0, 78, 0
2, 10440, Note_on_c, 0, 79, 105
2, 10560, Note_on_c, 0, 79, 0
2, 10560, Note_on_c, 0, 81, 105
2, 10848, Note_on_c, 0, 81, 0
2, 11040, Note_on_c, 0, 78, 105
2, 11328, Note_on_c, 0, 78, 0
2, 11520, Note_on_c, 0, 79, 92
2, 11904, Note_on_c, 0, 79, 0
2, 12480, Note_on_c, 0, 74, 105
2, 12792, Note_on_c, 0, 74, 0
2, 12960, Note_on_c, 0, 79, 105
2, 13272, Note_on_c, 0, 79, 0
2, 13440, Note_on_c, 0, 81, 105
2, 13752, Note_on_c, 0, 81, 0
2, 13920, Note_on_c, 0, 83, 105
2, 14232, Note_on_c, 0, 83, 0
2, 14400, Note_on_c, 0, 84, 105
2, 15360, Note_on_c, 0, 84, 0
2, 15360, Note_on_c, 0, 81, 105
2, 15672, Note_on_c, 0, 81, 0
2, 15840, Note_on_c, 0, 83, 105
2, 16152, Note_on_c, 0, 83, 0
2, 16320, Note_on_c, 0, 79, 105
2, 16632, Note_on_c, 0, 79, 0
2, 16800, Note_on_c, 0, 81, 105
2, 17112, Note_on_c, 0, 81, 0
2, 17280, Note_on_c, 0, 79, 105
2, 17520, Note_on_c, 0, 79, 0
2, 17520, Note_on_c, 0, 78, 105
2, 17760, Note_on_c, 0, 78, 0
2, 17760, Note_on_c, 0, 76, 105
2, 18000, Note_on_c, 0, 76, 0
2, 18000, Note_on_c, 0, 74, 105
2, 18240, Note_on_c, 0, 74, 0
2, 18240, Note_on_c, 0, 76, 105
2, 18480, Note_on_c, 0, 76, 0
2, 18480, Note_on_c, 0, 78, 105
2, 18672, Note_on_c, 0, 78, 0
2, 18720, Note_on_c, 0, 79, 105
2, 19032, Note_on_c, 0, 79, 0
2, 19200, Note_on_c, 0, 81, 105
2, 19512, Note_on_c, 0, 81, 0
2, 19680, Note_on_c, 0, 83, 105
2, 19992, Note_on_c, 0, 83, 0
2, 20160, Note_on_c, 0, 84, 105
2, 20448, Note_on_c, 0, 84, 0
2, 20640, Note_on_c, 0, 83, 105
2, 20700, Note_on_c, 0, 83, 0
2, 20700, Note_on_c, 0, 81, 105
2, 20760, Note_on_c, 0, 81, 0
2, 20760, Note_on_c, 0, 83, 105
2, 20820, Note_on_c, 0, 83, 0
2, 20820, Note_on_c, 0, 81, 105
2, 20880, Note_on_c, 0, 81, 0
2, 20880, Note_on_c, 0, 79, 105
2, 21000, Note_on_c, 0, 79, 0
2, 21000, Note_on_c, 0, 81, 105
2, 21120, Note_on_c, 0, 81, 0
2, 21120, Note_on_c, 0, 83, 105
2, 21408, Note_on_c, 0, 83, 0
2, 21600, Note_on_c, 0, 81, 105
2, 21660, Note_on_c, 0, 81, 0
2, 21660, Note_on_c, 0, 79, 105
2, 21720, Note_on_c, 0, 79, 0
2, 21720, Note_on_c, 0, 81, 105
2, 21780, Note_on_c, 0, 81, 0
2, 21780, Note_on_c, 0, 79, 105
2, 21840, Note_on_c, 0, 79, 0
2, 21840, Note_on_c, 0, 78, 105
2, 21960, Note_on_c, 0, 78, 0
2, 21960, Note_on_c, 0, 79, 105
2, 22080, Note_on_c, 0, 79, 0
2, 22080, Note_on_c, 0, 81, 105
2, 22368, Note_on_c, 0, 81, 0
2, 22560, Note_on_c, 0, 78, 105
2, 22848, Note_on_c, 0, 78, 0
2, 23040, Note_on_c, 0, 79, 92
2, 23424, Note_on_c, 0, 79, 0
2, 24000, Note_on_c, 0, 83, 72
2, 24312, Note_on_c, 0, 83, 0
2, 24480, Note_on_c, 0, 81, 72
2, 24720, Note_on_c, 0, 81, 0
2, 24720, Note_on_c, 0, 79, 72
2, 24960, Note_on_c, 0, 79, 0
2, 24960, Note_on_c, 0, 78, 72
2, 25200, Note_on_c, 0, 78, 0
2, 25200, Note_on_c, 0, 76, 72
2, 25440, Note_on_c, 0, 76, 0
2, 25440, Note_on_c, 0, 75, 72
2, 25680, Note_on_c, 0, 75, 0
2, 25680, Note_on_c, 0, 78, 72
2, 25920, Note_on_c, 0, 78, 0
2, 25920, Note_on_c, 0, 76, 72
2, 26160, Note_on_c, 0, 76, 0
2, 26160, Note_on_c, 0, 78, 72
2, 26400, Note_on_c, 0, 78, 0
2, 26400, Note_on_c, 0, 79, 72
2, 26640, Note_on_c, 0, 79, 0
2, 26640, Note_on_c, 0, 80, 72
2, 26880, Note_on_c, 0, 80, 0
2, 26880, Note_on_c, 0, 83, 72
2, 27120, Note_on_c, 0, 83, 0
2, 27120, Note_on_c, 0, 81, 72
2, 27360, Note_on_c, 0, 81, 0
2, 27360, Note_on_c, 0, 79, 72
2, 27600, Note_on_c, 0, 79, 0
2, 27600, Note_on_c, 0, 78, 72
2, 27840, Note_on_c, 0, 78, 0
2, 27840, Note_on_c, 0, 76, 72
2, 28080, Note_on_c, 0, 76, 0
2, 28080, Note_on_c, 0, 74, 72
2, 28320, Note_on_c, 0, 74, 0
2, 28320, Note_on_c, 0, 73, 72
2, 28560, Note_on_c, 0, 73, 0
2, 28560, Note_on_c, 0, 76, 72
2, 28800, Note_on_c, 0, 76, 0
2, 28800, Note_on_c, 0, 74, 72
2, 29040, Note_on_c, 0, 74, 0
2, 29040, Note_on_c, 0, 76, 72
2, 29280, Note_on_c, 0, 76, 0
2, 29280, Note_on_c, 0, 78, 81
2, 29520, Note_on_c, 0, 78, 0
2, 29520, Note_on_c, 0, 79, 81
2, 29760, Note_on_c, 0, 79, 0
2, 29760, Note_on_c, 0, 81, 92
2, 30000, Note_on_c, 0, 81, 0
2, 30000, Note_on_c, 0, 78, 92
2, 30240, Note_on_c, 0, 78, 0
2, 30240, Note_on_c, 0, 79, 105
2, 30552, Note_on_c, 0, 79, 0
2, 30720, Note_on_c, 0, 81, 105
2, 31032, Note_on_c, 0, 81, 0
2, 31200, Note_on_c, 0, 83, 105
2, 31512, Note_on_c, 0, 83, 0
2, 31680, Note_on_c, 0, 84, 105
2, 31968, Note_on_c, 0, 84, 0
2, 32160, Note_on_c, 0, 83, 105
2, 32220, Note_on_c, 0, 83, 0
2, 32220, Note_on_c, 0, 81, 105
2, 32280, Note_on_c, 0, 81, 0
2, 32280, Note_on_c, 0, 83, 105
2, 32340, Note_on_c, 0, 83, 0
2, 32340, Note_on_c, 0, 81, 105
2, 32400, Note_on_c, 0, 81, 0
2, 32400, Note_on_c, 0, 79, 105
2, 32520, Note_on_c, 0, 79, 0
2, 32520, Note_on_c, 0, 81, 105
2, 32640, Note_on_c, 0, 81, 0
2, 32640, Note_on_c, 0, 83, 105
2, 32928, Note_on_c, 0, 83, 0
2, 33120, Note_on_c, 0, 81, 105
2, 33180, Note_on_c, 0, 81, 0
2, 33180, Note_on_c, 0, 79, 105
2, 33240, Note_on_c, 0, 79, 0
2, 33240, Note_on_c, 0, 81, 105
2, 33300, Note_on_c, 0, 81, 0
2, 33300, Note_on_c, 0, 79, 105
2, 33360, Note_on_c, 0, 79, 0
2, 33360, Note_on_c, 0, 78, 105
2, 33480, Note_on_c, 0, 78, 0
2, 33480, Note_on_c, 0, 79, 105
2, 33600, Note_on_c, 0, 79, 0
2, 33600, Note_on_c, 0, 81, 105
2, 33888, Note_on_c, 0, 81, 0
2, 34080, Note_on_c, 0, 78, 105
2, 34368, Note_on_c, 0, 78, 0
2, 34560, Note_on_c, 0, 79, 92
2, 34944, Note_on_c, 0, 79, 0
2, 35520, Note_on_c, 0, 83, 58
2, 35904, Note_on_c, 0, 83, 0
2, 36000, Note_on_c, 0, 81, 72
2, 36240, Note_on_c, 0, 81, 0
2, 36240, Note_on_c, 0, 79, 72
2, 36480, Note_on_c, 0, 79, 0
2, 36480, Note_on_c, 0, 78, 72
2, 36720, Note_on_c, 0, 78, 0
2, 36720, Note_on_c, 0, 76, 72
2, 36960, Note_on_c, 0, 76, 0
2, 36960, Note_on_c, 0, 75, 72
2, 37200, Note_on_c, 0, 75, 0
2, 37200, Note_on_c, 0, 78, 72
2, 37440, Note_on_c, 0, 78, 0
2, 37440, Note_on_c, 0, 76, 72
2, 37680, Note_on_c, 0, 76, 0
2, 37680, Note_on_c, 0, 78, 72
2, 37920, Note_on_c, 0, 78, 0
2, 37920, Note_on_c, 0, 79, 72
2, 38160, Note_on_c, 0, 79, 0
2, 38160, Note_on_c, 0, 80, 72
2, 38400, Note_on_c, 0, 80, 0
2, 38400, Note_on_c, 0, 83, 72
2, 38640, Note_on_c, 0, 83, 0
2, 38640, Note_on_c, 0, 81, 72
2, 38880, Note_on_c, 0, 81, 0
2, 38880, Note_on_c, 0, 79, 72
2, 39120, Note_on_c, 0, 79, 0
2, 39120, Note_on_c, 0, 78, 72
2, 39360, Note_on_c, 0, 78, 0
2, 39360, Note_on_c, 0, 76, 72
2, 39600, Note_on_c, 0, 76, 0
2, 39600, Note_on_c, 0, 74, 72
2, 39840, Note_on_c, 0, 74, 0
2, 39840, Note_on_c, 0, 73, 72
2, 40080, Note_on_c, 0, 73, 0
2, 40080, Note_on_c, 0, 76, 72
2, 40320, Note_on_c, 0, 76, 0
2, 40320, Note_on_c, 0, 74, 72
2, 40560, Note_on_c, 0, 74, 0
2, 40560, Note_on_c, 0, 76, 72
2, 40800, Note_on_c, 0, 76, 0
2, 40800, Note_on_c, 0, 78, 81
2, 41040, Note_on_c, 0, 78, 0
2, 41040, Note_on_c, 0, 79, 81
2, 41280, Note_on_c, 0, 79, 0
2, 41280, Note_on_c, 0, 81, 92
2, 41520, Note_on_c, 0, 81, 0
2, 41520, Note_on_c, 0, 78, 92
2, 41760, Note_on_c, 0, 78, 0
2, 41760, Note_on_c, 0, 79, 105
2, 42072, Note_on_c, 0, 79, 0
2, 42240, Note_on_c, 0, 81, 105
2, 42552, Note_on_c, 0, 81, 0
2, 42720, Note_on_c, 0, 83, 105
2, 43032, Note_on_c, 0, 83, 0
2, 43200, Note_on_c, 0, 84, 105
2, 43488, Note_on_c, 0, 84, 0
2, 43680, Note_on_c, 0, 83, 105
2, 43740, Note_on_c, 0, 83, 0
2, 43740, Note_on_c, 0, 81, 105
2, 43800, Note_on_c, 0, 81, 0
2, 43800, Note_on_c, 0, 83, 105
2, 43860, Note_on_c, 0, 83, 0
2, 43860, Note_on_c, 0, 81, 105
2, 43920, Note_on_c, 0, 81, 0
2, 43920, Note_on_c, 0, 79, 105
2, 44040, Note_on_c, 0, 79, 0
2, 44040, Note_on_c, 0, 81, 105
2, 44160, Note_on_c, 0, 81, 0
2, 44160, Note_on_c, 0, 83, 105
2, 44448, Note_on_c, 0, 83, 0
2, 44640, Note_on_c, 0, 81, 105
2, 44700, Note_on_c, 0, 81, 0
2, 44700, Note_on_c, 0, 79, 105
2, 44760, Note_on_c, 0, 79, 0
2, 44760, Note_on_c, 0, 81, 105
2, 44820, Note_on_c, 0, 81, 0
2, 44820, Note_on_c, 0, 79, 105
2, 44880, Note_on_c, 0, 79, 0
2, 44880, Note_on_c, 0, 78, 105
2, 45000, Note_on_c, 0, 78, 0
2, 45000, Note_on_c, 0, 79, 105
2, 45120, Note_on_c, 0, 79, 0
2, 45120, Note_on_c, 0, 81, 105
2, 45408, Note_on_c, 0, 81, 0
2, 45600, Note_on_c, 0, 78, 105
2, 45888, Note_on_c, 0, 78, 0
2, 46080, Note_on_c, 0, 79, 92
2, 46464, Note_on_c, 0, 79, 0
2, 47040, Note_on_c, 0, 78, 72
2, 47280, Note_on_c, 0, 78, 0
2, 47280, Note_on_c, 0, 79, 72
2, 47520, Note_on_c, 0, 79, 0
2, 47520, Note_on_c, 0, 81, 72
2, 48288, Note_on_c, 0, 81, 0
2, 48480, Note_on_c, 0, 83, 72
2, 48720, Note_on_c, 0, 83, 0
2, 48720, Note_on_c, 0, 85, 72
2, 48960, Note_on_c, 0, 85, 0
2, 48960, Note_on_c, 0, 86, 72
2, 49680, Note_on_c, 0, 86, 0
2, 49680, Note_on_c, 0, 85, 72
2, 49920, Note_on_c, 0, 85, 0
2, 49920, Note_on_c, 0, 83, 72
2, 50160, Note_on_c, 0, 83, 0
2, 50160, Note_on_c, 0, 81, 72
2, 50352, Note_on_c, 0, 81, 0
2, 50400, Note_on_c, 0, 79, 72
2, 50640, Note_on_c, 0, 79, 0
2, 50640, Note_on_c, 0, 78, 72
2, 50880, Note_on_c, 0, 78, 0
2, 50880, Note_on_c, 0, 79, 72
2, 51120, Note_on_c, 0, 79, 0
2, 51120, Note_on_c, 0, 81, 72
2, 51360, Note_on_c, 0, 81, 0
2, 51360, Note_on_c, 0, 82, 72
2, 51600, Note_on_c, 0, 82, 0
2, 51600, Note_on_c, 0, 83, 72
2, 51792, Note_on_c, 0, 83, 0
2, 51840, Note_on_c, 0, 76, 72
2, 52560, Note_on_c, 0, 76, 0
2, 52560, Note_on_c, 0, 75, 72
2, 52800, Note_on_c, 0, 75, 0
2, 52800, Note_on_c, 0, 76, 72
2, 53040, Note_on_c, 0, 76, 0
2, 53040, Note_on_c, 0, 79, 72
2, 53232, Note_on_c, 0, 79, 0
2, 53280, Note_on_c, 0, 78, 72
2, 53520, Note_on_c, 0, 78, 0
2, 53520, Note_on_c, 0, 77, 72
2, 53760, Note_on_c, 0, 77, 0
2, 53760, Note_on_c, 0, 78, 72
2, 54000, Note_on_c, 0, 78, 0
2, 54000, Note_on_c, 0, 79, 72
2, 54240, Note_on_c, 0, 79, 0
2, 54240, Note_on_c, 0, 80, 72
2, 54480, Note_on_c, 0, 80, 0
2, 54480, Note_on_c, 0, 81, 72
2, 54672, Note_on_c, 0, 81, 0
2, 54720, Note_on_c, 0, 74, 72
2, 54960, Note_on_c, 0, 74, 0
2, 54960, Note_on_c, 0, 73, 72
2, 55200, Note_on_c, 0, 73, 0
2, 55200, Note_on_c, 0, 74, 72
2, 55440, Note_on_c, 0, 74, 0
2, 55440, Note_on_c, 0, 76, 72
2, 55680, Note_on_c, 0, 76, 0
2, 55680, Note_on_c, 0, 77, 72
2, 55920, Note_on_c, 0, 77, 0
2, 55920, Note_on_c, 0, 78, 72
2, 56112, Note_on_c, 0, 78, 0
2, 56160, Note_on_c, 0, 76, 72
2, 56400, Note_on_c, 0, 76, 0
2, 56400, Note_on_c, 0, 78, 72
2, 56640, Note_on_c, 0, 78, 0
2, 56640, Note_on_c, 0, 79, 72
2, 56880, Note_on_c, 0, 79, 0
2, 56880, Note_on_c, 0, 76, 72
2, 57120, Note_on_c, 0, 76, 0
2, 57120, Note_on_c, 0, 73, 72
2, 57360, Note_on_c, 0, 73, 0
2, 57360, Note_on_c, 0, 76, 72
2, 57600, Note_on_c, 0, 76, 0
2, 57600, Note_on_c, 0, 74, 72
2, 57984, Note_on_c, 0, 74, 0
2, 58560, Note_on_c, 0, 78, 72
2, 58800, Note_on_c, 0, 78, 0
2, 58800, Note_on_c, 0, 79, 72
2, 59040, Note_on_c, 0, 79, 0
2, 59040, Note_on_c, 0, 81, 72
2, 59808, Note_on_c, 0, 81, 0
2, 60000, Note_on_c, 0, 83, 72
2, 60240, Note_on_c, 0, 83, 0
2, 60240, Note_on_c, 0, 85, 72
2, 60480, Note_on_c, 0, 85, 0
2, 60480, Note_on_c, 0, 86, 72
2, 61200, Note_on_c, 0, 86, 0
2, 61200, Note_on_c, 0, 85, 72
2, 61440, Note_on_c, 0, 85, 0
2, 61440, Note_on_c, 0, 83, 72
2, 61680, Note_on_c, 0, 83, 0
2, 61680, Note_on_c, 0, 81, 72
2, 61872, Note_on_c, 0, 81, 0
2, 61920, Note_on_c, 0, 79, 72
2, 62160, Note_on_c, 0, 79, 0
2, 62160, Note_on_c, 0, 78, 72
2, 62400, Note_on_c, 0, 78, 0
2, 62400, Note_on_c, 0, 79, 72
2, 62640, Note_on_c, 0, 79, 0
2, 62640, Note_on_c, 0, 81, 72
2, 62880, Note_on_c, 0, 81, 0
2, 62880, Note_on_c, 0, 82, 72
2, 63120, Note_on_c, 0, 82, 0
2, 63120, Note_on_c, 0, 83, 72
2, 63312, Note_on_c, 0, 83, 0
2, 63360, Note_on_c, 0, 76, 72
2, 64080, Note_on_c, 0, 76, 0
2, 64080, Note_on_c, 0, 75, 72
2, 64320, Note_on_c, 0, 75, 0
2, 64320, Note_on_c, 0, 76, 72
2, 64560, Note_on_c, 0, 76, 0
2, 64560, Note_on_c, 0, 79, 72
2, 64752, Note_on_c, 0, 79, 0
2, 64800, Note_on_c, 0, 78, 72
2, 65040, Note_on_c, 0, 78, 0
2, 65040, Note_on_c, 0, 77, 72
2, 65280, Note_on_c, 0, 77, 0
2, 65280, Note_on_c, 0, 78, 72
2, 65520, Note_on_c, 0, 78, 0
2, 65520, Note_on_c, 0, 79, 72
2, 65760, Note_on_c, 0, 79, 0
2, 65760, Note_on_c, 0, 80, 72
2, 66000, Note_on_c, 0, 80, 0
2, 66000, Note_on_c, 0, 81, 72
2, 66192, Note_on_c, 0, 81, 0
2, 66240, Note_on_c, 0, 74, 72
2, 66480, Note_on_c, 0, 74, 0
2, 66480, Note_on_c, 0, 73, 72
2, 66720, Note_on_c, 0, 73, 0
2, 66720, Note_on_c, 0, 74, 72
2, 66960, Note_on_c, 0, 74, 0
2, 66960, Note_on_c, 0, 76, 72
2, 67200, Note_on_c, 0, 76, 0
2, 67200, Note_on_c, 0, 77, 72
2, 67440, Note_on_c, 0, 77, 0
2, 67440, Note_on_c, 0, 78, 72
2, 67632, Note_on_c, 0, 78, 0
2, 67680, Note_on_c, 0, 76, 72
2, 67920, Note_on_c, 0, 76, 0
2, 67920, Note_on_c, 0, 78, 72
2, 68160, Note_on_c, 0, 78, 0
2, 68160, Note_on_c, 0, 79, 72
2, 68400, Note_on_c, 0, 79, 0
2, 68400, Note_on_c, 0, 76, 72
2, 68640, Note_on_c, 0, 76, 0
2, 68640, Note_on_c, 0, 73, 72
2, 68880, Note_on_c, 0, 73, 0
2, 68880, Note_on_c, 0, 76, 72
2, 69120, Note_on_c, 0, 76, 0
2, 69120, Note_on_c, 0, 74, 72
2, 69504, Note_on_c, 0, 74, 0
2, 70080, Note_on_c, 0, 73, 105
2, 70320, Note_on_c, 0, 73, 0
2, 70320, Note_on_c, 0, 74, 105
2, 70560, Note_on_c, 0, 74, 0
2, 70560, Note_on_c, 0, 76, 105
2, 70800, Note_on_c, 0, 76, 0
2, 70800, Note_on_c, 0, 78, 105
2, 71040, Note_on_c, 0, 78, 0
2, 71040, Note_on_c, 0, 79, 105
2, 71280, Note_on_c, 0, 79, 0
2, 71280, Note_on_c, 0, 81, 105
2, 71520, Note_on_c, 0, 81, 0
2, 71520, Note_on_c, 0, 83, 105
2, 71760, Note_on_c, 0, 83, 0
2, 71760, Note_on_c, 0, 81, 105
2, 72000, Note_on_c, 0, 81, 0
2, 72000, Note_on_c, 0, 79, 105
2, 72240, Note_on_c, 0, 79, 0
2, 72240, Note_on_c, 0, 78, 105
2, 72480, Note_on_c, 0, 78, 0
2, 72480, Note_on_c, 0, 76, 105
2, 72720, Note_on_c, 0, 76, 0
2, 72720, Note_on_c, 0, 74, 105
2, 72912, Note_on_c, 0, 74, 0
2, 72960, Note_on_c, 0, 76, 105
2, 73200, Note_on_c, 0, 76, 0
2, 73200, Note_on_c, 0, 78, 105
2, 73440, Note_on_c, 0, 78, 0
2, 73440, Note_on_c, 0, 80, 105
2, 73680, Note_on_c, 0, 80, 0
2, 73680, Note_on_c, 0, 81, 105
2, 73920, Note_on_c, 0, 81, 0
2, 73920, Note_on_c, 0, 83, 105
2, 74160, Note_on_c, 0, 83, 0
2, 74160, Note_on_c, 0, 85, 105
2, 74400, Note_on_c, 0, 85, 0
2, 74400, Note_on_c, 0, 86, 105
2, 74640, Note_on_c, 0, 86, 0
2, 74640, Note_on_c, 0, 83, 105
2, 74880, Note_on_c, 0, 83, 0
2, 74880, Note_on_c, 0, 81, 105
2, 75456, Note_on_c, 0, 81, 0
2, 75600, Note_on_c, 0, 79, 72
2, 75840, Note_on_c, 0, 79, 0
2, 75840, Note_on_c, 0, 78, 72
2, 76080, Note_on_c, 0, 78, 0
2, 76080, Note_on_c, 0, 79, 72
2, 76272, Note_on_c, 0, 79, 0
2, 76320, Note_on_c, 0, 81, 72
2, 77040, Note_on_c, 0, 81, 0
2, 77040, Note_on_c, 0, 82, 72
2, 77280, Note_on_c, 0, 82, 0
2, 77280, Note_on_c, 0, 83, 72
2, 77520, Note_on_c, 0, 83, 0
2, 77520, Note_on_c, 0, 85, 72
2, 77712, Note_on_c, 0, 85, 0
2, 77760, Note_on_c, 0, 86, 72
2, 78480, Note_on_c, 0, 86, 0
2, 78480, Note_on_c, 0, 85, 72
2, 78720, Note_on_c, 0, 85, 0
2, 78720, Note_on_c, 0, 83, 72
2, 78960, Note_on_c, 0, 83, 0
2, 78960, Note_on_c, 0, 81, 72
2, 79152, Note_on_c, 0, 81, 0
2, 79200, Note_on_c, 0, 79, 72
2, 79440, Note_on_c, 0, 79, 0
2, 79440, Note_on_c, 0, 78, 72
2, 79680, Note_on_c, 0, 78, 0
2, 79680, Note_on_c, 0, 79, 72
2, 79920, Note_on_c, 0, 79, 0
2, 79920, Note_on_c, 0, 81, 72
2, 80160, Note_on_c, 0, 81, 0
2, 80160, Note_on_c, 0, 82, 72
2, 80400, Note_on_c, 0, 82, 0
2, 80400, Note_on_c, 0, 83, 72
2, 80592, Note_on_c, 0, 83, 0
2, 80640, Note_on_c, 0, 76, 72
2, 81360, Note_on_c, 0, 76, 0
2, 81360, Note_on_c, 0, 75, 72
2, 81600, Note_on_c, 0, 75, 0
2, 81600, Note_on_c, 0, 76, 72
2, 81840, Note_on_c, 0, 76, 0
2, 81840, Note_on_c, 0, 79, 72
2, 82032, Note_on_c, 0, 79, 0
2, 82080, Note_on_c, 0, 78, 72
2, 82320, Note_on_c, 0, 78, 0
2, 82320, Note_on_c, 0, 77, 72
2, 82560, Note_on_c, 0, 77, 0
2, 82560, Note_on_c, 0, 78, 72
2, 82800, Note_on_c, 0, 78, 0
2, 82800, Note_on_c, 0, 79, 72
2, 83040, Note_on_c, 0, 79, 0
2, 83040, Note_on_c, 0, 80, 72
2, 83280, Note_on_c, 0, 80, 0
2, 83280, Note_on_c, 0, 81, 72
2, 83472, Note_on_c, 0, 81, 0
2, 83520, Note_on_c, 0, 74, 72
2, 83760, Note_on_c, 0, 74, 0
2, 83760, Note_on_c, 0, 73, 72
2, 84000, Note_on_c, 0, 73, 0
2, 84000, Note_on_c, 0, 74, 72
2, 84240, Note_on_c, 0, 74, 0
2, 84240, Note_on_c, 0, 76, 72
2, 84480, Note_on_c, 0, 76, 0
2, 84480, Note_on_c, 0, 77, 72
2, 84720, Note_on_c, 0, 77, 0
2, 84720, Note_on_c, 0, 78, 72
2, 84912, Note_on_c, 0, 78, 0
2, 84960, Note_on_c, 0, 76, 72
2, 85200, Note_on_c, 0, 76, 0
2, 85200, Note_on_c, 0, 78, 72
2, 85440, Note_on_c, 0, 78, 0
2, 85440, Note_on_c, 0, 79, 72
2, 85680, Note_on_c, 0, 79, 0
2, 85680, Note_on_c, 0, 76, 72
2, 85920, Note_on_c, 0, 76, 0
2, 85920, Note_on_c, 0, 73, 72
2, 86160, Note_on_c, 0, 73, 0
2, 86160, Note_on_c, 0, 76, 72
2, 86400, Note_on_c, 0, 76, 0
2, 86400, Note_on_c, 0, 74, 58
2, 86784, Note_on_c, 0, 74, 0
2, 87360, Note_on_c, 0, 73, 58
2, 87600, Note_on_c, 0, 73, 0
2, 87600, Note_on_c, 0, 74, 105
2, 87840, Note_on_c, 0, 74, 0
2, 87840, Note_on_c, 0, 76, 105
2, 88080, Note_on_c, 0, 76, 0
2, 88080, Note_on_c, 0, 78, 105
2, 88320, Note_on_c, 0, 78, 0
2, 88320, Note_on_c, 0, 79, 105
2, 88560, Note_on_c, 0, 79, 0
2, 88560, Note_on_c, 0, 81, 105
2, 88800, Note_on_c, 0, 81, 0
2, 88800, Note_on_c, 0, 83, 105
2, 89040, Note_on_c, 0, 83, 0
2, 89040, Note_on_c, 0, 81, 105
2, 89280, Note_on_c, 0, 81, 0
2, 89280, Note_on_c, 0, 79, 105
2, 89520, Note_on_c, 0, 79, 0
2, 89520, Note_on_c, 0, 78, 105
2, 89760, Note_on_c, 0, 78, 0
2, 89760, Note_on_c, 0, 76, 105
2, 90000, Note_on_c, 0, 76, 0
2, 90000, Note_on_c, 0, 74, 105
2, 90192, Note_on_c, 0, 74, 0
2, 90240, Note_on_c, 0, 76, 105
2, 90480, Note_on_c, 0, 76, 0
2, 90480, Note_on_c, 0, 78, 105
2, 90720, Note_on_c, 0, 78, 0
2, 90720, Note_on_c, 0, 80, 105
2, 90960, Note_on_c, 0, 80, 0
2, 90960, Note_on_c, 0, 81, 105
2, 91200, Note_on_c, 0, 81, 0
2, 91200, Note_on_c, 0, 83, 105
2, 91440, Note_on_c, 0, 83, 0
2, 91440, Note_on_c, 0, 85, 105
2, 91680, Note_on_c, 0, 85, 0
2, 91680, Note_on_c, 0, 86, 105
2, 91920, Note_on_c, 0, 86, 0
2, 91920, Note_on_c, 0, 83, 105
2, 92160, Note_on_c, 0, 83, 0
2, 92160, Note_on_c, 0, 81, 105
2, 92736, Note_on_c, 0, 81, 0
2, 92880, Note_on_c, 0, 79, 72
2, 93120, Note_on_c, 0, 79, 0
2, 93120, Note_on_c, 0, 78, 72
2, 93360, Note_on_c, 0, 78, 0
2, 93360, Note_on_c, 0, 79, 72
2, 93552, Note_on_c, 0, 79, 0
2, 93600, Note_on_c, 0, 81, 72
2, 94320, Note_on_c, 0, 81, 0
2, 94320, Note_on_c, 0, 82, 72
2, 94560, Note_on_c, 0, 82, 0
2, 94560, Note_on_c, 0, 83, 72
2, 94800, Note_on_c, 0, 83, 0
2, 94800, Note_on_c, 0, 85, 72
2, 94992, Note_on_c, 0, 85, 0
2, 95040, Note_on_c, 0, 86, 72
2, 95760, Note_on_c, 0, 86, 0
2, 95760, Note_on_c, 0, 85, 72
2, 96000, Note_on_c, 0, 85, 0
2, 96000, Note_on_c, 0, 83, 72
2, 96240, Note_on_c, 0, 83, 0
2, 96240, Note_on_c, 0, 81, 72
2, 96432, Note_on_c, 0, 81, 0
2, 96480, Note_on_c, 0, 79, 72
2, 96720, Note_on_c, 0, 79, 0
2, 96720, Note_on_c, 0, 78, 72
2, 96960, Note_on_c, 0, 78, 0
2, 96960, Note_on_c, 0, 79, 72
2, 97200, Note_on_c, 0, 79, 0
2, 97200, Note_on_c, 0, 81, 72
2, 97440, Note_on_c, 0, 81, 0
2, 97440, Note_on_c, 0, 82, 72
2, 97680, Note_on_c, 0, 82, 0
2, 97680, Note_on_c, 0, 83, 72
2, 97872, Note_on_c, 0, 83, 0
2, 97920, Note_on_c, 0, 76, 72
2, 98640, Note_on_c, 0, 76, 0
2, 98640, Note_on_c, 0, 75, 72
2, 98880, Note_on_c, 0, 75, 0
2, 98880, Note_on_c, 0, 76, 72
2, 99120, Note_on_c, 0, 76, 0
2, 99120, Note_on_c, 0, 79, 72
2, 99312, Note_on_c, 0, 79, 0
2, 99360, Note_on_c, 0, 78, 72
2, 99600, Note_on_c, 0, 78, 0
2, 99600, Note_on_c, 0, 77, 72
2, 99840, Note_on_c, 0, 77, 0
2, 99840, Note_on_c, 0, 78, 72
2, 100080, Note_on_c, 0, 78, 0
2, 100080, Note_on_c, 0, 79, 72
2, 100320, Note_on_c, 0, 79, 0
2, 100320, Note_on_c, 0, 80, 72
2, 100560, Note_on_c, 0, 80, 0
2, 100560, Note_on_c, 0, 81, 72
2, 100752, Note_on_c, 0, 81, 0
2, 100800, Note_on_c, 0, 74, 72
2, 101040, Note_on_c, 0, 74, 0
2, 101040, Note_on_c, 0, 73, 72
2, 101280, Note_on_c, 0, 73, 0
2, 101280, Note_on_c, 0, 74, 72
2, 101520, Note_on_c, 0, 74, 0
2, 101520, Note_on_c, 0, 76, 72
2, 101760, Note_on_c, 0, 76, 0
2, 101760, Note_on_c, 0, 77, 72
2, 102000, Note_on_c, 0, 77, 0
2, 102000, Note_on_c, 0, 78, 72
2, 102192, Note_on_c, 0, 78, 0
2, 102240, Note_on_c, 0, 76, 72
2, 102480, Note_on_c, 0, 76, 0
2, 102480, Note_on_c, 0, 78, 72
2, 102720, Note_on_c, 0, 78, 0
2, 102720, Note_on_c, 0, 79, 72
2, 102960, Note_on_c, 0, 79, 0
2, 102960, Note_on_c, 0, 76, 72
2, 103200, Note_on_c, 0, 76, 0
2, 103200, Note_on_c, 0, 73, 72
2, 103440, Note_on_c, 0, 73, 0
2, 103440, Note_on_c, 0, 76, 72
2, 103680, Note_on_c, 0, 76, 0
2, 103680, Note_on_c, 0, 74, 58
2, 104064, Note_on_c, 0, 74, 0
2, 104640, Note_on_c, 0, 74, 105
2, 104928, Note_on_c, 0, 74, 0
2, 105120, Note_on_c, 0, 79, 105
2, 105432, Note_on_c, 0, 79, 0
2, 105600, Note_on_c, 0, 81, 105
2, 105912, Note_on_c, 0, 81, 0
2, 106080, Note_on_c, 0, 83, 105
2, 106392, Note_on_c, 0, 83, 0
2, 106560, Note_on_c, 0, 84, 105
2, 107520, Note_on_c, 0, 84, 0
2, 107520, Note_on_c, 0, 81, 105
2, 107832, Note_on_c, 0, 81, 0
2, 108000, Note_on_c, 0, 83, 105
2, 108312, Note_on_c, 0, 83, 0
2, 108480, Note_on_c, 0, 79, 105
2, 108792, Note_on_c, 0, 79, 0
2, 108960, Note_on_c, 0, 81, 105
2, 109272, Note_on_c, 0, 81, 0
2, 109440, Note_on_c, 0, 79, 105
2, 109680, Note_on_c, 0, 79, 0
2, 109680, Note_on_c, 0, 78, 105
2, 109920, Note_on_c, 0, 78, 0
2, 109920, Note_on_c, 0, 76, 105
2, 110160, Note_on_c, 0, 76, 0
2, 110160, Note_on_c, 0, 74, 105
2, 110400, Note_on_c, 0, 74, 0
2, 110400, Note_on_c, 0, 76, 105
2, 110640, Note_on_c, 0, 76, 0
2, 110640, Note_on_c, 0, 78, 105
2, 110832, Note_on_c, 0, 78, 0
2, 110880, Note_on_c, 0, 79, 105
2, 111192, Note_on_c, 0, 79, 0
2, 111360, Note_on_c, 0, 81, 105
2, 111672, Note_on_c, 0, 81, 0
2, 111840, Note_on_c, 0, 83, 105
2, 112152, Note_on_c, 0, 83, 0
2, 112320, Note_on_c, 0, 84, 105
2, 112608, Note_on_c, 0, 84, 0
2, 112800, Note_on_c, 0, 83, 105
2, 112860, Note_on_c, 0, 83, 0
2, 112860, Note_on_c, 0, 81, 105
2, 112920, Note_on_c, 0, 81, 0
2, 112920, Note_on_c, 0, 83, 105
2, 112980, Note_on_c, 0, 83, 0
2, 112980, Note_on_c, 0, 81, 105
2, 113040, Note_on_c, 0, 81, 0
2, 113040, Note_on_c, 0, 79, 105
2, 113160, Note_on_c, 0, 79, 0
2, 113160, Note_on_c, 0, 81, 105
2, 113280, Note_on_c, 0, 81, 0
2, 113280, Note_on_c, 0, 83, 105
2, 113568, Note_on_c, 0, 83, 0
2, 113760, Note_on_c, 0, 81, 105
2, 113820, Note_on_c, 0, 81, 0
2, 113820, Note_on_c, 0, 79, 105
2, 113880, Note_on_c, 0, 79, 0
2, 113880, Note_on_c, 0, 81, 105
2, 113940, Note_on_c, 0, 81, 0
2, 113940, Note_on_c, 0, 79, 105
2, 114000, Note_on_c, 0, 79, 0
2, 114000, Note_on_c, 0, 78, 105
2, 114120, Note_on_c, 0, 78, 0
2, 114120, Note_on_c, 0, 79, 105
2, 114240, Note_on_c, 0, 79, 0
2, 114240, Note_on_c, 0, 81, 105
2, 114528, Note_on_c, 0, 81, 0
2, 114720, Note_on_c, 0, 78, 105
2, 115008, Note_on_c, 0, 78, 0
2, 115200, Note_on_c, 0, 79, 92
2, 115584, Note_on_c, 0, 79, 0
2, 116160, Note_on_c, 0, 83, 72
2, 116472, Note_on_c, 0, 83, 0
2, 116640, Note_on_c, 0, 81, 72
2, 116880, Note_on_c, 0, 81, 0
2, 116880, Note_on_c, 0, 79, 72
2, 117120, Note_on_c, 0, 79, 0
2, 117120, Note_on_c, 0, 78, 72
2, 117360, Note_on_c, 0, 78, 0
2, 117360, Note_on_c, 0, 76, 72
2, 117600, Note_on_c, 0, 76, 0
2, 117600, Note_on_c, 0, 75, 72
2, 117840, Note_on_c, 0, 75, 0
2, 117840, Note_on_c, 0, 78, 72
2, 118080, Note_on_c, 0, 78, 0
2, 118080, Note_on_c, 0, 76, 72
2, 118320, Note_on_c, 0, 76, 0
2, 118320, Note_on_c, 0, 78, 72
2, 118560, Note_on_c, 0, 78, 0
2, 118560, Note_on_c, 0, 79, 72
2, 118800, Note_on_c, 0, 79, 0
2, 118800, Note_on_c, 0, 80, 72
2, 119040, Note_on_c, 0, 80, 0
2, 119040, Note_on_c, 0, 83, 72
2, 119280, Note_on_c, 0, 83, 0
2, 119280, Note_on_c, 0, 81, 72
2, 119520, Note_on_c, 0, 81, 0
2, 119520, Note_on_c, 0, 79, 72
2, 119760, Note_on_c, 0, 79, 0
2, 119760, Note_on_c, 0, 78, 72
2, 120000, Note_on_c, 0, 78, 0
2, 120000, Note_on_c, 0, 76, 72
2, 120240, Note_on_c, 0, 76, 0
2, 120240, Note_on_c, 0, 74, 72
2, 120480, Note_on_c, 0, 74, 0
2, 120480, Note_on_c, 0, 73, 72
2, 120720, Note_on_c, 0, 73, 0
2, 120720, Note_on_c, 0, 76, 72
2, 120960, Note_on_c, 0, 76, 0
2, 120960, Note_on_c, 0, 74, 72
2, 121200, Note_on_c, 0, 74, 0
2, 121200, Note_on_c, 0, 76, 72
2, 121440, Note_on_c, 0, 76, 0
2, 121440, Note_on_c, 0, 78, 81
2, 121680, Note_on_c, 0, 78, 0
2, 121680, Note_on_c, 0, 79, 81
2, 121920, Note_on_c, 0, 79, 0
2, 121920, Note_on_c, 0, 81, 92
2, 122160, Note_on_c, 0, 81, 0
2, 122160, Note_on_c, 0, 78, 92
2, 122400, Note_on_c, 0, 78, 0
2, 122400, Note_on_c, 0, 79, 105
2, 122712, Note_on_c, 0, 79, 0
2, 122880, Note_on_c, 0, 81, 105
2, 123192, Note_on_c, 0, 81, 0
2, 123360, Note_on_c, 0, 83, 105
2, 123672, Note_on_c, 0, 83, 0
2, 123840, Note_on_c, 0, 84, 105
2, 124128, Note_on_c, 0, 84, 0
2, 124320, Note_on_c, 0, 83, 105
2, 124380, Note_on_c, 0, 83, 0
2, 124380, Note_on_c, 0, 81, 105
2, 124440, Note_on_c, 0, 81, 0
2, 124440, Note_on_c, 0, 83, 105
2, 124500, Note_on_c, 0, 83, 0
2, 124500, Note_on_c, 0, 81, 105
2, 124560, Note_on_c, 0, 81, 0
2, 124560, Note_on_c, 0, 79, 105
2, 124680, Note_on_c, 0, 79, 0
2, 124680, Note_on_c, 0, 81, 105
2, 124800, Note_on_c, 0, 81, 0
2, 124800, Note_on_c, 0, 83, 105
2, 125088, Note_on_c, 0, 83, 0
2, 125280, Note_on_c, 0, 81, 105
2, 125340, Note_on_c, 0, 81, 0
2, 125340, Note_on_c, 0, 79, 105
2, 125400, Note_on_c, 0, 79, 0
2, 125400, Note_on_c, 0, 81, 105
2, 125460, Note_on_c, 0, 81, 0
2, 125460, Note_on_c, 0, 79, 105
2, 125520, Note_on_c, 0, 79, 0
2, 125520, Note_on_c, 0, 78, 105
2, 125640, Note_on_c, 0, 78, 0
2, 125640, Note_on_c, 0, 79, 105
2, 125760, Note_on_c, 0, 79, 0
2, 125760, Note_on_c, 0, 81, 105
2, 126048, Note_on_c, 0, 81, 0
2, 126240, Note_on_c, 0, 78, 105
2, 126528, Note_on_c, 0, 78, 0
2, 126720, Note_on_c, 0, 79, 92
2, 127104, Note_on_c, 0, 79, 0
2, 127104, End_track
3, 0, Start_track
3, 0, Program_c, 0, 48
3, 0, Control_c, 0, 7, 127
3, 0, Control_c, 0, 10, 96
3, 0, Control_c, 0, 91, 85
3, 960, Note_on_c, 0, 62, 105
3, 1248, Note_on_c, 0, 62, 0
3, 1440, Note_on_c, 0, 67, 105
3, 1728, Note_on_c, 0, 67, 0
3, 1920, Note_on_c, 0, 69, 105
3, 2208, Note_on_c, 0, 69, 0
3, 2400, Note_on_c, 0, 71, 105
3, 2688, Note_on_c, 0, 71, 0
3, 2880, Note_on_c, 0, 72, 105
3, 3648, Note_on_c, 0, 72, 0
3, 3840, Note_on_c, 0, 69, 105
3, 4128, Note_on_c, 0, 69, 0
3, 4320, Note_on_c, 0, 71, 105
3, 4608, Note_on_c, 0, 71, 0
3, 4800, Note_on_c, 0, 67, 105
3, 5088, Note_on_c, 0, 67, 0
3, 5280, Note_on_c, 0, 69, 105
3, 5568, Note_on_c, 0, 69, 0
3, 5760, Note_on_c, 0, 67, 105
3, 5952, Note_on_c, 0, 67, 0
3, 6000, Note_on_c, 0, 66, 105
3, 6192, Note_on_c, 0, 66, 0
3, 6240, Note_on_c, 0, 64, 105
3, 6432, Note_on_c, 0, 64, 0
3, 6480, Note_on_c, 0, 62, 105
3, 6672, Note_on_c, 0, 62, 0
3, 6720, Note_on_c, 0, 64, 105
3, 6912, Note_on_c, 0, 64, 0
3, 6960, Note_on_c, 0, 66, 105
3, 7152, Note_on_c, 0, 66, 0
3, 7200, Note_on_c, 0, 67, 105
3, 7488, Note_on_c, 0, 67, 0
3, 7680, Note_on_c, 0, 69, 105
3, 7968, Note_on_c, 0, 69, 0
3, 8160, Note_on_c, 0, 71, 105
3, 8448, Note_on_c, 0, 71, 0
3, 8640, Note_on_c, 0, 72, 105
3, 8928, Note_on_c, 0, 72, 0
3, 9120, Note_on_c, 0, 79, 105
3, 9180, Note_on_c, 0, 79, 0
3, 9180, Note_on_c, 0, 78, 105
3, 9240, Note_on_c, 0, 78, 0
3, 9240, Note_on_c, 0, 79, 105
3, 9300, Note_on_c, 0, 79, 0
3, 9300, Note_on_c, 0, 78, 105
3, 9360, Note_on_c, 0, 78, 0
3, 9360, Note_on_c, 0, 76, 105
3, 9480, Note_on_c, 0, 76, 0
3, 9480, Note_on_c, 0, 78, 105
3, 9600, Note_on_c, 0, 78, 0
3, 9600, Note_on_c, 0, 79, 105
3, 9888, Note_on_c, 0, 79, 0
3, 10080, Note_on_c, 0, 72, 105
3, 10140, Note_on_c, 0, 72, 0
3, 10140, Note_on_c, 0, 71, 105
3, 10200, Note_on_c, 0, 71, 0
3, 10200, Note_on_c, 0, 72, 105
3, 10260, Note_on_c, 0, 72, 0
3, 10260, Note_on_c, 0, 71, 105
3, 10320, Note_on_c, 0, 71, 0
3, 10320, Note_on_c, 0, 69, 105
3, 10440, Note_on_c, 0, 69, 0
3, 10440, Note_on_c, 0, 71, 105
3, 10560, Note_on_c, 0, 71, 0
3, 10560, Note_on_c, 0, 72, 105
3, 10848, Note_on_c, 0, 72, 0
3, 11040, Note_on_c, 0, 69, 105
3, 11328, Note_on_c, 0, 69, 0
3, 11520, Note_on_c, 0, 71, 92
3, 11808, Note_on_c, 0, 71, 0
3, 12480, Note_on_c, 0, 62, 105
3, 12792, Note_on_c, 0, 62, 0
3, 12960, Note_on_c, 0, 67, 105
3, 13248, Note_on_c, 0, 67, 0
3, 13440, Note_on_c, 0, 69, 105
3, 13728, Note_on_c, 0, 69, 0
3, 13920, Note_on_c, 0, 71, 105
3, 14208, Note_on_c, 0, 71, 0
3, 14400, Note_on_c, 0, 72, 105
3, 15168, Note_on_c, 0, 72, 0
3, 15360, Note_on_c, 0, 69, 105
3, 15648, Note_on_c, 0, 69, 0
3, 15840, Note_on_c, 0, 71, 105
3, 16128, Note_on_c, 0, 71, 0
3, 16320, Note_on_c, 0, 67, 105
3, 16608, Note_on_c, 0, 67, 0
3, 16800, Note_on_c, 0, 69, 105
3, 17088, Note_on_c, 0, 69, 0
3, 17280, Note_on_c, 0, 67, 105
3, 17472, Note_on_c, 0, 67, 0
3, 17520, Note_on_c, 0, 66, 105
3, 17712, Note_on_c, 0, 66, 0
3, 17760, Note_on_c, 0, 64, 105
3, 17952, Note_on_c, 0, 64, 0
3, 18000, Note_on_c, 0, 62, 105
3, 18192, Note_on_c, 0, 62, 0
3, 18240, Note_on_c, 0, 64, 105
3, 18432, Note_on_c, 0, 64, 0
3, 18480, Note_on_c, 0, 66, 105
3, 18672, Note_on_c, 0, 66, 0
3, 18720, Note_on_c, 0, 67, 105
3, 19008, Note_on_c, 0, 67, 0
3, 19200, Note_on_c, 0, 69, 105
3, 19488, Note_on_c, 0, 69, 0
3, 19680, Note_on_c, 0, 71, 105
3, 19968, Note_on_c, 0, 71, 0
3, 20160, Note_on_c, 0, 72, 105
3, 20448, Note_on_c, 0, 72, 0
3, 20640, Note_on_c, 0, 79, 105
3, 20700, Note_on_c, 0, 79, 0
3, 20700, Note_on_c, 0, 78, 105
3, 20760, Note_on_c, 0, 78, 0
3, 20760, Note_on_c, 0, 79, 105
3, 20820, Note_on_c, 0, 79, 0
3, 20820, Note_on_c, 0, 78, 105
3, 20880, Note_on_c, 0, 78, 0
3, 20880, Note_on_c, 0, 76, 105
3, 21000, Note_on_c, 0, 76, 0
3, 21000, Note_on_c, 0, 78, 105
3, 21120, Note_on_c, 0, 78, 0
3, 21120, Note_on_c, 0, 79, 105
3, 21408, Note_on_c, 0, 79, 0
3, 21600, Note_on_c, 0, 72, 105
3, 21660, Note_on_c, 0, 72, 0
3, 21660, Note_on_c, 0, 71, 105
3, 21720, Note_on_c, 0, 71, 0
3, 21720, Note_on_c, 0, 72, 105
3, 21780, Note_on_c, 0, 72, 0
3, 21780, Note_on_c, 0, 71, 105
3, 21840, Note_on_c, 0, 71, 0
3, 21840, Note_on_c, 0, 69, 105
3, 21960, Note_on_c, 0, 69, 0
3, 21960, Note_on_c, 0, 71, 105
3, 22080, Note_on_c, 0, 71, 0
3, 22080, Note_on_c, 0, 72, 105
3, 22368, Note_on_c, 0, 72, 0
3, 22560, Note_on_c, 0, 69, 105
3, 22848, Note_on_c, 0, 69, 0
3, 23040, Note_on_c, 0, 71, 92
3, 23328, Note_on_c, 0, 71, 0
3, 24000, Note_on_c, 0, 71, 58
3, 24312, Note_on_c, 0, 71, 0
3, 24480, Note_on_c, 0, 69, 58
3, 24720, Note_on_c, 0, 69, 0
3, 24720, Note_on_c, 0, 67, 58
3, 24960, Note_on_c, 0, 67, 0
3, 24960, Note_on_c, 0, 66, 58
3, 25200, Note_on_c, 0, 66, 0
3, 25200, Note_on_c, 0, 64, 58
3, 25440, Note_on_c, 0, 64, 0
3, 25440, Note_on_c, 0, 63, 58
3, 25680, Note_on_c, 0, 63, 0
3, 25680, Note_on_c, 0, 66, 58
3, 25920, Note_on_c, 0, 66, 0
3, 25920, Note_on_c, 0, 64, 58
3, 26160, Note_on_c, 0, 64, 0
3, 26160, Note_on_c, 0, 66, 58
3, 26400, Note_on_c, 0, 66, 0
3, 26400, Note_on_c, 0, 67, 58
3, 26640, Note_on_c, 0, 67, 0
3, 26640, Note_on_c, 0, 68, 58
3, 26880, Note_on_c, 0, 68, 0
3, 26880, Note_on_c, 0, 71, 58
3, 27120, Note_on_c, 0, 71, 0
3, 27120, Note_on_c, 0, 69, 58
3, 27360, Note_on_c, 0, 69, 0
3, 27360, Note_on_c, 0, 67, 58
3, 27600, Note_on_c, 0, 67, 0
3, 27600, Note_on_c, 0, 66, 58
3, 27840, Note_on_c, 0, 66, 0
3, 27840, Note_on_c, 0, 64, 58
3, 28080, Note_on_c, 0, 64, 0
3, 28080, Note_on_c, 0, 62, 58
3, 28320, Note_on_c, 0, 62, 0
3, 28320, Note_on_c, 0, 61, 58
3, 28560, Note_on_c, 0, 61, 0
3, 28560, Note_on_c, 0, 64, 58
3, 28800, Note_on_c, 0, 64, 0
3, 28800, Note_on_c, 0, 62, 58
3, 29040, Note_on_c, 0, 62, 0
3, 29040, Note_on_c, 0, 64, 58
3, 29280, Note_on_c, 0, 64, 0
3, 29280, Note_on_c, 0, 66, 81
3, 29520, Note_on_c, 0, 66, 0
3, 29520, Note_on_c, 0, 67, 81
3, 29760, Note_on_c, 0, 67, 0
3, 29760, Note_on_c, 0, 69, 92
3, 30000, Note_on_c, 0, 69, 0
3, 30000, Note_on_c, 0, 66, 92
3, 30240, Note_on_c, 0, 66, 0
3, 30240, Note_on_c, 0, 67, 105
3, 30528, Note_on_c, 0, 67, 0
3, 30720, Note_on_c, 0, 69, 105
3, 31008, Note_on_c, 0, 69, 0
3, 31200, Note_on_c, 0, 71, 105
3, 31488, Note_on_c, 0, 71, 0
3, 31680, Note_on_c, 0, 72, 105
3, 31968, Note_on_c, 0, 72, 0
3, 32160, Note_on_c, 0, 79, 105
3, 32220, Note_on_c, 0, 79, 0
3, 32220, Note_on_c, 0, 78, 105
3, 32280, Note_on_c, 0, 78, 0
3, 32280, Note_on_c, 0, 79, 105
3, 32340, Note_on_c, 0, 79, 0
3, 32340, Note_on_c, 0, 78, 105
3, 32400, Note_on_c, 0, 78, 0
3, 32400, Note_on_c, 0, 76, 105
3, 32520, Note_on_c, 0, 76, 0
3, 32520, Note_on_c, 0, 78, 105
3, 32640, Note_on_c, 0, 78, 0
3, 32640, Note_on_c, 0, 79, 105
3, 32928, Note_on_c, 0, 79, 0
3, 33120, Note_on_c, 0, 72, 105
3, 33180, Note_on_c, 0, 72, 0
3, 33180, Note_on_c, 0, 71, 105
3, 33240, Note_on_c, 0, 71, 0
3, 33240, Note_on_c, 0, 72, 105
3, 33300, Note_on_c, 0, 72, 0
3, 33300, Note_on_c, 0, 71, 105
3, 33360, Note_on_c, 0, 71, 0
3, 33360, Note_on_c, 0, 69, 105
3, 33480, Note_on_c, 0, 69, 0
3, 33480, Note_on_c, 0, 71, 105
3, 33600, Note_on_c, 0, 71, 0
3, 33600, Note_on_c, 0, 72, 105
3, 33888, Note_on_c, 0, 72, 0
3, 34080, Note_on_c, 0, 69, 105
3, 34368, Note_on_c, 0, 69, 0
3, 34560, Note_on_c, 0, 71, 92
3, 34848, Note_on_c, 0, 71, 0
3, 35520, Note_on_c, 0, 71, 72
3, 35904, Note_on_c, 0, 71, 0
3, 36000, Note_on_c, 0, 69, 58
3, 36240, Note_on_c, 0, 69, 0
3, 36240, Note_on_c, 0, 67, 58
3, 36480, Note_on_c, 0, 67, 0
3, 36480, Note_on_c, 0, 66, 58
3, 36720, Note_on_c, 0, 66, 0
3, 36720, Note_on_c, 0, 64, 58
3, 36960, Note_on_c, 0, 64, 0
3, 36960, Note_on_c, 0, 63, 58
3, 37200, Note_on_c, 0, 63, 0
3, 37200, Note_on_c, 0, 66, 58
3, 37440, Note_on_c, 0, 66, 0
3, 37440, Note_on_c, 0, 64, 58
3, 37680, Note_on_c, 0, 64, 0
3, 37680, Note_on_c, 0, 66, 58
3, 37920, Note_on_c, 0, 66, 0
3, 37920, Note_on_c, 0, 67, 58
3, 38160, Note_on_c, 0, 67, 0
3, 38160, Note_on_c, 0, 68, 58
3, 38400, Note_on_c, 0, 68, 0
3, 38400, Note_on_c, 0, 71, 58
3, 38640, Note_on_c, 0, 71, 0
3, 38640, Note_on_c, 0, 69, 58
3, 38880, Note_on_c, 0, 69, 0
3, 38880, Note_on_c, 0, 67, 58
3, 39120, Note_on_c, 0, 67, 0
3, 39120, Note_on_c, 0, 66, 58
3, 39360, Note_on_c, 0, 66, 0
3, 39360, Note_on_c, 0, 64, 58
3, 39600, Note_on_c, 0, 64, 0
3, 39600, Note_on_c, 0, 62, 58
3, 39840, Note_on_c, 0, 62, 0
3, 39840, Note_on_c, 0, 61, 58
3, 40080, Note_on_c, 0, 61, 0
3, 40080, Note_on_c, 0, 64, 58
3, 40320, Note_on_c, 0, 64, 0
3, 40320, Note_on_c, 0, 62, 58
3, 40560, Note_on_c, 0, 62, 0
3, 40560, Note_on_c, 0, 64, 58
3, 40800, Note_on_c, 0, 64, 0
3, 40800, Note_on_c, 0, 66, 81
3, 41040, Note_on_c, 0, 66, 0
3, 41040, Note_on_c, 0, 67, 81
3, 41280, Note_on_c, 0, 67, 0
3, 41280, Note_on_c, 0, 69, 92
3, 41520, Note_on_c, 0, 69, 0
3, 41520, Note_on_c, 0, 66, 92
3, 41760, Note_on_c, 0, 66, 0
3, 41760, Note_on_c, 0, 67, 105
3, 42048, Note_on_c, 0, 67, 0
3, 42240, Note_on_c, 0, 69, 105
3, 42528, Note_on_c, 0, 69, 0
3, 42720, Note_on_c, 0, 71, 105
3, 43008, Note_on_c, 0, 71, 0
3, 43200, Note_on_c, 0, 72, 105
3, 43488, Note_on_c, 0, 72, 0
3, 43680, Note_on_c, 0, 79, 105
3, 43740, Note_on_c, 0, 79, 0
3, 43740, Note_on_c, 0, 78, 105
3, 43800, Note_on_c, 0, 78, 0
3, 43800, Note_on_c, 0, 79, 105
3, 43860, Note_on_c, 0, 79, 0
3, 43860, Note_on_c, 0, 78, 105
3, 43920, Note_on_c, 0, 78, 0
3, 43920, Note_on_c, 0, 76, 105
3, 44040, Note_on_c, 0, 76, 0
3, 44040, Note_on_c, 0, 78, 105
3, 44160, Note_on_c, 0, 78, 0
3, 44160, Note_on_c, 0, 79, 105
3, 44448, Note_on_c, 0, 79, 0
3, 44640, Note_on_c, 0, 72, 105
3, 44700, Note_on_c, 0, 72, 0
3, 44700, Note_on_c, 0, 71, 105
3, 44760, Note_on_c, 0, 71, 0
3, 44760, Note_on_c, 0, 72, 105
3, 44820, Note_on_c, 0, 72, 0
3, 44820, Note_on_c, 0, 71, 105
3, 44880, Note_on_c, 0, 71, 0
3, 44880, Note_on_c, 0, 69, 105
3, 45000, Note_on_c, 0, 69, 0
3, 45000, Note_on_c, 0, 71, 105
3, 45120, Note_on_c, 0, 71, 0
3, 45120, Note_on_c, 0, 72, 105
3, 45408, Note_on_c, 0, 72, 0
3, 45600, Note_on_c, 0, 69, 105
3, 45888, Note_on_c, 0, 69, 0
3, 46080, Note_on_c, 0, 71, 92
3, 46464, Note_on_c, 0, 71, 0
3, 47520, Note_on_c, 0, 66, 58
3, 47760, Note_on_c, 0, 66, 0
3, 47760, Note_on_c, 0, 62, 58
3, 48000, Note_on_c, 0, 62, 0
3, 48000, Note_on_c, 0, 66, 58
3, 48240, Note_on_c, 0, 66, 0
3, 48240, Note_on_c, 0, 62, 58
3, 48480, Note_on_c, 0, 62, 0
3, 48480, Note_on_c, 0, 66, 58
3, 48720, Note_on_c, 0, 66, 0
3, 48720, Note_on_c, 0, 62, 58
3, 48912, Note_on_c, 0, 62, 0
3, 48960, Note_on_c, 0, 66, 58
3, 49200, Note_on_c, 0, 66, 0
3, 49200, Note_on_c, 0, 62, 58
3, 49440, Note_on_c, 0, 62, 0
3, 49440, Note_on_c, 0, 66, 58
3, 49680, Note_on_c, 0, 66, 0
3, 49680, Note_on_c, 0, 62, 58
3, 49920, Note_on_c, 0, 62, 0
3, 49920, Note_on_c, 0, 66, 58
3, 50160, Note_on_c, 0, 66, 0
3, 50160, Note_on_c, 0, 62, 58
3, 50352, Note_on_c, 0, 62, 0
3, 50400, Note_on_c, 0, 64, 58
3, 50640, Note_on_c, 0, 64, 0
3, 50640, Note_on_c, 0, 61, 58
3, 50880, Note_on_c, 0, 61, 0
3, 50880, Note_on_c, 0, 64, 58
3, 51120, Note_on_c, 0, 64, 0
3, 51120, Note_on_c, 0, 61, 58
3, 51360, Note_on_c, 0, 61, 0
3, 51360, Note_on_c, 0, 64, 58
3, 51600, Note_on_c, 0, 64, 0
3, 51600, Note_on_c, 0, 61, 58
3, 51840, Note_on_c, 0, 61, 0
3, 51840, Note_on_c, 0, 67, 58
3, 52080, Note_on_c, 0, 67, 0
3, 52080, Note_on_c, 0, 57, 58
3, 52320, Note_on_c, 0, 57, 0
3, 52320, Note_on_c, 0, 67, 58
3, 52560, Note_on_c, 0, 67, 0
3, 52560, Note_on_c, 0, 57, 58
3, 52800, Note_on_c, 0, 57, 0
3, 52800, Note_on_c, 0, 67, 58
3, 53040, Note_on_c, 0, 67, 0
3, 53040, Note_on_c, 0, 57, 58
3, 53232, Note_on_c, 0, 57, 0
3, 53280, Note_on_c, 0, 66, 58
3, 53520, Note_on_c, 0, 66, 0
3, 53520, Note_on_c, 0, 62, 58
3, 53760, Note_on_c, 0, 62, 0
3, 53760, Note_on_c, 0, 66, 58
3, 54000, Note_on_c, 0, 66, 0
3, 54000, Note_on_c, 0, 62, 58
3, 54240, Note_on_c, 0, 62, 0
3, 54240, Note_on_c, 0, 66, 58
3, 54480, Note_on_c, 0, 66, 0
3, 54480, Note_on_c, 0, 62, 58
3, 54672, Note_on_c, 0, 62, 0
3, 54720, Note_on_c, 0, 66, 58
3, 54960, Note_on_c, 0, 66, 0
3, 54960, Note_on_c, 0, 62, 58
3, 55200, Note_on_c, 0, 62, 0
3, 55200, Note_on_c, 0, 66, 58
3, 55440, Note_on_c, 0, 66, 0
3, 55440, Note_on_c, 0, 62, 58
3, 55680, Note_on_c, 0, 62, 0
3, 55680, Note_on_c, 0, 66, 58
3, 55920, Note_on_c, 0, 66, 0
3, 55920, Note_on_c, 0, 62, 58
3, 56112, Note_on_c, 0, 62, 0
3, 56160, Note_on_c, 0, 67, 58
3, 56400, Note_on_c, 0, 67, 0
3, 56400, Note_on_c, 0, 69, 58
3, 56640, Note_on_c, 0, 69, 0
3, 56640, Note_on_c, 0, 71, 58
3, 56880, Note_on_c, 0, 71, 0
3, 56880, Note_on_c, 0, 67, 58
3, 57120, Note_on_c, 0, 67, 0
3, 57120, Note_on_c, 0, 64, 58
3, 57360, Note_on_c, 0, 64, 0
3, 57360, Note_on_c, 0, 67, 58
3, 57600, Note_on_c, 0, 67, 0
3, 57600, Note_on_c, 0, 66, 58
3, 57984, Note_on_c, 0, 66, 0
3, 59040, Note_on_c, 0, 66, 58
3, 59280, Note_on_c, 0, 66, 0
3, 59280, Note_on_c, 0, 62, 58
3, 59520, Note_on_c, 0, 62, 0
3, 59520, Note_on_c, 0, 66, 58
3, 59760, Note_on_c, 0, 66, 0
3, 59760, Note_on_c, 0, 62, 58
3, 60000, Note_on_c, 0, 62, 0
3, 60000, Note_on_c, 0, 66, 58
3, 60240, Note_on_c, 0, 66, 0
3, 60240, Note_on_c, 0, 62, 58
3, 60432, Note_on_c, 0, 62, 0
3, 60480, Note_on_c, 0, 66, 58
3, 60720, Note_on_c, 0, 66, 0
3, 60720, Note_on_c, 0, 62, 58
3, 60960, Note_on_c, 0, 62, 0
3, 60960, Note_on_c, 0, 66, 58
3, 61200, Note_on_c, 0, 66, 0
3, 61200, Note_on_c, 0, 62, 58
3, 61440, Note_on_c, 0, 62, 0
3, 61440, Note_on_c, 0, 66, 58
3, 61680, Note_on_c, 0, 66, 0
3, 61680, Note_on_c, 0, 62, 58
3, 61872, Note_on_c, 0, 62, 0
3, 61920, Note_on_c, 0, 64, 58
3, 62160, Note_on_c, 0, 64, 0
3, 62160, Note_on_c, 0, 61, 58
3, 62400, Note_on_c, 0, 61, 0
3, 62400, Note_on_c, 0, 64, 58
3, 62640, Note_on_c, 0, 64, 0
3, 62640, Note_on_c, 0, 61, 58
3, 62880, Note_on_c, 0, 61, 0
3, 62880, Note_on_c, 0, 64, 58
3, 63120, Note_on_c, 0, 64, 0
3, 63120, Note_on_c, 0, 61, 58
3, 63360, Note_on_c, 0, 61, 0
3, 63360, Note_on_c, 0, 67, 58
3, 63600, Note_on_c, 0, 67, 0
3, 63600, Note_on_c, 0, 57, 58
3, 63840, Note_on_c, 0, 57, 0
3, 63840, Note_on_c, 0, 67, 58
3, 64080, Note_on_c, 0, 67, 0
3, 64080, Note_on_c, 0, 57, 58
3, 64320, Note_on_c, 0, 57, 0
3, 64320, Note_on_c, 0, 67, 58
3, 64560, Note_on_c, 0, 67, 0
3, 64560, Note_on_c, 0, 57, 58
3, 64752, Note_on_c, 0, 57, 0
3, 64800, Note_on_c, 0, 66, 58
3, 65040, Note_on_c, 0, 66, 0
3, 65040, Note_on_c, 0, 62, 58
3, 65280, Note_on_c, 0, 62, 0
3, 65280, Note_on_c, 0, 66, 58
3, 65520, Note_on_c, 0, 66, 0
3, 65520, Note_on_c, 0, 62, 58
3, 65760, Note_on_c, 0, 62, 0
3, 65760, Note_on_c, 0, 66, 58
3, 66000, Note_on_c, 0, 66, 0
3, 66000, Note_on_c, 0, 62, 58
3, 66192, Note_on_c, 0, 62, 0
3, 66240, Note_on_c, 0, 66, 58
3, 66480, Note_on_c, 0, 66, 0
3, 66480, Note_on_c, 0, 62, 58
3, 66720, Note_on_c, 0, 62, 0
3, 66720, Note_on_c, 0, 66, 58
3, 66960, Note_on_c, 0, 66, 0
3, 66960, Note_on_c, 0, 62, 58
3, 67200, Note_on_c, 0, 62, 0
3, 67200, Note_on_c, 0, 66, 58
3, 67440, Note_on_c, 0, 66, 0
3, 67440, Note_on_c, 0, 62, 58
3, 67632, Note_on_c, 0, 62, 0
3, 67680, Note_on_c, 0, 67, 58
3, 67920, Note_on_c, 0, 67, 0
3, 67920, Note_on_c, 0, 69, 58
3, 68160, Note_on_c, 0, 69, 0
3, 68160, Note_on_c, 0, 71, 58
3, 68400, Note_on_c, 0, 71, 0
3, 68400, Note_on_c, 0, 67, 58
3, 68640, Note_on_c, 0, 67, 0
3, 68640, Note_on_c, 0, 64, 58
3, 68880, Note_on_c, 0, 64, 0
3, 68880, Note_on_c, 0, 67, 58
3, 69120, Note_on_c, 0, 67, 0
3, 69120, Note_on_c, 0, 66, 58
3, 69504, Note_on_c, 0, 66, 0
3, 70080, Note_on_c, 0, 61, 105
3, 70320, Note_on_c, 0, 61, 0
3, 70320, Note_on_c, 0, 62, 105
3, 70560, Note_on_c, 0, 62, 0
3, 70560, Note_on_c, 0, 64, 105
3, 70800, Note_on_c, 0, 64, 0
3, 70800, Note_on_c, 0, 66, 105
3, 71040, Note_on_c, 0, 66, 0
3, 71040, Note_on_c, 0, 67, 105
3, 71280, Note_on_c, 0, 67, 0
3, 71280, Note_on_c, 0, 69, 105
3, 71520, Note_on_c, 0, 69, 0
3, 71520, Note_on_c, 0, 71, 105
3, 71760, Note_on_c, 0, 71, 0
3, 71760, Note_on_c, 0, 69, 105
3, 72000, Note_on_c, 0, 69, 0
3, 72000, Note_on_c, 0, 67, 105
3, 72240, Note_on_c, 0, 67, 0
3, 72240, Note_on_c, 0, 66, 105
3, 72480, Note_on_c, 0, 66, 0
3, 72480, Note_on_c, 0, 64, 105
3, 72720, Note_on_c, 0, 64, 0
3, 72720, Note_on_c, 0, 62, 105
3, 72912, Note_on_c, 0, 62, 0
3, 72960, Note_on_c, 0, 64, 105
3, 73200, Note_on_c, 0, 64, 0
3, 73200, Note_on_c, 0, 66, 105
3, 73440, Note_on_c, 0, 66, 0
3, 73440, Note_on_c, 0, 68, 105
3, 73680, Note_on_c, 0, 68, 0
3, 73680, Note_on_c, 0, 69, 105
3, 73920, Note_on_c, 0, 69, 0
3, 73920, Note_on_c, 0, 71, 105
3, 74160, Note_on_c, 0, 71, 0
3, 74160, Note_on_c, 0, 73, 105
3, 74400, Note_on_c, 0, 73, 0
3, 74400, Note_on_c, 0, 74, 105
3, 74640, Note_on_c, 0, 74, 0
3, 74640, Note_on_c, 0, 71, 105
3, 74880, Note_on_c, 0, 71, 0
3, 74880, Note_on_c, 0, 69, 105
3, 75120, Note_on_c, 0, 69, 0
3, 75120, Note_on_c, 0, 67, 105
3, 75360, Note_on_c, 0, 67, 0
3, 75360, Note_on_c, 0, 66, 58
3, 75600, Note_on_c, 0, 66, 0
3, 75600, Note_on_c, 0, 64, 58
3, 75840, Note_on_c, 0, 64, 0
3, 75840, Note_on_c, 0, 62, 58
3, 76080, Note_on_c, 0, 62, 0
3, 76080, Note_on_c, 0, 64, 58
3, 76272, Note_on_c, 0, 64, 0
3, 76320, Note_on_c, 0, 66, 58
3, 76560, Note_on_c, 0, 66, 0
3, 76560, Note_on_c, 0, 62, 58
3, 76800, Note_on_c, 0, 62, 0
3, 76800, Note_on_c, 0, 66, 58
3, 77040, Note_on_c, 0, 66, 0
3, 77040, Note_on_c, 0, 62, 58
3, 77280, Note_on_c, 0, 62, 0
3, 77280, Note_on_c, 0, 66, 58
3, 77520, Note_on_c, 0, 66, 0
3, 77520, Note_on_c, 0, 62, 58
3, 77712, Note_on_c, 0, 62, 0
3, 77760, Note_on_c, 0, 66, 58
3, 78000, Note_on_c, 0, 66, 0
3, 78000, Note_on_c, 0, 62, 58
3, 78240, Note_on_c, 0, 62, 0
3, 78240, Note_on_c, 0, 66, 58
3, 78480, Note_on_c, 0, 66, 0
3, 78480, Note_on_c, 0, 62, 58
3, 78720, Note_on_c, 0, 62, 0
3, 78720, Note_on_c, 0, 66, 58
3, 78960, Note_on_c, 0, 66, 0
3, 78960, Note_on_c, 0, 62, 58
3, 79152, Note_on_c, 0, 62, 0
3, 79200, Note_on_c, 0, 64, 58
3, 79440, Note_on_c, 0, 64, 0
3, 79440, Note_on_c, 0, 61, 58
3, 79680, Note_on_c, 0, 61, 0
3, 79680, Note_on_c, 0, 64, 58
3, 79920, Note_on_c, 0, 64, 0
3, 79920, Note_on_c, 0, 61, 58
3, 80160, Note_on_c, 0, 61, 0
3, 80160, Note_on_c, 0, 64, 58
3, 80400, Note_on_c, 0, 64, 0
3, 80400, Note_on_c, 0, 61, 58
3, 80640, Note_on_c, 0, 61, 0
3, 80640, Note_on_c, 0, 67, 58
3, 80880, Note_on_c, 0, 67, 0
3, 80880, Note_on_c, 0, 57, 58
3, 81120, Note_on_c, 0, 57, 0
3, 81120, Note_on_c, 0, 67, 58
3, 81360, Note_on_c, 0, 67, 0
3, 81360, Note_on_c, 0, 57, 58
3, 81600, Note_on_c, 0, 57, 0
3, 81600, Note_on_c, 0, 67, 58
3, 81840, Note_on_c, 0, 67, 0
3, 81840, Note_on_c, 0, 57, 58
3, 82032, Note_on_c, 0, 57, 0
3, 82080, Note_on_c, 0, 66, 58
3, 82320, Note_on_c, 0, 66, 0
3, 82320, Note_on_c, 0, 62, 58
3, 82560, Note_on_c, 0, 62, 0
3, 82560, Note_on_c, 0, 66, 58
3, 82800, Note_on_c, 0, 66, 0
3, 82800, Note_on_c, 0, 62, 58
3, 83040, Note_on_c, 0, 62, 0
3, 83040, Note_on_c, 0, 66, 58
3, 83280, Note_on_c, 0, 66, 0
3, 83280, Note_on_c, 0, 62, 58
3, 83472, Note_on_c, 0, 62, 0
3, 83520, Note_on_c, 0, 66, 58
3, 83760, Note_on_c, 0, 66, 0
3, 83760, Note_on_c, 0, 62, 58
3, 84000, Note_on_c, 0, 62, 0
3, 84000, Note_on_c, 0, 66, 58
3, 84240, Note_on_c, 0, 66, 0
3, 84240, Note_on_c, 0, 62, 58
3, 84480, Note_on_c, 0, 62, 0
3, 84480, Note_on_c, 0, 66, 58
3, 84720, Note_on_c, 0, 66, 0
3, 84720, Note_on_c, 0, 62, 58
3, 84912, Note_on_c, 0, 62, 0
3, 84960, Note_on_c, 0, 67, 58
3, 85200, Note_on_c, 0, 67, 0
3, 85200, Note_on_c, 0, 69, 58
3, 85440, Note_on_c, 0, 69, 0
3, 85440, Note_on_c, 0, 71, 58
3, 85680, Note_on_c, 0, 71, 0
3, 85680, Note_on_c, 0, 67, 58
3, 85920, Note_on_c, 0, 67, 0
3, 85920, Note_on_c, 0, 64, 58
3, 86160, Note_on_c, 0, 64, 0
3, 86160, Note_on_c, 0, 67, 58
3, 86400, Note_on_c, 0, 67, 0
3, 86400, Note_on_c, 0, 66, 58
3, 86784, Note_on_c, 0, 66, 0
3, 87360, Note_on_c, 0, 61, 105
3, 87600, Note_on_c, 0, 61, 0
3, 87600, Note_on_c, 0, 62, 105
3, 87840, Note_on_c, 0, 62, 0
3, 87840, Note_on_c, 0, 64, 105
3, 88080, Note_on_c, 0, 64, 0
3, 88080, Note_on_c, 0, 66, 105
3, 88320, Note_on_c, 0, 66, 0
3, 88320, Note_on_c, 0, 67, 105
3, 88560, Note_on_c, 0, 67, 0
3, 88560, Note_on_c, 0, 69, 105
3, 88800, Note_on_c, 0, 69, 0
3, 88800, Note_on_c, 0, 71, 105
3, 89040, Note_on_c, 0, 71, 0
3, 89040, Note_on_c, 0, 69, 105
3, 89280, Note_on_c, 0, 69, 0
3, 89280, Note_on_c, 0, 67, 105
3, 89520, Note_on_c, 0, 67, 0
3, 89520, Note_on_c, 0, 66, 105
3, 89760, Note_on_c, 0, 66, 0
3, 89760, Note_on_c, 0, 64, 105
3, 90000, Note_on_c, 0, 64, 0
3, 90000, Note_on_c, 0, 62, 105
3, 90192, Note_on_c, 0, 62, 0
3, 90240, Note_on_c, 0, 64, 105
3, 90480, Note_on_c, 0, 64, 0
3, 90480, Note_on_c, 0, 66, 105
3, 90720, Note_on_c, 0, 66, 0
3, 90720, Note_on_c, 0, 68, 105
3, 90960, Note_on_c, 0, 68, 0
3, 90960, Note_on_c, 0, 69, 105
3, 91200, Note_on_c, 0, 69, 0
3, 91200, Note_on_c, 0, 71, 105
3, 91440, Note_on_c, 0, 71, 0
3, 91440, Note_on_c, 0, 73, 105
3, 91680, Note_on_c, 0, 73, 0
3, 91680, Note_on_c, 0, 74, 105
3, 91920, Note_on_c, 0, 74, 0
3, 91920, Note_on_c, 0, 71, 105
3, 92160, Note_on_c, 0, 71, 0
3, 92160, Note_on_c, 0, 69, 105
3, 92400, Note_on_c, 0, 69, 0
3, 92400, Note_on_c, 0, 67, 105
3, 92640, Note_on_c, 0, 67, 0
3, 92640, Note_on_c, 0, 66, 58
3, 92880, Note_on_c, 0, 66, 0
3, 92880, Note_on_c, 0, 64, 58
3, 93120, Note_on_c, 0, 64, 0
3, 93120, Note_on_c, 0, 62, 58
3, 93360, Note_on_c, 0, 62, 0
3, 93360, Note_on_c, 0, 64, 58
3, 93552, Note_on_c, 0, 64, 0
3, 93600, Note_on_c, 0, 66, 58
3, 93840, Note_on_c, 0, 66, 0
3, 93840, Note_on_c, 0, 62, 58
3, 94080, Note_on_c, 0, 62, 0
3, 94080, Note_on_c, 0, 66, 58
3, 94320, Note_on_c, 0, 66, 0
3, 94320, Note_on_c, 0, 62, 58
3, 94560, Note_on_c, 0, 62, 0
3, 94560, Note_on_c, 0, 66, 58
3, 94800, Note_on_c, 0, 66, 0
3, 94800, Note_on_c, 0, 62, 58
3, 94992, Note_on_c, 0, 62, 0
3, 95040, Note_on_c, 0, 66, 58
3, 95280, Note_on_c, 0, 66, 0
3, 95280, Note_on_c, 0, 62, 58
3, 95520, Note_on_c, 0, 62, 0
3, 95520, Note_on_c, 0, 66, 58
3, 95760, Note_on_c, 0, 66, 0
3, 95760, Note_on_c, 0, 62, 58
3, 96000, Note_on_c, 0, 62, 0
3, 96000, Note_on_c, 0, 66, 58
3, 96240, Note_on_c, 0, 66, 0
3, 96240, Note_on_c, 0, 62, 58
3, 96432, Note_on_c, 0, 62, 0
3, 96480, Note_on_c, 0, 64, 58
3, 96720, Note_on_c, 0, 64, 0
3, 96720, Note_on_c, 0, 61, 58
3, 96960, Note_on_c, 0, 61, 0
3, 96960, Note_on_c, 0, 64, 58
3, 97200, Note_on_c, 0, 64, 0
3, 97200, Note_on_c, 0, 61, 58
3, 97440, Note_on_c, 0, 61, 0
3, 97440, Note_on_c, 0, 64, 58
3, 97680, Note_on_c, 0, 64, 0
3, 97680, Note_on_c, 0, 61, 58
3, 97920, Note_on_c, 0, 61, 0
3, 97920, Note_on_c, 0, 67, 58
3, 98160, Note_on_c, 0, 67, 0
3, 98160, Note_on_c, 0, 57, 58
3, 98400, Note_on_c, 0, 57, 0
3, 98400, Note_on_c, 0, 67, 58
3, 98640, Note_on_c, 0, 67, 0
3, 98640, Note_on_c, 0, 57, 58
3, 98880, Note_on_c, 0, 57, 0
3, 98880, Note_on_c, 0, 67, 58
3, 99120, Note_on_c, 0, 67, 0
3, 99120, Note_on_c, 0, 57, 58
3, 99312, Note_on_c, 0, 57, 0
3, 99360, Note_on_c, 0, 66, 58
3, 99600, Note_on_c, 0, 66, 0
3, 99600, Note_on_c, 0, 62, 58
3, 99840, Note_on_c, 0, 62, 0
3, 99840, Note_on_c, 0, 66, 58
3, 100080, Note_on_c, 0, 66, 0
3, 100080, Note_on_c, 0, 62, 58
3, 100320, Note_on_c, 0, 62, 0
3, 100320, Note_on_c, 0, 66, 58
3, 100560, Note_on_c, 0, 66, 0
3, 100560, Note_on_c, 0, 62, 58
3, 100752, Note_on_c, 0, 62, 0
3, 100800, Note_on_c, 0, 66, 58
3, 101040, Note_on_c, 0, 66, 0
3, 101040, Note_on_c, 0, 62, 58
3, 101280, Note_on_c, 0, 62, 0
3, 101280, Note_on_c, 0, 66, 58
3, 101520, Note_on_c, 0, 66, 0
3, 101520, Note_on_c, 0, 62, 58
3, 101760, Note_on_c, 0, 62, 0
3, 101760, Note_on_c, 0, 66, 58
3, 102000, Note_on_c, 0, 66, 0
3, 102000, Note_on_c, 0, 62, 58
3, 102192, Note_on_c, 0, 62, 0
3, 102240, Note_on_c, 0, 67, 58
3, 102480, Note_on_c, 0, 67, 0
3, 102480, Note_on_c, 0, 69, 58
3, 102720, Note_on_c, 0, 69, 0
3, 102720, Note_on_c, 0, 71, 58
3, 102960, Note_on_c, 0, 71, 0
3, 102960, Note_on_c, 0, 67, 58
3, 103200, Note_on_c, 0, 67, 0
3, 103200, Note_on_c, 0, 64, 58
3, 103440, Note_on_c, 0, 64, 0
3, 103440, Note_on_c, 0, 67, 58
3, 103680, Note_on_c, 0, 67, 0
3, 103680, Note_on_c, 0, 66, 58
3, 104064, Note_on_c, 0, 66, 0
3, 104640, Note_on_c, 0, 62, 105
3, 104928, Note_on_c, 0, 62, 0
3, 105120, Note_on_c, 0, 67, 105
3, 105408, Note_on_c, 0, 67, 0
3, 105600, Note_on_c, 0, 69, 105
3, 105888, Note_on_c, 0, 69, 0
3, 106080, Note_on_c, 0, 71, 105
3, 106368, Note_on_c, 0, 71, 0
3, 106560, Note_on_c, 0, 72, 105
3, 107328, Note_on_c, 0, 72, 0
3, 107520, Note_on_c, 0, 69, 105
3, 107808, Note_on_c, 0, 69, 0
3, 108000, Note_on_c, 0, 71, 105
3, 108288, Note_on_c, 0, 71, 0
3, 108480, Note_on_c, 0, 67, 105
3, 108768, Note_on_c, 0, 67, 0
3, 108960, Note_on_c, 0, 69, 105
3, 109248, Note_on_c, 0, 69, 0
3, 109440, Note_on_c, 0, 67, 105
3, 109632, Note_on_c, 0, 67, 0
3, 109680, Note_on_c, 0, 66, 105
3, 109872, Note_on_c, 0, 66, 0
3, 109920, Note_on_c, 0, 64, 105
3, 110112, Note_on_c, 0, 64, 0
3, 110160, Note_on_c, 0, 62, 105
3, 110352, Note_on_c, 0, 62, 0
3, 110400, Note_on_c, 0, 64, 105
3, 110592, Note_on_c, 0, 64, 0
3, 110640, Note_on_c, 0, 66, 105
3, 110832, Note_on_c, 0, 66, 0
3, 110880, Note_on_c, 0, 67, 105
3, 111168, Note_on_c, 0, 67, 0
3, 111360, Note_on_c, 0, 69, 105
3, 111648, Note_on_c, 0, 69, 0
3, 111840, Note_on_c, 0, 71, 105
3, 112128, Note_on_c, 0, 71, 0
3, 112320, Note_on_c, 0, 72, 105
3, 112608, Note_on_c, 0, 72, 0
3, 112800, Note_on_c, 0, 79, 105
3, 112860, Note_on_c, 0, 79, 0
3, 112860, Note_on_c, 0, 78, 105
3, 112920, Note_on_c, 0, 78, 0
3, 112920, Note_on_c, 0, 79, 105
3, 112980, Note_on_c, 0, 79, 0
3, 112980, Note_on_c, 0, 78, 105
3, 113040, Note_on_c, 0, 78, 0
3, 113040, Note_on_c, 0, 76, 105
3, 113160, Note_on_c, 0, 76, 0
3, 113160, Note_on_c, 0, 78, 105
3, 113280, Note_on_c, 0, 78, 0
3, 113280, Note_on_c, 0, 79, 105
3, 113568, Note_on_c, 0, 79, 0
3, 113760, Note_on_c, 0, 72, 105
3, 113820, Note_on_c, 0, 72, 0
3, 113820, Note_on_c, 0, 71, 105
3, 113880, Note_on_c, 0, 71, 0
3, 113880, Note_on_c, 0, 72, 105
3, 113940, Note_on_c, 0, 72, 0
3, 113940, Note_on_c, 0, 71, 105
3, 114000, Note_on_c, 0, 71, 0
3, 114000, Note_on_c, 0, 69, 105
3, 114120, Note_on_c, 0, 69, 0
3, 114120, Note_on_c, 0, 71, 105
3, 114240, Note_on_c, 0, 71, 0
3, 114240, Note_on_c, 0, 72, 105
3, 114528, Note_on_c, 0, 72, 0
3, 114720, Note_on_c, 0, 69, 105
3, 115008, Note_on_c, 0, 69, 0
3, 115200, Note_on_c, 0, 71, 92
3, 115488, Note_on_c, 0, 71, 0
3, 116160, Note_on_c, 0, 71, 58
3, 116472, Note_on_c, 0, 71, 0
3, 116640, Note_on_c, 0, 69, 58
3, 116880, Note_on_c, 0, 69, 0
3, 116880, Note_on_c, 0, 67, 58
3, 117120, Note_on_c, 0, 67, 0
3, 117120, Note_on_c, 0, 66, 58
3, 117360, Note_on_c, 0, 66, 0
3, 117360, Note_on_c, 0, 64, 58
3, 117600, Note_on_c, 0, 64, 0
3, 117600, Note_on_c, 0, 63, 58
3, 117840, Note_on_c, 0, 63, 0
3, 117840, Note_on_c, 0, 66, 58
3, 118080, Note_on_c, 0, 66, 0
3, 118080, Note_on_c, 0, 64, 58
3, 118320, Note_on_c, 0, 64, 0
3, 118320, Note_on_c, 0, 66, 58
3, 118560, Note_on_c, 0, 66, 0
3, 118560, Note_on_c, 0, 67, 58
3, 118800, Note_on_c, 0, 67, 0
3, 118800, Note_on_c, 0, 68, 58
3, 119040, Note_on_c, 0, 68, 0
3, 119040, Note_on_c, 0, 71, 58
3, 119280, Note_on_c, 0, 71, 0
3, 119280, Note_on_c, 0, 69, 58
3, 119520, Note_on_c, 0, 69, 0
3, 119520, Note_on_c, 0, 67, 58
3, 119760, Note_on_c, 0, 67, 0
3, 119760, Note_on_c, 0, 66, 58
3, 120000, Note_on_c, 0, 66, 0
3, 120000, Note_on_c, 0, 64, 58
3, 120240, Note_on_c, 0, 64, 0
3, 120240, Note_on_c, 0, 62, 58
3, 120480, Note_on_c, 0, 62, 0
3, 120480, Note_on_c, 0, 61, 58
3, 120720, Note_on_c, 0, 61, 0
3, 120720, Note_on_c, 0, 64, 58
3, 120960, Note_on_c, 0, 64, 0
3, 120960, Note_on_c, 0, 62, 58
3, 121200, Note_on_c, 0, 62, 0
3, 121200, Note_on_c, 0, 64, 58
3, 121440, Note_on_c, 0, 64, 0
3, 121440, Note_on_c, 0, 66, 81
3, 121680, Note_on_c, 0, 66, 0
3, 121680, Note_on_c, 0, 67, 81
3, 121920, Note_on_c, 0, 67, 0
3, 121920, Note_on_c, 0, 69, 92
3, 122160, Note_on_c, 0, 69, 0
3, 122160, Note_on_c, 0, 66, 92
3, 122400, Note_on_c, 0, 66, 0
3, 122400, Note_on_c, 0, 67, 105
3, 122688, Note_on_c, 0, 67, 0
3, 122880, Note_on_c, 0, 69, 105
3, 123168, Note_on_c, 0, 69, 0
3, 123360, Note_on_c, 0, 71, 105
3, 123648, Note_on_c, 0, 71, 0
3, 123840, Note_on_c, 0, 72, 105
3, 124128, Note_on_c, 0, 72, 0
3, 124320, Note_on_c, 0, 79, 105
3, 124380, Note_on_c, 0, 79, 0
3, 124380, Note_on_c, 0, 78, 105
3, 124440, Note_on_c, 0, 78, 0
3, 124440, Note_on_c, 0, 79, 105
3, 124500, Note_on_c, 0, 79, 0
3, 124500, Note_on_c, 0, 78, 105
3, 124560, Note_on_c, 0, 78, 0
3, 124560, Note_on_c, 0, 76, 105
3, 124680, Note_on_c, 0, 76, 0
3, 124680, Note_on_c, 0, 78, 105
3, 124800, Note_on_c, 0, 78, 0
3, 124800, Note_on_c, 0, 79, 105
3, 125088, Note_on_c, 0, 79, 0
3, 125280, Note_on_c, 0, 72, 105
3, 125340, Note_on_c, 0, 72, 0
3, 125340, Note_on_c, 0, 71, 105
3, 125400, Note_on_c, 0, 71, 0
3, 125400, Note_on_c, 0, 72, 105
3, 125460, Note_on_c, 0, 72, 0
3, 125460, Note_on_c, 0, 71, 105
3, 125520, Note_on_c, 0, 71, 0
3, 125520, Note_on_c, 0, 69, 105
3, 125640, Note_on_c, 0, 69, 0
3, 125640, Note_on_c, 0, 71, 105
3, 125760, Note_on_c, 0, 71, 0
3, 125760, Note_on_c, 0, 72, 105
3, 126048, Note_on_c, 0, 72, 0
3, 126240, Note_on_c, 0, 69, 105
3, 126528, Note_on_c, 0, 69, 0
3, 126720, Note_on_c, 0, 71, 92
3, 127104, Note_on_c, 0, 71, 0
3, 127104, End_track
4, 0, Start_track
4, 0, Program_c, 0, 48
4, 0, Control_c, 0, 7, 127
4, 0, Control_c, 0, 10, 30
4, 0, Control_c, 0, 91, 85
4, 1440, Note_on_c, 0, 71, 105
4, 1728, Note_on_c, 0, 71, 0
4, 1920, Note_on_c, 0, 66, 105
4, 2208, Note_on_c, 0, 66, 0
4, 2400, Note_on_c, 0, 67, 105
4, 2688, Note_on_c, 0, 67, 0
4, 2880, Note_on_c, 0, 69, 105
4, 3168, Note_on_c, 0, 69, 0
4, 3360, Note_on_c, 0, 64, 105
4, 3648, Note_on_c, 0, 64, 0
4, 3840, Note_on_c, 0, 66, 105
4, 4128, Note_on_c, 0, 66, 0
4, 4320, Note_on_c, 0, 67, 105
4, 4608, Note_on_c, 0, 67, 0
4, 4800, Note_on_c, 0, 64, 105
4, 5088, Note_on_c, 0, 64, 0
4, 5280, Note_on_c, 0, 61, 105
4, 5568, Note_on_c, 0, 61, 0
4, 5760, Note_on_c, 0, 62, 105
4, 6000, Note_on_c, 0, 62, 0
4, 6000, Note_on_c, 0, 69, 105
4, 6240, Note_on_c, 0, 69, 0
4, 6240, Note_on_c, 0, 67, 105
4, 6480, Note_on_c, 0, 67, 0
4, 6480, Note_on_c, 0, 66, 105
4, 6720, Note_on_c, 0, 66, 0
4, 6720, Note_on_c, 0, 67, 105
4, 6960, Note_on_c, 0, 67, 0
4, 6960, Note_on_c, 0, 69, 105
4, 7152, Note_on_c, 0, 69, 0
4, 7200, Note_on_c, 0, 71, 105
4, 7488, Note_on_c, 0, 71, 0
4, 7680, Note_on_c, 0, 72, 105
4, 7968, Note_on_c, 0, 72, 0
4, 8160, Note_on_c, 0, 71, 105
4, 8400, Note_on_c, 0, 71, 0
4, 8400, Note_on_c, 0, 67, 105
4, 8592, Note_on_c, 0, 67, 0
4, 8640, Note_on_c, 0, 66, 105
4, 8928, Note_on_c, 0, 66, 0
4, 9120, Note_on_c, 0, 72, 105
4, 9408, Note_on_c, 0, 72, 0
4, 9600, Note_on_c, 0, 71, 105
4, 9888, Note_on_c, 0, 71, 0
4, 10560, Note_on_c, 0, 64, 105
4, 10848, Note_on_c, 0, 64, 0
4, 11040, Note_on_c, 0, 60, 105
4, 11040, Note_on_c, 0, 62, 105
4, 11328, Note_on_c, 0, 62, 0
4, 11328, Note_on_c, 0, 60, 0
4, 11520, Note_on_c, 0, 59, 92
4, 11520, Note_on_c, 0, 62, 92
4, 11808, Note_on_c, 0, 62, 0
4, 11808, Note_on_c, 0, 59, 0
4, 12960, Note_on_c, 0, 71, 105
4, 13248, Note_on_c, 0, 71, 0
4, 13440, Note_on_c, 0, 66, 105
4, 13728, Note_on_c, 0, 66, 0
4, 13920, Note_on_c, 0, 67, 105
4, 14208, Note_on_c, 0, 67, 0
4, 14400, Note_on_c, 0, 69, 105
4, 14688, Note_on_c, 0, 69, 0
4, 14880, Note_on_c, 0, 64, 105
4, 15168, Note_on_c, 0, 64, 0
4, 15360, Note_on_c, 0, 66, 105
4, 15648, Note_on_c, 0, 66, 0
4, 15840, Note_on_c, 0, 67, 105
4, 16128, Note_on_c, 0, 67, 0
4, 16320, Note_on_c, 0, 64, 105
4, 16608, Note_on_c, 0, 64, 0
4, 16800, Note_on_c, 0, 61, 105
4, 17088, Note_on_c, 0, 61, 0
4, 17280, Note_on_c, 0, 62, 105
4, 17520, Note_on_c, 0, 62, 0
4, 17520, Note_on_c, 0, 69, 105
4, 17760, Note_on_c, 0, 69, 0
4, 17760, Note_on_c, 0, 67, 105
4, 18000, Note_on_c, 0, 67, 0
4, 18000, Note_on_c, 0, 66, 105
4, 18240, Note_on_c, 0, 66, 0
4, 18240, Note_on_c, 0, 67, 105
4, 18480, Note_on_c, 0, 67, 0
4, 18480, Note_on_c, 0, 69, 105
4, 18672, Note_on_c, 0, 69, 0
4, 18720, Note_on_c, 0, 71, 105
4, 19008, Note_on_c, 0, 71, 0
4, 19200, Note_on_c, 0, 72, 105
4, 19488, Note_on_c, 0, 72, 0
4, 19680, Note_on_c, 0, 71, 105
4, 19920, Note_on_c, 0, 71, 0
4, 19920, Note_on_c, 0, 67, 105
4, 20112, Note_on_c, 0, 67, 0
4, 20160, Note_on_c, 0, 66, 105
4, 20448, Note_on_c, 0, 66, 0
4, 20640, Note_on_c, 0, 72, 105
4, 20928, Note_on_c, 0, 72, 0
4, 21120, Note_on_c, 0, 71, 105
4, 21408, Note_on_c, 0, 71, 0
4, 22080, Note_on_c, 0, 64, 105
4, 22368, Note_on_c, 0, 64, 0
4, 22560, Note_on_c, 0, 60, 105
4, 22560, Note_on_c, 0, 62, 105
4, 22848, Note_on_c, 0, 62, 0
4, 22848, Note_on_c, 0, 60, 0
4, 23040, Note_on_c, 0, 59, 92
4, 23040, Note_on_c, 0, 62, 92
4, 23328, Note_on_c, 0, 62, 0
4, 23328, Note_on_c, 0, 59, 0
4, 25440, Note_on_c, 0, 60, 58
4, 25728, Note_on_c, 0, 60, 0
4, 25920, Note_on_c, 0, 59, 58
4, 26400, Note_on_c, 0, 59, 0
4, 26400, Note_on_c, 0, 55, 58
4, 26688, Note_on_c, 0, 55, 0
4, 28320, Note_on_c, 0, 58, 58
4, 28608, Note_on_c, 0, 58, 0
4, 28800, Note_on_c, 0, 57, 72
4, 29040, Note_on_c, 0, 57, 0
4, 29040, Note_on_c, 0, 61, 72
4, 29280, Note_on_c, 0, 61, 0
4, 29280, Note_on_c, 0, 62, 72
4, 29520, Note_on_c, 0, 62, 0
4, 29520, Note_on_c, 0, 64, 81
4, 29760, Note_on_c, 0, 64, 0
4, 29760, Note_on_c, 0, 66, 81
4, 30000, Note_on_c, 0, 66, 0
4, 30000, Note_on_c, 0, 62, 92
4, 30240, Note_on_c, 0, 62, 0
4, 30240, Note_on_c, 0, 74, 105
4, 30528, Note_on_c, 0, 74, 0
4, 30720, Note_on_c, 0, 66, 105
4, 31008, Note_on_c, 0, 66, 0
4, 31200, Note_on_c, 0, 67, 105
4, 31488, Note_on_c, 0, 67, 0
4, 31680, Note_on_c, 0, 69, 105
4, 31968, Note_on_c, 0, 69, 0
4, 32160, Note_on_c, 0, 72, 105
4, 32640, Note_on_c, 0, 72, 0
4, 32640, Note_on_c, 0, 71, 105
4, 32928, Note_on_c, 0, 71, 0
4, 33600, Note_on_c, 0, 64, 105
4, 33888, Note_on_c, 0, 64, 0
4, 34080, Note_on_c, 0, 60, 105
4, 34080, Note_on_c, 0, 62, 105
4, 34368, Note_on_c, 0, 62, 0
4, 34368, Note_on_c, 0, 60, 0
4, 34560, Note_on_c, 0, 59, 92
4, 34560, Note_on_c, 0, 62, 92
4, 34848, Note_on_c, 0, 62, 0
4, 34848, Note_on_c, 0, 59, 0
4, 36960, Note_on_c, 0, 60, 58
4, 37248, Note_on_c, 0, 60, 0
4, 37440, Note_on_c, 0, 59, 58
4, 37920, Note_on_c, 0, 59, 0
4, 37920, Note_on_c, 0, 55, 58
4, 38208, Note_on_c, 0, 55, 0
4, 39840, Note_on_c, 0, 58, 58
4, 40128, Note_on_c, 0, 58, 0
4, 40320, Note_on_c, 0, 57, 72
4, 40560, Note_on_c, 0, 57, 0
4, 40560, Note_on_c, 0, 61, 72
4, 40800, Note_on_c, 0, 61, 0
4, 40800, Note_on_c, 0, 62, 72
4, 41040, Note_on_c, 0, 62, 0
4, 41040, Note_on_c, 0, 64, 81
4, 41280, Note_on_c, 0, 64, 0
4, 41280, Note_on_c, 0, 66, 81
4, 41520, Note_on_c, 0, 66, 0
4, 41520, Note_on_c, 0, 62, 92
4, 41760, Note_on_c, 0, 62, 0
4, 41760, Note_on_c, 0, 74, 105
4, 42048, Note_on_c, 0, 74, 0
4, 42240, Note_on_c, 0, 66, 105
4, 42528, Note_on_c, 0, 66, 0
4, 42720, Note_on_c, 0, 67, 105
4, 43008, Note_on_c, 0, 67, 0
4, 43200, Note_on_c, 0, 69, 105
4, 43488, Note_on_c, 0, 69, 0
4, 43680, Note_on_c, 0, 72, 105
4, 44160, Note_on_c, 0, 72, 0
4, 44160, Note_on_c, 0, 71, 105
4, 44448, Note_on_c, 0, 71, 0
4, 45120, Note_on_c, 0, 64, 105
4, 45408, Note_on_c, 0, 64, 0
4, 45600, Note_on_c, 0, 60, 105
4, 45600, Note_on_c, 0, 62, 105
4, 45888, Note_on_c, 0, 62, 0
4, 45888, Note_on_c, 0, 60, 0
4, 46080, Note_on_c, 0, 62, 92
4, 46080, Note_on_c, 0, 59, 92
4, 46464, Note_on_c, 0, 59, 0
4, 46464, Note_on_c, 0, 62, 0
4, 47520, Note_on_c, 0, 62, 58
4, 47760, Note_on_c, 0, 62, 0
4, 47760, Note_on_c, 0, 57, 58
4, 48000, Note_on_c, 0, 57, 0
4, 48000, Note_on_c, 0, 62, 58
4, 48240, Note_on_c, 0, 62, 0
4, 48240, Note_on_c, 0, 57, 58
4, 48480, Note_on_c, 0, 57, 0
4, 48480, Note_on_c, 0, 62, 58
4, 48720, Note_on_c, 0, 62, 0
4, 48720, Note_on_c, 0, 57, 58
4, 48912, Note_on_c, 0, 57, 0
4, 48960, Note_on_c, 0, 62, 58
4, 49200, Note_on_c, 0, 62, 0
4, 49200, Note_on_c, 0, 57, 58
4, 49440, Note_on_c, 0, 57, 0
4, 49440, Note_on_c, 0, 62, 58
4, 49680, Note_on_c, 0, 62, 0
4, 49680, Note_on_c, 0, 57, 58
4, 49920, Note_on_c, 0, 57, 0
4, 49920, Note_on_c, 0, 62, 58
4, 50160, Note_on_c, 0, 62, 0
4, 50160, Note_on_c, 0, 57, 58
4, 50352, Note_on_c, 0, 57, 0
4, 50400, Note_on_c, 0, 61, 58
4, 50640, Note_on_c, 0, 61, 0
4, 50640, Note_on_c, 0, 57, 58
4, 50880, Note_on_c, 0, 57, 0
4, 50880, Note_on_c, 0, 61, 58
4, 51120, Note_on_c, 0, 61, 0
4, 51120, Note_on_c, 0, 57, 58
4, 51360, Note_on_c, 0, 57, 0
4, 51360, Note_on_c, 0, 61, 58
4, 51600, Note_on_c, 0, 61, 0
4, 51600, Note_on_c, 0, 57, 58
4, 51792, Note_on_c, 0, 57, 0
4, 51840, Note_on_c, 0, 61, 58
4, 52080, Note_on_c, 0, 61, 0
4, 52080, Note_on_c, 0, 64, 58
4, 52320, Note_on_c, 0, 64, 0
4, 52320, Note_on_c, 0, 61, 58
4, 52560, Note_on_c, 0, 61, 0
4, 52560, Note_on_c, 0, 64, 58
4, 52800, Note_on_c, 0, 64, 0
4, 52800, Note_on_c, 0, 61, 58
4, 53040, Note_on_c, 0, 61, 0
4, 53040, Note_on_c, 0, 64, 58
4, 53232, Note_on_c, 0, 64, 0
4, 53280, Note_on_c, 0, 62, 58
4, 53520, Note_on_c, 0, 62, 0
4, 53520, Note_on_c, 0, 57, 58
4, 53760, Note_on_c, 0, 57, 0
4, 53760, Note_on_c, 0, 62, 58
4, 54000, Note_on_c, 0, 62, 0
4, 54000, Note_on_c, 0, 57, 58
4, 54240, Note_on_c, 0, 57, 0
4, 54240, Note_on_c, 0, 62, 58
4, 54480, Note_on_c, 0, 62, 0
4, 54480, Note_on_c, 0, 57, 58
4, 54672, Note_on_c, 0, 57, 0
4, 54720, Note_on_c, 0, 62, 58
4, 54960, Note_on_c, 0, 62, 0
4, 54960, Note_on_c, 0, 59, 58
4, 55200, Note_on_c, 0, 59, 0
4, 55200, Note_on_c, 0, 62, 58
4, 55440, Note_on_c, 0, 62, 0
4, 55440, Note_on_c, 0, 59, 58
4, 55680, Note_on_c, 0, 59, 0
4, 55680, Note_on_c, 0, 62, 58
4, 55920, Note_on_c, 0, 62, 0
4, 55920, Note_on_c, 0, 59, 58
4, 56112, Note_on_c, 0, 59, 0
4, 56160, Note_on_c, 0, 64, 58
4, 56400, Note_on_c, 0, 64, 0
4, 56400, Note_on_c, 0, 66, 58
4, 56640, Note_on_c, 0, 66, 0
4, 56640, Note_on_c, 0, 67, 58
4, 56880, Note_on_c, 0, 67, 0
4, 56880, Note_on_c, 0, 64, 58
4, 57120, Note_on_c, 0, 64, 0
4, 57120, Note_on_c, 0, 61, 58
4, 57360, Note_on_c, 0, 61, 0
4, 57360, Note_on_c, 0, 64, 58
4, 57600, Note_on_c, 0, 64, 0
4, 57600, Note_on_c, 0, 62, 58
4, 57984, Note_on_c, 0, 62, 0
4, 59040, Note_on_c, 0, 62, 58
4, 59280, Note_on_c, 0, 62, 0
4, 59280, Note_on_c, 0, 57, 58
4, 59520, Note_on_c, 0, 57, 0
4, 59520, Note_on_c, 0, 62, 58
4, 59760, Note_on_c, 0, 62, 0
4, 59760, Note_on_c, 0, 57, 58
4, 60000, Note_on_c, 0, 57, 0
4, 60000, Note_on_c, 0, 62, 58
4, 60240, Note_on_c, 0, 62, 0
4, 60240, Note_on_c, 0, 57, 58
4, 60432, Note_on_c, 0, 57, 0
4, 60480, Note_on_c, 0, 62, 58
4, 60720, Note_on_c, 0, 62, 0
4, 60720, Note_on_c, 0, 57, 58
4, 60960, Note_on_c, 0, 57, 0
4, 60960, Note_on_c, 0, 62, 58
4, 61200, Note_on_c, 0, 62, 0
4, 61200, Note_on_c, 0, 57, 58
4, 61440, Note_on_c, 0, 57, 0
4, 61440, Note_on_c, 0, 62, 58
4, 61680, Note_on_c, 0, 62, 0
4, 61680, Note_on_c, 0, 57, 58
4, 61872, Note_on_c, 0, 57, 0
4, 61920, Note_on_c, 0, 61, 58
4, 62160, Note_on_c, 0, 61, 0
4, 62160, Note_on_c, 0, 57, 58
4, 62400, Note_on_c, 0, 57, 0
4, 62400, Note_on_c, 0, 61, 58
4, 62640, Note_on_c, 0, 61, 0
4, 62640, Note_on_c, 0, 57, 58
4, 62880, Note_on_c, 0, 57, 0
4, 62880, Note_on_c, 0, 61, 58
4, 63120, Note_on_c, 0, 61, 0
4, 63120, Note_on_c, 0, 57, 58
4, 63312, Note_on_c, 0, 57, 0
4, 63360, Note_on_c, 0, 61, 58
4, 63600, Note_on_c, 0, 61, 0
4, 63600, Note_on_c, 0, 64, 58
4, 63840, Note_on_c, 0, 64, 0
4, 63840, Note_on_c, 0, 61, 58
4, 64080, Note_on_c, 0, 61, 0
4, 64080, Note_on_c, 0, 64, 58
4, 64320, Note_on_c, 0, 64, 0
4, 64320, Note_on_c, 0, 61, 58
4, 64560, Note_on_c, 0, 61, 0
4, 64560, Note_on_c, 0, 64, 58
4, 64752, Note_on_c, 0, 64, 0
4, 64800, Note_on_c, 0, 62, 58
4, 65040, Note_on_c, 0, 62, 0
4, 65040, Note_on_c, 0, 57, 58
4, 65280, Note_on_c, 0, 57, 0
4, 65280, Note_on_c, 0, 62, 58
4, 65520, Note_on_c, 0, 62, 0
4, 65520, Note_on_c, 0, 57, 58
4, 65760, Note_on_c, 0, 57, 0
4, 65760, Note_on_c, 0, 62, 58
4, 66000, Note_on_c, 0, 62, 0
4, 66000, Note_on_c, 0, 57, 58
4, 66192, Note_on_c, 0, 57, 0
4, 66240, Note_on_c, 0, 62, 58
4, 66480, Note_on_c, 0, 62, 0
4, 66480, Note_on_c, 0, 59, 58
4, 66720, Note_on_c, 0, 59, 0
4, 66720, Note_on_c, 0, 62, 58
4, 66960, Note_on_c, 0, 62, 0
4, 66960, Note_on_c, 0, 59, 58
4, 67200, Note_on_c, 0, 59, 0
4, 67200, Note_on_c, 0, 62, 58
4, 67440, Note_on_c, 0, 62, 0
4, 67440, Note_on_c, 0, 59, 58
4, 67632, Note_on_c, 0, 59, 0
4, 67680, Note_on_c, 0, 64, 58
4, 67920, Note_on_c, 0, 64, 0
4, 67920, Note_on_c, 0, 66, 58
4, 68160, Note_on_c, 0, 66, 0
4, 68160, Note_on_c, 0, 67, 58
4, 68400, Note_on_c, 0, 67, 0
4, 68400, Note_on_c, 0, 64, 58
4, 68640, Note_on_c, 0, 64, 0
4, 68640, Note_on_c, 0, 61, 58
4, 68880, Note_on_c, 0, 61, 0
4, 68880, Note_on_c, 0, 64, 58
4, 69120, Note_on_c, 0, 64, 0
4, 69120, Note_on_c, 0, 62, 58
4, 69504, Note_on_c, 0, 62, 0
4, 70080, Note_on_c, 0, 57, 58
4, 70320, Note_on_c, 0, 57, 0
4, 70320, Note_on_c, 0, 59, 105
4, 70560, Note_on_c, 0, 59, 0
4, 70560, Note_on_c, 0, 61, 105
4, 70800, Note_on_c, 0, 61, 0
4, 70800, Note_on_c, 0, 62, 105
4, 71040, Note_on_c, 0, 62, 0
4, 71040, Note_on_c, 0, 64, 105
4, 71280, Note_on_c, 0, 64, 0
4, 71280, Note_on_c, 0, 66, 105
4, 71520, Note_on_c, 0, 66, 0
4, 71520, Note_on_c, 0, 67, 105
4, 71760, Note_on_c, 0, 67, 0
4, 71760, Note_on_c, 0, 66, 105
4, 72000, Note_on_c, 0, 66, 0
4, 72000, Note_on_c, 0, 64, 105
4, 72240, Note_on_c, 0, 64, 0
4, 72240, Note_on_c, 0, 62, 105
4, 72480, Note_on_c, 0, 62, 0
4, 72480, Note_on_c, 0, 61, 105
4, 72720, Note_on_c, 0, 61, 0
4, 72720, Note_on_c, 0, 62, 105
4, 72912, Note_on_c, 0, 62, 0
4, 72960, Note_on_c, 0, 64, 105
4, 73200, Note_on_c, 0, 64, 0
4, 73200, Note_on_c, 0, 63, 105
4, 73440, Note_on_c, 0, 63, 0
4, 73440, Note_on_c, 0, 62, 105
4, 73680, Note_on_c, 0, 62, 0
4, 73680, Note_on_c, 0, 61, 105
4, 73920, Note_on_c, 0, 61, 0
4, 73920, Note_on_c, 0, 59, 105
4, 74160, Note_on_c, 0, 59, 0
4, 74160, Note_on_c, 0, 57, 105
4, 74400, Note_on_c, 0, 57, 0
4, 74400, Note_on_c, 0, 56, 105
4, 74640, Note_on_c, 0, 56, 0
4, 74640, Note_on_c, 0, 62, 105
4, 74880, Note_on_c, 0, 62, 0
4, 74880, Note_on_c, 0, 61, 105
4, 75264, Note_on_c, 0, 61, 0
4, 76320, Note_on_c, 0, 62, 105
4, 76560, Note_on_c, 0, 62, 0
4, 76560, Note_on_c, 0, 57, 58
4, 76800, Note_on_c, 0, 57, 0
4, 76800, Note_on_c, 0, 62, 58
4, 77040, Note_on_c, 0, 62, 0
4, 77040, Note_on_c, 0, 57, 58
4, 77280, Note_on_c, 0, 57, 0
4, 77280, Note_on_c, 0, 62, 58
4, 77520, Note_on_c, 0, 62, 0
4, 77520, Note_on_c, 0, 57, 58
4, 77712, Note_on_c, 0, 57, 0
4, 77760, Note_on_c, 0, 62, 58
4, 78000, Note_on_c, 0, 62, 0
4, 78000, Note_on_c, 0, 57, 58
4, 78240, Note_on_c, 0, 57, 0
4, 78240, Note_on_c, 0, 62, 58
4, 78480, Note_on_c, 0, 62, 0
4, 78480, Note_on_c, 0, 57, 58
4, 78720, Note_on_c, 0, 57, 0
4, 78720, Note_on_c, 0, 62, 58
4, 78960, Note_on_c, 0, 62, 0
4, 78960, Note_on_c, 0, 57, 58
4, 79152, Note_on_c, 0, 57, 0
4, 79200, Note_on_c, 0, 61, 58
4, 79440, Note_on_c, 0, 61, 0
4, 79440, Note_on_c, 0, 57, 58
4, 79680, Note_on_c, 0, 57, 0
4, 79680, Note_on_c, 0, 61, 58
4, 79920, Note_on_c, 0, 61, 0
4, 79920, Note_on_c, 0, 57, 58
4, 80160, Note_on_c, 0, 57, 0
4, 80160, Note_on_c, 0, 61, 58
4, 80400, Note_on_c, 0, 61, 0
4, 80400, Note_on_c, 0, 57, 58
4, 80592, Note_on_c, 0, 57, 0
4, 80640, Note_on_c, 0, 61, 58
4, 80880, Note_on_c, 0, 61, 0
4, 80880, Note_on_c, 0, 64, 58
4, 81120, Note_on_c, 0, 64, 0
4, 81120, Note_on_c, 0, 61, 58
4, 81360, Note_on_c, 0, 61, 0
4, 81360, Note_on_c, 0, 64, 58
4, 81600, Note_on_c, 0, 64, 0
4, 81600, Note_on_c, 0, 61, 58
4, 81840, Note_on_c, 0, 61, 0
4, 81840, Note_on_c, 0, 64, 58
4, 82032, Note_on_c, 0, 64, 0
4, 82080, Note_on_c, 0, 62, 58
4, 82320, Note_on_c, 0, 62, 0
4, 82320, Note_on_c, 0, 57, 58
4, 82560, Note_on_c, 0, 57, 0
4, 82560, Note_on_c, 0, 62, 58
4, 82800, Note_on_c, 0, 62, 0
4, 82800, Note_on_c, 0, 57, 58
4, 83040, Note_on_c, 0, 57, 0
4, 83040, Note_on_c, 0, 62, 58
4, 83280, Note_on_c, 0, 62, 0
4, 83280, Note_on_c, 0, 57, 58
4, 83472, Note_on_c, 0, 57, 0
4, 83520, Note_on_c, 0, 62, 58
4, 83760, Note_on_c, 0, 62, 0
4, 83760, Note_on_c, 0, 59, 58
4, 84000, Note_on_c, 0, 59, 0
4, 84000, Note_on_c, 0, 62, 58
4, 84240, Note_on_c, 0, 62, 0
4, 84240, Note_on_c, 0, 59, 58
4, 84480, Note_on_c, 0, 59, 0
4, 84480, Note_on_c, 0, 62, 58
4, 84720, Note_on_c, 0, 62, 0
4, 84720, Note_on_c, 0, 59, 58
4, 84912, Note_on_c, 0, 59, 0
4, 84960, Note_on_c, 0, 64, 58
4, 85200, Note_on_c, 0, 64, 0
4, 85200, Note_on_c, 0, 66, 58
4, 85440, Note_on_c, 0, 66, 0
4, 85440, Note_on_c, 0, 67, 58
4, 85680, Note_on_c, 0, 67, 0
4, 85680, Note_on_c, 0, 64, 58
4, 85920, Note_on_c, 0, 64, 0
4, 85920, Note_on_c, 0, 61, 58
4, 86160, Note_on_c, 0, 61, 0
4, 86160, Note_on_c, 0, 64, 58
4, 86400, Note_on_c, 0, 64, 0
4, 86400, Note_on_c, 0, 62, 58
4, 86784, Note_on_c, 0, 62, 0
4, 87360, Note_on_c, 0, 57, 105
4, 87600, Note_on_c, 0, 57, 0
4, 87600, Note_on_c, 0, 59, 105
4, 87840, Note_on_c, 0, 59, 0
4, 87840, Note_on_c, 0, 61, 105
4, 88080, Note_on_c, 0, 61, 0
4, 88080, Note_on_c, 0, 62, 105
4, 88320, Note_on_c, 0, 62, 0
4, 88320, Note_on_c, 0, 64, 105
4, 88560, Note_on_c, 0, 64, 0
4, 88560, Note_on_c, 0, 66, 105
4, 88800, Note_on_c, 0, 66, 0
4, 88800, Note_on_c, 0, 67, 105
4, 89040, Note_on_c, 0, 67, 0
4, 89040, Note_on_c, 0, 66, 105
4, 89280, Note_on_c, 0, 66, 0
4, 89280, Note_on_c, 0, 64, 105
4, 89520, Note_on_c, 0, 64, 0
4, 89520, Note_on_c, 0, 62, 105
4, 89760, Note_on_c, 0, 62, 0
4, 89760, Note_on_c, 0, 61, 105
4, 90000, Note_on_c, 0, 61, 0
4, 90000, Note_on_c, 0, 62, 105
4, 90192, Note_on_c, 0, 62, 0
4, 90240, Note_on_c, 0, 64, 105
4, 90480, Note_on_c, 0, 64, 0
4, 90480, Note_on_c, 0, 63, 105
4, 90720, Note_on_c, 0, 63, 0
4, 90720, Note_on_c, 0, 62, 105
4, 90960, Note_on_c, 0, 62, 0
4, 90960, Note_on_c, 0, 61, 105
4, 91200, Note_on_c, 0, 61, 0
4, 91200, Note_on_c, 0, 59, 105
4, 91440, Note_on_c, 0, 59, 0
4, 91440, Note_on_c, 0, 57, 105
4, 91680, Note_on_c, 0, 57, 0
4, 91680, Note_on_c, 0, 56, 105
4, 91920, Note_on_c, 0, 56, 0
4, 91920, Note_on_c, 0, 62, 105
4, 92160, Note_on_c, 0, 62, 0
4, 92160, Note_on_c, 0, 61, 105
4, 92544, Note_on_c, 0, 61, 0
4, 93600, Note_on_c, 0, 62, 105
4, 93840, Note_on_c, 0, 62, 0
4, 93840, Note_on_c, 0, 57, 58
4, 94080, Note_on_c, 0, 57, 0
4, 94080, Note_on_c, 0, 62, 58
4, 94320, Note_on_c, 0, 62, 0
4, 94320, Note_on_c, 0, 57, 58
4, 94560, Note_on_c, 0, 57, 0
4, 94560, Note_on_c, 0, 62, 58
4, 94800, Note_on_c, 0, 62, 0
4, 94800, Note_on_c, 0, 57, 58
4, 94992, Note_on_c, 0, 57, 0
4, 95040, Note_on_c, 0, 62, 58
4, 95280, Note_on_c, 0, 62, 0
4, 95280, Note_on_c, 0, 57, 58
4, 95520, Note_on_c, 0, 57, 0
4, 95520, Note_on_c, 0, 62, 58
4, 95760, Note_on_c, 0, 62, 0
4, 95760, Note_on_c, 0, 57, 58
4, 96000, Note_on_c, 0, 57, 0
4, 96000, Note_on_c, 0, 62, 58
4, 96240, Note_on_c, 0, 62, 0
4, 96240, Note_on_c, 0, 57, 58
4, 96432, Note_on_c, 0, 57, 0
4, 96480, Note_on_c, 0, 61, 58
4, 96720, Note_on_c, 0, 61, 0
4, 96720, Note_on_c, 0, 57, 58
4, 96960, Note_on_c, 0, 57, 0
4, 96960, Note_on_c, 0, 61, 58
4, 97200, Note_on_c, 0, 61, 0
4, 97200, Note_on_c, 0, 57, 58
4, 97440, Note_on_c, 0, 57, 0
4, 97440, Note_on_c, 0, 61, 58
4, 97680, Note_on_c, 0, 61, 0
4, 97680, Note_on_c, 0, 57, 58
4, 97872, Note_on_c, 0, 57, 0
4, 97920, Note_on_c, 0, 61, 58
4, 98160, Note_on_c, 0, 61, 0
4, 98160, Note_on_c, 0, 64, 58
4, 98400, Note_on_c, 0, 64, 0
4, 98400, Note_on_c, 0, 61, 58
4, 98640, Note_on_c, 0, 61, 0
4, 98640, Note_on_c, 0, 64, 58
4, 98880, Note_on_c, 0, 64, 0
4, 98880, Note_on_c, 0, 61, 58
4, 99120, Note_on_c, 0, 61, 0
4, 99120, Note_on_c, 0, 64, 58
4, 99312, Note_on_c, 0, 64, 0
4, 99360, Note_on_c, 0, 62, 58
4, 99600, Note_on_c, 0, 62, 0
4, 99600, Note_on_c, 0, 57, 58
4, 99840, Note_on_c, 0, 57, 0
4, 99840, Note_on_c, 0, 62, 58
4, 100080, Note_on_c, 0, 62, 0
4, 100080, Note_on_c, 0, 57, 58
4, 100320, Note_on_c, 0, 57, 0
4, 100320, Note_on_c, 0, 62, 58
4, 100560, Note_on_c, 0, 62, 0
4, 100560, Note_on_c, 0, 57, 58
4, 100752, Note_on_c, 0, 57, 0
4, 100800, Note_on_c, 0, 62, 58
4, 101040, Note_on_c, 0, 62, 0
4, 101040, Note_on_c, 0, 59, 58
4, 101280, Note_on_c, 0, 59, 0
4, 101280, Note_on_c, 0, 62, 58
4, 101520, Note_on_c, 0, 62, 0
4, 101520, Note_on_c, 0, 59, 58
4, 101760, Note_on_c, 0, 59, 0
4, 101760, Note_on_c, 0, 62, 58
4, 102000, Note_on_c, 0, 62, 0
4, 102000, Note_on_c, 0, 59, 58
4, 102192, Note_on_c, 0, 59, 0
4, 102240, Note_on_c, 0, 64, 58
4, 102480, Note_on_c, 0, 64, 0
4, 102480, Note_on_c, 0, 66, 58
4, 102720, Note_on_c, 0, 66, 0
4, 102720, Note_on_c, 0, 67, 58
4, 102960, Note_on_c, 0, 67, 0
4, 102960, Note_on_c, 0, 64, 58
4, 103200, Note_on_c, 0, 64, 0
4, 103200, Note_on_c, 0, 61, 58
4, 103440, Note_on_c, 0, 61, 0
4, 103440, Note_on_c, 0, 64, 58
4, 103680, Note_on_c, 0, 64, 0
4, 103680, Note_on_c, 0, 62, 58
4, 104064, Note_on_c, 0, 62, 0
4, 105120, Note_on_c, 0, 71, 105
4, 105408, Note_on_c, 0, 71, 0
4, 105600, Note_on_c, 0, 66, 105
4, 105888, Note_on_c, 0, 66, 0
4, 106080, Note_on_c, 0, 67, 105
4, 106368, Note_on_c, 0, 67, 0
4, 106560, Note_on_c, 0, 69, 105
4, 106848, Note_on_c, 0, 69, 0
4, 107040, Note_on_c, 0, 64, 105
4, 107328, Note_on_c, 0, 64, 0
4, 107520, Note_on_c, 0, 66, 105
4, 107808, Note_on_c, 0, 66, 0
4, 108000, Note_on_c, 0, 67, 105
4, 108288, Note_on_c, 0, 67, 0
4, 108480, Note_on_c, 0, 64, 105
4, 108768, Note_on_c, 0, 64, 0
4, 108960, Note_on_c, 0, 61, 105
4, 109248, Note_on_c, 0, 61, 0
4, 109440, Note_on_c, 0, 62, 105
4, 109680, Note_on_c, 0, 62, 0
4, 109680, Note_on_c, 0, 69, 105
4, 109920, Note_on_c, 0, 69, 0
4, 109920, Note_on_c, 0, 67, 105
4, 110160, Note_on_c, 0, 67, 0
4, 110160, Note_on_c, 0, 66, 105
4, 110400, Note_on_c, 0, 66, 0
4, 110400, Note_on_c, 0, 67, 105
4, 110640, Note_on_c, 0, 67, 0
4, 110640, Note_on_c, 0, 69, 105
4, 110832, Note_on_c, 0, 69, 0
4, 110880, Note_on_c, 0, 71, 105
4, 111168, Note_on_c, 0, 71, 0
4, 111360, Note_on_c, 0, 72, 105
4, 111648, Note_on_c, 0, 72, 0
4, 111840, Note_on_c, 0, 71, 105
4, 112080, Note_on_c, 0, 71, 0
4, 112080, Note_on_c, 0, 67, 105
4, 112272, Note_on_c, 0, 67, 0
4, 112320, Note_on_c, 0, 66, 105
4, 112608, Note_on_c, 0, 66, 0
4, 112800, Note_on_c, 0, 72, 105
4, 113088, Note_on_c, 0, 72, 0
4, 113280, Note_on_c, 0, 71, 105
4, 113568, Note_on_c, 0, 71, 0
4, 114240, Note_on_c, 0, 64, 105
4, 114528, Note_on_c, 0, 64, 0
4, 114720, Note_on_c, 0, 60, 105
4, 114720, Note_on_c, 0, 62, 105
4, 115008, Note_on_c, 0, 62, 0
4, 115008, Note_on_c, 0, 60, 0
4, 115200, Note_on_c, 0, 59, 92
4, 115200, Note_on_c, 0, 62, 92
4, 115488, Note_on_c, 0, 62, 0
4, 115488, Note_on_c, 0, 59, 0
4, 117600, Note_on_c, 0, 60, 58
4, 117888, Note_on_c, 0, 60, 0
4, 118080, Note_on_c, 0, 59, 58
4, 118560, Note_on_c, 0, 59, 0
4, 118560, Note_on_c, 0, 55, 58
4, 118848, Note_on_c, 0, 55, 0
4, 120480, Note_on_c, 0, 58, 58
4, 120768, Note_on_c, 0, 58, 0
4, 120960, Note_on_c, 0, 57, 72
4, 121200, Note_on_c, 0, 57, 0
4, 121200, Note_on_c, 0, 61, 72
4, 121440, Note_on_c, 0, 61, 0
4, 121440, Note_on_c, 0, 62, 81
4, 121680, Note_on_c, 0, 62, 0
4, 121680, Note_on_c, 0, 64, 81
4, 121920, Note_on_c, 0, 64, 0
4, 121920, Note_on_c, 0, 66, 92
4, 122160, Note_on_c, 0, 66, 0
4, 122160, Note_on_c, 0, 62, 92
4, 122400, Note_on_c, 0, 62, 0
4, 122400, Note_on_c, 0, 74, 105
4, 122688, Note_on_c, 0, 74, 0
4, 122880, Note_on_c, 0, 66, 105
4, 123168, Note_on_c, 0, 66, 0
4, 123360, Note_on_c, 0, 67, 105
4, 123648, Note_on_c, 0, 67, 0
4, 123840, Note_on_c, 0, 69, 105
4, 124128, Note_on_c, 0, 69, 0
4, 124320, Note_on_c, 0, 72, 105
4, 124800, Note_on_c, 0, 72, 0
4, 124800, Note_on_c, 0, 71, 105
4, 125088, Note_on_c, 0, 71, 0
4, 125760, Note_on_c, 0, 64, 105
4, 126048, Note_on_c, 0, 64, 0
4, 126240, Note_on_c, 0, 60, 105
4, 126240, Note_on_c, 0, 62, 105
4, 126528, Note_on_c, 0, 62, 0
4, 126528, Note_on_c, 0, 60, 0
4, 126720, Note_on_c, 0, 59, 92
4, 126720, Note_on_c, 0, 62, 92
4, 127104, Note_on_c, 0, 62, 0
4, 127104, Note_on_c, 0, 59, 0
4, 127104, End_track
5, 0, Start_track
5, 0, Program_c, 0, 48
5, 0, Control_c, 0, 7, 127
5, 0, Control_c, 0, 10, 97
5, 0, Control_c, 0, 91, 85
5, 1440, Note_on_c, 0, 59, 105
5, 1728, Note_on_c, 0, 59, 0
5, 1920, Note_on_c, 0, 54, 105
5, 2208, Note_on_c, 0, 54, 0
5, 2400, Note_on_c, 0, 55, 105
5, 2688, Note_on_c, 0, 55, 0
5, 2880, Note_on_c, 0, 57, 105
5, 3168, Note_on_c, 0, 57, 0
5, 3360, Note_on_c, 0, 52, 105
5, 3648, Note_on_c, 0, 52, 0
5, 3840, Note_on_c, 0, 54, 105
5, 4128, Note_on_c, 0, 54, 0
5, 4320, Note_on_c, 0, 55, 105
5, 4608, Note_on_c, 0, 55, 0
5, 4800, Note_on_c, 0, 52, 105
5, 5088, Note_on_c, 0, 52, 0
5, 5280, Note_on_c, 0, 49, 105
5, 5568, Note_on_c, 0, 49, 0
5, 5760, Note_on_c, 0, 50, 105
5, 6048, Note_on_c, 0, 50, 0
5, 6240, Note_on_c, 0, 62, 105
5, 6528, Note_on_c, 0, 62, 0
5, 6720, Note_on_c, 0, 60, 105
5, 7008, Note_on_c, 0, 60, 0
5, 7200, Note_on_c, 0, 59, 105
5, 7488, Note_on_c, 0, 59, 0
5, 7680, Note_on_c, 0, 54, 105
5, 7968, Note_on_c, 0, 54, 0
5, 8160, Note_on_c, 0, 55, 105
5, 8448, Note_on_c, 0, 55, 0
5, 8640, Note_on_c, 0, 57, 105
5, 8928, Note_on_c, 0, 57, 0
5, 9120, Note_on_c, 0, 50, 105
5, 9408, Note_on_c, 0, 50, 0
5, 9600, Note_on_c, 0, 55, 105
5, 9888, Note_on_c, 0, 55, 0
5, 10080, Note_on_c, 0, 52, 105
5, 10368, Note_on_c, 0, 52, 0
5, 10560, Note_on_c, 0, 48, 105
5, 10848, Note_on_c, 0, 48, 0
5, 11040, Note_on_c, 0, 50, 105
5, 11328, Note_on_c, 0, 50, 0
5, 11520, Note_on_c, 0, 43, 105
5, 11808, Note_on_c, 0, 43, 0
5, 12000, Note_on_c, 0, 55, 105
5, 12288, Note_on_c, 0, 55, 0
5, 12960, Note_on_c, 0, 59, 105
5, 13248, Note_on_c, 0, 59, 0
5, 13440, Note_on_c, 0, 54, 105
5, 13728, Note_on_c, 0, 54, 0
5, 13920, Note_on_c, 0, 55, 105
5, 14208, Note_on_c, 0, 55, 0
5, 14400, Note_on_c, 0, 57, 105
5, 14688, Note_on_c, 0, 57, 0
5, 14880, Note_on_c, 0, 52, 105
5, 15168, Note_on_c, 0, 52, 0
5, 15360, Note_on_c, 0, 54, 105
5, 15648, Note_on_c, 0, 54, 0
5, 15840, Note_on_c, 0, 55, 105
5, 16128, Note_on_c, 0, 55, 0
5, 16320, Note_on_c, 0, 52, 105
5, 16608, Note_on_c, 0, 52, 0
5, 16800, Note_on_c, 0, 49, 105
5, 17088, Note_on_c, 0, 49, 0
5, 17280, Note_on_c, 0, 50, 105
5, 17568, Note_on_c, 0, 50, 0
5, 17760, Note_on_c, 0, 62, 105
5, 18048, Note_on_c, 0, 62, 0
5, 18240, Note_on_c, 0, 60, 105
5, 18528, Note_on_c, 0, 60, 0
5, 18720, Note_on_c, 0, 59, 105
5, 19008, Note_on_c, 0, 59, 0
5, 19200, Note_on_c, 0, 54, 105
5, 19488, Note_on_c, 0, 54, 0
5, 19680, Note_on_c, 0, 55, 105
5, 19968, Note_on_c, 0, 55, 0
5, 20160, Note_on_c, 0, 57, 105
5, 20448, Note_on_c, 0, 57, 0
5, 20640, Note_on_c, 0, 50, 105
5, 20928, Note_on_c, 0, 50, 0
5, 21120, Note_on_c, 0, 55, 105
5, 21408, Note_on_c, 0, 55, 0
5, 21600, Note_on_c, 0, 52, 105
5, 21888, Note_on_c, 0, 52, 0
5, 22080, Note_on_c, 0, 48, 105
5, 22368, Note_on_c, 0, 48, 0
5, 22560, Note_on_c, 0, 50, 105
5, 22848, Note_on_c, 0, 50, 0
5, 23040, Note_on_c, 0, 43, 92
5, 23328, Note_on_c, 0, 43, 0
5, 23520, Note_on_c, 0, 55, 92
5, 23808, Note_on_c, 0, 55, 0
5, 25440, Note_on_c, 0, 57, 72
5, 25752, Note_on_c, 0, 57, 0
5, 25920, Note_on_c, 0, 55, 72
5, 26400, Note_on_c, 0, 55, 0
5, 26400, Note_on_c, 0, 52, 72
5, 26712, Note_on_c, 0, 52, 0
5, 28320, Note_on_c, 0, 55, 72
5, 28632, Note_on_c, 0, 55, 0
5, 28800, Note_on_c, 0, 54, 72
5, 29112, Note_on_c, 0, 54, 0
5, 29280, Note_on_c, 0, 62, 92
5, 29592, Note_on_c, 0, 62, 0
5, 29760, Note_on_c, 0, 60, 92
5, 30072, Note_on_c, 0, 60, 0
5, 30240, Note_on_c, 0, 59, 105
5, 30552, Note_on_c, 0, 59, 0
5, 30720, Note_on_c, 0, 57, 105
5, 31032, Note_on_c, 0, 57, 0
5, 31200, Note_on_c, 0, 55, 105
5, 31512, Note_on_c, 0, 55, 0
5, 31680, Note_on_c, 0, 54, 105
5, 31992, Note_on_c, 0, 54, 0
5, 32160, Note_on_c, 0, 50, 105
5, 32472, Note_on_c, 0, 50, 0
5, 32640, Note_on_c, 0, 55, 105
5, 32952, Note_on_c, 0, 55, 0
5, 33120, Note_on_c, 0, 52, 105
5, 33432, Note_on_c, 0, 52, 0
5, 33600, Note_on_c, 0, 48, 105
5, 33912, Note_on_c, 0, 48, 0
5, 34080, Note_on_c, 0, 50, 105
5, 34392, Note_on_c, 0, 50, 0
5, 34560, Note_on_c, 0, 43, 105
5, 34872, Note_on_c, 0, 43, 0
5, 35040, Note_on_c, 0, 55, 105
5, 35352, Note_on_c, 0, 55, 0
5, 36960, Note_on_c, 0, 57, 72
5, 37272, Note_on_c, 0, 57, 0
5, 37440, Note_on_c, 0, 55, 72
5, 37920, Note_on_c, 0, 55, 0
5, 37920, Note_on_c, 0, 52, 72
5, 38232, Note_on_c, 0, 52, 0
5, 39840, Note_on_c, 0, 55, 72
5, 40152, Note_on_c, 0, 55, 0
5, 40320, Note_on_c, 0, 54, 72
5, 40632, Note_on_c, 0, 54, 0
5, 40800, Note_on_c, 0, 62, 92
5, 41112, Note_on_c, 0, 62, 0
5, 41280, Note_on_c, 0, 60, 92
5, 41592, Note_on_c, 0, 60, 0
5, 41760, Note_on_c, 0, 59, 105
5, 42072, Note_on_c, 0, 59, 0
5, 42240, Note_on_c, 0, 57, 105
5, 42552, Note_on_c, 0, 57, 0
5, 42720, Note_on_c, 0, 55, 105
5, 43032, Note_on_c, 0, 55, 0
5, 43200, Note_on_c, 0, 54, 105
5, 43512, Note_on_c, 0, 54, 0
5, 43680, Note_on_c, 0, 50, 105
5, 43992, Note_on_c, 0, 50, 0
5, 44160, Note_on_c, 0, 55, 105
5, 44472, Note_on_c, 0, 55, 0
5, 44640, Note_on_c, 0, 52, 105
5, 44952, Note_on_c, 0, 52, 0
5, 45120, Note_on_c, 0, 48, 105
5, 45432, Note_on_c, 0, 48, 0
5, 45600, Note_on_c, 0, 50, 105
5, 45912, Note_on_c, 0, 50, 0
5, 46080, Note_on_c, 0, 43, 105
5, 46464, Note_on_c, 0, 43, 0
5, 46560, Note_on_c, 0, 55, 105
5, 46944, Note_on_c, 0, 55, 0
5, 47520, Note_on_c, 0, 38, 72
5, 47880, Note_on_c, 0, 38, 0
5, 48000, Note_on_c, 0, 50, 72
5, 48360, Note_on_c, 0, 50, 0
5, 48960, Note_on_c, 0, 38, 72
5, 49320, Note_on_c, 0, 38, 0
5, 49440, Note_on_c, 0, 50, 72
5, 49800, Note_on_c, 0, 50, 0
5, 50400, Note_on_c, 0, 45, 72
5, 50760, Note_on_c, 0, 45, 0
5, 50880, Note_on_c, 0, 57, 72
5, 51240, Note_on_c, 0, 57, 0
5, 51840, Note_on_c, 0, 45, 72
5, 52200, Note_on_c, 0, 45, 0
5, 52320, Note_on_c, 0, 57, 72
5, 52680, Note_on_c, 0, 57, 0
5, 53280, Note_on_c, 0, 50, 72
5, 53640, Note_on_c, 0, 50, 0
5, 53760, Note_on_c, 0, 62, 72
5, 54120, Note_on_c, 0, 62, 0
5, 54720, Note_on_c, 0, 47, 72
5, 55080, Note_on_c, 0, 47, 0
5, 55200, Note_on_c, 0, 59, 72
5, 55560, Note_on_c, 0, 59, 0
5, 56160, Note_on_c, 0, 55, 72
5, 56520, Note_on_c, 0, 55, 0
5, 56640, Note_on_c, 0, 52, 72
5, 57000, Note_on_c, 0, 52, 0
5, 57120, Note_on_c, 0, 57, 72
5, 57480, Note_on_c, 0, 57, 0
5, 57600, Note_on_c, 0, 50, 72
5, 57984, Note_on_c, 0, 50, 0
5, 58080, Note_on_c, 0, 62, 72
5, 58464, Note_on_c, 0, 62, 0
5, 59040, Note_on_c, 0, 38, 72
5, 59400, Note_on_c, 0, 38, 0
5, 59520, Note_on_c, 0, 50, 72
5, 59880, Note_on_c, 0, 50, 0
5, 60480, Note_on_c, 0, 38, 72
5, 60840, Note_on_c, 0, 38, 0
5, 60960, Note_on_c, 0, 50, 72
5, 61320, Note_on_c, 0, 50, 0
5, 61920, Note_on_c, 0, 45, 72
5, 62280, Note_on_c, 0, 45, 0
5, 62400, Note_on_c, 0, 57, 72
5, 62760, Note_on_c, 0, 57, 0
5, 63360, Note_on_c, 0, 45, 72
5, 63720, Note_on_c, 0, 45, 0
5, 63840, Note_on_c, 0, 57, 72
5, 64200, Note_on_c, 0, 57, 0
5, 64800, Note_on_c, 0, 50, 72
5, 65160, Note_on_c, 0, 50, 0
5, 65280, Note_on_c, 0, 62, 72
5, 65640, Note_on_c, 0, 62, 0
5, 66240, Note_on_c, 0, 47, 72
5, 66600, Note_on_c, 0, 47, 0
5, 66720, Note_on_c, 0, 59, 72
5, 67080, Note_on_c, 0, 59, 0
5, 67680, Note_on_c, 0, 55, 72
5, 68040, Note_on_c, 0, 55, 0
5, 68160, Note_on_c, 0, 52, 72
5, 68520, Note_on_c, 0, 52, 0
5, 68640, Note_on_c, 0, 57, 72
5, 69000, Note_on_c, 0, 57, 0
5, 69120, Note_on_c, 0, 50, 72
5, 69504, Note_on_c, 0, 50, 0
5, 69600, Note_on_c, 0, 62, 72
5, 69984, Note_on_c, 0, 62, 0
5, 70560, Note_on_c, 0, 45, 105
5, 70944, Note_on_c, 0, 45, 0
5, 71520, Note_on_c, 0, 49, 105
5, 72000, Note_on_c, 0, 49, 0
5, 72000, Note_on_c, 0, 50, 105
5, 72384, Note_on_c, 0, 50, 0
5, 73440, Note_on_c, 0, 52, 105
5, 73824, Note_on_c, 0, 52, 0
5, 74400, Note_on_c, 0, 40, 105
5, 74880, Note_on_c, 0, 40, 0
5, 74880, Note_on_c, 0, 45, 105
5, 75240, Note_on_c, 0, 45, 0
5, 75360, Note_on_c, 0, 57, 105
5, 75720, Note_on_c, 0, 57, 0
5, 76320, Note_on_c, 0, 38, 72
5, 76680, Note_on_c, 0, 38, 0
5, 76800, Note_on_c, 0, 50, 72
5, 77160, Note_on_c, 0, 50, 0
5, 77760, Note_on_c, 0, 38, 72
5, 78120, Note_on_c, 0, 38, 0
5, 78240, Note_on_c, 0, 50, 72
5, 78600, Note_on_c, 0, 50, 0
5, 79200, Note_on_c, 0, 45, 72
5, 79560, Note_on_c, 0, 45, 0
5, 79680, Note_on_c, 0, 57, 72
5, 80040, Note_on_c, 0, 57, 0
5, 80640, Note_on_c, 0, 45, 72
5, 81000, Note_on_c, 0, 45, 0
5, 81120, Note_on_c, 0, 57, 72
5, 81480, Note_on_c, 0, 57, 0
5, 82080, Note_on_c, 0, 50, 72
5, 82440, Note_on_c, 0, 50, 0
5, 82560, Note_on_c, 0, 62, 72
5, 82920, Note_on_c, 0, 62, 0
5, 83520, Note_on_c, 0, 47, 72
5, 83880, Note_on_c, 0, 47, 0
5, 84000, Note_on_c, 0, 59, 72
5, 84360, Note_on_c, 0, 59, 0
5, 84960, Note_on_c, 0, 55, 72
5, 85320, Note_on_c, 0, 55, 0
5, 85440, Note_on_c, 0, 52, 72
5, 85800, Note_on_c, 0, 52, 0
5, 85920, Note_on_c, 0, 57, 72
5, 86280, Note_on_c, 0, 57, 0
5, 86400, Note_on_c, 0, 50, 72
5, 86784, Note_on_c, 0, 50, 0
5, 86880, Note_on_c, 0, 62, 72
5, 87264, Note_on_c, 0, 62, 0
5, 87840, Note_on_c, 0, 45, 105
5, 88224, Note_on_c, 0, 45, 0
5, 88800, Note_on_c, 0, 49, 105
5, 89280, Note_on_c, 0, 49, 0
5, 89280, Note_on_c, 0, 50, 105
5, 89664, Note_on_c, 0, 50, 0
5, 90720, Note_on_c, 0, 52, 105
5, 91104, Note_on_c, 0, 52, 0
5, 91680, Note_on_c, 0, 40, 105
5, 92160, Note_on_c, 0, 40, 0
5, 92160, Note_on_c, 0, 45, 105
5, 92520, Note_on_c, 0, 45, 0
5, 92640, Note_on_c, 0, 57, 105
5, 93000, Note_on_c, 0, 57, 0
5, 93600, Note_on_c, 0, 38, 72
5, 93960, Note_on_c, 0, 38, 0
5, 94080, Note_on_c, 0, 50, 72
5, 94440, Note_on_c, 0, 50, 0
5, 95040, Note_on_c, 0, 38, 72
5, 95400, Note_on_c, 0, 38, 0
5, 95520, Note_on_c, 0, 50, 72
5, 95880, Note_on_c, 0, 50, 0
5, 96480, Note_on_c, 0, 45, 72
5, 96840, Note_on_c, 0, 45, 0
5, 96960, Note_on_c, 0, 57, 72
5, 97320, Note_on_c, 0, 57, 0
5, 97920, Note_on_c, 0, 45, 72
5, 98280, Note_on_c, 0, 45, 0
5, 98400, Note_on_c, 0, 57, 72
5, 98760, Note_on_c, 0, 57, 0
5, 99360, Note_on_c, 0, 50, 72
5, 99720, Note_on_c, 0, 50, 0
5, 99840, Note_on_c, 0, 62, 72
5, 100200, Note_on_c, 0, 62, 0
5, 100800, Note_on_c, 0, 47, 72
5, 101160, Note_on_c, 0, 47, 0
5, 101280, Note_on_c, 0, 59, 72
5, 101640, Note_on_c, 0, 59, 0
5, 102240, Note_on_c, 0, 55, 72
5, 102600, Note_on_c, 0, 55, 0
5, 102720, Note_on_c, 0, 52, 72
5, 103080, Note_on_c, 0, 52, 0
5, 103200, Note_on_c, 0, 57, 72
5, 103560, Note_on_c, 0, 57, 0
5, 103680, Note_on_c, 0, 50, 72
5, 104064, Note_on_c, 0, 50, 0
5, 104160, Note_on_c, 0, 62, 72
5, 104544, Note_on_c, 0, 62, 0
5, 105120, Note_on_c, 0, 59, 105
5, 105408, Note_on_c, 0, 59, 0
5, 105600, Note_on_c, 0, 54, 105
5, 105888, Note_on_c, 0, 54, 0
5, 106080, Note_on_c, 0, 55, 105
5, 106368, Note_on_c, 0, 55, 0
5, 106560, Note_on_c, 0, 57, 105
5, 106848, Note_on_c, 0, 57, 0
5, 107040, Note_on_c, 0, 52, 105
5, 107328, Note_on_c, 0, 52, 0
5, 107520, Note_on_c, 0, 54, 105
5, 107808, Note_on_c, 0, 54, 0
5, 108000, Note_on_c, 0, 55, 105
5, 108288, Note_on_c, 0, 55, 0
5, 108480, Note_on_c, 0, 52, 105
5, 108768, Note_on_c, 0, 52, 0
5, 108960, Note_on_c, 0, 49, 105
5, 109248, Note_on_c, 0, 49, 0
5, 109440, Note_on_c, 0, 50, 105
5, 109728, Note_on_c, 0, 50, 0
5, 109920, Note_on_c, 0, 62, 105
5, 110208, Note_on_c, 0, 62, 0
5, 110400, Note_on_c, 0, 60, 105
5, 110688, Note_on_c, 0, 60, 0
5, 110880, Note_on_c, 0, 59, 105
5, 111168, Note_on_c, 0, 59, 0
5, 111360, Note_on_c, 0, 54, 105
5, 111648, Note_on_c, 0, 54, 0
5, 111840, Note_on_c, 0, 55, 105
5, 112128, Note_on_c, 0, 55, 0
5, 112320, Note_on_c, 0, 57, 105
5, 112608, Note_on_c, 0, 57, 0
5, 112800, Note_on_c, 0, 50, 105
5, 113088, Note_on_c, 0, 50, 0
5, 113280, Note_on_c, 0, 55, 105
5, 113568, Note_on_c, 0, 55, 0
5, 113760, Note_on_c, 0, 52, 105
5, 114048, Note_on_c, 0, 52, 0
5, 114240, Note_on_c, 0, 48, 105
5, 114528, Note_on_c, 0, 48, 0
5, 114720, Note_on_c, 0, 50, 105
5, 115008, Note_on_c, 0, 50, 0
5, 115200, Note_on_c, 0, 43, 92
5, 115488, Note_on_c, 0, 43, 0
5, 115680, Note_on_c, 0, 55, 92
5, 115968, Note_on_c, 0, 55, 0
5, 117600, Note_on_c, 0, 57, 72
5, 117912, Note_on_c, 0, 57, 0
5, 118080, Note_on_c, 0, 55, 72
5, 118560, Note_on_c, 0, 55, 0
5, 118560, Note_on_c, 0, 52, 72
5, 118872, Note_on_c, 0, 52, 0
5, 120480, Note_on_c, 0, 55, 72
5, 120792, Note_on_c, 0, 55, 0
5, 120960, Note_on_c, 0, 54, 72
5, 121272, Note_on_c, 0, 54, 0
5, 121440, Note_on_c, 0, 62, 92
5, 121752, Note_on_c, 0, 62, 0
5, 121920, Note_on_c, 0, 60, 92
5, 122232, Note_on_c, 0, 60, 0
5, 122400, Note_on_c, 0, 59, 105
5, 122712, Note_on_c, 0, 59, 0
5, 122880, Note_on_c, 0, 57, 105
5, 123192, Note_on_c, 0, 57, 0
5, 123360, Note_on_c, 0, 55, 105
5, 123672, Note_on_c, 0, 55, 0
5, 123840, Note_on_c, 0, 54, 105
5, 124152, Note_on_c, 0, 54, 0
5, 124320, Note_on_c, 0, 50, 105
5, 124632, Note_on_c, 0, 50, 0
5, 124800, Note_on_c, 0, 55, 105
5, 125112, Note_on_c, 0, 55, 0
5, 125280, Note_on_c, 0, 52, 105
5, 125592, Note_on_c, 0, 52, 0
5, 125760, Note_on_c, 0, 48, 105
5, 126072, Note_on_c, 0, 48, 0
5, 126240, Note_on_c, 0, 50, 105
5, 126552, Note_on_c, 0, 50, 0
5, 126720, Note_on_c, 0, 43, 92
5, 127104, Note_on_c, 0, 43, 0
5, 127104, End_track
6, 0, Start_track
6, 0, Program_c, 0, 48
6, 0, Control_c, 0, 7, 127
6, 0, Control_c, 0, 10, 64
6, 0, Control_c, 0, 91, 95
6, 1440, Note_on_c, 0, 47, 105
6, 1728, Note_on_c, 0, 47, 0
6, 1920, Note_on_c, 0, 42, 105
6, 2208, Note_on_c, 0, 42, 0
6, 2400, Note_on_c, 0, 43, 105
6, 2688, Note_on_c, 0, 43, 0
6, 2880, Note_on_c, 0, 45, 105
6, 3168, Note_on_c, 0, 45, 0
6, 3360, Note_on_c, 0, 40, 105
6, 3648, Note_on_c, 0, 40, 0
6, 3840, Note_on_c, 0, 42, 105
6, 4128, Note_on_c, 0, 42, 0
6, 4320, Note_on_c, 0, 43, 105
6, 4608, Note_on_c, 0, 43, 0
6, 4800, Note_on_c, 0, 40, 105
6, 5088, Note_on_c, 0, 40, 0
6, 5280, Note_on_c, 0, 37, 105
6, 5568, Note_on_c, 0, 37, 0
6, 5760, Note_on_c, 0, 38, 105
6, 6048, Note_on_c, 0, 38, 0
6, 6240, Note_on_c, 0, 50, 105
6, 6528, Note_on_c, 0, 50, 0
6, 6720, Note_on_c, 0, 48, 105
6, 7008, Note_on_c, 0, 48, 0
6, 7200, Note_on_c, 0, 47, 105
6, 7488, Note_on_c, 0, 47, 0
6, 7680, Note_on_c, 0, 42, 105
6, 7968, Note_on_c, 0, 42, 0
6, 8160, Note_on_c, 0, 43, 105
6, 8448, Note_on_c, 0, 43, 0
6, 8640, Note_on_c, 0, 45, 105
6, 8928, Note_on_c, 0, 45, 0
6, 9120, Note_on_c, 0, 38, 105
6, 9408, Note_on_c, 0, 38, 0
6, 9600, Note_on_c, 0, 43, 105
6, 9888, Note_on_c, 0, 43, 0
6, 10080, Note_on_c, 0, 40, 105
6, 10368, Note_on_c, 0, 40, 0
6, 10560, Note_on_c, 0, 36, 105
6, 10848, Note_on_c, 0, 36, 0
6, 11040, Note_on_c, 0, 38, 105
6, 11328, Note_on_c, 0, 38, 0
6, 11520, Note_on_c, 0, 31, 105
6, 11808, Note_on_c, 0, 31, 0
6, 12000, Note_on_c, 0, 43, 105
6, 12288, Note_on_c, 0, 43, 0
6, 12960, Note_on_c, 0, 47, 105
6, 13248, Note_on_c, 0, 47, 0
6, 13440, Note_on_c, 0, 42, 105
6, 13728, Note_on_c, 0, 42, 0
6, 13920, Note_on_c, 0, 43, 105
6, 14208, Note_on_c, 0, 43, 0
6, 14400, Note_on_c, 0, 45, 105
6, 14688, Note_on_c, 0, 45, 0
6, 14880, Note_on_c, 0, 40, 105
6, 15168, Note_on_c, 0, 40, 0
6, 15360, Note_on_c, 0, 42, 105
6, 15648, Note_on_c, 0, 42, 0
6, 15840, Note_on_c, 0, 43, 105
6, 16128, Note_on_c, 0, 43, 0
6, 16320, Note_on_c, 0, 40, 105
6, 16608, Note_on_c, 0, 40, 0
6, 16800, Note_on_c, 0, 37, 105
6, 17088, Note_on_c, 0, 37, 0
6, 17280, Note_on_c, 0, 38, 105
6, 17568, Note_on_c, 0, 38, 0
6, 17760, Note_on_c, 0, 50, 105
6, 18048, Note_on_c, 0, 50, 0
6, 18240, Note_on_c, 0, 48, 105
6, 18528, Note_on_c, 0, 48, 0
6, 18720, Note_on_c, 0, 47, 105
6, 19008, Note_on_c, 0, 47, 0
6, 19200, Note_on_c, 0, 42, 105
6, 19488, Note_on_c, 0, 42, 0
6, 19680, Note_on_c, 0, 43, 105
6, 19968, Note_on_c, 0, 43, 0
6, 20160, Note_on_c, 0, 45, 105
6, 20448, Note_on_c, 0, 45, 0
6, 20640, Note_on_c, 0, 38, 105
6, 20928, Note_on_c, 0, 38, 0
6, 21120, Note_on_c, 0, 43, 105
6, 21408, Note_on_c, 0, 43, 0
6, 21600, Note_on_c, 0, 40, 105
6, 21888, Note_on_c, 0, 40, 0
6, 22080, Note_on_c, 0, 36, 105
6, 22368, Note_on_c, 0, 36, 0
6, 22560, Note_on_c, 0, 38, 105
6, 22848, Note_on_c, 0, 38, 0
6, 23040, Note_on_c, 0, 31, 92
6, 23328, Note_on_c, 0, 31, 0
6, 23520, Note_on_c, 0, 43, 92
6, 23808, Note_on_c, 0, 43, 0
6, 25440, Note_on_c, 0, 45, 72
6, 25752, Note_on_c, 0, 45, 0
6, 25920, Note_on_c, 0, 43, 72
6, 26400, Note_on_c, 0, 43, 0
6, 26400, Note_on_c, 0, 40, 72
6, 26712, Note_on_c, 0, 40, 0
6, 28320, Note_on_c, 0, 43, 72
6, 28632, Note_on_c, 0, 43, 0
6, 28800, Note_on_c, 0, 42, 72
6, 29112, Note_on_c, 0, 42, 0
6, 29280, Note_on_c, 0, 50, 92
6, 29592, Note_on_c, 0, 50, 0
6, 29760, Note_on_c, 0, 48, 92
6, 30072, Note_on_c, 0, 48, 0
6, 30240, Note_on_c, 0, 47, 105
6, 30552, Note_on_c, 0, 47, 0
6, 30720, Note_on_c, 0, 45, 105
6, 31032, Note_on_c, 0, 45, 0
6, 31200, Note_on_c, 0, 43, 105
6, 31512, Note_on_c, 0, 43, 0
6, 31680, Note_on_c, 0, 42, 105
6, 31992, Note_on_c, 0, 42, 0
6, 32160, Note_on_c, 0, 38, 105
6, 32472, Note_on_c, 0, 38, 0
6, 32640, Note_on_c, 0, 43, 105
6, 32952, Note_on_c, 0, 43, 0
6, 33120, Note_on_c, 0, 40, 105
6, 33432, Note_on_c, 0, 40, 0
6, 33600, Note_on_c, 0, 36, 105
6, 33912, Note_on_c, 0, 36, 0
6, 34080, Note_on_c, 0, 38, 105
6, 34392, Note_on_c, 0, 38, 0
6, 34560, Note_on_c, 0, 31, 105
6, 34872, Note_on_c, 0, 31, 0
6, 35040, Note_on_c, 0, 43, 105
6, 35352, Note_on_c, 0, 43, 0
6, 36960, Note_on_c, 0, 45, 72
6, 37272, Note_on_c, 0, 45, 0
6, 37440, Note_on_c, 0, 43, 72
6, 37920, Note_on_c, 0, 43, 0
6, 37920, Note_on_c, 0, 40, 72
6, 38232, Note_on_c, 0, 40, 0
6, 39840, Note_on_c, 0, 43, 72
6, 40152, Note_on_c, 0, 43, 0
6, 40320, Note_on_c, 0, 42, 72
6, 40632, Note_on_c, 0, 42, 0
6, 40800, Note_on_c, 0, 50, 92
6, 41112, Note_on_c, 0, 50, 0
6, 41280, Note_on_c, 0, 48, 92
6, 41592, Note_on_c, 0, 48, 0
6, 41760, Note_on_c, 0, 47, 105
6, 42072, Note_on_c, 0, 47, 0
6, 42240, Note_on_c, 0, 45, 105
6, 42552, Note_on_c, 0, 45, 0
6, 42720, Note_on_c, 0, 43, 105
6, 43032, Note_on_c, 0, 43, 0
6, 43200, Note_on_c, 0, 42, 105
6, 43512, Note_on_c, 0, 42, 0
6, 43680, Note_on_c, 0, 38, 105
6, 43992, Note_on_c, 0, 38, 0
6, 44160, Note_on_c, 0, 43, 105
6, 44472, Note_on_c, 0, 43, 0
6, 44640, Note_on_c, 0, 40, 105
6, 44952, Note_on_c, 0, 40, 0
6, 45120, Note_on_c, 0, 36, 105
6, 45432, Note_on_c, 0, 36, 0
6, 45600, Note_on_c, 0, 38, 105
6, 45912, Note_on_c, 0, 38, 0
6, 46080, Note_on_c, 0, 31, 105
6, 46464, Note_on_c, 0, 31, 0
6, 46560, Note_on_c, 0, 43, 105
6, 46944, Note_on_c, 0, 43, 0
6, 47520, Note_on_c, 0, 38, 72
6, 47880, Note_on_c, 0, 38, 0
6, 48000, Note_on_c, 0, 38, 72
6, 48360, Note_on_c, 0, 38, 0
6, 48960, Note_on_c, 0, 38, 72
6, 49320, Note_on_c, 0, 38, 0
6, 49440, Note_on_c, 0, 38, 72
6, 49800, Note_on_c, 0, 38, 0
6, 50400, Note_on_c, 0, 33, 72
6, 50760, Note_on_c, 0, 33, 0
6, 50880, Note_on_c, 0, 45, 72
6, 51240, Note_on_c, 0, 45, 0
6, 51840, Note_on_c, 0, 33, 72
6, 52200, Note_on_c, 0, 33, 0
6, 52320, Note_on_c, 0, 45, 72
6, 52680, Note_on_c, 0, 45, 0
6, 53280, Note_on_c, 0, 38, 72
6, 53640, Note_on_c, 0, 38, 0
6, 53760, Note_on_c, 0, 50, 72
6, 54120, Note_on_c, 0, 50, 0
6, 54720, Note_on_c, 0, 35, 72
6, 55080, Note_on_c, 0, 35, 0
6, 55200, Note_on_c, 0, 47, 72
6, 55560, Note_on_c, 0, 47, 0
6, 56160, Note_on_c, 0, 43, 72
6, 56520, Note_on_c, 0, 43, 0
6, 56640, Note_on_c, 0, 40, 72
6, 57000, Note_on_c, 0, 40, 0
6, 57120, Note_on_c, 0, 45, 72
6, 57480, Note_on_c, 0, 45, 0
6, 57600, Note_on_c, 0, 38, 72
6, 57984, Note_on_c, 0, 38, 0
6, 58080, Note_on_c, 0, 50, 72
6, 58464, Note_on_c, 0, 50, 0
6, 59040, Note_on_c, 0, 38, 72
6, 59400, Note_on_c, 0, 38, 0
6, 59520, Note_on_c, 0, 38, 72
6, 59880, Note_on_c, 0, 38, 0
6, 60480, Note_on_c, 0, 38, 72
6, 60840, Note_on_c, 0, 38, 0
6, 60960, Note_on_c, 0, 38, 72
6, 61320, Note_on_c, 0, 38, 0
6, 61920, Note_on_c, 0, 33, 72
6, 62280, Note_on_c, 0, 33, 0
6, 62400, Note_on_c, 0, 45, 72
6, 62760, Note_on_c, 0, 45, 0
6, 63360, Note_on_c, 0, 33, 72
6, 63720, Note_on_c, 0, 33, 0
6, 63840, Note_on_c, 0, 45, 72
6, 64200, Note_on_c, 0, 45, 0
6, 64800, Note_on_c, 0, 38, 72
6, 65160, Note_on_c, 0, 38, 0
6, 65280, Note_on_c, 0, 50, 72
6, 65640, Note_on_c, 0, 50, 0
6, 66240, Note_on_c, 0, 35, 72
6, 66600, Note_on_c, 0, 35, 0
6, 66720, Note_on_c, 0, 47, 72
6, 67080, Note_on_c, 0, 47, 0
6, 67680, Note_on_c, 0, 43, 72
6, 68040, Note_on_c, 0, 43, 0
6, 68160, Note_on_c, 0, 40, 72
6, 68520, Note_on_c, 0, 40, 0
6, 68640, Note_on_c, 0, 45, 72
6, 69000, Note_on_c, 0, 45, 0
6, 69120, Note_on_c, 0, 38, 72
6, 69504, Note_on_c, 0, 38, 0
6, 69600, Note_on_c, 0, 50, 72
6, 69984, Note_on_c, 0, 50, 0
6, 70560, Note_on_c, 0, 33, 105
6, 70944, Note_on_c, 0, 33, 0
6, 71520, Note_on_c, 0, 37, 105
6, 71904, Note_on_c, 0, 37, 0
6, 72000, Note_on_c, 0, 38, 105
6, 72384, Note_on_c, 0, 38, 0
6, 73440, Note_on_c, 0, 40, 105
6, 73824, Note_on_c, 0, 40, 0
6, 74400, Note_on_c, 0, 28, 105
6, 74784, Note_on_c, 0, 28, 0
6, 74880, Note_on_c, 0, 33, 105
6, 75264, Note_on_c, 0, 33, 0
6, 75360, Note_on_c, 0, 45, 105
6, 75744, Note_on_c, 0, 45, 0
6, 76320, Note_on_c, 0, 38, 72
6, 76680, Note_on_c, 0, 38, 0
6, 76800, Note_on_c, 0, 38, 72
6, 77160, Note_on_c, 0, 38, 0
6, 77760, Note_on_c, 0, 38, 72
6, 78120, Note_on_c, 0, 38, 0
6, 78240, Note_on_c, 0, 38, 72
6, 78600, Note_on_c, 0, 38, 0
6, 79200, Note_on_c, 0, 33, 72
6, 79560, Note_on_c, 0, 33, 0
6, 79680, Note_on_c, 0, 45, 72
6, 80040, Note_on_c, 0, 45, 0
6, 80640, Note_on_c, 0, 33, 72
6, 81000, Note_on_c, 0, 33, 0
6, 81120, Note_on_c, 0, 45, 72
6, 81480, Note_on_c, 0, 45, 0
6, 82080, Note_on_c, 0, 38, 72
6, 82440, Note_on_c, 0, 38, 0
6, 82560, Note_on_c, 0, 50, 72
6, 82920, Note_on_c, 0, 50, 0
6, 83520, Note_on_c, 0, 35, 72
6, 83880, Note_on_c, 0, 35, 0
6, 84000, Note_on_c, 0, 47, 72
6, 84360, Note_on_c, 0, 47, 0
6, 84960, Note_on_c, 0, 43, 72
6, 85320, Note_on_c, 0, 43, 0
6, 85440, Note_on_c, 0, 40, 72
6, 85800, Note_on_c, 0, 40, 0
6, 85920, Note_on_c, 0, 45, 72
6, 86280, Note_on_c, 0, 45, 0
6, 86400, Note_on_c, 0, 38, 72
6, 86784, Note_on_c, 0, 38, 0
6, 86880, Note_on_c, 0, 50, 72
6, 87264, Note_on_c, 0, 50, 0
6, 87840, Note_on_c, 0, 33, 105
6, 88224, Note_on_c, 0, 33, 0
6, 88800, Note_on_c, 0, 37, 105
6, 89184, Note_on_c, 0, 37, 0
6, 89280, Note_on_c, 0, 38, 105
6, 89664, Note_on_c, 0, 38, 0
6, 90720, Note_on_c, 0, 40, 105
6, 91104, Note_on_c, 0, 40, 0
6, 91680, Note_on_c, 0, 28, 105
6, 92064, Note_on_c, 0, 28, 0
6, 92160, Note_on_c, 0, 33, 105
6, 92544, Note_on_c, 0, 33, 0
6, 92640, Note_on_c, 0, 45, 105
6, 93024, Note_on_c, 0, 45, 0
6, 93600, Note_on_c, 0, 38, 72
6, 93960, Note_on_c, 0, 38, 0
6, 94080, Note_on_c, 0, 38, 72
6, 94440, Note_on_c, 0, 38, 0
6, 95040, Note_on_c, 0, 38, 72
6, 95400, Note_on_c, 0, 38, 0
6, 95520, Note_on_c, 0, 38, 72
6, 95880, Note_on_c, 0, 38, 0
6, 96480, Note_on_c, 0, 33, 72
6, 96840, Note_on_c, 0, 33, 0
6, 96960, Note_on_c, 0, 45, 72
6, 97320, Note_on_c, 0, 45, 0
6, 97920, Note_on_c, 0, 33, 72
6, 98280, Note_on_c, 0, 33, 0
6, 98400, Note_on_c, 0, 45, 72
6, 98760, Note_on_c, 0, 45, 0
6, 99360, Note_on_c, 0, 38, 72
6, 99720, Note_on_c, 0, 38, 0
6, 99840, Note_on_c, 0, 50, 72
6, 100200, Note_on_c, 0, 50, 0
6, 100800, Note_on_c, 0, 35, 72
6, 101160, Note_on_c, 0, 35, 0
6, 101280, Note_on_c, 0, 47, 72
6, 101640, Note_on_c, 0, 47, 0
6, 102240, Note_on_c, 0, 43, 72
6, 102600, Note_on_c, 0, 43, 0
6, 102720, Note_on_c, 0, 40, 72
6, 103080, Note_on_c, 0, 40, 0
6, 103200, Note_on_c, 0, 45, 72
6, 103560, Note_on_c, 0, 45, 0
6, 103680, Note_on_c, 0, 38, 72
6, 104064, Note_on_c, 0, 38, 0
6, 104160, Note_on_c, 0, 50, 72
6, 104544, Note_on_c, 0, 50, 0
6, 105120, Note_on_c, 0, 47, 105
6, 105408, Note_on_c, 0, 47, 0
6, 105600, Note_on_c, 0, 42, 105
6, 105888, Note_on_c, 0, 42, 0
6, 106080, Note_on_c, 0, 43, 105
6, 106368, Note_on_c, 0, 43, 0
6, 106560, Note_on_c, 0, 45, 105
6, 106848, Note_on_c, 0, 45, 0
6, 107040, Note_on_c, 0, 40, 105
6, 107328, Note_on_c, 0, 40, 0
6, 107520, Note_on_c, 0, 42, 105
6, 107808, Note_on_c, 0, 42, 0
6, 108000, Note_on_c, 0, 43, 105
6, 108288, Note_on_c, 0, 43, 0
6, 108480, Note_on_c, 0, 40, 105
6, 108768, Note_on_c, 0, 40, 0
6, 108960, Note_on_c, 0, 37, 105
6, 109248, Note_on_c, 0, 37, 0
6, 109440, Note_on_c, 0, 38, 105
6, 109728, Note_on_c, 0, 38, 0
6, 109920, Note_on_c, 0, 50, 105
6, 110208, Note_on_c, 0, 50, 0
6, 110400, Note_on_c, 0, 48, 105
6, 110688, Note_on_c, 0, 48, 0
6, 110880, Note_on_c, 0, 47, 105
6, 111168, Note_on_c, 0, 47, 0
6, 111360, Note_on_c, 0, 42, 105
6, 111648, Note_on_c, 0, 42, 0
6, 111840, Note_on_c, 0, 43, 105
6, 112128, Note_on_c, 0, 43, 0
6, 112320, Note_on_c, 0, 45, 105
6, 112608, Note_on_c, 0, 45, 0
6, 112800, Note_on_c, 0, 38, 105
6, 113088, Note_on_c, 0, 38, 0
6, 113280, Note_on_c, 0, 43, 105
6, 113568, Note_on_c, 0, 43, 0
6, 113760, Note_on_c, 0, 40, 105
6, 114048, Note_on_c, 0, 40, 0
6, 114240, Note_on_c, 0, 36, 105
6, 114528, Note_on_c, 0, 36, 0
6, 114720, Note_on_c, 0, 38, 105
6, 115008, Note_on_c, 0, 38, 0
6, 115200, Note_on_c, 0, 31, 92
6, 115488, Note_on_c, 0, 31, 0
6, 115680, Note_on_c, 0, 43, 92
6, 115968, Note_on_c, 0, 43, 0
6, 117600, Note_on_c, 0, 45, 72
6, 117912, Note_on_c, 0, 45, 0
6, 118080, Note_on_c, 0, 43, 72
6, 118560, Note_on_c, 0, 43, 0
6, 118560, Note_on_c, 0, 40, 72
6, 118872, Note_on_c, 0, 40, 0
6, 120480, Note_on_c, 0, 43, 72
6, 120792, Note_on_c, 0, 43, 0
6, 120960, Note_on_c, 0, 42, 72
6, 121272, Note_on_c, 0, 42, 0
6, 121440, Note_on_c, 0, 50, 92
6, 121752, Note_on_c, 0, 50, 0
6, 121920, Note_on_c, 0, 48, 92
6, 122232, Note_on_c, 0, 48, 0
6, 122400, Note_on_c, 0, 47, 105
6, 122712, Note_on_c, 0, 47, 0
6, 122880, Note_on_c, 0, 45, 105
6, 123192, Note_on_c, 0, 45, 0
6, 123360, Note_on_c, 0, 43, 105
6, 123672, Note_on_c, 0, 43, 0
6, 123840, Note_on_c, 0, 42, 105
6, 124152, Note_on_c, 0, 42, 0
6, 124320, Note_on_c, 0, 38, 105
6, 124632, Note_on_c, 0, 38, 0
6, 124800, Note_on_c, 0, 43, 105
6, 125112, Note_on_c, 0, 43, 0
6, 125280, Note_on_c, 0, 40, 105
6, 125592, Note_on_c, 0, 40, 0
6, 125760, Note_on_c, 0, 36, 105
6, 126072, Note_on_c, 0, 36, 0
6, 126240, Note_on_c, 0, 38, 105
6, 126552, Note_on_c, 0, 38, 0
6, 126720, Note_on_c, 0, 31, 92
6, 127104, Note_on_c, 0, 31, 0
6, 129600, Note_on_c, 0, 31, 1
6, 129984, Note_on_c, 0, 31, 0
6, 129984, End_track
7, 0, Start_track
7, 0, Program_c, 1, 40
7, 0, Control_c, 1, 10, 30
7, 0, Control_c, 1, 91, 80
7, 960, Note_on_c, 1, 74, 105
7, 1272, Note_on_c, 1, 74, 0
7, 1440, Note_on_c, 1, 79, 105
7, 1752, Note_on_c, 1, 79, 0
7, 1920, Note_on_c, 1, 81, 105
7, 2232, Note_on_c, 1, 81, 0
7, 2400, Note_on_c, 1, 83, 105
7, 2712, Note_on_c, 1, 83, 0
7, 2880, Note_on_c, 1, 84, 105
7, 3840, Note_on_c, 1, 84, 0
7, 3840, Note_on_c, 1, 81, 105
7, 4152, Note_on_c, 1, 81, 0
7, 4320, Note_on_c, 1, 83, 105
7, 4632, Note_on_c, 1, 83, 0
7, 4800, Note_on_c, 1, 79, 105
7, 5112, Note_on_c, 1, 79, 0
7, 5280, Note_on_c, 1, 81, 105
7, 5592, Note_on_c, 1, 81, 0
7, 5760, Note_on_c, 1, 79, 105
7, 6000, Note_on_c, 1, 79, 0
7, 6000, Note_on_c, 1, 78, 105
7, 6240, Note_on_c, 1, 78, 0
7, 6240, Note_on_c, 1, 76, 105
7, 6480, Note_on_c, 1, 76, 0
7, 6480, Note_on_c, 1, 74, 105
7, 6720, Note_on_c, 1, 74, 0
7, 6720, Note_on_c, 1, 76, 105
7, 6960, Note_on_c, 1, 76, 0
7, 6960, Note_on_c, 1, 78, 105
7, 7152, Note_on_c, 1, 78, 0
7, 7200, Note_on_c, 1, 79, 105
7, 7512, Note_on_c, 1, 79, 0
7, 7680, Note_on_c, 1, 81, 105
7, 7992, Note_on_c, 1, 81, 0
7, 8160, Note_on_c, 1, 83, 105
7, 8472, Note_on_c, 1, 83, 0
7, 8640, Note_on_c, 1, 84, 105
7, 8928, Note_on_c, 1, 84, 0
7, 9120, Note_on_c, 1, 83, 105
7, 9180, Note_on_c, 1, 83, 0
7, 9180, Note_on_c, 1, 81, 105
7, 9240, Note_on_c, 1, 81, 0
7, 9240, Note_on_c, 1, 83, 105
7, 9300, Note_on_c, 1, 83, 0
7, 9300, Note_on_c, 1, 81, 105
7, 9360, Note_on_c, 1, 81, 0
7, 9360, Note_on_c, 1, 79, 105
7, 9480, Note_on_c, 1, 79, 0
7, 9480, Note_on_c, 1, 81, 105
7, 9600, Note_on_c, 1, 81, 0
7, 9600, Note_on_c, 1, 83, 105
7, 9888, Note_on_c, 1, 83, 0
7, 10080, Note_on_c, 1, 81, 105
7, 10140, Note_on_c, 1, 81, 0
7, 10140, Note_on_c, 1, 79, 105
7, 10200, Note_on_c, 1, 79, 0
7, 10200, Note_on_c, 1, 81, 105
7, 10260, Note_on_c, 1, 81, 0
7, 10260, Note_on_c, 1, 79, 105
7, 10320, Note_on_c, 1, 79, 0
7, 10320, Note_on_c, 1, 78, 105
7, 10440, Note_on_c, 1, 78, 0
7, 10440, Note_on_c, 1, 79, 105
7, 10560, Note_on_c, 1, 79, 0
7, 10560, Note_on_c, 1, 81, 105
7, 10848, Note_on_c, 1, 81, 0
7, 11040, Note_on_c, 1, 78, 105
7, 11328, Note_on_c, 1, 78, 0
7, 11520, Note_on_c, 1, 79, 92
7, 11904, Note_on_c, 1, 79, 0
7, 12480, Note_on_c, 1, 74, 105
7, 12792, Note_on_c, 1, 74, 0
7, 12960, Note_on_c, 1, 79, 105
7, 13272, Note_on_c, 1, 79, 0
7, 13440, Note_on_c, 1, 81, 105
7, 13752, Note_on_c, 1, 81, 0
7, 13920, Note_on_c, 1, 83, 105
7, 14232, Note_on_c, 1, 83, 0
7, 14400, Note_on_c, 1, 84, 105
7, 15360, Note_on_c, 1, 84, 0
7, 15360, Note_on_c, 1, 81, 105
7, 15672, Note_on_c, 1, 81, 0
7, 15840, Note_on_c, 1, 83, 105
7, 16152, Note_on_c, 1, 83, 0
7, 16320, Note_on_c, 1, 79, 105
7, 16632, Note_on_c, 1, 79, 0
7, 16800, Note_on_c, 1, 81, 105
7, 17112, Note_on_c, 1, 81, 0
7, 17280, Note_on_c, 1, 79, 105
7, 17520, Note_on_c, 1, 79, 0
7, 17520, Note_on_c, 1, 78, 105
7, 17760, Note_on_c, 1, 78, 0
7, 17760, Note_on_c, 1, 76, 105
7, 18000, Note_on_c, 1, 76, 0
7, 18000, Note_on_c, 1, 74, 105
7, 18240, Note_on_c, 1, 74, 0
7, 18240, Note_on_c, 1, 76, 105
7, 18480, Note_on_c, 1, 76, 0
7, 18480, Note_on_c, 1, 78, 105
7, 18672, Note_on_c, 1, 78, 0
7, 18720, Note_on_c, 1, 79, 105
7, 19032, Note_on_c, 1, 79, 0
7, 19200, Note_on_c, 1, 81, 105
7, 19512, Note_on_c, 1, 81, 0
7, 19680, Note_on_c, 1, 83, 105
7, 19992, Note_on_c, 1, 83, 0
7, 20160, Note_on_c, 1, 84, 105
7, 20448, Note_on_c, 1, 84, 0
7, 20640, Note_on_c, 1, 83, 105
7, 20700, Note_on_c, 1, 83, 0
7, 20700, Note_on_c, 1, 81, 105
7, 20760, Note_on_c, 1, 81, 0
7, 20760, Note_on_c, 1, 83, 105
7, 20820, Note_on_c, 1, 83, 0
7, 20820, Note_on_c, 1, 81, 105
7, 20880, Note_on_c, 1, 81, 0
7, 20880, Note_on_c, 1, 79, 105
7, 21000, Note_on_c, 1, 79, 0
7, 21000, Note_on_c, 1, 81, 105
7, 21120, Note_on_c, 1, 81, 0
7, 21120, Note_on_c, 1, 83, 105
7, 21408, Note_on_c, 1, 83, 0
7, 21600, Note_on_c, 1, 81, 105
7, 21660, Note_on_c, 1, 81, 0
7, 21660, Note_on_c, 1, 79, 105
7, 21720, Note_on_c, 1, 79, 0
7, 21720, Note_on_c, 1, 81, 105
7, 21780, Note_on_c, 1, 81, 0
7, 21780, Note_on_c, 1, 79, 105
7, 21840, Note_on_c, 1, 79, 0
7, 21840, Note_on_c, 1, 78, 105
7, 21960, Note_on_c, 1, 78, 0
7, 21960, Note_on_c, 1, 79, 105
7, 22080, Note_on_c, 1, 79, 0
7, 22080, Note_on_c, 1, 81, 105
7, 22368, Note_on_c, 1, 81, 0
7, 22560, Note_on_c, 1, 78, 105
7, 22848, Note_on_c, 1, 78, 0
7, 23040, Note_on_c, 1, 79, 92
7, 23424, Note_on_c, 1, 79, 0
7, 24000, Note_on_c, 1, 83, 72
7, 24312, Note_on_c, 1, 83, 0
7, 24480, Note_on_c, 1, 81, 72
7, 24720, Note_on_c, 1, 81, 0
7, 24720, Note_on_c, 1, 79, 72
7, 24960, Note_on_c, 1, 79, 0
7, 24960, Note_on_c, 1, 78, 72
7, 25200, Note_on_c, 1, 78, 0
7, 25200, Note_on_c, 1, 76, 72
7, 25440, Note_on_c, 1, 76, 0
7, 25440, Note_on_c, 1, 75, 72
7, 25680, Note_on_c, 1, 75, 0
7, 25680, Note_on_c, 1, 78, 72
7, 25920, Note_on_c, 1, 78, 0
7, 25920, Note_on_c, 1, 76, 72
7, 26160, Note_on_c, 1, 76, 0
7, 26160, Note_on_c, 1, 78, 72
7, 26400, Note_on_c, 1, 78, 0
7, 26400, Note_on_c, 1, 79, 72
7, 26640, Note_on_c, 1, 79, 0
7, 26640, Note_on_c, 1, 80, 72
7, 26880, Note_on_c, 1, 80, 0
7, 26880, Note_on_c, 1, 83, 72
7, 27120, Note_on_c, 1, 83, 0
7, 27120, Note_on_c, 1, 81, 72
7, 27360, Note_on_c, 1, 81, 0
7, 27360, Note_on_c, 1, 79, 72
7, 27600, Note_on_c, 1, 79, 0
7, 27600, Note_on_c, 1, 78, 72
7, 27840, Note_on_c, 1, 78, 0
7, 27840, Note_on_c, 1, 76, 72
7, 28080, Note_on_c, 1, 76, 0
7, 28080, Note_on_c, 1, 74, 72
7, 28320, Note_on_c, 1, 74, 0
7, 28320, Note_on_c, 1, 73, 72
7, 28560, Note_on_c, 1, 73, 0
7, 28560, Note_on_c, 1, 76, 72
7, 28800, Note_on_c, 1, 76, 0
7, 28800, Note_on_c, 1, 74, 72
7, 29040, Note_on_c, 1, 74, 0
7, 29040, Note_on_c, 1, 76, 72
7, 29280, Note_on_c, 1, 76, 0
7, 29280, Note_on_c, 1, 78, 81
7, 29520, Note_on_c, 1, 78, 0
7, 29520, Note_on_c, 1, 79, 81
7, 29760, Note_on_c, 1, 79, 0
7, 29760, Note_on_c, 1, 81, 92
7, 30000, Note_on_c, 1, 81, 0
7, 30000, Note_on_c, 1, 78, 92
7, 30240, Note_on_c, 1, 78, 0
7, 30240, Note_on_c, 1, 79, 105
7, 30552, Note_on_c, 1, 79, 0
7, 30720, Note_on_c, 1, 81, 105
7, 31032, Note_on_c, 1, 81, 0
7, 31200, Note_on_c, 1, 83, 105
7, 31512, Note_on_c, 1, 83, 0
7, 31680, Note_on_c, 1, 84, 105
7, 31968, Note_on_c, 1, 84, 0
7, 32160, Note_on_c, 1, 83, 105
7, 32220, Note_on_c, 1, 83, 0
7, 32220, Note_on_c, 1, 81, 105
7, 32280, Note_on_c, 1, 81, 0
7, 32280, Note_on_c, 1, 83, 105
7, 32340, Note_on_c, 1, 83, 0
7, 32340, Note_on_c, 1, 81, 105
7, 32400, Note_on_c, 1, 81, 0
7, 32400, Note_on_c, 1, 79, 105
7, 32520, Note_on_c, 1, 79, 0
7, 32520, Note_on_c, 1, 81, 105
7, 32640, Note_on_c, 1, 81, 0
7, 32640, Note_on_c, 1, 83, 105
7, 32928, Note_on_c, 1, 83, 0
7, 33120, Note_on_c, 1, 81, 105
7, 33180, Note_on_c, 1, 81, 0
7, 33180, Note_on_c, 1, 79, 105
7, 33240, Note_on_c, 1, 79, 0
7, 33240, Note_on_c, 1, 81, 105
7, 33300, Note_on_c, 1, 81, 0
7, 33300, Note_on_c, 1, 79, 105
7, 33360, Note_on_c, 1, 79, 0
7, 33360, Note_on_c, 1, 78, 105
7, 33480, Note_on_c, 1, 78, 0
7, 33480, Note_on_c, 1, 79, 105
7, 33600, Note_on_c, 1, 79, 0
7, 33600, Note_on_c, 1, 81, 105
7, 33888, Note_on_c, 1, 81, 0
7, 34080, Note_on_c, 1, 78, 105
7, 34368, Note_on_c, 1, 78, 0
7, 34560, Note_on_c, 1, 79, 92
7, 34944, Note_on_c, 1, 79, 0
7, 35520, Note_on_c, 1, 83, 58
7, 35904, Note_on_c, 1, 83, 0
7, 36000, Note_on_c, 1, 81, 72
7, 36240, Note_on_c, 1, 81, 0
7, 36240, Note_on_c, 1, 79, 72
7, 36480, Note_on_c, 1, 79, 0
7, 36480, Note_on_c, 1, 78, 72
7, 36720, Note_on_c, 1, 78, 0
7, 36720, Note_on_c, 1, 76, 72
7, 36960, Note_on_c, 1, 76, 0
7, 36960, Note_on_c, 1, 75, 72
7, 37200, Note_on_c, 1, 75, 0
7, 37200, Note_on_c, 1, 78, 72
7, 37440, Note_on_c, 1, 78, 0
7, 37440, Note_on_c, 1, 76, 72
7, 37680, Note_on_c, 1, 76, 0
7, 37680, Note_on_c, 1, 78, 72
7, 37920, Note_on_c, 1, 78, 0
7, 37920, Note_on_c, 1, 79, 72
7, 38160, Note_on_c, 1, 79, 0
7, 38160, Note_on_c, 1, 80, 72
7, 38400, Note_on_c, 1, 80, 0
7, 38400, Note_on_c, 1, 83, 72
7, 38640, Note_on_c, 1, 83, 0
7, 38640, Note_on_c, 1, 81, 72
7, 38880, Note_on_c, 1, 81, 0
7, 38880, Note_on_c, 1, 79, 72
7, 39120, Note_on_c, 1, 79, 0
7, 39120, Note_on_c, 1, 78, 72
7, 39360, Note_on_c, 1, 78, 0
7, 39360, Note_on_c, 1, 76, 72
7, 39600, Note_on_c, 1, 76, 0
7, 39600, Note_on_c, 1, 74, 72
7, 39840, Note_on_c, 1, 74, 0
7, 39840, Note_on_c, 1, 73, 72
7, 40080, Note_on_c, 1, 73, 0
7, 40080, Note_on_c, 1, 76, 72
7, 40320, Note_on_c, 1, 76, 0
7, 40320, Note_on_c, 1, 74, 72
7, 40560, Note_on_c, 1, 74, 0
7, 40560, Note_on_c, 1, 76, 72
7, 40800, Note_on_c, 1, 76, 0
7, 40800, Note_on_c, 1, 78, 81
7, 41040, Note_on_c, 1, 78, 0
7, 41040, Note_on_c, 1, 79, 81
7, 41280, Note_on_c, 1, 79, 0
7, 41280, Note_on_c, 1, 81, 92
7, 41520, Note_on_c, 1, 81, 0
7, 41520, Note_on_c, 1, 78, 92
7, 41760, Note_on_c, 1, 78, 0
7, 41760, Note_on_c, 1, 79, 105
7, 42072, Note_on_c, 1, 79, 0
7, 42240, Note_on_c, 1, 81, 105
7, 42552, Note_on_c, 1, 81, 0
7, 42720, Note_on_c, 1, 83, 105
7, 43032, Note_on_c, 1, 83, 0
7, 43200, Note_on_c, 1, 84, 105
7, 43488, Note_on_c, 1, 84, 0
7, 43680, Note_on_c, 1, 83, 105
7, 43740, Note_on_c, 1, 83, 0
7, 43740, Note_on_c, 1, 81, 105
7, 43800, Note_on_c, 1, 81, 0
7, 43800, Note_on_c, 1, 83, 105
7, 43860, Note_on_c, 1, 83, 0
7, 43860, Note_on_c, 1, 81, 105
7, 43920, Note_on_c, 1, 81, 0
7, 43920, Note_on_c, 1, 79, 105
7, 44040, Note_on_c, 1, 79, 0
7, 44040, Note_on_c, 1, 81, 105
7, 44160, Note_on_c, 1, 81, 0
7, 44160, Note_on_c, 1, 83, 105
7, 44448, Note_on_c, 1, 83, 0
7, 44640, Note_on_c, 1, 81, 105
7, 44700, Note_on_c, 1, 81, 0
7, 44700, Note_on_c, 1, 79, 105
7, 44760, Note_on_c, 1, 79, 0
7, 44760, Note_on_c, 1, 81, 105
7, 44820, Note_on_c, 1, 81, 0
7, 44820, Note_on_c, 1, 79, 105
7, 44880, Note_on_c, 1, 79, 0
7, 44880, Note_on_c, 1, 78, 105
7, 45000, Note_on_c, 1, 78, 0
7, 45000, Note_on_c, 1, 79, 105
7, 45120, Note_on_c, 1, 79, 0
7, 45120, Note_on_c, 1, 81, 105
7, 45408, Note_on_c, 1, 81, 0
7, 45600, Note_on_c, 1, 78, 105
7, 45888, Note_on_c, 1, 78, 0
7, 46080, Note_on_c, 1, 79, 92
7, 46464, Note_on_c, 1, 79, 0
7, 47040, Note_on_c, 1, 78, 72
7, 47280, Note_on_c, 1, 78, 0
7, 47280, Note_on_c, 1, 79, 72
7, 47520, Note_on_c, 1, 79, 0
7, 47520, Note_on_c, 1, 81, 72
7, 48288, Note_on_c, 1, 81, 0
7, 48480, Note_on_c, 1, 83, 72
7, 48720, Note_on_c, 1, 83, 0
7, 48720, Note_on_c, 1, 85, 72
7, 48960, Note_on_c, 1, 85, 0
7, 48960, Note_on_c, 1, 86, 72
7, 49680, Note_on_c, 1, 86, 0
7, 49680, Note_on_c, 1, 85, 72
7, 49920, Note_on_c, 1, 85, 0
7, 49920, Note_on_c, 1, 83, 72
7, 50160, Note_on_c, 1, 83, 0
7, 50160, Note_on_c, 1, 81, 72
7, 50352, Note_on_c, 1, 81, 0
7, 50400, Note_on_c, 1, 79, 72
7, 50640, Note_on_c, 1, 79, 0
7, 50640, Note_on_c, 1, 78, 72
7, 50880, Note_on_c, 1, 78, 0
7, 50880, Note_on_c, 1, 79, 72
7, 51120, Note_on_c, 1, 79, 0
7, 51120, Note_on_c, 1, 81, 72
7, 51360, Note_on_c, 1, 81, 0
7, 51360, Note_on_c, 1, 82, 72
7, 51600, Note_on_c, 1, 82, 0
7, 51600, Note_on_c, 1, 83, 72
7, 51792, Note_on_c, 1, 83, 0
7, 51840, Note_on_c, 1, 76, 72
7, 52560, Note_on_c, 1, 76, 0
7, 52560, Note_on_c, 1, 75, 72
7, 52800, Note_on_c, 1, 75, 0
7, 52800, Note_on_c, 1, 76, 72
7, 53040, Note_on_c, 1, 76, 0
7, 53040, Note_on_c, 1, 79, 72
7, 53232, Note_on_c, 1, 79, 0
7, 53280, Note_on_c, 1, 78, 72
7, 53520, Note_on_c, 1, 78, 0
7, 53520, Note_on_c, 1, 77, 72
7, 53760, Note_on_c, 1, 77, 0
7, 53760, Note_on_c, 1, 78, 72
7, 54000, Note_on_c, 1, 78, 0
7, 54000, Note_on_c, 1, 79, 72
7, 54240, Note_on_c, 1, 79, 0
7, 54240, Note_on_c, 1, 80, 72
7, 54480, Note_on_c, 1, 80, 0
7, 54480, Note_on_c, 1, 81, 72
7, 54672, Note_on_c, 1, 81, 0
7, 54720, Note_on_c, 1, 74, 72
7, 54960, Note_on_c, 1, 74, 0
7, 54960, Note_on_c, 1, 73, 72
7, 55200, Note_on_c, 1, 73, 0
7, 55200, Note_on_c, 1, 74, 72
7, 55440, Note_on_c, 1, 74, 0
7, 55440, Note_on_c, 1, 76, 72
7, 55680, Note_on_c, 1, 76, 0
7, 55680, Note_on_c, 1, 77, 72
7, 55920, Note_on_c, 1, 77, 0
7, 55920, Note_on_c, 1, 78, 72
7, 56112, Note_on_c, 1, 78, 0
7, 56160, Note_on_c, 1, 76, 72
7, 56400, Note_on_c, 1, 76, 0
7, 56400, Note_on_c, 1, 78, 72
7, 56640, Note_on_c, 1, 78, 0
7, 56640, Note_on_c, 1, 79, 72
7, 56880, Note_on_c, 1, 79, 0
7, 56880, Note_on_c, 1, 76, 72
7, 57120, Note_on_c, 1, 76, 0
7, 57120, Note_on_c, 1, 73, 72
7, 57360, Note_on_c, 1, 73, 0
7, 57360, Note_on_c, 1, 76, 72
7, 57600, Note_on_c, 1, 76, 0
7, 57600, Note_on_c, 1, 74, 72
7, 57984, Note_on_c, 1, 74, 0
7, 58560, Note_on_c, 1, 78, 72
7, 58800, Note_on_c, 1, 78, 0
7, 58800, Note_on_c, 1, 79, 72
7, 59040, Note_on_c, 1, 79, 0
7, 59040, Note_on_c, 1, 81, 72
7, 59808, Note_on_c, 1, 81, 0
7, 60000, Note_on_c, 1, 83, 72
7, 60240, Note_on_c, 1, 83, 0
7, 60240, Note_on_c, 1, 85, 72
7, 60480, Note_on_c, 1, 85, 0
7, 60480, Note_on_c, 1, 86, 72
7, 61200, Note_on_c, 1, 86, 0
7, 61200, Note_on_c, 1, 85, 72
7, 61440, Note_on_c, 1, 85, 0
7, 61440, Note_on_c, 1, 83, 72
7, 61680, Note_on_c, 1, 83, 0
7, 61680, Note_on_c, 1, 81, 72
7, 61872, Note_on_c, 1, 81, 0
7, 61920, Note_on_c, 1, 79, 72
7, 62160, Note_on_c, 1, 79, 0
7, 62160, Note_on_c, 1, 78, 72
7, 62400, Note_on_c, 1, 78, 0
7, 62400, Note_on_c, 1, 79, 72
7, 62640, Note_on_c, 1, 79, 0
7, 62640, Note_on_c, 1, 81, 72
7, 62880, Note_on_c, 1, 81, 0
7, 62880, Note_on_c, 1, 82, 72
7, 63120, Note_on_c, 1, 82, 0
7, 63120, Note_on_c, 1, 83, 72
7, 63312, Note_on_c, 1, 83, 0
7, 63360, Note_on_c, 1, 76, 72
7, 64080, Note_on_c, 1, 76, 0
7, 64080, Note_on_c, 1, 75, 72
7, 64320, Note_on_c, 1, 75, 0
7, 64320, Note_on_c, 1, 76, 72
7, 64560, Note_on_c, 1, 76, 0
7, 64560, Note_on_c, 1, 79, 72
7, 64752, Note_on_c, 1, 79, 0
7, 64800, Note_on_c, 1, 78, 72
7, 65040, Note_on_c, 1, 78, 0
7, 65040, Note_on_c, 1, 77, 72
7, 65280, Note_on_c, 1, 77, 0
7, 65280, Note_on_c, 1, 78, 72
7, 65520, Note_on_c, 1, 78, 0
7, 65520, Note_on_c, 1, 79, 72
7, 65760, Note_on_c, 1, 79, 0
7, 65760, Note_on_c, 1, 80, 72
7, 66000, Note_on_c, 1, 80, 0
7, 66000, Note_on_c, 1, 81, 72
7, 66192, Note_on_c, 1, 81, 0
7, 66240, Note_on_c, 1, 74, 72
7, 66480, Note_on_c, 1, 74, 0
7, 66480, Note_on_c, 1, 73, 72
7, 66720, Note_on_c, 1, 73, 0
7, 66720, Note_on_c, 1, 74, 72
7, 66960, Note_on_c, 1, 74, 0
7, 66960, Note_on_c, 1, 76, 72
7, 67200, Note_on_c, 1, 76, 0
7, 67200, Note_on_c, 1, 77, 72
7, 67440, Note_on_c, 1, 77, 0
7, 67440, Note_on_c, 1, 78, 72
7, 67632, Note_on_c, 1, 78, 0
7, 67680, Note_on_c, 1, 76, 72
7, 67920, Note_on_c, 1, 76, 0
7, 67920, Note_on_c, 1, 78, 72
7, 68160, Note_on_c, 1, 78, 0
7, 68160, Note_on_c, 1, 79, 72
7, 68400, Note_on_c, 1, 79, 0
7, 68400, Note_on_c, 1, 76, 72
7, 68640, Note_on_c, 1, 76, 0
7, 68640, Note_on_c, 1, 73, 72
7, 68880, Note_on_c, 1, 73, 0
7, 68880, Note_on_c, 1, 76, 72
7, 69120, Note_on_c, 1, 76, 0
7, 69120, Note_on_c, 1, 74, 72
7, 69504, Note_on_c, 1, 74, 0
7, 70080, Note_on_c, 1, 73, 105
7, 70320, Note_on_c, 1, 73, 0
7, 70320, Note_on_c, 1, 74, 105
7, 70560, Note_on_c, 1, 74, 0
7, 70560, Note_on_c, 1, 76, 105
7, 70800, Note_on_c, 1, 76, 0
7, 70800, Note_on_c, 1, 78, 105
7, 71040, Note_on_c, 1, 78, 0
7, 71040, Note_on_c, 1, 79, 105
7, 71280, Note_on_c, 1, 79, 0
7, 71280, Note_on_c, 1, 81, 105
7, 71520, Note_on_c, 1, 81, 0
7, 71520, Note_on_c, 1, 83, 105
7, 71760, Note_on_c, 1, 83, 0
7, 71760, Note_on_c, 1, 81, 105
7, 72000, Note_on_c, 1, 81, 0
7, 72000, Note_on_c, 1, 79, 105
7, 72240, Note_on_c, 1, 79, 0
7, 72240, Note_on_c, 1, 78, 105
7, 72480, Note_on_c, 1, 78, 0
7, 72480, Note_on_c, 1, 76, 105
7, 72720, Note_on_c, 1, 76, 0
7, 72720, Note_on_c, 1, 74, 105
7, 72912, Note_on_c, 1, 74, 0
7, 72960, Note_on_c, 1, 76, 105
7, 73200, Note_on_c, 1, 76, 0
7, 73200, Note_on_c, 1, 78, 105
7, 73440, Note_on_c, 1, 78, 0
7, 73440, Note_on_c, 1, 80, 105
7, 73680, Note_on_c, 1, 80, 0
7, 73680, Note_on_c, 1, 81, 105
7, 73920, Note_on_c, 1, 81, 0
7, 73920, Note_on_c, 1, 83, 105
7, 74160, Note_on_c, 1, 83, 0
7, 74160, Note_on_c, 1, 85, 105
7, 74400, Note_on_c, 1, 85, 0
7, 74400, Note_on_c, 1, 86, 105
7, 74640, Note_on_c, 1, 86, 0
7, 74640, Note_on_c, 1, 83, 105
7, 74880, Note_on_c, 1, 83, 0
7, 74880, Note_on_c, 1, 81, 105
7, 75456, Note_on_c, 1, 81, 0
7, 75600, Note_on_c, 1, 79, 72
7, 75840, Note_on_c, 1, 79, 0
7, 75840, Note_on_c, 1, 78, 72
7, 76080, Note_on_c, 1, 78, 0
7, 76080, Note_on_c, 1, 79, 72
7, 76272, Note_on_c, 1, 79, 0
7, 76320, Note_on_c, 1, 81, 72
7, 77040, Note_on_c, 1, 81, 0
7, 77040, Note_on_c, 1, 82, 72
7, 77280, Note_on_c, 1, 82, 0
7, 77280, Note_on_c, 1, 83, 72
7, 77520, Note_on_c, 1, 83, 0
7, 77520, Note_on_c, 1, 85, 72
7, 77712, Note_on_c, 1, 85, 0
7, 77760, Note_on_c, 1, 86, 72
7, 78480, Note_on_c, 1, 86, 0
7, 78480, Note_on_c, 1, 85, 72
7, 78720, Note_on_c, 1, 85, 0
7, 78720, Note_on_c, 1, 83, 72
7, 78960, Note_on_c, 1, 83, 0
7, 78960, Note_on_c, 1, 81, 72
7, 79152, Note_on_c, 1, 81, 0
7, 79200, Note_on_c, 1, 79, 72
7, 79440, Note_on_c, 1, 79, 0
7, 79440, Note_on_c, 1, 78, 72
7, 79680, Note_on_c, 1, 78, 0
7, 79680, Note_on_c, 1, 79, 72
7, 79920, Note_on_c, 1, 79, 0
7, 79920, Note_on_c, 1, 81, 72
7, 80160, Note_on_c, 1, 81, 0
7, 80160, Note_on_c, 1, 82, 72
7, 80400, Note_on_c, 1, 82, 0
7, 80400, Note_on_c, 1, 83, 72
7, 80592, Note_on_c, 1, 83, 0
7, 80640, Note_on_c, 1, 76, 72
7, 81360, Note_on_c, 1, 76, 0
7, 81360, Note_on_c, 1, 75, 72
7, 81600, Note_on_c, 1, 75, 0
7, 81600, Note_on_c, 1, 76, 72
7, 81840, Note_on_c, 1, 76, 0
7, 81840, Note_on_c, 1, 79, 72
7, 82032, Note_on_c, 1, 79, 0
7, 82080, Note_on_c, 1, 78, 72
7, 82320, Note_on_c, 1, 78, 0
7, 82320, Note_on_c, 1, 77, 72
7, 82560, Note_on_c, 1, 77, 0
7, 82560, Note_on_c, 1, 78, 72
7, 82800, Note_on_c, 1, 78, 0
7, 82800, Note_on_c, 1, 79, 72
7, 83040, Note_on_c, 1, 79, 0
7, 83040, Note_on_c, 1, 80, 72
7, 83280, Note_on_c, 1, 80, 0
7, 83280, Note_on_c, 1, 81, 72
7, 83472, Note_on_c, 1, 81, 0
7, 83520, Note_on_c, 1, 74, 72
7, 83760, Note_on_c, 1, 74, 0
7, 83760, Note_on_c, 1, 73, 72
7, 84000, Note_on_c, 1, 73, 0
7, 84000, Note_on_c, 1, 74, 72
7, 84240, Note_on_c, 1, 74, 0
7, 84240, Note_on_c, 1, 76, 72
7, 84480, Note_on_c, 1, 76, 0
7, 84480, Note_on_c, 1, 77, 72
7, 84720, Note_on_c, 1, 77, 0
7, 84720, Note_on_c, 1, 78, 72
7, 84912, Note_on_c, 1, 78, 0
7, 84960, Note_on_c, 1, 76, 72
7, 85200, Note_on_c, 1, 76, 0
7, 85200, Note_on_c, 1, 78, 72
7, 85440, Note_on_c, 1, 78, 0
7, 85440, Note_on_c, 1, 79, 72
7, 85680, Note_on_c, 1, 79, 0
7, 85680, Note_on_c, 1, 76, 72
7, 85920, Note_on_c, 1, 76, 0
7, 85920, Note_on_c, 1, 73, 72
7, 86160, Note_on_c, 1, 73, 0
7, 86160, Note_on_c, 1, 76, 72
7, 86400, Note_on_c, 1, 76, 0
7, 86400, Note_on_c, 1, 74, 58
7, 86784, Note_on_c, 1, 74, 0
7, 87360, Note_on_c, 1, 73, 58
7, 87600, Note_on_c, 1, 73, 0
7, 87600, Note_on_c, 1, 74, 105
7, 87840, Note_on_c, 1, 74, 0
7, 87840, Note_on_c, 1, 76, 105
7, 88080, Note_on_c, 1, 76, 0
7, 88080, Note_on_c, 1, 78, 105
7, 88320, Note_on_c, 1, 78, 0
7, 88320, Note_on_c, 1, 79, 105
7, 88560, Note_on_c, 1, 79, 0
7, 88560, Note_on_c, 1, 81, 105
7, 88800, Note_on_c, 1, 81, 0
7, 88800, Note_on_c, 1, 83, 105
7, 89040, Note_on_c, 1, 83, 0
7, 89040, Note_on_c, 1, 81, 105
7, 89280, Note_on_c, 1, 81, 0
7, 89280, Note_on_c, 1, 79, 105
7, 89520, Note_on_c, 1, 79, 0
7, 89520, Note_on_c, 1, 78, 105
7, 89760, Note_on_c, 1, 78, 0
7, 89760, Note_on_c, 1, 76, 105
7, 90000, Note_on_c, 1, 76, 0
7, 90000, Note_on_c, 1, 74, 105
7, 90192, Note_on_c, 1, 74, 0
7, 90240, Note_on_c, 1, 76, 105
7, 90480, Note_on_c, 1, 76, 0
7, 90480, Note_on_c, 1, 78, 105
7, 90720, Note_on_c, 1, 78, 0
7, 90720, Note_on_c, 1, 80, 105
7, 90960, Note_on_c, 1, 80, 0
7, 90960, Note_on_c, 1, 81, 105
7, 91200, Note_on_c, 1, 81, 0
7, 91200, Note_on_c, 1, 83, 105
7, 91440, Note_on_c, 1, 83, 0
7, 91440, Note_on_c, 1, 85, 105
7, 91680, Note_on_c, 1, 85, 0
7, 91680, Note_on_c, 1, 86, 105
7, 91920, Note_on_c, 1, 86, 0
7, 91920, Note_on_c, 1, 83, 105
7, 92160, Note_on_c, 1, 83, 0
7, 92160, Note_on_c, 1, 81, 105
7, 92736, Note_on_c, 1, 81, 0
7, 92880, Note_on_c, 1, 79, 72
7, 93120, Note_on_c, 1, 79, 0
7, 93120, Note_on_c, 1, 78, 72
7, 93360, Note_on_c, 1, 78, 0
7, 93360, Note_on_c, 1, 79, 72
7, 93552, Note_on_c, 1, 79, 0
7, 93600, Note_on_c, 1, 81, 72
7, 94320, Note_on_c, 1, 81, 0
7, 94320, Note_on_c, 1, 82, 72
7, 94560, Note_on_c, 1, 82, 0
7, 94560, Note_on_c, 1, 83, 72
7, 94800, Note_on_c, 1, 83, 0
7, 94800, Note_on_c, 1, 85, 72
7, 94992, Note_on_c, 1, 85, 0
7, 95040, Note_on_c, 1, 86, 72
7, 95760, Note_on_c, 1, 86, 0
7, 95760, Note_on_c, 1, 85, 72
7, 96000, Note_on_c, 1, 85, 0
7, 96000, Note_on_c, 1, 83, 72
7, 96240, Note_on_c, 1, 83, 0
7, 96240, Note_on_c, 1, 81, 72
7, 96432, Note_on_c, 1, 81, 0
7, 96480, Note_on_c, 1, 79, 72
7, 96720, Note_on_c, 1, 79, 0
7, 96720, Note_on_c, 1, 78, 72
7, 96960, Note_on_c, 1, 78, 0
7, 96960, Note_on_c, 1, 79, 72
7, 97200, Note_on_c, 1, 79, 0
7, 97200, Note_on_c, 1, 81, 72
7, 97440, Note_on_c, 1, 81, 0
7, 97440, Note_on_c, 1, 82, 72
7, 97680, Note_on_c, 1, 82, 0
7, 97680, Note_on_c, 1, 83, 72
7, 97872, Note_on_c, 1, 83, 0
7, 97920, Note_on_c, 1, 76, 72
7, 98640, Note_on_c, 1, 76, 0
7, 98640, Note_on_c, 1, 75, 72
7, 98880, Note_on_c, 1, 75, 0
7, 98880, Note_on_c, 1, 76, 72
7, 99120, Note_on_c, 1, 76, 0
7, 99120, Note_on_c, 1, 79, 72
7, 99312, Note_on_c, 1, 79, 0
7, 99360, Note_on_c, 1, 78, 72
7, 99600, Note_on_c, 1, 78, 0
7, 99600, Note_on_c, 1, 77, 72
7, 99840, Note_on_c, 1, 77, 0
7, 99840, Note_on_c, 1, 78, 72
7, 100080, Note_on_c, 1, 78, 0
7, 100080, Note_on_c, 1, 79, 72
7, 100320, Note_on_c, 1, 79, 0
7, 100320, Note_on_c, 1, 80, 72
7, 100560, Note_on_c, 1, 80, 0
7, 100560, Note_on_c, 1, 81, 72
7, 100752, Note_on_c, 1, 81, 0
7, 100800, Note_on_c, 1, 74, 72
7, 101040, Note_on_c, 1, 74, 0
7, 101040, Note_on_c, 1, 73, 72
7, 101280, Note_on_c, 1, 73, 0
7, 101280, Note_on_c, 1, 74, 72
7, 101520, Note_on_c, 1, 74, 0
7, 101520, Note_on_c, 1, 76, 72
7, 101760, Note_on_c, 1, 76, 0
7, 101760, Note_on_c, 1, 77, 72
7, 102000, Note_on_c, 1, 77, 0
7, 102000, Note_on_c, 1, 78, 72
7, 102192, Note_on_c, 1, 78, 0
7, 102240, Note_on_c, 1, 76, 72
7, 102480, Note_on_c, 1, 76, 0
7, 102480, Note_on_c, 1, 78, 72
7, 102720, Note_on_c, 1, 78, 0
7, 102720, Note_on_c, 1, 79, 72
7, 102960, Note_on_c, 1, 79, 0
7, 102960, Note_on_c, 1, 76, 72
7, 103200, Note_on_c, 1, 76, 0
7, 103200, Note_on_c, 1, 73, 72
7, 103440, Note_on_c, 1, 73, 0
7, 103440, Note_on_c, 1, 76, 72
7, 103680, Note_on_c, 1, 76, 0
7, 103680, Note_on_c, 1, 74, 58
7, 104064, Note_on_c, 1, 74, 0
7, 104640, Note_on_c, 1, 74, 105
7, 104928, Note_on_c, 1, 74, 0
7, 105120, Note_on_c, 1, 79, 105
7, 105432, Note_on_c, 1, 79, 0
7, 105600, Note_on_c, 1, 81, 105
7, 105912, Note_on_c, 1, 81, 0
7, 106080, Note_on_c, 1, 83, 105
7, 106392, Note_on_c, 1, 83, 0
7, 106560, Note_on_c, 1, 84, 105
7, 107520, Note_on_c, 1, 84, 0
7, 107520, Note_on_c, 1, 81, 105
7, 107832, Note_on_c, 1, 81, 0
7, 108000, Note_on_c, 1, 83, 105
7, 108312, Note_on_c, 1, 83, 0
7, 108480, Note_on_c, 1, 79, 105
7, 108792, Note_on_c, 1, 79, 0
7, 108960, Note_on_c, 1, 81, 105
7, 109272, Note_on_c, 1, 81, 0
7, 109440, Note_on_c, 1, 79, 105
7, 109680, Note_on_c, 1, 79, 0
7, 109680, Note_on_c, 1, 78, 105
7, 109920, Note_on_c, 1, 78, 0
7, 109920, Note_on_c, 1, 76, 105
7, 110160, Note_on_c, 1, 76, 0
7, 110160, Note_on_c, 1, 74, 105
7, 110400, Note_on_c, 1, 74, 0
7, 110400, Note_on_c, 1, 76, 105
7, 110640, Note_on_c, 1, 76, 0
7, 110640, Note_on_c, 1, 78, 105
7, 110832, Note_on_c, 1, 78, 0
7, 110880, Note_on_c, 1, 79, 105
7, 111192, Note_on_c, 1, 79, 0
7, 111360, Note_on_c, 1, 81, 105
7, 111672, Note_on_c, 1, 81, 0
7, 111840, Note_on_c, 1, 83, 105
7, 112152, Note_on_c, 1, 83, 0
7, 112320, Note_on_c, 1, 84, 105
7, 112608, Note_on_c, 1, 84, 0
7, 112800, Note_on_c, 1, 83, 105
7, 112860, Note_on_c, 1, 83, 0
7, 112860, Note_on_c, 1, 81, 105
7, 112920, Note_on_c, 1, 81, 0
7, 112920, Note_on_c, 1, 83, 105
7, 112980, Note_on_c, 1, 83, 0
7, 112980, Note_on_c, 1, 81, 105
7, 113040, Note_on_c, 1, 81, 0
7, 113040, Note_on_c, 1, 79, 105
7, 113160, Note_on_c, 1, 79, 0
7, 113160, Note_on_c, 1, 81, 105
7, 113280, Note_on_c, 1, 81, 0
7, 113280, Note_on_c, 1, 83, 105
7, 113568, Note_on_c, 1, 83, 0
7, 113760, Note_on_c, 1, 81, 105
7, 113820, Note_on_c, 1, 81, 0
7, 113820, Note_on_c, 1, 79, 105
7, 113880, Note_on_c, 1, 79, 0
7, 113880, Note_on_c, 1, 81, 105
7, 113940, Note_on_c, 1, 81, 0
7, 113940, Note_on_c, 1, 79, 105
7, 114000, Note_on_c, 1, 79, 0
7, 114000, Note_on_c, 1, 78, 105
7, 114120, Note_on_c, 1, 78, 0
7, 114120, Note_on_c, 1, 79, 105
7, 114240, Note_on_c, 1, 79, 0
7, 114240, Note_on_c, 1, 81, 105
7, 114528, Note_on_c, 1, 81, 0
7, 114720, Note_on_c, 1, 78, 105
7, 115008, Note_on_c, 1, 78, 0
7, 115200, Note_on_c, 1, 79, 92
7, 115584, Note_on_c, 1, 79, 0
7, 116160, Note_on_c, 1, 83, 72
7, 116472, Note_on_c, 1, 83, 0
7, 116640, Note_on_c, 1, 81, 72
7, 116880, Note_on_c, 1, 81, 0
7, 116880, Note_on_c, 1, 79, 72
7, 117120, Note_on_c, 1, 79, 0
7, 117120, Note_on_c, 1, 78, 72
7, 117360, Note_on_c, 1, 78, 0
7, 117360, Note_on_c, 1, 76, 72
7, 117600, Note_on_c, 1, 76, 0
7, 117600, Note_on_c, 1, 75, 72
7, 117840, Note_on_c, 1, 75, 0
7, 117840, Note_on_c, 1, 78, 72
7, 118080, Note_on_c, 1, 78, 0
7, 118080, Note_on_c, 1, 76, 72
7, 118320, Note_on_c, 1, 76, 0
7, 118320, Note_on_c, 1, 78, 72
7, 118560, Note_on_c, 1, 78, 0
7, 118560, Note_on_c, 1, 79, 72
7, 118800, Note_on_c, 1, 79, 0
7, 118800, Note_on_c, 1, 80, 72
7, 119040, Note_on_c, 1, 80, 0
7, 119040, Note_on_c, 1, 83, 72
7, 119280, Note_on_c, 1, 83, 0
7, 119280, Note_on_c, 1, 81, 72
7, 119520, Note_on_c, 1, 81, 0
7, 119520, Note_on_c, 1, 79, 72
7, 119760, Note_on_c, 1, 79, 0
7, 119760, Note_on_c, 1, 78, 72
7, 120000, Note_on_c, 1, 78, 0
7, 120000, Note_on_c, 1, 76, 72
7, 120240, Note_on_c, 1, 76, 0
7, 120240, Note_on_c, 1, 74, 72
7, 120480, Note_on_c, 1, 74, 0
7, 120480, Note_on_c, 1, 73, 72
7, 120720, Note_on_c, 1, 73, 0
7, 120720, Note_on_c, 1, 76, 72
7, 120960, Note_on_c, 1, 76, 0
7, 120960, Note_on_c, 1, 74, 72
7, 121200, Note_on_c, 1, 74, 0
7, 121200, Note_on_c, 1, 76, 72
7, 121440, Note_on_c, 1, 76, 0
7, 121440, Note_on_c, 1, 78, 81
7, 121680, Note_on_c, 1, 78, 0
7, 121680, Note_on_c, 1, 79, 81
7, 121920, Note_on_c, 1, 79, 0
7, 121920, Note_on_c, 1, 81, 92
7, 122160, Note_on_c, 1, 81, 0
7, 122160, Note_on_c, 1, 78, 92
7, 122400, Note_on_c, 1, 78, 0
7, 122400, Note_on_c, 1, 79, 105
7, 122712, Note_on_c, 1, 79, 0
7, 122880, Note_on_c, 1, 81, 105
7, 123192, Note_on_c, 1, 81, 0
7, 123360, Note_on_c, 1, 83, 105
7, 123672, Note_on_c, 1, 83, 0
7, 123840, Note_on_c, 1, 84, 105
7, 124128, Note_on_c, 1, 84, 0
7, 124320, Note_on_c, 1, 83, 105
7, 124380, Note_on_c, 1, 83, 0
7, 124380, Note_on_c, 1, 81, 105
7, 124440, Note_on_c, 1, 81, 0
7, 124440, Note_on_c, 1, 83, 105
7, 124500, Note_on_c, 1, 83, 0
7, 124500, Note_on_c, 1, 81, 105
7, 124560, Note_on_c, 1, 81, 0
7, 124560, Note_on_c, 1, 79, 105
7, 124680, Note_on_c, 1, 79, 0
7, 124680, Note_on_c, 1, 81, 105
7, 124800, Note_on_c, 1, 81, 0
7, 124800, Note_on_c, 1, 83, 105
7, 125088, Note_on_c, 1, 83, 0
7, 125280, Note_on_c, 1, 81, 105
7, 125340, Note_on_c, 1, 81, 0
7, 125340, Note_on_c, 1, 79, 105
7, 125400, Note_on_c, 1, 79, 0
7, 125400, Note_on_c, 1, 81, 105
7, 125460, Note_on_c, 1, 81, 0
7, 125460, Note_on_c, 1, 79, 105
7, 125520, Note_on_c, 1, 79, 0
7, 125520, Note_on_c, 1, 78, 105
7, 125640, Note_on_c, 1, 78, 0
7, 125640, Note_on_c, 1, 79, 105
7, 125760, Note_on_c, 1, 79, 0
7, 125760, Note_on_c, 1, 81, 105
7, 126048, Note_on_c, 1, 81, 0
7, 126240, Note_on_c, 1, 78, 105
7, 126528, Note_on_c, 1, 78, 0
7, 126720, Note_on_c, 1, 79, 92
7, 127104, Note_on_c, 1, 79, 0
7, 127104, End_track
8, 0, Start_track
8, 0, Program_c, 1, 40
8, 0, Control_c, 1, 10, 99
8, 0, Control_c, 1, 91, 85
8, 960, Note_on_c, 1, 62, 105
8, 1248, Note_on_c, 1, 62, 0
8, 1440, Note_on_c, 1, 67, 105
8, 1728, Note_on_c, 1, 67, 0
8, 1920, Note_on_c, 1, 69, 105
8, 2208, Note_on_c, 1, 69, 0
8, 2400, Note_on_c, 1, 71, 105
8, 2688, Note_on_c, 1, 71, 0
8, 2880, Note_on_c, 1, 72, 105
8, 3648, Note_on_c, 1, 72, 0
8, 3840, Note_on_c, 1, 69, 105
8, 4128, Note_on_c, 1, 69, 0
8, 4320, Note_on_c, 1, 71, 105
8, 4608, Note_on_c, 1, 71, 0
8, 4800, Note_on_c, 1, 67, 105
8, 5088, Note_on_c, 1, 67, 0
8, 5280, Note_on_c, 1, 69, 105
8, 5568, Note_on_c, 1, 69, 0
8, 5760, Note_on_c, 1, 67, 105
8, 5952, Note_on_c, 1, 67, 0
8, 6000, Note_on_c, 1, 66, 105
8, 6192, Note_on_c, 1, 66, 0
8, 6240, Note_on_c, 1, 64, 105
8, 6432, Note_on_c, 1, 64, 0
8, 6480, Note_on_c, 1, 62, 105
8, 6672, Note_on_c, 1, 62, 0
8, 6720, Note_on_c, 1, 64, 105
8, 6912, Note_on_c, 1, 64, 0
8, 6960, Note_on_c, 1, 66, 105
8, 7152, Note_on_c, 1, 66, 0
8, 7200, Note_on_c, 1, 67, 105
8, 7488, Note_on_c, 1, 67, 0
8, 7680, Note_on_c, 1, 69, 105
8, 7968, Note_on_c, 1, 69, 0
8, 8160, Note_on_c, 1, 71, 105
8, 8448, Note_on_c, 1, 71, 0
8, 8640, Note_on_c, 1, 72, 105
8, 8928, Note_on_c, 1, 72, 0
8, 9120, Note_on_c, 1, 79, 105
8, 9180, Note_on_c, 1, 79, 0
8, 9180, Note_on_c, 1, 78, 105
8, 9240, Note_on_c, 1, 78, 0
8, 9240, Note_on_c, 1, 79, 105
8, 9300, Note_on_c, 1, 79, 0
8, 9300, Note_on_c, 1, 78, 105
8, 9360, Note_on_c, 1, 78, 0
8, 9360, Note_on_c, 1, 76, 105
8, 9480, Note_on_c, 1, 76, 0
8, 9480, Note_on_c, 1, 78, 105
8, 9600, Note_on_c, 1, 78, 0
8, 9600, Note_on_c, 1, 79, 105
8, 9888, Note_on_c, 1, 79, 0
8, 10080, Note_on_c, 1, 72, 105
8, 10140, Note_on_c, 1, 72, 0
8, 10140, Note_on_c, 1, 71, 105
8, 10200, Note_on_c, 1, 71, 0
8, 10200, Note_on_c, 1, 72, 105
8, 10260, Note_on_c, 1, 72, 0
8, 10260, Note_on_c, 1, 71, 105
8, 10320, Note_on_c, 1, 71, 0
8, 10320, Note_on_c, 1, 69, 105
8, 10440, Note_on_c, 1, 69, 0
8, 10440, Note_on_c, 1, 71, 105
8, 10560, Note_on_c, 1, 71, 0
8, 10560, Note_on_c, 1, 72, 105
8, 10848, Note_on_c, 1, 72, 0
8, 11040, Note_on_c, 1, 69, 105
8, 11328, Note_on_c, 1, 69, 0
8, 11520, Note_on_c, 1, 71, 92
8, 11808, Note_on_c, 1, 71, 0
8, 12480, Note_on_c, 1, 62, 105
8, 12792, Note_on_c, 1, 62, 0
8, 12960, Note_on_c, 1, 67, 105
8, 13248, Note_on_c, 1, 67, 0
8, 13440, Note_on_c, 1, 69, 105
8, 13728, Note_on_c, 1, 69, 0
8, 13920, Note_on_c, 1, 71, 105
8, 14208, Note_on_c, 1, 71, 0
8, 14400, Note_on_c, 1, 72, 105
8, 15168, Note_on_c, 1, 72, 0
8, 15360, Note_on_c, 1, 69, 105
8, 15648, Note_on_c, 1, 69, 0
8, 15840, Note_on_c, 1, 71, 105
8, 16128, Note_on_c, 1, 71, 0
8, 16320, Note_on_c, 1, 67, 105
8, 16608, Note_on_c, 1, 67, 0
8, 16800, Note_on_c, 1, 69, 105
8, 17088, Note_on_c, 1, 69, 0
8, 17280, Note_on_c, 1, 67, 105
8, 17472, Note_on_c, 1, 67, 0
8, 17520, Note_on_c, 1, 66, 105
8, 17712, Note_on_c, 1, 66, 0
8, 17760, Note_on_c, 1, 64, 105
8, 17952, Note_on_c, 1, 64, 0
8, 18000, Note_on_c, 1, 62, 105
8, 18192, Note_on_c, 1, 62, 0
8, 18240, Note_on_c, 1, 64, 105
8, 18432, Note_on_c, 1, 64, 0
8, 18480, Note_on_c, 1, 66, 105
8, 18672, Note_on_c, 1, 66, 0
8, 18720, Note_on_c, 1, 67, 105
8, 19008, Note_on_c, 1, 67, 0
8, 19200, Note_on_c, 1, 69, 105
8, 19488, Note_on_c, 1, 69, 0
8, 19680, Note_on_c, 1, 71, 105
8, 19968, Note_on_c, 1, 71, 0
8, 20160, Note_on_c, 1, 72, 105
8, 20448, Note_on_c, 1, 72, 0
8, 20640, Note_on_c, 1, 79, 105
8, 20700, Note_on_c, 1, 79, 0
8, 20700, Note_on_c, 1, 78, 105
8, 20760, Note_on_c, 1, 78, 0
8, 20760, Note_on_c, 1, 79, 105
8, 20820, Note_on_c, 1, 79, 0
8, 20820, Note_on_c, 1, 78, 105
8, 20880, Note_on_c, 1, 78, 0
8, 20880, Note_on_c, 1, 76, 105
8, 21000, Note_on_c, 1, 76, 0
8, 21000, Note_on_c, 1, 78, 105
8, 21120, Note_on_c, 1, 78, 0
8, 21120, Note_on_c, 1, 79, 105
8, 21408, Note_on_c, 1, 79, 0
8, 21600, Note_on_c, 1, 72, 105
8, 21660, Note_on_c, 1, 72, 0
8, 21660, Note_on_c, 1, 71, 105
8, 21720, Note_on_c, 1, 71, 0
8, 21720, Note_on_c, 1, 72, 105
8, 21780, Note_on_c, 1, 72, 0
8, 21780, Note_on_c, 1, 71, 105
8, 21840, Note_on_c, 1, 71, 0
8, 21840, Note_on_c, 1, 69, 105
8, 21960, Note_on_c, 1, 69, 0
8, 21960, Note_on_c, 1, 71, 105
8, 22080, Note_on_c, 1, 71, 0
8, 22080, Note_on_c, 1, 72, 105
8, 22368, Note_on_c, 1, 72, 0
8, 22560, Note_on_c, 1, 69, 105
8, 22848, Note_on_c, 1, 69, 0
8, 23040, Note_on_c, 1, 71, 92
8, 23328, Note_on_c, 1, 71, 0
8, 24000, Note_on_c, 1, 71, 58
8, 24312, Note_on_c, 1, 71, 0
8, 24480, Note_on_c, 1, 69, 58
8, 24720, Note_on_c, 1, 69, 0
8, 24720, Note_on_c, 1, 67, 58
8, 24960, Note_on_c, 1, 67, 0
8, 24960, Note_on_c, 1, 66, 58
8, 25200, Note_on_c, 1, 66, 0
8, 25200, Note_on_c, 1, 64, 58
8, 25440, Note_on_c, 1, 64, 0
8, 25440, Note_on_c, 1, 63, 58
8, 25680, Note_on_c, 1, 63, 0
8, 25680, Note_on_c, 1, 66, 58
8, 25920, Note_on_c, 1, 66, 0
8, 25920, Note_on_c, 1, 64, 58
8, 26160, Note_on_c, 1, 64, 0
8, 26160, Note_on_c, 1, 66, 58
8, 26400, Note_on_c, 1, 66, 0
8, 26400, Note_on_c, 1, 67, 58
8, 26640, Note_on_c, 1, 67, 0
8, 26640, Note_on_c, 1, 68, 58
8, 26880, Note_on_c, 1, 68, 0
8, 26880, Note_on_c, 1, 71, 58
8, 27120, Note_on_c, 1, 71, 0
8, 27120, Note_on_c, 1, 69, 58
8, 27360, Note_on_c, 1, 69, 0
8, 27360, Note_on_c, 1, 67, 58
8, 27600, Note_on_c, 1, 67, 0
8, 27600, Note_on_c, 1, 66, 58
8, 27840, Note_on_c, 1, 66, 0
8, 27840, Note_on_c, 1, 64, 58
8, 28080, Note_on_c, 1, 64, 0
8, 28080, Note_on_c, 1, 62, 58
8, 28320, Note_on_c, 1, 62, 0
8, 28320, Note_on_c, 1, 61, 58
8, 28560, Note_on_c, 1, 61, 0
8, 28560, Note_on_c, 1, 64, 58
8, 28800, Note_on_c, 1, 64, 0
8, 28800, Note_on_c, 1, 62, 58
8, 29040, Note_on_c, 1, 62, 0
8, 29040, Note_on_c, 1, 64, 58
8, 29280, Note_on_c, 1, 64, 0
8, 29280, Note_on_c, 1, 66, 81
8, 29520, Note_on_c, 1, 66, 0
8, 29520, Note_on_c, 1, 67, 81
8, 29760, Note_on_c, 1, 67, 0
8, 29760, Note_on_c, 1, 69, 92
8, 30000, Note_on_c, 1, 69, 0
8, 30000, Note_on_c, 1, 66, 92
8, 30240, Note_on_c, 1, 66, 0
8, 30240, Note_on_c, 1, 67, 105
8, 30528, Note_on_c, 1, 67, 0
8, 30720, Note_on_c, 1, 69, 105
8, 31008, Note_on_c, 1, 69, 0
8, 31200, Note_on_c, 1, 71, 105
8, 31488, Note_on_c, 1, 71, 0
8, 31680, Note_on_c, 1, 72, 105
8, 31968, Note_on_c, 1, 72, 0
8, 32160, Note_on_c, 1, 79, 105
8, 32220, Note_on_c, 1, 79, 0
8, 32220, Note_on_c, 1, 78, 105
8, 32280, Note_on_c, 1, 78, 0
8, 32280, Note_on_c, 1, 79, 105
8, 32340, Note_on_c, 1, 79, 0
8, 32340, Note_on_c, 1, 78, 105
8, 32400, Note_on_c, 1, 78, 0
8, 32400, Note_on_c, 1, 76, 105
8, 32520, Note_on_c, 1, 76, 0
8, 32520, Note_on_c, 1, 78, 105
8, 32640, Note_on_c, 1, 78, 0
8, 32640, Note_on_c, 1, 79, 105
8, 32928, Note_on_c, 1, 79, 0
8, 33120, Note_on_c, 1, 72, 105
8, 33180, Note_on_c, 1, 72, 0
8, 33180, Note_on_c, 1, 71, 105
8, 33240, Note_on_c, 1, 71, 0
8, 33240, Note_on_c, 1, 72, 105
8, 33300, Note_on_c, 1, 72, 0
8, 33300, Note_on_c, 1, 71, 105
8, 33360, Note_on_c, 1, 71, 0
8, 33360, Note_on_c, 1, 69, 105
8, 33480, Note_on_c, 1, 69, 0
8, 33480, Note_on_c, 1, 71, 105
8, 33600, Note_on_c, 1, 71, 0
8, 33600, Note_on_c, 1, 72, 105
8, 33888, Note_on_c, 1, 72, 0
8, 34080, Note_on_c, 1, 69, 105
8, 34368, Note_on_c, 1, 69, 0
8, 34560, Note_on_c, 1, 71, 92
8, 34848, Note_on_c, 1, 71, 0
8, 35520, Note_on_c, 1, 71, 72
8, 35904, Note_on_c, 1, 71, 0
8, 36000, Note_on_c, 1, 69, 58
8, 36240, Note_on_c, 1, 69, 0
8, 36240, Note_on_c, 1, 67, 58
8, 36480, Note_on_c, 1, 67, 0
8, 36480, Note_on_c, 1, 66, 58
8, 36720, Note_on_c, 1, 66, 0
8, 36720, Note_on_c, 1, 64, 58
8, 36960, Note_on_c, 1, 64, 0
8, 36960, Note_on_c, 1, 63, 58
8, 37200, Note_on_c, 1, 63, 0
8, 37200, Note_on_c, 1, 66, 58
8, 37440, Note_on_c, 1, 66, 0
8, 37440, Note_on_c, 1, 64, 58
8, 37680, Note_on_c, 1, 64, 0
8, 37680, Note_on_c, 1, 66, 58
8, 37920, Note_on_c, 1, 66, 0
8, 37920, Note_on_c, 1, 67, 58
8, 38160, Note_on_c, 1, 67, 0
8, 38160, Note_on_c, 1, 68, 58
8, 38400, Note_on_c, 1, 68, 0
8, 38400, Note_on_c, 1, 71, 58
8, 38640, Note_on_c, 1, 71, 0
8, 38640, Note_on_c, 1, 69, 58
8, 38880, Note_on_c, 1, 69, 0
8, 38880, Note_on_c, 1, 67, 58
8, 39120, Note_on_c, 1, 67, 0
8, 39120, Note_on_c, 1, 66, 58
8, 39360, Note_on_c, 1, 66, 0
8, 39360, Note_on_c, 1, 64, 58
8, 39600, Note_on_c, 1, 64, 0
8, 39600, Note_on_c, 1, 62, 58
8, 39840, Note_on_c, 1, 62, 0
8, 39840, Note_on_c, 1, 61, 58
8, 40080, Note_on_c, 1, 61, 0
8, 40080, Note_on_c, 1, 64, 58
8, 40320, Note_on_c, 1, 64, 0
8, 40320, Note_on_c, 1, 62, 58
8, 40560, Note_on_c, 1, 62, 0
8, 40560, Note_on_c, 1, 64, 58
8, 40800, Note_on_c, 1, 64, 0
8, 40800, Note_on_c, 1, 66, 81
8, 41040, Note_on_c, 1, 66, 0
8, 41040, Note_on_c, 1, 67, 81
8, 41280, Note_on_c, 1, 67, 0
8, 41280, Note_on_c, 1, 69, 92
8, 41520, Note_on_c, 1, 69, 0
8, 41520, Note_on_c, 1, 66, 92
8, 41760, Note_on_c, 1, 66, 0
8, 41760, Note_on_c, 1, 67, 105
8, 42048, Note_on_c, 1, 67, 0
8, 42240, Note_on_c, 1, 69, 105
8, 42528, Note_on_c, 1, 69, 0
8, 42720, Note_on_c, 1, 71, 105
8, 43008, Note_on_c, 1, 71, 0
8, 43200, Note_on_c, 1, 72, 105
8, 43488, Note_on_c, 1, 72, 0
8, 43680, Note_on_c, 1, 79, 105
8, 43740, Note_on_c, 1, 79, 0
8, 43740, Note_on_c, 1, 78, 105
8, 43800, Note_on_c, 1, 78, 0
8, 43800, Note_on_c, 1, 79, 105
8, 43860, Note_on_c, 1, 79, 0
8, 43860, Note_on_c, 1, 78, 105
8, 43920, Note_on_c, 1, 78, 0
8, 43920, Note_on_c, 1, 76, 105
8, 44040, Note_on_c, 1, 76, 0
8, 44040, Note_on_c, 1, 78, 105
8, 44160, Note_on_c, 1, 78, 0
8, 44160, Note_on_c, 1, 79, 105
8, 44448, Note_on_c, 1, 79, 0
8, 44640, Note_on_c, 1, 72, 105
8, 44700, Note_on_c, 1, 72, 0
8, 44700, Note_on_c, 1, 71, 105
8, 44760, Note_on_c, 1, 71, 0
8, 44760, Note_on_c, 1, 72, 105
8, 44820, Note_on_c, 1, 72, 0
8, 44820, Note_on_c, 1, 71, 105
8, 44880, Note_on_c, 1, 71, 0
8, 44880, Note_on_c, 1, 69, 105
8, 45000, Note_on_c, 1, 69, 0
8, 45000, Note_on_c, 1, 71, 105
8, 45120, Note_on_c, 1, 71, 0
8, 45120, Note_on_c, 1, 72, 105
8, 45408, Note_on_c, 1, 72, 0
8, 45600, Note_on_c, 1, 69, 105
8, 45888, Note_on_c, 1, 69, 0
8, 46080, Note_on_c, 1, 71, 92
8, 46464, Note_on_c, 1, 71, 0
8, 47520, Note_on_c, 1, 66, 58
8, 47760, Note_on_c, 1, 66, 0
8, 47760, Note_on_c, 1, 62, 58
8, 48000, Note_on_c, 1, 62, 0
8, 48000, Note_on_c, 1, 66, 58
8, 48240, Note_on_c, 1, 66, 0
8, 48240, Note_on_c, 1, 62, 58
8, 48480, Note_on_c, 1, 62, 0
8, 48480, Note_on_c, 1, 66, 58
8, 48720, Note_on_c, 1, 66, 0
8, 48720, Note_on_c, 1, 62, 58
8, 48912, Note_on_c, 1, 62, 0
8, 48960, Note_on_c, 1, 66, 58
8, 49200, Note_on_c, 1, 66, 0
8, 49200, Note_on_c, 1, 62, 58
8, 49440, Note_on_c, 1, 62, 0
8, 49440, Note_on_c, 1, 66, 58
8, 49680, Note_on_c, 1, 66, 0
8, 49680, Note_on_c, 1, 62, 58
8, 49920, Note_on_c, 1, 62, 0
8, 49920, Note_on_c, 1, 66, 58
8, 50160, Note_on_c, 1, 66, 0
8, 50160, Note_on_c, 1, 62, 58
8, 50352, Note_on_c, 1, 62, 0
8, 50400, Note_on_c, 1, 64, 58
8, 50640, Note_on_c, 1, 64, 0
8, 50640, Note_on_c, 1, 61, 58
8, 50880, Note_on_c, 1, 61, 0
8, 50880, Note_on_c, 1, 64, 58
8, 51120, Note_on_c, 1, 64, 0
8, 51120, Note_on_c, 1, 61, 58
8, 51360, Note_on_c, 1, 61, 0
8, 51360, Note_on_c, 1, 64, 58
8, 51600, Note_on_c, 1, 64, 0
8, 51600, Note_on_c, 1, 61, 58
8, 51840, Note_on_c, 1, 61, 0
8, 51840, Note_on_c, 1, 67, 58
8, 52080, Note_on_c, 1, 67, 0
8, 52080, Note_on_c, 1, 57, 58
8, 52320, Note_on_c, 1, 57, 0
8, 52320, Note_on_c, 1, 67, 58
8, 52560, Note_on_c, 1, 67, 0
8, 52560, Note_on_c, 1, 57, 58
8, 52800, Note_on_c, 1, 57, 0
8, 52800, Note_on_c, 1, 67, 58
8, 53040, Note_on_c, 1, 67, 0
8, 53040, Note_on_c, 1, 57, 58
8, 53232, Note_on_c, 1, 57, 0
8, 53280, Note_on_c, 1, 66, 58
8, 53520, Note_on_c, 1, 66, 0
8, 53520, Note_on_c, 1, 62, 58
8, 53760, Note_on_c, 1, 62, 0
8, 53760, Note_on_c, 1, 66, 58
8, 54000, Note_on_c, 1, 66, 0
8, 54000, Note_on_c, 1, 62, 58
8, 54240, Note_on_c, 1, 62, 0
8, 54240, Note_on_c, 1, 66, 58
8, 54480, Note_on_c, 1, 66, 0
8, 54480, Note_on_c, 1, 62, 58
8, 54672, Note_on_c, 1, 62, 0
8, 54720, Note_on_c, 1, 66, 58
8, 54960, Note_on_c, 1, 66, 0
8, 54960, Note_on_c, 1, 62, 58
8, 55200, Note_on_c, 1, 62, 0
8, 55200, Note_on_c, 1, 66, 58
8, 55440, Note_on_c, 1, 66, 0
8, 55440, Note_on_c, 1, 62, 58
8, 55680, Note_on_c, 1, 62, 0
8, 55680, Note_on_c, 1, 66, 58
8, 55920, Note_on_c, 1, 66, 0
8, 55920, Note_on_c, 1, 62, 58
8, 56112, Note_on_c, 1, 62, 0
8, 56160, Note_on_c, 1, 67, 58
8, 56400, Note_on_c, 1, 67, 0
8, 56400, Note_on_c, 1, 69, 58
8, 56640, Note_on_c, 1, 69, 0
8, 56640, Note_on_c, 1, 71, 58
8, 56880, Note_on_c, 1, 71, 0
8, 56880, Note_on_c, 1, 67, 58
8, 57120, Note_on_c, 1, 67, 0
8, 57120, Note_on_c, 1, 64, 58
8, 57360, Note_on_c, 1, 64, 0
8, 57360, Note_on_c, 1, 67, 58
8, 57600, Note_on_c, 1, 67, 0
8, 57600, Note_on_c, 1, 66, 58
8, 57984, Note_on_c, 1, 66, 0
8, 59040, Note_on_c, 1, 66, 58
8, 59280, Note_on_c, 1, 66, 0
8, 59280, Note_on_c, 1, 62, 58
8, 59520, Note_on_c, 1, 62, 0
8, 59520, Note_on_c, 1, 66, 58
8, 59760, Note_on_c, 1, 66, 0
8, 59760, Note_on_c, 1, 62, 58
8, 60000, Note_on_c, 1, 62, 0
8, 60000, Note_on_c, 1, 66, 58
8, 60240, Note_on_c, 1, 66, 0
8, 60240, Note_on_c, 1, 62, 58
8, 60432, Note_on_c, 1, 62, 0
8, 60480, Note_on_c, 1, 66, 58
8, 60720, Note_on_c, 1, 66, 0
8, 60720, Note_on_c, 1, 62, 58
8, 60960, Note_on_c, 1, 62, 0
8, 60960, Note_on_c, 1, 66, 58
8, 61200, Note_on_c, 1, 66, 0
8, 61200, Note_on_c, 1, 62, 58
8, 61440, Note_on_c, 1, 62, 0
8, 61440, Note_on_c, 1, 66, 58
8, 61680, Note_on_c, 1, 66, 0
8, 61680, Note_on_c, 1, 62, 58
8, 61872, Note_on_c, 1, 62, 0
8, 61920, Note_on_c, 1, 64, 58
8, 62160, Note_on_c, 1, 64, 0
8, 62160, Note_on_c, 1, 61, 58
8, 62400, Note_on_c, 1, 61, 0
8, 62400, Note_on_c, 1, 64, 58
8, 62640, Note_on_c, 1, 64, 0
8, 62640, Note_on_c, 1, 61, 58
8, 62880, Note_on_c, 1, 61, 0
8, 62880, Note_on_c, 1, 64, 58
8, 63120, Note_on_c, 1, 64, 0
8, 63120, Note_on_c, 1, 61, 58
8, 63360, Note_on_c, 1, 61, 0
8, 63360, Note_on_c, 1, 67, 58
8, 63600, Note_on_c, 1, 67, 0
8, 63600, Note_on_c, 1, 57, 58
8, 63840, Note_on_c, 1, 57, 0
8, 63840, Note_on_c, 1, 67, 58
8, 64080, Note_on_c, 1, 67, 0
8, 64080, Note_on_c, 1, 57, 58
8, 64320, Note_on_c, 1, 57, 0
8, 64320, Note_on_c, 1, 67, 58
8, 64560, Note_on_c, 1, 67, 0
8, 64560, Note_on_c, 1, 57, 58
8, 64752, Note_on_c, 1, 57, 0
8, 64800, Note_on_c, 1, 66, 58
8, 65040, Note_on_c, 1, 66, 0
8, 65040, Note_on_c, 1, 62, 58
8, 65280, Note_on_c, 1, 62, 0
8, 65280, Note_on_c, 1, 66, 58
8, 65520, Note_on_c, 1, 66, 0
8, 65520, Note_on_c, 1, 62, 58
8, 65760, Note_on_c, 1, 62, 0
8, 65760, Note_on_c, 1, 66, 58
8, 66000, Note_on_c, 1, 66, 0
8, 66000, Note_on_c, 1, 62, 58
8, 66192, Note_on_c, 1, 62, 0
8, 66240, Note_on_c, 1, 66, 58
8, 66480, Note_on_c, 1, 66, 0
8, 66480, Note_on_c, 1, 62, 58
8, 66720, Note_on_c, 1, 62, 0
8, 66720, Note_on_c, 1, 66, 58
8, 66960, Note_on_c, 1, 66, 0
8, 66960, Note_on_c, 1, 62, 58
8, 67200, Note_on_c, 1, 62, 0
8, 67200, Note_on_c, 1, 66, 58
8, 67440, Note_on_c, 1, 66, 0
8, 67440, Note_on_c, 1, 62, 58
8, 67632, Note_on_c, 1, 62, 0
8, 67680, Note_on_c, 1, 67, 58
8, 67920, Note_on_c, 1, 67, 0
8, 67920, Note_on_c, 1, 69, 58
8, 68160, Note_on_c, 1, 69, 0
8, 68160, Note_on_c, 1, 71, 58
8, 68400, Note_on_c, 1, 71, 0
8, 68400, Note_on_c, 1, 67, 58
8, 68640, Note_on_c, 1, 67, 0
8, 68640, Note_on_c, 1, 64, 58
8, 68880, Note_on_c, 1, 64, 0
8, 68880, Note_on_c, 1, 67, 58
8, 69120, Note_on_c, 1, 67, 0
8, 69120, Note_on_c, 1, 66, 58
8, 69504, Note_on_c, 1, 66, 0
8, 70080, Note_on_c, 1, 61, 105
8, 70320, Note_on_c, 1, 61, 0
8, 70320, Note_on_c, 1, 62, 105
8, 70560, Note_on_c, 1, 62, 0
8, 70560, Note_on_c, 1, 64, 105
8, 70800, Note_on_c, 1, 64, 0
8, 70800, Note_on_c, 1, 66, 105
8, 71040, Note_on_c, 1, 66, 0
8, 71040, Note_on_c, 1, 67, 105
8, 71280, Note_on_c, 1, 67, 0
8, 71280, Note_on_c, 1, 69, 105
8, 71520, Note_on_c, 1, 69, 0
8, 71520, Note_on_c, 1, 71, 105
8, 71760, Note_on_c, 1, 71, 0
8, 71760, Note_on_c, 1, 69, 105
8, 72000, Note_on_c, 1, 69, 0
8, 72000, Note_on_c, 1, 67, 105
8, 72240, Note_on_c, 1, 67, 0
8, 72240, Note_on_c, 1, 66, 105
8, 72480, Note_on_c, 1, 66, 0
8, 72480, Note_on_c, 1, 64, 105
8, 72720, Note_on_c, 1, 64, 0
8, 72720, Note_on_c, 1, 62, 105
8, 72912, Note_on_c, 1, 62, 0
8, 72960, Note_on_c, 1, 64, 105
8, 73200, Note_on_c, 1, 64, 0
8, 73200, Note_on_c, 1, 66, 105
8, 73440, Note_on_c, 1, 66, 0
8, 73440, Note_on_c, 1, 68, 105
8, 73680, Note_on_c, 1, 68, 0
8, 73680, Note_on_c, 1, 69, 105
8, 73920, Note_on_c, 1, 69, 0
8, 73920, Note_on_c, 1, 71, 105
8, 74160, Note_on_c, 1, 71, 0
8, 74160, Note_on_c, 1, 73, 105
8, 74400, Note_on_c, 1, 73, 0
8, 74400, Note_on_c, 1, 74, 105
8, 74640, Note_on_c, 1, 74, 0
8, 74640, Note_on_c, 1, 71, 105
8, 74880, Note_on_c, 1, 71, 0
8, 74880, Note_on_c, 1, 69, 105
8, 75120, Note_on_c, 1, 69, 0
8, 75120, Note_on_c, 1, 67, 105
8, 75360, Note_on_c, 1, 67, 0
8, 75360, Note_on_c, 1, 66, 58
8, 75600, Note_on_c, 1, 66, 0
8, 75600, Note_on_c, 1, 64, 58
8, 75840, Note_on_c, 1, 64, 0
8, 75840, Note_on_c, 1, 62, 58
8, 76080, Note_on_c, 1, 62, 0
8, 76080, Note_on_c, 1, 64, 58
8, 76272, Note_on_c, 1, 64, 0
8, 76320, Note_on_c, 1, 66, 58
8, 76560, Note_on_c, 1, 66, 0
8, 76560, Note_on_c, 1, 62, 58
8, 76800, Note_on_c, 1, 62, 0
8, 76800, Note_on_c, 1, 66, 58
8, 77040, Note_on_c, 1, 66, 0
8, 77040, Note_on_c, 1, 62, 58
8, 77280, Note_on_c, 1, 62, 0
8, 77280, Note_on_c, 1, 66, 58
8, 77520, Note_on_c, 1, 66, 0
8, 77520, Note_on_c, 1, 62, 58
8, 77712, Note_on_c, 1, 62, 0
8, 77760, Note_on_c, 1, 66, 58
8, 78000, Note_on_c, 1, 66, 0
8, 78000, Note_on_c, 1, 62, 58
8, 78240, Note_on_c, 1, 62, 0
8, 78240, Note_on_c, 1, 66, 58
8, 78480, Note_on_c, 1, 66, 0
8, 78480, Note_on_c, 1, 62, 58
8, 78720, Note_on_c, 1, 62, 0
8, 78720, Note_on_c, 1, 66, 58
8, 78960, Note_on_c, 1, 66, 0
8, 78960, Note_on_c, 1, 62, 58
8, 79152, Note_on_c, 1, 62, 0
8, 79200, Note_on_c, 1, 64, 58
8, 79440, Note_on_c, 1, 64, 0
8, 79440, Note_on_c, 1, 61, 58
8, 79680, Note_on_c, 1, 61, 0
8, 79680, Note_on_c, 1, 64, 58
8, 79920, Note_on_c, 1, 64, 0
8, 79920, Note_on_c, 1, 61, 58
8, 80160, Note_on_c, 1, 61, 0
8, 80160, Note_on_c, 1, 64, 58
8, 80400, Note_on_c, 1, 64, 0
8, 80400, Note_on_c, 1, 61, 58
8, 80640, Note_on_c, 1, 61, 0
8, 80640, Note_on_c, 1, 67, 58
8, 80880, Note_on_c, 1, 67, 0
8, 80880, Note_on_c, 1, 57, 58
8, 81120, Note_on_c, 1, 57, 0
8, 81120, Note_on_c, 1, 67, 58
8, 81360, Note_on_c, 1, 67, 0
8, 81360, Note_on_c, 1, 57, 58
8, 81600, Note_on_c, 1, 57, 0
8, 81600, Note_on_c, 1, 67, 58
8, 81840, Note_on_c, 1, 67, 0
8, 81840, Note_on_c, 1, 57, 58
8, 82032, Note_on_c, 1, 57, 0
8, 82080, Note_on_c, 1, 66, 58
8, 82320, Note_on_c, 1, 66, 0
8, 82320, Note_on_c, 1, 62, 58
8, 82560, Note_on_c, 1, 62, 0
8, 82560, Note_on_c, 1, 66, 58
8, 82800, Note_on_c, 1, 66, 0
8, 82800, Note_on_c, 1, 62, 58
8, 83040, Note_on_c, 1, 62, 0
8, 83040, Note_on_c, 1, 66, 58
8, 83280, Note_on_c, 1, 66, 0
8, 83280, Note_on_c, 1, 62, 58
8, 83472, Note_on_c, 1, 62, 0
8, 83520, Note_on_c, 1, 66, 58
8, 83760, Note_on_c, 1, 66, 0
8, 83760, Note_on_c, 1, 62, 58
8, 84000, Note_on_c, 1, 62, 0
8, 84000, Note_on_c, 1, 66, 58
8, 84240, Note_on_c, 1, 66, 0
8, 84240, Note_on_c, 1, 62, 58
8, 84480, Note_on_c, 1, 62, 0
8, 84480, Note_on_c, 1, 66, 58
8, 84720, Note_on_c, 1, 66, 0
8, 84720, Note_on_c, 1, 62, 58
8, 84912, Note_on_c, 1, 62, 0
8, 84960, Note_on_c, 1, 67, 58
8, 85200, Note_on_c, 1, 67, 0
8, 85200, Note_on_c, 1, 69, 58
8, 85440, Note_on_c, 1, 69, 0
8, 85440, Note_on_c, 1, 71, 58
8, 85680, Note_on_c, 1, 71, 0
8, 85680, Note_on_c, 1, 67, 58
8, 85920, Note_on_c, 1, 67, 0
8, 85920, Note_on_c, 1, 64, 58
8, 86160, Note_on_c, 1, 64, 0
8, 86160, Note_on_c, 1, 67, 58
8, 86400, Note_on_c, 1, 67, 0
8, 86400, Note_on_c, 1, 66, 58
8, 86784, Note_on_c, 1, 66, 0
8, 87360, Note_on_c, 1, 61, 105
8, 87600, Note_on_c, 1, 61, 0
8, 87600, Note_on_c, 1, 62, 105
8, 87840, Note_on_c, 1, 62, 0
8, 87840, Note_on_c, 1, 64, 105
8, 88080, Note_on_c, 1, 64, 0
8, 88080, Note_on_c, 1, 66, 105
8, 88320, Note_on_c, 1, 66, 0
8, 88320, Note_on_c, 1, 67, 105
8, 88560, Note_on_c, 1, 67, 0
8, 88560, Note_on_c, 1, 69, 105
8, 88800, Note_on_c, 1, 69, 0
8, 88800, Note_on_c, 1, 71, 105
8, 89040, Note_on_c, 1, 71, 0
8, 89040, Note_on_c, 1, 69, 105
8, 89280, Note_on_c, 1, 69, 0
8, 89280, Note_on_c, 1, 67, 105
8, 89520, Note_on_c, 1, 67, 0
8, 89520, Note_on_c, 1, 66, 105
8, 89760, Note_on_c, 1, 66, 0
8, 89760, Note_on_c, 1, 64, 105
8, 90000, Note_on_c, 1, 64, 0
8, 90000, Note_on_c, 1, 62, 105
8, 90192, Note_on_c, 1, 62, 0
8, 90240, Note_on_c, 1, 64, 105
8, 90480, Note_on_c, 1, 64, 0
8, 90480, Note_on_c, 1, 66, 105
8, 90720, Note_on_c, 1, 66, 0
8, 90720, Note_on_c, 1, 68, 105
8, 90960, Note_on_c, 1, 68, 0
8, 90960, Note_on_c, 1, 69, 105
8, 91200, Note_on_c, 1, 69, 0
8, 91200, Note_on_c, 1, 71, 105
8, 91440, Note_on_c, 1, 71, 0
8, 91440, Note_on_c, 1, 73, 105
8, 91680, Note_on_c, 1, 73, 0
8, 91680, Note_on_c, 1, 74, 105
8, 91920, Note_on_c, 1, 74, 0
8, 91920, Note_on_c, 1, 71, 105
8, 92160, Note_on_c, 1, 71, 0
8, 92160, Note_on_c, 1, 69, 105
8, 92400, Note_on_c, 1, 69, 0
8, 92400, Note_on_c, 1, 67, 105
8, 92640, Note_on_c, 1, 67, 0
8, 92640, Note_on_c, 1, 66, 58
8, 92880, Note_on_c, 1, 66, 0
8, 92880, Note_on_c, 1, 64, 58
8, 93120, Note_on_c, 1, 64, 0
8, 93120, Note_on_c, 1, 62, 58
8, 93360, Note_on_c, 1, 62, 0
8, 93360, Note_on_c, 1, 64, 58
8, 93552, Note_on_c, 1, 64, 0
8, 93600, Note_on_c, 1, 66, 58
8, 93840, Note_on_c, 1, 66, 0
8, 93840, Note_on_c, 1, 62, 58
8, 94080, Note_on_c, 1, 62, 0
8, 94080, Note_on_c, 1, 66, 58
8, 94320, Note_on_c, 1, 66, 0
8, 94320, Note_on_c, 1, 62, 58
8, 94560, Note_on_c, 1, 62, 0
8, 94560, Note_on_c, 1, 66, 58
8, 94800, Note_on_c, 1, 66, 0
8, 94800, Note_on_c, 1, 62, 58
8, 94992, Note_on_c, 1, 62, 0
8, 95040, Note_on_c, 1, 66, 58
8, 95280, Note_on_c, 1, 66, 0
8, 95280, Note_on_c, 1, 62, 58
8, 95520, Note_on_c, 1, 62, 0
8, 95520, Note_on_c, 1, 66, 58
8, 95760, Note_on_c, 1, 66, 0
8, 95760, Note_on_c, 1, 62, 58
8, 96000, Note_on_c, 1, 62, 0
8, 96000, Note_on_c, 1, 66, 58
8, 96240, Note_on_c, 1, 66, 0
8, 96240, Note_on_c, 1, 62, 58
8, 96432, Note_on_c, 1, 62, 0
8, 96480, Note_on_c, 1, 64, 58
8, 96720, Note_on_c, 1, 64, 0
8, 96720, Note_on_c, 1, 61, 58
8, 96960, Note_on_c, 1, 61, 0
8, 96960, Note_on_c, 1, 64, 58
8, 97200, Note_on_c, 1, 64, 0
8, 97200, Note_on_c, 1, 61, 58
8, 97440, Note_on_c, 1, 61, 0
8, 97440, Note_on_c, 1, 64, 58
8, 97680, Note_on_c, 1, 64, 0
8, 97680, Note_on_c, 1, 61, 58
8, 97920, Note_on_c, 1, 61, 0
8, 97920, Note_on_c, 1, 67, 58
8, 98160, Note_on_c, 1, 67, 0
8, 98160, Note_on_c, 1, 57, 58
8, 98400, Note_on_c, 1, 57, 0
8, 98400, Note_on_c, 1, 67, 58
8, 98640, Note_on_c, 1, 67, 0
8, 98640, Note_on_c, 1, 57, 58
8, 98880, Note_on_c, 1, 57, 0
8, 98880, Note_on_c, 1, 67, 58
8, 99120, Note_on_c, 1, 67, 0
8, 99120, Note_on_c, 1, 57, 58
8, 99312, Note_on_c, 1, 57, 0
8, 99360, Note_on_c, 1, 66, 58
8, 99600, Note_on_c, 1, 66, 0
8, 99600, Note_on_c, 1, 62, 58
8, 99840, Note_on_c, 1, 62, 0
8, 99840, Note_on_c, 1, 66, 58
8, 100080, Note_on_c, 1, 66, 0
8, 100080, Note_on_c, 1, 62, 58
8, 100320, Note_on_c, 1, 62, 0
8, 100320, Note_on_c, 1, 66, 58
8, 100560, Note_on_c, 1, 66, 0
8, 100560, Note_on_c, 1, 62, 58
8, 100752, Note_on_c, 1, 62, 0
8, 100800, Note_on_c, 1, 66, 58
8, 101040, Note_on_c, 1, 66, 0
8, 101040, Note_on_c, 1, 62, 58
8, 101280, Note_on_c, 1, 62, 0
8, 101280, Note_on_c, 1, 66, 58
8, 101520, Note_on_c, 1, 66, 0
8, 101520, Note_on_c, 1, 62, 58
8, 101760, Note_on_c, 1, 62, 0
8, 101760, Note_on_c, 1, 66, 58
8, 102000, Note_on_c, 1, 66, 0
8, 102000, Note_on_c, 1, 62, 58
8, 102192, Note_on_c, 1, 62, 0
8, 102240, Note_on_c, 1, 67, 58
8, 102480, Note_on_c, 1, 67, 0
8, 102480, Note_on_c, 1, 69, 58
8, 102720, Note_on_c, 1, 69, 0
8, 102720, Note_on_c, 1, 71, 58
8, 102960, Note_on_c, 1, 71, 0
8, 102960, Note_on_c, 1, 67, 58
8, 103200, Note_on_c, 1, 67, 0
8, 103200, Note_on_c, 1, 64, 58
8, 103440, Note_on_c, 1, 64, 0
8, 103440, Note_on_c, 1, 67, 58
8, 103680, Note_on_c, 1, 67, 0
8, 103680, Note_on_c, 1, 66, 58
8, 104064, Note_on_c, 1, 66, 0
8, 104640, Note_on_c, 1, 62, 105
8, 104928, Note_on_c, 1, 62, 0
8, 105120, Note_on_c, 1, 67, 105
8, 105408, Note_on_c, 1, 67, 0
8, 105600, Note_on_c, 1, 69, 105
8, 105888, Note_on_c, 1, 69, 0
8, 106080, Note_on_c, 1, 71, 105
8, 106368, Note_on_c, 1, 71, 0
8, 106560, Note_on_c, 1, 72, 105
8, 107328, Note_on_c, 1, 72, 0
8, 107520, Note_on_c, 1, 69, 105
8, 107808, Note_on_c, 1, 69, 0
8, 108000, Note_on_c, 1, 71, 105
8, 108288, Note_on_c, 1, 71, 0
8, 108480, Note_on_c, 1, 67, 105
8, 108768, Note_on_c, 1, 67, 0
8, 108960, Note_on_c, 1, 69, 105
8, 109248, Note_on_c, 1, 69, 0
8, 109440, Note_on_c, 1, 67, 105
8, 109632, Note_on_c, 1, 67, 0
8, 109680, Note_on_c, 1, 66, 105
8, 109872, Note_on_c, 1, 66, 0
8, 109920, Note_on_c, 1, 64, 105
8, 110112, Note_on_c, 1, 64, 0
8, 110160, Note_on_c, 1, 62, 105
8, 110352, Note_on_c, 1, 62, 0
8, 110400, Note_on_c, 1, 64, 105
8, 110592, Note_on_c, 1, 64, 0
8, 110640, Note_on_c, 1, 66, 105
8, 110832, Note_on_c, 1, 66, 0
8, 110880, Note_on_c, 1, 67, 105
8, 111168, Note_on_c, 1, 67, 0
8, 111360, Note_on_c, 1, 69, 105
8, 111648, Note_on_c, 1, 69, 0
8, 111840, Note_on_c, 1, 71, 105
8, 112128, Note_on_c, 1, 71, 0
8, 112320, Note_on_c, 1, 72, 105
8, 112608, Note_on_c, 1, 72, 0
8, 112800, Note_on_c, 1, 79, 105
8, 112860, Note_on_c, 1, 79, 0
8, 112860, Note_on_c, 1, 78, 105
8, 112920, Note_on_c, 1, 78, 0
8, 112920, Note_on_c, 1, 79, 105
8, 112980, Note_on_c, 1, 79, 0
8, 112980, Note_on_c, 1, 78, 105
8, 113040, Note_on_c, 1, 78, 0
8, 113040, Note_on_c, 1, 76, 105
8, 113160, Note_on_c, 1, 76, 0
8, 113160, Note_on_c, 1, 78, 105
8, 113280, Note_on_c, 1, 78, 0
8, 113280, Note_on_c, 1, 79, 105
8, 113568, Note_on_c, 1, 79, 0
8, 113760, Note_on_c, 1, 72, 105
8, 113820, Note_on_c, 1, 72, 0
8, 113820, Note_on_c, 1, 71, 105
8, 113880, Note_on_c, 1, 71, 0
8, 113880, Note_on_c, 1, 72, 105
8, 113940, Note_on_c, 1, 72, 0
8, 113940, Note_on_c, 1, 71, 105
8, 114000, Note_on_c, 1, 71, 0
8, 114000, Note_on_c, 1, 69, 105
8, 114120, Note_on_c, 1, 69, 0
8, 114120, Note_on_c, 1, 71, 105
8, 114240, Note_on_c, 1, 71, 0
8, 114240, Note_on_c, 1, 72, 105
8, 114528, Note_on_c, 1, 72, 0
8, 114720, Note_on_c, 1, 69, 105
8, 115008, Note_on_c, 1, 69, 0
8, 115200, Note_on_c, 1, 71, 92
8, 115488, Note_on_c, 1, 71, 0
8, 116160, Note_on_c, 1, 71, 58
8, 116472, Note_on_c, 1, 71, 0
8, 116640, Note_on_c, 1, 69, 58
8, 116880, Note_on_c, 1, 69, 0
8, 116880, Note_on_c, 1, 67, 58
8, 117120, Note_on_c, 1, 67, 0
8, 117120, Note_on_c, 1, 66, 58
8, 117360, Note_on_c, 1, 66, 0
8, 117360, Note_on_c, 1, 64, 58
8, 117600, Note_on_c, 1, 64, 0
8, 117600, Note_on_c, 1, 63, 58
8, 117840, Note_on_c, 1, 63, 0
8, 117840, Note_on_c, 1, 66, 58
8, 118080, Note_on_c, 1, 66, 0
8, 118080, Note_on_c, 1, 64, 58
8, 118320, Note_on_c, 1, 64, 0
8, 118320, Note_on_c, 1, 66, 58
8, 118560, Note_on_c, 1, 66, 0
8, 118560, Note_on_c, 1, 67, 58
8, 118800, Note_on_c, 1, 67, 0
8, 118800, Note_on_c, 1, 68, 58
8, 119040, Note_on_c, 1, 68, 0
8, 119040, Note_on_c, 1, 71, 58
8, 119280, Note_on_c, 1, 71, 0
8, 119280, Note_on_c, 1, 69, 58
8, 119520, Note_on_c, 1, 69, 0
8, 119520, Note_on_c, 1, 67, 58
8, 119760, Note_on_c, 1, 67, 0
8, 119760, Note_on_c, 1, 66, 58
8, 120000, Note_on_c, 1, 66, 0
8, 120000, Note_on_c, 1, 64, 58
8, 120240, Note_on_c, 1, 64, 0
8, 120240, Note_on_c, 1, 62, 58
8, 120480, Note_on_c, 1, 62, 0
8, 120480, Note_on_c, 1, 61, 58
8, 120720, Note_on_c, 1, 61, 0
8, 120720, Note_on_c, 1, 64, 58
8, 120960, Note_on_c, 1, 64, 0
8, 120960, Note_on_c, 1, 62, 58
8, 121200, Note_on_c, 1, 62, 0
8, 121200, Note_on_c, 1, 64, 58
8, 121440, Note_on_c, 1, 64, 0
8, 121440, Note_on_c, 1, 66, 81
8, 121680, Note_on_c, 1, 66, 0
8, 121680, Note_on_c, 1, 67, 81
8, 121920, Note_on_c, 1, 67, 0
8, 121920, Note_on_c, 1, 69, 92
8, 122160, Note_on_c, 1, 69, 0
8, 122160, Note_on_c, 1, 66, 92
8, 122400, Note_on_c, 1, 66, 0
8, 122400, Note_on_c, 1, 67, 105
8, 122688, Note_on_c, 1, 67, 0
8, 122880, Note_on_c, 1, 69, 105
8, 123168, Note_on_c, 1, 69, 0
8, 123360, Note_on_c, 1, 71, 105
8, 123648, Note_on_c, 1, 71, 0
8, 123840, Note_on_c, 1, 72, 105
8, 124128, Note_on_c, 1, 72, 0
8, 124320, Note_on_c, 1, 79, 105
8, 124380, Note_on_c, 1, 79, 0
8, 124380, Note_on_c, 1, 78, 105
8, 124440, Note_on_c, 1, 78, 0
8, 124440, Note_on_c, 1, 79, 105
8, 124500, Note_on_c, 1, 79, 0
8, 124500, Note_on_c, 1, 78, 105
8, 124560, Note_on_c, 1, 78, 0
8, 124560, Note_on_c, 1, 76, 105
8, 124680, Note_on_c, 1, 76, 0
8, 124680, Note_on_c, 1, 78, 105
8, 124800, Note_on_c, 1, 78, 0
8, 124800, Note_on_c, 1, 79, 105
8, 125088, Note_on_c, 1, 79, 0
8, 125280, Note_on_c, 1, 72, 105
8, 125340, Note_on_c, 1, 72, 0
8, 125340, Note_on_c, 1, 71, 105
8, 125400, Note_on_c, 1, 71, 0
8, 125400, Note_on_c, 1, 72, 105
8, 125460, Note_on_c, 1, 72, 0
8, 125460, Note_on_c, 1, 71, 105
8, 125520, Note_on_c, 1, 71, 0
8, 125520, Note_on_c, 1, 69, 105
8, 125640, Note_on_c, 1, 69, 0
8, 125640, Note_on_c, 1, 71, 105
8, 125760, Note_on_c, 1, 71, 0
8, 125760, Note_on_c, 1, 72, 105
8, 126048, Note_on_c, 1, 72, 0
8, 126240, Note_on_c, 1, 69, 105
8, 126528, Note_on_c, 1, 69, 0
8, 126720, Note_on_c, 1, 71, 92
8, 127104, Note_on_c, 1, 71, 0
8, 127104, End_track
9, 0, Start_track
9, 0, Program_c, 2, 41
9, 0, Control_c, 2, 10, 29
9, 0, Control_c, 2, 91, 85
9, 1440, Note_on_c, 2, 71, 105
9, 1728, Note_on_c, 2, 71, 0
9, 1920, Note_on_c, 2, 66, 105
9, 2208, Note_on_c, 2, 66, 0
9, 2400, Note_on_c, 2, 67, 105
9, 2688, Note_on_c, 2, 67, 0
9, 2880, Note_on_c, 2, 69, 105
9, 3168, Note_on_c, 2, 69, 0
9, 3360, Note_on_c, 2, 64, 105
9, 3648, Note_on_c, 2, 64, 0
9, 3840, Note_on_c, 2, 66, 105
9, 4128, Note_on_c, 2, 66, 0
9, 4320, Note_on_c, 2, 67, 105
9, 4608, Note_on_c, 2, 67, 0
9, 4800, Note_on_c, 2, 64, 105
9, 5088, Note_on_c, 2, 64, 0
9, 5280, Note_on_c, 2, 61, 105
9, 5568, Note_on_c, 2, 61, 0
9, 5760, Note_on_c, 2, 62, 105
9, 6000, Note_on_c, 2, 62, 0
9, 6000, Note_on_c, 2, 69, 105
9, 6240, Note_on_c, 2, 69, 0
9, 6240, Note_on_c, 2, 67, 105
9, 6480, Note_on_c, 2, 67, 0
9, 6480, Note_on_c, 2, 66, 105
9, 6720, Note_on_c, 2, 66, 0
9, 6720, Note_on_c, 2, 67, 105
9, 6960, Note_on_c, 2, 67, 0
9, 6960, Note_on_c, 2, 69, 105
9, 7152, Note_on_c, 2, 69, 0
9, 7200, Note_on_c, 2, 71, 105
9, 7488, Note_on_c, 2, 71, 0
9, 7680, Note_on_c, 2, 72, 105
9, 7968, Note_on_c, 2, 72, 0
9, 8160, Note_on_c, 2, 71, 105
9, 8400, Note_on_c, 2, 71, 0
9, 8400, Note_on_c, 2, 67, 105
9, 8592, Note_on_c, 2, 67, 0
9, 8640, Note_on_c, 2, 66, 105
9, 8928, Note_on_c, 2, 66, 0
9, 9120, Note_on_c, 2, 72, 105
9, 9408, Note_on_c, 2, 72, 0
9, 9600, Note_on_c, 2, 71, 105
9, 9888, Note_on_c, 2, 71, 0
9, 10560, Note_on_c, 2, 64, 105
9, 10848, Note_on_c, 2, 64, 0
9, 11040, Note_on_c, 2, 60, 105
9, 11040, Note_on_c, 2, 62, 105
9, 11328, Note_on_c, 2, 62, 0
9, 11328, Note_on_c, 2, 60, 0
9, 11520, Note_on_c, 2, 59, 92
9, 11520, Note_on_c, 2, 62, 92
9, 11808, Note_on_c, 2, 62, 0
9, 11808, Note_on_c, 2, 59, 0
9, 12960, Note_on_c, 2, 71, 105
9, 13248, Note_on_c, 2, 71, 0
9, 13440, Note_on_c, 2, 66, 105
9, 13728, Note_on_c, 2, 66, 0
9, 13920, Note_on_c, 2, 67, 105
9, 14208, Note_on_c, 2, 67, 0
9, 14400, Note_on_c, 2, 69, 105
9, 14688, Note_on_c, 2, 69, 0
9, 14880, Note_on_c, 2, 64, 105
9, 15168, Note_on_c, 2, 64, 0
9, 15360, Note_on_c, 2, 66, 105
9, 15648, Note_on_c, 2, 66, 0
9, 15840, Note_on_c, 2, 67, 105
9, 16128, Note_on_c, 2, 67, 0
9, 16320, Note_on_c, 2, 64, 105
9, 16608, Note_on_c, 2, 64, 0
9, 16800, Note_on_c, 2, 61, 105
9, 17088, Note_on_c, 2, 61, 0
9, 17280, Note_on_c, 2, 62, 105
9, 17520, Note_on_c, 2, 62, 0
9, 17520, Note_on_c, 2, 69, 105
9, 17760, Note_on_c, 2, 69, 0
9, 17760, Note_on_c, 2, 67, 105
9, 18000, Note_on_c, 2, 67, 0
9, 18000, Note_on_c, 2, 66, 105
9, 18240, Note_on_c, 2, 66, 0
9, 18240, Note_on_c, 2, 67, 105
9, 18480, Note_on_c, 2, 67, 0
9, 18480, Note_on_c, 2, 69, 105
9, 18672, Note_on_c, 2, 69, 0
9, 18720, Note_on_c, 2, 71, 105
9, 19008, Note_on_c, 2, 71, 0
9, 19200, Note_on_c, 2, 72, 105
9, 19488, Note_on_c, 2, 72, 0
9, 19680, Note_on_c, 2, 71, 105
9, 19920, Note_on_c, 2, 71, 0
9, 19920, Note_on_c, 2, 67, 105
9, 20112, Note_on_c, 2, 67, 0
9, 20160, Note_on_c, 2, 66, 105
9, 20448, Note_on_c, 2, 66, 0
9, 20640, Note_on_c, 2, 72, 105
9, 20928, Note_on_c, 2, 72, 0
9, 21120, Note_on_c, 2, 71, 105
9, 21408, Note_on_c, 2, 71, 0
9, 22080, Note_on_c, 2, 64, 105
9, 22368, Note_on_c, 2, 64, 0
9, 22560, Note_on_c, 2, 60, 105
9, 22560, Note_on_c, 2, 62, 105
9, 22848, Note_on_c, 2, 62, 0
9, 22848, Note_on_c, 2, 60, 0
9, 23040, Note_on_c, 2, 59, 92
9, 23040, Note_on_c, 2, 62, 92
9, 23328, Note_on_c, 2, 62, 0
9, 23328, Note_on_c, 2, 59, 0
9, 25440, Note_on_c, 2, 60, 58
9, 25728, Note_on_c, 2, 60, 0
9, 25920, Note_on_c, 2, 59, 58
9, 26400, Note_on_c, 2, 59, 0
9, 26400, Note_on_c, 2, 55, 58
9, 26688, Note_on_c, 2, 55, 0
9, 28320, Note_on_c, 2, 58, 58
9, 28608, Note_on_c, 2, 58, 0
9, 28800, Note_on_c, 2, 57, 72
9, 29040, Note_on_c, 2, 57, 0
9, 29040, Note_on_c, 2, 61, 72
9, 29280, Note_on_c, 2, 61, 0
9, 29280, Note_on_c, 2, 62, 72
9, 29520, Note_on_c, 2, 62, 0
9, 29520, Note_on_c, 2, 64, 81
9, 29760, Note_on_c, 2, 64, 0
9, 29760, Note_on_c, 2, 66, 81
9, 30000, Note_on_c, 2, 66, 0
9, 30000, Note_on_c, 2, 62, 92
9, 30240, Note_on_c, 2, 62, 0
9, 30240, Note_on_c, 2, 74, 105
9, 30528, Note_on_c, 2, 74, 0
9, 30720, Note_on_c, 2, 66, 105
9, 31008, Note_on_c, 2, 66, 0
9, 31200, Note_on_c, 2, 67, 105
9, 31488, Note_on_c, 2, 67, 0
9, 31680, Note_on_c, 2, 69, 105
9, 31968, Note_on_c, 2, 69, 0
9, 32160, Note_on_c, 2, 72, 105
9, 32640, Note_on_c, 2, 72, 0
9, 32640, Note_on_c, 2, 71, 105
9, 32928, Note_on_c, 2, 71, 0
9, 33600, Note_on_c, 2, 64, 105
9, 33888, Note_on_c, 2, 64, 0
9, 34080, Note_on_c, 2, 60, 105
9, 34080, Note_on_c, 2, 62, 105
9, 34368, Note_on_c, 2, 62, 0
9, 34368, Note_on_c, 2, 60, 0
9, 34560, Note_on_c, 2, 59, 92
9, 34560, Note_on_c, 2, 62, 92
9, 34848, Note_on_c, 2, 62, 0
9, 34848, Note_on_c, 2, 59, 0
9, 36960, Note_on_c, 2, 60, 58
9, 37248, Note_on_c, 2, 60, 0
9, 37440, Note_on_c, 2, 59, 58
9, 37920, Note_on_c, 2, 59, 0
9, 37920, Note_on_c, 2, 55, 58
9, 38208, Note_on_c, 2, 55, 0
9, 39840, Note_on_c, 2, 58, 58
9, 40128, Note_on_c, 2, 58, 0
9, 40320, Note_on_c, 2, 57, 72
9, 40560, Note_on_c, 2, 57, 0
9, 40560, Note_on_c, 2, 61, 72
9, 40800, Note_on_c, 2, 61, 0
9, 40800, Note_on_c, 2, 62, 72
9, 41040, Note_on_c, 2, 62, 0
9, 41040, Note_on_c, 2, 64, 81
9, 41280, Note_on_c, 2, 64, 0
9, 41280, Note_on_c, 2, 66, 81
9, 41520, Note_on_c, 2, 66, 0
9, 41520, Note_on_c, 2, 62, 92
9, 41760, Note_on_c, 2, 62, 0
9, 41760, Note_on_c, 2, 74, 105
9, 42048, Note_on_c, 2, 74, 0
9, 42240, Note_on_c, 2, 66, 105
9, 42528, Note_on_c, 2, 66, 0
9, 42720, Note_on_c, 2, 67, 105
9, 43008, Note_on_c, 2, 67, 0
9, 43200, Note_on_c, 2, 69, 105
9, 43488, Note_on_c, 2, 69, 0
9, 43680, Note_on_c, 2, 72, 105
9, 44160, Note_on_c, 2, 72, 0
9, 44160, Note_on_c, 2, 71, 105
9, 44448, Note_on_c, 2, 71, 0
9, 45120, Note_on_c, 2, 64, 105
9, 45408, Note_on_c, 2, 64, 0
9, 45600, Note_on_c, 2, 60, 105
9, 45600, Note_on_c, 2, 62, 105
9, 45888, Note_on_c, 2, 62, 0
9, 45888, Note_on_c, 2, 60, 0
9, 46080, Note_on_c, 2, 62, 92
9, 46080, Note_on_c, 2, 59, 92
9, 46464, Note_on_c, 2, 59, 0
9, 46464, Note_on_c, 2, 62, 0
9, 47520, Note_on_c, 2, 62, 58
9, 47760, Note_on_c, 2, 62, 0
9, 47760, Note_on_c, 2, 57, 58
9, 48000, Note_on_c, 2, 57, 0
9, 48000, Note_on_c, 2, 62, 58
9, 48240, Note_on_c, 2, 62, 0
9, 48240, Note_on_c, 2, 57, 58
9, 48480, Note_on_c, 2, 57, 0
9, 48480, Note_on_c, 2, 62, 58
9, 48720, Note_on_c, 2, 62, 0
9, 48720, Note_on_c, 2, 57, 58
9, 48912, Note_on_c, 2, 57, 0
9, 48960, Note_on_c, 2, 62, 58
9, 49200, Note_on_c, 2, 62, 0
9, 49200, Note_on_c, 2, 57, 58
9, 49440, Note_on_c, 2, 57, 0
9, 49440, Note_on_c, 2, 62, 58
9, 49680, Note_on_c, 2, 62, 0
9, 49680, Note_on_c, 2, 57, 58
9, 49920, Note_on_c, 2, 57, 0
9, 49920, Note_on_c, 2, 62, 58
9, 50160, Note_on_c, 2, 62, 0
9, 50160, Note_on_c, 2, 57, 58
9, 50352, Note_on_c, 2, 57, 0
9, 50400, Note_on_c, 2, 61, 58
9, 50640, Note_on_c, 2, 61, 0
9, 50640, Note_on_c, 2, 57, 58
9, 50880, Note_on_c, 2, 57, 0
9, 50880, Note_on_c, 2, 61, 58
9, 51120, Note_on_c, 2, 61, 0
9, 51120, Note_on_c, 2, 57, 58
9, 51360, Note_on_c, 2, 57, 0
9, 51360, Note_on_c, 2, 61, 58
9, 51600, Note_on_c, 2, 61, 0
9, 51600, Note_on_c, 2, 57, 58
9, 51792, Note_on_c, 2, 57, 0
9, 51840, Note_on_c, 2, 61, 58
9, 52080, Note_on_c, 2, 61, 0
9, 52080, Note_on_c, 2, 64, 58
9, 52320, Note_on_c, 2, 64, 0
9, 52320, Note_on_c, 2, 61, 58
9, 52560, Note_on_c, 2, 61, 0
9, 52560, Note_on_c, 2, 64, 58
9, 52800, Note_on_c, 2, 64, 0
9, 52800, Note_on_c, 2, 61, 58
9, 53040, Note_on_c, 2, 61, 0
9, 53040, Note_on_c, 2, 64, 58
9, 53232, Note_on_c, 2, 64, 0
9, 53280, Note_on_c, 2, 62, 58
9, 53520, Note_on_c, 2, 62, 0
9, 53520, Note_on_c, 2, 57, 58
9, 53760, Note_on_c, 2, 57, 0
9, 53760, Note_on_c, 2, 62, 58
9, 54000, Note_on_c, 2, 62, 0
9, 54000, Note_on_c, 2, 57, 58
9, 54240, Note_on_c, 2, 57, 0
9, 54240, Note_on_c, 2, 62, 58
9, 54480, Note_on_c, 2, 62, 0
9, 54480, Note_on_c, 2, 57, 58
9, 54672, Note_on_c, 2, 57, 0
9, 54720, Note_on_c, 2, 62, 58
9, 54960, Note_on_c, 2, 62, 0
9, 54960, Note_on_c, 2, 59, 58
9, 55200, Note_on_c, 2, 59, 0
9, 55200, Note_on_c, 2, 62, 58
9, 55440, Note_on_c, 2, 62, 0
9, 55440, Note_on_c, 2, 59, 58
9, 55680, Note_on_c, 2, 59, 0
9, 55680, Note_on_c, 2, 62, 58
9, 55920, Note_on_c, 2, 62, 0
9, 55920, Note_on_c, 2, 59, 58
9, 56112, Note_on_c, 2, 59, 0
9, 56160, Note_on_c, 2, 64, 58
9, 56400, Note_on_c, 2, 64, 0
9, 56400, Note_on_c, 2, 66, 58
9, 56640, Note_on_c, 2, 66, 0
9, 56640, Note_on_c, 2, 67, 58
9, 56880, Note_on_c, 2, 67, 0
9, 56880, Note_on_c, 2, 64, 58
9, 57120, Note_on_c, 2, 64, 0
9, 57120, Note_on_c, 2, 61, 58
9, 57360, Note_on_c, 2, 61, 0
9, 57360, Note_on_c, 2, 64, 58
9, 57600, Note_on_c, 2, 64, 0
9, 57600, Note_on_c, 2, 62, 58
9, 57984, Note_on_c, 2, 62, 0
9, 59040, Note_on_c, 2, 62, 58
9, 59280, Note_on_c, 2, 62, 0
9, 59280, Note_on_c, 2, 57, 58
9, 59520, Note_on_c, 2, 57, 0
9, 59520, Note_on_c, 2, 62, 58
9, 59760, Note_on_c, 2, 62, 0
9, 59760, Note_on_c, 2, 57, 58
9, 60000, Note_on_c, 2, 57, 0
9, 60000, Note_on_c, 2, 62, 58
9, 60240, Note_on_c, 2, 62, 0
9, 60240, Note_on_c, 2, 57, 58
9, 60432, Note_on_c, 2, 57, 0
9, 60480, Note_on_c, 2, 62, 58
9, 60720, Note_on_c, 2, 62, 0
9, 60720, Note_on_c, 2, 57, 58
9, 60960, Note_on_c, 2, 57, 0
9, 60960, Note_on_c, 2, 62, 58
9, 61200, Note_on_c, 2, 62, 0
9, 61200, Note_on_c, 2, 57, 58
9, 61440, Note_on_c, 2, 57, 0
9, 61440, Note_on_c, 2, 62, 58
9, 61680, Note_on_c, 2, 62, 0
9, 61680, Note_on_c, 2, 57, 58
9, 61872, Note_on_c, 2, 57, 0
9, 61920, Note_on_c, 2, 61, 58
9, 62160, Note_on_c, 2, 61, 0
9, 62160, Note_on_c, 2, 57, 58
9, 62400, Note_on_c, 2, 57, 0
9, 62400, Note_on_c, 2, 61, 58
9, 62640, Note_on_c, 2, 61, 0
9, 62640, Note_on_c, 2, 57, 58
9, 62880, Note_on_c, 2, 57, 0
9, 62880, Note_on_c, 2, 61, 58
9, 63120, Note_on_c, 2, 61, 0
9, 63120, Note_on_c, 2, 57, 58
9, 63312, Note_on_c, 2, 57, 0
9, 63360, Note_on_c, 2, 61, 58
9, 63600, Note_on_c, 2, 61, 0
9, 63600, Note_on_c, 2, 64, 58
9, 63840, Note_on_c, 2, 64, 0
9, 63840, Note_on_c, 2, 61, 58
9, 64080, Note_on_c, 2, 61, 0
9, 64080, Note_on_c, 2, 64, 58
9, 64320, Note_on_c, 2, 64, 0
9, 64320, Note_on_c, 2, 61, 58
9, 64560, Note_on_c, 2, 61, 0
9, 64560, Note_on_c, 2, 64, 58
9, 64752, Note_on_c, 2, 64, 0
9, 64800, Note_on_c, 2, 62, 58
9, 65040, Note_on_c, 2, 62, 0
9, 65040, Note_on_c, 2, 57, 58
9, 65280, Note_on_c, 2, 57, 0
9, 65280, Note_on_c, 2, 62, 58
9, 65520, Note_on_c, 2, 62, 0
9, 65520, Note_on_c, 2, 57, 58
9, 65760, Note_on_c, 2, 57, 0
9, 65760, Note_on_c, 2, 62, 58
9, 66000, Note_on_c, 2, 62, 0
9, 66000, Note_on_c, 2, 57, 58
9, 66192, Note_on_c, 2, 57, 0
9, 66240, Note_on_c, 2, 62, 58
9, 66480, Note_on_c, 2, 62, 0
9, 66480, Note_on_c, 2, 59, 58
9, 66720, Note_on_c, 2, 59, 0
9, 66720, Note_on_c, 2, 62, 58
9, 66960, Note_on_c, 2, 62, 0
9, 66960, Note_on_c, 2, 59, 58
9, 67200, Note_on_c, 2, 59, 0
9, 67200, Note_on_c, 2, 62, 58
9, 67440, Note_on_c, 2, 62, 0
9, 67440, Note_on_c, 2, 59, 58
9, 67632, Note_on_c, 2, 59, 0
9, 67680, Note_on_c, 2, 64, 58
9, 67920, Note_on_c, 2, 64, 0
9, 67920, Note_on_c, 2, 66, 58
9, 68160, Note_on_c, 2, 66, 0
9, 68160, Note_on_c, 2, 67, 58
9, 68400, Note_on_c, 2, 67, 0
9, 68400, Note_on_c, 2, 64, 58
9, 68640, Note_on_c, 2, 64, 0
9, 68640, Note_on_c, 2, 61, 58
9, 68880, Note_on_c, 2, 61, 0
9, 68880, Note_on_c, 2, 64, 58
9, 69120, Note_on_c, 2, 64, 0
9, 69120, Note_on_c, 2, 62, 58
9, 69504, Note_on_c, 2, 62, 0
9, 70080, Note_on_c, 2, 57, 58
9, 70320, Note_on_c, 2, 57, 0
9, 70320, Note_on_c, 2, 59, 105
9, 70560, Note_on_c, 2, 59, 0
9, 70560, Note_on_c, 2, 61, 105
9, 70800, Note_on_c, 2, 61, 0
9, 70800, Note_on_c, 2, 62, 105
9, 71040, Note_on_c, 2, 62, 0
9, 71040, Note_on_c, 2, 64, 105
9, 71280, Note_on_c, 2, 64, 0
9, 71280, Note_on_c, 2, 66, 105
9, 71520, Note_on_c, 2, 66, 0
9, 71520, Note_on_c, 2, 67, 105
9, 71760, Note_on_c, 2, 67, 0
9, 71760, Note_on_c, 2, 66, 105
9, 72000, Note_on_c, 2, 66, 0
9, 72000, Note_on_c, 2, 64, 105
9, 72240, Note_on_c, 2, 64, 0
9, 72240, Note_on_c, 2, 62, 105
9, 72480, Note_on_c, 2, 62, 0
9, 72480, Note_on_c, 2, 61, 105
9, 72720, Note_on_c, 2, 61, 0
9, 72720, Note_on_c, 2, 62, 105
9, 72912, Note_on_c, 2, 62, 0
9, 72960, Note_on_c, 2, 64, 105
9, 73200, Note_on_c, 2, 64, 0
9, 73200, Note_on_c, 2, 63, 105
9, 73440, Note_on_c, 2, 63, 0
9, 73440, Note_on_c, 2, 62, 105
9, 73680, Note_on_c, 2, 62, 0
9, 73680, Note_on_c, 2, 61, 105
9, 73920, Note_on_c, 2, 61, 0
9, 73920, Note_on_c, 2, 59, 105
9, 74160, Note_on_c, 2, 59, 0
9, 74160, Note_on_c, 2, 57, 105
9, 74400, Note_on_c, 2, 57, 0
9, 74400, Note_on_c, 2, 56, 105
9, 74640, Note_on_c, 2, 56, 0
9, 74640, Note_on_c, 2, 62, 105
9, 74880, Note_on_c, 2, 62, 0
9, 74880, Note_on_c, 2, 61, 105
9, 75264, Note_on_c, 2, 61, 0
9, 76320, Note_on_c, 2, 62, 105
9, 76560, Note_on_c, 2, 62, 0
9, 76560, Note_on_c, 2, 57, 58
9, 76800, Note_on_c, 2, 57, 0
9, 76800, Note_on_c, 2, 62, 58
9, 77040, Note_on_c, 2, 62, 0
9, 77040, Note_on_c, 2, 57, 58
9, 77280, Note_on_c, 2, 57, 0
9, 77280, Note_on_c, 2, 62, 58
9, 77520, Note_on_c, 2, 62, 0
9, 77520, Note_on_c, 2, 57, 58
9, 77712, Note_on_c, 2, 57, 0
9, 77760, Note_on_c, 2, 62, 58
9, 78000, Note_on_c, 2, 62, 0
9, 78000, Note_on_c, 2, 57, 58
9, 78240, Note_on_c, 2, 57, 0
9, 78240, Note_on_c, 2, 62, 58
9, 78480, Note_on_c, 2, 62, 0
9, 78480, Note_on_c, 2, 57, 58
9, 78720, Note_on_c, 2, 57, 0
9, 78720, Note_on_c, 2, 62, 58
9, 78960, Note_on_c, 2, 62, 0
9, 78960, Note_on_c, 2, 57, 58
9, 79152, Note_on_c, 2, 57, 0
9, 79200, Note_on_c, 2, 61, 58
9, 79440, Note_on_c, 2, 61, 0
9, 79440, Note_on_c, 2, 57, 58
9, 79680, Note_on_c, 2, 57, 0
9, 79680, Note_on_c, 2, 61, 58
9, 79920, Note_on_c, 2, 61, 0
9, 79920, Note_on_c, 2, 57, 58
9, 80160, Note_on_c, 2, 57, 0
9, 80160, Note_on_c, 2, 61, 58
9, 80400, Note_on_c, 2, 61, 0
9, 80400, Note_on_c, 2, 57, 58
9, 80592, Note_on_c, 2, 57, 0
9, 80640, Note_on_c, 2, 61, 58
9, 80880, Note_on_c, 2, 61, 0
9, 80880, Note_on_c, 2, 64, 58
9, 81120, Note_on_c, 2, 64, 0
9, 81120, Note_on_c, 2, 61, 58
9, 81360, Note_on_c, 2, 61, 0
9, 81360, Note_on_c, 2, 64, 58
9, 81600, Note_on_c, 2, 64, 0
9, 81600, Note_on_c, 2, 61, 58
9, 81840, Note_on_c, 2, 61, 0
9, 81840, Note_on_c, 2, 64, 58
9, 82032, Note_on_c, 2, 64, 0
9, 82080, Note_on_c, 2, 62, 58
9, 82320, Note_on_c, 2, 62, 0
9, 82320, Note_on_c, 2, 57, 58
9, 82560, Note_on_c, 2, 57, 0
9, 82560, Note_on_c, 2, 62, 58
9, 82800, Note_on_c, 2, 62, 0
9, 82800, Note_on_c, 2, 57, 58
9, 83040, Note_on_c, 2, 57, 0
9, 83040, Note_on_c, 2, 62, 58
9, 83280, Note_on_c, 2, 62, 0
9, 83280, Note_on_c, 2, 57, 58
9, 83472, Note_on_c, 2, 57, 0
9, 83520, Note_on_c, 2, 62, 58
9, 83760, Note_on_c, 2, 62, 0
9, 83760, Note_on_c, 2, 59, 58
9, 84000, Note_on_c, 2, 59, 0
9, 84000, Note_on_c, 2, 62, 58
9, 84240, Note_on_c, 2, 62, 0
9, 84240, Note_on_c, 2, 59, 58
9, 84480, Note_on_c, 2, 59, 0
9, 84480, Note_on_c, 2, 62, 58
9, 84720, Note_on_c, 2, 62, 0
9, 84720, Note_on_c, 2, 59, 58
9, 84912, Note_on_c, 2, 59, 0
9, 84960, Note_on_c, 2, 64, 58
9, 85200, Note_on_c, 2, 64, 0
9, 85200, Note_on_c, 2, 66, 58
9, 85440, Note_on_c, 2, 66, 0
9, 85440, Note_on_c, 2, 67, 58
9, 85680, Note_on_c, 2, 67, 0
9, 85680, Note_on_c, 2, 64, 58
9, 85920, Note_on_c, 2, 64, 0
9, 85920, Note_on_c, 2, 61, 58
9, 86160, Note_on_c, 2, 61, 0
9, 86160, Note_on_c, 2, 64, 58
9, 86400, Note_on_c, 2, 64, 0
9, 86400, Note_on_c, 2, 62, 58
9, 86784, Note_on_c, 2, 62, 0
9, 87360, Note_on_c, 2, 57, 105
9, 87600, Note_on_c, 2, 57, 0
9, 87600, Note_on_c, 2, 59, 105
9, 87840, Note_on_c, 2, 59, 0
9, 87840, Note_on_c, 2, 61, 105
9, 88080, Note_on_c, 2, 61, 0
9, 88080, Note_on_c, 2, 62, 105
9, 88320, Note_on_c, 2, 62, 0
9, 88320, Note_on_c, 2, 64, 105
9, 88560, Note_on_c, 2, 64, 0
9, 88560, Note_on_c, 2, 66, 105
9, 88800, Note_on_c, 2, 66, 0
9, 88800, Note_on_c, 2, 67, 105
9, 89040, Note_on_c, 2, 67, 0
9, 89040, Note_on_c, 2, 66, 105
9, 89280, Note_on_c, 2, 66, 0
9, 89280, Note_on_c, 2, 64, 105
9, 89520, Note_on_c, 2, 64, 0
9, 89520, Note_on_c, 2, 62, 105
9, 89760, Note_on_c, 2, 62, 0
9, 89760, Note_on_c, 2, 61, 105
9, 90000, Note_on_c, 2, 61, 0
9, 90000, Note_on_c, 2, 62, 105
9, 90192, Note_on_c, 2, 62, 0
9, 90240, Note_on_c, 2, 64, 105
9, 90480, Note_on_c, 2, 64, 0
9, 90480, Note_on_c, 2, 63, 105
9, 90720, Note_on_c, 2, 63, 0
9, 90720, Note_on_c, 2, 62, 105
9, 90960, Note_on_c, 2, 62, 0
9, 90960, Note_on_c, 2, 61, 105
9, 91200, Note_on_c, 2, 61, 0
9, 91200, Note_on_c, 2, 59, 105
9, 91440, Note_on_c, 2, 59, 0
9, 91440, Note_on_c, 2, 57, 105
9, 91680, Note_on_c, 2, 57, 0
9, 91680, Note_on_c, 2, 56, 105
9, 91920, Note_on_c, 2, 56, 0
9, 91920, Note_on_c, 2, 62, 105
9, 92160, Note_on_c, 2, 62, 0
9, 92160, Note_on_c, 2, 61, 105
9, 92544, Note_on_c, 2, 61, 0
9, 93600, Note_on_c, 2, 62, 105
9, 93840, Note_on_c, 2, 62, 0
9, 93840, Note_on_c, 2, 57, 58
9, 94080, Note_on_c, 2, 57, 0
9, 94080, Note_on_c, 2, 62, 58
9, 94320, Note_on_c, 2, 62, 0
9, 94320, Note_on_c, 2, 57, 58
9, 94560, Note_on_c, 2, 57, 0
9, 94560, Note_on_c, 2, 62, 58
9, 94800, Note_on_c, 2, 62, 0
9, 94800, Note_on_c, 2, 57, 58
9, 94992, Note_on_c, 2, 57, 0
9, 95040, Note_on_c, 2, 62, 58
9, 95280, Note_on_c, 2, 62, 0
9, 95280, Note_on_c, 2, 57, 58
9, 95520, Note_on_c, 2, 57, 0
9, 95520, Note_on_c, 2, 62, 58
9, 95760, Note_on_c, 2, 62, 0
9, 95760, Note_on_c, 2, 57, 58
9, 96000, Note_on_c, 2, 57, 0
9, 96000, Note_on_c, 2, 62, 58
9, 96240, Note_on_c, 2, 62, 0
9, 96240, Note_on_c, 2, 57, 58
9, 96432, Note_on_c, 2, 57, 0
9, 96480, Note_on_c, 2, 61, 58
9, 96720, Note_on_c, 2, 61, 0
9, 96720, Note_on_c, 2, 57, 58
9, 96960, Note_on_c, 2, 57, 0
9, 96960, Note_on_c, 2, 61, 58
9, 97200, Note_on_c, 2, 61, 0
9, 97200, Note_on_c, 2, 57, 58
9, 97440, Note_on_c, 2, 57, 0
9, 97440, Note_on_c, 2, 61, 58
9, 97680, Note_on_c, 2, 61, 0
9, 97680, Note_on_c, 2, 57, 58
9, 97872, Note_on_c, 2, 57, 0
9, 97920, Note_on_c, 2, 61, 58
9, 98160, Note_on_c, 2, 61, 0
9, 98160, Note_on_c, 2, 64, 58
9, 98400, Note_on_c, 2, 64, 0
9, 98400, Note_on_c, 2, 61, 58
9, 98640, Note_on_c, 2, 61, 0
9, 98640, Note_on_c, 2, 64, 58
9, 98880, Note_on_c, 2, 64, 0
9, 98880, Note_on_c, 2, 61, 58
9, 99120, Note_on_c, 2, 61, 0
9, 99120, Note_on_c, 2, 64, 58
9, 99312, Note_on_c, 2, 64, 0
9, 99360, Note_on_c, 2, 62, 58
9, 99600, Note_on_c, 2, 62, 0
9, 99600, Note_on_c, 2, 57, 58
9, 99840, Note_on_c, 2, 57, 0
9, 99840, Note_on_c, 2, 62, 58
9, 100080, Note_on_c, 2, 62, 0
9, 100080, Note_on_c, 2, 57, 58
9, 100320, Note_on_c, 2, 57, 0
9, 100320, Note_on_c, 2, 62, 58
9, 100560, Note_on_c, 2, 62, 0
9, 100560, Note_on_c, 2, 57, 58
9, 100752, Note_on_c, 2, 57, 0
9, 100800, Note_on_c, 2, 62, 58
9, 101040, Note_on_c, 2, 62, 0
9, 101040, Note_on_c, 2, 59, 58
9, 101280, Note_on_c, 2, 59, 0
9, 101280, Note_on_c, 2, 62, 58
9, 101520, Note_on_c, 2, 62, 0
9, 101520, Note_on_c, 2, 59, 58
9, 101760, Note_on_c, 2, 59, 0
9, 101760, Note_on_c, 2, 62, 58
9, 102000, Note_on_c, 2, 62, 0
9, 102000, Note_on_c, 2, 59, 58
9, 102192, Note_on_c, 2, 59, 0
9, 102240, Note_on_c, 2, 64, 58
9, 102480, Note_on_c, 2, 64, 0
9, 102480, Note_on_c, 2, 66, 58
9, 102720, Note_on_c, 2, 66, 0
9, 102720, Note_on_c, 2, 67, 58
9, 102960, Note_on_c, 2, 67, 0
9, 102960, Note_on_c, 2, 64, 58
9, 103200, Note_on_c, 2, 64, 0
9, 103200, Note_on_c, 2, 61, 58
9, 103440, Note_on_c, 2, 61, 0
9, 103440, Note_on_c, 2, 64, 58
9, 103680, Note_on_c, 2, 64, 0
9, 103680, Note_on_c, 2, 62, 58
9, 104064, Note_on_c, 2, 62, 0
9, 105120, Note_on_c, 2, 71, 105
9, 105408, Note_on_c, 2, 71, 0
9, 105600, Note_on_c, 2, 66, 105
9, 105888, Note_on_c, 2, 66, 0
9, 106080, Note_on_c, 2, 67, 105
9, 106368, Note_on_c, 2, 67, 0
9, 106560, Note_on_c, 2, 69, 105
9, 106848, Note_on_c, 2, 69, 0
9, 107040, Note_on_c, 2, 64, 105
9, 107328, Note_on_c, 2, 64, 0
9, 107520, Note_on_c, 2, 66, 105
9, 107808, Note_on_c, 2, 66, 0
9, 108000, Note_on_c, 2, 67, 105
9, 108288, Note_on_c, 2, 67, 0
9, 108480, Note_on_c, 2, 64, 105
9, 108768, Note_on_c, 2, 64, 0
9, 108960, Note_on_c, 2, 61, 105
9, 109248, Note_on_c, 2, 61, 0
9, 109440, Note_on_c, 2, 62, 105
9, 109680, Note_on_c, 2, 62, 0
9, 109680, Note_on_c, 2, 69, 105
9, 109920, Note_on_c, 2, 69, 0
9, 109920, Note_on_c, 2, 67, 105
9, 110160, Note_on_c, 2, 67, 0
9, 110160, Note_on_c, 2, 66, 105
9, 110400, Note_on_c, 2, 66, 0
9, 110400, Note_on_c, 2, 67, 105
9, 110640, Note_on_c, 2, 67, 0
9, 110640, Note_on_c, 2, 69, 105
9, 110832, Note_on_c, 2, 69, 0
9, 110880, Note_on_c, 2, 71, 105
9, 111168, Note_on_c, 2, 71, 0
9, 111360, Note_on_c, 2, 72, 105
9, 111648, Note_on_c, 2, 72, 0
9, 111840, Note_on_c, 2, 71, 105
9, 112080, Note_on_c, 2, 71, 0
9, 112080, Note_on_c, 2, 67, 105
9, 112272, Note_on_c, 2, 67, 0
9, 112320, Note_on_c, 2, 66, 105
9, 112608, Note_on_c, 2, 66, 0
9, 112800, Note_on_c, 2, 72, 105
9, 113088, Note_on_c, 2, 72, 0
9, 113280, Note_on_c, 2, 71, 105
9, 113568, Note_on_c, 2, 71, 0
9, 114240, Note_on_c, 2, 64, 105
9, 114528, Note_on_c, 2, 64, 0
9, 114720, Note_on_c, 2, 60, 105
9, 114720, Note_on_c, 2, 62, 105
9, 115008, Note_on_c, 2, 62, 0
9, 115008, Note_on_c, 2, 60, 0
9, 115200, Note_on_c, 2, 59, 92
9, 115200, Note_on_c, 2, 62, 92
9, 115488, Note_on_c, 2, 62, 0
9, 115488, Note_on_c, 2, 59, 0
9, 117600, Note_on_c, 2, 60, 58
9, 117888, Note_on_c, 2, 60, 0
9, 118080, Note_on_c, 2, 59, 58
9, 118560, Note_on_c, 2, 59, 0
9, 118560, Note_on_c, 2, 55, 58
9, 118848, Note_on_c, 2, 55, 0
9, 120480, Note_on_c, 2, 58, 58
9, 120768, Note_on_c, 2, 58, 0
9, 120960, Note_on_c, 2, 57, 72
9, 121200, Note_on_c, 2, 57, 0
9, 121200, Note_on_c, 2, 61, 72
9, 121440, Note_on_c, 2, 61, 0
9, 121440, Note_on_c, 2, 62, 81
9, 121680, Note_on_c, 2, 62, 0
9, 121680, Note_on_c, 2, 64, 81
9, 121920, Note_on_c, 2, 64, 0
9, 121920, Note_on_c, 2, 66, 92
9, 122160, Note_on_c, 2, 66, 0
9, 122160, Note_on_c, 2, 62, 92
9, 122400, Note_on_c, 2, 62, 0
9, 122400, Note_on_c, 2, 74, 105
9, 122688, Note_on_c, 2, 74, 0
9, 122880, Note_on_c, 2, 66, 105
9, 123168, Note_on_c, 2, 66, 0
9, 123360, Note_on_c, 2, 67, 105
9, 123648, Note_on_c, 2, 67, 0
9, 123840, Note_on_c, 2, 69, 105
9, 124128, Note_on_c, 2, 69, 0
9, 124320, Note_on_c, 2, 72, 105
9, 124800, Note_on_c, 2, 72, 0
9, 124800, Note_on_c, 2, 71, 105
9, 125088, Note_on_c, 2, 71, 0
9, 125760, Note_on_c, 2, 64, 105
9, 126048, Note_on_c, 2, 64, 0
9, 126240, Note_on_c, 2, 60, 105
9, 126240, Note_on_c, 2, 62, 105
9, 126528, Note_on_c, 2, 62, 0
9, 126528, Note_on_c, 2, 60, 0
9, 126720, Note_on_c, 2, 59, 92
9, 126720, Note_on_c, 2, 62, 92
9, 127104, Note_on_c, 2, 62, 0
9, 127104, Note_on_c, 2, 59, 0
9, 127104, End_track
10, 0, Start_track
10, 0, Program_c, 3, 42
10, 0, Control_c, 3, 10, 98
10, 0, Control_c, 3, 91, 85
10, 1440, Note_on_c, 3, 59, 105
10, 1728, Note_on_c, 3, 59, 0
10, 1920, Note_on_c, 3, 54, 105
10, 2208, Note_on_c, 3, 54, 0
10, 2400, Note_on_c, 3, 55, 105
10, 2688, Note_on_c, 3, 55, 0
10, 2880, Note_on_c, 3, 57, 105
10, 3168, Note_on_c, 3, 57, 0
10, 3360, Note_on_c, 3, 52, 105
10, 3648, Note_on_c, 3, 52, 0
10, 3840, Note_on_c, 3, 54, 105
10, 4128, Note_on_c, 3, 54, 0
10, 4320, Note_on_c, 3, 55, 105
10, 4608, Note_on_c, 3, 55, 0
10, 4800, Note_on_c, 3, 52, 105
10, 5088, Note_on_c, 3, 52, 0
10, 5280, Note_on_c, 3, 49, 105
10, 5568, Note_on_c, 3, 49, 0
10, 5760, Note_on_c, 3, 50, 105
10, 6048, Note_on_c, 3, 50, 0
10, 6240, Note_on_c, 3, 62, 105
10, 6528, Note_on_c, 3, 62, 0
10, 6720, Note_on_c, 3, 60, 105
10, 7008, Note_on_c, 3, 60, 0
10, 7200, Note_on_c, 3, 59, 105
10, 7488, Note_on_c, 3, 59, 0
10, 7680, Note_on_c, 3, 54, 105
10, 7968, Note_on_c, 3, 54, 0
10, 8160, Note_on_c, 3, 55, 105
10, 8448, Note_on_c, 3, 55, 0
10, 8640, Note_on_c, 3, 57, 105
10, 8928, Note_on_c, 3, 57, 0
10, 9120, Note_on_c, 3, 50, 105
10, 9408, Note_on_c, 3, 50, 0
10, 9600, Note_on_c, 3, 55, 105
10, 9888, Note_on_c, 3, 55, 0
10, 10080, Note_on_c, 3, 52, 105
10, 10368, Note_on_c, 3, 52, 0
10, 10560, Note_on_c, 3, 48, 105
10, 10848, Note_on_c, 3, 48, 0
10, 11040, Note_on_c, 3, 50, 105
10, 11328, Note_on_c, 3, 50, 0
10, 11520, Note_on_c, 3, 43, 105
10, 11808, Note_on_c, 3, 43, 0
10, 12000, Note_on_c, 3, 55, 105
10, 12288, Note_on_c, 3, 55, 0
10, 12960, Note_on_c, 3, 59, 105
10, 13248, Note_on_c, 3, 59, 0
10, 13440, Note_on_c, 3, 54, 105
10, 13728, Note_on_c, 3, 54, 0
10, 13920, Note_on_c, 3, 55, 105
10, 14208, Note_on_c, 3, 55, 0
10, 14400, Note_on_c, 3, 57, 105
10, 14688, Note_on_c, 3, 57, 0
10, 14880, Note_on_c, 3, 52, 105
10, 15168, Note_on_c, 3, 52, 0
10, 15360, Note_on_c, 3, 54, 105
10, 15648, Note_on_c, 3, 54, 0
10, 15840, Note_on_c, 3, 55, 105
10, 16128, Note_on_c, 3, 55, 0
10, 16320, Note_on_c, 3, 52, 105
10, 16608, Note_on_c, 3, 52, 0
10, 16800, Note_on_c, 3, 49, 105
10, 17088, Note_on_c, 3, 49, 0
10, 17280, Note_on_c, 3, 50, 105
10, 17568, Note_on_c, 3, 50, 0
10, 17760, Note_on_c, 3, 62, 105
10, 18048, Note_on_c, 3, 62, 0
10, 18240, Note_on_c, 3, 60, 105
10, 18528, Note_on_c, 3, 60, 0
10, 18720, Note_on_c, 3, 59, 105
10, 19008, Note_on_c, 3, 59, 0
10, 19200, Note_on_c, 3, 54, 105
10, 19488, Note_on_c, 3, 54, 0
10, 19680, Note_on_c, 3, 55, 105
10, 19968, Note_on_c, 3, 55, 0
10, 20160, Note_on_c, 3, 57, 105
10, 20448, Note_on_c, 3, 57, 0
10, 20640, Note_on_c, 3, 50, 105
10, 20928, Note_on_c, 3, 50, 0
10, 21120, Note_on_c, 3, 55, 105
10, 21408, Note_on_c, 3, 55, 0
10, 21600, Note_on_c, 3, 52, 105
10, 21888, Note_on_c, 3, 52, 0
10, 22080, Note_on_c, 3, 48, 105
10, 22368, Note_on_c, 3, 48, 0
10, 22560, Note_on_c, 3, 50, 105
10, 22848, Note_on_c, 3, 50, 0
10, 23040, Note_on_c, 3, 43, 92
10, 23328, Note_on_c, 3, 43, 0
10, 23520, Note_on_c, 3, 55, 92
10, 23808, Note_on_c, 3, 55, 0
10, 25440, Note_on_c, 3, 57, 72
10, 25752, Note_on_c, 3, 57, 0
10, 25920, Note_on_c, 3, 55, 72
10, 26400, Note_on_c, 3, 55, 0
10, 26400, Note_on_c, 3, 52, 72
10, 26712, Note_on_c, 3, 52, 0
10, 28320, Note_on_c, 3, 55, 72
10, 28632, Note_on_c, 3, 55, 0
10, 28800, Note_on_c, 3, 54, 72
10, 29112, Note_on_c, 3, 54, 0
10, 29280, Note_on_c, 3, 62, 92
10, 29592, Note_on_c, 3, 62, 0
10, 29760, Note_on_c, 3, 60, 92
10, 30072, Note_on_c, 3, 60, 0
10, 30240, Note_on_c, 3, 59, 105
10, 30552, Note_on_c, 3, 59, 0
10, 30720, Note_on_c, 3, 57, 105
10, 31032, Note_on_c, 3, 57, 0
10, 31200, Note_on_c, 3, 55, 105
10, 31512, Note_on_c, 3, 55, 0
10, 31680, Note_on_c, 3, 54, 105
10, 31992, Note_on_c, 3, 54, 0
10, 32160, Note_on_c, 3, 50, 105
10, 32472, Note_on_c, 3, 50, 0
10, 32640, Note_on_c, 3, 55, 105
10, 32952, Note_on_c, 3, 55, 0
10, 33120, Note_on_c, 3, 52, 105
10, 33432, Note_on_c, 3, 52, 0
10, 33600, Note_on_c, 3, 48, 105
10, 33912, Note_on_c, 3, 48, 0
10, 34080, Note_on_c, 3, 50, 105
10, 34392, Note_on_c, 3, 50, 0
10, 34560, Note_on_c, 3, 43, 105
10, 34872, Note_on_c, 3, 43, 0
10, 35040, Note_on_c, 3, 55, 105
10, 35352, Note_on_c, 3, 55, 0
10, 36960, Note_on_c, 3, 57, 72
10, 37272, Note_on_c, 3, 57, 0
10, 37440, Note_on_c, 3, 55, 72
10, 37920, Note_on_c, 3, 55, 0
10, 37920, Note_on_c, 3, 52, 72
10, 38232, Note_on_c, 3, 52, 0
10, 39840, Note_on_c, 3, 55, 72
10, 40152, Note_on_c, 3, 55, 0
10, 40320, Note_on_c, 3, 54, 72
10, 40632, Note_on_c, 3, 54, 0
10, 40800, Note_on_c, 3, 62, 92
10, 41112, Note_on_c, 3, 62, 0
10, 41280, Note_on_c, 3, 60, 92
10, 41592, Note_on_c, 3, 60, 0
10, 41760, Note_on_c, 3, 59, 105
10, 42072, Note_on_c, 3, 59, 0
10, 42240, Note_on_c, 3, 57, 105
10, 42552, Note_on_c, 3, 57, 0
10, 42720, Note_on_c, 3, 55, 105
10, 43032, Note_on_c, 3, 55, 0
10, 43200, Note_on_c, 3, 54, 105
10, 43512, Note_on_c, 3, 54, 0
10, 43680, Note_on_c, 3, 50, 105
10, 43992, Note_on_c, 3, 50, 0
10, 44160, Note_on_c, 3, 55, 105
10, 44472, Note_on_c, 3, 55, 0
10, 44640, Note_on_c, 3, 52, 105
10, 44952, Note_on_c, 3, 52, 0
10, 45120, Note_on_c, 3, 48, 105
10, 45432, Note_on_c, 3, 48, 0
10, 45600, Note_on_c, 3, 50, 105
10, 45912, Note_on_c, 3, 50, 0
10, 46080, Note_on_c, 3, 43, 105
10, 46464, Note_on_c, 3, 43, 0
10, 46560, Note_on_c, 3, 55, 105
10, 46944, Note_on_c, 3, 55, 0
10, 47520, Note_on_c, 3, 38, 72
10, 47880, Note_on_c, 3, 38, 0
10, 48000, Note_on_c, 3, 50, 72
10, 48360, Note_on_c, 3, 50, 0
10, 48960, Note_on_c, 3, 38, 72
10, 49320, Note_on_c, 3, 38, 0
10, 49440, Note_on_c, 3, 50, 72
10, 49800, Note_on_c, 3, 50, 0
10, 50400, Note_on_c, 3, 45, 72
10, 50760, Note_on_c, 3, 45, 0
10, 50880, Note_on_c, 3, 57, 72
10, 51240, Note_on_c, 3, 57, 0
10, 51840, Note_on_c, 3, 45, 72
10, 52200, Note_on_c, 3, 45, 0
10, 52320, Note_on_c, 3, 57, 72
10, 52680, Note_on_c, 3, 57, 0
10, 53280, Note_on_c, 3, 50, 72
10, 53640, Note_on_c, 3, 50, 0
10, 53760, Note_on_c, 3, 62, 72
10, 54120, Note_on_c, 3, 62, 0
10, 54720, Note_on_c, 3, 47, 72
10, 55080, Note_on_c, 3, 47, 0
10, 55200, Note_on_c, 3, 59, 72
10, 55560, Note_on_c, 3, 59, 0
10, 56160, Note_on_c, 3, 55, 72
10, 56520, Note_on_c, 3, 55, 0
10, 56640, Note_on_c, 3, 52, 72
10, 57000, Note_on_c, 3, 52, 0
10, 57120, Note_on_c, 3, 57, 72
10, 57480, Note_on_c, 3, 57, 0
10, 57600, Note_on_c, 3, 50, 72
10, 57984, Note_on_c, 3, 50, 0
10, 58080, Note_on_c, 3, 62, 72
10, 58464, Note_on_c, 3, 62, 0
10, 59040, Note_on_c, 3, 38, 72
10, 59400, Note_on_c, 3, 38, 0
10, 59520, Note_on_c, 3, 50, 72
10, 59880, Note_on_c, 3, 50, 0
10, 60480, Note_on_c, 3, 38, 72
10, 60840, Note_on_c, 3, 38, 0
10, 60960, Note_on_c, 3, 50, 72
10, 61320, Note_on_c, 3, 50, 0
10, 61920, Note_on_c, 3, 45, 72
10, 62280, Note_on_c, 3, 45, 0
10, 62400, Note_on_c, 3, 57, 72
10, 62760, Note_on_c, 3, 57, 0
10, 63360, Note_on_c, 3, 45, 72
10, 63720, Note_on_c, 3, 45, 0
10, 63840, Note_on_c, 3, 57, 72
10, 64200, Note_on_c, 3, 57, 0
10, 64800, Note_on_c, 3, 50, 72
10, 65160, Note_on_c, 3, 50, 0
10, 65280, Note_on_c, 3, 62, 72
10, 65640, Note_on_c, 3, 62, 0
10, 66240, Note_on_c, 3, 47, 72
10, 66600, Note_on_c, 3, 47, 0
10, 66720, Note_on_c, 3, 59, 72
10, 67080, Note_on_c, 3, 59, 0
10, 67680, Note_on_c, 3, 55, 72
10, 68040, Note_on_c, 3, 55, 0
10, 68160, Note_on_c, 3, 52, 72
10, 68520, Note_on_c, 3, 52, 0
10, 68640, Note_on_c, 3, 57, 72
10, 69000, Note_on_c, 3, 57, 0
10, 69120, Note_on_c, 3, 50, 72
10, 69504, Note_on_c, 3, 50, 0
10, 69600, Note_on_c, 3, 62, 72
10, 69984, Note_on_c, 3, 62, 0
10, 70560, Note_on_c, 3, 45, 105
10, 70944, Note_on_c, 3, 45, 0
10, 71520, Note_on_c, 3, 49, 105
10, 72000, Note_on_c, 3, 49, 0
10, 72000, Note_on_c, 3, 50, 105
10, 72384, Note_on_c, 3, 50, 0
10, 73440, Note_on_c, 3, 52, 105
10, 73824, Note_on_c, 3, 52, 0
10, 74400, Note_on_c, 3, 40, 105
10, 74880, Note_on_c, 3, 40, 0
10, 74880, Note_on_c, 3, 45, 105
10, 75240, Note_on_c, 3, 45, 0
10, 75360, Note_on_c, 3, 57, 105
10, 75720, Note_on_c, 3, 57, 0
10, 76320, Note_on_c, 3, 38, 72
10, 76680, Note_on_c, 3, 38, 0
10, 76800, Note_on_c, 3, 50, 72
10, 77160, Note_on_c, 3, 50, 0
10, 77760, Note_on_c, 3, 38, 72
10, 78120, Note_on_c, 3, 38, 0
10, 78240, Note_on_c, 3, 50, 72
10, 78600, Note_on_c, 3, 50, 0
10, 79200, Note_on_c, 3, 45, 72
10, 79560, Note_on_c, 3, 45, 0
10, 79680, Note_on_c, 3, 57, 72
10, 80040, Note_on_c, 3, 57, 0
10, 80640, Note_on_c, 3, 45, 72
10, 81000, Note_on_c, 3, 45, 0
10, 81120, Note_on_c, 3, 57, 72
10, 81480, Note_on_c, 3, 57, 0
10, 82080, Note_on_c, 3, 50, 72
10, 82440, Note_on_c, 3, 50, 0
10, 82560, Note_on_c, 3, 62, 72
10, 82920, Note_on_c, 3, 62, 0
10, 83520, Note_on_c, 3, 47, 72
10, 83880, Note_on_c, 3, 47, 0
10, 84000, Note_on_c, 3, 59, 72
10, 84360, Note_on_c, 3, 59, 0
10, 84960, Note_on_c, 3, 55, 72
10, 85320, Note_on_c, 3, 55, 0
10, 85440, Note_on_c, 3, 52, 72
10, 85800, Note_on_c, 3, 52, 0
10, 85920, Note_on_c, 3, 57, 72
10, 86280, Note_on_c, 3, 57, 0
10, 86400, Note_on_c, 3, 50, 72
10, 86784, Note_on_c, 3, 50, 0
10, 86880, Note_on_c, 3, 62, 72
10, 87264, Note_on_c, 3, 62, 0
10, 87840, Note_on_c, 3, 45, 105
10, 88224, Note_on_c, 3, 45, 0
10, 88800, Note_on_c, 3, 49, 105
10, 89280, Note_on_c, 3, 49, 0
10, 89280, Note_on_c, 3, 50, 105
10, 89664, Note_on_c, 3, 50, 0
10, 90720, Note_on_c, 3, 52, 105
10, 91104, Note_on_c, 3, 52, 0
10, 91680, Note_on_c, 3, 40, 105
10, 92160, Note_on_c, 3, 40, 0
10, 92160, Note_on_c, 3, 45, 105
10, 92520, Note_on_c, 3, 45, 0
10, 92640, Note_on_c, 3, 57, 105
10, 93000, Note_on_c, 3, 57, 0
10, 93600, Note_on_c, 3, 38, 72
10, 93960, Note_on_c, 3, 38, 0
10, 94080, Note_on_c, 3, 50, 72
10, 94440, Note_on_c, 3, 50, 0
10, 95040, Note_on_c, 3, 38, 72
10, 95400, Note_on_c, 3, 38, 0
10, 95520, Note_on_c, 3, 50, 72
10, 95880, Note_on_c, 3, 50, 0
10, 96480, Note_on_c, 3, 45, 72
10, 96840, Note_on_c, 3, 45, 0
10, 96960, Note_on_c, 3, 57, 72
10, 97320, Note_on_c, 3, 57, 0
10, 97920, Note_on_c, 3, 45, 72
10, 98280, Note_on_c, 3, 45, 0
10, 98400, Note_on_c, 3, 57, 72
10, 98760, Note_on_c, 3, 57, 0
10, 99360, Note_on_c, 3, 50, 72
10, 99720, Note_on_c, 3, 50, 0
10, 99840, Note_on_c, 3, 62, 72
10, 100200, Note_on_c, 3, 62, 0
10, 100800, Note_on_c, 3, 47, 72
10, 101160, Note_on_c, 3, 47, 0
10, 101280, Note_on_c, 3, 59, 72
10, 101640, Note_on_c, 3, 59, 0
10, 102240, Note_on_c, 3, 55, 72
10, 102600, Note_on_c, 3, 55, 0
10, 102720, Note_on_c, 3, 52, 72
10, 103080, Note_on_c, 3, 52, 0
10, 103200, Note_on_c, 3, 57, 72
10, 103560, Note_on_c, 3, 57, 0
10, 103680, Note_on_c, 3, 50, 72
10, 104064, Note_on_c, 3, 50, 0
10, 104160, Note_on_c, 3, 62, 72
10, 104544, Note_on_c, 3, 62, 0
10, 105120, Note_on_c, 3, 59, 105
10, 105408, Note_on_c, 3, 59, 0
10, 105600, Note_on_c, 3, 54, 105
10, 105888, Note_on_c, 3, 54, 0
10, 106080, Note_on_c, 3, 55, 105
10, 106368, Note_on_c, 3, 55, 0
10, 106560, Note_on_c, 3, 57, 105
10, 106848, Note_on_c, 3, 57, 0
10, 107040, Note_on_c, 3, 52, 105
10, 107328, Note_on_c, 3, 52, 0
10, 107520, Note_on_c, 3, 54, 105
10, 107808, Note_on_c, 3, 54, 0
10, 108000, Note_on_c, 3, 55, 105
10, 108288, Note_on_c, 3, 55, 0
10, 108480, Note_on_c, 3, 52, 105
10, 108768, Note_on_c, 3, 52, 0
10, 108960, Note_on_c, 3, 49, 105
10, 109248, Note_on_c, 3, 49, 0
10, 109440, Note_on_c, 3, 50, 105
10, 109728, Note_on_c, 3, 50, 0
10, 109920, Note_on_c, 3, 62, 105
10, 110208, Note_on_c, 3, 62, 0
10, 110400, Note_on_c, 3, 60, 105
10, 110688, Note_on_c, 3, 60, 0
10, 110880, Note_on_c, 3, 59, 105
10, 111168, Note_on_c, 3, 59, 0
10, 111360, Note_on_c, 3, 54, 105
10, 111648, Note_on_c, 3, 54, 0
10, 111840, Note_on_c, 3, 55, 105
10, 112128, Note_on_c, 3, 55, 0
10, 112320, Note_on_c, 3, 57, 105
10, 112608, Note_on_c, 3, 57, 0
10, 112800, Note_on_c, 3, 50, 105
10, 113088, Note_on_c, 3, 50, 0
10, 113280, Note_on_c, 3, 55, 105
10, 113568, Note_on_c, 3, 55, 0
10, 113760, Note_on_c, 3, 52, 105
10, 114048, Note_on_c, 3, 52, 0
10, 114240, Note_on_c, 3, 48, 105
10, 114528, Note_on_c, 3, 48, 0
10, 114720, Note_on_c, 3, 50, 105
10, 115008, Note_on_c, 3, 50, 0
10, 115200, Note_on_c, 3, 43, 92
10, 115488, Note_on_c, 3, 43, 0
10, 115680, Note_on_c, 3, 55, 92
10, 115968, Note_on_c, 3, 55, 0
10, 117600, Note_on_c, 3, 57, 72
10, 117912, Note_on_c, 3, 57, 0
10, 118080, Note_on_c, 3, 55, 72
10, 118560, Note_on_c, 3, 55, 0
10, 118560, Note_on_c, 3, 52, 72
10, 118872, Note_on_c, 3, 52, 0
10, 120480, Note_on_c, 3, 55, 72
10, 120792, Note_on_c, 3, 55, 0
10, 120960, Note_on_c, 3, 54, 72
10, 121272, Note_on_c, 3, 54, 0
10, 121440, Note_on_c, 3, 62, 92
10, 121752, Note_on_c, 3, 62, 0
10, 121920, Note_on_c, 3, 60, 92
10, 122232, Note_on_c, 3, 60, 0
10, 122400, Note_on_c, 3, 59, 105
10, 122712, Note_on_c, 3, 59, 0
10, 122880, Note_on_c, 3, 57, 105
10, 123192, Note_on_c, 3, 57, 0
10, 123360, Note_on_c, 3, 55, 105
10, 123672, Note_on_c, 3, 55, 0
10, 123840, Note_on_c, 3, 54, 105
10, 124152, Note_on_c, 3, 54, 0
10, 124320, Note_on_c, 3, 50, 105
10, 124632, Note_on_c, 3, 50, 0
10, 124800, Note_on_c, 3, 55, 105
10, 125112, Note_on_c, 3, 55, 0
10, 125280, Note_on_c, 3, 52, 105
10, 125592, Note_on_c, 3, 52, 0
10, 125760, Note_on_c, 3, 48, 105
10, 126072, Note_on_c, 3, 48, 0
10, 126240, Note_on_c, 3, 50, 105
10, 126552, Note_on_c, 3, 50, 0
10, 126720, Note_on_c, 3, 43, 92
10, 127104, Note_on_c, 3, 43, 0
10, 127104, End_track
11, 0, Start_track
11, 0, Program_c, 4, 43
11, 0, Control_c, 4, 91, 95
11, 1440, Note_on_c, 4, 47, 105
11, 1728, Note_on_c, 4, 47, 0
11, 1920, Note_on_c, 4, 42, 105
11, 2208, Note_on_c, 4, 42, 0
11, 2400, Note_on_c, 4, 43, 105
11, 2688, Note_on_c, 4, 43, 0
11, 2880, Note_on_c, 4, 45, 105
11, 3168, Note_on_c, 4, 45, 0
11, 3360, Note_on_c, 4, 40, 105
11, 3648, Note_on_c, 4, 40, 0
11, 3840, Note_on_c, 4, 42, 105
11, 4128, Note_on_c, 4, 42, 0
11, 4320, Note_on_c, 4, 43, 105
11, 4608, Note_on_c, 4, 43, 0
11, 4800, Note_on_c, 4, 40, 105
11, 5088, Note_on_c, 4, 40, 0
11, 5280, Note_on_c, 4, 37, 105
11, 5568, Note_on_c, 4, 37, 0
11, 5760, Note_on_c, 4, 38, 105
11, 6048, Note_on_c, 4, 38, 0
11, 6240, Note_on_c, 4, 50, 105
11, 6528, Note_on_c, 4, 50, 0
11, 6720, Note_on_c, 4, 48, 105
11, 7008, Note_on_c, 4, 48, 0
11, 7200, Note_on_c, 4, 47, 105
11, 7488, Note_on_c, 4, 47, 0
11, 7680, Note_on_c, 4, 42, 105
11, 7968, Note_on_c, 4, 42, 0
11, 8160, Note_on_c, 4, 43, 105
11, 8448, Note_on_c, 4, 43, 0
11, 8640, Note_on_c, 4, 45, 105
11, 8928, Note_on_c, 4, 45, 0
11, 9120, Note_on_c, 4, 38, 105
11, 9408, Note_on_c, 4, 38, 0
11, 9600, Note_on_c, 4, 43, 105
11, 9888, Note_on_c, 4, 43, 0
11, 10080, Note_on_c, 4, 40, 105
11, 10368, Note_on_c, 4, 40, 0
11, 10560, Note_on_c, 4, 36, 105
11, 10848, Note_on_c, 4, 36, 0
11, 11040, Note_on_c, 4, 38, 105
11, 11328, Note_on_c, 4, 38, 0
11, 11520, Note_on_c, 4, 31, 105
11, 11808, Note_on_c, 4, 31, 0
11, 12000, Note_on_c, 4, 43, 105
11, 12288, Note_on_c, 4, 43, 0
11, 12960, Note_on_c, 4, 47, 105
11, 13248, Note_on_c, 4, 47, 0
11, 13440, Note_on_c, 4, 42, 105
11, 13728, Note_on_c, 4, 42, 0
11, 13920, Note_on_c, 4, 43, 105
11, 14208, Note_on_c, 4, 43, 0
11, 14400, Note_on_c, 4, 45, 105
11, 14688, Note_on_c, 4, 45, 0
11, 14880, Note_on_c, 4, 40, 105
11, 15168, Note_on_c, 4, 40, 0
11, 15360, Note_on_c, 4, 42, 105
11, 15648, Note_on_c, 4, 42, 0
11, 15840, Note_on_c, 4, 43, 105
11, 16128, Note_on_c, 4, 43, 0
11, 16320, Note_on_c, 4, 40, 105
11, 16608, Note_on_c, 4, 40, 0
11, 16800, Note_on_c, 4, 37, 105
11, 17088, Note_on_c, 4, 37, 0
11, 17280, Note_on_c, 4, 38, 105
11, 17568, Note_on_c, 4, 38, 0
11, 17760, Note_on_c, 4, 50, 105
11, 18048, Note_on_c, 4, 50, 0
11, 18240, Note_on_c, 4, 48, 105
11, 18528, Note_on_c, 4, 48, 0
11, 18720, Note_on_c, 4, 47, 105
11, 19008, Note_on_c, 4, 47, 0
11, 19200, Note_on_c, 4, 42, 105
11, 19488, Note_on_c, 4, 42, 0
11, 19680, Note_on_c, 4, 43, 105
11, 19968, Note_on_c, 4, 43, 0
11, 20160, Note_on_c, 4, 45, 105
11, 20448, Note_on_c, 4, 45, 0
11, 20640, Note_on_c, 4, 38, 105
11, 20928, Note_on_c, 4, 38, 0
11, 21120, Note_on_c, 4, 43, 105
11, 21408, Note_on_c, 4, 43, 0
11, 21600, Note_on_c, 4, 40, 105
11, 21888, Note_on_c, 4, 40, 0
11, 22080, Note_on_c, 4, 36, 105
11, 22368, Note_on_c, 4, 36, 0
11, 22560, Note_on_c, 4, 38, 105
11, 22848, Note_on_c, 4, 38, 0
11, 23040, Note_on_c, 4, 31, 92
11, 23328, Note_on_c, 4, 31, 0
11, 23520, Note_on_c, 4, 43, 92
11, 23808, Note_on_c, 4, 43, 0
11, 25440, Note_on_c, 4, 45, 72
11, 25752, Note_on_c, 4, 45, 0
11, 25920, Note_on_c, 4, 43, 72
11, 26400, Note_on_c, 4, 43, 0
11, 26400, Note_on_c, 4, 40, 72
11, 26712, Note_on_c, 4, 40, 0
11, 28320, Note_on_c, 4, 43, 72
11, 28632, Note_on_c, 4, 43, 0
11, 28800, Note_on_c, 4, 42, 72
11, 29112, Note_on_c, 4, 42, 0
11, 29280, Note_on_c, 4, 50, 92
11, 29592, Note_on_c, 4, 50, 0
11, 29760, Note_on_c, 4, 48, 92
11, 30072, Note_on_c, 4, 48, 0
11, 30240, Note_on_c, 4, 47, 105
11, 30552, Note_on_c, 4, 47, 0
11, 30720, Note_on_c, 4, 45, 105
11, 31032, Note_on_c, 4, 45, 0
11, 31200, Note_on_c, 4, 43, 105
11, 31512, Note_on_c, 4, 43, 0
11, 31680, Note_on_c, 4, 42, 105
11, 31992, Note_on_c, 4, 42, 0
11, 32160, Note_on_c, 4, 38, 105
11, 32472, Note_on_c, 4, 38, 0
11, 32640, Note_on_c, 4, 43, 105
11, 32952, Note_on_c, 4, 43, 0
11, 33120, Note_on_c, 4, 40, 105
11, 33432, Note_on_c, 4, 40, 0
11, 33600, Note_on_c, 4, 36, 105
11, 33912, Note_on_c, 4, 36, 0
11, 34080, Note_on_c, 4, 38, 105
11, 34392, Note_on_c, 4, 38, 0
11, 34560, Note_on_c, 4, 31, 105
11, 34872, Note_on_c, 4, 31, 0
11, 35040, Note_on_c, 4, 43, 105
11, 35352, Note_on_c, 4, 43, 0
11, 36960, Note_on_c, 4, 45, 72
11, 37272, Note_on_c, 4, 45, 0
11, 37440, Note_on_c, 4, 43, 72
11, 37920, Note_on_c, 4, 43, 0
11, 37920, Note_on_c, 4, 40, 72
11, 38232, Note_on_c, 4, 40, 0
11, 39840, Note_on_c, 4, 43, 72
11, 40152, Note_on_c, 4, 43, 0
11, 40320, Note_on_c, 4, 42, 72
11, 40632, Note_on_c, 4, 42, 0
11, 40800, Note_on_c, 4, 50, 92
11, 41112, Note_on_c, 4, 50, 0
11, 41280, Note_on_c, 4, 48, 92
11, 41592, Note_on_c, 4, 48, 0
11, 41760, Note_on_c, 4, 47, 105
11, 42072, Note_on_c, 4, 47, 0
11, 42240, Note_on_c, 4, 45, 105
11, 42552, Note_on_c, 4, 45, 0
11, 42720, Note_on_c, 4, 43, 105
11, 43032, Note_on_c, 4, 43, 0
11, 43200, Note_on_c, 4, 42, 105
11, 43512, Note_on_c, 4, 42, 0
11, 43680, Note_on_c, 4, 38, 105
11, 43992, Note_on_c, 4, 38, 0
11, 44160, Note_on_c, 4, 43, 105
11, 44472, Note_on_c, 4, 43, 0
11, 44640, Note_on_c, 4, 40, 105
11, 44952, Note_on_c, 4, 40, 0
11, 45120, Note_on_c, 4, 36, 105
11, 45432, Note_on_c, 4, 36, 0
11, 45600, Note_on_c, 4, 38, 105
11, 45912, Note_on_c, 4, 38, 0
11, 46080, Note_on_c, 4, 31, 105
11, 46464, Note_on_c, 4, 31, 0
11, 46560, Note_on_c, 4, 43, 105
11, 46944, Note_on_c, 4, 43, 0
11, 47520, Note_on_c, 4, 38, 72
11, 47880, Note_on_c, 4, 38, 0
11, 48000, Note_on_c, 4, 38, 72
11, 48360, Note_on_c, 4, 38, 0
11, 48960, Note_on_c, 4, 38, 72
11, 49320, Note_on_c, 4, 38, 0
11, 49440, Note_on_c, 4, 38, 72
11, 49800, Note_on_c, 4, 38, 0
11, 50400, Note_on_c, 4, 33, 72
11, 50760, Note_on_c, 4, 33, 0
11, 50880, Note_on_c, 4, 45, 72
11, 51240, Note_on_c, 4, 45, 0
11, 51840, Note_on_c, 4, 33, 72
11, 52200, Note_on_c, 4, 33, 0
11, 52320, Note_on_c, 4, 45, 72
11, 52680, Note_on_c, 4, 45, 0
11, 53280, Note_on_c, 4, 38, 72
11, 53640, Note_on_c, 4, 38, 0
11, 53760, Note_on_c, 4, 50, 72
11, 54120, Note_on_c, 4, 50, 0
11, 54720, Note_on_c, 4, 35, 72
11, 55080, Note_on_c, 4, 35, 0
11, 55200, Note_on_c, 4, 47, 72
11, 55560, Note_on_c, 4, 47, 0
11, 56160, Note_on_c, 4, 43, 72
11, 56520, Note_on_c, 4, 43, 0
11, 56640, Note_on_c, 4, 40, 72
11, 57000, Note_on_c, 4, 40, 0
11, 57120, Note_on_c, 4, 45, 72
11, 57480, Note_on_c, 4, 45, 0
11, 57600, Note_on_c, 4, 38, 72
11, 57984, Note_on_c, 4, 38, 0
11, 58080, Note_on_c, 4, 50, 72
11, 58464, Note_on_c, 4, 50, 0
11, 59040, Note_on_c, 4, 38, 72
11, 59400, Note_on_c, 4, 38, 0
11, 59520, Note_on_c, 4, 38, 72
11, 59880, Note_on_c, 4, 38, 0
11, 60480, Note_on_c, 4, 38, 72
11, 60840, Note_on_c, 4, 38, 0
11, 60960, Note_on_c, 4, 38, 72
11, 61320, Note_on_c, 4, 38, 0
11, 61920, Note_on_c, 4, 33, 72
11, 62280, Note_on_c, 4, 33, 0
11, 62400, Note_on_c, 4, 45, 72
11, 62760, Note_on_c, 4, 45, 0
11, 63360, Note_on_c, 4, 33, 72
11, 63720, Note_on_c, 4, 33, 0
11, 63840, Note_on_c, 4, 45, 72
11, 64200, Note_on_c, 4, 45, 0
11, 64800, Note_on_c, 4, 38, 72
11, 65160, Note_on_c, 4, 38, 0
11, 65280, Note_on_c, 4, 50, 72
11, 65640, Note_on_c, 4, 50, 0
11, 66240, Note_on_c, 4, 35, 72
11, 66600, Note_on_c, 4, 35, 0
11, 66720, Note_on_c, 4, 47, 72
11, 67080, Note_on_c, 4, 47, 0
11, 67680, Note_on_c, 4, 43, 72
11, 68040, Note_on_c, 4, 43, 0
11, 68160, Note_on_c, 4, 40, 72
11, 68520, Note_on_c, 4, 40, 0
11, 68640, Note_on_c, 4, 45, 72
11, 69000, Note_on_c, 4, 45, 0
11, 69120, Note_on_c, 4, 38, 72
11, 69504, Note_on_c, 4, 38, 0
11, 69600, Note_on_c, 4, 50, 72
11, 69984, Note_on_c, 4, 50, 0
11, 70560, Note_on_c, 4, 33, 105
11, 70944, Note_on_c, 4, 33, 0
11, 71520, Note_on_c, 4, 37, 105
11, 71904, Note_on_c, 4, 37, 0
11, 72000, Note_on_c, 4, 38, 105
11, 72384, Note_on_c, 4, 38, 0
11, 73440, Note_on_c, 4, 40, 105
11, 73824, Note_on_c, 4, 40, 0
11, 74400, Note_on_c, 4, 28, 105
11, 74784, Note_on_c, 4, 28, 0
11, 74880, Note_on_c, 4, 33, 105
11, 75264, Note_on_c, 4, 33, 0
11, 75360, Note_on_c, 4, 45, 105
11, 75744, Note_on_c, 4, 45, 0
11, 76320, Note_on_c, 4, 38, 72
11, 76680, Note_on_c, 4, 38, 0
11, 76800, Note_on_c, 4, 38, 72
11, 77160, Note_on_c, 4, 38, 0
11, 77760, Note_on_c, 4, 38, 72
11, 78120, Note_on_c, 4, 38, 0
11, 78240, Note_on_c, 4, 38, 72
11, 78600, Note_on_c, 4, 38, 0
11, 79200, Note_on_c, 4, 33, 72
11, 79560, Note_on_c, 4, 33, 0
11, 79680, Note_on_c, 4, 45, 72
11, 80040, Note_on_c, 4, 45, 0
11, 80640, Note_on_c, 4, 33, 72
11, 81000, Note_on_c, 4, 33, 0
11, 81120, Note_on_c, 4, 45, 72
11, 81480, Note_on_c, 4, 45, 0
11, 82080, Note_on_c, 4, 38, 72
11, 82440, Note_on_c, 4, 38, 0
11, 82560, Note_on_c, 4, 50, 72
11, 82920, Note_on_c, 4, 50, 0
11, 83520, Note_on_c, 4, 35, 72
11, 83880, Note_on_c, 4, 35, 0
11, 84000, Note_on_c, 4, 47, 72
11, 84360, Note_on_c, 4, 47, 0
11, 84960, Note_on_c, 4, 43, 72
11, 85320, Note_on_c, 4, 43, 0
11, 85440, Note_on_c, 4, 40, 72
11, 85800, Note_on_c, 4, 40, 0
11, 85920, Note_on_c, 4, 45, 72
11, 86280, Note_on_c, 4, 45, 0
11, 86400, Note_on_c, 4, 38, 72
11, 86784, Note_on_c, 4, 38, 0
11, 86880, Note_on_c, 4, 50, 72
11, 87264, Note_on_c, 4, 50, 0
11, 87840, Note_on_c, 4, 33, 105
11, 88224, Note_on_c, 4, 33, 0
11, 88800, Note_on_c, 4, 37, 105
11, 89184, Note_on_c, 4, 37, 0
11, 89280, Note_on_c, 4, 38, 105
11, 89664, Note_on_c, 4, 38, 0
11, 90720, Note_on_c, 4, 40, 105
11, 91104, Note_on_c, 4, 40, 0
11, 91680, Note_on_c, 4, 28, 105
11, 92064, Note_on_c, 4, 28, 0
11, 92160, Note_on_c, 4, 33, 105
11, 92544, Note_on_c, 4, 33, 0
11, 92640, Note_on_c, 4, 45, 105
11, 93024, Note_on_c, 4, 45, 0
11, 93600, Note_on_c, 4, 38, 72
11, 93960, Note_on_c, 4, 38, 0
11, 94080, Note_on_c, 4, 38, 72
11, 94440, Note_on_c, 4, 38, 0
11, 95040, Note_on_c, 4, 38, 72
11, 95400, Note_on_c, 4, 38, 0
11, 95520, Note_on_c, 4, 38, 72
11, 95880, Note_on_c, 4, 38, 0
11, 96480, Note_on_c, 4, 33, 72
11, 96840, Note_on_c, 4, 33, 0
11, 96960, Note_on_c, 4, 45, 72
11, 97320, Note_on_c, 4, 45, 0
11, 97920, Note_on_c, 4, 33, 72
11, 98280, Note_on_c, 4, 33, 0
11, 98400, Note_on_c, 4, 45, 72
11, 98760, Note_on_c, 4, 45, 0
11, 99360, Note_on_c, 4, 38, 72
11, 99720, Note_on_c, 4, 38, 0
11, 99840, Note_on_c, 4, 50, 72
11, 100200, Note_on_c, 4, 50, 0
11, 100800, Note_on_c, 4, 35, 72
11, 101160, Note_on_c, 4, 35, 0
11, 101280, Note_on_c, 4, 47, 72
11, 101640, Note_on_c, 4, 47, 0
11, 102240, Note_on_c, 4, 43, 72
11, 102600, Note_on_c, 4, 43, 0
11, 102720, Note_on_c, 4, 40, 72
11, 103080, Note_on_c, 4, 40, 0
11, 103200, Note_on_c, 4, 45, 72
11, 103560, Note_on_c, 4, 45, 0
11, 103680, Note_on_c, 4, 38, 72
11, 104064, Note_on_c, 4, 38, 0
11, 104160, Note_on_c, 4, 50, 72
11, 104544, Note_on_c, 4, 50, 0
11, 105120, Note_on_c, 4, 47, 105
11, 105408, Note_on_c, 4, 47, 0
11, 105600, Note_on_c, 4, 42, 105
11, 105888, Note_on_c, 4, 42, 0
11, 106080, Note_on_c, 4, 43, 105
11, 106368, Note_on_c, 4, 43, 0
11, 106560, Note_on_c, 4, 45, 105
11, 106848, Note_on_c, 4, 45, 0
11, 107040, Note_on_c, 4, 40, 105
11, 107328, Note_on_c, 4, 40, 0
11, 107520, Note_on_c, 4, 42, 105
11, 107808, Note_on_c, 4, 42, 0
11, 108000, Note_on_c, 4, 43, 105
11, 108288, Note_on_c, 4, 43, 0
11, 108480, Note_on_c, 4, 40, 105
11, 108768, Note_on_c, 4, 40, 0
11, 108960, Note_on_c, 4, 37, 105
11, 109248, Note_on_c, 4, 37, 0
11, 109440, Note_on_c, 4, 38, 105
11, 109728, Note_on_c, 4, 38, 0
11, 109920, Note_on_c, 4, 50, 105
11, 110208, Note_on_c, 4, 50, 0
11, 110400, Note_on_c, 4, 48, 105
11, 110688, Note_on_c, 4, 48, 0
11, 110880, Note_on_c, 4, 47, 105
11, 111168, Note_on_c, 4, 47, 0
11, 111360, Note_on_c, 4, 42, 105
11, 111648, Note_on_c, 4, 42, 0
11, 111840, Note_on_c, 4, 43, 105
11, 112128, Note_on_c, 4, 43, 0
11, 112320, Note_on_c, 4, 45, 105
11, 112608, Note_on_c, 4, 45, 0
11, 112800, Note_on_c, 4, 38, 105
11, 113088, Note_on_c, 4, 38, 0
11, 113280, Note_on_c, 4, 43, 105
11, 113568, Note_on_c, 4, 43, 0
11, 113760, Note_on_c, 4, 40, 105
11, 114048, Note_on_c, 4, 40, 0
11, 114240, Note_on_c, 4, 36, 105
11, 114528, Note_on_c, 4, 36, 0
11, 114720, Note_on_c, 4, 38, 105
11, 115008, Note_on_c, 4, 38, 0
11, 115200, Note_on_c, 4, 31, 92
11, 115488, Note_on_c, 4, 31, 0
11, 115680, Note_on_c, 4, 43, 92
11, 115968, Note_on_c, 4, 43, 0
11, 117600, Note_on_c, 4, 45, 72
11, 117912, Note_on_c, 4, 45, 0
11, 118080, Note_on_c, 4, 43, 72
11, 118560, Note_on_c, 4, 43, 0
11, 118560, Note_on_c, 4, 40, 72
11, 118872, Note_on_c, 4, 40, 0
11, 120480, Note_on_c, 4, 43, 72
11, 120792, Note_on_c, 4, 43, 0
11, 120960, Note_on_c, 4, 42, 72
11, 121272, Note_on_c, 4, 42, 0
11, 121440, Note_on_c, 4, 50, 92
11, 121752, Note_on_c, 4, 50, 0
11, 121920, Note_on_c, 4, 48, 92
11, 122232, Note_on_c, 4, 48, 0
11, 122400, Note_on_c, 4, 47, 105
11, 122712, Note_on_c, 4, 47, 0
11, 122880, Note_on_c, 4, 45, 105
11, 123192, Note_on_c, 4, 45, 0
11, 123360, Note_on_c, 4, 43, 105
11, 123672, Note_on_c, 4, 43, 0
11, 123840, Note_on_c, 4, 42, 105
11, 124152, Note_on_c, 4, 42, 0
11, 124320, Note_on_c, 4, 38, 105
11, 124632, Note_on_c, 4, 38, 0
11, 124800, Note_on_c, 4, 43, 105
11, 125112, Note_on_c, 4, 43, 0
11, 125280, Note_on_c, 4, 40, 105
11, 125592, Note_on_c, 4, 40, 0
11, 125760, Note_on_c, 4, 36, 105
11, 126072, Note_on_c, 4, 36, 0
11, 126240, Note_on_c, 4, 38, 105
11, 126552, Note_on_c, 4, 38, 0
11, 126720, Note_on_c, 4, 31, 92
11, 127104, Note_on_c, 4, 31, 0
11, 129600, Note_on_c, 4, 31, 1
11, 129984, Note_on_c, 4, 31, 0
11, 129984, End_track
12, 0, Start_track
12, 0, End_track
0, 0, End_of_file