0, 0, Header, 1, 15, 120
1, 0, Start_track
1, 0, Time_signature, 2, 1, 48, 8
1, 0, Key_signature, 2, "major"
1, 0, Tempo, 256410
1, 3710, Tempo, 255863
1, 4340, Tempo, 256959
1, 4370, Tempo, 256410
1, 4560, Tempo, 256959
1, 4620, Tempo, 257510
1, 4680, Tempo, 258064
1, 4740, Tempo, 258620
1, 4800, Tempo, 259179
1, 4810, Tempo, 259740
1, 4870, Tempo, 260303
1, 4880, Tempo, 260869
1, 4940, Tempo, 261437
1, 5000, Tempo, 262008
1, 5010, Tempo, 263157
1, 5090, Tempo, 264317
1, 5110, Tempo, 264900
1, 5120, Tempo, 265486
1, 5180, Tempo, 270270
1, 5200, Tempo, 273972
1, 5220, Tempo, 366972
1, 5260, Tempo, 336134
1, 5270, Tempo, 260303
1, 6380, Tempo, 263157
1, 6385, Tempo, 260869
1, 6405, Tempo, 262008
1, 6410, Tempo, 263157
1, 6415, Tempo, 264317
1, 6420, Tempo, 266666
1, 6430, Tempo, 269058
1, 6435, Tempo, 270270
1, 6440, Tempo, 271493
1, 6450, Tempo, 272727
1, 6460, Tempo, 273972
1, 6470, Tempo, 256410
1, 6475, Tempo, 258620
1, 6485, Tempo, 257510
1, 6885, Tempo, 262008
1, 6895, Tempo, 263157
1, 6905, Tempo, 264317
1, 6910, Tempo, 265486
1, 6920, Tempo, 266666
1, 6930, Tempo, 269058
1, 6935, Tempo, 271493
1, 6940, Tempo, 272727
1, 6945, Tempo, 275229
1, 6950, Tempo, 276497
1, 6965, Tempo, 270270
1, 6970, Tempo, 269058
1, 6975, Tempo, 256410
1, 12480, Tempo, 255863
1, 12500, Tempo, 256959
1, 12530, Tempo, 256410
1, 12720, Tempo, 256959
1, 12780, Tempo, 257510
1, 12840, Tempo, 258064
1, 12900, Tempo, 258620
1, 12960, Tempo, 259179
1, 12970, Tempo, 259740
1, 13030, Tempo, 260303
1, 13040, Tempo, 260869
1, 13100, Tempo, 261437
1, 13160, Tempo, 262008
1, 13170, Tempo, 263157
1, 13250, Tempo, 264317
1, 13270, Tempo, 264900
1, 13280, Tempo, 265486
1, 13340, Tempo, 270270
1, 13360, Tempo, 273972
1, 13380, Tempo, 366972
1, 13420, Tempo, 336134
1, 13430, Tempo, 260303
1, 14560, Tempo, 258620
1, 14575, Tempo, 267857
1, 14585, Tempo, 270270
1, 14590, Tempo, 271493
1, 14600, Tempo, 272727
1, 14610, Tempo, 273972
1, 14620, Tempo, 275229
1, 14630, Tempo, 276497
1, 14635, Tempo, 277777
1, 14640, Tempo, 273972
1, 14645, Tempo, 270270
1, 14650, Tempo, 256410
1, 15045, Tempo, 257510
1, 15065, Tempo, 260869
1, 15070, Tempo, 264317
1, 15075, Tempo, 265486
1, 15085, Tempo, 266666
1, 15090, Tempo, 267857
1, 15100, Tempo, 269058
1, 15105, Tempo, 271493
1, 15110, Tempo, 275229
1, 15130, Tempo, 272727
1, 15135, Tempo, 256410
1, 15140, Tempo, 260869
1, 26290, Tempo, 262008
1, 26300, Tempo, 260869
1, 26350, Tempo, 262582
1, 26370, Tempo, 263157
1, 26390, Tempo, 263736
1, 26410, Tempo, 264317
1, 26420, Tempo, 264900
1, 26490, Tempo, 266075
1, 26510, Tempo, 267260
1, 26610, Tempo, 270880
1, 26670, Tempo, 272108
1, 26690, Tempo, 272727
1, 26700, Tempo, 273348
1, 26760, Tempo, 274599
1, 26840, Tempo, 275862
1, 26920, Tempo, 276497
1, 26980, Tempo, 277777
1, 27060, Tempo, 279069
1, 27140, Tempo, 280373
1, 27160, Tempo, 281690
1, 27190, Tempo, 282352
1, 27250, Tempo, 283018
1, 27260, Tempo, 283687
1, 27320, Tempo, 285035
1, 27420, Tempo, 286396
1, 27480, Tempo, 287769
1, 27500, Tempo, 288461
1, 27570, Tempo, 289156
1, 27630, Tempo, 289855
1, 27670, Tempo, 290556
1, 27710, Tempo, 291262
1, 27740, Tempo, 291970
1, 27790, Tempo, 292682
1, 27810, Tempo, 284360
1, 27835, Tempo, 285714
1, 27860, Tempo, 257510
1, 60980, Tempo, 257510
1, 61150, Tempo, 256959
1, 61370, Tempo, 255863
1, 61490, Tempo, 255319
1, 61600, Tempo, 254777
1, 61740, Tempo, 253699
1, 61840, Tempo, 253164
1, 61920, Tempo, 252631
1, 61960, Tempo, 252100
1, 62100, Tempo, 251572
1, 62280, Tempo, 251046
1, 62400, Tempo, 250521
1, 62500, Tempo, 250000
1, 62640, Tempo, 249480
1, 62720, Tempo, 248962
1, 63120, Tempo, 247933
1, 63280, Tempo, 247422
1, 63400, Tempo, 246913
1, 63480, Tempo, 246406
1, 63540, Tempo, 245901
1, 63640, Tempo, 245398
1, 63740, Tempo, 244897
1, 63920, Tempo, 244399
1, 64140, Tempo, 243902
1, 64450, Tempo, 243902
1, 64460, Tempo, 244399
1, 64490, Tempo, 244897
1, 64520, Tempo, 245398
1, 64530, Tempo, 245901
1, 64590, Tempo, 246406
1, 64670, Tempo, 246913
1, 64760, Tempo, 247422
1, 64840, Tempo, 247933
1, 64980, Tempo, 248962
1, 65220, Tempo, 249480
1, 65340, Tempo, 250000
1, 65400, Tempo, 250521
1, 65540, Tempo, 251046
1, 65780, Tempo, 252100
1, 65860, Tempo, 252631
1, 65880, Tempo, 253164
1, 66060, Tempo, 253699
1, 66200, Tempo, 254777
1, 66320, Tempo, 255319
1, 66460, Tempo, 255863
1, 66540, Tempo, 256410
1, 66620, Tempo, 256959
1, 66690, Tempo, 257510
1, 67100, Tempo, 258620
1, 68110, Tempo, 258064
1, 68180, Tempo, 257510
1, 68200, Tempo, 256959
1, 70560, Tempo, 255863
1, 70580, Tempo, 256959
1, 70610, Tempo, 256410
1, 70800, Tempo, 256959
1, 70860, Tempo, 257510
1, 70920, Tempo, 258064
1, 70980, Tempo, 258620
1, 71040, Tempo, 259179
1, 71050, Tempo, 259740
1, 71110, Tempo, 260303
1, 71120, Tempo, 260869
1, 71180, Tempo, 261437
1, 71240, Tempo, 262008
1, 71250, Tempo, 263157
1, 71330, Tempo, 264317
1, 71350, Tempo, 264900
1, 71360, Tempo, 265486
1, 71420, Tempo, 270270
1, 71440, Tempo, 273972
1, 71460, Tempo, 366972
1, 71500, Tempo, 336134
1, 71510, Tempo, 260303
1, 72605, Tempo, 267857
1, 72615, Tempo, 269058
1, 72620, Tempo, 271493
1, 72625, Tempo, 272727
1, 72630, Tempo, 273972
1, 72635, Tempo, 275229
1, 72640, Tempo, 277777
1, 72650, Tempo, 279069
1, 72660, Tempo, 280373
1, 72675, Tempo, 281690
1, 72680, Tempo, 283018
1, 72720, Tempo, 256410
1, 73085, Tempo, 272727
1, 73090, Tempo, 273972
1, 73095, Tempo, 275229
1, 73105, Tempo, 276497
1, 73115, Tempo, 277777
1, 73120, Tempo, 279069
1, 73135, Tempo, 280373
1, 73175, Tempo, 281690
1, 73200, Tempo, 275229
1, 73205, Tempo, 256410
1, 79780, Tempo, 257510
1, 79860, Tempo, 258064
1, 79920, Tempo, 259179
1, 79930, Tempo, 259740
1, 79990, Tempo, 260303
1, 80080, Tempo, 260869
1, 80160, Tempo, 262008
1, 80220, Tempo, 262582
1, 80240, Tempo, 263157
1, 80300, Tempo, 263736
1, 80360, Tempo, 264900
1, 80460, Tempo, 266075
1, 80520, Tempo, 267260
1, 80620, Tempo, 268456
1, 80700, Tempo, 269058
1, 80780, Tempo, 269662
1, 80840, Tempo, 270880
1, 80900, Tempo, 271493
1, 80960, Tempo, 272108
1, 80980, Tempo, 273348
1, 81040, Tempo, 274599
1, 81100, Tempo, 275862
1, 81120, Tempo, 277136
1, 81180, Tempo, 277777
1, 81240, Tempo, 279069
1, 81260, Tempo, 280373
1, 81320, Tempo, 281690
1, 81440, Tempo, 285714
1, 81520, Tempo, 289855
1, 81580, Tempo, 290556
1, 81600, Tempo, 291970
1, 81620, Tempo, 292682
1, 81650, Tempo, 294117
1, 81670, Tempo, 294840
1, 82020, Tempo, 293398
1, 82080, Tempo, 291970
1, 82090, Tempo, 287081
1, 82100, Tempo, 253699
1, 82110, Tempo, 254237
1, 82120, Tempo, 254777
1, 82170, Tempo, 255319
1, 82200, Tempo, 255863
1, 82220, Tempo, 256410
1, 82240, Tempo, 256959
1, 82290, Tempo, 257510
1, 138910, Tempo, 256410
1, 138920, Tempo, 255863
1, 138990, Tempo, 256410
1, 139000, Tempo, 256959
1, 139080, Tempo, 258064
1, 139160, Tempo, 261437
1, 139240, Tempo, 264900
1, 139340, Tempo, 269662
1, 139440, Tempo, 274599
1, 139520, Tempo, 275862
1, 139580, Tempo, 279720
1, 139680, Tempo, 283687
1, 139800, Tempo, 289156
1, 139880, Tempo, 290556
1, 139900, Tempo, 291970
1, 139960, Tempo, 293398
1, 140040, Tempo, 297766
1, 140160, Tempo, 303797
1, 140240, Tempo, 308483
1, 140340, Tempo, 314960
1, 140420, Tempo, 320000
1, 140500, Tempo, 325203
1, 140600, Tempo, 330578
1, 140680, Tempo, 336134
1, 140740, Tempo, 341880
1, 140800, Tempo, 342857
1, 140810, Tempo, 344827
1, 140870, Tempo, 346820
1, 140950, Tempo, 348837
1, 141010, Tempo, 350877
1, 141020, Tempo, 351906
1, 141030, Tempo, 352941
1, 141060, Tempo, 353982
1, 141070, Tempo, 355029
1, 141070, End_track
2, 0, Start_track
2, 0, MIDI_port, 0
2, 0, Title_t, "2 Flauti"
2, 0, Program_c, 0, 73
2, 0, Control_c, 0, 7, 80
2, 0, Control_c, 0, 10, 30
2, 0, Control_c, 0, 91, 96
2, 3360, Control_c, 0, 7, 62
2, 3370, Control_c, 0, 7, 63
2, 3800, Control_c, 0, 7, 67
2, 3810, Control_c, 0, 7, 68
2, 3820, Control_c, 0, 7, 69
2, 3880, Control_c, 0, 7, 71
2, 3900, Control_c, 0, 7, 73
2, 3920, Control_c, 0, 7, 74
2, 3930, Control_c, 0, 7, 75
2, 3950, Control_c, 0, 7, 77
2, 3960, Note_on_c, 0, 66, 70
2, 3960, Note_on_c, 0, 69, 70
2, 3960, Control_c, 0, 7, 79
2, 3990, Control_c, 0, 7, 80
2, 4010, Control_c, 0, 7, 81
2, 4030, Control_c, 0, 7, 82
2, 4040, Control_c, 0, 7, 83
2, 4050, Control_c, 0, 7, 84
2, 4070, Control_c, 0, 7, 85
2, 4080, Note_on_c, 0, 69, 0
2, 4080, Note_on_c, 0, 66, 0
2, 4080, Note_on_c, 0, 69, 80
2, 4080, Note_on_c, 0, 74, 80
2, 4090, Control_c, 0, 7, 86
2, 4150, Control_c, 0, 7, 88
2, 4160, Control_c, 0, 7, 89
2, 4180, Control_c, 0, 7, 90
2, 4200, Note_on_c, 0, 74, 0
2, 4200, Note_on_c, 0, 69, 0
2, 4200, Note_on_c, 0, 74, 80
2, 4200, Note_on_c, 0, 78, 80
2, 4200, Control_c, 0, 7, 92
2, 4230, Control_c, 0, 7, 94
2, 4300, Control_c, 0, 7, 95
2, 4310, Control_c, 0, 7, 96
2, 4320, Note_on_c, 0, 78, 0
2, 4320, Note_on_c, 0, 74, 0
2, 4320, Note_on_c, 0, 78, 103
2, 4320, Note_on_c, 0, 81, 103
2, 4560, Note_on_c, 0, 81, 0
2, 4560, Note_on_c, 0, 78, 0
2, 4800, Control_c, 0, 7, 95
2, 4820, Control_c, 0, 7, 96
2, 4830, Control_c, 0, 7, 99
2, 4840, Control_c, 0, 7, 100
2, 4850, Control_c, 0, 7, 101
2, 4860, Control_c, 0, 7, 105
2, 4870, Control_c, 0, 7, 106
2, 4890, Control_c, 0, 7, 107
2, 4900, Control_c, 0, 7, 110
2, 4920, Note_on_c, 0, 69, 53
2, 4920, Note_on_c, 0, 74, 53
2, 4920, Control_c, 0, 7, 112
2, 4940, Control_c, 0, 7, 114
2, 4960, Control_c, 0, 7, 115
2, 4980, Control_c, 0, 7, 116
2, 5000, Control_c, 0, 7, 118
2, 5010, Control_c, 0, 7, 119
2, 5020, Control_c, 0, 7, 120
2, 5040, Note_on_c, 0, 74, 0
2, 5040, Note_on_c, 0, 69, 0
2, 5040, Note_on_c, 0, 78, 63
2, 5040, Note_on_c, 0, 74, 63
2, 5040, Control_c, 0, 7, 121
2, 5060, Control_c, 0, 7, 123
2, 5080, Control_c, 0, 7, 124
2, 5100, Control_c, 0, 7, 125
2, 5120, Control_c, 0, 7, 126
2, 5160, Note_on_c, 0, 74, 0
2, 5160, Note_on_c, 0, 78, 0
2, 5160, Note_on_c, 0, 81, 82
2, 5160, Note_on_c, 0, 78, 82
2, 5280, Note_on_c, 0, 78, 0
2, 5280, Note_on_c, 0, 81, 0
2, 5280, Note_on_c, 0, 78, 107
2, 5280, Note_on_c, 0, 86, 107
2, 5730, Note_on_c, 0, 86, 0
2, 5730, Note_on_c, 0, 78, 0
2, 5760, Note_on_c, 0, 76, 108
2, 5760, Note_on_c, 0, 85, 108
2, 5760, Control_c, 0, 7, 127
2, 5800, Control_c, 0, 7, 126
2, 5820, Control_c, 0, 7, 125
2, 5830, Control_c, 0, 7, 124
2, 5870, Control_c, 0, 7, 123
2, 5880, Control_c, 0, 7, 122
2, 5910, Control_c, 0, 7, 121
2, 5920, Control_c, 0, 7, 120
2, 5950, Control_c, 0, 7, 119
2, 5960, Control_c, 0, 7, 118
2, 5970, Control_c, 0, 7, 116
2, 5990, Control_c, 0, 7, 115
2, 6000, Control_c, 0, 7, 114
2, 6010, Control_c, 0, 7, 113
2, 6030, Control_c, 0, 7, 112
2, 6040, Control_c, 0, 7, 110
2, 6070, Control_c, 0, 7, 108
2, 6110, Control_c, 0, 7, 106
2, 6120, Note_on_c, 0, 85, 0
2, 6120, Note_on_c, 0, 76, 0
2, 6120, Note_on_c, 0, 83, 99
2, 6120, Note_on_c, 0, 79, 99
2, 6120, Control_c, 0, 7, 105
2, 6130, Control_c, 0, 7, 104
2, 6150, Control_c, 0, 7, 103
2, 6160, Control_c, 0, 7, 101
2, 6170, Control_c, 0, 7, 100
2, 6190, Control_c, 0, 7, 99
2, 6200, Control_c, 0, 7, 98
2, 6220, Control_c, 0, 7, 97
2, 6240, Note_on_c, 0, 79, 0
2, 6240, Note_on_c, 0, 83, 0
2, 6240, Note_on_c, 0, 81, 92
2, 6240, Note_on_c, 0, 78, 92
2, 6240, Control_c, 0, 7, 96
2, 6250, Control_c, 0, 7, 113
2, 6342, Note_on_c, 0, 78, 0
2, 6342, Note_on_c, 0, 81, 0
2, 6350, Control_c, 0, 7, 111
2, 6360, Note_on_c, 0, 78, 110
2, 6360, Note_on_c, 0, 86, 110
2, 6360, Control_c, 0, 7, 110
2, 6380, Control_c, 0, 7, 109
2, 6400, Control_c, 0, 7, 107
2, 6430, Control_c, 0, 7, 106
2, 6450, Control_c, 0, 7, 105
2, 6470, Control_c, 0, 7, 103
2, 6480, Note_on_c, 0, 86, 0
2, 6480, Note_on_c, 0, 78, 0
2, 6480, Note_on_c, 0, 76, 105
2, 6480, Note_on_c, 0, 85, 105
2, 6500, Control_c, 0, 7, 102
2, 6510, Control_c, 0, 7, 101
2, 6530, Control_c, 0, 7, 100
2, 6540, Control_c, 0, 7, 99
2, 6580, Control_c, 0, 7, 98
2, 6590, Control_c, 0, 7, 97
2, 6600, Note_on_c, 0, 85, 0
2, 6600, Note_on_c, 0, 76, 0
2, 6600, Note_on_c, 0, 83, 98
2, 6600, Note_on_c, 0, 79, 98
2, 6630, Control_c, 0, 7, 96
2, 6690, Control_c, 0, 7, 95
2, 6720, Note_on_c, 0, 79, 0
2, 6720, Note_on_c, 0, 83, 0
2, 6720, Control_c, 0, 7, 64
2, 6720, Control_c, 0, 7, 64
2, 6720, Control_c, 0, 7, 64
2, 6720, Control_c, 0, 7, 64
2, 6720, Control_c, 0, 7, 64
2, 6720, Note_on_c, 0, 81, 92
2, 6720, Note_on_c, 0, 78, 92
2, 6720, Control_c, 0, 7, 109
2, 6740, Control_c, 0, 7, 108
2, 6820, Control_c, 0, 7, 106
2, 6822, Note_on_c, 0, 78, 0
2, 6822, Note_on_c, 0, 81, 0
2, 6840, Note_on_c, 0, 86, 107
2, 6840, Note_on_c, 0, 78, 107
2, 6850, Control_c, 0, 7, 104
2, 6880, Control_c, 0, 7, 102
2, 6890, Control_c, 0, 7, 100
2, 6900, Control_c, 0, 7, 98
2, 6920, Control_c, 0, 7, 96
2, 6930, Control_c, 0, 7, 95
2, 6940, Control_c, 0, 7, 94
2, 6960, Note_on_c, 0, 78, 0
2, 6960, Note_on_c, 0, 86, 0
2, 6960, Note_on_c, 0, 85, 102
2, 6960, Note_on_c, 0, 76, 102
2, 7000, Control_c, 0, 7, 91
2, 7010, Control_c, 0, 7, 90
2, 7030, Control_c, 0, 7, 89
2, 7040, Control_c, 0, 7, 86
2, 7050, Control_c, 0, 7, 85
2, 7070, Control_c, 0, 7, 83
2, 7080, Note_on_c, 0, 76, 0
2, 7080, Note_on_c, 0, 85, 0
2, 7080, Note_on_c, 0, 79, 94
2, 7080, Note_on_c, 0, 83, 94
2, 7080, Control_c, 0, 7, 82
2, 7100, Control_c, 0, 7, 81
2, 7110, Control_c, 0, 7, 80
2, 7140, Control_c, 0, 7, 78
2, 7170, Control_c, 0, 7, 77
2, 7200, Note_on_c, 0, 83, 0
2, 7200, Note_on_c, 0, 79, 0
2, 7200, Note_on_c, 0, 81, 89
2, 7200, Note_on_c, 0, 78, 89
2, 7200, Control_c, 0, 7, 76
2, 7302, Note_on_c, 0, 78, 0
2, 7302, Note_on_c, 0, 81, 0
2, 7320, Note_on_c, 0, 78, 87
2, 7320, Note_on_c, 0, 81, 87
2, 7371, Note_on_c, 0, 81, 0
2, 7371, Note_on_c, 0, 78, 0
2, 7380, Note_on_c, 0, 78, 87
2, 7380, Note_on_c, 0, 81, 87
2, 7431, Note_on_c, 0, 81, 0
2, 7431, Note_on_c, 0, 78, 0
2, 7440, Note_on_c, 0, 76, 87
2, 7440, Note_on_c, 0, 79, 87
2, 7542, Note_on_c, 0, 79, 0
2, 7542, Note_on_c, 0, 76, 0
2, 7560, Note_on_c, 0, 79, 87
2, 7560, Note_on_c, 0, 76, 87
2, 7611, Note_on_c, 0, 76, 0
2, 7611, Note_on_c, 0, 79, 0
2, 7620, Note_on_c, 0, 79, 87
2, 7620, Note_on_c, 0, 76, 87
2, 7671, Note_on_c, 0, 76, 0
2, 7671, Note_on_c, 0, 79, 0
2, 7680, Note_on_c, 0, 78, 87
2, 7680, Note_on_c, 0, 74, 87
2, 7782, Note_on_c, 0, 74, 0
2, 7782, Note_on_c, 0, 78, 0
2, 7800, Note_on_c, 0, 74, 87
2, 7800, Note_on_c, 0, 78, 87
2, 7851, Note_on_c, 0, 78, 0
2, 7851, Note_on_c, 0, 74, 0
2, 7860, Note_on_c, 0, 78, 87
2, 7860, Note_on_c, 0, 74, 87
2, 7911, Note_on_c, 0, 74, 0
2, 7911, Note_on_c, 0, 78, 0
2, 7920, Note_on_c, 0, 76, 88
2, 7920, Note_on_c, 0, 73, 88
2, 8022, Note_on_c, 0, 73, 0
2, 8022, Note_on_c, 0, 76, 0
2, 8040, Note_on_c, 0, 73, 94
2, 8040, Note_on_c, 0, 76, 94
2, 8091, Note_on_c, 0, 76, 0
2, 8091, Note_on_c, 0, 73, 0
2, 8100, Note_on_c, 0, 76, 102
2, 8100, Note_on_c, 0, 73, 102
2, 8151, Note_on_c, 0, 73, 0
2, 8151, Note_on_c, 0, 76, 0
2, 8159, Control_c, 0, 7, 65
2, 8160, Note_on_c, 0, 74, 102
2, 8160, Note_on_c, 0, 74, 102
2, 8179, Control_c, 0, 7, 66
2, 8199, Control_c, 0, 7, 67
2, 8219, Control_c, 0, 7, 68
2, 8239, Control_c, 0, 7, 69
2, 8299, Control_c, 0, 7, 70
2, 8309, Control_c, 0, 7, 71
2, 8369, Control_c, 0, 7, 72
2, 8379, Control_c, 0, 7, 73
2, 8489, Control_c, 0, 7, 75
2, 8549, Control_c, 0, 7, 77
2, 8629, Control_c, 0, 7, 78
2, 8640, Note_on_c, 0, 74, 0
2, 8640, Note_on_c, 0, 74, 0
2, 8640, Note_on_c, 0, 86, 106
2, 8649, Control_c, 0, 7, 80
2, 8749, Control_c, 0, 7, 82
2, 8849, Control_c, 0, 7, 84
2, 8929, Control_c, 0, 7, 85
2, 8999, Control_c, 0, 7, 87
2, 9079, Control_c, 0, 7, 88
2, 9119, Control_c, 0, 7, 89
2, 9179, Control_c, 0, 7, 90
2, 9360, Note_on_c, 0, 86, 0
2, 9360, Note_on_c, 0, 85, 106
2, 9369, Control_c, 0, 7, 91
2, 9459, Control_c, 0, 7, 92
2, 9539, Control_c, 0, 7, 93
2, 9840, Note_on_c, 0, 85, 0
2, 9840, Note_on_c, 0, 86, 106
2, 9989, Control_c, 0, 7, 92
2, 10129, Control_c, 0, 7, 91
2, 10149, Control_c, 0, 7, 90
2, 10169, Control_c, 0, 7, 89
2, 10269, Control_c, 0, 7, 88
2, 10320, Note_on_c, 0, 86, 0
2, 10320, Note_on_c, 0, 85, 103
2, 10349, Control_c, 0, 7, 87
2, 10359, Control_c, 0, 7, 86
2, 10469, Control_c, 0, 7, 85
2, 10500, Note_on_c, 0, 85, 0
2, 10500, Note_on_c, 0, 86, 98
2, 10560, Note_on_c, 0, 86, 0
2, 10560, Note_on_c, 0, 88, 97
2, 10609, Control_c, 0, 7, 83
2, 10709, Control_c, 0, 7, 81
2, 10800, Note_on_c, 0, 88, 0
2, 10800, Note_on_c, 0, 79, 88
2, 10839, Control_c, 0, 7, 80
2, 10999, Control_c, 0, 7, 78
2, 11040, Note_on_c, 0, 79, 0
2, 11040, Note_on_c, 0, 78, 77
2, 11079, Control_c, 0, 7, 77
2, 11229, Control_c, 0, 7, 76
2, 11280, Note_on_c, 0, 78, 0
2, 11389, Control_c, 0, 7, 70
2, 11469, Control_c, 0, 7, 69
2, 11489, Control_c, 0, 7, 68
2, 11519, Control_c, 0, 7, 69
2, 11529, Control_c, 0, 7, 68
2, 11960, Control_c, 0, 7, 67
2, 11970, Control_c, 0, 7, 68
2, 11980, Control_c, 0, 7, 69
2, 12040, Control_c, 0, 7, 71
2, 12060, Control_c, 0, 7, 73
2, 12080, Control_c, 0, 7, 74
2, 12090, Control_c, 0, 7, 75
2, 12110, Control_c, 0, 7, 77
2, 12120, Note_on_c, 0, 69, 77
2, 12120, Note_on_c, 0, 66, 77
2, 12120, Control_c, 0, 7, 79
2, 12150, Control_c, 0, 7, 80
2, 12170, Control_c, 0, 7, 81
2, 12190, Control_c, 0, 7, 82
2, 12200, Control_c, 0, 7, 83
2, 12210, Control_c, 0, 7, 84
2, 12230, Control_c, 0, 7, 85
2, 12240, Note_on_c, 0, 66, 0
2, 12240, Note_on_c, 0, 69, 0
2, 12240, Note_on_c, 0, 74, 86
2, 12240, Note_on_c, 0, 69, 86
2, 12250, Control_c, 0, 7, 86
2, 12310, Control_c, 0, 7, 88
2, 12320, Control_c, 0, 7, 89
2, 12340, Control_c, 0, 7, 90
2, 12360, Note_on_c, 0, 69, 0
2, 12360, Note_on_c, 0, 74, 0
2, 12360, Note_on_c, 0, 78, 95
2, 12360, Note_on_c, 0, 74, 95
2, 12360, Control_c, 0, 7, 92
2, 12390, Control_c, 0, 7, 94
2, 12460, Control_c, 0, 7, 95
2, 12470, Control_c, 0, 7, 96
2, 12480, Note_on_c, 0, 74, 0
2, 12480, Note_on_c, 0, 78, 0
2, 12480, Note_on_c, 0, 81, 100
2, 12480, Note_on_c, 0, 78, 100
2, 12720, Note_on_c, 0, 78, 0
2, 12720, Note_on_c, 0, 81, 0
2, 12960, Control_c, 0, 7, 95
2, 12980, Control_c, 0, 7, 96
2, 12990, Control_c, 0, 7, 99
2, 13000, Control_c, 0, 7, 100
2, 13010, Control_c, 0, 7, 101
2, 13020, Control_c, 0, 7, 105
2, 13030, Control_c, 0, 7, 106
2, 13050, Control_c, 0, 7, 107
2, 13060, Control_c, 0, 7, 110
2, 13080, Note_on_c, 0, 74, 65
2, 13080, Note_on_c, 0, 69, 65
2, 13080, Control_c, 0, 7, 112
2, 13100, Control_c, 0, 7, 114
2, 13120, Control_c, 0, 7, 115
2, 13140, Control_c, 0, 7, 116
2, 13160, Control_c, 0, 7, 118
2, 13170, Control_c, 0, 7, 119
2, 13180, Control_c, 0, 7, 120
2, 13200, Note_on_c, 0, 69, 0
2, 13200, Note_on_c, 0, 74, 0
2, 13200, Note_on_c, 0, 74, 71
2, 13200, Note_on_c, 0, 78, 71
2, 13200, Control_c, 0, 7, 121
2, 13220, Control_c, 0, 7, 123
2, 13240, Control_c, 0, 7, 124
2, 13260, Control_c, 0, 7, 125
2, 13280, Control_c, 0, 7, 126
2, 13320, Note_on_c, 0, 78, 0
2, 13320, Note_on_c, 0, 74, 0
2, 13320, Note_on_c, 0, 78, 99
2, 13320, Note_on_c, 0, 81, 99
2, 13440, Note_on_c, 0, 81, 0
2, 13440, Note_on_c, 0, 78, 0
2, 13440, Note_on_c, 0, 86, 116
2, 13440, Note_on_c, 0, 78, 116
2, 13890, Note_on_c, 0, 78, 0
2, 13890, Note_on_c, 0, 86, 0
2, 13920, Note_on_c, 0, 85, 109
2, 13920, Note_on_c, 0, 76, 109
2, 13920, Control_c, 0, 7, 127
2, 13960, Control_c, 0, 7, 126
2, 13980, Control_c, 0, 7, 125
2, 13990, Control_c, 0, 7, 124
2, 14030, Control_c, 0, 7, 123
2, 14040, Control_c, 0, 7, 122
2, 14070, Control_c, 0, 7, 121
2, 14080, Control_c, 0, 7, 120
2, 14110, Control_c, 0, 7, 119
2, 14120, Control_c, 0, 7, 118
2, 14130, Control_c, 0, 7, 116
2, 14150, Control_c, 0, 7, 115
2, 14160, Control_c, 0, 7, 114
2, 14170, Control_c, 0, 7, 113
2, 14190, Control_c, 0, 7, 112
2, 14200, Control_c, 0, 7, 110
2, 14230, Control_c, 0, 7, 108
2, 14270, Control_c, 0, 7, 106
2, 14280, Note_on_c, 0, 76, 0
2, 14280, Note_on_c, 0, 85, 0
2, 14280, Note_on_c, 0, 83, 109
2, 14280, Note_on_c, 0, 79, 109
2, 14280, Control_c, 0, 7, 105
2, 14290, Control_c, 0, 7, 104
2, 14310, Control_c, 0, 7, 103
2, 14320, Control_c, 0, 7, 101
2, 14330, Control_c, 0, 7, 100
2, 14350, Control_c, 0, 7, 99
2, 14360, Control_c, 0, 7, 98
2, 14380, Control_c, 0, 7, 97
2, 14400, Note_on_c, 0, 79, 0
2, 14400, Note_on_c, 0, 83, 0
2, 14400, Note_on_c, 0, 81, 109
2, 14400, Note_on_c, 0, 78, 109
2, 14400, Control_c, 0, 7, 96
2, 14410, Control_c, 0, 7, 113
2, 14502, Note_on_c, 0, 78, 0
2, 14502, Note_on_c, 0, 81, 0
2, 14510, Control_c, 0, 7, 111
2, 14520, Note_on_c, 0, 86, 109
2, 14520, Note_on_c, 0, 78, 109
2, 14520, Control_c, 0, 7, 110
2, 14540, Control_c, 0, 7, 109
2, 14560, Control_c, 0, 7, 107
2, 14590, Control_c, 0, 7, 106
2, 14610, Control_c, 0, 7, 105
2, 14630, Control_c, 0, 7, 103
2, 14640, Note_on_c, 0, 78, 0
2, 14640, Note_on_c, 0, 86, 0
2, 14640, Note_on_c, 0, 85, 109
2, 14640, Note_on_c, 0, 76, 109
2, 14660, Control_c, 0, 7, 102
2, 14670, Control_c, 0, 7, 101
2, 14690, Control_c, 0, 7, 100
2, 14700, Control_c, 0, 7, 99
2, 14740, Control_c, 0, 7, 98
2, 14750, Control_c, 0, 7, 97
2, 14760, Note_on_c, 0, 76, 0
2, 14760, Note_on_c, 0, 85, 0
2, 14760, Note_on_c, 0, 79, 109
2, 14760, Note_on_c, 0, 83, 109
2, 14790, Control_c, 0, 7, 96
2, 14850, Control_c, 0, 7, 95
2, 14880, Note_on_c, 0, 83, 0
2, 14880, Note_on_c, 0, 79, 0
2, 14880, Note_on_c, 0, 78, 110
2, 14880, Note_on_c, 0, 81, 110
2, 14880, Control_c, 0, 7, 109
2, 14900, Control_c, 0, 7, 108
2, 14980, Control_c, 0, 7, 106
2, 14982, Note_on_c, 0, 81, 0
2, 14982, Note_on_c, 0, 78, 0
2, 15000, Note_on_c, 0, 78, 110
2, 15000, Note_on_c, 0, 86, 110
2, 15010, Control_c, 0, 7, 104
2, 15040, Control_c, 0, 7, 102
2, 15050, Control_c, 0, 7, 100
2, 15060, Control_c, 0, 7, 98
2, 15080, Control_c, 0, 7, 96
2, 15090, Control_c, 0, 7, 95
2, 15100, Control_c, 0, 7, 94
2, 15120, Note_on_c, 0, 86, 0
2, 15120, Note_on_c, 0, 78, 0
2, 15120, Note_on_c, 0, 76, 110
2, 15120, Note_on_c, 0, 85, 110
2, 15160, Control_c, 0, 7, 91
2, 15170, Control_c, 0, 7, 90
2, 15190, Control_c, 0, 7, 89
2, 15200, Control_c, 0, 7, 86
2, 15210, Control_c, 0, 7, 85
2, 15230, Control_c, 0, 7, 83
2, 15240, Note_on_c, 0, 85, 0
2, 15240, Note_on_c, 0, 76, 0
2, 15240, Note_on_c, 0, 83, 115
2, 15240, Note_on_c, 0, 79, 115
2, 15240, Control_c, 0, 7, 82
2, 15260, Control_c, 0, 7, 81
2, 15270, Control_c, 0, 7, 80
2, 15300, Control_c, 0, 7, 78
2, 15330, Control_c, 0, 7, 77
2, 15360, Note_on_c, 0, 79, 0
2, 15360, Note_on_c, 0, 83, 0
2, 15360, Note_on_c, 0, 78, 119
2, 15360, Note_on_c, 0, 81, 119
2, 15360, Control_c, 0, 7, 76
2, 15462, Note_on_c, 0, 81, 0
2, 15462, Note_on_c, 0, 78, 0
2, 15480, Note_on_c, 0, 81, 111
2, 15480, Note_on_c, 0, 78, 111
2, 15531, Note_on_c, 0, 78, 0
2, 15531, Note_on_c, 0, 81, 0
2, 15540, Note_on_c, 0, 78, 111
2, 15540, Note_on_c, 0, 81, 111
2, 15591, Note_on_c, 0, 81, 0
2, 15591, Note_on_c, 0, 78, 0
2, 15600, Note_on_c, 0, 79, 111
2, 15600, Note_on_c, 0, 76, 111
2, 15702, Note_on_c, 0, 76, 0
2, 15702, Note_on_c, 0, 79, 0
2, 15720, Note_on_c, 0, 76, 111
2, 15720, Note_on_c, 0, 79, 111
2, 15771, Note_on_c, 0, 79, 0
2, 15771, Note_on_c, 0, 76, 0
2, 15780, Note_on_c, 0, 76, 112
2, 15780, Note_on_c, 0, 79, 112
2, 15831, Note_on_c, 0, 79, 0
2, 15831, Note_on_c, 0, 76, 0
2, 15840, Note_on_c, 0, 74, 112
2, 15840, Note_on_c, 0, 78, 112
2, 15942, Note_on_c, 0, 78, 0
2, 15942, Note_on_c, 0, 74, 0
2, 15960, Note_on_c, 0, 78, 108
2, 15960, Note_on_c, 0, 74, 108
2, 16011, Note_on_c, 0, 74, 0
2, 16011, Note_on_c, 0, 78, 0
2, 16020, Note_on_c, 0, 78, 102
2, 16020, Note_on_c, 0, 74, 102
2, 16071, Note_on_c, 0, 74, 0
2, 16071, Note_on_c, 0, 78, 0
2, 16080, Note_on_c, 0, 73, 91
2, 16080, Note_on_c, 0, 76, 91
2, 16182, Note_on_c, 0, 76, 0
2, 16182, Note_on_c, 0, 73, 0
2, 16200, Note_on_c, 0, 76, 79
2, 16200, Note_on_c, 0, 73, 79
2, 16251, Note_on_c, 0, 73, 0
2, 16251, Note_on_c, 0, 76, 0
2, 16260, Note_on_c, 0, 73, 76
2, 16260, Note_on_c, 0, 76, 76
2, 16311, Note_on_c, 0, 76, 0
2, 16311, Note_on_c, 0, 73, 0
2, 16320, Note_on_c, 0, 74, 75
2, 16320, Note_on_c, 0, 74, 75
2, 16320, Note_on_c, 0, 74, 75
2, 16321, Control_c, 0, 7, 127
2, 16323, Control_c, 0, 7, 126
2, 16325, Control_c, 0, 7, 125
2, 16327, Control_c, 0, 7, 124
2, 16329, Control_c, 0, 7, 123
2, 16330, Control_c, 0, 7, 122
2, 16340, Control_c, 0, 7, 121
2, 16350, Control_c, 0, 7, 120
2, 16360, Control_c, 0, 7, 117
2, 16380, Control_c, 0, 7, 107
2, 16400, Control_c, 0, 7, 105
2, 16410, Control_c, 0, 7, 103
2, 16420, Control_c, 0, 7, 100
2, 16430, Control_c, 0, 7, 97
2, 16440, Control_c, 0, 7, 96
2, 16450, Control_c, 0, 7, 94
2, 16460, Control_c, 0, 7, 92
2, 16470, Control_c, 0, 7, 91
2, 16490, Control_c, 0, 7, 90
2, 16500, Control_c, 0, 7, 88
2, 16520, Control_c, 0, 7, 87
2, 16540, Control_c, 0, 7, 86
2, 16570, Control_c, 0, 7, 85
2, 16580, Control_c, 0, 7, 84
2, 16630, Control_c, 0, 7, 89
2, 16650, Control_c, 0, 7, 90
2, 16720, Control_c, 0, 7, 91
2, 16740, Control_c, 0, 7, 92
2, 16800, Control_c, 0, 7, 93
2, 16810, Control_c, 0, 7, 94
2, 16870, Control_c, 0, 7, 95
2, 16930, Control_c, 0, 7, 97
2, 16950, Control_c, 0, 7, 99
2, 17010, Control_c, 0, 7, 101
2, 17030, Control_c, 0, 7, 102
2, 17090, Control_c, 0, 7, 104
2, 17150, Control_c, 0, 7, 110
2, 17210, Control_c, 0, 7, 117
2, 17270, Control_c, 0, 7, 125
2, 17280, Note_on_c, 0, 74, 0
2, 17280, Note_on_c, 0, 74, 0
2, 17280, Note_on_c, 0, 74, 0
2, 17280, Note_on_c, 0, 73, 74
2, 17280, Note_on_c, 0, 76, 74
2, 17281, Control_c, 0, 7, 127
2, 17283, Control_c, 0, 7, 126
2, 17285, Control_c, 0, 7, 125
2, 17287, Control_c, 0, 7, 124
2, 17289, Control_c, 0, 7, 123
2, 17290, Control_c, 0, 7, 121
2, 17300, Control_c, 0, 7, 115
2, 17310, Control_c, 0, 7, 114
2, 17320, Control_c, 0, 7, 110
2, 17330, Control_c, 0, 7, 107
2, 17340, Control_c, 0, 7, 102
2, 17350, Control_c, 0, 7, 100
2, 17370, Control_c, 0, 7, 98
2, 17380, Control_c, 0, 7, 96
2, 17390, Control_c, 0, 7, 95
2, 17400, Control_c, 0, 7, 94
2, 17410, Control_c, 0, 7, 93
2, 17420, Control_c, 0, 7, 89
2, 17440, Control_c, 0, 7, 87
2, 17460, Control_c, 0, 7, 85
2, 17490, Control_c, 0, 7, 84
2, 17500, Control_c, 0, 7, 83
2, 17520, Control_c, 0, 7, 82
2, 17540, Control_c, 0, 7, 81
2, 17560, Control_c, 0, 7, 80
2, 17630, Control_c, 0, 7, 82
2, 17710, Control_c, 0, 7, 83
2, 17730, Control_c, 0, 7, 84
2, 17750, Control_c, 0, 7, 85
2, 17780, Control_c, 0, 7, 86
2, 17790, Control_c, 0, 7, 87
2, 17810, Control_c, 0, 7, 88
2, 17830, Control_c, 0, 7, 89
2, 17840, Control_c, 0, 7, 91
2, 17870, Control_c, 0, 7, 92
2, 17930, Control_c, 0, 7, 94
2, 17950, Control_c, 0, 7, 96
2, 17970, Control_c, 0, 7, 98
2, 17990, Control_c, 0, 7, 99
2, 18010, Control_c, 0, 7, 101
2, 18020, Control_c, 0, 7, 102
2, 18030, Control_c, 0, 7, 103
2, 18060, Control_c, 0, 7, 104
2, 18070, Control_c, 0, 7, 106
2, 18080, Control_c, 0, 7, 107
2, 18090, Control_c, 0, 7, 108
2, 18100, Control_c, 0, 7, 109
2, 18110, Control_c, 0, 7, 110
2, 18130, Control_c, 0, 7, 112
2, 18140, Control_c, 0, 7, 113
2, 18150, Control_c, 0, 7, 115
2, 18210, Control_c, 0, 7, 117
2, 18230, Control_c, 0, 7, 125
2, 18240, Note_on_c, 0, 76, 0
2, 18240, Note_on_c, 0, 73, 0
2, 18240, Note_on_c, 0, 78, 78
2, 18240, Note_on_c, 0, 74, 112
2, 18240, Control_c, 0, 7, 124
2, 18250, Control_c, 0, 7, 122
2, 18260, Control_c, 0, 7, 118
2, 18270, Control_c, 0, 7, 108
2, 18280, Control_c, 0, 7, 106
2, 18290, Control_c, 0, 7, 104
2, 18300, Control_c, 0, 7, 101
2, 18310, Control_c, 0, 7, 95
2, 18330, Control_c, 0, 7, 94
2, 18350, Control_c, 0, 7, 90
2, 18360, Control_c, 0, 7, 89
2, 18380, Control_c, 0, 7, 86
2, 18400, Control_c, 0, 7, 85
2, 18410, Control_c, 0, 7, 81
2, 18430, Control_c, 0, 7, 80
2, 18460, Control_c, 0, 7, 79
2, 18680, Control_c, 0, 7, 81
2, 18760, Control_c, 0, 7, 83
2, 18780, Control_c, 0, 7, 85
2, 18800, Control_c, 0, 7, 86
2, 18860, Control_c, 0, 7, 92
2, 18880, Control_c, 0, 7, 94
2, 18890, Control_c, 0, 7, 95
2, 18910, Control_c, 0, 7, 96
2, 18920, Control_c, 0, 7, 97
2, 19000, Control_c, 0, 7, 99
2, 19080, Control_c, 0, 7, 105
2, 19100, Control_c, 0, 7, 106
2, 19110, Control_c, 0, 7, 107
2, 19180, Control_c, 0, 7, 109
2, 19190, Control_c, 0, 7, 114
2, 19200, Note_on_c, 0, 74, 0
2, 19200, Note_on_c, 0, 78, 0
2, 19200, Note_on_c, 0, 79, 75
2, 19200, Note_on_c, 0, 83, 75
2, 19210, Control_c, 0, 7, 113
2, 19230, Control_c, 0, 7, 111
2, 19250, Control_c, 0, 7, 109
2, 19260, Control_c, 0, 7, 107
2, 19270, Control_c, 0, 7, 106
2, 19280, Control_c, 0, 7, 105
2, 19310, Control_c, 0, 7, 103
2, 19330, Control_c, 0, 7, 102
2, 19350, Control_c, 0, 7, 101
2, 19370, Control_c, 0, 7, 99
2, 19390, Control_c, 0, 7, 98
2, 19420, Control_c, 0, 7, 97
2, 19450, Control_c, 0, 7, 98
2, 19480, Control_c, 0, 7, 99
2, 19490, Control_c, 0, 7, 100
2, 19500, Control_c, 0, 7, 101
2, 19510, Control_c, 0, 7, 102
2, 19540, Control_c, 0, 7, 104
2, 19570, Control_c, 0, 7, 105
2, 19580, Control_c, 0, 7, 106
2, 19600, Control_c, 0, 7, 108
2, 19630, Control_c, 0, 7, 110
2, 19650, Control_c, 0, 7, 111
2, 19660, Control_c, 0, 7, 112
2, 19670, Control_c, 0, 7, 112
2, 19680, Note_on_c, 0, 83, 0
2, 19680, Note_on_c, 0, 79, 0
2, 19680, Note_on_c, 0, 81, 85
2, 19680, Note_on_c, 0, 84, 85
2, 19700, Control_c, 0, 7, 111
2, 19740, Control_c, 0, 7, 109
2, 19780, Control_c, 0, 7, 106
2, 19790, Control_c, 0, 7, 105
2, 19810, Control_c, 0, 7, 104
2, 19820, Control_c, 0, 7, 103
2, 19850, Control_c, 0, 7, 102
2, 19860, Control_c, 0, 7, 101
2, 19870, Control_c, 0, 7, 100
2, 19900, Control_c, 0, 7, 99
2, 19910, Control_c, 0, 7, 95
2, 19940, Control_c, 0, 7, 97
2, 19960, Control_c, 0, 7, 98
2, 19970, Control_c, 0, 7, 99
2, 20100, Control_c, 0, 7, 100
2, 20160, Note_on_c, 0, 84, 0
2, 20160, Note_on_c, 0, 81, 0
2, 20160, Note_on_c, 0, 79, 112
2, 20160, Note_on_c, 0, 83, 92
2, 20210, Control_c, 0, 7, 101
2, 20230, Control_c, 0, 7, 102
2, 20380, Control_c, 0, 7, 104
2, 20400, Note_on_c, 0, 83, 0
2, 20400, Note_on_c, 0, 79, 0
2, 20400, Note_on_c, 0, 81, 94
2, 20400, Note_on_c, 0, 78, 94
2, 20460, Control_c, 0, 7, 105
2, 20520, Control_c, 0, 7, 106
2, 20640, Note_on_c, 0, 78, 0
2, 20640, Note_on_c, 0, 81, 0
2, 20640, Note_on_c, 0, 79, 97
2, 20640, Note_on_c, 0, 83, 97
2, 20640, Control_c, 0, 7, 107
2, 20720, Control_c, 0, 7, 109
2, 20750, Control_c, 0, 7, 110
2, 20870, Control_c, 0, 7, 111
2, 20880, Note_on_c, 0, 83, 0
2, 20880, Note_on_c, 0, 85, 97
2, 20950, Control_c, 0, 7, 112
2, 20960, Control_c, 0, 7, 113
2, 21040, Control_c, 0, 7, 114
2, 21060, Control_c, 0, 7, 115
2, 21090, Note_on_c, 0, 79, 0
2, 21110, Control_c, 0, 7, 116
2, 21120, Note_on_c, 0, 85, 0
2, 21120, Note_on_c, 0, 86, 97
2, 21120, Note_on_c, 0, 78, 97
2, 21130, Control_c, 0, 7, 117
2, 21160, Control_c, 0, 7, 118
2, 21190, Control_c, 0, 7, 119
2, 21200, Control_c, 0, 7, 120
2, 21230, Control_c, 0, 7, 121
2, 21232, Note_on_c, 0, 78, 0
2, 21232, Note_on_c, 0, 86, 0
2, 21240, Control_c, 0, 7, 122
2, 21280, Control_c, 0, 7, 124
2, 21310, Control_c, 0, 7, 125
2, 21340, Control_c, 0, 7, 126
2, 21360, Control_c, 0, 7, 126
2, 21370, Control_c, 0, 7, 127
2, 21380, Control_c, 0, 7, 126
2, 21410, Control_c, 0, 7, 125
2, 21430, Control_c, 0, 7, 123
2, 21480, Note_on_c, 0, 85, 104
2, 21480, Note_on_c, 0, 81, 104
2, 21530, Control_c, 0, 7, 122
2, 21560, Control_c, 0, 7, 121
2, 21588, Note_on_c, 0, 81, 0
2, 21588, Note_on_c, 0, 85, 0
2, 21600, Note_on_c, 0, 86, 107
2, 21600, Note_on_c, 0, 81, 107
2, 21680, Control_c, 0, 7, 120
2, 21682, Note_on_c, 0, 81, 0
2, 21682, Note_on_c, 0, 86, 0
2, 21720, Note_on_c, 0, 86, 95
2, 21720, Note_on_c, 0, 81, 95
2, 21740, Control_c, 0, 7, 119
2, 21803, Note_on_c, 0, 81, 0
2, 21803, Note_on_c, 0, 86, 0
2, 21920, Control_c, 0, 7, 118
2, 21960, Note_on_c, 0, 81, 107
2, 21960, Note_on_c, 0, 85, 107
2, 22068, Note_on_c, 0, 85, 0
2, 22068, Note_on_c, 0, 81, 0
2, 22080, Note_on_c, 0, 81, 113
2, 22080, Note_on_c, 0, 86, 113
2, 22100, Control_c, 0, 7, 117
2, 22162, Note_on_c, 0, 86, 0
2, 22162, Note_on_c, 0, 81, 0
2, 22180, Control_c, 0, 7, 116
2, 22200, Note_on_c, 0, 81, 93
2, 22200, Note_on_c, 0, 86, 93
2, 22260, Control_c, 0, 7, 115
2, 22283, Note_on_c, 0, 86, 0
2, 22283, Note_on_c, 0, 81, 0
2, 22420, Control_c, 0, 7, 113
2, 22440, Note_on_c, 0, 85, 111
2, 22440, Note_on_c, 0, 81, 111
2, 22520, Control_c, 0, 7, 111
2, 22548, Note_on_c, 0, 81, 0
2, 22548, Note_on_c, 0, 85, 0
2, 22560, Note_on_c, 0, 86, 88
2, 22560, Note_on_c, 0, 81, 88
2, 22640, Control_c, 0, 7, 110
2, 22656, Note_on_c, 0, 81, 0
2, 22656, Note_on_c, 0, 86, 0
2, 22680, Note_on_c, 0, 85, 95
2, 22680, Note_on_c, 0, 81, 95
2, 22720, Control_c, 0, 7, 109
2, 22776, Note_on_c, 0, 81, 0
2, 22776, Note_on_c, 0, 85, 0
2, 22800, Note_on_c, 0, 86, 102
2, 22800, Note_on_c, 0, 81, 102
2, 22820, Control_c, 0, 7, 108
2, 22896, Note_on_c, 0, 81, 0
2, 22896, Note_on_c, 0, 86, 0
2, 22920, Note_on_c, 0, 85, 104
2, 22920, Note_on_c, 0, 81, 104
2, 22940, Control_c, 0, 7, 107
2, 23016, Note_on_c, 0, 81, 0
2, 23016, Note_on_c, 0, 85, 0
2, 23020, Control_c, 0, 7, 106
2, 23040, Note_on_c, 0, 86, 111
2, 23040, Note_on_c, 0, 86, 111
2, 23097, Note_on_c, 0, 86, 0
2, 23097, Note_on_c, 0, 86, 0
2, 23100, Note_on_c, 0, 85, 105
2, 23100, Note_on_c, 0, 85, 105
2, 23100, Control_c, 0, 7, 105
2, 23157, Note_on_c, 0, 85, 0
2, 23157, Note_on_c, 0, 85, 0
2, 23160, Note_on_c, 0, 83, 102
2, 23160, Note_on_c, 0, 83, 102
2, 23217, Note_on_c, 0, 83, 0
2, 23217, Note_on_c, 0, 83, 0
2, 23220, Note_on_c, 0, 81, 98
2, 23220, Note_on_c, 0, 81, 98
2, 23277, Note_on_c, 0, 81, 0
2, 23277, Note_on_c, 0, 81, 0
2, 23280, Note_on_c, 0, 86, 96
2, 23280, Note_on_c, 0, 86, 96
2, 23337, Note_on_c, 0, 86, 0
2, 23337, Note_on_c, 0, 86, 0
2, 23340, Note_on_c, 0, 85, 92
2, 23340, Note_on_c, 0, 85, 92
2, 23340, Control_c, 0, 7, 104
2, 23397, Note_on_c, 0, 85, 0
2, 23397, Note_on_c, 0, 85, 0
2, 23400, Note_on_c, 0, 83, 91
2, 23400, Note_on_c, 0, 83, 91
2, 23420, Control_c, 0, 7, 103
2, 23457, Note_on_c, 0, 83, 0
2, 23457, Note_on_c, 0, 83, 0
2, 23460, Note_on_c, 0, 81, 91
2, 23460, Note_on_c, 0, 81, 91
2, 23517, Note_on_c, 0, 81, 0
2, 23517, Note_on_c, 0, 81, 0
2, 23520, Note_on_c, 0, 86, 91
2, 23520, Note_on_c, 0, 86, 91
2, 23577, Note_on_c, 0, 86, 0
2, 23577, Note_on_c, 0, 86, 0
2, 23580, Note_on_c, 0, 85, 91
2, 23580, Note_on_c, 0, 85, 91
2, 23637, Note_on_c, 0, 85, 0
2, 23637, Note_on_c, 0, 85, 0
2, 23640, Note_on_c, 0, 83, 91
2, 23640, Note_on_c, 0, 83, 91
2, 23660, Control_c, 0, 7, 102
2, 23697, Note_on_c, 0, 83, 0
2, 23697, Note_on_c, 0, 83, 0
2, 23700, Note_on_c, 0, 81, 91
2, 23700, Note_on_c, 0, 81, 91
2, 23757, Note_on_c, 0, 81, 0
2, 23757, Note_on_c, 0, 81, 0
2, 23760, Note_on_c, 0, 79, 93
2, 23760, Note_on_c, 0, 79, 93
2, 23760, Control_c, 0, 7, 101
2, 23817, Note_on_c, 0, 79, 0
2, 23817, Note_on_c, 0, 79, 0
2, 23820, Note_on_c, 0, 78, 98
2, 23820, Note_on_c, 0, 78, 98
2, 23860, Control_c, 0, 7, 100
2, 23877, Note_on_c, 0, 78, 0
2, 23877, Note_on_c, 0, 78, 0
2, 23880, Note_on_c, 0, 76, 102
2, 23880, Note_on_c, 0, 76, 102
2, 23937, Note_on_c, 0, 76, 0
2, 23937, Note_on_c, 0, 76, 0
2, 23940, Note_on_c, 0, 74, 107
2, 23940, Note_on_c, 0, 74, 107
2, 23940, Control_c, 0, 7, 99
2, 23997, Note_on_c, 0, 74, 0
2, 23997, Note_on_c, 0, 74, 0
2, 24000, Note_on_c, 0, 81, 112
2, 24000, Note_on_c, 0, 81, 112
2, 24070, Control_c, 0, 7, 98
2, 24170, Control_c, 0, 7, 97
2, 24192, Note_on_c, 0, 81, 0
2, 24240, Note_on_c, 0, 85, 109
2, 24320, Control_c, 0, 7, 96
2, 24430, Control_c, 0, 7, 94
2, 24480, Note_on_c, 0, 85, 0
2, 24480, Note_on_c, 0, 86, 110
2, 24530, Control_c, 0, 7, 98
2, 24670, Control_c, 0, 7, 106
2, 24720, Note_on_c, 0, 86, 0
2, 24720, Note_on_c, 0, 81, 0
2, 24720, Note_on_c, 0, 86, 112
2, 24720, Note_on_c, 0, 90, 112
2, 24790, Control_c, 0, 7, 114
2, 24910, Control_c, 0, 7, 120
2, 24960, Note_on_c, 0, 90, 0
2, 24960, Note_on_c, 0, 86, 0
2, 24960, Note_on_c, 0, 85, 113
2, 24960, Note_on_c, 0, 88, 113
2, 25010, Control_c, 0, 7, 126
2, 25030, Control_c, 0, 7, 127
2, 25130, Control_c, 0, 7, 122
2, 25152, Note_on_c, 0, 88, 0
2, 25152, Note_on_c, 0, 85, 0
2, 25200, Note_on_c, 0, 81, 113
2, 25200, Note_on_c, 0, 85, 113
2, 25230, Control_c, 0, 7, 120
2, 25370, Control_c, 0, 7, 114
2, 25440, Note_on_c, 0, 85, 0
2, 25440, Note_on_c, 0, 86, 113
2, 25450, Control_c, 0, 7, 113
2, 25470, Control_c, 0, 7, 112
2, 25500, Control_c, 0, 7, 111
2, 25600, Control_c, 0, 7, 109
2, 25680, Note_on_c, 0, 86, 0
2, 25680, Note_on_c, 0, 81, 0
2, 25680, Note_on_c, 0, 86, 113
2, 25680, Note_on_c, 0, 90, 113
2, 25820, Control_c, 0, 7, 107
2, 25920, Note_on_c, 0, 90, 0
2, 25920, Note_on_c, 0, 86, 0
2, 25920, Note_on_c, 0, 88, 113
2, 25920, Note_on_c, 0, 85, 113
2, 25920, Control_c, 0, 7, 105
2, 26112, Note_on_c, 0, 85, 0
2, 26112, Note_on_c, 0, 88, 0
2, 26160, Note_on_c, 0, 86, 109
2, 26160, Note_on_c, 0, 90, 109
2, 26190, Control_c, 0, 7, 103
2, 26270, Control_c, 0, 7, 102
2, 26350, Control_c, 0, 7, 101
2, 26352, Note_on_c, 0, 90, 0
2, 26352, Note_on_c, 0, 86, 0
2, 26400, Note_on_c, 0, 85, 105
2, 26400, Note_on_c, 0, 88, 105
2, 26510, Control_c, 0, 7, 100
2, 26580, Control_c, 0, 7, 99
2, 26592, Note_on_c, 0, 88, 0
2, 26592, Note_on_c, 0, 85, 0
2, 26640, Note_on_c, 0, 90, 101
2, 26640, Note_on_c, 0, 86, 101
2, 26660, Control_c, 0, 7, 97
2, 26740, Control_c, 0, 7, 96
2, 26820, Control_c, 0, 7, 94
2, 26832, Note_on_c, 0, 86, 0
2, 26832, Note_on_c, 0, 90, 0
2, 26880, Note_on_c, 0, 85, 99
2, 26880, Note_on_c, 0, 88, 99
2, 26900, Control_c, 0, 7, 93
2, 26980, Control_c, 0, 7, 91
2, 26992, Note_on_c, 0, 88, 0
2, 26992, Note_on_c, 0, 85, 0
2, 27000, Note_on_c, 0, 81, 93
2, 27000, Note_on_c, 0, 81, 93
2, 27048, Note_on_c, 0, 81, 0
2, 27048, Note_on_c, 0, 81, 0
2, 27060, Note_on_c, 0, 81, 91
2, 27060, Note_on_c, 0, 81, 91
2, 27060, Control_c, 0, 7, 90
2, 27080, Control_c, 0, 7, 89
2, 27108, Note_on_c, 0, 81, 0
2, 27108, Note_on_c, 0, 81, 0
2, 27120, Note_on_c, 0, 81, 90
2, 27120, Note_on_c, 0, 81, 90
2, 27140, Control_c, 0, 7, 88
2, 27170, Control_c, 0, 7, 87
2, 27190, Control_c, 0, 7, 86
2, 27210, Control_c, 0, 7, 85
2, 27230, Control_c, 0, 7, 84
2, 27232, Note_on_c, 0, 81, 0
2, 27232, Note_on_c, 0, 81, 0
2, 27240, Note_on_c, 0, 81, 89
2, 27240, Note_on_c, 0, 81, 89
2, 27250, Control_c, 0, 7, 83
2, 27290, Control_c, 0, 7, 81
2, 27330, Control_c, 0, 7, 80
2, 27340, Control_c, 0, 7, 79
2, 27352, Note_on_c, 0, 81, 0
2, 27352, Note_on_c, 0, 81, 0
2, 27360, Note_on_c, 0, 81, 87
2, 27360, Note_on_c, 0, 81, 87
2, 27662, Note_on_c, 0, 81, 0
2, 27662, Note_on_c, 0, 81, 0
2, 27840, Control_c, 0, 7, 120
2, 27842, Control_c, 0, 7, 119
2, 27844, Control_c, 0, 7, 118
2, 27846, Control_c, 0, 7, 117
2, 27848, Control_c, 0, 7, 116
2, 27850, Control_c, 0, 7, 115
2, 27852, Control_c, 0, 7, 114
2, 27854, Control_c, 0, 7, 113
2, 27857, Control_c, 0, 7, 112
2, 27859, Control_c, 0, 7, 111
2, 27861, Control_c, 0, 7, 110
2, 27863, Control_c, 0, 7, 109
2, 27865, Control_c, 0, 7, 108
2, 27867, Control_c, 0, 7, 107
2, 27869, Control_c, 0, 7, 106
2, 27871, Control_c, 0, 7, 105
2, 27874, Control_c, 0, 7, 104
2, 27876, Control_c, 0, 7, 103
2, 27878, Control_c, 0, 7, 102
2, 27880, Control_c, 0, 7, 101
2, 27882, Control_c, 0, 7, 100
2, 27884, Control_c, 0, 7, 99
2, 27886, Control_c, 0, 7, 98
2, 27888, Control_c, 0, 7, 97
2, 27891, Control_c, 0, 7, 96
2, 27893, Control_c, 0, 7, 95
2, 27895, Control_c, 0, 7, 94
2, 27897, Control_c, 0, 7, 93
2, 27899, Control_c, 0, 7, 92
2, 27901, Control_c, 0, 7, 91
2, 27903, Control_c, 0, 7, 90
2, 27905, Control_c, 0, 7, 89
2, 27908, Control_c, 0, 7, 88
2, 27910, Control_c, 0, 7, 87
2, 27912, Control_c, 0, 7, 86
2, 27914, Control_c, 0, 7, 85
2, 27916, Control_c, 0, 7, 84
2, 27918, Control_c, 0, 7, 83
2, 27920, Control_c, 0, 7, 82
2, 27922, Control_c, 0, 7, 81
2, 27925, Control_c, 0, 7, 80
2, 27927, Control_c, 0, 7, 79
2, 27929, Control_c, 0, 7, 78
2, 27931, Control_c, 0, 7, 77
2, 27933, Control_c, 0, 7, 76
2, 27935, Control_c, 0, 7, 75
2, 27937, Control_c, 0, 7, 74
2, 27939, Control_c, 0, 7, 73
2, 27942, Control_c, 0, 7, 72
2, 27944, Control_c, 0, 7, 71
2, 27946, Control_c, 0, 7, 70
2, 27948, Control_c, 0, 7, 69
2, 27950, Control_c, 0, 7, 68
2, 27952, Control_c, 0, 7, 67
2, 27954, Control_c, 0, 7, 66
2, 27956, Control_c, 0, 7, 65
2, 27959, Control_c, 0, 7, 64
2, 27960, Control_c, 0, 7, 64
2, 29760, Control_c, 0, 7, 96
2, 29760, Control_c, 0, 7, 120
2, 29762, Control_c, 0, 7, 106
2, 29762, Control_c, 0, 7, 119
2, 29764, Control_c, 0, 7, 105
2, 29764, Control_c, 0, 7, 118
2, 29766, Control_c, 0, 7, 104
2, 29766, Control_c, 0, 7, 117
2, 29768, Control_c, 0, 7, 103
2, 29768, Control_c, 0, 7, 116
2, 29770, Control_c, 0, 7, 102
2, 29770, Control_c, 0, 7, 115
2, 29772, Control_c, 0, 7, 101
2, 29772, Control_c, 0, 7, 114
2, 29774, Control_c, 0, 7, 95
2, 29774, Control_c, 0, 7, 100
2, 29774, Control_c, 0, 7, 113
2, 29777, Control_c, 0, 7, 99
2, 29777, Control_c, 0, 7, 112
2, 29779, Control_c, 0, 7, 98
2, 29779, Control_c, 0, 7, 111
2, 29781, Control_c, 0, 7, 97
2, 29781, Control_c, 0, 7, 110
2, 29783, Control_c, 0, 7, 96
2, 29783, Control_c, 0, 7, 109
2, 29785, Control_c, 0, 7, 95
2, 29785, Control_c, 0, 7, 108
2, 29787, Control_c, 0, 7, 94
2, 29787, Control_c, 0, 7, 107
2, 29789, Control_c, 0, 7, 94
2, 29789, Control_c, 0, 7, 93
2, 29789, Control_c, 0, 7, 106
2, 29791, Control_c, 0, 7, 105
2, 29792, Control_c, 0, 7, 92
2, 29794, Control_c, 0, 7, 91
2, 29794, Control_c, 0, 7, 104
2, 29796, Control_c, 0, 7, 90
2, 29796, Control_c, 0, 7, 103
2, 29798, Control_c, 0, 7, 89
2, 29798, Control_c, 0, 7, 102
2, 29800, Control_c, 0, 7, 88
2, 29800, Control_c, 0, 7, 101
2, 29802, Control_c, 0, 7, 87
2, 29802, Control_c, 0, 7, 100
2, 29804, Control_c, 0, 7, 93
2, 29804, Control_c, 0, 7, 86
2, 29804, Control_c, 0, 7, 99
2, 29806, Control_c, 0, 7, 98
2, 29807, Control_c, 0, 7, 85
2, 29808, Control_c, 0, 7, 97
2, 29809, Control_c, 0, 7, 84
2, 29811, Control_c, 0, 7, 83
2, 29811, Control_c, 0, 7, 96
2, 29813, Control_c, 0, 7, 82
2, 29813, Control_c, 0, 7, 95
2, 29815, Control_c, 0, 7, 81
2, 29815, Control_c, 0, 7, 94
2, 29817, Control_c, 0, 7, 80
2, 29817, Control_c, 0, 7, 93
2, 29819, Control_c, 0, 7, 92
2, 29819, Control_c, 0, 7, 79
2, 29819, Control_c, 0, 7, 92
2, 29821, Control_c, 0, 7, 91
2, 29822, Control_c, 0, 7, 78
2, 29823, Control_c, 0, 7, 90
2, 29824, Control_c, 0, 7, 77
2, 29825, Control_c, 0, 7, 89
2, 29826, Control_c, 0, 7, 76
2, 29828, Control_c, 0, 7, 75
2, 29828, Control_c, 0, 7, 88
2, 29830, Control_c, 0, 7, 74
2, 29830, Control_c, 0, 7, 87
2, 29832, Control_c, 0, 7, 73
2, 29832, Control_c, 0, 7, 86
2, 29834, Control_c, 0, 7, 91
2, 29834, Control_c, 0, 7, 72
2, 29834, Control_c, 0, 7, 85
2, 29836, Control_c, 0, 7, 84
2, 29837, Control_c, 0, 7, 71
2, 29838, Control_c, 0, 7, 83
2, 29839, Control_c, 0, 7, 70
2, 29840, Control_c, 0, 7, 82
2, 29841, Control_c, 0, 7, 69
2, 29842, Control_c, 0, 7, 81
2, 29843, Control_c, 0, 7, 68
2, 29845, Control_c, 0, 7, 67
2, 29845, Control_c, 0, 7, 80
2, 29847, Control_c, 0, 7, 66
2, 29847, Control_c, 0, 7, 79
2, 29849, Control_c, 0, 7, 90
2, 29849, Control_c, 0, 7, 65
2, 29849, Control_c, 0, 7, 78
2, 29851, Control_c, 0, 7, 77
2, 29852, Control_c, 0, 7, 64
2, 29853, Control_c, 0, 7, 76
2, 29855, Control_c, 0, 7, 75
2, 29857, Control_c, 0, 7, 74
2, 29859, Control_c, 0, 7, 73
2, 29862, Control_c, 0, 7, 72
2, 29864, Control_c, 0, 7, 89
2, 29864, Control_c, 0, 7, 71
2, 29866, Control_c, 0, 7, 70
2, 29868, Control_c, 0, 7, 69
2, 29870, Control_c, 0, 7, 68
2, 29872, Control_c, 0, 7, 67
2, 29874, Control_c, 0, 7, 66
2, 29876, Control_c, 0, 7, 65
2, 29879, Control_c, 0, 7, 88
2, 29879, Control_c, 0, 7, 64
2, 29880, Control_c, 0, 7, 64
2, 29894, Control_c, 0, 7, 87
2, 29909, Control_c, 0, 7, 86
2, 29924, Control_c, 0, 7, 85
2, 29939, Control_c, 0, 7, 84
2, 29954, Control_c, 0, 7, 83
2, 29969, Control_c, 0, 7, 82
2, 29984, Control_c, 0, 7, 81
2, 29999, Control_c, 0, 7, 80
2, 30014, Control_c, 0, 7, 79
2, 30029, Control_c, 0, 7, 78
2, 30044, Control_c, 0, 7, 77
2, 30059, Control_c, 0, 7, 76
2, 30074, Control_c, 0, 7, 75
2, 30089, Control_c, 0, 7, 74
2, 30104, Control_c, 0, 7, 73
2, 30119, Control_c, 0, 7, 72
2, 30134, Control_c, 0, 7, 71
2, 30149, Control_c, 0, 7, 70
2, 30164, Control_c, 0, 7, 69
2, 30179, Control_c, 0, 7, 68
2, 30194, Control_c, 0, 7, 67
2, 30209, Control_c, 0, 7, 66
2, 30213, Control_c, 0, 7, 115
2, 30215, Control_c, 0, 7, 114
2, 30218, Control_c, 0, 7, 113
2, 30220, Control_c, 0, 7, 112
2, 30222, Control_c, 0, 7, 111
2, 30224, Control_c, 0, 7, 65
2, 30224, Control_c, 0, 7, 110
2, 30226, Control_c, 0, 7, 109
2, 30228, Control_c, 0, 7, 108
2, 30230, Control_c, 0, 7, 107
2, 30233, Control_c, 0, 7, 106
2, 30235, Control_c, 0, 7, 105
2, 30237, Control_c, 0, 7, 104
2, 30239, Control_c, 0, 7, 64
2, 30239, Control_c, 0, 7, 103
2, 30240, Control_c, 0, 7, 96
2, 30240, Control_c, 0, 7, 120
2, 30241, Control_c, 0, 7, 102
2, 30242, Control_c, 0, 7, 119
2, 30243, Control_c, 0, 7, 101
2, 30244, Control_c, 0, 7, 118
2, 30245, Control_c, 0, 7, 100
2, 30246, Control_c, 0, 7, 117
2, 30248, Control_c, 0, 7, 99
2, 30248, Control_c, 0, 7, 116
2, 30250, Control_c, 0, 7, 98
2, 30250, Control_c, 0, 7, 115
2, 30252, Control_c, 0, 7, 97
2, 30252, Control_c, 0, 7, 114
2, 30254, Control_c, 0, 7, 95
2, 30254, Control_c, 0, 7, 96
2, 30254, Control_c, 0, 7, 113
2, 30256, Control_c, 0, 7, 95
2, 30257, Control_c, 0, 7, 112
2, 30258, Control_c, 0, 7, 94
2, 30259, Control_c, 0, 7, 111
2, 30260, Control_c, 0, 7, 93
2, 30261, Control_c, 0, 7, 110
2, 30263, Control_c, 0, 7, 92
2, 30263, Control_c, 0, 7, 109
2, 30265, Control_c, 0, 7, 91
2, 30265, Control_c, 0, 7, 108
2, 30267, Control_c, 0, 7, 90
2, 30267, Control_c, 0, 7, 107
2, 30269, Control_c, 0, 7, 94
2, 30269, Control_c, 0, 7, 89
2, 30269, Control_c, 0, 7, 106
2, 30271, Control_c, 0, 7, 88
2, 30271, Control_c, 0, 7, 105
2, 30273, Control_c, 0, 7, 87
2, 30274, Control_c, 0, 7, 104
2, 30275, Control_c, 0, 7, 86
2, 30276, Control_c, 0, 7, 103
2, 30278, Control_c, 0, 7, 85
2, 30278, Control_c, 0, 7, 102
2, 30280, Control_c, 0, 7, 84
2, 30280, Control_c, 0, 7, 101
2, 30282, Control_c, 0, 7, 83
2, 30282, Control_c, 0, 7, 100
2, 30284, Control_c, 0, 7, 93
2, 30284, Control_c, 0, 7, 82
2, 30284, Control_c, 0, 7, 99
2, 30286, Control_c, 0, 7, 81
2, 30286, Control_c, 0, 7, 98
2, 30288, Control_c, 0, 7, 80
2, 30288, Control_c, 0, 7, 97
2, 30290, Control_c, 0, 7, 79
2, 30291, Control_c, 0, 7, 96
2, 30293, Control_c, 0, 7, 78
2, 30293, Control_c, 0, 7, 95
2, 30295, Control_c, 0, 7, 77
2, 30295, Control_c, 0, 7, 94
2, 30297, Control_c, 0, 7, 76
2, 30297, Control_c, 0, 7, 93
2, 30299, Control_c, 0, 7, 92
2, 30299, Control_c, 0, 7, 75
2, 30299, Control_c, 0, 7, 92
2, 30301, Control_c, 0, 7, 74
2, 30301, Control_c, 0, 7, 91
2, 30303, Control_c, 0, 7, 73
2, 30303, Control_c, 0, 7, 90
2, 30305, Control_c, 0, 7, 72
2, 30305, Control_c, 0, 7, 89
2, 30308, Control_c, 0, 7, 71
2, 30308, Control_c, 0, 7, 88
2, 30310, Control_c, 0, 7, 70
2, 30310, Control_c, 0, 7, 87
2, 30312, Control_c, 0, 7, 69
2, 30312, Control_c, 0, 7, 86
2, 30314, Control_c, 0, 7, 91
2, 30314, Control_c, 0, 7, 68
2, 30314, Control_c, 0, 7, 85
2, 30316, Control_c, 0, 7, 67
2, 30316, Control_c, 0, 7, 84
2, 30318, Control_c, 0, 7, 66
2, 30318, Control_c, 0, 7, 83
2, 30320, Control_c, 0, 7, 65
2, 30320, Control_c, 0, 7, 82
2, 30322, Control_c, 0, 7, 81
2, 30323, Control_c, 0, 7, 64
2, 30325, Control_c, 0, 7, 80
2, 30327, Control_c, 0, 7, 79
2, 30329, Control_c, 0, 7, 90
2, 30329, Control_c, 0, 7, 78
2, 30331, Control_c, 0, 7, 77
2, 30333, Control_c, 0, 7, 76
2, 30335, Control_c, 0, 7, 75
2, 30337, Control_c, 0, 7, 74
2, 30339, Control_c, 0, 7, 73
2, 30342, Control_c, 0, 7, 72
2, 30344, Control_c, 0, 7, 89
2, 30344, Control_c, 0, 7, 71
2, 30346, Control_c, 0, 7, 70
2, 30348, Control_c, 0, 7, 69
2, 30350, Control_c, 0, 7, 68
2, 30352, Control_c, 0, 7, 67
2, 30354, Control_c, 0, 7, 66
2, 30356, Control_c, 0, 7, 65
2, 30359, Control_c, 0, 7, 88
2, 30359, Control_c, 0, 7, 64
2, 30360, Control_c, 0, 7, 64
2, 30374, Control_c, 0, 7, 87
2, 30389, Control_c, 0, 7, 86
2, 30404, Control_c, 0, 7, 85
2, 30419, Control_c, 0, 7, 84
2, 30434, Control_c, 0, 7, 83
2, 30449, Control_c, 0, 7, 82
2, 30464, Control_c, 0, 7, 81
2, 30479, Control_c, 0, 7, 80
2, 30494, Control_c, 0, 7, 79
2, 30509, Control_c, 0, 7, 78
2, 30524, Control_c, 0, 7, 77
2, 30539, Control_c, 0, 7, 76
2, 30554, Control_c, 0, 7, 75
2, 30569, Control_c, 0, 7, 74
2, 30584, Control_c, 0, 7, 73
2, 30599, Control_c, 0, 7, 72
2, 30614, Control_c, 0, 7, 71
2, 30629, Control_c, 0, 7, 70
2, 30644, Control_c, 0, 7, 69
2, 30659, Control_c, 0, 7, 68
2, 30674, Control_c, 0, 7, 67
2, 30689, Control_c, 0, 7, 66
2, 30704, Control_c, 0, 7, 65
2, 30719, Control_c, 0, 7, 64
2, 31200, Note_on_c, 0, 80, 72
2, 31200, Note_on_c, 0, 76, 72
2, 31200, Control_c, 0, 7, 86
2, 31230, Control_c, 0, 7, 88
2, 31240, Control_c, 0, 7, 89
2, 31250, Control_c, 0, 7, 91
2, 31260, Note_on_c, 0, 76, 0
2, 31260, Note_on_c, 0, 80, 0
2, 31260, Note_on_c, 0, 81, 94
2, 31260, Note_on_c, 0, 78, 94
2, 31280, Control_c, 0, 7, 93
2, 31310, Control_c, 0, 7, 94
2, 31320, Note_on_c, 0, 78, 0
2, 31320, Note_on_c, 0, 81, 0
2, 31320, Note_on_c, 0, 83, 101
2, 31320, Note_on_c, 0, 80, 101
2, 31320, Control_c, 0, 7, 96
2, 31340, Control_c, 0, 7, 97
2, 31360, Control_c, 0, 7, 98
2, 31370, Control_c, 0, 7, 99
2, 31380, Note_on_c, 0, 80, 0
2, 31380, Note_on_c, 0, 83, 0
2, 31380, Note_on_c, 0, 81, 106
2, 31380, Note_on_c, 0, 78, 106
2, 31390, Control_c, 0, 7, 100
2, 31400, Control_c, 0, 7, 101
2, 31430, Control_c, 0, 7, 102
2, 31440, Note_on_c, 0, 78, 0
2, 31440, Note_on_c, 0, 81, 0
2, 31440, Note_on_c, 0, 80, 109
2, 31440, Note_on_c, 0, 76, 109
2, 31500, Note_on_c, 0, 76, 0
2, 31500, Note_on_c, 0, 80, 0
2, 31500, Note_on_c, 0, 78, 103
2, 31500, Note_on_c, 0, 74, 103
2, 31530, Control_c, 0, 7, 101
2, 31550, Control_c, 0, 7, 100
2, 31560, Note_on_c, 0, 74, 0
2, 31560, Note_on_c, 0, 78, 0
2, 31560, Note_on_c, 0, 76, 96
2, 31560, Note_on_c, 0, 73, 96
2, 31570, Control_c, 0, 7, 97
2, 31590, Control_c, 0, 7, 94
2, 31600, Control_c, 0, 7, 90
2, 31610, Control_c, 0, 7, 88
2, 31620, Note_on_c, 0, 73, 0
2, 31620, Note_on_c, 0, 76, 0
2, 31620, Note_on_c, 0, 74, 90
2, 31620, Note_on_c, 0, 71, 90
2, 31630, Control_c, 0, 7, 85
2, 31640, Control_c, 0, 7, 83
2, 31660, Control_c, 0, 7, 81
2, 31670, Control_c, 0, 7, 80
2, 31680, Note_on_c, 0, 71, 0
2, 31680, Note_on_c, 0, 74, 0
2, 31680, Note_on_c, 0, 69, 72
2, 31680, Note_on_c, 0, 73, 72
2, 31680, Control_c, 0, 7, 79
2, 31680, Control_c, 0, 7, 120
2, 31682, Control_c, 0, 7, 119
2, 31684, Control_c, 0, 7, 118
2, 31686, Control_c, 0, 7, 117
2, 31688, Control_c, 0, 7, 116
2, 31690, Control_c, 0, 7, 115
2, 31692, Control_c, 0, 7, 114
2, 31694, Control_c, 0, 7, 113
2, 31697, Control_c, 0, 7, 112
2, 31699, Control_c, 0, 7, 111
2, 31701, Control_c, 0, 7, 110
2, 31703, Control_c, 0, 7, 109
2, 31705, Control_c, 0, 7, 108
2, 31707, Control_c, 0, 7, 107
2, 31709, Control_c, 0, 7, 106
2, 31710, Control_c, 0, 7, 78
2, 31711, Control_c, 0, 7, 105
2, 31714, Control_c, 0, 7, 104
2, 31716, Control_c, 0, 7, 103
2, 31718, Control_c, 0, 7, 102
2, 31720, Control_c, 0, 7, 77
2, 31720, Control_c, 0, 7, 101
2, 31722, Control_c, 0, 7, 100
2, 31724, Control_c, 0, 7, 99
2, 31726, Control_c, 0, 7, 98
2, 31728, Control_c, 0, 7, 97
2, 31731, Control_c, 0, 7, 96
2, 31733, Control_c, 0, 7, 95
2, 31735, Control_c, 0, 7, 94
2, 31737, Control_c, 0, 7, 93
2, 31739, Control_c, 0, 7, 92
2, 31741, Control_c, 0, 7, 91
2, 31743, Control_c, 0, 7, 90
2, 31745, Control_c, 0, 7, 89
2, 31748, Control_c, 0, 7, 88
2, 31750, Control_c, 0, 7, 76
2, 31750, Control_c, 0, 7, 87
2, 31752, Control_c, 0, 7, 86
2, 31754, Control_c, 0, 7, 85
2, 31756, Control_c, 0, 7, 84
2, 31758, Control_c, 0, 7, 83
2, 31760, Control_c, 0, 7, 75
2, 31760, Control_c, 0, 7, 82
2, 31762, Control_c, 0, 7, 81
2, 31765, Control_c, 0, 7, 80
2, 31767, Control_c, 0, 7, 79
2, 31769, Control_c, 0, 7, 78
2, 31771, Control_c, 0, 7, 77
2, 31773, Control_c, 0, 7, 76
2, 31775, Control_c, 0, 7, 75
2, 31776, Note_on_c, 0, 73, 0
2, 31776, Note_on_c, 0, 69, 0
2, 31777, Control_c, 0, 7, 74
2, 31779, Control_c, 0, 7, 73
2, 31782, Control_c, 0, 7, 72
2, 31784, Control_c, 0, 7, 71
2, 31786, Control_c, 0, 7, 70
2, 31788, Control_c, 0, 7, 69
2, 31790, Control_c, 0, 7, 68
2, 31792, Control_c, 0, 7, 67
2, 31794, Control_c, 0, 7, 66
2, 31796, Control_c, 0, 7, 65
2, 31799, Control_c, 0, 7, 64
2, 31800, Control_c, 0, 7, 74
2, 31800, Control_c, 0, 7, 64
2, 33600, Control_c, 0, 7, 96
2, 33600, Control_c, 0, 7, 120
2, 33602, Control_c, 0, 7, 106
2, 33602, Control_c, 0, 7, 119
2, 33604, Control_c, 0, 7, 105
2, 33604, Control_c, 0, 7, 118
2, 33606, Control_c, 0, 7, 104
2, 33606, Control_c, 0, 7, 117
2, 33608, Control_c, 0, 7, 103
2, 33608, Control_c, 0, 7, 116
2, 33610, Control_c, 0, 7, 102
2, 33610, Control_c, 0, 7, 115
2, 33612, Control_c, 0, 7, 101
2, 33612, Control_c, 0, 7, 114
2, 33614, Control_c, 0, 7, 95
2, 33614, Control_c, 0, 7, 100
2, 33614, Control_c, 0, 7, 113
2, 33617, Control_c, 0, 7, 99
2, 33617, Control_c, 0, 7, 112
2, 33619, Control_c, 0, 7, 98
2, 33619, Control_c, 0, 7, 111
2, 33621, Control_c, 0, 7, 97
2, 33621, Control_c, 0, 7, 110
2, 33623, Control_c, 0, 7, 96
2, 33623, Control_c, 0, 7, 109
2, 33625, Control_c, 0, 7, 95
2, 33625, Control_c, 0, 7, 108
2, 33627, Control_c, 0, 7, 94
2, 33627, Control_c, 0, 7, 107
2, 33629, Control_c, 0, 7, 94
2, 33629, Control_c, 0, 7, 93
2, 33629, Control_c, 0, 7, 106
2, 33631, Control_c, 0, 7, 105
2, 33632, Control_c, 0, 7, 92
2, 33634, Control_c, 0, 7, 91
2, 33634, Control_c, 0, 7, 104
2, 33636, Control_c, 0, 7, 90
2, 33636, Control_c, 0, 7, 103
2, 33638, Control_c, 0, 7, 89
2, 33638, Control_c, 0, 7, 102
2, 33640, Control_c, 0, 7, 88
2, 33640, Control_c, 0, 7, 101
2, 33642, Control_c, 0, 7, 87
2, 33642, Control_c, 0, 7, 100
2, 33644, Control_c, 0, 7, 93
2, 33644, Control_c, 0, 7, 86
2, 33644, Control_c, 0, 7, 99
2, 33646, Control_c, 0, 7, 98
2, 33647, Control_c, 0, 7, 85
2, 33648, Control_c, 0, 7, 97
2, 33649, Control_c, 0, 7, 84
2, 33651, Control_c, 0, 7, 83
2, 33651, Control_c, 0, 7, 96
2, 33653, Control_c, 0, 7, 82
2, 33653, Control_c, 0, 7, 95
2, 33655, Control_c, 0, 7, 81
2, 33655, Control_c, 0, 7, 94
2, 33657, Control_c, 0, 7, 80
2, 33657, Control_c, 0, 7, 93
2, 33659, Control_c, 0, 7, 92
2, 33659, Control_c, 0, 7, 79
2, 33659, Control_c, 0, 7, 92
2, 33661, Control_c, 0, 7, 91
2, 33662, Control_c, 0, 7, 78
2, 33663, Control_c, 0, 7, 90
2, 33664, Control_c, 0, 7, 77
2, 33665, Control_c, 0, 7, 89
2, 33666, Control_c, 0, 7, 76
2, 33668, Control_c, 0, 7, 75
2, 33668, Control_c, 0, 7, 88
2, 33670, Control_c, 0, 7, 74
2, 33670, Control_c, 0, 7, 87
2, 33672, Control_c, 0, 7, 73
2, 33672, Control_c, 0, 7, 86
2, 33674, Control_c, 0, 7, 91
2, 33674, Control_c, 0, 7, 72
2, 33674, Control_c, 0, 7, 85
2, 33676, Control_c, 0, 7, 84
2, 33677, Control_c, 0, 7, 71
2, 33678, Control_c, 0, 7, 83
2, 33679, Control_c, 0, 7, 70
2, 33680, Control_c, 0, 7, 82
2, 33681, Control_c, 0, 7, 69
2, 33682, Control_c, 0, 7, 81
2, 33683, Control_c, 0, 7, 68
2, 33685, Control_c, 0, 7, 67
2, 33685, Control_c, 0, 7, 80
2, 33687, Control_c, 0, 7, 66
2, 33687, Control_c, 0, 7, 79
2, 33689, Control_c, 0, 7, 90
2, 33689, Control_c, 0, 7, 65
2, 33689, Control_c, 0, 7, 78
2, 33691, Control_c, 0, 7, 77
2, 33692, Control_c, 0, 7, 64
2, 33693, Control_c, 0, 7, 76
2, 33695, Control_c, 0, 7, 75
2, 33697, Control_c, 0, 7, 74
2, 33699, Control_c, 0, 7, 73
2, 33702, Control_c, 0, 7, 72
2, 33704, Control_c, 0, 7, 89
2, 33704, Control_c, 0, 7, 71
2, 33706, Control_c, 0, 7, 70
2, 33708, Control_c, 0, 7, 69
2, 33710, Control_c, 0, 7, 68
2, 33712, Control_c, 0, 7, 67
2, 33714, Control_c, 0, 7, 66
2, 33716, Control_c, 0, 7, 65
2, 33719, Control_c, 0, 7, 88
2, 33719, Control_c, 0, 7, 64
2, 33720, Control_c, 0, 7, 64
2, 33734, Control_c, 0, 7, 87
2, 33749, Control_c, 0, 7, 86
2, 33764, Control_c, 0, 7, 85
2, 33779, Control_c, 0, 7, 84
2, 33794, Control_c, 0, 7, 83
2, 33809, Control_c, 0, 7, 82
2, 33824, Control_c, 0, 7, 81
2, 33839, Control_c, 0, 7, 80
2, 33854, Control_c, 0, 7, 79
2, 33869, Control_c, 0, 7, 78
2, 33884, Control_c, 0, 7, 77
2, 33899, Control_c, 0, 7, 76
2, 33914, Control_c, 0, 7, 75
2, 33929, Control_c, 0, 7, 74
2, 33944, Control_c, 0, 7, 73
2, 33959, Control_c, 0, 7, 72
2, 33974, Control_c, 0, 7, 71
2, 33989, Control_c, 0, 7, 70
2, 34004, Control_c, 0, 7, 69
2, 34019, Control_c, 0, 7, 68
2, 34034, Control_c, 0, 7, 67
2, 34049, Control_c, 0, 7, 66
2, 34053, Control_c, 0, 7, 115
2, 34055, Control_c, 0, 7, 114
2, 34058, Control_c, 0, 7, 113
2, 34060, Control_c, 0, 7, 112
2, 34062, Control_c, 0, 7, 111
2, 34064, Control_c, 0, 7, 65
2, 34064, Control_c, 0, 7, 110
2, 34066, Control_c, 0, 7, 109
2, 34068, Control_c, 0, 7, 108
2, 34070, Control_c, 0, 7, 107
2, 34073, Control_c, 0, 7, 106
2, 34075, Control_c, 0, 7, 105
2, 34077, Control_c, 0, 7, 104
2, 34079, Control_c, 0, 7, 64
2, 34079, Control_c, 0, 7, 103
2, 34080, Control_c, 0, 7, 96
2, 34080, Control_c, 0, 7, 120
2, 34081, Control_c, 0, 7, 102
2, 34082, Control_c, 0, 7, 119
2, 34083, Control_c, 0, 7, 101
2, 34084, Control_c, 0, 7, 118
2, 34085, Control_c, 0, 7, 100
2, 34086, Control_c, 0, 7, 117
2, 34088, Control_c, 0, 7, 99
2, 34088, Control_c, 0, 7, 116
2, 34090, Control_c, 0, 7, 98
2, 34090, Control_c, 0, 7, 115
2, 34092, Control_c, 0, 7, 97
2, 34092, Control_c, 0, 7, 114
2, 34094, Control_c, 0, 7, 95
2, 34094, Control_c, 0, 7, 96
2, 34094, Control_c, 0, 7, 113
2, 34096, Control_c, 0, 7, 95
2, 34097, Control_c, 0, 7, 112
2, 34098, Control_c, 0, 7, 94
2, 34099, Control_c, 0, 7, 111
2, 34100, Control_c, 0, 7, 93
2, 34101, Control_c, 0, 7, 110
2, 34103, Control_c, 0, 7, 92
2, 34103, Control_c, 0, 7, 109
2, 34105, Control_c, 0, 7, 91
2, 34105, Control_c, 0, 7, 108
2, 34107, Control_c, 0, 7, 90
2, 34107, Control_c, 0, 7, 107
2, 34109, Control_c, 0, 7, 94
2, 34109, Control_c, 0, 7, 89
2, 34109, Control_c, 0, 7, 106
2, 34111, Control_c, 0, 7, 88
2, 34111, Control_c, 0, 7, 105
2, 34113, Control_c, 0, 7, 87
2, 34114, Control_c, 0, 7, 104
2, 34115, Control_c, 0, 7, 86
2, 34116, Control_c, 0, 7, 103
2, 34118, Control_c, 0, 7, 85
2, 34118, Control_c, 0, 7, 102
2, 34120, Control_c, 0, 7, 84
2, 34120, Control_c, 0, 7, 101
2, 34122, Control_c, 0, 7, 83
2, 34122, Control_c, 0, 7, 100
2, 34124, Control_c, 0, 7, 93
2, 34124, Control_c, 0, 7, 82
2, 34124, Control_c, 0, 7, 99
2, 34126, Control_c, 0, 7, 81
2, 34126, Control_c, 0, 7, 98
2, 34128, Control_c, 0, 7, 80
2, 34128, Control_c, 0, 7, 97
2, 34130, Control_c, 0, 7, 79
2, 34131, Control_c, 0, 7, 96
2, 34133, Control_c, 0, 7, 78
2, 34133, Control_c, 0, 7, 95
2, 34135, Control_c, 0, 7, 77
2, 34135, Control_c, 0, 7, 94
2, 34137, Control_c, 0, 7, 76
2, 34137, Control_c, 0, 7, 93
2, 34139, Control_c, 0, 7, 92
2, 34139, Control_c, 0, 7, 75
2, 34139, Control_c, 0, 7, 92
2, 34141, Control_c, 0, 7, 74
2, 34141, Control_c, 0, 7, 91
2, 34143, Control_c, 0, 7, 73
2, 34143, Control_c, 0, 7, 90
2, 34145, Control_c, 0, 7, 72
2, 34145, Control_c, 0, 7, 89
2, 34148, Control_c, 0, 7, 71
2, 34148, Control_c, 0, 7, 88
2, 34150, Control_c, 0, 7, 70
2, 34150, Control_c, 0, 7, 87
2, 34152, Control_c, 0, 7, 69
2, 34152, Control_c, 0, 7, 86
2, 34154, Control_c, 0, 7, 91
2, 34154, Control_c, 0, 7, 68
2, 34154, Control_c, 0, 7, 85
2, 34156, Control_c, 0, 7, 67
2, 34156, Control_c, 0, 7, 84
2, 34158, Control_c, 0, 7, 66
2, 34158, Control_c, 0, 7, 83
2, 34160, Control_c, 0, 7, 65
2, 34160, Control_c, 0, 7, 82
2, 34162, Control_c, 0, 7, 81
2, 34163, Control_c, 0, 7, 64
2, 34165, Control_c, 0, 7, 80
2, 34167, Control_c, 0, 7, 79
2, 34169, Control_c, 0, 7, 90
2, 34169, Control_c, 0, 7, 78
2, 34171, Control_c, 0, 7, 77
2, 34173, Control_c, 0, 7, 76
2, 34175, Control_c, 0, 7, 75
2, 34177, Control_c, 0, 7, 74
2, 34179, Control_c, 0, 7, 73
2, 34182, Control_c, 0, 7, 72
2, 34184, Control_c, 0, 7, 89
2, 34184, Control_c, 0, 7, 71
2, 34186, Control_c, 0, 7, 70
2, 34188, Control_c, 0, 7, 69
2, 34190, Control_c, 0, 7, 68
2, 34192, Control_c, 0, 7, 67
2, 34194, Control_c, 0, 7, 66
2, 34196, Control_c, 0, 7, 65
2, 34199, Control_c, 0, 7, 88
2, 34199, Control_c, 0, 7, 64
2, 34200, Control_c, 0, 7, 64
2, 34214, Control_c, 0, 7, 87
2, 34229, Control_c, 0, 7, 86
2, 34244, Control_c, 0, 7, 85
2, 34259, Control_c, 0, 7, 84
2, 34274, Control_c, 0, 7, 83
2, 34289, Control_c, 0, 7, 82
2, 34304, Control_c, 0, 7, 81
2, 34319, Control_c, 0, 7, 80
2, 34334, Control_c, 0, 7, 79
2, 34349, Control_c, 0, 7, 78
2, 34364, Control_c, 0, 7, 77
2, 34379, Control_c, 0, 7, 76
2, 34394, Control_c, 0, 7, 75
2, 34409, Control_c, 0, 7, 74
2, 34424, Control_c, 0, 7, 73
2, 34439, Control_c, 0, 7, 72
2, 34454, Control_c, 0, 7, 71
2, 34469, Control_c, 0, 7, 70
2, 34484, Control_c, 0, 7, 69
2, 34499, Control_c, 0, 7, 68
2, 34514, Control_c, 0, 7, 67
2, 34529, Control_c, 0, 7, 66
2, 34544, Control_c, 0, 7, 65
2, 34559, Control_c, 0, 7, 64
2, 35040, Note_on_c, 0, 80, 72
2, 35040, Note_on_c, 0, 76, 72
2, 35040, Control_c, 0, 7, 86
2, 35070, Control_c, 0, 7, 88
2, 35080, Control_c, 0, 7, 89
2, 35090, Control_c, 0, 7, 91
2, 35100, Note_on_c, 0, 76, 0
2, 35100, Note_on_c, 0, 80, 0
2, 35100, Note_on_c, 0, 81, 94
2, 35100, Note_on_c, 0, 78, 94
2, 35120, Control_c, 0, 7, 93
2, 35150, Control_c, 0, 7, 94
2, 35160, Note_on_c, 0, 78, 0
2, 35160, Note_on_c, 0, 81, 0
2, 35160, Note_on_c, 0, 83, 101
2, 35160, Note_on_c, 0, 80, 101
2, 35160, Control_c, 0, 7, 96
2, 35180, Control_c, 0, 7, 97
2, 35200, Control_c, 0, 7, 98
2, 35210, Control_c, 0, 7, 99
2, 35220, Note_on_c, 0, 80, 0
2, 35220, Note_on_c, 0, 83, 0
2, 35220, Note_on_c, 0, 81, 106
2, 35220, Note_on_c, 0, 78, 106
2, 35230, Control_c, 0, 7, 100
2, 35240, Control_c, 0, 7, 101
2, 35270, Control_c, 0, 7, 102
2, 35280, Note_on_c, 0, 78, 0
2, 35280, Note_on_c, 0, 81, 0
2, 35280, Note_on_c, 0, 80, 109
2, 35280, Note_on_c, 0, 76, 109
2, 35340, Note_on_c, 0, 76, 0
2, 35340, Note_on_c, 0, 80, 0
2, 35340, Note_on_c, 0, 78, 103
2, 35340, Note_on_c, 0, 74, 103
2, 35370, Control_c, 0, 7, 101
2, 35390, Control_c, 0, 7, 100
2, 35400, Note_on_c, 0, 74, 0
2, 35400, Note_on_c, 0, 78, 0
2, 35400, Note_on_c, 0, 76, 96
2, 35400, Note_on_c, 0, 73, 96
2, 35410, Control_c, 0, 7, 97
2, 35430, Control_c, 0, 7, 94
2, 35440, Control_c, 0, 7, 90
2, 35450, Control_c, 0, 7, 88
2, 35460, Note_on_c, 0, 73, 0
2, 35460, Note_on_c, 0, 76, 0
2, 35460, Note_on_c, 0, 74, 90
2, 35460, Note_on_c, 0, 71, 90
2, 35470, Control_c, 0, 7, 85
2, 35480, Control_c, 0, 7, 83
2, 35500, Control_c, 0, 7, 81
2, 35510, Control_c, 0, 7, 80
2, 35520, Note_on_c, 0, 71, 0
2, 35520, Note_on_c, 0, 74, 0
2, 35520, Note_on_c, 0, 69, 72
2, 35520, Note_on_c, 0, 73, 72
2, 35520, Control_c, 0, 7, 79
2, 35520, Control_c, 0, 7, 120
2, 35522, Control_c, 0, 7, 119
2, 35524, Control_c, 0, 7, 118
2, 35526, Control_c, 0, 7, 117
2, 35528, Control_c, 0, 7, 116
2, 35530, Control_c, 0, 7, 115
2, 35532, Control_c, 0, 7, 114
2, 35534, Control_c, 0, 7, 113
2, 35537, Control_c, 0, 7, 112
2, 35539, Control_c, 0, 7, 111
2, 35541, Control_c, 0, 7, 110
2, 35543, Control_c, 0, 7, 109
2, 35545, Control_c, 0, 7, 108
2, 35547, Control_c, 0, 7, 107
2, 35549, Control_c, 0, 7, 106
2, 35550, Control_c, 0, 7, 78
2, 35551, Control_c, 0, 7, 105
2, 35554, Control_c, 0, 7, 104
2, 35556, Control_c, 0, 7, 103
2, 35558, Control_c, 0, 7, 102
2, 35560, Control_c, 0, 7, 77
2, 35560, Control_c, 0, 7, 101
2, 35562, Control_c, 0, 7, 100
2, 35564, Control_c, 0, 7, 99
2, 35566, Control_c, 0, 7, 98
2, 35568, Control_c, 0, 7, 97
2, 35571, Control_c, 0, 7, 96
2, 35573, Control_c, 0, 7, 95
2, 35575, Control_c, 0, 7, 94
2, 35577, Control_c, 0, 7, 93
2, 35579, Control_c, 0, 7, 92
2, 35581, Control_c, 0, 7, 91
2, 35583, Control_c, 0, 7, 90
2, 35585, Control_c, 0, 7, 89
2, 35588, Control_c, 0, 7, 88
2, 35590, Control_c, 0, 7, 76
2, 35590, Control_c, 0, 7, 87
2, 35592, Control_c, 0, 7, 86
2, 35594, Control_c, 0, 7, 85
2, 35596, Control_c, 0, 7, 84
2, 35598, Control_c, 0, 7, 83
2, 35600, Control_c, 0, 7, 75
2, 35600, Control_c, 0, 7, 82
2, 35602, Control_c, 0, 7, 81
2, 35605, Control_c, 0, 7, 80
2, 35607, Control_c, 0, 7, 79
2, 35609, Control_c, 0, 7, 78
2, 35611, Control_c, 0, 7, 77
2, 35613, Control_c, 0, 7, 76
2, 35615, Control_c, 0, 7, 75
2, 35616, Note_on_c, 0, 73, 0
2, 35616, Note_on_c, 0, 69, 0
2, 35617, Control_c, 0, 7, 74
2, 35619, Control_c, 0, 7, 73
2, 35622, Control_c, 0, 7, 72
2, 35624, Control_c, 0, 7, 71
2, 35626, Control_c, 0, 7, 70
2, 35628, Control_c, 0, 7, 69
2, 35630, Control_c, 0, 7, 68
2, 35632, Control_c, 0, 7, 67
2, 35634, Control_c, 0, 7, 66
2, 35636, Control_c, 0, 7, 65
2, 35639, Control_c, 0, 7, 64
2, 35640, Control_c, 0, 7, 106
2, 35710, Control_c, 0, 7, 108
2, 35720, Control_c, 0, 7, 109
2, 35760, Note_on_c, 0, 85, 115
2, 35760, Note_on_c, 0, 90, 115
2, 35856, Note_on_c, 0, 90, 0
2, 35856, Note_on_c, 0, 85, 0
2, 36720, Note_on_c, 0, 88, 72
2, 36720, Note_on_c, 0, 83, 72
2, 36816, Note_on_c, 0, 83, 0
2, 36816, Note_on_c, 0, 88, 0
2, 37680, Note_on_c, 0, 81, 72
2, 37680, Note_on_c, 0, 86, 72
2, 37776, Note_on_c, 0, 86, 0
2, 37776, Note_on_c, 0, 81, 0
2, 38400, Note_on_c, 0, 80, 72
2, 38400, Note_on_c, 0, 74, 72
2, 38400, Control_c, 0, 7, 96
2, 38880, Note_on_c, 0, 74, 0
2, 38880, Note_on_c, 0, 80, 0
2, 38880, Note_on_c, 0, 81, 81
2, 38880, Note_on_c, 0, 73, 81
2, 39360, Note_on_c, 0, 73, 0
2, 39360, Note_on_c, 0, 81, 0
2, 39360, Note_on_c, 0, 83, 91
2, 39360, Note_on_c, 0, 80, 91
2, 39360, Control_c, 0, 7, 95
2, 39450, Control_c, 0, 7, 96
2, 39510, Control_c, 0, 7, 98
2, 39660, Control_c, 0, 7, 100
2, 39820, Control_c, 0, 7, 102
2, 39840, Note_on_c, 0, 80, 0
2, 39840, Note_on_c, 0, 83, 0
2, 39840, Note_on_c, 0, 85, 96
2, 39840, Note_on_c, 0, 81, 96
2, 39940, Control_c, 0, 7, 103
2, 40000, Control_c, 0, 7, 104
2, 40080, Note_on_c, 0, 81, 0
2, 40080, Note_on_c, 0, 85, 0
2, 40080, Note_on_c, 0, 86, 107
2, 40080, Note_on_c, 0, 83, 107
2, 40160, Control_c, 0, 7, 106
2, 40320, Note_on_c, 0, 83, 0
2, 40320, Note_on_c, 0, 86, 0
2, 40320, Note_on_c, 0, 85, 113
2, 40320, Note_on_c, 0, 81, 113
2, 40320, Control_c, 0, 7, 107
2, 40440, Control_c, 0, 7, 108
2, 40560, Control_c, 0, 7, 109
2, 40690, Control_c, 0, 7, 113
2, 40780, Control_c, 0, 7, 112
2, 40810, Control_c, 0, 7, 111
2, 40870, Control_c, 0, 7, 110
2, 40950, Control_c, 0, 7, 109
2, 41030, Control_c, 0, 7, 108
2, 41130, Control_c, 0, 7, 107
2, 41310, Control_c, 0, 7, 106
2, 41430, Control_c, 0, 7, 105
2, 41530, Control_c, 0, 7, 103
2, 41610, Control_c, 0, 7, 102
2, 41690, Control_c, 0, 7, 101
2, 41790, Control_c, 0, 7, 100
2, 41890, Control_c, 0, 7, 99
2, 42030, Control_c, 0, 7, 97
2, 42150, Control_c, 0, 7, 96
2, 42230, Control_c, 0, 7, 95
2, 42330, Control_c, 0, 7, 94
2, 42430, Control_c, 0, 7, 92
2, 42570, Control_c, 0, 7, 90
2, 42710, Control_c, 0, 7, 89
2, 42830, Control_c, 0, 7, 87
2, 42910, Control_c, 0, 7, 86
2, 43010, Control_c, 0, 7, 85
2, 43150, Control_c, 0, 7, 84
2, 43200, Note_on_c, 0, 85, 0
2, 43200, Note_on_c, 0, 84, 111
2, 43200, Control_c, 0, 7, 119
2, 43210, Control_c, 0, 7, 118
2, 43240, Control_c, 0, 7, 117
2, 43270, Control_c, 0, 7, 116
2, 43340, Control_c, 0, 7, 114
2, 43420, Control_c, 0, 7, 112
2, 43480, Control_c, 0, 7, 111
2, 43490, Control_c, 0, 7, 110
2, 43510, Control_c, 0, 7, 109
2, 43530, Control_c, 0, 7, 108
2, 43590, Control_c, 0, 7, 107
2, 43600, Control_c, 0, 7, 106
2, 43640, Control_c, 0, 7, 105
2, 43680, Note_on_c, 0, 84, 0
2, 43680, Note_on_c, 0, 83, 114
2, 43720, Control_c, 0, 7, 103
2, 43780, Control_c, 0, 7, 102
2, 43820, Control_c, 0, 7, 101
2, 43880, Control_c, 0, 7, 100
2, 43920, Note_on_c, 0, 81, 0
2, 43920, Note_on_c, 0, 80, 110
2, 43940, Control_c, 0, 7, 99
2, 43960, Control_c, 0, 7, 98
2, 43980, Control_c, 0, 7, 97
2, 44000, Control_c, 0, 7, 96
2, 44060, Control_c, 0, 7, 95
2, 44064, Note_on_c, 0, 83, 0
2, 44112, Note_on_c, 0, 80, 0
2, 44120, Control_c, 0, 7, 94
2, 44160, Note_on_c, 0, 88, 106
2, 44160, Note_on_c, 0, 85, 106
2, 44190, Control_c, 0, 7, 93
2, 44250, Control_c, 0, 7, 92
2, 44330, Control_c, 0, 7, 91
2, 44352, Note_on_c, 0, 85, 0
2, 44352, Note_on_c, 0, 88, 0
2, 44390, Control_c, 0, 7, 89
2, 44400, Note_on_c, 0, 86, 100
2, 44400, Note_on_c, 0, 83, 100
2, 44470, Control_c, 0, 7, 88
2, 44490, Control_c, 0, 7, 87
2, 44520, Control_c, 0, 7, 86
2, 44580, Control_c, 0, 7, 85
2, 44592, Note_on_c, 0, 83, 0
2, 44592, Note_on_c, 0, 86, 0
2, 44640, Note_on_c, 0, 85, 95
2, 44640, Note_on_c, 0, 81, 95
2, 44660, Control_c, 0, 7, 83
2, 44720, Control_c, 0, 7, 82
2, 44780, Control_c, 0, 7, 81
2, 44800, Control_c, 0, 7, 80
2, 44810, Control_c, 0, 7, 79
2, 44832, Note_on_c, 0, 81, 0
2, 44832, Note_on_c, 0, 85, 0
2, 44870, Control_c, 0, 7, 78
2, 44880, Note_on_c, 0, 83, 87
2, 44880, Note_on_c, 0, 80, 87
2, 44930, Control_c, 0, 7, 77
2, 44950, Control_c, 0, 7, 76
2, 45020, Control_c, 0, 7, 75
2, 45072, Note_on_c, 0, 80, 0
2, 45072, Note_on_c, 0, 83, 0
2, 45090, Control_c, 0, 7, 74
2, 45120, Note_on_c, 0, 81, 75
2, 45120, Note_on_c, 0, 81, 75
2, 45130, Control_c, 0, 7, 73
2, 45170, Control_c, 0, 7, 71
2, 45210, Control_c, 0, 7, 70
2, 45216, Note_on_c, 0, 81, 0
2, 45216, Note_on_c, 0, 81, 0
2, 45270, Control_c, 0, 7, 69
2, 45740, Control_c, 0, 7, 67
2, 46200, Control_c, 0, 7, 96
2, 46200, Control_c, 0, 7, 96
2, 46207, Control_c, 0, 7, 95
2, 46207, Control_c, 0, 7, 95
2, 46214, Control_c, 0, 7, 94
2, 46214, Control_c, 0, 7, 94
2, 46222, Control_c, 0, 7, 93
2, 46222, Control_c, 0, 7, 93
2, 46229, Control_c, 0, 7, 92
2, 46229, Control_c, 0, 7, 92
2, 46237, Control_c, 0, 7, 91
2, 46237, Control_c, 0, 7, 91
2, 46244, Control_c, 0, 7, 90
2, 46244, Control_c, 0, 7, 90
2, 46252, Control_c, 0, 7, 89
2, 46252, Control_c, 0, 7, 89
2, 46259, Control_c, 0, 7, 88
2, 46259, Control_c, 0, 7, 88
2, 46267, Control_c, 0, 7, 87
2, 46267, Control_c, 0, 7, 87
2, 46274, Control_c, 0, 7, 86
2, 46274, Control_c, 0, 7, 86
2, 46282, Control_c, 0, 7, 85
2, 46282, Control_c, 0, 7, 85
2, 46289, Control_c, 0, 7, 84
2, 46289, Control_c, 0, 7, 84
2, 46297, Control_c, 0, 7, 83
2, 46297, Control_c, 0, 7, 83
2, 46304, Control_c, 0, 7, 82
2, 46304, Control_c, 0, 7, 82
2, 46312, Control_c, 0, 7, 81
2, 46312, Control_c, 0, 7, 81
2, 46319, Control_c, 0, 7, 80
2, 46319, Control_c, 0, 7, 80
2, 46326, Control_c, 0, 7, 79
2, 46326, Control_c, 0, 7, 79
2, 46334, Control_c, 0, 7, 78
2, 46334, Control_c, 0, 7, 78
2, 46341, Control_c, 0, 7, 77
2, 46341, Control_c, 0, 7, 77
2, 46349, Control_c, 0, 7, 76
2, 46349, Control_c, 0, 7, 76
2, 46356, Control_c, 0, 7, 75
2, 46356, Control_c, 0, 7, 75
2, 46364, Control_c, 0, 7, 74
2, 46364, Control_c, 0, 7, 74
2, 46371, Control_c, 0, 7, 73
2, 46371, Control_c, 0, 7, 73
2, 46379, Control_c, 0, 7, 72
2, 46379, Control_c, 0, 7, 72
2, 46386, Control_c, 0, 7, 71
2, 46386, Control_c, 0, 7, 71
2, 46394, Control_c, 0, 7, 70
2, 46394, Control_c, 0, 7, 70
2, 46401, Control_c, 0, 7, 69
2, 46401, Control_c, 0, 7, 69
2, 46409, Control_c, 0, 7, 68
2, 46409, Control_c, 0, 7, 68
2, 46416, Control_c, 0, 7, 67
2, 46416, Control_c, 0, 7, 67
2, 46424, Control_c, 0, 7, 66
2, 46424, Control_c, 0, 7, 66
2, 46431, Control_c, 0, 7, 65
2, 46431, Control_c, 0, 7, 65
2, 46439, Control_c, 0, 7, 64
2, 46439, Control_c, 0, 7, 64
2, 47160, Control_c, 0, 7, 96
2, 47160, Control_c, 0, 7, 96
2, 47160, Note_on_c, 0, 83, 72
2, 47160, Note_on_c, 0, 86, 72
2, 47167, Control_c, 0, 7, 95
2, 47167, Control_c, 0, 7, 95
2, 47175, Control_c, 0, 7, 94
2, 47175, Control_c, 0, 7, 94
2, 47182, Control_c, 0, 7, 93
2, 47182, Control_c, 0, 7, 93
2, 47190, Control_c, 0, 7, 92
2, 47190, Control_c, 0, 7, 92
2, 47197, Control_c, 0, 7, 91
2, 47197, Control_c, 0, 7, 91
2, 47205, Control_c, 0, 7, 90
2, 47205, Control_c, 0, 7, 90
2, 47212, Control_c, 0, 7, 89
2, 47212, Control_c, 0, 7, 89
2, 47220, Control_c, 0, 7, 88
2, 47220, Control_c, 0, 7, 88
2, 47227, Control_c, 0, 7, 87
2, 47227, Control_c, 0, 7, 87
2, 47235, Control_c, 0, 7, 86
2, 47235, Control_c, 0, 7, 86
2, 47242, Control_c, 0, 7, 85
2, 47242, Control_c, 0, 7, 85
2, 47250, Control_c, 0, 7, 84
2, 47250, Control_c, 0, 7, 84
2, 47257, Control_c, 0, 7, 83
2, 47257, Control_c, 0, 7, 83
2, 47265, Control_c, 0, 7, 82
2, 47265, Control_c, 0, 7, 82
2, 47272, Control_c, 0, 7, 81
2, 47272, Control_c, 0, 7, 81
2, 47280, Note_on_c, 0, 86, 0
2, 47280, Note_on_c, 0, 83, 0
2, 47280, Control_c, 0, 7, 80
2, 47280, Control_c, 0, 7, 80
2, 47280, Note_on_c, 0, 85, 72
2, 47280, Note_on_c, 0, 81, 72
2, 47287, Control_c, 0, 7, 79
2, 47287, Control_c, 0, 7, 79
2, 47295, Control_c, 0, 7, 78
2, 47295, Control_c, 0, 7, 78
2, 47302, Control_c, 0, 7, 77
2, 47302, Control_c, 0, 7, 77
2, 47310, Control_c, 0, 7, 76
2, 47310, Control_c, 0, 7, 76
2, 47317, Control_c, 0, 7, 75
2, 47317, Control_c, 0, 7, 75
2, 47325, Control_c, 0, 7, 74
2, 47325, Control_c, 0, 7, 74
2, 47332, Control_c, 0, 7, 73
2, 47332, Control_c, 0, 7, 73
2, 47340, Control_c, 0, 7, 72
2, 47340, Control_c, 0, 7, 72
2, 47347, Control_c, 0, 7, 71
2, 47347, Control_c, 0, 7, 71
2, 47355, Control_c, 0, 7, 70
2, 47355, Control_c, 0, 7, 70
2, 47362, Control_c, 0, 7, 69
2, 47362, Control_c, 0, 7, 69
2, 47370, Control_c, 0, 7, 68
2, 47370, Control_c, 0, 7, 68
2, 47376, Note_on_c, 0, 81, 0
2, 47376, Note_on_c, 0, 85, 0
2, 47377, Control_c, 0, 7, 67
2, 47377, Control_c, 0, 7, 67
2, 47385, Control_c, 0, 7, 66
2, 47385, Control_c, 0, 7, 66
2, 47392, Control_c, 0, 7, 65
2, 47392, Control_c, 0, 7, 65
2, 47400, Control_c, 0, 7, 64
2, 47400, Control_c, 0, 7, 64
2, 51840, Control_c, 0, 7, 64
2, 51840, Control_c, 0, 7, 64
2, 51869, Control_c, 0, 7, 65
2, 51869, Control_c, 0, 7, 65
2, 51899, Control_c, 0, 7, 66
2, 51899, Control_c, 0, 7, 66
2, 51929, Control_c, 0, 7, 67
2, 51929, Control_c, 0, 7, 67
2, 51959, Control_c, 0, 7, 68
2, 51959, Control_c, 0, 7, 68
2, 51989, Control_c, 0, 7, 69
2, 51989, Control_c, 0, 7, 69
2, 52019, Control_c, 0, 7, 70
2, 52019, Control_c, 0, 7, 70
2, 52049, Control_c, 0, 7, 71
2, 52049, Control_c, 0, 7, 71
2, 52079, Control_c, 0, 7, 72
2, 52079, Control_c, 0, 7, 72
2, 52109, Control_c, 0, 7, 73
2, 52109, Control_c, 0, 7, 73
2, 52139, Control_c, 0, 7, 74
2, 52139, Control_c, 0, 7, 74
2, 52169, Control_c, 0, 7, 75
2, 52169, Control_c, 0, 7, 75
2, 52199, Control_c, 0, 7, 76
2, 52199, Control_c, 0, 7, 76
2, 52229, Control_c, 0, 7, 77
2, 52229, Control_c, 0, 7, 77
2, 52259, Control_c, 0, 7, 78
2, 52259, Control_c, 0, 7, 78
2, 52289, Control_c, 0, 7, 79
2, 52289, Control_c, 0, 7, 79
2, 52319, Control_c, 0, 7, 80
2, 52319, Control_c, 0, 7, 80
2, 52349, Control_c, 0, 7, 81
2, 52349, Control_c, 0, 7, 81
2, 52379, Control_c, 0, 7, 82
2, 52379, Control_c, 0, 7, 82
2, 52409, Control_c, 0, 7, 83
2, 52409, Control_c, 0, 7, 83
2, 52439, Control_c, 0, 7, 84
2, 52439, Control_c, 0, 7, 84
2, 52469, Control_c, 0, 7, 85
2, 52469, Control_c, 0, 7, 85
2, 52499, Control_c, 0, 7, 86
2, 52499, Control_c, 0, 7, 86
2, 52529, Control_c, 0, 7, 87
2, 52529, Control_c, 0, 7, 87
2, 52559, Control_c, 0, 7, 88
2, 52559, Control_c, 0, 7, 88
2, 52589, Control_c, 0, 7, 89
2, 52589, Control_c, 0, 7, 89
2, 52619, Control_c, 0, 7, 90
2, 52619, Control_c, 0, 7, 90
2, 52649, Control_c, 0, 7, 91
2, 52649, Control_c, 0, 7, 91
2, 52679, Control_c, 0, 7, 92
2, 52679, Control_c, 0, 7, 92
2, 52709, Control_c, 0, 7, 93
2, 52709, Control_c, 0, 7, 93
2, 52739, Control_c, 0, 7, 94
2, 52739, Control_c, 0, 7, 94
2, 52769, Control_c, 0, 7, 95
2, 52769, Control_c, 0, 7, 95
2, 52799, Control_c, 0, 7, 96
2, 52799, Control_c, 0, 7, 96
2, 52800, Control_c, 0, 7, 96
2, 52800, Control_c, 0, 7, 96
2, 52814, Control_c, 0, 7, 95
2, 52814, Control_c, 0, 7, 95
2, 52829, Control_c, 0, 7, 94
2, 52829, Control_c, 0, 7, 94
2, 52844, Control_c, 0, 7, 93
2, 52844, Control_c, 0, 7, 93
2, 52859, Control_c, 0, 7, 92
2, 52859, Control_c, 0, 7, 92
2, 52874, Control_c, 0, 7, 91
2, 52874, Control_c, 0, 7, 91
2, 52889, Control_c, 0, 7, 90
2, 52889, Control_c, 0, 7, 90
2, 52904, Control_c, 0, 7, 89
2, 52904, Control_c, 0, 7, 89
2, 52919, Control_c, 0, 7, 88
2, 52919, Control_c, 0, 7, 88
2, 52934, Control_c, 0, 7, 87
2, 52934, Control_c, 0, 7, 87
2, 52949, Control_c, 0, 7, 86
2, 52949, Control_c, 0, 7, 86
2, 52964, Control_c, 0, 7, 85
2, 52964, Control_c, 0, 7, 85
2, 52979, Control_c, 0, 7, 84
2, 52979, Control_c, 0, 7, 84
2, 52994, Control_c, 0, 7, 83
2, 52994, Control_c, 0, 7, 83
2, 53009, Control_c, 0, 7, 82
2, 53009, Control_c, 0, 7, 82
2, 53024, Control_c, 0, 7, 81
2, 53024, Control_c, 0, 7, 81
2, 53039, Control_c, 0, 7, 80
2, 53039, Control_c, 0, 7, 80
2, 53054, Control_c, 0, 7, 79
2, 53054, Control_c, 0, 7, 79
2, 53069, Control_c, 0, 7, 78
2, 53069, Control_c, 0, 7, 78
2, 53084, Control_c, 0, 7, 77
2, 53084, Control_c, 0, 7, 77
2, 53099, Control_c, 0, 7, 76
2, 53099, Control_c, 0, 7, 76
2, 53114, Control_c, 0, 7, 75
2, 53114, Control_c, 0, 7, 75
2, 53129, Control_c, 0, 7, 74
2, 53129, Control_c, 0, 7, 74
2, 53144, Control_c, 0, 7, 73
2, 53144, Control_c, 0, 7, 73
2, 53159, Control_c, 0, 7, 72
2, 53159, Control_c, 0, 7, 72
2, 53174, Control_c, 0, 7, 71
2, 53174, Control_c, 0, 7, 71
2, 53189, Control_c, 0, 7, 70
2, 53189, Control_c, 0, 7, 70
2, 53204, Control_c, 0, 7, 69
2, 53204, Control_c, 0, 7, 69
2, 53219, Control_c, 0, 7, 68
2, 53219, Control_c, 0, 7, 68
2, 53234, Control_c, 0, 7, 67
2, 53234, Control_c, 0, 7, 67
2, 53249, Control_c, 0, 7, 66
2, 53249, Control_c, 0, 7, 66
2, 53264, Control_c, 0, 7, 65
2, 53264, Control_c, 0, 7, 65
2, 53279, Control_c, 0, 7, 64
2, 53279, Control_c, 0, 7, 64
2, 53760, Control_c, 0, 7, 64
2, 53760, Control_c, 0, 7, 64
2, 53789, Control_c, 0, 7, 65
2, 53789, Control_c, 0, 7, 65
2, 53819, Control_c, 0, 7, 66
2, 53819, Control_c, 0, 7, 66
2, 53849, Control_c, 0, 7, 67
2, 53849, Control_c, 0, 7, 67
2, 53879, Control_c, 0, 7, 68
2, 53879, Control_c, 0, 7, 68
2, 53909, Control_c, 0, 7, 69
2, 53909, Control_c, 0, 7, 69
2, 53939, Control_c, 0, 7, 70
2, 53939, Control_c, 0, 7, 70
2, 53969, Control_c, 0, 7, 71
2, 53969, Control_c, 0, 7, 71
2, 53999, Control_c, 0, 7, 72
2, 53999, Control_c, 0, 7, 72
2, 54029, Control_c, 0, 7, 73
2, 54029, Control_c, 0, 7, 73
2, 54059, Control_c, 0, 7, 74
2, 54059, Control_c, 0, 7, 74
2, 54089, Control_c, 0, 7, 75
2, 54089, Control_c, 0, 7, 75
2, 54119, Control_c, 0, 7, 76
2, 54119, Control_c, 0, 7, 76
2, 54149, Control_c, 0, 7, 77
2, 54149, Control_c, 0, 7, 77
2, 54179, Control_c, 0, 7, 78
2, 54179, Control_c, 0, 7, 78
2, 54209, Control_c, 0, 7, 79
2, 54209, Control_c, 0, 7, 79
2, 54239, Control_c, 0, 7, 80
2, 54239, Control_c, 0, 7, 80
2, 54269, Control_c, 0, 7, 81
2, 54269, Control_c, 0, 7, 81
2, 54299, Control_c, 0, 7, 82
2, 54299, Control_c, 0, 7, 82
2, 54329, Control_c, 0, 7, 83
2, 54329, Control_c, 0, 7, 83
2, 54359, Control_c, 0, 7, 84
2, 54359, Control_c, 0, 7, 84
2, 54389, Control_c, 0, 7, 85
2, 54389, Control_c, 0, 7, 85
2, 54419, Control_c, 0, 7, 86
2, 54419, Control_c, 0, 7, 86
2, 54449, Control_c, 0, 7, 87
2, 54449, Control_c, 0, 7, 87
2, 54479, Control_c, 0, 7, 88
2, 54479, Control_c, 0, 7, 88
2, 54509, Control_c, 0, 7, 89
2, 54509, Control_c, 0, 7, 89
2, 54539, Control_c, 0, 7, 90
2, 54539, Control_c, 0, 7, 90
2, 54569, Control_c, 0, 7, 91
2, 54569, Control_c, 0, 7, 91
2, 54599, Control_c, 0, 7, 92
2, 54599, Control_c, 0, 7, 92
2, 54629, Control_c, 0, 7, 93
2, 54629, Control_c, 0, 7, 93
2, 54659, Control_c, 0, 7, 94
2, 54659, Control_c, 0, 7, 94
2, 54689, Control_c, 0, 7, 95
2, 54689, Control_c, 0, 7, 95
2, 54719, Control_c, 0, 7, 96
2, 54719, Control_c, 0, 7, 96
2, 54720, Control_c, 0, 7, 96
2, 54720, Control_c, 0, 7, 96
2, 54734, Control_c, 0, 7, 95
2, 54734, Control_c, 0, 7, 95
2, 54749, Control_c, 0, 7, 94
2, 54749, Control_c, 0, 7, 94
2, 54764, Control_c, 0, 7, 93
2, 54764, Control_c, 0, 7, 93
2, 54779, Control_c, 0, 7, 92
2, 54779, Control_c, 0, 7, 92
2, 54794, Control_c, 0, 7, 91
2, 54794, Control_c, 0, 7, 91
2, 54809, Control_c, 0, 7, 90
2, 54809, Control_c, 0, 7, 90
2, 54824, Control_c, 0, 7, 89
2, 54824, Control_c, 0, 7, 89
2, 54839, Control_c, 0, 7, 88
2, 54839, Control_c, 0, 7, 88
2, 54854, Control_c, 0, 7, 87
2, 54854, Control_c, 0, 7, 87
2, 54869, Control_c, 0, 7, 86
2, 54869, Control_c, 0, 7, 86
2, 54884, Control_c, 0, 7, 85
2, 54884, Control_c, 0, 7, 85
2, 54899, Control_c, 0, 7, 84
2, 54899, Control_c, 0, 7, 84
2, 54914, Control_c, 0, 7, 83
2, 54914, Control_c, 0, 7, 83
2, 54929, Control_c, 0, 7, 82
2, 54929, Control_c, 0, 7, 82
2, 54944, Control_c, 0, 7, 81
2, 54944, Control_c, 0, 7, 81
2, 54959, Control_c, 0, 7, 80
2, 54959, Control_c, 0, 7, 80
2, 54974, Control_c, 0, 7, 79
2, 54974, Control_c, 0, 7, 79
2, 54989, Control_c, 0, 7, 78
2, 54989, Control_c, 0, 7, 78
2, 55004, Control_c, 0, 7, 77
2, 55004, Control_c, 0, 7, 77
2, 55019, Control_c, 0, 7, 76
2, 55019, Control_c, 0, 7, 76
2, 55020, Control_c, 0, 7, 89
2, 55034, Control_c, 0, 7, 75
2, 55034, Control_c, 0, 7, 75
2, 55049, Control_c, 0, 7, 74
2, 55049, Control_c, 0, 7, 74
2, 55064, Control_c, 0, 7, 73
2, 55064, Control_c, 0, 7, 73
2, 55079, Control_c, 0, 7, 72
2, 55079, Control_c, 0, 7, 72
2, 55094, Control_c, 0, 7, 71
2, 55094, Control_c, 0, 7, 71
2, 55200, Note_on_c, 0, 81, 99
2, 55560, Note_on_c, 0, 81, 0
2, 55560, Note_on_c, 0, 85, 96
2, 55650, Note_on_c, 0, 85, 0
2, 55680, Note_on_c, 0, 83, 96
2, 55800, Note_on_c, 0, 83, 0
2, 55800, Note_on_c, 0, 80, 96
2, 55920, Note_on_c, 0, 80, 0
2, 55920, Note_on_c, 0, 78, 93
2, 56010, Control_c, 0, 7, 96
2, 56030, Control_c, 0, 7, 97
2, 56040, Note_on_c, 0, 78, 0
2, 56040, Note_on_c, 0, 76, 92
2, 56050, Control_c, 0, 7, 98
2, 56070, Control_c, 0, 7, 99
2, 56130, Note_on_c, 0, 76, 0
2, 56140, Control_c, 0, 7, 100
2, 56150, Control_c, 0, 7, 101
2, 56160, Note_on_c, 0, 88, 89
2, 56170, Control_c, 0, 7, 102
2, 56190, Control_c, 0, 7, 103
2, 56250, Control_c, 0, 7, 104
2, 56280, Note_on_c, 0, 88, 0
2, 56310, Control_c, 0, 7, 105
2, 56390, Control_c, 0, 7, 107
2, 56400, Note_on_c, 0, 88, 88
2, 56450, Control_c, 0, 7, 108
2, 56510, Control_c, 0, 7, 110
2, 56520, Note_on_c, 0, 88, 0
2, 56570, Control_c, 0, 7, 111
2, 56640, Note_on_c, 0, 88, 91
2, 56650, Control_c, 0, 7, 112
2, 56680, Control_c, 0, 7, 111
2, 56690, Control_c, 0, 7, 113
2, 56700, Control_c, 0, 7, 109
2, 56720, Control_c, 0, 7, 107
2, 56730, Control_c, 0, 7, 106
2, 56740, Control_c, 0, 7, 105
2, 56760, Control_c, 0, 7, 103
2, 56780, Control_c, 0, 7, 102
2, 56800, Control_c, 0, 7, 100
2, 56820, Control_c, 0, 7, 98
2, 56840, Control_c, 0, 7, 96
2, 56860, Control_c, 0, 7, 94
2, 56880, Note_on_c, 0, 88, 0
2, 56880, Note_on_c, 0, 85, 96
2, 56920, Control_c, 0, 7, 93
2, 56930, Control_c, 0, 7, 91
2, 56950, Control_c, 0, 7, 89
2, 56960, Control_c, 0, 7, 88
2, 56976, Note_on_c, 0, 85, 0
2, 56980, Control_c, 0, 7, 86
2, 57000, Control_c, 0, 7, 85
2, 57010, Control_c, 0, 7, 84
2, 57030, Control_c, 0, 7, 82
2, 57050, Control_c, 0, 7, 81
2, 57070, Control_c, 0, 7, 80
2, 57080, Control_c, 0, 7, 78
2, 57100, Control_c, 0, 7, 77
2, 57120, Note_on_c, 0, 88, 98
2, 57120, Control_c, 0, 7, 76
2, 57140, Control_c, 0, 7, 75
2, 57150, Control_c, 0, 7, 74
2, 57180, Control_c, 0, 7, 73
2, 57190, Control_c, 0, 7, 72
2, 57200, Control_c, 0, 7, 71
2, 57230, Control_c, 0, 7, 70
2, 57270, Control_c, 0, 7, 68
2, 57290, Control_c, 0, 7, 67
2, 57310, Control_c, 0, 7, 66
2, 57330, Control_c, 0, 7, 65
2, 57400, Control_c, 0, 7, 66
2, 57410, Control_c, 0, 7, 67
2, 57430, Control_c, 0, 7, 68
2, 57450, Note_on_c, 0, 88, 0
2, 57450, Control_c, 0, 7, 70
2, 57470, Control_c, 0, 7, 71
2, 57480, Note_on_c, 0, 85, 98
2, 57490, Control_c, 0, 7, 73
2, 57510, Control_c, 0, 7, 75
2, 57530, Control_c, 0, 7, 76
2, 57550, Control_c, 0, 7, 77
2, 57560, Control_c, 0, 7, 78
2, 57576, Note_on_c, 0, 85, 0
2, 57580, Control_c, 0, 7, 79
2, 57600, Note_on_c, 0, 83, 98
2, 57600, Control_c, 0, 7, 80
2, 57630, Control_c, 0, 7, 81
2, 57640, Control_c, 0, 7, 82
2, 57670, Control_c, 0, 7, 83
2, 57680, Control_c, 0, 7, 84
2, 57700, Control_c, 0, 7, 85
2, 57720, Note_on_c, 0, 83, 0
2, 57720, Note_on_c, 0, 86, 97
2, 57750, Control_c, 0, 7, 87
2, 57820, Control_c, 0, 7, 88
2, 57840, Note_on_c, 0, 86, 0
2, 57840, Note_on_c, 0, 90, 97
2, 57840, Control_c, 0, 7, 89
2, 57860, Control_c, 0, 7, 90
2, 57880, Control_c, 0, 7, 91
2, 57910, Control_c, 0, 7, 92
2, 57920, Control_c, 0, 7, 93
2, 57936, Note_on_c, 0, 90, 0
2, 57940, Control_c, 0, 7, 94
2, 57960, Note_on_c, 0, 90, 96
2, 57960, Control_c, 0, 7, 95
2, 58000, Control_c, 0, 7, 97
2, 58050, Control_c, 0, 7, 98
2, 58056, Note_on_c, 0, 90, 0
2, 58060, Control_c, 0, 7, 98
2, 58080, Note_on_c, 0, 86, 94
2, 58140, Control_c, 0, 7, 99
2, 58160, Control_c, 0, 7, 100
2, 58170, Control_c, 0, 7, 97
2, 58190, Control_c, 0, 7, 96
2, 58200, Note_on_c, 0, 86, 0
2, 58200, Note_on_c, 0, 83, 91
2, 58300, Control_c, 0, 7, 97
2, 58320, Note_on_c, 0, 83, 0
2, 58320, Note_on_c, 0, 80, 90
2, 58320, Control_c, 0, 7, 98
2, 58360, Control_c, 0, 7, 99
2, 58416, Note_on_c, 0, 80, 0
2, 58420, Control_c, 0, 7, 100
2, 58440, Note_on_c, 0, 80, 99
2, 58480, Control_c, 0, 7, 102
2, 58520, Control_c, 0, 7, 103
2, 58536, Note_on_c, 0, 80, 0
2, 58540, Control_c, 0, 7, 105
2, 58560, Note_on_c, 0, 81, 72
2, 58560, Note_on_c, 0, 81, 112
2, 58560, Control_c, 0, 7, 106
2, 58570, Control_c, 0, 7, 125
2, 58590, Control_c, 0, 7, 119
2, 58600, Control_c, 0, 7, 113
2, 58610, Control_c, 0, 7, 105
2, 58620, Control_c, 0, 7, 99
2, 58630, Control_c, 0, 7, 91
2, 58640, Control_c, 0, 7, 87
2, 58650, Control_c, 0, 7, 86
2, 58670, Control_c, 0, 7, 85
2, 58890, Control_c, 0, 7, 86
2, 58900, Control_c, 0, 7, 87
2, 58960, Control_c, 0, 7, 88
2, 58980, Control_c, 0, 7, 89
2, 59000, Control_c, 0, 7, 90
2, 59010, Control_c, 0, 7, 91
2, 59030, Control_c, 0, 7, 92
2, 59050, Control_c, 0, 7, 94
2, 59080, Control_c, 0, 7, 95
2, 59090, Control_c, 0, 7, 96
2, 59100, Control_c, 0, 7, 97
2, 59120, Control_c, 0, 7, 98
2, 59140, Control_c, 0, 7, 99
2, 59150, Control_c, 0, 7, 100
2, 59170, Control_c, 0, 7, 102
2, 59190, Control_c, 0, 7, 103
2, 59210, Control_c, 0, 7, 104
2, 59230, Control_c, 0, 7, 105
2, 59250, Control_c, 0, 7, 106
2, 59260, Control_c, 0, 7, 107
2, 59300, Control_c, 0, 7, 110
2, 59320, Control_c, 0, 7, 111
2, 59330, Control_c, 0, 7, 112
2, 59340, Control_c, 0, 7, 113
2, 59400, Control_c, 0, 7, 116
2, 59450, Control_c, 0, 7, 118
2, 59460, Note_on_c, 0, 81, 0
2, 59460, Note_on_c, 0, 81, 0
2, 59460, Control_c, 0, 7, 119
2, 59470, Control_c, 0, 7, 121
2, 59490, Control_c, 0, 7, 122
2, 59500, Control_c, 0, 7, 125
2, 59520, Note_on_c, 0, 80, 72
2, 59520, Note_on_c, 0, 83, 72
2, 59521, Control_c, 0, 7, 127
2, 59523, Control_c, 0, 7, 126
2, 59525, Control_c, 0, 7, 125
2, 59527, Control_c, 0, 7, 124
2, 59529, Control_c, 0, 7, 123
2, 59530, Control_c, 0, 7, 116
2, 59540, Control_c, 0, 7, 111
2, 59550, Control_c, 0, 7, 108
2, 59560, Control_c, 0, 7, 104
2, 59570, Control_c, 0, 7, 100
2, 59580, Control_c, 0, 7, 96
2, 59590, Control_c, 0, 7, 95
2, 59600, Control_c, 0, 7, 91
2, 59610, Control_c, 0, 7, 86
2, 59620, Control_c, 0, 7, 85
2, 59630, Control_c, 0, 7, 84
2, 59640, Control_c, 0, 7, 80
2, 59650, Control_c, 0, 7, 79
2, 59660, Control_c, 0, 7, 78
2, 59680, Control_c, 0, 7, 77
2, 59710, Control_c, 0, 7, 76
2, 59720, Control_c, 0, 7, 75
2, 59750, Control_c, 0, 7, 74
2, 59770, Control_c, 0, 7, 73
2, 59780, Control_c, 0, 7, 74
2, 59790, Control_c, 0, 7, 73
2, 59810, Control_c, 0, 7, 73
2, 59830, Control_c, 0, 7, 74
2, 59840, Control_c, 0, 7, 75
2, 59870, Control_c, 0, 7, 76
2, 59880, Control_c, 0, 7, 77
2, 59900, Control_c, 0, 7, 78
2, 59930, Control_c, 0, 7, 79
2, 59940, Control_c, 0, 7, 80
2, 59960, Control_c, 0, 7, 81
2, 59990, Control_c, 0, 7, 82
2, 60010, Control_c, 0, 7, 83
2, 60040, Control_c, 0, 7, 84
2, 60050, Control_c, 0, 7, 85
2, 60061, Control_c, 0, 7, 83
2, 60061, Control_c, 0, 7, 83
2, 60061, Control_c, 0, 7, 83
2, 60061, Control_c, 0, 7, 83
2, 60061, Control_c, 0, 7, 83
2, 60061, Control_c, 0, 7, 83
2, 60070, Control_c, 0, 7, 85
2, 60081, Control_c, 0, 7, 84
2, 60081, Control_c, 0, 7, 84
2, 60081, Control_c, 0, 7, 84
2, 60081, Control_c, 0, 7, 84
2, 60081, Control_c, 0, 7, 84
2, 60081, Control_c, 0, 7, 84
2, 60090, Control_c, 0, 7, 87
2, 60100, Control_c, 0, 7, 88
2, 60102, Control_c, 0, 7, 85
2, 60102, Control_c, 0, 7, 85
2, 60102, Control_c, 0, 7, 85
2, 60102, Control_c, 0, 7, 85
2, 60102, Control_c, 0, 7, 85
2, 60102, Control_c, 0, 7, 85
2, 60122, Control_c, 0, 7, 86
2, 60122, Control_c, 0, 7, 86
2, 60122, Control_c, 0, 7, 86
2, 60122, Control_c, 0, 7, 86
2, 60122, Control_c, 0, 7, 86
2, 60122, Control_c, 0, 7, 86
2, 60130, Control_c, 0, 7, 89
2, 60142, Control_c, 0, 7, 87
2, 60142, Control_c, 0, 7, 87
2, 60142, Control_c, 0, 7, 87
2, 60142, Control_c, 0, 7, 87
2, 60142, Control_c, 0, 7, 87
2, 60142, Control_c, 0, 7, 87
2, 60150, Control_c, 0, 7, 91
2, 60163, Control_c, 0, 7, 88
2, 60163, Control_c, 0, 7, 88
2, 60163, Control_c, 0, 7, 88
2, 60163, Control_c, 0, 7, 88
2, 60163, Control_c, 0, 7, 88
2, 60163, Control_c, 0, 7, 88
2, 60180, Control_c, 0, 7, 92
2, 60183, Control_c, 0, 7, 89
2, 60183, Control_c, 0, 7, 89
2, 60183, Control_c, 0, 7, 89
2, 60183, Control_c, 0, 7, 89
2, 60183, Control_c, 0, 7, 89
2, 60183, Control_c, 0, 7, 89
2, 60190, Control_c, 0, 7, 93
2, 60204, Control_c, 0, 7, 90
2, 60204, Control_c, 0, 7, 90
2, 60204, Control_c, 0, 7, 90
2, 60204, Control_c, 0, 7, 90
2, 60204, Control_c, 0, 7, 90
2, 60204, Control_c, 0, 7, 90
2, 60220, Control_c, 0, 7, 94
2, 60224, Control_c, 0, 7, 91
2, 60224, Control_c, 0, 7, 91
2, 60224, Control_c, 0, 7, 91
2, 60224, Control_c, 0, 7, 91
2, 60224, Control_c, 0, 7, 91
2, 60224, Control_c, 0, 7, 91
2, 60244, Control_c, 0, 7, 92
2, 60244, Control_c, 0, 7, 92
2, 60244, Control_c, 0, 7, 92
2, 60244, Control_c, 0, 7, 92
2, 60244, Control_c, 0, 7, 92
2, 60244, Control_c, 0, 7, 92
2, 60250, Control_c, 0, 7, 96
2, 60265, Control_c, 0, 7, 93
2, 60265, Control_c, 0, 7, 93
2, 60265, Control_c, 0, 7, 93
2, 60265, Control_c, 0, 7, 93
2, 60265, Control_c, 0, 7, 93
2, 60265, Control_c, 0, 7, 93
2, 60280, Control_c, 0, 7, 97
2, 60285, Control_c, 0, 7, 94
2, 60285, Control_c, 0, 7, 94
2, 60285, Control_c, 0, 7, 94
2, 60285, Control_c, 0, 7, 94
2, 60285, Control_c, 0, 7, 94
2, 60285, Control_c, 0, 7, 94
2, 60306, Control_c, 0, 7, 95
2, 60306, Control_c, 0, 7, 95
2, 60306, Control_c, 0, 7, 95
2, 60306, Control_c, 0, 7, 95
2, 60306, Control_c, 0, 7, 95
2, 60306, Control_c, 0, 7, 95
2, 60310, Control_c, 0, 7, 98
2, 60326, Control_c, 0, 7, 96
2, 60326, Control_c, 0, 7, 96
2, 60326, Control_c, 0, 7, 96
2, 60326, Control_c, 0, 7, 96
2, 60326, Control_c, 0, 7, 96
2, 60326, Control_c, 0, 7, 96
2, 60340, Control_c, 0, 7, 100
2, 60346, Control_c, 0, 7, 97
2, 60346, Control_c, 0, 7, 97
2, 60346, Control_c, 0, 7, 97
2, 60346, Control_c, 0, 7, 97
2, 60346, Control_c, 0, 7, 97
2, 60346, Control_c, 0, 7, 97
2, 60360, Control_c, 0, 7, 102
2, 60380, Control_c, 0, 7, 105
2, 60384, Note_on_c, 0, 83, 0
2, 60384, Note_on_c, 0, 80, 0
2, 60390, Control_c, 0, 7, 107
2, 60400, Control_c, 0, 7, 108
2, 60410, Control_c, 0, 7, 110
2, 60420, Control_c, 0, 7, 113
2, 60440, Control_c, 0, 7, 116
2, 60450, Control_c, 0, 7, 118
2, 60460, Control_c, 0, 7, 120
2, 60470, Control_c, 0, 7, 124
2, 60480, Note_on_c, 0, 79, 72
2, 60480, Note_on_c, 0, 85, 72
2, 60480, Control_c, 0, 7, 126
2, 60500, Control_c, 0, 7, 117
2, 60510, Control_c, 0, 7, 115
2, 60520, Control_c, 0, 7, 114
2, 60540, Control_c, 0, 7, 106
2, 60550, Control_c, 0, 7, 98
2, 60570, Control_c, 0, 7, 96
2, 60580, Control_c, 0, 7, 76
2, 60680, Control_c, 0, 7, 77
2, 60720, Control_c, 0, 7, 78
2, 60740, Control_c, 0, 7, 80
2, 60780, Control_c, 0, 7, 81
2, 60790, Control_c, 0, 7, 82
2, 60800, Control_c, 0, 7, 83
2, 60830, Control_c, 0, 7, 84
2, 60850, Control_c, 0, 7, 85
2, 60860, Control_c, 0, 7, 86
2, 60900, Control_c, 0, 7, 86
2, 60930, Control_c, 0, 7, 88
2, 60950, Control_c, 0, 7, 89
2, 60960, Control_c, 0, 7, 90
2, 60970, Control_c, 0, 7, 91
2, 60990, Control_c, 0, 7, 92
2, 61000, Control_c, 0, 7, 94
2, 61060, Control_c, 0, 7, 96
2, 61080, Control_c, 0, 7, 98
2, 61100, Control_c, 0, 7, 99
2, 61110, Control_c, 0, 7, 101
2, 61130, Control_c, 0, 7, 102
2, 61140, Control_c, 0, 7, 103
2, 61160, Control_c, 0, 7, 105
2, 61180, Control_c, 0, 7, 107
2, 61240, Control_c, 0, 7, 109
2, 61250, Control_c, 0, 7, 111
2, 61280, Control_c, 0, 7, 113
2, 61290, Control_c, 0, 7, 114
2, 61300, Control_c, 0, 7, 115
2, 61320, Control_c, 0, 7, 118
2, 61330, Control_c, 0, 7, 119
2, 61340, Control_c, 0, 7, 120
2, 61344, Note_on_c, 0, 85, 0
2, 61344, Note_on_c, 0, 79, 0
2, 61350, Control_c, 0, 7, 121
2, 61360, Control_c, 0, 7, 123
2, 61430, Control_c, 0, 7, 127
2, 61440, Note_on_c, 0, 78, 72
2, 61440, Note_on_c, 0, 86, 72
2, 61450, Control_c, 0, 7, 126
2, 61460, Control_c, 0, 7, 125
2, 61471, Control_c, 0, 7, 112
2, 61473, Control_c, 0, 7, 111
2, 61475, Control_c, 0, 7, 110
2, 61477, Control_c, 0, 7, 109
2, 61479, Control_c, 0, 7, 108
2, 61480, Control_c, 0, 7, 105
2, 61490, Control_c, 0, 7, 101
2, 61500, Control_c, 0, 7, 99
2, 61510, Control_c, 0, 7, 96
2, 61530, Control_c, 0, 7, 95
2, 61540, Control_c, 0, 7, 94
2, 61550, Control_c, 0, 7, 88
2, 61560, Control_c, 0, 7, 85
2, 61590, Control_c, 0, 7, 84
2, 61740, Control_c, 0, 7, 86
2, 61800, Control_c, 0, 7, 87
2, 61830, Control_c, 0, 7, 89
2, 61850, Control_c, 0, 7, 90
2, 61910, Control_c, 0, 7, 91
2, 61970, Control_c, 0, 7, 97
2, 62030, Control_c, 0, 7, 99
2, 62090, Control_c, 0, 7, 100
2, 62100, Control_c, 0, 7, 102
2, 62170, Control_c, 0, 7, 104
2, 62220, Control_c, 0, 7, 107
2, 62240, Control_c, 0, 7, 109
2, 62250, Control_c, 0, 7, 110
2, 62280, Control_c, 0, 7, 111
2, 62300, Control_c, 0, 7, 112
2, 62304, Note_on_c, 0, 86, 0
2, 62310, Control_c, 0, 7, 113
2, 62330, Control_c, 0, 7, 114
2, 62350, Control_c, 0, 7, 116
2, 62370, Control_c, 0, 7, 117
2, 62380, Control_c, 0, 7, 123
2, 62400, Note_on_c, 0, 78, 0
2, 62400, Note_on_c, 0, 88, 72
2, 62400, Note_on_c, 0, 85, 72
2, 62400, Control_c, 0, 7, 124
2, 62410, Control_c, 0, 7, 123
2, 62440, Control_c, 0, 7, 117
2, 62450, Control_c, 0, 7, 115
2, 62460, Control_c, 0, 7, 118
2, 62470, Control_c, 0, 7, 116
2, 62490, Control_c, 0, 7, 114
2, 62500, Control_c, 0, 7, 113
2, 62510, Control_c, 0, 7, 112
2, 62590, Control_c, 0, 7, 106
2, 62670, Control_c, 0, 7, 105
2, 62680, Control_c, 0, 7, 104
2, 62784, Note_on_c, 0, 85, 0
2, 62784, Note_on_c, 0, 88, 0
2, 62880, Note_on_c, 0, 90, 72
2, 62880, Note_on_c, 0, 86, 72
2, 63060, Control_c, 0, 7, 106
2, 63080, Control_c, 0, 7, 107
2, 63100, Control_c, 0, 7, 109
2, 63120, Control_c, 0, 7, 110
2, 63130, Control_c, 0, 7, 111
2, 63190, Control_c, 0, 7, 112
2, 63200, Control_c, 0, 7, 113
2, 63210, Control_c, 0, 7, 114
2, 63220, Control_c, 0, 7, 115
2, 63240, Control_c, 0, 7, 117
2, 63264, Note_on_c, 0, 86, 0
2, 63264, Note_on_c, 0, 90, 0
2, 63300, Control_c, 0, 7, 118
2, 63310, Control_c, 0, 7, 119
2, 63360, Note_on_c, 0, 91, 72
2, 63360, Note_on_c, 0, 88, 72
2, 63400, Control_c, 0, 7, 120
2, 63410, Control_c, 0, 7, 121
2, 63420, Control_c, 0, 7, 122
2, 63440, Control_c, 0, 7, 123
2, 63680, Control_c, 0, 7, 114
2, 63690, Control_c, 0, 7, 113
2, 63780, Control_c, 0, 7, 107
2, 63840, Control_c, 0, 7, 106
2, 63860, Control_c, 0, 7, 105
2, 63920, Control_c, 0, 7, 99
2, 63990, Control_c, 0, 7, 98
2, 64000, Control_c, 0, 7, 97
2, 64080, Control_c, 0, 7, 95
2, 64160, Control_c, 0, 7, 87
2, 64300, Control_c, 0, 7, 77
2, 64400, Control_c, 0, 7, 71
2, 64432, Note_on_c, 0, 88, 0
2, 64432, Note_on_c, 0, 91, 0
2, 64480, Control_c, 0, 7, 69
2, 64490, Control_c, 0, 7, 68
2, 64510, Control_c, 0, 7, 67
2, 64520, Control_c, 0, 7, 66
2, 64530, Control_c, 0, 7, 65
2, 64540, Control_c, 0, 7, 65
2, 65179, Control_c, 0, 7, 64
2, 65270, Control_c, 0, 7, 65
2, 65275, Control_c, 0, 7, 63
2, 65372, Control_c, 0, 7, 62
2, 65468, Control_c, 0, 7, 61
2, 65564, Control_c, 0, 7, 60
2, 65660, Control_c, 0, 7, 59
2, 65756, Control_c, 0, 7, 58
2, 65853, Control_c, 0, 7, 57
2, 65949, Control_c, 0, 7, 56
2, 66045, Control_c, 0, 7, 55
2, 66141, Control_c, 0, 7, 54
2, 66237, Control_c, 0, 7, 53
2, 66334, Control_c, 0, 7, 52
2, 66430, Control_c, 0, 7, 51
2, 66526, Control_c, 0, 7, 50
2, 66622, Control_c, 0, 7, 49
2, 66719, Control_c, 0, 7, 48
2, 69600, Control_c, 0, 7, 62
2, 69610, Control_c, 0, 7, 63
2, 70040, Control_c, 0, 7, 67
2, 70050, Control_c, 0, 7, 68
2, 70060, Control_c, 0, 7, 69
2, 70120, Control_c, 0, 7, 71
2, 70140, Control_c, 0, 7, 73
2, 70160, Control_c, 0, 7, 74
2, 70170, Control_c, 0, 7, 75
2, 70190, Control_c, 0, 7, 77
2, 70200, Note_on_c, 0, 69, 60
2, 70200, Note_on_c, 0, 66, 60
2, 70200, Control_c, 0, 7, 79
2, 70230, Control_c, 0, 7, 80
2, 70250, Control_c, 0, 7, 81
2, 70270, Control_c, 0, 7, 82
2, 70280, Control_c, 0, 7, 83
2, 70290, Control_c, 0, 7, 84
2, 70310, Control_c, 0, 7, 85
2, 70320, Note_on_c, 0, 66, 0
2, 70320, Note_on_c, 0, 69, 0
2, 70320, Note_on_c, 0, 74, 78
2, 70320, Note_on_c, 0, 69, 78
2, 70330, Control_c, 0, 7, 86
2, 70390, Control_c, 0, 7, 88
2, 70400, Control_c, 0, 7, 89
2, 70420, Control_c, 0, 7, 90
2, 70440, Note_on_c, 0, 69, 0
2, 70440, Note_on_c, 0, 74, 0
2, 70440, Note_on_c, 0, 78, 92
2, 70440, Note_on_c, 0, 74, 92
2, 70440, Control_c, 0, 7, 92
2, 70470, Control_c, 0, 7, 94
2, 70540, Control_c, 0, 7, 95
2, 70550, Control_c, 0, 7, 96
2, 70560, Note_on_c, 0, 74, 0
2, 70560, Note_on_c, 0, 78, 0
2, 70560, Note_on_c, 0, 81, 94
2, 70560, Note_on_c, 0, 78, 94
2, 70800, Note_on_c, 0, 78, 0
2, 70800, Note_on_c, 0, 81, 0
2, 71040, Control_c, 0, 7, 95
2, 71060, Control_c, 0, 7, 96
2, 71070, Control_c, 0, 7, 99
2, 71080, Control_c, 0, 7, 100
2, 71090, Control_c, 0, 7, 101
2, 71100, Control_c, 0, 7, 105
2, 71110, Control_c, 0, 7, 106
2, 71130, Control_c, 0, 7, 107
2, 71140, Control_c, 0, 7, 110
2, 71160, Note_on_c, 0, 74, 64
2, 71160, Note_on_c, 0, 69, 64
2, 71160, Control_c, 0, 7, 112
2, 71180, Control_c, 0, 7, 114
2, 71200, Control_c, 0, 7, 115
2, 71220, Control_c, 0, 7, 116
2, 71240, Control_c, 0, 7, 118
2, 71250, Control_c, 0, 7, 119
2, 71260, Control_c, 0, 7, 120
2, 71280, Note_on_c, 0, 69, 0
2, 71280, Note_on_c, 0, 74, 0
2, 71280, Note_on_c, 0, 74, 88
2, 71280, Note_on_c, 0, 78, 88
2, 71280, Control_c, 0, 7, 121
2, 71300, Control_c, 0, 7, 123
2, 71320, Control_c, 0, 7, 124
2, 71340, Control_c, 0, 7, 125
2, 71360, Control_c, 0, 7, 126
2, 71400, Note_on_c, 0, 78, 0
2, 71400, Note_on_c, 0, 74, 0
2, 71400, Note_on_c, 0, 78, 98
2, 71400, Note_on_c, 0, 81, 98
2, 71520, Note_on_c, 0, 81, 0
2, 71520, Note_on_c, 0, 78, 0
2, 71520, Note_on_c, 0, 86, 101
2, 71520, Note_on_c, 0, 78, 101
2, 71970, Note_on_c, 0, 78, 0
2, 71970, Note_on_c, 0, 86, 0
2, 72000, Note_on_c, 0, 85, 107
2, 72000, Note_on_c, 0, 76, 107
2, 72000, Control_c, 0, 7, 127
2, 72040, Control_c, 0, 7, 126
2, 72060, Control_c, 0, 7, 125
2, 72070, Control_c, 0, 7, 124
2, 72110, Control_c, 0, 7, 123
2, 72120, Control_c, 0, 7, 122
2, 72150, Control_c, 0, 7, 121
2, 72160, Control_c, 0, 7, 120
2, 72190, Control_c, 0, 7, 119
2, 72200, Control_c, 0, 7, 118
2, 72210, Control_c, 0, 7, 116
2, 72230, Control_c, 0, 7, 115
2, 72240, Control_c, 0, 7, 114
2, 72250, Control_c, 0, 7, 113
2, 72270, Control_c, 0, 7, 112
2, 72280, Control_c, 0, 7, 110
2, 72310, Control_c, 0, 7, 108
2, 72350, Control_c, 0, 7, 106
2, 72360, Note_on_c, 0, 76, 0
2, 72360, Note_on_c, 0, 85, 0
2, 72360, Note_on_c, 0, 83, 105
2, 72360, Note_on_c, 0, 79, 105
2, 72360, Control_c, 0, 7, 105
2, 72370, Control_c, 0, 7, 104
2, 72390, Control_c, 0, 7, 103
2, 72400, Control_c, 0, 7, 101
2, 72410, Control_c, 0, 7, 100
2, 72430, Control_c, 0, 7, 99
2, 72440, Control_c, 0, 7, 98
2, 72460, Control_c, 0, 7, 97
2, 72480, Note_on_c, 0, 79, 0
2, 72480, Note_on_c, 0, 83, 0
2, 72480, Note_on_c, 0, 81, 96
2, 72480, Note_on_c, 0, 78, 96
2, 72480, Control_c, 0, 7, 96
2, 72490, Control_c, 0, 7, 113
2, 72576, Note_on_c, 0, 78, 0
2, 72576, Note_on_c, 0, 81, 0
2, 72590, Control_c, 0, 7, 111
2, 72600, Note_on_c, 0, 86, 92
2, 72600, Note_on_c, 0, 78, 92
2, 72600, Control_c, 0, 7, 110
2, 72620, Control_c, 0, 7, 109
2, 72640, Control_c, 0, 7, 107
2, 72670, Control_c, 0, 7, 106
2, 72690, Control_c, 0, 7, 105
2, 72710, Control_c, 0, 7, 103
2, 72720, Note_on_c, 0, 78, 0
2, 72720, Note_on_c, 0, 86, 0
2, 72720, Note_on_c, 0, 85, 92
2, 72720, Note_on_c, 0, 76, 92
2, 72740, Control_c, 0, 7, 102
2, 72750, Control_c, 0, 7, 101
2, 72770, Control_c, 0, 7, 100
2, 72780, Control_c, 0, 7, 99
2, 72820, Control_c, 0, 7, 98
2, 72830, Control_c, 0, 7, 97
2, 72840, Note_on_c, 0, 76, 0
2, 72840, Note_on_c, 0, 85, 0
2, 72840, Note_on_c, 0, 79, 92
2, 72840, Note_on_c, 0, 83, 92
2, 72870, Control_c, 0, 7, 96
2, 72930, Control_c, 0, 7, 95
2, 72960, Note_on_c, 0, 83, 0
2, 72960, Note_on_c, 0, 79, 0
2, 72960, Note_on_c, 0, 78, 92
2, 72960, Note_on_c, 0, 81, 92
2, 72960, Control_c, 0, 7, 64
2, 72960, Control_c, 0, 7, 64
2, 72960, Control_c, 0, 7, 64
2, 72960, Control_c, 0, 7, 64
2, 72960, Control_c, 0, 7, 64
2, 72960, Control_c, 0, 7, 109
2, 72980, Control_c, 0, 7, 108
2, 73056, Note_on_c, 0, 81, 0
2, 73056, Note_on_c, 0, 78, 0
2, 73060, Control_c, 0, 7, 106
2, 73080, Note_on_c, 0, 78, 92
2, 73080, Note_on_c, 0, 86, 92
2, 73090, Control_c, 0, 7, 104
2, 73120, Control_c, 0, 7, 102
2, 73130, Control_c, 0, 7, 100
2, 73140, Control_c, 0, 7, 98
2, 73160, Control_c, 0, 7, 96
2, 73170, Control_c, 0, 7, 95
2, 73180, Control_c, 0, 7, 94
2, 73200, Note_on_c, 0, 86, 0
2, 73200, Note_on_c, 0, 78, 0
2, 73200, Note_on_c, 0, 76, 93
2, 73200, Note_on_c, 0, 85, 93
2, 73240, Control_c, 0, 7, 91
2, 73250, Control_c, 0, 7, 90
2, 73270, Control_c, 0, 7, 89
2, 73280, Control_c, 0, 7, 86
2, 73290, Control_c, 0, 7, 85
2, 73310, Control_c, 0, 7, 83
2, 73320, Note_on_c, 0, 85, 0
2, 73320, Note_on_c, 0, 76, 0
2, 73320, Note_on_c, 0, 83, 95
2, 73320, Note_on_c, 0, 79, 95
2, 73320, Control_c, 0, 7, 82
2, 73340, Control_c, 0, 7, 81
2, 73350, Control_c, 0, 7, 80
2, 73380, Control_c, 0, 7, 78
2, 73410, Control_c, 0, 7, 77
2, 73440, Note_on_c, 0, 79, 0
2, 73440, Note_on_c, 0, 83, 0
2, 73440, Note_on_c, 0, 78, 95
2, 73440, Note_on_c, 0, 81, 95
2, 73440, Control_c, 0, 7, 76
2, 73542, Note_on_c, 0, 81, 0
2, 73542, Note_on_c, 0, 78, 0
2, 73560, Note_on_c, 0, 81, 98
2, 73560, Note_on_c, 0, 78, 98
2, 73611, Note_on_c, 0, 78, 0
2, 73611, Note_on_c, 0, 81, 0
2, 73620, Note_on_c, 0, 81, 98
2, 73620, Note_on_c, 0, 78, 98
2, 73671, Note_on_c, 0, 78, 0
2, 73671, Note_on_c, 0, 81, 0
2, 73680, Note_on_c, 0, 79, 100
2, 73680, Note_on_c, 0, 76, 100
2, 73782, Note_on_c, 0, 76, 0
2, 73782, Note_on_c, 0, 79, 0
2, 73800, Note_on_c, 0, 76, 102
2, 73800, Note_on_c, 0, 79, 102
2, 73851, Note_on_c, 0, 79, 0
2, 73851, Note_on_c, 0, 76, 0
2, 73860, Note_on_c, 0, 76, 105
2, 73860, Note_on_c, 0, 79, 105
2, 73911, Note_on_c, 0, 79, 0
2, 73911, Note_on_c, 0, 76, 0
2, 73920, Note_on_c, 0, 74, 107
2, 73920, Note_on_c, 0, 78, 107
2, 74022, Note_on_c, 0, 78, 0
2, 74022, Note_on_c, 0, 74, 0
2, 74040, Note_on_c, 0, 78, 111
2, 74040, Note_on_c, 0, 74, 111
2, 74091, Note_on_c, 0, 74, 0
2, 74091, Note_on_c, 0, 78, 0
2, 74100, Note_on_c, 0, 74, 114
2, 74100, Note_on_c, 0, 78, 114
2, 74151, Note_on_c, 0, 78, 0
2, 74151, Note_on_c, 0, 74, 0
2, 74160, Note_on_c, 0, 73, 116
2, 74160, Note_on_c, 0, 76, 116
2, 74262, Note_on_c, 0, 76, 0
2, 74262, Note_on_c, 0, 73, 0
2, 74280, Note_on_c, 0, 76, 118
2, 74280, Note_on_c, 0, 73, 118
2, 74331, Note_on_c, 0, 73, 0
2, 74331, Note_on_c, 0, 76, 0
2, 74340, Note_on_c, 0, 73, 119
2, 74340, Note_on_c, 0, 76, 119
2, 74391, Note_on_c, 0, 76, 0
2, 74391, Note_on_c, 0, 73, 0
2, 74400, Note_on_c, 0, 74, 119
2, 74400, Note_on_c, 0, 74, 119
2, 74400, Note_on_c, 0, 74, 119
2, 74400, Note_on_c, 0, 74, 119
2, 74496, Note_on_c, 0, 74, 0
2, 74730, Control_c, 0, 7, 97
2, 74870, Control_c, 0, 7, 63
2, 74880, Note_on_c, 0, 74, 0
2, 74880, Note_on_c, 0, 74, 0
2, 74880, Note_on_c, 0, 74, 0
2, 74880, Note_on_c, 0, 86, 72
2, 74880, Control_c, 0, 7, 63
2, 74970, Control_c, 0, 7, 64
2, 75080, Control_c, 0, 7, 70
2, 75180, Control_c, 0, 7, 72
2, 75200, Control_c, 0, 7, 74
2, 75270, Control_c, 0, 7, 76
2, 75330, Control_c, 0, 7, 78
2, 75390, Control_c, 0, 7, 80
2, 75410, Control_c, 0, 7, 82
2, 75430, Control_c, 0, 7, 83
2, 75450, Control_c, 0, 7, 85
2, 75520, Control_c, 0, 7, 91
2, 75540, Control_c, 0, 7, 92
2, 75600, Note_on_c, 0, 86, 0
2, 75600, Note_on_c, 0, 85, 72
2, 75610, Control_c, 0, 7, 94
2, 75630, Control_c, 0, 7, 93
2, 75660, Control_c, 0, 7, 92
2, 75700, Control_c, 0, 7, 90
2, 75720, Control_c, 0, 7, 88
2, 75730, Control_c, 0, 7, 86
2, 75750, Control_c, 0, 7, 85
2, 75760, Control_c, 0, 7, 84
2, 75780, Control_c, 0, 7, 82
2, 75792, Note_on_c, 0, 85, 0
2, 75800, Control_c, 0, 7, 81
2, 75810, Control_c, 0, 7, 80
2, 75840, Note_on_c, 0, 84, 72
2, 75900, Control_c, 0, 7, 81
2, 75930, Control_c, 0, 7, 82
2, 75990, Control_c, 0, 7, 83
2, 76060, Control_c, 0, 7, 85
2, 76080, Control_c, 0, 7, 86
2, 76110, Control_c, 0, 7, 88
2, 76170, Control_c, 0, 7, 90
2, 76250, Control_c, 0, 7, 98
2, 76310, Control_c, 0, 7, 100
2, 76320, Note_on_c, 0, 84, 0
2, 76320, Note_on_c, 0, 83, 72
2, 76380, Control_c, 0, 7, 106
2, 76390, Control_c, 0, 7, 107
2, 76410, Control_c, 0, 7, 108
2, 76430, Control_c, 0, 7, 110
2, 76490, Control_c, 0, 7, 113
2, 76560, Control_c, 0, 7, 115
2, 76570, Control_c, 0, 7, 117
2, 76640, Control_c, 0, 7, 116
2, 76660, Control_c, 0, 7, 115
2, 76670, Control_c, 0, 7, 113
2, 76680, Control_c, 0, 7, 112
2, 76690, Control_c, 0, 7, 110
2, 76710, Control_c, 0, 7, 109
2, 76720, Control_c, 0, 7, 107
2, 76730, Control_c, 0, 7, 106
2, 76740, Control_c, 0, 7, 104
2, 76750, Control_c, 0, 7, 103
2, 76760, Control_c, 0, 7, 101
2, 76800, Note_on_c, 0, 83, 0
2, 76800, Note_on_c, 0, 81, 72
2, 76820, Control_c, 0, 7, 99
2, 76830, Control_c, 0, 7, 97
2, 76860, Control_c, 0, 7, 96
2, 76870, Control_c, 0, 7, 95
2, 76880, Control_c, 0, 7, 94
2, 76900, Control_c, 0, 7, 93
2, 77030, Control_c, 0, 7, 94
2, 77130, Control_c, 0, 7, 96
2, 77190, Control_c, 0, 7, 98
2, 77270, Control_c, 0, 7, 100
2, 77280, Note_on_c, 0, 81, 0
2, 77280, Note_on_c, 0, 79, 72
2, 77370, Control_c, 0, 7, 102
2, 77430, Control_c, 0, 7, 103
2, 77450, Control_c, 0, 7, 104
2, 77480, Control_c, 0, 7, 105
2, 77540, Control_c, 0, 7, 106
2, 77600, Control_c, 0, 7, 107
2, 77680, Control_c, 0, 7, 109
2, 77730, Note_on_c, 0, 79, 0
2, 77760, Note_on_c, 0, 79, 72
2, 77760, Control_c, 0, 7, 110
2, 77780, Control_c, 0, 7, 111
2, 77784, Note_on_c, 0, 79, 0
2, 77790, Note_on_c, 0, 78, 75
2, 77790, Control_c, 0, 7, 112
2, 77814, Note_on_c, 0, 78, 0
2, 77820, Note_on_c, 0, 79, 79
2, 77844, Note_on_c, 0, 79, 0
2, 77850, Note_on_c, 0, 78, 80
2, 77870, Control_c, 0, 7, 113
2, 77874, Note_on_c, 0, 78, 0
2, 77880, Note_on_c, 0, 79, 82
2, 77890, Control_c, 0, 7, 114
2, 77904, Note_on_c, 0, 79, 0
2, 77910, Note_on_c, 0, 78, 84
2, 77910, Control_c, 0, 7, 115
2, 77920, Control_c, 0, 7, 116
2, 77934, Note_on_c, 0, 78, 0
2, 77940, Note_on_c, 0, 79, 86
2, 77960, Control_c, 0, 7, 116
2, 77964, Note_on_c, 0, 79, 0
2, 77970, Note_on_c, 0, 78, 89
2, 77990, Control_c, 0, 7, 118
2, 77994, Note_on_c, 0, 78, 0
2, 78000, Note_on_c, 0, 79, 92
2, 78010, Control_c, 0, 7, 119
2, 78020, Control_c, 0, 7, 120
2, 78024, Note_on_c, 0, 79, 0
2, 78030, Note_on_c, 0, 78, 94
2, 78040, Control_c, 0, 7, 121
2, 78050, Control_c, 0, 7, 122
2, 78054, Note_on_c, 0, 78, 0
2, 78060, Note_on_c, 0, 79, 96
2, 78070, Control_c, 0, 7, 122
2, 78084, Note_on_c, 0, 79, 0
2, 78090, Note_on_c, 0, 78, 97
2, 78114, Note_on_c, 0, 78, 0
2, 78120, Note_on_c, 0, 79, 99
2, 78140, Control_c, 0, 7, 124
2, 78144, Note_on_c, 0, 79, 0
2, 78150, Note_on_c, 0, 78, 100
2, 78150, Control_c, 0, 7, 125
2, 78170, Control_c, 0, 7, 126
2, 78174, Note_on_c, 0, 78, 0
2, 78180, Note_on_c, 0, 76, 100
2, 78190, Control_c, 0, 7, 127
2, 78204, Note_on_c, 0, 76, 0
2, 78210, Note_on_c, 0, 78, 101
2, 78234, Note_on_c, 0, 78, 0
2, 78240, Note_on_c, 0, 76, 101
2, 78432, Note_on_c, 0, 76, 0
2, 78480, Note_on_c, 0, 81, 99
2, 78480, Note_on_c, 0, 85, 99
2, 78720, Note_on_c, 0, 85, 0
2, 78720, Note_on_c, 0, 86, 99
2, 78800, Control_c, 0, 7, 125
2, 78810, Control_c, 0, 7, 123
2, 78890, Control_c, 0, 7, 122
2, 78950, Control_c, 0, 7, 120
2, 78960, Note_on_c, 0, 86, 0
2, 78960, Note_on_c, 0, 81, 0
2, 78960, Note_on_c, 0, 90, 99
2, 78960, Note_on_c, 0, 86, 99
2, 79010, Control_c, 0, 7, 119
2, 79090, Control_c, 0, 7, 113
2, 79150, Control_c, 0, 7, 112
2, 79200, Note_on_c, 0, 86, 0
2, 79200, Note_on_c, 0, 90, 0
2, 79200, Note_on_c, 0, 88, 99
2, 79200, Note_on_c, 0, 85, 99
2, 79210, Control_c, 0, 7, 110
2, 79290, Control_c, 0, 7, 108
2, 79350, Control_c, 0, 7, 107
2, 79392, Note_on_c, 0, 85, 0
2, 79392, Note_on_c, 0, 88, 0
2, 79430, Control_c, 0, 7, 105
2, 79440, Note_on_c, 0, 85, 99
2, 79440, Note_on_c, 0, 81, 99
2, 79450, Control_c, 0, 7, 104
2, 79470, Control_c, 0, 7, 102
2, 79550, Control_c, 0, 7, 101
2, 79610, Control_c, 0, 7, 100
2, 79680, Note_on_c, 0, 85, 0
2, 79680, Note_on_c, 0, 86, 99
2, 79710, Control_c, 0, 7, 98
2, 79790, Control_c, 0, 7, 96
2, 79850, Control_c, 0, 7, 95
2, 79910, Control_c, 0, 7, 94
2, 79920, Note_on_c, 0, 86, 0
2, 79920, Note_on_c, 0, 81, 0
2, 79920, Note_on_c, 0, 90, 99
2, 79920, Note_on_c, 0, 86, 99
2, 79930, Control_c, 0, 7, 93
2, 80040, Control_c, 0, 7, 92
2, 80140, Control_c, 0, 7, 91
2, 80160, Note_on_c, 0, 86, 0
2, 80160, Note_on_c, 0, 90, 0
2, 80160, Note_on_c, 0, 85, 98
2, 80160, Note_on_c, 0, 88, 98
2, 80240, Control_c, 0, 7, 90
2, 80260, Control_c, 0, 7, 89
2, 80330, Control_c, 0, 7, 88
2, 80352, Note_on_c, 0, 88, 0
2, 80352, Note_on_c, 0, 85, 0
2, 80400, Note_on_c, 0, 90, 98
2, 80400, Note_on_c, 0, 86, 98
2, 80430, Control_c, 0, 7, 86
2, 80510, Control_c, 0, 7, 84
2, 80590, Control_c, 0, 7, 83
2, 80610, Note_on_c, 0, 86, 0
2, 80610, Note_on_c, 0, 90, 0
2, 80640, Note_on_c, 0, 88, 104
2, 80640, Note_on_c, 0, 85, 104
2, 80690, Control_c, 0, 7, 81
2, 80750, Control_c, 0, 7, 80
2, 80832, Note_on_c, 0, 85, 0
2, 80832, Note_on_c, 0, 88, 0
2, 80880, Note_on_c, 0, 90, 104
2, 80880, Note_on_c, 0, 86, 104
2, 80910, Control_c, 0, 7, 78
2, 80990, Control_c, 0, 7, 76
2, 81072, Note_on_c, 0, 86, 0
2, 81090, Note_on_c, 0, 90, 0
2, 81120, Note_on_c, 0, 88, 104
2, 81120, Note_on_c, 0, 85, 104
2, 81130, Control_c, 0, 7, 75
2, 81210, Control_c, 0, 7, 74
2, 81232, Note_on_c, 0, 85, 0
2, 81232, Note_on_c, 0, 88, 0
2, 81240, Note_on_c, 0, 81, 104
2, 81240, Note_on_c, 0, 81, 104
2, 81288, Note_on_c, 0, 81, 0
2, 81288, Note_on_c, 0, 81, 0
2, 81290, Control_c, 0, 7, 73
2, 81300, Note_on_c, 0, 81, 104
2, 81300, Note_on_c, 0, 81, 104
2, 81348, Note_on_c, 0, 81, 0
2, 81348, Note_on_c, 0, 81, 0
2, 81360, Note_on_c, 0, 81, 104
2, 81360, Note_on_c, 0, 81, 104
2, 81370, Control_c, 0, 7, 72
2, 81472, Note_on_c, 0, 81, 0
2, 81472, Note_on_c, 0, 81, 0
2, 81480, Note_on_c, 0, 81, 104
2, 81480, Note_on_c, 0, 81, 104
2, 81520, Control_c, 0, 7, 71
2, 81592, Note_on_c, 0, 81, 0
2, 81592, Note_on_c, 0, 81, 0
2, 81600, Note_on_c, 0, 81, 104
2, 81600, Note_on_c, 0, 81, 104
2, 81825, Note_on_c, 0, 81, 0
2, 81825, Note_on_c, 0, 81, 0
2, 84000, Note_on_c, 0, 83, 80
2, 84000, Note_on_c, 0, 79, 80
2, 84000, Control_c, 0, 7, 103
2, 84040, Control_c, 0, 7, 102
2, 84060, Control_c, 0, 7, 101
2, 84090, Control_c, 0, 7, 100
2, 84100, Control_c, 0, 7, 99
2, 84130, Control_c, 0, 7, 98
2, 84150, Control_c, 0, 7, 97
2, 84170, Control_c, 0, 7, 96
2, 84180, Control_c, 0, 7, 95
2, 84210, Control_c, 0, 7, 94
2, 84220, Control_c, 0, 7, 93
2, 84230, Control_c, 0, 7, 92
2, 84260, Control_c, 0, 7, 91
2, 84270, Control_c, 0, 7, 89
2, 84280, Control_c, 0, 7, 87
2, 84300, Control_c, 0, 7, 85
2, 84330, Control_c, 0, 7, 83
2, 84350, Control_c, 0, 7, 82
2, 84360, Note_on_c, 0, 79, 0
2, 84360, Note_on_c, 0, 83, 0
2, 84360, Note_on_c, 0, 81, 69
2, 84360, Note_on_c, 0, 78, 69
2, 84370, Control_c, 0, 7, 81
2, 84380, Control_c, 0, 7, 80
2, 84400, Control_c, 0, 7, 79
2, 84456, Note_on_c, 0, 78, 0
2, 84456, Note_on_c, 0, 81, 0
2, 84460, Control_c, 0, 7, 78
2, 84480, Note_on_c, 0, 83, 82
2, 84480, Note_on_c, 0, 79, 82
2, 84480, Control_c, 0, 7, 106
2, 84500, Control_c, 0, 7, 105
2, 84510, Control_c, 0, 7, 104
2, 84530, Control_c, 0, 7, 103
2, 84550, Control_c, 0, 7, 102
2, 84570, Control_c, 0, 7, 101
2, 84580, Control_c, 0, 7, 100
2, 84590, Control_c, 0, 7, 99
2, 84620, Control_c, 0, 7, 97
2, 84630, Control_c, 0, 7, 96
2, 84650, Control_c, 0, 7, 95
2, 84660, Control_c, 0, 7, 94
2, 84690, Control_c, 0, 7, 93
2, 84700, Control_c, 0, 7, 91
2, 84730, Control_c, 0, 7, 90
2, 84740, Control_c, 0, 7, 88
2, 84750, Control_c, 0, 7, 87
2, 84770, Control_c, 0, 7, 85
2, 84780, Control_c, 0, 7, 83
2, 84790, Control_c, 0, 7, 82
2, 84820, Control_c, 0, 7, 80
2, 84840, Note_on_c, 0, 79, 0
2, 84840, Note_on_c, 0, 83, 0
2, 84840, Note_on_c, 0, 78, 68
2, 84840, Note_on_c, 0, 81, 68
2, 84850, Control_c, 0, 7, 79
2, 84900, Control_c, 0, 7, 78
2, 84930, Control_c, 0, 7, 77
2, 84936, Note_on_c, 0, 81, 0
2, 84936, Note_on_c, 0, 78, 0
2, 84950, Control_c, 0, 7, 76
2, 84960, Note_on_c, 0, 76, 81
2, 84960, Note_on_c, 0, 79, 81
2, 85050, Note_on_c, 0, 79, 0
2, 85056, Note_on_c, 0, 76, 0
2, 85440, Note_on_c, 0, 85, 81
2, 85440, Note_on_c, 0, 81, 81
2, 85440, Control_c, 0, 7, 86
2, 85470, Control_c, 0, 7, 88
2, 85480, Control_c, 0, 7, 89
2, 85490, Control_c, 0, 7, 91
2, 85493, Note_on_c, 0, 81, 0
2, 85493, Note_on_c, 0, 85, 0
2, 85500, Note_on_c, 0, 86, 86
2, 85500, Note_on_c, 0, 83, 86
2, 85520, Control_c, 0, 7, 93
2, 85550, Control_c, 0, 7, 94
2, 85553, Note_on_c, 0, 83, 0
2, 85553, Note_on_c, 0, 86, 0
2, 85560, Note_on_c, 0, 88, 88
2, 85560, Note_on_c, 0, 85, 88
2, 85560, Control_c, 0, 7, 96
2, 85580, Control_c, 0, 7, 97
2, 85600, Control_c, 0, 7, 98
2, 85610, Control_c, 0, 7, 99
2, 85613, Note_on_c, 0, 85, 0
2, 85613, Note_on_c, 0, 88, 0
2, 85620, Note_on_c, 0, 86, 88
2, 85620, Note_on_c, 0, 83, 88
2, 85630, Control_c, 0, 7, 100
2, 85640, Control_c, 0, 7, 101
2, 85670, Control_c, 0, 7, 102
2, 85673, Note_on_c, 0, 83, 0
2, 85673, Note_on_c, 0, 86, 0
2, 85680, Note_on_c, 0, 85, 87
2, 85680, Note_on_c, 0, 81, 87
2, 85733, Note_on_c, 0, 81, 0
2, 85733, Note_on_c, 0, 85, 0
2, 85740, Note_on_c, 0, 83, 85
2, 85740, Note_on_c, 0, 79, 85
2, 85770, Control_c, 0, 7, 101
2, 85790, Control_c, 0, 7, 100
2, 85793, Note_on_c, 0, 79, 0
2, 85793, Note_on_c, 0, 83, 0
2, 85800, Note_on_c, 0, 81, 82
2, 85800, Note_on_c, 0, 78, 82
2, 85810, Control_c, 0, 7, 97
2, 85830, Control_c, 0, 7, 94
2, 85840, Control_c, 0, 7, 90
2, 85850, Control_c, 0, 7, 88
2, 85853, Note_on_c, 0, 78, 0
2, 85853, Note_on_c, 0, 81, 0
2, 85860, Note_on_c, 0, 79, 80
2, 85860, Note_on_c, 0, 76, 80
2, 85870, Control_c, 0, 7, 85
2, 85880, Control_c, 0, 7, 83
2, 85900, Control_c, 0, 7, 81
2, 85910, Control_c, 0, 7, 80
2, 85913, Note_on_c, 0, 76, 0
2, 85913, Note_on_c, 0, 79, 0
2, 85920, Note_on_c, 0, 78, 74
2, 85920, Note_on_c, 0, 74, 74
2, 85920, Control_c, 0, 7, 79
2, 85920, Control_c, 0, 7, 120
2, 85922, Control_c, 0, 7, 119
2, 85924, Control_c, 0, 7, 118
2, 85926, Control_c, 0, 7, 117
2, 85928, Control_c, 0, 7, 116
2, 85930, Control_c, 0, 7, 115
2, 85932, Control_c, 0, 7, 114
2, 85934, Control_c, 0, 7, 113
2, 85937, Control_c, 0, 7, 112
2, 85939, Control_c, 0, 7, 111
2, 85941, Control_c, 0, 7, 110
2, 85943, Control_c, 0, 7, 109
2, 85945, Control_c, 0, 7, 108
2, 85947, Control_c, 0, 7, 107
2, 85949, Control_c, 0, 7, 106
2, 85950, Control_c, 0, 7, 78
2, 85951, Control_c, 0, 7, 105
2, 85954, Control_c, 0, 7, 104
2, 85956, Control_c, 0, 7, 103
2, 85958, Control_c, 0, 7, 102
2, 85960, Control_c, 0, 7, 77
2, 85960, Control_c, 0, 7, 101
2, 85962, Control_c, 0, 7, 100
2, 85964, Control_c, 0, 7, 99
2, 85966, Control_c, 0, 7, 98
2, 85968, Control_c, 0, 7, 97
2, 85971, Control_c, 0, 7, 96
2, 85973, Control_c, 0, 7, 95
2, 85975, Control_c, 0, 7, 94
2, 85977, Control_c, 0, 7, 93
2, 85979, Control_c, 0, 7, 92
2, 85981, Control_c, 0, 7, 91
2, 85983, Control_c, 0, 7, 90
2, 85985, Control_c, 0, 7, 89
2, 85988, Control_c, 0, 7, 88
2, 85990, Control_c, 0, 7, 76
2, 85990, Control_c, 0, 7, 87
2, 85992, Control_c, 0, 7, 86
2, 85994, Control_c, 0, 7, 85
2, 85996, Control_c, 0, 7, 84
2, 85998, Control_c, 0, 7, 83
2, 86000, Control_c, 0, 7, 75
2, 86000, Control_c, 0, 7, 82
2, 86002, Control_c, 0, 7, 81
2, 86005, Control_c, 0, 7, 80
2, 86007, Control_c, 0, 7, 79
2, 86009, Control_c, 0, 7, 78
2, 86011, Control_c, 0, 7, 77
2, 86013, Control_c, 0, 7, 76
2, 86015, Control_c, 0, 7, 75
2, 86016, Note_on_c, 0, 74, 0
2, 86016, Note_on_c, 0, 78, 0
2, 86017, Control_c, 0, 7, 74
2, 86019, Control_c, 0, 7, 73
2, 86022, Control_c, 0, 7, 72
2, 86024, Control_c, 0, 7, 71
2, 86026, Control_c, 0, 7, 70
2, 86028, Control_c, 0, 7, 69
2, 86030, Control_c, 0, 7, 68
2, 86032, Control_c, 0, 7, 67
2, 86034, Control_c, 0, 7, 66
2, 86036, Control_c, 0, 7, 65
2, 86039, Control_c, 0, 7, 64
2, 86040, Control_c, 0, 7, 74
2, 86040, Control_c, 0, 7, 64
2, 87840, Note_on_c, 0, 83, 87
2, 87840, Note_on_c, 0, 79, 87
2, 87840, Control_c, 0, 7, 96
2, 87840, Control_c, 0, 7, 120
2, 87840, Control_c, 0, 7, 96
2, 87840, Control_c, 0, 7, 120
2, 87842, Control_c, 0, 7, 106
2, 87842, Control_c, 0, 7, 119
2, 87842, Control_c, 0, 7, 106
2, 87842, Control_c, 0, 7, 119
2, 87844, Control_c, 0, 7, 105
2, 87844, Control_c, 0, 7, 118
2, 87844, Control_c, 0, 7, 105
2, 87844, Control_c, 0, 7, 118
2, 87846, Control_c, 0, 7, 104
2, 87846, Control_c, 0, 7, 117
2, 87846, Control_c, 0, 7, 104
2, 87846, Control_c, 0, 7, 117
2, 87848, Control_c, 0, 7, 103
2, 87848, Control_c, 0, 7, 116
2, 87848, Control_c, 0, 7, 103
2, 87848, Control_c, 0, 7, 116
2, 87850, Control_c, 0, 7, 103
2, 87890, Control_c, 0, 7, 102
2, 87910, Control_c, 0, 7, 101
2, 87940, Control_c, 0, 7, 100
2, 87950, Control_c, 0, 7, 99
2, 87980, Control_c, 0, 7, 98
2, 88000, Control_c, 0, 7, 97
2, 88020, Control_c, 0, 7, 96
2, 88030, Control_c, 0, 7, 95
2, 88060, Control_c, 0, 7, 94
2, 88070, Control_c, 0, 7, 93
2, 88080, Control_c, 0, 7, 92
2, 88110, Control_c, 0, 7, 91
2, 88120, Control_c, 0, 7, 89
2, 88130, Control_c, 0, 7, 87
2, 88150, Control_c, 0, 7, 85
2, 88180, Control_c, 0, 7, 83
2, 88200, Note_on_c, 0, 79, 0
2, 88200, Note_on_c, 0, 83, 0
2, 88200, Note_on_c, 0, 78, 70
2, 88200, Note_on_c, 0, 81, 70
2, 88200, Control_c, 0, 7, 82
2, 88220, Control_c, 0, 7, 81
2, 88230, Control_c, 0, 7, 80
2, 88250, Control_c, 0, 7, 79
2, 88310, Control_c, 0, 7, 78
2, 88313, Control_c, 0, 7, 106
2, 88313, Control_c, 0, 7, 106
2, 88315, Control_c, 0, 7, 105
2, 88315, Control_c, 0, 7, 105
2, 88317, Control_c, 0, 7, 104
2, 88317, Control_c, 0, 7, 104
2, 88319, Control_c, 0, 7, 64
2, 88319, Control_c, 0, 7, 103
2, 88319, Control_c, 0, 7, 64
2, 88319, Control_c, 0, 7, 103
2, 88320, Note_on_c, 0, 81, 0
2, 88320, Note_on_c, 0, 78, 0
2, 88320, Note_on_c, 0, 83, 88
2, 88320, Note_on_c, 0, 79, 88
2, 88320, Control_c, 0, 7, 96
2, 88320, Control_c, 0, 7, 120
2, 88320, Control_c, 0, 7, 96
2, 88320, Control_c, 0, 7, 120
2, 88321, Control_c, 0, 7, 102
2, 88321, Control_c, 0, 7, 102
2, 88322, Control_c, 0, 7, 119
2, 88322, Control_c, 0, 7, 119
2, 88323, Control_c, 0, 7, 101
2, 88323, Control_c, 0, 7, 101
2, 88324, Control_c, 0, 7, 118
2, 88324, Control_c, 0, 7, 118
2, 88325, Control_c, 0, 7, 100
2, 88325, Control_c, 0, 7, 100
2, 88326, Control_c, 0, 7, 117
2, 88326, Control_c, 0, 7, 117
2, 88328, Control_c, 0, 7, 99
2, 88328, Control_c, 0, 7, 116
2, 88328, Control_c, 0, 7, 99
2, 88328, Control_c, 0, 7, 116
2, 88330, Control_c, 0, 7, 106
2, 88350, Control_c, 0, 7, 105
2, 88360, Control_c, 0, 7, 104
2, 88380, Control_c, 0, 7, 103
2, 88400, Control_c, 0, 7, 102
2, 88420, Control_c, 0, 7, 101
2, 88430, Control_c, 0, 7, 100
2, 88440, Control_c, 0, 7, 99
2, 88470, Control_c, 0, 7, 97
2, 88480, Control_c, 0, 7, 96
2, 88500, Control_c, 0, 7, 95
2, 88510, Control_c, 0, 7, 94
2, 88540, Control_c, 0, 7, 93
2, 88550, Control_c, 0, 7, 91
2, 88580, Control_c, 0, 7, 90
2, 88590, Control_c, 0, 7, 88
2, 88600, Control_c, 0, 7, 87
2, 88620, Control_c, 0, 7, 85
2, 88630, Control_c, 0, 7, 83
2, 88640, Control_c, 0, 7, 82
2, 88670, Control_c, 0, 7, 80
2, 88680, Note_on_c, 0, 79, 0
2, 88680, Note_on_c, 0, 83, 0
2, 88680, Note_on_c, 0, 78, 73
2, 88680, Note_on_c, 0, 81, 73
2, 88700, Control_c, 0, 7, 79
2, 88750, Control_c, 0, 7, 78
2, 88780, Control_c, 0, 7, 77
2, 88800, Note_on_c, 0, 81, 0
2, 88800, Note_on_c, 0, 78, 0
2, 88800, Note_on_c, 0, 79, 89
2, 88800, Note_on_c, 0, 76, 89
2, 88800, Control_c, 0, 7, 76
2, 88920, Note_on_c, 0, 76, 0
2, 88920, Note_on_c, 0, 79, 0
2, 89281, Note_on_c, 0, 85, 79
2, 89281, Note_on_c, 0, 81, 79
2, 89281, Control_c, 0, 7, 86
2, 89311, Control_c, 0, 7, 88
2, 89321, Control_c, 0, 7, 89
2, 89331, Control_c, 0, 7, 91
2, 89334, Note_on_c, 0, 81, 0
2, 89334, Note_on_c, 0, 85, 0
2, 89341, Note_on_c, 0, 86, 83
2, 89341, Note_on_c, 0, 83, 83
2, 89361, Control_c, 0, 7, 93
2, 89391, Control_c, 0, 7, 94
2, 89394, Note_on_c, 0, 83, 0
2, 89394, Note_on_c, 0, 86, 0
2, 89401, Note_on_c, 0, 88, 84
2, 89401, Note_on_c, 0, 85, 84
2, 89401, Control_c, 0, 7, 96
2, 89421, Control_c, 0, 7, 97
2, 89441, Control_c, 0, 7, 98
2, 89451, Control_c, 0, 7, 99
2, 89454, Note_on_c, 0, 85, 0
2, 89454, Note_on_c, 0, 88, 0
2, 89461, Note_on_c, 0, 86, 84
2, 89461, Note_on_c, 0, 83, 84
2, 89471, Control_c, 0, 7, 100
2, 89481, Control_c, 0, 7, 101
2, 89511, Control_c, 0, 7, 102
2, 89514, Note_on_c, 0, 83, 0
2, 89514, Note_on_c, 0, 86, 0
2, 89521, Note_on_c, 0, 85, 81
2, 89521, Note_on_c, 0, 81, 81
2, 89574, Note_on_c, 0, 81, 0
2, 89574, Note_on_c, 0, 85, 0
2, 89581, Note_on_c, 0, 83, 78
2, 89581, Note_on_c, 0, 79, 78
2, 89611, Control_c, 0, 7, 101
2, 89631, Control_c, 0, 7, 100
2, 89634, Note_on_c, 0, 79, 0
2, 89634, Note_on_c, 0, 83, 0
2, 89641, Note_on_c, 0, 81, 75
2, 89641, Note_on_c, 0, 78, 75
2, 89651, Control_c, 0, 7, 97
2, 89671, Control_c, 0, 7, 94
2, 89681, Control_c, 0, 7, 90
2, 89691, Control_c, 0, 7, 88
2, 89694, Note_on_c, 0, 78, 0
2, 89694, Note_on_c, 0, 81, 0
2, 89701, Note_on_c, 0, 79, 72
2, 89701, Note_on_c, 0, 76, 72
2, 89711, Control_c, 0, 7, 85
2, 89721, Control_c, 0, 7, 83
2, 89741, Control_c, 0, 7, 81
2, 89751, Control_c, 0, 7, 80
2, 89754, Note_on_c, 0, 76, 0
2, 89754, Note_on_c, 0, 79, 0
2, 89760, Note_on_c, 0, 74, 67
2, 89760, Note_on_c, 0, 78, 67
2, 89856, Note_on_c, 0, 78, 0
2, 89856, Note_on_c, 0, 74, 0
2, 89910, Control_c, 0, 7, 107
2, 90000, Note_on_c, 0, 90, 109
2, 90000, Note_on_c, 0, 83, 109
2, 90096, Note_on_c, 0, 83, 0
2, 90096, Note_on_c, 0, 90, 0
2, 90960, Note_on_c, 0, 81, 72
2, 90960, Note_on_c, 0, 88, 72
2, 91056, Note_on_c, 0, 88, 0
2, 91056, Note_on_c, 0, 81, 0
2, 91920, Note_on_c, 0, 79, 72
2, 91920, Note_on_c, 0, 86, 72
2, 92016, Note_on_c, 0, 86, 0
2, 92016, Note_on_c, 0, 79, 0
2, 92630, Control_c, 0, 7, 82
2, 92640, Note_on_c, 0, 81, 96
2, 92640, Note_on_c, 0, 85, 96
2, 92820, Control_c, 0, 7, 83
2, 92900, Control_c, 0, 7, 84
2, 93120, Note_on_c, 0, 85, 0
2, 93120, Note_on_c, 0, 81, 0
2, 93120, Note_on_c, 0, 81, 98
2, 93120, Note_on_c, 0, 86, 98
2, 93180, Control_c, 0, 7, 85
2, 93280, Control_c, 0, 7, 86
2, 93360, Control_c, 0, 7, 87
2, 93570, Control_c, 0, 7, 89
2, 93600, Note_on_c, 0, 86, 0
2, 93600, Note_on_c, 0, 81, 0
2, 93600, Note_on_c, 0, 85, 101
2, 93600, Note_on_c, 0, 88, 101
2, 93730, Control_c, 0, 7, 90
2, 93950, Control_c, 0, 7, 91
2, 94050, Control_c, 0, 7, 92
2, 94080, Note_on_c, 0, 88, 0
2, 94080, Note_on_c, 0, 85, 0
2, 94080, Note_on_c, 0, 90, 105
2, 94080, Note_on_c, 0, 86, 105
2, 94190, Control_c, 0, 7, 93
2, 94290, Control_c, 0, 7, 94
2, 94320, Note_on_c, 0, 86, 0
2, 94320, Note_on_c, 0, 90, 0
2, 94320, Note_on_c, 0, 88, 105
2, 94320, Note_on_c, 0, 91, 105
2, 94370, Control_c, 0, 7, 96
2, 94470, Control_c, 0, 7, 97
2, 94560, Note_on_c, 0, 91, 0
2, 94560, Note_on_c, 0, 88, 0
2, 94560, Note_on_c, 0, 90, 105
2, 94560, Note_on_c, 0, 86, 105
2, 94570, Control_c, 0, 7, 98
2, 94670, Control_c, 0, 7, 100
2, 94750, Control_c, 0, 7, 101
2, 94810, Control_c, 0, 7, 102
2, 94900, Control_c, 0, 7, 104
2, 94990, Control_c, 0, 7, 105
2, 95030, Control_c, 0, 7, 106
2, 95200, Control_c, 0, 7, 107
2, 95220, Control_c, 0, 7, 108
2, 95280, Control_c, 0, 7, 109
2, 95300, Control_c, 0, 7, 110
2, 95400, Control_c, 0, 7, 112
2, 95480, Control_c, 0, 7, 114
2, 95600, Control_c, 0, 7, 116
2, 95720, Control_c, 0, 7, 118
2, 95730, Control_c, 0, 7, 119
2, 95800, Control_c, 0, 7, 120
2, 95860, Control_c, 0, 7, 121
2, 95880, Control_c, 0, 7, 121
2, 95950, Control_c, 0, 7, 120
2, 96010, Control_c, 0, 7, 118
2, 96070, Control_c, 0, 7, 116
2, 96130, Control_c, 0, 7, 115
2, 96150, Control_c, 0, 7, 113
2, 96170, Control_c, 0, 7, 112
2, 96230, Control_c, 0, 7, 110
2, 96290, Control_c, 0, 7, 109
2, 96330, Control_c, 0, 7, 108
2, 96390, Control_c, 0, 7, 107
2, 96470, Control_c, 0, 7, 105
2, 96550, Control_c, 0, 7, 103
2, 96630, Control_c, 0, 7, 102
2, 96690, Control_c, 0, 7, 101
2, 96840, Control_c, 0, 7, 100
2, 97440, Note_on_c, 0, 90, 0
2, 97440, Note_on_c, 0, 89, 101
2, 97440, Control_c, 0, 7, 126
2, 97570, Control_c, 0, 7, 125
2, 97660, Control_c, 0, 7, 124
2, 97740, Control_c, 0, 7, 123
2, 97760, Control_c, 0, 7, 122
2, 97780, Control_c, 0, 7, 121
2, 97860, Control_c, 0, 7, 120
2, 97920, Note_on_c, 0, 89, 0
2, 97920, Note_on_c, 0, 88, 101
2, 97950, Control_c, 0, 7, 119
2, 97960, Control_c, 0, 7, 118
2, 97990, Control_c, 0, 7, 117
2, 98140, Control_c, 0, 7, 116
2, 98160, Note_on_c, 0, 86, 0
2, 98160, Note_on_c, 0, 85, 101
2, 98180, Control_c, 0, 7, 115
2, 98200, Control_c, 0, 7, 114
2, 98260, Control_c, 0, 7, 113
2, 98320, Control_c, 0, 7, 111
2, 98340, Note_on_c, 0, 88, 0
2, 98340, Control_c, 0, 7, 110
2, 98352, Note_on_c, 0, 85, 0
2, 98370, Control_c, 0, 7, 109
2, 98400, Note_on_c, 0, 90, 101
2, 98400, Note_on_c, 0, 86, 101
2, 98420, Control_c, 0, 7, 108
2, 98450, Control_c, 0, 7, 107
2, 98510, Control_c, 0, 7, 106
2, 98530, Control_c, 0, 7, 105
2, 98590, Control_c, 0, 7, 104
2, 98592, Note_on_c, 0, 86, 0
2, 98592, Note_on_c, 0, 90, 0
2, 98630, Control_c, 0, 7, 103
2, 98640, Note_on_c, 0, 83, 112
2, 98640, Note_on_c, 0, 79, 112
2, 98690, Control_c, 0, 7, 102
2, 98710, Control_c, 0, 7, 101
2, 98770, Control_c, 0, 7, 100
2, 98830, Control_c, 0, 7, 98
2, 98832, Note_on_c, 0, 79, 0
2, 98832, Note_on_c, 0, 83, 0
2, 98880, Note_on_c, 0, 78, 101
2, 98880, Note_on_c, 0, 86, 101
2, 98910, Control_c, 0, 7, 97
2, 98990, Control_c, 0, 7, 95
2, 99010, Control_c, 0, 7, 94
2, 99020, Control_c, 0, 7, 93
2, 99072, Note_on_c, 0, 86, 0
2, 99072, Note_on_c, 0, 78, 0
2, 99090, Control_c, 0, 7, 92
2, 99120, Note_on_c, 0, 85, 83
2, 99120, Note_on_c, 0, 76, 83
2, 99150, Control_c, 0, 7, 90
2, 99210, Control_c, 0, 7, 89
2, 99230, Control_c, 0, 7, 88
2, 99270, Control_c, 0, 7, 87
2, 99312, Note_on_c, 0, 76, 0
2, 99312, Note_on_c, 0, 85, 0
2, 99350, Control_c, 0, 7, 85
2, 99360, Note_on_c, 0, 78, 72
2, 99360, Note_on_c, 0, 86, 72
2, 99430, Control_c, 0, 7, 84
2, 99456, Note_on_c, 0, 86, 0
2, 99456, Note_on_c, 0, 78, 0
2, 99490, Control_c, 0, 7, 83
2, 99510, Control_c, 0, 7, 82
2, 99530, Control_c, 0, 7, 81
2, 99600, Control_c, 0, 7, 79
2, 99660, Control_c, 0, 7, 78
2, 99760, Control_c, 0, 7, 76
2, 99790, Control_c, 0, 7, 75
2, 99800, Control_c, 0, 7, 74
2, 100440, Control_c, 0, 7, 96
2, 100440, Control_c, 0, 7, 96
2, 100447, Control_c, 0, 7, 95
2, 100447, Control_c, 0, 7, 95
2, 100454, Control_c, 0, 7, 94
2, 100454, Control_c, 0, 7, 94
2, 100462, Control_c, 0, 7, 93
2, 100462, Control_c, 0, 7, 93
2, 100469, Control_c, 0, 7, 92
2, 100469, Control_c, 0, 7, 92
2, 100477, Control_c, 0, 7, 91
2, 100477, Control_c, 0, 7, 91
2, 100484, Control_c, 0, 7, 90
2, 100484, Control_c, 0, 7, 90
2, 100492, Control_c, 0, 7, 89
2, 100492, Control_c, 0, 7, 89
2, 100499, Control_c, 0, 7, 88
2, 100499, Control_c, 0, 7, 88
2, 100507, Control_c, 0, 7, 87
2, 100507, Control_c, 0, 7, 87
2, 100514, Control_c, 0, 7, 86
2, 100514, Control_c, 0, 7, 86
2, 100522, Control_c, 0, 7, 85
2, 100522, Control_c, 0, 7, 85
2, 100529, Control_c, 0, 7, 84
2, 100529, Control_c, 0, 7, 84
2, 100537, Control_c, 0, 7, 83
2, 100537, Control_c, 0, 7, 83
2, 100544, Control_c, 0, 7, 82
2, 100544, Control_c, 0, 7, 82
2, 100552, Control_c, 0, 7, 81
2, 100552, Control_c, 0, 7, 81
2, 100559, Control_c, 0, 7, 80
2, 100559, Control_c, 0, 7, 80
2, 100566, Control_c, 0, 7, 79
2, 100566, Control_c, 0, 7, 79
2, 100574, Control_c, 0, 7, 78
2, 100574, Control_c, 0, 7, 78
2, 100581, Control_c, 0, 7, 77
2, 100581, Control_c, 0, 7, 77
2, 100589, Control_c, 0, 7, 76
2, 100589, Control_c, 0, 7, 76
2, 100596, Control_c, 0, 7, 75
2, 100596, Control_c, 0, 7, 75
2, 100604, Control_c, 0, 7, 74
2, 100604, Control_c, 0, 7, 74
2, 100611, Control_c, 0, 7, 73
2, 100611, Control_c, 0, 7, 73
2, 100619, Control_c, 0, 7, 72
2, 100619, Control_c, 0, 7, 72
2, 100626, Control_c, 0, 7, 71
2, 100626, Control_c, 0, 7, 71
2, 100634, Control_c, 0, 7, 70
2, 100634, Control_c, 0, 7, 70
2, 100641, Control_c, 0, 7, 69
2, 100641, Control_c, 0, 7, 69
2, 100649, Control_c, 0, 7, 68
2, 100649, Control_c, 0, 7, 68
2, 100656, Control_c, 0, 7, 67
2, 100656, Control_c, 0, 7, 67
2, 100664, Control_c, 0, 7, 66
2, 100664, Control_c, 0, 7, 66
2, 100671, Control_c, 0, 7, 65
2, 100671, Control_c, 0, 7, 65
2, 100679, Control_c, 0, 7, 64
2, 100679, Control_c, 0, 7, 64
2, 101400, Control_c, 0, 7, 96
2, 101400, Control_c, 0, 7, 96
2, 101407, Control_c, 0, 7, 95
2, 101407, Control_c, 0, 7, 95
2, 101415, Control_c, 0, 7, 94
2, 101415, Control_c, 0, 7, 94
2, 101422, Control_c, 0, 7, 93
2, 101422, Control_c, 0, 7, 93
2, 101430, Control_c, 0, 7, 92
2, 101430, Control_c, 0, 7, 92
2, 101437, Control_c, 0, 7, 91
2, 101437, Control_c, 0, 7, 91
2, 101445, Control_c, 0, 7, 90
2, 101445, Control_c, 0, 7, 90
2, 101452, Control_c, 0, 7, 89
2, 101452, Control_c, 0, 7, 89
2, 101460, Control_c, 0, 7, 88
2, 101460, Control_c, 0, 7, 88
2, 101467, Control_c, 0, 7, 87
2, 101467, Control_c, 0, 7, 87
2, 101475, Control_c, 0, 7, 86
2, 101475, Control_c, 0, 7, 86
2, 101482, Control_c, 0, 7, 85
2, 101482, Control_c, 0, 7, 85
2, 101490, Control_c, 0, 7, 84
2, 101490, Control_c, 0, 7, 84
2, 101497, Control_c, 0, 7, 83
2, 101497, Control_c, 0, 7, 83
2, 101505, Control_c, 0, 7, 82
2, 101505, Control_c, 0, 7, 82
2, 101512, Control_c, 0, 7, 81
2, 101512, Control_c, 0, 7, 81
2, 101520, Control_c, 0, 7, 80
2, 101520, Control_c, 0, 7, 80
2, 101527, Control_c, 0, 7, 79
2, 101527, Control_c, 0, 7, 79
2, 101535, Control_c, 0, 7, 78
2, 101535, Control_c, 0, 7, 78
2, 101542, Control_c, 0, 7, 77
2, 101542, Control_c, 0, 7, 77
2, 101550, Control_c, 0, 7, 76
2, 101550, Control_c, 0, 7, 76
2, 101557, Control_c, 0, 7, 75
2, 101557, Control_c, 0, 7, 75
2, 101565, Control_c, 0, 7, 74
2, 101565, Control_c, 0, 7, 74
2, 101572, Control_c, 0, 7, 73
2, 101572, Control_c, 0, 7, 73
2, 101580, Control_c, 0, 7, 72
2, 101580, Control_c, 0, 7, 72
2, 101587, Control_c, 0, 7, 71
2, 101587, Control_c, 0, 7, 71
2, 101595, Control_c, 0, 7, 70
2, 101595, Control_c, 0, 7, 70
2, 101602, Control_c, 0, 7, 69
2, 101602, Control_c, 0, 7, 69
2, 101610, Control_c, 0, 7, 68
2, 101610, Control_c, 0, 7, 68
2, 101617, Control_c, 0, 7, 67
2, 101617, Control_c, 0, 7, 67
2, 101625, Control_c, 0, 7, 66
2, 101625, Control_c, 0, 7, 66
2, 101632, Control_c, 0, 7, 65
2, 101632, Control_c, 0, 7, 65
2, 101640, Control_c, 0, 7, 64
2, 101640, Control_c, 0, 7, 64
2, 108000, Control_c, 0, 7, 64
2, 108000, Control_c, 0, 7, 64
2, 108029, Control_c, 0, 7, 65
2, 108029, Control_c, 0, 7, 65
2, 108059, Control_c, 0, 7, 66
2, 108059, Control_c, 0, 7, 66
2, 108089, Control_c, 0, 7, 67
2, 108089, Control_c, 0, 7, 67
2, 108119, Control_c, 0, 7, 68
2, 108119, Control_c, 0, 7, 68
2, 108149, Control_c, 0, 7, 69
2, 108149, Control_c, 0, 7, 69
2, 108179, Control_c, 0, 7, 70
2, 108179, Control_c, 0, 7, 70
2, 108209, Control_c, 0, 7, 71
2, 108209, Control_c, 0, 7, 71
2, 108239, Control_c, 0, 7, 72
2, 108239, Control_c, 0, 7, 72
2, 108269, Control_c, 0, 7, 73
2, 108269, Control_c, 0, 7, 73
2, 108299, Control_c, 0, 7, 74
2, 108299, Control_c, 0, 7, 74
2, 108329, Control_c, 0, 7, 75
2, 108329, Control_c, 0, 7, 75
2, 108359, Control_c, 0, 7, 76
2, 108359, Control_c, 0, 7, 76
2, 108389, Control_c, 0, 7, 77
2, 108389, Control_c, 0, 7, 77
2, 108419, Control_c, 0, 7, 78
2, 108419, Control_c, 0, 7, 78
2, 108449, Control_c, 0, 7, 79
2, 108449, Control_c, 0, 7, 79
2, 108479, Control_c, 0, 7, 80
2, 108479, Control_c, 0, 7, 80
2, 108509, Control_c, 0, 7, 81
2, 108509, Control_c, 0, 7, 81
2, 108539, Control_c, 0, 7, 82
2, 108539, Control_c, 0, 7, 82
2, 108569, Control_c, 0, 7, 83
2, 108569, Control_c, 0, 7, 83
2, 108599, Control_c, 0, 7, 84
2, 108599, Control_c, 0, 7, 84
2, 108629, Control_c, 0, 7, 85
2, 108629, Control_c, 0, 7, 85
2, 108659, Control_c, 0, 7, 86
2, 108659, Control_c, 0, 7, 86
2, 108689, Control_c, 0, 7, 87
2, 108689, Control_c, 0, 7, 87
2, 108719, Control_c, 0, 7, 88
2, 108719, Control_c, 0, 7, 88
2, 108749, Control_c, 0, 7, 89
2, 108749, Control_c, 0, 7, 89
2, 108779, Control_c, 0, 7, 90
2, 108779, Control_c, 0, 7, 90
2, 108809, Control_c, 0, 7, 91
2, 108809, Control_c, 0, 7, 91
2, 108839, Control_c, 0, 7, 92
2, 108839, Control_c, 0, 7, 92
2, 108869, Control_c, 0, 7, 93
2, 108869, Control_c, 0, 7, 93
2, 108899, Control_c, 0, 7, 94
2, 108899, Control_c, 0, 7, 94
2, 108929, Control_c, 0, 7, 95
2, 108929, Control_c, 0, 7, 95
2, 108959, Control_c, 0, 7, 96
2, 108959, Control_c, 0, 7, 96
2, 108960, Control_c, 0, 7, 96
2, 108960, Control_c, 0, 7, 96
2, 108974, Control_c, 0, 7, 95
2, 108974, Control_c, 0, 7, 95
2, 108989, Control_c, 0, 7, 94
2, 108989, Control_c, 0, 7, 94
2, 109004, Control_c, 0, 7, 93
2, 109004, Control_c, 0, 7, 93
2, 109019, Control_c, 0, 7, 92
2, 109019, Control_c, 0, 7, 92
2, 109034, Control_c, 0, 7, 91
2, 109034, Control_c, 0, 7, 91
2, 109049, Control_c, 0, 7, 90
2, 109049, Control_c, 0, 7, 90
2, 109064, Control_c, 0, 7, 89
2, 109064, Control_c, 0, 7, 89
2, 109079, Control_c, 0, 7, 88
2, 109079, Control_c, 0, 7, 88
2, 109094, Control_c, 0, 7, 87
2, 109094, Control_c, 0, 7, 87
2, 109109, Control_c, 0, 7, 86
2, 109109, Control_c, 0, 7, 86
2, 109124, Control_c, 0, 7, 85
2, 109124, Control_c, 0, 7, 85
2, 109139, Control_c, 0, 7, 84
2, 109139, Control_c, 0, 7, 84
2, 109154, Control_c, 0, 7, 83
2, 109154, Control_c, 0, 7, 83
2, 109169, Control_c, 0, 7, 82
2, 109169, Control_c, 0, 7, 82
2, 109184, Control_c, 0, 7, 81
2, 109184, Control_c, 0, 7, 81
2, 109199, Control_c, 0, 7, 80
2, 109199, Control_c, 0, 7, 80
2, 109214, Control_c, 0, 7, 79
2, 109214, Control_c, 0, 7, 79
2, 109229, Control_c, 0, 7, 78
2, 109229, Control_c, 0, 7, 78
2, 109244, Control_c, 0, 7, 77
2, 109244, Control_c, 0, 7, 77
2, 109259, Control_c, 0, 7, 76
2, 109259, Control_c, 0, 7, 76
2, 109274, Control_c, 0, 7, 75
2, 109274, Control_c, 0, 7, 75
2, 109289, Control_c, 0, 7, 74
2, 109289, Control_c, 0, 7, 74
2, 109304, Control_c, 0, 7, 73
2, 109304, Control_c, 0, 7, 73
2, 109319, Control_c, 0, 7, 72
2, 109319, Control_c, 0, 7, 72
2, 109920, Control_c, 0, 7, 99
2, 109930, Control_c, 0, 7, 125
2, 109960, Control_c, 0, 7, 124
2, 109990, Control_c, 0, 7, 123
2, 110030, Control_c, 0, 7, 122
2, 110060, Control_c, 0, 7, 121
2, 110140, Control_c, 0, 7, 120
2, 110160, Note_on_c, 0, 88, 66
2, 110160, Note_on_c, 0, 79, 66
2, 110250, Control_c, 0, 7, 119
2, 110330, Control_c, 0, 7, 118
2, 110350, Control_c, 0, 7, 117
2, 110400, Note_on_c, 0, 79, 0
2, 110400, Note_on_c, 0, 88, 0
2, 110400, Note_on_c, 0, 86, 71
2, 110400, Note_on_c, 0, 78, 71
2, 110430, Control_c, 0, 7, 116
2, 110560, Control_c, 0, 7, 115
2, 110640, Note_on_c, 0, 78, 0
2, 110640, Note_on_c, 0, 86, 0
2, 110640, Note_on_c, 0, 85, 83
2, 110640, Note_on_c, 0, 76, 83
2, 110720, Control_c, 0, 7, 114
2, 110790, Control_c, 0, 7, 113
2, 110810, Control_c, 0, 7, 112
2, 110870, Control_c, 0, 7, 111
2, 110880, Note_on_c, 0, 76, 0
2, 110880, Note_on_c, 0, 85, 0
2, 110880, Note_on_c, 0, 86, 88
2, 110880, Note_on_c, 0, 78, 88
2, 110950, Control_c, 0, 7, 110
2, 110990, Control_c, 0, 7, 109
2, 111030, Note_on_c, 0, 78, 0
2, 111030, Note_on_c, 0, 86, 0
2, 111060, Control_c, 0, 7, 108
2, 111160, Control_c, 0, 7, 107
2, 111290, Control_c, 0, 7, 110
2, 111310, Control_c, 0, 7, 116
2, 111320, Control_c, 0, 7, 120
2, 111360, Note_on_c, 0, 86, 92
2, 111450, Control_c, 0, 7, 119
2, 111460, Control_c, 0, 7, 118
2, 111490, Control_c, 0, 7, 117
2, 111510, Control_c, 0, 7, 115
2, 111550, Control_c, 0, 7, 114
2, 111570, Control_c, 0, 7, 113
2, 111590, Control_c, 0, 7, 112
2, 111650, Control_c, 0, 7, 111
2, 111670, Control_c, 0, 7, 109
2, 111720, Note_on_c, 0, 86, 0
2, 111720, Note_on_c, 0, 78, 80
2, 111730, Control_c, 0, 7, 107
2, 111800, Control_c, 0, 7, 106
2, 111810, Control_c, 0, 7, 105
2, 111840, Note_on_c, 0, 78, 0
2, 111840, Note_on_c, 0, 76, 64
2, 111840, Control_c, 0, 7, 104
2, 111880, Control_c, 0, 7, 103
2, 111900, Control_c, 0, 7, 102
2, 111920, Control_c, 0, 7, 101
2, 111940, Control_c, 0, 7, 99
2, 111960, Note_on_c, 0, 76, 0
2, 111960, Control_c, 0, 7, 98
2, 112020, Control_c, 0, 7, 96
2, 112030, Control_c, 0, 7, 95
2, 112310, Control_c, 0, 7, 113
2, 112320, Note_on_c, 0, 91, 93
2, 112350, Control_c, 0, 7, 112
2, 112420, Control_c, 0, 7, 111
2, 112440, Note_on_c, 0, 91, 0
2, 112440, Note_on_c, 0, 88, 83
2, 112460, Control_c, 0, 7, 110
2, 112490, Control_c, 0, 7, 109
2, 112530, Control_c, 0, 7, 108
2, 112550, Control_c, 0, 7, 107
2, 112560, Note_on_c, 0, 88, 0
2, 112560, Note_on_c, 0, 85, 67
2, 112590, Control_c, 0, 7, 106
2, 112620, Control_c, 0, 7, 105
2, 112650, Control_c, 0, 7, 104
2, 112656, Note_on_c, 0, 85, 0
2, 112670, Control_c, 0, 7, 103
2, 112680, Note_on_c, 0, 85, 56
2, 112700, Control_c, 0, 7, 102
2, 112730, Control_c, 0, 7, 101
2, 112770, Control_c, 0, 7, 100
2, 112776, Note_on_c, 0, 85, 0
2, 112800, Note_on_c, 0, 86, 53
2, 112800, Control_c, 0, 7, 98
2, 112810, Control_c, 0, 7, 97
2, 112920, Note_on_c, 0, 86, 0
2, 114720, Control_c, 0, 7, 48
2, 114792, Control_c, 0, 7, 49
2, 114865, Control_c, 0, 7, 50
2, 114938, Control_c, 0, 7, 51
2, 115011, Control_c, 0, 7, 52
2, 115084, Control_c, 0, 7, 53
2, 115157, Control_c, 0, 7, 54
2, 115230, Control_c, 0, 7, 55
2, 115303, Control_c, 0, 7, 56
2, 115376, Control_c, 0, 7, 57
2, 115448, Control_c, 0, 7, 58
2, 115521, Control_c, 0, 7, 59
2, 115594, Control_c, 0, 7, 60
2, 115667, Control_c, 0, 7, 61
2, 115740, Control_c, 0, 7, 62
2, 115813, Control_c, 0, 7, 63
2, 115886, Control_c, 0, 7, 64
2, 115959, Control_c, 0, 7, 65
2, 116032, Control_c, 0, 7, 66
2, 116105, Control_c, 0, 7, 67
2, 116177, Control_c, 0, 7, 68
2, 116250, Control_c, 0, 7, 69
2, 116323, Control_c, 0, 7, 70
2, 116396, Control_c, 0, 7, 71
2, 116469, Control_c, 0, 7, 72
2, 116542, Control_c, 0, 7, 73
2, 116615, Control_c, 0, 7, 74
2, 116688, Control_c, 0, 7, 75
2, 116761, Control_c, 0, 7, 76
2, 116834, Control_c, 0, 7, 77
2, 116906, Control_c, 0, 7, 78
2, 116979, Control_c, 0, 7, 79
2, 117052, Control_c, 0, 7, 80
2, 117125, Control_c, 0, 7, 81
2, 117198, Control_c, 0, 7, 82
2, 117271, Control_c, 0, 7, 83
2, 117344, Control_c, 0, 7, 84
2, 117417, Control_c, 0, 7, 85
2, 117490, Control_c, 0, 7, 86
2, 117563, Control_c, 0, 7, 87
2, 117635, Control_c, 0, 7, 88
2, 117708, Control_c, 0, 7, 89
2, 117781, Control_c, 0, 7, 90
2, 117854, Control_c, 0, 7, 91
2, 117927, Control_c, 0, 7, 92
2, 118000, Control_c, 0, 7, 93
2, 118073, Control_c, 0, 7, 94
2, 118146, Control_c, 0, 7, 95
2, 118219, Control_c, 0, 7, 96
2, 118292, Control_c, 0, 7, 97
2, 118364, Control_c, 0, 7, 98
2, 118437, Control_c, 0, 7, 99
2, 118510, Control_c, 0, 7, 100
2, 118583, Control_c, 0, 7, 101
2, 118656, Control_c, 0, 7, 102
2, 118729, Control_c, 0, 7, 103
2, 118802, Control_c, 0, 7, 104
2, 118875, Control_c, 0, 7, 105
2, 118948, Control_c, 0, 7, 106
2, 119021, Control_c, 0, 7, 107
2, 119040, Note_on_c, 0, 84, 92
2, 119040, Note_on_c, 0, 81, 92
2, 119093, Control_c, 0, 7, 108
2, 119166, Control_c, 0, 7, 109
2, 119239, Control_c, 0, 7, 110
2, 119312, Control_c, 0, 7, 111
2, 119385, Control_c, 0, 7, 112
2, 119458, Control_c, 0, 7, 113
2, 119520, Note_on_c, 0, 81, 0
2, 119520, Note_on_c, 0, 84, 0
2, 119520, Note_on_c, 0, 83, 92
2, 119520, Note_on_c, 0, 79, 92
2, 119531, Control_c, 0, 7, 114
2, 119604, Control_c, 0, 7, 115
2, 119677, Control_c, 0, 7, 116
2, 119750, Control_c, 0, 7, 117
2, 119760, Note_on_c, 0, 79, 0
2, 119760, Note_on_c, 0, 83, 0
2, 119760, Note_on_c, 0, 81, 92
2, 119760, Note_on_c, 0, 78, 92
2, 119822, Control_c, 0, 7, 118
2, 119895, Control_c, 0, 7, 119
2, 119968, Control_c, 0, 7, 120
2, 120000, Note_on_c, 0, 78, 0
2, 120000, Note_on_c, 0, 81, 0
2, 120000, Note_on_c, 0, 79, 92
2, 120000, Note_on_c, 0, 83, 92
2, 120041, Control_c, 0, 7, 121
2, 120114, Control_c, 0, 7, 122
2, 120187, Control_c, 0, 7, 123
2, 120216, Note_on_c, 0, 83, 0
2, 120240, Note_on_c, 0, 85, 92
2, 120260, Control_c, 0, 7, 124
2, 120333, Control_c, 0, 7, 125
2, 120406, Control_c, 0, 7, 126
2, 120432, Note_on_c, 0, 79, 0
2, 120456, Note_on_c, 0, 85, 0
2, 120479, Control_c, 0, 7, 127
2, 120480, Note_on_c, 0, 86, 92
2, 120480, Note_on_c, 0, 78, 92
2, 120696, Note_on_c, 0, 78, 0
2, 120720, Note_on_c, 0, 86, 92
2, 122520, Note_on_c, 0, 86, 0
2, 122520, Note_on_c, 0, 86, 0
2, 122760, Note_on_c, 0, 85, 92
2, 122760, Note_on_c, 0, 81, 92
2, 122880, Note_on_c, 0, 86, 109
2, 122880, Note_on_c, 0, 81, 109
2, 122890, Note_on_c, 0, 81, 0
2, 122890, Note_on_c, 0, 85, 0
2, 122988, Note_on_c, 0, 86, 0
2, 122988, Note_on_c, 0, 81, 0
2, 123000, Note_on_c, 0, 86, 92
2, 123000, Note_on_c, 0, 81, 92
2, 123096, Note_on_c, 0, 81, 0
2, 123096, Note_on_c, 0, 86, 0
2, 123240, Note_on_c, 0, 85, 92
2, 123240, Note_on_c, 0, 81, 92
2, 123360, Note_on_c, 0, 86, 108
2, 123360, Note_on_c, 0, 81, 108
2, 123370, Note_on_c, 0, 81, 0
2, 123370, Note_on_c, 0, 85, 0
2, 123468, Note_on_c, 0, 86, 0
2, 123468, Note_on_c, 0, 81, 0
2, 123480, Note_on_c, 0, 86, 92
2, 123480, Note_on_c, 0, 81, 92
2, 123576, Note_on_c, 0, 81, 0
2, 123576, Note_on_c, 0, 86, 0
2, 123720, Note_on_c, 0, 85, 92
2, 123720, Note_on_c, 0, 81, 92
2, 123840, Note_on_c, 0, 86, 112
2, 123840, Note_on_c, 0, 81, 112
2, 123850, Note_on_c, 0, 81, 0
2, 123850, Note_on_c, 0, 85, 0
2, 123948, Note_on_c, 0, 86, 0
2, 123948, Note_on_c, 0, 81, 0
2, 123960, Note_on_c, 0, 85, 89
2, 123960, Note_on_c, 0, 81, 89
2, 124068, Note_on_c, 0, 81, 0
2, 124068, Note_on_c, 0, 85, 0
2, 124080, Note_on_c, 0, 86, 98
2, 124080, Note_on_c, 0, 81, 98
2, 124188, Note_on_c, 0, 81, 0
2, 124188, Note_on_c, 0, 86, 0
2, 124200, Note_on_c, 0, 85, 106
2, 124200, Note_on_c, 0, 81, 106
2, 124308, Note_on_c, 0, 81, 0
2, 124308, Note_on_c, 0, 85, 0
2, 124320, Note_on_c, 0, 86, 114
2, 124320, Note_on_c, 0, 81, 114
2, 124440, Note_on_c, 0, 81, 0
2, 124440, Note_on_c, 0, 86, 0
2, 125280, Note_on_c, 0, 86, 109
2, 125340, Note_on_c, 0, 86, 0
2, 125340, Note_on_c, 0, 85, 101
2, 125400, Note_on_c, 0, 85, 0
2, 125400, Note_on_c, 0, 83, 92
2, 125460, Note_on_c, 0, 83, 0
2, 125460, Note_on_c, 0, 81, 89
2, 125520, Note_on_c, 0, 81, 0
2, 125520, Note_on_c, 0, 79, 81
2, 125580, Note_on_c, 0, 79, 0
2, 125580, Note_on_c, 0, 78, 73
2, 125640, Note_on_c, 0, 78, 0
2, 125640, Note_on_c, 0, 76, 70
2, 125700, Note_on_c, 0, 76, 0
2, 125700, Note_on_c, 0, 74, 64
2, 125760, Note_on_c, 0, 74, 0
2, 125760, Note_on_c, 0, 91, 112
2, 125760, Note_on_c, 0, 88, 112
2, 125820, Note_on_c, 0, 88, 0
2, 125820, Note_on_c, 0, 91, 0
2, 125820, Note_on_c, 0, 90, 99
2, 125820, Note_on_c, 0, 86, 99
2, 125880, Note_on_c, 0, 86, 0
2, 125880, Note_on_c, 0, 90, 0
2, 125880, Note_on_c, 0, 88, 91
2, 125880, Note_on_c, 0, 85, 91
2, 125940, Note_on_c, 0, 85, 0
2, 125940, Note_on_c, 0, 88, 0
2, 125940, Note_on_c, 0, 86, 80
2, 125940, Note_on_c, 0, 83, 80
2, 126000, Note_on_c, 0, 83, 0
2, 126000, Note_on_c, 0, 86, 0
2, 126000, Note_on_c, 0, 81, 71
2, 126000, Note_on_c, 0, 85, 71
2, 126060, Note_on_c, 0, 85, 0
2, 126060, Note_on_c, 0, 81, 0
2, 126060, Note_on_c, 0, 83, 64
2, 126060, Note_on_c, 0, 79, 64
2, 126120, Note_on_c, 0, 79, 0
2, 126120, Note_on_c, 0, 83, 0
2, 126120, Note_on_c, 0, 81, 58
2, 126120, Note_on_c, 0, 78, 58
2, 126180, Note_on_c, 0, 78, 0
2, 126180, Note_on_c, 0, 81, 0
2, 126180, Note_on_c, 0, 79, 54
2, 126180, Note_on_c, 0, 76, 54
2, 126240, Note_on_c, 0, 76, 0
2, 126240, Note_on_c, 0, 79, 0
2, 126240, Note_on_c, 0, 74, 77
2, 126240, Note_on_c, 0, 78, 77
2, 126360, Note_on_c, 0, 78, 0
2, 126360, Note_on_c, 0, 74, 0
2, 126480, Note_on_c, 0, 86, 92
2, 126480, Note_on_c, 0, 81, 92
2, 126588, Note_on_c, 0, 81, 0
2, 126588, Note_on_c, 0, 86, 0
2, 126720, Note_on_c, 0, 83, 92
2, 126720, Note_on_c, 0, 79, 92
2, 126853, Note_on_c, 0, 79, 0
2, 126853, Note_on_c, 0, 83, 0
2, 126960, Note_on_c, 0, 76, 92
2, 126960, Note_on_c, 0, 85, 92
2, 127080, Note_on_c, 0, 85, 0
2, 127080, Note_on_c, 0, 76, 0
2, 127200, Note_on_c, 0, 78, 92
2, 127200, Note_on_c, 0, 86, 92
2, 127373, Note_on_c, 0, 78, 0
2, 127440, Note_on_c, 0, 86, 92
2, 128755, Note_on_c, 0, 86, 0
2, 128822, Note_on_c, 0, 86, 0
2, 129480, Note_on_c, 0, 85, 92
2, 129480, Note_on_c, 0, 81, 92
2, 129600, Note_on_c, 0, 81, 0
2, 129600, Note_on_c, 0, 85, 0
2, 129600, Note_on_c, 0, 86, 115
2, 129600, Note_on_c, 0, 81, 115
2, 129708, Note_on_c, 0, 81, 0
2, 129708, Note_on_c, 0, 86, 0
2, 129720, Note_on_c, 0, 86, 92
2, 129720, Note_on_c, 0, 81, 92
2, 129816, Note_on_c, 0, 81, 0
2, 129816, Note_on_c, 0, 86, 0
2, 129960, Note_on_c, 0, 85, 92
2, 129960, Note_on_c, 0, 81, 92
2, 130080, Note_on_c, 0, 81, 0
2, 130080, Note_on_c, 0, 85, 0
2, 130080, Note_on_c, 0, 86, 114
2, 130080, Note_on_c, 0, 81, 114
2, 130188, Note_on_c, 0, 81, 0
2, 130188, Note_on_c, 0, 86, 0
2, 130200, Note_on_c, 0, 86, 92
2, 130200, Note_on_c, 0, 81, 92
2, 130296, Note_on_c, 0, 81, 0
2, 130296, Note_on_c, 0, 86, 0
2, 130440, Note_on_c, 0, 85, 92
2, 130440, Note_on_c, 0, 81, 92
2, 130560, Note_on_c, 0, 81, 0
2, 130560, Note_on_c, 0, 85, 0
2, 130560, Note_on_c, 0, 86, 114
2, 130560, Note_on_c, 0, 81, 114
2, 130668, Note_on_c, 0, 81, 0
2, 130668, Note_on_c, 0, 86, 0
2, 130680, Note_on_c, 0, 85, 109
2, 130680, Note_on_c, 0, 81, 109
2, 130788, Note_on_c, 0, 81, 0
2, 130788, Note_on_c, 0, 85, 0
2, 130800, Note_on_c, 0, 86, 115
2, 130800, Note_on_c, 0, 81, 115
2, 130908, Note_on_c, 0, 81, 0
2, 130908, Note_on_c, 0, 86, 0
2, 130920, Note_on_c, 0, 85, 119
2, 130920, Note_on_c, 0, 81, 119
2, 131028, Note_on_c, 0, 81, 0
2, 131028, Note_on_c, 0, 85, 0
2, 131040, Note_on_c, 0, 86, 119
2, 131040, Note_on_c, 0, 81, 119
2, 131135, Note_on_c, 0, 81, 0
2, 131135, Note_on_c, 0, 86, 0
2, 132000, Note_on_c, 0, 86, 112
2, 132060, Note_on_c, 0, 86, 0
2, 132060, Note_on_c, 0, 85, 102
2, 132120, Note_on_c, 0, 85, 0
2, 132120, Note_on_c, 0, 83, 92
2, 132180, Note_on_c, 0, 83, 0
2, 132180, Note_on_c, 0, 81, 84
2, 132240, Note_on_c, 0, 81, 0
2, 132240, Note_on_c, 0, 79, 78
2, 132300, Note_on_c, 0, 79, 0
2, 132300, Note_on_c, 0, 78, 69
2, 132360, Note_on_c, 0, 78, 0
2, 132360, Note_on_c, 0, 76, 62
2, 132420, Note_on_c, 0, 76, 0
2, 132420, Note_on_c, 0, 74, 58
2, 132480, Note_on_c, 0, 74, 0
2, 132480, Note_on_c, 0, 91, 112
2, 132480, Note_on_c, 0, 88, 112
2, 132540, Note_on_c, 0, 88, 0
2, 132540, Note_on_c, 0, 91, 0
2, 132540, Note_on_c, 0, 90, 103
2, 132540, Note_on_c, 0, 86, 103
2, 132600, Note_on_c, 0, 86, 0
2, 132600, Note_on_c, 0, 90, 0
2, 132600, Note_on_c, 0, 88, 92
2, 132600, Note_on_c, 0, 85, 92
2, 132660, Note_on_c, 0, 85, 0
2, 132660, Note_on_c, 0, 88, 0
2, 132660, Note_on_c, 0, 86, 83
2, 132660, Note_on_c, 0, 83, 83
2, 132720, Note_on_c, 0, 83, 0
2, 132720, Note_on_c, 0, 86, 0
2, 132720, Note_on_c, 0, 85, 74
2, 132720, Note_on_c, 0, 81, 74
2, 132780, Note_on_c, 0, 81, 0
2, 132780, Note_on_c, 0, 85, 0
2, 132780, Note_on_c, 0, 83, 66
2, 132780, Note_on_c, 0, 79, 66
2, 132840, Note_on_c, 0, 79, 0
2, 132840, Note_on_c, 0, 83, 0
2, 132840, Note_on_c, 0, 81, 62
2, 132840, Note_on_c, 0, 78, 62
2, 132900, Note_on_c, 0, 78, 0
2, 132900, Note_on_c, 0, 81, 0
2, 132900, Note_on_c, 0, 79, 59
2, 132900, Note_on_c, 0, 76, 59
2, 132960, Note_on_c, 0, 76, 0
2, 132960, Note_on_c, 0, 79, 0
2, 132960, Note_on_c, 0, 74, 55
2, 132960, Note_on_c, 0, 78, 55
2, 133080, Note_on_c, 0, 78, 0
2, 133080, Note_on_c, 0, 74, 0
2, 133200, Note_on_c, 0, 86, 114
2, 133200, Note_on_c, 0, 81, 114
2, 133320, Note_on_c, 0, 81, 0
2, 133320, Note_on_c, 0, 86, 0
2, 133440, Note_on_c, 0, 83, 114
2, 133440, Note_on_c, 0, 79, 114
2, 133560, Note_on_c, 0, 79, 0
2, 133560, Note_on_c, 0, 83, 0
2, 133680, Note_on_c, 0, 76, 114
2, 133680, Note_on_c, 0, 85, 114
2, 133800, Note_on_c, 0, 85, 0
2, 133800, Note_on_c, 0, 76, 0
2, 133920, Note_on_c, 0, 86, 115
2, 133980, Note_on_c, 0, 86, 0
2, 133980, Note_on_c, 0, 85, 111
2, 134040, Note_on_c, 0, 85, 0
2, 134040, Note_on_c, 0, 83, 104
2, 134100, Note_on_c, 0, 83, 0
2, 134100, Note_on_c, 0, 81, 98
2, 134160, Note_on_c, 0, 81, 0
2, 134160, Note_on_c, 0, 79, 92
2, 134220, Note_on_c, 0, 79, 0
2, 134220, Note_on_c, 0, 78, 87
2, 134280, Note_on_c, 0, 78, 0
2, 134280, Note_on_c, 0, 76, 83
2, 134340, Note_on_c, 0, 76, 0
2, 134340, Note_on_c, 0, 74, 78
2, 134400, Note_on_c, 0, 74, 0
2, 134400, Note_on_c, 0, 91, 73
2, 134400, Note_on_c, 0, 88, 73
2, 134460, Note_on_c, 0, 88, 0
2, 134460, Note_on_c, 0, 91, 0
2, 134460, Note_on_c, 0, 90, 104
2, 134460, Note_on_c, 0, 86, 104
2, 134520, Note_on_c, 0, 86, 0
2, 134520, Note_on_c, 0, 90, 0
2, 134520, Note_on_c, 0, 88, 96
2, 134520, Note_on_c, 0, 85, 96
2, 134580, Note_on_c, 0, 85, 0
2, 134580, Note_on_c, 0, 88, 0
2, 134580, Note_on_c, 0, 86, 92
2, 134580, Note_on_c, 0, 83, 92
2, 134640, Note_on_c, 0, 83, 0
2, 134640, Note_on_c, 0, 86, 0
2, 134640, Note_on_c, 0, 85, 88
2, 134640, Note_on_c, 0, 81, 88
2, 134700, Note_on_c, 0, 81, 0
2, 134700, Note_on_c, 0, 85, 0
2, 134700, Note_on_c, 0, 83, 85
2, 134700, Note_on_c, 0, 79, 85
2, 134760, Note_on_c, 0, 79, 0
2, 134760, Note_on_c, 0, 83, 0
2, 134760, Note_on_c, 0, 81, 81
2, 134760, Note_on_c, 0, 78, 81
2, 134820, Note_on_c, 0, 78, 0
2, 134820, Note_on_c, 0, 81, 0
2, 134820, Note_on_c, 0, 79, 76
2, 134820, Note_on_c, 0, 76, 76
2, 134880, Note_on_c, 0, 76, 0
2, 134880, Note_on_c, 0, 79, 0
2, 134880, Note_on_c, 0, 74, 72
2, 134880, Note_on_c, 0, 78, 72
2, 135000, Note_on_c, 0, 78, 0
2, 135000, Note_on_c, 0, 74, 0
2, 135120, Note_on_c, 0, 86, 114
2, 135120, Note_on_c, 0, 81, 114
2, 135240, Note_on_c, 0, 81, 0
2, 135240, Note_on_c, 0, 86, 0
2, 135360, Note_on_c, 0, 83, 114
2, 135360, Note_on_c, 0, 79, 114
2, 135480, Note_on_c, 0, 79, 0
2, 135480, Note_on_c, 0, 83, 0
2, 135600, Note_on_c, 0, 76, 113
2, 135600, Note_on_c, 0, 85, 113
2, 135720, Note_on_c, 0, 85, 0
2, 135720, Note_on_c, 0, 76, 0
2, 135840, Note_on_c, 0, 86, 109
2, 135840, Note_on_c, 0, 81, 109
2, 136272, Note_on_c, 0, 81, 0
2, 136272, Note_on_c, 0, 86, 0
2, 136320, Note_on_c, 0, 86, 109
2, 136320, Note_on_c, 0, 81, 109
2, 136536, Note_on_c, 0, 81, 0
2, 136536, Note_on_c, 0, 86, 0
2, 136560, Note_on_c, 0, 86, 111
2, 136560, Note_on_c, 0, 81, 111
2, 136722, Note_on_c, 0, 81, 0
2, 136722, Note_on_c, 0, 86, 0
2, 136740, Note_on_c, 0, 81, 112
2, 136740, Note_on_c, 0, 86, 112
2, 136783, Note_on_c, 0, 86, 0
2, 136783, Note_on_c, 0, 81, 0
2, 136800, Note_on_c, 0, 86, 113
2, 136800, Note_on_c, 0, 81, 113
2, 137232, Note_on_c, 0, 81, 0
2, 137232, Note_on_c, 0, 86, 0
2, 137280, Note_on_c, 0, 86, 114
2, 137280, Note_on_c, 0, 81, 114
2, 137496, Note_on_c, 0, 81, 0
2, 137496, Note_on_c, 0, 86, 0
2, 137520, Note_on_c, 0, 86, 114
2, 137520, Note_on_c, 0, 81, 114
2, 137682, Note_on_c, 0, 81, 0
2, 137682, Note_on_c, 0, 86, 0
2, 137700, Note_on_c, 0, 81, 114
2, 137700, Note_on_c, 0, 86, 114
2, 137743, Note_on_c, 0, 86, 0
2, 137743, Note_on_c, 0, 81, 0
2, 137760, Note_on_c, 0, 86, 114
2, 137760, Note_on_c, 0, 81, 114
2, 138192, Note_on_c, 0, 81, 0
2, 138192, Note_on_c, 0, 86, 0
2, 138240, Note_on_c, 0, 86, 114
2, 138240, Note_on_c, 0, 81, 114
2, 138456, Note_on_c, 0, 81, 0
2, 138456, Note_on_c, 0, 86, 0
2, 138480, Note_on_c, 0, 86, 114
2, 138480, Note_on_c, 0, 81, 114
2, 138642, Note_on_c, 0, 81, 0
2, 138642, Note_on_c, 0, 86, 0
2, 138660, Note_on_c, 0, 81, 114
2, 138660, Note_on_c, 0, 86, 114
2, 138703, Note_on_c, 0, 86, 0
2, 138703, Note_on_c, 0, 81, 0
2, 138720, Note_on_c, 0, 86, 114
2, 138720, Note_on_c, 0, 81, 114
2, 138828, Note_on_c, 0, 81, 0
2, 138828, Note_on_c, 0, 86, 0
2, 138960, Note_on_c, 0, 86, 114
2, 138960, Note_on_c, 0, 81, 114
2, 139068, Note_on_c, 0, 81, 0
2, 139068, Note_on_c, 0, 86, 0
2, 139200, Note_on_c, 0, 81, 114
2, 139200, Note_on_c, 0, 86, 114
2, 139308, Note_on_c, 0, 86, 0
2, 139308, Note_on_c, 0, 81, 0
2, 139440, Note_on_c, 0, 86, 114
2, 139440, Note_on_c, 0, 81, 114
2, 139548, Note_on_c, 0, 81, 0
2, 139548, Note_on_c, 0, 86, 0
2, 139680, Note_on_c, 0, 86, 114
2, 139680, Note_on_c, 0, 81, 114
2, 139788, Note_on_c, 0, 81, 0
2, 139788, Note_on_c, 0, 86, 0
2, 140160, Note_on_c, 0, 86, 114
2, 140160, Note_on_c, 0, 81, 114
2, 140268, Note_on_c, 0, 81, 0
2, 140268, Note_on_c, 0, 86, 0
2, 140640, Note_on_c, 0, 86, 114
2, 140640, Note_on_c, 0, 81, 114
2, 140856, Note_on_c, 0, 81, 0
2, 140856, Note_on_c, 0, 86, 0
2, 140856, End_track
3, 0, Start_track
3, 0, MIDI_port, 0
3, 0, Title_t, "2 Oboi"
3, 0, Program_c, 1, 68
3, 0, Control_c, 1, 7, 80
3, 0, Control_c, 1, 10, 45
3, 0, Control_c, 1, 91, 96
3, 3360, Note_on_c, 1, 69, 82
3, 3360, Note_on_c, 1, 78, 82
3, 3720, Note_on_c, 1, 78, 0
3, 3720, Note_on_c, 1, 69, 0
3, 3720, Note_on_c, 1, 73, 65
3, 3720, Note_on_c, 1, 76, 65
3, 3830, Control_c, 1, 7, 63
3, 3840, Note_on_c, 1, 76, 0
3, 3840, Note_on_c, 1, 73, 0
3, 3840, Note_on_c, 1, 74, 57
3, 3840, Note_on_c, 1, 74, 57
3, 3840, Control_c, 1, 7, 64
3, 3910, Control_c, 1, 7, 62
3, 3940, Control_c, 1, 7, 61
3, 3990, Control_c, 1, 7, 60
3, 4020, Control_c, 1, 7, 59
3, 4030, Control_c, 1, 7, 58
3, 4070, Control_c, 1, 7, 58
3, 4080, Note_on_c, 1, 74, 0
3, 4080, Note_on_c, 1, 74, 0
3, 4160, Control_c, 1, 7, 60
3, 4190, Control_c, 1, 7, 61
3, 4210, Control_c, 1, 7, 63
3, 4230, Control_c, 1, 7, 64
3, 4250, Control_c, 1, 7, 65
3, 4310, Control_c, 1, 7, 66
3, 4320, Note_on_c, 1, 78, 77
3, 4320, Note_on_c, 1, 81, 77
3, 4340, Control_c, 1, 7, 68
3, 4360, Control_c, 1, 7, 69
3, 4370, Control_c, 1, 7, 71
3, 4390, Control_c, 1, 7, 72
3, 4400, Control_c, 1, 7, 73
3, 4430, Control_c, 1, 7, 75
3, 4440, Control_c, 1, 7, 76
3, 4450, Control_c, 1, 7, 77
3, 4480, Control_c, 1, 7, 78
3, 4500, Control_c, 1, 7, 80
3, 4520, Control_c, 1, 7, 81
3, 4540, Control_c, 1, 7, 82
3, 4680, Note_on_c, 1, 81, 0
3, 4680, Note_on_c, 1, 78, 0
3, 4680, Note_on_c, 1, 79, 60
3, 4680, Note_on_c, 1, 76, 60
3, 4720, Control_c, 1, 7, 80
3, 4800, Note_on_c, 1, 76, 0
3, 4800, Note_on_c, 1, 79, 0
3, 4800, Note_on_c, 1, 78, 56
3, 4800, Note_on_c, 1, 74, 56
3, 4880, Control_c, 1, 7, 79
3, 4890, Control_c, 1, 7, 78
3, 4930, Control_c, 1, 7, 77
3, 4960, Control_c, 1, 7, 76
3, 4990, Control_c, 1, 7, 75
3, 5000, Control_c, 1, 7, 74
3, 5040, Note_on_c, 1, 74, 0
3, 5040, Note_on_c, 1, 78, 0
3, 5040, Control_c, 1, 7, 73
3, 5070, Control_c, 1, 7, 72
3, 5090, Control_c, 1, 7, 71
3, 5120, Control_c, 1, 7, 70
3, 5150, Control_c, 1, 7, 69
3, 5170, Control_c, 1, 7, 68
3, 5200, Control_c, 1, 7, 70
3, 5230, Control_c, 1, 7, 73
3, 5260, Control_c, 1, 7, 74
3, 5270, Control_c, 1, 7, 75
3, 5280, Note_on_c, 1, 78, 84
3, 5280, Note_on_c, 1, 86, 84
3, 5290, Control_c, 1, 7, 77
3, 5320, Control_c, 1, 7, 78
3, 5330, Control_c, 1, 7, 79
3, 5340, Control_c, 1, 7, 81
3, 5360, Control_c, 1, 7, 82
3, 5370, Control_c, 1, 7, 83
3, 5380, Control_c, 1, 7, 84
3, 5400, Control_c, 1, 7, 85
3, 5410, Control_c, 1, 7, 87
3, 5420, Control_c, 1, 7, 89
3, 5440, Control_c, 1, 7, 90
3, 5450, Control_c, 1, 7, 92
3, 5470, Control_c, 1, 7, 93
3, 5480, Control_c, 1, 7, 94
3, 5490, Control_c, 1, 7, 95
3, 5510, Control_c, 1, 7, 98
3, 5520, Control_c, 1, 7, 100
3, 5530, Control_c, 1, 7, 101
3, 5730, Note_on_c, 1, 86, 0
3, 5730, Note_on_c, 1, 78, 0
3, 5760, Note_on_c, 1, 85, 84
3, 5760, Note_on_c, 1, 76, 84
3, 5760, Control_c, 1, 7, 126
3, 5780, Control_c, 1, 7, 125
3, 5800, Control_c, 1, 7, 124
3, 5820, Control_c, 1, 7, 123
3, 5840, Control_c, 1, 7, 122
3, 5860, Control_c, 1, 7, 121
3, 5920, Control_c, 1, 7, 120
3, 5940, Control_c, 1, 7, 119
3, 5950, Control_c, 1, 7, 118
3, 5970, Control_c, 1, 7, 117
3, 5990, Control_c, 1, 7, 116
3, 6000, Control_c, 1, 7, 115
3, 6020, Control_c, 1, 7, 114
3, 6040, Control_c, 1, 7, 113
3, 6060, Control_c, 1, 7, 112
3, 6080, Control_c, 1, 7, 110
3, 6100, Control_c, 1, 7, 109
3, 6120, Note_on_c, 1, 76, 0
3, 6120, Note_on_c, 1, 85, 0
3, 6120, Note_on_c, 1, 83, 68
3, 6120, Note_on_c, 1, 79, 68
3, 6120, Control_c, 1, 7, 108
3, 6130, Control_c, 1, 7, 107
3, 6190, Control_c, 1, 7, 106
3, 6200, Control_c, 1, 7, 105
3, 6220, Control_c, 1, 7, 104
3, 6230, Control_c, 1, 7, 108
3, 6240, Note_on_c, 1, 79, 0
3, 6240, Note_on_c, 1, 83, 0
3, 6240, Note_on_c, 1, 81, 74
3, 6240, Note_on_c, 1, 78, 74
3, 6290, Control_c, 1, 7, 106
3, 6310, Control_c, 1, 7, 104
3, 6330, Control_c, 1, 7, 103
3, 6342, Note_on_c, 1, 78, 0
3, 6342, Note_on_c, 1, 81, 0
3, 6350, Control_c, 1, 7, 100
3, 6360, Note_on_c, 1, 86, 80
3, 6360, Note_on_c, 1, 78, 80
3, 6390, Control_c, 1, 7, 98
3, 6400, Control_c, 1, 7, 96
3, 6420, Control_c, 1, 7, 95
3, 6430, Control_c, 1, 7, 96
3, 6480, Note_on_c, 1, 78, 0
3, 6480, Note_on_c, 1, 86, 0
3, 6480, Note_on_c, 1, 85, 79
3, 6480, Note_on_c, 1, 76, 79
3, 6540, Control_c, 1, 7, 95
3, 6570, Control_c, 1, 7, 94
3, 6600, Note_on_c, 1, 76, 0
3, 6600, Note_on_c, 1, 85, 0
3, 6600, Note_on_c, 1, 79, 74
3, 6600, Note_on_c, 1, 83, 74
3, 6610, Control_c, 1, 7, 93
3, 6670, Control_c, 1, 7, 92
3, 6720, Note_on_c, 1, 83, 0
3, 6720, Note_on_c, 1, 79, 0
3, 6720, Note_on_c, 1, 78, 70
3, 6720, Note_on_c, 1, 81, 70
3, 6720, Control_c, 1, 7, 106
3, 6740, Control_c, 1, 7, 105
3, 6760, Control_c, 1, 7, 103
3, 6800, Control_c, 1, 7, 102
3, 6810, Control_c, 1, 7, 101
3, 6822, Note_on_c, 1, 81, 0
3, 6822, Note_on_c, 1, 78, 0
3, 6830, Control_c, 1, 7, 100
3, 6840, Note_on_c, 1, 78, 78
3, 6840, Note_on_c, 1, 86, 78
3, 6840, Control_c, 1, 7, 99
3, 6890, Control_c, 1, 7, 98
3, 6920, Control_c, 1, 7, 97
3, 6950, Control_c, 1, 7, 96
3, 6960, Note_on_c, 1, 86, 0
3, 6960, Note_on_c, 1, 78, 0
3, 6960, Note_on_c, 1, 76, 74
3, 6960, Note_on_c, 1, 85, 74
3, 6970, Control_c, 1, 7, 95
3, 7000, Control_c, 1, 7, 94
3, 7070, Control_c, 1, 7, 93
3, 7080, Note_on_c, 1, 85, 0
3, 7080, Note_on_c, 1, 76, 0
3, 7080, Note_on_c, 1, 83, 72
3, 7080, Note_on_c, 1, 79, 72
3, 7090, Control_c, 1, 7, 92
3, 7110, Control_c, 1, 7, 91
3, 7150, Control_c, 1, 7, 89
3, 7180, Control_c, 1, 7, 88
3, 7200, Note_on_c, 1, 79, 0
3, 7200, Note_on_c, 1, 83, 0
3, 7200, Note_on_c, 1, 78, 84
3, 7200, Note_on_c, 1, 81, 84
3, 7200, Control_c, 1, 7, 87
3, 7302, Note_on_c, 1, 81, 0
3, 7302, Note_on_c, 1, 78, 0
3, 7320, Note_on_c, 1, 78, 64
3, 7320, Note_on_c, 1, 81, 64
3, 7371, Note_on_c, 1, 81, 0
3, 7371, Note_on_c, 1, 78, 0
3, 7380, Note_on_c, 1, 78, 64
3, 7380, Note_on_c, 1, 81, 64
3, 7431, Note_on_c, 1, 81, 0
3, 7431, Note_on_c, 1, 78, 0
3, 7440, Note_on_c, 1, 76, 82
3, 7440, Note_on_c, 1, 79, 82
3, 7542, Note_on_c, 1, 79, 0
3, 7542, Note_on_c, 1, 76, 0
3, 7560, Note_on_c, 1, 76, 64
3, 7560, Note_on_c, 1, 79, 64
3, 7611, Note_on_c, 1, 79, 0
3, 7611, Note_on_c, 1, 76, 0
3, 7620, Note_on_c, 1, 76, 66
3, 7620, Note_on_c, 1, 79, 66
3, 7671, Note_on_c, 1, 79, 0
3, 7671, Note_on_c, 1, 76, 0
3, 7680, Note_on_c, 1, 74, 83
3, 7680, Note_on_c, 1, 78, 83
3, 7782, Note_on_c, 1, 78, 0
3, 7782, Note_on_c, 1, 74, 0
3, 7800, Note_on_c, 1, 78, 64
3, 7800, Note_on_c, 1, 74, 64
3, 7851, Note_on_c, 1, 74, 0
3, 7851, Note_on_c, 1, 78, 0
3, 7860, Note_on_c, 1, 78, 64
3, 7860, Note_on_c, 1, 74, 64
3, 7911, Note_on_c, 1, 74, 0
3, 7911, Note_on_c, 1, 78, 0
3, 7920, Note_on_c, 1, 73, 83
3, 7920, Note_on_c, 1, 76, 83
3, 8022, Note_on_c, 1, 76, 0
3, 8022, Note_on_c, 1, 73, 0
3, 8040, Note_on_c, 1, 76, 64
3, 8040, Note_on_c, 1, 73, 64
3, 8091, Note_on_c, 1, 73, 0
3, 8091, Note_on_c, 1, 76, 0
3, 8100, Note_on_c, 1, 73, 64
3, 8100, Note_on_c, 1, 76, 64
3, 8150, Control_c, 1, 7, 63
3, 8151, Note_on_c, 1, 76, 0
3, 8151, Note_on_c, 1, 73, 0
3, 8160, Note_on_c, 1, 74, 83
3, 8160, Note_on_c, 1, 74, 83
3, 8170, Control_c, 1, 7, 65
3, 8250, Control_c, 1, 7, 66
3, 8320, Control_c, 1, 7, 68
3, 8400, Control_c, 1, 7, 69
3, 8460, Control_c, 1, 7, 70
3, 8470, Control_c, 1, 7, 71
3, 8580, Control_c, 1, 7, 77
3, 8640, Note_on_c, 1, 74, 0
3, 8640, Note_on_c, 1, 74, 0
3, 8640, Note_on_c, 1, 78, 84
3, 8700, Control_c, 1, 7, 79
3, 8760, Control_c, 1, 7, 80
3, 8770, Control_c, 1, 7, 81
3, 8860, Control_c, 1, 7, 83
3, 8980, Control_c, 1, 7, 85
3, 9060, Control_c, 1, 7, 86
3, 9070, Control_c, 1, 7, 87
3, 9120, Note_on_c, 1, 78, 0
3, 9120, Note_on_c, 1, 76, 84
3, 9180, Control_c, 1, 7, 89
3, 9300, Control_c, 1, 7, 90
3, 9380, Control_c, 1, 7, 91
3, 9540, Note_on_c, 1, 76, 0
3, 9540, Note_on_c, 1, 78, 84
3, 9590, Control_c, 1, 7, 94
3, 9600, Note_on_c, 1, 78, 0
3, 9600, Note_on_c, 1, 79, 84
3, 9800, Control_c, 1, 7, 92
3, 9840, Note_on_c, 1, 79, 0
3, 9840, Note_on_c, 1, 78, 84
3, 9900, Control_c, 1, 7, 91
3, 10050, Control_c, 1, 7, 90
3, 10080, Note_on_c, 1, 78, 0
3, 10080, Note_on_c, 1, 79, 89
3, 10190, Control_c, 1, 7, 89
3, 10260, Note_on_c, 1, 79, 0
3, 10260, Note_on_c, 1, 78, 86
3, 10320, Note_on_c, 1, 78, 0
3, 10320, Note_on_c, 1, 76, 80
3, 10410, Control_c, 1, 7, 88
3, 10500, Note_on_c, 1, 76, 0
3, 10500, Note_on_c, 1, 78, 78
3, 10560, Note_on_c, 1, 78, 0
3, 10560, Note_on_c, 1, 79, 76
3, 10590, Control_c, 1, 7, 87
3, 10640, Control_c, 1, 7, 86
3, 10700, Control_c, 1, 7, 85
3, 10770, Control_c, 1, 7, 84
3, 10800, Note_on_c, 1, 79, 0
3, 10800, Note_on_c, 1, 76, 69
3, 10840, Control_c, 1, 7, 83
3, 10900, Control_c, 1, 7, 82
3, 10940, Control_c, 1, 7, 81
3, 10970, Control_c, 1, 7, 80
3, 11040, Note_on_c, 1, 76, 0
3, 11040, Note_on_c, 1, 74, 59
3, 11050, Control_c, 1, 7, 79
3, 11090, Control_c, 1, 7, 78
3, 11150, Control_c, 1, 7, 77
3, 11160, Control_c, 1, 7, 76
3, 11280, Note_on_c, 1, 74, 0
3, 11340, Control_c, 1, 7, 75
3, 11500, Control_c, 1, 7, 74
3, 11520, Note_on_c, 1, 78, 87
3, 11520, Note_on_c, 1, 69, 87
3, 11620, Control_c, 1, 7, 73
3, 11670, Control_c, 1, 7, 72
3, 11730, Control_c, 1, 7, 70
3, 11810, Control_c, 1, 7, 68
3, 11840, Control_c, 1, 7, 67
3, 11860, Control_c, 1, 7, 66
3, 11880, Note_on_c, 1, 69, 0
3, 11880, Note_on_c, 1, 78, 0
3, 11880, Note_on_c, 1, 76, 66
3, 11880, Note_on_c, 1, 73, 66
3, 12000, Note_on_c, 1, 73, 0
3, 12000, Note_on_c, 1, 76, 0
3, 12000, Note_on_c, 1, 74, 63
3, 12000, Note_on_c, 1, 74, 63
3, 12070, Control_c, 1, 7, 62
3, 12100, Control_c, 1, 7, 61
3, 12150, Control_c, 1, 7, 60
3, 12180, Control_c, 1, 7, 59
3, 12190, Control_c, 1, 7, 58
3, 12230, Control_c, 1, 7, 58
3, 12240, Note_on_c, 1, 74, 0
3, 12240, Note_on_c, 1, 74, 0
3, 12320, Control_c, 1, 7, 60
3, 12350, Control_c, 1, 7, 61
3, 12370, Control_c, 1, 7, 63
3, 12390, Control_c, 1, 7, 64
3, 12410, Control_c, 1, 7, 65
3, 12470, Control_c, 1, 7, 66
3, 12480, Note_on_c, 1, 81, 94
3, 12480, Note_on_c, 1, 78, 94
3, 12500, Control_c, 1, 7, 68
3, 12520, Control_c, 1, 7, 69
3, 12530, Control_c, 1, 7, 71
3, 12550, Control_c, 1, 7, 72
3, 12560, Control_c, 1, 7, 73
3, 12590, Control_c, 1, 7, 75
3, 12600, Control_c, 1, 7, 76
3, 12610, Control_c, 1, 7, 77
3, 12640, Control_c, 1, 7, 78
3, 12660, Control_c, 1, 7, 80
3, 12680, Control_c, 1, 7, 81
3, 12700, Control_c, 1, 7, 82
3, 12840, Note_on_c, 1, 78, 0
3, 12840, Note_on_c, 1, 81, 0
3, 12840, Note_on_c, 1, 76, 64
3, 12840, Note_on_c, 1, 79, 64
3, 12880, Control_c, 1, 7, 80
3, 12960, Note_on_c, 1, 79, 0
3, 12960, Note_on_c, 1, 76, 0
3, 12960, Note_on_c, 1, 74, 50
3, 12960, Note_on_c, 1, 78, 50
3, 13040, Control_c, 1, 7, 79
3, 13050, Control_c, 1, 7, 78
3, 13090, Control_c, 1, 7, 77
3, 13120, Control_c, 1, 7, 76
3, 13150, Control_c, 1, 7, 75
3, 13160, Control_c, 1, 7, 74
3, 13200, Note_on_c, 1, 78, 0
3, 13200, Note_on_c, 1, 74, 0
3, 13200, Control_c, 1, 7, 73
3, 13230, Control_c, 1, 7, 72
3, 13250, Control_c, 1, 7, 71
3, 13280, Control_c, 1, 7, 70
3, 13310, Control_c, 1, 7, 69
3, 13330, Control_c, 1, 7, 68
3, 13360, Control_c, 1, 7, 70
3, 13390, Control_c, 1, 7, 73
3, 13420, Control_c, 1, 7, 74
3, 13430, Control_c, 1, 7, 75
3, 13440, Note_on_c, 1, 86, 64
3, 13440, Note_on_c, 1, 78, 64
3, 13450, Control_c, 1, 7, 77
3, 13480, Control_c, 1, 7, 78
3, 13490, Control_c, 1, 7, 79
3, 13500, Control_c, 1, 7, 81
3, 13520, Control_c, 1, 7, 82
3, 13530, Control_c, 1, 7, 83
3, 13540, Control_c, 1, 7, 84
3, 13560, Control_c, 1, 7, 85
3, 13570, Control_c, 1, 7, 87
3, 13580, Control_c, 1, 7, 89
3, 13600, Control_c, 1, 7, 90
3, 13610, Control_c, 1, 7, 92
3, 13630, Control_c, 1, 7, 93
3, 13640, Control_c, 1, 7, 94
3, 13650, Control_c, 1, 7, 95
3, 13670, Control_c, 1, 7, 98
3, 13680, Control_c, 1, 7, 100
3, 13690, Control_c, 1, 7, 101
3, 13890, Note_on_c, 1, 78, 0
3, 13890, Note_on_c, 1, 86, 0
3, 13920, Note_on_c, 1, 76, 92
3, 13920, Note_on_c, 1, 85, 92
3, 13920, Control_c, 1, 7, 126
3, 13940, Control_c, 1, 7, 125
3, 13960, Control_c, 1, 7, 124
3, 13980, Control_c, 1, 7, 123
3, 14000, Control_c, 1, 7, 122
3, 14020, Control_c, 1, 7, 121
3, 14080, Control_c, 1, 7, 120
3, 14100, Control_c, 1, 7, 119
3, 14110, Control_c, 1, 7, 118
3, 14130, Control_c, 1, 7, 117
3, 14150, Control_c, 1, 7, 116
3, 14160, Control_c, 1, 7, 115
3, 14180, Control_c, 1, 7, 114
3, 14200, Control_c, 1, 7, 113
3, 14220, Control_c, 1, 7, 112
3, 14240, Control_c, 1, 7, 110
3, 14260, Control_c, 1, 7, 109
3, 14280, Note_on_c, 1, 85, 0
3, 14280, Note_on_c, 1, 76, 0
3, 14280, Note_on_c, 1, 79, 72
3, 14280, Note_on_c, 1, 83, 72
3, 14280, Control_c, 1, 7, 108
3, 14290, Control_c, 1, 7, 107
3, 14350, Control_c, 1, 7, 106
3, 14360, Control_c, 1, 7, 105
3, 14380, Control_c, 1, 7, 104
3, 14390, Control_c, 1, 7, 108
3, 14400, Note_on_c, 1, 83, 0
3, 14400, Note_on_c, 1, 79, 0
3, 14400, Note_on_c, 1, 78, 92
3, 14400, Note_on_c, 1, 81, 92
3, 14450, Control_c, 1, 7, 106
3, 14470, Control_c, 1, 7, 104
3, 14490, Control_c, 1, 7, 103
3, 14502, Note_on_c, 1, 81, 0
3, 14502, Note_on_c, 1, 78, 0
3, 14510, Control_c, 1, 7, 100
3, 14520, Note_on_c, 1, 78, 67
3, 14520, Note_on_c, 1, 86, 67
3, 14550, Control_c, 1, 7, 98
3, 14560, Control_c, 1, 7, 96
3, 14580, Control_c, 1, 7, 95
3, 14590, Control_c, 1, 7, 96
3, 14640, Note_on_c, 1, 86, 0
3, 14640, Note_on_c, 1, 78, 0
3, 14640, Note_on_c, 1, 76, 73
3, 14640, Note_on_c, 1, 85, 73
3, 14700, Control_c, 1, 7, 95
3, 14730, Control_c, 1, 7, 94
3, 14760, Note_on_c, 1, 85, 0
3, 14760, Note_on_c, 1, 76, 0
3, 14760, Note_on_c, 1, 83, 77
3, 14760, Note_on_c, 1, 79, 77
3, 14770, Control_c, 1, 7, 93
3, 14830, Control_c, 1, 7, 92
3, 14880, Note_on_c, 1, 79, 0
3, 14880, Note_on_c, 1, 83, 0
3, 14880, Note_on_c, 1, 81, 89
3, 14880, Note_on_c, 1, 78, 89
3, 14880, Control_c, 1, 7, 106
3, 14900, Control_c, 1, 7, 105
3, 14920, Control_c, 1, 7, 103
3, 14960, Control_c, 1, 7, 102
3, 14970, Control_c, 1, 7, 101
3, 14982, Note_on_c, 1, 78, 0
3, 14982, Note_on_c, 1, 81, 0
3, 14990, Control_c, 1, 7, 100
3, 15000, Note_on_c, 1, 86, 72
3, 15000, Note_on_c, 1, 78, 72
3, 15000, Control_c, 1, 7, 99
3, 15050, Control_c, 1, 7, 98
3, 15080, Control_c, 1, 7, 97
3, 15110, Control_c, 1, 7, 96
3, 15120, Note_on_c, 1, 78, 0
3, 15120, Note_on_c, 1, 86, 0
3, 15120, Note_on_c, 1, 85, 66
3, 15120, Note_on_c, 1, 76, 66
3, 15130, Control_c, 1, 7, 95
3, 15160, Control_c, 1, 7, 94
3, 15230, Control_c, 1, 7, 93
3, 15240, Note_on_c, 1, 76, 0
3, 15240, Note_on_c, 1, 85, 0
3, 15240, Note_on_c, 1, 79, 73
3, 15240, Note_on_c, 1, 83, 73
3, 15250, Control_c, 1, 7, 92
3, 15270, Control_c, 1, 7, 91
3, 15310, Control_c, 1, 7, 89
3, 15340, Control_c, 1, 7, 88
3, 15360, Note_on_c, 1, 83, 0
3, 15360, Note_on_c, 1, 79, 0
3, 15360, Note_on_c, 1, 81, 88
3, 15360, Note_on_c, 1, 78, 88
3, 15360, Control_c, 1, 7, 87
3, 15410, Control_c, 1, 7, 86
3, 15420, Control_c, 1, 7, 85
3, 15440, Control_c, 1, 7, 84
3, 15462, Note_on_c, 1, 78, 0
3, 15462, Note_on_c, 1, 81, 0
3, 15480, Note_on_c, 1, 81, 88
3, 15480, Note_on_c, 1, 78, 88
3, 15500, Control_c, 1, 7, 83
3, 15531, Note_on_c, 1, 78, 0
3, 15531, Note_on_c, 1, 81, 0
3, 15540, Note_on_c, 1, 81, 88
3, 15540, Note_on_c, 1, 78, 88
3, 15591, Note_on_c, 1, 78, 0
3, 15591, Note_on_c, 1, 81, 0
3, 15600, Note_on_c, 1, 79, 88
3, 15600, Note_on_c, 1, 76, 88
3, 15702, Note_on_c, 1, 76, 0
3, 15702, Note_on_c, 1, 79, 0
3, 15720, Note_on_c, 1, 79, 88
3, 15720, Note_on_c, 1, 76, 88
3, 15771, Note_on_c, 1, 76, 0
3, 15771, Note_on_c, 1, 79, 0
3, 15780, Note_on_c, 1, 79, 88
3, 15780, Note_on_c, 1, 76, 88
3, 15831, Note_on_c, 1, 76, 0
3, 15831, Note_on_c, 1, 79, 0
3, 15840, Note_on_c, 1, 78, 89
3, 15840, Note_on_c, 1, 74, 89
3, 15942, Note_on_c, 1, 74, 0
3, 15942, Note_on_c, 1, 78, 0
3, 15960, Note_on_c, 1, 74, 87
3, 15960, Note_on_c, 1, 78, 87
3, 16011, Note_on_c, 1, 78, 0
3, 16011, Note_on_c, 1, 74, 0
3, 16020, Note_on_c, 1, 74, 83
3, 16020, Note_on_c, 1, 78, 83
3, 16071, Note_on_c, 1, 78, 0
3, 16071, Note_on_c, 1, 74, 0
3, 16080, Note_on_c, 1, 76, 79
3, 16080, Note_on_c, 1, 73, 79
3, 16182, Note_on_c, 1, 73, 0
3, 16182, Note_on_c, 1, 76, 0
3, 16200, Note_on_c, 1, 73, 70
3, 16200, Note_on_c, 1, 76, 70
3, 16251, Note_on_c, 1, 76, 0
3, 16251, Note_on_c, 1, 73, 0
3, 16260, Note_on_c, 1, 76, 68
3, 16260, Note_on_c, 1, 73, 68
3, 16311, Note_on_c, 1, 73, 0
3, 16311, Note_on_c, 1, 76, 0
3, 16320, Note_on_c, 1, 74, 60
3, 16320, Note_on_c, 1, 74, 60
3, 16320, Control_c, 1, 7, 124
3, 16330, Control_c, 1, 7, 105
3, 16360, Control_c, 1, 7, 96
3, 16370, Control_c, 1, 7, 90
3, 16380, Control_c, 1, 7, 89
3, 16390, Control_c, 1, 7, 88
3, 16410, Control_c, 1, 7, 82
3, 16420, Control_c, 1, 7, 80
3, 16430, Control_c, 1, 7, 79
3, 16440, Control_c, 1, 7, 77
3, 16460, Control_c, 1, 7, 76
3, 16480, Control_c, 1, 7, 75
3, 16590, Control_c, 1, 7, 77
3, 16630, Control_c, 1, 7, 79
3, 16640, Control_c, 1, 7, 80
3, 16700, Control_c, 1, 7, 82
3, 16720, Control_c, 1, 7, 83
3, 16740, Control_c, 1, 7, 85
3, 16760, Control_c, 1, 7, 86
3, 16780, Control_c, 1, 7, 87
3, 16790, Control_c, 1, 7, 88
3, 16810, Control_c, 1, 7, 89
3, 16820, Control_c, 1, 7, 90
3, 16880, Control_c, 1, 7, 96
3, 16960, Control_c, 1, 7, 98
3, 17020, Control_c, 1, 7, 100
3, 17080, Control_c, 1, 7, 106
3, 17140, Control_c, 1, 7, 108
3, 17150, Control_c, 1, 7, 109
3, 17170, Control_c, 1, 7, 111
3, 17250, Control_c, 1, 7, 117
3, 17280, Note_on_c, 1, 74, 0
3, 17280, Note_on_c, 1, 74, 0
3, 17280, Note_on_c, 1, 73, 65
3, 17280, Note_on_c, 1, 76, 65
3, 17290, Control_c, 1, 7, 125
3, 17300, Control_c, 1, 7, 124
3, 17320, Control_c, 1, 7, 122
3, 17330, Control_c, 1, 7, 119
3, 17340, Control_c, 1, 7, 112
3, 17350, Control_c, 1, 7, 106
3, 17360, Control_c, 1, 7, 103
3, 17370, Control_c, 1, 7, 98
3, 17380, Control_c, 1, 7, 96
3, 17390, Control_c, 1, 7, 88
3, 17400, Control_c, 1, 7, 85
3, 17410, Control_c, 1, 7, 83
3, 17420, Control_c, 1, 7, 71
3, 17460, Control_c, 1, 7, 70
3, 17570, Control_c, 1, 7, 71
3, 17590, Control_c, 1, 7, 72
3, 17600, Control_c, 1, 7, 73
3, 17610, Control_c, 1, 7, 74
3, 17620, Control_c, 1, 7, 75
3, 17650, Control_c, 1, 7, 76
3, 17660, Control_c, 1, 7, 77
3, 17720, Control_c, 1, 7, 79
3, 17740, Control_c, 1, 7, 80
3, 17750, Control_c, 1, 7, 81
3, 17810, Control_c, 1, 7, 83
3, 17830, Control_c, 1, 7, 85
3, 17850, Control_c, 1, 7, 86
3, 17930, Control_c, 1, 7, 92
3, 18010, Control_c, 1, 7, 98
3, 18030, Control_c, 1, 7, 100
3, 18090, Control_c, 1, 7, 101
3, 18110, Control_c, 1, 7, 103
3, 18120, Control_c, 1, 7, 104
3, 18140, Control_c, 1, 7, 106
3, 18160, Control_c, 1, 7, 108
3, 18170, Control_c, 1, 7, 109
3, 18180, Control_c, 1, 7, 111
3, 18210, Control_c, 1, 7, 113
3, 18240, Note_on_c, 1, 76, 0
3, 18240, Note_on_c, 1, 73, 0
3, 18240, Note_on_c, 1, 74, 67
3, 18240, Note_on_c, 1, 78, 67
3, 18240, Control_c, 1, 7, 123
3, 18250, Control_c, 1, 7, 122
3, 18270, Control_c, 1, 7, 108
3, 18280, Control_c, 1, 7, 103
3, 18290, Control_c, 1, 7, 100
3, 18300, Control_c, 1, 7, 98
3, 18310, Control_c, 1, 7, 95
3, 18320, Control_c, 1, 7, 88
3, 18330, Control_c, 1, 7, 86
3, 18340, Control_c, 1, 7, 84
3, 18350, Control_c, 1, 7, 78
3, 18360, Control_c, 1, 7, 72
3, 18370, Control_c, 1, 7, 70
3, 18390, Control_c, 1, 7, 68
3, 18400, Control_c, 1, 7, 66
3, 18490, Control_c, 1, 7, 72
3, 18500, Control_c, 1, 7, 73
3, 18520, Control_c, 1, 7, 75
3, 18530, Control_c, 1, 7, 76
3, 18540, Control_c, 1, 7, 77
3, 18630, Control_c, 1, 7, 83
3, 18640, Control_c, 1, 7, 84
3, 18660, Control_c, 1, 7, 86
3, 18670, Control_c, 1, 7, 88
3, 18730, Control_c, 1, 7, 89
3, 18750, Control_c, 1, 7, 91
3, 18760, Control_c, 1, 7, 92
3, 18770, Control_c, 1, 7, 93
3, 18780, Control_c, 1, 7, 94
3, 18800, Control_c, 1, 7, 96
3, 18820, Control_c, 1, 7, 97
3, 18830, Control_c, 1, 7, 96
3, 18920, Control_c, 1, 7, 97
3, 18940, Control_c, 1, 7, 99
3, 18960, Control_c, 1, 7, 100
3, 18970, Control_c, 1, 7, 101
3, 19030, Control_c, 1, 7, 103
3, 19050, Control_c, 1, 7, 105
3, 19060, Control_c, 1, 7, 106
3, 19070, Control_c, 1, 7, 107
3, 19130, Control_c, 1, 7, 109
3, 19150, Control_c, 1, 7, 110
3, 19160, Control_c, 1, 7, 111
3, 19170, Control_c, 1, 7, 112
3, 19190, Control_c, 1, 7, 114
3, 19200, Note_on_c, 1, 78, 0
3, 19200, Note_on_c, 1, 74, 0
3, 19200, Note_on_c, 1, 79, 78
3, 19200, Note_on_c, 1, 83, 78
3, 19230, Control_c, 1, 7, 112
3, 19250, Control_c, 1, 7, 111
3, 19270, Control_c, 1, 7, 108
3, 19280, Control_c, 1, 7, 105
3, 19300, Control_c, 1, 7, 104
3, 19310, Control_c, 1, 7, 103
3, 19350, Control_c, 1, 7, 102
3, 19360, Control_c, 1, 7, 101
3, 19380, Control_c, 1, 7, 100
3, 19400, Control_c, 1, 7, 99
3, 19420, Control_c, 1, 7, 98
3, 19450, Control_c, 1, 7, 97
3, 19460, Control_c, 1, 7, 98
3, 19500, Control_c, 1, 7, 99
3, 19510, Control_c, 1, 7, 100
3, 19530, Control_c, 1, 7, 101
3, 19550, Control_c, 1, 7, 102
3, 19560, Control_c, 1, 7, 104
3, 19570, Control_c, 1, 7, 105
3, 19580, Control_c, 1, 7, 106
3, 19600, Control_c, 1, 7, 108
3, 19610, Control_c, 1, 7, 110
3, 19630, Control_c, 1, 7, 111
3, 19640, Control_c, 1, 7, 113
3, 19650, Control_c, 1, 7, 114
3, 19680, Note_on_c, 1, 83, 0
3, 19680, Note_on_c, 1, 79, 0
3, 19680, Note_on_c, 1, 84, 80
3, 19680, Note_on_c, 1, 81, 80
3, 19690, Control_c, 1, 7, 115
3, 19700, Control_c, 1, 7, 113
3, 19710, Control_c, 1, 7, 112
3, 19720, Control_c, 1, 7, 111
3, 19740, Control_c, 1, 7, 110
3, 19750, Control_c, 1, 7, 109
3, 19770, Control_c, 1, 7, 108
3, 19780, Control_c, 1, 7, 106
3, 19800, Control_c, 1, 7, 105
3, 19810, Control_c, 1, 7, 104
3, 19820, Control_c, 1, 7, 103
3, 19840, Control_c, 1, 7, 99
3, 19880, Control_c, 1, 7, 100
3, 19940, Control_c, 1, 7, 101
3, 20020, Control_c, 1, 7, 102
3, 20070, Control_c, 1, 7, 103
3, 20140, Control_c, 1, 7, 104
3, 20150, Control_c, 1, 7, 105
3, 20160, Note_on_c, 1, 81, 0
3, 20160, Note_on_c, 1, 84, 0
3, 20160, Note_on_c, 1, 79, 80
3, 20160, Note_on_c, 1, 83, 80
3, 20240, Control_c, 1, 7, 107
3, 20260, Control_c, 1, 7, 108
3, 20280, Control_c, 1, 7, 109
3, 20340, Control_c, 1, 7, 110
3, 20400, Note_on_c, 1, 83, 0
3, 20400, Note_on_c, 1, 79, 0
3, 20400, Note_on_c, 1, 81, 86
3, 20400, Note_on_c, 1, 78, 86
3, 20400, Control_c, 1, 7, 112
3, 20460, Control_c, 1, 7, 113
3, 20550, Control_c, 1, 7, 114
3, 20640, Note_on_c, 1, 78, 0
3, 20640, Note_on_c, 1, 81, 0
3, 20640, Note_on_c, 1, 79, 97
3, 20640, Note_on_c, 1, 83, 97
3, 20640, Control_c, 1, 7, 116
3, 20720, Control_c, 1, 7, 117
3, 20780, Control_c, 1, 7, 118
3, 20840, Control_c, 1, 7, 119
3, 20880, Note_on_c, 1, 83, 0
3, 20880, Note_on_c, 1, 85, 97
3, 20900, Control_c, 1, 7, 120
3, 20960, Control_c, 1, 7, 121
3, 20980, Control_c, 1, 7, 122
3, 21010, Control_c, 1, 7, 123
3, 21030, Control_c, 1, 7, 124
3, 21060, Control_c, 1, 7, 125
3, 21090, Note_on_c, 1, 79, 0
3, 21120, Note_on_c, 1, 85, 0
3, 21120, Note_on_c, 1, 86, 97
3, 21120, Note_on_c, 1, 78, 97
3, 21130, Control_c, 1, 7, 125
3, 21170, Control_c, 1, 7, 124
3, 21190, Control_c, 1, 7, 123
3, 21232, Note_on_c, 1, 78, 0
3, 21232, Note_on_c, 1, 86, 0
3, 21260, Control_c, 1, 7, 122
3, 21280, Control_c, 1, 7, 121
3, 21380, Control_c, 1, 7, 120
3, 21420, Control_c, 1, 7, 119
3, 21480, Note_on_c, 1, 76, 97
3, 21480, Note_on_c, 1, 73, 97
3, 21500, Control_c, 1, 7, 118
3, 21560, Control_c, 1, 7, 117
3, 21600, Note_on_c, 1, 73, 0
3, 21600, Note_on_c, 1, 76, 0
3, 21600, Note_on_c, 1, 78, 98
3, 21600, Note_on_c, 1, 74, 98
3, 21640, Control_c, 1, 7, 116
3, 21704, Note_on_c, 1, 74, 0
3, 21704, Note_on_c, 1, 78, 0
3, 21720, Note_on_c, 1, 78, 84
3, 21720, Note_on_c, 1, 74, 84
3, 21720, Control_c, 1, 7, 114
3, 21800, Control_c, 1, 7, 113
3, 21815, Note_on_c, 1, 74, 0
3, 21815, Note_on_c, 1, 78, 0
3, 21860, Control_c, 1, 7, 112
3, 21910, Control_c, 1, 7, 111
3, 21960, Note_on_c, 1, 73, 84
3, 21960, Note_on_c, 1, 76, 84
3, 21970, Control_c, 1, 7, 110
3, 21990, Control_c, 1, 7, 109
3, 22080, Note_on_c, 1, 76, 0
3, 22080, Note_on_c, 1, 73, 0
3, 22080, Note_on_c, 1, 74, 102
3, 22080, Note_on_c, 1, 78, 102
3, 22184, Note_on_c, 1, 78, 0
3, 22184, Note_on_c, 1, 74, 0
3, 22200, Note_on_c, 1, 74, 102
3, 22200, Note_on_c, 1, 78, 102
3, 22260, Control_c, 1, 7, 108
3, 22295, Note_on_c, 1, 78, 0
3, 22295, Note_on_c, 1, 74, 0
3, 22360, Control_c, 1, 7, 107
3, 22430, Control_c, 1, 7, 106
3, 22440, Note_on_c, 1, 76, 80
3, 22440, Note_on_c, 1, 73, 80
3, 22470, Control_c, 1, 7, 105
3, 22560, Note_on_c, 1, 76, 0
3, 22560, Note_on_c, 1, 78, 102
3, 22560, Note_on_c, 1, 74, 102
3, 22564, Note_on_c, 1, 73, 0
3, 22600, Control_c, 1, 7, 104
3, 22670, Note_on_c, 1, 74, 0
3, 22670, Note_on_c, 1, 78, 0
3, 22680, Note_on_c, 1, 76, 82
3, 22680, Note_on_c, 1, 73, 82
3, 22700, Control_c, 1, 7, 103
3, 22790, Note_on_c, 1, 73, 0
3, 22790, Note_on_c, 1, 76, 0
3, 22800, Note_on_c, 1, 78, 91
3, 22800, Note_on_c, 1, 74, 91
3, 22800, Control_c, 1, 7, 102
3, 22820, Control_c, 1, 7, 101
3, 22910, Note_on_c, 1, 74, 0
3, 22910, Note_on_c, 1, 78, 0
3, 22920, Note_on_c, 1, 76, 98
3, 22920, Note_on_c, 1, 73, 98
3, 22960, Control_c, 1, 7, 100
3, 23030, Note_on_c, 1, 73, 0
3, 23030, Note_on_c, 1, 76, 0
3, 23040, Note_on_c, 1, 74, 102
3, 23040, Note_on_c, 1, 74, 102
3, 23060, Control_c, 1, 7, 99
3, 23150, Note_on_c, 1, 74, 0
3, 23150, Note_on_c, 1, 74, 0
3, 23270, Control_c, 1, 7, 98
3, 23280, Note_on_c, 1, 74, 102
3, 23280, Note_on_c, 1, 74, 102
3, 23337, Note_on_c, 1, 74, 0
3, 23337, Note_on_c, 1, 74, 0
3, 23340, Note_on_c, 1, 73, 92
3, 23340, Note_on_c, 1, 73, 92
3, 23350, Control_c, 1, 7, 97
3, 23397, Note_on_c, 1, 73, 0
3, 23397, Note_on_c, 1, 73, 0
3, 23400, Note_on_c, 1, 71, 88
3, 23400, Note_on_c, 1, 71, 88
3, 23457, Note_on_c, 1, 71, 0
3, 23457, Note_on_c, 1, 71, 0
3, 23460, Note_on_c, 1, 69, 84
3, 23460, Note_on_c, 1, 69, 84
3, 23517, Note_on_c, 1, 69, 0
3, 23517, Note_on_c, 1, 69, 0
3, 23520, Note_on_c, 1, 74, 81
3, 23520, Note_on_c, 1, 74, 81
3, 23560, Control_c, 1, 7, 96
3, 23577, Note_on_c, 1, 74, 0
3, 23577, Note_on_c, 1, 74, 0
3, 23580, Note_on_c, 1, 73, 81
3, 23580, Note_on_c, 1, 73, 81
3, 23637, Note_on_c, 1, 73, 0
3, 23637, Note_on_c, 1, 73, 0
3, 23640, Note_on_c, 1, 71, 81
3, 23640, Note_on_c, 1, 71, 81
3, 23697, Note_on_c, 1, 71, 0
3, 23697, Note_on_c, 1, 71, 0
3, 23700, Note_on_c, 1, 69, 82
3, 23700, Note_on_c, 1, 69, 82
3, 23740, Control_c, 1, 7, 98
3, 23757, Note_on_c, 1, 69, 0
3, 23757, Note_on_c, 1, 69, 0
3, 23760, Note_on_c, 1, 67, 85
3, 23760, Note_on_c, 1, 67, 85
3, 23817, Note_on_c, 1, 67, 0
3, 23817, Note_on_c, 1, 67, 0
3, 23820, Note_on_c, 1, 66, 88
3, 23820, Note_on_c, 1, 66, 88
3, 23877, Note_on_c, 1, 66, 0
3, 23877, Note_on_c, 1, 66, 0
3, 23880, Note_on_c, 1, 64, 92
3, 23880, Note_on_c, 1, 64, 92
3, 23880, Control_c, 1, 7, 100
3, 23937, Note_on_c, 1, 64, 0
3, 23937, Note_on_c, 1, 64, 0
3, 23940, Note_on_c, 1, 62, 96
3, 23940, Note_on_c, 1, 62, 96
3, 23980, Control_c, 1, 7, 101
3, 23997, Note_on_c, 1, 62, 0
3, 23997, Note_on_c, 1, 62, 0
3, 24000, Note_on_c, 1, 69, 102
3, 24000, Note_on_c, 1, 69, 102
3, 24040, Control_c, 1, 7, 102
3, 24120, Control_c, 1, 7, 104
3, 24192, Note_on_c, 1, 69, 0
3, 24192, Note_on_c, 1, 69, 0
3, 24200, Control_c, 1, 7, 110
3, 24220, Control_c, 1, 7, 111
3, 24240, Note_on_c, 1, 79, 101
3, 24240, Note_on_c, 1, 76, 101
3, 24240, Control_c, 1, 7, 112
3, 24300, Control_c, 1, 7, 113
3, 24360, Control_c, 1, 7, 115
3, 24460, Control_c, 1, 7, 123
3, 24480, Note_on_c, 1, 76, 0
3, 24480, Note_on_c, 1, 79, 0
3, 24480, Note_on_c, 1, 78, 102
3, 24480, Note_on_c, 1, 74, 102
3, 24620, Control_c, 1, 7, 127
3, 24960, Note_on_c, 1, 74, 0
3, 24960, Note_on_c, 1, 78, 0
3, 24960, Note_on_c, 1, 76, 103
3, 24960, Note_on_c, 1, 73, 103
3, 25152, Note_on_c, 1, 73, 0
3, 25152, Note_on_c, 1, 76, 0
3, 25170, Control_c, 1, 7, 125
3, 25200, Note_on_c, 1, 79, 104
3, 25200, Note_on_c, 1, 76, 104
3, 25210, Control_c, 1, 7, 124
3, 25290, Control_c, 1, 7, 123
3, 25410, Control_c, 1, 7, 122
3, 25440, Note_on_c, 1, 76, 0
3, 25440, Note_on_c, 1, 79, 0
3, 25440, Note_on_c, 1, 78, 100
3, 25440, Note_on_c, 1, 74, 100
3, 25510, Control_c, 1, 7, 120
3, 25590, Control_c, 1, 7, 119
3, 25730, Control_c, 1, 7, 117
3, 25870, Control_c, 1, 7, 116
3, 25920, Note_on_c, 1, 74, 0
3, 25920, Note_on_c, 1, 78, 0
3, 25920, Note_on_c, 1, 73, 105
3, 25920, Note_on_c, 1, 76, 105
3, 25990, Control_c, 1, 7, 114
3, 26090, Control_c, 1, 7, 112
3, 26112, Note_on_c, 1, 76, 0
3, 26112, Note_on_c, 1, 73, 0
3, 26160, Note_on_c, 1, 74, 105
3, 26160, Note_on_c, 1, 78, 105
3, 26230, Control_c, 1, 7, 111
3, 26350, Control_c, 1, 7, 109
3, 26352, Note_on_c, 1, 78, 0
3, 26352, Note_on_c, 1, 74, 0
3, 26400, Note_on_c, 1, 76, 99
3, 26400, Note_on_c, 1, 73, 99
3, 26450, Control_c, 1, 7, 108
3, 26510, Control_c, 1, 7, 106
3, 26592, Note_on_c, 1, 73, 0
3, 26592, Note_on_c, 1, 76, 0
3, 26610, Control_c, 1, 7, 104
3, 26640, Note_on_c, 1, 78, 98
3, 26640, Note_on_c, 1, 74, 98
3, 26710, Control_c, 1, 7, 102
3, 26832, Note_on_c, 1, 74, 0
3, 26832, Note_on_c, 1, 78, 0
3, 26870, Control_c, 1, 7, 96
3, 26880, Note_on_c, 1, 76, 96
3, 26880, Note_on_c, 1, 73, 96
3, 26992, Note_on_c, 1, 73, 0
3, 26992, Note_on_c, 1, 76, 0
3, 27000, Note_on_c, 1, 69, 96
3, 27000, Note_on_c, 1, 69, 96
3, 27010, Control_c, 1, 7, 90
3, 27048, Note_on_c, 1, 69, 0
3, 27048, Note_on_c, 1, 69, 0
3, 27060, Note_on_c, 1, 69, 96
3, 27060, Note_on_c, 1, 69, 96
3, 27108, Note_on_c, 1, 69, 0
3, 27108, Note_on_c, 1, 69, 0
3, 27120, Note_on_c, 1, 69, 96
3, 27120, Note_on_c, 1, 69, 96
3, 27130, Control_c, 1, 7, 88
3, 27232, Note_on_c, 1, 69, 0
3, 27232, Note_on_c, 1, 69, 0
3, 27240, Note_on_c, 1, 69, 93
3, 27240, Note_on_c, 1, 69, 93
3, 27250, Control_c, 1, 7, 86
3, 27330, Control_c, 1, 7, 85
3, 27352, Note_on_c, 1, 69, 0
3, 27352, Note_on_c, 1, 69, 0
3, 27360, Note_on_c, 1, 69, 93
3, 27360, Note_on_c, 1, 69, 93
3, 27410, Control_c, 1, 7, 84
3, 27490, Control_c, 1, 7, 83
3, 27610, Control_c, 1, 7, 82
3, 27662, Note_on_c, 1, 69, 0
3, 27662, Note_on_c, 1, 69, 0
3, 27730, Control_c, 1, 7, 81
3, 27850, Control_c, 1, 7, 79
3, 27861, Control_c, 1, 7, 110
3, 27863, Control_c, 1, 7, 109
3, 27865, Control_c, 1, 7, 108
3, 27867, Control_c, 1, 7, 107
3, 27869, Control_c, 1, 7, 106
3, 27871, Control_c, 1, 7, 105
3, 27874, Control_c, 1, 7, 104
3, 27876, Control_c, 1, 7, 103
3, 27878, Control_c, 1, 7, 102
3, 27880, Control_c, 1, 7, 101
3, 27882, Control_c, 1, 7, 100
3, 27884, Control_c, 1, 7, 99
3, 27886, Control_c, 1, 7, 98
3, 27888, Control_c, 1, 7, 97
3, 27891, Control_c, 1, 7, 96
3, 27893, Control_c, 1, 7, 95
3, 27895, Control_c, 1, 7, 94
3, 27897, Control_c, 1, 7, 93
3, 27899, Control_c, 1, 7, 92
3, 27901, Control_c, 1, 7, 91
3, 27903, Control_c, 1, 7, 90
3, 27905, Control_c, 1, 7, 89
3, 27908, Control_c, 1, 7, 88
3, 27910, Control_c, 1, 7, 87
3, 27912, Control_c, 1, 7, 86
3, 27914, Control_c, 1, 7, 85
3, 27916, Control_c, 1, 7, 84
3, 27918, Control_c, 1, 7, 83
3, 27920, Control_c, 1, 7, 82
3, 27922, Control_c, 1, 7, 81
3, 27925, Control_c, 1, 7, 80
3, 27927, Control_c, 1, 7, 79
3, 27929, Control_c, 1, 7, 78
3, 27931, Control_c, 1, 7, 77
3, 27933, Control_c, 1, 7, 76
3, 27935, Control_c, 1, 7, 75
3, 27937, Control_c, 1, 7, 74
3, 27939, Control_c, 1, 7, 73
3, 27942, Control_c, 1, 7, 72
3, 27944, Control_c, 1, 7, 71
3, 27946, Control_c, 1, 7, 70
3, 27948, Control_c, 1, 7, 69
3, 27950, Control_c, 1, 7, 68
3, 27952, Control_c, 1, 7, 67
3, 27954, Control_c, 1, 7, 66
3, 27956, Control_c, 1, 7, 65
3, 27959, Control_c, 1, 7, 64
3, 27960, Control_c, 1, 7, 64
3, 29760, Note_on_c, 1, 78, 74
3, 29760, Note_on_c, 1, 74, 74
3, 29760, Control_c, 1, 7, 95
3, 29780, Control_c, 1, 7, 94
3, 29800, Control_c, 1, 7, 93
3, 29810, Control_c, 1, 7, 92
3, 29840, Control_c, 1, 7, 91
3, 29850, Control_c, 1, 7, 90
3, 29860, Control_c, 1, 7, 88
3, 29880, Control_c, 1, 7, 86
3, 29890, Control_c, 1, 7, 83
3, 29910, Control_c, 1, 7, 82
3, 29930, Control_c, 1, 7, 80
3, 29940, Control_c, 1, 7, 79
3, 29960, Control_c, 1, 7, 78
3, 29970, Control_c, 1, 7, 76
3, 29990, Control_c, 1, 7, 75
3, 30010, Control_c, 1, 7, 73
3, 30070, Control_c, 1, 7, 72
3, 30080, Control_c, 1, 7, 70
3, 30120, Note_on_c, 1, 74, 0
3, 30120, Note_on_c, 1, 78, 0
3, 30120, Note_on_c, 1, 76, 60
3, 30120, Note_on_c, 1, 73, 60
3, 30140, Control_c, 1, 7, 69
3, 30150, Control_c, 1, 7, 67
3, 30170, Control_c, 1, 7, 65
3, 30190, Control_c, 1, 7, 64
3, 30216, Note_on_c, 1, 73, 0
3, 30216, Note_on_c, 1, 76, 0
3, 30240, Note_on_c, 1, 78, 68
3, 30240, Note_on_c, 1, 74, 68
3, 30240, Control_c, 1, 7, 98
3, 30310, Control_c, 1, 7, 96
3, 30320, Control_c, 1, 7, 95
3, 30340, Control_c, 1, 7, 94
3, 30350, Control_c, 1, 7, 93
3, 30370, Control_c, 1, 7, 92
3, 30390, Control_c, 1, 7, 89
3, 30410, Control_c, 1, 7, 88
3, 30420, Control_c, 1, 7, 86
3, 30430, Control_c, 1, 7, 84
3, 30440, Control_c, 1, 7, 83
3, 30450, Control_c, 1, 7, 81
3, 30470, Control_c, 1, 7, 74
3, 30490, Control_c, 1, 7, 73
3, 30510, Control_c, 1, 7, 70
3, 30530, Control_c, 1, 7, 69
3, 30540, Control_c, 1, 7, 68
3, 30550, Control_c, 1, 7, 67
3, 30560, Control_c, 1, 7, 66
3, 30580, Control_c, 1, 7, 64
3, 30600, Note_on_c, 1, 74, 0
3, 30600, Note_on_c, 1, 78, 0
3, 30600, Note_on_c, 1, 73, 62
3, 30600, Note_on_c, 1, 76, 62
3, 30600, Control_c, 1, 7, 62
3, 30620, Control_c, 1, 7, 61
3, 30630, Control_c, 1, 7, 60
3, 30696, Note_on_c, 1, 76, 0
3, 30696, Note_on_c, 1, 73, 0
3, 30720, Note_on_c, 1, 71, 69
3, 30720, Note_on_c, 1, 74, 69
3, 30720, Control_c, 1, 7, 99
3, 30740, Control_c, 1, 7, 101
3, 30750, Control_c, 1, 7, 103
3, 30760, Control_c, 1, 7, 105
3, 30780, Note_on_c, 1, 74, 0
3, 30780, Note_on_c, 1, 71, 0
3, 30780, Note_on_c, 1, 73, 77
3, 30780, Note_on_c, 1, 76, 77
3, 30780, Control_c, 1, 7, 107
3, 30790, Control_c, 1, 7, 108
3, 30810, Control_c, 1, 7, 109
3, 30830, Control_c, 1, 7, 111
3, 30840, Note_on_c, 1, 76, 0
3, 30840, Note_on_c, 1, 73, 0
3, 30840, Note_on_c, 1, 74, 82
3, 30840, Note_on_c, 1, 78, 82
3, 30900, Note_on_c, 1, 78, 0
3, 30900, Note_on_c, 1, 74, 0
3, 30900, Note_on_c, 1, 73, 87
3, 30900, Note_on_c, 1, 76, 87
3, 30900, Control_c, 1, 7, 112
3, 30910, Control_c, 1, 7, 113
3, 30960, Note_on_c, 1, 76, 0
3, 30960, Note_on_c, 1, 73, 0
3, 30960, Note_on_c, 1, 71, 89
3, 30960, Note_on_c, 1, 74, 89
3, 30990, Control_c, 1, 7, 108
3, 31000, Control_c, 1, 7, 106
3, 31010, Control_c, 1, 7, 104
3, 31020, Note_on_c, 1, 74, 0
3, 31020, Note_on_c, 1, 71, 0
3, 31020, Note_on_c, 1, 69, 87
3, 31020, Note_on_c, 1, 73, 87
3, 31030, Control_c, 1, 7, 102
3, 31040, Control_c, 1, 7, 100
3, 31050, Control_c, 1, 7, 99
3, 31080, Note_on_c, 1, 73, 0
3, 31080, Note_on_c, 1, 69, 0
3, 31080, Note_on_c, 1, 68, 79
3, 31080, Note_on_c, 1, 71, 79
3, 31080, Control_c, 1, 7, 97
3, 31110, Control_c, 1, 7, 94
3, 31120, Control_c, 1, 7, 92
3, 31140, Note_on_c, 1, 71, 0
3, 31140, Note_on_c, 1, 68, 0
3, 31140, Note_on_c, 1, 66, 72
3, 31140, Note_on_c, 1, 69, 72
3, 31160, Control_c, 1, 7, 90
3, 31170, Control_c, 1, 7, 88
3, 31180, Control_c, 1, 7, 87
3, 31200, Note_on_c, 1, 69, 0
3, 31200, Note_on_c, 1, 66, 0
3, 31200, Note_on_c, 1, 68, 69
3, 31200, Note_on_c, 1, 64, 69
3, 31200, Control_c, 1, 7, 84
3, 31220, Control_c, 1, 7, 83
3, 31230, Control_c, 1, 7, 82
3, 31240, Control_c, 1, 7, 80
3, 31270, Control_c, 1, 7, 79
3, 31320, Control_c, 1, 7, 77
3, 31350, Control_c, 1, 7, 76
3, 31360, Control_c, 1, 7, 75
3, 31520, Control_c, 1, 7, 76
3, 31540, Control_c, 1, 7, 77
3, 31550, Control_c, 1, 7, 78
3, 31570, Control_c, 1, 7, 79
3, 31580, Control_c, 1, 7, 80
3, 31610, Control_c, 1, 7, 81
3, 31620, Control_c, 1, 7, 82
3, 31630, Control_c, 1, 7, 83
3, 31660, Control_c, 1, 7, 84
3, 31670, Control_c, 1, 7, 85
3, 31680, Note_on_c, 1, 64, 0
3, 31680, Note_on_c, 1, 68, 0
3, 31680, Note_on_c, 1, 69, 64
3, 31680, Note_on_c, 1, 69, 64
3, 31680, Control_c, 1, 7, 120
3, 31682, Control_c, 1, 7, 119
3, 31684, Control_c, 1, 7, 118
3, 31686, Control_c, 1, 7, 117
3, 31688, Control_c, 1, 7, 116
3, 31690, Control_c, 1, 7, 115
3, 31692, Control_c, 1, 7, 114
3, 31694, Control_c, 1, 7, 113
3, 31697, Control_c, 1, 7, 112
3, 31699, Control_c, 1, 7, 111
3, 31700, Control_c, 1, 7, 86
3, 31701, Control_c, 1, 7, 110
3, 31703, Control_c, 1, 7, 109
3, 31705, Control_c, 1, 7, 108
3, 31707, Control_c, 1, 7, 107
3, 31709, Control_c, 1, 7, 106
3, 31710, Control_c, 1, 7, 87
3, 31711, Control_c, 1, 7, 105
3, 31714, Control_c, 1, 7, 104
3, 31716, Control_c, 1, 7, 103
3, 31718, Control_c, 1, 7, 102
3, 31720, Control_c, 1, 7, 101
3, 31722, Control_c, 1, 7, 100
3, 31724, Control_c, 1, 7, 99
3, 31726, Control_c, 1, 7, 98
3, 31728, Control_c, 1, 7, 97
3, 31731, Control_c, 1, 7, 96
3, 31733, Control_c, 1, 7, 95
3, 31735, Control_c, 1, 7, 94
3, 31737, Control_c, 1, 7, 93
3, 31739, Control_c, 1, 7, 92
3, 31741, Control_c, 1, 7, 91
3, 31743, Control_c, 1, 7, 90
3, 31745, Control_c, 1, 7, 89
3, 31748, Control_c, 1, 7, 88
3, 31750, Control_c, 1, 7, 87
3, 31752, Control_c, 1, 7, 86
3, 31754, Control_c, 1, 7, 85
3, 31756, Control_c, 1, 7, 84
3, 31758, Control_c, 1, 7, 83
3, 31760, Control_c, 1, 7, 82
3, 31762, Control_c, 1, 7, 81
3, 31765, Control_c, 1, 7, 80
3, 31767, Control_c, 1, 7, 79
3, 31769, Control_c, 1, 7, 78
3, 31771, Control_c, 1, 7, 77
3, 31773, Control_c, 1, 7, 76
3, 31775, Control_c, 1, 7, 75
3, 31776, Note_on_c, 1, 69, 0
3, 31776, Note_on_c, 1, 69, 0
3, 31777, Control_c, 1, 7, 74
3, 31779, Control_c, 1, 7, 73
3, 31782, Control_c, 1, 7, 72
3, 31784, Control_c, 1, 7, 71
3, 31786, Control_c, 1, 7, 70
3, 31788, Control_c, 1, 7, 69
3, 31790, Control_c, 1, 7, 68
3, 31792, Control_c, 1, 7, 67
3, 31794, Control_c, 1, 7, 66
3, 31796, Control_c, 1, 7, 65
3, 31799, Control_c, 1, 7, 64
3, 31800, Control_c, 1, 7, 64
3, 33600, Control_c, 1, 7, 96
3, 33600, Note_on_c, 1, 74, 80
3, 33600, Note_on_c, 1, 78, 80
3, 33600, Control_c, 1, 7, 120
3, 33602, Control_c, 1, 7, 106
3, 33602, Control_c, 1, 7, 119
3, 33604, Control_c, 1, 7, 105
3, 33604, Control_c, 1, 7, 118
3, 33606, Control_c, 1, 7, 104
3, 33606, Control_c, 1, 7, 117
3, 33608, Control_c, 1, 7, 103
3, 33608, Control_c, 1, 7, 116
3, 33610, Control_c, 1, 7, 102
3, 33610, Control_c, 1, 7, 115
3, 33612, Control_c, 1, 7, 101
3, 33612, Control_c, 1, 7, 114
3, 33614, Control_c, 1, 7, 95
3, 33614, Control_c, 1, 7, 100
3, 33614, Control_c, 1, 7, 113
3, 33617, Control_c, 1, 7, 99
3, 33617, Control_c, 1, 7, 112
3, 33619, Control_c, 1, 7, 98
3, 33619, Control_c, 1, 7, 111
3, 33621, Control_c, 1, 7, 97
3, 33621, Control_c, 1, 7, 110
3, 33623, Control_c, 1, 7, 96
3, 33623, Control_c, 1, 7, 109
3, 33625, Control_c, 1, 7, 95
3, 33625, Control_c, 1, 7, 108
3, 33627, Control_c, 1, 7, 94
3, 33627, Control_c, 1, 7, 107
3, 33629, Control_c, 1, 7, 94
3, 33629, Control_c, 1, 7, 93
3, 33629, Control_c, 1, 7, 106
3, 33631, Control_c, 1, 7, 105
3, 33632, Control_c, 1, 7, 92
3, 33634, Control_c, 1, 7, 91
3, 33634, Control_c, 1, 7, 104
3, 33636, Control_c, 1, 7, 90
3, 33636, Control_c, 1, 7, 103
3, 33638, Control_c, 1, 7, 89
3, 33638, Control_c, 1, 7, 102
3, 33644, Control_c, 1, 7, 93
3, 33659, Control_c, 1, 7, 92
3, 33674, Control_c, 1, 7, 91
3, 33689, Control_c, 1, 7, 90
3, 33704, Control_c, 1, 7, 89
3, 33719, Control_c, 1, 7, 88
3, 33734, Control_c, 1, 7, 87
3, 33749, Control_c, 1, 7, 86
3, 33764, Control_c, 1, 7, 85
3, 33779, Control_c, 1, 7, 84
3, 33794, Control_c, 1, 7, 83
3, 33809, Control_c, 1, 7, 82
3, 33824, Control_c, 1, 7, 81
3, 33839, Control_c, 1, 7, 80
3, 33854, Control_c, 1, 7, 79
3, 33869, Control_c, 1, 7, 78
3, 33884, Control_c, 1, 7, 77
3, 33899, Control_c, 1, 7, 76
3, 33914, Control_c, 1, 7, 75
3, 33929, Control_c, 1, 7, 74
3, 33944, Control_c, 1, 7, 73
3, 33959, Control_c, 1, 7, 72
3, 33960, Note_on_c, 1, 78, 0
3, 33960, Note_on_c, 1, 74, 0
3, 33960, Note_on_c, 1, 73, 70
3, 33960, Note_on_c, 1, 76, 70
3, 33974, Control_c, 1, 7, 71
3, 33989, Control_c, 1, 7, 70
3, 34056, Note_on_c, 1, 76, 0
3, 34056, Note_on_c, 1, 73, 0
3, 34080, Note_on_c, 1, 74, 90
3, 34080, Note_on_c, 1, 78, 90
3, 34081, Control_c, 1, 7, 102
3, 34082, Control_c, 1, 7, 119
3, 34083, Control_c, 1, 7, 101
3, 34084, Control_c, 1, 7, 118
3, 34085, Control_c, 1, 7, 100
3, 34086, Control_c, 1, 7, 117
3, 34088, Control_c, 1, 7, 99
3, 34088, Control_c, 1, 7, 116
3, 34090, Control_c, 1, 7, 98
3, 34090, Control_c, 1, 7, 115
3, 34092, Control_c, 1, 7, 97
3, 34092, Control_c, 1, 7, 114
3, 34094, Control_c, 1, 7, 95
3, 34094, Control_c, 1, 7, 96
3, 34094, Control_c, 1, 7, 113
3, 34096, Control_c, 1, 7, 95
3, 34097, Control_c, 1, 7, 112
3, 34098, Control_c, 1, 7, 94
3, 34099, Control_c, 1, 7, 111
3, 34100, Control_c, 1, 7, 93
3, 34101, Control_c, 1, 7, 110
3, 34103, Control_c, 1, 7, 92
3, 34103, Control_c, 1, 7, 109
3, 34105, Control_c, 1, 7, 91
3, 34105, Control_c, 1, 7, 108
3, 34107, Control_c, 1, 7, 90
3, 34107, Control_c, 1, 7, 107
3, 34109, Control_c, 1, 7, 94
3, 34109, Control_c, 1, 7, 89
3, 34109, Control_c, 1, 7, 106
3, 34111, Control_c, 1, 7, 88
3, 34111, Control_c, 1, 7, 105
3, 34113, Control_c, 1, 7, 87
3, 34114, Control_c, 1, 7, 104
3, 34115, Control_c, 1, 7, 86
3, 34116, Control_c, 1, 7, 103
3, 34118, Control_c, 1, 7, 85
3, 34118, Control_c, 1, 7, 102
3, 34120, Control_c, 1, 7, 84
3, 34120, Control_c, 1, 7, 101
3, 34122, Control_c, 1, 7, 83
3, 34122, Control_c, 1, 7, 100
3, 34124, Control_c, 1, 7, 93
3, 34124, Control_c, 1, 7, 82
3, 34124, Control_c, 1, 7, 99
3, 34126, Control_c, 1, 7, 81
3, 34126, Control_c, 1, 7, 98
3, 34128, Control_c, 1, 7, 80
3, 34128, Control_c, 1, 7, 97
3, 34130, Control_c, 1, 7, 79
3, 34131, Control_c, 1, 7, 96
3, 34133, Control_c, 1, 7, 78
3, 34133, Control_c, 1, 7, 95
3, 34135, Control_c, 1, 7, 77
3, 34135, Control_c, 1, 7, 94
3, 34137, Control_c, 1, 7, 76
3, 34137, Control_c, 1, 7, 93
3, 34139, Control_c, 1, 7, 92
3, 34139, Control_c, 1, 7, 75
3, 34139, Control_c, 1, 7, 92
3, 34154, Control_c, 1, 7, 91
3, 34169, Control_c, 1, 7, 90
3, 34184, Control_c, 1, 7, 89
3, 34199, Control_c, 1, 7, 88
3, 34214, Control_c, 1, 7, 87
3, 34229, Control_c, 1, 7, 86
3, 34244, Control_c, 1, 7, 85
3, 34259, Control_c, 1, 7, 84
3, 34274, Control_c, 1, 7, 83
3, 34289, Control_c, 1, 7, 82
3, 34304, Control_c, 1, 7, 81
3, 34319, Control_c, 1, 7, 80
3, 34334, Control_c, 1, 7, 79
3, 34349, Control_c, 1, 7, 78
3, 34364, Control_c, 1, 7, 77
3, 34379, Control_c, 1, 7, 76
3, 34394, Control_c, 1, 7, 75
3, 34409, Control_c, 1, 7, 74
3, 34424, Control_c, 1, 7, 73
3, 34439, Control_c, 1, 7, 72
3, 34440, Note_on_c, 1, 78, 0
3, 34440, Note_on_c, 1, 74, 0
3, 34440, Note_on_c, 1, 76, 76
3, 34440, Note_on_c, 1, 73, 76
3, 34454, Control_c, 1, 7, 71
3, 34469, Control_c, 1, 7, 70
3, 34484, Control_c, 1, 7, 69
3, 34499, Control_c, 1, 7, 68
3, 34514, Control_c, 1, 7, 67
3, 34536, Note_on_c, 1, 73, 0
3, 34536, Note_on_c, 1, 76, 0
3, 34560, Note_on_c, 1, 74, 81
3, 34560, Note_on_c, 1, 71, 81
3, 34560, Control_c, 1, 7, 100
3, 34600, Control_c, 1, 7, 103
3, 34620, Note_on_c, 1, 71, 0
3, 34620, Note_on_c, 1, 74, 0
3, 34620, Note_on_c, 1, 73, 90
3, 34620, Note_on_c, 1, 76, 90
3, 34630, Control_c, 1, 7, 101
3, 34650, Control_c, 1, 7, 103
3, 34680, Note_on_c, 1, 76, 0
3, 34680, Note_on_c, 1, 73, 0
3, 34680, Note_on_c, 1, 78, 95
3, 34680, Note_on_c, 1, 74, 95
3, 34680, Control_c, 1, 7, 106
3, 34690, Control_c, 1, 7, 107
3, 34720, Control_c, 1, 7, 108
3, 34730, Control_c, 1, 7, 109
3, 34740, Note_on_c, 1, 74, 0
3, 34740, Note_on_c, 1, 78, 0
3, 34740, Note_on_c, 1, 76, 98
3, 34740, Note_on_c, 1, 73, 98
3, 34800, Note_on_c, 1, 73, 0
3, 34800, Note_on_c, 1, 76, 0
3, 34800, Note_on_c, 1, 74, 98
3, 34800, Note_on_c, 1, 71, 98
3, 34830, Control_c, 1, 7, 108
3, 34840, Control_c, 1, 7, 106
3, 34850, Control_c, 1, 7, 104
3, 34860, Note_on_c, 1, 71, 0
3, 34860, Note_on_c, 1, 74, 0
3, 34860, Note_on_c, 1, 73, 98
3, 34860, Note_on_c, 1, 69, 98
3, 34870, Control_c, 1, 7, 102
3, 34880, Control_c, 1, 7, 100
3, 34890, Control_c, 1, 7, 99
3, 34920, Note_on_c, 1, 69, 0
3, 34920, Note_on_c, 1, 73, 0
3, 34920, Note_on_c, 1, 71, 94
3, 34920, Note_on_c, 1, 68, 94
3, 34920, Control_c, 1, 7, 97
3, 34950, Control_c, 1, 7, 94
3, 34960, Control_c, 1, 7, 92
3, 34980, Note_on_c, 1, 68, 0
3, 34980, Note_on_c, 1, 71, 0
3, 34980, Note_on_c, 1, 69, 88
3, 34980, Note_on_c, 1, 66, 88
3, 35000, Control_c, 1, 7, 90
3, 35010, Control_c, 1, 7, 88
3, 35020, Control_c, 1, 7, 87
3, 35040, Note_on_c, 1, 66, 0
3, 35040, Note_on_c, 1, 69, 0
3, 35040, Note_on_c, 1, 64, 76
3, 35040, Note_on_c, 1, 68, 76
3, 35040, Control_c, 1, 7, 84
3, 35060, Control_c, 1, 7, 83
3, 35070, Control_c, 1, 7, 82
3, 35080, Control_c, 1, 7, 80
3, 35110, Control_c, 1, 7, 79
3, 35160, Control_c, 1, 7, 77
3, 35190, Control_c, 1, 7, 76
3, 35200, Control_c, 1, 7, 75
3, 35360, Control_c, 1, 7, 76
3, 35380, Control_c, 1, 7, 77
3, 35390, Control_c, 1, 7, 78
3, 35410, Control_c, 1, 7, 79
3, 35420, Control_c, 1, 7, 80
3, 35450, Control_c, 1, 7, 81
3, 35460, Control_c, 1, 7, 82
3, 35470, Control_c, 1, 7, 83
3, 35500, Control_c, 1, 7, 84
3, 35510, Control_c, 1, 7, 85
3, 35520, Note_on_c, 1, 68, 0
3, 35520, Note_on_c, 1, 64, 0
3, 35520, Note_on_c, 1, 69, 102
3, 35520, Note_on_c, 1, 69, 102
3, 35616, Note_on_c, 1, 69, 0
3, 35616, Note_on_c, 1, 69, 0
3, 35640, Control_c, 1, 7, 110
3, 35760, Note_on_c, 1, 85, 102
3, 35760, Note_on_c, 1, 78, 102
3, 35856, Note_on_c, 1, 78, 0
3, 35856, Note_on_c, 1, 85, 0
3, 36720, Note_on_c, 1, 76, 101
3, 36720, Note_on_c, 1, 83, 101
3, 36816, Note_on_c, 1, 83, 0
3, 36816, Note_on_c, 1, 76, 0
3, 37680, Note_on_c, 1, 81, 102
3, 37680, Note_on_c, 1, 74, 102
3, 37776, Note_on_c, 1, 74, 0
3, 37776, Note_on_c, 1, 81, 0
3, 38390, Control_c, 1, 7, 64
3, 38400, Note_on_c, 1, 74, 99
3, 38400, Note_on_c, 1, 80, 99
3, 38400, Control_c, 1, 7, 63
3, 38430, Control_c, 1, 7, 64
3, 38450, Control_c, 1, 7, 65
3, 38530, Control_c, 1, 7, 66
3, 38550, Control_c, 1, 7, 67
3, 38570, Control_c, 1, 7, 68
3, 38590, Control_c, 1, 7, 69
3, 38650, Control_c, 1, 7, 70
3, 38730, Control_c, 1, 7, 71
3, 38810, Control_c, 1, 7, 73
3, 38870, Control_c, 1, 7, 74
3, 38880, Note_on_c, 1, 80, 0
3, 38880, Note_on_c, 1, 74, 0
3, 38880, Note_on_c, 1, 73, 99
3, 38880, Note_on_c, 1, 81, 99
3, 38890, Control_c, 1, 7, 75
3, 38940, Control_c, 1, 7, 76
3, 38960, Control_c, 1, 7, 77
3, 38980, Control_c, 1, 7, 78
3, 39000, Control_c, 1, 7, 79
3, 39120, Control_c, 1, 7, 80
3, 39140, Control_c, 1, 7, 81
3, 39160, Control_c, 1, 7, 82
3, 39170, Control_c, 1, 7, 83
3, 39250, Control_c, 1, 7, 84
3, 39310, Control_c, 1, 7, 85
3, 39360, Note_on_c, 1, 81, 0
3, 39360, Note_on_c, 1, 73, 0
3, 39360, Note_on_c, 1, 80, 98
3, 39360, Note_on_c, 1, 83, 98
3, 39390, Control_c, 1, 7, 86
3, 39450, Control_c, 1, 7, 87
3, 39520, Control_c, 1, 7, 88
3, 39600, Control_c, 1, 7, 89
3, 39680, Control_c, 1, 7, 90
3, 39740, Control_c, 1, 7, 91
3, 39750, Control_c, 1, 7, 92
3, 39810, Control_c, 1, 7, 93
3, 39830, Control_c, 1, 7, 94
3, 39840, Note_on_c, 1, 83, 0
3, 39840, Note_on_c, 1, 80, 0
3, 39840, Note_on_c, 1, 85, 97
3, 39840, Note_on_c, 1, 81, 97
3, 39890, Control_c, 1, 7, 95
3, 39970, Control_c, 1, 7, 96
3, 39980, Control_c, 1, 7, 97
3, 40060, Control_c, 1, 7, 98
3, 40080, Note_on_c, 1, 81, 0
3, 40080, Note_on_c, 1, 85, 0
3, 40080, Note_on_c, 1, 86, 96
3, 40080, Note_on_c, 1, 83, 96
3, 40140, Control_c, 1, 7, 99
3, 40220, Control_c, 1, 7, 100
3, 40280, Control_c, 1, 7, 101
3, 40320, Note_on_c, 1, 83, 0
3, 40320, Note_on_c, 1, 86, 0
3, 40320, Note_on_c, 1, 85, 108
3, 40320, Note_on_c, 1, 81, 108
3, 40340, Control_c, 1, 7, 102
3, 40400, Control_c, 1, 7, 103
3, 40420, Control_c, 1, 7, 104
3, 40480, Control_c, 1, 7, 105
3, 40550, Control_c, 1, 7, 106
3, 40670, Control_c, 1, 7, 107
3, 40790, Control_c, 1, 7, 108
3, 40850, Control_c, 1, 7, 109
3, 40870, Control_c, 1, 7, 110
3, 40890, Control_c, 1, 7, 111
3, 40940, Control_c, 1, 7, 112
3, 40960, Control_c, 1, 7, 113
3, 40980, Control_c, 1, 7, 114
3, 40990, Control_c, 1, 7, 115
3, 41050, Control_c, 1, 7, 116
3, 41110, Control_c, 1, 7, 118
3, 41140, Control_c, 1, 7, 120
3, 41170, Control_c, 1, 7, 121
3, 41250, Control_c, 1, 7, 122
3, 41320, Control_c, 1, 7, 123
3, 41390, Control_c, 1, 7, 122
3, 41550, Control_c, 1, 7, 121
3, 41650, Control_c, 1, 7, 120
3, 41790, Control_c, 1, 7, 119
3, 41870, Control_c, 1, 7, 118
3, 41950, Control_c, 1, 7, 117
3, 42030, Control_c, 1, 7, 116
3, 42090, Control_c, 1, 7, 115
3, 42150, Control_c, 1, 7, 114
3, 42270, Control_c, 1, 7, 112
3, 42430, Control_c, 1, 7, 106
3, 42570, Control_c, 1, 7, 104
3, 42650, Control_c, 1, 7, 103
3, 42770, Control_c, 1, 7, 102
3, 42950, Control_c, 1, 7, 101
3, 43150, Control_c, 1, 7, 100
3, 43200, Note_on_c, 1, 85, 0
3, 43200, Note_on_c, 1, 84, 107
3, 43200, Control_c, 1, 7, 123
3, 43210, Control_c, 1, 7, 122
3, 43290, Control_c, 1, 7, 120
3, 43390, Control_c, 1, 7, 114
3, 43450, Control_c, 1, 7, 112
3, 43550, Control_c, 1, 7, 106
3, 43670, Control_c, 1, 7, 104
3, 43680, Note_on_c, 1, 84, 0
3, 43680, Note_on_c, 1, 83, 107
3, 43750, Control_c, 1, 7, 103
3, 43760, Control_c, 1, 7, 102
3, 43810, Control_c, 1, 7, 101
3, 43870, Control_c, 1, 7, 100
3, 43920, Note_on_c, 1, 81, 0
3, 43920, Note_on_c, 1, 80, 103
3, 43970, Control_c, 1, 7, 98
3, 44050, Control_c, 1, 7, 97
3, 44064, Note_on_c, 1, 83, 0
3, 44112, Note_on_c, 1, 80, 0
3, 44160, Note_on_c, 1, 76, 101
3, 44160, Note_on_c, 1, 85, 101
3, 44190, Control_c, 1, 7, 96
3, 44270, Control_c, 1, 7, 95
3, 44350, Control_c, 1, 7, 94
3, 44352, Note_on_c, 1, 85, 0
3, 44352, Note_on_c, 1, 76, 0
3, 44400, Note_on_c, 1, 74, 98
3, 44400, Note_on_c, 1, 83, 98
3, 44490, Control_c, 1, 7, 93
3, 44592, Note_on_c, 1, 83, 0
3, 44592, Note_on_c, 1, 74, 0
3, 44640, Note_on_c, 1, 73, 89
3, 44640, Note_on_c, 1, 81, 89
3, 44650, Control_c, 1, 7, 92
3, 44730, Control_c, 1, 7, 91
3, 44810, Control_c, 1, 7, 90
3, 44832, Note_on_c, 1, 81, 0
3, 44832, Note_on_c, 1, 73, 0
3, 44880, Note_on_c, 1, 71, 80
3, 44880, Note_on_c, 1, 80, 80
3, 45072, Note_on_c, 1, 80, 0
3, 45072, Note_on_c, 1, 71, 0
3, 45090, Control_c, 1, 7, 89
3, 45120, Note_on_c, 1, 73, 69
3, 45120, Note_on_c, 1, 81, 69
3, 45150, Control_c, 1, 7, 88
3, 45216, Note_on_c, 1, 81, 0
3, 45216, Note_on_c, 1, 73, 0
3, 45290, Control_c, 1, 7, 87
3, 45370, Control_c, 1, 7, 86
3, 45390, Control_c, 1, 7, 85
3, 45510, Control_c, 1, 7, 84
3, 45590, Control_c, 1, 7, 83
3, 45690, Control_c, 1, 7, 82
3, 46200, Control_c, 1, 7, 96
3, 46200, Control_c, 1, 7, 96
3, 46200, Note_on_c, 1, 74, 64
3, 46200, Note_on_c, 1, 71, 64
3, 46207, Control_c, 1, 7, 95
3, 46207, Control_c, 1, 7, 95
3, 46214, Control_c, 1, 7, 94
3, 46214, Control_c, 1, 7, 94
3, 46222, Control_c, 1, 7, 93
3, 46222, Control_c, 1, 7, 93
3, 46229, Control_c, 1, 7, 92
3, 46229, Control_c, 1, 7, 92
3, 46237, Control_c, 1, 7, 91
3, 46237, Control_c, 1, 7, 91
3, 46244, Control_c, 1, 7, 90
3, 46244, Control_c, 1, 7, 90
3, 46252, Control_c, 1, 7, 89
3, 46252, Control_c, 1, 7, 89
3, 46259, Control_c, 1, 7, 88
3, 46259, Control_c, 1, 7, 88
3, 46267, Control_c, 1, 7, 87
3, 46267, Control_c, 1, 7, 87
3, 46274, Control_c, 1, 7, 86
3, 46274, Control_c, 1, 7, 86
3, 46282, Control_c, 1, 7, 85
3, 46282, Control_c, 1, 7, 85
3, 46289, Control_c, 1, 7, 84
3, 46289, Control_c, 1, 7, 84
3, 46297, Control_c, 1, 7, 83
3, 46297, Control_c, 1, 7, 83
3, 46304, Control_c, 1, 7, 82
3, 46304, Control_c, 1, 7, 82
3, 46312, Control_c, 1, 7, 81
3, 46312, Control_c, 1, 7, 81
3, 46319, Control_c, 1, 7, 80
3, 46319, Control_c, 1, 7, 80
3, 46320, Note_on_c, 1, 71, 0
3, 46320, Note_on_c, 1, 74, 0
3, 46320, Note_on_c, 1, 69, 64
3, 46320, Note_on_c, 1, 73, 64
3, 46326, Control_c, 1, 7, 79
3, 46326, Control_c, 1, 7, 79
3, 46334, Control_c, 1, 7, 78
3, 46334, Control_c, 1, 7, 78
3, 46341, Control_c, 1, 7, 77
3, 46341, Control_c, 1, 7, 77
3, 46349, Control_c, 1, 7, 76
3, 46349, Control_c, 1, 7, 76
3, 46356, Control_c, 1, 7, 75
3, 46356, Control_c, 1, 7, 75
3, 46364, Control_c, 1, 7, 74
3, 46364, Control_c, 1, 7, 74
3, 46371, Control_c, 1, 7, 73
3, 46371, Control_c, 1, 7, 73
3, 46379, Control_c, 1, 7, 72
3, 46379, Control_c, 1, 7, 72
3, 46386, Control_c, 1, 7, 71
3, 46386, Control_c, 1, 7, 71
3, 46394, Control_c, 1, 7, 70
3, 46394, Control_c, 1, 7, 70
3, 46401, Control_c, 1, 7, 69
3, 46401, Control_c, 1, 7, 69
3, 46409, Control_c, 1, 7, 68
3, 46409, Control_c, 1, 7, 68
3, 46416, Note_on_c, 1, 73, 0
3, 46416, Note_on_c, 1, 69, 0
3, 46416, Control_c, 1, 7, 67
3, 46416, Control_c, 1, 7, 67
3, 46424, Control_c, 1, 7, 66
3, 46424, Control_c, 1, 7, 66
3, 46431, Control_c, 1, 7, 65
3, 46431, Control_c, 1, 7, 65
3, 46439, Control_c, 1, 7, 64
3, 46439, Control_c, 1, 7, 64
3, 47160, Control_c, 1, 7, 96
3, 47160, Control_c, 1, 7, 96
3, 47160, Note_on_c, 1, 71, 64
3, 47160, Note_on_c, 1, 74, 64
3, 47167, Control_c, 1, 7, 95
3, 47167, Control_c, 1, 7, 95
3, 47175, Control_c, 1, 7, 94
3, 47175, Control_c, 1, 7, 94
3, 47182, Control_c, 1, 7, 93
3, 47182, Control_c, 1, 7, 93
3, 47190, Control_c, 1, 7, 92
3, 47190, Control_c, 1, 7, 92
3, 47197, Control_c, 1, 7, 91
3, 47197, Control_c, 1, 7, 91
3, 47205, Control_c, 1, 7, 90
3, 47205, Control_c, 1, 7, 90
3, 47212, Control_c, 1, 7, 89
3, 47212, Control_c, 1, 7, 89
3, 47220, Control_c, 1, 7, 88
3, 47220, Control_c, 1, 7, 88
3, 47227, Control_c, 1, 7, 87
3, 47227, Control_c, 1, 7, 87
3, 47235, Control_c, 1, 7, 86
3, 47235, Control_c, 1, 7, 86
3, 47242, Control_c, 1, 7, 85
3, 47242, Control_c, 1, 7, 85
3, 47250, Control_c, 1, 7, 84
3, 47250, Control_c, 1, 7, 84
3, 47257, Control_c, 1, 7, 83
3, 47257, Control_c, 1, 7, 83
3, 47265, Control_c, 1, 7, 82
3, 47265, Control_c, 1, 7, 82
3, 47272, Control_c, 1, 7, 81
3, 47272, Control_c, 1, 7, 81
3, 47280, Note_on_c, 1, 74, 0
3, 47280, Note_on_c, 1, 71, 0
3, 47280, Control_c, 1, 7, 80
3, 47280, Control_c, 1, 7, 80
3, 47280, Note_on_c, 1, 73, 64
3, 47280, Note_on_c, 1, 69, 64
3, 47287, Control_c, 1, 7, 79
3, 47287, Control_c, 1, 7, 79
3, 47295, Control_c, 1, 7, 78
3, 47295, Control_c, 1, 7, 78
3, 47302, Control_c, 1, 7, 77
3, 47302, Control_c, 1, 7, 77
3, 47310, Control_c, 1, 7, 76
3, 47310, Control_c, 1, 7, 76
3, 47317, Control_c, 1, 7, 75
3, 47317, Control_c, 1, 7, 75
3, 47325, Control_c, 1, 7, 74
3, 47325, Control_c, 1, 7, 74
3, 47332, Control_c, 1, 7, 73
3, 47332, Control_c, 1, 7, 73
3, 47340, Control_c, 1, 7, 72
3, 47340, Control_c, 1, 7, 72
3, 47347, Control_c, 1, 7, 71
3, 47347, Control_c, 1, 7, 71
3, 47355, Control_c, 1, 7, 70
3, 47355, Control_c, 1, 7, 70
3, 47362, Control_c, 1, 7, 69
3, 47362, Control_c, 1, 7, 69
3, 47370, Control_c, 1, 7, 68
3, 47370, Control_c, 1, 7, 68
3, 47376, Note_on_c, 1, 69, 0
3, 47376, Note_on_c, 1, 73, 0
3, 47377, Control_c, 1, 7, 67
3, 47377, Control_c, 1, 7, 67
3, 47385, Control_c, 1, 7, 66
3, 47385, Control_c, 1, 7, 66
3, 47392, Control_c, 1, 7, 65
3, 47392, Control_c, 1, 7, 65
3, 47400, Control_c, 1, 7, 64
3, 47400, Control_c, 1, 7, 64
3, 51840, Control_c, 1, 7, 64
3, 51840, Control_c, 1, 7, 64
3, 51869, Control_c, 1, 7, 65
3, 51869, Control_c, 1, 7, 65
3, 51899, Control_c, 1, 7, 66
3, 51899, Control_c, 1, 7, 66
3, 51929, Control_c, 1, 7, 67
3, 51929, Control_c, 1, 7, 67
3, 51959, Control_c, 1, 7, 68
3, 51959, Control_c, 1, 7, 68
3, 51989, Control_c, 1, 7, 69
3, 51989, Control_c, 1, 7, 69
3, 52019, Control_c, 1, 7, 70
3, 52019, Control_c, 1, 7, 70
3, 52049, Control_c, 1, 7, 71
3, 52049, Control_c, 1, 7, 71
3, 52079, Control_c, 1, 7, 72
3, 52079, Control_c, 1, 7, 72
3, 52109, Control_c, 1, 7, 73
3, 52109, Control_c, 1, 7, 73
3, 52139, Control_c, 1, 7, 74
3, 52139, Control_c, 1, 7, 74
3, 52169, Control_c, 1, 7, 75
3, 52169, Control_c, 1, 7, 75
3, 52199, Control_c, 1, 7, 76
3, 52199, Control_c, 1, 7, 76
3, 52229, Control_c, 1, 7, 77
3, 52229, Control_c, 1, 7, 77
3, 52259, Control_c, 1, 7, 78
3, 52259, Control_c, 1, 7, 78
3, 52289, Control_c, 1, 7, 79
3, 52289, Control_c, 1, 7, 79
3, 52319, Control_c, 1, 7, 80
3, 52319, Control_c, 1, 7, 80
3, 52349, Control_c, 1, 7, 81
3, 52349, Control_c, 1, 7, 81
3, 52379, Control_c, 1, 7, 82
3, 52379, Control_c, 1, 7, 82
3, 52409, Control_c, 1, 7, 83
3, 52409, Control_c, 1, 7, 83
3, 52439, Control_c, 1, 7, 84
3, 52439, Control_c, 1, 7, 84
3, 52469, Control_c, 1, 7, 85
3, 52469, Control_c, 1, 7, 85
3, 52499, Control_c, 1, 7, 86
3, 52499, Control_c, 1, 7, 86
3, 52529, Control_c, 1, 7, 87
3, 52529, Control_c, 1, 7, 87
3, 52559, Control_c, 1, 7, 88
3, 52559, Control_c, 1, 7, 88
3, 52589, Control_c, 1, 7, 89
3, 52589, Control_c, 1, 7, 89
3, 52619, Control_c, 1, 7, 90
3, 52619, Control_c, 1, 7, 90
3, 52649, Control_c, 1, 7, 91
3, 52649, Control_c, 1, 7, 91
3, 52679, Control_c, 1, 7, 92
3, 52679, Control_c, 1, 7, 92
3, 52709, Control_c, 1, 7, 93
3, 52709, Control_c, 1, 7, 93
3, 52739, Control_c, 1, 7, 94
3, 52739, Control_c, 1, 7, 94
3, 52769, Control_c, 1, 7, 95
3, 52769, Control_c, 1, 7, 95
3, 52799, Control_c, 1, 7, 96
3, 52799, Control_c, 1, 7, 96
3, 52800, Control_c, 1, 7, 96
3, 52800, Control_c, 1, 7, 96
3, 52814, Control_c, 1, 7, 95
3, 52814, Control_c, 1, 7, 95
3, 52829, Control_c, 1, 7, 94
3, 52829, Control_c, 1, 7, 94
3, 52844, Control_c, 1, 7, 93
3, 52844, Control_c, 1, 7, 93
3, 52859, Control_c, 1, 7, 92
3, 52859, Control_c, 1, 7, 92
3, 52874, Control_c, 1, 7, 91
3, 52874, Control_c, 1, 7, 91
3, 52889, Control_c, 1, 7, 90
3, 52889, Control_c, 1, 7, 90
3, 52904, Control_c, 1, 7, 89
3, 52904, Control_c, 1, 7, 89
3, 52919, Control_c, 1, 7, 88
3, 52919, Control_c, 1, 7, 88
3, 52934, Control_c, 1, 7, 87
3, 52934, Control_c, 1, 7, 87
3, 52949, Control_c, 1, 7, 86
3, 52949, Control_c, 1, 7, 86
3, 52964, Control_c, 1, 7, 85
3, 52964, Control_c, 1, 7, 85
3, 52979, Control_c, 1, 7, 84
3, 52979, Control_c, 1, 7, 84
3, 52994, Control_c, 1, 7, 83
3, 52994, Control_c, 1, 7, 83
3, 53009, Control_c, 1, 7, 82
3, 53009, Control_c, 1, 7, 82
3, 53024, Control_c, 1, 7, 81
3, 53024, Control_c, 1, 7, 81
3, 53039, Control_c, 1, 7, 80
3, 53039, Control_c, 1, 7, 80
3, 53054, Control_c, 1, 7, 79
3, 53054, Control_c, 1, 7, 79
3, 53069, Control_c, 1, 7, 78
3, 53069, Control_c, 1, 7, 78
3, 53084, Control_c, 1, 7, 77
3, 53084, Control_c, 1, 7, 77
3, 53099, Control_c, 1, 7, 76
3, 53099, Control_c, 1, 7, 76
3, 53114, Control_c, 1, 7, 75
3, 53114, Control_c, 1, 7, 75
3, 53129, Control_c, 1, 7, 74
3, 53129, Control_c, 1, 7, 74
3, 53144, Control_c, 1, 7, 73
3, 53144, Control_c, 1, 7, 73
3, 53159, Control_c, 1, 7, 72
3, 53159, Control_c, 1, 7, 72
3, 53174, Control_c, 1, 7, 71
3, 53174, Control_c, 1, 7, 71
3, 53189, Control_c, 1, 7, 70
3, 53189, Control_c, 1, 7, 70
3, 53204, Control_c, 1, 7, 69
3, 53204, Control_c, 1, 7, 69
3, 53219, Control_c, 1, 7, 68
3, 53219, Control_c, 1, 7, 68
3, 53234, Control_c, 1, 7, 67
3, 53234, Control_c, 1, 7, 67
3, 53249, Control_c, 1, 7, 66
3, 53249, Control_c, 1, 7, 66
3, 53264, Control_c, 1, 7, 65
3, 53264, Control_c, 1, 7, 65
3, 53279, Control_c, 1, 7, 64
3, 53279, Control_c, 1, 7, 64
3, 53760, Control_c, 1, 7, 64
3, 53760, Control_c, 1, 7, 64
3, 53789, Control_c, 1, 7, 65
3, 53789, Control_c, 1, 7, 65
3, 53819, Control_c, 1, 7, 66
3, 53819, Control_c, 1, 7, 66
3, 53849, Control_c, 1, 7, 67
3, 53849, Control_c, 1, 7, 67
3, 53879, Control_c, 1, 7, 68
3, 53879, Control_c, 1, 7, 68
3, 53909, Control_c, 1, 7, 69
3, 53909, Control_c, 1, 7, 69
3, 53939, Control_c, 1, 7, 70
3, 53939, Control_c, 1, 7, 70
3, 53969, Control_c, 1, 7, 71
3, 53969, Control_c, 1, 7, 71
3, 53999, Control_c, 1, 7, 72
3, 53999, Control_c, 1, 7, 72
3, 54029, Control_c, 1, 7, 73
3, 54029, Control_c, 1, 7, 73
3, 54059, Control_c, 1, 7, 74
3, 54059, Control_c, 1, 7, 74
3, 54089, Control_c, 1, 7, 75
3, 54089, Control_c, 1, 7, 75
3, 54119, Control_c, 1, 7, 76
3, 54119, Control_c, 1, 7, 76
3, 54149, Control_c, 1, 7, 77
3, 54149, Control_c, 1, 7, 77
3, 54179, Control_c, 1, 7, 78
3, 54179, Control_c, 1, 7, 78
3, 54209, Control_c, 1, 7, 79
3, 54209, Control_c, 1, 7, 79
3, 54239, Control_c, 1, 7, 80
3, 54239, Control_c, 1, 7, 80
3, 54269, Control_c, 1, 7, 81
3, 54269, Control_c, 1, 7, 81
3, 54299, Control_c, 1, 7, 82
3, 54299, Control_c, 1, 7, 82
3, 54329, Control_c, 1, 7, 83
3, 54329, Control_c, 1, 7, 83
3, 54359, Control_c, 1, 7, 84
3, 54359, Control_c, 1, 7, 84
3, 54389, Control_c, 1, 7, 85
3, 54389, Control_c, 1, 7, 85
3, 54419, Control_c, 1, 7, 86
3, 54419, Control_c, 1, 7, 86
3, 54449, Control_c, 1, 7, 87
3, 54449, Control_c, 1, 7, 87
3, 54479, Control_c, 1, 7, 88
3, 54479, Control_c, 1, 7, 88
3, 54509, Control_c, 1, 7, 89
3, 54509, Control_c, 1, 7, 89
3, 54539, Control_c, 1, 7, 90
3, 54539, Control_c, 1, 7, 90
3, 54569, Control_c, 1, 7, 91
3, 54569, Control_c, 1, 7, 91
3, 54599, Control_c, 1, 7, 92
3, 54599, Control_c, 1, 7, 92
3, 54629, Control_c, 1, 7, 93
3, 54629, Control_c, 1, 7, 93
3, 54659, Control_c, 1, 7, 94
3, 54659, Control_c, 1, 7, 94
3, 54689, Control_c, 1, 7, 95
3, 54689, Control_c, 1, 7, 95
3, 54719, Control_c, 1, 7, 96
3, 54719, Control_c, 1, 7, 96
3, 54720, Control_c, 1, 7, 96
3, 54720, Control_c, 1, 7, 96
3, 54734, Control_c, 1, 7, 95
3, 54734, Control_c, 1, 7, 95
3, 54749, Control_c, 1, 7, 94
3, 54749, Control_c, 1, 7, 94
3, 54764, Control_c, 1, 7, 93
3, 54764, Control_c, 1, 7, 93
3, 54779, Control_c, 1, 7, 92
3, 54779, Control_c, 1, 7, 92
3, 54794, Control_c, 1, 7, 91
3, 54794, Control_c, 1, 7, 91
3, 54809, Control_c, 1, 7, 90
3, 54809, Control_c, 1, 7, 90
3, 54824, Control_c, 1, 7, 89
3, 54824, Control_c, 1, 7, 89
3, 54839, Control_c, 1, 7, 88
3, 54839, Control_c, 1, 7, 88
3, 54854, Control_c, 1, 7, 87
3, 54854, Control_c, 1, 7, 87
3, 54869, Control_c, 1, 7, 86
3, 54869, Control_c, 1, 7, 86
3, 54884, Control_c, 1, 7, 85
3, 54884, Control_c, 1, 7, 85
3, 54899, Control_c, 1, 7, 84
3, 54899, Control_c, 1, 7, 84
3, 54914, Control_c, 1, 7, 83
3, 54914, Control_c, 1, 7, 83
3, 54929, Control_c, 1, 7, 82
3, 54929, Control_c, 1, 7, 82
3, 54944, Control_c, 1, 7, 81
3, 54944, Control_c, 1, 7, 81
3, 54959, Control_c, 1, 7, 80
3, 54959, Control_c, 1, 7, 80
3, 54974, Control_c, 1, 7, 79
3, 54974, Control_c, 1, 7, 79
3, 54989, Control_c, 1, 7, 78
3, 54989, Control_c, 1, 7, 78
3, 55004, Control_c, 1, 7, 77
3, 55004, Control_c, 1, 7, 77
3, 55019, Control_c, 1, 7, 76
3, 55019, Control_c, 1, 7, 76
3, 55034, Control_c, 1, 7, 75
3, 55034, Control_c, 1, 7, 75
3, 55049, Control_c, 1, 7, 74
3, 55049, Control_c, 1, 7, 74
3, 55064, Control_c, 1, 7, 73
3, 55064, Control_c, 1, 7, 73
3, 55079, Control_c, 1, 7, 72
3, 55079, Control_c, 1, 7, 72
3, 55094, Control_c, 1, 7, 71
3, 55094, Control_c, 1, 7, 71
3, 55109, Control_c, 1, 7, 70
3, 55109, Control_c, 1, 7, 70
3, 55124, Control_c, 1, 7, 69
3, 55124, Control_c, 1, 7, 69
3, 55139, Control_c, 1, 7, 68
3, 55139, Control_c, 1, 7, 68
3, 55154, Control_c, 1, 7, 67
3, 55154, Control_c, 1, 7, 67
3, 55169, Control_c, 1, 7, 66
3, 55169, Control_c, 1, 7, 66
3, 55184, Control_c, 1, 7, 65
3, 55184, Control_c, 1, 7, 65
3, 55199, Control_c, 1, 7, 64
3, 55199, Control_c, 1, 7, 64
3, 55680, Control_c, 1, 7, 64
3, 55680, Control_c, 1, 7, 64
3, 55709, Control_c, 1, 7, 65
3, 55709, Control_c, 1, 7, 65
3, 55739, Control_c, 1, 7, 66
3, 55739, Control_c, 1, 7, 66
3, 55769, Control_c, 1, 7, 67
3, 55769, Control_c, 1, 7, 67
3, 55799, Control_c, 1, 7, 68
3, 55799, Control_c, 1, 7, 68
3, 55829, Control_c, 1, 7, 69
3, 55829, Control_c, 1, 7, 69
3, 55859, Control_c, 1, 7, 70
3, 55859, Control_c, 1, 7, 70
3, 55889, Control_c, 1, 7, 71
3, 55889, Control_c, 1, 7, 71
3, 55919, Control_c, 1, 7, 72
3, 55919, Control_c, 1, 7, 72
3, 55920, Note_on_c, 1, 74, 86
3, 55920, Note_on_c, 1, 71, 86
3, 55949, Control_c, 1, 7, 73
3, 55949, Control_c, 1, 7, 73
3, 55979, Control_c, 1, 7, 74
3, 55979, Control_c, 1, 7, 74
3, 56009, Control_c, 1, 7, 75
3, 56009, Control_c, 1, 7, 75
3, 56039, Control_c, 1, 7, 76
3, 56039, Control_c, 1, 7, 76
3, 56069, Control_c, 1, 7, 77
3, 56069, Control_c, 1, 7, 77
3, 56099, Control_c, 1, 7, 78
3, 56099, Control_c, 1, 7, 78
3, 56129, Control_c, 1, 7, 79
3, 56129, Control_c, 1, 7, 79
3, 56159, Control_c, 1, 7, 80
3, 56159, Control_c, 1, 7, 80
3, 56160, Note_on_c, 1, 71, 0
3, 56160, Note_on_c, 1, 74, 0
3, 56160, Note_on_c, 1, 73, 88
3, 56160, Note_on_c, 1, 69, 88
3, 56189, Control_c, 1, 7, 81
3, 56189, Control_c, 1, 7, 81
3, 56219, Control_c, 1, 7, 82
3, 56219, Control_c, 1, 7, 82
3, 56249, Control_c, 1, 7, 83
3, 56249, Control_c, 1, 7, 83
3, 56279, Control_c, 1, 7, 84
3, 56279, Control_c, 1, 7, 84
3, 56309, Control_c, 1, 7, 85
3, 56309, Control_c, 1, 7, 85
3, 56339, Control_c, 1, 7, 86
3, 56339, Control_c, 1, 7, 86
3, 56369, Control_c, 1, 7, 87
3, 56369, Control_c, 1, 7, 87
3, 56399, Control_c, 1, 7, 88
3, 56399, Control_c, 1, 7, 88
3, 56400, Note_on_c, 1, 69, 0
3, 56400, Note_on_c, 1, 73, 0
3, 56400, Note_on_c, 1, 71, 88
3, 56400, Note_on_c, 1, 68, 88
3, 56429, Control_c, 1, 7, 89
3, 56429, Control_c, 1, 7, 89
3, 56459, Control_c, 1, 7, 90
3, 56459, Control_c, 1, 7, 90
3, 56489, Control_c, 1, 7, 91
3, 56489, Control_c, 1, 7, 91
3, 56519, Control_c, 1, 7, 92
3, 56519, Control_c, 1, 7, 92
3, 56549, Control_c, 1, 7, 93
3, 56549, Control_c, 1, 7, 93
3, 56579, Control_c, 1, 7, 94
3, 56579, Control_c, 1, 7, 94
3, 56609, Control_c, 1, 7, 95
3, 56609, Control_c, 1, 7, 95
3, 56639, Control_c, 1, 7, 96
3, 56639, Control_c, 1, 7, 96
3, 56640, Note_on_c, 1, 68, 0
3, 56640, Note_on_c, 1, 71, 0
3, 56640, Note_on_c, 1, 73, 88
3, 56640, Note_on_c, 1, 69, 88
3, 56640, Control_c, 1, 7, 96
3, 56640, Control_c, 1, 7, 96
3, 56654, Control_c, 1, 7, 95
3, 56654, Control_c, 1, 7, 95
3, 56669, Control_c, 1, 7, 94
3, 56669, Control_c, 1, 7, 94
3, 56684, Control_c, 1, 7, 93
3, 56684, Control_c, 1, 7, 93
3, 56699, Control_c, 1, 7, 92
3, 56699, Control_c, 1, 7, 92
3, 56714, Control_c, 1, 7, 91
3, 56714, Control_c, 1, 7, 91
3, 56729, Control_c, 1, 7, 90
3, 56729, Control_c, 1, 7, 90
3, 56736, Note_on_c, 1, 69, 0
3, 56736, Note_on_c, 1, 73, 0
3, 56744, Control_c, 1, 7, 89
3, 56744, Control_c, 1, 7, 89
3, 56759, Control_c, 1, 7, 88
3, 56759, Control_c, 1, 7, 88
3, 56774, Control_c, 1, 7, 87
3, 56774, Control_c, 1, 7, 87
3, 56789, Control_c, 1, 7, 86
3, 56789, Control_c, 1, 7, 86
3, 56804, Control_c, 1, 7, 85
3, 56804, Control_c, 1, 7, 85
3, 56819, Control_c, 1, 7, 84
3, 56819, Control_c, 1, 7, 84
3, 56834, Control_c, 1, 7, 83
3, 56834, Control_c, 1, 7, 83
3, 56849, Control_c, 1, 7, 82
3, 56849, Control_c, 1, 7, 82
3, 56864, Control_c, 1, 7, 81
3, 56864, Control_c, 1, 7, 81
3, 56879, Control_c, 1, 7, 80
3, 56879, Control_c, 1, 7, 80
3, 56894, Control_c, 1, 7, 79
3, 56894, Control_c, 1, 7, 79
3, 56909, Control_c, 1, 7, 78
3, 56909, Control_c, 1, 7, 78
3, 56924, Control_c, 1, 7, 77
3, 56924, Control_c, 1, 7, 77
3, 56939, Control_c, 1, 7, 76
3, 56939, Control_c, 1, 7, 76
3, 56954, Control_c, 1, 7, 75
3, 56954, Control_c, 1, 7, 75
3, 56969, Control_c, 1, 7, 74
3, 56969, Control_c, 1, 7, 74
3, 56984, Control_c, 1, 7, 73
3, 56984, Control_c, 1, 7, 73
3, 56999, Control_c, 1, 7, 72
3, 56999, Control_c, 1, 7, 72
3, 57014, Control_c, 1, 7, 71
3, 57014, Control_c, 1, 7, 71
3, 57029, Control_c, 1, 7, 70
3, 57029, Control_c, 1, 7, 70
3, 57044, Control_c, 1, 7, 69
3, 57044, Control_c, 1, 7, 69
3, 57059, Control_c, 1, 7, 68
3, 57059, Control_c, 1, 7, 68
3, 57074, Control_c, 1, 7, 67
3, 57074, Control_c, 1, 7, 67
3, 57089, Control_c, 1, 7, 66
3, 57089, Control_c, 1, 7, 66
3, 57104, Control_c, 1, 7, 65
3, 57104, Control_c, 1, 7, 65
3, 57119, Control_c, 1, 7, 64
3, 57119, Control_c, 1, 7, 64
3, 57600, Control_c, 1, 7, 64
3, 57600, Control_c, 1, 7, 64
3, 57629, Control_c, 1, 7, 65
3, 57629, Control_c, 1, 7, 65
3, 57659, Control_c, 1, 7, 66
3, 57659, Control_c, 1, 7, 66
3, 57689, Control_c, 1, 7, 67
3, 57689, Control_c, 1, 7, 67
3, 57719, Control_c, 1, 7, 68
3, 57719, Control_c, 1, 7, 68
3, 57749, Control_c, 1, 7, 69
3, 57749, Control_c, 1, 7, 69
3, 57779, Control_c, 1, 7, 70
3, 57779, Control_c, 1, 7, 70
3, 57809, Control_c, 1, 7, 71
3, 57809, Control_c, 1, 7, 71
3, 57839, Control_c, 1, 7, 72
3, 57839, Control_c, 1, 7, 72
3, 57869, Control_c, 1, 7, 73
3, 57869, Control_c, 1, 7, 73
3, 57899, Control_c, 1, 7, 74
3, 57899, Control_c, 1, 7, 74
3, 57929, Control_c, 1, 7, 75
3, 57929, Control_c, 1, 7, 75
3, 57959, Control_c, 1, 7, 76
3, 57959, Control_c, 1, 7, 76
3, 57989, Control_c, 1, 7, 77
3, 57989, Control_c, 1, 7, 77
3, 58019, Control_c, 1, 7, 78
3, 58019, Control_c, 1, 7, 78
3, 58049, Control_c, 1, 7, 79
3, 58049, Control_c, 1, 7, 79
3, 58079, Control_c, 1, 7, 80
3, 58079, Control_c, 1, 7, 80
3, 58109, Control_c, 1, 7, 81
3, 58109, Control_c, 1, 7, 81
3, 58139, Control_c, 1, 7, 82
3, 58139, Control_c, 1, 7, 82
3, 58169, Control_c, 1, 7, 83
3, 58169, Control_c, 1, 7, 83
3, 58199, Control_c, 1, 7, 84
3, 58199, Control_c, 1, 7, 84
3, 58229, Control_c, 1, 7, 85
3, 58229, Control_c, 1, 7, 85
3, 58259, Control_c, 1, 7, 86
3, 58259, Control_c, 1, 7, 86
3, 58289, Control_c, 1, 7, 87
3, 58289, Control_c, 1, 7, 87
3, 58319, Control_c, 1, 7, 88
3, 58319, Control_c, 1, 7, 88
3, 58349, Control_c, 1, 7, 89
3, 58349, Control_c, 1, 7, 89
3, 58379, Control_c, 1, 7, 90
3, 58379, Control_c, 1, 7, 90
3, 58409, Control_c, 1, 7, 91
3, 58409, Control_c, 1, 7, 91
3, 58439, Control_c, 1, 7, 92
3, 58439, Control_c, 1, 7, 92
3, 58469, Control_c, 1, 7, 93
3, 58469, Control_c, 1, 7, 93
3, 58499, Control_c, 1, 7, 94
3, 58499, Control_c, 1, 7, 94
3, 58529, Control_c, 1, 7, 95
3, 58529, Control_c, 1, 7, 95
3, 58559, Control_c, 1, 7, 96
3, 58559, Control_c, 1, 7, 96
3, 58560, Note_on_c, 1, 73, 97
3, 58560, Note_on_c, 1, 76, 97
3, 58560, Control_c, 1, 7, 120
3, 58570, Control_c, 1, 7, 118
3, 58590, Control_c, 1, 7, 110
3, 58600, Control_c, 1, 7, 101
3, 58610, Control_c, 1, 7, 100
3, 58620, Control_c, 1, 7, 94
3, 58630, Control_c, 1, 7, 86
3, 58640, Control_c, 1, 7, 80
3, 58660, Control_c, 1, 7, 73
3, 58670, Control_c, 1, 7, 70
3, 58680, Control_c, 1, 7, 69
3, 58790, Control_c, 1, 7, 70
3, 58820, Control_c, 1, 7, 72
3, 58890, Control_c, 1, 7, 78
3, 58950, Control_c, 1, 7, 79
3, 58960, Control_c, 1, 7, 80
3, 58970, Control_c, 1, 7, 81
3, 58990, Control_c, 1, 7, 82
3, 59010, Control_c, 1, 7, 88
3, 59070, Control_c, 1, 7, 89
3, 59080, Control_c, 1, 7, 90
3, 59090, Control_c, 1, 7, 91
3, 59110, Control_c, 1, 7, 92
3, 59120, Control_c, 1, 7, 93
3, 59130, Control_c, 1, 7, 95
3, 59190, Control_c, 1, 7, 97
3, 59200, Control_c, 1, 7, 98
3, 59260, Control_c, 1, 7, 99
3, 59280, Control_c, 1, 7, 101
3, 59300, Control_c, 1, 7, 103
3, 59310, Control_c, 1, 7, 104
3, 59330, Control_c, 1, 7, 106
3, 59340, Control_c, 1, 7, 107
3, 59360, Control_c, 1, 7, 109
3, 59370, Control_c, 1, 7, 111
3, 59380, Control_c, 1, 7, 112
3, 59400, Control_c, 1, 7, 113
3, 59410, Control_c, 1, 7, 114
3, 59420, Control_c, 1, 7, 115
3, 59430, Control_c, 1, 7, 117
3, 59440, Control_c, 1, 7, 118
3, 59450, Control_c, 1, 7, 120
3, 59470, Control_c, 1, 7, 121
3, 59480, Control_c, 1, 7, 123
3, 59500, Control_c, 1, 7, 124
3, 59520, Note_on_c, 1, 76, 0
3, 59520, Note_on_c, 1, 73, 0
3, 59520, Note_on_c, 1, 74, 95
3, 59520, Note_on_c, 1, 76, 95
3, 59520, Control_c, 1, 7, 125
3, 59530, Control_c, 1, 7, 123
3, 59540, Control_c, 1, 7, 121
3, 59550, Control_c, 1, 7, 115
3, 59560, Control_c, 1, 7, 108
3, 59570, Control_c, 1, 7, 97
3, 59580, Control_c, 1, 7, 91
3, 59590, Control_c, 1, 7, 91
3, 59600, Control_c, 1, 7, 88
3, 59610, Control_c, 1, 7, 78
3, 59630, Control_c, 1, 7, 76
3, 59640, Control_c, 1, 7, 73
3, 59670, Control_c, 1, 7, 72
3, 59680, Control_c, 1, 7, 71
3, 59860, Control_c, 1, 7, 72
3, 59880, Control_c, 1, 7, 73
3, 59920, Control_c, 1, 7, 74
3, 59950, Control_c, 1, 7, 75
3, 59970, Control_c, 1, 7, 76
3, 59990, Control_c, 1, 7, 77
3, 60030, Control_c, 1, 7, 79
3, 60050, Control_c, 1, 7, 80
3, 60060, Control_c, 1, 7, 81
3, 60080, Control_c, 1, 7, 83
3, 60100, Control_c, 1, 7, 84
3, 60110, Control_c, 1, 7, 86
3, 60130, Control_c, 1, 7, 87
3, 60140, Control_c, 1, 7, 89
3, 60150, Control_c, 1, 7, 91
3, 60180, Control_c, 1, 7, 93
3, 60190, Control_c, 1, 7, 95
3, 60210, Control_c, 1, 7, 96
3, 60220, Control_c, 1, 7, 98
3, 60240, Control_c, 1, 7, 100
3, 60260, Control_c, 1, 7, 102
3, 60270, Control_c, 1, 7, 103
3, 60280, Control_c, 1, 7, 105
3, 60290, Control_c, 1, 7, 106
3, 60300, Control_c, 1, 7, 107
3, 60360, Control_c, 1, 7, 113
3, 60370, Control_c, 1, 7, 116
3, 60430, Control_c, 1, 7, 122
3, 60460, Control_c, 1, 7, 125
3, 60480, Note_on_c, 1, 76, 0
3, 60480, Note_on_c, 1, 74, 0
3, 60480, Note_on_c, 1, 73, 92
3, 60480, Note_on_c, 1, 76, 92
3, 60500, Control_c, 1, 7, 125
3, 60510, Control_c, 1, 7, 124
3, 60520, Control_c, 1, 7, 121
3, 60530, Control_c, 1, 7, 108
3, 60540, Control_c, 1, 7, 102
3, 60550, Control_c, 1, 7, 96
3, 60560, Control_c, 1, 7, 90
3, 60570, Control_c, 1, 7, 88
3, 60580, Control_c, 1, 7, 86
3, 60590, Control_c, 1, 7, 85
3, 60600, Control_c, 1, 7, 83
3, 60640, Control_c, 1, 7, 82
3, 60770, Control_c, 1, 7, 83
3, 60790, Control_c, 1, 7, 85
3, 60800, Control_c, 1, 7, 86
3, 60840, Control_c, 1, 7, 87
3, 60920, Control_c, 1, 7, 88
3, 60980, Control_c, 1, 7, 90
3, 60990, Control_c, 1, 7, 91
3, 61060, Control_c, 1, 7, 93
3, 61120, Control_c, 1, 7, 100
3, 61150, Control_c, 1, 7, 102
3, 61170, Control_c, 1, 7, 104
3, 61190, Control_c, 1, 7, 106
3, 61200, Control_c, 1, 7, 108
3, 61220, Control_c, 1, 7, 110
3, 61230, Control_c, 1, 7, 111
3, 61250, Control_c, 1, 7, 113
3, 61270, Control_c, 1, 7, 115
3, 61280, Control_c, 1, 7, 116
3, 61290, Control_c, 1, 7, 118
3, 61320, Control_c, 1, 7, 124
3, 61340, Control_c, 1, 7, 125
3, 61350, Control_c, 1, 7, 121
3, 61360, Control_c, 1, 7, 126
3, 61440, Note_on_c, 1, 76, 0
3, 61440, Note_on_c, 1, 73, 0
3, 61440, Note_on_c, 1, 78, 98
3, 61440, Note_on_c, 1, 74, 98
3, 61443, Control_c, 1, 7, 126
3, 61447, Control_c, 1, 7, 125
3, 61451, Control_c, 1, 7, 124
3, 61455, Control_c, 1, 7, 123
3, 61459, Control_c, 1, 7, 122
3, 61462, Control_c, 1, 7, 121
3, 61466, Control_c, 1, 7, 120
3, 61470, Control_c, 1, 7, 119
3, 61474, Control_c, 1, 7, 118
3, 61478, Control_c, 1, 7, 117
3, 61481, Control_c, 1, 7, 116
3, 61485, Control_c, 1, 7, 115
3, 61489, Control_c, 1, 7, 114
3, 61493, Control_c, 1, 7, 113
3, 61497, Control_c, 1, 7, 112
3, 61500, Control_c, 1, 7, 111
3, 61504, Control_c, 1, 7, 110
3, 61508, Control_c, 1, 7, 109
3, 61512, Control_c, 1, 7, 108
3, 61516, Control_c, 1, 7, 107
3, 61520, Control_c, 1, 7, 106
3, 61523, Control_c, 1, 7, 105
3, 61527, Control_c, 1, 7, 104
3, 61531, Control_c, 1, 7, 103
3, 61535, Control_c, 1, 7, 102
3, 61539, Control_c, 1, 7, 101
3, 61542, Control_c, 1, 7, 100
3, 61546, Control_c, 1, 7, 99
3, 61550, Control_c, 1, 7, 98
3, 61554, Control_c, 1, 7, 97
3, 61558, Control_c, 1, 7, 96
3, 61560, Control_c, 1, 7, 95
3, 61590, Control_c, 1, 7, 94
3, 61610, Control_c, 1, 7, 93
3, 61750, Control_c, 1, 7, 94
3, 61770, Control_c, 1, 7, 95
3, 61780, Control_c, 1, 7, 96
3, 61800, Control_c, 1, 7, 97
3, 61820, Control_c, 1, 7, 99
3, 61840, Control_c, 1, 7, 101
3, 61850, Control_c, 1, 7, 102
3, 61860, Control_c, 1, 7, 104
3, 61870, Control_c, 1, 7, 105
3, 61890, Control_c, 1, 7, 107
3, 61900, Control_c, 1, 7, 108
3, 61920, Control_c, 1, 7, 110
3, 61940, Control_c, 1, 7, 107
3, 61970, Control_c, 1, 7, 105
3, 61980, Control_c, 1, 7, 104
3, 62010, Control_c, 1, 7, 103
3, 62030, Control_c, 1, 7, 101
3, 62290, Control_c, 1, 7, 102
3, 62310, Control_c, 1, 7, 103
3, 62330, Control_c, 1, 7, 104
3, 62350, Control_c, 1, 7, 106
3, 62370, Control_c, 1, 7, 109
3, 62390, Control_c, 1, 7, 111
3, 62400, Note_on_c, 1, 74, 0
3, 62400, Note_on_c, 1, 78, 0
3, 62400, Note_on_c, 1, 76, 98
3, 62400, Note_on_c, 1, 79, 98
3, 62410, Control_c, 1, 7, 114
3, 62430, Control_c, 1, 7, 113
3, 62460, Control_c, 1, 7, 112
3, 62480, Control_c, 1, 7, 111
3, 62490, Control_c, 1, 7, 110
3, 62610, Control_c, 1, 7, 110
3, 62680, Control_c, 1, 7, 111
3, 62740, Control_c, 1, 7, 112
3, 62750, Control_c, 1, 7, 113
3, 62790, Control_c, 1, 7, 115
3, 62810, Control_c, 1, 7, 116
3, 62830, Control_c, 1, 7, 119
3, 62850, Control_c, 1, 7, 120
3, 62860, Control_c, 1, 7, 121
3, 62870, Control_c, 1, 7, 122
3, 62880, Note_on_c, 1, 79, 0
3, 62880, Note_on_c, 1, 76, 0
3, 62880, Note_on_c, 1, 74, 103
3, 62880, Note_on_c, 1, 78, 103
3, 62890, Control_c, 1, 7, 121
3, 62950, Control_c, 1, 7, 120
3, 62970, Control_c, 1, 7, 119
3, 63030, Control_c, 1, 7, 113
3, 63110, Control_c, 1, 7, 112
3, 63120, Control_c, 1, 7, 110
3, 63210, Control_c, 1, 7, 104
3, 63310, Control_c, 1, 7, 96
3, 63360, Note_on_c, 1, 78, 0
3, 63360, Note_on_c, 1, 74, 0
3, 63360, Note_on_c, 1, 85, 103
3, 63360, Note_on_c, 1, 79, 103
3, 63390, Control_c, 1, 7, 94
3, 63410, Control_c, 1, 7, 93
3, 63430, Control_c, 1, 7, 92
3, 63440, Control_c, 1, 7, 91
3, 63550, Control_c, 1, 7, 83
3, 63670, Control_c, 1, 7, 77
3, 63750, Control_c, 1, 7, 71
3, 63800, Control_c, 1, 7, 69
3, 63880, Control_c, 1, 7, 67
3, 63900, Control_c, 1, 7, 66
3, 63930, Control_c, 1, 7, 65
3, 64010, Control_c, 1, 7, 63
3, 64190, Control_c, 1, 7, 62
3, 64432, Note_on_c, 1, 79, 0
3, 64432, Note_on_c, 1, 85, 0
3, 65468, Control_c, 1, 7, 61
3, 65564, Control_c, 1, 7, 60
3, 65660, Control_c, 1, 7, 59
3, 65756, Control_c, 1, 7, 58
3, 65853, Control_c, 1, 7, 57
3, 65949, Control_c, 1, 7, 56
3, 66045, Control_c, 1, 7, 55
3, 66141, Control_c, 1, 7, 54
3, 66237, Control_c, 1, 7, 53
3, 66334, Control_c, 1, 7, 52
3, 66430, Control_c, 1, 7, 51
3, 66526, Control_c, 1, 7, 50
3, 66622, Control_c, 1, 7, 49
3, 66719, Control_c, 1, 7, 48
3, 69600, Note_on_c, 1, 78, 73
3, 69600, Note_on_c, 1, 69, 73
3, 69960, Note_on_c, 1, 69, 0
3, 69960, Note_on_c, 1, 78, 0
3, 69960, Note_on_c, 1, 76, 59
3, 69960, Note_on_c, 1, 73, 59
3, 70070, Control_c, 1, 7, 63
3, 70080, Note_on_c, 1, 73, 0
3, 70080, Note_on_c, 1, 76, 0
3, 70080, Note_on_c, 1, 74, 55
3, 70080, Note_on_c, 1, 74, 55
3, 70080, Control_c, 1, 7, 64
3, 70150, Control_c, 1, 7, 62
3, 70180, Control_c, 1, 7, 61
3, 70230, Control_c, 1, 7, 60
3, 70260, Control_c, 1, 7, 59
3, 70270, Control_c, 1, 7, 58
3, 70310, Control_c, 1, 7, 58
3, 70320, Note_on_c, 1, 74, 0
3, 70320, Note_on_c, 1, 74, 0
3, 70400, Control_c, 1, 7, 60
3, 70430, Control_c, 1, 7, 61
3, 70450, Control_c, 1, 7, 63
3, 70470, Control_c, 1, 7, 64
3, 70490, Control_c, 1, 7, 65
3, 70550, Control_c, 1, 7, 66
3, 70560, Note_on_c, 1, 81, 79
3, 70560, Note_on_c, 1, 78, 79
3, 70580, Control_c, 1, 7, 68
3, 70600, Control_c, 1, 7, 69
3, 70610, Control_c, 1, 7, 71
3, 70630, Control_c, 1, 7, 72
3, 70640, Control_c, 1, 7, 73
3, 70670, Control_c, 1, 7, 75
3, 70680, Control_c, 1, 7, 76
3, 70690, Control_c, 1, 7, 77
3, 70720, Control_c, 1, 7, 78
3, 70740, Control_c, 1, 7, 80
3, 70760, Control_c, 1, 7, 81
3, 70780, Control_c, 1, 7, 82
3, 70920, Note_on_c, 1, 78, 0
3, 70920, Note_on_c, 1, 81, 0
3, 70920, Note_on_c, 1, 76, 61
3, 70920, Note_on_c, 1, 79, 61
3, 70960, Control_c, 1, 7, 80
3, 71040, Note_on_c, 1, 79, 0
3, 71040, Note_on_c, 1, 76, 0
3, 71040, Note_on_c, 1, 74, 56
3, 71040, Note_on_c, 1, 78, 56
3, 71120, Control_c, 1, 7, 79
3, 71130, Control_c, 1, 7, 78
3, 71170, Control_c, 1, 7, 77
3, 71200, Control_c, 1, 7, 76
3, 71230, Control_c, 1, 7, 75
3, 71240, Control_c, 1, 7, 74
3, 71280, Note_on_c, 1, 78, 0
3, 71280, Note_on_c, 1, 74, 0
3, 71280, Control_c, 1, 7, 73
3, 71310, Control_c, 1, 7, 72
3, 71330, Control_c, 1, 7, 71
3, 71360, Control_c, 1, 7, 70
3, 71390, Control_c, 1, 7, 69
3, 71410, Control_c, 1, 7, 68
3, 71440, Control_c, 1, 7, 70
3, 71470, Control_c, 1, 7, 73
3, 71500, Control_c, 1, 7, 74
3, 71510, Control_c, 1, 7, 75
3, 71520, Note_on_c, 1, 86, 99
3, 71520, Note_on_c, 1, 78, 99
3, 71530, Control_c, 1, 7, 77
3, 71560, Control_c, 1, 7, 78
3, 71570, Control_c, 1, 7, 79
3, 71580, Control_c, 1, 7, 81
3, 71600, Control_c, 1, 7, 82
3, 71610, Control_c, 1, 7, 83
3, 71620, Control_c, 1, 7, 84
3, 71640, Control_c, 1, 7, 85
3, 71650, Control_c, 1, 7, 87
3, 71660, Control_c, 1, 7, 89
3, 71680, Control_c, 1, 7, 90
3, 71690, Control_c, 1, 7, 92
3, 71710, Control_c, 1, 7, 93
3, 71720, Control_c, 1, 7, 94
3, 71730, Control_c, 1, 7, 95
3, 71750, Control_c, 1, 7, 98
3, 71760, Control_c, 1, 7, 100
3, 71770, Control_c, 1, 7, 101
3, 72000, Note_on_c, 1, 78, 0
3, 72000, Note_on_c, 1, 86, 0
3, 72000, Note_on_c, 1, 76, 101
3, 72000, Note_on_c, 1, 85, 101
3, 72000, Control_c, 1, 7, 126
3, 72020, Control_c, 1, 7, 125
3, 72040, Control_c, 1, 7, 124
3, 72060, Control_c, 1, 7, 123
3, 72080, Control_c, 1, 7, 122
3, 72100, Control_c, 1, 7, 121
3, 72160, Control_c, 1, 7, 120
3, 72180, Control_c, 1, 7, 119
3, 72190, Control_c, 1, 7, 118
3, 72210, Control_c, 1, 7, 117
3, 72230, Control_c, 1, 7, 116
3, 72240, Control_c, 1, 7, 115
3, 72260, Control_c, 1, 7, 114
3, 72280, Control_c, 1, 7, 113
3, 72300, Control_c, 1, 7, 112
3, 72320, Control_c, 1, 7, 110
3, 72340, Control_c, 1, 7, 109
3, 72360, Note_on_c, 1, 85, 0
3, 72360, Note_on_c, 1, 76, 0
3, 72360, Note_on_c, 1, 79, 104
3, 72360, Note_on_c, 1, 83, 104
3, 72360, Control_c, 1, 7, 108
3, 72370, Control_c, 1, 7, 107
3, 72430, Control_c, 1, 7, 106
3, 72440, Control_c, 1, 7, 105
3, 72460, Control_c, 1, 7, 104
3, 72470, Control_c, 1, 7, 108
3, 72480, Note_on_c, 1, 83, 0
3, 72480, Note_on_c, 1, 79, 0
3, 72480, Note_on_c, 1, 78, 104
3, 72480, Note_on_c, 1, 81, 104
3, 72530, Control_c, 1, 7, 106
3, 72550, Control_c, 1, 7, 104
3, 72570, Control_c, 1, 7, 103
3, 72576, Note_on_c, 1, 81, 0
3, 72576, Note_on_c, 1, 78, 0
3, 72590, Control_c, 1, 7, 100
3, 72600, Note_on_c, 1, 78, 95
3, 72600, Note_on_c, 1, 86, 95
3, 72630, Control_c, 1, 7, 98
3, 72640, Control_c, 1, 7, 96
3, 72660, Control_c, 1, 7, 95
3, 72670, Control_c, 1, 7, 96
3, 72720, Note_on_c, 1, 86, 0
3, 72720, Note_on_c, 1, 78, 0
3, 72720, Note_on_c, 1, 76, 96
3, 72720, Note_on_c, 1, 85, 96
3, 72780, Control_c, 1, 7, 95
3, 72810, Control_c, 1, 7, 94
3, 72840, Note_on_c, 1, 85, 0
3, 72840, Note_on_c, 1, 76, 0
3, 72840, Note_on_c, 1, 83, 97
3, 72840, Note_on_c, 1, 79, 97
3, 72850, Control_c, 1, 7, 93
3, 72910, Control_c, 1, 7, 92
3, 72960, Note_on_c, 1, 79, 0
3, 72960, Note_on_c, 1, 83, 0
3, 72960, Note_on_c, 1, 81, 98
3, 72960, Note_on_c, 1, 78, 98
3, 72960, Control_c, 1, 7, 106
3, 72980, Control_c, 1, 7, 105
3, 73000, Control_c, 1, 7, 103
3, 73040, Control_c, 1, 7, 102
3, 73050, Control_c, 1, 7, 101
3, 73056, Note_on_c, 1, 78, 0
3, 73056, Note_on_c, 1, 81, 0
3, 73070, Control_c, 1, 7, 100
3, 73080, Note_on_c, 1, 86, 98
3, 73080, Note_on_c, 1, 78, 98
3, 73080, Control_c, 1, 7, 99
3, 73130, Control_c, 1, 7, 98
3, 73160, Control_c, 1, 7, 97
3, 73190, Control_c, 1, 7, 96
3, 73200, Note_on_c, 1, 78, 0
3, 73200, Note_on_c, 1, 86, 0
3, 73200, Note_on_c, 1, 85, 98
3, 73200, Note_on_c, 1, 76, 98
3, 73210, Control_c, 1, 7, 95
3, 73240, Control_c, 1, 7, 94
3, 73310, Control_c, 1, 7, 93
3, 73320, Note_on_c, 1, 76, 0
3, 73320, Note_on_c, 1, 85, 0
3, 73320, Note_on_c, 1, 79, 99
3, 73320, Note_on_c, 1, 83, 99
3, 73330, Control_c, 1, 7, 92
3, 73350, Control_c, 1, 7, 91
3, 73390, Control_c, 1, 7, 89
3, 73420, Control_c, 1, 7, 88
3, 73440, Note_on_c, 1, 83, 0
3, 73440, Note_on_c, 1, 79, 0
3, 73440, Note_on_c, 1, 81, 99
3, 73440, Note_on_c, 1, 78, 99
3, 73440, Control_c, 1, 7, 87
3, 73542, Note_on_c, 1, 78, 0
3, 73542, Note_on_c, 1, 81, 0
3, 73560, Note_on_c, 1, 81, 99
3, 73560, Note_on_c, 1, 78, 99
3, 73611, Note_on_c, 1, 78, 0
3, 73611, Note_on_c, 1, 81, 0
3, 73620, Note_on_c, 1, 81, 99
3, 73620, Note_on_c, 1, 78, 99
3, 73671, Note_on_c, 1, 78, 0
3, 73671, Note_on_c, 1, 81, 0
3, 73680, Note_on_c, 1, 79, 99
3, 73680, Note_on_c, 1, 76, 99
3, 73782, Note_on_c, 1, 76, 0
3, 73782, Note_on_c, 1, 79, 0
3, 73800, Note_on_c, 1, 79, 99
3, 73800, Note_on_c, 1, 76, 99
3, 73851, Note_on_c, 1, 76, 0
3, 73851, Note_on_c, 1, 79, 0
3, 73860, Note_on_c, 1, 79, 99
3, 73860, Note_on_c, 1, 76, 99
3, 73911, Note_on_c, 1, 76, 0
3, 73911, Note_on_c, 1, 79, 0
3, 73920, Note_on_c, 1, 78, 100
3, 73920, Note_on_c, 1, 74, 100
3, 74022, Note_on_c, 1, 74, 0
3, 74022, Note_on_c, 1, 78, 0
3, 74040, Note_on_c, 1, 74, 100
3, 74040, Note_on_c, 1, 78, 100
3, 74091, Note_on_c, 1, 78, 0
3, 74091, Note_on_c, 1, 74, 0
3, 74100, Note_on_c, 1, 74, 100
3, 74100, Note_on_c, 1, 78, 100
3, 74151, Note_on_c, 1, 78, 0
3, 74151, Note_on_c, 1, 74, 0
3, 74160, Note_on_c, 1, 76, 100
3, 74160, Note_on_c, 1, 73, 100
3, 74262, Note_on_c, 1, 73, 0
3, 74262, Note_on_c, 1, 76, 0
3, 74280, Note_on_c, 1, 73, 101
3, 74280, Note_on_c, 1, 76, 101
3, 74331, Note_on_c, 1, 76, 0
3, 74331, Note_on_c, 1, 73, 0
3, 74340, Note_on_c, 1, 76, 101
3, 74340, Note_on_c, 1, 73, 101
3, 74390, Control_c, 1, 7, 63
3, 74391, Note_on_c, 1, 73, 0
3, 74391, Note_on_c, 1, 76, 0
3, 74400, Note_on_c, 1, 74, 101
3, 74400, Note_on_c, 1, 74, 101
3, 74400, Note_on_c, 1, 74, 101
3, 74496, Note_on_c, 1, 74, 0
3, 74820, Note_on_c, 1, 74, 0
3, 74850, Note_on_c, 1, 74, 0
3, 74870, Control_c, 1, 7, 61
3, 74880, Note_on_c, 1, 78, 102
3, 75070, Control_c, 1, 7, 62
3, 75150, Control_c, 1, 7, 63
3, 75190, Control_c, 1, 7, 64
3, 75260, Control_c, 1, 7, 65
3, 75340, Control_c, 1, 7, 66
3, 75360, Note_on_c, 1, 78, 0
3, 75360, Note_on_c, 1, 76, 103
3, 75400, Control_c, 1, 7, 67
3, 75480, Control_c, 1, 7, 68
3, 75560, Control_c, 1, 7, 69
3, 75640, Control_c, 1, 7, 70
3, 75700, Control_c, 1, 7, 71
3, 75780, Control_c, 1, 7, 72
3, 75800, Control_c, 1, 7, 73
3, 75840, Note_on_c, 1, 76, 0
3, 75840, Note_on_c, 1, 78, 103
3, 75880, Control_c, 1, 7, 74
3, 75980, Control_c, 1, 7, 76
3, 76060, Control_c, 1, 7, 77
3, 76080, Note_on_c, 1, 78, 0
3, 76080, Note_on_c, 1, 81, 103
3, 76120, Control_c, 1, 7, 78
3, 76210, Control_c, 1, 7, 79
3, 76290, Control_c, 1, 7, 81
3, 76370, Control_c, 1, 7, 83
3, 76450, Control_c, 1, 7, 84
3, 76460, Control_c, 1, 7, 85
3, 76490, Control_c, 1, 7, 86
3, 76510, Control_c, 1, 7, 87
3, 76520, Control_c, 1, 7, 86
3, 76560, Note_on_c, 1, 81, 0
3, 76560, Note_on_c, 1, 79, 103
3, 76590, Control_c, 1, 7, 84
3, 76630, Control_c, 1, 7, 83
3, 76640, Control_c, 1, 7, 82
3, 76670, Control_c, 1, 7, 81
3, 76680, Control_c, 1, 7, 80
3, 76710, Control_c, 1, 7, 79
3, 76730, Control_c, 1, 7, 78
3, 76760, Control_c, 1, 7, 77
3, 76770, Control_c, 1, 7, 76
3, 76800, Control_c, 1, 7, 75
3, 76830, Control_c, 1, 7, 74
3, 76860, Control_c, 1, 7, 73
3, 76880, Control_c, 1, 7, 72
3, 76920, Control_c, 1, 7, 71
3, 76990, Control_c, 1, 7, 70
3, 77040, Note_on_c, 1, 79, 0
3, 77040, Note_on_c, 1, 78, 103
3, 77060, Control_c, 1, 7, 69
3, 77110, Control_c, 1, 7, 68
3, 77160, Control_c, 1, 7, 67
3, 77180, Control_c, 1, 7, 66
3, 77240, Control_c, 1, 7, 65
3, 77260, Control_c, 1, 7, 64
3, 77290, Control_c, 1, 7, 63
3, 77520, Note_on_c, 1, 78, 0
3, 77520, Note_on_c, 1, 76, 104
3, 78000, Note_on_c, 1, 76, 0
3, 78000, Note_on_c, 1, 74, 101
3, 78192, Note_on_c, 1, 74, 0
3, 78240, Note_on_c, 1, 73, 91
3, 78240, Note_on_c, 1, 69, 91
3, 78480, Note_on_c, 1, 69, 0
3, 78480, Note_on_c, 1, 73, 0
3, 78480, Note_on_c, 1, 76, 86
3, 78480, Note_on_c, 1, 79, 86
3, 78720, Note_on_c, 1, 79, 0
3, 78720, Note_on_c, 1, 76, 0
3, 78720, Note_on_c, 1, 74, 78
3, 78720, Note_on_c, 1, 78, 78
3, 79104, Note_on_c, 1, 78, 0
3, 79104, Note_on_c, 1, 74, 0
3, 79200, Note_on_c, 1, 73, 102
3, 79200, Note_on_c, 1, 76, 102
3, 79440, Note_on_c, 1, 76, 0
3, 79440, Note_on_c, 1, 73, 0
3, 79440, Note_on_c, 1, 76, 102
3, 79440, Note_on_c, 1, 79, 102
3, 79632, Note_on_c, 1, 79, 0
3, 79632, Note_on_c, 1, 76, 0
3, 79680, Note_on_c, 1, 74, 102
3, 79680, Note_on_c, 1, 78, 102
3, 80160, Note_on_c, 1, 78, 0
3, 80160, Note_on_c, 1, 74, 0
3, 80160, Note_on_c, 1, 76, 102
3, 80160, Note_on_c, 1, 73, 102
3, 80352, Note_on_c, 1, 73, 0
3, 80352, Note_on_c, 1, 76, 0
3, 80400, Note_on_c, 1, 78, 102
3, 80400, Note_on_c, 1, 74, 102
3, 80592, Note_on_c, 1, 74, 0
3, 80592, Note_on_c, 1, 78, 0
3, 80640, Note_on_c, 1, 73, 102
3, 80640, Note_on_c, 1, 76, 102
3, 80832, Note_on_c, 1, 76, 0
3, 80832, Note_on_c, 1, 73, 0
3, 80880, Note_on_c, 1, 74, 102
3, 80880, Note_on_c, 1, 78, 102
3, 81072, Note_on_c, 1, 78, 0
3, 81072, Note_on_c, 1, 74, 0
3, 81120, Note_on_c, 1, 73, 102
3, 81120, Note_on_c, 1, 76, 102
3, 81232, Note_on_c, 1, 76, 0
3, 81232, Note_on_c, 1, 73, 0
3, 81240, Note_on_c, 1, 69, 102
3, 81240, Note_on_c, 1, 69, 102
3, 81288, Note_on_c, 1, 69, 0
3, 81288, Note_on_c, 1, 69, 0
3, 81300, Note_on_c, 1, 69, 102
3, 81300, Note_on_c, 1, 69, 102
3, 81348, Note_on_c, 1, 69, 0
3, 81348, Note_on_c, 1, 69, 0
3, 81360, Note_on_c, 1, 69, 102
3, 81360, Note_on_c, 1, 69, 102
3, 81472, Note_on_c, 1, 69, 0
3, 81472, Note_on_c, 1, 69, 0
3, 81480, Note_on_c, 1, 69, 102
3, 81480, Note_on_c, 1, 69, 102
3, 81592, Note_on_c, 1, 69, 0
3, 81592, Note_on_c, 1, 69, 0
3, 81600, Note_on_c, 1, 69, 102
3, 81600, Note_on_c, 1, 69, 102
3, 81825, Note_on_c, 1, 69, 0
3, 81825, Note_on_c, 1, 69, 0
3, 82080, Control_c, 1, 7, 120
3, 82082, Control_c, 1, 7, 119
3, 82084, Control_c, 1, 7, 118
3, 82086, Control_c, 1, 7, 117
3, 82088, Control_c, 1, 7, 116
3, 82090, Control_c, 1, 7, 115
3, 82092, Control_c, 1, 7, 114
3, 82094, Control_c, 1, 7, 113
3, 82097, Control_c, 1, 7, 112
3, 82099, Control_c, 1, 7, 111
3, 82101, Control_c, 1, 7, 110
3, 82103, Control_c, 1, 7, 109
3, 82105, Control_c, 1, 7, 108
3, 82107, Control_c, 1, 7, 107
3, 82109, Control_c, 1, 7, 106
3, 82111, Control_c, 1, 7, 105
3, 82114, Control_c, 1, 7, 104
3, 82116, Control_c, 1, 7, 103
3, 82118, Control_c, 1, 7, 102
3, 82120, Control_c, 1, 7, 101
3, 82122, Control_c, 1, 7, 100
3, 82124, Control_c, 1, 7, 99
3, 82126, Control_c, 1, 7, 98
3, 82128, Control_c, 1, 7, 97
3, 82131, Control_c, 1, 7, 96
3, 82133, Control_c, 1, 7, 95
3, 82135, Control_c, 1, 7, 94
3, 82137, Control_c, 1, 7, 93
3, 82139, Control_c, 1, 7, 92
3, 82141, Control_c, 1, 7, 91
3, 82143, Control_c, 1, 7, 90
3, 82145, Control_c, 1, 7, 89
3, 82148, Control_c, 1, 7, 88
3, 82150, Control_c, 1, 7, 87
3, 82152, Control_c, 1, 7, 86
3, 82154, Control_c, 1, 7, 85
3, 82156, Control_c, 1, 7, 84
3, 82158, Control_c, 1, 7, 83
3, 82160, Control_c, 1, 7, 82
3, 82162, Control_c, 1, 7, 81
3, 82165, Control_c, 1, 7, 80
3, 82167, Control_c, 1, 7, 79
3, 82169, Control_c, 1, 7, 78
3, 82171, Control_c, 1, 7, 77
3, 82173, Control_c, 1, 7, 76
3, 82175, Control_c, 1, 7, 75
3, 82177, Control_c, 1, 7, 74
3, 82179, Control_c, 1, 7, 73
3, 82182, Control_c, 1, 7, 72
3, 82184, Control_c, 1, 7, 71
3, 82186, Control_c, 1, 7, 70
3, 82188, Control_c, 1, 7, 69
3, 82190, Control_c, 1, 7, 68
3, 82192, Control_c, 1, 7, 67
3, 82194, Control_c, 1, 7, 66
3, 82196, Control_c, 1, 7, 65
3, 82199, Control_c, 1, 7, 64
3, 82200, Control_c, 1, 7, 64
3, 84960, Note_on_c, 1, 76, 74
3, 84960, Note_on_c, 1, 79, 74
3, 84960, Control_c, 1, 7, 95
3, 84970, Control_c, 1, 7, 97
3, 84980, Control_c, 1, 7, 98
3, 85000, Control_c, 1, 7, 101
3, 85018, Note_on_c, 1, 79, 0
3, 85018, Note_on_c, 1, 76, 0
3, 85020, Note_on_c, 1, 78, 75
3, 85020, Note_on_c, 1, 81, 75
3, 85030, Control_c, 1, 7, 102
3, 85040, Control_c, 1, 7, 103
3, 85050, Control_c, 1, 7, 104
3, 85060, Control_c, 1, 7, 105
3, 85078, Note_on_c, 1, 81, 0
3, 85078, Note_on_c, 1, 78, 0
3, 85080, Note_on_c, 1, 79, 81
3, 85080, Note_on_c, 1, 83, 81
3, 85080, Control_c, 1, 7, 106
3, 85090, Control_c, 1, 7, 107
3, 85120, Control_c, 1, 7, 108
3, 85130, Control_c, 1, 7, 109
3, 85138, Note_on_c, 1, 83, 0
3, 85138, Note_on_c, 1, 79, 0
3, 85140, Note_on_c, 1, 78, 77
3, 85140, Note_on_c, 1, 81, 77
3, 85198, Note_on_c, 1, 81, 0
3, 85198, Note_on_c, 1, 78, 0
3, 85200, Note_on_c, 1, 76, 74
3, 85200, Note_on_c, 1, 79, 74
3, 85230, Control_c, 1, 7, 108
3, 85240, Control_c, 1, 7, 106
3, 85250, Control_c, 1, 7, 104
3, 85258, Note_on_c, 1, 79, 0
3, 85258, Note_on_c, 1, 76, 0
3, 85260, Note_on_c, 1, 74, 71
3, 85260, Note_on_c, 1, 78, 71
3, 85270, Control_c, 1, 7, 102
3, 85280, Control_c, 1, 7, 100
3, 85290, Control_c, 1, 7, 99
3, 85318, Note_on_c, 1, 78, 0
3, 85318, Note_on_c, 1, 74, 0
3, 85320, Note_on_c, 1, 73, 67
3, 85320, Note_on_c, 1, 76, 67
3, 85320, Control_c, 1, 7, 97
3, 85350, Control_c, 1, 7, 94
3, 85360, Control_c, 1, 7, 92
3, 85378, Note_on_c, 1, 76, 0
3, 85378, Note_on_c, 1, 73, 0
3, 85380, Note_on_c, 1, 71, 64
3, 85380, Note_on_c, 1, 74, 64
3, 85400, Control_c, 1, 7, 90
3, 85410, Control_c, 1, 7, 88
3, 85420, Control_c, 1, 7, 87
3, 85438, Note_on_c, 1, 74, 0
3, 85438, Note_on_c, 1, 71, 0
3, 85440, Note_on_c, 1, 73, 60
3, 85440, Note_on_c, 1, 69, 60
3, 85920, Note_on_c, 1, 73, 0
3, 85920, Note_on_c, 1, 74, 68
3, 85920, Note_on_c, 1, 74, 68
3, 85950, Note_on_c, 1, 69, 0
3, 86016, Note_on_c, 1, 74, 0
3, 86016, Note_on_c, 1, 74, 0
3, 87840, Note_on_c, 1, 74, 64
3, 88800, Note_on_c, 1, 74, 0
3, 88800, Note_on_c, 1, 79, 70
3, 88800, Note_on_c, 1, 76, 70
3, 88800, Control_c, 1, 7, 95
3, 88810, Control_c, 1, 7, 97
3, 88820, Control_c, 1, 7, 98
3, 88840, Control_c, 1, 7, 101
3, 88858, Note_on_c, 1, 76, 0
3, 88858, Note_on_c, 1, 79, 0
3, 88860, Note_on_c, 1, 81, 73
3, 88860, Note_on_c, 1, 78, 73
3, 88870, Control_c, 1, 7, 102
3, 88880, Control_c, 1, 7, 103
3, 88890, Control_c, 1, 7, 104
3, 88900, Control_c, 1, 7, 105
3, 88918, Note_on_c, 1, 78, 0
3, 88918, Note_on_c, 1, 81, 0
3, 88920, Note_on_c, 1, 83, 75
3, 88920, Note_on_c, 1, 79, 75
3, 88920, Control_c, 1, 7, 106
3, 88930, Control_c, 1, 7, 107
3, 88960, Control_c, 1, 7, 108
3, 88970, Control_c, 1, 7, 109
3, 88978, Note_on_c, 1, 79, 0
3, 88978, Note_on_c, 1, 83, 0
3, 88980, Note_on_c, 1, 81, 75
3, 88980, Note_on_c, 1, 78, 75
3, 89038, Note_on_c, 1, 78, 0
3, 89038, Note_on_c, 1, 81, 0
3, 89040, Note_on_c, 1, 79, 73
3, 89040, Note_on_c, 1, 76, 73
3, 89070, Control_c, 1, 7, 108
3, 89080, Control_c, 1, 7, 106
3, 89090, Control_c, 1, 7, 104
3, 89098, Note_on_c, 1, 76, 0
3, 89098, Note_on_c, 1, 79, 0
3, 89100, Note_on_c, 1, 78, 69
3, 89100, Note_on_c, 1, 74, 69
3, 89110, Control_c, 1, 7, 102
3, 89120, Control_c, 1, 7, 100
3, 89130, Control_c, 1, 7, 99
3, 89158, Note_on_c, 1, 74, 0
3, 89158, Note_on_c, 1, 78, 0
3, 89160, Note_on_c, 1, 76, 65
3, 89160, Note_on_c, 1, 73, 65
3, 89160, Control_c, 1, 7, 97
3, 89190, Control_c, 1, 7, 94
3, 89200, Control_c, 1, 7, 92
3, 89218, Note_on_c, 1, 73, 0
3, 89218, Note_on_c, 1, 76, 0
3, 89220, Note_on_c, 1, 74, 61
3, 89220, Note_on_c, 1, 71, 61
3, 89240, Control_c, 1, 7, 90
3, 89250, Control_c, 1, 7, 88
3, 89260, Control_c, 1, 7, 87
3, 89278, Note_on_c, 1, 71, 0
3, 89278, Note_on_c, 1, 74, 0
3, 89280, Note_on_c, 1, 69, 57
3, 89280, Note_on_c, 1, 73, 57
3, 89280, Control_c, 1, 7, 84
3, 89300, Control_c, 1, 7, 83
3, 89310, Control_c, 1, 7, 82
3, 89320, Control_c, 1, 7, 80
3, 89350, Control_c, 1, 7, 79
3, 89400, Control_c, 1, 7, 77
3, 89430, Control_c, 1, 7, 76
3, 89440, Control_c, 1, 7, 75
3, 89600, Control_c, 1, 7, 76
3, 89620, Control_c, 1, 7, 77
3, 89630, Control_c, 1, 7, 78
3, 89650, Control_c, 1, 7, 79
3, 89660, Control_c, 1, 7, 80
3, 89690, Control_c, 1, 7, 81
3, 89700, Control_c, 1, 7, 82
3, 89710, Control_c, 1, 7, 83
3, 89740, Control_c, 1, 7, 84
3, 89750, Control_c, 1, 7, 85
3, 89760, Note_on_c, 1, 73, 0
3, 89760, Note_on_c, 1, 69, 0
3, 89760, Note_on_c, 1, 69, 64
3, 89760, Note_on_c, 1, 74, 64
3, 89856, Note_on_c, 1, 74, 0
3, 89856, Note_on_c, 1, 69, 0
3, 90000, Note_on_c, 1, 74, 104
3, 90000, Note_on_c, 1, 78, 104
3, 90000, Control_c, 1, 7, 101
3, 90240, Note_on_c, 1, 78, 0
3, 90240, Note_on_c, 1, 77, 85
3, 90240, Control_c, 1, 7, 64
3, 90720, Note_on_c, 1, 77, 0
3, 90720, Note_on_c, 1, 76, 70
3, 90960, Note_on_c, 1, 76, 0
3, 90960, Note_on_c, 1, 74, 0
3, 90960, Note_on_c, 1, 72, 89
3, 90960, Note_on_c, 1, 76, 89
3, 90960, Control_c, 1, 7, 103
3, 91200, Note_on_c, 1, 76, 0
3, 91200, Note_on_c, 1, 75, 70
3, 91200, Control_c, 1, 7, 63
3, 91680, Note_on_c, 1, 75, 0
3, 91680, Note_on_c, 1, 74, 72
3, 91920, Note_on_c, 1, 74, 0
3, 91920, Note_on_c, 1, 72, 0
3, 91920, Note_on_c, 1, 70, 93
3, 91920, Note_on_c, 1, 74, 93
3, 91920, Control_c, 1, 7, 118
3, 92160, Note_on_c, 1, 74, 0
3, 92160, Note_on_c, 1, 74, 69
3, 92160, Control_c, 1, 7, 63
3, 92640, Note_on_c, 1, 74, 0
3, 92640, Note_on_c, 1, 70, 0
3, 92640, Note_on_c, 1, 76, 93
3, 92640, Note_on_c, 1, 79, 93
3, 92640, Control_c, 1, 7, 84
3, 92660, Control_c, 1, 7, 85
3, 92740, Control_c, 1, 7, 86
3, 92880, Control_c, 1, 7, 87
3, 92980, Control_c, 1, 7, 88
3, 93060, Control_c, 1, 7, 89
3, 93120, Note_on_c, 1, 79, 0
3, 93120, Note_on_c, 1, 76, 0
3, 93120, Note_on_c, 1, 74, 93
3, 93120, Note_on_c, 1, 78, 93
3, 93140, Control_c, 1, 7, 90
3, 93220, Control_c, 1, 7, 91
3, 93280, Control_c, 1, 7, 92
3, 93400, Control_c, 1, 7, 94
3, 93500, Control_c, 1, 7, 97
3, 93540, Control_c, 1, 7, 98
3, 93600, Note_on_c, 1, 78, 0
3, 93600, Note_on_c, 1, 74, 0
3, 93600, Note_on_c, 1, 81, 93
3, 93600, Note_on_c, 1, 79, 93
3, 93620, Control_c, 1, 7, 99
3, 93670, Control_c, 1, 7, 100
3, 93790, Control_c, 1, 7, 101
3, 93870, Control_c, 1, 7, 102
3, 93890, Control_c, 1, 7, 103
3, 93970, Control_c, 1, 7, 104
3, 94030, Control_c, 1, 7, 105
3, 94080, Note_on_c, 1, 79, 0
3, 94080, Note_on_c, 1, 78, 95
3, 94170, Control_c, 1, 7, 106
3, 94190, Control_c, 1, 7, 107
3, 94200, Control_c, 1, 7, 108
3, 94230, Control_c, 1, 7, 109
3, 94310, Control_c, 1, 7, 110
3, 94320, Note_on_c, 1, 78, 0
3, 94320, Note_on_c, 1, 81, 0
3, 94320, Note_on_c, 1, 79, 96
3, 94320, Note_on_c, 1, 85, 96
3, 94330, Control_c, 1, 7, 111
3, 94360, Control_c, 1, 7, 112
3, 94380, Control_c, 1, 7, 113
3, 94440, Control_c, 1, 7, 114
3, 94450, Control_c, 1, 7, 115
3, 94510, Control_c, 1, 7, 117
3, 94520, Control_c, 1, 7, 119
3, 94560, Note_on_c, 1, 85, 0
3, 94560, Note_on_c, 1, 79, 0
3, 94560, Note_on_c, 1, 86, 96
3, 94560, Note_on_c, 1, 78, 96
3, 94580, Control_c, 1, 7, 120
3, 94590, Control_c, 1, 7, 121
3, 94620, Control_c, 1, 7, 123
3, 94700, Control_c, 1, 7, 124
3, 94720, Control_c, 1, 7, 125
3, 94790, Control_c, 1, 7, 126
3, 94800, Note_on_c, 1, 78, 0
3, 94800, Note_on_c, 1, 86, 0
3, 94800, Note_on_c, 1, 78, 97
3, 94800, Note_on_c, 1, 74, 97
3, 94800, Control_c, 1, 7, 127
3, 95760, Control_c, 1, 7, 125
3, 95800, Control_c, 1, 7, 124
3, 95820, Control_c, 1, 7, 123
3, 95840, Control_c, 1, 7, 122
3, 95900, Control_c, 1, 7, 121
3, 95980, Control_c, 1, 7, 119
3, 96080, Control_c, 1, 7, 117
3, 96160, Control_c, 1, 7, 111
3, 96240, Control_c, 1, 7, 110
3, 96320, Control_c, 1, 7, 108
3, 96400, Control_c, 1, 7, 106
3, 96500, Control_c, 1, 7, 104
3, 96580, Control_c, 1, 7, 102
3, 96700, Control_c, 1, 7, 101
3, 96760, Control_c, 1, 7, 100
3, 96840, Control_c, 1, 7, 99
3, 96880, Control_c, 1, 7, 96
3, 96940, Control_c, 1, 7, 95
3, 97000, Control_c, 1, 7, 94
3, 97050, Control_c, 1, 7, 93
3, 97130, Control_c, 1, 7, 92
3, 97190, Control_c, 1, 7, 91
3, 97200, Control_c, 1, 7, 90
3, 97360, Control_c, 1, 7, 89
3, 97440, Note_on_c, 1, 78, 0
3, 97440, Note_on_c, 1, 77, 104
3, 97450, Control_c, 1, 7, 124
3, 97640, Control_c, 1, 7, 123
3, 97710, Control_c, 1, 7, 122
3, 97780, Control_c, 1, 7, 121
3, 97790, Control_c, 1, 7, 120
3, 97850, Control_c, 1, 7, 119
3, 97870, Control_c, 1, 7, 118
3, 97890, Control_c, 1, 7, 117
3, 97900, Control_c, 1, 7, 116
3, 97920, Note_on_c, 1, 77, 0
3, 97920, Note_on_c, 1, 83, 104
3, 97930, Control_c, 1, 7, 115
3, 98010, Control_c, 1, 7, 114
3, 98070, Control_c, 1, 7, 113
3, 98150, Control_c, 1, 7, 112
3, 98160, Note_on_c, 1, 83, 0
3, 98160, Note_on_c, 1, 74, 0
3, 98160, Note_on_c, 1, 73, 104
3, 98160, Note_on_c, 1, 81, 104
3, 98170, Control_c, 1, 7, 111
3, 98270, Control_c, 1, 7, 110
3, 98330, Control_c, 1, 7, 109
3, 98352, Note_on_c, 1, 81, 0
3, 98352, Note_on_c, 1, 73, 0
3, 98400, Note_on_c, 1, 74, 104
3, 98400, Note_on_c, 1, 81, 104
3, 98420, Control_c, 1, 7, 107
3, 98500, Control_c, 1, 7, 106
3, 98560, Control_c, 1, 7, 104
3, 98570, Control_c, 1, 7, 103
3, 98592, Note_on_c, 1, 81, 0
3, 98592, Note_on_c, 1, 74, 0
3, 98630, Control_c, 1, 7, 102
3, 98640, Note_on_c, 1, 71, 102
3, 98640, Note_on_c, 1, 79, 102
3, 98650, Control_c, 1, 7, 101
3, 98710, Control_c, 1, 7, 99
3, 98770, Control_c, 1, 7, 98
3, 98832, Note_on_c, 1, 79, 0
3, 98832, Note_on_c, 1, 71, 0
3, 98840, Control_c, 1, 7, 97
3, 98880, Note_on_c, 1, 74, 92
3, 98880, Note_on_c, 1, 78, 92
3, 98940, Control_c, 1, 7, 95
3, 98960, Control_c, 1, 7, 94
3, 98990, Control_c, 1, 7, 93
3, 99050, Control_c, 1, 7, 92
3, 99060, Control_c, 1, 7, 91
3, 99072, Note_on_c, 1, 78, 0
3, 99072, Note_on_c, 1, 74, 0
3, 99120, Note_on_c, 1, 73, 78
3, 99120, Note_on_c, 1, 76, 78
3, 99130, Control_c, 1, 7, 90
3, 99190, Control_c, 1, 7, 88
3, 99210, Control_c, 1, 7, 87
3, 99230, Control_c, 1, 7, 86
3, 99290, Control_c, 1, 7, 85
3, 99312, Note_on_c, 1, 76, 0
3, 99312, Note_on_c, 1, 73, 0
3, 99360, Note_on_c, 1, 74, 72
3, 99360, Note_on_c, 1, 78, 72
3, 99380, Control_c, 1, 7, 77
3, 99456, Note_on_c, 1, 78, 0
3, 99456, Note_on_c, 1, 74, 0
3, 99460, Control_c, 1, 7, 75
3, 99500, Control_c, 1, 7, 74
3, 99570, Control_c, 1, 7, 73
3, 99640, Control_c, 1, 7, 71
3, 99720, Control_c, 1, 7, 69
3, 99800, Control_c, 1, 7, 67
3, 99900, Control_c, 1, 7, 66
3, 99920, Control_c, 1, 7, 64
3, 99950, Control_c, 1, 7, 63
3, 99990, Control_c, 1, 7, 62
3, 100440, Control_c, 1, 7, 96
3, 100440, Control_c, 1, 7, 96
3, 100447, Control_c, 1, 7, 95
3, 100447, Control_c, 1, 7, 95
3, 100454, Control_c, 1, 7, 94
3, 100454, Control_c, 1, 7, 94
3, 100462, Control_c, 1, 7, 93
3, 100462, Control_c, 1, 7, 93
3, 100469, Control_c, 1, 7, 92
3, 100469, Control_c, 1, 7, 92
3, 100477, Control_c, 1, 7, 91
3, 100477, Control_c, 1, 7, 91
3, 100484, Control_c, 1, 7, 90
3, 100484, Control_c, 1, 7, 90
3, 100492, Control_c, 1, 7, 89
3, 100492, Control_c, 1, 7, 89
3, 100499, Control_c, 1, 7, 88
3, 100499, Control_c, 1, 7, 88
3, 100507, Control_c, 1, 7, 87
3, 100507, Control_c, 1, 7, 87
3, 100514, Control_c, 1, 7, 86
3, 100514, Control_c, 1, 7, 86
3, 100522, Control_c, 1, 7, 85
3, 100522, Control_c, 1, 7, 85
3, 100529, Control_c, 1, 7, 84
3, 100529, Control_c, 1, 7, 84
3, 100537, Control_c, 1, 7, 83
3, 100537, Control_c, 1, 7, 83
3, 100544, Control_c, 1, 7, 82
3, 100544, Control_c, 1, 7, 82
3, 100552, Control_c, 1, 7, 81
3, 100552, Control_c, 1, 7, 81
3, 100559, Control_c, 1, 7, 80
3, 100559, Control_c, 1, 7, 80
3, 100566, Control_c, 1, 7, 79
3, 100566, Control_c, 1, 7, 79
3, 100574, Control_c, 1, 7, 78
3, 100574, Control_c, 1, 7, 78
3, 100581, Control_c, 1, 7, 77
3, 100581, Control_c, 1, 7, 77
3, 100589, Control_c, 1, 7, 76
3, 100589, Control_c, 1, 7, 76
3, 100596, Control_c, 1, 7, 75
3, 100596, Control_c, 1, 7, 75
3, 100604, Control_c, 1, 7, 74
3, 100604, Control_c, 1, 7, 74
3, 100611, Control_c, 1, 7, 73
3, 100611, Control_c, 1, 7, 73
3, 100619, Control_c, 1, 7, 72
3, 100619, Control_c, 1, 7, 72
3, 100626, Control_c, 1, 7, 71
3, 100626, Control_c, 1, 7, 71
3, 100634, Control_c, 1, 7, 70
3, 100634, Control_c, 1, 7, 70
3, 100641, Control_c, 1, 7, 69
3, 100641, Control_c, 1, 7, 69
3, 100649, Control_c, 1, 7, 68
3, 100649, Control_c, 1, 7, 68
3, 100656, Control_c, 1, 7, 67
3, 100656, Control_c, 1, 7, 67
3, 100664, Control_c, 1, 7, 66
3, 100664, Control_c, 1, 7, 66
3, 100671, Control_c, 1, 7, 65
3, 100671, Control_c, 1, 7, 65
3, 100679, Control_c, 1, 7, 64
3, 100679, Control_c, 1, 7, 64
3, 101400, Control_c, 1, 7, 112
3, 101400, Note_on_c, 1, 76, 63
3, 101400, Note_on_c, 1, 79, 63
3, 101400, Control_c, 1, 7, 96
3, 101404, Control_c, 1, 7, 111
3, 101407, Control_c, 1, 7, 95
3, 101409, Control_c, 1, 7, 110
3, 101414, Control_c, 1, 7, 109
3, 101415, Control_c, 1, 7, 94
3, 101419, Control_c, 1, 7, 108
3, 101422, Control_c, 1, 7, 93
3, 101424, Control_c, 1, 7, 107
3, 101429, Control_c, 1, 7, 106
3, 101430, Control_c, 1, 7, 92
3, 101434, Control_c, 1, 7, 105
3, 101437, Control_c, 1, 7, 91
3, 101439, Control_c, 1, 7, 104
3, 101444, Control_c, 1, 7, 103
3, 101445, Control_c, 1, 7, 90
3, 101449, Control_c, 1, 7, 102
3, 101452, Control_c, 1, 7, 89
3, 101454, Control_c, 1, 7, 101
3, 101459, Control_c, 1, 7, 100
3, 101460, Control_c, 1, 7, 88
3, 101464, Control_c, 1, 7, 99
3, 101467, Control_c, 1, 7, 87
3, 101469, Control_c, 1, 7, 98
3, 101474, Control_c, 1, 7, 97
3, 101475, Control_c, 1, 7, 86
3, 101479, Control_c, 1, 7, 96
3, 101482, Control_c, 1, 7, 85
3, 101484, Control_c, 1, 7, 95
3, 101489, Control_c, 1, 7, 94
3, 101490, Control_c, 1, 7, 84
3, 101494, Control_c, 1, 7, 93
3, 101497, Control_c, 1, 7, 83
3, 101499, Control_c, 1, 7, 92
3, 101504, Control_c, 1, 7, 91
3, 101505, Control_c, 1, 7, 82
3, 101509, Control_c, 1, 7, 90
3, 101512, Control_c, 1, 7, 81
3, 101514, Control_c, 1, 7, 89
3, 101519, Control_c, 1, 7, 88
3, 101520, Note_on_c, 1, 79, 0
3, 101520, Note_on_c, 1, 76, 0
3, 101520, Note_on_c, 1, 74, 52
3, 101520, Note_on_c, 1, 78, 52
3, 101520, Control_c, 1, 7, 80
3, 101524, Control_c, 1, 7, 87
3, 101527, Control_c, 1, 7, 79
3, 101529, Control_c, 1, 7, 86
3, 101534, Control_c, 1, 7, 85
3, 101535, Control_c, 1, 7, 78
3, 101539, Control_c, 1, 7, 84
3, 101542, Control_c, 1, 7, 77
3, 101544, Control_c, 1, 7, 83
3, 101549, Control_c, 1, 7, 82
3, 101550, Control_c, 1, 7, 76
3, 101554, Control_c, 1, 7, 81
3, 101557, Control_c, 1, 7, 75
3, 101559, Control_c, 1, 7, 80
3, 101564, Control_c, 1, 7, 79
3, 101565, Control_c, 1, 7, 74
3, 101568, Note_on_c, 1, 78, 0
3, 101568, Note_on_c, 1, 74, 0
3, 101569, Control_c, 1, 7, 78
3, 101572, Control_c, 1, 7, 73
3, 101574, Control_c, 1, 7, 77
3, 101579, Control_c, 1, 7, 76
3, 101580, Control_c, 1, 7, 72
3, 101584, Control_c, 1, 7, 75
3, 101587, Control_c, 1, 7, 71
3, 101589, Control_c, 1, 7, 74
3, 101594, Control_c, 1, 7, 73
3, 101595, Control_c, 1, 7, 70
3, 101599, Control_c, 1, 7, 72
3, 101602, Control_c, 1, 7, 69
3, 101604, Control_c, 1, 7, 71
3, 101609, Control_c, 1, 7, 70
3, 101610, Control_c, 1, 7, 68
3, 101614, Control_c, 1, 7, 69
3, 101617, Control_c, 1, 7, 67
3, 101619, Control_c, 1, 7, 68
3, 101624, Control_c, 1, 7, 67
3, 101625, Control_c, 1, 7, 66
3, 101629, Control_c, 1, 7, 66
3, 101632, Control_c, 1, 7, 65
3, 101634, Control_c, 1, 7, 65
3, 101639, Control_c, 1, 7, 64
3, 101640, Control_c, 1, 7, 64
3, 101640, Control_c, 1, 7, 64
3, 106080, Control_c, 1, 7, 64
3, 106080, Control_c, 1, 7, 64
3, 106109, Control_c, 1, 7, 65
3, 106109, Control_c, 1, 7, 65
3, 106139, Control_c, 1, 7, 66
3, 106139, Control_c, 1, 7, 66
3, 106169, Control_c, 1, 7, 67
3, 106169, Control_c, 1, 7, 67
3, 106199, Control_c, 1, 7, 68
3, 106199, Control_c, 1, 7, 68
3, 106229, Control_c, 1, 7, 69
3, 106229, Control_c, 1, 7, 69
3, 106259, Control_c, 1, 7, 70
3, 106259, Control_c, 1, 7, 70
3, 106289, Control_c, 1, 7, 71
3, 106289, Control_c, 1, 7, 71
3, 106319, Control_c, 1, 7, 72
3, 106319, Control_c, 1, 7, 72
3, 106320, Note_on_c, 1, 79, 88
3, 106320, Note_on_c, 1, 76, 88
3, 106349, Control_c, 1, 7, 73
3, 106349, Control_c, 1, 7, 73
3, 106379, Control_c, 1, 7, 74
3, 106379, Control_c, 1, 7, 74
3, 106409, Control_c, 1, 7, 75
3, 106409, Control_c, 1, 7, 75
3, 106439, Control_c, 1, 7, 76
3, 106439, Control_c, 1, 7, 76
3, 106469, Control_c, 1, 7, 77
3, 106469, Control_c, 1, 7, 77
3, 106499, Control_c, 1, 7, 78
3, 106499, Control_c, 1, 7, 78
3, 106529, Control_c, 1, 7, 79
3, 106529, Control_c, 1, 7, 79
3, 106559, Control_c, 1, 7, 80
3, 106559, Control_c, 1, 7, 80
3, 106560, Note_on_c, 1, 76, 0
3, 106560, Note_on_c, 1, 79, 0
3, 106560, Note_on_c, 1, 78, 88
3, 106560, Note_on_c, 1, 74, 88
3, 106589, Control_c, 1, 7, 81
3, 106589, Control_c, 1, 7, 81
3, 106619, Control_c, 1, 7, 82
3, 106619, Control_c, 1, 7, 82
3, 106649, Control_c, 1, 7, 83
3, 106649, Control_c, 1, 7, 83
3, 106679, Control_c, 1, 7, 84
3, 106679, Control_c, 1, 7, 84
3, 106709, Control_c, 1, 7, 85
3, 106709, Control_c, 1, 7, 85
3, 106739, Control_c, 1, 7, 86
3, 106739, Control_c, 1, 7, 86
3, 106769, Control_c, 1, 7, 87
3, 106769, Control_c, 1, 7, 87
3, 106799, Control_c, 1, 7, 88
3, 106799, Control_c, 1, 7, 88
3, 106800, Note_on_c, 1, 74, 0
3, 106800, Note_on_c, 1, 78, 0
3, 106800, Note_on_c, 1, 73, 88
3, 106800, Note_on_c, 1, 76, 88
3, 106829, Control_c, 1, 7, 89
3, 106829, Control_c, 1, 7, 89
3, 106859, Control_c, 1, 7, 90
3, 106859, Control_c, 1, 7, 90
3, 106889, Control_c, 1, 7, 91
3, 106889, Control_c, 1, 7, 91
3, 106919, Control_c, 1, 7, 92
3, 106919, Control_c, 1, 7, 92
3, 106949, Control_c, 1, 7, 93
3, 106949, Control_c, 1, 7, 93
3, 106979, Control_c, 1, 7, 94
3, 106979, Control_c, 1, 7, 94
3, 107009, Control_c, 1, 7, 95
3, 107009, Control_c, 1, 7, 95
3, 107039, Control_c, 1, 7, 96
3, 107039, Control_c, 1, 7, 96
3, 107040, Note_on_c, 1, 76, 0
3, 107040, Note_on_c, 1, 73, 0
3, 107040, Note_on_c, 1, 78, 88
3, 107040, Note_on_c, 1, 74, 88
3, 107040, Control_c, 1, 7, 96
3, 107040, Control_c, 1, 7, 96
3, 107054, Control_c, 1, 7, 95
3, 107054, Control_c, 1, 7, 95
3, 107069, Control_c, 1, 7, 94
3, 107069, Control_c, 1, 7, 94
3, 107084, Control_c, 1, 7, 93
3, 107084, Control_c, 1, 7, 93
3, 107099, Control_c, 1, 7, 92
3, 107099, Control_c, 1, 7, 92
3, 107114, Control_c, 1, 7, 91
3, 107114, Control_c, 1, 7, 91
3, 107129, Control_c, 1, 7, 90
3, 107129, Control_c, 1, 7, 90
3, 107144, Control_c, 1, 7, 89
3, 107144, Control_c, 1, 7, 89
3, 107159, Control_c, 1, 7, 88
3, 107159, Control_c, 1, 7, 88
3, 107174, Control_c, 1, 7, 87
3, 107174, Control_c, 1, 7, 87
3, 107189, Control_c, 1, 7, 86
3, 107189, Control_c, 1, 7, 86
3, 107190, Note_on_c, 1, 74, 0
3, 107190, Note_on_c, 1, 78, 0
3, 107204, Control_c, 1, 7, 85
3, 107204, Control_c, 1, 7, 85
3, 107219, Control_c, 1, 7, 84
3, 107219, Control_c, 1, 7, 84
3, 107234, Control_c, 1, 7, 83
3, 107234, Control_c, 1, 7, 83
3, 107249, Control_c, 1, 7, 82
3, 107249, Control_c, 1, 7, 82
3, 107264, Control_c, 1, 7, 81
3, 107264, Control_c, 1, 7, 81
3, 107279, Control_c, 1, 7, 80
3, 107279, Control_c, 1, 7, 80
3, 107294, Control_c, 1, 7, 79
3, 107294, Control_c, 1, 7, 79
3, 107309, Control_c, 1, 7, 78
3, 107309, Control_c, 1, 7, 78
3, 107324, Control_c, 1, 7, 77
3, 107324, Control_c, 1, 7, 77
3, 107339, Control_c, 1, 7, 76
3, 107339, Control_c, 1, 7, 76
3, 107354, Control_c, 1, 7, 75
3, 107354, Control_c, 1, 7, 75
3, 107369, Control_c, 1, 7, 74
3, 107369, Control_c, 1, 7, 74
3, 107384, Control_c, 1, 7, 73
3, 107384, Control_c, 1, 7, 73
3, 107399, Control_c, 1, 7, 72
3, 107399, Control_c, 1, 7, 72
3, 107414, Control_c, 1, 7, 71
3, 107414, Control_c, 1, 7, 71
3, 107429, Control_c, 1, 7, 70
3, 107429, Control_c, 1, 7, 70
3, 107444, Control_c, 1, 7, 69
3, 107444, Control_c, 1, 7, 69
3, 107459, Control_c, 1, 7, 68
3, 107459, Control_c, 1, 7, 68
3, 107474, Control_c, 1, 7, 67
3, 107474, Control_c, 1, 7, 67
3, 107489, Control_c, 1, 7, 66
3, 107489, Control_c, 1, 7, 66
3, 107504, Control_c, 1, 7, 65
3, 107504, Control_c, 1, 7, 65
3, 107519, Control_c, 1, 7, 64
3, 107519, Control_c, 1, 7, 64
3, 108000, Control_c, 1, 7, 64
3, 108000, Control_c, 1, 7, 64
3, 108029, Control_c, 1, 7, 65
3, 108029, Control_c, 1, 7, 65
3, 108059, Control_c, 1, 7, 66
3, 108059, Control_c, 1, 7, 66
3, 108089, Control_c, 1, 7, 67
3, 108089, Control_c, 1, 7, 67
3, 108119, Control_c, 1, 7, 68
3, 108119, Control_c, 1, 7, 68
3, 108149, Control_c, 1, 7, 69
3, 108149, Control_c, 1, 7, 69
3, 108179, Control_c, 1, 7, 70
3, 108179, Control_c, 1, 7, 70
3, 108209, Control_c, 1, 7, 71
3, 108209, Control_c, 1, 7, 71
3, 108239, Control_c, 1, 7, 72
3, 108239, Control_c, 1, 7, 72
3, 108269, Control_c, 1, 7, 73
3, 108269, Control_c, 1, 7, 73
3, 108299, Control_c, 1, 7, 74
3, 108299, Control_c, 1, 7, 74
3, 108329, Control_c, 1, 7, 75
3, 108329, Control_c, 1, 7, 75
3, 108359, Control_c, 1, 7, 76
3, 108359, Control_c, 1, 7, 76
3, 108389, Control_c, 1, 7, 77
3, 108389, Control_c, 1, 7, 77
3, 108419, Control_c, 1, 7, 78
3, 108419, Control_c, 1, 7, 78
3, 108449, Control_c, 1, 7, 79
3, 108449, Control_c, 1, 7, 79
3, 108479, Control_c, 1, 7, 80
3, 108479, Control_c, 1, 7, 80
3, 108509, Control_c, 1, 7, 81
3, 108509, Control_c, 1, 7, 81
3, 108539, Control_c, 1, 7, 82
3, 108539, Control_c, 1, 7, 82
3, 108569, Control_c, 1, 7, 83
3, 108569, Control_c, 1, 7, 83
3, 108599, Control_c, 1, 7, 84
3, 108599, Control_c, 1, 7, 84
3, 108629, Control_c, 1, 7, 85
3, 108629, Control_c, 1, 7, 85
3, 108659, Control_c, 1, 7, 86
3, 108659, Control_c, 1, 7, 86
3, 108689, Control_c, 1, 7, 87
3, 108689, Control_c, 1, 7, 87
3, 108719, Control_c, 1, 7, 88
3, 108719, Control_c, 1, 7, 88
3, 108749, Control_c, 1, 7, 89
3, 108749, Control_c, 1, 7, 89
3, 108779, Control_c, 1, 7, 90
3, 108779, Control_c, 1, 7, 90
3, 108809, Control_c, 1, 7, 91
3, 108809, Control_c, 1, 7, 91
3, 108839, Control_c, 1, 7, 92
3, 108839, Control_c, 1, 7, 92
3, 108869, Control_c, 1, 7, 93
3, 108869, Control_c, 1, 7, 93
3, 108899, Control_c, 1, 7, 94
3, 108899, Control_c, 1, 7, 94
3, 108929, Control_c, 1, 7, 95
3, 108929, Control_c, 1, 7, 95
3, 108959, Control_c, 1, 7, 96
3, 108959, Control_c, 1, 7, 96
3, 108960, Control_c, 1, 7, 96
3, 108960, Control_c, 1, 7, 96
3, 108974, Control_c, 1, 7, 95
3, 108974, Control_c, 1, 7, 95
3, 108989, Control_c, 1, 7, 94
3, 108989, Control_c, 1, 7, 94
3, 109004, Control_c, 1, 7, 93
3, 109004, Control_c, 1, 7, 93
3, 109019, Control_c, 1, 7, 92
3, 109019, Control_c, 1, 7, 92
3, 109034, Control_c, 1, 7, 91
3, 109034, Control_c, 1, 7, 91
3, 109049, Control_c, 1, 7, 90
3, 109049, Control_c, 1, 7, 90
3, 109064, Control_c, 1, 7, 89
3, 109064, Control_c, 1, 7, 89
3, 109079, Control_c, 1, 7, 88
3, 109079, Control_c, 1, 7, 88
3, 109094, Control_c, 1, 7, 87
3, 109094, Control_c, 1, 7, 87
3, 109109, Control_c, 1, 7, 86
3, 109109, Control_c, 1, 7, 86
3, 109124, Control_c, 1, 7, 85
3, 109124, Control_c, 1, 7, 85
3, 109139, Control_c, 1, 7, 84
3, 109139, Control_c, 1, 7, 84
3, 109154, Control_c, 1, 7, 83
3, 109154, Control_c, 1, 7, 83
3, 109169, Control_c, 1, 7, 82
3, 109169, Control_c, 1, 7, 82
3, 109184, Control_c, 1, 7, 81
3, 109184, Control_c, 1, 7, 81
3, 109199, Control_c, 1, 7, 80
3, 109199, Control_c, 1, 7, 80
3, 109214, Control_c, 1, 7, 79
3, 109214, Control_c, 1, 7, 79
3, 109229, Control_c, 1, 7, 78
3, 109229, Control_c, 1, 7, 78
3, 109244, Control_c, 1, 7, 77
3, 109244, Control_c, 1, 7, 77
3, 109259, Control_c, 1, 7, 76
3, 109259, Control_c, 1, 7, 76
3, 109274, Control_c, 1, 7, 75
3, 109274, Control_c, 1, 7, 75
3, 109289, Control_c, 1, 7, 74
3, 109289, Control_c, 1, 7, 74
3, 109304, Control_c, 1, 7, 73
3, 109304, Control_c, 1, 7, 73
3, 109319, Control_c, 1, 7, 72
3, 109319, Control_c, 1, 7, 72
3, 109334, Control_c, 1, 7, 71
3, 109334, Control_c, 1, 7, 71
3, 109349, Control_c, 1, 7, 70
3, 109349, Control_c, 1, 7, 70
3, 109364, Control_c, 1, 7, 69
3, 109364, Control_c, 1, 7, 69
3, 109379, Control_c, 1, 7, 68
3, 109379, Control_c, 1, 7, 68
3, 109394, Control_c, 1, 7, 67
3, 109394, Control_c, 1, 7, 67
3, 109409, Control_c, 1, 7, 66
3, 109409, Control_c, 1, 7, 66
3, 109424, Control_c, 1, 7, 65
3, 109424, Control_c, 1, 7, 65
3, 109439, Control_c, 1, 7, 64
3, 109439, Control_c, 1, 7, 64
3, 109440, Note_on_c, 1, 74, 76
3, 109800, Note_on_c, 1, 74, 0
3, 109800, Note_on_c, 1, 78, 88
3, 109896, Note_on_c, 1, 78, 0
3, 109920, Note_on_c, 1, 76, 91
3, 109920, Control_c, 1, 7, 64
3, 109920, Control_c, 1, 7, 64
3, 109949, Control_c, 1, 7, 65
3, 109949, Control_c, 1, 7, 65
3, 109979, Control_c, 1, 7, 66
3, 109979, Control_c, 1, 7, 66
3, 110009, Control_c, 1, 7, 67
3, 110009, Control_c, 1, 7, 67
3, 110039, Control_c, 1, 7, 68
3, 110039, Control_c, 1, 7, 68
3, 110040, Note_on_c, 1, 76, 0
3, 110040, Note_on_c, 1, 73, 94
3, 110069, Control_c, 1, 7, 69
3, 110069, Control_c, 1, 7, 69
3, 110099, Control_c, 1, 7, 70
3, 110099, Control_c, 1, 7, 70
3, 110129, Control_c, 1, 7, 71
3, 110129, Control_c, 1, 7, 71
3, 110159, Control_c, 1, 7, 72
3, 110159, Control_c, 1, 7, 72
3, 110160, Note_on_c, 1, 73, 0
3, 110160, Note_on_c, 1, 71, 95
3, 110189, Control_c, 1, 7, 73
3, 110189, Control_c, 1, 7, 73
3, 110219, Control_c, 1, 7, 74
3, 110219, Control_c, 1, 7, 74
3, 110249, Control_c, 1, 7, 75
3, 110249, Control_c, 1, 7, 75
3, 110279, Control_c, 1, 7, 76
3, 110279, Control_c, 1, 7, 76
3, 110280, Note_on_c, 1, 71, 0
3, 110280, Note_on_c, 1, 69, 98
3, 110309, Control_c, 1, 7, 77
3, 110309, Control_c, 1, 7, 77
3, 110339, Control_c, 1, 7, 78
3, 110339, Control_c, 1, 7, 78
3, 110369, Control_c, 1, 7, 79
3, 110369, Control_c, 1, 7, 79
3, 110399, Control_c, 1, 7, 80
3, 110399, Control_c, 1, 7, 80
3, 110400, Note_on_c, 1, 69, 0
3, 110400, Note_on_c, 1, 81, 100
3, 110429, Control_c, 1, 7, 81
3, 110429, Control_c, 1, 7, 81
3, 110459, Control_c, 1, 7, 82
3, 110459, Control_c, 1, 7, 82
3, 110489, Control_c, 1, 7, 83
3, 110489, Control_c, 1, 7, 83
3, 110519, Control_c, 1, 7, 84
3, 110519, Control_c, 1, 7, 84
3, 110520, Note_on_c, 1, 81, 0
3, 110549, Control_c, 1, 7, 85
3, 110549, Control_c, 1, 7, 85
3, 110579, Control_c, 1, 7, 86
3, 110579, Control_c, 1, 7, 86
3, 110609, Control_c, 1, 7, 87
3, 110609, Control_c, 1, 7, 87
3, 110639, Control_c, 1, 7, 88
3, 110639, Control_c, 1, 7, 88
3, 110640, Note_on_c, 1, 81, 108
3, 110669, Control_c, 1, 7, 89
3, 110669, Control_c, 1, 7, 89
3, 110699, Control_c, 1, 7, 90
3, 110699, Control_c, 1, 7, 90
3, 110729, Control_c, 1, 7, 91
3, 110729, Control_c, 1, 7, 91
3, 110759, Control_c, 1, 7, 92
3, 110759, Control_c, 1, 7, 92
3, 110760, Note_on_c, 1, 81, 0
3, 110789, Control_c, 1, 7, 93
3, 110789, Control_c, 1, 7, 93
3, 110819, Control_c, 1, 7, 94
3, 110819, Control_c, 1, 7, 94
3, 110849, Control_c, 1, 7, 95
3, 110849, Control_c, 1, 7, 95
3, 110879, Control_c, 1, 7, 96
3, 110879, Control_c, 1, 7, 96
3, 110880, Note_on_c, 1, 81, 98
3, 110880, Control_c, 1, 7, 96
3, 110880, Control_c, 1, 7, 96
3, 110894, Control_c, 1, 7, 95
3, 110894, Control_c, 1, 7, 95
3, 110909, Control_c, 1, 7, 94
3, 110909, Control_c, 1, 7, 94
3, 110924, Control_c, 1, 7, 93
3, 110924, Control_c, 1, 7, 93
3, 110939, Control_c, 1, 7, 92
3, 110939, Control_c, 1, 7, 92
3, 110954, Control_c, 1, 7, 91
3, 110954, Control_c, 1, 7, 91
3, 110969, Control_c, 1, 7, 90
3, 110969, Control_c, 1, 7, 90
3, 110984, Control_c, 1, 7, 89
3, 110984, Control_c, 1, 7, 89
3, 110999, Control_c, 1, 7, 88
3, 110999, Control_c, 1, 7, 88
3, 111014, Control_c, 1, 7, 87
3, 111014, Control_c, 1, 7, 87
3, 111029, Control_c, 1, 7, 86
3, 111029, Control_c, 1, 7, 86
3, 111044, Control_c, 1, 7, 85
3, 111044, Control_c, 1, 7, 85
3, 111059, Control_c, 1, 7, 84
3, 111059, Control_c, 1, 7, 84
3, 111074, Control_c, 1, 7, 83
3, 111074, Control_c, 1, 7, 83
3, 111089, Control_c, 1, 7, 82
3, 111089, Control_c, 1, 7, 82
3, 111104, Control_c, 1, 7, 81
3, 111104, Control_c, 1, 7, 81
3, 111119, Control_c, 1, 7, 80
3, 111119, Control_c, 1, 7, 80
3, 111120, Note_on_c, 1, 81, 0
3, 111120, Note_on_c, 1, 78, 90
3, 111134, Control_c, 1, 7, 79
3, 111134, Control_c, 1, 7, 79
3, 111149, Control_c, 1, 7, 78
3, 111149, Control_c, 1, 7, 78
3, 111164, Control_c, 1, 7, 77
3, 111164, Control_c, 1, 7, 77
3, 111179, Control_c, 1, 7, 76
3, 111179, Control_c, 1, 7, 76
3, 111194, Control_c, 1, 7, 75
3, 111194, Control_c, 1, 7, 75
3, 111209, Control_c, 1, 7, 74
3, 111209, Control_c, 1, 7, 74
3, 111216, Note_on_c, 1, 78, 0
3, 111224, Control_c, 1, 7, 73
3, 111224, Control_c, 1, 7, 73
3, 111239, Control_c, 1, 7, 72
3, 111239, Control_c, 1, 7, 72
3, 111254, Control_c, 1, 7, 71
3, 111254, Control_c, 1, 7, 71
3, 111269, Control_c, 1, 7, 70
3, 111269, Control_c, 1, 7, 70
3, 111284, Control_c, 1, 7, 69
3, 111284, Control_c, 1, 7, 69
3, 111299, Control_c, 1, 7, 68
3, 111299, Control_c, 1, 7, 68
3, 111314, Control_c, 1, 7, 67
3, 111314, Control_c, 1, 7, 67
3, 111329, Control_c, 1, 7, 66
3, 111329, Control_c, 1, 7, 66
3, 111344, Control_c, 1, 7, 65
3, 111344, Control_c, 1, 7, 65
3, 111359, Control_c, 1, 7, 64
3, 111359, Control_c, 1, 7, 64
3, 111840, Note_on_c, 1, 76, 105
3, 111840, Control_c, 1, 7, 64
3, 111840, Control_c, 1, 7, 64
3, 111869, Control_c, 1, 7, 65
3, 111869, Control_c, 1, 7, 65
3, 111899, Control_c, 1, 7, 66
3, 111899, Control_c, 1, 7, 66
3, 111929, Control_c, 1, 7, 67
3, 111929, Control_c, 1, 7, 67
3, 111959, Control_c, 1, 7, 68
3, 111959, Control_c, 1, 7, 68
3, 111960, Note_on_c, 1, 76, 0
3, 111960, Note_on_c, 1, 79, 98
3, 111989, Control_c, 1, 7, 69
3, 111989, Control_c, 1, 7, 69
3, 112019, Control_c, 1, 7, 70
3, 112019, Control_c, 1, 7, 70
3, 112049, Control_c, 1, 7, 71
3, 112049, Control_c, 1, 7, 71
3, 112079, Control_c, 1, 7, 72
3, 112079, Control_c, 1, 7, 72
3, 112080, Note_on_c, 1, 79, 0
3, 112080, Note_on_c, 1, 83, 94
3, 112109, Control_c, 1, 7, 73
3, 112109, Control_c, 1, 7, 73
3, 112139, Control_c, 1, 7, 74
3, 112139, Control_c, 1, 7, 74
3, 112169, Control_c, 1, 7, 75
3, 112169, Control_c, 1, 7, 75
3, 112176, Note_on_c, 1, 83, 0
3, 112199, Control_c, 1, 7, 76
3, 112199, Control_c, 1, 7, 76
3, 112200, Note_on_c, 1, 83, 92
3, 112229, Control_c, 1, 7, 77
3, 112229, Control_c, 1, 7, 77
3, 112259, Control_c, 1, 7, 78
3, 112259, Control_c, 1, 7, 78
3, 112289, Control_c, 1, 7, 79
3, 112289, Control_c, 1, 7, 79
3, 112296, Note_on_c, 1, 83, 0
3, 112319, Control_c, 1, 7, 80
3, 112319, Control_c, 1, 7, 80
3, 112320, Note_on_c, 1, 79, 90
3, 112349, Control_c, 1, 7, 81
3, 112349, Control_c, 1, 7, 81
3, 112379, Control_c, 1, 7, 82
3, 112379, Control_c, 1, 7, 82
3, 112409, Control_c, 1, 7, 83
3, 112409, Control_c, 1, 7, 83
3, 112439, Control_c, 1, 7, 84
3, 112439, Control_c, 1, 7, 84
3, 112440, Note_on_c, 1, 79, 0
3, 112440, Note_on_c, 1, 76, 88
3, 112469, Control_c, 1, 7, 85
3, 112469, Control_c, 1, 7, 85
3, 112499, Control_c, 1, 7, 86
3, 112499, Control_c, 1, 7, 86
3, 112529, Control_c, 1, 7, 87
3, 112529, Control_c, 1, 7, 87
3, 112559, Control_c, 1, 7, 88
3, 112559, Control_c, 1, 7, 88
3, 112560, Note_on_c, 1, 76, 0
3, 112560, Note_on_c, 1, 73, 86
3, 112589, Control_c, 1, 7, 89
3, 112589, Control_c, 1, 7, 89
3, 112619, Control_c, 1, 7, 90
3, 112619, Control_c, 1, 7, 90
3, 112649, Control_c, 1, 7, 91
3, 112649, Control_c, 1, 7, 91
3, 112656, Note_on_c, 1, 73, 0
3, 112679, Control_c, 1, 7, 92
3, 112679, Control_c, 1, 7, 92
3, 112680, Note_on_c, 1, 73, 82
3, 112709, Control_c, 1, 7, 93
3, 112709, Control_c, 1, 7, 93
3, 112739, Control_c, 1, 7, 94
3, 112739, Control_c, 1, 7, 94
3, 112769, Control_c, 1, 7, 95
3, 112769, Control_c, 1, 7, 95
3, 112776, Note_on_c, 1, 73, 0
3, 112799, Control_c, 1, 7, 96
3, 112799, Control_c, 1, 7, 96
3, 114720, Control_c, 1, 7, 48
3, 114792, Control_c, 1, 7, 49
3, 114865, Control_c, 1, 7, 50
3, 114938, Control_c, 1, 7, 51
3, 115011, Control_c, 1, 7, 52
3, 115084, Control_c, 1, 7, 53
3, 115157, Control_c, 1, 7, 54
3, 115230, Control_c, 1, 7, 55
3, 115303, Control_c, 1, 7, 56
3, 115376, Control_c, 1, 7, 57
3, 115448, Control_c, 1, 7, 58
3, 115521, Control_c, 1, 7, 59
3, 115594, Control_c, 1, 7, 60
3, 115667, Control_c, 1, 7, 61
3, 115740, Control_c, 1, 7, 62
3, 115813, Control_c, 1, 7, 63
3, 115886, Control_c, 1, 7, 64
3, 115959, Control_c, 1, 7, 65
3, 116032, Control_c, 1, 7, 66
3, 116105, Control_c, 1, 7, 67
3, 116177, Control_c, 1, 7, 68
3, 116250, Control_c, 1, 7, 69
3, 116323, Control_c, 1, 7, 70
3, 116396, Control_c, 1, 7, 71
3, 116469, Control_c, 1, 7, 72
3, 116542, Control_c, 1, 7, 73
3, 116615, Control_c, 1, 7, 74
3, 116640, Note_on_c, 1, 74, 84
3, 116640, Note_on_c, 1, 74, 84
3, 116688, Control_c, 1, 7, 75
3, 116761, Control_c, 1, 7, 76
3, 116834, Control_c, 1, 7, 77
3, 116906, Control_c, 1, 7, 78
3, 116979, Control_c, 1, 7, 79
3, 117052, Control_c, 1, 7, 80
3, 117125, Control_c, 1, 7, 81
3, 117198, Control_c, 1, 7, 82
3, 117271, Control_c, 1, 7, 83
3, 117344, Control_c, 1, 7, 84
3, 117360, Note_on_c, 1, 74, 0
3, 117360, Note_on_c, 1, 74, 0
3, 117360, Note_on_c, 1, 73, 104
3, 117360, Note_on_c, 1, 76, 104
3, 117417, Control_c, 1, 7, 85
3, 117490, Control_c, 1, 7, 86
3, 117563, Control_c, 1, 7, 87
3, 117600, Note_on_c, 1, 76, 0
3, 117600, Note_on_c, 1, 73, 0
3, 117600, Note_on_c, 1, 74, 104
3, 117600, Note_on_c, 1, 78, 104
3, 117635, Control_c, 1, 7, 88
3, 117708, Control_c, 1, 7, 89
3, 117781, Control_c, 1, 7, 90
3, 117854, Control_c, 1, 7, 91
3, 117927, Control_c, 1, 7, 92
3, 118000, Control_c, 1, 7, 93
3, 118073, Control_c, 1, 7, 94
3, 118146, Control_c, 1, 7, 95
3, 118219, Control_c, 1, 7, 96
3, 118292, Control_c, 1, 7, 97
3, 118320, Note_on_c, 1, 78, 0
3, 118320, Note_on_c, 1, 74, 0
3, 118320, Note_on_c, 1, 76, 102
3, 118320, Note_on_c, 1, 79, 102
3, 118364, Control_c, 1, 7, 98
3, 118437, Control_c, 1, 7, 99
3, 118510, Control_c, 1, 7, 100
3, 118560, Note_on_c, 1, 79, 0
3, 118560, Note_on_c, 1, 76, 0
3, 118560, Note_on_c, 1, 78, 102
3, 118560, Note_on_c, 1, 81, 102
3, 118583, Control_c, 1, 7, 101
3, 118656, Control_c, 1, 7, 102
3, 118729, Control_c, 1, 7, 103
3, 118802, Control_c, 1, 7, 104
3, 118875, Control_c, 1, 7, 105
3, 118948, Control_c, 1, 7, 106
3, 119021, Control_c, 1, 7, 107
3, 119093, Control_c, 1, 7, 108
3, 119166, Control_c, 1, 7, 109
3, 119239, Control_c, 1, 7, 110
3, 119312, Control_c, 1, 7, 111
3, 119385, Control_c, 1, 7, 112
3, 119458, Control_c, 1, 7, 113
3, 119520, Note_on_c, 1, 81, 0
3, 119520, Note_on_c, 1, 78, 0
3, 119520, Note_on_c, 1, 79, 101
3, 119520, Note_on_c, 1, 79, 101
3, 119531, Control_c, 1, 7, 114
3, 119604, Control_c, 1, 7, 115
3, 119677, Control_c, 1, 7, 116
3, 119750, Control_c, 1, 7, 117
3, 119760, Note_on_c, 1, 79, 0
3, 119760, Note_on_c, 1, 79, 0
3, 119760, Note_on_c, 1, 78, 101
3, 119760, Note_on_c, 1, 81, 101
3, 119822, Control_c, 1, 7, 118
3, 119895, Control_c, 1, 7, 119
3, 119968, Control_c, 1, 7, 120
3, 120000, Note_on_c, 1, 81, 0
3, 120000, Note_on_c, 1, 78, 0
3, 120000, Note_on_c, 1, 79, 101
3, 120000, Note_on_c, 1, 83, 101
3, 120041, Control_c, 1, 7, 121
3, 120114, Control_c, 1, 7, 122
3, 120187, Control_c, 1, 7, 123
3, 120216, Note_on_c, 1, 83, 0
3, 120216, Note_on_c, 1, 79, 0
3, 120240, Note_on_c, 1, 76, 101
3, 120240, Note_on_c, 1, 79, 101
3, 120260, Control_c, 1, 7, 124
3, 120333, Control_c, 1, 7, 125
3, 120406, Control_c, 1, 7, 126
3, 120456, Note_on_c, 1, 79, 0
3, 120456, Note_on_c, 1, 76, 0
3, 120479, Control_c, 1, 7, 127
3, 120480, Note_on_c, 1, 74, 101
3, 120480, Note_on_c, 1, 78, 101
3, 120696, Note_on_c, 1, 78, 0
3, 120696, Note_on_c, 1, 74, 0
3, 120840, Note_on_c, 1, 71, 87
3, 120840, Note_on_c, 1, 83, 87
3, 120948, Note_on_c, 1, 83, 0
3, 120948, Note_on_c, 1, 71, 0
3, 120960, Note_on_c, 1, 69, 101
3, 120960, Note_on_c, 1, 81, 101
3, 121068, Note_on_c, 1, 81, 0
3, 121068, Note_on_c, 1, 69, 0
3, 121080, Note_on_c, 1, 66, 86
3, 121080, Note_on_c, 1, 78, 86
3, 121188, Note_on_c, 1, 78, 0
3, 121188, Note_on_c, 1, 66, 0
3, 121320, Note_on_c, 1, 71, 86
3, 121320, Note_on_c, 1, 83, 86
3, 121428, Note_on_c, 1, 83, 0
3, 121428, Note_on_c, 1, 71, 0
3, 121440, Note_on_c, 1, 69, 101
3, 121440, Note_on_c, 1, 81, 101
3, 121548, Note_on_c, 1, 81, 0
3, 121548, Note_on_c, 1, 69, 0
3, 121560, Note_on_c, 1, 66, 88
3, 121560, Note_on_c, 1, 78, 88
3, 121668, Note_on_c, 1, 78, 0
3, 121668, Note_on_c, 1, 66, 0
3, 121800, Note_on_c, 1, 71, 88
3, 121800, Note_on_c, 1, 83, 88
3, 121908, Note_on_c, 1, 83, 0
3, 121908, Note_on_c, 1, 71, 0
3, 121920, Note_on_c, 1, 69, 101
3, 121920, Note_on_c, 1, 81, 101
3, 122028, Note_on_c, 1, 81, 0
3, 122028, Note_on_c, 1, 69, 0
3, 122040, Note_on_c, 1, 66, 89
3, 122040, Note_on_c, 1, 78, 89
3, 122148, Note_on_c, 1, 78, 0
3, 122148, Note_on_c, 1, 66, 0
3, 122160, Note_on_c, 1, 69, 98
3, 122160, Note_on_c, 1, 81, 98
3, 122268, Note_on_c, 1, 81, 0
3, 122268, Note_on_c, 1, 69, 0
3, 122280, Note_on_c, 1, 71, 103
3, 122280, Note_on_c, 1, 83, 103
3, 122388, Note_on_c, 1, 83, 0
3, 122388, Note_on_c, 1, 71, 0
3, 122400, Note_on_c, 1, 69, 108
3, 122400, Note_on_c, 1, 81, 108
3, 122616, Note_on_c, 1, 81, 0
3, 122616, Note_on_c, 1, 69, 0
3, 122760, Note_on_c, 1, 76, 100
3, 122760, Note_on_c, 1, 73, 100
3, 122880, Note_on_c, 1, 74, 111
3, 122880, Note_on_c, 1, 78, 111
3, 122890, Note_on_c, 1, 73, 0
3, 122890, Note_on_c, 1, 76, 0
3, 122988, Note_on_c, 1, 74, 0
3, 122988, Note_on_c, 1, 78, 0
3, 123000, Note_on_c, 1, 74, 98
3, 123000, Note_on_c, 1, 78, 98
3, 123096, Note_on_c, 1, 78, 0
3, 123096, Note_on_c, 1, 74, 0
3, 123240, Note_on_c, 1, 76, 99
3, 123240, Note_on_c, 1, 73, 99
3, 123360, Note_on_c, 1, 74, 111
3, 123360, Note_on_c, 1, 78, 111
3, 123370, Note_on_c, 1, 73, 0
3, 123370, Note_on_c, 1, 76, 0
3, 123468, Note_on_c, 1, 74, 0
3, 123468, Note_on_c, 1, 78, 0
3, 123480, Note_on_c, 1, 78, 99
3, 123480, Note_on_c, 1, 74, 99
3, 123576, Note_on_c, 1, 74, 0
3, 123576, Note_on_c, 1, 78, 0
3, 123720, Note_on_c, 1, 76, 99
3, 123720, Note_on_c, 1, 73, 99
3, 123840, Note_on_c, 1, 74, 111
3, 123840, Note_on_c, 1, 78, 111
3, 123850, Note_on_c, 1, 73, 0
3, 123850, Note_on_c, 1, 76, 0
3, 123948, Note_on_c, 1, 74, 0
3, 123948, Note_on_c, 1, 78, 0
3, 123960, Note_on_c, 1, 73, 98
3, 123960, Note_on_c, 1, 76, 98
3, 124068, Note_on_c, 1, 76, 0
3, 124068, Note_on_c, 1, 73, 0
3, 124080, Note_on_c, 1, 74, 104
3, 124080, Note_on_c, 1, 78, 104
3, 124188, Note_on_c, 1, 78, 0
3, 124188, Note_on_c, 1, 74, 0
3, 124200, Note_on_c, 1, 73, 110
3, 124200, Note_on_c, 1, 76, 110
3, 124320, Note_on_c, 1, 74, 111
3, 124320, Note_on_c, 1, 78, 111
3, 124330, Note_on_c, 1, 76, 0
3, 124330, Note_on_c, 1, 73, 0
3, 124440, Note_on_c, 1, 74, 0
3, 124440, Note_on_c, 1, 78, 0
3, 125280, Note_on_c, 1, 86, 102
3, 125340, Note_on_c, 1, 85, 96
3, 125360, Note_on_c, 1, 86, 0
3, 125400, Note_on_c, 1, 83, 92
3, 125420, Note_on_c, 1, 85, 0
3, 125460, Note_on_c, 1, 81, 86
3, 125472, Note_on_c, 1, 83, 0
3, 125520, Note_on_c, 1, 79, 81
3, 125532, Note_on_c, 1, 81, 0
3, 125580, Note_on_c, 1, 78, 75
3, 125592, Note_on_c, 1, 79, 0
3, 125640, Note_on_c, 1, 76, 72
3, 125652, Note_on_c, 1, 78, 0
3, 125700, Note_on_c, 1, 74, 68
3, 125726, Note_on_c, 1, 76, 0
3, 125760, Note_on_c, 1, 76, 109
3, 125760, Note_on_c, 1, 79, 109
3, 125786, Note_on_c, 1, 74, 0
3, 125820, Note_on_c, 1, 74, 104
3, 125820, Note_on_c, 1, 78, 104
3, 125840, Note_on_c, 1, 79, 0
3, 125840, Note_on_c, 1, 76, 0
3, 125880, Note_on_c, 1, 76, 100
3, 125880, Note_on_c, 1, 73, 100
3, 125900, Note_on_c, 1, 74, 0
3, 125900, Note_on_c, 1, 78, 0
3, 125940, Note_on_c, 1, 71, 94
3, 125940, Note_on_c, 1, 74, 94
3, 125952, Note_on_c, 1, 76, 0
3, 125952, Note_on_c, 1, 73, 0
3, 126000, Note_on_c, 1, 69, 91
3, 126000, Note_on_c, 1, 73, 91
3, 126012, Note_on_c, 1, 71, 0
3, 126012, Note_on_c, 1, 74, 0
3, 126060, Note_on_c, 1, 67, 87
3, 126060, Note_on_c, 1, 71, 87
3, 126072, Note_on_c, 1, 69, 0
3, 126072, Note_on_c, 1, 73, 0
3, 126120, Note_on_c, 1, 66, 83
3, 126120, Note_on_c, 1, 69, 83
3, 126132, Note_on_c, 1, 67, 0
3, 126132, Note_on_c, 1, 71, 0
3, 126180, Note_on_c, 1, 64, 76
3, 126180, Note_on_c, 1, 67, 76
3, 126206, Note_on_c, 1, 66, 0
3, 126206, Note_on_c, 1, 69, 0
3, 126239, Note_on_c, 1, 64, 0
3, 126240, Note_on_c, 1, 62, 72
3, 126240, Note_on_c, 1, 66, 72
3, 126266, Note_on_c, 1, 67, 0
3, 126348, Note_on_c, 1, 62, 0
3, 126360, Note_on_c, 1, 66, 0
3, 126480, Note_on_c, 1, 78, 106
3, 126480, Note_on_c, 1, 74, 106
3, 126588, Note_on_c, 1, 74, 0
3, 126588, Note_on_c, 1, 78, 0
3, 126720, Note_on_c, 1, 71, 106
3, 126720, Note_on_c, 1, 79, 106
3, 126853, Note_on_c, 1, 79, 0
3, 126853, Note_on_c, 1, 71, 0
3, 126960, Note_on_c, 1, 73, 105
3, 126960, Note_on_c, 1, 76, 105
3, 127080, Note_on_c, 1, 76, 0
3, 127080, Note_on_c, 1, 73, 0
3, 127200, Note_on_c, 1, 74, 105
3, 127200, Note_on_c, 1, 78, 105
3, 127373, Note_on_c, 1, 78, 0
3, 127373, Note_on_c, 1, 74, 0
3, 127560, Note_on_c, 1, 71, 93
3, 127560, Note_on_c, 1, 83, 93
3, 127663, Note_on_c, 1, 83, 0
3, 127663, Note_on_c, 1, 71, 0
3, 127680, Note_on_c, 1, 69, 105
3, 127680, Note_on_c, 1, 81, 105
3, 127775, Note_on_c, 1, 81, 0
3, 127775, Note_on_c, 1, 69, 0
3, 127800, Note_on_c, 1, 66, 91
3, 127800, Note_on_c, 1, 78, 91
3, 127886, Note_on_c, 1, 78, 0
3, 127886, Note_on_c, 1, 66, 0
3, 128040, Note_on_c, 1, 71, 91
3, 128040, Note_on_c, 1, 83, 91
3, 128143, Note_on_c, 1, 83, 0
3, 128143, Note_on_c, 1, 71, 0
3, 128160, Note_on_c, 1, 69, 107
3, 128160, Note_on_c, 1, 81, 107
3, 128255, Note_on_c, 1, 81, 0
3, 128255, Note_on_c, 1, 69, 0
3, 128280, Note_on_c, 1, 66, 88
3, 128280, Note_on_c, 1, 78, 88
3, 128366, Note_on_c, 1, 78, 0
3, 128366, Note_on_c, 1, 66, 0
3, 128520, Note_on_c, 1, 71, 89
3, 128520, Note_on_c, 1, 83, 89
3, 128623, Note_on_c, 1, 83, 0
3, 128623, Note_on_c, 1, 71, 0
3, 128640, Note_on_c, 1, 69, 104
3, 128640, Note_on_c, 1, 81, 104
3, 128735, Note_on_c, 1, 81, 0
3, 128735, Note_on_c, 1, 69, 0
3, 128760, Note_on_c, 1, 66, 91
3, 128760, Note_on_c, 1, 78, 91
3, 128846, Note_on_c, 1, 78, 0
3, 128846, Note_on_c, 1, 66, 0
3, 128880, Note_on_c, 1, 69, 104
3, 128880, Note_on_c, 1, 81, 104
3, 128966, Note_on_c, 1, 81, 0
3, 128966, Note_on_c, 1, 69, 0
3, 129000, Note_on_c, 1, 71, 111
3, 129000, Note_on_c, 1, 83, 111
3, 129103, Note_on_c, 1, 83, 0
3, 129103, Note_on_c, 1, 71, 0
3, 129120, Note_on_c, 1, 69, 111
3, 129120, Note_on_c, 1, 81, 111
3, 129293, Note_on_c, 1, 81, 0
3, 129293, Note_on_c, 1, 69, 0
3, 129481, Note_on_c, 1, 76, 88
3, 129481, Note_on_c, 1, 73, 88
3, 129601, Note_on_c, 1, 74, 111
3, 129601, Note_on_c, 1, 78, 111
3, 129611, Note_on_c, 1, 73, 0
3, 129611, Note_on_c, 1, 76, 0
3, 129709, Note_on_c, 1, 74, 0
3, 129709, Note_on_c, 1, 78, 0
3, 129721, Note_on_c, 1, 74, 85
3, 129721, Note_on_c, 1, 78, 85
3, 129817, Note_on_c, 1, 78, 0
3, 129817, Note_on_c, 1, 74, 0
3, 129961, Note_on_c, 1, 76, 102
3, 129961, Note_on_c, 1, 73, 102
3, 130081, Note_on_c, 1, 74, 111
3, 130081, Note_on_c, 1, 78, 111
3, 130091, Note_on_c, 1, 73, 0
3, 130091, Note_on_c, 1, 76, 0
3, 130189, Note_on_c, 1, 74, 0
3, 130189, Note_on_c, 1, 78, 0
3, 130201, Note_on_c, 1, 78, 102
3, 130201, Note_on_c, 1, 74, 102
3, 130297, Note_on_c, 1, 74, 0
3, 130297, Note_on_c, 1, 78, 0
3, 130441, Note_on_c, 1, 76, 102
3, 130441, Note_on_c, 1, 73, 102
3, 130561, Note_on_c, 1, 74, 111
3, 130561, Note_on_c, 1, 78, 111
3, 130571, Note_on_c, 1, 73, 0
3, 130571, Note_on_c, 1, 76, 0
3, 130669, Note_on_c, 1, 74, 0
3, 130669, Note_on_c, 1, 78, 0
3, 130681, Note_on_c, 1, 73, 94
3, 130681, Note_on_c, 1, 76, 94
3, 130789, Note_on_c, 1, 76, 0
3, 130789, Note_on_c, 1, 73, 0
3, 130801, Note_on_c, 1, 74, 103
3, 130801, Note_on_c, 1, 78, 103
3, 130909, Note_on_c, 1, 78, 0
3, 130909, Note_on_c, 1, 74, 0
3, 130921, Note_on_c, 1, 73, 108
3, 130921, Note_on_c, 1, 76, 108
3, 131041, Note_on_c, 1, 74, 111
3, 131041, Note_on_c, 1, 78, 111
3, 131051, Note_on_c, 1, 76, 0
3, 131051, Note_on_c, 1, 73, 0
3, 131161, Note_on_c, 1, 74, 0
3, 131161, Note_on_c, 1, 78, 0
3, 132000, Note_on_c, 1, 86, 102
3, 132060, Note_on_c, 1, 86, 0
3, 132060, Note_on_c, 1, 85, 98
3, 132120, Note_on_c, 1, 85, 0
3, 132120, Note_on_c, 1, 83, 94
3, 132180, Note_on_c, 1, 83, 0
3, 132180, Note_on_c, 1, 81, 89
3, 132240, Note_on_c, 1, 81, 0
3, 132240, Note_on_c, 1, 79, 85
3, 132300, Note_on_c, 1, 79, 0
3, 132300, Note_on_c, 1, 78, 80
3, 132360, Note_on_c, 1, 78, 0
3, 132360, Note_on_c, 1, 76, 75
3, 132420, Note_on_c, 1, 76, 0
3, 132420, Note_on_c, 1, 74, 71
3, 132480, Note_on_c, 1, 74, 0
3, 132480, Note_on_c, 1, 76, 105
3, 132480, Note_on_c, 1, 79, 105
3, 132540, Note_on_c, 1, 79, 0
3, 132540, Note_on_c, 1, 76, 0
3, 132540, Note_on_c, 1, 74, 99
3, 132540, Note_on_c, 1, 78, 99
3, 132600, Note_on_c, 1, 78, 0
3, 132600, Note_on_c, 1, 74, 0
3, 132600, Note_on_c, 1, 76, 91
3, 132600, Note_on_c, 1, 73, 91
3, 132660, Note_on_c, 1, 73, 0
3, 132660, Note_on_c, 1, 76, 0
3, 132660, Note_on_c, 1, 71, 87
3, 132660, Note_on_c, 1, 74, 87
3, 132720, Note_on_c, 1, 74, 0
3, 132720, Note_on_c, 1, 71, 0
3, 132720, Note_on_c, 1, 69, 81
3, 132720, Note_on_c, 1, 73, 81
3, 132780, Note_on_c, 1, 73, 0
3, 132780, Note_on_c, 1, 69, 0
3, 132780, Note_on_c, 1, 67, 76
3, 132780, Note_on_c, 1, 71, 76
3, 132840, Note_on_c, 1, 71, 0
3, 132840, Note_on_c, 1, 67, 0
3, 132840, Note_on_c, 1, 66, 71
3, 132840, Note_on_c, 1, 69, 71
3, 132900, Note_on_c, 1, 69, 0
3, 132900, Note_on_c, 1, 66, 0
3, 132900, Note_on_c, 1, 64, 68
3, 132900, Note_on_c, 1, 67, 68
3, 132960, Note_on_c, 1, 67, 0
3, 132960, Note_on_c, 1, 64, 0
3, 132960, Note_on_c, 1, 62, 69
3, 132960, Note_on_c, 1, 66, 69
3, 133080, Note_on_c, 1, 66, 0
3, 133080, Note_on_c, 1, 62, 0
3, 133200, Note_on_c, 1, 78, 104
3, 133200, Note_on_c, 1, 74, 104
3, 133320, Note_on_c, 1, 74, 0
3, 133320, Note_on_c, 1, 78, 0
3, 133440, Note_on_c, 1, 71, 103
3, 133440, Note_on_c, 1, 79, 103
3, 133560, Note_on_c, 1, 79, 0
3, 133560, Note_on_c, 1, 71, 0
3, 133680, Note_on_c, 1, 73, 103
3, 133680, Note_on_c, 1, 76, 103
3, 133800, Note_on_c, 1, 76, 0
3, 133800, Note_on_c, 1, 73, 0
3, 133920, Note_on_c, 1, 86, 104
3, 133980, Note_on_c, 1, 86, 0
3, 133980, Note_on_c, 1, 85, 101
3, 134040, Note_on_c, 1, 85, 0
3, 134040, Note_on_c, 1, 83, 98
3, 134100, Note_on_c, 1, 83, 0
3, 134100, Note_on_c, 1, 81, 94
3, 134160, Note_on_c, 1, 81, 0
3, 134160, Note_on_c, 1, 79, 88
3, 134220, Note_on_c, 1, 79, 0
3, 134220, Note_on_c, 1, 78, 83
3, 134280, Note_on_c, 1, 78, 0
3, 134280, Note_on_c, 1, 76, 77
3, 134340, Note_on_c, 1, 76, 0
3, 134340, Note_on_c, 1, 74, 74
3, 134400, Note_on_c, 1, 74, 0
3, 134400, Note_on_c, 1, 76, 104
3, 134400, Note_on_c, 1, 79, 104
3, 134460, Note_on_c, 1, 79, 0
3, 134460, Note_on_c, 1, 76, 0
3, 134460, Note_on_c, 1, 74, 98
3, 134460, Note_on_c, 1, 78, 98
3, 134520, Note_on_c, 1, 78, 0
3, 134520, Note_on_c, 1, 74, 0
3, 134520, Note_on_c, 1, 76, 94
3, 134520, Note_on_c, 1, 73, 94
3, 134580, Note_on_c, 1, 73, 0
3, 134580, Note_on_c, 1, 76, 0
3, 134580, Note_on_c, 1, 71, 87
3, 134580, Note_on_c, 1, 74, 87
3, 134640, Note_on_c, 1, 74, 0
3, 134640, Note_on_c, 1, 71, 0
3, 134640, Note_on_c, 1, 69, 82
3, 134640, Note_on_c, 1, 73, 82
3, 134700, Note_on_c, 1, 73, 0
3, 134700, Note_on_c, 1, 69, 0
3, 134700, Note_on_c, 1, 67, 76
3, 134700, Note_on_c, 1, 71, 76
3, 134760, Note_on_c, 1, 71, 0
3, 134760, Note_on_c, 1, 67, 0
3, 134760, Note_on_c, 1, 66, 73
3, 134760, Note_on_c, 1, 69, 73
3, 134820, Note_on_c, 1, 69, 0
3, 134820, Note_on_c, 1, 66, 0
3, 134820, Note_on_c, 1, 64, 68
3, 134820, Note_on_c, 1, 67, 68
3, 134880, Note_on_c, 1, 67, 0
3, 134880, Note_on_c, 1, 64, 0
3, 134880, Note_on_c, 1, 62, 84
3, 134880, Note_on_c, 1, 66, 84
3, 135000, Note_on_c, 1, 66, 0
3, 135000, Note_on_c, 1, 62, 0
3, 135120, Note_on_c, 1, 78, 105
3, 135120, Note_on_c, 1, 74, 105
3, 135240, Note_on_c, 1, 74, 0
3, 135240, Note_on_c, 1, 78, 0
3, 135360, Note_on_c, 1, 71, 104
3, 135360, Note_on_c, 1, 79, 104
3, 135480, Note_on_c, 1, 79, 0
3, 135480, Note_on_c, 1, 71, 0
3, 135600, Note_on_c, 1, 73, 104
3, 135600, Note_on_c, 1, 76, 104
3, 135720, Note_on_c, 1, 76, 0
3, 135720, Note_on_c, 1, 73, 0
3, 135840, Note_on_c, 1, 78, 104
3, 135840, Note_on_c, 1, 74, 104
3, 136272, Note_on_c, 1, 74, 0
3, 136272, Note_on_c, 1, 78, 0
3, 136320, Note_on_c, 1, 74, 104
3, 136320, Note_on_c, 1, 78, 104
3, 136536, Note_on_c, 1, 78, 0
3, 136536, Note_on_c, 1, 74, 0
3, 136560, Note_on_c, 1, 74, 104
3, 136560, Note_on_c, 1, 78, 104
3, 136722, Note_on_c, 1, 78, 0
3, 136722, Note_on_c, 1, 74, 0
3, 136740, Note_on_c, 1, 74, 104
3, 136740, Note_on_c, 1, 78, 104
3, 136783, Note_on_c, 1, 78, 0
3, 136783, Note_on_c, 1, 74, 0
3, 136800, Note_on_c, 1, 78, 104
3, 136800, Note_on_c, 1, 74, 104
3, 137232, Note_on_c, 1, 74, 0
3, 137232, Note_on_c, 1, 78, 0
3, 137280, Note_on_c, 1, 74, 104
3, 137280, Note_on_c, 1, 78, 104
3, 137496, Note_on_c, 1, 78, 0
3, 137496, Note_on_c, 1, 74, 0
3, 137520, Note_on_c, 1, 74, 104
3, 137520, Note_on_c, 1, 78, 104
3, 137682, Note_on_c, 1, 78, 0
3, 137682, Note_on_c, 1, 74, 0
3, 137700, Note_on_c, 1, 74, 104
3, 137700, Note_on_c, 1, 78, 104
3, 137743, Note_on_c, 1, 78, 0
3, 137743, Note_on_c, 1, 74, 0
3, 137760, Note_on_c, 1, 78, 104
3, 137760, Note_on_c, 1, 74, 104
3, 138192, Note_on_c, 1, 74, 0
3, 138192, Note_on_c, 1, 78, 0
3, 138240, Note_on_c, 1, 74, 104
3, 138240, Note_on_c, 1, 78, 104
3, 138456, Note_on_c, 1, 78, 0
3, 138456, Note_on_c, 1, 74, 0
3, 138480, Note_on_c, 1, 74, 104
3, 138480, Note_on_c, 1, 78, 104
3, 138642, Note_on_c, 1, 78, 0
3, 138642, Note_on_c, 1, 74, 0
3, 138660, Note_on_c, 1, 74, 104
3, 138660, Note_on_c, 1, 78, 104
3, 138703, Note_on_c, 1, 78, 0
3, 138703, Note_on_c, 1, 74, 0
3, 138720, Note_on_c, 1, 78, 104
3, 138720, Note_on_c, 1, 74, 104
3, 138828, Note_on_c, 1, 74, 0
3, 138828, Note_on_c, 1, 78, 0
3, 138960, Note_on_c, 1, 74, 105
3, 138960, Note_on_c, 1, 78, 105
3, 139068, Note_on_c, 1, 78, 0
3, 139068, Note_on_c, 1, 74, 0
3, 139200, Note_on_c, 1, 78, 105
3, 139200, Note_on_c, 1, 74, 105
3, 139308, Note_on_c, 1, 74, 0
3, 139308, Note_on_c, 1, 78, 0
3, 139440, Note_on_c, 1, 74, 105
3, 139440, Note_on_c, 1, 78, 105
3, 139548, Note_on_c, 1, 78, 0
3, 139548, Note_on_c, 1, 74, 0
3, 139680, Note_on_c, 1, 78, 105
3, 139680, Note_on_c, 1, 74, 105
3, 139788, Note_on_c, 1, 74, 0
3, 139788, Note_on_c, 1, 78, 0
3, 140160, Note_on_c, 1, 74, 105
3, 140160, Note_on_c, 1, 78, 105
3, 140268, Note_on_c, 1, 78, 0
3, 140268, Note_on_c, 1, 74, 0
3, 140640, Note_on_c, 1, 74, 105
3, 140640, Note_on_c, 1, 78, 105
3, 140856, Note_on_c, 1, 78, 0
3, 140856, Note_on_c, 1, 74, 0
3, 140856, End_track
4, 0, Start_track
4, 0, MIDI_port, 0
4, 0, Title_t, "2 Clarinetti in A"
4, 0, Program_c, 2, 71
4, 0, Control_c, 2, 7, 64
4, 0, Control_c, 2, 10, 60
4, 0, Control_c, 2, 91, 96
4, 3360, Control_c, 2, 7, 63
4, 3500, Control_c, 2, 7, 65
4, 3800, Control_c, 2, 7, 63
4, 3810, Control_c, 2, 7, 64
4, 3830, Control_c, 2, 7, 67
4, 3840, Control_c, 2, 7, 68
4, 3850, Control_c, 2, 7, 69
4, 3920, Control_c, 2, 7, 71
4, 3950, Control_c, 2, 7, 73
4, 3960, Note_on_c, 2, 57, 52
4, 3960, Note_on_c, 2, 54, 52
4, 3970, Control_c, 2, 7, 74
4, 3990, Control_c, 2, 7, 75
4, 4010, Control_c, 2, 7, 76
4, 4020, Control_c, 2, 7, 77
4, 4040, Control_c, 2, 7, 78
4, 4060, Control_c, 2, 7, 80
4, 4080, Note_on_c, 2, 54, 0
4, 4080, Note_on_c, 2, 57, 0
4, 4080, Note_on_c, 2, 62, 64
4, 4080, Note_on_c, 2, 57, 64
4, 4090, Control_c, 2, 7, 81
4, 4100, Control_c, 2, 7, 83
4, 4130, Control_c, 2, 7, 84
4, 4150, Control_c, 2, 7, 85
4, 4160, Control_c, 2, 7, 87
4, 4170, Control_c, 2, 7, 88
4, 4180, Control_c, 2, 7, 90
4, 4190, Control_c, 2, 7, 91
4, 4200, Note_on_c, 2, 57, 0
4, 4200, Note_on_c, 2, 62, 0
4, 4200, Note_on_c, 2, 66, 72
4, 4200, Note_on_c, 2, 62, 72
4, 4210, Control_c, 2, 7, 91
4, 4230, Control_c, 2, 7, 92
4, 4250, Control_c, 2, 7, 93
4, 4270, Control_c, 2, 7, 94
4, 4280, Control_c, 2, 7, 95
4, 4320, Note_on_c, 2, 62, 0
4, 4320, Note_on_c, 2, 66, 0
4, 4320, Note_on_c, 2, 69, 83
4, 4320, Note_on_c, 2, 66, 83
4, 4320, Control_c, 2, 7, 96
4, 4340, Control_c, 2, 7, 95
4, 4460, Control_c, 2, 7, 94
4, 4550, Control_c, 2, 7, 93
4, 4560, Note_on_c, 2, 66, 0
4, 4560, Note_on_c, 2, 69, 0
4, 4770, Control_c, 2, 7, 95
4, 4800, Control_c, 2, 7, 96
4, 4820, Control_c, 2, 7, 97
4, 4830, Control_c, 2, 7, 98
4, 4860, Control_c, 2, 7, 100
4, 4890, Control_c, 2, 7, 101
4, 4900, Control_c, 2, 7, 102
4, 4920, Note_on_c, 2, 62, 56
4, 4920, Note_on_c, 2, 57, 56
4, 4940, Control_c, 2, 7, 104
4, 4960, Control_c, 2, 7, 105
4, 4980, Control_c, 2, 7, 106
4, 5000, Control_c, 2, 7, 107
4, 5020, Control_c, 2, 7, 108
4, 5030, Control_c, 2, 7, 109
4, 5040, Note_on_c, 2, 57, 0
4, 5040, Note_on_c, 2, 62, 0
4, 5040, Note_on_c, 2, 66, 75
4, 5040, Note_on_c, 2, 62, 75
4, 5050, Control_c, 2, 7, 110
4, 5070, Control_c, 2, 7, 112
4, 5090, Control_c, 2, 7, 114
4, 5120, Control_c, 2, 7, 116
4, 5130, Control_c, 2, 7, 117
4, 5140, Control_c, 2, 7, 118
4, 5150, Control_c, 2, 7, 119
4, 5160, Note_on_c, 2, 62, 0
4, 5160, Note_on_c, 2, 66, 0
4, 5160, Note_on_c, 2, 69, 81
4, 5160, Note_on_c, 2, 66, 81
4, 5170, Control_c, 2, 7, 121
4, 5210, Control_c, 2, 7, 123
4, 5220, Control_c, 2, 7, 124
4, 5230, Control_c, 2, 7, 125
4, 5250, Control_c, 2, 7, 126
4, 5270, Control_c, 2, 7, 127
4, 5280, Note_on_c, 2, 66, 0
4, 5280, Note_on_c, 2, 69, 0
4, 5280, Note_on_c, 2, 66, 89
4, 5280, Note_on_c, 2, 74, 89
4, 5730, Note_on_c, 2, 74, 0
4, 5730, Note_on_c, 2, 66, 0
4, 5760, Note_on_c, 2, 73, 83
4, 5760, Note_on_c, 2, 64, 83
4, 5770, Control_c, 2, 7, 127
4, 5830, Control_c, 2, 7, 126
4, 5840, Control_c, 2, 7, 124
4, 5850, Control_c, 2, 7, 123
4, 5870, Control_c, 2, 7, 121
4, 5890, Control_c, 2, 7, 119
4, 5910, Control_c, 2, 7, 117
4, 5930, Control_c, 2, 7, 114
4, 5960, Control_c, 2, 7, 113
4, 5980, Control_c, 2, 7, 111
4, 6000, Control_c, 2, 7, 110
4, 6010, Control_c, 2, 7, 109
4, 6020, Control_c, 2, 7, 108
4, 6040, Control_c, 2, 7, 106
4, 6050, Control_c, 2, 7, 105
4, 6070, Control_c, 2, 7, 104
4, 6100, Control_c, 2, 7, 103
4, 6110, Control_c, 2, 7, 102
4, 6120, Note_on_c, 2, 64, 0
4, 6120, Note_on_c, 2, 73, 0
4, 6120, Note_on_c, 2, 71, 83
4, 6120, Note_on_c, 2, 67, 83
4, 6140, Control_c, 2, 7, 101
4, 6160, Control_c, 2, 7, 100
4, 6170, Control_c, 2, 7, 99
4, 6180, Control_c, 2, 7, 98
4, 6210, Control_c, 2, 7, 97
4, 6240, Note_on_c, 2, 67, 0
4, 6240, Note_on_c, 2, 71, 0
4, 6240, Note_on_c, 2, 69, 83
4, 6240, Note_on_c, 2, 66, 83
4, 6240, Control_c, 2, 7, 109
4, 6270, Control_c, 2, 7, 108
4, 6290, Control_c, 2, 7, 106
4, 6320, Control_c, 2, 7, 105
4, 6342, Note_on_c, 2, 66, 0
4, 6342, Note_on_c, 2, 69, 0
4, 6360, Note_on_c, 2, 74, 83
4, 6360, Note_on_c, 2, 66, 83
4, 6380, Control_c, 2, 7, 99
4, 6400, Control_c, 2, 7, 97
4, 6410, Control_c, 2, 7, 96
4, 6450, Control_c, 2, 7, 94
4, 6480, Note_on_c, 2, 66, 0
4, 6480, Note_on_c, 2, 74, 0
4, 6480, Note_on_c, 2, 73, 83
4, 6480, Note_on_c, 2, 64, 83
4, 6510, Control_c, 2, 7, 92
4, 6570, Control_c, 2, 7, 90
4, 6590, Control_c, 2, 7, 89
4, 6600, Note_on_c, 2, 64, 0
4, 6600, Note_on_c, 2, 73, 0
4, 6600, Note_on_c, 2, 67, 83
4, 6600, Note_on_c, 2, 71, 83
4, 6600, Control_c, 2, 7, 88
4, 6640, Control_c, 2, 7, 86
4, 6680, Control_c, 2, 7, 85
4, 6700, Control_c, 2, 7, 84
4, 6720, Note_on_c, 2, 71, 0
4, 6720, Note_on_c, 2, 67, 0
4, 6720, Note_on_c, 2, 66, 83
4, 6720, Note_on_c, 2, 69, 83
4, 6720, Control_c, 2, 7, 98
4, 6780, Control_c, 2, 7, 97
4, 6810, Control_c, 2, 7, 96
4, 6822, Note_on_c, 2, 69, 0
4, 6822, Note_on_c, 2, 66, 0
4, 6840, Note_on_c, 2, 66, 83
4, 6840, Note_on_c, 2, 74, 83
4, 6850, Control_c, 2, 7, 94
4, 6930, Control_c, 2, 7, 93
4, 6950, Control_c, 2, 7, 92
4, 6960, Note_on_c, 2, 74, 0
4, 6960, Note_on_c, 2, 66, 0
4, 6960, Note_on_c, 2, 64, 83
4, 6960, Note_on_c, 2, 73, 83
4, 6960, Control_c, 2, 7, 91
4, 6970, Control_c, 2, 7, 90
4, 7010, Control_c, 2, 7, 89
4, 7050, Control_c, 2, 7, 88
4, 7080, Note_on_c, 2, 73, 0
4, 7080, Note_on_c, 2, 64, 0
4, 7080, Note_on_c, 2, 71, 83
4, 7080, Note_on_c, 2, 67, 83
4, 7080, Control_c, 2, 7, 86
4, 7130, Control_c, 2, 7, 85
4, 7150, Control_c, 2, 7, 84
4, 7200, Note_on_c, 2, 67, 0
4, 7200, Note_on_c, 2, 71, 0
4, 7200, Note_on_c, 2, 66, 83
4, 7200, Note_on_c, 2, 69, 83
4, 7200, Control_c, 2, 7, 81
4, 7302, Note_on_c, 2, 69, 0
4, 7302, Note_on_c, 2, 66, 0
4, 7320, Note_on_c, 2, 66, 79
4, 7320, Note_on_c, 2, 69, 79
4, 7371, Note_on_c, 2, 69, 0
4, 7371, Note_on_c, 2, 66, 0
4, 7380, Note_on_c, 2, 66, 78
4, 7380, Note_on_c, 2, 69, 78
4, 7431, Note_on_c, 2, 69, 0
4, 7431, Note_on_c, 2, 66, 0
4, 7440, Note_on_c, 2, 64, 77
4, 7440, Note_on_c, 2, 67, 77
4, 7542, Note_on_c, 2, 67, 0
4, 7542, Note_on_c, 2, 64, 0
4, 7560, Note_on_c, 2, 64, 76
4, 7560, Note_on_c, 2, 67, 76
4, 7611, Note_on_c, 2, 67, 0
4, 7611, Note_on_c, 2, 64, 0
4, 7620, Note_on_c, 2, 64, 76
4, 7620, Note_on_c, 2, 67, 76
4, 7671, Note_on_c, 2, 67, 0
4, 7671, Note_on_c, 2, 64, 0
4, 7680, Note_on_c, 2, 62, 75
4, 7680, Note_on_c, 2, 66, 75
4, 7782, Note_on_c, 2, 66, 0
4, 7782, Note_on_c, 2, 62, 0
4, 7800, Note_on_c, 2, 66, 74
4, 7800, Note_on_c, 2, 62, 74
4, 7851, Note_on_c, 2, 62, 0
4, 7851, Note_on_c, 2, 66, 0
4, 7860, Note_on_c, 2, 66, 72
4, 7860, Note_on_c, 2, 62, 72
4, 7911, Note_on_c, 2, 62, 0
4, 7911, Note_on_c, 2, 66, 0
4, 7920, Note_on_c, 2, 61, 70
4, 7920, Note_on_c, 2, 64, 70
4, 8022, Note_on_c, 2, 64, 0
4, 8022, Note_on_c, 2, 61, 0
4, 8040, Note_on_c, 2, 64, 68
4, 8040, Note_on_c, 2, 61, 68
4, 8091, Note_on_c, 2, 61, 0
4, 8091, Note_on_c, 2, 64, 0
4, 8100, Note_on_c, 2, 61, 67
4, 8100, Note_on_c, 2, 64, 67
4, 8151, Note_on_c, 2, 64, 0
4, 8151, Note_on_c, 2, 61, 0
4, 8160, Note_on_c, 2, 62, 65
4, 8160, Note_on_c, 2, 62, 65
4, 8400, Note_on_c, 2, 62, 0
4, 8400, Note_on_c, 2, 62, 0
4, 11660, Control_c, 2, 7, 65
4, 11960, Control_c, 2, 7, 63
4, 11970, Control_c, 2, 7, 64
4, 11990, Control_c, 2, 7, 67
4, 12000, Control_c, 2, 7, 68
4, 12010, Control_c, 2, 7, 69
4, 12080, Control_c, 2, 7, 71
4, 12110, Control_c, 2, 7, 73
4, 12120, Note_on_c, 2, 54, 46
4, 12120, Note_on_c, 2, 57, 46
4, 12130, Control_c, 2, 7, 74
4, 12150, Control_c, 2, 7, 75
4, 12170, Control_c, 2, 7, 76
4, 12180, Control_c, 2, 7, 77
4, 12200, Control_c, 2, 7, 78
4, 12220, Control_c, 2, 7, 80
4, 12240, Note_on_c, 2, 57, 0
4, 12240, Note_on_c, 2, 54, 0
4, 12240, Note_on_c, 2, 57, 58
4, 12240, Note_on_c, 2, 62, 58
4, 12250, Control_c, 2, 7, 81
4, 12260, Control_c, 2, 7, 83
4, 12290, Control_c, 2, 7, 84
4, 12310, Control_c, 2, 7, 85
4, 12320, Control_c, 2, 7, 87
4, 12330, Control_c, 2, 7, 88
4, 12340, Control_c, 2, 7, 90
4, 12350, Control_c, 2, 7, 91
4, 12360, Note_on_c, 2, 62, 0
4, 12360, Note_on_c, 2, 57, 0
4, 12360, Note_on_c, 2, 62, 75
4, 12360, Note_on_c, 2, 66, 75
4, 12370, Control_c, 2, 7, 91
4, 12390, Control_c, 2, 7, 92
4, 12410, Control_c, 2, 7, 93
4, 12430, Control_c, 2, 7, 94
4, 12440, Control_c, 2, 7, 95
4, 12480, Note_on_c, 2, 66, 0
4, 12480, Note_on_c, 2, 62, 0
4, 12480, Note_on_c, 2, 66, 83
4, 12480, Note_on_c, 2, 69, 83
4, 12480, Control_c, 2, 7, 96
4, 12500, Control_c, 2, 7, 95
4, 12620, Control_c, 2, 7, 94
4, 12710, Control_c, 2, 7, 93
4, 12720, Note_on_c, 2, 69, 0
4, 12720, Note_on_c, 2, 66, 0
4, 12930, Control_c, 2, 7, 95
4, 12960, Control_c, 2, 7, 96
4, 12980, Control_c, 2, 7, 97
4, 12990, Control_c, 2, 7, 98
4, 13020, Control_c, 2, 7, 100
4, 13050, Control_c, 2, 7, 101
4, 13060, Control_c, 2, 7, 102
4, 13080, Note_on_c, 2, 57, 60
4, 13080, Note_on_c, 2, 62, 60
4, 13100, Control_c, 2, 7, 104
4, 13120, Control_c, 2, 7, 105
4, 13140, Control_c, 2, 7, 106
4, 13160, Control_c, 2, 7, 107
4, 13180, Control_c, 2, 7, 108
4, 13190, Control_c, 2, 7, 109
4, 13200, Note_on_c, 2, 62, 0
4, 13200, Note_on_c, 2, 57, 0
4, 13200, Note_on_c, 2, 62, 67
4, 13200, Note_on_c, 2, 66, 67
4, 13210, Control_c, 2, 7, 110
4, 13230, Control_c, 2, 7, 112
4, 13250, Control_c, 2, 7, 114
4, 13280, Control_c, 2, 7, 116
4, 13290, Control_c, 2, 7, 117
4, 13300, Control_c, 2, 7, 118
4, 13310, Control_c, 2, 7, 119
4, 13320, Note_on_c, 2, 66, 0
4, 13320, Note_on_c, 2, 62, 0
4, 13320, Note_on_c, 2, 66, 77
4, 13320, Note_on_c, 2, 69, 77
4, 13330, Control_c, 2, 7, 121
4, 13370, Control_c, 2, 7, 123
4, 13380, Control_c, 2, 7, 124
4, 13390, Control_c, 2, 7, 125
4, 13410, Control_c, 2, 7, 126
4, 13430, Control_c, 2, 7, 127
4, 13440, Note_on_c, 2, 69, 0
4, 13440, Note_on_c, 2, 66, 0
4, 13440, Note_on_c, 2, 74, 86
4, 13440, Note_on_c, 2, 66, 86
4, 13890, Note_on_c, 2, 66, 0
4, 13890, Note_on_c, 2, 74, 0
4, 13920, Note_on_c, 2, 64, 83
4, 13920, Note_on_c, 2, 73, 83
4, 13930, Control_c, 2, 7, 127
4, 13990, Control_c, 2, 7, 126
4, 14000, Control_c, 2, 7, 124
4, 14010, Control_c, 2, 7, 123
4, 14030, Control_c, 2, 7, 121
4, 14050, Control_c, 2, 7, 119
4, 14070, Control_c, 2, 7, 117
4, 14090, Control_c, 2, 7, 114
4, 14120, Control_c, 2, 7, 113
4, 14140, Control_c, 2, 7, 111
4, 14160, Control_c, 2, 7, 110
4, 14170, Control_c, 2, 7, 109
4, 14180, Control_c, 2, 7, 108
4, 14200, Control_c, 2, 7, 106
4, 14210, Control_c, 2, 7, 105
4, 14230, Control_c, 2, 7, 104
4, 14260, Control_c, 2, 7, 103
4, 14270, Control_c, 2, 7, 102
4, 14280, Note_on_c, 2, 73, 0
4, 14280, Note_on_c, 2, 64, 0
4, 14280, Note_on_c, 2, 67, 87
4, 14280, Note_on_c, 2, 71, 87
4, 14300, Control_c, 2, 7, 101
4, 14320, Control_c, 2, 7, 100
4, 14330, Control_c, 2, 7, 99
4, 14340, Control_c, 2, 7, 98
4, 14370, Control_c, 2, 7, 97
4, 14400, Note_on_c, 2, 71, 0
4, 14400, Note_on_c, 2, 67, 0
4, 14400, Note_on_c, 2, 66, 89
4, 14400, Note_on_c, 2, 69, 89
4, 14400, Control_c, 2, 7, 109
4, 14430, Control_c, 2, 7, 108
4, 14450, Control_c, 2, 7, 106
4, 14480, Control_c, 2, 7, 105
4, 14502, Note_on_c, 2, 69, 0
4, 14502, Note_on_c, 2, 66, 0
4, 14520, Note_on_c, 2, 66, 89
4, 14520, Note_on_c, 2, 74, 89
4, 14540, Control_c, 2, 7, 99
4, 14560, Control_c, 2, 7, 97
4, 14570, Control_c, 2, 7, 96
4, 14610, Control_c, 2, 7, 94
4, 14640, Note_on_c, 2, 74, 0
4, 14640, Note_on_c, 2, 66, 0
4, 14640, Note_on_c, 2, 64, 89
4, 14640, Note_on_c, 2, 73, 89
4, 14670, Control_c, 2, 7, 92
4, 14730, Control_c, 2, 7, 90
4, 14750, Control_c, 2, 7, 89
4, 14760, Note_on_c, 2, 73, 0
4, 14760, Note_on_c, 2, 64, 0
4, 14760, Note_on_c, 2, 71, 90
4, 14760, Note_on_c, 2, 67, 90
4, 14760, Control_c, 2, 7, 88
4, 14800, Control_c, 2, 7, 86
4, 14840, Control_c, 2, 7, 85
4, 14860, Control_c, 2, 7, 84
4, 14880, Note_on_c, 2, 67, 0
4, 14880, Note_on_c, 2, 71, 0
4, 14880, Note_on_c, 2, 69, 90
4, 14880, Note_on_c, 2, 66, 90
4, 14880, Control_c, 2, 7, 98
4, 14940, Control_c, 2, 7, 97
4, 14970, Control_c, 2, 7, 96
4, 14982, Note_on_c, 2, 66, 0
4, 14982, Note_on_c, 2, 69, 0
4, 15000, Note_on_c, 2, 74, 90
4, 15000, Note_on_c, 2, 66, 90
4, 15010, Control_c, 2, 7, 94
4, 15090, Control_c, 2, 7, 93
4, 15110, Control_c, 2, 7, 92
4, 15120, Note_on_c, 2, 66, 0
4, 15120, Note_on_c, 2, 74, 0
4, 15120, Note_on_c, 2, 73, 90
4, 15120, Note_on_c, 2, 64, 90
4, 15120, Control_c, 2, 7, 91
4, 15130, Control_c, 2, 7, 90
4, 15170, Control_c, 2, 7, 89
4, 15210, Control_c, 2, 7, 88
4, 15240, Note_on_c, 2, 64, 0
4, 15240, Note_on_c, 2, 73, 0
4, 15240, Note_on_c, 2, 67, 90
4, 15240, Note_on_c, 2, 71, 90
4, 15240, Control_c, 2, 7, 86
4, 15290, Control_c, 2, 7, 85
4, 15310, Control_c, 2, 7, 84
4, 15360, Note_on_c, 2, 71, 0
4, 15360, Note_on_c, 2, 67, 0
4, 15360, Note_on_c, 2, 69, 90
4, 15360, Note_on_c, 2, 66, 90
4, 15360, Control_c, 2, 7, 81
4, 15370, Control_c, 2, 7, 81
4, 15420, Control_c, 2, 7, 79
4, 15460, Control_c, 2, 7, 78
4, 15462, Note_on_c, 2, 66, 0
4, 15462, Note_on_c, 2, 69, 0
4, 15480, Note_on_c, 2, 69, 85
4, 15480, Note_on_c, 2, 66, 85
4, 15490, Control_c, 2, 7, 77
4, 15530, Control_c, 2, 7, 76
4, 15531, Note_on_c, 2, 66, 0
4, 15531, Note_on_c, 2, 69, 0
4, 15540, Note_on_c, 2, 66, 85
4, 15540, Note_on_c, 2, 69, 85
4, 15540, Control_c, 2, 7, 75
4, 15591, Note_on_c, 2, 69, 0
4, 15591, Note_on_c, 2, 66, 0
4, 15600, Note_on_c, 2, 67, 82
4, 15600, Note_on_c, 2, 64, 82
4, 15702, Note_on_c, 2, 64, 0
4, 15702, Note_on_c, 2, 67, 0
4, 15720, Note_on_c, 2, 67, 80
4, 15720, Note_on_c, 2, 64, 80
4, 15771, Note_on_c, 2, 64, 0
4, 15771, Note_on_c, 2, 67, 0
4, 15780, Note_on_c, 2, 67, 79
4, 15780, Note_on_c, 2, 64, 79
4, 15831, Note_on_c, 2, 64, 0
4, 15831, Note_on_c, 2, 67, 0
4, 15840, Note_on_c, 2, 66, 79
4, 15840, Note_on_c, 2, 62, 79
4, 15942, Note_on_c, 2, 62, 0
4, 15942, Note_on_c, 2, 66, 0
4, 15960, Note_on_c, 2, 62, 76
4, 15960, Note_on_c, 2, 66, 76
4, 16011, Note_on_c, 2, 66, 0
4, 16011, Note_on_c, 2, 62, 0
4, 16020, Note_on_c, 2, 66, 76
4, 16020, Note_on_c, 2, 62, 76
4, 16071, Note_on_c, 2, 62, 0
4, 16071, Note_on_c, 2, 66, 0
4, 16080, Note_on_c, 2, 64, 75
4, 16080, Note_on_c, 2, 61, 75
4, 16182, Note_on_c, 2, 61, 0
4, 16182, Note_on_c, 2, 64, 0
4, 16200, Note_on_c, 2, 61, 74
4, 16200, Note_on_c, 2, 64, 74
4, 16251, Note_on_c, 2, 64, 0
4, 16251, Note_on_c, 2, 61, 0
4, 16260, Note_on_c, 2, 64, 72
4, 16260, Note_on_c, 2, 61, 72
4, 16311, Note_on_c, 2, 61, 0
4, 16311, Note_on_c, 2, 64, 0
4, 16320, Note_on_c, 2, 62, 71
4, 16320, Control_c, 2, 7, 121
4, 16340, Control_c, 2, 7, 118
4, 16350, Control_c, 2, 7, 112
4, 16380, Control_c, 2, 7, 102
4, 16390, Control_c, 2, 7, 101
4, 16410, Control_c, 2, 7, 93
4, 16420, Control_c, 2, 7, 87
4, 16430, Control_c, 2, 7, 85
4, 16450, Control_c, 2, 7, 83
4, 16460, Control_c, 2, 7, 81
4, 16480, Control_c, 2, 7, 80
4, 16490, Control_c, 2, 7, 78
4, 16500, Control_c, 2, 7, 77
4, 16530, Control_c, 2, 7, 76
4, 16570, Control_c, 2, 7, 75
4, 16690, Control_c, 2, 7, 76
4, 16700, Control_c, 2, 7, 77
4, 16770, Control_c, 2, 7, 79
4, 16800, Note_on_c, 2, 66, 95
4, 16830, Control_c, 2, 7, 81
4, 16890, Control_c, 2, 7, 83
4, 16910, Control_c, 2, 7, 84
4, 16970, Control_c, 2, 7, 86
4, 17030, Control_c, 2, 7, 92
4, 17110, Control_c, 2, 7, 98
4, 17130, Control_c, 2, 7, 104
4, 17150, Control_c, 2, 7, 106
4, 17160, Control_c, 2, 7, 108
4, 17180, Control_c, 2, 7, 109
4, 17190, Control_c, 2, 7, 111
4, 17250, Control_c, 2, 7, 117
4, 17270, Control_c, 2, 7, 123
4, 17280, Note_on_c, 2, 66, 0
4, 17280, Note_on_c, 2, 62, 0
4, 17280, Note_on_c, 2, 67, 101
4, 17280, Note_on_c, 2, 64, 101
4, 17280, Control_c, 2, 7, 127
4, 17300, Control_c, 2, 7, 119
4, 17310, Control_c, 2, 7, 117
4, 17320, Control_c, 2, 7, 113
4, 17330, Control_c, 2, 7, 108
4, 17340, Control_c, 2, 7, 106
4, 17350, Control_c, 2, 7, 102
4, 17360, Control_c, 2, 7, 89
4, 17370, Control_c, 2, 7, 68
4, 17380, Control_c, 2, 7, 66
4, 17390, Control_c, 2, 7, 65
4, 17440, Control_c, 2, 7, 65
4, 17510, Control_c, 2, 7, 67
4, 17570, Control_c, 2, 7, 69
4, 17630, Control_c, 2, 7, 71
4, 17690, Control_c, 2, 7, 73
4, 17710, Control_c, 2, 7, 76
4, 17770, Control_c, 2, 7, 78
4, 17790, Control_c, 2, 7, 80
4, 17810, Control_c, 2, 7, 81
4, 17820, Control_c, 2, 7, 82
4, 17880, Control_c, 2, 7, 84
4, 17960, Control_c, 2, 7, 90
4, 18020, Control_c, 2, 7, 96
4, 18040, Control_c, 2, 7, 98
4, 18050, Control_c, 2, 7, 99
4, 18060, Control_c, 2, 7, 101
4, 18080, Control_c, 2, 7, 107
4, 18100, Control_c, 2, 7, 109
4, 18110, Control_c, 2, 7, 111
4, 18130, Control_c, 2, 7, 117
4, 18140, Control_c, 2, 7, 118
4, 18150, Control_c, 2, 7, 119
4, 18170, Control_c, 2, 7, 121
4, 18180, Control_c, 2, 7, 122
4, 18190, Control_c, 2, 7, 123
4, 18210, Control_c, 2, 7, 125
4, 18230, Control_c, 2, 7, 127
4, 18240, Note_on_c, 2, 64, 0
4, 18240, Note_on_c, 2, 67, 0
4, 18240, Note_on_c, 2, 69, 97
4, 18240, Note_on_c, 2, 66, 97
4, 18250, Control_c, 2, 7, 119
4, 18260, Control_c, 2, 7, 117
4, 18270, Control_c, 2, 7, 111
4, 18280, Control_c, 2, 7, 105
4, 18290, Control_c, 2, 7, 97
4, 18300, Control_c, 2, 7, 96
4, 18310, Control_c, 2, 7, 90
4, 18320, Control_c, 2, 7, 86
4, 18330, Control_c, 2, 7, 84
4, 18340, Control_c, 2, 7, 82
4, 18350, Control_c, 2, 7, 79
4, 18370, Control_c, 2, 7, 76
4, 18390, Control_c, 2, 7, 74
4, 18400, Control_c, 2, 7, 73
4, 18430, Control_c, 2, 7, 72
4, 18440, Control_c, 2, 7, 71
4, 18590, Control_c, 2, 7, 72
4, 18650, Control_c, 2, 7, 74
4, 18670, Control_c, 2, 7, 75
4, 18730, Control_c, 2, 7, 77
4, 18790, Control_c, 2, 7, 79
4, 18810, Control_c, 2, 7, 80
4, 18820, Control_c, 2, 7, 82
4, 18840, Control_c, 2, 7, 83
4, 18850, Control_c, 2, 7, 84
4, 18910, Control_c, 2, 7, 86
4, 18970, Control_c, 2, 7, 88
4, 18990, Control_c, 2, 7, 90
4, 19000, Control_c, 2, 7, 92
4, 19060, Control_c, 2, 7, 98
4, 19120, Control_c, 2, 7, 104
4, 19130, Control_c, 2, 7, 106
4, 19140, Control_c, 2, 7, 108
4, 19160, Control_c, 2, 7, 111
4, 19180, Control_c, 2, 7, 112
4, 19190, Control_c, 2, 7, 111
4, 19200, Note_on_c, 2, 66, 0
4, 19200, Note_on_c, 2, 69, 0
4, 19200, Note_on_c, 2, 67, 64
4, 19200, Note_on_c, 2, 71, 64
4, 19200, Control_c, 2, 7, 110
4, 19240, Control_c, 2, 7, 104
4, 19260, Control_c, 2, 7, 98
4, 19290, Control_c, 2, 7, 92
4, 19300, Control_c, 2, 7, 91
4, 19470, Control_c, 2, 7, 92
4, 19530, Control_c, 2, 7, 94
4, 19550, Control_c, 2, 7, 96
4, 19560, Control_c, 2, 7, 97
4, 19580, Control_c, 2, 7, 98
4, 19600, Control_c, 2, 7, 100
4, 19610, Control_c, 2, 7, 102
4, 19640, Control_c, 2, 7, 104
4, 19650, Control_c, 2, 7, 106
4, 19660, Control_c, 2, 7, 107
4, 19670, Control_c, 2, 7, 109
4, 19680, Note_on_c, 2, 71, 0
4, 19680, Note_on_c, 2, 67, 0
4, 19680, Note_on_c, 2, 69, 64
4, 19680, Note_on_c, 2, 72, 64
4, 19680, Control_c, 2, 7, 116
4, 19710, Control_c, 2, 7, 98
4, 19870, Control_c, 2, 7, 99
4, 19990, Control_c, 2, 7, 101
4, 20010, Control_c, 2, 7, 102
4, 20040, Control_c, 2, 7, 103
4, 20100, Control_c, 2, 7, 104
4, 20160, Note_on_c, 2, 72, 0
4, 20160, Note_on_c, 2, 69, 0
4, 20160, Note_on_c, 2, 71, 64
4, 20160, Note_on_c, 2, 67, 64
4, 20160, Control_c, 2, 7, 105
4, 20240, Control_c, 2, 7, 106
4, 20250, Control_c, 2, 7, 107
4, 20280, Control_c, 2, 7, 108
4, 20360, Control_c, 2, 7, 109
4, 20370, Control_c, 2, 7, 110
4, 20400, Note_on_c, 2, 67, 0
4, 20400, Note_on_c, 2, 71, 0
4, 20400, Note_on_c, 2, 66, 64
4, 20400, Note_on_c, 2, 69, 64
4, 20440, Control_c, 2, 7, 111
4, 20470, Control_c, 2, 7, 112
4, 20550, Control_c, 2, 7, 113
4, 20560, Control_c, 2, 7, 114
4, 20590, Control_c, 2, 7, 115
4, 20640, Note_on_c, 2, 69, 0
4, 20640, Note_on_c, 2, 66, 0
4, 20640, Note_on_c, 2, 71, 64
4, 20640, Note_on_c, 2, 67, 64
4, 20650, Control_c, 2, 7, 116
4, 20670, Control_c, 2, 7, 117
4, 20690, Control_c, 2, 7, 118
4, 20710, Control_c, 2, 7, 119
4, 20770, Control_c, 2, 7, 120
4, 20790, Control_c, 2, 7, 121
4, 20810, Control_c, 2, 7, 122
4, 20880, Note_on_c, 2, 71, 0
4, 20880, Note_on_c, 2, 73, 64
4, 20880, Control_c, 2, 7, 124
4, 20990, Control_c, 2, 7, 126
4, 21060, Control_c, 2, 7, 127
4, 21090, Note_on_c, 2, 67, 0
4, 21120, Note_on_c, 2, 73, 0
4, 21120, Note_on_c, 2, 66, 64
4, 21120, Note_on_c, 2, 74, 64
4, 21180, Control_c, 2, 7, 126
4, 21200, Control_c, 2, 7, 125
4, 21230, Control_c, 2, 7, 124
4, 21232, Note_on_c, 2, 74, 0
4, 21232, Note_on_c, 2, 66, 0
4, 21250, Control_c, 2, 7, 123
4, 21310, Control_c, 2, 7, 122
4, 21370, Control_c, 2, 7, 121
4, 21390, Control_c, 2, 7, 120
4, 21420, Control_c, 2, 7, 119
4, 21480, Note_on_c, 2, 64, 64
4, 21480, Note_on_c, 2, 73, 64
4, 21480, Control_c, 2, 7, 117
4, 21560, Control_c, 2, 7, 116
4, 21588, Note_on_c, 2, 73, 0
4, 21588, Note_on_c, 2, 64, 0
4, 21600, Note_on_c, 2, 66, 83
4, 21600, Note_on_c, 2, 74, 83
4, 21620, Control_c, 2, 7, 114
4, 21690, Note_on_c, 2, 74, 0
4, 21690, Note_on_c, 2, 66, 0
4, 21720, Note_on_c, 2, 66, 64
4, 21720, Note_on_c, 2, 74, 64
4, 21780, Control_c, 2, 7, 113
4, 21803, Note_on_c, 2, 74, 0
4, 21803, Note_on_c, 2, 66, 0
4, 21860, Control_c, 2, 7, 112
4, 21920, Control_c, 2, 7, 111
4, 21940, Control_c, 2, 7, 110
4, 21960, Note_on_c, 2, 73, 64
4, 21960, Note_on_c, 2, 64, 64
4, 22068, Note_on_c, 2, 64, 0
4, 22068, Note_on_c, 2, 73, 0
4, 22080, Note_on_c, 2, 74, 87
4, 22080, Note_on_c, 2, 66, 87
4, 22080, Control_c, 2, 7, 109
4, 22140, Control_c, 2, 7, 108
4, 22170, Note_on_c, 2, 66, 0
4, 22170, Note_on_c, 2, 74, 0
4, 22200, Note_on_c, 2, 74, 64
4, 22200, Note_on_c, 2, 66, 64
4, 22220, Control_c, 2, 7, 107
4, 22280, Control_c, 2, 7, 106
4, 22283, Note_on_c, 2, 66, 0
4, 22283, Note_on_c, 2, 74, 0
4, 22440, Note_on_c, 2, 64, 64
4, 22440, Note_on_c, 2, 73, 64
4, 22480, Control_c, 2, 7, 104
4, 22548, Note_on_c, 2, 73, 0
4, 22548, Note_on_c, 2, 64, 0
4, 22560, Note_on_c, 2, 66, 83
4, 22560, Note_on_c, 2, 74, 83
4, 22580, Control_c, 2, 7, 103
4, 22656, Note_on_c, 2, 74, 0
4, 22656, Note_on_c, 2, 66, 0
4, 22680, Note_on_c, 2, 64, 64
4, 22680, Note_on_c, 2, 73, 64
4, 22740, Control_c, 2, 7, 101
4, 22776, Note_on_c, 2, 73, 0
4, 22776, Note_on_c, 2, 64, 0
4, 22800, Note_on_c, 2, 66, 83
4, 22800, Note_on_c, 2, 74, 83
4, 22880, Control_c, 2, 7, 100
4, 22896, Note_on_c, 2, 74, 0
4, 22896, Note_on_c, 2, 66, 0
4, 22920, Note_on_c, 2, 64, 77
4, 22920, Note_on_c, 2, 73, 77
4, 22980, Control_c, 2, 7, 98
4, 23016, Note_on_c, 2, 73, 0
4, 23016, Note_on_c, 2, 64, 0
4, 23040, Note_on_c, 2, 74, 64
4, 23040, Note_on_c, 2, 74, 64
4, 23136, Note_on_c, 2, 74, 0
4, 23136, Note_on_c, 2, 74, 0
4, 23160, Control_c, 2, 7, 97
4, 23220, Control_c, 2, 7, 96
4, 23240, Control_c, 2, 7, 95
4, 23280, Note_on_c, 2, 74, 64
4, 23280, Note_on_c, 2, 74, 64
4, 23300, Control_c, 2, 7, 94
4, 23337, Note_on_c, 2, 74, 0
4, 23337, Note_on_c, 2, 74, 0
4, 23340, Note_on_c, 2, 73, 60
4, 23340, Note_on_c, 2, 73, 60
4, 23397, Note_on_c, 2, 73, 0
4, 23397, Note_on_c, 2, 73, 0
4, 23400, Note_on_c, 2, 71, 62
4, 23400, Note_on_c, 2, 71, 62
4, 23457, Note_on_c, 2, 71, 0
4, 23457, Note_on_c, 2, 71, 0
4, 23460, Note_on_c, 2, 69, 66
4, 23460, Note_on_c, 2, 69, 66
4, 23517, Note_on_c, 2, 69, 0
4, 23517, Note_on_c, 2, 69, 0
4, 23520, Note_on_c, 2, 74, 68
4, 23520, Note_on_c, 2, 74, 68
4, 23577, Note_on_c, 2, 74, 0
4, 23577, Note_on_c, 2, 74, 0
4, 23580, Note_on_c, 2, 73, 69
4, 23580, Note_on_c, 2, 73, 69
4, 23630, Control_c, 2, 7, 97
4, 23637, Note_on_c, 2, 73, 0
4, 23637, Note_on_c, 2, 73, 0
4, 23640, Note_on_c, 2, 71, 70
4, 23640, Note_on_c, 2, 71, 70
4, 23690, Control_c, 2, 7, 98
4, 23697, Note_on_c, 2, 71, 0
4, 23697, Note_on_c, 2, 71, 0
4, 23700, Note_on_c, 2, 69, 72
4, 23700, Note_on_c, 2, 69, 72
4, 23757, Note_on_c, 2, 69, 0
4, 23757, Note_on_c, 2, 69, 0
4, 23760, Note_on_c, 2, 67, 75
4, 23760, Note_on_c, 2, 67, 75
4, 23780, Control_c, 2, 7, 99
4, 23817, Note_on_c, 2, 67, 0
4, 23817, Note_on_c, 2, 67, 0
4, 23820, Note_on_c, 2, 66, 76
4, 23820, Note_on_c, 2, 66, 76
4, 23877, Note_on_c, 2, 66, 0
4, 23877, Note_on_c, 2, 66, 0
4, 23880, Note_on_c, 2, 64, 77
4, 23880, Note_on_c, 2, 64, 77
4, 23890, Control_c, 2, 7, 102
4, 23937, Note_on_c, 2, 64, 0
4, 23937, Note_on_c, 2, 64, 0
4, 23940, Note_on_c, 2, 62, 78
4, 23940, Note_on_c, 2, 62, 78
4, 23997, Note_on_c, 2, 62, 0
4, 23997, Note_on_c, 2, 62, 0
4, 24000, Note_on_c, 2, 69, 82
4, 24010, Control_c, 2, 7, 108
4, 24110, Control_c, 2, 7, 109
4, 24130, Control_c, 2, 7, 111
4, 24190, Control_c, 2, 7, 113
4, 24192, Note_on_c, 2, 69, 0
4, 24240, Note_on_c, 2, 64, 64
4, 24240, Note_on_c, 2, 73, 64
4, 24270, Control_c, 2, 7, 114
4, 24350, Control_c, 2, 7, 116
4, 24450, Control_c, 2, 7, 117
4, 24480, Note_on_c, 2, 73, 0
4, 24480, Note_on_c, 2, 64, 0
4, 24480, Note_on_c, 2, 66, 64
4, 24480, Note_on_c, 2, 74, 64
4, 24510, Control_c, 2, 7, 118
4, 24630, Control_c, 2, 7, 119
4, 24730, Control_c, 2, 7, 121
4, 24810, Control_c, 2, 7, 123
4, 24830, Control_c, 2, 7, 124
4, 24920, Control_c, 2, 7, 125
4, 24940, Control_c, 2, 7, 126
4, 24960, Note_on_c, 2, 74, 0
4, 24960, Note_on_c, 2, 66, 0
4, 24960, Note_on_c, 2, 64, 93
4, 24960, Note_on_c, 2, 73, 93
4, 25100, Control_c, 2, 7, 125
4, 25130, Control_c, 2, 7, 123
4, 25210, Control_c, 2, 7, 121
4, 25310, Control_c, 2, 7, 119
4, 25380, Note_on_c, 2, 73, 0
4, 25380, Note_on_c, 2, 64, 0
4, 25410, Control_c, 2, 7, 117
4, 25440, Note_on_c, 2, 66, 97
4, 25440, Note_on_c, 2, 74, 97
4, 25490, Control_c, 2, 7, 115
4, 25590, Control_c, 2, 7, 113
4, 25690, Control_c, 2, 7, 112
4, 25790, Control_c, 2, 7, 106
4, 25910, Control_c, 2, 7, 105
4, 25920, Note_on_c, 2, 74, 0
4, 25920, Note_on_c, 2, 66, 0
4, 25920, Note_on_c, 2, 64, 99
4, 25920, Note_on_c, 2, 73, 99
4, 26010, Control_c, 2, 7, 103
4, 26110, Control_c, 2, 7, 101
4, 26112, Note_on_c, 2, 73, 0
4, 26112, Note_on_c, 2, 64, 0
4, 26160, Note_on_c, 2, 66, 99
4, 26160, Note_on_c, 2, 74, 99
4, 26230, Control_c, 2, 7, 100
4, 26330, Control_c, 2, 7, 98
4, 26352, Note_on_c, 2, 74, 0
4, 26352, Note_on_c, 2, 66, 0
4, 26400, Note_on_c, 2, 73, 101
4, 26400, Note_on_c, 2, 64, 101
4, 26410, Control_c, 2, 7, 97
4, 26490, Control_c, 2, 7, 96
4, 26592, Note_on_c, 2, 64, 0
4, 26592, Note_on_c, 2, 73, 0
4, 26610, Control_c, 2, 7, 94
4, 26640, Note_on_c, 2, 74, 102
4, 26640, Note_on_c, 2, 66, 102
4, 26710, Control_c, 2, 7, 93
4, 26830, Control_c, 2, 7, 91
4, 26832, Note_on_c, 2, 66, 0
4, 26832, Note_on_c, 2, 74, 0
4, 26880, Note_on_c, 2, 73, 102
4, 26880, Note_on_c, 2, 64, 102
4, 26910, Control_c, 2, 7, 90
4, 26970, Control_c, 2, 7, 89
4, 26992, Note_on_c, 2, 64, 0
4, 26992, Note_on_c, 2, 73, 0
4, 27000, Note_on_c, 2, 69, 102
4, 27000, Note_on_c, 2, 69, 102
4, 27048, Note_on_c, 2, 69, 0
4, 27048, Note_on_c, 2, 69, 0
4, 27050, Control_c, 2, 7, 88
4, 27060, Note_on_c, 2, 69, 101
4, 27060, Note_on_c, 2, 69, 101
4, 27108, Note_on_c, 2, 69, 0
4, 27108, Note_on_c, 2, 69, 0
4, 27120, Note_on_c, 2, 69, 99
4, 27120, Note_on_c, 2, 69, 99
4, 27170, Control_c, 2, 7, 86
4, 27232, Note_on_c, 2, 69, 0
4, 27232, Note_on_c, 2, 69, 0
4, 27240, Note_on_c, 2, 69, 90
4, 27240, Note_on_c, 2, 69, 90
4, 27250, Control_c, 2, 7, 85
4, 27310, Control_c, 2, 7, 83
4, 27352, Note_on_c, 2, 69, 0
4, 27352, Note_on_c, 2, 69, 0
4, 27360, Note_on_c, 2, 69, 86
4, 27360, Note_on_c, 2, 69, 86
4, 27390, Control_c, 2, 7, 82
4, 27450, Control_c, 2, 7, 81
4, 27510, Control_c, 2, 7, 80
4, 27590, Control_c, 2, 7, 79
4, 27600, Note_on_c, 2, 69, 0
4, 27600, Note_on_c, 2, 69, 0
4, 27670, Control_c, 2, 7, 78
4, 27770, Control_c, 2, 7, 77
4, 27840, Control_c, 2, 7, 120
4, 27842, Control_c, 2, 7, 119
4, 27844, Control_c, 2, 7, 118
4, 27846, Control_c, 2, 7, 117
4, 27848, Control_c, 2, 7, 116
4, 27850, Control_c, 2, 7, 115
4, 27852, Control_c, 2, 7, 114
4, 27854, Control_c, 2, 7, 113
4, 27857, Control_c, 2, 7, 112
4, 27859, Control_c, 2, 7, 111
4, 27861, Control_c, 2, 7, 110
4, 27863, Control_c, 2, 7, 109
4, 27865, Control_c, 2, 7, 108
4, 27867, Control_c, 2, 7, 107
4, 27869, Control_c, 2, 7, 106
4, 27871, Control_c, 2, 7, 105
4, 27874, Control_c, 2, 7, 104
4, 27876, Control_c, 2, 7, 103
4, 27878, Control_c, 2, 7, 102
4, 27880, Control_c, 2, 7, 101
4, 27882, Control_c, 2, 7, 100
4, 27884, Control_c, 2, 7, 99
4, 27886, Control_c, 2, 7, 98
4, 27888, Control_c, 2, 7, 97
4, 27891, Control_c, 2, 7, 96
4, 27893, Control_c, 2, 7, 95
4, 27895, Control_c, 2, 7, 94
4, 27897, Control_c, 2, 7, 93
4, 27899, Control_c, 2, 7, 92
4, 27901, Control_c, 2, 7, 91
4, 27903, Control_c, 2, 7, 90
4, 27905, Control_c, 2, 7, 89
4, 27908, Control_c, 2, 7, 88
4, 27910, Control_c, 2, 7, 87
4, 27912, Control_c, 2, 7, 86
4, 27914, Control_c, 2, 7, 85
4, 27916, Control_c, 2, 7, 84
4, 27918, Control_c, 2, 7, 83
4, 27920, Control_c, 2, 7, 82
4, 27922, Control_c, 2, 7, 81
4, 27925, Control_c, 2, 7, 80
4, 27927, Control_c, 2, 7, 79
4, 27929, Control_c, 2, 7, 78
4, 27931, Control_c, 2, 7, 77
4, 27933, Control_c, 2, 7, 76
4, 27935, Control_c, 2, 7, 75
4, 27937, Control_c, 2, 7, 74
4, 27939, Control_c, 2, 7, 73
4, 27942, Control_c, 2, 7, 72
4, 27944, Control_c, 2, 7, 71
4, 27946, Control_c, 2, 7, 70
4, 27948, Control_c, 2, 7, 69
4, 27950, Control_c, 2, 7, 68
4, 27952, Control_c, 2, 7, 67
4, 27954, Control_c, 2, 7, 66
4, 27956, Control_c, 2, 7, 65
4, 27959, Control_c, 2, 7, 64
4, 27960, Control_c, 2, 7, 64
4, 29760, Control_c, 2, 7, 96
4, 29760, Control_c, 2, 7, 120
4, 29762, Control_c, 2, 7, 106
4, 29762, Control_c, 2, 7, 119
4, 29764, Control_c, 2, 7, 105
4, 29764, Control_c, 2, 7, 118
4, 29766, Control_c, 2, 7, 104
4, 29766, Control_c, 2, 7, 117
4, 29768, Control_c, 2, 7, 103
4, 29768, Control_c, 2, 7, 116
4, 29770, Control_c, 2, 7, 102
4, 29770, Control_c, 2, 7, 115
4, 29772, Control_c, 2, 7, 101
4, 29772, Control_c, 2, 7, 114
4, 29774, Control_c, 2, 7, 95
4, 29774, Control_c, 2, 7, 100
4, 29774, Control_c, 2, 7, 113
4, 29777, Control_c, 2, 7, 99
4, 29777, Control_c, 2, 7, 112
4, 29779, Control_c, 2, 7, 98
4, 29779, Control_c, 2, 7, 111
4, 29781, Control_c, 2, 7, 97
4, 29781, Control_c, 2, 7, 110
4, 29783, Control_c, 2, 7, 96
4, 29783, Control_c, 2, 7, 109
4, 29785, Control_c, 2, 7, 95
4, 29785, Control_c, 2, 7, 108
4, 29787, Control_c, 2, 7, 94
4, 29787, Control_c, 2, 7, 107
4, 29789, Control_c, 2, 7, 94
4, 29789, Control_c, 2, 7, 93
4, 29789, Control_c, 2, 7, 106
4, 29791, Control_c, 2, 7, 105
4, 29792, Control_c, 2, 7, 92
4, 29794, Control_c, 2, 7, 91
4, 29794, Control_c, 2, 7, 104
4, 29796, Control_c, 2, 7, 90
4, 29796, Control_c, 2, 7, 103
4, 29798, Control_c, 2, 7, 89
4, 29798, Control_c, 2, 7, 102
4, 29800, Control_c, 2, 7, 88
4, 29800, Control_c, 2, 7, 101
4, 29802, Control_c, 2, 7, 87
4, 29802, Control_c, 2, 7, 100
4, 29804, Control_c, 2, 7, 93
4, 29804, Control_c, 2, 7, 86
4, 29804, Control_c, 2, 7, 99
4, 29806, Control_c, 2, 7, 98
4, 29807, Control_c, 2, 7, 85
4, 29808, Control_c, 2, 7, 97
4, 29809, Control_c, 2, 7, 84
4, 29811, Control_c, 2, 7, 83
4, 29811, Control_c, 2, 7, 96
4, 29813, Control_c, 2, 7, 82
4, 29813, Control_c, 2, 7, 95
4, 29815, Control_c, 2, 7, 81
4, 29815, Control_c, 2, 7, 94
4, 29817, Control_c, 2, 7, 80
4, 29817, Control_c, 2, 7, 93
4, 29819, Control_c, 2, 7, 92
4, 29819, Control_c, 2, 7, 79
4, 29819, Control_c, 2, 7, 92
4, 29821, Control_c, 2, 7, 91
4, 29822, Control_c, 2, 7, 78
4, 29823, Control_c, 2, 7, 90
4, 29824, Control_c, 2, 7, 77
4, 29825, Control_c, 2, 7, 89
4, 29826, Control_c, 2, 7, 76
4, 29828, Control_c, 2, 7, 75
4, 29828, Control_c, 2, 7, 88
4, 29830, Control_c, 2, 7, 74
4, 29830, Control_c, 2, 7, 87
4, 29832, Control_c, 2, 7, 73
4, 29832, Control_c, 2, 7, 86
4, 29834, Control_c, 2, 7, 91
4, 29834, Control_c, 2, 7, 72
4, 29834, Control_c, 2, 7, 85
4, 29836, Control_c, 2, 7, 84
4, 29837, Control_c, 2, 7, 71
4, 29838, Control_c, 2, 7, 83
4, 29839, Control_c, 2, 7, 70
4, 29840, Control_c, 2, 7, 82
4, 29841, Control_c, 2, 7, 69
4, 29842, Control_c, 2, 7, 81
4, 29843, Control_c, 2, 7, 68
4, 29845, Control_c, 2, 7, 67
4, 29845, Control_c, 2, 7, 80
4, 29847, Control_c, 2, 7, 66
4, 29847, Control_c, 2, 7, 79
4, 29849, Control_c, 2, 7, 90
4, 29849, Control_c, 2, 7, 65
4, 29849, Control_c, 2, 7, 78
4, 29851, Control_c, 2, 7, 77
4, 29852, Control_c, 2, 7, 64
4, 29853, Control_c, 2, 7, 76
4, 29855, Control_c, 2, 7, 75
4, 29857, Control_c, 2, 7, 74
4, 29859, Control_c, 2, 7, 73
4, 29862, Control_c, 2, 7, 72
4, 29864, Control_c, 2, 7, 89
4, 29864, Control_c, 2, 7, 71
4, 29866, Control_c, 2, 7, 70
4, 29868, Control_c, 2, 7, 69
4, 29870, Control_c, 2, 7, 68
4, 29872, Control_c, 2, 7, 67
4, 29874, Control_c, 2, 7, 66
4, 29876, Control_c, 2, 7, 65
4, 29879, Control_c, 2, 7, 88
4, 29879, Control_c, 2, 7, 64
4, 29880, Control_c, 2, 7, 64
4, 29894, Control_c, 2, 7, 87
4, 29909, Control_c, 2, 7, 86
4, 29924, Control_c, 2, 7, 85
4, 29939, Control_c, 2, 7, 84
4, 29954, Control_c, 2, 7, 83
4, 29969, Control_c, 2, 7, 82
4, 29984, Control_c, 2, 7, 81
4, 29999, Control_c, 2, 7, 80
4, 30014, Control_c, 2, 7, 79
4, 30029, Control_c, 2, 7, 78
4, 30044, Control_c, 2, 7, 77
4, 30059, Control_c, 2, 7, 76
4, 30074, Control_c, 2, 7, 75
4, 30089, Control_c, 2, 7, 74
4, 30104, Control_c, 2, 7, 73
4, 30119, Control_c, 2, 7, 72
4, 30134, Control_c, 2, 7, 71
4, 30149, Control_c, 2, 7, 70
4, 30164, Control_c, 2, 7, 69
4, 30179, Control_c, 2, 7, 68
4, 30194, Control_c, 2, 7, 67
4, 30209, Control_c, 2, 7, 66
4, 30213, Control_c, 2, 7, 115
4, 30215, Control_c, 2, 7, 114
4, 30218, Control_c, 2, 7, 113
4, 30220, Control_c, 2, 7, 112
4, 30222, Control_c, 2, 7, 111
4, 30224, Control_c, 2, 7, 65
4, 30224, Control_c, 2, 7, 110
4, 30226, Control_c, 2, 7, 109
4, 30228, Control_c, 2, 7, 108
4, 30230, Control_c, 2, 7, 107
4, 30233, Control_c, 2, 7, 106
4, 30235, Control_c, 2, 7, 105
4, 30237, Control_c, 2, 7, 104
4, 30239, Control_c, 2, 7, 64
4, 30239, Control_c, 2, 7, 103
4, 30240, Control_c, 2, 7, 96
4, 30240, Control_c, 2, 7, 120
4, 30241, Control_c, 2, 7, 102
4, 30242, Control_c, 2, 7, 119
4, 30243, Control_c, 2, 7, 101
4, 30244, Control_c, 2, 7, 118
4, 30245, Control_c, 2, 7, 100
4, 30246, Control_c, 2, 7, 117
4, 30248, Control_c, 2, 7, 99
4, 30248, Control_c, 2, 7, 116
4, 30250, Control_c, 2, 7, 98
4, 30250, Control_c, 2, 7, 115
4, 30252, Control_c, 2, 7, 97
4, 30252, Control_c, 2, 7, 114
4, 30254, Control_c, 2, 7, 95
4, 30254, Control_c, 2, 7, 96
4, 30254, Control_c, 2, 7, 113
4, 30256, Control_c, 2, 7, 95
4, 30257, Control_c, 2, 7, 112
4, 30258, Control_c, 2, 7, 94
4, 30259, Control_c, 2, 7, 111
4, 30260, Control_c, 2, 7, 93
4, 30261, Control_c, 2, 7, 110
4, 30263, Control_c, 2, 7, 92
4, 30263, Control_c, 2, 7, 109
4, 30265, Control_c, 2, 7, 91
4, 30265, Control_c, 2, 7, 108
4, 30267, Control_c, 2, 7, 90
4, 30267, Control_c, 2, 7, 107
4, 30269, Control_c, 2, 7, 94
4, 30269, Control_c, 2, 7, 89
4, 30269, Control_c, 2, 7, 106
4, 30271, Control_c, 2, 7, 88
4, 30271, Control_c, 2, 7, 105
4, 30273, Control_c, 2, 7, 87
4, 30274, Control_c, 2, 7, 104
4, 30275, Control_c, 2, 7, 86
4, 30276, Control_c, 2, 7, 103
4, 30278, Control_c, 2, 7, 85
4, 30278, Control_c, 2, 7, 102
4, 30280, Control_c, 2, 7, 84
4, 30280, Control_c, 2, 7, 101
4, 30282, Control_c, 2, 7, 83
4, 30282, Control_c, 2, 7, 100
4, 30284, Control_c, 2, 7, 93
4, 30284, Control_c, 2, 7, 82
4, 30284, Control_c, 2, 7, 99
4, 30286, Control_c, 2, 7, 81
4, 30286, Control_c, 2, 7, 98
4, 30288, Control_c, 2, 7, 80
4, 30288, Control_c, 2, 7, 97
4, 30290, Control_c, 2, 7, 79
4, 30291, Control_c, 2, 7, 96
4, 30293, Control_c, 2, 7, 78
4, 30293, Control_c, 2, 7, 95
4, 30295, Control_c, 2, 7, 77
4, 30295, Control_c, 2, 7, 94
4, 30297, Control_c, 2, 7, 76
4, 30297, Control_c, 2, 7, 93
4, 30299, Control_c, 2, 7, 92
4, 30299, Control_c, 2, 7, 75
4, 30299, Control_c, 2, 7, 92
4, 30301, Control_c, 2, 7, 74
4, 30301, Control_c, 2, 7, 91
4, 30303, Control_c, 2, 7, 73
4, 30303, Control_c, 2, 7, 90
4, 30305, Control_c, 2, 7, 72
4, 30305, Control_c, 2, 7, 89
4, 30308, Control_c, 2, 7, 71
4, 30308, Control_c, 2, 7, 88
4, 30310, Control_c, 2, 7, 70
4, 30310, Control_c, 2, 7, 87
4, 30312, Control_c, 2, 7, 69
4, 30312, Control_c, 2, 7, 86
4, 30314, Control_c, 2, 7, 91
4, 30314, Control_c, 2, 7, 68
4, 30314, Control_c, 2, 7, 85
4, 30316, Control_c, 2, 7, 67
4, 30316, Control_c, 2, 7, 84
4, 30318, Control_c, 2, 7, 66
4, 30318, Control_c, 2, 7, 83
4, 30320, Control_c, 2, 7, 65
4, 30320, Control_c, 2, 7, 82
4, 30322, Control_c, 2, 7, 81
4, 30323, Control_c, 2, 7, 64
4, 30325, Control_c, 2, 7, 80
4, 30327, Control_c, 2, 7, 79
4, 30329, Control_c, 2, 7, 90
4, 30329, Control_c, 2, 7, 78
4, 30331, Control_c, 2, 7, 77
4, 30333, Control_c, 2, 7, 76
4, 30335, Control_c, 2, 7, 75
4, 30337, Control_c, 2, 7, 74
4, 30339, Control_c, 2, 7, 73
4, 30342, Control_c, 2, 7, 72
4, 30344, Control_c, 2, 7, 89
4, 30344, Control_c, 2, 7, 71
4, 30346, Control_c, 2, 7, 70
4, 30348, Control_c, 2, 7, 69
4, 30350, Control_c, 2, 7, 68
4, 30352, Control_c, 2, 7, 67
4, 30354, Control_c, 2, 7, 66
4, 30356, Control_c, 2, 7, 65
4, 30359, Control_c, 2, 7, 88
4, 30359, Control_c, 2, 7, 64
4, 30360, Control_c, 2, 7, 64
4, 30374, Control_c, 2, 7, 87
4, 30389, Control_c, 2, 7, 86
4, 30404, Control_c, 2, 7, 85
4, 30419, Control_c, 2, 7, 84
4, 30434, Control_c, 2, 7, 83
4, 30449, Control_c, 2, 7, 82
4, 30464, Control_c, 2, 7, 81
4, 30479, Control_c, 2, 7, 80
4, 30494, Control_c, 2, 7, 79
4, 30509, Control_c, 2, 7, 78
4, 30524, Control_c, 2, 7, 77
4, 30539, Control_c, 2, 7, 76
4, 30554, Control_c, 2, 7, 75
4, 30569, Control_c, 2, 7, 74
4, 30584, Control_c, 2, 7, 73
4, 30599, Control_c, 2, 7, 72
4, 30614, Control_c, 2, 7, 71
4, 30629, Control_c, 2, 7, 70
4, 30644, Control_c, 2, 7, 69
4, 30659, Control_c, 2, 7, 68
4, 30674, Control_c, 2, 7, 67
4, 30689, Control_c, 2, 7, 66
4, 30704, Control_c, 2, 7, 65
4, 30719, Control_c, 2, 7, 64
4, 31680, Control_c, 2, 7, 120
4, 31682, Control_c, 2, 7, 119
4, 31684, Control_c, 2, 7, 118
4, 31686, Control_c, 2, 7, 117
4, 31688, Control_c, 2, 7, 116
4, 31690, Control_c, 2, 7, 115
4, 31692, Control_c, 2, 7, 114
4, 31694, Control_c, 2, 7, 113
4, 31697, Control_c, 2, 7, 112
4, 31699, Control_c, 2, 7, 111
4, 31701, Control_c, 2, 7, 110
4, 31703, Control_c, 2, 7, 109
4, 31705, Control_c, 2, 7, 108
4, 31707, Control_c, 2, 7, 107
4, 31709, Control_c, 2, 7, 106
4, 31711, Control_c, 2, 7, 105
4, 31714, Control_c, 2, 7, 104
4, 31716, Control_c, 2, 7, 103
4, 31718, Control_c, 2, 7, 102
4, 31720, Control_c, 2, 7, 101
4, 31722, Control_c, 2, 7, 100
4, 31724, Control_c, 2, 7, 99
4, 31726, Control_c, 2, 7, 98
4, 31728, Control_c, 2, 7, 97
4, 31731, Control_c, 2, 7, 96
4, 31733, Control_c, 2, 7, 95
4, 31735, Control_c, 2, 7, 94
4, 31737, Control_c, 2, 7, 93
4, 31739, Control_c, 2, 7, 92
4, 31741, Control_c, 2, 7, 91
4, 31743, Control_c, 2, 7, 90
4, 31745, Control_c, 2, 7, 89
4, 31748, Control_c, 2, 7, 88
4, 31750, Control_c, 2, 7, 87
4, 31752, Control_c, 2, 7, 86
4, 31754, Control_c, 2, 7, 85
4, 31756, Control_c, 2, 7, 84
4, 31758, Control_c, 2, 7, 83
4, 31760, Control_c, 2, 7, 82
4, 31762, Control_c, 2, 7, 81
4, 31765, Control_c, 2, 7, 80
4, 31767, Control_c, 2, 7, 79
4, 31769, Control_c, 2, 7, 78
4, 31771, Control_c, 2, 7, 77
4, 31773, Control_c, 2, 7, 76
4, 31775, Control_c, 2, 7, 75
4, 31777, Control_c, 2, 7, 74
4, 31779, Control_c, 2, 7, 73
4, 31782, Control_c, 2, 7, 72
4, 31784, Control_c, 2, 7, 71
4, 31786, Control_c, 2, 7, 70
4, 31788, Control_c, 2, 7, 69
4, 31790, Control_c, 2, 7, 68
4, 31792, Control_c, 2, 7, 67
4, 31794, Control_c, 2, 7, 66
4, 31796, Control_c, 2, 7, 65
4, 31799, Control_c, 2, 7, 64
4, 31800, Control_c, 2, 7, 64
4, 33600, Control_c, 2, 7, 96
4, 33600, Control_c, 2, 7, 120
4, 33602, Control_c, 2, 7, 106
4, 33602, Control_c, 2, 7, 119
4, 33604, Control_c, 2, 7, 105
4, 33604, Control_c, 2, 7, 118
4, 33606, Control_c, 2, 7, 104
4, 33606, Control_c, 2, 7, 117
4, 33608, Control_c, 2, 7, 103
4, 33608, Control_c, 2, 7, 116
4, 33610, Control_c, 2, 7, 102
4, 33610, Control_c, 2, 7, 115
4, 33612, Control_c, 2, 7, 101
4, 33612, Control_c, 2, 7, 114
4, 33614, Control_c, 2, 7, 95
4, 33614, Control_c, 2, 7, 100
4, 33614, Control_c, 2, 7, 113
4, 33617, Control_c, 2, 7, 99
4, 33617, Control_c, 2, 7, 112
4, 33619, Control_c, 2, 7, 98
4, 33619, Control_c, 2, 7, 111
4, 33621, Control_c, 2, 7, 97
4, 33621, Control_c, 2, 7, 110
4, 33623, Control_c, 2, 7, 96
4, 33623, Control_c, 2, 7, 109
4, 33625, Control_c, 2, 7, 95
4, 33625, Control_c, 2, 7, 108
4, 33627, Control_c, 2, 7, 94
4, 33627, Control_c, 2, 7, 107
4, 33629, Control_c, 2, 7, 94
4, 33629, Control_c, 2, 7, 93
4, 33629, Control_c, 2, 7, 106
4, 33631, Control_c, 2, 7, 105
4, 33632, Control_c, 2, 7, 92
4, 33634, Control_c, 2, 7, 91
4, 33634, Control_c, 2, 7, 104
4, 33636, Control_c, 2, 7, 90
4, 33636, Control_c, 2, 7, 103
4, 33638, Control_c, 2, 7, 89
4, 33638, Control_c, 2, 7, 102
4, 33640, Control_c, 2, 7, 88
4, 33640, Control_c, 2, 7, 101
4, 33642, Control_c, 2, 7, 87
4, 33642, Control_c, 2, 7, 100
4, 33644, Control_c, 2, 7, 93
4, 33644, Control_c, 2, 7, 86
4, 33644, Control_c, 2, 7, 99
4, 33646, Control_c, 2, 7, 98
4, 33647, Control_c, 2, 7, 85
4, 33648, Control_c, 2, 7, 97
4, 33649, Control_c, 2, 7, 84
4, 33651, Control_c, 2, 7, 83
4, 33651, Control_c, 2, 7, 96
4, 33653, Control_c, 2, 7, 82
4, 33653, Control_c, 2, 7, 95
4, 33655, Control_c, 2, 7, 81
4, 33655, Control_c, 2, 7, 94
4, 33657, Control_c, 2, 7, 80
4, 33657, Control_c, 2, 7, 93
4, 33659, Control_c, 2, 7, 92
4, 33659, Control_c, 2, 7, 79
4, 33659, Control_c, 2, 7, 92
4, 33661, Control_c, 2, 7, 91
4, 33662, Control_c, 2, 7, 78
4, 33663, Control_c, 2, 7, 90
4, 33664, Control_c, 2, 7, 77
4, 33665, Control_c, 2, 7, 89
4, 33666, Control_c, 2, 7, 76
4, 33668, Control_c, 2, 7, 75
4, 33668, Control_c, 2, 7, 88
4, 33670, Control_c, 2, 7, 74
4, 33670, Control_c, 2, 7, 87
4, 33672, Control_c, 2, 7, 73
4, 33672, Control_c, 2, 7, 86
4, 33674, Control_c, 2, 7, 91
4, 33674, Control_c, 2, 7, 72
4, 33674, Control_c, 2, 7, 85
4, 33676, Control_c, 2, 7, 84
4, 33677, Control_c, 2, 7, 71
4, 33678, Control_c, 2, 7, 83
4, 33679, Control_c, 2, 7, 70
4, 33680, Control_c, 2, 7, 82
4, 33681, Control_c, 2, 7, 69
4, 33682, Control_c, 2, 7, 81
4, 33683, Control_c, 2, 7, 68
4, 33685, Control_c, 2, 7, 67
4, 33685, Control_c, 2, 7, 80
4, 33687, Control_c, 2, 7, 66
4, 33687, Control_c, 2, 7, 79
4, 33689, Control_c, 2, 7, 90
4, 33689, Control_c, 2, 7, 65
4, 33689, Control_c, 2, 7, 78
4, 33691, Control_c, 2, 7, 77
4, 33692, Control_c, 2, 7, 64
4, 33693, Control_c, 2, 7, 76
4, 33695, Control_c, 2, 7, 75
4, 33697, Control_c, 2, 7, 74
4, 33699, Control_c, 2, 7, 73
4, 33702, Control_c, 2, 7, 72
4, 33704, Control_c, 2, 7, 89
4, 33704, Control_c, 2, 7, 71
4, 33706, Control_c, 2, 7, 70
4, 33708, Control_c, 2, 7, 69
4, 33710, Control_c, 2, 7, 68
4, 33712, Control_c, 2, 7, 67
4, 33714, Control_c, 2, 7, 66
4, 33716, Control_c, 2, 7, 65
4, 33719, Control_c, 2, 7, 88
4, 33719, Control_c, 2, 7, 64
4, 33720, Control_c, 2, 7, 64
4, 33734, Control_c, 2, 7, 87
4, 33749, Control_c, 2, 7, 86
4, 33764, Control_c, 2, 7, 85
4, 33779, Control_c, 2, 7, 84
4, 33794, Control_c, 2, 7, 83
4, 33809, Control_c, 2, 7, 82
4, 33824, Control_c, 2, 7, 81
4, 33839, Control_c, 2, 7, 80
4, 33854, Control_c, 2, 7, 79
4, 33869, Control_c, 2, 7, 78
4, 33884, Control_c, 2, 7, 77
4, 33899, Control_c, 2, 7, 76
4, 33914, Control_c, 2, 7, 75
4, 33929, Control_c, 2, 7, 74
4, 33944, Control_c, 2, 7, 73
4, 33959, Control_c, 2, 7, 72
4, 33974, Control_c, 2, 7, 71
4, 33989, Control_c, 2, 7, 70
4, 34004, Control_c, 2, 7, 69
4, 34019, Control_c, 2, 7, 68
4, 34034, Control_c, 2, 7, 67
4, 34049, Control_c, 2, 7, 66
4, 34053, Control_c, 2, 7, 115
4, 34055, Control_c, 2, 7, 114
4, 34058, Control_c, 2, 7, 113
4, 34060, Control_c, 2, 7, 112
4, 34062, Control_c, 2, 7, 111
4, 34064, Control_c, 2, 7, 65
4, 34064, Control_c, 2, 7, 110
4, 34066, Control_c, 2, 7, 109
4, 34068, Control_c, 2, 7, 108
4, 34070, Control_c, 2, 7, 107
4, 34073, Control_c, 2, 7, 106
4, 34075, Control_c, 2, 7, 105
4, 34077, Control_c, 2, 7, 104
4, 34079, Control_c, 2, 7, 64
4, 34079, Control_c, 2, 7, 103
4, 34080, Control_c, 2, 7, 96
4, 34080, Control_c, 2, 7, 120
4, 34081, Control_c, 2, 7, 102
4, 34082, Control_c, 2, 7, 119
4, 34083, Control_c, 2, 7, 101
4, 34084, Control_c, 2, 7, 118
4, 34085, Control_c, 2, 7, 100
4, 34086, Control_c, 2, 7, 117
4, 34088, Control_c, 2, 7, 99
4, 34088, Control_c, 2, 7, 116
4, 34090, Control_c, 2, 7, 98
4, 34090, Control_c, 2, 7, 115
4, 34092, Control_c, 2, 7, 97
4, 34092, Control_c, 2, 7, 114
4, 34094, Control_c, 2, 7, 95
4, 34094, Control_c, 2, 7, 96
4, 34094, Control_c, 2, 7, 113
4, 34096, Control_c, 2, 7, 95
4, 34097, Control_c, 2, 7, 112
4, 34098, Control_c, 2, 7, 94
4, 34099, Control_c, 2, 7, 111
4, 34100, Control_c, 2, 7, 93
4, 34101, Control_c, 2, 7, 110
4, 34103, Control_c, 2, 7, 92
4, 34103, Control_c, 2, 7, 109
4, 34105, Control_c, 2, 7, 91
4, 34105, Control_c, 2, 7, 108
4, 34107, Control_c, 2, 7, 90
4, 34107, Control_c, 2, 7, 107
4, 34109, Control_c, 2, 7, 94
4, 34109, Control_c, 2, 7, 89
4, 34109, Control_c, 2, 7, 106
4, 34111, Control_c, 2, 7, 88
4, 34111, Control_c, 2, 7, 105
4, 34113, Control_c, 2, 7, 87
4, 34114, Control_c, 2, 7, 104
4, 34115, Control_c, 2, 7, 86
4, 34116, Control_c, 2, 7, 103
4, 34118, Control_c, 2, 7, 85
4, 34118, Control_c, 2, 7, 102
4, 34120, Control_c, 2, 7, 84
4, 34120, Control_c, 2, 7, 101
4, 34122, Control_c, 2, 7, 83
4, 34122, Control_c, 2, 7, 100
4, 34124, Control_c, 2, 7, 93
4, 34124, Control_c, 2, 7, 82
4, 34124, Control_c, 2, 7, 99
4, 34126, Control_c, 2, 7, 81
4, 34126, Control_c, 2, 7, 98
4, 34128, Control_c, 2, 7, 80
4, 34128, Control_c, 2, 7, 97
4, 34130, Control_c, 2, 7, 79
4, 34131, Control_c, 2, 7, 96
4, 34133, Control_c, 2, 7, 78
4, 34133, Control_c, 2, 7, 95
4, 34135, Control_c, 2, 7, 77
4, 34135, Control_c, 2, 7, 94
4, 34137, Control_c, 2, 7, 76
4, 34137, Control_c, 2, 7, 93
4, 34139, Control_c, 2, 7, 92
4, 34139, Control_c, 2, 7, 75
4, 34139, Control_c, 2, 7, 92
4, 34141, Control_c, 2, 7, 74
4, 34141, Control_c, 2, 7, 91
4, 34143, Control_c, 2, 7, 73
4, 34143, Control_c, 2, 7, 90
4, 34145, Control_c, 2, 7, 72
4, 34145, Control_c, 2, 7, 89
4, 34148, Control_c, 2, 7, 71
4, 34148, Control_c, 2, 7, 88
4, 34150, Control_c, 2, 7, 70
4, 34150, Control_c, 2, 7, 87
4, 34152, Control_c, 2, 7, 69
4, 34152, Control_c, 2, 7, 86
4, 34154, Control_c, 2, 7, 91
4, 34154, Control_c, 2, 7, 68
4, 34154, Control_c, 2, 7, 85
4, 34156, Control_c, 2, 7, 67
4, 34156, Control_c, 2, 7, 84
4, 34158, Control_c, 2, 7, 66
4, 34158, Control_c, 2, 7, 83
4, 34160, Control_c, 2, 7, 65
4, 34160, Control_c, 2, 7, 82
4, 34162, Control_c, 2, 7, 81
4, 34163, Control_c, 2, 7, 64
4, 34165, Control_c, 2, 7, 80
4, 34167, Control_c, 2, 7, 79
4, 34169, Control_c, 2, 7, 90
4, 34169, Control_c, 2, 7, 78
4, 34171, Control_c, 2, 7, 77
4, 34173, Control_c, 2, 7, 76
4, 34175, Control_c, 2, 7, 75
4, 34177, Control_c, 2, 7, 74
4, 34179, Control_c, 2, 7, 73
4, 34182, Control_c, 2, 7, 72
4, 34184, Control_c, 2, 7, 89
4, 34184, Control_c, 2, 7, 71
4, 34186, Control_c, 2, 7, 70
4, 34188, Control_c, 2, 7, 69
4, 34190, Control_c, 2, 7, 68
4, 34192, Control_c, 2, 7, 67
4, 34194, Control_c, 2, 7, 66
4, 34196, Control_c, 2, 7, 65
4, 34199, Control_c, 2, 7, 88
4, 34199, Control_c, 2, 7, 64
4, 34200, Control_c, 2, 7, 64
4, 34214, Control_c, 2, 7, 87
4, 34229, Control_c, 2, 7, 86
4, 34244, Control_c, 2, 7, 85
4, 34259, Control_c, 2, 7, 84
4, 34274, Control_c, 2, 7, 83
4, 34289, Control_c, 2, 7, 82
4, 34304, Control_c, 2, 7, 81
4, 34319, Control_c, 2, 7, 80
4, 34334, Control_c, 2, 7, 79
4, 34349, Control_c, 2, 7, 78
4, 34364, Control_c, 2, 7, 77
4, 34379, Control_c, 2, 7, 76
4, 34394, Control_c, 2, 7, 75
4, 34409, Control_c, 2, 7, 74
4, 34424, Control_c, 2, 7, 73
4, 34439, Control_c, 2, 7, 72
4, 34454, Control_c, 2, 7, 71
4, 34469, Control_c, 2, 7, 70
4, 34484, Control_c, 2, 7, 69
4, 34499, Control_c, 2, 7, 68
4, 34514, Control_c, 2, 7, 67
4, 34529, Control_c, 2, 7, 66
4, 34544, Control_c, 2, 7, 65
4, 34559, Control_c, 2, 7, 64
4, 35610, Control_c, 2, 7, 108
4, 35760, Note_on_c, 2, 78, 106
4, 35760, Note_on_c, 2, 73, 106
4, 35856, Note_on_c, 2, 73, 0
4, 35856, Note_on_c, 2, 78, 0
4, 36720, Note_on_c, 2, 71, 106
4, 36720, Note_on_c, 2, 76, 106
4, 36816, Note_on_c, 2, 76, 0
4, 36816, Note_on_c, 2, 71, 0
4, 37680, Note_on_c, 2, 74, 106
4, 37680, Note_on_c, 2, 69, 106
4, 37776, Note_on_c, 2, 69, 0
4, 37776, Note_on_c, 2, 74, 0
4, 38400, Note_on_c, 2, 68, 83
4, 38400, Note_on_c, 2, 71, 83
4, 38400, Control_c, 2, 7, 88
4, 38460, Control_c, 2, 7, 89
4, 38620, Control_c, 2, 7, 90
4, 38760, Control_c, 2, 7, 96
4, 38800, Control_c, 2, 7, 97
4, 38880, Note_on_c, 2, 71, 0
4, 38880, Note_on_c, 2, 68, 0
4, 38880, Note_on_c, 2, 69, 87
4, 38880, Note_on_c, 2, 73, 87
4, 38900, Control_c, 2, 7, 98
4, 39120, Control_c, 2, 7, 100
4, 39280, Control_c, 2, 7, 101
4, 39360, Note_on_c, 2, 73, 0
4, 39360, Note_on_c, 2, 69, 0
4, 39360, Note_on_c, 2, 68, 97
4, 39360, Note_on_c, 2, 74, 97
4, 39400, Control_c, 2, 7, 103
4, 39540, Control_c, 2, 7, 104
4, 39640, Control_c, 2, 7, 105
4, 39840, Note_on_c, 2, 74, 0
4, 39840, Note_on_c, 2, 68, 0
4, 39840, Note_on_c, 2, 69, 101
4, 39840, Note_on_c, 2, 73, 101
4, 39860, Control_c, 2, 7, 107
4, 40020, Control_c, 2, 7, 108
4, 40080, Note_on_c, 2, 73, 0
4, 40080, Note_on_c, 2, 69, 0
4, 40080, Note_on_c, 2, 74, 103
4, 40080, Note_on_c, 2, 68, 103
4, 40200, Control_c, 2, 7, 109
4, 40320, Note_on_c, 2, 68, 0
4, 40320, Note_on_c, 2, 74, 0
4, 40320, Note_on_c, 2, 73, 107
4, 40320, Note_on_c, 2, 69, 107
4, 40400, Control_c, 2, 7, 115
4, 40580, Control_c, 2, 7, 116
4, 40680, Control_c, 2, 7, 117
4, 40780, Control_c, 2, 7, 118
4, 40880, Control_c, 2, 7, 119
4, 41000, Control_c, 2, 7, 120
4, 41100, Control_c, 2, 7, 122
4, 41280, Control_c, 2, 7, 122
4, 41370, Control_c, 2, 7, 120
4, 41460, Control_c, 2, 7, 119
4, 41520, Control_c, 2, 7, 118
4, 41590, Control_c, 2, 7, 116
4, 41690, Control_c, 2, 7, 114
4, 41790, Control_c, 2, 7, 112
4, 41900, Control_c, 2, 7, 110
4, 42000, Control_c, 2, 7, 108
4, 42060, Control_c, 2, 7, 107
4, 42080, Control_c, 2, 7, 106
4, 42220, Control_c, 2, 7, 104
4, 42340, Control_c, 2, 7, 102
4, 42460, Control_c, 2, 7, 100
4, 42550, Control_c, 2, 7, 99
4, 42710, Control_c, 2, 7, 98
4, 42810, Control_c, 2, 7, 97
4, 42970, Control_c, 2, 7, 96
4, 43170, Control_c, 2, 7, 95
4, 43200, Note_on_c, 2, 73, 0
4, 43200, Note_on_c, 2, 72, 83
4, 43200, Control_c, 2, 7, 123
4, 43210, Control_c, 2, 7, 122
4, 43240, Control_c, 2, 7, 121
4, 43310, Control_c, 2, 7, 119
4, 43390, Control_c, 2, 7, 113
4, 43510, Control_c, 2, 7, 107
4, 43610, Control_c, 2, 7, 105
4, 43630, Control_c, 2, 7, 104
4, 43650, Control_c, 2, 7, 103
4, 43670, Control_c, 2, 7, 102
4, 43680, Note_on_c, 2, 72, 0
4, 43680, Note_on_c, 2, 71, 83
4, 43730, Control_c, 2, 7, 100
4, 43810, Control_c, 2, 7, 98
4, 43870, Control_c, 2, 7, 97
4, 43890, Control_c, 2, 7, 96
4, 43920, Note_on_c, 2, 69, 0
4, 43920, Note_on_c, 2, 68, 83
4, 43950, Control_c, 2, 7, 95
4, 43960, Control_c, 2, 7, 94
4, 44040, Control_c, 2, 7, 92
4, 44100, Note_on_c, 2, 71, 0
4, 44112, Note_on_c, 2, 68, 0
4, 44140, Control_c, 2, 7, 86
4, 44160, Note_on_c, 2, 73, 83
4, 44160, Note_on_c, 2, 76, 83
4, 44240, Control_c, 2, 7, 85
4, 44260, Control_c, 2, 7, 83
4, 44320, Control_c, 2, 7, 82
4, 44352, Note_on_c, 2, 76, 0
4, 44352, Note_on_c, 2, 73, 0
4, 44400, Note_on_c, 2, 71, 83
4, 44400, Note_on_c, 2, 74, 83
4, 44400, Control_c, 2, 7, 81
4, 44480, Control_c, 2, 7, 79
4, 44560, Control_c, 2, 7, 78
4, 44592, Note_on_c, 2, 74, 0
4, 44592, Note_on_c, 2, 71, 0
4, 44620, Control_c, 2, 7, 77
4, 44640, Note_on_c, 2, 69, 81
4, 44640, Note_on_c, 2, 73, 81
4, 44640, Control_c, 2, 7, 76
4, 44700, Control_c, 2, 7, 74
4, 44780, Control_c, 2, 7, 73
4, 44832, Note_on_c, 2, 73, 0
4, 44832, Note_on_c, 2, 69, 0
4, 44860, Control_c, 2, 7, 72
4, 44880, Note_on_c, 2, 68, 74
4, 44880, Note_on_c, 2, 71, 74
4, 44920, Control_c, 2, 7, 71
4, 44940, Control_c, 2, 7, 70
4, 45072, Note_on_c, 2, 71, 0
4, 45072, Note_on_c, 2, 68, 0
4, 45080, Control_c, 2, 7, 69
4, 45120, Note_on_c, 2, 69, 69
4, 45120, Note_on_c, 2, 69, 69
4, 45160, Control_c, 2, 7, 68
4, 45216, Note_on_c, 2, 69, 0
4, 45216, Note_on_c, 2, 69, 0
4, 45250, Control_c, 2, 7, 67
4, 45330, Control_c, 2, 7, 66
4, 46200, Control_c, 2, 7, 96
4, 46200, Control_c, 2, 7, 96
4, 46207, Control_c, 2, 7, 95
4, 46207, Control_c, 2, 7, 95
4, 46214, Control_c, 2, 7, 94
4, 46214, Control_c, 2, 7, 94
4, 46222, Control_c, 2, 7, 93
4, 46222, Control_c, 2, 7, 93
4, 46229, Control_c, 2, 7, 92
4, 46229, Control_c, 2, 7, 92
4, 46237, Control_c, 2, 7, 91
4, 46237, Control_c, 2, 7, 91
4, 46244, Control_c, 2, 7, 90
4, 46244, Control_c, 2, 7, 90
4, 46252, Control_c, 2, 7, 89
4, 46252, Control_c, 2, 7, 89
4, 46259, Control_c, 2, 7, 88
4, 46259, Control_c, 2, 7, 88
4, 46267, Control_c, 2, 7, 87
4, 46267, Control_c, 2, 7, 87
4, 46274, Control_c, 2, 7, 86
4, 46274, Control_c, 2, 7, 86
4, 46282, Control_c, 2, 7, 85
4, 46282, Control_c, 2, 7, 85
4, 46289, Control_c, 2, 7, 84
4, 46289, Control_c, 2, 7, 84
4, 46297, Control_c, 2, 7, 83
4, 46297, Control_c, 2, 7, 83
4, 46304, Control_c, 2, 7, 82
4, 46304, Control_c, 2, 7, 82
4, 46312, Control_c, 2, 7, 81
4, 46312, Control_c, 2, 7, 81
4, 46319, Control_c, 2, 7, 80
4, 46319, Control_c, 2, 7, 80
4, 46326, Control_c, 2, 7, 79
4, 46326, Control_c, 2, 7, 79
4, 46334, Control_c, 2, 7, 78
4, 46334, Control_c, 2, 7, 78
4, 46341, Control_c, 2, 7, 77
4, 46341, Control_c, 2, 7, 77
4, 46349, Control_c, 2, 7, 76
4, 46349, Control_c, 2, 7, 76
4, 46356, Control_c, 2, 7, 75
4, 46356, Control_c, 2, 7, 75
4, 46364, Control_c, 2, 7, 74
4, 46364, Control_c, 2, 7, 74
4, 46371, Control_c, 2, 7, 73
4, 46371, Control_c, 2, 7, 73
4, 46379, Control_c, 2, 7, 72
4, 46379, Control_c, 2, 7, 72
4, 46386, Control_c, 2, 7, 71
4, 46386, Control_c, 2, 7, 71
4, 46394, Control_c, 2, 7, 70
4, 46394, Control_c, 2, 7, 70
4, 46401, Control_c, 2, 7, 69
4, 46401, Control_c, 2, 7, 69
4, 46409, Control_c, 2, 7, 68
4, 46409, Control_c, 2, 7, 68
4, 46416, Control_c, 2, 7, 67
4, 46416, Control_c, 2, 7, 67
4, 46424, Control_c, 2, 7, 66
4, 46424, Control_c, 2, 7, 66
4, 46431, Control_c, 2, 7, 65
4, 46431, Control_c, 2, 7, 65
4, 46439, Control_c, 2, 7, 64
4, 46439, Control_c, 2, 7, 64
4, 47160, Control_c, 2, 7, 96
4, 47160, Control_c, 2, 7, 96
4, 47167, Control_c, 2, 7, 95
4, 47167, Control_c, 2, 7, 95
4, 47175, Control_c, 2, 7, 94
4, 47175, Control_c, 2, 7, 94
4, 47182, Control_c, 2, 7, 93
4, 47182, Control_c, 2, 7, 93
4, 47190, Control_c, 2, 7, 92
4, 47190, Control_c, 2, 7, 92
4, 47197, Control_c, 2, 7, 91
4, 47197, Control_c, 2, 7, 91
4, 47205, Control_c, 2, 7, 90
4, 47205, Control_c, 2, 7, 90
4, 47212, Control_c, 2, 7, 89
4, 47212, Control_c, 2, 7, 89
4, 47220, Control_c, 2, 7, 88
4, 47220, Control_c, 2, 7, 88
4, 47227, Control_c, 2, 7, 87
4, 47227, Control_c, 2, 7, 87
4, 47235, Control_c, 2, 7, 86
4, 47235, Control_c, 2, 7, 86
4, 47242, Control_c, 2, 7, 85
4, 47242, Control_c, 2, 7, 85
4, 47250, Control_c, 2, 7, 84
4, 47250, Control_c, 2, 7, 84
4, 47257, Control_c, 2, 7, 83
4, 47257, Control_c, 2, 7, 83
4, 47265, Control_c, 2, 7, 82
4, 47265, Control_c, 2, 7, 82
4, 47272, Control_c, 2, 7, 81
4, 47272, Control_c, 2, 7, 81
4, 47280, Control_c, 2, 7, 80
4, 47280, Control_c, 2, 7, 80
4, 47287, Control_c, 2, 7, 79
4, 47287, Control_c, 2, 7, 79
4, 47295, Control_c, 2, 7, 78
4, 47295, Control_c, 2, 7, 78
4, 47302, Control_c, 2, 7, 77
4, 47302, Control_c, 2, 7, 77
4, 47310, Control_c, 2, 7, 76
4, 47310, Control_c, 2, 7, 76
4, 47317, Control_c, 2, 7, 75
4, 47317, Control_c, 2, 7, 75
4, 47325, Control_c, 2, 7, 74
4, 47325, Control_c, 2, 7, 74
4, 47332, Control_c, 2, 7, 73
4, 47332, Control_c, 2, 7, 73
4, 47340, Control_c, 2, 7, 72
4, 47340, Control_c, 2, 7, 72
4, 47347, Control_c, 2, 7, 71
4, 47347, Control_c, 2, 7, 71
4, 47355, Control_c, 2, 7, 70
4, 47355, Control_c, 2, 7, 70
4, 47362, Control_c, 2, 7, 69
4, 47362, Control_c, 2, 7, 69
4, 47370, Control_c, 2, 7, 68
4, 47370, Control_c, 2, 7, 68
4, 47377, Control_c, 2, 7, 67
4, 47377, Control_c, 2, 7, 67
4, 47385, Control_c, 2, 7, 66
4, 47385, Control_c, 2, 7, 66
4, 47392, Control_c, 2, 7, 65
4, 47392, Control_c, 2, 7, 65
4, 47400, Control_c, 2, 7, 64
4, 47400, Control_c, 2, 7, 64
4, 51840, Control_c, 2, 7, 64
4, 51840, Control_c, 2, 7, 64
4, 51869, Control_c, 2, 7, 65
4, 51869, Control_c, 2, 7, 65
4, 51899, Control_c, 2, 7, 66
4, 51899, Control_c, 2, 7, 66
4, 51929, Control_c, 2, 7, 67
4, 51929, Control_c, 2, 7, 67
4, 51959, Control_c, 2, 7, 68
4, 51959, Control_c, 2, 7, 68
4, 51989, Control_c, 2, 7, 69
4, 51989, Control_c, 2, 7, 69
4, 52019, Control_c, 2, 7, 70
4, 52019, Control_c, 2, 7, 70
4, 52049, Control_c, 2, 7, 71
4, 52049, Control_c, 2, 7, 71
4, 52079, Control_c, 2, 7, 72
4, 52079, Control_c, 2, 7, 72
4, 52109, Control_c, 2, 7, 73
4, 52109, Control_c, 2, 7, 73
4, 52139, Control_c, 2, 7, 74
4, 52139, Control_c, 2, 7, 74
4, 52169, Control_c, 2, 7, 75
4, 52169, Control_c, 2, 7, 75
4, 52199, Control_c, 2, 7, 76
4, 52199, Control_c, 2, 7, 76
4, 52229, Control_c, 2, 7, 77
4, 52229, Control_c, 2, 7, 77
4, 52259, Control_c, 2, 7, 78
4, 52259, Control_c, 2, 7, 78
4, 52289, Control_c, 2, 7, 79
4, 52289, Control_c, 2, 7, 79
4, 52319, Control_c, 2, 7, 80
4, 52319, Control_c, 2, 7, 80
4, 52349, Control_c, 2, 7, 81
4, 52349, Control_c, 2, 7, 81
4, 52379, Control_c, 2, 7, 82
4, 52379, Control_c, 2, 7, 82
4, 52409, Control_c, 2, 7, 83
4, 52409, Control_c, 2, 7, 83
4, 52439, Control_c, 2, 7, 84
4, 52439, Control_c, 2, 7, 84
4, 52469, Control_c, 2, 7, 85
4, 52469, Control_c, 2, 7, 85
4, 52499, Control_c, 2, 7, 86
4, 52499, Control_c, 2, 7, 86
4, 52529, Control_c, 2, 7, 87
4, 52529, Control_c, 2, 7, 87
4, 52559, Control_c, 2, 7, 88
4, 52559, Control_c, 2, 7, 88
4, 52589, Control_c, 2, 7, 89
4, 52589, Control_c, 2, 7, 89
4, 52619, Control_c, 2, 7, 90
4, 52619, Control_c, 2, 7, 90
4, 52649, Control_c, 2, 7, 91
4, 52649, Control_c, 2, 7, 91
4, 52679, Control_c, 2, 7, 92
4, 52679, Control_c, 2, 7, 92
4, 52709, Control_c, 2, 7, 93
4, 52709, Control_c, 2, 7, 93
4, 52739, Control_c, 2, 7, 94
4, 52739, Control_c, 2, 7, 94
4, 52769, Control_c, 2, 7, 95
4, 52769, Control_c, 2, 7, 95
4, 52799, Control_c, 2, 7, 96
4, 52799, Control_c, 2, 7, 96
4, 52800, Control_c, 2, 7, 96
4, 52800, Control_c, 2, 7, 96
4, 52814, Control_c, 2, 7, 95
4, 52814, Control_c, 2, 7, 95
4, 52829, Control_c, 2, 7, 94
4, 52829, Control_c, 2, 7, 94
4, 52844, Control_c, 2, 7, 93
4, 52844, Control_c, 2, 7, 93
4, 52859, Control_c, 2, 7, 92
4, 52859, Control_c, 2, 7, 92
4, 52874, Control_c, 2, 7, 91
4, 52874, Control_c, 2, 7, 91
4, 52889, Control_c, 2, 7, 90
4, 52889, Control_c, 2, 7, 90
4, 52904, Control_c, 2, 7, 89
4, 52904, Control_c, 2, 7, 89
4, 52919, Control_c, 2, 7, 88
4, 52919, Control_c, 2, 7, 88
4, 52934, Control_c, 2, 7, 87
4, 52934, Control_c, 2, 7, 87
4, 52949, Control_c, 2, 7, 86
4, 52949, Control_c, 2, 7, 86
4, 52964, Control_c, 2, 7, 85
4, 52964, Control_c, 2, 7, 85
4, 52979, Control_c, 2, 7, 84
4, 52979, Control_c, 2, 7, 84
4, 52994, Control_c, 2, 7, 83
4, 52994, Control_c, 2, 7, 83
4, 53009, Control_c, 2, 7, 82
4, 53009, Control_c, 2, 7, 82
4, 53024, Control_c, 2, 7, 81
4, 53024, Control_c, 2, 7, 81
4, 53039, Control_c, 2, 7, 80
4, 53039, Control_c, 2, 7, 80
4, 53054, Control_c, 2, 7, 79
4, 53054, Control_c, 2, 7, 79
4, 53069, Control_c, 2, 7, 78
4, 53069, Control_c, 2, 7, 78
4, 53084, Control_c, 2, 7, 77
4, 53084, Control_c, 2, 7, 77
4, 53099, Control_c, 2, 7, 76
4, 53099, Control_c, 2, 7, 76
4, 53114, Control_c, 2, 7, 75
4, 53114, Control_c, 2, 7, 75
4, 53129, Control_c, 2, 7, 74
4, 53129, Control_c, 2, 7, 74
4, 53144, Control_c, 2, 7, 73
4, 53144, Control_c, 2, 7, 73
4, 53159, Control_c, 2, 7, 72
4, 53159, Control_c, 2, 7, 72
4, 53174, Control_c, 2, 7, 71
4, 53174, Control_c, 2, 7, 71
4, 53189, Control_c, 2, 7, 70
4, 53189, Control_c, 2, 7, 70
4, 53204, Control_c, 2, 7, 69
4, 53204, Control_c, 2, 7, 69
4, 53219, Control_c, 2, 7, 68
4, 53219, Control_c, 2, 7, 68
4, 53234, Control_c, 2, 7, 67
4, 53234, Control_c, 2, 7, 67
4, 53249, Control_c, 2, 7, 66
4, 53249, Control_c, 2, 7, 66
4, 53264, Control_c, 2, 7, 65
4, 53264, Control_c, 2, 7, 65
4, 53279, Control_c, 2, 7, 64
4, 53279, Control_c, 2, 7, 64
4, 53760, Control_c, 2, 7, 64
4, 53760, Control_c, 2, 7, 64
4, 53789, Control_c, 2, 7, 65
4, 53789, Control_c, 2, 7, 65
4, 53819, Control_c, 2, 7, 66
4, 53819, Control_c, 2, 7, 66
4, 53849, Control_c, 2, 7, 67
4, 53849, Control_c, 2, 7, 67
4, 53879, Control_c, 2, 7, 68
4, 53879, Control_c, 2, 7, 68
4, 53909, Control_c, 2, 7, 69
4, 53909, Control_c, 2, 7, 69
4, 53939, Control_c, 2, 7, 70
4, 53939, Control_c, 2, 7, 70
4, 53969, Control_c, 2, 7, 71
4, 53969, Control_c, 2, 7, 71
4, 53999, Control_c, 2, 7, 72
4, 53999, Control_c, 2, 7, 72
4, 54029, Control_c, 2, 7, 73
4, 54029, Control_c, 2, 7, 73
4, 54059, Control_c, 2, 7, 74
4, 54059, Control_c, 2, 7, 74
4, 54089, Control_c, 2, 7, 75
4, 54089, Control_c, 2, 7, 75
4, 54119, Control_c, 2, 7, 76
4, 54119, Control_c, 2, 7, 76
4, 54149, Control_c, 2, 7, 77
4, 54149, Control_c, 2, 7, 77
4, 54179, Control_c, 2, 7, 78
4, 54179, Control_c, 2, 7, 78
4, 54209, Control_c, 2, 7, 79
4, 54209, Control_c, 2, 7, 79
4, 54239, Control_c, 2, 7, 80
4, 54239, Control_c, 2, 7, 80
4, 54269, Control_c, 2, 7, 81
4, 54269, Control_c, 2, 7, 81
4, 54299, Control_c, 2, 7, 82
4, 54299, Control_c, 2, 7, 82
4, 54329, Control_c, 2, 7, 83
4, 54329, Control_c, 2, 7, 83
4, 54359, Control_c, 2, 7, 84
4, 54359, Control_c, 2, 7, 84
4, 54389, Control_c, 2, 7, 85
4, 54389, Control_c, 2, 7, 85
4, 54419, Control_c, 2, 7, 86
4, 54419, Control_c, 2, 7, 86
4, 54449, Control_c, 2, 7, 87
4, 54449, Control_c, 2, 7, 87
4, 54479, Control_c, 2, 7, 88
4, 54479, Control_c, 2, 7, 88
4, 54509, Control_c, 2, 7, 89
4, 54509, Control_c, 2, 7, 89
4, 54539, Control_c, 2, 7, 90
4, 54539, Control_c, 2, 7, 90
4, 54569, Control_c, 2, 7, 91
4, 54569, Control_c, 2, 7, 91
4, 54599, Control_c, 2, 7, 92
4, 54599, Control_c, 2, 7, 92
4, 54629, Control_c, 2, 7, 93
4, 54629, Control_c, 2, 7, 93
4, 54659, Control_c, 2, 7, 94
4, 54659, Control_c, 2, 7, 94
4, 54689, Control_c, 2, 7, 95
4, 54689, Control_c, 2, 7, 95
4, 54719, Control_c, 2, 7, 96
4, 54719, Control_c, 2, 7, 96
4, 54720, Control_c, 2, 7, 96
4, 54720, Control_c, 2, 7, 96
4, 54734, Control_c, 2, 7, 95
4, 54734, Control_c, 2, 7, 95
4, 54749, Control_c, 2, 7, 94
4, 54749, Control_c, 2, 7, 94
4, 54764, Control_c, 2, 7, 93
4, 54764, Control_c, 2, 7, 93
4, 54779, Control_c, 2, 7, 92
4, 54779, Control_c, 2, 7, 92
4, 54794, Control_c, 2, 7, 91
4, 54794, Control_c, 2, 7, 91
4, 54809, Control_c, 2, 7, 90
4, 54809, Control_c, 2, 7, 90
4, 54824, Control_c, 2, 7, 89
4, 54824, Control_c, 2, 7, 89
4, 54839, Control_c, 2, 7, 88
4, 54839, Control_c, 2, 7, 88
4, 54854, Control_c, 2, 7, 87
4, 54854, Control_c, 2, 7, 87
4, 54869, Control_c, 2, 7, 86
4, 54869, Control_c, 2, 7, 86
4, 54884, Control_c, 2, 7, 85
4, 54884, Control_c, 2, 7, 85
4, 54899, Control_c, 2, 7, 84
4, 54899, Control_c, 2, 7, 84
4, 54914, Control_c, 2, 7, 83
4, 54914, Control_c, 2, 7, 83
4, 54929, Control_c, 2, 7, 82
4, 54929, Control_c, 2, 7, 82
4, 54944, Control_c, 2, 7, 81
4, 54944, Control_c, 2, 7, 81
4, 54959, Control_c, 2, 7, 80
4, 54959, Control_c, 2, 7, 80
4, 54974, Control_c, 2, 7, 79
4, 54974, Control_c, 2, 7, 79
4, 54989, Control_c, 2, 7, 78
4, 54989, Control_c, 2, 7, 78
4, 55004, Control_c, 2, 7, 77
4, 55004, Control_c, 2, 7, 77
4, 55019, Control_c, 2, 7, 76
4, 55019, Control_c, 2, 7, 76
4, 55034, Control_c, 2, 7, 75
4, 55034, Control_c, 2, 7, 75
4, 55049, Control_c, 2, 7, 74
4, 55049, Control_c, 2, 7, 74
4, 55064, Control_c, 2, 7, 73
4, 55064, Control_c, 2, 7, 73
4, 55079, Control_c, 2, 7, 72
4, 55079, Control_c, 2, 7, 72
4, 55094, Control_c, 2, 7, 71
4, 55094, Control_c, 2, 7, 71
4, 55109, Control_c, 2, 7, 70
4, 55109, Control_c, 2, 7, 70
4, 55124, Control_c, 2, 7, 69
4, 55124, Control_c, 2, 7, 69
4, 55139, Control_c, 2, 7, 68
4, 55139, Control_c, 2, 7, 68
4, 55154, Control_c, 2, 7, 67
4, 55154, Control_c, 2, 7, 67
4, 55169, Control_c, 2, 7, 66
4, 55169, Control_c, 2, 7, 66
4, 55184, Control_c, 2, 7, 65
4, 55184, Control_c, 2, 7, 65
4, 55199, Control_c, 2, 7, 64
4, 55199, Control_c, 2, 7, 64
4, 55680, Control_c, 2, 7, 64
4, 55680, Control_c, 2, 7, 64
4, 55709, Control_c, 2, 7, 65
4, 55709, Control_c, 2, 7, 65
4, 55739, Control_c, 2, 7, 66
4, 55739, Control_c, 2, 7, 66
4, 55769, Control_c, 2, 7, 67
4, 55769, Control_c, 2, 7, 67
4, 55799, Control_c, 2, 7, 68
4, 55799, Control_c, 2, 7, 68
4, 55829, Control_c, 2, 7, 69
4, 55829, Control_c, 2, 7, 69
4, 55859, Control_c, 2, 7, 70
4, 55859, Control_c, 2, 7, 70
4, 55889, Control_c, 2, 7, 71
4, 55889, Control_c, 2, 7, 71
4, 55919, Control_c, 2, 7, 72
4, 55919, Control_c, 2, 7, 72
4, 55949, Control_c, 2, 7, 73
4, 55949, Control_c, 2, 7, 73
4, 55979, Control_c, 2, 7, 74
4, 55979, Control_c, 2, 7, 74
4, 56009, Control_c, 2, 7, 75
4, 56009, Control_c, 2, 7, 75
4, 56039, Control_c, 2, 7, 76
4, 56039, Control_c, 2, 7, 76
4, 56069, Control_c, 2, 7, 77
4, 56069, Control_c, 2, 7, 77
4, 56099, Control_c, 2, 7, 78
4, 56099, Control_c, 2, 7, 78
4, 56129, Control_c, 2, 7, 79
4, 56129, Control_c, 2, 7, 79
4, 56159, Control_c, 2, 7, 80
4, 56159, Control_c, 2, 7, 80
4, 56189, Control_c, 2, 7, 81
4, 56189, Control_c, 2, 7, 81
4, 56219, Control_c, 2, 7, 82
4, 56219, Control_c, 2, 7, 82
4, 56249, Control_c, 2, 7, 83
4, 56249, Control_c, 2, 7, 83
4, 56279, Control_c, 2, 7, 84
4, 56279, Control_c, 2, 7, 84
4, 56309, Control_c, 2, 7, 85
4, 56309, Control_c, 2, 7, 85
4, 56339, Control_c, 2, 7, 86
4, 56339, Control_c, 2, 7, 86
4, 56369, Control_c, 2, 7, 87
4, 56369, Control_c, 2, 7, 87
4, 56399, Control_c, 2, 7, 88
4, 56399, Control_c, 2, 7, 88
4, 56429, Control_c, 2, 7, 89
4, 56429, Control_c, 2, 7, 89
4, 56459, Control_c, 2, 7, 90
4, 56459, Control_c, 2, 7, 90
4, 56489, Control_c, 2, 7, 91
4, 56489, Control_c, 2, 7, 91
4, 56519, Control_c, 2, 7, 92
4, 56519, Control_c, 2, 7, 92
4, 56549, Control_c, 2, 7, 93
4, 56549, Control_c, 2, 7, 93
4, 56579, Control_c, 2, 7, 94
4, 56579, Control_c, 2, 7, 94
4, 56609, Control_c, 2, 7, 95
4, 56609, Control_c, 2, 7, 95
4, 56639, Control_c, 2, 7, 96
4, 56639, Control_c, 2, 7, 96
4, 56640, Control_c, 2, 7, 96
4, 56640, Control_c, 2, 7, 96
4, 56654, Control_c, 2, 7, 95
4, 56654, Control_c, 2, 7, 95
4, 56669, Control_c, 2, 7, 94
4, 56669, Control_c, 2, 7, 94
4, 56684, Control_c, 2, 7, 93
4, 56684, Control_c, 2, 7, 93
4, 56699, Control_c, 2, 7, 92
4, 56699, Control_c, 2, 7, 92
4, 56714, Control_c, 2, 7, 91
4, 56714, Control_c, 2, 7, 91
4, 56729, Control_c, 2, 7, 90
4, 56729, Control_c, 2, 7, 90
4, 56744, Control_c, 2, 7, 89
4, 56744, Control_c, 2, 7, 89
4, 56759, Control_c, 2, 7, 88
4, 56759, Control_c, 2, 7, 88
4, 56774, Control_c, 2, 7, 87
4, 56774, Control_c, 2, 7, 87
4, 56789, Control_c, 2, 7, 86
4, 56789, Control_c, 2, 7, 86
4, 56804, Control_c, 2, 7, 85
4, 56804, Control_c, 2, 7, 85
4, 56819, Control_c, 2, 7, 84
4, 56819, Control_c, 2, 7, 84
4, 56834, Control_c, 2, 7, 83
4, 56834, Control_c, 2, 7, 83
4, 56849, Control_c, 2, 7, 82
4, 56849, Control_c, 2, 7, 82
4, 56864, Control_c, 2, 7, 81
4, 56864, Control_c, 2, 7, 81
4, 56879, Control_c, 2, 7, 80
4, 56879, Control_c, 2, 7, 80
4, 56894, Control_c, 2, 7, 79
4, 56894, Control_c, 2, 7, 79
4, 56909, Control_c, 2, 7, 78
4, 56909, Control_c, 2, 7, 78
4, 56924, Control_c, 2, 7, 77
4, 56924, Control_c, 2, 7, 77
4, 56939, Control_c, 2, 7, 76
4, 56939, Control_c, 2, 7, 76
4, 56954, Control_c, 2, 7, 75
4, 56954, Control_c, 2, 7, 75
4, 56969, Control_c, 2, 7, 74
4, 56969, Control_c, 2, 7, 74
4, 56984, Control_c, 2, 7, 73
4, 56984, Control_c, 2, 7, 73
4, 56999, Control_c, 2, 7, 72
4, 56999, Control_c, 2, 7, 72
4, 57014, Control_c, 2, 7, 71
4, 57014, Control_c, 2, 7, 71
4, 57029, Control_c, 2, 7, 70
4, 57029, Control_c, 2, 7, 70
4, 57044, Control_c, 2, 7, 69
4, 57044, Control_c, 2, 7, 69
4, 57059, Control_c, 2, 7, 68
4, 57059, Control_c, 2, 7, 68
4, 57074, Control_c, 2, 7, 67
4, 57074, Control_c, 2, 7, 67
4, 57089, Control_c, 2, 7, 66
4, 57089, Control_c, 2, 7, 66
4, 57104, Control_c, 2, 7, 65
4, 57104, Control_c, 2, 7, 65
4, 57119, Control_c, 2, 7, 64
4, 57119, Control_c, 2, 7, 64
4, 57600, Control_c, 2, 7, 64
4, 57600, Control_c, 2, 7, 64
4, 57629, Control_c, 2, 7, 65
4, 57629, Control_c, 2, 7, 65
4, 57659, Control_c, 2, 7, 66
4, 57659, Control_c, 2, 7, 66
4, 57689, Control_c, 2, 7, 67
4, 57689, Control_c, 2, 7, 67
4, 57719, Control_c, 2, 7, 68
4, 57719, Control_c, 2, 7, 68
4, 57749, Control_c, 2, 7, 69
4, 57749, Control_c, 2, 7, 69
4, 57779, Control_c, 2, 7, 70
4, 57779, Control_c, 2, 7, 70
4, 57809, Control_c, 2, 7, 71
4, 57809, Control_c, 2, 7, 71
4, 57839, Control_c, 2, 7, 72
4, 57839, Control_c, 2, 7, 72
4, 57869, Control_c, 2, 7, 73
4, 57869, Control_c, 2, 7, 73
4, 57899, Control_c, 2, 7, 74
4, 57899, Control_c, 2, 7, 74
4, 57929, Control_c, 2, 7, 75
4, 57929, Control_c, 2, 7, 75
4, 57959, Control_c, 2, 7, 76
4, 57959, Control_c, 2, 7, 76
4, 57989, Control_c, 2, 7, 77
4, 57989, Control_c, 2, 7, 77
4, 58019, Control_c, 2, 7, 78
4, 58019, Control_c, 2, 7, 78
4, 58049, Control_c, 2, 7, 79
4, 58049, Control_c, 2, 7, 79
4, 58079, Control_c, 2, 7, 80
4, 58079, Control_c, 2, 7, 80
4, 58109, Control_c, 2, 7, 81
4, 58109, Control_c, 2, 7, 81
4, 58139, Control_c, 2, 7, 82
4, 58139, Control_c, 2, 7, 82
4, 58169, Control_c, 2, 7, 83
4, 58169, Control_c, 2, 7, 83
4, 58199, Control_c, 2, 7, 84
4, 58199, Control_c, 2, 7, 84
4, 58229, Control_c, 2, 7, 85
4, 58229, Control_c, 2, 7, 85
4, 58259, Control_c, 2, 7, 86
4, 58259, Control_c, 2, 7, 86
4, 58289, Control_c, 2, 7, 87
4, 58289, Control_c, 2, 7, 87
4, 58319, Control_c, 2, 7, 88
4, 58319, Control_c, 2, 7, 88
4, 58349, Control_c, 2, 7, 89
4, 58349, Control_c, 2, 7, 89
4, 58379, Control_c, 2, 7, 90
4, 58379, Control_c, 2, 7, 90
4, 58409, Control_c, 2, 7, 91
4, 58409, Control_c, 2, 7, 91
4, 58439, Control_c, 2, 7, 92
4, 58439, Control_c, 2, 7, 92
4, 58469, Control_c, 2, 7, 93
4, 58469, Control_c, 2, 7, 93
4, 58499, Control_c, 2, 7, 94
4, 58499, Control_c, 2, 7, 94
4, 58529, Control_c, 2, 7, 95
4, 58529, Control_c, 2, 7, 95
4, 58559, Control_c, 2, 7, 96
4, 58559, Control_c, 2, 7, 96
4, 58560, Note_on_c, 2, 61, 64
4, 58560, Note_on_c, 2, 64, 64
4, 58560, Control_c, 2, 7, 96
4, 58560, Control_c, 2, 7, 96
4, 58574, Control_c, 2, 7, 95
4, 58574, Control_c, 2, 7, 95
4, 58589, Control_c, 2, 7, 94
4, 58589, Control_c, 2, 7, 94
4, 58604, Control_c, 2, 7, 93
4, 58604, Control_c, 2, 7, 93
4, 58619, Control_c, 2, 7, 92
4, 58619, Control_c, 2, 7, 92
4, 58634, Control_c, 2, 7, 91
4, 58634, Control_c, 2, 7, 91
4, 58649, Control_c, 2, 7, 90
4, 58649, Control_c, 2, 7, 90
4, 58664, Control_c, 2, 7, 89
4, 58664, Control_c, 2, 7, 89
4, 58679, Control_c, 2, 7, 88
4, 58679, Control_c, 2, 7, 88
4, 58694, Control_c, 2, 7, 87
4, 58694, Control_c, 2, 7, 87
4, 58709, Control_c, 2, 7, 86
4, 58709, Control_c, 2, 7, 86
4, 58724, Control_c, 2, 7, 85
4, 58724, Control_c, 2, 7, 85
4, 58739, Control_c, 2, 7, 84
4, 58739, Control_c, 2, 7, 84
4, 58754, Control_c, 2, 7, 83
4, 58754, Control_c, 2, 7, 83
4, 58769, Control_c, 2, 7, 82
4, 58769, Control_c, 2, 7, 82
4, 58784, Control_c, 2, 7, 81
4, 58784, Control_c, 2, 7, 81
4, 58799, Control_c, 2, 7, 80
4, 58799, Control_c, 2, 7, 80
4, 58814, Control_c, 2, 7, 79
4, 58814, Control_c, 2, 7, 79
4, 58829, Control_c, 2, 7, 78
4, 58829, Control_c, 2, 7, 78
4, 58844, Control_c, 2, 7, 77
4, 58844, Control_c, 2, 7, 77
4, 58859, Control_c, 2, 7, 76
4, 58859, Control_c, 2, 7, 76
4, 58874, Control_c, 2, 7, 75
4, 58874, Control_c, 2, 7, 75
4, 58889, Control_c, 2, 7, 74
4, 58889, Control_c, 2, 7, 74
4, 58904, Control_c, 2, 7, 73
4, 58904, Control_c, 2, 7, 73
4, 58919, Control_c, 2, 7, 72
4, 58919, Control_c, 2, 7, 72
4, 58934, Control_c, 2, 7, 71
4, 58934, Control_c, 2, 7, 71
4, 58949, Control_c, 2, 7, 70
4, 58949, Control_c, 2, 7, 70
4, 58964, Control_c, 2, 7, 69
4, 58964, Control_c, 2, 7, 69
4, 58979, Control_c, 2, 7, 68
4, 58979, Control_c, 2, 7, 68
4, 58994, Control_c, 2, 7, 67
4, 58994, Control_c, 2, 7, 67
4, 59009, Control_c, 2, 7, 66
4, 59009, Control_c, 2, 7, 66
4, 59024, Control_c, 2, 7, 65
4, 59024, Control_c, 2, 7, 65
4, 59039, Control_c, 2, 7, 64
4, 59039, Control_c, 2, 7, 64
4, 59520, Note_on_c, 2, 64, 0
4, 59520, Note_on_c, 2, 61, 0
4, 59520, Note_on_c, 2, 68, 64
4, 59520, Note_on_c, 2, 71, 64
4, 60240, Control_c, 2, 7, 64
4, 60240, Control_c, 2, 7, 64
4, 60240, Control_c, 2, 7, 64
4, 60243, Control_c, 2, 7, 65
4, 60243, Control_c, 2, 7, 65
4, 60243, Control_c, 2, 7, 65
4, 60247, Control_c, 2, 7, 66
4, 60247, Control_c, 2, 7, 66
4, 60247, Control_c, 2, 7, 66
4, 60251, Control_c, 2, 7, 67
4, 60251, Control_c, 2, 7, 67
4, 60251, Control_c, 2, 7, 67
4, 60255, Control_c, 2, 7, 68
4, 60255, Control_c, 2, 7, 68
4, 60255, Control_c, 2, 7, 68
4, 60259, Control_c, 2, 7, 69
4, 60259, Control_c, 2, 7, 69
4, 60259, Control_c, 2, 7, 69
4, 60262, Control_c, 2, 7, 70
4, 60262, Control_c, 2, 7, 70
4, 60262, Control_c, 2, 7, 70
4, 60266, Control_c, 2, 7, 71
4, 60266, Control_c, 2, 7, 71
4, 60266, Control_c, 2, 7, 71
4, 60270, Control_c, 2, 7, 72
4, 60270, Control_c, 2, 7, 72
4, 60270, Control_c, 2, 7, 72
4, 60274, Control_c, 2, 7, 73
4, 60274, Control_c, 2, 7, 73
4, 60274, Control_c, 2, 7, 73
4, 60278, Control_c, 2, 7, 74
4, 60278, Control_c, 2, 7, 74
4, 60278, Control_c, 2, 7, 74
4, 60281, Control_c, 2, 7, 75
4, 60281, Control_c, 2, 7, 75
4, 60281, Control_c, 2, 7, 75
4, 60285, Control_c, 2, 7, 76
4, 60285, Control_c, 2, 7, 76
4, 60285, Control_c, 2, 7, 76
4, 60289, Control_c, 2, 7, 77
4, 60289, Control_c, 2, 7, 77
4, 60289, Control_c, 2, 7, 77
4, 60293, Control_c, 2, 7, 78
4, 60293, Control_c, 2, 7, 78
4, 60293, Control_c, 2, 7, 78
4, 60297, Control_c, 2, 7, 79
4, 60297, Control_c, 2, 7, 79
4, 60297, Control_c, 2, 7, 79
4, 60300, Control_c, 2, 7, 80
4, 60300, Control_c, 2, 7, 80
4, 60300, Control_c, 2, 7, 80
4, 60304, Control_c, 2, 7, 81
4, 60304, Control_c, 2, 7, 81
4, 60304, Control_c, 2, 7, 81
4, 60308, Control_c, 2, 7, 82
4, 60308, Control_c, 2, 7, 82
4, 60308, Control_c, 2, 7, 82
4, 60312, Control_c, 2, 7, 83
4, 60312, Control_c, 2, 7, 83
4, 60312, Control_c, 2, 7, 83
4, 60316, Control_c, 2, 7, 84
4, 60316, Control_c, 2, 7, 84
4, 60316, Control_c, 2, 7, 84
4, 60320, Control_c, 2, 7, 85
4, 60320, Control_c, 2, 7, 85
4, 60320, Control_c, 2, 7, 85
4, 60323, Control_c, 2, 7, 86
4, 60323, Control_c, 2, 7, 86
4, 60323, Control_c, 2, 7, 86
4, 60327, Control_c, 2, 7, 87
4, 60327, Control_c, 2, 7, 87
4, 60327, Control_c, 2, 7, 87
4, 60331, Control_c, 2, 7, 88
4, 60331, Control_c, 2, 7, 88
4, 60331, Control_c, 2, 7, 88
4, 60335, Control_c, 2, 7, 89
4, 60335, Control_c, 2, 7, 89
4, 60335, Control_c, 2, 7, 89
4, 60339, Control_c, 2, 7, 90
4, 60339, Control_c, 2, 7, 90
4, 60339, Control_c, 2, 7, 90
4, 60342, Control_c, 2, 7, 91
4, 60342, Control_c, 2, 7, 91
4, 60342, Control_c, 2, 7, 91
4, 60346, Control_c, 2, 7, 92
4, 60346, Control_c, 2, 7, 92
4, 60346, Control_c, 2, 7, 92
4, 60350, Control_c, 2, 7, 93
4, 60350, Control_c, 2, 7, 93
4, 60350, Control_c, 2, 7, 93
4, 60354, Control_c, 2, 7, 94
4, 60354, Control_c, 2, 7, 94
4, 60354, Control_c, 2, 7, 94
4, 60358, Control_c, 2, 7, 95
4, 60358, Control_c, 2, 7, 95
4, 60358, Control_c, 2, 7, 95
4, 60361, Control_c, 2, 7, 96
4, 60361, Control_c, 2, 7, 96
4, 60361, Control_c, 2, 7, 96
4, 60365, Control_c, 2, 7, 97
4, 60365, Control_c, 2, 7, 97
4, 60365, Control_c, 2, 7, 97
4, 60369, Control_c, 2, 7, 98
4, 60369, Control_c, 2, 7, 98
4, 60369, Control_c, 2, 7, 98
4, 60373, Control_c, 2, 7, 99
4, 60373, Control_c, 2, 7, 99
4, 60373, Control_c, 2, 7, 99
4, 60377, Control_c, 2, 7, 100
4, 60377, Control_c, 2, 7, 100
4, 60377, Control_c, 2, 7, 100
4, 60380, Control_c, 2, 7, 101
4, 60380, Control_c, 2, 7, 101
4, 60380, Control_c, 2, 7, 101
4, 60384, Control_c, 2, 7, 102
4, 60384, Control_c, 2, 7, 102
4, 60384, Control_c, 2, 7, 102
4, 60388, Control_c, 2, 7, 103
4, 60388, Control_c, 2, 7, 103
4, 60388, Control_c, 2, 7, 103
4, 60392, Control_c, 2, 7, 104
4, 60392, Control_c, 2, 7, 104
4, 60392, Control_c, 2, 7, 104
4, 60396, Control_c, 2, 7, 105
4, 60396, Control_c, 2, 7, 105
4, 60396, Control_c, 2, 7, 105
4, 60400, Control_c, 2, 7, 106
4, 60400, Control_c, 2, 7, 106
4, 60400, Control_c, 2, 7, 106
4, 60403, Control_c, 2, 7, 107
4, 60403, Control_c, 2, 7, 107
4, 60403, Control_c, 2, 7, 107
4, 60407, Control_c, 2, 7, 108
4, 60407, Control_c, 2, 7, 108
4, 60407, Control_c, 2, 7, 108
4, 60411, Control_c, 2, 7, 109
4, 60411, Control_c, 2, 7, 109
4, 60411, Control_c, 2, 7, 109
4, 60415, Control_c, 2, 7, 110
4, 60415, Control_c, 2, 7, 110
4, 60415, Control_c, 2, 7, 110
4, 60419, Control_c, 2, 7, 111
4, 60419, Control_c, 2, 7, 111
4, 60419, Control_c, 2, 7, 111
4, 60422, Control_c, 2, 7, 112
4, 60422, Control_c, 2, 7, 112
4, 60422, Control_c, 2, 7, 112
4, 60426, Control_c, 2, 7, 113
4, 60426, Control_c, 2, 7, 113
4, 60426, Control_c, 2, 7, 113
4, 60430, Control_c, 2, 7, 114
4, 60430, Control_c, 2, 7, 114
4, 60430, Control_c, 2, 7, 114
4, 60434, Control_c, 2, 7, 115
4, 60434, Control_c, 2, 7, 115
4, 60434, Control_c, 2, 7, 115
4, 60438, Control_c, 2, 7, 116
4, 60438, Control_c, 2, 7, 116
4, 60438, Control_c, 2, 7, 116
4, 60441, Control_c, 2, 7, 117
4, 60441, Control_c, 2, 7, 117
4, 60441, Control_c, 2, 7, 117
4, 60445, Control_c, 2, 7, 118
4, 60445, Control_c, 2, 7, 118
4, 60445, Control_c, 2, 7, 118
4, 60449, Control_c, 2, 7, 119
4, 60449, Control_c, 2, 7, 119
4, 60449, Control_c, 2, 7, 119
4, 60453, Control_c, 2, 7, 120
4, 60453, Control_c, 2, 7, 120
4, 60453, Control_c, 2, 7, 120
4, 60457, Control_c, 2, 7, 121
4, 60457, Control_c, 2, 7, 121
4, 60457, Control_c, 2, 7, 121
4, 60460, Control_c, 2, 7, 122
4, 60460, Control_c, 2, 7, 122
4, 60460, Control_c, 2, 7, 122
4, 60464, Control_c, 2, 7, 123
4, 60464, Control_c, 2, 7, 123
4, 60464, Control_c, 2, 7, 123
4, 60468, Control_c, 2, 7, 124
4, 60468, Control_c, 2, 7, 124
4, 60468, Control_c, 2, 7, 124
4, 60472, Control_c, 2, 7, 125
4, 60472, Control_c, 2, 7, 125
4, 60472, Control_c, 2, 7, 125
4, 60476, Control_c, 2, 7, 126
4, 60476, Control_c, 2, 7, 126
4, 60476, Control_c, 2, 7, 126
4, 60480, Note_on_c, 2, 71, 0
4, 60480, Note_on_c, 2, 68, 0
4, 60480, Note_on_c, 2, 64, 64
4, 60480, Note_on_c, 2, 67, 64
4, 61440, Note_on_c, 2, 67, 0
4, 61440, Note_on_c, 2, 64, 0
4, 61440, Note_on_c, 2, 62, 64
4, 61440, Note_on_c, 2, 66, 64
4, 61690, Control_c, 2, 7, 74
4, 61820, Control_c, 2, 7, 76
4, 61940, Control_c, 2, 7, 82
4, 62040, Control_c, 2, 7, 88
4, 62120, Control_c, 2, 7, 89
4, 62130, Control_c, 2, 7, 91
4, 62210, Control_c, 2, 7, 92
4, 62270, Control_c, 2, 7, 93
4, 62350, Control_c, 2, 7, 94
4, 62400, Note_on_c, 2, 66, 0
4, 62400, Note_on_c, 2, 62, 0
4, 62400, Note_on_c, 2, 73, 64
4, 62400, Note_on_c, 2, 67, 64
4, 62470, Control_c, 2, 7, 96
4, 62610, Control_c, 2, 7, 97
4, 62710, Control_c, 2, 7, 98
4, 62790, Control_c, 2, 7, 99
4, 62880, Note_on_c, 2, 67, 0
4, 62880, Note_on_c, 2, 73, 0
4, 62880, Note_on_c, 2, 66, 64
4, 62880, Note_on_c, 2, 74, 64
4, 63360, Note_on_c, 2, 74, 0
4, 63360, Note_on_c, 2, 66, 0
4, 63360, Note_on_c, 2, 73, 64
4, 63360, Note_on_c, 2, 76, 64
4, 63550, Control_c, 2, 7, 98
4, 63670, Control_c, 2, 7, 97
4, 63680, Control_c, 2, 7, 96
4, 63700, Control_c, 2, 7, 95
4, 63760, Control_c, 2, 7, 94
4, 63820, Control_c, 2, 7, 92
4, 63900, Control_c, 2, 7, 91
4, 63980, Control_c, 2, 7, 89
4, 64040, Control_c, 2, 7, 87
4, 64060, Control_c, 2, 7, 86
4, 64080, Control_c, 2, 7, 85
4, 64100, Control_c, 2, 7, 84
4, 64110, Control_c, 2, 7, 83
4, 64140, Control_c, 2, 7, 82
4, 64220, Control_c, 2, 7, 76
4, 64300, Control_c, 2, 7, 75
4, 64360, Control_c, 2, 7, 73
4, 64380, Control_c, 2, 7, 72
4, 64440, Control_c, 2, 7, 70
4, 64460, Control_c, 2, 7, 69
4, 64470, Note_on_c, 2, 76, 0
4, 64470, Note_on_c, 2, 73, 0
4, 64480, Control_c, 2, 7, 68
4, 64580, Control_c, 2, 7, 66
4, 64590, Control_c, 2, 7, 66
4, 65179, Control_c, 2, 7, 64
4, 65275, Control_c, 2, 7, 63
4, 65280, Control_c, 2, 7, 67
4, 65372, Control_c, 2, 7, 62
4, 65468, Control_c, 2, 7, 61
4, 65564, Control_c, 2, 7, 60
4, 65660, Control_c, 2, 7, 59
4, 65756, Control_c, 2, 7, 58
4, 65853, Control_c, 2, 7, 57
4, 65949, Control_c, 2, 7, 56
4, 66045, Control_c, 2, 7, 55
4, 66141, Control_c, 2, 7, 54
4, 66237, Control_c, 2, 7, 53
4, 66334, Control_c, 2, 7, 52
4, 66430, Control_c, 2, 7, 51
4, 66526, Control_c, 2, 7, 50
4, 66622, Control_c, 2, 7, 49
4, 66719, Control_c, 2, 7, 48
4, 69590, Control_c, 2, 7, 63
4, 69740, Control_c, 2, 7, 65
4, 70040, Control_c, 2, 7, 63
4, 70050, Control_c, 2, 7, 64
4, 70070, Control_c, 2, 7, 67
4, 70080, Control_c, 2, 7, 68
4, 70090, Control_c, 2, 7, 69
4, 70160, Control_c, 2, 7, 71
4, 70190, Control_c, 2, 7, 73
4, 70200, Note_on_c, 2, 54, 47
4, 70200, Note_on_c, 2, 57, 47
4, 70210, Control_c, 2, 7, 74
4, 70230, Control_c, 2, 7, 75
4, 70250, Control_c, 2, 7, 76
4, 70260, Control_c, 2, 7, 77
4, 70280, Control_c, 2, 7, 78
4, 70300, Control_c, 2, 7, 80
4, 70320, Note_on_c, 2, 57, 0
4, 70320, Note_on_c, 2, 54, 0
4, 70320, Note_on_c, 2, 57, 65
4, 70320, Note_on_c, 2, 62, 65
4, 70330, Control_c, 2, 7, 81
4, 70340, Control_c, 2, 7, 83
4, 70370, Control_c, 2, 7, 84
4, 70390, Control_c, 2, 7, 85
4, 70400, Control_c, 2, 7, 87
4, 70410, Control_c, 2, 7, 88
4, 70420, Control_c, 2, 7, 90
4, 70430, Control_c, 2, 7, 91
4, 70440, Note_on_c, 2, 62, 0
4, 70440, Note_on_c, 2, 57, 0
4, 70440, Note_on_c, 2, 62, 77
4, 70440, Note_on_c, 2, 66, 77
4, 70450, Control_c, 2, 7, 91
4, 70470, Control_c, 2, 7, 92
4, 70490, Control_c, 2, 7, 93
4, 70510, Control_c, 2, 7, 94
4, 70520, Control_c, 2, 7, 95
4, 70560, Note_on_c, 2, 66, 0
4, 70560, Note_on_c, 2, 62, 0
4, 70560, Note_on_c, 2, 66, 87
4, 70560, Note_on_c, 2, 69, 87
4, 70560, Control_c, 2, 7, 96
4, 70580, Control_c, 2, 7, 95
4, 70700, Control_c, 2, 7, 94
4, 70790, Control_c, 2, 7, 93
4, 70800, Note_on_c, 2, 69, 0
4, 70800, Note_on_c, 2, 66, 0
4, 71010, Control_c, 2, 7, 95
4, 71040, Control_c, 2, 7, 96
4, 71060, Control_c, 2, 7, 97
4, 71070, Control_c, 2, 7, 98
4, 71100, Control_c, 2, 7, 100
4, 71130, Control_c, 2, 7, 101
4, 71140, Control_c, 2, 7, 102
4, 71160, Note_on_c, 2, 57, 80
4, 71160, Note_on_c, 2, 62, 80
4, 71180, Control_c, 2, 7, 104
4, 71200, Control_c, 2, 7, 105
4, 71220, Control_c, 2, 7, 106
4, 71240, Control_c, 2, 7, 107
4, 71260, Control_c, 2, 7, 108
4, 71270, Control_c, 2, 7, 109
4, 71280, Note_on_c, 2, 62, 0
4, 71280, Note_on_c, 2, 57, 0
4, 71280, Note_on_c, 2, 62, 88
4, 71280, Note_on_c, 2, 66, 88
4, 71290, Control_c, 2, 7, 110
4, 71310, Control_c, 2, 7, 112
4, 71330, Control_c, 2, 7, 114
4, 71360, Control_c, 2, 7, 116
4, 71370, Control_c, 2, 7, 117
4, 71380, Control_c, 2, 7, 118
4, 71390, Control_c, 2, 7, 119
4, 71400, Note_on_c, 2, 66, 0
4, 71400, Note_on_c, 2, 62, 0
4, 71400, Note_on_c, 2, 66, 96
4, 71400, Note_on_c, 2, 69, 96
4, 71410, Control_c, 2, 7, 121
4, 71450, Control_c, 2, 7, 123
4, 71460, Control_c, 2, 7, 124
4, 71470, Control_c, 2, 7, 125
4, 71490, Control_c, 2, 7, 126
4, 71510, Control_c, 2, 7, 127
4, 71520, Note_on_c, 2, 69, 0
4, 71520, Note_on_c, 2, 66, 0
4, 71520, Note_on_c, 2, 74, 100
4, 71520, Note_on_c, 2, 66, 100
4, 72000, Note_on_c, 2, 66, 0
4, 72000, Note_on_c, 2, 74, 0
4, 72000, Note_on_c, 2, 64, 104
4, 72000, Note_on_c, 2, 73, 104
4, 72010, Control_c, 2, 7, 127
4, 72070, Control_c, 2, 7, 126
4, 72080, Control_c, 2, 7, 124
4, 72090, Control_c, 2, 7, 123
4, 72110, Control_c, 2, 7, 121
4, 72130, Control_c, 2, 7, 119
4, 72150, Control_c, 2, 7, 117
4, 72170, Control_c, 2, 7, 114
4, 72200, Control_c, 2, 7, 113
4, 72220, Control_c, 2, 7, 111
4, 72240, Control_c, 2, 7, 110
4, 72250, Control_c, 2, 7, 109
4, 72260, Control_c, 2, 7, 108
4, 72280, Control_c, 2, 7, 106
4, 72290, Control_c, 2, 7, 105
4, 72310, Control_c, 2, 7, 104
4, 72340, Control_c, 2, 7, 103
4, 72350, Control_c, 2, 7, 102
4, 72360, Note_on_c, 2, 73, 0
4, 72360, Note_on_c, 2, 64, 0
4, 72360, Note_on_c, 2, 67, 105
4, 72360, Note_on_c, 2, 71, 105
4, 72380, Control_c, 2, 7, 101
4, 72400, Control_c, 2, 7, 100
4, 72410, Control_c, 2, 7, 99
4, 72420, Control_c, 2, 7, 98
4, 72450, Control_c, 2, 7, 97
4, 72480, Note_on_c, 2, 71, 0
4, 72480, Note_on_c, 2, 67, 0
4, 72480, Note_on_c, 2, 66, 104
4, 72480, Note_on_c, 2, 69, 104
4, 72480, Control_c, 2, 7, 109
4, 72510, Control_c, 2, 7, 108
4, 72530, Control_c, 2, 7, 106
4, 72560, Control_c, 2, 7, 105
4, 72584, Note_on_c, 2, 69, 0
4, 72584, Note_on_c, 2, 66, 0
4, 72600, Note_on_c, 2, 66, 104
4, 72600, Note_on_c, 2, 74, 104
4, 72620, Control_c, 2, 7, 99
4, 72640, Control_c, 2, 7, 97
4, 72650, Control_c, 2, 7, 96
4, 72690, Control_c, 2, 7, 94
4, 72720, Note_on_c, 2, 74, 0
4, 72720, Note_on_c, 2, 66, 0
4, 72720, Note_on_c, 2, 64, 104
4, 72720, Note_on_c, 2, 73, 104
4, 72750, Control_c, 2, 7, 92
4, 72810, Control_c, 2, 7, 90
4, 72830, Control_c, 2, 7, 89
4, 72840, Note_on_c, 2, 73, 0
4, 72840, Note_on_c, 2, 64, 0
4, 72840, Note_on_c, 2, 71, 104
4, 72840, Note_on_c, 2, 67, 104
4, 72840, Control_c, 2, 7, 88
4, 72880, Control_c, 2, 7, 86
4, 72920, Control_c, 2, 7, 85
4, 72940, Control_c, 2, 7, 84
4, 72960, Note_on_c, 2, 67, 0
4, 72960, Note_on_c, 2, 71, 0
4, 72960, Note_on_c, 2, 69, 104
4, 72960, Note_on_c, 2, 66, 104
4, 72960, Control_c, 2, 7, 98
4, 73020, Control_c, 2, 7, 97
4, 73050, Control_c, 2, 7, 96
4, 73064, Note_on_c, 2, 66, 0
4, 73064, Note_on_c, 2, 69, 0
4, 73080, Note_on_c, 2, 74, 104
4, 73080, Note_on_c, 2, 66, 104
4, 73090, Control_c, 2, 7, 94
4, 73170, Control_c, 2, 7, 93
4, 73190, Control_c, 2, 7, 92
4, 73200, Note_on_c, 2, 66, 0
4, 73200, Note_on_c, 2, 74, 0
4, 73200, Note_on_c, 2, 73, 104
4, 73200, Note_on_c, 2, 64, 104
4, 73200, Control_c, 2, 7, 91
4, 73210, Control_c, 2, 7, 90
4, 73250, Control_c, 2, 7, 89
4, 73290, Control_c, 2, 7, 88
4, 73320, Note_on_c, 2, 64, 0
4, 73320, Note_on_c, 2, 73, 0
4, 73320, Note_on_c, 2, 67, 104
4, 73320, Note_on_c, 2, 71, 104
4, 73320, Control_c, 2, 7, 86
4, 73370, Control_c, 2, 7, 85
4, 73390, Control_c, 2, 7, 84
4, 73440, Note_on_c, 2, 71, 0
4, 73440, Note_on_c, 2, 67, 0
4, 73440, Note_on_c, 2, 69, 103
4, 73440, Note_on_c, 2, 66, 103
4, 73440, Control_c, 2, 7, 81
4, 73542, Note_on_c, 2, 66, 0
4, 73542, Note_on_c, 2, 69, 0
4, 73560, Note_on_c, 2, 69, 98
4, 73560, Note_on_c, 2, 66, 98
4, 73611, Note_on_c, 2, 66, 0
4, 73611, Note_on_c, 2, 69, 0
4, 73620, Note_on_c, 2, 69, 97
4, 73620, Note_on_c, 2, 66, 97
4, 73671, Note_on_c, 2, 66, 0
4, 73671, Note_on_c, 2, 69, 0
4, 73680, Note_on_c, 2, 67, 94
4, 73680, Note_on_c, 2, 64, 94
4, 73782, Note_on_c, 2, 64, 0
4, 73782, Note_on_c, 2, 67, 0
4, 73800, Note_on_c, 2, 67, 91
4, 73800, Note_on_c, 2, 64, 91
4, 73851, Note_on_c, 2, 64, 0
4, 73851, Note_on_c, 2, 67, 0
4, 73860, Note_on_c, 2, 67, 89
4, 73860, Note_on_c, 2, 64, 89
4, 73911, Note_on_c, 2, 64, 0
4, 73911, Note_on_c, 2, 67, 0
4, 73920, Note_on_c, 2, 66, 88
4, 73920, Note_on_c, 2, 62, 88
4, 74022, Note_on_c, 2, 62, 0
4, 74022, Note_on_c, 2, 66, 0
4, 74040, Note_on_c, 2, 62, 84
4, 74040, Note_on_c, 2, 66, 84
4, 74091, Note_on_c, 2, 66, 0
4, 74091, Note_on_c, 2, 62, 0
4, 74100, Note_on_c, 2, 62, 84
4, 74100, Note_on_c, 2, 66, 84
4, 74151, Note_on_c, 2, 66, 0
4, 74151, Note_on_c, 2, 62, 0
4, 74160, Note_on_c, 2, 64, 82
4, 74160, Note_on_c, 2, 61, 82
4, 74262, Note_on_c, 2, 61, 0
4, 74262, Note_on_c, 2, 64, 0
4, 74280, Note_on_c, 2, 61, 80
4, 74280, Note_on_c, 2, 64, 80
4, 74331, Note_on_c, 2, 64, 0
4, 74331, Note_on_c, 2, 61, 0
4, 74340, Note_on_c, 2, 64, 78
4, 74340, Note_on_c, 2, 61, 78
4, 74391, Note_on_c, 2, 61, 0
4, 74391, Note_on_c, 2, 64, 0
4, 74400, Note_on_c, 2, 62, 78
4, 74400, Note_on_c, 2, 62, 78
4, 74640, Note_on_c, 2, 62, 0
4, 74640, Note_on_c, 2, 62, 0
4, 78240, Note_on_c, 2, 73, 91
4, 78240, Note_on_c, 2, 69, 91
4, 78480, Note_on_c, 2, 69, 0
4, 78480, Note_on_c, 2, 67, 91
4, 78720, Note_on_c, 2, 67, 0
4, 78720, Note_on_c, 2, 73, 0
4, 78720, Note_on_c, 2, 74, 91
4, 78720, Note_on_c, 2, 66, 91
4, 79200, Note_on_c, 2, 66, 0
4, 79200, Note_on_c, 2, 74, 0
4, 79200, Note_on_c, 2, 73, 91
4, 79200, Note_on_c, 2, 64, 91
4, 79680, Note_on_c, 2, 64, 0
4, 79680, Note_on_c, 2, 73, 0
4, 79680, Note_on_c, 2, 74, 91
4, 79680, Note_on_c, 2, 66, 91
4, 80160, Note_on_c, 2, 66, 0
4, 80160, Note_on_c, 2, 74, 0
4, 80160, Note_on_c, 2, 73, 91
4, 80160, Note_on_c, 2, 64, 91
4, 80340, Note_on_c, 2, 73, 0
4, 80352, Note_on_c, 2, 64, 0
4, 80400, Note_on_c, 2, 74, 91
4, 80400, Note_on_c, 2, 66, 91
4, 80592, Note_on_c, 2, 66, 0
4, 80592, Note_on_c, 2, 74, 0
4, 80640, Note_on_c, 2, 64, 91
4, 80640, Note_on_c, 2, 73, 91
4, 80832, Note_on_c, 2, 73, 0
4, 80832, Note_on_c, 2, 64, 0
4, 80880, Note_on_c, 2, 66, 91
4, 80880, Note_on_c, 2, 74, 91
4, 81072, Note_on_c, 2, 74, 0
4, 81072, Note_on_c, 2, 66, 0
4, 81120, Note_on_c, 2, 64, 91
4, 81120, Note_on_c, 2, 73, 91
4, 81232, Note_on_c, 2, 73, 0
4, 81232, Note_on_c, 2, 64, 0
4, 81240, Note_on_c, 2, 69, 91
4, 81240, Note_on_c, 2, 69, 91
4, 81288, Note_on_c, 2, 69, 0
4, 81288, Note_on_c, 2, 69, 0
4, 81300, Note_on_c, 2, 69, 91
4, 81300, Note_on_c, 2, 69, 91
4, 81348, Note_on_c, 2, 69, 0
4, 81348, Note_on_c, 2, 69, 0
4, 81360, Note_on_c, 2, 69, 91
4, 81360, Note_on_c, 2, 69, 91
4, 81472, Note_on_c, 2, 69, 0
4, 81472, Note_on_c, 2, 69, 0
4, 81480, Note_on_c, 2, 69, 91
4, 81480, Note_on_c, 2, 69, 91
4, 81592, Note_on_c, 2, 69, 0
4, 81592, Note_on_c, 2, 69, 0
4, 81600, Note_on_c, 2, 69, 91
4, 81600, Note_on_c, 2, 69, 91
4, 81825, Note_on_c, 2, 69, 0
4, 81825, Note_on_c, 2, 69, 0
4, 82080, Control_c, 2, 7, 120
4, 82082, Control_c, 2, 7, 119
4, 82084, Control_c, 2, 7, 118
4, 82086, Control_c, 2, 7, 117
4, 82088, Control_c, 2, 7, 116
4, 82090, Control_c, 2, 7, 115
4, 82092, Control_c, 2, 7, 114
4, 82094, Control_c, 2, 7, 113
4, 82097, Control_c, 2, 7, 112
4, 82099, Control_c, 2, 7, 111
4, 82101, Control_c, 2, 7, 110
4, 82103, Control_c, 2, 7, 109
4, 82105, Control_c, 2, 7, 108
4, 82107, Control_c, 2, 7, 107
4, 82109, Control_c, 2, 7, 106
4, 82111, Control_c, 2, 7, 105
4, 82114, Control_c, 2, 7, 104
4, 82116, Control_c, 2, 7, 103
4, 82118, Control_c, 2, 7, 102
4, 82120, Control_c, 2, 7, 101
4, 82122, Control_c, 2, 7, 100
4, 82124, Control_c, 2, 7, 99
4, 82126, Control_c, 2, 7, 98
4, 82128, Control_c, 2, 7, 97
4, 82131, Control_c, 2, 7, 96
4, 82133, Control_c, 2, 7, 95
4, 82135, Control_c, 2, 7, 94
4, 82137, Control_c, 2, 7, 93
4, 82139, Control_c, 2, 7, 92
4, 82141, Control_c, 2, 7, 91
4, 82143, Control_c, 2, 7, 90
4, 82145, Control_c, 2, 7, 89
4, 82148, Control_c, 2, 7, 88
4, 82150, Control_c, 2, 7, 87
4, 82152, Control_c, 2, 7, 86
4, 82154, Control_c, 2, 7, 85
4, 82156, Control_c, 2, 7, 84
4, 82158, Control_c, 2, 7, 83
4, 82160, Control_c, 2, 7, 82
4, 82162, Control_c, 2, 7, 81
4, 82165, Control_c, 2, 7, 80
4, 82167, Control_c, 2, 7, 79
4, 82169, Control_c, 2, 7, 78
4, 82171, Control_c, 2, 7, 77
4, 82173, Control_c, 2, 7, 76
4, 82175, Control_c, 2, 7, 75
4, 82177, Control_c, 2, 7, 74
4, 82179, Control_c, 2, 7, 73
4, 82182, Control_c, 2, 7, 72
4, 82184, Control_c, 2, 7, 71
4, 82186, Control_c, 2, 7, 70
4, 82188, Control_c, 2, 7, 69
4, 82190, Control_c, 2, 7, 68
4, 82192, Control_c, 2, 7, 67
4, 82194, Control_c, 2, 7, 66
4, 82196, Control_c, 2, 7, 65
4, 82199, Control_c, 2, 7, 64
4, 82200, Control_c, 2, 7, 64
4, 84000, Control_c, 2, 7, 96
4, 84000, Control_c, 2, 7, 120
4, 84002, Control_c, 2, 7, 106
4, 84002, Control_c, 2, 7, 119
4, 84004, Control_c, 2, 7, 105
4, 84004, Control_c, 2, 7, 118
4, 84006, Control_c, 2, 7, 104
4, 84006, Control_c, 2, 7, 117
4, 84008, Control_c, 2, 7, 103
4, 84008, Control_c, 2, 7, 116
4, 84010, Control_c, 2, 7, 102
4, 84010, Control_c, 2, 7, 115
4, 84012, Control_c, 2, 7, 101
4, 84012, Control_c, 2, 7, 114
4, 84014, Control_c, 2, 7, 95
4, 84014, Control_c, 2, 7, 100
4, 84014, Control_c, 2, 7, 113
4, 84017, Control_c, 2, 7, 99
4, 84017, Control_c, 2, 7, 112
4, 84019, Control_c, 2, 7, 98
4, 84019, Control_c, 2, 7, 111
4, 84021, Control_c, 2, 7, 97
4, 84021, Control_c, 2, 7, 110
4, 84023, Control_c, 2, 7, 96
4, 84023, Control_c, 2, 7, 109
4, 84025, Control_c, 2, 7, 95
4, 84025, Control_c, 2, 7, 108
4, 84027, Control_c, 2, 7, 94
4, 84027, Control_c, 2, 7, 107
4, 84029, Control_c, 2, 7, 94
4, 84029, Control_c, 2, 7, 93
4, 84029, Control_c, 2, 7, 106
4, 84031, Control_c, 2, 7, 105
4, 84032, Control_c, 2, 7, 92
4, 84034, Control_c, 2, 7, 91
4, 84034, Control_c, 2, 7, 104
4, 84036, Control_c, 2, 7, 90
4, 84036, Control_c, 2, 7, 103
4, 84038, Control_c, 2, 7, 89
4, 84038, Control_c, 2, 7, 102
4, 84040, Control_c, 2, 7, 88
4, 84040, Control_c, 2, 7, 101
4, 84042, Control_c, 2, 7, 87
4, 84042, Control_c, 2, 7, 100
4, 84044, Control_c, 2, 7, 93
4, 84044, Control_c, 2, 7, 86
4, 84044, Control_c, 2, 7, 99
4, 84046, Control_c, 2, 7, 98
4, 84047, Control_c, 2, 7, 85
4, 84048, Control_c, 2, 7, 97
4, 84049, Control_c, 2, 7, 84
4, 84051, Control_c, 2, 7, 83
4, 84051, Control_c, 2, 7, 96
4, 84053, Control_c, 2, 7, 82
4, 84053, Control_c, 2, 7, 95
4, 84055, Control_c, 2, 7, 81
4, 84055, Control_c, 2, 7, 94
4, 84057, Control_c, 2, 7, 80
4, 84057, Control_c, 2, 7, 93
4, 84059, Control_c, 2, 7, 92
4, 84059, Control_c, 2, 7, 79
4, 84059, Control_c, 2, 7, 92
4, 84061, Control_c, 2, 7, 91
4, 84062, Control_c, 2, 7, 78
4, 84063, Control_c, 2, 7, 90
4, 84064, Control_c, 2, 7, 77
4, 84065, Control_c, 2, 7, 89
4, 84066, Control_c, 2, 7, 76
4, 84068, Control_c, 2, 7, 75
4, 84068, Control_c, 2, 7, 88
4, 84070, Control_c, 2, 7, 74
4, 84070, Control_c, 2, 7, 87
4, 84072, Control_c, 2, 7, 73
4, 84072, Control_c, 2, 7, 86
4, 84074, Control_c, 2, 7, 91
4, 84074, Control_c, 2, 7, 72
4, 84074, Control_c, 2, 7, 85
4, 84076, Control_c, 2, 7, 84
4, 84077, Control_c, 2, 7, 71
4, 84078, Control_c, 2, 7, 83
4, 84079, Control_c, 2, 7, 70
4, 84080, Control_c, 2, 7, 82
4, 84081, Control_c, 2, 7, 69
4, 84082, Control_c, 2, 7, 81
4, 84083, Control_c, 2, 7, 68
4, 84085, Control_c, 2, 7, 67
4, 84085, Control_c, 2, 7, 80
4, 84087, Control_c, 2, 7, 66
4, 84087, Control_c, 2, 7, 79
4, 84089, Control_c, 2, 7, 90
4, 84089, Control_c, 2, 7, 65
4, 84089, Control_c, 2, 7, 78
4, 84091, Control_c, 2, 7, 77
4, 84092, Control_c, 2, 7, 64
4, 84093, Control_c, 2, 7, 76
4, 84095, Control_c, 2, 7, 75
4, 84097, Control_c, 2, 7, 74
4, 84099, Control_c, 2, 7, 73
4, 84102, Control_c, 2, 7, 72
4, 84104, Control_c, 2, 7, 89
4, 84104, Control_c, 2, 7, 71
4, 84106, Control_c, 2, 7, 70
4, 84108, Control_c, 2, 7, 69
4, 84110, Control_c, 2, 7, 68
4, 84112, Control_c, 2, 7, 67
4, 84114, Control_c, 2, 7, 66
4, 84116, Control_c, 2, 7, 65
4, 84119, Control_c, 2, 7, 88
4, 84119, Control_c, 2, 7, 64
4, 84120, Control_c, 2, 7, 64
4, 84134, Control_c, 2, 7, 87
4, 84149, Control_c, 2, 7, 86
4, 84164, Control_c, 2, 7, 85
4, 84179, Control_c, 2, 7, 84
4, 84194, Control_c, 2, 7, 83
4, 84209, Control_c, 2, 7, 82
4, 84224, Control_c, 2, 7, 81
4, 84239, Control_c, 2, 7, 80
4, 84254, Control_c, 2, 7, 79
4, 84269, Control_c, 2, 7, 78
4, 84284, Control_c, 2, 7, 77
4, 84299, Control_c, 2, 7, 76
4, 84314, Control_c, 2, 7, 75
4, 84329, Control_c, 2, 7, 74
4, 84344, Control_c, 2, 7, 73
4, 84359, Control_c, 2, 7, 72
4, 84374, Control_c, 2, 7, 71
4, 84389, Control_c, 2, 7, 70
4, 84404, Control_c, 2, 7, 69
4, 84419, Control_c, 2, 7, 68
4, 84434, Control_c, 2, 7, 67
4, 84449, Control_c, 2, 7, 66
4, 84453, Control_c, 2, 7, 115
4, 84455, Control_c, 2, 7, 114
4, 84458, Control_c, 2, 7, 113
4, 84460, Control_c, 2, 7, 112
4, 84462, Control_c, 2, 7, 111
4, 84464, Control_c, 2, 7, 65
4, 84464, Control_c, 2, 7, 110
4, 84466, Control_c, 2, 7, 109
4, 84468, Control_c, 2, 7, 108
4, 84470, Control_c, 2, 7, 107
4, 84473, Control_c, 2, 7, 106
4, 84475, Control_c, 2, 7, 105
4, 84477, Control_c, 2, 7, 104
4, 84479, Control_c, 2, 7, 64
4, 84479, Control_c, 2, 7, 103
4, 84480, Control_c, 2, 7, 96
4, 84480, Control_c, 2, 7, 120
4, 84481, Control_c, 2, 7, 102
4, 84482, Control_c, 2, 7, 119
4, 84483, Control_c, 2, 7, 101
4, 84484, Control_c, 2, 7, 118
4, 84485, Control_c, 2, 7, 100
4, 84486, Control_c, 2, 7, 117
4, 84488, Control_c, 2, 7, 99
4, 84488, Control_c, 2, 7, 116
4, 84490, Control_c, 2, 7, 98
4, 84490, Control_c, 2, 7, 115
4, 84492, Control_c, 2, 7, 97
4, 84492, Control_c, 2, 7, 114
4, 84494, Control_c, 2, 7, 95
4, 84494, Control_c, 2, 7, 96
4, 84494, Control_c, 2, 7, 113
4, 84496, Control_c, 2, 7, 95
4, 84497, Control_c, 2, 7, 112
4, 84498, Control_c, 2, 7, 94
4, 84499, Control_c, 2, 7, 111
4, 84500, Control_c, 2, 7, 93
4, 84501, Control_c, 2, 7, 110
4, 84503, Control_c, 2, 7, 92
4, 84503, Control_c, 2, 7, 109
4, 84505, Control_c, 2, 7, 91
4, 84505, Control_c, 2, 7, 108
4, 84507, Control_c, 2, 7, 90
4, 84507, Control_c, 2, 7, 107
4, 84509, Control_c, 2, 7, 94
4, 84509, Control_c, 2, 7, 89
4, 84509, Control_c, 2, 7, 106
4, 84511, Control_c, 2, 7, 88
4, 84511, Control_c, 2, 7, 105
4, 84513, Control_c, 2, 7, 87
4, 84514, Control_c, 2, 7, 104
4, 84515, Control_c, 2, 7, 86
4, 84516, Control_c, 2, 7, 103
4, 84518, Control_c, 2, 7, 85
4, 84518, Control_c, 2, 7, 102
4, 84520, Control_c, 2, 7, 84
4, 84520, Control_c, 2, 7, 101
4, 84522, Control_c, 2, 7, 83
4, 84522, Control_c, 2, 7, 100
4, 84524, Control_c, 2, 7, 93
4, 84524, Control_c, 2, 7, 82
4, 84524, Control_c, 2, 7, 99
4, 84526, Control_c, 2, 7, 81
4, 84526, Control_c, 2, 7, 98
4, 84528, Control_c, 2, 7, 80
4, 84528, Control_c, 2, 7, 97
4, 84530, Control_c, 2, 7, 79
4, 84531, Control_c, 2, 7, 96
4, 84533, Control_c, 2, 7, 78
4, 84533, Control_c, 2, 7, 95
4, 84535, Control_c, 2, 7, 77
4, 84535, Control_c, 2, 7, 94
4, 84537, Control_c, 2, 7, 76
4, 84537, Control_c, 2, 7, 93
4, 84539, Control_c, 2, 7, 92
4, 84539, Control_c, 2, 7, 75
4, 84539, Control_c, 2, 7, 92
4, 84541, Control_c, 2, 7, 74
4, 84541, Control_c, 2, 7, 91
4, 84543, Control_c, 2, 7, 73
4, 84543, Control_c, 2, 7, 90
4, 84545, Control_c, 2, 7, 72
4, 84545, Control_c, 2, 7, 89
4, 84548, Control_c, 2, 7, 71
4, 84548, Control_c, 2, 7, 88
4, 84550, Control_c, 2, 7, 70
4, 84550, Control_c, 2, 7, 87
4, 84552, Control_c, 2, 7, 69
4, 84552, Control_c, 2, 7, 86
4, 84554, Control_c, 2, 7, 91
4, 84554, Control_c, 2, 7, 68
4, 84554, Control_c, 2, 7, 85
4, 84556, Control_c, 2, 7, 67
4, 84556, Control_c, 2, 7, 84
4, 84558, Control_c, 2, 7, 66
4, 84558, Control_c, 2, 7, 83
4, 84560, Control_c, 2, 7, 65
4, 84560, Control_c, 2, 7, 82
4, 84562, Control_c, 2, 7, 81
4, 84563, Control_c, 2, 7, 64
4, 84565, Control_c, 2, 7, 80
4, 84567, Control_c, 2, 7, 79
4, 84569, Control_c, 2, 7, 90
4, 84569, Control_c, 2, 7, 78
4, 84571, Control_c, 2, 7, 77
4, 84573, Control_c, 2, 7, 76
4, 84575, Control_c, 2, 7, 75
4, 84577, Control_c, 2, 7, 74
4, 84579, Control_c, 2, 7, 73
4, 84582, Control_c, 2, 7, 72
4, 84584, Control_c, 2, 7, 89
4, 84584, Control_c, 2, 7, 71
4, 84586, Control_c, 2, 7, 70
4, 84588, Control_c, 2, 7, 69
4, 84590, Control_c, 2, 7, 68
4, 84592, Control_c, 2, 7, 67
4, 84594, Control_c, 2, 7, 66
4, 84596, Control_c, 2, 7, 65
4, 84599, Control_c, 2, 7, 88
4, 84599, Control_c, 2, 7, 64
4, 84600, Control_c, 2, 7, 64
4, 84614, Control_c, 2, 7, 87
4, 84629, Control_c, 2, 7, 86
4, 84644, Control_c, 2, 7, 85
4, 84659, Control_c, 2, 7, 84
4, 84674, Control_c, 2, 7, 83
4, 84689, Control_c, 2, 7, 82
4, 84704, Control_c, 2, 7, 81
4, 84719, Control_c, 2, 7, 80
4, 84734, Control_c, 2, 7, 79
4, 84749, Control_c, 2, 7, 78
4, 84764, Control_c, 2, 7, 77
4, 84779, Control_c, 2, 7, 76
4, 84794, Control_c, 2, 7, 75
4, 84809, Control_c, 2, 7, 74
4, 84824, Control_c, 2, 7, 73
4, 84839, Control_c, 2, 7, 72
4, 84854, Control_c, 2, 7, 71
4, 84869, Control_c, 2, 7, 70
4, 84884, Control_c, 2, 7, 69
4, 84899, Control_c, 2, 7, 68
4, 84914, Control_c, 2, 7, 67
4, 84929, Control_c, 2, 7, 66
4, 84944, Control_c, 2, 7, 65
4, 84959, Control_c, 2, 7, 64
4, 85920, Control_c, 2, 7, 120
4, 85922, Control_c, 2, 7, 119
4, 85924, Control_c, 2, 7, 118
4, 85926, Control_c, 2, 7, 117
4, 85928, Control_c, 2, 7, 116
4, 85930, Control_c, 2, 7, 115
4, 85932, Control_c, 2, 7, 114
4, 85934, Control_c, 2, 7, 113
4, 85937, Control_c, 2, 7, 112
4, 85939, Control_c, 2, 7, 111
4, 85941, Control_c, 2, 7, 110
4, 85943, Control_c, 2, 7, 109
4, 85945, Control_c, 2, 7, 108
4, 85947, Control_c, 2, 7, 107
4, 85949, Control_c, 2, 7, 106
4, 85951, Control_c, 2, 7, 105
4, 85954, Control_c, 2, 7, 104
4, 85956, Control_c, 2, 7, 103
4, 85958, Control_c, 2, 7, 102
4, 85960, Control_c, 2, 7, 101
4, 85962, Control_c, 2, 7, 100
4, 85964, Control_c, 2, 7, 99
4, 85966, Control_c, 2, 7, 98
4, 85968, Control_c, 2, 7, 97
4, 85971, Control_c, 2, 7, 96
4, 85973, Control_c, 2, 7, 95
4, 85975, Control_c, 2, 7, 94
4, 85977, Control_c, 2, 7, 93
4, 85979, Control_c, 2, 7, 92
4, 85981, Control_c, 2, 7, 91
4, 85983, Control_c, 2, 7, 90
4, 85985, Control_c, 2, 7, 89
4, 85988, Control_c, 2, 7, 88
4, 85990, Control_c, 2, 7, 87
4, 85992, Control_c, 2, 7, 86
4, 85994, Control_c, 2, 7, 85
4, 85996, Control_c, 2, 7, 84
4, 85998, Control_c, 2, 7, 83
4, 86000, Control_c, 2, 7, 82
4, 86002, Control_c, 2, 7, 81
4, 86005, Control_c, 2, 7, 80
4, 86007, Control_c, 2, 7, 79
4, 86009, Control_c, 2, 7, 78
4, 86011, Control_c, 2, 7, 77
4, 86013, Control_c, 2, 7, 76
4, 86015, Control_c, 2, 7, 75
4, 86017, Control_c, 2, 7, 74
4, 86019, Control_c, 2, 7, 73
4, 86022, Control_c, 2, 7, 72
4, 86024, Control_c, 2, 7, 71
4, 86026, Control_c, 2, 7, 70
4, 86028, Control_c, 2, 7, 69
4, 86030, Control_c, 2, 7, 68
4, 86032, Control_c, 2, 7, 67
4, 86034, Control_c, 2, 7, 66
4, 86036, Control_c, 2, 7, 65
4, 86039, Control_c, 2, 7, 64
4, 86040, Control_c, 2, 7, 64
4, 87840, Control_c, 2, 7, 96
4, 87840, Control_c, 2, 7, 120
4, 87842, Control_c, 2, 7, 106
4, 87842, Control_c, 2, 7, 119
4, 87844, Control_c, 2, 7, 105
4, 87844, Control_c, 2, 7, 118
4, 87846, Control_c, 2, 7, 104
4, 87846, Control_c, 2, 7, 117
4, 87848, Control_c, 2, 7, 103
4, 87848, Control_c, 2, 7, 116
4, 87850, Control_c, 2, 7, 102
4, 87850, Control_c, 2, 7, 115
4, 87852, Control_c, 2, 7, 101
4, 87852, Control_c, 2, 7, 114
4, 87854, Control_c, 2, 7, 95
4, 87854, Control_c, 2, 7, 100
4, 87854, Control_c, 2, 7, 113
4, 87857, Control_c, 2, 7, 99
4, 87857, Control_c, 2, 7, 112
4, 87859, Control_c, 2, 7, 98
4, 87859, Control_c, 2, 7, 111
4, 87861, Control_c, 2, 7, 97
4, 87861, Control_c, 2, 7, 110
4, 87863, Control_c, 2, 7, 96
4, 87863, Control_c, 2, 7, 109
4, 87865, Control_c, 2, 7, 95
4, 87865, Control_c, 2, 7, 108
4, 87867, Control_c, 2, 7, 94
4, 87867, Control_c, 2, 7, 107
4, 87869, Control_c, 2, 7, 94
4, 87869, Control_c, 2, 7, 93
4, 87869, Control_c, 2, 7, 106
4, 87871, Control_c, 2, 7, 105
4, 87872, Control_c, 2, 7, 92
4, 87874, Control_c, 2, 7, 91
4, 87874, Control_c, 2, 7, 104
4, 87876, Control_c, 2, 7, 90
4, 87876, Control_c, 2, 7, 103
4, 87878, Control_c, 2, 7, 89
4, 87878, Control_c, 2, 7, 102
4, 87880, Control_c, 2, 7, 88
4, 87880, Control_c, 2, 7, 101
4, 87882, Control_c, 2, 7, 87
4, 87882, Control_c, 2, 7, 100
4, 87884, Control_c, 2, 7, 93
4, 87884, Control_c, 2, 7, 86
4, 87884, Control_c, 2, 7, 99
4, 87886, Control_c, 2, 7, 98
4, 87887, Control_c, 2, 7, 85
4, 87888, Control_c, 2, 7, 97
4, 87889, Control_c, 2, 7, 84
4, 87891, Control_c, 2, 7, 83
4, 87891, Control_c, 2, 7, 96
4, 87893, Control_c, 2, 7, 82
4, 87893, Control_c, 2, 7, 95
4, 87895, Control_c, 2, 7, 81
4, 87895, Control_c, 2, 7, 94
4, 87897, Control_c, 2, 7, 80
4, 87897, Control_c, 2, 7, 93
4, 87899, Control_c, 2, 7, 92
4, 87899, Control_c, 2, 7, 79
4, 87899, Control_c, 2, 7, 92
4, 87901, Control_c, 2, 7, 91
4, 87902, Control_c, 2, 7, 78
4, 87903, Control_c, 2, 7, 90
4, 87904, Control_c, 2, 7, 77
4, 87905, Control_c, 2, 7, 89
4, 87906, Control_c, 2, 7, 76
4, 87908, Control_c, 2, 7, 75
4, 87908, Control_c, 2, 7, 88
4, 87910, Control_c, 2, 7, 74
4, 87910, Control_c, 2, 7, 87
4, 87912, Control_c, 2, 7, 73
4, 87912, Control_c, 2, 7, 86
4, 87914, Control_c, 2, 7, 91
4, 87914, Control_c, 2, 7, 72
4, 87914, Control_c, 2, 7, 85
4, 87916, Control_c, 2, 7, 84
4, 87917, Control_c, 2, 7, 71
4, 87918, Control_c, 2, 7, 83
4, 87919, Control_c, 2, 7, 70
4, 87920, Control_c, 2, 7, 82
4, 87921, Control_c, 2, 7, 69
4, 87922, Control_c, 2, 7, 81
4, 87923, Control_c, 2, 7, 68
4, 87925, Control_c, 2, 7, 67
4, 87925, Control_c, 2, 7, 80
4, 87927, Control_c, 2, 7, 66
4, 87927, Control_c, 2, 7, 79
4, 87929, Control_c, 2, 7, 90
4, 87929, Control_c, 2, 7, 65
4, 87929, Control_c, 2, 7, 78
4, 87931, Control_c, 2, 7, 77
4, 87932, Control_c, 2, 7, 64
4, 87933, Control_c, 2, 7, 76
4, 87935, Control_c, 2, 7, 75
4, 87937, Control_c, 2, 7, 74
4, 87939, Control_c, 2, 7, 73
4, 87942, Control_c, 2, 7, 72
4, 87944, Control_c, 2, 7, 89
4, 87944, Control_c, 2, 7, 71
4, 87946, Control_c, 2, 7, 70
4, 87948, Control_c, 2, 7, 69
4, 87950, Control_c, 2, 7, 68
4, 87952, Control_c, 2, 7, 67
4, 87954, Control_c, 2, 7, 66
4, 87956, Control_c, 2, 7, 65
4, 87959, Control_c, 2, 7, 88
4, 87959, Control_c, 2, 7, 64
4, 87960, Control_c, 2, 7, 64
4, 87974, Control_c, 2, 7, 87
4, 87989, Control_c, 2, 7, 86
4, 88004, Control_c, 2, 7, 85
4, 88019, Control_c, 2, 7, 84
4, 88034, Control_c, 2, 7, 83
4, 88049, Control_c, 2, 7, 82
4, 88064, Control_c, 2, 7, 81
4, 88079, Control_c, 2, 7, 80
4, 88094, Control_c, 2, 7, 79
4, 88109, Control_c, 2, 7, 78
4, 88124, Control_c, 2, 7, 77
4, 88139, Control_c, 2, 7, 76
4, 88154, Control_c, 2, 7, 75
4, 88169, Control_c, 2, 7, 74
4, 88184, Control_c, 2, 7, 73
4, 88199, Control_c, 2, 7, 72
4, 88214, Control_c, 2, 7, 71
4, 88229, Control_c, 2, 7, 70
4, 88244, Control_c, 2, 7, 69
4, 88259, Control_c, 2, 7, 68
4, 88274, Control_c, 2, 7, 67
4, 88289, Control_c, 2, 7, 66
4, 88293, Control_c, 2, 7, 115
4, 88295, Control_c, 2, 7, 114
4, 88298, Control_c, 2, 7, 113
4, 88300, Control_c, 2, 7, 112
4, 88302, Control_c, 2, 7, 111
4, 88304, Control_c, 2, 7, 65
4, 88304, Control_c, 2, 7, 110
4, 88306, Control_c, 2, 7, 109
4, 88308, Control_c, 2, 7, 108
4, 88310, Control_c, 2, 7, 107
4, 88313, Control_c, 2, 7, 106
4, 88315, Control_c, 2, 7, 105
4, 88317, Control_c, 2, 7, 104
4, 88319, Control_c, 2, 7, 64
4, 88319, Control_c, 2, 7, 103
4, 88320, Control_c, 2, 7, 96
4, 88320, Control_c, 2, 7, 120
4, 88321, Control_c, 2, 7, 102
4, 88322, Control_c, 2, 7, 119
4, 88323, Control_c, 2, 7, 101
4, 88324, Control_c, 2, 7, 118
4, 88325, Control_c, 2, 7, 100
4, 88326, Control_c, 2, 7, 117
4, 88328, Control_c, 2, 7, 99
4, 88328, Control_c, 2, 7, 116
4, 88330, Control_c, 2, 7, 98
4, 88330, Control_c, 2, 7, 115
4, 88332, Control_c, 2, 7, 97
4, 88332, Control_c, 2, 7, 114
4, 88334, Control_c, 2, 7, 95
4, 88334, Control_c, 2, 7, 96
4, 88334, Control_c, 2, 7, 113
4, 88336, Control_c, 2, 7, 95
4, 88337, Control_c, 2, 7, 112
4, 88338, Control_c, 2, 7, 94
4, 88339, Control_c, 2, 7, 111
4, 88340, Control_c, 2, 7, 93
4, 88341, Control_c, 2, 7, 110
4, 88343, Control_c, 2, 7, 92
4, 88343, Control_c, 2, 7, 109
4, 88345, Control_c, 2, 7, 91
4, 88345, Control_c, 2, 7, 108
4, 88347, Control_c, 2, 7, 90
4, 88347, Control_c, 2, 7, 107
4, 88349, Control_c, 2, 7, 94
4, 88349, Control_c, 2, 7, 89
4, 88349, Control_c, 2, 7, 106
4, 88351, Control_c, 2, 7, 88
4, 88351, Control_c, 2, 7, 105
4, 88353, Control_c, 2, 7, 87
4, 88354, Control_c, 2, 7, 104
4, 88355, Control_c, 2, 7, 86
4, 88356, Control_c, 2, 7, 103
4, 88358, Control_c, 2, 7, 85
4, 88358, Control_c, 2, 7, 102
4, 88360, Control_c, 2, 7, 84
4, 88360, Control_c, 2, 7, 101
4, 88362, Control_c, 2, 7, 83
4, 88362, Control_c, 2, 7, 100
4, 88364, Control_c, 2, 7, 93
4, 88364, Control_c, 2, 7, 82
4, 88364, Control_c, 2, 7, 99
4, 88366, Control_c, 2, 7, 81
4, 88366, Control_c, 2, 7, 98
4, 88368, Control_c, 2, 7, 80
4, 88368, Control_c, 2, 7, 97
4, 88370, Control_c, 2, 7, 79
4, 88371, Control_c, 2, 7, 96
4, 88373, Control_c, 2, 7, 78
4, 88373, Control_c, 2, 7, 95
4, 88375, Control_c, 2, 7, 77
4, 88375, Control_c, 2, 7, 94
4, 88377, Control_c, 2, 7, 76
4, 88377, Control_c, 2, 7, 93
4, 88379, Control_c, 2, 7, 92
4, 88379, Control_c, 2, 7, 75
4, 88379, Control_c, 2, 7, 92
4, 88381, Control_c, 2, 7, 74
4, 88381, Control_c, 2, 7, 91
4, 88383, Control_c, 2, 7, 73
4, 88383, Control_c, 2, 7, 90
4, 88385, Control_c, 2, 7, 72
4, 88385, Control_c, 2, 7, 89
4, 88388, Control_c, 2, 7, 71
4, 88388, Control_c, 2, 7, 88
4, 88390, Control_c, 2, 7, 70
4, 88390, Control_c, 2, 7, 87
4, 88392, Control_c, 2, 7, 69
4, 88392, Control_c, 2, 7, 86
4, 88394, Control_c, 2, 7, 91
4, 88394, Control_c, 2, 7, 68
4, 88394, Control_c, 2, 7, 85
4, 88396, Control_c, 2, 7, 67
4, 88396, Control_c, 2, 7, 84
4, 88398, Control_c, 2, 7, 66
4, 88398, Control_c, 2, 7, 83
4, 88400, Control_c, 2, 7, 65
4, 88400, Control_c, 2, 7, 82
4, 88402, Control_c, 2, 7, 81
4, 88403, Control_c, 2, 7, 64
4, 88405, Control_c, 2, 7, 80
4, 88407, Control_c, 2, 7, 79
4, 88409, Control_c, 2, 7, 90
4, 88409, Control_c, 2, 7, 78
4, 88411, Control_c, 2, 7, 77
4, 88413, Control_c, 2, 7, 76
4, 88415, Control_c, 2, 7, 75
4, 88417, Control_c, 2, 7, 74
4, 88419, Control_c, 2, 7, 73
4, 88422, Control_c, 2, 7, 72
4, 88424, Control_c, 2, 7, 89
4, 88424, Control_c, 2, 7, 71
4, 88426, Control_c, 2, 7, 70
4, 88428, Control_c, 2, 7, 69
4, 88430, Control_c, 2, 7, 68
4, 88432, Control_c, 2, 7, 67
4, 88434, Control_c, 2, 7, 66
4, 88436, Control_c, 2, 7, 65
4, 88439, Control_c, 2, 7, 88
4, 88439, Control_c, 2, 7, 64
4, 88440, Control_c, 2, 7, 64
4, 88454, Control_c, 2, 7, 87
4, 88469, Control_c, 2, 7, 86
4, 88484, Control_c, 2, 7, 85
4, 88499, Control_c, 2, 7, 84
4, 88514, Control_c, 2, 7, 83
4, 88529, Control_c, 2, 7, 82
4, 88544, Control_c, 2, 7, 81
4, 88559, Control_c, 2, 7, 80
4, 88574, Control_c, 2, 7, 79
4, 88589, Control_c, 2, 7, 78
4, 88604, Control_c, 2, 7, 77
4, 88619, Control_c, 2, 7, 76
4, 88634, Control_c, 2, 7, 75
4, 88649, Control_c, 2, 7, 74
4, 88664, Control_c, 2, 7, 73
4, 88679, Control_c, 2, 7, 72
4, 88694, Control_c, 2, 7, 71
4, 88709, Control_c, 2, 7, 70
4, 88724, Control_c, 2, 7, 69
4, 88739, Control_c, 2, 7, 68
4, 88754, Control_c, 2, 7, 67
4, 88769, Control_c, 2, 7, 66
4, 88784, Control_c, 2, 7, 65
4, 88799, Control_c, 2, 7, 64
4, 89760, Control_c, 2, 7, 105
4, 90000, Note_on_c, 2, 71, 100
4, 90000, Note_on_c, 2, 78, 100
4, 90096, Note_on_c, 2, 78, 0
4, 90096, Note_on_c, 2, 71, 0
4, 90960, Note_on_c, 2, 69, 101
4, 90960, Note_on_c, 2, 76, 101
4, 91056, Note_on_c, 2, 76, 0
4, 91056, Note_on_c, 2, 69, 0
4, 91920, Note_on_c, 2, 67, 102
4, 91920, Note_on_c, 2, 74, 102
4, 92016, Note_on_c, 2, 74, 0
4, 92016, Note_on_c, 2, 67, 0
4, 92410, Control_c, 2, 7, 66
4, 92520, Control_c, 2, 7, 67
4, 92550, Control_c, 2, 7, 68
4, 92570, Control_c, 2, 7, 69
4, 92620, Control_c, 2, 7, 71
4, 92640, Note_on_c, 2, 67, 103
4, 92640, Note_on_c, 2, 73, 103
4, 92640, Control_c, 2, 7, 73
4, 92720, Control_c, 2, 7, 74
4, 92780, Control_c, 2, 7, 76
4, 92800, Control_c, 2, 7, 77
4, 92910, Control_c, 2, 7, 79
4, 93030, Control_c, 2, 7, 81
4, 93120, Note_on_c, 2, 73, 0
4, 93120, Note_on_c, 2, 67, 0
4, 93120, Note_on_c, 2, 66, 83
4, 93120, Note_on_c, 2, 74, 83
4, 93150, Control_c, 2, 7, 83
4, 93300, Control_c, 2, 7, 84
4, 93310, Control_c, 2, 7, 85
4, 93380, Control_c, 2, 7, 86
4, 93460, Control_c, 2, 7, 87
4, 93560, Control_c, 2, 7, 89
4, 93600, Note_on_c, 2, 74, 0
4, 93600, Note_on_c, 2, 66, 0
4, 93600, Note_on_c, 2, 76, 88
4, 93600, Note_on_c, 2, 73, 88
4, 93660, Control_c, 2, 7, 91
4, 93780, Control_c, 2, 7, 92
4, 93840, Control_c, 2, 7, 93
4, 93910, Control_c, 2, 7, 94
4, 93970, Control_c, 2, 7, 95
4, 94050, Control_c, 2, 7, 96
4, 94080, Note_on_c, 2, 73, 0
4, 94080, Note_on_c, 2, 76, 0
4, 94080, Note_on_c, 2, 74, 90
4, 94080, Note_on_c, 2, 78, 90
4, 94100, Control_c, 2, 7, 97
4, 94280, Control_c, 2, 7, 98
4, 94320, Note_on_c, 2, 78, 0
4, 94320, Note_on_c, 2, 74, 0
4, 94320, Note_on_c, 2, 76, 98
4, 94320, Note_on_c, 2, 73, 98
4, 94360, Control_c, 2, 7, 99
4, 94400, Control_c, 2, 7, 100
4, 94480, Control_c, 2, 7, 101
4, 94560, Note_on_c, 2, 73, 0
4, 94560, Note_on_c, 2, 76, 0
4, 94560, Note_on_c, 2, 74, 101
4, 94560, Note_on_c, 2, 78, 101
4, 94560, Control_c, 2, 7, 102
4, 94620, Control_c, 2, 7, 103
4, 94680, Control_c, 2, 7, 104
4, 94690, Control_c, 2, 7, 105
4, 94720, Control_c, 2, 7, 106
4, 94730, Control_c, 2, 7, 107
4, 94790, Control_c, 2, 7, 108
4, 94800, Note_on_c, 2, 78, 0
4, 94800, Note_on_c, 2, 74, 0
4, 94800, Note_on_c, 2, 66, 103
4, 94800, Note_on_c, 2, 74, 103
4, 94800, Control_c, 2, 7, 109
4, 94820, Control_c, 2, 7, 110
4, 94910, Control_c, 2, 7, 108
4, 95090, Control_c, 2, 7, 110
4, 95170, Control_c, 2, 7, 112
4, 95230, Control_c, 2, 7, 113
4, 95290, Control_c, 2, 7, 114
4, 95370, Control_c, 2, 7, 115
4, 95390, Control_c, 2, 7, 116
4, 95410, Control_c, 2, 7, 117
4, 95470, Control_c, 2, 7, 118
4, 95490, Control_c, 2, 7, 119
4, 95510, Control_c, 2, 7, 120
4, 95570, Control_c, 2, 7, 122
4, 95630, Control_c, 2, 7, 123
4, 95690, Control_c, 2, 7, 124
4, 95750, Control_c, 2, 7, 126
4, 95790, Control_c, 2, 7, 125
4, 95800, Control_c, 2, 7, 124
4, 95830, Control_c, 2, 7, 123
4, 95890, Control_c, 2, 7, 122
4, 95900, Control_c, 2, 7, 121
4, 95930, Control_c, 2, 7, 120
4, 95940, Control_c, 2, 7, 119
4, 96000, Control_c, 2, 7, 118
4, 96020, Control_c, 2, 7, 117
4, 96040, Control_c, 2, 7, 116
4, 96050, Control_c, 2, 7, 115
4, 96100, Control_c, 2, 7, 111
4, 96140, Control_c, 2, 7, 110
4, 96150, Control_c, 2, 7, 109
4, 96190, Control_c, 2, 7, 108
4, 96200, Control_c, 2, 7, 106
4, 96270, Control_c, 2, 7, 105
4, 96330, Control_c, 2, 7, 104
4, 96350, Control_c, 2, 7, 103
4, 96370, Control_c, 2, 7, 102
4, 96410, Control_c, 2, 7, 101
4, 96480, Control_c, 2, 7, 100
4, 96560, Control_c, 2, 7, 101
4, 96590, Control_c, 2, 7, 100
4, 96600, Control_c, 2, 7, 99
4, 96660, Control_c, 2, 7, 98
4, 96670, Control_c, 2, 7, 97
4, 96690, Control_c, 2, 7, 96
4, 96720, Control_c, 2, 7, 95
4, 96740, Control_c, 2, 7, 94
4, 96750, Control_c, 2, 7, 93
4, 96810, Control_c, 2, 7, 92
4, 96820, Control_c, 2, 7, 91
4, 96840, Control_c, 2, 7, 90
4, 96900, Control_c, 2, 7, 91
4, 96980, Control_c, 2, 7, 92
4, 97180, Control_c, 2, 7, 93
4, 97330, Control_c, 2, 7, 94
4, 97430, Control_c, 2, 7, 95
4, 97440, Note_on_c, 2, 66, 0
4, 97440, Note_on_c, 2, 65, 107
4, 97440, Control_c, 2, 7, 125
4, 97470, Control_c, 2, 7, 124
4, 97550, Control_c, 2, 7, 122
4, 97620, Control_c, 2, 7, 121
4, 97640, Control_c, 2, 7, 120
4, 97760, Control_c, 2, 7, 119
4, 97780, Control_c, 2, 7, 118
4, 97810, Control_c, 2, 7, 117
4, 97870, Control_c, 2, 7, 116
4, 97920, Note_on_c, 2, 65, 0
4, 97920, Note_on_c, 2, 74, 0
4, 97920, Note_on_c, 2, 71, 107
4, 97920, Note_on_c, 2, 76, 107
4, 97960, Control_c, 2, 7, 115
4, 98040, Control_c, 2, 7, 114
4, 98130, Control_c, 2, 7, 113
4, 98160, Note_on_c, 2, 71, 0
4, 98160, Note_on_c, 2, 69, 107
4, 98210, Control_c, 2, 7, 112
4, 98230, Control_c, 2, 7, 111
4, 98250, Control_c, 2, 7, 110
4, 98270, Control_c, 2, 7, 109
4, 98330, Control_c, 2, 7, 108
4, 98400, Note_on_c, 2, 76, 0
4, 98400, Note_on_c, 2, 74, 108
4, 98400, Note_on_c, 2, 81, 108
4, 98410, Control_c, 2, 7, 106
4, 98490, Control_c, 2, 7, 105
4, 98510, Control_c, 2, 7, 104
4, 98530, Control_c, 2, 7, 103
4, 98590, Control_c, 2, 7, 102
4, 98592, Note_on_c, 2, 81, 0
4, 98592, Note_on_c, 2, 74, 0
4, 98610, Note_on_c, 2, 69, 0
4, 98640, Note_on_c, 2, 67, 105
4, 98640, Note_on_c, 2, 71, 105
4, 98670, Control_c, 2, 7, 100
4, 98710, Control_c, 2, 7, 99
4, 98720, Control_c, 2, 7, 98
4, 98810, Control_c, 2, 7, 96
4, 98832, Note_on_c, 2, 71, 0
4, 98832, Note_on_c, 2, 67, 0
4, 98870, Control_c, 2, 7, 94
4, 98880, Note_on_c, 2, 74, 100
4, 98880, Note_on_c, 2, 66, 100
4, 98880, Control_c, 2, 7, 93
4, 98910, Control_c, 2, 7, 92
4, 98990, Control_c, 2, 7, 86
4, 99050, Control_c, 2, 7, 85
4, 99072, Note_on_c, 2, 66, 0
4, 99072, Note_on_c, 2, 74, 0
4, 99120, Note_on_c, 2, 73, 91
4, 99120, Note_on_c, 2, 64, 91
4, 99120, Control_c, 2, 7, 84
4, 99180, Control_c, 2, 7, 82
4, 99260, Control_c, 2, 7, 81
4, 99280, Control_c, 2, 7, 80
4, 99312, Note_on_c, 2, 64, 0
4, 99312, Note_on_c, 2, 73, 0
4, 99360, Note_on_c, 2, 74, 83
4, 99360, Note_on_c, 2, 62, 83
4, 99360, Note_on_c, 2, 74, 83
4, 99360, Control_c, 2, 7, 79
4, 99420, Control_c, 2, 7, 78
4, 99440, Control_c, 2, 7, 77
4, 99456, Note_on_c, 2, 74, 0
4, 99456, Note_on_c, 2, 62, 0
4, 99456, Note_on_c, 2, 74, 0
4, 99500, Control_c, 2, 7, 76
4, 99530, Control_c, 2, 7, 75
4, 99560, Control_c, 2, 7, 74
4, 99600, Control_c, 2, 7, 73
4, 99690, Control_c, 2, 7, 71
4, 99710, Control_c, 2, 7, 70
4, 99740, Control_c, 2, 7, 69
4, 99760, Control_c, 2, 7, 68
4, 99770, Control_c, 2, 7, 66
4, 99810, Control_c, 2, 7, 65
4, 100440, Note_on_c, 2, 67, 65
4, 100440, Note_on_c, 2, 64, 65
4, 100440, Control_c, 2, 7, 112
4, 100440, Control_c, 2, 7, 96
4, 100440, Control_c, 2, 7, 96
4, 100444, Control_c, 2, 7, 111
4, 100447, Control_c, 2, 7, 95
4, 100447, Control_c, 2, 7, 95
4, 100449, Control_c, 2, 7, 110
4, 100454, Control_c, 2, 7, 109
4, 100454, Control_c, 2, 7, 94
4, 100454, Control_c, 2, 7, 94
4, 100459, Control_c, 2, 7, 108
4, 100462, Control_c, 2, 7, 93
4, 100462, Control_c, 2, 7, 93
4, 100464, Control_c, 2, 7, 107
4, 100469, Control_c, 2, 7, 106
4, 100469, Control_c, 2, 7, 92
4, 100469, Control_c, 2, 7, 92
4, 100474, Control_c, 2, 7, 105
4, 100477, Control_c, 2, 7, 91
4, 100477, Control_c, 2, 7, 91
4, 100479, Control_c, 2, 7, 104
4, 100484, Control_c, 2, 7, 103
4, 100484, Control_c, 2, 7, 90
4, 100484, Control_c, 2, 7, 90
4, 100489, Control_c, 2, 7, 102
4, 100492, Control_c, 2, 7, 89
4, 100492, Control_c, 2, 7, 89
4, 100494, Control_c, 2, 7, 101
4, 100499, Control_c, 2, 7, 100
4, 100499, Control_c, 2, 7, 88
4, 100499, Control_c, 2, 7, 88
4, 100504, Control_c, 2, 7, 99
4, 100507, Control_c, 2, 7, 87
4, 100507, Control_c, 2, 7, 87
4, 100509, Control_c, 2, 7, 98
4, 100514, Control_c, 2, 7, 97
4, 100514, Control_c, 2, 7, 86
4, 100514, Control_c, 2, 7, 86
4, 100519, Control_c, 2, 7, 96
4, 100522, Control_c, 2, 7, 85
4, 100522, Control_c, 2, 7, 85
4, 100524, Control_c, 2, 7, 95
4, 100529, Control_c, 2, 7, 94
4, 100529, Control_c, 2, 7, 84
4, 100529, Control_c, 2, 7, 84
4, 100534, Control_c, 2, 7, 93
4, 100537, Control_c, 2, 7, 83
4, 100537, Control_c, 2, 7, 83
4, 100539, Control_c, 2, 7, 92
4, 100544, Control_c, 2, 7, 91
4, 100544, Control_c, 2, 7, 82
4, 100544, Control_c, 2, 7, 82
4, 100549, Control_c, 2, 7, 90
4, 100552, Control_c, 2, 7, 81
4, 100552, Control_c, 2, 7, 81
4, 100554, Control_c, 2, 7, 89
4, 100559, Control_c, 2, 7, 88
4, 100559, Control_c, 2, 7, 80
4, 100559, Control_c, 2, 7, 80
4, 100560, Note_on_c, 2, 64, 0
4, 100560, Note_on_c, 2, 67, 0
4, 100560, Note_on_c, 2, 62, 55
4, 100560, Note_on_c, 2, 66, 55
4, 100564, Control_c, 2, 7, 87
4, 100566, Control_c, 2, 7, 79
4, 100566, Control_c, 2, 7, 79
4, 100569, Control_c, 2, 7, 86
4, 100574, Control_c, 2, 7, 85
4, 100574, Control_c, 2, 7, 78
4, 100574, Control_c, 2, 7, 78
4, 100579, Control_c, 2, 7, 84
4, 100581, Control_c, 2, 7, 77
4, 100581, Control_c, 2, 7, 77
4, 100584, Control_c, 2, 7, 83
4, 100589, Control_c, 2, 7, 82
4, 100589, Control_c, 2, 7, 76
4, 100589, Control_c, 2, 7, 76
4, 100594, Control_c, 2, 7, 81
4, 100596, Control_c, 2, 7, 75
4, 100596, Control_c, 2, 7, 75
4, 100599, Control_c, 2, 7, 80
4, 100604, Control_c, 2, 7, 79
4, 100604, Control_c, 2, 7, 74
4, 100604, Control_c, 2, 7, 74
4, 100608, Note_on_c, 2, 66, 0
4, 100608, Note_on_c, 2, 62, 0
4, 100609, Control_c, 2, 7, 78
4, 100611, Control_c, 2, 7, 73
4, 100611, Control_c, 2, 7, 73
4, 100614, Control_c, 2, 7, 77
4, 100619, Control_c, 2, 7, 76
4, 100619, Control_c, 2, 7, 72
4, 100619, Control_c, 2, 7, 72
4, 100624, Control_c, 2, 7, 75
4, 100626, Control_c, 2, 7, 71
4, 100626, Control_c, 2, 7, 71
4, 100629, Control_c, 2, 7, 74
4, 100634, Control_c, 2, 7, 73
4, 100634, Control_c, 2, 7, 70
4, 100634, Control_c, 2, 7, 70
4, 100639, Control_c, 2, 7, 72
4, 100641, Control_c, 2, 7, 69
4, 100641, Control_c, 2, 7, 69
4, 100644, Control_c, 2, 7, 71
4, 100649, Control_c, 2, 7, 70
4, 100649, Control_c, 2, 7, 68
4, 100649, Control_c, 2, 7, 68
4, 100654, Control_c, 2, 7, 69
4, 100656, Control_c, 2, 7, 67
4, 100656, Control_c, 2, 7, 67
4, 100659, Control_c, 2, 7, 68
4, 100664, Control_c, 2, 7, 67
4, 100664, Control_c, 2, 7, 66
4, 100664, Control_c, 2, 7, 66
4, 100669, Control_c, 2, 7, 66
4, 100671, Control_c, 2, 7, 65
4, 100671, Control_c, 2, 7, 65
4, 100674, Control_c, 2, 7, 65
4, 100679, Control_c, 2, 7, 64
4, 100679, Control_c, 2, 7, 64
4, 100679, Control_c, 2, 7, 64
4, 101400, Note_on_c, 2, 67, 63
4, 101400, Note_on_c, 2, 64, 63
4, 101400, Control_c, 2, 7, 112
4, 101400, Control_c, 2, 7, 96
4, 101400, Control_c, 2, 7, 96
4, 101404, Control_c, 2, 7, 111
4, 101407, Control_c, 2, 7, 95
4, 101407, Control_c, 2, 7, 95
4, 101409, Control_c, 2, 7, 110
4, 101414, Control_c, 2, 7, 109
4, 101415, Control_c, 2, 7, 94
4, 101415, Control_c, 2, 7, 94
4, 101419, Control_c, 2, 7, 108
4, 101422, Control_c, 2, 7, 93
4, 101422, Control_c, 2, 7, 93
4, 101424, Control_c, 2, 7, 107
4, 101429, Control_c, 2, 7, 106
4, 101430, Control_c, 2, 7, 92
4, 101430, Control_c, 2, 7, 92
4, 101434, Control_c, 2, 7, 105
4, 101437, Control_c, 2, 7, 91
4, 101437, Control_c, 2, 7, 91
4, 101439, Control_c, 2, 7, 104
4, 101444, Control_c, 2, 7, 103
4, 101445, Control_c, 2, 7, 90
4, 101445, Control_c, 2, 7, 90
4, 101449, Control_c, 2, 7, 102
4, 101452, Control_c, 2, 7, 89
4, 101452, Control_c, 2, 7, 89
4, 101454, Control_c, 2, 7, 101
4, 101459, Control_c, 2, 7, 100
4, 101460, Control_c, 2, 7, 88
4, 101460, Control_c, 2, 7, 88
4, 101464, Control_c, 2, 7, 99
4, 101467, Control_c, 2, 7, 87
4, 101467, Control_c, 2, 7, 87
4, 101469, Control_c, 2, 7, 98
4, 101474, Control_c, 2, 7, 97
4, 101475, Control_c, 2, 7, 86
4, 101475, Control_c, 2, 7, 86
4, 101479, Control_c, 2, 7, 96
4, 101482, Control_c, 2, 7, 85
4, 101482, Control_c, 2, 7, 85
4, 101484, Control_c, 2, 7, 95
4, 101489, Control_c, 2, 7, 94
4, 101490, Control_c, 2, 7, 84
4, 101490, Control_c, 2, 7, 84
4, 101494, Control_c, 2, 7, 93
4, 101497, Control_c, 2, 7, 83
4, 101497, Control_c, 2, 7, 83
4, 101499, Control_c, 2, 7, 92
4, 101504, Control_c, 2, 7, 91
4, 101505, Control_c, 2, 7, 82
4, 101505, Control_c, 2, 7, 82
4, 101509, Control_c, 2, 7, 90
4, 101512, Control_c, 2, 7, 81
4, 101512, Control_c, 2, 7, 81
4, 101514, Control_c, 2, 7, 89
4, 101519, Control_c, 2, 7, 88
4, 101520, Note_on_c, 2, 64, 0
4, 101520, Note_on_c, 2, 67, 0
4, 101520, Note_on_c, 2, 62, 59
4, 101520, Note_on_c, 2, 66, 59
4, 101520, Control_c, 2, 7, 80
4, 101520, Control_c, 2, 7, 80
4, 101524, Control_c, 2, 7, 87
4, 101527, Control_c, 2, 7, 79
4, 101527, Control_c, 2, 7, 79
4, 101529, Control_c, 2, 7, 86
4, 101534, Control_c, 2, 7, 85
4, 101535, Control_c, 2, 7, 78
4, 101535, Control_c, 2, 7, 78
4, 101539, Control_c, 2, 7, 84
4, 101542, Control_c, 2, 7, 77
4, 101542, Control_c, 2, 7, 77
4, 101544, Control_c, 2, 7, 83
4, 101549, Control_c, 2, 7, 82
4, 101550, Control_c, 2, 7, 76
4, 101550, Control_c, 2, 7, 76
4, 101554, Control_c, 2, 7, 81
4, 101557, Control_c, 2, 7, 75
4, 101557, Control_c, 2, 7, 75
4, 101559, Control_c, 2, 7, 80
4, 101564, Control_c, 2, 7, 79
4, 101565, Control_c, 2, 7, 74
4, 101565, Control_c, 2, 7, 74
4, 101568, Note_on_c, 2, 66, 0
4, 101568, Note_on_c, 2, 62, 0
4, 101569, Control_c, 2, 7, 78
4, 101572, Control_c, 2, 7, 73
4, 101572, Control_c, 2, 7, 73
4, 101574, Control_c, 2, 7, 77
4, 101579, Control_c, 2, 7, 76
4, 101580, Control_c, 2, 7, 72
4, 101580, Control_c, 2, 7, 72
4, 101584, Control_c, 2, 7, 75
4, 101587, Control_c, 2, 7, 71
4, 101587, Control_c, 2, 7, 71
4, 101589, Control_c, 2, 7, 74
4, 101594, Control_c, 2, 7, 73
4, 101595, Control_c, 2, 7, 70
4, 101595, Control_c, 2, 7, 70
4, 101599, Control_c, 2, 7, 72
4, 101602, Control_c, 2, 7, 69
4, 101602, Control_c, 2, 7, 69
4, 101604, Control_c, 2, 7, 71
4, 101609, Control_c, 2, 7, 70
4, 101610, Control_c, 2, 7, 68
4, 101610, Control_c, 2, 7, 68
4, 101614, Control_c, 2, 7, 69
4, 101617, Control_c, 2, 7, 67
4, 101617, Control_c, 2, 7, 67
4, 101619, Control_c, 2, 7, 68
4, 101624, Control_c, 2, 7, 67
4, 101625, Control_c, 2, 7, 66
4, 101625, Control_c, 2, 7, 66
4, 101629, Control_c, 2, 7, 66
4, 101632, Control_c, 2, 7, 65
4, 101632, Control_c, 2, 7, 65
4, 101634, Control_c, 2, 7, 65
4, 101639, Control_c, 2, 7, 64
4, 101640, Control_c, 2, 7, 64
4, 101640, Control_c, 2, 7, 64
4, 106080, Control_c, 2, 7, 64
4, 106080, Control_c, 2, 7, 64
4, 106109, Control_c, 2, 7, 65
4, 106109, Control_c, 2, 7, 65
4, 106139, Control_c, 2, 7, 66
4, 106139, Control_c, 2, 7, 66
4, 106169, Control_c, 2, 7, 67
4, 106169, Control_c, 2, 7, 67
4, 106199, Control_c, 2, 7, 68
4, 106199, Control_c, 2, 7, 68
4, 106229, Control_c, 2, 7, 69
4, 106229, Control_c, 2, 7, 69
4, 106259, Control_c, 2, 7, 70
4, 106259, Control_c, 2, 7, 70
4, 106289, Control_c, 2, 7, 71
4, 106289, Control_c, 2, 7, 71
4, 106319, Control_c, 2, 7, 72
4, 106319, Control_c, 2, 7, 72
4, 106349, Control_c, 2, 7, 73
4, 106349, Control_c, 2, 7, 73
4, 106379, Control_c, 2, 7, 74
4, 106379, Control_c, 2, 7, 74
4, 106409, Control_c, 2, 7, 75
4, 106409, Control_c, 2, 7, 75
4, 106439, Control_c, 2, 7, 76
4, 106439, Control_c, 2, 7, 76
4, 106469, Control_c, 2, 7, 77
4, 106469, Control_c, 2, 7, 77
4, 106499, Control_c, 2, 7, 78
4, 106499, Control_c, 2, 7, 78
4, 106529, Control_c, 2, 7, 79
4, 106529, Control_c, 2, 7, 79
4, 106559, Control_c, 2, 7, 80
4, 106559, Control_c, 2, 7, 80
4, 106589, Control_c, 2, 7, 81
4, 106589, Control_c, 2, 7, 81
4, 106619, Control_c, 2, 7, 82
4, 106619, Control_c, 2, 7, 82
4, 106649, Control_c, 2, 7, 83
4, 106649, Control_c, 2, 7, 83
4, 106679, Control_c, 2, 7, 84
4, 106679, Control_c, 2, 7, 84
4, 106709, Control_c, 2, 7, 85
4, 106709, Control_c, 2, 7, 85
4, 106739, Control_c, 2, 7, 86
4, 106739, Control_c, 2, 7, 86
4, 106769, Control_c, 2, 7, 87
4, 106769, Control_c, 2, 7, 87
4, 106799, Control_c, 2, 7, 88
4, 106799, Control_c, 2, 7, 88
4, 106829, Control_c, 2, 7, 89
4, 106829, Control_c, 2, 7, 89
4, 106859, Control_c, 2, 7, 90
4, 106859, Control_c, 2, 7, 90
4, 106889, Control_c, 2, 7, 91
4, 106889, Control_c, 2, 7, 91
4, 106919, Control_c, 2, 7, 92
4, 106919, Control_c, 2, 7, 92
4, 106949, Control_c, 2, 7, 93
4, 106949, Control_c, 2, 7, 93
4, 106979, Control_c, 2, 7, 94
4, 106979, Control_c, 2, 7, 94
4, 107009, Control_c, 2, 7, 95
4, 107009, Control_c, 2, 7, 95
4, 107039, Control_c, 2, 7, 96
4, 107039, Control_c, 2, 7, 96
4, 107040, Control_c, 2, 7, 96
4, 107040, Control_c, 2, 7, 96
4, 107054, Control_c, 2, 7, 95
4, 107054, Control_c, 2, 7, 95
4, 107069, Control_c, 2, 7, 94
4, 107069, Control_c, 2, 7, 94
4, 107084, Control_c, 2, 7, 93
4, 107084, Control_c, 2, 7, 93
4, 107099, Control_c, 2, 7, 92
4, 107099, Control_c, 2, 7, 92
4, 107114, Control_c, 2, 7, 91
4, 107114, Control_c, 2, 7, 91
4, 107129, Control_c, 2, 7, 90
4, 107129, Control_c, 2, 7, 90
4, 107144, Control_c, 2, 7, 89
4, 107144, Control_c, 2, 7, 89
4, 107159, Control_c, 2, 7, 88
4, 107159, Control_c, 2, 7, 88
4, 107174, Control_c, 2, 7, 87
4, 107174, Control_c, 2, 7, 87
4, 107189, Control_c, 2, 7, 86
4, 107189, Control_c, 2, 7, 86
4, 107204, Control_c, 2, 7, 85
4, 107204, Control_c, 2, 7, 85
4, 107219, Control_c, 2, 7, 84
4, 107219, Control_c, 2, 7, 84
4, 107234, Control_c, 2, 7, 83
4, 107234, Control_c, 2, 7, 83
4, 107249, Control_c, 2, 7, 82
4, 107249, Control_c, 2, 7, 82
4, 107264, Control_c, 2, 7, 81
4, 107264, Control_c, 2, 7, 81
4, 107279, Control_c, 2, 7, 80
4, 107279, Control_c, 2, 7, 80
4, 107294, Control_c, 2, 7, 79
4, 107294, Control_c, 2, 7, 79
4, 107309, Control_c, 2, 7, 78
4, 107309, Control_c, 2, 7, 78
4, 107324, Control_c, 2, 7, 77
4, 107324, Control_c, 2, 7, 77
4, 107339, Control_c, 2, 7, 76
4, 107339, Control_c, 2, 7, 76
4, 107354, Control_c, 2, 7, 75
4, 107354, Control_c, 2, 7, 75
4, 107369, Control_c, 2, 7, 74
4, 107369, Control_c, 2, 7, 74
4, 107384, Control_c, 2, 7, 73
4, 107384, Control_c, 2, 7, 73
4, 107399, Control_c, 2, 7, 72
4, 107399, Control_c, 2, 7, 72
4, 107414, Control_c, 2, 7, 71
4, 107414, Control_c, 2, 7, 71
4, 107429, Control_c, 2, 7, 70
4, 107429, Control_c, 2, 7, 70
4, 107444, Control_c, 2, 7, 69
4, 107444, Control_c, 2, 7, 69
4, 107459, Control_c, 2, 7, 68
4, 107459, Control_c, 2, 7, 68
4, 107474, Control_c, 2, 7, 67
4, 107474, Control_c, 2, 7, 67
4, 107489, Control_c, 2, 7, 66
4, 107489, Control_c, 2, 7, 66
4, 107504, Control_c, 2, 7, 65
4, 107504, Control_c, 2, 7, 65
4, 107519, Control_c, 2, 7, 64
4, 107519, Control_c, 2, 7, 64
4, 108000, Control_c, 2, 7, 64
4, 108000, Control_c, 2, 7, 64
4, 108029, Control_c, 2, 7, 65
4, 108029, Control_c, 2, 7, 65
4, 108059, Control_c, 2, 7, 66
4, 108059, Control_c, 2, 7, 66
4, 108089, Control_c, 2, 7, 67
4, 108089, Control_c, 2, 7, 67
4, 108119, Control_c, 2, 7, 68
4, 108119, Control_c, 2, 7, 68
4, 108149, Control_c, 2, 7, 69
4, 108149, Control_c, 2, 7, 69
4, 108179, Control_c, 2, 7, 70
4, 108179, Control_c, 2, 7, 70
4, 108209, Control_c, 2, 7, 71
4, 108209, Control_c, 2, 7, 71
4, 108239, Control_c, 2, 7, 72
4, 108239, Control_c, 2, 7, 72
4, 108269, Control_c, 2, 7, 73
4, 108269, Control_c, 2, 7, 73
4, 108299, Control_c, 2, 7, 74
4, 108299, Control_c, 2, 7, 74
4, 108329, Control_c, 2, 7, 75
4, 108329, Control_c, 2, 7, 75
4, 108359, Control_c, 2, 7, 76
4, 108359, Control_c, 2, 7, 76
4, 108389, Control_c, 2, 7, 77
4, 108389, Control_c, 2, 7, 77
4, 108419, Control_c, 2, 7, 78
4, 108419, Control_c, 2, 7, 78
4, 108449, Control_c, 2, 7, 79
4, 108449, Control_c, 2, 7, 79
4, 108479, Control_c, 2, 7, 80
4, 108479, Control_c, 2, 7, 80
4, 108509, Control_c, 2, 7, 81
4, 108509, Control_c, 2, 7, 81
4, 108539, Control_c, 2, 7, 82
4, 108539, Control_c, 2, 7, 82
4, 108569, Control_c, 2, 7, 83
4, 108569, Control_c, 2, 7, 83
4, 108599, Control_c, 2, 7, 84
4, 108599, Control_c, 2, 7, 84
4, 108629, Control_c, 2, 7, 85
4, 108629, Control_c, 2, 7, 85
4, 108659, Control_c, 2, 7, 86
4, 108659, Control_c, 2, 7, 86
4, 108689, Control_c, 2, 7, 87
4, 108689, Control_c, 2, 7, 87
4, 108719, Control_c, 2, 7, 88
4, 108719, Control_c, 2, 7, 88
4, 108749, Control_c, 2, 7, 89
4, 108749, Control_c, 2, 7, 89
4, 108779, Control_c, 2, 7, 90
4, 108779, Control_c, 2, 7, 90
4, 108809, Control_c, 2, 7, 91
4, 108809, Control_c, 2, 7, 91
4, 108839, Control_c, 2, 7, 92
4, 108839, Control_c, 2, 7, 92
4, 108869, Control_c, 2, 7, 93
4, 108869, Control_c, 2, 7, 93
4, 108899, Control_c, 2, 7, 94
4, 108899, Control_c, 2, 7, 94
4, 108929, Control_c, 2, 7, 95
4, 108929, Control_c, 2, 7, 95
4, 108959, Control_c, 2, 7, 96
4, 108959, Control_c, 2, 7, 96
4, 108960, Control_c, 2, 7, 96
4, 108960, Control_c, 2, 7, 96
4, 108974, Control_c, 2, 7, 95
4, 108974, Control_c, 2, 7, 95
4, 108989, Control_c, 2, 7, 94
4, 108989, Control_c, 2, 7, 94
4, 109004, Control_c, 2, 7, 93
4, 109004, Control_c, 2, 7, 93
4, 109019, Control_c, 2, 7, 92
4, 109019, Control_c, 2, 7, 92
4, 109034, Control_c, 2, 7, 91
4, 109034, Control_c, 2, 7, 91
4, 109049, Control_c, 2, 7, 90
4, 109049, Control_c, 2, 7, 90
4, 109064, Control_c, 2, 7, 89
4, 109064, Control_c, 2, 7, 89
4, 109079, Control_c, 2, 7, 88
4, 109079, Control_c, 2, 7, 88
4, 109094, Control_c, 2, 7, 87
4, 109094, Control_c, 2, 7, 87
4, 109109, Control_c, 2, 7, 86
4, 109109, Control_c, 2, 7, 86
4, 109124, Control_c, 2, 7, 85
4, 109124, Control_c, 2, 7, 85
4, 109139, Control_c, 2, 7, 84
4, 109139, Control_c, 2, 7, 84
4, 109154, Control_c, 2, 7, 83
4, 109154, Control_c, 2, 7, 83
4, 109169, Control_c, 2, 7, 82
4, 109169, Control_c, 2, 7, 82
4, 109184, Control_c, 2, 7, 81
4, 109184, Control_c, 2, 7, 81
4, 109199, Control_c, 2, 7, 80
4, 109199, Control_c, 2, 7, 80
4, 109214, Control_c, 2, 7, 79
4, 109214, Control_c, 2, 7, 79
4, 109229, Control_c, 2, 7, 78
4, 109229, Control_c, 2, 7, 78
4, 109244, Control_c, 2, 7, 77
4, 109244, Control_c, 2, 7, 77
4, 109259, Control_c, 2, 7, 76
4, 109259, Control_c, 2, 7, 76
4, 109274, Control_c, 2, 7, 75
4, 109274, Control_c, 2, 7, 75
4, 109289, Control_c, 2, 7, 74
4, 109289, Control_c, 2, 7, 74
4, 109304, Control_c, 2, 7, 73
4, 109304, Control_c, 2, 7, 73
4, 109319, Control_c, 2, 7, 72
4, 109319, Control_c, 2, 7, 72
4, 109334, Control_c, 2, 7, 71
4, 109334, Control_c, 2, 7, 71
4, 109349, Control_c, 2, 7, 70
4, 109349, Control_c, 2, 7, 70
4, 109364, Control_c, 2, 7, 69
4, 109364, Control_c, 2, 7, 69
4, 109379, Control_c, 2, 7, 68
4, 109379, Control_c, 2, 7, 68
4, 109394, Control_c, 2, 7, 67
4, 109394, Control_c, 2, 7, 67
4, 109409, Control_c, 2, 7, 66
4, 109409, Control_c, 2, 7, 66
4, 109424, Control_c, 2, 7, 65
4, 109424, Control_c, 2, 7, 65
4, 109439, Control_c, 2, 7, 64
4, 109439, Control_c, 2, 7, 64
4, 109920, Control_c, 2, 7, 64
4, 109920, Control_c, 2, 7, 64
4, 109949, Control_c, 2, 7, 65
4, 109949, Control_c, 2, 7, 65
4, 109979, Control_c, 2, 7, 66
4, 109979, Control_c, 2, 7, 66
4, 110009, Control_c, 2, 7, 67
4, 110009, Control_c, 2, 7, 67
4, 110039, Control_c, 2, 7, 68
4, 110039, Control_c, 2, 7, 68
4, 110069, Control_c, 2, 7, 69
4, 110069, Control_c, 2, 7, 69
4, 110099, Control_c, 2, 7, 70
4, 110099, Control_c, 2, 7, 70
4, 110129, Control_c, 2, 7, 71
4, 110129, Control_c, 2, 7, 71
4, 110159, Control_c, 2, 7, 72
4, 110159, Control_c, 2, 7, 72
4, 110189, Control_c, 2, 7, 73
4, 110189, Control_c, 2, 7, 73
4, 110219, Control_c, 2, 7, 74
4, 110219, Control_c, 2, 7, 74
4, 110249, Control_c, 2, 7, 75
4, 110249, Control_c, 2, 7, 75
4, 110279, Control_c, 2, 7, 76
4, 110279, Control_c, 2, 7, 76
4, 110309, Control_c, 2, 7, 77
4, 110309, Control_c, 2, 7, 77
4, 110339, Control_c, 2, 7, 78
4, 110339, Control_c, 2, 7, 78
4, 110369, Control_c, 2, 7, 79
4, 110369, Control_c, 2, 7, 79
4, 110399, Control_c, 2, 7, 80
4, 110399, Control_c, 2, 7, 80
4, 110429, Control_c, 2, 7, 81
4, 110429, Control_c, 2, 7, 81
4, 110459, Control_c, 2, 7, 82
4, 110459, Control_c, 2, 7, 82
4, 110489, Control_c, 2, 7, 83
4, 110489, Control_c, 2, 7, 83
4, 110519, Control_c, 2, 7, 84
4, 110519, Control_c, 2, 7, 84
4, 110549, Control_c, 2, 7, 85
4, 110549, Control_c, 2, 7, 85
4, 110579, Control_c, 2, 7, 86
4, 110579, Control_c, 2, 7, 86
4, 110609, Control_c, 2, 7, 87
4, 110609, Control_c, 2, 7, 87
4, 110639, Control_c, 2, 7, 88
4, 110639, Control_c, 2, 7, 88
4, 110669, Control_c, 2, 7, 89
4, 110669, Control_c, 2, 7, 89
4, 110699, Control_c, 2, 7, 90
4, 110699, Control_c, 2, 7, 90
4, 110729, Control_c, 2, 7, 91
4, 110729, Control_c, 2, 7, 91
4, 110759, Control_c, 2, 7, 92
4, 110759, Control_c, 2, 7, 92
4, 110789, Control_c, 2, 7, 93
4, 110789, Control_c, 2, 7, 93
4, 110819, Control_c, 2, 7, 94
4, 110819, Control_c, 2, 7, 94
4, 110849, Control_c, 2, 7, 95
4, 110849, Control_c, 2, 7, 95
4, 110879, Control_c, 2, 7, 96
4, 110879, Control_c, 2, 7, 96
4, 110880, Control_c, 2, 7, 96
4, 110880, Control_c, 2, 7, 96
4, 110894, Control_c, 2, 7, 95
4, 110894, Control_c, 2, 7, 95
4, 110909, Control_c, 2, 7, 94
4, 110909, Control_c, 2, 7, 94
4, 110924, Control_c, 2, 7, 93
4, 110924, Control_c, 2, 7, 93
4, 110939, Control_c, 2, 7, 92
4, 110939, Control_c, 2, 7, 92
4, 110954, Control_c, 2, 7, 91
4, 110954, Control_c, 2, 7, 91
4, 110969, Control_c, 2, 7, 90
4, 110969, Control_c, 2, 7, 90
4, 110984, Control_c, 2, 7, 89
4, 110984, Control_c, 2, 7, 89
4, 110999, Control_c, 2, 7, 88
4, 110999, Control_c, 2, 7, 88
4, 111014, Control_c, 2, 7, 87
4, 111014, Control_c, 2, 7, 87
4, 111029, Control_c, 2, 7, 86
4, 111029, Control_c, 2, 7, 86
4, 111044, Control_c, 2, 7, 85
4, 111044, Control_c, 2, 7, 85
4, 111059, Control_c, 2, 7, 84
4, 111059, Control_c, 2, 7, 84
4, 111074, Control_c, 2, 7, 83
4, 111074, Control_c, 2, 7, 83
4, 111089, Control_c, 2, 7, 82
4, 111089, Control_c, 2, 7, 82
4, 111104, Control_c, 2, 7, 81
4, 111104, Control_c, 2, 7, 81
4, 111119, Control_c, 2, 7, 80
4, 111119, Control_c, 2, 7, 80
4, 111134, Control_c, 2, 7, 79
4, 111134, Control_c, 2, 7, 79
4, 111149, Control_c, 2, 7, 78
4, 111149, Control_c, 2, 7, 78
4, 111164, Control_c, 2, 7, 77
4, 111164, Control_c, 2, 7, 77
4, 111179, Control_c, 2, 7, 76
4, 111179, Control_c, 2, 7, 76
4, 111194, Control_c, 2, 7, 75
4, 111194, Control_c, 2, 7, 75
4, 111209, Control_c, 2, 7, 74
4, 111209, Control_c, 2, 7, 74
4, 111224, Control_c, 2, 7, 73
4, 111224, Control_c, 2, 7, 73
4, 111239, Control_c, 2, 7, 72
4, 111239, Control_c, 2, 7, 72
4, 111254, Control_c, 2, 7, 71
4, 111254, Control_c, 2, 7, 71
4, 111269, Control_c, 2, 7, 70
4, 111269, Control_c, 2, 7, 70
4, 111284, Control_c, 2, 7, 69
4, 111284, Control_c, 2, 7, 69
4, 111299, Control_c, 2, 7, 68
4, 111299, Control_c, 2, 7, 68
4, 111314, Control_c, 2, 7, 67
4, 111314, Control_c, 2, 7, 67
4, 111329, Control_c, 2, 7, 66
4, 111329, Control_c, 2, 7, 66
4, 111344, Control_c, 2, 7, 65
4, 111344, Control_c, 2, 7, 65
4, 111359, Control_c, 2, 7, 64
4, 111359, Control_c, 2, 7, 64
4, 111840, Control_c, 2, 7, 64
4, 111840, Control_c, 2, 7, 64
4, 111869, Control_c, 2, 7, 65
4, 111869, Control_c, 2, 7, 65
4, 111899, Control_c, 2, 7, 66
4, 111899, Control_c, 2, 7, 66
4, 111929, Control_c, 2, 7, 67
4, 111929, Control_c, 2, 7, 67
4, 111959, Control_c, 2, 7, 68
4, 111959, Control_c, 2, 7, 68
4, 111989, Control_c, 2, 7, 69
4, 111989, Control_c, 2, 7, 69
4, 112019, Control_c, 2, 7, 70
4, 112019, Control_c, 2, 7, 70
4, 112049, Control_c, 2, 7, 71
4, 112049, Control_c, 2, 7, 71
4, 112079, Control_c, 2, 7, 72
4, 112079, Control_c, 2, 7, 72
4, 112109, Control_c, 2, 7, 73
4, 112109, Control_c, 2, 7, 73
4, 112139, Control_c, 2, 7, 74
4, 112139, Control_c, 2, 7, 74
4, 112169, Control_c, 2, 7, 75
4, 112169, Control_c, 2, 7, 75
4, 112199, Control_c, 2, 7, 76
4, 112199, Control_c, 2, 7, 76
4, 112229, Control_c, 2, 7, 77
4, 112229, Control_c, 2, 7, 77
4, 112259, Control_c, 2, 7, 78
4, 112259, Control_c, 2, 7, 78
4, 112289, Control_c, 2, 7, 79
4, 112289, Control_c, 2, 7, 79
4, 112319, Control_c, 2, 7, 80
4, 112319, Control_c, 2, 7, 80
4, 112349, Control_c, 2, 7, 81
4, 112349, Control_c, 2, 7, 81
4, 112379, Control_c, 2, 7, 82
4, 112379, Control_c, 2, 7, 82
4, 112409, Control_c, 2, 7, 83
4, 112409, Control_c, 2, 7, 83
4, 112439, Control_c, 2, 7, 84
4, 112439, Control_c, 2, 7, 84
4, 112469, Control_c, 2, 7, 85
4, 112469, Control_c, 2, 7, 85
4, 112499, Control_c, 2, 7, 86
4, 112499, Control_c, 2, 7, 86
4, 112529, Control_c, 2, 7, 87
4, 112529, Control_c, 2, 7, 87
4, 112559, Control_c, 2, 7, 88
4, 112559, Control_c, 2, 7, 88
4, 112589, Control_c, 2, 7, 89
4, 112589, Control_c, 2, 7, 89
4, 112619, Control_c, 2, 7, 90
4, 112619, Control_c, 2, 7, 90
4, 112649, Control_c, 2, 7, 91
4, 112649, Control_c, 2, 7, 91
4, 112679, Control_c, 2, 7, 92
4, 112679, Control_c, 2, 7, 92
4, 112709, Control_c, 2, 7, 93
4, 112709, Control_c, 2, 7, 93
4, 112739, Control_c, 2, 7, 94
4, 112739, Control_c, 2, 7, 94
4, 112769, Control_c, 2, 7, 95
4, 112769, Control_c, 2, 7, 95
4, 112799, Control_c, 2, 7, 96
4, 112799, Control_c, 2, 7, 96
4, 114720, Control_c, 2, 7, 48
4, 114792, Control_c, 2, 7, 49
4, 114865, Control_c, 2, 7, 50
4, 114938, Control_c, 2, 7, 51
4, 115011, Control_c, 2, 7, 52
4, 115084, Control_c, 2, 7, 53
4, 115157, Control_c, 2, 7, 54
4, 115230, Control_c, 2, 7, 55
4, 115303, Control_c, 2, 7, 56
4, 115376, Control_c, 2, 7, 57
4, 115448, Control_c, 2, 7, 58
4, 115521, Control_c, 2, 7, 59
4, 115594, Control_c, 2, 7, 60
4, 115667, Control_c, 2, 7, 61
4, 115740, Control_c, 2, 7, 62
4, 115813, Control_c, 2, 7, 63
4, 115886, Control_c, 2, 7, 64
4, 115959, Control_c, 2, 7, 65
4, 116032, Control_c, 2, 7, 66
4, 116105, Control_c, 2, 7, 67
4, 116177, Control_c, 2, 7, 68
4, 116250, Control_c, 2, 7, 69
4, 116323, Control_c, 2, 7, 70
4, 116396, Control_c, 2, 7, 71
4, 116469, Control_c, 2, 7, 72
4, 116542, Control_c, 2, 7, 73
4, 116615, Control_c, 2, 7, 74
4, 116688, Control_c, 2, 7, 75
4, 116761, Control_c, 2, 7, 76
4, 116834, Control_c, 2, 7, 77
4, 116906, Control_c, 2, 7, 78
4, 116979, Control_c, 2, 7, 79
4, 117052, Control_c, 2, 7, 80
4, 117125, Control_c, 2, 7, 81
4, 117198, Control_c, 2, 7, 82
4, 117271, Control_c, 2, 7, 83
4, 117344, Control_c, 2, 7, 84
4, 117417, Control_c, 2, 7, 85
4, 117490, Control_c, 2, 7, 86
4, 117563, Control_c, 2, 7, 87
4, 117635, Control_c, 2, 7, 88
4, 117708, Control_c, 2, 7, 89
4, 117781, Control_c, 2, 7, 90
4, 117854, Control_c, 2, 7, 91
4, 117927, Control_c, 2, 7, 92
4, 118000, Control_c, 2, 7, 93
4, 118073, Control_c, 2, 7, 94
4, 118146, Control_c, 2, 7, 95
4, 118219, Control_c, 2, 7, 96
4, 118292, Control_c, 2, 7, 97
4, 118364, Control_c, 2, 7, 98
4, 118437, Control_c, 2, 7, 99
4, 118510, Control_c, 2, 7, 100
4, 118583, Control_c, 2, 7, 101
4, 118656, Control_c, 2, 7, 102
4, 118729, Control_c, 2, 7, 103
4, 118802, Control_c, 2, 7, 104
4, 118875, Control_c, 2, 7, 105
4, 118948, Control_c, 2, 7, 106
4, 119021, Control_c, 2, 7, 107
4, 119040, Note_on_c, 2, 72, 82
4, 119040, Note_on_c, 2, 69, 82
4, 119093, Control_c, 2, 7, 108
4, 119166, Control_c, 2, 7, 109
4, 119239, Control_c, 2, 7, 110
4, 119312, Control_c, 2, 7, 111
4, 119385, Control_c, 2, 7, 112
4, 119458, Control_c, 2, 7, 113
4, 119520, Note_on_c, 2, 69, 0
4, 119520, Note_on_c, 2, 72, 0
4, 119520, Note_on_c, 2, 67, 92
4, 119520, Note_on_c, 2, 71, 92
4, 119531, Control_c, 2, 7, 114
4, 119604, Control_c, 2, 7, 115
4, 119677, Control_c, 2, 7, 116
4, 119750, Control_c, 2, 7, 117
4, 119760, Note_on_c, 2, 71, 0
4, 119760, Note_on_c, 2, 67, 0
4, 119760, Note_on_c, 2, 66, 100
4, 119760, Note_on_c, 2, 69, 100
4, 119822, Control_c, 2, 7, 118
4, 119895, Control_c, 2, 7, 119
4, 119968, Control_c, 2, 7, 120
4, 120000, Note_on_c, 2, 69, 0
4, 120000, Note_on_c, 2, 66, 0
4, 120000, Note_on_c, 2, 67, 106
4, 120000, Note_on_c, 2, 71, 106
4, 120041, Control_c, 2, 7, 121
4, 120114, Control_c, 2, 7, 122
4, 120187, Control_c, 2, 7, 123
4, 120216, Note_on_c, 2, 71, 0
4, 120216, Note_on_c, 2, 67, 0
4, 120240, Note_on_c, 2, 64, 109
4, 120240, Note_on_c, 2, 73, 109
4, 120260, Control_c, 2, 7, 124
4, 120333, Control_c, 2, 7, 125
4, 120406, Control_c, 2, 7, 126
4, 120456, Note_on_c, 2, 73, 0
4, 120456, Note_on_c, 2, 64, 0
4, 120479, Control_c, 2, 7, 127
4, 120480, Note_on_c, 2, 66, 104
4, 120480, Note_on_c, 2, 74, 104
4, 120696, Note_on_c, 2, 74, 0
4, 120696, Note_on_c, 2, 66, 0
4, 120840, Note_on_c, 2, 71, 84
4, 120840, Note_on_c, 2, 71, 84
4, 120948, Note_on_c, 2, 71, 0
4, 120948, Note_on_c, 2, 71, 0
4, 120960, Note_on_c, 2, 69, 104
4, 120960, Note_on_c, 2, 69, 104
4, 121068, Note_on_c, 2, 69, 0
4, 121068, Note_on_c, 2, 69, 0
4, 121080, Note_on_c, 2, 66, 85
4, 121080, Note_on_c, 2, 66, 85
4, 121176, Note_on_c, 2, 66, 0
4, 121188, Note_on_c, 2, 66, 0
4, 121320, Note_on_c, 2, 71, 86
4, 121320, Note_on_c, 2, 71, 86
4, 121428, Note_on_c, 2, 71, 0
4, 121428, Note_on_c, 2, 71, 0
4, 121440, Note_on_c, 2, 69, 104
4, 121440, Note_on_c, 2, 69, 104
4, 121548, Note_on_c, 2, 69, 0
4, 121548, Note_on_c, 2, 69, 0
4, 121560, Note_on_c, 2, 66, 85
4, 121560, Note_on_c, 2, 66, 85
4, 121656, Note_on_c, 2, 66, 0
4, 121668, Note_on_c, 2, 66, 0
4, 121800, Note_on_c, 2, 71, 86
4, 121800, Note_on_c, 2, 71, 86
4, 121908, Note_on_c, 2, 71, 0
4, 121908, Note_on_c, 2, 71, 0
4, 121920, Note_on_c, 2, 69, 104
4, 121920, Note_on_c, 2, 69, 104
4, 122028, Note_on_c, 2, 69, 0
4, 122028, Note_on_c, 2, 69, 0
4, 122040, Note_on_c, 2, 66, 89
4, 122040, Note_on_c, 2, 66, 89
4, 122136, Note_on_c, 2, 66, 0
4, 122148, Note_on_c, 2, 66, 0
4, 122160, Note_on_c, 2, 69, 96
4, 122160, Note_on_c, 2, 69, 96
4, 122268, Note_on_c, 2, 69, 0
4, 122268, Note_on_c, 2, 69, 0
4, 122280, Note_on_c, 2, 71, 101
4, 122280, Note_on_c, 2, 71, 101
4, 122388, Note_on_c, 2, 71, 0
4, 122388, Note_on_c, 2, 71, 0
4, 122400, Note_on_c, 2, 69, 104
4, 122520, Note_on_c, 2, 69, 0
4, 122520, Note_on_c, 2, 66, 87
4, 122616, Note_on_c, 2, 66, 0
4, 122760, Note_on_c, 2, 73, 91
4, 122760, Note_on_c, 2, 64, 91
4, 122880, Note_on_c, 2, 64, 0
4, 122880, Note_on_c, 2, 66, 104
4, 122880, Note_on_c, 2, 74, 104
4, 122890, Note_on_c, 2, 73, 0
4, 122988, Note_on_c, 2, 74, 0
4, 122988, Note_on_c, 2, 66, 0
4, 123000, Note_on_c, 2, 66, 89
4, 123000, Note_on_c, 2, 74, 89
4, 123096, Note_on_c, 2, 74, 0
4, 123096, Note_on_c, 2, 66, 0
4, 123240, Note_on_c, 2, 73, 86
4, 123240, Note_on_c, 2, 64, 86
4, 123344, Note_on_c, 2, 64, 0
4, 123360, Note_on_c, 2, 74, 105
4, 123360, Note_on_c, 2, 66, 105
4, 123370, Note_on_c, 2, 73, 0
4, 123468, Note_on_c, 2, 66, 0
4, 123468, Note_on_c, 2, 74, 0
4, 123480, Note_on_c, 2, 74, 86
4, 123480, Note_on_c, 2, 66, 86
4, 123588, Note_on_c, 2, 66, 0
4, 123588, Note_on_c, 2, 74, 0
4, 123720, Note_on_c, 2, 73, 85
4, 123720, Note_on_c, 2, 64, 85
4, 123824, Note_on_c, 2, 64, 0
4, 123828, Note_on_c, 2, 73, 0
4, 123840, Note_on_c, 2, 66, 105
4, 123840, Note_on_c, 2, 74, 105
4, 123948, Note_on_c, 2, 74, 0
4, 123948, Note_on_c, 2, 66, 0
4, 123960, Note_on_c, 2, 64, 87
4, 123960, Note_on_c, 2, 73, 87
4, 124068, Note_on_c, 2, 73, 0
4, 124068, Note_on_c, 2, 64, 0
4, 124080, Note_on_c, 2, 66, 97
4, 124080, Note_on_c, 2, 74, 97
4, 124188, Note_on_c, 2, 74, 0
4, 124188, Note_on_c, 2, 66, 0
4, 124200, Note_on_c, 2, 64, 106
4, 124200, Note_on_c, 2, 73, 106
4, 124304, Note_on_c, 2, 64, 0
4, 124308, Note_on_c, 2, 73, 0
4, 124320, Note_on_c, 2, 66, 110
4, 124320, Note_on_c, 2, 74, 110
4, 124440, Note_on_c, 2, 74, 0
4, 124440, Note_on_c, 2, 66, 0
4, 125280, Note_on_c, 2, 74, 103
4, 125340, Note_on_c, 2, 74, 0
4, 125340, Note_on_c, 2, 73, 99
4, 125400, Note_on_c, 2, 73, 0
4, 125400, Note_on_c, 2, 71, 97
4, 125460, Note_on_c, 2, 71, 0
4, 125460, Note_on_c, 2, 69, 92
4, 125520, Note_on_c, 2, 69, 0
4, 125520, Note_on_c, 2, 67, 89
4, 125580, Note_on_c, 2, 67, 0
4, 125580, Note_on_c, 2, 66, 84
4, 125640, Note_on_c, 2, 66, 0
4, 125640, Note_on_c, 2, 64, 80
4, 125700, Note_on_c, 2, 64, 0
4, 125700, Note_on_c, 2, 62, 77
4, 125760, Note_on_c, 2, 62, 0
4, 125760, Note_on_c, 2, 76, 73
4, 125760, Note_on_c, 2, 79, 73
4, 125820, Note_on_c, 2, 79, 0
4, 125820, Note_on_c, 2, 76, 0
4, 125820, Note_on_c, 2, 74, 99
4, 125820, Note_on_c, 2, 78, 99
4, 125880, Note_on_c, 2, 78, 0
4, 125880, Note_on_c, 2, 74, 0
4, 125880, Note_on_c, 2, 73, 93
4, 125880, Note_on_c, 2, 76, 93
4, 125940, Note_on_c, 2, 76, 0
4, 125940, Note_on_c, 2, 73, 0
4, 125940, Note_on_c, 2, 71, 89
4, 125940, Note_on_c, 2, 74, 89
4, 126000, Note_on_c, 2, 74, 0
4, 126000, Note_on_c, 2, 71, 0
4, 126000, Note_on_c, 2, 69, 86
4, 126000, Note_on_c, 2, 73, 86
4, 126060, Note_on_c, 2, 73, 0
4, 126060, Note_on_c, 2, 69, 0
4, 126060, Note_on_c, 2, 67, 83
4, 126060, Note_on_c, 2, 71, 83
4, 126120, Note_on_c, 2, 71, 0
4, 126120, Note_on_c, 2, 66, 77
4, 126120, Note_on_c, 2, 69, 77
4, 126132, Note_on_c, 2, 67, 0
4, 126180, Note_on_c, 2, 69, 0
4, 126180, Note_on_c, 2, 66, 0
4, 126180, Note_on_c, 2, 64, 70
4, 126180, Note_on_c, 2, 67, 70
4, 126240, Note_on_c, 2, 67, 0
4, 126240, Note_on_c, 2, 64, 0
4, 126240, Note_on_c, 2, 66, 65
4, 126240, Note_on_c, 2, 62, 65
4, 126360, Note_on_c, 2, 62, 0
4, 126360, Note_on_c, 2, 66, 0
4, 126480, Note_on_c, 2, 74, 107
4, 126480, Note_on_c, 2, 66, 107
4, 126600, Note_on_c, 2, 66, 0
4, 126600, Note_on_c, 2, 74, 0
4, 126720, Note_on_c, 2, 67, 106
4, 126720, Note_on_c, 2, 71, 106
4, 126853, Note_on_c, 2, 71, 0
4, 126853, Note_on_c, 2, 67, 0
4, 126960, Note_on_c, 2, 64, 104
4, 126960, Note_on_c, 2, 73, 104
4, 127080, Note_on_c, 2, 73, 0
4, 127080, Note_on_c, 2, 64, 0
4, 127200, Note_on_c, 2, 66, 104
4, 127200, Note_on_c, 2, 74, 104
4, 127373, Note_on_c, 2, 74, 0
4, 127373, Note_on_c, 2, 66, 0
4, 127560, Note_on_c, 2, 71, 82
4, 127560, Note_on_c, 2, 71, 82
4, 127663, Note_on_c, 2, 71, 0
4, 127663, Note_on_c, 2, 71, 0
4, 127680, Note_on_c, 2, 69, 104
4, 127680, Note_on_c, 2, 69, 104
4, 127775, Note_on_c, 2, 69, 0
4, 127788, Note_on_c, 2, 69, 0
4, 127800, Note_on_c, 2, 66, 86
4, 127800, Note_on_c, 2, 66, 86
4, 127886, Note_on_c, 2, 66, 0
4, 127896, Note_on_c, 2, 66, 0
4, 128040, Note_on_c, 2, 71, 86
4, 128040, Note_on_c, 2, 71, 86
4, 128143, Note_on_c, 2, 71, 0
4, 128143, Note_on_c, 2, 71, 0
4, 128160, Note_on_c, 2, 69, 103
4, 128160, Note_on_c, 2, 69, 103
4, 128255, Note_on_c, 2, 69, 0
4, 128268, Note_on_c, 2, 69, 0
4, 128280, Note_on_c, 2, 66, 86
4, 128280, Note_on_c, 2, 66, 86
4, 128366, Note_on_c, 2, 66, 0
4, 128376, Note_on_c, 2, 66, 0
4, 128520, Note_on_c, 2, 71, 86
4, 128520, Note_on_c, 2, 71, 86
4, 128623, Note_on_c, 2, 71, 0
4, 128623, Note_on_c, 2, 71, 0
4, 128640, Note_on_c, 2, 69, 103
4, 128640, Note_on_c, 2, 69, 103
4, 128735, Note_on_c, 2, 69, 0
4, 128735, Note_on_c, 2, 69, 0
4, 128760, Note_on_c, 2, 66, 83
4, 128760, Note_on_c, 2, 66, 83
4, 128846, Note_on_c, 2, 66, 0
4, 128856, Note_on_c, 2, 66, 0
4, 128880, Note_on_c, 2, 69, 86
4, 128880, Note_on_c, 2, 69, 86
4, 128966, Note_on_c, 2, 69, 0
4, 128966, Note_on_c, 2, 69, 0
4, 129000, Note_on_c, 2, 71, 93
4, 129000, Note_on_c, 2, 71, 93
4, 129103, Note_on_c, 2, 71, 0
4, 129103, Note_on_c, 2, 71, 0
4, 129120, Note_on_c, 2, 69, 98
4, 129215, Note_on_c, 2, 69, 0
4, 129240, Note_on_c, 2, 66, 103
4, 129326, Note_on_c, 2, 66, 0
4, 129480, Note_on_c, 2, 73, 85
4, 129480, Note_on_c, 2, 64, 85
4, 129583, Note_on_c, 2, 64, 0
4, 129583, Note_on_c, 2, 73, 0
4, 129600, Note_on_c, 2, 66, 107
4, 129600, Note_on_c, 2, 74, 107
4, 129695, Note_on_c, 2, 74, 0
4, 129695, Note_on_c, 2, 66, 0
4, 129720, Note_on_c, 2, 66, 85
4, 129720, Note_on_c, 2, 74, 85
4, 129806, Note_on_c, 2, 74, 0
4, 129806, Note_on_c, 2, 66, 0
4, 129960, Note_on_c, 2, 73, 89
4, 129960, Note_on_c, 2, 64, 89
4, 130063, Note_on_c, 2, 64, 0
4, 130063, Note_on_c, 2, 73, 0
4, 130080, Note_on_c, 2, 74, 106
4, 130080, Note_on_c, 2, 66, 106
4, 130175, Note_on_c, 2, 66, 0
4, 130175, Note_on_c, 2, 74, 0
4, 130200, Note_on_c, 2, 74, 88
4, 130200, Note_on_c, 2, 66, 88
4, 130286, Note_on_c, 2, 66, 0
4, 130286, Note_on_c, 2, 74, 0
4, 130440, Note_on_c, 2, 73, 86
4, 130440, Note_on_c, 2, 64, 86
4, 130543, Note_on_c, 2, 64, 0
4, 130543, Note_on_c, 2, 73, 0
4, 130560, Note_on_c, 2, 66, 105
4, 130560, Note_on_c, 2, 74, 105
4, 130655, Note_on_c, 2, 74, 0
4, 130655, Note_on_c, 2, 66, 0
4, 130680, Note_on_c, 2, 64, 85
4, 130680, Note_on_c, 2, 73, 85
4, 130766, Note_on_c, 2, 73, 0
4, 130766, Note_on_c, 2, 64, 0
4, 130800, Note_on_c, 2, 66, 93
4, 130800, Note_on_c, 2, 74, 93
4, 130886, Note_on_c, 2, 74, 0
4, 130886, Note_on_c, 2, 66, 0
4, 130920, Note_on_c, 2, 64, 98
4, 130920, Note_on_c, 2, 73, 98
4, 131023, Note_on_c, 2, 73, 0
4, 131023, Note_on_c, 2, 64, 0
4, 131040, Note_on_c, 2, 66, 105
4, 131040, Note_on_c, 2, 74, 105
4, 131135, Note_on_c, 2, 74, 0
4, 131135, Note_on_c, 2, 66, 0
4, 132000, Note_on_c, 2, 74, 103
4, 132060, Note_on_c, 2, 74, 0
4, 132060, Note_on_c, 2, 73, 100
4, 132120, Note_on_c, 2, 73, 0
4, 132120, Note_on_c, 2, 71, 95
4, 132180, Note_on_c, 2, 71, 0
4, 132180, Note_on_c, 2, 69, 90
4, 132240, Note_on_c, 2, 69, 0
4, 132240, Note_on_c, 2, 67, 85
4, 132300, Note_on_c, 2, 67, 0
4, 132300, Note_on_c, 2, 66, 80
4, 132360, Note_on_c, 2, 66, 0
4, 132360, Note_on_c, 2, 64, 74
4, 132420, Note_on_c, 2, 64, 0
4, 132420, Note_on_c, 2, 62, 69
4, 132480, Note_on_c, 2, 62, 0
4, 132480, Note_on_c, 2, 76, 65
4, 132480, Note_on_c, 2, 79, 65
4, 132540, Note_on_c, 2, 79, 0
4, 132540, Note_on_c, 2, 76, 0
4, 132540, Note_on_c, 2, 74, 97
4, 132540, Note_on_c, 2, 78, 97
4, 132600, Note_on_c, 2, 78, 0
4, 132600, Note_on_c, 2, 74, 0
4, 132600, Note_on_c, 2, 73, 90
4, 132600, Note_on_c, 2, 76, 90
4, 132660, Note_on_c, 2, 76, 0
4, 132660, Note_on_c, 2, 73, 0
4, 132660, Note_on_c, 2, 71, 86
4, 132660, Note_on_c, 2, 74, 86
4, 132720, Note_on_c, 2, 74, 0
4, 132720, Note_on_c, 2, 71, 0
4, 132720, Note_on_c, 2, 69, 79
4, 132720, Note_on_c, 2, 73, 79
4, 132780, Note_on_c, 2, 73, 0
4, 132780, Note_on_c, 2, 69, 0
4, 132780, Note_on_c, 2, 67, 74
4, 132780, Note_on_c, 2, 71, 74
4, 132840, Note_on_c, 2, 71, 0
4, 132840, Note_on_c, 2, 67, 0
4, 132840, Note_on_c, 2, 66, 70
4, 132840, Note_on_c, 2, 69, 70
4, 132900, Note_on_c, 2, 69, 0
4, 132900, Note_on_c, 2, 66, 0
4, 132900, Note_on_c, 2, 64, 65
4, 132900, Note_on_c, 2, 67, 65
4, 132960, Note_on_c, 2, 67, 0
4, 132960, Note_on_c, 2, 64, 0
4, 132960, Note_on_c, 2, 66, 62
4, 132960, Note_on_c, 2, 62, 62
4, 133080, Note_on_c, 2, 62, 0
4, 133080, Note_on_c, 2, 66, 0
4, 133200, Note_on_c, 2, 74, 105
4, 133200, Note_on_c, 2, 66, 105
4, 133320, Note_on_c, 2, 66, 0
4, 133320, Note_on_c, 2, 74, 0
4, 133440, Note_on_c, 2, 67, 105
4, 133440, Note_on_c, 2, 71, 105
4, 133560, Note_on_c, 2, 71, 0
4, 133560, Note_on_c, 2, 67, 0
4, 133680, Note_on_c, 2, 64, 105
4, 133680, Note_on_c, 2, 73, 105
4, 133800, Note_on_c, 2, 73, 0
4, 133800, Note_on_c, 2, 64, 0
4, 133920, Note_on_c, 2, 74, 101
4, 133980, Note_on_c, 2, 74, 0
4, 133980, Note_on_c, 2, 73, 96
4, 134040, Note_on_c, 2, 73, 0
4, 134040, Note_on_c, 2, 71, 93
4, 134100, Note_on_c, 2, 71, 0
4, 134100, Note_on_c, 2, 69, 87
4, 134160, Note_on_c, 2, 69, 0
4, 134160, Note_on_c, 2, 67, 82
4, 134220, Note_on_c, 2, 67, 0
4, 134220, Note_on_c, 2, 66, 76
4, 134280, Note_on_c, 2, 66, 0
4, 134280, Note_on_c, 2, 64, 73
4, 134340, Note_on_c, 2, 64, 0
4, 134340, Note_on_c, 2, 62, 67
4, 134400, Note_on_c, 2, 62, 0
4, 134400, Note_on_c, 2, 76, 105
4, 134400, Note_on_c, 2, 79, 105
4, 134460, Note_on_c, 2, 79, 0
4, 134460, Note_on_c, 2, 76, 0
4, 134460, Note_on_c, 2, 74, 97
4, 134460, Note_on_c, 2, 78, 97
4, 134520, Note_on_c, 2, 78, 0
4, 134520, Note_on_c, 2, 74, 0
4, 134520, Note_on_c, 2, 73, 90
4, 134520, Note_on_c, 2, 76, 90
4, 134580, Note_on_c, 2, 76, 0
4, 134580, Note_on_c, 2, 73, 0
4, 134580, Note_on_c, 2, 71, 84
4, 134580, Note_on_c, 2, 74, 84
4, 134640, Note_on_c, 2, 74, 0
4, 134640, Note_on_c, 2, 71, 0
4, 134640, Note_on_c, 2, 69, 79
4, 134640, Note_on_c, 2, 73, 79
4, 134700, Note_on_c, 2, 73, 0
4, 134700, Note_on_c, 2, 69, 0
4, 134700, Note_on_c, 2, 67, 73
4, 134700, Note_on_c, 2, 71, 73
4, 134760, Note_on_c, 2, 71, 0
4, 134760, Note_on_c, 2, 67, 0
4, 134760, Note_on_c, 2, 66, 70
4, 134760, Note_on_c, 2, 69, 70
4, 134820, Note_on_c, 2, 69, 0
4, 134820, Note_on_c, 2, 66, 0
4, 134820, Note_on_c, 2, 64, 66
4, 134820, Note_on_c, 2, 67, 66
4, 134880, Note_on_c, 2, 67, 0
4, 134880, Note_on_c, 2, 64, 0
4, 134880, Note_on_c, 2, 66, 63
4, 134880, Note_on_c, 2, 62, 63
4, 135000, Note_on_c, 2, 62, 0
4, 135000, Note_on_c, 2, 66, 0
4, 135120, Note_on_c, 2, 74, 107
4, 135120, Note_on_c, 2, 66, 107
4, 135240, Note_on_c, 2, 66, 0
4, 135240, Note_on_c, 2, 74, 0
4, 135360, Note_on_c, 2, 67, 107
4, 135360, Note_on_c, 2, 71, 107
4, 135480, Note_on_c, 2, 71, 0
4, 135480, Note_on_c, 2, 67, 0
4, 135600, Note_on_c, 2, 64, 106
4, 135600, Note_on_c, 2, 73, 106
4, 135720, Note_on_c, 2, 73, 0
4, 135720, Note_on_c, 2, 64, 0
4, 135840, Note_on_c, 2, 69, 106
4, 135840, Note_on_c, 2, 66, 106
4, 136272, Note_on_c, 2, 66, 0
4, 136272, Note_on_c, 2, 69, 0
4, 136320, Note_on_c, 2, 66, 105
4, 136320, Note_on_c, 2, 69, 105
4, 136536, Note_on_c, 2, 69, 0
4, 136536, Note_on_c, 2, 66, 0
4, 136560, Note_on_c, 2, 66, 105
4, 136560, Note_on_c, 2, 69, 105
4, 136722, Note_on_c, 2, 69, 0
4, 136722, Note_on_c, 2, 66, 0
4, 136740, Note_on_c, 2, 66, 105
4, 136740, Note_on_c, 2, 69, 105
4, 136783, Note_on_c, 2, 69, 0
4, 136783, Note_on_c, 2, 66, 0
4, 136800, Note_on_c, 2, 69, 105
4, 136800, Note_on_c, 2, 66, 105
4, 137232, Note_on_c, 2, 66, 0
4, 137232, Note_on_c, 2, 69, 0
4, 137280, Note_on_c, 2, 66, 104
4, 137280, Note_on_c, 2, 69, 104
4, 137496, Note_on_c, 2, 69, 0
4, 137496, Note_on_c, 2, 66, 0
4, 137520, Note_on_c, 2, 66, 103
4, 137520, Note_on_c, 2, 69, 103
4, 137682, Note_on_c, 2, 69, 0
4, 137682, Note_on_c, 2, 66, 0
4, 137700, Note_on_c, 2, 66, 103
4, 137700, Note_on_c, 2, 69, 103
4, 137743, Note_on_c, 2, 69, 0
4, 137743, Note_on_c, 2, 66, 0
4, 137760, Note_on_c, 2, 69, 103
4, 137760, Note_on_c, 2, 66, 103
4, 138192, Note_on_c, 2, 66, 0
4, 138192, Note_on_c, 2, 69, 0
4, 138240, Note_on_c, 2, 66, 102
4, 138240, Note_on_c, 2, 69, 102
4, 138456, Note_on_c, 2, 69, 0
4, 138456, Note_on_c, 2, 66, 0
4, 138480, Note_on_c, 2, 66, 102
4, 138480, Note_on_c, 2, 69, 102
4, 138642, Note_on_c, 2, 69, 0
4, 138642, Note_on_c, 2, 66, 0
4, 138660, Note_on_c, 2, 66, 102
4, 138660, Note_on_c, 2, 69, 102
4, 138703, Note_on_c, 2, 69, 0
4, 138703, Note_on_c, 2, 66, 0
4, 138720, Note_on_c, 2, 69, 102
4, 138720, Note_on_c, 2, 66, 102
4, 138828, Note_on_c, 2, 66, 0
4, 138828, Note_on_c, 2, 69, 0
4, 138960, Note_on_c, 2, 66, 102
4, 138960, Note_on_c, 2, 69, 102
4, 139068, Note_on_c, 2, 69, 0
4, 139068, Note_on_c, 2, 66, 0
4, 139200, Note_on_c, 2, 66, 102
4, 139200, Note_on_c, 2, 69, 102
4, 139308, Note_on_c, 2, 69, 0
4, 139308, Note_on_c, 2, 66, 0
4, 139440, Note_on_c, 2, 66, 102
4, 139440, Note_on_c, 2, 69, 102
4, 139548, Note_on_c, 2, 69, 0
4, 139548, Note_on_c, 2, 66, 0
4, 139680, Note_on_c, 2, 66, 102
4, 139680, Note_on_c, 2, 69, 102
4, 139788, Note_on_c, 2, 69, 0
4, 139788, Note_on_c, 2, 66, 0
4, 140160, Note_on_c, 2, 66, 102
4, 140160, Note_on_c, 2, 69, 102
4, 140268, Note_on_c, 2, 69, 0
4, 140268, Note_on_c, 2, 66, 0
4, 140640, Note_on_c, 2, 66, 105
4, 140640, Note_on_c, 2, 69, 105
4, 140856, Note_on_c, 2, 69, 0
4, 140856, Note_on_c, 2, 66, 0
4, 140856, End_track
5, 0, Start_track
5, 0, MIDI_port, 0
5, 0, Title_t, "2 Fagotti"
5, 0, Program_c, 3, 70
5, 0, Control_c, 3, 7, 64
5, 0, Control_c, 3, 10, 60
5, 0, Control_c, 3, 91, 96
5, 0, Note_on_c, 3, 50, 96
5, 60, Note_on_c, 3, 50, 0
5, 60, Note_on_c, 3, 49, 96
5, 120, Note_on_c, 3, 50, 96
5, 122, Note_on_c, 3, 49, 0
5, 180, Note_on_c, 3, 49, 96
5, 182, Note_on_c, 3, 50, 0
5, 240, Note_on_c, 3, 50, 96
5, 242, Note_on_c, 3, 49, 0
5, 408, Note_on_c, 3, 50, 0
5, 480, Note_on_c, 3, 50, 78
5, 480, Control_c, 3, 7, 48
5, 497, Control_c, 3, 7, 49
5, 514, Control_c, 3, 7, 50
5, 531, Control_c, 3, 7, 51
5, 546, Note_on_c, 3, 49, 86
5, 548, Control_c, 3, 7, 52
5, 549, Note_on_c, 3, 50, 0
5, 565, Control_c, 3, 7, 53
5, 582, Control_c, 3, 7, 54
5, 599, Control_c, 3, 7, 55
5, 600, Note_on_c, 3, 50, 92
5, 615, Note_on_c, 3, 49, 0
5, 616, Control_c, 3, 7, 56
5, 633, Control_c, 3, 7, 57
5, 651, Control_c, 3, 7, 58
5, 660, Note_on_c, 3, 52, 96
5, 668, Control_c, 3, 7, 59
5, 669, Note_on_c, 3, 50, 0
5, 685, Control_c, 3, 7, 60
5, 702, Control_c, 3, 7, 61
5, 719, Control_c, 3, 7, 62
5, 720, Note_on_c, 3, 54, 99
5, 729, Note_on_c, 3, 52, 0
5, 736, Control_c, 3, 7, 63
5, 753, Control_c, 3, 7, 64
5, 770, Control_c, 3, 7, 65
5, 780, Note_on_c, 3, 52, 101
5, 787, Control_c, 3, 7, 66
5, 789, Note_on_c, 3, 54, 0
5, 805, Control_c, 3, 7, 67
5, 822, Control_c, 3, 7, 68
5, 839, Control_c, 3, 7, 69
5, 840, Note_on_c, 3, 54, 103
5, 849, Note_on_c, 3, 52, 0
5, 856, Control_c, 3, 7, 70
5, 873, Control_c, 3, 7, 71
5, 890, Control_c, 3, 7, 72
5, 900, Note_on_c, 3, 55, 105
5, 907, Control_c, 3, 7, 73
5, 909, Note_on_c, 3, 54, 0
5, 924, Control_c, 3, 7, 74
5, 941, Control_c, 3, 7, 75
5, 959, Control_c, 3, 7, 76
5, 960, Note_on_c, 3, 57, 105
5, 960, Control_c, 3, 7, 76
5, 968, Control_c, 3, 7, 75
5, 969, Note_on_c, 3, 55, 0
5, 977, Control_c, 3, 7, 74
5, 985, Control_c, 3, 7, 73
5, 994, Control_c, 3, 7, 72
5, 1002, Control_c, 3, 7, 71
5, 1011, Control_c, 3, 7, 70
5, 1019, Control_c, 3, 7, 69
5, 1020, Note_on_c, 3, 56, 105
5, 1020, Control_c, 3, 7, 66
5, 1029, Note_on_c, 3, 57, 0
5, 1050, Control_c, 3, 7, 65
5, 1080, Note_on_c, 3, 57, 105
5, 1080, Control_c, 3, 7, 63
5, 1089, Note_on_c, 3, 56, 0
5, 1100, Control_c, 3, 7, 62
5, 1140, Note_on_c, 3, 56, 101
5, 1140, Control_c, 3, 7, 61
5, 1149, Note_on_c, 3, 57, 0
5, 1190, Control_c, 3, 7, 60
5, 1200, Note_on_c, 3, 57, 97
5, 1209, Note_on_c, 3, 56, 0
5, 1230, Control_c, 3, 7, 59
5, 1310, Control_c, 3, 7, 58
5, 1368, Note_on_c, 3, 57, 0
5, 1440, Note_on_c, 3, 57, 82
5, 1480, Control_c, 3, 7, 59
5, 1500, Note_on_c, 3, 56, 85
5, 1509, Note_on_c, 3, 57, 0
5, 1520, Control_c, 3, 7, 60
5, 1560, Note_on_c, 3, 57, 88
5, 1569, Note_on_c, 3, 56, 0
5, 1570, Control_c, 3, 7, 61
5, 1600, Control_c, 3, 7, 62
5, 1620, Note_on_c, 3, 58, 92
5, 1629, Note_on_c, 3, 57, 0
5, 1650, Control_c, 3, 7, 63
5, 1679, Control_c, 3, 7, 64
5, 1680, Note_on_c, 3, 59, 94
5, 1689, Note_on_c, 3, 58, 0
5, 1694, Control_c, 3, 7, 65
5, 1709, Control_c, 3, 7, 66
5, 1724, Control_c, 3, 7, 67
5, 1739, Control_c, 3, 7, 68
5, 1740, Note_on_c, 3, 57, 94
5, 1749, Note_on_c, 3, 59, 0
5, 1754, Control_c, 3, 7, 69
5, 1769, Control_c, 3, 7, 70
5, 1784, Control_c, 3, 7, 71
5, 1799, Control_c, 3, 7, 72
5, 1800, Note_on_c, 3, 55, 94
5, 1800, Control_c, 3, 7, 73
5, 1809, Note_on_c, 3, 57, 0
5, 1830, Control_c, 3, 7, 76
5, 1850, Control_c, 3, 7, 77
5, 1860, Note_on_c, 3, 54, 91
5, 1869, Note_on_c, 3, 55, 0
5, 1870, Control_c, 3, 7, 79
5, 1890, Control_c, 3, 7, 81
5, 1910, Control_c, 3, 7, 84
5, 1920, Note_on_c, 3, 52, 85
5, 1929, Note_on_c, 3, 54, 0
5, 1940, Control_c, 3, 7, 85
5, 1970, Control_c, 3, 7, 87
5, 1980, Note_on_c, 3, 51, 85
5, 1989, Note_on_c, 3, 52, 0
5, 1990, Control_c, 3, 7, 89
5, 2020, Control_c, 3, 7, 90
5, 2030, Control_c, 3, 7, 91
5, 2040, Note_on_c, 3, 52, 85
5, 2049, Note_on_c, 3, 51, 0
5, 2050, Control_c, 3, 7, 92
5, 2090, Control_c, 3, 7, 93
5, 2100, Note_on_c, 3, 54, 86
5, 2100, Control_c, 3, 7, 94
5, 2109, Note_on_c, 3, 52, 0
5, 2160, Note_on_c, 3, 55, 92
5, 2169, Note_on_c, 3, 54, 0
5, 2180, Control_c, 3, 7, 95
5, 2220, Note_on_c, 3, 54, 99
5, 2229, Note_on_c, 3, 55, 0
5, 2250, Control_c, 3, 7, 93
5, 2270, Control_c, 3, 7, 92
5, 2280, Note_on_c, 3, 52, 100
5, 2289, Note_on_c, 3, 54, 0
5, 2290, Control_c, 3, 7, 91
5, 2320, Control_c, 3, 7, 91
5, 2340, Note_on_c, 3, 50, 100
5, 2349, Note_on_c, 3, 52, 0
5, 2370, Control_c, 3, 7, 90
5, 2380, Control_c, 3, 7, 89
5, 2390, Control_c, 3, 7, 88
5, 2400, Note_on_c, 3, 49, 99
5, 2400, Control_c, 3, 7, 87
5, 2409, Note_on_c, 3, 50, 0
5, 2430, Control_c, 3, 7, 86
5, 2460, Note_on_c, 3, 50, 96
5, 2460, Control_c, 3, 7, 85
5, 2469, Note_on_c, 3, 49, 0
5, 2470, Control_c, 3, 7, 84
5, 2480, Control_c, 3, 7, 83
5, 2510, Control_c, 3, 7, 81
5, 2520, Note_on_c, 3, 52, 95
5, 2529, Note_on_c, 3, 50, 0
5, 2530, Control_c, 3, 7, 80
5, 2540, Control_c, 3, 7, 79
5, 2559, Control_c, 3, 7, 80
5, 2580, Note_on_c, 3, 50, 95
5, 2584, Control_c, 3, 7, 79
5, 2589, Note_on_c, 3, 52, 0
5, 2609, Control_c, 3, 7, 78
5, 2634, Control_c, 3, 7, 77
5, 2640, Note_on_c, 3, 49, 95
5, 2649, Note_on_c, 3, 50, 0
5, 2659, Control_c, 3, 7, 76
5, 2684, Control_c, 3, 7, 75
5, 2700, Note_on_c, 3, 45, 93
5, 2709, Note_on_c, 3, 49, 0
5, 2709, Control_c, 3, 7, 74
5, 2734, Control_c, 3, 7, 73
5, 2759, Control_c, 3, 7, 72
5, 2760, Note_on_c, 3, 47, 90
5, 2769, Note_on_c, 3, 45, 0
5, 2784, Control_c, 3, 7, 71
5, 2809, Control_c, 3, 7, 70
5, 2820, Note_on_c, 3, 49, 89
5, 2829, Note_on_c, 3, 47, 0
5, 2834, Control_c, 3, 7, 69
5, 2859, Control_c, 3, 7, 68
5, 2880, Note_on_c, 3, 50, 95
5, 2884, Control_c, 3, 7, 67
5, 2889, Note_on_c, 3, 49, 0
5, 2909, Control_c, 3, 7, 66
5, 2934, Control_c, 3, 7, 65
5, 2959, Control_c, 3, 7, 64
5, 2984, Control_c, 3, 7, 63
5, 3009, Control_c, 3, 7, 62
5, 3034, Control_c, 3, 7, 61
5, 3059, Control_c, 3, 7, 60
5, 3084, Control_c, 3, 7, 59
5, 3109, Control_c, 3, 7, 58
5, 3120, Note_on_c, 3, 50, 0
5, 3134, Control_c, 3, 7, 57
5, 3159, Control_c, 3, 7, 56
5, 3184, Control_c, 3, 7, 55
5, 3209, Control_c, 3, 7, 54
5, 3234, Control_c, 3, 7, 53
5, 3259, Control_c, 3, 7, 52
5, 3284, Control_c, 3, 7, 51
5, 3309, Control_c, 3, 7, 50
5, 3334, Control_c, 3, 7, 49
5, 3359, Control_c, 3, 7, 48
5, 3360, Note_on_c, 3, 50, 96
5, 3600, Note_on_c, 3, 50, 0
5, 4320, Note_on_c, 3, 50, 96
5, 4560, Note_on_c, 3, 50, 0
5, 5280, Note_on_c, 3, 50, 96
5, 5280, Control_c, 3, 7, 126
5, 5337, Note_on_c, 3, 50, 0
5, 5340, Note_on_c, 3, 50, 96
5, 5392, Note_on_c, 3, 50, 0
5, 5400, Note_on_c, 3, 50, 96
5, 5452, Note_on_c, 3, 50, 0
5, 5460, Note_on_c, 3, 50, 96
5, 5512, Note_on_c, 3, 50, 0
5, 5520, Note_on_c, 3, 50, 96
5, 5572, Note_on_c, 3, 50, 0
5, 5580, Note_on_c, 3, 50, 96
5, 5632, Note_on_c, 3, 50, 0
5, 5640, Note_on_c, 3, 50, 96
5, 5692, Note_on_c, 3, 50, 0
5, 5700, Note_on_c, 3, 50, 96
5, 5752, Note_on_c, 3, 50, 0
5, 5760, Note_on_c, 3, 50, 96
5, 5817, Note_on_c, 3, 50, 0
5, 5820, Note_on_c, 3, 50, 96
5, 5872, Note_on_c, 3, 50, 0
5, 5880, Note_on_c, 3, 50, 96
5, 5932, Note_on_c, 3, 50, 0
5, 5940, Note_on_c, 3, 50, 96
5, 5992, Note_on_c, 3, 50, 0
5, 6000, Note_on_c, 3, 50, 96
5, 6052, Note_on_c, 3, 50, 0
5, 6060, Note_on_c, 3, 50, 96
5, 6112, Note_on_c, 3, 50, 0
5, 6120, Note_on_c, 3, 50, 96
5, 6172, Note_on_c, 3, 50, 0
5, 6180, Note_on_c, 3, 50, 96
5, 6232, Note_on_c, 3, 50, 0
5, 6240, Note_on_c, 3, 50, 96
5, 6297, Note_on_c, 3, 50, 0
5, 6300, Note_on_c, 3, 50, 96
5, 6352, Note_on_c, 3, 50, 0
5, 6360, Note_on_c, 3, 50, 96
5, 6412, Note_on_c, 3, 50, 0
5, 6420, Note_on_c, 3, 50, 96
5, 6472, Note_on_c, 3, 50, 0
5, 6480, Note_on_c, 3, 50, 96
5, 6532, Note_on_c, 3, 50, 0
5, 6540, Note_on_c, 3, 50, 96
5, 6592, Note_on_c, 3, 50, 0
5, 6600, Note_on_c, 3, 50, 96
5, 6652, Note_on_c, 3, 50, 0
5, 6660, Note_on_c, 3, 50, 96
5, 6712, Note_on_c, 3, 50, 0
5, 6720, Note_on_c, 3, 50, 96
5, 6777, Note_on_c, 3, 50, 0
5, 6780, Note_on_c, 3, 50, 96
5, 6832, Note_on_c, 3, 50, 0
5, 6840, Note_on_c, 3, 50, 96
5, 6892, Note_on_c, 3, 50, 0
5, 6900, Note_on_c, 3, 50, 96
5, 6952, Note_on_c, 3, 50, 0
5, 6960, Note_on_c, 3, 50, 96
5, 7012, Note_on_c, 3, 50, 0
5, 7020, Note_on_c, 3, 50, 96
5, 7072, Note_on_c, 3, 50, 0
5, 7080, Note_on_c, 3, 50, 96
5, 7132, Note_on_c, 3, 50, 0
5, 7140, Note_on_c, 3, 50, 96
5, 7192, Note_on_c, 3, 50, 0
5, 7200, Note_on_c, 3, 50, 96
5, 7404, Note_on_c, 3, 50, 0
5, 7440, Note_on_c, 3, 55, 96
5, 7613, Note_on_c, 3, 55, 0
5, 7680, Note_on_c, 3, 57, 96
5, 7853, Note_on_c, 3, 57, 0
5, 7920, Note_on_c, 3, 45, 96
5, 8093, Note_on_c, 3, 45, 0
5, 8150, Control_c, 3, 7, 64
5, 8160, Note_on_c, 3, 50, 96
5, 8160, Control_c, 3, 7, 64
5, 8210, Note_on_c, 3, 50, 0
5, 8220, Note_on_c, 3, 49, 96
5, 8280, Note_on_c, 3, 50, 96
5, 8289, Note_on_c, 3, 49, 0
5, 8340, Note_on_c, 3, 49, 96
5, 8349, Note_on_c, 3, 50, 0
5, 8400, Note_on_c, 3, 50, 96
5, 8409, Note_on_c, 3, 49, 0
5, 8609, Note_on_c, 3, 50, 0
5, 8640, Note_on_c, 3, 50, 76
5, 8640, Control_c, 3, 7, 48
5, 8657, Control_c, 3, 7, 49
5, 8674, Control_c, 3, 7, 50
5, 8691, Control_c, 3, 7, 51
5, 8700, Note_on_c, 3, 49, 86
5, 8708, Control_c, 3, 7, 52
5, 8709, Note_on_c, 3, 50, 0
5, 8725, Control_c, 3, 7, 53
5, 8742, Control_c, 3, 7, 54
5, 8759, Control_c, 3, 7, 55
5, 8760, Note_on_c, 3, 50, 89
5, 8769, Note_on_c, 3, 49, 0
5, 8776, Control_c, 3, 7, 56
5, 8793, Control_c, 3, 7, 57
5, 8811, Control_c, 3, 7, 58
5, 8820, Note_on_c, 3, 52, 95
5, 8828, Control_c, 3, 7, 59
5, 8829, Note_on_c, 3, 50, 0
5, 8845, Control_c, 3, 7, 60
5, 8862, Control_c, 3, 7, 61
5, 8879, Control_c, 3, 7, 62
5, 8880, Note_on_c, 3, 54, 99
5, 8889, Note_on_c, 3, 52, 0
5, 8896, Control_c, 3, 7, 63
5, 8913, Control_c, 3, 7, 64
5, 8930, Control_c, 3, 7, 65
5, 8940, Note_on_c, 3, 52, 100
5, 8947, Control_c, 3, 7, 66
5, 8949, Note_on_c, 3, 54, 0
5, 8965, Control_c, 3, 7, 67
5, 8982, Control_c, 3, 7, 68
5, 8999, Control_c, 3, 7, 69
5, 9000, Note_on_c, 3, 54, 101
5, 9009, Note_on_c, 3, 52, 0
5, 9016, Control_c, 3, 7, 70
5, 9033, Control_c, 3, 7, 71
5, 9050, Control_c, 3, 7, 72
5, 9060, Note_on_c, 3, 55, 106
5, 9067, Control_c, 3, 7, 73
5, 9069, Note_on_c, 3, 54, 0
5, 9084, Control_c, 3, 7, 74
5, 9101, Control_c, 3, 7, 75
5, 9119, Control_c, 3, 7, 76
5, 9120, Note_on_c, 3, 57, 111
5, 9120, Control_c, 3, 7, 76
5, 9128, Control_c, 3, 7, 75
5, 9129, Note_on_c, 3, 55, 0
5, 9137, Control_c, 3, 7, 74
5, 9145, Control_c, 3, 7, 73
5, 9154, Control_c, 3, 7, 72
5, 9162, Control_c, 3, 7, 71
5, 9171, Control_c, 3, 7, 70
5, 9179, Control_c, 3, 7, 69
5, 9180, Note_on_c, 3, 56, 114
5, 9180, Control_c, 3, 7, 66
5, 9189, Note_on_c, 3, 57, 0
5, 9210, Control_c, 3, 7, 65
5, 9240, Note_on_c, 3, 57, 114
5, 9240, Control_c, 3, 7, 63
5, 9249, Note_on_c, 3, 56, 0
5, 9260, Control_c, 3, 7, 62
5, 9300, Note_on_c, 3, 56, 111
5, 9300, Control_c, 3, 7, 61
5, 9309, Note_on_c, 3, 57, 0
5, 9350, Control_c, 3, 7, 60
5, 9360, Note_on_c, 3, 57, 106
5, 9369, Note_on_c, 3, 56, 0
5, 9390, Control_c, 3, 7, 59
5, 9470, Control_c, 3, 7, 58
5, 9569, Note_on_c, 3, 57, 0
5, 9600, Note_on_c, 3, 57, 78
5, 9640, Control_c, 3, 7, 59
5, 9660, Note_on_c, 3, 56, 85
5, 9669, Note_on_c, 3, 57, 0
5, 9680, Control_c, 3, 7, 60
5, 9720, Note_on_c, 3, 57, 89
5, 9729, Note_on_c, 3, 56, 0
5, 9730, Control_c, 3, 7, 61
5, 9760, Control_c, 3, 7, 62
5, 9780, Note_on_c, 3, 58, 94
5, 9789, Note_on_c, 3, 57, 0
5, 9810, Control_c, 3, 7, 63
5, 9839, Control_c, 3, 7, 64
5, 9840, Note_on_c, 3, 59, 97
5, 9849, Note_on_c, 3, 58, 0
5, 9854, Control_c, 3, 7, 65
5, 9869, Control_c, 3, 7, 66
5, 9884, Control_c, 3, 7, 67
5, 9899, Control_c, 3, 7, 68
5, 9900, Note_on_c, 3, 57, 101
5, 9909, Note_on_c, 3, 59, 0
5, 9914, Control_c, 3, 7, 69
5, 9929, Control_c, 3, 7, 70
5, 9944, Control_c, 3, 7, 71
5, 9959, Control_c, 3, 7, 72
5, 9960, Note_on_c, 3, 55, 102
5, 9960, Control_c, 3, 7, 73
5, 9969, Note_on_c, 3, 57, 0
5, 9990, Control_c, 3, 7, 76
5, 10010, Control_c, 3, 7, 77
5, 10020, Note_on_c, 3, 54, 102
5, 10029, Note_on_c, 3, 55, 0
5, 10030, Control_c, 3, 7, 79
5, 10050, Control_c, 3, 7, 81
5, 10070, Control_c, 3, 7, 84
5, 10080, Note_on_c, 3, 52, 99
5, 10089, Note_on_c, 3, 54, 0
5, 10100, Control_c, 3, 7, 85
5, 10130, Control_c, 3, 7, 87
5, 10140, Note_on_c, 3, 51, 95
5, 10149, Note_on_c, 3, 52, 0
5, 10150, Control_c, 3, 7, 89
5, 10180, Control_c, 3, 7, 90
5, 10190, Control_c, 3, 7, 91
5, 10200, Note_on_c, 3, 52, 93
5, 10209, Note_on_c, 3, 51, 0
5, 10210, Control_c, 3, 7, 92
5, 10250, Control_c, 3, 7, 93
5, 10260, Note_on_c, 3, 54, 91
5, 10260, Control_c, 3, 7, 94
5, 10269, Note_on_c, 3, 52, 0
5, 10320, Note_on_c, 3, 55, 91
5, 10329, Note_on_c, 3, 54, 0
5, 10340, Control_c, 3, 7, 95
5, 10380, Note_on_c, 3, 54, 92
5, 10389, Note_on_c, 3, 55, 0
5, 10410, Control_c, 3, 7, 93
5, 10430, Control_c, 3, 7, 92
5, 10440, Note_on_c, 3, 52, 95
5, 10449, Note_on_c, 3, 54, 0
5, 10450, Control_c, 3, 7, 91
5, 10480, Control_c, 3, 7, 91
5, 10500, Note_on_c, 3, 50, 101
5, 10509, Note_on_c, 3, 52, 0
5, 10530, Control_c, 3, 7, 90
5, 10540, Control_c, 3, 7, 89
5, 10550, Control_c, 3, 7, 88
5, 10560, Note_on_c, 3, 49, 106
5, 10560, Control_c, 3, 7, 87
5, 10569, Note_on_c, 3, 50, 0
5, 10590, Control_c, 3, 7, 86
5, 10620, Note_on_c, 3, 50, 109
5, 10620, Control_c, 3, 7, 85
5, 10629, Note_on_c, 3, 49, 0
5, 10630, Control_c, 3, 7, 84
5, 10640, Control_c, 3, 7, 83
5, 10670, Control_c, 3, 7, 81
5, 10680, Note_on_c, 3, 52, 111
5, 10689, Note_on_c, 3, 50, 0
5, 10690, Control_c, 3, 7, 80
5, 10700, Control_c, 3, 7, 79
5, 10719, Control_c, 3, 7, 80
5, 10740, Note_on_c, 3, 50, 111
5, 10744, Control_c, 3, 7, 79
5, 10749, Note_on_c, 3, 52, 0
5, 10769, Control_c, 3, 7, 78
5, 10794, Control_c, 3, 7, 77
5, 10800, Note_on_c, 3, 49, 111
5, 10809, Note_on_c, 3, 50, 0
5, 10819, Control_c, 3, 7, 76
5, 10844, Control_c, 3, 7, 75
5, 10860, Note_on_c, 3, 45, 111
5, 10869, Note_on_c, 3, 49, 0
5, 10869, Control_c, 3, 7, 74
5, 10894, Control_c, 3, 7, 73
5, 10919, Control_c, 3, 7, 72
5, 10920, Note_on_c, 3, 47, 109
5, 10929, Note_on_c, 3, 45, 0
5, 10944, Control_c, 3, 7, 71
5, 10969, Control_c, 3, 7, 70
5, 10980, Note_on_c, 3, 49, 105
5, 10989, Note_on_c, 3, 47, 0
5, 10994, Control_c, 3, 7, 69
5, 11019, Control_c, 3, 7, 68
5, 11040, Note_on_c, 3, 50, 105
5, 11049, Note_on_c, 3, 49, 0
5, 11280, Note_on_c, 3, 50, 0
5, 11520, Note_on_c, 3, 50, 96
5, 11760, Note_on_c, 3, 50, 0
5, 12480, Note_on_c, 3, 50, 112
5, 12720, Note_on_c, 3, 50, 0
5, 12960, Control_c, 3, 7, 126
5, 13440, Note_on_c, 3, 50, 96
5, 13440, Control_c, 3, 7, 126
5, 13497, Note_on_c, 3, 50, 0
5, 13500, Note_on_c, 3, 50, 96
5, 13552, Note_on_c, 3, 50, 0
5, 13560, Note_on_c, 3, 50, 102
5, 13612, Note_on_c, 3, 50, 0
5, 13620, Note_on_c, 3, 50, 103
5, 13672, Note_on_c, 3, 50, 0
5, 13680, Note_on_c, 3, 50, 104
5, 13732, Note_on_c, 3, 50, 0
5, 13740, Note_on_c, 3, 50, 106
5, 13792, Note_on_c, 3, 50, 0
5, 13800, Note_on_c, 3, 50, 108
5, 13852, Note_on_c, 3, 50, 0
5, 13860, Note_on_c, 3, 50, 110
5, 13912, Note_on_c, 3, 50, 0
5, 13920, Note_on_c, 3, 50, 112
5, 13977, Note_on_c, 3, 50, 0
5, 13980, Note_on_c, 3, 50, 97
5, 14032, Note_on_c, 3, 50, 0
5, 14040, Note_on_c, 3, 50, 97
5, 14092, Note_on_c, 3, 50, 0
5, 14100, Note_on_c, 3, 50, 98
5, 14152, Note_on_c, 3, 50, 0
5, 14160, Note_on_c, 3, 50, 99
5, 14212, Note_on_c, 3, 50, 0
5, 14220, Note_on_c, 3, 50, 101
5, 14272, Note_on_c, 3, 50, 0
5, 14280, Note_on_c, 3, 50, 107
5, 14332, Note_on_c, 3, 50, 0
5, 14340, Note_on_c, 3, 50, 109
5, 14392, Note_on_c, 3, 50, 0
5, 14400, Note_on_c, 3, 50, 98
5, 14457, Note_on_c, 3, 50, 0
5, 14460, Note_on_c, 3, 50, 92
5, 14512, Note_on_c, 3, 50, 0
5, 14520, Note_on_c, 3, 50, 92
5, 14572, Note_on_c, 3, 50, 0
5, 14580, Note_on_c, 3, 50, 93
5, 14632, Note_on_c, 3, 50, 0
5, 14640, Note_on_c, 3, 50, 96
5, 14692, Note_on_c, 3, 50, 0
5, 14700, Note_on_c, 3, 50, 98
5, 14752, Note_on_c, 3, 50, 0
5, 14760, Note_on_c, 3, 50, 102
5, 14812, Note_on_c, 3, 50, 0
5, 14820, Note_on_c, 3, 50, 108
5, 14872, Note_on_c, 3, 50, 0
5, 14880, Note_on_c, 3, 50, 114
5, 14937, Note_on_c, 3, 50, 0
5, 14940, Note_on_c, 3, 50, 94
5, 14992, Note_on_c, 3, 50, 0
5, 15000, Note_on_c, 3, 50, 94
5, 15052, Note_on_c, 3, 50, 0
5, 15060, Note_on_c, 3, 50, 94
5, 15112, Note_on_c, 3, 50, 0
5, 15120, Note_on_c, 3, 50, 94
5, 15172, Note_on_c, 3, 50, 0
5, 15180, Note_on_c, 3, 50, 96
5, 15232, Note_on_c, 3, 50, 0
5, 15240, Note_on_c, 3, 50, 102
5, 15292, Note_on_c, 3, 50, 0
5, 15300, Note_on_c, 3, 50, 110
5, 15352, Note_on_c, 3, 50, 0
5, 15360, Note_on_c, 3, 50, 117
5, 15600, Note_on_c, 3, 50, 0
5, 15600, Note_on_c, 3, 55, 115
5, 15804, Note_on_c, 3, 55, 0
5, 15840, Note_on_c, 3, 57, 106
5, 16044, Note_on_c, 3, 57, 0
5, 16080, Note_on_c, 3, 45, 96
5, 16284, Note_on_c, 3, 45, 0
5, 16320, Note_on_c, 3, 50, 97
5, 16377, Note_on_c, 3, 50, 0
5, 16380, Note_on_c, 3, 50, 97
5, 16432, Note_on_c, 3, 50, 0
5, 16440, Note_on_c, 3, 50, 97
5, 16492, Note_on_c, 3, 50, 0
5, 16500, Note_on_c, 3, 50, 97
5, 16552, Note_on_c, 3, 50, 0
5, 16560, Note_on_c, 3, 50, 97
5, 16612, Note_on_c, 3, 50, 0
5, 16620, Note_on_c, 3, 50, 98
5, 16672, Note_on_c, 3, 50, 0
5, 16680, Note_on_c, 3, 50, 101
5, 16732, Note_on_c, 3, 50, 0
5, 16740, Note_on_c, 3, 50, 105
5, 16792, Note_on_c, 3, 50, 0
5, 16800, Note_on_c, 3, 50, 111
5, 16857, Note_on_c, 3, 50, 0
5, 16860, Note_on_c, 3, 50, 110
5, 16912, Note_on_c, 3, 50, 0
5, 16920, Note_on_c, 3, 50, 104
5, 16972, Note_on_c, 3, 50, 0
5, 16980, Note_on_c, 3, 50, 104
5, 17032, Note_on_c, 3, 50, 0
5, 17040, Note_on_c, 3, 50, 102
5, 17092, Note_on_c, 3, 50, 0
5, 17100, Note_on_c, 3, 50, 102
5, 17152, Note_on_c, 3, 50, 0
5, 17160, Note_on_c, 3, 50, 101
5, 17212, Note_on_c, 3, 50, 0
5, 17220, Note_on_c, 3, 50, 101
5, 17272, Note_on_c, 3, 50, 0
5, 17280, Note_on_c, 3, 50, 112
5, 17337, Note_on_c, 3, 50, 0
5, 17340, Note_on_c, 3, 50, 111
5, 17392, Note_on_c, 3, 50, 0
5, 17400, Note_on_c, 3, 50, 106
5, 17452, Note_on_c, 3, 50, 0
5, 17460, Note_on_c, 3, 50, 104
5, 17512, Note_on_c, 3, 50, 0
5, 17520, Note_on_c, 3, 50, 102
5, 17572, Note_on_c, 3, 50, 0
5, 17580, Note_on_c, 3, 50, 102
5, 17632, Note_on_c, 3, 50, 0
5, 17640, Note_on_c, 3, 50, 102
5, 17692, Note_on_c, 3, 50, 0
5, 17700, Note_on_c, 3, 50, 106
5, 17752, Note_on_c, 3, 50, 0
5, 17760, Note_on_c, 3, 50, 114
5, 17817, Note_on_c, 3, 50, 0
5, 17820, Note_on_c, 3, 50, 110
5, 17872, Note_on_c, 3, 50, 0
5, 17880, Note_on_c, 3, 50, 105
5, 17932, Note_on_c, 3, 50, 0
5, 17940, Note_on_c, 3, 50, 105
5, 17992, Note_on_c, 3, 50, 0
5, 18000, Note_on_c, 3, 50, 104
5, 18052, Note_on_c, 3, 50, 0
5, 18060, Note_on_c, 3, 50, 104
5, 18112, Note_on_c, 3, 50, 0
5, 18120, Note_on_c, 3, 50, 105
5, 18172, Note_on_c, 3, 50, 0
5, 18180, Note_on_c, 3, 50, 110
5, 18232, Note_on_c, 3, 50, 0
5, 18240, Note_on_c, 3, 50, 114
5, 18297, Note_on_c, 3, 50, 0
5, 18300, Note_on_c, 3, 50, 111
5, 18352, Note_on_c, 3, 50, 0
5, 18360, Note_on_c, 3, 50, 108
5, 18412, Note_on_c, 3, 50, 0
5, 18420, Note_on_c, 3, 50, 108
5, 18472, Note_on_c, 3, 50, 0
5, 18480, Note_on_c, 3, 50, 107
5, 18532, Note_on_c, 3, 50, 0
5, 18540, Note_on_c, 3, 50, 107
5, 18592, Note_on_c, 3, 50, 0
5, 18600, Note_on_c, 3, 50, 107
5, 18652, Note_on_c, 3, 50, 0
5, 18660, Note_on_c, 3, 50, 107
5, 18712, Note_on_c, 3, 50, 0
5, 18720, Note_on_c, 3, 50, 108
5, 18777, Note_on_c, 3, 50, 0
5, 18780, Note_on_c, 3, 50, 104
5, 18832, Note_on_c, 3, 50, 0
5, 18840, Note_on_c, 3, 50, 102
5, 18892, Note_on_c, 3, 50, 0
5, 18900, Note_on_c, 3, 50, 100
5, 18952, Note_on_c, 3, 50, 0
5, 18960, Note_on_c, 3, 50, 100
5, 19012, Note_on_c, 3, 50, 0
5, 19020, Note_on_c, 3, 50, 100
5, 19072, Note_on_c, 3, 50, 0
5, 19080, Note_on_c, 3, 50, 104
5, 19132, Note_on_c, 3, 50, 0
5, 19140, Note_on_c, 3, 50, 109
5, 19192, Note_on_c, 3, 50, 0
5, 19200, Note_on_c, 3, 50, 96
5, 19680, Note_on_c, 3, 50, 0
5, 19680, Note_on_c, 3, 50, 96
5, 19740, Note_on_c, 3, 50, 0
5, 19740, Note_on_c, 3, 52, 98
5, 19800, Note_on_c, 3, 52, 0
5, 19800, Note_on_c, 3, 54, 105
5, 19860, Note_on_c, 3, 54, 0
5, 19860, Note_on_c, 3, 55, 112
5, 19920, Note_on_c, 3, 55, 0
5, 19920, Note_on_c, 3, 57, 119
5, 19980, Note_on_c, 3, 57, 0
5, 19980, Note_on_c, 3, 59, 124
5, 20040, Note_on_c, 3, 59, 0
5, 20040, Note_on_c, 3, 60, 127
5, 20100, Note_on_c, 3, 60, 0
5, 20100, Note_on_c, 3, 62, 127
5, 20160, Note_on_c, 3, 62, 0
5, 20160, Note_on_c, 3, 50, 127
5, 20214, Note_on_c, 3, 50, 0
5, 20220, Note_on_c, 3, 50, 116
5, 20274, Note_on_c, 3, 50, 0
5, 20280, Note_on_c, 3, 50, 114
5, 20334, Note_on_c, 3, 50, 0
5, 20340, Note_on_c, 3, 50, 112
5, 20394, Note_on_c, 3, 50, 0
5, 20400, Note_on_c, 3, 50, 108
5, 20454, Note_on_c, 3, 50, 0
5, 20460, Note_on_c, 3, 50, 108
5, 20514, Note_on_c, 3, 50, 0
5, 20520, Note_on_c, 3, 50, 107
5, 20574, Note_on_c, 3, 50, 0
5, 20580, Note_on_c, 3, 50, 107
5, 20634, Note_on_c, 3, 50, 0
5, 20640, Note_on_c, 3, 50, 105
5, 20694, Note_on_c, 3, 50, 0
5, 20700, Note_on_c, 3, 50, 104
5, 20754, Note_on_c, 3, 50, 0
5, 20760, Note_on_c, 3, 50, 103
5, 20814, Note_on_c, 3, 50, 0
5, 20820, Note_on_c, 3, 50, 102
5, 20874, Note_on_c, 3, 50, 0
5, 20880, Note_on_c, 3, 50, 101
5, 20934, Note_on_c, 3, 50, 0
5, 20940, Note_on_c, 3, 50, 99
5, 20994, Note_on_c, 3, 50, 0
5, 21000, Note_on_c, 3, 50, 97
5, 21054, Note_on_c, 3, 50, 0
5, 21060, Note_on_c, 3, 50, 94
5, 21114, Note_on_c, 3, 50, 0
5, 21120, Note_on_c, 3, 50, 92
5, 21312, Note_on_c, 3, 50, 0
5, 21480, Note_on_c, 3, 57, 91
5, 21588, Note_on_c, 3, 57, 0
5, 21600, Note_on_c, 3, 54, 93
5, 21690, Note_on_c, 3, 54, 0
5, 21720, Note_on_c, 3, 50, 96
5, 21803, Note_on_c, 3, 50, 0
5, 21960, Note_on_c, 3, 57, 103
5, 22068, Note_on_c, 3, 57, 0
5, 22080, Note_on_c, 3, 54, 105
5, 22170, Note_on_c, 3, 54, 0
5, 22200, Note_on_c, 3, 50, 105
5, 22283, Note_on_c, 3, 50, 0
5, 22440, Note_on_c, 3, 57, 106
5, 22548, Note_on_c, 3, 57, 0
5, 22560, Note_on_c, 3, 54, 106
5, 22656, Note_on_c, 3, 54, 0
5, 22680, Note_on_c, 3, 57, 105
5, 22776, Note_on_c, 3, 57, 0
5, 22800, Note_on_c, 3, 54, 99
5, 22896, Note_on_c, 3, 54, 0
5, 22920, Note_on_c, 3, 57, 91
5, 23016, Note_on_c, 3, 57, 0
5, 23040, Note_on_c, 3, 50, 84
5, 23136, Note_on_c, 3, 50, 0
5, 23280, Note_on_c, 3, 62, 96
5, 23337, Note_on_c, 3, 62, 0
5, 23340, Note_on_c, 3, 61, 115
5, 23397, Note_on_c, 3, 61, 0
5, 23400, Note_on_c, 3, 59, 111
5, 23457, Note_on_c, 3, 59, 0
5, 23460, Note_on_c, 3, 57, 107
5, 23517, Note_on_c, 3, 57, 0
5, 23520, Note_on_c, 3, 62, 116
5, 23577, Note_on_c, 3, 62, 0
5, 23580, Note_on_c, 3, 61, 113
5, 23637, Note_on_c, 3, 61, 0
5, 23640, Note_on_c, 3, 59, 110
5, 23697, Note_on_c, 3, 59, 0
5, 23700, Note_on_c, 3, 57, 107
5, 23757, Note_on_c, 3, 57, 0
5, 23760, Note_on_c, 3, 55, 101
5, 23817, Note_on_c, 3, 55, 0
5, 23820, Note_on_c, 3, 54, 99
5, 23877, Note_on_c, 3, 54, 0
5, 23880, Note_on_c, 3, 52, 98
5, 23937, Note_on_c, 3, 52, 0
5, 23940, Note_on_c, 3, 50, 96
5, 23997, Note_on_c, 3, 50, 0
5, 24000, Note_on_c, 3, 57, 98
5, 24048, Note_on_c, 3, 57, 0
5, 24060, Note_on_c, 3, 57, 99
5, 24108, Note_on_c, 3, 57, 0
5, 24120, Note_on_c, 3, 57, 100
5, 24168, Note_on_c, 3, 57, 0
5, 24180, Note_on_c, 3, 57, 100
5, 24228, Note_on_c, 3, 57, 0
5, 24240, Note_on_c, 3, 57, 100
5, 24288, Note_on_c, 3, 57, 0
5, 24300, Note_on_c, 3, 57, 101
5, 24348, Note_on_c, 3, 57, 0
5, 24360, Note_on_c, 3, 57, 101
5, 24408, Note_on_c, 3, 57, 0
5, 24420, Note_on_c, 3, 57, 101
5, 24468, Note_on_c, 3, 57, 0
5, 24480, Note_on_c, 3, 57, 101
5, 24528, Note_on_c, 3, 57, 0
5, 24540, Note_on_c, 3, 57, 101
5, 24588, Note_on_c, 3, 57, 0
5, 24600, Note_on_c, 3, 57, 102
5, 24648, Note_on_c, 3, 57, 0
5, 24660, Note_on_c, 3, 57, 104
5, 24708, Note_on_c, 3, 57, 0
5, 24720, Note_on_c, 3, 57, 105
5, 24768, Note_on_c, 3, 57, 0
5, 24780, Note_on_c, 3, 57, 105
5, 24828, Note_on_c, 3, 57, 0
5, 24840, Note_on_c, 3, 57, 107
5, 24888, Note_on_c, 3, 57, 0
5, 24900, Note_on_c, 3, 57, 107
5, 24948, Note_on_c, 3, 57, 0
5, 24960, Note_on_c, 3, 57, 109
5, 25008, Note_on_c, 3, 57, 0
5, 25020, Note_on_c, 3, 57, 112
5, 25068, Note_on_c, 3, 57, 0
5, 25080, Note_on_c, 3, 57, 113
5, 25128, Note_on_c, 3, 57, 0
5, 25140, Note_on_c, 3, 57, 115
5, 25188, Note_on_c, 3, 57, 0
5, 25200, Note_on_c, 3, 57, 115
5, 25248, Note_on_c, 3, 57, 0
5, 25260, Note_on_c, 3, 57, 116
5, 25308, Note_on_c, 3, 57, 0
5, 25320, Note_on_c, 3, 57, 118
5, 25368, Note_on_c, 3, 57, 0
5, 25380, Note_on_c, 3, 57, 119
5, 25428, Note_on_c, 3, 57, 0
5, 25440, Note_on_c, 3, 57, 120
5, 25488, Note_on_c, 3, 57, 0
5, 25500, Note_on_c, 3, 57, 120
5, 25548, Note_on_c, 3, 57, 0
5, 25560, Note_on_c, 3, 57, 120
5, 25608, Note_on_c, 3, 57, 0
5, 25620, Note_on_c, 3, 57, 122
5, 25668, Note_on_c, 3, 57, 0
5, 25680, Note_on_c, 3, 57, 123
5, 25728, Note_on_c, 3, 57, 0
5, 25740, Note_on_c, 3, 57, 124
5, 25788, Note_on_c, 3, 57, 0
5, 25800, Note_on_c, 3, 57, 125
5, 25848, Note_on_c, 3, 57, 0
5, 25860, Note_on_c, 3, 57, 126
5, 25908, Note_on_c, 3, 57, 0
5, 25920, Note_on_c, 3, 57, 127
5, 25968, Note_on_c, 3, 57, 0
5, 25980, Note_on_c, 3, 57, 127
5, 26028, Note_on_c, 3, 57, 0
5, 26040, Note_on_c, 3, 57, 127
5, 26088, Note_on_c, 3, 57, 0
5, 26100, Note_on_c, 3, 57, 127
5, 26148, Note_on_c, 3, 57, 0
5, 26160, Note_on_c, 3, 57, 127
5, 26208, Note_on_c, 3, 57, 0
5, 26220, Note_on_c, 3, 57, 127
5, 26268, Note_on_c, 3, 57, 0
5, 26280, Note_on_c, 3, 57, 127
5, 26328, Note_on_c, 3, 57, 0
5, 26340, Note_on_c, 3, 57, 127
5, 26388, Note_on_c, 3, 57, 0
5, 26400, Note_on_c, 3, 57, 127
5, 26448, Note_on_c, 3, 57, 0
5, 26460, Note_on_c, 3, 57, 127
5, 26508, Note_on_c, 3, 57, 0
5, 26520, Note_on_c, 3, 57, 127
5, 26568, Note_on_c, 3, 57, 0
5, 26580, Note_on_c, 3, 57, 127
5, 26628, Note_on_c, 3, 57, 0
5, 26640, Note_on_c, 3, 57, 127
5, 26688, Note_on_c, 3, 57, 0
5, 26700, Note_on_c, 3, 57, 127
5, 26748, Note_on_c, 3, 57, 0
5, 26760, Note_on_c, 3, 57, 127
5, 26808, Note_on_c, 3, 57, 0
5, 26820, Note_on_c, 3, 57, 127
5, 26868, Note_on_c, 3, 57, 0
5, 26880, Note_on_c, 3, 57, 127
5, 26992, Note_on_c, 3, 57, 0
5, 27000, Control_c, 3, 7, 80
5, 27000, Control_c, 3, 7, 80
5, 27000, Control_c, 3, 7, 80
5, 27000, Control_c, 3, 7, 80
5, 27000, Control_c, 3, 7, 80
5, 27000, Control_c, 3, 7, 80
5, 27000, Control_c, 3, 7, 80
5, 27000, Note_on_c, 3, 57, 127
5, 27007, Control_c, 3, 7, 81
5, 27007, Control_c, 3, 7, 81
5, 27007, Control_c, 3, 7, 81
5, 27007, Control_c, 3, 7, 81
5, 27007, Control_c, 3, 7, 81
5, 27007, Control_c, 3, 7, 81
5, 27007, Control_c, 3, 7, 81
5, 27015, Control_c, 3, 7, 82
5, 27015, Control_c, 3, 7, 82
5, 27015, Control_c, 3, 7, 82
5, 27015, Control_c, 3, 7, 82
5, 27015, Control_c, 3, 7, 82
5, 27015, Control_c, 3, 7, 82
5, 27015, Control_c, 3, 7, 82
5, 27022, Control_c, 3, 7, 83
5, 27022, Control_c, 3, 7, 83
5, 27022, Control_c, 3, 7, 83
5, 27022, Control_c, 3, 7, 83
5, 27022, Control_c, 3, 7, 83
5, 27022, Control_c, 3, 7, 83
5, 27022, Control_c, 3, 7, 83
5, 27030, Control_c, 3, 7, 84
5, 27030, Control_c, 3, 7, 84
5, 27030, Control_c, 3, 7, 84
5, 27030, Control_c, 3, 7, 84
5, 27030, Control_c, 3, 7, 84
5, 27030, Control_c, 3, 7, 84
5, 27030, Control_c, 3, 7, 84
5, 27038, Control_c, 3, 7, 85
5, 27038, Control_c, 3, 7, 85
5, 27038, Control_c, 3, 7, 85
5, 27038, Control_c, 3, 7, 85
5, 27038, Control_c, 3, 7, 85
5, 27038, Control_c, 3, 7, 85
5, 27038, Control_c, 3, 7, 85
5, 27045, Control_c, 3, 7, 86
5, 27045, Control_c, 3, 7, 86
5, 27045, Control_c, 3, 7, 86
5, 27045, Control_c, 3, 7, 86
5, 27045, Control_c, 3, 7, 86
5, 27045, Control_c, 3, 7, 86
5, 27045, Control_c, 3, 7, 86
5, 27048, Note_on_c, 3, 57, 0
5, 27053, Control_c, 3, 7, 87
5, 27053, Control_c, 3, 7, 87
5, 27053, Control_c, 3, 7, 87
5, 27053, Control_c, 3, 7, 87
5, 27053, Control_c, 3, 7, 87
5, 27053, Control_c, 3, 7, 87
5, 27053, Control_c, 3, 7, 87
5, 27060, Note_on_c, 3, 57, 127
5, 27061, Control_c, 3, 7, 88
5, 27061, Control_c, 3, 7, 88
5, 27061, Control_c, 3, 7, 88
5, 27061, Control_c, 3, 7, 88
5, 27061, Control_c, 3, 7, 88
5, 27061, Control_c, 3, 7, 88
5, 27061, Control_c, 3, 7, 88
5, 27068, Control_c, 3, 7, 89
5, 27068, Control_c, 3, 7, 89
5, 27068, Control_c, 3, 7, 89
5, 27068, Control_c, 3, 7, 89
5, 27068, Control_c, 3, 7, 89
5, 27068, Control_c, 3, 7, 89
5, 27068, Control_c, 3, 7, 89
5, 27076, Control_c, 3, 7, 90
5, 27076, Control_c, 3, 7, 90
5, 27076, Control_c, 3, 7, 90
5, 27076, Control_c, 3, 7, 90
5, 27076, Control_c, 3, 7, 90
5, 27076, Control_c, 3, 7, 90
5, 27076, Control_c, 3, 7, 90
5, 27084, Control_c, 3, 7, 91
5, 27084, Control_c, 3, 7, 91
5, 27084, Control_c, 3, 7, 91
5, 27084, Control_c, 3, 7, 91
5, 27084, Control_c, 3, 7, 91
5, 27084, Control_c, 3, 7, 91
5, 27084, Control_c, 3, 7, 91
5, 27091, Control_c, 3, 7, 92
5, 27091, Control_c, 3, 7, 92
5, 27091, Control_c, 3, 7, 92
5, 27091, Control_c, 3, 7, 92
5, 27091, Control_c, 3, 7, 92
5, 27091, Control_c, 3, 7, 92
5, 27091, Control_c, 3, 7, 92
5, 27099, Control_c, 3, 7, 93
5, 27099, Control_c, 3, 7, 93
5, 27099, Control_c, 3, 7, 93
5, 27099, Control_c, 3, 7, 93
5, 27099, Control_c, 3, 7, 93
5, 27099, Control_c, 3, 7, 93
5, 27099, Control_c, 3, 7, 93
5, 27106, Control_c, 3, 7, 94
5, 27106, Control_c, 3, 7, 94
5, 27106, Control_c, 3, 7, 94
5, 27106, Control_c, 3, 7, 94
5, 27106, Control_c, 3, 7, 94
5, 27106, Control_c, 3, 7, 94
5, 27106, Control_c, 3, 7, 94
5, 27108, Note_on_c, 3, 57, 0
5, 27114, Control_c, 3, 7, 95
5, 27114, Control_c, 3, 7, 95
5, 27114, Control_c, 3, 7, 95
5, 27114, Control_c, 3, 7, 95
5, 27114, Control_c, 3, 7, 95
5, 27114, Control_c, 3, 7, 95
5, 27114, Control_c, 3, 7, 95
5, 27120, Note_on_c, 3, 57, 127
5, 27122, Control_c, 3, 7, 96
5, 27122, Control_c, 3, 7, 96
5, 27122, Control_c, 3, 7, 96
5, 27122, Control_c, 3, 7, 96
5, 27122, Control_c, 3, 7, 96
5, 27122, Control_c, 3, 7, 96
5, 27122, Control_c, 3, 7, 96
5, 27129, Control_c, 3, 7, 97
5, 27129, Control_c, 3, 7, 97
5, 27129, Control_c, 3, 7, 97
5, 27129, Control_c, 3, 7, 97
5, 27129, Control_c, 3, 7, 97
5, 27129, Control_c, 3, 7, 97
5, 27129, Control_c, 3, 7, 97
5, 27137, Control_c, 3, 7, 98
5, 27137, Control_c, 3, 7, 98
5, 27137, Control_c, 3, 7, 98
5, 27137, Control_c, 3, 7, 98
5, 27137, Control_c, 3, 7, 98
5, 27137, Control_c, 3, 7, 98
5, 27137, Control_c, 3, 7, 98
5, 27145, Control_c, 3, 7, 99
5, 27145, Control_c, 3, 7, 99
5, 27145, Control_c, 3, 7, 99
5, 27145, Control_c, 3, 7, 99
5, 27145, Control_c, 3, 7, 99
5, 27145, Control_c, 3, 7, 99
5, 27145, Control_c, 3, 7, 99
5, 27152, Control_c, 3, 7, 100
5, 27152, Control_c, 3, 7, 100
5, 27152, Control_c, 3, 7, 100
5, 27152, Control_c, 3, 7, 100
5, 27152, Control_c, 3, 7, 100
5, 27152, Control_c, 3, 7, 100
5, 27152, Control_c, 3, 7, 100
5, 27160, Control_c, 3, 7, 101
5, 27160, Control_c, 3, 7, 101
5, 27160, Control_c, 3, 7, 101
5, 27160, Control_c, 3, 7, 101
5, 27160, Control_c, 3, 7, 101
5, 27160, Control_c, 3, 7, 101
5, 27160, Control_c, 3, 7, 101
5, 27168, Control_c, 3, 7, 102
5, 27168, Control_c, 3, 7, 102
5, 27168, Control_c, 3, 7, 102
5, 27168, Control_c, 3, 7, 102
5, 27168, Control_c, 3, 7, 102
5, 27168, Control_c, 3, 7, 102
5, 27168, Control_c, 3, 7, 102
5, 27175, Control_c, 3, 7, 103
5, 27175, Control_c, 3, 7, 103
5, 27175, Control_c, 3, 7, 103
5, 27175, Control_c, 3, 7, 103
5, 27175, Control_c, 3, 7, 103
5, 27175, Control_c, 3, 7, 103
5, 27175, Control_c, 3, 7, 103
5, 27183, Control_c, 3, 7, 104
5, 27183, Control_c, 3, 7, 104
5, 27183, Control_c, 3, 7, 104
5, 27183, Control_c, 3, 7, 104
5, 27183, Control_c, 3, 7, 104
5, 27183, Control_c, 3, 7, 104
5, 27183, Control_c, 3, 7, 104
5, 27190, Control_c, 3, 7, 105
5, 27190, Control_c, 3, 7, 105
5, 27190, Control_c, 3, 7, 105
5, 27190, Control_c, 3, 7, 105
5, 27190, Control_c, 3, 7, 105
5, 27190, Control_c, 3, 7, 105
5, 27190, Control_c, 3, 7, 105
5, 27198, Control_c, 3, 7, 106
5, 27198, Control_c, 3, 7, 106
5, 27198, Control_c, 3, 7, 106
5, 27198, Control_c, 3, 7, 106
5, 27198, Control_c, 3, 7, 106
5, 27198, Control_c, 3, 7, 106
5, 27198, Control_c, 3, 7, 106
5, 27206, Control_c, 3, 7, 107
5, 27206, Control_c, 3, 7, 107
5, 27206, Control_c, 3, 7, 107
5, 27206, Control_c, 3, 7, 107
5, 27206, Control_c, 3, 7, 107
5, 27206, Control_c, 3, 7, 107
5, 27206, Control_c, 3, 7, 107
5, 27213, Control_c, 3, 7, 108
5, 27213, Control_c, 3, 7, 108
5, 27213, Control_c, 3, 7, 108
5, 27213, Control_c, 3, 7, 108
5, 27213, Control_c, 3, 7, 108
5, 27213, Control_c, 3, 7, 108
5, 27213, Control_c, 3, 7, 108
5, 27221, Control_c, 3, 7, 109
5, 27221, Control_c, 3, 7, 109
5, 27221, Control_c, 3, 7, 109
5, 27221, Control_c, 3, 7, 109
5, 27221, Control_c, 3, 7, 109
5, 27221, Control_c, 3, 7, 109
5, 27221, Control_c, 3, 7, 109
5, 27229, Control_c, 3, 7, 110
5, 27229, Control_c, 3, 7, 110
5, 27229, Control_c, 3, 7, 110
5, 27229, Control_c, 3, 7, 110
5, 27229, Control_c, 3, 7, 110
5, 27229, Control_c, 3, 7, 110
5, 27229, Control_c, 3, 7, 110
5, 27232, Note_on_c, 3, 57, 0
5, 27236, Control_c, 3, 7, 111
5, 27236, Control_c, 3, 7, 111
5, 27236, Control_c, 3, 7, 111
5, 27236, Control_c, 3, 7, 111
5, 27236, Control_c, 3, 7, 111
5, 27236, Control_c, 3, 7, 111
5, 27236, Control_c, 3, 7, 111
5, 27240, Note_on_c, 3, 57, 127
5, 27244, Control_c, 3, 7, 112
5, 27244, Control_c, 3, 7, 112
5, 27244, Control_c, 3, 7, 112
5, 27244, Control_c, 3, 7, 112
5, 27244, Control_c, 3, 7, 112
5, 27244, Control_c, 3, 7, 112
5, 27244, Control_c, 3, 7, 112
5, 27252, Control_c, 3, 7, 113
5, 27252, Control_c, 3, 7, 113
5, 27252, Control_c, 3, 7, 113
5, 27252, Control_c, 3, 7, 113
5, 27252, Control_c, 3, 7, 113
5, 27252, Control_c, 3, 7, 113
5, 27252, Control_c, 3, 7, 113
5, 27259, Control_c, 3, 7, 114
5, 27259, Control_c, 3, 7, 114
5, 27259, Control_c, 3, 7, 114
5, 27259, Control_c, 3, 7, 114
5, 27259, Control_c, 3, 7, 114
5, 27259, Control_c, 3, 7, 114
5, 27259, Control_c, 3, 7, 114
5, 27267, Control_c, 3, 7, 115
5, 27267, Control_c, 3, 7, 115
5, 27267, Control_c, 3, 7, 115
5, 27267, Control_c, 3, 7, 115
5, 27267, Control_c, 3, 7, 115
5, 27267, Control_c, 3, 7, 115
5, 27267, Control_c, 3, 7, 115
5, 27274, Control_c, 3, 7, 116
5, 27274, Control_c, 3, 7, 116
5, 27274, Control_c, 3, 7, 116
5, 27274, Control_c, 3, 7, 116
5, 27274, Control_c, 3, 7, 116
5, 27274, Control_c, 3, 7, 116
5, 27274, Control_c, 3, 7, 116
5, 27282, Control_c, 3, 7, 117
5, 27282, Control_c, 3, 7, 117
5, 27282, Control_c, 3, 7, 117
5, 27282, Control_c, 3, 7, 117
5, 27282, Control_c, 3, 7, 117
5, 27282, Control_c, 3, 7, 117
5, 27282, Control_c, 3, 7, 117
5, 27290, Control_c, 3, 7, 118
5, 27290, Control_c, 3, 7, 118
5, 27290, Control_c, 3, 7, 118
5, 27290, Control_c, 3, 7, 118
5, 27290, Control_c, 3, 7, 118
5, 27290, Control_c, 3, 7, 118
5, 27290, Control_c, 3, 7, 118
5, 27297, Control_c, 3, 7, 119
5, 27297, Control_c, 3, 7, 119
5, 27297, Control_c, 3, 7, 119
5, 27297, Control_c, 3, 7, 119
5, 27297, Control_c, 3, 7, 119
5, 27297, Control_c, 3, 7, 119
5, 27297, Control_c, 3, 7, 119
5, 27305, Control_c, 3, 7, 120
5, 27305, Control_c, 3, 7, 120
5, 27305, Control_c, 3, 7, 120
5, 27305, Control_c, 3, 7, 120
5, 27305, Control_c, 3, 7, 120
5, 27305, Control_c, 3, 7, 120
5, 27305, Control_c, 3, 7, 120
5, 27313, Control_c, 3, 7, 121
5, 27313, Control_c, 3, 7, 121
5, 27313, Control_c, 3, 7, 121
5, 27313, Control_c, 3, 7, 121
5, 27313, Control_c, 3, 7, 121
5, 27313, Control_c, 3, 7, 121
5, 27313, Control_c, 3, 7, 121
5, 27320, Control_c, 3, 7, 122
5, 27320, Control_c, 3, 7, 122
5, 27320, Control_c, 3, 7, 122
5, 27320, Control_c, 3, 7, 122
5, 27320, Control_c, 3, 7, 122
5, 27320, Control_c, 3, 7, 122
5, 27320, Control_c, 3, 7, 122
5, 27328, Control_c, 3, 7, 123
5, 27328, Control_c, 3, 7, 123
5, 27328, Control_c, 3, 7, 123
5, 27328, Control_c, 3, 7, 123
5, 27328, Control_c, 3, 7, 123
5, 27328, Control_c, 3, 7, 123
5, 27328, Control_c, 3, 7, 123
5, 27336, Control_c, 3, 7, 124
5, 27336, Control_c, 3, 7, 124
5, 27336, Control_c, 3, 7, 124
5, 27336, Control_c, 3, 7, 124
5, 27336, Control_c, 3, 7, 124
5, 27336, Control_c, 3, 7, 124
5, 27336, Control_c, 3, 7, 124
5, 27343, Control_c, 3, 7, 125
5, 27343, Control_c, 3, 7, 125
5, 27343, Control_c, 3, 7, 125
5, 27343, Control_c, 3, 7, 125
5, 27343, Control_c, 3, 7, 125
5, 27343, Control_c, 3, 7, 125
5, 27343, Control_c, 3, 7, 125
5, 27351, Control_c, 3, 7, 126
5, 27351, Control_c, 3, 7, 126
5, 27351, Control_c, 3, 7, 126
5, 27351, Control_c, 3, 7, 126
5, 27351, Control_c, 3, 7, 126
5, 27351, Control_c, 3, 7, 126
5, 27351, Control_c, 3, 7, 126
5, 27352, Note_on_c, 3, 57, 0
5, 27359, Control_c, 3, 7, 127
5, 27359, Control_c, 3, 7, 127
5, 27359, Control_c, 3, 7, 127
5, 27359, Control_c, 3, 7, 127
5, 27359, Control_c, 3, 7, 127
5, 27359, Control_c, 3, 7, 127
5, 27359, Control_c, 3, 7, 127
5, 27360, Note_on_c, 3, 57, 127
5, 27662, Note_on_c, 3, 57, 0
5, 27840, Control_c, 3, 7, 120
5, 27842, Control_c, 3, 7, 119
5, 27844, Control_c, 3, 7, 118
5, 27846, Control_c, 3, 7, 117
5, 27848, Control_c, 3, 7, 116
5, 27850, Control_c, 3, 7, 115
5, 27852, Control_c, 3, 7, 114
5, 27854, Control_c, 3, 7, 113
5, 27857, Control_c, 3, 7, 112
5, 27859, Control_c, 3, 7, 111
5, 27861, Control_c, 3, 7, 110
5, 27863, Control_c, 3, 7, 109
5, 27865, Control_c, 3, 7, 108
5, 27867, Control_c, 3, 7, 107
5, 27869, Control_c, 3, 7, 106
5, 27871, Control_c, 3, 7, 105
5, 27874, Control_c, 3, 7, 104
5, 27876, Control_c, 3, 7, 103
5, 27878, Control_c, 3, 7, 102
5, 27880, Control_c, 3, 7, 101
5, 27882, Control_c, 3, 7, 100
5, 27884, Control_c, 3, 7, 99
5, 27886, Control_c, 3, 7, 98
5, 27888, Control_c, 3, 7, 97
5, 27891, Control_c, 3, 7, 96
5, 27893, Control_c, 3, 7, 95
5, 27895, Control_c, 3, 7, 94
5, 27897, Control_c, 3, 7, 93
5, 27899, Control_c, 3, 7, 92
5, 27901, Control_c, 3, 7, 91
5, 27903, Control_c, 3, 7, 90
5, 27905, Control_c, 3, 7, 89
5, 27908, Control_c, 3, 7, 88
5, 27910, Control_c, 3, 7, 87
5, 27912, Control_c, 3, 7, 86
5, 27914, Control_c, 3, 7, 85
5, 27916, Control_c, 3, 7, 84
5, 27918, Control_c, 3, 7, 83
5, 27920, Control_c, 3, 7, 82
5, 27922, Control_c, 3, 7, 81
5, 27925, Control_c, 3, 7, 80
5, 27927, Control_c, 3, 7, 79
5, 27929, Control_c, 3, 7, 78
5, 27931, Control_c, 3, 7, 77
5, 27933, Control_c, 3, 7, 76
5, 27935, Control_c, 3, 7, 75
5, 27937, Control_c, 3, 7, 74
5, 27939, Control_c, 3, 7, 73
5, 27942, Control_c, 3, 7, 72
5, 27944, Control_c, 3, 7, 71
5, 27946, Control_c, 3, 7, 70
5, 27948, Control_c, 3, 7, 69
5, 27950, Control_c, 3, 7, 68
5, 27952, Control_c, 3, 7, 67
5, 27954, Control_c, 3, 7, 66
5, 27956, Control_c, 3, 7, 65
5, 27959, Control_c, 3, 7, 64
5, 27960, Control_c, 3, 7, 64
5, 29760, Control_c, 3, 7, 96
5, 29760, Control_c, 3, 7, 120
5, 29762, Control_c, 3, 7, 106
5, 29762, Control_c, 3, 7, 119
5, 29764, Control_c, 3, 7, 105
5, 29764, Control_c, 3, 7, 118
5, 29766, Control_c, 3, 7, 104
5, 29766, Control_c, 3, 7, 117
5, 29768, Control_c, 3, 7, 103
5, 29768, Control_c, 3, 7, 116
5, 29770, Control_c, 3, 7, 102
5, 29770, Control_c, 3, 7, 115
5, 29772, Control_c, 3, 7, 101
5, 29772, Control_c, 3, 7, 114
5, 29774, Control_c, 3, 7, 95
5, 29774, Control_c, 3, 7, 100
5, 29774, Control_c, 3, 7, 113
5, 29777, Control_c, 3, 7, 99
5, 29777, Control_c, 3, 7, 112
5, 29779, Control_c, 3, 7, 98
5, 29779, Control_c, 3, 7, 111
5, 29781, Control_c, 3, 7, 97
5, 29781, Control_c, 3, 7, 110
5, 29783, Control_c, 3, 7, 96
5, 29783, Control_c, 3, 7, 109
5, 29785, Control_c, 3, 7, 95
5, 29785, Control_c, 3, 7, 108
5, 29787, Control_c, 3, 7, 94
5, 29787, Control_c, 3, 7, 107
5, 29789, Control_c, 3, 7, 94
5, 29789, Control_c, 3, 7, 93
5, 29789, Control_c, 3, 7, 106
5, 29791, Control_c, 3, 7, 105
5, 29792, Control_c, 3, 7, 92
5, 29794, Control_c, 3, 7, 91
5, 29794, Control_c, 3, 7, 104
5, 29796, Control_c, 3, 7, 90
5, 29796, Control_c, 3, 7, 103
5, 29798, Control_c, 3, 7, 89
5, 29798, Control_c, 3, 7, 102
5, 29800, Control_c, 3, 7, 88
5, 29800, Control_c, 3, 7, 101
5, 29802, Control_c, 3, 7, 87
5, 29802, Control_c, 3, 7, 100
5, 29804, Control_c, 3, 7, 93
5, 29804, Control_c, 3, 7, 86
5, 29804, Control_c, 3, 7, 99
5, 29806, Control_c, 3, 7, 98
5, 29807, Control_c, 3, 7, 85
5, 29808, Control_c, 3, 7, 97
5, 29809, Control_c, 3, 7, 84
5, 29811, Control_c, 3, 7, 83
5, 29811, Control_c, 3, 7, 96
5, 29813, Control_c, 3, 7, 82
5, 29813, Control_c, 3, 7, 95
5, 29815, Control_c, 3, 7, 81
5, 29815, Control_c, 3, 7, 94
5, 29817, Control_c, 3, 7, 80
5, 29817, Control_c, 3, 7, 93
5, 29819, Control_c, 3, 7, 92
5, 29819, Control_c, 3, 7, 79
5, 29819, Control_c, 3, 7, 92
5, 29821, Control_c, 3, 7, 91
5, 29822, Control_c, 3, 7, 78
5, 29823, Control_c, 3, 7, 90
5, 29824, Control_c, 3, 7, 77
5, 29825, Control_c, 3, 7, 89
5, 29826, Control_c, 3, 7, 76
5, 29828, Control_c, 3, 7, 75
5, 29828, Control_c, 3, 7, 88
5, 29830, Control_c, 3, 7, 74
5, 29830, Control_c, 3, 7, 87
5, 29832, Control_c, 3, 7, 73
5, 29832, Control_c, 3, 7, 86
5, 29834, Control_c, 3, 7, 91
5, 29834, Control_c, 3, 7, 72
5, 29834, Control_c, 3, 7, 85
5, 29836, Control_c, 3, 7, 84
5, 29837, Control_c, 3, 7, 71
5, 29838, Control_c, 3, 7, 83
5, 29839, Control_c, 3, 7, 70
5, 29840, Control_c, 3, 7, 82
5, 29841, Control_c, 3, 7, 69
5, 29842, Control_c, 3, 7, 81
5, 29843, Control_c, 3, 7, 68
5, 29845, Control_c, 3, 7, 67
5, 29845, Control_c, 3, 7, 80
5, 29847, Control_c, 3, 7, 66
5, 29847, Control_c, 3, 7, 79
5, 29849, Control_c, 3, 7, 90
5, 29849, Control_c, 3, 7, 65
5, 29849, Control_c, 3, 7, 78
5, 29851, Control_c, 3, 7, 77
5, 29852, Control_c, 3, 7, 64
5, 29853, Control_c, 3, 7, 76
5, 29855, Control_c, 3, 7, 75
5, 29857, Control_c, 3, 7, 74
5, 29859, Control_c, 3, 7, 73
5, 29862, Control_c, 3, 7, 72
5, 29864, Control_c, 3, 7, 89
5, 29864, Control_c, 3, 7, 71
5, 29866, Control_c, 3, 7, 70
5, 29868, Control_c, 3, 7, 69
5, 29870, Control_c, 3, 7, 68
5, 29872, Control_c, 3, 7, 67
5, 29874, Control_c, 3, 7, 66
5, 29876, Control_c, 3, 7, 65
5, 29879, Control_c, 3, 7, 88
5, 29879, Control_c, 3, 7, 64
5, 29880, Control_c, 3, 7, 64
5, 29894, Control_c, 3, 7, 87
5, 29909, Control_c, 3, 7, 86
5, 29924, Control_c, 3, 7, 85
5, 29939, Control_c, 3, 7, 84
5, 29954, Control_c, 3, 7, 83
5, 29969, Control_c, 3, 7, 82
5, 29984, Control_c, 3, 7, 81
5, 29999, Control_c, 3, 7, 80
5, 30014, Control_c, 3, 7, 79
5, 30029, Control_c, 3, 7, 78
5, 30044, Control_c, 3, 7, 77
5, 30059, Control_c, 3, 7, 76
5, 30074, Control_c, 3, 7, 75
5, 30089, Control_c, 3, 7, 74
5, 30104, Control_c, 3, 7, 73
5, 30119, Control_c, 3, 7, 72
5, 30134, Control_c, 3, 7, 71
5, 30149, Control_c, 3, 7, 70
5, 30164, Control_c, 3, 7, 69
5, 30179, Control_c, 3, 7, 68
5, 30194, Control_c, 3, 7, 67
5, 30209, Control_c, 3, 7, 66
5, 30213, Control_c, 3, 7, 115
5, 30215, Control_c, 3, 7, 114
5, 30218, Control_c, 3, 7, 113
5, 30220, Control_c, 3, 7, 112
5, 30222, Control_c, 3, 7, 111
5, 30224, Control_c, 3, 7, 65
5, 30224, Control_c, 3, 7, 110
5, 30226, Control_c, 3, 7, 109
5, 30228, Control_c, 3, 7, 108
5, 30230, Control_c, 3, 7, 107
5, 30233, Control_c, 3, 7, 106
5, 30235, Control_c, 3, 7, 105
5, 30237, Control_c, 3, 7, 104
5, 30239, Control_c, 3, 7, 64
5, 30239, Control_c, 3, 7, 103
5, 30240, Control_c, 3, 7, 96
5, 30240, Control_c, 3, 7, 120
5, 30241, Control_c, 3, 7, 102
5, 30242, Control_c, 3, 7, 119
5, 30243, Control_c, 3, 7, 101
5, 30244, Control_c, 3, 7, 118
5, 30245, Control_c, 3, 7, 100
5, 30246, Control_c, 3, 7, 117
5, 30248, Control_c, 3, 7, 99
5, 30248, Control_c, 3, 7, 116
5, 30250, Control_c, 3, 7, 98
5, 30250, Control_c, 3, 7, 115
5, 30252, Control_c, 3, 7, 97
5, 30252, Control_c, 3, 7, 114
5, 30254, Control_c, 3, 7, 95
5, 30254, Control_c, 3, 7, 96
5, 30254, Control_c, 3, 7, 113
5, 30256, Control_c, 3, 7, 95
5, 30257, Control_c, 3, 7, 112
5, 30258, Control_c, 3, 7, 94
5, 30259, Control_c, 3, 7, 111
5, 30260, Control_c, 3, 7, 93
5, 30261, Control_c, 3, 7, 110
5, 30263, Control_c, 3, 7, 92
5, 30263, Control_c, 3, 7, 109
5, 30265, Control_c, 3, 7, 91
5, 30265, Control_c, 3, 7, 108
5, 30267, Control_c, 3, 7, 90
5, 30267, Control_c, 3, 7, 107
5, 30269, Control_c, 3, 7, 94
5, 30269, Control_c, 3, 7, 89
5, 30269, Control_c, 3, 7, 106
5, 30271, Control_c, 3, 7, 88
5, 30271, Control_c, 3, 7, 105
5, 30273, Control_c, 3, 7, 87
5, 30274, Control_c, 3, 7, 104
5, 30275, Control_c, 3, 7, 86
5, 30276, Control_c, 3, 7, 103
5, 30278, Control_c, 3, 7, 85
5, 30278, Control_c, 3, 7, 102
5, 30280, Control_c, 3, 7, 84
5, 30280, Control_c, 3, 7, 101
5, 30282, Control_c, 3, 7, 83
5, 30282, Control_c, 3, 7, 100
5, 30284, Control_c, 3, 7, 93
5, 30284, Control_c, 3, 7, 82
5, 30284, Control_c, 3, 7, 99
5, 30286, Control_c, 3, 7, 81
5, 30286, Control_c, 3, 7, 98
5, 30288, Control_c, 3, 7, 80
5, 30288, Control_c, 3, 7, 97
5, 30290, Control_c, 3, 7, 79
5, 30291, Control_c, 3, 7, 96
5, 30293, Control_c, 3, 7, 78
5, 30293, Control_c, 3, 7, 95
5, 30295, Control_c, 3, 7, 77
5, 30295, Control_c, 3, 7, 94
5, 30297, Control_c, 3, 7, 76
5, 30297, Control_c, 3, 7, 93
5, 30299, Control_c, 3, 7, 92
5, 30299, Control_c, 3, 7, 75
5, 30299, Control_c, 3, 7, 92
5, 30301, Control_c, 3, 7, 74
5, 30301, Control_c, 3, 7, 91
5, 30303, Control_c, 3, 7, 73
5, 30303, Control_c, 3, 7, 90
5, 30305, Control_c, 3, 7, 72
5, 30305, Control_c, 3, 7, 89
5, 30308, Control_c, 3, 7, 71
5, 30308, Control_c, 3, 7, 88
5, 30310, Control_c, 3, 7, 70
5, 30310, Control_c, 3, 7, 87
5, 30312, Control_c, 3, 7, 69
5, 30312, Control_c, 3, 7, 86
5, 30314, Control_c, 3, 7, 91
5, 30314, Control_c, 3, 7, 68
5, 30314, Control_c, 3, 7, 85
5, 30316, Control_c, 3, 7, 67
5, 30316, Control_c, 3, 7, 84
5, 30318, Control_c, 3, 7, 66
5, 30318, Control_c, 3, 7, 83
5, 30320, Control_c, 3, 7, 65
5, 30320, Control_c, 3, 7, 82
5, 30322, Control_c, 3, 7, 81
5, 30323, Control_c, 3, 7, 64
5, 30325, Control_c, 3, 7, 80
5, 30327, Control_c, 3, 7, 79
5, 30329, Control_c, 3, 7, 90
5, 30329, Control_c, 3, 7, 78
5, 30331, Control_c, 3, 7, 77
5, 30333, Control_c, 3, 7, 76
5, 30335, Control_c, 3, 7, 75
5, 30337, Control_c, 3, 7, 74
5, 30339, Control_c, 3, 7, 73
5, 30342, Control_c, 3, 7, 72
5, 30344, Control_c, 3, 7, 89
5, 30344, Control_c, 3, 7, 71
5, 30346, Control_c, 3, 7, 70
5, 30348, Control_c, 3, 7, 69
5, 30350, Control_c, 3, 7, 68
5, 30352, Control_c, 3, 7, 67
5, 30354, Control_c, 3, 7, 66
5, 30356, Control_c, 3, 7, 65
5, 30359, Control_c, 3, 7, 88
5, 30359, Control_c, 3, 7, 64
5, 30360, Control_c, 3, 7, 64
5, 30374, Control_c, 3, 7, 87
5, 30389, Control_c, 3, 7, 86
5, 30404, Control_c, 3, 7, 85
5, 30419, Control_c, 3, 7, 84
5, 30434, Control_c, 3, 7, 83
5, 30449, Control_c, 3, 7, 82
5, 30464, Control_c, 3, 7, 81
5, 30479, Control_c, 3, 7, 80
5, 30494, Control_c, 3, 7, 79
5, 30509, Control_c, 3, 7, 78
5, 30524, Control_c, 3, 7, 77
5, 30539, Control_c, 3, 7, 76
5, 30554, Control_c, 3, 7, 75
5, 30569, Control_c, 3, 7, 74
5, 30584, Control_c, 3, 7, 73
5, 30599, Control_c, 3, 7, 72
5, 30614, Control_c, 3, 7, 71
5, 30629, Control_c, 3, 7, 70
5, 30644, Control_c, 3, 7, 69
5, 30659, Control_c, 3, 7, 68
5, 30674, Control_c, 3, 7, 67
5, 30689, Control_c, 3, 7, 66
5, 30704, Control_c, 3, 7, 65
5, 30719, Control_c, 3, 7, 64
5, 31200, Note_on_c, 3, 52, 112
5, 31680, Note_on_c, 3, 52, 0
5, 31680, Note_on_c, 3, 45, 92
5, 31680, Control_c, 3, 7, 120
5, 31682, Control_c, 3, 7, 119
5, 31684, Control_c, 3, 7, 118
5, 31686, Control_c, 3, 7, 117
5, 31688, Control_c, 3, 7, 116
5, 31690, Control_c, 3, 7, 115
5, 31692, Control_c, 3, 7, 114
5, 31694, Control_c, 3, 7, 113
5, 31697, Control_c, 3, 7, 112
5, 31699, Control_c, 3, 7, 111
5, 31701, Control_c, 3, 7, 110
5, 31703, Control_c, 3, 7, 109
5, 31705, Control_c, 3, 7, 108
5, 31707, Control_c, 3, 7, 107
5, 31709, Control_c, 3, 7, 106
5, 31711, Control_c, 3, 7, 105
5, 31714, Control_c, 3, 7, 104
5, 31716, Control_c, 3, 7, 103
5, 31718, Control_c, 3, 7, 102
5, 31720, Control_c, 3, 7, 101
5, 31722, Control_c, 3, 7, 100
5, 31724, Control_c, 3, 7, 99
5, 31726, Control_c, 3, 7, 98
5, 31728, Control_c, 3, 7, 97
5, 31731, Control_c, 3, 7, 96
5, 31733, Control_c, 3, 7, 95
5, 31735, Control_c, 3, 7, 94
5, 31737, Control_c, 3, 7, 93
5, 31739, Control_c, 3, 7, 92
5, 31741, Control_c, 3, 7, 91
5, 31743, Control_c, 3, 7, 90
5, 31745, Control_c, 3, 7, 89
5, 31748, Control_c, 3, 7, 88
5, 31750, Control_c, 3, 7, 87
5, 31752, Control_c, 3, 7, 86
5, 31754, Control_c, 3, 7, 85
5, 31756, Control_c, 3, 7, 84
5, 31758, Control_c, 3, 7, 83
5, 31760, Control_c, 3, 7, 82
5, 31762, Control_c, 3, 7, 81
5, 31765, Control_c, 3, 7, 80
5, 31767, Control_c, 3, 7, 79
5, 31769, Control_c, 3, 7, 78
5, 31771, Control_c, 3, 7, 77
5, 31773, Control_c, 3, 7, 76
5, 31775, Control_c, 3, 7, 75
5, 31777, Control_c, 3, 7, 74
5, 31779, Control_c, 3, 7, 73
5, 31782, Control_c, 3, 7, 72
5, 31784, Control_c, 3, 7, 71
5, 31786, Control_c, 3, 7, 70
5, 31788, Control_c, 3, 7, 69
5, 31790, Control_c, 3, 7, 68
5, 31792, Control_c, 3, 7, 67
5, 31794, Control_c, 3, 7, 66
5, 31796, Control_c, 3, 7, 65
5, 31799, Control_c, 3, 7, 64
5, 31800, Note_on_c, 3, 45, 0
5, 31800, Control_c, 3, 7, 64
5, 33600, Control_c, 3, 7, 96
5, 33600, Control_c, 3, 7, 120
5, 33602, Control_c, 3, 7, 106
5, 33602, Control_c, 3, 7, 119
5, 33604, Control_c, 3, 7, 105
5, 33604, Control_c, 3, 7, 118
5, 33606, Control_c, 3, 7, 104
5, 33606, Control_c, 3, 7, 117
5, 33608, Control_c, 3, 7, 103
5, 33608, Control_c, 3, 7, 116
5, 33610, Control_c, 3, 7, 102
5, 33610, Control_c, 3, 7, 115
5, 33612, Control_c, 3, 7, 101
5, 33612, Control_c, 3, 7, 114
5, 33614, Control_c, 3, 7, 95
5, 33614, Control_c, 3, 7, 100
5, 33614, Control_c, 3, 7, 113
5, 33617, Control_c, 3, 7, 99
5, 33617, Control_c, 3, 7, 112
5, 33619, Control_c, 3, 7, 98
5, 33619, Control_c, 3, 7, 111
5, 33621, Control_c, 3, 7, 97
5, 33621, Control_c, 3, 7, 110
5, 33623, Control_c, 3, 7, 96
5, 33623, Control_c, 3, 7, 109
5, 33625, Control_c, 3, 7, 95
5, 33625, Control_c, 3, 7, 108
5, 33627, Control_c, 3, 7, 94
5, 33627, Control_c, 3, 7, 107
5, 33629, Control_c, 3, 7, 94
5, 33629, Control_c, 3, 7, 93
5, 33629, Control_c, 3, 7, 106
5, 33631, Control_c, 3, 7, 105
5, 33632, Control_c, 3, 7, 92
5, 33634, Control_c, 3, 7, 91
5, 33634, Control_c, 3, 7, 104
5, 33636, Control_c, 3, 7, 90
5, 33636, Control_c, 3, 7, 103
5, 33638, Control_c, 3, 7, 89
5, 33638, Control_c, 3, 7, 102
5, 33640, Control_c, 3, 7, 88
5, 33640, Control_c, 3, 7, 101
5, 33642, Control_c, 3, 7, 87
5, 33642, Control_c, 3, 7, 100
5, 33644, Control_c, 3, 7, 93
5, 33644, Control_c, 3, 7, 86
5, 33644, Control_c, 3, 7, 99
5, 33646, Control_c, 3, 7, 98
5, 33647, Control_c, 3, 7, 85
5, 33648, Control_c, 3, 7, 97
5, 33649, Control_c, 3, 7, 84
5, 33651, Control_c, 3, 7, 83
5, 33651, Control_c, 3, 7, 96
5, 33653, Control_c, 3, 7, 82
5, 33653, Control_c, 3, 7, 95
5, 33655, Control_c, 3, 7, 81
5, 33655, Control_c, 3, 7, 94
5, 33657, Control_c, 3, 7, 80
5, 33657, Control_c, 3, 7, 93
5, 33659, Control_c, 3, 7, 92
5, 33659, Control_c, 3, 7, 79
5, 33659, Control_c, 3, 7, 92
5, 33661, Control_c, 3, 7, 91
5, 33662, Control_c, 3, 7, 78
5, 33663, Control_c, 3, 7, 90
5, 33664, Control_c, 3, 7, 77
5, 33665, Control_c, 3, 7, 89
5, 33666, Control_c, 3, 7, 76
5, 33668, Control_c, 3, 7, 75
5, 33668, Control_c, 3, 7, 88
5, 33670, Control_c, 3, 7, 74
5, 33670, Control_c, 3, 7, 87
5, 33672, Control_c, 3, 7, 73
5, 33672, Control_c, 3, 7, 86
5, 33674, Control_c, 3, 7, 91
5, 33674, Control_c, 3, 7, 72
5, 33674, Control_c, 3, 7, 85
5, 33676, Control_c, 3, 7, 84
5, 33677, Control_c, 3, 7, 71
5, 33678, Control_c, 3, 7, 83
5, 33679, Control_c, 3, 7, 70
5, 33680, Control_c, 3, 7, 82
5, 33681, Control_c, 3, 7, 69
5, 33682, Control_c, 3, 7, 81
5, 33683, Control_c, 3, 7, 68
5, 33685, Control_c, 3, 7, 67
5, 33685, Control_c, 3, 7, 80
5, 33687, Control_c, 3, 7, 66
5, 33687, Control_c, 3, 7, 79
5, 33689, Control_c, 3, 7, 90
5, 33689, Control_c, 3, 7, 65
5, 33689, Control_c, 3, 7, 78
5, 33691, Control_c, 3, 7, 77
5, 33692, Control_c, 3, 7, 64
5, 33693, Control_c, 3, 7, 76
5, 33695, Control_c, 3, 7, 75
5, 33697, Control_c, 3, 7, 74
5, 33699, Control_c, 3, 7, 73
5, 33702, Control_c, 3, 7, 72
5, 33704, Control_c, 3, 7, 89
5, 33704, Control_c, 3, 7, 71
5, 33706, Control_c, 3, 7, 70
5, 33708, Control_c, 3, 7, 69
5, 33710, Control_c, 3, 7, 68
5, 33712, Control_c, 3, 7, 67
5, 33714, Control_c, 3, 7, 66
5, 33716, Control_c, 3, 7, 65
5, 33719, Control_c, 3, 7, 88
5, 33719, Control_c, 3, 7, 64
5, 33720, Control_c, 3, 7, 64
5, 33734, Control_c, 3, 7, 87
5, 33749, Control_c, 3, 7, 86
5, 33764, Control_c, 3, 7, 85
5, 33779, Control_c, 3, 7, 84
5, 33794, Control_c, 3, 7, 83
5, 33809, Control_c, 3, 7, 82
5, 33824, Control_c, 3, 7, 81
5, 33839, Control_c, 3, 7, 80
5, 33854, Control_c, 3, 7, 79
5, 33869, Control_c, 3, 7, 78
5, 33884, Control_c, 3, 7, 77
5, 33899, Control_c, 3, 7, 76
5, 33914, Control_c, 3, 7, 75
5, 33929, Control_c, 3, 7, 74
5, 33944, Control_c, 3, 7, 73
5, 33959, Control_c, 3, 7, 72
5, 33974, Control_c, 3, 7, 71
5, 33989, Control_c, 3, 7, 70
5, 34004, Control_c, 3, 7, 69
5, 34019, Control_c, 3, 7, 68
5, 34034, Control_c, 3, 7, 67
5, 34049, Control_c, 3, 7, 66
5, 34053, Control_c, 3, 7, 115
5, 34055, Control_c, 3, 7, 114
5, 34058, Control_c, 3, 7, 113
5, 34060, Control_c, 3, 7, 112
5, 34062, Control_c, 3, 7, 111
5, 34064, Control_c, 3, 7, 65
5, 34064, Control_c, 3, 7, 110
5, 34066, Control_c, 3, 7, 109
5, 34068, Control_c, 3, 7, 108
5, 34070, Control_c, 3, 7, 107
5, 34073, Control_c, 3, 7, 106
5, 34075, Control_c, 3, 7, 105
5, 34077, Control_c, 3, 7, 104
5, 34079, Control_c, 3, 7, 64
5, 34079, Control_c, 3, 7, 103
5, 34080, Control_c, 3, 7, 96
5, 34080, Control_c, 3, 7, 120
5, 34081, Control_c, 3, 7, 102
5, 34082, Control_c, 3, 7, 119
5, 34083, Control_c, 3, 7, 101
5, 34084, Control_c, 3, 7, 118
5, 34085, Control_c, 3, 7, 100
5, 34086, Control_c, 3, 7, 117
5, 34088, Control_c, 3, 7, 99
5, 34088, Control_c, 3, 7, 116
5, 34090, Control_c, 3, 7, 98
5, 34090, Control_c, 3, 7, 115
5, 34092, Control_c, 3, 7, 97
5, 34092, Control_c, 3, 7, 114
5, 34094, Control_c, 3, 7, 95
5, 34094, Control_c, 3, 7, 96
5, 34094, Control_c, 3, 7, 113
5, 34096, Control_c, 3, 7, 95
5, 34097, Control_c, 3, 7, 112
5, 34098, Control_c, 3, 7, 94
5, 34099, Control_c, 3, 7, 111
5, 34100, Control_c, 3, 7, 93
5, 34101, Control_c, 3, 7, 110
5, 34103, Control_c, 3, 7, 92
5, 34103, Control_c, 3, 7, 109
5, 34105, Control_c, 3, 7, 91
5, 34105, Control_c, 3, 7, 108
5, 34107, Control_c, 3, 7, 90
5, 34107, Control_c, 3, 7, 107
5, 34109, Control_c, 3, 7, 94
5, 34109, Control_c, 3, 7, 89
5, 34109, Control_c, 3, 7, 106
5, 34111, Control_c, 3, 7, 88
5, 34111, Control_c, 3, 7, 105
5, 34113, Control_c, 3, 7, 87
5, 34114, Control_c, 3, 7, 104
5, 34115, Control_c, 3, 7, 86
5, 34116, Control_c, 3, 7, 103
5, 34118, Control_c, 3, 7, 85
5, 34118, Control_c, 3, 7, 102
5, 34120, Control_c, 3, 7, 84
5, 34120, Control_c, 3, 7, 101
5, 34122, Control_c, 3, 7, 83
5, 34122, Control_c, 3, 7, 100
5, 34124, Control_c, 3, 7, 93
5, 34124, Control_c, 3, 7, 82
5, 34124, Control_c, 3, 7, 99
5, 34126, Control_c, 3, 7, 81
5, 34126, Control_c, 3, 7, 98
5, 34128, Control_c, 3, 7, 80
5, 34128, Control_c, 3, 7, 97
5, 34130, Control_c, 3, 7, 79
5, 34131, Control_c, 3, 7, 96
5, 34133, Control_c, 3, 7, 78
5, 34133, Control_c, 3, 7, 95
5, 34135, Control_c, 3, 7, 77
5, 34135, Control_c, 3, 7, 94
5, 34137, Control_c, 3, 7, 76
5, 34137, Control_c, 3, 7, 93
5, 34139, Control_c, 3, 7, 92
5, 34139, Control_c, 3, 7, 75
5, 34139, Control_c, 3, 7, 92
5, 34141, Control_c, 3, 7, 74
5, 34141, Control_c, 3, 7, 91
5, 34143, Control_c, 3, 7, 73
5, 34143, Control_c, 3, 7, 90
5, 34145, Control_c, 3, 7, 72
5, 34145, Control_c, 3, 7, 89
5, 34148, Control_c, 3, 7, 71
5, 34148, Control_c, 3, 7, 88
5, 34150, Control_c, 3, 7, 70
5, 34150, Control_c, 3, 7, 87
5, 34152, Control_c, 3, 7, 69
5, 34152, Control_c, 3, 7, 86
5, 34154, Control_c, 3, 7, 91
5, 34154, Control_c, 3, 7, 68
5, 34154, Control_c, 3, 7, 85
5, 34156, Control_c, 3, 7, 67
5, 34156, Control_c, 3, 7, 84
5, 34158, Control_c, 3, 7, 66
5, 34158, Control_c, 3, 7, 83
5, 34160, Control_c, 3, 7, 65
5, 34160, Control_c, 3, 7, 82
5, 34162, Control_c, 3, 7, 81
5, 34163, Control_c, 3, 7, 64
5, 34165, Control_c, 3, 7, 80
5, 34167, Control_c, 3, 7, 79
5, 34169, Control_c, 3, 7, 90
5, 34169, Control_c, 3, 7, 78
5, 34171, Control_c, 3, 7, 77
5, 34173, Control_c, 3, 7, 76
5, 34175, Control_c, 3, 7, 75
5, 34177, Control_c, 3, 7, 74
5, 34179, Control_c, 3, 7, 73
5, 34182, Control_c, 3, 7, 72
5, 34184, Control_c, 3, 7, 89
5, 34184, Control_c, 3, 7, 71
5, 34186, Control_c, 3, 7, 70
5, 34188, Control_c, 3, 7, 69
5, 34190, Control_c, 3, 7, 68
5, 34192, Control_c, 3, 7, 67
5, 34194, Control_c, 3, 7, 66
5, 34196, Control_c, 3, 7, 65
5, 34199, Control_c, 3, 7, 88
5, 34199, Control_c, 3, 7, 64
5, 34200, Control_c, 3, 7, 64
5, 34214, Control_c, 3, 7, 87
5, 34229, Control_c, 3, 7, 86
5, 34244, Control_c, 3, 7, 85
5, 34259, Control_c, 3, 7, 84
5, 34274, Control_c, 3, 7, 83
5, 34289, Control_c, 3, 7, 82
5, 34304, Control_c, 3, 7, 81
5, 34319, Control_c, 3, 7, 80
5, 34334, Control_c, 3, 7, 79
5, 34349, Control_c, 3, 7, 78
5, 34364, Control_c, 3, 7, 77
5, 34379, Control_c, 3, 7, 76
5, 34394, Control_c, 3, 7, 75
5, 34409, Control_c, 3, 7, 74
5, 34424, Control_c, 3, 7, 73
5, 34439, Control_c, 3, 7, 72
5, 34454, Control_c, 3, 7, 71
5, 34469, Control_c, 3, 7, 70
5, 34484, Control_c, 3, 7, 69
5, 34499, Control_c, 3, 7, 68
5, 34514, Control_c, 3, 7, 67
5, 34529, Control_c, 3, 7, 66
5, 34544, Control_c, 3, 7, 65
5, 34559, Control_c, 3, 7, 64
5, 35040, Note_on_c, 3, 52, 115
5, 35424, Note_on_c, 3, 52, 0
5, 35520, Note_on_c, 3, 45, 115
5, 35616, Note_on_c, 3, 45, 0
5, 35690, Control_c, 3, 7, 126
5, 35760, Note_on_c, 3, 57, 127
5, 35856, Note_on_c, 3, 57, 0
5, 36720, Note_on_c, 3, 55, 127
5, 36816, Note_on_c, 3, 55, 0
5, 37680, Note_on_c, 3, 53, 127
5, 37776, Note_on_c, 3, 53, 0
5, 38400, Note_on_c, 3, 52, 82
5, 38448, Note_on_c, 3, 52, 0
5, 38460, Note_on_c, 3, 52, 83
5, 38508, Note_on_c, 3, 52, 0
5, 38520, Note_on_c, 3, 52, 83
5, 38568, Note_on_c, 3, 52, 0
5, 38580, Note_on_c, 3, 52, 83
5, 38628, Note_on_c, 3, 52, 0
5, 38640, Note_on_c, 3, 52, 84
5, 38688, Note_on_c, 3, 52, 0
5, 38700, Note_on_c, 3, 52, 86
5, 38748, Note_on_c, 3, 52, 0
5, 38760, Note_on_c, 3, 52, 86
5, 38808, Note_on_c, 3, 52, 0
5, 38820, Note_on_c, 3, 52, 88
5, 38868, Note_on_c, 3, 52, 0
5, 38880, Note_on_c, 3, 52, 89
5, 38928, Note_on_c, 3, 52, 0
5, 38940, Note_on_c, 3, 52, 90
5, 38988, Note_on_c, 3, 52, 0
5, 39000, Note_on_c, 3, 52, 91
5, 39048, Note_on_c, 3, 52, 0
5, 39060, Note_on_c, 3, 52, 93
5, 39108, Note_on_c, 3, 52, 0
5, 39120, Note_on_c, 3, 52, 95
5, 39168, Note_on_c, 3, 52, 0
5, 39180, Note_on_c, 3, 52, 96
5, 39228, Note_on_c, 3, 52, 0
5, 39240, Note_on_c, 3, 52, 98
5, 39288, Note_on_c, 3, 52, 0
5, 39300, Note_on_c, 3, 52, 101
5, 39348, Note_on_c, 3, 52, 0
5, 39360, Note_on_c, 3, 52, 103
5, 39408, Note_on_c, 3, 52, 0
5, 39420, Note_on_c, 3, 52, 106
5, 39468, Note_on_c, 3, 52, 0
5, 39480, Note_on_c, 3, 52, 106
5, 39528, Note_on_c, 3, 52, 0
5, 39540, Note_on_c, 3, 52, 108
5, 39588, Note_on_c, 3, 52, 0
5, 39600, Note_on_c, 3, 52, 109
5, 39648, Note_on_c, 3, 52, 0
5, 39660, Note_on_c, 3, 52, 110
5, 39708, Note_on_c, 3, 52, 0
5, 39720, Note_on_c, 3, 52, 113
5, 39768, Note_on_c, 3, 52, 0
5, 39780, Note_on_c, 3, 52, 114
5, 39828, Note_on_c, 3, 52, 0
5, 39840, Note_on_c, 3, 52, 116
5, 39888, Note_on_c, 3, 52, 0
5, 39900, Note_on_c, 3, 52, 119
5, 39948, Note_on_c, 3, 52, 0
5, 39960, Note_on_c, 3, 52, 122
5, 40008, Note_on_c, 3, 52, 0
5, 40020, Note_on_c, 3, 52, 124
5, 40068, Note_on_c, 3, 52, 0
5, 40080, Note_on_c, 3, 52, 126
5, 40128, Note_on_c, 3, 52, 0
5, 40140, Note_on_c, 3, 52, 127
5, 40188, Note_on_c, 3, 52, 0
5, 40200, Note_on_c, 3, 52, 127
5, 40248, Note_on_c, 3, 52, 0
5, 40260, Note_on_c, 3, 52, 127
5, 40308, Note_on_c, 3, 52, 0
5, 40320, Note_on_c, 3, 57, 127
5, 40545, Note_on_c, 3, 57, 0
5, 40560, Control_c, 3, 7, 66
5, 40680, Note_on_c, 3, 57, 94
5, 40680, Note_on_c, 3, 57, 94
5, 40800, Note_on_c, 3, 57, 0
5, 40800, Note_on_c, 3, 57, 0
5, 40800, Note_on_c, 3, 59, 103
5, 40800, Note_on_c, 3, 59, 103
5, 40920, Note_on_c, 3, 59, 0
5, 40920, Note_on_c, 3, 59, 0
5, 40920, Note_on_c, 3, 61, 106
5, 40920, Note_on_c, 3, 61, 106
5, 41016, Note_on_c, 3, 61, 0
5, 41040, Note_on_c, 3, 61, 0
5, 41040, Note_on_c, 3, 62, 112
5, 41040, Note_on_c, 3, 62, 112
5, 41136, Note_on_c, 3, 62, 0
5, 41160, Note_on_c, 3, 62, 0
5, 41160, Note_on_c, 3, 63, 116
5, 41160, Note_on_c, 3, 63, 116
5, 41256, Note_on_c, 3, 63, 0
5, 41280, Note_on_c, 3, 63, 0
5, 41280, Note_on_c, 3, 66, 116
5, 41280, Note_on_c, 3, 66, 116
5, 41376, Note_on_c, 3, 66, 0
5, 41400, Note_on_c, 3, 66, 0
5, 41400, Note_on_c, 3, 64, 114
5, 41400, Note_on_c, 3, 64, 114
5, 41490, Note_on_c, 3, 64, 0
5, 41496, Note_on_c, 3, 64, 0
5, 41640, Note_on_c, 3, 57, 99
5, 41640, Note_on_c, 3, 57, 99
5, 41736, Note_on_c, 3, 57, 0
5, 41760, Note_on_c, 3, 57, 0
5, 41760, Note_on_c, 3, 59, 105
5, 41760, Note_on_c, 3, 59, 105
5, 41856, Note_on_c, 3, 59, 0
5, 41880, Note_on_c, 3, 59, 0
5, 41880, Note_on_c, 3, 61, 108
5, 41880, Note_on_c, 3, 61, 108
5, 41976, Note_on_c, 3, 61, 0
5, 42000, Note_on_c, 3, 61, 0
5, 42000, Note_on_c, 3, 62, 111
5, 42000, Note_on_c, 3, 62, 111
5, 42096, Note_on_c, 3, 62, 0
5, 42120, Note_on_c, 3, 62, 0
5, 42120, Note_on_c, 3, 63, 114
5, 42120, Note_on_c, 3, 63, 114
5, 42216, Note_on_c, 3, 63, 0
5, 42240, Note_on_c, 3, 63, 0
5, 42240, Note_on_c, 3, 66, 113
5, 42240, Note_on_c, 3, 66, 113
5, 42336, Note_on_c, 3, 66, 0
5, 42360, Note_on_c, 3, 66, 0
5, 42360, Note_on_c, 3, 64, 101
5, 42360, Note_on_c, 3, 64, 101
5, 42456, Note_on_c, 3, 64, 0
5, 42456, Note_on_c, 3, 64, 0
5, 42600, Note_on_c, 3, 57, 97
5, 42600, Note_on_c, 3, 57, 97
5, 42696, Note_on_c, 3, 57, 0
5, 42720, Note_on_c, 3, 57, 0
5, 42720, Note_on_c, 3, 59, 110
5, 42720, Note_on_c, 3, 59, 110
5, 42816, Note_on_c, 3, 59, 0
5, 42840, Note_on_c, 3, 59, 0
5, 42840, Note_on_c, 3, 61, 117
5, 42840, Note_on_c, 3, 61, 117
5, 42936, Note_on_c, 3, 61, 0
5, 42960, Note_on_c, 3, 61, 0
5, 42960, Note_on_c, 3, 62, 120
5, 42960, Note_on_c, 3, 62, 120
5, 43056, Note_on_c, 3, 62, 0
5, 43080, Note_on_c, 3, 62, 0
5, 43080, Note_on_c, 3, 64, 125
5, 43080, Note_on_c, 3, 64, 125
5, 43176, Note_on_c, 3, 64, 0
5, 43200, Note_on_c, 3, 64, 0
5, 43200, Note_on_c, 3, 65, 127
5, 43200, Note_on_c, 3, 65, 127
5, 43392, Note_on_c, 3, 65, 0
5, 43440, Note_on_c, 3, 65, 0
5, 43440, Note_on_c, 3, 64, 127
5, 43440, Note_on_c, 3, 64, 127
5, 43632, Note_on_c, 3, 64, 0
5, 43680, Note_on_c, 3, 64, 0
5, 43680, Note_on_c, 3, 63, 127
5, 43680, Note_on_c, 3, 63, 127
5, 43872, Note_on_c, 3, 63, 0
5, 43920, Note_on_c, 3, 63, 0
5, 43920, Note_on_c, 3, 62, 127
5, 43920, Note_on_c, 3, 62, 127
5, 44112, Note_on_c, 3, 62, 0
5, 44160, Note_on_c, 3, 62, 0
5, 44160, Note_on_c, 3, 61, 127
5, 44160, Note_on_c, 3, 61, 127
5, 44256, Note_on_c, 3, 61, 0
5, 44256, Note_on_c, 3, 61, 0
5, 44280, Note_on_c, 3, 61, 127
5, 44280, Note_on_c, 3, 61, 127
5, 44376, Note_on_c, 3, 61, 0
5, 44376, Note_on_c, 3, 61, 0
5, 44400, Note_on_c, 3, 62, 127
5, 44400, Note_on_c, 3, 62, 127
5, 44496, Note_on_c, 3, 62, 0
5, 44496, Note_on_c, 3, 62, 0
5, 44520, Note_on_c, 3, 62, 125
5, 44520, Note_on_c, 3, 62, 125
5, 44616, Note_on_c, 3, 62, 0
5, 44616, Note_on_c, 3, 62, 0
5, 44640, Note_on_c, 3, 64, 119
5, 44640, Note_on_c, 3, 64, 119
5, 44736, Note_on_c, 3, 64, 0
5, 44736, Note_on_c, 3, 64, 0
5, 44760, Note_on_c, 3, 64, 113
5, 44760, Note_on_c, 3, 64, 113
5, 44856, Note_on_c, 3, 64, 0
5, 44856, Note_on_c, 3, 64, 0
5, 44880, Note_on_c, 3, 52, 109
5, 44880, Note_on_c, 3, 52, 109
5, 44976, Note_on_c, 3, 52, 0
5, 44976, Note_on_c, 3, 52, 0
5, 45000, Note_on_c, 3, 52, 101
5, 45000, Note_on_c, 3, 52, 101
5, 45096, Note_on_c, 3, 52, 0
5, 45096, Note_on_c, 3, 52, 0
5, 45120, Note_on_c, 3, 57, 96
5, 45120, Note_on_c, 3, 57, 96
5, 45216, Note_on_c, 3, 57, 0
5, 45216, Note_on_c, 3, 57, 0
5, 46200, Control_c, 3, 7, 96
5, 46200, Control_c, 3, 7, 96
5, 46200, Note_on_c, 3, 62, 95
5, 46200, Note_on_c, 3, 59, 95
5, 46207, Control_c, 3, 7, 95
5, 46207, Control_c, 3, 7, 95
5, 46214, Control_c, 3, 7, 94
5, 46214, Control_c, 3, 7, 94
5, 46222, Control_c, 3, 7, 93
5, 46222, Control_c, 3, 7, 93
5, 46229, Control_c, 3, 7, 92
5, 46229, Control_c, 3, 7, 92
5, 46237, Control_c, 3, 7, 91
5, 46237, Control_c, 3, 7, 91
5, 46244, Control_c, 3, 7, 90
5, 46244, Control_c, 3, 7, 90
5, 46252, Control_c, 3, 7, 89
5, 46252, Control_c, 3, 7, 89
5, 46259, Control_c, 3, 7, 88
5, 46259, Control_c, 3, 7, 88
5, 46267, Control_c, 3, 7, 87
5, 46267, Control_c, 3, 7, 87
5, 46274, Control_c, 3, 7, 86
5, 46274, Control_c, 3, 7, 86
5, 46282, Control_c, 3, 7, 85
5, 46282, Control_c, 3, 7, 85
5, 46289, Control_c, 3, 7, 84
5, 46289, Control_c, 3, 7, 84
5, 46297, Control_c, 3, 7, 83
5, 46297, Control_c, 3, 7, 83
5, 46304, Control_c, 3, 7, 82
5, 46304, Control_c, 3, 7, 82
5, 46312, Control_c, 3, 7, 81
5, 46312, Control_c, 3, 7, 81
5, 46319, Control_c, 3, 7, 80
5, 46319, Control_c, 3, 7, 80
5, 46320, Note_on_c, 3, 59, 0
5, 46320, Note_on_c, 3, 62, 0
5, 46320, Note_on_c, 3, 61, 90
5, 46320, Note_on_c, 3, 57, 90
5, 46326, Control_c, 3, 7, 79
5, 46326, Control_c, 3, 7, 79
5, 46334, Control_c, 3, 7, 78
5, 46334, Control_c, 3, 7, 78
5, 46341, Control_c, 3, 7, 77
5, 46341, Control_c, 3, 7, 77
5, 46349, Control_c, 3, 7, 76
5, 46349, Control_c, 3, 7, 76
5, 46356, Control_c, 3, 7, 75
5, 46356, Control_c, 3, 7, 75
5, 46364, Control_c, 3, 7, 74
5, 46364, Control_c, 3, 7, 74
5, 46371, Control_c, 3, 7, 73
5, 46371, Control_c, 3, 7, 73
5, 46379, Control_c, 3, 7, 72
5, 46379, Control_c, 3, 7, 72
5, 46386, Control_c, 3, 7, 71
5, 46386, Control_c, 3, 7, 71
5, 46394, Control_c, 3, 7, 70
5, 46394, Control_c, 3, 7, 70
5, 46401, Control_c, 3, 7, 69
5, 46401, Control_c, 3, 7, 69
5, 46409, Control_c, 3, 7, 68
5, 46409, Control_c, 3, 7, 68
5, 46416, Note_on_c, 3, 57, 0
5, 46416, Note_on_c, 3, 61, 0
5, 46416, Control_c, 3, 7, 67
5, 46416, Control_c, 3, 7, 67
5, 46424, Control_c, 3, 7, 66
5, 46424, Control_c, 3, 7, 66
5, 46431, Control_c, 3, 7, 65
5, 46431, Control_c, 3, 7, 65
5, 46439, Control_c, 3, 7, 64
5, 46439, Control_c, 3, 7, 64
5, 47160, Control_c, 3, 7, 96
5, 47160, Control_c, 3, 7, 96
5, 47167, Control_c, 3, 7, 95
5, 47167, Control_c, 3, 7, 95
5, 47175, Control_c, 3, 7, 94
5, 47175, Control_c, 3, 7, 94
5, 47182, Control_c, 3, 7, 93
5, 47182, Control_c, 3, 7, 93
5, 47190, Control_c, 3, 7, 92
5, 47190, Control_c, 3, 7, 92
5, 47197, Control_c, 3, 7, 91
5, 47197, Control_c, 3, 7, 91
5, 47205, Control_c, 3, 7, 90
5, 47205, Control_c, 3, 7, 90
5, 47212, Control_c, 3, 7, 89
5, 47212, Control_c, 3, 7, 89
5, 47220, Control_c, 3, 7, 88
5, 47220, Control_c, 3, 7, 88
5, 47227, Control_c, 3, 7, 87
5, 47227, Control_c, 3, 7, 87
5, 47235, Control_c, 3, 7, 86
5, 47235, Control_c, 3, 7, 86
5, 47242, Control_c, 3, 7, 85
5, 47242, Control_c, 3, 7, 85
5, 47250, Control_c, 3, 7, 84
5, 47250, Control_c, 3, 7, 84
5, 47257, Control_c, 3, 7, 83
5, 47257, Control_c, 3, 7, 83
5, 47265, Control_c, 3, 7, 82
5, 47265, Control_c, 3, 7, 82
5, 47272, Control_c, 3, 7, 81
5, 47272, Control_c, 3, 7, 81
5, 47280, Control_c, 3, 7, 80
5, 47280, Control_c, 3, 7, 80
5, 47287, Control_c, 3, 7, 79
5, 47287, Control_c, 3, 7, 79
5, 47295, Control_c, 3, 7, 78
5, 47295, Control_c, 3, 7, 78
5, 47302, Control_c, 3, 7, 77
5, 47302, Control_c, 3, 7, 77
5, 47310, Control_c, 3, 7, 76
5, 47310, Control_c, 3, 7, 76
5, 47317, Control_c, 3, 7, 75
5, 47317, Control_c, 3, 7, 75
5, 47325, Control_c, 3, 7, 74
5, 47325, Control_c, 3, 7, 74
5, 47332, Control_c, 3, 7, 73
5, 47332, Control_c, 3, 7, 73
5, 47340, Control_c, 3, 7, 72
5, 47340, Control_c, 3, 7, 72
5, 47347, Control_c, 3, 7, 71
5, 47347, Control_c, 3, 7, 71
5, 47355, Control_c, 3, 7, 70
5, 47355, Control_c, 3, 7, 70
5, 47362, Control_c, 3, 7, 69
5, 47362, Control_c, 3, 7, 69
5, 47370, Control_c, 3, 7, 68
5, 47370, Control_c, 3, 7, 68
5, 47377, Control_c, 3, 7, 67
5, 47377, Control_c, 3, 7, 67
5, 47385, Control_c, 3, 7, 66
5, 47385, Control_c, 3, 7, 66
5, 47392, Control_c, 3, 7, 65
5, 47392, Control_c, 3, 7, 65
5, 47400, Control_c, 3, 7, 64
5, 47400, Control_c, 3, 7, 64
5, 48000, Control_c, 3, 7, 86
5, 48360, Note_on_c, 3, 59, 79
5, 48480, Note_on_c, 3, 59, 0
5, 48480, Note_on_c, 3, 60, 84
5, 48600, Note_on_c, 3, 60, 0
5, 48600, Note_on_c, 3, 61, 86
5, 48720, Note_on_c, 3, 61, 0
5, 48720, Note_on_c, 3, 62, 88
5, 49080, Note_on_c, 3, 62, 0
5, 49080, Note_on_c, 3, 59, 92
5, 49176, Note_on_c, 3, 59, 0
5, 49200, Note_on_c, 3, 60, 92
5, 49260, Note_on_c, 3, 60, 0
5, 49320, Note_on_c, 3, 52, 92
5, 49380, Note_on_c, 3, 52, 0
5, 49440, Note_on_c, 3, 57, 93
5, 49500, Note_on_c, 3, 57, 0
5, 49560, Note_on_c, 3, 53, 94
5, 49620, Note_on_c, 3, 53, 0
5, 49680, Note_on_c, 3, 58, 96
5, 49680, Control_c, 3, 7, 92
5, 49740, Note_on_c, 3, 58, 0
5, 49800, Note_on_c, 3, 50, 98
5, 49860, Note_on_c, 3, 50, 0
5, 49870, Control_c, 3, 7, 91
5, 49920, Note_on_c, 3, 56, 100
5, 50010, Control_c, 3, 7, 85
5, 50040, Note_on_c, 3, 56, 0
5, 50040, Note_on_c, 3, 59, 101
5, 50130, Control_c, 3, 7, 79
5, 50136, Note_on_c, 3, 59, 0
5, 50160, Note_on_c, 3, 57, 102
5, 50220, Note_on_c, 3, 57, 0
5, 50250, Control_c, 3, 7, 77
5, 50280, Note_on_c, 3, 53, 105
5, 50340, Note_on_c, 3, 53, 0
5, 50370, Control_c, 3, 7, 71
5, 50400, Note_on_c, 3, 50, 105
5, 50460, Note_on_c, 3, 50, 0
5, 50490, Control_c, 3, 7, 69
5, 50520, Note_on_c, 3, 47, 103
5, 50580, Note_on_c, 3, 47, 0
5, 50640, Note_on_c, 3, 52, 99
5, 50650, Control_c, 3, 7, 63
5, 50700, Note_on_c, 3, 52, 0
5, 50760, Note_on_c, 3, 40, 94
5, 50820, Note_on_c, 3, 40, 0
5, 50830, Control_c, 3, 7, 61
5, 50880, Note_on_c, 3, 45, 84
5, 50976, Note_on_c, 3, 45, 0
5, 51010, Control_c, 3, 7, 59
5, 51070, Control_c, 3, 7, 58
5, 51330, Control_c, 3, 7, 84
5, 51360, Note_on_c, 3, 57, 74
5, 51720, Note_on_c, 3, 57, 0
5, 51720, Note_on_c, 3, 61, 90
5, 51816, Note_on_c, 3, 61, 0
5, 51840, Note_on_c, 3, 59, 96
5, 51840, Control_c, 3, 7, 64
5, 51840, Control_c, 3, 7, 64
5, 51869, Control_c, 3, 7, 65
5, 51869, Control_c, 3, 7, 65
5, 51899, Control_c, 3, 7, 66
5, 51899, Control_c, 3, 7, 66
5, 51929, Control_c, 3, 7, 67
5, 51929, Control_c, 3, 7, 67
5, 51959, Control_c, 3, 7, 68
5, 51959, Control_c, 3, 7, 68
5, 51960, Note_on_c, 3, 59, 0
5, 51960, Note_on_c, 3, 56, 99
5, 51989, Control_c, 3, 7, 69
5, 51989, Control_c, 3, 7, 69
5, 52019, Control_c, 3, 7, 70
5, 52019, Control_c, 3, 7, 70
5, 52049, Control_c, 3, 7, 71
5, 52049, Control_c, 3, 7, 71
5, 52079, Control_c, 3, 7, 72
5, 52079, Control_c, 3, 7, 72
5, 52080, Note_on_c, 3, 56, 0
5, 52080, Note_on_c, 3, 54, 101
5, 52109, Control_c, 3, 7, 73
5, 52109, Control_c, 3, 7, 73
5, 52139, Control_c, 3, 7, 74
5, 52139, Control_c, 3, 7, 74
5, 52169, Control_c, 3, 7, 75
5, 52169, Control_c, 3, 7, 75
5, 52199, Control_c, 3, 7, 76
5, 52199, Control_c, 3, 7, 76
5, 52200, Note_on_c, 3, 54, 0
5, 52200, Note_on_c, 3, 52, 103
5, 52229, Control_c, 3, 7, 77
5, 52229, Control_c, 3, 7, 77
5, 52259, Control_c, 3, 7, 78
5, 52259, Control_c, 3, 7, 78
5, 52289, Control_c, 3, 7, 79
5, 52289, Control_c, 3, 7, 79
5, 52319, Control_c, 3, 7, 80
5, 52319, Control_c, 3, 7, 80
5, 52320, Note_on_c, 3, 52, 0
5, 52320, Note_on_c, 3, 64, 103
5, 52349, Control_c, 3, 7, 81
5, 52349, Control_c, 3, 7, 81
5, 52379, Control_c, 3, 7, 82
5, 52379, Control_c, 3, 7, 82
5, 52409, Control_c, 3, 7, 83
5, 52409, Control_c, 3, 7, 83
5, 52416, Note_on_c, 3, 64, 0
5, 52439, Control_c, 3, 7, 84
5, 52439, Control_c, 3, 7, 84
5, 52440, Note_on_c, 3, 64, 103
5, 52469, Control_c, 3, 7, 85
5, 52469, Control_c, 3, 7, 85
5, 52499, Control_c, 3, 7, 86
5, 52499, Control_c, 3, 7, 86
5, 52529, Control_c, 3, 7, 87
5, 52529, Control_c, 3, 7, 87
5, 52536, Note_on_c, 3, 64, 0
5, 52559, Control_c, 3, 7, 88
5, 52559, Control_c, 3, 7, 88
5, 52560, Note_on_c, 3, 64, 103
5, 52589, Control_c, 3, 7, 89
5, 52589, Control_c, 3, 7, 89
5, 52619, Control_c, 3, 7, 90
5, 52619, Control_c, 3, 7, 90
5, 52649, Control_c, 3, 7, 91
5, 52649, Control_c, 3, 7, 91
5, 52656, Note_on_c, 3, 64, 0
5, 52679, Control_c, 3, 7, 92
5, 52679, Control_c, 3, 7, 92
5, 52680, Note_on_c, 3, 64, 101
5, 52709, Control_c, 3, 7, 93
5, 52709, Control_c, 3, 7, 93
5, 52739, Control_c, 3, 7, 94
5, 52739, Control_c, 3, 7, 94
5, 52769, Control_c, 3, 7, 95
5, 52769, Control_c, 3, 7, 95
5, 52776, Note_on_c, 3, 64, 0
5, 52799, Control_c, 3, 7, 96
5, 52799, Control_c, 3, 7, 96
5, 52800, Note_on_c, 3, 64, 97
5, 52800, Control_c, 3, 7, 96
5, 52800, Control_c, 3, 7, 96
5, 52814, Control_c, 3, 7, 95
5, 52814, Control_c, 3, 7, 95
5, 52829, Control_c, 3, 7, 94
5, 52829, Control_c, 3, 7, 94
5, 52844, Control_c, 3, 7, 93
5, 52844, Control_c, 3, 7, 93
5, 52859, Control_c, 3, 7, 92
5, 52859, Control_c, 3, 7, 92
5, 52874, Control_c, 3, 7, 91
5, 52874, Control_c, 3, 7, 91
5, 52889, Control_c, 3, 7, 90
5, 52889, Control_c, 3, 7, 90
5, 52904, Control_c, 3, 7, 89
5, 52904, Control_c, 3, 7, 89
5, 52919, Control_c, 3, 7, 88
5, 52919, Control_c, 3, 7, 88
5, 52934, Control_c, 3, 7, 87
5, 52934, Control_c, 3, 7, 87
5, 52949, Control_c, 3, 7, 86
5, 52949, Control_c, 3, 7, 86
5, 52964, Control_c, 3, 7, 85
5, 52964, Control_c, 3, 7, 85
5, 52979, Control_c, 3, 7, 84
5, 52979, Control_c, 3, 7, 84
5, 52994, Control_c, 3, 7, 83
5, 52994, Control_c, 3, 7, 83
5, 53009, Control_c, 3, 7, 82
5, 53009, Control_c, 3, 7, 82
5, 53024, Control_c, 3, 7, 81
5, 53024, Control_c, 3, 7, 81
5, 53039, Control_c, 3, 7, 80
5, 53039, Control_c, 3, 7, 80
5, 53040, Note_on_c, 3, 64, 0
5, 53040, Note_on_c, 3, 61, 89
5, 53054, Control_c, 3, 7, 79
5, 53054, Control_c, 3, 7, 79
5, 53069, Control_c, 3, 7, 78
5, 53069, Control_c, 3, 7, 78
5, 53084, Control_c, 3, 7, 77
5, 53084, Control_c, 3, 7, 77
5, 53099, Control_c, 3, 7, 76
5, 53099, Control_c, 3, 7, 76
5, 53114, Control_c, 3, 7, 75
5, 53114, Control_c, 3, 7, 75
5, 53129, Control_c, 3, 7, 74
5, 53129, Control_c, 3, 7, 74
5, 53136, Note_on_c, 3, 61, 0
5, 53144, Control_c, 3, 7, 73
5, 53144, Control_c, 3, 7, 73
5, 53159, Control_c, 3, 7, 72
5, 53159, Control_c, 3, 7, 72
5, 53174, Control_c, 3, 7, 71
5, 53174, Control_c, 3, 7, 71
5, 53189, Control_c, 3, 7, 70
5, 53189, Control_c, 3, 7, 70
5, 53204, Control_c, 3, 7, 69
5, 53204, Control_c, 3, 7, 69
5, 53219, Control_c, 3, 7, 68
5, 53219, Control_c, 3, 7, 68
5, 53234, Control_c, 3, 7, 67
5, 53234, Control_c, 3, 7, 67
5, 53249, Control_c, 3, 7, 66
5, 53249, Control_c, 3, 7, 66
5, 53264, Control_c, 3, 7, 65
5, 53264, Control_c, 3, 7, 65
5, 53279, Control_c, 3, 7, 64
5, 53279, Control_c, 3, 7, 64
5, 53280, Note_on_c, 3, 57, 81
5, 53568, Note_on_c, 3, 57, 0
5, 53640, Note_on_c, 3, 61, 97
5, 53736, Note_on_c, 3, 61, 0
5, 53760, Note_on_c, 3, 59, 99
5, 53760, Control_c, 3, 7, 64
5, 53760, Control_c, 3, 7, 64
5, 53789, Control_c, 3, 7, 65
5, 53789, Control_c, 3, 7, 65
5, 53819, Control_c, 3, 7, 66
5, 53819, Control_c, 3, 7, 66
5, 53849, Control_c, 3, 7, 67
5, 53849, Control_c, 3, 7, 67
5, 53856, Note_on_c, 3, 59, 0
5, 53879, Control_c, 3, 7, 68
5, 53879, Control_c, 3, 7, 68
5, 53880, Note_on_c, 3, 62, 100
5, 53909, Control_c, 3, 7, 69
5, 53909, Control_c, 3, 7, 69
5, 53939, Control_c, 3, 7, 70
5, 53939, Control_c, 3, 7, 70
5, 53969, Control_c, 3, 7, 71
5, 53969, Control_c, 3, 7, 71
5, 53976, Note_on_c, 3, 62, 0
5, 53999, Control_c, 3, 7, 72
5, 53999, Control_c, 3, 7, 72
5, 54000, Note_on_c, 3, 66, 102
5, 54029, Control_c, 3, 7, 73
5, 54029, Control_c, 3, 7, 73
5, 54059, Control_c, 3, 7, 74
5, 54059, Control_c, 3, 7, 74
5, 54089, Control_c, 3, 7, 75
5, 54089, Control_c, 3, 7, 75
5, 54096, Note_on_c, 3, 66, 0
5, 54119, Control_c, 3, 7, 76
5, 54119, Control_c, 3, 7, 76
5, 54120, Note_on_c, 3, 66, 103
5, 54149, Control_c, 3, 7, 77
5, 54149, Control_c, 3, 7, 77
5, 54179, Control_c, 3, 7, 78
5, 54179, Control_c, 3, 7, 78
5, 54209, Control_c, 3, 7, 79
5, 54209, Control_c, 3, 7, 79
5, 54216, Note_on_c, 3, 66, 0
5, 54239, Control_c, 3, 7, 80
5, 54239, Control_c, 3, 7, 80
5, 54240, Note_on_c, 3, 62, 103
5, 54269, Control_c, 3, 7, 81
5, 54269, Control_c, 3, 7, 81
5, 54299, Control_c, 3, 7, 82
5, 54299, Control_c, 3, 7, 82
5, 54329, Control_c, 3, 7, 83
5, 54329, Control_c, 3, 7, 83
5, 54336, Note_on_c, 3, 62, 0
5, 54359, Control_c, 3, 7, 84
5, 54359, Control_c, 3, 7, 84
5, 54360, Note_on_c, 3, 59, 105
5, 54389, Control_c, 3, 7, 85
5, 54389, Control_c, 3, 7, 85
5, 54419, Control_c, 3, 7, 86
5, 54419, Control_c, 3, 7, 86
5, 54449, Control_c, 3, 7, 87
5, 54449, Control_c, 3, 7, 87
5, 54456, Note_on_c, 3, 59, 0
5, 54479, Control_c, 3, 7, 88
5, 54479, Control_c, 3, 7, 88
5, 54480, Note_on_c, 3, 56, 105
5, 54509, Control_c, 3, 7, 89
5, 54509, Control_c, 3, 7, 89
5, 54539, Control_c, 3, 7, 90
5, 54539, Control_c, 3, 7, 90
5, 54569, Control_c, 3, 7, 91
5, 54569, Control_c, 3, 7, 91
5, 54576, Note_on_c, 3, 56, 0
5, 54599, Control_c, 3, 7, 92
5, 54599, Control_c, 3, 7, 92
5, 54600, Note_on_c, 3, 56, 105
5, 54629, Control_c, 3, 7, 93
5, 54629, Control_c, 3, 7, 93
5, 54659, Control_c, 3, 7, 94
5, 54659, Control_c, 3, 7, 94
5, 54689, Control_c, 3, 7, 95
5, 54689, Control_c, 3, 7, 95
5, 54696, Note_on_c, 3, 56, 0
5, 54719, Control_c, 3, 7, 96
5, 54719, Control_c, 3, 7, 96
5, 54720, Note_on_c, 3, 57, 105
5, 54720, Control_c, 3, 7, 96
5, 54720, Control_c, 3, 7, 96
5, 54734, Control_c, 3, 7, 95
5, 54734, Control_c, 3, 7, 95
5, 54749, Control_c, 3, 7, 94
5, 54749, Control_c, 3, 7, 94
5, 54764, Control_c, 3, 7, 93
5, 54764, Control_c, 3, 7, 93
5, 54779, Control_c, 3, 7, 92
5, 54779, Control_c, 3, 7, 92
5, 54794, Control_c, 3, 7, 91
5, 54794, Control_c, 3, 7, 91
5, 54809, Control_c, 3, 7, 90
5, 54809, Control_c, 3, 7, 90
5, 54816, Note_on_c, 3, 57, 0
5, 54824, Control_c, 3, 7, 89
5, 54824, Control_c, 3, 7, 89
5, 54839, Control_c, 3, 7, 88
5, 54839, Control_c, 3, 7, 88
5, 54840, Note_on_c, 3, 52, 105
5, 54854, Control_c, 3, 7, 87
5, 54854, Control_c, 3, 7, 87
5, 54869, Control_c, 3, 7, 86
5, 54869, Control_c, 3, 7, 86
5, 54884, Control_c, 3, 7, 85
5, 54884, Control_c, 3, 7, 85
5, 54899, Control_c, 3, 7, 84
5, 54899, Control_c, 3, 7, 84
5, 54914, Control_c, 3, 7, 83
5, 54914, Control_c, 3, 7, 83
5, 54929, Control_c, 3, 7, 82
5, 54929, Control_c, 3, 7, 82
5, 54936, Note_on_c, 3, 52, 0
5, 54944, Control_c, 3, 7, 81
5, 54944, Control_c, 3, 7, 81
5, 54959, Control_c, 3, 7, 80
5, 54959, Control_c, 3, 7, 80
5, 54960, Note_on_c, 3, 49, 99
5, 54974, Control_c, 3, 7, 79
5, 54974, Control_c, 3, 7, 79
5, 54989, Control_c, 3, 7, 78
5, 54989, Control_c, 3, 7, 78
5, 55004, Control_c, 3, 7, 77
5, 55004, Control_c, 3, 7, 77
5, 55019, Control_c, 3, 7, 76
5, 55019, Control_c, 3, 7, 76
5, 55034, Control_c, 3, 7, 75
5, 55034, Control_c, 3, 7, 75
5, 55049, Control_c, 3, 7, 74
5, 55049, Control_c, 3, 7, 74
5, 55056, Note_on_c, 3, 49, 0
5, 55064, Control_c, 3, 7, 73
5, 55064, Control_c, 3, 7, 73
5, 55079, Control_c, 3, 7, 72
5, 55079, Control_c, 3, 7, 72
5, 55080, Note_on_c, 3, 49, 93
5, 55094, Control_c, 3, 7, 71
5, 55094, Control_c, 3, 7, 71
5, 55109, Control_c, 3, 7, 70
5, 55109, Control_c, 3, 7, 70
5, 55124, Control_c, 3, 7, 69
5, 55124, Control_c, 3, 7, 69
5, 55139, Control_c, 3, 7, 68
5, 55139, Control_c, 3, 7, 68
5, 55154, Control_c, 3, 7, 67
5, 55154, Control_c, 3, 7, 67
5, 55169, Control_c, 3, 7, 66
5, 55169, Control_c, 3, 7, 66
5, 55176, Note_on_c, 3, 49, 0
5, 55184, Control_c, 3, 7, 65
5, 55184, Control_c, 3, 7, 65
5, 55199, Control_c, 3, 7, 64
5, 55199, Control_c, 3, 7, 64
5, 55200, Note_on_c, 3, 57, 86
5, 55488, Note_on_c, 3, 57, 0
5, 55560, Note_on_c, 3, 61, 77
5, 55656, Note_on_c, 3, 61, 0
5, 55680, Note_on_c, 3, 59, 78
5, 55680, Control_c, 3, 7, 64
5, 55680, Control_c, 3, 7, 64
5, 55709, Control_c, 3, 7, 65
5, 55709, Control_c, 3, 7, 65
5, 55739, Control_c, 3, 7, 66
5, 55739, Control_c, 3, 7, 66
5, 55769, Control_c, 3, 7, 67
5, 55769, Control_c, 3, 7, 67
5, 55776, Note_on_c, 3, 59, 0
5, 55799, Control_c, 3, 7, 68
5, 55799, Control_c, 3, 7, 68
5, 55800, Note_on_c, 3, 56, 78
5, 55829, Control_c, 3, 7, 69
5, 55829, Control_c, 3, 7, 69
5, 55859, Control_c, 3, 7, 70
5, 55859, Control_c, 3, 7, 70
5, 55889, Control_c, 3, 7, 71
5, 55889, Control_c, 3, 7, 71
5, 55896, Note_on_c, 3, 56, 0
5, 55919, Control_c, 3, 7, 72
5, 55919, Control_c, 3, 7, 72
5, 55920, Note_on_c, 3, 54, 78
5, 55949, Control_c, 3, 7, 73
5, 55949, Control_c, 3, 7, 73
5, 55979, Control_c, 3, 7, 74
5, 55979, Control_c, 3, 7, 74
5, 56009, Control_c, 3, 7, 75
5, 56009, Control_c, 3, 7, 75
5, 56016, Note_on_c, 3, 54, 0
5, 56039, Control_c, 3, 7, 76
5, 56039, Control_c, 3, 7, 76
5, 56040, Note_on_c, 3, 52, 89
5, 56069, Control_c, 3, 7, 77
5, 56069, Control_c, 3, 7, 77
5, 56099, Control_c, 3, 7, 78
5, 56099, Control_c, 3, 7, 78
5, 56129, Control_c, 3, 7, 79
5, 56129, Control_c, 3, 7, 79
5, 56136, Note_on_c, 3, 52, 0
5, 56159, Control_c, 3, 7, 80
5, 56159, Control_c, 3, 7, 80
5, 56160, Note_on_c, 3, 64, 89
5, 56189, Control_c, 3, 7, 81
5, 56189, Control_c, 3, 7, 81
5, 56219, Control_c, 3, 7, 82
5, 56219, Control_c, 3, 7, 82
5, 56249, Control_c, 3, 7, 83
5, 56249, Control_c, 3, 7, 83
5, 56256, Note_on_c, 3, 64, 0
5, 56279, Control_c, 3, 7, 84
5, 56279, Control_c, 3, 7, 84
5, 56280, Note_on_c, 3, 64, 93
5, 56309, Control_c, 3, 7, 85
5, 56309, Control_c, 3, 7, 85
5, 56339, Control_c, 3, 7, 86
5, 56339, Control_c, 3, 7, 86
5, 56369, Control_c, 3, 7, 87
5, 56369, Control_c, 3, 7, 87
5, 56376, Note_on_c, 3, 64, 0
5, 56399, Control_c, 3, 7, 88
5, 56399, Control_c, 3, 7, 88
5, 56400, Note_on_c, 3, 64, 95
5, 56429, Control_c, 3, 7, 89
5, 56429, Control_c, 3, 7, 89
5, 56459, Control_c, 3, 7, 90
5, 56459, Control_c, 3, 7, 90
5, 56489, Control_c, 3, 7, 91
5, 56489, Control_c, 3, 7, 91
5, 56496, Note_on_c, 3, 64, 0
5, 56519, Control_c, 3, 7, 92
5, 56519, Control_c, 3, 7, 92
5, 56520, Note_on_c, 3, 64, 103
5, 56549, Control_c, 3, 7, 93
5, 56549, Control_c, 3, 7, 93
5, 56579, Control_c, 3, 7, 94
5, 56579, Control_c, 3, 7, 94
5, 56609, Control_c, 3, 7, 95
5, 56609, Control_c, 3, 7, 95
5, 56616, Note_on_c, 3, 64, 0
5, 56639, Control_c, 3, 7, 96
5, 56639, Control_c, 3, 7, 96
5, 56640, Note_on_c, 3, 64, 107
5, 56640, Control_c, 3, 7, 96
5, 56640, Control_c, 3, 7, 96
5, 56654, Control_c, 3, 7, 95
5, 56654, Control_c, 3, 7, 95
5, 56669, Control_c, 3, 7, 94
5, 56669, Control_c, 3, 7, 94
5, 56684, Control_c, 3, 7, 93
5, 56684, Control_c, 3, 7, 93
5, 56699, Control_c, 3, 7, 92
5, 56699, Control_c, 3, 7, 92
5, 56714, Control_c, 3, 7, 91
5, 56714, Control_c, 3, 7, 91
5, 56729, Control_c, 3, 7, 90
5, 56729, Control_c, 3, 7, 90
5, 56744, Control_c, 3, 7, 89
5, 56744, Control_c, 3, 7, 89
5, 56759, Control_c, 3, 7, 88
5, 56759, Control_c, 3, 7, 88
5, 56774, Control_c, 3, 7, 87
5, 56774, Control_c, 3, 7, 87
5, 56789, Control_c, 3, 7, 86
5, 56789, Control_c, 3, 7, 86
5, 56804, Control_c, 3, 7, 85
5, 56804, Control_c, 3, 7, 85
5, 56819, Control_c, 3, 7, 84
5, 56819, Control_c, 3, 7, 84
5, 56834, Control_c, 3, 7, 83
5, 56834, Control_c, 3, 7, 83
5, 56849, Control_c, 3, 7, 82
5, 56849, Control_c, 3, 7, 82
5, 56864, Control_c, 3, 7, 81
5, 56864, Control_c, 3, 7, 81
5, 56865, Note_on_c, 3, 64, 0
5, 56879, Control_c, 3, 7, 80
5, 56879, Control_c, 3, 7, 80
5, 56880, Note_on_c, 3, 61, 112
5, 56894, Control_c, 3, 7, 79
5, 56894, Control_c, 3, 7, 79
5, 56909, Control_c, 3, 7, 78
5, 56909, Control_c, 3, 7, 78
5, 56924, Control_c, 3, 7, 77
5, 56924, Control_c, 3, 7, 77
5, 56939, Control_c, 3, 7, 76
5, 56939, Control_c, 3, 7, 76
5, 56954, Control_c, 3, 7, 75
5, 56954, Control_c, 3, 7, 75
5, 56969, Control_c, 3, 7, 74
5, 56969, Control_c, 3, 7, 74
5, 56976, Note_on_c, 3, 61, 0
5, 56984, Control_c, 3, 7, 73
5, 56984, Control_c, 3, 7, 73
5, 56999, Control_c, 3, 7, 72
5, 56999, Control_c, 3, 7, 72
5, 57014, Control_c, 3, 7, 71
5, 57014, Control_c, 3, 7, 71
5, 57029, Control_c, 3, 7, 70
5, 57029, Control_c, 3, 7, 70
5, 57044, Control_c, 3, 7, 69
5, 57044, Control_c, 3, 7, 69
5, 57059, Control_c, 3, 7, 68
5, 57059, Control_c, 3, 7, 68
5, 57074, Control_c, 3, 7, 67
5, 57074, Control_c, 3, 7, 67
5, 57089, Control_c, 3, 7, 66
5, 57089, Control_c, 3, 7, 66
5, 57104, Control_c, 3, 7, 65
5, 57104, Control_c, 3, 7, 65
5, 57119, Control_c, 3, 7, 64
5, 57119, Control_c, 3, 7, 64
5, 57120, Note_on_c, 3, 57, 110
5, 57408, Note_on_c, 3, 57, 0
5, 57480, Note_on_c, 3, 61, 92
5, 57576, Note_on_c, 3, 61, 0
5, 57600, Note_on_c, 3, 59, 94
5, 57600, Control_c, 3, 7, 64
5, 57600, Control_c, 3, 7, 64
5, 57629, Control_c, 3, 7, 65
5, 57629, Control_c, 3, 7, 65
5, 57659, Control_c, 3, 7, 66
5, 57659, Control_c, 3, 7, 66
5, 57689, Control_c, 3, 7, 67
5, 57689, Control_c, 3, 7, 67
5, 57696, Note_on_c, 3, 59, 0
5, 57719, Control_c, 3, 7, 68
5, 57719, Control_c, 3, 7, 68
5, 57720, Note_on_c, 3, 62, 96
5, 57749, Control_c, 3, 7, 69
5, 57749, Control_c, 3, 7, 69
5, 57779, Control_c, 3, 7, 70
5, 57779, Control_c, 3, 7, 70
5, 57809, Control_c, 3, 7, 71
5, 57809, Control_c, 3, 7, 71
5, 57816, Note_on_c, 3, 62, 0
5, 57839, Control_c, 3, 7, 72
5, 57839, Control_c, 3, 7, 72
5, 57840, Note_on_c, 3, 66, 96
5, 57869, Control_c, 3, 7, 73
5, 57869, Control_c, 3, 7, 73
5, 57899, Control_c, 3, 7, 74
5, 57899, Control_c, 3, 7, 74
5, 57929, Control_c, 3, 7, 75
5, 57929, Control_c, 3, 7, 75
5, 57936, Note_on_c, 3, 66, 0
5, 57959, Control_c, 3, 7, 76
5, 57959, Control_c, 3, 7, 76
5, 57960, Note_on_c, 3, 66, 96
5, 57989, Control_c, 3, 7, 77
5, 57989, Control_c, 3, 7, 77
5, 58019, Control_c, 3, 7, 78
5, 58019, Control_c, 3, 7, 78
5, 58049, Control_c, 3, 7, 79
5, 58049, Control_c, 3, 7, 79
5, 58056, Note_on_c, 3, 66, 0
5, 58079, Control_c, 3, 7, 80
5, 58079, Control_c, 3, 7, 80
5, 58080, Note_on_c, 3, 62, 96
5, 58109, Control_c, 3, 7, 81
5, 58109, Control_c, 3, 7, 81
5, 58139, Control_c, 3, 7, 82
5, 58139, Control_c, 3, 7, 82
5, 58169, Control_c, 3, 7, 83
5, 58169, Control_c, 3, 7, 83
5, 58176, Note_on_c, 3, 62, 0
5, 58199, Control_c, 3, 7, 84
5, 58199, Control_c, 3, 7, 84
5, 58200, Note_on_c, 3, 59, 96
5, 58229, Control_c, 3, 7, 85
5, 58229, Control_c, 3, 7, 85
5, 58259, Control_c, 3, 7, 86
5, 58259, Control_c, 3, 7, 86
5, 58289, Control_c, 3, 7, 87
5, 58289, Control_c, 3, 7, 87
5, 58296, Note_on_c, 3, 59, 0
5, 58319, Control_c, 3, 7, 88
5, 58319, Control_c, 3, 7, 88
5, 58320, Note_on_c, 3, 56, 97
5, 58349, Control_c, 3, 7, 89
5, 58349, Control_c, 3, 7, 89
5, 58379, Control_c, 3, 7, 90
5, 58379, Control_c, 3, 7, 90
5, 58409, Control_c, 3, 7, 91
5, 58409, Control_c, 3, 7, 91
5, 58416, Note_on_c, 3, 56, 0
5, 58439, Control_c, 3, 7, 92
5, 58439, Control_c, 3, 7, 92
5, 58440, Note_on_c, 3, 56, 99
5, 58469, Control_c, 3, 7, 93
5, 58469, Control_c, 3, 7, 93
5, 58499, Control_c, 3, 7, 94
5, 58499, Control_c, 3, 7, 94
5, 58529, Control_c, 3, 7, 95
5, 58529, Control_c, 3, 7, 95
5, 58536, Note_on_c, 3, 56, 0
5, 58559, Control_c, 3, 7, 96
5, 58559, Control_c, 3, 7, 96
5, 58560, Note_on_c, 3, 45, 123
5, 58560, Note_on_c, 3, 57, 123
5, 58560, Control_c, 3, 7, 96
5, 58560, Control_c, 3, 7, 96
5, 58574, Control_c, 3, 7, 95
5, 58574, Control_c, 3, 7, 95
5, 58589, Control_c, 3, 7, 94
5, 58589, Control_c, 3, 7, 94
5, 58604, Control_c, 3, 7, 93
5, 58604, Control_c, 3, 7, 93
5, 58619, Control_c, 3, 7, 92
5, 58619, Control_c, 3, 7, 92
5, 58634, Control_c, 3, 7, 91
5, 58634, Control_c, 3, 7, 91
5, 58649, Control_c, 3, 7, 90
5, 58649, Control_c, 3, 7, 90
5, 58664, Control_c, 3, 7, 89
5, 58664, Control_c, 3, 7, 89
5, 58679, Control_c, 3, 7, 88
5, 58679, Control_c, 3, 7, 88
5, 58694, Control_c, 3, 7, 87
5, 58694, Control_c, 3, 7, 87
5, 58709, Control_c, 3, 7, 86
5, 58709, Control_c, 3, 7, 86
5, 58724, Control_c, 3, 7, 85
5, 58724, Control_c, 3, 7, 85
5, 58739, Control_c, 3, 7, 84
5, 58739, Control_c, 3, 7, 84
5, 58752, Note_on_c, 3, 57, 0
5, 58752, Note_on_c, 3, 45, 0
5, 58754, Control_c, 3, 7, 83
5, 58754, Control_c, 3, 7, 83
5, 58769, Control_c, 3, 7, 82
5, 58769, Control_c, 3, 7, 82
5, 58784, Control_c, 3, 7, 81
5, 58784, Control_c, 3, 7, 81
5, 58799, Control_c, 3, 7, 80
5, 58799, Control_c, 3, 7, 80
5, 58814, Control_c, 3, 7, 79
5, 58814, Control_c, 3, 7, 79
5, 58829, Control_c, 3, 7, 78
5, 58829, Control_c, 3, 7, 78
5, 58844, Control_c, 3, 7, 77
5, 58844, Control_c, 3, 7, 77
5, 58859, Control_c, 3, 7, 76
5, 58859, Control_c, 3, 7, 76
5, 58874, Control_c, 3, 7, 75
5, 58874, Control_c, 3, 7, 75
5, 58889, Control_c, 3, 7, 74
5, 58889, Control_c, 3, 7, 74
5, 58904, Control_c, 3, 7, 73
5, 58904, Control_c, 3, 7, 73
5, 58919, Control_c, 3, 7, 72
5, 58919, Control_c, 3, 7, 72
5, 58934, Control_c, 3, 7, 71
5, 58934, Control_c, 3, 7, 71
5, 58949, Control_c, 3, 7, 70
5, 58949, Control_c, 3, 7, 70
5, 58964, Control_c, 3, 7, 69
5, 58964, Control_c, 3, 7, 69
5, 58979, Control_c, 3, 7, 68
5, 58979, Control_c, 3, 7, 68
5, 58994, Control_c, 3, 7, 67
5, 58994, Control_c, 3, 7, 67
5, 59009, Control_c, 3, 7, 66
5, 59009, Control_c, 3, 7, 66
5, 59024, Control_c, 3, 7, 65
5, 59024, Control_c, 3, 7, 65
5, 59039, Control_c, 3, 7, 64
5, 59039, Control_c, 3, 7, 64
5, 59520, Note_on_c, 3, 45, 123
5, 59520, Note_on_c, 3, 45, 123
5, 59712, Note_on_c, 3, 45, 0
5, 59712, Note_on_c, 3, 45, 0
5, 60480, Note_on_c, 3, 45, 123
5, 60480, Note_on_c, 3, 45, 123
5, 60672, Note_on_c, 3, 45, 0
5, 60672, Note_on_c, 3, 45, 0
5, 61440, Note_on_c, 3, 45, 123
5, 61440, Note_on_c, 3, 45, 123
5, 61632, Note_on_c, 3, 45, 0
5, 61632, Note_on_c, 3, 45, 0
5, 62400, Note_on_c, 3, 45, 123
5, 62592, Note_on_c, 3, 45, 0
5, 62880, Note_on_c, 3, 45, 125
5, 63072, Note_on_c, 3, 45, 0
5, 63360, Note_on_c, 3, 45, 96
5, 63408, Note_on_c, 3, 45, 0
5, 63420, Note_on_c, 3, 47, 99
5, 63468, Note_on_c, 3, 47, 0
5, 63480, Note_on_c, 3, 49, 101
5, 63528, Note_on_c, 3, 49, 0
5, 63540, Note_on_c, 3, 50, 105
5, 63588, Note_on_c, 3, 50, 0
5, 63600, Note_on_c, 3, 52, 109
5, 63648, Note_on_c, 3, 52, 0
5, 63660, Note_on_c, 3, 54, 112
5, 63708, Note_on_c, 3, 54, 0
5, 63720, Note_on_c, 3, 55, 115
5, 63768, Note_on_c, 3, 55, 0
5, 63780, Note_on_c, 3, 54, 119
5, 63828, Note_on_c, 3, 54, 0
5, 63840, Note_on_c, 3, 55, 119
5, 63888, Note_on_c, 3, 55, 0
5, 63900, Note_on_c, 3, 54, 119
5, 63948, Note_on_c, 3, 54, 0
5, 63960, Note_on_c, 3, 52, 116
5, 64008, Note_on_c, 3, 52, 0
5, 64020, Note_on_c, 3, 54, 113
5, 64068, Note_on_c, 3, 54, 0
5, 64080, Note_on_c, 3, 52, 109
5, 64128, Note_on_c, 3, 52, 0
5, 64140, Note_on_c, 3, 50, 105
5, 64188, Note_on_c, 3, 50, 0
5, 64200, Note_on_c, 3, 49, 102
5, 64248, Note_on_c, 3, 49, 0
5, 64260, Note_on_c, 3, 47, 97
5, 64308, Note_on_c, 3, 47, 0
5, 64320, Note_on_c, 3, 45, 93
5, 64410, Control_c, 3, 7, 72
5, 64416, Note_on_c, 3, 45, 0
5, 64506, Control_c, 3, 7, 71
5, 64602, Control_c, 3, 7, 70
5, 64698, Control_c, 3, 7, 69
5, 64794, Control_c, 3, 7, 68
5, 64891, Control_c, 3, 7, 67
5, 64987, Control_c, 3, 7, 66
5, 65083, Control_c, 3, 7, 65
5, 65179, Control_c, 3, 7, 64
5, 65275, Control_c, 3, 7, 63
5, 65372, Control_c, 3, 7, 62
5, 65468, Control_c, 3, 7, 61
5, 65564, Control_c, 3, 7, 60
5, 65660, Control_c, 3, 7, 59
5, 65756, Control_c, 3, 7, 58
5, 65853, Control_c, 3, 7, 57
5, 65949, Control_c, 3, 7, 56
5, 66045, Control_c, 3, 7, 55
5, 66141, Control_c, 3, 7, 54
5, 66237, Control_c, 3, 7, 53
5, 66240, Note_on_c, 3, 50, 80
5, 66300, Note_on_c, 3, 50, 0
5, 66300, Note_on_c, 3, 49, 82
5, 66360, Note_on_c, 3, 50, 85
5, 66362, Note_on_c, 3, 49, 0
5, 66420, Note_on_c, 3, 49, 90
5, 66422, Note_on_c, 3, 50, 0
5, 66480, Note_on_c, 3, 50, 93
5, 66482, Note_on_c, 3, 49, 0
5, 66648, Note_on_c, 3, 50, 0
5, 66720, Note_on_c, 3, 50, 78
5, 66720, Control_c, 3, 7, 48
5, 66737, Control_c, 3, 7, 49
5, 66754, Control_c, 3, 7, 50
5, 66771, Control_c, 3, 7, 51
5, 66786, Note_on_c, 3, 49, 86
5, 66788, Control_c, 3, 7, 52
5, 66789, Note_on_c, 3, 50, 0
5, 66805, Control_c, 3, 7, 53
5, 66822, Control_c, 3, 7, 54
5, 66839, Control_c, 3, 7, 55
5, 66840, Note_on_c, 3, 50, 92
5, 66855, Note_on_c, 3, 49, 0
5, 66856, Control_c, 3, 7, 56
5, 66873, Control_c, 3, 7, 57
5, 66891, Control_c, 3, 7, 58
5, 66900, Note_on_c, 3, 52, 96
5, 66908, Control_c, 3, 7, 59
5, 66909, Note_on_c, 3, 50, 0
5, 66925, Control_c, 3, 7, 60
5, 66942, Control_c, 3, 7, 61
5, 66959, Control_c, 3, 7, 62
5, 66960, Note_on_c, 3, 54, 99
5, 66969, Note_on_c, 3, 52, 0
5, 66976, Control_c, 3, 7, 63
5, 66993, Control_c, 3, 7, 64
5, 67010, Control_c, 3, 7, 65
5, 67020, Note_on_c, 3, 52, 101
5, 67027, Control_c, 3, 7, 66
5, 67029, Note_on_c, 3, 54, 0
5, 67045, Control_c, 3, 7, 67
5, 67062, Control_c, 3, 7, 68
5, 67079, Control_c, 3, 7, 69
5, 67080, Note_on_c, 3, 54, 103
5, 67089, Note_on_c, 3, 52, 0
5, 67096, Control_c, 3, 7, 70
5, 67113, Control_c, 3, 7, 71
5, 67130, Control_c, 3, 7, 72
5, 67140, Note_on_c, 3, 55, 105
5, 67147, Control_c, 3, 7, 73
5, 67149, Note_on_c, 3, 54, 0
5, 67164, Control_c, 3, 7, 74
5, 67181, Control_c, 3, 7, 75
5, 67199, Control_c, 3, 7, 76
5, 67200, Note_on_c, 3, 57, 105
5, 67200, Control_c, 3, 7, 76
5, 67208, Control_c, 3, 7, 75
5, 67209, Note_on_c, 3, 55, 0
5, 67217, Control_c, 3, 7, 74
5, 67225, Control_c, 3, 7, 73
5, 67234, Control_c, 3, 7, 72
5, 67242, Control_c, 3, 7, 71
5, 67251, Control_c, 3, 7, 70
5, 67259, Control_c, 3, 7, 69
5, 67260, Note_on_c, 3, 56, 105
5, 67260, Control_c, 3, 7, 66
5, 67269, Note_on_c, 3, 57, 0
5, 67290, Control_c, 3, 7, 65
5, 67320, Note_on_c, 3, 57, 105
5, 67320, Control_c, 3, 7, 63
5, 67329, Note_on_c, 3, 56, 0
5, 67340, Control_c, 3, 7, 62
5, 67380, Note_on_c, 3, 56, 101
5, 67380, Control_c, 3, 7, 61
5, 67389, Note_on_c, 3, 57, 0
5, 67430, Control_c, 3, 7, 60
5, 67440, Note_on_c, 3, 57, 97
5, 67449, Note_on_c, 3, 56, 0
5, 67470, Control_c, 3, 7, 59
5, 67550, Control_c, 3, 7, 58
5, 67608, Note_on_c, 3, 57, 0
5, 67680, Note_on_c, 3, 57, 82
5, 67720, Control_c, 3, 7, 59
5, 67740, Note_on_c, 3, 56, 85
5, 67749, Note_on_c, 3, 57, 0
5, 67760, Control_c, 3, 7, 60
5, 67800, Note_on_c, 3, 57, 88
5, 67809, Note_on_c, 3, 56, 0
5, 67810, Control_c, 3, 7, 61
5, 67840, Control_c, 3, 7, 62
5, 67860, Note_on_c, 3, 58, 92
5, 67869, Note_on_c, 3, 57, 0
5, 67890, Control_c, 3, 7, 63
5, 67919, Control_c, 3, 7, 64
5, 67920, Note_on_c, 3, 59, 94
5, 67929, Note_on_c, 3, 58, 0
5, 67934, Control_c, 3, 7, 65
5, 67949, Control_c, 3, 7, 66
5, 67964, Control_c, 3, 7, 67
5, 67979, Control_c, 3, 7, 68
5, 67980, Note_on_c, 3, 57, 94
5, 67989, Note_on_c, 3, 59, 0
5, 67994, Control_c, 3, 7, 69
5, 68009, Control_c, 3, 7, 70
5, 68024, Control_c, 3, 7, 71
5, 68039, Control_c, 3, 7, 72
5, 68040, Note_on_c, 3, 55, 94
5, 68040, Control_c, 3, 7, 73
5, 68049, Note_on_c, 3, 57, 0
5, 68070, Control_c, 3, 7, 76
5, 68090, Control_c, 3, 7, 77
5, 68100, Note_on_c, 3, 54, 91
5, 68109, Note_on_c, 3, 55, 0
5, 68110, Control_c, 3, 7, 79
5, 68130, Control_c, 3, 7, 81
5, 68150, Control_c, 3, 7, 84
5, 68160, Note_on_c, 3, 52, 85
5, 68169, Note_on_c, 3, 54, 0
5, 68180, Control_c, 3, 7, 85
5, 68210, Control_c, 3, 7, 87
5, 68220, Note_on_c, 3, 51, 85
5, 68229, Note_on_c, 3, 52, 0
5, 68230, Control_c, 3, 7, 89
5, 68260, Control_c, 3, 7, 90
5, 68270, Control_c, 3, 7, 91
5, 68280, Note_on_c, 3, 52, 85
5, 68289, Note_on_c, 3, 51, 0
5, 68290, Control_c, 3, 7, 92
5, 68330, Control_c, 3, 7, 93
5, 68340, Note_on_c, 3, 54, 86
5, 68340, Control_c, 3, 7, 94
5, 68349, Note_on_c, 3, 52, 0
5, 68400, Note_on_c, 3, 55, 92
5, 68409, Note_on_c, 3, 54, 0
5, 68420, Control_c, 3, 7, 95
5, 68460, Note_on_c, 3, 54, 99
5, 68469, Note_on_c, 3, 55, 0
5, 68490, Control_c, 3, 7, 93
5, 68510, Control_c, 3, 7, 92
5, 68520, Note_on_c, 3, 52, 100
5, 68529, Note_on_c, 3, 54, 0
5, 68530, Control_c, 3, 7, 91
5, 68560, Control_c, 3, 7, 91
5, 68580, Note_on_c, 3, 50, 100
5, 68589, Note_on_c, 3, 52, 0
5, 68610, Control_c, 3, 7, 90
5, 68620, Control_c, 3, 7, 89
5, 68630, Control_c, 3, 7, 88
5, 68640, Note_on_c, 3, 49, 99
5, 68640, Control_c, 3, 7, 87
5, 68649, Note_on_c, 3, 50, 0
5, 68670, Control_c, 3, 7, 86
5, 68700, Note_on_c, 3, 50, 96
5, 68700, Control_c, 3, 7, 85
5, 68709, Note_on_c, 3, 49, 0
5, 68710, Control_c, 3, 7, 84
5, 68720, Control_c, 3, 7, 83
5, 68750, Control_c, 3, 7, 81
5, 68760, Note_on_c, 3, 52, 95
5, 68769, Note_on_c, 3, 50, 0
5, 68770, Control_c, 3, 7, 80
5, 68780, Control_c, 3, 7, 79
5, 68799, Control_c, 3, 7, 80
5, 68820, Note_on_c, 3, 50, 95
5, 68824, Control_c, 3, 7, 79
5, 68829, Note_on_c, 3, 52, 0
5, 68849, Control_c, 3, 7, 78
5, 68874, Control_c, 3, 7, 77
5, 68880, Note_on_c, 3, 49, 95
5, 68889, Note_on_c, 3, 50, 0
5, 68899, Control_c, 3, 7, 76
5, 68924, Control_c, 3, 7, 75
5, 68940, Note_on_c, 3, 45, 93
5, 68949, Note_on_c, 3, 49, 0
5, 68949, Control_c, 3, 7, 74
5, 68974, Control_c, 3, 7, 73
5, 68999, Control_c, 3, 7, 72
5, 69000, Note_on_c, 3, 47, 90
5, 69009, Note_on_c, 3, 45, 0
5, 69024, Control_c, 3, 7, 71
5, 69049, Control_c, 3, 7, 70
5, 69060, Note_on_c, 3, 49, 89
5, 69069, Note_on_c, 3, 47, 0
5, 69074, Control_c, 3, 7, 69
5, 69099, Control_c, 3, 7, 68
5, 69120, Note_on_c, 3, 50, 95
5, 69124, Control_c, 3, 7, 67
5, 69129, Note_on_c, 3, 49, 0
5, 69149, Control_c, 3, 7, 66
5, 69174, Control_c, 3, 7, 65
5, 69199, Control_c, 3, 7, 64
5, 69224, Control_c, 3, 7, 63
5, 69249, Control_c, 3, 7, 62
5, 69274, Control_c, 3, 7, 61
5, 69299, Control_c, 3, 7, 60
5, 69324, Control_c, 3, 7, 59
5, 69349, Control_c, 3, 7, 58
5, 69360, Note_on_c, 3, 50, 0
5, 69374, Control_c, 3, 7, 57
5, 69399, Control_c, 3, 7, 56
5, 69424, Control_c, 3, 7, 55
5, 69449, Control_c, 3, 7, 54
5, 69474, Control_c, 3, 7, 53
5, 69499, Control_c, 3, 7, 52
5, 69524, Control_c, 3, 7, 51
5, 69549, Control_c, 3, 7, 50
5, 69574, Control_c, 3, 7, 49
5, 69599, Control_c, 3, 7, 48
5, 69600, Note_on_c, 3, 50, 96
5, 69840, Note_on_c, 3, 50, 0
5, 70560, Note_on_c, 3, 50, 96
5, 70800, Note_on_c, 3, 50, 0
5, 71520, Note_on_c, 3, 50, 96
5, 71520, Control_c, 3, 7, 126
5, 71577, Note_on_c, 3, 50, 0
5, 71580, Note_on_c, 3, 50, 96
5, 71632, Note_on_c, 3, 50, 0
5, 71640, Note_on_c, 3, 50, 96
5, 71692, Note_on_c, 3, 50, 0
5, 71700, Note_on_c, 3, 50, 96
5, 71752, Note_on_c, 3, 50, 0
5, 71760, Note_on_c, 3, 50, 96
5, 71812, Note_on_c, 3, 50, 0
5, 71820, Note_on_c, 3, 50, 96
5, 71872, Note_on_c, 3, 50, 0
5, 71880, Note_on_c, 3, 50, 96
5, 71932, Note_on_c, 3, 50, 0
5, 71940, Note_on_c, 3, 50, 96
5, 71992, Note_on_c, 3, 50, 0
5, 72000, Note_on_c, 3, 50, 96
5, 72057, Note_on_c, 3, 50, 0
5, 72060, Note_on_c, 3, 50, 96
5, 72112, Note_on_c, 3, 50, 0
5, 72120, Note_on_c, 3, 50, 96
5, 72172, Note_on_c, 3, 50, 0
5, 72180, Note_on_c, 3, 50, 96
5, 72232, Note_on_c, 3, 50, 0
5, 72240, Note_on_c, 3, 50, 96
5, 72292, Note_on_c, 3, 50, 0
5, 72300, Note_on_c, 3, 50, 96
5, 72352, Note_on_c, 3, 50, 0
5, 72360, Note_on_c, 3, 50, 96
5, 72412, Note_on_c, 3, 50, 0
5, 72420, Note_on_c, 3, 50, 96
5, 72472, Note_on_c, 3, 50, 0
5, 72480, Note_on_c, 3, 50, 96
5, 72537, Note_on_c, 3, 50, 0
5, 72540, Note_on_c, 3, 50, 96
5, 72592, Note_on_c, 3, 50, 0
5, 72600, Note_on_c, 3, 50, 96
5, 72652, Note_on_c, 3, 50, 0
5, 72660, Note_on_c, 3, 50, 96
5, 72712, Note_on_c, 3, 50, 0
5, 72720, Note_on_c, 3, 50, 96
5, 72772, Note_on_c, 3, 50, 0
5, 72780, Note_on_c, 3, 50, 96
5, 72832, Note_on_c, 3, 50, 0
5, 72840, Note_on_c, 3, 50, 96
5, 72892, Note_on_c, 3, 50, 0
5, 72900, Note_on_c, 3, 50, 96
5, 72952, Note_on_c, 3, 50, 0
5, 72960, Note_on_c, 3, 50, 96
5, 73017, Note_on_c, 3, 50, 0
5, 73020, Note_on_c, 3, 50, 96
5, 73072, Note_on_c, 3, 50, 0
5, 73080, Note_on_c, 3, 50, 96
5, 73132, Note_on_c, 3, 50, 0
5, 73140, Note_on_c, 3, 50, 96
5, 73192, Note_on_c, 3, 50, 0
5, 73200, Note_on_c, 3, 50, 96
5, 73252, Note_on_c, 3, 50, 0
5, 73260, Note_on_c, 3, 50, 96
5, 73312, Note_on_c, 3, 50, 0
5, 73320, Note_on_c, 3, 50, 96
5, 73372, Note_on_c, 3, 50, 0
5, 73380, Note_on_c, 3, 50, 96
5, 73432, Note_on_c, 3, 50, 0
5, 73440, Note_on_c, 3, 50, 96
5, 73680, Note_on_c, 3, 50, 0
5, 73680, Note_on_c, 3, 55, 96
5, 73884, Note_on_c, 3, 55, 0
5, 73920, Note_on_c, 3, 57, 96
5, 74124, Note_on_c, 3, 57, 0
5, 74160, Note_on_c, 3, 45, 96
5, 74364, Note_on_c, 3, 45, 0
5, 74390, Control_c, 3, 7, 64
5, 74400, Note_on_c, 3, 50, 96
5, 74400, Control_c, 3, 7, 48
5, 74417, Control_c, 3, 7, 49
5, 74434, Control_c, 3, 7, 50
5, 74451, Control_c, 3, 7, 51
5, 74460, Note_on_c, 3, 50, 0
5, 74460, Note_on_c, 3, 49, 96
5, 74468, Control_c, 3, 7, 52
5, 74485, Control_c, 3, 7, 53
5, 74502, Control_c, 3, 7, 54
5, 74519, Control_c, 3, 7, 55
5, 74520, Note_on_c, 3, 49, 0
5, 74520, Note_on_c, 3, 50, 96
5, 74536, Control_c, 3, 7, 56
5, 74553, Control_c, 3, 7, 57
5, 74571, Control_c, 3, 7, 58
5, 74580, Note_on_c, 3, 50, 0
5, 74580, Note_on_c, 3, 49, 96
5, 74588, Control_c, 3, 7, 59
5, 74605, Control_c, 3, 7, 60
5, 74622, Control_c, 3, 7, 61
5, 74640, Note_on_c, 3, 49, 0
5, 74640, Note_on_c, 3, 50, 96
5, 74656, Control_c, 3, 7, 63
5, 74673, Control_c, 3, 7, 64
5, 74690, Control_c, 3, 7, 65
5, 74707, Control_c, 3, 7, 66
5, 74725, Control_c, 3, 7, 67
5, 74742, Control_c, 3, 7, 68
5, 74759, Control_c, 3, 7, 69
5, 74760, Note_on_c, 3, 50, 0
5, 74776, Control_c, 3, 7, 70
5, 74793, Control_c, 3, 7, 71
5, 74810, Control_c, 3, 7, 72
5, 74827, Control_c, 3, 7, 73
5, 74844, Control_c, 3, 7, 74
5, 74861, Control_c, 3, 7, 75
5, 74879, Control_c, 3, 7, 76
5, 74880, Note_on_c, 3, 50, 83
5, 74880, Control_c, 3, 7, 76
5, 74888, Control_c, 3, 7, 75
5, 74897, Control_c, 3, 7, 74
5, 74905, Control_c, 3, 7, 73
5, 74914, Control_c, 3, 7, 72
5, 74922, Control_c, 3, 7, 71
5, 74931, Control_c, 3, 7, 70
5, 74939, Control_c, 3, 7, 69
5, 74940, Note_on_c, 3, 50, 0
5, 74940, Note_on_c, 3, 49, 88
5, 74940, Control_c, 3, 7, 66
5, 74970, Control_c, 3, 7, 65
5, 75000, Note_on_c, 3, 49, 0
5, 75000, Note_on_c, 3, 50, 92
5, 75000, Control_c, 3, 7, 63
5, 75020, Control_c, 3, 7, 62
5, 75060, Note_on_c, 3, 50, 0
5, 75060, Note_on_c, 3, 52, 96
5, 75060, Control_c, 3, 7, 61
5, 75110, Control_c, 3, 7, 60
5, 75120, Note_on_c, 3, 52, 0
5, 75120, Note_on_c, 3, 54, 100
5, 75150, Control_c, 3, 7, 59
5, 75180, Note_on_c, 3, 54, 0
5, 75180, Note_on_c, 3, 52, 102
5, 75230, Control_c, 3, 7, 58
5, 75240, Note_on_c, 3, 52, 0
5, 75240, Note_on_c, 3, 54, 103
5, 75300, Note_on_c, 3, 54, 0
5, 75300, Note_on_c, 3, 56, 104
5, 75360, Note_on_c, 3, 56, 0
5, 75360, Note_on_c, 3, 57, 104
5, 75400, Control_c, 3, 7, 59
5, 75420, Note_on_c, 3, 57, 0
5, 75420, Note_on_c, 3, 56, 104
5, 75440, Control_c, 3, 7, 60
5, 75480, Note_on_c, 3, 56, 0
5, 75480, Note_on_c, 3, 57, 104
5, 75490, Control_c, 3, 7, 61
5, 75520, Control_c, 3, 7, 62
5, 75540, Note_on_c, 3, 57, 0
5, 75540, Note_on_c, 3, 56, 102
5, 75570, Control_c, 3, 7, 63
5, 75599, Control_c, 3, 7, 64
5, 75600, Note_on_c, 3, 56, 0
5, 75600, Note_on_c, 3, 57, 99
5, 75614, Control_c, 3, 7, 65
5, 75629, Control_c, 3, 7, 66
5, 75644, Control_c, 3, 7, 67
5, 75659, Control_c, 3, 7, 68
5, 75674, Control_c, 3, 7, 69
5, 75689, Control_c, 3, 7, 70
5, 75704, Control_c, 3, 7, 71
5, 75719, Control_c, 3, 7, 72
5, 75720, Note_on_c, 3, 57, 0
5, 75720, Control_c, 3, 7, 73
5, 75750, Control_c, 3, 7, 76
5, 75770, Control_c, 3, 7, 77
5, 75790, Control_c, 3, 7, 79
5, 75810, Control_c, 3, 7, 81
5, 75830, Control_c, 3, 7, 84
5, 75840, Note_on_c, 3, 50, 85
5, 75840, Control_c, 3, 7, 76
5, 75848, Control_c, 3, 7, 75
5, 75857, Control_c, 3, 7, 74
5, 75865, Control_c, 3, 7, 73
5, 75874, Control_c, 3, 7, 72
5, 75882, Control_c, 3, 7, 71
5, 75891, Control_c, 3, 7, 70
5, 75899, Control_c, 3, 7, 69
5, 75900, Note_on_c, 3, 50, 0
5, 75900, Note_on_c, 3, 49, 89
5, 75900, Control_c, 3, 7, 66
5, 75930, Control_c, 3, 7, 65
5, 75960, Note_on_c, 3, 49, 0
5, 75960, Note_on_c, 3, 50, 92
5, 75960, Control_c, 3, 7, 63
5, 75980, Control_c, 3, 7, 62
5, 76020, Note_on_c, 3, 50, 0
5, 76020, Note_on_c, 3, 52, 96
5, 76020, Control_c, 3, 7, 61
5, 76070, Control_c, 3, 7, 60
5, 76080, Note_on_c, 3, 52, 0
5, 76080, Note_on_c, 3, 54, 97
5, 76110, Control_c, 3, 7, 59
5, 76140, Note_on_c, 3, 54, 0
5, 76140, Note_on_c, 3, 52, 100
5, 76190, Control_c, 3, 7, 58
5, 76200, Note_on_c, 3, 52, 0
5, 76200, Note_on_c, 3, 54, 101
5, 76260, Note_on_c, 3, 54, 0
5, 76260, Note_on_c, 3, 50, 103
5, 76320, Note_on_c, 3, 50, 0
5, 76320, Note_on_c, 3, 55, 103
5, 76360, Control_c, 3, 7, 59
5, 76380, Note_on_c, 3, 55, 0
5, 76380, Note_on_c, 3, 54, 103
5, 76400, Control_c, 3, 7, 60
5, 76440, Note_on_c, 3, 54, 0
5, 76440, Note_on_c, 3, 55, 101
5, 76450, Control_c, 3, 7, 61
5, 76480, Control_c, 3, 7, 62
5, 76500, Note_on_c, 3, 55, 0
5, 76500, Note_on_c, 3, 54, 96
5, 76530, Control_c, 3, 7, 63
5, 76559, Control_c, 3, 7, 64
5, 76560, Note_on_c, 3, 54, 0
5, 76560, Note_on_c, 3, 55, 94
5, 76574, Control_c, 3, 7, 65
5, 76589, Control_c, 3, 7, 66
5, 76604, Control_c, 3, 7, 67
5, 76619, Control_c, 3, 7, 68
5, 76634, Control_c, 3, 7, 69
5, 76649, Control_c, 3, 7, 70
5, 76664, Control_c, 3, 7, 71
5, 76679, Control_c, 3, 7, 72
5, 76680, Note_on_c, 3, 55, 0
5, 76680, Control_c, 3, 7, 73
5, 76710, Control_c, 3, 7, 76
5, 76730, Control_c, 3, 7, 77
5, 76750, Control_c, 3, 7, 79
5, 76770, Control_c, 3, 7, 81
5, 76790, Control_c, 3, 7, 84
5, 76800, Note_on_c, 3, 47, 83
5, 76800, Control_c, 3, 7, 76
5, 76808, Control_c, 3, 7, 75
5, 76817, Control_c, 3, 7, 74
5, 76825, Control_c, 3, 7, 73
5, 76834, Control_c, 3, 7, 72
5, 76842, Control_c, 3, 7, 71
5, 76851, Control_c, 3, 7, 70
5, 76859, Control_c, 3, 7, 69
5, 76860, Note_on_c, 3, 47, 0
5, 76860, Note_on_c, 3, 46, 88
5, 76860, Control_c, 3, 7, 66
5, 76890, Control_c, 3, 7, 65
5, 76920, Note_on_c, 3, 46, 0
5, 76920, Note_on_c, 3, 47, 93
5, 76920, Control_c, 3, 7, 63
5, 76940, Control_c, 3, 7, 62
5, 76980, Note_on_c, 3, 47, 0
5, 76980, Note_on_c, 3, 49, 96
5, 76980, Control_c, 3, 7, 61
5, 77010, Control_c, 3, 7, 60
5, 77040, Note_on_c, 3, 49, 0
5, 77040, Note_on_c, 3, 51, 101
5, 77100, Note_on_c, 3, 51, 0
5, 77100, Note_on_c, 3, 49, 102
5, 77100, Control_c, 3, 7, 61
5, 77120, Control_c, 3, 7, 62
5, 77150, Control_c, 3, 7, 63
5, 77160, Note_on_c, 3, 49, 0
5, 77160, Note_on_c, 3, 51, 102
5, 77190, Control_c, 3, 7, 64
5, 77200, Control_c, 3, 7, 65
5, 77220, Note_on_c, 3, 51, 0
5, 77220, Note_on_c, 3, 47, 100
5, 77220, Control_c, 3, 7, 66
5, 77230, Control_c, 3, 7, 67
5, 77260, Control_c, 3, 7, 68
5, 77270, Control_c, 3, 7, 69
5, 77280, Note_on_c, 3, 47, 0
5, 77280, Note_on_c, 3, 52, 97
5, 77280, Control_c, 3, 7, 70
5, 77300, Control_c, 3, 7, 71
5, 77320, Control_c, 3, 7, 72
5, 77340, Note_on_c, 3, 52, 0
5, 77340, Note_on_c, 3, 54, 93
5, 77350, Control_c, 3, 7, 73
5, 77370, Control_c, 3, 7, 74
5, 77390, Control_c, 3, 7, 75
5, 77400, Note_on_c, 3, 54, 0
5, 77400, Note_on_c, 3, 52, 90
5, 77420, Control_c, 3, 7, 76
5, 77460, Note_on_c, 3, 52, 0
5, 77460, Note_on_c, 3, 50, 88
5, 77520, Note_on_c, 3, 50, 0
5, 77520, Note_on_c, 3, 49, 88
5, 77550, Control_c, 3, 7, 75
5, 77580, Note_on_c, 3, 49, 0
5, 77580, Note_on_c, 3, 47, 90
5, 77580, Control_c, 3, 7, 74
5, 77590, Control_c, 3, 7, 73
5, 77620, Control_c, 3, 7, 72
5, 77630, Control_c, 3, 7, 71
5, 77640, Note_on_c, 3, 47, 0
5, 77640, Note_on_c, 3, 49, 95
5, 77640, Control_c, 3, 7, 70
5, 77670, Control_c, 3, 7, 68
5, 77690, Control_c, 3, 7, 67
5, 77700, Note_on_c, 3, 49, 0
5, 77700, Note_on_c, 3, 45, 99
5, 77710, Control_c, 3, 7, 65
5, 77740, Control_c, 3, 7, 64
5, 77760, Note_on_c, 3, 45, 0
5, 77760, Note_on_c, 3, 50, 105
5, 77790, Control_c, 3, 7, 63
5, 77820, Note_on_c, 3, 50, 0
5, 77820, Note_on_c, 3, 49, 101
5, 77880, Note_on_c, 3, 49, 0
5, 77880, Note_on_c, 3, 50, 100
5, 77940, Note_on_c, 3, 50, 0
5, 77940, Note_on_c, 3, 52, 99
5, 78000, Note_on_c, 3, 52, 0
5, 78000, Note_on_c, 3, 54, 99
5, 78020, Control_c, 3, 7, 64
5, 78030, Control_c, 3, 7, 65
5, 78050, Control_c, 3, 7, 66
5, 78060, Note_on_c, 3, 54, 0
5, 78060, Note_on_c, 3, 52, 99
5, 78060, Control_c, 3, 7, 67
5, 78100, Control_c, 3, 7, 69
5, 78110, Control_c, 3, 7, 71
5, 78120, Note_on_c, 3, 52, 0
5, 78120, Note_on_c, 3, 54, 100
5, 78130, Control_c, 3, 7, 72
5, 78140, Control_c, 3, 7, 73
5, 78150, Control_c, 3, 7, 76
5, 78160, Control_c, 3, 7, 78
5, 78180, Note_on_c, 3, 54, 0
5, 78180, Note_on_c, 3, 56, 111
5, 78180, Control_c, 3, 7, 79
5, 78190, Control_c, 3, 7, 83
5, 78210, Control_c, 3, 7, 85
5, 78220, Control_c, 3, 7, 86
5, 78230, Control_c, 3, 7, 89
5, 78240, Note_on_c, 3, 56, 0
5, 78240, Note_on_c, 3, 57, 114
5, 78240, Control_c, 3, 7, 90
5, 78288, Note_on_c, 3, 57, 0
5, 78300, Note_on_c, 3, 57, 114
5, 78348, Note_on_c, 3, 57, 0
5, 78360, Note_on_c, 3, 57, 110
5, 78408, Note_on_c, 3, 57, 0
5, 78420, Note_on_c, 3, 57, 106
5, 78468, Note_on_c, 3, 57, 0
5, 78480, Note_on_c, 3, 57, 103
5, 78528, Note_on_c, 3, 57, 0
5, 78540, Note_on_c, 3, 57, 103
5, 78588, Note_on_c, 3, 57, 0
5, 78600, Note_on_c, 3, 57, 103
5, 78648, Note_on_c, 3, 57, 0
5, 78660, Note_on_c, 3, 57, 103
5, 78708, Note_on_c, 3, 57, 0
5, 78720, Note_on_c, 3, 57, 110
5, 78768, Note_on_c, 3, 57, 0
5, 78780, Note_on_c, 3, 57, 109
5, 78828, Note_on_c, 3, 57, 0
5, 78840, Note_on_c, 3, 57, 109
5, 78888, Note_on_c, 3, 57, 0
5, 78900, Note_on_c, 3, 57, 102
5, 78948, Note_on_c, 3, 57, 0
5, 78960, Note_on_c, 3, 57, 102
5, 79008, Note_on_c, 3, 57, 0
5, 79020, Note_on_c, 3, 57, 102
5, 79068, Note_on_c, 3, 57, 0
5, 79080, Note_on_c, 3, 57, 102
5, 79128, Note_on_c, 3, 57, 0
5, 79140, Note_on_c, 3, 57, 105
5, 79188, Note_on_c, 3, 57, 0
5, 79200, Note_on_c, 3, 57, 112
5, 79248, Note_on_c, 3, 57, 0
5, 79260, Note_on_c, 3, 57, 106
5, 79308, Note_on_c, 3, 57, 0
5, 79320, Note_on_c, 3, 57, 103
5, 79368, Note_on_c, 3, 57, 0
5, 79380, Note_on_c, 3, 57, 99
5, 79428, Note_on_c, 3, 57, 0
5, 79440, Note_on_c, 3, 57, 99
5, 79488, Note_on_c, 3, 57, 0
5, 79500, Note_on_c, 3, 57, 99
5, 79548, Note_on_c, 3, 57, 0
5, 79560, Note_on_c, 3, 57, 98
5, 79608, Note_on_c, 3, 57, 0
5, 79620, Note_on_c, 3, 57, 100
5, 79668, Note_on_c, 3, 57, 0
5, 79680, Note_on_c, 3, 57, 110
5, 79728, Note_on_c, 3, 57, 0
5, 79740, Note_on_c, 3, 57, 106
5, 79788, Note_on_c, 3, 57, 0
5, 79800, Note_on_c, 3, 57, 102
5, 79848, Note_on_c, 3, 57, 0
5, 79860, Note_on_c, 3, 57, 101
5, 79908, Note_on_c, 3, 57, 0
5, 79920, Note_on_c, 3, 57, 100
5, 79968, Note_on_c, 3, 57, 0
5, 79980, Note_on_c, 3, 57, 100
5, 80028, Note_on_c, 3, 57, 0
5, 80040, Note_on_c, 3, 57, 101
5, 80088, Note_on_c, 3, 57, 0
5, 80100, Note_on_c, 3, 57, 110
5, 80148, Note_on_c, 3, 57, 0
5, 80160, Note_on_c, 3, 57, 114
5, 80208, Note_on_c, 3, 57, 0
5, 80220, Note_on_c, 3, 57, 105
5, 80268, Note_on_c, 3, 57, 0
5, 80280, Note_on_c, 3, 57, 103
5, 80328, Note_on_c, 3, 57, 0
5, 80340, Note_on_c, 3, 57, 102
5, 80388, Note_on_c, 3, 57, 0
5, 80400, Note_on_c, 3, 57, 102
5, 80448, Note_on_c, 3, 57, 0
5, 80460, Note_on_c, 3, 57, 102
5, 80508, Note_on_c, 3, 57, 0
5, 80520, Note_on_c, 3, 57, 104
5, 80568, Note_on_c, 3, 57, 0
5, 80580, Note_on_c, 3, 57, 109
5, 80628, Note_on_c, 3, 57, 0
5, 80640, Note_on_c, 3, 57, 113
5, 80688, Note_on_c, 3, 57, 0
5, 80700, Note_on_c, 3, 57, 107
5, 80748, Note_on_c, 3, 57, 0
5, 80760, Note_on_c, 3, 57, 103
5, 80808, Note_on_c, 3, 57, 0
5, 80820, Note_on_c, 3, 57, 103
5, 80868, Note_on_c, 3, 57, 0
5, 80880, Note_on_c, 3, 57, 102
5, 80928, Note_on_c, 3, 57, 0
5, 80940, Note_on_c, 3, 57, 102
5, 80988, Note_on_c, 3, 57, 0
5, 81000, Note_on_c, 3, 57, 102
5, 81048, Note_on_c, 3, 57, 0
5, 81060, Note_on_c, 3, 57, 102
5, 81108, Note_on_c, 3, 57, 0
5, 81120, Note_on_c, 3, 57, 106
5, 81232, Note_on_c, 3, 57, 0
5, 81240, Note_on_c, 3, 57, 96
5, 81240, Control_c, 3, 7, 80
5, 81240, Control_c, 3, 7, 80
5, 81240, Control_c, 3, 7, 80
5, 81240, Control_c, 3, 7, 80
5, 81240, Control_c, 3, 7, 80
5, 81240, Control_c, 3, 7, 80
5, 81240, Control_c, 3, 7, 80
5, 81247, Control_c, 3, 7, 81
5, 81247, Control_c, 3, 7, 81
5, 81247, Control_c, 3, 7, 81
5, 81247, Control_c, 3, 7, 81
5, 81247, Control_c, 3, 7, 81
5, 81247, Control_c, 3, 7, 81
5, 81247, Control_c, 3, 7, 81
5, 81255, Control_c, 3, 7, 82
5, 81255, Control_c, 3, 7, 82
5, 81255, Control_c, 3, 7, 82
5, 81255, Control_c, 3, 7, 82
5, 81255, Control_c, 3, 7, 82
5, 81255, Control_c, 3, 7, 82
5, 81255, Control_c, 3, 7, 82
5, 81262, Control_c, 3, 7, 83
5, 81262, Control_c, 3, 7, 83
5, 81262, Control_c, 3, 7, 83
5, 81262, Control_c, 3, 7, 83
5, 81262, Control_c, 3, 7, 83
5, 81262, Control_c, 3, 7, 83
5, 81262, Control_c, 3, 7, 83
5, 81270, Control_c, 3, 7, 84
5, 81270, Control_c, 3, 7, 84
5, 81270, Control_c, 3, 7, 84
5, 81270, Control_c, 3, 7, 84
5, 81270, Control_c, 3, 7, 84
5, 81270, Control_c, 3, 7, 84
5, 81270, Control_c, 3, 7, 84
5, 81278, Control_c, 3, 7, 85
5, 81278, Control_c, 3, 7, 85
5, 81278, Control_c, 3, 7, 85
5, 81278, Control_c, 3, 7, 85
5, 81278, Control_c, 3, 7, 85
5, 81278, Control_c, 3, 7, 85
5, 81278, Control_c, 3, 7, 85
5, 81285, Control_c, 3, 7, 86
5, 81285, Control_c, 3, 7, 86
5, 81285, Control_c, 3, 7, 86
5, 81285, Control_c, 3, 7, 86
5, 81285, Control_c, 3, 7, 86
5, 81285, Control_c, 3, 7, 86
5, 81285, Control_c, 3, 7, 86
5, 81288, Note_on_c, 3, 57, 0
5, 81293, Control_c, 3, 7, 87
5, 81293, Control_c, 3, 7, 87
5, 81293, Control_c, 3, 7, 87
5, 81293, Control_c, 3, 7, 87
5, 81293, Control_c, 3, 7, 87
5, 81293, Control_c, 3, 7, 87
5, 81293, Control_c, 3, 7, 87
5, 81300, Note_on_c, 3, 57, 96
5, 81301, Control_c, 3, 7, 88
5, 81301, Control_c, 3, 7, 88
5, 81301, Control_c, 3, 7, 88
5, 81301, Control_c, 3, 7, 88
5, 81301, Control_c, 3, 7, 88
5, 81301, Control_c, 3, 7, 88
5, 81301, Control_c, 3, 7, 88
5, 81308, Control_c, 3, 7, 89
5, 81308, Control_c, 3, 7, 89
5, 81308, Control_c, 3, 7, 89
5, 81308, Control_c, 3, 7, 89
5, 81308, Control_c, 3, 7, 89
5, 81308, Control_c, 3, 7, 89
5, 81308, Control_c, 3, 7, 89
5, 81316, Control_c, 3, 7, 90
5, 81316, Control_c, 3, 7, 90
5, 81316, Control_c, 3, 7, 90
5, 81316, Control_c, 3, 7, 90
5, 81316, Control_c, 3, 7, 90
5, 81316, Control_c, 3, 7, 90
5, 81316, Control_c, 3, 7, 90
5, 81324, Control_c, 3, 7, 91
5, 81324, Control_c, 3, 7, 91
5, 81324, Control_c, 3, 7, 91
5, 81324, Control_c, 3, 7, 91
5, 81324, Control_c, 3, 7, 91
5, 81324, Control_c, 3, 7, 91
5, 81324, Control_c, 3, 7, 91
5, 81331, Control_c, 3, 7, 92
5, 81331, Control_c, 3, 7, 92
5, 81331, Control_c, 3, 7, 92
5, 81331, Control_c, 3, 7, 92
5, 81331, Control_c, 3, 7, 92
5, 81331, Control_c, 3, 7, 92
5, 81331, Control_c, 3, 7, 92
5, 81339, Control_c, 3, 7, 93
5, 81339, Control_c, 3, 7, 93
5, 81339, Control_c, 3, 7, 93
5, 81339, Control_c, 3, 7, 93
5, 81339, Control_c, 3, 7, 93
5, 81339, Control_c, 3, 7, 93
5, 81339, Control_c, 3, 7, 93
5, 81346, Control_c, 3, 7, 94
5, 81346, Control_c, 3, 7, 94
5, 81346, Control_c, 3, 7, 94
5, 81346, Control_c, 3, 7, 94
5, 81346, Control_c, 3, 7, 94
5, 81346, Control_c, 3, 7, 94
5, 81346, Control_c, 3, 7, 94
5, 81348, Note_on_c, 3, 57, 0
5, 81354, Control_c, 3, 7, 95
5, 81354, Control_c, 3, 7, 95
5, 81354, Control_c, 3, 7, 95
5, 81354, Control_c, 3, 7, 95
5, 81354, Control_c, 3, 7, 95
5, 81354, Control_c, 3, 7, 95
5, 81354, Control_c, 3, 7, 95
5, 81360, Note_on_c, 3, 57, 96
5, 81362, Control_c, 3, 7, 96
5, 81362, Control_c, 3, 7, 96
5, 81362, Control_c, 3, 7, 96
5, 81362, Control_c, 3, 7, 96
5, 81362, Control_c, 3, 7, 96
5, 81362, Control_c, 3, 7, 96
5, 81362, Control_c, 3, 7, 96
5, 81369, Control_c, 3, 7, 97
5, 81369, Control_c, 3, 7, 97
5, 81369, Control_c, 3, 7, 97
5, 81369, Control_c, 3, 7, 97
5, 81369, Control_c, 3, 7, 97
5, 81369, Control_c, 3, 7, 97
5, 81369, Control_c, 3, 7, 97
5, 81377, Control_c, 3, 7, 98
5, 81377, Control_c, 3, 7, 98
5, 81377, Control_c, 3, 7, 98
5, 81377, Control_c, 3, 7, 98
5, 81377, Control_c, 3, 7, 98
5, 81377, Control_c, 3, 7, 98
5, 81377, Control_c, 3, 7, 98
5, 81385, Control_c, 3, 7, 99
5, 81385, Control_c, 3, 7, 99
5, 81385, Control_c, 3, 7, 99
5, 81385, Control_c, 3, 7, 99
5, 81385, Control_c, 3, 7, 99
5, 81385, Control_c, 3, 7, 99
5, 81385, Control_c, 3, 7, 99
5, 81392, Control_c, 3, 7, 100
5, 81392, Control_c, 3, 7, 100
5, 81392, Control_c, 3, 7, 100
5, 81392, Control_c, 3, 7, 100
5, 81392, Control_c, 3, 7, 100
5, 81392, Control_c, 3, 7, 100
5, 81392, Control_c, 3, 7, 100
5, 81400, Control_c, 3, 7, 101
5, 81400, Control_c, 3, 7, 101
5, 81400, Control_c, 3, 7, 101
5, 81400, Control_c, 3, 7, 101
5, 81400, Control_c, 3, 7, 101
5, 81400, Control_c, 3, 7, 101
5, 81400, Control_c, 3, 7, 101
5, 81408, Control_c, 3, 7, 102
5, 81408, Control_c, 3, 7, 102
5, 81408, Control_c, 3, 7, 102
5, 81408, Control_c, 3, 7, 102
5, 81408, Control_c, 3, 7, 102
5, 81408, Control_c, 3, 7, 102
5, 81408, Control_c, 3, 7, 102
5, 81415, Control_c, 3, 7, 103
5, 81415, Control_c, 3, 7, 103
5, 81415, Control_c, 3, 7, 103
5, 81415, Control_c, 3, 7, 103
5, 81415, Control_c, 3, 7, 103
5, 81415, Control_c, 3, 7, 103
5, 81415, Control_c, 3, 7, 103
5, 81423, Control_c, 3, 7, 104
5, 81423, Control_c, 3, 7, 104
5, 81423, Control_c, 3, 7, 104
5, 81423, Control_c, 3, 7, 104
5, 81423, Control_c, 3, 7, 104
5, 81423, Control_c, 3, 7, 104
5, 81423, Control_c, 3, 7, 104
5, 81430, Control_c, 3, 7, 105
5, 81430, Control_c, 3, 7, 105
5, 81430, Control_c, 3, 7, 105
5, 81430, Control_c, 3, 7, 105
5, 81430, Control_c, 3, 7, 105
5, 81430, Control_c, 3, 7, 105
5, 81430, Control_c, 3, 7, 105
5, 81438, Control_c, 3, 7, 106
5, 81438, Control_c, 3, 7, 106
5, 81438, Control_c, 3, 7, 106
5, 81438, Control_c, 3, 7, 106
5, 81438, Control_c, 3, 7, 106
5, 81438, Control_c, 3, 7, 106
5, 81438, Control_c, 3, 7, 106
5, 81446, Control_c, 3, 7, 107
5, 81446, Control_c, 3, 7, 107
5, 81446, Control_c, 3, 7, 107
5, 81446, Control_c, 3, 7, 107
5, 81446, Control_c, 3, 7, 107
5, 81446, Control_c, 3, 7, 107
5, 81446, Control_c, 3, 7, 107
5, 81453, Control_c, 3, 7, 108
5, 81453, Control_c, 3, 7, 108
5, 81453, Control_c, 3, 7, 108
5, 81453, Control_c, 3, 7, 108
5, 81453, Control_c, 3, 7, 108
5, 81453, Control_c, 3, 7, 108
5, 81453, Control_c, 3, 7, 108
5, 81461, Control_c, 3, 7, 109
5, 81461, Control_c, 3, 7, 109
5, 81461, Control_c, 3, 7, 109
5, 81461, Control_c, 3, 7, 109
5, 81461, Control_c, 3, 7, 109
5, 81461, Control_c, 3, 7, 109
5, 81461, Control_c, 3, 7, 109
5, 81469, Control_c, 3, 7, 110
5, 81469, Control_c, 3, 7, 110
5, 81469, Control_c, 3, 7, 110
5, 81469, Control_c, 3, 7, 110
5, 81469, Control_c, 3, 7, 110
5, 81469, Control_c, 3, 7, 110
5, 81469, Control_c, 3, 7, 110
5, 81472, Note_on_c, 3, 57, 0
5, 81476, Control_c, 3, 7, 111
5, 81476, Control_c, 3, 7, 111
5, 81476, Control_c, 3, 7, 111
5, 81476, Control_c, 3, 7, 111
5, 81476, Control_c, 3, 7, 111
5, 81476, Control_c, 3, 7, 111
5, 81476, Control_c, 3, 7, 111
5, 81480, Note_on_c, 3, 57, 96
5, 81484, Control_c, 3, 7, 112
5, 81484, Control_c, 3, 7, 112
5, 81484, Control_c, 3, 7, 112
5, 81484, Control_c, 3, 7, 112
5, 81484, Control_c, 3, 7, 112
5, 81484, Control_c, 3, 7, 112
5, 81484, Control_c, 3, 7, 112
5, 81492, Control_c, 3, 7, 113
5, 81492, Control_c, 3, 7, 113
5, 81492, Control_c, 3, 7, 113
5, 81492, Control_c, 3, 7, 113
5, 81492, Control_c, 3, 7, 113
5, 81492, Control_c, 3, 7, 113
5, 81492, Control_c, 3, 7, 113
5, 81499, Control_c, 3, 7, 114
5, 81499, Control_c, 3, 7, 114
5, 81499, Control_c, 3, 7, 114
5, 81499, Control_c, 3, 7, 114
5, 81499, Control_c, 3, 7, 114
5, 81499, Control_c, 3, 7, 114
5, 81499, Control_c, 3, 7, 114
5, 81507, Control_c, 3, 7, 115
5, 81507, Control_c, 3, 7, 115
5, 81507, Control_c, 3, 7, 115
5, 81507, Control_c, 3, 7, 115
5, 81507, Control_c, 3, 7, 115
5, 81507, Control_c, 3, 7, 115
5, 81507, Control_c, 3, 7, 115
5, 81514, Control_c, 3, 7, 116
5, 81514, Control_c, 3, 7, 116
5, 81514, Control_c, 3, 7, 116
5, 81514, Control_c, 3, 7, 116
5, 81514, Control_c, 3, 7, 116
5, 81514, Control_c, 3, 7, 116
5, 81514, Control_c, 3, 7, 116
5, 81522, Control_c, 3, 7, 117
5, 81522, Control_c, 3, 7, 117
5, 81522, Control_c, 3, 7, 117
5, 81522, Control_c, 3, 7, 117
5, 81522, Control_c, 3, 7, 117
5, 81522, Control_c, 3, 7, 117
5, 81522, Control_c, 3, 7, 117
5, 81530, Control_c, 3, 7, 118
5, 81530, Control_c, 3, 7, 118
5, 81530, Control_c, 3, 7, 118
5, 81530, Control_c, 3, 7, 118
5, 81530, Control_c, 3, 7, 118
5, 81530, Control_c, 3, 7, 118
5, 81530, Control_c, 3, 7, 118
5, 81537, Control_c, 3, 7, 119
5, 81537, Control_c, 3, 7, 119
5, 81537, Control_c, 3, 7, 119
5, 81537, Control_c, 3, 7, 119
5, 81537, Control_c, 3, 7, 119
5, 81537, Control_c, 3, 7, 119
5, 81537, Control_c, 3, 7, 119
5, 81545, Control_c, 3, 7, 120
5, 81545, Control_c, 3, 7, 120
5, 81545, Control_c, 3, 7, 120
5, 81545, Control_c, 3, 7, 120
5, 81545, Control_c, 3, 7, 120
5, 81545, Control_c, 3, 7, 120
5, 81545, Control_c, 3, 7, 120
5, 81553, Control_c, 3, 7, 121
5, 81553, Control_c, 3, 7, 121
5, 81553, Control_c, 3, 7, 121
5, 81553, Control_c, 3, 7, 121
5, 81553, Control_c, 3, 7, 121
5, 81553, Control_c, 3, 7, 121
5, 81553, Control_c, 3, 7, 121
5, 81560, Control_c, 3, 7, 122
5, 81560, Control_c, 3, 7, 122
5, 81560, Control_c, 3, 7, 122
5, 81560, Control_c, 3, 7, 122
5, 81560, Control_c, 3, 7, 122
5, 81560, Control_c, 3, 7, 122
5, 81560, Control_c, 3, 7, 122
5, 81568, Control_c, 3, 7, 123
5, 81568, Control_c, 3, 7, 123
5, 81568, Control_c, 3, 7, 123
5, 81568, Control_c, 3, 7, 123
5, 81568, Control_c, 3, 7, 123
5, 81568, Control_c, 3, 7, 123
5, 81568, Control_c, 3, 7, 123
5, 81576, Control_c, 3, 7, 124
5, 81576, Control_c, 3, 7, 124
5, 81576, Control_c, 3, 7, 124
5, 81576, Control_c, 3, 7, 124
5, 81576, Control_c, 3, 7, 124
5, 81576, Control_c, 3, 7, 124
5, 81576, Control_c, 3, 7, 124
5, 81583, Control_c, 3, 7, 125
5, 81583, Control_c, 3, 7, 125
5, 81583, Control_c, 3, 7, 125
5, 81583, Control_c, 3, 7, 125
5, 81583, Control_c, 3, 7, 125
5, 81583, Control_c, 3, 7, 125
5, 81583, Control_c, 3, 7, 125
5, 81591, Control_c, 3, 7, 126
5, 81591, Control_c, 3, 7, 126
5, 81591, Control_c, 3, 7, 126
5, 81591, Control_c, 3, 7, 126
5, 81591, Control_c, 3, 7, 126
5, 81591, Control_c, 3, 7, 126
5, 81591, Control_c, 3, 7, 126
5, 81592, Note_on_c, 3, 57, 0
5, 81599, Control_c, 3, 7, 127
5, 81599, Control_c, 3, 7, 127
5, 81599, Control_c, 3, 7, 127
5, 81599, Control_c, 3, 7, 127
5, 81599, Control_c, 3, 7, 127
5, 81599, Control_c, 3, 7, 127
5, 81599, Control_c, 3, 7, 127
5, 81600, Note_on_c, 3, 57, 96
5, 81825, Note_on_c, 3, 57, 0
5, 82080, Control_c, 3, 7, 120
5, 82082, Control_c, 3, 7, 119
5, 82084, Control_c, 3, 7, 118
5, 82086, Control_c, 3, 7, 117
5, 82088, Control_c, 3, 7, 116
5, 82090, Control_c, 3, 7, 115
5, 82092, Control_c, 3, 7, 114
5, 82094, Control_c, 3, 7, 113
5, 82097, Control_c, 3, 7, 112
5, 82099, Control_c, 3, 7, 111
5, 82101, Control_c, 3, 7, 110
5, 82103, Control_c, 3, 7, 109
5, 82105, Control_c, 3, 7, 108
5, 82107, Control_c, 3, 7, 107
5, 82109, Control_c, 3, 7, 106
5, 82111, Control_c, 3, 7, 105
5, 82114, Control_c, 3, 7, 104
5, 82116, Control_c, 3, 7, 103
5, 82118, Control_c, 3, 7, 102
5, 82120, Control_c, 3, 7, 101
5, 82122, Control_c, 3, 7, 100
5, 82124, Control_c, 3, 7, 99
5, 82126, Control_c, 3, 7, 98
5, 82128, Control_c, 3, 7, 97
5, 82131, Control_c, 3, 7, 96
5, 82133, Control_c, 3, 7, 95
5, 82135, Control_c, 3, 7, 94
5, 82137, Control_c, 3, 7, 93
5, 82139, Control_c, 3, 7, 92
5, 82141, Control_c, 3, 7, 91
5, 82143, Control_c, 3, 7, 90
5, 82145, Control_c, 3, 7, 89
5, 82148, Control_c, 3, 7, 88
5, 82150, Control_c, 3, 7, 87
5, 82152, Control_c, 3, 7, 86
5, 82154, Control_c, 3, 7, 85
5, 82156, Control_c, 3, 7, 84
5, 82158, Control_c, 3, 7, 83
5, 82160, Control_c, 3, 7, 82
5, 82162, Control_c, 3, 7, 81
5, 82165, Control_c, 3, 7, 80
5, 82167, Control_c, 3, 7, 79
5, 82169, Control_c, 3, 7, 78
5, 82171, Control_c, 3, 7, 77
5, 82173, Control_c, 3, 7, 76
5, 82175, Control_c, 3, 7, 75
5, 82177, Control_c, 3, 7, 74
5, 82179, Control_c, 3, 7, 73
5, 82182, Control_c, 3, 7, 72
5, 82184, Control_c, 3, 7, 71
5, 82186, Control_c, 3, 7, 70
5, 82188, Control_c, 3, 7, 69
5, 82190, Control_c, 3, 7, 68
5, 82192, Control_c, 3, 7, 67
5, 82194, Control_c, 3, 7, 66
5, 82196, Control_c, 3, 7, 65
5, 82199, Control_c, 3, 7, 64
5, 82200, Control_c, 3, 7, 64
5, 84000, Control_c, 3, 7, 96
5, 84000, Control_c, 3, 7, 120
5, 84002, Control_c, 3, 7, 106
5, 84002, Control_c, 3, 7, 119
5, 84004, Control_c, 3, 7, 105
5, 84004, Control_c, 3, 7, 118
5, 84006, Control_c, 3, 7, 104
5, 84006, Control_c, 3, 7, 117
5, 84008, Control_c, 3, 7, 103
5, 84008, Control_c, 3, 7, 116
5, 84010, Control_c, 3, 7, 102
5, 84010, Control_c, 3, 7, 115
5, 84012, Control_c, 3, 7, 101
5, 84012, Control_c, 3, 7, 114
5, 84014, Control_c, 3, 7, 95
5, 84014, Control_c, 3, 7, 100
5, 84014, Control_c, 3, 7, 113
5, 84017, Control_c, 3, 7, 99
5, 84017, Control_c, 3, 7, 112
5, 84019, Control_c, 3, 7, 98
5, 84019, Control_c, 3, 7, 111
5, 84021, Control_c, 3, 7, 97
5, 84021, Control_c, 3, 7, 110
5, 84023, Control_c, 3, 7, 96
5, 84023, Control_c, 3, 7, 109
5, 84025, Control_c, 3, 7, 95
5, 84025, Control_c, 3, 7, 108
5, 84027, Control_c, 3, 7, 94
5, 84027, Control_c, 3, 7, 107
5, 84029, Control_c, 3, 7, 94
5, 84029, Control_c, 3, 7, 93
5, 84029, Control_c, 3, 7, 106
5, 84031, Control_c, 3, 7, 105
5, 84032, Control_c, 3, 7, 92
5, 84034, Control_c, 3, 7, 91
5, 84034, Control_c, 3, 7, 104
5, 84036, Control_c, 3, 7, 90
5, 84036, Control_c, 3, 7, 103
5, 84038, Control_c, 3, 7, 89
5, 84038, Control_c, 3, 7, 102
5, 84040, Control_c, 3, 7, 88
5, 84040, Control_c, 3, 7, 101
5, 84042, Control_c, 3, 7, 87
5, 84042, Control_c, 3, 7, 100
5, 84044, Control_c, 3, 7, 93
5, 84044, Control_c, 3, 7, 86
5, 84044, Control_c, 3, 7, 99
5, 84046, Control_c, 3, 7, 98
5, 84047, Control_c, 3, 7, 85
5, 84048, Control_c, 3, 7, 97
5, 84049, Control_c, 3, 7, 84
5, 84051, Control_c, 3, 7, 83
5, 84051, Control_c, 3, 7, 96
5, 84053, Control_c, 3, 7, 82
5, 84053, Control_c, 3, 7, 95
5, 84055, Control_c, 3, 7, 81
5, 84055, Control_c, 3, 7, 94
5, 84057, Control_c, 3, 7, 80
5, 84057, Control_c, 3, 7, 93
5, 84059, Control_c, 3, 7, 92
5, 84059, Control_c, 3, 7, 79
5, 84059, Control_c, 3, 7, 92
5, 84061, Control_c, 3, 7, 91
5, 84062, Control_c, 3, 7, 78
5, 84063, Control_c, 3, 7, 90
5, 84064, Control_c, 3, 7, 77
5, 84065, Control_c, 3, 7, 89
5, 84066, Control_c, 3, 7, 76
5, 84068, Control_c, 3, 7, 75
5, 84068, Control_c, 3, 7, 88
5, 84070, Control_c, 3, 7, 74
5, 84070, Control_c, 3, 7, 87
5, 84072, Control_c, 3, 7, 73
5, 84072, Control_c, 3, 7, 86
5, 84074, Control_c, 3, 7, 91
5, 84074, Control_c, 3, 7, 72
5, 84074, Control_c, 3, 7, 85
5, 84076, Control_c, 3, 7, 84
5, 84077, Control_c, 3, 7, 71
5, 84078, Control_c, 3, 7, 83
5, 84079, Control_c, 3, 7, 70
5, 84080, Control_c, 3, 7, 82
5, 84081, Control_c, 3, 7, 69
5, 84082, Control_c, 3, 7, 81
5, 84083, Control_c, 3, 7, 68
5, 84085, Control_c, 3, 7, 67
5, 84085, Control_c, 3, 7, 80
5, 84087, Control_c, 3, 7, 66
5, 84087, Control_c, 3, 7, 79
5, 84089, Control_c, 3, 7, 90
5, 84089, Control_c, 3, 7, 65
5, 84089, Control_c, 3, 7, 78
5, 84091, Control_c, 3, 7, 77
5, 84092, Control_c, 3, 7, 64
5, 84093, Control_c, 3, 7, 76
5, 84095, Control_c, 3, 7, 75
5, 84097, Control_c, 3, 7, 74
5, 84099, Control_c, 3, 7, 73
5, 84102, Control_c, 3, 7, 72
5, 84104, Control_c, 3, 7, 89
5, 84104, Control_c, 3, 7, 71
5, 84106, Control_c, 3, 7, 70
5, 84108, Control_c, 3, 7, 69
5, 84110, Control_c, 3, 7, 68
5, 84112, Control_c, 3, 7, 67
5, 84114, Control_c, 3, 7, 66
5, 84116, Control_c, 3, 7, 65
5, 84119, Control_c, 3, 7, 88
5, 84119, Control_c, 3, 7, 64
5, 84120, Control_c, 3, 7, 64
5, 84134, Control_c, 3, 7, 87
5, 84149, Control_c, 3, 7, 86
5, 84164, Control_c, 3, 7, 85
5, 84179, Control_c, 3, 7, 84
5, 84194, Control_c, 3, 7, 83
5, 84209, Control_c, 3, 7, 82
5, 84224, Control_c, 3, 7, 81
5, 84239, Control_c, 3, 7, 80
5, 84254, Control_c, 3, 7, 79
5, 84269, Control_c, 3, 7, 78
5, 84284, Control_c, 3, 7, 77
5, 84299, Control_c, 3, 7, 76
5, 84314, Control_c, 3, 7, 75
5, 84329, Control_c, 3, 7, 74
5, 84344, Control_c, 3, 7, 73
5, 84359, Control_c, 3, 7, 72
5, 84374, Control_c, 3, 7, 71
5, 84389, Control_c, 3, 7, 70
5, 84404, Control_c, 3, 7, 69
5, 84419, Control_c, 3, 7, 68
5, 84434, Control_c, 3, 7, 67
5, 84449, Control_c, 3, 7, 66
5, 84453, Control_c, 3, 7, 115
5, 84455, Control_c, 3, 7, 114
5, 84458, Control_c, 3, 7, 113
5, 84460, Control_c, 3, 7, 112
5, 84462, Control_c, 3, 7, 111
5, 84464, Control_c, 3, 7, 65
5, 84464, Control_c, 3, 7, 110
5, 84466, Control_c, 3, 7, 109
5, 84468, Control_c, 3, 7, 108
5, 84470, Control_c, 3, 7, 107
5, 84473, Control_c, 3, 7, 106
5, 84475, Control_c, 3, 7, 105
5, 84477, Control_c, 3, 7, 104
5, 84479, Control_c, 3, 7, 64
5, 84479, Control_c, 3, 7, 103
5, 84480, Control_c, 3, 7, 96
5, 84480, Control_c, 3, 7, 120
5, 84481, Control_c, 3, 7, 102
5, 84482, Control_c, 3, 7, 119
5, 84483, Control_c, 3, 7, 101
5, 84484, Control_c, 3, 7, 118
5, 84485, Control_c, 3, 7, 100
5, 84486, Control_c, 3, 7, 117
5, 84488, Control_c, 3, 7, 99
5, 84488, Control_c, 3, 7, 116
5, 84490, Control_c, 3, 7, 98
5, 84490, Control_c, 3, 7, 115
5, 84492, Control_c, 3, 7, 97
5, 84492, Control_c, 3, 7, 114
5, 84494, Control_c, 3, 7, 95
5, 84494, Control_c, 3, 7, 96
5, 84494, Control_c, 3, 7, 113
5, 84496, Control_c, 3, 7, 95
5, 84497, Control_c, 3, 7, 112
5, 84498, Control_c, 3, 7, 94
5, 84499, Control_c, 3, 7, 111
5, 84500, Control_c, 3, 7, 93
5, 84501, Control_c, 3, 7, 110
5, 84503, Control_c, 3, 7, 92
5, 84503, Control_c, 3, 7, 109
5, 84505, Control_c, 3, 7, 91
5, 84505, Control_c, 3, 7, 108
5, 84507, Control_c, 3, 7, 90
5, 84507, Control_c, 3, 7, 107
5, 84509, Control_c, 3, 7, 94
5, 84509, Control_c, 3, 7, 89
5, 84509, Control_c, 3, 7, 106
5, 84511, Control_c, 3, 7, 88
5, 84511, Control_c, 3, 7, 105
5, 84513, Control_c, 3, 7, 87
5, 84514, Control_c, 3, 7, 104
5, 84515, Control_c, 3, 7, 86
5, 84516, Control_c, 3, 7, 103
5, 84518, Control_c, 3, 7, 85
5, 84518, Control_c, 3, 7, 102
5, 84520, Control_c, 3, 7, 84
5, 84520, Control_c, 3, 7, 101
5, 84522, Control_c, 3, 7, 83
5, 84522, Control_c, 3, 7, 100
5, 84524, Control_c, 3, 7, 93
5, 84524, Control_c, 3, 7, 82
5, 84524, Control_c, 3, 7, 99
5, 84526, Control_c, 3, 7, 81
5, 84526, Control_c, 3, 7, 98
5, 84528, Control_c, 3, 7, 80
5, 84528, Control_c, 3, 7, 97
5, 84530, Control_c, 3, 7, 79
5, 84531, Control_c, 3, 7, 96
5, 84533, Control_c, 3, 7, 78
5, 84533, Control_c, 3, 7, 95
5, 84535, Control_c, 3, 7, 77
5, 84535, Control_c, 3, 7, 94
5, 84537, Control_c, 3, 7, 76
5, 84537, Control_c, 3, 7, 93
5, 84539, Control_c, 3, 7, 92
5, 84539, Control_c, 3, 7, 75
5, 84539, Control_c, 3, 7, 92
5, 84541, Control_c, 3, 7, 74
5, 84541, Control_c, 3, 7, 91
5, 84543, Control_c, 3, 7, 73
5, 84543, Control_c, 3, 7, 90
5, 84545, Control_c, 3, 7, 72
5, 84545, Control_c, 3, 7, 89
5, 84548, Control_c, 3, 7, 71
5, 84548, Control_c, 3, 7, 88
5, 84550, Control_c, 3, 7, 70
5, 84550, Control_c, 3, 7, 87
5, 84552, Control_c, 3, 7, 69
5, 84552, Control_c, 3, 7, 86
5, 84554, Control_c, 3, 7, 91
5, 84554, Control_c, 3, 7, 68
5, 84554, Control_c, 3, 7, 85
5, 84556, Control_c, 3, 7, 67
5, 84556, Control_c, 3, 7, 84
5, 84558, Control_c, 3, 7, 66
5, 84558, Control_c, 3, 7, 83
5, 84560, Control_c, 3, 7, 65
5, 84560, Control_c, 3, 7, 82
5, 84562, Control_c, 3, 7, 81
5, 84563, Control_c, 3, 7, 64
5, 84565, Control_c, 3, 7, 80
5, 84567, Control_c, 3, 7, 79
5, 84569, Control_c, 3, 7, 90
5, 84569, Control_c, 3, 7, 78
5, 84571, Control_c, 3, 7, 77
5, 84573, Control_c, 3, 7, 76
5, 84575, Control_c, 3, 7, 75
5, 84577, Control_c, 3, 7, 74
5, 84579, Control_c, 3, 7, 73
5, 84582, Control_c, 3, 7, 72
5, 84584, Control_c, 3, 7, 89
5, 84584, Control_c, 3, 7, 71
5, 84586, Control_c, 3, 7, 70
5, 84588, Control_c, 3, 7, 69
5, 84590, Control_c, 3, 7, 68
5, 84592, Control_c, 3, 7, 67
5, 84594, Control_c, 3, 7, 66
5, 84596, Control_c, 3, 7, 65
5, 84599, Control_c, 3, 7, 88
5, 84599, Control_c, 3, 7, 64
5, 84600, Control_c, 3, 7, 64
5, 84614, Control_c, 3, 7, 87
5, 84629, Control_c, 3, 7, 86
5, 84644, Control_c, 3, 7, 85
5, 84659, Control_c, 3, 7, 84
5, 84674, Control_c, 3, 7, 83
5, 84689, Control_c, 3, 7, 82
5, 84704, Control_c, 3, 7, 81
5, 84719, Control_c, 3, 7, 80
5, 84734, Control_c, 3, 7, 79
5, 84749, Control_c, 3, 7, 78
5, 84764, Control_c, 3, 7, 77
5, 84779, Control_c, 3, 7, 76
5, 84794, Control_c, 3, 7, 75
5, 84809, Control_c, 3, 7, 74
5, 84824, Control_c, 3, 7, 73
5, 84839, Control_c, 3, 7, 72
5, 84854, Control_c, 3, 7, 71
5, 84869, Control_c, 3, 7, 70
5, 84884, Control_c, 3, 7, 69
5, 84899, Control_c, 3, 7, 68
5, 84914, Control_c, 3, 7, 67
5, 84929, Control_c, 3, 7, 66
5, 84944, Control_c, 3, 7, 65
5, 84959, Control_c, 3, 7, 64
5, 85920, Note_on_c, 3, 66, 115
5, 85920, Note_on_c, 3, 62, 115
5, 85920, Control_c, 3, 7, 120
5, 85922, Control_c, 3, 7, 119
5, 85924, Control_c, 3, 7, 118
5, 85926, Control_c, 3, 7, 117
5, 85928, Control_c, 3, 7, 116
5, 85930, Control_c, 3, 7, 115
5, 85932, Control_c, 3, 7, 114
5, 85934, Control_c, 3, 7, 113
5, 85937, Control_c, 3, 7, 112
5, 85939, Control_c, 3, 7, 111
5, 85941, Control_c, 3, 7, 110
5, 85943, Control_c, 3, 7, 109
5, 85945, Control_c, 3, 7, 108
5, 85947, Control_c, 3, 7, 107
5, 85949, Control_c, 3, 7, 106
5, 85951, Control_c, 3, 7, 105
5, 85954, Control_c, 3, 7, 104
5, 85956, Control_c, 3, 7, 103
5, 85958, Control_c, 3, 7, 102
5, 85960, Control_c, 3, 7, 101
5, 85962, Control_c, 3, 7, 100
5, 85964, Control_c, 3, 7, 99
5, 85966, Control_c, 3, 7, 98
5, 85968, Control_c, 3, 7, 97
5, 85971, Control_c, 3, 7, 96
5, 85973, Control_c, 3, 7, 95
5, 85975, Control_c, 3, 7, 94
5, 85977, Control_c, 3, 7, 93
5, 85979, Control_c, 3, 7, 92
5, 85981, Control_c, 3, 7, 91
5, 85983, Control_c, 3, 7, 90
5, 85985, Control_c, 3, 7, 89
5, 85988, Control_c, 3, 7, 88
5, 85990, Control_c, 3, 7, 87
5, 85992, Control_c, 3, 7, 86
5, 85994, Control_c, 3, 7, 85
5, 85996, Control_c, 3, 7, 84
5, 85998, Control_c, 3, 7, 83
5, 86000, Control_c, 3, 7, 82
5, 86002, Control_c, 3, 7, 81
5, 86005, Control_c, 3, 7, 80
5, 86007, Control_c, 3, 7, 79
5, 86009, Control_c, 3, 7, 78
5, 86011, Control_c, 3, 7, 77
5, 86013, Control_c, 3, 7, 76
5, 86015, Control_c, 3, 7, 75
5, 86017, Control_c, 3, 7, 74
5, 86019, Control_c, 3, 7, 73
5, 86022, Control_c, 3, 7, 72
5, 86024, Control_c, 3, 7, 71
5, 86026, Control_c, 3, 7, 70
5, 86028, Control_c, 3, 7, 69
5, 86030, Control_c, 3, 7, 68
5, 86032, Control_c, 3, 7, 67
5, 86034, Control_c, 3, 7, 66
5, 86036, Control_c, 3, 7, 65
5, 86039, Control_c, 3, 7, 64
5, 86040, Control_c, 3, 7, 64
5, 86250, Note_on_c, 3, 62, 0
5, 86250, Note_on_c, 3, 66, 0
5, 86280, Note_on_c, 3, 64, 107
5, 86280, Note_on_c, 3, 61, 107
5, 86370, Note_on_c, 3, 61, 0
5, 86370, Note_on_c, 3, 64, 0
5, 86400, Note_on_c, 3, 66, 116
5, 86400, Note_on_c, 3, 62, 116
5, 86730, Note_on_c, 3, 62, 0
5, 86730, Note_on_c, 3, 66, 0
5, 86760, Note_on_c, 3, 64, 106
5, 86760, Note_on_c, 3, 61, 106
5, 86850, Note_on_c, 3, 61, 0
5, 86850, Note_on_c, 3, 64, 0
5, 86880, Note_on_c, 3, 59, 121
5, 86880, Note_on_c, 3, 62, 121
5, 87210, Note_on_c, 3, 62, 0
5, 87210, Note_on_c, 3, 59, 0
5, 87240, Note_on_c, 3, 61, 97
5, 87240, Note_on_c, 3, 57, 97
5, 87330, Note_on_c, 3, 57, 0
5, 87330, Note_on_c, 3, 61, 0
5, 87360, Note_on_c, 3, 62, 120
5, 87360, Note_on_c, 3, 59, 120
5, 87690, Note_on_c, 3, 59, 0
5, 87690, Note_on_c, 3, 62, 0
5, 87720, Note_on_c, 3, 61, 103
5, 87720, Note_on_c, 3, 57, 103
5, 87810, Note_on_c, 3, 57, 0
5, 87810, Note_on_c, 3, 61, 0
5, 87840, Note_on_c, 3, 55, 119
5, 87840, Note_on_c, 3, 59, 119
5, 87840, Control_c, 3, 7, 96
5, 87840, Control_c, 3, 7, 120
5, 87842, Control_c, 3, 7, 106
5, 87842, Control_c, 3, 7, 119
5, 87844, Control_c, 3, 7, 105
5, 87844, Control_c, 3, 7, 118
5, 87846, Control_c, 3, 7, 104
5, 87846, Control_c, 3, 7, 117
5, 87848, Control_c, 3, 7, 103
5, 87848, Control_c, 3, 7, 116
5, 87850, Control_c, 3, 7, 102
5, 87850, Control_c, 3, 7, 115
5, 87852, Control_c, 3, 7, 101
5, 87852, Control_c, 3, 7, 114
5, 87854, Control_c, 3, 7, 95
5, 87854, Control_c, 3, 7, 100
5, 87854, Control_c, 3, 7, 113
5, 87857, Control_c, 3, 7, 99
5, 87857, Control_c, 3, 7, 112
5, 87859, Control_c, 3, 7, 98
5, 87859, Control_c, 3, 7, 111
5, 87861, Control_c, 3, 7, 97
5, 87861, Control_c, 3, 7, 110
5, 87863, Control_c, 3, 7, 96
5, 87863, Control_c, 3, 7, 109
5, 87865, Control_c, 3, 7, 95
5, 87865, Control_c, 3, 7, 108
5, 87867, Control_c, 3, 7, 94
5, 87867, Control_c, 3, 7, 107
5, 87869, Control_c, 3, 7, 94
5, 87869, Control_c, 3, 7, 93
5, 87869, Control_c, 3, 7, 106
5, 87871, Control_c, 3, 7, 105
5, 87872, Control_c, 3, 7, 92
5, 87874, Control_c, 3, 7, 91
5, 87874, Control_c, 3, 7, 104
5, 87876, Control_c, 3, 7, 90
5, 87876, Control_c, 3, 7, 103
5, 87878, Control_c, 3, 7, 89
5, 87878, Control_c, 3, 7, 102
5, 87880, Control_c, 3, 7, 88
5, 87880, Control_c, 3, 7, 101
5, 87882, Control_c, 3, 7, 87
5, 87882, Control_c, 3, 7, 100
5, 87884, Control_c, 3, 7, 93
5, 87884, Control_c, 3, 7, 86
5, 87884, Control_c, 3, 7, 99
5, 87886, Control_c, 3, 7, 98
5, 87887, Control_c, 3, 7, 85
5, 87888, Control_c, 3, 7, 97
5, 87889, Control_c, 3, 7, 84
5, 87891, Control_c, 3, 7, 83
5, 87891, Control_c, 3, 7, 96
5, 87893, Control_c, 3, 7, 82
5, 87893, Control_c, 3, 7, 95
5, 87895, Control_c, 3, 7, 81
5, 87895, Control_c, 3, 7, 94
5, 87897, Control_c, 3, 7, 80
5, 87897, Control_c, 3, 7, 93
5, 87899, Control_c, 3, 7, 92
5, 87899, Control_c, 3, 7, 79
5, 87899, Control_c, 3, 7, 92
5, 87901, Control_c, 3, 7, 91
5, 87902, Control_c, 3, 7, 78
5, 87903, Control_c, 3, 7, 90
5, 87904, Control_c, 3, 7, 77
5, 87905, Control_c, 3, 7, 89
5, 87906, Control_c, 3, 7, 76
5, 87908, Control_c, 3, 7, 75
5, 87908, Control_c, 3, 7, 88
5, 87910, Control_c, 3, 7, 74
5, 87910, Control_c, 3, 7, 87
5, 87912, Control_c, 3, 7, 73
5, 87912, Control_c, 3, 7, 86
5, 87914, Control_c, 3, 7, 91
5, 87914, Control_c, 3, 7, 72
5, 87914, Control_c, 3, 7, 85
5, 87916, Control_c, 3, 7, 84
5, 87917, Control_c, 3, 7, 71
5, 87918, Control_c, 3, 7, 83
5, 87919, Control_c, 3, 7, 70
5, 87920, Control_c, 3, 7, 82
5, 87921, Control_c, 3, 7, 69
5, 87922, Control_c, 3, 7, 81
5, 87923, Control_c, 3, 7, 68
5, 87925, Control_c, 3, 7, 67
5, 87925, Control_c, 3, 7, 80
5, 87927, Control_c, 3, 7, 66
5, 87927, Control_c, 3, 7, 79
5, 87929, Control_c, 3, 7, 90
5, 87929, Control_c, 3, 7, 65
5, 87929, Control_c, 3, 7, 78
5, 87931, Control_c, 3, 7, 77
5, 87932, Control_c, 3, 7, 64
5, 87933, Control_c, 3, 7, 76
5, 87935, Control_c, 3, 7, 75
5, 87937, Control_c, 3, 7, 74
5, 87939, Control_c, 3, 7, 73
5, 87942, Control_c, 3, 7, 72
5, 87944, Control_c, 3, 7, 89
5, 87944, Control_c, 3, 7, 71
5, 87946, Control_c, 3, 7, 70
5, 87948, Control_c, 3, 7, 69
5, 87950, Control_c, 3, 7, 68
5, 87952, Control_c, 3, 7, 67
5, 87954, Control_c, 3, 7, 66
5, 87956, Control_c, 3, 7, 65
5, 87959, Control_c, 3, 7, 88
5, 87959, Control_c, 3, 7, 64
5, 87960, Control_c, 3, 7, 64
5, 87974, Control_c, 3, 7, 87
5, 87989, Control_c, 3, 7, 86
5, 88004, Control_c, 3, 7, 85
5, 88019, Control_c, 3, 7, 84
5, 88034, Control_c, 3, 7, 83
5, 88049, Control_c, 3, 7, 82
5, 88064, Control_c, 3, 7, 81
5, 88079, Control_c, 3, 7, 80
5, 88094, Control_c, 3, 7, 79
5, 88109, Control_c, 3, 7, 78
5, 88124, Control_c, 3, 7, 77
5, 88139, Control_c, 3, 7, 76
5, 88154, Control_c, 3, 7, 75
5, 88169, Control_c, 3, 7, 74
5, 88170, Note_on_c, 3, 59, 0
5, 88170, Note_on_c, 3, 55, 0
5, 88184, Control_c, 3, 7, 73
5, 88199, Control_c, 3, 7, 72
5, 88200, Note_on_c, 3, 54, 98
5, 88200, Note_on_c, 3, 57, 98
5, 88214, Control_c, 3, 7, 71
5, 88229, Control_c, 3, 7, 70
5, 88244, Control_c, 3, 7, 69
5, 88259, Control_c, 3, 7, 68
5, 88274, Control_c, 3, 7, 67
5, 88289, Control_c, 3, 7, 66
5, 88290, Note_on_c, 3, 57, 0
5, 88290, Note_on_c, 3, 54, 0
5, 88293, Control_c, 3, 7, 115
5, 88295, Control_c, 3, 7, 114
5, 88298, Control_c, 3, 7, 113
5, 88300, Control_c, 3, 7, 112
5, 88302, Control_c, 3, 7, 111
5, 88304, Control_c, 3, 7, 65
5, 88304, Control_c, 3, 7, 110
5, 88306, Control_c, 3, 7, 109
5, 88308, Control_c, 3, 7, 108
5, 88310, Control_c, 3, 7, 107
5, 88313, Control_c, 3, 7, 106
5, 88315, Control_c, 3, 7, 105
5, 88317, Control_c, 3, 7, 104
5, 88319, Control_c, 3, 7, 64
5, 88319, Control_c, 3, 7, 103
5, 88320, Note_on_c, 3, 55, 118
5, 88320, Note_on_c, 3, 59, 118
5, 88320, Control_c, 3, 7, 96
5, 88320, Control_c, 3, 7, 120
5, 88321, Control_c, 3, 7, 102
5, 88322, Control_c, 3, 7, 119
5, 88323, Control_c, 3, 7, 101
5, 88324, Control_c, 3, 7, 118
5, 88325, Control_c, 3, 7, 100
5, 88326, Control_c, 3, 7, 117
5, 88328, Control_c, 3, 7, 99
5, 88328, Control_c, 3, 7, 116
5, 88330, Control_c, 3, 7, 98
5, 88330, Control_c, 3, 7, 115
5, 88332, Control_c, 3, 7, 97
5, 88332, Control_c, 3, 7, 114
5, 88334, Control_c, 3, 7, 95
5, 88334, Control_c, 3, 7, 96
5, 88334, Control_c, 3, 7, 113
5, 88336, Control_c, 3, 7, 95
5, 88337, Control_c, 3, 7, 112
5, 88338, Control_c, 3, 7, 94
5, 88339, Control_c, 3, 7, 111
5, 88340, Control_c, 3, 7, 93
5, 88341, Control_c, 3, 7, 110
5, 88343, Control_c, 3, 7, 92
5, 88343, Control_c, 3, 7, 109
5, 88345, Control_c, 3, 7, 91
5, 88345, Control_c, 3, 7, 108
5, 88347, Control_c, 3, 7, 90
5, 88347, Control_c, 3, 7, 107
5, 88349, Control_c, 3, 7, 94
5, 88349, Control_c, 3, 7, 89
5, 88349, Control_c, 3, 7, 106
5, 88351, Control_c, 3, 7, 88
5, 88351, Control_c, 3, 7, 105
5, 88353, Control_c, 3, 7, 87
5, 88354, Control_c, 3, 7, 104
5, 88355, Control_c, 3, 7, 86
5, 88356, Control_c, 3, 7, 103
5, 88358, Control_c, 3, 7, 85
5, 88358, Control_c, 3, 7, 102
5, 88360, Control_c, 3, 7, 84
5, 88360, Control_c, 3, 7, 101
5, 88362, Control_c, 3, 7, 83
5, 88362, Control_c, 3, 7, 100
5, 88364, Control_c, 3, 7, 93
5, 88364, Control_c, 3, 7, 82
5, 88364, Control_c, 3, 7, 99
5, 88366, Control_c, 3, 7, 81
5, 88366, Control_c, 3, 7, 98
5, 88368, Control_c, 3, 7, 80
5, 88368, Control_c, 3, 7, 97
5, 88370, Control_c, 3, 7, 79
5, 88371, Control_c, 3, 7, 96
5, 88373, Control_c, 3, 7, 78
5, 88373, Control_c, 3, 7, 95
5, 88375, Control_c, 3, 7, 77
5, 88375, Control_c, 3, 7, 94
5, 88377, Control_c, 3, 7, 76
5, 88377, Control_c, 3, 7, 93
5, 88379, Control_c, 3, 7, 92
5, 88379, Control_c, 3, 7, 75
5, 88379, Control_c, 3, 7, 92
5, 88381, Control_c, 3, 7, 74
5, 88381, Control_c, 3, 7, 91
5, 88383, Control_c, 3, 7, 73
5, 88383, Control_c, 3, 7, 90
5, 88385, Control_c, 3, 7, 72
5, 88385, Control_c, 3, 7, 89
5, 88388, Control_c, 3, 7, 71
5, 88388, Control_c, 3, 7, 88
5, 88390, Control_c, 3, 7, 70
5, 88390, Control_c, 3, 7, 87
5, 88392, Control_c, 3, 7, 69
5, 88392, Control_c, 3, 7, 86
5, 88394, Control_c, 3, 7, 91
5, 88394, Control_c, 3, 7, 68
5, 88394, Control_c, 3, 7, 85
5, 88396, Control_c, 3, 7, 67
5, 88396, Control_c, 3, 7, 84
5, 88398, Control_c, 3, 7, 66
5, 88398, Control_c, 3, 7, 83
5, 88400, Control_c, 3, 7, 65
5, 88400, Control_c, 3, 7, 82
5, 88402, Control_c, 3, 7, 81
5, 88403, Control_c, 3, 7, 64
5, 88405, Control_c, 3, 7, 80
5, 88407, Control_c, 3, 7, 79
5, 88409, Control_c, 3, 7, 90
5, 88409, Control_c, 3, 7, 78
5, 88411, Control_c, 3, 7, 77
5, 88413, Control_c, 3, 7, 76
5, 88415, Control_c, 3, 7, 75
5, 88417, Control_c, 3, 7, 74
5, 88419, Control_c, 3, 7, 73
5, 88422, Control_c, 3, 7, 72
5, 88424, Control_c, 3, 7, 89
5, 88424, Control_c, 3, 7, 71
5, 88426, Control_c, 3, 7, 70
5, 88428, Control_c, 3, 7, 69
5, 88430, Control_c, 3, 7, 68
5, 88432, Control_c, 3, 7, 67
5, 88434, Control_c, 3, 7, 66
5, 88436, Control_c, 3, 7, 65
5, 88439, Control_c, 3, 7, 88
5, 88439, Control_c, 3, 7, 64
5, 88440, Control_c, 3, 7, 64
5, 88454, Control_c, 3, 7, 87
5, 88469, Control_c, 3, 7, 86
5, 88484, Control_c, 3, 7, 85
5, 88499, Control_c, 3, 7, 84
5, 88514, Control_c, 3, 7, 83
5, 88529, Control_c, 3, 7, 82
5, 88544, Control_c, 3, 7, 81
5, 88559, Control_c, 3, 7, 80
5, 88574, Control_c, 3, 7, 79
5, 88589, Control_c, 3, 7, 78
5, 88604, Control_c, 3, 7, 77
5, 88619, Control_c, 3, 7, 76
5, 88634, Control_c, 3, 7, 75
5, 88649, Control_c, 3, 7, 74
5, 88650, Note_on_c, 3, 59, 0
5, 88650, Note_on_c, 3, 55, 0
5, 88664, Control_c, 3, 7, 73
5, 88679, Control_c, 3, 7, 72
5, 88680, Note_on_c, 3, 54, 98
5, 88680, Note_on_c, 3, 57, 98
5, 88694, Control_c, 3, 7, 71
5, 88709, Control_c, 3, 7, 70
5, 88724, Control_c, 3, 7, 69
5, 88739, Control_c, 3, 7, 68
5, 88754, Control_c, 3, 7, 67
5, 88769, Control_c, 3, 7, 66
5, 88770, Note_on_c, 3, 57, 0
5, 88770, Note_on_c, 3, 54, 0
5, 88784, Control_c, 3, 7, 65
5, 88799, Control_c, 3, 7, 64
5, 88800, Note_on_c, 3, 52, 115
5, 88800, Note_on_c, 3, 55, 115
5, 88890, Note_on_c, 3, 55, 0
5, 88890, Note_on_c, 3, 52, 0
5, 89280, Note_on_c, 3, 57, 95
5, 89280, Note_on_c, 3, 61, 95
5, 89340, Note_on_c, 3, 61, 0
5, 89340, Note_on_c, 3, 57, 0
5, 89340, Note_on_c, 3, 59, 97
5, 89340, Note_on_c, 3, 62, 97
5, 89400, Note_on_c, 3, 62, 0
5, 89400, Note_on_c, 3, 59, 0
5, 89400, Note_on_c, 3, 61, 100
5, 89400, Note_on_c, 3, 64, 100
5, 89460, Note_on_c, 3, 64, 0
5, 89460, Note_on_c, 3, 61, 0
5, 89460, Note_on_c, 3, 59, 103
5, 89460, Note_on_c, 3, 62, 103
5, 89520, Note_on_c, 3, 62, 0
5, 89520, Note_on_c, 3, 59, 0
5, 89520, Note_on_c, 3, 57, 110
5, 89520, Note_on_c, 3, 61, 110
5, 89580, Note_on_c, 3, 61, 0
5, 89580, Note_on_c, 3, 57, 0
5, 89580, Note_on_c, 3, 55, 111
5, 89580, Note_on_c, 3, 59, 111
5, 89640, Note_on_c, 3, 59, 0
5, 89640, Note_on_c, 3, 55, 0
5, 89640, Note_on_c, 3, 54, 113
5, 89640, Note_on_c, 3, 57, 113
5, 89700, Note_on_c, 3, 57, 0
5, 89700, Note_on_c, 3, 54, 0
5, 89700, Note_on_c, 3, 52, 114
5, 89700, Note_on_c, 3, 55, 114
5, 89760, Note_on_c, 3, 55, 0
5, 89760, Note_on_c, 3, 52, 0
5, 89760, Note_on_c, 3, 54, 117
5, 89760, Note_on_c, 3, 50, 117
5, 89880, Note_on_c, 3, 50, 0
5, 89880, Note_on_c, 3, 54, 0
5, 89930, Control_c, 3, 7, 126
5, 90000, Note_on_c, 3, 50, 127
5, 90000, Note_on_c, 3, 62, 127
5, 90096, Note_on_c, 3, 62, 0
5, 90096, Note_on_c, 3, 50, 0
5, 90960, Note_on_c, 3, 48, 127
5, 90960, Note_on_c, 3, 60, 127
5, 91056, Note_on_c, 3, 60, 0
5, 91056, Note_on_c, 3, 48, 0
5, 91920, Note_on_c, 3, 46, 127
5, 91920, Note_on_c, 3, 58, 127
5, 92016, Note_on_c, 3, 58, 0
5, 92016, Note_on_c, 3, 46, 0
5, 92640, Note_on_c, 3, 57, 93
5, 92688, Note_on_c, 3, 57, 0
5, 92700, Note_on_c, 3, 57, 94
5, 92748, Note_on_c, 3, 57, 0
5, 92760, Note_on_c, 3, 57, 98
5, 92808, Note_on_c, 3, 57, 0
5, 92820, Note_on_c, 3, 57, 98
5, 92868, Note_on_c, 3, 57, 0
5, 92880, Note_on_c, 3, 57, 100
5, 92928, Note_on_c, 3, 57, 0
5, 92940, Note_on_c, 3, 57, 102
5, 92988, Note_on_c, 3, 57, 0
5, 93000, Note_on_c, 3, 57, 105
5, 93048, Note_on_c, 3, 57, 0
5, 93060, Note_on_c, 3, 57, 106
5, 93108, Note_on_c, 3, 57, 0
5, 93120, Note_on_c, 3, 57, 106
5, 93168, Note_on_c, 3, 57, 0
5, 93180, Note_on_c, 3, 57, 108
5, 93228, Note_on_c, 3, 57, 0
5, 93240, Note_on_c, 3, 57, 110
5, 93288, Note_on_c, 3, 57, 0
5, 93300, Note_on_c, 3, 57, 110
5, 93348, Note_on_c, 3, 57, 0
5, 93360, Note_on_c, 3, 57, 112
5, 93408, Note_on_c, 3, 57, 0
5, 93420, Note_on_c, 3, 57, 113
5, 93468, Note_on_c, 3, 57, 0
5, 93480, Note_on_c, 3, 57, 114
5, 93528, Note_on_c, 3, 57, 0
5, 93540, Note_on_c, 3, 57, 115
5, 93588, Note_on_c, 3, 57, 0
5, 93600, Note_on_c, 3, 57, 116
5, 93648, Note_on_c, 3, 57, 0
5, 93660, Note_on_c, 3, 57, 118
5, 93708, Note_on_c, 3, 57, 0
5, 93720, Note_on_c, 3, 57, 119
5, 93768, Note_on_c, 3, 57, 0
5, 93780, Note_on_c, 3, 57, 120
5, 93828, Note_on_c, 3, 57, 0
5, 93840, Note_on_c, 3, 57, 122
5, 93888, Note_on_c, 3, 57, 0
5, 93900, Note_on_c, 3, 57, 122
5, 93948, Note_on_c, 3, 57, 0
5, 93960, Note_on_c, 3, 57, 123
5, 94008, Note_on_c, 3, 57, 0
5, 94020, Note_on_c, 3, 57, 123
5, 94068, Note_on_c, 3, 57, 0
5, 94080, Note_on_c, 3, 57, 127
5, 94128, Note_on_c, 3, 57, 0
5, 94140, Note_on_c, 3, 57, 127
5, 94188, Note_on_c, 3, 57, 0
5, 94200, Note_on_c, 3, 57, 127
5, 94248, Note_on_c, 3, 57, 0
5, 94260, Note_on_c, 3, 57, 127
5, 94308, Note_on_c, 3, 57, 0
5, 94320, Note_on_c, 3, 57, 127
5, 94368, Note_on_c, 3, 57, 0
5, 94380, Note_on_c, 3, 57, 127
5, 94428, Note_on_c, 3, 57, 0
5, 94440, Note_on_c, 3, 57, 127
5, 94488, Note_on_c, 3, 57, 0
5, 94500, Note_on_c, 3, 57, 127
5, 94548, Note_on_c, 3, 57, 0
5, 94560, Note_on_c, 3, 50, 127
5, 94785, Note_on_c, 3, 50, 0
5, 94800, Control_c, 3, 7, 127
5, 94810, Control_c, 3, 7, 126
5, 94920, Note_on_c, 3, 50, 123
5, 95040, Note_on_c, 3, 50, 0
5, 95040, Note_on_c, 3, 52, 127
5, 95160, Note_on_c, 3, 52, 0
5, 95160, Note_on_c, 3, 54, 127
5, 95280, Note_on_c, 3, 54, 0
5, 95280, Note_on_c, 3, 55, 127
5, 95400, Note_on_c, 3, 55, 0
5, 95400, Note_on_c, 3, 56, 127
5, 95520, Note_on_c, 3, 56, 0
5, 95520, Note_on_c, 3, 59, 127
5, 95640, Note_on_c, 3, 59, 0
5, 95640, Note_on_c, 3, 57, 123
5, 95736, Note_on_c, 3, 57, 0
5, 95880, Note_on_c, 3, 50, 115
5, 96000, Note_on_c, 3, 50, 0
5, 96000, Note_on_c, 3, 52, 126
5, 96120, Note_on_c, 3, 52, 0
5, 96120, Note_on_c, 3, 54, 127
5, 96240, Note_on_c, 3, 54, 0
5, 96240, Note_on_c, 3, 55, 127
5, 96360, Note_on_c, 3, 55, 0
5, 96360, Note_on_c, 3, 56, 127
5, 96480, Note_on_c, 3, 56, 0
5, 96480, Note_on_c, 3, 59, 127
5, 96600, Note_on_c, 3, 59, 0
5, 96600, Note_on_c, 3, 57, 127
5, 96696, Note_on_c, 3, 57, 0
5, 96840, Note_on_c, 3, 50, 117
5, 96960, Note_on_c, 3, 50, 0
5, 96960, Note_on_c, 3, 52, 117
5, 97080, Note_on_c, 3, 52, 0
5, 97080, Note_on_c, 3, 54, 117
5, 97200, Note_on_c, 3, 54, 0
5, 97200, Note_on_c, 3, 55, 119
5, 97320, Note_on_c, 3, 55, 0
5, 97320, Note_on_c, 3, 57, 122
5, 97440, Note_on_c, 3, 57, 0
5, 97440, Note_on_c, 3, 58, 125
5, 97610, Control_c, 3, 7, 122
5, 97630, Control_c, 3, 7, 120
5, 97632, Note_on_c, 3, 58, 0
5, 97670, Control_c, 3, 7, 119
5, 97680, Note_on_c, 3, 57, 127
5, 97730, Control_c, 3, 7, 117
5, 97740, Control_c, 3, 7, 116
5, 97800, Control_c, 3, 7, 114
5, 97860, Control_c, 3, 7, 112
5, 97872, Note_on_c, 3, 57, 0
5, 97880, Control_c, 3, 7, 111
5, 97920, Note_on_c, 3, 56, 127
5, 97940, Control_c, 3, 7, 109
5, 98020, Control_c, 3, 7, 104
5, 98110, Control_c, 3, 7, 102
5, 98112, Note_on_c, 3, 56, 0
5, 98160, Note_on_c, 3, 55, 127
5, 98180, Control_c, 3, 7, 101
5, 98200, Control_c, 3, 7, 100
5, 98220, Control_c, 3, 7, 99
5, 98230, Control_c, 3, 7, 98
5, 98260, Control_c, 3, 7, 97
5, 98340, Note_on_c, 3, 55, 0
5, 98350, Control_c, 3, 7, 96
5, 98400, Note_on_c, 3, 54, 127
5, 98496, Note_on_c, 3, 54, 0
5, 98520, Note_on_c, 3, 54, 126
5, 98616, Note_on_c, 3, 54, 0
5, 98640, Note_on_c, 3, 55, 121
5, 98730, Control_c, 3, 7, 95
5, 98736, Note_on_c, 3, 55, 0
5, 98740, Control_c, 3, 7, 94
5, 98760, Note_on_c, 3, 55, 115
5, 98820, Control_c, 3, 7, 93
5, 98840, Control_c, 3, 7, 92
5, 98856, Note_on_c, 3, 55, 0
5, 98880, Note_on_c, 3, 57, 112
5, 98910, Control_c, 3, 7, 91
5, 98976, Note_on_c, 3, 57, 0
5, 98990, Control_c, 3, 7, 90
5, 99000, Note_on_c, 3, 57, 112
5, 99010, Control_c, 3, 7, 89
5, 99070, Control_c, 3, 7, 88
5, 99096, Note_on_c, 3, 57, 0
5, 99120, Note_on_c, 3, 45, 96
5, 99130, Control_c, 3, 7, 87
5, 99150, Control_c, 3, 7, 86
5, 99190, Control_c, 3, 7, 85
5, 99216, Note_on_c, 3, 45, 0
5, 99220, Control_c, 3, 7, 84
5, 99240, Note_on_c, 3, 45, 96
5, 99260, Control_c, 3, 7, 83
5, 99280, Control_c, 3, 7, 82
5, 99330, Control_c, 3, 7, 81
5, 99336, Note_on_c, 3, 45, 0
5, 99360, Note_on_c, 3, 50, 96
5, 99360, Control_c, 3, 7, 80
5, 99390, Control_c, 3, 7, 79
5, 99410, Control_c, 3, 7, 78
5, 99450, Control_c, 3, 7, 77
5, 99456, Note_on_c, 3, 50, 0
5, 99460, Control_c, 3, 7, 76
5, 99480, Control_c, 3, 7, 75
5, 100440, Control_c, 3, 7, 112
5, 100440, Control_c, 3, 7, 112
5, 100440, Note_on_c, 3, 52, 99
5, 100440, Note_on_c, 3, 55, 99
5, 100440, Control_c, 3, 7, 96
5, 100444, Control_c, 3, 7, 111
5, 100444, Control_c, 3, 7, 111
5, 100447, Control_c, 3, 7, 95
5, 100449, Control_c, 3, 7, 110
5, 100449, Control_c, 3, 7, 110
5, 100454, Control_c, 3, 7, 109
5, 100454, Control_c, 3, 7, 109
5, 100454, Control_c, 3, 7, 94
5, 100459, Control_c, 3, 7, 108
5, 100459, Control_c, 3, 7, 108
5, 100462, Control_c, 3, 7, 93
5, 100464, Control_c, 3, 7, 107
5, 100464, Control_c, 3, 7, 107
5, 100469, Control_c, 3, 7, 106
5, 100469, Control_c, 3, 7, 106
5, 100469, Control_c, 3, 7, 92
5, 100474, Control_c, 3, 7, 105
5, 100474, Control_c, 3, 7, 105
5, 100477, Control_c, 3, 7, 91
5, 100479, Control_c, 3, 7, 104
5, 100479, Control_c, 3, 7, 104
5, 100484, Control_c, 3, 7, 103
5, 100484, Control_c, 3, 7, 103
5, 100484, Control_c, 3, 7, 90
5, 100489, Control_c, 3, 7, 102
5, 100489, Control_c, 3, 7, 102
5, 100492, Control_c, 3, 7, 89
5, 100494, Control_c, 3, 7, 101
5, 100494, Control_c, 3, 7, 101
5, 100499, Control_c, 3, 7, 100
5, 100499, Control_c, 3, 7, 100
5, 100499, Control_c, 3, 7, 88
5, 100504, Control_c, 3, 7, 99
5, 100504, Control_c, 3, 7, 99
5, 100507, Control_c, 3, 7, 87
5, 100509, Control_c, 3, 7, 98
5, 100509, Control_c, 3, 7, 98
5, 100514, Control_c, 3, 7, 97
5, 100514, Control_c, 3, 7, 97
5, 100514, Control_c, 3, 7, 86
5, 100519, Control_c, 3, 7, 96
5, 100519, Control_c, 3, 7, 96
5, 100522, Control_c, 3, 7, 85
5, 100524, Control_c, 3, 7, 95
5, 100524, Control_c, 3, 7, 95
5, 100529, Control_c, 3, 7, 94
5, 100529, Control_c, 3, 7, 94
5, 100529, Control_c, 3, 7, 84
5, 100534, Control_c, 3, 7, 93
5, 100534, Control_c, 3, 7, 93
5, 100537, Control_c, 3, 7, 83
5, 100539, Control_c, 3, 7, 92
5, 100539, Control_c, 3, 7, 92
5, 100544, Control_c, 3, 7, 91
5, 100544, Control_c, 3, 7, 91
5, 100544, Control_c, 3, 7, 82
5, 100549, Control_c, 3, 7, 90
5, 100549, Control_c, 3, 7, 90
5, 100552, Control_c, 3, 7, 81
5, 100554, Control_c, 3, 7, 89
5, 100554, Control_c, 3, 7, 89
5, 100559, Control_c, 3, 7, 88
5, 100559, Control_c, 3, 7, 88
5, 100559, Control_c, 3, 7, 80
5, 100560, Note_on_c, 3, 55, 0
5, 100560, Note_on_c, 3, 52, 0
5, 100560, Note_on_c, 3, 50, 93
5, 100560, Note_on_c, 3, 54, 93
5, 100564, Control_c, 3, 7, 87
5, 100564, Control_c, 3, 7, 87
5, 100566, Control_c, 3, 7, 79
5, 100569, Control_c, 3, 7, 86
5, 100569, Control_c, 3, 7, 86
5, 100574, Control_c, 3, 7, 85
5, 100574, Control_c, 3, 7, 85
5, 100574, Control_c, 3, 7, 78
5, 100579, Control_c, 3, 7, 84
5, 100579, Control_c, 3, 7, 84
5, 100581, Control_c, 3, 7, 77
5, 100584, Control_c, 3, 7, 83
5, 100584, Control_c, 3, 7, 83
5, 100589, Control_c, 3, 7, 82
5, 100589, Control_c, 3, 7, 82
5, 100589, Control_c, 3, 7, 76
5, 100594, Control_c, 3, 7, 81
5, 100594, Control_c, 3, 7, 81
5, 100596, Control_c, 3, 7, 75
5, 100599, Control_c, 3, 7, 80
5, 100599, Control_c, 3, 7, 80
5, 100604, Control_c, 3, 7, 79
5, 100604, Control_c, 3, 7, 79
5, 100604, Control_c, 3, 7, 74
5, 100608, Note_on_c, 3, 54, 0
5, 100608, Note_on_c, 3, 50, 0
5, 100609, Control_c, 3, 7, 78
5, 100609, Control_c, 3, 7, 78
5, 100611, Control_c, 3, 7, 73
5, 100614, Control_c, 3, 7, 77
5, 100614, Control_c, 3, 7, 77
5, 100619, Control_c, 3, 7, 76
5, 100619, Control_c, 3, 7, 76
5, 100619, Control_c, 3, 7, 72
5, 100624, Control_c, 3, 7, 75
5, 100624, Control_c, 3, 7, 75
5, 100626, Control_c, 3, 7, 71
5, 100629, Control_c, 3, 7, 74
5, 100629, Control_c, 3, 7, 74
5, 100634, Control_c, 3, 7, 73
5, 100634, Control_c, 3, 7, 73
5, 100634, Control_c, 3, 7, 70
5, 100639, Control_c, 3, 7, 72
5, 100639, Control_c, 3, 7, 72
5, 100641, Control_c, 3, 7, 69
5, 100644, Control_c, 3, 7, 71
5, 100644, Control_c, 3, 7, 71
5, 100649, Control_c, 3, 7, 70
5, 100649, Control_c, 3, 7, 70
5, 100649, Control_c, 3, 7, 68
5, 100654, Control_c, 3, 7, 69
5, 100654, Control_c, 3, 7, 69
5, 100656, Control_c, 3, 7, 67
5, 100659, Control_c, 3, 7, 68
5, 100659, Control_c, 3, 7, 68
5, 100664, Control_c, 3, 7, 67
5, 100664, Control_c, 3, 7, 67
5, 100664, Control_c, 3, 7, 66
5, 100669, Control_c, 3, 7, 66
5, 100669, Control_c, 3, 7, 66
5, 100671, Control_c, 3, 7, 65
5, 100674, Control_c, 3, 7, 65
5, 100674, Control_c, 3, 7, 65
5, 100679, Control_c, 3, 7, 64
5, 100679, Control_c, 3, 7, 64
5, 100679, Control_c, 3, 7, 64
5, 101400, Control_c, 3, 7, 96
5, 101400, Control_c, 3, 7, 96
5, 101407, Control_c, 3, 7, 95
5, 101407, Control_c, 3, 7, 95
5, 101415, Control_c, 3, 7, 94
5, 101415, Control_c, 3, 7, 94
5, 101422, Control_c, 3, 7, 93
5, 101422, Control_c, 3, 7, 93
5, 101430, Control_c, 3, 7, 92
5, 101430, Control_c, 3, 7, 92
5, 101437, Control_c, 3, 7, 91
5, 101437, Control_c, 3, 7, 91
5, 101445, Control_c, 3, 7, 90
5, 101445, Control_c, 3, 7, 90
5, 101452, Control_c, 3, 7, 89
5, 101452, Control_c, 3, 7, 89
5, 101460, Control_c, 3, 7, 88
5, 101460, Control_c, 3, 7, 88
5, 101467, Control_c, 3, 7, 87
5, 101467, Control_c, 3, 7, 87
5, 101475, Control_c, 3, 7, 86
5, 101475, Control_c, 3, 7, 86
5, 101482, Control_c, 3, 7, 85
5, 101482, Control_c, 3, 7, 85
5, 101490, Control_c, 3, 7, 84
5, 101490, Control_c, 3, 7, 84
5, 101497, Control_c, 3, 7, 83
5, 101497, Control_c, 3, 7, 83
5, 101505, Control_c, 3, 7, 82
5, 101505, Control_c, 3, 7, 82
5, 101512, Control_c, 3, 7, 81
5, 101512, Control_c, 3, 7, 81
5, 101520, Control_c, 3, 7, 80
5, 101520, Control_c, 3, 7, 80
5, 101527, Control_c, 3, 7, 79
5, 101527, Control_c, 3, 7, 79
5, 101535, Control_c, 3, 7, 78
5, 101535, Control_c, 3, 7, 78
5, 101542, Control_c, 3, 7, 77
5, 101542, Control_c, 3, 7, 77
5, 101550, Control_c, 3, 7, 76
5, 101550, Control_c, 3, 7, 76
5, 101557, Control_c, 3, 7, 75
5, 101557, Control_c, 3, 7, 75
5, 101565, Control_c, 3, 7, 74
5, 101565, Control_c, 3, 7, 74
5, 101572, Control_c, 3, 7, 73
5, 101572, Control_c, 3, 7, 73
5, 101580, Control_c, 3, 7, 72
5, 101580, Control_c, 3, 7, 72
5, 101587, Control_c, 3, 7, 71
5, 101587, Control_c, 3, 7, 71
5, 101595, Control_c, 3, 7, 70
5, 101595, Control_c, 3, 7, 70
5, 101602, Control_c, 3, 7, 69
5, 101602, Control_c, 3, 7, 69
5, 101610, Control_c, 3, 7, 68
5, 101610, Control_c, 3, 7, 68
5, 101617, Control_c, 3, 7, 67
5, 101617, Control_c, 3, 7, 67
5, 101625, Control_c, 3, 7, 66
5, 101625, Control_c, 3, 7, 66
5, 101632, Control_c, 3, 7, 65
5, 101632, Control_c, 3, 7, 65
5, 101640, Control_c, 3, 7, 64
5, 101640, Control_c, 3, 7, 64
5, 102250, Control_c, 3, 7, 82
5, 102600, Note_on_c, 3, 64, 66
5, 102720, Note_on_c, 3, 64, 0
5, 102720, Note_on_c, 3, 65, 74
5, 102840, Note_on_c, 3, 65, 0
5, 102840, Note_on_c, 3, 66, 86
5, 102960, Note_on_c, 3, 66, 0
5, 102960, Note_on_c, 3, 67, 90
5, 103320, Note_on_c, 3, 67, 0
5, 103320, Note_on_c, 3, 64, 100
5, 103416, Note_on_c, 3, 64, 0
5, 103440, Note_on_c, 3, 65, 103
5, 103500, Note_on_c, 3, 65, 0
5, 103560, Note_on_c, 3, 57, 104
5, 103620, Note_on_c, 3, 57, 0
5, 103680, Note_on_c, 3, 62, 104
5, 103740, Note_on_c, 3, 62, 0
5, 103800, Note_on_c, 3, 58, 104
5, 103860, Note_on_c, 3, 58, 0
5, 103920, Note_on_c, 3, 63, 104
5, 103980, Note_on_c, 3, 63, 0
5, 104040, Note_on_c, 3, 55, 104
5, 104100, Note_on_c, 3, 55, 0
5, 104160, Note_on_c, 3, 61, 104
5, 104280, Note_on_c, 3, 61, 0
5, 104280, Note_on_c, 3, 64, 103
5, 104400, Note_on_c, 3, 64, 0
5, 104400, Note_on_c, 3, 62, 102
5, 104460, Note_on_c, 3, 62, 0
5, 104520, Note_on_c, 3, 58, 102
5, 104580, Note_on_c, 3, 58, 0
5, 104640, Note_on_c, 3, 55, 100
5, 104700, Note_on_c, 3, 55, 0
5, 104760, Note_on_c, 3, 52, 96
5, 104820, Note_on_c, 3, 52, 0
5, 104840, Control_c, 3, 7, 69
5, 104870, Control_c, 3, 7, 68
5, 104880, Note_on_c, 3, 57, 91
5, 104890, Control_c, 3, 7, 67
5, 104900, Control_c, 3, 7, 66
5, 104940, Note_on_c, 3, 57, 0
5, 104960, Control_c, 3, 7, 64
5, 105000, Note_on_c, 3, 45, 80
5, 105000, Control_c, 3, 7, 63
5, 105010, Control_c, 3, 7, 62
5, 105020, Control_c, 3, 7, 61
5, 105030, Control_c, 3, 7, 60
5, 105050, Control_c, 3, 7, 59
5, 105060, Note_on_c, 3, 45, 0
5, 105070, Control_c, 3, 7, 58
5, 105080, Control_c, 3, 7, 57
5, 105090, Control_c, 3, 7, 56
5, 105120, Note_on_c, 3, 50, 70
5, 105120, Control_c, 3, 7, 55
5, 105130, Control_c, 3, 7, 54
5, 105150, Control_c, 3, 7, 53
5, 105170, Control_c, 3, 7, 52
5, 105210, Note_on_c, 3, 50, 0
5, 105570, Control_c, 3, 7, 84
5, 106080, Control_c, 3, 7, 64
5, 106080, Control_c, 3, 7, 64
5, 106109, Control_c, 3, 7, 65
5, 106109, Control_c, 3, 7, 65
5, 106139, Control_c, 3, 7, 66
5, 106139, Control_c, 3, 7, 66
5, 106169, Control_c, 3, 7, 67
5, 106169, Control_c, 3, 7, 67
5, 106199, Control_c, 3, 7, 68
5, 106199, Control_c, 3, 7, 68
5, 106229, Control_c, 3, 7, 69
5, 106229, Control_c, 3, 7, 69
5, 106259, Control_c, 3, 7, 70
5, 106259, Control_c, 3, 7, 70
5, 106289, Control_c, 3, 7, 71
5, 106289, Control_c, 3, 7, 71
5, 106319, Control_c, 3, 7, 72
5, 106319, Control_c, 3, 7, 72
5, 106349, Control_c, 3, 7, 73
5, 106349, Control_c, 3, 7, 73
5, 106379, Control_c, 3, 7, 74
5, 106379, Control_c, 3, 7, 74
5, 106409, Control_c, 3, 7, 75
5, 106409, Control_c, 3, 7, 75
5, 106439, Control_c, 3, 7, 76
5, 106439, Control_c, 3, 7, 76
5, 106469, Control_c, 3, 7, 77
5, 106469, Control_c, 3, 7, 77
5, 106499, Control_c, 3, 7, 78
5, 106499, Control_c, 3, 7, 78
5, 106529, Control_c, 3, 7, 79
5, 106529, Control_c, 3, 7, 79
5, 106559, Control_c, 3, 7, 80
5, 106559, Control_c, 3, 7, 80
5, 106589, Control_c, 3, 7, 81
5, 106589, Control_c, 3, 7, 81
5, 106619, Control_c, 3, 7, 82
5, 106619, Control_c, 3, 7, 82
5, 106649, Control_c, 3, 7, 83
5, 106649, Control_c, 3, 7, 83
5, 106679, Control_c, 3, 7, 84
5, 106679, Control_c, 3, 7, 84
5, 106709, Control_c, 3, 7, 85
5, 106709, Control_c, 3, 7, 85
5, 106739, Control_c, 3, 7, 86
5, 106739, Control_c, 3, 7, 86
5, 106769, Control_c, 3, 7, 87
5, 106769, Control_c, 3, 7, 87
5, 106799, Control_c, 3, 7, 88
5, 106799, Control_c, 3, 7, 88
5, 106829, Control_c, 3, 7, 89
5, 106829, Control_c, 3, 7, 89
5, 106859, Control_c, 3, 7, 90
5, 106859, Control_c, 3, 7, 90
5, 106889, Control_c, 3, 7, 91
5, 106889, Control_c, 3, 7, 91
5, 106919, Control_c, 3, 7, 92
5, 106919, Control_c, 3, 7, 92
5, 106949, Control_c, 3, 7, 93
5, 106949, Control_c, 3, 7, 93
5, 106979, Control_c, 3, 7, 94
5, 106979, Control_c, 3, 7, 94
5, 107009, Control_c, 3, 7, 95
5, 107009, Control_c, 3, 7, 95
5, 107039, Control_c, 3, 7, 96
5, 107039, Control_c, 3, 7, 96
5, 107040, Control_c, 3, 7, 96
5, 107040, Control_c, 3, 7, 96
5, 107054, Control_c, 3, 7, 95
5, 107054, Control_c, 3, 7, 95
5, 107069, Control_c, 3, 7, 94
5, 107069, Control_c, 3, 7, 94
5, 107084, Control_c, 3, 7, 93
5, 107084, Control_c, 3, 7, 93
5, 107099, Control_c, 3, 7, 92
5, 107099, Control_c, 3, 7, 92
5, 107114, Control_c, 3, 7, 91
5, 107114, Control_c, 3, 7, 91
5, 107129, Control_c, 3, 7, 90
5, 107129, Control_c, 3, 7, 90
5, 107144, Control_c, 3, 7, 89
5, 107144, Control_c, 3, 7, 89
5, 107159, Control_c, 3, 7, 88
5, 107159, Control_c, 3, 7, 88
5, 107174, Control_c, 3, 7, 87
5, 107174, Control_c, 3, 7, 87
5, 107189, Control_c, 3, 7, 86
5, 107189, Control_c, 3, 7, 86
5, 107204, Control_c, 3, 7, 85
5, 107204, Control_c, 3, 7, 85
5, 107219, Control_c, 3, 7, 84
5, 107219, Control_c, 3, 7, 84
5, 107234, Control_c, 3, 7, 83
5, 107234, Control_c, 3, 7, 83
5, 107249, Control_c, 3, 7, 82
5, 107249, Control_c, 3, 7, 82
5, 107264, Control_c, 3, 7, 81
5, 107264, Control_c, 3, 7, 81
5, 107279, Control_c, 3, 7, 80
5, 107279, Control_c, 3, 7, 80
5, 107294, Control_c, 3, 7, 79
5, 107294, Control_c, 3, 7, 79
5, 107309, Control_c, 3, 7, 78
5, 107309, Control_c, 3, 7, 78
5, 107324, Control_c, 3, 7, 77
5, 107324, Control_c, 3, 7, 77
5, 107339, Control_c, 3, 7, 76
5, 107339, Control_c, 3, 7, 76
5, 107354, Control_c, 3, 7, 75
5, 107354, Control_c, 3, 7, 75
5, 107369, Control_c, 3, 7, 74
5, 107369, Control_c, 3, 7, 74
5, 107384, Control_c, 3, 7, 73
5, 107384, Control_c, 3, 7, 73
5, 107399, Control_c, 3, 7, 72
5, 107399, Control_c, 3, 7, 72
5, 107414, Control_c, 3, 7, 71
5, 107414, Control_c, 3, 7, 71
5, 107429, Control_c, 3, 7, 70
5, 107429, Control_c, 3, 7, 70
5, 107444, Control_c, 3, 7, 69
5, 107444, Control_c, 3, 7, 69
5, 107459, Control_c, 3, 7, 68
5, 107459, Control_c, 3, 7, 68
5, 107474, Control_c, 3, 7, 67
5, 107474, Control_c, 3, 7, 67
5, 107489, Control_c, 3, 7, 66
5, 107489, Control_c, 3, 7, 66
5, 107504, Control_c, 3, 7, 65
5, 107504, Control_c, 3, 7, 65
5, 107519, Control_c, 3, 7, 64
5, 107519, Control_c, 3, 7, 64
5, 108000, Control_c, 3, 7, 64
5, 108000, Control_c, 3, 7, 64
5, 108029, Control_c, 3, 7, 65
5, 108029, Control_c, 3, 7, 65
5, 108059, Control_c, 3, 7, 66
5, 108059, Control_c, 3, 7, 66
5, 108089, Control_c, 3, 7, 67
5, 108089, Control_c, 3, 7, 67
5, 108119, Control_c, 3, 7, 68
5, 108119, Control_c, 3, 7, 68
5, 108149, Control_c, 3, 7, 69
5, 108149, Control_c, 3, 7, 69
5, 108179, Control_c, 3, 7, 70
5, 108179, Control_c, 3, 7, 70
5, 108209, Control_c, 3, 7, 71
5, 108209, Control_c, 3, 7, 71
5, 108239, Control_c, 3, 7, 72
5, 108239, Control_c, 3, 7, 72
5, 108269, Control_c, 3, 7, 73
5, 108269, Control_c, 3, 7, 73
5, 108299, Control_c, 3, 7, 74
5, 108299, Control_c, 3, 7, 74
5, 108329, Control_c, 3, 7, 75
5, 108329, Control_c, 3, 7, 75
5, 108359, Control_c, 3, 7, 76
5, 108359, Control_c, 3, 7, 76
5, 108389, Control_c, 3, 7, 77
5, 108389, Control_c, 3, 7, 77
5, 108419, Control_c, 3, 7, 78
5, 108419, Control_c, 3, 7, 78
5, 108449, Control_c, 3, 7, 79
5, 108449, Control_c, 3, 7, 79
5, 108479, Control_c, 3, 7, 80
5, 108479, Control_c, 3, 7, 80
5, 108509, Control_c, 3, 7, 81
5, 108509, Control_c, 3, 7, 81
5, 108539, Control_c, 3, 7, 82
5, 108539, Control_c, 3, 7, 82
5, 108569, Control_c, 3, 7, 83
5, 108569, Control_c, 3, 7, 83
5, 108599, Control_c, 3, 7, 84
5, 108599, Control_c, 3, 7, 84
5, 108629, Control_c, 3, 7, 85
5, 108629, Control_c, 3, 7, 85
5, 108659, Control_c, 3, 7, 86
5, 108659, Control_c, 3, 7, 86
5, 108689, Control_c, 3, 7, 87
5, 108689, Control_c, 3, 7, 87
5, 108719, Control_c, 3, 7, 88
5, 108719, Control_c, 3, 7, 88
5, 108749, Control_c, 3, 7, 89
5, 108749, Control_c, 3, 7, 89
5, 108779, Control_c, 3, 7, 90
5, 108779, Control_c, 3, 7, 90
5, 108809, Control_c, 3, 7, 91
5, 108809, Control_c, 3, 7, 91
5, 108839, Control_c, 3, 7, 92
5, 108839, Control_c, 3, 7, 92
5, 108869, Control_c, 3, 7, 93
5, 108869, Control_c, 3, 7, 93
5, 108899, Control_c, 3, 7, 94
5, 108899, Control_c, 3, 7, 94
5, 108929, Control_c, 3, 7, 95
5, 108929, Control_c, 3, 7, 95
5, 108959, Control_c, 3, 7, 96
5, 108959, Control_c, 3, 7, 96
5, 108960, Control_c, 3, 7, 96
5, 108960, Control_c, 3, 7, 96
5, 108974, Control_c, 3, 7, 95
5, 108974, Control_c, 3, 7, 95
5, 108989, Control_c, 3, 7, 94
5, 108989, Control_c, 3, 7, 94
5, 109004, Control_c, 3, 7, 93
5, 109004, Control_c, 3, 7, 93
5, 109019, Control_c, 3, 7, 92
5, 109019, Control_c, 3, 7, 92
5, 109034, Control_c, 3, 7, 91
5, 109034, Control_c, 3, 7, 91
5, 109049, Control_c, 3, 7, 90
5, 109049, Control_c, 3, 7, 90
5, 109064, Control_c, 3, 7, 89
5, 109064, Control_c, 3, 7, 89
5, 109079, Control_c, 3, 7, 88
5, 109079, Control_c, 3, 7, 88
5, 109094, Control_c, 3, 7, 87
5, 109094, Control_c, 3, 7, 87
5, 109109, Control_c, 3, 7, 86
5, 109109, Control_c, 3, 7, 86
5, 109124, Control_c, 3, 7, 85
5, 109124, Control_c, 3, 7, 85
5, 109139, Control_c, 3, 7, 84
5, 109139, Control_c, 3, 7, 84
5, 109154, Control_c, 3, 7, 83
5, 109154, Control_c, 3, 7, 83
5, 109169, Control_c, 3, 7, 82
5, 109169, Control_c, 3, 7, 82
5, 109184, Control_c, 3, 7, 81
5, 109184, Control_c, 3, 7, 81
5, 109199, Control_c, 3, 7, 80
5, 109199, Control_c, 3, 7, 80
5, 109214, Control_c, 3, 7, 79
5, 109214, Control_c, 3, 7, 79
5, 109229, Control_c, 3, 7, 78
5, 109229, Control_c, 3, 7, 78
5, 109244, Control_c, 3, 7, 77
5, 109244, Control_c, 3, 7, 77
5, 109259, Control_c, 3, 7, 76
5, 109259, Control_c, 3, 7, 76
5, 109274, Control_c, 3, 7, 75
5, 109274, Control_c, 3, 7, 75
5, 109289, Control_c, 3, 7, 74
5, 109289, Control_c, 3, 7, 74
5, 109304, Control_c, 3, 7, 73
5, 109304, Control_c, 3, 7, 73
5, 109319, Control_c, 3, 7, 72
5, 109319, Control_c, 3, 7, 72
5, 109334, Control_c, 3, 7, 71
5, 109334, Control_c, 3, 7, 71
5, 109349, Control_c, 3, 7, 70
5, 109349, Control_c, 3, 7, 70
5, 109364, Control_c, 3, 7, 69
5, 109364, Control_c, 3, 7, 69
5, 109379, Control_c, 3, 7, 68
5, 109379, Control_c, 3, 7, 68
5, 109394, Control_c, 3, 7, 67
5, 109394, Control_c, 3, 7, 67
5, 109409, Control_c, 3, 7, 66
5, 109409, Control_c, 3, 7, 66
5, 109424, Control_c, 3, 7, 65
5, 109424, Control_c, 3, 7, 65
5, 109439, Control_c, 3, 7, 64
5, 109439, Control_c, 3, 7, 64
5, 109440, Note_on_c, 3, 50, 95
5, 109800, Note_on_c, 3, 50, 0
5, 109800, Note_on_c, 3, 54, 105
5, 109890, Note_on_c, 3, 54, 0
5, 109920, Note_on_c, 3, 52, 109
5, 109920, Control_c, 3, 7, 64
5, 109920, Control_c, 3, 7, 64
5, 109949, Control_c, 3, 7, 65
5, 109949, Control_c, 3, 7, 65
5, 109979, Control_c, 3, 7, 66
5, 109979, Control_c, 3, 7, 66
5, 110009, Control_c, 3, 7, 67
5, 110009, Control_c, 3, 7, 67
5, 110039, Control_c, 3, 7, 68
5, 110039, Control_c, 3, 7, 68
5, 110040, Note_on_c, 3, 52, 0
5, 110040, Note_on_c, 3, 49, 115
5, 110069, Control_c, 3, 7, 69
5, 110069, Control_c, 3, 7, 69
5, 110099, Control_c, 3, 7, 70
5, 110099, Control_c, 3, 7, 70
5, 110129, Control_c, 3, 7, 71
5, 110129, Control_c, 3, 7, 71
5, 110159, Control_c, 3, 7, 72
5, 110159, Control_c, 3, 7, 72
5, 110160, Note_on_c, 3, 49, 0
5, 110160, Note_on_c, 3, 47, 119
5, 110189, Control_c, 3, 7, 73
5, 110189, Control_c, 3, 7, 73
5, 110219, Control_c, 3, 7, 74
5, 110219, Control_c, 3, 7, 74
5, 110249, Control_c, 3, 7, 75
5, 110249, Control_c, 3, 7, 75
5, 110279, Control_c, 3, 7, 76
5, 110279, Control_c, 3, 7, 76
5, 110280, Note_on_c, 3, 47, 0
5, 110280, Note_on_c, 3, 45, 121
5, 110309, Control_c, 3, 7, 77
5, 110309, Control_c, 3, 7, 77
5, 110339, Control_c, 3, 7, 78
5, 110339, Control_c, 3, 7, 78
5, 110369, Control_c, 3, 7, 79
5, 110369, Control_c, 3, 7, 79
5, 110370, Note_on_c, 3, 45, 0
5, 110399, Control_c, 3, 7, 80
5, 110399, Control_c, 3, 7, 80
5, 110400, Note_on_c, 3, 57, 123
5, 110429, Control_c, 3, 7, 81
5, 110429, Control_c, 3, 7, 81
5, 110459, Control_c, 3, 7, 82
5, 110459, Control_c, 3, 7, 82
5, 110489, Control_c, 3, 7, 83
5, 110489, Control_c, 3, 7, 83
5, 110490, Note_on_c, 3, 57, 0
5, 110519, Control_c, 3, 7, 84
5, 110519, Control_c, 3, 7, 84
5, 110520, Note_on_c, 3, 57, 125
5, 110549, Control_c, 3, 7, 85
5, 110549, Control_c, 3, 7, 85
5, 110579, Control_c, 3, 7, 86
5, 110579, Control_c, 3, 7, 86
5, 110609, Control_c, 3, 7, 87
5, 110609, Control_c, 3, 7, 87
5, 110610, Note_on_c, 3, 57, 0
5, 110639, Control_c, 3, 7, 88
5, 110639, Control_c, 3, 7, 88
5, 110640, Note_on_c, 3, 57, 125
5, 110669, Control_c, 3, 7, 89
5, 110669, Control_c, 3, 7, 89
5, 110699, Control_c, 3, 7, 90
5, 110699, Control_c, 3, 7, 90
5, 110729, Control_c, 3, 7, 91
5, 110729, Control_c, 3, 7, 91
5, 110730, Note_on_c, 3, 57, 0
5, 110759, Control_c, 3, 7, 92
5, 110759, Control_c, 3, 7, 92
5, 110760, Note_on_c, 3, 57, 125
5, 110789, Control_c, 3, 7, 93
5, 110789, Control_c, 3, 7, 93
5, 110819, Control_c, 3, 7, 94
5, 110819, Control_c, 3, 7, 94
5, 110849, Control_c, 3, 7, 95
5, 110849, Control_c, 3, 7, 95
5, 110850, Note_on_c, 3, 57, 0
5, 110879, Control_c, 3, 7, 96
5, 110879, Control_c, 3, 7, 96
5, 110880, Note_on_c, 3, 57, 124
5, 110880, Control_c, 3, 7, 96
5, 110880, Control_c, 3, 7, 96
5, 110894, Control_c, 3, 7, 95
5, 110894, Control_c, 3, 7, 95
5, 110909, Control_c, 3, 7, 94
5, 110909, Control_c, 3, 7, 94
5, 110924, Control_c, 3, 7, 93
5, 110924, Control_c, 3, 7, 93
5, 110939, Control_c, 3, 7, 92
5, 110939, Control_c, 3, 7, 92
5, 110954, Control_c, 3, 7, 91
5, 110954, Control_c, 3, 7, 91
5, 110969, Control_c, 3, 7, 90
5, 110969, Control_c, 3, 7, 90
5, 110984, Control_c, 3, 7, 89
5, 110984, Control_c, 3, 7, 89
5, 110999, Control_c, 3, 7, 88
5, 110999, Control_c, 3, 7, 88
5, 111014, Control_c, 3, 7, 87
5, 111014, Control_c, 3, 7, 87
5, 111029, Control_c, 3, 7, 86
5, 111029, Control_c, 3, 7, 86
5, 111044, Control_c, 3, 7, 85
5, 111044, Control_c, 3, 7, 85
5, 111059, Control_c, 3, 7, 84
5, 111059, Control_c, 3, 7, 84
5, 111074, Control_c, 3, 7, 83
5, 111074, Control_c, 3, 7, 83
5, 111089, Control_c, 3, 7, 82
5, 111089, Control_c, 3, 7, 82
5, 111104, Control_c, 3, 7, 81
5, 111104, Control_c, 3, 7, 81
5, 111119, Control_c, 3, 7, 80
5, 111119, Control_c, 3, 7, 80
5, 111120, Note_on_c, 3, 57, 0
5, 111120, Note_on_c, 3, 54, 115
5, 111134, Control_c, 3, 7, 79
5, 111134, Control_c, 3, 7, 79
5, 111149, Control_c, 3, 7, 78
5, 111149, Control_c, 3, 7, 78
5, 111164, Control_c, 3, 7, 77
5, 111164, Control_c, 3, 7, 77
5, 111179, Control_c, 3, 7, 76
5, 111179, Control_c, 3, 7, 76
5, 111194, Control_c, 3, 7, 75
5, 111194, Control_c, 3, 7, 75
5, 111209, Control_c, 3, 7, 74
5, 111209, Control_c, 3, 7, 74
5, 111224, Control_c, 3, 7, 73
5, 111224, Control_c, 3, 7, 73
5, 111239, Control_c, 3, 7, 72
5, 111239, Control_c, 3, 7, 72
5, 111240, Note_on_c, 3, 54, 0
5, 111254, Control_c, 3, 7, 71
5, 111254, Control_c, 3, 7, 71
5, 111269, Control_c, 3, 7, 70
5, 111269, Control_c, 3, 7, 70
5, 111284, Control_c, 3, 7, 69
5, 111284, Control_c, 3, 7, 69
5, 111299, Control_c, 3, 7, 68
5, 111299, Control_c, 3, 7, 68
5, 111314, Control_c, 3, 7, 67
5, 111314, Control_c, 3, 7, 67
5, 111329, Control_c, 3, 7, 66
5, 111329, Control_c, 3, 7, 66
5, 111344, Control_c, 3, 7, 65
5, 111344, Control_c, 3, 7, 65
5, 111359, Control_c, 3, 7, 64
5, 111359, Control_c, 3, 7, 64
5, 111360, Note_on_c, 3, 62, 102
5, 111720, Note_on_c, 3, 62, 0
5, 111720, Note_on_c, 3, 54, 100
5, 111810, Note_on_c, 3, 54, 0
5, 111840, Note_on_c, 3, 52, 103
5, 111840, Control_c, 3, 7, 64
5, 111840, Control_c, 3, 7, 64
5, 111869, Control_c, 3, 7, 65
5, 111869, Control_c, 3, 7, 65
5, 111899, Control_c, 3, 7, 66
5, 111899, Control_c, 3, 7, 66
5, 111929, Control_c, 3, 7, 67
5, 111929, Control_c, 3, 7, 67
5, 111959, Control_c, 3, 7, 68
5, 111959, Control_c, 3, 7, 68
5, 111960, Note_on_c, 3, 52, 0
5, 111960, Note_on_c, 3, 55, 106
5, 111989, Control_c, 3, 7, 69
5, 111989, Control_c, 3, 7, 69
5, 112019, Control_c, 3, 7, 70
5, 112019, Control_c, 3, 7, 70
5, 112049, Control_c, 3, 7, 71
5, 112049, Control_c, 3, 7, 71
5, 112079, Control_c, 3, 7, 72
5, 112079, Control_c, 3, 7, 72
5, 112080, Note_on_c, 3, 55, 0
5, 112080, Note_on_c, 3, 59, 108
5, 112109, Control_c, 3, 7, 73
5, 112109, Control_c, 3, 7, 73
5, 112139, Control_c, 3, 7, 74
5, 112139, Control_c, 3, 7, 74
5, 112169, Control_c, 3, 7, 75
5, 112169, Control_c, 3, 7, 75
5, 112170, Note_on_c, 3, 59, 0
5, 112199, Control_c, 3, 7, 76
5, 112199, Control_c, 3, 7, 76
5, 112200, Note_on_c, 3, 59, 115
5, 112229, Control_c, 3, 7, 77
5, 112229, Control_c, 3, 7, 77
5, 112259, Control_c, 3, 7, 78
5, 112259, Control_c, 3, 7, 78
5, 112289, Control_c, 3, 7, 79
5, 112289, Control_c, 3, 7, 79
5, 112290, Note_on_c, 3, 59, 0
5, 112319, Control_c, 3, 7, 80
5, 112319, Control_c, 3, 7, 80
5, 112320, Note_on_c, 3, 55, 127
5, 112349, Control_c, 3, 7, 81
5, 112349, Control_c, 3, 7, 81
5, 112379, Control_c, 3, 7, 82
5, 112379, Control_c, 3, 7, 82
5, 112409, Control_c, 3, 7, 83
5, 112409, Control_c, 3, 7, 83
5, 112439, Control_c, 3, 7, 84
5, 112439, Control_c, 3, 7, 84
5, 112440, Note_on_c, 3, 55, 0
5, 112440, Note_on_c, 3, 52, 123
5, 112469, Control_c, 3, 7, 85
5, 112469, Control_c, 3, 7, 85
5, 112499, Control_c, 3, 7, 86
5, 112499, Control_c, 3, 7, 86
5, 112529, Control_c, 3, 7, 87
5, 112529, Control_c, 3, 7, 87
5, 112559, Control_c, 3, 7, 88
5, 112559, Control_c, 3, 7, 88
5, 112560, Note_on_c, 3, 52, 0
5, 112560, Note_on_c, 3, 49, 111
5, 112589, Control_c, 3, 7, 89
5, 112589, Control_c, 3, 7, 89
5, 112619, Control_c, 3, 7, 90
5, 112619, Control_c, 3, 7, 90
5, 112649, Control_c, 3, 7, 91
5, 112649, Control_c, 3, 7, 91
5, 112650, Note_on_c, 3, 49, 0
5, 112679, Control_c, 3, 7, 92
5, 112679, Control_c, 3, 7, 92
5, 112680, Note_on_c, 3, 49, 109
5, 112709, Control_c, 3, 7, 93
5, 112709, Control_c, 3, 7, 93
5, 112739, Control_c, 3, 7, 94
5, 112739, Control_c, 3, 7, 94
5, 112769, Control_c, 3, 7, 95
5, 112769, Control_c, 3, 7, 95
5, 112770, Note_on_c, 3, 49, 0
5, 112799, Control_c, 3, 7, 96
5, 112799, Control_c, 3, 7, 96
5, 112800, Note_on_c, 3, 50, 99
5, 112890, Note_on_c, 3, 50, 0
5, 114600, Control_c, 3, 7, 26
5, 114720, Note_on_c, 3, 54, 124
5, 114720, Note_on_c, 3, 57, 124
5, 114820, Control_c, 3, 7, 27
5, 114880, Control_c, 3, 7, 28
5, 114890, Control_c, 3, 7, 29
5, 114940, Control_c, 3, 7, 30
5, 115000, Control_c, 3, 7, 31
5, 115070, Control_c, 3, 7, 32
5, 115080, Control_c, 3, 7, 33
5, 115200, Control_c, 3, 7, 35
5, 115280, Control_c, 3, 7, 36
5, 115340, Control_c, 3, 7, 38
5, 115400, Control_c, 3, 7, 40
5, 115440, Note_on_c, 3, 57, 0
5, 115440, Note_on_c, 3, 54, 0
5, 115440, Note_on_c, 3, 60, 125
5, 115440, Note_on_c, 3, 57, 125
5, 115460, Control_c, 3, 7, 41
5, 115540, Control_c, 3, 7, 42
5, 115600, Control_c, 3, 7, 43
5, 115660, Control_c, 3, 7, 45
5, 115680, Note_on_c, 3, 57, 0
5, 115680, Note_on_c, 3, 60, 0
5, 115680, Note_on_c, 3, 59, 126
5, 115680, Note_on_c, 3, 55, 126
5, 115740, Control_c, 3, 7, 46
5, 115820, Control_c, 3, 7, 48
5, 115920, Note_on_c, 3, 55, 0
5, 115920, Note_on_c, 3, 59, 0
5, 115920, Note_on_c, 3, 62, 126
5, 115920, Note_on_c, 3, 59, 126
5, 115920, Control_c, 3, 7, 50
5, 116020, Control_c, 3, 7, 52
5, 116080, Control_c, 3, 7, 53
5, 116140, Control_c, 3, 7, 55
5, 116160, Note_on_c, 3, 59, 0
5, 116160, Note_on_c, 3, 62, 0
5, 116160, Note_on_c, 3, 61, 126
5, 116160, Note_on_c, 3, 52, 126
5, 116200, Control_c, 3, 7, 56
5, 116260, Control_c, 3, 7, 58
5, 116340, Control_c, 3, 7, 60
5, 116400, Note_on_c, 3, 52, 0
5, 116400, Note_on_c, 3, 61, 0
5, 116400, Note_on_c, 3, 64, 126
5, 116400, Note_on_c, 3, 55, 126
5, 116420, Control_c, 3, 7, 62
5, 116520, Control_c, 3, 7, 68
5, 116640, Note_on_c, 3, 55, 0
5, 116640, Note_on_c, 3, 64, 0
5, 116640, Note_on_c, 3, 62, 126
5, 116640, Note_on_c, 3, 54, 126
5, 116650, Control_c, 3, 7, 71
5, 116670, Control_c, 3, 7, 70
5, 116680, Control_c, 3, 7, 69
5, 116760, Note_on_c, 3, 54, 0
5, 116760, Note_on_c, 3, 62, 0
5, 117120, Note_on_c, 3, 50, 123
5, 117240, Note_on_c, 3, 50, 0
5, 117360, Note_on_c, 3, 50, 108
5, 117480, Note_on_c, 3, 50, 0
5, 117580, Control_c, 3, 7, 70
5, 117600, Note_on_c, 3, 50, 96
5, 117660, Control_c, 3, 7, 71
5, 117720, Note_on_c, 3, 50, 0
5, 117740, Control_c, 3, 7, 72
5, 117840, Note_on_c, 3, 50, 95
5, 117860, Control_c, 3, 7, 73
5, 117920, Control_c, 3, 7, 74
5, 117960, Note_on_c, 3, 50, 0
5, 118000, Control_c, 3, 7, 75
5, 118060, Control_c, 3, 7, 76
5, 118080, Note_on_c, 3, 50, 95
5, 118120, Control_c, 3, 7, 77
5, 118140, Control_c, 3, 7, 79
5, 118200, Note_on_c, 3, 50, 0
5, 118220, Control_c, 3, 7, 80
5, 118280, Control_c, 3, 7, 82
5, 118320, Note_on_c, 3, 50, 95
5, 118380, Control_c, 3, 7, 83
5, 118440, Note_on_c, 3, 50, 0
5, 118440, Control_c, 3, 7, 85
5, 118520, Control_c, 3, 7, 87
5, 118560, Note_on_c, 3, 50, 93
5, 118600, Control_c, 3, 7, 89
5, 118672, Note_on_c, 3, 50, 0
5, 118680, Note_on_c, 3, 50, 95
5, 118680, Control_c, 3, 7, 95
5, 118760, Control_c, 3, 7, 97
5, 118792, Note_on_c, 3, 50, 0
5, 118800, Note_on_c, 3, 50, 96
5, 118840, Control_c, 3, 7, 103
5, 118900, Control_c, 3, 7, 105
5, 118912, Note_on_c, 3, 50, 0
5, 118920, Note_on_c, 3, 50, 98
5, 118960, Control_c, 3, 7, 107
5, 119020, Control_c, 3, 7, 115
5, 119032, Note_on_c, 3, 50, 0
5, 119040, Note_on_c, 3, 50, 101
5, 119100, Control_c, 3, 7, 121
5, 119152, Note_on_c, 3, 50, 0
5, 119160, Note_on_c, 3, 50, 103
5, 119160, Control_c, 3, 7, 123
5, 119220, Control_c, 3, 7, 125
5, 119230, Control_c, 3, 7, 127
5, 119272, Note_on_c, 3, 50, 0
5, 119280, Note_on_c, 3, 50, 106
5, 119392, Note_on_c, 3, 50, 0
5, 119400, Note_on_c, 3, 50, 108
5, 119512, Note_on_c, 3, 50, 0
5, 119520, Note_on_c, 3, 50, 111
5, 119632, Note_on_c, 3, 50, 0
5, 119640, Note_on_c, 3, 50, 113
5, 119752, Note_on_c, 3, 50, 0
5, 119760, Note_on_c, 3, 50, 116
5, 119872, Note_on_c, 3, 50, 0
5, 119880, Note_on_c, 3, 50, 120
5, 119895, Control_c, 3, 7, 119
5, 119968, Control_c, 3, 7, 120
5, 119992, Note_on_c, 3, 50, 0
5, 120000, Note_on_c, 3, 50, 123
5, 120041, Control_c, 3, 7, 121
5, 120108, Note_on_c, 3, 50, 0
5, 120114, Control_c, 3, 7, 122
5, 120120, Note_on_c, 3, 50, 127
5, 120187, Control_c, 3, 7, 123
5, 120228, Note_on_c, 3, 50, 0
5, 120240, Note_on_c, 3, 50, 127
5, 120260, Control_c, 3, 7, 124
5, 120333, Control_c, 3, 7, 125
5, 120348, Note_on_c, 3, 50, 0
5, 120360, Note_on_c, 3, 50, 127
5, 120406, Control_c, 3, 7, 126
5, 120468, Note_on_c, 3, 50, 0
5, 120479, Control_c, 3, 7, 127
5, 120480, Note_on_c, 3, 50, 127
5, 120674, Note_on_c, 3, 50, 0
5, 120840, Note_on_c, 3, 55, 127
5, 120944, Note_on_c, 3, 55, 0
5, 120960, Note_on_c, 3, 54, 127
5, 121057, Note_on_c, 3, 54, 0
5, 121080, Note_on_c, 3, 50, 127
5, 121167, Note_on_c, 3, 50, 0
5, 121320, Note_on_c, 3, 55, 127
5, 121424, Note_on_c, 3, 55, 0
5, 121440, Note_on_c, 3, 54, 127
5, 121537, Note_on_c, 3, 54, 0
5, 121560, Note_on_c, 3, 50, 127
5, 121647, Note_on_c, 3, 50, 0
5, 121800, Note_on_c, 3, 55, 127
5, 121904, Note_on_c, 3, 55, 0
5, 121920, Note_on_c, 3, 54, 127
5, 122017, Note_on_c, 3, 54, 0
5, 122040, Note_on_c, 3, 50, 127
5, 122127, Note_on_c, 3, 50, 0
5, 122160, Note_on_c, 3, 54, 127
5, 122247, Note_on_c, 3, 54, 0
5, 122280, Note_on_c, 3, 55, 127
5, 122367, Note_on_c, 3, 55, 0
5, 122400, Note_on_c, 3, 54, 127
5, 122508, Note_on_c, 3, 54, 0
5, 122520, Note_on_c, 3, 50, 127
5, 122607, Note_on_c, 3, 50, 0
5, 122760, Note_on_c, 3, 57, 116
5, 122864, Note_on_c, 3, 57, 0
5, 122880, Note_on_c, 3, 54, 127
5, 122988, Note_on_c, 3, 54, 0
5, 123000, Note_on_c, 3, 50, 116
5, 123087, Note_on_c, 3, 50, 0
5, 123240, Note_on_c, 3, 57, 116
5, 123344, Note_on_c, 3, 57, 0
5, 123360, Note_on_c, 3, 54, 127
5, 123468, Note_on_c, 3, 54, 0
5, 123480, Note_on_c, 3, 50, 116
5, 123567, Note_on_c, 3, 50, 0
5, 123720, Note_on_c, 3, 57, 115
5, 123824, Note_on_c, 3, 57, 0
5, 123840, Note_on_c, 3, 54, 127
5, 123948, Note_on_c, 3, 54, 0
5, 123960, Note_on_c, 3, 57, 116
5, 124047, Note_on_c, 3, 57, 0
5, 124080, Note_on_c, 3, 54, 119
5, 124167, Note_on_c, 3, 54, 0
5, 124200, Note_on_c, 3, 57, 122
5, 124304, Note_on_c, 3, 57, 0
5, 124320, Note_on_c, 3, 50, 127
5, 124612, Note_on_c, 3, 50, 0
5, 124740, Note_on_c, 3, 62, 127
5, 124799, Note_on_c, 3, 62, 0
5, 124800, Note_on_c, 3, 61, 127
5, 124860, Note_on_c, 3, 59, 127
5, 124872, Note_on_c, 3, 61, 0
5, 124919, Note_on_c, 3, 59, 0
5, 124920, Note_on_c, 3, 57, 127
5, 124979, Note_on_c, 3, 57, 0
5, 124980, Note_on_c, 3, 55, 125
5, 125039, Note_on_c, 3, 55, 0
5, 125040, Note_on_c, 3, 54, 122
5, 125099, Note_on_c, 3, 54, 0
5, 125100, Note_on_c, 3, 52, 118
5, 125159, Note_on_c, 3, 52, 0
5, 125160, Note_on_c, 3, 50, 115
5, 125219, Note_on_c, 3, 50, 0
5, 125220, Note_on_c, 3, 49, 112
5, 125279, Note_on_c, 3, 49, 0
5, 125280, Note_on_c, 3, 47, 109
5, 125388, Note_on_c, 3, 47, 0
5, 125760, Note_on_c, 3, 67, 127
5, 125760, Note_on_c, 3, 64, 127
5, 125820, Note_on_c, 3, 66, 127
5, 125820, Note_on_c, 3, 62, 127
5, 125832, Note_on_c, 3, 64, 0
5, 125840, Note_on_c, 3, 67, 0
5, 125879, Note_on_c, 3, 62, 0
5, 125880, Note_on_c, 3, 64, 127
5, 125880, Note_on_c, 3, 61, 127
5, 125900, Note_on_c, 3, 66, 0
5, 125939, Note_on_c, 3, 61, 0
5, 125939, Note_on_c, 3, 64, 0
5, 125940, Note_on_c, 3, 62, 127
5, 125940, Note_on_c, 3, 59, 127
5, 125999, Note_on_c, 3, 59, 0
5, 125999, Note_on_c, 3, 62, 0
5, 126000, Note_on_c, 3, 61, 122
5, 126000, Note_on_c, 3, 57, 122
5, 126059, Note_on_c, 3, 57, 0
5, 126059, Note_on_c, 3, 61, 0
5, 126060, Note_on_c, 3, 59, 119
5, 126060, Note_on_c, 3, 55, 119
5, 126119, Note_on_c, 3, 55, 0
5, 126119, Note_on_c, 3, 59, 0
5, 126120, Note_on_c, 3, 57, 115
5, 126120, Note_on_c, 3, 54, 115
5, 126179, Note_on_c, 3, 54, 0
5, 126179, Note_on_c, 3, 57, 0
5, 126180, Note_on_c, 3, 55, 111
5, 126180, Note_on_c, 3, 52, 111
5, 126239, Note_on_c, 3, 52, 0
5, 126239, Note_on_c, 3, 55, 0
5, 126240, Note_on_c, 3, 54, 106
5, 126240, Note_on_c, 3, 50, 106
5, 126348, Note_on_c, 3, 50, 0
5, 126348, Note_on_c, 3, 54, 0
5, 126480, Note_on_c, 3, 62, 127
5, 126567, Note_on_c, 3, 62, 0
5, 126720, Note_on_c, 3, 55, 127
5, 126853, Note_on_c, 3, 55, 0
5, 126960, Note_on_c, 3, 57, 127
5, 127080, Note_on_c, 3, 57, 0
5, 127200, Note_on_c, 3, 50, 127
5, 127392, Note_on_c, 3, 50, 0
5, 127560, Note_on_c, 3, 55, 118
5, 127663, Note_on_c, 3, 55, 0
5, 127680, Note_on_c, 3, 54, 127
5, 127785, Note_on_c, 3, 54, 0
5, 127800, Note_on_c, 3, 50, 117
5, 127886, Note_on_c, 3, 50, 0
5, 128040, Note_on_c, 3, 55, 116
5, 128143, Note_on_c, 3, 55, 0
5, 128160, Note_on_c, 3, 54, 127
5, 128265, Note_on_c, 3, 54, 0
5, 128280, Note_on_c, 3, 50, 116
5, 128366, Note_on_c, 3, 50, 0
5, 128520, Note_on_c, 3, 55, 116
5, 128623, Note_on_c, 3, 55, 0
5, 128640, Note_on_c, 3, 54, 127
5, 128745, Note_on_c, 3, 54, 0
5, 128760, Note_on_c, 3, 50, 118
5, 128846, Note_on_c, 3, 50, 0
5, 128880, Note_on_c, 3, 54, 127
5, 128966, Note_on_c, 3, 54, 0
5, 129000, Note_on_c, 3, 55, 127
5, 129103, Note_on_c, 3, 55, 0
5, 129120, Note_on_c, 3, 54, 127
5, 129225, Note_on_c, 3, 54, 0
5, 129240, Note_on_c, 3, 50, 127
5, 129326, Note_on_c, 3, 50, 0
5, 129480, Note_on_c, 3, 57, 114
5, 129583, Note_on_c, 3, 57, 0
5, 129600, Note_on_c, 3, 54, 127
5, 129705, Note_on_c, 3, 54, 0
5, 129720, Note_on_c, 3, 50, 115
5, 129806, Note_on_c, 3, 50, 0
5, 129960, Note_on_c, 3, 57, 116
5, 130063, Note_on_c, 3, 57, 0
5, 130080, Note_on_c, 3, 54, 127
5, 130185, Note_on_c, 3, 54, 0
5, 130200, Note_on_c, 3, 50, 116
5, 130286, Note_on_c, 3, 50, 0
5, 130440, Note_on_c, 3, 57, 116
5, 130543, Note_on_c, 3, 57, 0
5, 130560, Note_on_c, 3, 54, 127
5, 130665, Note_on_c, 3, 54, 0
5, 130680, Note_on_c, 3, 57, 124
5, 130766, Note_on_c, 3, 57, 0
5, 130800, Note_on_c, 3, 54, 127
5, 130886, Note_on_c, 3, 54, 0
5, 130920, Note_on_c, 3, 57, 127
5, 131023, Note_on_c, 3, 57, 0
5, 131040, Note_on_c, 3, 50, 127
5, 131400, Note_on_c, 3, 50, 0
5, 131460, Note_on_c, 3, 62, 127
5, 131520, Note_on_c, 3, 62, 0
5, 131520, Note_on_c, 3, 61, 127
5, 131580, Note_on_c, 3, 59, 127
5, 131587, Note_on_c, 3, 61, 0
5, 131640, Note_on_c, 3, 59, 0
5, 131640, Note_on_c, 3, 57, 123
5, 131700, Note_on_c, 3, 57, 0
5, 131700, Note_on_c, 3, 55, 119
5, 131760, Note_on_c, 3, 55, 0
5, 131760, Note_on_c, 3, 54, 114
5, 131820, Note_on_c, 3, 54, 0
5, 131820, Note_on_c, 3, 52, 109
5, 131880, Note_on_c, 3, 52, 0
5, 131880, Note_on_c, 3, 50, 106
5, 131940, Note_on_c, 3, 50, 0
5, 131940, Note_on_c, 3, 49, 103
5, 132000, Note_on_c, 3, 49, 0
5, 132000, Note_on_c, 3, 47, 103
5, 132095, Note_on_c, 3, 47, 0
5, 132480, Note_on_c, 3, 67, 127
5, 132480, Note_on_c, 3, 64, 127
5, 132540, Note_on_c, 3, 67, 0
5, 132540, Note_on_c, 3, 66, 127
5, 132540, Note_on_c, 3, 62, 127
5, 132547, Note_on_c, 3, 64, 0
5, 132600, Note_on_c, 3, 62, 0
5, 132600, Note_on_c, 3, 66, 0
5, 132600, Note_on_c, 3, 64, 127
5, 132600, Note_on_c, 3, 61, 127
5, 132660, Note_on_c, 3, 61, 0
5, 132660, Note_on_c, 3, 64, 0
5, 132660, Note_on_c, 3, 62, 121
5, 132660, Note_on_c, 3, 59, 121
5, 132720, Note_on_c, 3, 59, 0
5, 132720, Note_on_c, 3, 62, 0
5, 132720, Note_on_c, 3, 61, 118
5, 132720, Note_on_c, 3, 57, 118
5, 132780, Note_on_c, 3, 57, 0
5, 132780, Note_on_c, 3, 61, 0
5, 132780, Note_on_c, 3, 59, 114
5, 132780, Note_on_c, 3, 55, 114
5, 132840, Note_on_c, 3, 55, 0
5, 132840, Note_on_c, 3, 59, 0
5, 132840, Note_on_c, 3, 57, 109
5, 132840, Note_on_c, 3, 54, 109
5, 132900, Note_on_c, 3, 54, 0
5, 132900, Note_on_c, 3, 57, 0
5, 132900, Note_on_c, 3, 55, 107
5, 132900, Note_on_c, 3, 52, 107
5, 132960, Note_on_c, 3, 52, 0
5, 132960, Note_on_c, 3, 55, 0
5, 132960, Note_on_c, 3, 54, 102
5, 132960, Note_on_c, 3, 50, 102
5, 133080, Note_on_c, 3, 50, 0
5, 133080, Note_on_c, 3, 54, 0
5, 133200, Note_on_c, 3, 62, 127
5, 133320, Note_on_c, 3, 62, 0
5, 133440, Note_on_c, 3, 55, 127
5, 133560, Note_on_c, 3, 55, 0
5, 133680, Note_on_c, 3, 57, 127
5, 133800, Note_on_c, 3, 57, 0
5, 133920, Note_on_c, 3, 47, 127
5, 134040, Note_on_c, 3, 47, 0
5, 134400, Note_on_c, 3, 67, 127
5, 134400, Note_on_c, 3, 64, 127
5, 134460, Note_on_c, 3, 64, 0
5, 134460, Note_on_c, 3, 67, 0
5, 134460, Note_on_c, 3, 66, 127
5, 134460, Note_on_c, 3, 62, 127
5, 134520, Note_on_c, 3, 62, 0
5, 134520, Note_on_c, 3, 66, 0
5, 134520, Note_on_c, 3, 64, 127
5, 134520, Note_on_c, 3, 61, 127
5, 134580, Note_on_c, 3, 61, 0
5, 134580, Note_on_c, 3, 64, 0
5, 134580, Note_on_c, 3, 62, 123
5, 134580, Note_on_c, 3, 59, 123
5, 134640, Note_on_c, 3, 59, 0
5, 134640, Note_on_c, 3, 62, 0
5, 134640, Note_on_c, 3, 61, 119
5, 134640, Note_on_c, 3, 57, 119
5, 134700, Note_on_c, 3, 57, 0
5, 134700, Note_on_c, 3, 61, 0
5, 134700, Note_on_c, 3, 59, 114
5, 134700, Note_on_c, 3, 55, 114
5, 134760, Note_on_c, 3, 55, 0
5, 134760, Note_on_c, 3, 59, 0
5, 134760, Note_on_c, 3, 57, 110
5, 134760, Note_on_c, 3, 54, 110
5, 134820, Note_on_c, 3, 54, 0
5, 134820, Note_on_c, 3, 57, 0
5, 134820, Note_on_c, 3, 55, 105
5, 134820, Note_on_c, 3, 52, 105
5, 134880, Note_on_c, 3, 52, 0
5, 134880, Note_on_c, 3, 55, 0
5, 134880, Note_on_c, 3, 54, 101
5, 134880, Note_on_c, 3, 50, 101
5, 135000, Note_on_c, 3, 50, 0
5, 135000, Note_on_c, 3, 54, 0
5, 135120, Note_on_c, 3, 62, 127
5, 135240, Note_on_c, 3, 62, 0
5, 135360, Note_on_c, 3, 55, 127
5, 135480, Note_on_c, 3, 55, 0
5, 135600, Note_on_c, 3, 57, 127
5, 135720, Note_on_c, 3, 57, 0
5, 135840, Note_on_c, 3, 50, 127
5, 135948, Note_on_c, 3, 50, 0
5, 135960, Note_on_c, 3, 50, 127
5, 136068, Note_on_c, 3, 50, 0
5, 136080, Note_on_c, 3, 50, 127
5, 136188, Note_on_c, 3, 50, 0
5, 136200, Note_on_c, 3, 50, 127
5, 136308, Note_on_c, 3, 50, 0
5, 136320, Note_on_c, 3, 50, 127
5, 136428, Note_on_c, 3, 50, 0
5, 136440, Note_on_c, 3, 50, 127
5, 136548, Note_on_c, 3, 50, 0
5, 136560, Note_on_c, 3, 50, 127
5, 136668, Note_on_c, 3, 50, 0
5, 136680, Note_on_c, 3, 50, 127
5, 136788, Note_on_c, 3, 50, 0
5, 136800, Note_on_c, 3, 50, 127
5, 136908, Note_on_c, 3, 50, 0
5, 136920, Note_on_c, 3, 50, 127
5, 137028, Note_on_c, 3, 50, 0
5, 137040, Note_on_c, 3, 50, 127
5, 137148, Note_on_c, 3, 50, 0
5, 137160, Note_on_c, 3, 50, 127
5, 137268, Note_on_c, 3, 50, 0
5, 137280, Note_on_c, 3, 50, 127
5, 137388, Note_on_c, 3, 50, 0
5, 137400, Note_on_c, 3, 50, 127
5, 137508, Note_on_c, 3, 50, 0
5, 137520, Note_on_c, 3, 50, 127
5, 137628, Note_on_c, 3, 50, 0
5, 137640, Note_on_c, 3, 50, 127
5, 137748, Note_on_c, 3, 50, 0
5, 137760, Note_on_c, 3, 50, 127
5, 137868, Note_on_c, 3, 50, 0
5, 137880, Note_on_c, 3, 50, 127
5, 137988, Note_on_c, 3, 50, 0
5, 138000, Note_on_c, 3, 50, 127
5, 138108, Note_on_c, 3, 50, 0
5, 138120, Note_on_c, 3, 50, 127
5, 138228, Note_on_c, 3, 50, 0
5, 138240, Note_on_c, 3, 50, 127
5, 138348, Note_on_c, 3, 50, 0
5, 138360, Note_on_c, 3, 50, 127
5, 138468, Note_on_c, 3, 50, 0
5, 138480, Note_on_c, 3, 50, 127
5, 138588, Note_on_c, 3, 50, 0
5, 138600, Note_on_c, 3, 50, 127
5, 138708, Note_on_c, 3, 50, 0
5, 138720, Note_on_c, 3, 50, 127
5, 138828, Note_on_c, 3, 50, 0
5, 138960, Note_on_c, 3, 54, 127
5, 139068, Note_on_c, 3, 54, 0
5, 139200, Note_on_c, 3, 57, 127
5, 139308, Note_on_c, 3, 57, 0
5, 139440, Note_on_c, 3, 54, 127
5, 139548, Note_on_c, 3, 54, 0
5, 139680, Note_on_c, 3, 50, 127
5, 139788, Note_on_c, 3, 50, 0
5, 140160, Note_on_c, 3, 50, 127
5, 140268, Note_on_c, 3, 50, 0
5, 140640, Note_on_c, 3, 50, 127
5, 140856, Note_on_c, 3, 50, 0
5, 140856, End_track
6, 0, Start_track
6, 0, MIDI_port, 0
6, 0, Title_t, "2 Corni in D"
6, 0, Program_c, 4, 60
6, 0, Control_c, 4, 7, 48
6, 0, Control_c, 4, 10, 80
6, 468, Control_c, 4, 91, 96
6, 3350, Control_c, 4, 7, 70
6, 3360, Note_on_c, 4, 74, 80
6, 3360, Note_on_c, 4, 78, 80
6, 3370, Control_c, 4, 7, 70
6, 3432, Control_c, 4, 7, 70
6, 3472, Control_c, 4, 7, 68
6, 3492, Control_c, 4, 7, 67
6, 3512, Control_c, 4, 7, 66
6, 3522, Control_c, 4, 7, 65
6, 3532, Control_c, 4, 7, 64
6, 3542, Control_c, 4, 7, 62
6, 3562, Control_c, 4, 7, 61
6, 3582, Control_c, 4, 7, 60
6, 3622, Control_c, 4, 7, 59
6, 3720, Note_on_c, 4, 78, 0
6, 3720, Note_on_c, 4, 74, 0
6, 3720, Note_on_c, 4, 69, 80
6, 3720, Note_on_c, 4, 76, 80
6, 3752, Control_c, 4, 7, 60
6, 3772, Control_c, 4, 7, 62
6, 3840, Note_on_c, 4, 76, 0
6, 3840, Note_on_c, 4, 69, 0
6, 3840, Note_on_c, 4, 66, 80
6, 3840, Note_on_c, 4, 74, 80
6, 3842, Control_c, 4, 7, 64
6, 3852, Control_c, 4, 7, 66
6, 3862, Control_c, 4, 7, 67
6, 3882, Control_c, 4, 7, 68
6, 3892, Control_c, 4, 7, 70
6, 3912, Control_c, 4, 7, 71
6, 3922, Control_c, 4, 7, 72
6, 3942, Control_c, 4, 7, 73
6, 4022, Control_c, 4, 7, 81
6, 4080, Note_on_c, 4, 74, 0
6, 4080, Note_on_c, 4, 66, 0
6, 4082, Control_c, 4, 7, 87
6, 4312, Control_c, 4, 7, 91
6, 4320, Note_on_c, 4, 78, 80
6, 4320, Note_on_c, 4, 81, 80
6, 4322, Control_c, 4, 7, 90
6, 4332, Control_c, 4, 7, 84
6, 4352, Control_c, 4, 7, 77
6, 4362, Control_c, 4, 7, 76
6, 4382, Control_c, 4, 7, 75
6, 4402, Control_c, 4, 7, 69
6, 4422, Control_c, 4, 7, 67
6, 4442, Control_c, 4, 7, 66
6, 4522, Control_c, 4, 7, 65
6, 4622, Control_c, 4, 7, 64
6, 4680, Note_on_c, 4, 81, 0
6, 4680, Note_on_c, 4, 78, 0
6, 4680, Note_on_c, 4, 76, 80
6, 4680, Note_on_c, 4, 79, 80
6, 4800, Note_on_c, 4, 79, 0
6, 4800, Note_on_c, 4, 76, 0
6, 4800, Note_on_c, 4, 74, 80
6, 4800, Note_on_c, 4, 78, 80
6, 4812, Control_c, 4, 7, 66
6, 4822, Control_c, 4, 7, 67
6, 4832, Control_c, 4, 7, 69
6, 4842, Control_c, 4, 7, 72
6, 4852, Control_c, 4, 7, 74
6, 4862, Control_c, 4, 7, 76
6, 4872, Control_c, 4, 7, 78
6, 4882, Control_c, 4, 7, 79
6, 4892, Control_c, 4, 7, 81
6, 4902, Control_c, 4, 7, 82
6, 4912, Control_c, 4, 7, 86
6, 4922, Control_c, 4, 7, 87
6, 4932, Control_c, 4, 7, 88
6, 4942, Control_c, 4, 7, 90
6, 4952, Control_c, 4, 7, 93
6, 4962, Control_c, 4, 7, 95
6, 4982, Control_c, 4, 7, 97
6, 4992, Control_c, 4, 7, 100
6, 5012, Control_c, 4, 7, 102
6, 5040, Note_on_c, 4, 78, 0
6, 5040, Note_on_c, 4, 74, 0
6, 5280, Note_on_c, 4, 62, 80
6, 5280, Note_on_c, 4, 74, 80
6, 5760, Control_c, 4, 7, 126
6, 5810, Control_c, 4, 7, 125
6, 5820, Control_c, 4, 7, 124
6, 5850, Control_c, 4, 7, 123
6, 5870, Control_c, 4, 7, 122
6, 5890, Control_c, 4, 7, 121
6, 5900, Control_c, 4, 7, 120
6, 5940, Control_c, 4, 7, 119
6, 6000, Control_c, 4, 7, 117
6, 6010, Control_c, 4, 7, 116
6, 6030, Control_c, 4, 7, 115
6, 6040, Control_c, 4, 7, 114
6, 6060, Control_c, 4, 7, 112
6, 6080, Control_c, 4, 7, 111
6, 6090, Control_c, 4, 7, 110
6, 6120, Control_c, 4, 7, 108
6, 6150, Control_c, 4, 7, 106
6, 6160, Control_c, 4, 7, 105
6, 6220, Control_c, 4, 7, 103
6, 6240, Control_c, 4, 7, 111
6, 6270, Control_c, 4, 7, 110
6, 6290, Control_c, 4, 7, 109
6, 6330, Control_c, 4, 7, 108
6, 6340, Control_c, 4, 7, 106
6, 6342, Note_on_c, 4, 74, 0
6, 6342, Note_on_c, 4, 62, 0
6, 6360, Note_on_c, 4, 62, 80
6, 6360, Note_on_c, 4, 74, 80
6, 6400, Control_c, 4, 7, 105
6, 6410, Control_c, 4, 7, 104
6, 6420, Control_c, 4, 7, 103
6, 6440, Control_c, 4, 7, 102
6, 6450, Control_c, 4, 7, 101
6, 6480, Note_on_c, 4, 74, 0
6, 6480, Note_on_c, 4, 62, 0
6, 6480, Note_on_c, 4, 62, 80
6, 6480, Note_on_c, 4, 74, 80
6, 6480, Control_c, 4, 7, 100
6, 6490, Control_c, 4, 7, 99
6, 6550, Control_c, 4, 7, 97
6, 6570, Control_c, 4, 7, 96
6, 6590, Control_c, 4, 7, 95
6, 6600, Note_on_c, 4, 74, 0
6, 6600, Note_on_c, 4, 62, 0
6, 6600, Note_on_c, 4, 62, 80
6, 6600, Note_on_c, 4, 74, 80
6, 6610, Control_c, 4, 7, 94
6, 6620, Control_c, 4, 7, 93
6, 6650, Control_c, 4, 7, 92
6, 6670, Control_c, 4, 7, 91
6, 6690, Control_c, 4, 7, 90
6, 6720, Note_on_c, 4, 74, 0
6, 6720, Note_on_c, 4, 62, 0
6, 6720, Note_on_c, 4, 62, 80
6, 6720, Note_on_c, 4, 74, 80
6, 6720, Control_c, 4, 7, 108
6, 6750, Control_c, 4, 7, 107
6, 6820, Control_c, 4, 7, 99
6, 6822, Note_on_c, 4, 74, 0
6, 6822, Note_on_c, 4, 62, 0
6, 6830, Control_c, 4, 7, 93
6, 6840, Note_on_c, 4, 62, 80
6, 6840, Note_on_c, 4, 74, 80
6, 6840, Control_c, 4, 7, 92
6, 6870, Control_c, 4, 7, 90
6, 6880, Control_c, 4, 7, 89
6, 6890, Control_c, 4, 7, 88
6, 6900, Control_c, 4, 7, 87
6, 6910, Control_c, 4, 7, 86
6, 6940, Control_c, 4, 7, 84
6, 6960, Note_on_c, 4, 74, 0
6, 6960, Note_on_c, 4, 62, 0
6, 6960, Note_on_c, 4, 62, 80
6, 6960, Note_on_c, 4, 74, 80
6, 6960, Control_c, 4, 7, 83
6, 6990, Control_c, 4, 7, 82
6, 7030, Control_c, 4, 7, 81
6, 7060, Control_c, 4, 7, 80
6, 7080, Note_on_c, 4, 74, 0
6, 7080, Note_on_c, 4, 62, 0
6, 7080, Note_on_c, 4, 62, 80
6, 7080, Note_on_c, 4, 74, 80
6, 7080, Control_c, 4, 7, 79
6, 7100, Control_c, 4, 7, 78
6, 7120, Control_c, 4, 7, 77
6, 7150, Control_c, 4, 7, 76
6, 7190, Control_c, 4, 7, 75
6, 7200, Note_on_c, 4, 74, 0
6, 7200, Note_on_c, 4, 62, 0
6, 7200, Note_on_c, 4, 62, 80
6, 7200, Note_on_c, 4, 74, 80
6, 7404, Note_on_c, 4, 74, 0
6, 7404, Note_on_c, 4, 62, 0
6, 7440, Note_on_c, 4, 62, 80
6, 7440, Note_on_c, 4, 74, 80
6, 7644, Note_on_c, 4, 74, 0
6, 7644, Note_on_c, 4, 62, 0
6, 7680, Note_on_c, 4, 74, 80
6, 7680, Note_on_c, 4, 78, 80
6, 7884, Note_on_c, 4, 78, 0
6, 7884, Note_on_c, 4, 74, 0
6, 7920, Note_on_c, 4, 76, 80
6, 7920, Note_on_c, 4, 69, 80
6, 8124, Note_on_c, 4, 69, 0
6, 8124, Note_on_c, 4, 76, 0
6, 8160, Note_on_c, 4, 74, 80
6, 8160, Note_on_c, 4, 66, 80
6, 8369, Note_on_c, 4, 66, 0
6, 8369, Note_on_c, 4, 74, 0
6, 11512, Control_c, 4, 7, 72
6, 11520, Note_on_c, 4, 78, 80
6, 11520, Note_on_c, 4, 74, 80
6, 11592, Control_c, 4, 7, 70
6, 11632, Control_c, 4, 7, 68
6, 11652, Control_c, 4, 7, 67
6, 11672, Control_c, 4, 7, 66
6, 11682, Control_c, 4, 7, 65
6, 11692, Control_c, 4, 7, 64
6, 11702, Control_c, 4, 7, 62
6, 11722, Control_c, 4, 7, 61
6, 11742, Control_c, 4, 7, 60
6, 11782, Control_c, 4, 7, 59
6, 11880, Note_on_c, 4, 74, 0
6, 11880, Note_on_c, 4, 78, 0
6, 11880, Note_on_c, 4, 76, 80
6, 11880, Note_on_c, 4, 69, 80
6, 11912, Control_c, 4, 7, 60
6, 11932, Control_c, 4, 7, 62
6, 12000, Note_on_c, 4, 69, 0
6, 12000, Note_on_c, 4, 76, 0
6, 12000, Note_on_c, 4, 74, 80
6, 12000, Note_on_c, 4, 66, 80
6, 12002, Control_c, 4, 7, 64
6, 12012, Control_c, 4, 7, 66
6, 12022, Control_c, 4, 7, 67
6, 12042, Control_c, 4, 7, 68
6, 12052, Control_c, 4, 7, 70
6, 12072, Control_c, 4, 7, 71
6, 12082, Control_c, 4, 7, 72
6, 12102, Control_c, 4, 7, 73
6, 12182, Control_c, 4, 7, 81
6, 12240, Note_on_c, 4, 66, 0
6, 12240, Note_on_c, 4, 74, 0
6, 12242, Control_c, 4, 7, 87
6, 12472, Control_c, 4, 7, 91
6, 12480, Note_on_c, 4, 81, 80
6, 12480, Note_on_c, 4, 78, 80
6, 12482, Control_c, 4, 7, 90
6, 12492, Control_c, 4, 7, 84
6, 12512, Control_c, 4, 7, 77
6, 12522, Control_c, 4, 7, 76
6, 12542, Control_c, 4, 7, 75
6, 12562, Control_c, 4, 7, 69
6, 12582, Control_c, 4, 7, 67
6, 12602, Control_c, 4, 7, 66
6, 12682, Control_c, 4, 7, 65
6, 12782, Control_c, 4, 7, 64
6, 12840, Note_on_c, 4, 78, 0
6, 12840, Note_on_c, 4, 81, 0
6, 12840, Note_on_c, 4, 79, 80
6, 12840, Note_on_c, 4, 76, 80
6, 12960, Note_on_c, 4, 76, 0
6, 12960, Note_on_c, 4, 79, 0
6, 12960, Note_on_c, 4, 78, 80
6, 12960, Note_on_c, 4, 74, 80
6, 12972, Control_c, 4, 7, 66
6, 12982, Control_c, 4, 7, 67
6, 12992, Control_c, 4, 7, 69
6, 13002, Control_c, 4, 7, 72
6, 13012, Control_c, 4, 7, 74
6, 13022, Control_c, 4, 7, 76
6, 13032, Control_c, 4, 7, 78
6, 13042, Control_c, 4, 7, 79
6, 13052, Control_c, 4, 7, 81
6, 13062, Control_c, 4, 7, 82
6, 13072, Control_c, 4, 7, 86
6, 13082, Control_c, 4, 7, 87
6, 13092, Control_c, 4, 7, 88
6, 13102, Control_c, 4, 7, 90
6, 13112, Control_c, 4, 7, 93
6, 13122, Control_c, 4, 7, 95
6, 13142, Control_c, 4, 7, 97
6, 13152, Control_c, 4, 7, 100
6, 13172, Control_c, 4, 7, 102
6, 13200, Note_on_c, 4, 74, 0
6, 13200, Note_on_c, 4, 78, 0
6, 13440, Note_on_c, 4, 62, 80
6, 13440, Note_on_c, 4, 74, 80
6, 13920, Control_c, 4, 7, 126
6, 13970, Control_c, 4, 7, 125
6, 13980, Control_c, 4, 7, 124
6, 14010, Control_c, 4, 7, 123
6, 14030, Control_c, 4, 7, 122
6, 14050, Control_c, 4, 7, 121
6, 14060, Control_c, 4, 7, 120
6, 14100, Control_c, 4, 7, 119
6, 14160, Control_c, 4, 7, 117
6, 14170, Control_c, 4, 7, 116
6, 14190, Control_c, 4, 7, 115
6, 14200, Control_c, 4, 7, 114
6, 14220, Control_c, 4, 7, 112
6, 14240, Control_c, 4, 7, 111
6, 14250, Control_c, 4, 7, 110
6, 14280, Control_c, 4, 7, 108
6, 14310, Control_c, 4, 7, 106
6, 14320, Control_c, 4, 7, 105
6, 14380, Control_c, 4, 7, 103
6, 14400, Control_c, 4, 7, 111
6, 14430, Control_c, 4, 7, 110
6, 14450, Control_c, 4, 7, 109
6, 14490, Control_c, 4, 7, 108
6, 14500, Control_c, 4, 7, 106
6, 14502, Note_on_c, 4, 74, 0
6, 14502, Note_on_c, 4, 62, 0
6, 14520, Note_on_c, 4, 74, 80
6, 14520, Note_on_c, 4, 62, 80
6, 14560, Control_c, 4, 7, 105
6, 14570, Control_c, 4, 7, 104
6, 14580, Control_c, 4, 7, 103
6, 14600, Control_c, 4, 7, 102
6, 14610, Control_c, 4, 7, 101
6, 14640, Note_on_c, 4, 62, 0
6, 14640, Note_on_c, 4, 74, 0
6, 14640, Note_on_c, 4, 74, 80
6, 14640, Note_on_c, 4, 62, 80
6, 14640, Control_c, 4, 7, 100
6, 14650, Control_c, 4, 7, 99
6, 14710, Control_c, 4, 7, 97
6, 14730, Control_c, 4, 7, 96
6, 14750, Control_c, 4, 7, 95
6, 14760, Note_on_c, 4, 62, 0
6, 14760, Note_on_c, 4, 74, 0
6, 14760, Note_on_c, 4, 74, 80
6, 14760, Note_on_c, 4, 62, 80
6, 14770, Control_c, 4, 7, 94
6, 14780, Control_c, 4, 7, 93
6, 14810, Control_c, 4, 7, 92
6, 14830, Control_c, 4, 7, 91
6, 14850, Control_c, 4, 7, 90
6, 14880, Note_on_c, 4, 62, 0
6, 14880, Note_on_c, 4, 74, 0
6, 14880, Note_on_c, 4, 74, 80
6, 14880, Note_on_c, 4, 62, 80
6, 14880, Control_c, 4, 7, 108
6, 14910, Control_c, 4, 7, 107
6, 14980, Control_c, 4, 7, 99
6, 14982, Note_on_c, 4, 62, 0
6, 14982, Note_on_c, 4, 74, 0
6, 14990, Control_c, 4, 7, 93
6, 15000, Note_on_c, 4, 74, 80
6, 15000, Note_on_c, 4, 62, 80
6, 15000, Control_c, 4, 7, 92
6, 15030, Control_c, 4, 7, 90
6, 15040, Control_c, 4, 7, 89
6, 15050, Control_c, 4, 7, 88
6, 15060, Control_c, 4, 7, 87
6, 15070, Control_c, 4, 7, 86
6, 15100, Control_c, 4, 7, 84
6, 15120, Note_on_c, 4, 62, 0
6, 15120, Note_on_c, 4, 74, 0
6, 15120, Note_on_c, 4, 74, 80
6, 15120, Note_on_c, 4, 62, 80
6, 15120, Control_c, 4, 7, 83
6, 15150, Control_c, 4, 7, 82
6, 15190, Control_c, 4, 7, 81
6, 15220, Control_c, 4, 7, 80
6, 15240, Note_on_c, 4, 62, 0
6, 15240, Note_on_c, 4, 74, 0
6, 15240, Note_on_c, 4, 74, 80
6, 15240, Note_on_c, 4, 62, 80
6, 15240, Control_c, 4, 7, 79
6, 15260, Control_c, 4, 7, 78
6, 15280, Control_c, 4, 7, 77
6, 15310, Control_c, 4, 7, 76
6, 15350, Control_c, 4, 7, 75
6, 15360, Note_on_c, 4, 62, 0
6, 15360, Note_on_c, 4, 74, 0
6, 15360, Note_on_c, 4, 74, 80
6, 15360, Note_on_c, 4, 62, 80
6, 15600, Note_on_c, 4, 62, 0
6, 15600, Note_on_c, 4, 74, 0
6, 15600, Note_on_c, 4, 74, 80
6, 15600, Note_on_c, 4, 62, 80
6, 15840, Note_on_c, 4, 62, 0
6, 15840, Note_on_c, 4, 74, 0
6, 15840, Note_on_c, 4, 78, 80
6, 15840, Note_on_c, 4, 74, 80
6, 16080, Note_on_c, 4, 74, 0
6, 16080, Note_on_c, 4, 78, 0
6, 16080, Note_on_c, 4, 69, 80
6, 16080, Note_on_c, 4, 76, 80
6, 16320, Note_on_c, 4, 76, 0
6, 16320, Note_on_c, 4, 69, 0
6, 16320, Note_on_c, 4, 62, 80
6, 16320, Note_on_c, 4, 74, 80
6, 17280, Note_on_c, 4, 74, 0
6, 17280, Note_on_c, 4, 62, 0
6, 17280, Note_on_c, 4, 62, 80
6, 17280, Note_on_c, 4, 74, 80
6, 18240, Note_on_c, 4, 74, 0
6, 18240, Note_on_c, 4, 62, 0
6, 18240, Note_on_c, 4, 74, 80
6, 18240, Note_on_c, 4, 62, 80
6, 19200, Note_on_c, 4, 62, 0
6, 19200, Note_on_c, 4, 74, 0
6, 19200, Note_on_c, 4, 62, 80
6, 19200, Note_on_c, 4, 74, 80
6, 19200, Control_c, 4, 7, 126
6, 19680, Note_on_c, 4, 62, 80
6, 19680, Note_on_c, 4, 74, 80
6, 20256, Note_on_c, 4, 74, 0
6, 20256, Note_on_c, 4, 62, 0
6, 20280, Note_on_c, 4, 74, 80
6, 20280, Note_on_c, 4, 62, 80
6, 20376, Note_on_c, 4, 62, 0
6, 20376, Note_on_c, 4, 74, 0
6, 20400, Note_on_c, 4, 62, 80
6, 20400, Note_on_c, 4, 74, 80
6, 20496, Note_on_c, 4, 74, 0
6, 20496, Note_on_c, 4, 62, 0
6, 20520, Note_on_c, 4, 62, 80
6, 20520, Note_on_c, 4, 74, 80
6, 20616, Note_on_c, 4, 74, 0
6, 20616, Note_on_c, 4, 62, 0
6, 20736, Note_on_c, 4, 74, 0
6, 20736, Note_on_c, 4, 62, 0
6, 20760, Note_on_c, 4, 62, 80
6, 20760, Note_on_c, 4, 74, 80
6, 20856, Note_on_c, 4, 74, 0
6, 20856, Note_on_c, 4, 62, 0
6, 20880, Note_on_c, 4, 74, 80
6, 20880, Note_on_c, 4, 62, 80
6, 20976, Note_on_c, 4, 62, 0
6, 20976, Note_on_c, 4, 74, 0
6, 21000, Note_on_c, 4, 74, 80
6, 21000, Note_on_c, 4, 62, 80
6, 21096, Note_on_c, 4, 62, 0
6, 21096, Note_on_c, 4, 74, 0
6, 21120, Note_on_c, 4, 62, 80
6, 21120, Note_on_c, 4, 74, 80
6, 21312, Note_on_c, 4, 74, 0
6, 21312, Note_on_c, 4, 62, 0
6, 21480, Note_on_c, 4, 69, 80
6, 21480, Note_on_c, 4, 69, 80
6, 21588, Note_on_c, 4, 69, 0
6, 21588, Note_on_c, 4, 69, 0
6, 21600, Note_on_c, 4, 66, 80
6, 21600, Note_on_c, 4, 66, 80
6, 21690, Note_on_c, 4, 66, 0
6, 21690, Note_on_c, 4, 66, 0
6, 21720, Note_on_c, 4, 62, 80
6, 21720, Note_on_c, 4, 62, 80
6, 21803, Note_on_c, 4, 62, 0
6, 21803, Note_on_c, 4, 62, 0
6, 21960, Note_on_c, 4, 69, 80
6, 21960, Note_on_c, 4, 69, 80
6, 22068, Note_on_c, 4, 69, 0
6, 22068, Note_on_c, 4, 69, 0
6, 22080, Note_on_c, 4, 66, 80
6, 22080, Note_on_c, 4, 66, 80
6, 22170, Note_on_c, 4, 66, 0
6, 22170, Note_on_c, 4, 66, 0
6, 22200, Note_on_c, 4, 62, 80
6, 22200, Note_on_c, 4, 62, 80
6, 22283, Note_on_c, 4, 62, 0
6, 22283, Note_on_c, 4, 62, 0
6, 22440, Note_on_c, 4, 76, 80
6, 22440, Note_on_c, 4, 69, 80
6, 22548, Note_on_c, 4, 69, 0
6, 22548, Note_on_c, 4, 76, 0
6, 22560, Note_on_c, 4, 66, 80
6, 22560, Note_on_c, 4, 74, 80
6, 22656, Note_on_c, 4, 74, 0
6, 22656, Note_on_c, 4, 66, 0
6, 22680, Note_on_c, 4, 69, 80
6, 22680, Note_on_c, 4, 76, 80
6, 22776, Note_on_c, 4, 76, 0
6, 22776, Note_on_c, 4, 69, 0
6, 22800, Note_on_c, 4, 66, 80
6, 22800, Note_on_c, 4, 74, 80
6, 22896, Note_on_c, 4, 74, 0
6, 22896, Note_on_c, 4, 66, 0
6, 22920, Note_on_c, 4, 69, 80
6, 22920, Note_on_c, 4, 76, 80
6, 23016, Note_on_c, 4, 76, 0
6, 23016, Note_on_c, 4, 69, 0
6, 23040, Note_on_c, 4, 74, 80
6, 23040, Note_on_c, 4, 66, 80
6, 23136, Note_on_c, 4, 66, 0
6, 23136, Note_on_c, 4, 74, 0
6, 23280, Note_on_c, 4, 74, 80
6, 23280, Note_on_c, 4, 74, 80
6, 23328, Note_on_c, 4, 74, 0
6, 23328, Note_on_c, 4, 74, 0
6, 23400, Note_on_c, 4, 69, 80
6, 23400, Note_on_c, 4, 69, 80
6, 23448, Note_on_c, 4, 69, 0
6, 23448, Note_on_c, 4, 69, 0
6, 23520, Note_on_c, 4, 74, 80
6, 23520, Note_on_c, 4, 74, 80
6, 23568, Note_on_c, 4, 74, 0
6, 23568, Note_on_c, 4, 74, 0
6, 23640, Note_on_c, 4, 69, 80
6, 23640, Note_on_c, 4, 69, 80
6, 23688, Note_on_c, 4, 69, 0
6, 23688, Note_on_c, 4, 69, 0
6, 23760, Note_on_c, 4, 66, 80
6, 23760, Note_on_c, 4, 66, 80
6, 23808, Note_on_c, 4, 66, 0
6, 23808, Note_on_c, 4, 66, 0
6, 23880, Note_on_c, 4, 62, 80
6, 23880, Note_on_c, 4, 62, 80
6, 23928, Note_on_c, 4, 62, 0
6, 23928, Note_on_c, 4, 62, 0
6, 24000, Note_on_c, 4, 57, 80
6, 24000, Note_on_c, 4, 69, 80
6, 24192, Note_on_c, 4, 69, 0
6, 24192, Note_on_c, 4, 57, 0
6, 24360, Note_on_c, 4, 76, 80
6, 24360, Note_on_c, 4, 69, 80
6, 24456, Note_on_c, 4, 69, 0
6, 24456, Note_on_c, 4, 76, 0
6, 24480, Note_on_c, 4, 78, 80
6, 24480, Note_on_c, 4, 74, 80
6, 24672, Note_on_c, 4, 74, 0
6, 24672, Note_on_c, 4, 78, 0
6, 24840, Note_on_c, 4, 74, 80
6, 24840, Note_on_c, 4, 78, 80
6, 24936, Note_on_c, 4, 78, 0
6, 24936, Note_on_c, 4, 74, 0
6, 24960, Note_on_c, 4, 69, 80
6, 24960, Note_on_c, 4, 76, 80
6, 24980, Control_c, 4, 7, 126
6, 25030, Control_c, 4, 7, 125
6, 25090, Control_c, 4, 7, 124
6, 25152, Note_on_c, 4, 76, 0
6, 25152, Note_on_c, 4, 69, 0
6, 25230, Control_c, 4, 7, 122
6, 25320, Note_on_c, 4, 69, 80
6, 25320, Note_on_c, 4, 76, 80
6, 25350, Control_c, 4, 7, 121
6, 25416, Note_on_c, 4, 76, 0
6, 25416, Note_on_c, 4, 69, 0
6, 25440, Note_on_c, 4, 74, 80
6, 25440, Note_on_c, 4, 78, 80
6, 25470, Control_c, 4, 7, 120
6, 25530, Control_c, 4, 7, 119
6, 25610, Control_c, 4, 7, 118
6, 25632, Note_on_c, 4, 78, 0
6, 25632, Note_on_c, 4, 74, 0
6, 25790, Control_c, 4, 7, 116
6, 25800, Note_on_c, 4, 78, 80
6, 25800, Note_on_c, 4, 74, 80
6, 25870, Control_c, 4, 7, 115
6, 25896, Note_on_c, 4, 74, 0
6, 25896, Note_on_c, 4, 78, 0
6, 25920, Note_on_c, 4, 76, 80
6, 25920, Note_on_c, 4, 69, 80
6, 25970, Control_c, 4, 7, 113
6, 26032, Note_on_c, 4, 69, 0
6, 26032, Note_on_c, 4, 76, 0
6, 26040, Note_on_c, 4, 69, 80
6, 26040, Note_on_c, 4, 76, 80
6, 26110, Control_c, 4, 7, 111
6, 26152, Note_on_c, 4, 76, 0
6, 26152, Note_on_c, 4, 69, 0
6, 26160, Note_on_c, 4, 78, 80
6, 26160, Note_on_c, 4, 74, 80
6, 26190, Control_c, 4, 7, 110
6, 26250, Control_c, 4, 7, 109
6, 26256, Note_on_c, 4, 74, 0
6, 26256, Note_on_c, 4, 78, 0
6, 26280, Note_on_c, 4, 78, 80
6, 26280, Note_on_c, 4, 74, 80
6, 26310, Control_c, 4, 7, 108
6, 26376, Note_on_c, 4, 74, 0
6, 26376, Note_on_c, 4, 78, 0
6, 26400, Note_on_c, 4, 69, 80
6, 26400, Note_on_c, 4, 76, 80
6, 26450, Control_c, 4, 7, 106
6, 26512, Note_on_c, 4, 76, 0
6, 26512, Note_on_c, 4, 69, 0
6, 26520, Note_on_c, 4, 76, 80
6, 26520, Note_on_c, 4, 69, 80
6, 26530, Control_c, 4, 7, 105
6, 26610, Control_c, 4, 7, 99
6, 26632, Note_on_c, 4, 69, 0
6, 26632, Note_on_c, 4, 76, 0
6, 26640, Note_on_c, 4, 74, 80
6, 26640, Note_on_c, 4, 78, 80
6, 26730, Control_c, 4, 7, 98
6, 26736, Note_on_c, 4, 78, 0
6, 26736, Note_on_c, 4, 74, 0
6, 26760, Note_on_c, 4, 78, 80
6, 26760, Note_on_c, 4, 74, 80
6, 26830, Control_c, 4, 7, 92
6, 26856, Note_on_c, 4, 74, 0
6, 26856, Note_on_c, 4, 78, 0
6, 26880, Note_on_c, 4, 69, 80
6, 26880, Note_on_c, 4, 76, 80
6, 26910, Control_c, 4, 7, 91
6, 26992, Note_on_c, 4, 76, 0
6, 26992, Note_on_c, 4, 69, 0
6, 27000, Note_on_c, 4, 69, 80
6, 27000, Note_on_c, 4, 69, 80
6, 27010, Control_c, 4, 7, 90
6, 27030, Control_c, 4, 7, 88
6, 27048, Note_on_c, 4, 69, 0
6, 27048, Note_on_c, 4, 69, 0
6, 27060, Note_on_c, 4, 69, 80
6, 27060, Note_on_c, 4, 69, 80
6, 27108, Note_on_c, 4, 69, 0
6, 27108, Note_on_c, 4, 69, 0
6, 27120, Note_on_c, 4, 69, 80
6, 27120, Note_on_c, 4, 69, 80
6, 27190, Control_c, 4, 7, 86
6, 27232, Note_on_c, 4, 69, 0
6, 27232, Note_on_c, 4, 69, 0
6, 27240, Note_on_c, 4, 69, 80
6, 27240, Note_on_c, 4, 69, 80
6, 27250, Control_c, 4, 7, 85
6, 27310, Control_c, 4, 7, 84
6, 27352, Note_on_c, 4, 69, 0
6, 27352, Note_on_c, 4, 69, 0
6, 27360, Note_on_c, 4, 69, 80
6, 27360, Note_on_c, 4, 69, 80
6, 27510, Control_c, 4, 7, 83
6, 27530, Control_c, 4, 7, 82
6, 27662, Note_on_c, 4, 69, 0
6, 27662, Note_on_c, 4, 69, 0
6, 27840, Control_c, 4, 7, 120
6, 27842, Control_c, 4, 7, 119
6, 27844, Control_c, 4, 7, 118
6, 27846, Control_c, 4, 7, 117
6, 27848, Control_c, 4, 7, 116
6, 27850, Control_c, 4, 7, 115
6, 27852, Control_c, 4, 7, 114
6, 27854, Control_c, 4, 7, 113
6, 27857, Control_c, 4, 7, 112
6, 27859, Control_c, 4, 7, 111
6, 27861, Control_c, 4, 7, 110
6, 27863, Control_c, 4, 7, 109
6, 27865, Control_c, 4, 7, 108
6, 27867, Control_c, 4, 7, 107
6, 27869, Control_c, 4, 7, 106
6, 27871, Control_c, 4, 7, 105
6, 27874, Control_c, 4, 7, 104
6, 27876, Control_c, 4, 7, 103
6, 27878, Control_c, 4, 7, 102
6, 27880, Control_c, 4, 7, 101
6, 27882, Control_c, 4, 7, 100
6, 27884, Control_c, 4, 7, 99
6, 27886, Control_c, 4, 7, 98
6, 27888, Control_c, 4, 7, 97
6, 27891, Control_c, 4, 7, 96
6, 27893, Control_c, 4, 7, 95
6, 27895, Control_c, 4, 7, 94
6, 27897, Control_c, 4, 7, 93
6, 27899, Control_c, 4, 7, 92
6, 27901, Control_c, 4, 7, 91
6, 27903, Control_c, 4, 7, 90
6, 27905, Control_c, 4, 7, 89
6, 27908, Control_c, 4, 7, 88
6, 27910, Control_c, 4, 7, 87
6, 27912, Control_c, 4, 7, 86
6, 27914, Control_c, 4, 7, 85
6, 27916, Control_c, 4, 7, 84
6, 27918, Control_c, 4, 7, 83
6, 27920, Control_c, 4, 7, 82
6, 27922, Control_c, 4, 7, 81
6, 27925, Control_c, 4, 7, 80
6, 27927, Control_c, 4, 7, 79
6, 27929, Control_c, 4, 7, 78
6, 27931, Control_c, 4, 7, 77
6, 27933, Control_c, 4, 7, 76
6, 27935, Control_c, 4, 7, 75
6, 27937, Control_c, 4, 7, 74
6, 27939, Control_c, 4, 7, 73
6, 27942, Control_c, 4, 7, 72
6, 27944, Control_c, 4, 7, 71
6, 27946, Control_c, 4, 7, 70
6, 27948, Control_c, 4, 7, 69
6, 27950, Control_c, 4, 7, 68
6, 27952, Control_c, 4, 7, 67
6, 27954, Control_c, 4, 7, 66
6, 27956, Control_c, 4, 7, 65
6, 27959, Control_c, 4, 7, 64
6, 27960, Control_c, 4, 7, 64
6, 29760, Control_c, 4, 7, 96
6, 29760, Control_c, 4, 7, 120
6, 29762, Control_c, 4, 7, 106
6, 29762, Control_c, 4, 7, 119
6, 29764, Control_c, 4, 7, 105
6, 29764, Control_c, 4, 7, 118
6, 29766, Control_c, 4, 7, 104
6, 29766, Control_c, 4, 7, 117
6, 29768, Control_c, 4, 7, 103
6, 29768, Control_c, 4, 7, 116
6, 29770, Control_c, 4, 7, 102
6, 29770, Control_c, 4, 7, 115
6, 29772, Control_c, 4, 7, 101
6, 29772, Control_c, 4, 7, 114
6, 29774, Control_c, 4, 7, 95
6, 29774, Control_c, 4, 7, 100
6, 29774, Control_c, 4, 7, 113
6, 29777, Control_c, 4, 7, 99
6, 29777, Control_c, 4, 7, 112
6, 29779, Control_c, 4, 7, 98
6, 29779, Control_c, 4, 7, 111
6, 29781, Control_c, 4, 7, 97
6, 29781, Control_c, 4, 7, 110
6, 29783, Control_c, 4, 7, 96
6, 29783, Control_c, 4, 7, 109
6, 29785, Control_c, 4, 7, 95
6, 29785, Control_c, 4, 7, 108
6, 29787, Control_c, 4, 7, 94
6, 29787, Control_c, 4, 7, 107
6, 29789, Control_c, 4, 7, 94
6, 29789, Control_c, 4, 7, 93
6, 29789, Control_c, 4, 7, 106
6, 29791, Control_c, 4, 7, 105
6, 29792, Control_c, 4, 7, 92
6, 29794, Control_c, 4, 7, 91
6, 29794, Control_c, 4, 7, 104
6, 29796, Control_c, 4, 7, 90
6, 29796, Control_c, 4, 7, 103
6, 29798, Control_c, 4, 7, 89
6, 29798, Control_c, 4, 7, 102
6, 29800, Control_c, 4, 7, 88
6, 29800, Control_c, 4, 7, 101
6, 29802, Control_c, 4, 7, 87
6, 29802, Control_c, 4, 7, 100
6, 29804, Control_c, 4, 7, 93
6, 29804, Control_c, 4, 7, 86
6, 29804, Control_c, 4, 7, 99
6, 29806, Control_c, 4, 7, 98
6, 29807, Control_c, 4, 7, 85
6, 29808, Control_c, 4, 7, 97
6, 29809, Control_c, 4, 7, 84
6, 29811, Control_c, 4, 7, 83
6, 29811, Control_c, 4, 7, 96
6, 29813, Control_c, 4, 7, 82
6, 29813, Control_c, 4, 7, 95
6, 29815, Control_c, 4, 7, 81
6, 29815, Control_c, 4, 7, 94
6, 29817, Control_c, 4, 7, 80
6, 29817, Control_c, 4, 7, 93
6, 29819, Control_c, 4, 7, 92
6, 29819, Control_c, 4, 7, 79
6, 29819, Control_c, 4, 7, 92
6, 29821, Control_c, 4, 7, 91
6, 29822, Control_c, 4, 7, 78
6, 29823, Control_c, 4, 7, 90
6, 29824, Control_c, 4, 7, 77
6, 29825, Control_c, 4, 7, 89
6, 29826, Control_c, 4, 7, 76
6, 29828, Control_c, 4, 7, 75
6, 29828, Control_c, 4, 7, 88
6, 29830, Control_c, 4, 7, 74
6, 29830, Control_c, 4, 7, 87
6, 29832, Control_c, 4, 7, 73
6, 29832, Control_c, 4, 7, 86
6, 29834, Control_c, 4, 7, 91
6, 29834, Control_c, 4, 7, 72
6, 29834, Control_c, 4, 7, 85
6, 29836, Control_c, 4, 7, 84
6, 29837, Control_c, 4, 7, 71
6, 29838, Control_c, 4, 7, 83
6, 29839, Control_c, 4, 7, 70
6, 29840, Control_c, 4, 7, 82
6, 29841, Control_c, 4, 7, 69
6, 29842, Control_c, 4, 7, 81
6, 29843, Control_c, 4, 7, 68
6, 29845, Control_c, 4, 7, 67
6, 29845, Control_c, 4, 7, 80
6, 29847, Control_c, 4, 7, 66
6, 29847, Control_c, 4, 7, 79
6, 29849, Control_c, 4, 7, 90
6, 29849, Control_c, 4, 7, 65
6, 29849, Control_c, 4, 7, 78
6, 29851, Control_c, 4, 7, 77
6, 29852, Control_c, 4, 7, 64
6, 29853, Control_c, 4, 7, 76
6, 29855, Control_c, 4, 7, 75
6, 29857, Control_c, 4, 7, 74
6, 29859, Control_c, 4, 7, 73
6, 29862, Control_c, 4, 7, 72
6, 29864, Control_c, 4, 7, 89
6, 29864, Control_c, 4, 7, 71
6, 29866, Control_c, 4, 7, 70
6, 29868, Control_c, 4, 7, 69
6, 29870, Control_c, 4, 7, 68
6, 29872, Control_c, 4, 7, 67
6, 29874, Control_c, 4, 7, 66
6, 29876, Control_c, 4, 7, 65
6, 29879, Control_c, 4, 7, 88
6, 29879, Control_c, 4, 7, 64
6, 29880, Control_c, 4, 7, 64
6, 29894, Control_c, 4, 7, 87
6, 29909, Control_c, 4, 7, 86
6, 29924, Control_c, 4, 7, 85
6, 29939, Control_c, 4, 7, 84
6, 29954, Control_c, 4, 7, 83
6, 29969, Control_c, 4, 7, 82
6, 29984, Control_c, 4, 7, 81
6, 29999, Control_c, 4, 7, 80
6, 30014, Control_c, 4, 7, 79
6, 30029, Control_c, 4, 7, 78
6, 30044, Control_c, 4, 7, 77
6, 30059, Control_c, 4, 7, 76
6, 30074, Control_c, 4, 7, 75
6, 30089, Control_c, 4, 7, 74
6, 30104, Control_c, 4, 7, 73
6, 30119, Control_c, 4, 7, 72
6, 30134, Control_c, 4, 7, 71
6, 30149, Control_c, 4, 7, 70
6, 30164, Control_c, 4, 7, 69
6, 30179, Control_c, 4, 7, 68
6, 30194, Control_c, 4, 7, 67
6, 30209, Control_c, 4, 7, 66
6, 30213, Control_c, 4, 7, 115
6, 30215, Control_c, 4, 7, 114
6, 30218, Control_c, 4, 7, 113
6, 30220, Control_c, 4, 7, 112
6, 30222, Control_c, 4, 7, 111
6, 30224, Control_c, 4, 7, 65
6, 30224, Control_c, 4, 7, 110
6, 30226, Control_c, 4, 7, 109
6, 30228, Control_c, 4, 7, 108
6, 30230, Control_c, 4, 7, 107
6, 30233, Control_c, 4, 7, 106
6, 30235, Control_c, 4, 7, 105
6, 30237, Control_c, 4, 7, 104
6, 30239, Control_c, 4, 7, 64
6, 30239, Control_c, 4, 7, 103
6, 30240, Control_c, 4, 7, 96
6, 30240, Control_c, 4, 7, 120
6, 30241, Control_c, 4, 7, 102
6, 30242, Control_c, 4, 7, 119
6, 30243, Control_c, 4, 7, 101
6, 30244, Control_c, 4, 7, 118
6, 30245, Control_c, 4, 7, 100
6, 30246, Control_c, 4, 7, 117
6, 30248, Control_c, 4, 7, 99
6, 30248, Control_c, 4, 7, 116
6, 30250, Control_c, 4, 7, 98
6, 30250, Control_c, 4, 7, 115
6, 30252, Control_c, 4, 7, 97
6, 30252, Control_c, 4, 7, 114
6, 30254, Control_c, 4, 7, 95
6, 30254, Control_c, 4, 7, 96
6, 30254, Control_c, 4, 7, 113
6, 30256, Control_c, 4, 7, 95
6, 30257, Control_c, 4, 7, 112
6, 30258, Control_c, 4, 7, 94
6, 30259, Control_c, 4, 7, 111
6, 30260, Control_c, 4, 7, 93
6, 30261, Control_c, 4, 7, 110
6, 30263, Control_c, 4, 7, 92
6, 30263, Control_c, 4, 7, 109
6, 30265, Control_c, 4, 7, 91
6, 30265, Control_c, 4, 7, 108
6, 30267, Control_c, 4, 7, 90
6, 30267, Control_c, 4, 7, 107
6, 30269, Control_c, 4, 7, 94
6, 30269, Control_c, 4, 7, 89
6, 30269, Control_c, 4, 7, 106
6, 30271, Control_c, 4, 7, 88
6, 30271, Control_c, 4, 7, 105
6, 30273, Control_c, 4, 7, 87
6, 30274, Control_c, 4, 7, 104
6, 30275, Control_c, 4, 7, 86
6, 30276, Control_c, 4, 7, 103
6, 30278, Control_c, 4, 7, 85
6, 30278, Control_c, 4, 7, 102
6, 30280, Control_c, 4, 7, 84
6, 30280, Control_c, 4, 7, 101
6, 30282, Control_c, 4, 7, 83
6, 30282, Control_c, 4, 7, 100
6, 30284, Control_c, 4, 7, 93
6, 30284, Control_c, 4, 7, 82
6, 30284, Control_c, 4, 7, 99
6, 30286, Control_c, 4, 7, 81
6, 30286, Control_c, 4, 7, 98
6, 30288, Control_c, 4, 7, 80
6, 30288, Control_c, 4, 7, 97
6, 30290, Control_c, 4, 7, 79
6, 30291, Control_c, 4, 7, 96
6, 30293, Control_c, 4, 7, 78
6, 30293, Control_c, 4, 7, 95
6, 30295, Control_c, 4, 7, 77
6, 30295, Control_c, 4, 7, 94
6, 30297, Control_c, 4, 7, 76
6, 30297, Control_c, 4, 7, 93
6, 30299, Control_c, 4, 7, 92
6, 30299, Control_c, 4, 7, 75
6, 30299, Control_c, 4, 7, 92
6, 30301, Control_c, 4, 7, 74
6, 30301, Control_c, 4, 7, 91
6, 30303, Control_c, 4, 7, 73
6, 30303, Control_c, 4, 7, 90
6, 30305, Control_c, 4, 7, 72
6, 30305, Control_c, 4, 7, 89
6, 30308, Control_c, 4, 7, 71
6, 30308, Control_c, 4, 7, 88
6, 30310, Control_c, 4, 7, 70
6, 30310, Control_c, 4, 7, 87
6, 30312, Control_c, 4, 7, 69
6, 30312, Control_c, 4, 7, 86
6, 30314, Control_c, 4, 7, 91
6, 30314, Control_c, 4, 7, 68
6, 30314, Control_c, 4, 7, 85
6, 30316, Control_c, 4, 7, 67
6, 30316, Control_c, 4, 7, 84
6, 30318, Control_c, 4, 7, 66
6, 30318, Control_c, 4, 7, 83
6, 30320, Control_c, 4, 7, 65
6, 30320, Control_c, 4, 7, 82
6, 30322, Control_c, 4, 7, 81
6, 30323, Control_c, 4, 7, 64
6, 30325, Control_c, 4, 7, 80
6, 30327, Control_c, 4, 7, 79
6, 30329, Control_c, 4, 7, 90
6, 30329, Control_c, 4, 7, 78
6, 30331, Control_c, 4, 7, 77
6, 30333, Control_c, 4, 7, 76
6, 30335, Control_c, 4, 7, 75
6, 30337, Control_c, 4, 7, 74
6, 30339, Control_c, 4, 7, 73
6, 30342, Control_c, 4, 7, 72
6, 30344, Control_c, 4, 7, 89
6, 30344, Control_c, 4, 7, 71
6, 30346, Control_c, 4, 7, 70
6, 30348, Control_c, 4, 7, 69
6, 30350, Control_c, 4, 7, 68
6, 30352, Control_c, 4, 7, 67
6, 30354, Control_c, 4, 7, 66
6, 30356, Control_c, 4, 7, 65
6, 30359, Control_c, 4, 7, 88
6, 30359, Control_c, 4, 7, 64
6, 30360, Control_c, 4, 7, 64
6, 30374, Control_c, 4, 7, 87
6, 30389, Control_c, 4, 7, 86
6, 30404, Control_c, 4, 7, 85
6, 30419, Control_c, 4, 7, 84
6, 30434, Control_c, 4, 7, 83
6, 30449, Control_c, 4, 7, 82
6, 30464, Control_c, 4, 7, 81
6, 30479, Control_c, 4, 7, 80
6, 30494, Control_c, 4, 7, 79
6, 30509, Control_c, 4, 7, 78
6, 30524, Control_c, 4, 7, 77
6, 30539, Control_c, 4, 7, 76
6, 30554, Control_c, 4, 7, 75
6, 30569, Control_c, 4, 7, 74
6, 30584, Control_c, 4, 7, 73
6, 30599, Control_c, 4, 7, 72
6, 30614, Control_c, 4, 7, 71
6, 30629, Control_c, 4, 7, 70
6, 30644, Control_c, 4, 7, 69
6, 30659, Control_c, 4, 7, 68
6, 30674, Control_c, 4, 7, 67
6, 30689, Control_c, 4, 7, 66
6, 30704, Control_c, 4, 7, 65
6, 30719, Control_c, 4, 7, 64
6, 31680, Control_c, 4, 7, 120
6, 31682, Control_c, 4, 7, 119
6, 31684, Control_c, 4, 7, 118
6, 31686, Control_c, 4, 7, 117
6, 31688, Control_c, 4, 7, 116
6, 31690, Control_c, 4, 7, 115
6, 31692, Control_c, 4, 7, 114
6, 31694, Control_c, 4, 7, 113
6, 31697, Control_c, 4, 7, 112
6, 31699, Control_c, 4, 7, 111
6, 31701, Control_c, 4, 7, 110
6, 31703, Control_c, 4, 7, 109
6, 31705, Control_c, 4, 7, 108
6, 31707, Control_c, 4, 7, 107
6, 31709, Control_c, 4, 7, 106
6, 31711, Control_c, 4, 7, 105
6, 31714, Control_c, 4, 7, 104
6, 31716, Control_c, 4, 7, 103
6, 31718, Control_c, 4, 7, 102
6, 31720, Control_c, 4, 7, 101
6, 31722, Control_c, 4, 7, 100
6, 31724, Control_c, 4, 7, 99
6, 31726, Control_c, 4, 7, 98
6, 31728, Control_c, 4, 7, 97
6, 31731, Control_c, 4, 7, 96
6, 31733, Control_c, 4, 7, 95
6, 31735, Control_c, 4, 7, 94
6, 31737, Control_c, 4, 7, 93
6, 31739, Control_c, 4, 7, 92
6, 31741, Control_c, 4, 7, 91
6, 31743, Control_c, 4, 7, 90
6, 31745, Control_c, 4, 7, 89
6, 31748, Control_c, 4, 7, 88
6, 31750, Control_c, 4, 7, 87
6, 31752, Control_c, 4, 7, 86
6, 31754, Control_c, 4, 7, 85
6, 31756, Control_c, 4, 7, 84
6, 31758, Control_c, 4, 7, 83
6, 31760, Control_c, 4, 7, 82
6, 31762, Control_c, 4, 7, 81
6, 31765, Control_c, 4, 7, 80
6, 31767, Control_c, 4, 7, 79
6, 31769, Control_c, 4, 7, 78
6, 31771, Control_c, 4, 7, 77
6, 31773, Control_c, 4, 7, 76
6, 31775, Control_c, 4, 7, 75
6, 31777, Control_c, 4, 7, 74
6, 31779, Control_c, 4, 7, 73
6, 31782, Control_c, 4, 7, 72
6, 31784, Control_c, 4, 7, 71
6, 31786, Control_c, 4, 7, 70
6, 31788, Control_c, 4, 7, 69
6, 31790, Control_c, 4, 7, 68
6, 31792, Control_c, 4, 7, 67
6, 31794, Control_c, 4, 7, 66
6, 31796, Control_c, 4, 7, 65
6, 31799, Control_c, 4, 7, 64
6, 31800, Control_c, 4, 7, 64
6, 33600, Control_c, 4, 7, 96
6, 33600, Control_c, 4, 7, 120
6, 33602, Control_c, 4, 7, 106
6, 33602, Control_c, 4, 7, 119
6, 33604, Control_c, 4, 7, 105
6, 33604, Control_c, 4, 7, 118
6, 33606, Control_c, 4, 7, 104
6, 33606, Control_c, 4, 7, 117
6, 33608, Control_c, 4, 7, 103
6, 33608, Control_c, 4, 7, 116
6, 33610, Control_c, 4, 7, 102
6, 33610, Control_c, 4, 7, 115
6, 33612, Control_c, 4, 7, 101
6, 33612, Control_c, 4, 7, 114
6, 33614, Control_c, 4, 7, 95
6, 33614, Control_c, 4, 7, 100
6, 33614, Control_c, 4, 7, 113
6, 33617, Control_c, 4, 7, 99
6, 33617, Control_c, 4, 7, 112
6, 33619, Control_c, 4, 7, 98
6, 33619, Control_c, 4, 7, 111
6, 33621, Control_c, 4, 7, 97
6, 33621, Control_c, 4, 7, 110
6, 33623, Control_c, 4, 7, 96
6, 33623, Control_c, 4, 7, 109
6, 33625, Control_c, 4, 7, 95
6, 33625, Control_c, 4, 7, 108
6, 33627, Control_c, 4, 7, 94
6, 33627, Control_c, 4, 7, 107
6, 33629, Control_c, 4, 7, 94
6, 33629, Control_c, 4, 7, 93
6, 33629, Control_c, 4, 7, 106
6, 33631, Control_c, 4, 7, 105
6, 33632, Control_c, 4, 7, 92
6, 33634, Control_c, 4, 7, 91
6, 33634, Control_c, 4, 7, 104
6, 33636, Control_c, 4, 7, 90
6, 33636, Control_c, 4, 7, 103
6, 33638, Control_c, 4, 7, 89
6, 33638, Control_c, 4, 7, 102
6, 33640, Control_c, 4, 7, 88
6, 33640, Control_c, 4, 7, 101
6, 33642, Control_c, 4, 7, 87
6, 33642, Control_c, 4, 7, 100
6, 33644, Control_c, 4, 7, 93
6, 33644, Control_c, 4, 7, 86
6, 33644, Control_c, 4, 7, 99
6, 33646, Control_c, 4, 7, 98
6, 33647, Control_c, 4, 7, 85
6, 33648, Control_c, 4, 7, 97
6, 33649, Control_c, 4, 7, 84
6, 33651, Control_c, 4, 7, 83
6, 33651, Control_c, 4, 7, 96
6, 33653, Control_c, 4, 7, 82
6, 33653, Control_c, 4, 7, 95
6, 33655, Control_c, 4, 7, 81
6, 33655, Control_c, 4, 7, 94
6, 33657, Control_c, 4, 7, 80
6, 33657, Control_c, 4, 7, 93
6, 33659, Control_c, 4, 7, 92
6, 33659, Control_c, 4, 7, 79
6, 33659, Control_c, 4, 7, 92
6, 33661, Control_c, 4, 7, 91
6, 33662, Control_c, 4, 7, 78
6, 33663, Control_c, 4, 7, 90
6, 33664, Control_c, 4, 7, 77
6, 33665, Control_c, 4, 7, 89
6, 33666, Control_c, 4, 7, 76
6, 33668, Control_c, 4, 7, 75
6, 33668, Control_c, 4, 7, 88
6, 33670, Control_c, 4, 7, 74
6, 33670, Control_c, 4, 7, 87
6, 33672, Control_c, 4, 7, 73
6, 33672, Control_c, 4, 7, 86
6, 33674, Control_c, 4, 7, 91
6, 33674, Control_c, 4, 7, 72
6, 33674, Control_c, 4, 7, 85
6, 33676, Control_c, 4, 7, 84
6, 33677, Control_c, 4, 7, 71
6, 33678, Control_c, 4, 7, 83
6, 33679, Control_c, 4, 7, 70
6, 33680, Control_c, 4, 7, 82
6, 33681, Control_c, 4, 7, 69
6, 33682, Control_c, 4, 7, 81
6, 33683, Control_c, 4, 7, 68
6, 33685, Control_c, 4, 7, 67
6, 33685, Control_c, 4, 7, 80
6, 33687, Control_c, 4, 7, 66
6, 33687, Control_c, 4, 7, 79
6, 33689, Control_c, 4, 7, 90
6, 33689, Control_c, 4, 7, 65
6, 33689, Control_c, 4, 7, 78
6, 33691, Control_c, 4, 7, 77
6, 33692, Control_c, 4, 7, 64
6, 33693, Control_c, 4, 7, 76
6, 33695, Control_c, 4, 7, 75
6, 33697, Control_c, 4, 7, 74
6, 33699, Control_c, 4, 7, 73
6, 33702, Control_c, 4, 7, 72
6, 33704, Control_c, 4, 7, 89
6, 33704, Control_c, 4, 7, 71
6, 33706, Control_c, 4, 7, 70
6, 33708, Control_c, 4, 7, 69
6, 33710, Control_c, 4, 7, 68
6, 33712, Control_c, 4, 7, 67
6, 33714, Control_c, 4, 7, 66
6, 33716, Control_c, 4, 7, 65
6, 33719, Control_c, 4, 7, 88
6, 33719, Control_c, 4, 7, 64
6, 33720, Control_c, 4, 7, 64
6, 33734, Control_c, 4, 7, 87
6, 33749, Control_c, 4, 7, 86
6, 33764, Control_c, 4, 7, 85
6, 33779, Control_c, 4, 7, 84
6, 33794, Control_c, 4, 7, 83
6, 33809, Control_c, 4, 7, 82
6, 33824, Control_c, 4, 7, 81
6, 33839, Control_c, 4, 7, 80
6, 33854, Control_c, 4, 7, 79
6, 33869, Control_c, 4, 7, 78
6, 33884, Control_c, 4, 7, 77
6, 33899, Control_c, 4, 7, 76
6, 33914, Control_c, 4, 7, 75
6, 33929, Control_c, 4, 7, 74
6, 33944, Control_c, 4, 7, 73
6, 33959, Control_c, 4, 7, 72
6, 33974, Control_c, 4, 7, 71
6, 33989, Control_c, 4, 7, 70
6, 34004, Control_c, 4, 7, 69
6, 34019, Control_c, 4, 7, 68
6, 34034, Control_c, 4, 7, 67
6, 34049, Control_c, 4, 7, 66
6, 34053, Control_c, 4, 7, 115
6, 34055, Control_c, 4, 7, 114
6, 34058, Control_c, 4, 7, 113
6, 34060, Control_c, 4, 7, 112
6, 34062, Control_c, 4, 7, 111
6, 34064, Control_c, 4, 7, 65
6, 34064, Control_c, 4, 7, 110
6, 34066, Control_c, 4, 7, 109
6, 34068, Control_c, 4, 7, 108
6, 34070, Control_c, 4, 7, 107
6, 34073, Control_c, 4, 7, 106
6, 34075, Control_c, 4, 7, 105
6, 34077, Control_c, 4, 7, 104
6, 34079, Control_c, 4, 7, 64
6, 34079, Control_c, 4, 7, 103
6, 34080, Control_c, 4, 7, 96
6, 34080, Control_c, 4, 7, 120
6, 34081, Control_c, 4, 7, 102
6, 34082, Control_c, 4, 7, 119
6, 34083, Control_c, 4, 7, 101
6, 34084, Control_c, 4, 7, 118
6, 34085, Control_c, 4, 7, 100
6, 34086, Control_c, 4, 7, 117
6, 34088, Control_c, 4, 7, 99
6, 34088, Control_c, 4, 7, 116
6, 34090, Control_c, 4, 7, 98
6, 34090, Control_c, 4, 7, 115
6, 34092, Control_c, 4, 7, 97
6, 34092, Control_c, 4, 7, 114
6, 34094, Control_c, 4, 7, 95
6, 34094, Control_c, 4, 7, 96
6, 34094, Control_c, 4, 7, 113
6, 34096, Control_c, 4, 7, 95
6, 34097, Control_c, 4, 7, 112
6, 34098, Control_c, 4, 7, 94
6, 34099, Control_c, 4, 7, 111
6, 34100, Control_c, 4, 7, 93
6, 34101, Control_c, 4, 7, 110
6, 34103, Control_c, 4, 7, 92
6, 34103, Control_c, 4, 7, 109
6, 34105, Control_c, 4, 7, 91
6, 34105, Control_c, 4, 7, 108
6, 34107, Control_c, 4, 7, 90
6, 34107, Control_c, 4, 7, 107
6, 34109, Control_c, 4, 7, 94
6, 34109, Control_c, 4, 7, 89
6, 34109, Control_c, 4, 7, 106
6, 34111, Control_c, 4, 7, 88
6, 34111, Control_c, 4, 7, 105
6, 34113, Control_c, 4, 7, 87
6, 34114, Control_c, 4, 7, 104
6, 34115, Control_c, 4, 7, 86
6, 34116, Control_c, 4, 7, 103
6, 34118, Control_c, 4, 7, 85
6, 34118, Control_c, 4, 7, 102
6, 34120, Control_c, 4, 7, 84
6, 34120, Control_c, 4, 7, 101
6, 34122, Control_c, 4, 7, 83
6, 34122, Control_c, 4, 7, 100
6, 34124, Control_c, 4, 7, 93
6, 34124, Control_c, 4, 7, 82
6, 34124, Control_c, 4, 7, 99
6, 34126, Control_c, 4, 7, 81
6, 34126, Control_c, 4, 7, 98
6, 34128, Control_c, 4, 7, 80
6, 34128, Control_c, 4, 7, 97
6, 34130, Control_c, 4, 7, 79
6, 34131, Control_c, 4, 7, 96
6, 34133, Control_c, 4, 7, 78
6, 34133, Control_c, 4, 7, 95
6, 34135, Control_c, 4, 7, 77
6, 34135, Control_c, 4, 7, 94
6, 34137, Control_c, 4, 7, 76
6, 34137, Control_c, 4, 7, 93
6, 34139, Control_c, 4, 7, 92
6, 34139, Control_c, 4, 7, 75
6, 34139, Control_c, 4, 7, 92
6, 34141, Control_c, 4, 7, 74
6, 34141, Control_c, 4, 7, 91
6, 34143, Control_c, 4, 7, 73
6, 34143, Control_c, 4, 7, 90
6, 34145, Control_c, 4, 7, 72
6, 34145, Control_c, 4, 7, 89
6, 34148, Control_c, 4, 7, 71
6, 34148, Control_c, 4, 7, 88
6, 34150, Control_c, 4, 7, 70
6, 34150, Control_c, 4, 7, 87
6, 34152, Control_c, 4, 7, 69
6, 34152, Control_c, 4, 7, 86
6, 34154, Control_c, 4, 7, 91
6, 34154, Control_c, 4, 7, 68
6, 34154, Control_c, 4, 7, 85
6, 34156, Control_c, 4, 7, 67
6, 34156, Control_c, 4, 7, 84
6, 34158, Control_c, 4, 7, 66
6, 34158, Control_c, 4, 7, 83
6, 34160, Control_c, 4, 7, 65
6, 34160, Control_c, 4, 7, 82
6, 34162, Control_c, 4, 7, 81
6, 34163, Control_c, 4, 7, 64
6, 34165, Control_c, 4, 7, 80
6, 34167, Control_c, 4, 7, 79
6, 34169, Control_c, 4, 7, 90
6, 34169, Control_c, 4, 7, 78
6, 34171, Control_c, 4, 7, 77
6, 34173, Control_c, 4, 7, 76
6, 34175, Control_c, 4, 7, 75
6, 34177, Control_c, 4, 7, 74
6, 34179, Control_c, 4, 7, 73
6, 34182, Control_c, 4, 7, 72
6, 34184, Control_c, 4, 7, 89
6, 34184, Control_c, 4, 7, 71
6, 34186, Control_c, 4, 7, 70
6, 34188, Control_c, 4, 7, 69
6, 34190, Control_c, 4, 7, 68
6, 34192, Control_c, 4, 7, 67
6, 34194, Control_c, 4, 7, 66
6, 34196, Control_c, 4, 7, 65
6, 34199, Control_c, 4, 7, 88
6, 34199, Control_c, 4, 7, 64
6, 34200, Control_c, 4, 7, 64
6, 34214, Control_c, 4, 7, 87
6, 34229, Control_c, 4, 7, 86
6, 34244, Control_c, 4, 7, 85
6, 34259, Control_c, 4, 7, 84
6, 34274, Control_c, 4, 7, 83
6, 34289, Control_c, 4, 7, 82
6, 34304, Control_c, 4, 7, 81
6, 34319, Control_c, 4, 7, 80
6, 34334, Control_c, 4, 7, 79
6, 34349, Control_c, 4, 7, 78
6, 34364, Control_c, 4, 7, 77
6, 34379, Control_c, 4, 7, 76
6, 34394, Control_c, 4, 7, 75
6, 34409, Control_c, 4, 7, 74
6, 34424, Control_c, 4, 7, 73
6, 34439, Control_c, 4, 7, 72
6, 34454, Control_c, 4, 7, 71
6, 34469, Control_c, 4, 7, 70
6, 34484, Control_c, 4, 7, 69
6, 34499, Control_c, 4, 7, 68
6, 34514, Control_c, 4, 7, 67
6, 34529, Control_c, 4, 7, 66
6, 34544, Control_c, 4, 7, 65
6, 34559, Control_c, 4, 7, 64
6, 35690, Control_c, 4, 7, 104
6, 35760, Note_on_c, 4, 69, 80
6, 35760, Note_on_c, 4, 78, 80
6, 35856, Note_on_c, 4, 78, 0
6, 35856, Note_on_c, 4, 69, 0
6, 36720, Note_on_c, 4, 76, 80
6, 36720, Note_on_c, 4, 76, 80
6, 36816, Note_on_c, 4, 76, 0
6, 36816, Note_on_c, 4, 76, 0
6, 37680, Note_on_c, 4, 74, 80
6, 37680, Note_on_c, 4, 74, 80
6, 37776, Note_on_c, 4, 74, 0
6, 37776, Note_on_c, 4, 74, 0
6, 38400, Note_on_c, 4, 76, 80
6, 38784, Note_on_c, 4, 76, 0
6, 38880, Note_on_c, 4, 76, 80
6, 39264, Note_on_c, 4, 76, 0
6, 39360, Note_on_c, 4, 76, 80
6, 39744, Note_on_c, 4, 76, 0
6, 39840, Note_on_c, 4, 76, 80
6, 39840, Note_on_c, 4, 76, 80
6, 40032, Note_on_c, 4, 76, 0
6, 40032, Note_on_c, 4, 76, 0
6, 40080, Note_on_c, 4, 76, 80
6, 40080, Note_on_c, 4, 76, 80
6, 40272, Note_on_c, 4, 76, 0
6, 40272, Note_on_c, 4, 76, 0
6, 40320, Note_on_c, 4, 69, 80
6, 40320, Note_on_c, 4, 76, 80
6, 40416, Note_on_c, 4, 76, 0
6, 40416, Note_on_c, 4, 69, 0
6, 40440, Note_on_c, 4, 57, 80
6, 40440, Note_on_c, 4, 69, 80
6, 40536, Note_on_c, 4, 69, 0
6, 40536, Note_on_c, 4, 57, 0
6, 40560, Note_on_c, 4, 69, 80
6, 40560, Note_on_c, 4, 57, 80
6, 40656, Note_on_c, 4, 57, 0
6, 40656, Note_on_c, 4, 69, 0
6, 40680, Note_on_c, 4, 57, 80
6, 40680, Note_on_c, 4, 69, 80
6, 40776, Note_on_c, 4, 69, 0
6, 40776, Note_on_c, 4, 57, 0
6, 40800, Note_on_c, 4, 57, 80
6, 40800, Note_on_c, 4, 69, 80
6, 41376, Note_on_c, 4, 69, 0
6, 41376, Note_on_c, 4, 57, 0
6, 41400, Note_on_c, 4, 69, 80
6, 41400, Note_on_c, 4, 57, 80
6, 41496, Note_on_c, 4, 57, 0
6, 41496, Note_on_c, 4, 69, 0
6, 41520, Note_on_c, 4, 57, 80
6, 41520, Note_on_c, 4, 69, 80
6, 41616, Note_on_c, 4, 69, 0
6, 41616, Note_on_c, 4, 57, 0
6, 41640, Note_on_c, 4, 69, 80
6, 41640, Note_on_c, 4, 57, 80
6, 41736, Note_on_c, 4, 57, 0
6, 41736, Note_on_c, 4, 69, 0
6, 41760, Note_on_c, 4, 69, 80
6, 41760, Note_on_c, 4, 57, 80
6, 42336, Note_on_c, 4, 57, 0
6, 42336, Note_on_c, 4, 69, 0
6, 42360, Note_on_c, 4, 69, 80
6, 42360, Note_on_c, 4, 57, 80
6, 42456, Note_on_c, 4, 57, 0
6, 42456, Note_on_c, 4, 69, 0
6, 42480, Note_on_c, 4, 57, 80
6, 42480, Note_on_c, 4, 69, 80
6, 42576, Note_on_c, 4, 69, 0
6, 42576, Note_on_c, 4, 57, 0
6, 42600, Note_on_c, 4, 69, 80
6, 42600, Note_on_c, 4, 57, 80
6, 42696, Note_on_c, 4, 57, 0
6, 42696, Note_on_c, 4, 69, 0
6, 42720, Note_on_c, 4, 69, 80
6, 42720, Note_on_c, 4, 57, 80
6, 43104, Note_on_c, 4, 57, 0
6, 43104, Note_on_c, 4, 69, 0
6, 43200, Note_on_c, 4, 69, 80
6, 43200, Note_on_c, 4, 57, 80
6, 43650, Note_on_c, 4, 57, 0
6, 43650, Note_on_c, 4, 69, 0
6, 43680, Note_on_c, 4, 78, 80
6, 43680, Note_on_c, 4, 78, 80
6, 43872, Note_on_c, 4, 78, 0
6, 43872, Note_on_c, 4, 78, 0
6, 43920, Note_on_c, 4, 76, 80
6, 43920, Note_on_c, 4, 76, 80
6, 44112, Note_on_c, 4, 76, 0
6, 44112, Note_on_c, 4, 76, 0
6, 44160, Note_on_c, 4, 69, 80
6, 44160, Note_on_c, 4, 76, 80
6, 44352, Note_on_c, 4, 76, 0
6, 44352, Note_on_c, 4, 69, 0
6, 44400, Note_on_c, 4, 74, 80
6, 44400, Note_on_c, 4, 78, 80
6, 44592, Note_on_c, 4, 78, 0
6, 44592, Note_on_c, 4, 74, 0
6, 44640, Note_on_c, 4, 76, 80
6, 44640, Note_on_c, 4, 76, 80
6, 45024, Note_on_c, 4, 76, 0
6, 45024, Note_on_c, 4, 76, 0
6, 45120, Note_on_c, 4, 69, 80
6, 45120, Note_on_c, 4, 76, 80
6, 45216, Note_on_c, 4, 76, 0
6, 45216, Note_on_c, 4, 69, 0
6, 46200, Control_c, 4, 7, 96
6, 46200, Control_c, 4, 7, 96
6, 46207, Control_c, 4, 7, 95
6, 46207, Control_c, 4, 7, 95
6, 46214, Control_c, 4, 7, 94
6, 46214, Control_c, 4, 7, 94
6, 46222, Control_c, 4, 7, 93
6, 46222, Control_c, 4, 7, 93
6, 46229, Control_c, 4, 7, 92
6, 46229, Control_c, 4, 7, 92
6, 46237, Control_c, 4, 7, 91
6, 46237, Control_c, 4, 7, 91
6, 46244, Control_c, 4, 7, 90
6, 46244, Control_c, 4, 7, 90
6, 46252, Control_c, 4, 7, 89
6, 46252, Control_c, 4, 7, 89
6, 46259, Control_c, 4, 7, 88
6, 46259, Control_c, 4, 7, 88
6, 46267, Control_c, 4, 7, 87
6, 46267, Control_c, 4, 7, 87
6, 46274, Control_c, 4, 7, 86
6, 46274, Control_c, 4, 7, 86
6, 46282, Control_c, 4, 7, 85
6, 46282, Control_c, 4, 7, 85
6, 46289, Control_c, 4, 7, 84
6, 46289, Control_c, 4, 7, 84
6, 46297, Control_c, 4, 7, 83
6, 46297, Control_c, 4, 7, 83
6, 46304, Control_c, 4, 7, 82
6, 46304, Control_c, 4, 7, 82
6, 46312, Control_c, 4, 7, 81
6, 46312, Control_c, 4, 7, 81
6, 46319, Control_c, 4, 7, 80
6, 46319, Control_c, 4, 7, 80
6, 46326, Control_c, 4, 7, 79
6, 46326, Control_c, 4, 7, 79
6, 46334, Control_c, 4, 7, 78
6, 46334, Control_c, 4, 7, 78
6, 46341, Control_c, 4, 7, 77
6, 46341, Control_c, 4, 7, 77
6, 46349, Control_c, 4, 7, 76
6, 46349, Control_c, 4, 7, 76
6, 46356, Control_c, 4, 7, 75
6, 46356, Control_c, 4, 7, 75
6, 46364, Control_c, 4, 7, 74
6, 46364, Control_c, 4, 7, 74
6, 46371, Control_c, 4, 7, 73
6, 46371, Control_c, 4, 7, 73
6, 46379, Control_c, 4, 7, 72
6, 46379, Control_c, 4, 7, 72
6, 46386, Control_c, 4, 7, 71
6, 46386, Control_c, 4, 7, 71
6, 46394, Control_c, 4, 7, 70
6, 46394, Control_c, 4, 7, 70
6, 46401, Control_c, 4, 7, 69
6, 46401, Control_c, 4, 7, 69
6, 46409, Control_c, 4, 7, 68
6, 46409, Control_c, 4, 7, 68
6, 46416, Control_c, 4, 7, 67
6, 46416, Control_c, 4, 7, 67
6, 46424, Control_c, 4, 7, 66
6, 46424, Control_c, 4, 7, 66
6, 46431, Control_c, 4, 7, 65
6, 46431, Control_c, 4, 7, 65
6, 46439, Control_c, 4, 7, 64
6, 46439, Control_c, 4, 7, 64
6, 47160, Control_c, 4, 7, 96
6, 47160, Control_c, 4, 7, 96
6, 47167, Control_c, 4, 7, 95
6, 47167, Control_c, 4, 7, 95
6, 47175, Control_c, 4, 7, 94
6, 47175, Control_c, 4, 7, 94
6, 47182, Control_c, 4, 7, 93
6, 47182, Control_c, 4, 7, 93
6, 47190, Control_c, 4, 7, 92
6, 47190, Control_c, 4, 7, 92
6, 47197, Control_c, 4, 7, 91
6, 47197, Control_c, 4, 7, 91
6, 47205, Control_c, 4, 7, 90
6, 47205, Control_c, 4, 7, 90
6, 47212, Control_c, 4, 7, 89
6, 47212, Control_c, 4, 7, 89
6, 47220, Control_c, 4, 7, 88
6, 47220, Control_c, 4, 7, 88
6, 47227, Control_c, 4, 7, 87
6, 47227, Control_c, 4, 7, 87
6, 47235, Control_c, 4, 7, 86
6, 47235, Control_c, 4, 7, 86
6, 47242, Control_c, 4, 7, 85
6, 47242, Control_c, 4, 7, 85
6, 47250, Control_c, 4, 7, 84
6, 47250, Control_c, 4, 7, 84
6, 47257, Control_c, 4, 7, 83
6, 47257, Control_c, 4, 7, 83
6, 47265, Control_c, 4, 7, 82
6, 47265, Control_c, 4, 7, 82
6, 47272, Control_c, 4, 7, 81
6, 47272, Control_c, 4, 7, 81
6, 47280, Control_c, 4, 7, 80
6, 47280, Control_c, 4, 7, 80
6, 47287, Control_c, 4, 7, 79
6, 47287, Control_c, 4, 7, 79
6, 47295, Control_c, 4, 7, 78
6, 47295, Control_c, 4, 7, 78
6, 47302, Control_c, 4, 7, 77
6, 47302, Control_c, 4, 7, 77
6, 47310, Control_c, 4, 7, 76
6, 47310, Control_c, 4, 7, 76
6, 47317, Control_c, 4, 7, 75
6, 47317, Control_c, 4, 7, 75
6, 47325, Control_c, 4, 7, 74
6, 47325, Control_c, 4, 7, 74
6, 47332, Control_c, 4, 7, 73
6, 47332, Control_c, 4, 7, 73
6, 47340, Control_c, 4, 7, 72
6, 47340, Control_c, 4, 7, 72
6, 47347, Control_c, 4, 7, 71
6, 47347, Control_c, 4, 7, 71
6, 47355, Control_c, 4, 7, 70
6, 47355, Control_c, 4, 7, 70
6, 47362, Control_c, 4, 7, 69
6, 47362, Control_c, 4, 7, 69
6, 47370, Control_c, 4, 7, 68
6, 47370, Control_c, 4, 7, 68
6, 47377, Control_c, 4, 7, 67
6, 47377, Control_c, 4, 7, 67
6, 47385, Control_c, 4, 7, 66
6, 47385, Control_c, 4, 7, 66
6, 47392, Control_c, 4, 7, 65
6, 47392, Control_c, 4, 7, 65
6, 47400, Control_c, 4, 7, 64
6, 47400, Control_c, 4, 7, 64
6, 50880, Note_on_c, 4, 57, 80
6, 50880, Note_on_c, 4, 69, 80
6, 51840, Control_c, 4, 7, 64
6, 51840, Control_c, 4, 7, 64
6, 51869, Control_c, 4, 7, 65
6, 51869, Control_c, 4, 7, 65
6, 51899, Control_c, 4, 7, 66
6, 51899, Control_c, 4, 7, 66
6, 51929, Control_c, 4, 7, 67
6, 51929, Control_c, 4, 7, 67
6, 51959, Control_c, 4, 7, 68
6, 51959, Control_c, 4, 7, 68
6, 51989, Control_c, 4, 7, 69
6, 51989, Control_c, 4, 7, 69
6, 52019, Control_c, 4, 7, 70
6, 52019, Control_c, 4, 7, 70
6, 52049, Control_c, 4, 7, 71
6, 52049, Control_c, 4, 7, 71
6, 52079, Control_c, 4, 7, 72
6, 52079, Control_c, 4, 7, 72
6, 52109, Control_c, 4, 7, 73
6, 52109, Control_c, 4, 7, 73
6, 52139, Control_c, 4, 7, 74
6, 52139, Control_c, 4, 7, 74
6, 52169, Control_c, 4, 7, 75
6, 52169, Control_c, 4, 7, 75
6, 52199, Control_c, 4, 7, 76
6, 52199, Control_c, 4, 7, 76
6, 52229, Control_c, 4, 7, 77
6, 52229, Control_c, 4, 7, 77
6, 52259, Control_c, 4, 7, 78
6, 52259, Control_c, 4, 7, 78
6, 52289, Control_c, 4, 7, 79
6, 52289, Control_c, 4, 7, 79
6, 52319, Control_c, 4, 7, 80
6, 52319, Control_c, 4, 7, 80
6, 52349, Control_c, 4, 7, 81
6, 52349, Control_c, 4, 7, 81
6, 52379, Control_c, 4, 7, 82
6, 52379, Control_c, 4, 7, 82
6, 52409, Control_c, 4, 7, 83
6, 52409, Control_c, 4, 7, 83
6, 52439, Control_c, 4, 7, 84
6, 52439, Control_c, 4, 7, 84
6, 52469, Control_c, 4, 7, 85
6, 52469, Control_c, 4, 7, 85
6, 52499, Control_c, 4, 7, 86
6, 52499, Control_c, 4, 7, 86
6, 52529, Control_c, 4, 7, 87
6, 52529, Control_c, 4, 7, 87
6, 52559, Control_c, 4, 7, 88
6, 52559, Control_c, 4, 7, 88
6, 52589, Control_c, 4, 7, 89
6, 52589, Control_c, 4, 7, 89
6, 52619, Control_c, 4, 7, 90
6, 52619, Control_c, 4, 7, 90
6, 52649, Control_c, 4, 7, 91
6, 52649, Control_c, 4, 7, 91
6, 52679, Control_c, 4, 7, 92
6, 52679, Control_c, 4, 7, 92
6, 52709, Control_c, 4, 7, 93
6, 52709, Control_c, 4, 7, 93
6, 52739, Control_c, 4, 7, 94
6, 52739, Control_c, 4, 7, 94
6, 52769, Control_c, 4, 7, 95
6, 52769, Control_c, 4, 7, 95
6, 52799, Control_c, 4, 7, 96
6, 52799, Control_c, 4, 7, 96
6, 52800, Control_c, 4, 7, 96
6, 52800, Control_c, 4, 7, 96
6, 52814, Control_c, 4, 7, 95
6, 52814, Control_c, 4, 7, 95
6, 52829, Control_c, 4, 7, 94
6, 52829, Control_c, 4, 7, 94
6, 52844, Control_c, 4, 7, 93
6, 52844, Control_c, 4, 7, 93
6, 52859, Control_c, 4, 7, 92
6, 52859, Control_c, 4, 7, 92
6, 52874, Control_c, 4, 7, 91
6, 52874, Control_c, 4, 7, 91
6, 52889, Control_c, 4, 7, 90
6, 52889, Control_c, 4, 7, 90
6, 52904, Control_c, 4, 7, 89
6, 52904, Control_c, 4, 7, 89
6, 52919, Control_c, 4, 7, 88
6, 52919, Control_c, 4, 7, 88
6, 52934, Control_c, 4, 7, 87
6, 52934, Control_c, 4, 7, 87
6, 52949, Control_c, 4, 7, 86
6, 52949, Control_c, 4, 7, 86
6, 52964, Control_c, 4, 7, 85
6, 52964, Control_c, 4, 7, 85
6, 52979, Control_c, 4, 7, 84
6, 52979, Control_c, 4, 7, 84
6, 52994, Control_c, 4, 7, 83
6, 52994, Control_c, 4, 7, 83
6, 53009, Control_c, 4, 7, 82
6, 53009, Control_c, 4, 7, 82
6, 53024, Control_c, 4, 7, 81
6, 53024, Control_c, 4, 7, 81
6, 53039, Control_c, 4, 7, 80
6, 53039, Control_c, 4, 7, 80
6, 53054, Control_c, 4, 7, 79
6, 53054, Control_c, 4, 7, 79
6, 53069, Control_c, 4, 7, 78
6, 53069, Control_c, 4, 7, 78
6, 53084, Control_c, 4, 7, 77
6, 53084, Control_c, 4, 7, 77
6, 53099, Control_c, 4, 7, 76
6, 53099, Control_c, 4, 7, 76
6, 53114, Control_c, 4, 7, 75
6, 53114, Control_c, 4, 7, 75
6, 53129, Control_c, 4, 7, 74
6, 53129, Control_c, 4, 7, 74
6, 53144, Control_c, 4, 7, 73
6, 53144, Control_c, 4, 7, 73
6, 53159, Control_c, 4, 7, 72
6, 53159, Control_c, 4, 7, 72
6, 53174, Control_c, 4, 7, 71
6, 53174, Control_c, 4, 7, 71
6, 53184, Note_on_c, 4, 69, 0
6, 53184, Note_on_c, 4, 57, 0
6, 53189, Control_c, 4, 7, 70
6, 53189, Control_c, 4, 7, 70
6, 53204, Control_c, 4, 7, 69
6, 53204, Control_c, 4, 7, 69
6, 53219, Control_c, 4, 7, 68
6, 53219, Control_c, 4, 7, 68
6, 53234, Control_c, 4, 7, 67
6, 53234, Control_c, 4, 7, 67
6, 53249, Control_c, 4, 7, 66
6, 53249, Control_c, 4, 7, 66
6, 53264, Control_c, 4, 7, 65
6, 53264, Control_c, 4, 7, 65
6, 53279, Control_c, 4, 7, 64
6, 53279, Control_c, 4, 7, 64
6, 53760, Control_c, 4, 7, 64
6, 53760, Control_c, 4, 7, 64
6, 53789, Control_c, 4, 7, 65
6, 53789, Control_c, 4, 7, 65
6, 53819, Control_c, 4, 7, 66
6, 53819, Control_c, 4, 7, 66
6, 53849, Control_c, 4, 7, 67
6, 53849, Control_c, 4, 7, 67
6, 53879, Control_c, 4, 7, 68
6, 53879, Control_c, 4, 7, 68
6, 53909, Control_c, 4, 7, 69
6, 53909, Control_c, 4, 7, 69
6, 53939, Control_c, 4, 7, 70
6, 53939, Control_c, 4, 7, 70
6, 53969, Control_c, 4, 7, 71
6, 53969, Control_c, 4, 7, 71
6, 53999, Control_c, 4, 7, 72
6, 53999, Control_c, 4, 7, 72
6, 54029, Control_c, 4, 7, 73
6, 54029, Control_c, 4, 7, 73
6, 54059, Control_c, 4, 7, 74
6, 54059, Control_c, 4, 7, 74
6, 54089, Control_c, 4, 7, 75
6, 54089, Control_c, 4, 7, 75
6, 54119, Control_c, 4, 7, 76
6, 54119, Control_c, 4, 7, 76
6, 54149, Control_c, 4, 7, 77
6, 54149, Control_c, 4, 7, 77
6, 54179, Control_c, 4, 7, 78
6, 54179, Control_c, 4, 7, 78
6, 54209, Control_c, 4, 7, 79
6, 54209, Control_c, 4, 7, 79
6, 54239, Control_c, 4, 7, 80
6, 54239, Control_c, 4, 7, 80
6, 54269, Control_c, 4, 7, 81
6, 54269, Control_c, 4, 7, 81
6, 54299, Control_c, 4, 7, 82
6, 54299, Control_c, 4, 7, 82
6, 54329, Control_c, 4, 7, 83
6, 54329, Control_c, 4, 7, 83
6, 54359, Control_c, 4, 7, 84
6, 54359, Control_c, 4, 7, 84
6, 54389, Control_c, 4, 7, 85
6, 54389, Control_c, 4, 7, 85
6, 54419, Control_c, 4, 7, 86
6, 54419, Control_c, 4, 7, 86
6, 54449, Control_c, 4, 7, 87
6, 54449, Control_c, 4, 7, 87
6, 54479, Control_c, 4, 7, 88
6, 54479, Control_c, 4, 7, 88
6, 54509, Control_c, 4, 7, 89
6, 54509, Control_c, 4, 7, 89
6, 54539, Control_c, 4, 7, 90
6, 54539, Control_c, 4, 7, 90
6, 54569, Control_c, 4, 7, 91
6, 54569, Control_c, 4, 7, 91
6, 54599, Control_c, 4, 7, 92
6, 54599, Control_c, 4, 7, 92
6, 54629, Control_c, 4, 7, 93
6, 54629, Control_c, 4, 7, 93
6, 54659, Control_c, 4, 7, 94
6, 54659, Control_c, 4, 7, 94
6, 54689, Control_c, 4, 7, 95
6, 54689, Control_c, 4, 7, 95
6, 54719, Control_c, 4, 7, 96
6, 54719, Control_c, 4, 7, 96
6, 54720, Note_on_c, 4, 57, 80
6, 54720, Note_on_c, 4, 69, 80
6, 54720, Control_c, 4, 7, 96
6, 54720, Control_c, 4, 7, 96
6, 54734, Control_c, 4, 7, 95
6, 54734, Control_c, 4, 7, 95
6, 54749, Control_c, 4, 7, 94
6, 54749, Control_c, 4, 7, 94
6, 54764, Control_c, 4, 7, 93
6, 54764, Control_c, 4, 7, 93
6, 54779, Control_c, 4, 7, 92
6, 54779, Control_c, 4, 7, 92
6, 54794, Control_c, 4, 7, 91
6, 54794, Control_c, 4, 7, 91
6, 54809, Control_c, 4, 7, 90
6, 54809, Control_c, 4, 7, 90
6, 54824, Control_c, 4, 7, 89
6, 54824, Control_c, 4, 7, 89
6, 54839, Control_c, 4, 7, 88
6, 54839, Control_c, 4, 7, 88
6, 54854, Control_c, 4, 7, 87
6, 54854, Control_c, 4, 7, 87
6, 54869, Control_c, 4, 7, 86
6, 54869, Control_c, 4, 7, 86
6, 54884, Control_c, 4, 7, 85
6, 54884, Control_c, 4, 7, 85
6, 54899, Control_c, 4, 7, 84
6, 54899, Control_c, 4, 7, 84
6, 54914, Control_c, 4, 7, 83
6, 54914, Control_c, 4, 7, 83
6, 54929, Control_c, 4, 7, 82
6, 54929, Control_c, 4, 7, 82
6, 54944, Control_c, 4, 7, 81
6, 54944, Control_c, 4, 7, 81
6, 54959, Control_c, 4, 7, 80
6, 54959, Control_c, 4, 7, 80
6, 54974, Control_c, 4, 7, 79
6, 54974, Control_c, 4, 7, 79
6, 54989, Control_c, 4, 7, 78
6, 54989, Control_c, 4, 7, 78
6, 55004, Control_c, 4, 7, 77
6, 55004, Control_c, 4, 7, 77
6, 55019, Control_c, 4, 7, 76
6, 55019, Control_c, 4, 7, 76
6, 55034, Control_c, 4, 7, 75
6, 55034, Control_c, 4, 7, 75
6, 55049, Control_c, 4, 7, 74
6, 55049, Control_c, 4, 7, 74
6, 55064, Control_c, 4, 7, 73
6, 55064, Control_c, 4, 7, 73
6, 55079, Control_c, 4, 7, 72
6, 55079, Control_c, 4, 7, 72
6, 55094, Control_c, 4, 7, 71
6, 55094, Control_c, 4, 7, 71
6, 55109, Control_c, 4, 7, 70
6, 55109, Control_c, 4, 7, 70
6, 55124, Control_c, 4, 7, 69
6, 55124, Control_c, 4, 7, 69
6, 55139, Control_c, 4, 7, 68
6, 55139, Control_c, 4, 7, 68
6, 55154, Control_c, 4, 7, 67
6, 55154, Control_c, 4, 7, 67
6, 55169, Control_c, 4, 7, 66
6, 55169, Control_c, 4, 7, 66
6, 55184, Control_c, 4, 7, 65
6, 55184, Control_c, 4, 7, 65
6, 55199, Control_c, 4, 7, 64
6, 55199, Control_c, 4, 7, 64
6, 55680, Control_c, 4, 7, 64
6, 55680, Control_c, 4, 7, 64
6, 55709, Control_c, 4, 7, 65
6, 55709, Control_c, 4, 7, 65
6, 55739, Control_c, 4, 7, 66
6, 55739, Control_c, 4, 7, 66
6, 55769, Control_c, 4, 7, 67
6, 55769, Control_c, 4, 7, 67
6, 55799, Control_c, 4, 7, 68
6, 55799, Control_c, 4, 7, 68
6, 55829, Control_c, 4, 7, 69
6, 55829, Control_c, 4, 7, 69
6, 55859, Control_c, 4, 7, 70
6, 55859, Control_c, 4, 7, 70
6, 55889, Control_c, 4, 7, 71
6, 55889, Control_c, 4, 7, 71
6, 55919, Control_c, 4, 7, 72
6, 55919, Control_c, 4, 7, 72
6, 55949, Control_c, 4, 7, 73
6, 55949, Control_c, 4, 7, 73
6, 55979, Control_c, 4, 7, 74
6, 55979, Control_c, 4, 7, 74
6, 56009, Control_c, 4, 7, 75
6, 56009, Control_c, 4, 7, 75
6, 56039, Control_c, 4, 7, 76
6, 56039, Control_c, 4, 7, 76
6, 56069, Control_c, 4, 7, 77
6, 56069, Control_c, 4, 7, 77
6, 56099, Control_c, 4, 7, 78
6, 56099, Control_c, 4, 7, 78
6, 56129, Control_c, 4, 7, 79
6, 56129, Control_c, 4, 7, 79
6, 56159, Control_c, 4, 7, 80
6, 56159, Control_c, 4, 7, 80
6, 56189, Control_c, 4, 7, 81
6, 56189, Control_c, 4, 7, 81
6, 56219, Control_c, 4, 7, 82
6, 56219, Control_c, 4, 7, 82
6, 56249, Control_c, 4, 7, 83
6, 56249, Control_c, 4, 7, 83
6, 56279, Control_c, 4, 7, 84
6, 56279, Control_c, 4, 7, 84
6, 56309, Control_c, 4, 7, 85
6, 56309, Control_c, 4, 7, 85
6, 56339, Control_c, 4, 7, 86
6, 56339, Control_c, 4, 7, 86
6, 56369, Control_c, 4, 7, 87
6, 56369, Control_c, 4, 7, 87
6, 56399, Control_c, 4, 7, 88
6, 56399, Control_c, 4, 7, 88
6, 56429, Control_c, 4, 7, 89
6, 56429, Control_c, 4, 7, 89
6, 56459, Control_c, 4, 7, 90
6, 56459, Control_c, 4, 7, 90
6, 56489, Control_c, 4, 7, 91
6, 56489, Control_c, 4, 7, 91
6, 56519, Control_c, 4, 7, 92
6, 56519, Control_c, 4, 7, 92
6, 56549, Control_c, 4, 7, 93
6, 56549, Control_c, 4, 7, 93
6, 56579, Control_c, 4, 7, 94
6, 56579, Control_c, 4, 7, 94
6, 56609, Control_c, 4, 7, 95
6, 56609, Control_c, 4, 7, 95
6, 56639, Control_c, 4, 7, 96
6, 56639, Control_c, 4, 7, 96
6, 56640, Control_c, 4, 7, 96
6, 56640, Control_c, 4, 7, 96
6, 56654, Control_c, 4, 7, 95
6, 56654, Control_c, 4, 7, 95
6, 56669, Control_c, 4, 7, 94
6, 56669, Control_c, 4, 7, 94
6, 56684, Control_c, 4, 7, 93
6, 56684, Control_c, 4, 7, 93
6, 56699, Control_c, 4, 7, 92
6, 56699, Control_c, 4, 7, 92
6, 56714, Control_c, 4, 7, 91
6, 56714, Control_c, 4, 7, 91
6, 56729, Control_c, 4, 7, 90
6, 56729, Control_c, 4, 7, 90
6, 56744, Control_c, 4, 7, 89
6, 56744, Control_c, 4, 7, 89
6, 56759, Control_c, 4, 7, 88
6, 56759, Control_c, 4, 7, 88
6, 56774, Control_c, 4, 7, 87
6, 56774, Control_c, 4, 7, 87
6, 56789, Control_c, 4, 7, 86
6, 56789, Control_c, 4, 7, 86
6, 56804, Control_c, 4, 7, 85
6, 56804, Control_c, 4, 7, 85
6, 56819, Control_c, 4, 7, 84
6, 56819, Control_c, 4, 7, 84
6, 56834, Control_c, 4, 7, 83
6, 56834, Control_c, 4, 7, 83
6, 56849, Control_c, 4, 7, 82
6, 56849, Control_c, 4, 7, 82
6, 56864, Control_c, 4, 7, 81
6, 56864, Control_c, 4, 7, 81
6, 56879, Control_c, 4, 7, 80
6, 56879, Control_c, 4, 7, 80
6, 56894, Control_c, 4, 7, 79
6, 56894, Control_c, 4, 7, 79
6, 56909, Control_c, 4, 7, 78
6, 56909, Control_c, 4, 7, 78
6, 56924, Control_c, 4, 7, 77
6, 56924, Control_c, 4, 7, 77
6, 56939, Control_c, 4, 7, 76
6, 56939, Control_c, 4, 7, 76
6, 56954, Control_c, 4, 7, 75
6, 56954, Control_c, 4, 7, 75
6, 56969, Control_c, 4, 7, 74
6, 56969, Control_c, 4, 7, 74
6, 56984, Control_c, 4, 7, 73
6, 56984, Control_c, 4, 7, 73
6, 56999, Control_c, 4, 7, 72
6, 56999, Control_c, 4, 7, 72
6, 57014, Control_c, 4, 7, 71
6, 57014, Control_c, 4, 7, 71
6, 57024, Note_on_c, 4, 69, 0
6, 57024, Note_on_c, 4, 57, 0
6, 57029, Control_c, 4, 7, 70
6, 57029, Control_c, 4, 7, 70
6, 57044, Control_c, 4, 7, 69
6, 57044, Control_c, 4, 7, 69
6, 57059, Control_c, 4, 7, 68
6, 57059, Control_c, 4, 7, 68
6, 57074, Control_c, 4, 7, 67
6, 57074, Control_c, 4, 7, 67
6, 57089, Control_c, 4, 7, 66
6, 57089, Control_c, 4, 7, 66
6, 57104, Control_c, 4, 7, 65
6, 57104, Control_c, 4, 7, 65
6, 57119, Control_c, 4, 7, 64
6, 57119, Control_c, 4, 7, 64
6, 57600, Control_c, 4, 7, 64
6, 57600, Control_c, 4, 7, 64
6, 57629, Control_c, 4, 7, 65
6, 57629, Control_c, 4, 7, 65
6, 57659, Control_c, 4, 7, 66
6, 57659, Control_c, 4, 7, 66
6, 57689, Control_c, 4, 7, 67
6, 57689, Control_c, 4, 7, 67
6, 57719, Control_c, 4, 7, 68
6, 57719, Control_c, 4, 7, 68
6, 57749, Control_c, 4, 7, 69
6, 57749, Control_c, 4, 7, 69
6, 57779, Control_c, 4, 7, 70
6, 57779, Control_c, 4, 7, 70
6, 57809, Control_c, 4, 7, 71
6, 57809, Control_c, 4, 7, 71
6, 57839, Control_c, 4, 7, 72
6, 57839, Control_c, 4, 7, 72
6, 57869, Control_c, 4, 7, 73
6, 57869, Control_c, 4, 7, 73
6, 57899, Control_c, 4, 7, 74
6, 57899, Control_c, 4, 7, 74
6, 57929, Control_c, 4, 7, 75
6, 57929, Control_c, 4, 7, 75
6, 57959, Control_c, 4, 7, 76
6, 57959, Control_c, 4, 7, 76
6, 57989, Control_c, 4, 7, 77
6, 57989, Control_c, 4, 7, 77
6, 58019, Control_c, 4, 7, 78
6, 58019, Control_c, 4, 7, 78
6, 58049, Control_c, 4, 7, 79
6, 58049, Control_c, 4, 7, 79
6, 58079, Control_c, 4, 7, 80
6, 58079, Control_c, 4, 7, 80
6, 58109, Control_c, 4, 7, 81
6, 58109, Control_c, 4, 7, 81
6, 58139, Control_c, 4, 7, 82
6, 58139, Control_c, 4, 7, 82
6, 58169, Control_c, 4, 7, 83
6, 58169, Control_c, 4, 7, 83
6, 58199, Control_c, 4, 7, 84
6, 58199, Control_c, 4, 7, 84
6, 58229, Control_c, 4, 7, 85
6, 58229, Control_c, 4, 7, 85
6, 58259, Control_c, 4, 7, 86
6, 58259, Control_c, 4, 7, 86
6, 58289, Control_c, 4, 7, 87
6, 58289, Control_c, 4, 7, 87
6, 58319, Control_c, 4, 7, 88
6, 58319, Control_c, 4, 7, 88
6, 58349, Control_c, 4, 7, 89
6, 58349, Control_c, 4, 7, 89
6, 58379, Control_c, 4, 7, 90
6, 58379, Control_c, 4, 7, 90
6, 58409, Control_c, 4, 7, 91
6, 58409, Control_c, 4, 7, 91
6, 58439, Control_c, 4, 7, 92
6, 58439, Control_c, 4, 7, 92
6, 58469, Control_c, 4, 7, 93
6, 58469, Control_c, 4, 7, 93
6, 58499, Control_c, 4, 7, 94
6, 58499, Control_c, 4, 7, 94
6, 58529, Control_c, 4, 7, 95
6, 58529, Control_c, 4, 7, 95
6, 58559, Control_c, 4, 7, 96
6, 58559, Control_c, 4, 7, 96
6, 58560, Note_on_c, 4, 57, 80
6, 58560, Note_on_c, 4, 69, 80
6, 58560, Control_c, 4, 7, 96
6, 58560, Control_c, 4, 7, 96
6, 58574, Control_c, 4, 7, 95
6, 58574, Control_c, 4, 7, 95
6, 58589, Control_c, 4, 7, 94
6, 58589, Control_c, 4, 7, 94
6, 58604, Control_c, 4, 7, 93
6, 58604, Control_c, 4, 7, 93
6, 58619, Control_c, 4, 7, 92
6, 58619, Control_c, 4, 7, 92
6, 58634, Control_c, 4, 7, 91
6, 58634, Control_c, 4, 7, 91
6, 58649, Control_c, 4, 7, 90
6, 58649, Control_c, 4, 7, 90
6, 58664, Control_c, 4, 7, 89
6, 58664, Control_c, 4, 7, 89
6, 58679, Control_c, 4, 7, 88
6, 58679, Control_c, 4, 7, 88
6, 58694, Control_c, 4, 7, 87
6, 58694, Control_c, 4, 7, 87
6, 58709, Control_c, 4, 7, 86
6, 58709, Control_c, 4, 7, 86
6, 58724, Control_c, 4, 7, 85
6, 58724, Control_c, 4, 7, 85
6, 58739, Control_c, 4, 7, 84
6, 58739, Control_c, 4, 7, 84
6, 58754, Control_c, 4, 7, 83
6, 58754, Control_c, 4, 7, 83
6, 58769, Control_c, 4, 7, 82
6, 58769, Control_c, 4, 7, 82
6, 58784, Control_c, 4, 7, 81
6, 58784, Control_c, 4, 7, 81
6, 58799, Control_c, 4, 7, 80
6, 58799, Control_c, 4, 7, 80
6, 58814, Control_c, 4, 7, 79
6, 58814, Control_c, 4, 7, 79
6, 58829, Control_c, 4, 7, 78
6, 58829, Control_c, 4, 7, 78
6, 58844, Control_c, 4, 7, 77
6, 58844, Control_c, 4, 7, 77
6, 58859, Control_c, 4, 7, 76
6, 58859, Control_c, 4, 7, 76
6, 58874, Control_c, 4, 7, 75
6, 58874, Control_c, 4, 7, 75
6, 58889, Control_c, 4, 7, 74
6, 58889, Control_c, 4, 7, 74
6, 58904, Control_c, 4, 7, 73
6, 58904, Control_c, 4, 7, 73
6, 58919, Control_c, 4, 7, 72
6, 58919, Control_c, 4, 7, 72
6, 58934, Control_c, 4, 7, 71
6, 58934, Control_c, 4, 7, 71
6, 58949, Control_c, 4, 7, 70
6, 58949, Control_c, 4, 7, 70
6, 58964, Control_c, 4, 7, 69
6, 58964, Control_c, 4, 7, 69
6, 58979, Control_c, 4, 7, 68
6, 58979, Control_c, 4, 7, 68
6, 58994, Control_c, 4, 7, 67
6, 58994, Control_c, 4, 7, 67
6, 59009, Control_c, 4, 7, 66
6, 59009, Control_c, 4, 7, 66
6, 59024, Control_c, 4, 7, 65
6, 59024, Control_c, 4, 7, 65
6, 59039, Control_c, 4, 7, 64
6, 59039, Control_c, 4, 7, 64
6, 59424, Note_on_c, 4, 69, 0
6, 59424, Note_on_c, 4, 57, 0
6, 59520, Note_on_c, 4, 69, 80
6, 59520, Note_on_c, 4, 57, 80
6, 60384, Note_on_c, 4, 57, 0
6, 60384, Note_on_c, 4, 69, 0
6, 60480, Note_on_c, 4, 57, 80
6, 60480, Note_on_c, 4, 69, 80
6, 61344, Note_on_c, 4, 69, 0
6, 61344, Note_on_c, 4, 57, 0
6, 61440, Note_on_c, 4, 69, 80
6, 61440, Note_on_c, 4, 57, 80
6, 61690, Control_c, 4, 7, 66
6, 61760, Control_c, 4, 7, 68
6, 61780, Control_c, 4, 7, 70
6, 61800, Control_c, 4, 7, 71
6, 61810, Control_c, 4, 7, 72
6, 61830, Control_c, 4, 7, 74
6, 61910, Control_c, 4, 7, 76
6, 61970, Control_c, 4, 7, 78
6, 62030, Control_c, 4, 7, 79
6, 62090, Control_c, 4, 7, 80
6, 62170, Control_c, 4, 7, 81
6, 62190, Control_c, 4, 7, 82
6, 62250, Control_c, 4, 7, 84
6, 62304, Note_on_c, 4, 57, 0
6, 62304, Note_on_c, 4, 69, 0
6, 62370, Control_c, 4, 7, 85
6, 62400, Note_on_c, 4, 57, 80
6, 62400, Note_on_c, 4, 69, 80
6, 62490, Control_c, 4, 7, 86
6, 62610, Control_c, 4, 7, 87
6, 62730, Control_c, 4, 7, 89
6, 62784, Note_on_c, 4, 69, 0
6, 62784, Note_on_c, 4, 57, 0
6, 62850, Control_c, 4, 7, 90
6, 62880, Note_on_c, 4, 69, 80
6, 62880, Note_on_c, 4, 57, 80
6, 62990, Control_c, 4, 7, 91
6, 63110, Control_c, 4, 7, 92
6, 63230, Control_c, 4, 7, 93
6, 63264, Note_on_c, 4, 57, 0
6, 63264, Note_on_c, 4, 69, 0
6, 63360, Note_on_c, 4, 76, 80
6, 63360, Note_on_c, 4, 69, 80
6, 63930, Control_c, 4, 7, 92
6, 64010, Control_c, 4, 7, 91
6, 64110, Control_c, 4, 7, 85
6, 64210, Control_c, 4, 7, 84
6, 64310, Control_c, 4, 7, 78
6, 64390, Control_c, 4, 7, 76
6, 64416, Note_on_c, 4, 69, 0
6, 64416, Note_on_c, 4, 76, 0
6, 64470, Control_c, 4, 7, 74
6, 64490, Control_c, 4, 7, 72
6, 64550, Control_c, 4, 7, 66
6, 64650, Control_c, 4, 7, 60
6, 64770, Control_c, 4, 7, 58
6, 64850, Control_c, 4, 7, 57
6, 64860, Control_c, 4, 7, 56
6, 64890, Control_c, 4, 7, 55
6, 64950, Control_c, 4, 7, 54
6, 64987, Control_c, 4, 7, 66
6, 65083, Control_c, 4, 7, 65
6, 65179, Control_c, 4, 7, 64
6, 65275, Control_c, 4, 7, 63
6, 65280, Control_c, 4, 7, 66
6, 65372, Control_c, 4, 7, 62
6, 65468, Control_c, 4, 7, 61
6, 65564, Control_c, 4, 7, 60
6, 65660, Control_c, 4, 7, 59
6, 65756, Control_c, 4, 7, 58
6, 65853, Control_c, 4, 7, 57
6, 65949, Control_c, 4, 7, 56
6, 66045, Control_c, 4, 7, 55
6, 66141, Control_c, 4, 7, 54
6, 66237, Control_c, 4, 7, 53
6, 66334, Control_c, 4, 7, 52
6, 66430, Control_c, 4, 7, 51
6, 66526, Control_c, 4, 7, 50
6, 66622, Control_c, 4, 7, 49
6, 66719, Control_c, 4, 7, 48
6, 69600, Note_on_c, 4, 78, 80
6, 69600, Note_on_c, 4, 74, 80
6, 69600, Control_c, 4, 7, 69
6, 69672, Control_c, 4, 7, 70
6, 69712, Control_c, 4, 7, 68
6, 69732, Control_c, 4, 7, 67
6, 69752, Control_c, 4, 7, 66
6, 69762, Control_c, 4, 7, 65
6, 69772, Control_c, 4, 7, 64
6, 69782, Control_c, 4, 7, 62
6, 69802, Control_c, 4, 7, 61
6, 69822, Control_c, 4, 7, 60
6, 69862, Control_c, 4, 7, 59
6, 69960, Note_on_c, 4, 74, 0
6, 69960, Note_on_c, 4, 78, 0
6, 69960, Note_on_c, 4, 76, 80
6, 69960, Note_on_c, 4, 69, 80
6, 69992, Control_c, 4, 7, 60
6, 70012, Control_c, 4, 7, 62
6, 70080, Note_on_c, 4, 69, 0
6, 70080, Note_on_c, 4, 76, 0
6, 70080, Note_on_c, 4, 74, 80
6, 70080, Note_on_c, 4, 66, 80
6, 70082, Control_c, 4, 7, 64
6, 70092, Control_c, 4, 7, 66
6, 70102, Control_c, 4, 7, 67
6, 70122, Control_c, 4, 7, 68
6, 70132, Control_c, 4, 7, 70
6, 70152, Control_c, 4, 7, 71
6, 70162, Control_c, 4, 7, 72
6, 70182, Control_c, 4, 7, 73
6, 70262, Control_c, 4, 7, 81
6, 70320, Note_on_c, 4, 66, 0
6, 70320, Note_on_c, 4, 74, 0
6, 70322, Control_c, 4, 7, 87
6, 70552, Control_c, 4, 7, 91
6, 70560, Note_on_c, 4, 81, 80
6, 70560, Note_on_c, 4, 78, 80
6, 70562, Control_c, 4, 7, 90
6, 70572, Control_c, 4, 7, 84
6, 70592, Control_c, 4, 7, 77
6, 70602, Control_c, 4, 7, 76
6, 70622, Control_c, 4, 7, 75
6, 70642, Control_c, 4, 7, 69
6, 70662, Control_c, 4, 7, 67
6, 70682, Control_c, 4, 7, 66
6, 70762, Control_c, 4, 7, 65
6, 70862, Control_c, 4, 7, 64
6, 70920, Note_on_c, 4, 78, 0
6, 70920, Note_on_c, 4, 81, 0
6, 70920, Note_on_c, 4, 79, 80
6, 70920, Note_on_c, 4, 76, 80
6, 71040, Note_on_c, 4, 76, 0
6, 71040, Note_on_c, 4, 79, 0
6, 71040, Note_on_c, 4, 78, 80
6, 71040, Note_on_c, 4, 74, 80
6, 71052, Control_c, 4, 7, 66
6, 71062, Control_c, 4, 7, 67
6, 71072, Control_c, 4, 7, 69
6, 71082, Control_c, 4, 7, 72
6, 71092, Control_c, 4, 7, 74
6, 71102, Control_c, 4, 7, 76
6, 71112, Control_c, 4, 7, 78
6, 71122, Control_c, 4, 7, 79
6, 71132, Control_c, 4, 7, 81
6, 71142, Control_c, 4, 7, 82
6, 71152, Control_c, 4, 7, 86
6, 71162, Control_c, 4, 7, 87
6, 71172, Control_c, 4, 7, 88
6, 71182, Control_c, 4, 7, 90
6, 71192, Control_c, 4, 7, 93
6, 71202, Control_c, 4, 7, 95
6, 71222, Control_c, 4, 7, 97
6, 71232, Control_c, 4, 7, 100
6, 71252, Control_c, 4, 7, 102
6, 71280, Note_on_c, 4, 74, 0
6, 71280, Note_on_c, 4, 78, 0
6, 71520, Note_on_c, 4, 62, 80
6, 71520, Note_on_c, 4, 74, 80
6, 72000, Control_c, 4, 7, 126
6, 72050, Control_c, 4, 7, 125
6, 72060, Control_c, 4, 7, 124
6, 72090, Control_c, 4, 7, 123
6, 72110, Control_c, 4, 7, 122
6, 72130, Control_c, 4, 7, 121
6, 72140, Control_c, 4, 7, 120
6, 72180, Control_c, 4, 7, 119
6, 72240, Control_c, 4, 7, 117
6, 72250, Control_c, 4, 7, 116
6, 72270, Control_c, 4, 7, 115
6, 72280, Control_c, 4, 7, 114
6, 72300, Control_c, 4, 7, 112
6, 72320, Control_c, 4, 7, 111
6, 72330, Control_c, 4, 7, 110
6, 72360, Control_c, 4, 7, 108
6, 72390, Control_c, 4, 7, 106
6, 72400, Control_c, 4, 7, 105
6, 72460, Control_c, 4, 7, 103
6, 72480, Control_c, 4, 7, 111
6, 72510, Control_c, 4, 7, 110
6, 72530, Control_c, 4, 7, 109
6, 72570, Control_c, 4, 7, 108
6, 72580, Control_c, 4, 7, 106
6, 72600, Note_on_c, 4, 74, 0
6, 72600, Note_on_c, 4, 62, 0
6, 72600, Note_on_c, 4, 74, 80
6, 72600, Note_on_c, 4, 62, 80
6, 72640, Control_c, 4, 7, 105
6, 72650, Control_c, 4, 7, 104
6, 72660, Control_c, 4, 7, 103
6, 72680, Control_c, 4, 7, 102
6, 72690, Control_c, 4, 7, 101
6, 72720, Note_on_c, 4, 62, 0
6, 72720, Note_on_c, 4, 74, 0
6, 72720, Note_on_c, 4, 74, 80
6, 72720, Note_on_c, 4, 62, 80
6, 72720, Control_c, 4, 7, 100
6, 72730, Control_c, 4, 7, 99
6, 72790, Control_c, 4, 7, 97
6, 72810, Control_c, 4, 7, 96
6, 72830, Control_c, 4, 7, 95
6, 72840, Note_on_c, 4, 62, 0
6, 72840, Note_on_c, 4, 74, 0
6, 72840, Note_on_c, 4, 74, 80
6, 72840, Note_on_c, 4, 62, 80
6, 72850, Control_c, 4, 7, 94
6, 72860, Control_c, 4, 7, 93
6, 72890, Control_c, 4, 7, 92
6, 72910, Control_c, 4, 7, 91
6, 72930, Control_c, 4, 7, 90
6, 72960, Note_on_c, 4, 62, 0
6, 72960, Note_on_c, 4, 74, 0
6, 72960, Note_on_c, 4, 74, 80
6, 72960, Note_on_c, 4, 62, 80
6, 72960, Control_c, 4, 7, 108
6, 72990, Control_c, 4, 7, 107
6, 73060, Control_c, 4, 7, 99
6, 73070, Control_c, 4, 7, 93
6, 73080, Note_on_c, 4, 62, 0
6, 73080, Note_on_c, 4, 74, 0
6, 73080, Note_on_c, 4, 74, 80
6, 73080, Note_on_c, 4, 62, 80
6, 73080, Control_c, 4, 7, 92
6, 73110, Control_c, 4, 7, 90
6, 73120, Control_c, 4, 7, 89
6, 73130, Control_c, 4, 7, 88
6, 73140, Control_c, 4, 7, 87
6, 73150, Control_c, 4, 7, 86
6, 73180, Control_c, 4, 7, 84
6, 73200, Note_on_c, 4, 62, 0
6, 73200, Note_on_c, 4, 74, 0
6, 73200, Note_on_c, 4, 74, 80
6, 73200, Note_on_c, 4, 62, 80
6, 73200, Control_c, 4, 7, 83
6, 73230, Control_c, 4, 7, 82
6, 73270, Control_c, 4, 7, 81
6, 73300, Control_c, 4, 7, 80
6, 73320, Note_on_c, 4, 62, 0
6, 73320, Note_on_c, 4, 74, 0
6, 73320, Note_on_c, 4, 74, 80
6, 73320, Note_on_c, 4, 62, 80
6, 73320, Control_c, 4, 7, 79
6, 73340, Control_c, 4, 7, 78
6, 73360, Control_c, 4, 7, 77
6, 73390, Control_c, 4, 7, 76
6, 73430, Control_c, 4, 7, 75
6, 73440, Note_on_c, 4, 62, 0
6, 73440, Note_on_c, 4, 74, 0
6, 73440, Note_on_c, 4, 74, 80
6, 73440, Note_on_c, 4, 62, 80
6, 73680, Note_on_c, 4, 62, 0
6, 73680, Note_on_c, 4, 74, 0
6, 73680, Note_on_c, 4, 74, 80
6, 73680, Note_on_c, 4, 62, 80
6, 73920, Note_on_c, 4, 62, 0
6, 73920, Note_on_c, 4, 74, 0
6, 73920, Note_on_c, 4, 78, 80
6, 73920, Note_on_c, 4, 74, 80
6, 74160, Note_on_c, 4, 74, 0
6, 74160, Note_on_c, 4, 78, 0
6, 74160, Note_on_c, 4, 69, 80
6, 74160, Note_on_c, 4, 76, 80
6, 74400, Note_on_c, 4, 76, 0
6, 74400, Note_on_c, 4, 69, 0
6, 78240, Note_on_c, 4, 69, 80
6, 78240, Note_on_c, 4, 57, 80
6, 78432, Note_on_c, 4, 57, 0
6, 78432, Note_on_c, 4, 69, 0
6, 78600, Note_on_c, 4, 69, 80
6, 78600, Note_on_c, 4, 76, 80
6, 78696, Note_on_c, 4, 76, 0
6, 78696, Note_on_c, 4, 69, 0
6, 78720, Note_on_c, 4, 74, 80
6, 78720, Note_on_c, 4, 78, 80
6, 78912, Note_on_c, 4, 78, 0
6, 78912, Note_on_c, 4, 74, 0
6, 79080, Note_on_c, 4, 78, 80
6, 79080, Note_on_c, 4, 74, 80
6, 79176, Note_on_c, 4, 74, 0
6, 79176, Note_on_c, 4, 78, 0
6, 79200, Note_on_c, 4, 76, 80
6, 79200, Note_on_c, 4, 69, 80
6, 79392, Note_on_c, 4, 69, 0
6, 79392, Note_on_c, 4, 76, 0
6, 79560, Note_on_c, 4, 76, 80
6, 79560, Note_on_c, 4, 69, 80
6, 79656, Note_on_c, 4, 69, 0
6, 79656, Note_on_c, 4, 76, 0
6, 79680, Note_on_c, 4, 78, 80
6, 79680, Note_on_c, 4, 74, 80
6, 79872, Note_on_c, 4, 74, 0
6, 79872, Note_on_c, 4, 78, 0
6, 80040, Note_on_c, 4, 74, 80
6, 80040, Note_on_c, 4, 78, 80
6, 80136, Note_on_c, 4, 78, 0
6, 80136, Note_on_c, 4, 74, 0
6, 80160, Note_on_c, 4, 69, 80
6, 80160, Note_on_c, 4, 76, 80
6, 80272, Note_on_c, 4, 76, 0
6, 80272, Note_on_c, 4, 69, 0
6, 80280, Note_on_c, 4, 76, 80
6, 80280, Note_on_c, 4, 69, 80
6, 80392, Note_on_c, 4, 69, 0
6, 80392, Note_on_c, 4, 76, 0
6, 80400, Note_on_c, 4, 74, 80
6, 80400, Note_on_c, 4, 78, 80
6, 80496, Note_on_c, 4, 78, 0
6, 80496, Note_on_c, 4, 74, 0
6, 80520, Note_on_c, 4, 74, 80
6, 80520, Note_on_c, 4, 78, 80
6, 80616, Note_on_c, 4, 78, 0
6, 80616, Note_on_c, 4, 74, 0
6, 80640, Note_on_c, 4, 76, 80
6, 80640, Note_on_c, 4, 69, 80
6, 80752, Note_on_c, 4, 69, 0
6, 80752, Note_on_c, 4, 76, 0
6, 80760, Note_on_c, 4, 69, 80
6, 80760, Note_on_c, 4, 76, 80
6, 80872, Note_on_c, 4, 76, 0
6, 80872, Note_on_c, 4, 69, 0
6, 80880, Note_on_c, 4, 78, 80
6, 80880, Note_on_c, 4, 74, 80
6, 80976, Note_on_c, 4, 74, 0
6, 80976, Note_on_c, 4, 78, 0
6, 81000, Note_on_c, 4, 74, 80
6, 81000, Note_on_c, 4, 78, 80
6, 81096, Note_on_c, 4, 78, 0
6, 81096, Note_on_c, 4, 74, 0
6, 81120, Note_on_c, 4, 76, 80
6, 81120, Note_on_c, 4, 69, 80
6, 81232, Note_on_c, 4, 69, 0
6, 81232, Note_on_c, 4, 76, 0
6, 81240, Note_on_c, 4, 69, 80
6, 81240, Note_on_c, 4, 69, 80
6, 81288, Note_on_c, 4, 69, 0
6, 81288, Note_on_c, 4, 69, 0
6, 81300, Note_on_c, 4, 69, 80
6, 81300, Note_on_c, 4, 69, 80
6, 81348, Note_on_c, 4, 69, 0
6, 81348, Note_on_c, 4, 69, 0
6, 81360, Note_on_c, 4, 69, 80
6, 81360, Note_on_c, 4, 69, 80
6, 81472, Note_on_c, 4, 69, 0
6, 81472, Note_on_c, 4, 69, 0
6, 81480, Note_on_c, 4, 69, 80
6, 81480, Note_on_c, 4, 69, 80
6, 81592, Note_on_c, 4, 69, 0
6, 81592, Note_on_c, 4, 69, 0
6, 81600, Note_on_c, 4, 69, 80
6, 81600, Note_on_c, 4, 69, 80
6, 81825, Note_on_c, 4, 69, 0
6, 81825, Note_on_c, 4, 69, 0
6, 82080, Control_c, 4, 7, 120
6, 82082, Control_c, 4, 7, 119
6, 82084, Control_c, 4, 7, 118
6, 82086, Control_c, 4, 7, 117
6, 82088, Control_c, 4, 7, 116
6, 82090, Control_c, 4, 7, 115
6, 82092, Control_c, 4, 7, 114
6, 82094, Control_c, 4, 7, 113
6, 82097, Control_c, 4, 7, 112
6, 82099, Control_c, 4, 7, 111
6, 82101, Control_c, 4, 7, 110
6, 82103, Control_c, 4, 7, 109
6, 82105, Control_c, 4, 7, 108
6, 82107, Control_c, 4, 7, 107
6, 82109, Control_c, 4, 7, 106
6, 82111, Control_c, 4, 7, 105
6, 82114, Control_c, 4, 7, 104
6, 82116, Control_c, 4, 7, 103
6, 82118, Control_c, 4, 7, 102
6, 82120, Control_c, 4, 7, 101
6, 82122, Control_c, 4, 7, 100
6, 82124, Control_c, 4, 7, 99
6, 82126, Control_c, 4, 7, 98
6, 82128, Control_c, 4, 7, 97
6, 82131, Control_c, 4, 7, 96
6, 82133, Control_c, 4, 7, 95
6, 82135, Control_c, 4, 7, 94
6, 82137, Control_c, 4, 7, 93
6, 82139, Control_c, 4, 7, 92
6, 82141, Control_c, 4, 7, 91
6, 82143, Control_c, 4, 7, 90
6, 82145, Control_c, 4, 7, 89
6, 82148, Control_c, 4, 7, 88
6, 82150, Control_c, 4, 7, 87
6, 82152, Control_c, 4, 7, 86
6, 82154, Control_c, 4, 7, 85
6, 82156, Control_c, 4, 7, 84
6, 82158, Control_c, 4, 7, 83
6, 82160, Control_c, 4, 7, 82
6, 82162, Control_c, 4, 7, 81
6, 82165, Control_c, 4, 7, 80
6, 82167, Control_c, 4, 7, 79
6, 82169, Control_c, 4, 7, 78
6, 82171, Control_c, 4, 7, 77
6, 82173, Control_c, 4, 7, 76
6, 82175, Control_c, 4, 7, 75
6, 82177, Control_c, 4, 7, 74
6, 82179, Control_c, 4, 7, 73
6, 82182, Control_c, 4, 7, 72
6, 82184, Control_c, 4, 7, 71
6, 82186, Control_c, 4, 7, 70
6, 82188, Control_c, 4, 7, 69
6, 82190, Control_c, 4, 7, 68
6, 82192, Control_c, 4, 7, 67
6, 82194, Control_c, 4, 7, 66
6, 82196, Control_c, 4, 7, 65
6, 82199, Control_c, 4, 7, 64
6, 82200, Control_c, 4, 7, 64
6, 84000, Control_c, 4, 7, 96
6, 84000, Control_c, 4, 7, 120
6, 84002, Control_c, 4, 7, 106
6, 84002, Control_c, 4, 7, 119
6, 84004, Control_c, 4, 7, 105
6, 84004, Control_c, 4, 7, 118
6, 84006, Control_c, 4, 7, 104
6, 84006, Control_c, 4, 7, 117
6, 84008, Control_c, 4, 7, 103
6, 84008, Control_c, 4, 7, 116
6, 84010, Control_c, 4, 7, 102
6, 84010, Control_c, 4, 7, 115
6, 84012, Control_c, 4, 7, 101
6, 84012, Control_c, 4, 7, 114
6, 84014, Control_c, 4, 7, 95
6, 84014, Control_c, 4, 7, 100
6, 84014, Control_c, 4, 7, 113
6, 84017, Control_c, 4, 7, 99
6, 84017, Control_c, 4, 7, 112
6, 84019, Control_c, 4, 7, 98
6, 84019, Control_c, 4, 7, 111
6, 84021, Control_c, 4, 7, 97
6, 84021, Control_c, 4, 7, 110
6, 84023, Control_c, 4, 7, 96
6, 84023, Control_c, 4, 7, 109
6, 84025, Control_c, 4, 7, 95
6, 84025, Control_c, 4, 7, 108
6, 84027, Control_c, 4, 7, 94
6, 84027, Control_c, 4, 7, 107
6, 84029, Control_c, 4, 7, 94
6, 84029, Control_c, 4, 7, 93
6, 84029, Control_c, 4, 7, 106
6, 84031, Control_c, 4, 7, 105
6, 84032, Control_c, 4, 7, 92
6, 84034, Control_c, 4, 7, 91
6, 84034, Control_c, 4, 7, 104
6, 84036, Control_c, 4, 7, 90
6, 84036, Control_c, 4, 7, 103
6, 84038, Control_c, 4, 7, 89
6, 84038, Control_c, 4, 7, 102
6, 84040, Control_c, 4, 7, 88
6, 84040, Control_c, 4, 7, 101
6, 84042, Control_c, 4, 7, 87
6, 84042, Control_c, 4, 7, 100
6, 84044, Control_c, 4, 7, 93
6, 84044, Control_c, 4, 7, 86
6, 84044, Control_c, 4, 7, 99
6, 84046, Control_c, 4, 7, 98
6, 84047, Control_c, 4, 7, 85
6, 84048, Control_c, 4, 7, 97
6, 84049, Control_c, 4, 7, 84
6, 84051, Control_c, 4, 7, 83
6, 84051, Control_c, 4, 7, 96
6, 84053, Control_c, 4, 7, 82
6, 84053, Control_c, 4, 7, 95
6, 84055, Control_c, 4, 7, 81
6, 84055, Control_c, 4, 7, 94
6, 84057, Control_c, 4, 7, 80
6, 84057, Control_c, 4, 7, 93
6, 84059, Control_c, 4, 7, 92
6, 84059, Control_c, 4, 7, 79
6, 84059, Control_c, 4, 7, 92
6, 84061, Control_c, 4, 7, 91
6, 84062, Control_c, 4, 7, 78
6, 84063, Control_c, 4, 7, 90
6, 84064, Control_c, 4, 7, 77
6, 84065, Control_c, 4, 7, 89
6, 84066, Control_c, 4, 7, 76
6, 84068, Control_c, 4, 7, 75
6, 84068, Control_c, 4, 7, 88
6, 84070, Control_c, 4, 7, 74
6, 84070, Control_c, 4, 7, 87
6, 84072, Control_c, 4, 7, 73
6, 84072, Control_c, 4, 7, 86
6, 84074, Control_c, 4, 7, 91
6, 84074, Control_c, 4, 7, 72
6, 84074, Control_c, 4, 7, 85
6, 84076, Control_c, 4, 7, 84
6, 84077, Control_c, 4, 7, 71
6, 84078, Control_c, 4, 7, 83
6, 84079, Control_c, 4, 7, 70
6, 84080, Control_c, 4, 7, 82
6, 84081, Control_c, 4, 7, 69
6, 84082, Control_c, 4, 7, 81
6, 84083, Control_c, 4, 7, 68
6, 84085, Control_c, 4, 7, 67
6, 84085, Control_c, 4, 7, 80
6, 84087, Control_c, 4, 7, 66
6, 84087, Control_c, 4, 7, 79
6, 84089, Control_c, 4, 7, 90
6, 84089, Control_c, 4, 7, 65
6, 84089, Control_c, 4, 7, 78
6, 84091, Control_c, 4, 7, 77
6, 84092, Control_c, 4, 7, 64
6, 84093, Control_c, 4, 7, 76
6, 84095, Control_c, 4, 7, 75
6, 84097, Control_c, 4, 7, 74
6, 84099, Control_c, 4, 7, 73
6, 84102, Control_c, 4, 7, 72
6, 84104, Control_c, 4, 7, 89
6, 84104, Control_c, 4, 7, 71
6, 84106, Control_c, 4, 7, 70
6, 84108, Control_c, 4, 7, 69
6, 84110, Control_c, 4, 7, 68
6, 84112, Control_c, 4, 7, 67
6, 84114, Control_c, 4, 7, 66
6, 84116, Control_c, 4, 7, 65
6, 84119, Control_c, 4, 7, 88
6, 84119, Control_c, 4, 7, 64
6, 84120, Control_c, 4, 7, 64
6, 84134, Control_c, 4, 7, 87
6, 84149, Control_c, 4, 7, 86
6, 84164, Control_c, 4, 7, 85
6, 84179, Control_c, 4, 7, 84
6, 84194, Control_c, 4, 7, 83
6, 84209, Control_c, 4, 7, 82
6, 84224, Control_c, 4, 7, 81
6, 84239, Control_c, 4, 7, 80
6, 84254, Control_c, 4, 7, 79
6, 84269, Control_c, 4, 7, 78
6, 84284, Control_c, 4, 7, 77
6, 84299, Control_c, 4, 7, 76
6, 84314, Control_c, 4, 7, 75
6, 84329, Control_c, 4, 7, 74
6, 84344, Control_c, 4, 7, 73
6, 84359, Control_c, 4, 7, 72
6, 84374, Control_c, 4, 7, 71
6, 84389, Control_c, 4, 7, 70
6, 84404, Control_c, 4, 7, 69
6, 84419, Control_c, 4, 7, 68
6, 84434, Control_c, 4, 7, 67
6, 84449, Control_c, 4, 7, 66
6, 84453, Control_c, 4, 7, 115
6, 84455, Control_c, 4, 7, 114
6, 84458, Control_c, 4, 7, 113
6, 84460, Control_c, 4, 7, 112
6, 84462, Control_c, 4, 7, 111
6, 84464, Control_c, 4, 7, 65
6, 84464, Control_c, 4, 7, 110
6, 84466, Control_c, 4, 7, 109
6, 84468, Control_c, 4, 7, 108
6, 84470, Control_c, 4, 7, 107
6, 84473, Control_c, 4, 7, 106
6, 84475, Control_c, 4, 7, 105
6, 84477, Control_c, 4, 7, 104
6, 84479, Control_c, 4, 7, 64
6, 84479, Control_c, 4, 7, 103
6, 84480, Control_c, 4, 7, 96
6, 84480, Control_c, 4, 7, 120
6, 84481, Control_c, 4, 7, 102
6, 84482, Control_c, 4, 7, 119
6, 84483, Control_c, 4, 7, 101
6, 84484, Control_c, 4, 7, 118
6, 84485, Control_c, 4, 7, 100
6, 84486, Control_c, 4, 7, 117
6, 84488, Control_c, 4, 7, 99
6, 84488, Control_c, 4, 7, 116
6, 84490, Control_c, 4, 7, 98
6, 84490, Control_c, 4, 7, 115
6, 84492, Control_c, 4, 7, 97
6, 84492, Control_c, 4, 7, 114
6, 84494, Control_c, 4, 7, 95
6, 84494, Control_c, 4, 7, 96
6, 84494, Control_c, 4, 7, 113
6, 84496, Control_c, 4, 7, 95
6, 84497, Control_c, 4, 7, 112
6, 84498, Control_c, 4, 7, 94
6, 84499, Control_c, 4, 7, 111
6, 84500, Control_c, 4, 7, 93
6, 84501, Control_c, 4, 7, 110
6, 84503, Control_c, 4, 7, 92
6, 84503, Control_c, 4, 7, 109
6, 84505, Control_c, 4, 7, 91
6, 84505, Control_c, 4, 7, 108
6, 84507, Control_c, 4, 7, 90
6, 84507, Control_c, 4, 7, 107
6, 84509, Control_c, 4, 7, 94
6, 84509, Control_c, 4, 7, 89
6, 84509, Control_c, 4, 7, 106
6, 84511, Control_c, 4, 7, 88
6, 84511, Control_c, 4, 7, 105
6, 84513, Control_c, 4, 7, 87
6, 84514, Control_c, 4, 7, 104
6, 84515, Control_c, 4, 7, 86
6, 84516, Control_c, 4, 7, 103
6, 84518, Control_c, 4, 7, 85
6, 84518, Control_c, 4, 7, 102
6, 84520, Control_c, 4, 7, 84
6, 84520, Control_c, 4, 7, 101
6, 84522, Control_c, 4, 7, 83
6, 84522, Control_c, 4, 7, 100
6, 84524, Control_c, 4, 7, 93
6, 84524, Control_c, 4, 7, 82
6, 84524, Control_c, 4, 7, 99
6, 84526, Control_c, 4, 7, 81
6, 84526, Control_c, 4, 7, 98
6, 84528, Control_c, 4, 7, 80
6, 84528, Control_c, 4, 7, 97
6, 84530, Control_c, 4, 7, 79
6, 84531, Control_c, 4, 7, 96
6, 84533, Control_c, 4, 7, 78
6, 84533, Control_c, 4, 7, 95
6, 84535, Control_c, 4, 7, 77
6, 84535, Control_c, 4, 7, 94
6, 84537, Control_c, 4, 7, 76
6, 84537, Control_c, 4, 7, 93
6, 84539, Control_c, 4, 7, 92
6, 84539, Control_c, 4, 7, 75
6, 84539, Control_c, 4, 7, 92
6, 84541, Control_c, 4, 7, 74
6, 84541, Control_c, 4, 7, 91
6, 84543, Control_c, 4, 7, 73
6, 84543, Control_c, 4, 7, 90
6, 84545, Control_c, 4, 7, 72
6, 84545, Control_c, 4, 7, 89
6, 84548, Control_c, 4, 7, 71
6, 84548, Control_c, 4, 7, 88
6, 84550, Control_c, 4, 7, 70
6, 84550, Control_c, 4, 7, 87
6, 84552, Control_c, 4, 7, 69
6, 84552, Control_c, 4, 7, 86
6, 84554, Control_c, 4, 7, 91
6, 84554, Control_c, 4, 7, 68
6, 84554, Control_c, 4, 7, 85
6, 84556, Control_c, 4, 7, 67
6, 84556, Control_c, 4, 7, 84
6, 84558, Control_c, 4, 7, 66
6, 84558, Control_c, 4, 7, 83
6, 84560, Control_c, 4, 7, 65
6, 84560, Control_c, 4, 7, 82
6, 84562, Control_c, 4, 7, 81
6, 84563, Control_c, 4, 7, 64
6, 84565, Control_c, 4, 7, 80
6, 84567, Control_c, 4, 7, 79
6, 84569, Control_c, 4, 7, 90
6, 84569, Control_c, 4, 7, 78
6, 84571, Control_c, 4, 7, 77
6, 84573, Control_c, 4, 7, 76
6, 84575, Control_c, 4, 7, 75
6, 84577, Control_c, 4, 7, 74
6, 84579, Control_c, 4, 7, 73
6, 84582, Control_c, 4, 7, 72
6, 84584, Control_c, 4, 7, 89
6, 84584, Control_c, 4, 7, 71
6, 84586, Control_c, 4, 7, 70
6, 84588, Control_c, 4, 7, 69
6, 84590, Control_c, 4, 7, 68
6, 84592, Control_c, 4, 7, 67
6, 84594, Control_c, 4, 7, 66
6, 84596, Control_c, 4, 7, 65
6, 84599, Control_c, 4, 7, 88
6, 84599, Control_c, 4, 7, 64
6, 84600, Control_c, 4, 7, 64
6, 84614, Control_c, 4, 7, 87
6, 84629, Control_c, 4, 7, 86
6, 84644, Control_c, 4, 7, 85
6, 84659, Control_c, 4, 7, 84
6, 84674, Control_c, 4, 7, 83
6, 84689, Control_c, 4, 7, 82
6, 84704, Control_c, 4, 7, 81
6, 84719, Control_c, 4, 7, 80
6, 84734, Control_c, 4, 7, 79
6, 84749, Control_c, 4, 7, 78
6, 84764, Control_c, 4, 7, 77
6, 84779, Control_c, 4, 7, 76
6, 84794, Control_c, 4, 7, 75
6, 84809, Control_c, 4, 7, 74
6, 84824, Control_c, 4, 7, 73
6, 84839, Control_c, 4, 7, 72
6, 84854, Control_c, 4, 7, 71
6, 84869, Control_c, 4, 7, 70
6, 84884, Control_c, 4, 7, 69
6, 84899, Control_c, 4, 7, 68
6, 84914, Control_c, 4, 7, 67
6, 84929, Control_c, 4, 7, 66
6, 84944, Control_c, 4, 7, 65
6, 84959, Control_c, 4, 7, 64
6, 85920, Control_c, 4, 7, 120
6, 85922, Control_c, 4, 7, 119
6, 85924, Control_c, 4, 7, 118
6, 85926, Control_c, 4, 7, 117
6, 85928, Control_c, 4, 7, 116
6, 85930, Control_c, 4, 7, 115
6, 85932, Control_c, 4, 7, 114
6, 85934, Control_c, 4, 7, 113
6, 85937, Control_c, 4, 7, 112
6, 85939, Control_c, 4, 7, 111
6, 85941, Control_c, 4, 7, 110
6, 85943, Control_c, 4, 7, 109
6, 85945, Control_c, 4, 7, 108
6, 85947, Control_c, 4, 7, 107
6, 85949, Control_c, 4, 7, 106
6, 85951, Control_c, 4, 7, 105
6, 85954, Control_c, 4, 7, 104
6, 85956, Control_c, 4, 7, 103
6, 85958, Control_c, 4, 7, 102
6, 85960, Control_c, 4, 7, 101
6, 85962, Control_c, 4, 7, 100
6, 85964, Control_c, 4, 7, 99
6, 85966, Control_c, 4, 7, 98
6, 85968, Control_c, 4, 7, 97
6, 85971, Control_c, 4, 7, 96
6, 85973, Control_c, 4, 7, 95
6, 85975, Control_c, 4, 7, 94
6, 85977, Control_c, 4, 7, 93
6, 85979, Control_c, 4, 7, 92
6, 85981, Control_c, 4, 7, 91
6, 85983, Control_c, 4, 7, 90
6, 85985, Control_c, 4, 7, 89
6, 85988, Control_c, 4, 7, 88
6, 85990, Control_c, 4, 7, 87
6, 85992, Control_c, 4, 7, 86
6, 85994, Control_c, 4, 7, 85
6, 85996, Control_c, 4, 7, 84
6, 85998, Control_c, 4, 7, 83
6, 86000, Control_c, 4, 7, 82
6, 86002, Control_c, 4, 7, 81
6, 86005, Control_c, 4, 7, 80
6, 86007, Control_c, 4, 7, 79
6, 86009, Control_c, 4, 7, 78
6, 86011, Control_c, 4, 7, 77
6, 86013, Control_c, 4, 7, 76
6, 86015, Control_c, 4, 7, 75
6, 86017, Control_c, 4, 7, 74
6, 86019, Control_c, 4, 7, 73
6, 86022, Control_c, 4, 7, 72
6, 86024, Control_c, 4, 7, 71
6, 86026, Control_c, 4, 7, 70
6, 86028, Control_c, 4, 7, 69
6, 86030, Control_c, 4, 7, 68
6, 86032, Control_c, 4, 7, 67
6, 86034, Control_c, 4, 7, 66
6, 86036, Control_c, 4, 7, 65
6, 86039, Control_c, 4, 7, 64
6, 86040, Control_c, 4, 7, 64
6, 87840, Control_c, 4, 7, 96
6, 87840, Control_c, 4, 7, 120
6, 87842, Control_c, 4, 7, 106
6, 87842, Control_c, 4, 7, 119
6, 87844, Control_c, 4, 7, 105
6, 87844, Control_c, 4, 7, 118
6, 87846, Control_c, 4, 7, 104
6, 87846, Control_c, 4, 7, 117
6, 87848, Control_c, 4, 7, 103
6, 87848, Control_c, 4, 7, 116
6, 87850, Control_c, 4, 7, 102
6, 87850, Control_c, 4, 7, 115
6, 87852, Control_c, 4, 7, 101
6, 87852, Control_c, 4, 7, 114
6, 87854, Control_c, 4, 7, 95
6, 87854, Control_c, 4, 7, 100
6, 87854, Control_c, 4, 7, 113
6, 87857, Control_c, 4, 7, 99
6, 87857, Control_c, 4, 7, 112
6, 87859, Control_c, 4, 7, 98
6, 87859, Control_c, 4, 7, 111
6, 87861, Control_c, 4, 7, 97
6, 87861, Control_c, 4, 7, 110
6, 87863, Control_c, 4, 7, 96
6, 87863, Control_c, 4, 7, 109
6, 87865, Control_c, 4, 7, 95
6, 87865, Control_c, 4, 7, 108
6, 87867, Control_c, 4, 7, 94
6, 87867, Control_c, 4, 7, 107
6, 87869, Control_c, 4, 7, 94
6, 87869, Control_c, 4, 7, 93
6, 87869, Control_c, 4, 7, 106
6, 87871, Control_c, 4, 7, 105
6, 87872, Control_c, 4, 7, 92
6, 87874, Control_c, 4, 7, 91
6, 87874, Control_c, 4, 7, 104
6, 87876, Control_c, 4, 7, 90
6, 87876, Control_c, 4, 7, 103
6, 87878, Control_c, 4, 7, 89
6, 87878, Control_c, 4, 7, 102
6, 87880, Control_c, 4, 7, 88
6, 87880, Control_c, 4, 7, 101
6, 87882, Control_c, 4, 7, 87
6, 87882, Control_c, 4, 7, 100
6, 87884, Control_c, 4, 7, 93
6, 87884, Control_c, 4, 7, 86
6, 87884, Control_c, 4, 7, 99
6, 87886, Control_c, 4, 7, 98
6, 87887, Control_c, 4, 7, 85
6, 87888, Control_c, 4, 7, 97
6, 87889, Control_c, 4, 7, 84
6, 87891, Control_c, 4, 7, 83
6, 87891, Control_c, 4, 7, 96
6, 87893, Control_c, 4, 7, 82
6, 87893, Control_c, 4, 7, 95
6, 87895, Control_c, 4, 7, 81
6, 87895, Control_c, 4, 7, 94
6, 87897, Control_c, 4, 7, 80
6, 87897, Control_c, 4, 7, 93
6, 87899, Control_c, 4, 7, 92
6, 87899, Control_c, 4, 7, 79
6, 87899, Control_c, 4, 7, 92
6, 87901, Control_c, 4, 7, 91
6, 87902, Control_c, 4, 7, 78
6, 87903, Control_c, 4, 7, 90
6, 87904, Control_c, 4, 7, 77
6, 87905, Control_c, 4, 7, 89
6, 87906, Control_c, 4, 7, 76
6, 87908, Control_c, 4, 7, 75
6, 87908, Control_c, 4, 7, 88
6, 87910, Control_c, 4, 7, 74
6, 87910, Control_c, 4, 7, 87
6, 87912, Control_c, 4, 7, 73
6, 87912, Control_c, 4, 7, 86
6, 87914, Control_c, 4, 7, 91
6, 87914, Control_c, 4, 7, 72
6, 87914, Control_c, 4, 7, 85
6, 87916, Control_c, 4, 7, 84
6, 87917, Control_c, 4, 7, 71
6, 87918, Control_c, 4, 7, 83
6, 87919, Control_c, 4, 7, 70
6, 87920, Control_c, 4, 7, 82
6, 87921, Control_c, 4, 7, 69
6, 87922, Control_c, 4, 7, 81
6, 87923, Control_c, 4, 7, 68
6, 87925, Control_c, 4, 7, 67
6, 87925, Control_c, 4, 7, 80
6, 87927, Control_c, 4, 7, 66
6, 87927, Control_c, 4, 7, 79
6, 87929, Control_c, 4, 7, 90
6, 87929, Control_c, 4, 7, 65
6, 87929, Control_c, 4, 7, 78
6, 87931, Control_c, 4, 7, 77
6, 87932, Control_c, 4, 7, 64
6, 87933, Control_c, 4, 7, 76
6, 87935, Control_c, 4, 7, 75
6, 87937, Control_c, 4, 7, 74
6, 87939, Control_c, 4, 7, 73
6, 87942, Control_c, 4, 7, 72
6, 87944, Control_c, 4, 7, 89
6, 87944, Control_c, 4, 7, 71
6, 87946, Control_c, 4, 7, 70
6, 87948, Control_c, 4, 7, 69
6, 87950, Control_c, 4, 7, 68
6, 87952, Control_c, 4, 7, 67
6, 87954, Control_c, 4, 7, 66
6, 87956, Control_c, 4, 7, 65
6, 87959, Control_c, 4, 7, 88
6, 87959, Control_c, 4, 7, 64
6, 87960, Control_c, 4, 7, 64
6, 87974, Control_c, 4, 7, 87
6, 87989, Control_c, 4, 7, 86
6, 88004, Control_c, 4, 7, 85
6, 88019, Control_c, 4, 7, 84
6, 88034, Control_c, 4, 7, 83
6, 88049, Control_c, 4, 7, 82
6, 88064, Control_c, 4, 7, 81
6, 88079, Control_c, 4, 7, 80
6, 88094, Control_c, 4, 7, 79
6, 88109, Control_c, 4, 7, 78
6, 88124, Control_c, 4, 7, 77
6, 88139, Control_c, 4, 7, 76
6, 88154, Control_c, 4, 7, 75
6, 88169, Control_c, 4, 7, 74
6, 88184, Control_c, 4, 7, 73
6, 88199, Control_c, 4, 7, 72
6, 88214, Control_c, 4, 7, 71
6, 88229, Control_c, 4, 7, 70
6, 88244, Control_c, 4, 7, 69
6, 88259, Control_c, 4, 7, 68
6, 88274, Control_c, 4, 7, 67
6, 88289, Control_c, 4, 7, 66
6, 88293, Control_c, 4, 7, 115
6, 88295, Control_c, 4, 7, 114
6, 88298, Control_c, 4, 7, 113
6, 88300, Control_c, 4, 7, 112
6, 88302, Control_c, 4, 7, 111
6, 88304, Control_c, 4, 7, 65
6, 88304, Control_c, 4, 7, 110
6, 88306, Control_c, 4, 7, 109
6, 88308, Control_c, 4, 7, 108
6, 88310, Control_c, 4, 7, 107
6, 88313, Control_c, 4, 7, 106
6, 88315, Control_c, 4, 7, 105
6, 88317, Control_c, 4, 7, 104
6, 88319, Control_c, 4, 7, 64
6, 88319, Control_c, 4, 7, 103
6, 88320, Control_c, 4, 7, 96
6, 88320, Control_c, 4, 7, 120
6, 88321, Control_c, 4, 7, 102
6, 88322, Control_c, 4, 7, 119
6, 88323, Control_c, 4, 7, 101
6, 88324, Control_c, 4, 7, 118
6, 88325, Control_c, 4, 7, 100
6, 88326, Control_c, 4, 7, 117
6, 88328, Control_c, 4, 7, 99
6, 88328, Control_c, 4, 7, 116
6, 88330, Control_c, 4, 7, 98
6, 88330, Control_c, 4, 7, 115
6, 88332, Control_c, 4, 7, 97
6, 88332, Control_c, 4, 7, 114
6, 88334, Control_c, 4, 7, 95
6, 88334, Control_c, 4, 7, 96
6, 88334, Control_c, 4, 7, 113
6, 88336, Control_c, 4, 7, 95
6, 88337, Control_c, 4, 7, 112
6, 88338, Control_c, 4, 7, 94
6, 88339, Control_c, 4, 7, 111
6, 88340, Control_c, 4, 7, 93
6, 88341, Control_c, 4, 7, 110
6, 88343, Control_c, 4, 7, 92
6, 88343, Control_c, 4, 7, 109
6, 88345, Control_c, 4, 7, 91
6, 88345, Control_c, 4, 7, 108
6, 88347, Control_c, 4, 7, 90
6, 88347, Control_c, 4, 7, 107
6, 88349, Control_c, 4, 7, 94
6, 88349, Control_c, 4, 7, 89
6, 88349, Control_c, 4, 7, 106
6, 88351, Control_c, 4, 7, 88
6, 88351, Control_c, 4, 7, 105
6, 88353, Control_c, 4, 7, 87
6, 88354, Control_c, 4, 7, 104
6, 88355, Control_c, 4, 7, 86
6, 88356, Control_c, 4, 7, 103
6, 88358, Control_c, 4, 7, 85
6, 88358, Control_c, 4, 7, 102
6, 88360, Control_c, 4, 7, 84
6, 88360, Control_c, 4, 7, 101
6, 88362, Control_c, 4, 7, 83
6, 88362, Control_c, 4, 7, 100
6, 88364, Control_c, 4, 7, 93
6, 88364, Control_c, 4, 7, 82
6, 88364, Control_c, 4, 7, 99
6, 88366, Control_c, 4, 7, 81
6, 88366, Control_c, 4, 7, 98
6, 88368, Control_c, 4, 7, 80
6, 88368, Control_c, 4, 7, 97
6, 88370, Control_c, 4, 7, 79
6, 88371, Control_c, 4, 7, 96
6, 88373, Control_c, 4, 7, 78
6, 88373, Control_c, 4, 7, 95
6, 88375, Control_c, 4, 7, 77
6, 88375, Control_c, 4, 7, 94
6, 88377, Control_c, 4, 7, 76
6, 88377, Control_c, 4, 7, 93
6, 88379, Control_c, 4, 7, 92
6, 88379, Control_c, 4, 7, 75
6, 88379, Control_c, 4, 7, 92
6, 88381, Control_c, 4, 7, 74
6, 88381, Control_c, 4, 7, 91
6, 88383, Control_c, 4, 7, 73
6, 88383, Control_c, 4, 7, 90
6, 88385, Control_c, 4, 7, 72
6, 88385, Control_c, 4, 7, 89
6, 88388, Control_c, 4, 7, 71
6, 88388, Control_c, 4, 7, 88
6, 88390, Control_c, 4, 7, 70
6, 88390, Control_c, 4, 7, 87
6, 88392, Control_c, 4, 7, 69
6, 88392, Control_c, 4, 7, 86
6, 88394, Control_c, 4, 7, 91
6, 88394, Control_c, 4, 7, 68
6, 88394, Control_c, 4, 7, 85
6, 88396, Control_c, 4, 7, 67
6, 88396, Control_c, 4, 7, 84
6, 88398, Control_c, 4, 7, 66
6, 88398, Control_c, 4, 7, 83
6, 88400, Control_c, 4, 7, 65
6, 88400, Control_c, 4, 7, 82
6, 88402, Control_c, 4, 7, 81
6, 88403, Control_c, 4, 7, 64
6, 88405, Control_c, 4, 7, 80
6, 88407, Control_c, 4, 7, 79
6, 88409, Control_c, 4, 7, 90
6, 88409, Control_c, 4, 7, 78
6, 88411, Control_c, 4, 7, 77
6, 88413, Control_c, 4, 7, 76
6, 88415, Control_c, 4, 7, 75
6, 88417, Control_c, 4, 7, 74
6, 88419, Control_c, 4, 7, 73
6, 88422, Control_c, 4, 7, 72
6, 88424, Control_c, 4, 7, 89
6, 88424, Control_c, 4, 7, 71
6, 88426, Control_c, 4, 7, 70
6, 88428, Control_c, 4, 7, 69
6, 88430, Control_c, 4, 7, 68
6, 88432, Control_c, 4, 7, 67
6, 88434, Control_c, 4, 7, 66
6, 88436, Control_c, 4, 7, 65
6, 88439, Control_c, 4, 7, 88
6, 88439, Control_c, 4, 7, 64
6, 88440, Control_c, 4, 7, 64
6, 88454, Control_c, 4, 7, 87
6, 88469, Control_c, 4, 7, 86
6, 88484, Control_c, 4, 7, 85
6, 88499, Control_c, 4, 7, 84
6, 88514, Control_c, 4, 7, 83
6, 88529, Control_c, 4, 7, 82
6, 88544, Control_c, 4, 7, 81
6, 88559, Control_c, 4, 7, 80
6, 88574, Control_c, 4, 7, 79
6, 88589, Control_c, 4, 7, 78
6, 88604, Control_c, 4, 7, 77
6, 88619, Control_c, 4, 7, 76
6, 88634, Control_c, 4, 7, 75
6, 88649, Control_c, 4, 7, 74
6, 88664, Control_c, 4, 7, 73
6, 88679, Control_c, 4, 7, 72
6, 88694, Control_c, 4, 7, 71
6, 88709, Control_c, 4, 7, 70
6, 88724, Control_c, 4, 7, 69
6, 88739, Control_c, 4, 7, 68
6, 88754, Control_c, 4, 7, 67
6, 88769, Control_c, 4, 7, 66
6, 88784, Control_c, 4, 7, 65
6, 88799, Control_c, 4, 7, 64
6, 89930, Control_c, 4, 7, 106
6, 90000, Note_on_c, 4, 74, 80
6, 90000, Note_on_c, 4, 83, 80
6, 90096, Note_on_c, 4, 83, 0
6, 90096, Note_on_c, 4, 74, 0
6, 90960, Note_on_c, 4, 81, 80
6, 90960, Note_on_c, 4, 81, 80
6, 91056, Note_on_c, 4, 81, 0
6, 91056, Note_on_c, 4, 81, 0
6, 91920, Note_on_c, 4, 79, 80
6, 91920, Note_on_c, 4, 79, 80
6, 92016, Note_on_c, 4, 79, 0
6, 92016, Note_on_c, 4, 79, 0
6, 92500, Control_c, 4, 7, 68
6, 92580, Control_c, 4, 7, 69
6, 92640, Note_on_c, 4, 81, 80
6, 92660, Control_c, 4, 7, 70
6, 92780, Control_c, 4, 7, 71
6, 92880, Control_c, 4, 7, 72
6, 92940, Control_c, 4, 7, 73
6, 93020, Control_c, 4, 7, 74
6, 93024, Note_on_c, 4, 81, 0
6, 93100, Control_c, 4, 7, 75
6, 93120, Note_on_c, 4, 81, 80
6, 93260, Control_c, 4, 7, 76
6, 93320, Control_c, 4, 7, 77
6, 93340, Control_c, 4, 7, 78
6, 93480, Control_c, 4, 7, 79
6, 93504, Note_on_c, 4, 81, 0
6, 93580, Control_c, 4, 7, 80
6, 93600, Note_on_c, 4, 81, 80
6, 93720, Control_c, 4, 7, 81
6, 93860, Control_c, 4, 7, 83
6, 93984, Note_on_c, 4, 81, 0
6, 94020, Control_c, 4, 7, 84
6, 94040, Control_c, 4, 7, 85
6, 94080, Note_on_c, 4, 81, 80
6, 94080, Note_on_c, 4, 81, 80
6, 94180, Control_c, 4, 7, 86
6, 94260, Control_c, 4, 7, 87
6, 94272, Note_on_c, 4, 81, 0
6, 94272, Note_on_c, 4, 81, 0
6, 94320, Note_on_c, 4, 81, 80
6, 94320, Note_on_c, 4, 81, 80
6, 94380, Control_c, 4, 7, 88
6, 94400, Control_c, 4, 7, 89
6, 94460, Control_c, 4, 7, 90
6, 94512, Note_on_c, 4, 81, 0
6, 94512, Note_on_c, 4, 81, 0
6, 94520, Control_c, 4, 7, 91
6, 94560, Note_on_c, 4, 74, 80
6, 94560, Note_on_c, 4, 81, 80
6, 94656, Note_on_c, 4, 81, 0
6, 94656, Note_on_c, 4, 74, 0
6, 94660, Control_c, 4, 7, 92
6, 94680, Note_on_c, 4, 62, 80
6, 94680, Note_on_c, 4, 74, 80
6, 94720, Control_c, 4, 7, 93
6, 94730, Control_c, 4, 7, 94
6, 94760, Control_c, 4, 7, 95
6, 94776, Note_on_c, 4, 74, 0
6, 94776, Note_on_c, 4, 62, 0
6, 94800, Note_on_c, 4, 74, 80
6, 94800, Note_on_c, 4, 62, 80
6, 94800, Control_c, 4, 7, 96
6, 94860, Control_c, 4, 7, 97
6, 94880, Control_c, 4, 7, 98
6, 94896, Note_on_c, 4, 62, 0
6, 94896, Note_on_c, 4, 74, 0
6, 94920, Note_on_c, 4, 62, 80
6, 94920, Note_on_c, 4, 74, 80
6, 94940, Control_c, 4, 7, 100
6, 95000, Control_c, 4, 7, 101
6, 95016, Note_on_c, 4, 74, 0
6, 95016, Note_on_c, 4, 62, 0
6, 95020, Control_c, 4, 7, 103
6, 95040, Note_on_c, 4, 62, 80
6, 95040, Note_on_c, 4, 74, 80
6, 95080, Control_c, 4, 7, 105
6, 95150, Control_c, 4, 7, 106
6, 95160, Control_c, 4, 7, 107
6, 95190, Control_c, 4, 7, 108
6, 95270, Control_c, 4, 7, 110
6, 95330, Control_c, 4, 7, 111
6, 95400, Control_c, 4, 7, 113
6, 95420, Control_c, 4, 7, 114
6, 95480, Control_c, 4, 7, 116
6, 95560, Control_c, 4, 7, 117
6, 95616, Note_on_c, 4, 74, 0
6, 95616, Note_on_c, 4, 62, 0
6, 95640, Note_on_c, 4, 74, 80
6, 95640, Note_on_c, 4, 62, 80
6, 95640, Control_c, 4, 7, 118
6, 95700, Control_c, 4, 7, 119
6, 95730, Control_c, 4, 7, 120
6, 95736, Note_on_c, 4, 62, 0
6, 95736, Note_on_c, 4, 74, 0
6, 95760, Note_on_c, 4, 62, 80
6, 95760, Note_on_c, 4, 74, 80
6, 95830, Control_c, 4, 7, 119
6, 95850, Control_c, 4, 7, 119
6, 95856, Note_on_c, 4, 74, 0
6, 95856, Note_on_c, 4, 62, 0
6, 95860, Control_c, 4, 7, 118
6, 95880, Note_on_c, 4, 74, 80
6, 95880, Note_on_c, 4, 62, 80
6, 95880, Control_c, 4, 7, 117
6, 95910, Control_c, 4, 7, 116
6, 95940, Control_c, 4, 7, 115
6, 95976, Note_on_c, 4, 62, 0
6, 95976, Note_on_c, 4, 74, 0
6, 96000, Note_on_c, 4, 74, 80
6, 96000, Note_on_c, 4, 62, 80
6, 96000, Control_c, 4, 7, 114
6, 96010, Control_c, 4, 7, 113
6, 96030, Control_c, 4, 7, 112
6, 96060, Control_c, 4, 7, 110
6, 96120, Control_c, 4, 7, 109
6, 96140, Control_c, 4, 7, 108
6, 96200, Control_c, 4, 7, 106
6, 96220, Control_c, 4, 7, 105
6, 96320, Control_c, 4, 7, 104
6, 96380, Control_c, 4, 7, 103
6, 96460, Control_c, 4, 7, 102
6, 96520, Control_c, 4, 7, 101
6, 96576, Note_on_c, 4, 62, 0
6, 96576, Note_on_c, 4, 74, 0
6, 96600, Note_on_c, 4, 74, 80
6, 96600, Note_on_c, 4, 62, 80
6, 96696, Note_on_c, 4, 62, 0
6, 96696, Note_on_c, 4, 74, 0
6, 96720, Note_on_c, 4, 62, 80
6, 96720, Note_on_c, 4, 74, 80
6, 96816, Note_on_c, 4, 74, 0
6, 96816, Note_on_c, 4, 62, 0
6, 96840, Note_on_c, 4, 74, 80
6, 96840, Note_on_c, 4, 62, 80
6, 96860, Control_c, 4, 7, 100
6, 96920, Control_c, 4, 7, 99
6, 96936, Note_on_c, 4, 62, 0
6, 96936, Note_on_c, 4, 74, 0
6, 96960, Note_on_c, 4, 74, 80
6, 96960, Note_on_c, 4, 62, 80
6, 97000, Control_c, 4, 7, 98
6, 97080, Control_c, 4, 7, 97
6, 97140, Control_c, 4, 7, 96
6, 97344, Note_on_c, 4, 62, 0
6, 97344, Note_on_c, 4, 74, 0
6, 97370, Control_c, 4, 7, 95
6, 97440, Note_on_c, 4, 74, 80
6, 97440, Note_on_c, 4, 62, 80
6, 97450, Control_c, 4, 7, 96
6, 97510, Control_c, 4, 7, 97
6, 97590, Control_c, 4, 7, 99
6, 97690, Control_c, 4, 7, 101
6, 97790, Control_c, 4, 7, 102
6, 97850, Control_c, 4, 7, 104
6, 97890, Note_on_c, 4, 62, 0
6, 97890, Note_on_c, 4, 74, 0
6, 97920, Note_on_c, 4, 83, 80
6, 97920, Note_on_c, 4, 83, 80
6, 97930, Control_c, 4, 7, 106
6, 97990, Control_c, 4, 7, 109
6, 98070, Control_c, 4, 7, 111
6, 98112, Note_on_c, 4, 83, 0
6, 98112, Note_on_c, 4, 83, 0
6, 98150, Control_c, 4, 7, 113
6, 98160, Note_on_c, 4, 81, 80
6, 98160, Note_on_c, 4, 81, 80
6, 98210, Control_c, 4, 7, 114
6, 98270, Control_c, 4, 7, 116
6, 98330, Control_c, 4, 7, 117
6, 98340, Control_c, 4, 7, 123
6, 98350, Control_c, 4, 7, 120
6, 98352, Note_on_c, 4, 81, 0
6, 98352, Note_on_c, 4, 81, 0
6, 98380, Control_c, 4, 7, 121
6, 98400, Note_on_c, 4, 74, 80
6, 98400, Note_on_c, 4, 81, 80
6, 98420, Control_c, 4, 7, 122
6, 98450, Control_c, 4, 7, 124
6, 98460, Control_c, 4, 7, 123
6, 98490, Control_c, 4, 7, 122
6, 98510, Control_c, 4, 7, 120
6, 98592, Note_on_c, 4, 81, 0
6, 98592, Note_on_c, 4, 74, 0
6, 98610, Control_c, 4, 7, 114
6, 98640, Note_on_c, 4, 79, 80
6, 98640, Note_on_c, 4, 83, 80
6, 98690, Control_c, 4, 7, 112
6, 98710, Control_c, 4, 7, 110
6, 98750, Control_c, 4, 7, 108
6, 98832, Note_on_c, 4, 83, 0
6, 98832, Note_on_c, 4, 79, 0
6, 98850, Control_c, 4, 7, 102
6, 98870, Control_c, 4, 7, 101
6, 98880, Note_on_c, 4, 81, 80
6, 98880, Note_on_c, 4, 81, 80
6, 98930, Control_c, 4, 7, 100
6, 98940, Control_c, 4, 7, 99
6, 98970, Control_c, 4, 7, 98
6, 99050, Control_c, 4, 7, 96
6, 99070, Control_c, 4, 7, 95
6, 99090, Control_c, 4, 7, 94
6, 99100, Control_c, 4, 7, 93
6, 99160, Control_c, 4, 7, 92
6, 99170, Control_c, 4, 7, 91
6, 99250, Control_c, 4, 7, 90
6, 99264, Note_on_c, 4, 81, 0
6, 99264, Note_on_c, 4, 81, 0
6, 99360, Note_on_c, 4, 74, 80
6, 99360, Note_on_c, 4, 81, 80
6, 99370, Control_c, 4, 7, 84
6, 99450, Control_c, 4, 7, 83
6, 99456, Note_on_c, 4, 81, 0
6, 99456, Note_on_c, 4, 74, 0
6, 99470, Control_c, 4, 7, 82
6, 99500, Control_c, 4, 7, 81
6, 99620, Control_c, 4, 7, 80
6, 99720, Control_c, 4, 7, 79
6, 99800, Control_c, 4, 7, 78
6, 99880, Control_c, 4, 7, 77
6, 99890, Control_c, 4, 7, 76
6, 99920, Control_c, 4, 7, 75
6, 100440, Control_c, 4, 7, 96
6, 100440, Control_c, 4, 7, 96
6, 100447, Control_c, 4, 7, 95
6, 100447, Control_c, 4, 7, 95
6, 100454, Control_c, 4, 7, 94
6, 100454, Control_c, 4, 7, 94
6, 100462, Control_c, 4, 7, 93
6, 100462, Control_c, 4, 7, 93
6, 100469, Control_c, 4, 7, 92
6, 100469, Control_c, 4, 7, 92
6, 100477, Control_c, 4, 7, 91
6, 100477, Control_c, 4, 7, 91
6, 100484, Control_c, 4, 7, 90
6, 100484, Control_c, 4, 7, 90
6, 100492, Control_c, 4, 7, 89
6, 100492, Control_c, 4, 7, 89
6, 100499, Control_c, 4, 7, 88
6, 100499, Control_c, 4, 7, 88
6, 100507, Control_c, 4, 7, 87
6, 100507, Control_c, 4, 7, 87
6, 100514, Control_c, 4, 7, 86
6, 100514, Control_c, 4, 7, 86
6, 100522, Control_c, 4, 7, 85
6, 100522, Control_c, 4, 7, 85
6, 100529, Control_c, 4, 7, 84
6, 100529, Control_c, 4, 7, 84
6, 100537, Control_c, 4, 7, 83
6, 100537, Control_c, 4, 7, 83
6, 100544, Control_c, 4, 7, 82
6, 100544, Control_c, 4, 7, 82
6, 100552, Control_c, 4, 7, 81
6, 100552, Control_c, 4, 7, 81
6, 100559, Control_c, 4, 7, 80
6, 100559, Control_c, 4, 7, 80
6, 100566, Control_c, 4, 7, 79
6, 100566, Control_c, 4, 7, 79
6, 100574, Control_c, 4, 7, 78
6, 100574, Control_c, 4, 7, 78
6, 100581, Control_c, 4, 7, 77
6, 100581, Control_c, 4, 7, 77
6, 100589, Control_c, 4, 7, 76
6, 100589, Control_c, 4, 7, 76
6, 100596, Control_c, 4, 7, 75
6, 100596, Control_c, 4, 7, 75
6, 100604, Control_c, 4, 7, 74
6, 100604, Control_c, 4, 7, 74
6, 100611, Control_c, 4, 7, 73
6, 100611, Control_c, 4, 7, 73
6, 100619, Control_c, 4, 7, 72
6, 100619, Control_c, 4, 7, 72
6, 100626, Control_c, 4, 7, 71
6, 100626, Control_c, 4, 7, 71
6, 100634, Control_c, 4, 7, 70
6, 100634, Control_c, 4, 7, 70
6, 100641, Control_c, 4, 7, 69
6, 100641, Control_c, 4, 7, 69
6, 100649, Control_c, 4, 7, 68
6, 100649, Control_c, 4, 7, 68
6, 100656, Control_c, 4, 7, 67
6, 100656, Control_c, 4, 7, 67
6, 100664, Control_c, 4, 7, 66
6, 100664, Control_c, 4, 7, 66
6, 100671, Control_c, 4, 7, 65
6, 100671, Control_c, 4, 7, 65
6, 100679, Control_c, 4, 7, 64
6, 100679, Control_c, 4, 7, 64
6, 101400, Control_c, 4, 7, 96
6, 101400, Control_c, 4, 7, 96
6, 101407, Control_c, 4, 7, 95
6, 101407, Control_c, 4, 7, 95
6, 101415, Control_c, 4, 7, 94
6, 101415, Control_c, 4, 7, 94
6, 101422, Control_c, 4, 7, 93
6, 101422, Control_c, 4, 7, 93
6, 101430, Control_c, 4, 7, 92
6, 101430, Control_c, 4, 7, 92
6, 101437, Control_c, 4, 7, 91
6, 101437, Control_c, 4, 7, 91
6, 101445, Control_c, 4, 7, 90
6, 101445, Control_c, 4, 7, 90
6, 101452, Control_c, 4, 7, 89
6, 101452, Control_c, 4, 7, 89
6, 101460, Control_c, 4, 7, 88
6, 101460, Control_c, 4, 7, 88
6, 101467, Control_c, 4, 7, 87
6, 101467, Control_c, 4, 7, 87
6, 101475, Control_c, 4, 7, 86
6, 101475, Control_c, 4, 7, 86
6, 101482, Control_c, 4, 7, 85
6, 101482, Control_c, 4, 7, 85
6, 101490, Control_c, 4, 7, 84
6, 101490, Control_c, 4, 7, 84
6, 101497, Control_c, 4, 7, 83
6, 101497, Control_c, 4, 7, 83
6, 101505, Control_c, 4, 7, 82
6, 101505, Control_c, 4, 7, 82
6, 101512, Control_c, 4, 7, 81
6, 101512, Control_c, 4, 7, 81
6, 101520, Control_c, 4, 7, 80
6, 101520, Control_c, 4, 7, 80
6, 101527, Control_c, 4, 7, 79
6, 101527, Control_c, 4, 7, 79
6, 101535, Control_c, 4, 7, 78
6, 101535, Control_c, 4, 7, 78
6, 101542, Control_c, 4, 7, 77
6, 101542, Control_c, 4, 7, 77
6, 101550, Control_c, 4, 7, 76
6, 101550, Control_c, 4, 7, 76
6, 101557, Control_c, 4, 7, 75
6, 101557, Control_c, 4, 7, 75
6, 101565, Control_c, 4, 7, 74
6, 101565, Control_c, 4, 7, 74
6, 101572, Control_c, 4, 7, 73
6, 101572, Control_c, 4, 7, 73
6, 101580, Control_c, 4, 7, 72
6, 101580, Control_c, 4, 7, 72
6, 101587, Control_c, 4, 7, 71
6, 101587, Control_c, 4, 7, 71
6, 101595, Control_c, 4, 7, 70
6, 101595, Control_c, 4, 7, 70
6, 101602, Control_c, 4, 7, 69
6, 101602, Control_c, 4, 7, 69
6, 101610, Control_c, 4, 7, 68
6, 101610, Control_c, 4, 7, 68
6, 101617, Control_c, 4, 7, 67
6, 101617, Control_c, 4, 7, 67
6, 101625, Control_c, 4, 7, 66
6, 101625, Control_c, 4, 7, 66
6, 101632, Control_c, 4, 7, 65
6, 101632, Control_c, 4, 7, 65
6, 101640, Control_c, 4, 7, 64
6, 101640, Control_c, 4, 7, 64
6, 105120, Note_on_c, 4, 62, 80
6, 105120, Note_on_c, 4, 74, 80
6, 106080, Control_c, 4, 7, 64
6, 106080, Control_c, 4, 7, 64
6, 106109, Control_c, 4, 7, 65
6, 106109, Control_c, 4, 7, 65
6, 106139, Control_c, 4, 7, 66
6, 106139, Control_c, 4, 7, 66
6, 106169, Control_c, 4, 7, 67
6, 106169, Control_c, 4, 7, 67
6, 106199, Control_c, 4, 7, 68
6, 106199, Control_c, 4, 7, 68
6, 106229, Control_c, 4, 7, 69
6, 106229, Control_c, 4, 7, 69
6, 106259, Control_c, 4, 7, 70
6, 106259, Control_c, 4, 7, 70
6, 106289, Control_c, 4, 7, 71
6, 106289, Control_c, 4, 7, 71
6, 106319, Control_c, 4, 7, 72
6, 106319, Control_c, 4, 7, 72
6, 106349, Control_c, 4, 7, 73
6, 106349, Control_c, 4, 7, 73
6, 106379, Control_c, 4, 7, 74
6, 106379, Control_c, 4, 7, 74
6, 106409, Control_c, 4, 7, 75
6, 106409, Control_c, 4, 7, 75
6, 106439, Control_c, 4, 7, 76
6, 106439, Control_c, 4, 7, 76
6, 106469, Control_c, 4, 7, 77
6, 106469, Control_c, 4, 7, 77
6, 106499, Control_c, 4, 7, 78
6, 106499, Control_c, 4, 7, 78
6, 106529, Control_c, 4, 7, 79
6, 106529, Control_c, 4, 7, 79
6, 106559, Control_c, 4, 7, 80
6, 106559, Control_c, 4, 7, 80
6, 106589, Control_c, 4, 7, 81
6, 106589, Control_c, 4, 7, 81
6, 106619, Control_c, 4, 7, 82
6, 106619, Control_c, 4, 7, 82
6, 106649, Control_c, 4, 7, 83
6, 106649, Control_c, 4, 7, 83
6, 106679, Control_c, 4, 7, 84
6, 106679, Control_c, 4, 7, 84
6, 106709, Control_c, 4, 7, 85
6, 106709, Control_c, 4, 7, 85
6, 106739, Control_c, 4, 7, 86
6, 106739, Control_c, 4, 7, 86
6, 106769, Control_c, 4, 7, 87
6, 106769, Control_c, 4, 7, 87
6, 106799, Control_c, 4, 7, 88
6, 106799, Control_c, 4, 7, 88
6, 106829, Control_c, 4, 7, 89
6, 106829, Control_c, 4, 7, 89
6, 106859, Control_c, 4, 7, 90
6, 106859, Control_c, 4, 7, 90
6, 106889, Control_c, 4, 7, 91
6, 106889, Control_c, 4, 7, 91
6, 106919, Control_c, 4, 7, 92
6, 106919, Control_c, 4, 7, 92
6, 106949, Control_c, 4, 7, 93
6, 106949, Control_c, 4, 7, 93
6, 106979, Control_c, 4, 7, 94
6, 106979, Control_c, 4, 7, 94
6, 107009, Control_c, 4, 7, 95
6, 107009, Control_c, 4, 7, 95
6, 107039, Control_c, 4, 7, 96
6, 107039, Control_c, 4, 7, 96
6, 107040, Control_c, 4, 7, 96
6, 107040, Control_c, 4, 7, 96
6, 107054, Control_c, 4, 7, 95
6, 107054, Control_c, 4, 7, 95
6, 107069, Control_c, 4, 7, 94
6, 107069, Control_c, 4, 7, 94
6, 107084, Control_c, 4, 7, 93
6, 107084, Control_c, 4, 7, 93
6, 107099, Control_c, 4, 7, 92
6, 107099, Control_c, 4, 7, 92
6, 107114, Control_c, 4, 7, 91
6, 107114, Control_c, 4, 7, 91
6, 107129, Control_c, 4, 7, 90
6, 107129, Control_c, 4, 7, 90
6, 107144, Control_c, 4, 7, 89
6, 107144, Control_c, 4, 7, 89
6, 107159, Control_c, 4, 7, 88
6, 107159, Control_c, 4, 7, 88
6, 107174, Control_c, 4, 7, 87
6, 107174, Control_c, 4, 7, 87
6, 107189, Control_c, 4, 7, 86
6, 107189, Control_c, 4, 7, 86
6, 107204, Control_c, 4, 7, 85
6, 107204, Control_c, 4, 7, 85
6, 107219, Control_c, 4, 7, 84
6, 107219, Control_c, 4, 7, 84
6, 107234, Control_c, 4, 7, 83
6, 107234, Control_c, 4, 7, 83
6, 107249, Control_c, 4, 7, 82
6, 107249, Control_c, 4, 7, 82
6, 107264, Control_c, 4, 7, 81
6, 107264, Control_c, 4, 7, 81
6, 107279, Control_c, 4, 7, 80
6, 107279, Control_c, 4, 7, 80
6, 107294, Control_c, 4, 7, 79
6, 107294, Control_c, 4, 7, 79
6, 107309, Control_c, 4, 7, 78
6, 107309, Control_c, 4, 7, 78
6, 107324, Control_c, 4, 7, 77
6, 107324, Control_c, 4, 7, 77
6, 107339, Control_c, 4, 7, 76
6, 107339, Control_c, 4, 7, 76
6, 107354, Control_c, 4, 7, 75
6, 107354, Control_c, 4, 7, 75
6, 107369, Control_c, 4, 7, 74
6, 107369, Control_c, 4, 7, 74
6, 107384, Control_c, 4, 7, 73
6, 107384, Control_c, 4, 7, 73
6, 107399, Control_c, 4, 7, 72
6, 107399, Control_c, 4, 7, 72
6, 107414, Control_c, 4, 7, 71
6, 107414, Control_c, 4, 7, 71
6, 107424, Note_on_c, 4, 74, 0
6, 107424, Note_on_c, 4, 62, 0
6, 107429, Control_c, 4, 7, 70
6, 107429, Control_c, 4, 7, 70
6, 107444, Control_c, 4, 7, 69
6, 107444, Control_c, 4, 7, 69
6, 107459, Control_c, 4, 7, 68
6, 107459, Control_c, 4, 7, 68
6, 107474, Control_c, 4, 7, 67
6, 107474, Control_c, 4, 7, 67
6, 107489, Control_c, 4, 7, 66
6, 107489, Control_c, 4, 7, 66
6, 107504, Control_c, 4, 7, 65
6, 107504, Control_c, 4, 7, 65
6, 107519, Control_c, 4, 7, 64
6, 107519, Control_c, 4, 7, 64
6, 108000, Control_c, 4, 7, 64
6, 108000, Control_c, 4, 7, 64
6, 108029, Control_c, 4, 7, 65
6, 108029, Control_c, 4, 7, 65
6, 108059, Control_c, 4, 7, 66
6, 108059, Control_c, 4, 7, 66
6, 108089, Control_c, 4, 7, 67
6, 108089, Control_c, 4, 7, 67
6, 108119, Control_c, 4, 7, 68
6, 108119, Control_c, 4, 7, 68
6, 108149, Control_c, 4, 7, 69
6, 108149, Control_c, 4, 7, 69
6, 108179, Control_c, 4, 7, 70
6, 108179, Control_c, 4, 7, 70
6, 108209, Control_c, 4, 7, 71
6, 108209, Control_c, 4, 7, 71
6, 108239, Control_c, 4, 7, 72
6, 108239, Control_c, 4, 7, 72
6, 108269, Control_c, 4, 7, 73
6, 108269, Control_c, 4, 7, 73
6, 108299, Control_c, 4, 7, 74
6, 108299, Control_c, 4, 7, 74
6, 108329, Control_c, 4, 7, 75
6, 108329, Control_c, 4, 7, 75
6, 108359, Control_c, 4, 7, 76
6, 108359, Control_c, 4, 7, 76
6, 108389, Control_c, 4, 7, 77
6, 108389, Control_c, 4, 7, 77
6, 108419, Control_c, 4, 7, 78
6, 108419, Control_c, 4, 7, 78
6, 108449, Control_c, 4, 7, 79
6, 108449, Control_c, 4, 7, 79
6, 108479, Control_c, 4, 7, 80
6, 108479, Control_c, 4, 7, 80
6, 108509, Control_c, 4, 7, 81
6, 108509, Control_c, 4, 7, 81
6, 108539, Control_c, 4, 7, 82
6, 108539, Control_c, 4, 7, 82
6, 108569, Control_c, 4, 7, 83
6, 108569, Control_c, 4, 7, 83
6, 108599, Control_c, 4, 7, 84
6, 108599, Control_c, 4, 7, 84
6, 108629, Control_c, 4, 7, 85
6, 108629, Control_c, 4, 7, 85
6, 108659, Control_c, 4, 7, 86
6, 108659, Control_c, 4, 7, 86
6, 108689, Control_c, 4, 7, 87
6, 108689, Control_c, 4, 7, 87
6, 108719, Control_c, 4, 7, 88
6, 108719, Control_c, 4, 7, 88
6, 108749, Control_c, 4, 7, 89
6, 108749, Control_c, 4, 7, 89
6, 108779, Control_c, 4, 7, 90
6, 108779, Control_c, 4, 7, 90
6, 108809, Control_c, 4, 7, 91
6, 108809, Control_c, 4, 7, 91
6, 108839, Control_c, 4, 7, 92
6, 108839, Control_c, 4, 7, 92
6, 108869, Control_c, 4, 7, 93
6, 108869, Control_c, 4, 7, 93
6, 108899, Control_c, 4, 7, 94
6, 108899, Control_c, 4, 7, 94
6, 108929, Control_c, 4, 7, 95
6, 108929, Control_c, 4, 7, 95
6, 108959, Control_c, 4, 7, 96
6, 108959, Control_c, 4, 7, 96
6, 108960, Note_on_c, 4, 62, 80
6, 108960, Note_on_c, 4, 74, 80
6, 108960, Control_c, 4, 7, 96
6, 108960, Control_c, 4, 7, 96
6, 108974, Control_c, 4, 7, 95
6, 108974, Control_c, 4, 7, 95
6, 108989, Control_c, 4, 7, 94
6, 108989, Control_c, 4, 7, 94
6, 109004, Control_c, 4, 7, 93
6, 109004, Control_c, 4, 7, 93
6, 109019, Control_c, 4, 7, 92
6, 109019, Control_c, 4, 7, 92
6, 109034, Control_c, 4, 7, 91
6, 109034, Control_c, 4, 7, 91
6, 109049, Control_c, 4, 7, 90
6, 109049, Control_c, 4, 7, 90
6, 109064, Control_c, 4, 7, 89
6, 109064, Control_c, 4, 7, 89
6, 109079, Control_c, 4, 7, 88
6, 109079, Control_c, 4, 7, 88
6, 109094, Control_c, 4, 7, 87
6, 109094, Control_c, 4, 7, 87
6, 109109, Control_c, 4, 7, 86
6, 109109, Control_c, 4, 7, 86
6, 109124, Control_c, 4, 7, 85
6, 109124, Control_c, 4, 7, 85
6, 109139, Control_c, 4, 7, 84
6, 109139, Control_c, 4, 7, 84
6, 109154, Control_c, 4, 7, 83
6, 109154, Control_c, 4, 7, 83
6, 109169, Control_c, 4, 7, 82
6, 109169, Control_c, 4, 7, 82
6, 109184, Control_c, 4, 7, 81
6, 109184, Control_c, 4, 7, 81
6, 109199, Control_c, 4, 7, 80
6, 109199, Control_c, 4, 7, 80
6, 109214, Control_c, 4, 7, 79
6, 109214, Control_c, 4, 7, 79
6, 109229, Control_c, 4, 7, 78
6, 109229, Control_c, 4, 7, 78
6, 109244, Control_c, 4, 7, 77
6, 109244, Control_c, 4, 7, 77
6, 109259, Control_c, 4, 7, 76
6, 109259, Control_c, 4, 7, 76
6, 109274, Control_c, 4, 7, 75
6, 109274, Control_c, 4, 7, 75
6, 109289, Control_c, 4, 7, 74
6, 109289, Control_c, 4, 7, 74
6, 109304, Control_c, 4, 7, 73
6, 109304, Control_c, 4, 7, 73
6, 109319, Control_c, 4, 7, 72
6, 109319, Control_c, 4, 7, 72
6, 109334, Control_c, 4, 7, 71
6, 109334, Control_c, 4, 7, 71
6, 109349, Control_c, 4, 7, 70
6, 109349, Control_c, 4, 7, 70
6, 109364, Control_c, 4, 7, 69
6, 109364, Control_c, 4, 7, 69
6, 109379, Control_c, 4, 7, 68
6, 109379, Control_c, 4, 7, 68
6, 109394, Control_c, 4, 7, 67
6, 109394, Control_c, 4, 7, 67
6, 109409, Control_c, 4, 7, 66
6, 109409, Control_c, 4, 7, 66
6, 109424, Control_c, 4, 7, 65
6, 109424, Control_c, 4, 7, 65
6, 109439, Control_c, 4, 7, 64
6, 109439, Control_c, 4, 7, 64
6, 109920, Control_c, 4, 7, 64
6, 109920, Control_c, 4, 7, 64
6, 109949, Control_c, 4, 7, 65
6, 109949, Control_c, 4, 7, 65
6, 109979, Control_c, 4, 7, 66
6, 109979, Control_c, 4, 7, 66
6, 110009, Control_c, 4, 7, 67
6, 110009, Control_c, 4, 7, 67
6, 110039, Control_c, 4, 7, 68
6, 110039, Control_c, 4, 7, 68
6, 110069, Control_c, 4, 7, 69
6, 110069, Control_c, 4, 7, 69
6, 110099, Control_c, 4, 7, 70
6, 110099, Control_c, 4, 7, 70
6, 110129, Control_c, 4, 7, 71
6, 110129, Control_c, 4, 7, 71
6, 110159, Control_c, 4, 7, 72
6, 110159, Control_c, 4, 7, 72
6, 110189, Control_c, 4, 7, 73
6, 110189, Control_c, 4, 7, 73
6, 110219, Control_c, 4, 7, 74
6, 110219, Control_c, 4, 7, 74
6, 110249, Control_c, 4, 7, 75
6, 110249, Control_c, 4, 7, 75
6, 110279, Control_c, 4, 7, 76
6, 110279, Control_c, 4, 7, 76
6, 110309, Control_c, 4, 7, 77
6, 110309, Control_c, 4, 7, 77
6, 110339, Control_c, 4, 7, 78
6, 110339, Control_c, 4, 7, 78
6, 110369, Control_c, 4, 7, 79
6, 110369, Control_c, 4, 7, 79
6, 110399, Control_c, 4, 7, 80
6, 110399, Control_c, 4, 7, 80
6, 110429, Control_c, 4, 7, 81
6, 110429, Control_c, 4, 7, 81
6, 110459, Control_c, 4, 7, 82
6, 110459, Control_c, 4, 7, 82
6, 110489, Control_c, 4, 7, 83
6, 110489, Control_c, 4, 7, 83
6, 110519, Control_c, 4, 7, 84
6, 110519, Control_c, 4, 7, 84
6, 110549, Control_c, 4, 7, 85
6, 110549, Control_c, 4, 7, 85
6, 110579, Control_c, 4, 7, 86
6, 110579, Control_c, 4, 7, 86
6, 110609, Control_c, 4, 7, 87
6, 110609, Control_c, 4, 7, 87
6, 110639, Control_c, 4, 7, 88
6, 110639, Control_c, 4, 7, 88
6, 110669, Control_c, 4, 7, 89
6, 110669, Control_c, 4, 7, 89
6, 110699, Control_c, 4, 7, 90
6, 110699, Control_c, 4, 7, 90
6, 110729, Control_c, 4, 7, 91
6, 110729, Control_c, 4, 7, 91
6, 110759, Control_c, 4, 7, 92
6, 110759, Control_c, 4, 7, 92
6, 110789, Control_c, 4, 7, 93
6, 110789, Control_c, 4, 7, 93
6, 110819, Control_c, 4, 7, 94
6, 110819, Control_c, 4, 7, 94
6, 110849, Control_c, 4, 7, 95
6, 110849, Control_c, 4, 7, 95
6, 110879, Control_c, 4, 7, 96
6, 110879, Control_c, 4, 7, 96
6, 110880, Control_c, 4, 7, 96
6, 110880, Control_c, 4, 7, 96
6, 110894, Control_c, 4, 7, 95
6, 110894, Control_c, 4, 7, 95
6, 110909, Control_c, 4, 7, 94
6, 110909, Control_c, 4, 7, 94
6, 110924, Control_c, 4, 7, 93
6, 110924, Control_c, 4, 7, 93
6, 110939, Control_c, 4, 7, 92
6, 110939, Control_c, 4, 7, 92
6, 110954, Control_c, 4, 7, 91
6, 110954, Control_c, 4, 7, 91
6, 110969, Control_c, 4, 7, 90
6, 110969, Control_c, 4, 7, 90
6, 110984, Control_c, 4, 7, 89
6, 110984, Control_c, 4, 7, 89
6, 110999, Control_c, 4, 7, 88
6, 110999, Control_c, 4, 7, 88
6, 111014, Control_c, 4, 7, 87
6, 111014, Control_c, 4, 7, 87
6, 111029, Control_c, 4, 7, 86
6, 111029, Control_c, 4, 7, 86
6, 111044, Control_c, 4, 7, 85
6, 111044, Control_c, 4, 7, 85
6, 111059, Control_c, 4, 7, 84
6, 111059, Control_c, 4, 7, 84
6, 111074, Control_c, 4, 7, 83
6, 111074, Control_c, 4, 7, 83
6, 111089, Control_c, 4, 7, 82
6, 111089, Control_c, 4, 7, 82
6, 111104, Control_c, 4, 7, 81
6, 111104, Control_c, 4, 7, 81
6, 111119, Control_c, 4, 7, 80
6, 111119, Control_c, 4, 7, 80
6, 111134, Control_c, 4, 7, 79
6, 111134, Control_c, 4, 7, 79
6, 111149, Control_c, 4, 7, 78
6, 111149, Control_c, 4, 7, 78
6, 111164, Control_c, 4, 7, 77
6, 111164, Control_c, 4, 7, 77
6, 111179, Control_c, 4, 7, 76
6, 111179, Control_c, 4, 7, 76
6, 111194, Control_c, 4, 7, 75
6, 111194, Control_c, 4, 7, 75
6, 111209, Control_c, 4, 7, 74
6, 111209, Control_c, 4, 7, 74
6, 111224, Control_c, 4, 7, 73
6, 111224, Control_c, 4, 7, 73
6, 111239, Control_c, 4, 7, 72
6, 111239, Control_c, 4, 7, 72
6, 111254, Control_c, 4, 7, 71
6, 111254, Control_c, 4, 7, 71
6, 111264, Note_on_c, 4, 74, 0
6, 111264, Note_on_c, 4, 62, 0
6, 111269, Control_c, 4, 7, 70
6, 111269, Control_c, 4, 7, 70
6, 111284, Control_c, 4, 7, 69
6, 111284, Control_c, 4, 7, 69
6, 111299, Control_c, 4, 7, 68
6, 111299, Control_c, 4, 7, 68
6, 111314, Control_c, 4, 7, 67
6, 111314, Control_c, 4, 7, 67
6, 111329, Control_c, 4, 7, 66
6, 111329, Control_c, 4, 7, 66
6, 111344, Control_c, 4, 7, 65
6, 111344, Control_c, 4, 7, 65
6, 111359, Control_c, 4, 7, 64
6, 111359, Control_c, 4, 7, 64
6, 111840, Control_c, 4, 7, 64
6, 111840, Control_c, 4, 7, 64
6, 111869, Control_c, 4, 7, 65
6, 111869, Control_c, 4, 7, 65
6, 111899, Control_c, 4, 7, 66
6, 111899, Control_c, 4, 7, 66
6, 111929, Control_c, 4, 7, 67
6, 111929, Control_c, 4, 7, 67
6, 111959, Control_c, 4, 7, 68
6, 111959, Control_c, 4, 7, 68
6, 111989, Control_c, 4, 7, 69
6, 111989, Control_c, 4, 7, 69
6, 112019, Control_c, 4, 7, 70
6, 112019, Control_c, 4, 7, 70
6, 112049, Control_c, 4, 7, 71
6, 112049, Control_c, 4, 7, 71
6, 112079, Control_c, 4, 7, 72
6, 112079, Control_c, 4, 7, 72
6, 112109, Control_c, 4, 7, 73
6, 112109, Control_c, 4, 7, 73
6, 112139, Control_c, 4, 7, 74
6, 112139, Control_c, 4, 7, 74
6, 112169, Control_c, 4, 7, 75
6, 112169, Control_c, 4, 7, 75
6, 112199, Control_c, 4, 7, 76
6, 112199, Control_c, 4, 7, 76
6, 112229, Control_c, 4, 7, 77
6, 112229, Control_c, 4, 7, 77
6, 112259, Control_c, 4, 7, 78
6, 112259, Control_c, 4, 7, 78
6, 112289, Control_c, 4, 7, 79
6, 112289, Control_c, 4, 7, 79
6, 112319, Control_c, 4, 7, 80
6, 112319, Control_c, 4, 7, 80
6, 112349, Control_c, 4, 7, 81
6, 112349, Control_c, 4, 7, 81
6, 112379, Control_c, 4, 7, 82
6, 112379, Control_c, 4, 7, 82
6, 112409, Control_c, 4, 7, 83
6, 112409, Control_c, 4, 7, 83
6, 112439, Control_c, 4, 7, 84
6, 112439, Control_c, 4, 7, 84
6, 112469, Control_c, 4, 7, 85
6, 112469, Control_c, 4, 7, 85
6, 112499, Control_c, 4, 7, 86
6, 112499, Control_c, 4, 7, 86
6, 112529, Control_c, 4, 7, 87
6, 112529, Control_c, 4, 7, 87
6, 112559, Control_c, 4, 7, 88
6, 112559, Control_c, 4, 7, 88
6, 112589, Control_c, 4, 7, 89
6, 112589, Control_c, 4, 7, 89
6, 112619, Control_c, 4, 7, 90
6, 112619, Control_c, 4, 7, 90
6, 112649, Control_c, 4, 7, 91
6, 112649, Control_c, 4, 7, 91
6, 112679, Control_c, 4, 7, 92
6, 112679, Control_c, 4, 7, 92
6, 112709, Control_c, 4, 7, 93
6, 112709, Control_c, 4, 7, 93
6, 112739, Control_c, 4, 7, 94
6, 112739, Control_c, 4, 7, 94
6, 112769, Control_c, 4, 7, 95
6, 112769, Control_c, 4, 7, 95
6, 112799, Control_c, 4, 7, 96
6, 112799, Control_c, 4, 7, 96
6, 114720, Control_c, 4, 7, 48
6, 114792, Control_c, 4, 7, 49
6, 114865, Control_c, 4, 7, 50
6, 114938, Control_c, 4, 7, 51
6, 115011, Control_c, 4, 7, 52
6, 115084, Control_c, 4, 7, 53
6, 115157, Control_c, 4, 7, 54
6, 115230, Control_c, 4, 7, 55
6, 115303, Control_c, 4, 7, 56
6, 115376, Control_c, 4, 7, 57
6, 115448, Control_c, 4, 7, 58
6, 115521, Control_c, 4, 7, 59
6, 115594, Control_c, 4, 7, 60
6, 115667, Control_c, 4, 7, 61
6, 115740, Control_c, 4, 7, 62
6, 115813, Control_c, 4, 7, 63
6, 115886, Control_c, 4, 7, 64
6, 115959, Control_c, 4, 7, 65
6, 116032, Control_c, 4, 7, 66
6, 116105, Control_c, 4, 7, 67
6, 116177, Control_c, 4, 7, 68
6, 116250, Control_c, 4, 7, 69
6, 116323, Control_c, 4, 7, 70
6, 116396, Control_c, 4, 7, 71
6, 116469, Control_c, 4, 7, 72
6, 116542, Control_c, 4, 7, 73
6, 116615, Control_c, 4, 7, 74
6, 116640, Note_on_c, 4, 62, 100
6, 116640, Note_on_c, 4, 74, 100
6, 116688, Control_c, 4, 7, 75
6, 116761, Control_c, 4, 7, 76
6, 116834, Control_c, 4, 7, 77
6, 116906, Control_c, 4, 7, 78
6, 116979, Control_c, 4, 7, 79
6, 117052, Control_c, 4, 7, 80
6, 117125, Control_c, 4, 7, 81
6, 117198, Control_c, 4, 7, 82
6, 117271, Control_c, 4, 7, 83
6, 117344, Control_c, 4, 7, 84
6, 117417, Control_c, 4, 7, 85
6, 117490, Control_c, 4, 7, 86
6, 117563, Control_c, 4, 7, 87
6, 117635, Control_c, 4, 7, 88
6, 117708, Control_c, 4, 7, 89
6, 117781, Control_c, 4, 7, 90
6, 117854, Control_c, 4, 7, 91
6, 117927, Control_c, 4, 7, 92
6, 118000, Control_c, 4, 7, 93
6, 118073, Control_c, 4, 7, 94
6, 118146, Control_c, 4, 7, 95
6, 118219, Control_c, 4, 7, 96
6, 118292, Control_c, 4, 7, 97
6, 118364, Control_c, 4, 7, 98
6, 118437, Control_c, 4, 7, 99
6, 118510, Control_c, 4, 7, 100
6, 118583, Control_c, 4, 7, 101
6, 118656, Control_c, 4, 7, 102
6, 118729, Control_c, 4, 7, 103
6, 118802, Control_c, 4, 7, 104
6, 118875, Control_c, 4, 7, 105
6, 118948, Control_c, 4, 7, 106
6, 119021, Control_c, 4, 7, 107
6, 119093, Control_c, 4, 7, 108
6, 119166, Control_c, 4, 7, 109
6, 119239, Control_c, 4, 7, 110
6, 119312, Control_c, 4, 7, 111
6, 119385, Control_c, 4, 7, 112
6, 119458, Control_c, 4, 7, 113
6, 119531, Control_c, 4, 7, 114
6, 119604, Control_c, 4, 7, 115
6, 119677, Control_c, 4, 7, 116
6, 119750, Control_c, 4, 7, 117
6, 119822, Control_c, 4, 7, 118
6, 119895, Control_c, 4, 7, 119
6, 119968, Control_c, 4, 7, 120
6, 120041, Control_c, 4, 7, 121
6, 120114, Control_c, 4, 7, 122
6, 120187, Control_c, 4, 7, 123
6, 120260, Control_c, 4, 7, 124
6, 120333, Control_c, 4, 7, 125
6, 120406, Control_c, 4, 7, 126
6, 120479, Control_c, 4, 7, 127
6, 120720, Note_on_c, 4, 74, 0
6, 120720, Note_on_c, 4, 62, 0
6, 120840, Note_on_c, 4, 74, 100
6, 120840, Note_on_c, 4, 62, 100
6, 120927, Note_on_c, 4, 62, 0
6, 120948, Note_on_c, 4, 74, 0
6, 120960, Note_on_c, 4, 62, 100
6, 120960, Note_on_c, 4, 74, 100
6, 121057, Note_on_c, 4, 62, 0
6, 121068, Note_on_c, 4, 74, 0
6, 121080, Note_on_c, 4, 74, 100
6, 121080, Note_on_c, 4, 62, 100
6, 121167, Note_on_c, 4, 62, 0
6, 121188, Note_on_c, 4, 74, 0
6, 121320, Note_on_c, 4, 62, 100
6, 121320, Note_on_c, 4, 74, 100
6, 121407, Note_on_c, 4, 62, 0
6, 121428, Note_on_c, 4, 74, 0
6, 121440, Note_on_c, 4, 62, 100
6, 121440, Note_on_c, 4, 74, 100
6, 121537, Note_on_c, 4, 62, 0
6, 121548, Note_on_c, 4, 74, 0
6, 121560, Note_on_c, 4, 74, 100
6, 121560, Note_on_c, 4, 62, 100
6, 121647, Note_on_c, 4, 62, 0
6, 121668, Note_on_c, 4, 74, 0
6, 121800, Note_on_c, 4, 62, 100
6, 121800, Note_on_c, 4, 74, 100
6, 121887, Note_on_c, 4, 62, 0
6, 121908, Note_on_c, 4, 74, 0
6, 121920, Note_on_c, 4, 62, 100
6, 121920, Note_on_c, 4, 74, 100
6, 122017, Note_on_c, 4, 62, 0
6, 122028, Note_on_c, 4, 74, 0
6, 122040, Note_on_c, 4, 74, 100
6, 122040, Note_on_c, 4, 62, 100
6, 122127, Note_on_c, 4, 62, 0
6, 122148, Note_on_c, 4, 74, 0
6, 122160, Note_on_c, 4, 62, 100
6, 122160, Note_on_c, 4, 74, 100
6, 122247, Note_on_c, 4, 62, 0
6, 122268, Note_on_c, 4, 74, 0
6, 122280, Note_on_c, 4, 62, 100
6, 122280, Note_on_c, 4, 74, 100
6, 122367, Note_on_c, 4, 62, 0
6, 122388, Note_on_c, 4, 74, 0
6, 122400, Note_on_c, 4, 74, 100
6, 122400, Note_on_c, 4, 62, 100
6, 122594, Note_on_c, 4, 62, 0
6, 122616, Note_on_c, 4, 74, 0
6, 122760, Note_on_c, 4, 69, 100
6, 122760, Note_on_c, 4, 69, 100
6, 122880, Note_on_c, 4, 66, 100
6, 122880, Note_on_c, 4, 66, 100
6, 122890, Note_on_c, 4, 69, 0
6, 122890, Note_on_c, 4, 69, 0
6, 123000, Note_on_c, 4, 66, 0
6, 123000, Note_on_c, 4, 66, 0
6, 123000, Note_on_c, 4, 62, 100
6, 123000, Note_on_c, 4, 62, 100
6, 123087, Note_on_c, 4, 62, 0
6, 123087, Note_on_c, 4, 62, 0
6, 123240, Note_on_c, 4, 69, 100
6, 123240, Note_on_c, 4, 69, 100
6, 123360, Note_on_c, 4, 66, 100
6, 123360, Note_on_c, 4, 66, 100
6, 123370, Note_on_c, 4, 69, 0
6, 123370, Note_on_c, 4, 69, 0
6, 123480, Note_on_c, 4, 66, 0
6, 123480, Note_on_c, 4, 66, 0
6, 123480, Note_on_c, 4, 62, 100
6, 123480, Note_on_c, 4, 62, 100
6, 123567, Note_on_c, 4, 62, 0
6, 123567, Note_on_c, 4, 62, 0
6, 123720, Note_on_c, 4, 76, 100
6, 123720, Note_on_c, 4, 69, 100
6, 123840, Note_on_c, 4, 74, 100
6, 123840, Note_on_c, 4, 66, 100
6, 123850, Note_on_c, 4, 69, 0
6, 123850, Note_on_c, 4, 76, 0
6, 123960, Note_on_c, 4, 74, 0
6, 123960, Note_on_c, 4, 66, 0
6, 123960, Note_on_c, 4, 76, 100
6, 123960, Note_on_c, 4, 69, 100
6, 124068, Note_on_c, 4, 69, 0
6, 124068, Note_on_c, 4, 76, 0
6, 124080, Note_on_c, 4, 66, 100
6, 124080, Note_on_c, 4, 74, 100
6, 124188, Note_on_c, 4, 74, 0
6, 124188, Note_on_c, 4, 66, 0
6, 124200, Note_on_c, 4, 76, 100
6, 124200, Note_on_c, 4, 69, 100
6, 124320, Note_on_c, 4, 74, 100
6, 124320, Note_on_c, 4, 78, 100
6, 124330, Note_on_c, 4, 69, 0
6, 124330, Note_on_c, 4, 76, 0
6, 124440, Note_on_c, 4, 74, 0
6, 124440, Note_on_c, 4, 78, 0
6, 125280, Note_on_c, 4, 62, 100
6, 125280, Note_on_c, 4, 74, 100
6, 125669, Note_on_c, 4, 62, 0
6, 125712, Note_on_c, 4, 74, 0
6, 125760, Note_on_c, 4, 57, 100
6, 125760, Note_on_c, 4, 69, 100
6, 126149, Note_on_c, 4, 57, 0
6, 126192, Note_on_c, 4, 69, 0
6, 126240, Note_on_c, 4, 62, 100
6, 126240, Note_on_c, 4, 69, 100
6, 126348, Note_on_c, 4, 62, 0
6, 126360, Note_on_c, 4, 69, 0
6, 126480, Note_on_c, 4, 74, 100
6, 126480, Note_on_c, 4, 78, 100
6, 126588, Note_on_c, 4, 78, 0
6, 126588, Note_on_c, 4, 74, 0
6, 126720, Note_on_c, 4, 62, 100
6, 126720, Note_on_c, 4, 74, 100
6, 126853, Note_on_c, 4, 74, 0
6, 126853, Note_on_c, 4, 62, 0
6, 126960, Note_on_c, 4, 69, 100
6, 126960, Note_on_c, 4, 69, 100
6, 127080, Note_on_c, 4, 69, 0
6, 127080, Note_on_c, 4, 69, 0
6, 127560, Note_on_c, 4, 74, 100
6, 127560, Note_on_c, 4, 62, 100
6, 127663, Note_on_c, 4, 62, 0
6, 127663, Note_on_c, 4, 74, 0
6, 127680, Note_on_c, 4, 62, 100
6, 127680, Note_on_c, 4, 74, 100
6, 127775, Note_on_c, 4, 74, 0
6, 127785, Note_on_c, 4, 62, 0
6, 127800, Note_on_c, 4, 74, 100
6, 127800, Note_on_c, 4, 62, 100
6, 127886, Note_on_c, 4, 62, 0
6, 127886, Note_on_c, 4, 74, 0
6, 128040, Note_on_c, 4, 62, 100
6, 128040, Note_on_c, 4, 74, 100
6, 128143, Note_on_c, 4, 74, 0
6, 128143, Note_on_c, 4, 62, 0
6, 128160, Note_on_c, 4, 62, 100
6, 128160, Note_on_c, 4, 74, 100
6, 128255, Note_on_c, 4, 74, 0
6, 128265, Note_on_c, 4, 62, 0
6, 128280, Note_on_c, 4, 74, 100
6, 128280, Note_on_c, 4, 62, 100
6, 128366, Note_on_c, 4, 62, 0
6, 128366, Note_on_c, 4, 74, 0
6, 128520, Note_on_c, 4, 62, 100
6, 128520, Note_on_c, 4, 74, 100
6, 128623, Note_on_c, 4, 74, 0
6, 128623, Note_on_c, 4, 62, 0
6, 128640, Note_on_c, 4, 62, 100
6, 128640, Note_on_c, 4, 74, 100
6, 128735, Note_on_c, 4, 74, 0
6, 128745, Note_on_c, 4, 62, 0
6, 128760, Note_on_c, 4, 74, 100
6, 128760, Note_on_c, 4, 62, 100
6, 128846, Note_on_c, 4, 62, 0
6, 128846, Note_on_c, 4, 74, 0
6, 128880, Note_on_c, 4, 62, 100
6, 128880, Note_on_c, 4, 74, 100
6, 128966, Note_on_c, 4, 74, 0
6, 128966, Note_on_c, 4, 62, 0
6, 129000, Note_on_c, 4, 62, 100
6, 129000, Note_on_c, 4, 74, 100
6, 129103, Note_on_c, 4, 74, 0
6, 129103, Note_on_c, 4, 62, 0
6, 129120, Note_on_c, 4, 74, 100
6, 129120, Note_on_c, 4, 62, 100
6, 129293, Note_on_c, 4, 74, 0
6, 129312, Note_on_c, 4, 62, 0
6, 129480, Note_on_c, 4, 69, 100
6, 129480, Note_on_c, 4, 69, 100
6, 129583, Note_on_c, 4, 69, 0
6, 129583, Note_on_c, 4, 69, 0
6, 129600, Note_on_c, 4, 66, 100
6, 129600, Note_on_c, 4, 66, 100
6, 129695, Note_on_c, 4, 66, 0
6, 129695, Note_on_c, 4, 66, 0
6, 129720, Note_on_c, 4, 62, 100
6, 129720, Note_on_c, 4, 62, 100
6, 129806, Note_on_c, 4, 62, 0
6, 129806, Note_on_c, 4, 62, 0
6, 129960, Note_on_c, 4, 69, 100
6, 129960, Note_on_c, 4, 69, 100
6, 130063, Note_on_c, 4, 69, 0
6, 130063, Note_on_c, 4, 69, 0
6, 130080, Note_on_c, 4, 66, 100
6, 130080, Note_on_c, 4, 66, 100
6, 130175, Note_on_c, 4, 66, 0
6, 130175, Note_on_c, 4, 66, 0
6, 130200, Note_on_c, 4, 62, 100
6, 130200, Note_on_c, 4, 62, 100
6, 130286, Note_on_c, 4, 62, 0
6, 130286, Note_on_c, 4, 62, 0
6, 130440, Note_on_c, 4, 76, 100
6, 130440, Note_on_c, 4, 69, 100
6, 130543, Note_on_c, 4, 69, 0
6, 130543, Note_on_c, 4, 76, 0
6, 130560, Note_on_c, 4, 74, 100
6, 130560, Note_on_c, 4, 66, 100
6, 130655, Note_on_c, 4, 66, 0
6, 130655, Note_on_c, 4, 74, 0
6, 130680, Note_on_c, 4, 76, 100
6, 130680, Note_on_c, 4, 69, 100
6, 130766, Note_on_c, 4, 69, 0
6, 130766, Note_on_c, 4, 76, 0
6, 130800, Note_on_c, 4, 66, 100
6, 130800, Note_on_c, 4, 74, 100
6, 130886, Note_on_c, 4, 74, 0
6, 130886, Note_on_c, 4, 66, 0
6, 130920, Note_on_c, 4, 76, 100
6, 130920, Note_on_c, 4, 69, 100
6, 131023, Note_on_c, 4, 69, 0
6, 131023, Note_on_c, 4, 76, 0
6, 131040, Note_on_c, 4, 74, 100
6, 131040, Note_on_c, 4, 78, 100
6, 131135, Note_on_c, 4, 78, 0
6, 131135, Note_on_c, 4, 74, 0
6, 132000, Note_on_c, 4, 62, 100
6, 132000, Note_on_c, 4, 74, 100
6, 132346, Note_on_c, 4, 74, 0
6, 132383, Note_on_c, 4, 62, 0
6, 132480, Note_on_c, 4, 57, 100
6, 132480, Note_on_c, 4, 69, 100
6, 132826, Note_on_c, 4, 69, 0
6, 132863, Note_on_c, 4, 57, 0
6, 132960, Note_on_c, 4, 62, 100
6, 132960, Note_on_c, 4, 69, 100
6, 133080, Note_on_c, 4, 69, 0
6, 133080, Note_on_c, 4, 62, 0
6, 133200, Note_on_c, 4, 74, 100
6, 133200, Note_on_c, 4, 78, 100
6, 133320, Note_on_c, 4, 78, 0
6, 133320, Note_on_c, 4, 74, 0
6, 133440, Note_on_c, 4, 62, 100
6, 133440, Note_on_c, 4, 74, 100
6, 133560, Note_on_c, 4, 74, 0
6, 133560, Note_on_c, 4, 62, 0
6, 133680, Note_on_c, 4, 69, 100
6, 133680, Note_on_c, 4, 69, 100
6, 133800, Note_on_c, 4, 69, 0
6, 133800, Note_on_c, 4, 69, 0
6, 133920, Note_on_c, 4, 62, 100
6, 133920, Note_on_c, 4, 74, 100
6, 134400, Note_on_c, 4, 74, 0
6, 134400, Note_on_c, 4, 62, 0
6, 134400, Note_on_c, 4, 57, 100
6, 134400, Note_on_c, 4, 69, 100
6, 134880, Note_on_c, 4, 69, 0
6, 134880, Note_on_c, 4, 57, 0
6, 134880, Note_on_c, 4, 62, 100
6, 134880, Note_on_c, 4, 69, 100
6, 135000, Note_on_c, 4, 69, 0
6, 135000, Note_on_c, 4, 62, 0
6, 135120, Note_on_c, 4, 74, 100
6, 135120, Note_on_c, 4, 78, 100
6, 135240, Note_on_c, 4, 78, 0
6, 135240, Note_on_c, 4, 74, 0
6, 135360, Note_on_c, 4, 62, 100
6, 135360, Note_on_c, 4, 74, 100
6, 135480, Note_on_c, 4, 74, 0
6, 135480, Note_on_c, 4, 62, 0
6, 135600, Note_on_c, 4, 69, 100
6, 135600, Note_on_c, 4, 69, 100
6, 135720, Note_on_c, 4, 69, 0
6, 135720, Note_on_c, 4, 69, 0
6, 135840, Note_on_c, 4, 62, 100
6, 135840, Note_on_c, 4, 74, 100
6, 136056, Note_on_c, 4, 74, 0
6, 136056, Note_on_c, 4, 62, 0
6, 136080, Note_on_c, 4, 74, 100
6, 136080, Note_on_c, 4, 62, 100
6, 136242, Note_on_c, 4, 62, 0
6, 136242, Note_on_c, 4, 74, 0
6, 136260, Note_on_c, 4, 62, 100
6, 136260, Note_on_c, 4, 74, 100
6, 136303, Note_on_c, 4, 74, 0
6, 136303, Note_on_c, 4, 62, 0
6, 136320, Note_on_c, 4, 62, 100
6, 136320, Note_on_c, 4, 74, 100
6, 136752, Note_on_c, 4, 74, 0
6, 136752, Note_on_c, 4, 62, 0
6, 136800, Note_on_c, 4, 62, 100
6, 136800, Note_on_c, 4, 74, 100
6, 137016, Note_on_c, 4, 74, 0
6, 137016, Note_on_c, 4, 62, 0
6, 137040, Note_on_c, 4, 74, 100
6, 137040, Note_on_c, 4, 62, 100
6, 137202, Note_on_c, 4, 62, 0
6, 137202, Note_on_c, 4, 74, 0
6, 137220, Note_on_c, 4, 62, 100
6, 137220, Note_on_c, 4, 74, 100
6, 137263, Note_on_c, 4, 74, 0
6, 137263, Note_on_c, 4, 62, 0
6, 137280, Note_on_c, 4, 62, 100
6, 137280, Note_on_c, 4, 74, 100
6, 137712, Note_on_c, 4, 74, 0
6, 137712, Note_on_c, 4, 62, 0
6, 137760, Note_on_c, 4, 62, 100
6, 137760, Note_on_c, 4, 74, 100
6, 137976, Note_on_c, 4, 74, 0
6, 137976, Note_on_c, 4, 62, 0
6, 138000, Note_on_c, 4, 74, 100
6, 138000, Note_on_c, 4, 62, 100
6, 138162, Note_on_c, 4, 62, 0
6, 138162, Note_on_c, 4, 74, 0
6, 138180, Note_on_c, 4, 62, 100
6, 138180, Note_on_c, 4, 74, 100
6, 138223, Note_on_c, 4, 74, 0
6, 138223, Note_on_c, 4, 62, 0
6, 138240, Note_on_c, 4, 62, 100
6, 138240, Note_on_c, 4, 74, 100
6, 138672, Note_on_c, 4, 74, 0
6, 138672, Note_on_c, 4, 62, 0
6, 138720, Note_on_c, 4, 62, 100
6, 138720, Note_on_c, 4, 74, 100
6, 138828, Note_on_c, 4, 74, 0
6, 138828, Note_on_c, 4, 62, 0
6, 138960, Note_on_c, 4, 66, 100
6, 138960, Note_on_c, 4, 78, 100
6, 139068, Note_on_c, 4, 78, 0
6, 139068, Note_on_c, 4, 66, 0
6, 139200, Note_on_c, 4, 69, 100
6, 139200, Note_on_c, 4, 81, 100
6, 139308, Note_on_c, 4, 81, 0
6, 139308, Note_on_c, 4, 69, 0
6, 139440, Note_on_c, 4, 66, 100
6, 139440, Note_on_c, 4, 78, 100
6, 139548, Note_on_c, 4, 78, 0
6, 139548, Note_on_c, 4, 66, 0
6, 139680, Note_on_c, 4, 62, 100
6, 139680, Note_on_c, 4, 74, 100
6, 139788, Note_on_c, 4, 74, 0
6, 139788, Note_on_c, 4, 62, 0
6, 140160, Note_on_c, 4, 62, 100
6, 140160, Note_on_c, 4, 74, 100
6, 140268, Note_on_c, 4, 74, 0
6, 140268, Note_on_c, 4, 62, 0
6, 140640, Note_on_c, 4, 62, 100
6, 140640, Note_on_c, 4, 74, 100
6, 140856, Note_on_c, 4, 74, 0
6, 140856, Note_on_c, 4, 62, 0
6, 140856, End_track
7, 0, Start_track
7, 0, MIDI_port, 0
7, 0, Title_t, "2 Trombe in D"
7, 0, Program_c, 5, 56
7, 0, Control_c, 5, 7, 48
7, 0, Control_c, 5, 10, 90
7, 468, Control_c, 5, 91, 96
7, 5280, Note_on_c, 5, 62, 80
7, 5280, Note_on_c, 5, 74, 80
7, 5280, Control_c, 5, 7, 127
7, 6342, Note_on_c, 5, 74, 0
7, 6342, Note_on_c, 5, 62, 0
7, 6360, Note_on_c, 5, 62, 80
7, 6360, Note_on_c, 5, 74, 80
7, 6480, Note_on_c, 5, 74, 0
7, 6480, Note_on_c, 5, 62, 0
7, 6480, Note_on_c, 5, 62, 80
7, 6480, Note_on_c, 5, 74, 80
7, 6600, Note_on_c, 5, 74, 0
7, 6600, Note_on_c, 5, 62, 0
7, 6600, Note_on_c, 5, 62, 80
7, 6600, Note_on_c, 5, 74, 80
7, 6720, Note_on_c, 5, 74, 0
7, 6720, Note_on_c, 5, 62, 0
7, 6720, Note_on_c, 5, 62, 80
7, 6720, Note_on_c, 5, 74, 80
7, 6822, Note_on_c, 5, 74, 0
7, 6822, Note_on_c, 5, 62, 0
7, 6840, Note_on_c, 5, 62, 80
7, 6840, Note_on_c, 5, 74, 80
7, 6960, Note_on_c, 5, 74, 0
7, 6960, Note_on_c, 5, 62, 0
7, 6960, Note_on_c, 5, 62, 80
7, 6960, Note_on_c, 5, 74, 80
7, 7080, Note_on_c, 5, 74, 0
7, 7080, Note_on_c, 5, 62, 0
7, 7080, Note_on_c, 5, 62, 80
7, 7080, Note_on_c, 5, 74, 80
7, 7200, Note_on_c, 5, 74, 0
7, 7200, Note_on_c, 5, 62, 0
7, 7200, Note_on_c, 5, 74, 80
7, 7200, Note_on_c, 5, 62, 80
7, 7404, Note_on_c, 5, 62, 0
7, 7404, Note_on_c, 5, 74, 0
7, 7440, Note_on_c, 5, 74, 80
7, 7440, Note_on_c, 5, 62, 80
7, 7644, Note_on_c, 5, 62, 0
7, 7644, Note_on_c, 5, 74, 0
7, 7680, Note_on_c, 5, 78, 80
7, 7680, Note_on_c, 5, 74, 80
7, 7884, Note_on_c, 5, 74, 0
7, 7884, Note_on_c, 5, 78, 0
7, 7920, Note_on_c, 5, 69, 80
7, 7920, Note_on_c, 5, 76, 80
7, 8124, Note_on_c, 5, 76, 0
7, 8124, Note_on_c, 5, 69, 0
7, 8150, Control_c, 5, 7, 63
7, 8160, Note_on_c, 5, 74, 80
7, 8160, Note_on_c, 5, 66, 80
7, 8369, Note_on_c, 5, 66, 0
7, 8369, Note_on_c, 5, 74, 0
7, 12960, Control_c, 5, 7, 127
7, 13440, Note_on_c, 5, 62, 80
7, 13440, Note_on_c, 5, 74, 80
7, 14502, Note_on_c, 5, 74, 0
7, 14502, Note_on_c, 5, 62, 0
7, 14520, Note_on_c, 5, 74, 80
7, 14520, Note_on_c, 5, 62, 80
7, 14640, Note_on_c, 5, 62, 0
7, 14640, Note_on_c, 5, 74, 0
7, 14640, Note_on_c, 5, 74, 80
7, 14640, Note_on_c, 5, 62, 80
7, 14760, Note_on_c, 5, 62, 0
7, 14760, Note_on_c, 5, 74, 0
7, 14760, Note_on_c, 5, 74, 80
7, 14760, Note_on_c, 5, 62, 80
7, 14880, Note_on_c, 5, 62, 0
7, 14880, Note_on_c, 5, 74, 0
7, 14880, Note_on_c, 5, 74, 80
7, 14880, Note_on_c, 5, 62, 80
7, 14982, Note_on_c, 5, 62, 0
7, 14982, Note_on_c, 5, 74, 0
7, 15000, Note_on_c, 5, 74, 80
7, 15000, Note_on_c, 5, 62, 80
7, 15120, Note_on_c, 5, 62, 0
7, 15120, Note_on_c, 5, 74, 0
7, 15120, Note_on_c, 5, 74, 80
7, 15120, Note_on_c, 5, 62, 80
7, 15240, Note_on_c, 5, 62, 0
7, 15240, Note_on_c, 5, 74, 0
7, 15240, Note_on_c, 5, 74, 80
7, 15240, Note_on_c, 5, 62, 80
7, 15360, Note_on_c, 5, 62, 0
7, 15360, Note_on_c, 5, 74, 0
7, 15360, Note_on_c, 5, 62, 80
7, 15360, Note_on_c, 5, 74, 80
7, 15600, Note_on_c, 5, 74, 0
7, 15600, Note_on_c, 5, 62, 0
7, 15600, Note_on_c, 5, 62, 80
7, 15600, Note_on_c, 5, 74, 80
7, 15840, Note_on_c, 5, 74, 0
7, 15840, Note_on_c, 5, 62, 0
7, 15840, Note_on_c, 5, 74, 80
7, 15840, Note_on_c, 5, 78, 80
7, 16080, Note_on_c, 5, 78, 0
7, 16080, Note_on_c, 5, 74, 0
7, 16080, Note_on_c, 5, 76, 80
7, 16080, Note_on_c, 5, 69, 80
7, 16320, Note_on_c, 5, 69, 0
7, 16320, Note_on_c, 5, 76, 0
7, 16320, Note_on_c, 5, 62, 80
7, 16320, Note_on_c, 5, 74, 80
7, 16560, Note_on_c, 5, 74, 0
7, 16560, Note_on_c, 5, 62, 0
7, 17280, Note_on_c, 5, 62, 80
7, 17280, Note_on_c, 5, 74, 80
7, 17392, Note_on_c, 5, 74, 0
7, 17392, Note_on_c, 5, 62, 0
7, 18240, Note_on_c, 5, 62, 80
7, 18240, Note_on_c, 5, 74, 80
7, 18352, Note_on_c, 5, 74, 0
7, 18352, Note_on_c, 5, 62, 0
7, 18960, Control_c, 5, 7, 64
7, 18960, Control_c, 5, 7, 64
7, 18960, Control_c, 5, 7, 64
7, 18963, Control_c, 5, 7, 65
7, 18963, Control_c, 5, 7, 65
7, 18963, Control_c, 5, 7, 65
7, 18967, Control_c, 5, 7, 66
7, 18967, Control_c, 5, 7, 66
7, 18967, Control_c, 5, 7, 66
7, 18971, Control_c, 5, 7, 67
7, 18971, Control_c, 5, 7, 67
7, 18971, Control_c, 5, 7, 67
7, 18975, Control_c, 5, 7, 68
7, 18975, Control_c, 5, 7, 68
7, 18975, Control_c, 5, 7, 68
7, 18979, Control_c, 5, 7, 69
7, 18979, Control_c, 5, 7, 69
7, 18979, Control_c, 5, 7, 69
7, 18982, Control_c, 5, 7, 70
7, 18982, Control_c, 5, 7, 70
7, 18982, Control_c, 5, 7, 70
7, 18986, Control_c, 5, 7, 71
7, 18986, Control_c, 5, 7, 71
7, 18986, Control_c, 5, 7, 71
7, 18990, Control_c, 5, 7, 72
7, 18990, Control_c, 5, 7, 72
7, 18990, Control_c, 5, 7, 72
7, 18994, Control_c, 5, 7, 73
7, 18994, Control_c, 5, 7, 73
7, 18994, Control_c, 5, 7, 73
7, 18998, Control_c, 5, 7, 74
7, 18998, Control_c, 5, 7, 74
7, 18998, Control_c, 5, 7, 74
7, 19001, Control_c, 5, 7, 75
7, 19001, Control_c, 5, 7, 75
7, 19001, Control_c, 5, 7, 75
7, 19005, Control_c, 5, 7, 76
7, 19005, Control_c, 5, 7, 76
7, 19005, Control_c, 5, 7, 76
7, 19009, Control_c, 5, 7, 77
7, 19009, Control_c, 5, 7, 77
7, 19009, Control_c, 5, 7, 77
7, 19013, Control_c, 5, 7, 78
7, 19013, Control_c, 5, 7, 78
7, 19013, Control_c, 5, 7, 78
7, 19017, Control_c, 5, 7, 79
7, 19017, Control_c, 5, 7, 79
7, 19017, Control_c, 5, 7, 79
7, 19020, Control_c, 5, 7, 80
7, 19020, Control_c, 5, 7, 80
7, 19020, Control_c, 5, 7, 80
7, 19024, Control_c, 5, 7, 81
7, 19024, Control_c, 5, 7, 81
7, 19024, Control_c, 5, 7, 81
7, 19028, Control_c, 5, 7, 82
7, 19028, Control_c, 5, 7, 82
7, 19028, Control_c, 5, 7, 82
7, 19032, Control_c, 5, 7, 83
7, 19032, Control_c, 5, 7, 83
7, 19032, Control_c, 5, 7, 83
7, 19036, Control_c, 5, 7, 84
7, 19036, Control_c, 5, 7, 84
7, 19036, Control_c, 5, 7, 84
7, 19040, Control_c, 5, 7, 85
7, 19040, Control_c, 5, 7, 85
7, 19040, Control_c, 5, 7, 85
7, 19043, Control_c, 5, 7, 86
7, 19043, Control_c, 5, 7, 86
7, 19043, Control_c, 5, 7, 86
7, 19047, Control_c, 5, 7, 87
7, 19047, Control_c, 5, 7, 87
7, 19047, Control_c, 5, 7, 87
7, 19051, Control_c, 5, 7, 88
7, 19051, Control_c, 5, 7, 88
7, 19051, Control_c, 5, 7, 88
7, 19055, Control_c, 5, 7, 89
7, 19055, Control_c, 5, 7, 89
7, 19055, Control_c, 5, 7, 89
7, 19059, Control_c, 5, 7, 90
7, 19059, Control_c, 5, 7, 90
7, 19059, Control_c, 5, 7, 90
7, 19062, Control_c, 5, 7, 91
7, 19062, Control_c, 5, 7, 91
7, 19062, Control_c, 5, 7, 91
7, 19066, Control_c, 5, 7, 92
7, 19066, Control_c, 5, 7, 92
7, 19066, Control_c, 5, 7, 92
7, 19070, Control_c, 5, 7, 93
7, 19070, Control_c, 5, 7, 93
7, 19070, Control_c, 5, 7, 93
7, 19074, Control_c, 5, 7, 94
7, 19074, Control_c, 5, 7, 94
7, 19074, Control_c, 5, 7, 94
7, 19078, Control_c, 5, 7, 95
7, 19078, Control_c, 5, 7, 95
7, 19078, Control_c, 5, 7, 95
7, 19081, Control_c, 5, 7, 96
7, 19081, Control_c, 5, 7, 96
7, 19081, Control_c, 5, 7, 96
7, 19085, Control_c, 5, 7, 97
7, 19085, Control_c, 5, 7, 97
7, 19085, Control_c, 5, 7, 97
7, 19089, Control_c, 5, 7, 98
7, 19089, Control_c, 5, 7, 98
7, 19089, Control_c, 5, 7, 98
7, 19093, Control_c, 5, 7, 99
7, 19093, Control_c, 5, 7, 99
7, 19093, Control_c, 5, 7, 99
7, 19097, Control_c, 5, 7, 100
7, 19097, Control_c, 5, 7, 100
7, 19097, Control_c, 5, 7, 100
7, 19100, Control_c, 5, 7, 101
7, 19100, Control_c, 5, 7, 101
7, 19100, Control_c, 5, 7, 101
7, 19104, Control_c, 5, 7, 102
7, 19104, Control_c, 5, 7, 102
7, 19104, Control_c, 5, 7, 102
7, 19108, Control_c, 5, 7, 103
7, 19108, Control_c, 5, 7, 103
7, 19108, Control_c, 5, 7, 103
7, 19112, Control_c, 5, 7, 104
7, 19112, Control_c, 5, 7, 104
7, 19112, Control_c, 5, 7, 104
7, 19116, Control_c, 5, 7, 105
7, 19116, Control_c, 5, 7, 105
7, 19116, Control_c, 5, 7, 105
7, 19120, Control_c, 5, 7, 106
7, 19120, Control_c, 5, 7, 106
7, 19120, Control_c, 5, 7, 106
7, 19123, Control_c, 5, 7, 107
7, 19123, Control_c, 5, 7, 107
7, 19123, Control_c, 5, 7, 107
7, 19127, Control_c, 5, 7, 108
7, 19127, Control_c, 5, 7, 108
7, 19127, Control_c, 5, 7, 108
7, 19131, Control_c, 5, 7, 109
7, 19131, Control_c, 5, 7, 109
7, 19131, Control_c, 5, 7, 109
7, 19135, Control_c, 5, 7, 110
7, 19135, Control_c, 5, 7, 110
7, 19135, Control_c, 5, 7, 110
7, 19139, Control_c, 5, 7, 111
7, 19139, Control_c, 5, 7, 111
7, 19139, Control_c, 5, 7, 111
7, 19142, Control_c, 5, 7, 112
7, 19142, Control_c, 5, 7, 112
7, 19142, Control_c, 5, 7, 112
7, 19146, Control_c, 5, 7, 113
7, 19146, Control_c, 5, 7, 113
7, 19146, Control_c, 5, 7, 113
7, 19150, Control_c, 5, 7, 114
7, 19150, Control_c, 5, 7, 114
7, 19150, Control_c, 5, 7, 114
7, 19154, Control_c, 5, 7, 115
7, 19154, Control_c, 5, 7, 115
7, 19154, Control_c, 5, 7, 115
7, 19158, Control_c, 5, 7, 116
7, 19158, Control_c, 5, 7, 116
7, 19158, Control_c, 5, 7, 116
7, 19161, Control_c, 5, 7, 117
7, 19161, Control_c, 5, 7, 117
7, 19161, Control_c, 5, 7, 117
7, 19165, Control_c, 5, 7, 118
7, 19165, Control_c, 5, 7, 118
7, 19165, Control_c, 5, 7, 118
7, 19169, Control_c, 5, 7, 119
7, 19169, Control_c, 5, 7, 119
7, 19169, Control_c, 5, 7, 119
7, 19173, Control_c, 5, 7, 120
7, 19173, Control_c, 5, 7, 120
7, 19173, Control_c, 5, 7, 120
7, 19177, Control_c, 5, 7, 121
7, 19177, Control_c, 5, 7, 121
7, 19177, Control_c, 5, 7, 121
7, 19180, Control_c, 5, 7, 122
7, 19180, Control_c, 5, 7, 122
7, 19180, Control_c, 5, 7, 122
7, 19184, Control_c, 5, 7, 123
7, 19184, Control_c, 5, 7, 123
7, 19184, Control_c, 5, 7, 123
7, 19188, Control_c, 5, 7, 124
7, 19188, Control_c, 5, 7, 124
7, 19188, Control_c, 5, 7, 124
7, 19192, Control_c, 5, 7, 125
7, 19192, Control_c, 5, 7, 125
7, 19192, Control_c, 5, 7, 125
7, 19196, Control_c, 5, 7, 126
7, 19196, Control_c, 5, 7, 126
7, 19196, Control_c, 5, 7, 126
7, 19200, Control_c, 5, 7, 127
7, 19200, Control_c, 5, 7, 127
7, 19200, Control_c, 5, 7, 127
7, 19200, Note_on_c, 5, 62, 80
7, 19200, Note_on_c, 5, 74, 80
7, 19440, Note_on_c, 5, 74, 0
7, 19440, Note_on_c, 5, 62, 0
7, 19440, Note_on_c, 5, 62, 80
7, 19440, Note_on_c, 5, 74, 80
7, 19620, Note_on_c, 5, 74, 0
7, 19620, Note_on_c, 5, 62, 0
7, 19620, Note_on_c, 5, 74, 80
7, 19620, Note_on_c, 5, 62, 80
7, 19680, Note_on_c, 5, 62, 0
7, 19680, Note_on_c, 5, 74, 0
7, 19680, Note_on_c, 5, 62, 80
7, 19680, Note_on_c, 5, 74, 80
7, 19920, Note_on_c, 5, 74, 0
7, 19920, Note_on_c, 5, 62, 0
7, 19920, Note_on_c, 5, 62, 80
7, 19920, Note_on_c, 5, 74, 80
7, 20160, Note_on_c, 5, 74, 0
7, 20160, Note_on_c, 5, 62, 0
7, 21120, Note_on_c, 5, 62, 80
7, 21120, Note_on_c, 5, 74, 80
7, 21312, Note_on_c, 5, 74, 0
7, 21312, Note_on_c, 5, 62, 0
7, 21480, Note_on_c, 5, 69, 80
7, 21480, Note_on_c, 5, 69, 80
7, 21576, Note_on_c, 5, 69, 0
7, 21576, Note_on_c, 5, 69, 0
7, 21600, Note_on_c, 5, 66, 80
7, 21600, Note_on_c, 5, 66, 80
7, 21682, Note_on_c, 5, 66, 0
7, 21682, Note_on_c, 5, 66, 0
7, 21720, Note_on_c, 5, 62, 80
7, 21720, Note_on_c, 5, 62, 80
7, 21803, Note_on_c, 5, 62, 0
7, 21803, Note_on_c, 5, 62, 0
7, 21960, Note_on_c, 5, 69, 80
7, 21960, Note_on_c, 5, 69, 80
7, 22071, Note_on_c, 5, 69, 0
7, 22071, Note_on_c, 5, 69, 0
7, 22080, Note_on_c, 5, 66, 80
7, 22080, Note_on_c, 5, 66, 80
7, 22162, Note_on_c, 5, 66, 0
7, 22162, Note_on_c, 5, 66, 0
7, 22200, Note_on_c, 5, 62, 80
7, 22200, Note_on_c, 5, 62, 80
7, 22283, Note_on_c, 5, 62, 0
7, 22283, Note_on_c, 5, 62, 0
7, 22440, Note_on_c, 5, 76, 80
7, 22440, Note_on_c, 5, 69, 80
7, 22440, Note_on_c, 5, 69, 80
7, 22551, Note_on_c, 5, 69, 0
7, 22551, Note_on_c, 5, 69, 0
7, 22551, Note_on_c, 5, 76, 0
7, 22560, Note_on_c, 5, 74, 80
7, 22560, Note_on_c, 5, 66, 80
7, 22656, Note_on_c, 5, 66, 0
7, 22656, Note_on_c, 5, 74, 0
7, 22680, Note_on_c, 5, 76, 80
7, 22680, Note_on_c, 5, 69, 80
7, 22776, Note_on_c, 5, 69, 0
7, 22776, Note_on_c, 5, 76, 0
7, 22800, Note_on_c, 5, 74, 80
7, 22800, Note_on_c, 5, 66, 80
7, 22896, Note_on_c, 5, 66, 0
7, 22896, Note_on_c, 5, 74, 0
7, 22920, Note_on_c, 5, 76, 80
7, 22920, Note_on_c, 5, 69, 80
7, 23016, Note_on_c, 5, 69, 0
7, 23016, Note_on_c, 5, 76, 0
7, 23040, Note_on_c, 5, 66, 80
7, 23040, Note_on_c, 5, 74, 80
7, 23136, Note_on_c, 5, 74, 0
7, 23136, Note_on_c, 5, 66, 0
7, 23280, Note_on_c, 5, 74, 80
7, 23280, Note_on_c, 5, 74, 80
7, 23328, Note_on_c, 5, 74, 0
7, 23328, Note_on_c, 5, 74, 0
7, 23400, Note_on_c, 5, 69, 80
7, 23400, Note_on_c, 5, 69, 80
7, 23448, Note_on_c, 5, 69, 0
7, 23448, Note_on_c, 5, 69, 0
7, 23520, Note_on_c, 5, 74, 80
7, 23520, Note_on_c, 5, 74, 80
7, 23568, Note_on_c, 5, 74, 0
7, 23568, Note_on_c, 5, 74, 0
7, 23640, Note_on_c, 5, 69, 80
7, 23640, Note_on_c, 5, 69, 80
7, 23688, Note_on_c, 5, 69, 0
7, 23688, Note_on_c, 5, 69, 0
7, 23760, Note_on_c, 5, 66, 80
7, 23760, Note_on_c, 5, 66, 80
7, 23808, Note_on_c, 5, 66, 0
7, 23808, Note_on_c, 5, 66, 0
7, 23880, Note_on_c, 5, 62, 80
7, 23880, Note_on_c, 5, 62, 80
7, 23928, Note_on_c, 5, 62, 0
7, 23928, Note_on_c, 5, 62, 0
7, 24000, Note_on_c, 5, 69, 80
7, 24000, Note_on_c, 5, 69, 80
7, 24192, Note_on_c, 5, 69, 0
7, 24192, Note_on_c, 5, 69, 0
7, 24480, Note_on_c, 5, 69, 80
7, 24672, Note_on_c, 5, 69, 0
7, 24960, Note_on_c, 5, 69, 80
7, 25152, Note_on_c, 5, 69, 0
7, 25440, Note_on_c, 5, 69, 80
7, 25632, Note_on_c, 5, 69, 0
7, 25920, Note_on_c, 5, 69, 80
7, 26016, Note_on_c, 5, 69, 0
7, 26160, Note_on_c, 5, 69, 80
7, 26256, Note_on_c, 5, 69, 0
7, 26400, Note_on_c, 5, 69, 80
7, 26496, Note_on_c, 5, 69, 0
7, 26640, Note_on_c, 5, 69, 80
7, 26736, Note_on_c, 5, 69, 0
7, 26880, Note_on_c, 5, 69, 80
7, 26880, Note_on_c, 5, 69, 80
7, 26992, Note_on_c, 5, 69, 0
7, 26992, Note_on_c, 5, 69, 0
7, 27000, Note_on_c, 5, 69, 80
7, 27000, Note_on_c, 5, 69, 80
7, 27048, Note_on_c, 5, 69, 0
7, 27048, Note_on_c, 5, 69, 0
7, 27060, Note_on_c, 5, 69, 80
7, 27060, Note_on_c, 5, 69, 80
7, 27108, Note_on_c, 5, 69, 0
7, 27108, Note_on_c, 5, 69, 0
7, 27120, Note_on_c, 5, 69, 80
7, 27120, Note_on_c, 5, 69, 80
7, 27232, Note_on_c, 5, 69, 0
7, 27232, Note_on_c, 5, 69, 0
7, 27240, Note_on_c, 5, 69, 80
7, 27240, Note_on_c, 5, 69, 80
7, 27352, Note_on_c, 5, 69, 0
7, 27352, Note_on_c, 5, 69, 0
7, 27360, Note_on_c, 5, 69, 80
7, 27617, Note_on_c, 5, 69, 0
7, 27840, Control_c, 5, 7, 120
7, 27842, Control_c, 5, 7, 119
7, 27844, Control_c, 5, 7, 118
7, 27846, Control_c, 5, 7, 117
7, 27848, Control_c, 5, 7, 116
7, 27850, Control_c, 5, 7, 115
7, 27852, Control_c, 5, 7, 114
7, 27854, Control_c, 5, 7, 113
7, 27857, Control_c, 5, 7, 112
7, 27859, Control_c, 5, 7, 111
7, 27861, Control_c, 5, 7, 110
7, 27863, Control_c, 5, 7, 109
7, 27865, Control_c, 5, 7, 108
7, 27867, Control_c, 5, 7, 107
7, 27869, Control_c, 5, 7, 106
7, 27871, Control_c, 5, 7, 105
7, 27874, Control_c, 5, 7, 104
7, 27876, Control_c, 5, 7, 103
7, 27878, Control_c, 5, 7, 102
7, 27880, Control_c, 5, 7, 101
7, 27882, Control_c, 5, 7, 100
7, 27884, Control_c, 5, 7, 99
7, 27886, Control_c, 5, 7, 98
7, 27888, Control_c, 5, 7, 97
7, 27891, Control_c, 5, 7, 96
7, 27893, Control_c, 5, 7, 95
7, 27895, Control_c, 5, 7, 94
7, 27897, Control_c, 5, 7, 93
7, 27899, Control_c, 5, 7, 92
7, 27901, Control_c, 5, 7, 91
7, 27903, Control_c, 5, 7, 90
7, 27905, Control_c, 5, 7, 89
7, 27908, Control_c, 5, 7, 88
7, 27910, Control_c, 5, 7, 87
7, 27912, Control_c, 5, 7, 86
7, 27914, Control_c, 5, 7, 85
7, 27916, Control_c, 5, 7, 84
7, 27918, Control_c, 5, 7, 83
7, 27920, Control_c, 5, 7, 82
7, 27922, Control_c, 5, 7, 81
7, 27925, Control_c, 5, 7, 80
7, 27927, Control_c, 5, 7, 79
7, 27929, Control_c, 5, 7, 78
7, 27931, Control_c, 5, 7, 77
7, 27933, Control_c, 5, 7, 76
7, 27935, Control_c, 5, 7, 75
7, 27937, Control_c, 5, 7, 74
7, 27939, Control_c, 5, 7, 73
7, 27942, Control_c, 5, 7, 72
7, 27944, Control_c, 5, 7, 71
7, 27946, Control_c, 5, 7, 70
7, 27948, Control_c, 5, 7, 69
7, 27950, Control_c, 5, 7, 68
7, 27952, Control_c, 5, 7, 67
7, 27954, Control_c, 5, 7, 66
7, 27956, Control_c, 5, 7, 65
7, 27959, Control_c, 5, 7, 64
7, 27960, Control_c, 5, 7, 64
7, 29760, Control_c, 5, 7, 96
7, 29760, Control_c, 5, 7, 120
7, 29762, Control_c, 5, 7, 106
7, 29762, Control_c, 5, 7, 119
7, 29764, Control_c, 5, 7, 105
7, 29764, Control_c, 5, 7, 118
7, 29766, Control_c, 5, 7, 104
7, 29766, Control_c, 5, 7, 117
7, 29768, Control_c, 5, 7, 103
7, 29768, Control_c, 5, 7, 116
7, 29770, Control_c, 5, 7, 102
7, 29770, Control_c, 5, 7, 115
7, 29772, Control_c, 5, 7, 101
7, 29772, Control_c, 5, 7, 114
7, 29774, Control_c, 5, 7, 95
7, 29774, Control_c, 5, 7, 100
7, 29774, Control_c, 5, 7, 113
7, 29777, Control_c, 5, 7, 99
7, 29777, Control_c, 5, 7, 112
7, 29779, Control_c, 5, 7, 98
7, 29779, Control_c, 5, 7, 111
7, 29781, Control_c, 5, 7, 97
7, 29781, Control_c, 5, 7, 110
7, 29783, Control_c, 5, 7, 96
7, 29783, Control_c, 5, 7, 109
7, 29785, Control_c, 5, 7, 95
7, 29785, Control_c, 5, 7, 108
7, 29787, Control_c, 5, 7, 94
7, 29787, Control_c, 5, 7, 107
7, 29789, Control_c, 5, 7, 94
7, 29789, Control_c, 5, 7, 93
7, 29789, Control_c, 5, 7, 106
7, 29791, Control_c, 5, 7, 105
7, 29792, Control_c, 5, 7, 92
7, 29794, Control_c, 5, 7, 91
7, 29794, Control_c, 5, 7, 104
7, 29796, Control_c, 5, 7, 90
7, 29796, Control_c, 5, 7, 103
7, 29798, Control_c, 5, 7, 89
7, 29798, Control_c, 5, 7, 102
7, 29800, Control_c, 5, 7, 88
7, 29800, Control_c, 5, 7, 101
7, 29802, Control_c, 5, 7, 87
7, 29802, Control_c, 5, 7, 100
7, 29804, Control_c, 5, 7, 93
7, 29804, Control_c, 5, 7, 86
7, 29804, Control_c, 5, 7, 99
7, 29806, Control_c, 5, 7, 98
7, 29807, Control_c, 5, 7, 85
7, 29808, Control_c, 5, 7, 97
7, 29809, Control_c, 5, 7, 84
7, 29811, Control_c, 5, 7, 83
7, 29811, Control_c, 5, 7, 96
7, 29813, Control_c, 5, 7, 82
7, 29813, Control_c, 5, 7, 95
7, 29815, Control_c, 5, 7, 81
7, 29815, Control_c, 5, 7, 94
7, 29817, Control_c, 5, 7, 80
7, 29817, Control_c, 5, 7, 93
7, 29819, Control_c, 5, 7, 92
7, 29819, Control_c, 5, 7, 79
7, 29819, Control_c, 5, 7, 92
7, 29821, Control_c, 5, 7, 91
7, 29822, Control_c, 5, 7, 78
7, 29823, Control_c, 5, 7, 90
7, 29824, Control_c, 5, 7, 77
7, 29825, Control_c, 5, 7, 89
7, 29826, Control_c, 5, 7, 76
7, 29828, Control_c, 5, 7, 75
7, 29828, Control_c, 5, 7, 88
7, 29830, Control_c, 5, 7, 74
7, 29830, Control_c, 5, 7, 87
7, 29832, Control_c, 5, 7, 73
7, 29832, Control_c, 5, 7, 86
7, 29834, Control_c, 5, 7, 91
7, 29834, Control_c, 5, 7, 72
7, 29834, Control_c, 5, 7, 85
7, 29836, Control_c, 5, 7, 84
7, 29837, Control_c, 5, 7, 71
7, 29838, Control_c, 5, 7, 83
7, 29839, Control_c, 5, 7, 70
7, 29840, Control_c, 5, 7, 82
7, 29841, Control_c, 5, 7, 69
7, 29842, Control_c, 5, 7, 81
7, 29843, Control_c, 5, 7, 68
7, 29845, Control_c, 5, 7, 67
7, 29845, Control_c, 5, 7, 80
7, 29847, Control_c, 5, 7, 66
7, 29847, Control_c, 5, 7, 79
7, 29849, Control_c, 5, 7, 90
7, 29849, Control_c, 5, 7, 65
7, 29849, Control_c, 5, 7, 78
7, 29851, Control_c, 5, 7, 77
7, 29852, Control_c, 5, 7, 64
7, 29853, Control_c, 5, 7, 76
7, 29855, Control_c, 5, 7, 75
7, 29857, Control_c, 5, 7, 74
7, 29859, Control_c, 5, 7, 73
7, 29862, Control_c, 5, 7, 72
7, 29864, Control_c, 5, 7, 89
7, 29864, Control_c, 5, 7, 71
7, 29866, Control_c, 5, 7, 70
7, 29868, Control_c, 5, 7, 69
7, 29870, Control_c, 5, 7, 68
7, 29872, Control_c, 5, 7, 67
7, 29874, Control_c, 5, 7, 66
7, 29876, Control_c, 5, 7, 65
7, 29879, Control_c, 5, 7, 88
7, 29879, Control_c, 5, 7, 64
7, 29880, Control_c, 5, 7, 64
7, 29894, Control_c, 5, 7, 87
7, 29909, Control_c, 5, 7, 86
7, 29924, Control_c, 5, 7, 85
7, 29939, Control_c, 5, 7, 84
7, 29954, Control_c, 5, 7, 83
7, 29969, Control_c, 5, 7, 82
7, 29984, Control_c, 5, 7, 81
7, 29999, Control_c, 5, 7, 80
7, 30014, Control_c, 5, 7, 79
7, 30029, Control_c, 5, 7, 78
7, 30044, Control_c, 5, 7, 77
7, 30059, Control_c, 5, 7, 76
7, 30074, Control_c, 5, 7, 75
7, 30089, Control_c, 5, 7, 74
7, 30104, Control_c, 5, 7, 73
7, 30119, Control_c, 5, 7, 72
7, 30134, Control_c, 5, 7, 71
7, 30149, Control_c, 5, 7, 70
7, 30164, Control_c, 5, 7, 69
7, 30179, Control_c, 5, 7, 68
7, 30194, Control_c, 5, 7, 67
7, 30209, Control_c, 5, 7, 66
7, 30213, Control_c, 5, 7, 115
7, 30215, Control_c, 5, 7, 114
7, 30218, Control_c, 5, 7, 113
7, 30220, Control_c, 5, 7, 112
7, 30222, Control_c, 5, 7, 111
7, 30224, Control_c, 5, 7, 65
7, 30224, Control_c, 5, 7, 110
7, 30226, Control_c, 5, 7, 109
7, 30228, Control_c, 5, 7, 108
7, 30230, Control_c, 5, 7, 107
7, 30233, Control_c, 5, 7, 106
7, 30235, Control_c, 5, 7, 105
7, 30237, Control_c, 5, 7, 104
7, 30239, Control_c, 5, 7, 64
7, 30239, Control_c, 5, 7, 103
7, 30240, Control_c, 5, 7, 96
7, 30240, Control_c, 5, 7, 120
7, 30241, Control_c, 5, 7, 102
7, 30242, Control_c, 5, 7, 119
7, 30243, Control_c, 5, 7, 101
7, 30244, Control_c, 5, 7, 118
7, 30245, Control_c, 5, 7, 100
7, 30246, Control_c, 5, 7, 117
7, 30248, Control_c, 5, 7, 99
7, 30248, Control_c, 5, 7, 116
7, 30250, Control_c, 5, 7, 98
7, 30250, Control_c, 5, 7, 115
7, 30252, Control_c, 5, 7, 97
7, 30252, Control_c, 5, 7, 114
7, 30254, Control_c, 5, 7, 95
7, 30254, Control_c, 5, 7, 96
7, 30254, Control_c, 5, 7, 113
7, 30256, Control_c, 5, 7, 95
7, 30257, Control_c, 5, 7, 112
7, 30258, Control_c, 5, 7, 94
7, 30259, Control_c, 5, 7, 111
7, 30260, Control_c, 5, 7, 93
7, 30261, Control_c, 5, 7, 110
7, 30263, Control_c, 5, 7, 92
7, 30263, Control_c, 5, 7, 109
7, 30265, Control_c, 5, 7, 91
7, 30265, Control_c, 5, 7, 108
7, 30267, Control_c, 5, 7, 90
7, 30267, Control_c, 5, 7, 107
7, 30269, Control_c, 5, 7, 94
7, 30269, Control_c, 5, 7, 89
7, 30269, Control_c, 5, 7, 106
7, 30271, Control_c, 5, 7, 88
7, 30271, Control_c, 5, 7, 105
7, 30273, Control_c, 5, 7, 87
7, 30274, Control_c, 5, 7, 104
7, 30275, Control_c, 5, 7, 86
7, 30276, Control_c, 5, 7, 103
7, 30278, Control_c, 5, 7, 85
7, 30278, Control_c, 5, 7, 102
7, 30280, Control_c, 5, 7, 84
7, 30280, Control_c, 5, 7, 101
7, 30282, Control_c, 5, 7, 83
7, 30282, Control_c, 5, 7, 100
7, 30284, Control_c, 5, 7, 93
7, 30284, Control_c, 5, 7, 82
7, 30284, Control_c, 5, 7, 99
7, 30286, Control_c, 5, 7, 81
7, 30286, Control_c, 5, 7, 98
7, 30288, Control_c, 5, 7, 80
7, 30288, Control_c, 5, 7, 97
7, 30290, Control_c, 5, 7, 79
7, 30291, Control_c, 5, 7, 96
7, 30293, Control_c, 5, 7, 78
7, 30293, Control_c, 5, 7, 95
7, 30295, Control_c, 5, 7, 77
7, 30295, Control_c, 5, 7, 94
7, 30297, Control_c, 5, 7, 76
7, 30297, Control_c, 5, 7, 93
7, 30299, Control_c, 5, 7, 92
7, 30299, Control_c, 5, 7, 75
7, 30299, Control_c, 5, 7, 92
7, 30301, Control_c, 5, 7, 74
7, 30301, Control_c, 5, 7, 91
7, 30303, Control_c, 5, 7, 73
7, 30303, Control_c, 5, 7, 90
7, 30305, Control_c, 5, 7, 72
7, 30305, Control_c, 5, 7, 89
7, 30308, Control_c, 5, 7, 71
7, 30308, Control_c, 5, 7, 88
7, 30310, Control_c, 5, 7, 70
7, 30310, Control_c, 5, 7, 87
7, 30312, Control_c, 5, 7, 69
7, 30312, Control_c, 5, 7, 86
7, 30314, Control_c, 5, 7, 91
7, 30314, Control_c, 5, 7, 68
7, 30314, Control_c, 5, 7, 85
7, 30316, Control_c, 5, 7, 67
7, 30316, Control_c, 5, 7, 84
7, 30318, Control_c, 5, 7, 66
7, 30318, Control_c, 5, 7, 83
7, 30320, Control_c, 5, 7, 65
7, 30320, Control_c, 5, 7, 82
7, 30322, Control_c, 5, 7, 81
7, 30323, Control_c, 5, 7, 64
7, 30325, Control_c, 5, 7, 80
7, 30327, Control_c, 5, 7, 79
7, 30329, Control_c, 5, 7, 90
7, 30329, Control_c, 5, 7, 78
7, 30331, Control_c, 5, 7, 77
7, 30333, Control_c, 5, 7, 76
7, 30335, Control_c, 5, 7, 75
7, 30337, Control_c, 5, 7, 74
7, 30339, Control_c, 5, 7, 73
7, 30342, Control_c, 5, 7, 72
7, 30344, Control_c, 5, 7, 89
7, 30344, Control_c, 5, 7, 71
7, 30346, Control_c, 5, 7, 70
7, 30348, Control_c, 5, 7, 69
7, 30350, Control_c, 5, 7, 68
7, 30352, Control_c, 5, 7, 67
7, 30354, Control_c, 5, 7, 66
7, 30356, Control_c, 5, 7, 65
7, 30359, Control_c, 5, 7, 88
7, 30359, Control_c, 5, 7, 64
7, 30360, Control_c, 5, 7, 64
7, 30374, Control_c, 5, 7, 87
7, 30389, Control_c, 5, 7, 86
7, 30404, Control_c, 5, 7, 85
7, 30419, Control_c, 5, 7, 84
7, 30434, Control_c, 5, 7, 83
7, 30449, Control_c, 5, 7, 82
7, 30464, Control_c, 5, 7, 81
7, 30479, Control_c, 5, 7, 80
7, 30494, Control_c, 5, 7, 79
7, 30509, Control_c, 5, 7, 78
7, 30524, Control_c, 5, 7, 77
7, 30539, Control_c, 5, 7, 76
7, 30554, Control_c, 5, 7, 75
7, 30569, Control_c, 5, 7, 74
7, 30584, Control_c, 5, 7, 73
7, 30599, Control_c, 5, 7, 72
7, 30614, Control_c, 5, 7, 71
7, 30629, Control_c, 5, 7, 70
7, 30644, Control_c, 5, 7, 69
7, 30659, Control_c, 5, 7, 68
7, 30674, Control_c, 5, 7, 67
7, 30689, Control_c, 5, 7, 66
7, 30704, Control_c, 5, 7, 65
7, 30719, Control_c, 5, 7, 64
7, 31680, Control_c, 5, 7, 120
7, 31682, Control_c, 5, 7, 119
7, 31684, Control_c, 5, 7, 118
7, 31686, Control_c, 5, 7, 117
7, 31688, Control_c, 5, 7, 116
7, 31690, Control_c, 5, 7, 115
7, 31692, Control_c, 5, 7, 114
7, 31694, Control_c, 5, 7, 113
7, 31697, Control_c, 5, 7, 112
7, 31699, Control_c, 5, 7, 111
7, 31701, Control_c, 5, 7, 110
7, 31703, Control_c, 5, 7, 109
7, 31705, Control_c, 5, 7, 108
7, 31707, Control_c, 5, 7, 107
7, 31709, Control_c, 5, 7, 106
7, 31711, Control_c, 5, 7, 105
7, 31714, Control_c, 5, 7, 104
7, 31716, Control_c, 5, 7, 103
7, 31718, Control_c, 5, 7, 102
7, 31720, Control_c, 5, 7, 101
7, 31722, Control_c, 5, 7, 100
7, 31724, Control_c, 5, 7, 99
7, 31726, Control_c, 5, 7, 98
7, 31728, Control_c, 5, 7, 97
7, 31731, Control_c, 5, 7, 96
7, 31733, Control_c, 5, 7, 95
7, 31735, Control_c, 5, 7, 94
7, 31737, Control_c, 5, 7, 93
7, 31739, Control_c, 5, 7, 92
7, 31741, Control_c, 5, 7, 91
7, 31743, Control_c, 5, 7, 90
7, 31745, Control_c, 5, 7, 89
7, 31748, Control_c, 5, 7, 88
7, 31750, Control_c, 5, 7, 87
7, 31752, Control_c, 5, 7, 86
7, 31754, Control_c, 5, 7, 85
7, 31756, Control_c, 5, 7, 84
7, 31758, Control_c, 5, 7, 83
7, 31760, Control_c, 5, 7, 82
7, 31762, Control_c, 5, 7, 81
7, 31765, Control_c, 5, 7, 80
7, 31767, Control_c, 5, 7, 79
7, 31769, Control_c, 5, 7, 78
7, 31771, Control_c, 5, 7, 77
7, 31773, Control_c, 5, 7, 76
7, 31775, Control_c, 5, 7, 75
7, 31777, Control_c, 5, 7, 74
7, 31779, Control_c, 5, 7, 73
7, 31782, Control_c, 5, 7, 72
7, 31784, Control_c, 5, 7, 71
7, 31786, Control_c, 5, 7, 70
7, 31788, Control_c, 5, 7, 69
7, 31790, Control_c, 5, 7, 68
7, 31792, Control_c, 5, 7, 67
7, 31794, Control_c, 5, 7, 66
7, 31796, Control_c, 5, 7, 65
7, 31799, Control_c, 5, 7, 64
7, 31800, Control_c, 5, 7, 64
7, 33600, Control_c, 5, 7, 96
7, 33600, Control_c, 5, 7, 120
7, 33602, Control_c, 5, 7, 106
7, 33602, Control_c, 5, 7, 119
7, 33604, Control_c, 5, 7, 105
7, 33604, Control_c, 5, 7, 118
7, 33606, Control_c, 5, 7, 104
7, 33606, Control_c, 5, 7, 117
7, 33608, Control_c, 5, 7, 103
7, 33608, Control_c, 5, 7, 116
7, 33610, Control_c, 5, 7, 102
7, 33610, Control_c, 5, 7, 115
7, 33612, Control_c, 5, 7, 101
7, 33612, Control_c, 5, 7, 114
7, 33614, Control_c, 5, 7, 95
7, 33614, Control_c, 5, 7, 100
7, 33614, Control_c, 5, 7, 113
7, 33617, Control_c, 5, 7, 99
7, 33617, Control_c, 5, 7, 112
7, 33619, Control_c, 5, 7, 98
7, 33619, Control_c, 5, 7, 111
7, 33621, Control_c, 5, 7, 97
7, 33621, Control_c, 5, 7, 110
7, 33623, Control_c, 5, 7, 96
7, 33623, Control_c, 5, 7, 109
7, 33625, Control_c, 5, 7, 95
7, 33625, Control_c, 5, 7, 108
7, 33627, Control_c, 5, 7, 94
7, 33627, Control_c, 5, 7, 107
7, 33629, Control_c, 5, 7, 94
7, 33629, Control_c, 5, 7, 93
7, 33629, Control_c, 5, 7, 106
7, 33631, Control_c, 5, 7, 105
7, 33632, Control_c, 5, 7, 92
7, 33634, Control_c, 5, 7, 91
7, 33634, Control_c, 5, 7, 104
7, 33636, Control_c, 5, 7, 90
7, 33636, Control_c, 5, 7, 103
7, 33638, Control_c, 5, 7, 89
7, 33638, Control_c, 5, 7, 102
7, 33640, Control_c, 5, 7, 88
7, 33640, Control_c, 5, 7, 101
7, 33642, Control_c, 5, 7, 87
7, 33642, Control_c, 5, 7, 100
7, 33644, Control_c, 5, 7, 93
7, 33644, Control_c, 5, 7, 86
7, 33644, Control_c, 5, 7, 99
7, 33646, Control_c, 5, 7, 98
7, 33647, Control_c, 5, 7, 85
7, 33648, Control_c, 5, 7, 97
7, 33649, Control_c, 5, 7, 84
7, 33651, Control_c, 5, 7, 83
7, 33651, Control_c, 5, 7, 96
7, 33653, Control_c, 5, 7, 82
7, 33653, Control_c, 5, 7, 95
7, 33655, Control_c, 5, 7, 81
7, 33655, Control_c, 5, 7, 94
7, 33657, Control_c, 5, 7, 80
7, 33657, Control_c, 5, 7, 93
7, 33659, Control_c, 5, 7, 92
7, 33659, Control_c, 5, 7, 79
7, 33659, Control_c, 5, 7, 92
7, 33661, Control_c, 5, 7, 91
7, 33662, Control_c, 5, 7, 78
7, 33663, Control_c, 5, 7, 90
7, 33664, Control_c, 5, 7, 77
7, 33665, Control_c, 5, 7, 89
7, 33666, Control_c, 5, 7, 76
7, 33668, Control_c, 5, 7, 75
7, 33668, Control_c, 5, 7, 88
7, 33670, Control_c, 5, 7, 74
7, 33670, Control_c, 5, 7, 87
7, 33672, Control_c, 5, 7, 73
7, 33672, Control_c, 5, 7, 86
7, 33674, Control_c, 5, 7, 91
7, 33674, Control_c, 5, 7, 72
7, 33674, Control_c, 5, 7, 85
7, 33676, Control_c, 5, 7, 84
7, 33677, Control_c, 5, 7, 71
7, 33678, Control_c, 5, 7, 83
7, 33679, Control_c, 5, 7, 70
7, 33680, Control_c, 5, 7, 82
7, 33681, Control_c, 5, 7, 69
7, 33682, Control_c, 5, 7, 81
7, 33683, Control_c, 5, 7, 68
7, 33685, Control_c, 5, 7, 67
7, 33685, Control_c, 5, 7, 80
7, 33687, Control_c, 5, 7, 66
7, 33687, Control_c, 5, 7, 79
7, 33689, Control_c, 5, 7, 90
7, 33689, Control_c, 5, 7, 65
7, 33689, Control_c, 5, 7, 78
7, 33691, Control_c, 5, 7, 77
7, 33692, Control_c, 5, 7, 64
7, 33693, Control_c, 5, 7, 76
7, 33695, Control_c, 5, 7, 75
7, 33697, Control_c, 5, 7, 74
7, 33699, Control_c, 5, 7, 73
7, 33702, Control_c, 5, 7, 72
7, 33704, Control_c, 5, 7, 89
7, 33704, Control_c, 5, 7, 71
7, 33706, Control_c, 5, 7, 70
7, 33708, Control_c, 5, 7, 69
7, 33710, Control_c, 5, 7, 68
7, 33712, Control_c, 5, 7, 67
7, 33714, Control_c, 5, 7, 66
7, 33716, Control_c, 5, 7, 65
7, 33719, Control_c, 5, 7, 88
7, 33719, Control_c, 5, 7, 64
7, 33720, Control_c, 5, 7, 64
7, 33734, Control_c, 5, 7, 87
7, 33749, Control_c, 5, 7, 86
7, 33764, Control_c, 5, 7, 85
7, 33779, Control_c, 5, 7, 84
7, 33794, Control_c, 5, 7, 83
7, 33809, Control_c, 5, 7, 82
7, 33824, Control_c, 5, 7, 81
7, 33839, Control_c, 5, 7, 80
7, 33854, Control_c, 5, 7, 79
7, 33869, Control_c, 5, 7, 78
7, 33884, Control_c, 5, 7, 77
7, 33899, Control_c, 5, 7, 76
7, 33914, Control_c, 5, 7, 75
7, 33929, Control_c, 5, 7, 74
7, 33944, Control_c, 5, 7, 73
7, 33959, Control_c, 5, 7, 72
7, 33974, Control_c, 5, 7, 71
7, 33989, Control_c, 5, 7, 70
7, 34004, Control_c, 5, 7, 69
7, 34019, Control_c, 5, 7, 68
7, 34034, Control_c, 5, 7, 67
7, 34049, Control_c, 5, 7, 66
7, 34053, Control_c, 5, 7, 115
7, 34055, Control_c, 5, 7, 114
7, 34058, Control_c, 5, 7, 113
7, 34060, Control_c, 5, 7, 112
7, 34062, Control_c, 5, 7, 111
7, 34064, Control_c, 5, 7, 65
7, 34064, Control_c, 5, 7, 110
7, 34066, Control_c, 5, 7, 109
7, 34068, Control_c, 5, 7, 108
7, 34070, Control_c, 5, 7, 107
7, 34073, Control_c, 5, 7, 106
7, 34075, Control_c, 5, 7, 105
7, 34077, Control_c, 5, 7, 104
7, 34079, Control_c, 5, 7, 64
7, 34079, Control_c, 5, 7, 103
7, 34080, Control_c, 5, 7, 96
7, 34080, Control_c, 5, 7, 120
7, 34081, Control_c, 5, 7, 102
7, 34082, Control_c, 5, 7, 119
7, 34083, Control_c, 5, 7, 101
7, 34084, Control_c, 5, 7, 118
7, 34085, Control_c, 5, 7, 100
7, 34086, Control_c, 5, 7, 117
7, 34088, Control_c, 5, 7, 99
7, 34088, Control_c, 5, 7, 116
7, 34090, Control_c, 5, 7, 98
7, 34090, Control_c, 5, 7, 115
7, 34092, Control_c, 5, 7, 97
7, 34092, Control_c, 5, 7, 114
7, 34094, Control_c, 5, 7, 95
7, 34094, Control_c, 5, 7, 96
7, 34094, Control_c, 5, 7, 113
7, 34096, Control_c, 5, 7, 95
7, 34097, Control_c, 5, 7, 112
7, 34098, Control_c, 5, 7, 94
7, 34099, Control_c, 5, 7, 111
7, 34100, Control_c, 5, 7, 93
7, 34101, Control_c, 5, 7, 110
7, 34103, Control_c, 5, 7, 92
7, 34103, Control_c, 5, 7, 109
7, 34105, Control_c, 5, 7, 91
7, 34105, Control_c, 5, 7, 108
7, 34107, Control_c, 5, 7, 90
7, 34107, Control_c, 5, 7, 107
7, 34109, Control_c, 5, 7, 94
7, 34109, Control_c, 5, 7, 89
7, 34109, Control_c, 5, 7, 106
7, 34111, Control_c, 5, 7, 88
7, 34111, Control_c, 5, 7, 105
7, 34113, Control_c, 5, 7, 87
7, 34114, Control_c, 5, 7, 104
7, 34115, Control_c, 5, 7, 86
7, 34116, Control_c, 5, 7, 103
7, 34118, Control_c, 5, 7, 85
7, 34118, Control_c, 5, 7, 102
7, 34120, Control_c, 5, 7, 84
7, 34120, Control_c, 5, 7, 101
7, 34122, Control_c, 5, 7, 83
7, 34122, Control_c, 5, 7, 100
7, 34124, Control_c, 5, 7, 93
7, 34124, Control_c, 5, 7, 82
7, 34124, Control_c, 5, 7, 99
7, 34126, Control_c, 5, 7, 81
7, 34126, Control_c, 5, 7, 98
7, 34128, Control_c, 5, 7, 80
7, 34128, Control_c, 5, 7, 97
7, 34130, Control_c, 5, 7, 79
7, 34131, Control_c, 5, 7, 96
7, 34133, Control_c, 5, 7, 78
7, 34133, Control_c, 5, 7, 95
7, 34135, Control_c, 5, 7, 77
7, 34135, Control_c, 5, 7, 94
7, 34137, Control_c, 5, 7, 76
7, 34137, Control_c, 5, 7, 93
7, 34139, Control_c, 5, 7, 92
7, 34139, Control_c, 5, 7, 75
7, 34139, Control_c, 5, 7, 92
7, 34141, Control_c, 5, 7, 74
7, 34141, Control_c, 5, 7, 91
7, 34143, Control_c, 5, 7, 73
7, 34143, Control_c, 5, 7, 90
7, 34145, Control_c, 5, 7, 72
7, 34145, Control_c, 5, 7, 89
7, 34148, Control_c, 5, 7, 71
7, 34148, Control_c, 5, 7, 88
7, 34150, Control_c, 5, 7, 70
7, 34150, Control_c, 5, 7, 87
7, 34152, Control_c, 5, 7, 69
7, 34152, Control_c, 5, 7, 86
7, 34154, Control_c, 5, 7, 91
7, 34154, Control_c, 5, 7, 68
7, 34154, Control_c, 5, 7, 85
7, 34156, Control_c, 5, 7, 67
7, 34156, Control_c, 5, 7, 84
7, 34158, Control_c, 5, 7, 66
7, 34158, Control_c, 5, 7, 83
7, 34160, Control_c, 5, 7, 65
7, 34160, Control_c, 5, 7, 82
7, 34162, Control_c, 5, 7, 81
7, 34163, Control_c, 5, 7, 64
7, 34165, Control_c, 5, 7, 80
7, 34167, Control_c, 5, 7, 79
7, 34169, Control_c, 5, 7, 90
7, 34169, Control_c, 5, 7, 78
7, 34171, Control_c, 5, 7, 77
7, 34173, Control_c, 5, 7, 76
7, 34175, Control_c, 5, 7, 75
7, 34177, Control_c, 5, 7, 74
7, 34179, Control_c, 5, 7, 73
7, 34182, Control_c, 5, 7, 72
7, 34184, Control_c, 5, 7, 89
7, 34184, Control_c, 5, 7, 71
7, 34186, Control_c, 5, 7, 70
7, 34188, Control_c, 5, 7, 69
7, 34190, Control_c, 5, 7, 68
7, 34192, Control_c, 5, 7, 67
7, 34194, Control_c, 5, 7, 66
7, 34196, Control_c, 5, 7, 65
7, 34199, Control_c, 5, 7, 88
7, 34199, Control_c, 5, 7, 64
7, 34200, Control_c, 5, 7, 64
7, 34214, Control_c, 5, 7, 87
7, 34229, Control_c, 5, 7, 86
7, 34244, Control_c, 5, 7, 85
7, 34259, Control_c, 5, 7, 84
7, 34274, Control_c, 5, 7, 83
7, 34289, Control_c, 5, 7, 82
7, 34304, Control_c, 5, 7, 81
7, 34319, Control_c, 5, 7, 80
7, 34334, Control_c, 5, 7, 79
7, 34349, Control_c, 5, 7, 78
7, 34364, Control_c, 5, 7, 77
7, 34379, Control_c, 5, 7, 76
7, 34394, Control_c, 5, 7, 75
7, 34409, Control_c, 5, 7, 74
7, 34424, Control_c, 5, 7, 73
7, 34439, Control_c, 5, 7, 72
7, 34454, Control_c, 5, 7, 71
7, 34469, Control_c, 5, 7, 70
7, 34484, Control_c, 5, 7, 69
7, 34499, Control_c, 5, 7, 68
7, 34514, Control_c, 5, 7, 67
7, 34529, Control_c, 5, 7, 66
7, 34544, Control_c, 5, 7, 65
7, 34559, Control_c, 5, 7, 64
7, 35690, Control_c, 5, 7, 127
7, 35760, Note_on_c, 5, 57, 80
7, 35760, Note_on_c, 5, 69, 80
7, 35856, Note_on_c, 5, 69, 0
7, 35856, Note_on_c, 5, 57, 0
7, 36720, Note_on_c, 5, 76, 80
7, 36720, Note_on_c, 5, 76, 80
7, 36816, Note_on_c, 5, 76, 0
7, 36816, Note_on_c, 5, 76, 0
7, 37680, Note_on_c, 5, 74, 80
7, 37680, Note_on_c, 5, 74, 80
7, 37776, Note_on_c, 5, 74, 0
7, 37776, Note_on_c, 5, 74, 0
7, 38400, Note_on_c, 5, 76, 80
7, 38784, Note_on_c, 5, 76, 0
7, 38880, Note_on_c, 5, 76, 80
7, 39264, Note_on_c, 5, 76, 0
7, 39360, Note_on_c, 5, 76, 80
7, 39744, Note_on_c, 5, 76, 0
7, 39840, Note_on_c, 5, 76, 80
7, 40224, Note_on_c, 5, 76, 0
7, 40320, Note_on_c, 5, 69, 80
7, 40512, Note_on_c, 5, 69, 0
7, 41280, Note_on_c, 5, 69, 80
7, 41472, Note_on_c, 5, 69, 0
7, 42240, Note_on_c, 5, 69, 80
7, 42432, Note_on_c, 5, 69, 0
7, 43200, Note_on_c, 5, 69, 80
7, 43200, Note_on_c, 5, 57, 80
7, 43650, Note_on_c, 5, 57, 0
7, 43650, Note_on_c, 5, 69, 0
7, 43920, Note_on_c, 5, 76, 80
7, 43920, Note_on_c, 5, 76, 80
7, 44112, Note_on_c, 5, 76, 0
7, 44112, Note_on_c, 5, 76, 0
7, 44160, Note_on_c, 5, 76, 80
7, 44160, Note_on_c, 5, 69, 80
7, 44352, Note_on_c, 5, 69, 0
7, 44352, Note_on_c, 5, 76, 0
7, 44400, Note_on_c, 5, 78, 80
7, 44400, Note_on_c, 5, 74, 80
7, 44592, Note_on_c, 5, 74, 0
7, 44592, Note_on_c, 5, 78, 0
7, 44640, Note_on_c, 5, 76, 80
7, 44640, Note_on_c, 5, 76, 80
7, 45024, Note_on_c, 5, 76, 0
7, 45024, Note_on_c, 5, 76, 0
7, 45120, Note_on_c, 5, 76, 80
7, 45120, Note_on_c, 5, 69, 80
7, 45216, Note_on_c, 5, 69, 0
7, 45216, Note_on_c, 5, 76, 0
7, 46200, Control_c, 5, 7, 96
7, 46200, Control_c, 5, 7, 96
7, 46207, Control_c, 5, 7, 95
7, 46207, Control_c, 5, 7, 95
7, 46214, Control_c, 5, 7, 94
7, 46214, Control_c, 5, 7, 94
7, 46222, Control_c, 5, 7, 93
7, 46222, Control_c, 5, 7, 93
7, 46229, Control_c, 5, 7, 92
7, 46229, Control_c, 5, 7, 92
7, 46237, Control_c, 5, 7, 91
7, 46237, Control_c, 5, 7, 91
7, 46244, Control_c, 5, 7, 90
7, 46244, Control_c, 5, 7, 90
7, 46252, Control_c, 5, 7, 89
7, 46252, Control_c, 5, 7, 89
7, 46259, Control_c, 5, 7, 88
7, 46259, Control_c, 5, 7, 88
7, 46267, Control_c, 5, 7, 87
7, 46267, Control_c, 5, 7, 87
7, 46274, Control_c, 5, 7, 86
7, 46274, Control_c, 5, 7, 86
7, 46282, Control_c, 5, 7, 85
7, 46282, Control_c, 5, 7, 85
7, 46289, Control_c, 5, 7, 84
7, 46289, Control_c, 5, 7, 84
7, 46297, Control_c, 5, 7, 83
7, 46297, Control_c, 5, 7, 83
7, 46304, Control_c, 5, 7, 82
7, 46304, Control_c, 5, 7, 82
7, 46312, Control_c, 5, 7, 81
7, 46312, Control_c, 5, 7, 81
7, 46319, Control_c, 5, 7, 80
7, 46319, Control_c, 5, 7, 80
7, 46326, Control_c, 5, 7, 79
7, 46326, Control_c, 5, 7, 79
7, 46334, Control_c, 5, 7, 78
7, 46334, Control_c, 5, 7, 78
7, 46341, Control_c, 5, 7, 77
7, 46341, Control_c, 5, 7, 77
7, 46349, Control_c, 5, 7, 76
7, 46349, Control_c, 5, 7, 76
7, 46356, Control_c, 5, 7, 75
7, 46356, Control_c, 5, 7, 75
7, 46364, Control_c, 5, 7, 74
7, 46364, Control_c, 5, 7, 74
7, 46371, Control_c, 5, 7, 73
7, 46371, Control_c, 5, 7, 73
7, 46379, Control_c, 5, 7, 72
7, 46379, Control_c, 5, 7, 72
7, 46386, Control_c, 5, 7, 71
7, 46386, Control_c, 5, 7, 71
7, 46394, Control_c, 5, 7, 70
7, 46394, Control_c, 5, 7, 70
7, 46401, Control_c, 5, 7, 69
7, 46401, Control_c, 5, 7, 69
7, 46409, Control_c, 5, 7, 68
7, 46409, Control_c, 5, 7, 68
7, 46416, Control_c, 5, 7, 67
7, 46416, Control_c, 5, 7, 67
7, 46424, Control_c, 5, 7, 66
7, 46424, Control_c, 5, 7, 66
7, 46431, Control_c, 5, 7, 65
7, 46431, Control_c, 5, 7, 65
7, 46439, Control_c, 5, 7, 64
7, 46439, Control_c, 5, 7, 64
7, 47160, Control_c, 5, 7, 96
7, 47160, Control_c, 5, 7, 96
7, 47167, Control_c, 5, 7, 95
7, 47167, Control_c, 5, 7, 95
7, 47175, Control_c, 5, 7, 94
7, 47175, Control_c, 5, 7, 94
7, 47182, Control_c, 5, 7, 93
7, 47182, Control_c, 5, 7, 93
7, 47190, Control_c, 5, 7, 92
7, 47190, Control_c, 5, 7, 92
7, 47197, Control_c, 5, 7, 91
7, 47197, Control_c, 5, 7, 91
7, 47205, Control_c, 5, 7, 90
7, 47205, Control_c, 5, 7, 90
7, 47212, Control_c, 5, 7, 89
7, 47212, Control_c, 5, 7, 89
7, 47220, Control_c, 5, 7, 88
7, 47220, Control_c, 5, 7, 88
7, 47227, Control_c, 5, 7, 87
7, 47227, Control_c, 5, 7, 87
7, 47235, Control_c, 5, 7, 86
7, 47235, Control_c, 5, 7, 86
7, 47242, Control_c, 5, 7, 85
7, 47242, Control_c, 5, 7, 85
7, 47250, Control_c, 5, 7, 84
7, 47250, Control_c, 5, 7, 84
7, 47257, Control_c, 5, 7, 83
7, 47257, Control_c, 5, 7, 83
7, 47265, Control_c, 5, 7, 82
7, 47265, Control_c, 5, 7, 82
7, 47272, Control_c, 5, 7, 81
7, 47272, Control_c, 5, 7, 81
7, 47280, Control_c, 5, 7, 80
7, 47280, Control_c, 5, 7, 80
7, 47287, Control_c, 5, 7, 79
7, 47287, Control_c, 5, 7, 79
7, 47295, Control_c, 5, 7, 78
7, 47295, Control_c, 5, 7, 78
7, 47302, Control_c, 5, 7, 77
7, 47302, Control_c, 5, 7, 77
7, 47310, Control_c, 5, 7, 76
7, 47310, Control_c, 5, 7, 76
7, 47317, Control_c, 5, 7, 75
7, 47317, Control_c, 5, 7, 75
7, 47325, Control_c, 5, 7, 74
7, 47325, Control_c, 5, 7, 74
7, 47332, Control_c, 5, 7, 73
7, 47332, Control_c, 5, 7, 73
7, 47340, Control_c, 5, 7, 72
7, 47340, Control_c, 5, 7, 72
7, 47347, Control_c, 5, 7, 71
7, 47347, Control_c, 5, 7, 71
7, 47355, Control_c, 5, 7, 70
7, 47355, Control_c, 5, 7, 70
7, 47362, Control_c, 5, 7, 69
7, 47362, Control_c, 5, 7, 69
7, 47370, Control_c, 5, 7, 68
7, 47370, Control_c, 5, 7, 68
7, 47377, Control_c, 5, 7, 67
7, 47377, Control_c, 5, 7, 67
7, 47385, Control_c, 5, 7, 66
7, 47385, Control_c, 5, 7, 66
7, 47392, Control_c, 5, 7, 65
7, 47392, Control_c, 5, 7, 65
7, 47400, Control_c, 5, 7, 64
7, 47400, Control_c, 5, 7, 64
7, 51840, Control_c, 5, 7, 64
7, 51840, Control_c, 5, 7, 64
7, 51869, Control_c, 5, 7, 65
7, 51869, Control_c, 5, 7, 65
7, 51899, Control_c, 5, 7, 66
7, 51899, Control_c, 5, 7, 66
7, 51929, Control_c, 5, 7, 67
7, 51929, Control_c, 5, 7, 67
7, 51959, Control_c, 5, 7, 68
7, 51959, Control_c, 5, 7, 68
7, 51989, Control_c, 5, 7, 69
7, 51989, Control_c, 5, 7, 69
7, 52019, Control_c, 5, 7, 70
7, 52019, Control_c, 5, 7, 70
7, 52049, Control_c, 5, 7, 71
7, 52049, Control_c, 5, 7, 71
7, 52079, Control_c, 5, 7, 72
7, 52079, Control_c, 5, 7, 72
7, 52109, Control_c, 5, 7, 73
7, 52109, Control_c, 5, 7, 73
7, 52139, Control_c, 5, 7, 74
7, 52139, Control_c, 5, 7, 74
7, 52169, Control_c, 5, 7, 75
7, 52169, Control_c, 5, 7, 75
7, 52199, Control_c, 5, 7, 76
7, 52199, Control_c, 5, 7, 76
7, 52229, Control_c, 5, 7, 77
7, 52229, Control_c, 5, 7, 77
7, 52259, Control_c, 5, 7, 78
7, 52259, Control_c, 5, 7, 78
7, 52289, Control_c, 5, 7, 79
7, 52289, Control_c, 5, 7, 79
7, 52319, Control_c, 5, 7, 80
7, 52319, Control_c, 5, 7, 80
7, 52349, Control_c, 5, 7, 81
7, 52349, Control_c, 5, 7, 81
7, 52379, Control_c, 5, 7, 82
7, 52379, Control_c, 5, 7, 82
7, 52409, Control_c, 5, 7, 83
7, 52409, Control_c, 5, 7, 83
7, 52439, Control_c, 5, 7, 84
7, 52439, Control_c, 5, 7, 84
7, 52469, Control_c, 5, 7, 85
7, 52469, Control_c, 5, 7, 85
7, 52499, Control_c, 5, 7, 86
7, 52499, Control_c, 5, 7, 86
7, 52529, Control_c, 5, 7, 87
7, 52529, Control_c, 5, 7, 87
7, 52559, Control_c, 5, 7, 88
7, 52559, Control_c, 5, 7, 88
7, 52589, Control_c, 5, 7, 89
7, 52589, Control_c, 5, 7, 89
7, 52619, Control_c, 5, 7, 90
7, 52619, Control_c, 5, 7, 90
7, 52649, Control_c, 5, 7, 91
7, 52649, Control_c, 5, 7, 91
7, 52679, Control_c, 5, 7, 92
7, 52679, Control_c, 5, 7, 92
7, 52709, Control_c, 5, 7, 93
7, 52709, Control_c, 5, 7, 93
7, 52739, Control_c, 5, 7, 94
7, 52739, Control_c, 5, 7, 94
7, 52769, Control_c, 5, 7, 95
7, 52769, Control_c, 5, 7, 95
7, 52799, Control_c, 5, 7, 96
7, 52799, Control_c, 5, 7, 96
7, 52800, Control_c, 5, 7, 96
7, 52800, Control_c, 5, 7, 96
7, 52814, Control_c, 5, 7, 95
7, 52814, Control_c, 5, 7, 95
7, 52829, Control_c, 5, 7, 94
7, 52829, Control_c, 5, 7, 94
7, 52844, Control_c, 5, 7, 93
7, 52844, Control_c, 5, 7, 93
7, 52859, Control_c, 5, 7, 92
7, 52859, Control_c, 5, 7, 92
7, 52874, Control_c, 5, 7, 91
7, 52874, Control_c, 5, 7, 91
7, 52889, Control_c, 5, 7, 90
7, 52889, Control_c, 5, 7, 90
7, 52904, Control_c, 5, 7, 89
7, 52904, Control_c, 5, 7, 89
7, 52919, Control_c, 5, 7, 88
7, 52919, Control_c, 5, 7, 88
7, 52934, Control_c, 5, 7, 87
7, 52934, Control_c, 5, 7, 87
7, 52949, Control_c, 5, 7, 86
7, 52949, Control_c, 5, 7, 86
7, 52964, Control_c, 5, 7, 85
7, 52964, Control_c, 5, 7, 85
7, 52979, Control_c, 5, 7, 84
7, 52979, Control_c, 5, 7, 84
7, 52994, Control_c, 5, 7, 83
7, 52994, Control_c, 5, 7, 83
7, 53009, Control_c, 5, 7, 82
7, 53009, Control_c, 5, 7, 82
7, 53024, Control_c, 5, 7, 81
7, 53024, Control_c, 5, 7, 81
7, 53039, Control_c, 5, 7, 80
7, 53039, Control_c, 5, 7, 80
7, 53054, Control_c, 5, 7, 79
7, 53054, Control_c, 5, 7, 79
7, 53069, Control_c, 5, 7, 78
7, 53069, Control_c, 5, 7, 78
7, 53084, Control_c, 5, 7, 77
7, 53084, Control_c, 5, 7, 77
7, 53099, Control_c, 5, 7, 76
7, 53099, Control_c, 5, 7, 76
7, 53114, Control_c, 5, 7, 75
7, 53114, Control_c, 5, 7, 75
7, 53129, Control_c, 5, 7, 74
7, 53129, Control_c, 5, 7, 74
7, 53144, Control_c, 5, 7, 73
7, 53144, Control_c, 5, 7, 73
7, 53159, Control_c, 5, 7, 72
7, 53159, Control_c, 5, 7, 72
7, 53174, Control_c, 5, 7, 71
7, 53174, Control_c, 5, 7, 71
7, 53189, Control_c, 5, 7, 70
7, 53189, Control_c, 5, 7, 70
7, 53204, Control_c, 5, 7, 69
7, 53204, Control_c, 5, 7, 69
7, 53219, Control_c, 5, 7, 68
7, 53219, Control_c, 5, 7, 68
7, 53234, Control_c, 5, 7, 67
7, 53234, Control_c, 5, 7, 67
7, 53249, Control_c, 5, 7, 66
7, 53249, Control_c, 5, 7, 66
7, 53264, Control_c, 5, 7, 65
7, 53264, Control_c, 5, 7, 65
7, 53279, Control_c, 5, 7, 64
7, 53279, Control_c, 5, 7, 64
7, 53760, Control_c, 5, 7, 64
7, 53760, Control_c, 5, 7, 64
7, 53789, Control_c, 5, 7, 65
7, 53789, Control_c, 5, 7, 65
7, 53819, Control_c, 5, 7, 66
7, 53819, Control_c, 5, 7, 66
7, 53849, Control_c, 5, 7, 67
7, 53849, Control_c, 5, 7, 67
7, 53879, Control_c, 5, 7, 68
7, 53879, Control_c, 5, 7, 68
7, 53909, Control_c, 5, 7, 69
7, 53909, Control_c, 5, 7, 69
7, 53939, Control_c, 5, 7, 70
7, 53939, Control_c, 5, 7, 70
7, 53969, Control_c, 5, 7, 71
7, 53969, Control_c, 5, 7, 71
7, 53999, Control_c, 5, 7, 72
7, 53999, Control_c, 5, 7, 72
7, 54029, Control_c, 5, 7, 73
7, 54029, Control_c, 5, 7, 73
7, 54059, Control_c, 5, 7, 74
7, 54059, Control_c, 5, 7, 74
7, 54089, Control_c, 5, 7, 75
7, 54089, Control_c, 5, 7, 75
7, 54119, Control_c, 5, 7, 76
7, 54119, Control_c, 5, 7, 76
7, 54149, Control_c, 5, 7, 77
7, 54149, Control_c, 5, 7, 77
7, 54179, Control_c, 5, 7, 78
7, 54179, Control_c, 5, 7, 78
7, 54209, Control_c, 5, 7, 79
7, 54209, Control_c, 5, 7, 79
7, 54239, Control_c, 5, 7, 80
7, 54239, Control_c, 5, 7, 80
7, 54269, Control_c, 5, 7, 81
7, 54269, Control_c, 5, 7, 81
7, 54299, Control_c, 5, 7, 82
7, 54299, Control_c, 5, 7, 82
7, 54329, Control_c, 5, 7, 83
7, 54329, Control_c, 5, 7, 83
7, 54359, Control_c, 5, 7, 84
7, 54359, Control_c, 5, 7, 84
7, 54389, Control_c, 5, 7, 85
7, 54389, Control_c, 5, 7, 85
7, 54419, Control_c, 5, 7, 86
7, 54419, Control_c, 5, 7, 86
7, 54449, Control_c, 5, 7, 87
7, 54449, Control_c, 5, 7, 87
7, 54479, Control_c, 5, 7, 88
7, 54479, Control_c, 5, 7, 88
7, 54509, Control_c, 5, 7, 89
7, 54509, Control_c, 5, 7, 89
7, 54539, Control_c, 5, 7, 90
7, 54539, Control_c, 5, 7, 90
7, 54569, Control_c, 5, 7, 91
7, 54569, Control_c, 5, 7, 91
7, 54599, Control_c, 5, 7, 92
7, 54599, Control_c, 5, 7, 92
7, 54629, Control_c, 5, 7, 93
7, 54629, Control_c, 5, 7, 93
7, 54659, Control_c, 5, 7, 94
7, 54659, Control_c, 5, 7, 94
7, 54689, Control_c, 5, 7, 95
7, 54689, Control_c, 5, 7, 95
7, 54719, Control_c, 5, 7, 96
7, 54719, Control_c, 5, 7, 96
7, 54720, Control_c, 5, 7, 96
7, 54720, Control_c, 5, 7, 96
7, 54734, Control_c, 5, 7, 95
7, 54734, Control_c, 5, 7, 95
7, 54749, Control_c, 5, 7, 94
7, 54749, Control_c, 5, 7, 94
7, 54764, Control_c, 5, 7, 93
7, 54764, Control_c, 5, 7, 93
7, 54779, Control_c, 5, 7, 92
7, 54779, Control_c, 5, 7, 92
7, 54794, Control_c, 5, 7, 91
7, 54794, Control_c, 5, 7, 91
7, 54809, Control_c, 5, 7, 90
7, 54809, Control_c, 5, 7, 90
7, 54824, Control_c, 5, 7, 89
7, 54824, Control_c, 5, 7, 89
7, 54839, Control_c, 5, 7, 88
7, 54839, Control_c, 5, 7, 88
7, 54854, Control_c, 5, 7, 87
7, 54854, Control_c, 5, 7, 87
7, 54869, Control_c, 5, 7, 86
7, 54869, Control_c, 5, 7, 86
7, 54884, Control_c, 5, 7, 85
7, 54884, Control_c, 5, 7, 85
7, 54899, Control_c, 5, 7, 84
7, 54899, Control_c, 5, 7, 84
7, 54914, Control_c, 5, 7, 83
7, 54914, Control_c, 5, 7, 83
7, 54929, Control_c, 5, 7, 82
7, 54929, Control_c, 5, 7, 82
7, 54944, Control_c, 5, 7, 81
7, 54944, Control_c, 5, 7, 81
7, 54959, Control_c, 5, 7, 80
7, 54959, Control_c, 5, 7, 80
7, 54974, Control_c, 5, 7, 79
7, 54974, Control_c, 5, 7, 79
7, 54989, Control_c, 5, 7, 78
7, 54989, Control_c, 5, 7, 78
7, 55004, Control_c, 5, 7, 77
7, 55004, Control_c, 5, 7, 77
7, 55019, Control_c, 5, 7, 76
7, 55019, Control_c, 5, 7, 76
7, 55034, Control_c, 5, 7, 75
7, 55034, Control_c, 5, 7, 75
7, 55049, Control_c, 5, 7, 74
7, 55049, Control_c, 5, 7, 74
7, 55064, Control_c, 5, 7, 73
7, 55064, Control_c, 5, 7, 73
7, 55079, Control_c, 5, 7, 72
7, 55079, Control_c, 5, 7, 72
7, 55094, Control_c, 5, 7, 71
7, 55094, Control_c, 5, 7, 71
7, 55109, Control_c, 5, 7, 70
7, 55109, Control_c, 5, 7, 70
7, 55124, Control_c, 5, 7, 69
7, 55124, Control_c, 5, 7, 69
7, 55139, Control_c, 5, 7, 68
7, 55139, Control_c, 5, 7, 68
7, 55154, Control_c, 5, 7, 67
7, 55154, Control_c, 5, 7, 67
7, 55169, Control_c, 5, 7, 66
7, 55169, Control_c, 5, 7, 66
7, 55184, Control_c, 5, 7, 65
7, 55184, Control_c, 5, 7, 65
7, 55199, Control_c, 5, 7, 64
7, 55199, Control_c, 5, 7, 64
7, 55680, Control_c, 5, 7, 64
7, 55680, Control_c, 5, 7, 64
7, 55709, Control_c, 5, 7, 65
7, 55709, Control_c, 5, 7, 65
7, 55739, Control_c, 5, 7, 66
7, 55739, Control_c, 5, 7, 66
7, 55769, Control_c, 5, 7, 67
7, 55769, Control_c, 5, 7, 67
7, 55799, Control_c, 5, 7, 68
7, 55799, Control_c, 5, 7, 68
7, 55829, Control_c, 5, 7, 69
7, 55829, Control_c, 5, 7, 69
7, 55859, Control_c, 5, 7, 70
7, 55859, Control_c, 5, 7, 70
7, 55889, Control_c, 5, 7, 71
7, 55889, Control_c, 5, 7, 71
7, 55919, Control_c, 5, 7, 72
7, 55919, Control_c, 5, 7, 72
7, 55949, Control_c, 5, 7, 73
7, 55949, Control_c, 5, 7, 73
7, 55979, Control_c, 5, 7, 74
7, 55979, Control_c, 5, 7, 74
7, 56009, Control_c, 5, 7, 75
7, 56009, Control_c, 5, 7, 75
7, 56039, Control_c, 5, 7, 76
7, 56039, Control_c, 5, 7, 76
7, 56069, Control_c, 5, 7, 77
7, 56069, Control_c, 5, 7, 77
7, 56099, Control_c, 5, 7, 78
7, 56099, Control_c, 5, 7, 78
7, 56129, Control_c, 5, 7, 79
7, 56129, Control_c, 5, 7, 79
7, 56159, Control_c, 5, 7, 80
7, 56159, Control_c, 5, 7, 80
7, 56189, Control_c, 5, 7, 81
7, 56189, Control_c, 5, 7, 81
7, 56219, Control_c, 5, 7, 82
7, 56219, Control_c, 5, 7, 82
7, 56249, Control_c, 5, 7, 83
7, 56249, Control_c, 5, 7, 83
7, 56279, Control_c, 5, 7, 84
7, 56279, Control_c, 5, 7, 84
7, 56309, Control_c, 5, 7, 85
7, 56309, Control_c, 5, 7, 85
7, 56339, Control_c, 5, 7, 86
7, 56339, Control_c, 5, 7, 86
7, 56369, Control_c, 5, 7, 87
7, 56369, Control_c, 5, 7, 87
7, 56399, Control_c, 5, 7, 88
7, 56399, Control_c, 5, 7, 88
7, 56429, Control_c, 5, 7, 89
7, 56429, Control_c, 5, 7, 89
7, 56459, Control_c, 5, 7, 90
7, 56459, Control_c, 5, 7, 90
7, 56489, Control_c, 5, 7, 91
7, 56489, Control_c, 5, 7, 91
7, 56519, Control_c, 5, 7, 92
7, 56519, Control_c, 5, 7, 92
7, 56549, Control_c, 5, 7, 93
7, 56549, Control_c, 5, 7, 93
7, 56579, Control_c, 5, 7, 94
7, 56579, Control_c, 5, 7, 94
7, 56609, Control_c, 5, 7, 95
7, 56609, Control_c, 5, 7, 95
7, 56639, Control_c, 5, 7, 96
7, 56639, Control_c, 5, 7, 96
7, 56640, Control_c, 5, 7, 96
7, 56640, Control_c, 5, 7, 96
7, 56654, Control_c, 5, 7, 95
7, 56654, Control_c, 5, 7, 95
7, 56669, Control_c, 5, 7, 94
7, 56669, Control_c, 5, 7, 94
7, 56684, Control_c, 5, 7, 93
7, 56684, Control_c, 5, 7, 93
7, 56699, Control_c, 5, 7, 92
7, 56699, Control_c, 5, 7, 92
7, 56714, Control_c, 5, 7, 91
7, 56714, Control_c, 5, 7, 91
7, 56729, Control_c, 5, 7, 90
7, 56729, Control_c, 5, 7, 90
7, 56744, Control_c, 5, 7, 89
7, 56744, Control_c, 5, 7, 89
7, 56759, Control_c, 5, 7, 88
7, 56759, Control_c, 5, 7, 88
7, 56774, Control_c, 5, 7, 87
7, 56774, Control_c, 5, 7, 87
7, 56789, Control_c, 5, 7, 86
7, 56789, Control_c, 5, 7, 86
7, 56804, Control_c, 5, 7, 85
7, 56804, Control_c, 5, 7, 85
7, 56819, Control_c, 5, 7, 84
7, 56819, Control_c, 5, 7, 84
7, 56834, Control_c, 5, 7, 83
7, 56834, Control_c, 5, 7, 83
7, 56849, Control_c, 5, 7, 82
7, 56849, Control_c, 5, 7, 82
7, 56864, Control_c, 5, 7, 81
7, 56864, Control_c, 5, 7, 81
7, 56879, Control_c, 5, 7, 80
7, 56879, Control_c, 5, 7, 80
7, 56894, Control_c, 5, 7, 79
7, 56894, Control_c, 5, 7, 79
7, 56909, Control_c, 5, 7, 78
7, 56909, Control_c, 5, 7, 78
7, 56924, Control_c, 5, 7, 77
7, 56924, Control_c, 5, 7, 77
7, 56939, Control_c, 5, 7, 76
7, 56939, Control_c, 5, 7, 76
7, 56954, Control_c, 5, 7, 75
7, 56954, Control_c, 5, 7, 75
7, 56969, Control_c, 5, 7, 74
7, 56969, Control_c, 5, 7, 74
7, 56984, Control_c, 5, 7, 73
7, 56984, Control_c, 5, 7, 73
7, 56999, Control_c, 5, 7, 72
7, 56999, Control_c, 5, 7, 72
7, 57014, Control_c, 5, 7, 71
7, 57014, Control_c, 5, 7, 71
7, 57029, Control_c, 5, 7, 70
7, 57029, Control_c, 5, 7, 70
7, 57044, Control_c, 5, 7, 69
7, 57044, Control_c, 5, 7, 69
7, 57059, Control_c, 5, 7, 68
7, 57059, Control_c, 5, 7, 68
7, 57074, Control_c, 5, 7, 67
7, 57074, Control_c, 5, 7, 67
7, 57089, Control_c, 5, 7, 66
7, 57089, Control_c, 5, 7, 66
7, 57104, Control_c, 5, 7, 65
7, 57104, Control_c, 5, 7, 65
7, 57119, Control_c, 5, 7, 64
7, 57119, Control_c, 5, 7, 64
7, 57600, Control_c, 5, 7, 64
7, 57600, Control_c, 5, 7, 64
7, 57629, Control_c, 5, 7, 65
7, 57629, Control_c, 5, 7, 65
7, 57659, Control_c, 5, 7, 66
7, 57659, Control_c, 5, 7, 66
7, 57689, Control_c, 5, 7, 67
7, 57689, Control_c, 5, 7, 67
7, 57719, Control_c, 5, 7, 68
7, 57719, Control_c, 5, 7, 68
7, 57749, Control_c, 5, 7, 69
7, 57749, Control_c, 5, 7, 69
7, 57779, Control_c, 5, 7, 70
7, 57779, Control_c, 5, 7, 70
7, 57809, Control_c, 5, 7, 71
7, 57809, Control_c, 5, 7, 71
7, 57839, Control_c, 5, 7, 72
7, 57839, Control_c, 5, 7, 72
7, 57869, Control_c, 5, 7, 73
7, 57869, Control_c, 5, 7, 73
7, 57899, Control_c, 5, 7, 74
7, 57899, Control_c, 5, 7, 74
7, 57929, Control_c, 5, 7, 75
7, 57929, Control_c, 5, 7, 75
7, 57959, Control_c, 5, 7, 76
7, 57959, Control_c, 5, 7, 76
7, 57989, Control_c, 5, 7, 77
7, 57989, Control_c, 5, 7, 77
7, 58019, Control_c, 5, 7, 78
7, 58019, Control_c, 5, 7, 78
7, 58049, Control_c, 5, 7, 79
7, 58049, Control_c, 5, 7, 79
7, 58079, Control_c, 5, 7, 80
7, 58079, Control_c, 5, 7, 80
7, 58109, Control_c, 5, 7, 81
7, 58109, Control_c, 5, 7, 81
7, 58139, Control_c, 5, 7, 82
7, 58139, Control_c, 5, 7, 82
7, 58169, Control_c, 5, 7, 83
7, 58169, Control_c, 5, 7, 83
7, 58199, Control_c, 5, 7, 84
7, 58199, Control_c, 5, 7, 84
7, 58229, Control_c, 5, 7, 85
7, 58229, Control_c, 5, 7, 85
7, 58259, Control_c, 5, 7, 86
7, 58259, Control_c, 5, 7, 86
7, 58289, Control_c, 5, 7, 87
7, 58289, Control_c, 5, 7, 87
7, 58319, Control_c, 5, 7, 88
7, 58319, Control_c, 5, 7, 88
7, 58349, Control_c, 5, 7, 89
7, 58349, Control_c, 5, 7, 89
7, 58379, Control_c, 5, 7, 90
7, 58379, Control_c, 5, 7, 90
7, 58409, Control_c, 5, 7, 91
7, 58409, Control_c, 5, 7, 91
7, 58439, Control_c, 5, 7, 92
7, 58439, Control_c, 5, 7, 92
7, 58469, Control_c, 5, 7, 93
7, 58469, Control_c, 5, 7, 93
7, 58499, Control_c, 5, 7, 94
7, 58499, Control_c, 5, 7, 94
7, 58529, Control_c, 5, 7, 95
7, 58529, Control_c, 5, 7, 95
7, 58559, Control_c, 5, 7, 96
7, 58559, Control_c, 5, 7, 96
7, 58560, Note_on_c, 5, 57, 80
7, 58560, Note_on_c, 5, 69, 80
7, 58560, Control_c, 5, 7, 96
7, 58560, Control_c, 5, 7, 96
7, 58574, Control_c, 5, 7, 95
7, 58574, Control_c, 5, 7, 95
7, 58589, Control_c, 5, 7, 94
7, 58589, Control_c, 5, 7, 94
7, 58604, Control_c, 5, 7, 93
7, 58604, Control_c, 5, 7, 93
7, 58619, Control_c, 5, 7, 92
7, 58619, Control_c, 5, 7, 92
7, 58634, Control_c, 5, 7, 91
7, 58634, Control_c, 5, 7, 91
7, 58649, Control_c, 5, 7, 90
7, 58649, Control_c, 5, 7, 90
7, 58664, Control_c, 5, 7, 89
7, 58664, Control_c, 5, 7, 89
7, 58679, Control_c, 5, 7, 88
7, 58679, Control_c, 5, 7, 88
7, 58694, Control_c, 5, 7, 87
7, 58694, Control_c, 5, 7, 87
7, 58709, Control_c, 5, 7, 86
7, 58709, Control_c, 5, 7, 86
7, 58724, Control_c, 5, 7, 85
7, 58724, Control_c, 5, 7, 85
7, 58739, Control_c, 5, 7, 84
7, 58739, Control_c, 5, 7, 84
7, 58752, Note_on_c, 5, 69, 0
7, 58752, Note_on_c, 5, 57, 0
7, 58754, Control_c, 5, 7, 83
7, 58754, Control_c, 5, 7, 83
7, 58769, Control_c, 5, 7, 82
7, 58769, Control_c, 5, 7, 82
7, 58784, Control_c, 5, 7, 81
7, 58784, Control_c, 5, 7, 81
7, 58799, Control_c, 5, 7, 80
7, 58799, Control_c, 5, 7, 80
7, 58814, Control_c, 5, 7, 79
7, 58814, Control_c, 5, 7, 79
7, 58829, Control_c, 5, 7, 78
7, 58829, Control_c, 5, 7, 78
7, 58844, Control_c, 5, 7, 77
7, 58844, Control_c, 5, 7, 77
7, 58859, Control_c, 5, 7, 76
7, 58859, Control_c, 5, 7, 76
7, 58874, Control_c, 5, 7, 75
7, 58874, Control_c, 5, 7, 75
7, 58889, Control_c, 5, 7, 74
7, 58889, Control_c, 5, 7, 74
7, 58904, Control_c, 5, 7, 73
7, 58904, Control_c, 5, 7, 73
7, 58919, Control_c, 5, 7, 72
7, 58919, Control_c, 5, 7, 72
7, 58934, Control_c, 5, 7, 71
7, 58934, Control_c, 5, 7, 71
7, 58949, Control_c, 5, 7, 70
7, 58949, Control_c, 5, 7, 70
7, 58964, Control_c, 5, 7, 69
7, 58964, Control_c, 5, 7, 69
7, 58979, Control_c, 5, 7, 68
7, 58979, Control_c, 5, 7, 68
7, 58994, Control_c, 5, 7, 67
7, 58994, Control_c, 5, 7, 67
7, 59009, Control_c, 5, 7, 66
7, 59009, Control_c, 5, 7, 66
7, 59024, Control_c, 5, 7, 65
7, 59024, Control_c, 5, 7, 65
7, 59039, Control_c, 5, 7, 64
7, 59039, Control_c, 5, 7, 64
7, 59520, Note_on_c, 5, 69, 80
7, 59520, Note_on_c, 5, 57, 80
7, 59712, Note_on_c, 5, 57, 0
7, 59712, Note_on_c, 5, 69, 0
7, 60240, Control_c, 5, 7, 64
7, 60240, Control_c, 5, 7, 64
7, 60240, Control_c, 5, 7, 64
7, 60243, Control_c, 5, 7, 65
7, 60243, Control_c, 5, 7, 65
7, 60243, Control_c, 5, 7, 65
7, 60247, Control_c, 5, 7, 66
7, 60247, Control_c, 5, 7, 66
7, 60247, Control_c, 5, 7, 66
7, 60251, Control_c, 5, 7, 67
7, 60251, Control_c, 5, 7, 67
7, 60251, Control_c, 5, 7, 67
7, 60255, Control_c, 5, 7, 68
7, 60255, Control_c, 5, 7, 68
7, 60255, Control_c, 5, 7, 68
7, 60259, Control_c, 5, 7, 69
7, 60259, Control_c, 5, 7, 69
7, 60259, Control_c, 5, 7, 69
7, 60262, Control_c, 5, 7, 70
7, 60262, Control_c, 5, 7, 70
7, 60262, Control_c, 5, 7, 70
7, 60266, Control_c, 5, 7, 71
7, 60266, Control_c, 5, 7, 71
7, 60266, Control_c, 5, 7, 71
7, 60270, Control_c, 5, 7, 72
7, 60270, Control_c, 5, 7, 72
7, 60270, Control_c, 5, 7, 72
7, 60274, Control_c, 5, 7, 73
7, 60274, Control_c, 5, 7, 73
7, 60274, Control_c, 5, 7, 73
7, 60278, Control_c, 5, 7, 74
7, 60278, Control_c, 5, 7, 74
7, 60278, Control_c, 5, 7, 74
7, 60281, Control_c, 5, 7, 75
7, 60281, Control_c, 5, 7, 75
7, 60281, Control_c, 5, 7, 75
7, 60285, Control_c, 5, 7, 76
7, 60285, Control_c, 5, 7, 76
7, 60285, Control_c, 5, 7, 76
7, 60289, Control_c, 5, 7, 77
7, 60289, Control_c, 5, 7, 77
7, 60289, Control_c, 5, 7, 77
7, 60293, Control_c, 5, 7, 78
7, 60293, Control_c, 5, 7, 78
7, 60293, Control_c, 5, 7, 78
7, 60297, Control_c, 5, 7, 79
7, 60297, Control_c, 5, 7, 79
7, 60297, Control_c, 5, 7, 79
7, 60300, Control_c, 5, 7, 80
7, 60300, Control_c, 5, 7, 80
7, 60300, Control_c, 5, 7, 80
7, 60304, Control_c, 5, 7, 81
7, 60304, Control_c, 5, 7, 81
7, 60304, Control_c, 5, 7, 81
7, 60308, Control_c, 5, 7, 82
7, 60308, Control_c, 5, 7, 82
7, 60308, Control_c, 5, 7, 82
7, 60312, Control_c, 5, 7, 83
7, 60312, Control_c, 5, 7, 83
7, 60312, Control_c, 5, 7, 83
7, 60316, Control_c, 5, 7, 84
7, 60316, Control_c, 5, 7, 84
7, 60316, Control_c, 5, 7, 84
7, 60320, Control_c, 5, 7, 85
7, 60320, Control_c, 5, 7, 85
7, 60320, Control_c, 5, 7, 85
7, 60323, Control_c, 5, 7, 86
7, 60323, Control_c, 5, 7, 86
7, 60323, Control_c, 5, 7, 86
7, 60327, Control_c, 5, 7, 87
7, 60327, Control_c, 5, 7, 87
7, 60327, Control_c, 5, 7, 87
7, 60331, Control_c, 5, 7, 88
7, 60331, Control_c, 5, 7, 88
7, 60331, Control_c, 5, 7, 88
7, 60335, Control_c, 5, 7, 89
7, 60335, Control_c, 5, 7, 89
7, 60335, Control_c, 5, 7, 89
7, 60339, Control_c, 5, 7, 90
7, 60339, Control_c, 5, 7, 90
7, 60339, Control_c, 5, 7, 90
7, 60342, Control_c, 5, 7, 91
7, 60342, Control_c, 5, 7, 91
7, 60342, Control_c, 5, 7, 91
7, 60346, Control_c, 5, 7, 92
7, 60346, Control_c, 5, 7, 92
7, 60346, Control_c, 5, 7, 92
7, 60350, Control_c, 5, 7, 93
7, 60350, Control_c, 5, 7, 93
7, 60350, Control_c, 5, 7, 93
7, 60354, Control_c, 5, 7, 94
7, 60354, Control_c, 5, 7, 94
7, 60354, Control_c, 5, 7, 94
7, 60358, Control_c, 5, 7, 95
7, 60358, Control_c, 5, 7, 95
7, 60358, Control_c, 5, 7, 95
7, 60361, Control_c, 5, 7, 96
7, 60361, Control_c, 5, 7, 96
7, 60361, Control_c, 5, 7, 96
7, 60365, Control_c, 5, 7, 97
7, 60365, Control_c, 5, 7, 97
7, 60365, Control_c, 5, 7, 97
7, 60369, Control_c, 5, 7, 98
7, 60369, Control_c, 5, 7, 98
7, 60369, Control_c, 5, 7, 98
7, 60373, Control_c, 5, 7, 99
7, 60373, Control_c, 5, 7, 99
7, 60373, Control_c, 5, 7, 99
7, 60377, Control_c, 5, 7, 100
7, 60377, Control_c, 5, 7, 100
7, 60377, Control_c, 5, 7, 100
7, 60380, Control_c, 5, 7, 101
7, 60380, Control_c, 5, 7, 101
7, 60380, Control_c, 5, 7, 101
7, 60384, Control_c, 5, 7, 102
7, 60384, Control_c, 5, 7, 102
7, 60384, Control_c, 5, 7, 102
7, 60388, Control_c, 5, 7, 103
7, 60388, Control_c, 5, 7, 103
7, 60388, Control_c, 5, 7, 103
7, 60392, Control_c, 5, 7, 104
7, 60392, Control_c, 5, 7, 104
7, 60392, Control_c, 5, 7, 104
7, 60396, Control_c, 5, 7, 105
7, 60396, Control_c, 5, 7, 105
7, 60396, Control_c, 5, 7, 105
7, 60400, Control_c, 5, 7, 106
7, 60400, Control_c, 5, 7, 106
7, 60400, Control_c, 5, 7, 106
7, 60403, Control_c, 5, 7, 107
7, 60403, Control_c, 5, 7, 107
7, 60403, Control_c, 5, 7, 107
7, 60407, Control_c, 5, 7, 108
7, 60407, Control_c, 5, 7, 108
7, 60407, Control_c, 5, 7, 108
7, 60411, Control_c, 5, 7, 109
7, 60411, Control_c, 5, 7, 109
7, 60411, Control_c, 5, 7, 109
7, 60415, Control_c, 5, 7, 110
7, 60415, Control_c, 5, 7, 110
7, 60415, Control_c, 5, 7, 110
7, 60419, Control_c, 5, 7, 111
7, 60419, Control_c, 5, 7, 111
7, 60419, Control_c, 5, 7, 111
7, 60422, Control_c, 5, 7, 112
7, 60422, Control_c, 5, 7, 112
7, 60422, Control_c, 5, 7, 112
7, 60426, Control_c, 5, 7, 113
7, 60426, Control_c, 5, 7, 113
7, 60426, Control_c, 5, 7, 113
7, 60430, Control_c, 5, 7, 114
7, 60430, Control_c, 5, 7, 114
7, 60430, Control_c, 5, 7, 114
7, 60434, Control_c, 5, 7, 115
7, 60434, Control_c, 5, 7, 115
7, 60434, Control_c, 5, 7, 115
7, 60438, Control_c, 5, 7, 116
7, 60438, Control_c, 5, 7, 116
7, 60438, Control_c, 5, 7, 116
7, 60441, Control_c, 5, 7, 117
7, 60441, Control_c, 5, 7, 117
7, 60441, Control_c, 5, 7, 117
7, 60445, Control_c, 5, 7, 118
7, 60445, Control_c, 5, 7, 118
7, 60445, Control_c, 5, 7, 118
7, 60449, Control_c, 5, 7, 119
7, 60449, Control_c, 5, 7, 119
7, 60449, Control_c, 5, 7, 119
7, 60453, Control_c, 5, 7, 120
7, 60453, Control_c, 5, 7, 120
7, 60453, Control_c, 5, 7, 120
7, 60457, Control_c, 5, 7, 121
7, 60457, Control_c, 5, 7, 121
7, 60457, Control_c, 5, 7, 121
7, 60460, Control_c, 5, 7, 122
7, 60460, Control_c, 5, 7, 122
7, 60460, Control_c, 5, 7, 122
7, 60464, Control_c, 5, 7, 123
7, 60464, Control_c, 5, 7, 123
7, 60464, Control_c, 5, 7, 123
7, 60468, Control_c, 5, 7, 124
7, 60468, Control_c, 5, 7, 124
7, 60468, Control_c, 5, 7, 124
7, 60472, Control_c, 5, 7, 125
7, 60472, Control_c, 5, 7, 125
7, 60472, Control_c, 5, 7, 125
7, 60476, Control_c, 5, 7, 126
7, 60476, Control_c, 5, 7, 126
7, 60476, Control_c, 5, 7, 126
7, 60480, Note_on_c, 5, 57, 80
7, 60480, Note_on_c, 5, 69, 80
7, 60672, Note_on_c, 5, 69, 0
7, 60672, Note_on_c, 5, 57, 0
7, 61440, Note_on_c, 5, 69, 80
7, 61440, Note_on_c, 5, 57, 80
7, 61632, Note_on_c, 5, 57, 0
7, 61632, Note_on_c, 5, 69, 0
7, 62160, Control_c, 5, 7, 64
7, 62160, Control_c, 5, 7, 64
7, 62160, Control_c, 5, 7, 64
7, 62163, Control_c, 5, 7, 65
7, 62163, Control_c, 5, 7, 65
7, 62163, Control_c, 5, 7, 65
7, 62167, Control_c, 5, 7, 66
7, 62167, Control_c, 5, 7, 66
7, 62167, Control_c, 5, 7, 66
7, 62171, Control_c, 5, 7, 67
7, 62171, Control_c, 5, 7, 67
7, 62171, Control_c, 5, 7, 67
7, 62175, Control_c, 5, 7, 68
7, 62175, Control_c, 5, 7, 68
7, 62175, Control_c, 5, 7, 68
7, 62179, Control_c, 5, 7, 69
7, 62179, Control_c, 5, 7, 69
7, 62179, Control_c, 5, 7, 69
7, 62182, Control_c, 5, 7, 70
7, 62182, Control_c, 5, 7, 70
7, 62182, Control_c, 5, 7, 70
7, 62186, Control_c, 5, 7, 71
7, 62186, Control_c, 5, 7, 71
7, 62186, Control_c, 5, 7, 71
7, 62190, Control_c, 5, 7, 72
7, 62190, Control_c, 5, 7, 72
7, 62190, Control_c, 5, 7, 72
7, 62194, Control_c, 5, 7, 73
7, 62194, Control_c, 5, 7, 73
7, 62194, Control_c, 5, 7, 73
7, 62198, Control_c, 5, 7, 74
7, 62198, Control_c, 5, 7, 74
7, 62198, Control_c, 5, 7, 74
7, 62201, Control_c, 5, 7, 75
7, 62201, Control_c, 5, 7, 75
7, 62201, Control_c, 5, 7, 75
7, 62205, Control_c, 5, 7, 76
7, 62205, Control_c, 5, 7, 76
7, 62205, Control_c, 5, 7, 76
7, 62209, Control_c, 5, 7, 77
7, 62209, Control_c, 5, 7, 77
7, 62209, Control_c, 5, 7, 77
7, 62213, Control_c, 5, 7, 78
7, 62213, Control_c, 5, 7, 78
7, 62213, Control_c, 5, 7, 78
7, 62217, Control_c, 5, 7, 79
7, 62217, Control_c, 5, 7, 79
7, 62217, Control_c, 5, 7, 79
7, 62220, Control_c, 5, 7, 80
7, 62220, Control_c, 5, 7, 80
7, 62220, Control_c, 5, 7, 80
7, 62224, Control_c, 5, 7, 81
7, 62224, Control_c, 5, 7, 81
7, 62224, Control_c, 5, 7, 81
7, 62228, Control_c, 5, 7, 82
7, 62228, Control_c, 5, 7, 82
7, 62228, Control_c, 5, 7, 82
7, 62232, Control_c, 5, 7, 83
7, 62232, Control_c, 5, 7, 83
7, 62232, Control_c, 5, 7, 83
7, 62236, Control_c, 5, 7, 84
7, 62236, Control_c, 5, 7, 84
7, 62236, Control_c, 5, 7, 84
7, 62240, Control_c, 5, 7, 85
7, 62240, Control_c, 5, 7, 85
7, 62240, Control_c, 5, 7, 85
7, 62243, Control_c, 5, 7, 86
7, 62243, Control_c, 5, 7, 86
7, 62243, Control_c, 5, 7, 86
7, 62247, Control_c, 5, 7, 87
7, 62247, Control_c, 5, 7, 87
7, 62247, Control_c, 5, 7, 87
7, 62251, Control_c, 5, 7, 88
7, 62251, Control_c, 5, 7, 88
7, 62251, Control_c, 5, 7, 88
7, 62255, Control_c, 5, 7, 89
7, 62255, Control_c, 5, 7, 89
7, 62255, Control_c, 5, 7, 89
7, 62259, Control_c, 5, 7, 90
7, 62259, Control_c, 5, 7, 90
7, 62259, Control_c, 5, 7, 90
7, 62262, Control_c, 5, 7, 91
7, 62262, Control_c, 5, 7, 91
7, 62262, Control_c, 5, 7, 91
7, 62266, Control_c, 5, 7, 92
7, 62266, Control_c, 5, 7, 92
7, 62266, Control_c, 5, 7, 92
7, 62270, Control_c, 5, 7, 93
7, 62270, Control_c, 5, 7, 93
7, 62270, Control_c, 5, 7, 93
7, 62274, Control_c, 5, 7, 94
7, 62274, Control_c, 5, 7, 94
7, 62274, Control_c, 5, 7, 94
7, 62278, Control_c, 5, 7, 95
7, 62278, Control_c, 5, 7, 95
7, 62278, Control_c, 5, 7, 95
7, 62281, Control_c, 5, 7, 96
7, 62281, Control_c, 5, 7, 96
7, 62281, Control_c, 5, 7, 96
7, 62285, Control_c, 5, 7, 97
7, 62285, Control_c, 5, 7, 97
7, 62285, Control_c, 5, 7, 97
7, 62289, Control_c, 5, 7, 98
7, 62289, Control_c, 5, 7, 98
7, 62289, Control_c, 5, 7, 98
7, 62293, Control_c, 5, 7, 99
7, 62293, Control_c, 5, 7, 99
7, 62293, Control_c, 5, 7, 99
7, 62297, Control_c, 5, 7, 100
7, 62297, Control_c, 5, 7, 100
7, 62297, Control_c, 5, 7, 100
7, 62300, Control_c, 5, 7, 101
7, 62300, Control_c, 5, 7, 101
7, 62300, Control_c, 5, 7, 101
7, 62304, Control_c, 5, 7, 102
7, 62304, Control_c, 5, 7, 102
7, 62304, Control_c, 5, 7, 102
7, 62308, Control_c, 5, 7, 103
7, 62308, Control_c, 5, 7, 103
7, 62308, Control_c, 5, 7, 103
7, 62312, Control_c, 5, 7, 104
7, 62312, Control_c, 5, 7, 104
7, 62312, Control_c, 5, 7, 104
7, 62316, Control_c, 5, 7, 105
7, 62316, Control_c, 5, 7, 105
7, 62316, Control_c, 5, 7, 105
7, 62320, Control_c, 5, 7, 106
7, 62320, Control_c, 5, 7, 106
7, 62320, Control_c, 5, 7, 106
7, 62323, Control_c, 5, 7, 107
7, 62323, Control_c, 5, 7, 107
7, 62323, Control_c, 5, 7, 107
7, 62327, Control_c, 5, 7, 108
7, 62327, Control_c, 5, 7, 108
7, 62327, Control_c, 5, 7, 108
7, 62331, Control_c, 5, 7, 109
7, 62331, Control_c, 5, 7, 109
7, 62331, Control_c, 5, 7, 109
7, 62335, Control_c, 5, 7, 110
7, 62335, Control_c, 5, 7, 110
7, 62335, Control_c, 5, 7, 110
7, 62339, Control_c, 5, 7, 111
7, 62339, Control_c, 5, 7, 111
7, 62339, Control_c, 5, 7, 111
7, 62342, Control_c, 5, 7, 112
7, 62342, Control_c, 5, 7, 112
7, 62342, Control_c, 5, 7, 112
7, 62346, Control_c, 5, 7, 113
7, 62346, Control_c, 5, 7, 113
7, 62346, Control_c, 5, 7, 113
7, 62350, Control_c, 5, 7, 114
7, 62350, Control_c, 5, 7, 114
7, 62350, Control_c, 5, 7, 114
7, 62354, Control_c, 5, 7, 115
7, 62354, Control_c, 5, 7, 115
7, 62354, Control_c, 5, 7, 115
7, 62358, Control_c, 5, 7, 116
7, 62358, Control_c, 5, 7, 116
7, 62358, Control_c, 5, 7, 116
7, 62361, Control_c, 5, 7, 117
7, 62361, Control_c, 5, 7, 117
7, 62361, Control_c, 5, 7, 117
7, 62365, Control_c, 5, 7, 118
7, 62365, Control_c, 5, 7, 118
7, 62365, Control_c, 5, 7, 118
7, 62369, Control_c, 5, 7, 119
7, 62369, Control_c, 5, 7, 119
7, 62369, Control_c, 5, 7, 119
7, 62373, Control_c, 5, 7, 120
7, 62373, Control_c, 5, 7, 120
7, 62373, Control_c, 5, 7, 120
7, 62377, Control_c, 5, 7, 121
7, 62377, Control_c, 5, 7, 121
7, 62377, Control_c, 5, 7, 121
7, 62380, Control_c, 5, 7, 122
7, 62380, Control_c, 5, 7, 122
7, 62380, Control_c, 5, 7, 122
7, 62384, Control_c, 5, 7, 123
7, 62384, Control_c, 5, 7, 123
7, 62384, Control_c, 5, 7, 123
7, 62388, Control_c, 5, 7, 124
7, 62388, Control_c, 5, 7, 124
7, 62388, Control_c, 5, 7, 124
7, 62392, Control_c, 5, 7, 125
7, 62392, Control_c, 5, 7, 125
7, 62392, Control_c, 5, 7, 125
7, 62396, Control_c, 5, 7, 126
7, 62396, Control_c, 5, 7, 126
7, 62396, Control_c, 5, 7, 126
7, 62400, Note_on_c, 5, 57, 80
7, 62400, Note_on_c, 5, 69, 80
7, 62592, Note_on_c, 5, 69, 0
7, 62592, Note_on_c, 5, 57, 0
7, 62880, Note_on_c, 5, 69, 80
7, 62880, Note_on_c, 5, 57, 80
7, 63072, Note_on_c, 5, 57, 0
7, 63072, Note_on_c, 5, 69, 0
7, 63360, Note_on_c, 5, 57, 80
7, 63360, Note_on_c, 5, 69, 80
7, 64224, Note_on_c, 5, 69, 0
7, 64224, Note_on_c, 5, 57, 0
7, 64320, Note_on_c, 5, 57, 80
7, 64320, Note_on_c, 5, 69, 80
7, 64410, Control_c, 5, 7, 72
7, 64416, Note_on_c, 5, 69, 0
7, 64416, Note_on_c, 5, 57, 0
7, 64506, Control_c, 5, 7, 71
7, 64602, Control_c, 5, 7, 70
7, 64698, Control_c, 5, 7, 69
7, 64794, Control_c, 5, 7, 68
7, 64891, Control_c, 5, 7, 67
7, 64987, Control_c, 5, 7, 66
7, 65083, Control_c, 5, 7, 65
7, 65179, Control_c, 5, 7, 64
7, 65275, Control_c, 5, 7, 63
7, 65372, Control_c, 5, 7, 62
7, 65468, Control_c, 5, 7, 61
7, 65564, Control_c, 5, 7, 60
7, 65660, Control_c, 5, 7, 59
7, 65756, Control_c, 5, 7, 58
7, 65853, Control_c, 5, 7, 57
7, 65949, Control_c, 5, 7, 56
7, 66045, Control_c, 5, 7, 55
7, 66141, Control_c, 5, 7, 54
7, 66237, Control_c, 5, 7, 53
7, 66334, Control_c, 5, 7, 52
7, 66430, Control_c, 5, 7, 51
7, 66526, Control_c, 5, 7, 50
7, 66622, Control_c, 5, 7, 49
7, 66719, Control_c, 5, 7, 48
7, 71520, Note_on_c, 5, 62, 80
7, 71520, Note_on_c, 5, 74, 80
7, 71520, Control_c, 5, 7, 127
7, 72600, Note_on_c, 5, 74, 0
7, 72600, Note_on_c, 5, 62, 0
7, 72600, Note_on_c, 5, 74, 80
7, 72600, Note_on_c, 5, 62, 80
7, 72720, Note_on_c, 5, 62, 0
7, 72720, Note_on_c, 5, 74, 0
7, 72720, Note_on_c, 5, 74, 80
7, 72720, Note_on_c, 5, 62, 80
7, 72840, Note_on_c, 5, 62, 0
7, 72840, Note_on_c, 5, 74, 0
7, 72840, Note_on_c, 5, 74, 80
7, 72840, Note_on_c, 5, 62, 80
7, 72960, Note_on_c, 5, 62, 0
7, 72960, Note_on_c, 5, 74, 0
7, 72960, Note_on_c, 5, 74, 80
7, 72960, Note_on_c, 5, 62, 80
7, 73080, Note_on_c, 5, 62, 0
7, 73080, Note_on_c, 5, 74, 0
7, 73080, Note_on_c, 5, 74, 80
7, 73080, Note_on_c, 5, 62, 80
7, 73200, Note_on_c, 5, 62, 0
7, 73200, Note_on_c, 5, 74, 0
7, 73200, Note_on_c, 5, 74, 80
7, 73200, Note_on_c, 5, 62, 80
7, 73320, Note_on_c, 5, 62, 0
7, 73320, Note_on_c, 5, 74, 0
7, 73320, Note_on_c, 5, 74, 80
7, 73320, Note_on_c, 5, 62, 80
7, 73440, Note_on_c, 5, 62, 0
7, 73440, Note_on_c, 5, 74, 0
7, 73440, Note_on_c, 5, 62, 80
7, 73440, Note_on_c, 5, 74, 80
7, 73680, Note_on_c, 5, 74, 0
7, 73680, Note_on_c, 5, 62, 0
7, 73680, Note_on_c, 5, 62, 80
7, 73680, Note_on_c, 5, 74, 80
7, 73920, Note_on_c, 5, 74, 0
7, 73920, Note_on_c, 5, 62, 0
7, 73920, Note_on_c, 5, 74, 80
7, 73920, Note_on_c, 5, 78, 80
7, 74160, Note_on_c, 5, 78, 0
7, 74160, Note_on_c, 5, 74, 0
7, 74160, Note_on_c, 5, 76, 80
7, 74160, Note_on_c, 5, 69, 80
7, 74390, Control_c, 5, 7, 63
7, 74400, Note_on_c, 5, 69, 0
7, 74400, Note_on_c, 5, 76, 0
7, 78240, Note_on_c, 5, 69, 80
7, 78240, Note_on_c, 5, 69, 80
7, 78432, Note_on_c, 5, 69, 0
7, 78432, Note_on_c, 5, 69, 0
7, 78720, Note_on_c, 5, 69, 80
7, 78912, Note_on_c, 5, 69, 0
7, 79200, Note_on_c, 5, 69, 80
7, 79392, Note_on_c, 5, 69, 0
7, 79680, Note_on_c, 5, 69, 80
7, 79872, Note_on_c, 5, 69, 0
7, 80160, Note_on_c, 5, 69, 80
7, 80256, Note_on_c, 5, 69, 0
7, 80400, Note_on_c, 5, 69, 80
7, 80496, Note_on_c, 5, 69, 0
7, 80640, Note_on_c, 5, 69, 80
7, 80736, Note_on_c, 5, 69, 0
7, 80880, Note_on_c, 5, 69, 80
7, 80976, Note_on_c, 5, 69, 0
7, 81120, Note_on_c, 5, 69, 80
7, 81120, Note_on_c, 5, 69, 80
7, 81232, Note_on_c, 5, 69, 0
7, 81232, Note_on_c, 5, 69, 0
7, 81240, Note_on_c, 5, 69, 80
7, 81240, Note_on_c, 5, 69, 80
7, 81288, Note_on_c, 5, 69, 0
7, 81288, Note_on_c, 5, 69, 0
7, 81300, Note_on_c, 5, 69, 80
7, 81300, Note_on_c, 5, 69, 80
7, 81348, Note_on_c, 5, 69, 0
7, 81348, Note_on_c, 5, 69, 0
7, 81360, Note_on_c, 5, 69, 80
7, 81360, Note_on_c, 5, 69, 80
7, 81472, Note_on_c, 5, 69, 0
7, 81472, Note_on_c, 5, 69, 0
7, 81480, Note_on_c, 5, 69, 80
7, 81480, Note_on_c, 5, 69, 80
7, 81592, Note_on_c, 5, 69, 0
7, 81592, Note_on_c, 5, 69, 0
7, 81600, Note_on_c, 5, 69, 80
7, 81792, Note_on_c, 5, 69, 0
7, 82080, Control_c, 5, 7, 120
7, 82082, Control_c, 5, 7, 119
7, 82084, Control_c, 5, 7, 118
7, 82086, Control_c, 5, 7, 117
7, 82088, Control_c, 5, 7, 116
7, 82090, Control_c, 5, 7, 115
7, 82092, Control_c, 5, 7, 114
7, 82094, Control_c, 5, 7, 113
7, 82097, Control_c, 5, 7, 112
7, 82099, Control_c, 5, 7, 111
7, 82101, Control_c, 5, 7, 110
7, 82103, Control_c, 5, 7, 109
7, 82105, Control_c, 5, 7, 108
7, 82107, Control_c, 5, 7, 107
7, 82109, Control_c, 5, 7, 106
7, 82111, Control_c, 5, 7, 105
7, 82114, Control_c, 5, 7, 104
7, 82116, Control_c, 5, 7, 103
7, 82118, Control_c, 5, 7, 102
7, 82120, Control_c, 5, 7, 101
7, 82122, Control_c, 5, 7, 100
7, 82124, Control_c, 5, 7, 99
7, 82126, Control_c, 5, 7, 98
7, 82128, Control_c, 5, 7, 97
7, 82131, Control_c, 5, 7, 96
7, 82133, Control_c, 5, 7, 95
7, 82135, Control_c, 5, 7, 94
7, 82137, Control_c, 5, 7, 93
7, 82139, Control_c, 5, 7, 92
7, 82141, Control_c, 5, 7, 91
7, 82143, Control_c, 5, 7, 90
7, 82145, Control_c, 5, 7, 89
7, 82148, Control_c, 5, 7, 88
7, 82150, Control_c, 5, 7, 87
7, 82152, Control_c, 5, 7, 86
7, 82154, Control_c, 5, 7, 85
7, 82156, Control_c, 5, 7, 84
7, 82158, Control_c, 5, 7, 83
7, 82160, Control_c, 5, 7, 82
7, 82162, Control_c, 5, 7, 81
7, 82165, Control_c, 5, 7, 80
7, 82167, Control_c, 5, 7, 79
7, 82169, Control_c, 5, 7, 78
7, 82171, Control_c, 5, 7, 77
7, 82173, Control_c, 5, 7, 76
7, 82175, Control_c, 5, 7, 75
7, 82177, Control_c, 5, 7, 74
7, 82179, Control_c, 5, 7, 73
7, 82182, Control_c, 5, 7, 72
7, 82184, Control_c, 5, 7, 71
7, 82186, Control_c, 5, 7, 70
7, 82188, Control_c, 5, 7, 69
7, 82190, Control_c, 5, 7, 68
7, 82192, Control_c, 5, 7, 67
7, 82194, Control_c, 5, 7, 66
7, 82196, Control_c, 5, 7, 65
7, 82199, Control_c, 5, 7, 64
7, 82200, Control_c, 5, 7, 64
7, 84000, Control_c, 5, 7, 96
7, 84000, Control_c, 5, 7, 120
7, 84002, Control_c, 5, 7, 106
7, 84002, Control_c, 5, 7, 119
7, 84004, Control_c, 5, 7, 105
7, 84004, Control_c, 5, 7, 118
7, 84006, Control_c, 5, 7, 104
7, 84006, Control_c, 5, 7, 117
7, 84008, Control_c, 5, 7, 103
7, 84008, Control_c, 5, 7, 116
7, 84010, Control_c, 5, 7, 102
7, 84010, Control_c, 5, 7, 115
7, 84012, Control_c, 5, 7, 101
7, 84012, Control_c, 5, 7, 114
7, 84014, Control_c, 5, 7, 95
7, 84014, Control_c, 5, 7, 100
7, 84014, Control_c, 5, 7, 113
7, 84017, Control_c, 5, 7, 99
7, 84017, Control_c, 5, 7, 112
7, 84019, Control_c, 5, 7, 98
7, 84019, Control_c, 5, 7, 111
7, 84021, Control_c, 5, 7, 97
7, 84021, Control_c, 5, 7, 110
7, 84023, Control_c, 5, 7, 96
7, 84023, Control_c, 5, 7, 109
7, 84025, Control_c, 5, 7, 95
7, 84025, Control_c, 5, 7, 108
7, 84027, Control_c, 5, 7, 94
7, 84027, Control_c, 5, 7, 107
7, 84029, Control_c, 5, 7, 94
7, 84029, Control_c, 5, 7, 93
7, 84029, Control_c, 5, 7, 106
7, 84031, Control_c, 5, 7, 105
7, 84032, Control_c, 5, 7, 92
7, 84034, Control_c, 5, 7, 91
7, 84034, Control_c, 5, 7, 104
7, 84036, Control_c, 5, 7, 90
7, 84036, Control_c, 5, 7, 103
7, 84038, Control_c, 5, 7, 89
7, 84038, Control_c, 5, 7, 102
7, 84040, Control_c, 5, 7, 88
7, 84040, Control_c, 5, 7, 101
7, 84042, Control_c, 5, 7, 87
7, 84042, Control_c, 5, 7, 100
7, 84044, Control_c, 5, 7, 93
7, 84044, Control_c, 5, 7, 86
7, 84044, Control_c, 5, 7, 99
7, 84046, Control_c, 5, 7, 98
7, 84047, Control_c, 5, 7, 85
7, 84048, Control_c, 5, 7, 97
7, 84049, Control_c, 5, 7, 84
7, 84051, Control_c, 5, 7, 83
7, 84051, Control_c, 5, 7, 96
7, 84053, Control_c, 5, 7, 82
7, 84053, Control_c, 5, 7, 95
7, 84055, Control_c, 5, 7, 81
7, 84055, Control_c, 5, 7, 94
7, 84057, Control_c, 5, 7, 80
7, 84057, Control_c, 5, 7, 93
7, 84059, Control_c, 5, 7, 92
7, 84059, Control_c, 5, 7, 79
7, 84059, Control_c, 5, 7, 92
7, 84061, Control_c, 5, 7, 91
7, 84062, Control_c, 5, 7, 78
7, 84063, Control_c, 5, 7, 90
7, 84064, Control_c, 5, 7, 77
7, 84065, Control_c, 5, 7, 89
7, 84066, Control_c, 5, 7, 76
7, 84068, Control_c, 5, 7, 75
7, 84068, Control_c, 5, 7, 88
7, 84070, Control_c, 5, 7, 74
7, 84070, Control_c, 5, 7, 87
7, 84072, Control_c, 5, 7, 73
7, 84072, Control_c, 5, 7, 86
7, 84074, Control_c, 5, 7, 91
7, 84074, Control_c, 5, 7, 72
7, 84074, Control_c, 5, 7, 85
7, 84076, Control_c, 5, 7, 84
7, 84077, Control_c, 5, 7, 71
7, 84078, Control_c, 5, 7, 83
7, 84079, Control_c, 5, 7, 70
7, 84080, Control_c, 5, 7, 82
7, 84081, Control_c, 5, 7, 69
7, 84082, Control_c, 5, 7, 81
7, 84083, Control_c, 5, 7, 68
7, 84085, Control_c, 5, 7, 67
7, 84085, Control_c, 5, 7, 80
7, 84087, Control_c, 5, 7, 66
7, 84087, Control_c, 5, 7, 79
7, 84089, Control_c, 5, 7, 90
7, 84089, Control_c, 5, 7, 65
7, 84089, Control_c, 5, 7, 78
7, 84091, Control_c, 5, 7, 77
7, 84092, Control_c, 5, 7, 64
7, 84093, Control_c, 5, 7, 76
7, 84095, Control_c, 5, 7, 75
7, 84097, Control_c, 5, 7, 74
7, 84099, Control_c, 5, 7, 73
7, 84102, Control_c, 5, 7, 72
7, 84104, Control_c, 5, 7, 89
7, 84104, Control_c, 5, 7, 71
7, 84106, Control_c, 5, 7, 70
7, 84108, Control_c, 5, 7, 69
7, 84110, Control_c, 5, 7, 68
7, 84112, Control_c, 5, 7, 67
7, 84114, Control_c, 5, 7, 66
7, 84116, Control_c, 5, 7, 65
7, 84119, Control_c, 5, 7, 88
7, 84119, Control_c, 5, 7, 64
7, 84120, Control_c, 5, 7, 64
7, 84134, Control_c, 5, 7, 87
7, 84149, Control_c, 5, 7, 86
7, 84164, Control_c, 5, 7, 85
7, 84179, Control_c, 5, 7, 84
7, 84194, Control_c, 5, 7, 83
7, 84209, Control_c, 5, 7, 82
7, 84224, Control_c, 5, 7, 81
7, 84239, Control_c, 5, 7, 80
7, 84254, Control_c, 5, 7, 79
7, 84269, Control_c, 5, 7, 78
7, 84284, Control_c, 5, 7, 77
7, 84299, Control_c, 5, 7, 76
7, 84314, Control_c, 5, 7, 75
7, 84329, Control_c, 5, 7, 74
7, 84344, Control_c, 5, 7, 73
7, 84359, Control_c, 5, 7, 72
7, 84374, Control_c, 5, 7, 71
7, 84389, Control_c, 5, 7, 70
7, 84404, Control_c, 5, 7, 69
7, 84419, Control_c, 5, 7, 68
7, 84434, Control_c, 5, 7, 67
7, 84449, Control_c, 5, 7, 66
7, 84453, Control_c, 5, 7, 115
7, 84455, Control_c, 5, 7, 114
7, 84458, Control_c, 5, 7, 113
7, 84460, Control_c, 5, 7, 112
7, 84462, Control_c, 5, 7, 111
7, 84464, Control_c, 5, 7, 65
7, 84464, Control_c, 5, 7, 110
7, 84466, Control_c, 5, 7, 109
7, 84468, Control_c, 5, 7, 108
7, 84470, Control_c, 5, 7, 107
7, 84473, Control_c, 5, 7, 106
7, 84475, Control_c, 5, 7, 105
7, 84477, Control_c, 5, 7, 104
7, 84479, Control_c, 5, 7, 64
7, 84479, Control_c, 5, 7, 103
7, 84480, Control_c, 5, 7, 96
7, 84480, Control_c, 5, 7, 120
7, 84481, Control_c, 5, 7, 102
7, 84482, Control_c, 5, 7, 119
7, 84483, Control_c, 5, 7, 101
7, 84484, Control_c, 5, 7, 118
7, 84485, Control_c, 5, 7, 100
7, 84486, Control_c, 5, 7, 117
7, 84488, Control_c, 5, 7, 99
7, 84488, Control_c, 5, 7, 116
7, 84490, Control_c, 5, 7, 98
7, 84490, Control_c, 5, 7, 115
7, 84492, Control_c, 5, 7, 97
7, 84492, Control_c, 5, 7, 114
7, 84494, Control_c, 5, 7, 95
7, 84494, Control_c, 5, 7, 96
7, 84494, Control_c, 5, 7, 113
7, 84496, Control_c, 5, 7, 95
7, 84497, Control_c, 5, 7, 112
7, 84498, Control_c, 5, 7, 94
7, 84499, Control_c, 5, 7, 111
7, 84500, Control_c, 5, 7, 93
7, 84501, Control_c, 5, 7, 110
7, 84503, Control_c, 5, 7, 92
7, 84503, Control_c, 5, 7, 109
7, 84505, Control_c, 5, 7, 91
7, 84505, Control_c, 5, 7, 108
7, 84507, Control_c, 5, 7, 90
7, 84507, Control_c, 5, 7, 107
7, 84509, Control_c, 5, 7, 94
7, 84509, Control_c, 5, 7, 89
7, 84509, Control_c, 5, 7, 106
7, 84511, Control_c, 5, 7, 88
7, 84511, Control_c, 5, 7, 105
7, 84513, Control_c, 5, 7, 87
7, 84514, Control_c, 5, 7, 104
7, 84515, Control_c, 5, 7, 86
7, 84516, Control_c, 5, 7, 103
7, 84518, Control_c, 5, 7, 85
7, 84518, Control_c, 5, 7, 102
7, 84520, Control_c, 5, 7, 84
7, 84520, Control_c, 5, 7, 101
7, 84522, Control_c, 5, 7, 83
7, 84522, Control_c, 5, 7, 100
7, 84524, Control_c, 5, 7, 93
7, 84524, Control_c, 5, 7, 82
7, 84524, Control_c, 5, 7, 99
7, 84526, Control_c, 5, 7, 81
7, 84526, Control_c, 5, 7, 98
7, 84528, Control_c, 5, 7, 80
7, 84528, Control_c, 5, 7, 97
7, 84530, Control_c, 5, 7, 79
7, 84531, Control_c, 5, 7, 96
7, 84533, Control_c, 5, 7, 78
7, 84533, Control_c, 5, 7, 95
7, 84535, Control_c, 5, 7, 77
7, 84535, Control_c, 5, 7, 94
7, 84537, Control_c, 5, 7, 76
7, 84537, Control_c, 5, 7, 93
7, 84539, Control_c, 5, 7, 92
7, 84539, Control_c, 5, 7, 75
7, 84539, Control_c, 5, 7, 92
7, 84541, Control_c, 5, 7, 74
7, 84541, Control_c, 5, 7, 91
7, 84543, Control_c, 5, 7, 73
7, 84543, Control_c, 5, 7, 90
7, 84545, Control_c, 5, 7, 72
7, 84545, Control_c, 5, 7, 89
7, 84548, Control_c, 5, 7, 71
7, 84548, Control_c, 5, 7, 88
7, 84550, Control_c, 5, 7, 70
7, 84550, Control_c, 5, 7, 87
7, 84552, Control_c, 5, 7, 69
7, 84552, Control_c, 5, 7, 86
7, 84554, Control_c, 5, 7, 91
7, 84554, Control_c, 5, 7, 68
7, 84554, Control_c, 5, 7, 85
7, 84556, Control_c, 5, 7, 67
7, 84556, Control_c, 5, 7, 84
7, 84558, Control_c, 5, 7, 66
7, 84558, Control_c, 5, 7, 83
7, 84560, Control_c, 5, 7, 65
7, 84560, Control_c, 5, 7, 82
7, 84562, Control_c, 5, 7, 81
7, 84563, Control_c, 5, 7, 64
7, 84565, Control_c, 5, 7, 80
7, 84567, Control_c, 5, 7, 79
7, 84569, Control_c, 5, 7, 90
7, 84569, Control_c, 5, 7, 78
7, 84571, Control_c, 5, 7, 77
7, 84573, Control_c, 5, 7, 76
7, 84575, Control_c, 5, 7, 75
7, 84577, Control_c, 5, 7, 74
7, 84579, Control_c, 5, 7, 73
7, 84582, Control_c, 5, 7, 72
7, 84584, Control_c, 5, 7, 89
7, 84584, Control_c, 5, 7, 71
7, 84586, Control_c, 5, 7, 70
7, 84588, Control_c, 5, 7, 69
7, 84590, Control_c, 5, 7, 68
7, 84592, Control_c, 5, 7, 67
7, 84594, Control_c, 5, 7, 66
7, 84596, Control_c, 5, 7, 65
7, 84599, Control_c, 5, 7, 88
7, 84599, Control_c, 5, 7, 64
7, 84600, Control_c, 5, 7, 64
7, 84614, Control_c, 5, 7, 87
7, 84629, Control_c, 5, 7, 86
7, 84644, Control_c, 5, 7, 85
7, 84659, Control_c, 5, 7, 84
7, 84674, Control_c, 5, 7, 83
7, 84689, Control_c, 5, 7, 82
7, 84704, Control_c, 5, 7, 81
7, 84719, Control_c, 5, 7, 80
7, 84734, Control_c, 5, 7, 79
7, 84749, Control_c, 5, 7, 78
7, 84764, Control_c, 5, 7, 77
7, 84779, Control_c, 5, 7, 76
7, 84794, Control_c, 5, 7, 75
7, 84809, Control_c, 5, 7, 74
7, 84824, Control_c, 5, 7, 73
7, 84839, Control_c, 5, 7, 72
7, 84854, Control_c, 5, 7, 71
7, 84869, Control_c, 5, 7, 70
7, 84884, Control_c, 5, 7, 69
7, 84899, Control_c, 5, 7, 68
7, 84914, Control_c, 5, 7, 67
7, 84929, Control_c, 5, 7, 66
7, 84944, Control_c, 5, 7, 65
7, 84959, Control_c, 5, 7, 64
7, 85920, Control_c, 5, 7, 120
7, 85922, Control_c, 5, 7, 119
7, 85924, Control_c, 5, 7, 118
7, 85926, Control_c, 5, 7, 117
7, 85928, Control_c, 5, 7, 116
7, 85930, Control_c, 5, 7, 115
7, 85932, Control_c, 5, 7, 114
7, 85934, Control_c, 5, 7, 113
7, 85937, Control_c, 5, 7, 112
7, 85939, Control_c, 5, 7, 111
7, 85941, Control_c, 5, 7, 110
7, 85943, Control_c, 5, 7, 109
7, 85945, Control_c, 5, 7, 108
7, 85947, Control_c, 5, 7, 107
7, 85949, Control_c, 5, 7, 106
7, 85951, Control_c, 5, 7, 105
7, 85954, Control_c, 5, 7, 104
7, 85956, Control_c, 5, 7, 103
7, 85958, Control_c, 5, 7, 102
7, 85960, Control_c, 5, 7, 101
7, 85962, Control_c, 5, 7, 100
7, 85964, Control_c, 5, 7, 99
7, 85966, Control_c, 5, 7, 98
7, 85968, Control_c, 5, 7, 97
7, 85971, Control_c, 5, 7, 96
7, 85973, Control_c, 5, 7, 95
7, 85975, Control_c, 5, 7, 94
7, 85977, Control_c, 5, 7, 93
7, 85979, Control_c, 5, 7, 92
7, 85981, Control_c, 5, 7, 91
7, 85983, Control_c, 5, 7, 90
7, 85985, Control_c, 5, 7, 89
7, 85988, Control_c, 5, 7, 88
7, 85990, Control_c, 5, 7, 87
7, 85992, Control_c, 5, 7, 86
7, 85994, Control_c, 5, 7, 85
7, 85996, Control_c, 5, 7, 84
7, 85998, Control_c, 5, 7, 83
7, 86000, Control_c, 5, 7, 82
7, 86002, Control_c, 5, 7, 81
7, 86005, Control_c, 5, 7, 80
7, 86007, Control_c, 5, 7, 79
7, 86009, Control_c, 5, 7, 78
7, 86011, Control_c, 5, 7, 77
7, 86013, Control_c, 5, 7, 76
7, 86015, Control_c, 5, 7, 75
7, 86017, Control_c, 5, 7, 74
7, 86019, Control_c, 5, 7, 73
7, 86022, Control_c, 5, 7, 72
7, 86024, Control_c, 5, 7, 71
7, 86026, Control_c, 5, 7, 70
7, 86028, Control_c, 5, 7, 69
7, 86030, Control_c, 5, 7, 68
7, 86032, Control_c, 5, 7, 67
7, 86034, Control_c, 5, 7, 66
7, 86036, Control_c, 5, 7, 65
7, 86039, Control_c, 5, 7, 64
7, 86040, Control_c, 5, 7, 64
7, 87840, Control_c, 5, 7, 96
7, 87840, Control_c, 5, 7, 120
7, 87842, Control_c, 5, 7, 106
7, 87842, Control_c, 5, 7, 119
7, 87844, Control_c, 5, 7, 105
7, 87844, Control_c, 5, 7, 118
7, 87846, Control_c, 5, 7, 104
7, 87846, Control_c, 5, 7, 117
7, 87848, Control_c, 5, 7, 103
7, 87848, Control_c, 5, 7, 116
7, 87850, Control_c, 5, 7, 102
7, 87850, Control_c, 5, 7, 115
7, 87852, Control_c, 5, 7, 101
7, 87852, Control_c, 5, 7, 114
7, 87854, Control_c, 5, 7, 95
7, 87854, Control_c, 5, 7, 100
7, 87854, Control_c, 5, 7, 113
7, 87857, Control_c, 5, 7, 99
7, 87857, Control_c, 5, 7, 112
7, 87859, Control_c, 5, 7, 98
7, 87859, Control_c, 5, 7, 111
7, 87861, Control_c, 5, 7, 97
7, 87861, Control_c, 5, 7, 110
7, 87863, Control_c, 5, 7, 96
7, 87863, Control_c, 5, 7, 109
7, 87865, Control_c, 5, 7, 95
7, 87865, Control_c, 5, 7, 108
7, 87867, Control_c, 5, 7, 94
7, 87867, Control_c, 5, 7, 107
7, 87869, Control_c, 5, 7, 94
7, 87869, Control_c, 5, 7, 93
7, 87869, Control_c, 5, 7, 106
7, 87871, Control_c, 5, 7, 105
7, 87872, Control_c, 5, 7, 92
7, 87874, Control_c, 5, 7, 91
7, 87874, Control_c, 5, 7, 104
7, 87876, Control_c, 5, 7, 90
7, 87876, Control_c, 5, 7, 103
7, 87878, Control_c, 5, 7, 89
7, 87878, Control_c, 5, 7, 102
7, 87880, Control_c, 5, 7, 88
7, 87880, Control_c, 5, 7, 101
7, 87882, Control_c, 5, 7, 87
7, 87882, Control_c, 5, 7, 100
7, 87884, Control_c, 5, 7, 93
7, 87884, Control_c, 5, 7, 86
7, 87884, Control_c, 5, 7, 99
7, 87886, Control_c, 5, 7, 98
7, 87887, Control_c, 5, 7, 85
7, 87888, Control_c, 5, 7, 97
7, 87889, Control_c, 5, 7, 84
7, 87891, Control_c, 5, 7, 83
7, 87891, Control_c, 5, 7, 96
7, 87893, Control_c, 5, 7, 82
7, 87893, Control_c, 5, 7, 95
7, 87895, Control_c, 5, 7, 81
7, 87895, Control_c, 5, 7, 94
7, 87897, Control_c, 5, 7, 80
7, 87897, Control_c, 5, 7, 93
7, 87899, Control_c, 5, 7, 92
7, 87899, Control_c, 5, 7, 79
7, 87899, Control_c, 5, 7, 92
7, 87901, Control_c, 5, 7, 91
7, 87902, Control_c, 5, 7, 78
7, 87903, Control_c, 5, 7, 90
7, 87904, Control_c, 5, 7, 77
7, 87905, Control_c, 5, 7, 89
7, 87906, Control_c, 5, 7, 76
7, 87908, Control_c, 5, 7, 75
7, 87908, Control_c, 5, 7, 88
7, 87910, Control_c, 5, 7, 74
7, 87910, Control_c, 5, 7, 87
7, 87912, Control_c, 5, 7, 73
7, 87912, Control_c, 5, 7, 86
7, 87914, Control_c, 5, 7, 91
7, 87914, Control_c, 5, 7, 72
7, 87914, Control_c, 5, 7, 85
7, 87916, Control_c, 5, 7, 84
7, 87917, Control_c, 5, 7, 71
7, 87918, Control_c, 5, 7, 83
7, 87919, Control_c, 5, 7, 70
7, 87920, Control_c, 5, 7, 82
7, 87921, Control_c, 5, 7, 69
7, 87922, Control_c, 5, 7, 81
7, 87923, Control_c, 5, 7, 68
7, 87925, Control_c, 5, 7, 67
7, 87925, Control_c, 5, 7, 80
7, 87927, Control_c, 5, 7, 66
7, 87927, Control_c, 5, 7, 79
7, 87929, Control_c, 5, 7, 90
7, 87929, Control_c, 5, 7, 65
7, 87929, Control_c, 5, 7, 78
7, 87931, Control_c, 5, 7, 77
7, 87932, Control_c, 5, 7, 64
7, 87933, Control_c, 5, 7, 76
7, 87935, Control_c, 5, 7, 75
7, 87937, Control_c, 5, 7, 74
7, 87939, Control_c, 5, 7, 73
7, 87942, Control_c, 5, 7, 72
7, 87944, Control_c, 5, 7, 89
7, 87944, Control_c, 5, 7, 71
7, 87946, Control_c, 5, 7, 70
7, 87948, Control_c, 5, 7, 69
7, 87950, Control_c, 5, 7, 68
7, 87952, Control_c, 5, 7, 67
7, 87954, Control_c, 5, 7, 66
7, 87956, Control_c, 5, 7, 65
7, 87959, Control_c, 5, 7, 88
7, 87959, Control_c, 5, 7, 64
7, 87960, Control_c, 5, 7, 64
7, 87974, Control_c, 5, 7, 87
7, 87989, Control_c, 5, 7, 86
7, 88004, Control_c, 5, 7, 85
7, 88019, Control_c, 5, 7, 84
7, 88034, Control_c, 5, 7, 83
7, 88049, Control_c, 5, 7, 82
7, 88064, Control_c, 5, 7, 81
7, 88079, Control_c, 5, 7, 80
7, 88094, Control_c, 5, 7, 79
7, 88109, Control_c, 5, 7, 78
7, 88124, Control_c, 5, 7, 77
7, 88139, Control_c, 5, 7, 76
7, 88154, Control_c, 5, 7, 75
7, 88169, Control_c, 5, 7, 74
7, 88184, Control_c, 5, 7, 73
7, 88199, Control_c, 5, 7, 72
7, 88214, Control_c, 5, 7, 71
7, 88229, Control_c, 5, 7, 70
7, 88244, Control_c, 5, 7, 69
7, 88259, Control_c, 5, 7, 68
7, 88274, Control_c, 5, 7, 67
7, 88289, Control_c, 5, 7, 66
7, 88293, Control_c, 5, 7, 115
7, 88295, Control_c, 5, 7, 114
7, 88298, Control_c, 5, 7, 113
7, 88300, Control_c, 5, 7, 112
7, 88302, Control_c, 5, 7, 111
7, 88304, Control_c, 5, 7, 65
7, 88304, Control_c, 5, 7, 110
7, 88306, Control_c, 5, 7, 109
7, 88308, Control_c, 5, 7, 108
7, 88310, Control_c, 5, 7, 107
7, 88313, Control_c, 5, 7, 106
7, 88315, Control_c, 5, 7, 105
7, 88317, Control_c, 5, 7, 104
7, 88319, Control_c, 5, 7, 64
7, 88319, Control_c, 5, 7, 103
7, 88320, Control_c, 5, 7, 96
7, 88320, Control_c, 5, 7, 120
7, 88321, Control_c, 5, 7, 102
7, 88322, Control_c, 5, 7, 119
7, 88323, Control_c, 5, 7, 101
7, 88324, Control_c, 5, 7, 118
7, 88325, Control_c, 5, 7, 100
7, 88326, Control_c, 5, 7, 117
7, 88328, Control_c, 5, 7, 99
7, 88328, Control_c, 5, 7, 116
7, 88330, Control_c, 5, 7, 98
7, 88330, Control_c, 5, 7, 115
7, 88332, Control_c, 5, 7, 97
7, 88332, Control_c, 5, 7, 114
7, 88334, Control_c, 5, 7, 95
7, 88334, Control_c, 5, 7, 96
7, 88334, Control_c, 5, 7, 113
7, 88336, Control_c, 5, 7, 95
7, 88337, Control_c, 5, 7, 112
7, 88338, Control_c, 5, 7, 94
7, 88339, Control_c, 5, 7, 111
7, 88340, Control_c, 5, 7, 93
7, 88341, Control_c, 5, 7, 110
7, 88343, Control_c, 5, 7, 92
7, 88343, Control_c, 5, 7, 109
7, 88345, Control_c, 5, 7, 91
7, 88345, Control_c, 5, 7, 108
7, 88347, Control_c, 5, 7, 90
7, 88347, Control_c, 5, 7, 107
7, 88349, Control_c, 5, 7, 94
7, 88349, Control_c, 5, 7, 89
7, 88349, Control_c, 5, 7, 106
7, 88351, Control_c, 5, 7, 88
7, 88351, Control_c, 5, 7, 105
7, 88353, Control_c, 5, 7, 87
7, 88354, Control_c, 5, 7, 104
7, 88355, Control_c, 5, 7, 86
7, 88356, Control_c, 5, 7, 103
7, 88358, Control_c, 5, 7, 85
7, 88358, Control_c, 5, 7, 102
7, 88360, Control_c, 5, 7, 84
7, 88360, Control_c, 5, 7, 101
7, 88362, Control_c, 5, 7, 83
7, 88362, Control_c, 5, 7, 100
7, 88364, Control_c, 5, 7, 93
7, 88364, Control_c, 5, 7, 82
7, 88364, Control_c, 5, 7, 99
7, 88366, Control_c, 5, 7, 81
7, 88366, Control_c, 5, 7, 98
7, 88368, Control_c, 5, 7, 80
7, 88368, Control_c, 5, 7, 97
7, 88370, Control_c, 5, 7, 79
7, 88371, Control_c, 5, 7, 96
7, 88373, Control_c, 5, 7, 78
7, 88373, Control_c, 5, 7, 95
7, 88375, Control_c, 5, 7, 77
7, 88375, Control_c, 5, 7, 94
7, 88377, Control_c, 5, 7, 76
7, 88377, Control_c, 5, 7, 93
7, 88379, Control_c, 5, 7, 92
7, 88379, Control_c, 5, 7, 75
7, 88379, Control_c, 5, 7, 92
7, 88381, Control_c, 5, 7, 74
7, 88381, Control_c, 5, 7, 91
7, 88383, Control_c, 5, 7, 73
7, 88383, Control_c, 5, 7, 90
7, 88385, Control_c, 5, 7, 72
7, 88385, Control_c, 5, 7, 89
7, 88388, Control_c, 5, 7, 71
7, 88388, Control_c, 5, 7, 88
7, 88390, Control_c, 5, 7, 70
7, 88390, Control_c, 5, 7, 87
7, 88392, Control_c, 5, 7, 69
7, 88392, Control_c, 5, 7, 86
7, 88394, Control_c, 5, 7, 91
7, 88394, Control_c, 5, 7, 68
7, 88394, Control_c, 5, 7, 85
7, 88396, Control_c, 5, 7, 67
7, 88396, Control_c, 5, 7, 84
7, 88398, Control_c, 5, 7, 66
7, 88398, Control_c, 5, 7, 83
7, 88400, Control_c, 5, 7, 65
7, 88400, Control_c, 5, 7, 82
7, 88402, Control_c, 5, 7, 81
7, 88403, Control_c, 5, 7, 64
7, 88405, Control_c, 5, 7, 80
7, 88407, Control_c, 5, 7, 79
7, 88409, Control_c, 5, 7, 90
7, 88409, Control_c, 5, 7, 78
7, 88411, Control_c, 5, 7, 77
7, 88413, Control_c, 5, 7, 76
7, 88415, Control_c, 5, 7, 75
7, 88417, Control_c, 5, 7, 74
7, 88419, Control_c, 5, 7, 73
7, 88422, Control_c, 5, 7, 72
7, 88424, Control_c, 5, 7, 89
7, 88424, Control_c, 5, 7, 71
7, 88426, Control_c, 5, 7, 70
7, 88428, Control_c, 5, 7, 69
7, 88430, Control_c, 5, 7, 68
7, 88432, Control_c, 5, 7, 67
7, 88434, Control_c, 5, 7, 66
7, 88436, Control_c, 5, 7, 65
7, 88439, Control_c, 5, 7, 88
7, 88439, Control_c, 5, 7, 64
7, 88440, Control_c, 5, 7, 64
7, 88454, Control_c, 5, 7, 87
7, 88469, Control_c, 5, 7, 86
7, 88484, Control_c, 5, 7, 85
7, 88499, Control_c, 5, 7, 84
7, 88514, Control_c, 5, 7, 83
7, 88529, Control_c, 5, 7, 82
7, 88544, Control_c, 5, 7, 81
7, 88559, Control_c, 5, 7, 80
7, 88574, Control_c, 5, 7, 79
7, 88589, Control_c, 5, 7, 78
7, 88604, Control_c, 5, 7, 77
7, 88619, Control_c, 5, 7, 76
7, 88634, Control_c, 5, 7, 75
7, 88649, Control_c, 5, 7, 74
7, 88664, Control_c, 5, 7, 73
7, 88679, Control_c, 5, 7, 72
7, 88694, Control_c, 5, 7, 71
7, 88709, Control_c, 5, 7, 70
7, 88724, Control_c, 5, 7, 69
7, 88739, Control_c, 5, 7, 68
7, 88754, Control_c, 5, 7, 67
7, 88769, Control_c, 5, 7, 66
7, 88784, Control_c, 5, 7, 65
7, 88799, Control_c, 5, 7, 64
7, 89930, Control_c, 5, 7, 127
7, 90000, Note_on_c, 5, 62, 80
7, 90000, Note_on_c, 5, 74, 80
7, 90096, Note_on_c, 5, 74, 0
7, 90096, Note_on_c, 5, 62, 0
7, 90960, Note_on_c, 5, 81, 80
7, 90960, Note_on_c, 5, 81, 80
7, 91056, Note_on_c, 5, 81, 0
7, 91056, Note_on_c, 5, 81, 0
7, 91920, Note_on_c, 5, 79, 80
7, 91920, Note_on_c, 5, 79, 80
7, 92016, Note_on_c, 5, 79, 0
7, 92016, Note_on_c, 5, 79, 0
7, 92640, Note_on_c, 5, 81, 80
7, 93024, Note_on_c, 5, 81, 0
7, 93120, Note_on_c, 5, 81, 80
7, 93504, Note_on_c, 5, 81, 0
7, 93600, Note_on_c, 5, 81, 80
7, 93984, Note_on_c, 5, 81, 0
7, 94080, Note_on_c, 5, 81, 80
7, 94464, Note_on_c, 5, 81, 0
7, 94560, Note_on_c, 5, 74, 80
7, 94752, Note_on_c, 5, 74, 0
7, 95520, Note_on_c, 5, 74, 80
7, 95712, Note_on_c, 5, 74, 0
7, 96480, Note_on_c, 5, 74, 80
7, 96672, Note_on_c, 5, 74, 0
7, 97440, Note_on_c, 5, 74, 80
7, 97440, Note_on_c, 5, 62, 80
7, 97890, Note_on_c, 5, 62, 0
7, 97890, Note_on_c, 5, 74, 0
7, 98160, Note_on_c, 5, 81, 80
7, 98160, Note_on_c, 5, 81, 80
7, 98352, Note_on_c, 5, 81, 0
7, 98352, Note_on_c, 5, 81, 0
7, 98400, Note_on_c, 5, 81, 80
7, 98400, Note_on_c, 5, 74, 80
7, 98592, Note_on_c, 5, 74, 0
7, 98592, Note_on_c, 5, 81, 0
7, 98640, Note_on_c, 5, 83, 80
7, 98640, Note_on_c, 5, 79, 80
7, 98832, Note_on_c, 5, 79, 0
7, 98832, Note_on_c, 5, 83, 0
7, 98880, Note_on_c, 5, 81, 80
7, 98880, Note_on_c, 5, 81, 80
7, 99264, Note_on_c, 5, 81, 0
7, 99264, Note_on_c, 5, 81, 0
7, 99360, Note_on_c, 5, 81, 80
7, 99360, Note_on_c, 5, 74, 80
7, 99456, Note_on_c, 5, 74, 0
7, 99456, Note_on_c, 5, 81, 0
7, 100440, Control_c, 5, 7, 96
7, 100440, Control_c, 5, 7, 96
7, 100447, Control_c, 5, 7, 95
7, 100447, Control_c, 5, 7, 95
7, 100454, Control_c, 5, 7, 94
7, 100454, Control_c, 5, 7, 94
7, 100462, Control_c, 5, 7, 93
7, 100462, Control_c, 5, 7, 93
7, 100469, Control_c, 5, 7, 92
7, 100469, Control_c, 5, 7, 92
7, 100477, Control_c, 5, 7, 91
7, 100477, Control_c, 5, 7, 91
7, 100484, Control_c, 5, 7, 90
7, 100484, Control_c, 5, 7, 90
7, 100492, Control_c, 5, 7, 89
7, 100492, Control_c, 5, 7, 89
7, 100499, Control_c, 5, 7, 88
7, 100499, Control_c, 5, 7, 88
7, 100507, Control_c, 5, 7, 87
7, 100507, Control_c, 5, 7, 87
7, 100514, Control_c, 5, 7, 86
7, 100514, Control_c, 5, 7, 86
7, 100522, Control_c, 5, 7, 85
7, 100522, Control_c, 5, 7, 85
7, 100529, Control_c, 5, 7, 84
7, 100529, Control_c, 5, 7, 84
7, 100537, Control_c, 5, 7, 83
7, 100537, Control_c, 5, 7, 83
7, 100544, Control_c, 5, 7, 82
7, 100544, Control_c, 5, 7, 82
7, 100552, Control_c, 5, 7, 81
7, 100552, Control_c, 5, 7, 81
7, 100559, Control_c, 5, 7, 80
7, 100559, Control_c, 5, 7, 80
7, 100566, Control_c, 5, 7, 79
7, 100566, Control_c, 5, 7, 79
7, 100574, Control_c, 5, 7, 78
7, 100574, Control_c, 5, 7, 78
7, 100581, Control_c, 5, 7, 77
7, 100581, Control_c, 5, 7, 77
7, 100589, Control_c, 5, 7, 76
7, 100589, Control_c, 5, 7, 76
7, 100596, Control_c, 5, 7, 75
7, 100596, Control_c, 5, 7, 75
7, 100604, Control_c, 5, 7, 74
7, 100604, Control_c, 5, 7, 74
7, 100611, Control_c, 5, 7, 73
7, 100611, Control_c, 5, 7, 73
7, 100619, Control_c, 5, 7, 72
7, 100619, Control_c, 5, 7, 72
7, 100626, Control_c, 5, 7, 71
7, 100626, Control_c, 5, 7, 71
7, 100634, Control_c, 5, 7, 70
7, 100634, Control_c, 5, 7, 70
7, 100641, Control_c, 5, 7, 69
7, 100641, Control_c, 5, 7, 69
7, 100649, Control_c, 5, 7, 68
7, 100649, Control_c, 5, 7, 68
7, 100656, Control_c, 5, 7, 67
7, 100656, Control_c, 5, 7, 67
7, 100664, Control_c, 5, 7, 66
7, 100664, Control_c, 5, 7, 66
7, 100671, Control_c, 5, 7, 65
7, 100671, Control_c, 5, 7, 65
7, 100679, Control_c, 5, 7, 64
7, 100679, Control_c, 5, 7, 64
7, 101400, Control_c, 5, 7, 96
7, 101400, Control_c, 5, 7, 96
7, 101407, Control_c, 5, 7, 95
7, 101407, Control_c, 5, 7, 95
7, 101415, Control_c, 5, 7, 94
7, 101415, Control_c, 5, 7, 94
7, 101422, Control_c, 5, 7, 93
7, 101422, Control_c, 5, 7, 93
7, 101430, Control_c, 5, 7, 92
7, 101430, Control_c, 5, 7, 92
7, 101437, Control_c, 5, 7, 91
7, 101437, Control_c, 5, 7, 91
7, 101445, Control_c, 5, 7, 90
7, 101445, Control_c, 5, 7, 90
7, 101452, Control_c, 5, 7, 89
7, 101452, Control_c, 5, 7, 89
7, 101460, Control_c, 5, 7, 88
7, 101460, Control_c, 5, 7, 88
7, 101467, Control_c, 5, 7, 87
7, 101467, Control_c, 5, 7, 87
7, 101475, Control_c, 5, 7, 86
7, 101475, Control_c, 5, 7, 86
7, 101482, Control_c, 5, 7, 85
7, 101482, Control_c, 5, 7, 85
7, 101490, Control_c, 5, 7, 84
7, 101490, Control_c, 5, 7, 84
7, 101497, Control_c, 5, 7, 83
7, 101497, Control_c, 5, 7, 83
7, 101505, Control_c, 5, 7, 82
7, 101505, Control_c, 5, 7, 82
7, 101512, Control_c, 5, 7, 81
7, 101512, Control_c, 5, 7, 81
7, 101520, Control_c, 5, 7, 80
7, 101520, Control_c, 5, 7, 80
7, 101527, Control_c, 5, 7, 79
7, 101527, Control_c, 5, 7, 79
7, 101535, Control_c, 5, 7, 78
7, 101535, Control_c, 5, 7, 78
7, 101542, Control_c, 5, 7, 77
7, 101542, Control_c, 5, 7, 77
7, 101550, Control_c, 5, 7, 76
7, 101550, Control_c, 5, 7, 76
7, 101557, Control_c, 5, 7, 75
7, 101557, Control_c, 5, 7, 75
7, 101565, Control_c, 5, 7, 74
7, 101565, Control_c, 5, 7, 74
7, 101572, Control_c, 5, 7, 73
7, 101572, Control_c, 5, 7, 73
7, 101580, Control_c, 5, 7, 72
7, 101580, Control_c, 5, 7, 72
7, 101587, Control_c, 5, 7, 71
7, 101587, Control_c, 5, 7, 71
7, 101595, Control_c, 5, 7, 70
7, 101595, Control_c, 5, 7, 70
7, 101602, Control_c, 5, 7, 69
7, 101602, Control_c, 5, 7, 69
7, 101610, Control_c, 5, 7, 68
7, 101610, Control_c, 5, 7, 68
7, 101617, Control_c, 5, 7, 67
7, 101617, Control_c, 5, 7, 67
7, 101625, Control_c, 5, 7, 66
7, 101625, Control_c, 5, 7, 66
7, 101632, Control_c, 5, 7, 65
7, 101632, Control_c, 5, 7, 65
7, 101640, Control_c, 5, 7, 64
7, 101640, Control_c, 5, 7, 64
7, 106080, Control_c, 5, 7, 64
7, 106080, Control_c, 5, 7, 64
7, 106109, Control_c, 5, 7, 65
7, 106109, Control_c, 5, 7, 65
7, 106139, Control_c, 5, 7, 66
7, 106139, Control_c, 5, 7, 66
7, 106169, Control_c, 5, 7, 67
7, 106169, Control_c, 5, 7, 67
7, 106199, Control_c, 5, 7, 68
7, 106199, Control_c, 5, 7, 68
7, 106229, Control_c, 5, 7, 69
7, 106229, Control_c, 5, 7, 69
7, 106259, Control_c, 5, 7, 70
7, 106259, Control_c, 5, 7, 70
7, 106289, Control_c, 5, 7, 71
7, 106289, Control_c, 5, 7, 71
7, 106319, Control_c, 5, 7, 72
7, 106319, Control_c, 5, 7, 72
7, 106349, Control_c, 5, 7, 73
7, 106349, Control_c, 5, 7, 73
7, 106379, Control_c, 5, 7, 74
7, 106379, Control_c, 5, 7, 74
7, 106409, Control_c, 5, 7, 75
7, 106409, Control_c, 5, 7, 75
7, 106439, Control_c, 5, 7, 76
7, 106439, Control_c, 5, 7, 76
7, 106469, Control_c, 5, 7, 77
7, 106469, Control_c, 5, 7, 77
7, 106499, Control_c, 5, 7, 78
7, 106499, Control_c, 5, 7, 78
7, 106529, Control_c, 5, 7, 79
7, 106529, Control_c, 5, 7, 79
7, 106559, Control_c, 5, 7, 80
7, 106559, Control_c, 5, 7, 80
7, 106589, Control_c, 5, 7, 81
7, 106589, Control_c, 5, 7, 81
7, 106619, Control_c, 5, 7, 82
7, 106619, Control_c, 5, 7, 82
7, 106649, Control_c, 5, 7, 83
7, 106649, Control_c, 5, 7, 83
7, 106679, Control_c, 5, 7, 84
7, 106679, Control_c, 5, 7, 84
7, 106709, Control_c, 5, 7, 85
7, 106709, Control_c, 5, 7, 85
7, 106739, Control_c, 5, 7, 86
7, 106739, Control_c, 5, 7, 86
7, 106769, Control_c, 5, 7, 87
7, 106769, Control_c, 5, 7, 87
7, 106799, Control_c, 5, 7, 88
7, 106799, Control_c, 5, 7, 88
7, 106829, Control_c, 5, 7, 89
7, 106829, Control_c, 5, 7, 89
7, 106859, Control_c, 5, 7, 90
7, 106859, Control_c, 5, 7, 90
7, 106889, Control_c, 5, 7, 91
7, 106889, Control_c, 5, 7, 91
7, 106919, Control_c, 5, 7, 92
7, 106919, Control_c, 5, 7, 92
7, 106949, Control_c, 5, 7, 93
7, 106949, Control_c, 5, 7, 93
7, 106979, Control_c, 5, 7, 94
7, 106979, Control_c, 5, 7, 94
7, 107009, Control_c, 5, 7, 95
7, 107009, Control_c, 5, 7, 95
7, 107039, Control_c, 5, 7, 96
7, 107039, Control_c, 5, 7, 96
7, 107040, Control_c, 5, 7, 96
7, 107040, Control_c, 5, 7, 96
7, 107054, Control_c, 5, 7, 95
7, 107054, Control_c, 5, 7, 95
7, 107069, Control_c, 5, 7, 94
7, 107069, Control_c, 5, 7, 94
7, 107084, Control_c, 5, 7, 93
7, 107084, Control_c, 5, 7, 93
7, 107099, Control_c, 5, 7, 92
7, 107099, Control_c, 5, 7, 92
7, 107114, Control_c, 5, 7, 91
7, 107114, Control_c, 5, 7, 91
7, 107129, Control_c, 5, 7, 90
7, 107129, Control_c, 5, 7, 90
7, 107144, Control_c, 5, 7, 89
7, 107144, Control_c, 5, 7, 89
7, 107159, Control_c, 5, 7, 88
7, 107159, Control_c, 5, 7, 88
7, 107174, Control_c, 5, 7, 87
7, 107174, Control_c, 5, 7, 87
7, 107189, Control_c, 5, 7, 86
7, 107189, Control_c, 5, 7, 86
7, 107204, Control_c, 5, 7, 85
7, 107204, Control_c, 5, 7, 85
7, 107219, Control_c, 5, 7, 84
7, 107219, Control_c, 5, 7, 84
7, 107234, Control_c, 5, 7, 83
7, 107234, Control_c, 5, 7, 83
7, 107249, Control_c, 5, 7, 82
7, 107249, Control_c, 5, 7, 82
7, 107264, Control_c, 5, 7, 81
7, 107264, Control_c, 5, 7, 81
7, 107279, Control_c, 5, 7, 80
7, 107279, Control_c, 5, 7, 80
7, 107294, Control_c, 5, 7, 79
7, 107294, Control_c, 5, 7, 79
7, 107309, Control_c, 5, 7, 78
7, 107309, Control_c, 5, 7, 78
7, 107324, Control_c, 5, 7, 77
7, 107324, Control_c, 5, 7, 77
7, 107339, Control_c, 5, 7, 76
7, 107339, Control_c, 5, 7, 76
7, 107354, Control_c, 5, 7, 75
7, 107354, Control_c, 5, 7, 75
7, 107369, Control_c, 5, 7, 74
7, 107369, Control_c, 5, 7, 74
7, 107384, Control_c, 5, 7, 73
7, 107384, Control_c, 5, 7, 73
7, 107399, Control_c, 5, 7, 72
7, 107399, Control_c, 5, 7, 72
7, 107414, Control_c, 5, 7, 71
7, 107414, Control_c, 5, 7, 71
7, 107429, Control_c, 5, 7, 70
7, 107429, Control_c, 5, 7, 70
7, 107444, Control_c, 5, 7, 69
7, 107444, Control_c, 5, 7, 69
7, 107459, Control_c, 5, 7, 68
7, 107459, Control_c, 5, 7, 68
7, 107474, Control_c, 5, 7, 67
7, 107474, Control_c, 5, 7, 67
7, 107489, Control_c, 5, 7, 66
7, 107489, Control_c, 5, 7, 66
7, 107504, Control_c, 5, 7, 65
7, 107504, Control_c, 5, 7, 65
7, 107519, Control_c, 5, 7, 64
7, 107519, Control_c, 5, 7, 64
7, 108000, Control_c, 5, 7, 64
7, 108000, Control_c, 5, 7, 64
7, 108029, Control_c, 5, 7, 65
7, 108029, Control_c, 5, 7, 65
7, 108059, Control_c, 5, 7, 66
7, 108059, Control_c, 5, 7, 66
7, 108089, Control_c, 5, 7, 67
7, 108089, Control_c, 5, 7, 67
7, 108119, Control_c, 5, 7, 68
7, 108119, Control_c, 5, 7, 68
7, 108149, Control_c, 5, 7, 69
7, 108149, Control_c, 5, 7, 69
7, 108179, Control_c, 5, 7, 70
7, 108179, Control_c, 5, 7, 70
7, 108209, Control_c, 5, 7, 71
7, 108209, Control_c, 5, 7, 71
7, 108239, Control_c, 5, 7, 72
7, 108239, Control_c, 5, 7, 72
7, 108269, Control_c, 5, 7, 73
7, 108269, Control_c, 5, 7, 73
7, 108299, Control_c, 5, 7, 74
7, 108299, Control_c, 5, 7, 74
7, 108329, Control_c, 5, 7, 75
7, 108329, Control_c, 5, 7, 75
7, 108359, Control_c, 5, 7, 76
7, 108359, Control_c, 5, 7, 76
7, 108389, Control_c, 5, 7, 77
7, 108389, Control_c, 5, 7, 77
7, 108419, Control_c, 5, 7, 78
7, 108419, Control_c, 5, 7, 78
7, 108449, Control_c, 5, 7, 79
7, 108449, Control_c, 5, 7, 79
7, 108479, Control_c, 5, 7, 80
7, 108479, Control_c, 5, 7, 80
7, 108509, Control_c, 5, 7, 81
7, 108509, Control_c, 5, 7, 81
7, 108539, Control_c, 5, 7, 82
7, 108539, Control_c, 5, 7, 82
7, 108569, Control_c, 5, 7, 83
7, 108569, Control_c, 5, 7, 83
7, 108599, Control_c, 5, 7, 84
7, 108599, Control_c, 5, 7, 84
7, 108629, Control_c, 5, 7, 85
7, 108629, Control_c, 5, 7, 85
7, 108659, Control_c, 5, 7, 86
7, 108659, Control_c, 5, 7, 86
7, 108689, Control_c, 5, 7, 87
7, 108689, Control_c, 5, 7, 87
7, 108719, Control_c, 5, 7, 88
7, 108719, Control_c, 5, 7, 88
7, 108749, Control_c, 5, 7, 89
7, 108749, Control_c, 5, 7, 89
7, 108779, Control_c, 5, 7, 90
7, 108779, Control_c, 5, 7, 90
7, 108809, Control_c, 5, 7, 91
7, 108809, Control_c, 5, 7, 91
7, 108839, Control_c, 5, 7, 92
7, 108839, Control_c, 5, 7, 92
7, 108869, Control_c, 5, 7, 93
7, 108869, Control_c, 5, 7, 93
7, 108899, Control_c, 5, 7, 94
7, 108899, Control_c, 5, 7, 94
7, 108929, Control_c, 5, 7, 95
7, 108929, Control_c, 5, 7, 95
7, 108959, Control_c, 5, 7, 96
7, 108959, Control_c, 5, 7, 96
7, 108960, Control_c, 5, 7, 96
7, 108960, Control_c, 5, 7, 96
7, 108974, Control_c, 5, 7, 95
7, 108974, Control_c, 5, 7, 95
7, 108989, Control_c, 5, 7, 94
7, 108989, Control_c, 5, 7, 94
7, 109004, Control_c, 5, 7, 93
7, 109004, Control_c, 5, 7, 93
7, 109019, Control_c, 5, 7, 92
7, 109019, Control_c, 5, 7, 92
7, 109034, Control_c, 5, 7, 91
7, 109034, Control_c, 5, 7, 91
7, 109049, Control_c, 5, 7, 90
7, 109049, Control_c, 5, 7, 90
7, 109064, Control_c, 5, 7, 89
7, 109064, Control_c, 5, 7, 89
7, 109079, Control_c, 5, 7, 88
7, 109079, Control_c, 5, 7, 88
7, 109094, Control_c, 5, 7, 87
7, 109094, Control_c, 5, 7, 87
7, 109109, Control_c, 5, 7, 86
7, 109109, Control_c, 5, 7, 86
7, 109124, Control_c, 5, 7, 85
7, 109124, Control_c, 5, 7, 85
7, 109139, Control_c, 5, 7, 84
7, 109139, Control_c, 5, 7, 84
7, 109154, Control_c, 5, 7, 83
7, 109154, Control_c, 5, 7, 83
7, 109169, Control_c, 5, 7, 82
7, 109169, Control_c, 5, 7, 82
7, 109184, Control_c, 5, 7, 81
7, 109184, Control_c, 5, 7, 81
7, 109199, Control_c, 5, 7, 80
7, 109199, Control_c, 5, 7, 80
7, 109214, Control_c, 5, 7, 79
7, 109214, Control_c, 5, 7, 79
7, 109229, Control_c, 5, 7, 78
7, 109229, Control_c, 5, 7, 78
7, 109244, Control_c, 5, 7, 77
7, 109244, Control_c, 5, 7, 77
7, 109259, Control_c, 5, 7, 76
7, 109259, Control_c, 5, 7, 76
7, 109274, Control_c, 5, 7, 75
7, 109274, Control_c, 5, 7, 75
7, 109289, Control_c, 5, 7, 74
7, 109289, Control_c, 5, 7, 74
7, 109304, Control_c, 5, 7, 73
7, 109304, Control_c, 5, 7, 73
7, 109319, Control_c, 5, 7, 72
7, 109319, Control_c, 5, 7, 72
7, 109334, Control_c, 5, 7, 71
7, 109334, Control_c, 5, 7, 71
7, 109349, Control_c, 5, 7, 70
7, 109349, Control_c, 5, 7, 70
7, 109364, Control_c, 5, 7, 69
7, 109364, Control_c, 5, 7, 69
7, 109379, Control_c, 5, 7, 68
7, 109379, Control_c, 5, 7, 68
7, 109394, Control_c, 5, 7, 67
7, 109394, Control_c, 5, 7, 67
7, 109409, Control_c, 5, 7, 66
7, 109409, Control_c, 5, 7, 66
7, 109424, Control_c, 5, 7, 65
7, 109424, Control_c, 5, 7, 65
7, 109439, Control_c, 5, 7, 64
7, 109439, Control_c, 5, 7, 64
7, 109920, Control_c, 5, 7, 64
7, 109920, Control_c, 5, 7, 64
7, 109949, Control_c, 5, 7, 65
7, 109949, Control_c, 5, 7, 65
7, 109979, Control_c, 5, 7, 66
7, 109979, Control_c, 5, 7, 66
7, 110009, Control_c, 5, 7, 67
7, 110009, Control_c, 5, 7, 67
7, 110039, Control_c, 5, 7, 68
7, 110039, Control_c, 5, 7, 68
7, 110069, Control_c, 5, 7, 69
7, 110069, Control_c, 5, 7, 69
7, 110099, Control_c, 5, 7, 70
7, 110099, Control_c, 5, 7, 70
7, 110129, Control_c, 5, 7, 71
7, 110129, Control_c, 5, 7, 71
7, 110159, Control_c, 5, 7, 72
7, 110159, Control_c, 5, 7, 72
7, 110189, Control_c, 5, 7, 73
7, 110189, Control_c, 5, 7, 73
7, 110219, Control_c, 5, 7, 74
7, 110219, Control_c, 5, 7, 74
7, 110249, Control_c, 5, 7, 75
7, 110249, Control_c, 5, 7, 75
7, 110279, Control_c, 5, 7, 76
7, 110279, Control_c, 5, 7, 76
7, 110309, Control_c, 5, 7, 77
7, 110309, Control_c, 5, 7, 77
7, 110339, Control_c, 5, 7, 78
7, 110339, Control_c, 5, 7, 78
7, 110369, Control_c, 5, 7, 79
7, 110369, Control_c, 5, 7, 79
7, 110399, Control_c, 5, 7, 80
7, 110399, Control_c, 5, 7, 80
7, 110429, Control_c, 5, 7, 81
7, 110429, Control_c, 5, 7, 81
7, 110459, Control_c, 5, 7, 82
7, 110459, Control_c, 5, 7, 82
7, 110489, Control_c, 5, 7, 83
7, 110489, Control_c, 5, 7, 83
7, 110519, Control_c, 5, 7, 84
7, 110519, Control_c, 5, 7, 84
7, 110549, Control_c, 5, 7, 85
7, 110549, Control_c, 5, 7, 85
7, 110579, Control_c, 5, 7, 86
7, 110579, Control_c, 5, 7, 86
7, 110609, Control_c, 5, 7, 87
7, 110609, Control_c, 5, 7, 87
7, 110639, Control_c, 5, 7, 88
7, 110639, Control_c, 5, 7, 88
7, 110669, Control_c, 5, 7, 89
7, 110669, Control_c, 5, 7, 89
7, 110699, Control_c, 5, 7, 90
7, 110699, Control_c, 5, 7, 90
7, 110729, Control_c, 5, 7, 91
7, 110729, Control_c, 5, 7, 91
7, 110759, Control_c, 5, 7, 92
7, 110759, Control_c, 5, 7, 92
7, 110789, Control_c, 5, 7, 93
7, 110789, Control_c, 5, 7, 93
7, 110819, Control_c, 5, 7, 94
7, 110819, Control_c, 5, 7, 94
7, 110849, Control_c, 5, 7, 95
7, 110849, Control_c, 5, 7, 95
7, 110879, Control_c, 5, 7, 96
7, 110879, Control_c, 5, 7, 96
7, 110880, Control_c, 5, 7, 96
7, 110880, Control_c, 5, 7, 96
7, 110894, Control_c, 5, 7, 95
7, 110894, Control_c, 5, 7, 95
7, 110909, Control_c, 5, 7, 94
7, 110909, Control_c, 5, 7, 94
7, 110924, Control_c, 5, 7, 93
7, 110924, Control_c, 5, 7, 93
7, 110939, Control_c, 5, 7, 92
7, 110939, Control_c, 5, 7, 92
7, 110954, Control_c, 5, 7, 91
7, 110954, Control_c, 5, 7, 91
7, 110969, Control_c, 5, 7, 90
7, 110969, Control_c, 5, 7, 90
7, 110984, Control_c, 5, 7, 89
7, 110984, Control_c, 5, 7, 89
7, 110999, Control_c, 5, 7, 88
7, 110999, Control_c, 5, 7, 88
7, 111014, Control_c, 5, 7, 87
7, 111014, Control_c, 5, 7, 87
7, 111029, Control_c, 5, 7, 86
7, 111029, Control_c, 5, 7, 86
7, 111044, Control_c, 5, 7, 85
7, 111044, Control_c, 5, 7, 85
7, 111059, Control_c, 5, 7, 84
7, 111059, Control_c, 5, 7, 84
7, 111074, Control_c, 5, 7, 83
7, 111074, Control_c, 5, 7, 83
7, 111089, Control_c, 5, 7, 82
7, 111089, Control_c, 5, 7, 82
7, 111104, Control_c, 5, 7, 81
7, 111104, Control_c, 5, 7, 81
7, 111119, Control_c, 5, 7, 80
7, 111119, Control_c, 5, 7, 80
7, 111134, Control_c, 5, 7, 79
7, 111134, Control_c, 5, 7, 79
7, 111149, Control_c, 5, 7, 78
7, 111149, Control_c, 5, 7, 78
7, 111164, Control_c, 5, 7, 77
7, 111164, Control_c, 5, 7, 77
7, 111179, Control_c, 5, 7, 76
7, 111179, Control_c, 5, 7, 76
7, 111194, Control_c, 5, 7, 75
7, 111194, Control_c, 5, 7, 75
7, 111209, Control_c, 5, 7, 74
7, 111209, Control_c, 5, 7, 74
7, 111224, Control_c, 5, 7, 73
7, 111224, Control_c, 5, 7, 73
7, 111239, Control_c, 5, 7, 72
7, 111239, Control_c, 5, 7, 72
7, 111254, Control_c, 5, 7, 71
7, 111254, Control_c, 5, 7, 71
7, 111269, Control_c, 5, 7, 70
7, 111269, Control_c, 5, 7, 70
7, 111284, Control_c, 5, 7, 69
7, 111284, Control_c, 5, 7, 69
7, 111299, Control_c, 5, 7, 68
7, 111299, Control_c, 5, 7, 68
7, 111314, Control_c, 5, 7, 67
7, 111314, Control_c, 5, 7, 67
7, 111329, Control_c, 5, 7, 66
7, 111329, Control_c, 5, 7, 66
7, 111344, Control_c, 5, 7, 65
7, 111344, Control_c, 5, 7, 65
7, 111359, Control_c, 5, 7, 64
7, 111359, Control_c, 5, 7, 64
7, 111840, Control_c, 5, 7, 64
7, 111840, Control_c, 5, 7, 64
7, 111869, Control_c, 5, 7, 65
7, 111869, Control_c, 5, 7, 65
7, 111899, Control_c, 5, 7, 66
7, 111899, Control_c, 5, 7, 66
7, 111929, Control_c, 5, 7, 67
7, 111929, Control_c, 5, 7, 67
7, 111959, Control_c, 5, 7, 68
7, 111959, Control_c, 5, 7, 68
7, 111989, Control_c, 5, 7, 69
7, 111989, Control_c, 5, 7, 69
7, 112019, Control_c, 5, 7, 70
7, 112019, Control_c, 5, 7, 70
7, 112049, Control_c, 5, 7, 71
7, 112049, Control_c, 5, 7, 71
7, 112079, Control_c, 5, 7, 72
7, 112079, Control_c, 5, 7, 72
7, 112109, Control_c, 5, 7, 73
7, 112109, Control_c, 5, 7, 73
7, 112139, Control_c, 5, 7, 74
7, 112139, Control_c, 5, 7, 74
7, 112169, Control_c, 5, 7, 75
7, 112169, Control_c, 5, 7, 75
7, 112199, Control_c, 5, 7, 76
7, 112199, Control_c, 5, 7, 76
7, 112229, Control_c, 5, 7, 77
7, 112229, Control_c, 5, 7, 77
7, 112259, Control_c, 5, 7, 78
7, 112259, Control_c, 5, 7, 78
7, 112289, Control_c, 5, 7, 79
7, 112289, Control_c, 5, 7, 79
7, 112319, Control_c, 5, 7, 80
7, 112319, Control_c, 5, 7, 80
7, 112349, Control_c, 5, 7, 81
7, 112349, Control_c, 5, 7, 81
7, 112379, Control_c, 5, 7, 82
7, 112379, Control_c, 5, 7, 82
7, 112409, Control_c, 5, 7, 83
7, 112409, Control_c, 5, 7, 83
7, 112439, Control_c, 5, 7, 84
7, 112439, Control_c, 5, 7, 84
7, 112469, Control_c, 5, 7, 85
7, 112469, Control_c, 5, 7, 85
7, 112499, Control_c, 5, 7, 86
7, 112499, Control_c, 5, 7, 86
7, 112529, Control_c, 5, 7, 87
7, 112529, Control_c, 5, 7, 87
7, 112559, Control_c, 5, 7, 88
7, 112559, Control_c, 5, 7, 88
7, 112589, Control_c, 5, 7, 89
7, 112589, Control_c, 5, 7, 89
7, 112619, Control_c, 5, 7, 90
7, 112619, Control_c, 5, 7, 90
7, 112649, Control_c, 5, 7, 91
7, 112649, Control_c, 5, 7, 91
7, 112679, Control_c, 5, 7, 92
7, 112679, Control_c, 5, 7, 92
7, 112709, Control_c, 5, 7, 93
7, 112709, Control_c, 5, 7, 93
7, 112739, Control_c, 5, 7, 94
7, 112739, Control_c, 5, 7, 94
7, 112769, Control_c, 5, 7, 95
7, 112769, Control_c, 5, 7, 95
7, 112799, Control_c, 5, 7, 96
7, 112799, Control_c, 5, 7, 96
7, 114720, Control_c, 5, 7, 48
7, 114792, Control_c, 5, 7, 49
7, 114865, Control_c, 5, 7, 50
7, 114938, Control_c, 5, 7, 51
7, 115011, Control_c, 5, 7, 52
7, 115084, Control_c, 5, 7, 53
7, 115157, Control_c, 5, 7, 54
7, 115230, Control_c, 5, 7, 55
7, 115303, Control_c, 5, 7, 56
7, 115376, Control_c, 5, 7, 57
7, 115448, Control_c, 5, 7, 58
7, 115521, Control_c, 5, 7, 59
7, 115594, Control_c, 5, 7, 60
7, 115667, Control_c, 5, 7, 61
7, 115740, Control_c, 5, 7, 62
7, 115813, Control_c, 5, 7, 63
7, 115886, Control_c, 5, 7, 64
7, 115959, Control_c, 5, 7, 65
7, 116032, Control_c, 5, 7, 66
7, 116105, Control_c, 5, 7, 67
7, 116177, Control_c, 5, 7, 68
7, 116250, Control_c, 5, 7, 69
7, 116323, Control_c, 5, 7, 70
7, 116396, Control_c, 5, 7, 71
7, 116469, Control_c, 5, 7, 72
7, 116542, Control_c, 5, 7, 73
7, 116615, Control_c, 5, 7, 74
7, 116688, Control_c, 5, 7, 75
7, 116761, Control_c, 5, 7, 76
7, 116834, Control_c, 5, 7, 77
7, 116906, Control_c, 5, 7, 78
7, 116979, Control_c, 5, 7, 79
7, 117052, Control_c, 5, 7, 80
7, 117125, Control_c, 5, 7, 81
7, 117198, Control_c, 5, 7, 82
7, 117271, Control_c, 5, 7, 83
7, 117344, Control_c, 5, 7, 84
7, 117417, Control_c, 5, 7, 85
7, 117490, Control_c, 5, 7, 86
7, 117563, Control_c, 5, 7, 87
7, 117635, Control_c, 5, 7, 88
7, 117708, Control_c, 5, 7, 89
7, 117781, Control_c, 5, 7, 90
7, 117854, Control_c, 5, 7, 91
7, 117927, Control_c, 5, 7, 92
7, 118000, Control_c, 5, 7, 93
7, 118073, Control_c, 5, 7, 94
7, 118146, Control_c, 5, 7, 95
7, 118219, Control_c, 5, 7, 96
7, 118292, Control_c, 5, 7, 97
7, 118364, Control_c, 5, 7, 98
7, 118437, Control_c, 5, 7, 99
7, 118510, Control_c, 5, 7, 100
7, 118583, Control_c, 5, 7, 101
7, 118656, Control_c, 5, 7, 102
7, 118729, Control_c, 5, 7, 103
7, 118802, Control_c, 5, 7, 104
7, 118875, Control_c, 5, 7, 105
7, 118948, Control_c, 5, 7, 106
7, 119021, Control_c, 5, 7, 107
7, 119093, Control_c, 5, 7, 108
7, 119166, Control_c, 5, 7, 109
7, 119239, Control_c, 5, 7, 110
7, 119312, Control_c, 5, 7, 111
7, 119385, Control_c, 5, 7, 112
7, 119458, Control_c, 5, 7, 113
7, 119520, Note_on_c, 5, 62, 100
7, 119520, Note_on_c, 5, 74, 100
7, 119531, Control_c, 5, 7, 114
7, 119604, Control_c, 5, 7, 115
7, 119677, Control_c, 5, 7, 116
7, 119750, Control_c, 5, 7, 117
7, 119822, Control_c, 5, 7, 118
7, 119895, Control_c, 5, 7, 119
7, 119968, Control_c, 5, 7, 120
7, 120000, Note_on_c, 5, 74, 0
7, 120000, Note_on_c, 5, 62, 0
7, 120000, Note_on_c, 5, 62, 100
7, 120000, Note_on_c, 5, 74, 100
7, 120041, Control_c, 5, 7, 121
7, 120114, Control_c, 5, 7, 122
7, 120187, Control_c, 5, 7, 123
7, 120216, Note_on_c, 5, 74, 0
7, 120216, Note_on_c, 5, 62, 0
7, 120240, Note_on_c, 5, 62, 100
7, 120240, Note_on_c, 5, 74, 100
7, 120260, Control_c, 5, 7, 124
7, 120333, Control_c, 5, 7, 125
7, 120406, Control_c, 5, 7, 126
7, 120456, Note_on_c, 5, 74, 0
7, 120456, Note_on_c, 5, 62, 0
7, 120479, Control_c, 5, 7, 127
7, 120480, Note_on_c, 5, 62, 100
7, 120480, Note_on_c, 5, 74, 100
7, 120674, Note_on_c, 5, 62, 0
7, 120696, Note_on_c, 5, 74, 0
7, 120840, Note_on_c, 5, 62, 100
7, 120840, Note_on_c, 5, 74, 100
7, 120927, Note_on_c, 5, 62, 0
7, 120948, Note_on_c, 5, 74, 0
7, 120960, Note_on_c, 5, 62, 100
7, 120960, Note_on_c, 5, 74, 100
7, 121057, Note_on_c, 5, 62, 0
7, 121068, Note_on_c, 5, 74, 0
7, 121080, Note_on_c, 5, 62, 100
7, 121080, Note_on_c, 5, 74, 100
7, 121167, Note_on_c, 5, 62, 0
7, 121188, Note_on_c, 5, 74, 0
7, 121320, Note_on_c, 5, 62, 100
7, 121320, Note_on_c, 5, 74, 100
7, 121407, Note_on_c, 5, 62, 0
7, 121428, Note_on_c, 5, 74, 0
7, 121440, Note_on_c, 5, 62, 100
7, 121440, Note_on_c, 5, 74, 100
7, 121537, Note_on_c, 5, 62, 0
7, 121548, Note_on_c, 5, 74, 0
7, 121560, Note_on_c, 5, 62, 100
7, 121560, Note_on_c, 5, 74, 100
7, 121647, Note_on_c, 5, 62, 0
7, 121668, Note_on_c, 5, 74, 0
7, 121800, Note_on_c, 5, 62, 100
7, 121800, Note_on_c, 5, 74, 100
7, 121887, Note_on_c, 5, 62, 0
7, 121908, Note_on_c, 5, 74, 0
7, 121920, Note_on_c, 5, 62, 100
7, 121920, Note_on_c, 5, 74, 100
7, 122017, Note_on_c, 5, 62, 0
7, 122028, Note_on_c, 5, 74, 0
7, 122040, Note_on_c, 5, 62, 100
7, 122040, Note_on_c, 5, 74, 100
7, 122127, Note_on_c, 5, 62, 0
7, 122148, Note_on_c, 5, 74, 0
7, 122160, Note_on_c, 5, 62, 100
7, 122160, Note_on_c, 5, 74, 100
7, 122247, Note_on_c, 5, 62, 0
7, 122268, Note_on_c, 5, 74, 0
7, 122280, Note_on_c, 5, 62, 100
7, 122280, Note_on_c, 5, 74, 100
7, 122367, Note_on_c, 5, 62, 0
7, 122388, Note_on_c, 5, 74, 0
7, 122400, Note_on_c, 5, 62, 100
7, 122400, Note_on_c, 5, 74, 100
7, 122594, Note_on_c, 5, 62, 0
7, 122616, Note_on_c, 5, 74, 0
7, 122760, Note_on_c, 5, 69, 100
7, 122760, Note_on_c, 5, 69, 100
7, 122880, Note_on_c, 5, 66, 100
7, 122880, Note_on_c, 5, 66, 100
7, 122890, Note_on_c, 5, 69, 0
7, 122890, Note_on_c, 5, 69, 0
7, 123000, Note_on_c, 5, 66, 0
7, 123000, Note_on_c, 5, 66, 0
7, 123000, Note_on_c, 5, 62, 100
7, 123000, Note_on_c, 5, 62, 100
7, 123087, Note_on_c, 5, 62, 0
7, 123087, Note_on_c, 5, 62, 0
7, 123240, Note_on_c, 5, 69, 100
7, 123240, Note_on_c, 5, 69, 100
7, 123360, Note_on_c, 5, 66, 100
7, 123360, Note_on_c, 5, 66, 100
7, 123370, Note_on_c, 5, 69, 0
7, 123370, Note_on_c, 5, 69, 0
7, 123480, Note_on_c, 5, 66, 0
7, 123480, Note_on_c, 5, 66, 0
7, 123480, Note_on_c, 5, 62, 100
7, 123480, Note_on_c, 5, 62, 100
7, 123567, Note_on_c, 5, 62, 0
7, 123567, Note_on_c, 5, 62, 0
7, 123720, Note_on_c, 5, 76, 100
7, 123720, Note_on_c, 5, 69, 100
7, 123840, Note_on_c, 5, 74, 100
7, 123840, Note_on_c, 5, 66, 100
7, 123850, Note_on_c, 5, 69, 0
7, 123850, Note_on_c, 5, 76, 0
7, 123960, Note_on_c, 5, 74, 0
7, 123960, Note_on_c, 5, 66, 0
7, 123960, Note_on_c, 5, 76, 100
7, 123960, Note_on_c, 5, 69, 100
7, 124068, Note_on_c, 5, 69, 0
7, 124068, Note_on_c, 5, 76, 0
7, 124080, Note_on_c, 5, 74, 100
7, 124080, Note_on_c, 5, 66, 100
7, 124188, Note_on_c, 5, 66, 0
7, 124188, Note_on_c, 5, 74, 0
7, 124200, Note_on_c, 5, 76, 100
7, 124200, Note_on_c, 5, 69, 100
7, 124320, Note_on_c, 5, 74, 100
7, 124320, Note_on_c, 5, 78, 100
7, 124330, Note_on_c, 5, 69, 0
7, 124330, Note_on_c, 5, 76, 0
7, 124440, Note_on_c, 5, 74, 0
7, 124440, Note_on_c, 5, 78, 0
7, 125280, Note_on_c, 5, 62, 100
7, 125280, Note_on_c, 5, 74, 100
7, 125669, Note_on_c, 5, 62, 0
7, 125712, Note_on_c, 5, 74, 0
7, 125760, Note_on_c, 5, 57, 100
7, 125760, Note_on_c, 5, 69, 100
7, 126149, Note_on_c, 5, 57, 0
7, 126192, Note_on_c, 5, 69, 0
7, 126240, Note_on_c, 5, 62, 100
7, 126240, Note_on_c, 5, 69, 100
7, 126348, Note_on_c, 5, 62, 0
7, 126360, Note_on_c, 5, 69, 0
7, 126480, Note_on_c, 5, 66, 100
7, 126480, Note_on_c, 5, 74, 100
7, 126588, Note_on_c, 5, 74, 0
7, 126588, Note_on_c, 5, 66, 0
7, 126720, Note_on_c, 5, 62, 100
7, 126720, Note_on_c, 5, 74, 100
7, 126853, Note_on_c, 5, 74, 0
7, 126853, Note_on_c, 5, 62, 0
7, 126960, Note_on_c, 5, 69, 100
7, 126960, Note_on_c, 5, 69, 100
7, 127080, Note_on_c, 5, 69, 0
7, 127080, Note_on_c, 5, 69, 0
7, 127200, Note_on_c, 5, 62, 100
7, 127200, Note_on_c, 5, 74, 100
7, 127373, Note_on_c, 5, 74, 0
7, 127392, Note_on_c, 5, 62, 0
7, 127560, Note_on_c, 5, 62, 100
7, 127560, Note_on_c, 5, 74, 100
7, 127663, Note_on_c, 5, 74, 0
7, 127663, Note_on_c, 5, 62, 0
7, 127680, Note_on_c, 5, 62, 100
7, 127680, Note_on_c, 5, 74, 100
7, 127775, Note_on_c, 5, 74, 0
7, 127785, Note_on_c, 5, 62, 0
7, 127800, Note_on_c, 5, 62, 100
7, 127800, Note_on_c, 5, 74, 100
7, 127886, Note_on_c, 5, 74, 0
7, 127886, Note_on_c, 5, 62, 0
7, 128040, Note_on_c, 5, 62, 100
7, 128040, Note_on_c, 5, 74, 100
7, 128143, Note_on_c, 5, 74, 0
7, 128143, Note_on_c, 5, 62, 0
7, 128160, Note_on_c, 5, 62, 100
7, 128160, Note_on_c, 5, 74, 100
7, 128255, Note_on_c, 5, 74, 0
7, 128265, Note_on_c, 5, 62, 0
7, 128280, Note_on_c, 5, 62, 100
7, 128280, Note_on_c, 5, 74, 100
7, 128366, Note_on_c, 5, 74, 0
7, 128366, Note_on_c, 5, 62, 0
7, 128520, Note_on_c, 5, 62, 100
7, 128520, Note_on_c, 5, 74, 100
7, 128623, Note_on_c, 5, 74, 0
7, 128623, Note_on_c, 5, 62, 0
7, 128640, Note_on_c, 5, 62, 100
7, 128640, Note_on_c, 5, 74, 100
7, 128735, Note_on_c, 5, 74, 0
7, 128745, Note_on_c, 5, 62, 0
7, 128760, Note_on_c, 5, 62, 100
7, 128760, Note_on_c, 5, 74, 100
7, 128846, Note_on_c, 5, 74, 0
7, 128846, Note_on_c, 5, 62, 0
7, 128880, Note_on_c, 5, 62, 100
7, 128880, Note_on_c, 5, 74, 100
7, 128966, Note_on_c, 5, 74, 0
7, 128966, Note_on_c, 5, 62, 0
7, 129000, Note_on_c, 5, 62, 100
7, 129000, Note_on_c, 5, 74, 100
7, 129103, Note_on_c, 5, 74, 0
7, 129103, Note_on_c, 5, 62, 0
7, 129120, Note_on_c, 5, 62, 100
7, 129120, Note_on_c, 5, 74, 100
7, 129293, Note_on_c, 5, 74, 0
7, 129312, Note_on_c, 5, 62, 0
7, 129480, Note_on_c, 5, 69, 100
7, 129480, Note_on_c, 5, 69, 100
7, 129583, Note_on_c, 5, 69, 0
7, 129583, Note_on_c, 5, 69, 0
7, 129600, Note_on_c, 5, 66, 100
7, 129600, Note_on_c, 5, 66, 100
7, 129695, Note_on_c, 5, 66, 0
7, 129695, Note_on_c, 5, 66, 0
7, 129720, Note_on_c, 5, 62, 100
7, 129720, Note_on_c, 5, 62, 100
7, 129806, Note_on_c, 5, 62, 0
7, 129806, Note_on_c, 5, 62, 0
7, 129960, Note_on_c, 5, 69, 100
7, 129960, Note_on_c, 5, 69, 100
7, 130063, Note_on_c, 5, 69, 0
7, 130063, Note_on_c, 5, 69, 0
7, 130080, Note_on_c, 5, 66, 100
7, 130080, Note_on_c, 5, 66, 100
7, 130175, Note_on_c, 5, 66, 0
7, 130175, Note_on_c, 5, 66, 0
7, 130200, Note_on_c, 5, 62, 100
7, 130200, Note_on_c, 5, 62, 100
7, 130286, Note_on_c, 5, 62, 0
7, 130286, Note_on_c, 5, 62, 0
7, 130440, Note_on_c, 5, 76, 100
7, 130440, Note_on_c, 5, 69, 100
7, 130543, Note_on_c, 5, 69, 0
7, 130543, Note_on_c, 5, 76, 0
7, 130560, Note_on_c, 5, 74, 100
7, 130560, Note_on_c, 5, 66, 100
7, 130655, Note_on_c, 5, 66, 0
7, 130655, Note_on_c, 5, 74, 0
7, 130680, Note_on_c, 5, 76, 100
7, 130680, Note_on_c, 5, 69, 100
7, 130766, Note_on_c, 5, 69, 0
7, 130766, Note_on_c, 5, 76, 0
7, 130800, Note_on_c, 5, 74, 100
7, 130800, Note_on_c, 5, 66, 100
7, 130886, Note_on_c, 5, 66, 0
7, 130886, Note_on_c, 5, 74, 0
7, 130920, Note_on_c, 5, 76, 100
7, 130920, Note_on_c, 5, 69, 100
7, 131023, Note_on_c, 5, 69, 0
7, 131023, Note_on_c, 5, 76, 0
7, 131040, Note_on_c, 5, 74, 100
7, 131040, Note_on_c, 5, 78, 100
7, 131135, Note_on_c, 5, 78, 0
7, 131135, Note_on_c, 5, 74, 0
7, 132000, Note_on_c, 5, 62, 100
7, 132000, Note_on_c, 5, 74, 100
7, 132346, Note_on_c, 5, 74, 0
7, 132383, Note_on_c, 5, 62, 0
7, 132480, Note_on_c, 5, 57, 100
7, 132480, Note_on_c, 5, 69, 100
7, 132826, Note_on_c, 5, 69, 0
7, 132863, Note_on_c, 5, 57, 0
7, 132960, Note_on_c, 5, 62, 100
7, 132960, Note_on_c, 5, 69, 100
7, 133080, Note_on_c, 5, 69, 0
7, 133080, Note_on_c, 5, 62, 0
7, 133200, Note_on_c, 5, 66, 100
7, 133200, Note_on_c, 5, 74, 100
7, 133320, Note_on_c, 5, 74, 0
7, 133320, Note_on_c, 5, 66, 0
7, 133440, Note_on_c, 5, 62, 100
7, 133440, Note_on_c, 5, 74, 100
7, 133560, Note_on_c, 5, 74, 0
7, 133560, Note_on_c, 5, 62, 0
7, 133680, Note_on_c, 5, 69, 100
7, 133680, Note_on_c, 5, 69, 100
7, 133800, Note_on_c, 5, 69, 0
7, 133800, Note_on_c, 5, 69, 0
7, 133920, Note_on_c, 5, 62, 100
7, 133920, Note_on_c, 5, 74, 100
7, 134400, Note_on_c, 5, 74, 0
7, 134400, Note_on_c, 5, 62, 0
7, 134400, Note_on_c, 5, 57, 100
7, 134400, Note_on_c, 5, 69, 100
7, 134880, Note_on_c, 5, 69, 0
7, 134880, Note_on_c, 5, 57, 0
7, 134880, Note_on_c, 5, 62, 100
7, 134880, Note_on_c, 5, 69, 100
7, 135000, Note_on_c, 5, 69, 0
7, 135000, Note_on_c, 5, 62, 0
7, 135120, Note_on_c, 5, 66, 100
7, 135120, Note_on_c, 5, 74, 100
7, 135240, Note_on_c, 5, 74, 0
7, 135240, Note_on_c, 5, 66, 0
7, 135360, Note_on_c, 5, 62, 100
7, 135360, Note_on_c, 5, 74, 100
7, 135480, Note_on_c, 5, 74, 0
7, 135480, Note_on_c, 5, 62, 0
7, 135600, Note_on_c, 5, 69, 100
7, 135600, Note_on_c, 5, 69, 100
7, 135720, Note_on_c, 5, 69, 0
7, 135720, Note_on_c, 5, 69, 0
7, 135840, Note_on_c, 5, 62, 100
7, 135840, Note_on_c, 5, 74, 100
7, 136056, Note_on_c, 5, 74, 0
7, 136056, Note_on_c, 5, 62, 0
7, 136080, Note_on_c, 5, 74, 100
7, 136080, Note_on_c, 5, 62, 100
7, 136242, Note_on_c, 5, 62, 0
7, 136242, Note_on_c, 5, 74, 0
7, 136260, Note_on_c, 5, 62, 100
7, 136260, Note_on_c, 5, 74, 100
7, 136303, Note_on_c, 5, 74, 0
7, 136303, Note_on_c, 5, 62, 0
7, 136320, Note_on_c, 5, 62, 100
7, 136320, Note_on_c, 5, 74, 100
7, 136752, Note_on_c, 5, 74, 0
7, 136752, Note_on_c, 5, 62, 0
7, 136800, Note_on_c, 5, 62, 100
7, 136800, Note_on_c, 5, 74, 100
7, 137016, Note_on_c, 5, 74, 0
7, 137016, Note_on_c, 5, 62, 0
7, 137040, Note_on_c, 5, 74, 100
7, 137040, Note_on_c, 5, 62, 100
7, 137202, Note_on_c, 5, 62, 0
7, 137202, Note_on_c, 5, 74, 0
7, 137220, Note_on_c, 5, 62, 100
7, 137220, Note_on_c, 5, 74, 100
7, 137263, Note_on_c, 5, 74, 0
7, 137263, Note_on_c, 5, 62, 0
7, 137280, Note_on_c, 5, 62, 100
7, 137280, Note_on_c, 5, 74, 100
7, 137712, Note_on_c, 5, 74, 0
7, 137712, Note_on_c, 5, 62, 0
7, 137760, Note_on_c, 5, 62, 100
7, 137760, Note_on_c, 5, 74, 100
7, 137976, Note_on_c, 5, 74, 0
7, 137976, Note_on_c, 5, 62, 0
7, 138000, Note_on_c, 5, 74, 100
7, 138000, Note_on_c, 5, 62, 100
7, 138162, Note_on_c, 5, 62, 0
7, 138162, Note_on_c, 5, 74, 0
7, 138180, Note_on_c, 5, 62, 100
7, 138180, Note_on_c, 5, 74, 100
7, 138223, Note_on_c, 5, 74, 0
7, 138223, Note_on_c, 5, 62, 0
7, 138240, Note_on_c, 5, 62, 100
7, 138240, Note_on_c, 5, 74, 100
7, 138672, Note_on_c, 5, 74, 0
7, 138672, Note_on_c, 5, 62, 0
7, 138720, Note_on_c, 5, 62, 100
7, 138720, Note_on_c, 5, 74, 100
7, 138828, Note_on_c, 5, 74, 0
7, 138828, Note_on_c, 5, 62, 0
7, 138960, Note_on_c, 5, 66, 100
7, 138960, Note_on_c, 5, 78, 100
7, 139068, Note_on_c, 5, 78, 0
7, 139068, Note_on_c, 5, 66, 0
7, 139200, Note_on_c, 5, 69, 100
7, 139200, Note_on_c, 5, 81, 100
7, 139308, Note_on_c, 5, 81, 0
7, 139308, Note_on_c, 5, 69, 0
7, 139440, Note_on_c, 5, 66, 100
7, 139440, Note_on_c, 5, 78, 100
7, 139548, Note_on_c, 5, 78, 0
7, 139548, Note_on_c, 5, 66, 0
7, 139680, Note_on_c, 5, 62, 100
7, 139680, Note_on_c, 5, 74, 100
7, 139788, Note_on_c, 5, 74, 0
7, 139788, Note_on_c, 5, 62, 0
7, 140160, Note_on_c, 5, 62, 100
7, 140160, Note_on_c, 5, 74, 100
7, 140268, Note_on_c, 5, 74, 0
7, 140268, Note_on_c, 5, 62, 0
7, 140640, Note_on_c, 5, 62, 100
7, 140640, Note_on_c, 5, 74, 100
7, 140856, Note_on_c, 5, 74, 0
7, 140856, Note_on_c, 5, 62, 0
7, 140856, End_track
8, 0, Start_track
8, 0, MIDI_port, 0
8, 0, Title_t, "Timpani"
8, 0, Program_c, 6, 47
8, 0, Control_c, 6, 7, 64
8, 0, Control_c, 6, 10, 100
8, 5280, Control_c, 6, 91, 96
8, 5280, Note_on_c, 6, 50, 115
8, 5280, Control_c, 6, 7, 125
8, 5520, Note_on_c, 6, 50, 0
8, 5760, Note_on_c, 6, 50, 118
8, 6000, Note_on_c, 6, 50, 0
8, 6240, Note_on_c, 6, 50, 119
8, 6480, Note_on_c, 6, 50, 0
8, 6480, Note_on_c, 6, 50, 119
8, 6720, Note_on_c, 6, 50, 0
8, 6720, Note_on_c, 6, 50, 122
8, 6960, Note_on_c, 6, 50, 0
8, 6960, Note_on_c, 6, 50, 122
8, 7080, Note_on_c, 6, 50, 0
8, 7080, Note_on_c, 6, 50, 122
8, 7200, Note_on_c, 6, 50, 0
8, 7200, Note_on_c, 6, 50, 122
8, 7404, Note_on_c, 6, 50, 0
8, 7440, Note_on_c, 6, 50, 122
8, 7644, Note_on_c, 6, 50, 0
8, 7680, Note_on_c, 6, 45, 122
8, 7884, Note_on_c, 6, 45, 0
8, 7920, Note_on_c, 6, 45, 122
8, 8124, Note_on_c, 6, 45, 0
8, 8150, Control_c, 6, 7, 63
8, 8160, Note_on_c, 6, 50, 122
8, 8369, Note_on_c, 6, 50, 0
8, 12960, Control_c, 6, 7, 125
8, 13440, Note_on_c, 6, 50, 119
8, 13680, Note_on_c, 6, 50, 0
8, 13920, Note_on_c, 6, 50, 119
8, 14160, Note_on_c, 6, 50, 0
8, 14400, Note_on_c, 6, 50, 119
8, 14640, Note_on_c, 6, 50, 0
8, 14640, Note_on_c, 6, 50, 119
8, 14880, Note_on_c, 6, 50, 0
8, 14880, Note_on_c, 6, 50, 118
8, 15120, Note_on_c, 6, 50, 0
8, 15120, Note_on_c, 6, 50, 118
8, 15240, Note_on_c, 6, 50, 0
8, 15240, Note_on_c, 6, 50, 118
8, 15360, Note_on_c, 6, 50, 0
8, 15360, Note_on_c, 6, 50, 118
8, 15600, Note_on_c, 6, 50, 0
8, 15600, Note_on_c, 6, 50, 118
8, 15840, Note_on_c, 6, 50, 0
8, 15840, Note_on_c, 6, 45, 118
8, 16080, Note_on_c, 6, 45, 0
8, 16080, Note_on_c, 6, 45, 118
8, 16320, Note_on_c, 6, 45, 0
8, 16320, Note_on_c, 6, 50, 118
8, 16560, Note_on_c, 6, 50, 0
8, 17280, Note_on_c, 6, 50, 121
8, 17520, Note_on_c, 6, 50, 0
8, 18240, Note_on_c, 6, 50, 124
8, 18480, Note_on_c, 6, 50, 0
8, 18960, Control_c, 6, 7, 64
8, 18960, Control_c, 6, 7, 64
8, 18960, Control_c, 6, 7, 64
8, 18963, Control_c, 6, 7, 65
8, 18963, Control_c, 6, 7, 65
8, 18963, Control_c, 6, 7, 65
8, 18967, Control_c, 6, 7, 66
8, 18967, Control_c, 6, 7, 66
8, 18967, Control_c, 6, 7, 66
8, 18971, Control_c, 6, 7, 67
8, 18971, Control_c, 6, 7, 67
8, 18971, Control_c, 6, 7, 67
8, 18975, Control_c, 6, 7, 68
8, 18975, Control_c, 6, 7, 68
8, 18975, Control_c, 6, 7, 68
8, 18979, Control_c, 6, 7, 69
8, 18979, Control_c, 6, 7, 69
8, 18979, Control_c, 6, 7, 69
8, 18982, Control_c, 6, 7, 70
8, 18982, Control_c, 6, 7, 70
8, 18982, Control_c, 6, 7, 70
8, 18986, Control_c, 6, 7, 71
8, 18986, Control_c, 6, 7, 71
8, 18986, Control_c, 6, 7, 71
8, 18990, Control_c, 6, 7, 72
8, 18990, Control_c, 6, 7, 72
8, 18990, Control_c, 6, 7, 72
8, 18994, Control_c, 6, 7, 73
8, 18994, Control_c, 6, 7, 73
8, 18994, Control_c, 6, 7, 73
8, 18998, Control_c, 6, 7, 74
8, 18998, Control_c, 6, 7, 74
8, 18998, Control_c, 6, 7, 74
8, 19001, Control_c, 6, 7, 75
8, 19001, Control_c, 6, 7, 75
8, 19001, Control_c, 6, 7, 75
8, 19005, Control_c, 6, 7, 76
8, 19005, Control_c, 6, 7, 76
8, 19005, Control_c, 6, 7, 76
8, 19009, Control_c, 6, 7, 77
8, 19009, Control_c, 6, 7, 77
8, 19009, Control_c, 6, 7, 77
8, 19013, Control_c, 6, 7, 78
8, 19013, Control_c, 6, 7, 78
8, 19013, Control_c, 6, 7, 78
8, 19017, Control_c, 6, 7, 79
8, 19017, Control_c, 6, 7, 79
8, 19017, Control_c, 6, 7, 79
8, 19020, Control_c, 6, 7, 80
8, 19020, Control_c, 6, 7, 80
8, 19020, Control_c, 6, 7, 80
8, 19024, Control_c, 6, 7, 81
8, 19024, Control_c, 6, 7, 81
8, 19024, Control_c, 6, 7, 81
8, 19028, Control_c, 6, 7, 82
8, 19028, Control_c, 6, 7, 82
8, 19028, Control_c, 6, 7, 82
8, 19032, Control_c, 6, 7, 83
8, 19032, Control_c, 6, 7, 83
8, 19032, Control_c, 6, 7, 83
8, 19036, Control_c, 6, 7, 84
8, 19036, Control_c, 6, 7, 84
8, 19036, Control_c, 6, 7, 84
8, 19040, Control_c, 6, 7, 85
8, 19040, Control_c, 6, 7, 85
8, 19040, Control_c, 6, 7, 85
8, 19043, Control_c, 6, 7, 86
8, 19043, Control_c, 6, 7, 86
8, 19043, Control_c, 6, 7, 86
8, 19047, Control_c, 6, 7, 87
8, 19047, Control_c, 6, 7, 87
8, 19047, Control_c, 6, 7, 87
8, 19051, Control_c, 6, 7, 88
8, 19051, Control_c, 6, 7, 88
8, 19051, Control_c, 6, 7, 88
8, 19055, Control_c, 6, 7, 89
8, 19055, Control_c, 6, 7, 89
8, 19055, Control_c, 6, 7, 89
8, 19059, Control_c, 6, 7, 90
8, 19059, Control_c, 6, 7, 90
8, 19059, Control_c, 6, 7, 90
8, 19062, Control_c, 6, 7, 91
8, 19062, Control_c, 6, 7, 91
8, 19062, Control_c, 6, 7, 91
8, 19066, Control_c, 6, 7, 92
8, 19066, Control_c, 6, 7, 92
8, 19066, Control_c, 6, 7, 92
8, 19070, Control_c, 6, 7, 93
8, 19070, Control_c, 6, 7, 93
8, 19070, Control_c, 6, 7, 93
8, 19074, Control_c, 6, 7, 94
8, 19074, Control_c, 6, 7, 94
8, 19074, Control_c, 6, 7, 94
8, 19078, Control_c, 6, 7, 95
8, 19078, Control_c, 6, 7, 95
8, 19078, Control_c, 6, 7, 95
8, 19081, Control_c, 6, 7, 96
8, 19081, Control_c, 6, 7, 96
8, 19081, Control_c, 6, 7, 96
8, 19085, Control_c, 6, 7, 97
8, 19085, Control_c, 6, 7, 97
8, 19085, Control_c, 6, 7, 97
8, 19089, Control_c, 6, 7, 98
8, 19089, Control_c, 6, 7, 98
8, 19089, Control_c, 6, 7, 98
8, 19093, Control_c, 6, 7, 99
8, 19093, Control_c, 6, 7, 99
8, 19093, Control_c, 6, 7, 99
8, 19097, Control_c, 6, 7, 100
8, 19097, Control_c, 6, 7, 100
8, 19097, Control_c, 6, 7, 100
8, 19100, Control_c, 6, 7, 101
8, 19100, Control_c, 6, 7, 101
8, 19100, Control_c, 6, 7, 101
8, 19104, Control_c, 6, 7, 102
8, 19104, Control_c, 6, 7, 102
8, 19104, Control_c, 6, 7, 102
8, 19108, Control_c, 6, 7, 103
8, 19108, Control_c, 6, 7, 103
8, 19108, Control_c, 6, 7, 103
8, 19112, Control_c, 6, 7, 104
8, 19112, Control_c, 6, 7, 104
8, 19112, Control_c, 6, 7, 104
8, 19116, Control_c, 6, 7, 105
8, 19116, Control_c, 6, 7, 105
8, 19116, Control_c, 6, 7, 105
8, 19120, Control_c, 6, 7, 106
8, 19120, Control_c, 6, 7, 106
8, 19120, Control_c, 6, 7, 106
8, 19123, Control_c, 6, 7, 107
8, 19123, Control_c, 6, 7, 107
8, 19123, Control_c, 6, 7, 107
8, 19127, Control_c, 6, 7, 108
8, 19127, Control_c, 6, 7, 108
8, 19127, Control_c, 6, 7, 108
8, 19131, Control_c, 6, 7, 109
8, 19131, Control_c, 6, 7, 109
8, 19131, Control_c, 6, 7, 109
8, 19135, Control_c, 6, 7, 110
8, 19135, Control_c, 6, 7, 110
8, 19135, Control_c, 6, 7, 110
8, 19139, Control_c, 6, 7, 111
8, 19139, Control_c, 6, 7, 111
8, 19139, Control_c, 6, 7, 111
8, 19142, Control_c, 6, 7, 112
8, 19142, Control_c, 6, 7, 112
8, 19142, Control_c, 6, 7, 112
8, 19146, Control_c, 6, 7, 113
8, 19146, Control_c, 6, 7, 113
8, 19146, Control_c, 6, 7, 113
8, 19150, Control_c, 6, 7, 114
8, 19150, Control_c, 6, 7, 114
8, 19150, Control_c, 6, 7, 114
8, 19154, Control_c, 6, 7, 115
8, 19154, Control_c, 6, 7, 115
8, 19154, Control_c, 6, 7, 115
8, 19158, Control_c, 6, 7, 116
8, 19158, Control_c, 6, 7, 116
8, 19158, Control_c, 6, 7, 116
8, 19161, Control_c, 6, 7, 117
8, 19161, Control_c, 6, 7, 117
8, 19161, Control_c, 6, 7, 117
8, 19165, Control_c, 6, 7, 118
8, 19165, Control_c, 6, 7, 118
8, 19165, Control_c, 6, 7, 118
8, 19169, Control_c, 6, 7, 119
8, 19169, Control_c, 6, 7, 119
8, 19169, Control_c, 6, 7, 119
8, 19173, Control_c, 6, 7, 120
8, 19173, Control_c, 6, 7, 120
8, 19173, Control_c, 6, 7, 120
8, 19177, Control_c, 6, 7, 121
8, 19177, Control_c, 6, 7, 121
8, 19177, Control_c, 6, 7, 121
8, 19180, Control_c, 6, 7, 122
8, 19180, Control_c, 6, 7, 122
8, 19180, Control_c, 6, 7, 122
8, 19184, Control_c, 6, 7, 123
8, 19184, Control_c, 6, 7, 123
8, 19184, Control_c, 6, 7, 123
8, 19188, Control_c, 6, 7, 124
8, 19188, Control_c, 6, 7, 124
8, 19188, Control_c, 6, 7, 124
8, 19192, Control_c, 6, 7, 125
8, 19192, Control_c, 6, 7, 125
8, 19192, Control_c, 6, 7, 125
8, 19196, Control_c, 6, 7, 126
8, 19196, Control_c, 6, 7, 126
8, 19196, Control_c, 6, 7, 126
8, 19200, Control_c, 6, 7, 127
8, 19200, Control_c, 6, 7, 127
8, 19200, Control_c, 6, 7, 127
8, 19200, Note_on_c, 6, 50, 122
8, 19440, Note_on_c, 6, 50, 0
8, 19440, Note_on_c, 6, 50, 118
8, 19620, Note_on_c, 6, 50, 0
8, 19620, Note_on_c, 6, 50, 117
8, 19680, Note_on_c, 6, 50, 0
8, 19680, Note_on_c, 6, 50, 117
8, 19920, Note_on_c, 6, 50, 0
8, 19920, Note_on_c, 6, 50, 98
8, 20160, Note_on_c, 6, 50, 0
8, 20160, Note_on_c, 6, 50, 105
8, 20256, Note_on_c, 6, 50, 0
8, 20400, Note_on_c, 6, 50, 115
8, 20496, Note_on_c, 6, 50, 0
8, 20640, Note_on_c, 6, 50, 117
8, 20736, Note_on_c, 6, 50, 0
8, 20880, Note_on_c, 6, 50, 120
8, 20976, Note_on_c, 6, 50, 0
8, 21120, Note_on_c, 6, 50, 127
8, 21312, Note_on_c, 6, 50, 0
8, 21480, Note_on_c, 6, 45, 80
8, 21576, Note_on_c, 6, 45, 0
8, 21600, Note_on_c, 6, 50, 80
8, 21763, Note_on_c, 6, 50, 0
8, 21960, Note_on_c, 6, 45, 119
8, 22071, Note_on_c, 6, 45, 0
8, 22080, Note_on_c, 6, 50, 119
8, 22243, Note_on_c, 6, 50, 0
8, 22440, Note_on_c, 6, 45, 120
8, 22551, Note_on_c, 6, 45, 0
8, 22560, Note_on_c, 6, 50, 120
8, 22656, Note_on_c, 6, 50, 0
8, 22680, Note_on_c, 6, 45, 120
8, 22776, Note_on_c, 6, 45, 0
8, 22800, Note_on_c, 6, 50, 120
8, 22896, Note_on_c, 6, 50, 0
8, 22920, Note_on_c, 6, 45, 120
8, 23016, Note_on_c, 6, 45, 0
8, 23040, Note_on_c, 6, 50, 120
8, 23136, Note_on_c, 6, 50, 0
8, 23280, Note_on_c, 6, 50, 120
8, 23424, Note_on_c, 6, 50, 0
8, 23460, Note_on_c, 6, 50, 120
8, 23517, Note_on_c, 6, 50, 0
8, 23520, Note_on_c, 6, 50, 120
8, 23568, Note_on_c, 6, 50, 0
8, 23640, Note_on_c, 6, 50, 120
8, 23688, Note_on_c, 6, 50, 0
8, 23760, Note_on_c, 6, 50, 120
8, 23808, Note_on_c, 6, 50, 0
8, 23880, Note_on_c, 6, 50, 120
8, 23928, Note_on_c, 6, 50, 0
8, 24000, Note_on_c, 6, 45, 120
8, 24096, Note_on_c, 6, 45, 0
8, 24480, Note_on_c, 6, 45, 120
8, 24576, Note_on_c, 6, 45, 0
8, 24960, Note_on_c, 6, 45, 119
8, 25056, Note_on_c, 6, 45, 0
8, 25440, Note_on_c, 6, 45, 117
8, 25536, Note_on_c, 6, 45, 0
8, 25920, Note_on_c, 6, 45, 125
8, 26016, Note_on_c, 6, 45, 0
8, 26160, Note_on_c, 6, 45, 125
8, 26256, Note_on_c, 6, 45, 0
8, 26400, Note_on_c, 6, 45, 125
8, 26496, Note_on_c, 6, 45, 0
8, 26640, Note_on_c, 6, 45, 125
8, 26736, Note_on_c, 6, 45, 0
8, 26880, Note_on_c, 6, 45, 125
8, 26992, Note_on_c, 6, 45, 0
8, 27000, Note_on_c, 6, 45, 125
8, 27096, Note_on_c, 6, 45, 0
8, 27120, Note_on_c, 6, 45, 123
8, 27232, Note_on_c, 6, 45, 0
8, 27240, Note_on_c, 6, 45, 122
8, 27352, Note_on_c, 6, 45, 0
8, 27360, Note_on_c, 6, 45, 117
8, 27585, Note_on_c, 6, 45, 0
8, 29760, Control_c, 6, 7, 96
8, 29774, Control_c, 6, 7, 95
8, 29789, Control_c, 6, 7, 94
8, 29804, Control_c, 6, 7, 93
8, 29819, Control_c, 6, 7, 92
8, 29834, Control_c, 6, 7, 91
8, 29849, Control_c, 6, 7, 90
8, 29864, Control_c, 6, 7, 89
8, 29879, Control_c, 6, 7, 88
8, 29894, Control_c, 6, 7, 87
8, 29909, Control_c, 6, 7, 86
8, 29924, Control_c, 6, 7, 85
8, 29939, Control_c, 6, 7, 84
8, 29954, Control_c, 6, 7, 83
8, 29969, Control_c, 6, 7, 82
8, 29984, Control_c, 6, 7, 81
8, 29999, Control_c, 6, 7, 80
8, 30014, Control_c, 6, 7, 79
8, 30029, Control_c, 6, 7, 78
8, 30044, Control_c, 6, 7, 77
8, 30059, Control_c, 6, 7, 76
8, 30074, Control_c, 6, 7, 75
8, 30089, Control_c, 6, 7, 74
8, 30104, Control_c, 6, 7, 73
8, 30119, Control_c, 6, 7, 72
8, 30134, Control_c, 6, 7, 71
8, 30149, Control_c, 6, 7, 70
8, 30164, Control_c, 6, 7, 69
8, 30179, Control_c, 6, 7, 68
8, 30194, Control_c, 6, 7, 67
8, 30209, Control_c, 6, 7, 66
8, 30224, Control_c, 6, 7, 65
8, 30239, Control_c, 6, 7, 64
8, 30240, Control_c, 6, 7, 96
8, 30254, Control_c, 6, 7, 95
8, 30269, Control_c, 6, 7, 94
8, 30284, Control_c, 6, 7, 93
8, 30299, Control_c, 6, 7, 92
8, 30314, Control_c, 6, 7, 91
8, 30329, Control_c, 6, 7, 90
8, 30344, Control_c, 6, 7, 89
8, 30359, Control_c, 6, 7, 88
8, 30374, Control_c, 6, 7, 87
8, 30389, Control_c, 6, 7, 86
8, 30404, Control_c, 6, 7, 85
8, 30419, Control_c, 6, 7, 84
8, 30434, Control_c, 6, 7, 83
8, 30449, Control_c, 6, 7, 82
8, 30464, Control_c, 6, 7, 81
8, 30479, Control_c, 6, 7, 80
8, 30494, Control_c, 6, 7, 79
8, 30509, Control_c, 6, 7, 78
8, 30524, Control_c, 6, 7, 77
8, 30539, Control_c, 6, 7, 76
8, 30554, Control_c, 6, 7, 75
8, 30569, Control_c, 6, 7, 74
8, 30584, Control_c, 6, 7, 73
8, 30599, Control_c, 6, 7, 72
8, 30614, Control_c, 6, 7, 71
8, 30629, Control_c, 6, 7, 70
8, 30644, Control_c, 6, 7, 69
8, 30659, Control_c, 6, 7, 68
8, 30674, Control_c, 6, 7, 67
8, 30689, Control_c, 6, 7, 66
8, 30704, Control_c, 6, 7, 65
8, 30719, Control_c, 6, 7, 64
8, 33600, Control_c, 6, 7, 96
8, 33614, Control_c, 6, 7, 95
8, 33629, Control_c, 6, 7, 94
8, 33644, Control_c, 6, 7, 93
8, 33659, Control_c, 6, 7, 92
8, 33674, Control_c, 6, 7, 91
8, 33689, Control_c, 6, 7, 90
8, 33704, Control_c, 6, 7, 89
8, 33719, Control_c, 6, 7, 88
8, 33734, Control_c, 6, 7, 87
8, 33749, Control_c, 6, 7, 86
8, 33764, Control_c, 6, 7, 85
8, 33779, Control_c, 6, 7, 84
8, 33794, Control_c, 6, 7, 83
8, 33809, Control_c, 6, 7, 82
8, 33824, Control_c, 6, 7, 81
8, 33839, Control_c, 6, 7, 80
8, 33854, Control_c, 6, 7, 79
8, 33869, Control_c, 6, 7, 78
8, 33884, Control_c, 6, 7, 77
8, 33899, Control_c, 6, 7, 76
8, 33914, Control_c, 6, 7, 75
8, 33929, Control_c, 6, 7, 74
8, 33944, Control_c, 6, 7, 73
8, 33959, Control_c, 6, 7, 72
8, 33974, Control_c, 6, 7, 71
8, 33989, Control_c, 6, 7, 70
8, 34004, Control_c, 6, 7, 69
8, 34019, Control_c, 6, 7, 68
8, 34034, Control_c, 6, 7, 67
8, 34049, Control_c, 6, 7, 66
8, 34064, Control_c, 6, 7, 65
8, 34079, Control_c, 6, 7, 64
8, 34080, Control_c, 6, 7, 96
8, 34094, Control_c, 6, 7, 95
8, 34109, Control_c, 6, 7, 94
8, 34124, Control_c, 6, 7, 93
8, 34139, Control_c, 6, 7, 92
8, 34154, Control_c, 6, 7, 91
8, 34169, Control_c, 6, 7, 90
8, 34184, Control_c, 6, 7, 89
8, 34199, Control_c, 6, 7, 88
8, 34214, Control_c, 6, 7, 87
8, 34229, Control_c, 6, 7, 86
8, 34244, Control_c, 6, 7, 85
8, 34259, Control_c, 6, 7, 84
8, 34274, Control_c, 6, 7, 83
8, 34289, Control_c, 6, 7, 82
8, 34304, Control_c, 6, 7, 81
8, 34319, Control_c, 6, 7, 80
8, 34334, Control_c, 6, 7, 79
8, 34349, Control_c, 6, 7, 78
8, 34364, Control_c, 6, 7, 77
8, 34379, Control_c, 6, 7, 76
8, 34394, Control_c, 6, 7, 75
8, 34409, Control_c, 6, 7, 74
8, 34424, Control_c, 6, 7, 73
8, 34439, Control_c, 6, 7, 72
8, 34454, Control_c, 6, 7, 71
8, 34469, Control_c, 6, 7, 70
8, 34484, Control_c, 6, 7, 69
8, 34499, Control_c, 6, 7, 68
8, 34514, Control_c, 6, 7, 67
8, 34529, Control_c, 6, 7, 66
8, 34544, Control_c, 6, 7, 65
8, 34559, Control_c, 6, 7, 64
8, 35670, Control_c, 6, 7, 126
8, 35760, Note_on_c, 6, 45, 121
8, 35856, Note_on_c, 6, 45, 0
8, 40320, Note_on_c, 6, 45, 119
8, 40416, Note_on_c, 6, 45, 0
8, 41280, Note_on_c, 6, 45, 119
8, 41376, Note_on_c, 6, 45, 0
8, 42240, Note_on_c, 6, 45, 124
8, 42336, Note_on_c, 6, 45, 0
8, 43200, Note_on_c, 6, 45, 121
8, 43296, Note_on_c, 6, 45, 0
8, 45120, Note_on_c, 6, 45, 122
8, 45216, Note_on_c, 6, 45, 0
8, 46200, Control_c, 6, 7, 96
8, 46200, Control_c, 6, 7, 96
8, 46207, Control_c, 6, 7, 95
8, 46207, Control_c, 6, 7, 95
8, 46214, Control_c, 6, 7, 94
8, 46214, Control_c, 6, 7, 94
8, 46222, Control_c, 6, 7, 93
8, 46222, Control_c, 6, 7, 93
8, 46229, Control_c, 6, 7, 92
8, 46229, Control_c, 6, 7, 92
8, 46237, Control_c, 6, 7, 91
8, 46237, Control_c, 6, 7, 91
8, 46244, Control_c, 6, 7, 90
8, 46244, Control_c, 6, 7, 90
8, 46252, Control_c, 6, 7, 89
8, 46252, Control_c, 6, 7, 89
8, 46259, Control_c, 6, 7, 88
8, 46259, Control_c, 6, 7, 88
8, 46267, Control_c, 6, 7, 87
8, 46267, Control_c, 6, 7, 87
8, 46274, Control_c, 6, 7, 86
8, 46274, Control_c, 6, 7, 86
8, 46282, Control_c, 6, 7, 85
8, 46282, Control_c, 6, 7, 85
8, 46289, Control_c, 6, 7, 84
8, 46289, Control_c, 6, 7, 84
8, 46297, Control_c, 6, 7, 83
8, 46297, Control_c, 6, 7, 83
8, 46304, Control_c, 6, 7, 82
8, 46304, Control_c, 6, 7, 82
8, 46312, Control_c, 6, 7, 81
8, 46312, Control_c, 6, 7, 81
8, 46319, Control_c, 6, 7, 80
8, 46319, Control_c, 6, 7, 80
8, 46326, Control_c, 6, 7, 79
8, 46326, Control_c, 6, 7, 79
8, 46334, Control_c, 6, 7, 78
8, 46334, Control_c, 6, 7, 78
8, 46341, Control_c, 6, 7, 77
8, 46341, Control_c, 6, 7, 77
8, 46349, Control_c, 6, 7, 76
8, 46349, Control_c, 6, 7, 76
8, 46356, Control_c, 6, 7, 75
8, 46356, Control_c, 6, 7, 75
8, 46364, Control_c, 6, 7, 74
8, 46364, Control_c, 6, 7, 74
8, 46371, Control_c, 6, 7, 73
8, 46371, Control_c, 6, 7, 73
8, 46379, Control_c, 6, 7, 72
8, 46379, Control_c, 6, 7, 72
8, 46386, Control_c, 6, 7, 71
8, 46386, Control_c, 6, 7, 71
8, 46394, Control_c, 6, 7, 70
8, 46394, Control_c, 6, 7, 70
8, 46401, Control_c, 6, 7, 69
8, 46401, Control_c, 6, 7, 69
8, 46409, Control_c, 6, 7, 68
8, 46409, Control_c, 6, 7, 68
8, 46416, Control_c, 6, 7, 67
8, 46416, Control_c, 6, 7, 67
8, 46424, Control_c, 6, 7, 66
8, 46424, Control_c, 6, 7, 66
8, 46431, Control_c, 6, 7, 65
8, 46431, Control_c, 6, 7, 65
8, 46439, Control_c, 6, 7, 64
8, 46439, Control_c, 6, 7, 64
8, 47160, Control_c, 6, 7, 96
8, 47160, Control_c, 6, 7, 96
8, 47167, Control_c, 6, 7, 95
8, 47167, Control_c, 6, 7, 95
8, 47175, Control_c, 6, 7, 94
8, 47175, Control_c, 6, 7, 94
8, 47182, Control_c, 6, 7, 93
8, 47182, Control_c, 6, 7, 93
8, 47190, Control_c, 6, 7, 92
8, 47190, Control_c, 6, 7, 92
8, 47197, Control_c, 6, 7, 91
8, 47197, Control_c, 6, 7, 91
8, 47205, Control_c, 6, 7, 90
8, 47205, Control_c, 6, 7, 90
8, 47212, Control_c, 6, 7, 89
8, 47212, Control_c, 6, 7, 89
8, 47220, Control_c, 6, 7, 88
8, 47220, Control_c, 6, 7, 88
8, 47227, Control_c, 6, 7, 87
8, 47227, Control_c, 6, 7, 87
8, 47235, Control_c, 6, 7, 86
8, 47235, Control_c, 6, 7, 86
8, 47242, Control_c, 6, 7, 85
8, 47242, Control_c, 6, 7, 85
8, 47250, Control_c, 6, 7, 84
8, 47250, Control_c, 6, 7, 84
8, 47257, Control_c, 6, 7, 83
8, 47257, Control_c, 6, 7, 83
8, 47265, Control_c, 6, 7, 82
8, 47265, Control_c, 6, 7, 82
8, 47272, Control_c, 6, 7, 81
8, 47272, Control_c, 6, 7, 81
8, 47280, Control_c, 6, 7, 80
8, 47280, Control_c, 6, 7, 80
8, 47287, Control_c, 6, 7, 79
8, 47287, Control_c, 6, 7, 79
8, 47295, Control_c, 6, 7, 78
8, 47295, Control_c, 6, 7, 78
8, 47302, Control_c, 6, 7, 77
8, 47302, Control_c, 6, 7, 77
8, 47310, Control_c, 6, 7, 76
8, 47310, Control_c, 6, 7, 76
8, 47317, Control_c, 6, 7, 75
8, 47317, Control_c, 6, 7, 75
8, 47325, Control_c, 6, 7, 74
8, 47325, Control_c, 6, 7, 74
8, 47332, Control_c, 6, 7, 73
8, 47332, Control_c, 6, 7, 73
8, 47340, Control_c, 6, 7, 72
8, 47340, Control_c, 6, 7, 72
8, 47347, Control_c, 6, 7, 71
8, 47347, Control_c, 6, 7, 71
8, 47355, Control_c, 6, 7, 70
8, 47355, Control_c, 6, 7, 70
8, 47362, Control_c, 6, 7, 69
8, 47362, Control_c, 6, 7, 69
8, 47370, Control_c, 6, 7, 68
8, 47370, Control_c, 6, 7, 68
8, 47377, Control_c, 6, 7, 67
8, 47377, Control_c, 6, 7, 67
8, 47385, Control_c, 6, 7, 66
8, 47385, Control_c, 6, 7, 66
8, 47392, Control_c, 6, 7, 65
8, 47392, Control_c, 6, 7, 65
8, 47400, Control_c, 6, 7, 64
8, 47400, Control_c, 6, 7, 64
8, 51840, Control_c, 6, 7, 64
8, 51840, Control_c, 6, 7, 64
8, 51869, Control_c, 6, 7, 65
8, 51869, Control_c, 6, 7, 65
8, 51899, Control_c, 6, 7, 66
8, 51899, Control_c, 6, 7, 66
8, 51929, Control_c, 6, 7, 67
8, 51929, Control_c, 6, 7, 67
8, 51959, Control_c, 6, 7, 68
8, 51959, Control_c, 6, 7, 68
8, 51989, Control_c, 6, 7, 69
8, 51989, Control_c, 6, 7, 69
8, 52019, Control_c, 6, 7, 70
8, 52019, Control_c, 6, 7, 70
8, 52049, Control_c, 6, 7, 71
8, 52049, Control_c, 6, 7, 71
8, 52079, Control_c, 6, 7, 72
8, 52079, Control_c, 6, 7, 72
8, 52109, Control_c, 6, 7, 73
8, 52109, Control_c, 6, 7, 73
8, 52139, Control_c, 6, 7, 74
8, 52139, Control_c, 6, 7, 74
8, 52169, Control_c, 6, 7, 75
8, 52169, Control_c, 6, 7, 75
8, 52199, Control_c, 6, 7, 76
8, 52199, Control_c, 6, 7, 76
8, 52229, Control_c, 6, 7, 77
8, 52229, Control_c, 6, 7, 77
8, 52259, Control_c, 6, 7, 78
8, 52259, Control_c, 6, 7, 78
8, 52289, Control_c, 6, 7, 79
8, 52289, Control_c, 6, 7, 79
8, 52319, Control_c, 6, 7, 80
8, 52319, Control_c, 6, 7, 80
8, 52349, Control_c, 6, 7, 81
8, 52349, Control_c, 6, 7, 81
8, 52379, Control_c, 6, 7, 82
8, 52379, Control_c, 6, 7, 82
8, 52409, Control_c, 6, 7, 83
8, 52409, Control_c, 6, 7, 83
8, 52439, Control_c, 6, 7, 84
8, 52439, Control_c, 6, 7, 84
8, 52469, Control_c, 6, 7, 85
8, 52469, Control_c, 6, 7, 85
8, 52499, Control_c, 6, 7, 86
8, 52499, Control_c, 6, 7, 86
8, 52529, Control_c, 6, 7, 87
8, 52529, Control_c, 6, 7, 87
8, 52559, Control_c, 6, 7, 88
8, 52559, Control_c, 6, 7, 88
8, 52589, Control_c, 6, 7, 89
8, 52589, Control_c, 6, 7, 89
8, 52619, Control_c, 6, 7, 90
8, 52619, Control_c, 6, 7, 90
8, 52649, Control_c, 6, 7, 91
8, 52649, Control_c, 6, 7, 91
8, 52679, Control_c, 6, 7, 92
8, 52679, Control_c, 6, 7, 92
8, 52709, Control_c, 6, 7, 93
8, 52709, Control_c, 6, 7, 93
8, 52739, Control_c, 6, 7, 94
8, 52739, Control_c, 6, 7, 94
8, 52769, Control_c, 6, 7, 95
8, 52769, Control_c, 6, 7, 95
8, 52799, Control_c, 6, 7, 96
8, 52799, Control_c, 6, 7, 96
8, 52800, Control_c, 6, 7, 96
8, 52800, Control_c, 6, 7, 96
8, 52814, Control_c, 6, 7, 95
8, 52814, Control_c, 6, 7, 95
8, 52829, Control_c, 6, 7, 94
8, 52829, Control_c, 6, 7, 94
8, 52844, Control_c, 6, 7, 93
8, 52844, Control_c, 6, 7, 93
8, 52859, Control_c, 6, 7, 92
8, 52859, Control_c, 6, 7, 92
8, 52874, Control_c, 6, 7, 91
8, 52874, Control_c, 6, 7, 91
8, 52889, Control_c, 6, 7, 90
8, 52889, Control_c, 6, 7, 90
8, 52904, Control_c, 6, 7, 89
8, 52904, Control_c, 6, 7, 89
8, 52919, Control_c, 6, 7, 88
8, 52919, Control_c, 6, 7, 88
8, 52934, Control_c, 6, 7, 87
8, 52934, Control_c, 6, 7, 87
8, 52949, Control_c, 6, 7, 86
8, 52949, Control_c, 6, 7, 86
8, 52964, Control_c, 6, 7, 85
8, 52964, Control_c, 6, 7, 85
8, 52979, Control_c, 6, 7, 84
8, 52979, Control_c, 6, 7, 84
8, 52994, Control_c, 6, 7, 83
8, 52994, Control_c, 6, 7, 83
8, 53009, Control_c, 6, 7, 82
8, 53009, Control_c, 6, 7, 82
8, 53024, Control_c, 6, 7, 81
8, 53024, Control_c, 6, 7, 81
8, 53039, Control_c, 6, 7, 80
8, 53039, Control_c, 6, 7, 80
8, 53054, Control_c, 6, 7, 79
8, 53054, Control_c, 6, 7, 79
8, 53069, Control_c, 6, 7, 78
8, 53069, Control_c, 6, 7, 78
8, 53084, Control_c, 6, 7, 77
8, 53084, Control_c, 6, 7, 77
8, 53099, Control_c, 6, 7, 76
8, 53099, Control_c, 6, 7, 76
8, 53114, Control_c, 6, 7, 75
8, 53114, Control_c, 6, 7, 75
8, 53129, Control_c, 6, 7, 74
8, 53129, Control_c, 6, 7, 74
8, 53144, Control_c, 6, 7, 73
8, 53144, Control_c, 6, 7, 73
8, 53159, Control_c, 6, 7, 72
8, 53159, Control_c, 6, 7, 72
8, 53174, Control_c, 6, 7, 71
8, 53174, Control_c, 6, 7, 71
8, 53189, Control_c, 6, 7, 70
8, 53189, Control_c, 6, 7, 70
8, 53204, Control_c, 6, 7, 69
8, 53204, Control_c, 6, 7, 69
8, 53219, Control_c, 6, 7, 68
8, 53219, Control_c, 6, 7, 68
8, 53234, Control_c, 6, 7, 67
8, 53234, Control_c, 6, 7, 67
8, 53249, Control_c, 6, 7, 66
8, 53249, Control_c, 6, 7, 66
8, 53264, Control_c, 6, 7, 65
8, 53264, Control_c, 6, 7, 65
8, 53279, Control_c, 6, 7, 64
8, 53279, Control_c, 6, 7, 64
8, 53760, Control_c, 6, 7, 64
8, 53760, Control_c, 6, 7, 64
8, 53789, Control_c, 6, 7, 65
8, 53789, Control_c, 6, 7, 65
8, 53819, Control_c, 6, 7, 66
8, 53819, Control_c, 6, 7, 66
8, 53849, Control_c, 6, 7, 67
8, 53849, Control_c, 6, 7, 67
8, 53879, Control_c, 6, 7, 68
8, 53879, Control_c, 6, 7, 68
8, 53909, Control_c, 6, 7, 69
8, 53909, Control_c, 6, 7, 69
8, 53939, Control_c, 6, 7, 70
8, 53939, Control_c, 6, 7, 70
8, 53969, Control_c, 6, 7, 71
8, 53969, Control_c, 6, 7, 71
8, 53999, Control_c, 6, 7, 72
8, 53999, Control_c, 6, 7, 72
8, 54029, Control_c, 6, 7, 73
8, 54029, Control_c, 6, 7, 73
8, 54059, Control_c, 6, 7, 74
8, 54059, Control_c, 6, 7, 74
8, 54089, Control_c, 6, 7, 75
8, 54089, Control_c, 6, 7, 75
8, 54119, Control_c, 6, 7, 76
8, 54119, Control_c, 6, 7, 76
8, 54149, Control_c, 6, 7, 77
8, 54149, Control_c, 6, 7, 77
8, 54179, Control_c, 6, 7, 78
8, 54179, Control_c, 6, 7, 78
8, 54209, Control_c, 6, 7, 79
8, 54209, Control_c, 6, 7, 79
8, 54239, Control_c, 6, 7, 80
8, 54239, Control_c, 6, 7, 80
8, 54269, Control_c, 6, 7, 81
8, 54269, Control_c, 6, 7, 81
8, 54299, Control_c, 6, 7, 82
8, 54299, Control_c, 6, 7, 82
8, 54329, Control_c, 6, 7, 83
8, 54329, Control_c, 6, 7, 83
8, 54359, Control_c, 6, 7, 84
8, 54359, Control_c, 6, 7, 84
8, 54389, Control_c, 6, 7, 85
8, 54389, Control_c, 6, 7, 85
8, 54419, Control_c, 6, 7, 86
8, 54419, Control_c, 6, 7, 86
8, 54449, Control_c, 6, 7, 87
8, 54449, Control_c, 6, 7, 87
8, 54479, Control_c, 6, 7, 88
8, 54479, Control_c, 6, 7, 88
8, 54509, Control_c, 6, 7, 89
8, 54509, Control_c, 6, 7, 89
8, 54539, Control_c, 6, 7, 90
8, 54539, Control_c, 6, 7, 90
8, 54569, Control_c, 6, 7, 91
8, 54569, Control_c, 6, 7, 91
8, 54599, Control_c, 6, 7, 92
8, 54599, Control_c, 6, 7, 92
8, 54629, Control_c, 6, 7, 93
8, 54629, Control_c, 6, 7, 93
8, 54659, Control_c, 6, 7, 94
8, 54659, Control_c, 6, 7, 94
8, 54689, Control_c, 6, 7, 95
8, 54689, Control_c, 6, 7, 95
8, 54719, Control_c, 6, 7, 96
8, 54719, Control_c, 6, 7, 96
8, 54720, Control_c, 6, 7, 96
8, 54720, Control_c, 6, 7, 96
8, 54734, Control_c, 6, 7, 95
8, 54734, Control_c, 6, 7, 95
8, 54749, Control_c, 6, 7, 94
8, 54749, Control_c, 6, 7, 94
8, 54764, Control_c, 6, 7, 93
8, 54764, Control_c, 6, 7, 93
8, 54779, Control_c, 6, 7, 92
8, 54779, Control_c, 6, 7, 92
8, 54794, Control_c, 6, 7, 91
8, 54794, Control_c, 6, 7, 91
8, 54809, Control_c, 6, 7, 90
8, 54809, Control_c, 6, 7, 90
8, 54824, Control_c, 6, 7, 89
8, 54824, Control_c, 6, 7, 89
8, 54839, Control_c, 6, 7, 88
8, 54839, Control_c, 6, 7, 88
8, 54854, Control_c, 6, 7, 87
8, 54854, Control_c, 6, 7, 87
8, 54869, Control_c, 6, 7, 86
8, 54869, Control_c, 6, 7, 86
8, 54884, Control_c, 6, 7, 85
8, 54884, Control_c, 6, 7, 85
8, 54899, Control_c, 6, 7, 84
8, 54899, Control_c, 6, 7, 84
8, 54914, Control_c, 6, 7, 83
8, 54914, Control_c, 6, 7, 83
8, 54929, Control_c, 6, 7, 82
8, 54929, Control_c, 6, 7, 82
8, 54944, Control_c, 6, 7, 81
8, 54944, Control_c, 6, 7, 81
8, 54959, Control_c, 6, 7, 80
8, 54959, Control_c, 6, 7, 80
8, 54974, Control_c, 6, 7, 79
8, 54974, Control_c, 6, 7, 79
8, 54989, Control_c, 6, 7, 78
8, 54989, Control_c, 6, 7, 78
8, 55004, Control_c, 6, 7, 77
8, 55004, Control_c, 6, 7, 77
8, 55019, Control_c, 6, 7, 76
8, 55019, Control_c, 6, 7, 76
8, 55034, Control_c, 6, 7, 75
8, 55034, Control_c, 6, 7, 75
8, 55049, Control_c, 6, 7, 74
8, 55049, Control_c, 6, 7, 74
8, 55064, Control_c, 6, 7, 73
8, 55064, Control_c, 6, 7, 73
8, 55079, Control_c, 6, 7, 72
8, 55079, Control_c, 6, 7, 72
8, 55094, Control_c, 6, 7, 71
8, 55094, Control_c, 6, 7, 71
8, 55109, Control_c, 6, 7, 70
8, 55109, Control_c, 6, 7, 70
8, 55124, Control_c, 6, 7, 69
8, 55124, Control_c, 6, 7, 69
8, 55139, Control_c, 6, 7, 68
8, 55139, Control_c, 6, 7, 68
8, 55154, Control_c, 6, 7, 67
8, 55154, Control_c, 6, 7, 67
8, 55169, Control_c, 6, 7, 66
8, 55169, Control_c, 6, 7, 66
8, 55184, Control_c, 6, 7, 65
8, 55184, Control_c, 6, 7, 65
8, 55199, Control_c, 6, 7, 64
8, 55199, Control_c, 6, 7, 64
8, 55680, Control_c, 6, 7, 64
8, 55680, Control_c, 6, 7, 64
8, 55709, Control_c, 6, 7, 65
8, 55709, Control_c, 6, 7, 65
8, 55739, Control_c, 6, 7, 66
8, 55739, Control_c, 6, 7, 66
8, 55769, Control_c, 6, 7, 67
8, 55769, Control_c, 6, 7, 67
8, 55799, Control_c, 6, 7, 68
8, 55799, Control_c, 6, 7, 68
8, 55829, Control_c, 6, 7, 69
8, 55829, Control_c, 6, 7, 69
8, 55859, Control_c, 6, 7, 70
8, 55859, Control_c, 6, 7, 70
8, 55889, Control_c, 6, 7, 71
8, 55889, Control_c, 6, 7, 71
8, 55919, Control_c, 6, 7, 72
8, 55919, Control_c, 6, 7, 72
8, 55949, Control_c, 6, 7, 73
8, 55949, Control_c, 6, 7, 73
8, 55979, Control_c, 6, 7, 74
8, 55979, Control_c, 6, 7, 74
8, 56009, Control_c, 6, 7, 75
8, 56009, Control_c, 6, 7, 75
8, 56039, Control_c, 6, 7, 76
8, 56039, Control_c, 6, 7, 76
8, 56069, Control_c, 6, 7, 77
8, 56069, Control_c, 6, 7, 77
8, 56099, Control_c, 6, 7, 78
8, 56099, Control_c, 6, 7, 78
8, 56129, Control_c, 6, 7, 79
8, 56129, Control_c, 6, 7, 79
8, 56159, Control_c, 6, 7, 80
8, 56159, Control_c, 6, 7, 80
8, 56189, Control_c, 6, 7, 81
8, 56189, Control_c, 6, 7, 81
8, 56219, Control_c, 6, 7, 82
8, 56219, Control_c, 6, 7, 82
8, 56249, Control_c, 6, 7, 83
8, 56249, Control_c, 6, 7, 83
8, 56279, Control_c, 6, 7, 84
8, 56279, Control_c, 6, 7, 84
8, 56309, Control_c, 6, 7, 85
8, 56309, Control_c, 6, 7, 85
8, 56339, Control_c, 6, 7, 86
8, 56339, Control_c, 6, 7, 86
8, 56369, Control_c, 6, 7, 87
8, 56369, Control_c, 6, 7, 87
8, 56399, Control_c, 6, 7, 88
8, 56399, Control_c, 6, 7, 88
8, 56429, Control_c, 6, 7, 89
8, 56429, Control_c, 6, 7, 89
8, 56459, Control_c, 6, 7, 90
8, 56459, Control_c, 6, 7, 90
8, 56489, Control_c, 6, 7, 91
8, 56489, Control_c, 6, 7, 91
8, 56519, Control_c, 6, 7, 92
8, 56519, Control_c, 6, 7, 92
8, 56549, Control_c, 6, 7, 93
8, 56549, Control_c, 6, 7, 93
8, 56579, Control_c, 6, 7, 94
8, 56579, Control_c, 6, 7, 94
8, 56609, Control_c, 6, 7, 95
8, 56609, Control_c, 6, 7, 95
8, 56639, Control_c, 6, 7, 96
8, 56639, Control_c, 6, 7, 96
8, 56640, Control_c, 6, 7, 96
8, 56640, Control_c, 6, 7, 96
8, 56654, Control_c, 6, 7, 95
8, 56654, Control_c, 6, 7, 95
8, 56669, Control_c, 6, 7, 94
8, 56669, Control_c, 6, 7, 94
8, 56684, Control_c, 6, 7, 93
8, 56684, Control_c, 6, 7, 93
8, 56699, Control_c, 6, 7, 92
8, 56699, Control_c, 6, 7, 92
8, 56714, Control_c, 6, 7, 91
8, 56714, Control_c, 6, 7, 91
8, 56729, Control_c, 6, 7, 90
8, 56729, Control_c, 6, 7, 90
8, 56744, Control_c, 6, 7, 89
8, 56744, Control_c, 6, 7, 89
8, 56759, Control_c, 6, 7, 88
8, 56759, Control_c, 6, 7, 88
8, 56774, Control_c, 6, 7, 87
8, 56774, Control_c, 6, 7, 87
8, 56789, Control_c, 6, 7, 86
8, 56789, Control_c, 6, 7, 86
8, 56804, Control_c, 6, 7, 85
8, 56804, Control_c, 6, 7, 85
8, 56819, Control_c, 6, 7, 84
8, 56819, Control_c, 6, 7, 84
8, 56834, Control_c, 6, 7, 83
8, 56834, Control_c, 6, 7, 83
8, 56849, Control_c, 6, 7, 82
8, 56849, Control_c, 6, 7, 82
8, 56864, Control_c, 6, 7, 81
8, 56864, Control_c, 6, 7, 81
8, 56879, Control_c, 6, 7, 80
8, 56879, Control_c, 6, 7, 80
8, 56894, Control_c, 6, 7, 79
8, 56894, Control_c, 6, 7, 79
8, 56909, Control_c, 6, 7, 78
8, 56909, Control_c, 6, 7, 78
8, 56924, Control_c, 6, 7, 77
8, 56924, Control_c, 6, 7, 77
8, 56939, Control_c, 6, 7, 76
8, 56939, Control_c, 6, 7, 76
8, 56954, Control_c, 6, 7, 75
8, 56954, Control_c, 6, 7, 75
8, 56969, Control_c, 6, 7, 74
8, 56969, Control_c, 6, 7, 74
8, 56984, Control_c, 6, 7, 73
8, 56984, Control_c, 6, 7, 73
8, 56999, Control_c, 6, 7, 72
8, 56999, Control_c, 6, 7, 72
8, 57014, Control_c, 6, 7, 71
8, 57014, Control_c, 6, 7, 71
8, 57029, Control_c, 6, 7, 70
8, 57029, Control_c, 6, 7, 70
8, 57044, Control_c, 6, 7, 69
8, 57044, Control_c, 6, 7, 69
8, 57059, Control_c, 6, 7, 68
8, 57059, Control_c, 6, 7, 68
8, 57074, Control_c, 6, 7, 67
8, 57074, Control_c, 6, 7, 67
8, 57089, Control_c, 6, 7, 66
8, 57089, Control_c, 6, 7, 66
8, 57104, Control_c, 6, 7, 65
8, 57104, Control_c, 6, 7, 65
8, 57119, Control_c, 6, 7, 64
8, 57119, Control_c, 6, 7, 64
8, 57600, Control_c, 6, 7, 64
8, 57600, Control_c, 6, 7, 64
8, 57629, Control_c, 6, 7, 65
8, 57629, Control_c, 6, 7, 65
8, 57659, Control_c, 6, 7, 66
8, 57659, Control_c, 6, 7, 66
8, 57689, Control_c, 6, 7, 67
8, 57689, Control_c, 6, 7, 67
8, 57719, Control_c, 6, 7, 68
8, 57719, Control_c, 6, 7, 68
8, 57749, Control_c, 6, 7, 69
8, 57749, Control_c, 6, 7, 69
8, 57779, Control_c, 6, 7, 70
8, 57779, Control_c, 6, 7, 70
8, 57809, Control_c, 6, 7, 71
8, 57809, Control_c, 6, 7, 71
8, 57839, Control_c, 6, 7, 72
8, 57839, Control_c, 6, 7, 72
8, 57869, Control_c, 6, 7, 73
8, 57869, Control_c, 6, 7, 73
8, 57899, Control_c, 6, 7, 74
8, 57899, Control_c, 6, 7, 74
8, 57929, Control_c, 6, 7, 75
8, 57929, Control_c, 6, 7, 75
8, 57959, Control_c, 6, 7, 76
8, 57959, Control_c, 6, 7, 76
8, 57989, Control_c, 6, 7, 77
8, 57989, Control_c, 6, 7, 77
8, 58019, Control_c, 6, 7, 78
8, 58019, Control_c, 6, 7, 78
8, 58049, Control_c, 6, 7, 79
8, 58049, Control_c, 6, 7, 79
8, 58079, Control_c, 6, 7, 80
8, 58079, Control_c, 6, 7, 80
8, 58109, Control_c, 6, 7, 81
8, 58109, Control_c, 6, 7, 81
8, 58139, Control_c, 6, 7, 82
8, 58139, Control_c, 6, 7, 82
8, 58169, Control_c, 6, 7, 83
8, 58169, Control_c, 6, 7, 83
8, 58199, Control_c, 6, 7, 84
8, 58199, Control_c, 6, 7, 84
8, 58229, Control_c, 6, 7, 85
8, 58229, Control_c, 6, 7, 85
8, 58259, Control_c, 6, 7, 86
8, 58259, Control_c, 6, 7, 86
8, 58289, Control_c, 6, 7, 87
8, 58289, Control_c, 6, 7, 87
8, 58319, Control_c, 6, 7, 88
8, 58319, Control_c, 6, 7, 88
8, 58349, Control_c, 6, 7, 89
8, 58349, Control_c, 6, 7, 89
8, 58379, Control_c, 6, 7, 90
8, 58379, Control_c, 6, 7, 90
8, 58409, Control_c, 6, 7, 91
8, 58409, Control_c, 6, 7, 91
8, 58439, Control_c, 6, 7, 92
8, 58439, Control_c, 6, 7, 92
8, 58469, Control_c, 6, 7, 93
8, 58469, Control_c, 6, 7, 93
8, 58499, Control_c, 6, 7, 94
8, 58499, Control_c, 6, 7, 94
8, 58529, Control_c, 6, 7, 95
8, 58529, Control_c, 6, 7, 95
8, 58559, Control_c, 6, 7, 96
8, 58559, Control_c, 6, 7, 96
8, 58560, Note_on_c, 6, 45, 99
8, 58560, Control_c, 6, 7, 96
8, 58560, Control_c, 6, 7, 96
8, 58574, Control_c, 6, 7, 95
8, 58574, Control_c, 6, 7, 95
8, 58589, Control_c, 6, 7, 94
8, 58589, Control_c, 6, 7, 94
8, 58604, Control_c, 6, 7, 93
8, 58604, Control_c, 6, 7, 93
8, 58619, Control_c, 6, 7, 92
8, 58619, Control_c, 6, 7, 92
8, 58634, Control_c, 6, 7, 91
8, 58634, Control_c, 6, 7, 91
8, 58649, Control_c, 6, 7, 90
8, 58649, Control_c, 6, 7, 90
8, 58656, Note_on_c, 6, 45, 0
8, 58664, Control_c, 6, 7, 89
8, 58664, Control_c, 6, 7, 89
8, 58679, Control_c, 6, 7, 88
8, 58679, Control_c, 6, 7, 88
8, 58694, Control_c, 6, 7, 87
8, 58694, Control_c, 6, 7, 87
8, 58709, Control_c, 6, 7, 86
8, 58709, Control_c, 6, 7, 86
8, 58724, Control_c, 6, 7, 85
8, 58724, Control_c, 6, 7, 85
8, 58739, Control_c, 6, 7, 84
8, 58739, Control_c, 6, 7, 84
8, 58754, Control_c, 6, 7, 83
8, 58754, Control_c, 6, 7, 83
8, 58769, Control_c, 6, 7, 82
8, 58769, Control_c, 6, 7, 82
8, 58784, Control_c, 6, 7, 81
8, 58784, Control_c, 6, 7, 81
8, 58799, Control_c, 6, 7, 80
8, 58799, Control_c, 6, 7, 80
8, 58814, Control_c, 6, 7, 79
8, 58814, Control_c, 6, 7, 79
8, 58829, Control_c, 6, 7, 78
8, 58829, Control_c, 6, 7, 78
8, 58844, Control_c, 6, 7, 77
8, 58844, Control_c, 6, 7, 77
8, 58859, Control_c, 6, 7, 76
8, 58859, Control_c, 6, 7, 76
8, 58874, Control_c, 6, 7, 75
8, 58874, Control_c, 6, 7, 75
8, 58889, Control_c, 6, 7, 74
8, 58889, Control_c, 6, 7, 74
8, 58904, Control_c, 6, 7, 73
8, 58904, Control_c, 6, 7, 73
8, 58919, Control_c, 6, 7, 72
8, 58919, Control_c, 6, 7, 72
8, 58934, Control_c, 6, 7, 71
8, 58934, Control_c, 6, 7, 71
8, 58949, Control_c, 6, 7, 70
8, 58949, Control_c, 6, 7, 70
8, 58964, Control_c, 6, 7, 69
8, 58964, Control_c, 6, 7, 69
8, 58979, Control_c, 6, 7, 68
8, 58979, Control_c, 6, 7, 68
8, 58994, Control_c, 6, 7, 67
8, 58994, Control_c, 6, 7, 67
8, 59009, Control_c, 6, 7, 66
8, 59009, Control_c, 6, 7, 66
8, 59024, Control_c, 6, 7, 65
8, 59024, Control_c, 6, 7, 65
8, 59039, Control_c, 6, 7, 64
8, 59039, Control_c, 6, 7, 64
8, 59520, Note_on_c, 6, 45, 111
8, 59616, Note_on_c, 6, 45, 0
8, 60240, Control_c, 6, 7, 64
8, 60240, Control_c, 6, 7, 64
8, 60240, Control_c, 6, 7, 64
8, 60243, Control_c, 6, 7, 65
8, 60243, Control_c, 6, 7, 65
8, 60243, Control_c, 6, 7, 65
8, 60247, Control_c, 6, 7, 66
8, 60247, Control_c, 6, 7, 66
8, 60247, Control_c, 6, 7, 66
8, 60251, Control_c, 6, 7, 67
8, 60251, Control_c, 6, 7, 67
8, 60251, Control_c, 6, 7, 67
8, 60255, Control_c, 6, 7, 68
8, 60255, Control_c, 6, 7, 68
8, 60255, Control_c, 6, 7, 68
8, 60259, Control_c, 6, 7, 69
8, 60259, Control_c, 6, 7, 69
8, 60259, Control_c, 6, 7, 69
8, 60262, Control_c, 6, 7, 70
8, 60262, Control_c, 6, 7, 70
8, 60262, Control_c, 6, 7, 70
8, 60266, Control_c, 6, 7, 71
8, 60266, Control_c, 6, 7, 71
8, 60266, Control_c, 6, 7, 71
8, 60270, Control_c, 6, 7, 72
8, 60270, Control_c, 6, 7, 72
8, 60270, Control_c, 6, 7, 72
8, 60274, Control_c, 6, 7, 73
8, 60274, Control_c, 6, 7, 73
8, 60274, Control_c, 6, 7, 73
8, 60278, Control_c, 6, 7, 74
8, 60278, Control_c, 6, 7, 74
8, 60278, Control_c, 6, 7, 74
8, 60281, Control_c, 6, 7, 75
8, 60281, Control_c, 6, 7, 75
8, 60281, Control_c, 6, 7, 75
8, 60285, Control_c, 6, 7, 76
8, 60285, Control_c, 6, 7, 76
8, 60285, Control_c, 6, 7, 76
8, 60289, Control_c, 6, 7, 77
8, 60289, Control_c, 6, 7, 77
8, 60289, Control_c, 6, 7, 77
8, 60293, Control_c, 6, 7, 78
8, 60293, Control_c, 6, 7, 78
8, 60293, Control_c, 6, 7, 78
8, 60297, Control_c, 6, 7, 79
8, 60297, Control_c, 6, 7, 79
8, 60297, Control_c, 6, 7, 79
8, 60300, Control_c, 6, 7, 80
8, 60300, Control_c, 6, 7, 80
8, 60300, Control_c, 6, 7, 80
8, 60304, Control_c, 6, 7, 81
8, 60304, Control_c, 6, 7, 81
8, 60304, Control_c, 6, 7, 81
8, 60308, Control_c, 6, 7, 82
8, 60308, Control_c, 6, 7, 82
8, 60308, Control_c, 6, 7, 82
8, 60312, Control_c, 6, 7, 83
8, 60312, Control_c, 6, 7, 83
8, 60312, Control_c, 6, 7, 83
8, 60316, Control_c, 6, 7, 84
8, 60316, Control_c, 6, 7, 84
8, 60316, Control_c, 6, 7, 84
8, 60320, Control_c, 6, 7, 85
8, 60320, Control_c, 6, 7, 85
8, 60320, Control_c, 6, 7, 85
8, 60323, Control_c, 6, 7, 86
8, 60323, Control_c, 6, 7, 86
8, 60323, Control_c, 6, 7, 86
8, 60327, Control_c, 6, 7, 87
8, 60327, Control_c, 6, 7, 87
8, 60327, Control_c, 6, 7, 87
8, 60331, Control_c, 6, 7, 88
8, 60331, Control_c, 6, 7, 88
8, 60331, Control_c, 6, 7, 88
8, 60335, Control_c, 6, 7, 89
8, 60335, Control_c, 6, 7, 89
8, 60335, Control_c, 6, 7, 89
8, 60339, Control_c, 6, 7, 90
8, 60339, Control_c, 6, 7, 90
8, 60339, Control_c, 6, 7, 90
8, 60342, Control_c, 6, 7, 91
8, 60342, Control_c, 6, 7, 91
8, 60342, Control_c, 6, 7, 91
8, 60346, Control_c, 6, 7, 92
8, 60346, Control_c, 6, 7, 92
8, 60346, Control_c, 6, 7, 92
8, 60350, Control_c, 6, 7, 93
8, 60350, Control_c, 6, 7, 93
8, 60350, Control_c, 6, 7, 93
8, 60354, Control_c, 6, 7, 94
8, 60354, Control_c, 6, 7, 94
8, 60354, Control_c, 6, 7, 94
8, 60358, Control_c, 6, 7, 95
8, 60358, Control_c, 6, 7, 95
8, 60358, Control_c, 6, 7, 95
8, 60361, Control_c, 6, 7, 96
8, 60361, Control_c, 6, 7, 96
8, 60361, Control_c, 6, 7, 96
8, 60365, Control_c, 6, 7, 97
8, 60365, Control_c, 6, 7, 97
8, 60365, Control_c, 6, 7, 97
8, 60369, Control_c, 6, 7, 98
8, 60369, Control_c, 6, 7, 98
8, 60369, Control_c, 6, 7, 98
8, 60373, Control_c, 6, 7, 99
8, 60373, Control_c, 6, 7, 99
8, 60373, Control_c, 6, 7, 99
8, 60377, Control_c, 6, 7, 100
8, 60377, Control_c, 6, 7, 100
8, 60377, Control_c, 6, 7, 100
8, 60380, Control_c, 6, 7, 101
8, 60380, Control_c, 6, 7, 101
8, 60380, Control_c, 6, 7, 101
8, 60384, Control_c, 6, 7, 102
8, 60384, Control_c, 6, 7, 102
8, 60384, Control_c, 6, 7, 102
8, 60388, Control_c, 6, 7, 103
8, 60388, Control_c, 6, 7, 103
8, 60388, Control_c, 6, 7, 103
8, 60392, Control_c, 6, 7, 104
8, 60392, Control_c, 6, 7, 104
8, 60392, Control_c, 6, 7, 104
8, 60396, Control_c, 6, 7, 105
8, 60396, Control_c, 6, 7, 105
8, 60396, Control_c, 6, 7, 105
8, 60400, Control_c, 6, 7, 106
8, 60400, Control_c, 6, 7, 106
8, 60400, Control_c, 6, 7, 106
8, 60403, Control_c, 6, 7, 107
8, 60403, Control_c, 6, 7, 107
8, 60403, Control_c, 6, 7, 107
8, 60407, Control_c, 6, 7, 108
8, 60407, Control_c, 6, 7, 108
8, 60407, Control_c, 6, 7, 108
8, 60411, Control_c, 6, 7, 109
8, 60411, Control_c, 6, 7, 109
8, 60411, Control_c, 6, 7, 109
8, 60415, Control_c, 6, 7, 110
8, 60415, Control_c, 6, 7, 110
8, 60415, Control_c, 6, 7, 110
8, 60419, Control_c, 6, 7, 111
8, 60419, Control_c, 6, 7, 111
8, 60419, Control_c, 6, 7, 111
8, 60422, Control_c, 6, 7, 112
8, 60422, Control_c, 6, 7, 112
8, 60422, Control_c, 6, 7, 112
8, 60426, Control_c, 6, 7, 113
8, 60426, Control_c, 6, 7, 113
8, 60426, Control_c, 6, 7, 113
8, 60430, Control_c, 6, 7, 114
8, 60430, Control_c, 6, 7, 114
8, 60430, Control_c, 6, 7, 114
8, 60434, Control_c, 6, 7, 115
8, 60434, Control_c, 6, 7, 115
8, 60434, Control_c, 6, 7, 115
8, 60438, Control_c, 6, 7, 116
8, 60438, Control_c, 6, 7, 116
8, 60438, Control_c, 6, 7, 116
8, 60441, Control_c, 6, 7, 117
8, 60441, Control_c, 6, 7, 117
8, 60441, Control_c, 6, 7, 117
8, 60445, Control_c, 6, 7, 118
8, 60445, Control_c, 6, 7, 118
8, 60445, Control_c, 6, 7, 118
8, 60449, Control_c, 6, 7, 119
8, 60449, Control_c, 6, 7, 119
8, 60449, Control_c, 6, 7, 119
8, 60453, Control_c, 6, 7, 120
8, 60453, Control_c, 6, 7, 120
8, 60453, Control_c, 6, 7, 120
8, 60457, Control_c, 6, 7, 121
8, 60457, Control_c, 6, 7, 121
8, 60457, Control_c, 6, 7, 121
8, 60460, Control_c, 6, 7, 122
8, 60460, Control_c, 6, 7, 122
8, 60460, Control_c, 6, 7, 122
8, 60464, Control_c, 6, 7, 123
8, 60464, Control_c, 6, 7, 123
8, 60464, Control_c, 6, 7, 123
8, 60468, Control_c, 6, 7, 124
8, 60468, Control_c, 6, 7, 124
8, 60468, Control_c, 6, 7, 124
8, 60472, Control_c, 6, 7, 125
8, 60472, Control_c, 6, 7, 125
8, 60472, Control_c, 6, 7, 125
8, 60476, Control_c, 6, 7, 126
8, 60476, Control_c, 6, 7, 126
8, 60476, Control_c, 6, 7, 126
8, 60480, Note_on_c, 6, 45, 113
8, 60576, Note_on_c, 6, 45, 0
8, 61440, Note_on_c, 6, 45, 124
8, 61536, Note_on_c, 6, 45, 0
8, 62160, Control_c, 6, 7, 64
8, 62160, Control_c, 6, 7, 64
8, 62160, Control_c, 6, 7, 64
8, 62163, Control_c, 6, 7, 65
8, 62163, Control_c, 6, 7, 65
8, 62163, Control_c, 6, 7, 65
8, 62167, Control_c, 6, 7, 66
8, 62167, Control_c, 6, 7, 66
8, 62167, Control_c, 6, 7, 66
8, 62171, Control_c, 6, 7, 67
8, 62171, Control_c, 6, 7, 67
8, 62171, Control_c, 6, 7, 67
8, 62175, Control_c, 6, 7, 68
8, 62175, Control_c, 6, 7, 68
8, 62175, Control_c, 6, 7, 68
8, 62179, Control_c, 6, 7, 69
8, 62179, Control_c, 6, 7, 69
8, 62179, Control_c, 6, 7, 69
8, 62182, Control_c, 6, 7, 70
8, 62182, Control_c, 6, 7, 70
8, 62182, Control_c, 6, 7, 70
8, 62186, Control_c, 6, 7, 71
8, 62186, Control_c, 6, 7, 71
8, 62186, Control_c, 6, 7, 71
8, 62190, Control_c, 6, 7, 72
8, 62190, Control_c, 6, 7, 72
8, 62190, Control_c, 6, 7, 72
8, 62194, Control_c, 6, 7, 73
8, 62194, Control_c, 6, 7, 73
8, 62194, Control_c, 6, 7, 73
8, 62198, Control_c, 6, 7, 74
8, 62198, Control_c, 6, 7, 74
8, 62198, Control_c, 6, 7, 74
8, 62201, Control_c, 6, 7, 75
8, 62201, Control_c, 6, 7, 75
8, 62201, Control_c, 6, 7, 75
8, 62205, Control_c, 6, 7, 76
8, 62205, Control_c, 6, 7, 76
8, 62205, Control_c, 6, 7, 76
8, 62209, Control_c, 6, 7, 77
8, 62209, Control_c, 6, 7, 77
8, 62209, Control_c, 6, 7, 77
8, 62213, Control_c, 6, 7, 78
8, 62213, Control_c, 6, 7, 78
8, 62213, Control_c, 6, 7, 78
8, 62217, Control_c, 6, 7, 79
8, 62217, Control_c, 6, 7, 79
8, 62217, Control_c, 6, 7, 79
8, 62220, Control_c, 6, 7, 80
8, 62220, Control_c, 6, 7, 80
8, 62220, Control_c, 6, 7, 80
8, 62224, Control_c, 6, 7, 81
8, 62224, Control_c, 6, 7, 81
8, 62224, Control_c, 6, 7, 81
8, 62228, Control_c, 6, 7, 82
8, 62228, Control_c, 6, 7, 82
8, 62228, Control_c, 6, 7, 82
8, 62232, Control_c, 6, 7, 83
8, 62232, Control_c, 6, 7, 83
8, 62232, Control_c, 6, 7, 83
8, 62236, Control_c, 6, 7, 84
8, 62236, Control_c, 6, 7, 84
8, 62236, Control_c, 6, 7, 84
8, 62240, Control_c, 6, 7, 85
8, 62240, Control_c, 6, 7, 85
8, 62240, Control_c, 6, 7, 85
8, 62243, Control_c, 6, 7, 86
8, 62243, Control_c, 6, 7, 86
8, 62243, Control_c, 6, 7, 86
8, 62247, Control_c, 6, 7, 87
8, 62247, Control_c, 6, 7, 87
8, 62247, Control_c, 6, 7, 87
8, 62251, Control_c, 6, 7, 88
8, 62251, Control_c, 6, 7, 88
8, 62251, Control_c, 6, 7, 88
8, 62255, Control_c, 6, 7, 89
8, 62255, Control_c, 6, 7, 89
8, 62255, Control_c, 6, 7, 89
8, 62259, Control_c, 6, 7, 90
8, 62259, Control_c, 6, 7, 90
8, 62259, Control_c, 6, 7, 90
8, 62262, Control_c, 6, 7, 91
8, 62262, Control_c, 6, 7, 91
8, 62262, Control_c, 6, 7, 91
8, 62266, Control_c, 6, 7, 92
8, 62266, Control_c, 6, 7, 92
8, 62266, Control_c, 6, 7, 92
8, 62270, Control_c, 6, 7, 93
8, 62270, Control_c, 6, 7, 93
8, 62270, Control_c, 6, 7, 93
8, 62274, Control_c, 6, 7, 94
8, 62274, Control_c, 6, 7, 94
8, 62274, Control_c, 6, 7, 94
8, 62278, Control_c, 6, 7, 95
8, 62278, Control_c, 6, 7, 95
8, 62278, Control_c, 6, 7, 95
8, 62281, Control_c, 6, 7, 96
8, 62281, Control_c, 6, 7, 96
8, 62281, Control_c, 6, 7, 96
8, 62285, Control_c, 6, 7, 97
8, 62285, Control_c, 6, 7, 97
8, 62285, Control_c, 6, 7, 97
8, 62289, Control_c, 6, 7, 98
8, 62289, Control_c, 6, 7, 98
8, 62289, Control_c, 6, 7, 98
8, 62293, Control_c, 6, 7, 99
8, 62293, Control_c, 6, 7, 99
8, 62293, Control_c, 6, 7, 99
8, 62297, Control_c, 6, 7, 100
8, 62297, Control_c, 6, 7, 100
8, 62297, Control_c, 6, 7, 100
8, 62300, Control_c, 6, 7, 101
8, 62300, Control_c, 6, 7, 101
8, 62300, Control_c, 6, 7, 101
8, 62304, Control_c, 6, 7, 102
8, 62304, Control_c, 6, 7, 102
8, 62304, Control_c, 6, 7, 102
8, 62308, Control_c, 6, 7, 103
8, 62308, Control_c, 6, 7, 103
8, 62308, Control_c, 6, 7, 103
8, 62312, Control_c, 6, 7, 104
8, 62312, Control_c, 6, 7, 104
8, 62312, Control_c, 6, 7, 104
8, 62316, Control_c, 6, 7, 105
8, 62316, Control_c, 6, 7, 105
8, 62316, Control_c, 6, 7, 105
8, 62320, Control_c, 6, 7, 106
8, 62320, Control_c, 6, 7, 106
8, 62320, Control_c, 6, 7, 106
8, 62323, Control_c, 6, 7, 107
8, 62323, Control_c, 6, 7, 107
8, 62323, Control_c, 6, 7, 107
8, 62327, Control_c, 6, 7, 108
8, 62327, Control_c, 6, 7, 108
8, 62327, Control_c, 6, 7, 108
8, 62331, Control_c, 6, 7, 109
8, 62331, Control_c, 6, 7, 109
8, 62331, Control_c, 6, 7, 109
8, 62335, Control_c, 6, 7, 110
8, 62335, Control_c, 6, 7, 110
8, 62335, Control_c, 6, 7, 110
8, 62339, Control_c, 6, 7, 111
8, 62339, Control_c, 6, 7, 111
8, 62339, Control_c, 6, 7, 111
8, 62342, Control_c, 6, 7, 112
8, 62342, Control_c, 6, 7, 112
8, 62342, Control_c, 6, 7, 112
8, 62346, Control_c, 6, 7, 113
8, 62346, Control_c, 6, 7, 113
8, 62346, Control_c, 6, 7, 113
8, 62350, Control_c, 6, 7, 114
8, 62350, Control_c, 6, 7, 114
8, 62350, Control_c, 6, 7, 114
8, 62354, Control_c, 6, 7, 115
8, 62354, Control_c, 6, 7, 115
8, 62354, Control_c, 6, 7, 115
8, 62358, Control_c, 6, 7, 116
8, 62358, Control_c, 6, 7, 116
8, 62358, Control_c, 6, 7, 116
8, 62361, Control_c, 6, 7, 117
8, 62361, Control_c, 6, 7, 117
8, 62361, Control_c, 6, 7, 117
8, 62365, Control_c, 6, 7, 118
8, 62365, Control_c, 6, 7, 118
8, 62365, Control_c, 6, 7, 118
8, 62369, Control_c, 6, 7, 119
8, 62369, Control_c, 6, 7, 119
8, 62369, Control_c, 6, 7, 119
8, 62373, Control_c, 6, 7, 120
8, 62373, Control_c, 6, 7, 120
8, 62373, Control_c, 6, 7, 120
8, 62377, Control_c, 6, 7, 121
8, 62377, Control_c, 6, 7, 121
8, 62377, Control_c, 6, 7, 121
8, 62380, Control_c, 6, 7, 122
8, 62380, Control_c, 6, 7, 122
8, 62380, Control_c, 6, 7, 122
8, 62384, Control_c, 6, 7, 123
8, 62384, Control_c, 6, 7, 123
8, 62384, Control_c, 6, 7, 123
8, 62388, Control_c, 6, 7, 124
8, 62388, Control_c, 6, 7, 124
8, 62388, Control_c, 6, 7, 124
8, 62392, Control_c, 6, 7, 125
8, 62392, Control_c, 6, 7, 125
8, 62392, Control_c, 6, 7, 125
8, 62396, Control_c, 6, 7, 126
8, 62396, Control_c, 6, 7, 126
8, 62396, Control_c, 6, 7, 126
8, 62400, Note_on_c, 6, 45, 118
8, 62496, Note_on_c, 6, 45, 0
8, 62880, Note_on_c, 6, 45, 118
8, 62976, Note_on_c, 6, 45, 0
8, 63360, Note_on_c, 6, 45, 88
8, 63384, Note_on_c, 6, 45, 0
8, 63390, Note_on_c, 6, 45, 89
8, 63414, Note_on_c, 6, 45, 0
8, 63420, Note_on_c, 6, 45, 90
8, 63444, Note_on_c, 6, 45, 0
8, 63450, Note_on_c, 6, 45, 91
8, 63474, Note_on_c, 6, 45, 0
8, 63480, Note_on_c, 6, 45, 93
8, 63504, Note_on_c, 6, 45, 0
8, 63510, Note_on_c, 6, 45, 96
8, 63534, Note_on_c, 6, 45, 0
8, 63540, Note_on_c, 6, 45, 97
8, 63564, Note_on_c, 6, 45, 0
8, 63570, Note_on_c, 6, 45, 99
8, 63594, Note_on_c, 6, 45, 0
8, 63600, Note_on_c, 6, 45, 101
8, 63624, Note_on_c, 6, 45, 0
8, 63630, Note_on_c, 6, 45, 104
8, 63654, Note_on_c, 6, 45, 0
8, 63660, Note_on_c, 6, 45, 104
8, 63684, Note_on_c, 6, 45, 0
8, 63690, Note_on_c, 6, 45, 106
8, 63714, Note_on_c, 6, 45, 0
8, 63720, Note_on_c, 6, 45, 107
8, 63744, Note_on_c, 6, 45, 0
8, 63750, Note_on_c, 6, 45, 108
8, 63774, Note_on_c, 6, 45, 0
8, 63780, Note_on_c, 6, 45, 109
8, 63804, Note_on_c, 6, 45, 0
8, 63810, Note_on_c, 6, 45, 111
8, 63834, Note_on_c, 6, 45, 0
8, 63840, Note_on_c, 6, 45, 112
8, 63840, Note_on_c, 6, 45, 112
8, 63840, Note_on_c, 6, 45, 112
8, 63864, Note_on_c, 6, 45, 0
8, 63864, Note_on_c, 6, 45, 0
8, 63864, Note_on_c, 6, 45, 0
8, 63870, Note_on_c, 6, 45, 112
8, 63894, Note_on_c, 6, 45, 0
8, 63900, Note_on_c, 6, 45, 114
8, 63924, Note_on_c, 6, 45, 0
8, 63930, Note_on_c, 6, 45, 115
8, 63954, Note_on_c, 6, 45, 0
8, 63960, Note_on_c, 6, 45, 117
8, 63984, Note_on_c, 6, 45, 0
8, 63990, Note_on_c, 6, 45, 119
8, 64014, Note_on_c, 6, 45, 0
8, 64020, Note_on_c, 6, 45, 120
8, 64044, Note_on_c, 6, 45, 0
8, 64050, Note_on_c, 6, 45, 121
8, 64074, Note_on_c, 6, 45, 0
8, 64080, Note_on_c, 6, 45, 122
8, 64104, Note_on_c, 6, 45, 0
8, 64110, Note_on_c, 6, 45, 123
8, 64134, Note_on_c, 6, 45, 0
8, 64140, Note_on_c, 6, 45, 124
8, 64164, Note_on_c, 6, 45, 0
8, 64170, Note_on_c, 6, 45, 124
8, 64194, Note_on_c, 6, 45, 0
8, 64200, Note_on_c, 6, 45, 124
8, 64224, Note_on_c, 6, 45, 0
8, 64230, Note_on_c, 6, 45, 125
8, 64254, Note_on_c, 6, 45, 0
8, 64260, Note_on_c, 6, 45, 126
8, 64284, Note_on_c, 6, 45, 0
8, 64290, Note_on_c, 6, 45, 127
8, 64314, Note_on_c, 6, 45, 0
8, 64320, Note_on_c, 6, 45, 127
8, 64410, Control_c, 6, 7, 72
8, 64506, Control_c, 6, 7, 71
8, 64530, Note_on_c, 6, 45, 0
8, 64602, Control_c, 6, 7, 70
8, 64698, Control_c, 6, 7, 69
8, 64794, Control_c, 6, 7, 68
8, 64891, Control_c, 6, 7, 67
8, 64987, Control_c, 6, 7, 66
8, 65083, Control_c, 6, 7, 65
8, 65179, Control_c, 6, 7, 64
8, 65275, Control_c, 6, 7, 63
8, 65372, Control_c, 6, 7, 62
8, 65468, Control_c, 6, 7, 61
8, 65564, Control_c, 6, 7, 60
8, 65660, Control_c, 6, 7, 59
8, 65756, Control_c, 6, 7, 58
8, 65853, Control_c, 6, 7, 57
8, 65949, Control_c, 6, 7, 56
8, 66045, Control_c, 6, 7, 55
8, 66141, Control_c, 6, 7, 54
8, 66237, Control_c, 6, 7, 53
8, 66334, Control_c, 6, 7, 52
8, 66430, Control_c, 6, 7, 51
8, 66526, Control_c, 6, 7, 50
8, 66622, Control_c, 6, 7, 49
8, 66719, Control_c, 6, 7, 48
8, 71520, Note_on_c, 6, 50, 122
8, 71520, Control_c, 6, 7, 125
8, 71760, Note_on_c, 6, 50, 0
8, 72000, Note_on_c, 6, 50, 124
8, 72240, Note_on_c, 6, 50, 0
8, 72480, Note_on_c, 6, 50, 124
8, 72720, Note_on_c, 6, 50, 0
8, 72720, Note_on_c, 6, 50, 124
8, 72960, Note_on_c, 6, 50, 0
8, 72960, Note_on_c, 6, 50, 124
8, 73200, Note_on_c, 6, 50, 0
8, 73200, Note_on_c, 6, 50, 124
8, 73320, Note_on_c, 6, 50, 0
8, 73320, Note_on_c, 6, 50, 124
8, 73440, Note_on_c, 6, 50, 0
8, 73440, Note_on_c, 6, 50, 124
8, 73680, Note_on_c, 6, 50, 0
8, 73680, Note_on_c, 6, 50, 124
8, 73920, Note_on_c, 6, 50, 0
8, 73920, Note_on_c, 6, 45, 124
8, 74160, Note_on_c, 6, 45, 0
8, 74160, Note_on_c, 6, 45, 124
8, 74390, Control_c, 6, 7, 63
8, 74400, Note_on_c, 6, 45, 0
8, 78240, Note_on_c, 6, 45, 120
8, 78336, Note_on_c, 6, 45, 0
8, 78720, Note_on_c, 6, 45, 119
8, 78816, Note_on_c, 6, 45, 0
8, 79200, Note_on_c, 6, 45, 118
8, 79296, Note_on_c, 6, 45, 0
8, 79680, Note_on_c, 6, 45, 125
8, 79776, Note_on_c, 6, 45, 0
8, 80160, Note_on_c, 6, 45, 125
8, 80256, Note_on_c, 6, 45, 0
8, 80400, Note_on_c, 6, 45, 127
8, 80496, Note_on_c, 6, 45, 0
8, 80640, Note_on_c, 6, 45, 127
8, 80736, Note_on_c, 6, 45, 0
8, 80880, Note_on_c, 6, 45, 127
8, 80976, Note_on_c, 6, 45, 0
8, 81120, Note_on_c, 6, 45, 127
8, 81232, Note_on_c, 6, 45, 0
8, 81240, Note_on_c, 6, 45, 126
8, 81288, Note_on_c, 6, 45, 0
8, 81300, Note_on_c, 6, 45, 126
8, 81348, Note_on_c, 6, 45, 0
8, 81360, Note_on_c, 6, 45, 125
8, 81472, Note_on_c, 6, 45, 0
8, 81480, Note_on_c, 6, 45, 125
8, 81592, Note_on_c, 6, 45, 0
8, 81600, Note_on_c, 6, 45, 124
8, 81825, Note_on_c, 6, 45, 0
8, 84000, Control_c, 6, 7, 96
8, 84014, Control_c, 6, 7, 95
8, 84029, Control_c, 6, 7, 94
8, 84044, Control_c, 6, 7, 93
8, 84059, Control_c, 6, 7, 92
8, 84074, Control_c, 6, 7, 91
8, 84089, Control_c, 6, 7, 90
8, 84104, Control_c, 6, 7, 89
8, 84119, Control_c, 6, 7, 88
8, 84134, Control_c, 6, 7, 87
8, 84149, Control_c, 6, 7, 86
8, 84164, Control_c, 6, 7, 85
8, 84179, Control_c, 6, 7, 84
8, 84194, Control_c, 6, 7, 83
8, 84209, Control_c, 6, 7, 82
8, 84224, Control_c, 6, 7, 81
8, 84239, Control_c, 6, 7, 80
8, 84254, Control_c, 6, 7, 79
8, 84269, Control_c, 6, 7, 78
8, 84284, Control_c, 6, 7, 77
8, 84299, Control_c, 6, 7, 76
8, 84314, Control_c, 6, 7, 75
8, 84329, Control_c, 6, 7, 74
8, 84344, Control_c, 6, 7, 73
8, 84359, Control_c, 6, 7, 72
8, 84374, Control_c, 6, 7, 71
8, 84389, Control_c, 6, 7, 70
8, 84404, Control_c, 6, 7, 69
8, 84419, Control_c, 6, 7, 68
8, 84434, Control_c, 6, 7, 67
8, 84449, Control_c, 6, 7, 66
8, 84464, Control_c, 6, 7, 65
8, 84479, Control_c, 6, 7, 64
8, 84480, Control_c, 6, 7, 96
8, 84494, Control_c, 6, 7, 95
8, 84509, Control_c, 6, 7, 94
8, 84524, Control_c, 6, 7, 93
8, 84539, Control_c, 6, 7, 92
8, 84554, Control_c, 6, 7, 91
8, 84569, Control_c, 6, 7, 90
8, 84584, Control_c, 6, 7, 89
8, 84599, Control_c, 6, 7, 88
8, 84614, Control_c, 6, 7, 87
8, 84629, Control_c, 6, 7, 86
8, 84644, Control_c, 6, 7, 85
8, 84659, Control_c, 6, 7, 84
8, 84674, Control_c, 6, 7, 83
8, 84689, Control_c, 6, 7, 82
8, 84704, Control_c, 6, 7, 81
8, 84719, Control_c, 6, 7, 80
8, 84734, Control_c, 6, 7, 79
8, 84749, Control_c, 6, 7, 78
8, 84764, Control_c, 6, 7, 77
8, 84779, Control_c, 6, 7, 76
8, 84794, Control_c, 6, 7, 75
8, 84809, Control_c, 6, 7, 74
8, 84824, Control_c, 6, 7, 73
8, 84839, Control_c, 6, 7, 72
8, 84854, Control_c, 6, 7, 71
8, 84869, Control_c, 6, 7, 70
8, 84884, Control_c, 6, 7, 69
8, 84899, Control_c, 6, 7, 68
8, 84914, Control_c, 6, 7, 67
8, 84929, Control_c, 6, 7, 66
8, 84944, Control_c, 6, 7, 65
8, 84959, Control_c, 6, 7, 64
8, 87840, Control_c, 6, 7, 96
8, 87854, Control_c, 6, 7, 95
8, 87869, Control_c, 6, 7, 94
8, 87884, Control_c, 6, 7, 93
8, 87899, Control_c, 6, 7, 92
8, 87914, Control_c, 6, 7, 91
8, 87929, Control_c, 6, 7, 90
8, 87944, Control_c, 6, 7, 89
8, 87959, Control_c, 6, 7, 88
8, 87974, Control_c, 6, 7, 87
8, 87989, Control_c, 6, 7, 86
8, 88004, Control_c, 6, 7, 85
8, 88019, Control_c, 6, 7, 84
8, 88034, Control_c, 6, 7, 83
8, 88049, Control_c, 6, 7, 82
8, 88064, Control_c, 6, 7, 81
8, 88079, Control_c, 6, 7, 80
8, 88094, Control_c, 6, 7, 79
8, 88109, Control_c, 6, 7, 78
8, 88124, Control_c, 6, 7, 77
8, 88139, Control_c, 6, 7, 76
8, 88154, Control_c, 6, 7, 75
8, 88169, Control_c, 6, 7, 74
8, 88184, Control_c, 6, 7, 73
8, 88199, Control_c, 6, 7, 72
8, 88214, Control_c, 6, 7, 71
8, 88229, Control_c, 6, 7, 70
8, 88244, Control_c, 6, 7, 69
8, 88259, Control_c, 6, 7, 68
8, 88274, Control_c, 6, 7, 67
8, 88289, Control_c, 6, 7, 66
8, 88304, Control_c, 6, 7, 65
8, 88319, Control_c, 6, 7, 64
8, 88320, Control_c, 6, 7, 96
8, 88334, Control_c, 6, 7, 95
8, 88349, Control_c, 6, 7, 94
8, 88364, Control_c, 6, 7, 93
8, 88379, Control_c, 6, 7, 92
8, 88394, Control_c, 6, 7, 91
8, 88409, Control_c, 6, 7, 90
8, 88424, Control_c, 6, 7, 89
8, 88439, Control_c, 6, 7, 88
8, 88454, Control_c, 6, 7, 87
8, 88469, Control_c, 6, 7, 86
8, 88484, Control_c, 6, 7, 85
8, 88499, Control_c, 6, 7, 84
8, 88514, Control_c, 6, 7, 83
8, 88529, Control_c, 6, 7, 82
8, 88544, Control_c, 6, 7, 81
8, 88559, Control_c, 6, 7, 80
8, 88574, Control_c, 6, 7, 79
8, 88589, Control_c, 6, 7, 78
8, 88604, Control_c, 6, 7, 77
8, 88619, Control_c, 6, 7, 76
8, 88634, Control_c, 6, 7, 75
8, 88649, Control_c, 6, 7, 74
8, 88664, Control_c, 6, 7, 73
8, 88679, Control_c, 6, 7, 72
8, 88694, Control_c, 6, 7, 71
8, 88709, Control_c, 6, 7, 70
8, 88724, Control_c, 6, 7, 69
8, 88739, Control_c, 6, 7, 68
8, 88754, Control_c, 6, 7, 67
8, 88769, Control_c, 6, 7, 66
8, 88784, Control_c, 6, 7, 65
8, 88799, Control_c, 6, 7, 64
8, 89910, Control_c, 6, 7, 126
8, 90000, Note_on_c, 6, 50, 116
8, 90096, Note_on_c, 6, 50, 0
8, 94560, Note_on_c, 6, 50, 120
8, 94656, Note_on_c, 6, 50, 0
8, 95520, Note_on_c, 6, 50, 120
8, 95616, Note_on_c, 6, 50, 0
8, 96480, Note_on_c, 6, 50, 120
8, 96576, Note_on_c, 6, 50, 0
8, 97440, Note_on_c, 6, 50, 120
8, 97536, Note_on_c, 6, 50, 0
8, 99360, Note_on_c, 6, 50, 117
8, 99456, Note_on_c, 6, 50, 0
8, 100440, Control_c, 6, 7, 96
8, 100440, Control_c, 6, 7, 96
8, 100447, Control_c, 6, 7, 95
8, 100447, Control_c, 6, 7, 95
8, 100454, Control_c, 6, 7, 94
8, 100454, Control_c, 6, 7, 94
8, 100462, Control_c, 6, 7, 93
8, 100462, Control_c, 6, 7, 93
8, 100469, Control_c, 6, 7, 92
8, 100469, Control_c, 6, 7, 92
8, 100477, Control_c, 6, 7, 91
8, 100477, Control_c, 6, 7, 91
8, 100484, Control_c, 6, 7, 90
8, 100484, Control_c, 6, 7, 90
8, 100492, Control_c, 6, 7, 89
8, 100492, Control_c, 6, 7, 89
8, 100499, Control_c, 6, 7, 88
8, 100499, Control_c, 6, 7, 88
8, 100507, Control_c, 6, 7, 87
8, 100507, Control_c, 6, 7, 87
8, 100514, Control_c, 6, 7, 86
8, 100514, Control_c, 6, 7, 86
8, 100522, Control_c, 6, 7, 85
8, 100522, Control_c, 6, 7, 85
8, 100529, Control_c, 6, 7, 84
8, 100529, Control_c, 6, 7, 84
8, 100537, Control_c, 6, 7, 83
8, 100537, Control_c, 6, 7, 83
8, 100544, Control_c, 6, 7, 82
8, 100544, Control_c, 6, 7, 82
8, 100552, Control_c, 6, 7, 81
8, 100552, Control_c, 6, 7, 81
8, 100559, Control_c, 6, 7, 80
8, 100559, Control_c, 6, 7, 80
8, 100566, Control_c, 6, 7, 79
8, 100566, Control_c, 6, 7, 79
8, 100574, Control_c, 6, 7, 78
8, 100574, Control_c, 6, 7, 78
8, 100581, Control_c, 6, 7, 77
8, 100581, Control_c, 6, 7, 77
8, 100589, Control_c, 6, 7, 76
8, 100589, Control_c, 6, 7, 76
8, 100596, Control_c, 6, 7, 75
8, 100596, Control_c, 6, 7, 75
8, 100604, Control_c, 6, 7, 74
8, 100604, Control_c, 6, 7, 74
8, 100611, Control_c, 6, 7, 73
8, 100611, Control_c, 6, 7, 73
8, 100619, Control_c, 6, 7, 72
8, 100619, Control_c, 6, 7, 72
8, 100626, Control_c, 6, 7, 71
8, 100626, Control_c, 6, 7, 71
8, 100634, Control_c, 6, 7, 70
8, 100634, Control_c, 6, 7, 70
8, 100641, Control_c, 6, 7, 69
8, 100641, Control_c, 6, 7, 69
8, 100649, Control_c, 6, 7, 68
8, 100649, Control_c, 6, 7, 68
8, 100656, Control_c, 6, 7, 67
8, 100656, Control_c, 6, 7, 67
8, 100664, Control_c, 6, 7, 66
8, 100664, Control_c, 6, 7, 66
8, 100671, Control_c, 6, 7, 65
8, 100671, Control_c, 6, 7, 65
8, 100679, Control_c, 6, 7, 64
8, 100679, Control_c, 6, 7, 64
8, 101400, Control_c, 6, 7, 96
8, 101400, Control_c, 6, 7, 96
8, 101407, Control_c, 6, 7, 95
8, 101407, Control_c, 6, 7, 95
8, 101415, Control_c, 6, 7, 94
8, 101415, Control_c, 6, 7, 94
8, 101422, Control_c, 6, 7, 93
8, 101422, Control_c, 6, 7, 93
8, 101430, Control_c, 6, 7, 92
8, 101430, Control_c, 6, 7, 92
8, 101437, Control_c, 6, 7, 91
8, 101437, Control_c, 6, 7, 91
8, 101445, Control_c, 6, 7, 90
8, 101445, Control_c, 6, 7, 90
8, 101452, Control_c, 6, 7, 89
8, 101452, Control_c, 6, 7, 89
8, 101460, Control_c, 6, 7, 88
8, 101460, Control_c, 6, 7, 88
8, 101467, Control_c, 6, 7, 87
8, 101467, Control_c, 6, 7, 87
8, 101475, Control_c, 6, 7, 86
8, 101475, Control_c, 6, 7, 86
8, 101482, Control_c, 6, 7, 85
8, 101482, Control_c, 6, 7, 85
8, 101490, Control_c, 6, 7, 84
8, 101490, Control_c, 6, 7, 84
8, 101497, Control_c, 6, 7, 83
8, 101497, Control_c, 6, 7, 83
8, 101505, Control_c, 6, 7, 82
8, 101505, Control_c, 6, 7, 82
8, 101512, Control_c, 6, 7, 81
8, 101512, Control_c, 6, 7, 81
8, 101520, Control_c, 6, 7, 80
8, 101520, Control_c, 6, 7, 80
8, 101527, Control_c, 6, 7, 79
8, 101527, Control_c, 6, 7, 79
8, 101535, Control_c, 6, 7, 78
8, 101535, Control_c, 6, 7, 78
8, 101542, Control_c, 6, 7, 77
8, 101542, Control_c, 6, 7, 77
8, 101550, Control_c, 6, 7, 76
8, 101550, Control_c, 6, 7, 76
8, 101557, Control_c, 6, 7, 75
8, 101557, Control_c, 6, 7, 75
8, 101565, Control_c, 6, 7, 74
8, 101565, Control_c, 6, 7, 74
8, 101572, Control_c, 6, 7, 73
8, 101572, Control_c, 6, 7, 73
8, 101580, Control_c, 6, 7, 72
8, 101580, Control_c, 6, 7, 72
8, 101587, Control_c, 6, 7, 71
8, 101587, Control_c, 6, 7, 71
8, 101595, Control_c, 6, 7, 70
8, 101595, Control_c, 6, 7, 70
8, 101602, Control_c, 6, 7, 69
8, 101602, Control_c, 6, 7, 69
8, 101610, Control_c, 6, 7, 68
8, 101610, Control_c, 6, 7, 68
8, 101617, Control_c, 6, 7, 67
8, 101617, Control_c, 6, 7, 67
8, 101625, Control_c, 6, 7, 66
8, 101625, Control_c, 6, 7, 66
8, 101632, Control_c, 6, 7, 65
8, 101632, Control_c, 6, 7, 65
8, 101640, Control_c, 6, 7, 64
8, 101640, Control_c, 6, 7, 64
8, 106080, Control_c, 6, 7, 64
8, 106080, Control_c, 6, 7, 64
8, 106109, Control_c, 6, 7, 65
8, 106109, Control_c, 6, 7, 65
8, 106139, Control_c, 6, 7, 66
8, 106139, Control_c, 6, 7, 66
8, 106169, Control_c, 6, 7, 67
8, 106169, Control_c, 6, 7, 67
8, 106199, Control_c, 6, 7, 68
8, 106199, Control_c, 6, 7, 68
8, 106229, Control_c, 6, 7, 69
8, 106229, Control_c, 6, 7, 69
8, 106259, Control_c, 6, 7, 70
8, 106259, Control_c, 6, 7, 70
8, 106289, Control_c, 6, 7, 71
8, 106289, Control_c, 6, 7, 71
8, 106319, Control_c, 6, 7, 72
8, 106319, Control_c, 6, 7, 72
8, 106349, Control_c, 6, 7, 73
8, 106349, Control_c, 6, 7, 73
8, 106379, Control_c, 6, 7, 74
8, 106379, Control_c, 6, 7, 74
8, 106409, Control_c, 6, 7, 75
8, 106409, Control_c, 6, 7, 75
8, 106439, Control_c, 6, 7, 76
8, 106439, Control_c, 6, 7, 76
8, 106469, Control_c, 6, 7, 77
8, 106469, Control_c, 6, 7, 77
8, 106499, Control_c, 6, 7, 78
8, 106499, Control_c, 6, 7, 78
8, 106529, Control_c, 6, 7, 79
8, 106529, Control_c, 6, 7, 79
8, 106559, Control_c, 6, 7, 80
8, 106559, Control_c, 6, 7, 80
8, 106589, Control_c, 6, 7, 81
8, 106589, Control_c, 6, 7, 81
8, 106619, Control_c, 6, 7, 82
8, 106619, Control_c, 6, 7, 82
8, 106649, Control_c, 6, 7, 83
8, 106649, Control_c, 6, 7, 83
8, 106679, Control_c, 6, 7, 84
8, 106679, Control_c, 6, 7, 84
8, 106709, Control_c, 6, 7, 85
8, 106709, Control_c, 6, 7, 85
8, 106739, Control_c, 6, 7, 86
8, 106739, Control_c, 6, 7, 86
8, 106769, Control_c, 6, 7, 87
8, 106769, Control_c, 6, 7, 87
8, 106799, Control_c, 6, 7, 88
8, 106799, Control_c, 6, 7, 88
8, 106829, Control_c, 6, 7, 89
8, 106829, Control_c, 6, 7, 89
8, 106859, Control_c, 6, 7, 90
8, 106859, Control_c, 6, 7, 90
8, 106889, Control_c, 6, 7, 91
8, 106889, Control_c, 6, 7, 91
8, 106919, Control_c, 6, 7, 92
8, 106919, Control_c, 6, 7, 92
8, 106949, Control_c, 6, 7, 93
8, 106949, Control_c, 6, 7, 93
8, 106979, Control_c, 6, 7, 94
8, 106979, Control_c, 6, 7, 94
8, 107009, Control_c, 6, 7, 95
8, 107009, Control_c, 6, 7, 95
8, 107039, Control_c, 6, 7, 96
8, 107039, Control_c, 6, 7, 96
8, 107040, Control_c, 6, 7, 96
8, 107040, Control_c, 6, 7, 96
8, 107054, Control_c, 6, 7, 95
8, 107054, Control_c, 6, 7, 95
8, 107069, Control_c, 6, 7, 94
8, 107069, Control_c, 6, 7, 94
8, 107084, Control_c, 6, 7, 93
8, 107084, Control_c, 6, 7, 93
8, 107099, Control_c, 6, 7, 92
8, 107099, Control_c, 6, 7, 92
8, 107114, Control_c, 6, 7, 91
8, 107114, Control_c, 6, 7, 91
8, 107129, Control_c, 6, 7, 90
8, 107129, Control_c, 6, 7, 90
8, 107144, Control_c, 6, 7, 89
8, 107144, Control_c, 6, 7, 89
8, 107159, Control_c, 6, 7, 88
8, 107159, Control_c, 6, 7, 88
8, 107174, Control_c, 6, 7, 87
8, 107174, Control_c, 6, 7, 87
8, 107189, Control_c, 6, 7, 86
8, 107189, Control_c, 6, 7, 86
8, 107204, Control_c, 6, 7, 85
8, 107204, Control_c, 6, 7, 85
8, 107219, Control_c, 6, 7, 84
8, 107219, Control_c, 6, 7, 84
8, 107234, Control_c, 6, 7, 83
8, 107234, Control_c, 6, 7, 83
8, 107249, Control_c, 6, 7, 82
8, 107249, Control_c, 6, 7, 82
8, 107264, Control_c, 6, 7, 81
8, 107264, Control_c, 6, 7, 81
8, 107279, Control_c, 6, 7, 80
8, 107279, Control_c, 6, 7, 80
8, 107294, Control_c, 6, 7, 79
8, 107294, Control_c, 6, 7, 79
8, 107309, Control_c, 6, 7, 78
8, 107309, Control_c, 6, 7, 78
8, 107324, Control_c, 6, 7, 77
8, 107324, Control_c, 6, 7, 77
8, 107339, Control_c, 6, 7, 76
8, 107339, Control_c, 6, 7, 76
8, 107354, Control_c, 6, 7, 75
8, 107354, Control_c, 6, 7, 75
8, 107369, Control_c, 6, 7, 74
8, 107369, Control_c, 6, 7, 74
8, 107384, Control_c, 6, 7, 73
8, 107384, Control_c, 6, 7, 73
8, 107399, Control_c, 6, 7, 72
8, 107399, Control_c, 6, 7, 72
8, 107414, Control_c, 6, 7, 71
8, 107414, Control_c, 6, 7, 71
8, 107429, Control_c, 6, 7, 70
8, 107429, Control_c, 6, 7, 70
8, 107444, Control_c, 6, 7, 69
8, 107444, Control_c, 6, 7, 69
8, 107459, Control_c, 6, 7, 68
8, 107459, Control_c, 6, 7, 68
8, 107474, Control_c, 6, 7, 67
8, 107474, Control_c, 6, 7, 67
8, 107489, Control_c, 6, 7, 66
8, 107489, Control_c, 6, 7, 66
8, 107504, Control_c, 6, 7, 65
8, 107504, Control_c, 6, 7, 65
8, 107519, Control_c, 6, 7, 64
8, 107519, Control_c, 6, 7, 64
8, 108000, Control_c, 6, 7, 64
8, 108000, Control_c, 6, 7, 64
8, 108029, Control_c, 6, 7, 65
8, 108029, Control_c, 6, 7, 65
8, 108059, Control_c, 6, 7, 66
8, 108059, Control_c, 6, 7, 66
8, 108089, Control_c, 6, 7, 67
8, 108089, Control_c, 6, 7, 67
8, 108119, Control_c, 6, 7, 68
8, 108119, Control_c, 6, 7, 68
8, 108149, Control_c, 6, 7, 69
8, 108149, Control_c, 6, 7, 69
8, 108179, Control_c, 6, 7, 70
8, 108179, Control_c, 6, 7, 70
8, 108209, Control_c, 6, 7, 71
8, 108209, Control_c, 6, 7, 71
8, 108239, Control_c, 6, 7, 72
8, 108239, Control_c, 6, 7, 72
8, 108269, Control_c, 6, 7, 73
8, 108269, Control_c, 6, 7, 73
8, 108299, Control_c, 6, 7, 74
8, 108299, Control_c, 6, 7, 74
8, 108329, Control_c, 6, 7, 75
8, 108329, Control_c, 6, 7, 75
8, 108359, Control_c, 6, 7, 76
8, 108359, Control_c, 6, 7, 76
8, 108389, Control_c, 6, 7, 77
8, 108389, Control_c, 6, 7, 77
8, 108419, Control_c, 6, 7, 78
8, 108419, Control_c, 6, 7, 78
8, 108449, Control_c, 6, 7, 79
8, 108449, Control_c, 6, 7, 79
8, 108479, Control_c, 6, 7, 80
8, 108479, Control_c, 6, 7, 80
8, 108509, Control_c, 6, 7, 81
8, 108509, Control_c, 6, 7, 81
8, 108539, Control_c, 6, 7, 82
8, 108539, Control_c, 6, 7, 82
8, 108569, Control_c, 6, 7, 83
8, 108569, Control_c, 6, 7, 83
8, 108599, Control_c, 6, 7, 84
8, 108599, Control_c, 6, 7, 84
8, 108629, Control_c, 6, 7, 85
8, 108629, Control_c, 6, 7, 85
8, 108659, Control_c, 6, 7, 86
8, 108659, Control_c, 6, 7, 86
8, 108689, Control_c, 6, 7, 87
8, 108689, Control_c, 6, 7, 87
8, 108719, Control_c, 6, 7, 88
8, 108719, Control_c, 6, 7, 88
8, 108749, Control_c, 6, 7, 89
8, 108749, Control_c, 6, 7, 89
8, 108779, Control_c, 6, 7, 90
8, 108779, Control_c, 6, 7, 90
8, 108809, Control_c, 6, 7, 91
8, 108809, Control_c, 6, 7, 91
8, 108839, Control_c, 6, 7, 92
8, 108839, Control_c, 6, 7, 92
8, 108869, Control_c, 6, 7, 93
8, 108869, Control_c, 6, 7, 93
8, 108899, Control_c, 6, 7, 94
8, 108899, Control_c, 6, 7, 94
8, 108929, Control_c, 6, 7, 95
8, 108929, Control_c, 6, 7, 95
8, 108959, Control_c, 6, 7, 96
8, 108959, Control_c, 6, 7, 96
8, 108960, Control_c, 6, 7, 96
8, 108960, Control_c, 6, 7, 96
8, 108974, Control_c, 6, 7, 95
8, 108974, Control_c, 6, 7, 95
8, 108989, Control_c, 6, 7, 94
8, 108989, Control_c, 6, 7, 94
8, 109004, Control_c, 6, 7, 93
8, 109004, Control_c, 6, 7, 93
8, 109019, Control_c, 6, 7, 92
8, 109019, Control_c, 6, 7, 92
8, 109034, Control_c, 6, 7, 91
8, 109034, Control_c, 6, 7, 91
8, 109049, Control_c, 6, 7, 90
8, 109049, Control_c, 6, 7, 90
8, 109064, Control_c, 6, 7, 89
8, 109064, Control_c, 6, 7, 89
8, 109079, Control_c, 6, 7, 88
8, 109079, Control_c, 6, 7, 88
8, 109094, Control_c, 6, 7, 87
8, 109094, Control_c, 6, 7, 87
8, 109109, Control_c, 6, 7, 86
8, 109109, Control_c, 6, 7, 86
8, 109124, Control_c, 6, 7, 85
8, 109124, Control_c, 6, 7, 85
8, 109139, Control_c, 6, 7, 84
8, 109139, Control_c, 6, 7, 84
8, 109154, Control_c, 6, 7, 83
8, 109154, Control_c, 6, 7, 83
8, 109169, Control_c, 6, 7, 82
8, 109169, Control_c, 6, 7, 82
8, 109184, Control_c, 6, 7, 81
8, 109184, Control_c, 6, 7, 81
8, 109199, Control_c, 6, 7, 80
8, 109199, Control_c, 6, 7, 80
8, 109214, Control_c, 6, 7, 79
8, 109214, Control_c, 6, 7, 79
8, 109229, Control_c, 6, 7, 78
8, 109229, Control_c, 6, 7, 78
8, 109244, Control_c, 6, 7, 77
8, 109244, Control_c, 6, 7, 77
8, 109259, Control_c, 6, 7, 76
8, 109259, Control_c, 6, 7, 76
8, 109274, Control_c, 6, 7, 75
8, 109274, Control_c, 6, 7, 75
8, 109289, Control_c, 6, 7, 74
8, 109289, Control_c, 6, 7, 74
8, 109304, Control_c, 6, 7, 73
8, 109304, Control_c, 6, 7, 73
8, 109319, Control_c, 6, 7, 72
8, 109319, Control_c, 6, 7, 72
8, 109334, Control_c, 6, 7, 71
8, 109334, Control_c, 6, 7, 71
8, 109349, Control_c, 6, 7, 70
8, 109349, Control_c, 6, 7, 70
8, 109364, Control_c, 6, 7, 69
8, 109364, Control_c, 6, 7, 69
8, 109379, Control_c, 6, 7, 68
8, 109379, Control_c, 6, 7, 68
8, 109394, Control_c, 6, 7, 67
8, 109394, Control_c, 6, 7, 67
8, 109409, Control_c, 6, 7, 66
8, 109409, Control_c, 6, 7, 66
8, 109424, Control_c, 6, 7, 65
8, 109424, Control_c, 6, 7, 65
8, 109439, Control_c, 6, 7, 64
8, 109439, Control_c, 6, 7, 64
8, 109920, Control_c, 6, 7, 64
8, 109920, Control_c, 6, 7, 64
8, 109949, Control_c, 6, 7, 65
8, 109949, Control_c, 6, 7, 65
8, 109979, Control_c, 6, 7, 66
8, 109979, Control_c, 6, 7, 66
8, 110009, Control_c, 6, 7, 67
8, 110009, Control_c, 6, 7, 67
8, 110039, Control_c, 6, 7, 68
8, 110039, Control_c, 6, 7, 68
8, 110069, Control_c, 6, 7, 69
8, 110069, Control_c, 6, 7, 69
8, 110099, Control_c, 6, 7, 70
8, 110099, Control_c, 6, 7, 70
8, 110129, Control_c, 6, 7, 71
8, 110129, Control_c, 6, 7, 71
8, 110159, Control_c, 6, 7, 72
8, 110159, Control_c, 6, 7, 72
8, 110189, Control_c, 6, 7, 73
8, 110189, Control_c, 6, 7, 73
8, 110219, Control_c, 6, 7, 74
8, 110219, Control_c, 6, 7, 74
8, 110249, Control_c, 6, 7, 75
8, 110249, Control_c, 6, 7, 75
8, 110279, Control_c, 6, 7, 76
8, 110279, Control_c, 6, 7, 76
8, 110309, Control_c, 6, 7, 77
8, 110309, Control_c, 6, 7, 77
8, 110339, Control_c, 6, 7, 78
8, 110339, Control_c, 6, 7, 78
8, 110369, Control_c, 6, 7, 79
8, 110369, Control_c, 6, 7, 79
8, 110399, Control_c, 6, 7, 80
8, 110399, Control_c, 6, 7, 80
8, 110429, Control_c, 6, 7, 81
8, 110429, Control_c, 6, 7, 81
8, 110459, Control_c, 6, 7, 82
8, 110459, Control_c, 6, 7, 82
8, 110489, Control_c, 6, 7, 83
8, 110489, Control_c, 6, 7, 83
8, 110519, Control_c, 6, 7, 84
8, 110519, Control_c, 6, 7, 84
8, 110549, Control_c, 6, 7, 85
8, 110549, Control_c, 6, 7, 85
8, 110579, Control_c, 6, 7, 86
8, 110579, Control_c, 6, 7, 86
8, 110609, Control_c, 6, 7, 87
8, 110609, Control_c, 6, 7, 87
8, 110639, Control_c, 6, 7, 88
8, 110639, Control_c, 6, 7, 88
8, 110669, Control_c, 6, 7, 89
8, 110669, Control_c, 6, 7, 89
8, 110699, Control_c, 6, 7, 90
8, 110699, Control_c, 6, 7, 90
8, 110729, Control_c, 6, 7, 91
8, 110729, Control_c, 6, 7, 91
8, 110759, Control_c, 6, 7, 92
8, 110759, Control_c, 6, 7, 92
8, 110789, Control_c, 6, 7, 93
8, 110789, Control_c, 6, 7, 93
8, 110819, Control_c, 6, 7, 94
8, 110819, Control_c, 6, 7, 94
8, 110849, Control_c, 6, 7, 95
8, 110849, Control_c, 6, 7, 95
8, 110879, Control_c, 6, 7, 96
8, 110879, Control_c, 6, 7, 96
8, 110880, Control_c, 6, 7, 96
8, 110880, Control_c, 6, 7, 96
8, 110894, Control_c, 6, 7, 95
8, 110894, Control_c, 6, 7, 95
8, 110909, Control_c, 6, 7, 94
8, 110909, Control_c, 6, 7, 94
8, 110924, Control_c, 6, 7, 93
8, 110924, Control_c, 6, 7, 93
8, 110939, Control_c, 6, 7, 92
8, 110939, Control_c, 6, 7, 92
8, 110954, Control_c, 6, 7, 91
8, 110954, Control_c, 6, 7, 91
8, 110969, Control_c, 6, 7, 90
8, 110969, Control_c, 6, 7, 90
8, 110984, Control_c, 6, 7, 89
8, 110984, Control_c, 6, 7, 89
8, 110999, Control_c, 6, 7, 88
8, 110999, Control_c, 6, 7, 88
8, 111014, Control_c, 6, 7, 87
8, 111014, Control_c, 6, 7, 87
8, 111029, Control_c, 6, 7, 86
8, 111029, Control_c, 6, 7, 86
8, 111044, Control_c, 6, 7, 85
8, 111044, Control_c, 6, 7, 85
8, 111059, Control_c, 6, 7, 84
8, 111059, Control_c, 6, 7, 84
8, 111074, Control_c, 6, 7, 83
8, 111074, Control_c, 6, 7, 83
8, 111089, Control_c, 6, 7, 82
8, 111089, Control_c, 6, 7, 82
8, 111104, Control_c, 6, 7, 81
8, 111104, Control_c, 6, 7, 81
8, 111119, Control_c, 6, 7, 80
8, 111119, Control_c, 6, 7, 80
8, 111134, Control_c, 6, 7, 79
8, 111134, Control_c, 6, 7, 79
8, 111149, Control_c, 6, 7, 78
8, 111149, Control_c, 6, 7, 78
8, 111164, Control_c, 6, 7, 77
8, 111164, Control_c, 6, 7, 77
8, 111179, Control_c, 6, 7, 76
8, 111179, Control_c, 6, 7, 76
8, 111194, Control_c, 6, 7, 75
8, 111194, Control_c, 6, 7, 75
8, 111209, Control_c, 6, 7, 74
8, 111209, Control_c, 6, 7, 74
8, 111224, Control_c, 6, 7, 73
8, 111224, Control_c, 6, 7, 73
8, 111239, Control_c, 6, 7, 72
8, 111239, Control_c, 6, 7, 72
8, 111254, Control_c, 6, 7, 71
8, 111254, Control_c, 6, 7, 71
8, 111269, Control_c, 6, 7, 70
8, 111269, Control_c, 6, 7, 70
8, 111284, Control_c, 6, 7, 69
8, 111284, Control_c, 6, 7, 69
8, 111299, Control_c, 6, 7, 68
8, 111299, Control_c, 6, 7, 68
8, 111314, Control_c, 6, 7, 67
8, 111314, Control_c, 6, 7, 67
8, 111329, Control_c, 6, 7, 66
8, 111329, Control_c, 6, 7, 66
8, 111344, Control_c, 6, 7, 65
8, 111344, Control_c, 6, 7, 65
8, 111359, Control_c, 6, 7, 64
8, 111359, Control_c, 6, 7, 64
8, 111840, Control_c, 6, 7, 64
8, 111840, Control_c, 6, 7, 64
8, 111869, Control_c, 6, 7, 65
8, 111869, Control_c, 6, 7, 65
8, 111899, Control_c, 6, 7, 66
8, 111899, Control_c, 6, 7, 66
8, 111929, Control_c, 6, 7, 67
8, 111929, Control_c, 6, 7, 67
8, 111959, Control_c, 6, 7, 68
8, 111959, Control_c, 6, 7, 68
8, 111989, Control_c, 6, 7, 69
8, 111989, Control_c, 6, 7, 69
8, 112019, Control_c, 6, 7, 70
8, 112019, Control_c, 6, 7, 70
8, 112049, Control_c, 6, 7, 71
8, 112049, Control_c, 6, 7, 71
8, 112079, Control_c, 6, 7, 72
8, 112079, Control_c, 6, 7, 72
8, 112109, Control_c, 6, 7, 73
8, 112109, Control_c, 6, 7, 73
8, 112139, Control_c, 6, 7, 74
8, 112139, Control_c, 6, 7, 74
8, 112169, Control_c, 6, 7, 75
8, 112169, Control_c, 6, 7, 75
8, 112199, Control_c, 6, 7, 76
8, 112199, Control_c, 6, 7, 76
8, 112229, Control_c, 6, 7, 77
8, 112229, Control_c, 6, 7, 77
8, 112259, Control_c, 6, 7, 78
8, 112259, Control_c, 6, 7, 78
8, 112289, Control_c, 6, 7, 79
8, 112289, Control_c, 6, 7, 79
8, 112319, Control_c, 6, 7, 80
8, 112319, Control_c, 6, 7, 80
8, 112349, Control_c, 6, 7, 81
8, 112349, Control_c, 6, 7, 81
8, 112379, Control_c, 6, 7, 82
8, 112379, Control_c, 6, 7, 82
8, 112409, Control_c, 6, 7, 83
8, 112409, Control_c, 6, 7, 83
8, 112439, Control_c, 6, 7, 84
8, 112439, Control_c, 6, 7, 84
8, 112469, Control_c, 6, 7, 85
8, 112469, Control_c, 6, 7, 85
8, 112499, Control_c, 6, 7, 86
8, 112499, Control_c, 6, 7, 86
8, 112529, Control_c, 6, 7, 87
8, 112529, Control_c, 6, 7, 87
8, 112559, Control_c, 6, 7, 88
8, 112559, Control_c, 6, 7, 88
8, 112589, Control_c, 6, 7, 89
8, 112589, Control_c, 6, 7, 89
8, 112619, Control_c, 6, 7, 90
8, 112619, Control_c, 6, 7, 90
8, 112649, Control_c, 6, 7, 91
8, 112649, Control_c, 6, 7, 91
8, 112679, Control_c, 6, 7, 92
8, 112679, Control_c, 6, 7, 92
8, 112709, Control_c, 6, 7, 93
8, 112709, Control_c, 6, 7, 93
8, 112739, Control_c, 6, 7, 94
8, 112739, Control_c, 6, 7, 94
8, 112769, Control_c, 6, 7, 95
8, 112769, Control_c, 6, 7, 95
8, 112799, Control_c, 6, 7, 96
8, 112799, Control_c, 6, 7, 96
8, 114720, Control_c, 6, 7, 48
8, 114792, Control_c, 6, 7, 49
8, 114865, Control_c, 6, 7, 50
8, 114938, Control_c, 6, 7, 51
8, 115011, Control_c, 6, 7, 52
8, 115084, Control_c, 6, 7, 53
8, 115157, Control_c, 6, 7, 54
8, 115230, Control_c, 6, 7, 55
8, 115303, Control_c, 6, 7, 56
8, 115376, Control_c, 6, 7, 57
8, 115448, Control_c, 6, 7, 58
8, 115521, Control_c, 6, 7, 59
8, 115594, Control_c, 6, 7, 60
8, 115667, Control_c, 6, 7, 61
8, 115740, Control_c, 6, 7, 62
8, 115813, Control_c, 6, 7, 63
8, 115886, Control_c, 6, 7, 64
8, 115959, Control_c, 6, 7, 65
8, 116032, Control_c, 6, 7, 66
8, 116105, Control_c, 6, 7, 67
8, 116177, Control_c, 6, 7, 68
8, 116250, Control_c, 6, 7, 69
8, 116323, Control_c, 6, 7, 70
8, 116396, Control_c, 6, 7, 71
8, 116469, Control_c, 6, 7, 72
8, 116542, Control_c, 6, 7, 73
8, 116615, Control_c, 6, 7, 74
8, 116688, Control_c, 6, 7, 75
8, 116761, Control_c, 6, 7, 76
8, 116834, Control_c, 6, 7, 77
8, 116906, Control_c, 6, 7, 78
8, 116979, Control_c, 6, 7, 79
8, 117052, Control_c, 6, 7, 80
8, 117125, Control_c, 6, 7, 81
8, 117198, Control_c, 6, 7, 82
8, 117271, Control_c, 6, 7, 83
8, 117344, Control_c, 6, 7, 84
8, 117417, Control_c, 6, 7, 85
8, 117490, Control_c, 6, 7, 86
8, 117563, Control_c, 6, 7, 87
8, 117635, Control_c, 6, 7, 88
8, 117708, Control_c, 6, 7, 89
8, 117781, Control_c, 6, 7, 90
8, 117854, Control_c, 6, 7, 91
8, 117927, Control_c, 6, 7, 92
8, 118000, Control_c, 6, 7, 93
8, 118073, Control_c, 6, 7, 94
8, 118146, Control_c, 6, 7, 95
8, 118219, Control_c, 6, 7, 96
8, 118292, Control_c, 6, 7, 97
8, 118364, Control_c, 6, 7, 98
8, 118437, Control_c, 6, 7, 99
8, 118510, Control_c, 6, 7, 100
8, 118583, Control_c, 6, 7, 101
8, 118656, Control_c, 6, 7, 102
8, 118729, Control_c, 6, 7, 103
8, 118802, Control_c, 6, 7, 104
8, 118875, Control_c, 6, 7, 105
8, 118948, Control_c, 6, 7, 106
8, 119021, Control_c, 6, 7, 107
8, 119093, Control_c, 6, 7, 108
8, 119166, Control_c, 6, 7, 109
8, 119239, Control_c, 6, 7, 110
8, 119312, Control_c, 6, 7, 111
8, 119385, Control_c, 6, 7, 112
8, 119458, Control_c, 6, 7, 113
8, 119520, Note_on_c, 6, 50, 120
8, 119531, Control_c, 6, 7, 114
8, 119604, Control_c, 6, 7, 115
8, 119677, Control_c, 6, 7, 116
8, 119750, Control_c, 6, 7, 117
8, 119760, Note_on_c, 6, 50, 0
8, 119760, Note_on_c, 6, 50, 120
8, 119822, Control_c, 6, 7, 118
8, 119895, Control_c, 6, 7, 119
8, 119940, Note_on_c, 6, 50, 0
8, 119940, Note_on_c, 6, 50, 121
8, 119968, Control_c, 6, 7, 120
8, 120000, Note_on_c, 6, 50, 0
8, 120000, Note_on_c, 6, 50, 121
8, 120041, Control_c, 6, 7, 121
8, 120108, Note_on_c, 6, 50, 0
8, 120114, Control_c, 6, 7, 122
8, 120187, Control_c, 6, 7, 123
8, 120240, Note_on_c, 6, 50, 122
8, 120260, Control_c, 6, 7, 124
8, 120333, Control_c, 6, 7, 125
8, 120348, Note_on_c, 6, 50, 0
8, 120406, Control_c, 6, 7, 126
8, 120479, Control_c, 6, 7, 127
8, 120480, Note_on_c, 6, 50, 122
8, 120577, Note_on_c, 6, 50, 0
8, 120720, Note_on_c, 6, 50, 122
8, 120807, Note_on_c, 6, 50, 0
8, 120960, Note_on_c, 6, 50, 122
8, 121057, Note_on_c, 6, 50, 0
8, 121200, Note_on_c, 6, 50, 122
8, 121287, Note_on_c, 6, 50, 0
8, 121440, Note_on_c, 6, 50, 121
8, 121537, Note_on_c, 6, 50, 0
8, 121680, Note_on_c, 6, 50, 121
8, 121767, Note_on_c, 6, 50, 0
8, 121920, Note_on_c, 6, 50, 120
8, 122017, Note_on_c, 6, 50, 0
8, 122040, Note_on_c, 6, 50, 98
8, 122127, Note_on_c, 6, 50, 0
8, 122160, Note_on_c, 6, 50, 100
8, 122247, Note_on_c, 6, 50, 0
8, 122280, Note_on_c, 6, 50, 101
8, 122367, Note_on_c, 6, 50, 0
8, 122400, Note_on_c, 6, 50, 120
8, 122508, Note_on_c, 6, 50, 0
8, 122760, Note_on_c, 6, 45, 119
8, 122864, Note_on_c, 6, 45, 0
8, 122880, Note_on_c, 6, 50, 119
8, 122988, Note_on_c, 6, 50, 0
8, 123000, Note_on_c, 6, 50, 119
8, 123087, Note_on_c, 6, 50, 0
8, 123240, Note_on_c, 6, 45, 119
8, 123344, Note_on_c, 6, 45, 0
8, 123360, Note_on_c, 6, 50, 120
8, 123468, Note_on_c, 6, 50, 0
8, 123480, Note_on_c, 6, 50, 120
8, 123567, Note_on_c, 6, 50, 0
8, 123720, Note_on_c, 6, 45, 120
8, 123824, Note_on_c, 6, 45, 0
8, 123840, Note_on_c, 6, 50, 120
8, 123948, Note_on_c, 6, 50, 0
8, 123960, Note_on_c, 6, 45, 120
8, 124047, Note_on_c, 6, 45, 0
8, 124080, Note_on_c, 6, 50, 120
8, 124167, Note_on_c, 6, 50, 0
8, 124200, Note_on_c, 6, 45, 120
8, 124304, Note_on_c, 6, 45, 0
8, 124320, Note_on_c, 6, 50, 120
8, 124428, Note_on_c, 6, 50, 0
8, 125280, Note_on_c, 6, 50, 120
8, 125388, Note_on_c, 6, 50, 0
8, 125760, Note_on_c, 6, 45, 120
8, 125868, Note_on_c, 6, 45, 0
8, 126240, Note_on_c, 6, 50, 120
8, 126348, Note_on_c, 6, 50, 0
8, 126480, Note_on_c, 6, 50, 120
8, 126567, Note_on_c, 6, 50, 0
8, 126720, Note_on_c, 6, 50, 120
8, 126853, Note_on_c, 6, 50, 0
8, 126960, Note_on_c, 6, 45, 120
8, 127080, Note_on_c, 6, 45, 0
8, 127200, Note_on_c, 6, 50, 120
8, 127305, Note_on_c, 6, 50, 0
8, 127440, Note_on_c, 6, 50, 120
8, 127526, Note_on_c, 6, 50, 0
8, 127680, Note_on_c, 6, 50, 120
8, 127785, Note_on_c, 6, 50, 0
8, 127920, Note_on_c, 6, 50, 120
8, 128006, Note_on_c, 6, 50, 0
8, 128160, Note_on_c, 6, 50, 121
8, 128265, Note_on_c, 6, 50, 0
8, 128400, Note_on_c, 6, 50, 125
8, 128486, Note_on_c, 6, 50, 0
8, 128640, Note_on_c, 6, 50, 125
8, 128745, Note_on_c, 6, 50, 0
8, 128760, Note_on_c, 6, 50, 109
8, 128846, Note_on_c, 6, 50, 0
8, 128880, Note_on_c, 6, 50, 109
8, 128966, Note_on_c, 6, 50, 0
8, 129000, Note_on_c, 6, 50, 109
8, 129103, Note_on_c, 6, 50, 0
8, 129120, Note_on_c, 6, 50, 120
8, 129225, Note_on_c, 6, 50, 0
8, 129480, Note_on_c, 6, 45, 124
8, 129583, Note_on_c, 6, 45, 0
8, 129600, Note_on_c, 6, 50, 124
8, 129705, Note_on_c, 6, 50, 0
8, 129720, Note_on_c, 6, 50, 124
8, 129806, Note_on_c, 6, 50, 0
8, 129960, Note_on_c, 6, 45, 124
8, 130063, Note_on_c, 6, 45, 0
8, 130080, Note_on_c, 6, 50, 123
8, 130185, Note_on_c, 6, 50, 0
8, 130200, Note_on_c, 6, 50, 123
8, 130286, Note_on_c, 6, 50, 0
8, 130440, Note_on_c, 6, 45, 123
8, 130543, Note_on_c, 6, 45, 0
8, 130560, Note_on_c, 6, 50, 123
8, 130665, Note_on_c, 6, 50, 0
8, 130680, Note_on_c, 6, 45, 123
8, 130766, Note_on_c, 6, 45, 0
8, 130800, Note_on_c, 6, 50, 123
8, 130886, Note_on_c, 6, 50, 0
8, 130920, Note_on_c, 6, 45, 123
8, 131023, Note_on_c, 6, 45, 0
8, 131040, Note_on_c, 6, 50, 123
8, 131145, Note_on_c, 6, 50, 0
8, 132000, Note_on_c, 6, 50, 100
8, 132095, Note_on_c, 6, 50, 0
8, 132480, Note_on_c, 6, 45, 100
8, 132575, Note_on_c, 6, 45, 0
8, 132960, Note_on_c, 6, 50, 122
8, 133080, Note_on_c, 6, 50, 0
8, 133200, Note_on_c, 6, 50, 122
8, 133320, Note_on_c, 6, 50, 0
8, 133440, Note_on_c, 6, 50, 122
8, 133560, Note_on_c, 6, 50, 0
8, 133680, Note_on_c, 6, 45, 123
8, 133800, Note_on_c, 6, 45, 0
8, 133920, Note_on_c, 6, 50, 123
8, 134040, Note_on_c, 6, 50, 0
8, 134400, Note_on_c, 6, 45, 124
8, 134520, Note_on_c, 6, 45, 0
8, 134880, Note_on_c, 6, 50, 126
8, 135000, Note_on_c, 6, 50, 0
8, 135120, Note_on_c, 6, 50, 127
8, 135240, Note_on_c, 6, 50, 0
8, 135360, Note_on_c, 6, 50, 127
8, 135480, Note_on_c, 6, 50, 0
8, 135600, Note_on_c, 6, 45, 127
8, 135720, Note_on_c, 6, 45, 0
8, 135840, Note_on_c, 6, 50, 127
8, 136056, Note_on_c, 6, 50, 0
8, 136080, Note_on_c, 6, 50, 127
8, 136242, Note_on_c, 6, 50, 0
8, 136260, Note_on_c, 6, 50, 127
8, 136303, Note_on_c, 6, 50, 0
8, 136320, Note_on_c, 6, 50, 127
8, 136428, Note_on_c, 6, 50, 0
8, 136800, Note_on_c, 6, 50, 127
8, 137016, Note_on_c, 6, 50, 0
8, 137040, Note_on_c, 6, 50, 127
8, 137202, Note_on_c, 6, 50, 0
8, 137220, Note_on_c, 6, 50, 127
8, 137263, Note_on_c, 6, 50, 0
8, 137280, Note_on_c, 6, 50, 127
8, 137388, Note_on_c, 6, 50, 0
8, 137760, Note_on_c, 6, 50, 127
8, 137976, Note_on_c, 6, 50, 0
8, 138000, Note_on_c, 6, 50, 127
8, 138162, Note_on_c, 6, 50, 0
8, 138180, Note_on_c, 6, 50, 127
8, 138223, Note_on_c, 6, 50, 0
8, 138240, Note_on_c, 6, 50, 127
8, 138348, Note_on_c, 6, 50, 0
8, 138720, Note_on_c, 6, 50, 127
8, 138828, Note_on_c, 6, 50, 0
8, 138960, Note_on_c, 6, 50, 127
8, 139068, Note_on_c, 6, 50, 0
8, 139200, Note_on_c, 6, 50, 127
8, 139308, Note_on_c, 6, 50, 0
8, 139440, Note_on_c, 6, 50, 127
8, 139548, Note_on_c, 6, 50, 0
8, 139680, Note_on_c, 6, 50, 127
8, 139788, Note_on_c, 6, 50, 0
8, 140160, Note_on_c, 6, 50, 122
8, 140268, Note_on_c, 6, 50, 0
8, 140640, Note_on_c, 6, 50, 122
8, 140856, Note_on_c, 6, 50, 0
8, 140856, End_track
9, 0, Start_track
9, 0, MIDI_port, 0
9, 0, Title_t, "Strings"
9, 0, Program_c, 7, 48
9, 0, Control_c, 7, 7, 72
9, 0, Control_c, 7, 91, 96
9, 0, Note_on_c, 7, 62, 98
9, 0, Note_on_c, 7, 62, 98
9, 0, Note_on_c, 7, 62, 98
9, 16, Note_on_c, 7, 50, 102
9, 58, Note_on_c, 7, 62, 0
9, 58, Note_on_c, 7, 62, 0
9, 58, Note_on_c, 7, 62, 0
9, 60, Note_on_c, 7, 61, 96
9, 60, Note_on_c, 7, 61, 96
9, 60, Note_on_c, 7, 61, 96
9, 60, Note_on_c, 7, 49, 96
9, 74, Note_on_c, 7, 50, 0
9, 120, Note_on_c, 7, 62, 91
9, 120, Note_on_c, 7, 62, 91
9, 120, Note_on_c, 7, 62, 91
9, 120, Note_on_c, 7, 50, 91
9, 122, Note_on_c, 7, 61, 0
9, 122, Note_on_c, 7, 49, 0
9, 122, Note_on_c, 7, 61, 0
9, 122, Note_on_c, 7, 61, 0
9, 180, Note_on_c, 7, 61, 87
9, 180, Note_on_c, 7, 61, 87
9, 180, Note_on_c, 7, 61, 87
9, 180, Note_on_c, 7, 49, 87
9, 182, Note_on_c, 7, 62, 0
9, 182, Note_on_c, 7, 62, 0
9, 182, Note_on_c, 7, 50, 0
9, 182, Note_on_c, 7, 62, 0
9, 240, Note_on_c, 7, 62, 89
9, 240, Note_on_c, 7, 62, 89
9, 240, Note_on_c, 7, 62, 89
9, 240, Note_on_c, 7, 50, 89
9, 242, Note_on_c, 7, 61, 0
9, 242, Note_on_c, 7, 61, 0
9, 242, Note_on_c, 7, 49, 0
9, 242, Note_on_c, 7, 61, 0
9, 408, Note_on_c, 7, 62, 0
9, 408, Note_on_c, 7, 50, 0
9, 408, Note_on_c, 7, 62, 0
9, 408, Note_on_c, 7, 62, 0
9, 480, Note_on_c, 7, 62, 79
9, 480, Note_on_c, 7, 62, 79
9, 480, Control_c, 7, 7, 48
9, 480, Note_on_c, 7, 62, 84
9, 480, Note_on_c, 7, 50, 82
9, 497, Control_c, 7, 7, 49
9, 514, Control_c, 7, 7, 50
9, 531, Control_c, 7, 7, 51
9, 540, Note_on_c, 7, 61, 85
9, 540, Note_on_c, 7, 61, 85
9, 540, Note_on_c, 7, 61, 89
9, 540, Note_on_c, 7, 49, 88
9, 547, Note_on_c, 7, 50, 0
9, 547, Note_on_c, 7, 62, 0
9, 547, Note_on_c, 7, 62, 0
9, 547, Note_on_c, 7, 62, 0
9, 548, Control_c, 7, 7, 52
9, 565, Control_c, 7, 7, 53
9, 582, Control_c, 7, 7, 54
9, 599, Control_c, 7, 7, 55
9, 600, Note_on_c, 7, 62, 90
9, 600, Note_on_c, 7, 62, 90
9, 600, Note_on_c, 7, 62, 93
9, 600, Note_on_c, 7, 50, 93
9, 602, Note_on_c, 7, 61, 0
9, 602, Note_on_c, 7, 61, 0
9, 602, Note_on_c, 7, 49, 0
9, 602, Note_on_c, 7, 61, 0
9, 616, Control_c, 7, 7, 56
9, 633, Control_c, 7, 7, 57
9, 651, Control_c, 7, 7, 58
9, 660, Note_on_c, 7, 64, 93
9, 660, Note_on_c, 7, 64, 93
9, 660, Note_on_c, 7, 64, 94
9, 660, Note_on_c, 7, 52, 94
9, 662, Note_on_c, 7, 62, 0
9, 662, Note_on_c, 7, 62, 0
9, 662, Note_on_c, 7, 50, 0
9, 662, Note_on_c, 7, 62, 0
9, 668, Control_c, 7, 7, 59
9, 685, Control_c, 7, 7, 60
9, 702, Control_c, 7, 7, 61
9, 719, Control_c, 7, 7, 62
9, 720, Note_on_c, 7, 66, 97
9, 720, Note_on_c, 7, 66, 97
9, 720, Note_on_c, 7, 66, 99
9, 720, Note_on_c, 7, 54, 97
9, 722, Note_on_c, 7, 64, 0
9, 722, Note_on_c, 7, 64, 0
9, 722, Note_on_c, 7, 52, 0
9, 722, Note_on_c, 7, 64, 0
9, 736, Control_c, 7, 7, 63
9, 753, Control_c, 7, 7, 64
9, 770, Control_c, 7, 7, 65
9, 780, Note_on_c, 7, 64, 100
9, 780, Note_on_c, 7, 64, 100
9, 780, Note_on_c, 7, 64, 100
9, 780, Note_on_c, 7, 52, 98
9, 784, Note_on_c, 7, 66, 0
9, 784, Note_on_c, 7, 66, 0
9, 784, Note_on_c, 7, 54, 0
9, 784, Note_on_c, 7, 66, 0
9, 787, Control_c, 7, 7, 66
9, 805, Control_c, 7, 7, 67
9, 822, Control_c, 7, 7, 68
9, 830, Control_c, 7, 7, 69
9, 840, Note_on_c, 7, 66, 104
9, 840, Note_on_c, 7, 66, 104
9, 840, Note_on_c, 7, 66, 101
9, 840, Note_on_c, 7, 54, 98
9, 842, Note_on_c, 7, 64, 0
9, 842, Note_on_c, 7, 64, 0
9, 842, Note_on_c, 7, 52, 0
9, 842, Note_on_c, 7, 64, 0
9, 850, Control_c, 7, 7, 71
9, 860, Control_c, 7, 7, 72
9, 880, Control_c, 7, 7, 73
9, 890, Control_c, 7, 7, 74
9, 900, Note_on_c, 7, 67, 105
9, 900, Note_on_c, 7, 67, 105
9, 900, Note_on_c, 7, 67, 101
9, 900, Note_on_c, 7, 55, 98
9, 902, Note_on_c, 7, 66, 0
9, 902, Note_on_c, 7, 66, 0
9, 902, Note_on_c, 7, 54, 0
9, 902, Note_on_c, 7, 66, 0
9, 920, Control_c, 7, 7, 75
9, 940, Control_c, 7, 7, 76
9, 960, Note_on_c, 7, 69, 105
9, 960, Note_on_c, 7, 69, 105
9, 960, Note_on_c, 7, 69, 101
9, 960, Note_on_c, 7, 57, 98
9, 962, Note_on_c, 7, 67, 0
9, 962, Note_on_c, 7, 67, 0
9, 962, Note_on_c, 7, 55, 0
9, 962, Note_on_c, 7, 67, 0
9, 990, Control_c, 7, 7, 75
9, 1000, Control_c, 7, 7, 73
9, 1010, Control_c, 7, 7, 72
9, 1011, Control_c, 7, 7, 70
9, 1019, Control_c, 7, 7, 69
9, 1020, Note_on_c, 7, 68, 103
9, 1020, Note_on_c, 7, 68, 103
9, 1020, Note_on_c, 7, 68, 100
9, 1020, Note_on_c, 7, 56, 97
9, 1027, Note_on_c, 7, 69, 0
9, 1027, Note_on_c, 7, 69, 0
9, 1027, Note_on_c, 7, 57, 0
9, 1027, Note_on_c, 7, 69, 0
9, 1028, Control_c, 7, 7, 68
9, 1036, Control_c, 7, 7, 67
9, 1045, Control_c, 7, 7, 66
9, 1050, Control_c, 7, 7, 65
9, 1060, Control_c, 7, 7, 64
9, 1080, Note_on_c, 7, 69, 100
9, 1080, Note_on_c, 7, 69, 100
9, 1080, Note_on_c, 7, 69, 94
9, 1080, Note_on_c, 7, 57, 94
9, 1082, Note_on_c, 7, 68, 0
9, 1082, Note_on_c, 7, 68, 0
9, 1082, Note_on_c, 7, 56, 0
9, 1082, Note_on_c, 7, 68, 0
9, 1090, Control_c, 7, 7, 63
9, 1110, Control_c, 7, 7, 62
9, 1120, Control_c, 7, 7, 60
9, 1140, Note_on_c, 7, 68, 96
9, 1140, Note_on_c, 7, 68, 96
9, 1140, Note_on_c, 7, 68, 89
9, 1140, Note_on_c, 7, 56, 88
9, 1142, Note_on_c, 7, 69, 0
9, 1142, Note_on_c, 7, 69, 0
9, 1142, Note_on_c, 7, 57, 0
9, 1142, Note_on_c, 7, 69, 0
9, 1200, Note_on_c, 7, 69, 98
9, 1200, Note_on_c, 7, 69, 98
9, 1200, Note_on_c, 7, 69, 85
9, 1200, Note_on_c, 7, 57, 83
9, 1202, Note_on_c, 7, 68, 0
9, 1202, Note_on_c, 7, 68, 0
9, 1202, Note_on_c, 7, 56, 0
9, 1202, Note_on_c, 7, 68, 0
9, 1220, Control_c, 7, 7, 59
9, 1320, Control_c, 7, 7, 56
9, 1330, Control_c, 7, 7, 54
9, 1368, Note_on_c, 7, 69, 0
9, 1368, Note_on_c, 7, 57, 0
9, 1368, Note_on_c, 7, 69, 0
9, 1368, Note_on_c, 7, 69, 0
9, 1420, Control_c, 7, 7, 56
9, 1440, Note_on_c, 7, 69, 78
9, 1440, Note_on_c, 7, 69, 78
9, 1440, Note_on_c, 7, 69, 80
9, 1440, Note_on_c, 7, 57, 86
9, 1450, Control_c, 7, 7, 55
9, 1500, Note_on_c, 7, 68, 81
9, 1500, Note_on_c, 7, 68, 81
9, 1500, Note_on_c, 7, 68, 85
9, 1500, Note_on_c, 7, 56, 91
9, 1507, Note_on_c, 7, 57, 0
9, 1507, Note_on_c, 7, 69, 0
9, 1507, Note_on_c, 7, 69, 0
9, 1507, Note_on_c, 7, 69, 0
9, 1514, Control_c, 7, 7, 53
9, 1529, Control_c, 7, 7, 54
9, 1544, Control_c, 7, 7, 55
9, 1559, Control_c, 7, 7, 56
9, 1560, Note_on_c, 7, 69, 86
9, 1560, Note_on_c, 7, 69, 86
9, 1560, Note_on_c, 7, 69, 91
9, 1560, Note_on_c, 7, 57, 94
9, 1562, Note_on_c, 7, 68, 0
9, 1562, Note_on_c, 7, 68, 0
9, 1562, Note_on_c, 7, 56, 0
9, 1562, Note_on_c, 7, 68, 0
9, 1574, Control_c, 7, 7, 57
9, 1589, Control_c, 7, 7, 58
9, 1604, Control_c, 7, 7, 59
9, 1619, Control_c, 7, 7, 60
9, 1620, Note_on_c, 7, 70, 89
9, 1620, Note_on_c, 7, 70, 89
9, 1620, Note_on_c, 7, 70, 94
9, 1620, Note_on_c, 7, 58, 94
9, 1622, Note_on_c, 7, 69, 0
9, 1622, Note_on_c, 7, 69, 0
9, 1622, Note_on_c, 7, 57, 0
9, 1622, Note_on_c, 7, 69, 0
9, 1634, Control_c, 7, 7, 61
9, 1649, Control_c, 7, 7, 62
9, 1664, Control_c, 7, 7, 63
9, 1679, Control_c, 7, 7, 64
9, 1680, Note_on_c, 7, 71, 93
9, 1680, Note_on_c, 7, 71, 93
9, 1680, Note_on_c, 7, 71, 94
9, 1680, Note_on_c, 7, 59, 94
9, 1682, Note_on_c, 7, 70, 0
9, 1682, Note_on_c, 7, 70, 0
9, 1682, Note_on_c, 7, 58, 0
9, 1682, Note_on_c, 7, 70, 0
9, 1694, Control_c, 7, 7, 65
9, 1709, Control_c, 7, 7, 66
9, 1724, Control_c, 7, 7, 67
9, 1739, Control_c, 7, 7, 68
9, 1740, Note_on_c, 7, 69, 94
9, 1740, Note_on_c, 7, 69, 94
9, 1740, Note_on_c, 7, 69, 94
9, 1740, Note_on_c, 7, 57, 92
9, 1744, Note_on_c, 7, 71, 0
9, 1744, Note_on_c, 7, 71, 0
9, 1744, Note_on_c, 7, 59, 0
9, 1744, Note_on_c, 7, 71, 0
9, 1750, Control_c, 7, 7, 70
9, 1770, Control_c, 7, 7, 72
9, 1780, Control_c, 7, 7, 73
9, 1800, Note_on_c, 7, 67, 94
9, 1800, Note_on_c, 7, 67, 94
9, 1800, Note_on_c, 7, 67, 89
9, 1800, Control_c, 7, 7, 74
9, 1800, Note_on_c, 7, 55, 87
9, 1802, Note_on_c, 7, 69, 0
9, 1802, Note_on_c, 7, 69, 0
9, 1802, Note_on_c, 7, 57, 0
9, 1802, Note_on_c, 7, 69, 0
9, 1810, Control_c, 7, 7, 76
9, 1820, Control_c, 7, 7, 78
9, 1850, Control_c, 7, 7, 80
9, 1860, Note_on_c, 7, 66, 91
9, 1860, Note_on_c, 7, 66, 91
9, 1860, Note_on_c, 7, 66, 84
9, 1860, Note_on_c, 7, 54, 83
9, 1862, Note_on_c, 7, 67, 0
9, 1862, Note_on_c, 7, 67, 0
9, 1862, Note_on_c, 7, 55, 0
9, 1862, Note_on_c, 7, 67, 0
9, 1870, Control_c, 7, 7, 81
9, 1890, Control_c, 7, 7, 82
9, 1910, Control_c, 7, 7, 83
9, 1920, Note_on_c, 7, 64, 85
9, 1920, Note_on_c, 7, 64, 85
9, 1920, Note_on_c, 7, 64, 80
9, 1920, Note_on_c, 7, 52, 83
9, 1920, Control_c, 7, 7, 85
9, 1922, Note_on_c, 7, 66, 0
9, 1922, Note_on_c, 7, 66, 0
9, 1922, Note_on_c, 7, 54, 0
9, 1922, Note_on_c, 7, 66, 0
9, 1980, Note_on_c, 7, 63, 85
9, 1980, Note_on_c, 7, 63, 85
9, 1980, Note_on_c, 7, 63, 80
9, 1980, Note_on_c, 7, 51, 82
9, 1980, Control_c, 7, 7, 86
9, 1987, Note_on_c, 7, 64, 0
9, 1987, Note_on_c, 7, 64, 0
9, 1987, Note_on_c, 7, 52, 0
9, 1987, Note_on_c, 7, 64, 0
9, 2040, Note_on_c, 7, 64, 92
9, 2040, Note_on_c, 7, 64, 92
9, 2040, Note_on_c, 7, 64, 85
9, 2040, Note_on_c, 7, 52, 85
9, 2040, Control_c, 7, 7, 87
9, 2042, Note_on_c, 7, 63, 0
9, 2042, Note_on_c, 7, 63, 0
9, 2042, Note_on_c, 7, 51, 0
9, 2042, Note_on_c, 7, 63, 0
9, 2070, Control_c, 7, 7, 88
9, 2090, Control_c, 7, 7, 89
9, 2100, Note_on_c, 7, 66, 95
9, 2100, Note_on_c, 7, 66, 95
9, 2100, Note_on_c, 7, 66, 88
9, 2100, Note_on_c, 7, 54, 93
9, 2102, Note_on_c, 7, 64, 0
9, 2102, Note_on_c, 7, 64, 0
9, 2102, Note_on_c, 7, 52, 0
9, 2102, Note_on_c, 7, 64, 0
9, 2160, Note_on_c, 7, 67, 96
9, 2160, Note_on_c, 7, 67, 96
9, 2160, Note_on_c, 7, 67, 94
9, 2160, Note_on_c, 7, 55, 98
9, 2162, Note_on_c, 7, 66, 0
9, 2162, Note_on_c, 7, 66, 0
9, 2162, Note_on_c, 7, 54, 0
9, 2162, Note_on_c, 7, 66, 0
9, 2220, Note_on_c, 7, 66, 96
9, 2220, Note_on_c, 7, 66, 96
9, 2220, Note_on_c, 7, 66, 98
9, 2220, Note_on_c, 7, 54, 98
9, 2224, Note_on_c, 7, 67, 0
9, 2224, Note_on_c, 7, 67, 0
9, 2224, Note_on_c, 7, 55, 0
9, 2224, Note_on_c, 7, 67, 0
9, 2280, Note_on_c, 7, 64, 90
9, 2280, Note_on_c, 7, 64, 90
9, 2280, Note_on_c, 7, 64, 97
9, 2280, Note_on_c, 7, 52, 98
9, 2282, Note_on_c, 7, 66, 0
9, 2282, Note_on_c, 7, 66, 0
9, 2282, Note_on_c, 7, 54, 0
9, 2282, Note_on_c, 7, 66, 0
9, 2320, Control_c, 7, 7, 88
9, 2340, Note_on_c, 7, 62, 87
9, 2340, Note_on_c, 7, 62, 87
9, 2340, Note_on_c, 7, 62, 94
9, 2340, Note_on_c, 7, 50, 96
9, 2342, Note_on_c, 7, 64, 0
9, 2342, Note_on_c, 7, 64, 0
9, 2342, Note_on_c, 7, 52, 0
9, 2342, Note_on_c, 7, 64, 0
9, 2360, Control_c, 7, 7, 87
9, 2380, Control_c, 7, 7, 86
9, 2400, Note_on_c, 7, 61, 83
9, 2400, Note_on_c, 7, 61, 83
9, 2400, Note_on_c, 7, 61, 88
9, 2400, Note_on_c, 7, 49, 92
9, 2400, Control_c, 7, 7, 85
9, 2402, Note_on_c, 7, 62, 0
9, 2402, Note_on_c, 7, 62, 0
9, 2402, Note_on_c, 7, 50, 0
9, 2402, Note_on_c, 7, 62, 0
9, 2440, Control_c, 7, 7, 84
9, 2460, Note_on_c, 7, 62, 83
9, 2460, Note_on_c, 7, 62, 83
9, 2460, Note_on_c, 7, 62, 84
9, 2460, Note_on_c, 7, 50, 86
9, 2460, Control_c, 7, 7, 83
9, 2467, Note_on_c, 7, 61, 0
9, 2467, Note_on_c, 7, 61, 0
9, 2467, Note_on_c, 7, 49, 0
9, 2467, Note_on_c, 7, 61, 0
9, 2500, Control_c, 7, 7, 82
9, 2520, Note_on_c, 7, 64, 83
9, 2520, Note_on_c, 7, 64, 83
9, 2520, Note_on_c, 7, 64, 82
9, 2520, Note_on_c, 7, 52, 84
9, 2522, Note_on_c, 7, 62, 0
9, 2522, Note_on_c, 7, 62, 0
9, 2522, Note_on_c, 7, 50, 0
9, 2522, Note_on_c, 7, 62, 0
9, 2530, Control_c, 7, 7, 81
9, 2560, Control_c, 7, 7, 80
9, 2570, Control_c, 7, 7, 79
9, 2580, Note_on_c, 7, 62, 84
9, 2580, Note_on_c, 7, 62, 84
9, 2580, Note_on_c, 7, 62, 82
9, 2580, Note_on_c, 7, 50, 84
9, 2582, Note_on_c, 7, 64, 0
9, 2582, Note_on_c, 7, 64, 0
9, 2582, Note_on_c, 7, 52, 0
9, 2582, Note_on_c, 7, 64, 0
9, 2634, Control_c, 7, 7, 77
9, 2640, Note_on_c, 7, 61, 86
9, 2640, Note_on_c, 7, 61, 86
9, 2640, Note_on_c, 7, 61, 83
9, 2640, Note_on_c, 7, 49, 84
9, 2642, Note_on_c, 7, 62, 0
9, 2642, Note_on_c, 7, 62, 0
9, 2642, Note_on_c, 7, 50, 0
9, 2642, Note_on_c, 7, 62, 0
9, 2659, Control_c, 7, 7, 76
9, 2684, Control_c, 7, 7, 75
9, 2700, Note_on_c, 7, 57, 85
9, 2700, Note_on_c, 7, 57, 85
9, 2700, Note_on_c, 7, 57, 85
9, 2700, Note_on_c, 7, 45, 85
9, 2704, Note_on_c, 7, 61, 0
9, 2704, Note_on_c, 7, 61, 0
9, 2704, Note_on_c, 7, 49, 0
9, 2704, Note_on_c, 7, 61, 0
9, 2709, Control_c, 7, 7, 74
9, 2734, Control_c, 7, 7, 73
9, 2759, Control_c, 7, 7, 72
9, 2760, Note_on_c, 7, 59, 87
9, 2760, Note_on_c, 7, 59, 87
9, 2760, Note_on_c, 7, 59, 87
9, 2760, Note_on_c, 7, 47, 87
9, 2762, Note_on_c, 7, 57, 0
9, 2762, Note_on_c, 7, 57, 0
9, 2762, Note_on_c, 7, 45, 0
9, 2762, Note_on_c, 7, 57, 0
9, 2784, Control_c, 7, 7, 71
9, 2809, Control_c, 7, 7, 70
9, 2820, Note_on_c, 7, 61, 88
9, 2820, Note_on_c, 7, 61, 88
9, 2820, Note_on_c, 7, 61, 88
9, 2820, Note_on_c, 7, 49, 88
9, 2822, Note_on_c, 7, 59, 0
9, 2822, Note_on_c, 7, 59, 0
9, 2822, Note_on_c, 7, 47, 0
9, 2822, Note_on_c, 7, 59, 0
9, 2834, Control_c, 7, 7, 69
9, 2859, Control_c, 7, 7, 68
9, 2880, Note_on_c, 7, 62, 91
9, 2880, Note_on_c, 7, 62, 91
9, 2880, Note_on_c, 7, 62, 91
9, 2880, Note_on_c, 7, 50, 91
9, 2880, Note_on_c, 7, 50, 91
9, 2880, Note_on_c, 7, 50, 91
9, 2882, Note_on_c, 7, 61, 0
9, 2882, Note_on_c, 7, 61, 0
9, 2882, Note_on_c, 7, 49, 0
9, 2882, Note_on_c, 7, 61, 0
9, 2884, Control_c, 7, 7, 67
9, 2909, Control_c, 7, 7, 66
9, 2934, Control_c, 7, 7, 65
9, 2938, Note_on_c, 7, 50, 0
9, 2938, Note_on_c, 7, 50, 0
9, 2938, Note_on_c, 7, 50, 0
9, 2940, Note_on_c, 7, 50, 91
9, 2959, Control_c, 7, 7, 64
9, 2984, Control_c, 7, 7, 63
9, 2987, Note_on_c, 7, 50, 0
9, 3000, Note_on_c, 7, 50, 92
9, 3009, Control_c, 7, 7, 62
9, 3034, Control_c, 7, 7, 61
9, 3047, Note_on_c, 7, 50, 0
9, 3059, Control_c, 7, 7, 60
9, 3060, Note_on_c, 7, 50, 94
9, 3084, Control_c, 7, 7, 59
9, 3107, Note_on_c, 7, 50, 0
9, 3109, Control_c, 7, 7, 58
9, 3120, Note_on_c, 7, 62, 0
9, 3120, Note_on_c, 7, 62, 0
9, 3120, Note_on_c, 7, 62, 0
9, 3120, Note_on_c, 7, 50, 96
9, 3134, Control_c, 7, 7, 57
9, 3159, Control_c, 7, 7, 56
9, 3176, Note_on_c, 7, 50, 0
9, 3180, Note_on_c, 7, 50, 97
9, 3184, Control_c, 7, 7, 55
9, 3209, Control_c, 7, 7, 54
9, 3227, Note_on_c, 7, 50, 0
9, 3234, Control_c, 7, 7, 53
9, 3240, Note_on_c, 7, 50, 98
9, 3259, Control_c, 7, 7, 52
9, 3284, Control_c, 7, 7, 51
9, 3287, Note_on_c, 7, 50, 0
9, 3300, Note_on_c, 7, 50, 99
9, 3309, Control_c, 7, 7, 50
9, 3334, Control_c, 7, 7, 49
9, 3347, Note_on_c, 7, 50, 0
9, 3359, Control_c, 7, 7, 48
9, 3360, Note_on_c, 7, 62, 100
9, 3360, Note_on_c, 7, 50, 100
9, 3370, Control_c, 7, 7, 47
9, 3380, Control_c, 7, 7, 48
9, 3390, Control_c, 7, 7, 49
9, 3418, Note_on_c, 7, 50, 0
9, 3420, Note_on_c, 7, 50, 103
9, 3420, Control_c, 7, 7, 50
9, 3467, Note_on_c, 7, 50, 0
9, 3480, Note_on_c, 7, 50, 104
9, 3480, Control_c, 7, 7, 52
9, 3490, Control_c, 7, 7, 53
9, 3520, Control_c, 7, 7, 54
9, 3527, Note_on_c, 7, 50, 0
9, 3530, Control_c, 7, 7, 55
9, 3540, Note_on_c, 7, 50, 106
9, 3560, Control_c, 7, 7, 57
9, 3587, Note_on_c, 7, 50, 0
9, 3590, Control_c, 7, 7, 58
9, 3600, Note_on_c, 7, 62, 0
9, 3600, Note_on_c, 7, 50, 107
9, 3600, Control_c, 7, 7, 59
9, 3620, Control_c, 7, 7, 60
9, 3630, Control_c, 7, 7, 61
9, 3656, Note_on_c, 7, 50, 0
9, 3660, Note_on_c, 7, 50, 107
9, 3690, Control_c, 7, 7, 62
9, 3700, Control_c, 7, 7, 63
9, 3707, Note_on_c, 7, 50, 0
9, 3720, Note_on_c, 7, 50, 108
9, 3720, Control_c, 7, 7, 64
9, 3740, Control_c, 7, 7, 65
9, 3760, Control_c, 7, 7, 66
9, 3767, Note_on_c, 7, 50, 0
9, 3770, Control_c, 7, 7, 67
9, 3780, Note_on_c, 7, 50, 111
9, 3790, Control_c, 7, 7, 68
9, 3827, Note_on_c, 7, 50, 0
9, 3840, Note_on_c, 7, 50, 111
9, 3898, Note_on_c, 7, 50, 0
9, 3900, Note_on_c, 7, 50, 111
9, 3930, Control_c, 7, 7, 67
9, 3947, Note_on_c, 7, 50, 0
9, 3960, Note_on_c, 7, 50, 112
9, 3960, Control_c, 7, 7, 67
9, 3990, Control_c, 7, 7, 68
9, 4007, Note_on_c, 7, 50, 0
9, 4020, Note_on_c, 7, 50, 114
9, 4020, Control_c, 7, 7, 69
9, 4030, Control_c, 7, 7, 70
9, 4050, Control_c, 7, 7, 71
9, 4067, Note_on_c, 7, 50, 0
9, 4070, Control_c, 7, 7, 72
9, 4080, Note_on_c, 7, 50, 114
9, 4090, Control_c, 7, 7, 73
9, 4110, Control_c, 7, 7, 75
9, 4136, Note_on_c, 7, 50, 0
9, 4140, Note_on_c, 7, 50, 116
9, 4140, Control_c, 7, 7, 76
9, 4180, Control_c, 7, 7, 77
9, 4187, Note_on_c, 7, 50, 0
9, 4200, Note_on_c, 7, 50, 118
9, 4200, Control_c, 7, 7, 78
9, 4220, Control_c, 7, 7, 79
9, 4230, Control_c, 7, 7, 80
9, 4247, Note_on_c, 7, 50, 0
9, 4260, Note_on_c, 7, 50, 120
9, 4300, Control_c, 7, 7, 81
9, 4307, Note_on_c, 7, 50, 0
9, 4320, Note_on_c, 7, 62, 121
9, 4320, Note_on_c, 7, 50, 121
9, 4340, Control_c, 7, 7, 83
9, 4378, Note_on_c, 7, 50, 0
9, 4380, Note_on_c, 7, 50, 121
9, 4380, Control_c, 7, 7, 84
9, 4420, Control_c, 7, 7, 85
9, 4427, Note_on_c, 7, 50, 0
9, 4440, Note_on_c, 7, 50, 123
9, 4470, Control_c, 7, 7, 86
9, 4487, Note_on_c, 7, 50, 0
9, 4500, Note_on_c, 7, 50, 123
9, 4510, Control_c, 7, 7, 87
9, 4547, Note_on_c, 7, 50, 0
9, 4560, Note_on_c, 7, 62, 0
9, 4560, Note_on_c, 7, 50, 127
9, 4560, Control_c, 7, 7, 88
9, 4600, Control_c, 7, 7, 89
9, 4616, Note_on_c, 7, 50, 0
9, 4620, Note_on_c, 7, 50, 127
9, 4630, Control_c, 7, 7, 90
9, 4640, Control_c, 7, 7, 91
9, 4667, Note_on_c, 7, 50, 0
9, 4680, Note_on_c, 7, 50, 127
9, 4680, Control_c, 7, 7, 92
9, 4710, Control_c, 7, 7, 93
9, 4727, Note_on_c, 7, 50, 0
9, 4730, Control_c, 7, 7, 94
9, 4740, Note_on_c, 7, 50, 127
9, 4750, Control_c, 7, 7, 95
9, 4780, Control_c, 7, 7, 96
9, 4787, Note_on_c, 7, 50, 0
9, 4800, Note_on_c, 7, 50, 127
9, 4820, Control_c, 7, 7, 97
9, 4830, Control_c, 7, 7, 98
9, 4858, Note_on_c, 7, 50, 0
9, 4860, Note_on_c, 7, 50, 127
9, 4860, Control_c, 7, 7, 99
9, 4870, Control_c, 7, 7, 100
9, 4907, Note_on_c, 7, 50, 0
9, 4910, Control_c, 7, 7, 101
9, 4920, Note_on_c, 7, 50, 127
9, 4920, Control_c, 7, 7, 102
9, 4940, Control_c, 7, 7, 103
9, 4950, Control_c, 7, 7, 104
9, 4967, Note_on_c, 7, 50, 0
9, 4980, Note_on_c, 7, 50, 127
9, 5010, Control_c, 7, 7, 105
9, 5027, Note_on_c, 7, 50, 0
9, 5040, Note_on_c, 7, 50, 127
9, 5070, Control_c, 7, 7, 106
9, 5096, Note_on_c, 7, 50, 0
9, 5100, Note_on_c, 7, 50, 127
9, 5110, Control_c, 7, 7, 107
9, 5147, Note_on_c, 7, 50, 0
9, 5160, Note_on_c, 7, 50, 127
9, 5160, Control_c, 7, 7, 108
9, 5180, Control_c, 7, 7, 109
9, 5190, Control_c, 7, 7, 110
9, 5207, Note_on_c, 7, 50, 0
9, 5210, Control_c, 7, 7, 111
9, 5220, Note_on_c, 7, 50, 127
9, 5230, Control_c, 7, 7, 112
9, 5240, Control_c, 7, 7, 113
9, 5267, Note_on_c, 7, 50, 0
9, 5270, Control_c, 7, 7, 116
9, 5280, Note_on_c, 7, 62, 127
9, 5280, Note_on_c, 7, 69, 127
9, 5280, Note_on_c, 7, 74, 127
9, 5280, Note_on_c, 7, 62, 127
9, 5280, Control_c, 7, 7, 126
9, 5280, Note_on_c, 7, 62, 127
9, 5280, Note_on_c, 7, 50, 127
9, 5290, Control_c, 7, 7, 127
9, 5290, Note_on_c, 7, 86, 127
9, 5290, Note_on_c, 7, 78, 127
9, 5338, Note_on_c, 7, 50, 0
9, 5338, Note_on_c, 7, 62, 0
9, 5340, Note_on_c, 7, 62, 98
9, 5340, Note_on_c, 7, 50, 98
9, 5387, Note_on_c, 7, 50, 0
9, 5387, Note_on_c, 7, 62, 0
9, 5400, Note_on_c, 7, 69, 0
9, 5400, Note_on_c, 7, 62, 0
9, 5400, Note_on_c, 7, 74, 0
9, 5400, Note_on_c, 7, 62, 0
9, 5400, Note_on_c, 7, 62, 98
9, 5400, Note_on_c, 7, 50, 98
9, 5447, Note_on_c, 7, 50, 0
9, 5447, Note_on_c, 7, 62, 0
9, 5460, Note_on_c, 7, 62, 98
9, 5460, Note_on_c, 7, 50, 98
9, 5507, Note_on_c, 7, 50, 0
9, 5507, Note_on_c, 7, 62, 0
9, 5520, Note_on_c, 7, 62, 98
9, 5520, Note_on_c, 7, 50, 98
9, 5576, Note_on_c, 7, 50, 0
9, 5576, Note_on_c, 7, 62, 0
9, 5580, Note_on_c, 7, 62, 98
9, 5580, Note_on_c, 7, 50, 98
9, 5627, Note_on_c, 7, 50, 0
9, 5627, Note_on_c, 7, 62, 0
9, 5640, Note_on_c, 7, 62, 98
9, 5640, Note_on_c, 7, 50, 98
9, 5687, Note_on_c, 7, 50, 0
9, 5687, Note_on_c, 7, 62, 0
9, 5698, Note_on_c, 7, 86, 0
9, 5698, Note_on_c, 7, 78, 0
9, 5700, Note_on_c, 7, 62, 98
9, 5700, Note_on_c, 7, 50, 98
9, 5747, Note_on_c, 7, 50, 0
9, 5747, Note_on_c, 7, 62, 0
9, 5760, Note_on_c, 7, 85, 127
9, 5760, Note_on_c, 7, 76, 127
9, 5760, Note_on_c, 7, 62, 127
9, 5760, Note_on_c, 7, 50, 127
9, 5818, Note_on_c, 7, 50, 0
9, 5818, Note_on_c, 7, 62, 0
9, 5820, Note_on_c, 7, 62, 98
9, 5820, Note_on_c, 7, 50, 98
9, 5867, Note_on_c, 7, 50, 0
9, 5867, Note_on_c, 7, 62, 0
9, 5880, Note_on_c, 7, 62, 98
9, 5880, Note_on_c, 7, 50, 98
9, 5927, Note_on_c, 7, 50, 0
9, 5927, Note_on_c, 7, 62, 0
9, 5940, Note_on_c, 7, 62, 98
9, 5940, Note_on_c, 7, 50, 98
9, 5987, Note_on_c, 7, 50, 0
9, 5987, Note_on_c, 7, 62, 0
9, 6000, Note_on_c, 7, 62, 98
9, 6000, Note_on_c, 7, 50, 98
9, 6056, Note_on_c, 7, 50, 0
9, 6056, Note_on_c, 7, 62, 0
9, 6060, Note_on_c, 7, 62, 98
9, 6060, Note_on_c, 7, 50, 98
9, 6107, Note_on_c, 7, 50, 0
9, 6107, Note_on_c, 7, 62, 0
9, 6120, Note_on_c, 7, 76, 0
9, 6120, Note_on_c, 7, 85, 0
9, 6120, Note_on_c, 7, 79, 101
9, 6120, Note_on_c, 7, 86, 101
9, 6120, Note_on_c, 7, 62, 101
9, 6120, Note_on_c, 7, 50, 101
9, 6167, Note_on_c, 7, 50, 0
9, 6167, Note_on_c, 7, 79, 0
9, 6167, Note_on_c, 7, 86, 0
9, 6167, Note_on_c, 7, 62, 0
9, 6180, Note_on_c, 7, 83, 101
9, 6180, Note_on_c, 7, 62, 101
9, 6180, Note_on_c, 7, 50, 101
9, 6227, Note_on_c, 7, 50, 0
9, 6227, Note_on_c, 7, 62, 0
9, 6227, Note_on_c, 7, 83, 0
9, 6240, Note_on_c, 7, 81, 127
9, 6240, Note_on_c, 7, 78, 127
9, 6240, Note_on_c, 7, 62, 127
9, 6240, Note_on_c, 7, 50, 127
9, 6289, Note_on_c, 7, 50, 0
9, 6289, Note_on_c, 7, 62, 0
9, 6300, Note_on_c, 7, 62, 98
9, 6300, Note_on_c, 7, 50, 98
9, 6340, Note_on_c, 7, 50, 0
9, 6340, Note_on_c, 7, 62, 0
9, 6342, Note_on_c, 7, 78, 0
9, 6342, Note_on_c, 7, 81, 0
9, 6360, Note_on_c, 7, 86, 124
9, 6360, Note_on_c, 7, 78, 124
9, 6360, Note_on_c, 7, 62, 98
9, 6360, Note_on_c, 7, 50, 98
9, 6407, Note_on_c, 7, 50, 0
9, 6407, Note_on_c, 7, 62, 0
9, 6420, Note_on_c, 7, 62, 98
9, 6420, Note_on_c, 7, 50, 98
9, 6436, Note_on_c, 7, 86, 0
9, 6450, Note_on_c, 7, 78, 0
9, 6467, Note_on_c, 7, 62, 0
9, 6467, Note_on_c, 7, 50, 0
9, 6480, Note_on_c, 7, 76, 127
9, 6480, Note_on_c, 7, 62, 98
9, 6480, Note_on_c, 7, 50, 98
9, 6480, Note_on_c, 7, 86, 127
9, 6500, Note_on_c, 7, 86, 0
9, 6500, Note_on_c, 7, 85, 127
9, 6520, Note_on_c, 7, 85, 0
9, 6520, Note_on_c, 7, 83, 127
9, 6536, Note_on_c, 7, 50, 0
9, 6536, Note_on_c, 7, 76, 0
9, 6536, Note_on_c, 7, 62, 0
9, 6540, Note_on_c, 7, 83, 0
9, 6540, Note_on_c, 7, 85, 127
9, 6540, Note_on_c, 7, 62, 98
9, 6540, Note_on_c, 7, 50, 98
9, 6587, Note_on_c, 7, 50, 0
9, 6587, Note_on_c, 7, 62, 0
9, 6600, Note_on_c, 7, 85, 0
9, 6600, Note_on_c, 7, 79, 124
9, 6600, Note_on_c, 7, 86, 124
9, 6600, Note_on_c, 7, 62, 98
9, 6600, Note_on_c, 7, 50, 98
9, 6647, Note_on_c, 7, 50, 0
9, 6647, Note_on_c, 7, 62, 0
9, 6647, Note_on_c, 7, 79, 0
9, 6660, Note_on_c, 7, 86, 0
9, 6660, Note_on_c, 7, 83, 124
9, 6660, Note_on_c, 7, 62, 98
9, 6660, Note_on_c, 7, 50, 98
9, 6707, Note_on_c, 7, 50, 0
9, 6707, Note_on_c, 7, 62, 0
9, 6720, Note_on_c, 7, 83, 0
9, 6720, Note_on_c, 7, 81, 124
9, 6720, Note_on_c, 7, 78, 124
9, 6720, Note_on_c, 7, 62, 98
9, 6720, Note_on_c, 7, 50, 98
9, 6769, Note_on_c, 7, 50, 0
9, 6769, Note_on_c, 7, 62, 0
9, 6780, Note_on_c, 7, 62, 98
9, 6780, Note_on_c, 7, 50, 98
9, 6820, Note_on_c, 7, 50, 0
9, 6820, Note_on_c, 7, 62, 0
9, 6822, Note_on_c, 7, 78, 0
9, 6822, Note_on_c, 7, 81, 0
9, 6840, Note_on_c, 7, 78, 127
9, 6840, Note_on_c, 7, 86, 127
9, 6840, Note_on_c, 7, 62, 98
9, 6840, Note_on_c, 7, 50, 98
9, 6887, Note_on_c, 7, 50, 0
9, 6887, Note_on_c, 7, 62, 0
9, 6900, Note_on_c, 7, 62, 98
9, 6900, Note_on_c, 7, 50, 98
9, 6916, Note_on_c, 7, 86, 0
9, 6930, Note_on_c, 7, 78, 0
9, 6947, Note_on_c, 7, 62, 0
9, 6947, Note_on_c, 7, 50, 0
9, 6960, Note_on_c, 7, 76, 127
9, 6960, Note_on_c, 7, 62, 98
9, 6960, Note_on_c, 7, 50, 98
9, 6960, Note_on_c, 7, 86, 127
9, 6980, Note_on_c, 7, 86, 0
9, 6980, Note_on_c, 7, 85, 127
9, 7000, Note_on_c, 7, 85, 0
9, 7000, Note_on_c, 7, 83, 127
9, 7016, Note_on_c, 7, 50, 0
9, 7016, Note_on_c, 7, 76, 0
9, 7016, Note_on_c, 7, 62, 0
9, 7020, Note_on_c, 7, 83, 0
9, 7020, Note_on_c, 7, 85, 127
9, 7020, Note_on_c, 7, 62, 98
9, 7020, Note_on_c, 7, 50, 98
9, 7067, Note_on_c, 7, 50, 0
9, 7067, Note_on_c, 7, 62, 0
9, 7080, Note_on_c, 7, 85, 0
9, 7080, Note_on_c, 7, 79, 127
9, 7080, Note_on_c, 7, 86, 127
9, 7080, Note_on_c, 7, 62, 98
9, 7080, Note_on_c, 7, 50, 98
9, 7127, Note_on_c, 7, 50, 0
9, 7127, Note_on_c, 7, 62, 0
9, 7127, Note_on_c, 7, 79, 0
9, 7140, Note_on_c, 7, 86, 0
9, 7140, Note_on_c, 7, 83, 127
9, 7140, Note_on_c, 7, 62, 98
9, 7140, Note_on_c, 7, 50, 98
9, 7187, Note_on_c, 7, 50, 0
9, 7187, Note_on_c, 7, 62, 0
9, 7200, Note_on_c, 7, 83, 0
9, 7200, Control_c, 7, 7, 127
9, 7200, Control_c, 7, 7, 127
9, 7200, Control_c, 7, 7, 127
9, 7200, Control_c, 7, 7, 127
9, 7200, Control_c, 7, 7, 127
9, 7200, Control_c, 7, 7, 127
9, 7200, Control_c, 7, 7, 127
9, 7200, Control_c, 7, 7, 127
9, 7200, Note_on_c, 7, 78, 127
9, 7200, Note_on_c, 7, 81, 127
9, 7200, Note_on_c, 7, 62, 98
9, 7200, Note_on_c, 7, 50, 98
9, 7227, Control_c, 7, 7, 126
9, 7227, Control_c, 7, 7, 126
9, 7227, Control_c, 7, 7, 126
9, 7227, Control_c, 7, 7, 126
9, 7227, Control_c, 7, 7, 126
9, 7227, Control_c, 7, 7, 126
9, 7227, Control_c, 7, 7, 126
9, 7227, Control_c, 7, 7, 126
9, 7254, Control_c, 7, 7, 125
9, 7254, Control_c, 7, 7, 125
9, 7254, Control_c, 7, 7, 125
9, 7254, Control_c, 7, 7, 125
9, 7254, Control_c, 7, 7, 125
9, 7254, Control_c, 7, 7, 125
9, 7254, Control_c, 7, 7, 125
9, 7254, Control_c, 7, 7, 125
9, 7281, Control_c, 7, 7, 124
9, 7281, Control_c, 7, 7, 124
9, 7281, Control_c, 7, 7, 124
9, 7281, Control_c, 7, 7, 124
9, 7281, Control_c, 7, 7, 124
9, 7281, Control_c, 7, 7, 124
9, 7281, Control_c, 7, 7, 124
9, 7281, Control_c, 7, 7, 124
9, 7302, Note_on_c, 7, 81, 0
9, 7302, Note_on_c, 7, 78, 0
9, 7308, Control_c, 7, 7, 123
9, 7308, Control_c, 7, 7, 123
9, 7308, Control_c, 7, 7, 123
9, 7308, Control_c, 7, 7, 123
9, 7308, Control_c, 7, 7, 123
9, 7308, Control_c, 7, 7, 123
9, 7308, Control_c, 7, 7, 123
9, 7308, Control_c, 7, 7, 123
9, 7335, Control_c, 7, 7, 122
9, 7335, Control_c, 7, 7, 122
9, 7335, Control_c, 7, 7, 122
9, 7335, Control_c, 7, 7, 122
9, 7335, Control_c, 7, 7, 122
9, 7335, Control_c, 7, 7, 122
9, 7335, Control_c, 7, 7, 122
9, 7335, Control_c, 7, 7, 122
9, 7362, Control_c, 7, 7, 121
9, 7362, Control_c, 7, 7, 121
9, 7362, Control_c, 7, 7, 121
9, 7362, Control_c, 7, 7, 121
9, 7362, Control_c, 7, 7, 121
9, 7362, Control_c, 7, 7, 121
9, 7362, Control_c, 7, 7, 121
9, 7362, Control_c, 7, 7, 121
9, 7389, Control_c, 7, 7, 120
9, 7389, Control_c, 7, 7, 120
9, 7389, Control_c, 7, 7, 120
9, 7389, Control_c, 7, 7, 120
9, 7389, Control_c, 7, 7, 120
9, 7389, Control_c, 7, 7, 120
9, 7389, Control_c, 7, 7, 120
9, 7389, Control_c, 7, 7, 120
9, 7404, Note_on_c, 7, 62, 0
9, 7404, Note_on_c, 7, 50, 0
9, 7416, Control_c, 7, 7, 119
9, 7416, Control_c, 7, 7, 119
9, 7416, Control_c, 7, 7, 119
9, 7416, Control_c, 7, 7, 119
9, 7416, Control_c, 7, 7, 119
9, 7416, Control_c, 7, 7, 119
9, 7416, Control_c, 7, 7, 119
9, 7416, Control_c, 7, 7, 119
9, 7440, Note_on_c, 7, 62, 127
9, 7440, Note_on_c, 7, 62, 127
9, 7440, Note_on_c, 7, 67, 98
9, 7440, Note_on_c, 7, 55, 98
9, 7443, Control_c, 7, 7, 118
9, 7443, Control_c, 7, 7, 118
9, 7443, Control_c, 7, 7, 118
9, 7443, Control_c, 7, 7, 118
9, 7443, Control_c, 7, 7, 118
9, 7443, Control_c, 7, 7, 118
9, 7443, Control_c, 7, 7, 118
9, 7443, Control_c, 7, 7, 118
9, 7470, Control_c, 7, 7, 117
9, 7470, Control_c, 7, 7, 117
9, 7470, Control_c, 7, 7, 117
9, 7470, Control_c, 7, 7, 117
9, 7470, Control_c, 7, 7, 117
9, 7470, Control_c, 7, 7, 117
9, 7470, Control_c, 7, 7, 117
9, 7470, Control_c, 7, 7, 117
9, 7470, Note_on_c, 7, 71, 127
9, 7470, Note_on_c, 7, 71, 127
9, 7498, Control_c, 7, 7, 116
9, 7498, Control_c, 7, 7, 116
9, 7498, Control_c, 7, 7, 116
9, 7498, Control_c, 7, 7, 116
9, 7498, Control_c, 7, 7, 116
9, 7498, Control_c, 7, 7, 116
9, 7498, Control_c, 7, 7, 116
9, 7498, Control_c, 7, 7, 116
9, 7500, Note_on_c, 7, 79, 127
9, 7500, Note_on_c, 7, 79, 127
9, 7525, Control_c, 7, 7, 115
9, 7525, Control_c, 7, 7, 115
9, 7525, Control_c, 7, 7, 115
9, 7525, Control_c, 7, 7, 115
9, 7525, Control_c, 7, 7, 115
9, 7525, Control_c, 7, 7, 115
9, 7525, Control_c, 7, 7, 115
9, 7525, Control_c, 7, 7, 115
9, 7542, Note_on_c, 7, 62, 0
9, 7542, Note_on_c, 7, 62, 0
9, 7552, Control_c, 7, 7, 114
9, 7552, Control_c, 7, 7, 114
9, 7552, Control_c, 7, 7, 114
9, 7552, Control_c, 7, 7, 114
9, 7552, Control_c, 7, 7, 114
9, 7552, Control_c, 7, 7, 114
9, 7552, Control_c, 7, 7, 114
9, 7552, Control_c, 7, 7, 114
9, 7572, Note_on_c, 7, 71, 0
9, 7572, Note_on_c, 7, 71, 0
9, 7579, Control_c, 7, 7, 113
9, 7579, Control_c, 7, 7, 113
9, 7579, Control_c, 7, 7, 113
9, 7579, Control_c, 7, 7, 113
9, 7579, Control_c, 7, 7, 113
9, 7579, Control_c, 7, 7, 113
9, 7579, Control_c, 7, 7, 113
9, 7579, Control_c, 7, 7, 113
9, 7602, Note_on_c, 7, 79, 0
9, 7602, Note_on_c, 7, 79, 0
9, 7606, Control_c, 7, 7, 112
9, 7606, Control_c, 7, 7, 112
9, 7606, Control_c, 7, 7, 112
9, 7606, Control_c, 7, 7, 112
9, 7606, Control_c, 7, 7, 112
9, 7606, Control_c, 7, 7, 112
9, 7606, Control_c, 7, 7, 112
9, 7606, Control_c, 7, 7, 112
9, 7633, Control_c, 7, 7, 111
9, 7633, Control_c, 7, 7, 111
9, 7633, Control_c, 7, 7, 111
9, 7633, Control_c, 7, 7, 111
9, 7633, Control_c, 7, 7, 111
9, 7633, Control_c, 7, 7, 111
9, 7633, Control_c, 7, 7, 111
9, 7633, Control_c, 7, 7, 111
9, 7644, Note_on_c, 7, 67, 0
9, 7644, Note_on_c, 7, 55, 0
9, 7660, Control_c, 7, 7, 110
9, 7660, Control_c, 7, 7, 110
9, 7660, Control_c, 7, 7, 110
9, 7660, Control_c, 7, 7, 110
9, 7660, Control_c, 7, 7, 110
9, 7660, Control_c, 7, 7, 110
9, 7660, Control_c, 7, 7, 110
9, 7660, Control_c, 7, 7, 110
9, 7680, Note_on_c, 7, 62, 127
9, 7680, Note_on_c, 7, 62, 127
9, 7680, Note_on_c, 7, 69, 98
9, 7680, Note_on_c, 7, 57, 98
9, 7687, Control_c, 7, 7, 109
9, 7687, Control_c, 7, 7, 109
9, 7687, Control_c, 7, 7, 109
9, 7687, Control_c, 7, 7, 109
9, 7687, Control_c, 7, 7, 109
9, 7687, Control_c, 7, 7, 109
9, 7687, Control_c, 7, 7, 109
9, 7687, Control_c, 7, 7, 109
9, 7710, Note_on_c, 7, 69, 127
9, 7710, Note_on_c, 7, 69, 127
9, 7714, Control_c, 7, 7, 108
9, 7714, Control_c, 7, 7, 108
9, 7714, Control_c, 7, 7, 108
9, 7714, Control_c, 7, 7, 108
9, 7714, Control_c, 7, 7, 108
9, 7714, Control_c, 7, 7, 108
9, 7714, Control_c, 7, 7, 108
9, 7714, Control_c, 7, 7, 108
9, 7740, Note_on_c, 7, 78, 127
9, 7740, Note_on_c, 7, 78, 127
9, 7741, Control_c, 7, 7, 107
9, 7741, Control_c, 7, 7, 107
9, 7741, Control_c, 7, 7, 107
9, 7741, Control_c, 7, 7, 107
9, 7741, Control_c, 7, 7, 107
9, 7741, Control_c, 7, 7, 107
9, 7741, Control_c, 7, 7, 107
9, 7741, Control_c, 7, 7, 107
9, 7769, Control_c, 7, 7, 106
9, 7769, Control_c, 7, 7, 106
9, 7769, Control_c, 7, 7, 106
9, 7769, Control_c, 7, 7, 106
9, 7769, Control_c, 7, 7, 106
9, 7769, Control_c, 7, 7, 106
9, 7769, Control_c, 7, 7, 106
9, 7769, Control_c, 7, 7, 106
9, 7782, Note_on_c, 7, 62, 0
9, 7782, Note_on_c, 7, 62, 0
9, 7796, Control_c, 7, 7, 105
9, 7796, Control_c, 7, 7, 105
9, 7796, Control_c, 7, 7, 105
9, 7796, Control_c, 7, 7, 105
9, 7796, Control_c, 7, 7, 105
9, 7796, Control_c, 7, 7, 105
9, 7796, Control_c, 7, 7, 105
9, 7796, Control_c, 7, 7, 105
9, 7800, Note_on_c, 7, 69, 0
9, 7812, Note_on_c, 7, 69, 0
9, 7823, Control_c, 7, 7, 104
9, 7823, Control_c, 7, 7, 104
9, 7823, Control_c, 7, 7, 104
9, 7823, Control_c, 7, 7, 104
9, 7823, Control_c, 7, 7, 104
9, 7823, Control_c, 7, 7, 104
9, 7823, Control_c, 7, 7, 104
9, 7823, Control_c, 7, 7, 104
9, 7842, Note_on_c, 7, 78, 0
9, 7842, Note_on_c, 7, 78, 0
9, 7850, Control_c, 7, 7, 103
9, 7850, Control_c, 7, 7, 103
9, 7850, Control_c, 7, 7, 103
9, 7850, Control_c, 7, 7, 103
9, 7850, Control_c, 7, 7, 103
9, 7850, Control_c, 7, 7, 103
9, 7850, Control_c, 7, 7, 103
9, 7850, Control_c, 7, 7, 103
9, 7877, Control_c, 7, 7, 102
9, 7877, Control_c, 7, 7, 102
9, 7877, Control_c, 7, 7, 102
9, 7877, Control_c, 7, 7, 102
9, 7877, Control_c, 7, 7, 102
9, 7877, Control_c, 7, 7, 102
9, 7877, Control_c, 7, 7, 102
9, 7877, Control_c, 7, 7, 102
9, 7884, Note_on_c, 7, 69, 0
9, 7884, Note_on_c, 7, 57, 0
9, 7904, Control_c, 7, 7, 101
9, 7904, Control_c, 7, 7, 101
9, 7904, Control_c, 7, 7, 101
9, 7904, Control_c, 7, 7, 101
9, 7904, Control_c, 7, 7, 101
9, 7904, Control_c, 7, 7, 101
9, 7904, Control_c, 7, 7, 101
9, 7904, Control_c, 7, 7, 101
9, 7920, Note_on_c, 7, 69, 127
9, 7920, Note_on_c, 7, 69, 127
9, 7920, Note_on_c, 7, 57, 98
9, 7920, Note_on_c, 7, 45, 98
9, 7931, Control_c, 7, 7, 100
9, 7931, Control_c, 7, 7, 100
9, 7931, Control_c, 7, 7, 100
9, 7931, Control_c, 7, 7, 100
9, 7931, Control_c, 7, 7, 100
9, 7931, Control_c, 7, 7, 100
9, 7931, Control_c, 7, 7, 100
9, 7931, Control_c, 7, 7, 100
9, 7950, Note_on_c, 7, 73, 127
9, 7950, Note_on_c, 7, 73, 127
9, 7958, Control_c, 7, 7, 99
9, 7958, Control_c, 7, 7, 99
9, 7958, Control_c, 7, 7, 99
9, 7958, Control_c, 7, 7, 99
9, 7958, Control_c, 7, 7, 99
9, 7958, Control_c, 7, 7, 99
9, 7958, Control_c, 7, 7, 99
9, 7958, Control_c, 7, 7, 99
9, 7980, Note_on_c, 7, 76, 127
9, 7980, Note_on_c, 7, 76, 127
9, 7985, Control_c, 7, 7, 98
9, 7985, Control_c, 7, 7, 98
9, 7985, Control_c, 7, 7, 98
9, 7985, Control_c, 7, 7, 98
9, 7985, Control_c, 7, 7, 98
9, 7985, Control_c, 7, 7, 98
9, 7985, Control_c, 7, 7, 98
9, 7985, Control_c, 7, 7, 98
9, 8012, Control_c, 7, 7, 97
9, 8012, Control_c, 7, 7, 97
9, 8012, Control_c, 7, 7, 97
9, 8012, Control_c, 7, 7, 97
9, 8012, Control_c, 7, 7, 97
9, 8012, Control_c, 7, 7, 97
9, 8012, Control_c, 7, 7, 97
9, 8012, Control_c, 7, 7, 97
9, 8022, Note_on_c, 7, 69, 0
9, 8022, Note_on_c, 7, 69, 0
9, 8040, Control_c, 7, 7, 96
9, 8040, Control_c, 7, 7, 96
9, 8040, Control_c, 7, 7, 96
9, 8040, Control_c, 7, 7, 96
9, 8040, Control_c, 7, 7, 96
9, 8040, Control_c, 7, 7, 96
9, 8040, Control_c, 7, 7, 96
9, 8040, Control_c, 7, 7, 96
9, 8052, Note_on_c, 7, 73, 0
9, 8052, Note_on_c, 7, 73, 0
9, 8082, Note_on_c, 7, 76, 0
9, 8082, Note_on_c, 7, 76, 0
9, 8124, Note_on_c, 7, 57, 0
9, 8124, Note_on_c, 7, 45, 0
9, 8160, Note_on_c, 7, 62, 98
9, 8160, Note_on_c, 7, 62, 98
9, 8160, Control_c, 7, 7, 64
9, 8160, Note_on_c, 7, 62, 98
9, 8160, Note_on_c, 7, 50, 98
9, 8220, Note_on_c, 7, 61, 98
9, 8220, Note_on_c, 7, 61, 98
9, 8220, Note_on_c, 7, 61, 98
9, 8220, Note_on_c, 7, 49, 98
9, 8227, Note_on_c, 7, 50, 0
9, 8227, Note_on_c, 7, 62, 0
9, 8227, Note_on_c, 7, 62, 0
9, 8227, Note_on_c, 7, 62, 0
9, 8280, Note_on_c, 7, 62, 98
9, 8280, Note_on_c, 7, 62, 98
9, 8280, Note_on_c, 7, 62, 98
9, 8280, Note_on_c, 7, 50, 98
9, 8282, Note_on_c, 7, 61, 0
9, 8282, Note_on_c, 7, 61, 0
9, 8282, Note_on_c, 7, 49, 0
9, 8282, Note_on_c, 7, 61, 0
9, 8340, Note_on_c, 7, 61, 98
9, 8340, Note_on_c, 7, 61, 98
9, 8340, Note_on_c, 7, 61, 98
9, 8340, Note_on_c, 7, 49, 98
9, 8342, Note_on_c, 7, 62, 0
9, 8342, Note_on_c, 7, 62, 0
9, 8342, Note_on_c, 7, 50, 0
9, 8342, Note_on_c, 7, 62, 0
9, 8400, Note_on_c, 7, 62, 98
9, 8400, Note_on_c, 7, 62, 98
9, 8400, Note_on_c, 7, 62, 98
9, 8400, Note_on_c, 7, 50, 98
9, 8402, Note_on_c, 7, 61, 0
9, 8402, Note_on_c, 7, 61, 0
9, 8402, Note_on_c, 7, 49, 0
9, 8402, Note_on_c, 7, 61, 0
9, 8609, Note_on_c, 7, 62, 0
9, 8609, Note_on_c, 7, 50, 0
9, 8609, Note_on_c, 7, 62, 0
9, 8609, Note_on_c, 7, 62, 0
9, 8640, Note_on_c, 7, 62, 79
9, 8640, Note_on_c, 7, 62, 79
9, 8640, Note_on_c, 7, 62, 98
9, 8640, Control_c, 7, 7, 48
9, 8640, Note_on_c, 7, 50, 98
9, 8657, Control_c, 7, 7, 49
9, 8674, Control_c, 7, 7, 50
9, 8691, Control_c, 7, 7, 51
9, 8700, Note_on_c, 7, 61, 102
9, 8700, Note_on_c, 7, 61, 102
9, 8700, Note_on_c, 7, 61, 102
9, 8700, Note_on_c, 7, 49, 102
9, 8707, Note_on_c, 7, 50, 0
9, 8707, Note_on_c, 7, 62, 0
9, 8707, Note_on_c, 7, 62, 0
9, 8707, Note_on_c, 7, 62, 0
9, 8708, Control_c, 7, 7, 52
9, 8725, Control_c, 7, 7, 53
9, 8742, Control_c, 7, 7, 54
9, 8759, Control_c, 7, 7, 55
9, 8760, Note_on_c, 7, 62, 107
9, 8760, Note_on_c, 7, 62, 107
9, 8760, Note_on_c, 7, 62, 107
9, 8760, Note_on_c, 7, 50, 107
9, 8762, Note_on_c, 7, 61, 0
9, 8762, Note_on_c, 7, 61, 0
9, 8762, Note_on_c, 7, 49, 0
9, 8762, Note_on_c, 7, 61, 0
9, 8776, Control_c, 7, 7, 56
9, 8793, Control_c, 7, 7, 57
9, 8811, Control_c, 7, 7, 58
9, 8820, Note_on_c, 7, 64, 110
9, 8820, Note_on_c, 7, 64, 110
9, 8820, Note_on_c, 7, 64, 110
9, 8820, Note_on_c, 7, 52, 110
9, 8822, Note_on_c, 7, 62, 0
9, 8822, Note_on_c, 7, 62, 0
9, 8822, Note_on_c, 7, 50, 0
9, 8822, Note_on_c, 7, 62, 0
9, 8828, Control_c, 7, 7, 59
9, 8845, Control_c, 7, 7, 60
9, 8862, Control_c, 7, 7, 61
9, 8879, Control_c, 7, 7, 62
9, 8880, Note_on_c, 7, 66, 114
9, 8880, Note_on_c, 7, 66, 114
9, 8880, Note_on_c, 7, 66, 114
9, 8880, Note_on_c, 7, 54, 114
9, 8882, Note_on_c, 7, 64, 0
9, 8882, Note_on_c, 7, 64, 0
9, 8882, Note_on_c, 7, 52, 0
9, 8882, Note_on_c, 7, 64, 0
9, 8896, Control_c, 7, 7, 63
9, 8913, Control_c, 7, 7, 64
9, 8930, Control_c, 7, 7, 65
9, 8940, Note_on_c, 7, 64, 116
9, 8940, Note_on_c, 7, 64, 116
9, 8940, Note_on_c, 7, 64, 116
9, 8940, Note_on_c, 7, 52, 116
9, 8944, Note_on_c, 7, 66, 0
9, 8944, Note_on_c, 7, 66, 0
9, 8944, Note_on_c, 7, 54, 0
9, 8944, Note_on_c, 7, 66, 0
9, 8947, Control_c, 7, 7, 66
9, 8965, Control_c, 7, 7, 67
9, 8982, Control_c, 7, 7, 68
9, 8990, Control_c, 7, 7, 69
9, 9000, Note_on_c, 7, 66, 120
9, 9000, Note_on_c, 7, 66, 120
9, 9000, Note_on_c, 7, 66, 120
9, 9000, Note_on_c, 7, 54, 120
9, 9002, Note_on_c, 7, 64, 0
9, 9002, Note_on_c, 7, 64, 0
9, 9002, Note_on_c, 7, 52, 0
9, 9002, Note_on_c, 7, 64, 0
9, 9010, Control_c, 7, 7, 71
9, 9020, Control_c, 7, 7, 72
9, 9040, Control_c, 7, 7, 73
9, 9050, Control_c, 7, 7, 74
9, 9060, Note_on_c, 7, 67, 122
9, 9060, Note_on_c, 7, 67, 122
9, 9060, Note_on_c, 7, 67, 122
9, 9060, Note_on_c, 7, 55, 122
9, 9062, Note_on_c, 7, 66, 0
9, 9062, Note_on_c, 7, 66, 0
9, 9062, Note_on_c, 7, 54, 0
9, 9062, Note_on_c, 7, 66, 0
9, 9080, Control_c, 7, 7, 75
9, 9100, Control_c, 7, 7, 76
9, 9120, Note_on_c, 7, 69, 122
9, 9120, Note_on_c, 7, 69, 122
9, 9120, Note_on_c, 7, 69, 122
9, 9120, Note_on_c, 7, 57, 122
9, 9122, Note_on_c, 7, 67, 0
9, 9122, Note_on_c, 7, 67, 0
9, 9122, Note_on_c, 7, 55, 0
9, 9122, Note_on_c, 7, 67, 0
9, 9150, Control_c, 7, 7, 75
9, 9160, Control_c, 7, 7, 73
9, 9170, Control_c, 7, 7, 72
9, 9171, Control_c, 7, 7, 70
9, 9179, Control_c, 7, 7, 69
9, 9180, Note_on_c, 7, 68, 122
9, 9180, Note_on_c, 7, 68, 122
9, 9180, Note_on_c, 7, 68, 122
9, 9180, Note_on_c, 7, 56, 122
9, 9187, Note_on_c, 7, 69, 0
9, 9187, Note_on_c, 7, 69, 0
9, 9187, Note_on_c, 7, 57, 0
9, 9187, Note_on_c, 7, 69, 0
9, 9188, Control_c, 7, 7, 68
9, 9196, Control_c, 7, 7, 67
9, 9205, Control_c, 7, 7, 66
9, 9210, Control_c, 7, 7, 65
9, 9220, Control_c, 7, 7, 64
9, 9240, Note_on_c, 7, 69, 122
9, 9240, Note_on_c, 7, 69, 122
9, 9240, Note_on_c, 7, 69, 122
9, 9240, Note_on_c, 7, 57, 122
9, 9242, Note_on_c, 7, 68, 0
9, 9242, Note_on_c, 7, 68, 0
9, 9242, Note_on_c, 7, 56, 0
9, 9242, Note_on_c, 7, 68, 0
9, 9250, Control_c, 7, 7, 63
9, 9270, Control_c, 7, 7, 62
9, 9280, Control_c, 7, 7, 60
9, 9300, Note_on_c, 7, 68, 121
9, 9300, Note_on_c, 7, 68, 121
9, 9300, Note_on_c, 7, 68, 121
9, 9300, Note_on_c, 7, 56, 121
9, 9302, Note_on_c, 7, 69, 0
9, 9302, Note_on_c, 7, 69, 0
9, 9302, Note_on_c, 7, 57, 0
9, 9302, Note_on_c, 7, 69, 0
9, 9360, Note_on_c, 7, 69, 114
9, 9360, Note_on_c, 7, 69, 114
9, 9360, Note_on_c, 7, 69, 114
9, 9360, Note_on_c, 7, 57, 114
9, 9362, Note_on_c, 7, 68, 0
9, 9362, Note_on_c, 7, 68, 0
9, 9362, Note_on_c, 7, 56, 0
9, 9362, Note_on_c, 7, 68, 0
9, 9380, Control_c, 7, 7, 59
9, 9480, Control_c, 7, 7, 56
9, 9490, Control_c, 7, 7, 54
9, 9569, Note_on_c, 7, 69, 0
9, 9569, Note_on_c, 7, 57, 0
9, 9569, Note_on_c, 7, 69, 0
9, 9569, Note_on_c, 7, 69, 0
9, 9580, Control_c, 7, 7, 56
9, 9600, Note_on_c, 7, 69, 79
9, 9600, Note_on_c, 7, 69, 79
9, 9600, Note_on_c, 7, 69, 98
9, 9600, Note_on_c, 7, 57, 98
9, 9610, Control_c, 7, 7, 55
9, 9660, Note_on_c, 7, 68, 103
9, 9660, Note_on_c, 7, 68, 103
9, 9660, Note_on_c, 7, 68, 103
9, 9660, Note_on_c, 7, 56, 103
9, 9667, Note_on_c, 7, 57, 0
9, 9667, Note_on_c, 7, 69, 0
9, 9667, Note_on_c, 7, 69, 0
9, 9667, Note_on_c, 7, 69, 0
9, 9674, Control_c, 7, 7, 53
9, 9689, Control_c, 7, 7, 54
9, 9704, Control_c, 7, 7, 55
9, 9719, Control_c, 7, 7, 56
9, 9720, Note_on_c, 7, 69, 110
9, 9720, Note_on_c, 7, 69, 110
9, 9720, Note_on_c, 7, 69, 110
9, 9720, Note_on_c, 7, 57, 110
9, 9722, Note_on_c, 7, 68, 0
9, 9722, Note_on_c, 7, 68, 0
9, 9722, Note_on_c, 7, 56, 0
9, 9722, Note_on_c, 7, 68, 0
9, 9734, Control_c, 7, 7, 57
9, 9749, Control_c, 7, 7, 58
9, 9764, Control_c, 7, 7, 59
9, 9779, Control_c, 7, 7, 60
9, 9780, Note_on_c, 7, 70, 115
9, 9780, Note_on_c, 7, 70, 115
9, 9780, Note_on_c, 7, 70, 115
9, 9780, Note_on_c, 7, 58, 115
9, 9782, Note_on_c, 7, 69, 0
9, 9782, Note_on_c, 7, 69, 0
9, 9782, Note_on_c, 7, 57, 0
9, 9782, Note_on_c, 7, 69, 0
9, 9794, Control_c, 7, 7, 61
9, 9809, Control_c, 7, 7, 62
9, 9824, Control_c, 7, 7, 63
9, 9839, Control_c, 7, 7, 64
9, 9840, Note_on_c, 7, 71, 121
9, 9840, Note_on_c, 7, 71, 121
9, 9840, Note_on_c, 7, 71, 121
9, 9840, Note_on_c, 7, 59, 121
9, 9842, Note_on_c, 7, 70, 0
9, 9842, Note_on_c, 7, 70, 0
9, 9842, Note_on_c, 7, 58, 0
9, 9842, Note_on_c, 7, 70, 0
9, 9854, Control_c, 7, 7, 65
9, 9869, Control_c, 7, 7, 66
9, 9884, Control_c, 7, 7, 67
9, 9899, Control_c, 7, 7, 68
9, 9900, Note_on_c, 7, 69, 124
9, 9900, Note_on_c, 7, 69, 124
9, 9900, Note_on_c, 7, 69, 124
9, 9900, Note_on_c, 7, 57, 124
9, 9904, Note_on_c, 7, 71, 0
9, 9904, Note_on_c, 7, 71, 0
9, 9904, Note_on_c, 7, 59, 0
9, 9904, Note_on_c, 7, 71, 0
9, 9910, Control_c, 7, 7, 70
9, 9930, Control_c, 7, 7, 72
9, 9940, Control_c, 7, 7, 73
9, 9960, Note_on_c, 7, 67, 124
9, 9960, Note_on_c, 7, 67, 124
9, 9960, Note_on_c, 7, 67, 124
9, 9960, Control_c, 7, 7, 74
9, 9960, Note_on_c, 7, 55, 124
9, 9962, Note_on_c, 7, 69, 0
9, 9962, Note_on_c, 7, 69, 0
9, 9962, Note_on_c, 7, 57, 0
9, 9962, Note_on_c, 7, 69, 0
9, 9970, Control_c, 7, 7, 76
9, 9980, Control_c, 7, 7, 78
9, 10010, Control_c, 7, 7, 80
9, 10020, Note_on_c, 7, 66, 124
9, 10020, Note_on_c, 7, 66, 124
9, 10020, Note_on_c, 7, 66, 124
9, 10020, Note_on_c, 7, 54, 124
9, 10022, Note_on_c, 7, 67, 0
9, 10022, Note_on_c, 7, 67, 0
9, 10022, Note_on_c, 7, 55, 0
9, 10022, Note_on_c, 7, 67, 0
9, 10030, Control_c, 7, 7, 81
9, 10050, Control_c, 7, 7, 82
9, 10070, Control_c, 7, 7, 83
9, 10080, Note_on_c, 7, 64, 121
9, 10080, Note_on_c, 7, 64, 121
9, 10080, Note_on_c, 7, 64, 121
9, 10080, Control_c, 7, 7, 84
9, 10080, Note_on_c, 7, 52, 121
9, 10082, Note_on_c, 7, 66, 0
9, 10082, Note_on_c, 7, 66, 0
9, 10082, Note_on_c, 7, 54, 0
9, 10082, Note_on_c, 7, 66, 0
9, 10100, Control_c, 7, 7, 85
9, 10140, Note_on_c, 7, 63, 116
9, 10140, Note_on_c, 7, 63, 116
9, 10140, Note_on_c, 7, 63, 116
9, 10140, Control_c, 7, 7, 86
9, 10140, Note_on_c, 7, 51, 116
9, 10147, Note_on_c, 7, 64, 0
9, 10147, Note_on_c, 7, 64, 0
9, 10147, Note_on_c, 7, 52, 0
9, 10147, Note_on_c, 7, 64, 0
9, 10170, Control_c, 7, 7, 87
9, 10200, Note_on_c, 7, 64, 115
9, 10200, Note_on_c, 7, 64, 115
9, 10200, Note_on_c, 7, 64, 115
9, 10200, Note_on_c, 7, 52, 115
9, 10202, Note_on_c, 7, 63, 0
9, 10202, Note_on_c, 7, 63, 0
9, 10202, Note_on_c, 7, 51, 0
9, 10202, Note_on_c, 7, 63, 0
9, 10210, Control_c, 7, 7, 89
9, 10230, Control_c, 7, 7, 90
9, 10260, Note_on_c, 7, 66, 115
9, 10260, Note_on_c, 7, 66, 115
9, 10260, Note_on_c, 7, 66, 115
9, 10260, Control_c, 7, 7, 91
9, 10260, Note_on_c, 7, 54, 115
9, 10262, Note_on_c, 7, 64, 0
9, 10262, Note_on_c, 7, 64, 0
9, 10262, Note_on_c, 7, 52, 0
9, 10262, Note_on_c, 7, 64, 0
9, 10280, Control_c, 7, 7, 92
9, 10300, Control_c, 7, 7, 94
9, 10320, Note_on_c, 7, 67, 115
9, 10320, Note_on_c, 7, 67, 115
9, 10320, Note_on_c, 7, 67, 115
9, 10320, Note_on_c, 7, 55, 115
9, 10322, Note_on_c, 7, 66, 0
9, 10322, Note_on_c, 7, 66, 0
9, 10322, Note_on_c, 7, 54, 0
9, 10322, Note_on_c, 7, 66, 0
9, 10380, Note_on_c, 7, 66, 119
9, 10380, Note_on_c, 7, 66, 119
9, 10380, Note_on_c, 7, 66, 119
9, 10380, Note_on_c, 7, 54, 119
9, 10384, Note_on_c, 7, 67, 0
9, 10384, Note_on_c, 7, 67, 0
9, 10384, Note_on_c, 7, 55, 0
9, 10384, Note_on_c, 7, 67, 0
9, 10390, Control_c, 7, 7, 97
9, 10440, Note_on_c, 7, 64, 122
9, 10440, Note_on_c, 7, 64, 122
9, 10440, Note_on_c, 7, 64, 122
9, 10440, Note_on_c, 7, 52, 122
9, 10442, Note_on_c, 7, 66, 0
9, 10442, Note_on_c, 7, 66, 0
9, 10442, Note_on_c, 7, 54, 0
9, 10442, Note_on_c, 7, 66, 0
9, 10500, Note_on_c, 7, 62, 124
9, 10500, Note_on_c, 7, 62, 124
9, 10500, Note_on_c, 7, 62, 124
9, 10500, Control_c, 7, 7, 93
9, 10500, Note_on_c, 7, 50, 124
9, 10502, Note_on_c, 7, 64, 0
9, 10502, Note_on_c, 7, 64, 0
9, 10502, Note_on_c, 7, 52, 0
9, 10502, Note_on_c, 7, 64, 0
9, 10520, Control_c, 7, 7, 92
9, 10560, Note_on_c, 7, 61, 127
9, 10560, Note_on_c, 7, 61, 127
9, 10560, Note_on_c, 7, 61, 127
9, 10560, Control_c, 7, 7, 89
9, 10560, Note_on_c, 7, 49, 127
9, 10562, Note_on_c, 7, 62, 0
9, 10562, Note_on_c, 7, 62, 0
9, 10562, Note_on_c, 7, 50, 0
9, 10562, Note_on_c, 7, 62, 0
9, 10570, Control_c, 7, 7, 88
9, 10600, Control_c, 7, 7, 86
9, 10610, Control_c, 7, 7, 85
9, 10620, Note_on_c, 7, 62, 127
9, 10620, Note_on_c, 7, 62, 127
9, 10620, Note_on_c, 7, 62, 127
9, 10620, Note_on_c, 7, 50, 127
9, 10627, Note_on_c, 7, 61, 0
9, 10627, Note_on_c, 7, 61, 0
9, 10627, Note_on_c, 7, 49, 0
9, 10627, Note_on_c, 7, 61, 0
9, 10650, Control_c, 7, 7, 84
9, 10670, Control_c, 7, 7, 83
9, 10680, Note_on_c, 7, 64, 127
9, 10680, Note_on_c, 7, 64, 127
9, 10680, Note_on_c, 7, 64, 127
9, 10680, Note_on_c, 7, 52, 127
9, 10682, Note_on_c, 7, 62, 0
9, 10682, Note_on_c, 7, 62, 0
9, 10682, Note_on_c, 7, 50, 0
9, 10682, Note_on_c, 7, 62, 0
9, 10690, Control_c, 7, 7, 82
9, 10730, Control_c, 7, 7, 80
9, 10740, Note_on_c, 7, 62, 127
9, 10740, Note_on_c, 7, 62, 127
9, 10740, Note_on_c, 7, 62, 127
9, 10740, Control_c, 7, 7, 79
9, 10740, Note_on_c, 7, 50, 127
9, 10742, Note_on_c, 7, 64, 0
9, 10742, Note_on_c, 7, 64, 0
9, 10742, Note_on_c, 7, 52, 0
9, 10742, Note_on_c, 7, 64, 0
9, 10769, Control_c, 7, 7, 78
9, 10794, Control_c, 7, 7, 77
9, 10800, Note_on_c, 7, 61, 127
9, 10800, Note_on_c, 7, 61, 127
9, 10800, Note_on_c, 7, 61, 127
9, 10800, Note_on_c, 7, 49, 127
9, 10802, Note_on_c, 7, 62, 0
9, 10802, Note_on_c, 7, 62, 0
9, 10802, Note_on_c, 7, 50, 0
9, 10802, Note_on_c, 7, 62, 0
9, 10819, Control_c, 7, 7, 76
9, 10844, Control_c, 7, 7, 75
9, 10860, Note_on_c, 7, 57, 127
9, 10860, Note_on_c, 7, 57, 127
9, 10860, Note_on_c, 7, 57, 127
9, 10860, Note_on_c, 7, 45, 127
9, 10864, Note_on_c, 7, 61, 0
9, 10864, Note_on_c, 7, 61, 0
9, 10864, Note_on_c, 7, 49, 0
9, 10864, Note_on_c, 7, 61, 0
9, 10869, Control_c, 7, 7, 74
9, 10894, Control_c, 7, 7, 73
9, 10919, Control_c, 7, 7, 72
9, 10920, Note_on_c, 7, 59, 126
9, 10920, Note_on_c, 7, 59, 126
9, 10920, Note_on_c, 7, 59, 126
9, 10920, Note_on_c, 7, 47, 126
9, 10922, Note_on_c, 7, 57, 0
9, 10922, Note_on_c, 7, 57, 0
9, 10922, Note_on_c, 7, 45, 0
9, 10922, Note_on_c, 7, 57, 0
9, 10944, Control_c, 7, 7, 71
9, 10969, Control_c, 7, 7, 70
9, 10980, Note_on_c, 7, 61, 120
9, 10980, Note_on_c, 7, 61, 120
9, 10980, Note_on_c, 7, 61, 120
9, 10980, Note_on_c, 7, 49, 120
9, 10982, Note_on_c, 7, 59, 0
9, 10982, Note_on_c, 7, 59, 0
9, 10982, Note_on_c, 7, 47, 0
9, 10982, Note_on_c, 7, 59, 0
9, 10994, Control_c, 7, 7, 69
9, 11019, Control_c, 7, 7, 68
9, 11040, Note_on_c, 7, 62, 98
9, 11040, Note_on_c, 7, 62, 98
9, 11040, Note_on_c, 7, 62, 98
9, 11040, Note_on_c, 7, 50, 98
9, 11040, Note_on_c, 7, 50, 98
9, 11040, Note_on_c, 7, 50, 98
9, 11042, Note_on_c, 7, 61, 0
9, 11042, Note_on_c, 7, 61, 0
9, 11042, Note_on_c, 7, 49, 0
9, 11042, Note_on_c, 7, 61, 0
9, 11098, Note_on_c, 7, 50, 0
9, 11098, Note_on_c, 7, 50, 0
9, 11098, Note_on_c, 7, 50, 0
9, 11100, Note_on_c, 7, 50, 98
9, 11147, Note_on_c, 7, 50, 0
9, 11160, Note_on_c, 7, 50, 98
9, 11207, Note_on_c, 7, 50, 0
9, 11220, Note_on_c, 7, 50, 98
9, 11267, Note_on_c, 7, 50, 0
9, 11280, Note_on_c, 7, 62, 0
9, 11280, Note_on_c, 7, 62, 0
9, 11280, Note_on_c, 7, 62, 0
9, 11280, Note_on_c, 7, 50, 98
9, 11336, Note_on_c, 7, 50, 0
9, 11340, Note_on_c, 7, 50, 98
9, 11387, Note_on_c, 7, 50, 0
9, 11400, Note_on_c, 7, 50, 98
9, 11447, Note_on_c, 7, 50, 0
9, 11460, Note_on_c, 7, 50, 98
9, 11507, Note_on_c, 7, 50, 0
9, 11520, Note_on_c, 7, 62, 98
9, 11520, Note_on_c, 7, 50, 98
9, 11530, Control_c, 7, 7, 66
9, 11578, Note_on_c, 7, 50, 0
9, 11580, Note_on_c, 7, 50, 99
9, 11627, Note_on_c, 7, 50, 0
9, 11640, Note_on_c, 7, 50, 101
9, 11640, Control_c, 7, 7, 67
9, 11670, Control_c, 7, 7, 68
9, 11687, Note_on_c, 7, 50, 0
9, 11700, Note_on_c, 7, 50, 102
9, 11700, Control_c, 7, 7, 69
9, 11710, Control_c, 7, 7, 70
9, 11730, Control_c, 7, 7, 71
9, 11747, Note_on_c, 7, 50, 0
9, 11750, Control_c, 7, 7, 72
9, 11760, Note_on_c, 7, 62, 0
9, 11760, Note_on_c, 7, 50, 104
9, 11770, Control_c, 7, 7, 73
9, 11790, Control_c, 7, 7, 75
9, 11816, Note_on_c, 7, 50, 0
9, 11820, Note_on_c, 7, 50, 107
9, 11820, Control_c, 7, 7, 76
9, 11860, Control_c, 7, 7, 77
9, 11867, Note_on_c, 7, 50, 0
9, 11880, Note_on_c, 7, 50, 108
9, 11880, Control_c, 7, 7, 78
9, 11900, Control_c, 7, 7, 79
9, 11910, Control_c, 7, 7, 80
9, 11927, Note_on_c, 7, 50, 0
9, 11940, Note_on_c, 7, 50, 108
9, 11980, Control_c, 7, 7, 81
9, 11987, Note_on_c, 7, 50, 0
9, 12000, Note_on_c, 7, 50, 114
9, 12020, Control_c, 7, 7, 83
9, 12058, Note_on_c, 7, 50, 0
9, 12060, Note_on_c, 7, 50, 115
9, 12060, Control_c, 7, 7, 84
9, 12100, Control_c, 7, 7, 85
9, 12107, Note_on_c, 7, 50, 0
9, 12120, Note_on_c, 7, 50, 121
9, 12150, Control_c, 7, 7, 86
9, 12167, Note_on_c, 7, 50, 0
9, 12180, Note_on_c, 7, 50, 122
9, 12190, Control_c, 7, 7, 87
9, 12227, Note_on_c, 7, 50, 0
9, 12240, Note_on_c, 7, 50, 122
9, 12240, Control_c, 7, 7, 88
9, 12280, Control_c, 7, 7, 89
9, 12296, Note_on_c, 7, 50, 0
9, 12300, Note_on_c, 7, 50, 124
9, 12310, Control_c, 7, 7, 90
9, 12320, Control_c, 7, 7, 91
9, 12347, Note_on_c, 7, 50, 0
9, 12360, Note_on_c, 7, 50, 127
9, 12360, Control_c, 7, 7, 92
9, 12390, Control_c, 7, 7, 93
9, 12407, Note_on_c, 7, 50, 0
9, 12410, Control_c, 7, 7, 94
9, 12420, Note_on_c, 7, 50, 127
9, 12430, Control_c, 7, 7, 95
9, 12460, Control_c, 7, 7, 96
9, 12467, Note_on_c, 7, 50, 0
9, 12480, Note_on_c, 7, 62, 127
9, 12480, Note_on_c, 7, 50, 127
9, 12500, Control_c, 7, 7, 97
9, 12510, Control_c, 7, 7, 98
9, 12538, Note_on_c, 7, 50, 0
9, 12540, Note_on_c, 7, 50, 127
9, 12540, Control_c, 7, 7, 99
9, 12550, Control_c, 7, 7, 100
9, 12587, Note_on_c, 7, 50, 0
9, 12590, Control_c, 7, 7, 101
9, 12600, Note_on_c, 7, 50, 127
9, 12600, Control_c, 7, 7, 102
9, 12620, Control_c, 7, 7, 103
9, 12630, Control_c, 7, 7, 104
9, 12647, Note_on_c, 7, 50, 0
9, 12660, Note_on_c, 7, 50, 127
9, 12690, Control_c, 7, 7, 105
9, 12707, Note_on_c, 7, 50, 0
9, 12720, Note_on_c, 7, 62, 0
9, 12720, Note_on_c, 7, 50, 127
9, 12750, Control_c, 7, 7, 106
9, 12776, Note_on_c, 7, 50, 0
9, 12780, Note_on_c, 7, 50, 127
9, 12790, Control_c, 7, 7, 107
9, 12827, Note_on_c, 7, 50, 0
9, 12840, Note_on_c, 7, 50, 127
9, 12840, Control_c, 7, 7, 108
9, 12860, Control_c, 7, 7, 109
9, 12870, Control_c, 7, 7, 110
9, 12887, Note_on_c, 7, 50, 0
9, 12890, Control_c, 7, 7, 111
9, 12900, Note_on_c, 7, 50, 127
9, 12910, Control_c, 7, 7, 112
9, 12920, Control_c, 7, 7, 113
9, 12947, Note_on_c, 7, 50, 0
9, 12950, Control_c, 7, 7, 116
9, 12960, Control_c, 7, 7, 126
9, 12960, Note_on_c, 7, 50, 127
9, 12970, Control_c, 7, 7, 127
9, 13018, Note_on_c, 7, 50, 0
9, 13020, Note_on_c, 7, 50, 98
9, 13067, Note_on_c, 7, 50, 0
9, 13080, Note_on_c, 7, 50, 98
9, 13127, Note_on_c, 7, 50, 0
9, 13140, Note_on_c, 7, 50, 98
9, 13187, Note_on_c, 7, 50, 0
9, 13200, Note_on_c, 7, 50, 98
9, 13256, Note_on_c, 7, 50, 0
9, 13260, Note_on_c, 7, 50, 98
9, 13307, Note_on_c, 7, 50, 0
9, 13320, Note_on_c, 7, 50, 98
9, 13367, Note_on_c, 7, 50, 0
9, 13380, Note_on_c, 7, 50, 98
9, 13427, Note_on_c, 7, 50, 0
9, 13440, Note_on_c, 7, 69, 125
9, 13440, Note_on_c, 7, 62, 125
9, 13440, Note_on_c, 7, 62, 125
9, 13440, Note_on_c, 7, 74, 125
9, 13440, Note_on_c, 7, 62, 125
9, 13440, Note_on_c, 7, 50, 125
9, 13470, Note_on_c, 7, 78, 125
9, 13470, Note_on_c, 7, 86, 125
9, 13498, Note_on_c, 7, 50, 0
9, 13498, Note_on_c, 7, 62, 0
9, 13500, Note_on_c, 7, 62, 125
9, 13500, Note_on_c, 7, 50, 125
9, 13530, Note_on_c, 7, 74, 0
9, 13530, Note_on_c, 7, 69, 0
9, 13530, Note_on_c, 7, 62, 0
9, 13530, Note_on_c, 7, 62, 0
9, 13547, Note_on_c, 7, 62, 0
9, 13547, Note_on_c, 7, 50, 0
9, 13560, Note_on_c, 7, 62, 98
9, 13560, Note_on_c, 7, 50, 98
9, 13607, Note_on_c, 7, 50, 0
9, 13607, Note_on_c, 7, 62, 0
9, 13620, Note_on_c, 7, 62, 98
9, 13620, Note_on_c, 7, 50, 98
9, 13667, Note_on_c, 7, 50, 0
9, 13667, Note_on_c, 7, 62, 0
9, 13680, Note_on_c, 7, 62, 98
9, 13680, Note_on_c, 7, 50, 98
9, 13736, Note_on_c, 7, 50, 0
9, 13736, Note_on_c, 7, 62, 0
9, 13740, Note_on_c, 7, 62, 98
9, 13740, Note_on_c, 7, 50, 98
9, 13787, Note_on_c, 7, 50, 0
9, 13787, Note_on_c, 7, 62, 0
9, 13800, Note_on_c, 7, 62, 98
9, 13800, Note_on_c, 7, 50, 98
9, 13847, Note_on_c, 7, 50, 0
9, 13847, Note_on_c, 7, 62, 0
9, 13860, Note_on_c, 7, 62, 98
9, 13860, Note_on_c, 7, 50, 98
9, 13890, Note_on_c, 7, 86, 0
9, 13890, Note_on_c, 7, 78, 0
9, 13907, Note_on_c, 7, 62, 0
9, 13907, Note_on_c, 7, 50, 0
9, 13920, Note_on_c, 7, 76, 127
9, 13920, Note_on_c, 7, 85, 127
9, 13920, Note_on_c, 7, 62, 127
9, 13920, Note_on_c, 7, 50, 127
9, 13978, Note_on_c, 7, 50, 0
9, 13978, Note_on_c, 7, 62, 0
9, 13980, Note_on_c, 7, 62, 98
9, 13980, Note_on_c, 7, 50, 98
9, 14027, Note_on_c, 7, 50, 0
9, 14027, Note_on_c, 7, 62, 0
9, 14040, Note_on_c, 7, 62, 98
9, 14040, Note_on_c, 7, 50, 98
9, 14087, Note_on_c, 7, 50, 0
9, 14087, Note_on_c, 7, 62, 0
9, 14100, Note_on_c, 7, 62, 98
9, 14100, Note_on_c, 7, 50, 98
9, 14147, Note_on_c, 7, 50, 0
9, 14147, Note_on_c, 7, 62, 0
9, 14160, Note_on_c, 7, 62, 98
9, 14160, Note_on_c, 7, 50, 98
9, 14216, Note_on_c, 7, 50, 0
9, 14216, Note_on_c, 7, 62, 0
9, 14220, Note_on_c, 7, 62, 98
9, 14220, Note_on_c, 7, 50, 98
9, 14267, Note_on_c, 7, 50, 0
9, 14267, Note_on_c, 7, 62, 0
9, 14280, Note_on_c, 7, 85, 0
9, 14280, Note_on_c, 7, 76, 0
9, 14280, Note_on_c, 7, 79, 98
9, 14280, Note_on_c, 7, 86, 98
9, 14280, Note_on_c, 7, 62, 98
9, 14280, Note_on_c, 7, 50, 98
9, 14327, Note_on_c, 7, 50, 0
9, 14327, Note_on_c, 7, 79, 0
9, 14327, Note_on_c, 7, 86, 0
9, 14327, Note_on_c, 7, 62, 0
9, 14340, Note_on_c, 7, 83, 98
9, 14340, Note_on_c, 7, 62, 98
9, 14340, Note_on_c, 7, 50, 98
9, 14387, Note_on_c, 7, 50, 0
9, 14387, Note_on_c, 7, 62, 0
9, 14387, Note_on_c, 7, 83, 0
9, 14400, Note_on_c, 7, 78, 127
9, 14400, Note_on_c, 7, 81, 127
9, 14400, Note_on_c, 7, 62, 127
9, 14400, Note_on_c, 7, 50, 127
9, 14458, Note_on_c, 7, 50, 0
9, 14458, Note_on_c, 7, 62, 0
9, 14460, Note_on_c, 7, 62, 98
9, 14460, Note_on_c, 7, 50, 98
9, 14502, Note_on_c, 7, 81, 0
9, 14502, Note_on_c, 7, 78, 0
9, 14507, Note_on_c, 7, 62, 0
9, 14507, Note_on_c, 7, 50, 0
9, 14520, Note_on_c, 7, 78, 98
9, 14520, Note_on_c, 7, 86, 98
9, 14520, Note_on_c, 7, 62, 98
9, 14520, Note_on_c, 7, 50, 98
9, 14567, Note_on_c, 7, 50, 0
9, 14567, Note_on_c, 7, 62, 0
9, 14580, Note_on_c, 7, 62, 98
9, 14580, Note_on_c, 7, 50, 98
9, 14596, Note_on_c, 7, 86, 0
9, 14610, Note_on_c, 7, 78, 0
9, 14627, Note_on_c, 7, 62, 0
9, 14627, Note_on_c, 7, 50, 0
9, 14640, Note_on_c, 7, 76, 127
9, 14640, Note_on_c, 7, 62, 127
9, 14640, Note_on_c, 7, 50, 127
9, 14640, Note_on_c, 7, 86, 127
9, 14660, Note_on_c, 7, 86, 0
9, 14660, Note_on_c, 7, 85, 127
9, 14680, Note_on_c, 7, 85, 0
9, 14680, Note_on_c, 7, 83, 127
9, 14696, Note_on_c, 7, 50, 0
9, 14696, Note_on_c, 7, 76, 0
9, 14696, Note_on_c, 7, 62, 0
9, 14700, Note_on_c, 7, 83, 0
9, 14700, Note_on_c, 7, 85, 127
9, 14700, Note_on_c, 7, 62, 127
9, 14700, Note_on_c, 7, 50, 127
9, 14747, Note_on_c, 7, 50, 0
9, 14747, Note_on_c, 7, 62, 0
9, 14760, Note_on_c, 7, 85, 0
9, 14760, Note_on_c, 7, 79, 127
9, 14760, Note_on_c, 7, 86, 127
9, 14760, Note_on_c, 7, 62, 127
9, 14760, Note_on_c, 7, 50, 127
9, 14807, Note_on_c, 7, 50, 0
9, 14807, Note_on_c, 7, 62, 0
9, 14807, Note_on_c, 7, 79, 0
9, 14820, Note_on_c, 7, 86, 0
9, 14820, Note_on_c, 7, 83, 120
9, 14820, Note_on_c, 7, 62, 120
9, 14820, Note_on_c, 7, 50, 120
9, 14867, Note_on_c, 7, 50, 0
9, 14867, Note_on_c, 7, 62, 0
9, 14880, Note_on_c, 7, 83, 0
9, 14880, Note_on_c, 7, 78, 111
9, 14880, Note_on_c, 7, 81, 111
9, 14880, Note_on_c, 7, 62, 111
9, 14880, Note_on_c, 7, 50, 111
9, 14938, Note_on_c, 7, 50, 0
9, 14938, Note_on_c, 7, 62, 0
9, 14940, Note_on_c, 7, 62, 98
9, 14940, Note_on_c, 7, 50, 98
9, 14982, Note_on_c, 7, 81, 0
9, 14982, Note_on_c, 7, 78, 0
9, 14987, Note_on_c, 7, 62, 0
9, 14987, Note_on_c, 7, 50, 0
9, 15000, Note_on_c, 7, 78, 98
9, 15000, Note_on_c, 7, 86, 98
9, 15000, Note_on_c, 7, 62, 98
9, 15000, Note_on_c, 7, 50, 98
9, 15047, Note_on_c, 7, 50, 0
9, 15047, Note_on_c, 7, 62, 0
9, 15060, Note_on_c, 7, 62, 98
9, 15060, Note_on_c, 7, 50, 98
9, 15076, Note_on_c, 7, 86, 0
9, 15090, Note_on_c, 7, 78, 0
9, 15107, Note_on_c, 7, 62, 0
9, 15107, Note_on_c, 7, 50, 0
9, 15120, Note_on_c, 7, 76, 127
9, 15120, Note_on_c, 7, 62, 127
9, 15120, Note_on_c, 7, 50, 127
9, 15120, Note_on_c, 7, 86, 127
9, 15140, Note_on_c, 7, 86, 0
9, 15140, Note_on_c, 7, 85, 127
9, 15160, Note_on_c, 7, 85, 0
9, 15160, Note_on_c, 7, 83, 127
9, 15176, Note_on_c, 7, 50, 0
9, 15176, Note_on_c, 7, 76, 0
9, 15176, Note_on_c, 7, 62, 0
9, 15180, Note_on_c, 7, 83, 0
9, 15180, Note_on_c, 7, 85, 127
9, 15180, Note_on_c, 7, 62, 127
9, 15180, Note_on_c, 7, 50, 127
9, 15227, Note_on_c, 7, 50, 0
9, 15227, Note_on_c, 7, 62, 0
9, 15240, Note_on_c, 7, 85, 0
9, 15240, Note_on_c, 7, 79, 117
9, 15240, Note_on_c, 7, 86, 117
9, 15240, Note_on_c, 7, 62, 117
9, 15240, Note_on_c, 7, 50, 117
9, 15287, Note_on_c, 7, 50, 0
9, 15287, Note_on_c, 7, 62, 0
9, 15287, Note_on_c, 7, 79, 0
9, 15300, Note_on_c, 7, 86, 0
9, 15300, Note_on_c, 7, 83, 106
9, 15300, Note_on_c, 7, 62, 106
9, 15300, Note_on_c, 7, 50, 106
9, 15347, Note_on_c, 7, 50, 0
9, 15347, Note_on_c, 7, 62, 0
9, 15360, Note_on_c, 7, 83, 0
9, 15360, Note_on_c, 7, 78, 98
9, 15360, Note_on_c, 7, 50, 98
9, 15360, Note_on_c, 7, 62, 98
9, 15360, Note_on_c, 7, 81, 98
9, 15468, Note_on_c, 7, 81, 0
9, 15468, Note_on_c, 7, 78, 0
9, 15480, Note_on_c, 7, 50, 0
9, 15500, Note_on_c, 7, 62, 0
9, 15540, Note_on_c, 7, 79, 127
9, 15594, Note_on_c, 7, 79, 0
9, 15600, Note_on_c, 7, 67, 127
9, 15600, Note_on_c, 7, 71, 127
9, 15600, Note_on_c, 7, 62, 127
9, 15600, Note_on_c, 7, 62, 127
9, 15600, Note_on_c, 7, 55, 127
9, 15610, Note_on_c, 7, 79, 127
9, 15610, Note_on_c, 7, 71, 127
9, 15720, Note_on_c, 7, 67, 0
9, 15736, Note_on_c, 7, 62, 0
9, 15736, Note_on_c, 7, 71, 0
9, 15736, Note_on_c, 7, 62, 0
9, 15746, Note_on_c, 7, 71, 0
9, 15746, Note_on_c, 7, 79, 0
9, 15750, Note_on_c, 7, 55, 0
9, 15840, Note_on_c, 7, 69, 127
9, 15840, Note_on_c, 7, 62, 127
9, 15840, Note_on_c, 7, 62, 127
9, 15840, Note_on_c, 7, 62, 127
9, 15840, Note_on_c, 7, 57, 127
9, 15845, Note_on_c, 7, 69, 127
9, 15850, Note_on_c, 7, 78, 127
9, 15850, Note_on_c, 7, 78, 127
9, 15850, Note_on_c, 7, 69, 127
9, 15850, Note_on_c, 7, 69, 127
9, 15850, Note_on_c, 7, 78, 127
9, 15940, Note_on_c, 7, 69, 0
9, 15950, Note_on_c, 7, 78, 0
9, 15952, Note_on_c, 7, 62, 0
9, 15952, Note_on_c, 7, 62, 0
9, 15952, Note_on_c, 7, 62, 0
9, 15957, Note_on_c, 7, 69, 0
9, 15960, Note_on_c, 7, 69, 0
9, 15962, Note_on_c, 7, 78, 0
9, 15962, Note_on_c, 7, 69, 0
9, 15962, Note_on_c, 7, 78, 0
9, 15970, Note_on_c, 7, 57, 0
9, 16080, Note_on_c, 7, 45, 127
9, 16080, Note_on_c, 7, 45, 127
9, 16080, Note_on_c, 7, 69, 127
9, 16080, Note_on_c, 7, 69, 127
9, 16080, Note_on_c, 7, 69, 127
9, 16089, Note_on_c, 7, 73, 127
9, 16090, Note_on_c, 7, 73, 127
9, 16090, Note_on_c, 7, 76, 127
9, 16090, Note_on_c, 7, 76, 127
9, 16090, Note_on_c, 7, 76, 127
9, 16090, Note_on_c, 7, 73, 127
9, 16180, Note_on_c, 7, 73, 0
9, 16200, Note_on_c, 7, 45, 0
9, 16210, Note_on_c, 7, 45, 0
9, 16216, Note_on_c, 7, 69, 0
9, 16216, Note_on_c, 7, 69, 0
9, 16216, Note_on_c, 7, 69, 0
9, 16225, Note_on_c, 7, 73, 0
9, 16226, Note_on_c, 7, 76, 0
9, 16226, Note_on_c, 7, 76, 0
9, 16226, Note_on_c, 7, 73, 0
9, 16226, Note_on_c, 7, 76, 0
9, 16320, Control_c, 7, 7, 127
9, 16320, Control_c, 7, 7, 127
9, 16320, Control_c, 7, 7, 127
9, 16320, Control_c, 7, 7, 127
9, 16320, Control_c, 7, 7, 127
9, 16320, Note_on_c, 7, 74, 127
9, 16320, Note_on_c, 7, 62, 127
9, 16320, Note_on_c, 7, 74, 127
9, 16320, Note_on_c, 7, 62, 127
9, 16320, Note_on_c, 7, 62, 127
9, 16320, Note_on_c, 7, 74, 127
9, 16320, Note_on_c, 7, 62, 127
9, 16320, Note_on_c, 7, 50, 127
9, 16323, Control_c, 7, 7, 126
9, 16323, Control_c, 7, 7, 126
9, 16323, Control_c, 7, 7, 126
9, 16323, Control_c, 7, 7, 126
9, 16323, Control_c, 7, 7, 126
9, 16327, Control_c, 7, 7, 125
9, 16327, Control_c, 7, 7, 125
9, 16327, Control_c, 7, 7, 125
9, 16327, Control_c, 7, 7, 125
9, 16327, Control_c, 7, 7, 125
9, 16331, Control_c, 7, 7, 124
9, 16331, Control_c, 7, 7, 124
9, 16331, Control_c, 7, 7, 124
9, 16331, Control_c, 7, 7, 124
9, 16331, Control_c, 7, 7, 124
9, 16335, Control_c, 7, 7, 123
9, 16335, Control_c, 7, 7, 123
9, 16335, Control_c, 7, 7, 123
9, 16335, Control_c, 7, 7, 123
9, 16335, Control_c, 7, 7, 123
9, 16339, Control_c, 7, 7, 122
9, 16339, Control_c, 7, 7, 122
9, 16339, Control_c, 7, 7, 122
9, 16339, Control_c, 7, 7, 122
9, 16339, Control_c, 7, 7, 122
9, 16342, Control_c, 7, 7, 121
9, 16342, Control_c, 7, 7, 121
9, 16342, Control_c, 7, 7, 121
9, 16342, Control_c, 7, 7, 121
9, 16342, Control_c, 7, 7, 121
9, 16346, Control_c, 7, 7, 120
9, 16346, Control_c, 7, 7, 120
9, 16346, Control_c, 7, 7, 120
9, 16346, Control_c, 7, 7, 120
9, 16346, Control_c, 7, 7, 120
9, 16350, Control_c, 7, 7, 119
9, 16350, Control_c, 7, 7, 119
9, 16350, Control_c, 7, 7, 119
9, 16350, Control_c, 7, 7, 119
9, 16350, Control_c, 7, 7, 119
9, 16354, Control_c, 7, 7, 118
9, 16354, Control_c, 7, 7, 118
9, 16354, Control_c, 7, 7, 118
9, 16354, Control_c, 7, 7, 118
9, 16354, Control_c, 7, 7, 118
9, 16358, Control_c, 7, 7, 117
9, 16358, Control_c, 7, 7, 117
9, 16358, Control_c, 7, 7, 117
9, 16358, Control_c, 7, 7, 117
9, 16358, Control_c, 7, 7, 117
9, 16361, Control_c, 7, 7, 116
9, 16361, Control_c, 7, 7, 116
9, 16361, Control_c, 7, 7, 116
9, 16361, Control_c, 7, 7, 116
9, 16361, Control_c, 7, 7, 116
9, 16365, Control_c, 7, 7, 115
9, 16365, Control_c, 7, 7, 115
9, 16365, Control_c, 7, 7, 115
9, 16365, Control_c, 7, 7, 115
9, 16365, Control_c, 7, 7, 115
9, 16369, Control_c, 7, 7, 114
9, 16369, Control_c, 7, 7, 114
9, 16369, Control_c, 7, 7, 114
9, 16369, Control_c, 7, 7, 114
9, 16369, Control_c, 7, 7, 114
9, 16373, Control_c, 7, 7, 113
9, 16373, Control_c, 7, 7, 113
9, 16373, Control_c, 7, 7, 113
9, 16373, Control_c, 7, 7, 113
9, 16373, Control_c, 7, 7, 113
9, 16377, Control_c, 7, 7, 112
9, 16377, Control_c, 7, 7, 112
9, 16377, Control_c, 7, 7, 112
9, 16377, Control_c, 7, 7, 112
9, 16377, Control_c, 7, 7, 112
9, 16378, Note_on_c, 7, 50, 0
9, 16378, Note_on_c, 7, 62, 0
9, 16380, Control_c, 7, 7, 111
9, 16380, Control_c, 7, 7, 111
9, 16380, Control_c, 7, 7, 111
9, 16380, Control_c, 7, 7, 111
9, 16380, Control_c, 7, 7, 111
9, 16380, Note_on_c, 7, 62, 98
9, 16380, Note_on_c, 7, 50, 98
9, 16384, Control_c, 7, 7, 110
9, 16384, Control_c, 7, 7, 110
9, 16384, Control_c, 7, 7, 110
9, 16384, Control_c, 7, 7, 110
9, 16384, Control_c, 7, 7, 110
9, 16388, Control_c, 7, 7, 109
9, 16388, Control_c, 7, 7, 109
9, 16388, Control_c, 7, 7, 109
9, 16388, Control_c, 7, 7, 109
9, 16388, Control_c, 7, 7, 109
9, 16392, Control_c, 7, 7, 108
9, 16392, Control_c, 7, 7, 108
9, 16392, Control_c, 7, 7, 108
9, 16392, Control_c, 7, 7, 108
9, 16392, Control_c, 7, 7, 108
9, 16396, Control_c, 7, 7, 107
9, 16396, Control_c, 7, 7, 107
9, 16396, Control_c, 7, 7, 107
9, 16396, Control_c, 7, 7, 107
9, 16396, Control_c, 7, 7, 107
9, 16400, Control_c, 7, 7, 106
9, 16400, Control_c, 7, 7, 106
9, 16400, Control_c, 7, 7, 106
9, 16400, Control_c, 7, 7, 106
9, 16400, Control_c, 7, 7, 106
9, 16403, Control_c, 7, 7, 105
9, 16403, Control_c, 7, 7, 105
9, 16403, Control_c, 7, 7, 105
9, 16403, Control_c, 7, 7, 105
9, 16403, Control_c, 7, 7, 105
9, 16407, Control_c, 7, 7, 104
9, 16407, Control_c, 7, 7, 104
9, 16407, Control_c, 7, 7, 104
9, 16407, Control_c, 7, 7, 104
9, 16407, Control_c, 7, 7, 104
9, 16411, Control_c, 7, 7, 103
9, 16411, Control_c, 7, 7, 103
9, 16411, Control_c, 7, 7, 103
9, 16411, Control_c, 7, 7, 103
9, 16411, Control_c, 7, 7, 103
9, 16415, Control_c, 7, 7, 102
9, 16415, Control_c, 7, 7, 102
9, 16415, Control_c, 7, 7, 102
9, 16415, Control_c, 7, 7, 102
9, 16415, Control_c, 7, 7, 102
9, 16419, Control_c, 7, 7, 101
9, 16419, Control_c, 7, 7, 101
9, 16419, Control_c, 7, 7, 101
9, 16419, Control_c, 7, 7, 101
9, 16419, Control_c, 7, 7, 101
9, 16422, Control_c, 7, 7, 100
9, 16422, Control_c, 7, 7, 100
9, 16422, Control_c, 7, 7, 100
9, 16422, Control_c, 7, 7, 100
9, 16422, Control_c, 7, 7, 100
9, 16426, Control_c, 7, 7, 99
9, 16426, Control_c, 7, 7, 99
9, 16426, Control_c, 7, 7, 99
9, 16426, Control_c, 7, 7, 99
9, 16426, Control_c, 7, 7, 99
9, 16427, Note_on_c, 7, 50, 0
9, 16427, Note_on_c, 7, 62, 0
9, 16430, Control_c, 7, 7, 98
9, 16430, Control_c, 7, 7, 98
9, 16430, Control_c, 7, 7, 98
9, 16430, Control_c, 7, 7, 98
9, 16430, Control_c, 7, 7, 98
9, 16434, Control_c, 7, 7, 97
9, 16434, Control_c, 7, 7, 97
9, 16434, Control_c, 7, 7, 97
9, 16434, Control_c, 7, 7, 97
9, 16434, Control_c, 7, 7, 97
9, 16438, Control_c, 7, 7, 96
9, 16438, Control_c, 7, 7, 96
9, 16438, Control_c, 7, 7, 96
9, 16438, Control_c, 7, 7, 96
9, 16438, Control_c, 7, 7, 96
9, 16440, Note_on_c, 7, 62, 98
9, 16440, Note_on_c, 7, 50, 98
9, 16441, Control_c, 7, 7, 95
9, 16441, Control_c, 7, 7, 95
9, 16441, Control_c, 7, 7, 95
9, 16441, Control_c, 7, 7, 95
9, 16441, Control_c, 7, 7, 95
9, 16445, Control_c, 7, 7, 94
9, 16445, Control_c, 7, 7, 94
9, 16445, Control_c, 7, 7, 94
9, 16445, Control_c, 7, 7, 94
9, 16445, Control_c, 7, 7, 94
9, 16449, Control_c, 7, 7, 93
9, 16449, Control_c, 7, 7, 93
9, 16449, Control_c, 7, 7, 93
9, 16449, Control_c, 7, 7, 93
9, 16449, Control_c, 7, 7, 93
9, 16453, Control_c, 7, 7, 92
9, 16453, Control_c, 7, 7, 92
9, 16453, Control_c, 7, 7, 92
9, 16453, Control_c, 7, 7, 92
9, 16453, Control_c, 7, 7, 92
9, 16457, Control_c, 7, 7, 91
9, 16457, Control_c, 7, 7, 91
9, 16457, Control_c, 7, 7, 91
9, 16457, Control_c, 7, 7, 91
9, 16457, Control_c, 7, 7, 91
9, 16460, Control_c, 7, 7, 90
9, 16460, Control_c, 7, 7, 90
9, 16460, Control_c, 7, 7, 90
9, 16460, Control_c, 7, 7, 90
9, 16460, Control_c, 7, 7, 90
9, 16464, Control_c, 7, 7, 89
9, 16464, Control_c, 7, 7, 89
9, 16464, Control_c, 7, 7, 89
9, 16464, Control_c, 7, 7, 89
9, 16464, Control_c, 7, 7, 89
9, 16468, Control_c, 7, 7, 88
9, 16468, Control_c, 7, 7, 88
9, 16468, Control_c, 7, 7, 88
9, 16468, Control_c, 7, 7, 88
9, 16468, Control_c, 7, 7, 88
9, 16472, Control_c, 7, 7, 87
9, 16472, Control_c, 7, 7, 87
9, 16472, Control_c, 7, 7, 87
9, 16472, Control_c, 7, 7, 87
9, 16472, Control_c, 7, 7, 87
9, 16476, Control_c, 7, 7, 86
9, 16476, Control_c, 7, 7, 86
9, 16476, Control_c, 7, 7, 86
9, 16476, Control_c, 7, 7, 86
9, 16476, Control_c, 7, 7, 86
9, 16480, Control_c, 7, 7, 85
9, 16480, Control_c, 7, 7, 85
9, 16480, Control_c, 7, 7, 85
9, 16480, Control_c, 7, 7, 85
9, 16480, Control_c, 7, 7, 85
9, 16483, Control_c, 7, 7, 84
9, 16483, Control_c, 7, 7, 84
9, 16483, Control_c, 7, 7, 84
9, 16483, Control_c, 7, 7, 84
9, 16483, Control_c, 7, 7, 84
9, 16487, Note_on_c, 7, 50, 0
9, 16487, Note_on_c, 7, 62, 0
9, 16487, Control_c, 7, 7, 83
9, 16487, Control_c, 7, 7, 83
9, 16487, Control_c, 7, 7, 83
9, 16487, Control_c, 7, 7, 83
9, 16487, Control_c, 7, 7, 83
9, 16491, Control_c, 7, 7, 82
9, 16491, Control_c, 7, 7, 82
9, 16491, Control_c, 7, 7, 82
9, 16491, Control_c, 7, 7, 82
9, 16491, Control_c, 7, 7, 82
9, 16495, Control_c, 7, 7, 81
9, 16495, Control_c, 7, 7, 81
9, 16495, Control_c, 7, 7, 81
9, 16495, Control_c, 7, 7, 81
9, 16495, Control_c, 7, 7, 81
9, 16499, Control_c, 7, 7, 80
9, 16499, Control_c, 7, 7, 80
9, 16499, Control_c, 7, 7, 80
9, 16499, Control_c, 7, 7, 80
9, 16499, Control_c, 7, 7, 80
9, 16500, Note_on_c, 7, 62, 98
9, 16500, Note_on_c, 7, 50, 98
9, 16502, Control_c, 7, 7, 79
9, 16502, Control_c, 7, 7, 79
9, 16502, Control_c, 7, 7, 79
9, 16502, Control_c, 7, 7, 79
9, 16502, Control_c, 7, 7, 79
9, 16506, Control_c, 7, 7, 78
9, 16506, Control_c, 7, 7, 78
9, 16506, Control_c, 7, 7, 78
9, 16506, Control_c, 7, 7, 78
9, 16506, Control_c, 7, 7, 78
9, 16510, Control_c, 7, 7, 77
9, 16510, Control_c, 7, 7, 77
9, 16510, Control_c, 7, 7, 77
9, 16510, Control_c, 7, 7, 77
9, 16510, Control_c, 7, 7, 77
9, 16514, Control_c, 7, 7, 76
9, 16514, Control_c, 7, 7, 76
9, 16514, Control_c, 7, 7, 76
9, 16514, Control_c, 7, 7, 76
9, 16514, Control_c, 7, 7, 76
9, 16518, Control_c, 7, 7, 75
9, 16518, Control_c, 7, 7, 75
9, 16518, Control_c, 7, 7, 75
9, 16518, Control_c, 7, 7, 75
9, 16518, Control_c, 7, 7, 75
9, 16521, Control_c, 7, 7, 74
9, 16521, Control_c, 7, 7, 74
9, 16521, Control_c, 7, 7, 74
9, 16521, Control_c, 7, 7, 74
9, 16521, Control_c, 7, 7, 74
9, 16525, Control_c, 7, 7, 73
9, 16525, Control_c, 7, 7, 73
9, 16525, Control_c, 7, 7, 73
9, 16525, Control_c, 7, 7, 73
9, 16525, Control_c, 7, 7, 73
9, 16529, Control_c, 7, 7, 72
9, 16529, Control_c, 7, 7, 72
9, 16529, Control_c, 7, 7, 72
9, 16529, Control_c, 7, 7, 72
9, 16529, Control_c, 7, 7, 72
9, 16533, Control_c, 7, 7, 71
9, 16533, Control_c, 7, 7, 71
9, 16533, Control_c, 7, 7, 71
9, 16533, Control_c, 7, 7, 71
9, 16533, Control_c, 7, 7, 71
9, 16537, Control_c, 7, 7, 70
9, 16537, Control_c, 7, 7, 70
9, 16537, Control_c, 7, 7, 70
9, 16537, Control_c, 7, 7, 70
9, 16537, Control_c, 7, 7, 70
9, 16540, Control_c, 7, 7, 69
9, 16540, Control_c, 7, 7, 69
9, 16540, Control_c, 7, 7, 69
9, 16540, Control_c, 7, 7, 69
9, 16540, Control_c, 7, 7, 69
9, 16544, Control_c, 7, 7, 68
9, 16544, Control_c, 7, 7, 68
9, 16544, Control_c, 7, 7, 68
9, 16544, Control_c, 7, 7, 68
9, 16544, Control_c, 7, 7, 68
9, 16547, Note_on_c, 7, 50, 0
9, 16547, Note_on_c, 7, 62, 0
9, 16548, Control_c, 7, 7, 67
9, 16548, Control_c, 7, 7, 67
9, 16548, Control_c, 7, 7, 67
9, 16548, Control_c, 7, 7, 67
9, 16548, Control_c, 7, 7, 67
9, 16552, Control_c, 7, 7, 66
9, 16552, Control_c, 7, 7, 66
9, 16552, Control_c, 7, 7, 66
9, 16552, Control_c, 7, 7, 66
9, 16552, Control_c, 7, 7, 66
9, 16556, Control_c, 7, 7, 65
9, 16556, Control_c, 7, 7, 65
9, 16556, Control_c, 7, 7, 65
9, 16556, Control_c, 7, 7, 65
9, 16556, Control_c, 7, 7, 65
9, 16560, Control_c, 7, 7, 64
9, 16560, Control_c, 7, 7, 64
9, 16560, Control_c, 7, 7, 64
9, 16560, Control_c, 7, 7, 64
9, 16560, Control_c, 7, 7, 64
9, 16560, Note_on_c, 7, 62, 98
9, 16560, Note_on_c, 7, 50, 98
9, 16616, Note_on_c, 7, 50, 0
9, 16616, Note_on_c, 7, 62, 0
9, 16620, Note_on_c, 7, 62, 98
9, 16620, Note_on_c, 7, 50, 98
9, 16667, Note_on_c, 7, 50, 0
9, 16667, Note_on_c, 7, 62, 0
9, 16680, Note_on_c, 7, 74, 0
9, 16680, Note_on_c, 7, 62, 0
9, 16680, Note_on_c, 7, 74, 0
9, 16680, Note_on_c, 7, 74, 0
9, 16680, Note_on_c, 7, 62, 0
9, 16680, Note_on_c, 7, 62, 0
9, 16680, Note_on_c, 7, 69, 127
9, 16680, Note_on_c, 7, 78, 127
9, 16680, Note_on_c, 7, 62, 127
9, 16680, Note_on_c, 7, 50, 127
9, 16720, Control_c, 7, 7, 62
9, 16727, Note_on_c, 7, 50, 0
9, 16727, Note_on_c, 7, 69, 0
9, 16727, Note_on_c, 7, 78, 0
9, 16727, Note_on_c, 7, 62, 0
9, 16740, Note_on_c, 7, 67, 127
9, 16740, Note_on_c, 7, 76, 127
9, 16740, Note_on_c, 7, 62, 127
9, 16740, Note_on_c, 7, 50, 127
9, 16787, Note_on_c, 7, 50, 0
9, 16787, Note_on_c, 7, 67, 0
9, 16787, Note_on_c, 7, 76, 0
9, 16787, Note_on_c, 7, 62, 0
9, 16800, Note_on_c, 7, 66, 127
9, 16800, Note_on_c, 7, 74, 127
9, 16800, Note_on_c, 7, 62, 127
9, 16800, Note_on_c, 7, 50, 127
9, 16820, Control_c, 7, 7, 63
9, 16830, Control_c, 7, 7, 64
9, 16840, Control_c, 7, 7, 65
9, 16858, Note_on_c, 7, 50, 0
9, 16858, Note_on_c, 7, 66, 0
9, 16858, Note_on_c, 7, 74, 0
9, 16858, Note_on_c, 7, 62, 0
9, 16860, Note_on_c, 7, 69, 127
9, 16860, Note_on_c, 7, 73, 127
9, 16860, Note_on_c, 7, 62, 127
9, 16860, Note_on_c, 7, 50, 127
9, 16870, Control_c, 7, 7, 66
9, 16880, Control_c, 7, 7, 67
9, 16900, Control_c, 7, 7, 68
9, 16907, Note_on_c, 7, 50, 0
9, 16907, Note_on_c, 7, 69, 0
9, 16907, Note_on_c, 7, 73, 0
9, 16907, Note_on_c, 7, 62, 0
9, 16910, Control_c, 7, 7, 69
9, 16920, Note_on_c, 7, 67, 124
9, 16920, Note_on_c, 7, 71, 124
9, 16920, Note_on_c, 7, 62, 124
9, 16920, Note_on_c, 7, 50, 124
9, 16930, Control_c, 7, 7, 70
9, 16940, Control_c, 7, 7, 71
9, 16950, Control_c, 7, 7, 73
9, 16967, Note_on_c, 7, 50, 0
9, 16967, Note_on_c, 7, 67, 0
9, 16967, Note_on_c, 7, 71, 0
9, 16967, Note_on_c, 7, 62, 0
9, 16970, Control_c, 7, 7, 74
9, 16980, Note_on_c, 7, 66, 119
9, 16980, Note_on_c, 7, 69, 119
9, 16980, Control_c, 7, 7, 76
9, 16980, Note_on_c, 7, 62, 119
9, 16980, Note_on_c, 7, 50, 119
9, 16990, Control_c, 7, 7, 78
9, 17000, Control_c, 7, 7, 80
9, 17020, Control_c, 7, 7, 81
9, 17027, Note_on_c, 7, 50, 0
9, 17027, Note_on_c, 7, 66, 0
9, 17027, Note_on_c, 7, 69, 0
9, 17027, Note_on_c, 7, 62, 0
9, 17030, Control_c, 7, 7, 83
9, 17040, Note_on_c, 7, 64, 116
9, 17040, Note_on_c, 7, 67, 116
9, 17040, Control_c, 7, 7, 85
9, 17040, Note_on_c, 7, 62, 116
9, 17040, Note_on_c, 7, 50, 116
9, 17060, Control_c, 7, 7, 86
9, 17070, Control_c, 7, 7, 88
9, 17080, Control_c, 7, 7, 89
9, 17096, Note_on_c, 7, 50, 0
9, 17096, Note_on_c, 7, 64, 0
9, 17096, Note_on_c, 7, 67, 0
9, 17096, Note_on_c, 7, 62, 0
9, 17100, Note_on_c, 7, 62, 111
9, 17100, Note_on_c, 7, 66, 111
9, 17100, Control_c, 7, 7, 91
9, 17100, Note_on_c, 7, 62, 111
9, 17100, Note_on_c, 7, 50, 111
9, 17110, Control_c, 7, 7, 93
9, 17120, Control_c, 7, 7, 94
9, 17130, Control_c, 7, 7, 95
9, 17140, Control_c, 7, 7, 97
9, 17147, Note_on_c, 7, 50, 0
9, 17147, Note_on_c, 7, 62, 0
9, 17147, Note_on_c, 7, 66, 0
9, 17147, Note_on_c, 7, 62, 0
9, 17150, Control_c, 7, 7, 101
9, 17160, Note_on_c, 7, 61, 108
9, 17160, Note_on_c, 7, 64, 108
9, 17160, Control_c, 7, 7, 102
9, 17160, Note_on_c, 7, 62, 108
9, 17160, Note_on_c, 7, 50, 108
9, 17180, Control_c, 7, 7, 105
9, 17190, Control_c, 7, 7, 106
9, 17200, Control_c, 7, 7, 108
9, 17207, Note_on_c, 7, 50, 0
9, 17207, Note_on_c, 7, 61, 0
9, 17207, Note_on_c, 7, 64, 0
9, 17207, Note_on_c, 7, 62, 0
9, 17210, Control_c, 7, 7, 109
9, 17220, Note_on_c, 7, 62, 104
9, 17220, Note_on_c, 7, 62, 104
9, 17220, Control_c, 7, 7, 111
9, 17220, Note_on_c, 7, 62, 104
9, 17220, Note_on_c, 7, 50, 104
9, 17230, Control_c, 7, 7, 114
9, 17240, Control_c, 7, 7, 116
9, 17250, Control_c, 7, 7, 117
9, 17267, Note_on_c, 7, 50, 0
9, 17267, Note_on_c, 7, 62, 0
9, 17267, Note_on_c, 7, 62, 0
9, 17267, Note_on_c, 7, 62, 0
9, 17280, Note_on_c, 7, 73, 127
9, 17280, Note_on_c, 7, 73, 127
9, 17280, Note_on_c, 7, 64, 127
9, 17280, Note_on_c, 7, 76, 127
9, 17280, Control_c, 7, 7, 120
9, 17280, Note_on_c, 7, 62, 127
9, 17280, Note_on_c, 7, 50, 127
9, 17290, Control_c, 7, 7, 119
9, 17300, Control_c, 7, 7, 116
9, 17310, Control_c, 7, 7, 111
9, 17320, Control_c, 7, 7, 106
9, 17338, Note_on_c, 7, 50, 0
9, 17338, Note_on_c, 7, 62, 0
9, 17340, Control_c, 7, 7, 103
9, 17340, Note_on_c, 7, 62, 100
9, 17340, Note_on_c, 7, 50, 100
9, 17350, Control_c, 7, 7, 100
9, 17370, Control_c, 7, 7, 97
9, 17380, Control_c, 7, 7, 96
9, 17387, Note_on_c, 7, 50, 0
9, 17387, Note_on_c, 7, 62, 0
9, 17390, Control_c, 7, 7, 94
9, 17400, Control_c, 7, 7, 91
9, 17400, Note_on_c, 7, 62, 100
9, 17400, Note_on_c, 7, 50, 100
9, 17420, Control_c, 7, 7, 87
9, 17430, Control_c, 7, 7, 84
9, 17440, Control_c, 7, 7, 82
9, 17447, Note_on_c, 7, 50, 0
9, 17447, Note_on_c, 7, 62, 0
9, 17460, Control_c, 7, 7, 79
9, 17460, Note_on_c, 7, 62, 100
9, 17460, Note_on_c, 7, 50, 100
9, 17470, Control_c, 7, 7, 76
9, 17480, Control_c, 7, 7, 73
9, 17490, Control_c, 7, 7, 72
9, 17507, Note_on_c, 7, 50, 0
9, 17507, Note_on_c, 7, 62, 0
9, 17510, Control_c, 7, 7, 68
9, 17520, Control_c, 7, 7, 65
9, 17520, Note_on_c, 7, 62, 100
9, 17520, Note_on_c, 7, 50, 100
9, 17540, Control_c, 7, 7, 62
9, 17550, Control_c, 7, 7, 60
9, 17576, Note_on_c, 7, 50, 0
9, 17576, Note_on_c, 7, 62, 0
9, 17580, Note_on_c, 7, 62, 127
9, 17580, Note_on_c, 7, 50, 127
9, 17600, Control_c, 7, 7, 59
9, 17627, Note_on_c, 7, 50, 0
9, 17627, Note_on_c, 7, 62, 0
9, 17640, Note_on_c, 7, 76, 0
9, 17640, Note_on_c, 7, 73, 0
9, 17640, Note_on_c, 7, 73, 0
9, 17640, Note_on_c, 7, 64, 0
9, 17640, Note_on_c, 7, 76, 127
9, 17640, Note_on_c, 7, 79, 127
9, 17640, Note_on_c, 7, 62, 127
9, 17640, Note_on_c, 7, 50, 127
9, 17660, Control_c, 7, 7, 60
9, 17687, Note_on_c, 7, 50, 0
9, 17687, Note_on_c, 7, 76, 0
9, 17687, Note_on_c, 7, 79, 0
9, 17687, Note_on_c, 7, 62, 0
9, 17690, Control_c, 7, 7, 61
9, 17700, Note_on_c, 7, 74, 127
9, 17700, Note_on_c, 7, 78, 127
9, 17700, Note_on_c, 7, 62, 127
9, 17700, Note_on_c, 7, 50, 127
9, 17710, Control_c, 7, 7, 62
9, 17740, Control_c, 7, 7, 63
9, 17747, Note_on_c, 7, 50, 0
9, 17747, Note_on_c, 7, 74, 0
9, 17747, Note_on_c, 7, 78, 0
9, 17747, Note_on_c, 7, 62, 0
9, 17750, Control_c, 7, 7, 64
9, 17760, Note_on_c, 7, 73, 127
9, 17760, Note_on_c, 7, 76, 127
9, 17760, Control_c, 7, 7, 65
9, 17760, Note_on_c, 7, 62, 127
9, 17760, Note_on_c, 7, 50, 127
9, 17810, Control_c, 7, 7, 66
9, 17818, Note_on_c, 7, 50, 0
9, 17818, Note_on_c, 7, 73, 0
9, 17818, Note_on_c, 7, 76, 0
9, 17818, Note_on_c, 7, 62, 0
9, 17820, Note_on_c, 7, 71, 126
9, 17820, Note_on_c, 7, 74, 126
9, 17820, Control_c, 7, 7, 67
9, 17820, Note_on_c, 7, 62, 126
9, 17820, Note_on_c, 7, 50, 126
9, 17830, Control_c, 7, 7, 68
9, 17850, Control_c, 7, 7, 69
9, 17867, Note_on_c, 7, 50, 0
9, 17867, Note_on_c, 7, 71, 0
9, 17867, Note_on_c, 7, 74, 0
9, 17867, Note_on_c, 7, 62, 0
9, 17880, Note_on_c, 7, 69, 124
9, 17880, Note_on_c, 7, 73, 124
9, 17880, Control_c, 7, 7, 72
9, 17880, Note_on_c, 7, 62, 124
9, 17880, Note_on_c, 7, 50, 124
9, 17900, Control_c, 7, 7, 74
9, 17920, Control_c, 7, 7, 76
9, 17927, Note_on_c, 7, 50, 0
9, 17927, Note_on_c, 7, 69, 0
9, 17927, Note_on_c, 7, 73, 0
9, 17927, Note_on_c, 7, 62, 0
9, 17940, Note_on_c, 7, 67, 119
9, 17940, Note_on_c, 7, 71, 119
9, 17940, Control_c, 7, 7, 78
9, 17940, Note_on_c, 7, 62, 119
9, 17940, Note_on_c, 7, 50, 119
9, 17950, Control_c, 7, 7, 79
9, 17960, Control_c, 7, 7, 80
9, 17970, Control_c, 7, 7, 81
9, 17980, Control_c, 7, 7, 83
9, 17987, Note_on_c, 7, 50, 0
9, 17987, Note_on_c, 7, 67, 0
9, 17987, Note_on_c, 7, 71, 0
9, 17987, Note_on_c, 7, 62, 0
9, 18000, Note_on_c, 7, 66, 115
9, 18000, Note_on_c, 7, 69, 115
9, 18000, Control_c, 7, 7, 84
9, 18000, Note_on_c, 7, 62, 115
9, 18000, Note_on_c, 7, 50, 115
9, 18020, Control_c, 7, 7, 86
9, 18050, Control_c, 7, 7, 88
9, 18056, Note_on_c, 7, 50, 0
9, 18056, Note_on_c, 7, 66, 0
9, 18056, Note_on_c, 7, 69, 0
9, 18056, Note_on_c, 7, 62, 0
9, 18060, Note_on_c, 7, 64, 112
9, 18060, Note_on_c, 7, 67, 112
9, 18060, Control_c, 7, 7, 89
9, 18060, Note_on_c, 7, 62, 112
9, 18060, Note_on_c, 7, 50, 112
9, 18080, Control_c, 7, 7, 91
9, 18100, Control_c, 7, 7, 93
9, 18107, Note_on_c, 7, 50, 0
9, 18107, Note_on_c, 7, 64, 0
9, 18107, Note_on_c, 7, 67, 0
9, 18107, Note_on_c, 7, 62, 0
9, 18110, Control_c, 7, 7, 96
9, 18120, Note_on_c, 7, 62, 108
9, 18120, Note_on_c, 7, 66, 108
9, 18120, Note_on_c, 7, 62, 108
9, 18120, Note_on_c, 7, 50, 108
9, 18130, Control_c, 7, 7, 98
9, 18140, Control_c, 7, 7, 101
9, 18150, Control_c, 7, 7, 102
9, 18160, Control_c, 7, 7, 103
9, 18167, Note_on_c, 7, 50, 0
9, 18167, Note_on_c, 7, 62, 0
9, 18167, Note_on_c, 7, 66, 0
9, 18167, Note_on_c, 7, 62, 0
9, 18170, Control_c, 7, 7, 105
9, 18180, Note_on_c, 7, 61, 106
9, 18180, Note_on_c, 7, 64, 106
9, 18180, Control_c, 7, 7, 111
9, 18180, Note_on_c, 7, 62, 106
9, 18180, Note_on_c, 7, 50, 106
9, 18200, Control_c, 7, 7, 112
9, 18210, Control_c, 7, 7, 113
9, 18220, Control_c, 7, 7, 116
9, 18227, Note_on_c, 7, 50, 0
9, 18227, Note_on_c, 7, 61, 0
9, 18227, Note_on_c, 7, 64, 0
9, 18227, Note_on_c, 7, 62, 0
9, 18230, Control_c, 7, 7, 117
9, 18240, Note_on_c, 7, 74, 127
9, 18240, Note_on_c, 7, 62, 127
9, 18240, Note_on_c, 7, 62, 127
9, 18240, Control_c, 7, 7, 118
9, 18240, Note_on_c, 7, 62, 127
9, 18240, Note_on_c, 7, 50, 127
9, 18250, Control_c, 7, 7, 118
9, 18251, Note_on_c, 7, 78, 127
9, 18251, Note_on_c, 7, 69, 127
9, 18280, Control_c, 7, 7, 116
9, 18290, Control_c, 7, 7, 114
9, 18298, Note_on_c, 7, 50, 0
9, 18298, Note_on_c, 7, 62, 0
9, 18300, Control_c, 7, 7, 111
9, 18300, Note_on_c, 7, 62, 98
9, 18300, Note_on_c, 7, 50, 98
9, 18330, Control_c, 7, 7, 106
9, 18340, Control_c, 7, 7, 103
9, 18347, Note_on_c, 7, 50, 0
9, 18347, Note_on_c, 7, 62, 0
9, 18360, Note_on_c, 7, 62, 0
9, 18360, Note_on_c, 7, 62, 98
9, 18360, Note_on_c, 7, 50, 98
9, 18370, Control_c, 7, 7, 92
9, 18380, Control_c, 7, 7, 91
9, 18390, Control_c, 7, 7, 90
9, 18400, Control_c, 7, 7, 85
9, 18407, Note_on_c, 7, 50, 0
9, 18407, Note_on_c, 7, 62, 0
9, 18420, Control_c, 7, 7, 84
9, 18420, Note_on_c, 7, 62, 98
9, 18420, Note_on_c, 7, 50, 98
9, 18430, Control_c, 7, 7, 82
9, 18431, Note_on_c, 7, 78, 0
9, 18431, Note_on_c, 7, 69, 0
9, 18450, Control_c, 7, 7, 79
9, 18467, Note_on_c, 7, 62, 0
9, 18467, Note_on_c, 7, 50, 0
9, 18470, Control_c, 7, 7, 76
9, 18480, Note_on_c, 7, 74, 0
9, 18480, Note_on_c, 7, 62, 0
9, 18480, Control_c, 7, 7, 75
9, 18480, Note_on_c, 7, 62, 98
9, 18480, Note_on_c, 7, 50, 98
9, 18490, Control_c, 7, 7, 74
9, 18510, Control_c, 7, 7, 74
9, 18536, Note_on_c, 7, 50, 0
9, 18536, Note_on_c, 7, 62, 0
9, 18540, Note_on_c, 7, 62, 98
9, 18540, Note_on_c, 7, 50, 98
9, 18587, Note_on_c, 7, 50, 0
9, 18587, Note_on_c, 7, 62, 0
9, 18600, Note_on_c, 7, 78, 127
9, 18600, Note_on_c, 7, 81, 127
9, 18600, Note_on_c, 7, 62, 127
9, 18600, Note_on_c, 7, 50, 127
9, 18620, Control_c, 7, 7, 84
9, 18647, Note_on_c, 7, 50, 0
9, 18647, Note_on_c, 7, 78, 0
9, 18647, Note_on_c, 7, 81, 0
9, 18647, Note_on_c, 7, 62, 0
9, 18660, Note_on_c, 7, 76, 127
9, 18660, Note_on_c, 7, 79, 127
9, 18660, Control_c, 7, 7, 85
9, 18660, Note_on_c, 7, 62, 127
9, 18660, Note_on_c, 7, 50, 127
9, 18690, Control_c, 7, 7, 86
9, 18707, Note_on_c, 7, 50, 0
9, 18707, Note_on_c, 7, 76, 0
9, 18707, Note_on_c, 7, 79, 0
9, 18707, Note_on_c, 7, 62, 0
9, 18710, Control_c, 7, 7, 88
9, 18720, Note_on_c, 7, 74, 127
9, 18720, Note_on_c, 7, 78, 127
9, 18720, Note_on_c, 7, 62, 127
9, 18720, Note_on_c, 7, 50, 127
9, 18750, Control_c, 7, 7, 89
9, 18778, Note_on_c, 7, 50, 0
9, 18778, Note_on_c, 7, 74, 0
9, 18778, Note_on_c, 7, 78, 0
9, 18778, Note_on_c, 7, 62, 0
9, 18780, Note_on_c, 7, 73, 126
9, 18780, Note_on_c, 7, 76, 126
9, 18780, Control_c, 7, 7, 91
9, 18780, Note_on_c, 7, 62, 126
9, 18780, Note_on_c, 7, 50, 126
9, 18800, Control_c, 7, 7, 94
9, 18827, Note_on_c, 7, 50, 0
9, 18827, Note_on_c, 7, 73, 0
9, 18827, Note_on_c, 7, 76, 0
9, 18827, Note_on_c, 7, 62, 0
9, 18830, Control_c, 7, 7, 96
9, 18840, Note_on_c, 7, 71, 122
9, 18840, Note_on_c, 7, 74, 122
9, 18840, Note_on_c, 7, 62, 122
9, 18840, Note_on_c, 7, 50, 122
9, 18860, Control_c, 7, 7, 99
9, 18880, Control_c, 7, 7, 101
9, 18887, Note_on_c, 7, 50, 0
9, 18887, Note_on_c, 7, 71, 0
9, 18887, Note_on_c, 7, 74, 0
9, 18887, Note_on_c, 7, 62, 0
9, 18900, Note_on_c, 7, 69, 117
9, 18900, Note_on_c, 7, 73, 117
9, 18900, Note_on_c, 7, 62, 117
9, 18900, Note_on_c, 7, 50, 117
9, 18910, Control_c, 7, 7, 102
9, 18920, Control_c, 7, 7, 103
9, 18940, Control_c, 7, 7, 105
9, 18947, Note_on_c, 7, 50, 0
9, 18947, Note_on_c, 7, 69, 0
9, 18947, Note_on_c, 7, 73, 0
9, 18947, Note_on_c, 7, 62, 0
9, 18960, Note_on_c, 7, 67, 113
9, 18960, Note_on_c, 7, 71, 113
9, 18960, Control_c, 7, 7, 106
9, 18960, Control_c, 7, 7, 64
9, 18960, Control_c, 7, 7, 64
9, 18960, Control_c, 7, 7, 64
9, 18960, Note_on_c, 7, 62, 113
9, 18960, Control_c, 7, 7, 64
9, 18960, Control_c, 7, 7, 64
9, 18960, Control_c, 7, 7, 64
9, 18960, Note_on_c, 7, 50, 113
9, 18963, Control_c, 7, 7, 65
9, 18963, Control_c, 7, 7, 65
9, 18963, Control_c, 7, 7, 65
9, 18963, Control_c, 7, 7, 65
9, 18963, Control_c, 7, 7, 65
9, 18963, Control_c, 7, 7, 65
9, 18967, Control_c, 7, 7, 66
9, 18967, Control_c, 7, 7, 66
9, 18967, Control_c, 7, 7, 66
9, 18967, Control_c, 7, 7, 66
9, 18967, Control_c, 7, 7, 66
9, 18967, Control_c, 7, 7, 66
9, 18971, Control_c, 7, 7, 67
9, 18971, Control_c, 7, 7, 67
9, 18971, Control_c, 7, 7, 67
9, 18971, Control_c, 7, 7, 67
9, 18971, Control_c, 7, 7, 67
9, 18971, Control_c, 7, 7, 67
9, 18975, Control_c, 7, 7, 68
9, 18975, Control_c, 7, 7, 68
9, 18975, Control_c, 7, 7, 68
9, 18975, Control_c, 7, 7, 68
9, 18975, Control_c, 7, 7, 68
9, 18975, Control_c, 7, 7, 68
9, 18979, Control_c, 7, 7, 69
9, 18979, Control_c, 7, 7, 69
9, 18979, Control_c, 7, 7, 69
9, 18979, Control_c, 7, 7, 69
9, 18979, Control_c, 7, 7, 69
9, 18979, Control_c, 7, 7, 69
9, 18982, Control_c, 7, 7, 70
9, 18982, Control_c, 7, 7, 70
9, 18982, Control_c, 7, 7, 70
9, 18982, Control_c, 7, 7, 70
9, 18982, Control_c, 7, 7, 70
9, 18982, Control_c, 7, 7, 70
9, 18986, Control_c, 7, 7, 71
9, 18986, Control_c, 7, 7, 71
9, 18986, Control_c, 7, 7, 71
9, 18986, Control_c, 7, 7, 71
9, 18986, Control_c, 7, 7, 71
9, 18986, Control_c, 7, 7, 71
9, 18990, Control_c, 7, 7, 108
9, 18990, Control_c, 7, 7, 72
9, 18990, Control_c, 7, 7, 72
9, 18990, Control_c, 7, 7, 72
9, 18990, Control_c, 7, 7, 72
9, 18990, Control_c, 7, 7, 72
9, 18990, Control_c, 7, 7, 72
9, 18994, Control_c, 7, 7, 73
9, 18994, Control_c, 7, 7, 73
9, 18994, Control_c, 7, 7, 73
9, 18994, Control_c, 7, 7, 73
9, 18994, Control_c, 7, 7, 73
9, 18994, Control_c, 7, 7, 73
9, 18998, Control_c, 7, 7, 74
9, 18998, Control_c, 7, 7, 74
9, 18998, Control_c, 7, 7, 74
9, 18998, Control_c, 7, 7, 74
9, 18998, Control_c, 7, 7, 74
9, 18998, Control_c, 7, 7, 74
9, 19000, Control_c, 7, 7, 109
9, 19001, Control_c, 7, 7, 75
9, 19001, Control_c, 7, 7, 75
9, 19001, Control_c, 7, 7, 75
9, 19001, Control_c, 7, 7, 75
9, 19001, Control_c, 7, 7, 75
9, 19001, Control_c, 7, 7, 75
9, 19005, Control_c, 7, 7, 76
9, 19005, Control_c, 7, 7, 76
9, 19005, Control_c, 7, 7, 76
9, 19005, Control_c, 7, 7, 76
9, 19005, Control_c, 7, 7, 76
9, 19005, Control_c, 7, 7, 76
9, 19009, Control_c, 7, 7, 77
9, 19009, Control_c, 7, 7, 77
9, 19009, Control_c, 7, 7, 77
9, 19009, Control_c, 7, 7, 77
9, 19009, Control_c, 7, 7, 77
9, 19009, Control_c, 7, 7, 77
9, 19013, Control_c, 7, 7, 78
9, 19013, Control_c, 7, 7, 78
9, 19013, Control_c, 7, 7, 78
9, 19013, Control_c, 7, 7, 78
9, 19013, Control_c, 7, 7, 78
9, 19013, Control_c, 7, 7, 78
9, 19016, Note_on_c, 7, 50, 0
9, 19016, Note_on_c, 7, 67, 0
9, 19016, Note_on_c, 7, 71, 0
9, 19016, Note_on_c, 7, 62, 0
9, 19017, Control_c, 7, 7, 79
9, 19017, Control_c, 7, 7, 79
9, 19017, Control_c, 7, 7, 79
9, 19017, Control_c, 7, 7, 79
9, 19017, Control_c, 7, 7, 79
9, 19017, Control_c, 7, 7, 79
9, 19020, Note_on_c, 7, 66, 107
9, 19020, Note_on_c, 7, 69, 107
9, 19020, Control_c, 7, 7, 80
9, 19020, Control_c, 7, 7, 80
9, 19020, Control_c, 7, 7, 80
9, 19020, Note_on_c, 7, 62, 107
9, 19020, Control_c, 7, 7, 80
9, 19020, Control_c, 7, 7, 80
9, 19020, Control_c, 7, 7, 80
9, 19020, Note_on_c, 7, 50, 107
9, 19024, Control_c, 7, 7, 81
9, 19024, Control_c, 7, 7, 81
9, 19024, Control_c, 7, 7, 81
9, 19024, Control_c, 7, 7, 81
9, 19024, Control_c, 7, 7, 81
9, 19024, Control_c, 7, 7, 81
9, 19028, Control_c, 7, 7, 82
9, 19028, Control_c, 7, 7, 82
9, 19028, Control_c, 7, 7, 82
9, 19028, Control_c, 7, 7, 82
9, 19028, Control_c, 7, 7, 82
9, 19028, Control_c, 7, 7, 82
9, 19030, Control_c, 7, 7, 110
9, 19032, Control_c, 7, 7, 83
9, 19032, Control_c, 7, 7, 83
9, 19032, Control_c, 7, 7, 83
9, 19032, Control_c, 7, 7, 83
9, 19032, Control_c, 7, 7, 83
9, 19032, Control_c, 7, 7, 83
9, 19036, Control_c, 7, 7, 84
9, 19036, Control_c, 7, 7, 84
9, 19036, Control_c, 7, 7, 84
9, 19036, Control_c, 7, 7, 84
9, 19036, Control_c, 7, 7, 84
9, 19036, Control_c, 7, 7, 84
9, 19040, Control_c, 7, 7, 85
9, 19040, Control_c, 7, 7, 85
9, 19040, Control_c, 7, 7, 85
9, 19040, Control_c, 7, 7, 85
9, 19040, Control_c, 7, 7, 85
9, 19040, Control_c, 7, 7, 85
9, 19043, Control_c, 7, 7, 86
9, 19043, Control_c, 7, 7, 86
9, 19043, Control_c, 7, 7, 86
9, 19043, Control_c, 7, 7, 86
9, 19043, Control_c, 7, 7, 86
9, 19043, Control_c, 7, 7, 86
9, 19047, Control_c, 7, 7, 87
9, 19047, Control_c, 7, 7, 87
9, 19047, Control_c, 7, 7, 87
9, 19047, Control_c, 7, 7, 87
9, 19047, Control_c, 7, 7, 87
9, 19047, Control_c, 7, 7, 87
9, 19051, Control_c, 7, 7, 88
9, 19051, Control_c, 7, 7, 88
9, 19051, Control_c, 7, 7, 88
9, 19051, Control_c, 7, 7, 88
9, 19051, Control_c, 7, 7, 88
9, 19051, Control_c, 7, 7, 88
9, 19055, Control_c, 7, 7, 89
9, 19055, Control_c, 7, 7, 89
9, 19055, Control_c, 7, 7, 89
9, 19055, Control_c, 7, 7, 89
9, 19055, Control_c, 7, 7, 89
9, 19055, Control_c, 7, 7, 89
9, 19059, Control_c, 7, 7, 90
9, 19059, Control_c, 7, 7, 90
9, 19059, Control_c, 7, 7, 90
9, 19059, Control_c, 7, 7, 90
9, 19059, Control_c, 7, 7, 90
9, 19059, Control_c, 7, 7, 90
9, 19062, Control_c, 7, 7, 91
9, 19062, Control_c, 7, 7, 91
9, 19062, Control_c, 7, 7, 91
9, 19062, Control_c, 7, 7, 91
9, 19062, Control_c, 7, 7, 91
9, 19062, Control_c, 7, 7, 91
9, 19066, Control_c, 7, 7, 92
9, 19066, Control_c, 7, 7, 92
9, 19066, Control_c, 7, 7, 92
9, 19066, Control_c, 7, 7, 92
9, 19066, Control_c, 7, 7, 92
9, 19066, Control_c, 7, 7, 92
9, 19067, Note_on_c, 7, 50, 0
9, 19067, Note_on_c, 7, 66, 0
9, 19067, Note_on_c, 7, 69, 0
9, 19067, Note_on_c, 7, 62, 0
9, 19070, Control_c, 7, 7, 111
9, 19070, Control_c, 7, 7, 93
9, 19070, Control_c, 7, 7, 93
9, 19070, Control_c, 7, 7, 93
9, 19070, Control_c, 7, 7, 93
9, 19070, Control_c, 7, 7, 93
9, 19070, Control_c, 7, 7, 93
9, 19074, Control_c, 7, 7, 94
9, 19074, Control_c, 7, 7, 94
9, 19074, Control_c, 7, 7, 94
9, 19074, Control_c, 7, 7, 94
9, 19074, Control_c, 7, 7, 94
9, 19074, Control_c, 7, 7, 94
9, 19078, Control_c, 7, 7, 95
9, 19078, Control_c, 7, 7, 95
9, 19078, Control_c, 7, 7, 95
9, 19078, Control_c, 7, 7, 95
9, 19078, Control_c, 7, 7, 95
9, 19078, Control_c, 7, 7, 95
9, 19080, Note_on_c, 7, 64, 104
9, 19080, Note_on_c, 7, 67, 104
9, 19080, Note_on_c, 7, 62, 104
9, 19080, Note_on_c, 7, 50, 104
9, 19081, Control_c, 7, 7, 96
9, 19081, Control_c, 7, 7, 96
9, 19081, Control_c, 7, 7, 96
9, 19081, Control_c, 7, 7, 96
9, 19081, Control_c, 7, 7, 96
9, 19081, Control_c, 7, 7, 96
9, 19085, Control_c, 7, 7, 97
9, 19085, Control_c, 7, 7, 97
9, 19085, Control_c, 7, 7, 97
9, 19085, Control_c, 7, 7, 97
9, 19085, Control_c, 7, 7, 97
9, 19085, Control_c, 7, 7, 97
9, 19089, Control_c, 7, 7, 98
9, 19089, Control_c, 7, 7, 98
9, 19089, Control_c, 7, 7, 98
9, 19089, Control_c, 7, 7, 98
9, 19089, Control_c, 7, 7, 98
9, 19089, Control_c, 7, 7, 98
9, 19093, Control_c, 7, 7, 99
9, 19093, Control_c, 7, 7, 99
9, 19093, Control_c, 7, 7, 99
9, 19093, Control_c, 7, 7, 99
9, 19093, Control_c, 7, 7, 99
9, 19093, Control_c, 7, 7, 99
9, 19097, Control_c, 7, 7, 100
9, 19097, Control_c, 7, 7, 100
9, 19097, Control_c, 7, 7, 100
9, 19097, Control_c, 7, 7, 100
9, 19097, Control_c, 7, 7, 100
9, 19097, Control_c, 7, 7, 100
9, 19100, Control_c, 7, 7, 101
9, 19100, Control_c, 7, 7, 101
9, 19100, Control_c, 7, 7, 101
9, 19100, Control_c, 7, 7, 101
9, 19100, Control_c, 7, 7, 101
9, 19100, Control_c, 7, 7, 101
9, 19104, Control_c, 7, 7, 102
9, 19104, Control_c, 7, 7, 102
9, 19104, Control_c, 7, 7, 102
9, 19104, Control_c, 7, 7, 102
9, 19104, Control_c, 7, 7, 102
9, 19104, Control_c, 7, 7, 102
9, 19108, Control_c, 7, 7, 103
9, 19108, Control_c, 7, 7, 103
9, 19108, Control_c, 7, 7, 103
9, 19108, Control_c, 7, 7, 103
9, 19108, Control_c, 7, 7, 103
9, 19108, Control_c, 7, 7, 103
9, 19110, Control_c, 7, 7, 112
9, 19112, Control_c, 7, 7, 104
9, 19112, Control_c, 7, 7, 104
9, 19112, Control_c, 7, 7, 104
9, 19112, Control_c, 7, 7, 104
9, 19112, Control_c, 7, 7, 104
9, 19112, Control_c, 7, 7, 104
9, 19116, Control_c, 7, 7, 105
9, 19116, Control_c, 7, 7, 105
9, 19116, Control_c, 7, 7, 105
9, 19116, Control_c, 7, 7, 105
9, 19116, Control_c, 7, 7, 105
9, 19116, Control_c, 7, 7, 105
9, 19120, Control_c, 7, 7, 106
9, 19120, Control_c, 7, 7, 106
9, 19120, Control_c, 7, 7, 106
9, 19120, Control_c, 7, 7, 106
9, 19120, Control_c, 7, 7, 106
9, 19120, Control_c, 7, 7, 106
9, 19123, Control_c, 7, 7, 107
9, 19123, Control_c, 7, 7, 107
9, 19123, Control_c, 7, 7, 107
9, 19123, Control_c, 7, 7, 107
9, 19123, Control_c, 7, 7, 107
9, 19123, Control_c, 7, 7, 107
9, 19127, Note_on_c, 7, 50, 0
9, 19127, Note_on_c, 7, 64, 0
9, 19127, Note_on_c, 7, 67, 0
9, 19127, Note_on_c, 7, 62, 0
9, 19127, Control_c, 7, 7, 108
9, 19127, Control_c, 7, 7, 108
9, 19127, Control_c, 7, 7, 108
9, 19127, Control_c, 7, 7, 108
9, 19127, Control_c, 7, 7, 108
9, 19127, Control_c, 7, 7, 108
9, 19131, Control_c, 7, 7, 109
9, 19131, Control_c, 7, 7, 109
9, 19131, Control_c, 7, 7, 109
9, 19131, Control_c, 7, 7, 109
9, 19131, Control_c, 7, 7, 109
9, 19131, Control_c, 7, 7, 109
9, 19135, Control_c, 7, 7, 110
9, 19135, Control_c, 7, 7, 110
9, 19135, Control_c, 7, 7, 110
9, 19135, Control_c, 7, 7, 110
9, 19135, Control_c, 7, 7, 110
9, 19135, Control_c, 7, 7, 110
9, 19139, Control_c, 7, 7, 111
9, 19139, Control_c, 7, 7, 111
9, 19139, Control_c, 7, 7, 111
9, 19139, Control_c, 7, 7, 111
9, 19139, Control_c, 7, 7, 111
9, 19139, Control_c, 7, 7, 111
9, 19140, Note_on_c, 7, 62, 101
9, 19140, Note_on_c, 7, 66, 101
9, 19140, Control_c, 7, 7, 113
9, 19140, Note_on_c, 7, 62, 101
9, 19140, Note_on_c, 7, 50, 101
9, 19142, Control_c, 7, 7, 112
9, 19142, Control_c, 7, 7, 112
9, 19142, Control_c, 7, 7, 112
9, 19142, Control_c, 7, 7, 112
9, 19142, Control_c, 7, 7, 112
9, 19142, Control_c, 7, 7, 112
9, 19146, Control_c, 7, 7, 113
9, 19146, Control_c, 7, 7, 113
9, 19146, Control_c, 7, 7, 113
9, 19146, Control_c, 7, 7, 113
9, 19146, Control_c, 7, 7, 113
9, 19146, Control_c, 7, 7, 113
9, 19150, Control_c, 7, 7, 114
9, 19150, Control_c, 7, 7, 114
9, 19150, Control_c, 7, 7, 114
9, 19150, Control_c, 7, 7, 114
9, 19150, Control_c, 7, 7, 114
9, 19150, Control_c, 7, 7, 114
9, 19150, Control_c, 7, 7, 114
9, 19154, Control_c, 7, 7, 115
9, 19154, Control_c, 7, 7, 115
9, 19154, Control_c, 7, 7, 115
9, 19154, Control_c, 7, 7, 115
9, 19154, Control_c, 7, 7, 115
9, 19154, Control_c, 7, 7, 115
9, 19158, Control_c, 7, 7, 116
9, 19158, Control_c, 7, 7, 116
9, 19158, Control_c, 7, 7, 116
9, 19158, Control_c, 7, 7, 116
9, 19158, Control_c, 7, 7, 116
9, 19158, Control_c, 7, 7, 116
9, 19161, Control_c, 7, 7, 117
9, 19161, Control_c, 7, 7, 117
9, 19161, Control_c, 7, 7, 117
9, 19161, Control_c, 7, 7, 117
9, 19161, Control_c, 7, 7, 117
9, 19161, Control_c, 7, 7, 117
9, 19165, Control_c, 7, 7, 118
9, 19165, Control_c, 7, 7, 118
9, 19165, Control_c, 7, 7, 118
9, 19165, Control_c, 7, 7, 118
9, 19165, Control_c, 7, 7, 118
9, 19165, Control_c, 7, 7, 118
9, 19169, Control_c, 7, 7, 119
9, 19169, Control_c, 7, 7, 119
9, 19169, Control_c, 7, 7, 119
9, 19169, Control_c, 7, 7, 119
9, 19169, Control_c, 7, 7, 119
9, 19169, Control_c, 7, 7, 119
9, 19173, Control_c, 7, 7, 120
9, 19173, Control_c, 7, 7, 120
9, 19173, Control_c, 7, 7, 120
9, 19173, Control_c, 7, 7, 120
9, 19173, Control_c, 7, 7, 120
9, 19173, Control_c, 7, 7, 120
9, 19177, Control_c, 7, 7, 121
9, 19177, Control_c, 7, 7, 121
9, 19177, Control_c, 7, 7, 121
9, 19177, Control_c, 7, 7, 121
9, 19177, Control_c, 7, 7, 121
9, 19177, Control_c, 7, 7, 121
9, 19180, Control_c, 7, 7, 122
9, 19180, Control_c, 7, 7, 122
9, 19180, Control_c, 7, 7, 122
9, 19180, Control_c, 7, 7, 122
9, 19180, Control_c, 7, 7, 122
9, 19180, Control_c, 7, 7, 122
9, 19184, Control_c, 7, 7, 123
9, 19184, Control_c, 7, 7, 123
9, 19184, Control_c, 7, 7, 123
9, 19184, Control_c, 7, 7, 123
9, 19184, Control_c, 7, 7, 123
9, 19184, Control_c, 7, 7, 123
9, 19187, Note_on_c, 7, 50, 0
9, 19187, Note_on_c, 7, 62, 0
9, 19187, Note_on_c, 7, 66, 0
9, 19187, Note_on_c, 7, 62, 0
9, 19188, Control_c, 7, 7, 124
9, 19188, Control_c, 7, 7, 124
9, 19188, Control_c, 7, 7, 124
9, 19188, Control_c, 7, 7, 124
9, 19188, Control_c, 7, 7, 124
9, 19188, Control_c, 7, 7, 124
9, 19190, Control_c, 7, 7, 115
9, 19192, Control_c, 7, 7, 125
9, 19192, Control_c, 7, 7, 125
9, 19192, Control_c, 7, 7, 125
9, 19192, Control_c, 7, 7, 125
9, 19192, Control_c, 7, 7, 125
9, 19192, Control_c, 7, 7, 125
9, 19196, Control_c, 7, 7, 126
9, 19196, Control_c, 7, 7, 126
9, 19196, Control_c, 7, 7, 126
9, 19196, Control_c, 7, 7, 126
9, 19196, Control_c, 7, 7, 126
9, 19196, Control_c, 7, 7, 126
9, 19200, Note_on_c, 7, 71, 98
9, 19200, Note_on_c, 7, 67, 98
9, 19200, Control_c, 7, 7, 127
9, 19200, Control_c, 7, 7, 127
9, 19200, Control_c, 7, 7, 127
9, 19200, Note_on_c, 7, 62, 98
9, 19200, Control_c, 7, 7, 127
9, 19200, Control_c, 7, 7, 127
9, 19200, Control_c, 7, 7, 127
9, 19200, Note_on_c, 7, 50, 98
9, 19230, Control_c, 7, 7, 116
9, 19258, Note_on_c, 7, 67, 0
9, 19258, Note_on_c, 7, 71, 0
9, 19260, Note_on_c, 7, 72, 103
9, 19260, Note_on_c, 7, 69, 103
9, 19270, Control_c, 7, 7, 118
9, 19307, Note_on_c, 7, 69, 0
9, 19307, Note_on_c, 7, 72, 0
9, 19310, Control_c, 7, 7, 119
9, 19320, Note_on_c, 7, 71, 106
9, 19320, Note_on_c, 7, 74, 106
9, 19340, Control_c, 7, 7, 120
9, 19350, Control_c, 7, 7, 121
9, 19367, Note_on_c, 7, 74, 0
9, 19367, Note_on_c, 7, 71, 0
9, 19380, Note_on_c, 7, 72, 111
9, 19380, Note_on_c, 7, 76, 111
9, 19380, Control_c, 7, 7, 122
9, 19400, Control_c, 7, 7, 123
9, 19427, Note_on_c, 7, 76, 0
9, 19427, Note_on_c, 7, 72, 0
9, 19430, Control_c, 7, 7, 124
9, 19440, Note_on_c, 7, 74, 116
9, 19440, Note_on_c, 7, 78, 116
9, 19470, Control_c, 7, 7, 125
9, 19490, Control_c, 7, 7, 126
9, 19496, Note_on_c, 7, 78, 0
9, 19496, Note_on_c, 7, 74, 0
9, 19500, Note_on_c, 7, 76, 123
9, 19500, Note_on_c, 7, 79, 123
9, 19547, Note_on_c, 7, 79, 0
9, 19547, Note_on_c, 7, 76, 0
9, 19560, Note_on_c, 7, 78, 123
9, 19560, Note_on_c, 7, 81, 123
9, 19590, Control_c, 7, 7, 127
9, 19607, Note_on_c, 7, 81, 0
9, 19607, Note_on_c, 7, 78, 0
9, 19620, Note_on_c, 7, 79, 124
9, 19620, Note_on_c, 7, 83, 124
9, 19667, Note_on_c, 7, 83, 0
9, 19667, Note_on_c, 7, 79, 0
9, 19680, Note_on_c, 7, 62, 0
9, 19680, Note_on_c, 7, 50, 0
9, 19680, Note_on_c, 7, 78, 125
9, 19680, Note_on_c, 7, 84, 125
9, 19680, Note_on_c, 7, 62, 125
9, 19680, Note_on_c, 7, 50, 125
9, 19738, Note_on_c, 7, 50, 0
9, 19738, Note_on_c, 7, 62, 0
9, 19740, Note_on_c, 7, 69, 126
9, 19740, Note_on_c, 7, 64, 126
9, 19740, Note_on_c, 7, 52, 126
9, 19787, Note_on_c, 7, 52, 0
9, 19787, Note_on_c, 7, 64, 0
9, 19800, Note_on_c, 7, 66, 127
9, 19800, Note_on_c, 7, 54, 127
9, 19847, Note_on_c, 7, 54, 0
9, 19847, Note_on_c, 7, 66, 0
9, 19860, Note_on_c, 7, 67, 127
9, 19860, Note_on_c, 7, 55, 127
9, 19907, Note_on_c, 7, 55, 0
9, 19907, Note_on_c, 7, 67, 0
9, 19920, Note_on_c, 7, 69, 127
9, 19920, Note_on_c, 7, 57, 127
9, 19976, Note_on_c, 7, 57, 0
9, 19976, Note_on_c, 7, 69, 0
9, 19980, Note_on_c, 7, 71, 127
9, 19980, Note_on_c, 7, 59, 127
9, 20027, Note_on_c, 7, 59, 0
9, 20027, Note_on_c, 7, 71, 0
9, 20040, Note_on_c, 7, 72, 127
9, 20040, Note_on_c, 7, 60, 127
9, 20087, Note_on_c, 7, 60, 0
9, 20087, Note_on_c, 7, 72, 0
9, 20100, Note_on_c, 7, 74, 127
9, 20100, Note_on_c, 7, 62, 127
9, 20147, Note_on_c, 7, 62, 0
9, 20147, Note_on_c, 7, 74, 0
9, 20160, Note_on_c, 7, 78, 0
9, 20160, Note_on_c, 7, 84, 0
9, 20160, Note_on_c, 7, 69, 0
9, 20160, Note_on_c, 7, 83, 127
9, 20160, Note_on_c, 7, 79, 127
9, 20160, Note_on_c, 7, 62, 127
9, 20160, Note_on_c, 7, 50, 127
9, 20218, Note_on_c, 7, 50, 0
9, 20218, Note_on_c, 7, 83, 0
9, 20218, Note_on_c, 7, 79, 0
9, 20218, Note_on_c, 7, 62, 0
9, 20220, Note_on_c, 7, 83, 127
9, 20220, Note_on_c, 7, 79, 127
9, 20220, Note_on_c, 7, 62, 127
9, 20220, Note_on_c, 7, 50, 127
9, 20267, Note_on_c, 7, 50, 0
9, 20267, Note_on_c, 7, 62, 0
9, 20268, Note_on_c, 7, 79, 0
9, 20268, Note_on_c, 7, 83, 0
9, 20280, Note_on_c, 7, 83, 127
9, 20280, Note_on_c, 7, 79, 127
9, 20280, Note_on_c, 7, 62, 127
9, 20280, Note_on_c, 7, 50, 127
9, 20327, Note_on_c, 7, 50, 0
9, 20327, Note_on_c, 7, 62, 0
9, 20328, Note_on_c, 7, 79, 0
9, 20328, Note_on_c, 7, 83, 0
9, 20340, Note_on_c, 7, 83, 127
9, 20340, Note_on_c, 7, 79, 127
9, 20340, Note_on_c, 7, 62, 127
9, 20340, Note_on_c, 7, 50, 127
9, 20387, Note_on_c, 7, 50, 0
9, 20387, Note_on_c, 7, 62, 0
9, 20388, Note_on_c, 7, 79, 0
9, 20388, Note_on_c, 7, 83, 0
9, 20400, Note_on_c, 7, 81, 127
9, 20400, Note_on_c, 7, 78, 127
9, 20400, Note_on_c, 7, 62, 127
9, 20400, Note_on_c, 7, 50, 127
9, 20452, Note_on_c, 7, 78, 0
9, 20452, Note_on_c, 7, 81, 0
9, 20456, Note_on_c, 7, 62, 0
9, 20456, Note_on_c, 7, 50, 0
9, 20460, Note_on_c, 7, 81, 127
9, 20460, Note_on_c, 7, 78, 127
9, 20460, Note_on_c, 7, 62, 127
9, 20460, Note_on_c, 7, 50, 127
9, 20507, Note_on_c, 7, 50, 0
9, 20507, Note_on_c, 7, 62, 0
9, 20508, Note_on_c, 7, 78, 0
9, 20508, Note_on_c, 7, 81, 0
9, 20520, Note_on_c, 7, 81, 127
9, 20520, Note_on_c, 7, 78, 127
9, 20520, Note_on_c, 7, 62, 127
9, 20520, Note_on_c, 7, 50, 127
9, 20567, Note_on_c, 7, 50, 0
9, 20567, Note_on_c, 7, 62, 0
9, 20568, Note_on_c, 7, 78, 0
9, 20568, Note_on_c, 7, 81, 0
9, 20580, Note_on_c, 7, 81, 127
9, 20580, Note_on_c, 7, 78, 127
9, 20580, Note_on_c, 7, 62, 127
9, 20580, Note_on_c, 7, 50, 127
9, 20627, Note_on_c, 7, 50, 0
9, 20627, Note_on_c, 7, 62, 0
9, 20628, Note_on_c, 7, 78, 0
9, 20628, Note_on_c, 7, 81, 0
9, 20640, Note_on_c, 7, 83, 127
9, 20640, Note_on_c, 7, 79, 127
9, 20640, Note_on_c, 7, 62, 127
9, 20640, Note_on_c, 7, 50, 127
9, 20698, Note_on_c, 7, 50, 0
9, 20698, Note_on_c, 7, 83, 0
9, 20698, Note_on_c, 7, 79, 0
9, 20698, Note_on_c, 7, 62, 0
9, 20700, Note_on_c, 7, 83, 127
9, 20700, Note_on_c, 7, 79, 127
9, 20700, Note_on_c, 7, 62, 127
9, 20700, Note_on_c, 7, 50, 127
9, 20747, Note_on_c, 7, 50, 0
9, 20747, Note_on_c, 7, 62, 0
9, 20748, Note_on_c, 7, 79, 0
9, 20748, Note_on_c, 7, 83, 0
9, 20760, Note_on_c, 7, 83, 127
9, 20760, Note_on_c, 7, 79, 127
9, 20760, Note_on_c, 7, 62, 127
9, 20760, Note_on_c, 7, 50, 127
9, 20807, Note_on_c, 7, 50, 0
9, 20807, Note_on_c, 7, 62, 0
9, 20808, Note_on_c, 7, 79, 0
9, 20808, Note_on_c, 7, 83, 0
9, 20820, Note_on_c, 7, 83, 127
9, 20820, Note_on_c, 7, 79, 127
9, 20820, Note_on_c, 7, 62, 127
9, 20820, Note_on_c, 7, 50, 127
9, 20867, Note_on_c, 7, 50, 0
9, 20867, Note_on_c, 7, 62, 0
9, 20868, Note_on_c, 7, 79, 0
9, 20868, Note_on_c, 7, 83, 0
9, 20880, Note_on_c, 7, 85, 127
9, 20880, Note_on_c, 7, 76, 127
9, 20880, Note_on_c, 7, 62, 127
9, 20880, Note_on_c, 7, 50, 127
9, 20932, Note_on_c, 7, 76, 0
9, 20932, Note_on_c, 7, 85, 0
9, 20936, Note_on_c, 7, 62, 0
9, 20936, Note_on_c, 7, 50, 0
9, 20940, Note_on_c, 7, 85, 127
9, 20940, Note_on_c, 7, 76, 127
9, 20940, Note_on_c, 7, 62, 127
9, 20940, Note_on_c, 7, 50, 127
9, 20987, Note_on_c, 7, 50, 0
9, 20987, Note_on_c, 7, 62, 0
9, 20988, Note_on_c, 7, 76, 0
9, 20988, Note_on_c, 7, 85, 0
9, 21000, Note_on_c, 7, 85, 127
9, 21000, Note_on_c, 7, 76, 127
9, 21000, Note_on_c, 7, 62, 127
9, 21000, Note_on_c, 7, 50, 127
9, 21047, Note_on_c, 7, 50, 0
9, 21047, Note_on_c, 7, 62, 0
9, 21048, Note_on_c, 7, 76, 0
9, 21048, Note_on_c, 7, 85, 0
9, 21060, Note_on_c, 7, 85, 127
9, 21060, Note_on_c, 7, 76, 127
9, 21060, Note_on_c, 7, 62, 127
9, 21060, Note_on_c, 7, 50, 127
9, 21107, Note_on_c, 7, 50, 0
9, 21107, Note_on_c, 7, 62, 0
9, 21108, Note_on_c, 7, 76, 0
9, 21108, Note_on_c, 7, 85, 0
9, 21120, Note_on_c, 7, 78, 127
9, 21120, Note_on_c, 7, 86, 127
9, 21120, Note_on_c, 7, 62, 127
9, 21120, Note_on_c, 7, 50, 127
9, 21178, Note_on_c, 7, 86, 0
9, 21178, Note_on_c, 7, 78, 0
9, 21180, Note_on_c, 7, 81, 127
9, 21180, Note_on_c, 7, 81, 127
9, 21228, Note_on_c, 7, 81, 0
9, 21228, Note_on_c, 7, 81, 0
9, 21240, Note_on_c, 7, 81, 127
9, 21240, Note_on_c, 7, 81, 127
9, 21288, Note_on_c, 7, 81, 0
9, 21288, Note_on_c, 7, 81, 0
9, 21300, Note_on_c, 7, 81, 127
9, 21300, Note_on_c, 7, 81, 127
9, 21312, Note_on_c, 7, 62, 0
9, 21312, Note_on_c, 7, 50, 0
9, 21348, Note_on_c, 7, 81, 0
9, 21348, Note_on_c, 7, 81, 0
9, 21360, Note_on_c, 7, 81, 127
9, 21360, Note_on_c, 7, 81, 127
9, 21412, Note_on_c, 7, 81, 0
9, 21412, Note_on_c, 7, 81, 0
9, 21420, Note_on_c, 7, 81, 127
9, 21420, Note_on_c, 7, 81, 127
9, 21468, Note_on_c, 7, 81, 0
9, 21468, Note_on_c, 7, 81, 0
9, 21480, Note_on_c, 7, 85, 127
9, 21480, Note_on_c, 7, 85, 127
9, 21480, Note_on_c, 7, 69, 127
9, 21480, Note_on_c, 7, 57, 127
9, 21528, Note_on_c, 7, 85, 0
9, 21528, Note_on_c, 7, 85, 0
9, 21540, Note_on_c, 7, 81, 127
9, 21540, Note_on_c, 7, 81, 127
9, 21588, Note_on_c, 7, 81, 0
9, 21588, Note_on_c, 7, 57, 0
9, 21588, Note_on_c, 7, 69, 0
9, 21588, Note_on_c, 7, 81, 0
9, 21600, Note_on_c, 7, 86, 127
9, 21600, Note_on_c, 7, 86, 127
9, 21600, Note_on_c, 7, 66, 127
9, 21600, Note_on_c, 7, 54, 127
9, 21658, Note_on_c, 7, 86, 0
9, 21658, Note_on_c, 7, 86, 0
9, 21660, Note_on_c, 7, 81, 127
9, 21660, Note_on_c, 7, 81, 127
9, 21690, Note_on_c, 7, 66, 0
9, 21690, Note_on_c, 7, 54, 0
9, 21708, Note_on_c, 7, 81, 0
9, 21708, Note_on_c, 7, 81, 0
9, 21720, Note_on_c, 7, 81, 127
9, 21720, Note_on_c, 7, 81, 127
9, 21720, Note_on_c, 7, 62, 127
9, 21720, Note_on_c, 7, 50, 127
9, 21768, Note_on_c, 7, 81, 0
9, 21768, Note_on_c, 7, 81, 0
9, 21780, Note_on_c, 7, 81, 127
9, 21780, Note_on_c, 7, 81, 127
9, 21803, Note_on_c, 7, 62, 0
9, 21803, Note_on_c, 7, 50, 0
9, 21828, Note_on_c, 7, 81, 0
9, 21828, Note_on_c, 7, 81, 0
9, 21840, Note_on_c, 7, 81, 127
9, 21840, Note_on_c, 7, 81, 127
9, 21892, Note_on_c, 7, 81, 0
9, 21892, Note_on_c, 7, 81, 0
9, 21900, Note_on_c, 7, 81, 127
9, 21900, Note_on_c, 7, 81, 127
9, 21948, Note_on_c, 7, 81, 0
9, 21948, Note_on_c, 7, 81, 0
9, 21960, Note_on_c, 7, 85, 127
9, 21960, Note_on_c, 7, 85, 127
9, 21960, Note_on_c, 7, 69, 127
9, 21960, Note_on_c, 7, 57, 127
9, 22008, Note_on_c, 7, 85, 0
9, 22008, Note_on_c, 7, 85, 0
9, 22020, Note_on_c, 7, 81, 127
9, 22020, Note_on_c, 7, 81, 127
9, 22068, Note_on_c, 7, 81, 0
9, 22068, Note_on_c, 7, 57, 0
9, 22068, Note_on_c, 7, 69, 0
9, 22068, Note_on_c, 7, 81, 0
9, 22080, Note_on_c, 7, 86, 127
9, 22080, Note_on_c, 7, 86, 127
9, 22080, Note_on_c, 7, 66, 127
9, 22080, Note_on_c, 7, 54, 127
9, 22138, Note_on_c, 7, 86, 0
9, 22138, Note_on_c, 7, 86, 0
9, 22140, Note_on_c, 7, 81, 127
9, 22140, Note_on_c, 7, 81, 127
9, 22170, Note_on_c, 7, 66, 0
9, 22170, Note_on_c, 7, 54, 0
9, 22188, Note_on_c, 7, 81, 0
9, 22188, Note_on_c, 7, 81, 0
9, 22200, Note_on_c, 7, 81, 127
9, 22200, Note_on_c, 7, 81, 127
9, 22200, Note_on_c, 7, 62, 127
9, 22200, Note_on_c, 7, 50, 127
9, 22248, Note_on_c, 7, 81, 0
9, 22248, Note_on_c, 7, 81, 0
9, 22260, Note_on_c, 7, 81, 127
9, 22260, Note_on_c, 7, 81, 127
9, 22283, Note_on_c, 7, 62, 0
9, 22283, Note_on_c, 7, 50, 0
9, 22308, Note_on_c, 7, 81, 0
9, 22308, Note_on_c, 7, 81, 0
9, 22320, Note_on_c, 7, 81, 127
9, 22320, Note_on_c, 7, 81, 127
9, 22372, Note_on_c, 7, 81, 0
9, 22372, Note_on_c, 7, 81, 0
9, 22380, Note_on_c, 7, 81, 127
9, 22380, Note_on_c, 7, 81, 127
9, 22428, Note_on_c, 7, 81, 0
9, 22428, Note_on_c, 7, 81, 0
9, 22440, Note_on_c, 7, 85, 127
9, 22440, Note_on_c, 7, 85, 127
9, 22440, Note_on_c, 7, 69, 127
9, 22440, Note_on_c, 7, 57, 127
9, 22488, Note_on_c, 7, 85, 0
9, 22488, Note_on_c, 7, 85, 0
9, 22500, Note_on_c, 7, 81, 127
9, 22500, Note_on_c, 7, 81, 127
9, 22548, Note_on_c, 7, 81, 0
9, 22548, Note_on_c, 7, 57, 0
9, 22548, Note_on_c, 7, 69, 0
9, 22548, Note_on_c, 7, 81, 0
9, 22560, Note_on_c, 7, 86, 127
9, 22560, Note_on_c, 7, 86, 127
9, 22560, Note_on_c, 7, 66, 127
9, 22560, Note_on_c, 7, 54, 127
9, 22618, Note_on_c, 7, 86, 0
9, 22618, Note_on_c, 7, 86, 0
9, 22620, Note_on_c, 7, 81, 127
9, 22620, Note_on_c, 7, 81, 127
9, 22656, Note_on_c, 7, 66, 0
9, 22656, Note_on_c, 7, 54, 0
9, 22668, Note_on_c, 7, 81, 0
9, 22668, Note_on_c, 7, 81, 0
9, 22680, Note_on_c, 7, 85, 127
9, 22680, Note_on_c, 7, 85, 127
9, 22680, Note_on_c, 7, 69, 127
9, 22680, Note_on_c, 7, 57, 127
9, 22728, Note_on_c, 7, 85, 0
9, 22728, Note_on_c, 7, 85, 0
9, 22740, Note_on_c, 7, 81, 127
9, 22740, Note_on_c, 7, 81, 127
9, 22776, Note_on_c, 7, 69, 0
9, 22776, Note_on_c, 7, 57, 0
9, 22788, Note_on_c, 7, 81, 0
9, 22788, Note_on_c, 7, 81, 0
9, 22800, Note_on_c, 7, 86, 127
9, 22800, Note_on_c, 7, 86, 127
9, 22800, Note_on_c, 7, 66, 127
9, 22800, Note_on_c, 7, 54, 127
9, 22852, Note_on_c, 7, 86, 0
9, 22852, Note_on_c, 7, 86, 0
9, 22860, Note_on_c, 7, 81, 127
9, 22860, Note_on_c, 7, 81, 127
9, 22896, Note_on_c, 7, 66, 0
9, 22896, Note_on_c, 7, 54, 0
9, 22908, Note_on_c, 7, 81, 0
9, 22908, Note_on_c, 7, 81, 0
9, 22920, Note_on_c, 7, 85, 127
9, 22920, Note_on_c, 7, 85, 127
9, 22920, Note_on_c, 7, 69, 127
9, 22920, Note_on_c, 7, 57, 127
9, 22968, Note_on_c, 7, 85, 0
9, 22968, Note_on_c, 7, 85, 0
9, 22980, Note_on_c, 7, 81, 127
9, 22980, Note_on_c, 7, 81, 127
9, 23016, Note_on_c, 7, 69, 0
9, 23016, Note_on_c, 7, 57, 0
9, 23028, Note_on_c, 7, 81, 0
9, 23028, Note_on_c, 7, 81, 0
9, 23040, Note_on_c, 7, 86, 127
9, 23040, Note_on_c, 7, 86, 127
9, 23040, Note_on_c, 7, 62, 127
9, 23040, Note_on_c, 7, 50, 127
9, 23098, Note_on_c, 7, 86, 0
9, 23098, Note_on_c, 7, 86, 0
9, 23100, Note_on_c, 7, 85, 127
9, 23100, Note_on_c, 7, 85, 127
9, 23136, Note_on_c, 7, 62, 0
9, 23136, Note_on_c, 7, 50, 0
9, 23157, Note_on_c, 7, 85, 0
9, 23157, Note_on_c, 7, 85, 0
9, 23160, Note_on_c, 7, 83, 125
9, 23160, Note_on_c, 7, 83, 125
9, 23217, Note_on_c, 7, 83, 0
9, 23217, Note_on_c, 7, 83, 0
9, 23220, Note_on_c, 7, 81, 119
9, 23220, Note_on_c, 7, 81, 119
9, 23277, Note_on_c, 7, 81, 0
9, 23277, Note_on_c, 7, 81, 0
9, 23280, Note_on_c, 7, 86, 127
9, 23280, Note_on_c, 7, 86, 127
9, 23280, Note_on_c, 7, 74, 127
9, 23280, Note_on_c, 7, 62, 127
9, 23332, Note_on_c, 7, 62, 0
9, 23332, Note_on_c, 7, 86, 0
9, 23332, Note_on_c, 7, 86, 0
9, 23332, Note_on_c, 7, 74, 0
9, 23340, Note_on_c, 7, 85, 127
9, 23340, Note_on_c, 7, 85, 127
9, 23340, Note_on_c, 7, 73, 127
9, 23340, Note_on_c, 7, 61, 127
9, 23397, Note_on_c, 7, 61, 0
9, 23397, Note_on_c, 7, 85, 0
9, 23397, Note_on_c, 7, 85, 0
9, 23397, Note_on_c, 7, 73, 0
9, 23400, Note_on_c, 7, 83, 125
9, 23400, Note_on_c, 7, 83, 125
9, 23400, Note_on_c, 7, 71, 125
9, 23400, Note_on_c, 7, 59, 125
9, 23457, Note_on_c, 7, 59, 0
9, 23457, Note_on_c, 7, 83, 0
9, 23457, Note_on_c, 7, 83, 0
9, 23457, Note_on_c, 7, 71, 0
9, 23460, Note_on_c, 7, 81, 119
9, 23460, Note_on_c, 7, 81, 119
9, 23460, Note_on_c, 7, 69, 119
9, 23460, Note_on_c, 7, 57, 119
9, 23517, Note_on_c, 7, 57, 0
9, 23517, Note_on_c, 7, 81, 0
9, 23517, Note_on_c, 7, 81, 0
9, 23517, Note_on_c, 7, 69, 0
9, 23520, Note_on_c, 7, 86, 127
9, 23520, Note_on_c, 7, 86, 127
9, 23520, Note_on_c, 7, 74, 127
9, 23520, Note_on_c, 7, 62, 127
9, 23578, Note_on_c, 7, 62, 0
9, 23578, Note_on_c, 7, 86, 0
9, 23578, Note_on_c, 7, 86, 0
9, 23578, Note_on_c, 7, 74, 0
9, 23580, Note_on_c, 7, 85, 127
9, 23580, Note_on_c, 7, 85, 127
9, 23580, Note_on_c, 7, 73, 127
9, 23580, Note_on_c, 7, 61, 127
9, 23637, Note_on_c, 7, 61, 0
9, 23637, Note_on_c, 7, 85, 0
9, 23637, Note_on_c, 7, 85, 0
9, 23637, Note_on_c, 7, 73, 0
9, 23640, Note_on_c, 7, 83, 127
9, 23640, Note_on_c, 7, 83, 127
9, 23640, Note_on_c, 7, 71, 127
9, 23640, Note_on_c, 7, 59, 127
9, 23697, Note_on_c, 7, 59, 0
9, 23697, Note_on_c, 7, 83, 0
9, 23697, Note_on_c, 7, 83, 0
9, 23697, Note_on_c, 7, 71, 0
9, 23700, Note_on_c, 7, 81, 127
9, 23700, Note_on_c, 7, 81, 127
9, 23700, Note_on_c, 7, 69, 127
9, 23700, Note_on_c, 7, 57, 127
9, 23757, Note_on_c, 7, 57, 0
9, 23757, Note_on_c, 7, 81, 0
9, 23757, Note_on_c, 7, 81, 0
9, 23757, Note_on_c, 7, 69, 0
9, 23760, Note_on_c, 7, 79, 123
9, 23760, Note_on_c, 7, 79, 123
9, 23760, Note_on_c, 7, 67, 123
9, 23760, Note_on_c, 7, 55, 123
9, 23812, Note_on_c, 7, 55, 0
9, 23812, Note_on_c, 7, 79, 0
9, 23812, Note_on_c, 7, 79, 0
9, 23812, Note_on_c, 7, 67, 0
9, 23820, Note_on_c, 7, 78, 115
9, 23820, Note_on_c, 7, 78, 115
9, 23820, Note_on_c, 7, 66, 115
9, 23820, Note_on_c, 7, 54, 115
9, 23877, Note_on_c, 7, 54, 0
9, 23877, Note_on_c, 7, 78, 0
9, 23877, Note_on_c, 7, 78, 0
9, 23877, Note_on_c, 7, 66, 0
9, 23880, Note_on_c, 7, 76, 108
9, 23880, Note_on_c, 7, 76, 108
9, 23880, Note_on_c, 7, 64, 108
9, 23880, Note_on_c, 7, 52, 108
9, 23937, Note_on_c, 7, 52, 0
9, 23937, Note_on_c, 7, 76, 0
9, 23937, Note_on_c, 7, 76, 0
9, 23937, Note_on_c, 7, 64, 0
9, 23940, Note_on_c, 7, 74, 102
9, 23940, Note_on_c, 7, 74, 102
9, 23940, Note_on_c, 7, 62, 102
9, 23940, Note_on_c, 7, 50, 102
9, 23997, Note_on_c, 7, 50, 0
9, 23997, Note_on_c, 7, 74, 0
9, 23997, Note_on_c, 7, 74, 0
9, 23997, Note_on_c, 7, 62, 0
9, 24000, Note_on_c, 7, 76, 100
9, 24000, Note_on_c, 7, 73, 100
9, 24000, Note_on_c, 7, 81, 100
9, 24000, Note_on_c, 7, 69, 100
9, 24000, Note_on_c, 7, 69, 100
9, 24000, Note_on_c, 7, 57, 100
9, 24058, Note_on_c, 7, 57, 0
9, 24058, Note_on_c, 7, 73, 0
9, 24058, Note_on_c, 7, 76, 0
9, 24058, Note_on_c, 7, 69, 0
9, 24060, Note_on_c, 7, 76, 101
9, 24060, Note_on_c, 7, 73, 101
9, 24060, Note_on_c, 7, 69, 101
9, 24060, Note_on_c, 7, 57, 101
9, 24108, Note_on_c, 7, 57, 0
9, 24108, Note_on_c, 7, 73, 0
9, 24108, Note_on_c, 7, 76, 0
9, 24108, Note_on_c, 7, 69, 0
9, 24120, Note_on_c, 7, 76, 112
9, 24120, Note_on_c, 7, 73, 112
9, 24120, Note_on_c, 7, 69, 112
9, 24120, Note_on_c, 7, 57, 112
9, 24168, Note_on_c, 7, 57, 0
9, 24168, Note_on_c, 7, 73, 0
9, 24168, Note_on_c, 7, 76, 0
9, 24168, Note_on_c, 7, 69, 0
9, 24180, Note_on_c, 7, 76, 119
9, 24180, Note_on_c, 7, 73, 119
9, 24180, Note_on_c, 7, 69, 119
9, 24180, Note_on_c, 7, 57, 119
9, 24192, Note_on_c, 7, 69, 0
9, 24192, Note_on_c, 7, 81, 0
9, 24228, Note_on_c, 7, 69, 0
9, 24228, Note_on_c, 7, 73, 0
9, 24228, Note_on_c, 7, 57, 0
9, 24228, Note_on_c, 7, 76, 0
9, 24240, Note_on_c, 7, 79, 125
9, 24240, Note_on_c, 7, 76, 125
9, 24240, Note_on_c, 7, 69, 125
9, 24240, Note_on_c, 7, 57, 125
9, 24292, Note_on_c, 7, 57, 0
9, 24292, Note_on_c, 7, 79, 0
9, 24292, Note_on_c, 7, 76, 0
9, 24292, Note_on_c, 7, 69, 0
9, 24300, Note_on_c, 7, 79, 126
9, 24300, Note_on_c, 7, 76, 126
9, 24300, Note_on_c, 7, 69, 98
9, 24300, Note_on_c, 7, 57, 98
9, 24348, Note_on_c, 7, 57, 0
9, 24348, Note_on_c, 7, 79, 0
9, 24348, Note_on_c, 7, 76, 0
9, 24348, Note_on_c, 7, 69, 0
9, 24360, Note_on_c, 7, 79, 126
9, 24360, Note_on_c, 7, 76, 126
9, 24360, Note_on_c, 7, 85, 126
9, 24360, Note_on_c, 7, 76, 126
9, 24360, Note_on_c, 7, 69, 98
9, 24360, Note_on_c, 7, 57, 98
9, 24408, Note_on_c, 7, 57, 0
9, 24408, Note_on_c, 7, 76, 0
9, 24408, Note_on_c, 7, 79, 0
9, 24408, Note_on_c, 7, 69, 0
9, 24420, Note_on_c, 7, 79, 126
9, 24420, Note_on_c, 7, 76, 126
9, 24420, Note_on_c, 7, 69, 98
9, 24420, Note_on_c, 7, 57, 98
9, 24456, Note_on_c, 7, 76, 0
9, 24456, Note_on_c, 7, 85, 0
9, 24468, Note_on_c, 7, 69, 0
9, 24468, Note_on_c, 7, 76, 0
9, 24468, Note_on_c, 7, 57, 0
9, 24468, Note_on_c, 7, 79, 0
9, 24480, Note_on_c, 7, 74, 126
9, 24480, Note_on_c, 7, 78, 126
9, 24480, Note_on_c, 7, 86, 126
9, 24480, Note_on_c, 7, 78, 126
9, 24480, Note_on_c, 7, 69, 98
9, 24480, Note_on_c, 7, 57, 98
9, 24538, Note_on_c, 7, 57, 0
9, 24538, Note_on_c, 7, 78, 0
9, 24538, Note_on_c, 7, 74, 0
9, 24538, Note_on_c, 7, 69, 0
9, 24540, Note_on_c, 7, 74, 126
9, 24540, Note_on_c, 7, 78, 126
9, 24540, Note_on_c, 7, 69, 98
9, 24540, Note_on_c, 7, 57, 98
9, 24588, Note_on_c, 7, 57, 0
9, 24588, Note_on_c, 7, 78, 0
9, 24588, Note_on_c, 7, 74, 0
9, 24588, Note_on_c, 7, 69, 0
9, 24600, Note_on_c, 7, 74, 126
9, 24600, Note_on_c, 7, 78, 126
9, 24600, Note_on_c, 7, 69, 98
9, 24600, Note_on_c, 7, 57, 98
9, 24648, Note_on_c, 7, 57, 0
9, 24648, Note_on_c, 7, 78, 0
9, 24648, Note_on_c, 7, 74, 0
9, 24648, Note_on_c, 7, 69, 0
9, 24660, Note_on_c, 7, 74, 126
9, 24660, Note_on_c, 7, 78, 126
9, 24660, Note_on_c, 7, 69, 98
9, 24660, Note_on_c, 7, 57, 98
9, 24672, Note_on_c, 7, 78, 0
9, 24672, Note_on_c, 7, 86, 0
9, 24708, Note_on_c, 7, 69, 0
9, 24708, Note_on_c, 7, 78, 0
9, 24708, Note_on_c, 7, 57, 0
9, 24708, Note_on_c, 7, 74, 0
9, 24720, Note_on_c, 7, 78, 125
9, 24720, Note_on_c, 7, 74, 125
9, 24720, Note_on_c, 7, 69, 125
9, 24720, Note_on_c, 7, 57, 125
9, 24772, Note_on_c, 7, 57, 0
9, 24772, Note_on_c, 7, 78, 0
9, 24772, Note_on_c, 7, 74, 0
9, 24772, Note_on_c, 7, 69, 0
9, 24780, Note_on_c, 7, 78, 123
9, 24780, Note_on_c, 7, 74, 123
9, 24780, Note_on_c, 7, 69, 123
9, 24780, Note_on_c, 7, 57, 123
9, 24828, Note_on_c, 7, 57, 0
9, 24828, Note_on_c, 7, 78, 0
9, 24828, Note_on_c, 7, 74, 0
9, 24828, Note_on_c, 7, 69, 0
9, 24840, Note_on_c, 7, 78, 109
9, 24840, Note_on_c, 7, 74, 109
9, 24840, Note_on_c, 7, 74, 109
9, 24840, Note_on_c, 7, 78, 109
9, 24840, Note_on_c, 7, 69, 109
9, 24840, Note_on_c, 7, 57, 109
9, 24888, Note_on_c, 7, 57, 0
9, 24888, Note_on_c, 7, 78, 0
9, 24888, Note_on_c, 7, 74, 0
9, 24888, Note_on_c, 7, 69, 0
9, 24900, Note_on_c, 7, 78, 104
9, 24900, Note_on_c, 7, 74, 104
9, 24900, Note_on_c, 7, 69, 104
9, 24900, Note_on_c, 7, 57, 104
9, 24936, Note_on_c, 7, 74, 0
9, 24936, Note_on_c, 7, 78, 0
9, 24948, Note_on_c, 7, 69, 0
9, 24948, Note_on_c, 7, 74, 0
9, 24948, Note_on_c, 7, 57, 0
9, 24948, Note_on_c, 7, 78, 0
9, 24960, Note_on_c, 7, 73, 102
9, 24960, Note_on_c, 7, 76, 102
9, 24960, Note_on_c, 7, 73, 102
9, 24960, Note_on_c, 7, 64, 102
9, 24960, Note_on_c, 7, 69, 102
9, 24960, Note_on_c, 7, 57, 102
9, 24990, Note_on_c, 7, 81, 102
9, 25018, Note_on_c, 7, 57, 0
9, 25018, Note_on_c, 7, 73, 0
9, 25018, Note_on_c, 7, 76, 0
9, 25018, Note_on_c, 7, 69, 0
9, 25020, Note_on_c, 7, 73, 102
9, 25020, Note_on_c, 7, 76, 102
9, 25020, Note_on_c, 7, 69, 102
9, 25020, Note_on_c, 7, 57, 102
9, 25056, Note_on_c, 7, 73, 0
9, 25056, Note_on_c, 7, 64, 0
9, 25068, Note_on_c, 7, 69, 0
9, 25068, Note_on_c, 7, 76, 0
9, 25068, Note_on_c, 7, 73, 0
9, 25068, Note_on_c, 7, 57, 0
9, 25080, Note_on_c, 7, 73, 102
9, 25080, Note_on_c, 7, 76, 102
9, 25080, Note_on_c, 7, 69, 102
9, 25080, Note_on_c, 7, 57, 102
9, 25128, Note_on_c, 7, 57, 0
9, 25128, Note_on_c, 7, 76, 0
9, 25128, Note_on_c, 7, 69, 0
9, 25128, Note_on_c, 7, 73, 0
9, 25140, Note_on_c, 7, 73, 108
9, 25140, Note_on_c, 7, 76, 108
9, 25140, Note_on_c, 7, 69, 108
9, 25140, Note_on_c, 7, 57, 108
9, 25182, Note_on_c, 7, 81, 0
9, 25188, Note_on_c, 7, 69, 0
9, 25188, Note_on_c, 7, 73, 0
9, 25188, Note_on_c, 7, 76, 0
9, 25188, Note_on_c, 7, 57, 0
9, 25200, Note_on_c, 7, 76, 115
9, 25200, Note_on_c, 7, 79, 115
9, 25200, Note_on_c, 7, 69, 115
9, 25200, Note_on_c, 7, 57, 115
9, 25252, Note_on_c, 7, 57, 0
9, 25252, Note_on_c, 7, 76, 0
9, 25252, Note_on_c, 7, 79, 0
9, 25252, Note_on_c, 7, 69, 0
9, 25260, Note_on_c, 7, 76, 120
9, 25260, Note_on_c, 7, 79, 120
9, 25260, Note_on_c, 7, 69, 120
9, 25260, Note_on_c, 7, 57, 120
9, 25308, Note_on_c, 7, 57, 0
9, 25308, Note_on_c, 7, 76, 0
9, 25308, Note_on_c, 7, 79, 0
9, 25308, Note_on_c, 7, 69, 0
9, 25320, Note_on_c, 7, 76, 124
9, 25320, Note_on_c, 7, 79, 124
9, 25320, Note_on_c, 7, 76, 124
9, 25320, Note_on_c, 7, 85, 124
9, 25320, Note_on_c, 7, 69, 124
9, 25320, Note_on_c, 7, 57, 124
9, 25368, Note_on_c, 7, 57, 0
9, 25368, Note_on_c, 7, 79, 0
9, 25368, Note_on_c, 7, 76, 0
9, 25368, Note_on_c, 7, 69, 0
9, 25380, Note_on_c, 7, 76, 125
9, 25380, Note_on_c, 7, 79, 125
9, 25380, Note_on_c, 7, 69, 125
9, 25380, Note_on_c, 7, 57, 125
9, 25416, Note_on_c, 7, 76, 0
9, 25416, Note_on_c, 7, 85, 0
9, 25428, Note_on_c, 7, 79, 0
9, 25428, Note_on_c, 7, 76, 0
9, 25428, Note_on_c, 7, 57, 0
9, 25428, Note_on_c, 7, 69, 0
9, 25440, Note_on_c, 7, 78, 127
9, 25440, Note_on_c, 7, 74, 127
9, 25440, Note_on_c, 7, 78, 127
9, 25440, Note_on_c, 7, 86, 127
9, 25440, Note_on_c, 7, 69, 127
9, 25440, Note_on_c, 7, 57, 127
9, 25498, Note_on_c, 7, 57, 0
9, 25498, Note_on_c, 7, 74, 0
9, 25498, Note_on_c, 7, 78, 0
9, 25498, Note_on_c, 7, 69, 0
9, 25500, Note_on_c, 7, 78, 127
9, 25500, Note_on_c, 7, 74, 127
9, 25500, Note_on_c, 7, 69, 127
9, 25500, Note_on_c, 7, 57, 127
9, 25548, Note_on_c, 7, 57, 0
9, 25548, Note_on_c, 7, 74, 0
9, 25548, Note_on_c, 7, 78, 0
9, 25548, Note_on_c, 7, 69, 0
9, 25560, Note_on_c, 7, 78, 127
9, 25560, Note_on_c, 7, 74, 127
9, 25560, Note_on_c, 7, 69, 127
9, 25560, Note_on_c, 7, 57, 127
9, 25608, Note_on_c, 7, 57, 0
9, 25608, Note_on_c, 7, 74, 0
9, 25608, Note_on_c, 7, 78, 0
9, 25608, Note_on_c, 7, 69, 0
9, 25620, Note_on_c, 7, 78, 127
9, 25620, Note_on_c, 7, 74, 127
9, 25620, Note_on_c, 7, 69, 127
9, 25620, Note_on_c, 7, 57, 127
9, 25632, Note_on_c, 7, 78, 0
9, 25632, Note_on_c, 7, 86, 0
9, 25668, Note_on_c, 7, 74, 0
9, 25668, Note_on_c, 7, 78, 0
9, 25668, Note_on_c, 7, 57, 0
9, 25668, Note_on_c, 7, 69, 0
9, 25680, Note_on_c, 7, 74, 127
9, 25680, Note_on_c, 7, 78, 127
9, 25680, Note_on_c, 7, 69, 127
9, 25680, Note_on_c, 7, 57, 127
9, 25732, Note_on_c, 7, 57, 0
9, 25732, Note_on_c, 7, 74, 0
9, 25732, Note_on_c, 7, 78, 0
9, 25732, Note_on_c, 7, 69, 0
9, 25740, Note_on_c, 7, 74, 127
9, 25740, Note_on_c, 7, 78, 127
9, 25740, Note_on_c, 7, 69, 127
9, 25740, Note_on_c, 7, 57, 127
9, 25788, Note_on_c, 7, 57, 0
9, 25788, Note_on_c, 7, 74, 0
9, 25788, Note_on_c, 7, 78, 0
9, 25788, Note_on_c, 7, 69, 0
9, 25800, Note_on_c, 7, 74, 127
9, 25800, Note_on_c, 7, 78, 127
9, 25800, Note_on_c, 7, 78, 127
9, 25800, Note_on_c, 7, 74, 127
9, 25800, Note_on_c, 7, 69, 127
9, 25800, Note_on_c, 7, 57, 127
9, 25848, Note_on_c, 7, 57, 0
9, 25848, Note_on_c, 7, 74, 0
9, 25848, Note_on_c, 7, 78, 0
9, 25848, Note_on_c, 7, 69, 0
9, 25860, Note_on_c, 7, 74, 124
9, 25860, Note_on_c, 7, 78, 124
9, 25860, Note_on_c, 7, 69, 124
9, 25860, Note_on_c, 7, 57, 124
9, 25896, Note_on_c, 7, 78, 0
9, 25896, Note_on_c, 7, 74, 0
9, 25908, Note_on_c, 7, 69, 0
9, 25908, Note_on_c, 7, 78, 0
9, 25908, Note_on_c, 7, 57, 0
9, 25908, Note_on_c, 7, 74, 0
9, 25920, Note_on_c, 7, 73, 122
9, 25920, Note_on_c, 7, 76, 122
9, 25920, Note_on_c, 7, 81, 122
9, 25920, Note_on_c, 7, 73, 122
9, 25920, Note_on_c, 7, 69, 122
9, 25920, Note_on_c, 7, 57, 122
9, 25978, Note_on_c, 7, 57, 0
9, 25978, Note_on_c, 7, 73, 0
9, 25978, Note_on_c, 7, 76, 0
9, 25978, Note_on_c, 7, 69, 0
9, 25980, Note_on_c, 7, 73, 120
9, 25980, Note_on_c, 7, 76, 120
9, 25980, Note_on_c, 7, 69, 120
9, 25980, Note_on_c, 7, 57, 120
9, 26016, Note_on_c, 7, 73, 0
9, 26016, Note_on_c, 7, 81, 0
9, 26028, Note_on_c, 7, 76, 0
9, 26028, Note_on_c, 7, 73, 0
9, 26028, Note_on_c, 7, 57, 0
9, 26028, Note_on_c, 7, 69, 0
9, 26040, Note_on_c, 7, 85, 117
9, 26040, Note_on_c, 7, 73, 117
9, 26040, Note_on_c, 7, 76, 117
9, 26040, Note_on_c, 7, 76, 117
9, 26040, Note_on_c, 7, 69, 98
9, 26040, Note_on_c, 7, 57, 98
9, 26088, Note_on_c, 7, 57, 0
9, 26088, Note_on_c, 7, 76, 0
9, 26088, Note_on_c, 7, 73, 0
9, 26088, Note_on_c, 7, 69, 0
9, 26100, Note_on_c, 7, 73, 118
9, 26100, Note_on_c, 7, 76, 118
9, 26100, Note_on_c, 7, 69, 98
9, 26100, Note_on_c, 7, 57, 98
9, 26136, Note_on_c, 7, 76, 0
9, 26136, Note_on_c, 7, 85, 0
9, 26148, Note_on_c, 7, 69, 0
9, 26148, Note_on_c, 7, 76, 0
9, 26148, Note_on_c, 7, 57, 0
9, 26148, Note_on_c, 7, 73, 0
9, 26160, Note_on_c, 7, 86, 117
9, 26160, Note_on_c, 7, 78, 120
9, 26160, Note_on_c, 7, 74, 120
9, 26160, Note_on_c, 7, 69, 98
9, 26160, Note_on_c, 7, 57, 98
9, 26212, Note_on_c, 7, 57, 0
9, 26212, Note_on_c, 7, 74, 0
9, 26212, Note_on_c, 7, 69, 0
9, 26212, Note_on_c, 7, 78, 0
9, 26220, Note_on_c, 7, 78, 123
9, 26220, Note_on_c, 7, 74, 123
9, 26220, Note_on_c, 7, 69, 98
9, 26220, Note_on_c, 7, 57, 98
9, 26256, Note_on_c, 7, 86, 0
9, 26268, Note_on_c, 7, 69, 0
9, 26268, Note_on_c, 7, 78, 0
9, 26268, Note_on_c, 7, 74, 0
9, 26268, Note_on_c, 7, 57, 0
9, 26280, Note_on_c, 7, 78, 126
9, 26280, Note_on_c, 7, 74, 126
9, 26280, Note_on_c, 7, 86, 126
9, 26280, Note_on_c, 7, 78, 126
9, 26280, Note_on_c, 7, 69, 98
9, 26280, Note_on_c, 7, 57, 98
9, 26328, Note_on_c, 7, 57, 0
9, 26328, Note_on_c, 7, 78, 0
9, 26328, Note_on_c, 7, 74, 0
9, 26328, Note_on_c, 7, 69, 0
9, 26340, Note_on_c, 7, 78, 127
9, 26340, Note_on_c, 7, 74, 127
9, 26340, Note_on_c, 7, 69, 98
9, 26340, Note_on_c, 7, 57, 98
9, 26376, Note_on_c, 7, 78, 0
9, 26376, Note_on_c, 7, 86, 0
9, 26388, Note_on_c, 7, 74, 0
9, 26388, Note_on_c, 7, 78, 0
9, 26388, Note_on_c, 7, 57, 0
9, 26388, Note_on_c, 7, 69, 0
9, 26400, Note_on_c, 7, 73, 127
9, 26400, Note_on_c, 7, 81, 127
9, 26400, Note_on_c, 7, 76, 127
9, 26400, Note_on_c, 7, 73, 127
9, 26400, Note_on_c, 7, 69, 98
9, 26400, Note_on_c, 7, 57, 98
9, 26458, Note_on_c, 7, 57, 0
9, 26458, Note_on_c, 7, 73, 0
9, 26458, Note_on_c, 7, 76, 0
9, 26458, Note_on_c, 7, 69, 0
9, 26460, Note_on_c, 7, 76, 127
9, 26460, Note_on_c, 7, 73, 127
9, 26460, Note_on_c, 7, 69, 98
9, 26460, Note_on_c, 7, 57, 98
9, 26496, Note_on_c, 7, 73, 0
9, 26496, Note_on_c, 7, 81, 0
9, 26508, Note_on_c, 7, 69, 0
9, 26508, Note_on_c, 7, 73, 0
9, 26508, Note_on_c, 7, 57, 0
9, 26508, Note_on_c, 7, 76, 0
9, 26520, Note_on_c, 7, 85, 127
9, 26520, Note_on_c, 7, 76, 127
9, 26520, Note_on_c, 7, 76, 127
9, 26520, Note_on_c, 7, 73, 127
9, 26520, Note_on_c, 7, 69, 98
9, 26520, Note_on_c, 7, 57, 98
9, 26568, Note_on_c, 7, 57, 0
9, 26568, Note_on_c, 7, 73, 0
9, 26568, Note_on_c, 7, 76, 0
9, 26568, Note_on_c, 7, 69, 0
9, 26580, Note_on_c, 7, 76, 127
9, 26580, Note_on_c, 7, 73, 127
9, 26580, Note_on_c, 7, 69, 98
9, 26580, Note_on_c, 7, 57, 98
9, 26616, Note_on_c, 7, 76, 0
9, 26616, Note_on_c, 7, 85, 0
9, 26628, Note_on_c, 7, 73, 0
9, 26628, Note_on_c, 7, 76, 0
9, 26628, Note_on_c, 7, 57, 0
9, 26628, Note_on_c, 7, 69, 0
9, 26640, Note_on_c, 7, 74, 127
9, 26640, Note_on_c, 7, 78, 127
9, 26640, Note_on_c, 7, 78, 127
9, 26640, Note_on_c, 7, 86, 127
9, 26640, Note_on_c, 7, 69, 98
9, 26640, Note_on_c, 7, 57, 98
9, 26660, Control_c, 7, 7, 122
9, 26692, Note_on_c, 7, 57, 0
9, 26692, Note_on_c, 7, 74, 0
9, 26692, Note_on_c, 7, 78, 0
9, 26692, Note_on_c, 7, 69, 0
9, 26700, Note_on_c, 7, 78, 127
9, 26700, Note_on_c, 7, 74, 127
9, 26700, Note_on_c, 7, 69, 98
9, 26700, Note_on_c, 7, 57, 98
9, 26730, Control_c, 7, 7, 120
9, 26736, Note_on_c, 7, 78, 0
9, 26736, Note_on_c, 7, 86, 0
9, 26748, Note_on_c, 7, 74, 0
9, 26748, Note_on_c, 7, 78, 0
9, 26748, Note_on_c, 7, 57, 0
9, 26748, Note_on_c, 7, 69, 0
9, 26760, Note_on_c, 7, 74, 127
9, 26760, Note_on_c, 7, 78, 127
9, 26760, Note_on_c, 7, 86, 127
9, 26760, Note_on_c, 7, 78, 127
9, 26760, Note_on_c, 7, 69, 98
9, 26760, Note_on_c, 7, 57, 98
9, 26808, Note_on_c, 7, 57, 0
9, 26808, Note_on_c, 7, 78, 0
9, 26808, Note_on_c, 7, 74, 0
9, 26808, Note_on_c, 7, 69, 0
9, 26810, Control_c, 7, 7, 118
9, 26820, Note_on_c, 7, 78, 127
9, 26820, Note_on_c, 7, 74, 127
9, 26820, Note_on_c, 7, 69, 127
9, 26820, Note_on_c, 7, 57, 127
9, 26856, Note_on_c, 7, 78, 0
9, 26856, Note_on_c, 7, 86, 0
9, 26868, Note_on_c, 7, 74, 0
9, 26868, Note_on_c, 7, 78, 0
9, 26868, Note_on_c, 7, 57, 0
9, 26868, Note_on_c, 7, 69, 0
9, 26880, Note_on_c, 7, 73, 127
9, 26880, Note_on_c, 7, 81, 127
9, 26880, Note_on_c, 7, 76, 127
9, 26880, Note_on_c, 7, 73, 127
9, 26880, Note_on_c, 7, 69, 127
9, 26880, Note_on_c, 7, 57, 127
9, 26890, Control_c, 7, 7, 110
9, 26992, Note_on_c, 7, 57, 0
9, 26992, Note_on_c, 7, 81, 0
9, 26992, Note_on_c, 7, 76, 0
9, 26992, Note_on_c, 7, 73, 0
9, 26992, Note_on_c, 7, 69, 0
9, 26992, Note_on_c, 7, 73, 0
9, 27000, Note_on_c, 7, 69, 127
9, 27000, Note_on_c, 7, 69, 127
9, 27000, Note_on_c, 7, 57, 127
9, 27000, Note_on_c, 7, 57, 127
9, 27030, Control_c, 7, 7, 102
9, 27048, Note_on_c, 7, 57, 0
9, 27048, Note_on_c, 7, 69, 0
9, 27048, Note_on_c, 7, 69, 0
9, 27048, Note_on_c, 7, 57, 0
9, 27060, Note_on_c, 7, 69, 127
9, 27060, Note_on_c, 7, 69, 127
9, 27060, Note_on_c, 7, 57, 127
9, 27060, Note_on_c, 7, 57, 127
9, 27108, Note_on_c, 7, 57, 0
9, 27108, Note_on_c, 7, 69, 0
9, 27108, Note_on_c, 7, 69, 0
9, 27108, Note_on_c, 7, 57, 0
9, 27120, Note_on_c, 7, 69, 126
9, 27120, Note_on_c, 7, 69, 126
9, 27120, Note_on_c, 7, 57, 126
9, 27120, Note_on_c, 7, 57, 126
9, 27190, Control_c, 7, 7, 92
9, 27232, Note_on_c, 7, 57, 0
9, 27232, Note_on_c, 7, 69, 0
9, 27232, Note_on_c, 7, 69, 0
9, 27232, Note_on_c, 7, 57, 0
9, 27240, Note_on_c, 7, 69, 123
9, 27240, Note_on_c, 7, 69, 123
9, 27240, Note_on_c, 7, 57, 123
9, 27240, Note_on_c, 7, 57, 123
9, 27250, Control_c, 7, 7, 96
9, 27352, Note_on_c, 7, 57, 0
9, 27352, Note_on_c, 7, 69, 0
9, 27352, Note_on_c, 7, 69, 0
9, 27352, Note_on_c, 7, 57, 0
9, 27360, Note_on_c, 7, 69, 118
9, 27360, Note_on_c, 7, 69, 118
9, 27360, Note_on_c, 7, 57, 118
9, 27360, Note_on_c, 7, 57, 118
9, 27540, Control_c, 7, 7, 97
9, 27662, Note_on_c, 7, 57, 0
9, 27662, Note_on_c, 7, 69, 0
9, 27662, Note_on_c, 7, 69, 0
9, 27662, Note_on_c, 7, 57, 0
9, 27840, Control_c, 7, 7, 120
9, 27840, Note_on_c, 7, 73, 98
9, 27840, Control_c, 7, 7, 120
9, 27840, Note_on_c, 7, 69, 98
9, 27840, Control_c, 7, 7, 120
9, 27842, Control_c, 7, 7, 119
9, 27842, Control_c, 7, 7, 119
9, 27842, Control_c, 7, 7, 119
9, 27844, Control_c, 7, 7, 118
9, 27844, Control_c, 7, 7, 118
9, 27844, Control_c, 7, 7, 118
9, 27846, Control_c, 7, 7, 117
9, 27846, Control_c, 7, 7, 117
9, 27846, Control_c, 7, 7, 117
9, 27848, Control_c, 7, 7, 116
9, 27848, Control_c, 7, 7, 116
9, 27848, Control_c, 7, 7, 116
9, 27850, Control_c, 7, 7, 115
9, 27850, Control_c, 7, 7, 115
9, 27850, Control_c, 7, 7, 115
9, 27852, Control_c, 7, 7, 114
9, 27852, Control_c, 7, 7, 114
9, 27852, Control_c, 7, 7, 114
9, 27854, Control_c, 7, 7, 113
9, 27855, Control_c, 7, 7, 113
9, 27855, Control_c, 7, 7, 113
9, 27857, Control_c, 7, 7, 112
9, 27857, Control_c, 7, 7, 112
9, 27857, Control_c, 7, 7, 112
9, 27859, Control_c, 7, 7, 111
9, 27859, Control_c, 7, 7, 111
9, 27859, Control_c, 7, 7, 111
9, 27861, Control_c, 7, 7, 110
9, 27861, Control_c, 7, 7, 110
9, 27861, Control_c, 7, 7, 110
9, 27863, Control_c, 7, 7, 109
9, 27863, Control_c, 7, 7, 109
9, 27863, Control_c, 7, 7, 109
9, 27865, Control_c, 7, 7, 108
9, 27865, Control_c, 7, 7, 108
9, 27865, Control_c, 7, 7, 108
9, 27867, Control_c, 7, 7, 107
9, 27867, Control_c, 7, 7, 107
9, 27867, Control_c, 7, 7, 107
9, 27869, Control_c, 7, 7, 106
9, 27870, Control_c, 7, 7, 106
9, 27870, Control_c, 7, 7, 106
9, 27871, Control_c, 7, 7, 105
9, 27872, Control_c, 7, 7, 105
9, 27872, Control_c, 7, 7, 105
9, 27874, Control_c, 7, 7, 104
9, 27874, Control_c, 7, 7, 104
9, 27874, Control_c, 7, 7, 104
9, 27876, Control_c, 7, 7, 103
9, 27876, Control_c, 7, 7, 103
9, 27876, Control_c, 7, 7, 103
9, 27878, Control_c, 7, 7, 102
9, 27878, Control_c, 7, 7, 102
9, 27878, Control_c, 7, 7, 102
9, 27880, Control_c, 7, 7, 101
9, 27880, Control_c, 7, 7, 101
9, 27880, Control_c, 7, 7, 101
9, 27882, Control_c, 7, 7, 100
9, 27882, Control_c, 7, 7, 100
9, 27882, Control_c, 7, 7, 100
9, 27884, Control_c, 7, 7, 99
9, 27885, Control_c, 7, 7, 99
9, 27885, Control_c, 7, 7, 99
9, 27886, Control_c, 7, 7, 98
9, 27887, Control_c, 7, 7, 98
9, 27887, Control_c, 7, 7, 98
9, 27888, Control_c, 7, 7, 97
9, 27889, Control_c, 7, 7, 97
9, 27889, Control_c, 7, 7, 97
9, 27891, Control_c, 7, 7, 96
9, 27891, Control_c, 7, 7, 96
9, 27891, Control_c, 7, 7, 96
9, 27893, Control_c, 7, 7, 95
9, 27893, Control_c, 7, 7, 95
9, 27893, Control_c, 7, 7, 95
9, 27895, Control_c, 7, 7, 94
9, 27895, Control_c, 7, 7, 94
9, 27895, Control_c, 7, 7, 94
9, 27897, Control_c, 7, 7, 93
9, 27897, Control_c, 7, 7, 93
9, 27897, Control_c, 7, 7, 93
9, 27898, Note_on_c, 7, 69, 0
9, 27898, Note_on_c, 7, 73, 0
9, 27899, Control_c, 7, 7, 92
9, 27900, Note_on_c, 7, 73, 98
9, 27900, Control_c, 7, 7, 92
9, 27900, Note_on_c, 7, 69, 98
9, 27900, Control_c, 7, 7, 92
9, 27901, Control_c, 7, 7, 91
9, 27902, Control_c, 7, 7, 91
9, 27902, Control_c, 7, 7, 91
9, 27903, Control_c, 7, 7, 90
9, 27904, Control_c, 7, 7, 90
9, 27904, Control_c, 7, 7, 90
9, 27905, Control_c, 7, 7, 89
9, 27906, Control_c, 7, 7, 89
9, 27906, Control_c, 7, 7, 89
9, 27908, Control_c, 7, 7, 88
9, 27908, Control_c, 7, 7, 88
9, 27908, Control_c, 7, 7, 88
9, 27910, Control_c, 7, 7, 87
9, 27910, Control_c, 7, 7, 87
9, 27910, Control_c, 7, 7, 87
9, 27912, Control_c, 7, 7, 86
9, 27912, Control_c, 7, 7, 86
9, 27912, Control_c, 7, 7, 86
9, 27914, Control_c, 7, 7, 85
9, 27915, Control_c, 7, 7, 85
9, 27915, Control_c, 7, 7, 85
9, 27916, Control_c, 7, 7, 84
9, 27917, Control_c, 7, 7, 84
9, 27917, Control_c, 7, 7, 84
9, 27918, Control_c, 7, 7, 83
9, 27919, Control_c, 7, 7, 83
9, 27919, Control_c, 7, 7, 83
9, 27920, Control_c, 7, 7, 82
9, 27921, Control_c, 7, 7, 82
9, 27921, Control_c, 7, 7, 82
9, 27922, Control_c, 7, 7, 81
9, 27923, Control_c, 7, 7, 81
9, 27923, Control_c, 7, 7, 81
9, 27925, Control_c, 7, 7, 80
9, 27925, Control_c, 7, 7, 80
9, 27925, Control_c, 7, 7, 80
9, 27927, Control_c, 7, 7, 79
9, 27927, Control_c, 7, 7, 79
9, 27927, Control_c, 7, 7, 79
9, 27929, Control_c, 7, 7, 78
9, 27930, Control_c, 7, 7, 78
9, 27930, Control_c, 7, 7, 78
9, 27931, Control_c, 7, 7, 77
9, 27932, Control_c, 7, 7, 77
9, 27932, Control_c, 7, 7, 77
9, 27933, Control_c, 7, 7, 76
9, 27934, Control_c, 7, 7, 76
9, 27934, Control_c, 7, 7, 76
9, 27935, Control_c, 7, 7, 75
9, 27936, Control_c, 7, 7, 75
9, 27936, Control_c, 7, 7, 75
9, 27937, Control_c, 7, 7, 74
9, 27938, Control_c, 7, 7, 74
9, 27938, Control_c, 7, 7, 74
9, 27939, Control_c, 7, 7, 73
9, 27940, Control_c, 7, 7, 73
9, 27940, Control_c, 7, 7, 73
9, 27942, Control_c, 7, 7, 72
9, 27942, Control_c, 7, 7, 72
9, 27942, Control_c, 7, 7, 72
9, 27944, Control_c, 7, 7, 71
9, 27945, Control_c, 7, 7, 71
9, 27945, Control_c, 7, 7, 71
9, 27946, Control_c, 7, 7, 70
9, 27947, Control_c, 7, 7, 70
9, 27947, Control_c, 7, 7, 70
9, 27948, Note_on_c, 7, 69, 0
9, 27948, Note_on_c, 7, 73, 0
9, 27948, Control_c, 7, 7, 69
9, 27949, Control_c, 7, 7, 69
9, 27949, Control_c, 7, 7, 69
9, 27950, Control_c, 7, 7, 68
9, 27951, Control_c, 7, 7, 68
9, 27951, Control_c, 7, 7, 68
9, 27952, Control_c, 7, 7, 67
9, 27953, Control_c, 7, 7, 67
9, 27953, Control_c, 7, 7, 67
9, 27954, Control_c, 7, 7, 66
9, 27955, Control_c, 7, 7, 66
9, 27955, Control_c, 7, 7, 66
9, 27956, Control_c, 7, 7, 65
9, 27957, Control_c, 7, 7, 65
9, 27957, Control_c, 7, 7, 65
9, 27959, Control_c, 7, 7, 64
9, 27960, Note_on_c, 7, 73, 98
9, 27960, Control_c, 7, 7, 64
9, 27960, Note_on_c, 7, 69, 98
9, 27960, Control_c, 7, 7, 64
9, 28008, Note_on_c, 7, 69, 0
9, 28008, Note_on_c, 7, 73, 0
9, 28020, Note_on_c, 7, 73, 98
9, 28020, Note_on_c, 7, 69, 98
9, 28068, Note_on_c, 7, 69, 0
9, 28068, Note_on_c, 7, 73, 0
9, 28080, Note_on_c, 7, 73, 98
9, 28080, Note_on_c, 7, 69, 98
9, 28132, Note_on_c, 7, 69, 0
9, 28132, Note_on_c, 7, 73, 0
9, 28140, Note_on_c, 7, 73, 98
9, 28140, Note_on_c, 7, 69, 98
9, 28188, Note_on_c, 7, 69, 0
9, 28188, Note_on_c, 7, 73, 0
9, 28200, Note_on_c, 7, 71, 98
9, 28200, Note_on_c, 7, 68, 98
9, 28248, Note_on_c, 7, 68, 0
9, 28248, Note_on_c, 7, 71, 0
9, 28260, Note_on_c, 7, 71, 98
9, 28260, Note_on_c, 7, 68, 98
9, 28308, Note_on_c, 7, 68, 0
9, 28308, Note_on_c, 7, 71, 0
9, 28320, Note_on_c, 7, 76, 98
9, 28320, Note_on_c, 7, 73, 98
9, 28320, Control_c, 7, 7, 120
9, 28320, Note_on_c, 7, 69, 98
9, 28322, Control_c, 7, 7, 119
9, 28324, Control_c, 7, 7, 118
9, 28326, Control_c, 7, 7, 117
9, 28328, Control_c, 7, 7, 116
9, 28330, Control_c, 7, 7, 115
9, 28332, Control_c, 7, 7, 114
9, 28334, Control_c, 7, 7, 113
9, 28337, Control_c, 7, 7, 112
9, 28339, Control_c, 7, 7, 111
9, 28341, Control_c, 7, 7, 110
9, 28343, Control_c, 7, 7, 109
9, 28345, Control_c, 7, 7, 108
9, 28347, Control_c, 7, 7, 107
9, 28349, Control_c, 7, 7, 106
9, 28351, Control_c, 7, 7, 105
9, 28354, Control_c, 7, 7, 104
9, 28356, Control_c, 7, 7, 103
9, 28358, Control_c, 7, 7, 102
9, 28360, Control_c, 7, 7, 101
9, 28362, Control_c, 7, 7, 100
9, 28364, Control_c, 7, 7, 99
9, 28366, Control_c, 7, 7, 98
9, 28368, Control_c, 7, 7, 97
9, 28371, Control_c, 7, 7, 96
9, 28373, Control_c, 7, 7, 95
9, 28375, Control_c, 7, 7, 94
9, 28377, Control_c, 7, 7, 93
9, 28378, Note_on_c, 7, 69, 0
9, 28378, Note_on_c, 7, 73, 0
9, 28379, Control_c, 7, 7, 92
9, 28380, Note_on_c, 7, 73, 98
9, 28380, Note_on_c, 7, 69, 98
9, 28381, Control_c, 7, 7, 91
9, 28383, Control_c, 7, 7, 90
9, 28385, Control_c, 7, 7, 89
9, 28388, Control_c, 7, 7, 88
9, 28390, Control_c, 7, 7, 87
9, 28392, Control_c, 7, 7, 86
9, 28394, Control_c, 7, 7, 85
9, 28396, Control_c, 7, 7, 84
9, 28398, Control_c, 7, 7, 83
9, 28400, Control_c, 7, 7, 82
9, 28402, Control_c, 7, 7, 81
9, 28405, Control_c, 7, 7, 80
9, 28407, Control_c, 7, 7, 79
9, 28409, Control_c, 7, 7, 78
9, 28411, Control_c, 7, 7, 77
9, 28413, Control_c, 7, 7, 76
9, 28415, Control_c, 7, 7, 75
9, 28417, Control_c, 7, 7, 74
9, 28419, Control_c, 7, 7, 73
9, 28422, Control_c, 7, 7, 72
9, 28424, Control_c, 7, 7, 71
9, 28426, Control_c, 7, 7, 70
9, 28428, Note_on_c, 7, 69, 0
9, 28428, Note_on_c, 7, 73, 0
9, 28428, Control_c, 7, 7, 69
9, 28430, Control_c, 7, 7, 68
9, 28432, Control_c, 7, 7, 67
9, 28434, Control_c, 7, 7, 66
9, 28436, Control_c, 7, 7, 65
9, 28439, Control_c, 7, 7, 64
9, 28440, Note_on_c, 7, 73, 98
9, 28440, Note_on_c, 7, 69, 98
9, 28488, Note_on_c, 7, 69, 0
9, 28488, Note_on_c, 7, 73, 0
9, 28500, Note_on_c, 7, 73, 98
9, 28500, Note_on_c, 7, 69, 98
9, 28548, Note_on_c, 7, 69, 0
9, 28548, Note_on_c, 7, 73, 0
9, 28560, Note_on_c, 7, 73, 98
9, 28560, Note_on_c, 7, 69, 98
9, 28612, Note_on_c, 7, 69, 0
9, 28612, Note_on_c, 7, 73, 0
9, 28620, Note_on_c, 7, 73, 98
9, 28620, Note_on_c, 7, 69, 98
9, 28668, Note_on_c, 7, 69, 0
9, 28668, Note_on_c, 7, 73, 0
9, 28680, Note_on_c, 7, 71, 98
9, 28680, Note_on_c, 7, 68, 98
9, 28704, Note_on_c, 7, 76, 0
9, 28728, Note_on_c, 7, 68, 0
9, 28728, Note_on_c, 7, 71, 0
9, 28740, Note_on_c, 7, 71, 98
9, 28740, Note_on_c, 7, 68, 98
9, 28788, Note_on_c, 7, 68, 0
9, 28788, Note_on_c, 7, 71, 0
9, 28800, Note_on_c, 7, 69, 123
9, 28800, Note_on_c, 7, 75, 123
9, 28800, Control_c, 7, 7, 120
9, 28800, Note_on_c, 7, 66, 123
9, 28802, Control_c, 7, 7, 119
9, 28804, Control_c, 7, 7, 118
9, 28806, Control_c, 7, 7, 117
9, 28808, Control_c, 7, 7, 116
9, 28810, Control_c, 7, 7, 115
9, 28812, Control_c, 7, 7, 114
9, 28814, Control_c, 7, 7, 113
9, 28817, Control_c, 7, 7, 112
9, 28819, Control_c, 7, 7, 111
9, 28821, Control_c, 7, 7, 110
9, 28823, Control_c, 7, 7, 109
9, 28825, Control_c, 7, 7, 108
9, 28827, Control_c, 7, 7, 107
9, 28829, Control_c, 7, 7, 106
9, 28831, Control_c, 7, 7, 105
9, 28834, Control_c, 7, 7, 104
9, 28836, Control_c, 7, 7, 103
9, 28838, Control_c, 7, 7, 102
9, 28840, Control_c, 7, 7, 101
9, 28842, Control_c, 7, 7, 100
9, 28844, Control_c, 7, 7, 99
9, 28846, Control_c, 7, 7, 98
9, 28848, Control_c, 7, 7, 97
9, 28851, Control_c, 7, 7, 96
9, 28853, Control_c, 7, 7, 95
9, 28855, Control_c, 7, 7, 94
9, 28857, Control_c, 7, 7, 93
9, 28858, Note_on_c, 7, 66, 0
9, 28858, Note_on_c, 7, 69, 0
9, 28859, Control_c, 7, 7, 92
9, 28860, Note_on_c, 7, 69, 116
9, 28860, Note_on_c, 7, 66, 116
9, 28861, Control_c, 7, 7, 91
9, 28863, Control_c, 7, 7, 90
9, 28865, Control_c, 7, 7, 89
9, 28868, Control_c, 7, 7, 88
9, 28870, Control_c, 7, 7, 87
9, 28872, Control_c, 7, 7, 86
9, 28874, Control_c, 7, 7, 85
9, 28876, Control_c, 7, 7, 84
9, 28878, Control_c, 7, 7, 83
9, 28880, Control_c, 7, 7, 82
9, 28882, Control_c, 7, 7, 81
9, 28885, Control_c, 7, 7, 80
9, 28887, Control_c, 7, 7, 79
9, 28889, Control_c, 7, 7, 78
9, 28891, Control_c, 7, 7, 77
9, 28893, Control_c, 7, 7, 76
9, 28895, Control_c, 7, 7, 75
9, 28897, Control_c, 7, 7, 74
9, 28899, Control_c, 7, 7, 73
9, 28902, Control_c, 7, 7, 72
9, 28904, Control_c, 7, 7, 71
9, 28906, Control_c, 7, 7, 70
9, 28908, Note_on_c, 7, 66, 0
9, 28908, Note_on_c, 7, 69, 0
9, 28908, Control_c, 7, 7, 69
9, 28910, Control_c, 7, 7, 68
9, 28912, Control_c, 7, 7, 67
9, 28914, Control_c, 7, 7, 66
9, 28916, Control_c, 7, 7, 65
9, 28919, Control_c, 7, 7, 64
9, 28920, Note_on_c, 7, 69, 111
9, 28920, Note_on_c, 7, 66, 111
9, 28968, Note_on_c, 7, 66, 0
9, 28968, Note_on_c, 7, 69, 0
9, 28980, Note_on_c, 7, 69, 102
9, 28980, Note_on_c, 7, 66, 102
9, 29028, Note_on_c, 7, 66, 0
9, 29028, Note_on_c, 7, 69, 0
9, 29040, Note_on_c, 7, 69, 98
9, 29040, Note_on_c, 7, 66, 98
9, 29092, Note_on_c, 7, 66, 0
9, 29092, Note_on_c, 7, 69, 0
9, 29100, Note_on_c, 7, 69, 98
9, 29100, Note_on_c, 7, 66, 98
9, 29148, Note_on_c, 7, 66, 0
9, 29148, Note_on_c, 7, 69, 0
9, 29160, Note_on_c, 7, 75, 0
9, 29160, Note_on_c, 7, 68, 98
9, 29160, Note_on_c, 7, 76, 98
9, 29160, Note_on_c, 7, 64, 98
9, 29208, Note_on_c, 7, 64, 0
9, 29208, Note_on_c, 7, 68, 0
9, 29220, Note_on_c, 7, 68, 98
9, 29220, Note_on_c, 7, 64, 98
9, 29256, Note_on_c, 7, 76, 0
9, 29268, Note_on_c, 7, 64, 0
9, 29268, Note_on_c, 7, 68, 0
9, 29280, Note_on_c, 7, 75, 121
9, 29280, Note_on_c, 7, 69, 121
9, 29280, Control_c, 7, 7, 120
9, 29280, Note_on_c, 7, 66, 121
9, 29282, Control_c, 7, 7, 119
9, 29284, Control_c, 7, 7, 118
9, 29286, Control_c, 7, 7, 117
9, 29288, Control_c, 7, 7, 116
9, 29290, Control_c, 7, 7, 115
9, 29292, Control_c, 7, 7, 114
9, 29294, Control_c, 7, 7, 113
9, 29297, Control_c, 7, 7, 112
9, 29299, Control_c, 7, 7, 111
9, 29301, Control_c, 7, 7, 110
9, 29303, Control_c, 7, 7, 109
9, 29305, Control_c, 7, 7, 108
9, 29307, Control_c, 7, 7, 107
9, 29309, Control_c, 7, 7, 106
9, 29311, Control_c, 7, 7, 105
9, 29314, Control_c, 7, 7, 104
9, 29316, Control_c, 7, 7, 103
9, 29318, Control_c, 7, 7, 102
9, 29320, Control_c, 7, 7, 101
9, 29322, Control_c, 7, 7, 100
9, 29324, Control_c, 7, 7, 99
9, 29326, Control_c, 7, 7, 98
9, 29328, Control_c, 7, 7, 97
9, 29331, Control_c, 7, 7, 96
9, 29333, Control_c, 7, 7, 95
9, 29335, Control_c, 7, 7, 94
9, 29337, Control_c, 7, 7, 93
9, 29338, Note_on_c, 7, 66, 0
9, 29338, Note_on_c, 7, 69, 0
9, 29339, Control_c, 7, 7, 92
9, 29340, Note_on_c, 7, 69, 112
9, 29340, Note_on_c, 7, 66, 112
9, 29341, Control_c, 7, 7, 91
9, 29343, Control_c, 7, 7, 90
9, 29345, Control_c, 7, 7, 89
9, 29348, Control_c, 7, 7, 88
9, 29350, Control_c, 7, 7, 87
9, 29352, Control_c, 7, 7, 86
9, 29354, Control_c, 7, 7, 85
9, 29356, Control_c, 7, 7, 84
9, 29358, Control_c, 7, 7, 83
9, 29360, Control_c, 7, 7, 82
9, 29362, Control_c, 7, 7, 81
9, 29365, Control_c, 7, 7, 80
9, 29367, Control_c, 7, 7, 79
9, 29369, Control_c, 7, 7, 78
9, 29371, Control_c, 7, 7, 77
9, 29373, Control_c, 7, 7, 76
9, 29375, Control_c, 7, 7, 75
9, 29377, Control_c, 7, 7, 74
9, 29379, Control_c, 7, 7, 73
9, 29382, Control_c, 7, 7, 72
9, 29384, Control_c, 7, 7, 71
9, 29386, Control_c, 7, 7, 70
9, 29388, Note_on_c, 7, 66, 0
9, 29388, Note_on_c, 7, 69, 0
9, 29388, Control_c, 7, 7, 69
9, 29390, Control_c, 7, 7, 68
9, 29392, Control_c, 7, 7, 67
9, 29394, Control_c, 7, 7, 66
9, 29396, Control_c, 7, 7, 65
9, 29399, Control_c, 7, 7, 64
9, 29400, Note_on_c, 7, 69, 106
9, 29400, Note_on_c, 7, 66, 106
9, 29448, Note_on_c, 7, 66, 0
9, 29448, Note_on_c, 7, 69, 0
9, 29460, Note_on_c, 7, 69, 98
9, 29460, Note_on_c, 7, 66, 98
9, 29508, Note_on_c, 7, 66, 0
9, 29508, Note_on_c, 7, 69, 0
9, 29520, Note_on_c, 7, 69, 98
9, 29520, Note_on_c, 7, 66, 98
9, 29572, Note_on_c, 7, 66, 0
9, 29572, Note_on_c, 7, 69, 0
9, 29580, Note_on_c, 7, 69, 98
9, 29580, Note_on_c, 7, 66, 98
9, 29628, Note_on_c, 7, 66, 0
9, 29628, Note_on_c, 7, 69, 0
9, 29640, Note_on_c, 7, 75, 0
9, 29640, Note_on_c, 7, 76, 98
9, 29640, Note_on_c, 7, 68, 98
9, 29640, Note_on_c, 7, 64, 98
9, 29688, Note_on_c, 7, 64, 0
9, 29688, Note_on_c, 7, 68, 0
9, 29700, Note_on_c, 7, 68, 98
9, 29700, Note_on_c, 7, 64, 98
9, 29736, Note_on_c, 7, 76, 0
9, 29748, Note_on_c, 7, 64, 0
9, 29748, Note_on_c, 7, 68, 0
9, 29760, Control_c, 7, 7, 96
9, 29760, Note_on_c, 7, 78, 122
9, 29760, Note_on_c, 7, 66, 122
9, 29760, Control_c, 7, 7, 120
9, 29760, Control_c, 7, 7, 96
9, 29760, Note_on_c, 7, 62, 122
9, 29760, Control_c, 7, 7, 96
9, 29762, Control_c, 7, 7, 119
9, 29764, Control_c, 7, 7, 118
9, 29766, Control_c, 7, 7, 117
9, 29768, Control_c, 7, 7, 116
9, 29770, Control_c, 7, 7, 115
9, 29772, Note_on_c, 7, 78, 0
9, 29772, Control_c, 7, 7, 114
9, 29774, Control_c, 7, 7, 95
9, 29774, Control_c, 7, 7, 113
9, 29774, Control_c, 7, 7, 95
9, 29774, Control_c, 7, 7, 95
9, 29775, Note_on_c, 7, 79, 127
9, 29777, Control_c, 7, 7, 112
9, 29779, Control_c, 7, 7, 111
9, 29781, Control_c, 7, 7, 110
9, 29783, Control_c, 7, 7, 109
9, 29785, Control_c, 7, 7, 108
9, 29787, Note_on_c, 7, 79, 0
9, 29787, Control_c, 7, 7, 107
9, 29789, Control_c, 7, 7, 94
9, 29789, Control_c, 7, 7, 106
9, 29789, Control_c, 7, 7, 94
9, 29789, Control_c, 7, 7, 94
9, 29790, Note_on_c, 7, 81, 127
9, 29791, Control_c, 7, 7, 105
9, 29794, Control_c, 7, 7, 104
9, 29796, Control_c, 7, 7, 103
9, 29798, Control_c, 7, 7, 102
9, 29800, Control_c, 7, 7, 101
9, 29802, Control_c, 7, 7, 100
9, 29804, Control_c, 7, 7, 93
9, 29804, Control_c, 7, 7, 99
9, 29804, Control_c, 7, 7, 93
9, 29804, Control_c, 7, 7, 93
9, 29806, Control_c, 7, 7, 98
9, 29808, Control_c, 7, 7, 97
9, 29811, Control_c, 7, 7, 96
9, 29813, Control_c, 7, 7, 95
9, 29815, Control_c, 7, 7, 94
9, 29817, Control_c, 7, 7, 93
9, 29818, Note_on_c, 7, 62, 0
9, 29818, Note_on_c, 7, 66, 0
9, 29819, Control_c, 7, 7, 92
9, 29819, Control_c, 7, 7, 92
9, 29819, Control_c, 7, 7, 92
9, 29819, Control_c, 7, 7, 92
9, 29820, Note_on_c, 7, 66, 127
9, 29820, Note_on_c, 7, 62, 127
9, 29821, Control_c, 7, 7, 91
9, 29823, Control_c, 7, 7, 90
9, 29825, Control_c, 7, 7, 89
9, 29828, Control_c, 7, 7, 88
9, 29830, Control_c, 7, 7, 87
9, 29832, Control_c, 7, 7, 86
9, 29834, Control_c, 7, 7, 91
9, 29834, Control_c, 7, 7, 85
9, 29834, Control_c, 7, 7, 91
9, 29834, Control_c, 7, 7, 91
9, 29836, Control_c, 7, 7, 84
9, 29838, Control_c, 7, 7, 83
9, 29840, Control_c, 7, 7, 82
9, 29842, Control_c, 7, 7, 81
9, 29845, Control_c, 7, 7, 80
9, 29847, Control_c, 7, 7, 79
9, 29849, Control_c, 7, 7, 90
9, 29849, Control_c, 7, 7, 78
9, 29849, Control_c, 7, 7, 90
9, 29849, Control_c, 7, 7, 90
9, 29851, Control_c, 7, 7, 77
9, 29853, Control_c, 7, 7, 76
9, 29855, Control_c, 7, 7, 75
9, 29857, Control_c, 7, 7, 74
9, 29859, Control_c, 7, 7, 73
9, 29862, Note_on_c, 7, 81, 0
9, 29862, Control_c, 7, 7, 72
9, 29864, Control_c, 7, 7, 89
9, 29864, Control_c, 7, 7, 71
9, 29864, Control_c, 7, 7, 89
9, 29864, Control_c, 7, 7, 89
9, 29866, Control_c, 7, 7, 70
9, 29868, Note_on_c, 7, 62, 0
9, 29868, Note_on_c, 7, 66, 0
9, 29868, Control_c, 7, 7, 69
9, 29870, Control_c, 7, 7, 68
9, 29872, Control_c, 7, 7, 67
9, 29874, Control_c, 7, 7, 66
9, 29876, Control_c, 7, 7, 65
9, 29879, Control_c, 7, 7, 88
9, 29879, Control_c, 7, 7, 64
9, 29879, Control_c, 7, 7, 88
9, 29879, Control_c, 7, 7, 88
9, 29880, Note_on_c, 7, 81, 121
9, 29880, Note_on_c, 7, 66, 121
9, 29880, Note_on_c, 7, 62, 121
9, 29894, Control_c, 7, 7, 87
9, 29894, Control_c, 7, 7, 87
9, 29894, Control_c, 7, 7, 87
9, 29909, Control_c, 7, 7, 86
9, 29909, Control_c, 7, 7, 86
9, 29909, Control_c, 7, 7, 86
9, 29924, Control_c, 7, 7, 85
9, 29924, Control_c, 7, 7, 85
9, 29924, Control_c, 7, 7, 85
9, 29928, Note_on_c, 7, 62, 0
9, 29928, Note_on_c, 7, 66, 0
9, 29928, Note_on_c, 7, 81, 0
9, 29939, Control_c, 7, 7, 84
9, 29939, Control_c, 7, 7, 84
9, 29939, Control_c, 7, 7, 84
9, 29940, Note_on_c, 7, 81, 99
9, 29940, Note_on_c, 7, 66, 99
9, 29940, Note_on_c, 7, 62, 99
9, 29954, Control_c, 7, 7, 83
9, 29954, Control_c, 7, 7, 83
9, 29954, Control_c, 7, 7, 83
9, 29969, Control_c, 7, 7, 82
9, 29969, Control_c, 7, 7, 82
9, 29969, Control_c, 7, 7, 82
9, 29984, Control_c, 7, 7, 81
9, 29984, Control_c, 7, 7, 81
9, 29984, Control_c, 7, 7, 81
9, 29988, Note_on_c, 7, 62, 0
9, 29988, Note_on_c, 7, 66, 0
9, 29988, Note_on_c, 7, 81, 0
9, 29999, Control_c, 7, 7, 80
9, 29999, Control_c, 7, 7, 80
9, 29999, Control_c, 7, 7, 80
9, 30000, Note_on_c, 7, 81, 98
9, 30000, Note_on_c, 7, 66, 98
9, 30000, Note_on_c, 7, 62, 98
9, 30014, Control_c, 7, 7, 79
9, 30014, Control_c, 7, 7, 79
9, 30014, Control_c, 7, 7, 79
9, 30029, Control_c, 7, 7, 78
9, 30029, Control_c, 7, 7, 78
9, 30029, Control_c, 7, 7, 78
9, 30044, Control_c, 7, 7, 77
9, 30044, Control_c, 7, 7, 77
9, 30044, Control_c, 7, 7, 77
9, 30052, Note_on_c, 7, 62, 0
9, 30052, Note_on_c, 7, 66, 0
9, 30059, Control_c, 7, 7, 76
9, 30059, Control_c, 7, 7, 76
9, 30059, Control_c, 7, 7, 76
9, 30060, Note_on_c, 7, 66, 98
9, 30060, Note_on_c, 7, 62, 98
9, 30074, Control_c, 7, 7, 75
9, 30074, Control_c, 7, 7, 75
9, 30074, Control_c, 7, 7, 75
9, 30089, Control_c, 7, 7, 74
9, 30089, Control_c, 7, 7, 74
9, 30089, Control_c, 7, 7, 74
9, 30096, Note_on_c, 7, 81, 0
9, 30104, Control_c, 7, 7, 73
9, 30104, Control_c, 7, 7, 73
9, 30104, Control_c, 7, 7, 73
9, 30108, Note_on_c, 7, 62, 0
9, 30108, Note_on_c, 7, 66, 0
9, 30119, Control_c, 7, 7, 72
9, 30119, Control_c, 7, 7, 72
9, 30119, Control_c, 7, 7, 72
9, 30120, Note_on_c, 7, 64, 98
9, 30120, Note_on_c, 7, 61, 98
9, 30134, Control_c, 7, 7, 71
9, 30134, Control_c, 7, 7, 71
9, 30134, Control_c, 7, 7, 71
9, 30149, Control_c, 7, 7, 70
9, 30149, Control_c, 7, 7, 70
9, 30149, Control_c, 7, 7, 70
9, 30164, Control_c, 7, 7, 69
9, 30164, Control_c, 7, 7, 69
9, 30164, Control_c, 7, 7, 69
9, 30168, Note_on_c, 7, 61, 0
9, 30168, Note_on_c, 7, 64, 0
9, 30179, Control_c, 7, 7, 68
9, 30179, Control_c, 7, 7, 68
9, 30179, Control_c, 7, 7, 68
9, 30180, Note_on_c, 7, 64, 98
9, 30180, Note_on_c, 7, 61, 98
9, 30194, Control_c, 7, 7, 67
9, 30194, Control_c, 7, 7, 67
9, 30194, Control_c, 7, 7, 67
9, 30209, Control_c, 7, 7, 66
9, 30209, Control_c, 7, 7, 66
9, 30209, Control_c, 7, 7, 66
9, 30224, Control_c, 7, 7, 65
9, 30224, Control_c, 7, 7, 65
9, 30224, Control_c, 7, 7, 65
9, 30228, Note_on_c, 7, 61, 0
9, 30228, Note_on_c, 7, 64, 0
9, 30239, Control_c, 7, 7, 64
9, 30239, Control_c, 7, 7, 64
9, 30239, Control_c, 7, 7, 64
9, 30240, Control_c, 7, 7, 96
9, 30240, Note_on_c, 7, 78, 127
9, 30240, Note_on_c, 7, 66, 127
9, 30240, Control_c, 7, 7, 120
9, 30240, Control_c, 7, 7, 96
9, 30240, Note_on_c, 7, 62, 127
9, 30240, Control_c, 7, 7, 96
9, 30242, Control_c, 7, 7, 119
9, 30244, Control_c, 7, 7, 118
9, 30246, Control_c, 7, 7, 117
9, 30248, Control_c, 7, 7, 116
9, 30250, Control_c, 7, 7, 115
9, 30252, Note_on_c, 7, 78, 0
9, 30252, Control_c, 7, 7, 114
9, 30254, Control_c, 7, 7, 95
9, 30254, Control_c, 7, 7, 113
9, 30254, Control_c, 7, 7, 95
9, 30254, Control_c, 7, 7, 95
9, 30255, Note_on_c, 7, 79, 127
9, 30257, Control_c, 7, 7, 112
9, 30259, Control_c, 7, 7, 111
9, 30261, Control_c, 7, 7, 110
9, 30263, Control_c, 7, 7, 109
9, 30265, Control_c, 7, 7, 108
9, 30267, Note_on_c, 7, 79, 0
9, 30267, Control_c, 7, 7, 107
9, 30269, Control_c, 7, 7, 94
9, 30269, Control_c, 7, 7, 106
9, 30269, Control_c, 7, 7, 94
9, 30269, Control_c, 7, 7, 94
9, 30270, Note_on_c, 7, 81, 127
9, 30271, Control_c, 7, 7, 105
9, 30274, Control_c, 7, 7, 104
9, 30276, Control_c, 7, 7, 103
9, 30278, Control_c, 7, 7, 102
9, 30280, Control_c, 7, 7, 101
9, 30282, Control_c, 7, 7, 100
9, 30284, Control_c, 7, 7, 93
9, 30284, Control_c, 7, 7, 99
9, 30284, Control_c, 7, 7, 93
9, 30284, Control_c, 7, 7, 93
9, 30286, Control_c, 7, 7, 98
9, 30288, Control_c, 7, 7, 97
9, 30291, Control_c, 7, 7, 96
9, 30293, Control_c, 7, 7, 95
9, 30295, Control_c, 7, 7, 94
9, 30297, Control_c, 7, 7, 93
9, 30298, Note_on_c, 7, 62, 0
9, 30298, Note_on_c, 7, 66, 0
9, 30299, Control_c, 7, 7, 92
9, 30299, Control_c, 7, 7, 92
9, 30299, Control_c, 7, 7, 92
9, 30299, Control_c, 7, 7, 92
9, 30300, Note_on_c, 7, 66, 124
9, 30300, Note_on_c, 7, 62, 124
9, 30301, Control_c, 7, 7, 91
9, 30303, Control_c, 7, 7, 90
9, 30305, Control_c, 7, 7, 89
9, 30308, Control_c, 7, 7, 88
9, 30310, Control_c, 7, 7, 87
9, 30312, Control_c, 7, 7, 86
9, 30314, Control_c, 7, 7, 91
9, 30314, Control_c, 7, 7, 85
9, 30314, Control_c, 7, 7, 91
9, 30314, Control_c, 7, 7, 91
9, 30316, Control_c, 7, 7, 84
9, 30318, Control_c, 7, 7, 83
9, 30320, Control_c, 7, 7, 82
9, 30322, Control_c, 7, 7, 81
9, 30325, Control_c, 7, 7, 80
9, 30327, Control_c, 7, 7, 79
9, 30329, Control_c, 7, 7, 90
9, 30329, Control_c, 7, 7, 78
9, 30329, Control_c, 7, 7, 90
9, 30329, Control_c, 7, 7, 90
9, 30331, Control_c, 7, 7, 77
9, 30333, Control_c, 7, 7, 76
9, 30335, Control_c, 7, 7, 75
9, 30337, Control_c, 7, 7, 74
9, 30339, Control_c, 7, 7, 73
9, 30342, Note_on_c, 7, 81, 0
9, 30342, Control_c, 7, 7, 72
9, 30344, Control_c, 7, 7, 89
9, 30344, Control_c, 7, 7, 71
9, 30344, Control_c, 7, 7, 89
9, 30344, Control_c, 7, 7, 89
9, 30346, Control_c, 7, 7, 70
9, 30348, Note_on_c, 7, 62, 0
9, 30348, Note_on_c, 7, 66, 0
9, 30348, Control_c, 7, 7, 69
9, 30350, Control_c, 7, 7, 68
9, 30352, Control_c, 7, 7, 67
9, 30354, Control_c, 7, 7, 66
9, 30356, Control_c, 7, 7, 65
9, 30359, Control_c, 7, 7, 88
9, 30359, Control_c, 7, 7, 64
9, 30359, Control_c, 7, 7, 88
9, 30359, Control_c, 7, 7, 88
9, 30360, Note_on_c, 7, 81, 113
9, 30360, Note_on_c, 7, 66, 113
9, 30360, Note_on_c, 7, 62, 113
9, 30374, Control_c, 7, 7, 87
9, 30374, Control_c, 7, 7, 87
9, 30374, Control_c, 7, 7, 87
9, 30389, Control_c, 7, 7, 86
9, 30389, Control_c, 7, 7, 86
9, 30389, Control_c, 7, 7, 86
9, 30404, Control_c, 7, 7, 85
9, 30404, Control_c, 7, 7, 85
9, 30404, Control_c, 7, 7, 85
9, 30408, Note_on_c, 7, 62, 0
9, 30408, Note_on_c, 7, 66, 0
9, 30408, Note_on_c, 7, 81, 0
9, 30419, Control_c, 7, 7, 84
9, 30419, Control_c, 7, 7, 84
9, 30419, Control_c, 7, 7, 84
9, 30420, Note_on_c, 7, 81, 102
9, 30420, Note_on_c, 7, 66, 102
9, 30420, Note_on_c, 7, 62, 102
9, 30434, Control_c, 7, 7, 83
9, 30434, Control_c, 7, 7, 83
9, 30434, Control_c, 7, 7, 83
9, 30449, Control_c, 7, 7, 82
9, 30449, Control_c, 7, 7, 82
9, 30449, Control_c, 7, 7, 82
9, 30464, Control_c, 7, 7, 81
9, 30464, Control_c, 7, 7, 81
9, 30464, Control_c, 7, 7, 81
9, 30468, Note_on_c, 7, 62, 0
9, 30468, Note_on_c, 7, 66, 0
9, 30468, Note_on_c, 7, 81, 0
9, 30479, Control_c, 7, 7, 80
9, 30479, Control_c, 7, 7, 80
9, 30479, Control_c, 7, 7, 80
9, 30480, Note_on_c, 7, 81, 98
9, 30480, Note_on_c, 7, 66, 98
9, 30480, Note_on_c, 7, 62, 98
9, 30494, Control_c, 7, 7, 79
9, 30494, Control_c, 7, 7, 79
9, 30494, Control_c, 7, 7, 79
9, 30509, Control_c, 7, 7, 78
9, 30509, Control_c, 7, 7, 78
9, 30509, Control_c, 7, 7, 78
9, 30524, Control_c, 7, 7, 77
9, 30524, Control_c, 7, 7, 77
9, 30524, Control_c, 7, 7, 77
9, 30532, Note_on_c, 7, 62, 0
9, 30532, Note_on_c, 7, 66, 0
9, 30539, Control_c, 7, 7, 76
9, 30539, Control_c, 7, 7, 76
9, 30539, Control_c, 7, 7, 76
9, 30540, Note_on_c, 7, 66, 98
9, 30540, Note_on_c, 7, 62, 98
9, 30554, Control_c, 7, 7, 75
9, 30554, Control_c, 7, 7, 75
9, 30554, Control_c, 7, 7, 75
9, 30569, Control_c, 7, 7, 74
9, 30569, Control_c, 7, 7, 74
9, 30569, Control_c, 7, 7, 74
9, 30576, Note_on_c, 7, 81, 0
9, 30584, Control_c, 7, 7, 73
9, 30584, Control_c, 7, 7, 73
9, 30584, Control_c, 7, 7, 73
9, 30588, Note_on_c, 7, 62, 0
9, 30588, Note_on_c, 7, 66, 0
9, 30599, Control_c, 7, 7, 72
9, 30599, Control_c, 7, 7, 72
9, 30599, Control_c, 7, 7, 72
9, 30600, Note_on_c, 7, 64, 98
9, 30600, Note_on_c, 7, 61, 98
9, 30614, Control_c, 7, 7, 71
9, 30614, Control_c, 7, 7, 71
9, 30614, Control_c, 7, 7, 71
9, 30629, Control_c, 7, 7, 70
9, 30629, Control_c, 7, 7, 70
9, 30629, Control_c, 7, 7, 70
9, 30644, Control_c, 7, 7, 69
9, 30644, Control_c, 7, 7, 69
9, 30644, Control_c, 7, 7, 69
9, 30648, Note_on_c, 7, 61, 0
9, 30648, Note_on_c, 7, 64, 0
9, 30659, Control_c, 7, 7, 68
9, 30659, Control_c, 7, 7, 68
9, 30659, Control_c, 7, 7, 68
9, 30660, Note_on_c, 7, 64, 98
9, 30660, Note_on_c, 7, 61, 98
9, 30674, Control_c, 7, 7, 67
9, 30674, Control_c, 7, 7, 67
9, 30674, Control_c, 7, 7, 67
9, 30689, Control_c, 7, 7, 66
9, 30689, Control_c, 7, 7, 66
9, 30689, Control_c, 7, 7, 66
9, 30704, Control_c, 7, 7, 65
9, 30704, Control_c, 7, 7, 65
9, 30704, Control_c, 7, 7, 65
9, 30708, Note_on_c, 7, 61, 0
9, 30708, Note_on_c, 7, 64, 0
9, 30719, Control_c, 7, 7, 64
9, 30719, Control_c, 7, 7, 64
9, 30719, Control_c, 7, 7, 64
9, 30720, Note_on_c, 7, 62, 99
9, 30720, Note_on_c, 7, 69, 99
9, 30720, Note_on_c, 7, 59, 99
9, 30720, Control_c, 7, 7, 66
9, 30740, Control_c, 7, 7, 67
9, 30750, Control_c, 7, 7, 68
9, 30770, Control_c, 7, 7, 69
9, 30780, Control_c, 7, 7, 70
9, 30790, Control_c, 7, 7, 71
9, 30800, Control_c, 7, 7, 72
9, 30820, Control_c, 7, 7, 73
9, 30850, Control_c, 7, 7, 75
9, 30870, Control_c, 7, 7, 76
9, 30880, Control_c, 7, 7, 77
9, 30900, Control_c, 7, 7, 78
9, 30910, Control_c, 7, 7, 79
9, 30920, Control_c, 7, 7, 80
9, 30940, Control_c, 7, 7, 81
9, 31010, Control_c, 7, 7, 83
9, 31030, Control_c, 7, 7, 84
9, 31050, Control_c, 7, 7, 85
9, 31060, Control_c, 7, 7, 86
9, 31080, Control_c, 7, 7, 87
9, 31160, Control_c, 7, 7, 89
9, 31190, Control_c, 7, 7, 90
9, 31200, Note_on_c, 7, 69, 0
9, 31200, Note_on_c, 7, 68, 99
9, 31200, Note_on_c, 7, 52, 99
9, 31200, Control_c, 7, 7, 91
9, 31210, Control_c, 7, 7, 65
9, 31230, Control_c, 7, 7, 67
9, 31240, Control_c, 7, 7, 68
9, 31250, Control_c, 7, 7, 69
9, 31280, Control_c, 7, 7, 70
9, 31290, Control_c, 7, 7, 72
9, 31310, Control_c, 7, 7, 73
9, 31320, Control_c, 7, 7, 74
9, 31350, Control_c, 7, 7, 76
9, 31370, Control_c, 7, 7, 77
9, 31390, Control_c, 7, 7, 78
9, 31400, Control_c, 7, 7, 80
9, 31460, Control_c, 7, 7, 81
9, 31520, Control_c, 7, 7, 82
9, 31540, Control_c, 7, 7, 84
9, 31580, Control_c, 7, 7, 86
9, 31600, Control_c, 7, 7, 87
9, 31610, Control_c, 7, 7, 88
9, 31630, Control_c, 7, 7, 90
9, 31650, Control_c, 7, 7, 91
9, 31680, Note_on_c, 7, 52, 0
9, 31680, Note_on_c, 7, 62, 0
9, 31680, Note_on_c, 7, 59, 0
9, 31680, Note_on_c, 7, 68, 0
9, 31680, Note_on_c, 7, 69, 98
9, 31680, Note_on_c, 7, 73, 98
9, 31680, Control_c, 7, 7, 120
9, 31680, Note_on_c, 7, 69, 98
9, 31680, Control_c, 7, 7, 120
9, 31680, Note_on_c, 7, 45, 98
9, 31680, Control_c, 7, 7, 120
9, 31682, Control_c, 7, 7, 119
9, 31682, Control_c, 7, 7, 119
9, 31682, Control_c, 7, 7, 119
9, 31684, Control_c, 7, 7, 118
9, 31684, Control_c, 7, 7, 118
9, 31684, Control_c, 7, 7, 118
9, 31686, Control_c, 7, 7, 117
9, 31686, Control_c, 7, 7, 117
9, 31686, Control_c, 7, 7, 117
9, 31688, Control_c, 7, 7, 116
9, 31688, Control_c, 7, 7, 116
9, 31688, Control_c, 7, 7, 116
9, 31690, Control_c, 7, 7, 115
9, 31690, Control_c, 7, 7, 115
9, 31690, Control_c, 7, 7, 115
9, 31692, Control_c, 7, 7, 114
9, 31692, Control_c, 7, 7, 114
9, 31692, Control_c, 7, 7, 114
9, 31694, Control_c, 7, 7, 113
9, 31695, Control_c, 7, 7, 113
9, 31695, Control_c, 7, 7, 113
9, 31697, Control_c, 7, 7, 112
9, 31697, Control_c, 7, 7, 112
9, 31697, Control_c, 7, 7, 112
9, 31699, Control_c, 7, 7, 111
9, 31699, Control_c, 7, 7, 111
9, 31699, Control_c, 7, 7, 111
9, 31701, Control_c, 7, 7, 110
9, 31701, Control_c, 7, 7, 110
9, 31701, Control_c, 7, 7, 110
9, 31703, Control_c, 7, 7, 109
9, 31703, Control_c, 7, 7, 109
9, 31703, Control_c, 7, 7, 109
9, 31705, Control_c, 7, 7, 108
9, 31705, Control_c, 7, 7, 108
9, 31705, Control_c, 7, 7, 108
9, 31707, Control_c, 7, 7, 107
9, 31707, Control_c, 7, 7, 107
9, 31707, Control_c, 7, 7, 107
9, 31709, Control_c, 7, 7, 106
9, 31710, Control_c, 7, 7, 106
9, 31710, Control_c, 7, 7, 106
9, 31711, Control_c, 7, 7, 105
9, 31712, Control_c, 7, 7, 105
9, 31712, Control_c, 7, 7, 105
9, 31714, Control_c, 7, 7, 104
9, 31714, Control_c, 7, 7, 104
9, 31714, Control_c, 7, 7, 104
9, 31716, Control_c, 7, 7, 103
9, 31716, Control_c, 7, 7, 103
9, 31716, Control_c, 7, 7, 103
9, 31718, Control_c, 7, 7, 102
9, 31718, Control_c, 7, 7, 102
9, 31718, Control_c, 7, 7, 102
9, 31720, Control_c, 7, 7, 101
9, 31720, Control_c, 7, 7, 101
9, 31720, Control_c, 7, 7, 101
9, 31722, Control_c, 7, 7, 100
9, 31722, Control_c, 7, 7, 100
9, 31722, Control_c, 7, 7, 100
9, 31724, Control_c, 7, 7, 99
9, 31725, Control_c, 7, 7, 99
9, 31725, Control_c, 7, 7, 99
9, 31726, Control_c, 7, 7, 98
9, 31727, Control_c, 7, 7, 98
9, 31727, Control_c, 7, 7, 98
9, 31728, Control_c, 7, 7, 97
9, 31729, Control_c, 7, 7, 97
9, 31729, Control_c, 7, 7, 97
9, 31731, Control_c, 7, 7, 96
9, 31731, Control_c, 7, 7, 96
9, 31731, Control_c, 7, 7, 96
9, 31733, Control_c, 7, 7, 95
9, 31733, Control_c, 7, 7, 95
9, 31733, Control_c, 7, 7, 95
9, 31735, Control_c, 7, 7, 94
9, 31735, Control_c, 7, 7, 94
9, 31735, Control_c, 7, 7, 94
9, 31737, Control_c, 7, 7, 93
9, 31737, Control_c, 7, 7, 93
9, 31737, Control_c, 7, 7, 93
9, 31738, Note_on_c, 7, 69, 0
9, 31738, Note_on_c, 7, 73, 0
9, 31739, Control_c, 7, 7, 92
9, 31740, Note_on_c, 7, 73, 98
9, 31740, Note_on_c, 7, 69, 98
9, 31740, Control_c, 7, 7, 92
9, 31740, Control_c, 7, 7, 92
9, 31741, Control_c, 7, 7, 91
9, 31742, Control_c, 7, 7, 91
9, 31742, Control_c, 7, 7, 91
9, 31743, Control_c, 7, 7, 90
9, 31744, Control_c, 7, 7, 90
9, 31744, Control_c, 7, 7, 90
9, 31745, Control_c, 7, 7, 89
9, 31746, Control_c, 7, 7, 89
9, 31746, Control_c, 7, 7, 89
9, 31748, Control_c, 7, 7, 88
9, 31748, Control_c, 7, 7, 88
9, 31748, Control_c, 7, 7, 88
9, 31750, Control_c, 7, 7, 87
9, 31750, Control_c, 7, 7, 87
9, 31750, Control_c, 7, 7, 87
9, 31752, Control_c, 7, 7, 86
9, 31752, Control_c, 7, 7, 86
9, 31752, Control_c, 7, 7, 86
9, 31754, Control_c, 7, 7, 85
9, 31755, Control_c, 7, 7, 85
9, 31755, Control_c, 7, 7, 85
9, 31756, Control_c, 7, 7, 84
9, 31757, Control_c, 7, 7, 84
9, 31757, Control_c, 7, 7, 84
9, 31758, Control_c, 7, 7, 83
9, 31759, Control_c, 7, 7, 83
9, 31759, Control_c, 7, 7, 83
9, 31760, Control_c, 7, 7, 82
9, 31761, Control_c, 7, 7, 82
9, 31761, Control_c, 7, 7, 82
9, 31762, Control_c, 7, 7, 81
9, 31763, Control_c, 7, 7, 81
9, 31763, Control_c, 7, 7, 81
9, 31765, Control_c, 7, 7, 80
9, 31765, Control_c, 7, 7, 80
9, 31765, Control_c, 7, 7, 80
9, 31767, Control_c, 7, 7, 79
9, 31767, Control_c, 7, 7, 79
9, 31767, Control_c, 7, 7, 79
9, 31769, Control_c, 7, 7, 78
9, 31770, Control_c, 7, 7, 78
9, 31770, Control_c, 7, 7, 78
9, 31771, Control_c, 7, 7, 77
9, 31772, Control_c, 7, 7, 77
9, 31772, Control_c, 7, 7, 77
9, 31773, Control_c, 7, 7, 76
9, 31774, Control_c, 7, 7, 76
9, 31774, Control_c, 7, 7, 76
9, 31775, Control_c, 7, 7, 75
9, 31776, Note_on_c, 7, 69, 0
9, 31776, Control_c, 7, 7, 75
9, 31776, Control_c, 7, 7, 75
9, 31777, Control_c, 7, 7, 74
9, 31778, Control_c, 7, 7, 74
9, 31778, Control_c, 7, 7, 74
9, 31779, Control_c, 7, 7, 73
9, 31780, Control_c, 7, 7, 73
9, 31780, Control_c, 7, 7, 73
9, 31782, Control_c, 7, 7, 72
9, 31782, Control_c, 7, 7, 72
9, 31782, Control_c, 7, 7, 72
9, 31784, Control_c, 7, 7, 71
9, 31785, Control_c, 7, 7, 71
9, 31785, Control_c, 7, 7, 71
9, 31786, Control_c, 7, 7, 70
9, 31787, Control_c, 7, 7, 70
9, 31787, Control_c, 7, 7, 70
9, 31788, Note_on_c, 7, 69, 0
9, 31788, Note_on_c, 7, 73, 0
9, 31788, Control_c, 7, 7, 69
9, 31789, Control_c, 7, 7, 69
9, 31789, Control_c, 7, 7, 69
9, 31790, Control_c, 7, 7, 68
9, 31791, Control_c, 7, 7, 68
9, 31791, Control_c, 7, 7, 68
9, 31792, Control_c, 7, 7, 67
9, 31793, Control_c, 7, 7, 67
9, 31793, Control_c, 7, 7, 67
9, 31794, Control_c, 7, 7, 66
9, 31795, Control_c, 7, 7, 66
9, 31795, Control_c, 7, 7, 66
9, 31796, Control_c, 7, 7, 65
9, 31797, Control_c, 7, 7, 65
9, 31797, Control_c, 7, 7, 65
9, 31799, Control_c, 7, 7, 64
9, 31800, Note_on_c, 7, 45, 0
9, 31800, Note_on_c, 7, 73, 98
9, 31800, Note_on_c, 7, 69, 98
9, 31800, Control_c, 7, 7, 64
9, 31800, Control_c, 7, 7, 64
9, 31848, Note_on_c, 7, 69, 0
9, 31848, Note_on_c, 7, 73, 0
9, 31860, Note_on_c, 7, 73, 98
9, 31860, Note_on_c, 7, 69, 98
9, 31908, Note_on_c, 7, 69, 0
9, 31908, Note_on_c, 7, 73, 0
9, 31920, Note_on_c, 7, 73, 98
9, 31920, Note_on_c, 7, 69, 98
9, 31972, Note_on_c, 7, 69, 0
9, 31972, Note_on_c, 7, 73, 0
9, 31980, Note_on_c, 7, 73, 98
9, 31980, Note_on_c, 7, 69, 98
9, 32028, Note_on_c, 7, 69, 0
9, 32028, Note_on_c, 7, 73, 0
9, 32040, Note_on_c, 7, 71, 98
9, 32040, Note_on_c, 7, 68, 98
9, 32088, Note_on_c, 7, 68, 0
9, 32088, Note_on_c, 7, 71, 0
9, 32100, Note_on_c, 7, 71, 98
9, 32100, Note_on_c, 7, 68, 98
9, 32148, Note_on_c, 7, 68, 0
9, 32148, Note_on_c, 7, 71, 0
9, 32160, Note_on_c, 7, 73, 98
9, 32160, Note_on_c, 7, 76, 98
9, 32160, Control_c, 7, 7, 120
9, 32160, Note_on_c, 7, 69, 98
9, 32162, Control_c, 7, 7, 119
9, 32164, Control_c, 7, 7, 118
9, 32166, Control_c, 7, 7, 117
9, 32168, Control_c, 7, 7, 116
9, 32170, Control_c, 7, 7, 115
9, 32172, Control_c, 7, 7, 114
9, 32174, Control_c, 7, 7, 113
9, 32177, Control_c, 7, 7, 112
9, 32179, Control_c, 7, 7, 111
9, 32181, Control_c, 7, 7, 110
9, 32183, Control_c, 7, 7, 109
9, 32185, Control_c, 7, 7, 108
9, 32187, Control_c, 7, 7, 107
9, 32189, Control_c, 7, 7, 106
9, 32191, Control_c, 7, 7, 105
9, 32194, Control_c, 7, 7, 104
9, 32196, Control_c, 7, 7, 103
9, 32198, Control_c, 7, 7, 102
9, 32200, Control_c, 7, 7, 101
9, 32202, Control_c, 7, 7, 100
9, 32204, Control_c, 7, 7, 99
9, 32206, Control_c, 7, 7, 98
9, 32208, Control_c, 7, 7, 97
9, 32211, Control_c, 7, 7, 96
9, 32213, Control_c, 7, 7, 95
9, 32215, Control_c, 7, 7, 94
9, 32217, Control_c, 7, 7, 93
9, 32218, Note_on_c, 7, 69, 0
9, 32218, Note_on_c, 7, 73, 0
9, 32219, Control_c, 7, 7, 92
9, 32220, Note_on_c, 7, 73, 98
9, 32220, Note_on_c, 7, 69, 98
9, 32221, Control_c, 7, 7, 91
9, 32223, Control_c, 7, 7, 90
9, 32225, Control_c, 7, 7, 89
9, 32228, Control_c, 7, 7, 88
9, 32230, Control_c, 7, 7, 87
9, 32232, Control_c, 7, 7, 86
9, 32234, Control_c, 7, 7, 85
9, 32236, Control_c, 7, 7, 84
9, 32238, Control_c, 7, 7, 83
9, 32240, Control_c, 7, 7, 82
9, 32242, Control_c, 7, 7, 81
9, 32245, Control_c, 7, 7, 80
9, 32247, Control_c, 7, 7, 79
9, 32249, Control_c, 7, 7, 78
9, 32251, Control_c, 7, 7, 77
9, 32253, Control_c, 7, 7, 76
9, 32255, Control_c, 7, 7, 75
9, 32257, Control_c, 7, 7, 74
9, 32259, Control_c, 7, 7, 73
9, 32262, Control_c, 7, 7, 72
9, 32264, Control_c, 7, 7, 71
9, 32266, Control_c, 7, 7, 70
9, 32268, Note_on_c, 7, 69, 0
9, 32268, Note_on_c, 7, 73, 0
9, 32268, Control_c, 7, 7, 69
9, 32270, Control_c, 7, 7, 68
9, 32272, Control_c, 7, 7, 67
9, 32274, Control_c, 7, 7, 66
9, 32276, Control_c, 7, 7, 65
9, 32279, Control_c, 7, 7, 64
9, 32280, Note_on_c, 7, 73, 98
9, 32280, Note_on_c, 7, 69, 98
9, 32328, Note_on_c, 7, 69, 0
9, 32328, Note_on_c, 7, 73, 0
9, 32340, Note_on_c, 7, 73, 98
9, 32340, Note_on_c, 7, 69, 98
9, 32388, Note_on_c, 7, 69, 0
9, 32388, Note_on_c, 7, 73, 0
9, 32400, Note_on_c, 7, 73, 98
9, 32400, Note_on_c, 7, 69, 98
9, 32452, Note_on_c, 7, 69, 0
9, 32452, Note_on_c, 7, 73, 0
9, 32460, Note_on_c, 7, 73, 98
9, 32460, Note_on_c, 7, 69, 98
9, 32508, Note_on_c, 7, 69, 0
9, 32508, Note_on_c, 7, 73, 0
9, 32520, Note_on_c, 7, 71, 98
9, 32520, Note_on_c, 7, 68, 98
9, 32544, Note_on_c, 7, 76, 0
9, 32568, Note_on_c, 7, 68, 0
9, 32568, Note_on_c, 7, 71, 0
9, 32580, Note_on_c, 7, 71, 98
9, 32580, Note_on_c, 7, 68, 98
9, 32628, Note_on_c, 7, 68, 0
9, 32628, Note_on_c, 7, 71, 0
9, 32640, Note_on_c, 7, 75, 121
9, 32640, Note_on_c, 7, 69, 121
9, 32640, Control_c, 7, 7, 120
9, 32640, Note_on_c, 7, 66, 121
9, 32642, Control_c, 7, 7, 119
9, 32644, Control_c, 7, 7, 118
9, 32646, Control_c, 7, 7, 117
9, 32648, Control_c, 7, 7, 116
9, 32650, Control_c, 7, 7, 115
9, 32652, Control_c, 7, 7, 114
9, 32654, Control_c, 7, 7, 113
9, 32657, Control_c, 7, 7, 112
9, 32659, Control_c, 7, 7, 111
9, 32661, Control_c, 7, 7, 110
9, 32663, Control_c, 7, 7, 109
9, 32665, Control_c, 7, 7, 108
9, 32667, Control_c, 7, 7, 107
9, 32669, Control_c, 7, 7, 106
9, 32671, Control_c, 7, 7, 105
9, 32674, Control_c, 7, 7, 104
9, 32676, Control_c, 7, 7, 103
9, 32678, Control_c, 7, 7, 102
9, 32680, Control_c, 7, 7, 101
9, 32682, Control_c, 7, 7, 100
9, 32684, Control_c, 7, 7, 99
9, 32686, Control_c, 7, 7, 98
9, 32688, Control_c, 7, 7, 97
9, 32691, Control_c, 7, 7, 96
9, 32693, Control_c, 7, 7, 95
9, 32695, Control_c, 7, 7, 94
9, 32697, Control_c, 7, 7, 93
9, 32698, Note_on_c, 7, 66, 0
9, 32698, Note_on_c, 7, 69, 0
9, 32699, Control_c, 7, 7, 92
9, 32700, Note_on_c, 7, 69, 116
9, 32700, Note_on_c, 7, 66, 116
9, 32701, Control_c, 7, 7, 91
9, 32703, Control_c, 7, 7, 90
9, 32705, Control_c, 7, 7, 89
9, 32708, Control_c, 7, 7, 88
9, 32710, Control_c, 7, 7, 87
9, 32712, Control_c, 7, 7, 86
9, 32714, Control_c, 7, 7, 85
9, 32716, Control_c, 7, 7, 84
9, 32718, Control_c, 7, 7, 83
9, 32720, Control_c, 7, 7, 82
9, 32722, Control_c, 7, 7, 81
9, 32725, Control_c, 7, 7, 80
9, 32727, Control_c, 7, 7, 79
9, 32729, Control_c, 7, 7, 78
9, 32731, Control_c, 7, 7, 77
9, 32733, Control_c, 7, 7, 76
9, 32735, Control_c, 7, 7, 75
9, 32737, Control_c, 7, 7, 74
9, 32739, Control_c, 7, 7, 73
9, 32742, Control_c, 7, 7, 72
9, 32744, Control_c, 7, 7, 71
9, 32746, Control_c, 7, 7, 70
9, 32748, Note_on_c, 7, 66, 0
9, 32748, Note_on_c, 7, 69, 0
9, 32748, Control_c, 7, 7, 69
9, 32750, Control_c, 7, 7, 68
9, 32752, Control_c, 7, 7, 67
9, 32754, Control_c, 7, 7, 66
9, 32756, Control_c, 7, 7, 65
9, 32759, Control_c, 7, 7, 64
9, 32760, Note_on_c, 7, 69, 110
9, 32760, Note_on_c, 7, 66, 110
9, 32808, Note_on_c, 7, 66, 0
9, 32808, Note_on_c, 7, 69, 0
9, 32820, Note_on_c, 7, 69, 102
9, 32820, Note_on_c, 7, 66, 102
9, 32868, Note_on_c, 7, 66, 0
9, 32868, Note_on_c, 7, 69, 0
9, 32880, Note_on_c, 7, 69, 98
9, 32880, Note_on_c, 7, 66, 98
9, 32932, Note_on_c, 7, 66, 0
9, 32932, Note_on_c, 7, 69, 0
9, 32940, Note_on_c, 7, 69, 98
9, 32940, Note_on_c, 7, 66, 98
9, 32988, Note_on_c, 7, 66, 0
9, 32988, Note_on_c, 7, 69, 0
9, 33000, Note_on_c, 7, 75, 0
9, 33000, Note_on_c, 7, 76, 98
9, 33000, Note_on_c, 7, 68, 98
9, 33000, Note_on_c, 7, 64, 98
9, 33048, Note_on_c, 7, 64, 0
9, 33048, Note_on_c, 7, 68, 0
9, 33060, Note_on_c, 7, 68, 98
9, 33060, Note_on_c, 7, 64, 98
9, 33096, Note_on_c, 7, 76, 0
9, 33108, Note_on_c, 7, 64, 0
9, 33108, Note_on_c, 7, 68, 0
9, 33120, Note_on_c, 7, 75, 121
9, 33120, Note_on_c, 7, 69, 121
9, 33120, Control_c, 7, 7, 120
9, 33120, Note_on_c, 7, 66, 121
9, 33122, Control_c, 7, 7, 119
9, 33124, Control_c, 7, 7, 118
9, 33126, Control_c, 7, 7, 117
9, 33128, Control_c, 7, 7, 116
9, 33130, Control_c, 7, 7, 115
9, 33132, Control_c, 7, 7, 114
9, 33134, Control_c, 7, 7, 113
9, 33137, Control_c, 7, 7, 112
9, 33139, Control_c, 7, 7, 111
9, 33141, Control_c, 7, 7, 110
9, 33143, Control_c, 7, 7, 109
9, 33145, Control_c, 7, 7, 108
9, 33147, Control_c, 7, 7, 107
9, 33149, Control_c, 7, 7, 106
9, 33151, Control_c, 7, 7, 105
9, 33154, Control_c, 7, 7, 104
9, 33156, Control_c, 7, 7, 103
9, 33158, Control_c, 7, 7, 102
9, 33160, Control_c, 7, 7, 101
9, 33162, Control_c, 7, 7, 100
9, 33164, Control_c, 7, 7, 99
9, 33166, Control_c, 7, 7, 98
9, 33168, Control_c, 7, 7, 97
9, 33171, Control_c, 7, 7, 96
9, 33173, Control_c, 7, 7, 95
9, 33175, Control_c, 7, 7, 94
9, 33177, Control_c, 7, 7, 93
9, 33178, Note_on_c, 7, 66, 0
9, 33178, Note_on_c, 7, 69, 0
9, 33179, Control_c, 7, 7, 92
9, 33180, Note_on_c, 7, 69, 109
9, 33180, Note_on_c, 7, 66, 109
9, 33181, Control_c, 7, 7, 91
9, 33183, Control_c, 7, 7, 90
9, 33185, Control_c, 7, 7, 89
9, 33188, Control_c, 7, 7, 88
9, 33190, Control_c, 7, 7, 87
9, 33192, Control_c, 7, 7, 86
9, 33194, Control_c, 7, 7, 85
9, 33196, Control_c, 7, 7, 84
9, 33198, Control_c, 7, 7, 83
9, 33200, Control_c, 7, 7, 82
9, 33202, Control_c, 7, 7, 81
9, 33205, Control_c, 7, 7, 80
9, 33207, Control_c, 7, 7, 79
9, 33209, Control_c, 7, 7, 78
9, 33211, Control_c, 7, 7, 77
9, 33213, Control_c, 7, 7, 76
9, 33215, Control_c, 7, 7, 75
9, 33217, Control_c, 7, 7, 74
9, 33219, Control_c, 7, 7, 73
9, 33222, Control_c, 7, 7, 72
9, 33224, Control_c, 7, 7, 71
9, 33226, Control_c, 7, 7, 70
9, 33228, Note_on_c, 7, 66, 0
9, 33228, Note_on_c, 7, 69, 0
9, 33228, Control_c, 7, 7, 69
9, 33230, Control_c, 7, 7, 68
9, 33232, Control_c, 7, 7, 67
9, 33234, Control_c, 7, 7, 66
9, 33236, Control_c, 7, 7, 65
9, 33239, Control_c, 7, 7, 64
9, 33240, Note_on_c, 7, 69, 105
9, 33240, Note_on_c, 7, 66, 105
9, 33288, Note_on_c, 7, 66, 0
9, 33288, Note_on_c, 7, 69, 0
9, 33300, Note_on_c, 7, 69, 100
9, 33300, Note_on_c, 7, 66, 100
9, 33348, Note_on_c, 7, 66, 0
9, 33348, Note_on_c, 7, 69, 0
9, 33360, Note_on_c, 7, 69, 98
9, 33360, Note_on_c, 7, 66, 98
9, 33412, Note_on_c, 7, 66, 0
9, 33412, Note_on_c, 7, 69, 0
9, 33420, Note_on_c, 7, 69, 98
9, 33420, Note_on_c, 7, 66, 98
9, 33468, Note_on_c, 7, 66, 0
9, 33468, Note_on_c, 7, 69, 0
9, 33480, Note_on_c, 7, 75, 0
9, 33480, Note_on_c, 7, 76, 98
9, 33480, Note_on_c, 7, 68, 98
9, 33480, Note_on_c, 7, 64, 98
9, 33528, Note_on_c, 7, 64, 0
9, 33528, Note_on_c, 7, 68, 0
9, 33540, Note_on_c, 7, 68, 98
9, 33540, Note_on_c, 7, 64, 98
9, 33576, Note_on_c, 7, 76, 0
9, 33588, Note_on_c, 7, 64, 0
9, 33588, Note_on_c, 7, 68, 0
9, 33600, Control_c, 7, 7, 96
9, 33600, Note_on_c, 7, 66, 127
9, 33600, Note_on_c, 7, 78, 127
9, 33600, Control_c, 7, 7, 120
9, 33600, Control_c, 7, 7, 96
9, 33600, Note_on_c, 7, 62, 127
9, 33600, Control_c, 7, 7, 96
9, 33602, Control_c, 7, 7, 119
9, 33604, Control_c, 7, 7, 118
9, 33606, Control_c, 7, 7, 117
9, 33608, Control_c, 7, 7, 116
9, 33610, Control_c, 7, 7, 115
9, 33612, Note_on_c, 7, 78, 0
9, 33612, Control_c, 7, 7, 114
9, 33614, Control_c, 7, 7, 95
9, 33614, Control_c, 7, 7, 113
9, 33614, Control_c, 7, 7, 95
9, 33614, Control_c, 7, 7, 95
9, 33615, Note_on_c, 7, 79, 127
9, 33617, Control_c, 7, 7, 112
9, 33619, Control_c, 7, 7, 111
9, 33621, Control_c, 7, 7, 110
9, 33623, Control_c, 7, 7, 109
9, 33625, Control_c, 7, 7, 108
9, 33627, Note_on_c, 7, 79, 0
9, 33627, Control_c, 7, 7, 107
9, 33629, Control_c, 7, 7, 94
9, 33629, Control_c, 7, 7, 106
9, 33629, Control_c, 7, 7, 94
9, 33629, Control_c, 7, 7, 94
9, 33630, Note_on_c, 7, 81, 127
9, 33631, Control_c, 7, 7, 105
9, 33634, Control_c, 7, 7, 104
9, 33636, Control_c, 7, 7, 103
9, 33638, Control_c, 7, 7, 102
9, 33640, Control_c, 7, 7, 101
9, 33642, Control_c, 7, 7, 100
9, 33644, Control_c, 7, 7, 93
9, 33644, Control_c, 7, 7, 99
9, 33644, Control_c, 7, 7, 93
9, 33644, Control_c, 7, 7, 93
9, 33646, Control_c, 7, 7, 98
9, 33648, Control_c, 7, 7, 97
9, 33651, Control_c, 7, 7, 96
9, 33653, Control_c, 7, 7, 95
9, 33655, Control_c, 7, 7, 94
9, 33657, Control_c, 7, 7, 93
9, 33658, Note_on_c, 7, 62, 0
9, 33658, Note_on_c, 7, 66, 0
9, 33659, Control_c, 7, 7, 92
9, 33659, Control_c, 7, 7, 92
9, 33659, Control_c, 7, 7, 92
9, 33659, Control_c, 7, 7, 92
9, 33660, Note_on_c, 7, 66, 118
9, 33660, Note_on_c, 7, 62, 118
9, 33661, Control_c, 7, 7, 91
9, 33663, Control_c, 7, 7, 90
9, 33665, Control_c, 7, 7, 89
9, 33668, Control_c, 7, 7, 88
9, 33670, Control_c, 7, 7, 87
9, 33672, Control_c, 7, 7, 86
9, 33674, Control_c, 7, 7, 91
9, 33674, Control_c, 7, 7, 85
9, 33674, Control_c, 7, 7, 91
9, 33674, Control_c, 7, 7, 91
9, 33676, Control_c, 7, 7, 84
9, 33678, Control_c, 7, 7, 83
9, 33680, Control_c, 7, 7, 82
9, 33682, Control_c, 7, 7, 81
9, 33685, Control_c, 7, 7, 80
9, 33687, Control_c, 7, 7, 79
9, 33689, Control_c, 7, 7, 90
9, 33689, Control_c, 7, 7, 78
9, 33689, Control_c, 7, 7, 90
9, 33689, Control_c, 7, 7, 90
9, 33691, Control_c, 7, 7, 77
9, 33693, Control_c, 7, 7, 76
9, 33695, Control_c, 7, 7, 75
9, 33697, Control_c, 7, 7, 74
9, 33699, Control_c, 7, 7, 73
9, 33702, Note_on_c, 7, 81, 0
9, 33702, Control_c, 7, 7, 72
9, 33704, Control_c, 7, 7, 89
9, 33704, Control_c, 7, 7, 71
9, 33704, Control_c, 7, 7, 89
9, 33704, Control_c, 7, 7, 89
9, 33706, Control_c, 7, 7, 70
9, 33708, Note_on_c, 7, 62, 0
9, 33708, Note_on_c, 7, 66, 0
9, 33708, Control_c, 7, 7, 69
9, 33710, Control_c, 7, 7, 68
9, 33712, Control_c, 7, 7, 67
9, 33714, Control_c, 7, 7, 66
9, 33716, Control_c, 7, 7, 65
9, 33719, Control_c, 7, 7, 88
9, 33719, Control_c, 7, 7, 64
9, 33719, Control_c, 7, 7, 88
9, 33719, Control_c, 7, 7, 88
9, 33720, Note_on_c, 7, 66, 111
9, 33720, Note_on_c, 7, 81, 111
9, 33720, Note_on_c, 7, 62, 111
9, 33734, Control_c, 7, 7, 87
9, 33734, Control_c, 7, 7, 87
9, 33734, Control_c, 7, 7, 87
9, 33749, Control_c, 7, 7, 86
9, 33749, Control_c, 7, 7, 86
9, 33749, Control_c, 7, 7, 86
9, 33764, Control_c, 7, 7, 85
9, 33764, Control_c, 7, 7, 85
9, 33764, Control_c, 7, 7, 85
9, 33768, Note_on_c, 7, 62, 0
9, 33768, Note_on_c, 7, 81, 0
9, 33768, Note_on_c, 7, 66, 0
9, 33779, Control_c, 7, 7, 84
9, 33779, Control_c, 7, 7, 84
9, 33779, Control_c, 7, 7, 84
9, 33780, Note_on_c, 7, 66, 98
9, 33780, Note_on_c, 7, 81, 98
9, 33780, Note_on_c, 7, 62, 98
9, 33794, Control_c, 7, 7, 83
9, 33794, Control_c, 7, 7, 83
9, 33794, Control_c, 7, 7, 83
9, 33809, Control_c, 7, 7, 82
9, 33809, Control_c, 7, 7, 82
9, 33809, Control_c, 7, 7, 82
9, 33824, Control_c, 7, 7, 81
9, 33824, Control_c, 7, 7, 81
9, 33824, Control_c, 7, 7, 81
9, 33828, Note_on_c, 7, 62, 0
9, 33828, Note_on_c, 7, 81, 0
9, 33828, Note_on_c, 7, 66, 0
9, 33839, Control_c, 7, 7, 80
9, 33839, Control_c, 7, 7, 80
9, 33839, Control_c, 7, 7, 80
9, 33840, Note_on_c, 7, 66, 98
9, 33840, Note_on_c, 7, 81, 98
9, 33840, Note_on_c, 7, 62, 98
9, 33854, Control_c, 7, 7, 79
9, 33854, Control_c, 7, 7, 79
9, 33854, Control_c, 7, 7, 79
9, 33869, Control_c, 7, 7, 78
9, 33869, Control_c, 7, 7, 78
9, 33869, Control_c, 7, 7, 78
9, 33884, Control_c, 7, 7, 77
9, 33884, Control_c, 7, 7, 77
9, 33884, Control_c, 7, 7, 77
9, 33892, Note_on_c, 7, 62, 0
9, 33892, Note_on_c, 7, 66, 0
9, 33899, Control_c, 7, 7, 76
9, 33899, Control_c, 7, 7, 76
9, 33899, Control_c, 7, 7, 76
9, 33900, Note_on_c, 7, 66, 98
9, 33900, Note_on_c, 7, 62, 98
9, 33914, Control_c, 7, 7, 75
9, 33914, Control_c, 7, 7, 75
9, 33914, Control_c, 7, 7, 75
9, 33929, Control_c, 7, 7, 74
9, 33929, Control_c, 7, 7, 74
9, 33929, Control_c, 7, 7, 74
9, 33936, Note_on_c, 7, 81, 0
9, 33944, Control_c, 7, 7, 73
9, 33944, Control_c, 7, 7, 73
9, 33944, Control_c, 7, 7, 73
9, 33948, Note_on_c, 7, 62, 0
9, 33948, Note_on_c, 7, 66, 0
9, 33959, Control_c, 7, 7, 72
9, 33959, Control_c, 7, 7, 72
9, 33959, Control_c, 7, 7, 72
9, 33960, Note_on_c, 7, 64, 98
9, 33960, Note_on_c, 7, 61, 98
9, 33974, Control_c, 7, 7, 71
9, 33974, Control_c, 7, 7, 71
9, 33974, Control_c, 7, 7, 71
9, 33989, Control_c, 7, 7, 70
9, 33989, Control_c, 7, 7, 70
9, 33989, Control_c, 7, 7, 70
9, 34004, Control_c, 7, 7, 69
9, 34004, Control_c, 7, 7, 69
9, 34004, Control_c, 7, 7, 69
9, 34008, Note_on_c, 7, 61, 0
9, 34008, Note_on_c, 7, 64, 0
9, 34019, Control_c, 7, 7, 68
9, 34019, Control_c, 7, 7, 68
9, 34019, Control_c, 7, 7, 68
9, 34020, Note_on_c, 7, 64, 98
9, 34020, Note_on_c, 7, 61, 98
9, 34034, Control_c, 7, 7, 67
9, 34034, Control_c, 7, 7, 67
9, 34034, Control_c, 7, 7, 67
9, 34049, Control_c, 7, 7, 66
9, 34049, Control_c, 7, 7, 66
9, 34049, Control_c, 7, 7, 66
9, 34064, Control_c, 7, 7, 65
9, 34064, Control_c, 7, 7, 65
9, 34064, Control_c, 7, 7, 65
9, 34068, Note_on_c, 7, 61, 0
9, 34068, Note_on_c, 7, 64, 0
9, 34079, Control_c, 7, 7, 64
9, 34079, Control_c, 7, 7, 64
9, 34079, Control_c, 7, 7, 64
9, 34080, Control_c, 7, 7, 96
9, 34080, Note_on_c, 7, 66, 127
9, 34080, Note_on_c, 7, 78, 127
9, 34080, Control_c, 7, 7, 120
9, 34080, Control_c, 7, 7, 96
9, 34080, Note_on_c, 7, 62, 127
9, 34080, Control_c, 7, 7, 96
9, 34082, Control_c, 7, 7, 119
9, 34084, Control_c, 7, 7, 118
9, 34086, Control_c, 7, 7, 117
9, 34088, Control_c, 7, 7, 116
9, 34090, Control_c, 7, 7, 115
9, 34092, Note_on_c, 7, 78, 0
9, 34092, Control_c, 7, 7, 114
9, 34094, Control_c, 7, 7, 95
9, 34094, Control_c, 7, 7, 113
9, 34094, Control_c, 7, 7, 95
9, 34094, Control_c, 7, 7, 95
9, 34095, Note_on_c, 7, 79, 127
9, 34097, Control_c, 7, 7, 112
9, 34099, Control_c, 7, 7, 111
9, 34101, Control_c, 7, 7, 110
9, 34103, Control_c, 7, 7, 109
9, 34105, Control_c, 7, 7, 108
9, 34107, Note_on_c, 7, 79, 0
9, 34107, Control_c, 7, 7, 107
9, 34109, Control_c, 7, 7, 94
9, 34109, Control_c, 7, 7, 106
9, 34109, Control_c, 7, 7, 94
9, 34109, Control_c, 7, 7, 94
9, 34110, Note_on_c, 7, 81, 127
9, 34111, Control_c, 7, 7, 105
9, 34114, Control_c, 7, 7, 104
9, 34116, Control_c, 7, 7, 103
9, 34118, Control_c, 7, 7, 102
9, 34120, Control_c, 7, 7, 101
9, 34122, Control_c, 7, 7, 100
9, 34124, Control_c, 7, 7, 93
9, 34124, Control_c, 7, 7, 99
9, 34124, Control_c, 7, 7, 93
9, 34124, Control_c, 7, 7, 93
9, 34126, Control_c, 7, 7, 98
9, 34128, Control_c, 7, 7, 97
9, 34131, Control_c, 7, 7, 96
9, 34133, Control_c, 7, 7, 95
9, 34135, Control_c, 7, 7, 94
9, 34137, Control_c, 7, 7, 93
9, 34138, Note_on_c, 7, 62, 0
9, 34138, Note_on_c, 7, 66, 0
9, 34139, Control_c, 7, 7, 92
9, 34139, Control_c, 7, 7, 92
9, 34139, Control_c, 7, 7, 92
9, 34139, Control_c, 7, 7, 92
9, 34140, Note_on_c, 7, 66, 124
9, 34140, Note_on_c, 7, 62, 124
9, 34141, Control_c, 7, 7, 91
9, 34143, Control_c, 7, 7, 90
9, 34145, Control_c, 7, 7, 89
9, 34148, Control_c, 7, 7, 88
9, 34150, Control_c, 7, 7, 87
9, 34152, Control_c, 7, 7, 86
9, 34154, Control_c, 7, 7, 91
9, 34154, Control_c, 7, 7, 85
9, 34154, Control_c, 7, 7, 91
9, 34154, Control_c, 7, 7, 91
9, 34156, Control_c, 7, 7, 84
9, 34158, Control_c, 7, 7, 83
9, 34160, Control_c, 7, 7, 82
9, 34162, Control_c, 7, 7, 81
9, 34165, Control_c, 7, 7, 80
9, 34167, Control_c, 7, 7, 79
9, 34169, Control_c, 7, 7, 90
9, 34169, Control_c, 7, 7, 78
9, 34169, Control_c, 7, 7, 90
9, 34169, Control_c, 7, 7, 90
9, 34171, Control_c, 7, 7, 77
9, 34173, Control_c, 7, 7, 76
9, 34175, Control_c, 7, 7, 75
9, 34177, Control_c, 7, 7, 74
9, 34179, Control_c, 7, 7, 73
9, 34182, Note_on_c, 7, 81, 0
9, 34182, Control_c, 7, 7, 72
9, 34184, Control_c, 7, 7, 89
9, 34184, Control_c, 7, 7, 71
9, 34184, Control_c, 7, 7, 89
9, 34184, Control_c, 7, 7, 89
9, 34186, Control_c, 7, 7, 70
9, 34188, Note_on_c, 7, 62, 0
9, 34188, Note_on_c, 7, 66, 0
9, 34188, Control_c, 7, 7, 69
9, 34190, Control_c, 7, 7, 68
9, 34192, Control_c, 7, 7, 67
9, 34194, Control_c, 7, 7, 66
9, 34196, Control_c, 7, 7, 65
9, 34199, Control_c, 7, 7, 88
9, 34199, Control_c, 7, 7, 64
9, 34199, Control_c, 7, 7, 88
9, 34199, Control_c, 7, 7, 88
9, 34200, Note_on_c, 7, 66, 112
9, 34200, Note_on_c, 7, 81, 112
9, 34200, Note_on_c, 7, 62, 112
9, 34214, Control_c, 7, 7, 87
9, 34214, Control_c, 7, 7, 87
9, 34214, Control_c, 7, 7, 87
9, 34229, Control_c, 7, 7, 86
9, 34229, Control_c, 7, 7, 86
9, 34229, Control_c, 7, 7, 86
9, 34244, Control_c, 7, 7, 85
9, 34244, Control_c, 7, 7, 85
9, 34244, Control_c, 7, 7, 85
9, 34248, Note_on_c, 7, 62, 0
9, 34248, Note_on_c, 7, 81, 0
9, 34248, Note_on_c, 7, 66, 0
9, 34259, Control_c, 7, 7, 84
9, 34259, Control_c, 7, 7, 84
9, 34259, Control_c, 7, 7, 84
9, 34260, Note_on_c, 7, 66, 98
9, 34260, Note_on_c, 7, 81, 98
9, 34260, Note_on_c, 7, 62, 98
9, 34274, Control_c, 7, 7, 83
9, 34274, Control_c, 7, 7, 83
9, 34274, Control_c, 7, 7, 83
9, 34289, Control_c, 7, 7, 82
9, 34289, Control_c, 7, 7, 82
9, 34289, Control_c, 7, 7, 82
9, 34304, Control_c, 7, 7, 81
9, 34304, Control_c, 7, 7, 81
9, 34304, Control_c, 7, 7, 81
9, 34308, Note_on_c, 7, 62, 0
9, 34308, Note_on_c, 7, 81, 0
9, 34308, Note_on_c, 7, 66, 0
9, 34319, Control_c, 7, 7, 80
9, 34319, Control_c, 7, 7, 80
9, 34319, Control_c, 7, 7, 80
9, 34320, Note_on_c, 7, 66, 98
9, 34320, Note_on_c, 7, 81, 98
9, 34320, Note_on_c, 7, 62, 98
9, 34334, Control_c, 7, 7, 79
9, 34334, Control_c, 7, 7, 79
9, 34334, Control_c, 7, 7, 79
9, 34349, Control_c, 7, 7, 78
9, 34349, Control_c, 7, 7, 78
9, 34349, Control_c, 7, 7, 78
9, 34364, Control_c, 7, 7, 77
9, 34364, Control_c, 7, 7, 77
9, 34364, Control_c, 7, 7, 77
9, 34372, Note_on_c, 7, 62, 0
9, 34372, Note_on_c, 7, 66, 0
9, 34379, Control_c, 7, 7, 76
9, 34379, Control_c, 7, 7, 76
9, 34379, Control_c, 7, 7, 76
9, 34380, Note_on_c, 7, 66, 98
9, 34380, Note_on_c, 7, 62, 98
9, 34394, Control_c, 7, 7, 75
9, 34394, Control_c, 7, 7, 75
9, 34394, Control_c, 7, 7, 75
9, 34409, Control_c, 7, 7, 74
9, 34409, Control_c, 7, 7, 74
9, 34409, Control_c, 7, 7, 74
9, 34416, Note_on_c, 7, 81, 0
9, 34424, Control_c, 7, 7, 73
9, 34424, Control_c, 7, 7, 73
9, 34424, Control_c, 7, 7, 73
9, 34428, Note_on_c, 7, 62, 0
9, 34428, Note_on_c, 7, 66, 0
9, 34439, Control_c, 7, 7, 72
9, 34439, Control_c, 7, 7, 72
9, 34439, Control_c, 7, 7, 72
9, 34440, Note_on_c, 7, 64, 98
9, 34440, Note_on_c, 7, 61, 98
9, 34454, Control_c, 7, 7, 71
9, 34454, Control_c, 7, 7, 71
9, 34454, Control_c, 7, 7, 71
9, 34469, Control_c, 7, 7, 70
9, 34469, Control_c, 7, 7, 70
9, 34469, Control_c, 7, 7, 70
9, 34484, Control_c, 7, 7, 69
9, 34484, Control_c, 7, 7, 69
9, 34484, Control_c, 7, 7, 69
9, 34488, Note_on_c, 7, 61, 0
9, 34488, Note_on_c, 7, 64, 0
9, 34499, Control_c, 7, 7, 68
9, 34499, Control_c, 7, 7, 68
9, 34499, Control_c, 7, 7, 68
9, 34500, Note_on_c, 7, 64, 98
9, 34500, Note_on_c, 7, 61, 98
9, 34514, Control_c, 7, 7, 67
9, 34514, Control_c, 7, 7, 67
9, 34514, Control_c, 7, 7, 67
9, 34529, Control_c, 7, 7, 66
9, 34529, Control_c, 7, 7, 66
9, 34529, Control_c, 7, 7, 66
9, 34544, Control_c, 7, 7, 65
9, 34544, Control_c, 7, 7, 65
9, 34544, Control_c, 7, 7, 65
9, 34548, Note_on_c, 7, 61, 0
9, 34548, Note_on_c, 7, 64, 0
9, 34550, Control_c, 7, 7, 65
9, 34560, Note_on_c, 7, 62, 79
9, 34560, Note_on_c, 7, 69, 79
9, 34560, Note_on_c, 7, 59, 79
9, 34570, Control_c, 7, 7, 66
9, 34580, Control_c, 7, 7, 67
9, 34600, Control_c, 7, 7, 68
9, 34640, Control_c, 7, 7, 70
9, 34660, Control_c, 7, 7, 71
9, 34680, Control_c, 7, 7, 72
9, 34690, Control_c, 7, 7, 73
9, 34710, Control_c, 7, 7, 74
9, 34720, Control_c, 7, 7, 75
9, 34740, Control_c, 7, 7, 76
9, 34770, Control_c, 7, 7, 79
9, 34780, Control_c, 7, 7, 80
9, 34810, Control_c, 7, 7, 82
9, 34850, Control_c, 7, 7, 84
9, 34880, Control_c, 7, 7, 85
9, 34890, Control_c, 7, 7, 86
9, 34920, Control_c, 7, 7, 87
9, 34930, Control_c, 7, 7, 88
9, 34950, Control_c, 7, 7, 89
9, 34970, Control_c, 7, 7, 90
9, 34980, Control_c, 7, 7, 91
9, 35040, Note_on_c, 7, 69, 0
9, 35040, Note_on_c, 7, 68, 80
9, 35040, Note_on_c, 7, 52, 80
9, 35050, Control_c, 7, 7, 65
9, 35070, Control_c, 7, 7, 66
9, 35090, Control_c, 7, 7, 67
9, 35110, Control_c, 7, 7, 68
9, 35130, Control_c, 7, 7, 69
9, 35150, Control_c, 7, 7, 70
9, 35180, Control_c, 7, 7, 71
9, 35190, Control_c, 7, 7, 72
9, 35200, Control_c, 7, 7, 73
9, 35220, Control_c, 7, 7, 74
9, 35240, Control_c, 7, 7, 75
9, 35260, Control_c, 7, 7, 76
9, 35280, Control_c, 7, 7, 78
9, 35310, Control_c, 7, 7, 79
9, 35320, Control_c, 7, 7, 80
9, 35340, Control_c, 7, 7, 81
9, 35360, Control_c, 7, 7, 82
9, 35380, Control_c, 7, 7, 83
9, 35390, Control_c, 7, 7, 84
9, 35410, Control_c, 7, 7, 85
9, 35430, Control_c, 7, 7, 86
9, 35460, Control_c, 7, 7, 87
9, 35480, Control_c, 7, 7, 89
9, 35500, Control_c, 7, 7, 90
9, 35520, Note_on_c, 7, 52, 0
9, 35520, Note_on_c, 7, 62, 0
9, 35520, Note_on_c, 7, 59, 0
9, 35520, Note_on_c, 7, 68, 0
9, 35520, Note_on_c, 7, 61, 98
9, 35520, Note_on_c, 7, 69, 98
9, 35520, Note_on_c, 7, 57, 98
9, 35520, Note_on_c, 7, 45, 98
9, 35530, Control_c, 7, 7, 91
9, 35578, Note_on_c, 7, 57, 0
9, 35578, Note_on_c, 7, 61, 0
9, 35580, Note_on_c, 7, 73, 98
9, 35580, Note_on_c, 7, 69, 98
9, 35616, Note_on_c, 7, 69, 0
9, 35616, Note_on_c, 7, 45, 0
9, 35628, Note_on_c, 7, 73, 0
9, 35628, Note_on_c, 7, 69, 0
9, 35640, Note_on_c, 7, 73, 98
9, 35640, Note_on_c, 7, 69, 98
9, 35688, Note_on_c, 7, 69, 0
9, 35688, Note_on_c, 7, 73, 0
9, 35700, Note_on_c, 7, 73, 98
9, 35700, Note_on_c, 7, 69, 98
9, 35748, Note_on_c, 7, 69, 0
9, 35748, Note_on_c, 7, 73, 0
9, 35760, Note_on_c, 7, 85, 127
9, 35760, Note_on_c, 7, 69, 127
9, 35760, Note_on_c, 7, 73, 127
9, 35760, Control_c, 7, 7, 117
9, 35760, Note_on_c, 7, 69, 127
9, 35760, Note_on_c, 7, 57, 127
9, 35812, Note_on_c, 7, 69, 0
9, 35812, Note_on_c, 7, 73, 0
9, 35820, Note_on_c, 7, 73, 98
9, 35820, Note_on_c, 7, 69, 98
9, 35856, Note_on_c, 7, 85, 0
9, 35856, Note_on_c, 7, 57, 0
9, 35856, Note_on_c, 7, 69, 0
9, 35868, Note_on_c, 7, 73, 0
9, 35868, Note_on_c, 7, 69, 0
9, 35880, Note_on_c, 7, 73, 98
9, 35880, Note_on_c, 7, 69, 98
9, 35928, Note_on_c, 7, 69, 0
9, 35928, Note_on_c, 7, 73, 0
9, 35940, Note_on_c, 7, 73, 98
9, 35940, Note_on_c, 7, 69, 98
9, 35988, Note_on_c, 7, 69, 0
9, 35988, Note_on_c, 7, 73, 0
9, 36000, Note_on_c, 7, 72, 98
9, 36000, Control_c, 7, 7, 63
9, 36000, Note_on_c, 7, 69, 98
9, 36058, Note_on_c, 7, 69, 0
9, 36058, Note_on_c, 7, 72, 0
9, 36060, Note_on_c, 7, 72, 98
9, 36060, Note_on_c, 7, 69, 98
9, 36108, Note_on_c, 7, 69, 0
9, 36108, Note_on_c, 7, 72, 0
9, 36120, Note_on_c, 7, 78, 127
9, 36120, Note_on_c, 7, 72, 98
9, 36120, Note_on_c, 7, 69, 98
9, 36168, Note_on_c, 7, 69, 0
9, 36168, Note_on_c, 7, 72, 0
9, 36180, Note_on_c, 7, 72, 98
9, 36180, Note_on_c, 7, 69, 98
9, 36216, Note_on_c, 7, 78, 0
9, 36228, Note_on_c, 7, 69, 0
9, 36228, Note_on_c, 7, 72, 0
9, 36240, Note_on_c, 7, 81, 127
9, 36240, Note_on_c, 7, 72, 98
9, 36240, Note_on_c, 7, 69, 98
9, 36292, Note_on_c, 7, 69, 0
9, 36292, Note_on_c, 7, 72, 0
9, 36300, Note_on_c, 7, 72, 98
9, 36300, Note_on_c, 7, 69, 98
9, 36336, Note_on_c, 7, 81, 0
9, 36348, Note_on_c, 7, 69, 0
9, 36348, Note_on_c, 7, 72, 0
9, 36360, Note_on_c, 7, 78, 127
9, 36360, Note_on_c, 7, 72, 98
9, 36360, Note_on_c, 7, 69, 98
9, 36408, Note_on_c, 7, 69, 0
9, 36408, Note_on_c, 7, 72, 0
9, 36420, Note_on_c, 7, 72, 98
9, 36420, Note_on_c, 7, 69, 98
9, 36456, Note_on_c, 7, 78, 0
9, 36468, Note_on_c, 7, 69, 0
9, 36468, Note_on_c, 7, 72, 0
9, 36480, Note_on_c, 7, 75, 127
9, 36480, Note_on_c, 7, 71, 98
9, 36480, Note_on_c, 7, 69, 98
9, 36538, Note_on_c, 7, 69, 0
9, 36538, Note_on_c, 7, 71, 0
9, 36540, Note_on_c, 7, 71, 98
9, 36540, Note_on_c, 7, 69, 98
9, 36576, Note_on_c, 7, 75, 0
9, 36588, Note_on_c, 7, 69, 0
9, 36588, Note_on_c, 7, 71, 0
9, 36600, Note_on_c, 7, 71, 122
9, 36600, Note_on_c, 7, 71, 98
9, 36600, Note_on_c, 7, 69, 98
9, 36648, Note_on_c, 7, 69, 0
9, 36648, Note_on_c, 7, 71, 0
9, 36660, Note_on_c, 7, 71, 98
9, 36660, Note_on_c, 7, 69, 98
9, 36696, Note_on_c, 7, 71, 0
9, 36708, Note_on_c, 7, 69, 0
9, 36708, Note_on_c, 7, 71, 0
9, 36720, Note_on_c, 7, 71, 127
9, 36720, Note_on_c, 7, 83, 127
9, 36720, Note_on_c, 7, 71, 127
9, 36720, Note_on_c, 7, 64, 127
9, 36720, Control_c, 7, 7, 117
9, 36720, Note_on_c, 7, 67, 127
9, 36720, Note_on_c, 7, 55, 127
9, 36772, Note_on_c, 7, 67, 0
9, 36772, Note_on_c, 7, 71, 0
9, 36780, Note_on_c, 7, 71, 98
9, 36780, Note_on_c, 7, 67, 98
9, 36816, Note_on_c, 7, 71, 0
9, 36816, Note_on_c, 7, 64, 0
9, 36816, Note_on_c, 7, 83, 0
9, 36816, Note_on_c, 7, 55, 0
9, 36828, Note_on_c, 7, 71, 0
9, 36828, Note_on_c, 7, 67, 0
9, 36840, Note_on_c, 7, 71, 98
9, 36840, Note_on_c, 7, 67, 98
9, 36888, Note_on_c, 7, 67, 0
9, 36888, Note_on_c, 7, 71, 0
9, 36900, Note_on_c, 7, 71, 98
9, 36900, Note_on_c, 7, 67, 98
9, 36948, Note_on_c, 7, 67, 0
9, 36948, Note_on_c, 7, 71, 0
9, 36960, Note_on_c, 7, 70, 98
9, 36960, Control_c, 7, 7, 63
9, 36960, Note_on_c, 7, 67, 98
9, 37018, Note_on_c, 7, 67, 0
9, 37018, Note_on_c, 7, 70, 0
9, 37020, Note_on_c, 7, 70, 98
9, 37020, Note_on_c, 7, 67, 98
9, 37068, Note_on_c, 7, 67, 0
9, 37068, Note_on_c, 7, 70, 0
9, 37080, Note_on_c, 7, 76, 127
9, 37080, Note_on_c, 7, 70, 98
9, 37080, Note_on_c, 7, 67, 98
9, 37128, Note_on_c, 7, 67, 0
9, 37128, Note_on_c, 7, 70, 0
9, 37140, Note_on_c, 7, 70, 98
9, 37140, Note_on_c, 7, 67, 98
9, 37176, Note_on_c, 7, 76, 0
9, 37188, Note_on_c, 7, 67, 0
9, 37188, Note_on_c, 7, 70, 0
9, 37200, Note_on_c, 7, 79, 127
9, 37200, Note_on_c, 7, 70, 98
9, 37200, Note_on_c, 7, 67, 98
9, 37252, Note_on_c, 7, 67, 0
9, 37252, Note_on_c, 7, 70, 0
9, 37260, Note_on_c, 7, 70, 98
9, 37260, Note_on_c, 7, 67, 98
9, 37296, Note_on_c, 7, 79, 0
9, 37308, Note_on_c, 7, 67, 0
9, 37308, Note_on_c, 7, 70, 0
9, 37320, Note_on_c, 7, 76, 127
9, 37320, Note_on_c, 7, 70, 98
9, 37320, Note_on_c, 7, 67, 98
9, 37368, Note_on_c, 7, 67, 0
9, 37368, Note_on_c, 7, 70, 0
9, 37380, Note_on_c, 7, 70, 98
9, 37380, Note_on_c, 7, 67, 98
9, 37416, Note_on_c, 7, 76, 0
9, 37428, Note_on_c, 7, 67, 0
9, 37428, Note_on_c, 7, 70, 0
9, 37440, Note_on_c, 7, 73, 127
9, 37440, Note_on_c, 7, 69, 98
9, 37440, Note_on_c, 7, 67, 98
9, 37498, Note_on_c, 7, 67, 0
9, 37498, Note_on_c, 7, 69, 0
9, 37500, Note_on_c, 7, 69, 98
9, 37500, Note_on_c, 7, 67, 98
9, 37536, Note_on_c, 7, 73, 0
9, 37548, Note_on_c, 7, 67, 0
9, 37548, Note_on_c, 7, 69, 0
9, 37560, Note_on_c, 7, 69, 122
9, 37560, Note_on_c, 7, 69, 98
9, 37560, Note_on_c, 7, 67, 98
9, 37608, Note_on_c, 7, 67, 0
9, 37608, Note_on_c, 7, 69, 0
9, 37620, Note_on_c, 7, 69, 98
9, 37620, Note_on_c, 7, 67, 98
9, 37656, Note_on_c, 7, 69, 0
9, 37668, Note_on_c, 7, 67, 0
9, 37668, Note_on_c, 7, 69, 0
9, 37680, Note_on_c, 7, 62, 127
9, 37680, Note_on_c, 7, 69, 127
9, 37680, Note_on_c, 7, 81, 127
9, 37680, Note_on_c, 7, 69, 127
9, 37680, Control_c, 7, 7, 118
9, 37680, Note_on_c, 7, 65, 127
9, 37680, Note_on_c, 7, 53, 127
9, 37732, Note_on_c, 7, 65, 0
9, 37732, Note_on_c, 7, 69, 0
9, 37740, Note_on_c, 7, 69, 98
9, 37740, Note_on_c, 7, 65, 98
9, 37776, Note_on_c, 7, 69, 0
9, 37776, Note_on_c, 7, 81, 0
9, 37776, Note_on_c, 7, 62, 0
9, 37776, Note_on_c, 7, 53, 0
9, 37788, Note_on_c, 7, 69, 0
9, 37788, Note_on_c, 7, 65, 0
9, 37800, Note_on_c, 7, 69, 98
9, 37800, Note_on_c, 7, 65, 98
9, 37848, Note_on_c, 7, 65, 0
9, 37848, Note_on_c, 7, 69, 0
9, 37860, Note_on_c, 7, 69, 98
9, 37860, Note_on_c, 7, 65, 98
9, 37908, Note_on_c, 7, 65, 0
9, 37908, Note_on_c, 7, 69, 0
9, 37920, Note_on_c, 7, 69, 98
9, 37920, Control_c, 7, 7, 64
9, 37920, Note_on_c, 7, 65, 98
9, 37978, Note_on_c, 7, 65, 0
9, 37978, Note_on_c, 7, 69, 0
9, 37980, Note_on_c, 7, 69, 98
9, 37980, Note_on_c, 7, 65, 98
9, 38028, Note_on_c, 7, 65, 0
9, 38028, Note_on_c, 7, 69, 0
9, 38040, Note_on_c, 7, 74, 127
9, 38040, Note_on_c, 7, 69, 98
9, 38040, Note_on_c, 7, 65, 98
9, 38088, Note_on_c, 7, 65, 0
9, 38088, Note_on_c, 7, 69, 0
9, 38100, Note_on_c, 7, 69, 98
9, 38100, Note_on_c, 7, 65, 98
9, 38136, Note_on_c, 7, 74, 0
9, 38148, Note_on_c, 7, 65, 0
9, 38148, Note_on_c, 7, 69, 0
9, 38160, Note_on_c, 7, 77, 127
9, 38160, Note_on_c, 7, 69, 98
9, 38160, Note_on_c, 7, 65, 98
9, 38212, Note_on_c, 7, 65, 0
9, 38212, Note_on_c, 7, 69, 0
9, 38220, Note_on_c, 7, 69, 98
9, 38220, Note_on_c, 7, 65, 98
9, 38256, Note_on_c, 7, 77, 0
9, 38268, Note_on_c, 7, 65, 0
9, 38268, Note_on_c, 7, 69, 0
9, 38280, Note_on_c, 7, 74, 127
9, 38280, Note_on_c, 7, 69, 98
9, 38280, Note_on_c, 7, 65, 98
9, 38328, Note_on_c, 7, 65, 0
9, 38328, Note_on_c, 7, 69, 0
9, 38340, Note_on_c, 7, 69, 98
9, 38340, Note_on_c, 7, 65, 98
9, 38376, Note_on_c, 7, 74, 0
9, 38388, Note_on_c, 7, 65, 0
9, 38388, Note_on_c, 7, 69, 0
9, 38400, Note_on_c, 7, 68, 101
9, 38400, Note_on_c, 7, 62, 101
9, 38400, Control_c, 7, 7, 117
9, 38400, Note_on_c, 7, 59, 101
9, 38400, Note_on_c, 7, 52, 101
9, 38458, Note_on_c, 7, 52, 0
9, 38458, Note_on_c, 7, 59, 0
9, 38458, Note_on_c, 7, 62, 0
9, 38460, Note_on_c, 7, 62, 102
9, 38460, Note_on_c, 7, 59, 102
9, 38460, Note_on_c, 7, 52, 102
9, 38496, Note_on_c, 7, 68, 0
9, 38508, Note_on_c, 7, 62, 0
9, 38508, Note_on_c, 7, 59, 0
9, 38508, Note_on_c, 7, 52, 0
9, 38520, Note_on_c, 7, 80, 103
9, 38520, Note_on_c, 7, 62, 103
9, 38520, Note_on_c, 7, 59, 103
9, 38520, Note_on_c, 7, 52, 103
9, 38568, Note_on_c, 7, 52, 0
9, 38568, Note_on_c, 7, 59, 0
9, 38568, Note_on_c, 7, 62, 0
9, 38580, Note_on_c, 7, 62, 104
9, 38580, Note_on_c, 7, 59, 104
9, 38580, Note_on_c, 7, 52, 104
9, 38616, Note_on_c, 7, 80, 0
9, 38628, Note_on_c, 7, 62, 0
9, 38628, Note_on_c, 7, 59, 0
9, 38628, Note_on_c, 7, 52, 0
9, 38640, Note_on_c, 7, 62, 105
9, 38640, Note_on_c, 7, 59, 105
9, 38640, Note_on_c, 7, 52, 105
9, 38692, Note_on_c, 7, 52, 0
9, 38692, Note_on_c, 7, 59, 0
9, 38692, Note_on_c, 7, 62, 0
9, 38700, Note_on_c, 7, 62, 106
9, 38700, Note_on_c, 7, 59, 106
9, 38700, Note_on_c, 7, 52, 106
9, 38748, Note_on_c, 7, 52, 0
9, 38748, Note_on_c, 7, 59, 0
9, 38748, Note_on_c, 7, 62, 0
9, 38760, Note_on_c, 7, 68, 107
9, 38760, Note_on_c, 7, 62, 107
9, 38760, Note_on_c, 7, 59, 107
9, 38760, Note_on_c, 7, 52, 107
9, 38808, Note_on_c, 7, 52, 0
9, 38808, Note_on_c, 7, 59, 0
9, 38808, Note_on_c, 7, 62, 0
9, 38820, Note_on_c, 7, 62, 110
9, 38820, Note_on_c, 7, 59, 110
9, 38820, Note_on_c, 7, 52, 110
9, 38856, Note_on_c, 7, 68, 0
9, 38868, Note_on_c, 7, 62, 0
9, 38868, Note_on_c, 7, 59, 0
9, 38868, Note_on_c, 7, 52, 0
9, 38880, Note_on_c, 7, 69, 112
9, 38880, Note_on_c, 7, 61, 112
9, 38880, Note_on_c, 7, 57, 112
9, 38880, Note_on_c, 7, 52, 112
9, 38938, Note_on_c, 7, 52, 0
9, 38938, Note_on_c, 7, 57, 0
9, 38938, Note_on_c, 7, 61, 0
9, 38940, Note_on_c, 7, 61, 113
9, 38940, Note_on_c, 7, 57, 113
9, 38940, Note_on_c, 7, 52, 113
9, 38976, Note_on_c, 7, 69, 0
9, 38988, Note_on_c, 7, 61, 0
9, 38988, Note_on_c, 7, 57, 0
9, 38988, Note_on_c, 7, 52, 0
9, 39000, Note_on_c, 7, 81, 115
9, 39000, Note_on_c, 7, 61, 115
9, 39000, Note_on_c, 7, 57, 115
9, 39000, Note_on_c, 7, 52, 115
9, 39048, Note_on_c, 7, 52, 0
9, 39048, Note_on_c, 7, 57, 0
9, 39048, Note_on_c, 7, 61, 0
9, 39060, Note_on_c, 7, 61, 117
9, 39060, Note_on_c, 7, 57, 117
9, 39060, Note_on_c, 7, 52, 117
9, 39096, Note_on_c, 7, 81, 0
9, 39108, Note_on_c, 7, 61, 0
9, 39108, Note_on_c, 7, 57, 0
9, 39108, Note_on_c, 7, 52, 0
9, 39120, Note_on_c, 7, 61, 119
9, 39120, Note_on_c, 7, 57, 119
9, 39120, Note_on_c, 7, 52, 119
9, 39172, Note_on_c, 7, 52, 0
9, 39172, Note_on_c, 7, 57, 0
9, 39172, Note_on_c, 7, 61, 0
9, 39180, Note_on_c, 7, 61, 120
9, 39180, Note_on_c, 7, 57, 120
9, 39180, Note_on_c, 7, 52, 120
9, 39228, Note_on_c, 7, 52, 0
9, 39228, Note_on_c, 7, 57, 0
9, 39228, Note_on_c, 7, 61, 0
9, 39240, Note_on_c, 7, 69, 124
9, 39240, Note_on_c, 7, 61, 124
9, 39240, Note_on_c, 7, 57, 124
9, 39240, Note_on_c, 7, 52, 124
9, 39288, Note_on_c, 7, 52, 0
9, 39288, Note_on_c, 7, 57, 0
9, 39288, Note_on_c, 7, 61, 0
9, 39300, Note_on_c, 7, 61, 127
9, 39300, Note_on_c, 7, 57, 127
9, 39300, Note_on_c, 7, 52, 127
9, 39336, Note_on_c, 7, 69, 0
9, 39348, Note_on_c, 7, 61, 0
9, 39348, Note_on_c, 7, 57, 0
9, 39348, Note_on_c, 7, 52, 0
9, 39360, Note_on_c, 7, 71, 127
9, 39360, Note_on_c, 7, 68, 127
9, 39360, Note_on_c, 7, 62, 127
9, 39360, Note_on_c, 7, 52, 127
9, 39418, Note_on_c, 7, 52, 0
9, 39418, Note_on_c, 7, 62, 0
9, 39418, Note_on_c, 7, 68, 0
9, 39420, Note_on_c, 7, 68, 127
9, 39420, Note_on_c, 7, 62, 127
9, 39420, Note_on_c, 7, 52, 127
9, 39456, Note_on_c, 7, 71, 0
9, 39468, Note_on_c, 7, 68, 0
9, 39468, Note_on_c, 7, 62, 0
9, 39468, Note_on_c, 7, 52, 0
9, 39480, Note_on_c, 7, 83, 127
9, 39480, Note_on_c, 7, 68, 127
9, 39480, Note_on_c, 7, 62, 127
9, 39480, Note_on_c, 7, 52, 127
9, 39528, Note_on_c, 7, 52, 0
9, 39528, Note_on_c, 7, 62, 0
9, 39528, Note_on_c, 7, 68, 0
9, 39540, Note_on_c, 7, 68, 127
9, 39540, Note_on_c, 7, 62, 127
9, 39540, Note_on_c, 7, 52, 127
9, 39576, Note_on_c, 7, 83, 0
9, 39588, Note_on_c, 7, 68, 0
9, 39588, Note_on_c, 7, 62, 0
9, 39588, Note_on_c, 7, 52, 0
9, 39600, Note_on_c, 7, 68, 127
9, 39600, Note_on_c, 7, 62, 127
9, 39600, Note_on_c, 7, 52, 127
9, 39652, Note_on_c, 7, 52, 0
9, 39652, Note_on_c, 7, 62, 0
9, 39652, Note_on_c, 7, 68, 0
9, 39660, Note_on_c, 7, 68, 127
9, 39660, Note_on_c, 7, 62, 127
9, 39660, Note_on_c, 7, 52, 127
9, 39708, Note_on_c, 7, 52, 0
9, 39708, Note_on_c, 7, 62, 0
9, 39708, Note_on_c, 7, 68, 0
9, 39720, Note_on_c, 7, 71, 127
9, 39720, Note_on_c, 7, 68, 127
9, 39720, Note_on_c, 7, 62, 127
9, 39720, Note_on_c, 7, 52, 127
9, 39768, Note_on_c, 7, 52, 0
9, 39768, Note_on_c, 7, 62, 0
9, 39768, Note_on_c, 7, 68, 0
9, 39780, Note_on_c, 7, 68, 127
9, 39780, Note_on_c, 7, 62, 127
9, 39780, Note_on_c, 7, 52, 127
9, 39816, Note_on_c, 7, 71, 0
9, 39828, Note_on_c, 7, 68, 0
9, 39828, Note_on_c, 7, 62, 0
9, 39828, Note_on_c, 7, 52, 0
9, 39840, Note_on_c, 7, 73, 127
9, 39840, Note_on_c, 7, 69, 127
9, 39840, Note_on_c, 7, 61, 127
9, 39840, Note_on_c, 7, 52, 127
9, 39898, Note_on_c, 7, 52, 0
9, 39898, Note_on_c, 7, 61, 0
9, 39898, Note_on_c, 7, 69, 0
9, 39900, Note_on_c, 7, 69, 127
9, 39900, Note_on_c, 7, 61, 127
9, 39900, Note_on_c, 7, 52, 127
9, 39936, Note_on_c, 7, 73, 0
9, 39948, Note_on_c, 7, 69, 0
9, 39948, Note_on_c, 7, 61, 0
9, 39948, Note_on_c, 7, 52, 0
9, 39960, Note_on_c, 7, 85, 127
9, 39960, Note_on_c, 7, 69, 127
9, 39960, Note_on_c, 7, 61, 127
9, 39960, Note_on_c, 7, 52, 127
9, 40008, Note_on_c, 7, 52, 0
9, 40008, Note_on_c, 7, 61, 0
9, 40008, Note_on_c, 7, 69, 0
9, 40020, Note_on_c, 7, 69, 127
9, 40020, Note_on_c, 7, 61, 127
9, 40020, Note_on_c, 7, 52, 127
9, 40056, Note_on_c, 7, 85, 0
9, 40068, Note_on_c, 7, 69, 0
9, 40068, Note_on_c, 7, 61, 0
9, 40068, Note_on_c, 7, 52, 0
9, 40080, Note_on_c, 7, 74, 127
9, 40080, Note_on_c, 7, 80, 127
9, 40080, Note_on_c, 7, 71, 127
9, 40080, Note_on_c, 7, 64, 127
9, 40080, Note_on_c, 7, 52, 127
9, 40132, Note_on_c, 7, 52, 0
9, 40132, Note_on_c, 7, 71, 0
9, 40132, Note_on_c, 7, 64, 0
9, 40132, Note_on_c, 7, 80, 0
9, 40140, Note_on_c, 7, 80, 127
9, 40140, Note_on_c, 7, 71, 127
9, 40140, Note_on_c, 7, 64, 127
9, 40140, Note_on_c, 7, 52, 127
9, 40176, Note_on_c, 7, 74, 0
9, 40188, Note_on_c, 7, 64, 0
9, 40188, Note_on_c, 7, 80, 0
9, 40188, Note_on_c, 7, 71, 0
9, 40188, Note_on_c, 7, 52, 0
9, 40200, Note_on_c, 7, 86, 127
9, 40200, Note_on_c, 7, 80, 127
9, 40200, Note_on_c, 7, 71, 127
9, 40200, Note_on_c, 7, 64, 127
9, 40200, Note_on_c, 7, 52, 127
9, 40248, Note_on_c, 7, 52, 0
9, 40248, Note_on_c, 7, 71, 0
9, 40248, Note_on_c, 7, 64, 0
9, 40248, Note_on_c, 7, 80, 0
9, 40260, Note_on_c, 7, 80, 127
9, 40260, Note_on_c, 7, 71, 127
9, 40260, Note_on_c, 7, 64, 127
9, 40260, Note_on_c, 7, 52, 127
9, 40296, Note_on_c, 7, 86, 0
9, 40308, Note_on_c, 7, 64, 0
9, 40308, Note_on_c, 7, 80, 0
9, 40308, Note_on_c, 7, 71, 0
9, 40308, Note_on_c, 7, 52, 0
9, 40320, Note_on_c, 7, 85, 127
9, 40320, Note_on_c, 7, 81, 127
9, 40320, Note_on_c, 7, 73, 127
9, 40320, Note_on_c, 7, 69, 127
9, 40320, Note_on_c, 7, 69, 127
9, 40320, Note_on_c, 7, 57, 127
9, 40378, Note_on_c, 7, 69, 0
9, 40378, Note_on_c, 7, 73, 0
9, 40378, Note_on_c, 7, 85, 0
9, 40378, Note_on_c, 7, 81, 0
9, 40380, Note_on_c, 7, 85, 127
9, 40380, Note_on_c, 7, 81, 127
9, 40380, Note_on_c, 7, 73, 127
9, 40380, Note_on_c, 7, 69, 127
9, 40428, Note_on_c, 7, 69, 0
9, 40428, Note_on_c, 7, 81, 0
9, 40428, Note_on_c, 7, 85, 0
9, 40428, Note_on_c, 7, 73, 0
9, 40440, Note_on_c, 7, 85, 127
9, 40440, Note_on_c, 7, 81, 127
9, 40440, Note_on_c, 7, 73, 127
9, 40440, Note_on_c, 7, 69, 127
9, 40488, Note_on_c, 7, 69, 0
9, 40488, Note_on_c, 7, 81, 0
9, 40488, Note_on_c, 7, 85, 0
9, 40488, Note_on_c, 7, 73, 0
9, 40500, Note_on_c, 7, 85, 113
9, 40500, Note_on_c, 7, 81, 113
9, 40500, Note_on_c, 7, 73, 113
9, 40500, Note_on_c, 7, 69, 113
9, 40545, Note_on_c, 7, 57, 0
9, 40545, Note_on_c, 7, 69, 0
9, 40548, Note_on_c, 7, 73, 0
9, 40548, Note_on_c, 7, 81, 0
9, 40548, Note_on_c, 7, 69, 0
9, 40548, Note_on_c, 7, 85, 0
9, 40560, Note_on_c, 7, 85, 108
9, 40560, Note_on_c, 7, 81, 108
9, 40560, Note_on_c, 7, 73, 108
9, 40560, Note_on_c, 7, 69, 108
9, 40560, Control_c, 7, 7, 126
9, 40612, Note_on_c, 7, 69, 0
9, 40612, Note_on_c, 7, 85, 0
9, 40612, Note_on_c, 7, 81, 0
9, 40612, Note_on_c, 7, 73, 0
9, 40620, Note_on_c, 7, 85, 106
9, 40620, Note_on_c, 7, 81, 106
9, 40620, Note_on_c, 7, 73, 106
9, 40620, Note_on_c, 7, 69, 106
9, 40668, Note_on_c, 7, 69, 0
9, 40668, Note_on_c, 7, 85, 0
9, 40668, Note_on_c, 7, 81, 0
9, 40668, Note_on_c, 7, 73, 0
9, 40680, Note_on_c, 7, 85, 98
9, 40680, Note_on_c, 7, 81, 98
9, 40680, Note_on_c, 7, 73, 98
9, 40680, Note_on_c, 7, 69, 98
9, 40680, Note_on_c, 7, 57, 98
9, 40680, Note_on_c, 7, 57, 121
9, 40728, Note_on_c, 7, 69, 0
9, 40728, Note_on_c, 7, 73, 0
9, 40728, Note_on_c, 7, 85, 0
9, 40728, Note_on_c, 7, 81, 0
9, 40740, Note_on_c, 7, 85, 98
9, 40740, Note_on_c, 7, 81, 98
9, 40740, Note_on_c, 7, 73, 98
9, 40740, Note_on_c, 7, 69, 98
9, 40776, Note_on_c, 7, 57, 0
9, 40788, Note_on_c, 7, 85, 0
9, 40788, Note_on_c, 7, 81, 0
9, 40788, Note_on_c, 7, 73, 0
9, 40788, Note_on_c, 7, 69, 0
9, 40800, Note_on_c, 7, 57, 0
9, 40800, Note_on_c, 7, 69, 98
9, 40800, Note_on_c, 7, 73, 98
9, 40800, Note_on_c, 7, 81, 98
9, 40800, Note_on_c, 7, 85, 98
9, 40800, Note_on_c, 7, 59, 98
9, 40800, Note_on_c, 7, 59, 126
9, 40858, Note_on_c, 7, 85, 0
9, 40858, Note_on_c, 7, 81, 0
9, 40858, Note_on_c, 7, 69, 0
9, 40858, Note_on_c, 7, 73, 0
9, 40860, Note_on_c, 7, 69, 98
9, 40860, Note_on_c, 7, 73, 98
9, 40860, Note_on_c, 7, 81, 98
9, 40860, Note_on_c, 7, 85, 98
9, 40896, Note_on_c, 7, 59, 0
9, 40908, Note_on_c, 7, 69, 0
9, 40908, Note_on_c, 7, 73, 0
9, 40908, Note_on_c, 7, 81, 0
9, 40908, Note_on_c, 7, 85, 0
9, 40920, Note_on_c, 7, 59, 0
9, 40920, Note_on_c, 7, 69, 98
9, 40920, Note_on_c, 7, 73, 98
9, 40920, Note_on_c, 7, 81, 98
9, 40920, Note_on_c, 7, 85, 98
9, 40920, Note_on_c, 7, 61, 98
9, 40920, Note_on_c, 7, 61, 127
9, 40968, Note_on_c, 7, 85, 0
9, 40968, Note_on_c, 7, 81, 0
9, 40968, Note_on_c, 7, 69, 0
9, 40968, Note_on_c, 7, 73, 0
9, 40980, Note_on_c, 7, 69, 98
9, 40980, Note_on_c, 7, 73, 98
9, 40980, Note_on_c, 7, 81, 98
9, 40980, Note_on_c, 7, 85, 98
9, 41016, Note_on_c, 7, 61, 0
9, 41028, Note_on_c, 7, 69, 0
9, 41028, Note_on_c, 7, 73, 0
9, 41028, Note_on_c, 7, 81, 0
9, 41028, Note_on_c, 7, 85, 0
9, 41040, Note_on_c, 7, 61, 0
9, 41040, Note_on_c, 7, 69, 98
9, 41040, Note_on_c, 7, 73, 98
9, 41040, Note_on_c, 7, 81, 98
9, 41040, Note_on_c, 7, 85, 98
9, 41040, Note_on_c, 7, 62, 98
9, 41040, Note_on_c, 7, 62, 127
9, 41092, Note_on_c, 7, 85, 0
9, 41092, Note_on_c, 7, 81, 0
9, 41092, Note_on_c, 7, 69, 0
9, 41092, Note_on_c, 7, 73, 0
9, 41100, Note_on_c, 7, 69, 98
9, 41100, Note_on_c, 7, 73, 98
9, 41100, Note_on_c, 7, 81, 98
9, 41100, Note_on_c, 7, 85, 98
9, 41136, Note_on_c, 7, 62, 0
9, 41148, Note_on_c, 7, 69, 0
9, 41148, Note_on_c, 7, 73, 0
9, 41148, Note_on_c, 7, 81, 0
9, 41148, Note_on_c, 7, 85, 0
9, 41160, Note_on_c, 7, 62, 0
9, 41160, Note_on_c, 7, 69, 98
9, 41160, Note_on_c, 7, 73, 98
9, 41160, Note_on_c, 7, 81, 98
9, 41160, Note_on_c, 7, 85, 98
9, 41160, Note_on_c, 7, 63, 98
9, 41160, Note_on_c, 7, 63, 127
9, 41208, Note_on_c, 7, 85, 0
9, 41208, Note_on_c, 7, 81, 0
9, 41208, Note_on_c, 7, 69, 0
9, 41208, Note_on_c, 7, 73, 0
9, 41220, Note_on_c, 7, 69, 98
9, 41220, Note_on_c, 7, 73, 98
9, 41220, Note_on_c, 7, 81, 98
9, 41220, Note_on_c, 7, 85, 98
9, 41256, Note_on_c, 7, 63, 0
9, 41268, Note_on_c, 7, 69, 0
9, 41268, Note_on_c, 7, 73, 0
9, 41268, Note_on_c, 7, 81, 0
9, 41268, Note_on_c, 7, 85, 0
9, 41280, Note_on_c, 7, 63, 0
9, 41280, Note_on_c, 7, 69, 98
9, 41280, Note_on_c, 7, 73, 98
9, 41280, Note_on_c, 7, 81, 98
9, 41280, Note_on_c, 7, 85, 98
9, 41280, Note_on_c, 7, 66, 98
9, 41280, Note_on_c, 7, 66, 127
9, 41338, Note_on_c, 7, 85, 0
9, 41338, Note_on_c, 7, 81, 0
9, 41338, Note_on_c, 7, 69, 0
9, 41338, Note_on_c, 7, 73, 0
9, 41340, Note_on_c, 7, 69, 98
9, 41340, Note_on_c, 7, 73, 98
9, 41340, Note_on_c, 7, 81, 98
9, 41340, Note_on_c, 7, 85, 98
9, 41376, Note_on_c, 7, 66, 0
9, 41388, Note_on_c, 7, 69, 0
9, 41388, Note_on_c, 7, 73, 0
9, 41388, Note_on_c, 7, 81, 0
9, 41388, Note_on_c, 7, 85, 0
9, 41400, Note_on_c, 7, 66, 0
9, 41400, Note_on_c, 7, 69, 98
9, 41400, Note_on_c, 7, 73, 98
9, 41400, Note_on_c, 7, 81, 98
9, 41400, Note_on_c, 7, 85, 98
9, 41400, Note_on_c, 7, 64, 98
9, 41400, Note_on_c, 7, 64, 124
9, 41448, Note_on_c, 7, 85, 0
9, 41448, Note_on_c, 7, 81, 0
9, 41448, Note_on_c, 7, 69, 0
9, 41448, Note_on_c, 7, 73, 0
9, 41460, Note_on_c, 7, 69, 98
9, 41460, Note_on_c, 7, 73, 98
9, 41460, Note_on_c, 7, 81, 98
9, 41460, Note_on_c, 7, 85, 98
9, 41496, Note_on_c, 7, 64, 0
9, 41496, Note_on_c, 7, 64, 0
9, 41508, Note_on_c, 7, 81, 0
9, 41508, Note_on_c, 7, 73, 0
9, 41508, Note_on_c, 7, 85, 0
9, 41508, Note_on_c, 7, 69, 0
9, 41520, Note_on_c, 7, 69, 98
9, 41520, Note_on_c, 7, 73, 98
9, 41520, Note_on_c, 7, 81, 98
9, 41520, Note_on_c, 7, 85, 98
9, 41572, Note_on_c, 7, 85, 0
9, 41572, Note_on_c, 7, 69, 0
9, 41572, Note_on_c, 7, 73, 0
9, 41572, Note_on_c, 7, 81, 0
9, 41580, Note_on_c, 7, 69, 98
9, 41580, Note_on_c, 7, 73, 98
9, 41580, Note_on_c, 7, 81, 98
9, 41580, Note_on_c, 7, 85, 98
9, 41628, Note_on_c, 7, 85, 0
9, 41628, Note_on_c, 7, 69, 0
9, 41628, Note_on_c, 7, 73, 0
9, 41628, Note_on_c, 7, 81, 0
9, 41640, Note_on_c, 7, 69, 98
9, 41640, Note_on_c, 7, 73, 98
9, 41640, Note_on_c, 7, 81, 98
9, 41640, Note_on_c, 7, 85, 98
9, 41640, Note_on_c, 7, 57, 98
9, 41640, Note_on_c, 7, 57, 126
9, 41688, Note_on_c, 7, 85, 0
9, 41688, Note_on_c, 7, 81, 0
9, 41688, Note_on_c, 7, 69, 0
9, 41688, Note_on_c, 7, 73, 0
9, 41700, Note_on_c, 7, 69, 98
9, 41700, Note_on_c, 7, 73, 98
9, 41700, Note_on_c, 7, 81, 98
9, 41700, Note_on_c, 7, 85, 98
9, 41736, Note_on_c, 7, 57, 0
9, 41748, Note_on_c, 7, 69, 0
9, 41748, Note_on_c, 7, 73, 0
9, 41748, Note_on_c, 7, 81, 0
9, 41748, Note_on_c, 7, 85, 0
9, 41760, Note_on_c, 7, 57, 0
9, 41760, Note_on_c, 7, 69, 98
9, 41760, Note_on_c, 7, 73, 98
9, 41760, Note_on_c, 7, 81, 98
9, 41760, Note_on_c, 7, 85, 98
9, 41760, Note_on_c, 7, 59, 98
9, 41760, Note_on_c, 7, 59, 127
9, 41818, Note_on_c, 7, 85, 0
9, 41818, Note_on_c, 7, 81, 0
9, 41818, Note_on_c, 7, 69, 0
9, 41818, Note_on_c, 7, 73, 0
9, 41820, Note_on_c, 7, 69, 98
9, 41820, Note_on_c, 7, 73, 98
9, 41820, Note_on_c, 7, 81, 98
9, 41820, Note_on_c, 7, 85, 98
9, 41856, Note_on_c, 7, 59, 0
9, 41868, Note_on_c, 7, 69, 0
9, 41868, Note_on_c, 7, 73, 0
9, 41868, Note_on_c, 7, 81, 0
9, 41868, Note_on_c, 7, 85, 0
9, 41880, Note_on_c, 7, 59, 0
9, 41880, Note_on_c, 7, 69, 98
9, 41880, Note_on_c, 7, 73, 98
9, 41880, Note_on_c, 7, 81, 98
9, 41880, Note_on_c, 7, 85, 98
9, 41880, Note_on_c, 7, 61, 98
9, 41880, Note_on_c, 7, 61, 127
9, 41928, Note_on_c, 7, 85, 0
9, 41928, Note_on_c, 7, 81, 0
9, 41928, Note_on_c, 7, 69, 0
9, 41928, Note_on_c, 7, 73, 0
9, 41940, Note_on_c, 7, 69, 98
9, 41940, Note_on_c, 7, 73, 98
9, 41940, Note_on_c, 7, 81, 98
9, 41940, Note_on_c, 7, 85, 98
9, 41976, Note_on_c, 7, 61, 0
9, 41988, Note_on_c, 7, 69, 0
9, 41988, Note_on_c, 7, 73, 0
9, 41988, Note_on_c, 7, 81, 0
9, 41988, Note_on_c, 7, 85, 0
9, 42000, Note_on_c, 7, 61, 0
9, 42000, Note_on_c, 7, 69, 98
9, 42000, Note_on_c, 7, 73, 98
9, 42000, Note_on_c, 7, 81, 98
9, 42000, Note_on_c, 7, 85, 98
9, 42000, Note_on_c, 7, 62, 98
9, 42000, Note_on_c, 7, 62, 127
9, 42052, Note_on_c, 7, 85, 0
9, 42052, Note_on_c, 7, 81, 0
9, 42052, Note_on_c, 7, 69, 0
9, 42052, Note_on_c, 7, 73, 0
9, 42060, Note_on_c, 7, 69, 98
9, 42060, Note_on_c, 7, 73, 98
9, 42060, Note_on_c, 7, 81, 98
9, 42060, Note_on_c, 7, 85, 98
9, 42096, Note_on_c, 7, 62, 0
9, 42108, Note_on_c, 7, 69, 0
9, 42108, Note_on_c, 7, 73, 0
9, 42108, Note_on_c, 7, 81, 0
9, 42108, Note_on_c, 7, 85, 0
9, 42120, Note_on_c, 7, 62, 0
9, 42120, Note_on_c, 7, 69, 98
9, 42120, Note_on_c, 7, 73, 98
9, 42120, Note_on_c, 7, 81, 98
9, 42120, Note_on_c, 7, 85, 98
9, 42120, Note_on_c, 7, 63, 98
9, 42120, Note_on_c, 7, 63, 127
9, 42168, Note_on_c, 7, 85, 0
9, 42168, Note_on_c, 7, 81, 0
9, 42168, Note_on_c, 7, 69, 0
9, 42168, Note_on_c, 7, 73, 0
9, 42180, Note_on_c, 7, 69, 98
9, 42180, Note_on_c, 7, 73, 98
9, 42180, Note_on_c, 7, 81, 98
9, 42180, Note_on_c, 7, 85, 98
9, 42216, Note_on_c, 7, 63, 0
9, 42228, Note_on_c, 7, 69, 0
9, 42228, Note_on_c, 7, 73, 0
9, 42228, Note_on_c, 7, 81, 0
9, 42228, Note_on_c, 7, 85, 0
9, 42240, Note_on_c, 7, 63, 0
9, 42240, Note_on_c, 7, 69, 98
9, 42240, Note_on_c, 7, 73, 98
9, 42240, Note_on_c, 7, 81, 98
9, 42240, Note_on_c, 7, 85, 98
9, 42240, Note_on_c, 7, 66, 98
9, 42240, Note_on_c, 7, 66, 127
9, 42298, Note_on_c, 7, 85, 0
9, 42298, Note_on_c, 7, 81, 0
9, 42298, Note_on_c, 7, 69, 0
9, 42298, Note_on_c, 7, 73, 0
9, 42300, Note_on_c, 7, 69, 98
9, 42300, Note_on_c, 7, 73, 98
9, 42300, Note_on_c, 7, 81, 98
9, 42300, Note_on_c, 7, 85, 98
9, 42336, Note_on_c, 7, 66, 0
9, 42348, Note_on_c, 7, 69, 0
9, 42348, Note_on_c, 7, 73, 0
9, 42348, Note_on_c, 7, 81, 0
9, 42348, Note_on_c, 7, 85, 0
9, 42360, Note_on_c, 7, 66, 0
9, 42360, Note_on_c, 7, 69, 98
9, 42360, Note_on_c, 7, 73, 98
9, 42360, Note_on_c, 7, 81, 98
9, 42360, Note_on_c, 7, 85, 98
9, 42360, Note_on_c, 7, 64, 98
9, 42360, Note_on_c, 7, 64, 123
9, 42408, Note_on_c, 7, 85, 0
9, 42408, Note_on_c, 7, 81, 0
9, 42408, Note_on_c, 7, 69, 0
9, 42408, Note_on_c, 7, 73, 0
9, 42420, Note_on_c, 7, 69, 98
9, 42420, Note_on_c, 7, 73, 98
9, 42420, Note_on_c, 7, 81, 98
9, 42420, Note_on_c, 7, 85, 98
9, 42456, Note_on_c, 7, 64, 0
9, 42456, Note_on_c, 7, 64, 0
9, 42468, Note_on_c, 7, 81, 0
9, 42468, Note_on_c, 7, 73, 0
9, 42468, Note_on_c, 7, 85, 0
9, 42468, Note_on_c, 7, 69, 0
9, 42480, Note_on_c, 7, 69, 98
9, 42480, Note_on_c, 7, 73, 98
9, 42480, Note_on_c, 7, 81, 98
9, 42480, Note_on_c, 7, 85, 98
9, 42532, Note_on_c, 7, 85, 0
9, 42532, Note_on_c, 7, 69, 0
9, 42532, Note_on_c, 7, 73, 0
9, 42532, Note_on_c, 7, 81, 0
9, 42540, Note_on_c, 7, 69, 98
9, 42540, Note_on_c, 7, 73, 98
9, 42540, Note_on_c, 7, 81, 98
9, 42540, Note_on_c, 7, 85, 98
9, 42588, Note_on_c, 7, 85, 0
9, 42588, Note_on_c, 7, 69, 0
9, 42588, Note_on_c, 7, 73, 0
9, 42588, Note_on_c, 7, 81, 0
9, 42600, Note_on_c, 7, 69, 98
9, 42600, Note_on_c, 7, 73, 98
9, 42600, Note_on_c, 7, 81, 98
9, 42600, Note_on_c, 7, 85, 98
9, 42600, Note_on_c, 7, 57, 98
9, 42600, Note_on_c, 7, 57, 104
9, 42648, Note_on_c, 7, 85, 0
9, 42648, Note_on_c, 7, 81, 0
9, 42648, Note_on_c, 7, 69, 0
9, 42648, Note_on_c, 7, 73, 0
9, 42660, Note_on_c, 7, 69, 98
9, 42660, Note_on_c, 7, 73, 98
9, 42660, Note_on_c, 7, 81, 98
9, 42660, Note_on_c, 7, 85, 98
9, 42696, Note_on_c, 7, 57, 0
9, 42708, Note_on_c, 7, 69, 0
9, 42708, Note_on_c, 7, 73, 0
9, 42708, Note_on_c, 7, 81, 0
9, 42708, Note_on_c, 7, 85, 0
9, 42720, Note_on_c, 7, 57, 0
9, 42720, Note_on_c, 7, 69, 98
9, 42720, Note_on_c, 7, 73, 98
9, 42720, Note_on_c, 7, 81, 98
9, 42720, Note_on_c, 7, 85, 98
9, 42720, Note_on_c, 7, 59, 98
9, 42720, Note_on_c, 7, 59, 110
9, 42778, Note_on_c, 7, 85, 0
9, 42778, Note_on_c, 7, 81, 0
9, 42778, Note_on_c, 7, 69, 0
9, 42778, Note_on_c, 7, 73, 0
9, 42780, Note_on_c, 7, 69, 98
9, 42780, Note_on_c, 7, 73, 98
9, 42780, Note_on_c, 7, 81, 98
9, 42780, Note_on_c, 7, 85, 98
9, 42816, Note_on_c, 7, 59, 0
9, 42828, Note_on_c, 7, 69, 0
9, 42828, Note_on_c, 7, 73, 0
9, 42828, Note_on_c, 7, 81, 0
9, 42828, Note_on_c, 7, 85, 0
9, 42840, Note_on_c, 7, 59, 0
9, 42840, Note_on_c, 7, 69, 98
9, 42840, Note_on_c, 7, 73, 98
9, 42840, Note_on_c, 7, 81, 98
9, 42840, Note_on_c, 7, 85, 98
9, 42840, Note_on_c, 7, 61, 98
9, 42840, Note_on_c, 7, 61, 117
9, 42888, Note_on_c, 7, 85, 0
9, 42888, Note_on_c, 7, 81, 0
9, 42888, Note_on_c, 7, 69, 0
9, 42888, Note_on_c, 7, 73, 0
9, 42900, Note_on_c, 7, 69, 98
9, 42900, Note_on_c, 7, 73, 98
9, 42900, Note_on_c, 7, 81, 98
9, 42900, Note_on_c, 7, 85, 98
9, 42936, Note_on_c, 7, 61, 0
9, 42948, Note_on_c, 7, 69, 0
9, 42948, Note_on_c, 7, 73, 0
9, 42948, Note_on_c, 7, 81, 0
9, 42948, Note_on_c, 7, 85, 0
9, 42960, Note_on_c, 7, 61, 0
9, 42960, Note_on_c, 7, 69, 98
9, 42960, Note_on_c, 7, 73, 98
9, 42960, Note_on_c, 7, 81, 98
9, 42960, Note_on_c, 7, 85, 98
9, 42960, Note_on_c, 7, 62, 98
9, 42960, Note_on_c, 7, 62, 127
9, 43012, Note_on_c, 7, 85, 0
9, 43012, Note_on_c, 7, 81, 0
9, 43012, Note_on_c, 7, 69, 0
9, 43012, Note_on_c, 7, 73, 0
9, 43020, Note_on_c, 7, 69, 98
9, 43020, Note_on_c, 7, 73, 98
9, 43020, Note_on_c, 7, 81, 98
9, 43020, Note_on_c, 7, 85, 98
9, 43056, Note_on_c, 7, 62, 0
9, 43068, Note_on_c, 7, 69, 0
9, 43068, Note_on_c, 7, 73, 0
9, 43068, Note_on_c, 7, 81, 0
9, 43068, Note_on_c, 7, 85, 0
9, 43080, Note_on_c, 7, 62, 0
9, 43080, Note_on_c, 7, 69, 98
9, 43080, Note_on_c, 7, 73, 98
9, 43080, Note_on_c, 7, 81, 98
9, 43080, Note_on_c, 7, 85, 98
9, 43080, Note_on_c, 7, 64, 98
9, 43080, Note_on_c, 7, 64, 127
9, 43128, Note_on_c, 7, 85, 0
9, 43128, Note_on_c, 7, 81, 0
9, 43128, Note_on_c, 7, 69, 0
9, 43128, Note_on_c, 7, 73, 0
9, 43140, Note_on_c, 7, 69, 98
9, 43140, Note_on_c, 7, 73, 98
9, 43140, Note_on_c, 7, 81, 98
9, 43140, Note_on_c, 7, 85, 98
9, 43176, Note_on_c, 7, 64, 0
9, 43188, Note_on_c, 7, 69, 0
9, 43188, Note_on_c, 7, 73, 0
9, 43188, Note_on_c, 7, 81, 0
9, 43188, Note_on_c, 7, 85, 0
9, 43200, Note_on_c, 7, 64, 0
9, 43200, Note_on_c, 7, 84, 98
9, 43200, Note_on_c, 7, 81, 98
9, 43200, Note_on_c, 7, 69, 98
9, 43200, Note_on_c, 7, 65, 98
9, 43200, Note_on_c, 7, 65, 127
9, 43258, Note_on_c, 7, 69, 0
9, 43258, Note_on_c, 7, 84, 0
9, 43258, Note_on_c, 7, 81, 0
9, 43260, Note_on_c, 7, 84, 98
9, 43260, Note_on_c, 7, 81, 98
9, 43260, Note_on_c, 7, 69, 98
9, 43260, Note_on_c, 7, 65, 98
9, 43268, Note_on_c, 7, 65, 0
9, 43308, Note_on_c, 7, 69, 0
9, 43308, Note_on_c, 7, 81, 0
9, 43308, Note_on_c, 7, 84, 0
9, 43316, Note_on_c, 7, 65, 0
9, 43320, Note_on_c, 7, 84, 98
9, 43320, Note_on_c, 7, 81, 98
9, 43320, Note_on_c, 7, 69, 98
9, 43320, Note_on_c, 7, 65, 98
9, 43368, Note_on_c, 7, 69, 0
9, 43368, Note_on_c, 7, 81, 0
9, 43368, Note_on_c, 7, 84, 0
9, 43376, Note_on_c, 7, 65, 0
9, 43380, Note_on_c, 7, 84, 98
9, 43380, Note_on_c, 7, 81, 98
9, 43380, Note_on_c, 7, 69, 98
9, 43380, Note_on_c, 7, 65, 98
9, 43428, Note_on_c, 7, 69, 0
9, 43428, Note_on_c, 7, 81, 0
9, 43428, Note_on_c, 7, 84, 0
9, 43436, Note_on_c, 7, 65, 0
9, 43440, Note_on_c, 7, 65, 0
9, 43440, Note_on_c, 7, 84, 98
9, 43440, Note_on_c, 7, 81, 98
9, 43440, Note_on_c, 7, 69, 98
9, 43440, Note_on_c, 7, 64, 98
9, 43440, Note_on_c, 7, 64, 127
9, 43492, Note_on_c, 7, 69, 0
9, 43492, Note_on_c, 7, 84, 0
9, 43492, Note_on_c, 7, 81, 0
9, 43497, Note_on_c, 7, 64, 0
9, 43500, Note_on_c, 7, 84, 98
9, 43500, Note_on_c, 7, 81, 98
9, 43500, Note_on_c, 7, 69, 98
9, 43500, Note_on_c, 7, 64, 98
9, 43548, Note_on_c, 7, 69, 0
9, 43548, Note_on_c, 7, 81, 0
9, 43548, Note_on_c, 7, 84, 0
9, 43556, Note_on_c, 7, 64, 0
9, 43560, Note_on_c, 7, 84, 98
9, 43560, Note_on_c, 7, 81, 98
9, 43560, Note_on_c, 7, 69, 98
9, 43560, Note_on_c, 7, 64, 98
9, 43608, Note_on_c, 7, 69, 0
9, 43608, Note_on_c, 7, 81, 0
9, 43608, Note_on_c, 7, 84, 0
9, 43616, Note_on_c, 7, 64, 0
9, 43620, Note_on_c, 7, 84, 98
9, 43620, Note_on_c, 7, 81, 98
9, 43620, Note_on_c, 7, 69, 98
9, 43620, Note_on_c, 7, 64, 98
9, 43668, Note_on_c, 7, 69, 0
9, 43668, Note_on_c, 7, 81, 0
9, 43668, Note_on_c, 7, 84, 0
9, 43676, Note_on_c, 7, 64, 0
9, 43680, Note_on_c, 7, 64, 0
9, 43680, Note_on_c, 7, 83, 98
9, 43680, Note_on_c, 7, 81, 98
9, 43680, Note_on_c, 7, 63, 98
9, 43680, Note_on_c, 7, 63, 127
9, 43738, Note_on_c, 7, 81, 0
9, 43738, Note_on_c, 7, 83, 0
9, 43740, Note_on_c, 7, 83, 98
9, 43740, Note_on_c, 7, 81, 98
9, 43740, Note_on_c, 7, 63, 98
9, 43748, Note_on_c, 7, 63, 0
9, 43788, Note_on_c, 7, 81, 0
9, 43788, Note_on_c, 7, 83, 0
9, 43796, Note_on_c, 7, 63, 0
9, 43800, Note_on_c, 7, 83, 98
9, 43800, Note_on_c, 7, 81, 98
9, 43800, Note_on_c, 7, 63, 98
9, 43848, Note_on_c, 7, 81, 0
9, 43848, Note_on_c, 7, 83, 0
9, 43856, Note_on_c, 7, 63, 0
9, 43860, Note_on_c, 7, 83, 98
9, 43860, Note_on_c, 7, 81, 98
9, 43860, Note_on_c, 7, 63, 98
9, 43908, Note_on_c, 7, 81, 0
9, 43908, Note_on_c, 7, 83, 0
9, 43916, Note_on_c, 7, 63, 0
9, 43920, Note_on_c, 7, 63, 0
9, 43920, Note_on_c, 7, 83, 98
9, 43920, Note_on_c, 7, 80, 98
9, 43920, Note_on_c, 7, 62, 98
9, 43920, Note_on_c, 7, 62, 98
9, 43920, Note_on_c, 7, 62, 127
9, 43972, Note_on_c, 7, 80, 0
9, 43972, Note_on_c, 7, 83, 0
9, 43977, Note_on_c, 7, 62, 0
9, 43977, Note_on_c, 7, 62, 0
9, 43980, Note_on_c, 7, 83, 98
9, 43980, Note_on_c, 7, 80, 98
9, 43980, Note_on_c, 7, 62, 98
9, 44028, Note_on_c, 7, 80, 0
9, 44028, Note_on_c, 7, 83, 0
9, 44036, Note_on_c, 7, 62, 0
9, 44040, Note_on_c, 7, 83, 98
9, 44040, Note_on_c, 7, 80, 98
9, 44040, Note_on_c, 7, 62, 98
9, 44088, Note_on_c, 7, 80, 0
9, 44088, Note_on_c, 7, 83, 0
9, 44096, Note_on_c, 7, 62, 0
9, 44100, Note_on_c, 7, 83, 98
9, 44100, Note_on_c, 7, 80, 98
9, 44148, Note_on_c, 7, 80, 0
9, 44148, Note_on_c, 7, 83, 0
9, 44160, Note_on_c, 7, 62, 0
9, 44160, Note_on_c, 7, 85, 98
9, 44160, Note_on_c, 7, 81, 98
9, 44160, Note_on_c, 7, 61, 98
9, 44160, Note_on_c, 7, 61, 127
9, 44218, Note_on_c, 7, 81, 0
9, 44218, Note_on_c, 7, 85, 0
9, 44220, Note_on_c, 7, 81, 98
9, 44220, Note_on_c, 7, 85, 98
9, 44220, Note_on_c, 7, 61, 98
9, 44228, Note_on_c, 7, 61, 0
9, 44256, Note_on_c, 7, 61, 0
9, 44268, Note_on_c, 7, 85, 0
9, 44268, Note_on_c, 7, 81, 0
9, 44276, Note_on_c, 7, 61, 0
9, 44280, Note_on_c, 7, 85, 98
9, 44280, Note_on_c, 7, 81, 98
9, 44280, Note_on_c, 7, 61, 98
9, 44280, Note_on_c, 7, 61, 127
9, 44328, Note_on_c, 7, 81, 0
9, 44328, Note_on_c, 7, 85, 0
9, 44336, Note_on_c, 7, 61, 0
9, 44340, Note_on_c, 7, 85, 98
9, 44340, Note_on_c, 7, 81, 98
9, 44340, Note_on_c, 7, 61, 98
9, 44376, Note_on_c, 7, 61, 0
9, 44388, Note_on_c, 7, 85, 0
9, 44388, Note_on_c, 7, 81, 0
9, 44396, Note_on_c, 7, 61, 0
9, 44400, Note_on_c, 7, 74, 98
9, 44400, Note_on_c, 7, 83, 98
9, 44400, Note_on_c, 7, 62, 98
9, 44400, Note_on_c, 7, 62, 127
9, 44452, Note_on_c, 7, 83, 0
9, 44452, Note_on_c, 7, 74, 0
9, 44457, Note_on_c, 7, 62, 0
9, 44460, Note_on_c, 7, 83, 98
9, 44460, Note_on_c, 7, 74, 98
9, 44460, Note_on_c, 7, 62, 98
9, 44496, Note_on_c, 7, 62, 0
9, 44508, Note_on_c, 7, 83, 0
9, 44508, Note_on_c, 7, 74, 0
9, 44516, Note_on_c, 7, 62, 0
9, 44520, Note_on_c, 7, 74, 98
9, 44520, Note_on_c, 7, 83, 98
9, 44520, Note_on_c, 7, 62, 98
9, 44520, Note_on_c, 7, 62, 127
9, 44520, Control_c, 7, 7, 122
9, 44560, Control_c, 7, 7, 120
9, 44568, Note_on_c, 7, 83, 0
9, 44568, Note_on_c, 7, 74, 0
9, 44576, Note_on_c, 7, 62, 0
9, 44580, Note_on_c, 7, 83, 98
9, 44580, Note_on_c, 7, 74, 98
9, 44580, Note_on_c, 7, 62, 98
9, 44590, Control_c, 7, 7, 118
9, 44600, Control_c, 7, 7, 116
9, 44610, Control_c, 7, 7, 115
9, 44616, Note_on_c, 7, 62, 0
9, 44620, Control_c, 7, 7, 113
9, 44628, Note_on_c, 7, 83, 0
9, 44628, Note_on_c, 7, 74, 0
9, 44630, Control_c, 7, 7, 112
9, 44636, Note_on_c, 7, 62, 0
9, 44640, Note_on_c, 7, 73, 98
9, 44640, Note_on_c, 7, 81, 98
9, 44640, Note_on_c, 7, 64, 98
9, 44640, Note_on_c, 7, 64, 125
9, 44650, Control_c, 7, 7, 111
9, 44698, Note_on_c, 7, 81, 0
9, 44698, Note_on_c, 7, 73, 0
9, 44700, Note_on_c, 7, 73, 98
9, 44700, Note_on_c, 7, 81, 98
9, 44700, Note_on_c, 7, 64, 98
9, 44708, Note_on_c, 7, 64, 0
9, 44710, Control_c, 7, 7, 105
9, 44736, Note_on_c, 7, 64, 0
9, 44748, Note_on_c, 7, 81, 0
9, 44748, Note_on_c, 7, 73, 0
9, 44756, Note_on_c, 7, 64, 0
9, 44760, Note_on_c, 7, 73, 98
9, 44760, Note_on_c, 7, 81, 98
9, 44760, Note_on_c, 7, 64, 98
9, 44760, Note_on_c, 7, 64, 123
9, 44770, Control_c, 7, 7, 103
9, 44790, Control_c, 7, 7, 101
9, 44808, Note_on_c, 7, 81, 0
9, 44808, Note_on_c, 7, 73, 0
9, 44816, Note_on_c, 7, 64, 0
9, 44820, Note_on_c, 7, 73, 98
9, 44820, Note_on_c, 7, 81, 98
9, 44820, Note_on_c, 7, 64, 98
9, 44850, Control_c, 7, 7, 99
9, 44856, Note_on_c, 7, 64, 0
9, 44860, Control_c, 7, 7, 97
9, 44868, Note_on_c, 7, 73, 0
9, 44868, Note_on_c, 7, 81, 0
9, 44876, Note_on_c, 7, 64, 0
9, 44880, Note_on_c, 7, 71, 98
9, 44880, Note_on_c, 7, 80, 98
9, 44880, Note_on_c, 7, 52, 98
9, 44880, Note_on_c, 7, 52, 121
9, 44920, Control_c, 7, 7, 95
9, 44932, Note_on_c, 7, 80, 0
9, 44932, Note_on_c, 7, 71, 0
9, 44937, Note_on_c, 7, 52, 0
9, 44940, Note_on_c, 7, 71, 98
9, 44940, Note_on_c, 7, 80, 98
9, 44940, Note_on_c, 7, 52, 98
9, 44940, Control_c, 7, 7, 93
9, 44976, Note_on_c, 7, 52, 0
9, 44988, Note_on_c, 7, 71, 0
9, 44988, Note_on_c, 7, 80, 0
9, 44996, Note_on_c, 7, 52, 0
9, 45000, Note_on_c, 7, 71, 98
9, 45000, Note_on_c, 7, 80, 98
9, 45000, Note_on_c, 7, 52, 98
9, 45000, Note_on_c, 7, 52, 121
9, 45020, Control_c, 7, 7, 87
9, 45048, Note_on_c, 7, 80, 0
9, 45048, Note_on_c, 7, 71, 0
9, 45056, Note_on_c, 7, 52, 0
9, 45060, Note_on_c, 7, 71, 98
9, 45060, Note_on_c, 7, 80, 98
9, 45060, Note_on_c, 7, 52, 98
9, 45080, Control_c, 7, 7, 86
9, 45096, Note_on_c, 7, 52, 0
9, 45108, Note_on_c, 7, 71, 0
9, 45108, Note_on_c, 7, 80, 0
9, 45116, Note_on_c, 7, 52, 0
9, 45120, Note_on_c, 7, 73, 98
9, 45120, Note_on_c, 7, 81, 98
9, 45120, Note_on_c, 7, 57, 98
9, 45120, Note_on_c, 7, 57, 120
9, 45140, Control_c, 7, 7, 80
9, 45200, Control_c, 7, 7, 77
9, 45216, Note_on_c, 7, 57, 0
9, 45216, Note_on_c, 7, 73, 0
9, 45216, Note_on_c, 7, 81, 0
9, 45216, Note_on_c, 7, 57, 0
9, 45360, Control_c, 7, 7, 64
9, 45360, Control_c, 7, 7, 64
9, 45360, Control_c, 7, 7, 64
9, 45360, Control_c, 7, 7, 64
9, 45360, Control_c, 7, 7, 64
9, 45360, Control_c, 7, 7, 64
9, 45360, Control_c, 7, 7, 64
9, 45360, Control_c, 7, 7, 64
9, 45480, Note_on_c, 7, 57, 98
9, 45480, Note_on_c, 7, 69, 98
9, 45600, Note_on_c, 7, 69, 0
9, 45600, Note_on_c, 7, 57, 0
9, 45600, Note_on_c, 7, 59, 98
9, 45600, Note_on_c, 7, 71, 98
9, 45720, Note_on_c, 7, 71, 0
9, 45720, Note_on_c, 7, 59, 0
9, 45720, Note_on_c, 7, 61, 98
9, 45720, Note_on_c, 7, 73, 98
9, 45840, Note_on_c, 7, 73, 0
9, 45840, Note_on_c, 7, 61, 0
9, 45840, Note_on_c, 7, 62, 98
9, 45840, Note_on_c, 7, 74, 98
9, 45960, Note_on_c, 7, 74, 0
9, 45960, Note_on_c, 7, 62, 0
9, 45960, Note_on_c, 7, 63, 98
9, 45960, Note_on_c, 7, 75, 98
9, 46080, Note_on_c, 7, 75, 0
9, 46080, Note_on_c, 7, 63, 0
9, 46080, Note_on_c, 7, 66, 98
9, 46080, Note_on_c, 7, 78, 98
9, 46200, Note_on_c, 7, 78, 0
9, 46200, Note_on_c, 7, 66, 0
9, 46200, Control_c, 7, 7, 96
9, 46200, Control_c, 7, 7, 96
9, 46200, Note_on_c, 7, 64, 98
9, 46200, Note_on_c, 7, 76, 98
9, 46200, Control_c, 7, 7, 96
9, 46200, Control_c, 7, 7, 96
9, 46200, Note_on_c, 7, 56, 98
9, 46200, Control_c, 7, 7, 96
9, 46200, Control_c, 7, 7, 96
9, 46200, Note_on_c, 7, 56, 98
9, 46207, Control_c, 7, 7, 95
9, 46207, Control_c, 7, 7, 95
9, 46207, Control_c, 7, 7, 95
9, 46207, Control_c, 7, 7, 95
9, 46207, Control_c, 7, 7, 95
9, 46207, Control_c, 7, 7, 95
9, 46214, Control_c, 7, 7, 94
9, 46214, Control_c, 7, 7, 94
9, 46214, Control_c, 7, 7, 94
9, 46214, Control_c, 7, 7, 94
9, 46214, Control_c, 7, 7, 94
9, 46214, Control_c, 7, 7, 94
9, 46222, Control_c, 7, 7, 93
9, 46222, Control_c, 7, 7, 93
9, 46222, Control_c, 7, 7, 93
9, 46222, Control_c, 7, 7, 93
9, 46222, Control_c, 7, 7, 93
9, 46222, Control_c, 7, 7, 93
9, 46229, Control_c, 7, 7, 92
9, 46229, Control_c, 7, 7, 92
9, 46229, Control_c, 7, 7, 92
9, 46229, Control_c, 7, 7, 92
9, 46229, Control_c, 7, 7, 92
9, 46229, Control_c, 7, 7, 92
9, 46237, Control_c, 7, 7, 91
9, 46237, Control_c, 7, 7, 91
9, 46237, Control_c, 7, 7, 91
9, 46237, Control_c, 7, 7, 91
9, 46237, Control_c, 7, 7, 91
9, 46237, Control_c, 7, 7, 91
9, 46244, Control_c, 7, 7, 90
9, 46244, Control_c, 7, 7, 90
9, 46244, Control_c, 7, 7, 90
9, 46244, Control_c, 7, 7, 90
9, 46244, Control_c, 7, 7, 90
9, 46244, Control_c, 7, 7, 90
9, 46252, Control_c, 7, 7, 89
9, 46252, Control_c, 7, 7, 89
9, 46252, Control_c, 7, 7, 89
9, 46252, Control_c, 7, 7, 89
9, 46252, Control_c, 7, 7, 89
9, 46252, Control_c, 7, 7, 89
9, 46259, Control_c, 7, 7, 88
9, 46259, Control_c, 7, 7, 88
9, 46259, Control_c, 7, 7, 88
9, 46259, Control_c, 7, 7, 88
9, 46259, Control_c, 7, 7, 88
9, 46259, Control_c, 7, 7, 88
9, 46267, Control_c, 7, 7, 87
9, 46267, Control_c, 7, 7, 87
9, 46267, Control_c, 7, 7, 87
9, 46267, Control_c, 7, 7, 87
9, 46267, Control_c, 7, 7, 87
9, 46267, Control_c, 7, 7, 87
9, 46274, Control_c, 7, 7, 86
9, 46274, Control_c, 7, 7, 86
9, 46274, Control_c, 7, 7, 86
9, 46274, Control_c, 7, 7, 86
9, 46274, Control_c, 7, 7, 86
9, 46274, Control_c, 7, 7, 86
9, 46282, Control_c, 7, 7, 85
9, 46282, Control_c, 7, 7, 85
9, 46282, Control_c, 7, 7, 85
9, 46282, Control_c, 7, 7, 85
9, 46282, Control_c, 7, 7, 85
9, 46282, Control_c, 7, 7, 85
9, 46289, Control_c, 7, 7, 84
9, 46289, Control_c, 7, 7, 84
9, 46289, Control_c, 7, 7, 84
9, 46289, Control_c, 7, 7, 84
9, 46289, Control_c, 7, 7, 84
9, 46289, Control_c, 7, 7, 84
9, 46296, Note_on_c, 7, 76, 0
9, 46296, Note_on_c, 7, 64, 0
9, 46297, Control_c, 7, 7, 83
9, 46297, Control_c, 7, 7, 83
9, 46297, Control_c, 7, 7, 83
9, 46297, Control_c, 7, 7, 83
9, 46297, Control_c, 7, 7, 83
9, 46297, Control_c, 7, 7, 83
9, 46304, Control_c, 7, 7, 82
9, 46304, Control_c, 7, 7, 82
9, 46304, Control_c, 7, 7, 82
9, 46304, Control_c, 7, 7, 82
9, 46304, Control_c, 7, 7, 82
9, 46304, Control_c, 7, 7, 82
9, 46312, Control_c, 7, 7, 81
9, 46312, Control_c, 7, 7, 81
9, 46312, Control_c, 7, 7, 81
9, 46312, Control_c, 7, 7, 81
9, 46312, Control_c, 7, 7, 81
9, 46312, Control_c, 7, 7, 81
9, 46319, Control_c, 7, 7, 80
9, 46319, Control_c, 7, 7, 80
9, 46319, Control_c, 7, 7, 80
9, 46319, Control_c, 7, 7, 80
9, 46319, Control_c, 7, 7, 80
9, 46319, Control_c, 7, 7, 80
9, 46320, Note_on_c, 7, 56, 0
9, 46320, Note_on_c, 7, 56, 0
9, 46320, Note_on_c, 7, 57, 98
9, 46320, Note_on_c, 7, 57, 98
9, 46326, Control_c, 7, 7, 79
9, 46326, Control_c, 7, 7, 79
9, 46326, Control_c, 7, 7, 79
9, 46326, Control_c, 7, 7, 79
9, 46326, Control_c, 7, 7, 79
9, 46326, Control_c, 7, 7, 79
9, 46334, Control_c, 7, 7, 78
9, 46334, Control_c, 7, 7, 78
9, 46334, Control_c, 7, 7, 78
9, 46334, Control_c, 7, 7, 78
9, 46334, Control_c, 7, 7, 78
9, 46334, Control_c, 7, 7, 78
9, 46341, Control_c, 7, 7, 77
9, 46341, Control_c, 7, 7, 77
9, 46341, Control_c, 7, 7, 77
9, 46341, Control_c, 7, 7, 77
9, 46341, Control_c, 7, 7, 77
9, 46341, Control_c, 7, 7, 77
9, 46349, Control_c, 7, 7, 76
9, 46349, Control_c, 7, 7, 76
9, 46349, Control_c, 7, 7, 76
9, 46349, Control_c, 7, 7, 76
9, 46349, Control_c, 7, 7, 76
9, 46349, Control_c, 7, 7, 76
9, 46356, Control_c, 7, 7, 75
9, 46356, Control_c, 7, 7, 75
9, 46356, Control_c, 7, 7, 75
9, 46356, Control_c, 7, 7, 75
9, 46356, Control_c, 7, 7, 75
9, 46356, Control_c, 7, 7, 75
9, 46364, Control_c, 7, 7, 74
9, 46364, Control_c, 7, 7, 74
9, 46364, Control_c, 7, 7, 74
9, 46364, Control_c, 7, 7, 74
9, 46364, Control_c, 7, 7, 74
9, 46364, Control_c, 7, 7, 74
9, 46371, Control_c, 7, 7, 73
9, 46371, Control_c, 7, 7, 73
9, 46371, Control_c, 7, 7, 73
9, 46371, Control_c, 7, 7, 73
9, 46371, Control_c, 7, 7, 73
9, 46371, Control_c, 7, 7, 73
9, 46379, Control_c, 7, 7, 72
9, 46379, Control_c, 7, 7, 72
9, 46379, Control_c, 7, 7, 72
9, 46379, Control_c, 7, 7, 72
9, 46379, Control_c, 7, 7, 72
9, 46379, Control_c, 7, 7, 72
9, 46386, Control_c, 7, 7, 71
9, 46386, Control_c, 7, 7, 71
9, 46386, Control_c, 7, 7, 71
9, 46386, Control_c, 7, 7, 71
9, 46386, Control_c, 7, 7, 71
9, 46386, Control_c, 7, 7, 71
9, 46394, Control_c, 7, 7, 70
9, 46394, Control_c, 7, 7, 70
9, 46394, Control_c, 7, 7, 70
9, 46394, Control_c, 7, 7, 70
9, 46394, Control_c, 7, 7, 70
9, 46394, Control_c, 7, 7, 70
9, 46401, Control_c, 7, 7, 69
9, 46401, Control_c, 7, 7, 69
9, 46401, Control_c, 7, 7, 69
9, 46401, Control_c, 7, 7, 69
9, 46401, Control_c, 7, 7, 69
9, 46401, Control_c, 7, 7, 69
9, 46409, Control_c, 7, 7, 68
9, 46409, Control_c, 7, 7, 68
9, 46409, Control_c, 7, 7, 68
9, 46409, Control_c, 7, 7, 68
9, 46409, Control_c, 7, 7, 68
9, 46409, Control_c, 7, 7, 68
9, 46416, Note_on_c, 7, 57, 0
9, 46416, Note_on_c, 7, 57, 0
9, 46416, Control_c, 7, 7, 67
9, 46416, Control_c, 7, 7, 67
9, 46416, Control_c, 7, 7, 67
9, 46416, Control_c, 7, 7, 67
9, 46416, Control_c, 7, 7, 67
9, 46416, Control_c, 7, 7, 67
9, 46424, Control_c, 7, 7, 66
9, 46424, Control_c, 7, 7, 66
9, 46424, Control_c, 7, 7, 66
9, 46424, Control_c, 7, 7, 66
9, 46424, Control_c, 7, 7, 66
9, 46424, Control_c, 7, 7, 66
9, 46431, Control_c, 7, 7, 65
9, 46431, Control_c, 7, 7, 65
9, 46431, Control_c, 7, 7, 65
9, 46431, Control_c, 7, 7, 65
9, 46431, Control_c, 7, 7, 65
9, 46431, Control_c, 7, 7, 65
9, 46439, Control_c, 7, 7, 64
9, 46439, Control_c, 7, 7, 64
9, 46439, Control_c, 7, 7, 64
9, 46439, Control_c, 7, 7, 64
9, 46439, Control_c, 7, 7, 64
9, 46439, Control_c, 7, 7, 64
9, 46440, Note_on_c, 7, 69, 98
9, 46440, Note_on_c, 7, 57, 98
9, 46560, Note_on_c, 7, 57, 0
9, 46560, Note_on_c, 7, 69, 0
9, 46560, Note_on_c, 7, 71, 98
9, 46560, Note_on_c, 7, 59, 98
9, 46680, Note_on_c, 7, 59, 0
9, 46680, Note_on_c, 7, 71, 0
9, 46680, Note_on_c, 7, 73, 98
9, 46680, Note_on_c, 7, 61, 98
9, 46800, Note_on_c, 7, 61, 0
9, 46800, Note_on_c, 7, 73, 0
9, 46800, Note_on_c, 7, 74, 98
9, 46800, Note_on_c, 7, 62, 98
9, 46920, Note_on_c, 7, 62, 0
9, 46920, Note_on_c, 7, 74, 0
9, 46920, Note_on_c, 7, 75, 98
9, 46920, Note_on_c, 7, 63, 98
9, 47040, Note_on_c, 7, 63, 0
9, 47040, Note_on_c, 7, 75, 0
9, 47040, Note_on_c, 7, 78, 98
9, 47040, Note_on_c, 7, 66, 98
9, 47136, Note_on_c, 7, 66, 0
9, 47160, Note_on_c, 7, 78, 0
9, 47160, Control_c, 7, 7, 96
9, 47160, Control_c, 7, 7, 96
9, 47160, Note_on_c, 7, 76, 98
9, 47160, Note_on_c, 7, 64, 98
9, 47160, Control_c, 7, 7, 96
9, 47160, Control_c, 7, 7, 96
9, 47160, Note_on_c, 7, 56, 98
9, 47160, Control_c, 7, 7, 96
9, 47160, Control_c, 7, 7, 96
9, 47160, Note_on_c, 7, 56, 98
9, 47167, Control_c, 7, 7, 95
9, 47167, Control_c, 7, 7, 95
9, 47167, Control_c, 7, 7, 95
9, 47167, Control_c, 7, 7, 95
9, 47167, Control_c, 7, 7, 95
9, 47167, Control_c, 7, 7, 95
9, 47175, Control_c, 7, 7, 94
9, 47175, Control_c, 7, 7, 94
9, 47175, Control_c, 7, 7, 94
9, 47175, Control_c, 7, 7, 94
9, 47175, Control_c, 7, 7, 94
9, 47175, Control_c, 7, 7, 94
9, 47182, Control_c, 7, 7, 93
9, 47182, Control_c, 7, 7, 93
9, 47182, Control_c, 7, 7, 93
9, 47182, Control_c, 7, 7, 93
9, 47182, Control_c, 7, 7, 93
9, 47182, Control_c, 7, 7, 93
9, 47190, Control_c, 7, 7, 92
9, 47190, Control_c, 7, 7, 92
9, 47190, Control_c, 7, 7, 92
9, 47190, Control_c, 7, 7, 92
9, 47190, Control_c, 7, 7, 92
9, 47190, Control_c, 7, 7, 92
9, 47197, Control_c, 7, 7, 91
9, 47197, Control_c, 7, 7, 91
9, 47197, Control_c, 7, 7, 91
9, 47197, Control_c, 7, 7, 91
9, 47197, Control_c, 7, 7, 91
9, 47197, Control_c, 7, 7, 91
9, 47205, Control_c, 7, 7, 90
9, 47205, Control_c, 7, 7, 90
9, 47205, Control_c, 7, 7, 90
9, 47205, Control_c, 7, 7, 90
9, 47205, Control_c, 7, 7, 90
9, 47205, Control_c, 7, 7, 90
9, 47212, Control_c, 7, 7, 89
9, 47212, Control_c, 7, 7, 89
9, 47212, Control_c, 7, 7, 89
9, 47212, Control_c, 7, 7, 89
9, 47212, Control_c, 7, 7, 89
9, 47212, Control_c, 7, 7, 89
9, 47220, Control_c, 7, 7, 88
9, 47220, Control_c, 7, 7, 88
9, 47220, Control_c, 7, 7, 88
9, 47220, Control_c, 7, 7, 88
9, 47220, Control_c, 7, 7, 88
9, 47220, Control_c, 7, 7, 88
9, 47227, Control_c, 7, 7, 87
9, 47227, Control_c, 7, 7, 87
9, 47227, Control_c, 7, 7, 87
9, 47227, Control_c, 7, 7, 87
9, 47227, Control_c, 7, 7, 87
9, 47227, Control_c, 7, 7, 87
9, 47235, Control_c, 7, 7, 86
9, 47235, Control_c, 7, 7, 86
9, 47235, Control_c, 7, 7, 86
9, 47235, Control_c, 7, 7, 86
9, 47235, Control_c, 7, 7, 86
9, 47235, Control_c, 7, 7, 86
9, 47242, Control_c, 7, 7, 85
9, 47242, Control_c, 7, 7, 85
9, 47242, Control_c, 7, 7, 85
9, 47242, Control_c, 7, 7, 85
9, 47242, Control_c, 7, 7, 85
9, 47242, Control_c, 7, 7, 85
9, 47250, Control_c, 7, 7, 84
9, 47250, Control_c, 7, 7, 84
9, 47250, Control_c, 7, 7, 84
9, 47250, Control_c, 7, 7, 84
9, 47250, Control_c, 7, 7, 84
9, 47250, Control_c, 7, 7, 84
9, 47256, Note_on_c, 7, 64, 0
9, 47256, Note_on_c, 7, 76, 0
9, 47257, Control_c, 7, 7, 83
9, 47257, Control_c, 7, 7, 83
9, 47257, Control_c, 7, 7, 83
9, 47257, Control_c, 7, 7, 83
9, 47257, Control_c, 7, 7, 83
9, 47257, Control_c, 7, 7, 83
9, 47265, Control_c, 7, 7, 82
9, 47265, Control_c, 7, 7, 82
9, 47265, Control_c, 7, 7, 82
9, 47265, Control_c, 7, 7, 82
9, 47265, Control_c, 7, 7, 82
9, 47265, Control_c, 7, 7, 82
9, 47270, Control_c, 7, 7, 43
9, 47280, Note_on_c, 7, 56, 0
9, 47280, Note_on_c, 7, 56, 0
9, 47280, Note_on_c, 7, 57, 98
9, 47280, Note_on_c, 7, 57, 98
9, 47350, Control_c, 7, 7, 44
9, 47370, Control_c, 7, 7, 45
9, 47376, Note_on_c, 7, 57, 0
9, 47376, Note_on_c, 7, 57, 0
9, 47390, Control_c, 7, 7, 46
9, 47400, Note_on_c, 7, 69, 98
9, 47400, Note_on_c, 7, 57, 98
9, 47410, Control_c, 7, 7, 47
9, 47470, Control_c, 7, 7, 49
9, 47520, Note_on_c, 7, 57, 0
9, 47520, Note_on_c, 7, 69, 0
9, 47520, Note_on_c, 7, 71, 98
9, 47520, Note_on_c, 7, 59, 98
9, 47530, Control_c, 7, 7, 50
9, 47590, Control_c, 7, 7, 52
9, 47640, Note_on_c, 7, 59, 0
9, 47640, Note_on_c, 7, 71, 0
9, 47640, Note_on_c, 7, 72, 98
9, 47640, Note_on_c, 7, 60, 98
9, 47650, Control_c, 7, 7, 54
9, 47710, Control_c, 7, 7, 55
9, 47760, Note_on_c, 7, 60, 0
9, 47760, Note_on_c, 7, 72, 0
9, 47760, Note_on_c, 7, 74, 98
9, 47760, Note_on_c, 7, 62, 98
9, 47770, Control_c, 7, 7, 61
9, 47830, Control_c, 7, 7, 62
9, 47840, Control_c, 7, 7, 63
9, 47860, Control_c, 7, 7, 64
9, 47880, Note_on_c, 7, 62, 0
9, 47880, Note_on_c, 7, 74, 0
9, 47880, Note_on_c, 7, 76, 98
9, 47880, Note_on_c, 7, 64, 98
9, 47880, Control_c, 7, 7, 65
9, 47890, Control_c, 7, 7, 66
9, 47950, Control_c, 7, 7, 67
9, 48000, Note_on_c, 7, 64, 0
9, 48000, Note_on_c, 7, 76, 0
9, 48000, Note_on_c, 7, 65, 98
9, 48000, Note_on_c, 7, 77, 98
9, 48010, Control_c, 7, 7, 69
9, 48020, Control_c, 7, 7, 70
9, 48050, Control_c, 7, 7, 71
9, 48060, Control_c, 7, 7, 72
9, 48090, Control_c, 7, 7, 73
9, 48170, Control_c, 7, 7, 74
9, 48180, Control_c, 7, 7, 75
9, 48210, Control_c, 7, 7, 76
9, 48220, Control_c, 7, 7, 77
9, 48360, Note_on_c, 7, 59, 98
9, 48360, Note_on_c, 7, 55, 98
9, 48456, Note_on_c, 7, 55, 0
9, 48480, Note_on_c, 7, 59, 0
9, 48480, Note_on_c, 7, 60, 98
9, 48480, Note_on_c, 7, 56, 98
9, 48576, Note_on_c, 7, 56, 0
9, 48600, Note_on_c, 7, 60, 0
9, 48600, Note_on_c, 7, 61, 98
9, 48600, Note_on_c, 7, 57, 98
9, 48696, Note_on_c, 7, 57, 0
9, 48720, Note_on_c, 7, 61, 0
9, 48720, Note_on_c, 7, 62, 98
9, 48720, Note_on_c, 7, 58, 98
9, 48816, Note_on_c, 7, 58, 0
9, 48840, Note_on_c, 7, 62, 0
9, 48840, Note_on_c, 7, 56, 98
9, 48840, Note_on_c, 7, 59, 98
9, 48936, Note_on_c, 7, 59, 0
9, 48960, Note_on_c, 7, 56, 0
9, 48960, Note_on_c, 7, 55, 98
9, 48960, Note_on_c, 7, 60, 98
9, 49152, Note_on_c, 7, 60, 0
9, 49200, Note_on_c, 7, 77, 0
9, 49200, Note_on_c, 7, 64, 98
9, 49200, Note_on_c, 7, 76, 98
9, 49200, Note_on_c, 7, 48, 98
9, 49230, Note_on_c, 7, 65, 0
9, 49392, Note_on_c, 7, 48, 0
9, 49440, Note_on_c, 7, 55, 0
9, 49440, Note_on_c, 7, 53, 103
9, 49440, Note_on_c, 7, 50, 103
9, 49680, Note_on_c, 7, 64, 0
9, 49680, Note_on_c, 7, 76, 0
9, 49680, Note_on_c, 7, 62, 103
9, 49680, Note_on_c, 7, 74, 103
9, 49824, Note_on_c, 7, 50, 0
9, 49920, Note_on_c, 7, 53, 0
9, 49920, Note_on_c, 7, 52, 102
9, 49920, Note_on_c, 7, 52, 102
9, 50112, Note_on_c, 7, 52, 0
9, 50160, Note_on_c, 7, 74, 0
9, 50160, Note_on_c, 7, 62, 0
9, 50160, Note_on_c, 7, 52, 0
9, 50160, Note_on_c, 7, 60, 98
9, 50160, Note_on_c, 7, 72, 98
9, 50160, Note_on_c, 7, 57, 98
9, 50160, Note_on_c, 7, 53, 98
9, 50352, Note_on_c, 7, 53, 0
9, 50352, Note_on_c, 7, 60, 0
9, 50352, Note_on_c, 7, 72, 0
9, 50370, Note_on_c, 7, 60, 79
9, 50370, Note_on_c, 7, 72, 79
9, 50394, Note_on_c, 7, 72, 0
9, 50394, Note_on_c, 7, 60, 0
9, 50400, Note_on_c, 7, 71, 82
9, 50400, Note_on_c, 7, 59, 82
9, 50400, Note_on_c, 7, 50, 82
9, 50424, Note_on_c, 7, 59, 0
9, 50424, Note_on_c, 7, 71, 0
9, 50430, Note_on_c, 7, 60, 85
9, 50430, Note_on_c, 7, 72, 85
9, 50454, Note_on_c, 7, 72, 0
9, 50454, Note_on_c, 7, 60, 0
9, 50460, Note_on_c, 7, 59, 86
9, 50460, Note_on_c, 7, 71, 86
9, 50484, Note_on_c, 7, 71, 0
9, 50484, Note_on_c, 7, 59, 0
9, 50490, Note_on_c, 7, 60, 88
9, 50490, Note_on_c, 7, 72, 88
9, 50514, Note_on_c, 7, 72, 0
9, 50514, Note_on_c, 7, 60, 0
9, 50520, Note_on_c, 7, 59, 92
9, 50520, Note_on_c, 7, 71, 92
9, 50544, Note_on_c, 7, 71, 0
9, 50544, Note_on_c, 7, 59, 0
9, 50550, Note_on_c, 7, 60, 94
9, 50550, Note_on_c, 7, 72, 94
9, 50574, Note_on_c, 7, 72, 0
9, 50574, Note_on_c, 7, 60, 0
9, 50580, Note_on_c, 7, 59, 96
9, 50580, Note_on_c, 7, 71, 96
9, 50592, Note_on_c, 7, 50, 0
9, 50604, Note_on_c, 7, 71, 0
9, 50604, Note_on_c, 7, 59, 0
9, 50610, Note_on_c, 7, 60, 98
9, 50610, Note_on_c, 7, 72, 98
9, 50634, Note_on_c, 7, 72, 0
9, 50634, Note_on_c, 7, 60, 0
9, 50640, Note_on_c, 7, 57, 0
9, 50640, Note_on_c, 7, 59, 98
9, 50640, Note_on_c, 7, 71, 98
9, 50640, Note_on_c, 7, 56, 98
9, 50640, Note_on_c, 7, 52, 98
9, 50664, Note_on_c, 7, 71, 0
9, 50664, Note_on_c, 7, 59, 0
9, 50670, Note_on_c, 7, 60, 100
9, 50670, Note_on_c, 7, 72, 100
9, 50694, Note_on_c, 7, 72, 0
9, 50694, Note_on_c, 7, 60, 0
9, 50700, Note_on_c, 7, 59, 102
9, 50700, Note_on_c, 7, 71, 102
9, 50724, Note_on_c, 7, 71, 0
9, 50724, Note_on_c, 7, 59, 0
9, 50730, Note_on_c, 7, 60, 104
9, 50730, Note_on_c, 7, 72, 104
9, 50754, Note_on_c, 7, 72, 0
9, 50754, Note_on_c, 7, 60, 0
9, 50760, Note_on_c, 7, 59, 104
9, 50760, Note_on_c, 7, 71, 104
9, 50784, Note_on_c, 7, 71, 0
9, 50784, Note_on_c, 7, 59, 0
9, 50790, Note_on_c, 7, 60, 106
9, 50790, Note_on_c, 7, 72, 106
9, 50814, Note_on_c, 7, 72, 0
9, 50814, Note_on_c, 7, 60, 0
9, 50820, Note_on_c, 7, 59, 108
9, 50820, Note_on_c, 7, 71, 108
9, 50832, Note_on_c, 7, 56, 0
9, 50832, Note_on_c, 7, 52, 0
9, 50836, Note_on_c, 7, 59, 0
9, 50836, Note_on_c, 7, 71, 0
9, 50840, Note_on_c, 7, 57, 108
9, 50840, Note_on_c, 7, 69, 108
9, 50856, Note_on_c, 7, 69, 0
9, 50856, Note_on_c, 7, 57, 0
9, 50860, Note_on_c, 7, 59, 109
9, 50860, Note_on_c, 7, 71, 109
9, 50876, Note_on_c, 7, 71, 0
9, 50876, Note_on_c, 7, 59, 0
9, 50880, Note_on_c, 7, 69, 109
9, 50880, Note_on_c, 7, 57, 109
9, 50880, Note_on_c, 7, 57, 109
9, 50880, Note_on_c, 7, 45, 109
9, 50938, Note_on_c, 7, 57, 0
9, 50940, Note_on_c, 7, 64, 98
9, 50976, Note_on_c, 7, 69, 0
9, 50988, Note_on_c, 7, 64, 0
9, 51000, Note_on_c, 7, 61, 98
9, 51048, Note_on_c, 7, 61, 0
9, 51060, Note_on_c, 7, 64, 98
9, 51108, Note_on_c, 7, 64, 0
9, 51120, Note_on_c, 7, 61, 98
9, 51172, Note_on_c, 7, 61, 0
9, 51180, Note_on_c, 7, 64, 98
9, 51228, Note_on_c, 7, 64, 0
9, 51240, Note_on_c, 7, 61, 98
9, 51264, Note_on_c, 7, 57, 0
9, 51288, Note_on_c, 7, 61, 0
9, 51300, Note_on_c, 7, 64, 98
9, 51348, Note_on_c, 7, 64, 0
9, 51360, Note_on_c, 7, 69, 98
9, 51360, Note_on_c, 7, 61, 98
9, 51360, Note_on_c, 7, 57, 98
9, 51360, Control_c, 7, 7, 48
9, 51418, Note_on_c, 7, 61, 0
9, 51420, Note_on_c, 7, 64, 99
9, 51430, Control_c, 7, 7, 49
9, 51468, Note_on_c, 7, 64, 0
9, 51480, Note_on_c, 7, 61, 100
9, 51500, Control_c, 7, 7, 50
9, 51528, Note_on_c, 7, 61, 0
9, 51530, Control_c, 7, 7, 51
9, 51540, Note_on_c, 7, 64, 101
9, 51570, Control_c, 7, 7, 53
9, 51588, Note_on_c, 7, 64, 0
9, 51600, Note_on_c, 7, 61, 102
9, 51610, Control_c, 7, 7, 54
9, 51640, Control_c, 7, 7, 55
9, 51650, Control_c, 7, 7, 56
9, 51652, Note_on_c, 7, 61, 0
9, 51660, Note_on_c, 7, 64, 103
9, 51670, Control_c, 7, 7, 57
9, 51680, Control_c, 7, 7, 58
9, 51708, Note_on_c, 7, 64, 0
9, 51720, Note_on_c, 7, 69, 0
9, 51720, Note_on_c, 7, 73, 103
9, 51720, Note_on_c, 7, 61, 103
9, 51730, Control_c, 7, 7, 60
9, 51744, Note_on_c, 7, 57, 0
9, 51760, Control_c, 7, 7, 61
9, 51768, Note_on_c, 7, 61, 0
9, 51770, Control_c, 7, 7, 62
9, 51780, Note_on_c, 7, 64, 103
9, 51790, Control_c, 7, 7, 63
9, 51810, Control_c, 7, 7, 64
9, 51816, Note_on_c, 7, 73, 0
9, 51820, Control_c, 7, 7, 65
9, 51828, Note_on_c, 7, 64, 0
9, 51840, Note_on_c, 7, 71, 104
9, 51840, Note_on_c, 7, 62, 104
9, 51840, Note_on_c, 7, 56, 104
9, 51840, Control_c, 7, 7, 64
9, 51840, Control_c, 7, 7, 64
9, 51840, Control_c, 7, 7, 64
9, 51840, Control_c, 7, 7, 64
9, 51850, Control_c, 7, 7, 66
9, 51869, Control_c, 7, 7, 65
9, 51869, Control_c, 7, 7, 65
9, 51869, Control_c, 7, 7, 65
9, 51869, Control_c, 7, 7, 65
9, 51870, Control_c, 7, 7, 67
9, 51898, Note_on_c, 7, 62, 0
9, 51899, Control_c, 7, 7, 66
9, 51899, Control_c, 7, 7, 66
9, 51899, Control_c, 7, 7, 66
9, 51899, Control_c, 7, 7, 66
9, 51900, Note_on_c, 7, 64, 107
9, 51920, Control_c, 7, 7, 68
9, 51929, Control_c, 7, 7, 67
9, 51929, Control_c, 7, 7, 67
9, 51929, Control_c, 7, 7, 67
9, 51929, Control_c, 7, 7, 67
9, 51948, Note_on_c, 7, 64, 0
9, 51959, Control_c, 7, 7, 68
9, 51959, Control_c, 7, 7, 68
9, 51959, Control_c, 7, 7, 68
9, 51959, Control_c, 7, 7, 68
9, 51960, Note_on_c, 7, 71, 0
9, 51960, Note_on_c, 7, 68, 109
9, 51960, Note_on_c, 7, 62, 109
9, 51989, Control_c, 7, 7, 69
9, 51989, Control_c, 7, 7, 69
9, 51989, Control_c, 7, 7, 69
9, 51989, Control_c, 7, 7, 69
9, 52008, Note_on_c, 7, 62, 0
9, 52010, Control_c, 7, 7, 69
9, 52019, Control_c, 7, 7, 70
9, 52019, Control_c, 7, 7, 70
9, 52019, Control_c, 7, 7, 70
9, 52019, Control_c, 7, 7, 70
9, 52020, Note_on_c, 7, 64, 113
9, 52020, Control_c, 7, 7, 70
9, 52049, Control_c, 7, 7, 71
9, 52049, Control_c, 7, 7, 71
9, 52049, Control_c, 7, 7, 71
9, 52049, Control_c, 7, 7, 71
9, 52068, Note_on_c, 7, 64, 0
9, 52079, Control_c, 7, 7, 72
9, 52079, Control_c, 7, 7, 72
9, 52079, Control_c, 7, 7, 72
9, 52079, Control_c, 7, 7, 72
9, 52080, Note_on_c, 7, 68, 0
9, 52080, Note_on_c, 7, 66, 115
9, 52080, Note_on_c, 7, 59, 115
9, 52109, Control_c, 7, 7, 73
9, 52109, Control_c, 7, 7, 73
9, 52109, Control_c, 7, 7, 73
9, 52109, Control_c, 7, 7, 73
9, 52130, Control_c, 7, 7, 71
9, 52132, Note_on_c, 7, 59, 0
9, 52139, Control_c, 7, 7, 74
9, 52139, Control_c, 7, 7, 74
9, 52139, Control_c, 7, 7, 74
9, 52139, Control_c, 7, 7, 74
9, 52140, Note_on_c, 7, 64, 119
9, 52160, Control_c, 7, 7, 72
9, 52169, Control_c, 7, 7, 75
9, 52169, Control_c, 7, 7, 75
9, 52169, Control_c, 7, 7, 75
9, 52169, Control_c, 7, 7, 75
9, 52170, Control_c, 7, 7, 73
9, 52188, Note_on_c, 7, 64, 0
9, 52199, Control_c, 7, 7, 76
9, 52199, Control_c, 7, 7, 76
9, 52199, Control_c, 7, 7, 76
9, 52199, Control_c, 7, 7, 76
9, 52200, Note_on_c, 7, 66, 0
9, 52200, Note_on_c, 7, 64, 120
9, 52200, Note_on_c, 7, 59, 120
9, 52210, Control_c, 7, 7, 74
9, 52224, Note_on_c, 7, 56, 0
9, 52229, Control_c, 7, 7, 77
9, 52229, Control_c, 7, 7, 77
9, 52229, Control_c, 7, 7, 77
9, 52229, Control_c, 7, 7, 77
9, 52230, Control_c, 7, 7, 75
9, 52248, Note_on_c, 7, 59, 0
9, 52250, Control_c, 7, 7, 77
9, 52259, Control_c, 7, 7, 78
9, 52259, Control_c, 7, 7, 78
9, 52259, Control_c, 7, 7, 78
9, 52259, Control_c, 7, 7, 78
9, 52260, Note_on_c, 7, 64, 123
9, 52270, Control_c, 7, 7, 78
9, 52289, Control_c, 7, 7, 79
9, 52289, Control_c, 7, 7, 79
9, 52289, Control_c, 7, 7, 79
9, 52289, Control_c, 7, 7, 79
9, 52296, Note_on_c, 7, 64, 0
9, 52310, Control_c, 7, 7, 80
9, 52319, Control_c, 7, 7, 80
9, 52319, Control_c, 7, 7, 80
9, 52319, Control_c, 7, 7, 80
9, 52319, Control_c, 7, 7, 80
9, 52320, Note_on_c, 7, 64, 0
9, 52320, Note_on_c, 7, 76, 124
9, 52320, Note_on_c, 7, 61, 124
9, 52320, Note_on_c, 7, 57, 124
9, 52330, Control_c, 7, 7, 81
9, 52349, Control_c, 7, 7, 81
9, 52349, Control_c, 7, 7, 81
9, 52349, Control_c, 7, 7, 81
9, 52349, Control_c, 7, 7, 81
9, 52360, Control_c, 7, 7, 82
9, 52378, Note_on_c, 7, 61, 0
9, 52379, Control_c, 7, 7, 82
9, 52379, Control_c, 7, 7, 82
9, 52379, Control_c, 7, 7, 82
9, 52379, Control_c, 7, 7, 82
9, 52380, Note_on_c, 7, 64, 127
9, 52400, Control_c, 7, 7, 83
9, 52409, Control_c, 7, 7, 83
9, 52409, Control_c, 7, 7, 83
9, 52409, Control_c, 7, 7, 83
9, 52409, Control_c, 7, 7, 83
9, 52416, Note_on_c, 7, 76, 0
9, 52428, Note_on_c, 7, 64, 0
9, 52439, Control_c, 7, 7, 84
9, 52439, Control_c, 7, 7, 84
9, 52439, Control_c, 7, 7, 84
9, 52439, Control_c, 7, 7, 84
9, 52440, Note_on_c, 7, 76, 127
9, 52440, Note_on_c, 7, 61, 127
9, 52469, Control_c, 7, 7, 85
9, 52469, Control_c, 7, 7, 85
9, 52469, Control_c, 7, 7, 85
9, 52469, Control_c, 7, 7, 85
9, 52488, Note_on_c, 7, 61, 0
9, 52499, Control_c, 7, 7, 86
9, 52499, Control_c, 7, 7, 86
9, 52499, Control_c, 7, 7, 86
9, 52499, Control_c, 7, 7, 86
9, 52500, Note_on_c, 7, 64, 127
9, 52500, Control_c, 7, 7, 84
9, 52512, Note_on_c, 7, 57, 0
9, 52529, Control_c, 7, 7, 87
9, 52529, Control_c, 7, 7, 87
9, 52529, Control_c, 7, 7, 87
9, 52529, Control_c, 7, 7, 87
9, 52536, Note_on_c, 7, 76, 0
9, 52548, Note_on_c, 7, 64, 0
9, 52559, Control_c, 7, 7, 88
9, 52559, Control_c, 7, 7, 88
9, 52559, Control_c, 7, 7, 88
9, 52559, Control_c, 7, 7, 88
9, 52560, Note_on_c, 7, 76, 127
9, 52560, Note_on_c, 7, 62, 127
9, 52560, Note_on_c, 7, 59, 127
9, 52589, Control_c, 7, 7, 89
9, 52589, Control_c, 7, 7, 89
9, 52589, Control_c, 7, 7, 89
9, 52589, Control_c, 7, 7, 89
9, 52612, Note_on_c, 7, 62, 0
9, 52619, Control_c, 7, 7, 90
9, 52619, Control_c, 7, 7, 90
9, 52619, Control_c, 7, 7, 90
9, 52619, Control_c, 7, 7, 90
9, 52620, Note_on_c, 7, 64, 127
9, 52649, Control_c, 7, 7, 91
9, 52649, Control_c, 7, 7, 91
9, 52649, Control_c, 7, 7, 91
9, 52649, Control_c, 7, 7, 91
9, 52656, Note_on_c, 7, 76, 0
9, 52668, Note_on_c, 7, 64, 0
9, 52679, Control_c, 7, 7, 92
9, 52679, Control_c, 7, 7, 92
9, 52679, Control_c, 7, 7, 92
9, 52679, Control_c, 7, 7, 92
9, 52680, Note_on_c, 7, 76, 127
9, 52680, Note_on_c, 7, 62, 127
9, 52709, Control_c, 7, 7, 93
9, 52709, Control_c, 7, 7, 93
9, 52709, Control_c, 7, 7, 93
9, 52709, Control_c, 7, 7, 93
9, 52728, Note_on_c, 7, 62, 0
9, 52739, Control_c, 7, 7, 94
9, 52739, Control_c, 7, 7, 94
9, 52739, Control_c, 7, 7, 94
9, 52739, Control_c, 7, 7, 94
9, 52740, Note_on_c, 7, 64, 127
9, 52752, Note_on_c, 7, 59, 0
9, 52769, Control_c, 7, 7, 95
9, 52769, Control_c, 7, 7, 95
9, 52769, Control_c, 7, 7, 95
9, 52769, Control_c, 7, 7, 95
9, 52776, Note_on_c, 7, 76, 0
9, 52788, Note_on_c, 7, 64, 0
9, 52799, Control_c, 7, 7, 96
9, 52799, Control_c, 7, 7, 96
9, 52799, Control_c, 7, 7, 96
9, 52799, Control_c, 7, 7, 96
9, 52800, Note_on_c, 7, 76, 127
9, 52800, Note_on_c, 7, 61, 127
9, 52800, Note_on_c, 7, 57, 127
9, 52800, Control_c, 7, 7, 96
9, 52800, Control_c, 7, 7, 96
9, 52800, Control_c, 7, 7, 96
9, 52800, Control_c, 7, 7, 96
9, 52810, Control_c, 7, 7, 83
9, 52814, Control_c, 7, 7, 95
9, 52814, Control_c, 7, 7, 95
9, 52814, Control_c, 7, 7, 95
9, 52814, Control_c, 7, 7, 95
9, 52829, Control_c, 7, 7, 94
9, 52829, Control_c, 7, 7, 94
9, 52829, Control_c, 7, 7, 94
9, 52829, Control_c, 7, 7, 94
9, 52840, Control_c, 7, 7, 82
9, 52844, Control_c, 7, 7, 93
9, 52844, Control_c, 7, 7, 93
9, 52844, Control_c, 7, 7, 93
9, 52844, Control_c, 7, 7, 93
9, 52850, Control_c, 7, 7, 81
9, 52858, Note_on_c, 7, 61, 0
9, 52859, Control_c, 7, 7, 92
9, 52859, Control_c, 7, 7, 92
9, 52859, Control_c, 7, 7, 92
9, 52859, Control_c, 7, 7, 92
9, 52860, Note_on_c, 7, 64, 127
9, 52874, Control_c, 7, 7, 91
9, 52874, Control_c, 7, 7, 91
9, 52874, Control_c, 7, 7, 91
9, 52874, Control_c, 7, 7, 91
9, 52889, Control_c, 7, 7, 90
9, 52889, Control_c, 7, 7, 90
9, 52889, Control_c, 7, 7, 90
9, 52889, Control_c, 7, 7, 90
9, 52890, Control_c, 7, 7, 80
9, 52904, Control_c, 7, 7, 89
9, 52904, Control_c, 7, 7, 89
9, 52904, Control_c, 7, 7, 89
9, 52904, Control_c, 7, 7, 89
9, 52908, Note_on_c, 7, 64, 0
9, 52919, Control_c, 7, 7, 88
9, 52919, Control_c, 7, 7, 88
9, 52919, Control_c, 7, 7, 88
9, 52919, Control_c, 7, 7, 88
9, 52920, Note_on_c, 7, 61, 127
9, 52934, Control_c, 7, 7, 87
9, 52934, Control_c, 7, 7, 87
9, 52934, Control_c, 7, 7, 87
9, 52934, Control_c, 7, 7, 87
9, 52944, Note_on_c, 7, 76, 0
9, 52949, Control_c, 7, 7, 86
9, 52949, Control_c, 7, 7, 86
9, 52949, Control_c, 7, 7, 86
9, 52949, Control_c, 7, 7, 86
9, 52964, Control_c, 7, 7, 85
9, 52964, Control_c, 7, 7, 85
9, 52964, Control_c, 7, 7, 85
9, 52964, Control_c, 7, 7, 85
9, 52968, Note_on_c, 7, 61, 0
9, 52970, Control_c, 7, 7, 79
9, 52979, Control_c, 7, 7, 84
9, 52979, Control_c, 7, 7, 84
9, 52979, Control_c, 7, 7, 84
9, 52979, Control_c, 7, 7, 84
9, 52980, Note_on_c, 7, 78, 127
9, 52980, Note_on_c, 7, 64, 127
9, 52980, Control_c, 7, 7, 78
9, 52994, Control_c, 7, 7, 83
9, 52994, Control_c, 7, 7, 83
9, 52994, Control_c, 7, 7, 83
9, 52994, Control_c, 7, 7, 83
9, 52996, Note_on_c, 7, 78, 0
9, 53000, Note_on_c, 7, 76, 127
9, 53009, Control_c, 7, 7, 82
9, 53009, Control_c, 7, 7, 82
9, 53009, Control_c, 7, 7, 82
9, 53009, Control_c, 7, 7, 82
9, 53010, Control_c, 7, 7, 76
9, 53016, Note_on_c, 7, 76, 0
9, 53020, Note_on_c, 7, 74, 127
9, 53024, Control_c, 7, 7, 81
9, 53024, Control_c, 7, 7, 81
9, 53024, Control_c, 7, 7, 81
9, 53024, Control_c, 7, 7, 81
9, 53028, Note_on_c, 7, 64, 0
9, 53036, Note_on_c, 7, 74, 0
9, 53039, Control_c, 7, 7, 80
9, 53039, Control_c, 7, 7, 80
9, 53039, Control_c, 7, 7, 80
9, 53039, Control_c, 7, 7, 80
9, 53040, Note_on_c, 7, 73, 127
9, 53040, Note_on_c, 7, 61, 127
9, 53040, Control_c, 7, 7, 75
9, 53054, Control_c, 7, 7, 79
9, 53054, Control_c, 7, 7, 79
9, 53054, Control_c, 7, 7, 79
9, 53054, Control_c, 7, 7, 79
9, 53069, Control_c, 7, 7, 78
9, 53069, Control_c, 7, 7, 78
9, 53069, Control_c, 7, 7, 78
9, 53069, Control_c, 7, 7, 78
9, 53080, Control_c, 7, 7, 73
9, 53084, Control_c, 7, 7, 77
9, 53084, Control_c, 7, 7, 77
9, 53084, Control_c, 7, 7, 77
9, 53084, Control_c, 7, 7, 77
9, 53092, Note_on_c, 7, 61, 0
9, 53099, Control_c, 7, 7, 76
9, 53099, Control_c, 7, 7, 76
9, 53099, Control_c, 7, 7, 76
9, 53099, Control_c, 7, 7, 76
9, 53100, Note_on_c, 7, 64, 127
9, 53100, Control_c, 7, 7, 72
9, 53114, Control_c, 7, 7, 75
9, 53114, Control_c, 7, 7, 75
9, 53114, Control_c, 7, 7, 75
9, 53114, Control_c, 7, 7, 75
9, 53129, Control_c, 7, 7, 74
9, 53129, Control_c, 7, 7, 74
9, 53129, Control_c, 7, 7, 74
9, 53129, Control_c, 7, 7, 74
9, 53130, Control_c, 7, 7, 71
9, 53136, Note_on_c, 7, 73, 0
9, 53140, Control_c, 7, 7, 70
9, 53144, Control_c, 7, 7, 73
9, 53144, Control_c, 7, 7, 73
9, 53144, Control_c, 7, 7, 73
9, 53144, Control_c, 7, 7, 73
9, 53148, Note_on_c, 7, 64, 0
9, 53159, Control_c, 7, 7, 72
9, 53159, Control_c, 7, 7, 72
9, 53159, Control_c, 7, 7, 72
9, 53159, Control_c, 7, 7, 72
9, 53160, Note_on_c, 7, 61, 113
9, 53170, Control_c, 7, 7, 69
9, 53174, Control_c, 7, 7, 71
9, 53174, Control_c, 7, 7, 71
9, 53174, Control_c, 7, 7, 71
9, 53174, Control_c, 7, 7, 71
9, 53180, Control_c, 7, 7, 68
9, 53184, Note_on_c, 7, 45, 0
9, 53184, Note_on_c, 7, 57, 0
9, 53189, Control_c, 7, 7, 70
9, 53189, Control_c, 7, 7, 70
9, 53189, Control_c, 7, 7, 70
9, 53189, Control_c, 7, 7, 70
9, 53204, Control_c, 7, 7, 69
9, 53204, Control_c, 7, 7, 69
9, 53204, Control_c, 7, 7, 69
9, 53204, Control_c, 7, 7, 69
9, 53208, Note_on_c, 7, 61, 0
9, 53219, Control_c, 7, 7, 68
9, 53219, Control_c, 7, 7, 68
9, 53219, Control_c, 7, 7, 68
9, 53219, Control_c, 7, 7, 68
9, 53220, Note_on_c, 7, 64, 98
9, 53220, Control_c, 7, 7, 67
9, 53234, Control_c, 7, 7, 67
9, 53234, Control_c, 7, 7, 67
9, 53234, Control_c, 7, 7, 67
9, 53234, Control_c, 7, 7, 67
9, 53249, Control_c, 7, 7, 66
9, 53249, Control_c, 7, 7, 66
9, 53249, Control_c, 7, 7, 66
9, 53249, Control_c, 7, 7, 66
9, 53250, Control_c, 7, 7, 66
9, 53264, Control_c, 7, 7, 65
9, 53264, Control_c, 7, 7, 65
9, 53264, Control_c, 7, 7, 65
9, 53264, Control_c, 7, 7, 65
9, 53268, Note_on_c, 7, 64, 0
9, 53270, Control_c, 7, 7, 65
9, 53279, Control_c, 7, 7, 64
9, 53279, Control_c, 7, 7, 64
9, 53279, Control_c, 7, 7, 64
9, 53279, Control_c, 7, 7, 64
9, 53280, Note_on_c, 7, 81, 127
9, 53280, Note_on_c, 7, 64, 127
9, 53280, Note_on_c, 7, 49, 127
9, 53280, Note_on_c, 7, 49, 127
9, 53290, Control_c, 7, 7, 64
9, 53338, Note_on_c, 7, 64, 0
9, 53340, Note_on_c, 7, 69, 127
9, 53376, Note_on_c, 7, 49, 0
9, 53388, Note_on_c, 7, 69, 0
9, 53400, Note_on_c, 7, 64, 126
9, 53448, Note_on_c, 7, 64, 0
9, 53460, Note_on_c, 7, 69, 117
9, 53508, Note_on_c, 7, 69, 0
9, 53520, Note_on_c, 7, 64, 114
9, 53572, Note_on_c, 7, 64, 0
9, 53580, Note_on_c, 7, 69, 112
9, 53628, Note_on_c, 7, 69, 0
9, 53640, Note_on_c, 7, 81, 0
9, 53640, Note_on_c, 7, 73, 110
9, 53640, Note_on_c, 7, 64, 110
9, 53664, Note_on_c, 7, 49, 0
9, 53688, Note_on_c, 7, 64, 0
9, 53700, Note_on_c, 7, 69, 110
9, 53736, Note_on_c, 7, 73, 0
9, 53748, Note_on_c, 7, 69, 0
9, 53760, Note_on_c, 7, 71, 110
9, 53760, Note_on_c, 7, 62, 110
9, 53760, Control_c, 7, 7, 64
9, 53760, Control_c, 7, 7, 64
9, 53760, Note_on_c, 7, 50, 110
9, 53760, Control_c, 7, 7, 64
9, 53760, Control_c, 7, 7, 64
9, 53760, Note_on_c, 7, 50, 110
9, 53760, Control_c, 7, 7, 64
9, 53760, Control_c, 7, 7, 64
9, 53770, Control_c, 7, 7, 64
9, 53790, Control_c, 7, 7, 65
9, 53810, Control_c, 7, 7, 66
9, 53818, Note_on_c, 7, 62, 0
9, 53820, Note_on_c, 7, 66, 110
9, 53840, Control_c, 7, 7, 67
9, 53850, Control_c, 7, 7, 68
9, 53856, Note_on_c, 7, 50, 0
9, 53868, Note_on_c, 7, 66, 0
9, 53880, Note_on_c, 7, 71, 0
9, 53880, Note_on_c, 7, 74, 112
9, 53880, Note_on_c, 7, 62, 112
9, 53890, Control_c, 7, 7, 69
9, 53928, Note_on_c, 7, 62, 0
9, 53930, Control_c, 7, 7, 70
9, 53940, Note_on_c, 7, 66, 112
9, 53950, Control_c, 7, 7, 71
9, 53980, Control_c, 7, 7, 72
9, 53988, Note_on_c, 7, 66, 0
9, 54000, Note_on_c, 7, 74, 0
9, 54000, Note_on_c, 7, 78, 115
9, 54000, Note_on_c, 7, 62, 115
9, 54000, Control_c, 7, 7, 73
9, 54050, Control_c, 7, 7, 75
9, 54052, Note_on_c, 7, 62, 0
9, 54060, Note_on_c, 7, 66, 117
9, 54090, Control_c, 7, 7, 76
9, 54096, Note_on_c, 7, 78, 0
9, 54108, Note_on_c, 7, 66, 0
9, 54110, Control_c, 7, 7, 77
9, 54120, Note_on_c, 7, 78, 119
9, 54120, Note_on_c, 7, 62, 119
9, 54140, Control_c, 7, 7, 78
9, 54144, Note_on_c, 7, 50, 0
9, 54168, Note_on_c, 7, 62, 0
9, 54170, Control_c, 7, 7, 80
9, 54180, Note_on_c, 7, 66, 121
9, 54210, Control_c, 7, 7, 81
9, 54216, Note_on_c, 7, 78, 0
9, 54220, Control_c, 7, 7, 82
9, 54228, Note_on_c, 7, 66, 0
9, 54240, Note_on_c, 7, 74, 123
9, 54240, Note_on_c, 7, 59, 123
9, 54240, Note_on_c, 7, 52, 123
9, 54240, Note_on_c, 7, 52, 123
9, 54250, Control_c, 7, 7, 83
9, 54270, Control_c, 7, 7, 84
9, 54290, Control_c, 7, 7, 85
9, 54298, Note_on_c, 7, 59, 0
9, 54300, Note_on_c, 7, 62, 123
9, 54330, Control_c, 7, 7, 86
9, 54336, Note_on_c, 7, 52, 0
9, 54348, Note_on_c, 7, 62, 0
9, 54350, Control_c, 7, 7, 87
9, 54360, Note_on_c, 7, 74, 0
9, 54360, Note_on_c, 7, 71, 123
9, 54360, Note_on_c, 7, 59, 123
9, 54370, Control_c, 7, 7, 88
9, 54400, Control_c, 7, 7, 89
9, 54408, Note_on_c, 7, 59, 0
9, 54420, Note_on_c, 7, 62, 123
9, 54450, Control_c, 7, 7, 91
9, 54468, Note_on_c, 7, 62, 0
9, 54480, Note_on_c, 7, 71, 0
9, 54480, Note_on_c, 7, 68, 123
9, 54480, Note_on_c, 7, 59, 123
9, 54480, Control_c, 7, 7, 92
9, 54500, Control_c, 7, 7, 93
9, 54530, Control_c, 7, 7, 94
9, 54532, Note_on_c, 7, 59, 0
9, 54540, Note_on_c, 7, 62, 123
9, 54560, Control_c, 7, 7, 95
9, 54576, Note_on_c, 7, 68, 0
9, 54580, Control_c, 7, 7, 96
9, 54588, Note_on_c, 7, 62, 0
9, 54600, Note_on_c, 7, 68, 123
9, 54600, Note_on_c, 7, 59, 123
9, 54600, Control_c, 7, 7, 97
9, 54624, Note_on_c, 7, 52, 0
9, 54640, Control_c, 7, 7, 98
9, 54648, Note_on_c, 7, 59, 0
9, 54660, Note_on_c, 7, 62, 121
9, 54660, Control_c, 7, 7, 99
9, 54696, Note_on_c, 7, 68, 0
9, 54708, Note_on_c, 7, 62, 0
9, 54720, Note_on_c, 7, 69, 119
9, 54720, Note_on_c, 7, 57, 119
9, 54720, Note_on_c, 7, 45, 119
9, 54730, Control_c, 7, 7, 100
9, 54734, Control_c, 7, 7, 95
9, 54734, Control_c, 7, 7, 95
9, 54734, Control_c, 7, 7, 95
9, 54734, Control_c, 7, 7, 95
9, 54740, Control_c, 7, 7, 99
9, 54760, Control_c, 7, 7, 98
9, 54778, Note_on_c, 7, 57, 0
9, 54780, Note_on_c, 7, 61, 118
9, 54790, Control_c, 7, 7, 97
9, 54800, Control_c, 7, 7, 96
9, 54828, Note_on_c, 7, 61, 0
9, 54840, Note_on_c, 7, 69, 0
9, 54840, Note_on_c, 7, 64, 116
9, 54840, Note_on_c, 7, 57, 116
9, 54840, Control_c, 7, 7, 95
9, 54870, Control_c, 7, 7, 94
9, 54880, Control_c, 7, 7, 92
9, 54888, Note_on_c, 7, 57, 0
9, 54890, Control_c, 7, 7, 91
9, 54900, Note_on_c, 7, 61, 114
9, 54900, Control_c, 7, 7, 90
9, 54920, Control_c, 7, 7, 88
9, 54940, Control_c, 7, 7, 87
9, 54948, Note_on_c, 7, 61, 0
9, 54950, Control_c, 7, 7, 86
9, 54960, Note_on_c, 7, 64, 0
9, 54960, Note_on_c, 7, 61, 113
9, 54960, Note_on_c, 7, 57, 113
9, 54960, Control_c, 7, 7, 84
9, 54990, Control_c, 7, 7, 82
9, 55000, Control_c, 7, 7, 80
9, 55012, Note_on_c, 7, 57, 0
9, 55020, Note_on_c, 7, 61, 112
9, 55056, Note_on_c, 7, 61, 0
9, 55068, Note_on_c, 7, 61, 0
9, 55070, Control_c, 7, 7, 78
9, 55080, Note_on_c, 7, 61, 110
9, 55080, Note_on_c, 7, 57, 110
9, 55080, Control_c, 7, 7, 76
9, 55090, Control_c, 7, 7, 75
9, 55104, Note_on_c, 7, 45, 0
9, 55110, Control_c, 7, 7, 73
9, 55120, Control_c, 7, 7, 71
9, 55128, Note_on_c, 7, 57, 0
9, 55140, Note_on_c, 7, 61, 109
9, 55150, Control_c, 7, 7, 70
9, 55160, Control_c, 7, 7, 69
9, 55176, Note_on_c, 7, 61, 0
9, 55180, Control_c, 7, 7, 68
9, 55188, Note_on_c, 7, 61, 0
9, 55200, Note_on_c, 7, 61, 106
9, 55200, Note_on_c, 7, 69, 106
9, 55200, Note_on_c, 7, 57, 106
9, 55200, Control_c, 7, 7, 66
9, 55210, Control_c, 7, 7, 64
9, 55258, Note_on_c, 7, 61, 0
9, 55260, Note_on_c, 7, 64, 102
9, 55270, Control_c, 7, 7, 49
9, 55290, Control_c, 7, 7, 49
9, 55300, Control_c, 7, 7, 50
9, 55308, Note_on_c, 7, 64, 0
9, 55320, Note_on_c, 7, 61, 99
9, 55320, Control_c, 7, 7, 51
9, 55330, Control_c, 7, 7, 52
9, 55368, Note_on_c, 7, 61, 0
9, 55370, Control_c, 7, 7, 53
9, 55380, Note_on_c, 7, 64, 98
9, 55390, Control_c, 7, 7, 54
9, 55400, Control_c, 7, 7, 55
9, 55420, Control_c, 7, 7, 56
9, 55428, Note_on_c, 7, 64, 0
9, 55440, Note_on_c, 7, 61, 98
9, 55488, Note_on_c, 7, 69, 0
9, 55490, Control_c, 7, 7, 58
9, 55492, Note_on_c, 7, 61, 0
9, 55500, Note_on_c, 7, 64, 97
9, 55520, Control_c, 7, 7, 59
9, 55540, Control_c, 7, 7, 60
9, 55548, Note_on_c, 7, 64, 0
9, 55560, Note_on_c, 7, 61, 97
9, 55560, Note_on_c, 7, 73, 97
9, 55584, Note_on_c, 7, 57, 0
9, 55608, Note_on_c, 7, 61, 0
9, 55610, Control_c, 7, 7, 61
9, 55620, Note_on_c, 7, 64, 98
9, 55620, Control_c, 7, 7, 62
9, 55640, Control_c, 7, 7, 63
9, 55656, Note_on_c, 7, 73, 0
9, 55668, Note_on_c, 7, 64, 0
9, 55680, Note_on_c, 7, 62, 100
9, 55680, Note_on_c, 7, 71, 100
9, 55680, Note_on_c, 7, 56, 100
9, 55720, Control_c, 7, 7, 64
9, 55738, Note_on_c, 7, 62, 0
9, 55740, Note_on_c, 7, 64, 102
9, 55776, Note_on_c, 7, 71, 0
9, 55780, Control_c, 7, 7, 66
9, 55788, Note_on_c, 7, 64, 0
9, 55800, Note_on_c, 7, 68, 104
9, 55800, Note_on_c, 7, 62, 104
9, 55810, Control_c, 7, 7, 68
9, 55848, Note_on_c, 7, 62, 0
9, 55850, Control_c, 7, 7, 70
9, 55860, Note_on_c, 7, 64, 106
9, 55880, Control_c, 7, 7, 72
9, 55896, Note_on_c, 7, 68, 0
9, 55908, Note_on_c, 7, 64, 0
9, 55920, Note_on_c, 7, 59, 108
9, 55920, Note_on_c, 7, 66, 108
9, 55920, Control_c, 7, 7, 74
9, 55972, Note_on_c, 7, 59, 0
9, 55980, Note_on_c, 7, 64, 110
9, 55980, Control_c, 7, 7, 75
9, 56000, Control_c, 7, 7, 76
9, 56016, Note_on_c, 7, 66, 0
9, 56020, Control_c, 7, 7, 78
9, 56028, Note_on_c, 7, 64, 0
9, 56040, Note_on_c, 7, 59, 112
9, 56040, Note_on_c, 7, 64, 112
9, 56060, Control_c, 7, 7, 79
9, 56064, Note_on_c, 7, 56, 0
9, 56070, Control_c, 7, 7, 80
9, 56088, Note_on_c, 7, 59, 0
9, 56100, Note_on_c, 7, 64, 114
9, 56110, Control_c, 7, 7, 82
9, 56136, Note_on_c, 7, 64, 0
9, 56148, Note_on_c, 7, 64, 0
9, 56160, Note_on_c, 7, 61, 116
9, 56160, Note_on_c, 7, 76, 116
9, 56160, Note_on_c, 7, 57, 116
9, 56170, Control_c, 7, 7, 83
9, 56180, Control_c, 7, 7, 84
9, 56218, Note_on_c, 7, 61, 0
9, 56220, Note_on_c, 7, 64, 119
9, 56240, Control_c, 7, 7, 85
9, 56250, Control_c, 7, 7, 86
9, 56256, Note_on_c, 7, 76, 0
9, 56268, Note_on_c, 7, 64, 0
9, 56270, Control_c, 7, 7, 87
9, 56280, Note_on_c, 7, 61, 120
9, 56280, Note_on_c, 7, 76, 120
9, 56290, Control_c, 7, 7, 88
9, 56320, Control_c, 7, 7, 90
9, 56328, Note_on_c, 7, 61, 0
9, 56340, Note_on_c, 7, 64, 123
9, 56350, Control_c, 7, 7, 91
9, 56352, Note_on_c, 7, 57, 0
9, 56376, Note_on_c, 7, 76, 0
9, 56380, Control_c, 7, 7, 92
9, 56388, Note_on_c, 7, 64, 0
9, 56390, Control_c, 7, 7, 93
9, 56400, Note_on_c, 7, 62, 125
9, 56400, Note_on_c, 7, 76, 125
9, 56400, Note_on_c, 7, 59, 125
9, 56430, Control_c, 7, 7, 94
9, 56452, Note_on_c, 7, 62, 0
9, 56460, Note_on_c, 7, 64, 127
9, 56496, Note_on_c, 7, 76, 0
9, 56500, Control_c, 7, 7, 95
9, 56508, Note_on_c, 7, 64, 0
9, 56520, Note_on_c, 7, 62, 127
9, 56520, Note_on_c, 7, 76, 127
9, 56568, Note_on_c, 7, 62, 0
9, 56580, Note_on_c, 7, 64, 127
9, 56592, Note_on_c, 7, 59, 0
9, 56609, Control_c, 7, 7, 95
9, 56609, Control_c, 7, 7, 95
9, 56609, Control_c, 7, 7, 95
9, 56609, Control_c, 7, 7, 95
9, 56616, Note_on_c, 7, 76, 0
9, 56628, Note_on_c, 7, 64, 0
9, 56639, Control_c, 7, 7, 96
9, 56639, Control_c, 7, 7, 96
9, 56639, Control_c, 7, 7, 96
9, 56639, Control_c, 7, 7, 96
9, 56640, Note_on_c, 7, 61, 127
9, 56640, Note_on_c, 7, 76, 127
9, 56640, Note_on_c, 7, 57, 127
9, 56640, Control_c, 7, 7, 95
9, 56660, Control_c, 7, 7, 94
9, 56680, Control_c, 7, 7, 93
9, 56690, Control_c, 7, 7, 92
9, 56698, Note_on_c, 7, 61, 0
9, 56700, Note_on_c, 7, 64, 127
9, 56700, Control_c, 7, 7, 91
9, 56730, Control_c, 7, 7, 90
9, 56740, Control_c, 7, 7, 89
9, 56748, Note_on_c, 7, 64, 0
9, 56760, Note_on_c, 7, 61, 127
9, 56760, Control_c, 7, 7, 88
9, 56780, Control_c, 7, 7, 86
9, 56784, Note_on_c, 7, 76, 0
9, 56790, Control_c, 7, 7, 85
9, 56808, Note_on_c, 7, 61, 0
9, 56810, Control_c, 7, 7, 84
9, 56820, Note_on_c, 7, 64, 127
9, 56820, Note_on_c, 7, 78, 127
9, 56820, Control_c, 7, 7, 83
9, 56836, Note_on_c, 7, 78, 0
9, 56840, Note_on_c, 7, 76, 127
9, 56840, Control_c, 7, 7, 82
9, 56856, Note_on_c, 7, 76, 0
9, 56860, Note_on_c, 7, 74, 127
9, 56860, Control_c, 7, 7, 80
9, 56868, Note_on_c, 7, 64, 0
9, 56876, Note_on_c, 7, 74, 0
9, 56880, Note_on_c, 7, 61, 127
9, 56880, Note_on_c, 7, 73, 127
9, 56880, Control_c, 7, 7, 79
9, 56900, Control_c, 7, 7, 76
9, 56910, Control_c, 7, 7, 75
9, 56930, Control_c, 7, 7, 74
9, 56932, Note_on_c, 7, 61, 0
9, 56940, Note_on_c, 7, 64, 127
9, 56940, Control_c, 7, 7, 73
9, 56950, Control_c, 7, 7, 72
9, 56960, Control_c, 7, 7, 71
9, 56970, Control_c, 7, 7, 70
9, 56976, Note_on_c, 7, 73, 0
9, 56980, Control_c, 7, 7, 68
9, 56988, Note_on_c, 7, 64, 0
9, 57000, Note_on_c, 7, 61, 119
9, 57000, Control_c, 7, 7, 67
9, 57010, Control_c, 7, 7, 66
9, 57020, Control_c, 7, 7, 65
9, 57024, Note_on_c, 7, 57, 0
9, 57030, Control_c, 7, 7, 64
9, 57048, Note_on_c, 7, 61, 0
9, 57060, Note_on_c, 7, 64, 111
9, 57060, Control_c, 7, 7, 63
9, 57070, Control_c, 7, 7, 62
9, 57100, Control_c, 7, 7, 61
9, 57108, Note_on_c, 7, 64, 0
9, 57110, Control_c, 7, 7, 60
9, 57120, Note_on_c, 7, 64, 127
9, 57120, Note_on_c, 7, 81, 127
9, 57120, Note_on_c, 7, 49, 127
9, 57120, Note_on_c, 7, 49, 127
9, 57178, Note_on_c, 7, 64, 0
9, 57180, Note_on_c, 7, 69, 127
9, 57216, Note_on_c, 7, 49, 0
9, 57228, Note_on_c, 7, 69, 0
9, 57240, Note_on_c, 7, 64, 119
9, 57288, Note_on_c, 7, 64, 0
9, 57300, Note_on_c, 7, 69, 115
9, 57348, Note_on_c, 7, 69, 0
9, 57360, Note_on_c, 7, 64, 112
9, 57412, Note_on_c, 7, 64, 0
9, 57420, Note_on_c, 7, 69, 109
9, 57468, Note_on_c, 7, 69, 0
9, 57480, Note_on_c, 7, 81, 0
9, 57480, Note_on_c, 7, 64, 107
9, 57480, Note_on_c, 7, 73, 107
9, 57504, Note_on_c, 7, 49, 0
9, 57528, Note_on_c, 7, 64, 0
9, 57540, Note_on_c, 7, 69, 105
9, 57576, Note_on_c, 7, 73, 0
9, 57588, Note_on_c, 7, 69, 0
9, 57600, Note_on_c, 7, 62, 105
9, 57600, Note_on_c, 7, 71, 105
9, 57600, Note_on_c, 7, 50, 105
9, 57600, Note_on_c, 7, 50, 105
9, 57600, Control_c, 7, 7, 64
9, 57658, Note_on_c, 7, 62, 0
9, 57660, Note_on_c, 7, 66, 105
9, 57696, Note_on_c, 7, 50, 0
9, 57708, Note_on_c, 7, 66, 0
9, 57710, Control_c, 7, 7, 65
9, 57720, Note_on_c, 7, 71, 0
9, 57720, Note_on_c, 7, 74, 105
9, 57720, Note_on_c, 7, 62, 105
9, 57768, Note_on_c, 7, 62, 0
9, 57780, Note_on_c, 7, 66, 105
9, 57780, Control_c, 7, 7, 66
9, 57790, Control_c, 7, 7, 67
9, 57800, Control_c, 7, 7, 68
9, 57828, Note_on_c, 7, 66, 0
9, 57830, Control_c, 7, 7, 70
9, 57840, Note_on_c, 7, 74, 0
9, 57840, Note_on_c, 7, 62, 107
9, 57840, Note_on_c, 7, 78, 107
9, 57870, Control_c, 7, 7, 72
9, 57892, Note_on_c, 7, 62, 0
9, 57900, Note_on_c, 7, 66, 111
9, 57900, Control_c, 7, 7, 73
9, 57930, Control_c, 7, 7, 74
9, 57936, Note_on_c, 7, 78, 0
9, 57948, Note_on_c, 7, 66, 0
9, 57960, Note_on_c, 7, 62, 114
9, 57960, Note_on_c, 7, 78, 114
9, 57970, Control_c, 7, 7, 75
9, 57984, Note_on_c, 7, 50, 0
9, 57990, Control_c, 7, 7, 76
9, 58008, Note_on_c, 7, 62, 0
9, 58020, Note_on_c, 7, 66, 116
9, 58020, Control_c, 7, 7, 77
9, 58040, Control_c, 7, 7, 78
9, 58056, Note_on_c, 7, 78, 0
9, 58068, Note_on_c, 7, 66, 0
9, 58070, Control_c, 7, 7, 79
9, 58080, Note_on_c, 7, 59, 118
9, 58080, Note_on_c, 7, 74, 118
9, 58080, Note_on_c, 7, 52, 118
9, 58080, Note_on_c, 7, 52, 118
9, 58090, Control_c, 7, 7, 80
9, 58110, Control_c, 7, 7, 81
9, 58138, Note_on_c, 7, 59, 0
9, 58140, Note_on_c, 7, 62, 118
9, 58150, Control_c, 7, 7, 82
9, 58170, Control_c, 7, 7, 83
9, 58176, Note_on_c, 7, 52, 0
9, 58188, Note_on_c, 7, 62, 0
9, 58190, Control_c, 7, 7, 84
9, 58200, Note_on_c, 7, 74, 0
9, 58200, Note_on_c, 7, 59, 118
9, 58200, Note_on_c, 7, 71, 118
9, 58210, Control_c, 7, 7, 85
9, 58230, Control_c, 7, 7, 86
9, 58248, Note_on_c, 7, 59, 0
9, 58260, Note_on_c, 7, 62, 118
9, 58270, Control_c, 7, 7, 87
9, 58308, Note_on_c, 7, 62, 0
9, 58320, Note_on_c, 7, 71, 0
9, 58320, Note_on_c, 7, 59, 118
9, 58320, Note_on_c, 7, 68, 118
9, 58330, Control_c, 7, 7, 88
9, 58360, Control_c, 7, 7, 89
9, 58372, Note_on_c, 7, 59, 0
9, 58380, Note_on_c, 7, 62, 124
9, 58380, Control_c, 7, 7, 90
9, 58416, Note_on_c, 7, 68, 0
9, 58428, Note_on_c, 7, 62, 0
9, 58440, Note_on_c, 7, 59, 127
9, 58440, Note_on_c, 7, 68, 127
9, 58450, Control_c, 7, 7, 91
9, 58464, Note_on_c, 7, 52, 0
9, 58480, Control_c, 7, 7, 92
9, 58488, Note_on_c, 7, 59, 0
9, 58490, Control_c, 7, 7, 93
9, 58500, Note_on_c, 7, 62, 127
9, 58500, Control_c, 7, 7, 94
9, 58510, Control_c, 7, 7, 95
9, 58520, Control_c, 7, 7, 96
9, 58530, Control_c, 7, 7, 97
9, 58536, Note_on_c, 7, 68, 0
9, 58548, Note_on_c, 7, 62, 0
9, 58550, Control_c, 7, 7, 125
9, 58560, Note_on_c, 7, 69, 127
9, 58560, Note_on_c, 7, 61, 127
9, 58560, Note_on_c, 7, 52, 127
9, 58560, Note_on_c, 7, 45, 127
9, 58560, Control_c, 7, 7, 122
9, 58570, Control_c, 7, 7, 115
9, 58580, Control_c, 7, 7, 114
9, 58590, Control_c, 7, 7, 111
9, 58600, Control_c, 7, 7, 109
9, 58610, Control_c, 7, 7, 107
9, 58618, Note_on_c, 7, 52, 0
9, 58618, Note_on_c, 7, 61, 0
9, 58620, Note_on_c, 7, 61, 127
9, 58620, Note_on_c, 7, 52, 127
9, 58630, Control_c, 7, 7, 103
9, 58640, Control_c, 7, 7, 102
9, 58660, Control_c, 7, 7, 101
9, 58668, Note_on_c, 7, 52, 0
9, 58668, Note_on_c, 7, 61, 0
9, 58670, Control_c, 7, 7, 97
9, 58680, Note_on_c, 7, 61, 127
9, 58680, Note_on_c, 7, 52, 127
9, 58690, Control_c, 7, 7, 95
9, 58700, Control_c, 7, 7, 94
9, 58710, Control_c, 7, 7, 90
9, 58728, Note_on_c, 7, 52, 0
9, 58728, Note_on_c, 7, 61, 0
9, 58730, Control_c, 7, 7, 89
9, 58740, Note_on_c, 7, 61, 127
9, 58740, Note_on_c, 7, 52, 127
9, 58740, Control_c, 7, 7, 88
9, 58750, Control_c, 7, 7, 87
9, 58785, Note_on_c, 7, 69, 0
9, 58785, Note_on_c, 7, 45, 0
9, 58788, Note_on_c, 7, 61, 0
9, 58788, Note_on_c, 7, 52, 0
9, 58790, Control_c, 7, 7, 86
9, 58800, Note_on_c, 7, 61, 127
9, 58800, Note_on_c, 7, 52, 127
9, 58810, Control_c, 7, 7, 85
9, 58852, Note_on_c, 7, 52, 0
9, 58852, Note_on_c, 7, 61, 0
9, 58860, Note_on_c, 7, 61, 127
9, 58860, Note_on_c, 7, 52, 127
9, 58908, Note_on_c, 7, 52, 0
9, 58908, Note_on_c, 7, 61, 0
9, 58920, Note_on_c, 7, 69, 127
9, 58920, Note_on_c, 7, 61, 127
9, 58920, Note_on_c, 7, 52, 127
9, 58968, Note_on_c, 7, 52, 0
9, 58968, Note_on_c, 7, 61, 0
9, 58968, Note_on_c, 7, 69, 0
9, 58980, Note_on_c, 7, 71, 127
9, 58980, Note_on_c, 7, 61, 127
9, 58980, Note_on_c, 7, 52, 127
9, 59028, Note_on_c, 7, 52, 0
9, 59028, Note_on_c, 7, 61, 0
9, 59028, Note_on_c, 7, 71, 0
9, 59030, Control_c, 7, 7, 86
9, 59040, Note_on_c, 7, 73, 127
9, 59040, Note_on_c, 7, 64, 127
9, 59040, Note_on_c, 7, 61, 127
9, 59050, Control_c, 7, 7, 87
9, 59070, Control_c, 7, 7, 88
9, 59090, Control_c, 7, 7, 89
9, 59098, Note_on_c, 7, 61, 0
9, 59098, Note_on_c, 7, 64, 0
9, 59098, Note_on_c, 7, 73, 0
9, 59100, Note_on_c, 7, 71, 127
9, 59100, Note_on_c, 7, 64, 127
9, 59100, Note_on_c, 7, 61, 127
9, 59120, Control_c, 7, 7, 90
9, 59140, Control_c, 7, 7, 91
9, 59148, Note_on_c, 7, 61, 0
9, 59148, Note_on_c, 7, 64, 0
9, 59148, Note_on_c, 7, 71, 0
9, 59160, Note_on_c, 7, 69, 127
9, 59160, Note_on_c, 7, 64, 127
9, 59160, Note_on_c, 7, 61, 127
9, 59160, Control_c, 7, 7, 92
9, 59208, Note_on_c, 7, 61, 0
9, 59208, Note_on_c, 7, 64, 0
9, 59208, Note_on_c, 7, 69, 0
9, 59220, Note_on_c, 7, 71, 127
9, 59220, Note_on_c, 7, 64, 127
9, 59220, Note_on_c, 7, 61, 127
9, 59220, Control_c, 7, 7, 94
9, 59240, Control_c, 7, 7, 95
9, 59260, Control_c, 7, 7, 96
9, 59268, Note_on_c, 7, 61, 0
9, 59268, Note_on_c, 7, 64, 0
9, 59268, Note_on_c, 7, 71, 0
9, 59280, Note_on_c, 7, 73, 127
9, 59280, Note_on_c, 7, 64, 127
9, 59280, Note_on_c, 7, 61, 127
9, 59280, Control_c, 7, 7, 97
9, 59300, Control_c, 7, 7, 98
9, 59320, Control_c, 7, 7, 99
9, 59332, Note_on_c, 7, 61, 0
9, 59332, Note_on_c, 7, 64, 0
9, 59332, Note_on_c, 7, 73, 0
9, 59340, Note_on_c, 7, 71, 127
9, 59340, Note_on_c, 7, 64, 127
9, 59340, Note_on_c, 7, 61, 127
9, 59340, Control_c, 7, 7, 100
9, 59360, Control_c, 7, 7, 101
9, 59380, Control_c, 7, 7, 102
9, 59388, Note_on_c, 7, 61, 0
9, 59388, Note_on_c, 7, 64, 0
9, 59388, Note_on_c, 7, 71, 0
9, 59400, Note_on_c, 7, 73, 127
9, 59400, Note_on_c, 7, 64, 127
9, 59400, Note_on_c, 7, 61, 127
9, 59400, Control_c, 7, 7, 103
9, 59410, Control_c, 7, 7, 104
9, 59420, Control_c, 7, 7, 105
9, 59430, Control_c, 7, 7, 106
9, 59440, Control_c, 7, 7, 107
9, 59448, Note_on_c, 7, 61, 0
9, 59448, Note_on_c, 7, 64, 0
9, 59448, Note_on_c, 7, 73, 0
9, 59450, Control_c, 7, 7, 108
9, 59460, Note_on_c, 7, 69, 127
9, 59460, Note_on_c, 7, 64, 127
9, 59460, Control_c, 7, 7, 111
9, 59460, Note_on_c, 7, 61, 127
9, 59480, Control_c, 7, 7, 112
9, 59490, Control_c, 7, 7, 113
9, 59500, Control_c, 7, 7, 116
9, 59508, Note_on_c, 7, 61, 0
9, 59508, Note_on_c, 7, 64, 0
9, 59508, Note_on_c, 7, 69, 0
9, 59510, Control_c, 7, 7, 117
9, 59520, Note_on_c, 7, 71, 127
9, 59520, Note_on_c, 7, 68, 127
9, 59520, Control_c, 7, 7, 118
9, 59520, Note_on_c, 7, 62, 127
9, 59520, Note_on_c, 7, 59, 127
9, 59520, Note_on_c, 7, 45, 127
9, 59530, Control_c, 7, 7, 127
9, 59540, Control_c, 7, 7, 125
9, 59560, Control_c, 7, 7, 122
9, 59570, Control_c, 7, 7, 120
9, 59578, Note_on_c, 7, 59, 0
9, 59578, Note_on_c, 7, 62, 0
9, 59578, Note_on_c, 7, 68, 0
9, 59580, Note_on_c, 7, 68, 127
9, 59580, Note_on_c, 7, 62, 127
9, 59580, Note_on_c, 7, 59, 127
9, 59580, Control_c, 7, 7, 118
9, 59590, Control_c, 7, 7, 119
9, 59600, Control_c, 7, 7, 116
9, 59610, Control_c, 7, 7, 113
9, 59620, Control_c, 7, 7, 112
9, 59628, Note_on_c, 7, 59, 0
9, 59628, Note_on_c, 7, 68, 0
9, 59628, Note_on_c, 7, 62, 0
9, 59630, Control_c, 7, 7, 111
9, 59640, Note_on_c, 7, 68, 127
9, 59640, Note_on_c, 7, 62, 127
9, 59640, Note_on_c, 7, 59, 127
9, 59640, Control_c, 7, 7, 109
9, 59650, Control_c, 7, 7, 106
9, 59670, Control_c, 7, 7, 104
9, 59680, Control_c, 7, 7, 102
9, 59688, Note_on_c, 7, 59, 0
9, 59688, Note_on_c, 7, 68, 0
9, 59688, Note_on_c, 7, 62, 0
9, 59690, Control_c, 7, 7, 100
9, 59700, Note_on_c, 7, 68, 127
9, 59700, Note_on_c, 7, 62, 127
9, 59700, Note_on_c, 7, 59, 127
9, 59700, Control_c, 7, 7, 98
9, 59712, Note_on_c, 7, 71, 0
9, 59712, Note_on_c, 7, 45, 0
9, 59720, Control_c, 7, 7, 97
9, 59730, Control_c, 7, 7, 94
9, 59740, Control_c, 7, 7, 93
9, 59748, Note_on_c, 7, 62, 0
9, 59748, Note_on_c, 7, 68, 0
9, 59748, Note_on_c, 7, 59, 0
9, 59760, Note_on_c, 7, 68, 127
9, 59760, Note_on_c, 7, 62, 127
9, 59760, Note_on_c, 7, 59, 127
9, 59760, Control_c, 7, 7, 92
9, 59770, Control_c, 7, 7, 90
9, 59780, Control_c, 7, 7, 89
9, 59800, Control_c, 7, 7, 87
9, 59812, Note_on_c, 7, 59, 0
9, 59812, Note_on_c, 7, 62, 0
9, 59812, Note_on_c, 7, 68, 0
9, 59820, Note_on_c, 7, 68, 127
9, 59820, Note_on_c, 7, 62, 127
9, 59820, Note_on_c, 7, 59, 127
9, 59868, Note_on_c, 7, 59, 0
9, 59868, Note_on_c, 7, 62, 0
9, 59868, Note_on_c, 7, 68, 0
9, 59880, Note_on_c, 7, 71, 127
9, 59880, Note_on_c, 7, 68, 127
9, 59880, Note_on_c, 7, 62, 127
9, 59880, Note_on_c, 7, 59, 127
9, 59928, Note_on_c, 7, 59, 0
9, 59928, Note_on_c, 7, 71, 0
9, 59928, Note_on_c, 7, 68, 0
9, 59928, Note_on_c, 7, 62, 0
9, 59940, Note_on_c, 7, 73, 127
9, 59940, Note_on_c, 7, 68, 127
9, 59940, Note_on_c, 7, 62, 127
9, 59940, Note_on_c, 7, 59, 127
9, 59970, Control_c, 7, 7, 88
9, 59980, Control_c, 7, 7, 89
9, 59988, Note_on_c, 7, 59, 0
9, 59988, Note_on_c, 7, 73, 0
9, 59988, Note_on_c, 7, 68, 0
9, 59988, Note_on_c, 7, 62, 0
9, 60000, Note_on_c, 7, 74, 127
9, 60000, Note_on_c, 7, 68, 127
9, 60000, Note_on_c, 7, 68, 127
9, 60000, Note_on_c, 7, 59, 127
9, 60000, Note_on_c, 7, 62, 127
9, 60000, Control_c, 7, 7, 90
9, 60030, Control_c, 7, 7, 91
9, 60058, Note_on_c, 7, 62, 0
9, 60058, Note_on_c, 7, 68, 0
9, 60058, Note_on_c, 7, 74, 0
9, 60058, Note_on_c, 7, 68, 0
9, 60058, Note_on_c, 7, 59, 0
9, 60060, Note_on_c, 7, 73, 127
9, 60060, Note_on_c, 7, 68, 127
9, 60060, Note_on_c, 7, 59, 127
9, 60060, Note_on_c, 7, 62, 127
9, 60070, Control_c, 7, 7, 93
9, 60080, Control_c, 7, 7, 94
9, 60108, Note_on_c, 7, 62, 0
9, 60108, Note_on_c, 7, 73, 0
9, 60108, Note_on_c, 7, 68, 0
9, 60108, Note_on_c, 7, 59, 0
9, 60110, Control_c, 7, 7, 95
9, 60120, Note_on_c, 7, 71, 127
9, 60120, Note_on_c, 7, 68, 127
9, 60120, Note_on_c, 7, 59, 127
9, 60120, Note_on_c, 7, 62, 127
9, 60130, Control_c, 7, 7, 96
9, 60140, Control_c, 7, 7, 97
9, 60160, Control_c, 7, 7, 98
9, 60168, Note_on_c, 7, 62, 0
9, 60168, Note_on_c, 7, 71, 0
9, 60168, Note_on_c, 7, 68, 0
9, 60168, Note_on_c, 7, 59, 0
9, 60180, Note_on_c, 7, 73, 127
9, 60180, Note_on_c, 7, 68, 127
9, 60180, Note_on_c, 7, 59, 127
9, 60180, Note_on_c, 7, 62, 127
9, 60180, Control_c, 7, 7, 99
9, 60210, Control_c, 7, 7, 102
9, 60220, Control_c, 7, 7, 103
9, 60228, Note_on_c, 7, 62, 0
9, 60228, Note_on_c, 7, 73, 0
9, 60228, Note_on_c, 7, 68, 0
9, 60228, Note_on_c, 7, 59, 0
9, 60240, Note_on_c, 7, 74, 127
9, 60240, Note_on_c, 7, 68, 127
9, 60240, Note_on_c, 7, 59, 127
9, 60240, Note_on_c, 7, 62, 127
9, 60250, Control_c, 7, 7, 105
9, 60260, Control_c, 7, 7, 106
9, 60280, Control_c, 7, 7, 108
9, 60290, Control_c, 7, 7, 109
9, 60292, Note_on_c, 7, 62, 0
9, 60292, Note_on_c, 7, 74, 0
9, 60292, Note_on_c, 7, 68, 0
9, 60292, Note_on_c, 7, 59, 0
9, 60300, Note_on_c, 7, 73, 127
9, 60300, Note_on_c, 7, 68, 127
9, 60300, Note_on_c, 7, 59, 127
9, 60300, Note_on_c, 7, 62, 127
9, 60310, Control_c, 7, 7, 111
9, 60340, Control_c, 7, 7, 112
9, 60348, Note_on_c, 7, 62, 0
9, 60348, Note_on_c, 7, 73, 0
9, 60348, Note_on_c, 7, 68, 0
9, 60348, Note_on_c, 7, 59, 0
9, 60350, Control_c, 7, 7, 114
9, 60360, Note_on_c, 7, 74, 127
9, 60360, Note_on_c, 7, 68, 127
9, 60360, Note_on_c, 7, 59, 127
9, 60360, Note_on_c, 7, 62, 127
9, 60360, Control_c, 7, 7, 116
9, 60380, Control_c, 7, 7, 118
9, 60390, Control_c, 7, 7, 119
9, 60400, Control_c, 7, 7, 121
9, 60408, Note_on_c, 7, 62, 0
9, 60408, Note_on_c, 7, 74, 0
9, 60408, Note_on_c, 7, 68, 0
9, 60408, Note_on_c, 7, 59, 0
9, 60420, Note_on_c, 7, 71, 127
9, 60420, Note_on_c, 7, 68, 127
9, 60420, Note_on_c, 7, 59, 127
9, 60420, Note_on_c, 7, 62, 127
9, 60430, Control_c, 7, 7, 122
9, 60460, Control_c, 7, 7, 126
9, 60468, Note_on_c, 7, 62, 0
9, 60468, Note_on_c, 7, 71, 0
9, 60468, Note_on_c, 7, 68, 0
9, 60468, Note_on_c, 7, 59, 0
9, 60480, Note_on_c, 7, 73, 127
9, 60480, Note_on_c, 7, 67, 127
9, 60480, Note_on_c, 7, 64, 127
9, 60480, Note_on_c, 7, 61, 127
9, 60480, Note_on_c, 7, 45, 127
9, 60490, Control_c, 7, 7, 120
9, 60500, Control_c, 7, 7, 116
9, 60510, Control_c, 7, 7, 115
9, 60520, Control_c, 7, 7, 113
9, 60530, Control_c, 7, 7, 109
9, 60538, Note_on_c, 7, 61, 0
9, 60538, Note_on_c, 7, 64, 0
9, 60538, Note_on_c, 7, 67, 0
9, 60540, Note_on_c, 7, 67, 127
9, 60540, Note_on_c, 7, 64, 127
9, 60540, Note_on_c, 7, 61, 127
9, 60540, Control_c, 7, 7, 107
9, 60560, Control_c, 7, 7, 104
9, 60570, Control_c, 7, 7, 100
9, 60580, Control_c, 7, 7, 96
9, 60588, Note_on_c, 7, 61, 0
9, 60588, Note_on_c, 7, 67, 0
9, 60588, Note_on_c, 7, 64, 0
9, 60600, Note_on_c, 7, 67, 127
9, 60600, Note_on_c, 7, 64, 127
9, 60600, Note_on_c, 7, 61, 127
9, 60600, Control_c, 7, 7, 92
9, 60610, Control_c, 7, 7, 85
9, 60648, Note_on_c, 7, 61, 0
9, 60648, Note_on_c, 7, 67, 0
9, 60648, Note_on_c, 7, 64, 0
9, 60660, Note_on_c, 7, 67, 127
9, 60660, Note_on_c, 7, 64, 127
9, 60660, Note_on_c, 7, 61, 127
9, 60672, Note_on_c, 7, 73, 0
9, 60672, Note_on_c, 7, 45, 0
9, 60708, Note_on_c, 7, 64, 0
9, 60708, Note_on_c, 7, 67, 0
9, 60708, Note_on_c, 7, 61, 0
9, 60720, Note_on_c, 7, 67, 127
9, 60720, Note_on_c, 7, 64, 127
9, 60720, Note_on_c, 7, 61, 127
9, 60772, Note_on_c, 7, 61, 0
9, 60772, Note_on_c, 7, 64, 0
9, 60772, Note_on_c, 7, 67, 0
9, 60780, Note_on_c, 7, 67, 127
9, 60780, Note_on_c, 7, 64, 127
9, 60780, Note_on_c, 7, 61, 127
9, 60828, Note_on_c, 7, 61, 0
9, 60828, Note_on_c, 7, 64, 0
9, 60828, Note_on_c, 7, 67, 0
9, 60840, Note_on_c, 7, 73, 127
9, 60840, Note_on_c, 7, 67, 127
9, 60840, Note_on_c, 7, 64, 127
9, 60840, Note_on_c, 7, 61, 127
9, 60840, Note_on_c, 7, 61, 127
9, 60888, Note_on_c, 7, 61, 0
9, 60888, Note_on_c, 7, 64, 0
9, 60888, Note_on_c, 7, 73, 0
9, 60888, Note_on_c, 7, 67, 0
9, 60888, Note_on_c, 7, 61, 0
9, 60900, Note_on_c, 7, 74, 127
9, 60900, Note_on_c, 7, 67, 127
9, 60900, Note_on_c, 7, 64, 127
9, 60900, Note_on_c, 7, 61, 127
9, 60948, Note_on_c, 7, 61, 0
9, 60948, Note_on_c, 7, 74, 0
9, 60948, Note_on_c, 7, 67, 0
9, 60948, Note_on_c, 7, 64, 0
9, 60960, Note_on_c, 7, 76, 127
9, 60960, Note_on_c, 7, 67, 127
9, 60960, Note_on_c, 7, 61, 127
9, 60960, Note_on_c, 7, 64, 127
9, 61000, Control_c, 7, 7, 86
9, 61018, Note_on_c, 7, 64, 0
9, 61018, Note_on_c, 7, 76, 0
9, 61018, Note_on_c, 7, 67, 0
9, 61018, Note_on_c, 7, 61, 0
9, 61020, Note_on_c, 7, 74, 127
9, 61020, Note_on_c, 7, 67, 127
9, 61020, Note_on_c, 7, 61, 127
9, 61020, Note_on_c, 7, 64, 127
9, 61040, Control_c, 7, 7, 88
9, 61060, Control_c, 7, 7, 89
9, 61068, Note_on_c, 7, 64, 0
9, 61068, Note_on_c, 7, 74, 0
9, 61068, Note_on_c, 7, 67, 0
9, 61068, Note_on_c, 7, 61, 0
9, 61070, Control_c, 7, 7, 90
9, 61080, Note_on_c, 7, 73, 127
9, 61080, Note_on_c, 7, 67, 127
9, 61080, Note_on_c, 7, 61, 127
9, 61080, Note_on_c, 7, 64, 127
9, 61090, Control_c, 7, 7, 91
9, 61110, Control_c, 7, 7, 92
9, 61120, Control_c, 7, 7, 93
9, 61128, Note_on_c, 7, 64, 0
9, 61128, Note_on_c, 7, 73, 0
9, 61128, Note_on_c, 7, 67, 0
9, 61128, Note_on_c, 7, 61, 0
9, 61130, Control_c, 7, 7, 94
9, 61140, Note_on_c, 7, 74, 127
9, 61140, Note_on_c, 7, 67, 127
9, 61140, Note_on_c, 7, 61, 127
9, 61140, Note_on_c, 7, 64, 127
9, 61150, Control_c, 7, 7, 95
9, 61160, Control_c, 7, 7, 96
9, 61180, Control_c, 7, 7, 98
9, 61188, Note_on_c, 7, 64, 0
9, 61188, Note_on_c, 7, 74, 0
9, 61188, Note_on_c, 7, 67, 0
9, 61188, Note_on_c, 7, 61, 0
9, 61200, Note_on_c, 7, 76, 127
9, 61200, Note_on_c, 7, 67, 127
9, 61200, Note_on_c, 7, 61, 127
9, 61200, Note_on_c, 7, 64, 127
9, 61200, Control_c, 7, 7, 99
9, 61210, Control_c, 7, 7, 100
9, 61230, Control_c, 7, 7, 102
9, 61250, Control_c, 7, 7, 103
9, 61252, Note_on_c, 7, 64, 0
9, 61252, Note_on_c, 7, 76, 0
9, 61252, Note_on_c, 7, 67, 0
9, 61252, Note_on_c, 7, 61, 0
9, 61260, Note_on_c, 7, 74, 127
9, 61260, Note_on_c, 7, 67, 127
9, 61260, Note_on_c, 7, 61, 127
9, 61260, Note_on_c, 7, 64, 127
9, 61270, Control_c, 7, 7, 104
9, 61290, Control_c, 7, 7, 106
9, 61308, Note_on_c, 7, 64, 0
9, 61308, Note_on_c, 7, 74, 0
9, 61308, Note_on_c, 7, 67, 0
9, 61308, Note_on_c, 7, 61, 0
9, 61310, Control_c, 7, 7, 108
9, 61320, Note_on_c, 7, 76, 127
9, 61320, Note_on_c, 7, 67, 127
9, 61320, Note_on_c, 7, 61, 127
9, 61320, Note_on_c, 7, 64, 127
9, 61320, Control_c, 7, 7, 110
9, 61340, Control_c, 7, 7, 111
9, 61360, Control_c, 7, 7, 114
9, 61368, Note_on_c, 7, 64, 0
9, 61368, Note_on_c, 7, 76, 0
9, 61368, Note_on_c, 7, 67, 0
9, 61368, Note_on_c, 7, 61, 0
9, 61380, Note_on_c, 7, 73, 127
9, 61380, Note_on_c, 7, 67, 127
9, 61380, Note_on_c, 7, 61, 127
9, 61380, Note_on_c, 7, 64, 127
9, 61380, Control_c, 7, 7, 115
9, 61400, Control_c, 7, 7, 116
9, 61410, Control_c, 7, 7, 118
9, 61420, Control_c, 7, 7, 119
9, 61428, Note_on_c, 7, 64, 0
9, 61428, Note_on_c, 7, 73, 0
9, 61428, Note_on_c, 7, 67, 0
9, 61428, Note_on_c, 7, 61, 0
9, 61430, Control_c, 7, 7, 121
9, 61440, Note_on_c, 7, 74, 127
9, 61440, Note_on_c, 7, 66, 127
9, 61440, Note_on_c, 7, 62, 127
9, 61440, Note_on_c, 7, 57, 127
9, 61440, Note_on_c, 7, 45, 127
9, 61440, Control_c, 7, 7, 127
9, 61450, Control_c, 7, 7, 126
9, 61490, Control_c, 7, 7, 124
9, 61498, Note_on_c, 7, 57, 0
9, 61498, Note_on_c, 7, 62, 0
9, 61498, Note_on_c, 7, 66, 0
9, 61500, Note_on_c, 7, 66, 127
9, 61500, Note_on_c, 7, 57, 127
9, 61500, Note_on_c, 7, 62, 127
9, 61500, Control_c, 7, 7, 117
9, 61510, Control_c, 7, 7, 116
9, 61530, Control_c, 7, 7, 113
9, 61540, Control_c, 7, 7, 111
9, 61548, Note_on_c, 7, 62, 0
9, 61548, Note_on_c, 7, 66, 0
9, 61548, Note_on_c, 7, 57, 0
9, 61550, Control_c, 7, 7, 109
9, 61560, Note_on_c, 7, 66, 127
9, 61560, Note_on_c, 7, 57, 127
9, 61560, Note_on_c, 7, 62, 127
9, 61560, Control_c, 7, 7, 108
9, 61580, Control_c, 7, 7, 104
9, 61590, Control_c, 7, 7, 101
9, 61608, Note_on_c, 7, 62, 0
9, 61608, Note_on_c, 7, 66, 0
9, 61608, Note_on_c, 7, 57, 0
9, 61610, Control_c, 7, 7, 100
9, 61620, Note_on_c, 7, 66, 127
9, 61620, Note_on_c, 7, 57, 127
9, 61620, Note_on_c, 7, 62, 127
9, 61620, Control_c, 7, 7, 98
9, 61630, Control_c, 7, 7, 97
9, 61632, Note_on_c, 7, 74, 0
9, 61632, Note_on_c, 7, 45, 0
9, 61640, Control_c, 7, 7, 96
9, 61650, Control_c, 7, 7, 95
9, 61660, Control_c, 7, 7, 94
9, 61668, Note_on_c, 7, 57, 0
9, 61668, Note_on_c, 7, 66, 0
9, 61668, Note_on_c, 7, 62, 0
9, 61670, Control_c, 7, 7, 93
9, 61680, Note_on_c, 7, 66, 127
9, 61680, Note_on_c, 7, 57, 127
9, 61680, Note_on_c, 7, 62, 127
9, 61690, Control_c, 7, 7, 92
9, 61700, Control_c, 7, 7, 91
9, 61730, Control_c, 7, 7, 90
9, 61732, Note_on_c, 7, 62, 0
9, 61732, Note_on_c, 7, 57, 0
9, 61732, Note_on_c, 7, 66, 0
9, 61740, Note_on_c, 7, 66, 127
9, 61740, Note_on_c, 7, 57, 127
9, 61740, Note_on_c, 7, 62, 127
9, 61740, Control_c, 7, 7, 89
9, 61788, Note_on_c, 7, 62, 0
9, 61788, Note_on_c, 7, 57, 0
9, 61788, Note_on_c, 7, 66, 0
9, 61800, Note_on_c, 7, 74, 127
9, 61800, Note_on_c, 7, 66, 127
9, 61800, Note_on_c, 7, 57, 127
9, 61800, Note_on_c, 7, 62, 127
9, 61848, Note_on_c, 7, 62, 0
9, 61848, Note_on_c, 7, 74, 0
9, 61848, Note_on_c, 7, 66, 0
9, 61848, Note_on_c, 7, 57, 0
9, 61860, Note_on_c, 7, 76, 127
9, 61860, Note_on_c, 7, 66, 127
9, 61860, Note_on_c, 7, 57, 127
9, 61860, Note_on_c, 7, 62, 127
9, 61908, Note_on_c, 7, 62, 0
9, 61908, Note_on_c, 7, 76, 0
9, 61908, Note_on_c, 7, 66, 0
9, 61908, Note_on_c, 7, 57, 0
9, 61920, Note_on_c, 7, 78, 127
9, 61920, Note_on_c, 7, 66, 127
9, 61920, Note_on_c, 7, 62, 127
9, 61920, Note_on_c, 7, 57, 127
9, 61978, Note_on_c, 7, 57, 0
9, 61978, Note_on_c, 7, 78, 0
9, 61978, Note_on_c, 7, 66, 0
9, 61978, Note_on_c, 7, 62, 0
9, 61980, Note_on_c, 7, 76, 127
9, 61980, Note_on_c, 7, 66, 127
9, 61980, Note_on_c, 7, 62, 127
9, 61980, Note_on_c, 7, 57, 127
9, 62028, Note_on_c, 7, 57, 0
9, 62028, Note_on_c, 7, 76, 0
9, 62028, Note_on_c, 7, 66, 0
9, 62028, Note_on_c, 7, 62, 0
9, 62030, Control_c, 7, 7, 91
9, 62040, Note_on_c, 7, 74, 127
9, 62040, Note_on_c, 7, 66, 127
9, 62040, Note_on_c, 7, 62, 127
9, 62040, Note_on_c, 7, 57, 127
9, 62050, Control_c, 7, 7, 92
9, 62060, Control_c, 7, 7, 93
9, 62070, Control_c, 7, 7, 94
9, 62080, Control_c, 7, 7, 95
9, 62088, Note_on_c, 7, 57, 0
9, 62088, Note_on_c, 7, 74, 0
9, 62088, Note_on_c, 7, 66, 0
9, 62088, Note_on_c, 7, 62, 0
9, 62090, Control_c, 7, 7, 96
9, 62100, Note_on_c, 7, 76, 127
9, 62100, Note_on_c, 7, 66, 127
9, 62100, Note_on_c, 7, 62, 127
9, 62100, Note_on_c, 7, 57, 127
9, 62100, Control_c, 7, 7, 97
9, 62120, Control_c, 7, 7, 99
9, 62130, Control_c, 7, 7, 100
9, 62140, Control_c, 7, 7, 101
9, 62148, Note_on_c, 7, 57, 0
9, 62148, Note_on_c, 7, 76, 0
9, 62148, Note_on_c, 7, 66, 0
9, 62148, Note_on_c, 7, 62, 0
9, 62160, Note_on_c, 7, 78, 127
9, 62160, Note_on_c, 7, 66, 127
9, 62160, Note_on_c, 7, 62, 127
9, 62160, Note_on_c, 7, 57, 127
9, 62160, Control_c, 7, 7, 103
9, 62170, Control_c, 7, 7, 104
9, 62180, Control_c, 7, 7, 105
9, 62190, Control_c, 7, 7, 107
9, 62200, Control_c, 7, 7, 109
9, 62210, Control_c, 7, 7, 110
9, 62212, Note_on_c, 7, 57, 0
9, 62212, Note_on_c, 7, 78, 0
9, 62212, Note_on_c, 7, 66, 0
9, 62212, Note_on_c, 7, 62, 0
9, 62220, Note_on_c, 7, 76, 127
9, 62220, Note_on_c, 7, 66, 127
9, 62220, Note_on_c, 7, 62, 127
9, 62220, Note_on_c, 7, 57, 127
9, 62220, Control_c, 7, 7, 112
9, 62240, Control_c, 7, 7, 115
9, 62250, Control_c, 7, 7, 116
9, 62260, Control_c, 7, 7, 118
9, 62268, Note_on_c, 7, 57, 0
9, 62268, Note_on_c, 7, 76, 0
9, 62268, Note_on_c, 7, 66, 0
9, 62268, Note_on_c, 7, 62, 0
9, 62270, Control_c, 7, 7, 120
9, 62280, Note_on_c, 7, 78, 127
9, 62280, Note_on_c, 7, 66, 127
9, 62280, Note_on_c, 7, 62, 127
9, 62280, Note_on_c, 7, 57, 127
9, 62280, Control_c, 7, 7, 121
9, 62290, Control_c, 7, 7, 122
9, 62300, Control_c, 7, 7, 122
9, 62310, Control_c, 7, 7, 124
9, 62320, Control_c, 7, 7, 125
9, 62328, Note_on_c, 7, 57, 0
9, 62328, Note_on_c, 7, 78, 0
9, 62328, Note_on_c, 7, 66, 0
9, 62328, Note_on_c, 7, 62, 0
9, 62330, Control_c, 7, 7, 126
9, 62340, Note_on_c, 7, 74, 127
9, 62340, Note_on_c, 7, 66, 127
9, 62340, Note_on_c, 7, 62, 127
9, 62340, Note_on_c, 7, 57, 127
9, 62350, Control_c, 7, 7, 127
9, 62384, Control_c, 7, 7, 123
9, 62384, Control_c, 7, 7, 123
9, 62384, Control_c, 7, 7, 123
9, 62384, Control_c, 7, 7, 123
9, 62384, Control_c, 7, 7, 123
9, 62384, Control_c, 7, 7, 123
9, 62388, Note_on_c, 7, 57, 0
9, 62388, Note_on_c, 7, 74, 0
9, 62388, Note_on_c, 7, 66, 0
9, 62388, Note_on_c, 7, 62, 0
9, 62388, Control_c, 7, 7, 124
9, 62388, Control_c, 7, 7, 124
9, 62388, Control_c, 7, 7, 124
9, 62388, Control_c, 7, 7, 124
9, 62388, Control_c, 7, 7, 124
9, 62388, Control_c, 7, 7, 124
9, 62390, Control_c, 7, 7, 115
9, 62392, Control_c, 7, 7, 125
9, 62392, Control_c, 7, 7, 125
9, 62392, Control_c, 7, 7, 125
9, 62392, Control_c, 7, 7, 125
9, 62392, Control_c, 7, 7, 125
9, 62392, Control_c, 7, 7, 125
9, 62396, Control_c, 7, 7, 126
9, 62396, Control_c, 7, 7, 126
9, 62396, Control_c, 7, 7, 126
9, 62396, Control_c, 7, 7, 126
9, 62396, Control_c, 7, 7, 126
9, 62396, Control_c, 7, 7, 126
9, 62400, Note_on_c, 7, 76, 127
9, 62400, Note_on_c, 7, 67, 127
9, 62400, Note_on_c, 7, 64, 127
9, 62400, Note_on_c, 7, 61, 127
9, 62400, Note_on_c, 7, 45, 127
9, 62420, Control_c, 7, 7, 125
9, 62440, Control_c, 7, 7, 124
9, 62458, Note_on_c, 7, 61, 0
9, 62458, Note_on_c, 7, 64, 0
9, 62458, Note_on_c, 7, 67, 0
9, 62460, Note_on_c, 7, 67, 127
9, 62460, Note_on_c, 7, 64, 127
9, 62460, Note_on_c, 7, 61, 127
9, 62480, Control_c, 7, 7, 123
9, 62490, Control_c, 7, 7, 122
9, 62508, Note_on_c, 7, 61, 0
9, 62508, Note_on_c, 7, 67, 0
9, 62508, Note_on_c, 7, 64, 0
9, 62520, Note_on_c, 7, 67, 127
9, 62520, Note_on_c, 7, 64, 127
9, 62520, Note_on_c, 7, 61, 127
9, 62520, Control_c, 7, 7, 121
9, 62568, Note_on_c, 7, 61, 0
9, 62568, Note_on_c, 7, 67, 0
9, 62568, Note_on_c, 7, 64, 0
9, 62580, Note_on_c, 7, 67, 127
9, 62580, Note_on_c, 7, 64, 127
9, 62580, Note_on_c, 7, 61, 127
9, 62580, Control_c, 7, 7, 120
9, 62592, Note_on_c, 7, 45, 0
9, 62628, Note_on_c, 7, 64, 0
9, 62628, Note_on_c, 7, 61, 0
9, 62628, Note_on_c, 7, 67, 0
9, 62640, Note_on_c, 7, 67, 127
9, 62640, Note_on_c, 7, 64, 127
9, 62640, Note_on_c, 7, 61, 127
9, 62670, Control_c, 7, 7, 119
9, 62688, Note_on_c, 7, 76, 0
9, 62692, Note_on_c, 7, 67, 0
9, 62692, Note_on_c, 7, 64, 0
9, 62692, Note_on_c, 7, 61, 0
9, 62700, Note_on_c, 7, 78, 127
9, 62700, Note_on_c, 7, 67, 127
9, 62700, Note_on_c, 7, 64, 127
9, 62700, Note_on_c, 7, 61, 127
9, 62710, Control_c, 7, 7, 118
9, 62748, Note_on_c, 7, 61, 0
9, 62748, Note_on_c, 7, 78, 0
9, 62748, Note_on_c, 7, 67, 0
9, 62748, Note_on_c, 7, 64, 0
9, 62760, Note_on_c, 7, 79, 127
9, 62760, Note_on_c, 7, 67, 127
9, 62760, Note_on_c, 7, 64, 127
9, 62760, Note_on_c, 7, 61, 127
9, 62770, Control_c, 7, 7, 117
9, 62808, Note_on_c, 7, 61, 0
9, 62808, Note_on_c, 7, 79, 0
9, 62808, Note_on_c, 7, 67, 0
9, 62808, Note_on_c, 7, 64, 0
9, 62820, Note_on_c, 7, 76, 127
9, 62820, Note_on_c, 7, 67, 127
9, 62820, Note_on_c, 7, 64, 127
9, 62820, Note_on_c, 7, 61, 127
9, 62850, Control_c, 7, 7, 116
9, 62868, Note_on_c, 7, 61, 0
9, 62868, Note_on_c, 7, 76, 0
9, 62868, Note_on_c, 7, 67, 0
9, 62868, Note_on_c, 7, 64, 0
9, 62880, Note_on_c, 7, 66, 127
9, 62880, Note_on_c, 7, 78, 127
9, 62880, Note_on_c, 7, 57, 127
9, 62880, Note_on_c, 7, 62, 127
9, 62880, Note_on_c, 7, 45, 127
9, 62938, Note_on_c, 7, 62, 0
9, 62938, Note_on_c, 7, 57, 0
9, 62938, Note_on_c, 7, 66, 0
9, 62940, Note_on_c, 7, 66, 127
9, 62940, Note_on_c, 7, 62, 127
9, 62940, Note_on_c, 7, 57, 127
9, 62950, Control_c, 7, 7, 115
9, 62988, Note_on_c, 7, 57, 0
9, 62988, Note_on_c, 7, 66, 0
9, 62988, Note_on_c, 7, 62, 0
9, 63000, Note_on_c, 7, 66, 127
9, 63000, Note_on_c, 7, 62, 127
9, 63000, Note_on_c, 7, 57, 127
9, 63048, Note_on_c, 7, 57, 0
9, 63048, Note_on_c, 7, 66, 0
9, 63048, Note_on_c, 7, 62, 0
9, 63050, Control_c, 7, 7, 114
9, 63060, Note_on_c, 7, 66, 127
9, 63060, Note_on_c, 7, 62, 127
9, 63060, Note_on_c, 7, 57, 127
9, 63072, Note_on_c, 7, 45, 0
9, 63108, Note_on_c, 7, 62, 0
9, 63108, Note_on_c, 7, 57, 0
9, 63108, Note_on_c, 7, 66, 0
9, 63110, Control_c, 7, 7, 113
9, 63120, Note_on_c, 7, 66, 127
9, 63120, Note_on_c, 7, 62, 127
9, 63120, Note_on_c, 7, 57, 127
9, 63168, Note_on_c, 7, 78, 0
9, 63170, Control_c, 7, 7, 112
9, 63172, Note_on_c, 7, 66, 0
9, 63172, Note_on_c, 7, 62, 0
9, 63172, Note_on_c, 7, 57, 0
9, 63180, Note_on_c, 7, 66, 127
9, 63180, Note_on_c, 7, 79, 127
9, 63180, Note_on_c, 7, 62, 127
9, 63180, Note_on_c, 7, 57, 127
9, 63228, Note_on_c, 7, 57, 0
9, 63228, Note_on_c, 7, 66, 0
9, 63228, Note_on_c, 7, 79, 0
9, 63228, Note_on_c, 7, 62, 0
9, 63240, Note_on_c, 7, 66, 127
9, 63240, Note_on_c, 7, 81, 127
9, 63240, Note_on_c, 7, 62, 127
9, 63240, Note_on_c, 7, 57, 127
9, 63250, Control_c, 7, 7, 111
9, 63288, Note_on_c, 7, 57, 0
9, 63288, Note_on_c, 7, 66, 0
9, 63288, Note_on_c, 7, 81, 0
9, 63288, Note_on_c, 7, 62, 0
9, 63300, Note_on_c, 7, 66, 127
9, 63300, Note_on_c, 7, 78, 127
9, 63300, Note_on_c, 7, 62, 127
9, 63300, Note_on_c, 7, 57, 127
9, 63348, Note_on_c, 7, 57, 0
9, 63348, Note_on_c, 7, 66, 0
9, 63348, Note_on_c, 7, 78, 0
9, 63348, Note_on_c, 7, 62, 0
9, 63350, Control_c, 7, 7, 110
9, 63360, Note_on_c, 7, 79, 127
9, 63360, Note_on_c, 7, 73, 127
9, 63360, Note_on_c, 7, 64, 127
9, 63360, Note_on_c, 7, 57, 127
9, 63360, Note_on_c, 7, 45, 127
9, 63418, Note_on_c, 7, 45, 0
9, 63418, Note_on_c, 7, 57, 0
9, 63420, Note_on_c, 7, 59, 127
9, 63420, Note_on_c, 7, 47, 127
9, 63450, Control_c, 7, 7, 109
9, 63456, Note_on_c, 7, 79, 0
9, 63456, Note_on_c, 7, 64, 0
9, 63456, Note_on_c, 7, 73, 0
9, 63468, Note_on_c, 7, 59, 0
9, 63468, Note_on_c, 7, 47, 0
9, 63480, Note_on_c, 7, 79, 127
9, 63480, Note_on_c, 7, 73, 127
9, 63480, Note_on_c, 7, 69, 127
9, 63480, Note_on_c, 7, 64, 127
9, 63480, Note_on_c, 7, 61, 127
9, 63480, Note_on_c, 7, 49, 127
9, 63528, Note_on_c, 7, 49, 0
9, 63528, Note_on_c, 7, 61, 0
9, 63540, Note_on_c, 7, 62, 127
9, 63540, Note_on_c, 7, 50, 127
9, 63550, Control_c, 7, 7, 107
9, 63588, Note_on_c, 7, 50, 0
9, 63588, Note_on_c, 7, 62, 0
9, 63600, Note_on_c, 7, 64, 127
9, 63600, Note_on_c, 7, 52, 127
9, 63652, Note_on_c, 7, 52, 0
9, 63652, Note_on_c, 7, 64, 0
9, 63660, Note_on_c, 7, 66, 127
9, 63660, Note_on_c, 7, 54, 127
9, 63672, Note_on_c, 7, 69, 0
9, 63672, Note_on_c, 7, 64, 0
9, 63672, Note_on_c, 7, 79, 0
9, 63672, Note_on_c, 7, 73, 0
9, 63708, Note_on_c, 7, 54, 0
9, 63708, Note_on_c, 7, 66, 0
9, 63710, Control_c, 7, 7, 105
9, 63720, Note_on_c, 7, 79, 127
9, 63720, Note_on_c, 7, 73, 127
9, 63720, Note_on_c, 7, 69, 127
9, 63720, Note_on_c, 7, 64, 127
9, 63720, Note_on_c, 7, 67, 127
9, 63720, Note_on_c, 7, 55, 127
9, 63768, Note_on_c, 7, 55, 0
9, 63768, Note_on_c, 7, 67, 0
9, 63780, Note_on_c, 7, 66, 127
9, 63780, Note_on_c, 7, 54, 127
9, 63790, Control_c, 7, 7, 104
9, 63828, Note_on_c, 7, 54, 0
9, 63828, Note_on_c, 7, 66, 0
9, 63840, Note_on_c, 7, 67, 127
9, 63840, Note_on_c, 7, 55, 127
9, 63870, Control_c, 7, 7, 103
9, 63898, Note_on_c, 7, 55, 0
9, 63898, Note_on_c, 7, 67, 0
9, 63900, Note_on_c, 7, 66, 127
9, 63900, Note_on_c, 7, 54, 127
9, 63948, Note_on_c, 7, 54, 0
9, 63948, Note_on_c, 7, 66, 0
9, 63950, Control_c, 7, 7, 102
9, 63952, Note_on_c, 7, 64, 0
9, 63952, Note_on_c, 7, 79, 0
9, 63952, Note_on_c, 7, 73, 0
9, 63952, Note_on_c, 7, 69, 0
9, 63960, Note_on_c, 7, 79, 127
9, 63960, Note_on_c, 7, 73, 127
9, 63960, Note_on_c, 7, 69, 127
9, 63960, Note_on_c, 7, 64, 127
9, 63960, Note_on_c, 7, 64, 127
9, 63960, Note_on_c, 7, 52, 127
9, 64008, Note_on_c, 7, 52, 0
9, 64008, Note_on_c, 7, 64, 0
9, 64020, Note_on_c, 7, 66, 127
9, 64020, Note_on_c, 7, 54, 127
9, 64050, Control_c, 7, 7, 100
9, 64068, Note_on_c, 7, 54, 0
9, 64068, Note_on_c, 7, 66, 0
9, 64080, Note_on_c, 7, 64, 127
9, 64080, Note_on_c, 7, 52, 127
9, 64130, Control_c, 7, 7, 99
9, 64132, Note_on_c, 7, 52, 0
9, 64132, Note_on_c, 7, 64, 0
9, 64140, Note_on_c, 7, 62, 127
9, 64140, Note_on_c, 7, 50, 127
9, 64185, Note_on_c, 7, 69, 0
9, 64185, Note_on_c, 7, 64, 0
9, 64185, Note_on_c, 7, 79, 0
9, 64185, Note_on_c, 7, 73, 0
9, 64188, Note_on_c, 7, 50, 0
9, 64188, Note_on_c, 7, 62, 0
9, 64200, Note_on_c, 7, 79, 127
9, 64200, Note_on_c, 7, 73, 127
9, 64200, Note_on_c, 7, 69, 127
9, 64200, Note_on_c, 7, 64, 127
9, 64200, Note_on_c, 7, 61, 127
9, 64200, Note_on_c, 7, 49, 127
9, 64230, Control_c, 7, 7, 98
9, 64248, Note_on_c, 7, 49, 0
9, 64248, Note_on_c, 7, 61, 0
9, 64260, Note_on_c, 7, 59, 127
9, 64260, Note_on_c, 7, 47, 127
9, 64308, Note_on_c, 7, 47, 0
9, 64308, Note_on_c, 7, 59, 0
9, 64310, Control_c, 7, 7, 97
9, 64320, Note_on_c, 7, 57, 127
9, 64320, Note_on_c, 7, 45, 127
9, 64390, Control_c, 7, 7, 96
9, 64416, Note_on_c, 7, 45, 0
9, 64416, Note_on_c, 7, 57, 0
9, 64432, Note_on_c, 7, 69, 0
9, 64432, Note_on_c, 7, 79, 0
9, 64432, Note_on_c, 7, 73, 0
9, 64432, Note_on_c, 7, 64, 0
9, 64470, Control_c, 7, 7, 95
9, 64500, Note_on_c, 7, 75, 98
9, 64500, Note_on_c, 7, 78, 98
9, 64548, Note_on_c, 7, 78, 0
9, 64548, Note_on_c, 7, 75, 0
9, 64560, Note_on_c, 7, 76, 98
9, 64560, Note_on_c, 7, 79, 98
9, 64570, Control_c, 7, 7, 94
9, 64612, Note_on_c, 7, 79, 0
9, 64612, Note_on_c, 7, 76, 0
9, 64620, Note_on_c, 7, 75, 98
9, 64620, Note_on_c, 7, 78, 98
9, 64650, Control_c, 7, 7, 93
9, 64668, Note_on_c, 7, 78, 0
9, 64668, Note_on_c, 7, 75, 0
9, 64680, Note_on_c, 7, 76, 98
9, 64680, Note_on_c, 7, 79, 98
9, 64728, Note_on_c, 7, 79, 0
9, 64728, Note_on_c, 7, 76, 0
9, 64730, Control_c, 7, 7, 92
9, 64740, Note_on_c, 7, 75, 98
9, 64740, Note_on_c, 7, 78, 98
9, 64788, Note_on_c, 7, 78, 0
9, 64788, Note_on_c, 7, 75, 0
9, 64790, Control_c, 7, 7, 91
9, 64800, Note_on_c, 7, 76, 98
9, 64800, Note_on_c, 7, 79, 98
9, 64858, Note_on_c, 7, 79, 0
9, 64858, Note_on_c, 7, 76, 0
9, 64860, Note_on_c, 7, 75, 98
9, 64860, Note_on_c, 7, 78, 98
9, 64908, Note_on_c, 7, 78, 0
9, 64908, Note_on_c, 7, 75, 0
9, 64920, Note_on_c, 7, 76, 98
9, 64920, Note_on_c, 7, 79, 98
9, 64950, Control_c, 7, 7, 90
9, 64968, Note_on_c, 7, 79, 0
9, 64968, Note_on_c, 7, 76, 0
9, 64980, Note_on_c, 7, 75, 98
9, 64980, Note_on_c, 7, 78, 98
9, 65028, Note_on_c, 7, 78, 0
9, 65028, Note_on_c, 7, 75, 0
9, 65030, Control_c, 7, 7, 88
9, 65040, Note_on_c, 7, 76, 98
9, 65040, Note_on_c, 7, 79, 98
9, 65092, Note_on_c, 7, 79, 0
9, 65092, Note_on_c, 7, 76, 0
9, 65100, Note_on_c, 7, 75, 98
9, 65100, Note_on_c, 7, 78, 98
9, 65130, Control_c, 7, 7, 87
9, 65148, Note_on_c, 7, 78, 0
9, 65148, Note_on_c, 7, 75, 0
9, 65160, Note_on_c, 7, 76, 98
9, 65160, Note_on_c, 7, 79, 98
9, 65208, Note_on_c, 7, 79, 0
9, 65208, Note_on_c, 7, 76, 0
9, 65210, Control_c, 7, 7, 86
9, 65220, Note_on_c, 7, 75, 98
9, 65220, Note_on_c, 7, 78, 98
9, 65268, Note_on_c, 7, 78, 0
9, 65268, Note_on_c, 7, 75, 0
9, 65280, Note_on_c, 7, 79, 98
9, 65280, Note_on_c, 7, 76, 98
9, 65290, Control_c, 7, 7, 85
9, 65338, Note_on_c, 7, 76, 0
9, 65338, Note_on_c, 7, 79, 0
9, 65340, Note_on_c, 7, 74, 98
9, 65340, Note_on_c, 7, 78, 98
9, 65388, Note_on_c, 7, 78, 0
9, 65388, Note_on_c, 7, 74, 0
9, 65400, Note_on_c, 7, 73, 94
9, 65400, Note_on_c, 7, 76, 94
9, 65410, Control_c, 7, 7, 83
9, 65448, Note_on_c, 7, 76, 0
9, 65448, Note_on_c, 7, 73, 0
9, 65460, Note_on_c, 7, 74, 92
9, 65460, Note_on_c, 7, 78, 92
9, 65508, Note_on_c, 7, 78, 0
9, 65508, Note_on_c, 7, 74, 0
9, 65510, Control_c, 7, 7, 82
9, 65520, Note_on_c, 7, 73, 87
9, 65520, Note_on_c, 7, 76, 87
9, 65572, Note_on_c, 7, 76, 0
9, 65572, Note_on_c, 7, 73, 0
9, 65580, Note_on_c, 7, 71, 84
9, 65580, Note_on_c, 7, 74, 84
9, 65590, Control_c, 7, 7, 81
9, 65628, Note_on_c, 7, 74, 0
9, 65628, Note_on_c, 7, 71, 0
9, 65640, Note_on_c, 7, 69, 83
9, 65640, Note_on_c, 7, 73, 83
9, 65670, Control_c, 7, 7, 80
9, 65688, Note_on_c, 7, 73, 0
9, 65688, Note_on_c, 7, 69, 0
9, 65700, Note_on_c, 7, 71, 82
9, 65700, Note_on_c, 7, 74, 82
9, 65748, Note_on_c, 7, 74, 0
9, 65748, Note_on_c, 7, 71, 0
9, 65760, Note_on_c, 7, 69, 78
9, 65760, Note_on_c, 7, 73, 78
9, 65780, Control_c, 7, 7, 79
9, 65818, Note_on_c, 7, 73, 0
9, 65818, Note_on_c, 7, 69, 0
9, 65820, Note_on_c, 7, 67, 77
9, 65820, Note_on_c, 7, 71, 77
9, 65860, Control_c, 7, 7, 78
9, 65868, Note_on_c, 7, 71, 0
9, 65868, Note_on_c, 7, 67, 0
9, 65880, Note_on_c, 7, 66, 76
9, 65880, Note_on_c, 7, 69, 76
9, 65928, Note_on_c, 7, 69, 0
9, 65928, Note_on_c, 7, 66, 0
9, 65940, Note_on_c, 7, 67, 74
9, 65940, Note_on_c, 7, 71, 74
9, 65940, Control_c, 7, 7, 76
9, 65988, Note_on_c, 7, 71, 0
9, 65988, Note_on_c, 7, 67, 0
9, 66000, Note_on_c, 7, 66, 73
9, 66000, Note_on_c, 7, 69, 73
9, 66000, Control_c, 7, 7, 75
9, 66020, Control_c, 7, 7, 74
9, 66052, Note_on_c, 7, 69, 0
9, 66052, Note_on_c, 7, 66, 0
9, 66060, Note_on_c, 7, 64, 73
9, 66060, Note_on_c, 7, 67, 73
9, 66080, Control_c, 7, 7, 73
9, 66108, Note_on_c, 7, 67, 0
9, 66108, Note_on_c, 7, 64, 0
9, 66120, Note_on_c, 7, 62, 72
9, 66120, Note_on_c, 7, 66, 72
9, 66160, Control_c, 7, 7, 71
9, 66168, Note_on_c, 7, 66, 0
9, 66168, Note_on_c, 7, 62, 0
9, 66180, Note_on_c, 7, 61, 74
9, 66180, Note_on_c, 7, 64, 74
9, 66228, Note_on_c, 7, 64, 0
9, 66228, Note_on_c, 7, 61, 0
9, 66240, Note_on_c, 7, 62, 77
9, 66240, Note_on_c, 7, 62, 77
9, 66240, Note_on_c, 7, 62, 77
9, 66240, Note_on_c, 7, 50, 77
9, 66260, Control_c, 7, 7, 69
9, 66300, Note_on_c, 7, 61, 78
9, 66300, Note_on_c, 7, 61, 78
9, 66300, Note_on_c, 7, 61, 78
9, 66300, Note_on_c, 7, 49, 78
9, 66313, Note_on_c, 7, 50, 0
9, 66313, Note_on_c, 7, 62, 0
9, 66313, Note_on_c, 7, 62, 0
9, 66313, Note_on_c, 7, 62, 0
9, 66320, Control_c, 7, 7, 67
9, 66360, Note_on_c, 7, 61, 0
9, 66360, Note_on_c, 7, 49, 0
9, 66360, Note_on_c, 7, 61, 0
9, 66360, Note_on_c, 7, 61, 0
9, 66360, Note_on_c, 7, 62, 81
9, 66360, Note_on_c, 7, 62, 81
9, 66360, Note_on_c, 7, 62, 81
9, 66360, Note_on_c, 7, 50, 81
9, 66400, Control_c, 7, 7, 66
9, 66420, Note_on_c, 7, 50, 0
9, 66420, Note_on_c, 7, 62, 0
9, 66420, Note_on_c, 7, 62, 0
9, 66420, Note_on_c, 7, 62, 0
9, 66420, Note_on_c, 7, 61, 82
9, 66420, Note_on_c, 7, 61, 82
9, 66420, Note_on_c, 7, 61, 82
9, 66420, Note_on_c, 7, 49, 82
9, 66440, Control_c, 7, 7, 65
9, 66460, Control_c, 7, 7, 64
9, 66480, Note_on_c, 7, 49, 0
9, 66480, Note_on_c, 7, 61, 0
9, 66480, Note_on_c, 7, 61, 0
9, 66480, Note_on_c, 7, 61, 0
9, 66480, Note_on_c, 7, 62, 83
9, 66480, Note_on_c, 7, 62, 83
9, 66480, Note_on_c, 7, 62, 83
9, 66480, Note_on_c, 7, 50, 83
9, 66480, Control_c, 7, 7, 63
9, 66550, Control_c, 7, 7, 62
9, 66610, Control_c, 7, 7, 61
9, 66618, Note_on_c, 7, 50, 0
9, 66618, Note_on_c, 7, 62, 0
9, 66618, Note_on_c, 7, 62, 0
9, 66618, Note_on_c, 7, 62, 0
9, 66620, Control_c, 7, 7, 60
9, 66650, Control_c, 7, 7, 59
9, 66720, Note_on_c, 7, 62, 80
9, 66720, Note_on_c, 7, 62, 80
9, 66720, Note_on_c, 7, 62, 80
9, 66720, Note_on_c, 7, 50, 80
9, 66780, Note_on_c, 7, 61, 81
9, 66780, Note_on_c, 7, 61, 81
9, 66780, Note_on_c, 7, 61, 81
9, 66780, Note_on_c, 7, 49, 81
9, 66793, Note_on_c, 7, 50, 0
9, 66793, Note_on_c, 7, 62, 0
9, 66793, Note_on_c, 7, 62, 0
9, 66793, Note_on_c, 7, 62, 0
9, 66840, Note_on_c, 7, 61, 0
9, 66840, Note_on_c, 7, 49, 0
9, 66840, Note_on_c, 7, 61, 0
9, 66840, Note_on_c, 7, 61, 0
9, 66840, Note_on_c, 7, 62, 85
9, 66840, Note_on_c, 7, 62, 85
9, 66840, Note_on_c, 7, 62, 85
9, 66840, Note_on_c, 7, 50, 85
9, 66891, Control_c, 7, 7, 58
9, 66900, Note_on_c, 7, 50, 0
9, 66900, Note_on_c, 7, 62, 0
9, 66900, Note_on_c, 7, 62, 0
9, 66900, Note_on_c, 7, 62, 0
9, 66900, Note_on_c, 7, 64, 90
9, 66900, Note_on_c, 7, 64, 90
9, 66900, Note_on_c, 7, 64, 90
9, 66900, Note_on_c, 7, 52, 90
9, 66908, Control_c, 7, 7, 59
9, 66925, Control_c, 7, 7, 60
9, 66942, Control_c, 7, 7, 61
9, 66959, Control_c, 7, 7, 62
9, 66960, Note_on_c, 7, 52, 0
9, 66960, Note_on_c, 7, 64, 0
9, 66960, Note_on_c, 7, 64, 0
9, 66960, Note_on_c, 7, 64, 0
9, 66960, Note_on_c, 7, 66, 94
9, 66960, Note_on_c, 7, 66, 94
9, 66960, Note_on_c, 7, 66, 94
9, 66960, Note_on_c, 7, 54, 94
9, 66976, Control_c, 7, 7, 63
9, 66993, Control_c, 7, 7, 64
9, 67010, Control_c, 7, 7, 65
9, 67020, Note_on_c, 7, 64, 97
9, 67020, Note_on_c, 7, 64, 97
9, 67020, Note_on_c, 7, 64, 97
9, 67020, Note_on_c, 7, 52, 97
9, 67027, Control_c, 7, 7, 66
9, 67030, Note_on_c, 7, 54, 0
9, 67030, Note_on_c, 7, 66, 0
9, 67030, Note_on_c, 7, 66, 0
9, 67030, Note_on_c, 7, 66, 0
9, 67045, Control_c, 7, 7, 67
9, 67062, Control_c, 7, 7, 68
9, 67070, Control_c, 7, 7, 69
9, 67080, Note_on_c, 7, 64, 0
9, 67080, Note_on_c, 7, 52, 0
9, 67080, Note_on_c, 7, 64, 0
9, 67080, Note_on_c, 7, 64, 0
9, 67080, Note_on_c, 7, 66, 98
9, 67080, Note_on_c, 7, 66, 98
9, 67080, Note_on_c, 7, 66, 98
9, 67080, Note_on_c, 7, 54, 98
9, 67090, Control_c, 7, 7, 71
9, 67100, Control_c, 7, 7, 72
9, 67120, Control_c, 7, 7, 73
9, 67130, Control_c, 7, 7, 74
9, 67140, Note_on_c, 7, 54, 0
9, 67140, Note_on_c, 7, 66, 0
9, 67140, Note_on_c, 7, 66, 0
9, 67140, Note_on_c, 7, 66, 0
9, 67140, Note_on_c, 7, 67, 100
9, 67140, Note_on_c, 7, 67, 100
9, 67140, Note_on_c, 7, 67, 100
9, 67140, Note_on_c, 7, 55, 100
9, 67160, Control_c, 7, 7, 75
9, 67180, Control_c, 7, 7, 76
9, 67200, Note_on_c, 7, 55, 0
9, 67200, Note_on_c, 7, 67, 0
9, 67200, Note_on_c, 7, 67, 0
9, 67200, Note_on_c, 7, 67, 0
9, 67200, Note_on_c, 7, 69, 100
9, 67200, Note_on_c, 7, 69, 100
9, 67200, Note_on_c, 7, 69, 100
9, 67200, Note_on_c, 7, 57, 100
9, 67230, Control_c, 7, 7, 75
9, 67240, Control_c, 7, 7, 73
9, 67250, Control_c, 7, 7, 72
9, 67251, Control_c, 7, 7, 70
9, 67259, Control_c, 7, 7, 69
9, 67260, Note_on_c, 7, 68, 100
9, 67260, Note_on_c, 7, 68, 100
9, 67260, Note_on_c, 7, 68, 100
9, 67260, Note_on_c, 7, 56, 100
9, 67268, Control_c, 7, 7, 68
9, 67273, Note_on_c, 7, 57, 0
9, 67273, Note_on_c, 7, 69, 0
9, 67273, Note_on_c, 7, 69, 0
9, 67273, Note_on_c, 7, 69, 0
9, 67276, Control_c, 7, 7, 67
9, 67285, Control_c, 7, 7, 66
9, 67290, Control_c, 7, 7, 65
9, 67300, Control_c, 7, 7, 64
9, 67320, Note_on_c, 7, 68, 0
9, 67320, Note_on_c, 7, 56, 0
9, 67320, Note_on_c, 7, 68, 0
9, 67320, Note_on_c, 7, 68, 0
9, 67320, Note_on_c, 7, 69, 100
9, 67320, Note_on_c, 7, 69, 100
9, 67320, Note_on_c, 7, 69, 100
9, 67320, Note_on_c, 7, 57, 100
9, 67330, Control_c, 7, 7, 63
9, 67350, Control_c, 7, 7, 62
9, 67360, Control_c, 7, 7, 60
9, 67380, Note_on_c, 7, 57, 0
9, 67380, Note_on_c, 7, 69, 0
9, 67380, Note_on_c, 7, 69, 0
9, 67380, Note_on_c, 7, 69, 0
9, 67380, Note_on_c, 7, 68, 99
9, 67380, Note_on_c, 7, 68, 99
9, 67380, Note_on_c, 7, 68, 99
9, 67380, Note_on_c, 7, 56, 99
9, 67440, Note_on_c, 7, 56, 0
9, 67440, Note_on_c, 7, 68, 0
9, 67440, Note_on_c, 7, 68, 0
9, 67440, Note_on_c, 7, 68, 0
9, 67440, Note_on_c, 7, 69, 95
9, 67440, Note_on_c, 7, 69, 95
9, 67440, Note_on_c, 7, 69, 95
9, 67440, Note_on_c, 7, 57, 95
9, 67460, Control_c, 7, 7, 59
9, 67560, Control_c, 7, 7, 56
9, 67570, Control_c, 7, 7, 54
9, 67578, Note_on_c, 7, 57, 0
9, 67578, Note_on_c, 7, 69, 0
9, 67578, Note_on_c, 7, 69, 0
9, 67578, Note_on_c, 7, 69, 0
9, 67660, Control_c, 7, 7, 56
9, 67680, Note_on_c, 7, 69, 81
9, 67680, Note_on_c, 7, 69, 81
9, 67680, Note_on_c, 7, 69, 81
9, 67680, Note_on_c, 7, 57, 81
9, 67690, Control_c, 7, 7, 55
9, 67740, Note_on_c, 7, 68, 87
9, 67740, Note_on_c, 7, 68, 87
9, 67740, Note_on_c, 7, 68, 87
9, 67740, Note_on_c, 7, 56, 87
9, 67753, Note_on_c, 7, 57, 0
9, 67753, Note_on_c, 7, 69, 0
9, 67753, Note_on_c, 7, 69, 0
9, 67753, Note_on_c, 7, 69, 0
9, 67754, Control_c, 7, 7, 53
9, 67769, Control_c, 7, 7, 54
9, 67784, Control_c, 7, 7, 55
9, 67799, Control_c, 7, 7, 56
9, 67800, Note_on_c, 7, 68, 0
9, 67800, Note_on_c, 7, 56, 0
9, 67800, Note_on_c, 7, 68, 0
9, 67800, Note_on_c, 7, 68, 0
9, 67800, Note_on_c, 7, 69, 91
9, 67800, Note_on_c, 7, 69, 91
9, 67800, Note_on_c, 7, 69, 91
9, 67800, Note_on_c, 7, 57, 91
9, 67814, Control_c, 7, 7, 57
9, 67829, Control_c, 7, 7, 58
9, 67844, Control_c, 7, 7, 59
9, 67859, Control_c, 7, 7, 60
9, 67860, Note_on_c, 7, 57, 0
9, 67860, Note_on_c, 7, 69, 0
9, 67860, Note_on_c, 7, 69, 0
9, 67860, Note_on_c, 7, 69, 0
9, 67860, Note_on_c, 7, 70, 99
9, 67860, Note_on_c, 7, 70, 99
9, 67860, Note_on_c, 7, 70, 99
9, 67860, Note_on_c, 7, 58, 99
9, 67874, Control_c, 7, 7, 61
9, 67889, Control_c, 7, 7, 62
9, 67904, Control_c, 7, 7, 63
9, 67919, Control_c, 7, 7, 64
9, 67920, Note_on_c, 7, 58, 0
9, 67920, Note_on_c, 7, 70, 0
9, 67920, Note_on_c, 7, 70, 0
9, 67920, Note_on_c, 7, 70, 0
9, 67920, Note_on_c, 7, 71, 104
9, 67920, Note_on_c, 7, 71, 104
9, 67920, Note_on_c, 7, 71, 104
9, 67920, Note_on_c, 7, 59, 104
9, 67934, Control_c, 7, 7, 65
9, 67949, Control_c, 7, 7, 66
9, 67964, Control_c, 7, 7, 67
9, 67979, Control_c, 7, 7, 68
9, 67980, Note_on_c, 7, 69, 107
9, 67980, Note_on_c, 7, 69, 107
9, 67980, Note_on_c, 7, 69, 107
9, 67980, Note_on_c, 7, 57, 107
9, 67990, Note_on_c, 7, 59, 0
9, 67990, Note_on_c, 7, 71, 0
9, 67990, Note_on_c, 7, 71, 0
9, 67990, Note_on_c, 7, 71, 0
9, 67990, Control_c, 7, 7, 70
9, 68010, Control_c, 7, 7, 72
9, 68020, Control_c, 7, 7, 73
9, 68040, Note_on_c, 7, 69, 0
9, 68040, Note_on_c, 7, 57, 0
9, 68040, Note_on_c, 7, 69, 0
9, 68040, Note_on_c, 7, 69, 0
9, 68040, Note_on_c, 7, 67, 107
9, 68040, Note_on_c, 7, 67, 107
9, 68040, Note_on_c, 7, 67, 107
9, 68040, Control_c, 7, 7, 74
9, 68040, Note_on_c, 7, 55, 107
9, 68050, Control_c, 7, 7, 76
9, 68060, Control_c, 7, 7, 78
9, 68090, Control_c, 7, 7, 80
9, 68100, Note_on_c, 7, 55, 0
9, 68100, Note_on_c, 7, 67, 0
9, 68100, Note_on_c, 7, 67, 0
9, 68100, Note_on_c, 7, 67, 0
9, 68100, Note_on_c, 7, 66, 107
9, 68100, Note_on_c, 7, 66, 107
9, 68100, Note_on_c, 7, 66, 107
9, 68100, Note_on_c, 7, 54, 107
9, 68110, Control_c, 7, 7, 81
9, 68130, Control_c, 7, 7, 82
9, 68150, Control_c, 7, 7, 83
9, 68160, Note_on_c, 7, 54, 0
9, 68160, Note_on_c, 7, 66, 0
9, 68160, Note_on_c, 7, 66, 0
9, 68160, Note_on_c, 7, 66, 0
9, 68160, Note_on_c, 7, 64, 103
9, 68160, Note_on_c, 7, 64, 103
9, 68160, Note_on_c, 7, 64, 103
9, 68160, Note_on_c, 7, 52, 103
9, 68160, Control_c, 7, 7, 84
9, 68220, Note_on_c, 7, 63, 97
9, 68220, Note_on_c, 7, 63, 97
9, 68220, Note_on_c, 7, 63, 97
9, 68220, Note_on_c, 7, 51, 97
9, 68230, Control_c, 7, 7, 85
9, 68233, Note_on_c, 7, 52, 0
9, 68233, Note_on_c, 7, 64, 0
9, 68233, Note_on_c, 7, 64, 0
9, 68233, Note_on_c, 7, 64, 0
9, 68250, Control_c, 7, 7, 87
9, 68260, Control_c, 7, 7, 88
9, 68280, Note_on_c, 7, 63, 0
9, 68280, Note_on_c, 7, 51, 0
9, 68280, Note_on_c, 7, 63, 0
9, 68280, Note_on_c, 7, 63, 0
9, 68280, Note_on_c, 7, 64, 94
9, 68280, Note_on_c, 7, 64, 94
9, 68280, Note_on_c, 7, 64, 94
9, 68280, Note_on_c, 7, 52, 94
9, 68330, Control_c, 7, 7, 89
9, 68340, Note_on_c, 7, 52, 0
9, 68340, Note_on_c, 7, 64, 0
9, 68340, Note_on_c, 7, 64, 0
9, 68340, Note_on_c, 7, 64, 0
9, 68340, Note_on_c, 7, 66, 94
9, 68340, Note_on_c, 7, 66, 94
9, 68340, Note_on_c, 7, 66, 94
9, 68340, Note_on_c, 7, 54, 94
9, 68360, Control_c, 7, 7, 90
9, 68370, Control_c, 7, 7, 91
9, 68400, Note_on_c, 7, 54, 0
9, 68400, Note_on_c, 7, 66, 0
9, 68400, Note_on_c, 7, 66, 0
9, 68400, Note_on_c, 7, 66, 0
9, 68400, Note_on_c, 7, 67, 94
9, 68400, Note_on_c, 7, 67, 94
9, 68400, Note_on_c, 7, 67, 94
9, 68400, Note_on_c, 7, 55, 94
9, 68460, Note_on_c, 7, 66, 100
9, 68460, Note_on_c, 7, 66, 100
9, 68460, Note_on_c, 7, 66, 100
9, 68460, Note_on_c, 7, 54, 100
9, 68470, Note_on_c, 7, 55, 0
9, 68470, Note_on_c, 7, 67, 0
9, 68470, Note_on_c, 7, 67, 0
9, 68470, Note_on_c, 7, 67, 0
9, 68520, Note_on_c, 7, 66, 0
9, 68520, Note_on_c, 7, 54, 0
9, 68520, Note_on_c, 7, 66, 0
9, 68520, Note_on_c, 7, 66, 0
9, 68520, Note_on_c, 7, 64, 105
9, 68520, Note_on_c, 7, 64, 105
9, 68520, Note_on_c, 7, 64, 105
9, 68520, Note_on_c, 7, 52, 105
9, 68580, Note_on_c, 7, 52, 0
9, 68580, Note_on_c, 7, 64, 0
9, 68580, Note_on_c, 7, 64, 0
9, 68580, Note_on_c, 7, 64, 0
9, 68580, Note_on_c, 7, 62, 109
9, 68580, Note_on_c, 7, 62, 109
9, 68580, Note_on_c, 7, 62, 109
9, 68580, Note_on_c, 7, 50, 109
9, 68640, Note_on_c, 7, 50, 0
9, 68640, Note_on_c, 7, 62, 0
9, 68640, Note_on_c, 7, 62, 0
9, 68640, Note_on_c, 7, 62, 0
9, 68640, Note_on_c, 7, 61, 111
9, 68640, Note_on_c, 7, 61, 111
9, 68640, Note_on_c, 7, 61, 111
9, 68640, Control_c, 7, 7, 89
9, 68640, Note_on_c, 7, 49, 111
9, 68650, Control_c, 7, 7, 88
9, 68680, Control_c, 7, 7, 86
9, 68690, Control_c, 7, 7, 85
9, 68700, Note_on_c, 7, 62, 113
9, 68700, Note_on_c, 7, 62, 113
9, 68700, Note_on_c, 7, 62, 113
9, 68700, Note_on_c, 7, 50, 113
9, 68713, Note_on_c, 7, 49, 0
9, 68713, Note_on_c, 7, 61, 0
9, 68713, Note_on_c, 7, 61, 0
9, 68713, Note_on_c, 7, 61, 0
9, 68730, Control_c, 7, 7, 84
9, 68750, Control_c, 7, 7, 83
9, 68760, Note_on_c, 7, 62, 0
9, 68760, Note_on_c, 7, 50, 0
9, 68760, Note_on_c, 7, 62, 0
9, 68760, Note_on_c, 7, 62, 0
9, 68760, Note_on_c, 7, 64, 113
9, 68760, Note_on_c, 7, 64, 113
9, 68760, Note_on_c, 7, 64, 113
9, 68760, Note_on_c, 7, 52, 113
9, 68770, Control_c, 7, 7, 82
9, 68810, Control_c, 7, 7, 80
9, 68820, Note_on_c, 7, 52, 0
9, 68820, Note_on_c, 7, 64, 0
9, 68820, Note_on_c, 7, 64, 0
9, 68820, Note_on_c, 7, 64, 0
9, 68820, Note_on_c, 7, 62, 108
9, 68820, Note_on_c, 7, 62, 108
9, 68820, Note_on_c, 7, 62, 108
9, 68820, Control_c, 7, 7, 79
9, 68820, Note_on_c, 7, 50, 108
9, 68849, Control_c, 7, 7, 78
9, 68874, Control_c, 7, 7, 77
9, 68880, Note_on_c, 7, 50, 0
9, 68880, Note_on_c, 7, 62, 0
9, 68880, Note_on_c, 7, 62, 0
9, 68880, Note_on_c, 7, 62, 0
9, 68880, Note_on_c, 7, 61, 102
9, 68880, Note_on_c, 7, 61, 102
9, 68880, Note_on_c, 7, 61, 102
9, 68880, Note_on_c, 7, 49, 102
9, 68899, Control_c, 7, 7, 76
9, 68924, Control_c, 7, 7, 75
9, 68940, Note_on_c, 7, 57, 97
9, 68940, Note_on_c, 7, 57, 97
9, 68940, Note_on_c, 7, 57, 97
9, 68940, Note_on_c, 7, 45, 97
9, 68949, Control_c, 7, 7, 74
9, 68950, Note_on_c, 7, 49, 0
9, 68950, Note_on_c, 7, 61, 0
9, 68950, Note_on_c, 7, 61, 0
9, 68950, Note_on_c, 7, 61, 0
9, 68974, Control_c, 7, 7, 73
9, 68999, Control_c, 7, 7, 72
9, 69000, Note_on_c, 7, 57, 0
9, 69000, Note_on_c, 7, 45, 0
9, 69000, Note_on_c, 7, 57, 0
9, 69000, Note_on_c, 7, 57, 0
9, 69000, Note_on_c, 7, 59, 95
9, 69000, Note_on_c, 7, 59, 95
9, 69000, Note_on_c, 7, 59, 95
9, 69000, Note_on_c, 7, 47, 95
9, 69024, Control_c, 7, 7, 71
9, 69049, Control_c, 7, 7, 70
9, 69060, Note_on_c, 7, 47, 0
9, 69060, Note_on_c, 7, 59, 0
9, 69060, Note_on_c, 7, 59, 0
9, 69060, Note_on_c, 7, 59, 0
9, 69060, Note_on_c, 7, 61, 96
9, 69060, Note_on_c, 7, 61, 96
9, 69060, Note_on_c, 7, 61, 96
9, 69060, Note_on_c, 7, 49, 96
9, 69074, Control_c, 7, 7, 69
9, 69099, Control_c, 7, 7, 68
9, 69120, Note_on_c, 7, 49, 0
9, 69120, Note_on_c, 7, 61, 0
9, 69120, Note_on_c, 7, 61, 0
9, 69120, Note_on_c, 7, 61, 0
9, 69120, Note_on_c, 7, 62, 102
9, 69120, Note_on_c, 7, 62, 102
9, 69120, Note_on_c, 7, 62, 102
9, 69120, Note_on_c, 7, 50, 102
9, 69120, Note_on_c, 7, 50, 102
9, 69120, Note_on_c, 7, 50, 102
9, 69124, Control_c, 7, 7, 67
9, 69149, Control_c, 7, 7, 66
9, 69174, Control_c, 7, 7, 65
9, 69176, Note_on_c, 7, 50, 0
9, 69180, Note_on_c, 7, 50, 98
9, 69193, Note_on_c, 7, 50, 0
9, 69193, Note_on_c, 7, 50, 0
9, 69199, Control_c, 7, 7, 64
9, 69224, Control_c, 7, 7, 63
9, 69236, Note_on_c, 7, 50, 0
9, 69240, Note_on_c, 7, 50, 98
9, 69249, Control_c, 7, 7, 62
9, 69258, Note_on_c, 7, 62, 0
9, 69258, Note_on_c, 7, 62, 0
9, 69258, Note_on_c, 7, 62, 0
9, 69274, Control_c, 7, 7, 61
9, 69296, Note_on_c, 7, 50, 0
9, 69299, Control_c, 7, 7, 60
9, 69300, Note_on_c, 7, 50, 98
9, 69324, Control_c, 7, 7, 59
9, 69349, Control_c, 7, 7, 58
9, 69356, Note_on_c, 7, 50, 0
9, 69360, Note_on_c, 7, 50, 98
9, 69374, Control_c, 7, 7, 57
9, 69399, Control_c, 7, 7, 56
9, 69416, Note_on_c, 7, 50, 0
9, 69420, Note_on_c, 7, 50, 98
9, 69424, Control_c, 7, 7, 55
9, 69449, Control_c, 7, 7, 54
9, 69474, Control_c, 7, 7, 53
9, 69476, Note_on_c, 7, 50, 0
9, 69480, Note_on_c, 7, 50, 98
9, 69499, Control_c, 7, 7, 52
9, 69524, Control_c, 7, 7, 51
9, 69536, Note_on_c, 7, 50, 0
9, 69540, Note_on_c, 7, 50, 98
9, 69549, Control_c, 7, 7, 50
9, 69574, Control_c, 7, 7, 49
9, 69596, Note_on_c, 7, 50, 0
9, 69599, Control_c, 7, 7, 48
9, 69600, Note_on_c, 7, 62, 99
9, 69600, Note_on_c, 7, 50, 99
9, 69658, Note_on_c, 7, 50, 0
9, 69660, Note_on_c, 7, 50, 99
9, 69707, Note_on_c, 7, 50, 0
9, 69720, Note_on_c, 7, 50, 102
9, 69767, Note_on_c, 7, 50, 0
9, 69780, Note_on_c, 7, 50, 104
9, 69827, Note_on_c, 7, 50, 0
9, 69840, Note_on_c, 7, 62, 0
9, 69840, Note_on_c, 7, 50, 105
9, 69896, Note_on_c, 7, 50, 0
9, 69900, Note_on_c, 7, 50, 107
9, 69947, Note_on_c, 7, 50, 0
9, 69960, Note_on_c, 7, 50, 110
9, 70007, Note_on_c, 7, 50, 0
9, 70020, Note_on_c, 7, 50, 110
9, 70067, Note_on_c, 7, 50, 0
9, 70080, Note_on_c, 7, 50, 111
9, 70090, Control_c, 7, 7, 66
9, 70138, Note_on_c, 7, 50, 0
9, 70140, Note_on_c, 7, 50, 112
9, 70187, Note_on_c, 7, 50, 0
9, 70200, Note_on_c, 7, 50, 113
9, 70200, Control_c, 7, 7, 67
9, 70230, Control_c, 7, 7, 68
9, 70247, Note_on_c, 7, 50, 0
9, 70260, Note_on_c, 7, 50, 115
9, 70260, Control_c, 7, 7, 69
9, 70270, Control_c, 7, 7, 70
9, 70290, Control_c, 7, 7, 71
9, 70307, Note_on_c, 7, 50, 0
9, 70310, Control_c, 7, 7, 72
9, 70320, Note_on_c, 7, 50, 115
9, 70330, Control_c, 7, 7, 73
9, 70350, Control_c, 7, 7, 75
9, 70376, Note_on_c, 7, 50, 0
9, 70380, Note_on_c, 7, 50, 116
9, 70380, Control_c, 7, 7, 76
9, 70420, Control_c, 7, 7, 77
9, 70427, Note_on_c, 7, 50, 0
9, 70440, Note_on_c, 7, 50, 117
9, 70440, Control_c, 7, 7, 78
9, 70460, Control_c, 7, 7, 79
9, 70470, Control_c, 7, 7, 80
9, 70487, Note_on_c, 7, 50, 0
9, 70500, Note_on_c, 7, 50, 118
9, 70540, Control_c, 7, 7, 81
9, 70547, Note_on_c, 7, 50, 0
9, 70560, Note_on_c, 7, 62, 118
9, 70560, Note_on_c, 7, 50, 118
9, 70580, Control_c, 7, 7, 83
9, 70618, Note_on_c, 7, 50, 0
9, 70620, Note_on_c, 7, 50, 119
9, 70620, Control_c, 7, 7, 84
9, 70660, Control_c, 7, 7, 85
9, 70667, Note_on_c, 7, 50, 0
9, 70680, Note_on_c, 7, 50, 121
9, 70710, Control_c, 7, 7, 86
9, 70727, Note_on_c, 7, 50, 0
9, 70740, Note_on_c, 7, 50, 123
9, 70750, Control_c, 7, 7, 87
9, 70787, Note_on_c, 7, 50, 0
9, 70800, Note_on_c, 7, 62, 0
9, 70800, Note_on_c, 7, 50, 123
9, 70800, Control_c, 7, 7, 88
9, 70840, Control_c, 7, 7, 89
9, 70856, Note_on_c, 7, 50, 0
9, 70860, Note_on_c, 7, 50, 124
9, 70870, Control_c, 7, 7, 90
9, 70880, Control_c, 7, 7, 91
9, 70907, Note_on_c, 7, 50, 0
9, 70920, Note_on_c, 7, 50, 125
9, 70920, Control_c, 7, 7, 92
9, 70950, Control_c, 7, 7, 93
9, 70967, Note_on_c, 7, 50, 0
9, 70970, Control_c, 7, 7, 94
9, 70980, Note_on_c, 7, 50, 125
9, 70990, Control_c, 7, 7, 95
9, 71020, Control_c, 7, 7, 96
9, 71027, Note_on_c, 7, 50, 0
9, 71040, Note_on_c, 7, 50, 126
9, 71060, Control_c, 7, 7, 97
9, 71070, Control_c, 7, 7, 98
9, 71098, Note_on_c, 7, 50, 0
9, 71100, Note_on_c, 7, 50, 126
9, 71100, Control_c, 7, 7, 99
9, 71110, Control_c, 7, 7, 100
9, 71147, Note_on_c, 7, 50, 0
9, 71150, Control_c, 7, 7, 101
9, 71160, Note_on_c, 7, 50, 126
9, 71160, Control_c, 7, 7, 102
9, 71180, Control_c, 7, 7, 103
9, 71190, Control_c, 7, 7, 104
9, 71207, Note_on_c, 7, 50, 0
9, 71220, Note_on_c, 7, 50, 126
9, 71250, Control_c, 7, 7, 105
9, 71267, Note_on_c, 7, 50, 0
9, 71280, Note_on_c, 7, 50, 126
9, 71310, Control_c, 7, 7, 106
9, 71336, Note_on_c, 7, 50, 0
9, 71340, Note_on_c, 7, 50, 126
9, 71350, Control_c, 7, 7, 107
9, 71387, Note_on_c, 7, 50, 0
9, 71400, Note_on_c, 7, 50, 126
9, 71400, Control_c, 7, 7, 108
9, 71420, Control_c, 7, 7, 109
9, 71430, Control_c, 7, 7, 110
9, 71447, Note_on_c, 7, 50, 0
9, 71450, Control_c, 7, 7, 111
9, 71460, Note_on_c, 7, 50, 126
9, 71470, Control_c, 7, 7, 112
9, 71480, Control_c, 7, 7, 113
9, 71507, Note_on_c, 7, 50, 0
9, 71510, Control_c, 7, 7, 116
9, 71520, Note_on_c, 7, 62, 126
9, 71520, Note_on_c, 7, 74, 126
9, 71520, Note_on_c, 7, 69, 126
9, 71520, Note_on_c, 7, 62, 126
9, 71520, Note_on_c, 7, 78, 126
9, 71520, Note_on_c, 7, 86, 126
9, 71520, Control_c, 7, 7, 126
9, 71520, Note_on_c, 7, 62, 126
9, 71520, Note_on_c, 7, 50, 126
9, 71530, Control_c, 7, 7, 127
9, 71578, Note_on_c, 7, 50, 0
9, 71578, Note_on_c, 7, 62, 0
9, 71580, Note_on_c, 7, 62, 126
9, 71580, Note_on_c, 7, 50, 126
9, 71627, Note_on_c, 7, 50, 0
9, 71627, Note_on_c, 7, 62, 0
9, 71640, Note_on_c, 7, 62, 126
9, 71640, Note_on_c, 7, 50, 126
9, 71687, Note_on_c, 7, 50, 0
9, 71687, Note_on_c, 7, 62, 0
9, 71700, Note_on_c, 7, 62, 126
9, 71700, Note_on_c, 7, 50, 126
9, 71747, Note_on_c, 7, 50, 0
9, 71747, Note_on_c, 7, 62, 0
9, 71760, Note_on_c, 7, 86, 0
9, 71760, Note_on_c, 7, 74, 0
9, 71760, Note_on_c, 7, 69, 0
9, 71760, Note_on_c, 7, 62, 0
9, 71760, Note_on_c, 7, 78, 0
9, 71760, Note_on_c, 7, 62, 0
9, 71760, Note_on_c, 7, 62, 126
9, 71760, Note_on_c, 7, 50, 126
9, 71816, Note_on_c, 7, 50, 0
9, 71816, Note_on_c, 7, 62, 0
9, 71820, Note_on_c, 7, 62, 126
9, 71820, Note_on_c, 7, 50, 126
9, 71867, Note_on_c, 7, 50, 0
9, 71867, Note_on_c, 7, 62, 0
9, 71880, Note_on_c, 7, 62, 125
9, 71880, Note_on_c, 7, 50, 125
9, 71927, Note_on_c, 7, 50, 0
9, 71927, Note_on_c, 7, 62, 0
9, 71940, Note_on_c, 7, 62, 124
9, 71940, Note_on_c, 7, 50, 124
9, 71987, Note_on_c, 7, 50, 0
9, 71987, Note_on_c, 7, 62, 0
9, 72000, Note_on_c, 7, 76, 124
9, 72000, Note_on_c, 7, 85, 124
9, 72000, Note_on_c, 7, 62, 124
9, 72000, Note_on_c, 7, 50, 124
9, 72058, Note_on_c, 7, 50, 0
9, 72058, Note_on_c, 7, 62, 0
9, 72060, Note_on_c, 7, 62, 124
9, 72060, Note_on_c, 7, 50, 124
9, 72107, Note_on_c, 7, 50, 0
9, 72107, Note_on_c, 7, 62, 0
9, 72120, Note_on_c, 7, 62, 124
9, 72120, Note_on_c, 7, 50, 124
9, 72167, Note_on_c, 7, 50, 0
9, 72167, Note_on_c, 7, 62, 0
9, 72180, Note_on_c, 7, 62, 124
9, 72180, Note_on_c, 7, 50, 124
9, 72227, Note_on_c, 7, 50, 0
9, 72227, Note_on_c, 7, 62, 0
9, 72240, Note_on_c, 7, 62, 124
9, 72240, Note_on_c, 7, 50, 124
9, 72296, Note_on_c, 7, 50, 0
9, 72296, Note_on_c, 7, 62, 0
9, 72300, Note_on_c, 7, 62, 124
9, 72300, Note_on_c, 7, 50, 124
9, 72347, Note_on_c, 7, 50, 0
9, 72347, Note_on_c, 7, 62, 0
9, 72360, Note_on_c, 7, 85, 0
9, 72360, Note_on_c, 7, 76, 0
9, 72360, Note_on_c, 7, 86, 124
9, 72360, Note_on_c, 7, 79, 124
9, 72360, Note_on_c, 7, 62, 124
9, 72360, Note_on_c, 7, 50, 124
9, 72407, Note_on_c, 7, 50, 0
9, 72407, Note_on_c, 7, 86, 0
9, 72407, Note_on_c, 7, 79, 0
9, 72407, Note_on_c, 7, 62, 0
9, 72420, Note_on_c, 7, 83, 124
9, 72420, Note_on_c, 7, 62, 124
9, 72420, Note_on_c, 7, 50, 124
9, 72467, Note_on_c, 7, 50, 0
9, 72467, Note_on_c, 7, 62, 0
9, 72467, Note_on_c, 7, 83, 0
9, 72480, Note_on_c, 7, 78, 124
9, 72480, Note_on_c, 7, 81, 124
9, 72480, Note_on_c, 7, 62, 124
9, 72480, Note_on_c, 7, 50, 124
9, 72538, Note_on_c, 7, 50, 0
9, 72538, Note_on_c, 7, 62, 0
9, 72540, Note_on_c, 7, 62, 124
9, 72540, Note_on_c, 7, 50, 124
9, 72587, Note_on_c, 7, 50, 0
9, 72587, Note_on_c, 7, 62, 0
9, 72600, Note_on_c, 7, 81, 0
9, 72600, Note_on_c, 7, 78, 0
9, 72600, Note_on_c, 7, 86, 124
9, 72600, Note_on_c, 7, 78, 124
9, 72600, Note_on_c, 7, 62, 124
9, 72600, Note_on_c, 7, 50, 124
9, 72647, Note_on_c, 7, 50, 0
9, 72647, Note_on_c, 7, 62, 0
9, 72660, Note_on_c, 7, 62, 124
9, 72660, Note_on_c, 7, 50, 124
9, 72690, Note_on_c, 7, 78, 0
9, 72690, Note_on_c, 7, 86, 0
9, 72707, Note_on_c, 7, 62, 0
9, 72707, Note_on_c, 7, 50, 0
9, 72720, Note_on_c, 7, 76, 127
9, 72720, Note_on_c, 7, 62, 127
9, 72720, Note_on_c, 7, 50, 127
9, 72720, Note_on_c, 7, 86, 127
9, 72740, Note_on_c, 7, 86, 0
9, 72740, Note_on_c, 7, 85, 127
9, 72760, Note_on_c, 7, 85, 0
9, 72760, Note_on_c, 7, 83, 127
9, 72776, Note_on_c, 7, 50, 0
9, 72776, Note_on_c, 7, 76, 0
9, 72776, Note_on_c, 7, 62, 0
9, 72780, Note_on_c, 7, 83, 0
9, 72780, Note_on_c, 7, 62, 127
9, 72780, Note_on_c, 7, 50, 127
9, 72827, Note_on_c, 7, 50, 0
9, 72827, Note_on_c, 7, 62, 0
9, 72840, Note_on_c, 7, 86, 125
9, 72840, Note_on_c, 7, 79, 125
9, 72840, Note_on_c, 7, 62, 125
9, 72840, Note_on_c, 7, 50, 125
9, 72887, Note_on_c, 7, 50, 0
9, 72887, Note_on_c, 7, 62, 0
9, 72887, Note_on_c, 7, 79, 0
9, 72896, Note_on_c, 7, 86, 0
9, 72900, Note_on_c, 7, 83, 116
9, 72900, Note_on_c, 7, 62, 116
9, 72900, Note_on_c, 7, 50, 116
9, 72947, Note_on_c, 7, 50, 0
9, 72947, Note_on_c, 7, 62, 0
9, 72956, Note_on_c, 7, 83, 0
9, 72960, Note_on_c, 7, 78, 105
9, 72960, Note_on_c, 7, 81, 105
9, 72960, Note_on_c, 7, 62, 105
9, 72960, Note_on_c, 7, 50, 105
9, 73018, Note_on_c, 7, 50, 0
9, 73018, Note_on_c, 7, 62, 0
9, 73020, Note_on_c, 7, 62, 98
9, 73020, Note_on_c, 7, 50, 98
9, 73067, Note_on_c, 7, 50, 0
9, 73067, Note_on_c, 7, 62, 0
9, 73080, Note_on_c, 7, 81, 0
9, 73080, Note_on_c, 7, 78, 0
9, 73080, Note_on_c, 7, 86, 98
9, 73080, Note_on_c, 7, 78, 98
9, 73080, Note_on_c, 7, 62, 98
9, 73080, Note_on_c, 7, 50, 98
9, 73127, Note_on_c, 7, 50, 0
9, 73127, Note_on_c, 7, 62, 0
9, 73140, Note_on_c, 7, 62, 98
9, 73140, Note_on_c, 7, 50, 98
9, 73170, Note_on_c, 7, 78, 0
9, 73170, Note_on_c, 7, 86, 0
9, 73187, Note_on_c, 7, 62, 0
9, 73187, Note_on_c, 7, 50, 0
9, 73200, Note_on_c, 7, 76, 127
9, 73200, Note_on_c, 7, 62, 127
9, 73200, Note_on_c, 7, 50, 127
9, 73200, Note_on_c, 7, 86, 127
9, 73220, Note_on_c, 7, 86, 0
9, 73220, Note_on_c, 7, 85, 127
9, 73240, Note_on_c, 7, 85, 0
9, 73240, Note_on_c, 7, 83, 127
9, 73256, Note_on_c, 7, 50, 0
9, 73256, Note_on_c, 7, 76, 0
9, 73256, Note_on_c, 7, 62, 0
9, 73260, Note_on_c, 7, 83, 0
9, 73260, Note_on_c, 7, 62, 127
9, 73260, Note_on_c, 7, 50, 127
9, 73307, Note_on_c, 7, 50, 0
9, 73307, Note_on_c, 7, 62, 0
9, 73320, Note_on_c, 7, 86, 125
9, 73320, Note_on_c, 7, 79, 125
9, 73320, Note_on_c, 7, 62, 125
9, 73320, Note_on_c, 7, 50, 125
9, 73367, Note_on_c, 7, 50, 0
9, 73367, Note_on_c, 7, 62, 0
9, 73367, Note_on_c, 7, 79, 0
9, 73376, Note_on_c, 7, 86, 0
9, 73380, Note_on_c, 7, 83, 108
9, 73380, Note_on_c, 7, 62, 108
9, 73380, Note_on_c, 7, 50, 108
9, 73427, Note_on_c, 7, 50, 0
9, 73427, Note_on_c, 7, 62, 0
9, 73436, Note_on_c, 7, 83, 0
9, 73440, Note_on_c, 7, 62, 102
9, 73440, Note_on_c, 7, 50, 102
9, 73590, Note_on_c, 7, 50, 0
9, 73590, Note_on_c, 7, 62, 0
9, 73680, Note_on_c, 7, 67, 98
9, 73680, Note_on_c, 7, 55, 98
9, 73810, Control_c, 7, 7, 127
9, 73830, Note_on_c, 7, 55, 0
9, 73830, Note_on_c, 7, 67, 0
9, 73830, Control_c, 7, 7, 126
9, 73870, Control_c, 7, 7, 124
9, 73910, Control_c, 7, 7, 122
9, 73920, Note_on_c, 7, 69, 98
9, 73920, Note_on_c, 7, 57, 98
9, 73920, Control_c, 7, 7, 120
9, 73940, Control_c, 7, 7, 119
9, 73960, Control_c, 7, 7, 118
9, 74020, Control_c, 7, 7, 112
9, 74070, Note_on_c, 7, 57, 0
9, 74070, Note_on_c, 7, 69, 0
9, 74080, Control_c, 7, 7, 106
9, 74100, Control_c, 7, 7, 100
9, 74160, Note_on_c, 7, 57, 98
9, 74160, Note_on_c, 7, 45, 98
9, 74160, Control_c, 7, 7, 94
9, 74220, Control_c, 7, 7, 92
9, 74230, Control_c, 7, 7, 90
9, 74250, Control_c, 7, 7, 88
9, 74260, Control_c, 7, 7, 87
9, 74270, Control_c, 7, 7, 86
9, 74300, Control_c, 7, 7, 85
9, 74310, Note_on_c, 7, 45, 0
9, 74310, Note_on_c, 7, 57, 0
9, 74310, Control_c, 7, 7, 84
9, 74400, Note_on_c, 7, 50, 98
9, 74400, Note_on_c, 7, 62, 98
9, 74400, Note_on_c, 7, 62, 98
9, 74400, Control_c, 7, 7, 48
9, 74417, Control_c, 7, 7, 49
9, 74434, Control_c, 7, 7, 50
9, 74451, Control_c, 7, 7, 51
9, 74460, Note_on_c, 7, 62, 0
9, 74460, Note_on_c, 7, 62, 0
9, 74460, Note_on_c, 7, 50, 0
9, 74460, Note_on_c, 7, 61, 98
9, 74460, Note_on_c, 7, 61, 98
9, 74460, Note_on_c, 7, 49, 98
9, 74468, Control_c, 7, 7, 52
9, 74485, Control_c, 7, 7, 53
9, 74502, Control_c, 7, 7, 54
9, 74519, Control_c, 7, 7, 55
9, 74520, Note_on_c, 7, 49, 0
9, 74520, Note_on_c, 7, 61, 0
9, 74520, Note_on_c, 7, 61, 0
9, 74520, Note_on_c, 7, 62, 98
9, 74520, Note_on_c, 7, 62, 98
9, 74520, Note_on_c, 7, 50, 98
9, 74536, Control_c, 7, 7, 56
9, 74553, Control_c, 7, 7, 57
9, 74571, Control_c, 7, 7, 58
9, 74580, Note_on_c, 7, 50, 0
9, 74580, Note_on_c, 7, 62, 0
9, 74580, Note_on_c, 7, 62, 0
9, 74580, Note_on_c, 7, 61, 100
9, 74580, Note_on_c, 7, 61, 100
9, 74580, Note_on_c, 7, 49, 100
9, 74588, Control_c, 7, 7, 59
9, 74605, Control_c, 7, 7, 60
9, 74622, Control_c, 7, 7, 61
9, 74640, Note_on_c, 7, 49, 0
9, 74640, Note_on_c, 7, 61, 0
9, 74640, Note_on_c, 7, 61, 0
9, 74640, Note_on_c, 7, 50, 100
9, 74640, Note_on_c, 7, 62, 100
9, 74640, Note_on_c, 7, 62, 100
9, 74656, Control_c, 7, 7, 63
9, 74673, Control_c, 7, 7, 64
9, 74690, Control_c, 7, 7, 65
9, 74707, Control_c, 7, 7, 66
9, 74725, Control_c, 7, 7, 67
9, 74742, Control_c, 7, 7, 68
9, 74750, Control_c, 7, 7, 69
9, 74760, Note_on_c, 7, 62, 0
9, 74760, Note_on_c, 7, 62, 0
9, 74760, Note_on_c, 7, 50, 0
9, 74770, Control_c, 7, 7, 71
9, 74780, Control_c, 7, 7, 72
9, 74800, Control_c, 7, 7, 73
9, 74810, Control_c, 7, 7, 74
9, 74840, Control_c, 7, 7, 75
9, 74860, Control_c, 7, 7, 76
9, 74880, Note_on_c, 7, 62, 83
9, 74880, Note_on_c, 7, 62, 83
9, 74880, Note_on_c, 7, 50, 83
9, 74910, Control_c, 7, 7, 75
9, 74920, Control_c, 7, 7, 73
9, 74930, Control_c, 7, 7, 72
9, 74931, Control_c, 7, 7, 70
9, 74939, Control_c, 7, 7, 69
9, 74940, Note_on_c, 7, 50, 0
9, 74940, Note_on_c, 7, 62, 0
9, 74940, Note_on_c, 7, 62, 0
9, 74940, Note_on_c, 7, 61, 88
9, 74940, Note_on_c, 7, 61, 88
9, 74940, Note_on_c, 7, 49, 88
9, 74948, Control_c, 7, 7, 68
9, 74956, Control_c, 7, 7, 67
9, 74965, Control_c, 7, 7, 66
9, 74970, Control_c, 7, 7, 65
9, 74980, Control_c, 7, 7, 64
9, 75000, Note_on_c, 7, 49, 0
9, 75000, Note_on_c, 7, 61, 0
9, 75000, Note_on_c, 7, 61, 0
9, 75000, Note_on_c, 7, 62, 92
9, 75000, Note_on_c, 7, 62, 92
9, 75000, Note_on_c, 7, 50, 92
9, 75010, Control_c, 7, 7, 63
9, 75030, Control_c, 7, 7, 62
9, 75040, Control_c, 7, 7, 60
9, 75060, Note_on_c, 7, 50, 0
9, 75060, Note_on_c, 7, 62, 0
9, 75060, Note_on_c, 7, 62, 0
9, 75060, Note_on_c, 7, 64, 97
9, 75060, Note_on_c, 7, 64, 97
9, 75060, Note_on_c, 7, 52, 97
9, 75120, Note_on_c, 7, 52, 0
9, 75120, Note_on_c, 7, 64, 0
9, 75120, Note_on_c, 7, 64, 0
9, 75120, Note_on_c, 7, 66, 99
9, 75120, Note_on_c, 7, 66, 99
9, 75120, Note_on_c, 7, 54, 99
9, 75140, Control_c, 7, 7, 59
9, 75180, Note_on_c, 7, 54, 0
9, 75180, Note_on_c, 7, 66, 0
9, 75180, Note_on_c, 7, 66, 0
9, 75180, Note_on_c, 7, 64, 102
9, 75180, Note_on_c, 7, 64, 102
9, 75180, Note_on_c, 7, 52, 102
9, 75240, Note_on_c, 7, 52, 0
9, 75240, Note_on_c, 7, 64, 0
9, 75240, Note_on_c, 7, 64, 0
9, 75240, Note_on_c, 7, 66, 104
9, 75240, Note_on_c, 7, 66, 104
9, 75240, Control_c, 7, 7, 56
9, 75240, Note_on_c, 7, 54, 104
9, 75250, Control_c, 7, 7, 54
9, 75300, Note_on_c, 7, 54, 0
9, 75300, Note_on_c, 7, 66, 0
9, 75300, Note_on_c, 7, 66, 0
9, 75300, Note_on_c, 7, 68, 104
9, 75300, Note_on_c, 7, 68, 104
9, 75300, Note_on_c, 7, 56, 104
9, 75340, Control_c, 7, 7, 56
9, 75360, Note_on_c, 7, 56, 0
9, 75360, Note_on_c, 7, 68, 0
9, 75360, Note_on_c, 7, 68, 0
9, 75360, Note_on_c, 7, 69, 104
9, 75360, Note_on_c, 7, 69, 104
9, 75360, Note_on_c, 7, 57, 104
9, 75370, Control_c, 7, 7, 55
9, 75420, Note_on_c, 7, 57, 0
9, 75420, Note_on_c, 7, 69, 0
9, 75420, Note_on_c, 7, 69, 0
9, 75420, Note_on_c, 7, 68, 104
9, 75420, Note_on_c, 7, 68, 104
9, 75420, Note_on_c, 7, 56, 104
9, 75434, Control_c, 7, 7, 53
9, 75449, Control_c, 7, 7, 54
9, 75464, Control_c, 7, 7, 55
9, 75479, Control_c, 7, 7, 56
9, 75480, Note_on_c, 7, 56, 0
9, 75480, Note_on_c, 7, 68, 0
9, 75480, Note_on_c, 7, 68, 0
9, 75480, Note_on_c, 7, 69, 100
9, 75480, Note_on_c, 7, 69, 100
9, 75480, Note_on_c, 7, 57, 100
9, 75494, Control_c, 7, 7, 57
9, 75509, Control_c, 7, 7, 58
9, 75524, Control_c, 7, 7, 59
9, 75539, Control_c, 7, 7, 60
9, 75540, Note_on_c, 7, 57, 0
9, 75540, Note_on_c, 7, 69, 0
9, 75540, Note_on_c, 7, 69, 0
9, 75540, Note_on_c, 7, 68, 93
9, 75540, Note_on_c, 7, 68, 93
9, 75540, Note_on_c, 7, 56, 93
9, 75554, Control_c, 7, 7, 61
9, 75569, Control_c, 7, 7, 62
9, 75584, Control_c, 7, 7, 63
9, 75599, Control_c, 7, 7, 64
9, 75600, Note_on_c, 7, 56, 0
9, 75600, Note_on_c, 7, 68, 0
9, 75600, Note_on_c, 7, 68, 0
9, 75600, Note_on_c, 7, 69, 100
9, 75600, Note_on_c, 7, 69, 100
9, 75600, Note_on_c, 7, 57, 100
9, 75614, Control_c, 7, 7, 65
9, 75629, Control_c, 7, 7, 66
9, 75644, Control_c, 7, 7, 67
9, 75659, Control_c, 7, 7, 68
9, 75670, Control_c, 7, 7, 70
9, 75690, Control_c, 7, 7, 72
9, 75700, Control_c, 7, 7, 73
9, 75720, Note_on_c, 7, 57, 0
9, 75720, Note_on_c, 7, 69, 0
9, 75720, Note_on_c, 7, 69, 0
9, 75720, Control_c, 7, 7, 74
9, 75730, Control_c, 7, 7, 76
9, 75740, Control_c, 7, 7, 78
9, 75770, Control_c, 7, 7, 80
9, 75790, Control_c, 7, 7, 81
9, 75810, Control_c, 7, 7, 82
9, 75830, Control_c, 7, 7, 83
9, 75840, Note_on_c, 7, 62, 118
9, 75840, Note_on_c, 7, 62, 118
9, 75840, Note_on_c, 7, 50, 118
9, 75870, Control_c, 7, 7, 75
9, 75880, Control_c, 7, 7, 73
9, 75890, Control_c, 7, 7, 72
9, 75891, Control_c, 7, 7, 70
9, 75899, Control_c, 7, 7, 69
9, 75900, Note_on_c, 7, 50, 0
9, 75900, Note_on_c, 7, 62, 0
9, 75900, Note_on_c, 7, 62, 0
9, 75900, Note_on_c, 7, 61, 89
9, 75900, Note_on_c, 7, 61, 89
9, 75900, Note_on_c, 7, 49, 89
9, 75908, Control_c, 7, 7, 68
9, 75916, Control_c, 7, 7, 67
9, 75925, Control_c, 7, 7, 66
9, 75930, Control_c, 7, 7, 65
9, 75940, Control_c, 7, 7, 64
9, 75960, Note_on_c, 7, 49, 0
9, 75960, Note_on_c, 7, 61, 0
9, 75960, Note_on_c, 7, 61, 0
9, 75960, Note_on_c, 7, 62, 92
9, 75960, Note_on_c, 7, 62, 92
9, 75960, Note_on_c, 7, 50, 92
9, 75970, Control_c, 7, 7, 63
9, 75990, Control_c, 7, 7, 62
9, 76000, Control_c, 7, 7, 60
9, 76020, Note_on_c, 7, 50, 0
9, 76020, Note_on_c, 7, 62, 0
9, 76020, Note_on_c, 7, 62, 0
9, 76020, Note_on_c, 7, 64, 96
9, 76020, Note_on_c, 7, 64, 96
9, 76020, Note_on_c, 7, 52, 96
9, 76080, Note_on_c, 7, 52, 0
9, 76080, Note_on_c, 7, 64, 0
9, 76080, Note_on_c, 7, 64, 0
9, 76080, Note_on_c, 7, 66, 100
9, 76080, Note_on_c, 7, 66, 100
9, 76080, Note_on_c, 7, 54, 100
9, 76100, Control_c, 7, 7, 59
9, 76140, Note_on_c, 7, 54, 0
9, 76140, Note_on_c, 7, 66, 0
9, 76140, Note_on_c, 7, 66, 0
9, 76140, Note_on_c, 7, 64, 105
9, 76140, Note_on_c, 7, 64, 105
9, 76140, Note_on_c, 7, 52, 105
9, 76200, Note_on_c, 7, 52, 0
9, 76200, Note_on_c, 7, 64, 0
9, 76200, Note_on_c, 7, 64, 0
9, 76200, Note_on_c, 7, 66, 107
9, 76200, Note_on_c, 7, 66, 107
9, 76200, Control_c, 7, 7, 56
9, 76200, Note_on_c, 7, 54, 107
9, 76210, Control_c, 7, 7, 54
9, 76260, Note_on_c, 7, 54, 0
9, 76260, Note_on_c, 7, 66, 0
9, 76260, Note_on_c, 7, 66, 0
9, 76260, Note_on_c, 7, 62, 108
9, 76260, Note_on_c, 7, 62, 108
9, 76260, Note_on_c, 7, 50, 108
9, 76300, Control_c, 7, 7, 56
9, 76320, Note_on_c, 7, 50, 0
9, 76320, Note_on_c, 7, 62, 0
9, 76320, Note_on_c, 7, 62, 0
9, 76320, Note_on_c, 7, 67, 108
9, 76320, Note_on_c, 7, 67, 108
9, 76320, Note_on_c, 7, 55, 108
9, 76330, Control_c, 7, 7, 55
9, 76380, Note_on_c, 7, 55, 0
9, 76380, Note_on_c, 7, 67, 0
9, 76380, Note_on_c, 7, 67, 0
9, 76380, Note_on_c, 7, 66, 106
9, 76380, Note_on_c, 7, 66, 106
9, 76380, Note_on_c, 7, 54, 106
9, 76394, Control_c, 7, 7, 53
9, 76409, Control_c, 7, 7, 54
9, 76424, Control_c, 7, 7, 55
9, 76439, Control_c, 7, 7, 56
9, 76440, Note_on_c, 7, 54, 0
9, 76440, Note_on_c, 7, 66, 0
9, 76440, Note_on_c, 7, 66, 0
9, 76440, Note_on_c, 7, 67, 103
9, 76440, Note_on_c, 7, 67, 103
9, 76440, Note_on_c, 7, 55, 103
9, 76454, Control_c, 7, 7, 57
9, 76469, Control_c, 7, 7, 58
9, 76484, Control_c, 7, 7, 59
9, 76499, Control_c, 7, 7, 60
9, 76500, Note_on_c, 7, 55, 0
9, 76500, Note_on_c, 7, 67, 0
9, 76500, Note_on_c, 7, 67, 0
9, 76500, Note_on_c, 7, 66, 96
9, 76500, Note_on_c, 7, 66, 96
9, 76500, Note_on_c, 7, 54, 96
9, 76514, Control_c, 7, 7, 61
9, 76529, Control_c, 7, 7, 62
9, 76544, Control_c, 7, 7, 63
9, 76559, Control_c, 7, 7, 64
9, 76560, Note_on_c, 7, 54, 0
9, 76560, Note_on_c, 7, 66, 0
9, 76560, Note_on_c, 7, 66, 0
9, 76560, Note_on_c, 7, 67, 102
9, 76560, Note_on_c, 7, 67, 102
9, 76560, Note_on_c, 7, 55, 102
9, 76574, Control_c, 7, 7, 65
9, 76589, Control_c, 7, 7, 66
9, 76604, Control_c, 7, 7, 67
9, 76619, Control_c, 7, 7, 68
9, 76630, Control_c, 7, 7, 70
9, 76650, Control_c, 7, 7, 72
9, 76660, Control_c, 7, 7, 73
9, 76680, Note_on_c, 7, 55, 0
9, 76680, Note_on_c, 7, 67, 0
9, 76680, Note_on_c, 7, 67, 0
9, 76680, Control_c, 7, 7, 74
9, 76690, Control_c, 7, 7, 76
9, 76700, Control_c, 7, 7, 78
9, 76730, Control_c, 7, 7, 80
9, 76750, Control_c, 7, 7, 81
9, 76770, Control_c, 7, 7, 82
9, 76790, Control_c, 7, 7, 83
9, 76800, Note_on_c, 7, 59, 88
9, 76800, Note_on_c, 7, 59, 88
9, 76800, Note_on_c, 7, 47, 88
9, 76830, Control_c, 7, 7, 75
9, 76840, Control_c, 7, 7, 73
9, 76850, Control_c, 7, 7, 72
9, 76851, Control_c, 7, 7, 70
9, 76859, Control_c, 7, 7, 69
9, 76860, Note_on_c, 7, 47, 0
9, 76860, Note_on_c, 7, 59, 0
9, 76860, Note_on_c, 7, 59, 0
9, 76860, Note_on_c, 7, 58, 86
9, 76860, Note_on_c, 7, 58, 86
9, 76860, Note_on_c, 7, 46, 86
9, 76868, Control_c, 7, 7, 68
9, 76876, Control_c, 7, 7, 67
9, 76885, Control_c, 7, 7, 66
9, 76890, Control_c, 7, 7, 65
9, 76900, Control_c, 7, 7, 64
9, 76920, Note_on_c, 7, 46, 0
9, 76920, Note_on_c, 7, 58, 0
9, 76920, Note_on_c, 7, 58, 0
9, 76920, Note_on_c, 7, 59, 91
9, 76920, Note_on_c, 7, 59, 91
9, 76920, Note_on_c, 7, 47, 91
9, 76930, Control_c, 7, 7, 63
9, 76950, Control_c, 7, 7, 62
9, 76960, Control_c, 7, 7, 60
9, 76980, Note_on_c, 7, 47, 0
9, 76980, Note_on_c, 7, 59, 0
9, 76980, Note_on_c, 7, 59, 0
9, 76980, Note_on_c, 7, 61, 97
9, 76980, Note_on_c, 7, 61, 97
9, 76980, Note_on_c, 7, 49, 97
9, 77040, Note_on_c, 7, 49, 0
9, 77040, Note_on_c, 7, 61, 0
9, 77040, Note_on_c, 7, 61, 0
9, 77040, Note_on_c, 7, 63, 103
9, 77040, Note_on_c, 7, 63, 103
9, 77040, Note_on_c, 7, 51, 103
9, 77060, Control_c, 7, 7, 59
9, 77100, Note_on_c, 7, 51, 0
9, 77100, Note_on_c, 7, 63, 0
9, 77100, Note_on_c, 7, 63, 0
9, 77100, Note_on_c, 7, 61, 105
9, 77100, Note_on_c, 7, 61, 105
9, 77100, Note_on_c, 7, 49, 105
9, 77160, Note_on_c, 7, 49, 0
9, 77160, Note_on_c, 7, 61, 0
9, 77160, Note_on_c, 7, 61, 0
9, 77160, Note_on_c, 7, 63, 105
9, 77160, Note_on_c, 7, 63, 105
9, 77160, Control_c, 7, 7, 56
9, 77160, Note_on_c, 7, 51, 105
9, 77170, Control_c, 7, 7, 54
9, 77220, Note_on_c, 7, 51, 0
9, 77220, Note_on_c, 7, 63, 0
9, 77220, Note_on_c, 7, 63, 0
9, 77220, Note_on_c, 7, 59, 105
9, 77220, Note_on_c, 7, 59, 105
9, 77220, Note_on_c, 7, 47, 105
9, 77260, Control_c, 7, 7, 56
9, 77280, Note_on_c, 7, 47, 0
9, 77280, Note_on_c, 7, 59, 0
9, 77280, Note_on_c, 7, 59, 0
9, 77280, Note_on_c, 7, 64, 105
9, 77280, Note_on_c, 7, 64, 105
9, 77280, Note_on_c, 7, 52, 105
9, 77290, Control_c, 7, 7, 55
9, 77340, Note_on_c, 7, 52, 0
9, 77340, Note_on_c, 7, 64, 0
9, 77340, Note_on_c, 7, 64, 0
9, 77340, Note_on_c, 7, 66, 103
9, 77340, Note_on_c, 7, 66, 103
9, 77340, Note_on_c, 7, 54, 103
9, 77354, Control_c, 7, 7, 53
9, 77369, Control_c, 7, 7, 54
9, 77384, Control_c, 7, 7, 55
9, 77399, Control_c, 7, 7, 56
9, 77400, Note_on_c, 7, 54, 0
9, 77400, Note_on_c, 7, 66, 0
9, 77400, Note_on_c, 7, 66, 0
9, 77400, Note_on_c, 7, 64, 93
9, 77400, Note_on_c, 7, 64, 93
9, 77400, Note_on_c, 7, 52, 93
9, 77414, Control_c, 7, 7, 57
9, 77429, Control_c, 7, 7, 58
9, 77444, Control_c, 7, 7, 59
9, 77459, Control_c, 7, 7, 60
9, 77460, Note_on_c, 7, 52, 0
9, 77460, Note_on_c, 7, 64, 0
9, 77460, Note_on_c, 7, 64, 0
9, 77460, Note_on_c, 7, 62, 90
9, 77460, Note_on_c, 7, 62, 90
9, 77460, Note_on_c, 7, 50, 90
9, 77474, Control_c, 7, 7, 61
9, 77489, Control_c, 7, 7, 62
9, 77504, Control_c, 7, 7, 63
9, 77519, Control_c, 7, 7, 64
9, 77520, Note_on_c, 7, 50, 0
9, 77520, Note_on_c, 7, 62, 0
9, 77520, Note_on_c, 7, 62, 0
9, 77520, Note_on_c, 7, 61, 89
9, 77520, Note_on_c, 7, 61, 89
9, 77520, Note_on_c, 7, 49, 89
9, 77530, Control_c, 7, 7, 66
9, 77570, Control_c, 7, 7, 67
9, 77580, Note_on_c, 7, 49, 0
9, 77580, Note_on_c, 7, 61, 0
9, 77580, Note_on_c, 7, 61, 0
9, 77580, Note_on_c, 7, 59, 93
9, 77580, Note_on_c, 7, 59, 93
9, 77580, Note_on_c, 7, 47, 93
9, 77600, Control_c, 7, 7, 68
9, 77630, Control_c, 7, 7, 69
9, 77640, Note_on_c, 7, 47, 0
9, 77640, Note_on_c, 7, 59, 0
9, 77640, Note_on_c, 7, 59, 0
9, 77640, Note_on_c, 7, 61, 97
9, 77640, Note_on_c, 7, 61, 97
9, 77640, Control_c, 7, 7, 70
9, 77640, Note_on_c, 7, 49, 97
9, 77650, Control_c, 7, 7, 71
9, 77670, Control_c, 7, 7, 72
9, 77690, Control_c, 7, 7, 74
9, 77700, Note_on_c, 7, 49, 0
9, 77700, Note_on_c, 7, 61, 0
9, 77700, Note_on_c, 7, 61, 0
9, 77700, Note_on_c, 7, 57, 102
9, 77700, Note_on_c, 7, 57, 102
9, 77700, Note_on_c, 7, 45, 102
9, 77710, Control_c, 7, 7, 75
9, 77740, Control_c, 7, 7, 76
9, 77750, Control_c, 7, 7, 77
9, 77760, Note_on_c, 7, 45, 0
9, 77760, Note_on_c, 7, 57, 0
9, 77760, Note_on_c, 7, 57, 0
9, 77760, Note_on_c, 7, 62, 107
9, 77760, Note_on_c, 7, 62, 107
9, 77760, Note_on_c, 7, 50, 107
9, 77770, Control_c, 7, 7, 78
9, 77790, Control_c, 7, 7, 79
9, 77820, Note_on_c, 7, 50, 0
9, 77820, Note_on_c, 7, 62, 0
9, 77820, Note_on_c, 7, 62, 0
9, 77820, Note_on_c, 7, 61, 111
9, 77820, Note_on_c, 7, 61, 111
9, 77820, Note_on_c, 7, 49, 111
9, 77840, Control_c, 7, 7, 80
9, 77880, Note_on_c, 7, 49, 0
9, 77880, Note_on_c, 7, 61, 0
9, 77880, Note_on_c, 7, 61, 0
9, 77880, Note_on_c, 7, 62, 115
9, 77880, Note_on_c, 7, 62, 115
9, 77880, Note_on_c, 7, 50, 115
9, 77940, Note_on_c, 7, 50, 0
9, 77940, Note_on_c, 7, 62, 0
9, 77940, Note_on_c, 7, 62, 0
9, 77940, Note_on_c, 7, 64, 116
9, 77940, Note_on_c, 7, 64, 116
9, 77940, Note_on_c, 7, 52, 116
9, 77950, Control_c, 7, 7, 81
9, 77980, Control_c, 7, 7, 82
9, 78000, Note_on_c, 7, 52, 0
9, 78000, Note_on_c, 7, 64, 0
9, 78000, Note_on_c, 7, 64, 0
9, 78000, Note_on_c, 7, 66, 121
9, 78000, Note_on_c, 7, 66, 121
9, 78000, Note_on_c, 7, 54, 121
9, 78010, Control_c, 7, 7, 83
9, 78030, Control_c, 7, 7, 84
9, 78060, Note_on_c, 7, 54, 0
9, 78060, Note_on_c, 7, 66, 0
9, 78060, Note_on_c, 7, 66, 0
9, 78060, Note_on_c, 7, 64, 125
9, 78060, Note_on_c, 7, 64, 125
9, 78060, Note_on_c, 7, 52, 125
9, 78070, Control_c, 7, 7, 86
9, 78090, Control_c, 7, 7, 87
9, 78100, Control_c, 7, 7, 88
9, 78110, Control_c, 7, 7, 89
9, 78120, Note_on_c, 7, 52, 0
9, 78120, Note_on_c, 7, 64, 0
9, 78120, Note_on_c, 7, 64, 0
9, 78120, Note_on_c, 7, 66, 127
9, 78120, Note_on_c, 7, 66, 127
9, 78120, Note_on_c, 7, 54, 127
9, 78130, Control_c, 7, 7, 90
9, 78150, Control_c, 7, 7, 91
9, 78160, Control_c, 7, 7, 92
9, 78180, Note_on_c, 7, 54, 0
9, 78180, Note_on_c, 7, 66, 0
9, 78180, Note_on_c, 7, 66, 0
9, 78180, Note_on_c, 7, 68, 127
9, 78180, Note_on_c, 7, 68, 127
9, 78180, Note_on_c, 7, 56, 127
9, 78190, Control_c, 7, 7, 94
9, 78240, Note_on_c, 7, 56, 0
9, 78240, Note_on_c, 7, 68, 0
9, 78240, Note_on_c, 7, 68, 0
9, 78240, Note_on_c, 7, 69, 127
9, 78240, Note_on_c, 7, 81, 127
9, 78240, Note_on_c, 7, 73, 127
9, 78240, Note_on_c, 7, 76, 127
9, 78240, Control_c, 7, 7, 95
9, 78240, Note_on_c, 7, 69, 127
9, 78240, Note_on_c, 7, 57, 127
9, 78250, Control_c, 7, 7, 96
9, 78270, Control_c, 7, 7, 97
9, 78298, Note_on_c, 7, 57, 0
9, 78298, Note_on_c, 7, 76, 0
9, 78298, Note_on_c, 7, 73, 0
9, 78298, Note_on_c, 7, 69, 0
9, 78300, Note_on_c, 7, 73, 127
9, 78300, Note_on_c, 7, 76, 127
9, 78300, Note_on_c, 7, 69, 127
9, 78300, Note_on_c, 7, 57, 127
9, 78348, Note_on_c, 7, 57, 0
9, 78348, Note_on_c, 7, 76, 0
9, 78348, Note_on_c, 7, 73, 0
9, 78348, Note_on_c, 7, 69, 0
9, 78360, Note_on_c, 7, 73, 127
9, 78360, Note_on_c, 7, 76, 127
9, 78360, Note_on_c, 7, 69, 127
9, 78360, Note_on_c, 7, 57, 127
9, 78408, Note_on_c, 7, 57, 0
9, 78408, Note_on_c, 7, 76, 0
9, 78408, Note_on_c, 7, 73, 0
9, 78408, Note_on_c, 7, 69, 0
9, 78420, Note_on_c, 7, 73, 127
9, 78420, Note_on_c, 7, 76, 127
9, 78420, Note_on_c, 7, 69, 127
9, 78420, Note_on_c, 7, 57, 127
9, 78432, Note_on_c, 7, 69, 0
9, 78432, Note_on_c, 7, 81, 0
9, 78468, Note_on_c, 7, 69, 0
9, 78468, Note_on_c, 7, 76, 0
9, 78468, Note_on_c, 7, 57, 0
9, 78468, Note_on_c, 7, 73, 0
9, 78480, Note_on_c, 7, 76, 127
9, 78480, Note_on_c, 7, 79, 127
9, 78480, Note_on_c, 7, 69, 127
9, 78480, Note_on_c, 7, 57, 127
9, 78532, Note_on_c, 7, 57, 0
9, 78532, Note_on_c, 7, 76, 0
9, 78532, Note_on_c, 7, 79, 0
9, 78532, Note_on_c, 7, 69, 0
9, 78540, Note_on_c, 7, 76, 127
9, 78540, Note_on_c, 7, 79, 127
9, 78540, Note_on_c, 7, 69, 127
9, 78540, Note_on_c, 7, 57, 127
9, 78588, Note_on_c, 7, 57, 0
9, 78588, Note_on_c, 7, 76, 0
9, 78588, Note_on_c, 7, 79, 0
9, 78588, Note_on_c, 7, 69, 0
9, 78600, Note_on_c, 7, 76, 127
9, 78600, Note_on_c, 7, 85, 127
9, 78600, Note_on_c, 7, 76, 127
9, 78600, Note_on_c, 7, 79, 127
9, 78600, Note_on_c, 7, 69, 127
9, 78600, Note_on_c, 7, 57, 127
9, 78648, Note_on_c, 7, 57, 0
9, 78648, Note_on_c, 7, 79, 0
9, 78648, Note_on_c, 7, 76, 0
9, 78648, Note_on_c, 7, 69, 0
9, 78660, Note_on_c, 7, 76, 127
9, 78660, Note_on_c, 7, 79, 127
9, 78660, Note_on_c, 7, 69, 127
9, 78660, Note_on_c, 7, 57, 127
9, 78696, Note_on_c, 7, 76, 0
9, 78696, Note_on_c, 7, 85, 0
9, 78708, Note_on_c, 7, 79, 0
9, 78708, Note_on_c, 7, 76, 0
9, 78708, Note_on_c, 7, 57, 0
9, 78708, Note_on_c, 7, 69, 0
9, 78720, Note_on_c, 7, 78, 127
9, 78720, Note_on_c, 7, 86, 127
9, 78720, Note_on_c, 7, 78, 127
9, 78720, Note_on_c, 7, 74, 127
9, 78720, Note_on_c, 7, 69, 127
9, 78720, Note_on_c, 7, 57, 127
9, 78778, Note_on_c, 7, 57, 0
9, 78778, Note_on_c, 7, 74, 0
9, 78778, Note_on_c, 7, 78, 0
9, 78778, Note_on_c, 7, 69, 0
9, 78780, Note_on_c, 7, 78, 127
9, 78780, Note_on_c, 7, 74, 127
9, 78780, Note_on_c, 7, 69, 127
9, 78780, Note_on_c, 7, 57, 127
9, 78828, Note_on_c, 7, 57, 0
9, 78828, Note_on_c, 7, 74, 0
9, 78828, Note_on_c, 7, 78, 0
9, 78828, Note_on_c, 7, 69, 0
9, 78840, Note_on_c, 7, 78, 127
9, 78840, Note_on_c, 7, 74, 127
9, 78840, Note_on_c, 7, 69, 127
9, 78840, Note_on_c, 7, 57, 127
9, 78888, Note_on_c, 7, 57, 0
9, 78888, Note_on_c, 7, 74, 0
9, 78888, Note_on_c, 7, 78, 0
9, 78888, Note_on_c, 7, 69, 0
9, 78900, Note_on_c, 7, 78, 127
9, 78900, Note_on_c, 7, 74, 127
9, 78900, Note_on_c, 7, 69, 127
9, 78900, Note_on_c, 7, 57, 127
9, 78912, Note_on_c, 7, 78, 0
9, 78912, Note_on_c, 7, 86, 0
9, 78948, Note_on_c, 7, 74, 0
9, 78948, Note_on_c, 7, 78, 0
9, 78948, Note_on_c, 7, 57, 0
9, 78948, Note_on_c, 7, 69, 0
9, 78960, Note_on_c, 7, 74, 127
9, 78960, Note_on_c, 7, 78, 127
9, 78960, Note_on_c, 7, 69, 127
9, 78960, Note_on_c, 7, 57, 127
9, 79012, Note_on_c, 7, 57, 0
9, 79012, Note_on_c, 7, 74, 0
9, 79012, Note_on_c, 7, 78, 0
9, 79012, Note_on_c, 7, 69, 0
9, 79020, Note_on_c, 7, 74, 127
9, 79020, Note_on_c, 7, 78, 127
9, 79020, Note_on_c, 7, 69, 127
9, 79020, Note_on_c, 7, 57, 127
9, 79068, Note_on_c, 7, 57, 0
9, 79068, Note_on_c, 7, 74, 0
9, 79068, Note_on_c, 7, 78, 0
9, 79068, Note_on_c, 7, 69, 0
9, 79080, Note_on_c, 7, 78, 127
9, 79080, Note_on_c, 7, 74, 127
9, 79080, Note_on_c, 7, 74, 127
9, 79080, Note_on_c, 7, 78, 127
9, 79080, Note_on_c, 7, 69, 127
9, 79080, Note_on_c, 7, 57, 127
9, 79128, Note_on_c, 7, 57, 0
9, 79128, Note_on_c, 7, 78, 0
9, 79128, Note_on_c, 7, 74, 0
9, 79128, Note_on_c, 7, 69, 0
9, 79140, Note_on_c, 7, 74, 126
9, 79140, Note_on_c, 7, 78, 126
9, 79140, Note_on_c, 7, 69, 126
9, 79140, Note_on_c, 7, 57, 126
9, 79176, Note_on_c, 7, 78, 0
9, 79176, Note_on_c, 7, 74, 0
9, 79188, Note_on_c, 7, 69, 0
9, 79188, Note_on_c, 7, 74, 0
9, 79188, Note_on_c, 7, 57, 0
9, 79188, Note_on_c, 7, 78, 0
9, 79200, Note_on_c, 7, 64, 126
9, 79200, Note_on_c, 7, 73, 126
9, 79200, Note_on_c, 7, 81, 126
9, 79200, Note_on_c, 7, 76, 126
9, 79200, Note_on_c, 7, 73, 126
9, 79200, Note_on_c, 7, 69, 126
9, 79200, Note_on_c, 7, 57, 126
9, 79258, Note_on_c, 7, 57, 0
9, 79258, Note_on_c, 7, 73, 0
9, 79258, Note_on_c, 7, 76, 0
9, 79258, Note_on_c, 7, 69, 0
9, 79260, Note_on_c, 7, 76, 126
9, 79260, Note_on_c, 7, 73, 126
9, 79260, Note_on_c, 7, 69, 126
9, 79260, Note_on_c, 7, 57, 126
9, 79296, Note_on_c, 7, 73, 0
9, 79296, Note_on_c, 7, 64, 0
9, 79308, Note_on_c, 7, 69, 0
9, 79308, Note_on_c, 7, 76, 0
9, 79308, Note_on_c, 7, 73, 0
9, 79308, Note_on_c, 7, 57, 0
9, 79320, Note_on_c, 7, 76, 126
9, 79320, Note_on_c, 7, 73, 126
9, 79320, Note_on_c, 7, 69, 126
9, 79320, Note_on_c, 7, 57, 126
9, 79368, Note_on_c, 7, 57, 0
9, 79368, Note_on_c, 7, 73, 0
9, 79368, Note_on_c, 7, 69, 0
9, 79368, Note_on_c, 7, 76, 0
9, 79380, Note_on_c, 7, 76, 126
9, 79380, Note_on_c, 7, 73, 126
9, 79380, Note_on_c, 7, 69, 126
9, 79380, Note_on_c, 7, 57, 126
9, 79392, Note_on_c, 7, 81, 0
9, 79428, Note_on_c, 7, 69, 0
9, 79428, Note_on_c, 7, 76, 0
9, 79428, Note_on_c, 7, 73, 0
9, 79428, Note_on_c, 7, 57, 0
9, 79440, Note_on_c, 7, 79, 126
9, 79440, Note_on_c, 7, 76, 126
9, 79440, Note_on_c, 7, 69, 126
9, 79440, Note_on_c, 7, 57, 126
9, 79492, Note_on_c, 7, 57, 0
9, 79492, Note_on_c, 7, 79, 0
9, 79492, Note_on_c, 7, 76, 0
9, 79492, Note_on_c, 7, 69, 0
9, 79500, Note_on_c, 7, 79, 126
9, 79500, Note_on_c, 7, 76, 126
9, 79500, Note_on_c, 7, 69, 126
9, 79500, Note_on_c, 7, 57, 126
9, 79548, Note_on_c, 7, 57, 0
9, 79548, Note_on_c, 7, 79, 0
9, 79548, Note_on_c, 7, 76, 0
9, 79548, Note_on_c, 7, 69, 0
9, 79560, Note_on_c, 7, 85, 126
9, 79560, Note_on_c, 7, 76, 126
9, 79560, Note_on_c, 7, 79, 126
9, 79560, Note_on_c, 7, 76, 126
9, 79560, Note_on_c, 7, 69, 126
9, 79560, Note_on_c, 7, 57, 126
9, 79608, Note_on_c, 7, 57, 0
9, 79608, Note_on_c, 7, 76, 0
9, 79608, Note_on_c, 7, 79, 0
9, 79608, Note_on_c, 7, 69, 0
9, 79620, Note_on_c, 7, 79, 126
9, 79620, Note_on_c, 7, 76, 126
9, 79620, Note_on_c, 7, 69, 126
9, 79620, Note_on_c, 7, 57, 126
9, 79656, Note_on_c, 7, 76, 0
9, 79656, Note_on_c, 7, 85, 0
9, 79668, Note_on_c, 7, 69, 0
9, 79668, Note_on_c, 7, 76, 0
9, 79668, Note_on_c, 7, 57, 0
9, 79668, Note_on_c, 7, 79, 0
9, 79680, Note_on_c, 7, 86, 126
9, 79680, Note_on_c, 7, 78, 126
9, 79680, Note_on_c, 7, 74, 126
9, 79680, Note_on_c, 7, 78, 126
9, 79680, Note_on_c, 7, 69, 126
9, 79680, Note_on_c, 7, 57, 126
9, 79738, Note_on_c, 7, 57, 0
9, 79738, Note_on_c, 7, 78, 0
9, 79738, Note_on_c, 7, 74, 0
9, 79738, Note_on_c, 7, 69, 0
9, 79740, Note_on_c, 7, 74, 125
9, 79740, Note_on_c, 7, 78, 125
9, 79740, Note_on_c, 7, 69, 125
9, 79740, Note_on_c, 7, 57, 125
9, 79788, Note_on_c, 7, 57, 0
9, 79788, Note_on_c, 7, 78, 0
9, 79788, Note_on_c, 7, 74, 0
9, 79788, Note_on_c, 7, 69, 0
9, 79800, Note_on_c, 7, 74, 125
9, 79800, Note_on_c, 7, 78, 125
9, 79800, Note_on_c, 7, 69, 125
9, 79800, Note_on_c, 7, 57, 125
9, 79848, Note_on_c, 7, 57, 0
9, 79848, Note_on_c, 7, 78, 0
9, 79848, Note_on_c, 7, 74, 0
9, 79848, Note_on_c, 7, 69, 0
9, 79860, Note_on_c, 7, 74, 124
9, 79860, Note_on_c, 7, 78, 124
9, 79860, Note_on_c, 7, 69, 124
9, 79860, Note_on_c, 7, 57, 124
9, 79872, Note_on_c, 7, 78, 0
9, 79872, Note_on_c, 7, 86, 0
9, 79908, Note_on_c, 7, 69, 0
9, 79908, Note_on_c, 7, 78, 0
9, 79908, Note_on_c, 7, 57, 0
9, 79908, Note_on_c, 7, 74, 0
9, 79920, Note_on_c, 7, 78, 123
9, 79920, Note_on_c, 7, 74, 123
9, 79920, Note_on_c, 7, 69, 123
9, 79920, Note_on_c, 7, 57, 123
9, 79972, Note_on_c, 7, 57, 0
9, 79972, Note_on_c, 7, 78, 0
9, 79972, Note_on_c, 7, 74, 0
9, 79972, Note_on_c, 7, 69, 0
9, 79980, Note_on_c, 7, 78, 123
9, 79980, Note_on_c, 7, 74, 123
9, 79980, Note_on_c, 7, 69, 123
9, 79980, Note_on_c, 7, 57, 123
9, 80028, Note_on_c, 7, 57, 0
9, 80028, Note_on_c, 7, 78, 0
9, 80028, Note_on_c, 7, 74, 0
9, 80028, Note_on_c, 7, 69, 0
9, 80040, Note_on_c, 7, 74, 123
9, 80040, Note_on_c, 7, 78, 123
9, 80040, Note_on_c, 7, 78, 123
9, 80040, Note_on_c, 7, 74, 123
9, 80040, Note_on_c, 7, 69, 123
9, 80040, Note_on_c, 7, 57, 123
9, 80088, Note_on_c, 7, 57, 0
9, 80088, Note_on_c, 7, 74, 0
9, 80088, Note_on_c, 7, 78, 0
9, 80088, Note_on_c, 7, 69, 0
9, 80100, Note_on_c, 7, 78, 122
9, 80100, Note_on_c, 7, 74, 122
9, 80100, Note_on_c, 7, 69, 122
9, 80100, Note_on_c, 7, 57, 122
9, 80136, Note_on_c, 7, 74, 0
9, 80136, Note_on_c, 7, 78, 0
9, 80148, Note_on_c, 7, 69, 0
9, 80148, Note_on_c, 7, 78, 0
9, 80148, Note_on_c, 7, 57, 0
9, 80148, Note_on_c, 7, 74, 0
9, 80160, Note_on_c, 7, 73, 121
9, 80160, Note_on_c, 7, 73, 121
9, 80160, Note_on_c, 7, 81, 121
9, 80160, Note_on_c, 7, 76, 121
9, 80160, Note_on_c, 7, 76, 121
9, 80160, Note_on_c, 7, 76, 121
9, 80160, Note_on_c, 7, 73, 121
9, 80160, Note_on_c, 7, 69, 121
9, 80160, Note_on_c, 7, 57, 121
9, 80218, Note_on_c, 7, 57, 0
9, 80218, Note_on_c, 7, 73, 0
9, 80218, Note_on_c, 7, 69, 0
9, 80218, Note_on_c, 7, 76, 0
9, 80218, Note_on_c, 7, 73, 0
9, 80218, Note_on_c, 7, 76, 0
9, 80220, Note_on_c, 7, 76, 0
9, 80220, Note_on_c, 7, 76, 120
9, 80220, Note_on_c, 7, 73, 120
9, 80220, Note_on_c, 7, 69, 120
9, 80220, Note_on_c, 7, 57, 120
9, 80256, Note_on_c, 7, 81, 0
9, 80256, Note_on_c, 7, 73, 0
9, 80268, Note_on_c, 7, 69, 0
9, 80268, Note_on_c, 7, 73, 0
9, 80268, Note_on_c, 7, 57, 0
9, 80268, Note_on_c, 7, 76, 0
9, 80280, Note_on_c, 7, 76, 120
9, 80280, Note_on_c, 7, 85, 120
9, 80280, Note_on_c, 7, 76, 120
9, 80280, Note_on_c, 7, 73, 120
9, 80280, Note_on_c, 7, 69, 120
9, 80280, Note_on_c, 7, 57, 120
9, 80328, Note_on_c, 7, 57, 0
9, 80328, Note_on_c, 7, 73, 0
9, 80328, Note_on_c, 7, 76, 0
9, 80328, Note_on_c, 7, 69, 0
9, 80340, Note_on_c, 7, 76, 119
9, 80340, Note_on_c, 7, 73, 119
9, 80340, Note_on_c, 7, 69, 119
9, 80340, Note_on_c, 7, 57, 119
9, 80376, Note_on_c, 7, 76, 0
9, 80376, Note_on_c, 7, 85, 0
9, 80388, Note_on_c, 7, 69, 0
9, 80388, Note_on_c, 7, 73, 0
9, 80388, Note_on_c, 7, 57, 0
9, 80388, Note_on_c, 7, 76, 0
9, 80400, Note_on_c, 7, 78, 119
9, 80400, Note_on_c, 7, 86, 119
9, 80400, Note_on_c, 7, 74, 119
9, 80400, Note_on_c, 7, 78, 119
9, 80400, Note_on_c, 7, 69, 119
9, 80400, Note_on_c, 7, 57, 119
9, 80452, Note_on_c, 7, 57, 0
9, 80452, Note_on_c, 7, 78, 0
9, 80452, Note_on_c, 7, 74, 0
9, 80452, Note_on_c, 7, 69, 0
9, 80460, Note_on_c, 7, 74, 124
9, 80460, Note_on_c, 7, 78, 124
9, 80460, Note_on_c, 7, 69, 124
9, 80460, Note_on_c, 7, 57, 124
9, 80496, Note_on_c, 7, 78, 0
9, 80496, Note_on_c, 7, 86, 0
9, 80508, Note_on_c, 7, 69, 0
9, 80508, Note_on_c, 7, 78, 0
9, 80508, Note_on_c, 7, 57, 0
9, 80508, Note_on_c, 7, 74, 0
9, 80520, Note_on_c, 7, 78, 125
9, 80520, Note_on_c, 7, 86, 125
9, 80520, Note_on_c, 7, 74, 125
9, 80520, Note_on_c, 7, 78, 125
9, 80520, Note_on_c, 7, 69, 125
9, 80520, Note_on_c, 7, 57, 125
9, 80568, Note_on_c, 7, 57, 0
9, 80568, Note_on_c, 7, 78, 0
9, 80568, Note_on_c, 7, 74, 0
9, 80568, Note_on_c, 7, 69, 0
9, 80580, Note_on_c, 7, 74, 125
9, 80580, Note_on_c, 7, 78, 125
9, 80580, Note_on_c, 7, 69, 125
9, 80580, Note_on_c, 7, 57, 125
9, 80616, Note_on_c, 7, 78, 0
9, 80616, Note_on_c, 7, 78, 0
9, 80616, Note_on_c, 7, 86, 0
9, 80628, Note_on_c, 7, 74, 0
9, 80628, Note_on_c, 7, 57, 0
9, 80628, Note_on_c, 7, 69, 0
9, 80640, Note_on_c, 7, 76, 125
9, 80640, Note_on_c, 7, 85, 125
9, 80640, Note_on_c, 7, 76, 125
9, 80640, Note_on_c, 7, 81, 125
9, 80640, Note_on_c, 7, 73, 125
9, 80640, Note_on_c, 7, 69, 125
9, 80640, Note_on_c, 7, 57, 125
9, 80698, Note_on_c, 7, 57, 0
9, 80698, Note_on_c, 7, 73, 0
9, 80698, Note_on_c, 7, 76, 0
9, 80698, Note_on_c, 7, 69, 0
9, 80700, Note_on_c, 7, 73, 127
9, 80700, Note_on_c, 7, 76, 127
9, 80700, Note_on_c, 7, 69, 127
9, 80700, Note_on_c, 7, 57, 127
9, 80736, Note_on_c, 7, 73, 0
9, 80736, Note_on_c, 7, 76, 0
9, 80736, Note_on_c, 7, 85, 0
9, 80736, Note_on_c, 7, 81, 0
9, 80748, Note_on_c, 7, 57, 0
9, 80748, Note_on_c, 7, 76, 0
9, 80748, Note_on_c, 7, 69, 0
9, 80760, Note_on_c, 7, 73, 127
9, 80760, Note_on_c, 7, 76, 127
9, 80760, Note_on_c, 7, 85, 127
9, 80760, Note_on_c, 7, 69, 127
9, 80760, Note_on_c, 7, 57, 127
9, 80808, Note_on_c, 7, 57, 0
9, 80808, Note_on_c, 7, 76, 0
9, 80808, Note_on_c, 7, 73, 0
9, 80808, Note_on_c, 7, 69, 0
9, 80820, Note_on_c, 7, 73, 127
9, 80820, Note_on_c, 7, 76, 127
9, 80820, Note_on_c, 7, 69, 127
9, 80820, Note_on_c, 7, 57, 127
9, 80856, Note_on_c, 7, 76, 0
9, 80856, Note_on_c, 7, 85, 0
9, 80868, Note_on_c, 7, 73, 0
9, 80868, Note_on_c, 7, 69, 0
9, 80868, Note_on_c, 7, 57, 0
9, 80880, Note_on_c, 7, 86, 127
9, 80880, Note_on_c, 7, 78, 127
9, 80880, Note_on_c, 7, 74, 127
9, 80880, Note_on_c, 7, 69, 127
9, 80880, Note_on_c, 7, 57, 127
9, 80932, Note_on_c, 7, 57, 0
9, 80932, Note_on_c, 7, 74, 0
9, 80932, Note_on_c, 7, 69, 0
9, 80932, Note_on_c, 7, 78, 0
9, 80940, Note_on_c, 7, 74, 127
9, 80940, Note_on_c, 7, 78, 127
9, 80940, Note_on_c, 7, 69, 127
9, 80940, Note_on_c, 7, 57, 127
9, 80976, Note_on_c, 7, 78, 0
9, 80976, Note_on_c, 7, 86, 0
9, 80988, Note_on_c, 7, 74, 0
9, 80988, Note_on_c, 7, 69, 0
9, 80988, Note_on_c, 7, 57, 0
9, 81000, Note_on_c, 7, 86, 127
9, 81000, Note_on_c, 7, 78, 127
9, 81000, Note_on_c, 7, 74, 127
9, 81000, Note_on_c, 7, 69, 127
9, 81000, Note_on_c, 7, 57, 127
9, 81048, Note_on_c, 7, 57, 0
9, 81048, Note_on_c, 7, 74, 0
9, 81048, Note_on_c, 7, 69, 0
9, 81048, Note_on_c, 7, 78, 0
9, 81060, Note_on_c, 7, 74, 127
9, 81060, Note_on_c, 7, 78, 127
9, 81060, Note_on_c, 7, 69, 127
9, 81060, Note_on_c, 7, 57, 127
9, 81096, Note_on_c, 7, 78, 0
9, 81096, Note_on_c, 7, 86, 0
9, 81108, Note_on_c, 7, 74, 0
9, 81108, Note_on_c, 7, 69, 0
9, 81108, Note_on_c, 7, 57, 0
9, 81120, Note_on_c, 7, 73, 127
9, 81120, Note_on_c, 7, 76, 127
9, 81120, Note_on_c, 7, 81, 127
9, 81120, Note_on_c, 7, 73, 127
9, 81120, Note_on_c, 7, 69, 127
9, 81120, Note_on_c, 7, 57, 127
9, 81130, Control_c, 7, 7, 81
9, 81140, Control_c, 7, 7, 86
9, 81150, Control_c, 7, 7, 87
9, 81160, Control_c, 7, 7, 88
9, 81170, Control_c, 7, 7, 89
9, 81180, Control_c, 7, 7, 91
9, 81190, Control_c, 7, 7, 92
9, 81210, Control_c, 7, 7, 94
9, 81220, Control_c, 7, 7, 95
9, 81232, Note_on_c, 7, 57, 0
9, 81232, Note_on_c, 7, 76, 0
9, 81232, Note_on_c, 7, 81, 0
9, 81232, Note_on_c, 7, 73, 0
9, 81232, Note_on_c, 7, 69, 0
9, 81232, Note_on_c, 7, 73, 0
9, 81240, Note_on_c, 7, 69, 127
9, 81240, Note_on_c, 7, 69, 127
9, 81240, Control_c, 7, 7, 97
9, 81240, Note_on_c, 7, 57, 127
9, 81240, Note_on_c, 7, 57, 127
9, 81250, Control_c, 7, 7, 100
9, 81260, Control_c, 7, 7, 101
9, 81270, Control_c, 7, 7, 103
9, 81280, Control_c, 7, 7, 105
9, 81288, Note_on_c, 7, 57, 0
9, 81288, Note_on_c, 7, 69, 0
9, 81288, Note_on_c, 7, 69, 0
9, 81288, Note_on_c, 7, 57, 0
9, 81290, Control_c, 7, 7, 108
9, 81300, Note_on_c, 7, 69, 127
9, 81300, Note_on_c, 7, 69, 127
9, 81300, Control_c, 7, 7, 111
9, 81300, Note_on_c, 7, 57, 127
9, 81300, Note_on_c, 7, 57, 127
9, 81310, Control_c, 7, 7, 113
9, 81320, Control_c, 7, 7, 117
9, 81330, Control_c, 7, 7, 121
9, 81340, Control_c, 7, 7, 123
9, 81348, Note_on_c, 7, 57, 0
9, 81348, Note_on_c, 7, 69, 0
9, 81348, Note_on_c, 7, 69, 0
9, 81348, Note_on_c, 7, 57, 0
9, 81360, Note_on_c, 7, 69, 125
9, 81360, Note_on_c, 7, 69, 125
9, 81360, Control_c, 7, 7, 124
9, 81360, Note_on_c, 7, 57, 125
9, 81360, Note_on_c, 7, 57, 125
9, 81370, Control_c, 7, 7, 125
9, 81472, Note_on_c, 7, 57, 0
9, 81472, Note_on_c, 7, 69, 0
9, 81472, Note_on_c, 7, 69, 0
9, 81472, Note_on_c, 7, 57, 0
9, 81480, Note_on_c, 7, 69, 121
9, 81480, Note_on_c, 7, 69, 121
9, 81480, Note_on_c, 7, 57, 121
9, 81480, Note_on_c, 7, 57, 121
9, 81592, Note_on_c, 7, 57, 0
9, 81592, Note_on_c, 7, 69, 0
9, 81592, Note_on_c, 7, 69, 0
9, 81592, Note_on_c, 7, 57, 0
9, 81600, Note_on_c, 7, 69, 113
9, 81600, Note_on_c, 7, 69, 113
9, 81600, Note_on_c, 7, 57, 113
9, 81600, Note_on_c, 7, 57, 113
9, 81825, Note_on_c, 7, 57, 0
9, 81825, Note_on_c, 7, 69, 0
9, 81825, Note_on_c, 7, 69, 0
9, 81825, Note_on_c, 7, 57, 0
9, 82080, Note_on_c, 7, 78, 119
9, 82080, Control_c, 7, 7, 120
9, 82080, Note_on_c, 7, 74, 119
9, 82080, Control_c, 7, 7, 120
9, 82080, Control_c, 7, 7, 120
9, 82082, Control_c, 7, 7, 119
9, 82082, Control_c, 7, 7, 119
9, 82082, Control_c, 7, 7, 119
9, 82084, Control_c, 7, 7, 118
9, 82084, Control_c, 7, 7, 118
9, 82084, Control_c, 7, 7, 118
9, 82086, Control_c, 7, 7, 117
9, 82086, Control_c, 7, 7, 117
9, 82086, Control_c, 7, 7, 117
9, 82088, Control_c, 7, 7, 116
9, 82088, Control_c, 7, 7, 116
9, 82088, Control_c, 7, 7, 116
9, 82090, Control_c, 7, 7, 115
9, 82090, Control_c, 7, 7, 115
9, 82090, Control_c, 7, 7, 115
9, 82092, Control_c, 7, 7, 114
9, 82092, Control_c, 7, 7, 114
9, 82092, Control_c, 7, 7, 114
9, 82094, Control_c, 7, 7, 113
9, 82095, Control_c, 7, 7, 113
9, 82095, Control_c, 7, 7, 113
9, 82097, Control_c, 7, 7, 112
9, 82097, Control_c, 7, 7, 112
9, 82097, Control_c, 7, 7, 112
9, 82099, Control_c, 7, 7, 111
9, 82099, Control_c, 7, 7, 111
9, 82099, Control_c, 7, 7, 111
9, 82101, Control_c, 7, 7, 110
9, 82101, Control_c, 7, 7, 110
9, 82101, Control_c, 7, 7, 110
9, 82103, Control_c, 7, 7, 109
9, 82103, Control_c, 7, 7, 109
9, 82103, Control_c, 7, 7, 109
9, 82105, Control_c, 7, 7, 108
9, 82105, Control_c, 7, 7, 108
9, 82105, Control_c, 7, 7, 108
9, 82107, Control_c, 7, 7, 107
9, 82107, Control_c, 7, 7, 107
9, 82107, Control_c, 7, 7, 107
9, 82109, Control_c, 7, 7, 106
9, 82110, Control_c, 7, 7, 106
9, 82110, Control_c, 7, 7, 106
9, 82111, Control_c, 7, 7, 105
9, 82112, Control_c, 7, 7, 105
9, 82112, Control_c, 7, 7, 105
9, 82114, Control_c, 7, 7, 104
9, 82114, Control_c, 7, 7, 104
9, 82114, Control_c, 7, 7, 104
9, 82116, Control_c, 7, 7, 103
9, 82116, Control_c, 7, 7, 103
9, 82116, Control_c, 7, 7, 103
9, 82118, Control_c, 7, 7, 102
9, 82118, Control_c, 7, 7, 102
9, 82118, Control_c, 7, 7, 102
9, 82120, Control_c, 7, 7, 101
9, 82120, Control_c, 7, 7, 101
9, 82120, Control_c, 7, 7, 101
9, 82122, Control_c, 7, 7, 100
9, 82122, Control_c, 7, 7, 100
9, 82122, Control_c, 7, 7, 100
9, 82124, Control_c, 7, 7, 99
9, 82125, Control_c, 7, 7, 99
9, 82125, Control_c, 7, 7, 99
9, 82126, Control_c, 7, 7, 98
9, 82127, Control_c, 7, 7, 98
9, 82127, Control_c, 7, 7, 98
9, 82128, Control_c, 7, 7, 97
9, 82129, Control_c, 7, 7, 97
9, 82129, Control_c, 7, 7, 97
9, 82131, Control_c, 7, 7, 96
9, 82131, Control_c, 7, 7, 96
9, 82131, Control_c, 7, 7, 96
9, 82133, Control_c, 7, 7, 95
9, 82133, Control_c, 7, 7, 95
9, 82133, Control_c, 7, 7, 95
9, 82135, Control_c, 7, 7, 94
9, 82135, Control_c, 7, 7, 94
9, 82135, Control_c, 7, 7, 94
9, 82137, Control_c, 7, 7, 93
9, 82137, Control_c, 7, 7, 93
9, 82137, Control_c, 7, 7, 93
9, 82138, Note_on_c, 7, 74, 0
9, 82138, Note_on_c, 7, 78, 0
9, 82139, Control_c, 7, 7, 92
9, 82140, Note_on_c, 7, 78, 119
9, 82140, Note_on_c, 7, 74, 119
9, 82140, Control_c, 7, 7, 92
9, 82140, Control_c, 7, 7, 92
9, 82141, Control_c, 7, 7, 91
9, 82142, Control_c, 7, 7, 91
9, 82142, Control_c, 7, 7, 91
9, 82143, Control_c, 7, 7, 90
9, 82144, Control_c, 7, 7, 90
9, 82144, Control_c, 7, 7, 90
9, 82145, Control_c, 7, 7, 89
9, 82146, Control_c, 7, 7, 89
9, 82146, Control_c, 7, 7, 89
9, 82148, Control_c, 7, 7, 88
9, 82148, Control_c, 7, 7, 88
9, 82148, Control_c, 7, 7, 88
9, 82150, Control_c, 7, 7, 87
9, 82150, Control_c, 7, 7, 87
9, 82150, Control_c, 7, 7, 87
9, 82152, Control_c, 7, 7, 86
9, 82152, Control_c, 7, 7, 86
9, 82152, Control_c, 7, 7, 86
9, 82154, Control_c, 7, 7, 85
9, 82155, Control_c, 7, 7, 85
9, 82155, Control_c, 7, 7, 85
9, 82156, Control_c, 7, 7, 84
9, 82157, Control_c, 7, 7, 84
9, 82157, Control_c, 7, 7, 84
9, 82158, Control_c, 7, 7, 83
9, 82159, Control_c, 7, 7, 83
9, 82159, Control_c, 7, 7, 83
9, 82160, Control_c, 7, 7, 82
9, 82161, Control_c, 7, 7, 82
9, 82161, Control_c, 7, 7, 82
9, 82162, Control_c, 7, 7, 81
9, 82163, Control_c, 7, 7, 81
9, 82163, Control_c, 7, 7, 81
9, 82165, Control_c, 7, 7, 80
9, 82165, Control_c, 7, 7, 80
9, 82165, Control_c, 7, 7, 80
9, 82167, Control_c, 7, 7, 79
9, 82167, Control_c, 7, 7, 79
9, 82167, Control_c, 7, 7, 79
9, 82169, Control_c, 7, 7, 78
9, 82170, Control_c, 7, 7, 78
9, 82170, Control_c, 7, 7, 78
9, 82171, Control_c, 7, 7, 77
9, 82172, Control_c, 7, 7, 77
9, 82172, Control_c, 7, 7, 77
9, 82173, Control_c, 7, 7, 76
9, 82174, Control_c, 7, 7, 76
9, 82174, Control_c, 7, 7, 76
9, 82175, Control_c, 7, 7, 75
9, 82176, Control_c, 7, 7, 75
9, 82176, Control_c, 7, 7, 75
9, 82177, Control_c, 7, 7, 74
9, 82178, Control_c, 7, 7, 74
9, 82178, Control_c, 7, 7, 74
9, 82179, Control_c, 7, 7, 73
9, 82180, Control_c, 7, 7, 73
9, 82180, Control_c, 7, 7, 73
9, 82182, Control_c, 7, 7, 72
9, 82182, Control_c, 7, 7, 72
9, 82182, Control_c, 7, 7, 72
9, 82184, Control_c, 7, 7, 71
9, 82185, Control_c, 7, 7, 71
9, 82185, Control_c, 7, 7, 71
9, 82186, Control_c, 7, 7, 70
9, 82187, Control_c, 7, 7, 70
9, 82187, Control_c, 7, 7, 70
9, 82188, Note_on_c, 7, 74, 0
9, 82188, Note_on_c, 7, 78, 0
9, 82188, Control_c, 7, 7, 69
9, 82189, Control_c, 7, 7, 69
9, 82189, Control_c, 7, 7, 69
9, 82190, Control_c, 7, 7, 68
9, 82191, Control_c, 7, 7, 68
9, 82191, Control_c, 7, 7, 68
9, 82192, Control_c, 7, 7, 67
9, 82193, Control_c, 7, 7, 67
9, 82193, Control_c, 7, 7, 67
9, 82194, Control_c, 7, 7, 66
9, 82195, Control_c, 7, 7, 66
9, 82195, Control_c, 7, 7, 66
9, 82196, Control_c, 7, 7, 65
9, 82197, Control_c, 7, 7, 65
9, 82197, Control_c, 7, 7, 65
9, 82199, Control_c, 7, 7, 64
9, 82200, Note_on_c, 7, 78, 116
9, 82200, Note_on_c, 7, 74, 116
9, 82200, Control_c, 7, 7, 64
9, 82200, Control_c, 7, 7, 64
9, 82248, Note_on_c, 7, 74, 0
9, 82248, Note_on_c, 7, 78, 0
9, 82260, Note_on_c, 7, 78, 113
9, 82260, Note_on_c, 7, 74, 113
9, 82308, Note_on_c, 7, 74, 0
9, 82308, Note_on_c, 7, 78, 0
9, 82320, Note_on_c, 7, 78, 105
9, 82320, Note_on_c, 7, 74, 105
9, 82372, Note_on_c, 7, 74, 0
9, 82372, Note_on_c, 7, 78, 0
9, 82380, Note_on_c, 7, 78, 104
9, 82380, Note_on_c, 7, 74, 104
9, 82428, Note_on_c, 7, 74, 0
9, 82428, Note_on_c, 7, 78, 0
9, 82440, Note_on_c, 7, 76, 103
9, 82440, Note_on_c, 7, 73, 103
9, 82488, Note_on_c, 7, 73, 0
9, 82488, Note_on_c, 7, 76, 0
9, 82500, Note_on_c, 7, 76, 98
9, 82500, Note_on_c, 7, 73, 98
9, 82548, Note_on_c, 7, 73, 0
9, 82548, Note_on_c, 7, 76, 0
9, 82560, Note_on_c, 7, 81, 117
9, 82560, Note_on_c, 7, 78, 117
9, 82560, Control_c, 7, 7, 120
9, 82560, Note_on_c, 7, 74, 117
9, 82562, Control_c, 7, 7, 119
9, 82564, Control_c, 7, 7, 118
9, 82566, Control_c, 7, 7, 117
9, 82568, Control_c, 7, 7, 116
9, 82570, Control_c, 7, 7, 115
9, 82572, Control_c, 7, 7, 114
9, 82574, Control_c, 7, 7, 113
9, 82577, Control_c, 7, 7, 112
9, 82579, Control_c, 7, 7, 111
9, 82581, Control_c, 7, 7, 110
9, 82583, Control_c, 7, 7, 109
9, 82585, Control_c, 7, 7, 108
9, 82587, Control_c, 7, 7, 107
9, 82589, Control_c, 7, 7, 106
9, 82591, Control_c, 7, 7, 105
9, 82594, Control_c, 7, 7, 104
9, 82596, Control_c, 7, 7, 103
9, 82598, Control_c, 7, 7, 102
9, 82600, Control_c, 7, 7, 101
9, 82602, Control_c, 7, 7, 100
9, 82604, Control_c, 7, 7, 99
9, 82606, Control_c, 7, 7, 98
9, 82608, Control_c, 7, 7, 97
9, 82611, Control_c, 7, 7, 96
9, 82613, Control_c, 7, 7, 95
9, 82615, Control_c, 7, 7, 94
9, 82617, Control_c, 7, 7, 93
9, 82618, Note_on_c, 7, 74, 0
9, 82618, Note_on_c, 7, 78, 0
9, 82619, Control_c, 7, 7, 92
9, 82620, Note_on_c, 7, 78, 116
9, 82620, Note_on_c, 7, 74, 116
9, 82621, Control_c, 7, 7, 91
9, 82623, Control_c, 7, 7, 90
9, 82625, Control_c, 7, 7, 89
9, 82628, Control_c, 7, 7, 88
9, 82630, Control_c, 7, 7, 87
9, 82632, Control_c, 7, 7, 86
9, 82634, Control_c, 7, 7, 85
9, 82636, Control_c, 7, 7, 84
9, 82638, Control_c, 7, 7, 83
9, 82640, Control_c, 7, 7, 82
9, 82642, Control_c, 7, 7, 81
9, 82645, Control_c, 7, 7, 80
9, 82647, Control_c, 7, 7, 79
9, 82649, Control_c, 7, 7, 78
9, 82651, Control_c, 7, 7, 77
9, 82653, Control_c, 7, 7, 76
9, 82655, Control_c, 7, 7, 75
9, 82657, Control_c, 7, 7, 74
9, 82659, Control_c, 7, 7, 73
9, 82662, Control_c, 7, 7, 72
9, 82664, Control_c, 7, 7, 71
9, 82666, Control_c, 7, 7, 70
9, 82668, Note_on_c, 7, 74, 0
9, 82668, Note_on_c, 7, 78, 0
9, 82668, Control_c, 7, 7, 69
9, 82670, Control_c, 7, 7, 68
9, 82672, Control_c, 7, 7, 67
9, 82674, Control_c, 7, 7, 66
9, 82676, Control_c, 7, 7, 65
9, 82679, Control_c, 7, 7, 64
9, 82680, Note_on_c, 7, 78, 113
9, 82680, Note_on_c, 7, 74, 113
9, 82728, Note_on_c, 7, 74, 0
9, 82728, Note_on_c, 7, 78, 0
9, 82740, Note_on_c, 7, 78, 105
9, 82740, Note_on_c, 7, 74, 105
9, 82788, Note_on_c, 7, 74, 0
9, 82788, Note_on_c, 7, 78, 0
9, 82800, Note_on_c, 7, 78, 100
9, 82800, Note_on_c, 7, 74, 100
9, 82852, Note_on_c, 7, 74, 0
9, 82852, Note_on_c, 7, 78, 0
9, 82860, Note_on_c, 7, 78, 104
9, 82860, Note_on_c, 7, 74, 104
9, 82908, Note_on_c, 7, 74, 0
9, 82908, Note_on_c, 7, 78, 0
9, 82920, Note_on_c, 7, 76, 98
9, 82920, Note_on_c, 7, 73, 98
9, 82944, Note_on_c, 7, 81, 0
9, 82968, Note_on_c, 7, 73, 0
9, 82968, Note_on_c, 7, 76, 0
9, 82980, Note_on_c, 7, 76, 98
9, 82980, Note_on_c, 7, 73, 98
9, 83028, Note_on_c, 7, 73, 0
9, 83028, Note_on_c, 7, 76, 0
9, 83040, Note_on_c, 7, 80, 118
9, 83040, Note_on_c, 7, 74, 118
9, 83040, Control_c, 7, 7, 120
9, 83040, Note_on_c, 7, 71, 118
9, 83042, Control_c, 7, 7, 119
9, 83044, Control_c, 7, 7, 118
9, 83046, Control_c, 7, 7, 117
9, 83048, Control_c, 7, 7, 116
9, 83050, Control_c, 7, 7, 115
9, 83052, Control_c, 7, 7, 114
9, 83054, Control_c, 7, 7, 113
9, 83057, Control_c, 7, 7, 112
9, 83059, Control_c, 7, 7, 111
9, 83061, Control_c, 7, 7, 110
9, 83063, Control_c, 7, 7, 109
9, 83065, Control_c, 7, 7, 108
9, 83067, Control_c, 7, 7, 107
9, 83069, Control_c, 7, 7, 106
9, 83071, Control_c, 7, 7, 105
9, 83074, Control_c, 7, 7, 104
9, 83076, Control_c, 7, 7, 103
9, 83078, Control_c, 7, 7, 102
9, 83080, Control_c, 7, 7, 101
9, 83082, Control_c, 7, 7, 100
9, 83084, Control_c, 7, 7, 99
9, 83086, Control_c, 7, 7, 98
9, 83088, Control_c, 7, 7, 97
9, 83091, Control_c, 7, 7, 96
9, 83093, Control_c, 7, 7, 95
9, 83095, Control_c, 7, 7, 94
9, 83097, Control_c, 7, 7, 93
9, 83098, Note_on_c, 7, 71, 0
9, 83098, Note_on_c, 7, 74, 0
9, 83099, Control_c, 7, 7, 92
9, 83100, Note_on_c, 7, 74, 116
9, 83100, Note_on_c, 7, 71, 116
9, 83101, Control_c, 7, 7, 91
9, 83103, Control_c, 7, 7, 90
9, 83105, Control_c, 7, 7, 89
9, 83108, Control_c, 7, 7, 88
9, 83110, Control_c, 7, 7, 87
9, 83112, Control_c, 7, 7, 86
9, 83114, Control_c, 7, 7, 85
9, 83116, Control_c, 7, 7, 84
9, 83118, Control_c, 7, 7, 83
9, 83120, Control_c, 7, 7, 82
9, 83122, Control_c, 7, 7, 81
9, 83125, Control_c, 7, 7, 80
9, 83127, Control_c, 7, 7, 79
9, 83129, Control_c, 7, 7, 78
9, 83131, Control_c, 7, 7, 77
9, 83133, Control_c, 7, 7, 76
9, 83135, Control_c, 7, 7, 75
9, 83137, Control_c, 7, 7, 74
9, 83139, Control_c, 7, 7, 73
9, 83142, Control_c, 7, 7, 72
9, 83144, Control_c, 7, 7, 71
9, 83146, Control_c, 7, 7, 70
9, 83148, Note_on_c, 7, 71, 0
9, 83148, Note_on_c, 7, 74, 0
9, 83148, Control_c, 7, 7, 69
9, 83150, Control_c, 7, 7, 68
9, 83152, Control_c, 7, 7, 67
9, 83154, Control_c, 7, 7, 66
9, 83156, Control_c, 7, 7, 65
9, 83159, Control_c, 7, 7, 64
9, 83160, Note_on_c, 7, 74, 113
9, 83160, Note_on_c, 7, 71, 113
9, 83208, Note_on_c, 7, 71, 0
9, 83208, Note_on_c, 7, 74, 0
9, 83220, Note_on_c, 7, 74, 109
9, 83220, Note_on_c, 7, 71, 109
9, 83268, Note_on_c, 7, 71, 0
9, 83268, Note_on_c, 7, 74, 0
9, 83280, Note_on_c, 7, 74, 100
9, 83280, Note_on_c, 7, 71, 100
9, 83332, Note_on_c, 7, 71, 0
9, 83332, Note_on_c, 7, 74, 0
9, 83340, Note_on_c, 7, 74, 106
9, 83340, Note_on_c, 7, 71, 106
9, 83388, Note_on_c, 7, 71, 0
9, 83388, Note_on_c, 7, 74, 0
9, 83400, Note_on_c, 7, 80, 0
9, 83400, Note_on_c, 7, 73, 98
9, 83400, Note_on_c, 7, 81, 98
9, 83400, Note_on_c, 7, 69, 98
9, 83448, Note_on_c, 7, 69, 0
9, 83448, Note_on_c, 7, 73, 0
9, 83460, Note_on_c, 7, 73, 99
9, 83460, Note_on_c, 7, 69, 99
9, 83496, Note_on_c, 7, 81, 0
9, 83508, Note_on_c, 7, 69, 0
9, 83508, Note_on_c, 7, 73, 0
9, 83520, Note_on_c, 7, 80, 118
9, 83520, Note_on_c, 7, 74, 118
9, 83520, Control_c, 7, 7, 120
9, 83520, Note_on_c, 7, 71, 118
9, 83522, Control_c, 7, 7, 119
9, 83524, Control_c, 7, 7, 118
9, 83526, Control_c, 7, 7, 117
9, 83528, Control_c, 7, 7, 116
9, 83530, Control_c, 7, 7, 115
9, 83532, Control_c, 7, 7, 114
9, 83534, Control_c, 7, 7, 113
9, 83537, Control_c, 7, 7, 112
9, 83539, Control_c, 7, 7, 111
9, 83541, Control_c, 7, 7, 110
9, 83543, Control_c, 7, 7, 109
9, 83545, Control_c, 7, 7, 108
9, 83547, Control_c, 7, 7, 107
9, 83549, Control_c, 7, 7, 106
9, 83551, Control_c, 7, 7, 105
9, 83554, Control_c, 7, 7, 104
9, 83556, Control_c, 7, 7, 103
9, 83558, Control_c, 7, 7, 102
9, 83560, Control_c, 7, 7, 101
9, 83562, Control_c, 7, 7, 100
9, 83564, Control_c, 7, 7, 99
9, 83566, Control_c, 7, 7, 98
9, 83568, Control_c, 7, 7, 97
9, 83571, Control_c, 7, 7, 96
9, 83573, Control_c, 7, 7, 95
9, 83575, Control_c, 7, 7, 94
9, 83577, Control_c, 7, 7, 93
9, 83578, Note_on_c, 7, 71, 0
9, 83578, Note_on_c, 7, 74, 0
9, 83579, Control_c, 7, 7, 92
9, 83580, Note_on_c, 7, 74, 115
9, 83580, Note_on_c, 7, 71, 115
9, 83581, Control_c, 7, 7, 91
9, 83583, Control_c, 7, 7, 90
9, 83585, Control_c, 7, 7, 89
9, 83588, Control_c, 7, 7, 88
9, 83590, Control_c, 7, 7, 87
9, 83592, Control_c, 7, 7, 86
9, 83594, Control_c, 7, 7, 85
9, 83596, Control_c, 7, 7, 84
9, 83598, Control_c, 7, 7, 83
9, 83600, Control_c, 7, 7, 82
9, 83602, Control_c, 7, 7, 81
9, 83605, Control_c, 7, 7, 80
9, 83607, Control_c, 7, 7, 79
9, 83609, Control_c, 7, 7, 78
9, 83611, Control_c, 7, 7, 77
9, 83613, Control_c, 7, 7, 76
9, 83615, Control_c, 7, 7, 75
9, 83617, Control_c, 7, 7, 74
9, 83619, Control_c, 7, 7, 73
9, 83622, Control_c, 7, 7, 72
9, 83624, Control_c, 7, 7, 71
9, 83626, Control_c, 7, 7, 70
9, 83628, Note_on_c, 7, 71, 0
9, 83628, Note_on_c, 7, 74, 0
9, 83628, Control_c, 7, 7, 69
9, 83630, Control_c, 7, 7, 68
9, 83632, Control_c, 7, 7, 67
9, 83634, Control_c, 7, 7, 66
9, 83636, Control_c, 7, 7, 65
9, 83639, Control_c, 7, 7, 64
9, 83640, Note_on_c, 7, 74, 113
9, 83640, Note_on_c, 7, 71, 113
9, 83688, Note_on_c, 7, 71, 0
9, 83688, Note_on_c, 7, 74, 0
9, 83700, Note_on_c, 7, 74, 109
9, 83700, Note_on_c, 7, 71, 109
9, 83748, Note_on_c, 7, 71, 0
9, 83748, Note_on_c, 7, 74, 0
9, 83760, Note_on_c, 7, 74, 104
9, 83760, Note_on_c, 7, 71, 104
9, 83812, Note_on_c, 7, 71, 0
9, 83812, Note_on_c, 7, 74, 0
9, 83820, Note_on_c, 7, 74, 98
9, 83820, Note_on_c, 7, 71, 98
9, 83868, Note_on_c, 7, 71, 0
9, 83868, Note_on_c, 7, 74, 0
9, 83880, Note_on_c, 7, 80, 0
9, 83880, Note_on_c, 7, 73, 98
9, 83880, Note_on_c, 7, 81, 98
9, 83880, Note_on_c, 7, 69, 98
9, 83928, Note_on_c, 7, 69, 0
9, 83928, Note_on_c, 7, 73, 0
9, 83940, Note_on_c, 7, 73, 98
9, 83940, Note_on_c, 7, 69, 98
9, 83976, Note_on_c, 7, 81, 0
9, 83988, Note_on_c, 7, 69, 0
9, 83988, Note_on_c, 7, 73, 0
9, 84000, Note_on_c, 7, 83, 98
9, 84000, Note_on_c, 7, 71, 98
9, 84000, Control_c, 7, 7, 96
9, 84000, Control_c, 7, 7, 120
9, 84000, Note_on_c, 7, 67, 98
9, 84000, Control_c, 7, 7, 96
9, 84000, Control_c, 7, 7, 96
9, 84002, Control_c, 7, 7, 119
9, 84004, Control_c, 7, 7, 118
9, 84006, Control_c, 7, 7, 117
9, 84008, Control_c, 7, 7, 116
9, 84010, Control_c, 7, 7, 115
9, 84012, Note_on_c, 7, 83, 0
9, 84012, Control_c, 7, 7, 114
9, 84014, Control_c, 7, 7, 95
9, 84014, Control_c, 7, 7, 113
9, 84014, Control_c, 7, 7, 95
9, 84014, Control_c, 7, 7, 95
9, 84015, Note_on_c, 7, 84, 127
9, 84017, Control_c, 7, 7, 112
9, 84019, Control_c, 7, 7, 111
9, 84021, Control_c, 7, 7, 110
9, 84023, Control_c, 7, 7, 109
9, 84025, Control_c, 7, 7, 108
9, 84027, Note_on_c, 7, 84, 0
9, 84027, Control_c, 7, 7, 107
9, 84029, Control_c, 7, 7, 94
9, 84029, Control_c, 7, 7, 106
9, 84029, Control_c, 7, 7, 94
9, 84029, Control_c, 7, 7, 94
9, 84030, Note_on_c, 7, 86, 127
9, 84030, Note_on_c, 7, 86, 127
9, 84031, Control_c, 7, 7, 105
9, 84034, Control_c, 7, 7, 104
9, 84036, Control_c, 7, 7, 103
9, 84038, Control_c, 7, 7, 102
9, 84040, Control_c, 7, 7, 101
9, 84042, Control_c, 7, 7, 100
9, 84044, Control_c, 7, 7, 93
9, 84044, Control_c, 7, 7, 99
9, 84044, Control_c, 7, 7, 93
9, 84044, Control_c, 7, 7, 93
9, 84046, Control_c, 7, 7, 98
9, 84048, Control_c, 7, 7, 97
9, 84051, Control_c, 7, 7, 96
9, 84053, Control_c, 7, 7, 95
9, 84055, Control_c, 7, 7, 94
9, 84057, Control_c, 7, 7, 93
9, 84058, Note_on_c, 7, 67, 0
9, 84058, Note_on_c, 7, 71, 0
9, 84059, Control_c, 7, 7, 92
9, 84059, Control_c, 7, 7, 92
9, 84059, Control_c, 7, 7, 92
9, 84059, Control_c, 7, 7, 92
9, 84060, Note_on_c, 7, 71, 117
9, 84060, Note_on_c, 7, 67, 117
9, 84061, Control_c, 7, 7, 91
9, 84063, Control_c, 7, 7, 90
9, 84065, Control_c, 7, 7, 89
9, 84068, Control_c, 7, 7, 88
9, 84070, Control_c, 7, 7, 87
9, 84072, Control_c, 7, 7, 86
9, 84074, Control_c, 7, 7, 91
9, 84074, Control_c, 7, 7, 85
9, 84074, Control_c, 7, 7, 91
9, 84074, Control_c, 7, 7, 91
9, 84076, Control_c, 7, 7, 84
9, 84078, Control_c, 7, 7, 83
9, 84080, Control_c, 7, 7, 82
9, 84082, Control_c, 7, 7, 81
9, 84085, Control_c, 7, 7, 80
9, 84087, Control_c, 7, 7, 79
9, 84089, Control_c, 7, 7, 90
9, 84089, Control_c, 7, 7, 78
9, 84089, Control_c, 7, 7, 90
9, 84089, Control_c, 7, 7, 90
9, 84091, Control_c, 7, 7, 77
9, 84093, Control_c, 7, 7, 76
9, 84095, Control_c, 7, 7, 75
9, 84097, Control_c, 7, 7, 74
9, 84099, Control_c, 7, 7, 73
9, 84102, Note_on_c, 7, 86, 0
9, 84102, Note_on_c, 7, 86, 0
9, 84102, Control_c, 7, 7, 72
9, 84104, Control_c, 7, 7, 89
9, 84104, Control_c, 7, 7, 71
9, 84104, Control_c, 7, 7, 89
9, 84104, Control_c, 7, 7, 89
9, 84106, Control_c, 7, 7, 70
9, 84108, Note_on_c, 7, 71, 0
9, 84108, Note_on_c, 7, 67, 0
9, 84108, Control_c, 7, 7, 69
9, 84110, Control_c, 7, 7, 68
9, 84112, Control_c, 7, 7, 67
9, 84114, Control_c, 7, 7, 66
9, 84116, Control_c, 7, 7, 65
9, 84119, Control_c, 7, 7, 88
9, 84119, Control_c, 7, 7, 64
9, 84119, Control_c, 7, 7, 88
9, 84119, Control_c, 7, 7, 88
9, 84120, Note_on_c, 7, 86, 98
9, 84120, Note_on_c, 7, 71, 98
9, 84120, Note_on_c, 7, 67, 98
9, 84134, Control_c, 7, 7, 87
9, 84134, Control_c, 7, 7, 87
9, 84134, Control_c, 7, 7, 87
9, 84149, Control_c, 7, 7, 86
9, 84149, Control_c, 7, 7, 86
9, 84149, Control_c, 7, 7, 86
9, 84164, Control_c, 7, 7, 85
9, 84164, Control_c, 7, 7, 85
9, 84164, Control_c, 7, 7, 85
9, 84168, Note_on_c, 7, 67, 0
9, 84168, Note_on_c, 7, 71, 0
9, 84168, Note_on_c, 7, 86, 0
9, 84179, Control_c, 7, 7, 84
9, 84179, Control_c, 7, 7, 84
9, 84179, Control_c, 7, 7, 84
9, 84180, Note_on_c, 7, 86, 98
9, 84180, Note_on_c, 7, 71, 98
9, 84180, Note_on_c, 7, 67, 98
9, 84194, Control_c, 7, 7, 83
9, 84194, Control_c, 7, 7, 83
9, 84194, Control_c, 7, 7, 83
9, 84209, Control_c, 7, 7, 82
9, 84209, Control_c, 7, 7, 82
9, 84209, Control_c, 7, 7, 82
9, 84224, Control_c, 7, 7, 81
9, 84224, Control_c, 7, 7, 81
9, 84224, Control_c, 7, 7, 81
9, 84228, Note_on_c, 7, 67, 0
9, 84228, Note_on_c, 7, 71, 0
9, 84228, Note_on_c, 7, 86, 0
9, 84239, Control_c, 7, 7, 80
9, 84239, Control_c, 7, 7, 80
9, 84239, Control_c, 7, 7, 80
9, 84240, Note_on_c, 7, 86, 98
9, 84240, Note_on_c, 7, 71, 98
9, 84240, Note_on_c, 7, 67, 98
9, 84254, Control_c, 7, 7, 79
9, 84254, Control_c, 7, 7, 79
9, 84254, Control_c, 7, 7, 79
9, 84269, Control_c, 7, 7, 78
9, 84269, Control_c, 7, 7, 78
9, 84269, Control_c, 7, 7, 78
9, 84284, Control_c, 7, 7, 77
9, 84284, Control_c, 7, 7, 77
9, 84284, Control_c, 7, 7, 77
9, 84292, Note_on_c, 7, 67, 0
9, 84292, Note_on_c, 7, 71, 0
9, 84299, Control_c, 7, 7, 76
9, 84299, Control_c, 7, 7, 76
9, 84299, Control_c, 7, 7, 76
9, 84300, Note_on_c, 7, 71, 98
9, 84300, Note_on_c, 7, 67, 98
9, 84314, Control_c, 7, 7, 75
9, 84314, Control_c, 7, 7, 75
9, 84314, Control_c, 7, 7, 75
9, 84329, Control_c, 7, 7, 74
9, 84329, Control_c, 7, 7, 74
9, 84329, Control_c, 7, 7, 74
9, 84336, Note_on_c, 7, 86, 0
9, 84344, Control_c, 7, 7, 73
9, 84344, Control_c, 7, 7, 73
9, 84344, Control_c, 7, 7, 73
9, 84348, Note_on_c, 7, 67, 0
9, 84348, Note_on_c, 7, 71, 0
9, 84359, Control_c, 7, 7, 72
9, 84359, Control_c, 7, 7, 72
9, 84359, Control_c, 7, 7, 72
9, 84360, Note_on_c, 7, 69, 98
9, 84360, Note_on_c, 7, 66, 98
9, 84374, Control_c, 7, 7, 71
9, 84374, Control_c, 7, 7, 71
9, 84374, Control_c, 7, 7, 71
9, 84389, Control_c, 7, 7, 70
9, 84389, Control_c, 7, 7, 70
9, 84389, Control_c, 7, 7, 70
9, 84404, Control_c, 7, 7, 69
9, 84404, Control_c, 7, 7, 69
9, 84404, Control_c, 7, 7, 69
9, 84408, Note_on_c, 7, 66, 0
9, 84408, Note_on_c, 7, 69, 0
9, 84419, Control_c, 7, 7, 68
9, 84419, Control_c, 7, 7, 68
9, 84419, Control_c, 7, 7, 68
9, 84420, Note_on_c, 7, 69, 98
9, 84420, Note_on_c, 7, 66, 98
9, 84434, Control_c, 7, 7, 67
9, 84434, Control_c, 7, 7, 67
9, 84434, Control_c, 7, 7, 67
9, 84449, Control_c, 7, 7, 66
9, 84449, Control_c, 7, 7, 66
9, 84449, Control_c, 7, 7, 66
9, 84464, Control_c, 7, 7, 65
9, 84464, Control_c, 7, 7, 65
9, 84464, Control_c, 7, 7, 65
9, 84468, Note_on_c, 7, 66, 0
9, 84468, Note_on_c, 7, 69, 0
9, 84479, Control_c, 7, 7, 64
9, 84479, Control_c, 7, 7, 64
9, 84479, Control_c, 7, 7, 64
9, 84480, Note_on_c, 7, 83, 127
9, 84480, Note_on_c, 7, 71, 127
9, 84480, Control_c, 7, 7, 96
9, 84480, Control_c, 7, 7, 120
9, 84480, Note_on_c, 7, 67, 127
9, 84480, Control_c, 7, 7, 96
9, 84480, Control_c, 7, 7, 96
9, 84482, Control_c, 7, 7, 119
9, 84484, Control_c, 7, 7, 118
9, 84486, Control_c, 7, 7, 117
9, 84488, Control_c, 7, 7, 116
9, 84490, Control_c, 7, 7, 115
9, 84492, Note_on_c, 7, 83, 0
9, 84492, Control_c, 7, 7, 114
9, 84494, Control_c, 7, 7, 95
9, 84494, Control_c, 7, 7, 113
9, 84494, Control_c, 7, 7, 95
9, 84494, Control_c, 7, 7, 95
9, 84495, Note_on_c, 7, 84, 127
9, 84497, Control_c, 7, 7, 112
9, 84499, Control_c, 7, 7, 111
9, 84501, Control_c, 7, 7, 110
9, 84503, Control_c, 7, 7, 109
9, 84505, Control_c, 7, 7, 108
9, 84507, Note_on_c, 7, 84, 0
9, 84507, Control_c, 7, 7, 107
9, 84509, Control_c, 7, 7, 94
9, 84509, Control_c, 7, 7, 106
9, 84509, Control_c, 7, 7, 94
9, 84509, Control_c, 7, 7, 94
9, 84510, Note_on_c, 7, 86, 123
9, 84511, Control_c, 7, 7, 105
9, 84514, Control_c, 7, 7, 104
9, 84516, Control_c, 7, 7, 103
9, 84518, Control_c, 7, 7, 102
9, 84520, Control_c, 7, 7, 101
9, 84522, Control_c, 7, 7, 100
9, 84524, Control_c, 7, 7, 93
9, 84524, Control_c, 7, 7, 99
9, 84524, Control_c, 7, 7, 93
9, 84524, Control_c, 7, 7, 93
9, 84526, Control_c, 7, 7, 98
9, 84528, Control_c, 7, 7, 97
9, 84531, Control_c, 7, 7, 96
9, 84533, Control_c, 7, 7, 95
9, 84535, Control_c, 7, 7, 94
9, 84537, Control_c, 7, 7, 93
9, 84538, Note_on_c, 7, 67, 0
9, 84538, Note_on_c, 7, 71, 0
9, 84539, Control_c, 7, 7, 92
9, 84539, Control_c, 7, 7, 92
9, 84539, Control_c, 7, 7, 92
9, 84539, Control_c, 7, 7, 92
9, 84540, Note_on_c, 7, 71, 113
9, 84540, Note_on_c, 7, 67, 113
9, 84541, Control_c, 7, 7, 91
9, 84543, Control_c, 7, 7, 90
9, 84545, Control_c, 7, 7, 89
9, 84548, Control_c, 7, 7, 88
9, 84550, Control_c, 7, 7, 87
9, 84552, Control_c, 7, 7, 86
9, 84554, Control_c, 7, 7, 91
9, 84554, Control_c, 7, 7, 85
9, 84554, Control_c, 7, 7, 91
9, 84554, Control_c, 7, 7, 91
9, 84556, Control_c, 7, 7, 84
9, 84558, Control_c, 7, 7, 83
9, 84560, Control_c, 7, 7, 82
9, 84562, Control_c, 7, 7, 81
9, 84565, Control_c, 7, 7, 80
9, 84567, Control_c, 7, 7, 79
9, 84569, Control_c, 7, 7, 90
9, 84569, Control_c, 7, 7, 78
9, 84569, Control_c, 7, 7, 90
9, 84569, Control_c, 7, 7, 90
9, 84571, Control_c, 7, 7, 77
9, 84573, Control_c, 7, 7, 76
9, 84575, Control_c, 7, 7, 75
9, 84577, Control_c, 7, 7, 74
9, 84579, Control_c, 7, 7, 73
9, 84582, Note_on_c, 7, 86, 0
9, 84582, Control_c, 7, 7, 72
9, 84584, Control_c, 7, 7, 89
9, 84584, Control_c, 7, 7, 71
9, 84584, Control_c, 7, 7, 89
9, 84584, Control_c, 7, 7, 89
9, 84586, Control_c, 7, 7, 70
9, 84588, Note_on_c, 7, 67, 0
9, 84588, Note_on_c, 7, 71, 0
9, 84588, Control_c, 7, 7, 69
9, 84590, Control_c, 7, 7, 68
9, 84592, Control_c, 7, 7, 67
9, 84594, Control_c, 7, 7, 66
9, 84596, Control_c, 7, 7, 65
9, 84599, Control_c, 7, 7, 88
9, 84599, Control_c, 7, 7, 64
9, 84599, Control_c, 7, 7, 88
9, 84599, Control_c, 7, 7, 88
9, 84600, Note_on_c, 7, 86, 101
9, 84600, Note_on_c, 7, 71, 101
9, 84600, Note_on_c, 7, 67, 101
9, 84614, Control_c, 7, 7, 87
9, 84614, Control_c, 7, 7, 87
9, 84614, Control_c, 7, 7, 87
9, 84629, Control_c, 7, 7, 86
9, 84629, Control_c, 7, 7, 86
9, 84629, Control_c, 7, 7, 86
9, 84644, Control_c, 7, 7, 85
9, 84644, Control_c, 7, 7, 85
9, 84644, Control_c, 7, 7, 85
9, 84648, Note_on_c, 7, 67, 0
9, 84648, Note_on_c, 7, 71, 0
9, 84648, Note_on_c, 7, 86, 0
9, 84659, Control_c, 7, 7, 84
9, 84659, Control_c, 7, 7, 84
9, 84659, Control_c, 7, 7, 84
9, 84660, Note_on_c, 7, 86, 98
9, 84660, Note_on_c, 7, 71, 98
9, 84660, Note_on_c, 7, 67, 98
9, 84674, Control_c, 7, 7, 83
9, 84674, Control_c, 7, 7, 83
9, 84674, Control_c, 7, 7, 83
9, 84689, Control_c, 7, 7, 82
9, 84689, Control_c, 7, 7, 82
9, 84689, Control_c, 7, 7, 82
9, 84704, Control_c, 7, 7, 81
9, 84704, Control_c, 7, 7, 81
9, 84704, Control_c, 7, 7, 81
9, 84708, Note_on_c, 7, 67, 0
9, 84708, Note_on_c, 7, 71, 0
9, 84708, Note_on_c, 7, 86, 0
9, 84719, Control_c, 7, 7, 80
9, 84719, Control_c, 7, 7, 80
9, 84719, Control_c, 7, 7, 80
9, 84720, Note_on_c, 7, 86, 98
9, 84720, Note_on_c, 7, 71, 98
9, 84720, Note_on_c, 7, 67, 98
9, 84734, Control_c, 7, 7, 79
9, 84734, Control_c, 7, 7, 79
9, 84734, Control_c, 7, 7, 79
9, 84749, Control_c, 7, 7, 78
9, 84749, Control_c, 7, 7, 78
9, 84749, Control_c, 7, 7, 78
9, 84764, Control_c, 7, 7, 77
9, 84764, Control_c, 7, 7, 77
9, 84764, Control_c, 7, 7, 77
9, 84772, Note_on_c, 7, 67, 0
9, 84772, Note_on_c, 7, 71, 0
9, 84779, Control_c, 7, 7, 76
9, 84779, Control_c, 7, 7, 76
9, 84779, Control_c, 7, 7, 76
9, 84780, Note_on_c, 7, 71, 98
9, 84780, Note_on_c, 7, 67, 98
9, 84794, Control_c, 7, 7, 75
9, 84794, Control_c, 7, 7, 75
9, 84794, Control_c, 7, 7, 75
9, 84809, Control_c, 7, 7, 74
9, 84809, Control_c, 7, 7, 74
9, 84809, Control_c, 7, 7, 74
9, 84816, Note_on_c, 7, 86, 0
9, 84824, Control_c, 7, 7, 73
9, 84824, Control_c, 7, 7, 73
9, 84824, Control_c, 7, 7, 73
9, 84828, Note_on_c, 7, 67, 0
9, 84828, Note_on_c, 7, 71, 0
9, 84839, Control_c, 7, 7, 72
9, 84839, Control_c, 7, 7, 72
9, 84839, Control_c, 7, 7, 72
9, 84840, Note_on_c, 7, 69, 99
9, 84840, Note_on_c, 7, 66, 99
9, 84854, Control_c, 7, 7, 71
9, 84854, Control_c, 7, 7, 71
9, 84854, Control_c, 7, 7, 71
9, 84869, Control_c, 7, 7, 70
9, 84869, Control_c, 7, 7, 70
9, 84869, Control_c, 7, 7, 70
9, 84884, Control_c, 7, 7, 69
9, 84884, Control_c, 7, 7, 69
9, 84884, Control_c, 7, 7, 69
9, 84888, Note_on_c, 7, 66, 0
9, 84888, Note_on_c, 7, 69, 0
9, 84899, Control_c, 7, 7, 68
9, 84899, Control_c, 7, 7, 68
9, 84899, Control_c, 7, 7, 68
9, 84900, Note_on_c, 7, 69, 97
9, 84900, Note_on_c, 7, 66, 97
9, 84914, Control_c, 7, 7, 67
9, 84914, Control_c, 7, 7, 67
9, 84914, Control_c, 7, 7, 67
9, 84929, Control_c, 7, 7, 66
9, 84929, Control_c, 7, 7, 66
9, 84929, Control_c, 7, 7, 66
9, 84944, Control_c, 7, 7, 65
9, 84944, Control_c, 7, 7, 65
9, 84944, Control_c, 7, 7, 65
9, 84948, Note_on_c, 7, 66, 0
9, 84948, Note_on_c, 7, 69, 0
9, 84959, Control_c, 7, 7, 64
9, 84959, Control_c, 7, 7, 64
9, 84959, Control_c, 7, 7, 64
9, 84960, Note_on_c, 7, 64, 94
9, 84960, Note_on_c, 7, 67, 94
9, 84960, Note_on_c, 7, 74, 94
9, 84960, Control_c, 7, 7, 64
9, 84970, Control_c, 7, 7, 65
9, 85050, Control_c, 7, 7, 66
9, 85070, Control_c, 7, 7, 67
9, 85100, Control_c, 7, 7, 68
9, 85120, Control_c, 7, 7, 69
9, 85140, Control_c, 7, 7, 70
9, 85150, Control_c, 7, 7, 71
9, 85170, Control_c, 7, 7, 72
9, 85190, Control_c, 7, 7, 73
9, 85200, Control_c, 7, 7, 74
9, 85230, Control_c, 7, 7, 75
9, 85260, Control_c, 7, 7, 77
9, 85270, Control_c, 7, 7, 78
9, 85290, Control_c, 7, 7, 79
9, 85310, Control_c, 7, 7, 80
9, 85320, Control_c, 7, 7, 81
9, 85330, Control_c, 7, 7, 82
9, 85350, Control_c, 7, 7, 83
9, 85360, Control_c, 7, 7, 85
9, 85370, Control_c, 7, 7, 86
9, 85390, Control_c, 7, 7, 87
9, 85420, Control_c, 7, 7, 88
9, 85440, Note_on_c, 7, 74, 0
9, 85440, Note_on_c, 7, 73, 83
9, 85440, Note_on_c, 7, 57, 83
9, 85440, Control_c, 7, 7, 65
9, 85460, Control_c, 7, 7, 65
9, 85480, Control_c, 7, 7, 66
9, 85520, Control_c, 7, 7, 67
9, 85530, Control_c, 7, 7, 68
9, 85560, Control_c, 7, 7, 69
9, 85570, Control_c, 7, 7, 70
9, 85590, Control_c, 7, 7, 71
9, 85600, Control_c, 7, 7, 73
9, 85620, Control_c, 7, 7, 74
9, 85640, Control_c, 7, 7, 75
9, 85650, Control_c, 7, 7, 76
9, 85660, Control_c, 7, 7, 77
9, 85680, Control_c, 7, 7, 78
9, 85700, Control_c, 7, 7, 80
9, 85710, Control_c, 7, 7, 81
9, 85720, Control_c, 7, 7, 82
9, 85750, Control_c, 7, 7, 83
9, 85760, Control_c, 7, 7, 84
9, 85770, Control_c, 7, 7, 86
9, 85790, Control_c, 7, 7, 87
9, 85800, Control_c, 7, 7, 88
9, 85810, Control_c, 7, 7, 89
9, 85830, Control_c, 7, 7, 90
9, 85850, Control_c, 7, 7, 91
9, 85860, Control_c, 7, 7, 92
9, 85880, Control_c, 7, 7, 93
9, 85920, Note_on_c, 7, 57, 0
9, 85920, Note_on_c, 7, 64, 0
9, 85920, Note_on_c, 7, 67, 0
9, 85920, Note_on_c, 7, 73, 0
9, 85920, Note_on_c, 7, 74, 119
9, 85920, Note_on_c, 7, 78, 119
9, 85920, Control_c, 7, 7, 120
9, 85920, Note_on_c, 7, 74, 119
9, 85920, Control_c, 7, 7, 120
9, 85920, Note_on_c, 7, 50, 119
9, 85920, Control_c, 7, 7, 120
9, 85922, Control_c, 7, 7, 119
9, 85922, Control_c, 7, 7, 119
9, 85922, Control_c, 7, 7, 119
9, 85924, Control_c, 7, 7, 118
9, 85924, Control_c, 7, 7, 118
9, 85924, Control_c, 7, 7, 118
9, 85926, Control_c, 7, 7, 117
9, 85926, Control_c, 7, 7, 117
9, 85926, Control_c, 7, 7, 117
9, 85928, Control_c, 7, 7, 116
9, 85928, Control_c, 7, 7, 116
9, 85928, Control_c, 7, 7, 116
9, 85930, Control_c, 7, 7, 115
9, 85930, Control_c, 7, 7, 115
9, 85930, Control_c, 7, 7, 115
9, 85932, Control_c, 7, 7, 114
9, 85932, Control_c, 7, 7, 114
9, 85932, Control_c, 7, 7, 114
9, 85934, Control_c, 7, 7, 113
9, 85935, Control_c, 7, 7, 113
9, 85935, Control_c, 7, 7, 113
9, 85937, Control_c, 7, 7, 112
9, 85937, Control_c, 7, 7, 112
9, 85937, Control_c, 7, 7, 112
9, 85939, Control_c, 7, 7, 111
9, 85939, Control_c, 7, 7, 111
9, 85939, Control_c, 7, 7, 111
9, 85941, Control_c, 7, 7, 110
9, 85941, Control_c, 7, 7, 110
9, 85941, Control_c, 7, 7, 110
9, 85943, Control_c, 7, 7, 109
9, 85943, Control_c, 7, 7, 109
9, 85943, Control_c, 7, 7, 109
9, 85945, Control_c, 7, 7, 108
9, 85945, Control_c, 7, 7, 108
9, 85945, Control_c, 7, 7, 108
9, 85947, Control_c, 7, 7, 107
9, 85947, Control_c, 7, 7, 107
9, 85947, Control_c, 7, 7, 107
9, 85949, Control_c, 7, 7, 106
9, 85950, Control_c, 7, 7, 106
9, 85950, Control_c, 7, 7, 106
9, 85951, Control_c, 7, 7, 105
9, 85952, Control_c, 7, 7, 105
9, 85952, Control_c, 7, 7, 105
9, 85954, Control_c, 7, 7, 104
9, 85954, Control_c, 7, 7, 104
9, 85954, Control_c, 7, 7, 104
9, 85956, Control_c, 7, 7, 103
9, 85956, Control_c, 7, 7, 103
9, 85956, Control_c, 7, 7, 103
9, 85958, Control_c, 7, 7, 102
9, 85958, Control_c, 7, 7, 102
9, 85958, Control_c, 7, 7, 102
9, 85960, Control_c, 7, 7, 101
9, 85960, Control_c, 7, 7, 101
9, 85960, Control_c, 7, 7, 101
9, 85962, Control_c, 7, 7, 100
9, 85962, Control_c, 7, 7, 100
9, 85962, Control_c, 7, 7, 100
9, 85964, Control_c, 7, 7, 99
9, 85965, Control_c, 7, 7, 99
9, 85965, Control_c, 7, 7, 99
9, 85966, Control_c, 7, 7, 98
9, 85967, Control_c, 7, 7, 98
9, 85967, Control_c, 7, 7, 98
9, 85968, Control_c, 7, 7, 97
9, 85969, Control_c, 7, 7, 97
9, 85969, Control_c, 7, 7, 97
9, 85971, Control_c, 7, 7, 96
9, 85971, Control_c, 7, 7, 96
9, 85971, Control_c, 7, 7, 96
9, 85973, Control_c, 7, 7, 95
9, 85973, Control_c, 7, 7, 95
9, 85973, Control_c, 7, 7, 95
9, 85975, Control_c, 7, 7, 94
9, 85975, Control_c, 7, 7, 94
9, 85975, Control_c, 7, 7, 94
9, 85977, Control_c, 7, 7, 93
9, 85977, Control_c, 7, 7, 93
9, 85977, Control_c, 7, 7, 93
9, 85978, Note_on_c, 7, 74, 0
9, 85978, Note_on_c, 7, 78, 0
9, 85979, Control_c, 7, 7, 92
9, 85980, Note_on_c, 7, 78, 116
9, 85980, Note_on_c, 7, 74, 116
9, 85980, Control_c, 7, 7, 92
9, 85980, Control_c, 7, 7, 92
9, 85981, Control_c, 7, 7, 91
9, 85982, Control_c, 7, 7, 91
9, 85982, Control_c, 7, 7, 91
9, 85983, Control_c, 7, 7, 90
9, 85984, Control_c, 7, 7, 90
9, 85984, Control_c, 7, 7, 90
9, 85985, Control_c, 7, 7, 89
9, 85986, Control_c, 7, 7, 89
9, 85986, Control_c, 7, 7, 89
9, 85988, Control_c, 7, 7, 88
9, 85988, Control_c, 7, 7, 88
9, 85988, Control_c, 7, 7, 88
9, 85990, Control_c, 7, 7, 87
9, 85990, Control_c, 7, 7, 87
9, 85990, Control_c, 7, 7, 87
9, 85992, Control_c, 7, 7, 86
9, 85992, Control_c, 7, 7, 86
9, 85992, Control_c, 7, 7, 86
9, 85994, Control_c, 7, 7, 85
9, 85995, Control_c, 7, 7, 85
9, 85995, Control_c, 7, 7, 85
9, 85996, Control_c, 7, 7, 84
9, 85997, Control_c, 7, 7, 84
9, 85997, Control_c, 7, 7, 84
9, 85998, Control_c, 7, 7, 83
9, 85999, Control_c, 7, 7, 83
9, 85999, Control_c, 7, 7, 83
9, 86000, Control_c, 7, 7, 82
9, 86001, Control_c, 7, 7, 82
9, 86001, Control_c, 7, 7, 82
9, 86002, Control_c, 7, 7, 81
9, 86003, Control_c, 7, 7, 81
9, 86003, Control_c, 7, 7, 81
9, 86005, Control_c, 7, 7, 80
9, 86005, Control_c, 7, 7, 80
9, 86005, Control_c, 7, 7, 80
9, 86007, Control_c, 7, 7, 79
9, 86007, Control_c, 7, 7, 79
9, 86007, Control_c, 7, 7, 79
9, 86009, Control_c, 7, 7, 78
9, 86010, Control_c, 7, 7, 78
9, 86010, Control_c, 7, 7, 78
9, 86011, Control_c, 7, 7, 77
9, 86012, Control_c, 7, 7, 77
9, 86012, Control_c, 7, 7, 77
9, 86013, Control_c, 7, 7, 76
9, 86014, Control_c, 7, 7, 76
9, 86014, Control_c, 7, 7, 76
9, 86015, Control_c, 7, 7, 75
9, 86016, Note_on_c, 7, 74, 0
9, 86016, Note_on_c, 7, 50, 0
9, 86016, Control_c, 7, 7, 75
9, 86016, Control_c, 7, 7, 75
9, 86017, Control_c, 7, 7, 74
9, 86018, Control_c, 7, 7, 74
9, 86018, Control_c, 7, 7, 74
9, 86019, Control_c, 7, 7, 73
9, 86020, Control_c, 7, 7, 73
9, 86020, Control_c, 7, 7, 73
9, 86022, Control_c, 7, 7, 72
9, 86022, Control_c, 7, 7, 72
9, 86022, Control_c, 7, 7, 72
9, 86024, Control_c, 7, 7, 71
9, 86025, Control_c, 7, 7, 71
9, 86025, Control_c, 7, 7, 71
9, 86026, Control_c, 7, 7, 70
9, 86027, Control_c, 7, 7, 70
9, 86027, Control_c, 7, 7, 70
9, 86028, Note_on_c, 7, 78, 0
9, 86028, Note_on_c, 7, 74, 0
9, 86028, Control_c, 7, 7, 69
9, 86029, Control_c, 7, 7, 69
9, 86029, Control_c, 7, 7, 69
9, 86030, Control_c, 7, 7, 68
9, 86031, Control_c, 7, 7, 68
9, 86031, Control_c, 7, 7, 68
9, 86032, Control_c, 7, 7, 67
9, 86033, Control_c, 7, 7, 67
9, 86033, Control_c, 7, 7, 67
9, 86034, Control_c, 7, 7, 66
9, 86035, Control_c, 7, 7, 66
9, 86035, Control_c, 7, 7, 66
9, 86036, Control_c, 7, 7, 65
9, 86037, Control_c, 7, 7, 65
9, 86037, Control_c, 7, 7, 65
9, 86039, Control_c, 7, 7, 64
9, 86040, Note_on_c, 7, 78, 111
9, 86040, Note_on_c, 7, 74, 111
9, 86040, Control_c, 7, 7, 64
9, 86040, Control_c, 7, 7, 64
9, 86088, Note_on_c, 7, 74, 0
9, 86088, Note_on_c, 7, 78, 0
9, 86100, Note_on_c, 7, 78, 104
9, 86100, Note_on_c, 7, 74, 104
9, 86148, Note_on_c, 7, 74, 0
9, 86148, Note_on_c, 7, 78, 0
9, 86160, Note_on_c, 7, 78, 101
9, 86160, Note_on_c, 7, 74, 101
9, 86212, Note_on_c, 7, 74, 0
9, 86212, Note_on_c, 7, 78, 0
9, 86220, Note_on_c, 7, 78, 98
9, 86220, Note_on_c, 7, 74, 98
9, 86268, Note_on_c, 7, 74, 0
9, 86268, Note_on_c, 7, 78, 0
9, 86280, Note_on_c, 7, 76, 98
9, 86280, Note_on_c, 7, 73, 98
9, 86328, Note_on_c, 7, 73, 0
9, 86328, Note_on_c, 7, 76, 0
9, 86340, Note_on_c, 7, 76, 98
9, 86340, Note_on_c, 7, 73, 98
9, 86388, Note_on_c, 7, 73, 0
9, 86388, Note_on_c, 7, 76, 0
9, 86400, Note_on_c, 7, 81, 117
9, 86400, Note_on_c, 7, 78, 117
9, 86400, Control_c, 7, 7, 120
9, 86400, Note_on_c, 7, 74, 117
9, 86402, Control_c, 7, 7, 119
9, 86404, Control_c, 7, 7, 118
9, 86406, Control_c, 7, 7, 117
9, 86408, Control_c, 7, 7, 116
9, 86410, Control_c, 7, 7, 115
9, 86412, Control_c, 7, 7, 114
9, 86414, Control_c, 7, 7, 113
9, 86417, Control_c, 7, 7, 112
9, 86419, Control_c, 7, 7, 111
9, 86421, Control_c, 7, 7, 110
9, 86423, Control_c, 7, 7, 109
9, 86425, Control_c, 7, 7, 108
9, 86427, Control_c, 7, 7, 107
9, 86429, Control_c, 7, 7, 106
9, 86431, Control_c, 7, 7, 105
9, 86434, Control_c, 7, 7, 104
9, 86436, Control_c, 7, 7, 103
9, 86438, Control_c, 7, 7, 102
9, 86440, Control_c, 7, 7, 101
9, 86442, Control_c, 7, 7, 100
9, 86444, Control_c, 7, 7, 99
9, 86446, Control_c, 7, 7, 98
9, 86448, Control_c, 7, 7, 97
9, 86451, Control_c, 7, 7, 96
9, 86453, Control_c, 7, 7, 95
9, 86455, Control_c, 7, 7, 94
9, 86457, Control_c, 7, 7, 93
9, 86458, Note_on_c, 7, 74, 0
9, 86458, Note_on_c, 7, 78, 0
9, 86459, Control_c, 7, 7, 92
9, 86460, Note_on_c, 7, 78, 113
9, 86460, Note_on_c, 7, 74, 113
9, 86461, Control_c, 7, 7, 91
9, 86463, Control_c, 7, 7, 90
9, 86465, Control_c, 7, 7, 89
9, 86468, Control_c, 7, 7, 88
9, 86470, Control_c, 7, 7, 87
9, 86472, Control_c, 7, 7, 86
9, 86474, Control_c, 7, 7, 85
9, 86476, Control_c, 7, 7, 84
9, 86478, Control_c, 7, 7, 83
9, 86480, Control_c, 7, 7, 82
9, 86482, Control_c, 7, 7, 81
9, 86485, Control_c, 7, 7, 80
9, 86487, Control_c, 7, 7, 79
9, 86489, Control_c, 7, 7, 78
9, 86491, Control_c, 7, 7, 77
9, 86493, Control_c, 7, 7, 76
9, 86495, Control_c, 7, 7, 75
9, 86497, Control_c, 7, 7, 74
9, 86499, Control_c, 7, 7, 73
9, 86502, Control_c, 7, 7, 72
9, 86504, Control_c, 7, 7, 71
9, 86506, Control_c, 7, 7, 70
9, 86508, Note_on_c, 7, 74, 0
9, 86508, Note_on_c, 7, 78, 0
9, 86508, Control_c, 7, 7, 69
9, 86510, Control_c, 7, 7, 68
9, 86512, Control_c, 7, 7, 67
9, 86514, Control_c, 7, 7, 66
9, 86516, Control_c, 7, 7, 65
9, 86519, Control_c, 7, 7, 64
9, 86520, Note_on_c, 7, 78, 102
9, 86520, Note_on_c, 7, 74, 102
9, 86568, Note_on_c, 7, 74, 0
9, 86568, Note_on_c, 7, 78, 0
9, 86580, Note_on_c, 7, 78, 99
9, 86580, Note_on_c, 7, 74, 99
9, 86628, Note_on_c, 7, 74, 0
9, 86628, Note_on_c, 7, 78, 0
9, 86640, Note_on_c, 7, 78, 98
9, 86640, Note_on_c, 7, 74, 98
9, 86692, Note_on_c, 7, 74, 0
9, 86692, Note_on_c, 7, 78, 0
9, 86700, Note_on_c, 7, 78, 102
9, 86700, Note_on_c, 7, 74, 102
9, 86748, Note_on_c, 7, 74, 0
9, 86748, Note_on_c, 7, 78, 0
9, 86760, Note_on_c, 7, 76, 98
9, 86760, Note_on_c, 7, 73, 98
9, 86784, Note_on_c, 7, 81, 0
9, 86808, Note_on_c, 7, 73, 0
9, 86808, Note_on_c, 7, 76, 0
9, 86820, Note_on_c, 7, 76, 98
9, 86820, Note_on_c, 7, 73, 98
9, 86868, Note_on_c, 7, 73, 0
9, 86868, Note_on_c, 7, 76, 0
9, 86880, Note_on_c, 7, 80, 118
9, 86880, Note_on_c, 7, 74, 118
9, 86880, Control_c, 7, 7, 120
9, 86880, Note_on_c, 7, 71, 118
9, 86882, Control_c, 7, 7, 119
9, 86884, Control_c, 7, 7, 118
9, 86886, Control_c, 7, 7, 117
9, 86888, Control_c, 7, 7, 116
9, 86890, Control_c, 7, 7, 115
9, 86892, Control_c, 7, 7, 114
9, 86894, Control_c, 7, 7, 113
9, 86897, Control_c, 7, 7, 112
9, 86899, Control_c, 7, 7, 111
9, 86901, Control_c, 7, 7, 110
9, 86903, Control_c, 7, 7, 109
9, 86905, Control_c, 7, 7, 108
9, 86907, Control_c, 7, 7, 107
9, 86909, Control_c, 7, 7, 106
9, 86911, Control_c, 7, 7, 105
9, 86914, Control_c, 7, 7, 104
9, 86916, Control_c, 7, 7, 103
9, 86918, Control_c, 7, 7, 102
9, 86920, Control_c, 7, 7, 101
9, 86922, Control_c, 7, 7, 100
9, 86924, Control_c, 7, 7, 99
9, 86926, Control_c, 7, 7, 98
9, 86928, Control_c, 7, 7, 97
9, 86931, Control_c, 7, 7, 96
9, 86933, Control_c, 7, 7, 95
9, 86935, Control_c, 7, 7, 94
9, 86937, Control_c, 7, 7, 93
9, 86938, Note_on_c, 7, 71, 0
9, 86938, Note_on_c, 7, 74, 0
9, 86939, Control_c, 7, 7, 92
9, 86940, Note_on_c, 7, 74, 117
9, 86940, Note_on_c, 7, 71, 117
9, 86941, Control_c, 7, 7, 91
9, 86943, Control_c, 7, 7, 90
9, 86945, Control_c, 7, 7, 89
9, 86948, Control_c, 7, 7, 88
9, 86950, Control_c, 7, 7, 87
9, 86952, Control_c, 7, 7, 86
9, 86954, Control_c, 7, 7, 85
9, 86956, Control_c, 7, 7, 84
9, 86958, Control_c, 7, 7, 83
9, 86960, Control_c, 7, 7, 82
9, 86962, Control_c, 7, 7, 81
9, 86965, Control_c, 7, 7, 80
9, 86967, Control_c, 7, 7, 79
9, 86969, Control_c, 7, 7, 78
9, 86971, Control_c, 7, 7, 77
9, 86973, Control_c, 7, 7, 76
9, 86975, Control_c, 7, 7, 75
9, 86977, Control_c, 7, 7, 74
9, 86979, Control_c, 7, 7, 73
9, 86982, Control_c, 7, 7, 72
9, 86984, Control_c, 7, 7, 71
9, 86986, Control_c, 7, 7, 70
9, 86988, Note_on_c, 7, 71, 0
9, 86988, Note_on_c, 7, 74, 0
9, 86988, Control_c, 7, 7, 69
9, 86990, Control_c, 7, 7, 68
9, 86992, Control_c, 7, 7, 67
9, 86994, Control_c, 7, 7, 66
9, 86996, Control_c, 7, 7, 65
9, 86999, Control_c, 7, 7, 64
9, 87000, Note_on_c, 7, 74, 113
9, 87000, Note_on_c, 7, 71, 113
9, 87048, Note_on_c, 7, 71, 0
9, 87048, Note_on_c, 7, 74, 0
9, 87060, Note_on_c, 7, 74, 110
9, 87060, Note_on_c, 7, 71, 110
9, 87108, Note_on_c, 7, 71, 0
9, 87108, Note_on_c, 7, 74, 0
9, 87120, Note_on_c, 7, 74, 99
9, 87120, Note_on_c, 7, 71, 99
9, 87172, Note_on_c, 7, 71, 0
9, 87172, Note_on_c, 7, 74, 0
9, 87180, Note_on_c, 7, 74, 98
9, 87180, Note_on_c, 7, 71, 98
9, 87228, Note_on_c, 7, 71, 0
9, 87228, Note_on_c, 7, 74, 0
9, 87240, Note_on_c, 7, 80, 0
9, 87240, Note_on_c, 7, 81, 98
9, 87240, Note_on_c, 7, 73, 98
9, 87240, Note_on_c, 7, 69, 98
9, 87288, Note_on_c, 7, 69, 0
9, 87288, Note_on_c, 7, 73, 0
9, 87300, Note_on_c, 7, 73, 98
9, 87300, Note_on_c, 7, 69, 98
9, 87336, Note_on_c, 7, 81, 0
9, 87348, Note_on_c, 7, 69, 0
9, 87348, Note_on_c, 7, 73, 0
9, 87360, Note_on_c, 7, 80, 116
9, 87360, Note_on_c, 7, 74, 116
9, 87360, Control_c, 7, 7, 120
9, 87360, Note_on_c, 7, 71, 116
9, 87362, Control_c, 7, 7, 119
9, 87364, Control_c, 7, 7, 118
9, 87366, Control_c, 7, 7, 117
9, 87368, Control_c, 7, 7, 116
9, 87370, Control_c, 7, 7, 115
9, 87372, Control_c, 7, 7, 114
9, 87374, Control_c, 7, 7, 113
9, 87377, Control_c, 7, 7, 112
9, 87379, Control_c, 7, 7, 111
9, 87381, Control_c, 7, 7, 110
9, 87383, Control_c, 7, 7, 109
9, 87385, Control_c, 7, 7, 108
9, 87387, Control_c, 7, 7, 107
9, 87389, Control_c, 7, 7, 106
9, 87391, Control_c, 7, 7, 105
9, 87394, Control_c, 7, 7, 104
9, 87396, Control_c, 7, 7, 103
9, 87398, Control_c, 7, 7, 102
9, 87400, Control_c, 7, 7, 101
9, 87402, Control_c, 7, 7, 100
9, 87404, Control_c, 7, 7, 99
9, 87406, Control_c, 7, 7, 98
9, 87408, Control_c, 7, 7, 97
9, 87411, Control_c, 7, 7, 96
9, 87413, Control_c, 7, 7, 95
9, 87415, Control_c, 7, 7, 94
9, 87417, Control_c, 7, 7, 93
9, 87418, Note_on_c, 7, 71, 0
9, 87418, Note_on_c, 7, 74, 0
9, 87419, Control_c, 7, 7, 92
9, 87420, Note_on_c, 7, 74, 114
9, 87420, Note_on_c, 7, 71, 114
9, 87421, Control_c, 7, 7, 91
9, 87423, Control_c, 7, 7, 90
9, 87425, Control_c, 7, 7, 89
9, 87428, Control_c, 7, 7, 88
9, 87430, Control_c, 7, 7, 87
9, 87432, Control_c, 7, 7, 86
9, 87434, Control_c, 7, 7, 85
9, 87436, Control_c, 7, 7, 84
9, 87438, Control_c, 7, 7, 83
9, 87440, Control_c, 7, 7, 82
9, 87442, Control_c, 7, 7, 81
9, 87445, Control_c, 7, 7, 80
9, 87447, Control_c, 7, 7, 79
9, 87449, Control_c, 7, 7, 78
9, 87451, Control_c, 7, 7, 77
9, 87453, Control_c, 7, 7, 76
9, 87455, Control_c, 7, 7, 75
9, 87457, Control_c, 7, 7, 74
9, 87459, Control_c, 7, 7, 73
9, 87462, Control_c, 7, 7, 72
9, 87464, Control_c, 7, 7, 71
9, 87466, Control_c, 7, 7, 70
9, 87468, Note_on_c, 7, 71, 0
9, 87468, Note_on_c, 7, 74, 0
9, 87468, Control_c, 7, 7, 69
9, 87470, Control_c, 7, 7, 68
9, 87472, Control_c, 7, 7, 67
9, 87474, Control_c, 7, 7, 66
9, 87476, Control_c, 7, 7, 65
9, 87479, Control_c, 7, 7, 64
9, 87480, Note_on_c, 7, 74, 105
9, 87480, Note_on_c, 7, 71, 105
9, 87528, Note_on_c, 7, 71, 0
9, 87528, Note_on_c, 7, 74, 0
9, 87540, Note_on_c, 7, 74, 101
9, 87540, Note_on_c, 7, 71, 101
9, 87588, Note_on_c, 7, 71, 0
9, 87588, Note_on_c, 7, 74, 0
9, 87600, Note_on_c, 7, 74, 98
9, 87600, Note_on_c, 7, 71, 98
9, 87652, Note_on_c, 7, 71, 0
9, 87652, Note_on_c, 7, 74, 0
9, 87660, Note_on_c, 7, 74, 98
9, 87660, Note_on_c, 7, 71, 98
9, 87708, Note_on_c, 7, 71, 0
9, 87708, Note_on_c, 7, 74, 0
9, 87720, Note_on_c, 7, 80, 0
9, 87720, Note_on_c, 7, 81, 98
9, 87720, Note_on_c, 7, 73, 98
9, 87720, Note_on_c, 7, 69, 98
9, 87768, Note_on_c, 7, 69, 0
9, 87768, Note_on_c, 7, 73, 0
9, 87780, Note_on_c, 7, 73, 98
9, 87780, Note_on_c, 7, 69, 98
9, 87816, Note_on_c, 7, 81, 0
9, 87828, Note_on_c, 7, 69, 0
9, 87828, Note_on_c, 7, 73, 0
9, 87840, Note_on_c, 7, 71, 127
9, 87840, Note_on_c, 7, 83, 127
9, 87840, Control_c, 7, 7, 96
9, 87840, Control_c, 7, 7, 120
9, 87840, Note_on_c, 7, 67, 127
9, 87840, Control_c, 7, 7, 96
9, 87840, Control_c, 7, 7, 96
9, 87842, Control_c, 7, 7, 119
9, 87844, Control_c, 7, 7, 118
9, 87846, Control_c, 7, 7, 117
9, 87848, Control_c, 7, 7, 116
9, 87850, Control_c, 7, 7, 115
9, 87852, Note_on_c, 7, 83, 0
9, 87852, Control_c, 7, 7, 114
9, 87854, Control_c, 7, 7, 95
9, 87854, Control_c, 7, 7, 113
9, 87854, Control_c, 7, 7, 95
9, 87854, Control_c, 7, 7, 95
9, 87855, Note_on_c, 7, 84, 127
9, 87857, Control_c, 7, 7, 112
9, 87859, Control_c, 7, 7, 111
9, 87861, Control_c, 7, 7, 110
9, 87863, Control_c, 7, 7, 109
9, 87865, Control_c, 7, 7, 108
9, 87867, Note_on_c, 7, 84, 0
9, 87867, Control_c, 7, 7, 107
9, 87869, Control_c, 7, 7, 94
9, 87869, Control_c, 7, 7, 106
9, 87869, Control_c, 7, 7, 94
9, 87869, Control_c, 7, 7, 94
9, 87870, Note_on_c, 7, 86, 127
9, 87871, Control_c, 7, 7, 105
9, 87874, Control_c, 7, 7, 104
9, 87876, Control_c, 7, 7, 103
9, 87878, Control_c, 7, 7, 102
9, 87880, Control_c, 7, 7, 101
9, 87882, Control_c, 7, 7, 100
9, 87884, Control_c, 7, 7, 93
9, 87884, Control_c, 7, 7, 99
9, 87884, Control_c, 7, 7, 93
9, 87884, Control_c, 7, 7, 93
9, 87886, Control_c, 7, 7, 98
9, 87888, Control_c, 7, 7, 97
9, 87891, Control_c, 7, 7, 96
9, 87893, Control_c, 7, 7, 95
9, 87895, Control_c, 7, 7, 94
9, 87897, Control_c, 7, 7, 93
9, 87898, Note_on_c, 7, 67, 0
9, 87898, Note_on_c, 7, 71, 0
9, 87899, Control_c, 7, 7, 92
9, 87899, Control_c, 7, 7, 92
9, 87899, Control_c, 7, 7, 92
9, 87899, Control_c, 7, 7, 92
9, 87900, Note_on_c, 7, 71, 111
9, 87900, Note_on_c, 7, 67, 111
9, 87901, Control_c, 7, 7, 91
9, 87903, Control_c, 7, 7, 90
9, 87905, Control_c, 7, 7, 89
9, 87908, Control_c, 7, 7, 88
9, 87910, Control_c, 7, 7, 87
9, 87912, Control_c, 7, 7, 86
9, 87914, Control_c, 7, 7, 91
9, 87914, Control_c, 7, 7, 85
9, 87914, Control_c, 7, 7, 91
9, 87914, Control_c, 7, 7, 91
9, 87916, Control_c, 7, 7, 84
9, 87918, Control_c, 7, 7, 83
9, 87920, Control_c, 7, 7, 82
9, 87922, Control_c, 7, 7, 81
9, 87925, Control_c, 7, 7, 80
9, 87927, Control_c, 7, 7, 79
9, 87929, Control_c, 7, 7, 90
9, 87929, Control_c, 7, 7, 78
9, 87929, Control_c, 7, 7, 90
9, 87929, Control_c, 7, 7, 90
9, 87931, Control_c, 7, 7, 77
9, 87933, Control_c, 7, 7, 76
9, 87935, Control_c, 7, 7, 75
9, 87937, Control_c, 7, 7, 74
9, 87939, Control_c, 7, 7, 73
9, 87942, Note_on_c, 7, 86, 0
9, 87942, Control_c, 7, 7, 72
9, 87944, Control_c, 7, 7, 89
9, 87944, Control_c, 7, 7, 71
9, 87944, Control_c, 7, 7, 89
9, 87944, Control_c, 7, 7, 89
9, 87946, Control_c, 7, 7, 70
9, 87948, Note_on_c, 7, 67, 0
9, 87948, Note_on_c, 7, 71, 0
9, 87948, Control_c, 7, 7, 69
9, 87950, Control_c, 7, 7, 68
9, 87952, Control_c, 7, 7, 67
9, 87954, Control_c, 7, 7, 66
9, 87956, Control_c, 7, 7, 65
9, 87959, Control_c, 7, 7, 88
9, 87959, Control_c, 7, 7, 64
9, 87959, Control_c, 7, 7, 88
9, 87959, Control_c, 7, 7, 88
9, 87960, Note_on_c, 7, 71, 98
9, 87960, Note_on_c, 7, 86, 98
9, 87960, Note_on_c, 7, 67, 98
9, 87974, Control_c, 7, 7, 87
9, 87974, Control_c, 7, 7, 87
9, 87974, Control_c, 7, 7, 87
9, 87989, Control_c, 7, 7, 86
9, 87989, Control_c, 7, 7, 86
9, 87989, Control_c, 7, 7, 86
9, 88004, Control_c, 7, 7, 85
9, 88004, Control_c, 7, 7, 85
9, 88004, Control_c, 7, 7, 85
9, 88008, Note_on_c, 7, 67, 0
9, 88008, Note_on_c, 7, 86, 0
9, 88008, Note_on_c, 7, 71, 0
9, 88019, Control_c, 7, 7, 84
9, 88019, Control_c, 7, 7, 84
9, 88019, Control_c, 7, 7, 84
9, 88020, Note_on_c, 7, 71, 98
9, 88020, Note_on_c, 7, 86, 98
9, 88020, Note_on_c, 7, 67, 98
9, 88034, Control_c, 7, 7, 83
9, 88034, Control_c, 7, 7, 83
9, 88034, Control_c, 7, 7, 83
9, 88049, Control_c, 7, 7, 82
9, 88049, Control_c, 7, 7, 82
9, 88049, Control_c, 7, 7, 82
9, 88064, Control_c, 7, 7, 81
9, 88064, Control_c, 7, 7, 81
9, 88064, Control_c, 7, 7, 81
9, 88068, Note_on_c, 7, 67, 0
9, 88068, Note_on_c, 7, 86, 0
9, 88068, Note_on_c, 7, 71, 0
9, 88079, Control_c, 7, 7, 80
9, 88079, Control_c, 7, 7, 80
9, 88079, Control_c, 7, 7, 80
9, 88080, Note_on_c, 7, 71, 98
9, 88080, Note_on_c, 7, 86, 98
9, 88080, Note_on_c, 7, 67, 98
9, 88094, Control_c, 7, 7, 79
9, 88094, Control_c, 7, 7, 79
9, 88094, Control_c, 7, 7, 79
9, 88109, Control_c, 7, 7, 78
9, 88109, Control_c, 7, 7, 78
9, 88109, Control_c, 7, 7, 78
9, 88124, Control_c, 7, 7, 77
9, 88124, Control_c, 7, 7, 77
9, 88124, Control_c, 7, 7, 77
9, 88132, Note_on_c, 7, 67, 0
9, 88132, Note_on_c, 7, 71, 0
9, 88139, Control_c, 7, 7, 76
9, 88139, Control_c, 7, 7, 76
9, 88139, Control_c, 7, 7, 76
9, 88140, Note_on_c, 7, 71, 98
9, 88140, Note_on_c, 7, 67, 98
9, 88154, Control_c, 7, 7, 75
9, 88154, Control_c, 7, 7, 75
9, 88154, Control_c, 7, 7, 75
9, 88169, Control_c, 7, 7, 74
9, 88169, Control_c, 7, 7, 74
9, 88169, Control_c, 7, 7, 74
9, 88176, Note_on_c, 7, 86, 0
9, 88184, Control_c, 7, 7, 73
9, 88184, Control_c, 7, 7, 73
9, 88184, Control_c, 7, 7, 73
9, 88188, Note_on_c, 7, 67, 0
9, 88188, Note_on_c, 7, 71, 0
9, 88199, Control_c, 7, 7, 72
9, 88199, Control_c, 7, 7, 72
9, 88199, Control_c, 7, 7, 72
9, 88200, Note_on_c, 7, 69, 98
9, 88200, Note_on_c, 7, 66, 98
9, 88214, Control_c, 7, 7, 71
9, 88214, Control_c, 7, 7, 71
9, 88214, Control_c, 7, 7, 71
9, 88229, Control_c, 7, 7, 70
9, 88229, Control_c, 7, 7, 70
9, 88229, Control_c, 7, 7, 70
9, 88244, Control_c, 7, 7, 69
9, 88244, Control_c, 7, 7, 69
9, 88244, Control_c, 7, 7, 69
9, 88248, Note_on_c, 7, 66, 0
9, 88248, Note_on_c, 7, 69, 0
9, 88259, Control_c, 7, 7, 68
9, 88259, Control_c, 7, 7, 68
9, 88259, Control_c, 7, 7, 68
9, 88260, Note_on_c, 7, 69, 98
9, 88260, Note_on_c, 7, 66, 98
9, 88274, Control_c, 7, 7, 67
9, 88274, Control_c, 7, 7, 67
9, 88274, Control_c, 7, 7, 67
9, 88289, Control_c, 7, 7, 66
9, 88289, Control_c, 7, 7, 66
9, 88289, Control_c, 7, 7, 66
9, 88304, Control_c, 7, 7, 65
9, 88304, Control_c, 7, 7, 65
9, 88304, Control_c, 7, 7, 65
9, 88308, Note_on_c, 7, 66, 0
9, 88308, Note_on_c, 7, 69, 0
9, 88319, Control_c, 7, 7, 64
9, 88319, Control_c, 7, 7, 64
9, 88319, Control_c, 7, 7, 64
9, 88320, Note_on_c, 7, 71, 127
9, 88320, Note_on_c, 7, 83, 127
9, 88320, Control_c, 7, 7, 96
9, 88320, Control_c, 7, 7, 120
9, 88320, Note_on_c, 7, 67, 127
9, 88320, Control_c, 7, 7, 96
9, 88320, Control_c, 7, 7, 96
9, 88322, Control_c, 7, 7, 119
9, 88324, Control_c, 7, 7, 118
9, 88326, Control_c, 7, 7, 117
9, 88328, Control_c, 7, 7, 116
9, 88330, Control_c, 7, 7, 115
9, 88332, Note_on_c, 7, 83, 0
9, 88332, Control_c, 7, 7, 114
9, 88334, Control_c, 7, 7, 95
9, 88334, Control_c, 7, 7, 113
9, 88334, Control_c, 7, 7, 95
9, 88334, Control_c, 7, 7, 95
9, 88335, Note_on_c, 7, 84, 127
9, 88337, Control_c, 7, 7, 112
9, 88339, Control_c, 7, 7, 111
9, 88341, Control_c, 7, 7, 110
9, 88343, Control_c, 7, 7, 109
9, 88345, Control_c, 7, 7, 108
9, 88347, Note_on_c, 7, 84, 0
9, 88347, Control_c, 7, 7, 107
9, 88349, Control_c, 7, 7, 94
9, 88349, Control_c, 7, 7, 106
9, 88349, Control_c, 7, 7, 94
9, 88349, Control_c, 7, 7, 94
9, 88350, Note_on_c, 7, 86, 127
9, 88351, Control_c, 7, 7, 105
9, 88354, Control_c, 7, 7, 104
9, 88356, Control_c, 7, 7, 103
9, 88358, Control_c, 7, 7, 102
9, 88360, Control_c, 7, 7, 101
9, 88362, Control_c, 7, 7, 100
9, 88364, Control_c, 7, 7, 93
9, 88364, Control_c, 7, 7, 99
9, 88364, Control_c, 7, 7, 93
9, 88364, Control_c, 7, 7, 93
9, 88366, Control_c, 7, 7, 98
9, 88368, Control_c, 7, 7, 97
9, 88371, Control_c, 7, 7, 96
9, 88373, Control_c, 7, 7, 95
9, 88375, Control_c, 7, 7, 94
9, 88377, Control_c, 7, 7, 93
9, 88378, Note_on_c, 7, 67, 0
9, 88378, Note_on_c, 7, 71, 0
9, 88379, Control_c, 7, 7, 92
9, 88379, Control_c, 7, 7, 92
9, 88379, Control_c, 7, 7, 92
9, 88379, Control_c, 7, 7, 92
9, 88380, Note_on_c, 7, 71, 116
9, 88380, Note_on_c, 7, 67, 116
9, 88381, Control_c, 7, 7, 91
9, 88383, Control_c, 7, 7, 90
9, 88385, Control_c, 7, 7, 89
9, 88388, Control_c, 7, 7, 88
9, 88390, Control_c, 7, 7, 87
9, 88392, Control_c, 7, 7, 86
9, 88394, Control_c, 7, 7, 91
9, 88394, Control_c, 7, 7, 85
9, 88394, Control_c, 7, 7, 91
9, 88394, Control_c, 7, 7, 91
9, 88396, Control_c, 7, 7, 84
9, 88398, Control_c, 7, 7, 83
9, 88400, Control_c, 7, 7, 82
9, 88402, Control_c, 7, 7, 81
9, 88405, Control_c, 7, 7, 80
9, 88407, Control_c, 7, 7, 79
9, 88409, Control_c, 7, 7, 90
9, 88409, Control_c, 7, 7, 78
9, 88409, Control_c, 7, 7, 90
9, 88409, Control_c, 7, 7, 90
9, 88411, Control_c, 7, 7, 77
9, 88413, Control_c, 7, 7, 76
9, 88415, Control_c, 7, 7, 75
9, 88417, Control_c, 7, 7, 74
9, 88419, Control_c, 7, 7, 73
9, 88422, Note_on_c, 7, 86, 0
9, 88422, Control_c, 7, 7, 72
9, 88424, Control_c, 7, 7, 89
9, 88424, Control_c, 7, 7, 71
9, 88424, Control_c, 7, 7, 89
9, 88424, Control_c, 7, 7, 89
9, 88426, Control_c, 7, 7, 70
9, 88428, Note_on_c, 7, 67, 0
9, 88428, Note_on_c, 7, 71, 0
9, 88428, Control_c, 7, 7, 69
9, 88430, Control_c, 7, 7, 68
9, 88432, Control_c, 7, 7, 67
9, 88434, Control_c, 7, 7, 66
9, 88436, Control_c, 7, 7, 65
9, 88439, Control_c, 7, 7, 88
9, 88439, Control_c, 7, 7, 64
9, 88439, Control_c, 7, 7, 88
9, 88439, Control_c, 7, 7, 88
9, 88440, Note_on_c, 7, 71, 102
9, 88440, Note_on_c, 7, 86, 102
9, 88440, Note_on_c, 7, 67, 102
9, 88454, Control_c, 7, 7, 87
9, 88454, Control_c, 7, 7, 87
9, 88454, Control_c, 7, 7, 87
9, 88469, Control_c, 7, 7, 86
9, 88469, Control_c, 7, 7, 86
9, 88469, Control_c, 7, 7, 86
9, 88484, Control_c, 7, 7, 85
9, 88484, Control_c, 7, 7, 85
9, 88484, Control_c, 7, 7, 85
9, 88488, Note_on_c, 7, 67, 0
9, 88488, Note_on_c, 7, 86, 0
9, 88488, Note_on_c, 7, 71, 0
9, 88499, Control_c, 7, 7, 84
9, 88499, Control_c, 7, 7, 84
9, 88499, Control_c, 7, 7, 84
9, 88500, Note_on_c, 7, 71, 102
9, 88500, Note_on_c, 7, 86, 102
9, 88500, Note_on_c, 7, 67, 102
9, 88514, Control_c, 7, 7, 83
9, 88514, Control_c, 7, 7, 83
9, 88514, Control_c, 7, 7, 83
9, 88529, Control_c, 7, 7, 82
9, 88529, Control_c, 7, 7, 82
9, 88529, Control_c, 7, 7, 82
9, 88544, Control_c, 7, 7, 81
9, 88544, Control_c, 7, 7, 81
9, 88544, Control_c, 7, 7, 81
9, 88548, Note_on_c, 7, 67, 0
9, 88548, Note_on_c, 7, 86, 0
9, 88548, Note_on_c, 7, 71, 0
9, 88559, Control_c, 7, 7, 80
9, 88559, Control_c, 7, 7, 80
9, 88559, Control_c, 7, 7, 80
9, 88560, Note_on_c, 7, 71, 102
9, 88560, Note_on_c, 7, 86, 102
9, 88560, Note_on_c, 7, 67, 102
9, 88574, Control_c, 7, 7, 79
9, 88574, Control_c, 7, 7, 79
9, 88574, Control_c, 7, 7, 79
9, 88589, Control_c, 7, 7, 78
9, 88589, Control_c, 7, 7, 78
9, 88589, Control_c, 7, 7, 78
9, 88604, Control_c, 7, 7, 77
9, 88604, Control_c, 7, 7, 77
9, 88604, Control_c, 7, 7, 77
9, 88612, Note_on_c, 7, 67, 0
9, 88612, Note_on_c, 7, 71, 0
9, 88619, Control_c, 7, 7, 76
9, 88619, Control_c, 7, 7, 76
9, 88619, Control_c, 7, 7, 76
9, 88620, Note_on_c, 7, 71, 98
9, 88620, Note_on_c, 7, 67, 98
9, 88634, Control_c, 7, 7, 75
9, 88634, Control_c, 7, 7, 75
9, 88634, Control_c, 7, 7, 75
9, 88649, Control_c, 7, 7, 74
9, 88649, Control_c, 7, 7, 74
9, 88649, Control_c, 7, 7, 74
9, 88656, Note_on_c, 7, 86, 0
9, 88664, Control_c, 7, 7, 73
9, 88664, Control_c, 7, 7, 73
9, 88664, Control_c, 7, 7, 73
9, 88668, Note_on_c, 7, 67, 0
9, 88668, Note_on_c, 7, 71, 0
9, 88679, Control_c, 7, 7, 72
9, 88679, Control_c, 7, 7, 72
9, 88679, Control_c, 7, 7, 72
9, 88680, Note_on_c, 7, 69, 98
9, 88680, Note_on_c, 7, 66, 98
9, 88694, Control_c, 7, 7, 71
9, 88694, Control_c, 7, 7, 71
9, 88694, Control_c, 7, 7, 71
9, 88709, Control_c, 7, 7, 70
9, 88709, Control_c, 7, 7, 70
9, 88709, Control_c, 7, 7, 70
9, 88724, Control_c, 7, 7, 69
9, 88724, Control_c, 7, 7, 69
9, 88724, Control_c, 7, 7, 69
9, 88728, Note_on_c, 7, 66, 0
9, 88728, Note_on_c, 7, 69, 0
9, 88739, Control_c, 7, 7, 68
9, 88739, Control_c, 7, 7, 68
9, 88739, Control_c, 7, 7, 68
9, 88740, Note_on_c, 7, 69, 98
9, 88740, Note_on_c, 7, 66, 98
9, 88750, Control_c, 7, 7, 64
9, 88788, Note_on_c, 7, 66, 0
9, 88788, Note_on_c, 7, 69, 0
9, 88800, Note_on_c, 7, 74, 90
9, 88800, Note_on_c, 7, 64, 90
9, 88800, Note_on_c, 7, 67, 90
9, 88800, Control_c, 7, 7, 65
9, 88810, Control_c, 7, 7, 66
9, 88840, Control_c, 7, 7, 67
9, 88860, Control_c, 7, 7, 68
9, 88870, Control_c, 7, 7, 69
9, 88880, Control_c, 7, 7, 70
9, 88900, Control_c, 7, 7, 71
9, 88930, Control_c, 7, 7, 72
9, 88940, Control_c, 7, 7, 73
9, 88960, Control_c, 7, 7, 74
9, 88980, Control_c, 7, 7, 75
9, 89010, Control_c, 7, 7, 77
9, 89040, Control_c, 7, 7, 78
9, 89100, Control_c, 7, 7, 80
9, 89110, Control_c, 7, 7, 82
9, 89140, Control_c, 7, 7, 83
9, 89150, Control_c, 7, 7, 84
9, 89210, Control_c, 7, 7, 86
9, 89220, Control_c, 7, 7, 87
9, 89230, Control_c, 7, 7, 87
9, 89240, Control_c, 7, 7, 88
9, 89280, Note_on_c, 7, 74, 0
9, 89280, Note_on_c, 7, 73, 81
9, 89280, Note_on_c, 7, 57, 81
9, 89280, Control_c, 7, 7, 65
9, 89310, Control_c, 7, 7, 68
9, 89380, Control_c, 7, 7, 70
9, 89390, Control_c, 7, 7, 71
9, 89440, Control_c, 7, 7, 72
9, 89460, Control_c, 7, 7, 73
9, 89480, Control_c, 7, 7, 74
9, 89510, Control_c, 7, 7, 75
9, 89580, Control_c, 7, 7, 76
9, 89590, Control_c, 7, 7, 77
9, 89610, Control_c, 7, 7, 78
9, 89620, Control_c, 7, 7, 79
9, 89660, Control_c, 7, 7, 81
9, 89670, Control_c, 7, 7, 82
9, 89690, Control_c, 7, 7, 83
9, 89710, Control_c, 7, 7, 85
9, 89740, Control_c, 7, 7, 86
9, 89750, Control_c, 7, 7, 87
9, 89760, Note_on_c, 7, 57, 0
9, 89760, Note_on_c, 7, 64, 0
9, 89760, Note_on_c, 7, 67, 0
9, 89760, Note_on_c, 7, 73, 0
9, 89760, Note_on_c, 7, 74, 98
9, 89760, Note_on_c, 7, 66, 98
9, 89760, Note_on_c, 7, 62, 98
9, 89760, Note_on_c, 7, 50, 98
9, 89818, Note_on_c, 7, 62, 0
9, 89818, Note_on_c, 7, 66, 0
9, 89820, Note_on_c, 7, 66, 98
9, 89820, Note_on_c, 7, 62, 98
9, 89856, Note_on_c, 7, 74, 0
9, 89856, Note_on_c, 7, 50, 0
9, 89868, Note_on_c, 7, 66, 0
9, 89868, Note_on_c, 7, 62, 0
9, 89880, Note_on_c, 7, 66, 98
9, 89880, Note_on_c, 7, 62, 98
9, 89928, Note_on_c, 7, 62, 0
9, 89928, Note_on_c, 7, 66, 0
9, 89940, Note_on_c, 7, 66, 98
9, 89940, Note_on_c, 7, 62, 98
9, 89988, Note_on_c, 7, 62, 0
9, 89988, Note_on_c, 7, 66, 0
9, 90000, Note_on_c, 7, 62, 127
9, 90000, Note_on_c, 7, 66, 127
9, 90000, Control_c, 7, 7, 117
9, 90000, Note_on_c, 7, 62, 127
9, 90000, Note_on_c, 7, 62, 127
9, 90010, Note_on_c, 7, 83, 127
9, 90010, Note_on_c, 7, 74, 127
9, 90052, Note_on_c, 7, 62, 0
9, 90052, Note_on_c, 7, 66, 0
9, 90060, Note_on_c, 7, 66, 98
9, 90060, Note_on_c, 7, 62, 98
9, 90096, Note_on_c, 7, 62, 0
9, 90096, Note_on_c, 7, 62, 0
9, 90106, Note_on_c, 7, 83, 0
9, 90106, Note_on_c, 7, 74, 0
9, 90108, Note_on_c, 7, 62, 0
9, 90108, Note_on_c, 7, 66, 0
9, 90120, Note_on_c, 7, 66, 98
9, 90120, Note_on_c, 7, 62, 98
9, 90168, Note_on_c, 7, 62, 0
9, 90168, Note_on_c, 7, 66, 0
9, 90180, Note_on_c, 7, 66, 98
9, 90180, Note_on_c, 7, 62, 98
9, 90228, Note_on_c, 7, 62, 0
9, 90228, Note_on_c, 7, 66, 0
9, 90240, Note_on_c, 7, 65, 98
9, 90240, Control_c, 7, 7, 63
9, 90240, Note_on_c, 7, 62, 98
9, 90298, Note_on_c, 7, 62, 0
9, 90298, Note_on_c, 7, 65, 0
9, 90300, Note_on_c, 7, 65, 98
9, 90300, Note_on_c, 7, 62, 98
9, 90348, Note_on_c, 7, 62, 0
9, 90348, Note_on_c, 7, 65, 0
9, 90360, Note_on_c, 7, 83, 127
9, 90360, Note_on_c, 7, 65, 98
9, 90360, Note_on_c, 7, 62, 98
9, 90408, Note_on_c, 7, 62, 0
9, 90408, Note_on_c, 7, 65, 0
9, 90420, Note_on_c, 7, 65, 98
9, 90420, Note_on_c, 7, 62, 98
9, 90456, Note_on_c, 7, 83, 0
9, 90468, Note_on_c, 7, 62, 0
9, 90468, Note_on_c, 7, 65, 0
9, 90480, Note_on_c, 7, 86, 127
9, 90480, Note_on_c, 7, 65, 98
9, 90480, Note_on_c, 7, 62, 98
9, 90532, Note_on_c, 7, 62, 0
9, 90532, Note_on_c, 7, 65, 0
9, 90540, Note_on_c, 7, 65, 98
9, 90540, Note_on_c, 7, 62, 98
9, 90576, Note_on_c, 7, 86, 0
9, 90588, Note_on_c, 7, 62, 0
9, 90588, Note_on_c, 7, 65, 0
9, 90600, Note_on_c, 7, 83, 127
9, 90600, Note_on_c, 7, 65, 98
9, 90600, Note_on_c, 7, 62, 98
9, 90648, Note_on_c, 7, 62, 0
9, 90648, Note_on_c, 7, 65, 0
9, 90660, Note_on_c, 7, 65, 98
9, 90660, Note_on_c, 7, 62, 98
9, 90696, Note_on_c, 7, 83, 0
9, 90708, Note_on_c, 7, 62, 0
9, 90708, Note_on_c, 7, 65, 0
9, 90720, Note_on_c, 7, 80, 127
9, 90720, Note_on_c, 7, 64, 98
9, 90720, Note_on_c, 7, 62, 98
9, 90778, Note_on_c, 7, 62, 0
9, 90778, Note_on_c, 7, 64, 0
9, 90780, Note_on_c, 7, 64, 98
9, 90780, Note_on_c, 7, 62, 98
9, 90816, Note_on_c, 7, 80, 0
9, 90828, Note_on_c, 7, 62, 0
9, 90828, Note_on_c, 7, 64, 0
9, 90840, Note_on_c, 7, 76, 122
9, 90840, Note_on_c, 7, 64, 98
9, 90840, Note_on_c, 7, 62, 98
9, 90888, Note_on_c, 7, 62, 0
9, 90888, Note_on_c, 7, 64, 0
9, 90900, Note_on_c, 7, 64, 98
9, 90900, Note_on_c, 7, 62, 98
9, 90936, Note_on_c, 7, 76, 0
9, 90948, Note_on_c, 7, 62, 0
9, 90948, Note_on_c, 7, 64, 0
9, 90960, Note_on_c, 7, 64, 127
9, 90960, Note_on_c, 7, 64, 127
9, 90960, Control_c, 7, 7, 117
9, 90960, Note_on_c, 7, 60, 127
9, 90960, Note_on_c, 7, 60, 127
9, 90970, Note_on_c, 7, 72, 127
9, 90970, Note_on_c, 7, 81, 127
9, 91012, Note_on_c, 7, 60, 0
9, 91012, Note_on_c, 7, 64, 0
9, 91020, Note_on_c, 7, 64, 98
9, 91020, Note_on_c, 7, 60, 98
9, 91056, Note_on_c, 7, 64, 0
9, 91056, Note_on_c, 7, 60, 0
9, 91066, Note_on_c, 7, 72, 0
9, 91066, Note_on_c, 7, 81, 0
9, 91068, Note_on_c, 7, 64, 0
9, 91068, Note_on_c, 7, 60, 0
9, 91080, Note_on_c, 7, 64, 98
9, 91080, Note_on_c, 7, 60, 98
9, 91128, Note_on_c, 7, 60, 0
9, 91128, Note_on_c, 7, 64, 0
9, 91140, Note_on_c, 7, 64, 98
9, 91140, Note_on_c, 7, 60, 98
9, 91188, Note_on_c, 7, 60, 0
9, 91188, Note_on_c, 7, 64, 0
9, 91200, Note_on_c, 7, 63, 98
9, 91200, Control_c, 7, 7, 63
9, 91200, Note_on_c, 7, 60, 98
9, 91258, Note_on_c, 7, 60, 0
9, 91258, Note_on_c, 7, 63, 0
9, 91260, Note_on_c, 7, 63, 98
9, 91260, Note_on_c, 7, 60, 98
9, 91308, Note_on_c, 7, 60, 0
9, 91308, Note_on_c, 7, 63, 0
9, 91320, Note_on_c, 7, 81, 127
9, 91320, Note_on_c, 7, 63, 98
9, 91320, Note_on_c, 7, 60, 98
9, 91368, Note_on_c, 7, 60, 0
9, 91368, Note_on_c, 7, 63, 0
9, 91380, Note_on_c, 7, 63, 98
9, 91380, Note_on_c, 7, 60, 98
9, 91416, Note_on_c, 7, 81, 0
9, 91428, Note_on_c, 7, 60, 0
9, 91428, Note_on_c, 7, 63, 0
9, 91440, Note_on_c, 7, 84, 127
9, 91440, Note_on_c, 7, 63, 98
9, 91440, Note_on_c, 7, 60, 98
9, 91492, Note_on_c, 7, 60, 0
9, 91492, Note_on_c, 7, 63, 0
9, 91500, Note_on_c, 7, 63, 98
9, 91500, Note_on_c, 7, 60, 98
9, 91536, Note_on_c, 7, 84, 0
9, 91548, Note_on_c, 7, 60, 0
9, 91548, Note_on_c, 7, 63, 0
9, 91560, Note_on_c, 7, 81, 127
9, 91560, Note_on_c, 7, 63, 98
9, 91560, Note_on_c, 7, 60, 98
9, 91608, Note_on_c, 7, 60, 0
9, 91608, Note_on_c, 7, 63, 0
9, 91620, Note_on_c, 7, 63, 98
9, 91620, Note_on_c, 7, 60, 98
9, 91656, Note_on_c, 7, 81, 0
9, 91668, Note_on_c, 7, 60, 0
9, 91668, Note_on_c, 7, 63, 0
9, 91680, Note_on_c, 7, 78, 127
9, 91680, Note_on_c, 7, 62, 98
9, 91680, Note_on_c, 7, 60, 98
9, 91738, Note_on_c, 7, 60, 0
9, 91738, Note_on_c, 7, 62, 0
9, 91740, Note_on_c, 7, 62, 98
9, 91740, Note_on_c, 7, 60, 98
9, 91776, Note_on_c, 7, 78, 0
9, 91788, Note_on_c, 7, 60, 0
9, 91788, Note_on_c, 7, 62, 0
9, 91800, Note_on_c, 7, 74, 122
9, 91800, Note_on_c, 7, 62, 98
9, 91800, Note_on_c, 7, 60, 98
9, 91848, Note_on_c, 7, 60, 0
9, 91848, Note_on_c, 7, 62, 0
9, 91860, Note_on_c, 7, 62, 98
9, 91860, Note_on_c, 7, 60, 98
9, 91896, Note_on_c, 7, 74, 0
9, 91908, Note_on_c, 7, 60, 0
9, 91908, Note_on_c, 7, 62, 0
9, 91920, Note_on_c, 7, 62, 127
9, 91920, Note_on_c, 7, 62, 127
9, 91920, Note_on_c, 7, 62, 127
9, 91920, Note_on_c, 7, 62, 127
9, 91920, Control_c, 7, 7, 118
9, 91920, Note_on_c, 7, 58, 127
9, 91920, Note_on_c, 7, 58, 127
9, 91930, Note_on_c, 7, 79, 127
9, 91930, Note_on_c, 7, 70, 127
9, 91968, Note_on_c, 7, 58, 0
9, 91972, Note_on_c, 7, 62, 0
9, 91972, Note_on_c, 7, 62, 0
9, 91972, Note_on_c, 7, 62, 0
9, 91980, Note_on_c, 7, 62, 98
9, 91980, Note_on_c, 7, 58, 98
9, 92016, Note_on_c, 7, 62, 0
9, 92016, Note_on_c, 7, 58, 0
9, 92026, Note_on_c, 7, 79, 0
9, 92026, Note_on_c, 7, 70, 0
9, 92028, Note_on_c, 7, 58, 0
9, 92028, Note_on_c, 7, 62, 0
9, 92040, Note_on_c, 7, 62, 98
9, 92040, Note_on_c, 7, 58, 98
9, 92088, Note_on_c, 7, 58, 0
9, 92088, Note_on_c, 7, 62, 0
9, 92100, Note_on_c, 7, 62, 98
9, 92100, Note_on_c, 7, 58, 98
9, 92148, Note_on_c, 7, 58, 0
9, 92148, Note_on_c, 7, 62, 0
9, 92160, Note_on_c, 7, 62, 98
9, 92160, Control_c, 7, 7, 64
9, 92160, Note_on_c, 7, 58, 98
9, 92218, Note_on_c, 7, 58, 0
9, 92218, Note_on_c, 7, 62, 0
9, 92220, Note_on_c, 7, 62, 98
9, 92220, Note_on_c, 7, 58, 98
9, 92268, Note_on_c, 7, 58, 0
9, 92268, Note_on_c, 7, 62, 0
9, 92280, Note_on_c, 7, 79, 127
9, 92280, Note_on_c, 7, 62, 98
9, 92280, Note_on_c, 7, 58, 98
9, 92328, Note_on_c, 7, 58, 0
9, 92328, Note_on_c, 7, 62, 0
9, 92340, Note_on_c, 7, 62, 98
9, 92340, Note_on_c, 7, 58, 98
9, 92376, Note_on_c, 7, 79, 0
9, 92388, Note_on_c, 7, 58, 0
9, 92388, Note_on_c, 7, 62, 0
9, 92400, Note_on_c, 7, 82, 127
9, 92400, Note_on_c, 7, 62, 98
9, 92400, Note_on_c, 7, 58, 98
9, 92452, Note_on_c, 7, 58, 0
9, 92452, Note_on_c, 7, 62, 0
9, 92460, Note_on_c, 7, 62, 98
9, 92460, Note_on_c, 7, 58, 98
9, 92496, Note_on_c, 7, 82, 0
9, 92508, Note_on_c, 7, 58, 0
9, 92508, Note_on_c, 7, 62, 0
9, 92520, Note_on_c, 7, 74, 127
9, 92520, Note_on_c, 7, 62, 98
9, 92520, Note_on_c, 7, 58, 98
9, 92568, Note_on_c, 7, 58, 0
9, 92568, Note_on_c, 7, 62, 0
9, 92580, Note_on_c, 7, 62, 98
9, 92580, Note_on_c, 7, 58, 98
9, 92616, Note_on_c, 7, 74, 0
9, 92628, Note_on_c, 7, 58, 0
9, 92628, Note_on_c, 7, 62, 0
9, 92640, Note_on_c, 7, 67, 98
9, 92640, Note_on_c, 7, 73, 98
9, 92640, Control_c, 7, 7, 117
9, 92640, Note_on_c, 7, 64, 98
9, 92640, Note_on_c, 7, 57, 98
9, 92698, Note_on_c, 7, 57, 0
9, 92698, Note_on_c, 7, 64, 0
9, 92698, Note_on_c, 7, 67, 0
9, 92700, Note_on_c, 7, 67, 119
9, 92700, Note_on_c, 7, 64, 119
9, 92700, Note_on_c, 7, 57, 119
9, 92736, Note_on_c, 7, 73, 0
9, 92748, Note_on_c, 7, 67, 0
9, 92748, Note_on_c, 7, 64, 0
9, 92748, Note_on_c, 7, 57, 0
9, 92760, Note_on_c, 7, 57, 121
9, 92760, Note_on_c, 7, 67, 121
9, 92760, Note_on_c, 7, 64, 121
9, 92760, Note_on_c, 7, 57, 121
9, 92808, Note_on_c, 7, 57, 0
9, 92808, Note_on_c, 7, 64, 0
9, 92808, Note_on_c, 7, 67, 0
9, 92820, Note_on_c, 7, 67, 122
9, 92820, Note_on_c, 7, 64, 122
9, 92820, Note_on_c, 7, 57, 122
9, 92856, Note_on_c, 7, 57, 0
9, 92868, Note_on_c, 7, 67, 0
9, 92868, Note_on_c, 7, 64, 0
9, 92868, Note_on_c, 7, 57, 0
9, 92880, Note_on_c, 7, 67, 123
9, 92880, Note_on_c, 7, 64, 123
9, 92880, Note_on_c, 7, 57, 123
9, 92932, Note_on_c, 7, 57, 0
9, 92932, Note_on_c, 7, 64, 0
9, 92932, Note_on_c, 7, 67, 0
9, 92940, Note_on_c, 7, 67, 124
9, 92940, Note_on_c, 7, 64, 124
9, 92940, Note_on_c, 7, 57, 124
9, 92988, Note_on_c, 7, 57, 0
9, 92988, Note_on_c, 7, 64, 0
9, 92988, Note_on_c, 7, 67, 0
9, 93000, Note_on_c, 7, 73, 124
9, 93000, Note_on_c, 7, 67, 124
9, 93000, Note_on_c, 7, 64, 124
9, 93000, Note_on_c, 7, 57, 124
9, 93048, Note_on_c, 7, 57, 0
9, 93048, Note_on_c, 7, 64, 0
9, 93048, Note_on_c, 7, 67, 0
9, 93060, Note_on_c, 7, 67, 126
9, 93060, Note_on_c, 7, 64, 126
9, 93060, Note_on_c, 7, 57, 126
9, 93096, Note_on_c, 7, 73, 0
9, 93108, Note_on_c, 7, 67, 0
9, 93108, Note_on_c, 7, 64, 0
9, 93108, Note_on_c, 7, 57, 0
9, 93120, Note_on_c, 7, 74, 126
9, 93120, Note_on_c, 7, 66, 126
9, 93120, Note_on_c, 7, 62, 126
9, 93120, Note_on_c, 7, 57, 126
9, 93178, Note_on_c, 7, 57, 0
9, 93178, Note_on_c, 7, 62, 0
9, 93178, Note_on_c, 7, 66, 0
9, 93180, Note_on_c, 7, 66, 127
9, 93180, Note_on_c, 7, 62, 127
9, 93180, Note_on_c, 7, 57, 127
9, 93216, Note_on_c, 7, 74, 0
9, 93228, Note_on_c, 7, 66, 0
9, 93228, Note_on_c, 7, 62, 0
9, 93228, Note_on_c, 7, 57, 0
9, 93240, Note_on_c, 7, 57, 127
9, 93240, Note_on_c, 7, 66, 127
9, 93240, Note_on_c, 7, 62, 127
9, 93240, Note_on_c, 7, 57, 127
9, 93288, Note_on_c, 7, 57, 0
9, 93288, Note_on_c, 7, 62, 0
9, 93288, Note_on_c, 7, 66, 0
9, 93300, Note_on_c, 7, 66, 127
9, 93300, Note_on_c, 7, 62, 127
9, 93300, Note_on_c, 7, 57, 127
9, 93336, Note_on_c, 7, 57, 0
9, 93348, Note_on_c, 7, 66, 0
9, 93348, Note_on_c, 7, 62, 0
9, 93348, Note_on_c, 7, 57, 0
9, 93360, Note_on_c, 7, 66, 127
9, 93360, Note_on_c, 7, 62, 127
9, 93360, Note_on_c, 7, 57, 127
9, 93412, Note_on_c, 7, 57, 0
9, 93412, Note_on_c, 7, 62, 0
9, 93412, Note_on_c, 7, 66, 0
9, 93420, Note_on_c, 7, 66, 127
9, 93420, Note_on_c, 7, 62, 127
9, 93420, Note_on_c, 7, 57, 127
9, 93468, Note_on_c, 7, 57, 0
9, 93468, Note_on_c, 7, 62, 0
9, 93468, Note_on_c, 7, 66, 0
9, 93480, Note_on_c, 7, 74, 127
9, 93480, Note_on_c, 7, 66, 127
9, 93480, Note_on_c, 7, 62, 127
9, 93480, Note_on_c, 7, 57, 127
9, 93528, Note_on_c, 7, 57, 0
9, 93528, Note_on_c, 7, 62, 0
9, 93528, Note_on_c, 7, 66, 0
9, 93540, Note_on_c, 7, 66, 127
9, 93540, Note_on_c, 7, 62, 127
9, 93540, Note_on_c, 7, 57, 127
9, 93576, Note_on_c, 7, 74, 0
9, 93588, Note_on_c, 7, 66, 0
9, 93588, Note_on_c, 7, 62, 0
9, 93588, Note_on_c, 7, 57, 0
9, 93600, Note_on_c, 7, 76, 127
9, 93600, Note_on_c, 7, 67, 127
9, 93600, Note_on_c, 7, 61, 127
9, 93600, Note_on_c, 7, 57, 127
9, 93658, Note_on_c, 7, 57, 0
9, 93658, Note_on_c, 7, 61, 0
9, 93658, Note_on_c, 7, 67, 0
9, 93660, Note_on_c, 7, 67, 127
9, 93660, Note_on_c, 7, 61, 127
9, 93660, Note_on_c, 7, 57, 127
9, 93696, Note_on_c, 7, 76, 0
9, 93708, Note_on_c, 7, 67, 0
9, 93708, Note_on_c, 7, 61, 0
9, 93708, Note_on_c, 7, 57, 0
9, 93720, Note_on_c, 7, 57, 127
9, 93720, Note_on_c, 7, 67, 127
9, 93720, Note_on_c, 7, 61, 127
9, 93720, Note_on_c, 7, 57, 127
9, 93768, Note_on_c, 7, 57, 0
9, 93768, Note_on_c, 7, 61, 0
9, 93768, Note_on_c, 7, 67, 0
9, 93780, Note_on_c, 7, 67, 127
9, 93780, Note_on_c, 7, 61, 127
9, 93780, Note_on_c, 7, 57, 127
9, 93816, Note_on_c, 7, 57, 0
9, 93828, Note_on_c, 7, 67, 0
9, 93828, Note_on_c, 7, 61, 0
9, 93828, Note_on_c, 7, 57, 0
9, 93840, Note_on_c, 7, 67, 127
9, 93840, Note_on_c, 7, 61, 127
9, 93840, Note_on_c, 7, 57, 127
9, 93892, Note_on_c, 7, 57, 0
9, 93892, Note_on_c, 7, 61, 0
9, 93892, Note_on_c, 7, 67, 0
9, 93900, Note_on_c, 7, 67, 127
9, 93900, Note_on_c, 7, 61, 127
9, 93900, Note_on_c, 7, 57, 127
9, 93948, Note_on_c, 7, 57, 0
9, 93948, Note_on_c, 7, 61, 0
9, 93948, Note_on_c, 7, 67, 0
9, 93960, Note_on_c, 7, 76, 127
9, 93960, Note_on_c, 7, 67, 127
9, 93960, Note_on_c, 7, 61, 127
9, 93960, Note_on_c, 7, 57, 127
9, 94008, Note_on_c, 7, 57, 0
9, 94008, Note_on_c, 7, 61, 0
9, 94008, Note_on_c, 7, 67, 0
9, 94020, Note_on_c, 7, 67, 127
9, 94020, Note_on_c, 7, 61, 127
9, 94020, Note_on_c, 7, 57, 127
9, 94056, Note_on_c, 7, 76, 0
9, 94068, Note_on_c, 7, 67, 0
9, 94068, Note_on_c, 7, 61, 0
9, 94068, Note_on_c, 7, 57, 0
9, 94080, Note_on_c, 7, 66, 127
9, 94080, Note_on_c, 7, 78, 127
9, 94080, Note_on_c, 7, 62, 127
9, 94080, Note_on_c, 7, 57, 127
9, 94138, Note_on_c, 7, 57, 0
9, 94138, Note_on_c, 7, 62, 0
9, 94138, Note_on_c, 7, 66, 0
9, 94140, Note_on_c, 7, 66, 127
9, 94140, Note_on_c, 7, 62, 127
9, 94140, Note_on_c, 7, 57, 127
9, 94176, Note_on_c, 7, 78, 0
9, 94188, Note_on_c, 7, 66, 0
9, 94188, Note_on_c, 7, 62, 0
9, 94188, Note_on_c, 7, 57, 0
9, 94200, Note_on_c, 7, 66, 127
9, 94200, Note_on_c, 7, 69, 127
9, 94200, Note_on_c, 7, 62, 127
9, 94200, Note_on_c, 7, 57, 127
9, 94248, Note_on_c, 7, 57, 0
9, 94248, Note_on_c, 7, 62, 0
9, 94248, Note_on_c, 7, 66, 0
9, 94260, Note_on_c, 7, 66, 127
9, 94260, Note_on_c, 7, 62, 127
9, 94260, Note_on_c, 7, 57, 127
9, 94296, Note_on_c, 7, 69, 0
9, 94308, Note_on_c, 7, 66, 0
9, 94308, Note_on_c, 7, 62, 0
9, 94308, Note_on_c, 7, 57, 0
9, 94320, Note_on_c, 7, 73, 127
9, 94320, Note_on_c, 7, 76, 127
9, 94320, Note_on_c, 7, 79, 127
9, 94320, Note_on_c, 7, 69, 127
9, 94320, Note_on_c, 7, 57, 127
9, 94372, Note_on_c, 7, 57, 0
9, 94372, Note_on_c, 7, 76, 0
9, 94372, Note_on_c, 7, 73, 0
9, 94372, Note_on_c, 7, 69, 0
9, 94380, Note_on_c, 7, 73, 127
9, 94380, Note_on_c, 7, 76, 127
9, 94380, Note_on_c, 7, 69, 127
9, 94380, Note_on_c, 7, 57, 127
9, 94416, Note_on_c, 7, 79, 0
9, 94428, Note_on_c, 7, 69, 0
9, 94428, Note_on_c, 7, 73, 0
9, 94428, Note_on_c, 7, 76, 0
9, 94428, Note_on_c, 7, 57, 0
9, 94440, Note_on_c, 7, 73, 127
9, 94440, Note_on_c, 7, 69, 127
9, 94440, Note_on_c, 7, 76, 127
9, 94440, Note_on_c, 7, 69, 127
9, 94440, Note_on_c, 7, 57, 127
9, 94488, Note_on_c, 7, 57, 0
9, 94488, Note_on_c, 7, 76, 0
9, 94488, Note_on_c, 7, 69, 0
9, 94488, Note_on_c, 7, 73, 0
9, 94500, Note_on_c, 7, 73, 127
9, 94500, Note_on_c, 7, 76, 127
9, 94500, Note_on_c, 7, 69, 127
9, 94500, Note_on_c, 7, 57, 127
9, 94536, Note_on_c, 7, 69, 0
9, 94548, Note_on_c, 7, 69, 0
9, 94548, Note_on_c, 7, 73, 0
9, 94548, Note_on_c, 7, 76, 0
9, 94548, Note_on_c, 7, 57, 0
9, 94560, Note_on_c, 7, 74, 127
9, 94560, Note_on_c, 7, 78, 127
9, 94560, Note_on_c, 7, 86, 127
9, 94560, Note_on_c, 7, 78, 127
9, 94560, Note_on_c, 7, 74, 127
9, 94560, Note_on_c, 7, 62, 127
9, 94618, Note_on_c, 7, 78, 0
9, 94618, Note_on_c, 7, 86, 0
9, 94618, Note_on_c, 7, 74, 0
9, 94618, Note_on_c, 7, 78, 0
9, 94620, Note_on_c, 7, 78, 98
9, 94620, Note_on_c, 7, 86, 98
9, 94620, Note_on_c, 7, 78, 98
9, 94620, Note_on_c, 7, 74, 98
9, 94668, Note_on_c, 7, 74, 0
9, 94668, Note_on_c, 7, 86, 0
9, 94668, Note_on_c, 7, 78, 0
9, 94668, Note_on_c, 7, 78, 0
9, 94680, Note_on_c, 7, 78, 98
9, 94680, Note_on_c, 7, 86, 98
9, 94680, Note_on_c, 7, 78, 98
9, 94680, Note_on_c, 7, 74, 98
9, 94728, Note_on_c, 7, 74, 0
9, 94728, Note_on_c, 7, 86, 0
9, 94728, Note_on_c, 7, 78, 0
9, 94728, Note_on_c, 7, 78, 0
9, 94740, Note_on_c, 7, 78, 98
9, 94740, Note_on_c, 7, 86, 98
9, 94740, Note_on_c, 7, 78, 98
9, 94740, Note_on_c, 7, 74, 98
9, 94785, Note_on_c, 7, 62, 0
9, 94785, Note_on_c, 7, 74, 0
9, 94788, Note_on_c, 7, 78, 0
9, 94788, Note_on_c, 7, 86, 0
9, 94788, Note_on_c, 7, 74, 0
9, 94788, Note_on_c, 7, 78, 0
9, 94800, Note_on_c, 7, 78, 98
9, 94800, Note_on_c, 7, 86, 98
9, 94800, Note_on_c, 7, 78, 98
9, 94800, Note_on_c, 7, 74, 98
9, 94800, Control_c, 7, 7, 126
9, 94852, Note_on_c, 7, 74, 0
9, 94852, Note_on_c, 7, 78, 0
9, 94852, Note_on_c, 7, 86, 0
9, 94852, Note_on_c, 7, 78, 0
9, 94860, Note_on_c, 7, 78, 98
9, 94860, Note_on_c, 7, 86, 98
9, 94860, Note_on_c, 7, 78, 98
9, 94860, Note_on_c, 7, 74, 98
9, 94908, Note_on_c, 7, 74, 0
9, 94908, Note_on_c, 7, 78, 0
9, 94908, Note_on_c, 7, 86, 0
9, 94908, Note_on_c, 7, 78, 0
9, 94920, Note_on_c, 7, 78, 98
9, 94920, Note_on_c, 7, 86, 98
9, 94920, Note_on_c, 7, 78, 98
9, 94920, Note_on_c, 7, 74, 98
9, 94920, Note_on_c, 7, 62, 116
9, 94920, Note_on_c, 7, 62, 98
9, 94968, Note_on_c, 7, 74, 0
9, 94968, Note_on_c, 7, 78, 0
9, 94968, Note_on_c, 7, 78, 0
9, 94968, Note_on_c, 7, 86, 0
9, 94980, Note_on_c, 7, 78, 98
9, 94980, Note_on_c, 7, 86, 98
9, 94980, Note_on_c, 7, 78, 98
9, 94980, Note_on_c, 7, 74, 98
9, 95028, Note_on_c, 7, 74, 0
9, 95028, Note_on_c, 7, 86, 0
9, 95028, Note_on_c, 7, 78, 0
9, 95028, Note_on_c, 7, 78, 0
9, 95040, Note_on_c, 7, 62, 0
9, 95040, Note_on_c, 7, 62, 0
9, 95040, Note_on_c, 7, 74, 98
9, 95040, Note_on_c, 7, 78, 98
9, 95040, Note_on_c, 7, 86, 98
9, 95040, Note_on_c, 7, 78, 98
9, 95040, Note_on_c, 7, 64, 122
9, 95040, Note_on_c, 7, 64, 98
9, 95098, Note_on_c, 7, 78, 0
9, 95098, Note_on_c, 7, 86, 0
9, 95098, Note_on_c, 7, 74, 0
9, 95098, Note_on_c, 7, 78, 0
9, 95100, Note_on_c, 7, 74, 98
9, 95100, Note_on_c, 7, 78, 98
9, 95100, Note_on_c, 7, 86, 98
9, 95100, Note_on_c, 7, 78, 98
9, 95148, Note_on_c, 7, 78, 0
9, 95148, Note_on_c, 7, 78, 0
9, 95148, Note_on_c, 7, 74, 0
9, 95148, Note_on_c, 7, 86, 0
9, 95160, Note_on_c, 7, 64, 0
9, 95160, Note_on_c, 7, 64, 0
9, 95160, Note_on_c, 7, 74, 98
9, 95160, Note_on_c, 7, 78, 98
9, 95160, Note_on_c, 7, 86, 98
9, 95160, Note_on_c, 7, 78, 98
9, 95160, Note_on_c, 7, 66, 127
9, 95160, Note_on_c, 7, 66, 98
9, 95208, Note_on_c, 7, 78, 0
9, 95208, Note_on_c, 7, 86, 0
9, 95208, Note_on_c, 7, 74, 0
9, 95208, Note_on_c, 7, 78, 0
9, 95220, Note_on_c, 7, 74, 98
9, 95220, Note_on_c, 7, 78, 98
9, 95220, Note_on_c, 7, 86, 98
9, 95220, Note_on_c, 7, 78, 98
9, 95268, Note_on_c, 7, 78, 0
9, 95268, Note_on_c, 7, 78, 0
9, 95268, Note_on_c, 7, 74, 0
9, 95268, Note_on_c, 7, 86, 0
9, 95280, Note_on_c, 7, 66, 0
9, 95280, Note_on_c, 7, 66, 0
9, 95280, Note_on_c, 7, 74, 98
9, 95280, Note_on_c, 7, 78, 98
9, 95280, Note_on_c, 7, 86, 98
9, 95280, Note_on_c, 7, 78, 98
9, 95280, Note_on_c, 7, 67, 127
9, 95280, Note_on_c, 7, 67, 98
9, 95332, Note_on_c, 7, 78, 0
9, 95332, Note_on_c, 7, 86, 0
9, 95332, Note_on_c, 7, 74, 0
9, 95332, Note_on_c, 7, 78, 0
9, 95340, Note_on_c, 7, 74, 98
9, 95340, Note_on_c, 7, 78, 98
9, 95340, Note_on_c, 7, 86, 98
9, 95340, Note_on_c, 7, 78, 98
9, 95388, Note_on_c, 7, 78, 0
9, 95388, Note_on_c, 7, 78, 0
9, 95388, Note_on_c, 7, 74, 0
9, 95388, Note_on_c, 7, 86, 0
9, 95400, Note_on_c, 7, 67, 0
9, 95400, Note_on_c, 7, 67, 0
9, 95400, Note_on_c, 7, 74, 98
9, 95400, Note_on_c, 7, 78, 98
9, 95400, Note_on_c, 7, 86, 98
9, 95400, Note_on_c, 7, 78, 98
9, 95400, Note_on_c, 7, 68, 127
9, 95400, Note_on_c, 7, 68, 98
9, 95448, Note_on_c, 7, 78, 0
9, 95448, Note_on_c, 7, 86, 0
9, 95448, Note_on_c, 7, 74, 0
9, 95448, Note_on_c, 7, 78, 0
9, 95460, Note_on_c, 7, 74, 98
9, 95460, Note_on_c, 7, 78, 98
9, 95460, Note_on_c, 7, 86, 98
9, 95460, Note_on_c, 7, 78, 98
9, 95508, Note_on_c, 7, 78, 0
9, 95508, Note_on_c, 7, 78, 0
9, 95508, Note_on_c, 7, 74, 0
9, 95508, Note_on_c, 7, 86, 0
9, 95520, Note_on_c, 7, 68, 0
9, 95520, Note_on_c, 7, 68, 0
9, 95520, Note_on_c, 7, 74, 98
9, 95520, Note_on_c, 7, 78, 98
9, 95520, Note_on_c, 7, 86, 98
9, 95520, Note_on_c, 7, 78, 98
9, 95520, Note_on_c, 7, 71, 127
9, 95520, Note_on_c, 7, 71, 98
9, 95578, Note_on_c, 7, 78, 0
9, 95578, Note_on_c, 7, 86, 0
9, 95578, Note_on_c, 7, 74, 0
9, 95578, Note_on_c, 7, 78, 0
9, 95580, Note_on_c, 7, 74, 98
9, 95580, Note_on_c, 7, 78, 98
9, 95580, Note_on_c, 7, 86, 98
9, 95580, Note_on_c, 7, 78, 98
9, 95628, Note_on_c, 7, 78, 0
9, 95628, Note_on_c, 7, 78, 0
9, 95628, Note_on_c, 7, 74, 0
9, 95628, Note_on_c, 7, 86, 0
9, 95640, Note_on_c, 7, 71, 0
9, 95640, Note_on_c, 7, 71, 0
9, 95640, Note_on_c, 7, 74, 98
9, 95640, Note_on_c, 7, 78, 98
9, 95640, Note_on_c, 7, 86, 98
9, 95640, Note_on_c, 7, 78, 98
9, 95640, Note_on_c, 7, 69, 127
9, 95640, Note_on_c, 7, 69, 98
9, 95688, Note_on_c, 7, 78, 0
9, 95688, Note_on_c, 7, 86, 0
9, 95688, Note_on_c, 7, 74, 0
9, 95688, Note_on_c, 7, 78, 0
9, 95700, Note_on_c, 7, 74, 98
9, 95700, Note_on_c, 7, 78, 98
9, 95700, Note_on_c, 7, 86, 98
9, 95700, Note_on_c, 7, 78, 98
9, 95736, Note_on_c, 7, 69, 0
9, 95736, Note_on_c, 7, 69, 0
9, 95748, Note_on_c, 7, 86, 0
9, 95748, Note_on_c, 7, 78, 0
9, 95748, Note_on_c, 7, 78, 0
9, 95748, Note_on_c, 7, 74, 0
9, 95760, Note_on_c, 7, 74, 98
9, 95760, Note_on_c, 7, 78, 98
9, 95760, Note_on_c, 7, 86, 98
9, 95760, Note_on_c, 7, 78, 98
9, 95812, Note_on_c, 7, 78, 0
9, 95812, Note_on_c, 7, 74, 0
9, 95812, Note_on_c, 7, 78, 0
9, 95812, Note_on_c, 7, 86, 0
9, 95820, Note_on_c, 7, 74, 98
9, 95820, Note_on_c, 7, 78, 98
9, 95820, Note_on_c, 7, 86, 98
9, 95820, Note_on_c, 7, 78, 98
9, 95868, Note_on_c, 7, 78, 0
9, 95868, Note_on_c, 7, 74, 0
9, 95868, Note_on_c, 7, 78, 0
9, 95868, Note_on_c, 7, 86, 0
9, 95880, Note_on_c, 7, 74, 98
9, 95880, Note_on_c, 7, 78, 98
9, 95880, Note_on_c, 7, 86, 98
9, 95880, Note_on_c, 7, 78, 98
9, 95880, Note_on_c, 7, 62, 120
9, 95880, Note_on_c, 7, 62, 118
9, 95928, Note_on_c, 7, 78, 0
9, 95928, Note_on_c, 7, 86, 0
9, 95928, Note_on_c, 7, 74, 0
9, 95928, Note_on_c, 7, 78, 0
9, 95940, Note_on_c, 7, 74, 98
9, 95940, Note_on_c, 7, 78, 98
9, 95940, Note_on_c, 7, 86, 98
9, 95940, Note_on_c, 7, 78, 98
9, 95988, Note_on_c, 7, 78, 0
9, 95988, Note_on_c, 7, 78, 0
9, 95988, Note_on_c, 7, 74, 0
9, 95988, Note_on_c, 7, 86, 0
9, 96000, Note_on_c, 7, 62, 0
9, 96000, Note_on_c, 7, 62, 0
9, 96000, Note_on_c, 7, 74, 98
9, 96000, Note_on_c, 7, 78, 98
9, 96000, Note_on_c, 7, 86, 98
9, 96000, Note_on_c, 7, 78, 98
9, 96000, Note_on_c, 7, 64, 126
9, 96000, Note_on_c, 7, 64, 127
9, 96058, Note_on_c, 7, 78, 0
9, 96058, Note_on_c, 7, 86, 0
9, 96058, Note_on_c, 7, 74, 0
9, 96058, Note_on_c, 7, 78, 0
9, 96060, Note_on_c, 7, 74, 98
9, 96060, Note_on_c, 7, 78, 98
9, 96060, Note_on_c, 7, 86, 98
9, 96060, Note_on_c, 7, 78, 98
9, 96108, Note_on_c, 7, 78, 0
9, 96108, Note_on_c, 7, 78, 0
9, 96108, Note_on_c, 7, 74, 0
9, 96108, Note_on_c, 7, 86, 0
9, 96120, Note_on_c, 7, 64, 0
9, 96120, Note_on_c, 7, 64, 0
9, 96120, Note_on_c, 7, 74, 98
9, 96120, Note_on_c, 7, 78, 98
9, 96120, Note_on_c, 7, 86, 98
9, 96120, Note_on_c, 7, 78, 98
9, 96120, Note_on_c, 7, 66, 127
9, 96120, Note_on_c, 7, 66, 127
9, 96168, Note_on_c, 7, 78, 0
9, 96168, Note_on_c, 7, 86, 0
9, 96168, Note_on_c, 7, 74, 0
9, 96168, Note_on_c, 7, 78, 0
9, 96180, Note_on_c, 7, 74, 98
9, 96180, Note_on_c, 7, 78, 98
9, 96180, Note_on_c, 7, 86, 98
9, 96180, Note_on_c, 7, 78, 98
9, 96228, Note_on_c, 7, 78, 0
9, 96228, Note_on_c, 7, 78, 0
9, 96228, Note_on_c, 7, 74, 0
9, 96228, Note_on_c, 7, 86, 0
9, 96240, Note_on_c, 7, 66, 0
9, 96240, Note_on_c, 7, 66, 0
9, 96240, Note_on_c, 7, 74, 98
9, 96240, Note_on_c, 7, 78, 98
9, 96240, Note_on_c, 7, 86, 98
9, 96240, Note_on_c, 7, 78, 98
9, 96240, Note_on_c, 7, 67, 127
9, 96240, Note_on_c, 7, 67, 127
9, 96292, Note_on_c, 7, 78, 0
9, 96292, Note_on_c, 7, 86, 0
9, 96292, Note_on_c, 7, 74, 0
9, 96292, Note_on_c, 7, 78, 0
9, 96300, Note_on_c, 7, 74, 98
9, 96300, Note_on_c, 7, 78, 98
9, 96300, Note_on_c, 7, 86, 98
9, 96300, Note_on_c, 7, 78, 98
9, 96348, Note_on_c, 7, 78, 0
9, 96348, Note_on_c, 7, 78, 0
9, 96348, Note_on_c, 7, 74, 0
9, 96348, Note_on_c, 7, 86, 0
9, 96360, Note_on_c, 7, 67, 0
9, 96360, Note_on_c, 7, 67, 0
9, 96360, Note_on_c, 7, 74, 98
9, 96360, Note_on_c, 7, 78, 98
9, 96360, Note_on_c, 7, 86, 98
9, 96360, Note_on_c, 7, 78, 98
9, 96360, Note_on_c, 7, 68, 127
9, 96360, Note_on_c, 7, 68, 127
9, 96408, Note_on_c, 7, 78, 0
9, 96408, Note_on_c, 7, 86, 0
9, 96408, Note_on_c, 7, 74, 0
9, 96408, Note_on_c, 7, 78, 0
9, 96420, Note_on_c, 7, 74, 98
9, 96420, Note_on_c, 7, 78, 98
9, 96420, Note_on_c, 7, 86, 98
9, 96420, Note_on_c, 7, 78, 98
9, 96468, Note_on_c, 7, 78, 0
9, 96468, Note_on_c, 7, 78, 0
9, 96468, Note_on_c, 7, 74, 0
9, 96468, Note_on_c, 7, 86, 0
9, 96480, Note_on_c, 7, 68, 0
9, 96480, Note_on_c, 7, 68, 0
9, 96480, Note_on_c, 7, 74, 98
9, 96480, Note_on_c, 7, 78, 98
9, 96480, Note_on_c, 7, 86, 98
9, 96480, Note_on_c, 7, 78, 98
9, 96480, Note_on_c, 7, 71, 127
9, 96480, Note_on_c, 7, 71, 127
9, 96538, Note_on_c, 7, 78, 0
9, 96538, Note_on_c, 7, 86, 0
9, 96538, Note_on_c, 7, 74, 0
9, 96538, Note_on_c, 7, 78, 0
9, 96540, Note_on_c, 7, 74, 98
9, 96540, Note_on_c, 7, 78, 98
9, 96540, Note_on_c, 7, 86, 98
9, 96540, Note_on_c, 7, 78, 98
9, 96588, Note_on_c, 7, 78, 0
9, 96588, Note_on_c, 7, 78, 0
9, 96588, Note_on_c, 7, 74, 0
9, 96588, Note_on_c, 7, 86, 0
9, 96600, Note_on_c, 7, 71, 0
9, 96600, Note_on_c, 7, 71, 0
9, 96600, Note_on_c, 7, 74, 98
9, 96600, Note_on_c, 7, 78, 98
9, 96600, Note_on_c, 7, 86, 98
9, 96600, Note_on_c, 7, 78, 98
9, 96600, Note_on_c, 7, 69, 127
9, 96600, Note_on_c, 7, 69, 127
9, 96648, Note_on_c, 7, 78, 0
9, 96648, Note_on_c, 7, 86, 0
9, 96648, Note_on_c, 7, 74, 0
9, 96648, Note_on_c, 7, 78, 0
9, 96660, Note_on_c, 7, 74, 98
9, 96660, Note_on_c, 7, 78, 98
9, 96660, Note_on_c, 7, 86, 98
9, 96660, Note_on_c, 7, 78, 98
9, 96696, Note_on_c, 7, 69, 0
9, 96696, Note_on_c, 7, 69, 0
9, 96708, Note_on_c, 7, 86, 0
9, 96708, Note_on_c, 7, 78, 0
9, 96708, Note_on_c, 7, 78, 0
9, 96708, Note_on_c, 7, 74, 0
9, 96720, Note_on_c, 7, 74, 98
9, 96720, Note_on_c, 7, 78, 98
9, 96720, Note_on_c, 7, 86, 98
9, 96720, Note_on_c, 7, 78, 98
9, 96772, Note_on_c, 7, 78, 0
9, 96772, Note_on_c, 7, 74, 0
9, 96772, Note_on_c, 7, 78, 0
9, 96772, Note_on_c, 7, 86, 0
9, 96780, Note_on_c, 7, 74, 98
9, 96780, Note_on_c, 7, 78, 98
9, 96780, Note_on_c, 7, 86, 98
9, 96780, Note_on_c, 7, 78, 98
9, 96828, Note_on_c, 7, 78, 0
9, 96828, Note_on_c, 7, 74, 0
9, 96828, Note_on_c, 7, 78, 0
9, 96828, Note_on_c, 7, 86, 0
9, 96840, Note_on_c, 7, 74, 98
9, 96840, Note_on_c, 7, 78, 98
9, 96840, Note_on_c, 7, 86, 98
9, 96840, Note_on_c, 7, 78, 98
9, 96840, Note_on_c, 7, 62, 121
9, 96840, Note_on_c, 7, 62, 116
9, 96888, Note_on_c, 7, 78, 0
9, 96888, Note_on_c, 7, 86, 0
9, 96888, Note_on_c, 7, 74, 0
9, 96888, Note_on_c, 7, 78, 0
9, 96900, Note_on_c, 7, 74, 98
9, 96900, Note_on_c, 7, 78, 98
9, 96900, Note_on_c, 7, 86, 98
9, 96900, Note_on_c, 7, 78, 98
9, 96948, Note_on_c, 7, 78, 0
9, 96948, Note_on_c, 7, 78, 0
9, 96948, Note_on_c, 7, 74, 0
9, 96948, Note_on_c, 7, 86, 0
9, 96960, Note_on_c, 7, 62, 0
9, 96960, Note_on_c, 7, 62, 0
9, 96960, Note_on_c, 7, 74, 98
9, 96960, Note_on_c, 7, 78, 98
9, 96960, Note_on_c, 7, 86, 98
9, 96960, Note_on_c, 7, 78, 98
9, 96960, Note_on_c, 7, 64, 127
9, 96960, Note_on_c, 7, 64, 126
9, 97018, Note_on_c, 7, 78, 0
9, 97018, Note_on_c, 7, 86, 0
9, 97018, Note_on_c, 7, 74, 0
9, 97018, Note_on_c, 7, 78, 0
9, 97020, Note_on_c, 7, 74, 98
9, 97020, Note_on_c, 7, 78, 98
9, 97020, Note_on_c, 7, 86, 98
9, 97020, Note_on_c, 7, 78, 98
9, 97068, Note_on_c, 7, 78, 0
9, 97068, Note_on_c, 7, 78, 0
9, 97068, Note_on_c, 7, 74, 0
9, 97068, Note_on_c, 7, 86, 0
9, 97080, Note_on_c, 7, 64, 0
9, 97080, Note_on_c, 7, 64, 0
9, 97080, Note_on_c, 7, 74, 98
9, 97080, Note_on_c, 7, 78, 98
9, 97080, Note_on_c, 7, 86, 98
9, 97080, Note_on_c, 7, 78, 98
9, 97080, Note_on_c, 7, 66, 127
9, 97080, Note_on_c, 7, 66, 127
9, 97128, Note_on_c, 7, 78, 0
9, 97128, Note_on_c, 7, 86, 0
9, 97128, Note_on_c, 7, 74, 0
9, 97128, Note_on_c, 7, 78, 0
9, 97140, Note_on_c, 7, 74, 98
9, 97140, Note_on_c, 7, 78, 98
9, 97140, Note_on_c, 7, 86, 98
9, 97140, Note_on_c, 7, 78, 98
9, 97188, Note_on_c, 7, 78, 0
9, 97188, Note_on_c, 7, 78, 0
9, 97188, Note_on_c, 7, 74, 0
9, 97188, Note_on_c, 7, 86, 0
9, 97200, Note_on_c, 7, 66, 0
9, 97200, Note_on_c, 7, 66, 0
9, 97200, Note_on_c, 7, 74, 98
9, 97200, Note_on_c, 7, 78, 98
9, 97200, Note_on_c, 7, 86, 98
9, 97200, Note_on_c, 7, 78, 98
9, 97200, Note_on_c, 7, 67, 127
9, 97200, Note_on_c, 7, 67, 127
9, 97252, Note_on_c, 7, 78, 0
9, 97252, Note_on_c, 7, 86, 0
9, 97252, Note_on_c, 7, 74, 0
9, 97252, Note_on_c, 7, 78, 0
9, 97260, Note_on_c, 7, 74, 98
9, 97260, Note_on_c, 7, 78, 98
9, 97260, Note_on_c, 7, 86, 98
9, 97260, Note_on_c, 7, 78, 98
9, 97308, Note_on_c, 7, 78, 0
9, 97308, Note_on_c, 7, 78, 0
9, 97308, Note_on_c, 7, 74, 0
9, 97308, Note_on_c, 7, 86, 0
9, 97320, Note_on_c, 7, 67, 0
9, 97320, Note_on_c, 7, 67, 0
9, 97320, Note_on_c, 7, 74, 98
9, 97320, Note_on_c, 7, 78, 98
9, 97320, Note_on_c, 7, 86, 98
9, 97320, Note_on_c, 7, 78, 98
9, 97320, Note_on_c, 7, 69, 127
9, 97320, Note_on_c, 7, 69, 127
9, 97368, Note_on_c, 7, 78, 0
9, 97368, Note_on_c, 7, 86, 0
9, 97368, Note_on_c, 7, 74, 0
9, 97368, Note_on_c, 7, 78, 0
9, 97380, Note_on_c, 7, 74, 98
9, 97380, Note_on_c, 7, 78, 98
9, 97380, Note_on_c, 7, 86, 98
9, 97380, Note_on_c, 7, 78, 98
9, 97428, Note_on_c, 7, 78, 0
9, 97428, Note_on_c, 7, 78, 0
9, 97428, Note_on_c, 7, 74, 0
9, 97428, Note_on_c, 7, 86, 0
9, 97440, Note_on_c, 7, 69, 0
9, 97440, Note_on_c, 7, 69, 0
9, 97440, Note_on_c, 7, 77, 98
9, 97440, Note_on_c, 7, 86, 98
9, 97440, Note_on_c, 7, 74, 98
9, 97440, Note_on_c, 7, 70, 127
9, 97440, Note_on_c, 7, 70, 127
9, 97498, Note_on_c, 7, 74, 0
9, 97498, Note_on_c, 7, 77, 0
9, 97498, Note_on_c, 7, 86, 0
9, 97500, Note_on_c, 7, 70, 0
9, 97500, Note_on_c, 7, 77, 98
9, 97500, Note_on_c, 7, 86, 98
9, 97500, Note_on_c, 7, 74, 98
9, 97500, Note_on_c, 7, 70, 127
9, 97548, Note_on_c, 7, 74, 0
9, 97548, Note_on_c, 7, 86, 0
9, 97548, Note_on_c, 7, 77, 0
9, 97556, Note_on_c, 7, 70, 0
9, 97560, Note_on_c, 7, 77, 98
9, 97560, Note_on_c, 7, 86, 98
9, 97560, Note_on_c, 7, 74, 98
9, 97560, Note_on_c, 7, 70, 127
9, 97608, Note_on_c, 7, 74, 0
9, 97608, Note_on_c, 7, 86, 0
9, 97608, Note_on_c, 7, 77, 0
9, 97616, Note_on_c, 7, 70, 0
9, 97620, Note_on_c, 7, 77, 98
9, 97620, Note_on_c, 7, 86, 98
9, 97620, Note_on_c, 7, 74, 98
9, 97620, Note_on_c, 7, 70, 127
9, 97668, Note_on_c, 7, 74, 0
9, 97668, Note_on_c, 7, 86, 0
9, 97668, Note_on_c, 7, 77, 0
9, 97676, Note_on_c, 7, 70, 0
9, 97680, Note_on_c, 7, 70, 0
9, 97680, Note_on_c, 7, 77, 98
9, 97680, Note_on_c, 7, 86, 98
9, 97680, Note_on_c, 7, 74, 98
9, 97680, Note_on_c, 7, 69, 127
9, 97680, Note_on_c, 7, 69, 127
9, 97732, Note_on_c, 7, 74, 0
9, 97732, Note_on_c, 7, 77, 0
9, 97732, Note_on_c, 7, 86, 0
9, 97737, Note_on_c, 7, 69, 0
9, 97740, Note_on_c, 7, 77, 98
9, 97740, Note_on_c, 7, 86, 98
9, 97740, Note_on_c, 7, 74, 98
9, 97740, Note_on_c, 7, 69, 126
9, 97788, Note_on_c, 7, 74, 0
9, 97788, Note_on_c, 7, 86, 0
9, 97788, Note_on_c, 7, 77, 0
9, 97796, Note_on_c, 7, 69, 0
9, 97800, Note_on_c, 7, 77, 98
9, 97800, Note_on_c, 7, 86, 98
9, 97800, Note_on_c, 7, 74, 98
9, 97800, Note_on_c, 7, 69, 123
9, 97848, Note_on_c, 7, 74, 0
9, 97848, Note_on_c, 7, 86, 0
9, 97848, Note_on_c, 7, 77, 0
9, 97856, Note_on_c, 7, 69, 0
9, 97860, Note_on_c, 7, 74, 98
9, 97860, Note_on_c, 7, 77, 98
9, 97860, Note_on_c, 7, 86, 98
9, 97860, Note_on_c, 7, 69, 120
9, 97908, Note_on_c, 7, 86, 0
9, 97908, Note_on_c, 7, 77, 0
9, 97908, Note_on_c, 7, 74, 0
9, 97916, Note_on_c, 7, 69, 0
9, 97920, Note_on_c, 7, 69, 0
9, 97920, Note_on_c, 7, 83, 98
9, 97920, Note_on_c, 7, 74, 98
9, 97920, Note_on_c, 7, 76, 98
9, 97920, Note_on_c, 7, 76, 98
9, 97920, Note_on_c, 7, 86, 98
9, 97920, Note_on_c, 7, 68, 120
9, 97920, Note_on_c, 7, 68, 127
9, 97978, Note_on_c, 7, 86, 0
9, 97978, Note_on_c, 7, 76, 0
9, 97978, Note_on_c, 7, 83, 0
9, 97978, Note_on_c, 7, 76, 0
9, 97978, Note_on_c, 7, 74, 0
9, 97980, Note_on_c, 7, 74, 98
9, 97980, Note_on_c, 7, 76, 98
9, 97980, Note_on_c, 7, 83, 98
9, 97980, Note_on_c, 7, 86, 98
9, 97980, Note_on_c, 7, 68, 120
9, 97988, Note_on_c, 7, 68, 0
9, 98028, Note_on_c, 7, 83, 0
9, 98028, Note_on_c, 7, 74, 0
9, 98028, Note_on_c, 7, 76, 0
9, 98028, Note_on_c, 7, 86, 0
9, 98036, Note_on_c, 7, 68, 0
9, 98040, Note_on_c, 7, 74, 98
9, 98040, Note_on_c, 7, 76, 98
9, 98040, Note_on_c, 7, 76, 98
9, 98040, Note_on_c, 7, 83, 98
9, 98040, Note_on_c, 7, 83, 98
9, 98040, Note_on_c, 7, 86, 98
9, 98040, Note_on_c, 7, 68, 120
9, 98088, Note_on_c, 7, 86, 0
9, 98088, Note_on_c, 7, 76, 0
9, 98088, Note_on_c, 7, 83, 0
9, 98088, Note_on_c, 7, 74, 0
9, 98088, Note_on_c, 7, 76, 0
9, 98088, Note_on_c, 7, 83, 0
9, 98096, Note_on_c, 7, 68, 0
9, 98100, Note_on_c, 7, 74, 98
9, 98100, Note_on_c, 7, 76, 98
9, 98100, Note_on_c, 7, 83, 98
9, 98100, Note_on_c, 7, 83, 98
9, 98100, Note_on_c, 7, 86, 98
9, 98100, Note_on_c, 7, 68, 120
9, 98148, Note_on_c, 7, 86, 0
9, 98148, Note_on_c, 7, 83, 0
9, 98148, Note_on_c, 7, 74, 0
9, 98148, Note_on_c, 7, 76, 0
9, 98148, Note_on_c, 7, 83, 0
9, 98156, Note_on_c, 7, 68, 0
9, 98160, Note_on_c, 7, 68, 0
9, 98160, Note_on_c, 7, 73, 98
9, 98160, Note_on_c, 7, 81, 98
9, 98160, Note_on_c, 7, 85, 98
9, 98160, Note_on_c, 7, 76, 98
9, 98160, Note_on_c, 7, 67, 98
9, 98160, Note_on_c, 7, 67, 98
9, 98160, Note_on_c, 7, 67, 127
9, 98212, Note_on_c, 7, 76, 0
9, 98212, Note_on_c, 7, 85, 0
9, 98212, Note_on_c, 7, 73, 0
9, 98212, Note_on_c, 7, 81, 0
9, 98217, Note_on_c, 7, 67, 0
9, 98217, Note_on_c, 7, 67, 0
9, 98220, Note_on_c, 7, 73, 98
9, 98220, Note_on_c, 7, 76, 98
9, 98220, Note_on_c, 7, 76, 98
9, 98220, Note_on_c, 7, 81, 98
9, 98220, Note_on_c, 7, 76, 98
9, 98220, Note_on_c, 7, 76, 98
9, 98220, Note_on_c, 7, 85, 98
9, 98220, Note_on_c, 7, 67, 98
9, 98268, Note_on_c, 7, 85, 0
9, 98268, Note_on_c, 7, 76, 0
9, 98268, Note_on_c, 7, 76, 0
9, 98268, Note_on_c, 7, 81, 0
9, 98268, Note_on_c, 7, 73, 0
9, 98268, Note_on_c, 7, 76, 0
9, 98268, Note_on_c, 7, 76, 0
9, 98276, Note_on_c, 7, 67, 0
9, 98280, Note_on_c, 7, 73, 98
9, 98280, Note_on_c, 7, 81, 98
9, 98280, Note_on_c, 7, 76, 98
9, 98280, Note_on_c, 7, 85, 98
9, 98280, Note_on_c, 7, 67, 98
9, 98328, Note_on_c, 7, 85, 0
9, 98328, Note_on_c, 7, 76, 0
9, 98328, Note_on_c, 7, 81, 0
9, 98328, Note_on_c, 7, 73, 0
9, 98336, Note_on_c, 7, 67, 0
9, 98340, Note_on_c, 7, 73, 98
9, 98340, Note_on_c, 7, 81, 98
9, 98340, Note_on_c, 7, 76, 98
9, 98340, Note_on_c, 7, 76, 98
9, 98340, Note_on_c, 7, 85, 98
9, 98388, Note_on_c, 7, 85, 0
9, 98388, Note_on_c, 7, 73, 0
9, 98388, Note_on_c, 7, 81, 0
9, 98388, Note_on_c, 7, 76, 0
9, 98388, Note_on_c, 7, 76, 0
9, 98400, Note_on_c, 7, 67, 0
9, 98400, Note_on_c, 7, 74, 98
9, 98400, Note_on_c, 7, 74, 98
9, 98400, Note_on_c, 7, 74, 98
9, 98400, Note_on_c, 7, 81, 98
9, 98400, Note_on_c, 7, 86, 98
9, 98400, Note_on_c, 7, 66, 98
9, 98400, Note_on_c, 7, 66, 127
9, 98458, Note_on_c, 7, 86, 0
9, 98458, Note_on_c, 7, 81, 0
9, 98458, Note_on_c, 7, 74, 0
9, 98458, Note_on_c, 7, 74, 0
9, 98458, Note_on_c, 7, 74, 0
9, 98460, Note_on_c, 7, 74, 98
9, 98460, Note_on_c, 7, 74, 98
9, 98460, Note_on_c, 7, 81, 98
9, 98460, Note_on_c, 7, 86, 98
9, 98460, Note_on_c, 7, 66, 98
9, 98468, Note_on_c, 7, 66, 0
9, 98496, Note_on_c, 7, 66, 0
9, 98508, Note_on_c, 7, 74, 0
9, 98508, Note_on_c, 7, 81, 0
9, 98508, Note_on_c, 7, 74, 0
9, 98508, Note_on_c, 7, 86, 0
9, 98516, Note_on_c, 7, 66, 0
9, 98520, Note_on_c, 7, 74, 98
9, 98520, Note_on_c, 7, 81, 98
9, 98520, Note_on_c, 7, 86, 98
9, 98520, Note_on_c, 7, 66, 98
9, 98520, Note_on_c, 7, 66, 127
9, 98568, Note_on_c, 7, 86, 0
9, 98568, Note_on_c, 7, 74, 0
9, 98568, Note_on_c, 7, 81, 0
9, 98576, Note_on_c, 7, 66, 0
9, 98580, Note_on_c, 7, 74, 98
9, 98580, Note_on_c, 7, 81, 98
9, 98580, Note_on_c, 7, 86, 98
9, 98580, Note_on_c, 7, 66, 98
9, 98616, Note_on_c, 7, 66, 0
9, 98628, Note_on_c, 7, 86, 0
9, 98628, Note_on_c, 7, 74, 0
9, 98628, Note_on_c, 7, 81, 0
9, 98636, Note_on_c, 7, 66, 0
9, 98640, Note_on_c, 7, 71, 98
9, 98640, Note_on_c, 7, 79, 98
9, 98640, Note_on_c, 7, 83, 98
9, 98640, Note_on_c, 7, 67, 98
9, 98640, Note_on_c, 7, 67, 127
9, 98640, Control_c, 7, 7, 115
9, 98660, Control_c, 7, 7, 114
9, 98670, Control_c, 7, 7, 113
9, 98692, Note_on_c, 7, 83, 0
9, 98692, Note_on_c, 7, 71, 0
9, 98692, Note_on_c, 7, 79, 0
9, 98697, Note_on_c, 7, 67, 0
9, 98700, Note_on_c, 7, 71, 98
9, 98700, Note_on_c, 7, 83, 98
9, 98700, Note_on_c, 7, 79, 98
9, 98700, Note_on_c, 7, 67, 98
9, 98700, Control_c, 7, 7, 111
9, 98720, Control_c, 7, 7, 105
9, 98736, Note_on_c, 7, 67, 0
9, 98740, Control_c, 7, 7, 99
9, 98748, Note_on_c, 7, 79, 0
9, 98748, Note_on_c, 7, 71, 0
9, 98748, Note_on_c, 7, 83, 0
9, 98756, Note_on_c, 7, 67, 0
9, 98760, Note_on_c, 7, 71, 98
9, 98760, Note_on_c, 7, 83, 98
9, 98760, Note_on_c, 7, 79, 98
9, 98760, Note_on_c, 7, 67, 98
9, 98760, Note_on_c, 7, 67, 127
9, 98800, Control_c, 7, 7, 93
9, 98808, Note_on_c, 7, 79, 0
9, 98808, Note_on_c, 7, 71, 0
9, 98808, Note_on_c, 7, 83, 0
9, 98816, Note_on_c, 7, 67, 0
9, 98820, Note_on_c, 7, 71, 98
9, 98820, Note_on_c, 7, 83, 98
9, 98820, Note_on_c, 7, 79, 98
9, 98820, Note_on_c, 7, 67, 98
9, 98840, Control_c, 7, 7, 90
9, 98850, Control_c, 7, 7, 88
9, 98856, Note_on_c, 7, 67, 0
9, 98868, Note_on_c, 7, 79, 0
9, 98868, Note_on_c, 7, 71, 0
9, 98868, Note_on_c, 7, 83, 0
9, 98876, Note_on_c, 7, 67, 0
9, 98880, Note_on_c, 7, 74, 98
9, 98880, Note_on_c, 7, 78, 98
9, 98880, Note_on_c, 7, 69, 98
9, 98880, Note_on_c, 7, 69, 125
9, 98910, Control_c, 7, 7, 86
9, 98930, Control_c, 7, 7, 84
9, 98938, Note_on_c, 7, 78, 0
9, 98938, Note_on_c, 7, 74, 0
9, 98940, Note_on_c, 7, 74, 98
9, 98940, Note_on_c, 7, 78, 98
9, 98940, Note_on_c, 7, 69, 98
9, 98948, Note_on_c, 7, 69, 0
9, 98976, Note_on_c, 7, 69, 0
9, 98988, Note_on_c, 7, 78, 0
9, 98988, Note_on_c, 7, 74, 0
9, 98990, Control_c, 7, 7, 83
9, 98996, Note_on_c, 7, 69, 0
9, 99000, Note_on_c, 7, 74, 98
9, 99000, Note_on_c, 7, 78, 98
9, 99000, Note_on_c, 7, 69, 98
9, 99000, Note_on_c, 7, 69, 124
9, 99010, Control_c, 7, 7, 81
9, 99030, Control_c, 7, 7, 80
9, 99048, Note_on_c, 7, 78, 0
9, 99048, Note_on_c, 7, 74, 0
9, 99056, Note_on_c, 7, 69, 0
9, 99060, Note_on_c, 7, 74, 98
9, 99060, Note_on_c, 7, 78, 98
9, 99060, Note_on_c, 7, 69, 98
9, 99096, Note_on_c, 7, 69, 0
9, 99108, Note_on_c, 7, 74, 0
9, 99108, Note_on_c, 7, 78, 0
9, 99110, Control_c, 7, 7, 78
9, 99116, Note_on_c, 7, 69, 0
9, 99120, Note_on_c, 7, 73, 98
9, 99120, Note_on_c, 7, 76, 98
9, 99120, Note_on_c, 7, 57, 98
9, 99120, Note_on_c, 7, 57, 122
9, 99170, Control_c, 7, 7, 76
9, 99172, Note_on_c, 7, 76, 0
9, 99172, Note_on_c, 7, 73, 0
9, 99177, Note_on_c, 7, 57, 0
9, 99180, Note_on_c, 7, 73, 98
9, 99180, Note_on_c, 7, 76, 98
9, 99180, Note_on_c, 7, 57, 98
9, 99216, Note_on_c, 7, 57, 0
9, 99228, Note_on_c, 7, 73, 0
9, 99228, Note_on_c, 7, 76, 0
9, 99230, Control_c, 7, 7, 75
9, 99236, Note_on_c, 7, 57, 0
9, 99240, Note_on_c, 7, 73, 98
9, 99240, Note_on_c, 7, 76, 98
9, 99240, Note_on_c, 7, 57, 98
9, 99240, Note_on_c, 7, 57, 120
9, 99250, Control_c, 7, 7, 74
9, 99288, Note_on_c, 7, 76, 0
9, 99288, Note_on_c, 7, 73, 0
9, 99296, Note_on_c, 7, 57, 0
9, 99300, Note_on_c, 7, 73, 98
9, 99300, Note_on_c, 7, 76, 98
9, 99300, Note_on_c, 7, 57, 98
9, 99310, Control_c, 7, 7, 73
9, 99336, Note_on_c, 7, 57, 0
9, 99348, Note_on_c, 7, 73, 0
9, 99348, Note_on_c, 7, 76, 0
9, 99356, Note_on_c, 7, 57, 0
9, 99360, Note_on_c, 7, 74, 98
9, 99360, Note_on_c, 7, 78, 98
9, 99360, Note_on_c, 7, 62, 98
9, 99360, Note_on_c, 7, 62, 118
9, 99380, Control_c, 7, 7, 72
9, 99390, Control_c, 7, 7, 71
9, 99456, Note_on_c, 7, 62, 0
9, 99456, Note_on_c, 7, 74, 0
9, 99456, Note_on_c, 7, 78, 0
9, 99456, Note_on_c, 7, 62, 0
9, 99600, Control_c, 7, 7, 64
9, 99600, Control_c, 7, 7, 64
9, 99600, Control_c, 7, 7, 64
9, 99600, Control_c, 7, 7, 64
9, 99600, Control_c, 7, 7, 64
9, 99600, Control_c, 7, 7, 64
9, 99600, Control_c, 7, 7, 64
9, 99600, Control_c, 7, 7, 64
9, 99720, Note_on_c, 7, 62, 100
9, 99720, Note_on_c, 7, 74, 100
9, 99840, Note_on_c, 7, 74, 0
9, 99840, Note_on_c, 7, 62, 0
9, 99840, Note_on_c, 7, 64, 112
9, 99840, Note_on_c, 7, 76, 112
9, 99960, Note_on_c, 7, 76, 0
9, 99960, Note_on_c, 7, 64, 0
9, 99960, Note_on_c, 7, 66, 122
9, 99960, Note_on_c, 7, 78, 122
9, 100080, Note_on_c, 7, 78, 0
9, 100080, Note_on_c, 7, 66, 0
9, 100080, Note_on_c, 7, 67, 127
9, 100080, Note_on_c, 7, 79, 127
9, 100200, Note_on_c, 7, 79, 0
9, 100200, Note_on_c, 7, 67, 0
9, 100200, Note_on_c, 7, 68, 127
9, 100200, Note_on_c, 7, 80, 127
9, 100320, Note_on_c, 7, 80, 0
9, 100320, Note_on_c, 7, 68, 0
9, 100320, Note_on_c, 7, 71, 119
9, 100320, Note_on_c, 7, 83, 119
9, 100440, Note_on_c, 7, 83, 0
9, 100440, Note_on_c, 7, 71, 0
9, 100440, Note_on_c, 7, 69, 105
9, 100440, Note_on_c, 7, 81, 105
9, 100440, Control_c, 7, 7, 96
9, 100440, Control_c, 7, 7, 96
9, 100440, Note_on_c, 7, 61, 98
9, 100440, Control_c, 7, 7, 96
9, 100440, Control_c, 7, 7, 96
9, 100440, Note_on_c, 7, 61, 127
9, 100440, Control_c, 7, 7, 96
9, 100440, Control_c, 7, 7, 96
9, 100447, Control_c, 7, 7, 95
9, 100447, Control_c, 7, 7, 95
9, 100447, Control_c, 7, 7, 95
9, 100447, Control_c, 7, 7, 95
9, 100447, Control_c, 7, 7, 95
9, 100447, Control_c, 7, 7, 95
9, 100454, Control_c, 7, 7, 94
9, 100454, Control_c, 7, 7, 94
9, 100454, Control_c, 7, 7, 94
9, 100454, Control_c, 7, 7, 94
9, 100454, Control_c, 7, 7, 94
9, 100454, Control_c, 7, 7, 94
9, 100462, Control_c, 7, 7, 93
9, 100462, Control_c, 7, 7, 93
9, 100462, Control_c, 7, 7, 93
9, 100462, Control_c, 7, 7, 93
9, 100462, Control_c, 7, 7, 93
9, 100462, Control_c, 7, 7, 93
9, 100469, Control_c, 7, 7, 92
9, 100469, Control_c, 7, 7, 92
9, 100469, Control_c, 7, 7, 92
9, 100469, Control_c, 7, 7, 92
9, 100469, Control_c, 7, 7, 92
9, 100469, Control_c, 7, 7, 92
9, 100477, Control_c, 7, 7, 91
9, 100477, Control_c, 7, 7, 91
9, 100477, Control_c, 7, 7, 91
9, 100477, Control_c, 7, 7, 91
9, 100477, Control_c, 7, 7, 91
9, 100477, Control_c, 7, 7, 91
9, 100484, Control_c, 7, 7, 90
9, 100484, Control_c, 7, 7, 90
9, 100484, Control_c, 7, 7, 90
9, 100484, Control_c, 7, 7, 90
9, 100484, Control_c, 7, 7, 90
9, 100484, Control_c, 7, 7, 90
9, 100492, Control_c, 7, 7, 89
9, 100492, Control_c, 7, 7, 89
9, 100492, Control_c, 7, 7, 89
9, 100492, Control_c, 7, 7, 89
9, 100492, Control_c, 7, 7, 89
9, 100492, Control_c, 7, 7, 89
9, 100499, Control_c, 7, 7, 88
9, 100499, Control_c, 7, 7, 88
9, 100499, Control_c, 7, 7, 88
9, 100499, Control_c, 7, 7, 88
9, 100499, Control_c, 7, 7, 88
9, 100499, Control_c, 7, 7, 88
9, 100500, Note_on_c, 7, 69, 0
9, 100507, Control_c, 7, 7, 87
9, 100507, Control_c, 7, 7, 87
9, 100507, Control_c, 7, 7, 87
9, 100507, Control_c, 7, 7, 87
9, 100507, Control_c, 7, 7, 87
9, 100507, Control_c, 7, 7, 87
9, 100514, Control_c, 7, 7, 86
9, 100514, Control_c, 7, 7, 86
9, 100514, Control_c, 7, 7, 86
9, 100514, Control_c, 7, 7, 86
9, 100514, Control_c, 7, 7, 86
9, 100514, Control_c, 7, 7, 86
9, 100522, Control_c, 7, 7, 85
9, 100522, Control_c, 7, 7, 85
9, 100522, Control_c, 7, 7, 85
9, 100522, Control_c, 7, 7, 85
9, 100522, Control_c, 7, 7, 85
9, 100522, Control_c, 7, 7, 85
9, 100529, Control_c, 7, 7, 84
9, 100529, Control_c, 7, 7, 84
9, 100529, Control_c, 7, 7, 84
9, 100529, Control_c, 7, 7, 84
9, 100529, Control_c, 7, 7, 84
9, 100529, Control_c, 7, 7, 84
9, 100536, Note_on_c, 7, 81, 0
9, 100537, Control_c, 7, 7, 83
9, 100537, Control_c, 7, 7, 83
9, 100537, Control_c, 7, 7, 83
9, 100537, Control_c, 7, 7, 83
9, 100537, Control_c, 7, 7, 83
9, 100537, Control_c, 7, 7, 83
9, 100544, Control_c, 7, 7, 82
9, 100544, Control_c, 7, 7, 82
9, 100544, Control_c, 7, 7, 82
9, 100544, Control_c, 7, 7, 82
9, 100544, Control_c, 7, 7, 82
9, 100544, Control_c, 7, 7, 82
9, 100552, Control_c, 7, 7, 81
9, 100552, Control_c, 7, 7, 81
9, 100552, Control_c, 7, 7, 81
9, 100552, Control_c, 7, 7, 81
9, 100552, Control_c, 7, 7, 81
9, 100552, Control_c, 7, 7, 81
9, 100559, Control_c, 7, 7, 80
9, 100559, Control_c, 7, 7, 80
9, 100559, Control_c, 7, 7, 80
9, 100559, Control_c, 7, 7, 80
9, 100559, Control_c, 7, 7, 80
9, 100559, Control_c, 7, 7, 80
9, 100560, Note_on_c, 7, 61, 0
9, 100560, Note_on_c, 7, 61, 0
9, 100560, Note_on_c, 7, 62, 98
9, 100560, Note_on_c, 7, 62, 107
9, 100566, Control_c, 7, 7, 79
9, 100566, Control_c, 7, 7, 79
9, 100566, Control_c, 7, 7, 79
9, 100566, Control_c, 7, 7, 79
9, 100566, Control_c, 7, 7, 79
9, 100566, Control_c, 7, 7, 79
9, 100574, Control_c, 7, 7, 78
9, 100574, Control_c, 7, 7, 78
9, 100574, Control_c, 7, 7, 78
9, 100574, Control_c, 7, 7, 78
9, 100574, Control_c, 7, 7, 78
9, 100574, Control_c, 7, 7, 78
9, 100581, Control_c, 7, 7, 77
9, 100581, Control_c, 7, 7, 77
9, 100581, Control_c, 7, 7, 77
9, 100581, Control_c, 7, 7, 77
9, 100581, Control_c, 7, 7, 77
9, 100581, Control_c, 7, 7, 77
9, 100589, Control_c, 7, 7, 76
9, 100589, Control_c, 7, 7, 76
9, 100589, Control_c, 7, 7, 76
9, 100589, Control_c, 7, 7, 76
9, 100589, Control_c, 7, 7, 76
9, 100589, Control_c, 7, 7, 76
9, 100596, Control_c, 7, 7, 75
9, 100596, Control_c, 7, 7, 75
9, 100596, Control_c, 7, 7, 75
9, 100596, Control_c, 7, 7, 75
9, 100596, Control_c, 7, 7, 75
9, 100596, Control_c, 7, 7, 75
9, 100604, Control_c, 7, 7, 74
9, 100604, Control_c, 7, 7, 74
9, 100604, Control_c, 7, 7, 74
9, 100604, Control_c, 7, 7, 74
9, 100604, Control_c, 7, 7, 74
9, 100604, Control_c, 7, 7, 74
9, 100611, Control_c, 7, 7, 73
9, 100611, Control_c, 7, 7, 73
9, 100611, Control_c, 7, 7, 73
9, 100611, Control_c, 7, 7, 73
9, 100611, Control_c, 7, 7, 73
9, 100611, Control_c, 7, 7, 73
9, 100619, Control_c, 7, 7, 72
9, 100619, Control_c, 7, 7, 72
9, 100619, Control_c, 7, 7, 72
9, 100619, Control_c, 7, 7, 72
9, 100619, Control_c, 7, 7, 72
9, 100619, Control_c, 7, 7, 72
9, 100626, Control_c, 7, 7, 71
9, 100626, Control_c, 7, 7, 71
9, 100626, Control_c, 7, 7, 71
9, 100626, Control_c, 7, 7, 71
9, 100626, Control_c, 7, 7, 71
9, 100626, Control_c, 7, 7, 71
9, 100634, Control_c, 7, 7, 70
9, 100634, Control_c, 7, 7, 70
9, 100634, Control_c, 7, 7, 70
9, 100634, Control_c, 7, 7, 70
9, 100634, Control_c, 7, 7, 70
9, 100634, Control_c, 7, 7, 70
9, 100641, Control_c, 7, 7, 69
9, 100641, Control_c, 7, 7, 69
9, 100641, Control_c, 7, 7, 69
9, 100641, Control_c, 7, 7, 69
9, 100641, Control_c, 7, 7, 69
9, 100641, Control_c, 7, 7, 69
9, 100649, Control_c, 7, 7, 68
9, 100649, Control_c, 7, 7, 68
9, 100649, Control_c, 7, 7, 68
9, 100649, Control_c, 7, 7, 68
9, 100649, Control_c, 7, 7, 68
9, 100649, Control_c, 7, 7, 68
9, 100656, Note_on_c, 7, 62, 0
9, 100656, Note_on_c, 7, 62, 0
9, 100656, Control_c, 7, 7, 67
9, 100656, Control_c, 7, 7, 67
9, 100656, Control_c, 7, 7, 67
9, 100656, Control_c, 7, 7, 67
9, 100656, Control_c, 7, 7, 67
9, 100656, Control_c, 7, 7, 67
9, 100664, Control_c, 7, 7, 66
9, 100664, Control_c, 7, 7, 66
9, 100664, Control_c, 7, 7, 66
9, 100664, Control_c, 7, 7, 66
9, 100664, Control_c, 7, 7, 66
9, 100664, Control_c, 7, 7, 66
9, 100671, Control_c, 7, 7, 65
9, 100671, Control_c, 7, 7, 65
9, 100671, Control_c, 7, 7, 65
9, 100671, Control_c, 7, 7, 65
9, 100671, Control_c, 7, 7, 65
9, 100671, Control_c, 7, 7, 65
9, 100679, Control_c, 7, 7, 64
9, 100679, Control_c, 7, 7, 64
9, 100679, Control_c, 7, 7, 64
9, 100679, Control_c, 7, 7, 64
9, 100679, Control_c, 7, 7, 64
9, 100679, Control_c, 7, 7, 64
9, 100680, Note_on_c, 7, 74, 105
9, 100680, Note_on_c, 7, 62, 105
9, 100800, Note_on_c, 7, 62, 0
9, 100800, Note_on_c, 7, 74, 0
9, 100800, Note_on_c, 7, 76, 119
9, 100800, Note_on_c, 7, 64, 119
9, 100920, Note_on_c, 7, 64, 0
9, 100920, Note_on_c, 7, 76, 0
9, 100920, Note_on_c, 7, 78, 127
9, 100920, Note_on_c, 7, 66, 127
9, 101040, Note_on_c, 7, 66, 0
9, 101040, Note_on_c, 7, 78, 0
9, 101040, Note_on_c, 7, 79, 127
9, 101040, Note_on_c, 7, 67, 127
9, 101160, Note_on_c, 7, 67, 0
9, 101160, Note_on_c, 7, 79, 0
9, 101160, Note_on_c, 7, 80, 127
9, 101160, Note_on_c, 7, 68, 127
9, 101210, Control_c, 7, 7, 63
9, 101230, Control_c, 7, 7, 62
9, 101240, Control_c, 7, 7, 64
9, 101260, Control_c, 7, 7, 63
9, 101280, Note_on_c, 7, 68, 0
9, 101280, Note_on_c, 7, 80, 0
9, 101280, Note_on_c, 7, 83, 115
9, 101280, Note_on_c, 7, 71, 115
9, 101280, Control_c, 7, 7, 62
9, 101310, Control_c, 7, 7, 61
9, 101320, Control_c, 7, 7, 60
9, 101390, Control_c, 7, 7, 59
9, 101400, Note_on_c, 7, 71, 0
9, 101400, Note_on_c, 7, 83, 0
9, 101400, Note_on_c, 7, 81, 110
9, 101400, Note_on_c, 7, 69, 110
9, 101400, Note_on_c, 7, 61, 98
9, 101400, Note_on_c, 7, 61, 127
9, 101420, Control_c, 7, 7, 58
9, 101430, Control_c, 7, 7, 57
9, 101460, Note_on_c, 7, 69, 0
9, 101460, Control_c, 7, 7, 56
9, 101496, Note_on_c, 7, 81, 0
9, 101520, Note_on_c, 7, 61, 0
9, 101520, Note_on_c, 7, 61, 0
9, 101520, Note_on_c, 7, 62, 98
9, 101520, Note_on_c, 7, 62, 98
9, 101540, Control_c, 7, 7, 41
9, 101616, Note_on_c, 7, 62, 0
9, 101616, Note_on_c, 7, 62, 0
9, 101620, Control_c, 7, 7, 43
9, 101640, Note_on_c, 7, 74, 98
9, 101640, Note_on_c, 7, 62, 98
9, 101680, Control_c, 7, 7, 44
9, 101760, Note_on_c, 7, 62, 0
9, 101760, Note_on_c, 7, 74, 0
9, 101760, Note_on_c, 7, 76, 94
9, 101760, Note_on_c, 7, 64, 94
9, 101760, Control_c, 7, 7, 45
9, 101820, Control_c, 7, 7, 47
9, 101880, Note_on_c, 7, 64, 0
9, 101880, Note_on_c, 7, 76, 0
9, 101880, Note_on_c, 7, 77, 102
9, 101880, Note_on_c, 7, 65, 102
9, 101900, Control_c, 7, 7, 48
9, 101920, Control_c, 7, 7, 49
9, 102000, Note_on_c, 7, 65, 0
9, 102000, Note_on_c, 7, 77, 0
9, 102000, Note_on_c, 7, 79, 112
9, 102000, Note_on_c, 7, 67, 112
9, 102000, Control_c, 7, 7, 50
9, 102060, Control_c, 7, 7, 51
9, 102120, Note_on_c, 7, 67, 0
9, 102120, Note_on_c, 7, 79, 0
9, 102120, Note_on_c, 7, 81, 114
9, 102120, Note_on_c, 7, 69, 114
9, 102120, Control_c, 7, 7, 52
9, 102140, Control_c, 7, 7, 53
9, 102160, Control_c, 7, 7, 54
9, 102220, Control_c, 7, 7, 55
9, 102240, Note_on_c, 7, 69, 0
9, 102240, Note_on_c, 7, 81, 0
9, 102240, Note_on_c, 7, 70, 114
9, 102240, Note_on_c, 7, 82, 114
9, 102280, Control_c, 7, 7, 57
9, 102310, Control_c, 7, 7, 58
9, 102330, Control_c, 7, 7, 59
9, 102350, Control_c, 7, 7, 60
9, 102370, Control_c, 7, 7, 61
9, 102390, Control_c, 7, 7, 62
9, 102410, Control_c, 7, 7, 63
9, 102420, Control_c, 7, 7, 64
9, 102430, Control_c, 7, 7, 65
9, 102600, Note_on_c, 7, 64, 86
9, 102600, Note_on_c, 7, 48, 86
9, 102720, Note_on_c, 7, 48, 0
9, 102720, Note_on_c, 7, 64, 0
9, 102720, Note_on_c, 7, 65, 97
9, 102720, Note_on_c, 7, 49, 97
9, 102840, Note_on_c, 7, 49, 0
9, 102840, Note_on_c, 7, 65, 0
9, 102840, Note_on_c, 7, 66, 106
9, 102840, Note_on_c, 7, 50, 106
9, 102960, Note_on_c, 7, 50, 0
9, 102960, Note_on_c, 7, 66, 0
9, 102960, Note_on_c, 7, 67, 120
9, 102960, Note_on_c, 7, 51, 120
9, 103080, Note_on_c, 7, 51, 0
9, 103080, Note_on_c, 7, 67, 0
9, 103080, Note_on_c, 7, 61, 121
9, 103080, Note_on_c, 7, 52, 121
9, 103200, Note_on_c, 7, 52, 0
9, 103200, Note_on_c, 7, 61, 0
9, 103200, Note_on_c, 7, 60, 122
9, 103200, Note_on_c, 7, 53, 122
9, 103440, Note_on_c, 7, 82, 0
9, 103440, Note_on_c, 7, 70, 0
9, 103440, Note_on_c, 7, 69, 125
9, 103440, Note_on_c, 7, 81, 125
9, 103440, Note_on_c, 7, 41, 125
9, 103632, Note_on_c, 7, 41, 0
9, 103680, Note_on_c, 7, 53, 0
9, 103680, Note_on_c, 7, 60, 0
9, 103680, Note_on_c, 7, 58, 126
9, 103680, Note_on_c, 7, 55, 126
9, 103920, Note_on_c, 7, 69, 0
9, 103920, Note_on_c, 7, 81, 0
9, 103920, Note_on_c, 7, 67, 127
9, 103920, Note_on_c, 7, 79, 127
9, 104064, Note_on_c, 7, 55, 0
9, 104160, Note_on_c, 7, 58, 0
9, 104160, Note_on_c, 7, 57, 127
9, 104160, Note_on_c, 7, 57, 127
9, 104352, Note_on_c, 7, 57, 0
9, 104400, Note_on_c, 7, 79, 0
9, 104400, Note_on_c, 7, 67, 0
9, 104400, Note_on_c, 7, 57, 0
9, 104400, Note_on_c, 7, 65, 117
9, 104400, Note_on_c, 7, 77, 117
9, 104400, Note_on_c, 7, 62, 117
9, 104400, Note_on_c, 7, 58, 117
9, 104592, Note_on_c, 7, 58, 0
9, 104592, Note_on_c, 7, 65, 0
9, 104592, Note_on_c, 7, 77, 0
9, 104640, Note_on_c, 7, 62, 0
9, 104640, Note_on_c, 7, 64, 100
9, 104640, Note_on_c, 7, 76, 100
9, 104640, Note_on_c, 7, 62, 100
9, 104640, Note_on_c, 7, 55, 100
9, 104664, Note_on_c, 7, 76, 0
9, 104664, Note_on_c, 7, 64, 0
9, 104670, Note_on_c, 7, 65, 102
9, 104670, Note_on_c, 7, 77, 102
9, 104694, Note_on_c, 7, 77, 0
9, 104694, Note_on_c, 7, 65, 0
9, 104700, Note_on_c, 7, 64, 102
9, 104700, Note_on_c, 7, 76, 102
9, 104724, Note_on_c, 7, 76, 0
9, 104724, Note_on_c, 7, 64, 0
9, 104730, Note_on_c, 7, 65, 105
9, 104730, Note_on_c, 7, 77, 105
9, 104754, Note_on_c, 7, 77, 0
9, 104754, Note_on_c, 7, 65, 0
9, 104760, Note_on_c, 7, 64, 105
9, 104760, Note_on_c, 7, 76, 105
9, 104784, Note_on_c, 7, 76, 0
9, 104784, Note_on_c, 7, 64, 0
9, 104790, Note_on_c, 7, 65, 108
9, 104790, Note_on_c, 7, 77, 108
9, 104814, Note_on_c, 7, 77, 0
9, 104814, Note_on_c, 7, 65, 0
9, 104820, Note_on_c, 7, 64, 109
9, 104820, Note_on_c, 7, 76, 109
9, 104832, Note_on_c, 7, 55, 0
9, 104844, Note_on_c, 7, 76, 0
9, 104844, Note_on_c, 7, 64, 0
9, 104850, Note_on_c, 7, 65, 110
9, 104850, Note_on_c, 7, 77, 110
9, 104874, Note_on_c, 7, 77, 0
9, 104874, Note_on_c, 7, 65, 0
9, 104880, Note_on_c, 7, 62, 0
9, 104880, Note_on_c, 7, 64, 112
9, 104880, Note_on_c, 7, 76, 112
9, 104880, Note_on_c, 7, 61, 112
9, 104880, Note_on_c, 7, 57, 112
9, 104904, Note_on_c, 7, 76, 0
9, 104904, Note_on_c, 7, 64, 0
9, 104910, Note_on_c, 7, 65, 113
9, 104910, Note_on_c, 7, 77, 113
9, 104934, Note_on_c, 7, 77, 0
9, 104934, Note_on_c, 7, 65, 0
9, 104940, Note_on_c, 7, 64, 113
9, 104940, Note_on_c, 7, 76, 113
9, 104964, Note_on_c, 7, 76, 0
9, 104964, Note_on_c, 7, 64, 0
9, 104970, Note_on_c, 7, 65, 114
9, 104970, Note_on_c, 7, 77, 114
9, 104994, Note_on_c, 7, 77, 0
9, 104994, Note_on_c, 7, 65, 0
9, 105000, Note_on_c, 7, 64, 116
9, 105000, Note_on_c, 7, 76, 116
9, 105024, Note_on_c, 7, 76, 0
9, 105024, Note_on_c, 7, 64, 0
9, 105030, Note_on_c, 7, 65, 117
9, 105030, Note_on_c, 7, 77, 117
9, 105054, Note_on_c, 7, 77, 0
9, 105054, Note_on_c, 7, 65, 0
9, 105060, Note_on_c, 7, 64, 119
9, 105060, Note_on_c, 7, 76, 119
9, 105072, Note_on_c, 7, 57, 0
9, 105076, Note_on_c, 7, 76, 0
9, 105076, Note_on_c, 7, 64, 0
9, 105080, Note_on_c, 7, 62, 119
9, 105080, Note_on_c, 7, 74, 119
9, 105096, Note_on_c, 7, 74, 0
9, 105096, Note_on_c, 7, 62, 0
9, 105100, Note_on_c, 7, 64, 121
9, 105100, Note_on_c, 7, 76, 121
9, 105116, Note_on_c, 7, 76, 0
9, 105116, Note_on_c, 7, 64, 0
9, 105120, Note_on_c, 7, 61, 0
9, 105120, Note_on_c, 7, 74, 121
9, 105120, Note_on_c, 7, 62, 121
9, 105120, Note_on_c, 7, 62, 121
9, 105120, Note_on_c, 7, 50, 121
9, 105178, Note_on_c, 7, 62, 0
9, 105180, Note_on_c, 7, 69, 124
9, 105216, Note_on_c, 7, 74, 0
9, 105228, Note_on_c, 7, 69, 0
9, 105240, Note_on_c, 7, 62, 0
9, 105240, Note_on_c, 7, 66, 126
9, 105288, Note_on_c, 7, 66, 0
9, 105300, Note_on_c, 7, 69, 126
9, 105348, Note_on_c, 7, 69, 0
9, 105360, Note_on_c, 7, 66, 126
9, 105412, Note_on_c, 7, 66, 0
9, 105420, Note_on_c, 7, 69, 126
9, 105468, Note_on_c, 7, 69, 0
9, 105480, Note_on_c, 7, 66, 126
9, 105528, Note_on_c, 7, 66, 0
9, 105540, Note_on_c, 7, 69, 126
9, 105588, Note_on_c, 7, 69, 0
9, 105600, Note_on_c, 7, 74, 126
9, 105600, Note_on_c, 7, 66, 126
9, 105600, Note_on_c, 7, 62, 126
9, 105600, Control_c, 7, 7, 47
9, 105658, Note_on_c, 7, 66, 0
9, 105660, Note_on_c, 7, 69, 127
9, 105670, Control_c, 7, 7, 49
9, 105708, Note_on_c, 7, 69, 0
9, 105720, Note_on_c, 7, 66, 127
9, 105740, Control_c, 7, 7, 50
9, 105768, Note_on_c, 7, 66, 0
9, 105770, Control_c, 7, 7, 51
9, 105780, Note_on_c, 7, 69, 126
9, 105810, Control_c, 7, 7, 53
9, 105828, Note_on_c, 7, 69, 0
9, 105840, Note_on_c, 7, 66, 126
9, 105850, Control_c, 7, 7, 54
9, 105880, Control_c, 7, 7, 55
9, 105890, Control_c, 7, 7, 56
9, 105892, Note_on_c, 7, 66, 0
9, 105900, Note_on_c, 7, 69, 126
9, 105910, Control_c, 7, 7, 57
9, 105920, Control_c, 7, 7, 58
9, 105948, Note_on_c, 7, 69, 0
9, 105960, Note_on_c, 7, 74, 0
9, 105960, Note_on_c, 7, 78, 126
9, 105960, Note_on_c, 7, 66, 126
9, 105970, Control_c, 7, 7, 60
9, 106000, Control_c, 7, 7, 61
9, 106008, Note_on_c, 7, 66, 0
9, 106010, Control_c, 7, 7, 62
9, 106020, Note_on_c, 7, 69, 126
9, 106030, Control_c, 7, 7, 63
9, 106050, Control_c, 7, 7, 64
9, 106056, Note_on_c, 7, 78, 0
9, 106060, Control_c, 7, 7, 65
9, 106068, Note_on_c, 7, 69, 0
9, 106080, Note_on_c, 7, 62, 0
9, 106080, Note_on_c, 7, 76, 126
9, 106080, Note_on_c, 7, 67, 126
9, 106080, Note_on_c, 7, 61, 126
9, 106080, Control_c, 7, 7, 64
9, 106080, Control_c, 7, 7, 64
9, 106080, Control_c, 7, 7, 64
9, 106080, Control_c, 7, 7, 64
9, 106090, Control_c, 7, 7, 66
9, 106109, Control_c, 7, 7, 65
9, 106109, Control_c, 7, 7, 65
9, 106109, Control_c, 7, 7, 65
9, 106109, Control_c, 7, 7, 65
9, 106110, Control_c, 7, 7, 67
9, 106138, Note_on_c, 7, 67, 0
9, 106139, Control_c, 7, 7, 66
9, 106139, Control_c, 7, 7, 66
9, 106139, Control_c, 7, 7, 66
9, 106139, Control_c, 7, 7, 66
9, 106140, Note_on_c, 7, 69, 126
9, 106160, Control_c, 7, 7, 68
9, 106169, Control_c, 7, 7, 67
9, 106169, Control_c, 7, 7, 67
9, 106169, Control_c, 7, 7, 67
9, 106169, Control_c, 7, 7, 67
9, 106188, Note_on_c, 7, 69, 0
9, 106199, Control_c, 7, 7, 68
9, 106199, Control_c, 7, 7, 68
9, 106199, Control_c, 7, 7, 68
9, 106199, Control_c, 7, 7, 68
9, 106200, Note_on_c, 7, 76, 0
9, 106200, Note_on_c, 7, 73, 126
9, 106200, Note_on_c, 7, 67, 126
9, 106229, Control_c, 7, 7, 69
9, 106229, Control_c, 7, 7, 69
9, 106229, Control_c, 7, 7, 69
9, 106229, Control_c, 7, 7, 69
9, 106248, Note_on_c, 7, 67, 0
9, 106250, Control_c, 7, 7, 69
9, 106259, Control_c, 7, 7, 70
9, 106259, Control_c, 7, 7, 70
9, 106259, Control_c, 7, 7, 70
9, 106259, Control_c, 7, 7, 70
9, 106260, Note_on_c, 7, 69, 126
9, 106260, Control_c, 7, 7, 70
9, 106289, Control_c, 7, 7, 71
9, 106289, Control_c, 7, 7, 71
9, 106289, Control_c, 7, 7, 71
9, 106289, Control_c, 7, 7, 71
9, 106308, Note_on_c, 7, 69, 0
9, 106319, Control_c, 7, 7, 72
9, 106319, Control_c, 7, 7, 72
9, 106319, Control_c, 7, 7, 72
9, 106319, Control_c, 7, 7, 72
9, 106320, Note_on_c, 7, 73, 0
9, 106320, Note_on_c, 7, 71, 127
9, 106320, Note_on_c, 7, 64, 127
9, 106349, Control_c, 7, 7, 73
9, 106349, Control_c, 7, 7, 73
9, 106349, Control_c, 7, 7, 73
9, 106349, Control_c, 7, 7, 73
9, 106370, Control_c, 7, 7, 71
9, 106372, Note_on_c, 7, 64, 0
9, 106379, Control_c, 7, 7, 74
9, 106379, Control_c, 7, 7, 74
9, 106379, Control_c, 7, 7, 74
9, 106379, Control_c, 7, 7, 74
9, 106380, Note_on_c, 7, 69, 127
9, 106400, Control_c, 7, 7, 72
9, 106409, Control_c, 7, 7, 75
9, 106409, Control_c, 7, 7, 75
9, 106409, Control_c, 7, 7, 75
9, 106409, Control_c, 7, 7, 75
9, 106410, Control_c, 7, 7, 73
9, 106428, Note_on_c, 7, 69, 0
9, 106439, Control_c, 7, 7, 76
9, 106439, Control_c, 7, 7, 76
9, 106439, Control_c, 7, 7, 76
9, 106439, Control_c, 7, 7, 76
9, 106440, Note_on_c, 7, 71, 0
9, 106440, Note_on_c, 7, 69, 127
9, 106440, Note_on_c, 7, 64, 127
9, 106450, Control_c, 7, 7, 74
9, 106469, Control_c, 7, 7, 77
9, 106469, Control_c, 7, 7, 77
9, 106469, Control_c, 7, 7, 77
9, 106469, Control_c, 7, 7, 77
9, 106470, Control_c, 7, 7, 75
9, 106488, Note_on_c, 7, 64, 0
9, 106490, Control_c, 7, 7, 77
9, 106499, Control_c, 7, 7, 78
9, 106499, Control_c, 7, 7, 78
9, 106499, Control_c, 7, 7, 78
9, 106499, Control_c, 7, 7, 78
9, 106500, Note_on_c, 7, 69, 127
9, 106510, Control_c, 7, 7, 78
9, 106529, Control_c, 7, 7, 79
9, 106529, Control_c, 7, 7, 79
9, 106529, Control_c, 7, 7, 79
9, 106529, Control_c, 7, 7, 79
9, 106536, Note_on_c, 7, 69, 0
9, 106548, Note_on_c, 7, 69, 0
9, 106550, Control_c, 7, 7, 80
9, 106559, Control_c, 7, 7, 80
9, 106559, Control_c, 7, 7, 80
9, 106559, Control_c, 7, 7, 80
9, 106559, Control_c, 7, 7, 80
9, 106560, Note_on_c, 7, 61, 0
9, 106560, Note_on_c, 7, 81, 127
9, 106560, Note_on_c, 7, 66, 127
9, 106560, Note_on_c, 7, 62, 127
9, 106570, Control_c, 7, 7, 81
9, 106589, Control_c, 7, 7, 81
9, 106589, Control_c, 7, 7, 81
9, 106589, Control_c, 7, 7, 81
9, 106589, Control_c, 7, 7, 81
9, 106600, Control_c, 7, 7, 82
9, 106618, Note_on_c, 7, 66, 0
9, 106619, Control_c, 7, 7, 82
9, 106619, Control_c, 7, 7, 82
9, 106619, Control_c, 7, 7, 82
9, 106619, Control_c, 7, 7, 82
9, 106620, Note_on_c, 7, 69, 127
9, 106640, Control_c, 7, 7, 83
9, 106649, Control_c, 7, 7, 83
9, 106649, Control_c, 7, 7, 83
9, 106649, Control_c, 7, 7, 83
9, 106649, Control_c, 7, 7, 83
9, 106656, Note_on_c, 7, 81, 0
9, 106668, Note_on_c, 7, 69, 0
9, 106679, Control_c, 7, 7, 84
9, 106679, Control_c, 7, 7, 84
9, 106679, Control_c, 7, 7, 84
9, 106679, Control_c, 7, 7, 84
9, 106680, Note_on_c, 7, 81, 127
9, 106680, Note_on_c, 7, 66, 127
9, 106709, Control_c, 7, 7, 85
9, 106709, Control_c, 7, 7, 85
9, 106709, Control_c, 7, 7, 85
9, 106709, Control_c, 7, 7, 85
9, 106728, Note_on_c, 7, 66, 0
9, 106739, Control_c, 7, 7, 86
9, 106739, Control_c, 7, 7, 86
9, 106739, Control_c, 7, 7, 86
9, 106739, Control_c, 7, 7, 86
9, 106740, Note_on_c, 7, 69, 127
9, 106740, Control_c, 7, 7, 84
9, 106769, Control_c, 7, 7, 87
9, 106769, Control_c, 7, 7, 87
9, 106769, Control_c, 7, 7, 87
9, 106769, Control_c, 7, 7, 87
9, 106776, Note_on_c, 7, 81, 0
9, 106788, Note_on_c, 7, 69, 0
9, 106799, Control_c, 7, 7, 88
9, 106799, Control_c, 7, 7, 88
9, 106799, Control_c, 7, 7, 88
9, 106799, Control_c, 7, 7, 88
9, 106800, Note_on_c, 7, 62, 0
9, 106800, Note_on_c, 7, 81, 127
9, 106800, Note_on_c, 7, 67, 127
9, 106800, Note_on_c, 7, 64, 127
9, 106829, Control_c, 7, 7, 89
9, 106829, Control_c, 7, 7, 89
9, 106829, Control_c, 7, 7, 89
9, 106829, Control_c, 7, 7, 89
9, 106852, Note_on_c, 7, 67, 0
9, 106859, Control_c, 7, 7, 90
9, 106859, Control_c, 7, 7, 90
9, 106859, Control_c, 7, 7, 90
9, 106859, Control_c, 7, 7, 90
9, 106860, Note_on_c, 7, 69, 127
9, 106889, Control_c, 7, 7, 91
9, 106889, Control_c, 7, 7, 91
9, 106889, Control_c, 7, 7, 91
9, 106889, Control_c, 7, 7, 91
9, 106896, Note_on_c, 7, 81, 0
9, 106908, Note_on_c, 7, 69, 0
9, 106919, Control_c, 7, 7, 92
9, 106919, Control_c, 7, 7, 92
9, 106919, Control_c, 7, 7, 92
9, 106919, Control_c, 7, 7, 92
9, 106920, Note_on_c, 7, 81, 127
9, 106920, Note_on_c, 7, 67, 127
9, 106949, Control_c, 7, 7, 93
9, 106949, Control_c, 7, 7, 93
9, 106949, Control_c, 7, 7, 93
9, 106949, Control_c, 7, 7, 93
9, 106968, Note_on_c, 7, 67, 0
9, 106979, Control_c, 7, 7, 94
9, 106979, Control_c, 7, 7, 94
9, 106979, Control_c, 7, 7, 94
9, 106979, Control_c, 7, 7, 94
9, 106980, Note_on_c, 7, 69, 127
9, 107009, Control_c, 7, 7, 95
9, 107009, Control_c, 7, 7, 95
9, 107009, Control_c, 7, 7, 95
9, 107009, Control_c, 7, 7, 95
9, 107016, Note_on_c, 7, 81, 0
9, 107028, Note_on_c, 7, 69, 0
9, 107039, Control_c, 7, 7, 96
9, 107039, Control_c, 7, 7, 96
9, 107039, Control_c, 7, 7, 96
9, 107039, Control_c, 7, 7, 96
9, 107040, Note_on_c, 7, 64, 0
9, 107040, Note_on_c, 7, 81, 127
9, 107040, Note_on_c, 7, 66, 127
9, 107040, Note_on_c, 7, 62, 127
9, 107040, Control_c, 7, 7, 96
9, 107040, Control_c, 7, 7, 96
9, 107040, Control_c, 7, 7, 96
9, 107040, Control_c, 7, 7, 96
9, 107050, Control_c, 7, 7, 96
9, 107070, Control_c, 7, 7, 95
9, 107090, Control_c, 7, 7, 94
9, 107098, Note_on_c, 7, 66, 0
9, 107100, Note_on_c, 7, 69, 127
9, 107120, Control_c, 7, 7, 93
9, 107140, Control_c, 7, 7, 92
9, 107148, Note_on_c, 7, 69, 0
9, 107150, Control_c, 7, 7, 91
9, 107160, Note_on_c, 7, 66, 127
9, 107190, Note_on_c, 7, 81, 0
9, 107190, Control_c, 7, 7, 90
9, 107200, Control_c, 7, 7, 89
9, 107208, Note_on_c, 7, 66, 0
9, 107220, Note_on_c, 7, 83, 127
9, 107220, Note_on_c, 7, 69, 127
9, 107240, Note_on_c, 7, 83, 0
9, 107240, Note_on_c, 7, 81, 127
9, 107240, Control_c, 7, 7, 88
9, 107250, Control_c, 7, 7, 87
9, 107260, Note_on_c, 7, 81, 0
9, 107260, Note_on_c, 7, 79, 127
9, 107268, Note_on_c, 7, 69, 0
9, 107270, Control_c, 7, 7, 83
9, 107280, Note_on_c, 7, 79, 0
9, 107280, Note_on_c, 7, 78, 127
9, 107280, Note_on_c, 7, 66, 127
9, 107280, Control_c, 7, 7, 82
9, 107290, Control_c, 7, 7, 81
9, 107300, Control_c, 7, 7, 79
9, 107320, Control_c, 7, 7, 77
9, 107330, Control_c, 7, 7, 75
9, 107332, Note_on_c, 7, 66, 0
9, 107340, Note_on_c, 7, 69, 127
9, 107350, Control_c, 7, 7, 73
9, 107360, Control_c, 7, 7, 72
9, 107370, Control_c, 7, 7, 71
9, 107376, Note_on_c, 7, 78, 0
9, 107388, Note_on_c, 7, 69, 0
9, 107390, Control_c, 7, 7, 69
9, 107400, Note_on_c, 7, 66, 126
9, 107400, Control_c, 7, 7, 68
9, 107410, Control_c, 7, 7, 67
9, 107424, Note_on_c, 7, 50, 0
9, 107424, Note_on_c, 7, 62, 0
9, 107430, Control_c, 7, 7, 66
9, 107440, Control_c, 7, 7, 65
9, 107448, Note_on_c, 7, 66, 0
9, 107450, Control_c, 7, 7, 64
9, 107460, Note_on_c, 7, 69, 125
9, 107470, Control_c, 7, 7, 63
9, 107508, Note_on_c, 7, 69, 0
9, 107510, Control_c, 7, 7, 62
9, 107520, Note_on_c, 7, 86, 125
9, 107520, Note_on_c, 7, 69, 125
9, 107520, Note_on_c, 7, 54, 125
9, 107520, Note_on_c, 7, 54, 125
9, 107520, Control_c, 7, 7, 61
9, 107578, Note_on_c, 7, 69, 0
9, 107580, Note_on_c, 7, 74, 125
9, 107628, Note_on_c, 7, 74, 0
9, 107640, Note_on_c, 7, 69, 125
9, 107688, Note_on_c, 7, 69, 0
9, 107700, Note_on_c, 7, 74, 125
9, 107748, Note_on_c, 7, 74, 0
9, 107760, Note_on_c, 7, 69, 125
9, 107812, Note_on_c, 7, 69, 0
9, 107820, Note_on_c, 7, 74, 125
9, 107868, Note_on_c, 7, 74, 0
9, 107880, Note_on_c, 7, 86, 0
9, 107880, Note_on_c, 7, 78, 125
9, 107880, Note_on_c, 7, 69, 125
9, 107904, Note_on_c, 7, 54, 0
9, 107928, Note_on_c, 7, 69, 0
9, 107940, Note_on_c, 7, 74, 125
9, 107970, Note_on_c, 7, 54, 0
9, 107976, Note_on_c, 7, 78, 0
9, 107988, Note_on_c, 7, 74, 0
9, 108000, Note_on_c, 7, 76, 125
9, 108000, Note_on_c, 7, 67, 125
9, 108000, Note_on_c, 7, 55, 125
9, 108000, Note_on_c, 7, 55, 125
9, 108000, Control_c, 7, 7, 65
9, 108030, Control_c, 7, 7, 66
9, 108058, Note_on_c, 7, 67, 0
9, 108060, Note_on_c, 7, 71, 125
9, 108090, Control_c, 7, 7, 67
9, 108108, Note_on_c, 7, 71, 0
9, 108120, Note_on_c, 7, 76, 0
9, 108120, Note_on_c, 7, 79, 125
9, 108120, Note_on_c, 7, 67, 125
9, 108120, Control_c, 7, 7, 68
9, 108140, Control_c, 7, 7, 69
9, 108160, Control_c, 7, 7, 70
9, 108168, Note_on_c, 7, 67, 0
9, 108180, Note_on_c, 7, 71, 125
9, 108190, Control_c, 7, 7, 71
9, 108210, Control_c, 7, 7, 72
9, 108228, Note_on_c, 7, 71, 0
9, 108230, Control_c, 7, 7, 73
9, 108240, Note_on_c, 7, 79, 0
9, 108240, Note_on_c, 7, 83, 125
9, 108240, Note_on_c, 7, 67, 125
9, 108250, Control_c, 7, 7, 74
9, 108290, Control_c, 7, 7, 75
9, 108292, Note_on_c, 7, 67, 0
9, 108300, Note_on_c, 7, 71, 125
9, 108310, Control_c, 7, 7, 76
9, 108330, Control_c, 7, 7, 77
9, 108336, Note_on_c, 7, 83, 0
9, 108348, Note_on_c, 7, 71, 0
9, 108360, Note_on_c, 7, 83, 125
9, 108360, Note_on_c, 7, 67, 125
9, 108360, Control_c, 7, 7, 78
9, 108384, Note_on_c, 7, 55, 0
9, 108408, Note_on_c, 7, 67, 0
9, 108420, Note_on_c, 7, 71, 125
9, 108430, Control_c, 7, 7, 79
9, 108450, Note_on_c, 7, 55, 0
9, 108450, Control_c, 7, 7, 80
9, 108456, Note_on_c, 7, 83, 0
9, 108468, Note_on_c, 7, 71, 0
9, 108470, Control_c, 7, 7, 81
9, 108480, Note_on_c, 7, 79, 125
9, 108480, Note_on_c, 7, 64, 125
9, 108480, Note_on_c, 7, 57, 125
9, 108480, Note_on_c, 7, 57, 125
9, 108480, Control_c, 7, 7, 82
9, 108500, Control_c, 7, 7, 80
9, 108520, Control_c, 7, 7, 81
9, 108530, Control_c, 7, 7, 82
9, 108538, Note_on_c, 7, 64, 0
9, 108540, Note_on_c, 7, 67, 125
9, 108570, Control_c, 7, 7, 83
9, 108588, Note_on_c, 7, 67, 0
9, 108600, Note_on_c, 7, 79, 0
9, 108600, Note_on_c, 7, 76, 125
9, 108600, Note_on_c, 7, 64, 125
9, 108620, Control_c, 7, 7, 84
9, 108648, Note_on_c, 7, 64, 0
9, 108660, Note_on_c, 7, 67, 125
9, 108680, Control_c, 7, 7, 85
9, 108700, Control_c, 7, 7, 86
9, 108708, Note_on_c, 7, 67, 0
9, 108720, Note_on_c, 7, 76, 0
9, 108720, Note_on_c, 7, 73, 125
9, 108720, Note_on_c, 7, 64, 125
9, 108720, Control_c, 7, 7, 87
9, 108760, Control_c, 7, 7, 88
9, 108772, Note_on_c, 7, 64, 0
9, 108780, Note_on_c, 7, 67, 125
9, 108780, Control_c, 7, 7, 89
9, 108790, Control_c, 7, 7, 90
9, 108810, Control_c, 7, 7, 91
9, 108816, Note_on_c, 7, 73, 0
9, 108820, Control_c, 7, 7, 92
9, 108828, Note_on_c, 7, 67, 0
9, 108840, Note_on_c, 7, 73, 125
9, 108840, Note_on_c, 7, 64, 125
9, 108860, Control_c, 7, 7, 94
9, 108864, Note_on_c, 7, 57, 0
9, 108870, Control_c, 7, 7, 95
9, 108888, Note_on_c, 7, 64, 0
9, 108900, Note_on_c, 7, 67, 125
9, 108900, Control_c, 7, 7, 96
9, 108920, Control_c, 7, 7, 97
9, 108930, Note_on_c, 7, 57, 0
9, 108936, Note_on_c, 7, 73, 0
9, 108948, Note_on_c, 7, 67, 0
9, 108950, Control_c, 7, 7, 97
9, 108960, Note_on_c, 7, 74, 125
9, 108960, Note_on_c, 7, 62, 125
9, 108960, Note_on_c, 7, 50, 125
9, 108960, Control_c, 7, 7, 96
9, 108990, Control_c, 7, 7, 95
9, 109000, Control_c, 7, 7, 97
9, 109010, Control_c, 7, 7, 94
9, 109018, Note_on_c, 7, 62, 0
9, 109020, Note_on_c, 7, 66, 125
9, 109020, Control_c, 7, 7, 93
9, 109030, Control_c, 7, 7, 92
9, 109040, Control_c, 7, 7, 91
9, 109060, Control_c, 7, 7, 90
9, 109068, Note_on_c, 7, 66, 0
9, 109080, Note_on_c, 7, 74, 0
9, 109080, Note_on_c, 7, 69, 125
9, 109080, Note_on_c, 7, 62, 125
9, 109128, Note_on_c, 7, 62, 0
9, 109130, Control_c, 7, 7, 88
9, 109140, Note_on_c, 7, 66, 125
9, 109150, Control_c, 7, 7, 86
9, 109170, Control_c, 7, 7, 85
9, 109188, Note_on_c, 7, 66, 0
9, 109190, Control_c, 7, 7, 84
9, 109200, Note_on_c, 7, 69, 0
9, 109200, Note_on_c, 7, 66, 125
9, 109200, Note_on_c, 7, 62, 125
9, 109200, Control_c, 7, 7, 83
9, 109220, Control_c, 7, 7, 82
9, 109230, Control_c, 7, 7, 81
9, 109250, Control_c, 7, 7, 80
9, 109252, Note_on_c, 7, 62, 0
9, 109260, Note_on_c, 7, 66, 125
9, 109280, Control_c, 7, 7, 79
9, 109290, Control_c, 7, 7, 78
9, 109296, Note_on_c, 7, 66, 0
9, 109308, Note_on_c, 7, 66, 0
9, 109310, Control_c, 7, 7, 76
9, 109320, Note_on_c, 7, 66, 125
9, 109320, Note_on_c, 7, 62, 125
9, 109340, Control_c, 7, 7, 74
9, 109350, Control_c, 7, 7, 73
9, 109368, Note_on_c, 7, 62, 0
9, 109370, Control_c, 7, 7, 72
9, 109380, Note_on_c, 7, 66, 125
9, 109380, Control_c, 7, 7, 71
9, 109400, Control_c, 7, 7, 70
9, 109410, Control_c, 7, 7, 68
9, 109416, Note_on_c, 7, 66, 0
9, 109428, Note_on_c, 7, 66, 0
9, 109430, Control_c, 7, 7, 67
9, 109440, Note_on_c, 7, 57, 125
9, 109440, Note_on_c, 7, 62, 125
9, 109440, Note_on_c, 7, 54, 125
9, 109440, Control_c, 7, 7, 66
9, 109450, Control_c, 7, 7, 66
9, 109470, Control_c, 7, 7, 65
9, 109498, Note_on_c, 7, 54, 0
9, 109500, Note_on_c, 7, 57, 125
9, 109500, Control_c, 7, 7, 64
9, 109510, Control_c, 7, 7, 63
9, 109540, Control_c, 7, 7, 62
9, 109547, Note_on_c, 7, 57, 0
9, 109550, Control_c, 7, 7, 61
9, 109560, Note_on_c, 7, 54, 125
9, 109580, Control_c, 7, 7, 60
9, 109590, Control_c, 7, 7, 59
9, 109607, Note_on_c, 7, 54, 0
9, 109620, Note_on_c, 7, 57, 125
9, 109620, Control_c, 7, 7, 58
9, 109660, Control_c, 7, 7, 57
9, 109667, Note_on_c, 7, 57, 0
9, 109680, Note_on_c, 7, 54, 125
9, 109680, Control_c, 7, 7, 55
9, 109690, Control_c, 7, 7, 54
9, 109720, Control_c, 7, 7, 55
9, 109730, Control_c, 7, 7, 56
9, 109736, Note_on_c, 7, 54, 0
9, 109740, Note_on_c, 7, 57, 125
9, 109750, Control_c, 7, 7, 57
9, 109760, Control_c, 7, 7, 58
9, 109787, Note_on_c, 7, 57, 0
9, 109800, Note_on_c, 7, 62, 0
9, 109800, Note_on_c, 7, 66, 125
9, 109800, Note_on_c, 7, 54, 125
9, 109810, Control_c, 7, 7, 60
9, 109840, Control_c, 7, 7, 61
9, 109847, Note_on_c, 7, 54, 0
9, 109850, Control_c, 7, 7, 62
9, 109860, Note_on_c, 7, 57, 125
9, 109870, Control_c, 7, 7, 63
9, 109890, Control_c, 7, 7, 64
9, 109896, Note_on_c, 7, 66, 0
9, 109900, Control_c, 7, 7, 65
9, 109907, Note_on_c, 7, 57, 0
9, 109920, Note_on_c, 7, 64, 125
9, 109920, Note_on_c, 7, 55, 125
9, 109920, Control_c, 7, 7, 64
9, 109920, Control_c, 7, 7, 64
9, 109920, Control_c, 7, 7, 64
9, 109920, Control_c, 7, 7, 64
9, 109930, Control_c, 7, 7, 66
9, 109949, Control_c, 7, 7, 65
9, 109949, Control_c, 7, 7, 65
9, 109949, Control_c, 7, 7, 65
9, 109949, Control_c, 7, 7, 65
9, 109950, Control_c, 7, 7, 67
9, 109978, Note_on_c, 7, 55, 0
9, 109979, Control_c, 7, 7, 66
9, 109979, Control_c, 7, 7, 66
9, 109979, Control_c, 7, 7, 66
9, 109979, Control_c, 7, 7, 66
9, 109980, Note_on_c, 7, 57, 124
9, 110000, Control_c, 7, 7, 68
9, 110009, Control_c, 7, 7, 67
9, 110009, Control_c, 7, 7, 67
9, 110009, Control_c, 7, 7, 67
9, 110009, Control_c, 7, 7, 67
9, 110027, Note_on_c, 7, 57, 0
9, 110039, Control_c, 7, 7, 68
9, 110039, Control_c, 7, 7, 68
9, 110039, Control_c, 7, 7, 68
9, 110039, Control_c, 7, 7, 68
9, 110040, Note_on_c, 7, 64, 0
9, 110040, Note_on_c, 7, 61, 124
9, 110040, Note_on_c, 7, 55, 124
9, 110069, Control_c, 7, 7, 69
9, 110069, Control_c, 7, 7, 69
9, 110069, Control_c, 7, 7, 69
9, 110069, Control_c, 7, 7, 69
9, 110087, Note_on_c, 7, 55, 0
9, 110090, Control_c, 7, 7, 69
9, 110099, Control_c, 7, 7, 70
9, 110099, Control_c, 7, 7, 70
9, 110099, Control_c, 7, 7, 70
9, 110099, Control_c, 7, 7, 70
9, 110100, Control_c, 7, 7, 70
9, 110100, Note_on_c, 7, 57, 124
9, 110129, Control_c, 7, 7, 71
9, 110129, Control_c, 7, 7, 71
9, 110129, Control_c, 7, 7, 71
9, 110129, Control_c, 7, 7, 71
9, 110147, Note_on_c, 7, 57, 0
9, 110159, Control_c, 7, 7, 72
9, 110159, Control_c, 7, 7, 72
9, 110159, Control_c, 7, 7, 72
9, 110159, Control_c, 7, 7, 72
9, 110160, Note_on_c, 7, 61, 0
9, 110160, Note_on_c, 7, 57, 0
9, 110160, Note_on_c, 7, 61, 124
9, 110160, Note_on_c, 7, 59, 124
9, 110160, Note_on_c, 7, 52, 124
9, 110189, Control_c, 7, 7, 73
9, 110189, Control_c, 7, 7, 73
9, 110189, Control_c, 7, 7, 73
9, 110189, Control_c, 7, 7, 73
9, 110210, Control_c, 7, 7, 71
9, 110216, Note_on_c, 7, 52, 0
9, 110219, Control_c, 7, 7, 74
9, 110219, Control_c, 7, 7, 74
9, 110219, Control_c, 7, 7, 74
9, 110219, Control_c, 7, 7, 74
9, 110220, Note_on_c, 7, 55, 124
9, 110240, Control_c, 7, 7, 72
9, 110249, Control_c, 7, 7, 75
9, 110249, Control_c, 7, 7, 75
9, 110249, Control_c, 7, 7, 75
9, 110249, Control_c, 7, 7, 75
9, 110250, Control_c, 7, 7, 73
9, 110267, Note_on_c, 7, 55, 0
9, 110279, Control_c, 7, 7, 76
9, 110279, Control_c, 7, 7, 76
9, 110279, Control_c, 7, 7, 76
9, 110279, Control_c, 7, 7, 76
9, 110280, Note_on_c, 7, 59, 0
9, 110280, Note_on_c, 7, 57, 124
9, 110280, Note_on_c, 7, 52, 124
9, 110290, Control_c, 7, 7, 74
9, 110309, Control_c, 7, 7, 77
9, 110309, Control_c, 7, 7, 77
9, 110309, Control_c, 7, 7, 77
9, 110309, Control_c, 7, 7, 77
9, 110310, Control_c, 7, 7, 75
9, 110327, Note_on_c, 7, 52, 0
9, 110330, Control_c, 7, 7, 77
9, 110339, Control_c, 7, 7, 78
9, 110339, Control_c, 7, 7, 78
9, 110339, Control_c, 7, 7, 78
9, 110339, Control_c, 7, 7, 78
9, 110340, Note_on_c, 7, 55, 124
9, 110350, Control_c, 7, 7, 78
9, 110369, Control_c, 7, 7, 79
9, 110369, Control_c, 7, 7, 79
9, 110369, Control_c, 7, 7, 79
9, 110369, Control_c, 7, 7, 79
9, 110387, Note_on_c, 7, 55, 0
9, 110388, Note_on_c, 7, 57, 0
9, 110390, Control_c, 7, 7, 80
9, 110399, Control_c, 7, 7, 80
9, 110399, Control_c, 7, 7, 80
9, 110399, Control_c, 7, 7, 80
9, 110399, Control_c, 7, 7, 80
9, 110400, Note_on_c, 7, 61, 0
9, 110400, Note_on_c, 7, 62, 124
9, 110400, Note_on_c, 7, 69, 124
9, 110400, Note_on_c, 7, 54, 124
9, 110410, Control_c, 7, 7, 81
9, 110429, Control_c, 7, 7, 81
9, 110429, Control_c, 7, 7, 81
9, 110429, Control_c, 7, 7, 81
9, 110429, Control_c, 7, 7, 81
9, 110440, Control_c, 7, 7, 82
9, 110458, Note_on_c, 7, 54, 0
9, 110459, Control_c, 7, 7, 82
9, 110459, Control_c, 7, 7, 82
9, 110459, Control_c, 7, 7, 82
9, 110459, Control_c, 7, 7, 82
9, 110460, Note_on_c, 7, 57, 124
9, 110480, Control_c, 7, 7, 83
9, 110489, Control_c, 7, 7, 83
9, 110489, Control_c, 7, 7, 83
9, 110489, Control_c, 7, 7, 83
9, 110489, Control_c, 7, 7, 83
9, 110496, Note_on_c, 7, 69, 0
9, 110507, Note_on_c, 7, 57, 0
9, 110519, Control_c, 7, 7, 84
9, 110519, Control_c, 7, 7, 84
9, 110519, Control_c, 7, 7, 84
9, 110519, Control_c, 7, 7, 84
9, 110520, Note_on_c, 7, 69, 124
9, 110520, Note_on_c, 7, 54, 124
9, 110549, Control_c, 7, 7, 85
9, 110549, Control_c, 7, 7, 85
9, 110549, Control_c, 7, 7, 85
9, 110549, Control_c, 7, 7, 85
9, 110567, Note_on_c, 7, 54, 0
9, 110579, Control_c, 7, 7, 86
9, 110579, Control_c, 7, 7, 86
9, 110579, Control_c, 7, 7, 86
9, 110579, Control_c, 7, 7, 86
9, 110580, Control_c, 7, 7, 84
9, 110580, Note_on_c, 7, 57, 124
9, 110609, Control_c, 7, 7, 87
9, 110609, Control_c, 7, 7, 87
9, 110609, Control_c, 7, 7, 87
9, 110609, Control_c, 7, 7, 87
9, 110616, Note_on_c, 7, 69, 0
9, 110627, Note_on_c, 7, 57, 0
9, 110639, Control_c, 7, 7, 88
9, 110639, Control_c, 7, 7, 88
9, 110639, Control_c, 7, 7, 88
9, 110639, Control_c, 7, 7, 88
9, 110640, Note_on_c, 7, 62, 0
9, 110640, Note_on_c, 7, 64, 125
9, 110640, Note_on_c, 7, 69, 125
9, 110640, Note_on_c, 7, 55, 125
9, 110669, Control_c, 7, 7, 89
9, 110669, Control_c, 7, 7, 89
9, 110669, Control_c, 7, 7, 89
9, 110669, Control_c, 7, 7, 89
9, 110696, Note_on_c, 7, 55, 0
9, 110699, Control_c, 7, 7, 90
9, 110699, Control_c, 7, 7, 90
9, 110699, Control_c, 7, 7, 90
9, 110699, Control_c, 7, 7, 90
9, 110700, Note_on_c, 7, 57, 125
9, 110729, Control_c, 7, 7, 91
9, 110729, Control_c, 7, 7, 91
9, 110729, Control_c, 7, 7, 91
9, 110729, Control_c, 7, 7, 91
9, 110736, Note_on_c, 7, 69, 0
9, 110747, Note_on_c, 7, 57, 0
9, 110759, Control_c, 7, 7, 92
9, 110759, Control_c, 7, 7, 92
9, 110759, Control_c, 7, 7, 92
9, 110759, Control_c, 7, 7, 92
9, 110760, Note_on_c, 7, 69, 125
9, 110760, Note_on_c, 7, 55, 125
9, 110789, Control_c, 7, 7, 93
9, 110789, Control_c, 7, 7, 93
9, 110789, Control_c, 7, 7, 93
9, 110789, Control_c, 7, 7, 93
9, 110807, Note_on_c, 7, 55, 0
9, 110819, Control_c, 7, 7, 94
9, 110819, Control_c, 7, 7, 94
9, 110819, Control_c, 7, 7, 94
9, 110819, Control_c, 7, 7, 94
9, 110820, Note_on_c, 7, 57, 125
9, 110849, Control_c, 7, 7, 95
9, 110849, Control_c, 7, 7, 95
9, 110849, Control_c, 7, 7, 95
9, 110849, Control_c, 7, 7, 95
9, 110856, Note_on_c, 7, 69, 0
9, 110867, Note_on_c, 7, 57, 0
9, 110879, Control_c, 7, 7, 96
9, 110879, Control_c, 7, 7, 96
9, 110879, Control_c, 7, 7, 96
9, 110879, Control_c, 7, 7, 96
9, 110880, Note_on_c, 7, 64, 0
9, 110880, Note_on_c, 7, 62, 125
9, 110880, Note_on_c, 7, 69, 125
9, 110880, Note_on_c, 7, 54, 125
9, 110880, Control_c, 7, 7, 97
9, 110900, Control_c, 7, 7, 96
9, 110920, Control_c, 7, 7, 95
9, 110938, Note_on_c, 7, 54, 0
9, 110940, Note_on_c, 7, 57, 125
9, 110940, Control_c, 7, 7, 94
9, 110980, Control_c, 7, 7, 92
9, 110987, Note_on_c, 7, 57, 0
9, 111000, Note_on_c, 7, 69, 0
9, 111000, Note_on_c, 7, 54, 125
9, 111000, Control_c, 7, 7, 91
9, 111010, Control_c, 7, 7, 90
9, 111020, Control_c, 7, 7, 89
9, 111030, Control_c, 7, 7, 88
9, 111040, Control_c, 7, 7, 87
9, 111047, Note_on_c, 7, 54, 0
9, 111050, Control_c, 7, 7, 86
9, 111060, Note_on_c, 7, 71, 125
9, 111060, Note_on_c, 7, 57, 125
9, 111060, Control_c, 7, 7, 85
9, 111070, Control_c, 7, 7, 84
9, 111080, Note_on_c, 7, 71, 0
9, 111080, Note_on_c, 7, 69, 125
9, 111080, Control_c, 7, 7, 83
9, 111100, Note_on_c, 7, 69, 0
9, 111100, Note_on_c, 7, 67, 125
9, 111100, Control_c, 7, 7, 82
9, 111107, Note_on_c, 7, 57, 0
9, 111110, Control_c, 7, 7, 80
9, 111120, Note_on_c, 7, 67, 0
9, 111120, Note_on_c, 7, 66, 125
9, 111120, Note_on_c, 7, 54, 125
9, 111170, Control_c, 7, 7, 78
9, 111176, Note_on_c, 7, 54, 0
9, 111180, Note_on_c, 7, 57, 125
9, 111216, Note_on_c, 7, 66, 0
9, 111220, Control_c, 7, 7, 76
9, 111227, Note_on_c, 7, 57, 0
9, 111240, Note_on_c, 7, 54, 125
9, 111250, Control_c, 7, 7, 75
9, 111260, Control_c, 7, 7, 74
9, 111287, Note_on_c, 7, 54, 0
9, 111300, Note_on_c, 7, 50, 0
9, 111300, Note_on_c, 7, 57, 125
9, 111300, Control_c, 7, 7, 73
9, 111310, Control_c, 7, 7, 72
9, 111330, Control_c, 7, 7, 71
9, 111340, Control_c, 7, 7, 70
9, 111347, Note_on_c, 7, 57, 0
9, 111360, Note_on_c, 7, 74, 124
9, 111360, Note_on_c, 7, 50, 124
9, 111360, Note_on_c, 7, 54, 124
9, 111360, Control_c, 7, 7, 68
9, 111380, Control_c, 7, 7, 66
9, 111418, Note_on_c, 7, 50, 0
9, 111420, Note_on_c, 7, 57, 124
9, 111467, Note_on_c, 7, 57, 0
9, 111480, Note_on_c, 7, 50, 123
9, 111527, Note_on_c, 7, 50, 0
9, 111540, Note_on_c, 7, 57, 120
9, 111587, Note_on_c, 7, 57, 0
9, 111600, Note_on_c, 7, 50, 119
9, 111656, Note_on_c, 7, 50, 0
9, 111660, Note_on_c, 7, 57, 117
9, 111707, Note_on_c, 7, 57, 0
9, 111720, Note_on_c, 7, 74, 0
9, 111720, Note_on_c, 7, 66, 117
9, 111720, Note_on_c, 7, 50, 117
9, 111767, Note_on_c, 7, 50, 0
9, 111780, Note_on_c, 7, 57, 117
9, 111810, Note_on_c, 7, 66, 0
9, 111827, Note_on_c, 7, 57, 0
9, 111840, Note_on_c, 7, 54, 0
9, 111840, Note_on_c, 7, 64, 117
9, 111840, Note_on_c, 7, 50, 117
9, 111840, Note_on_c, 7, 55, 117
9, 111840, Control_c, 7, 7, 64
9, 111898, Note_on_c, 7, 50, 0
9, 111900, Note_on_c, 7, 59, 114
9, 111900, Control_c, 7, 7, 65
9, 111920, Control_c, 7, 7, 66
9, 111940, Control_c, 7, 7, 67
9, 111947, Note_on_c, 7, 59, 0
9, 111950, Control_c, 7, 7, 68
9, 111960, Note_on_c, 7, 64, 0
9, 111960, Note_on_c, 7, 67, 111
9, 111960, Note_on_c, 7, 50, 111
9, 112007, Note_on_c, 7, 50, 0
9, 112020, Note_on_c, 7, 59, 108
9, 112020, Control_c, 7, 7, 70
9, 112067, Note_on_c, 7, 59, 0
9, 112080, Note_on_c, 7, 67, 0
9, 112080, Note_on_c, 7, 71, 106
9, 112080, Note_on_c, 7, 50, 106
9, 112100, Control_c, 7, 7, 71
9, 112136, Note_on_c, 7, 50, 0
9, 112140, Note_on_c, 7, 59, 103
9, 112160, Control_c, 7, 7, 72
9, 112170, Control_c, 7, 7, 73
9, 112176, Note_on_c, 7, 71, 0
9, 112187, Note_on_c, 7, 59, 0
9, 112190, Control_c, 7, 7, 74
9, 112200, Note_on_c, 7, 71, 98
9, 112200, Note_on_c, 7, 50, 98
9, 112247, Note_on_c, 7, 50, 0
9, 112260, Note_on_c, 7, 59, 98
9, 112260, Control_c, 7, 7, 76
9, 112280, Control_c, 7, 7, 77
9, 112296, Note_on_c, 7, 71, 0
9, 112300, Control_c, 7, 7, 78
9, 112307, Note_on_c, 7, 59, 0
9, 112310, Control_c, 7, 7, 80
9, 112320, Note_on_c, 7, 62, 0
9, 112320, Note_on_c, 7, 55, 0
9, 112320, Note_on_c, 7, 61, 98
9, 112320, Note_on_c, 7, 67, 98
9, 112320, Note_on_c, 7, 52, 98
9, 112320, Note_on_c, 7, 57, 98
9, 112330, Control_c, 7, 7, 81
9, 112340, Control_c, 7, 7, 82
9, 112350, Control_c, 7, 7, 83
9, 112360, Control_c, 7, 7, 84
9, 112378, Note_on_c, 7, 52, 0
9, 112380, Note_on_c, 7, 57, 98
9, 112380, Control_c, 7, 7, 85
9, 112390, Control_c, 7, 7, 86
9, 112410, Control_c, 7, 7, 87
9, 112420, Control_c, 7, 7, 88
9, 112427, Note_on_c, 7, 57, 0
9, 112440, Note_on_c, 7, 67, 0
9, 112440, Note_on_c, 7, 64, 98
9, 112440, Note_on_c, 7, 52, 98
9, 112440, Control_c, 7, 7, 89
9, 112460, Control_c, 7, 7, 90
9, 112480, Control_c, 7, 7, 91
9, 112487, Note_on_c, 7, 52, 0
9, 112490, Control_c, 7, 7, 92
9, 112500, Note_on_c, 7, 57, 98
9, 112520, Control_c, 7, 7, 93
9, 112530, Control_c, 7, 7, 94
9, 112547, Note_on_c, 7, 57, 0
9, 112550, Control_c, 7, 7, 95
9, 112560, Note_on_c, 7, 64, 0
9, 112560, Note_on_c, 7, 61, 0
9, 112560, Note_on_c, 7, 57, 98
9, 112560, Note_on_c, 7, 61, 98
9, 112560, Note_on_c, 7, 55, 98
9, 112580, Control_c, 7, 7, 96
9, 112616, Note_on_c, 7, 55, 0
9, 112620, Note_on_c, 7, 57, 98
9, 112630, Control_c, 7, 7, 97
9, 112650, Control_c, 7, 7, 98
9, 112656, Note_on_c, 7, 61, 0
9, 112667, Note_on_c, 7, 57, 0
9, 112670, Control_c, 7, 7, 99
9, 112680, Note_on_c, 7, 61, 98
9, 112680, Note_on_c, 7, 55, 98
9, 112700, Control_c, 7, 7, 100
9, 112727, Note_on_c, 7, 55, 0
9, 112740, Note_on_c, 7, 57, 98
9, 112770, Control_c, 7, 7, 101
9, 112776, Note_on_c, 7, 61, 0
9, 112787, Note_on_c, 7, 57, 0
9, 112790, Control_c, 7, 7, 102
9, 112799, Control_c, 7, 7, 96
9, 112799, Control_c, 7, 7, 96
9, 112799, Control_c, 7, 7, 96
9, 112799, Control_c, 7, 7, 96
9, 112800, Note_on_c, 7, 57, 0
9, 112800, Note_on_c, 7, 57, 0
9, 112800, Note_on_c, 7, 62, 98
9, 112800, Note_on_c, 7, 57, 98
9, 112800, Control_c, 7, 7, 50
9, 112800, Note_on_c, 7, 54, 98
9, 112800, Note_on_c, 7, 50, 98
9, 112858, Note_on_c, 7, 62, 0
9, 112860, Note_on_c, 7, 61, 98
9, 112907, Note_on_c, 7, 61, 0
9, 112916, Note_on_c, 7, 57, 0
9, 112920, Note_on_c, 7, 54, 0
9, 112920, Note_on_c, 7, 50, 0
9, 112920, Note_on_c, 7, 59, 98
9, 112967, Note_on_c, 7, 59, 0
9, 112980, Note_on_c, 7, 57, 98
9, 113027, Note_on_c, 7, 57, 0
9, 113040, Note_on_c, 7, 59, 98
9, 113040, Note_on_c, 7, 50, 98
9, 113096, Note_on_c, 7, 59, 0
9, 113100, Note_on_c, 7, 57, 98
9, 113147, Note_on_c, 7, 57, 0
9, 113160, Note_on_c, 7, 50, 0
9, 113160, Note_on_c, 7, 59, 98
9, 113207, Note_on_c, 7, 59, 0
9, 113220, Note_on_c, 7, 61, 98
9, 113267, Note_on_c, 7, 61, 0
9, 113280, Note_on_c, 7, 62, 83
9, 113280, Note_on_c, 7, 50, 98
9, 113339, Note_on_c, 7, 62, 0
9, 113340, Note_on_c, 7, 61, 93
9, 113399, Note_on_c, 7, 61, 0
9, 113400, Note_on_c, 7, 50, 0
9, 113400, Note_on_c, 7, 62, 89
9, 113459, Note_on_c, 7, 62, 0
9, 113460, Note_on_c, 7, 66, 76
9, 113519, Note_on_c, 7, 66, 0
9, 113520, Note_on_c, 7, 64, 81
9, 113520, Note_on_c, 7, 50, 98
9, 113579, Note_on_c, 7, 64, 0
9, 113580, Note_on_c, 7, 62, 84
9, 113639, Note_on_c, 7, 62, 0
9, 113640, Note_on_c, 7, 50, 0
9, 113640, Note_on_c, 7, 64, 77
9, 113699, Note_on_c, 7, 64, 0
9, 113700, Note_on_c, 7, 67, 108
9, 113759, Note_on_c, 7, 67, 0
9, 113760, Note_on_c, 7, 62, 88
9, 113760, Note_on_c, 7, 66, 88
9, 113760, Note_on_c, 7, 50, 88
9, 113820, Note_on_c, 7, 66, 0
9, 113820, Note_on_c, 7, 62, 0
9, 113820, Note_on_c, 7, 61, 88
9, 113820, Note_on_c, 7, 64, 88
9, 113880, Note_on_c, 7, 64, 0
9, 113880, Note_on_c, 7, 61, 0
9, 113880, Note_on_c, 7, 50, 0
9, 113880, Note_on_c, 7, 59, 88
9, 113880, Note_on_c, 7, 62, 88
9, 113940, Note_on_c, 7, 62, 0
9, 113940, Note_on_c, 7, 59, 0
9, 113940, Note_on_c, 7, 57, 88
9, 113940, Note_on_c, 7, 61, 88
9, 114000, Note_on_c, 7, 61, 0
9, 114000, Note_on_c, 7, 57, 0
9, 114000, Note_on_c, 7, 59, 88
9, 114000, Note_on_c, 7, 62, 88
9, 114000, Note_on_c, 7, 50, 88
9, 114060, Note_on_c, 7, 62, 0
9, 114060, Note_on_c, 7, 59, 0
9, 114060, Note_on_c, 7, 57, 89
9, 114060, Note_on_c, 7, 61, 89
9, 114120, Note_on_c, 7, 61, 0
9, 114120, Note_on_c, 7, 57, 0
9, 114120, Note_on_c, 7, 50, 0
9, 114120, Note_on_c, 7, 59, 89
9, 114120, Note_on_c, 7, 62, 89
9, 114180, Note_on_c, 7, 62, 0
9, 114180, Note_on_c, 7, 59, 0
9, 114180, Note_on_c, 7, 64, 89
9, 114180, Note_on_c, 7, 61, 89
9, 114240, Note_on_c, 7, 61, 0
9, 114240, Note_on_c, 7, 64, 0
9, 114240, Note_on_c, 7, 62, 90
9, 114240, Note_on_c, 7, 66, 90
9, 114240, Note_on_c, 7, 50, 90
9, 114300, Note_on_c, 7, 66, 0
9, 114300, Note_on_c, 7, 62, 0
9, 114300, Note_on_c, 7, 61, 90
9, 114300, Note_on_c, 7, 64, 90
9, 114360, Note_on_c, 7, 64, 0
9, 114360, Note_on_c, 7, 61, 0
9, 114360, Note_on_c, 7, 50, 0
9, 114360, Note_on_c, 7, 62, 91
9, 114360, Note_on_c, 7, 66, 91
9, 114420, Note_on_c, 7, 66, 0
9, 114420, Note_on_c, 7, 62, 0
9, 114420, Note_on_c, 7, 66, 91
9, 114420, Note_on_c, 7, 69, 91
9, 114480, Note_on_c, 7, 69, 0
9, 114480, Note_on_c, 7, 66, 0
9, 114480, Note_on_c, 7, 64, 92
9, 114480, Note_on_c, 7, 67, 92
9, 114480, Note_on_c, 7, 50, 92
9, 114540, Note_on_c, 7, 67, 0
9, 114540, Note_on_c, 7, 64, 0
9, 114540, Note_on_c, 7, 62, 92
9, 114540, Note_on_c, 7, 66, 92
9, 114600, Note_on_c, 7, 66, 0
9, 114600, Note_on_c, 7, 62, 0
9, 114600, Note_on_c, 7, 50, 0
9, 114600, Note_on_c, 7, 64, 93
9, 114600, Note_on_c, 7, 67, 93
9, 114660, Note_on_c, 7, 67, 0
9, 114660, Note_on_c, 7, 64, 0
9, 114660, Note_on_c, 7, 67, 93
9, 114660, Note_on_c, 7, 71, 93
9, 114720, Note_on_c, 7, 71, 0
9, 114720, Note_on_c, 7, 67, 0
9, 114720, Control_c, 7, 7, 48
9, 114720, Note_on_c, 7, 66, 93
9, 114720, Note_on_c, 7, 69, 93
9, 114720, Note_on_c, 7, 62, 93
9, 114720, Note_on_c, 7, 50, 93
9, 114780, Note_on_c, 7, 69, 0
9, 114780, Note_on_c, 7, 66, 0
9, 114780, Note_on_c, 7, 64, 93
9, 114780, Note_on_c, 7, 67, 93
9, 114792, Control_c, 7, 7, 49
9, 114840, Note_on_c, 7, 67, 0
9, 114840, Note_on_c, 7, 64, 0
9, 114840, Note_on_c, 7, 50, 0
9, 114840, Note_on_c, 7, 62, 93
9, 114840, Note_on_c, 7, 66, 93
9, 114865, Control_c, 7, 7, 50
9, 114900, Note_on_c, 7, 66, 0
9, 114900, Note_on_c, 7, 62, 0
9, 114900, Note_on_c, 7, 61, 95
9, 114900, Note_on_c, 7, 64, 95
9, 114938, Control_c, 7, 7, 51
9, 114960, Note_on_c, 7, 64, 0
9, 114960, Note_on_c, 7, 61, 0
9, 114960, Note_on_c, 7, 62, 95
9, 114960, Note_on_c, 7, 66, 95
9, 114960, Note_on_c, 7, 50, 95
9, 115011, Control_c, 7, 7, 52
9, 115020, Note_on_c, 7, 66, 0
9, 115020, Note_on_c, 7, 62, 0
9, 115020, Note_on_c, 7, 61, 95
9, 115020, Note_on_c, 7, 64, 95
9, 115080, Note_on_c, 7, 64, 0
9, 115080, Note_on_c, 7, 61, 0
9, 115080, Note_on_c, 7, 50, 0
9, 115080, Note_on_c, 7, 62, 96
9, 115080, Note_on_c, 7, 66, 96
9, 115084, Control_c, 7, 7, 53
9, 115140, Note_on_c, 7, 66, 0
9, 115140, Note_on_c, 7, 62, 0
9, 115140, Note_on_c, 7, 67, 96
9, 115140, Note_on_c, 7, 64, 96
9, 115157, Control_c, 7, 7, 54
9, 115200, Note_on_c, 7, 64, 0
9, 115200, Note_on_c, 7, 67, 0
9, 115200, Note_on_c, 7, 66, 98
9, 115200, Note_on_c, 7, 69, 98
9, 115200, Note_on_c, 7, 50, 98
9, 115230, Control_c, 7, 7, 55
9, 115260, Note_on_c, 7, 69, 0
9, 115260, Note_on_c, 7, 66, 0
9, 115260, Note_on_c, 7, 64, 98
9, 115260, Note_on_c, 7, 67, 98
9, 115303, Control_c, 7, 7, 56
9, 115320, Note_on_c, 7, 67, 0
9, 115320, Note_on_c, 7, 64, 0
9, 115320, Note_on_c, 7, 50, 0
9, 115320, Note_on_c, 7, 62, 98
9, 115320, Note_on_c, 7, 66, 98
9, 115376, Control_c, 7, 7, 57
9, 115380, Note_on_c, 7, 66, 0
9, 115380, Note_on_c, 7, 62, 0
9, 115380, Note_on_c, 7, 64, 99
9, 115380, Note_on_c, 7, 67, 99
9, 115440, Note_on_c, 7, 67, 0
9, 115440, Note_on_c, 7, 64, 0
9, 115440, Note_on_c, 7, 66, 99
9, 115440, Note_on_c, 7, 69, 99
9, 115440, Note_on_c, 7, 50, 99
9, 115448, Control_c, 7, 7, 58
9, 115500, Note_on_c, 7, 69, 0
9, 115500, Note_on_c, 7, 66, 0
9, 115500, Note_on_c, 7, 67, 100
9, 115500, Note_on_c, 7, 71, 100
9, 115521, Control_c, 7, 7, 59
9, 115560, Note_on_c, 7, 71, 0
9, 115560, Note_on_c, 7, 67, 0
9, 115560, Note_on_c, 7, 50, 0
9, 115560, Note_on_c, 7, 72, 100
9, 115560, Note_on_c, 7, 69, 100
9, 115594, Control_c, 7, 7, 60
9, 115620, Note_on_c, 7, 69, 0
9, 115620, Note_on_c, 7, 72, 0
9, 115620, Note_on_c, 7, 66, 101
9, 115620, Note_on_c, 7, 69, 101
9, 115667, Control_c, 7, 7, 61
9, 115680, Note_on_c, 7, 69, 0
9, 115680, Note_on_c, 7, 66, 0
9, 115680, Note_on_c, 7, 67, 101
9, 115680, Note_on_c, 7, 71, 101
9, 115680, Note_on_c, 7, 50, 101
9, 115740, Note_on_c, 7, 71, 0
9, 115740, Note_on_c, 7, 67, 0
9, 115740, Control_c, 7, 7, 62
9, 115740, Note_on_c, 7, 66, 103
9, 115740, Note_on_c, 7, 69, 103
9, 115800, Note_on_c, 7, 69, 0
9, 115800, Note_on_c, 7, 66, 0
9, 115800, Note_on_c, 7, 50, 0
9, 115800, Note_on_c, 7, 67, 103
9, 115800, Note_on_c, 7, 67, 103
9, 115813, Control_c, 7, 7, 63
9, 115860, Note_on_c, 7, 67, 0
9, 115860, Note_on_c, 7, 67, 0
9, 115860, Note_on_c, 7, 66, 103
9, 115860, Note_on_c, 7, 69, 103
9, 115886, Control_c, 7, 7, 64
9, 115920, Note_on_c, 7, 69, 0
9, 115920, Note_on_c, 7, 66, 0
9, 115920, Note_on_c, 7, 67, 104
9, 115920, Note_on_c, 7, 71, 104
9, 115920, Note_on_c, 7, 50, 104
9, 115959, Control_c, 7, 7, 65
9, 115980, Note_on_c, 7, 71, 0
9, 115980, Note_on_c, 7, 67, 0
9, 115980, Note_on_c, 7, 69, 104
9, 115980, Note_on_c, 7, 72, 104
9, 116032, Control_c, 7, 7, 66
9, 116040, Note_on_c, 7, 72, 0
9, 116040, Note_on_c, 7, 69, 0
9, 116040, Note_on_c, 7, 50, 0
9, 116040, Note_on_c, 7, 71, 104
9, 116040, Note_on_c, 7, 74, 104
9, 116100, Note_on_c, 7, 74, 0
9, 116100, Note_on_c, 7, 71, 0
9, 116100, Note_on_c, 7, 67, 106
9, 116100, Note_on_c, 7, 71, 106
9, 116105, Control_c, 7, 7, 67
9, 116160, Note_on_c, 7, 71, 0
9, 116160, Note_on_c, 7, 67, 0
9, 116160, Note_on_c, 7, 64, 106
9, 116160, Note_on_c, 7, 73, 106
9, 116160, Note_on_c, 7, 50, 106
9, 116177, Control_c, 7, 7, 68
9, 116220, Note_on_c, 7, 73, 0
9, 116220, Note_on_c, 7, 64, 0
9, 116220, Note_on_c, 7, 62, 107
9, 116220, Note_on_c, 7, 71, 107
9, 116250, Control_c, 7, 7, 69
9, 116280, Note_on_c, 7, 71, 0
9, 116280, Note_on_c, 7, 62, 0
9, 116280, Note_on_c, 7, 50, 0
9, 116280, Note_on_c, 7, 61, 108
9, 116280, Note_on_c, 7, 69, 108
9, 116323, Control_c, 7, 7, 70
9, 116340, Note_on_c, 7, 69, 0
9, 116340, Note_on_c, 7, 61, 0
9, 116340, Note_on_c, 7, 62, 109
9, 116340, Note_on_c, 7, 71, 109
9, 116396, Control_c, 7, 7, 71
9, 116400, Note_on_c, 7, 71, 0
9, 116400, Note_on_c, 7, 62, 0
9, 116400, Note_on_c, 7, 64, 109
9, 116400, Note_on_c, 7, 73, 109
9, 116400, Note_on_c, 7, 50, 109
9, 116460, Note_on_c, 7, 73, 0
9, 116460, Note_on_c, 7, 64, 0
9, 116460, Note_on_c, 7, 66, 110
9, 116460, Note_on_c, 7, 74, 110
9, 116469, Control_c, 7, 7, 72
9, 116520, Note_on_c, 7, 74, 0
9, 116520, Note_on_c, 7, 66, 0
9, 116520, Note_on_c, 7, 50, 0
9, 116520, Note_on_c, 7, 67, 110
9, 116520, Note_on_c, 7, 76, 110
9, 116542, Control_c, 7, 7, 73
9, 116580, Note_on_c, 7, 76, 0
9, 116580, Note_on_c, 7, 67, 0
9, 116580, Note_on_c, 7, 64, 110
9, 116580, Note_on_c, 7, 73, 110
9, 116615, Control_c, 7, 7, 74
9, 116640, Note_on_c, 7, 73, 0
9, 116640, Note_on_c, 7, 64, 0
9, 116640, Note_on_c, 7, 66, 112
9, 116640, Note_on_c, 7, 74, 112
9, 116640, Note_on_c, 7, 50, 112
9, 116688, Control_c, 7, 7, 75
9, 116700, Note_on_c, 7, 74, 0
9, 116700, Note_on_c, 7, 66, 0
9, 116700, Note_on_c, 7, 69, 112
9, 116700, Note_on_c, 7, 73, 112
9, 116760, Note_on_c, 7, 73, 0
9, 116760, Note_on_c, 7, 69, 0
9, 116760, Note_on_c, 7, 50, 0
9, 116760, Note_on_c, 7, 67, 114
9, 116760, Note_on_c, 7, 71, 114
9, 116761, Control_c, 7, 7, 76
9, 116820, Note_on_c, 7, 71, 0
9, 116820, Note_on_c, 7, 67, 0
9, 116820, Note_on_c, 7, 66, 115
9, 116820, Note_on_c, 7, 69, 115
9, 116834, Control_c, 7, 7, 77
9, 116880, Note_on_c, 7, 69, 0
9, 116880, Note_on_c, 7, 66, 0
9, 116880, Note_on_c, 7, 67, 115
9, 116880, Note_on_c, 7, 71, 115
9, 116880, Note_on_c, 7, 50, 115
9, 116906, Control_c, 7, 7, 78
9, 116940, Note_on_c, 7, 71, 0
9, 116940, Note_on_c, 7, 67, 0
9, 116940, Note_on_c, 7, 66, 117
9, 116940, Note_on_c, 7, 69, 117
9, 116979, Control_c, 7, 7, 79
9, 117000, Note_on_c, 7, 69, 0
9, 117000, Note_on_c, 7, 66, 0
9, 117000, Note_on_c, 7, 50, 0
9, 117000, Note_on_c, 7, 67, 118
9, 117000, Note_on_c, 7, 71, 118
9, 117052, Control_c, 7, 7, 80
9, 117060, Note_on_c, 7, 71, 0
9, 117060, Note_on_c, 7, 67, 0
9, 117060, Note_on_c, 7, 64, 118
9, 117060, Note_on_c, 7, 73, 118
9, 117120, Note_on_c, 7, 73, 0
9, 117120, Note_on_c, 7, 64, 0
9, 117120, Note_on_c, 7, 66, 120
9, 117120, Note_on_c, 7, 74, 120
9, 117120, Note_on_c, 7, 50, 120
9, 117125, Control_c, 7, 7, 81
9, 117180, Note_on_c, 7, 74, 0
9, 117180, Note_on_c, 7, 66, 0
9, 117180, Note_on_c, 7, 64, 120
9, 117180, Note_on_c, 7, 73, 120
9, 117198, Control_c, 7, 7, 82
9, 117240, Note_on_c, 7, 73, 0
9, 117240, Note_on_c, 7, 64, 0
9, 117240, Note_on_c, 7, 50, 0
9, 117240, Note_on_c, 7, 66, 121
9, 117240, Note_on_c, 7, 74, 121
9, 117271, Control_c, 7, 7, 83
9, 117300, Note_on_c, 7, 74, 0
9, 117300, Note_on_c, 7, 66, 0
9, 117300, Note_on_c, 7, 62, 121
9, 117300, Note_on_c, 7, 78, 121
9, 117344, Control_c, 7, 7, 84
9, 117360, Note_on_c, 7, 78, 0
9, 117360, Note_on_c, 7, 62, 0
9, 117360, Note_on_c, 7, 61, 122
9, 117360, Note_on_c, 7, 76, 122
9, 117360, Note_on_c, 7, 50, 122
9, 117417, Control_c, 7, 7, 85
9, 117420, Note_on_c, 7, 76, 0
9, 117420, Note_on_c, 7, 61, 0
9, 117420, Note_on_c, 7, 59, 123
9, 117420, Note_on_c, 7, 74, 123
9, 117480, Note_on_c, 7, 74, 0
9, 117480, Note_on_c, 7, 59, 0
9, 117480, Note_on_c, 7, 50, 0
9, 117480, Note_on_c, 7, 61, 123
9, 117480, Note_on_c, 7, 76, 123
9, 117490, Control_c, 7, 7, 86
9, 117540, Note_on_c, 7, 76, 0
9, 117540, Note_on_c, 7, 61, 0
9, 117540, Note_on_c, 7, 64, 124
9, 117540, Note_on_c, 7, 79, 124
9, 117563, Control_c, 7, 7, 87
9, 117600, Note_on_c, 7, 79, 0
9, 117600, Note_on_c, 7, 64, 0
9, 117600, Note_on_c, 7, 62, 125
9, 117600, Note_on_c, 7, 78, 125
9, 117600, Note_on_c, 7, 50, 125
9, 117635, Control_c, 7, 7, 88
9, 117660, Note_on_c, 7, 78, 0
9, 117660, Note_on_c, 7, 62, 0
9, 117660, Note_on_c, 7, 61, 127
9, 117660, Note_on_c, 7, 76, 127
9, 117708, Control_c, 7, 7, 89
9, 117720, Note_on_c, 7, 76, 0
9, 117720, Note_on_c, 7, 61, 0
9, 117720, Note_on_c, 7, 50, 0
9, 117720, Note_on_c, 7, 59, 127
9, 117720, Note_on_c, 7, 74, 127
9, 117780, Note_on_c, 7, 74, 0
9, 117780, Note_on_c, 7, 59, 0
9, 117780, Note_on_c, 7, 57, 127
9, 117780, Note_on_c, 7, 73, 127
9, 117781, Control_c, 7, 7, 90
9, 117840, Note_on_c, 7, 73, 0
9, 117840, Note_on_c, 7, 57, 0
9, 117840, Note_on_c, 7, 59, 127
9, 117840, Note_on_c, 7, 74, 127
9, 117840, Note_on_c, 7, 50, 127
9, 117854, Control_c, 7, 7, 91
9, 117900, Note_on_c, 7, 74, 0
9, 117900, Note_on_c, 7, 59, 0
9, 117900, Note_on_c, 7, 57, 127
9, 117900, Note_on_c, 7, 73, 127
9, 117927, Control_c, 7, 7, 92
9, 117960, Note_on_c, 7, 73, 0
9, 117960, Note_on_c, 7, 57, 0
9, 117960, Note_on_c, 7, 50, 0
9, 117960, Note_on_c, 7, 59, 127
9, 117960, Note_on_c, 7, 74, 127
9, 118000, Control_c, 7, 7, 93
9, 118020, Note_on_c, 7, 74, 0
9, 118020, Note_on_c, 7, 59, 0
9, 118020, Note_on_c, 7, 61, 127
9, 118020, Note_on_c, 7, 76, 127
9, 118073, Control_c, 7, 7, 94
9, 118080, Note_on_c, 7, 76, 0
9, 118080, Note_on_c, 7, 61, 0
9, 118080, Note_on_c, 7, 62, 127
9, 118080, Note_on_c, 7, 78, 127
9, 118080, Note_on_c, 7, 50, 127
9, 118140, Note_on_c, 7, 78, 0
9, 118140, Note_on_c, 7, 62, 0
9, 118140, Note_on_c, 7, 61, 127
9, 118140, Note_on_c, 7, 76, 127
9, 118146, Control_c, 7, 7, 95
9, 118200, Note_on_c, 7, 76, 0
9, 118200, Note_on_c, 7, 61, 0
9, 118200, Note_on_c, 7, 50, 0
9, 118200, Note_on_c, 7, 62, 127
9, 118200, Note_on_c, 7, 78, 127
9, 118219, Control_c, 7, 7, 96
9, 118260, Note_on_c, 7, 78, 0
9, 118260, Note_on_c, 7, 62, 0
9, 118260, Note_on_c, 7, 66, 127
9, 118260, Note_on_c, 7, 81, 127
9, 118292, Control_c, 7, 7, 97
9, 118320, Note_on_c, 7, 81, 0
9, 118320, Note_on_c, 7, 66, 0
9, 118320, Note_on_c, 7, 64, 127
9, 118320, Note_on_c, 7, 79, 127
9, 118320, Note_on_c, 7, 50, 127
9, 118364, Control_c, 7, 7, 98
9, 118380, Note_on_c, 7, 79, 0
9, 118380, Note_on_c, 7, 64, 0
9, 118380, Note_on_c, 7, 62, 127
9, 118380, Note_on_c, 7, 78, 127
9, 118437, Control_c, 7, 7, 99
9, 118440, Note_on_c, 7, 78, 0
9, 118440, Note_on_c, 7, 62, 0
9, 118440, Note_on_c, 7, 50, 0
9, 118440, Note_on_c, 7, 64, 127
9, 118440, Note_on_c, 7, 79, 127
9, 118500, Note_on_c, 7, 79, 0
9, 118500, Note_on_c, 7, 64, 0
9, 118500, Note_on_c, 7, 67, 127
9, 118500, Note_on_c, 7, 83, 127
9, 118510, Control_c, 7, 7, 100
9, 118560, Note_on_c, 7, 83, 0
9, 118560, Note_on_c, 7, 67, 0
9, 118560, Note_on_c, 7, 62, 0
9, 118560, Note_on_c, 7, 66, 127
9, 118560, Note_on_c, 7, 81, 127
9, 118560, Note_on_c, 7, 62, 127
9, 118560, Note_on_c, 7, 50, 127
9, 118583, Control_c, 7, 7, 101
9, 118620, Note_on_c, 7, 81, 0
9, 118620, Note_on_c, 7, 66, 0
9, 118620, Note_on_c, 7, 64, 127
9, 118620, Note_on_c, 7, 79, 127
9, 118656, Control_c, 7, 7, 102
9, 118668, Note_on_c, 7, 50, 0
9, 118680, Note_on_c, 7, 79, 0
9, 118680, Note_on_c, 7, 64, 0
9, 118680, Note_on_c, 7, 62, 127
9, 118680, Note_on_c, 7, 78, 127
9, 118680, Note_on_c, 7, 50, 127
9, 118729, Control_c, 7, 7, 103
9, 118740, Note_on_c, 7, 78, 0
9, 118740, Note_on_c, 7, 62, 0
9, 118740, Note_on_c, 7, 61, 127
9, 118740, Note_on_c, 7, 76, 127
9, 118788, Note_on_c, 7, 50, 0
9, 118800, Note_on_c, 7, 62, 0
9, 118800, Note_on_c, 7, 61, 0
9, 118800, Note_on_c, 7, 76, 0
9, 118800, Note_on_c, 7, 62, 127
9, 118800, Note_on_c, 7, 78, 127
9, 118800, Note_on_c, 7, 62, 127
9, 118800, Note_on_c, 7, 50, 127
9, 118802, Control_c, 7, 7, 104
9, 118860, Note_on_c, 7, 78, 0
9, 118860, Note_on_c, 7, 62, 0
9, 118860, Note_on_c, 7, 61, 127
9, 118860, Note_on_c, 7, 76, 127
9, 118875, Control_c, 7, 7, 105
9, 118908, Note_on_c, 7, 50, 0
9, 118920, Note_on_c, 7, 76, 0
9, 118920, Note_on_c, 7, 61, 0
9, 118920, Note_on_c, 7, 62, 127
9, 118920, Note_on_c, 7, 78, 127
9, 118920, Note_on_c, 7, 50, 127
9, 118948, Control_c, 7, 7, 106
9, 118980, Note_on_c, 7, 78, 0
9, 118980, Note_on_c, 7, 62, 0
9, 118980, Note_on_c, 7, 64, 127
9, 118980, Note_on_c, 7, 79, 127
9, 119021, Control_c, 7, 7, 107
9, 119028, Note_on_c, 7, 50, 0
9, 119040, Note_on_c, 7, 79, 0
9, 119040, Note_on_c, 7, 64, 0
9, 119040, Note_on_c, 7, 66, 127
9, 119040, Note_on_c, 7, 81, 127
9, 119040, Note_on_c, 7, 50, 127
9, 119093, Control_c, 7, 7, 108
9, 119100, Note_on_c, 7, 81, 0
9, 119100, Note_on_c, 7, 79, 127
9, 119148, Note_on_c, 7, 50, 0
9, 119160, Note_on_c, 7, 79, 0
9, 119160, Note_on_c, 7, 66, 0
9, 119160, Note_on_c, 7, 74, 127
9, 119160, Note_on_c, 7, 78, 127
9, 119160, Note_on_c, 7, 50, 127
9, 119166, Control_c, 7, 7, 109
9, 119220, Note_on_c, 7, 78, 0
9, 119220, Note_on_c, 7, 74, 0
9, 119220, Note_on_c, 7, 76, 127
9, 119220, Note_on_c, 7, 79, 127
9, 119239, Control_c, 7, 7, 110
9, 119268, Note_on_c, 7, 50, 0
9, 119280, Note_on_c, 7, 62, 0
9, 119280, Note_on_c, 7, 76, 0
9, 119280, Note_on_c, 7, 79, 0
9, 119280, Note_on_c, 7, 78, 127
9, 119280, Note_on_c, 7, 81, 127
9, 119280, Note_on_c, 7, 62, 127
9, 119280, Note_on_c, 7, 50, 127
9, 119312, Control_c, 7, 7, 111
9, 119340, Note_on_c, 7, 81, 0
9, 119340, Note_on_c, 7, 78, 0
9, 119340, Note_on_c, 7, 79, 127
9, 119340, Note_on_c, 7, 83, 127
9, 119385, Control_c, 7, 7, 112
9, 119388, Note_on_c, 7, 50, 0
9, 119400, Note_on_c, 7, 83, 0
9, 119400, Note_on_c, 7, 79, 0
9, 119400, Note_on_c, 7, 81, 127
9, 119400, Note_on_c, 7, 84, 127
9, 119400, Note_on_c, 7, 50, 127
9, 119458, Control_c, 7, 7, 113
9, 119460, Note_on_c, 7, 84, 0
9, 119460, Note_on_c, 7, 81, 0
9, 119460, Note_on_c, 7, 78, 127
9, 119460, Note_on_c, 7, 81, 127
9, 119508, Note_on_c, 7, 50, 0
9, 119520, Note_on_c, 7, 62, 0
9, 119520, Note_on_c, 7, 78, 0
9, 119520, Note_on_c, 7, 81, 0
9, 119520, Note_on_c, 7, 79, 127
9, 119520, Note_on_c, 7, 83, 127
9, 119520, Note_on_c, 7, 62, 127
9, 119520, Note_on_c, 7, 50, 127
9, 119531, Control_c, 7, 7, 114
9, 119576, Note_on_c, 7, 62, 0
9, 119576, Note_on_c, 7, 79, 0
9, 119576, Note_on_c, 7, 83, 0
9, 119580, Note_on_c, 7, 83, 127
9, 119580, Note_on_c, 7, 79, 127
9, 119580, Note_on_c, 7, 62, 127
9, 119604, Control_c, 7, 7, 115
9, 119628, Note_on_c, 7, 50, 0
9, 119636, Note_on_c, 7, 83, 0
9, 119636, Note_on_c, 7, 79, 0
9, 119636, Note_on_c, 7, 62, 0
9, 119640, Note_on_c, 7, 83, 127
9, 119640, Note_on_c, 7, 79, 127
9, 119640, Note_on_c, 7, 62, 127
9, 119640, Note_on_c, 7, 50, 127
9, 119677, Control_c, 7, 7, 116
9, 119696, Note_on_c, 7, 62, 0
9, 119696, Note_on_c, 7, 83, 0
9, 119696, Note_on_c, 7, 79, 0
9, 119700, Note_on_c, 7, 83, 127
9, 119700, Note_on_c, 7, 79, 127
9, 119700, Note_on_c, 7, 62, 127
9, 119748, Note_on_c, 7, 50, 0
9, 119750, Control_c, 7, 7, 117
9, 119756, Note_on_c, 7, 83, 0
9, 119756, Note_on_c, 7, 79, 0
9, 119756, Note_on_c, 7, 62, 0
9, 119760, Note_on_c, 7, 81, 127
9, 119760, Note_on_c, 7, 78, 127
9, 119760, Note_on_c, 7, 62, 127
9, 119760, Note_on_c, 7, 50, 127
9, 119816, Note_on_c, 7, 62, 0
9, 119816, Note_on_c, 7, 81, 0
9, 119816, Note_on_c, 7, 78, 0
9, 119820, Note_on_c, 7, 81, 127
9, 119820, Note_on_c, 7, 78, 127
9, 119820, Note_on_c, 7, 62, 127
9, 119822, Control_c, 7, 7, 118
9, 119868, Note_on_c, 7, 50, 0
9, 119876, Note_on_c, 7, 81, 0
9, 119876, Note_on_c, 7, 78, 0
9, 119876, Note_on_c, 7, 62, 0
9, 119880, Note_on_c, 7, 81, 127
9, 119880, Note_on_c, 7, 78, 127
9, 119880, Note_on_c, 7, 62, 127
9, 119880, Note_on_c, 7, 50, 127
9, 119895, Control_c, 7, 7, 119
9, 119936, Note_on_c, 7, 62, 0
9, 119936, Note_on_c, 7, 81, 0
9, 119936, Note_on_c, 7, 78, 0
9, 119940, Note_on_c, 7, 81, 127
9, 119940, Note_on_c, 7, 78, 127
9, 119940, Note_on_c, 7, 62, 127
9, 119968, Control_c, 7, 7, 120
9, 119988, Note_on_c, 7, 50, 0
9, 119996, Note_on_c, 7, 81, 0
9, 119996, Note_on_c, 7, 78, 0
9, 119996, Note_on_c, 7, 62, 0
9, 120000, Note_on_c, 7, 83, 127
9, 120000, Note_on_c, 7, 79, 127
9, 120000, Note_on_c, 7, 62, 127
9, 120000, Note_on_c, 7, 50, 127
9, 120041, Control_c, 7, 7, 121
9, 120058, Note_on_c, 7, 62, 0
9, 120058, Note_on_c, 7, 83, 0
9, 120058, Note_on_c, 7, 79, 0
9, 120060, Note_on_c, 7, 79, 127
9, 120060, Note_on_c, 7, 83, 127
9, 120060, Note_on_c, 7, 62, 127
9, 120108, Note_on_c, 7, 50, 0
9, 120114, Control_c, 7, 7, 122
9, 120118, Note_on_c, 7, 79, 0
9, 120118, Note_on_c, 7, 83, 0
9, 120118, Note_on_c, 7, 62, 0
9, 120120, Note_on_c, 7, 83, 127
9, 120120, Note_on_c, 7, 79, 127
9, 120120, Note_on_c, 7, 62, 127
9, 120120, Note_on_c, 7, 50, 127
9, 120178, Note_on_c, 7, 62, 0
9, 120178, Note_on_c, 7, 83, 0
9, 120178, Note_on_c, 7, 79, 0
9, 120180, Note_on_c, 7, 83, 127
9, 120180, Note_on_c, 7, 79, 127
9, 120180, Note_on_c, 7, 62, 127
9, 120187, Control_c, 7, 7, 123
9, 120228, Note_on_c, 7, 50, 0
9, 120238, Note_on_c, 7, 83, 0
9, 120238, Note_on_c, 7, 79, 0
9, 120238, Note_on_c, 7, 62, 0
9, 120240, Note_on_c, 7, 85, 127
9, 120240, Note_on_c, 7, 76, 127
9, 120240, Note_on_c, 7, 62, 127
9, 120240, Note_on_c, 7, 50, 127
9, 120260, Control_c, 7, 7, 124
9, 120298, Note_on_c, 7, 62, 0
9, 120298, Note_on_c, 7, 85, 0
9, 120298, Note_on_c, 7, 76, 0
9, 120300, Note_on_c, 7, 85, 127
9, 120300, Note_on_c, 7, 76, 127
9, 120300, Note_on_c, 7, 62, 127
9, 120333, Control_c, 7, 7, 125
9, 120348, Note_on_c, 7, 50, 0
9, 120358, Note_on_c, 7, 85, 0
9, 120358, Note_on_c, 7, 76, 0
9, 120358, Note_on_c, 7, 62, 0
9, 120360, Note_on_c, 7, 85, 127
9, 120360, Note_on_c, 7, 76, 127
9, 120360, Note_on_c, 7, 62, 127
9, 120360, Note_on_c, 7, 50, 127
9, 120406, Control_c, 7, 7, 126
9, 120418, Note_on_c, 7, 62, 0
9, 120418, Note_on_c, 7, 85, 0
9, 120418, Note_on_c, 7, 76, 0
9, 120420, Note_on_c, 7, 85, 127
9, 120420, Note_on_c, 7, 76, 127
9, 120420, Note_on_c, 7, 62, 127
9, 120468, Note_on_c, 7, 50, 0
9, 120478, Note_on_c, 7, 85, 0
9, 120478, Note_on_c, 7, 76, 0
9, 120478, Note_on_c, 7, 62, 0
9, 120479, Control_c, 7, 7, 127
9, 120480, Note_on_c, 7, 78, 127
9, 120480, Note_on_c, 7, 74, 127
9, 120480, Note_on_c, 7, 86, 127
9, 120480, Note_on_c, 7, 62, 127
9, 120480, Note_on_c, 7, 50, 127
9, 120538, Note_on_c, 7, 86, 0
9, 120538, Note_on_c, 7, 74, 0
9, 120540, Note_on_c, 7, 74, 127
9, 120540, Note_on_c, 7, 86, 127
9, 120598, Note_on_c, 7, 86, 0
9, 120598, Note_on_c, 7, 74, 0
9, 120600, Note_on_c, 7, 74, 127
9, 120600, Note_on_c, 7, 86, 127
9, 120658, Note_on_c, 7, 86, 0
9, 120658, Note_on_c, 7, 74, 0
9, 120660, Note_on_c, 7, 74, 127
9, 120660, Note_on_c, 7, 86, 127
9, 120674, Note_on_c, 7, 50, 0
9, 120674, Note_on_c, 7, 62, 0
9, 120696, Note_on_c, 7, 78, 0
9, 120718, Note_on_c, 7, 86, 0
9, 120718, Note_on_c, 7, 74, 0
9, 120720, Note_on_c, 7, 74, 127
9, 120720, Note_on_c, 7, 86, 127
9, 120778, Note_on_c, 7, 86, 0
9, 120778, Note_on_c, 7, 74, 0
9, 120780, Note_on_c, 7, 74, 127
9, 120780, Note_on_c, 7, 86, 127
9, 120838, Note_on_c, 7, 86, 0
9, 120838, Note_on_c, 7, 74, 0
9, 120840, Note_on_c, 7, 83, 127
9, 120840, Note_on_c, 7, 74, 127
9, 120840, Note_on_c, 7, 86, 127
9, 120840, Note_on_c, 7, 67, 127
9, 120840, Note_on_c, 7, 55, 127
9, 120898, Note_on_c, 7, 86, 0
9, 120898, Note_on_c, 7, 74, 0
9, 120900, Note_on_c, 7, 74, 127
9, 120900, Note_on_c, 7, 86, 127
9, 120927, Note_on_c, 7, 55, 0
9, 120948, Note_on_c, 7, 83, 0
9, 120948, Note_on_c, 7, 67, 0
9, 120958, Note_on_c, 7, 74, 0
9, 120958, Note_on_c, 7, 86, 0
9, 120960, Note_on_c, 7, 74, 127
9, 120960, Note_on_c, 7, 86, 127
9, 120960, Note_on_c, 7, 81, 127
9, 120960, Note_on_c, 7, 66, 127
9, 120960, Note_on_c, 7, 50, 127
9, 121018, Note_on_c, 7, 86, 0
9, 121018, Note_on_c, 7, 74, 0
9, 121020, Note_on_c, 7, 74, 127
9, 121020, Note_on_c, 7, 86, 127
9, 121068, Note_on_c, 7, 66, 0
9, 121068, Note_on_c, 7, 81, 0
9, 121078, Note_on_c, 7, 86, 0
9, 121078, Note_on_c, 7, 74, 0
9, 121080, Note_on_c, 7, 74, 127
9, 121080, Note_on_c, 7, 86, 127
9, 121080, Note_on_c, 7, 78, 127
9, 121080, Note_on_c, 7, 62, 127
9, 121138, Note_on_c, 7, 86, 0
9, 121138, Note_on_c, 7, 74, 0
9, 121140, Note_on_c, 7, 74, 127
9, 121140, Note_on_c, 7, 86, 127
9, 121154, Note_on_c, 7, 50, 0
9, 121167, Note_on_c, 7, 62, 0
9, 121176, Note_on_c, 7, 78, 0
9, 121198, Note_on_c, 7, 86, 0
9, 121198, Note_on_c, 7, 74, 0
9, 121200, Note_on_c, 7, 74, 127
9, 121200, Note_on_c, 7, 86, 127
9, 121258, Note_on_c, 7, 86, 0
9, 121258, Note_on_c, 7, 74, 0
9, 121260, Note_on_c, 7, 74, 127
9, 121260, Note_on_c, 7, 86, 127
9, 121318, Note_on_c, 7, 86, 0
9, 121318, Note_on_c, 7, 74, 0
9, 121320, Note_on_c, 7, 74, 127
9, 121320, Note_on_c, 7, 86, 127
9, 121320, Note_on_c, 7, 83, 127
9, 121320, Note_on_c, 7, 67, 127
9, 121320, Note_on_c, 7, 55, 127
9, 121378, Note_on_c, 7, 86, 0
9, 121378, Note_on_c, 7, 74, 0
9, 121380, Note_on_c, 7, 74, 127
9, 121380, Note_on_c, 7, 86, 127
9, 121407, Note_on_c, 7, 55, 0
9, 121428, Note_on_c, 7, 67, 0
9, 121428, Note_on_c, 7, 83, 0
9, 121438, Note_on_c, 7, 74, 0
9, 121438, Note_on_c, 7, 86, 0
9, 121440, Note_on_c, 7, 74, 127
9, 121440, Note_on_c, 7, 86, 127
9, 121440, Note_on_c, 7, 81, 127
9, 121440, Note_on_c, 7, 66, 127
9, 121440, Note_on_c, 7, 50, 127
9, 121498, Note_on_c, 7, 86, 0
9, 121498, Note_on_c, 7, 74, 0
9, 121500, Note_on_c, 7, 74, 127
9, 121500, Note_on_c, 7, 86, 127
9, 121548, Note_on_c, 7, 66, 0
9, 121548, Note_on_c, 7, 81, 0
9, 121558, Note_on_c, 7, 86, 0
9, 121558, Note_on_c, 7, 74, 0
9, 121560, Note_on_c, 7, 74, 127
9, 121560, Note_on_c, 7, 86, 127
9, 121560, Note_on_c, 7, 78, 127
9, 121560, Note_on_c, 7, 62, 127
9, 121618, Note_on_c, 7, 86, 0
9, 121618, Note_on_c, 7, 74, 0
9, 121620, Note_on_c, 7, 74, 127
9, 121620, Note_on_c, 7, 86, 127
9, 121634, Note_on_c, 7, 50, 0
9, 121647, Note_on_c, 7, 62, 0
9, 121656, Note_on_c, 7, 78, 0
9, 121678, Note_on_c, 7, 86, 0
9, 121678, Note_on_c, 7, 74, 0
9, 121680, Note_on_c, 7, 74, 127
9, 121680, Note_on_c, 7, 86, 127
9, 121738, Note_on_c, 7, 86, 0
9, 121738, Note_on_c, 7, 74, 0
9, 121740, Note_on_c, 7, 74, 127
9, 121740, Note_on_c, 7, 86, 127
9, 121798, Note_on_c, 7, 86, 0
9, 121798, Note_on_c, 7, 74, 0
9, 121800, Note_on_c, 7, 74, 127
9, 121800, Note_on_c, 7, 86, 127
9, 121800, Note_on_c, 7, 83, 127
9, 121800, Note_on_c, 7, 67, 127
9, 121800, Note_on_c, 7, 55, 127
9, 121858, Note_on_c, 7, 86, 0
9, 121858, Note_on_c, 7, 74, 0
9, 121860, Note_on_c, 7, 74, 127
9, 121860, Note_on_c, 7, 86, 127
9, 121887, Note_on_c, 7, 55, 0
9, 121908, Note_on_c, 7, 67, 0
9, 121908, Note_on_c, 7, 83, 0
9, 121918, Note_on_c, 7, 74, 0
9, 121918, Note_on_c, 7, 86, 0
9, 121920, Note_on_c, 7, 74, 127
9, 121920, Note_on_c, 7, 86, 127
9, 121920, Note_on_c, 7, 81, 127
9, 121920, Note_on_c, 7, 66, 127
9, 121920, Note_on_c, 7, 54, 127
9, 121978, Note_on_c, 7, 86, 0
9, 121978, Note_on_c, 7, 74, 0
9, 121980, Note_on_c, 7, 74, 127
9, 121980, Note_on_c, 7, 86, 127
9, 122017, Note_on_c, 7, 54, 0
9, 122028, Note_on_c, 7, 66, 0
9, 122028, Note_on_c, 7, 81, 0
9, 122038, Note_on_c, 7, 74, 0
9, 122038, Note_on_c, 7, 86, 0
9, 122040, Note_on_c, 7, 74, 127
9, 122040, Note_on_c, 7, 86, 127
9, 122040, Note_on_c, 7, 78, 127
9, 122040, Note_on_c, 7, 62, 127
9, 122040, Note_on_c, 7, 50, 127
9, 122098, Note_on_c, 7, 86, 0
9, 122098, Note_on_c, 7, 74, 0
9, 122100, Note_on_c, 7, 74, 127
9, 122100, Note_on_c, 7, 86, 127
9, 122127, Note_on_c, 7, 62, 0
9, 122127, Note_on_c, 7, 50, 0
9, 122148, Note_on_c, 7, 78, 0
9, 122158, Note_on_c, 7, 74, 0
9, 122158, Note_on_c, 7, 86, 0
9, 122160, Note_on_c, 7, 81, 127
9, 122160, Note_on_c, 7, 74, 127
9, 122160, Note_on_c, 7, 86, 127
9, 122160, Note_on_c, 7, 66, 127
9, 122160, Note_on_c, 7, 54, 127
9, 122218, Note_on_c, 7, 86, 0
9, 122218, Note_on_c, 7, 74, 0
9, 122220, Note_on_c, 7, 74, 127
9, 122220, Note_on_c, 7, 86, 127
9, 122247, Note_on_c, 7, 54, 0
9, 122268, Note_on_c, 7, 81, 0
9, 122268, Note_on_c, 7, 66, 0
9, 122278, Note_on_c, 7, 74, 0
9, 122278, Note_on_c, 7, 86, 0
9, 122280, Note_on_c, 7, 74, 127
9, 122280, Note_on_c, 7, 86, 127
9, 122280, Note_on_c, 7, 83, 127
9, 122280, Note_on_c, 7, 67, 127
9, 122280, Note_on_c, 7, 55, 127
9, 122338, Note_on_c, 7, 86, 0
9, 122338, Note_on_c, 7, 74, 0
9, 122340, Note_on_c, 7, 74, 126
9, 122340, Note_on_c, 7, 86, 126
9, 122367, Note_on_c, 7, 55, 0
9, 122388, Note_on_c, 7, 67, 0
9, 122388, Note_on_c, 7, 83, 0
9, 122398, Note_on_c, 7, 74, 0
9, 122398, Note_on_c, 7, 86, 0
9, 122400, Note_on_c, 7, 86, 126
9, 122400, Note_on_c, 7, 81, 126
9, 122400, Note_on_c, 7, 66, 126
9, 122400, Note_on_c, 7, 54, 126
9, 122460, Note_on_c, 7, 81, 125
9, 122460, Note_on_c, 7, 81, 125
9, 122480, Note_on_c, 7, 81, 0
9, 122480, Note_on_c, 7, 86, 0
9, 122508, Note_on_c, 7, 54, 0
9, 122520, Note_on_c, 7, 66, 0
9, 122520, Note_on_c, 7, 81, 124
9, 122520, Note_on_c, 7, 81, 124
9, 122520, Note_on_c, 7, 62, 124
9, 122520, Note_on_c, 7, 50, 124
9, 122540, Note_on_c, 7, 81, 0
9, 122540, Note_on_c, 7, 81, 0
9, 122578, Note_on_c, 7, 81, 0
9, 122578, Note_on_c, 7, 81, 0
9, 122580, Note_on_c, 7, 81, 127
9, 122580, Note_on_c, 7, 81, 127
9, 122607, Note_on_c, 7, 50, 0
9, 122607, Note_on_c, 7, 62, 0
9, 122638, Note_on_c, 7, 81, 0
9, 122638, Note_on_c, 7, 81, 0
9, 122640, Note_on_c, 7, 81, 127
9, 122640, Note_on_c, 7, 81, 127
9, 122698, Note_on_c, 7, 81, 0
9, 122698, Note_on_c, 7, 81, 0
9, 122700, Note_on_c, 7, 81, 127
9, 122700, Note_on_c, 7, 81, 127
9, 122758, Note_on_c, 7, 81, 0
9, 122758, Note_on_c, 7, 81, 0
9, 122760, Note_on_c, 7, 85, 127
9, 122760, Note_on_c, 7, 85, 127
9, 122760, Note_on_c, 7, 69, 127
9, 122760, Note_on_c, 7, 57, 127
9, 122820, Note_on_c, 7, 81, 127
9, 122820, Note_on_c, 7, 81, 127
9, 122846, Note_on_c, 7, 85, 0
9, 122846, Note_on_c, 7, 85, 0
9, 122864, Note_on_c, 7, 57, 0
9, 122880, Note_on_c, 7, 86, 127
9, 122880, Note_on_c, 7, 81, 127
9, 122880, Note_on_c, 7, 66, 127
9, 122880, Note_on_c, 7, 54, 127
9, 122890, Note_on_c, 7, 69, 0
9, 122906, Note_on_c, 7, 81, 0
9, 122906, Note_on_c, 7, 81, 0
9, 122940, Note_on_c, 7, 81, 127
9, 122940, Note_on_c, 7, 81, 127
9, 122960, Note_on_c, 7, 81, 0
9, 122960, Note_on_c, 7, 86, 0
9, 122988, Note_on_c, 7, 54, 0
9, 123000, Note_on_c, 7, 66, 0
9, 123000, Note_on_c, 7, 81, 127
9, 123000, Note_on_c, 7, 81, 127
9, 123000, Note_on_c, 7, 62, 127
9, 123000, Note_on_c, 7, 50, 127
9, 123020, Note_on_c, 7, 81, 0
9, 123020, Note_on_c, 7, 81, 0
9, 123058, Note_on_c, 7, 81, 0
9, 123058, Note_on_c, 7, 81, 0
9, 123060, Note_on_c, 7, 81, 127
9, 123060, Note_on_c, 7, 81, 127
9, 123087, Note_on_c, 7, 50, 0
9, 123087, Note_on_c, 7, 62, 0
9, 123118, Note_on_c, 7, 81, 0
9, 123118, Note_on_c, 7, 81, 0
9, 123120, Note_on_c, 7, 81, 127
9, 123120, Note_on_c, 7, 81, 127
9, 123178, Note_on_c, 7, 81, 0
9, 123178, Note_on_c, 7, 81, 0
9, 123180, Note_on_c, 7, 81, 127
9, 123180, Note_on_c, 7, 81, 127
9, 123238, Note_on_c, 7, 81, 0
9, 123238, Note_on_c, 7, 81, 0
9, 123240, Note_on_c, 7, 85, 127
9, 123240, Note_on_c, 7, 85, 127
9, 123240, Note_on_c, 7, 69, 127
9, 123240, Note_on_c, 7, 57, 127
9, 123300, Note_on_c, 7, 81, 127
9, 123300, Note_on_c, 7, 81, 127
9, 123326, Note_on_c, 7, 85, 0
9, 123326, Note_on_c, 7, 85, 0
9, 123344, Note_on_c, 7, 57, 0
9, 123360, Note_on_c, 7, 86, 127
9, 123360, Note_on_c, 7, 81, 127
9, 123360, Note_on_c, 7, 66, 127
9, 123360, Note_on_c, 7, 54, 127
9, 123370, Note_on_c, 7, 69, 0
9, 123386, Note_on_c, 7, 81, 0
9, 123386, Note_on_c, 7, 81, 0
9, 123420, Note_on_c, 7, 81, 127
9, 123420, Note_on_c, 7, 81, 127
9, 123440, Note_on_c, 7, 81, 0
9, 123440, Note_on_c, 7, 86, 0
9, 123468, Note_on_c, 7, 54, 0
9, 123480, Note_on_c, 7, 66, 0
9, 123480, Note_on_c, 7, 81, 127
9, 123480, Note_on_c, 7, 81, 127
9, 123480, Note_on_c, 7, 62, 127
9, 123480, Note_on_c, 7, 50, 127
9, 123500, Note_on_c, 7, 81, 0
9, 123500, Note_on_c, 7, 81, 0
9, 123538, Note_on_c, 7, 81, 0
9, 123538, Note_on_c, 7, 81, 0
9, 123540, Note_on_c, 7, 81, 127
9, 123540, Note_on_c, 7, 81, 127
9, 123567, Note_on_c, 7, 50, 0
9, 123567, Note_on_c, 7, 62, 0
9, 123598, Note_on_c, 7, 81, 0
9, 123598, Note_on_c, 7, 81, 0
9, 123600, Note_on_c, 7, 81, 127
9, 123600, Note_on_c, 7, 81, 127
9, 123658, Note_on_c, 7, 81, 0
9, 123658, Note_on_c, 7, 81, 0
9, 123660, Note_on_c, 7, 81, 127
9, 123660, Note_on_c, 7, 81, 127
9, 123718, Note_on_c, 7, 81, 0
9, 123718, Note_on_c, 7, 81, 0
9, 123720, Note_on_c, 7, 85, 127
9, 123720, Note_on_c, 7, 85, 127
9, 123720, Note_on_c, 7, 69, 127
9, 123720, Note_on_c, 7, 57, 127
9, 123780, Note_on_c, 7, 81, 127
9, 123780, Note_on_c, 7, 81, 127
9, 123806, Note_on_c, 7, 85, 0
9, 123806, Note_on_c, 7, 85, 0
9, 123824, Note_on_c, 7, 57, 0
9, 123840, Note_on_c, 7, 86, 127
9, 123840, Note_on_c, 7, 86, 127
9, 123840, Note_on_c, 7, 66, 127
9, 123840, Note_on_c, 7, 54, 127
9, 123850, Note_on_c, 7, 69, 0
9, 123866, Note_on_c, 7, 81, 0
9, 123866, Note_on_c, 7, 81, 0
9, 123900, Note_on_c, 7, 81, 127
9, 123900, Note_on_c, 7, 81, 127
9, 123920, Note_on_c, 7, 86, 0
9, 123920, Note_on_c, 7, 86, 0
9, 123948, Note_on_c, 7, 54, 0
9, 123960, Note_on_c, 7, 66, 0
9, 123960, Note_on_c, 7, 85, 127
9, 123960, Note_on_c, 7, 85, 127
9, 123960, Note_on_c, 7, 69, 127
9, 123960, Note_on_c, 7, 57, 127
9, 123980, Note_on_c, 7, 81, 0
9, 123980, Note_on_c, 7, 81, 0
9, 124020, Note_on_c, 7, 81, 127
9, 124020, Note_on_c, 7, 81, 127
9, 124032, Note_on_c, 7, 85, 0
9, 124032, Note_on_c, 7, 85, 0
9, 124047, Note_on_c, 7, 57, 0
9, 124068, Note_on_c, 7, 69, 0
9, 124080, Note_on_c, 7, 86, 127
9, 124080, Note_on_c, 7, 86, 127
9, 124080, Note_on_c, 7, 66, 127
9, 124080, Note_on_c, 7, 54, 127
9, 124092, Note_on_c, 7, 81, 0
9, 124092, Note_on_c, 7, 81, 0
9, 124140, Note_on_c, 7, 81, 127
9, 124140, Note_on_c, 7, 81, 127
9, 124152, Note_on_c, 7, 86, 0
9, 124152, Note_on_c, 7, 86, 0
9, 124167, Note_on_c, 7, 54, 0
9, 124188, Note_on_c, 7, 66, 0
9, 124200, Note_on_c, 7, 85, 127
9, 124200, Note_on_c, 7, 85, 127
9, 124200, Note_on_c, 7, 69, 127
9, 124200, Note_on_c, 7, 57, 127
9, 124212, Note_on_c, 7, 81, 0
9, 124212, Note_on_c, 7, 81, 0
9, 124260, Note_on_c, 7, 81, 127
9, 124260, Note_on_c, 7, 81, 127
9, 124286, Note_on_c, 7, 85, 0
9, 124286, Note_on_c, 7, 85, 0
9, 124304, Note_on_c, 7, 57, 0
9, 124320, Note_on_c, 7, 86, 127
9, 124320, Note_on_c, 7, 86, 127
9, 124320, Note_on_c, 7, 74, 127
9, 124320, Note_on_c, 7, 50, 127
9, 124330, Note_on_c, 7, 69, 0
9, 124346, Note_on_c, 7, 81, 0
9, 124346, Note_on_c, 7, 81, 0
9, 124380, Note_on_c, 7, 85, 127
9, 124380, Note_on_c, 7, 85, 127
9, 124380, Note_on_c, 7, 73, 127
9, 124400, Note_on_c, 7, 86, 0
9, 124400, Note_on_c, 7, 86, 0
9, 124400, Note_on_c, 7, 74, 0
9, 124440, Note_on_c, 7, 83, 127
9, 124440, Note_on_c, 7, 83, 127
9, 124440, Note_on_c, 7, 71, 127
9, 124460, Note_on_c, 7, 85, 0
9, 124460, Note_on_c, 7, 73, 0
9, 124460, Note_on_c, 7, 85, 0
9, 124500, Note_on_c, 7, 81, 127
9, 124500, Note_on_c, 7, 81, 127
9, 124500, Note_on_c, 7, 69, 127
9, 124512, Note_on_c, 7, 83, 0
9, 124512, Note_on_c, 7, 71, 0
9, 124512, Note_on_c, 7, 83, 0
9, 124560, Note_on_c, 7, 79, 127
9, 124560, Note_on_c, 7, 79, 127
9, 124560, Note_on_c, 7, 67, 127
9, 124572, Note_on_c, 7, 81, 0
9, 124572, Note_on_c, 7, 69, 0
9, 124572, Note_on_c, 7, 81, 0
9, 124612, Note_on_c, 7, 50, 0
9, 124620, Note_on_c, 7, 78, 127
9, 124620, Note_on_c, 7, 78, 127
9, 124620, Note_on_c, 7, 66, 127
9, 124632, Note_on_c, 7, 67, 0
9, 124632, Note_on_c, 7, 79, 0
9, 124632, Note_on_c, 7, 79, 0
9, 124680, Note_on_c, 7, 76, 127
9, 124680, Note_on_c, 7, 76, 127
9, 124680, Note_on_c, 7, 64, 127
9, 124692, Note_on_c, 7, 78, 0
9, 124692, Note_on_c, 7, 66, 0
9, 124692, Note_on_c, 7, 78, 0
9, 124739, Note_on_c, 7, 64, 0
9, 124740, Note_on_c, 7, 74, 127
9, 124740, Note_on_c, 7, 74, 127
9, 124740, Note_on_c, 7, 62, 127
9, 124740, Note_on_c, 7, 62, 127
9, 124766, Note_on_c, 7, 76, 0
9, 124766, Note_on_c, 7, 76, 0
9, 124799, Note_on_c, 7, 62, 0
9, 124799, Note_on_c, 7, 62, 0
9, 124800, Note_on_c, 7, 73, 127
9, 124800, Note_on_c, 7, 73, 127
9, 124800, Note_on_c, 7, 73, 127
9, 124800, Note_on_c, 7, 61, 127
9, 124826, Note_on_c, 7, 74, 0
9, 124826, Note_on_c, 7, 74, 0
9, 124860, Note_on_c, 7, 71, 126
9, 124860, Note_on_c, 7, 71, 126
9, 124860, Note_on_c, 7, 71, 126
9, 124860, Note_on_c, 7, 59, 126
9, 124872, Note_on_c, 7, 61, 0
9, 124880, Note_on_c, 7, 73, 0
9, 124880, Note_on_c, 7, 73, 0
9, 124880, Note_on_c, 7, 73, 0
9, 124919, Note_on_c, 7, 59, 0
9, 124920, Note_on_c, 7, 69, 123
9, 124920, Note_on_c, 7, 69, 123
9, 124920, Note_on_c, 7, 69, 123
9, 124920, Note_on_c, 7, 57, 123
9, 124940, Note_on_c, 7, 71, 0
9, 124940, Note_on_c, 7, 71, 0
9, 124940, Note_on_c, 7, 71, 0
9, 124979, Note_on_c, 7, 57, 0
9, 124980, Note_on_c, 7, 67, 121
9, 124980, Note_on_c, 7, 67, 121
9, 124980, Note_on_c, 7, 67, 121
9, 124980, Note_on_c, 7, 55, 121
9, 124992, Note_on_c, 7, 69, 0
9, 124992, Note_on_c, 7, 69, 0
9, 124992, Note_on_c, 7, 69, 0
9, 125039, Note_on_c, 7, 55, 0
9, 125040, Note_on_c, 7, 66, 118
9, 125040, Note_on_c, 7, 66, 118
9, 125040, Note_on_c, 7, 66, 118
9, 125040, Note_on_c, 7, 54, 118
9, 125052, Note_on_c, 7, 67, 0
9, 125052, Note_on_c, 7, 67, 0
9, 125052, Note_on_c, 7, 67, 0
9, 125099, Note_on_c, 7, 54, 0
9, 125100, Note_on_c, 7, 64, 115
9, 125100, Note_on_c, 7, 64, 115
9, 125100, Note_on_c, 7, 64, 115
9, 125100, Note_on_c, 7, 52, 115
9, 125112, Note_on_c, 7, 66, 0
9, 125112, Note_on_c, 7, 66, 0
9, 125112, Note_on_c, 7, 66, 0
9, 125159, Note_on_c, 7, 64, 0
9, 125159, Note_on_c, 7, 64, 0
9, 125159, Note_on_c, 7, 64, 0
9, 125159, Note_on_c, 7, 52, 0
9, 125160, Note_on_c, 7, 62, 111
9, 125160, Note_on_c, 7, 62, 111
9, 125160, Note_on_c, 7, 62, 111
9, 125160, Note_on_c, 7, 50, 111
9, 125219, Note_on_c, 7, 50, 0
9, 125219, Note_on_c, 7, 62, 0
9, 125219, Note_on_c, 7, 62, 0
9, 125219, Note_on_c, 7, 62, 0
9, 125220, Note_on_c, 7, 61, 108
9, 125220, Note_on_c, 7, 61, 108
9, 125220, Note_on_c, 7, 61, 108
9, 125220, Note_on_c, 7, 49, 108
9, 125260, Control_c, 7, 7, 76
9, 125279, Note_on_c, 7, 49, 0
9, 125279, Note_on_c, 7, 61, 0
9, 125279, Note_on_c, 7, 61, 0
9, 125279, Note_on_c, 7, 61, 0
9, 125280, Note_on_c, 7, 59, 111
9, 125280, Note_on_c, 7, 59, 111
9, 125280, Note_on_c, 7, 59, 111
9, 125280, Note_on_c, 7, 47, 111
9, 125340, Control_c, 7, 7, 78
9, 125420, Control_c, 7, 7, 84
9, 125440, Control_c, 7, 7, 86
9, 125460, Control_c, 7, 7, 88
9, 125470, Control_c, 7, 7, 89
9, 125530, Control_c, 7, 7, 95
9, 125540, Control_c, 7, 7, 96
9, 125550, Control_c, 7, 7, 97
9, 125560, Control_c, 7, 7, 98
9, 125570, Control_c, 7, 7, 100
9, 125580, Control_c, 7, 7, 101
9, 125600, Control_c, 7, 7, 103
9, 125610, Control_c, 7, 7, 104
9, 125630, Control_c, 7, 7, 105
9, 125640, Control_c, 7, 7, 106
9, 125650, Control_c, 7, 7, 107
9, 125670, Control_c, 7, 7, 109
9, 125690, Control_c, 7, 7, 111
9, 125710, Control_c, 7, 7, 112
9, 125720, Control_c, 7, 7, 113
9, 125730, Control_c, 7, 7, 115
9, 125750, Control_c, 7, 7, 117
9, 125760, Note_on_c, 7, 47, 0
9, 125760, Note_on_c, 7, 59, 0
9, 125760, Note_on_c, 7, 59, 0
9, 125760, Note_on_c, 7, 59, 0
9, 125760, Note_on_c, 7, 61, 118
9, 125760, Note_on_c, 7, 61, 118
9, 125760, Note_on_c, 7, 49, 118
9, 125770, Control_c, 7, 7, 87
9, 125780, Control_c, 7, 7, 89
9, 125790, Note_on_c, 7, 62, 120
9, 125790, Note_on_c, 7, 62, 120
9, 125790, Note_on_c, 7, 50, 120
9, 125792, Note_on_c, 7, 49, 0
9, 125792, Note_on_c, 7, 61, 0
9, 125792, Note_on_c, 7, 61, 0
9, 125810, Control_c, 7, 7, 91
9, 125819, Note_on_c, 7, 62, 0
9, 125819, Note_on_c, 7, 62, 0
9, 125819, Note_on_c, 7, 50, 0
9, 125820, Note_on_c, 7, 61, 121
9, 125820, Note_on_c, 7, 61, 121
9, 125820, Note_on_c, 7, 49, 121
9, 125820, Control_c, 7, 7, 92
9, 125840, Control_c, 7, 7, 93
9, 125849, Note_on_c, 7, 49, 0
9, 125849, Note_on_c, 7, 61, 0
9, 125849, Note_on_c, 7, 61, 0
9, 125850, Note_on_c, 7, 62, 121
9, 125850, Note_on_c, 7, 62, 121
9, 125850, Note_on_c, 7, 50, 121
9, 125850, Control_c, 7, 7, 95
9, 125879, Note_on_c, 7, 50, 0
9, 125879, Note_on_c, 7, 62, 0
9, 125879, Note_on_c, 7, 62, 0
9, 125880, Note_on_c, 7, 61, 124
9, 125880, Note_on_c, 7, 61, 124
9, 125880, Note_on_c, 7, 49, 124
9, 125909, Note_on_c, 7, 49, 0
9, 125909, Note_on_c, 7, 61, 0
9, 125909, Note_on_c, 7, 61, 0
9, 125910, Note_on_c, 7, 62, 125
9, 125910, Note_on_c, 7, 62, 125
9, 125910, Note_on_c, 7, 50, 125
9, 125910, Control_c, 7, 7, 97
9, 125920, Control_c, 7, 7, 98
9, 125939, Note_on_c, 7, 50, 0
9, 125939, Note_on_c, 7, 62, 0
9, 125939, Note_on_c, 7, 62, 0
9, 125940, Note_on_c, 7, 61, 126
9, 125940, Note_on_c, 7, 61, 126
9, 125940, Note_on_c, 7, 49, 126
9, 125969, Note_on_c, 7, 49, 0
9, 125969, Note_on_c, 7, 61, 0
9, 125969, Note_on_c, 7, 61, 0
9, 125970, Note_on_c, 7, 62, 126
9, 125970, Note_on_c, 7, 62, 126
9, 125970, Note_on_c, 7, 50, 126
9, 125980, Control_c, 7, 7, 100
9, 125990, Control_c, 7, 7, 101
9, 125999, Note_on_c, 7, 50, 0
9, 125999, Note_on_c, 7, 62, 0
9, 125999, Note_on_c, 7, 62, 0
9, 126000, Note_on_c, 7, 61, 127
9, 126000, Note_on_c, 7, 61, 127
9, 126000, Note_on_c, 7, 49, 127
9, 126029, Note_on_c, 7, 49, 0
9, 126029, Note_on_c, 7, 61, 0
9, 126029, Note_on_c, 7, 61, 0
9, 126030, Note_on_c, 7, 62, 127
9, 126030, Note_on_c, 7, 62, 127
9, 126030, Note_on_c, 7, 50, 127
9, 126059, Note_on_c, 7, 50, 0
9, 126059, Note_on_c, 7, 62, 0
9, 126059, Note_on_c, 7, 62, 0
9, 126060, Note_on_c, 7, 61, 127
9, 126060, Note_on_c, 7, 61, 127
9, 126060, Note_on_c, 7, 49, 127
9, 126060, Control_c, 7, 7, 107
9, 126070, Control_c, 7, 7, 108
9, 126089, Note_on_c, 7, 49, 0
9, 126089, Note_on_c, 7, 61, 0
9, 126089, Note_on_c, 7, 61, 0
9, 126090, Note_on_c, 7, 62, 127
9, 126090, Note_on_c, 7, 62, 127
9, 126090, Note_on_c, 7, 50, 127
9, 126090, Control_c, 7, 7, 110
9, 126110, Control_c, 7, 7, 112
9, 126119, Note_on_c, 7, 50, 0
9, 126119, Note_on_c, 7, 62, 0
9, 126119, Note_on_c, 7, 62, 0
9, 126120, Note_on_c, 7, 61, 127
9, 126120, Note_on_c, 7, 61, 127
9, 126120, Note_on_c, 7, 49, 127
9, 126130, Control_c, 7, 7, 114
9, 126149, Note_on_c, 7, 49, 0
9, 126149, Note_on_c, 7, 61, 0
9, 126149, Note_on_c, 7, 61, 0
9, 126150, Note_on_c, 7, 62, 127
9, 126150, Note_on_c, 7, 62, 127
9, 126150, Note_on_c, 7, 50, 127
9, 126150, Control_c, 7, 7, 116
9, 126160, Control_c, 7, 7, 117
9, 126179, Note_on_c, 7, 50, 0
9, 126179, Note_on_c, 7, 62, 0
9, 126179, Note_on_c, 7, 62, 0
9, 126180, Note_on_c, 7, 61, 127
9, 126180, Note_on_c, 7, 61, 127
9, 126180, Note_on_c, 7, 49, 127
9, 126180, Control_c, 7, 7, 119
9, 126190, Control_c, 7, 7, 121
9, 126209, Note_on_c, 7, 49, 0
9, 126209, Note_on_c, 7, 61, 0
9, 126209, Note_on_c, 7, 61, 0
9, 126210, Note_on_c, 7, 59, 127
9, 126210, Note_on_c, 7, 59, 127
9, 126210, Note_on_c, 7, 47, 127
9, 126210, Control_c, 7, 7, 122
9, 126225, Note_on_c, 7, 61, 127
9, 126225, Note_on_c, 7, 61, 127
9, 126225, Note_on_c, 7, 49, 127
9, 126226, Note_on_c, 7, 47, 0
9, 126226, Note_on_c, 7, 59, 0
9, 126226, Note_on_c, 7, 59, 0
9, 126230, Control_c, 7, 7, 123
9, 126240, Note_on_c, 7, 62, 127
9, 126240, Note_on_c, 7, 62, 127
9, 126240, Note_on_c, 7, 50, 127
9, 126241, Note_on_c, 7, 61, 0
9, 126241, Note_on_c, 7, 49, 0
9, 126241, Note_on_c, 7, 61, 0
9, 126348, Note_on_c, 7, 62, 0
9, 126348, Note_on_c, 7, 62, 0
9, 126348, Note_on_c, 7, 50, 0
9, 126470, Note_on_c, 7, 62, 127
9, 126480, Note_on_c, 7, 69, 127
9, 126480, Note_on_c, 7, 74, 127
9, 126480, Note_on_c, 7, 74, 127
9, 126480, Note_on_c, 7, 62, 127
9, 126490, Note_on_c, 7, 86, 127
9, 126490, Note_on_c, 7, 78, 127
9, 126557, Note_on_c, 7, 62, 0
9, 126567, Note_on_c, 7, 62, 0
9, 126588, Note_on_c, 7, 69, 0
9, 126588, Note_on_c, 7, 74, 0
9, 126588, Note_on_c, 7, 74, 0
9, 126598, Note_on_c, 7, 78, 0
9, 126598, Note_on_c, 7, 86, 0
9, 126710, Note_on_c, 7, 62, 127
9, 126720, Note_on_c, 7, 74, 127
9, 126720, Note_on_c, 7, 71, 127
9, 126720, Note_on_c, 7, 67, 127
9, 126720, Note_on_c, 7, 55, 127
9, 126730, Note_on_c, 7, 83, 127
9, 126730, Note_on_c, 7, 79, 127
9, 126843, Note_on_c, 7, 62, 0
9, 126853, Note_on_c, 7, 55, 0
9, 126853, Note_on_c, 7, 74, 0
9, 126853, Note_on_c, 7, 67, 0
9, 126853, Note_on_c, 7, 71, 0
9, 126863, Note_on_c, 7, 79, 0
9, 126863, Note_on_c, 7, 83, 0
9, 126950, Note_on_c, 7, 64, 127
9, 126950, Note_on_c, 7, 69, 127
9, 126960, Note_on_c, 7, 73, 127
9, 126960, Note_on_c, 7, 69, 127
9, 126960, Note_on_c, 7, 57, 127
9, 126970, Note_on_c, 7, 81, 127
9, 126970, Note_on_c, 7, 76, 127
9, 127070, Note_on_c, 7, 69, 0
9, 127070, Note_on_c, 7, 64, 0
9, 127080, Note_on_c, 7, 69, 0
9, 127080, Note_on_c, 7, 57, 0
9, 127080, Note_on_c, 7, 73, 0
9, 127090, Note_on_c, 7, 76, 0
9, 127090, Note_on_c, 7, 81, 0
9, 127160, Control_c, 7, 7, 96
9, 127200, Note_on_c, 7, 78, 97
9, 127200, Note_on_c, 7, 74, 97
9, 127200, Note_on_c, 7, 86, 97
9, 127200, Note_on_c, 7, 62, 97
9, 127200, Note_on_c, 7, 50, 97
9, 127220, Control_c, 7, 7, 97
9, 127256, Note_on_c, 7, 86, 0
9, 127256, Note_on_c, 7, 74, 0
9, 127260, Note_on_c, 7, 74, 97
9, 127260, Note_on_c, 7, 86, 97
9, 127316, Note_on_c, 7, 86, 0
9, 127316, Note_on_c, 7, 74, 0
9, 127320, Note_on_c, 7, 74, 97
9, 127320, Note_on_c, 7, 86, 97
9, 127373, Note_on_c, 7, 78, 0
9, 127376, Note_on_c, 7, 74, 0
9, 127376, Note_on_c, 7, 86, 0
9, 127380, Note_on_c, 7, 74, 97
9, 127380, Note_on_c, 7, 86, 97
9, 127392, Note_on_c, 7, 50, 0
9, 127392, Note_on_c, 7, 62, 0
9, 127436, Note_on_c, 7, 74, 0
9, 127436, Note_on_c, 7, 86, 0
9, 127440, Note_on_c, 7, 74, 97
9, 127440, Note_on_c, 7, 86, 97
9, 127496, Note_on_c, 7, 86, 0
9, 127496, Note_on_c, 7, 74, 0
9, 127500, Note_on_c, 7, 74, 98
9, 127500, Note_on_c, 7, 86, 98
9, 127556, Note_on_c, 7, 86, 0
9, 127556, Note_on_c, 7, 74, 0
9, 127560, Note_on_c, 7, 83, 99
9, 127560, Note_on_c, 7, 74, 99
9, 127560, Note_on_c, 7, 86, 99
9, 127560, Note_on_c, 7, 67, 99
9, 127560, Note_on_c, 7, 55, 99
9, 127616, Note_on_c, 7, 86, 0
9, 127616, Note_on_c, 7, 74, 0
9, 127620, Note_on_c, 7, 74, 99
9, 127620, Note_on_c, 7, 86, 99
9, 127663, Note_on_c, 7, 83, 0
9, 127663, Note_on_c, 7, 55, 0
9, 127663, Note_on_c, 7, 67, 0
9, 127676, Note_on_c, 7, 74, 0
9, 127676, Note_on_c, 7, 86, 0
9, 127680, Note_on_c, 7, 74, 101
9, 127680, Note_on_c, 7, 86, 101
9, 127680, Note_on_c, 7, 81, 101
9, 127680, Note_on_c, 7, 66, 101
9, 127680, Note_on_c, 7, 50, 101
9, 127736, Note_on_c, 7, 86, 0
9, 127736, Note_on_c, 7, 74, 0
9, 127740, Note_on_c, 7, 74, 102
9, 127740, Note_on_c, 7, 86, 102
9, 127775, Note_on_c, 7, 66, 0
9, 127775, Note_on_c, 7, 81, 0
9, 127796, Note_on_c, 7, 86, 0
9, 127796, Note_on_c, 7, 74, 0
9, 127800, Note_on_c, 7, 74, 102
9, 127800, Note_on_c, 7, 86, 102
9, 127800, Note_on_c, 7, 78, 102
9, 127800, Note_on_c, 7, 62, 102
9, 127856, Note_on_c, 7, 86, 0
9, 127856, Note_on_c, 7, 74, 0
9, 127860, Note_on_c, 7, 74, 104
9, 127860, Note_on_c, 7, 86, 104
9, 127872, Note_on_c, 7, 50, 0
9, 127886, Note_on_c, 7, 78, 0
9, 127886, Note_on_c, 7, 62, 0
9, 127916, Note_on_c, 7, 74, 0
9, 127916, Note_on_c, 7, 86, 0
9, 127920, Note_on_c, 7, 74, 104
9, 127920, Note_on_c, 7, 86, 104
9, 127976, Note_on_c, 7, 86, 0
9, 127976, Note_on_c, 7, 74, 0
9, 127980, Note_on_c, 7, 74, 105
9, 127980, Note_on_c, 7, 86, 105
9, 128036, Note_on_c, 7, 86, 0
9, 128036, Note_on_c, 7, 74, 0
9, 128040, Note_on_c, 7, 74, 107
9, 128040, Note_on_c, 7, 86, 107
9, 128040, Note_on_c, 7, 83, 107
9, 128040, Note_on_c, 7, 67, 107
9, 128040, Note_on_c, 7, 55, 107
9, 128096, Note_on_c, 7, 86, 0
9, 128096, Note_on_c, 7, 74, 0
9, 128100, Note_on_c, 7, 74, 107
9, 128100, Note_on_c, 7, 86, 107
9, 128143, Note_on_c, 7, 67, 0
9, 128143, Note_on_c, 7, 55, 0
9, 128143, Note_on_c, 7, 83, 0
9, 128156, Note_on_c, 7, 74, 0
9, 128156, Note_on_c, 7, 86, 0
9, 128160, Note_on_c, 7, 74, 109
9, 128160, Note_on_c, 7, 86, 109
9, 128160, Note_on_c, 7, 81, 109
9, 128160, Note_on_c, 7, 66, 109
9, 128160, Note_on_c, 7, 50, 109
9, 128216, Note_on_c, 7, 86, 0
9, 128216, Note_on_c, 7, 74, 0
9, 128220, Note_on_c, 7, 74, 109
9, 128220, Note_on_c, 7, 86, 109
9, 128255, Note_on_c, 7, 66, 0
9, 128255, Note_on_c, 7, 81, 0
9, 128276, Note_on_c, 7, 86, 0
9, 128276, Note_on_c, 7, 74, 0
9, 128280, Note_on_c, 7, 74, 111
9, 128280, Note_on_c, 7, 86, 111
9, 128280, Note_on_c, 7, 78, 111
9, 128280, Note_on_c, 7, 62, 111
9, 128336, Note_on_c, 7, 86, 0
9, 128336, Note_on_c, 7, 74, 0
9, 128340, Note_on_c, 7, 74, 111
9, 128340, Note_on_c, 7, 86, 111
9, 128352, Note_on_c, 7, 50, 0
9, 128366, Note_on_c, 7, 78, 0
9, 128366, Note_on_c, 7, 62, 0
9, 128396, Note_on_c, 7, 74, 0
9, 128396, Note_on_c, 7, 86, 0
9, 128400, Note_on_c, 7, 74, 112
9, 128400, Note_on_c, 7, 86, 112
9, 128456, Note_on_c, 7, 86, 0
9, 128456, Note_on_c, 7, 74, 0
9, 128460, Note_on_c, 7, 74, 113
9, 128460, Note_on_c, 7, 86, 113
9, 128516, Note_on_c, 7, 86, 0
9, 128516, Note_on_c, 7, 74, 0
9, 128520, Note_on_c, 7, 74, 114
9, 128520, Note_on_c, 7, 86, 114
9, 128520, Note_on_c, 7, 83, 114
9, 128520, Note_on_c, 7, 67, 114
9, 128520, Note_on_c, 7, 55, 114
9, 128576, Note_on_c, 7, 86, 0
9, 128576, Note_on_c, 7, 74, 0
9, 128580, Note_on_c, 7, 74, 114
9, 128580, Note_on_c, 7, 86, 114
9, 128623, Note_on_c, 7, 67, 0
9, 128623, Note_on_c, 7, 55, 0
9, 128623, Note_on_c, 7, 83, 0
9, 128636, Note_on_c, 7, 74, 0
9, 128636, Note_on_c, 7, 86, 0
9, 128640, Note_on_c, 7, 74, 115
9, 128640, Note_on_c, 7, 86, 115
9, 128640, Note_on_c, 7, 81, 115
9, 128640, Note_on_c, 7, 66, 115
9, 128640, Note_on_c, 7, 54, 115
9, 128696, Note_on_c, 7, 86, 0
9, 128696, Note_on_c, 7, 74, 0
9, 128700, Note_on_c, 7, 74, 115
9, 128700, Note_on_c, 7, 86, 115
9, 128735, Note_on_c, 7, 66, 0
9, 128735, Note_on_c, 7, 81, 0
9, 128745, Note_on_c, 7, 54, 0
9, 128756, Note_on_c, 7, 86, 0
9, 128756, Note_on_c, 7, 74, 0
9, 128760, Note_on_c, 7, 74, 115
9, 128760, Note_on_c, 7, 86, 115
9, 128760, Note_on_c, 7, 78, 115
9, 128760, Note_on_c, 7, 62, 115
9, 128760, Note_on_c, 7, 50, 115
9, 128816, Note_on_c, 7, 86, 0
9, 128816, Note_on_c, 7, 74, 0
9, 128820, Note_on_c, 7, 74, 115
9, 128820, Note_on_c, 7, 86, 115
9, 128846, Note_on_c, 7, 62, 0
9, 128846, Note_on_c, 7, 50, 0
9, 128846, Note_on_c, 7, 78, 0
9, 128876, Note_on_c, 7, 74, 0
9, 128876, Note_on_c, 7, 86, 0
9, 128880, Note_on_c, 7, 81, 116
9, 128880, Note_on_c, 7, 74, 116
9, 128880, Note_on_c, 7, 86, 116
9, 128880, Note_on_c, 7, 66, 116
9, 128880, Note_on_c, 7, 54, 116
9, 128936, Note_on_c, 7, 86, 0
9, 128936, Note_on_c, 7, 74, 0
9, 128940, Note_on_c, 7, 74, 116
9, 128940, Note_on_c, 7, 86, 116
9, 128966, Note_on_c, 7, 81, 0
9, 128966, Note_on_c, 7, 54, 0
9, 128966, Note_on_c, 7, 66, 0
9, 128996, Note_on_c, 7, 74, 0
9, 128996, Note_on_c, 7, 86, 0
9, 129000, Note_on_c, 7, 74, 116
9, 129000, Note_on_c, 7, 86, 116
9, 129000, Note_on_c, 7, 83, 116
9, 129000, Note_on_c, 7, 67, 116
9, 129000, Note_on_c, 7, 55, 116
9, 129056, Note_on_c, 7, 86, 0
9, 129056, Note_on_c, 7, 74, 0
9, 129060, Note_on_c, 7, 74, 117
9, 129060, Note_on_c, 7, 86, 117
9, 129060, Control_c, 7, 7, 98
9, 129103, Note_on_c, 7, 67, 0
9, 129103, Note_on_c, 7, 55, 0
9, 129103, Note_on_c, 7, 83, 0
9, 129116, Note_on_c, 7, 74, 0
9, 129116, Note_on_c, 7, 86, 0
9, 129120, Note_on_c, 7, 86, 117
9, 129120, Note_on_c, 7, 81, 117
9, 129120, Note_on_c, 7, 66, 117
9, 129120, Note_on_c, 7, 54, 117
9, 129140, Control_c, 7, 7, 100
9, 129176, Note_on_c, 7, 81, 0
9, 129176, Note_on_c, 7, 86, 0
9, 129180, Note_on_c, 7, 81, 117
9, 129180, Note_on_c, 7, 81, 117
9, 129215, Note_on_c, 7, 66, 0
9, 129220, Control_c, 7, 7, 101
9, 129225, Note_on_c, 7, 54, 0
9, 129236, Note_on_c, 7, 81, 0
9, 129236, Note_on_c, 7, 81, 0
9, 129240, Note_on_c, 7, 81, 117
9, 129240, Note_on_c, 7, 81, 117
9, 129240, Note_on_c, 7, 62, 117
9, 129240, Note_on_c, 7, 50, 117
9, 129296, Note_on_c, 7, 81, 0
9, 129296, Note_on_c, 7, 81, 0
9, 129300, Note_on_c, 7, 81, 117
9, 129300, Note_on_c, 7, 81, 117
9, 129300, Control_c, 7, 7, 102
9, 129326, Note_on_c, 7, 62, 0
9, 129326, Note_on_c, 7, 50, 0
9, 129356, Note_on_c, 7, 81, 0
9, 129356, Note_on_c, 7, 81, 0
9, 129360, Note_on_c, 7, 81, 117
9, 129360, Note_on_c, 7, 81, 117
9, 129380, Control_c, 7, 7, 103
9, 129416, Note_on_c, 7, 81, 0
9, 129416, Note_on_c, 7, 81, 0
9, 129420, Note_on_c, 7, 81, 118
9, 129420, Note_on_c, 7, 81, 118
9, 129460, Control_c, 7, 7, 105
9, 129476, Note_on_c, 7, 81, 0
9, 129476, Note_on_c, 7, 81, 0
9, 129480, Note_on_c, 7, 85, 119
9, 129480, Note_on_c, 7, 85, 119
9, 129480, Note_on_c, 7, 69, 119
9, 129480, Note_on_c, 7, 57, 119
9, 129536, Note_on_c, 7, 85, 0
9, 129536, Note_on_c, 7, 85, 0
9, 129540, Note_on_c, 7, 81, 119
9, 129540, Note_on_c, 7, 81, 119
9, 129540, Control_c, 7, 7, 106
9, 129583, Note_on_c, 7, 69, 0
9, 129583, Note_on_c, 7, 57, 0
9, 129596, Note_on_c, 7, 81, 0
9, 129596, Note_on_c, 7, 81, 0
9, 129600, Note_on_c, 7, 86, 119
9, 129600, Note_on_c, 7, 81, 119
9, 129600, Note_on_c, 7, 66, 119
9, 129600, Note_on_c, 7, 54, 119
9, 129620, Control_c, 7, 7, 107
9, 129656, Note_on_c, 7, 81, 0
9, 129656, Note_on_c, 7, 86, 0
9, 129660, Note_on_c, 7, 81, 121
9, 129660, Note_on_c, 7, 81, 121
9, 129680, Control_c, 7, 7, 108
9, 129695, Note_on_c, 7, 66, 0
9, 129705, Note_on_c, 7, 54, 0
9, 129716, Note_on_c, 7, 81, 0
9, 129716, Note_on_c, 7, 81, 0
9, 129720, Note_on_c, 7, 81, 121
9, 129720, Note_on_c, 7, 81, 121
9, 129720, Note_on_c, 7, 62, 121
9, 129720, Note_on_c, 7, 50, 121
9, 129760, Control_c, 7, 7, 109
9, 129776, Note_on_c, 7, 81, 0
9, 129776, Note_on_c, 7, 81, 0
9, 129780, Note_on_c, 7, 81, 122
9, 129780, Note_on_c, 7, 81, 122
9, 129806, Note_on_c, 7, 62, 0
9, 129806, Note_on_c, 7, 50, 0
9, 129836, Note_on_c, 7, 81, 0
9, 129836, Note_on_c, 7, 81, 0
9, 129840, Note_on_c, 7, 81, 123
9, 129840, Note_on_c, 7, 81, 123
9, 129840, Control_c, 7, 7, 110
9, 129896, Note_on_c, 7, 81, 0
9, 129896, Note_on_c, 7, 81, 0
9, 129900, Note_on_c, 7, 81, 124
9, 129900, Note_on_c, 7, 81, 124
9, 129920, Control_c, 7, 7, 112
9, 129956, Note_on_c, 7, 81, 0
9, 129956, Note_on_c, 7, 81, 0
9, 129960, Note_on_c, 7, 85, 125
9, 129960, Note_on_c, 7, 85, 125
9, 129960, Note_on_c, 7, 69, 125
9, 129960, Note_on_c, 7, 57, 125
9, 130016, Note_on_c, 7, 85, 0
9, 130016, Note_on_c, 7, 85, 0
9, 130020, Note_on_c, 7, 81, 126
9, 130020, Note_on_c, 7, 81, 126
9, 130040, Control_c, 7, 7, 113
9, 130063, Note_on_c, 7, 69, 0
9, 130063, Note_on_c, 7, 57, 0
9, 130076, Note_on_c, 7, 81, 0
9, 130076, Note_on_c, 7, 81, 0
9, 130080, Note_on_c, 7, 86, 127
9, 130080, Note_on_c, 7, 81, 127
9, 130080, Note_on_c, 7, 66, 127
9, 130080, Note_on_c, 7, 54, 127
9, 130100, Control_c, 7, 7, 114
9, 130120, Control_c, 7, 7, 115
9, 130136, Note_on_c, 7, 81, 0
9, 130136, Note_on_c, 7, 86, 0
9, 130140, Note_on_c, 7, 81, 127
9, 130140, Note_on_c, 7, 81, 127
9, 130175, Note_on_c, 7, 66, 0
9, 130185, Note_on_c, 7, 54, 0
9, 130196, Note_on_c, 7, 81, 0
9, 130196, Note_on_c, 7, 81, 0
9, 130200, Note_on_c, 7, 81, 127
9, 130200, Note_on_c, 7, 81, 127
9, 130200, Note_on_c, 7, 62, 127
9, 130200, Note_on_c, 7, 50, 127
9, 130200, Control_c, 7, 7, 117
9, 130256, Note_on_c, 7, 81, 0
9, 130256, Note_on_c, 7, 81, 0
9, 130260, Note_on_c, 7, 81, 127
9, 130260, Note_on_c, 7, 81, 127
9, 130280, Control_c, 7, 7, 118
9, 130286, Note_on_c, 7, 62, 0
9, 130286, Note_on_c, 7, 50, 0
9, 130316, Note_on_c, 7, 81, 0
9, 130316, Note_on_c, 7, 81, 0
9, 130320, Note_on_c, 7, 81, 127
9, 130320, Note_on_c, 7, 81, 127
9, 130340, Control_c, 7, 7, 119
9, 130376, Note_on_c, 7, 81, 0
9, 130376, Note_on_c, 7, 81, 0
9, 130380, Note_on_c, 7, 81, 127
9, 130380, Note_on_c, 7, 81, 127
9, 130400, Control_c, 7, 7, 120
9, 130420, Control_c, 7, 7, 121
9, 130436, Note_on_c, 7, 81, 0
9, 130436, Note_on_c, 7, 81, 0
9, 130440, Note_on_c, 7, 85, 127
9, 130440, Note_on_c, 7, 85, 127
9, 130440, Note_on_c, 7, 69, 127
9, 130440, Note_on_c, 7, 57, 127
9, 130496, Note_on_c, 7, 85, 0
9, 130496, Note_on_c, 7, 85, 0
9, 130500, Note_on_c, 7, 81, 127
9, 130500, Note_on_c, 7, 81, 127
9, 130500, Control_c, 7, 7, 122
9, 130543, Note_on_c, 7, 69, 0
9, 130543, Note_on_c, 7, 57, 0
9, 130556, Note_on_c, 7, 81, 0
9, 130556, Note_on_c, 7, 81, 0
9, 130560, Note_on_c, 7, 86, 127
9, 130560, Note_on_c, 7, 86, 127
9, 130560, Note_on_c, 7, 66, 127
9, 130560, Note_on_c, 7, 54, 127
9, 130560, Control_c, 7, 7, 123
9, 130580, Control_c, 7, 7, 124
9, 130620, Note_on_c, 7, 86, 0
9, 130620, Note_on_c, 7, 86, 0
9, 130620, Note_on_c, 7, 81, 127
9, 130620, Note_on_c, 7, 81, 127
9, 130655, Note_on_c, 7, 66, 0
9, 130660, Control_c, 7, 7, 125
9, 130665, Note_on_c, 7, 54, 0
9, 130680, Note_on_c, 7, 81, 0
9, 130680, Note_on_c, 7, 81, 0
9, 130680, Note_on_c, 7, 85, 127
9, 130680, Note_on_c, 7, 85, 127
9, 130680, Note_on_c, 7, 69, 127
9, 130680, Note_on_c, 7, 57, 127
9, 130680, Control_c, 7, 7, 126
9, 130740, Note_on_c, 7, 85, 0
9, 130740, Note_on_c, 7, 85, 0
9, 130740, Note_on_c, 7, 81, 127
9, 130740, Note_on_c, 7, 81, 127
9, 130740, Control_c, 7, 7, 127
9, 130766, Note_on_c, 7, 69, 0
9, 130766, Note_on_c, 7, 57, 0
9, 130800, Note_on_c, 7, 81, 0
9, 130800, Note_on_c, 7, 81, 0
9, 130800, Note_on_c, 7, 86, 127
9, 130800, Note_on_c, 7, 86, 127
9, 130800, Note_on_c, 7, 66, 127
9, 130800, Note_on_c, 7, 54, 127
9, 130860, Note_on_c, 7, 86, 0
9, 130860, Note_on_c, 7, 86, 0
9, 130860, Note_on_c, 7, 81, 127
9, 130860, Note_on_c, 7, 81, 127
9, 130886, Note_on_c, 7, 66, 0
9, 130886, Note_on_c, 7, 54, 0
9, 130920, Note_on_c, 7, 81, 0
9, 130920, Note_on_c, 7, 81, 0
9, 130920, Note_on_c, 7, 85, 127
9, 130920, Note_on_c, 7, 85, 127
9, 130920, Note_on_c, 7, 69, 127
9, 130920, Note_on_c, 7, 57, 127
9, 130980, Note_on_c, 7, 85, 0
9, 130980, Note_on_c, 7, 85, 0
9, 130980, Note_on_c, 7, 81, 127
9, 130980, Note_on_c, 7, 81, 127
9, 131023, Note_on_c, 7, 69, 0
9, 131023, Note_on_c, 7, 57, 0
9, 131040, Note_on_c, 7, 81, 0
9, 131040, Note_on_c, 7, 81, 0
9, 131040, Note_on_c, 7, 86, 127
9, 131040, Note_on_c, 7, 86, 127
9, 131040, Note_on_c, 7, 74, 127
9, 131040, Note_on_c, 7, 50, 127
9, 131100, Note_on_c, 7, 74, 0
9, 131100, Note_on_c, 7, 86, 0
9, 131100, Note_on_c, 7, 86, 0
9, 131100, Note_on_c, 7, 85, 127
9, 131100, Note_on_c, 7, 85, 127
9, 131100, Note_on_c, 7, 73, 127
9, 131160, Note_on_c, 7, 73, 0
9, 131160, Note_on_c, 7, 85, 0
9, 131160, Note_on_c, 7, 85, 0
9, 131160, Note_on_c, 7, 83, 127
9, 131160, Note_on_c, 7, 83, 127
9, 131160, Note_on_c, 7, 71, 127
9, 131220, Note_on_c, 7, 71, 0
9, 131220, Note_on_c, 7, 83, 0
9, 131220, Note_on_c, 7, 83, 0
9, 131220, Note_on_c, 7, 81, 127
9, 131220, Note_on_c, 7, 81, 127
9, 131220, Note_on_c, 7, 69, 127
9, 131280, Note_on_c, 7, 69, 0
9, 131280, Note_on_c, 7, 81, 0
9, 131280, Note_on_c, 7, 81, 0
9, 131280, Note_on_c, 7, 79, 123
9, 131280, Note_on_c, 7, 79, 123
9, 131280, Note_on_c, 7, 67, 123
9, 131328, Note_on_c, 7, 50, 0
9, 131340, Note_on_c, 7, 79, 0
9, 131340, Note_on_c, 7, 79, 0
9, 131340, Note_on_c, 7, 67, 0
9, 131340, Note_on_c, 7, 78, 119
9, 131340, Note_on_c, 7, 78, 119
9, 131340, Note_on_c, 7, 66, 119
9, 131400, Note_on_c, 7, 66, 0
9, 131400, Note_on_c, 7, 78, 0
9, 131400, Note_on_c, 7, 78, 0
9, 131400, Note_on_c, 7, 76, 114
9, 131400, Note_on_c, 7, 76, 114
9, 131400, Note_on_c, 7, 64, 114
9, 131460, Note_on_c, 7, 64, 0
9, 131460, Note_on_c, 7, 76, 0
9, 131460, Note_on_c, 7, 76, 0
9, 131460, Note_on_c, 7, 74, 111
9, 131460, Note_on_c, 7, 74, 111
9, 131460, Note_on_c, 7, 62, 111
9, 131460, Note_on_c, 7, 62, 111
9, 131520, Note_on_c, 7, 62, 0
9, 131520, Note_on_c, 7, 74, 0
9, 131520, Note_on_c, 7, 74, 0
9, 131520, Note_on_c, 7, 62, 0
9, 131520, Note_on_c, 7, 73, 105
9, 131520, Note_on_c, 7, 73, 105
9, 131520, Note_on_c, 7, 73, 105
9, 131520, Note_on_c, 7, 61, 105
9, 131580, Note_on_c, 7, 73, 0
9, 131580, Note_on_c, 7, 73, 0
9, 131580, Note_on_c, 7, 73, 0
9, 131580, Note_on_c, 7, 71, 101
9, 131580, Note_on_c, 7, 71, 101
9, 131580, Note_on_c, 7, 71, 101
9, 131580, Note_on_c, 7, 59, 101
9, 131587, Note_on_c, 7, 61, 0
9, 131640, Note_on_c, 7, 71, 0
9, 131640, Note_on_c, 7, 71, 0
9, 131640, Note_on_c, 7, 71, 0
9, 131640, Note_on_c, 7, 59, 0
9, 131640, Note_on_c, 7, 69, 96
9, 131640, Note_on_c, 7, 69, 96
9, 131640, Note_on_c, 7, 69, 96
9, 131640, Note_on_c, 7, 57, 96
9, 131700, Note_on_c, 7, 57, 0
9, 131700, Note_on_c, 7, 69, 0
9, 131700, Note_on_c, 7, 69, 0
9, 131700, Note_on_c, 7, 69, 0
9, 131700, Note_on_c, 7, 67, 92
9, 131700, Note_on_c, 7, 67, 92
9, 131700, Note_on_c, 7, 67, 92
9, 131700, Note_on_c, 7, 55, 92
9, 131760, Note_on_c, 7, 55, 0
9, 131760, Note_on_c, 7, 67, 0
9, 131760, Note_on_c, 7, 67, 0
9, 131760, Note_on_c, 7, 67, 0
9, 131760, Note_on_c, 7, 66, 88
9, 131760, Note_on_c, 7, 66, 88
9, 131760, Note_on_c, 7, 66, 88
9, 131760, Note_on_c, 7, 54, 88
9, 131820, Note_on_c, 7, 54, 0
9, 131820, Note_on_c, 7, 66, 0
9, 131820, Note_on_c, 7, 66, 0
9, 131820, Note_on_c, 7, 66, 0
9, 131820, Note_on_c, 7, 64, 85
9, 131820, Note_on_c, 7, 64, 85
9, 131820, Note_on_c, 7, 64, 85
9, 131820, Note_on_c, 7, 52, 85
9, 131880, Note_on_c, 7, 52, 0
9, 131880, Note_on_c, 7, 64, 0
9, 131880, Note_on_c, 7, 64, 0
9, 131880, Note_on_c, 7, 64, 0
9, 131880, Note_on_c, 7, 62, 83
9, 131880, Note_on_c, 7, 62, 83
9, 131880, Note_on_c, 7, 62, 83
9, 131880, Note_on_c, 7, 50, 83
9, 131940, Note_on_c, 7, 50, 0
9, 131940, Note_on_c, 7, 62, 0
9, 131940, Note_on_c, 7, 62, 0
9, 131940, Note_on_c, 7, 62, 0
9, 131940, Note_on_c, 7, 61, 80
9, 131940, Note_on_c, 7, 61, 80
9, 131940, Note_on_c, 7, 61, 80
9, 131940, Note_on_c, 7, 49, 80
9, 132000, Note_on_c, 7, 49, 0
9, 132000, Note_on_c, 7, 61, 0
9, 132000, Note_on_c, 7, 61, 0
9, 132000, Note_on_c, 7, 61, 0
9, 132000, Note_on_c, 7, 59, 101
9, 132000, Note_on_c, 7, 59, 101
9, 132000, Note_on_c, 7, 59, 101
9, 132000, Note_on_c, 7, 47, 101
9, 132000, Control_c, 7, 7, 96
9, 132020, Control_c, 7, 7, 98
9, 132040, Control_c, 7, 7, 100
9, 132060, Control_c, 7, 7, 101
9, 132080, Control_c, 7, 7, 102
9, 132100, Control_c, 7, 7, 104
9, 132120, Control_c, 7, 7, 105
9, 132140, Control_c, 7, 7, 106
9, 132210, Control_c, 7, 7, 107
9, 132270, Control_c, 7, 7, 108
9, 132290, Control_c, 7, 7, 109
9, 132310, Control_c, 7, 7, 110
9, 132330, Control_c, 7, 7, 111
9, 132350, Control_c, 7, 7, 112
9, 132370, Control_c, 7, 7, 113
9, 132390, Control_c, 7, 7, 114
9, 132410, Control_c, 7, 7, 115
9, 132470, Control_c, 7, 7, 116
9, 132480, Note_on_c, 7, 47, 0
9, 132480, Note_on_c, 7, 59, 0
9, 132480, Note_on_c, 7, 59, 0
9, 132480, Note_on_c, 7, 59, 0
9, 132480, Note_on_c, 7, 61, 106
9, 132480, Note_on_c, 7, 61, 106
9, 132480, Note_on_c, 7, 49, 106
9, 132480, Control_c, 7, 7, 117
9, 132490, Control_c, 7, 7, 99
9, 132500, Control_c, 7, 7, 100
9, 132510, Note_on_c, 7, 62, 106
9, 132510, Note_on_c, 7, 62, 106
9, 132510, Note_on_c, 7, 50, 106
9, 132510, Control_c, 7, 7, 101
9, 132513, Note_on_c, 7, 49, 0
9, 132513, Note_on_c, 7, 61, 0
9, 132513, Note_on_c, 7, 61, 0
9, 132520, Control_c, 7, 7, 102
9, 132540, Note_on_c, 7, 62, 0
9, 132540, Note_on_c, 7, 62, 0
9, 132540, Note_on_c, 7, 50, 0
9, 132540, Note_on_c, 7, 61, 108
9, 132540, Note_on_c, 7, 61, 108
9, 132540, Note_on_c, 7, 49, 108
9, 132540, Control_c, 7, 7, 104
9, 132550, Control_c, 7, 7, 105
9, 132560, Control_c, 7, 7, 106
9, 132570, Note_on_c, 7, 49, 0
9, 132570, Note_on_c, 7, 61, 0
9, 132570, Note_on_c, 7, 61, 0
9, 132570, Note_on_c, 7, 62, 110
9, 132570, Note_on_c, 7, 62, 110
9, 132570, Note_on_c, 7, 50, 110
9, 132570, Control_c, 7, 7, 107
9, 132590, Control_c, 7, 7, 108
9, 132600, Note_on_c, 7, 50, 0
9, 132600, Note_on_c, 7, 62, 0
9, 132600, Note_on_c, 7, 62, 0
9, 132600, Note_on_c, 7, 61, 111
9, 132600, Note_on_c, 7, 61, 111
9, 132600, Note_on_c, 7, 49, 111
9, 132610, Control_c, 7, 7, 110
9, 132630, Note_on_c, 7, 49, 0
9, 132630, Note_on_c, 7, 61, 0
9, 132630, Note_on_c, 7, 61, 0
9, 132630, Note_on_c, 7, 62, 111
9, 132630, Note_on_c, 7, 62, 111
9, 132630, Note_on_c, 7, 50, 111
9, 132640, Control_c, 7, 7, 111
9, 132660, Note_on_c, 7, 50, 0
9, 132660, Note_on_c, 7, 62, 0
9, 132660, Note_on_c, 7, 62, 0
9, 132660, Note_on_c, 7, 61, 113
9, 132660, Note_on_c, 7, 61, 113
9, 132660, Note_on_c, 7, 49, 113
9, 132660, Control_c, 7, 7, 113
9, 132680, Control_c, 7, 7, 115
9, 132690, Note_on_c, 7, 49, 0
9, 132690, Note_on_c, 7, 61, 0
9, 132690, Note_on_c, 7, 61, 0
9, 132690, Note_on_c, 7, 62, 114
9, 132690, Note_on_c, 7, 62, 114
9, 132690, Note_on_c, 7, 50, 114
9, 132720, Note_on_c, 7, 50, 0
9, 132720, Note_on_c, 7, 62, 0
9, 132720, Note_on_c, 7, 62, 0
9, 132720, Note_on_c, 7, 61, 115
9, 132720, Note_on_c, 7, 61, 115
9, 132720, Note_on_c, 7, 49, 115
9, 132740, Control_c, 7, 7, 117
9, 132750, Note_on_c, 7, 49, 0
9, 132750, Note_on_c, 7, 61, 0
9, 132750, Note_on_c, 7, 61, 0
9, 132750, Note_on_c, 7, 62, 117
9, 132750, Note_on_c, 7, 62, 117
9, 132750, Note_on_c, 7, 50, 117
9, 132750, Control_c, 7, 7, 119
9, 132780, Note_on_c, 7, 50, 0
9, 132780, Note_on_c, 7, 62, 0
9, 132780, Note_on_c, 7, 62, 0
9, 132780, Note_on_c, 7, 61, 117
9, 132780, Note_on_c, 7, 61, 117
9, 132780, Note_on_c, 7, 49, 117
9, 132810, Note_on_c, 7, 49, 0
9, 132810, Note_on_c, 7, 61, 0
9, 132810, Note_on_c, 7, 61, 0
9, 132810, Note_on_c, 7, 62, 118
9, 132810, Note_on_c, 7, 62, 118
9, 132810, Note_on_c, 7, 50, 118
9, 132810, Control_c, 7, 7, 120
9, 132820, Control_c, 7, 7, 122
9, 132840, Note_on_c, 7, 50, 0
9, 132840, Note_on_c, 7, 62, 0
9, 132840, Note_on_c, 7, 62, 0
9, 132840, Note_on_c, 7, 61, 118
9, 132840, Note_on_c, 7, 61, 118
9, 132840, Note_on_c, 7, 49, 118
9, 132870, Note_on_c, 7, 49, 0
9, 132870, Note_on_c, 7, 61, 0
9, 132870, Note_on_c, 7, 61, 0
9, 132870, Note_on_c, 7, 62, 119
9, 132870, Note_on_c, 7, 62, 119
9, 132870, Note_on_c, 7, 50, 119
9, 132880, Control_c, 7, 7, 124
9, 132900, Note_on_c, 7, 50, 0
9, 132900, Note_on_c, 7, 62, 0
9, 132900, Note_on_c, 7, 62, 0
9, 132900, Note_on_c, 7, 61, 119
9, 132900, Note_on_c, 7, 61, 119
9, 132900, Note_on_c, 7, 49, 119
9, 132900, Control_c, 7, 7, 125
9, 132910, Control_c, 7, 7, 126
9, 132930, Note_on_c, 7, 49, 0
9, 132930, Note_on_c, 7, 61, 0
9, 132930, Note_on_c, 7, 61, 0
9, 132930, Note_on_c, 7, 59, 119
9, 132930, Note_on_c, 7, 59, 119
9, 132930, Note_on_c, 7, 47, 119
9, 132945, Note_on_c, 7, 47, 0
9, 132945, Note_on_c, 7, 59, 0
9, 132945, Note_on_c, 7, 59, 0
9, 132945, Note_on_c, 7, 61, 120
9, 132945, Note_on_c, 7, 61, 120
9, 132945, Note_on_c, 7, 49, 120
9, 132950, Control_c, 7, 7, 126
9, 132960, Note_on_c, 7, 49, 0
9, 132960, Note_on_c, 7, 61, 0
9, 132960, Note_on_c, 7, 61, 0
9, 132960, Note_on_c, 7, 62, 121
9, 132960, Note_on_c, 7, 62, 121
9, 132960, Note_on_c, 7, 50, 121
9, 133080, Note_on_c, 7, 50, 0
9, 133080, Note_on_c, 7, 62, 0
9, 133080, Note_on_c, 7, 62, 0
9, 133190, Note_on_c, 7, 62, 127
9, 133200, Note_on_c, 7, 69, 127
9, 133200, Note_on_c, 7, 74, 127
9, 133200, Note_on_c, 7, 74, 127
9, 133200, Note_on_c, 7, 62, 127
9, 133210, Note_on_c, 7, 86, 127
9, 133210, Note_on_c, 7, 78, 127
9, 133310, Note_on_c, 7, 62, 0
9, 133320, Note_on_c, 7, 62, 0
9, 133320, Note_on_c, 7, 69, 0
9, 133320, Note_on_c, 7, 74, 0
9, 133320, Note_on_c, 7, 74, 0
9, 133330, Note_on_c, 7, 78, 0
9, 133330, Note_on_c, 7, 86, 0
9, 133430, Note_on_c, 7, 62, 127
9, 133440, Note_on_c, 7, 74, 127
9, 133440, Note_on_c, 7, 71, 127
9, 133440, Note_on_c, 7, 67, 127
9, 133440, Note_on_c, 7, 55, 127
9, 133450, Note_on_c, 7, 83, 127
9, 133450, Note_on_c, 7, 79, 127
9, 133550, Note_on_c, 7, 62, 0
9, 133560, Note_on_c, 7, 55, 0
9, 133560, Note_on_c, 7, 74, 0
9, 133560, Note_on_c, 7, 67, 0
9, 133560, Note_on_c, 7, 71, 0
9, 133570, Note_on_c, 7, 79, 0
9, 133570, Note_on_c, 7, 83, 0
9, 133670, Note_on_c, 7, 64, 127
9, 133670, Note_on_c, 7, 69, 127
9, 133680, Note_on_c, 7, 73, 127
9, 133680, Note_on_c, 7, 69, 127
9, 133680, Note_on_c, 7, 57, 127
9, 133690, Note_on_c, 7, 81, 127
9, 133690, Note_on_c, 7, 76, 127
9, 133790, Note_on_c, 7, 69, 0
9, 133790, Note_on_c, 7, 64, 0
9, 133800, Note_on_c, 7, 69, 0
9, 133800, Note_on_c, 7, 57, 0
9, 133800, Note_on_c, 7, 73, 0
9, 133810, Note_on_c, 7, 76, 0
9, 133810, Note_on_c, 7, 81, 0
9, 133870, Control_c, 7, 7, 96
9, 133920, Note_on_c, 7, 59, 115
9, 133920, Note_on_c, 7, 59, 115
9, 133920, Note_on_c, 7, 59, 115
9, 133920, Note_on_c, 7, 47, 115
9, 133920, Control_c, 7, 7, 97
9, 133940, Control_c, 7, 7, 98
9, 133950, Control_c, 7, 7, 99
9, 133970, Control_c, 7, 7, 100
9, 133990, Control_c, 7, 7, 101
9, 134000, Control_c, 7, 7, 103
9, 134020, Control_c, 7, 7, 104
9, 134030, Control_c, 7, 7, 105
9, 134050, Control_c, 7, 7, 107
9, 134070, Control_c, 7, 7, 108
9, 134080, Control_c, 7, 7, 109
9, 134100, Control_c, 7, 7, 110
9, 134110, Control_c, 7, 7, 111
9, 134140, Control_c, 7, 7, 112
9, 134160, Control_c, 7, 7, 114
9, 134170, Control_c, 7, 7, 115
9, 134190, Control_c, 7, 7, 116
9, 134250, Control_c, 7, 7, 117
9, 134260, Control_c, 7, 7, 119
9, 134320, Control_c, 7, 7, 120
9, 134350, Control_c, 7, 7, 121
9, 134370, Control_c, 7, 7, 122
9, 134400, Note_on_c, 7, 47, 0
9, 134400, Note_on_c, 7, 59, 0
9, 134400, Note_on_c, 7, 59, 0
9, 134400, Note_on_c, 7, 59, 0
9, 134400, Note_on_c, 7, 61, 108
9, 134400, Note_on_c, 7, 61, 108
9, 134400, Note_on_c, 7, 49, 108
9, 134400, Control_c, 7, 7, 103
9, 134410, Control_c, 7, 7, 104
9, 134430, Note_on_c, 7, 49, 0
9, 134430, Note_on_c, 7, 61, 0
9, 134430, Note_on_c, 7, 61, 0
9, 134430, Note_on_c, 7, 62, 109
9, 134430, Note_on_c, 7, 62, 109
9, 134430, Note_on_c, 7, 50, 109
9, 134430, Control_c, 7, 7, 106
9, 134460, Note_on_c, 7, 50, 0
9, 134460, Note_on_c, 7, 62, 0
9, 134460, Note_on_c, 7, 62, 0
9, 134460, Note_on_c, 7, 61, 109
9, 134460, Note_on_c, 7, 61, 109
9, 134460, Note_on_c, 7, 49, 109
9, 134470, Control_c, 7, 7, 108
9, 134480, Control_c, 7, 7, 109
9, 134490, Note_on_c, 7, 49, 0
9, 134490, Note_on_c, 7, 61, 0
9, 134490, Note_on_c, 7, 61, 0
9, 134490, Note_on_c, 7, 62, 111
9, 134490, Note_on_c, 7, 62, 111
9, 134490, Note_on_c, 7, 50, 111
9, 134520, Note_on_c, 7, 50, 0
9, 134520, Note_on_c, 7, 62, 0
9, 134520, Note_on_c, 7, 62, 0
9, 134520, Note_on_c, 7, 61, 111
9, 134520, Note_on_c, 7, 61, 111
9, 134520, Note_on_c, 7, 49, 111
9, 134540, Control_c, 7, 7, 110
9, 134550, Note_on_c, 7, 49, 0
9, 134550, Note_on_c, 7, 61, 0
9, 134550, Note_on_c, 7, 61, 0
9, 134550, Note_on_c, 7, 62, 113
9, 134550, Note_on_c, 7, 62, 113
9, 134550, Note_on_c, 7, 50, 113
9, 134560, Control_c, 7, 7, 112
9, 134580, Note_on_c, 7, 50, 0
9, 134580, Note_on_c, 7, 62, 0
9, 134580, Note_on_c, 7, 62, 0
9, 134580, Note_on_c, 7, 61, 113
9, 134580, Note_on_c, 7, 61, 113
9, 134580, Note_on_c, 7, 49, 113
9, 134610, Note_on_c, 7, 49, 0
9, 134610, Note_on_c, 7, 61, 0
9, 134610, Note_on_c, 7, 61, 0
9, 134610, Note_on_c, 7, 62, 113
9, 134610, Note_on_c, 7, 62, 113
9, 134610, Note_on_c, 7, 50, 113
9, 134640, Note_on_c, 7, 50, 0
9, 134640, Note_on_c, 7, 62, 0
9, 134640, Note_on_c, 7, 62, 0
9, 134640, Note_on_c, 7, 61, 116
9, 134640, Note_on_c, 7, 61, 116
9, 134640, Note_on_c, 7, 49, 116
9, 134650, Control_c, 7, 7, 113
9, 134660, Control_c, 7, 7, 114
9, 134670, Note_on_c, 7, 49, 0
9, 134670, Note_on_c, 7, 61, 0
9, 134670, Note_on_c, 7, 61, 0
9, 134670, Note_on_c, 7, 62, 118
9, 134670, Note_on_c, 7, 62, 118
9, 134670, Note_on_c, 7, 50, 118
9, 134690, Control_c, 7, 7, 115
9, 134700, Note_on_c, 7, 50, 0
9, 134700, Note_on_c, 7, 62, 0
9, 134700, Note_on_c, 7, 62, 0
9, 134700, Note_on_c, 7, 61, 120
9, 134700, Note_on_c, 7, 61, 120
9, 134700, Note_on_c, 7, 49, 120
9, 134700, Control_c, 7, 7, 116
9, 134730, Note_on_c, 7, 49, 0
9, 134730, Note_on_c, 7, 61, 0
9, 134730, Note_on_c, 7, 61, 0
9, 134730, Note_on_c, 7, 62, 122
9, 134730, Note_on_c, 7, 62, 122
9, 134730, Note_on_c, 7, 50, 122
9, 134740, Control_c, 7, 7, 117
9, 134760, Note_on_c, 7, 50, 0
9, 134760, Note_on_c, 7, 62, 0
9, 134760, Note_on_c, 7, 62, 0
9, 134760, Note_on_c, 7, 61, 124
9, 134760, Note_on_c, 7, 61, 124
9, 134760, Note_on_c, 7, 49, 124
9, 134760, Control_c, 7, 7, 118
9, 134770, Control_c, 7, 7, 120
9, 134790, Note_on_c, 7, 49, 0
9, 134790, Note_on_c, 7, 61, 0
9, 134790, Note_on_c, 7, 61, 0
9, 134790, Note_on_c, 7, 62, 124
9, 134790, Note_on_c, 7, 62, 124
9, 134790, Note_on_c, 7, 50, 124
9, 134810, Control_c, 7, 7, 121
9, 134820, Note_on_c, 7, 50, 0
9, 134820, Note_on_c, 7, 62, 0
9, 134820, Note_on_c, 7, 62, 0
9, 134820, Note_on_c, 7, 61, 125
9, 134820, Note_on_c, 7, 61, 125
9, 134820, Note_on_c, 7, 49, 125
9, 134820, Control_c, 7, 7, 122
9, 134830, Control_c, 7, 7, 123
9, 134850, Note_on_c, 7, 49, 0
9, 134850, Note_on_c, 7, 61, 0
9, 134850, Note_on_c, 7, 61, 0
9, 134850, Note_on_c, 7, 59, 126
9, 134850, Note_on_c, 7, 59, 126
9, 134850, Note_on_c, 7, 47, 126
9, 134850, Control_c, 7, 7, 124
9, 134865, Note_on_c, 7, 47, 0
9, 134865, Note_on_c, 7, 59, 0
9, 134865, Note_on_c, 7, 59, 0
9, 134865, Note_on_c, 7, 61, 126
9, 134865, Note_on_c, 7, 61, 126
9, 134865, Note_on_c, 7, 49, 126
9, 134870, Control_c, 7, 7, 125
9, 134880, Note_on_c, 7, 49, 0
9, 134880, Note_on_c, 7, 61, 0
9, 134880, Note_on_c, 7, 61, 0
9, 134880, Note_on_c, 7, 62, 126
9, 134880, Note_on_c, 7, 62, 126
9, 134880, Note_on_c, 7, 50, 126
9, 134890, Control_c, 7, 7, 126
9, 134920, Control_c, 7, 7, 123
9, 135000, Note_on_c, 7, 50, 0
9, 135000, Note_on_c, 7, 62, 0
9, 135000, Note_on_c, 7, 62, 0
9, 135110, Note_on_c, 7, 62, 127
9, 135120, Note_on_c, 7, 69, 127
9, 135120, Note_on_c, 7, 74, 127
9, 135120, Note_on_c, 7, 74, 127
9, 135120, Note_on_c, 7, 62, 127
9, 135130, Note_on_c, 7, 86, 127
9, 135130, Note_on_c, 7, 78, 127
9, 135230, Note_on_c, 7, 62, 0
9, 135240, Note_on_c, 7, 62, 0
9, 135240, Note_on_c, 7, 69, 0
9, 135240, Note_on_c, 7, 74, 0
9, 135240, Note_on_c, 7, 74, 0
9, 135250, Note_on_c, 7, 78, 0
9, 135250, Note_on_c, 7, 86, 0
9, 135350, Note_on_c, 7, 62, 127
9, 135360, Note_on_c, 7, 74, 127
9, 135360, Note_on_c, 7, 71, 127
9, 135360, Note_on_c, 7, 67, 127
9, 135360, Note_on_c, 7, 55, 127
9, 135370, Note_on_c, 7, 83, 127
9, 135370, Note_on_c, 7, 79, 127
9, 135470, Note_on_c, 7, 62, 0
9, 135480, Note_on_c, 7, 55, 0
9, 135480, Note_on_c, 7, 74, 0
9, 135480, Note_on_c, 7, 67, 0
9, 135480, Note_on_c, 7, 71, 0
9, 135490, Note_on_c, 7, 79, 0
9, 135490, Note_on_c, 7, 83, 0
9, 135590, Note_on_c, 7, 64, 127
9, 135590, Note_on_c, 7, 69, 127
9, 135600, Note_on_c, 7, 73, 127
9, 135600, Note_on_c, 7, 69, 127
9, 135600, Note_on_c, 7, 57, 127
9, 135610, Note_on_c, 7, 81, 127
9, 135610, Note_on_c, 7, 76, 127
9, 135710, Note_on_c, 7, 69, 0
9, 135710, Note_on_c, 7, 64, 0
9, 135720, Note_on_c, 7, 69, 0
9, 135720, Note_on_c, 7, 57, 0
9, 135720, Note_on_c, 7, 73, 0
9, 135730, Note_on_c, 7, 76, 0
9, 135730, Note_on_c, 7, 81, 0
9, 135840, Note_on_c, 7, 78, 127
9, 135840, Note_on_c, 7, 69, 127
9, 135840, Note_on_c, 7, 62, 127
9, 135840, Note_on_c, 7, 74, 127
9, 135840, Note_on_c, 7, 66, 127
9, 135840, Note_on_c, 7, 69, 127
9, 135840, Note_on_c, 7, 62, 127
9, 135840, Note_on_c, 7, 50, 127
9, 135840, Note_on_c, 7, 50, 127
9, 135883, Note_on_c, 7, 50, 0
9, 135883, Note_on_c, 7, 74, 0
9, 135883, Note_on_c, 7, 50, 0
9, 135883, Note_on_c, 7, 66, 0
9, 135883, Note_on_c, 7, 62, 0
9, 135883, Note_on_c, 7, 69, 0
9, 135900, Note_on_c, 7, 74, 127
9, 135900, Note_on_c, 7, 66, 127
9, 135900, Note_on_c, 7, 69, 127
9, 135900, Note_on_c, 7, 62, 127
9, 135900, Note_on_c, 7, 50, 127
9, 135943, Note_on_c, 7, 50, 0
9, 135943, Note_on_c, 7, 62, 0
9, 135943, Note_on_c, 7, 66, 0
9, 135943, Note_on_c, 7, 74, 0
9, 135943, Note_on_c, 7, 69, 0
9, 135948, Note_on_c, 7, 62, 0
9, 135948, Note_on_c, 7, 69, 0
9, 135960, Note_on_c, 7, 74, 127
9, 135960, Note_on_c, 7, 66, 127
9, 135960, Note_on_c, 7, 69, 127
9, 135960, Note_on_c, 7, 62, 127
9, 135960, Note_on_c, 7, 50, 127
9, 135960, Note_on_c, 7, 50, 127
9, 136003, Note_on_c, 7, 50, 0
9, 136003, Note_on_c, 7, 62, 0
9, 136003, Note_on_c, 7, 74, 0
9, 136003, Note_on_c, 7, 66, 0
9, 136003, Note_on_c, 7, 69, 0
9, 136003, Note_on_c, 7, 50, 0
9, 136020, Note_on_c, 7, 74, 127
9, 136020, Note_on_c, 7, 66, 127
9, 136020, Note_on_c, 7, 69, 127
9, 136020, Note_on_c, 7, 62, 127
9, 136020, Note_on_c, 7, 50, 127
9, 136056, Note_on_c, 7, 78, 0
9, 136063, Note_on_c, 7, 66, 0
9, 136063, Note_on_c, 7, 69, 0
9, 136063, Note_on_c, 7, 74, 0
9, 136063, Note_on_c, 7, 50, 0
9, 136063, Note_on_c, 7, 62, 0
9, 136080, Note_on_c, 7, 74, 127
9, 136080, Note_on_c, 7, 66, 127
9, 136080, Note_on_c, 7, 69, 127
9, 136080, Note_on_c, 7, 62, 127
9, 136080, Note_on_c, 7, 50, 127
9, 136080, Note_on_c, 7, 50, 127
9, 136123, Note_on_c, 7, 50, 0
9, 136123, Note_on_c, 7, 66, 0
9, 136123, Note_on_c, 7, 69, 0
9, 136123, Note_on_c, 7, 74, 0
9, 136123, Note_on_c, 7, 50, 0
9, 136123, Note_on_c, 7, 62, 0
9, 136140, Note_on_c, 7, 74, 127
9, 136140, Note_on_c, 7, 66, 127
9, 136140, Note_on_c, 7, 69, 127
9, 136140, Note_on_c, 7, 62, 127
9, 136140, Note_on_c, 7, 50, 127
9, 136183, Note_on_c, 7, 50, 0
9, 136183, Note_on_c, 7, 69, 0
9, 136183, Note_on_c, 7, 74, 0
9, 136183, Note_on_c, 7, 66, 0
9, 136183, Note_on_c, 7, 62, 0
9, 136200, Note_on_c, 7, 81, 127
9, 136200, Note_on_c, 7, 74, 127
9, 136200, Note_on_c, 7, 66, 127
9, 136200, Note_on_c, 7, 69, 127
9, 136200, Note_on_c, 7, 62, 127
9, 136200, Note_on_c, 7, 50, 127
9, 136200, Note_on_c, 7, 50, 127
9, 136243, Note_on_c, 7, 50, 0
9, 136243, Note_on_c, 7, 62, 0
9, 136243, Note_on_c, 7, 74, 0
9, 136243, Note_on_c, 7, 66, 0
9, 136243, Note_on_c, 7, 81, 0
9, 136243, Note_on_c, 7, 50, 0
9, 136243, Note_on_c, 7, 69, 0
9, 136260, Note_on_c, 7, 81, 127
9, 136260, Note_on_c, 7, 74, 127
9, 136260, Note_on_c, 7, 66, 127
9, 136260, Note_on_c, 7, 69, 127
9, 136260, Note_on_c, 7, 62, 127
9, 136260, Note_on_c, 7, 50, 127
9, 136303, Note_on_c, 7, 50, 0
9, 136303, Note_on_c, 7, 74, 0
9, 136303, Note_on_c, 7, 66, 0
9, 136303, Note_on_c, 7, 81, 0
9, 136303, Note_on_c, 7, 62, 0
9, 136303, Note_on_c, 7, 69, 0
9, 136320, Note_on_c, 7, 81, 127
9, 136320, Note_on_c, 7, 74, 127
9, 136320, Note_on_c, 7, 66, 127
9, 136320, Note_on_c, 7, 69, 127
9, 136320, Note_on_c, 7, 62, 127
9, 136320, Note_on_c, 7, 50, 127
9, 136320, Note_on_c, 7, 50, 127
9, 136363, Note_on_c, 7, 50, 0
9, 136363, Note_on_c, 7, 62, 0
9, 136363, Note_on_c, 7, 74, 0
9, 136363, Note_on_c, 7, 66, 0
9, 136363, Note_on_c, 7, 69, 0
9, 136363, Note_on_c, 7, 50, 0
9, 136380, Note_on_c, 7, 74, 127
9, 136380, Note_on_c, 7, 66, 127
9, 136380, Note_on_c, 7, 69, 127
9, 136380, Note_on_c, 7, 62, 127
9, 136380, Note_on_c, 7, 50, 127
9, 136423, Note_on_c, 7, 50, 0
9, 136423, Note_on_c, 7, 74, 0
9, 136423, Note_on_c, 7, 66, 0
9, 136423, Note_on_c, 7, 69, 0
9, 136423, Note_on_c, 7, 62, 0
9, 136440, Note_on_c, 7, 74, 127
9, 136440, Note_on_c, 7, 66, 127
9, 136440, Note_on_c, 7, 69, 127
9, 136440, Note_on_c, 7, 62, 127
9, 136440, Note_on_c, 7, 50, 127
9, 136440, Note_on_c, 7, 50, 127
9, 136483, Note_on_c, 7, 50, 0
9, 136483, Note_on_c, 7, 62, 0
9, 136483, Note_on_c, 7, 74, 0
9, 136483, Note_on_c, 7, 66, 0
9, 136483, Note_on_c, 7, 69, 0
9, 136483, Note_on_c, 7, 50, 0
9, 136500, Note_on_c, 7, 74, 127
9, 136500, Note_on_c, 7, 66, 127
9, 136500, Note_on_c, 7, 69, 127
9, 136500, Note_on_c, 7, 62, 127
9, 136500, Note_on_c, 7, 50, 127
9, 136543, Note_on_c, 7, 50, 0
9, 136543, Note_on_c, 7, 74, 0
9, 136543, Note_on_c, 7, 66, 0
9, 136543, Note_on_c, 7, 69, 0
9, 136543, Note_on_c, 7, 62, 0
9, 136560, Note_on_c, 7, 81, 0
9, 136560, Note_on_c, 7, 74, 127
9, 136560, Note_on_c, 7, 66, 127
9, 136560, Note_on_c, 7, 69, 127
9, 136560, Note_on_c, 7, 62, 127
9, 136560, Note_on_c, 7, 50, 127
9, 136560, Note_on_c, 7, 50, 127
9, 136603, Note_on_c, 7, 50, 0
9, 136603, Note_on_c, 7, 66, 0
9, 136603, Note_on_c, 7, 69, 0
9, 136603, Note_on_c, 7, 74, 0
9, 136603, Note_on_c, 7, 50, 0
9, 136603, Note_on_c, 7, 62, 0
9, 136620, Note_on_c, 7, 74, 127
9, 136620, Note_on_c, 7, 66, 127
9, 136620, Note_on_c, 7, 69, 127
9, 136620, Note_on_c, 7, 62, 127
9, 136620, Note_on_c, 7, 50, 127
9, 136663, Note_on_c, 7, 50, 0
9, 136663, Note_on_c, 7, 69, 0
9, 136663, Note_on_c, 7, 74, 0
9, 136663, Note_on_c, 7, 66, 0
9, 136663, Note_on_c, 7, 62, 0
9, 136680, Note_on_c, 7, 86, 127
9, 136680, Note_on_c, 7, 74, 127
9, 136680, Note_on_c, 7, 66, 127
9, 136680, Note_on_c, 7, 69, 127
9, 136680, Note_on_c, 7, 62, 127
9, 136680, Note_on_c, 7, 50, 127
9, 136680, Note_on_c, 7, 50, 127
9, 136723, Note_on_c, 7, 50, 0
9, 136723, Note_on_c, 7, 62, 0
9, 136723, Note_on_c, 7, 74, 0
9, 136723, Note_on_c, 7, 66, 0
9, 136723, Note_on_c, 7, 86, 0
9, 136723, Note_on_c, 7, 50, 0
9, 136723, Note_on_c, 7, 69, 0
9, 136740, Note_on_c, 7, 86, 127
9, 136740, Note_on_c, 7, 74, 127
9, 136740, Note_on_c, 7, 66, 127
9, 136740, Note_on_c, 7, 69, 127
9, 136740, Note_on_c, 7, 62, 127
9, 136740, Note_on_c, 7, 50, 127
9, 136783, Note_on_c, 7, 50, 0
9, 136783, Note_on_c, 7, 74, 0
9, 136783, Note_on_c, 7, 66, 0
9, 136783, Note_on_c, 7, 86, 0
9, 136783, Note_on_c, 7, 62, 0
9, 136783, Note_on_c, 7, 69, 0
9, 136800, Note_on_c, 7, 69, 127
9, 136800, Note_on_c, 7, 62, 127
9, 136800, Note_on_c, 7, 86, 127
9, 136800, Note_on_c, 7, 57, 127
9, 136800, Note_on_c, 7, 66, 127
9, 136800, Note_on_c, 7, 50, 127
9, 136800, Note_on_c, 7, 50, 127
9, 136843, Note_on_c, 7, 50, 0
9, 136843, Note_on_c, 7, 66, 0
9, 136843, Note_on_c, 7, 57, 0
9, 136843, Note_on_c, 7, 62, 0
9, 136843, Note_on_c, 7, 69, 0
9, 136843, Note_on_c, 7, 50, 0
9, 136860, Note_on_c, 7, 62, 127
9, 136860, Note_on_c, 7, 69, 127
9, 136860, Note_on_c, 7, 57, 127
9, 136860, Note_on_c, 7, 66, 127
9, 136860, Note_on_c, 7, 50, 127
9, 136903, Note_on_c, 7, 50, 0
9, 136903, Note_on_c, 7, 62, 0
9, 136903, Note_on_c, 7, 69, 0
9, 136903, Note_on_c, 7, 57, 0
9, 136903, Note_on_c, 7, 66, 0
9, 136920, Note_on_c, 7, 62, 127
9, 136920, Note_on_c, 7, 69, 127
9, 136920, Note_on_c, 7, 57, 127
9, 136920, Note_on_c, 7, 66, 127
9, 136920, Note_on_c, 7, 50, 127
9, 136920, Note_on_c, 7, 50, 127
9, 136963, Note_on_c, 7, 50, 0
9, 136963, Note_on_c, 7, 66, 0
9, 136963, Note_on_c, 7, 62, 0
9, 136963, Note_on_c, 7, 69, 0
9, 136963, Note_on_c, 7, 57, 0
9, 136963, Note_on_c, 7, 50, 0
9, 136980, Note_on_c, 7, 62, 127
9, 136980, Note_on_c, 7, 69, 127
9, 136980, Note_on_c, 7, 57, 127
9, 136980, Note_on_c, 7, 66, 127
9, 136980, Note_on_c, 7, 50, 127
9, 137023, Note_on_c, 7, 50, 0
9, 137023, Note_on_c, 7, 62, 0
9, 137023, Note_on_c, 7, 69, 0
9, 137023, Note_on_c, 7, 57, 0
9, 137023, Note_on_c, 7, 66, 0
9, 137040, Note_on_c, 7, 86, 0
9, 137040, Note_on_c, 7, 62, 127
9, 137040, Note_on_c, 7, 69, 127
9, 137040, Note_on_c, 7, 57, 127
9, 137040, Note_on_c, 7, 66, 127
9, 137040, Note_on_c, 7, 50, 127
9, 137040, Note_on_c, 7, 50, 127
9, 137083, Note_on_c, 7, 50, 0
9, 137083, Note_on_c, 7, 69, 0
9, 137083, Note_on_c, 7, 57, 0
9, 137083, Note_on_c, 7, 62, 0
9, 137083, Note_on_c, 7, 50, 0
9, 137083, Note_on_c, 7, 66, 0
9, 137100, Note_on_c, 7, 62, 127
9, 137100, Note_on_c, 7, 69, 127
9, 137100, Note_on_c, 7, 57, 127
9, 137100, Note_on_c, 7, 66, 127
9, 137100, Note_on_c, 7, 50, 127
9, 137143, Note_on_c, 7, 50, 0
9, 137143, Note_on_c, 7, 57, 0
9, 137143, Note_on_c, 7, 62, 0
9, 137143, Note_on_c, 7, 69, 0
9, 137143, Note_on_c, 7, 66, 0
9, 137160, Note_on_c, 7, 62, 127
9, 137160, Note_on_c, 7, 69, 127
9, 137160, Note_on_c, 7, 78, 127
9, 137160, Note_on_c, 7, 57, 127
9, 137160, Note_on_c, 7, 66, 127
9, 137160, Note_on_c, 7, 50, 127
9, 137160, Note_on_c, 7, 50, 127
9, 137203, Note_on_c, 7, 50, 0
9, 137203, Note_on_c, 7, 66, 0
9, 137203, Note_on_c, 7, 69, 0
9, 137203, Note_on_c, 7, 78, 0
9, 137203, Note_on_c, 7, 62, 0
9, 137203, Note_on_c, 7, 50, 0
9, 137203, Note_on_c, 7, 57, 0
9, 137220, Note_on_c, 7, 62, 127
9, 137220, Note_on_c, 7, 69, 127
9, 137220, Note_on_c, 7, 78, 127
9, 137220, Note_on_c, 7, 57, 127
9, 137220, Note_on_c, 7, 66, 127
9, 137220, Note_on_c, 7, 50, 127
9, 137263, Note_on_c, 7, 50, 0
9, 137263, Note_on_c, 7, 69, 0
9, 137263, Note_on_c, 7, 78, 0
9, 137263, Note_on_c, 7, 62, 0
9, 137263, Note_on_c, 7, 66, 0
9, 137263, Note_on_c, 7, 57, 0
9, 137280, Note_on_c, 7, 78, 127
9, 137280, Note_on_c, 7, 69, 127
9, 137280, Note_on_c, 7, 62, 127
9, 137280, Note_on_c, 7, 66, 127
9, 137280, Note_on_c, 7, 57, 127
9, 137280, Note_on_c, 7, 50, 127
9, 137280, Note_on_c, 7, 50, 127
9, 137323, Note_on_c, 7, 50, 0
9, 137323, Note_on_c, 7, 57, 0
9, 137323, Note_on_c, 7, 69, 0
9, 137323, Note_on_c, 7, 62, 0
9, 137323, Note_on_c, 7, 66, 0
9, 137323, Note_on_c, 7, 50, 0
9, 137340, Note_on_c, 7, 69, 127
9, 137340, Note_on_c, 7, 62, 127
9, 137340, Note_on_c, 7, 66, 127
9, 137340, Note_on_c, 7, 57, 127
9, 137340, Note_on_c, 7, 50, 127
9, 137383, Note_on_c, 7, 50, 0
9, 137383, Note_on_c, 7, 69, 0
9, 137383, Note_on_c, 7, 62, 0
9, 137383, Note_on_c, 7, 66, 0
9, 137383, Note_on_c, 7, 57, 0
9, 137400, Note_on_c, 7, 69, 127
9, 137400, Note_on_c, 7, 62, 127
9, 137400, Note_on_c, 7, 66, 127
9, 137400, Note_on_c, 7, 57, 127
9, 137400, Note_on_c, 7, 50, 127
9, 137400, Note_on_c, 7, 50, 127
9, 137443, Note_on_c, 7, 50, 0
9, 137443, Note_on_c, 7, 57, 0
9, 137443, Note_on_c, 7, 69, 0
9, 137443, Note_on_c, 7, 62, 0
9, 137443, Note_on_c, 7, 66, 0
9, 137443, Note_on_c, 7, 50, 0
9, 137460, Note_on_c, 7, 69, 127
9, 137460, Note_on_c, 7, 62, 127
9, 137460, Note_on_c, 7, 66, 127
9, 137460, Note_on_c, 7, 57, 127
9, 137460, Note_on_c, 7, 50, 127
9, 137503, Note_on_c, 7, 50, 0
9, 137503, Note_on_c, 7, 69, 0
9, 137503, Note_on_c, 7, 62, 0
9, 137503, Note_on_c, 7, 66, 0
9, 137503, Note_on_c, 7, 57, 0
9, 137520, Note_on_c, 7, 78, 0
9, 137520, Note_on_c, 7, 69, 127
9, 137520, Note_on_c, 7, 62, 127
9, 137520, Note_on_c, 7, 66, 127
9, 137520, Note_on_c, 7, 57, 127
9, 137520, Note_on_c, 7, 50, 127
9, 137520, Note_on_c, 7, 50, 127
9, 137563, Note_on_c, 7, 50, 0
9, 137563, Note_on_c, 7, 62, 0
9, 137563, Note_on_c, 7, 66, 0
9, 137563, Note_on_c, 7, 69, 0
9, 137563, Note_on_c, 7, 50, 0
9, 137563, Note_on_c, 7, 57, 0
9, 137580, Note_on_c, 7, 69, 127
9, 137580, Note_on_c, 7, 62, 127
9, 137580, Note_on_c, 7, 66, 127
9, 137580, Note_on_c, 7, 57, 127
9, 137580, Note_on_c, 7, 50, 127
9, 137623, Note_on_c, 7, 50, 0
9, 137623, Note_on_c, 7, 66, 0
9, 137623, Note_on_c, 7, 69, 0
9, 137623, Note_on_c, 7, 62, 0
9, 137623, Note_on_c, 7, 57, 0
9, 137640, Note_on_c, 7, 81, 127
9, 137640, Note_on_c, 7, 69, 127
9, 137640, Note_on_c, 7, 62, 127
9, 137640, Note_on_c, 7, 66, 127
9, 137640, Note_on_c, 7, 57, 127
9, 137640, Note_on_c, 7, 50, 127
9, 137640, Note_on_c, 7, 50, 127
9, 137683, Note_on_c, 7, 50, 0
9, 137683, Note_on_c, 7, 57, 0
9, 137683, Note_on_c, 7, 69, 0
9, 137683, Note_on_c, 7, 62, 0
9, 137683, Note_on_c, 7, 81, 0
9, 137683, Note_on_c, 7, 50, 0
9, 137683, Note_on_c, 7, 66, 0
9, 137700, Note_on_c, 7, 81, 127
9, 137700, Note_on_c, 7, 69, 127
9, 137700, Note_on_c, 7, 62, 127
9, 137700, Note_on_c, 7, 66, 127
9, 137700, Note_on_c, 7, 57, 127
9, 137700, Note_on_c, 7, 50, 127
9, 137743, Note_on_c, 7, 50, 0
9, 137743, Note_on_c, 7, 69, 0
9, 137743, Note_on_c, 7, 62, 0
9, 137743, Note_on_c, 7, 81, 0
9, 137743, Note_on_c, 7, 57, 0
9, 137743, Note_on_c, 7, 66, 0
9, 137760, Note_on_c, 7, 81, 127
9, 137760, Note_on_c, 7, 66, 127
9, 137760, Note_on_c, 7, 57, 127
9, 137760, Note_on_c, 7, 54, 127
9, 137760, Note_on_c, 7, 62, 127
9, 137760, Note_on_c, 7, 50, 127
9, 137760, Note_on_c, 7, 50, 127
9, 137803, Note_on_c, 7, 50, 0
9, 137803, Note_on_c, 7, 62, 0
9, 137803, Note_on_c, 7, 66, 0
9, 137803, Note_on_c, 7, 57, 0
9, 137803, Note_on_c, 7, 54, 0
9, 137803, Note_on_c, 7, 50, 0
9, 137820, Note_on_c, 7, 57, 127
9, 137820, Note_on_c, 7, 66, 127
9, 137820, Note_on_c, 7, 54, 127
9, 137820, Note_on_c, 7, 62, 127
9, 137820, Note_on_c, 7, 50, 127
9, 137863, Note_on_c, 7, 50, 0
9, 137863, Note_on_c, 7, 57, 0
9, 137863, Note_on_c, 7, 66, 0
9, 137863, Note_on_c, 7, 54, 0
9, 137863, Note_on_c, 7, 62, 0
9, 137880, Note_on_c, 7, 57, 127
9, 137880, Note_on_c, 7, 66, 127
9, 137880, Note_on_c, 7, 54, 127
9, 137880, Note_on_c, 7, 62, 127
9, 137880, Note_on_c, 7, 50, 127
9, 137880, Note_on_c, 7, 50, 127
9, 137923, Note_on_c, 7, 50, 0
9, 137923, Note_on_c, 7, 62, 0
9, 137923, Note_on_c, 7, 57, 0
9, 137923, Note_on_c, 7, 66, 0
9, 137923, Note_on_c, 7, 54, 0
9, 137923, Note_on_c, 7, 50, 0
9, 137940, Note_on_c, 7, 57, 127
9, 137940, Note_on_c, 7, 66, 127
9, 137940, Note_on_c, 7, 54, 127
9, 137940, Note_on_c, 7, 62, 127
9, 137940, Note_on_c, 7, 50, 127
9, 137983, Note_on_c, 7, 50, 0
9, 137983, Note_on_c, 7, 57, 0
9, 137983, Note_on_c, 7, 66, 0
9, 137983, Note_on_c, 7, 54, 0
9, 137983, Note_on_c, 7, 62, 0
9, 138000, Note_on_c, 7, 81, 0
9, 138000, Note_on_c, 7, 57, 127
9, 138000, Note_on_c, 7, 66, 127
9, 138000, Note_on_c, 7, 54, 127
9, 138000, Note_on_c, 7, 62, 127
9, 138000, Note_on_c, 7, 50, 127
9, 138000, Note_on_c, 7, 50, 127
9, 138043, Note_on_c, 7, 50, 0
9, 138043, Note_on_c, 7, 66, 0
9, 138043, Note_on_c, 7, 54, 0
9, 138043, Note_on_c, 7, 57, 0
9, 138043, Note_on_c, 7, 50, 0
9, 138043, Note_on_c, 7, 62, 0
9, 138060, Note_on_c, 7, 57, 127
9, 138060, Note_on_c, 7, 66, 127
9, 138060, Note_on_c, 7, 54, 127
9, 138060, Note_on_c, 7, 62, 127
9, 138060, Note_on_c, 7, 50, 127
9, 138103, Note_on_c, 7, 50, 0
9, 138103, Note_on_c, 7, 54, 0
9, 138103, Note_on_c, 7, 57, 0
9, 138103, Note_on_c, 7, 66, 0
9, 138103, Note_on_c, 7, 62, 0
9, 138120, Note_on_c, 7, 69, 127
9, 138120, Note_on_c, 7, 57, 127
9, 138120, Note_on_c, 7, 66, 127
9, 138120, Note_on_c, 7, 54, 127
9, 138120, Note_on_c, 7, 62, 127
9, 138120, Note_on_c, 7, 50, 127
9, 138120, Note_on_c, 7, 50, 127
9, 138163, Note_on_c, 7, 50, 0
9, 138163, Note_on_c, 7, 62, 0
9, 138163, Note_on_c, 7, 57, 0
9, 138163, Note_on_c, 7, 66, 0
9, 138163, Note_on_c, 7, 69, 0
9, 138163, Note_on_c, 7, 50, 0
9, 138163, Note_on_c, 7, 54, 0
9, 138180, Note_on_c, 7, 66, 127
9, 138180, Note_on_c, 7, 69, 127
9, 138180, Note_on_c, 7, 57, 127
9, 138180, Note_on_c, 7, 54, 127
9, 138180, Note_on_c, 7, 62, 127
9, 138180, Note_on_c, 7, 50, 127
9, 138223, Note_on_c, 7, 50, 0
9, 138223, Note_on_c, 7, 69, 0
9, 138223, Note_on_c, 7, 57, 0
9, 138223, Note_on_c, 7, 66, 0
9, 138223, Note_on_c, 7, 62, 0
9, 138223, Note_on_c, 7, 54, 0
9, 138240, Note_on_c, 7, 69, 127
9, 138240, Note_on_c, 7, 57, 127
9, 138240, Note_on_c, 7, 66, 127
9, 138240, Note_on_c, 7, 54, 127
9, 138240, Note_on_c, 7, 62, 127
9, 138240, Note_on_c, 7, 50, 127
9, 138240, Note_on_c, 7, 50, 127
9, 138283, Note_on_c, 7, 50, 0
9, 138283, Note_on_c, 7, 62, 0
9, 138283, Note_on_c, 7, 57, 0
9, 138283, Note_on_c, 7, 66, 0
9, 138283, Note_on_c, 7, 54, 0
9, 138283, Note_on_c, 7, 50, 0
9, 138300, Note_on_c, 7, 57, 127
9, 138300, Note_on_c, 7, 66, 127
9, 138300, Note_on_c, 7, 54, 127
9, 138300, Note_on_c, 7, 62, 127
9, 138300, Note_on_c, 7, 50, 127
9, 138343, Note_on_c, 7, 50, 0
9, 138343, Note_on_c, 7, 57, 0
9, 138343, Note_on_c, 7, 66, 0
9, 138343, Note_on_c, 7, 54, 0
9, 138343, Note_on_c, 7, 62, 0
9, 138360, Note_on_c, 7, 57, 127
9, 138360, Note_on_c, 7, 66, 127
9, 138360, Note_on_c, 7, 54, 127
9, 138360, Note_on_c, 7, 62, 127
9, 138360, Note_on_c, 7, 50, 127
9, 138360, Note_on_c, 7, 50, 127
9, 138403, Note_on_c, 7, 50, 0
9, 138403, Note_on_c, 7, 62, 0
9, 138403, Note_on_c, 7, 57, 0
9, 138403, Note_on_c, 7, 66, 0
9, 138403, Note_on_c, 7, 54, 0
9, 138403, Note_on_c, 7, 50, 0
9, 138420, Note_on_c, 7, 57, 127
9, 138420, Note_on_c, 7, 66, 127
9, 138420, Note_on_c, 7, 54, 127
9, 138420, Note_on_c, 7, 62, 127
9, 138420, Note_on_c, 7, 50, 127
9, 138463, Note_on_c, 7, 50, 0
9, 138463, Note_on_c, 7, 57, 0
9, 138463, Note_on_c, 7, 66, 0
9, 138463, Note_on_c, 7, 54, 0
9, 138463, Note_on_c, 7, 62, 0
9, 138480, Note_on_c, 7, 69, 0
9, 138480, Note_on_c, 7, 57, 127
9, 138480, Note_on_c, 7, 66, 127
9, 138480, Note_on_c, 7, 54, 127
9, 138480, Note_on_c, 7, 62, 127
9, 138480, Note_on_c, 7, 50, 127
9, 138480, Note_on_c, 7, 50, 127
9, 138523, Note_on_c, 7, 50, 0
9, 138523, Note_on_c, 7, 66, 0
9, 138523, Note_on_c, 7, 54, 0
9, 138523, Note_on_c, 7, 57, 0
9, 138523, Note_on_c, 7, 50, 0
9, 138523, Note_on_c, 7, 62, 0
9, 138540, Note_on_c, 7, 57, 127
9, 138540, Note_on_c, 7, 66, 127
9, 138540, Note_on_c, 7, 54, 127
9, 138540, Note_on_c, 7, 62, 127
9, 138540, Note_on_c, 7, 50, 127
9, 138583, Note_on_c, 7, 50, 0
9, 138583, Note_on_c, 7, 54, 0
9, 138583, Note_on_c, 7, 57, 0
9, 138583, Note_on_c, 7, 66, 0
9, 138583, Note_on_c, 7, 62, 0
9, 138600, Note_on_c, 7, 74, 127
9, 138600, Note_on_c, 7, 57, 127
9, 138600, Note_on_c, 7, 66, 127
9, 138600, Note_on_c, 7, 54, 127
9, 138600, Note_on_c, 7, 62, 127
9, 138600, Note_on_c, 7, 50, 127
9, 138600, Note_on_c, 7, 50, 127
9, 138643, Note_on_c, 7, 50, 0
9, 138643, Note_on_c, 7, 62, 0
9, 138643, Note_on_c, 7, 57, 0
9, 138643, Note_on_c, 7, 66, 0
9, 138643, Note_on_c, 7, 74, 0
9, 138643, Note_on_c, 7, 50, 0
9, 138643, Note_on_c, 7, 54, 0
9, 138660, Note_on_c, 7, 74, 127
9, 138660, Note_on_c, 7, 57, 127
9, 138660, Note_on_c, 7, 66, 127
9, 138660, Note_on_c, 7, 54, 127
9, 138660, Note_on_c, 7, 62, 127
9, 138660, Note_on_c, 7, 50, 127
9, 138703, Note_on_c, 7, 50, 0
9, 138703, Note_on_c, 7, 57, 0
9, 138703, Note_on_c, 7, 66, 0
9, 138703, Note_on_c, 7, 74, 0
9, 138703, Note_on_c, 7, 62, 0
9, 138703, Note_on_c, 7, 54, 0
9, 138710, Note_on_c, 7, 62, 127
9, 138720, Note_on_c, 7, 74, 127
9, 138720, Note_on_c, 7, 57, 127
9, 138720, Note_on_c, 7, 54, 127
9, 138720, Note_on_c, 7, 50, 127
9, 138720, Note_on_c, 7, 66, 127
9, 138818, Note_on_c, 7, 62, 0
9, 138828, Note_on_c, 7, 57, 0
9, 138828, Note_on_c, 7, 54, 0
9, 138828, Note_on_c, 7, 74, 0
9, 138828, Note_on_c, 7, 66, 0
9, 138828, Note_on_c, 7, 50, 0
9, 138950, Note_on_c, 7, 62, 127
9, 138950, Note_on_c, 7, 62, 127
9, 138960, Note_on_c, 7, 66, 127
9, 138960, Note_on_c, 7, 74, 127
9, 138960, Note_on_c, 7, 69, 127
9, 138960, Note_on_c, 7, 54, 127
9, 138970, Note_on_c, 7, 78, 127
9, 138970, Note_on_c, 7, 86, 127
9, 139058, Note_on_c, 7, 62, 0
9, 139058, Note_on_c, 7, 62, 0
9, 139068, Note_on_c, 7, 74, 0
9, 139068, Note_on_c, 7, 66, 0
9, 139068, Note_on_c, 7, 69, 0
9, 139068, Note_on_c, 7, 54, 0
9, 139078, Note_on_c, 7, 86, 0
9, 139078, Note_on_c, 7, 78, 0
9, 139190, Note_on_c, 7, 62, 127
9, 139190, Note_on_c, 7, 62, 127
9, 139200, Note_on_c, 7, 57, 127
9, 139200, Note_on_c, 7, 74, 127
9, 139200, Note_on_c, 7, 69, 127
9, 139200, Note_on_c, 7, 69, 127
9, 139210, Note_on_c, 7, 86, 127
9, 139210, Note_on_c, 7, 78, 127
9, 139298, Note_on_c, 7, 62, 0
9, 139298, Note_on_c, 7, 62, 0
9, 139308, Note_on_c, 7, 74, 0
9, 139308, Note_on_c, 7, 57, 0
9, 139308, Note_on_c, 7, 69, 0
9, 139308, Note_on_c, 7, 69, 0
9, 139318, Note_on_c, 7, 78, 0
9, 139330, Note_on_c, 7, 86, 0
9, 139430, Note_on_c, 7, 62, 127
9, 139430, Note_on_c, 7, 62, 127
9, 139440, Note_on_c, 7, 54, 127
9, 139440, Note_on_c, 7, 74, 127
9, 139440, Note_on_c, 7, 69, 127
9, 139440, Note_on_c, 7, 66, 127
9, 139450, Note_on_c, 7, 86, 127
9, 139450, Note_on_c, 7, 78, 127
9, 139538, Note_on_c, 7, 62, 0
9, 139538, Note_on_c, 7, 62, 0
9, 139548, Note_on_c, 7, 74, 0
9, 139548, Note_on_c, 7, 54, 0
9, 139548, Note_on_c, 7, 69, 0
9, 139548, Note_on_c, 7, 66, 0
9, 139558, Note_on_c, 7, 78, 0
9, 139570, Note_on_c, 7, 86, 0
9, 139670, Note_on_c, 7, 62, 127
9, 139670, Note_on_c, 7, 62, 127
9, 139670, Note_on_c, 7, 62, 127
9, 139680, Note_on_c, 7, 74, 127
9, 139680, Note_on_c, 7, 69, 127
9, 139680, Note_on_c, 7, 50, 127
9, 139690, Note_on_c, 7, 78, 127
9, 139690, Note_on_c, 7, 86, 127
9, 139778, Note_on_c, 7, 62, 0
9, 139778, Note_on_c, 7, 62, 0
9, 139778, Note_on_c, 7, 62, 0
9, 139788, Note_on_c, 7, 74, 0
9, 139788, Note_on_c, 7, 69, 0
9, 139788, Note_on_c, 7, 50, 0
9, 139879, Note_on_c, 7, 86, 0
9, 139879, Note_on_c, 7, 78, 0
9, 140150, Note_on_c, 7, 62, 127
9, 140150, Note_on_c, 7, 62, 127
9, 140150, Note_on_c, 7, 62, 127
9, 140160, Note_on_c, 7, 74, 127
9, 140160, Note_on_c, 7, 69, 127
9, 140160, Note_on_c, 7, 50, 127
9, 140170, Note_on_c, 7, 78, 127
9, 140170, Note_on_c, 7, 86, 127
9, 140258, Note_on_c, 7, 62, 0
9, 140258, Note_on_c, 7, 62, 0
9, 140258, Note_on_c, 7, 62, 0
9, 140268, Note_on_c, 7, 74, 0
9, 140268, Note_on_c, 7, 69, 0
9, 140268, Note_on_c, 7, 50, 0
9, 140359, Note_on_c, 7, 86, 0
9, 140359, Note_on_c, 7, 78, 0
9, 140618, Note_on_c, 7, 62, 127
9, 140630, Note_on_c, 7, 62, 127
9, 140630, Note_on_c, 7, 62, 127
9, 140640, Note_on_c, 7, 74, 127
9, 140640, Note_on_c, 7, 69, 127
9, 140640, Note_on_c, 7, 50, 127
9, 140650, Note_on_c, 7, 78, 127
9, 140650, Note_on_c, 7, 86, 127
9, 140726, Note_on_c, 7, 62, 0
9, 140738, Note_on_c, 7, 62, 0
9, 140748, Note_on_c, 7, 74, 0
9, 140748, Note_on_c, 7, 69, 0
9, 140839, Note_on_c, 7, 86, 0
9, 140839, Note_on_c, 7, 78, 0
9, 140846, Note_on_c, 7, 62, 0
9, 140856, Note_on_c, 7, 50, 0
9, 140856, End_track
10, 0, Start_track
10, 0, MIDI_port, 0
10, 0, Title_t, "Wolfgang Amadeus Mozart"
10, 0, End_track
11, 0, Start_track
11, 0, MIDI_port, 0
11, 0, Title_t, "Overture to the opera"
11, 0, End_track
12, 0, Start_track
12, 0, MIDI_port, 0
12, 0, Title_t, """Le nozze di Figaro"""
12, 0, End_track
13, 0, Start_track
13, 0, MIDI_port, 0
13, 0, Title_t, "(""The Marriage of Figaro"")"
13, 0, End_track
14, 0, Start_track
14, 0, MIDI_port, 0
14, 0, Title_t, "Sequence: M C Bucknall"
14, 0, End_track
15, 0, Start_track
15, 0, MIDI_port, 0
15, 0, Title_t, "ferret@dircon.co.uk"
15, 0, End_track
0, 0, End_of_file