0, 0, Header, 1, 23, 120
1, 0, Start_track
1, 0, Title_t, "W. A. Mozart - Requiem K. 626"
1, 0, Time_signature, 4, 2, 24, 8
1, 0, Key_signature, -1, "major"
1, 0, Tempo, 1200000
1, 0, Marker_t, "Introitus"
1, 22800, Tempo, 2000000
1, 23040, Tempo, 545455
1, 23040, Marker_t, "Kyrie"
1, 46800, Tempo, 2400000
1, 46920, Tempo, 1200000
1, 48480, Tempo, 1200000
1, 48480, End_track
2, 0, Start_track
2, 0, Title_t, "No. 1 - Requiem Aeternam (w/ organ)"
2, 0, End_track
3, 0, Start_track
3, 0, Title_t, "Sequenced by D. Viens 25 Oct 1997"
3, 0, End_track
4, 0, Start_track
4, 0, Title_t, "dlviens@ix.netcom.com"
4, 0, End_track
5, 0, Start_track
5, 0, End_track
6, 0, Start_track
6, 0, Title_t, "Corni di Bassetto in F"
6, 0, Program_c, 0, 71
6, 0, Control_c, 0, 7, 96
6, 0, Control_c, 0, 10, 75
6, 600, Control_c, 0, 11, 127
6, 600, Note_on_c, 0, 69, 48
6, 839, Note_on_c, 0, 69, 0
6, 840, Note_on_c, 0, 68, 48
6, 959, Note_on_c, 0, 68, 0
6, 960, Note_on_c, 0, 69, 48
6, 1079, Note_on_c, 0, 69, 0
6, 1080, Note_on_c, 0, 71, 48
6, 1199, Note_on_c, 0, 71, 0
6, 1200, Note_on_c, 0, 72, 48
6, 1319, Note_on_c, 0, 72, 0
6, 1320, Note_on_c, 0, 74, 48
6, 1320, Note_on_c, 0, 70, 48
6, 1379, Note_on_c, 0, 70, 0
6, 1380, Note_on_c, 0, 69, 48
6, 1439, Note_on_c, 0, 69, 0
6, 1440, Note_on_c, 0, 70, 48
6, 1559, Note_on_c, 0, 70, 0
6, 1559, Note_on_c, 0, 74, 0
6, 1560, Note_on_c, 0, 73, 48
6, 1560, Note_on_c, 0, 69, 48
6, 1619, Note_on_c, 0, 69, 0
6, 1620, Note_on_c, 0, 67, 48
6, 1679, Note_on_c, 0, 67, 0
6, 1679, Note_on_c, 0, 73, 0
6, 1680, Note_on_c, 0, 74, 48
6, 1680, Note_on_c, 0, 69, 48
6, 1799, Note_on_c, 0, 69, 0
6, 1799, Note_on_c, 0, 74, 0
6, 1800, Note_on_c, 0, 76, 48
6, 1800, Note_on_c, 0, 71, 48
6, 1919, Note_on_c, 0, 71, 0
6, 1919, Note_on_c, 0, 76, 0
6, 1920, Note_on_c, 0, 77, 48
6, 1920, Note_on_c, 0, 72, 48
6, 1979, Note_on_c, 0, 72, 0
6, 1980, Note_on_c, 0, 71, 48
6, 2009, Note_on_c, 0, 71, 0
6, 2010, Note_on_c, 0, 69, 48
6, 2039, Note_on_c, 0, 69, 0
6, 2040, Note_on_c, 0, 67, 48
6, 2159, Note_on_c, 0, 77, 0
6, 2160, Note_on_c, 0, 76, 48
6, 2279, Note_on_c, 0, 76, 0
6, 2279, Note_on_c, 0, 67, 0
6, 2280, Note_on_c, 0, 69, 48
6, 2280, Note_on_c, 0, 72, 48
6, 2339, Note_on_c, 0, 69, 0
6, 2340, Note_on_c, 0, 67, 48
6, 2399, Note_on_c, 0, 67, 0
6, 2400, Note_on_c, 0, 65, 48
6, 2519, Note_on_c, 0, 72, 0
6, 2520, Note_on_c, 0, 70, 48
6, 2579, Note_on_c, 0, 70, 0
6, 2580, Note_on_c, 0, 69, 48
6, 2639, Note_on_c, 0, 69, 0
6, 2639, Note_on_c, 0, 65, 0
6, 2640, Note_on_c, 0, 68, 48
6, 2640, Note_on_c, 0, 64, 48
6, 2699, Note_on_c, 0, 68, 0
6, 2700, Note_on_c, 0, 69, 48
6, 2759, Note_on_c, 0, 64, 0
6, 2760, Note_on_c, 0, 62, 48
6, 2819, Note_on_c, 0, 69, 0
6, 2820, Note_on_c, 0, 68, 48
6, 2879, Note_on_c, 0, 68, 0
6, 2879, Note_on_c, 0, 62, 0
6, 2880, Note_on_c, 0, 69, 48
6, 2880, Note_on_c, 0, 60, 48
6, 2999, Note_on_c, 0, 60, 0
6, 2999, Note_on_c, 0, 69, 0
6, 3960, Note_on_c, 0, 62, 72
6, 4199, Note_on_c, 0, 62, 0
6, 4200, Note_on_c, 0, 69, 72
6, 4200, Note_on_c, 0, 61, 72
6, 4319, Note_on_c, 0, 61, 0
6, 4320, Note_on_c, 0, 62, 72
6, 4379, Note_on_c, 0, 62, 0
6, 4380, Note_on_c, 0, 60, 72
6, 4439, Note_on_c, 0, 60, 0
6, 4439, Note_on_c, 0, 69, 0
6, 4440, Note_on_c, 0, 68, 72
6, 4440, Note_on_c, 0, 59, 72
6, 4499, Note_on_c, 0, 59, 0
6, 4500, Note_on_c, 0, 64, 72
6, 4559, Note_on_c, 0, 64, 0
6, 4559, Note_on_c, 0, 68, 0
6, 4560, Note_on_c, 0, 69, 72
6, 4560, Note_on_c, 0, 57, 72
6, 4679, Note_on_c, 0, 57, 0
6, 4679, Note_on_c, 0, 69, 0
6, 4680, Note_on_c, 0, 71, 72
6, 4680, Note_on_c, 0, 65, 72
6, 4799, Note_on_c, 0, 65, 0
6, 4799, Note_on_c, 0, 71, 0
6, 4800, Note_on_c, 0, 72, 72
6, 4800, Note_on_c, 0, 64, 72
6, 4919, Note_on_c, 0, 64, 0
6, 4919, Note_on_c, 0, 72, 0
6, 4920, Note_on_c, 0, 70, 72
6, 4920, Note_on_c, 0, 66, 72
6, 4979, Note_on_c, 0, 70, 0
6, 4980, Note_on_c, 0, 69, 72
6, 5039, Note_on_c, 0, 69, 0
6, 5039, Note_on_c, 0, 66, 0
6, 5040, Note_on_c, 0, 67, 72
6, 5040, Note_on_c, 0, 70, 72
6, 5099, Note_on_c, 0, 67, 0
6, 5100, Note_on_c, 0, 65, 72
6, 5159, Note_on_c, 0, 65, 0
6, 5159, Note_on_c, 0, 70, 0
6, 5160, Note_on_c, 0, 69, 72
6, 5160, Note_on_c, 0, 64, 72
6, 5219, Note_on_c, 0, 69, 0
6, 5220, Note_on_c, 0, 67, 72
6, 5279, Note_on_c, 0, 67, 0
6, 5280, Note_on_c, 0, 69, 72
6, 5339, Note_on_c, 0, 64, 0
6, 5340, Note_on_c, 0, 62, 72
6, 5369, Note_on_c, 0, 62, 0
6, 5370, Note_on_c, 0, 61, 72
6, 5399, Note_on_c, 0, 61, 0
6, 5399, Note_on_c, 0, 69, 0
6, 5400, Note_on_c, 0, 62, 72
6, 5459, Note_on_c, 0, 62, 0
6, 5460, Note_on_c, 0, 69, 72
6, 5519, Note_on_c, 0, 69, 0
6, 5520, Note_on_c, 0, 70, 72
6, 5639, Note_on_c, 0, 70, 0
6, 5640, Note_on_c, 0, 73, 72
6, 5640, Note_on_c, 0, 69, 72
6, 5759, Note_on_c, 0, 73, 0
6, 5760, Note_on_c, 0, 74, 72
6, 5879, Note_on_c, 0, 74, 0
6, 5880, Note_on_c, 0, 76, 72
6, 5939, Note_on_c, 0, 69, 0
6, 5940, Note_on_c, 0, 67, 72
6, 5999, Note_on_c, 0, 67, 0
6, 5999, Note_on_c, 0, 76, 0
6, 6000, Note_on_c, 0, 77, 72
6, 6000, Note_on_c, 0, 65, 72
6, 6059, Note_on_c, 0, 65, 0
6, 6060, Note_on_c, 0, 64, 72
6, 6089, Note_on_c, 0, 64, 0
6, 6090, Note_on_c, 0, 62, 72
6, 6119, Note_on_c, 0, 62, 0
6, 6119, Note_on_c, 0, 77, 0
6, 6120, Note_on_c, 0, 76, 72
6, 6120, Note_on_c, 0, 69, 72
6, 6239, Note_on_c, 0, 76, 0
6, 6240, Note_on_c, 0, 74, 72
6, 6299, Note_on_c, 0, 69, 0
6, 6300, Note_on_c, 0, 70, 72
6, 6359, Note_on_c, 0, 70, 0
6, 6360, Note_on_c, 0, 67, 72
6, 6479, Note_on_c, 0, 67, 0
6, 6479, Note_on_c, 0, 74, 0
6, 6480, Note_on_c, 0, 73, 72
6, 6480, Note_on_c, 0, 69, 72
6, 6539, Note_on_c, 0, 69, 0
6, 6539, Note_on_c, 0, 73, 0
6, 6600, Note_on_c, 0, 76, 72
6, 6600, Note_on_c, 0, 70, 72
6, 6659, Note_on_c, 0, 70, 0
6, 6659, Note_on_c, 0, 76, 0
6, 6720, Note_on_c, 0, 74, 72
6, 6720, Note_on_c, 0, 69, 72
6, 6839, Note_on_c, 0, 69, 0
6, 6839, Note_on_c, 0, 74, 0
6, 7020, Note_on_c, 0, 69, 72
6, 7020, Note_on_c, 0, 72, 72
6, 7079, Note_on_c, 0, 72, 0
6, 7079, Note_on_c, 0, 69, 0
6, 7080, Note_on_c, 0, 69, 72
6, 7080, Note_on_c, 0, 72, 72
6, 7139, Note_on_c, 0, 72, 0
6, 7139, Note_on_c, 0, 69, 0
6, 7140, Note_on_c, 0, 69, 72
6, 7140, Note_on_c, 0, 72, 72
6, 7199, Note_on_c, 0, 72, 0
6, 7199, Note_on_c, 0, 69, 0
6, 7200, Note_on_c, 0, 72, 72
6, 7200, Note_on_c, 0, 69, 72
6, 7319, Note_on_c, 0, 69, 0
6, 7319, Note_on_c, 0, 72, 0
6, 7500, Note_on_c, 0, 72, 72
6, 7500, Note_on_c, 0, 75, 72
6, 7559, Note_on_c, 0, 75, 0
6, 7559, Note_on_c, 0, 72, 0
6, 7560, Note_on_c, 0, 72, 72
6, 7560, Note_on_c, 0, 75, 72
6, 7619, Note_on_c, 0, 75, 0
6, 7619, Note_on_c, 0, 72, 0
6, 7620, Note_on_c, 0, 72, 72
6, 7620, Note_on_c, 0, 75, 72
6, 7679, Note_on_c, 0, 75, 0
6, 7679, Note_on_c, 0, 72, 0
6, 7680, Note_on_c, 0, 79, 72
6, 7680, Note_on_c, 0, 69, 72
6, 7739, Note_on_c, 0, 69, 0
6, 7739, Note_on_c, 0, 79, 0
6, 7800, Note_on_c, 0, 77, 72
6, 7800, Note_on_c, 0, 70, 72
6, 7859, Note_on_c, 0, 70, 0
6, 7859, Note_on_c, 0, 77, 0
6, 7920, Note_on_c, 0, 75, 48
6, 7920, Note_on_c, 0, 69, 48
6, 8039, Note_on_c, 0, 69, 0
6, 8039, Note_on_c, 0, 75, 0
6, 8040, Note_on_c, 0, 74, 48
6, 8040, Note_on_c, 0, 70, 48
6, 8159, Note_on_c, 0, 70, 0
6, 8159, Note_on_c, 0, 74, 0
6, 8760, Note_on_c, 0, 70, 48
6, 8999, Note_on_c, 0, 70, 0
6, 9000, Note_on_c, 0, 75, 48
6, 9000, Note_on_c, 0, 69, 48
6, 9119, Note_on_c, 0, 69, 0
6, 9120, Note_on_c, 0, 70, 48
6, 9239, Note_on_c, 0, 70, 0
6, 9299, Note_on_c, 0, 75, 0
6, 9300, Note_on_c, 0, 74, 48
6, 9359, Note_on_c, 0, 74, 0
6, 12060, Note_on_c, 0, 70, 72
6, 12119, Note_on_c, 0, 70, 0
6, 12120, Note_on_c, 0, 75, 72
6, 12299, Note_on_c, 0, 75, 0
6, 12300, Note_on_c, 0, 72, 72
6, 12359, Note_on_c, 0, 72, 0
6, 12360, Note_on_c, 0, 77, 72
6, 12479, Note_on_c, 0, 77, 0
6, 12480, Note_on_c, 0, 74, 72
6, 12599, Note_on_c, 0, 74, 0
6, 12600, Note_on_c, 0, 77, 72
6, 12719, Note_on_c, 0, 77, 0
6, 12720, Note_on_c, 0, 74, 72
6, 12839, Note_on_c, 0, 74, 0
6, 12840, Note_on_c, 0, 74, 72
6, 12959, Note_on_c, 0, 74, 0
6, 12960, Note_on_c, 0, 74, 72
6, 13199, Note_on_c, 0, 74, 0
6, 13200, Note_on_c, 0, 75, 72
6, 13259, Note_on_c, 0, 75, 0
6, 13260, Note_on_c, 0, 74, 72
6, 13319, Note_on_c, 0, 74, 0
6, 13320, Note_on_c, 0, 72, 72
6, 13439, Note_on_c, 0, 72, 0
6, 13440, Note_on_c, 0, 70, 72
6, 13559, Note_on_c, 0, 70, 0
6, 13920, Note_on_c, 0, 72, 72
6, 14039, Note_on_c, 0, 72, 0
6, 14040, Note_on_c, 0, 72, 72
6, 14159, Note_on_c, 0, 72, 0
6, 14160, Note_on_c, 0, 72, 72
6, 14399, Note_on_c, 0, 72, 0
6, 14400, Note_on_c, 0, 74, 72
6, 14519, Note_on_c, 0, 74, 0
6, 14520, Note_on_c, 0, 67, 72
6, 14639, Note_on_c, 0, 67, 0
6, 14640, Note_on_c, 0, 70, 72
6, 14759, Note_on_c, 0, 70, 0
6, 14760, Note_on_c, 0, 69, 72
6, 14879, Note_on_c, 0, 69, 0
6, 14880, Note_on_c, 0, 67, 72
6, 14999, Note_on_c, 0, 67, 0
6, 15000, Note_on_c, 0, 67, 48
6, 15120, Note_on_c, 0, 72, 48
6, 15239, Note_on_c, 0, 67, 0
6, 15240, Note_on_c, 0, 66, 48
6, 15359, Note_on_c, 0, 66, 0
6, 15419, Note_on_c, 0, 72, 0
6, 15420, Note_on_c, 0, 70, 48
6, 15479, Note_on_c, 0, 70, 0
6, 16140, Note_on_c, 0, 69, 72
6, 16229, Note_on_c, 0, 69, 0
6, 16230, Note_on_c, 0, 70, 72
6, 16259, Note_on_c, 0, 70, 0
6, 16260, Note_on_c, 0, 69, 72
6, 16289, Note_on_c, 0, 69, 0
6, 16290, Note_on_c, 0, 67, 72
6, 16319, Note_on_c, 0, 67, 0
6, 16320, Note_on_c, 0, 65, 72
6, 16349, Note_on_c, 0, 65, 0
6, 16350, Note_on_c, 0, 69, 72
6, 16379, Note_on_c, 0, 69, 0
6, 16380, Note_on_c, 0, 67, 72
6, 16409, Note_on_c, 0, 67, 0
6, 16410, Note_on_c, 0, 65, 72
6, 16439, Note_on_c, 0, 65, 0
6, 16440, Note_on_c, 0, 64, 72
6, 16469, Note_on_c, 0, 64, 0
6, 16470, Note_on_c, 0, 67, 72
6, 16499, Note_on_c, 0, 67, 0
6, 16500, Note_on_c, 0, 65, 72
6, 16529, Note_on_c, 0, 65, 0
6, 16530, Note_on_c, 0, 64, 72
6, 16559, Note_on_c, 0, 64, 0
6, 16560, Note_on_c, 0, 62, 72
6, 16589, Note_on_c, 0, 62, 0
6, 16590, Note_on_c, 0, 61, 72
6, 16619, Note_on_c, 0, 61, 0
6, 16620, Note_on_c, 0, 62, 72
6, 16649, Note_on_c, 0, 62, 0
6, 16650, Note_on_c, 0, 64, 72
6, 16679, Note_on_c, 0, 64, 0
6, 16680, Note_on_c, 0, 65, 72
6, 16709, Note_on_c, 0, 65, 0
6, 16710, Note_on_c, 0, 64, 72
6, 16739, Note_on_c, 0, 64, 0
6, 16740, Note_on_c, 0, 62, 72
6, 16769, Note_on_c, 0, 62, 0
6, 16770, Note_on_c, 0, 60, 72
6, 16799, Note_on_c, 0, 60, 0
6, 16800, Note_on_c, 0, 59, 72
6, 16860, Note_on_c, 0, 76, 72
6, 16949, Note_on_c, 0, 76, 0
6, 16950, Note_on_c, 0, 77, 72
6, 16979, Note_on_c, 0, 77, 0
6, 16980, Note_on_c, 0, 76, 72
6, 17009, Note_on_c, 0, 76, 0
6, 17010, Note_on_c, 0, 74, 72
6, 17039, Note_on_c, 0, 74, 0
6, 17039, Note_on_c, 0, 59, 0
6, 17040, Note_on_c, 0, 72, 72
6, 17040, Note_on_c, 0, 60, 72
6, 17069, Note_on_c, 0, 72, 0
6, 17070, Note_on_c, 0, 76, 72
6, 17099, Note_on_c, 0, 76, 0
6, 17100, Note_on_c, 0, 74, 72
6, 17129, Note_on_c, 0, 74, 0
6, 17130, Note_on_c, 0, 72, 72
6, 17159, Note_on_c, 0, 72, 0
6, 17159, Note_on_c, 0, 60, 0
6, 17160, Note_on_c, 0, 71, 72
6, 17160, Note_on_c, 0, 62, 72
6, 17189, Note_on_c, 0, 71, 0
6, 17190, Note_on_c, 0, 74, 72
6, 17219, Note_on_c, 0, 74, 0
6, 17220, Note_on_c, 0, 72, 72
6, 17249, Note_on_c, 0, 72, 0
6, 17250, Note_on_c, 0, 71, 72
6, 17279, Note_on_c, 0, 71, 0
6, 17279, Note_on_c, 0, 62, 0
6, 17280, Note_on_c, 0, 64, 72
6, 17280, Note_on_c, 0, 69, 72
6, 17309, Note_on_c, 0, 69, 0
6, 17310, Note_on_c, 0, 71, 72
6, 17339, Note_on_c, 0, 71, 0
6, 17340, Note_on_c, 0, 72, 72
6, 17399, Note_on_c, 0, 64, 0
6, 17400, Note_on_c, 0, 69, 72
6, 17429, Note_on_c, 0, 72, 0
6, 17430, Note_on_c, 0, 70, 72
6, 17459, Note_on_c, 0, 70, 0
6, 17460, Note_on_c, 0, 72, 72
6, 17489, Note_on_c, 0, 72, 0
6, 17490, Note_on_c, 0, 74, 72
6, 17519, Note_on_c, 0, 74, 0
6, 17520, Note_on_c, 0, 70, 72
6, 17549, Note_on_c, 0, 69, 0
6, 17550, Note_on_c, 0, 62, 72
6, 17579, Note_on_c, 0, 62, 0
6, 17580, Note_on_c, 0, 64, 72
6, 17609, Note_on_c, 0, 64, 0
6, 17610, Note_on_c, 0, 66, 72
6, 17639, Note_on_c, 0, 66, 0
6, 17640, Note_on_c, 0, 67, 72
6, 17669, Note_on_c, 0, 70, 0
6, 17670, Note_on_c, 0, 69, 72
6, 17699, Note_on_c, 0, 69, 0
6, 17700, Note_on_c, 0, 70, 72
6, 17729, Note_on_c, 0, 70, 0
6, 17730, Note_on_c, 0, 72, 72
6, 17759, Note_on_c, 0, 72, 0
6, 17760, Note_on_c, 0, 69, 72
6, 17879, Note_on_c, 0, 67, 0
6, 17880, Note_on_c, 0, 66, 72
6, 17999, Note_on_c, 0, 66, 0
6, 17999, Note_on_c, 0, 69, 0
6, 18000, Note_on_c, 0, 67, 72
6, 18000, Note_on_c, 0, 74, 72
6, 18119, Note_on_c, 0, 67, 0
6, 18120, Note_on_c, 0, 69, 72
6, 18239, Note_on_c, 0, 69, 0
6, 18240, Note_on_c, 0, 70, 72
6, 18269, Note_on_c, 0, 70, 0
6, 18269, Note_on_c, 0, 74, 0
6, 18270, Note_on_c, 0, 72, 72
6, 18270, Note_on_c, 0, 69, 72
6, 18299, Note_on_c, 0, 69, 0
6, 18299, Note_on_c, 0, 72, 0
6, 18300, Note_on_c, 0, 70, 72
6, 18300, Note_on_c, 0, 67, 72
6, 18329, Note_on_c, 0, 70, 0
6, 18330, Note_on_c, 0, 72, 72
6, 18359, Note_on_c, 0, 72, 0
6, 18360, Note_on_c, 0, 74, 72
6, 18389, Note_on_c, 0, 74, 0
6, 18389, Note_on_c, 0, 67, 0
6, 18390, Note_on_c, 0, 72, 72
6, 18390, Note_on_c, 0, 69, 72
6, 18419, Note_on_c, 0, 69, 0
6, 18419, Note_on_c, 0, 72, 0
6, 18420, Note_on_c, 0, 74, 72
6, 18420, Note_on_c, 0, 70, 72
6, 18449, Note_on_c, 0, 70, 0
6, 18449, Note_on_c, 0, 74, 0
6, 18450, Note_on_c, 0, 76, 72
6, 18450, Note_on_c, 0, 67, 72
6, 18479, Note_on_c, 0, 67, 0
6, 18479, Note_on_c, 0, 76, 0
6, 18480, Note_on_c, 0, 77, 72
6, 18480, Note_on_c, 0, 72, 72
6, 18509, Note_on_c, 0, 72, 0
6, 18510, Note_on_c, 0, 70, 72
6, 18539, Note_on_c, 0, 70, 0
6, 18539, Note_on_c, 0, 77, 0
6, 18540, Note_on_c, 0, 69, 72
6, 18540, Note_on_c, 0, 72, 72
6, 18569, Note_on_c, 0, 69, 0
6, 18570, Note_on_c, 0, 70, 72
6, 18599, Note_on_c, 0, 70, 0
6, 18599, Note_on_c, 0, 72, 0
6, 18600, Note_on_c, 0, 77, 72
6, 18600, Note_on_c, 0, 72, 72
6, 18629, Note_on_c, 0, 72, 0
6, 18630, Note_on_c, 0, 70, 72
6, 18659, Note_on_c, 0, 70, 0
6, 18660, Note_on_c, 0, 69, 72
6, 18689, Note_on_c, 0, 69, 0
6, 18690, Note_on_c, 0, 70, 72
6, 18719, Note_on_c, 0, 70, 0
6, 18720, Note_on_c, 0, 67, 72
6, 18839, Note_on_c, 0, 77, 0
6, 18840, Note_on_c, 0, 76, 72
6, 18959, Note_on_c, 0, 76, 0
6, 18959, Note_on_c, 0, 67, 0
6, 18960, Note_on_c, 0, 72, 72
6, 18960, Note_on_c, 0, 77, 72
6, 19019, Note_on_c, 0, 77, 0
6, 19020, Note_on_c, 0, 72, 72
6, 19079, Note_on_c, 0, 72, 0
6, 19080, Note_on_c, 0, 64, 72
6, 19139, Note_on_c, 0, 72, 0
6, 19140, Note_on_c, 0, 70, 72
6, 19199, Note_on_c, 0, 70, 0
6, 19199, Note_on_c, 0, 64, 0
6, 19200, Note_on_c, 0, 69, 72
6, 19200, Note_on_c, 0, 65, 72
6, 19319, Note_on_c, 0, 65, 0
6, 19319, Note_on_c, 0, 69, 0
6, 19320, Note_on_c, 0, 73, 72
6, 19320, Note_on_c, 0, 64, 72
6, 19439, Note_on_c, 0, 64, 0
6, 19439, Note_on_c, 0, 73, 0
6, 19440, Note_on_c, 0, 74, 72
6, 19440, Note_on_c, 0, 69, 72
6, 19559, Note_on_c, 0, 74, 0
6, 19560, Note_on_c, 0, 76, 72
6, 19619, Note_on_c, 0, 69, 0
6, 19620, Note_on_c, 0, 67, 72
6, 19679, Note_on_c, 0, 67, 0
6, 19679, Note_on_c, 0, 76, 0
6, 19680, Note_on_c, 0, 77, 72
6, 19680, Note_on_c, 0, 65, 72
6, 19799, Note_on_c, 0, 65, 0
6, 19799, Note_on_c, 0, 77, 0
6, 19800, Note_on_c, 0, 69, 72
6, 19800, Note_on_c, 0, 60, 72
6, 19919, Note_on_c, 0, 60, 0
6, 19919, Note_on_c, 0, 69, 0
6, 19920, Note_on_c, 0, 70, 72
6, 19920, Note_on_c, 0, 65, 72
6, 20039, Note_on_c, 0, 70, 0
6, 20040, Note_on_c, 0, 72, 72
6, 20099, Note_on_c, 0, 65, 0
6, 20100, Note_on_c, 0, 63, 72
6, 20159, Note_on_c, 0, 63, 0
6, 20159, Note_on_c, 0, 72, 0
6, 20160, Note_on_c, 0, 74, 72
6, 20160, Note_on_c, 0, 62, 72
6, 20219, Note_on_c, 0, 62, 0
6, 20219, Note_on_c, 0, 74, 0
6, 20220, Note_on_c, 0, 77, 72
6, 20220, Note_on_c, 0, 70, 72
6, 20279, Note_on_c, 0, 70, 0
6, 20279, Note_on_c, 0, 77, 0
6, 20280, Note_on_c, 0, 77, 72
6, 20280, Note_on_c, 0, 70, 72
6, 20339, Note_on_c, 0, 70, 0
6, 20339, Note_on_c, 0, 77, 0
6, 20340, Note_on_c, 0, 77, 72
6, 20340, Note_on_c, 0, 70, 72
6, 20399, Note_on_c, 0, 70, 0
6, 20399, Note_on_c, 0, 77, 0
6, 20400, Note_on_c, 0, 77, 72
6, 20400, Note_on_c, 0, 70, 72
6, 20519, Note_on_c, 0, 70, 0
6, 20519, Note_on_c, 0, 77, 0
6, 20700, Note_on_c, 0, 74, 72
6, 20700, Note_on_c, 0, 77, 60
6, 20759, Note_on_c, 0, 77, 0
6, 20759, Note_on_c, 0, 74, 0
6, 20760, Note_on_c, 0, 74, 60
6, 20760, Note_on_c, 0, 77, 72
6, 20819, Note_on_c, 0, 77, 0
6, 20819, Note_on_c, 0, 74, 0
6, 20820, Note_on_c, 0, 74, 72
6, 20820, Note_on_c, 0, 77, 72
6, 20879, Note_on_c, 0, 77, 0
6, 20879, Note_on_c, 0, 74, 0
6, 20880, Note_on_c, 0, 74, 72
6, 20880, Note_on_c, 0, 77, 72
6, 20999, Note_on_c, 0, 77, 0
6, 20999, Note_on_c, 0, 74, 0
6, 21120, Note_on_c, 0, 77, 72
6, 21120, Note_on_c, 0, 71, 72
6, 21479, Note_on_c, 0, 77, 0
6, 21480, Note_on_c, 0, 76, 72
6, 21539, Note_on_c, 0, 76, 0
6, 21540, Note_on_c, 0, 74, 72
6, 21599, Note_on_c, 0, 74, 0
6, 21599, Note_on_c, 0, 71, 0
6, 21600, Note_on_c, 0, 74, 72
6, 21659, Note_on_c, 0, 74, 0
6, 21660, Note_on_c, 0, 73, 72
6, 21719, Note_on_c, 0, 73, 0
6, 23580, Note_on_c, 0, 64, 72
6, 23639, Note_on_c, 0, 64, 0
6, 23640, Note_on_c, 0, 64, 72
6, 23699, Note_on_c, 0, 64, 0
6, 23700, Note_on_c, 0, 64, 72
6, 23759, Note_on_c, 0, 64, 0
6, 23760, Note_on_c, 0, 65, 72
6, 23789, Note_on_c, 0, 65, 0
6, 23790, Note_on_c, 0, 67, 72
6, 23819, Note_on_c, 0, 67, 0
6, 23820, Note_on_c, 0, 65, 72
6, 23849, Note_on_c, 0, 65, 0
6, 23850, Note_on_c, 0, 64, 72
6, 23879, Note_on_c, 0, 64, 0
6, 23880, Note_on_c, 0, 65, 72
6, 23909, Note_on_c, 0, 65, 0
6, 23910, Note_on_c, 0, 67, 72
6, 23939, Note_on_c, 0, 67, 0
6, 23940, Note_on_c, 0, 64, 72
6, 23969, Note_on_c, 0, 64, 0
6, 23970, Note_on_c, 0, 65, 72
6, 23999, Note_on_c, 0, 65, 0
6, 24000, Note_on_c, 0, 67, 72
6, 24029, Note_on_c, 0, 67, 0
6, 24030, Note_on_c, 0, 69, 72
6, 24059, Note_on_c, 0, 69, 0
6, 24060, Note_on_c, 0, 67, 72
6, 24089, Note_on_c, 0, 67, 0
6, 24090, Note_on_c, 0, 65, 72
6, 24119, Note_on_c, 0, 65, 0
6, 24120, Note_on_c, 0, 67, 72
6, 24149, Note_on_c, 0, 67, 0
6, 24150, Note_on_c, 0, 69, 72
6, 24179, Note_on_c, 0, 69, 0
6, 24180, Note_on_c, 0, 65, 72
6, 24209, Note_on_c, 0, 65, 0
6, 24210, Note_on_c, 0, 67, 72
6, 24239, Note_on_c, 0, 67, 0
6, 24240, Note_on_c, 0, 69, 72
6, 24299, Note_on_c, 0, 69, 0
6, 24300, Note_on_c, 0, 70, 72
6, 24329, Note_on_c, 0, 70, 0
6, 24330, Note_on_c, 0, 69, 72
6, 24359, Note_on_c, 0, 69, 0
6, 24360, Note_on_c, 0, 67, 72
6, 24389, Note_on_c, 0, 67, 0
6, 24390, Note_on_c, 0, 65, 72
6, 24419, Note_on_c, 0, 65, 0
6, 24420, Note_on_c, 0, 64, 72
6, 24449, Note_on_c, 0, 64, 0
6, 24450, Note_on_c, 0, 62, 72
6, 24479, Note_on_c, 0, 62, 0
6, 24480, Note_on_c, 0, 61, 72
6, 24539, Note_on_c, 0, 61, 0
6, 24540, Note_on_c, 0, 64, 72
6, 24599, Note_on_c, 0, 64, 0
6, 24600, Note_on_c, 0, 69, 72
6, 24659, Note_on_c, 0, 69, 0
6, 24660, Note_on_c, 0, 67, 72
6, 24719, Note_on_c, 0, 67, 0
6, 24720, Note_on_c, 0, 65, 72
6, 24720, Note_on_c, 0, 74, 72
6, 24779, Note_on_c, 0, 65, 0
6, 24780, Note_on_c, 0, 64, 72
6, 24809, Note_on_c, 0, 64, 0
6, 24810, Note_on_c, 0, 65, 72
6, 24839, Note_on_c, 0, 65, 0
6, 24840, Note_on_c, 0, 62, 72
6, 24869, Note_on_c, 0, 62, 0
6, 24870, Note_on_c, 0, 64, 72
6, 24899, Note_on_c, 0, 64, 0
6, 24899, Note_on_c, 0, 74, 0
6, 24900, Note_on_c, 0, 66, 72
6, 24900, Note_on_c, 0, 74, 72
6, 24929, Note_on_c, 0, 66, 0
6, 24930, Note_on_c, 0, 68, 72
6, 24959, Note_on_c, 0, 68, 0
6, 24959, Note_on_c, 0, 74, 0
6, 24960, Note_on_c, 0, 69, 72
6, 24960, Note_on_c, 0, 72, 72
6, 25079, Note_on_c, 0, 72, 0
6, 25079, Note_on_c, 0, 69, 0
6, 25080, Note_on_c, 0, 77, 72
6, 25199, Note_on_c, 0, 77, 0
6, 25200, Note_on_c, 0, 68, 72
6, 25379, Note_on_c, 0, 68, 0
6, 25380, Note_on_c, 0, 68, 72
6, 25439, Note_on_c, 0, 68, 0
6, 25440, Note_on_c, 0, 69, 72
6, 25559, Note_on_c, 0, 69, 0
6, 25620, Note_on_c, 0, 69, 72
6, 25679, Note_on_c, 0, 69, 0
6, 25680, Note_on_c, 0, 71, 72
6, 25859, Note_on_c, 0, 71, 0
6, 25860, Note_on_c, 0, 69, 72
6, 25889, Note_on_c, 0, 69, 0
6, 25890, Note_on_c, 0, 71, 72
6, 25919, Note_on_c, 0, 71, 0
6, 25920, Note_on_c, 0, 72, 72
6, 25979, Note_on_c, 0, 72, 0
6, 25980, Note_on_c, 0, 71, 72
6, 26009, Note_on_c, 0, 71, 0
6, 26010, Note_on_c, 0, 72, 72
6, 26039, Note_on_c, 0, 72, 0
6, 26040, Note_on_c, 0, 74, 72
6, 26099, Note_on_c, 0, 74, 0
6, 26100, Note_on_c, 0, 72, 72
6, 26129, Note_on_c, 0, 72, 0
6, 26130, Note_on_c, 0, 74, 72
6, 26159, Note_on_c, 0, 74, 0
6, 26160, Note_on_c, 0, 76, 72
6, 26219, Note_on_c, 0, 76, 0
6, 26220, Note_on_c, 0, 74, 72
6, 26279, Note_on_c, 0, 74, 0
6, 26280, Note_on_c, 0, 72, 72
6, 26339, Note_on_c, 0, 72, 0
6, 26340, Note_on_c, 0, 71, 72
6, 26399, Note_on_c, 0, 71, 0
6, 26400, Note_on_c, 0, 69, 72
6, 26460, Note_on_c, 0, 79, 72
6, 26519, Note_on_c, 0, 79, 0
6, 26520, Note_on_c, 0, 77, 72
6, 26579, Note_on_c, 0, 77, 0
6, 26579, Note_on_c, 0, 69, 0
6, 26580, Note_on_c, 0, 76, 72
6, 26580, Note_on_c, 0, 69, 72
6, 26639, Note_on_c, 0, 69, 0
6, 26639, Note_on_c, 0, 76, 0
6, 26640, Note_on_c, 0, 74, 72
6, 26640, Note_on_c, 0, 65, 72
6, 26759, Note_on_c, 0, 65, 0
6, 26759, Note_on_c, 0, 74, 0
6, 26760, Note_on_c, 0, 70, 72
6, 26820, Note_on_c, 0, 62, 72
6, 26879, Note_on_c, 0, 62, 0
6, 26879, Note_on_c, 0, 70, 0
6, 26880, Note_on_c, 0, 67, 72
6, 26880, Note_on_c, 0, 61, 72
6, 27059, Note_on_c, 0, 61, 0
6, 27059, Note_on_c, 0, 67, 0
6, 27060, Note_on_c, 0, 61, 72
6, 27060, Note_on_c, 0, 65, 72
6, 27089, Note_on_c, 0, 65, 0
6, 27090, Note_on_c, 0, 64, 72
6, 27119, Note_on_c, 0, 64, 0
6, 27119, Note_on_c, 0, 61, 0
6, 27120, Note_on_c, 0, 69, 72
6, 27120, Note_on_c, 0, 62, 72
6, 27179, Note_on_c, 0, 69, 0
6, 27180, Note_on_c, 0, 62, 72
6, 27239, Note_on_c, 0, 62, 0
6, 27239, Note_on_c, 0, 62, 0
6, 27240, Note_on_c, 0, 74, 72
6, 27300, Note_on_c, 0, 62, 72
6, 27359, Note_on_c, 0, 62, 0
6, 27360, Note_on_c, 0, 64, 72
6, 27479, Note_on_c, 0, 74, 0
6, 27480, Note_on_c, 0, 74, 72
6, 27539, Note_on_c, 0, 64, 0
6, 27540, Note_on_c, 0, 62, 72
6, 27569, Note_on_c, 0, 62, 0
6, 27570, Note_on_c, 0, 64, 72
6, 27599, Note_on_c, 0, 64, 0
6, 27599, Note_on_c, 0, 74, 0
6, 27600, Note_on_c, 0, 74, 72
6, 27600, Note_on_c, 0, 65, 72
6, 27659, Note_on_c, 0, 65, 0
6, 27659, Note_on_c, 0, 74, 0
6, 27660, Note_on_c, 0, 73, 72
6, 27660, Note_on_c, 0, 64, 72
6, 27689, Note_on_c, 0, 64, 0
6, 27689, Note_on_c, 0, 73, 0
6, 27690, Note_on_c, 0, 74, 72
6, 27690, Note_on_c, 0, 65, 72
6, 27719, Note_on_c, 0, 65, 0
6, 27719, Note_on_c, 0, 74, 0
6, 27720, Note_on_c, 0, 77, 72
6, 27720, Note_on_c, 0, 67, 72
6, 27779, Note_on_c, 0, 67, 0
6, 27780, Note_on_c, 0, 65, 72
6, 27809, Note_on_c, 0, 65, 0
6, 27810, Note_on_c, 0, 67, 72
6, 27839, Note_on_c, 0, 67, 0
6, 27840, Note_on_c, 0, 69, 72
6, 27899, Note_on_c, 0, 69, 0
6, 27900, Note_on_c, 0, 67, 72
6, 27959, Note_on_c, 0, 67, 0
6, 27959, Note_on_c, 0, 77, 0
6, 27960, Note_on_c, 0, 65, 72
6, 27960, Note_on_c, 0, 74, 72
6, 28019, Note_on_c, 0, 74, 0
6, 28019, Note_on_c, 0, 65, 0
6, 28020, Note_on_c, 0, 64, 72
6, 28020, Note_on_c, 0, 73, 72
6, 28079, Note_on_c, 0, 73, 0
6, 28079, Note_on_c, 0, 64, 0
6, 28080, Note_on_c, 0, 74, 72
6, 28080, Note_on_c, 0, 62, 72
6, 28169, Note_on_c, 0, 62, 0
6, 28170, Note_on_c, 0, 64, 72
6, 28199, Note_on_c, 0, 64, 0
6, 28199, Note_on_c, 0, 74, 0
6, 28200, Note_on_c, 0, 66, 72
6, 28259, Note_on_c, 0, 66, 0
6, 28260, Note_on_c, 0, 68, 72
6, 28319, Note_on_c, 0, 68, 0
6, 28320, Note_on_c, 0, 69, 72
6, 28379, Note_on_c, 0, 69, 0
6, 28380, Note_on_c, 0, 64, 72
6, 28499, Note_on_c, 0, 64, 0
6, 28500, Note_on_c, 0, 62, 72
6, 28529, Note_on_c, 0, 62, 0
6, 28530, Note_on_c, 0, 60, 72
6, 28559, Note_on_c, 0, 60, 0
6, 28560, Note_on_c, 0, 59, 72
6, 28620, Note_on_c, 0, 71, 72
6, 28679, Note_on_c, 0, 71, 0
6, 28679, Note_on_c, 0, 59, 0
6, 28680, Note_on_c, 0, 71, 72
6, 28739, Note_on_c, 0, 71, 0
6, 28740, Note_on_c, 0, 71, 72
6, 28799, Note_on_c, 0, 71, 0
6, 28800, Note_on_c, 0, 72, 72
6, 28829, Note_on_c, 0, 72, 0
6, 28830, Note_on_c, 0, 74, 72
6, 28859, Note_on_c, 0, 74, 0
6, 28860, Note_on_c, 0, 72, 72
6, 28860, Note_on_c, 0, 64, 72
6, 28889, Note_on_c, 0, 72, 0
6, 28890, Note_on_c, 0, 71, 72
6, 28919, Note_on_c, 0, 71, 0
6, 28919, Note_on_c, 0, 64, 0
6, 28920, Note_on_c, 0, 72, 72
6, 28920, Note_on_c, 0, 69, 72
6, 28949, Note_on_c, 0, 72, 0
6, 28950, Note_on_c, 0, 74, 72
6, 28979, Note_on_c, 0, 74, 0
6, 28980, Note_on_c, 0, 71, 72
6, 29009, Note_on_c, 0, 71, 0
6, 29010, Note_on_c, 0, 72, 72
6, 29039, Note_on_c, 0, 72, 0
6, 29040, Note_on_c, 0, 74, 72
6, 29069, Note_on_c, 0, 74, 0
6, 29069, Note_on_c, 0, 69, 0
6, 29070, Note_on_c, 0, 76, 72
6, 29070, Note_on_c, 0, 67, 72
6, 29099, Note_on_c, 0, 67, 0
6, 29099, Note_on_c, 0, 76, 0
6, 29100, Note_on_c, 0, 74, 72
6, 29100, Note_on_c, 0, 65, 72
6, 29129, Note_on_c, 0, 65, 0
6, 29129, Note_on_c, 0, 74, 0
6, 29130, Note_on_c, 0, 72, 72
6, 29130, Note_on_c, 0, 64, 72
6, 29159, Note_on_c, 0, 64, 0
6, 29159, Note_on_c, 0, 72, 0
6, 29160, Note_on_c, 0, 74, 72
6, 29160, Note_on_c, 0, 65, 72
6, 29189, Note_on_c, 0, 74, 0
6, 29190, Note_on_c, 0, 76, 72
6, 29219, Note_on_c, 0, 76, 0
6, 29219, Note_on_c, 0, 65, 0
6, 29220, Note_on_c, 0, 67, 72
6, 29220, Note_on_c, 0, 72, 72
6, 29249, Note_on_c, 0, 72, 0
6, 29249, Note_on_c, 0, 67, 0
6, 29250, Note_on_c, 0, 74, 72
6, 29250, Note_on_c, 0, 65, 72
6, 29279, Note_on_c, 0, 65, 0
6, 29279, Note_on_c, 0, 74, 0
6, 29280, Note_on_c, 0, 76, 72
6, 29280, Note_on_c, 0, 64, 72
6, 29339, Note_on_c, 0, 76, 0
6, 29340, Note_on_c, 0, 77, 72
6, 29369, Note_on_c, 0, 77, 0
6, 29370, Note_on_c, 0, 76, 72
6, 29399, Note_on_c, 0, 76, 0
6, 29399, Note_on_c, 0, 64, 0
6, 29400, Note_on_c, 0, 74, 72
6, 29429, Note_on_c, 0, 74, 0
6, 29430, Note_on_c, 0, 72, 72
6, 29459, Note_on_c, 0, 72, 0
6, 29460, Note_on_c, 0, 71, 72
6, 29489, Note_on_c, 0, 71, 0
6, 29490, Note_on_c, 0, 69, 72
6, 29519, Note_on_c, 0, 69, 0
6, 29520, Note_on_c, 0, 68, 72
6, 29579, Note_on_c, 0, 68, 0
6, 29580, Note_on_c, 0, 69, 72
6, 29580, Note_on_c, 0, 64, 72
6, 29639, Note_on_c, 0, 64, 0
6, 29639, Note_on_c, 0, 69, 0
6, 29640, Note_on_c, 0, 76, 72
6, 29640, Note_on_c, 0, 66, 72
6, 29699, Note_on_c, 0, 66, 0
6, 29699, Note_on_c, 0, 76, 0
6, 29700, Note_on_c, 0, 74, 72
6, 29700, Note_on_c, 0, 68, 72
6, 29759, Note_on_c, 0, 68, 0
6, 29759, Note_on_c, 0, 74, 0
6, 29760, Note_on_c, 0, 72, 72
6, 29760, Note_on_c, 0, 69, 72
6, 29789, Note_on_c, 0, 72, 0
6, 29790, Note_on_c, 0, 71, 72
6, 29819, Note_on_c, 0, 71, 0
6, 29820, Note_on_c, 0, 69, 72
6, 29879, Note_on_c, 0, 69, 0
6, 29909, Note_on_c, 0, 69, 0
6, 29910, Note_on_c, 0, 70, 72
6, 29939, Note_on_c, 0, 70, 0
6, 29940, Note_on_c, 0, 67, 72
6, 29969, Note_on_c, 0, 67, 0
6, 29970, Note_on_c, 0, 69, 72
6, 29999, Note_on_c, 0, 69, 0
6, 30000, Note_on_c, 0, 66, 72
6, 30060, Note_on_c, 0, 69, 72
6, 30119, Note_on_c, 0, 69, 0
6, 30119, Note_on_c, 0, 66, 0
6, 30120, Note_on_c, 0, 74, 72
6, 30120, Note_on_c, 0, 67, 72
6, 30179, Note_on_c, 0, 67, 0
6, 30179, Note_on_c, 0, 74, 0
6, 30180, Note_on_c, 0, 72, 72
6, 30180, Note_on_c, 0, 69, 72
6, 30239, Note_on_c, 0, 69, 0
6, 30239, Note_on_c, 0, 72, 0
6, 30240, Note_on_c, 0, 70, 72
6, 30240, Note_on_c, 0, 62, 72
6, 30269, Note_on_c, 0, 70, 0
6, 30270, Note_on_c, 0, 69, 72
6, 30299, Note_on_c, 0, 69, 0
6, 30300, Note_on_c, 0, 67, 72
6, 30359, Note_on_c, 0, 62, 0
6, 30389, Note_on_c, 0, 67, 0
6, 30390, Note_on_c, 0, 69, 72
6, 30419, Note_on_c, 0, 69, 0
6, 30420, Note_on_c, 0, 65, 72
6, 30449, Note_on_c, 0, 65, 0
6, 30450, Note_on_c, 0, 67, 72
6, 30479, Note_on_c, 0, 67, 0
6, 30480, Note_on_c, 0, 72, 72
6, 30480, Note_on_c, 0, 64, 72
6, 30599, Note_on_c, 0, 64, 0
6, 30600, Note_on_c, 0, 65, 72
6, 30659, Note_on_c, 0, 65, 0
6, 30659, Note_on_c, 0, 72, 0
6, 30660, Note_on_c, 0, 67, 72
6, 30660, Note_on_c, 0, 72, 72
6, 30719, Note_on_c, 0, 72, 0
6, 30719, Note_on_c, 0, 67, 0
6, 30720, Note_on_c, 0, 69, 72
6, 30720, Note_on_c, 0, 60, 72
6, 30839, Note_on_c, 0, 60, 0
6, 30839, Note_on_c, 0, 69, 0
6, 30840, Note_on_c, 0, 72, 72
6, 30959, Note_on_c, 0, 72, 0
6, 30960, Note_on_c, 0, 64, 72
6, 31020, Note_on_c, 0, 60, 72
6, 31139, Note_on_c, 0, 60, 0
6, 31139, Note_on_c, 0, 64, 0
6, 31140, Note_on_c, 0, 64, 72
6, 31140, Note_on_c, 0, 58, 72
6, 31199, Note_on_c, 0, 58, 0
6, 31199, Note_on_c, 0, 64, 0
6, 31200, Note_on_c, 0, 65, 72
6, 31200, Note_on_c, 0, 57, 72
6, 31259, Note_on_c, 0, 57, 0
6, 31260, Note_on_c, 0, 65, 72
6, 31319, Note_on_c, 0, 65, 0
6, 31319, Note_on_c, 0, 65, 0
6, 31320, Note_on_c, 0, 62, 72
6, 31379, Note_on_c, 0, 62, 0
6, 31380, Note_on_c, 0, 65, 72
6, 31380, Note_on_c, 0, 58, 72
6, 31439, Note_on_c, 0, 58, 0
6, 31439, Note_on_c, 0, 65, 0
6, 31440, Note_on_c, 0, 67, 72
6, 31500, Note_on_c, 0, 67, 72
6, 31559, Note_on_c, 0, 67, 0
6, 31560, Note_on_c, 0, 64, 72
6, 31619, Note_on_c, 0, 64, 0
6, 31619, Note_on_c, 0, 67, 0
6, 31620, Note_on_c, 0, 60, 72
6, 31620, Note_on_c, 0, 65, 72
6, 31649, Note_on_c, 0, 65, 0
6, 31650, Note_on_c, 0, 67, 72
6, 31679, Note_on_c, 0, 67, 0
6, 31679, Note_on_c, 0, 60, 0
6, 31680, Note_on_c, 0, 69, 72
6, 31739, Note_on_c, 0, 69, 0
6, 31740, Note_on_c, 0, 67, 72
6, 31740, Note_on_c, 0, 64, 72
6, 31769, Note_on_c, 0, 64, 0
6, 31769, Note_on_c, 0, 67, 0
6, 31770, Note_on_c, 0, 69, 72
6, 31770, Note_on_c, 0, 65, 72
6, 31799, Note_on_c, 0, 65, 0
6, 31799, Note_on_c, 0, 69, 0
6, 31800, Note_on_c, 0, 70, 72
6, 31800, Note_on_c, 0, 67, 72
6, 31859, Note_on_c, 0, 67, 0
6, 31859, Note_on_c, 0, 70, 0
6, 31860, Note_on_c, 0, 69, 72
6, 31860, Note_on_c, 0, 65, 72
6, 31889, Note_on_c, 0, 65, 0
6, 31889, Note_on_c, 0, 69, 0
6, 31890, Note_on_c, 0, 70, 72
6, 31890, Note_on_c, 0, 67, 72
6, 31919, Note_on_c, 0, 67, 0
6, 31919, Note_on_c, 0, 70, 0
6, 31920, Note_on_c, 0, 72, 72
6, 31920, Note_on_c, 0, 69, 72
6, 31979, Note_on_c, 0, 69, 0
6, 31979, Note_on_c, 0, 72, 0
6, 31980, Note_on_c, 0, 70, 72
6, 31980, Note_on_c, 0, 64, 72
6, 32039, Note_on_c, 0, 64, 0
6, 32039, Note_on_c, 0, 70, 0
6, 32040, Note_on_c, 0, 69, 72
6, 32040, Note_on_c, 0, 65, 72
6, 32099, Note_on_c, 0, 65, 0
6, 32099, Note_on_c, 0, 69, 0
6, 32100, Note_on_c, 0, 67, 72
6, 32100, Note_on_c, 0, 61, 72
6, 32159, Note_on_c, 0, 61, 0
6, 32159, Note_on_c, 0, 67, 0
6, 32160, Note_on_c, 0, 66, 72
6, 32160, Note_on_c, 0, 62, 72
6, 32279, Note_on_c, 0, 62, 0
6, 32279, Note_on_c, 0, 66, 0
6, 32280, Note_on_c, 0, 67, 72
6, 32280, Note_on_c, 0, 64, 72
6, 32339, Note_on_c, 0, 64, 0
6, 32339, Note_on_c, 0, 67, 0
6, 32340, Note_on_c, 0, 69, 72
6, 32340, Note_on_c, 0, 66, 72
6, 32399, Note_on_c, 0, 66, 0
6, 32399, Note_on_c, 0, 69, 0
6, 32400, Note_on_c, 0, 70, 72
6, 32400, Note_on_c, 0, 67, 72
6, 32519, Note_on_c, 0, 67, 0
6, 32519, Note_on_c, 0, 70, 0
6, 32700, Note_on_c, 0, 69, 72
6, 32700, Note_on_c, 0, 63, 72
6, 32759, Note_on_c, 0, 63, 0
6, 32759, Note_on_c, 0, 69, 0
6, 32760, Note_on_c, 0, 69, 72
6, 32760, Note_on_c, 0, 62, 72
6, 32819, Note_on_c, 0, 62, 0
6, 32819, Note_on_c, 0, 69, 0
6, 32820, Note_on_c, 0, 69, 72
6, 32820, Note_on_c, 0, 60, 72
6, 32879, Note_on_c, 0, 60, 0
6, 32879, Note_on_c, 0, 69, 0
6, 32880, Note_on_c, 0, 70, 72
6, 32880, Note_on_c, 0, 58, 72
6, 32909, Note_on_c, 0, 70, 0
6, 32910, Note_on_c, 0, 72, 72
6, 32939, Note_on_c, 0, 72, 0
6, 32939, Note_on_c, 0, 58, 0
6, 32940, Note_on_c, 0, 70, 72
6, 32940, Note_on_c, 0, 55, 72
6, 32969, Note_on_c, 0, 70, 0
6, 32970, Note_on_c, 0, 69, 72
6, 32999, Note_on_c, 0, 69, 0
6, 32999, Note_on_c, 0, 55, 0
6, 33000, Note_on_c, 0, 70, 72
6, 33000, Note_on_c, 0, 63, 72
6, 33029, Note_on_c, 0, 70, 0
6, 33030, Note_on_c, 0, 72, 72
6, 33059, Note_on_c, 0, 72, 0
6, 33060, Note_on_c, 0, 69, 72
6, 33089, Note_on_c, 0, 69, 0
6, 33090, Note_on_c, 0, 70, 72
6, 33119, Note_on_c, 0, 70, 0
6, 33120, Note_on_c, 0, 72, 72
6, 33149, Note_on_c, 0, 72, 0
6, 33150, Note_on_c, 0, 74, 72
6, 33179, Note_on_c, 0, 74, 0
6, 33179, Note_on_c, 0, 63, 0
6, 33180, Note_on_c, 0, 60, 72
6, 33180, Note_on_c, 0, 72, 72
6, 33209, Note_on_c, 0, 72, 0
6, 33210, Note_on_c, 0, 70, 72
6, 33239, Note_on_c, 0, 70, 0
6, 33239, Note_on_c, 0, 60, 0
6, 33240, Note_on_c, 0, 65, 72
6, 33240, Note_on_c, 0, 72, 72
6, 33269, Note_on_c, 0, 72, 0
6, 33270, Note_on_c, 0, 74, 72
6, 33299, Note_on_c, 0, 74, 0
6, 33300, Note_on_c, 0, 70, 72
6, 33329, Note_on_c, 0, 70, 0
6, 33330, Note_on_c, 0, 72, 72
6, 33359, Note_on_c, 0, 72, 0
6, 33360, Note_on_c, 0, 74, 72
6, 33419, Note_on_c, 0, 74, 0
6, 33420, Note_on_c, 0, 75, 72
6, 33449, Note_on_c, 0, 75, 0
6, 33450, Note_on_c, 0, 74, 72
6, 33479, Note_on_c, 0, 74, 0
6, 33479, Note_on_c, 0, 65, 0
6, 33480, Note_on_c, 0, 63, 72
6, 33480, Note_on_c, 0, 72, 72
6, 33509, Note_on_c, 0, 72, 0
6, 33510, Note_on_c, 0, 70, 72
6, 33539, Note_on_c, 0, 70, 0
6, 33540, Note_on_c, 0, 69, 72
6, 33569, Note_on_c, 0, 69, 0
6, 33570, Note_on_c, 0, 67, 72
6, 33599, Note_on_c, 0, 67, 0
6, 33599, Note_on_c, 0, 63, 0
6, 33600, Note_on_c, 0, 66, 72
6, 33600, Note_on_c, 0, 62, 72
6, 33659, Note_on_c, 0, 62, 0
6, 33659, Note_on_c, 0, 66, 0
6, 33660, Note_on_c, 0, 66, 72
6, 33660, Note_on_c, 0, 69, 72
6, 33719, Note_on_c, 0, 69, 0
6, 33719, Note_on_c, 0, 66, 0
6, 33720, Note_on_c, 0, 74, 72
6, 33720, Note_on_c, 0, 67, 72
6, 33779, Note_on_c, 0, 67, 0
6, 33779, Note_on_c, 0, 74, 0
6, 33780, Note_on_c, 0, 72, 72
6, 33780, Note_on_c, 0, 69, 72
6, 33839, Note_on_c, 0, 69, 0
6, 33839, Note_on_c, 0, 72, 0
6, 33840, Note_on_c, 0, 70, 72
6, 33840, Note_on_c, 0, 62, 72
6, 33899, Note_on_c, 0, 62, 0
6, 33899, Note_on_c, 0, 70, 0
6, 33900, Note_on_c, 0, 71, 72
6, 33900, Note_on_c, 0, 68, 72
6, 33959, Note_on_c, 0, 68, 0
6, 33959, Note_on_c, 0, 71, 0
6, 33960, Note_on_c, 0, 72, 72
6, 33960, Note_on_c, 0, 67, 72
6, 34019, Note_on_c, 0, 72, 0
6, 34020, Note_on_c, 0, 74, 72
6, 34079, Note_on_c, 0, 74, 0
6, 34079, Note_on_c, 0, 67, 0
6, 34080, Note_on_c, 0, 75, 72
6, 34109, Note_on_c, 0, 75, 0
6, 34110, Note_on_c, 0, 74, 72
6, 34139, Note_on_c, 0, 74, 0
6, 34140, Note_on_c, 0, 72, 72
6, 34199, Note_on_c, 0, 72, 0
6, 34380, Note_on_c, 0, 62, 72
6, 34439, Note_on_c, 0, 62, 0
6, 34440, Note_on_c, 0, 62, 72
6, 34499, Note_on_c, 0, 62, 0
6, 34500, Note_on_c, 0, 62, 72
6, 34559, Note_on_c, 0, 62, 0
6, 34560, Note_on_c, 0, 63, 72
6, 34589, Note_on_c, 0, 63, 0
6, 34590, Note_on_c, 0, 65, 72
6, 34619, Note_on_c, 0, 65, 0
6, 34620, Note_on_c, 0, 63, 72
6, 34649, Note_on_c, 0, 63, 0
6, 34650, Note_on_c, 0, 62, 72
6, 34679, Note_on_c, 0, 62, 0
6, 34680, Note_on_c, 0, 63, 72
6, 34709, Note_on_c, 0, 63, 0
6, 34710, Note_on_c, 0, 65, 72
6, 34739, Note_on_c, 0, 65, 0
6, 34740, Note_on_c, 0, 62, 72
6, 34769, Note_on_c, 0, 62, 0
6, 34770, Note_on_c, 0, 63, 72
6, 34799, Note_on_c, 0, 63, 0
6, 34800, Note_on_c, 0, 65, 72
6, 34829, Note_on_c, 0, 65, 0
6, 34830, Note_on_c, 0, 67, 72
6, 34859, Note_on_c, 0, 67, 0
6, 34860, Note_on_c, 0, 65, 72
6, 34889, Note_on_c, 0, 65, 0
6, 34890, Note_on_c, 0, 63, 72
6, 34919, Note_on_c, 0, 63, 0
6, 34920, Note_on_c, 0, 65, 72
6, 34949, Note_on_c, 0, 65, 0
6, 34950, Note_on_c, 0, 67, 72
6, 34979, Note_on_c, 0, 67, 0
6, 34980, Note_on_c, 0, 63, 72
6, 35009, Note_on_c, 0, 63, 0
6, 35010, Note_on_c, 0, 65, 72
6, 35039, Note_on_c, 0, 65, 0
6, 35040, Note_on_c, 0, 67, 72
6, 35099, Note_on_c, 0, 67, 0
6, 35100, Note_on_c, 0, 68, 72
6, 35129, Note_on_c, 0, 68, 0
6, 35130, Note_on_c, 0, 67, 72
6, 35159, Note_on_c, 0, 67, 0
6, 35160, Note_on_c, 0, 65, 72
6, 35189, Note_on_c, 0, 65, 0
6, 35190, Note_on_c, 0, 63, 72
6, 35219, Note_on_c, 0, 63, 0
6, 35220, Note_on_c, 0, 62, 72
6, 35249, Note_on_c, 0, 62, 0
6, 35250, Note_on_c, 0, 60, 72
6, 35279, Note_on_c, 0, 60, 0
6, 35280, Note_on_c, 0, 59, 72
6, 35339, Note_on_c, 0, 59, 0
6, 35340, Note_on_c, 0, 60, 72
6, 35399, Note_on_c, 0, 60, 0
6, 35400, Note_on_c, 0, 67, 72
6, 35459, Note_on_c, 0, 67, 0
6, 35460, Note_on_c, 0, 65, 72
6, 35519, Note_on_c, 0, 65, 0
6, 35520, Note_on_c, 0, 63, 72
6, 35699, Note_on_c, 0, 63, 0
6, 35700, Note_on_c, 0, 62, 72
6, 35759, Note_on_c, 0, 62, 0
6, 35760, Note_on_c, 0, 60, 72
6, 35760, Note_on_c, 0, 77, 72
6, 35819, Note_on_c, 0, 60, 0
6, 35820, Note_on_c, 0, 65, 72
6, 35879, Note_on_c, 0, 65, 0
6, 35880, Note_on_c, 0, 67, 72
6, 35939, Note_on_c, 0, 67, 0
6, 35939, Note_on_c, 0, 77, 0
6, 35940, Note_on_c, 0, 69, 72
6, 35940, Note_on_c, 0, 77, 72
6, 35999, Note_on_c, 0, 77, 0
6, 35999, Note_on_c, 0, 69, 0
6, 36000, Note_on_c, 0, 74, 72
6, 36000, Note_on_c, 0, 70, 72
6, 36059, Note_on_c, 0, 70, 0
6, 36060, Note_on_c, 0, 58, 72
6, 36119, Note_on_c, 0, 58, 0
6, 36119, Note_on_c, 0, 74, 0
6, 36120, Note_on_c, 0, 63, 72
6, 36120, Note_on_c, 0, 79, 72
6, 36209, Note_on_c, 0, 63, 0
6, 36210, Note_on_c, 0, 62, 72
6, 36239, Note_on_c, 0, 62, 0
6, 36239, Note_on_c, 0, 79, 0
6, 36240, Note_on_c, 0, 60, 72
6, 36240, Note_on_c, 0, 69, 72
6, 36299, Note_on_c, 0, 60, 0
6, 36300, Note_on_c, 0, 60, 72
6, 36359, Note_on_c, 0, 60, 0
6, 36360, Note_on_c, 0, 65, 72
6, 36419, Note_on_c, 0, 69, 0
6, 36420, Note_on_c, 0, 69, 72
6, 36479, Note_on_c, 0, 69, 0
6, 36480, Note_on_c, 0, 70, 72
6, 36539, Note_on_c, 0, 65, 0
6, 36540, Note_on_c, 0, 63, 72
6, 36569, Note_on_c, 0, 63, 0
6, 36570, Note_on_c, 0, 62, 72
6, 36599, Note_on_c, 0, 62, 0
6, 36599, Note_on_c, 0, 70, 0
6, 36600, Note_on_c, 0, 63, 72
6, 36629, Note_on_c, 0, 63, 0
6, 36630, Note_on_c, 0, 65, 72
6, 36659, Note_on_c, 0, 65, 0
6, 36660, Note_on_c, 0, 70, 72
6, 36660, Note_on_c, 0, 62, 72
6, 36689, Note_on_c, 0, 62, 0
6, 36690, Note_on_c, 0, 63, 72
6, 36719, Note_on_c, 0, 63, 0
6, 36719, Note_on_c, 0, 70, 0
6, 36720, Note_on_c, 0, 72, 72
6, 36720, Note_on_c, 0, 60, 72
6, 36779, Note_on_c, 0, 60, 0
6, 36780, Note_on_c, 0, 62, 72
6, 36809, Note_on_c, 0, 62, 0
6, 36810, Note_on_c, 0, 63, 72
6, 36839, Note_on_c, 0, 63, 0
6, 36840, Note_on_c, 0, 65, 72
6, 36899, Note_on_c, 0, 72, 0
6, 36900, Note_on_c, 0, 70, 72
6, 36929, Note_on_c, 0, 70, 0
6, 36930, Note_on_c, 0, 72, 72
6, 36959, Note_on_c, 0, 72, 0
6, 36960, Note_on_c, 0, 74, 72
6, 37019, Note_on_c, 0, 74, 0
6, 37019, Note_on_c, 0, 65, 0
6, 37020, Note_on_c, 0, 72, 72
6, 37020, Note_on_c, 0, 58, 72
6, 37049, Note_on_c, 0, 72, 0
6, 37050, Note_on_c, 0, 74, 72
6, 37079, Note_on_c, 0, 74, 0
6, 37080, Note_on_c, 0, 75, 72
6, 37139, Note_on_c, 0, 75, 0
6, 37139, Note_on_c, 0, 58, 0
6, 37140, Note_on_c, 0, 74, 72
6, 37140, Note_on_c, 0, 67, 72
6, 37169, Note_on_c, 0, 74, 0
6, 37170, Note_on_c, 0, 75, 72
6, 37199, Note_on_c, 0, 75, 0
6, 37199, Note_on_c, 0, 67, 0
6, 37200, Note_on_c, 0, 77, 72
6, 37200, Note_on_c, 0, 65, 72
6, 37259, Note_on_c, 0, 77, 0
6, 37260, Note_on_c, 0, 72, 72
6, 37319, Note_on_c, 0, 72, 0
6, 37319, Note_on_c, 0, 65, 0
6, 37320, Note_on_c, 0, 77, 72
6, 37379, Note_on_c, 0, 77, 0
6, 37380, Note_on_c, 0, 76, 72
6, 37439, Note_on_c, 0, 76, 0
6, 37440, Note_on_c, 0, 74, 72
6, 37499, Note_on_c, 0, 74, 0
6, 37500, Note_on_c, 0, 65, 72
6, 37559, Note_on_c, 0, 65, 0
6, 37560, Note_on_c, 0, 70, 72
6, 37799, Note_on_c, 0, 70, 0
6, 37800, Note_on_c, 0, 69, 72
6, 37919, Note_on_c, 0, 69, 0
6, 37920, Note_on_c, 0, 70, 72
6, 37979, Note_on_c, 0, 70, 0
6, 37980, Note_on_c, 0, 70, 72
6, 38039, Note_on_c, 0, 70, 0
6, 38040, Note_on_c, 0, 70, 72
6, 38160, Note_on_c, 0, 72, 72
6, 38279, Note_on_c, 0, 70, 0
6, 38280, Note_on_c, 0, 68, 72
6, 38339, Note_on_c, 0, 68, 0
6, 38339, Note_on_c, 0, 72, 0
6, 38340, Note_on_c, 0, 72, 72
6, 38340, Note_on_c, 0, 67, 72
6, 38399, Note_on_c, 0, 67, 0
6, 38399, Note_on_c, 0, 72, 0
6, 38400, Note_on_c, 0, 68, 72
6, 38519, Note_on_c, 0, 68, 0
6, 38520, Note_on_c, 0, 73, 72
6, 38639, Note_on_c, 0, 73, 0
6, 38640, Note_on_c, 0, 64, 72
6, 38819, Note_on_c, 0, 64, 0
6, 38820, Note_on_c, 0, 64, 72
6, 38879, Note_on_c, 0, 64, 0
6, 38880, Note_on_c, 0, 65, 72
6, 38940, Note_on_c, 0, 65, 72
6, 38999, Note_on_c, 0, 65, 0
6, 38999, Note_on_c, 0, 65, 0
6, 39000, Note_on_c, 0, 70, 72
6, 39059, Note_on_c, 0, 70, 0
6, 39060, Note_on_c, 0, 68, 72
6, 39119, Note_on_c, 0, 68, 0
6, 39120, Note_on_c, 0, 67, 72
6, 39179, Note_on_c, 0, 67, 0
6, 39180, Note_on_c, 0, 60, 72
6, 39239, Note_on_c, 0, 60, 0
6, 39240, Note_on_c, 0, 72, 72
6, 39299, Note_on_c, 0, 72, 0
6, 39300, Note_on_c, 0, 70, 72
6, 39359, Note_on_c, 0, 70, 0
6, 39360, Note_on_c, 0, 68, 72
6, 39479, Note_on_c, 0, 68, 0
6, 39660, Note_on_c, 0, 62, 72
6, 39719, Note_on_c, 0, 62, 0
6, 39720, Note_on_c, 0, 62, 72
6, 39779, Note_on_c, 0, 62, 0
6, 39780, Note_on_c, 0, 62, 72
6, 39839, Note_on_c, 0, 62, 0
6, 39840, Note_on_c, 0, 63, 72
6, 39869, Note_on_c, 0, 63, 0
6, 39870, Note_on_c, 0, 65, 72
6, 39899, Note_on_c, 0, 65, 0
6, 39900, Note_on_c, 0, 63, 72
6, 39929, Note_on_c, 0, 63, 0
6, 39930, Note_on_c, 0, 62, 72
6, 39959, Note_on_c, 0, 62, 0
6, 39960, Note_on_c, 0, 64, 72
6, 39989, Note_on_c, 0, 64, 0
6, 39990, Note_on_c, 0, 65, 72
6, 40019, Note_on_c, 0, 65, 0
6, 40020, Note_on_c, 0, 62, 72
6, 40049, Note_on_c, 0, 62, 0
6, 40050, Note_on_c, 0, 64, 72
6, 40079, Note_on_c, 0, 64, 0
6, 40080, Note_on_c, 0, 65, 72
6, 40109, Note_on_c, 0, 65, 0
6, 40110, Note_on_c, 0, 67, 72
6, 40139, Note_on_c, 0, 67, 0
6, 40140, Note_on_c, 0, 65, 72
6, 40140, Note_on_c, 0, 69, 72
6, 40169, Note_on_c, 0, 65, 0
6, 40170, Note_on_c, 0, 64, 72
6, 40199, Note_on_c, 0, 64, 0
6, 40199, Note_on_c, 0, 69, 0
6, 40200, Note_on_c, 0, 66, 72
6, 40200, Note_on_c, 0, 69, 72
6, 40229, Note_on_c, 0, 66, 0
6, 40230, Note_on_c, 0, 67, 72
6, 40259, Note_on_c, 0, 67, 0
6, 40259, Note_on_c, 0, 69, 0
6, 40260, Note_on_c, 0, 64, 72
6, 40260, Note_on_c, 0, 69, 72
6, 40289, Note_on_c, 0, 64, 0
6, 40290, Note_on_c, 0, 66, 72
6, 40319, Note_on_c, 0, 66, 0
6, 40319, Note_on_c, 0, 69, 0
6, 40320, Note_on_c, 0, 70, 72
6, 40320, Note_on_c, 0, 67, 72
6, 40349, Note_on_c, 0, 70, 0
6, 40350, Note_on_c, 0, 72, 72
6, 40379, Note_on_c, 0, 72, 0
6, 40379, Note_on_c, 0, 67, 0
6, 40380, Note_on_c, 0, 70, 72
6, 40380, Note_on_c, 0, 62, 72
6, 40409, Note_on_c, 0, 70, 0
6, 40410, Note_on_c, 0, 69, 72
6, 40439, Note_on_c, 0, 69, 0
6, 40439, Note_on_c, 0, 62, 0
6, 40440, Note_on_c, 0, 71, 72
6, 40440, Note_on_c, 0, 67, 72
6, 40469, Note_on_c, 0, 71, 0
6, 40470, Note_on_c, 0, 72, 72
6, 40499, Note_on_c, 0, 72, 0
6, 40499, Note_on_c, 0, 67, 0
6, 40500, Note_on_c, 0, 69, 72
6, 40500, Note_on_c, 0, 65, 72
6, 40529, Note_on_c, 0, 69, 0
6, 40530, Note_on_c, 0, 71, 72
6, 40559, Note_on_c, 0, 71, 0
6, 40559, Note_on_c, 0, 65, 0
6, 40560, Note_on_c, 0, 72, 72
6, 40560, Note_on_c, 0, 64, 72
6, 40589, Note_on_c, 0, 72, 0
6, 40590, Note_on_c, 0, 74, 72
6, 40619, Note_on_c, 0, 74, 0
6, 40619, Note_on_c, 0, 64, 0
6, 40620, Note_on_c, 0, 72, 72
6, 40620, Note_on_c, 0, 57, 72
6, 40649, Note_on_c, 0, 72, 0
6, 40650, Note_on_c, 0, 71, 72
6, 40679, Note_on_c, 0, 71, 0
6, 40679, Note_on_c, 0, 57, 0
6, 40680, Note_on_c, 0, 73, 72
6, 40680, Note_on_c, 0, 69, 72
6, 40709, Note_on_c, 0, 73, 0
6, 40710, Note_on_c, 0, 74, 72
6, 40739, Note_on_c, 0, 74, 0
6, 40739, Note_on_c, 0, 69, 0
6, 40740, Note_on_c, 0, 67, 72
6, 40740, Note_on_c, 0, 71, 72
6, 40769, Note_on_c, 0, 71, 0
6, 40770, Note_on_c, 0, 72, 72
6, 40799, Note_on_c, 0, 72, 0
6, 40799, Note_on_c, 0, 67, 0
6, 40800, Note_on_c, 0, 74, 72
6, 40800, Note_on_c, 0, 65, 72
6, 40859, Note_on_c, 0, 74, 0
6, 40860, Note_on_c, 0, 69, 72
6, 40919, Note_on_c, 0, 69, 0
6, 40919, Note_on_c, 0, 65, 0
6, 40920, Note_on_c, 0, 74, 72
6, 40920, Note_on_c, 0, 69, 72
6, 40979, Note_on_c, 0, 74, 0
6, 40980, Note_on_c, 0, 72, 72
6, 41009, Note_on_c, 0, 69, 0
6, 41010, Note_on_c, 0, 69, 72
6, 41039, Note_on_c, 0, 69, 0
6, 41039, Note_on_c, 0, 72, 0
6, 41040, Note_on_c, 0, 71, 72
6, 41040, Note_on_c, 0, 62, 72
6, 41099, Note_on_c, 0, 62, 0
6, 41099, Note_on_c, 0, 71, 0
6, 41100, Note_on_c, 0, 71, 72
6, 41100, Note_on_c, 0, 64, 72
6, 41159, Note_on_c, 0, 64, 0
6, 41159, Note_on_c, 0, 71, 0
6, 41160, Note_on_c, 0, 76, 72
6, 41160, Note_on_c, 0, 71, 72
6, 41219, Note_on_c, 0, 76, 0
6, 41220, Note_on_c, 0, 74, 72
6, 41279, Note_on_c, 0, 74, 0
6, 41279, Note_on_c, 0, 71, 0
6, 41280, Note_on_c, 0, 73, 72
6, 41280, Note_on_c, 0, 64, 72
6, 41339, Note_on_c, 0, 64, 0
6, 41340, Note_on_c, 0, 61, 72
6, 41399, Note_on_c, 0, 61, 0
6, 41399, Note_on_c, 0, 73, 0
6, 41400, Note_on_c, 0, 62, 72
6, 41459, Note_on_c, 0, 62, 0
6, 41460, Note_on_c, 0, 64, 72
6, 41519, Note_on_c, 0, 64, 0
6, 41520, Note_on_c, 0, 65, 72
6, 41579, Note_on_c, 0, 65, 0
6, 41580, Note_on_c, 0, 64, 72
6, 41609, Note_on_c, 0, 64, 0
6, 41610, Note_on_c, 0, 65, 72
6, 41639, Note_on_c, 0, 65, 0
6, 41640, Note_on_c, 0, 67, 72
6, 41699, Note_on_c, 0, 67, 0
6, 41700, Note_on_c, 0, 65, 72
6, 41729, Note_on_c, 0, 65, 0
6, 41730, Note_on_c, 0, 67, 72
6, 41759, Note_on_c, 0, 67, 0
6, 41760, Note_on_c, 0, 69, 72
6, 41819, Note_on_c, 0, 69, 0
6, 41820, Note_on_c, 0, 70, 72
6, 41820, Note_on_c, 0, 76, 72
6, 41879, Note_on_c, 0, 76, 0
6, 41879, Note_on_c, 0, 70, 0
6, 41880, Note_on_c, 0, 69, 72
6, 41880, Note_on_c, 0, 76, 72
6, 41939, Note_on_c, 0, 76, 0
6, 41939, Note_on_c, 0, 69, 0
6, 41940, Note_on_c, 0, 67, 72
6, 41940, Note_on_c, 0, 76, 72
6, 41999, Note_on_c, 0, 76, 0
6, 41999, Note_on_c, 0, 67, 0
6, 42000, Note_on_c, 0, 65, 72
6, 42000, Note_on_c, 0, 77, 72
6, 42029, Note_on_c, 0, 77, 0
6, 42030, Note_on_c, 0, 79, 72
6, 42059, Note_on_c, 0, 79, 0
6, 42059, Note_on_c, 0, 65, 0
6, 42060, Note_on_c, 0, 69, 72
6, 42060, Note_on_c, 0, 77, 72
6, 42089, Note_on_c, 0, 77, 0
6, 42090, Note_on_c, 0, 76, 72
6, 42119, Note_on_c, 0, 76, 0
6, 42119, Note_on_c, 0, 69, 0
6, 42120, Note_on_c, 0, 77, 72
6, 42120, Note_on_c, 0, 74, 72
6, 42149, Note_on_c, 0, 77, 0
6, 42150, Note_on_c, 0, 79, 72
6, 42179, Note_on_c, 0, 79, 0
6, 42180, Note_on_c, 0, 76, 72
6, 42209, Note_on_c, 0, 76, 0
6, 42210, Note_on_c, 0, 77, 72
6, 42239, Note_on_c, 0, 77, 0
6, 42240, Note_on_c, 0, 79, 72
6, 42359, Note_on_c, 0, 74, 0
6, 42360, Note_on_c, 0, 73, 72
6, 42419, Note_on_c, 0, 79, 0
6, 42420, Note_on_c, 0, 77, 72
6, 42449, Note_on_c, 0, 77, 0
6, 42450, Note_on_c, 0, 76, 72
6, 42479, Note_on_c, 0, 76, 0
6, 42479, Note_on_c, 0, 73, 0
6, 42480, Note_on_c, 0, 74, 72
6, 42599, Note_on_c, 0, 74, 0
6, 42600, Note_on_c, 0, 79, 72
6, 42629, Note_on_c, 0, 79, 0
6, 42630, Note_on_c, 0, 77, 72
6, 42659, Note_on_c, 0, 77, 0
6, 42660, Note_on_c, 0, 76, 72
6, 42689, Note_on_c, 0, 76, 0
6, 42690, Note_on_c, 0, 74, 72
6, 42719, Note_on_c, 0, 74, 0
6, 42720, Note_on_c, 0, 73, 72
6, 42779, Note_on_c, 0, 73, 0
6, 42780, Note_on_c, 0, 74, 72
6, 42839, Note_on_c, 0, 74, 0
6, 42840, Note_on_c, 0, 76, 72
6, 42840, Note_on_c, 0, 70, 72
6, 43019, Note_on_c, 0, 70, 0
6, 43019, Note_on_c, 0, 76, 0
6, 43020, Note_on_c, 0, 79, 72
6, 43020, Note_on_c, 0, 70, 72
6, 43079, Note_on_c, 0, 70, 0
6, 43079, Note_on_c, 0, 79, 0
6, 43080, Note_on_c, 0, 77, 72
6, 43080, Note_on_c, 0, 69, 72
6, 43139, Note_on_c, 0, 69, 0
6, 43139, Note_on_c, 0, 77, 0
6, 43140, Note_on_c, 0, 76, 72
6, 43140, Note_on_c, 0, 69, 72
6, 43199, Note_on_c, 0, 69, 0
6, 43199, Note_on_c, 0, 76, 0
6, 43200, Note_on_c, 0, 74, 72
6, 43200, Note_on_c, 0, 69, 72
6, 43319, Note_on_c, 0, 69, 0
6, 43320, Note_on_c, 0, 68, 72
6, 43379, Note_on_c, 0, 74, 0
6, 43380, Note_on_c, 0, 74, 72
6, 43439, Note_on_c, 0, 74, 0
6, 43439, Note_on_c, 0, 68, 0
6, 43440, Note_on_c, 0, 73, 72
6, 43440, Note_on_c, 0, 69, 72
6, 43499, Note_on_c, 0, 69, 0
6, 43499, Note_on_c, 0, 73, 0
6, 43500, Note_on_c, 0, 69, 72
6, 43500, Note_on_c, 0, 73, 72
6, 43559, Note_on_c, 0, 73, 0
6, 43560, Note_on_c, 0, 74, 72
6, 43619, Note_on_c, 0, 74, 0
6, 43619, Note_on_c, 0, 69, 0
6, 43620, Note_on_c, 0, 76, 72
6, 43620, Note_on_c, 0, 69, 72
6, 43679, Note_on_c, 0, 69, 0
6, 43679, Note_on_c, 0, 76, 0
6, 43680, Note_on_c, 0, 69, 72
6, 43680, Note_on_c, 0, 65, 72
6, 43799, Note_on_c, 0, 65, 0
6, 43799, Note_on_c, 0, 69, 0
6, 43800, Note_on_c, 0, 70, 72
6, 43919, Note_on_c, 0, 70, 0
6, 43920, Note_on_c, 0, 61, 72
6, 44099, Note_on_c, 0, 61, 0
6, 44100, Note_on_c, 0, 61, 72
6, 44159, Note_on_c, 0, 61, 0
6, 44160, Note_on_c, 0, 62, 72
6, 44279, Note_on_c, 0, 62, 0
6, 44340, Note_on_c, 0, 62, 72
6, 44399, Note_on_c, 0, 62, 0
6, 44400, Note_on_c, 0, 64, 72
6, 44460, Note_on_c, 0, 69, 72
6, 44519, Note_on_c, 0, 69, 0
6, 44520, Note_on_c, 0, 69, 72
6, 44579, Note_on_c, 0, 69, 0
6, 44579, Note_on_c, 0, 64, 0
6, 44580, Note_on_c, 0, 69, 72
6, 44580, Note_on_c, 0, 62, 72
6, 44609, Note_on_c, 0, 62, 0
6, 44610, Note_on_c, 0, 64, 72
6, 44639, Note_on_c, 0, 64, 0
6, 44639, Note_on_c, 0, 69, 0
6, 44640, Note_on_c, 0, 65, 72
6, 44640, Note_on_c, 0, 70, 72
6, 44669, Note_on_c, 0, 70, 0
6, 44670, Note_on_c, 0, 72, 72
6, 44699, Note_on_c, 0, 72, 0
6, 44700, Note_on_c, 0, 70, 72
6, 44729, Note_on_c, 0, 70, 0
6, 44730, Note_on_c, 0, 69, 72
6, 44759, Note_on_c, 0, 69, 0
6, 44759, Note_on_c, 0, 65, 0
6, 44760, Note_on_c, 0, 71, 72
6, 44789, Note_on_c, 0, 71, 0
6, 44790, Note_on_c, 0, 72, 72
6, 44819, Note_on_c, 0, 72, 0
6, 44820, Note_on_c, 0, 69, 72
6, 44849, Note_on_c, 0, 69, 0
6, 44850, Note_on_c, 0, 71, 72
6, 44879, Note_on_c, 0, 71, 0
6, 44880, Note_on_c, 0, 72, 72
6, 44909, Note_on_c, 0, 72, 0
6, 44910, Note_on_c, 0, 74, 72
6, 44939, Note_on_c, 0, 74, 0
6, 44940, Note_on_c, 0, 72, 72
6, 44940, Note_on_c, 0, 64, 72
6, 44969, Note_on_c, 0, 72, 0
6, 44970, Note_on_c, 0, 71, 72
6, 44999, Note_on_c, 0, 71, 0
6, 44999, Note_on_c, 0, 64, 0
6, 45000, Note_on_c, 0, 73, 72
6, 45000, Note_on_c, 0, 64, 72
6, 45029, Note_on_c, 0, 73, 0
6, 45030, Note_on_c, 0, 74, 72
6, 45059, Note_on_c, 0, 74, 0
6, 45059, Note_on_c, 0, 64, 0
6, 45060, Note_on_c, 0, 71, 72
6, 45060, Note_on_c, 0, 64, 72
6, 45089, Note_on_c, 0, 71, 0
6, 45090, Note_on_c, 0, 73, 72
6, 45119, Note_on_c, 0, 73, 0
6, 45119, Note_on_c, 0, 64, 0
6, 45120, Note_on_c, 0, 74, 72
6, 45120, Note_on_c, 0, 65, 72
6, 45149, Note_on_c, 0, 65, 0
6, 45150, Note_on_c, 0, 67, 72
6, 45179, Note_on_c, 0, 67, 0
6, 45180, Note_on_c, 0, 65, 72
6, 45209, Note_on_c, 0, 65, 0
6, 45210, Note_on_c, 0, 64, 72
6, 45239, Note_on_c, 0, 64, 0
6, 45239, Note_on_c, 0, 74, 0
6, 45240, Note_on_c, 0, 66, 72
6, 45269, Note_on_c, 0, 66, 0
6, 45270, Note_on_c, 0, 67, 72
6, 45299, Note_on_c, 0, 67, 0
6, 45300, Note_on_c, 0, 64, 72
6, 45329, Note_on_c, 0, 64, 0
6, 45330, Note_on_c, 0, 66, 72
6, 45359, Note_on_c, 0, 66, 0
6, 45360, Note_on_c, 0, 67, 72
6, 45389, Note_on_c, 0, 67, 0
6, 45390, Note_on_c, 0, 69, 72
6, 45419, Note_on_c, 0, 69, 0
6, 45420, Note_on_c, 0, 67, 72
6, 45420, Note_on_c, 0, 76, 72
6, 45449, Note_on_c, 0, 67, 0
6, 45450, Note_on_c, 0, 66, 72
6, 45479, Note_on_c, 0, 66, 0
6, 45479, Note_on_c, 0, 76, 0
6, 45480, Note_on_c, 0, 68, 72
6, 45480, Note_on_c, 0, 76, 72
6, 45509, Note_on_c, 0, 68, 0
6, 45510, Note_on_c, 0, 69, 72
6, 45539, Note_on_c, 0, 69, 0
6, 45539, Note_on_c, 0, 76, 0
6, 45540, Note_on_c, 0, 65, 72
6, 45540, Note_on_c, 0, 76, 72
6, 45569, Note_on_c, 0, 65, 0
6, 45570, Note_on_c, 0, 68, 72
6, 45599, Note_on_c, 0, 68, 0
6, 45599, Note_on_c, 0, 76, 0
6, 45600, Note_on_c, 0, 77, 72
6, 45600, Note_on_c, 0, 69, 72
6, 45629, Note_on_c, 0, 77, 0
6, 45630, Note_on_c, 0, 79, 72
6, 45659, Note_on_c, 0, 79, 0
6, 45660, Note_on_c, 0, 77, 72
6, 45689, Note_on_c, 0, 77, 0
6, 45690, Note_on_c, 0, 76, 72
6, 45719, Note_on_c, 0, 76, 0
6, 45719, Note_on_c, 0, 69, 0
6, 45720, Note_on_c, 0, 78, 72
6, 45720, Note_on_c, 0, 69, 72
6, 45749, Note_on_c, 0, 78, 0
6, 45750, Note_on_c, 0, 79, 72
6, 45779, Note_on_c, 0, 79, 0
6, 45780, Note_on_c, 0, 76, 72
6, 45809, Note_on_c, 0, 76, 0
6, 45809, Note_on_c, 0, 69, 0
6, 45810, Note_on_c, 0, 77, 72
6, 45810, Note_on_c, 0, 69, 72
6, 45839, Note_on_c, 0, 69, 0
6, 45839, Note_on_c, 0, 77, 0
6, 45840, Note_on_c, 0, 79, 72
6, 45840, Note_on_c, 0, 67, 72
6, 45899, Note_on_c, 0, 79, 0
6, 45900, Note_on_c, 0, 74, 72
6, 45959, Note_on_c, 0, 74, 0
6, 45959, Note_on_c, 0, 67, 0
6, 45960, Note_on_c, 0, 71, 72
6, 46049, Note_on_c, 0, 71, 0
6, 46050, Note_on_c, 0, 71, 72
6, 46079, Note_on_c, 0, 71, 0
6, 46080, Note_on_c, 0, 76, 72
6, 46080, Note_on_c, 0, 69, 72
6, 46139, Note_on_c, 0, 69, 0
6, 46140, Note_on_c, 0, 67, 72
6, 46199, Note_on_c, 0, 67, 0
6, 46199, Note_on_c, 0, 76, 0
6, 46200, Note_on_c, 0, 65, 72
6, 46200, Note_on_c, 0, 74, 72
6, 46259, Note_on_c, 0, 74, 0
6, 46259, Note_on_c, 0, 65, 0
6, 46260, Note_on_c, 0, 70, 72
6, 46260, Note_on_c, 0, 74, 72
6, 46319, Note_on_c, 0, 74, 0
6, 46319, Note_on_c, 0, 70, 0
6, 46320, Note_on_c, 0, 74, 72
6, 46320, Note_on_c, 0, 69, 72
6, 46439, Note_on_c, 0, 74, 0
6, 46440, Note_on_c, 0, 73, 72
6, 46499, Note_on_c, 0, 69, 0
6, 46500, Note_on_c, 0, 69, 72
6, 46559, Note_on_c, 0, 69, 0
6, 46559, Note_on_c, 0, 73, 0
6, 46560, Note_on_c, 0, 74, 72
6, 46560, Note_on_c, 0, 71, 72
6, 46799, Note_on_c, 0, 71, 0
6, 46799, Note_on_c, 0, 74, 0
6, 46920, Note_on_c, 0, 74, 72
6, 46920, Note_on_c, 0, 65, 72
6, 47009, Note_on_c, 0, 65, 0
6, 47009, Note_on_c, 0, 74, 0
6, 47010, Note_on_c, 0, 74, 72
6, 47010, Note_on_c, 0, 65, 72
6, 47039, Note_on_c, 0, 65, 0
6, 47039, Note_on_c, 0, 74, 0
6, 47040, Note_on_c, 0, 73, 72
6, 47040, Note_on_c, 0, 64, 72
6, 47159, Note_on_c, 0, 64, 0
6, 47159, Note_on_c, 0, 73, 0
6, 47160, Note_on_c, 0, 74, 72
6, 47160, Note_on_c, 0, 65, 72
6, 47399, Note_on_c, 0, 65, 0
6, 47399, Note_on_c, 0, 74, 0
6, 47400, Note_on_c, 0, 73, 72
6, 47400, Note_on_c, 0, 64, 72
6, 47519, Note_on_c, 0, 64, 0
6, 47519, Note_on_c, 0, 73, 0
6, 47520, Note_on_c, 0, 74, 72
6, 47520, Note_on_c, 0, 62, 72
6, 47999, Note_on_c, 0, 62, 0
6, 47999, Note_on_c, 0, 74, 0
6, 47999, End_track
7, 0, Start_track
7, 0, Title_t, "Bassoon"
7, 0, Program_c, 1, 70
7, 0, Control_c, 1, 7, 96
7, 0, Control_c, 1, 10, 65
7, 0, Control_c, 1, 11, 127
7, 120, Note_on_c, 1, 62, 48
7, 359, Note_on_c, 1, 62, 0
7, 360, Note_on_c, 1, 61, 48
7, 479, Note_on_c, 1, 61, 0
7, 480, Note_on_c, 1, 62, 48
7, 599, Note_on_c, 1, 62, 0
7, 600, Note_on_c, 1, 64, 48
7, 719, Note_on_c, 1, 64, 0
7, 720, Note_on_c, 1, 65, 48
7, 959, Note_on_c, 1, 65, 0
7, 960, Note_on_c, 1, 64, 48
7, 1319, Note_on_c, 1, 64, 0
7, 1320, Note_on_c, 1, 66, 48
7, 1439, Note_on_c, 1, 66, 0
7, 1440, Note_on_c, 1, 67, 48
7, 1559, Note_on_c, 1, 67, 0
7, 1560, Note_on_c, 1, 65, 48
7, 1560, Note_on_c, 1, 57, 48
7, 1619, Note_on_c, 1, 65, 0
7, 1620, Note_on_c, 1, 64, 48
7, 1679, Note_on_c, 1, 64, 0
7, 1680, Note_on_c, 1, 65, 48
7, 1799, Note_on_c, 1, 65, 0
7, 1799, Note_on_c, 1, 57, 0
7, 1800, Note_on_c, 1, 56, 48
7, 1800, Note_on_c, 1, 59, 48
7, 1859, Note_on_c, 1, 59, 0
7, 1860, Note_on_c, 1, 64, 48
7, 1919, Note_on_c, 1, 56, 0
7, 1920, Note_on_c, 1, 57, 48
7, 1979, Note_on_c, 1, 64, 0
7, 1980, Note_on_c, 1, 62, 48
7, 2009, Note_on_c, 1, 62, 0
7, 2010, Note_on_c, 1, 60, 48
7, 2039, Note_on_c, 1, 60, 0
7, 2039, Note_on_c, 1, 57, 0
7, 2040, Note_on_c, 1, 59, 48
7, 2040, Note_on_c, 1, 62, 48
7, 2159, Note_on_c, 1, 62, 0
7, 2159, Note_on_c, 1, 59, 0
7, 2160, Note_on_c, 1, 60, 48
7, 2160, Note_on_c, 1, 64, 48
7, 2399, Note_on_c, 1, 60, 0
7, 2400, Note_on_c, 1, 57, 48
7, 2519, Note_on_c, 1, 57, 0
7, 2519, Note_on_c, 1, 64, 0
7, 2520, Note_on_c, 1, 50, 48
7, 2520, Note_on_c, 1, 62, 48
7, 2639, Note_on_c, 1, 50, 0
7, 2640, Note_on_c, 1, 52, 48
7, 2699, Note_on_c, 1, 62, 0
7, 2700, Note_on_c, 1, 60, 48
7, 2759, Note_on_c, 1, 60, 0
7, 2760, Note_on_c, 1, 59, 48
7, 2879, Note_on_c, 1, 59, 0
7, 2879, Note_on_c, 1, 52, 0
7, 2880, Note_on_c, 1, 57, 48
7, 2999, Note_on_c, 1, 57, 0
7, 3480, Note_on_c, 1, 50, 72
7, 3719, Note_on_c, 1, 50, 0
7, 3720, Note_on_c, 1, 57, 72
7, 3720, Note_on_c, 1, 49, 72
7, 3839, Note_on_c, 1, 49, 0
7, 3840, Note_on_c, 1, 50, 72
7, 3959, Note_on_c, 1, 50, 0
7, 3959, Note_on_c, 1, 57, 0
7, 3960, Note_on_c, 1, 56, 72
7, 3960, Note_on_c, 1, 52, 72
7, 4079, Note_on_c, 1, 52, 0
7, 4079, Note_on_c, 1, 56, 0
7, 4080, Note_on_c, 1, 57, 72
7, 4080, Note_on_c, 1, 53, 72
7, 4199, Note_on_c, 1, 53, 0
7, 4199, Note_on_c, 1, 57, 0
7, 4200, Note_on_c, 1, 55, 72
7, 4200, Note_on_c, 1, 52, 72
7, 4319, Note_on_c, 1, 52, 0
7, 4319, Note_on_c, 1, 55, 0
7, 4320, Note_on_c, 1, 53, 72
7, 4320, Note_on_c, 1, 50, 72
7, 4439, Note_on_c, 1, 50, 0
7, 4439, Note_on_c, 1, 53, 0
7, 4440, Note_on_c, 1, 62, 72
7, 4440, Note_on_c, 1, 52, 72
7, 4559, Note_on_c, 1, 52, 0
7, 4559, Note_on_c, 1, 62, 0
7, 4560, Note_on_c, 1, 60, 72
7, 4560, Note_on_c, 1, 53, 72
7, 4619, Note_on_c, 1, 53, 0
7, 4620, Note_on_c, 1, 52, 72
7, 4679, Note_on_c, 1, 52, 0
7, 4679, Note_on_c, 1, 60, 0
7, 4680, Note_on_c, 1, 62, 72
7, 4680, Note_on_c, 1, 50, 72
7, 4739, Note_on_c, 1, 50, 0
7, 4740, Note_on_c, 1, 55, 72
7, 4799, Note_on_c, 1, 55, 0
7, 4799, Note_on_c, 1, 62, 0
7, 4800, Note_on_c, 1, 64, 72
7, 4800, Note_on_c, 1, 48, 72
7, 4859, Note_on_c, 1, 64, 0
7, 4860, Note_on_c, 1, 57, 72
7, 4919, Note_on_c, 1, 57, 0
7, 4919, Note_on_c, 1, 48, 0
7, 4920, Note_on_c, 1, 62, 72
7, 4920, Note_on_c, 1, 50, 72
7, 4979, Note_on_c, 1, 62, 0
7, 4980, Note_on_c, 1, 60, 72
7, 5039, Note_on_c, 1, 60, 0
7, 5039, Note_on_c, 1, 50, 0
7, 5040, Note_on_c, 1, 55, 72
7, 5040, Note_on_c, 1, 58, 72
7, 5159, Note_on_c, 1, 55, 0
7, 5160, Note_on_c, 1, 48, 72
7, 5219, Note_on_c, 1, 58, 0
7, 5220, Note_on_c, 1, 60, 72
7, 5249, Note_on_c, 1, 60, 0
7, 5250, Note_on_c, 1, 58, 72
7, 5279, Note_on_c, 1, 58, 0
7, 5279, Note_on_c, 1, 48, 0
7, 5280, Note_on_c, 1, 57, 72
7, 5280, Note_on_c, 1, 53, 72
7, 5399, Note_on_c, 1, 53, 0
7, 5399, Note_on_c, 1, 57, 0
7, 5400, Note_on_c, 1, 65, 72
7, 5400, Note_on_c, 1, 58, 72
7, 5459, Note_on_c, 1, 58, 0
7, 5460, Note_on_c, 1, 57, 72
7, 5519, Note_on_c, 1, 57, 0
7, 5519, Note_on_c, 1, 65, 0
7, 5520, Note_on_c, 1, 55, 72
7, 5520, Note_on_c, 1, 64, 72
7, 5579, Note_on_c, 1, 55, 0
7, 5580, Note_on_c, 1, 53, 72
7, 5609, Note_on_c, 1, 53, 0
7, 5610, Note_on_c, 1, 52, 72
7, 5639, Note_on_c, 1, 52, 0
7, 5640, Note_on_c, 1, 57, 72
7, 5699, Note_on_c, 1, 57, 0
7, 5700, Note_on_c, 1, 55, 72
7, 5759, Note_on_c, 1, 55, 0
7, 5759, Note_on_c, 1, 64, 0
7, 5760, Note_on_c, 1, 57, 72
7, 5760, Note_on_c, 1, 53, 72
7, 5819, Note_on_c, 1, 53, 0
7, 5820, Note_on_c, 1, 52, 72
7, 5879, Note_on_c, 1, 52, 0
7, 5880, Note_on_c, 1, 50, 72
7, 5939, Note_on_c, 1, 50, 0
7, 5940, Note_on_c, 1, 49, 72
7, 5999, Note_on_c, 1, 49, 0
7, 6000, Note_on_c, 1, 50, 72
7, 6119, Note_on_c, 1, 50, 0
7, 6120, Note_on_c, 1, 48, 72
7, 6179, Note_on_c, 1, 57, 0
7, 6180, Note_on_c, 1, 60, 72
7, 6209, Note_on_c, 1, 60, 0
7, 6210, Note_on_c, 1, 57, 72
7, 6239, Note_on_c, 1, 57, 0
7, 6239, Note_on_c, 1, 48, 0
7, 6240, Note_on_c, 1, 65, 72
7, 6240, Note_on_c, 1, 46, 72
7, 6359, Note_on_c, 1, 46, 0
7, 6359, Note_on_c, 1, 65, 0
7, 6360, Note_on_c, 1, 62, 72
7, 6360, Note_on_c, 1, 58, 72
7, 6479, Note_on_c, 1, 58, 0
7, 6479, Note_on_c, 1, 62, 0
7, 6480, Note_on_c, 1, 64, 72
7, 6480, Note_on_c, 1, 57, 72
7, 6539, Note_on_c, 1, 57, 0
7, 6539, Note_on_c, 1, 64, 0
7, 6600, Note_on_c, 1, 64, 72
7, 6600, Note_on_c, 1, 58, 72
7, 6659, Note_on_c, 1, 58, 0
7, 6659, Note_on_c, 1, 64, 0
7, 6720, Note_on_c, 1, 57, 72
7, 6720, Note_on_c, 1, 65, 72
7, 6839, Note_on_c, 1, 65, 0
7, 6839, Note_on_c, 1, 57, 0
7, 7020, Note_on_c, 1, 60, 72
7, 7020, Note_on_c, 1, 57, 72
7, 7079, Note_on_c, 1, 57, 0
7, 7079, Note_on_c, 1, 60, 0
7, 7080, Note_on_c, 1, 60, 72
7, 7080, Note_on_c, 1, 57, 72
7, 7139, Note_on_c, 1, 57, 0
7, 7139, Note_on_c, 1, 60, 0
7, 7140, Note_on_c, 1, 60, 72
7, 7140, Note_on_c, 1, 57, 72
7, 7199, Note_on_c, 1, 57, 0
7, 7199, Note_on_c, 1, 60, 0
7, 7200, Note_on_c, 1, 60, 72
7, 7200, Note_on_c, 1, 57, 72
7, 7319, Note_on_c, 1, 57, 0
7, 7319, Note_on_c, 1, 60, 0
7, 7500, Note_on_c, 1, 63, 72
7, 7500, Note_on_c, 1, 60, 72
7, 7559, Note_on_c, 1, 60, 0
7, 7559, Note_on_c, 1, 63, 0
7, 7560, Note_on_c, 1, 63, 72
7, 7560, Note_on_c, 1, 60, 72
7, 7619, Note_on_c, 1, 60, 0
7, 7619, Note_on_c, 1, 63, 0
7, 7620, Note_on_c, 1, 63, 72
7, 7620, Note_on_c, 1, 60, 72
7, 7679, Note_on_c, 1, 60, 0
7, 7679, Note_on_c, 1, 63, 0
7, 7680, Note_on_c, 1, 67, 72
7, 7680, Note_on_c, 1, 57, 72
7, 7739, Note_on_c, 1, 57, 0
7, 7739, Note_on_c, 1, 67, 0
7, 7800, Note_on_c, 1, 65, 72
7, 7800, Note_on_c, 1, 58, 72
7, 7859, Note_on_c, 1, 58, 0
7, 7859, Note_on_c, 1, 65, 0
7, 7920, Note_on_c, 1, 66, 48
7, 8039, Note_on_c, 1, 66, 0
7, 8040, Note_on_c, 1, 69, 48
7, 8159, Note_on_c, 1, 69, 0
7, 8160, Note_on_c, 1, 60, 48
7, 8160, Note_on_c, 1, 58, 48
7, 8279, Note_on_c, 1, 60, 0
7, 8280, Note_on_c, 1, 61, 48
7, 8399, Note_on_c, 1, 61, 0
7, 8400, Note_on_c, 1, 60, 48
7, 8519, Note_on_c, 1, 58, 0
7, 8520, Note_on_c, 1, 57, 48
7, 8639, Note_on_c, 1, 57, 0
7, 8639, Note_on_c, 1, 60, 0
7, 8640, Note_on_c, 1, 58, 48
7, 8759, Note_on_c, 1, 58, 0
7, 9120, Note_on_c, 1, 65, 48
7, 9240, Note_on_c, 1, 60, 48
7, 9269, Note_on_c, 1, 65, 0
7, 9270, Note_on_c, 1, 67, 48
7, 9299, Note_on_c, 1, 67, 0
7, 9300, Note_on_c, 1, 65, 48
7, 9329, Note_on_c, 1, 65, 0
7, 9330, Note_on_c, 1, 63, 48
7, 9359, Note_on_c, 1, 63, 0
7, 9360, Note_on_c, 1, 62, 48
7, 9389, Note_on_c, 1, 62, 0
7, 9390, Note_on_c, 1, 65, 48
7, 9419, Note_on_c, 1, 65, 0
7, 9419, Note_on_c, 1, 60, 0
7, 9420, Note_on_c, 1, 63, 48
7, 9420, Note_on_c, 1, 58, 48
7, 9449, Note_on_c, 1, 63, 0
7, 9450, Note_on_c, 1, 62, 48
7, 9479, Note_on_c, 1, 62, 0
7, 9480, Note_on_c, 1, 60, 48
7, 9509, Note_on_c, 1, 60, 0
7, 9510, Note_on_c, 1, 63, 48
7, 9539, Note_on_c, 1, 63, 0
7, 9539, Note_on_c, 1, 58, 0
7, 9540, Note_on_c, 1, 57, 48
7, 9540, Note_on_c, 1, 62, 48
7, 9569, Note_on_c, 1, 62, 0
7, 9570, Note_on_c, 1, 60, 48
7, 9599, Note_on_c, 1, 60, 0
7, 9599, Note_on_c, 1, 57, 0
7, 9600, Note_on_c, 1, 58, 48
7, 9719, Note_on_c, 1, 58, 0
7, 12165, Note_on_c, 1, 55, 72
7, 12179, Note_on_c, 1, 55, 0
7, 12180, Note_on_c, 1, 58, 72
7, 12224, Note_on_c, 1, 58, 0
7, 12225, Note_on_c, 1, 55, 72
7, 12239, Note_on_c, 1, 55, 0
7, 12240, Note_on_c, 1, 57, 72
7, 12359, Note_on_c, 1, 57, 0
7, 12405, Note_on_c, 1, 53, 72
7, 12419, Note_on_c, 1, 53, 0
7, 12420, Note_on_c, 1, 57, 72
7, 12464, Note_on_c, 1, 57, 0
7, 12465, Note_on_c, 1, 53, 72
7, 12479, Note_on_c, 1, 53, 0
7, 12480, Note_on_c, 1, 58, 72
7, 12599, Note_on_c, 1, 58, 0
7, 12645, Note_on_c, 1, 58, 72
7, 12659, Note_on_c, 1, 58, 0
7, 12660, Note_on_c, 1, 62, 72
7, 12704, Note_on_c, 1, 62, 0
7, 12705, Note_on_c, 1, 58, 72
7, 12719, Note_on_c, 1, 58, 0
7, 12720, Note_on_c, 1, 54, 72
7, 12839, Note_on_c, 1, 54, 0
7, 12885, Note_on_c, 1, 50, 72
7, 12899, Note_on_c, 1, 50, 0
7, 12900, Note_on_c, 1, 53, 72
7, 12944, Note_on_c, 1, 53, 0
7, 12945, Note_on_c, 1, 50, 72
7, 12959, Note_on_c, 1, 50, 0
7, 12960, Note_on_c, 1, 55, 72
7, 13079, Note_on_c, 1, 55, 0
7, 13125, Note_on_c, 1, 55, 72
7, 13139, Note_on_c, 1, 55, 0
7, 13140, Note_on_c, 1, 58, 72
7, 13184, Note_on_c, 1, 58, 0
7, 13185, Note_on_c, 1, 55, 72
7, 13199, Note_on_c, 1, 55, 0
7, 13200, Note_on_c, 1, 48, 72
7, 13259, Note_on_c, 1, 48, 0
7, 13260, Note_on_c, 1, 50, 72
7, 13304, Note_on_c, 1, 50, 0
7, 13305, Note_on_c, 1, 51, 72
7, 13319, Note_on_c, 1, 51, 0
7, 13320, Note_on_c, 1, 53, 72
7, 13379, Note_on_c, 1, 53, 0
7, 13380, Note_on_c, 1, 41, 72
7, 13439, Note_on_c, 1, 41, 0
7, 13440, Note_on_c, 1, 46, 72
7, 13559, Note_on_c, 1, 46, 0
7, 13605, Note_on_c, 1, 58, 72
7, 13619, Note_on_c, 1, 58, 0
7, 13620, Note_on_c, 1, 62, 72
7, 13664, Note_on_c, 1, 62, 0
7, 13665, Note_on_c, 1, 58, 72
7, 13679, Note_on_c, 1, 58, 0
7, 13680, Note_on_c, 1, 55, 72
7, 13799, Note_on_c, 1, 55, 0
7, 13845, Note_on_c, 1, 55, 72
7, 13859, Note_on_c, 1, 55, 0
7, 13860, Note_on_c, 1, 58, 72
7, 13904, Note_on_c, 1, 58, 0
7, 13905, Note_on_c, 1, 55, 72
7, 13919, Note_on_c, 1, 55, 0
7, 13920, Note_on_c, 1, 52, 72
7, 14039, Note_on_c, 1, 52, 0
7, 14085, Note_on_c, 1, 52, 72
7, 14099, Note_on_c, 1, 52, 0
7, 14100, Note_on_c, 1, 55, 72
7, 14144, Note_on_c, 1, 55, 0
7, 14145, Note_on_c, 1, 60, 72
7, 14159, Note_on_c, 1, 60, 0
7, 14160, Note_on_c, 1, 51, 72
7, 14279, Note_on_c, 1, 51, 0
7, 14325, Note_on_c, 1, 51, 72
7, 14339, Note_on_c, 1, 51, 0
7, 14340, Note_on_c, 1, 55, 72
7, 14384, Note_on_c, 1, 55, 0
7, 14385, Note_on_c, 1, 60, 72
7, 14399, Note_on_c, 1, 60, 0
7, 14400, Note_on_c, 1, 50, 72
7, 14459, Note_on_c, 1, 50, 0
7, 14505, Note_on_c, 1, 62, 72
7, 14519, Note_on_c, 1, 62, 0
7, 14520, Note_on_c, 1, 61, 72
7, 14579, Note_on_c, 1, 61, 0
7, 14625, Note_on_c, 1, 49, 72
7, 14639, Note_on_c, 1, 49, 0
7, 14640, Note_on_c, 1, 50, 72
7, 14699, Note_on_c, 1, 50, 0
7, 14700, Note_on_c, 1, 50, 72
7, 14759, Note_on_c, 1, 50, 0
7, 14760, Note_on_c, 1, 50, 72
7, 14819, Note_on_c, 1, 50, 0
7, 14820, Note_on_c, 1, 50, 72
7, 14879, Note_on_c, 1, 50, 0
7, 14880, Note_on_c, 1, 43, 72
7, 14999, Note_on_c, 1, 43, 0
7, 15120, Note_on_c, 1, 63, 48
7, 15239, Note_on_c, 1, 63, 0
7, 15240, Note_on_c, 1, 62, 48
7, 15480, Note_on_c, 1, 57, 48
7, 15509, Note_on_c, 1, 62, 0
7, 15510, Note_on_c, 1, 63, 48
7, 15539, Note_on_c, 1, 63, 0
7, 15540, Note_on_c, 1, 62, 48
7, 15569, Note_on_c, 1, 62, 0
7, 15570, Note_on_c, 1, 60, 48
7, 15599, Note_on_c, 1, 60, 0
7, 15600, Note_on_c, 1, 58, 48
7, 15629, Note_on_c, 1, 58, 0
7, 15630, Note_on_c, 1, 62, 48
7, 15659, Note_on_c, 1, 62, 0
7, 15659, Note_on_c, 1, 57, 0
7, 15660, Note_on_c, 1, 55, 48
7, 15660, Note_on_c, 1, 60, 48
7, 15689, Note_on_c, 1, 60, 0
7, 15690, Note_on_c, 1, 58, 48
7, 15719, Note_on_c, 1, 58, 0
7, 15720, Note_on_c, 1, 57, 48
7, 15749, Note_on_c, 1, 57, 0
7, 15750, Note_on_c, 1, 60, 48
7, 15779, Note_on_c, 1, 60, 0
7, 15779, Note_on_c, 1, 55, 0
7, 15780, Note_on_c, 1, 58, 48
7, 15780, Note_on_c, 1, 54, 48
7, 15809, Note_on_c, 1, 58, 0
7, 15810, Note_on_c, 1, 57, 48
7, 15839, Note_on_c, 1, 57, 0
7, 15839, Note_on_c, 1, 54, 0
7, 15840, Note_on_c, 1, 55, 48
7, 15899, Note_on_c, 1, 55, 0
7, 15960, Note_on_c, 1, 50, 72
7, 16199, Note_on_c, 1, 50, 0
7, 16200, Note_on_c, 1, 49, 72
7, 16319, Note_on_c, 1, 49, 0
7, 16320, Note_on_c, 1, 50, 72
7, 16439, Note_on_c, 1, 50, 0
7, 16440, Note_on_c, 1, 52, 72
7, 16559, Note_on_c, 1, 52, 0
7, 16560, Note_on_c, 1, 53, 72
7, 16679, Note_on_c, 1, 53, 0
7, 16680, Note_on_c, 1, 50, 72
7, 16680, Note_on_c, 1, 57, 72
7, 16799, Note_on_c, 1, 50, 0
7, 16800, Note_on_c, 1, 52, 72
7, 16919, Note_on_c, 1, 52, 0
7, 16919, Note_on_c, 1, 57, 0
7, 16920, Note_on_c, 1, 56, 72
7, 17039, Note_on_c, 1, 56, 0
7, 17040, Note_on_c, 1, 57, 72
7, 17159, Note_on_c, 1, 57, 0
7, 17160, Note_on_c, 1, 59, 72
7, 17279, Note_on_c, 1, 59, 0
7, 17280, Note_on_c, 1, 60, 72
7, 17339, Note_on_c, 1, 60, 0
7, 17340, Note_on_c, 1, 57, 72
7, 17399, Note_on_c, 1, 57, 0
7, 17400, Note_on_c, 1, 54, 72
7, 17459, Note_on_c, 1, 54, 0
7, 17460, Note_on_c, 1, 50, 72
7, 17519, Note_on_c, 1, 50, 0
7, 17520, Note_on_c, 1, 55, 72
7, 17609, Note_on_c, 1, 55, 0
7, 17610, Note_on_c, 1, 57, 72
7, 17639, Note_on_c, 1, 57, 0
7, 17640, Note_on_c, 1, 58, 72
7, 17699, Note_on_c, 1, 58, 0
7, 17700, Note_on_c, 1, 55, 72
7, 17759, Note_on_c, 1, 55, 0
7, 17760, Note_on_c, 1, 50, 72
7, 17820, Note_on_c, 1, 62, 72
7, 17879, Note_on_c, 1, 50, 0
7, 17909, Note_on_c, 1, 62, 0
7, 17910, Note_on_c, 1, 63, 72
7, 17939, Note_on_c, 1, 63, 0
7, 17940, Note_on_c, 1, 62, 72
7, 17969, Note_on_c, 1, 62, 0
7, 17970, Note_on_c, 1, 60, 72
7, 17999, Note_on_c, 1, 60, 0
7, 18000, Note_on_c, 1, 58, 72
7, 18029, Note_on_c, 1, 58, 0
7, 18030, Note_on_c, 1, 62, 72
7, 18059, Note_on_c, 1, 62, 0
7, 18060, Note_on_c, 1, 60, 72
7, 18060, Note_on_c, 1, 55, 72
7, 18089, Note_on_c, 1, 60, 0
7, 18090, Note_on_c, 1, 58, 72
7, 18119, Note_on_c, 1, 58, 0
7, 18120, Note_on_c, 1, 57, 72
7, 18149, Note_on_c, 1, 57, 0
7, 18150, Note_on_c, 1, 60, 72
7, 18179, Note_on_c, 1, 60, 0
7, 18179, Note_on_c, 1, 55, 0
7, 18180, Note_on_c, 1, 58, 72
7, 18180, Note_on_c, 1, 54, 72
7, 18209, Note_on_c, 1, 58, 0
7, 18210, Note_on_c, 1, 57, 72
7, 18239, Note_on_c, 1, 57, 0
7, 18239, Note_on_c, 1, 54, 0
7, 18240, Note_on_c, 1, 55, 72
7, 18240, Note_on_c, 1, 55, 72
7, 18329, Note_on_c, 1, 55, 0
7, 18330, Note_on_c, 1, 57, 72
7, 18359, Note_on_c, 1, 57, 0
7, 18359, Note_on_c, 1, 55, 0
7, 18360, Note_on_c, 1, 58, 72
7, 18360, Note_on_c, 1, 43, 72
7, 18389, Note_on_c, 1, 58, 0
7, 18390, Note_on_c, 1, 57, 72
7, 18419, Note_on_c, 1, 57, 0
7, 18419, Note_on_c, 1, 43, 0
7, 18420, Note_on_c, 1, 55, 72
7, 18420, Note_on_c, 1, 55, 72
7, 18449, Note_on_c, 1, 55, 0
7, 18450, Note_on_c, 1, 58, 72
7, 18479, Note_on_c, 1, 58, 0
7, 18479, Note_on_c, 1, 55, 0
7, 18480, Note_on_c, 1, 57, 72
7, 18509, Note_on_c, 1, 57, 0
7, 18510, Note_on_c, 1, 55, 72
7, 18539, Note_on_c, 1, 55, 0
7, 18540, Note_on_c, 1, 53, 72
7, 18569, Note_on_c, 1, 53, 0
7, 18570, Note_on_c, 1, 55, 72
7, 18599, Note_on_c, 1, 55, 0
7, 18600, Note_on_c, 1, 57, 72
7, 18629, Note_on_c, 1, 57, 0
7, 18630, Note_on_c, 1, 55, 72
7, 18659, Note_on_c, 1, 55, 0
7, 18660, Note_on_c, 1, 57, 72
7, 18689, Note_on_c, 1, 57, 0
7, 18690, Note_on_c, 1, 53, 72
7, 18719, Note_on_c, 1, 53, 0
7, 18720, Note_on_c, 1, 60, 72
7, 18869, Note_on_c, 1, 60, 0
7, 18870, Note_on_c, 1, 62, 72
7, 18899, Note_on_c, 1, 62, 0
7, 18900, Note_on_c, 1, 60, 72
7, 18929, Note_on_c, 1, 60, 0
7, 18930, Note_on_c, 1, 58, 72
7, 18959, Note_on_c, 1, 58, 0
7, 18960, Note_on_c, 1, 57, 72
7, 18960, Note_on_c, 1, 60, 72
7, 18989, Note_on_c, 1, 57, 0
7, 18990, Note_on_c, 1, 60, 72
7, 19019, Note_on_c, 1, 60, 0
7, 19020, Note_on_c, 1, 58, 72
7, 19049, Note_on_c, 1, 58, 0
7, 19050, Note_on_c, 1, 57, 72
7, 19079, Note_on_c, 1, 57, 0
7, 19079, Note_on_c, 1, 60, 0
7, 19080, Note_on_c, 1, 55, 72
7, 19080, Note_on_c, 1, 64, 72
7, 19109, Note_on_c, 1, 55, 0
7, 19110, Note_on_c, 1, 58, 72
7, 19139, Note_on_c, 1, 58, 0
7, 19140, Note_on_c, 1, 57, 72
7, 19169, Note_on_c, 1, 57, 0
7, 19170, Note_on_c, 1, 55, 72
7, 19199, Note_on_c, 1, 55, 0
7, 19199, Note_on_c, 1, 64, 0
7, 19200, Note_on_c, 1, 65, 72
7, 19200, Note_on_c, 1, 53, 72
7, 19229, Note_on_c, 1, 53, 0
7, 19230, Note_on_c, 1, 55, 72
7, 19259, Note_on_c, 1, 55, 0
7, 19260, Note_on_c, 1, 57, 72
7, 19319, Note_on_c, 1, 65, 0
7, 19349, Note_on_c, 1, 57, 0
7, 19350, Note_on_c, 1, 58, 72
7, 19379, Note_on_c, 1, 58, 0
7, 19380, Note_on_c, 1, 57, 72
7, 19409, Note_on_c, 1, 57, 0
7, 19410, Note_on_c, 1, 55, 72
7, 19439, Note_on_c, 1, 55, 0
7, 19440, Note_on_c, 1, 53, 72
7, 19440, Note_on_c, 1, 57, 72
7, 19469, Note_on_c, 1, 53, 0
7, 19470, Note_on_c, 1, 57, 72
7, 19499, Note_on_c, 1, 57, 0
7, 19500, Note_on_c, 1, 55, 72
7, 19529, Note_on_c, 1, 55, 0
7, 19530, Note_on_c, 1, 53, 72
7, 19559, Note_on_c, 1, 53, 0
7, 19559, Note_on_c, 1, 57, 0
7, 19560, Note_on_c, 1, 52, 72
7, 19560, Note_on_c, 1, 61, 72
7, 19589, Note_on_c, 1, 52, 0
7, 19590, Note_on_c, 1, 55, 72
7, 19619, Note_on_c, 1, 55, 0
7, 19620, Note_on_c, 1, 53, 72
7, 19649, Note_on_c, 1, 53, 0
7, 19650, Note_on_c, 1, 52, 72
7, 19679, Note_on_c, 1, 52, 0
7, 19679, Note_on_c, 1, 61, 0
7, 19680, Note_on_c, 1, 62, 72
7, 19680, Note_on_c, 1, 50, 72
7, 19709, Note_on_c, 1, 50, 0
7, 19710, Note_on_c, 1, 51, 72
7, 19739, Note_on_c, 1, 51, 0
7, 19740, Note_on_c, 1, 53, 72
7, 19799, Note_on_c, 1, 62, 0
7, 19829, Note_on_c, 1, 53, 0
7, 19830, Note_on_c, 1, 55, 72
7, 19859, Note_on_c, 1, 55, 0
7, 19860, Note_on_c, 1, 53, 72
7, 19889, Note_on_c, 1, 53, 0
7, 19890, Note_on_c, 1, 51, 72
7, 19919, Note_on_c, 1, 51, 0
7, 19920, Note_on_c, 1, 50, 72
7, 19920, Note_on_c, 1, 53, 72
7, 19949, Note_on_c, 1, 50, 0
7, 19950, Note_on_c, 1, 53, 72
7, 19979, Note_on_c, 1, 53, 0
7, 19980, Note_on_c, 1, 51, 72
7, 20009, Note_on_c, 1, 51, 0
7, 20010, Note_on_c, 1, 50, 72
7, 20039, Note_on_c, 1, 50, 0
7, 20039, Note_on_c, 1, 53, 0
7, 20040, Note_on_c, 1, 48, 72
7, 20040, Note_on_c, 1, 57, 72
7, 20069, Note_on_c, 1, 48, 0
7, 20070, Note_on_c, 1, 51, 72
7, 20099, Note_on_c, 1, 51, 0
7, 20100, Note_on_c, 1, 50, 72
7, 20129, Note_on_c, 1, 50, 0
7, 20130, Note_on_c, 1, 48, 72
7, 20159, Note_on_c, 1, 48, 0
7, 20159, Note_on_c, 1, 57, 0
7, 20160, Note_on_c, 1, 58, 72
7, 20160, Note_on_c, 1, 46, 72
7, 20219, Note_on_c, 1, 46, 0
7, 20219, Note_on_c, 1, 58, 0
7, 20220, Note_on_c, 1, 58, 72
7, 20220, Note_on_c, 1, 65, 72
7, 20279, Note_on_c, 1, 65, 0
7, 20279, Note_on_c, 1, 58, 0
7, 20280, Note_on_c, 1, 58, 72
7, 20280, Note_on_c, 1, 65, 72
7, 20339, Note_on_c, 1, 65, 0
7, 20339, Note_on_c, 1, 58, 0
7, 20340, Note_on_c, 1, 58, 72
7, 20340, Note_on_c, 1, 65, 72
7, 20399, Note_on_c, 1, 65, 0
7, 20399, Note_on_c, 1, 58, 0
7, 20400, Note_on_c, 1, 65, 72
7, 20400, Note_on_c, 1, 58, 72
7, 20519, Note_on_c, 1, 58, 0
7, 20519, Note_on_c, 1, 65, 0
7, 20700, Note_on_c, 1, 65, 72
7, 20700, Note_on_c, 1, 62, 72
7, 20759, Note_on_c, 1, 62, 0
7, 20759, Note_on_c, 1, 65, 0
7, 20760, Note_on_c, 1, 62, 72
7, 20760, Note_on_c, 1, 65, 72
7, 20819, Note_on_c, 1, 65, 0
7, 20819, Note_on_c, 1, 62, 0
7, 20820, Note_on_c, 1, 62, 72
7, 20820, Note_on_c, 1, 65, 72
7, 20879, Note_on_c, 1, 65, 0
7, 20879, Note_on_c, 1, 62, 0
7, 20880, Note_on_c, 1, 65, 72
7, 20880, Note_on_c, 1, 62, 72
7, 20999, Note_on_c, 1, 62, 0
7, 20999, Note_on_c, 1, 65, 0
7, 21120, Note_on_c, 1, 56, 72
7, 21120, Note_on_c, 1, 62, 72
7, 21479, Note_on_c, 1, 62, 0
7, 21480, Note_on_c, 1, 64, 72
7, 21539, Note_on_c, 1, 64, 0
7, 21540, Note_on_c, 1, 65, 72
7, 21599, Note_on_c, 1, 65, 0
7, 21599, Note_on_c, 1, 56, 0
7, 21600, Note_on_c, 1, 57, 72
7, 21600, Note_on_c, 1, 65, 72
7, 21659, Note_on_c, 1, 65, 0
7, 21660, Note_on_c, 1, 64, 72
7, 21719, Note_on_c, 1, 64, 0
7, 21719, Note_on_c, 1, 57, 0
7, 23040, Note_on_c, 1, 57, 72
7, 23219, Note_on_c, 1, 57, 0
7, 23220, Note_on_c, 1, 57, 72
7, 23279, Note_on_c, 1, 57, 0
7, 23280, Note_on_c, 1, 53, 72
7, 23399, Note_on_c, 1, 53, 0
7, 23400, Note_on_c, 1, 58, 72
7, 23519, Note_on_c, 1, 58, 0
7, 23520, Note_on_c, 1, 49, 72
7, 23699, Note_on_c, 1, 49, 0
7, 23700, Note_on_c, 1, 49, 72
7, 23759, Note_on_c, 1, 49, 0
7, 23760, Note_on_c, 1, 50, 72
7, 23879, Note_on_c, 1, 50, 0
7, 23940, Note_on_c, 1, 50, 72
7, 23999, Note_on_c, 1, 50, 0
7, 24000, Note_on_c, 1, 52, 72
7, 24179, Note_on_c, 1, 52, 0
7, 24180, Note_on_c, 1, 50, 72
7, 24209, Note_on_c, 1, 50, 0
7, 24210, Note_on_c, 1, 52, 72
7, 24239, Note_on_c, 1, 52, 0
7, 24240, Note_on_c, 1, 53, 72
7, 24299, Note_on_c, 1, 53, 0
7, 24300, Note_on_c, 1, 52, 72
7, 24329, Note_on_c, 1, 52, 0
7, 24330, Note_on_c, 1, 53, 72
7, 24359, Note_on_c, 1, 53, 0
7, 24360, Note_on_c, 1, 55, 72
7, 24419, Note_on_c, 1, 55, 0
7, 24420, Note_on_c, 1, 53, 72
7, 24449, Note_on_c, 1, 53, 0
7, 24450, Note_on_c, 1, 55, 72
7, 24479, Note_on_c, 1, 55, 0
7, 24480, Note_on_c, 1, 57, 72
7, 24539, Note_on_c, 1, 57, 0
7, 24540, Note_on_c, 1, 55, 72
7, 24599, Note_on_c, 1, 55, 0
7, 24600, Note_on_c, 1, 53, 72
7, 24659, Note_on_c, 1, 53, 0
7, 24660, Note_on_c, 1, 52, 72
7, 24719, Note_on_c, 1, 52, 0
7, 24720, Note_on_c, 1, 50, 72
7, 24779, Note_on_c, 1, 50, 0
7, 24780, Note_on_c, 1, 48, 72
7, 24839, Note_on_c, 1, 48, 0
7, 24840, Note_on_c, 1, 47, 72
7, 24899, Note_on_c, 1, 47, 0
7, 24900, Note_on_c, 1, 52, 72
7, 24959, Note_on_c, 1, 52, 0
7, 24960, Note_on_c, 1, 45, 72
7, 25019, Note_on_c, 1, 45, 0
7, 25020, Note_on_c, 1, 53, 72
7, 25049, Note_on_c, 1, 53, 0
7, 25050, Note_on_c, 1, 52, 72
7, 25079, Note_on_c, 1, 52, 0
7, 25080, Note_on_c, 1, 50, 72
7, 25109, Note_on_c, 1, 50, 0
7, 25110, Note_on_c, 1, 47, 72
7, 25139, Note_on_c, 1, 47, 0
7, 25140, Note_on_c, 1, 48, 72
7, 25169, Note_on_c, 1, 48, 0
7, 25170, Note_on_c, 1, 50, 72
7, 25199, Note_on_c, 1, 50, 0
7, 25200, Note_on_c, 1, 52, 72
7, 25200, Note_on_c, 1, 52, 72
7, 25259, Note_on_c, 1, 52, 0
7, 25260, Note_on_c, 1, 59, 72
7, 25319, Note_on_c, 1, 59, 0
7, 25319, Note_on_c, 1, 52, 0
7, 25320, Note_on_c, 1, 59, 72
7, 25379, Note_on_c, 1, 59, 0
7, 25380, Note_on_c, 1, 59, 72
7, 25439, Note_on_c, 1, 59, 0
7, 25440, Note_on_c, 1, 60, 72
7, 25469, Note_on_c, 1, 60, 0
7, 25470, Note_on_c, 1, 62, 72
7, 25499, Note_on_c, 1, 62, 0
7, 25500, Note_on_c, 1, 60, 72
7, 25529, Note_on_c, 1, 60, 0
7, 25530, Note_on_c, 1, 59, 72
7, 25559, Note_on_c, 1, 59, 0
7, 25560, Note_on_c, 1, 60, 72
7, 25560, Note_on_c, 1, 57, 72
7, 25589, Note_on_c, 1, 60, 0
7, 25590, Note_on_c, 1, 62, 72
7, 25619, Note_on_c, 1, 62, 0
7, 25620, Note_on_c, 1, 59, 72
7, 25649, Note_on_c, 1, 59, 0
7, 25650, Note_on_c, 1, 60, 72
7, 25679, Note_on_c, 1, 60, 0
7, 25680, Note_on_c, 1, 62, 72
7, 25709, Note_on_c, 1, 62, 0
7, 25710, Note_on_c, 1, 64, 72
7, 25739, Note_on_c, 1, 64, 0
7, 25740, Note_on_c, 1, 62, 72
7, 25769, Note_on_c, 1, 62, 0
7, 25770, Note_on_c, 1, 60, 72
7, 25799, Note_on_c, 1, 60, 0
7, 25799, Note_on_c, 1, 57, 0
7, 25800, Note_on_c, 1, 62, 72
7, 25800, Note_on_c, 1, 55, 72
7, 25829, Note_on_c, 1, 55, 0
7, 25829, Note_on_c, 1, 62, 0
7, 25830, Note_on_c, 1, 64, 72
7, 25830, Note_on_c, 1, 53, 72
7, 25859, Note_on_c, 1, 53, 0
7, 25859, Note_on_c, 1, 64, 0
7, 25860, Note_on_c, 1, 60, 72
7, 25860, Note_on_c, 1, 52, 72
7, 25889, Note_on_c, 1, 52, 0
7, 25889, Note_on_c, 1, 60, 0
7, 25890, Note_on_c, 1, 62, 72
7, 25890, Note_on_c, 1, 50, 72
7, 25919, Note_on_c, 1, 50, 0
7, 25919, Note_on_c, 1, 62, 0
7, 25920, Note_on_c, 1, 64, 72
7, 25920, Note_on_c, 1, 48, 72
7, 25979, Note_on_c, 1, 64, 0
7, 25980, Note_on_c, 1, 65, 72
7, 26009, Note_on_c, 1, 65, 0
7, 26010, Note_on_c, 1, 64, 72
7, 26039, Note_on_c, 1, 64, 0
7, 26039, Note_on_c, 1, 48, 0
7, 26040, Note_on_c, 1, 47, 72
7, 26040, Note_on_c, 1, 62, 72
7, 26069, Note_on_c, 1, 62, 0
7, 26070, Note_on_c, 1, 60, 72
7, 26099, Note_on_c, 1, 60, 0
7, 26099, Note_on_c, 1, 47, 0
7, 26100, Note_on_c, 1, 53, 72
7, 26100, Note_on_c, 1, 59, 72
7, 26129, Note_on_c, 1, 59, 0
7, 26130, Note_on_c, 1, 57, 72
7, 26159, Note_on_c, 1, 57, 0
7, 26159, Note_on_c, 1, 53, 0
7, 26160, Note_on_c, 1, 56, 72
7, 26160, Note_on_c, 1, 52, 72
7, 26219, Note_on_c, 1, 56, 0
7, 26220, Note_on_c, 1, 59, 72
7, 26249, Note_on_c, 1, 52, 0
7, 26250, Note_on_c, 1, 54, 72
7, 26279, Note_on_c, 1, 54, 0
7, 26279, Note_on_c, 1, 59, 0
7, 26280, Note_on_c, 1, 64, 72
7, 26280, Note_on_c, 1, 56, 72
7, 26309, Note_on_c, 1, 56, 0
7, 26310, Note_on_c, 1, 57, 72
7, 26339, Note_on_c, 1, 57, 0
7, 26339, Note_on_c, 1, 64, 0
7, 26340, Note_on_c, 1, 62, 72
7, 26340, Note_on_c, 1, 54, 72
7, 26369, Note_on_c, 1, 54, 0
7, 26370, Note_on_c, 1, 56, 72
7, 26399, Note_on_c, 1, 56, 0
7, 26399, Note_on_c, 1, 62, 0
7, 26400, Note_on_c, 1, 60, 72
7, 26400, Note_on_c, 1, 57, 72
7, 26459, Note_on_c, 1, 57, 0
7, 26459, Note_on_c, 1, 60, 0
7, 26460, Note_on_c, 1, 61, 72
7, 26460, Note_on_c, 1, 45, 72
7, 26519, Note_on_c, 1, 45, 0
7, 26519, Note_on_c, 1, 61, 0
7, 26520, Note_on_c, 1, 62, 72
7, 26520, Note_on_c, 1, 47, 72
7, 26579, Note_on_c, 1, 47, 0
7, 26579, Note_on_c, 1, 62, 0
7, 26580, Note_on_c, 1, 64, 72
7, 26580, Note_on_c, 1, 49, 72
7, 26639, Note_on_c, 1, 49, 0
7, 26639, Note_on_c, 1, 64, 0
7, 26640, Note_on_c, 1, 57, 72
7, 26640, Note_on_c, 1, 50, 72
7, 26699, Note_on_c, 1, 57, 0
7, 26700, Note_on_c, 1, 50, 72
7, 26759, Note_on_c, 1, 50, 0
7, 26759, Note_on_c, 1, 50, 0
7, 26760, Note_on_c, 1, 55, 72
7, 26819, Note_on_c, 1, 55, 0
7, 26820, Note_on_c, 1, 53, 72
7, 26879, Note_on_c, 1, 53, 0
7, 26880, Note_on_c, 1, 52, 72
7, 26939, Note_on_c, 1, 52, 0
7, 26940, Note_on_c, 1, 55, 72
7, 26940, Note_on_c, 1, 52, 72
7, 26999, Note_on_c, 1, 52, 0
7, 26999, Note_on_c, 1, 55, 0
7, 27000, Note_on_c, 1, 52, 72
7, 27000, Note_on_c, 1, 58, 72
7, 27059, Note_on_c, 1, 52, 0
7, 27060, Note_on_c, 1, 52, 72
7, 27119, Note_on_c, 1, 52, 0
7, 27119, Note_on_c, 1, 58, 0
7, 27120, Note_on_c, 1, 57, 72
7, 27120, Note_on_c, 1, 53, 72
7, 27149, Note_on_c, 1, 53, 0
7, 27150, Note_on_c, 1, 55, 72
7, 27179, Note_on_c, 1, 55, 0
7, 27180, Note_on_c, 1, 53, 72
7, 27209, Note_on_c, 1, 53, 0
7, 27210, Note_on_c, 1, 52, 72
7, 27239, Note_on_c, 1, 52, 0
7, 27239, Note_on_c, 1, 57, 0
7, 27240, Note_on_c, 1, 53, 72
7, 27269, Note_on_c, 1, 53, 0
7, 27270, Note_on_c, 1, 55, 72
7, 27299, Note_on_c, 1, 55, 0
7, 27300, Note_on_c, 1, 52, 72
7, 27329, Note_on_c, 1, 52, 0
7, 27330, Note_on_c, 1, 53, 72
7, 27359, Note_on_c, 1, 53, 0
7, 27360, Note_on_c, 1, 55, 72
7, 27389, Note_on_c, 1, 55, 0
7, 27390, Note_on_c, 1, 57, 72
7, 27419, Note_on_c, 1, 57, 0
7, 27420, Note_on_c, 1, 55, 72
7, 27449, Note_on_c, 1, 55, 0
7, 27450, Note_on_c, 1, 53, 72
7, 27479, Note_on_c, 1, 53, 0
7, 27480, Note_on_c, 1, 55, 72
7, 27509, Note_on_c, 1, 55, 0
7, 27510, Note_on_c, 1, 57, 72
7, 27539, Note_on_c, 1, 57, 0
7, 27540, Note_on_c, 1, 53, 72
7, 27569, Note_on_c, 1, 53, 0
7, 27570, Note_on_c, 1, 55, 72
7, 27599, Note_on_c, 1, 55, 0
7, 27600, Note_on_c, 1, 57, 72
7, 27659, Note_on_c, 1, 57, 0
7, 27660, Note_on_c, 1, 58, 72
7, 27689, Note_on_c, 1, 58, 0
7, 27690, Note_on_c, 1, 57, 72
7, 27719, Note_on_c, 1, 57, 0
7, 27720, Note_on_c, 1, 55, 72
7, 27749, Note_on_c, 1, 55, 0
7, 27750, Note_on_c, 1, 53, 72
7, 27779, Note_on_c, 1, 53, 0
7, 27780, Note_on_c, 1, 52, 72
7, 27809, Note_on_c, 1, 52, 0
7, 27810, Note_on_c, 1, 50, 72
7, 27839, Note_on_c, 1, 50, 0
7, 27840, Note_on_c, 1, 49, 72
7, 27899, Note_on_c, 1, 49, 0
7, 27900, Note_on_c, 1, 52, 72
7, 27959, Note_on_c, 1, 52, 0
7, 27960, Note_on_c, 1, 57, 72
7, 28019, Note_on_c, 1, 57, 0
7, 28020, Note_on_c, 1, 55, 72
7, 28079, Note_on_c, 1, 55, 0
7, 28080, Note_on_c, 1, 53, 72
7, 28080, Note_on_c, 1, 62, 72
7, 28109, Note_on_c, 1, 53, 0
7, 28110, Note_on_c, 1, 52, 72
7, 28139, Note_on_c, 1, 52, 0
7, 28140, Note_on_c, 1, 50, 72
7, 28169, Note_on_c, 1, 50, 0
7, 28170, Note_on_c, 1, 48, 72
7, 28199, Note_on_c, 1, 48, 0
7, 28200, Note_on_c, 1, 47, 72
7, 28259, Note_on_c, 1, 62, 0
7, 28260, Note_on_c, 1, 62, 72
7, 28319, Note_on_c, 1, 62, 0
7, 28319, Note_on_c, 1, 47, 0
7, 28320, Note_on_c, 1, 60, 72
7, 28320, Note_on_c, 1, 48, 72
7, 28439, Note_on_c, 1, 48, 0
7, 28439, Note_on_c, 1, 60, 0
7, 28440, Note_on_c, 1, 65, 72
7, 28440, Note_on_c, 1, 50, 72
7, 28559, Note_on_c, 1, 50, 0
7, 28559, Note_on_c, 1, 65, 0
7, 28560, Note_on_c, 1, 56, 72
7, 28560, Note_on_c, 1, 52, 72
7, 28679, Note_on_c, 1, 52, 0
7, 28679, Note_on_c, 1, 56, 0
7, 28740, Note_on_c, 1, 55, 72
7, 28740, Note_on_c, 1, 52, 72
7, 28799, Note_on_c, 1, 52, 0
7, 28799, Note_on_c, 1, 55, 0
7, 28800, Note_on_c, 1, 57, 72
7, 28949, Note_on_c, 1, 57, 0
7, 28950, Note_on_c, 1, 55, 72
7, 28979, Note_on_c, 1, 55, 0
7, 28980, Note_on_c, 1, 53, 72
7, 28980, Note_on_c, 1, 57, 72
7, 29009, Note_on_c, 1, 53, 0
7, 29010, Note_on_c, 1, 52, 72
7, 29039, Note_on_c, 1, 52, 0
7, 29039, Note_on_c, 1, 57, 0
7, 29040, Note_on_c, 1, 53, 72
7, 29040, Note_on_c, 1, 59, 72
7, 29099, Note_on_c, 1, 53, 0
7, 29100, Note_on_c, 1, 50, 72
7, 29159, Note_on_c, 1, 50, 0
7, 29160, Note_on_c, 1, 55, 72
7, 29219, Note_on_c, 1, 59, 0
7, 29220, Note_on_c, 1, 57, 72
7, 29249, Note_on_c, 1, 57, 0
7, 29250, Note_on_c, 1, 59, 72
7, 29279, Note_on_c, 1, 59, 0
7, 29279, Note_on_c, 1, 55, 0
7, 29280, Note_on_c, 1, 60, 72
7, 29280, Note_on_c, 1, 48, 72
7, 29339, Note_on_c, 1, 48, 0
7, 29339, Note_on_c, 1, 60, 0
7, 29340, Note_on_c, 1, 45, 72
7, 29340, Note_on_c, 1, 59, 72
7, 29369, Note_on_c, 1, 59, 0
7, 29370, Note_on_c, 1, 60, 72
7, 29399, Note_on_c, 1, 60, 0
7, 29399, Note_on_c, 1, 45, 0
7, 29400, Note_on_c, 1, 62, 72
7, 29400, Note_on_c, 1, 53, 72
7, 29459, Note_on_c, 1, 62, 0
7, 29460, Note_on_c, 1, 60, 72
7, 29489, Note_on_c, 1, 60, 0
7, 29490, Note_on_c, 1, 62, 72
7, 29519, Note_on_c, 1, 62, 0
7, 29519, Note_on_c, 1, 53, 0
7, 29520, Note_on_c, 1, 52, 72
7, 29520, Note_on_c, 1, 64, 72
7, 29579, Note_on_c, 1, 64, 0
7, 29580, Note_on_c, 1, 62, 72
7, 29639, Note_on_c, 1, 62, 0
7, 29639, Note_on_c, 1, 52, 0
7, 29640, Note_on_c, 1, 60, 72
7, 29699, Note_on_c, 1, 60, 0
7, 29700, Note_on_c, 1, 59, 72
7, 29759, Note_on_c, 1, 59, 0
7, 29760, Note_on_c, 1, 57, 72
7, 29789, Note_on_c, 1, 57, 0
7, 29790, Note_on_c, 1, 59, 72
7, 29819, Note_on_c, 1, 59, 0
7, 29820, Note_on_c, 1, 57, 72
7, 29820, Note_on_c, 1, 60, 72
7, 29849, Note_on_c, 1, 57, 0
7, 29850, Note_on_c, 1, 55, 72
7, 29879, Note_on_c, 1, 55, 0
7, 29880, Note_on_c, 1, 53, 72
7, 29939, Note_on_c, 1, 53, 0
7, 29939, Note_on_c, 1, 60, 0
7, 29940, Note_on_c, 1, 51, 72
7, 29940, Note_on_c, 1, 61, 72
7, 29999, Note_on_c, 1, 61, 0
7, 29999, Note_on_c, 1, 51, 0
7, 30000, Note_on_c, 1, 62, 72
7, 30000, Note_on_c, 1, 50, 72
7, 30059, Note_on_c, 1, 62, 0
7, 30060, Note_on_c, 1, 50, 72
7, 30119, Note_on_c, 1, 50, 0
7, 30119, Note_on_c, 1, 50, 0
7, 30120, Note_on_c, 1, 52, 72
7, 30179, Note_on_c, 1, 52, 0
7, 30180, Note_on_c, 1, 54, 72
7, 30239, Note_on_c, 1, 54, 0
7, 30240, Note_on_c, 1, 55, 72
7, 30269, Note_on_c, 1, 55, 0
7, 30270, Note_on_c, 1, 57, 72
7, 30299, Note_on_c, 1, 57, 0
7, 30300, Note_on_c, 1, 55, 72
7, 30300, Note_on_c, 1, 58, 72
7, 30329, Note_on_c, 1, 55, 0
7, 30330, Note_on_c, 1, 53, 72
7, 30359, Note_on_c, 1, 53, 0
7, 30360, Note_on_c, 1, 52, 72
7, 30419, Note_on_c, 1, 52, 0
7, 30419, Note_on_c, 1, 58, 0
7, 30420, Note_on_c, 1, 59, 72
7, 30420, Note_on_c, 1, 50, 72
7, 30479, Note_on_c, 1, 50, 0
7, 30479, Note_on_c, 1, 59, 0
7, 30480, Note_on_c, 1, 60, 72
7, 30480, Note_on_c, 1, 48, 72
7, 30539, Note_on_c, 1, 60, 0
7, 30540, Note_on_c, 1, 58, 72
7, 30599, Note_on_c, 1, 58, 0
7, 30599, Note_on_c, 1, 48, 0
7, 30600, Note_on_c, 1, 57, 72
7, 30600, Note_on_c, 1, 50, 72
7, 30659, Note_on_c, 1, 50, 0
7, 30659, Note_on_c, 1, 57, 0
7, 30660, Note_on_c, 1, 55, 72
7, 30660, Note_on_c, 1, 52, 72
7, 30719, Note_on_c, 1, 52, 0
7, 30719, Note_on_c, 1, 55, 0
7, 30720, Note_on_c, 1, 53, 72
7, 30720, Note_on_c, 1, 57, 72
7, 30749, Note_on_c, 1, 57, 0
7, 30750, Note_on_c, 1, 53, 72
7, 30779, Note_on_c, 1, 53, 0
7, 30780, Note_on_c, 1, 55, 72
7, 30809, Note_on_c, 1, 55, 0
7, 30810, Note_on_c, 1, 57, 72
7, 30839, Note_on_c, 1, 57, 0
7, 30839, Note_on_c, 1, 53, 0
7, 30840, Note_on_c, 1, 58, 72
7, 30869, Note_on_c, 1, 58, 0
7, 30870, Note_on_c, 1, 55, 72
7, 30899, Note_on_c, 1, 55, 0
7, 30900, Note_on_c, 1, 57, 72
7, 30929, Note_on_c, 1, 57, 0
7, 30930, Note_on_c, 1, 58, 72
7, 30959, Note_on_c, 1, 58, 0
7, 30960, Note_on_c, 1, 60, 72
7, 31019, Note_on_c, 1, 60, 0
7, 31020, Note_on_c, 1, 55, 72
7, 31020, Note_on_c, 1, 48, 72
7, 31079, Note_on_c, 1, 48, 0
7, 31079, Note_on_c, 1, 55, 0
7, 31080, Note_on_c, 1, 48, 72
7, 31080, Note_on_c, 1, 60, 72
7, 31139, Note_on_c, 1, 48, 0
7, 31140, Note_on_c, 1, 48, 72
7, 31199, Note_on_c, 1, 48, 0
7, 31200, Note_on_c, 1, 50, 72
7, 31229, Note_on_c, 1, 50, 0
7, 31230, Note_on_c, 1, 52, 72
7, 31259, Note_on_c, 1, 52, 0
7, 31259, Note_on_c, 1, 60, 0
7, 31260, Note_on_c, 1, 50, 72
7, 31260, Note_on_c, 1, 58, 72
7, 31289, Note_on_c, 1, 58, 0
7, 31289, Note_on_c, 1, 50, 0
7, 31290, Note_on_c, 1, 48, 72
7, 31290, Note_on_c, 1, 57, 72
7, 31319, Note_on_c, 1, 57, 0
7, 31319, Note_on_c, 1, 48, 0
7, 31320, Note_on_c, 1, 50, 72
7, 31320, Note_on_c, 1, 58, 72
7, 31349, Note_on_c, 1, 58, 0
7, 31349, Note_on_c, 1, 50, 0
7, 31350, Note_on_c, 1, 52, 72
7, 31350, Note_on_c, 1, 60, 72
7, 31379, Note_on_c, 1, 60, 0
7, 31379, Note_on_c, 1, 52, 0
7, 31380, Note_on_c, 1, 48, 72
7, 31380, Note_on_c, 1, 57, 72
7, 31409, Note_on_c, 1, 57, 0
7, 31409, Note_on_c, 1, 48, 0
7, 31410, Note_on_c, 1, 50, 72
7, 31410, Note_on_c, 1, 58, 72
7, 31439, Note_on_c, 1, 58, 0
7, 31439, Note_on_c, 1, 50, 0
7, 31440, Note_on_c, 1, 52, 72
7, 31440, Note_on_c, 1, 55, 72
7, 31469, Note_on_c, 1, 52, 0
7, 31470, Note_on_c, 1, 53, 72
7, 31499, Note_on_c, 1, 53, 0
7, 31499, Note_on_c, 1, 55, 0
7, 31500, Note_on_c, 1, 57, 72
7, 31500, Note_on_c, 1, 52, 72
7, 31529, Note_on_c, 1, 52, 0
7, 31529, Note_on_c, 1, 57, 0
7, 31530, Note_on_c, 1, 50, 72
7, 31530, Note_on_c, 1, 58, 72
7, 31559, Note_on_c, 1, 58, 0
7, 31559, Note_on_c, 1, 50, 0
7, 31560, Note_on_c, 1, 52, 72
7, 31560, Note_on_c, 1, 60, 72
7, 31589, Note_on_c, 1, 52, 0
7, 31590, Note_on_c, 1, 53, 72
7, 31619, Note_on_c, 1, 53, 0
7, 31620, Note_on_c, 1, 50, 72
7, 31649, Note_on_c, 1, 50, 0
7, 31650, Note_on_c, 1, 52, 72
7, 31679, Note_on_c, 1, 52, 0
7, 31679, Note_on_c, 1, 60, 0
7, 31680, Note_on_c, 1, 53, 72
7, 31739, Note_on_c, 1, 53, 0
7, 31740, Note_on_c, 1, 55, 72
7, 31769, Note_on_c, 1, 55, 0
7, 31770, Note_on_c, 1, 53, 72
7, 31799, Note_on_c, 1, 53, 0
7, 31800, Note_on_c, 1, 52, 72
7, 31829, Note_on_c, 1, 52, 0
7, 31830, Note_on_c, 1, 50, 72
7, 31859, Note_on_c, 1, 50, 0
7, 31860, Note_on_c, 1, 48, 72
7, 31889, Note_on_c, 1, 48, 0
7, 31890, Note_on_c, 1, 46, 72
7, 31919, Note_on_c, 1, 46, 0
7, 31920, Note_on_c, 1, 45, 72
7, 31979, Note_on_c, 1, 45, 0
7, 31980, Note_on_c, 1, 48, 72
7, 32039, Note_on_c, 1, 48, 0
7, 32040, Note_on_c, 1, 53, 72
7, 32099, Note_on_c, 1, 53, 0
7, 32100, Note_on_c, 1, 51, 72
7, 32159, Note_on_c, 1, 51, 0
7, 32160, Note_on_c, 1, 50, 72
7, 32160, Note_on_c, 1, 62, 72
7, 32219, Note_on_c, 1, 50, 0
7, 32220, Note_on_c, 1, 60, 72
7, 32339, Note_on_c, 1, 60, 0
7, 32339, Note_on_c, 1, 62, 0
7, 32340, Note_on_c, 1, 62, 72
7, 32340, Note_on_c, 1, 58, 72
7, 32369, Note_on_c, 1, 58, 0
7, 32370, Note_on_c, 1, 57, 72
7, 32399, Note_on_c, 1, 57, 0
7, 32399, Note_on_c, 1, 62, 0
7, 32400, Note_on_c, 1, 55, 72
7, 32400, Note_on_c, 1, 58, 72
7, 32429, Note_on_c, 1, 55, 0
7, 32430, Note_on_c, 1, 53, 72
7, 32459, Note_on_c, 1, 53, 0
7, 32460, Note_on_c, 1, 51, 72
7, 32489, Note_on_c, 1, 51, 0
7, 32490, Note_on_c, 1, 50, 72
7, 32519, Note_on_c, 1, 50, 0
7, 32519, Note_on_c, 1, 58, 0
7, 32520, Note_on_c, 1, 48, 72
7, 32520, Note_on_c, 1, 63, 72
7, 32549, Note_on_c, 1, 48, 0
7, 32550, Note_on_c, 1, 50, 72
7, 32579, Note_on_c, 1, 50, 0
7, 32580, Note_on_c, 1, 46, 72
7, 32609, Note_on_c, 1, 46, 0
7, 32610, Note_on_c, 1, 48, 72
7, 32639, Note_on_c, 1, 48, 0
7, 32639, Note_on_c, 1, 63, 0
7, 32640, Note_on_c, 1, 54, 72
7, 32640, Note_on_c, 1, 50, 72
7, 32819, Note_on_c, 1, 50, 0
7, 32819, Note_on_c, 1, 54, 0
7, 32820, Note_on_c, 1, 54, 72
7, 32820, Note_on_c, 1, 50, 72
7, 32879, Note_on_c, 1, 50, 0
7, 32879, Note_on_c, 1, 54, 0
7, 32880, Note_on_c, 1, 55, 72
7, 32880, Note_on_c, 1, 43, 72
7, 32999, Note_on_c, 1, 43, 0
7, 32999, Note_on_c, 1, 55, 0
7, 33060, Note_on_c, 1, 55, 72
7, 33119, Note_on_c, 1, 55, 0
7, 33120, Note_on_c, 1, 57, 72
7, 33299, Note_on_c, 1, 57, 0
7, 33300, Note_on_c, 1, 55, 72
7, 33329, Note_on_c, 1, 55, 0
7, 33330, Note_on_c, 1, 57, 72
7, 33359, Note_on_c, 1, 57, 0
7, 33360, Note_on_c, 1, 58, 72
7, 33419, Note_on_c, 1, 58, 0
7, 33420, Note_on_c, 1, 57, 72
7, 33449, Note_on_c, 1, 57, 0
7, 33450, Note_on_c, 1, 58, 72
7, 33479, Note_on_c, 1, 58, 0
7, 33480, Note_on_c, 1, 60, 72
7, 33539, Note_on_c, 1, 60, 0
7, 33540, Note_on_c, 1, 58, 72
7, 33569, Note_on_c, 1, 58, 0
7, 33570, Note_on_c, 1, 60, 72
7, 33599, Note_on_c, 1, 60, 0
7, 33600, Note_on_c, 1, 62, 72
7, 33659, Note_on_c, 1, 62, 0
7, 33660, Note_on_c, 1, 60, 72
7, 33719, Note_on_c, 1, 60, 0
7, 33720, Note_on_c, 1, 58, 72
7, 33779, Note_on_c, 1, 58, 0
7, 33780, Note_on_c, 1, 57, 72
7, 33839, Note_on_c, 1, 57, 0
7, 33840, Note_on_c, 1, 55, 72
7, 33840, Note_on_c, 1, 55, 72
7, 33899, Note_on_c, 1, 55, 0
7, 33900, Note_on_c, 1, 65, 72
7, 33959, Note_on_c, 1, 65, 0
7, 33960, Note_on_c, 1, 63, 72
7, 34019, Note_on_c, 1, 63, 0
7, 34019, Note_on_c, 1, 55, 0
7, 34020, Note_on_c, 1, 59, 72
7, 34020, Note_on_c, 1, 55, 72
7, 34079, Note_on_c, 1, 55, 0
7, 34079, Note_on_c, 1, 59, 0
7, 34080, Note_on_c, 1, 60, 72
7, 34080, Note_on_c, 1, 51, 72
7, 34125, Note_on_c, 1, 67, 72
7, 34139, Note_on_c, 1, 60, 0
7, 34184, Note_on_c, 1, 67, 0
7, 34199, Note_on_c, 1, 51, 0
7, 34200, Note_on_c, 1, 56, 72
7, 34200, Note_on_c, 1, 65, 72
7, 34229, Note_on_c, 1, 65, 0
7, 34230, Note_on_c, 1, 63, 72
7, 34259, Note_on_c, 1, 63, 0
7, 34260, Note_on_c, 1, 62, 72
7, 34289, Note_on_c, 1, 62, 0
7, 34290, Note_on_c, 1, 60, 72
7, 34319, Note_on_c, 1, 60, 0
7, 34319, Note_on_c, 1, 56, 0
7, 34320, Note_on_c, 1, 47, 72
7, 34320, Note_on_c, 1, 62, 72
7, 34349, Note_on_c, 1, 62, 0
7, 34350, Note_on_c, 1, 60, 72
7, 34379, Note_on_c, 1, 60, 0
7, 34380, Note_on_c, 1, 59, 72
7, 34409, Note_on_c, 1, 59, 0
7, 34410, Note_on_c, 1, 57, 72
7, 34439, Note_on_c, 1, 57, 0
7, 34440, Note_on_c, 1, 55, 72
7, 34469, Note_on_c, 1, 55, 0
7, 34470, Note_on_c, 1, 56, 72
7, 34499, Note_on_c, 1, 56, 0
7, 34499, Note_on_c, 1, 47, 0
7, 34500, Note_on_c, 1, 47, 72
7, 34500, Note_on_c, 1, 53, 72
7, 34529, Note_on_c, 1, 53, 0
7, 34530, Note_on_c, 1, 55, 72
7, 34559, Note_on_c, 1, 55, 0
7, 34559, Note_on_c, 1, 47, 0
7, 34560, Note_on_c, 1, 51, 72
7, 34560, Note_on_c, 1, 48, 72
7, 34619, Note_on_c, 1, 51, 0
7, 34620, Note_on_c, 1, 48, 72
7, 34679, Note_on_c, 1, 48, 0
7, 34679, Note_on_c, 1, 48, 0
7, 34680, Note_on_c, 1, 56, 72
7, 34740, Note_on_c, 1, 48, 72
7, 34799, Note_on_c, 1, 48, 0
7, 34800, Note_on_c, 1, 50, 72
7, 34859, Note_on_c, 1, 56, 0
7, 34860, Note_on_c, 1, 53, 72
7, 34919, Note_on_c, 1, 53, 0
7, 34920, Note_on_c, 1, 58, 72
7, 34979, Note_on_c, 1, 50, 0
7, 34980, Note_on_c, 1, 48, 72
7, 35009, Note_on_c, 1, 48, 0
7, 35010, Note_on_c, 1, 50, 72
7, 35039, Note_on_c, 1, 50, 0
7, 35040, Note_on_c, 1, 51, 72
7, 35099, Note_on_c, 1, 51, 0
7, 35100, Note_on_c, 1, 50, 72
7, 35129, Note_on_c, 1, 50, 0
7, 35130, Note_on_c, 1, 51, 72
7, 35159, Note_on_c, 1, 51, 0
7, 35159, Note_on_c, 1, 58, 0
7, 35160, Note_on_c, 1, 56, 72
7, 35160, Note_on_c, 1, 53, 72
7, 35219, Note_on_c, 1, 53, 0
7, 35220, Note_on_c, 1, 51, 72
7, 35249, Note_on_c, 1, 51, 0
7, 35250, Note_on_c, 1, 53, 72
7, 35279, Note_on_c, 1, 53, 0
7, 35279, Note_on_c, 1, 56, 0
7, 35280, Note_on_c, 1, 55, 72
7, 35339, Note_on_c, 1, 55, 0
7, 35340, Note_on_c, 1, 53, 72
7, 35340, Note_on_c, 1, 57, 72
7, 35369, Note_on_c, 1, 57, 0
7, 35370, Note_on_c, 1, 59, 72
7, 35399, Note_on_c, 1, 59, 0
7, 35399, Note_on_c, 1, 53, 0
7, 35400, Note_on_c, 1, 51, 72
7, 35400, Note_on_c, 1, 60, 72
7, 35459, Note_on_c, 1, 60, 0
7, 35459, Note_on_c, 1, 51, 0
7, 35460, Note_on_c, 1, 50, 72
7, 35460, Note_on_c, 1, 62, 72
7, 35519, Note_on_c, 1, 62, 0
7, 35519, Note_on_c, 1, 50, 0
7, 35520, Note_on_c, 1, 63, 72
7, 35520, Note_on_c, 1, 48, 72
7, 35549, Note_on_c, 1, 63, 0
7, 35550, Note_on_c, 1, 62, 72
7, 35579, Note_on_c, 1, 62, 0
7, 35579, Note_on_c, 1, 48, 0
7, 35580, Note_on_c, 1, 60, 72
7, 35580, Note_on_c, 1, 50, 72
7, 35609, Note_on_c, 1, 50, 0
7, 35609, Note_on_c, 1, 60, 0
7, 35610, Note_on_c, 1, 58, 72
7, 35610, Note_on_c, 1, 51, 72
7, 35639, Note_on_c, 1, 51, 0
7, 35639, Note_on_c, 1, 58, 0
7, 35640, Note_on_c, 1, 57, 72
7, 35640, Note_on_c, 1, 53, 72
7, 35699, Note_on_c, 1, 57, 0
7, 35700, Note_on_c, 1, 58, 72
7, 35819, Note_on_c, 1, 58, 0
7, 35819, Note_on_c, 1, 53, 0
7, 35820, Note_on_c, 1, 57, 72
7, 35820, Note_on_c, 1, 51, 72
7, 35879, Note_on_c, 1, 51, 0
7, 35879, Note_on_c, 1, 57, 0
7, 35880, Note_on_c, 1, 58, 72
7, 35880, Note_on_c, 1, 50, 72
7, 35939, Note_on_c, 1, 50, 0
7, 35939, Note_on_c, 1, 58, 0
7, 35940, Note_on_c, 1, 60, 72
7, 35940, Note_on_c, 1, 48, 72
7, 35999, Note_on_c, 1, 48, 0
7, 35999, Note_on_c, 1, 60, 0
7, 36000, Note_on_c, 1, 62, 72
7, 36000, Note_on_c, 1, 46, 72
7, 36059, Note_on_c, 1, 46, 0
7, 36060, Note_on_c, 1, 55, 72
7, 36089, Note_on_c, 1, 55, 0
7, 36090, Note_on_c, 1, 53, 72
7, 36119, Note_on_c, 1, 53, 0
7, 36119, Note_on_c, 1, 62, 0
7, 36120, Note_on_c, 1, 51, 72
7, 36149, Note_on_c, 1, 51, 0
7, 36150, Note_on_c, 1, 48, 72
7, 36179, Note_on_c, 1, 48, 0
7, 36180, Note_on_c, 1, 50, 72
7, 36209, Note_on_c, 1, 50, 0
7, 36210, Note_on_c, 1, 51, 72
7, 36239, Note_on_c, 1, 51, 0
7, 36240, Note_on_c, 1, 53, 72
7, 36300, Note_on_c, 1, 53, 72
7, 36359, Note_on_c, 1, 53, 0
7, 36359, Note_on_c, 1, 53, 0
7, 36360, Note_on_c, 1, 53, 72
7, 36419, Note_on_c, 1, 53, 0
7, 36420, Note_on_c, 1, 53, 72
7, 36479, Note_on_c, 1, 53, 0
7, 36480, Note_on_c, 1, 55, 72
7, 36509, Note_on_c, 1, 55, 0
7, 36510, Note_on_c, 1, 57, 72
7, 36539, Note_on_c, 1, 57, 0
7, 36540, Note_on_c, 1, 55, 72
7, 36569, Note_on_c, 1, 55, 0
7, 36570, Note_on_c, 1, 53, 72
7, 36599, Note_on_c, 1, 53, 0
7, 36600, Note_on_c, 1, 55, 72
7, 36629, Note_on_c, 1, 55, 0
7, 36630, Note_on_c, 1, 57, 72
7, 36659, Note_on_c, 1, 57, 0
7, 36660, Note_on_c, 1, 53, 72
7, 36689, Note_on_c, 1, 53, 0
7, 36690, Note_on_c, 1, 55, 72
7, 36719, Note_on_c, 1, 55, 0
7, 36720, Note_on_c, 1, 57, 72
7, 36720, Note_on_c, 1, 53, 72
7, 36749, Note_on_c, 1, 57, 0
7, 36750, Note_on_c, 1, 58, 72
7, 36779, Note_on_c, 1, 58, 0
7, 36780, Note_on_c, 1, 57, 72
7, 36809, Note_on_c, 1, 57, 0
7, 36810, Note_on_c, 1, 55, 72
7, 36839, Note_on_c, 1, 55, 0
7, 36840, Note_on_c, 1, 57, 72
7, 36869, Note_on_c, 1, 57, 0
7, 36870, Note_on_c, 1, 58, 72
7, 36899, Note_on_c, 1, 58, 0
7, 36899, Note_on_c, 1, 53, 0
7, 36900, Note_on_c, 1, 55, 72
7, 36900, Note_on_c, 1, 53, 72
7, 36929, Note_on_c, 1, 55, 0
7, 36930, Note_on_c, 1, 57, 72
7, 36959, Note_on_c, 1, 57, 0
7, 36959, Note_on_c, 1, 53, 0
7, 36960, Note_on_c, 1, 58, 72
7, 36960, Note_on_c, 1, 50, 72
7, 37079, Note_on_c, 1, 50, 0
7, 37079, Note_on_c, 1, 58, 0
7, 37080, Note_on_c, 1, 55, 72
7, 37199, Note_on_c, 1, 55, 0
7, 37200, Note_on_c, 1, 45, 72
7, 37260, Note_on_c, 1, 60, 72
7, 37319, Note_on_c, 1, 60, 0
7, 37320, Note_on_c, 1, 60, 72
7, 37379, Note_on_c, 1, 60, 0
7, 37379, Note_on_c, 1, 45, 0
7, 37380, Note_on_c, 1, 45, 72
7, 37380, Note_on_c, 1, 60, 72
7, 37439, Note_on_c, 1, 60, 0
7, 37439, Note_on_c, 1, 45, 0
7, 37440, Note_on_c, 1, 62, 72
7, 37440, Note_on_c, 1, 46, 72
7, 37469, Note_on_c, 1, 62, 0
7, 37470, Note_on_c, 1, 63, 72
7, 37499, Note_on_c, 1, 63, 0
7, 37500, Note_on_c, 1, 62, 72
7, 37529, Note_on_c, 1, 62, 0
7, 37530, Note_on_c, 1, 60, 72
7, 37559, Note_on_c, 1, 60, 0
7, 37559, Note_on_c, 1, 46, 0
7, 37560, Note_on_c, 1, 62, 72
7, 37589, Note_on_c, 1, 62, 0
7, 37590, Note_on_c, 1, 63, 72
7, 37619, Note_on_c, 1, 63, 0
7, 37620, Note_on_c, 1, 60, 72
7, 37620, Note_on_c, 1, 46, 72
7, 37649, Note_on_c, 1, 60, 0
7, 37650, Note_on_c, 1, 62, 72
7, 37679, Note_on_c, 1, 62, 0
7, 37679, Note_on_c, 1, 46, 0
7, 37680, Note_on_c, 1, 63, 72
7, 37680, Note_on_c, 1, 48, 72
7, 37709, Note_on_c, 1, 63, 0
7, 37710, Note_on_c, 1, 65, 72
7, 37739, Note_on_c, 1, 65, 0
7, 37740, Note_on_c, 1, 63, 72
7, 37769, Note_on_c, 1, 63, 0
7, 37770, Note_on_c, 1, 62, 72
7, 37799, Note_on_c, 1, 62, 0
7, 37800, Note_on_c, 1, 63, 72
7, 37829, Note_on_c, 1, 63, 0
7, 37830, Note_on_c, 1, 65, 72
7, 37859, Note_on_c, 1, 65, 0
7, 37859, Note_on_c, 1, 48, 0
7, 37860, Note_on_c, 1, 62, 72
7, 37860, Note_on_c, 1, 46, 72
7, 37889, Note_on_c, 1, 46, 0
7, 37889, Note_on_c, 1, 62, 0
7, 37890, Note_on_c, 1, 63, 72
7, 37890, Note_on_c, 1, 48, 72
7, 37919, Note_on_c, 1, 48, 0
7, 37919, Note_on_c, 1, 63, 0
7, 37920, Note_on_c, 1, 50, 72
7, 37920, Note_on_c, 1, 65, 72
7, 37979, Note_on_c, 1, 65, 0
7, 37979, Note_on_c, 1, 50, 0
7, 37980, Note_on_c, 1, 62, 72
7, 37980, Note_on_c, 1, 58, 72
7, 38009, Note_on_c, 1, 58, 0
7, 38010, Note_on_c, 1, 57, 72
7, 38039, Note_on_c, 1, 57, 0
7, 38039, Note_on_c, 1, 62, 0
7, 38040, Note_on_c, 1, 64, 72
7, 38040, Note_on_c, 1, 55, 72
7, 38099, Note_on_c, 1, 55, 0
7, 38099, Note_on_c, 1, 64, 0
7, 38100, Note_on_c, 1, 65, 72
7, 38100, Note_on_c, 1, 53, 72
7, 38159, Note_on_c, 1, 53, 0
7, 38159, Note_on_c, 1, 65, 0
7, 38160, Note_on_c, 1, 52, 72
7, 38160, Note_on_c, 1, 67, 72
7, 38219, Note_on_c, 1, 52, 0
7, 38220, Note_on_c, 1, 55, 72
7, 38279, Note_on_c, 1, 55, 0
7, 38279, Note_on_c, 1, 67, 0
7, 38280, Note_on_c, 1, 48, 72
7, 38280, Note_on_c, 1, 65, 72
7, 38339, Note_on_c, 1, 65, 0
7, 38340, Note_on_c, 1, 64, 72
7, 38399, Note_on_c, 1, 64, 0
7, 38399, Note_on_c, 1, 48, 0
7, 38400, Note_on_c, 1, 65, 72
7, 38459, Note_on_c, 1, 65, 0
7, 38460, Note_on_c, 1, 53, 72
7, 38519, Note_on_c, 1, 53, 0
7, 38520, Note_on_c, 1, 58, 72
7, 38579, Note_on_c, 1, 58, 0
7, 38580, Note_on_c, 1, 55, 72
7, 38639, Note_on_c, 1, 55, 0
7, 38640, Note_on_c, 1, 60, 72
7, 38700, Note_on_c, 1, 48, 72
7, 38759, Note_on_c, 1, 48, 0
7, 38759, Note_on_c, 1, 60, 0
7, 38760, Note_on_c, 1, 48, 72
7, 38819, Note_on_c, 1, 48, 0
7, 38820, Note_on_c, 1, 48, 72
7, 38879, Note_on_c, 1, 48, 0
7, 38880, Note_on_c, 1, 49, 72
7, 38909, Note_on_c, 1, 49, 0
7, 38910, Note_on_c, 1, 51, 72
7, 38939, Note_on_c, 1, 51, 0
7, 38940, Note_on_c, 1, 49, 72
7, 38969, Note_on_c, 1, 49, 0
7, 38970, Note_on_c, 1, 48, 72
7, 38999, Note_on_c, 1, 48, 0
7, 39000, Note_on_c, 1, 50, 72
7, 39029, Note_on_c, 1, 50, 0
7, 39030, Note_on_c, 1, 51, 72
7, 39059, Note_on_c, 1, 51, 0
7, 39060, Note_on_c, 1, 48, 72
7, 39089, Note_on_c, 1, 48, 0
7, 39090, Note_on_c, 1, 50, 72
7, 39119, Note_on_c, 1, 50, 0
7, 39120, Note_on_c, 1, 51, 72
7, 39149, Note_on_c, 1, 51, 0
7, 39150, Note_on_c, 1, 53, 72
7, 39179, Note_on_c, 1, 53, 0
7, 39180, Note_on_c, 1, 51, 72
7, 39180, Note_on_c, 1, 55, 72
7, 39209, Note_on_c, 1, 51, 0
7, 39210, Note_on_c, 1, 50, 72
7, 39239, Note_on_c, 1, 50, 0
7, 39239, Note_on_c, 1, 55, 0
7, 39240, Note_on_c, 1, 52, 72
7, 39240, Note_on_c, 1, 55, 72
7, 39269, Note_on_c, 1, 52, 0
7, 39270, Note_on_c, 1, 53, 72
7, 39299, Note_on_c, 1, 53, 0
7, 39299, Note_on_c, 1, 55, 0
7, 39300, Note_on_c, 1, 50, 72
7, 39300, Note_on_c, 1, 55, 72
7, 39329, Note_on_c, 1, 50, 0
7, 39330, Note_on_c, 1, 52, 72
7, 39359, Note_on_c, 1, 52, 0
7, 39359, Note_on_c, 1, 55, 0
7, 39360, Note_on_c, 1, 56, 72
7, 39360, Note_on_c, 1, 53, 72
7, 39389, Note_on_c, 1, 56, 0
7, 39390, Note_on_c, 1, 58, 72
7, 39419, Note_on_c, 1, 58, 0
7, 39419, Note_on_c, 1, 53, 0
7, 39420, Note_on_c, 1, 56, 72
7, 39420, Note_on_c, 1, 48, 72
7, 39449, Note_on_c, 1, 56, 0
7, 39450, Note_on_c, 1, 55, 72
7, 39479, Note_on_c, 1, 55, 0
7, 39479, Note_on_c, 1, 48, 0
7, 39480, Note_on_c, 1, 57, 72
7, 39480, Note_on_c, 1, 53, 72
7, 39509, Note_on_c, 1, 57, 0
7, 39510, Note_on_c, 1, 58, 72
7, 39539, Note_on_c, 1, 58, 0
7, 39539, Note_on_c, 1, 53, 0
7, 39540, Note_on_c, 1, 55, 72
7, 39540, Note_on_c, 1, 51, 72
7, 39569, Note_on_c, 1, 55, 0
7, 39570, Note_on_c, 1, 57, 72
7, 39599, Note_on_c, 1, 57, 0
7, 39599, Note_on_c, 1, 51, 0
7, 39600, Note_on_c, 1, 58, 72
7, 39600, Note_on_c, 1, 50, 72
7, 39629, Note_on_c, 1, 58, 0
7, 39630, Note_on_c, 1, 60, 72
7, 39659, Note_on_c, 1, 60, 0
7, 39659, Note_on_c, 1, 50, 0
7, 39660, Note_on_c, 1, 58, 72
7, 39660, Note_on_c, 1, 43, 72
7, 39689, Note_on_c, 1, 58, 0
7, 39690, Note_on_c, 1, 57, 72
7, 39719, Note_on_c, 1, 57, 0
7, 39719, Note_on_c, 1, 43, 0
7, 39720, Note_on_c, 1, 59, 72
7, 39720, Note_on_c, 1, 55, 72
7, 39749, Note_on_c, 1, 59, 0
7, 39750, Note_on_c, 1, 60, 72
7, 39779, Note_on_c, 1, 60, 0
7, 39779, Note_on_c, 1, 55, 0
7, 39780, Note_on_c, 1, 57, 72
7, 39780, Note_on_c, 1, 53, 72
7, 39809, Note_on_c, 1, 57, 0
7, 39810, Note_on_c, 1, 59, 72
7, 39839, Note_on_c, 1, 59, 0
7, 39839, Note_on_c, 1, 53, 0
7, 39840, Note_on_c, 1, 60, 72
7, 39840, Note_on_c, 1, 51, 72
7, 39899, Note_on_c, 1, 60, 0
7, 39900, Note_on_c, 1, 55, 72
7, 39959, Note_on_c, 1, 55, 0
7, 39959, Note_on_c, 1, 51, 0
7, 39960, Note_on_c, 1, 60, 72
7, 40019, Note_on_c, 1, 60, 0
7, 40020, Note_on_c, 1, 58, 72
7, 40079, Note_on_c, 1, 58, 0
7, 40080, Note_on_c, 1, 57, 72
7, 40139, Note_on_c, 1, 57, 0
7, 40140, Note_on_c, 1, 50, 72
7, 40199, Note_on_c, 1, 50, 0
7, 40200, Note_on_c, 1, 62, 72
7, 40259, Note_on_c, 1, 62, 0
7, 40260, Note_on_c, 1, 60, 72
7, 40319, Note_on_c, 1, 60, 0
7, 40320, Note_on_c, 1, 58, 72
7, 40439, Note_on_c, 1, 58, 0
7, 40620, Note_on_c, 1, 55, 72
7, 40620, Note_on_c, 1, 52, 72
7, 40679, Note_on_c, 1, 52, 0
7, 40679, Note_on_c, 1, 55, 0
7, 40680, Note_on_c, 1, 55, 72
7, 40680, Note_on_c, 1, 52, 72
7, 40739, Note_on_c, 1, 52, 0
7, 40739, Note_on_c, 1, 55, 0
7, 40740, Note_on_c, 1, 57, 72
7, 40740, Note_on_c, 1, 52, 72
7, 40799, Note_on_c, 1, 52, 0
7, 40799, Note_on_c, 1, 57, 0
7, 40800, Note_on_c, 1, 57, 72
7, 40800, Note_on_c, 1, 53, 72
7, 40829, Note_on_c, 1, 53, 0
7, 40830, Note_on_c, 1, 55, 72
7, 40859, Note_on_c, 1, 55, 0
7, 40860, Note_on_c, 1, 53, 72
7, 40889, Note_on_c, 1, 53, 0
7, 40890, Note_on_c, 1, 52, 72
7, 40919, Note_on_c, 1, 52, 0
7, 40919, Note_on_c, 1, 57, 0
7, 40920, Note_on_c, 1, 54, 72
7, 40920, Note_on_c, 1, 57, 72
7, 40949, Note_on_c, 1, 54, 0
7, 40950, Note_on_c, 1, 55, 72
7, 40979, Note_on_c, 1, 55, 0
7, 40980, Note_on_c, 1, 52, 72
7, 41009, Note_on_c, 1, 52, 0
7, 41009, Note_on_c, 1, 57, 0
7, 41010, Note_on_c, 1, 54, 72
7, 41010, Note_on_c, 1, 57, 72
7, 41039, Note_on_c, 1, 57, 0
7, 41039, Note_on_c, 1, 54, 0
7, 41040, Note_on_c, 1, 59, 72
7, 41040, Note_on_c, 1, 55, 72
7, 41069, Note_on_c, 1, 55, 0
7, 41070, Note_on_c, 1, 57, 72
7, 41099, Note_on_c, 1, 57, 0
7, 41100, Note_on_c, 1, 55, 72
7, 41129, Note_on_c, 1, 55, 0
7, 41130, Note_on_c, 1, 54, 72
7, 41159, Note_on_c, 1, 54, 0
7, 41159, Note_on_c, 1, 59, 0
7, 41160, Note_on_c, 1, 56, 72
7, 41160, Note_on_c, 1, 59, 72
7, 41189, Note_on_c, 1, 56, 0
7, 41190, Note_on_c, 1, 57, 72
7, 41219, Note_on_c, 1, 57, 0
7, 41219, Note_on_c, 1, 59, 0
7, 41220, Note_on_c, 1, 53, 72
7, 41249, Note_on_c, 1, 53, 0
7, 41250, Note_on_c, 1, 56, 72
7, 41250, Note_on_c, 1, 59, 72
7, 41279, Note_on_c, 1, 59, 0
7, 41279, Note_on_c, 1, 56, 0
7, 41280, Note_on_c, 1, 61, 72
7, 41280, Note_on_c, 1, 57, 72
7, 41339, Note_on_c, 1, 57, 0
7, 41339, Note_on_c, 1, 61, 0
7, 41340, Note_on_c, 1, 57, 72
7, 41340, Note_on_c, 1, 57, 72
7, 41399, Note_on_c, 1, 57, 0
7, 41400, Note_on_c, 1, 59, 72
7, 41459, Note_on_c, 1, 59, 0
7, 41459, Note_on_c, 1, 57, 0
7, 41460, Note_on_c, 1, 61, 72
7, 41460, Note_on_c, 1, 57, 72
7, 41519, Note_on_c, 1, 57, 0
7, 41519, Note_on_c, 1, 61, 0
7, 41520, Note_on_c, 1, 62, 72
7, 41520, Note_on_c, 1, 53, 72
7, 41639, Note_on_c, 1, 53, 0
7, 41640, Note_on_c, 1, 58, 72
7, 41699, Note_on_c, 1, 62, 0
7, 41700, Note_on_c, 1, 62, 72
7, 41759, Note_on_c, 1, 62, 0
7, 41759, Note_on_c, 1, 58, 0
7, 41760, Note_on_c, 1, 64, 72
7, 41760, Note_on_c, 1, 49, 72
7, 41879, Note_on_c, 1, 64, 0
7, 41880, Note_on_c, 1, 57, 72
7, 41939, Note_on_c, 1, 49, 0
7, 41940, Note_on_c, 1, 49, 72
7, 41999, Note_on_c, 1, 49, 0
7, 42000, Note_on_c, 1, 50, 72
7, 42059, Note_on_c, 1, 57, 0
7, 42060, Note_on_c, 1, 53, 72
7, 42119, Note_on_c, 1, 53, 0
7, 42119, Note_on_c, 1, 50, 0
7, 42120, Note_on_c, 1, 58, 72
7, 42180, Note_on_c, 1, 50, 72
7, 42239, Note_on_c, 1, 50, 0
7, 42240, Note_on_c, 1, 52, 72
7, 42299, Note_on_c, 1, 58, 0
7, 42300, Note_on_c, 1, 55, 72
7, 42359, Note_on_c, 1, 55, 0
7, 42360, Note_on_c, 1, 64, 72
7, 42419, Note_on_c, 1, 64, 0
7, 42419, Note_on_c, 1, 52, 0
7, 42420, Note_on_c, 1, 64, 72
7, 42420, Note_on_c, 1, 50, 72
7, 42449, Note_on_c, 1, 50, 0
7, 42450, Note_on_c, 1, 52, 72
7, 42479, Note_on_c, 1, 52, 0
7, 42479, Note_on_c, 1, 64, 0
7, 42480, Note_on_c, 1, 62, 72
7, 42480, Note_on_c, 1, 53, 72
7, 42539, Note_on_c, 1, 53, 0
7, 42539, Note_on_c, 1, 62, 0
7, 42540, Note_on_c, 1, 61, 72
7, 42540, Note_on_c, 1, 52, 72
7, 42569, Note_on_c, 1, 52, 0
7, 42569, Note_on_c, 1, 61, 0
7, 42570, Note_on_c, 1, 62, 72
7, 42570, Note_on_c, 1, 53, 72
7, 42599, Note_on_c, 1, 53, 0
7, 42599, Note_on_c, 1, 62, 0
7, 42600, Note_on_c, 1, 64, 72
7, 42600, Note_on_c, 1, 55, 72
7, 42629, Note_on_c, 1, 64, 0
7, 42630, Note_on_c, 1, 65, 72
7, 42659, Note_on_c, 1, 65, 0
7, 42659, Note_on_c, 1, 55, 0
7, 42660, Note_on_c, 1, 67, 72
7, 42660, Note_on_c, 1, 53, 72
7, 42689, Note_on_c, 1, 53, 0
7, 42689, Note_on_c, 1, 67, 0
7, 42690, Note_on_c, 1, 65, 72
7, 42690, Note_on_c, 1, 55, 72
7, 42719, Note_on_c, 1, 55, 0
7, 42719, Note_on_c, 1, 65, 0
7, 42720, Note_on_c, 1, 64, 72
7, 42720, Note_on_c, 1, 57, 72
7, 42779, Note_on_c, 1, 57, 0
7, 42779, Note_on_c, 1, 64, 0
7, 42780, Note_on_c, 1, 62, 72
7, 42780, Note_on_c, 1, 58, 72
7, 42809, Note_on_c, 1, 58, 0
7, 42810, Note_on_c, 1, 57, 72
7, 42839, Note_on_c, 1, 57, 0
7, 42839, Note_on_c, 1, 62, 0
7, 42840, Note_on_c, 1, 55, 72
7, 42840, Note_on_c, 1, 61, 72
7, 42869, Note_on_c, 1, 55, 0
7, 42870, Note_on_c, 1, 53, 72
7, 42899, Note_on_c, 1, 53, 0
7, 42900, Note_on_c, 1, 52, 72
7, 42929, Note_on_c, 1, 52, 0
7, 42929, Note_on_c, 1, 61, 0
7, 42930, Note_on_c, 1, 50, 72
7, 42930, Note_on_c, 1, 62, 72
7, 42959, Note_on_c, 1, 62, 0
7, 42959, Note_on_c, 1, 50, 0
7, 42960, Note_on_c, 1, 64, 72
7, 42960, Note_on_c, 1, 49, 72
7, 43079, Note_on_c, 1, 49, 0
7, 43079, Note_on_c, 1, 64, 0
7, 43080, Note_on_c, 1, 57, 72
7, 43080, Note_on_c, 1, 50, 72
7, 43139, Note_on_c, 1, 50, 0
7, 43139, Note_on_c, 1, 57, 0
7, 43140, Note_on_c, 1, 61, 72
7, 43140, Note_on_c, 1, 57, 72
7, 43199, Note_on_c, 1, 57, 0
7, 43199, Note_on_c, 1, 61, 0
7, 43200, Note_on_c, 1, 62, 72
7, 43200, Note_on_c, 1, 58, 72
7, 43259, Note_on_c, 1, 62, 0
7, 43260, Note_on_c, 1, 65, 72
7, 43319, Note_on_c, 1, 65, 0
7, 43320, Note_on_c, 1, 64, 72
7, 43379, Note_on_c, 1, 64, 0
7, 43379, Note_on_c, 1, 58, 0
7, 43380, Note_on_c, 1, 62, 72
7, 43380, Note_on_c, 1, 58, 72
7, 43439, Note_on_c, 1, 58, 0
7, 43439, Note_on_c, 1, 62, 0
7, 43440, Note_on_c, 1, 64, 72
7, 43440, Note_on_c, 1, 57, 72
7, 43499, Note_on_c, 1, 64, 0
7, 43500, Note_on_c, 1, 57, 72
7, 43559, Note_on_c, 1, 57, 0
7, 43559, Note_on_c, 1, 57, 0
7, 43560, Note_on_c, 1, 59, 72
7, 43619, Note_on_c, 1, 59, 0
7, 43620, Note_on_c, 1, 61, 72
7, 43679, Note_on_c, 1, 61, 0
7, 43680, Note_on_c, 1, 62, 72
7, 43739, Note_on_c, 1, 62, 0
7, 43740, Note_on_c, 1, 50, 72
7, 43799, Note_on_c, 1, 50, 0
7, 43800, Note_on_c, 1, 55, 72
7, 43859, Note_on_c, 1, 55, 0
7, 43860, Note_on_c, 1, 52, 72
7, 43919, Note_on_c, 1, 52, 0
7, 43920, Note_on_c, 1, 57, 72
7, 43979, Note_on_c, 1, 57, 0
7, 43980, Note_on_c, 1, 58, 72
7, 43980, Note_on_c, 1, 45, 72
7, 44039, Note_on_c, 1, 45, 0
7, 44039, Note_on_c, 1, 58, 0
7, 44040, Note_on_c, 1, 57, 72
7, 44040, Note_on_c, 1, 45, 72
7, 44099, Note_on_c, 1, 45, 0
7, 44099, Note_on_c, 1, 57, 0
7, 44100, Note_on_c, 1, 55, 72
7, 44100, Note_on_c, 1, 45, 72
7, 44159, Note_on_c, 1, 45, 0
7, 44159, Note_on_c, 1, 55, 0
7, 44160, Note_on_c, 1, 53, 72
7, 44160, Note_on_c, 1, 46, 72
7, 44189, Note_on_c, 1, 46, 0
7, 44190, Note_on_c, 1, 48, 72
7, 44219, Note_on_c, 1, 48, 0
7, 44219, Note_on_c, 1, 53, 0
7, 44220, Note_on_c, 1, 50, 72
7, 44220, Note_on_c, 1, 46, 72
7, 44249, Note_on_c, 1, 46, 0
7, 44250, Note_on_c, 1, 45, 72
7, 44279, Note_on_c, 1, 45, 0
7, 44279, Note_on_c, 1, 50, 0
7, 44280, Note_on_c, 1, 55, 72
7, 44280, Note_on_c, 1, 47, 72
7, 44309, Note_on_c, 1, 47, 0
7, 44310, Note_on_c, 1, 48, 72
7, 44339, Note_on_c, 1, 48, 0
7, 44339, Note_on_c, 1, 55, 0
7, 44340, Note_on_c, 1, 53, 72
7, 44340, Note_on_c, 1, 45, 72
7, 44369, Note_on_c, 1, 45, 0
7, 44370, Note_on_c, 1, 47, 72
7, 44399, Note_on_c, 1, 47, 0
7, 44399, Note_on_c, 1, 53, 0
7, 44400, Note_on_c, 1, 52, 72
7, 44400, Note_on_c, 1, 48, 72
7, 44429, Note_on_c, 1, 48, 0
7, 44430, Note_on_c, 1, 50, 72
7, 44459, Note_on_c, 1, 50, 0
7, 44459, Note_on_c, 1, 52, 0
7, 44460, Note_on_c, 1, 48, 72
7, 44460, Note_on_c, 1, 48, 72
7, 44489, Note_on_c, 1, 48, 0
7, 44490, Note_on_c, 1, 47, 72
7, 44519, Note_on_c, 1, 47, 0
7, 44519, Note_on_c, 1, 48, 0
7, 44520, Note_on_c, 1, 57, 72
7, 44520, Note_on_c, 1, 49, 72
7, 44549, Note_on_c, 1, 49, 0
7, 44550, Note_on_c, 1, 50, 72
7, 44579, Note_on_c, 1, 50, 0
7, 44579, Note_on_c, 1, 57, 0
7, 44580, Note_on_c, 1, 57, 72
7, 44580, Note_on_c, 1, 47, 72
7, 44609, Note_on_c, 1, 47, 0
7, 44610, Note_on_c, 1, 49, 72
7, 44639, Note_on_c, 1, 49, 0
7, 44639, Note_on_c, 1, 57, 0
7, 44640, Note_on_c, 1, 53, 72
7, 44640, Note_on_c, 1, 50, 72
7, 44699, Note_on_c, 1, 50, 0
7, 44700, Note_on_c, 1, 50, 72
7, 44759, Note_on_c, 1, 50, 0
7, 44759, Note_on_c, 1, 53, 0
7, 44760, Note_on_c, 1, 62, 72
7, 44760, Note_on_c, 1, 55, 72
7, 44819, Note_on_c, 1, 55, 0
7, 44820, Note_on_c, 1, 53, 72
7, 44879, Note_on_c, 1, 53, 0
7, 44879, Note_on_c, 1, 62, 0
7, 44880, Note_on_c, 1, 55, 72
7, 44880, Note_on_c, 1, 52, 72
7, 44939, Note_on_c, 1, 52, 0
7, 44940, Note_on_c, 1, 52, 72
7, 44999, Note_on_c, 1, 52, 0
7, 44999, Note_on_c, 1, 55, 0
7, 45000, Note_on_c, 1, 57, 72
7, 45059, Note_on_c, 1, 57, 0
7, 45060, Note_on_c, 1, 55, 72
7, 45119, Note_on_c, 1, 55, 0
7, 45120, Note_on_c, 1, 53, 72
7, 45180, Note_on_c, 1, 57, 72
7, 45239, Note_on_c, 1, 57, 0
7, 45239, Note_on_c, 1, 53, 0
7, 45240, Note_on_c, 1, 62, 72
7, 45299, Note_on_c, 1, 62, 0
7, 45300, Note_on_c, 1, 60, 72
7, 45359, Note_on_c, 1, 60, 0
7, 45360, Note_on_c, 1, 59, 72
7, 45419, Note_on_c, 1, 59, 0
7, 45420, Note_on_c, 1, 59, 72
7, 45479, Note_on_c, 1, 59, 0
7, 45480, Note_on_c, 1, 64, 72
7, 45539, Note_on_c, 1, 64, 0
7, 45540, Note_on_c, 1, 62, 72
7, 45540, Note_on_c, 1, 55, 72
7, 45599, Note_on_c, 1, 55, 0
7, 45599, Note_on_c, 1, 62, 0
7, 45600, Note_on_c, 1, 60, 72
7, 45600, Note_on_c, 1, 57, 72
7, 45659, Note_on_c, 1, 57, 0
7, 45660, Note_on_c, 1, 45, 72
7, 45719, Note_on_c, 1, 45, 0
7, 45719, Note_on_c, 1, 60, 0
7, 45720, Note_on_c, 1, 50, 72
7, 45720, Note_on_c, 1, 62, 72
7, 45779, Note_on_c, 1, 50, 0
7, 45780, Note_on_c, 1, 48, 72
7, 45809, Note_on_c, 1, 62, 0
7, 45810, Note_on_c, 1, 62, 72
7, 45839, Note_on_c, 1, 62, 0
7, 45839, Note_on_c, 1, 48, 0
7, 45840, Note_on_c, 1, 47, 72
7, 45840, Note_on_c, 1, 62, 72
7, 45899, Note_on_c, 1, 47, 0
7, 45900, Note_on_c, 1, 47, 72
7, 45959, Note_on_c, 1, 47, 0
7, 45959, Note_on_c, 1, 62, 0
7, 45960, Note_on_c, 1, 52, 72
7, 45960, Note_on_c, 1, 64, 72
7, 46019, Note_on_c, 1, 52, 0
7, 46020, Note_on_c, 1, 50, 72
7, 46049, Note_on_c, 1, 64, 0
7, 46050, Note_on_c, 1, 64, 72
7, 46079, Note_on_c, 1, 64, 0
7, 46079, Note_on_c, 1, 50, 0
7, 46080, Note_on_c, 1, 64, 72
7, 46080, Note_on_c, 1, 49, 72
7, 46139, Note_on_c, 1, 49, 0
7, 46140, Note_on_c, 1, 57, 72
7, 46199, Note_on_c, 1, 57, 0
7, 46199, Note_on_c, 1, 64, 0
7, 46200, Note_on_c, 1, 58, 72
7, 46200, Note_on_c, 1, 62, 72
7, 46259, Note_on_c, 1, 62, 0
7, 46259, Note_on_c, 1, 58, 0
7, 46260, Note_on_c, 1, 65, 72
7, 46260, Note_on_c, 1, 55, 72
7, 46319, Note_on_c, 1, 55, 0
7, 46319, Note_on_c, 1, 65, 0
7, 46320, Note_on_c, 1, 64, 72
7, 46320, Note_on_c, 1, 57, 72
7, 46559, Note_on_c, 1, 57, 0
7, 46559, Note_on_c, 1, 64, 0
7, 46560, Note_on_c, 1, 65, 72
7, 46560, Note_on_c, 1, 56, 72
7, 46799, Note_on_c, 1, 56, 0
7, 46799, Note_on_c, 1, 65, 0
7, 46920, Note_on_c, 1, 65, 72
7, 46920, Note_on_c, 1, 56, 72
7, 47009, Note_on_c, 1, 56, 0
7, 47009, Note_on_c, 1, 65, 0
7, 47010, Note_on_c, 1, 65, 72
7, 47010, Note_on_c, 1, 56, 72
7, 47039, Note_on_c, 1, 56, 0
7, 47039, Note_on_c, 1, 65, 0
7, 47040, Note_on_c, 1, 64, 72
7, 47040, Note_on_c, 1, 57, 72
7, 47159, Note_on_c, 1, 57, 0
7, 47159, Note_on_c, 1, 64, 0
7, 47160, Note_on_c, 1, 65, 72
7, 47160, Note_on_c, 1, 53, 72
7, 47219, Note_on_c, 1, 53, 0
7, 47220, Note_on_c, 1, 50, 72
7, 47279, Note_on_c, 1, 50, 0
7, 47280, Note_on_c, 1, 57, 72
7, 47399, Note_on_c, 1, 57, 0
7, 47399, Note_on_c, 1, 65, 0
7, 47400, Note_on_c, 1, 64, 72
7, 47400, Note_on_c, 1, 45, 72
7, 47519, Note_on_c, 1, 45, 0
7, 47519, Note_on_c, 1, 64, 0
7, 47520, Note_on_c, 1, 62, 72
7, 47520, Note_on_c, 1, 50, 72
7, 47999, Note_on_c, 1, 50, 0
7, 47999, Note_on_c, 1, 62, 0
7, 47999, End_track
8, 0, Start_track
8, 0, Title_t, "Violin I"
8, 0, Program_c, 2, 48
8, 0, Control_c, 2, 7, 96
8, 0, Control_c, 2, 10, 48
8, 0, Control_c, 2, 11, 127
8, 540, Note_on_c, 2, 69, 48
8, 569, Note_on_c, 2, 69, 0
8, 660, Note_on_c, 2, 69, 48
8, 689, Note_on_c, 2, 69, 0
8, 780, Note_on_c, 2, 69, 48
8, 809, Note_on_c, 2, 69, 0
8, 900, Note_on_c, 2, 68, 48
8, 929, Note_on_c, 2, 68, 0
8, 1020, Note_on_c, 2, 69, 48
8, 1079, Note_on_c, 2, 69, 0
8, 1140, Note_on_c, 2, 71, 48
8, 1199, Note_on_c, 2, 71, 0
8, 1260, Note_on_c, 2, 72, 48
8, 1319, Note_on_c, 2, 72, 0
8, 1380, Note_on_c, 2, 72, 48
8, 1439, Note_on_c, 2, 72, 0
8, 1500, Note_on_c, 2, 70, 48
8, 1559, Note_on_c, 2, 70, 0
8, 1620, Note_on_c, 2, 64, 48
8, 1679, Note_on_c, 2, 64, 0
8, 1740, Note_on_c, 2, 69, 48
8, 1799, Note_on_c, 2, 69, 0
8, 1860, Note_on_c, 2, 68, 48
8, 1919, Note_on_c, 2, 68, 0
8, 1980, Note_on_c, 2, 72, 48
8, 2039, Note_on_c, 2, 72, 0
8, 2100, Note_on_c, 2, 71, 48
8, 2159, Note_on_c, 2, 71, 0
8, 2220, Note_on_c, 2, 72, 48
8, 2279, Note_on_c, 2, 72, 0
8, 2340, Note_on_c, 2, 76, 48
8, 2399, Note_on_c, 2, 76, 0
8, 2460, Note_on_c, 2, 74, 48
8, 2519, Note_on_c, 2, 74, 0
8, 2580, Note_on_c, 2, 74, 48
8, 2639, Note_on_c, 2, 74, 0
8, 2700, Note_on_c, 2, 72, 48
8, 2759, Note_on_c, 2, 72, 0
8, 2820, Note_on_c, 2, 71, 48
8, 2879, Note_on_c, 2, 71, 0
8, 2940, Note_on_c, 2, 69, 48
8, 2999, Note_on_c, 2, 69, 0
8, 3060, Note_on_c, 2, 82, 72
8, 3119, Note_on_c, 2, 82, 0
8, 3180, Note_on_c, 2, 81, 72
8, 3239, Note_on_c, 2, 81, 0
8, 3300, Note_on_c, 2, 85, 72
8, 3359, Note_on_c, 2, 85, 0
8, 3390, Note_on_c, 2, 86, 72
8, 3449, Note_on_c, 2, 86, 0
8, 3450, Note_on_c, 2, 74, 72
8, 3479, Note_on_c, 2, 74, 0
8, 3510, Note_on_c, 2, 74, 72
8, 3569, Note_on_c, 2, 74, 0
8, 3570, Note_on_c, 2, 62, 72
8, 3599, Note_on_c, 2, 62, 0
8, 3630, Note_on_c, 2, 70, 72
8, 3689, Note_on_c, 2, 70, 0
8, 3690, Note_on_c, 2, 58, 72
8, 3719, Note_on_c, 2, 58, 0
8, 3750, Note_on_c, 2, 76, 72
8, 3809, Note_on_c, 2, 76, 0
8, 3810, Note_on_c, 2, 64, 72
8, 3839, Note_on_c, 2, 64, 0
8, 3870, Note_on_c, 2, 77, 72
8, 3929, Note_on_c, 2, 77, 0
8, 3930, Note_on_c, 2, 65, 72
8, 3959, Note_on_c, 2, 65, 0
8, 3990, Note_on_c, 2, 71, 72
8, 4049, Note_on_c, 2, 71, 0
8, 4050, Note_on_c, 2, 59, 72
8, 4079, Note_on_c, 2, 59, 0
8, 4110, Note_on_c, 2, 69, 72
8, 4169, Note_on_c, 2, 69, 0
8, 4170, Note_on_c, 2, 57, 72
8, 4199, Note_on_c, 2, 57, 0
8, 4230, Note_on_c, 2, 79, 72
8, 4289, Note_on_c, 2, 79, 0
8, 4290, Note_on_c, 2, 67, 72
8, 4319, Note_on_c, 2, 67, 0
8, 4350, Note_on_c, 2, 77, 72
8, 4409, Note_on_c, 2, 77, 0
8, 4410, Note_on_c, 2, 65, 72
8, 4439, Note_on_c, 2, 65, 0
8, 4470, Note_on_c, 2, 74, 72
8, 4529, Note_on_c, 2, 74, 0
8, 4530, Note_on_c, 2, 62, 72
8, 4559, Note_on_c, 2, 62, 0
8, 4590, Note_on_c, 2, 72, 72
8, 4649, Note_on_c, 2, 72, 0
8, 4650, Note_on_c, 2, 60, 72
8, 4679, Note_on_c, 2, 60, 0
8, 4710, Note_on_c, 2, 77, 72
8, 4769, Note_on_c, 2, 77, 0
8, 4770, Note_on_c, 2, 65, 72
8, 4799, Note_on_c, 2, 65, 0
8, 4830, Note_on_c, 2, 76, 72
8, 4889, Note_on_c, 2, 76, 0
8, 4890, Note_on_c, 2, 64, 72
8, 4919, Note_on_c, 2, 64, 0
8, 4950, Note_on_c, 2, 78, 72
8, 5009, Note_on_c, 2, 78, 0
8, 5010, Note_on_c, 2, 66, 72
8, 5039, Note_on_c, 2, 66, 0
8, 5070, Note_on_c, 2, 79, 72
8, 5129, Note_on_c, 2, 79, 0
8, 5130, Note_on_c, 2, 67, 72
8, 5159, Note_on_c, 2, 67, 0
8, 5190, Note_on_c, 2, 82, 72
8, 5249, Note_on_c, 2, 82, 0
8, 5250, Note_on_c, 2, 70, 72
8, 5279, Note_on_c, 2, 70, 0
8, 5310, Note_on_c, 2, 81, 72
8, 5369, Note_on_c, 2, 81, 0
8, 5370, Note_on_c, 2, 69, 72
8, 5399, Note_on_c, 2, 69, 0
8, 5430, Note_on_c, 2, 86, 72
8, 5489, Note_on_c, 2, 86, 0
8, 5490, Note_on_c, 2, 74, 72
8, 5519, Note_on_c, 2, 74, 0
8, 5550, Note_on_c, 2, 88, 72
8, 5609, Note_on_c, 2, 88, 0
8, 5610, Note_on_c, 2, 76, 72
8, 5639, Note_on_c, 2, 76, 0
8, 5670, Note_on_c, 2, 76, 72
8, 5729, Note_on_c, 2, 76, 0
8, 5730, Note_on_c, 2, 64, 72
8, 5759, Note_on_c, 2, 64, 0
8, 5790, Note_on_c, 2, 81, 72
8, 5849, Note_on_c, 2, 81, 0
8, 5850, Note_on_c, 2, 69, 72
8, 5879, Note_on_c, 2, 69, 0
8, 5910, Note_on_c, 2, 79, 72
8, 5969, Note_on_c, 2, 79, 0
8, 5970, Note_on_c, 2, 67, 72
8, 5999, Note_on_c, 2, 67, 0
8, 6030, Note_on_c, 2, 77, 72
8, 6089, Note_on_c, 2, 77, 0
8, 6090, Note_on_c, 2, 65, 72
8, 6119, Note_on_c, 2, 65, 0
8, 6150, Note_on_c, 2, 81, 72
8, 6209, Note_on_c, 2, 81, 0
8, 6210, Note_on_c, 2, 69, 72
8, 6239, Note_on_c, 2, 69, 0
8, 6270, Note_on_c, 2, 86, 72
8, 6329, Note_on_c, 2, 86, 0
8, 6330, Note_on_c, 2, 74, 72
8, 6359, Note_on_c, 2, 74, 0
8, 6390, Note_on_c, 2, 86, 72
8, 6449, Note_on_c, 2, 86, 0
8, 6450, Note_on_c, 2, 74, 72
8, 6479, Note_on_c, 2, 74, 0
8, 6510, Note_on_c, 2, 81, 72
8, 6569, Note_on_c, 2, 81, 0
8, 6570, Note_on_c, 2, 69, 72
8, 6599, Note_on_c, 2, 69, 0
8, 6630, Note_on_c, 2, 82, 72
8, 6689, Note_on_c, 2, 82, 0
8, 6690, Note_on_c, 2, 76, 72
8, 6719, Note_on_c, 2, 76, 0
8, 6720, Note_on_c, 2, 77, 72
8, 6720, Note_on_c, 2, 72, 72
8, 6720, Note_on_c, 2, 65, 72
8, 6839, Note_on_c, 2, 65, 0
8, 6839, Note_on_c, 2, 72, 0
8, 6839, Note_on_c, 2, 77, 0
8, 6945, Note_on_c, 2, 67, 72
8, 6959, Note_on_c, 2, 67, 0
8, 6960, Note_on_c, 2, 65, 72
8, 6974, Note_on_c, 2, 65, 0
8, 6975, Note_on_c, 2, 64, 72
8, 6989, Note_on_c, 2, 64, 0
8, 6990, Note_on_c, 2, 65, 72
8, 7019, Note_on_c, 2, 65, 0
8, 7020, Note_on_c, 2, 69, 72
8, 7049, Note_on_c, 2, 69, 0
8, 7050, Note_on_c, 2, 65, 72
8, 7064, Note_on_c, 2, 65, 0
8, 7080, Note_on_c, 2, 60, 72
8, 7094, Note_on_c, 2, 60, 0
8, 7110, Note_on_c, 2, 65, 72
8, 7124, Note_on_c, 2, 65, 0
8, 7140, Note_on_c, 2, 57, 72
8, 7154, Note_on_c, 2, 57, 0
8, 7170, Note_on_c, 2, 60, 72
8, 7184, Note_on_c, 2, 60, 0
8, 7200, Note_on_c, 2, 65, 72
8, 7319, Note_on_c, 2, 65, 0
8, 7425, Note_on_c, 2, 67, 72
8, 7439, Note_on_c, 2, 67, 0
8, 7440, Note_on_c, 2, 65, 72
8, 7454, Note_on_c, 2, 65, 0
8, 7455, Note_on_c, 2, 64, 72
8, 7469, Note_on_c, 2, 64, 0
8, 7470, Note_on_c, 2, 65, 72
8, 7499, Note_on_c, 2, 65, 0
8, 7500, Note_on_c, 2, 69, 72
8, 7529, Note_on_c, 2, 69, 0
8, 7530, Note_on_c, 2, 65, 72
8, 7544, Note_on_c, 2, 65, 0
8, 7560, Note_on_c, 2, 60, 72
8, 7574, Note_on_c, 2, 60, 0
8, 7590, Note_on_c, 2, 65, 72
8, 7604, Note_on_c, 2, 65, 0
8, 7620, Note_on_c, 2, 57, 72
8, 7634, Note_on_c, 2, 57, 0
8, 7650, Note_on_c, 2, 60, 72
8, 7664, Note_on_c, 2, 60, 0
8, 7740, Note_on_c, 2, 69, 72
8, 7740, Note_on_c, 2, 79, 72
8, 7799, Note_on_c, 2, 79, 0
8, 7799, Note_on_c, 2, 69, 0
8, 7860, Note_on_c, 2, 62, 72
8, 7860, Note_on_c, 2, 70, 72
8, 7860, Note_on_c, 2, 77, 72
8, 7919, Note_on_c, 2, 77, 0
8, 7919, Note_on_c, 2, 70, 0
8, 7919, Note_on_c, 2, 62, 0
8, 7980, Note_on_c, 2, 81, 48
8, 8039, Note_on_c, 2, 81, 0
8, 8100, Note_on_c, 2, 82, 48
8, 8159, Note_on_c, 2, 82, 0
8, 8220, Note_on_c, 2, 60, 48
8, 8279, Note_on_c, 2, 60, 0
8, 8340, Note_on_c, 2, 61, 48
8, 8399, Note_on_c, 2, 61, 0
8, 8430, Note_on_c, 2, 72, 48
8, 8459, Note_on_c, 2, 72, 0
8, 8460, Note_on_c, 2, 77, 48
8, 8489, Note_on_c, 2, 77, 0
8, 8490, Note_on_c, 2, 77, 48
8, 8504, Note_on_c, 2, 77, 0
8, 8550, Note_on_c, 2, 72, 48
8, 8579, Note_on_c, 2, 72, 0
8, 8580, Note_on_c, 2, 77, 48
8, 8609, Note_on_c, 2, 77, 0
8, 8610, Note_on_c, 2, 77, 48
8, 8624, Note_on_c, 2, 77, 0
8, 8640, Note_on_c, 2, 74, 48
8, 8699, Note_on_c, 2, 74, 0
8, 8700, Note_on_c, 2, 65, 48
8, 8759, Note_on_c, 2, 65, 0
8, 8805, Note_on_c, 2, 70, 48
8, 8864, Note_on_c, 2, 70, 0
8, 8940, Note_on_c, 2, 70, 48
8, 8999, Note_on_c, 2, 70, 0
8, 9060, Note_on_c, 2, 69, 48
8, 9119, Note_on_c, 2, 69, 0
8, 9120, Note_on_c, 2, 77, 48
8, 9269, Note_on_c, 2, 77, 0
8, 9270, Note_on_c, 2, 79, 48
8, 9299, Note_on_c, 2, 79, 0
8, 9300, Note_on_c, 2, 77, 48
8, 9329, Note_on_c, 2, 77, 0
8, 9330, Note_on_c, 2, 75, 48
8, 9359, Note_on_c, 2, 75, 0
8, 9360, Note_on_c, 2, 74, 48
8, 9389, Note_on_c, 2, 74, 0
8, 9390, Note_on_c, 2, 77, 48
8, 9419, Note_on_c, 2, 77, 0
8, 9420, Note_on_c, 2, 75, 48
8, 9449, Note_on_c, 2, 75, 0
8, 9450, Note_on_c, 2, 74, 48
8, 9479, Note_on_c, 2, 74, 0
8, 9480, Note_on_c, 2, 72, 48
8, 9509, Note_on_c, 2, 72, 0
8, 9510, Note_on_c, 2, 75, 48
8, 9539, Note_on_c, 2, 75, 0
8, 9540, Note_on_c, 2, 74, 48
8, 9569, Note_on_c, 2, 74, 0
8, 9570, Note_on_c, 2, 72, 48
8, 9599, Note_on_c, 2, 72, 0
8, 9600, Note_on_c, 2, 70, 48
8, 9719, Note_on_c, 2, 70, 0
8, 10140, Note_on_c, 2, 67, 48
8, 10229, Note_on_c, 2, 67, 0
8, 10230, Note_on_c, 2, 65, 48
8, 10259, Note_on_c, 2, 65, 0
8, 10260, Note_on_c, 2, 67, 48
8, 10289, Note_on_c, 2, 67, 0
8, 10290, Note_on_c, 2, 69, 48
8, 10319, Note_on_c, 2, 69, 0
8, 10320, Note_on_c, 2, 70, 48
8, 10349, Note_on_c, 2, 70, 0
8, 10350, Note_on_c, 2, 65, 48
8, 10379, Note_on_c, 2, 65, 0
8, 10380, Note_on_c, 2, 70, 48
8, 10499, Note_on_c, 2, 70, 0
8, 10500, Note_on_c, 2, 69, 48
8, 10559, Note_on_c, 2, 69, 0
8, 10560, Note_on_c, 2, 70, 48
8, 10619, Note_on_c, 2, 70, 0
8, 10620, Note_on_c, 2, 82, 48
8, 10709, Note_on_c, 2, 82, 0
8, 10710, Note_on_c, 2, 84, 48
8, 10739, Note_on_c, 2, 84, 0
8, 10740, Note_on_c, 2, 82, 48
8, 10769, Note_on_c, 2, 82, 0
8, 10770, Note_on_c, 2, 81, 48
8, 10799, Note_on_c, 2, 81, 0
8, 10800, Note_on_c, 2, 79, 48
8, 10829, Note_on_c, 2, 79, 0
8, 10830, Note_on_c, 2, 81, 48
8, 10859, Note_on_c, 2, 81, 0
8, 10860, Note_on_c, 2, 79, 48
8, 10889, Note_on_c, 2, 79, 0
8, 10890, Note_on_c, 2, 77, 48
8, 10919, Note_on_c, 2, 77, 0
8, 10920, Note_on_c, 2, 76, 48
8, 10949, Note_on_c, 2, 76, 0
8, 10950, Note_on_c, 2, 77, 48
8, 10979, Note_on_c, 2, 77, 0
8, 10980, Note_on_c, 2, 76, 48
8, 11009, Note_on_c, 2, 76, 0
8, 11010, Note_on_c, 2, 74, 48
8, 11039, Note_on_c, 2, 74, 0
8, 11040, Note_on_c, 2, 72, 48
8, 11159, Note_on_c, 2, 72, 0
8, 11220, Note_on_c, 2, 84, 48
8, 11309, Note_on_c, 2, 84, 0
8, 11310, Note_on_c, 2, 86, 48
8, 11339, Note_on_c, 2, 86, 0
8, 11340, Note_on_c, 2, 84, 48
8, 11369, Note_on_c, 2, 84, 0
8, 11370, Note_on_c, 2, 82, 48
8, 11399, Note_on_c, 2, 82, 0
8, 11400, Note_on_c, 2, 81, 48
8, 11429, Note_on_c, 2, 81, 0
8, 11430, Note_on_c, 2, 82, 48
8, 11459, Note_on_c, 2, 82, 0
8, 11460, Note_on_c, 2, 81, 48
8, 11489, Note_on_c, 2, 81, 0
8, 11490, Note_on_c, 2, 79, 48
8, 11519, Note_on_c, 2, 79, 0
8, 11520, Note_on_c, 2, 78, 48
8, 11639, Note_on_c, 2, 78, 0
8, 11640, Note_on_c, 2, 79, 48
8, 11879, Note_on_c, 2, 79, 0
8, 11880, Note_on_c, 2, 78, 48
8, 11999, Note_on_c, 2, 78, 0
8, 12000, Note_on_c, 2, 79, 72
8, 12044, Note_on_c, 2, 79, 0
8, 12045, Note_on_c, 2, 67, 72
8, 12059, Note_on_c, 2, 67, 0
8, 12060, Note_on_c, 2, 74, 72
8, 12104, Note_on_c, 2, 74, 0
8, 12105, Note_on_c, 2, 70, 72
8, 12119, Note_on_c, 2, 70, 0
8, 12120, Note_on_c, 2, 75, 72
8, 12239, Note_on_c, 2, 75, 0
8, 12285, Note_on_c, 2, 65, 72
8, 12299, Note_on_c, 2, 65, 0
8, 12300, Note_on_c, 2, 72, 72
8, 12344, Note_on_c, 2, 72, 0
8, 12345, Note_on_c, 2, 69, 72
8, 12359, Note_on_c, 2, 69, 0
8, 12360, Note_on_c, 2, 77, 72
8, 12479, Note_on_c, 2, 77, 0
8, 12525, Note_on_c, 2, 74, 72
8, 12539, Note_on_c, 2, 74, 0
8, 12540, Note_on_c, 2, 77, 72
8, 12584, Note_on_c, 2, 77, 0
8, 12585, Note_on_c, 2, 74, 72
8, 12599, Note_on_c, 2, 74, 0
8, 12600, Note_on_c, 2, 82, 72
8, 12719, Note_on_c, 2, 82, 0
8, 12765, Note_on_c, 2, 69, 72
8, 12779, Note_on_c, 2, 69, 0
8, 12780, Note_on_c, 2, 74, 72
8, 12824, Note_on_c, 2, 74, 0
8, 12825, Note_on_c, 2, 69, 72
8, 12839, Note_on_c, 2, 69, 0
8, 12840, Note_on_c, 2, 81, 72
8, 12959, Note_on_c, 2, 81, 0
8, 13005, Note_on_c, 2, 70, 72
8, 13019, Note_on_c, 2, 70, 0
8, 13020, Note_on_c, 2, 74, 72
8, 13064, Note_on_c, 2, 74, 0
8, 13065, Note_on_c, 2, 70, 72
8, 13079, Note_on_c, 2, 70, 0
8, 13080, Note_on_c, 2, 82, 72
8, 13199, Note_on_c, 2, 82, 0
8, 13245, Note_on_c, 2, 81, 72
8, 13259, Note_on_c, 2, 81, 0
8, 13260, Note_on_c, 2, 82, 72
8, 13304, Note_on_c, 2, 82, 0
8, 13305, Note_on_c, 2, 74, 72
8, 13319, Note_on_c, 2, 74, 0
8, 13320, Note_on_c, 2, 72, 72
8, 13364, Note_on_c, 2, 72, 0
8, 13365, Note_on_c, 2, 82, 72
8, 13379, Note_on_c, 2, 82, 0
8, 13380, Note_on_c, 2, 72, 72
8, 13424, Note_on_c, 2, 72, 0
8, 13425, Note_on_c, 2, 81, 72
8, 13439, Note_on_c, 2, 81, 0
8, 13440, Note_on_c, 2, 82, 72
8, 13484, Note_on_c, 2, 82, 0
8, 13485, Note_on_c, 2, 70, 72
8, 13499, Note_on_c, 2, 70, 0
8, 13500, Note_on_c, 2, 74, 72
8, 13544, Note_on_c, 2, 74, 0
8, 13545, Note_on_c, 2, 70, 72
8, 13559, Note_on_c, 2, 70, 0
8, 13560, Note_on_c, 2, 82, 72
8, 13679, Note_on_c, 2, 82, 0
8, 13725, Note_on_c, 2, 74, 72
8, 13739, Note_on_c, 2, 74, 0
8, 13740, Note_on_c, 2, 79, 72
8, 13784, Note_on_c, 2, 79, 0
8, 13785, Note_on_c, 2, 74, 72
8, 13799, Note_on_c, 2, 74, 0
8, 13800, Note_on_c, 2, 86, 72
8, 13919, Note_on_c, 2, 86, 0
8, 13965, Note_on_c, 2, 72, 72
8, 13979, Note_on_c, 2, 72, 0
8, 13980, Note_on_c, 2, 79, 72
8, 14024, Note_on_c, 2, 79, 0
8, 14025, Note_on_c, 2, 72, 72
8, 14039, Note_on_c, 2, 72, 0
8, 14040, Note_on_c, 2, 84, 72
8, 14159, Note_on_c, 2, 84, 0
8, 14205, Note_on_c, 2, 72, 72
8, 14219, Note_on_c, 2, 72, 0
8, 14220, Note_on_c, 2, 79, 72
8, 14264, Note_on_c, 2, 79, 0
8, 14265, Note_on_c, 2, 72, 72
8, 14279, Note_on_c, 2, 72, 0
8, 14280, Note_on_c, 2, 84, 72
8, 14399, Note_on_c, 2, 84, 0
8, 14445, Note_on_c, 2, 72, 72
8, 14459, Note_on_c, 2, 72, 0
8, 14460, Note_on_c, 2, 84, 72
8, 14519, Note_on_c, 2, 84, 0
8, 14565, Note_on_c, 2, 70, 72
8, 14579, Note_on_c, 2, 70, 0
8, 14580, Note_on_c, 2, 82, 72
8, 14639, Note_on_c, 2, 82, 0
8, 14685, Note_on_c, 2, 70, 72
8, 14699, Note_on_c, 2, 70, 0
8, 14700, Note_on_c, 2, 74, 72
8, 14744, Note_on_c, 2, 74, 0
8, 14745, Note_on_c, 2, 79, 72
8, 14759, Note_on_c, 2, 79, 0
8, 14760, Note_on_c, 2, 62, 72
8, 14804, Note_on_c, 2, 62, 0
8, 14805, Note_on_c, 2, 69, 72
8, 14819, Note_on_c, 2, 69, 0
8, 14820, Note_on_c, 2, 72, 72
8, 14864, Note_on_c, 2, 72, 0
8, 14865, Note_on_c, 2, 78, 72
8, 14879, Note_on_c, 2, 78, 0
8, 14880, Note_on_c, 2, 79, 72
8, 14939, Note_on_c, 2, 79, 0
8, 14940, Note_on_c, 2, 67, 48
8, 14999, Note_on_c, 2, 67, 0
8, 15060, Note_on_c, 2, 67, 48
8, 15119, Note_on_c, 2, 67, 0
8, 15180, Note_on_c, 2, 67, 48
8, 15239, Note_on_c, 2, 67, 0
8, 15300, Note_on_c, 2, 66, 48
8, 15359, Note_on_c, 2, 66, 0
8, 15360, Note_on_c, 2, 74, 48
8, 15509, Note_on_c, 2, 74, 0
8, 15510, Note_on_c, 2, 75, 48
8, 15539, Note_on_c, 2, 75, 0
8, 15540, Note_on_c, 2, 74, 48
8, 15569, Note_on_c, 2, 74, 0
8, 15570, Note_on_c, 2, 72, 48
8, 15599, Note_on_c, 2, 72, 0
8, 15600, Note_on_c, 2, 70, 48
8, 15629, Note_on_c, 2, 70, 0
8, 15630, Note_on_c, 2, 74, 48
8, 15659, Note_on_c, 2, 74, 0
8, 15660, Note_on_c, 2, 72, 48
8, 15689, Note_on_c, 2, 72, 0
8, 15690, Note_on_c, 2, 70, 48
8, 15719, Note_on_c, 2, 70, 0
8, 15720, Note_on_c, 2, 69, 48
8, 15749, Note_on_c, 2, 69, 0
8, 15750, Note_on_c, 2, 72, 48
8, 15779, Note_on_c, 2, 72, 0
8, 15780, Note_on_c, 2, 70, 48
8, 15809, Note_on_c, 2, 70, 0
8, 15810, Note_on_c, 2, 69, 48
8, 15839, Note_on_c, 2, 69, 0
8, 15840, Note_on_c, 2, 67, 48
8, 15869, Note_on_c, 2, 67, 0
8, 15870, Note_on_c, 2, 70, 72
8, 15929, Note_on_c, 2, 70, 0
8, 15930, Note_on_c, 2, 82, 72
8, 15959, Note_on_c, 2, 82, 0
8, 15990, Note_on_c, 2, 67, 72
8, 16049, Note_on_c, 2, 67, 0
8, 16050, Note_on_c, 2, 79, 72
8, 16079, Note_on_c, 2, 79, 0
8, 16110, Note_on_c, 2, 64, 72
8, 16169, Note_on_c, 2, 64, 0
8, 16170, Note_on_c, 2, 76, 72
8, 16199, Note_on_c, 2, 76, 0
8, 16230, Note_on_c, 2, 69, 72
8, 16289, Note_on_c, 2, 69, 0
8, 16290, Note_on_c, 2, 81, 72
8, 16319, Note_on_c, 2, 81, 0
8, 16350, Note_on_c, 2, 69, 72
8, 16409, Note_on_c, 2, 69, 0
8, 16410, Note_on_c, 2, 81, 72
8, 16439, Note_on_c, 2, 81, 0
8, 16470, Note_on_c, 2, 73, 72
8, 16529, Note_on_c, 2, 73, 0
8, 16530, Note_on_c, 2, 85, 72
8, 16559, Note_on_c, 2, 85, 0
8, 16590, Note_on_c, 2, 74, 72
8, 16649, Note_on_c, 2, 74, 0
8, 16650, Note_on_c, 2, 86, 72
8, 16679, Note_on_c, 2, 86, 0
8, 16710, Note_on_c, 2, 65, 72
8, 16769, Note_on_c, 2, 65, 0
8, 16770, Note_on_c, 2, 77, 72
8, 16799, Note_on_c, 2, 77, 0
8, 16830, Note_on_c, 2, 64, 72
8, 16889, Note_on_c, 2, 64, 0
8, 16890, Note_on_c, 2, 76, 72
8, 16919, Note_on_c, 2, 76, 0
8, 16950, Note_on_c, 2, 71, 72
8, 17009, Note_on_c, 2, 71, 0
8, 17010, Note_on_c, 2, 83, 72
8, 17039, Note_on_c, 2, 83, 0
8, 17070, Note_on_c, 2, 72, 72
8, 17129, Note_on_c, 2, 72, 0
8, 17130, Note_on_c, 2, 84, 72
8, 17159, Note_on_c, 2, 84, 0
8, 17190, Note_on_c, 2, 68, 72
8, 17249, Note_on_c, 2, 68, 0
8, 17250, Note_on_c, 2, 80, 72
8, 17279, Note_on_c, 2, 80, 0
8, 17280, Note_on_c, 2, 81, 72
8, 17339, Note_on_c, 2, 81, 0
8, 17340, Note_on_c, 2, 72, 72
8, 17429, Note_on_c, 2, 72, 0
8, 17430, Note_on_c, 2, 70, 72
8, 17459, Note_on_c, 2, 70, 0
8, 17460, Note_on_c, 2, 72, 72
8, 17489, Note_on_c, 2, 72, 0
8, 17490, Note_on_c, 2, 74, 72
8, 17519, Note_on_c, 2, 74, 0
8, 17520, Note_on_c, 2, 70, 72
8, 17669, Note_on_c, 2, 70, 0
8, 17670, Note_on_c, 2, 69, 72
8, 17699, Note_on_c, 2, 69, 0
8, 17700, Note_on_c, 2, 70, 72
8, 17729, Note_on_c, 2, 70, 0
8, 17730, Note_on_c, 2, 72, 72
8, 17759, Note_on_c, 2, 72, 0
8, 17760, Note_on_c, 2, 69, 72
8, 17849, Note_on_c, 2, 69, 0
8, 17850, Note_on_c, 2, 69, 72
8, 17879, Note_on_c, 2, 69, 0
8, 17880, Note_on_c, 2, 69, 72
8, 17939, Note_on_c, 2, 69, 0
8, 17940, Note_on_c, 2, 69, 72
8, 17999, Note_on_c, 2, 69, 0
8, 18000, Note_on_c, 2, 74, 72
8, 18059, Note_on_c, 2, 74, 0
8, 18060, Note_on_c, 2, 74, 72
8, 18179, Note_on_c, 2, 74, 0
8, 18180, Note_on_c, 2, 74, 72
8, 18239, Note_on_c, 2, 74, 0
8, 18240, Note_on_c, 2, 74, 72
8, 18269, Note_on_c, 2, 74, 0
8, 18270, Note_on_c, 2, 72, 72
8, 18299, Note_on_c, 2, 72, 0
8, 18300, Note_on_c, 2, 70, 72
8, 18329, Note_on_c, 2, 70, 0
8, 18330, Note_on_c, 2, 72, 72
8, 18359, Note_on_c, 2, 72, 0
8, 18360, Note_on_c, 2, 74, 72
8, 18389, Note_on_c, 2, 74, 0
8, 18390, Note_on_c, 2, 72, 72
8, 18419, Note_on_c, 2, 72, 0
8, 18420, Note_on_c, 2, 74, 72
8, 18449, Note_on_c, 2, 74, 0
8, 18450, Note_on_c, 2, 76, 72
8, 18479, Note_on_c, 2, 76, 0
8, 18480, Note_on_c, 2, 77, 72
8, 18539, Note_on_c, 2, 77, 0
8, 18540, Note_on_c, 2, 72, 72
8, 18599, Note_on_c, 2, 72, 0
8, 18600, Note_on_c, 2, 77, 72
8, 18779, Note_on_c, 2, 77, 0
8, 18780, Note_on_c, 2, 77, 72
8, 18839, Note_on_c, 2, 77, 0
8, 18840, Note_on_c, 2, 76, 72
8, 18899, Note_on_c, 2, 76, 0
8, 18900, Note_on_c, 2, 76, 72
8, 18959, Note_on_c, 2, 76, 0
8, 18960, Note_on_c, 2, 77, 72
8, 19079, Note_on_c, 2, 77, 0
8, 19080, Note_on_c, 2, 79, 72
8, 19199, Note_on_c, 2, 79, 0
8, 19200, Note_on_c, 2, 81, 72
8, 19319, Note_on_c, 2, 81, 0
8, 19320, Note_on_c, 2, 73, 72
8, 19379, Note_on_c, 2, 73, 0
8, 19380, Note_on_c, 2, 73, 72
8, 19439, Note_on_c, 2, 73, 0
8, 19440, Note_on_c, 2, 74, 72
8, 19559, Note_on_c, 2, 74, 0
8, 19560, Note_on_c, 2, 76, 72
8, 19679, Note_on_c, 2, 76, 0
8, 19680, Note_on_c, 2, 77, 72
8, 19799, Note_on_c, 2, 77, 0
8, 19800, Note_on_c, 2, 69, 72
8, 19859, Note_on_c, 2, 69, 0
8, 19860, Note_on_c, 2, 69, 72
8, 19919, Note_on_c, 2, 69, 0
8, 19920, Note_on_c, 2, 70, 72
8, 20039, Note_on_c, 2, 70, 0
8, 20040, Note_on_c, 2, 72, 72
8, 20159, Note_on_c, 2, 72, 0
8, 20160, Note_on_c, 2, 74, 72
8, 20279, Note_on_c, 2, 74, 0
8, 20385, Note_on_c, 2, 72, 72
8, 20399, Note_on_c, 2, 72, 0
8, 20400, Note_on_c, 2, 70, 72
8, 20414, Note_on_c, 2, 70, 0
8, 20415, Note_on_c, 2, 69, 72
8, 20429, Note_on_c, 2, 69, 0
8, 20430, Note_on_c, 2, 70, 72
8, 20459, Note_on_c, 2, 70, 0
8, 20460, Note_on_c, 2, 74, 72
8, 20489, Note_on_c, 2, 74, 0
8, 20490, Note_on_c, 2, 70, 72
8, 20504, Note_on_c, 2, 70, 0
8, 20520, Note_on_c, 2, 65, 72
8, 20534, Note_on_c, 2, 65, 0
8, 20550, Note_on_c, 2, 62, 72
8, 20564, Note_on_c, 2, 62, 0
8, 20580, Note_on_c, 2, 58, 72
8, 20594, Note_on_c, 2, 58, 0
8, 20610, Note_on_c, 2, 65, 72
8, 20624, Note_on_c, 2, 65, 0
8, 20640, Note_on_c, 2, 57, 72
8, 20759, Note_on_c, 2, 57, 0
8, 20865, Note_on_c, 2, 76, 72
8, 20879, Note_on_c, 2, 76, 0
8, 20880, Note_on_c, 2, 74, 72
8, 20894, Note_on_c, 2, 74, 0
8, 20895, Note_on_c, 2, 73, 72
8, 20909, Note_on_c, 2, 73, 0
8, 20910, Note_on_c, 2, 74, 72
8, 20939, Note_on_c, 2, 74, 0
8, 20940, Note_on_c, 2, 77, 72
8, 20969, Note_on_c, 2, 77, 0
8, 20970, Note_on_c, 2, 74, 72
8, 20984, Note_on_c, 2, 74, 0
8, 21000, Note_on_c, 2, 69, 72
8, 21014, Note_on_c, 2, 69, 0
8, 21030, Note_on_c, 2, 65, 72
8, 21044, Note_on_c, 2, 65, 0
8, 21060, Note_on_c, 2, 62, 72
8, 21074, Note_on_c, 2, 62, 0
8, 21090, Note_on_c, 2, 65, 72
8, 21104, Note_on_c, 2, 65, 0
8, 21120, Note_on_c, 2, 56, 72
8, 21179, Note_on_c, 2, 56, 0
8, 21180, Note_on_c, 2, 77, 72
8, 21239, Note_on_c, 2, 77, 0
8, 21240, Note_on_c, 2, 77, 72
8, 21299, Note_on_c, 2, 77, 0
8, 21300, Note_on_c, 2, 77, 72
8, 21359, Note_on_c, 2, 77, 0
8, 21360, Note_on_c, 2, 77, 72
8, 21419, Note_on_c, 2, 77, 0
8, 21420, Note_on_c, 2, 77, 72
8, 21479, Note_on_c, 2, 77, 0
8, 21480, Note_on_c, 2, 76, 72
8, 21539, Note_on_c, 2, 76, 0
8, 21540, Note_on_c, 2, 74, 72
8, 21599, Note_on_c, 2, 74, 0
8, 21600, Note_on_c, 2, 74, 72
8, 21659, Note_on_c, 2, 74, 0
8, 21660, Note_on_c, 2, 73, 72
8, 21719, Note_on_c, 2, 73, 0
8, 21780, Note_on_c, 2, 69, 48
8, 21839, Note_on_c, 2, 69, 0
8, 21840, Note_on_c, 2, 69, 48
8, 21959, Note_on_c, 2, 69, 0
8, 21960, Note_on_c, 2, 69, 48
8, 22079, Note_on_c, 2, 69, 0
8, 22080, Note_on_c, 2, 69, 48
8, 22199, Note_on_c, 2, 69, 0
8, 22200, Note_on_c, 2, 69, 48
8, 22319, Note_on_c, 2, 69, 0
8, 22320, Note_on_c, 2, 69, 48
8, 22439, Note_on_c, 2, 69, 0
8, 22440, Note_on_c, 2, 68, 48
8, 22499, Note_on_c, 2, 68, 0
8, 22500, Note_on_c, 2, 69, 48
8, 22559, Note_on_c, 2, 69, 0
8, 22560, Note_on_c, 2, 65, 48
8, 22679, Note_on_c, 2, 65, 0
8, 22680, Note_on_c, 2, 64, 48
8, 22739, Note_on_c, 2, 64, 0
8, 22740, Note_on_c, 2, 62, 48
8, 22799, Note_on_c, 2, 62, 0
8, 22800, Note_on_c, 2, 64, 48
8, 23039, Note_on_c, 2, 64, 0
8, 24720, Note_on_c, 2, 74, 72
8, 24899, Note_on_c, 2, 74, 0
8, 24900, Note_on_c, 2, 74, 72
8, 24959, Note_on_c, 2, 74, 0
8, 24960, Note_on_c, 2, 72, 72
8, 25079, Note_on_c, 2, 72, 0
8, 25080, Note_on_c, 2, 77, 72
8, 25199, Note_on_c, 2, 77, 0
8, 25200, Note_on_c, 2, 68, 72
8, 25379, Note_on_c, 2, 68, 0
8, 25380, Note_on_c, 2, 68, 72
8, 25439, Note_on_c, 2, 68, 0
8, 25440, Note_on_c, 2, 69, 72
8, 25559, Note_on_c, 2, 69, 0
8, 25620, Note_on_c, 2, 69, 72
8, 25679, Note_on_c, 2, 69, 0
8, 25680, Note_on_c, 2, 71, 72
8, 25859, Note_on_c, 2, 71, 0
8, 25860, Note_on_c, 2, 69, 72
8, 25889, Note_on_c, 2, 69, 0
8, 25890, Note_on_c, 2, 71, 72
8, 25919, Note_on_c, 2, 71, 0
8, 25920, Note_on_c, 2, 72, 72
8, 25979, Note_on_c, 2, 72, 0
8, 25980, Note_on_c, 2, 71, 72
8, 26009, Note_on_c, 2, 71, 0
8, 26010, Note_on_c, 2, 72, 72
8, 26039, Note_on_c, 2, 72, 0
8, 26040, Note_on_c, 2, 74, 72
8, 26099, Note_on_c, 2, 74, 0
8, 26100, Note_on_c, 2, 72, 72
8, 26129, Note_on_c, 2, 72, 0
8, 26130, Note_on_c, 2, 74, 72
8, 26159, Note_on_c, 2, 74, 0
8, 26160, Note_on_c, 2, 76, 72
8, 26219, Note_on_c, 2, 76, 0
8, 26220, Note_on_c, 2, 74, 72
8, 26279, Note_on_c, 2, 74, 0
8, 26280, Note_on_c, 2, 72, 72
8, 26339, Note_on_c, 2, 72, 0
8, 26340, Note_on_c, 2, 71, 72
8, 26399, Note_on_c, 2, 71, 0
8, 26400, Note_on_c, 2, 69, 72
8, 26459, Note_on_c, 2, 69, 0
8, 26460, Note_on_c, 2, 79, 72
8, 26519, Note_on_c, 2, 79, 0
8, 26520, Note_on_c, 2, 77, 72
8, 26579, Note_on_c, 2, 77, 0
8, 26580, Note_on_c, 2, 76, 72
8, 26639, Note_on_c, 2, 76, 0
8, 26640, Note_on_c, 2, 74, 72
8, 26759, Note_on_c, 2, 74, 0
8, 26820, Note_on_c, 2, 62, 72
8, 26879, Note_on_c, 2, 62, 0
8, 26880, Note_on_c, 2, 67, 72
8, 27059, Note_on_c, 2, 67, 0
8, 27060, Note_on_c, 2, 65, 72
8, 27089, Note_on_c, 2, 65, 0
8, 27090, Note_on_c, 2, 64, 72
8, 27119, Note_on_c, 2, 64, 0
8, 27120, Note_on_c, 2, 69, 72
8, 27179, Note_on_c, 2, 69, 0
8, 27180, Note_on_c, 2, 62, 72
8, 27239, Note_on_c, 2, 62, 0
8, 27240, Note_on_c, 2, 74, 72
8, 27479, Note_on_c, 2, 74, 0
8, 27480, Note_on_c, 2, 74, 72
8, 27599, Note_on_c, 2, 74, 0
8, 27600, Note_on_c, 2, 74, 72
8, 27659, Note_on_c, 2, 74, 0
8, 27660, Note_on_c, 2, 73, 72
8, 27689, Note_on_c, 2, 73, 0
8, 27690, Note_on_c, 2, 74, 72
8, 27719, Note_on_c, 2, 74, 0
8, 27720, Note_on_c, 2, 76, 72
8, 27959, Note_on_c, 2, 76, 0
8, 27960, Note_on_c, 2, 74, 72
8, 28019, Note_on_c, 2, 74, 0
8, 28020, Note_on_c, 2, 73, 72
8, 28079, Note_on_c, 2, 73, 0
8, 28080, Note_on_c, 2, 74, 72
8, 28199, Note_on_c, 2, 74, 0
8, 28620, Note_on_c, 2, 71, 72
8, 28679, Note_on_c, 2, 71, 0
8, 28680, Note_on_c, 2, 71, 72
8, 28739, Note_on_c, 2, 71, 0
8, 28740, Note_on_c, 2, 71, 72
8, 28799, Note_on_c, 2, 71, 0
8, 28800, Note_on_c, 2, 72, 72
8, 28829, Note_on_c, 2, 72, 0
8, 28830, Note_on_c, 2, 74, 72
8, 28859, Note_on_c, 2, 74, 0
8, 28860, Note_on_c, 2, 72, 72
8, 28889, Note_on_c, 2, 72, 0
8, 28890, Note_on_c, 2, 70, 72
8, 28919, Note_on_c, 2, 70, 0
8, 28920, Note_on_c, 2, 72, 72
8, 28949, Note_on_c, 2, 72, 0
8, 28950, Note_on_c, 2, 74, 72
8, 28979, Note_on_c, 2, 74, 0
8, 28980, Note_on_c, 2, 70, 72
8, 29009, Note_on_c, 2, 70, 0
8, 29010, Note_on_c, 2, 72, 72
8, 29039, Note_on_c, 2, 72, 0
8, 29040, Note_on_c, 2, 74, 72
8, 29069, Note_on_c, 2, 74, 0
8, 29070, Note_on_c, 2, 76, 72
8, 29099, Note_on_c, 2, 76, 0
8, 29100, Note_on_c, 2, 74, 72
8, 29129, Note_on_c, 2, 74, 0
8, 29130, Note_on_c, 2, 72, 72
8, 29159, Note_on_c, 2, 72, 0
8, 29160, Note_on_c, 2, 74, 72
8, 29189, Note_on_c, 2, 74, 0
8, 29190, Note_on_c, 2, 76, 72
8, 29219, Note_on_c, 2, 76, 0
8, 29220, Note_on_c, 2, 72, 72
8, 29249, Note_on_c, 2, 72, 0
8, 29250, Note_on_c, 2, 74, 72
8, 29279, Note_on_c, 2, 74, 0
8, 29280, Note_on_c, 2, 76, 72
8, 29339, Note_on_c, 2, 76, 0
8, 29340, Note_on_c, 2, 77, 72
8, 29369, Note_on_c, 2, 77, 0
8, 29370, Note_on_c, 2, 76, 72
8, 29399, Note_on_c, 2, 76, 0
8, 29400, Note_on_c, 2, 74, 72
8, 29429, Note_on_c, 2, 74, 0
8, 29430, Note_on_c, 2, 72, 72
8, 29459, Note_on_c, 2, 72, 0
8, 29460, Note_on_c, 2, 71, 72
8, 29489, Note_on_c, 2, 71, 0
8, 29490, Note_on_c, 2, 69, 72
8, 29519, Note_on_c, 2, 69, 0
8, 29520, Note_on_c, 2, 68, 72
8, 29579, Note_on_c, 2, 68, 0
8, 29580, Note_on_c, 2, 71, 72
8, 29639, Note_on_c, 2, 71, 0
8, 29640, Note_on_c, 2, 76, 72
8, 29699, Note_on_c, 2, 76, 0
8, 29700, Note_on_c, 2, 74, 72
8, 29759, Note_on_c, 2, 74, 0
8, 29760, Note_on_c, 2, 72, 72
8, 29789, Note_on_c, 2, 72, 0
8, 29790, Note_on_c, 2, 71, 72
8, 29819, Note_on_c, 2, 71, 0
8, 29820, Note_on_c, 2, 69, 72
8, 29909, Note_on_c, 2, 69, 0
8, 29910, Note_on_c, 2, 70, 72
8, 29939, Note_on_c, 2, 70, 0
8, 29940, Note_on_c, 2, 67, 72
8, 29969, Note_on_c, 2, 67, 0
8, 29970, Note_on_c, 2, 69, 72
8, 29999, Note_on_c, 2, 69, 0
8, 30000, Note_on_c, 2, 65, 72
8, 30119, Note_on_c, 2, 65, 0
8, 30120, Note_on_c, 2, 67, 72
8, 30179, Note_on_c, 2, 67, 0
8, 30180, Note_on_c, 2, 69, 72
8, 30239, Note_on_c, 2, 69, 0
8, 30240, Note_on_c, 2, 62, 72
8, 30359, Note_on_c, 2, 62, 0
8, 30480, Note_on_c, 2, 72, 72
8, 30659, Note_on_c, 2, 72, 0
8, 30660, Note_on_c, 2, 72, 72
8, 30719, Note_on_c, 2, 72, 0
8, 30720, Note_on_c, 2, 69, 72
8, 30839, Note_on_c, 2, 69, 0
8, 30840, Note_on_c, 2, 74, 72
8, 30959, Note_on_c, 2, 74, 0
8, 30960, Note_on_c, 2, 64, 72
8, 31139, Note_on_c, 2, 64, 0
8, 31140, Note_on_c, 2, 64, 72
8, 31199, Note_on_c, 2, 64, 0
8, 31200, Note_on_c, 2, 65, 72
8, 31319, Note_on_c, 2, 65, 0
8, 31380, Note_on_c, 2, 65, 72
8, 31439, Note_on_c, 2, 65, 0
8, 31440, Note_on_c, 2, 67, 72
8, 31619, Note_on_c, 2, 67, 0
8, 31620, Note_on_c, 2, 65, 72
8, 31649, Note_on_c, 2, 65, 0
8, 31650, Note_on_c, 2, 67, 72
8, 31679, Note_on_c, 2, 67, 0
8, 31680, Note_on_c, 2, 69, 72
8, 31739, Note_on_c, 2, 69, 0
8, 31740, Note_on_c, 2, 67, 72
8, 31769, Note_on_c, 2, 67, 0
8, 31770, Note_on_c, 2, 69, 72
8, 31799, Note_on_c, 2, 69, 0
8, 31800, Note_on_c, 2, 70, 72
8, 31859, Note_on_c, 2, 70, 0
8, 31860, Note_on_c, 2, 69, 72
8, 31889, Note_on_c, 2, 69, 0
8, 31890, Note_on_c, 2, 70, 72
8, 31919, Note_on_c, 2, 70, 0
8, 31920, Note_on_c, 2, 72, 72
8, 31979, Note_on_c, 2, 72, 0
8, 31980, Note_on_c, 2, 70, 72
8, 32039, Note_on_c, 2, 70, 0
8, 32040, Note_on_c, 2, 69, 72
8, 32099, Note_on_c, 2, 69, 0
8, 32100, Note_on_c, 2, 67, 72
8, 32159, Note_on_c, 2, 67, 0
8, 32160, Note_on_c, 2, 66, 72
8, 32279, Note_on_c, 2, 66, 0
8, 32280, Note_on_c, 2, 67, 72
8, 32339, Note_on_c, 2, 67, 0
8, 32340, Note_on_c, 2, 69, 72
8, 32399, Note_on_c, 2, 69, 0
8, 32400, Note_on_c, 2, 70, 72
8, 32519, Note_on_c, 2, 70, 0
8, 32700, Note_on_c, 2, 69, 72
8, 32759, Note_on_c, 2, 69, 0
8, 32760, Note_on_c, 2, 69, 72
8, 32819, Note_on_c, 2, 69, 0
8, 32820, Note_on_c, 2, 69, 72
8, 32879, Note_on_c, 2, 69, 0
8, 32880, Note_on_c, 2, 70, 72
8, 32909, Note_on_c, 2, 70, 0
8, 32910, Note_on_c, 2, 72, 72
8, 32939, Note_on_c, 2, 72, 0
8, 32940, Note_on_c, 2, 70, 72
8, 32969, Note_on_c, 2, 70, 0
8, 32970, Note_on_c, 2, 69, 72
8, 32999, Note_on_c, 2, 69, 0
8, 33000, Note_on_c, 2, 70, 72
8, 33029, Note_on_c, 2, 70, 0
8, 33030, Note_on_c, 2, 72, 72
8, 33059, Note_on_c, 2, 72, 0
8, 33060, Note_on_c, 2, 69, 72
8, 33089, Note_on_c, 2, 69, 0
8, 33090, Note_on_c, 2, 70, 72
8, 33119, Note_on_c, 2, 70, 0
8, 33120, Note_on_c, 2, 72, 72
8, 33149, Note_on_c, 2, 72, 0
8, 33150, Note_on_c, 2, 74, 72
8, 33179, Note_on_c, 2, 74, 0
8, 33180, Note_on_c, 2, 72, 72
8, 33209, Note_on_c, 2, 72, 0
8, 33210, Note_on_c, 2, 70, 72
8, 33239, Note_on_c, 2, 70, 0
8, 33240, Note_on_c, 2, 72, 72
8, 33269, Note_on_c, 2, 72, 0
8, 33270, Note_on_c, 2, 74, 72
8, 33299, Note_on_c, 2, 74, 0
8, 33300, Note_on_c, 2, 70, 72
8, 33329, Note_on_c, 2, 70, 0
8, 33330, Note_on_c, 2, 72, 72
8, 33359, Note_on_c, 2, 72, 0
8, 33360, Note_on_c, 2, 74, 72
8, 33419, Note_on_c, 2, 74, 0
8, 33420, Note_on_c, 2, 75, 72
8, 33449, Note_on_c, 2, 75, 0
8, 33450, Note_on_c, 2, 74, 72
8, 33479, Note_on_c, 2, 74, 0
8, 33480, Note_on_c, 2, 72, 72
8, 33509, Note_on_c, 2, 72, 0
8, 33510, Note_on_c, 2, 70, 72
8, 33539, Note_on_c, 2, 70, 0
8, 33540, Note_on_c, 2, 69, 72
8, 33569, Note_on_c, 2, 69, 0
8, 33570, Note_on_c, 2, 67, 72
8, 33599, Note_on_c, 2, 67, 0
8, 33600, Note_on_c, 2, 66, 72
8, 33659, Note_on_c, 2, 66, 0
8, 33660, Note_on_c, 2, 69, 72
8, 33719, Note_on_c, 2, 69, 0
8, 33720, Note_on_c, 2, 74, 72
8, 33779, Note_on_c, 2, 74, 0
8, 33780, Note_on_c, 2, 72, 72
8, 33839, Note_on_c, 2, 72, 0
8, 33840, Note_on_c, 2, 70, 72
8, 33899, Note_on_c, 2, 70, 0
8, 33900, Note_on_c, 2, 71, 72
8, 33959, Note_on_c, 2, 71, 0
8, 33960, Note_on_c, 2, 72, 72
8, 34019, Note_on_c, 2, 72, 0
8, 34020, Note_on_c, 2, 74, 72
8, 34079, Note_on_c, 2, 74, 0
8, 34080, Note_on_c, 2, 75, 72
8, 34109, Note_on_c, 2, 75, 0
8, 34110, Note_on_c, 2, 74, 72
8, 34139, Note_on_c, 2, 74, 0
8, 34140, Note_on_c, 2, 72, 72
8, 34199, Note_on_c, 2, 72, 0
8, 35760, Note_on_c, 2, 77, 72
8, 35939, Note_on_c, 2, 77, 0
8, 35940, Note_on_c, 2, 77, 72
8, 35999, Note_on_c, 2, 77, 0
8, 36000, Note_on_c, 2, 74, 72
8, 36119, Note_on_c, 2, 74, 0
8, 36120, Note_on_c, 2, 79, 72
8, 36239, Note_on_c, 2, 79, 0
8, 36240, Note_on_c, 2, 69, 72
8, 36419, Note_on_c, 2, 69, 0
8, 36420, Note_on_c, 2, 69, 72
8, 36479, Note_on_c, 2, 69, 0
8, 36480, Note_on_c, 2, 70, 72
8, 36599, Note_on_c, 2, 70, 0
8, 36660, Note_on_c, 2, 70, 72
8, 36719, Note_on_c, 2, 70, 0
8, 36720, Note_on_c, 2, 72, 72
8, 36899, Note_on_c, 2, 72, 0
8, 36900, Note_on_c, 2, 70, 72
8, 36929, Note_on_c, 2, 70, 0
8, 36930, Note_on_c, 2, 72, 72
8, 36959, Note_on_c, 2, 72, 0
8, 36960, Note_on_c, 2, 74, 72
8, 37019, Note_on_c, 2, 74, 0
8, 37020, Note_on_c, 2, 72, 72
8, 37049, Note_on_c, 2, 72, 0
8, 37050, Note_on_c, 2, 74, 72
8, 37079, Note_on_c, 2, 74, 0
8, 37080, Note_on_c, 2, 75, 72
8, 37139, Note_on_c, 2, 75, 0
8, 37140, Note_on_c, 2, 74, 72
8, 37169, Note_on_c, 2, 74, 0
8, 37170, Note_on_c, 2, 75, 72
8, 37199, Note_on_c, 2, 75, 0
8, 37200, Note_on_c, 2, 77, 72
8, 37259, Note_on_c, 2, 77, 0
8, 37260, Note_on_c, 2, 72, 72
8, 37319, Note_on_c, 2, 72, 0
8, 37320, Note_on_c, 2, 77, 72
8, 37379, Note_on_c, 2, 77, 0
8, 37380, Note_on_c, 2, 76, 72
8, 37439, Note_on_c, 2, 76, 0
8, 37440, Note_on_c, 2, 74, 72
8, 37499, Note_on_c, 2, 74, 0
8, 37500, Note_on_c, 2, 65, 72
8, 37559, Note_on_c, 2, 65, 0
8, 37560, Note_on_c, 2, 70, 72
8, 37799, Note_on_c, 2, 70, 0
8, 37800, Note_on_c, 2, 69, 72
8, 37919, Note_on_c, 2, 69, 0
8, 37920, Note_on_c, 2, 70, 72
8, 37979, Note_on_c, 2, 70, 0
8, 37980, Note_on_c, 2, 70, 72
8, 38039, Note_on_c, 2, 70, 0
8, 38040, Note_on_c, 2, 70, 72
8, 38279, Note_on_c, 2, 70, 0
8, 38280, Note_on_c, 2, 68, 72
8, 38339, Note_on_c, 2, 68, 0
8, 38340, Note_on_c, 2, 67, 72
8, 38399, Note_on_c, 2, 67, 0
8, 38400, Note_on_c, 2, 68, 72
8, 38519, Note_on_c, 2, 68, 0
8, 38940, Note_on_c, 2, 65, 72
8, 38999, Note_on_c, 2, 65, 0
8, 39000, Note_on_c, 2, 70, 72
8, 39059, Note_on_c, 2, 70, 0
8, 39060, Note_on_c, 2, 68, 72
8, 39119, Note_on_c, 2, 68, 0
8, 39120, Note_on_c, 2, 67, 72
8, 39179, Note_on_c, 2, 67, 0
8, 39180, Note_on_c, 2, 60, 72
8, 39239, Note_on_c, 2, 60, 0
8, 39240, Note_on_c, 2, 72, 72
8, 39299, Note_on_c, 2, 72, 0
8, 39300, Note_on_c, 2, 70, 72
8, 39359, Note_on_c, 2, 70, 0
8, 39360, Note_on_c, 2, 68, 72
8, 39479, Note_on_c, 2, 68, 0
8, 40140, Note_on_c, 2, 69, 72
8, 40199, Note_on_c, 2, 69, 0
8, 40200, Note_on_c, 2, 69, 72
8, 40259, Note_on_c, 2, 69, 0
8, 40260, Note_on_c, 2, 69, 72
8, 40319, Note_on_c, 2, 69, 0
8, 40320, Note_on_c, 2, 70, 72
8, 40349, Note_on_c, 2, 70, 0
8, 40350, Note_on_c, 2, 72, 72
8, 40379, Note_on_c, 2, 72, 0
8, 40380, Note_on_c, 2, 70, 72
8, 40409, Note_on_c, 2, 70, 0
8, 40410, Note_on_c, 2, 69, 72
8, 40439, Note_on_c, 2, 69, 0
8, 40440, Note_on_c, 2, 71, 72
8, 40469, Note_on_c, 2, 71, 0
8, 40470, Note_on_c, 2, 72, 72
8, 40499, Note_on_c, 2, 72, 0
8, 40500, Note_on_c, 2, 69, 72
8, 40529, Note_on_c, 2, 69, 0
8, 40530, Note_on_c, 2, 71, 72
8, 40559, Note_on_c, 2, 71, 0
8, 40560, Note_on_c, 2, 72, 72
8, 40589, Note_on_c, 2, 72, 0
8, 40590, Note_on_c, 2, 74, 72
8, 40619, Note_on_c, 2, 74, 0
8, 40620, Note_on_c, 2, 72, 72
8, 40649, Note_on_c, 2, 72, 0
8, 40650, Note_on_c, 2, 71, 72
8, 40679, Note_on_c, 2, 71, 0
8, 40680, Note_on_c, 2, 73, 72
8, 40709, Note_on_c, 2, 73, 0
8, 40710, Note_on_c, 2, 74, 72
8, 40739, Note_on_c, 2, 74, 0
8, 40740, Note_on_c, 2, 71, 72
8, 40769, Note_on_c, 2, 71, 0
8, 40770, Note_on_c, 2, 73, 72
8, 40799, Note_on_c, 2, 73, 0
8, 40800, Note_on_c, 2, 74, 72
8, 40859, Note_on_c, 2, 74, 0
8, 40860, Note_on_c, 2, 69, 72
8, 40919, Note_on_c, 2, 69, 0
8, 40920, Note_on_c, 2, 74, 72
8, 40979, Note_on_c, 2, 74, 0
8, 40980, Note_on_c, 2, 72, 72
8, 41039, Note_on_c, 2, 72, 0
8, 41040, Note_on_c, 2, 70, 72
8, 41099, Note_on_c, 2, 70, 0
8, 41100, Note_on_c, 2, 64, 72
8, 41159, Note_on_c, 2, 64, 0
8, 41160, Note_on_c, 2, 76, 72
8, 41219, Note_on_c, 2, 76, 0
8, 41220, Note_on_c, 2, 74, 72
8, 41279, Note_on_c, 2, 74, 0
8, 41280, Note_on_c, 2, 73, 72
8, 41399, Note_on_c, 2, 73, 0
8, 41820, Note_on_c, 2, 76, 72
8, 41879, Note_on_c, 2, 76, 0
8, 41880, Note_on_c, 2, 76, 72
8, 41939, Note_on_c, 2, 76, 0
8, 41940, Note_on_c, 2, 76, 72
8, 41999, Note_on_c, 2, 76, 0
8, 42000, Note_on_c, 2, 77, 72
8, 42029, Note_on_c, 2, 77, 0
8, 42030, Note_on_c, 2, 79, 72
8, 42059, Note_on_c, 2, 79, 0
8, 42060, Note_on_c, 2, 77, 72
8, 42089, Note_on_c, 2, 77, 0
8, 42090, Note_on_c, 2, 76, 72
8, 42119, Note_on_c, 2, 76, 0
8, 42120, Note_on_c, 2, 77, 72
8, 42149, Note_on_c, 2, 77, 0
8, 42150, Note_on_c, 2, 79, 72
8, 42179, Note_on_c, 2, 79, 0
8, 42180, Note_on_c, 2, 76, 72
8, 42209, Note_on_c, 2, 76, 0
8, 42210, Note_on_c, 2, 77, 72
8, 42239, Note_on_c, 2, 77, 0
8, 42240, Note_on_c, 2, 79, 72
8, 42269, Note_on_c, 2, 79, 0
8, 42270, Note_on_c, 2, 81, 72
8, 42299, Note_on_c, 2, 81, 0
8, 42300, Note_on_c, 2, 79, 72
8, 42329, Note_on_c, 2, 79, 0
8, 42330, Note_on_c, 2, 77, 72
8, 42359, Note_on_c, 2, 77, 0
8, 42360, Note_on_c, 2, 79, 72
8, 42389, Note_on_c, 2, 79, 0
8, 42390, Note_on_c, 2, 81, 72
8, 42419, Note_on_c, 2, 81, 0
8, 42420, Note_on_c, 2, 77, 72
8, 42449, Note_on_c, 2, 77, 0
8, 42450, Note_on_c, 2, 79, 72
8, 42479, Note_on_c, 2, 79, 0
8, 42480, Note_on_c, 2, 81, 72
8, 42539, Note_on_c, 2, 81, 0
8, 42540, Note_on_c, 2, 82, 72
8, 42569, Note_on_c, 2, 82, 0
8, 42570, Note_on_c, 2, 81, 72
8, 42599, Note_on_c, 2, 81, 0
8, 42600, Note_on_c, 2, 79, 72
8, 42629, Note_on_c, 2, 79, 0
8, 42630, Note_on_c, 2, 77, 72
8, 42659, Note_on_c, 2, 77, 0
8, 42660, Note_on_c, 2, 76, 72
8, 42689, Note_on_c, 2, 76, 0
8, 42690, Note_on_c, 2, 74, 72
8, 42719, Note_on_c, 2, 74, 0
8, 42720, Note_on_c, 2, 73, 72
8, 42779, Note_on_c, 2, 73, 0
8, 42780, Note_on_c, 2, 74, 72
8, 42839, Note_on_c, 2, 74, 0
8, 42840, Note_on_c, 2, 76, 72
8, 43019, Note_on_c, 2, 76, 0
8, 43020, Note_on_c, 2, 79, 72
8, 43079, Note_on_c, 2, 79, 0
8, 43080, Note_on_c, 2, 77, 72
8, 43139, Note_on_c, 2, 77, 0
8, 43140, Note_on_c, 2, 76, 72
8, 43199, Note_on_c, 2, 76, 0
8, 43200, Note_on_c, 2, 74, 72
8, 43379, Note_on_c, 2, 74, 0
8, 43380, Note_on_c, 2, 74, 72
8, 43439, Note_on_c, 2, 74, 0
8, 43440, Note_on_c, 2, 73, 72
8, 43499, Note_on_c, 2, 73, 0
8, 43500, Note_on_c, 2, 73, 72
8, 43559, Note_on_c, 2, 73, 0
8, 43560, Note_on_c, 2, 74, 72
8, 43619, Note_on_c, 2, 74, 0
8, 43620, Note_on_c, 2, 76, 72
8, 43679, Note_on_c, 2, 76, 0
8, 43680, Note_on_c, 2, 69, 72
8, 43799, Note_on_c, 2, 69, 0
8, 44460, Note_on_c, 2, 69, 72
8, 44519, Note_on_c, 2, 69, 0
8, 44520, Note_on_c, 2, 69, 72
8, 44579, Note_on_c, 2, 69, 0
8, 44580, Note_on_c, 2, 69, 72
8, 44639, Note_on_c, 2, 69, 0
8, 44640, Note_on_c, 2, 70, 72
8, 44669, Note_on_c, 2, 70, 0
8, 44670, Note_on_c, 2, 72, 72
8, 44699, Note_on_c, 2, 72, 0
8, 44700, Note_on_c, 2, 70, 72
8, 44729, Note_on_c, 2, 70, 0
8, 44730, Note_on_c, 2, 69, 72
8, 44759, Note_on_c, 2, 69, 0
8, 44760, Note_on_c, 2, 71, 72
8, 44789, Note_on_c, 2, 71, 0
8, 44790, Note_on_c, 2, 72, 72
8, 44819, Note_on_c, 2, 72, 0
8, 44820, Note_on_c, 2, 69, 72
8, 44849, Note_on_c, 2, 69, 0
8, 44850, Note_on_c, 2, 71, 72
8, 44879, Note_on_c, 2, 71, 0
8, 44880, Note_on_c, 2, 72, 72
8, 44909, Note_on_c, 2, 72, 0
8, 44910, Note_on_c, 2, 74, 72
8, 44939, Note_on_c, 2, 74, 0
8, 44940, Note_on_c, 2, 72, 72
8, 44969, Note_on_c, 2, 72, 0
8, 44970, Note_on_c, 2, 71, 72
8, 44999, Note_on_c, 2, 71, 0
8, 45000, Note_on_c, 2, 73, 72
8, 45029, Note_on_c, 2, 73, 0
8, 45030, Note_on_c, 2, 74, 72
8, 45059, Note_on_c, 2, 74, 0
8, 45060, Note_on_c, 2, 71, 72
8, 45089, Note_on_c, 2, 71, 0
8, 45090, Note_on_c, 2, 73, 72
8, 45119, Note_on_c, 2, 73, 0
8, 45120, Note_on_c, 2, 74, 72
8, 45239, Note_on_c, 2, 74, 0
8, 45420, Note_on_c, 2, 76, 72
8, 45479, Note_on_c, 2, 76, 0
8, 45480, Note_on_c, 2, 76, 72
8, 45539, Note_on_c, 2, 76, 0
8, 45540, Note_on_c, 2, 76, 72
8, 45599, Note_on_c, 2, 76, 0
8, 45600, Note_on_c, 2, 77, 72
8, 45629, Note_on_c, 2, 77, 0
8, 45630, Note_on_c, 2, 79, 72
8, 45659, Note_on_c, 2, 79, 0
8, 45660, Note_on_c, 2, 77, 72
8, 45689, Note_on_c, 2, 77, 0
8, 45690, Note_on_c, 2, 76, 72
8, 45719, Note_on_c, 2, 76, 0
8, 45720, Note_on_c, 2, 78, 72
8, 45749, Note_on_c, 2, 78, 0
8, 45750, Note_on_c, 2, 79, 72
8, 45779, Note_on_c, 2, 79, 0
8, 45780, Note_on_c, 2, 76, 72
8, 45809, Note_on_c, 2, 76, 0
8, 45810, Note_on_c, 2, 78, 72
8, 45839, Note_on_c, 2, 78, 0
8, 45840, Note_on_c, 2, 79, 72
8, 45869, Note_on_c, 2, 79, 0
8, 45870, Note_on_c, 2, 81, 72
8, 45899, Note_on_c, 2, 81, 0
8, 45900, Note_on_c, 2, 79, 72
8, 45929, Note_on_c, 2, 79, 0
8, 45930, Note_on_c, 2, 78, 72
8, 45959, Note_on_c, 2, 78, 0
8, 45960, Note_on_c, 2, 80, 72
8, 45989, Note_on_c, 2, 80, 0
8, 45990, Note_on_c, 2, 81, 72
8, 46019, Note_on_c, 2, 81, 0
8, 46020, Note_on_c, 2, 78, 72
8, 46049, Note_on_c, 2, 78, 0
8, 46050, Note_on_c, 2, 80, 72
8, 46079, Note_on_c, 2, 80, 0
8, 46080, Note_on_c, 2, 81, 72
8, 46139, Note_on_c, 2, 81, 0
8, 46140, Note_on_c, 2, 73, 72
8, 46199, Note_on_c, 2, 73, 0
8, 46200, Note_on_c, 2, 74, 72
8, 46259, Note_on_c, 2, 74, 0
8, 46260, Note_on_c, 2, 74, 72
8, 46319, Note_on_c, 2, 74, 0
8, 46320, Note_on_c, 2, 74, 72
8, 46439, Note_on_c, 2, 74, 0
8, 46440, Note_on_c, 2, 73, 72
8, 46559, Note_on_c, 2, 73, 0
8, 46560, Note_on_c, 2, 74, 72
8, 46799, Note_on_c, 2, 74, 0
8, 46920, Note_on_c, 2, 74, 72
8, 47009, Note_on_c, 2, 74, 0
8, 47010, Note_on_c, 2, 74, 72
8, 47039, Note_on_c, 2, 74, 0
8, 47040, Note_on_c, 2, 73, 72
8, 47159, Note_on_c, 2, 73, 0
8, 47160, Note_on_c, 2, 74, 72
8, 47399, Note_on_c, 2, 74, 0
8, 47400, Note_on_c, 2, 73, 72
8, 47519, Note_on_c, 2, 73, 0
8, 47520, Note_on_c, 2, 74, 72
8, 47999, Note_on_c, 2, 74, 0
8, 47999, End_track
9, 0, Start_track
9, 0, Title_t, "Violin II"
9, 0, Program_c, 3, 48
9, 0, Control_c, 3, 7, 96
9, 0, Control_c, 3, 10, 24
9, 0, Control_c, 3, 11, 127
9, 60, Note_on_c, 3, 62, 48
9, 89, Note_on_c, 3, 62, 0
9, 180, Note_on_c, 3, 62, 48
9, 209, Note_on_c, 3, 62, 0
9, 300, Note_on_c, 3, 62, 48
9, 329, Note_on_c, 3, 62, 0
9, 420, Note_on_c, 3, 61, 48
9, 449, Note_on_c, 3, 61, 0
9, 540, Note_on_c, 3, 62, 48
9, 569, Note_on_c, 3, 62, 0
9, 660, Note_on_c, 3, 64, 48
9, 689, Note_on_c, 3, 64, 0
9, 780, Note_on_c, 3, 65, 48
9, 809, Note_on_c, 3, 65, 0
9, 900, Note_on_c, 3, 65, 48
9, 929, Note_on_c, 3, 65, 0
9, 1020, Note_on_c, 3, 64, 48
9, 1079, Note_on_c, 3, 64, 0
9, 1140, Note_on_c, 3, 64, 48
9, 1199, Note_on_c, 3, 64, 0
9, 1260, Note_on_c, 3, 64, 48
9, 1319, Note_on_c, 3, 64, 0
9, 1380, Note_on_c, 3, 66, 48
9, 1439, Note_on_c, 3, 66, 0
9, 1500, Note_on_c, 3, 67, 48
9, 1559, Note_on_c, 3, 67, 0
9, 1620, Note_on_c, 3, 61, 48
9, 1679, Note_on_c, 3, 61, 0
9, 1740, Note_on_c, 3, 62, 48
9, 1799, Note_on_c, 3, 62, 0
9, 1860, Note_on_c, 3, 64, 48
9, 1919, Note_on_c, 3, 64, 0
9, 1980, Note_on_c, 3, 69, 48
9, 2039, Note_on_c, 3, 69, 0
9, 2100, Note_on_c, 3, 67, 48
9, 2159, Note_on_c, 3, 67, 0
9, 2220, Note_on_c, 3, 67, 48
9, 2279, Note_on_c, 3, 67, 0
9, 2340, Note_on_c, 3, 72, 48
9, 2399, Note_on_c, 3, 72, 0
9, 2460, Note_on_c, 3, 72, 48
9, 2519, Note_on_c, 3, 72, 0
9, 2580, Note_on_c, 3, 69, 48
9, 2639, Note_on_c, 3, 69, 0
9, 2700, Note_on_c, 3, 69, 48
9, 2759, Note_on_c, 3, 69, 0
9, 2820, Note_on_c, 3, 68, 48
9, 2879, Note_on_c, 3, 68, 0
9, 2940, Note_on_c, 3, 69, 48
9, 2999, Note_on_c, 3, 69, 0
9, 3060, Note_on_c, 3, 76, 72
9, 3060, Note_on_c, 3, 73, 72
9, 3119, Note_on_c, 3, 73, 0
9, 3119, Note_on_c, 3, 76, 0
9, 3180, Note_on_c, 3, 74, 72
9, 3180, Note_on_c, 3, 77, 72
9, 3239, Note_on_c, 3, 77, 0
9, 3239, Note_on_c, 3, 74, 0
9, 3300, Note_on_c, 3, 69, 72
9, 3300, Note_on_c, 3, 79, 72
9, 3359, Note_on_c, 3, 79, 0
9, 3359, Note_on_c, 3, 69, 0
9, 3390, Note_on_c, 3, 86, 72
9, 3449, Note_on_c, 3, 86, 0
9, 3450, Note_on_c, 3, 74, 72
9, 3479, Note_on_c, 3, 74, 0
9, 3510, Note_on_c, 3, 74, 72
9, 3569, Note_on_c, 3, 74, 0
9, 3570, Note_on_c, 3, 62, 72
9, 3599, Note_on_c, 3, 62, 0
9, 3630, Note_on_c, 3, 70, 72
9, 3689, Note_on_c, 3, 70, 0
9, 3690, Note_on_c, 3, 58, 72
9, 3719, Note_on_c, 3, 58, 0
9, 3750, Note_on_c, 3, 76, 72
9, 3809, Note_on_c, 3, 76, 0
9, 3810, Note_on_c, 3, 64, 72
9, 3839, Note_on_c, 3, 64, 0
9, 3870, Note_on_c, 3, 77, 72
9, 3929, Note_on_c, 3, 77, 0
9, 3930, Note_on_c, 3, 65, 72
9, 3959, Note_on_c, 3, 65, 0
9, 3990, Note_on_c, 3, 71, 72
9, 4049, Note_on_c, 3, 71, 0
9, 4050, Note_on_c, 3, 59, 72
9, 4079, Note_on_c, 3, 59, 0
9, 4110, Note_on_c, 3, 69, 72
9, 4169, Note_on_c, 3, 69, 0
9, 4170, Note_on_c, 3, 57, 72
9, 4199, Note_on_c, 3, 57, 0
9, 4230, Note_on_c, 3, 79, 72
9, 4289, Note_on_c, 3, 79, 0
9, 4290, Note_on_c, 3, 67, 72
9, 4319, Note_on_c, 3, 67, 0
9, 4350, Note_on_c, 3, 77, 72
9, 4409, Note_on_c, 3, 77, 0
9, 4410, Note_on_c, 3, 65, 72
9, 4439, Note_on_c, 3, 65, 0
9, 4470, Note_on_c, 3, 74, 72
9, 4529, Note_on_c, 3, 74, 0
9, 4530, Note_on_c, 3, 62, 72
9, 4559, Note_on_c, 3, 62, 0
9, 4590, Note_on_c, 3, 72, 72
9, 4649, Note_on_c, 3, 72, 0
9, 4650, Note_on_c, 3, 60, 72
9, 4679, Note_on_c, 3, 60, 0
9, 4710, Note_on_c, 3, 77, 72
9, 4769, Note_on_c, 3, 77, 0
9, 4770, Note_on_c, 3, 65, 72
9, 4799, Note_on_c, 3, 65, 0
9, 4830, Note_on_c, 3, 76, 72
9, 4889, Note_on_c, 3, 76, 0
9, 4890, Note_on_c, 3, 64, 72
9, 4919, Note_on_c, 3, 64, 0
9, 4950, Note_on_c, 3, 78, 72
9, 5009, Note_on_c, 3, 78, 0
9, 5010, Note_on_c, 3, 66, 72
9, 5039, Note_on_c, 3, 66, 0
9, 5070, Note_on_c, 3, 79, 72
9, 5129, Note_on_c, 3, 79, 0
9, 5130, Note_on_c, 3, 67, 72
9, 5159, Note_on_c, 3, 67, 0
9, 5190, Note_on_c, 3, 82, 72
9, 5249, Note_on_c, 3, 82, 0
9, 5250, Note_on_c, 3, 70, 72
9, 5279, Note_on_c, 3, 70, 0
9, 5310, Note_on_c, 3, 81, 72
9, 5369, Note_on_c, 3, 81, 0
9, 5370, Note_on_c, 3, 69, 72
9, 5399, Note_on_c, 3, 69, 0
9, 5430, Note_on_c, 3, 86, 72
9, 5489, Note_on_c, 3, 86, 0
9, 5490, Note_on_c, 3, 74, 72
9, 5519, Note_on_c, 3, 74, 0
9, 5550, Note_on_c, 3, 88, 72
9, 5609, Note_on_c, 3, 88, 0
9, 5610, Note_on_c, 3, 76, 72
9, 5639, Note_on_c, 3, 76, 0
9, 5670, Note_on_c, 3, 76, 72
9, 5729, Note_on_c, 3, 76, 0
9, 5730, Note_on_c, 3, 64, 72
9, 5759, Note_on_c, 3, 64, 0
9, 5790, Note_on_c, 3, 81, 72
9, 5849, Note_on_c, 3, 81, 0
9, 5850, Note_on_c, 3, 69, 72
9, 5879, Note_on_c, 3, 69, 0
9, 5910, Note_on_c, 3, 79, 72
9, 5969, Note_on_c, 3, 79, 0
9, 5970, Note_on_c, 3, 67, 72
9, 5999, Note_on_c, 3, 67, 0
9, 6030, Note_on_c, 3, 77, 72
9, 6089, Note_on_c, 3, 77, 0
9, 6090, Note_on_c, 3, 65, 72
9, 6119, Note_on_c, 3, 65, 0
9, 6150, Note_on_c, 3, 81, 72
9, 6209, Note_on_c, 3, 81, 0
9, 6210, Note_on_c, 3, 69, 72
9, 6239, Note_on_c, 3, 69, 0
9, 6270, Note_on_c, 3, 86, 72
9, 6329, Note_on_c, 3, 86, 0
9, 6330, Note_on_c, 3, 74, 72
9, 6359, Note_on_c, 3, 74, 0
9, 6390, Note_on_c, 3, 86, 72
9, 6449, Note_on_c, 3, 86, 0
9, 6450, Note_on_c, 3, 74, 72
9, 6479, Note_on_c, 3, 74, 0
9, 6510, Note_on_c, 3, 81, 72
9, 6569, Note_on_c, 3, 81, 0
9, 6570, Note_on_c, 3, 69, 72
9, 6599, Note_on_c, 3, 69, 0
9, 6630, Note_on_c, 3, 82, 72
9, 6689, Note_on_c, 3, 82, 0
9, 6690, Note_on_c, 3, 76, 72
9, 6719, Note_on_c, 3, 76, 0
9, 6720, Note_on_c, 3, 77, 72
9, 6720, Note_on_c, 3, 69, 72
9, 6839, Note_on_c, 3, 69, 0
9, 6839, Note_on_c, 3, 77, 0
9, 6945, Note_on_c, 3, 67, 72
9, 6959, Note_on_c, 3, 67, 0
9, 6960, Note_on_c, 3, 65, 72
9, 6974, Note_on_c, 3, 65, 0
9, 6975, Note_on_c, 3, 64, 72
9, 6989, Note_on_c, 3, 64, 0
9, 6990, Note_on_c, 3, 65, 72
9, 7019, Note_on_c, 3, 65, 0
9, 7020, Note_on_c, 3, 69, 72
9, 7049, Note_on_c, 3, 69, 0
9, 7050, Note_on_c, 3, 65, 72
9, 7064, Note_on_c, 3, 65, 0
9, 7080, Note_on_c, 3, 60, 72
9, 7094, Note_on_c, 3, 60, 0
9, 7110, Note_on_c, 3, 65, 72
9, 7124, Note_on_c, 3, 65, 0
9, 7140, Note_on_c, 3, 57, 72
9, 7154, Note_on_c, 3, 57, 0
9, 7170, Note_on_c, 3, 60, 72
9, 7184, Note_on_c, 3, 60, 0
9, 7200, Note_on_c, 3, 65, 72
9, 7319, Note_on_c, 3, 65, 0
9, 7425, Note_on_c, 3, 67, 72
9, 7439, Note_on_c, 3, 67, 0
9, 7440, Note_on_c, 3, 65, 72
9, 7454, Note_on_c, 3, 65, 0
9, 7455, Note_on_c, 3, 64, 72
9, 7469, Note_on_c, 3, 64, 0
9, 7470, Note_on_c, 3, 65, 72
9, 7499, Note_on_c, 3, 65, 0
9, 7500, Note_on_c, 3, 69, 72
9, 7529, Note_on_c, 3, 69, 0
9, 7530, Note_on_c, 3, 65, 72
9, 7544, Note_on_c, 3, 65, 0
9, 7560, Note_on_c, 3, 60, 72
9, 7574, Note_on_c, 3, 60, 0
9, 7590, Note_on_c, 3, 65, 72
9, 7604, Note_on_c, 3, 65, 0
9, 7620, Note_on_c, 3, 57, 72
9, 7634, Note_on_c, 3, 57, 0
9, 7650, Note_on_c, 3, 60, 72
9, 7664, Note_on_c, 3, 60, 0
9, 7740, Note_on_c, 3, 79, 72
9, 7740, Note_on_c, 3, 69, 72
9, 7799, Note_on_c, 3, 69, 0
9, 7799, Note_on_c, 3, 79, 0
9, 7860, Note_on_c, 3, 77, 72
9, 7860, Note_on_c, 3, 70, 72
9, 7860, Note_on_c, 3, 62, 72
9, 7919, Note_on_c, 3, 62, 0
9, 7919, Note_on_c, 3, 70, 0
9, 7919, Note_on_c, 3, 77, 0
9, 7980, Note_on_c, 3, 75, 48
9, 8039, Note_on_c, 3, 75, 0
9, 8100, Note_on_c, 3, 74, 48
9, 8159, Note_on_c, 3, 74, 0
9, 8220, Note_on_c, 3, 58, 48
9, 8279, Note_on_c, 3, 58, 0
9, 8340, Note_on_c, 3, 58, 48
9, 8399, Note_on_c, 3, 58, 0
9, 8460, Note_on_c, 3, 60, 48
9, 8519, Note_on_c, 3, 60, 0
9, 8580, Note_on_c, 3, 60, 48
9, 8639, Note_on_c, 3, 60, 0
9, 8640, Note_on_c, 3, 62, 48
9, 8699, Note_on_c, 3, 62, 0
9, 8700, Note_on_c, 3, 62, 48
9, 8759, Note_on_c, 3, 62, 0
9, 8820, Note_on_c, 3, 65, 48
9, 8879, Note_on_c, 3, 65, 0
9, 8940, Note_on_c, 3, 63, 48
9, 8999, Note_on_c, 3, 63, 0
9, 9060, Note_on_c, 3, 63, 48
9, 9119, Note_on_c, 3, 63, 0
9, 9240, Note_on_c, 3, 72, 48
9, 9419, Note_on_c, 3, 72, 0
9, 9420, Note_on_c, 3, 70, 48
9, 9539, Note_on_c, 3, 70, 0
9, 9540, Note_on_c, 3, 69, 48
9, 9599, Note_on_c, 3, 69, 0
9, 9660, Note_on_c, 3, 58, 48
9, 9749, Note_on_c, 3, 58, 0
9, 9750, Note_on_c, 3, 57, 48
9, 9779, Note_on_c, 3, 57, 0
9, 9780, Note_on_c, 3, 58, 48
9, 9809, Note_on_c, 3, 58, 0
9, 9810, Note_on_c, 3, 60, 48
9, 9839, Note_on_c, 3, 60, 0
9, 9840, Note_on_c, 3, 62, 48
9, 9869, Note_on_c, 3, 62, 0
9, 9870, Note_on_c, 3, 60, 48
9, 9899, Note_on_c, 3, 60, 0
9, 9900, Note_on_c, 3, 62, 48
9, 9929, Note_on_c, 3, 62, 0
9, 9930, Note_on_c, 3, 64, 48
9, 9959, Note_on_c, 3, 64, 0
9, 9960, Note_on_c, 3, 65, 48
9, 10019, Note_on_c, 3, 65, 0
9, 10020, Note_on_c, 3, 66, 48
9, 10079, Note_on_c, 3, 66, 0
9, 10080, Note_on_c, 3, 67, 48
9, 10199, Note_on_c, 3, 67, 0
9, 10380, Note_on_c, 3, 65, 48
9, 10469, Note_on_c, 3, 65, 0
9, 10470, Note_on_c, 3, 67, 48
9, 10499, Note_on_c, 3, 67, 0
9, 10500, Note_on_c, 3, 65, 48
9, 10529, Note_on_c, 3, 65, 0
9, 10530, Note_on_c, 3, 63, 48
9, 10559, Note_on_c, 3, 63, 0
9, 10560, Note_on_c, 3, 62, 48
9, 10589, Note_on_c, 3, 62, 0
9, 10590, Note_on_c, 3, 63, 48
9, 10619, Note_on_c, 3, 63, 0
9, 10620, Note_on_c, 3, 62, 48
9, 10649, Note_on_c, 3, 62, 0
9, 10650, Note_on_c, 3, 60, 48
9, 10679, Note_on_c, 3, 60, 0
9, 10680, Note_on_c, 3, 58, 48
9, 10739, Note_on_c, 3, 58, 0
9, 10740, Note_on_c, 3, 74, 48
9, 10829, Note_on_c, 3, 74, 0
9, 10830, Note_on_c, 3, 75, 48
9, 10859, Note_on_c, 3, 75, 0
9, 10860, Note_on_c, 3, 74, 48
9, 10889, Note_on_c, 3, 74, 0
9, 10890, Note_on_c, 3, 72, 48
9, 10919, Note_on_c, 3, 72, 0
9, 10920, Note_on_c, 3, 70, 48
9, 10949, Note_on_c, 3, 70, 0
9, 10950, Note_on_c, 3, 72, 48
9, 10979, Note_on_c, 3, 72, 0
9, 10980, Note_on_c, 3, 70, 48
9, 11009, Note_on_c, 3, 70, 0
9, 11010, Note_on_c, 3, 69, 48
9, 11039, Note_on_c, 3, 69, 0
9, 11040, Note_on_c, 3, 67, 48
9, 11099, Note_on_c, 3, 67, 0
9, 11100, Note_on_c, 3, 72, 48
9, 11189, Note_on_c, 3, 72, 0
9, 11190, Note_on_c, 3, 74, 48
9, 11219, Note_on_c, 3, 74, 0
9, 11220, Note_on_c, 3, 72, 48
9, 11249, Note_on_c, 3, 72, 0
9, 11250, Note_on_c, 3, 70, 48
9, 11279, Note_on_c, 3, 70, 0
9, 11280, Note_on_c, 3, 69, 48
9, 11309, Note_on_c, 3, 69, 0
9, 11310, Note_on_c, 3, 70, 48
9, 11339, Note_on_c, 3, 70, 0
9, 11340, Note_on_c, 3, 69, 48
9, 11369, Note_on_c, 3, 69, 0
9, 11370, Note_on_c, 3, 67, 48
9, 11399, Note_on_c, 3, 67, 0
9, 11400, Note_on_c, 3, 65, 48
9, 11429, Note_on_c, 3, 65, 0
9, 11430, Note_on_c, 3, 64, 48
9, 11459, Note_on_c, 3, 64, 0
9, 11460, Note_on_c, 3, 65, 48
9, 11489, Note_on_c, 3, 65, 0
9, 11490, Note_on_c, 3, 67, 48
9, 11519, Note_on_c, 3, 67, 0
9, 11520, Note_on_c, 3, 69, 48
9, 11639, Note_on_c, 3, 69, 0
9, 11640, Note_on_c, 3, 67, 48
9, 11759, Note_on_c, 3, 67, 0
9, 11820, Note_on_c, 3, 74, 48
9, 11909, Note_on_c, 3, 74, 0
9, 11910, Note_on_c, 3, 75, 48
9, 11939, Note_on_c, 3, 75, 0
9, 11940, Note_on_c, 3, 74, 48
9, 11969, Note_on_c, 3, 74, 0
9, 11970, Note_on_c, 3, 72, 48
9, 11999, Note_on_c, 3, 72, 0
9, 12000, Note_on_c, 3, 70, 48
9, 12044, Note_on_c, 3, 70, 0
9, 12045, Note_on_c, 3, 58, 72
9, 12059, Note_on_c, 3, 58, 0
9, 12060, Note_on_c, 3, 67, 72
9, 12104, Note_on_c, 3, 67, 0
9, 12105, Note_on_c, 3, 62, 72
9, 12119, Note_on_c, 3, 62, 0
9, 12120, Note_on_c, 3, 70, 72
9, 12239, Note_on_c, 3, 70, 0
9, 12285, Note_on_c, 3, 60, 72
9, 12299, Note_on_c, 3, 60, 0
9, 12300, Note_on_c, 3, 69, 72
9, 12344, Note_on_c, 3, 69, 0
9, 12345, Note_on_c, 3, 65, 72
9, 12359, Note_on_c, 3, 65, 0
9, 12360, Note_on_c, 3, 72, 72
9, 12479, Note_on_c, 3, 72, 0
9, 12525, Note_on_c, 3, 70, 72
9, 12539, Note_on_c, 3, 70, 0
9, 12540, Note_on_c, 3, 74, 72
9, 12584, Note_on_c, 3, 74, 0
9, 12585, Note_on_c, 3, 70, 72
9, 12599, Note_on_c, 3, 70, 0
9, 12600, Note_on_c, 3, 74, 72
9, 12719, Note_on_c, 3, 74, 0
9, 12765, Note_on_c, 3, 62, 72
9, 12779, Note_on_c, 3, 62, 0
9, 12780, Note_on_c, 3, 69, 72
9, 12824, Note_on_c, 3, 69, 0
9, 12825, Note_on_c, 3, 66, 72
9, 12839, Note_on_c, 3, 66, 0
9, 12840, Note_on_c, 3, 78, 72
9, 12959, Note_on_c, 3, 78, 0
9, 13005, Note_on_c, 3, 62, 72
9, 13019, Note_on_c, 3, 62, 0
9, 13020, Note_on_c, 3, 70, 72
9, 13064, Note_on_c, 3, 70, 0
9, 13065, Note_on_c, 3, 67, 72
9, 13079, Note_on_c, 3, 67, 0
9, 13080, Note_on_c, 3, 79, 72
9, 13199, Note_on_c, 3, 79, 0
9, 13245, Note_on_c, 3, 75, 72
9, 13259, Note_on_c, 3, 75, 0
9, 13260, Note_on_c, 3, 74, 72
9, 13304, Note_on_c, 3, 74, 0
9, 13305, Note_on_c, 3, 70, 72
9, 13319, Note_on_c, 3, 70, 0
9, 13320, Note_on_c, 3, 70, 72
9, 13364, Note_on_c, 3, 70, 0
9, 13365, Note_on_c, 3, 72, 72
9, 13379, Note_on_c, 3, 72, 0
9, 13380, Note_on_c, 3, 69, 72
9, 13424, Note_on_c, 3, 69, 0
9, 13425, Note_on_c, 3, 72, 72
9, 13439, Note_on_c, 3, 72, 0
9, 13440, Note_on_c, 3, 74, 72
9, 13484, Note_on_c, 3, 74, 0
9, 13485, Note_on_c, 3, 62, 72
9, 13499, Note_on_c, 3, 62, 0
9, 13500, Note_on_c, 3, 65, 72
9, 13544, Note_on_c, 3, 65, 0
9, 13545, Note_on_c, 3, 62, 72
9, 13559, Note_on_c, 3, 62, 0
9, 13560, Note_on_c, 3, 74, 72
9, 13679, Note_on_c, 3, 74, 0
9, 13725, Note_on_c, 3, 70, 72
9, 13739, Note_on_c, 3, 70, 0
9, 13740, Note_on_c, 3, 74, 72
9, 13784, Note_on_c, 3, 74, 0
9, 13785, Note_on_c, 3, 70, 72
9, 13799, Note_on_c, 3, 70, 0
9, 13800, Note_on_c, 3, 82, 72
9, 13919, Note_on_c, 3, 82, 0
9, 13965, Note_on_c, 3, 67, 72
9, 13979, Note_on_c, 3, 67, 0
9, 13980, Note_on_c, 3, 72, 72
9, 14024, Note_on_c, 3, 72, 0
9, 14025, Note_on_c, 3, 67, 72
9, 14039, Note_on_c, 3, 67, 0
9, 14040, Note_on_c, 3, 82, 72
9, 14159, Note_on_c, 3, 82, 0
9, 14205, Note_on_c, 3, 67, 72
9, 14219, Note_on_c, 3, 67, 0
9, 14220, Note_on_c, 3, 72, 72
9, 14264, Note_on_c, 3, 72, 0
9, 14265, Note_on_c, 3, 67, 72
9, 14279, Note_on_c, 3, 67, 0
9, 14280, Note_on_c, 3, 81, 72
9, 14399, Note_on_c, 3, 81, 0
9, 14445, Note_on_c, 3, 69, 72
9, 14459, Note_on_c, 3, 69, 0
9, 14460, Note_on_c, 3, 81, 72
9, 14519, Note_on_c, 3, 81, 0
9, 14565, Note_on_c, 3, 67, 72
9, 14579, Note_on_c, 3, 67, 0
9, 14580, Note_on_c, 3, 79, 72
9, 14639, Note_on_c, 3, 79, 0
9, 14685, Note_on_c, 3, 70, 72
9, 14699, Note_on_c, 3, 70, 0
9, 14700, Note_on_c, 3, 74, 72
9, 14744, Note_on_c, 3, 74, 0
9, 14745, Note_on_c, 3, 79, 72
9, 14759, Note_on_c, 3, 79, 0
9, 14760, Note_on_c, 3, 62, 72
9, 14804, Note_on_c, 3, 62, 0
9, 14805, Note_on_c, 3, 69, 72
9, 14819, Note_on_c, 3, 69, 0
9, 14820, Note_on_c, 3, 72, 72
9, 14864, Note_on_c, 3, 72, 0
9, 14865, Note_on_c, 3, 78, 72
9, 14879, Note_on_c, 3, 78, 0
9, 14880, Note_on_c, 3, 79, 72
9, 14939, Note_on_c, 3, 79, 0
9, 14940, Note_on_c, 3, 58, 48
9, 14999, Note_on_c, 3, 58, 0
9, 15060, Note_on_c, 3, 62, 48
9, 15119, Note_on_c, 3, 62, 0
9, 15180, Note_on_c, 3, 60, 48
9, 15239, Note_on_c, 3, 60, 0
9, 15300, Note_on_c, 3, 60, 48
9, 15359, Note_on_c, 3, 60, 0
9, 15480, Note_on_c, 3, 69, 48
9, 15659, Note_on_c, 3, 69, 0
9, 15660, Note_on_c, 3, 67, 48
9, 15779, Note_on_c, 3, 67, 0
9, 15780, Note_on_c, 3, 66, 48
9, 15839, Note_on_c, 3, 66, 0
9, 15840, Note_on_c, 3, 67, 48
9, 15869, Note_on_c, 3, 67, 0
9, 15870, Note_on_c, 3, 70, 72
9, 15929, Note_on_c, 3, 70, 0
9, 15930, Note_on_c, 3, 82, 72
9, 15959, Note_on_c, 3, 82, 0
9, 15990, Note_on_c, 3, 67, 72
9, 16049, Note_on_c, 3, 67, 0
9, 16050, Note_on_c, 3, 79, 72
9, 16079, Note_on_c, 3, 79, 0
9, 16110, Note_on_c, 3, 64, 72
9, 16169, Note_on_c, 3, 64, 0
9, 16170, Note_on_c, 3, 76, 72
9, 16199, Note_on_c, 3, 76, 0
9, 16230, Note_on_c, 3, 69, 72
9, 16289, Note_on_c, 3, 69, 0
9, 16290, Note_on_c, 3, 81, 72
9, 16319, Note_on_c, 3, 81, 0
9, 16350, Note_on_c, 3, 69, 72
9, 16409, Note_on_c, 3, 69, 0
9, 16410, Note_on_c, 3, 81, 72
9, 16439, Note_on_c, 3, 81, 0
9, 16470, Note_on_c, 3, 73, 72
9, 16529, Note_on_c, 3, 73, 0
9, 16530, Note_on_c, 3, 85, 72
9, 16559, Note_on_c, 3, 85, 0
9, 16590, Note_on_c, 3, 74, 72
9, 16649, Note_on_c, 3, 74, 0
9, 16650, Note_on_c, 3, 86, 72
9, 16679, Note_on_c, 3, 86, 0
9, 16710, Note_on_c, 3, 65, 72
9, 16769, Note_on_c, 3, 65, 0
9, 16770, Note_on_c, 3, 77, 72
9, 16799, Note_on_c, 3, 77, 0
9, 16830, Note_on_c, 3, 64, 72
9, 16889, Note_on_c, 3, 64, 0
9, 16890, Note_on_c, 3, 76, 72
9, 16919, Note_on_c, 3, 76, 0
9, 16950, Note_on_c, 3, 71, 72
9, 17009, Note_on_c, 3, 71, 0
9, 17010, Note_on_c, 3, 83, 72
9, 17039, Note_on_c, 3, 83, 0
9, 17070, Note_on_c, 3, 72, 72
9, 17129, Note_on_c, 3, 72, 0
9, 17130, Note_on_c, 3, 84, 72
9, 17159, Note_on_c, 3, 84, 0
9, 17190, Note_on_c, 3, 68, 72
9, 17249, Note_on_c, 3, 68, 0
9, 17250, Note_on_c, 3, 80, 72
9, 17279, Note_on_c, 3, 80, 0
9, 17280, Note_on_c, 3, 81, 72
9, 17339, Note_on_c, 3, 81, 0
9, 17340, Note_on_c, 3, 64, 72
9, 17399, Note_on_c, 3, 64, 0
9, 17400, Note_on_c, 3, 69, 72
9, 17549, Note_on_c, 3, 69, 0
9, 17550, Note_on_c, 3, 62, 72
9, 17579, Note_on_c, 3, 62, 0
9, 17580, Note_on_c, 3, 64, 72
9, 17609, Note_on_c, 3, 64, 0
9, 17610, Note_on_c, 3, 66, 72
9, 17639, Note_on_c, 3, 66, 0
9, 17640, Note_on_c, 3, 67, 72
9, 17819, Note_on_c, 3, 67, 0
9, 17820, Note_on_c, 3, 67, 72
9, 17879, Note_on_c, 3, 67, 0
9, 17880, Note_on_c, 3, 66, 72
9, 17939, Note_on_c, 3, 66, 0
9, 17940, Note_on_c, 3, 66, 72
9, 17999, Note_on_c, 3, 66, 0
9, 18000, Note_on_c, 3, 67, 72
9, 18119, Note_on_c, 3, 67, 0
9, 18120, Note_on_c, 3, 69, 72
9, 18239, Note_on_c, 3, 69, 0
9, 18240, Note_on_c, 3, 70, 72
9, 18269, Note_on_c, 3, 70, 0
9, 18270, Note_on_c, 3, 69, 72
9, 18299, Note_on_c, 3, 69, 0
9, 18300, Note_on_c, 3, 67, 72
9, 18389, Note_on_c, 3, 67, 0
9, 18390, Note_on_c, 3, 69, 72
9, 18419, Note_on_c, 3, 69, 0
9, 18420, Note_on_c, 3, 70, 72
9, 18449, Note_on_c, 3, 70, 0
9, 18450, Note_on_c, 3, 67, 72
9, 18479, Note_on_c, 3, 67, 0
9, 18480, Note_on_c, 3, 72, 72
9, 18509, Note_on_c, 3, 72, 0
9, 18510, Note_on_c, 3, 70, 72
9, 18539, Note_on_c, 3, 70, 0
9, 18540, Note_on_c, 3, 69, 72
9, 18569, Note_on_c, 3, 69, 0
9, 18570, Note_on_c, 3, 70, 72
9, 18599, Note_on_c, 3, 70, 0
9, 18600, Note_on_c, 3, 72, 72
9, 18629, Note_on_c, 3, 72, 0
9, 18630, Note_on_c, 3, 70, 72
9, 18659, Note_on_c, 3, 70, 0
9, 18660, Note_on_c, 3, 69, 72
9, 18689, Note_on_c, 3, 69, 0
9, 18690, Note_on_c, 3, 70, 72
9, 18719, Note_on_c, 3, 70, 0
9, 18720, Note_on_c, 3, 67, 72
9, 18809, Note_on_c, 3, 67, 0
9, 18810, Note_on_c, 3, 67, 72
9, 18839, Note_on_c, 3, 67, 0
9, 18840, Note_on_c, 3, 67, 72
9, 18899, Note_on_c, 3, 67, 0
9, 18900, Note_on_c, 3, 67, 72
9, 18959, Note_on_c, 3, 67, 0
9, 18960, Note_on_c, 3, 60, 72
9, 19019, Note_on_c, 3, 60, 0
9, 19020, Note_on_c, 3, 72, 72
9, 19139, Note_on_c, 3, 72, 0
9, 19140, Note_on_c, 3, 70, 72
9, 19199, Note_on_c, 3, 70, 0
9, 19200, Note_on_c, 3, 69, 72
9, 19259, Note_on_c, 3, 69, 0
9, 19260, Note_on_c, 3, 67, 72
9, 19289, Note_on_c, 3, 67, 0
9, 19290, Note_on_c, 3, 65, 72
9, 19319, Note_on_c, 3, 65, 0
9, 19320, Note_on_c, 3, 64, 72
9, 19439, Note_on_c, 3, 64, 0
9, 19500, Note_on_c, 3, 69, 72
9, 19619, Note_on_c, 3, 69, 0
9, 19620, Note_on_c, 3, 67, 72
9, 19679, Note_on_c, 3, 67, 0
9, 19680, Note_on_c, 3, 65, 72
9, 19739, Note_on_c, 3, 65, 0
9, 19740, Note_on_c, 3, 63, 72
9, 19769, Note_on_c, 3, 63, 0
9, 19770, Note_on_c, 3, 62, 72
9, 19799, Note_on_c, 3, 62, 0
9, 19800, Note_on_c, 3, 60, 72
9, 19919, Note_on_c, 3, 60, 0
9, 19980, Note_on_c, 3, 65, 72
9, 20099, Note_on_c, 3, 65, 0
9, 20100, Note_on_c, 3, 64, 72
9, 20159, Note_on_c, 3, 64, 0
9, 20160, Note_on_c, 3, 62, 72
9, 20279, Note_on_c, 3, 62, 0
9, 20385, Note_on_c, 3, 72, 72
9, 20399, Note_on_c, 3, 72, 0
9, 20400, Note_on_c, 3, 70, 72
9, 20414, Note_on_c, 3, 70, 0
9, 20415, Note_on_c, 3, 69, 72
9, 20429, Note_on_c, 3, 69, 0
9, 20430, Note_on_c, 3, 70, 72
9, 20459, Note_on_c, 3, 70, 0
9, 20460, Note_on_c, 3, 74, 72
9, 20489, Note_on_c, 3, 74, 0
9, 20490, Note_on_c, 3, 70, 72
9, 20504, Note_on_c, 3, 70, 0
9, 20520, Note_on_c, 3, 65, 72
9, 20534, Note_on_c, 3, 65, 0
9, 20550, Note_on_c, 3, 62, 72
9, 20564, Note_on_c, 3, 62, 0
9, 20580, Note_on_c, 3, 58, 72
9, 20594, Note_on_c, 3, 58, 0
9, 20610, Note_on_c, 3, 65, 72
9, 20624, Note_on_c, 3, 65, 0
9, 20640, Note_on_c, 3, 57, 72
9, 20759, Note_on_c, 3, 57, 0
9, 20865, Note_on_c, 3, 76, 72
9, 20879, Note_on_c, 3, 76, 0
9, 20880, Note_on_c, 3, 74, 72
9, 20894, Note_on_c, 3, 74, 0
9, 20895, Note_on_c, 3, 73, 72
9, 20909, Note_on_c, 3, 73, 0
9, 20910, Note_on_c, 3, 74, 72
9, 20939, Note_on_c, 3, 74, 0
9, 20940, Note_on_c, 3, 77, 72
9, 20969, Note_on_c, 3, 77, 0
9, 20970, Note_on_c, 3, 74, 72
9, 20984, Note_on_c, 3, 74, 0
9, 21000, Note_on_c, 3, 69, 72
9, 21014, Note_on_c, 3, 69, 0
9, 21030, Note_on_c, 3, 65, 72
9, 21044, Note_on_c, 3, 65, 0
9, 21060, Note_on_c, 3, 62, 72
9, 21074, Note_on_c, 3, 62, 0
9, 21090, Note_on_c, 3, 65, 72
9, 21104, Note_on_c, 3, 65, 0
9, 21120, Note_on_c, 3, 56, 72
9, 21179, Note_on_c, 3, 56, 0
9, 21180, Note_on_c, 3, 62, 72
9, 21239, Note_on_c, 3, 62, 0
9, 21240, Note_on_c, 3, 62, 72
9, 21299, Note_on_c, 3, 62, 0
9, 21300, Note_on_c, 3, 62, 72
9, 21359, Note_on_c, 3, 62, 0
9, 21360, Note_on_c, 3, 62, 72
9, 21419, Note_on_c, 3, 62, 0
9, 21420, Note_on_c, 3, 62, 72
9, 21479, Note_on_c, 3, 62, 0
9, 21480, Note_on_c, 3, 64, 72
9, 21539, Note_on_c, 3, 64, 0
9, 21540, Note_on_c, 3, 65, 72
9, 21599, Note_on_c, 3, 65, 0
9, 21600, Note_on_c, 3, 65, 72
9, 21659, Note_on_c, 3, 65, 0
9, 21660, Note_on_c, 3, 64, 72
9, 21719, Note_on_c, 3, 64, 0
9, 21780, Note_on_c, 3, 64, 48
9, 21839, Note_on_c, 3, 64, 0
9, 21840, Note_on_c, 3, 65, 48
9, 21959, Note_on_c, 3, 65, 0
9, 21960, Note_on_c, 3, 67, 48
9, 22079, Note_on_c, 3, 67, 0
9, 22080, Note_on_c, 3, 65, 48
9, 22199, Note_on_c, 3, 65, 0
9, 22200, Note_on_c, 3, 64, 48
9, 22319, Note_on_c, 3, 64, 0
9, 22320, Note_on_c, 3, 62, 48
9, 22439, Note_on_c, 3, 62, 0
9, 22440, Note_on_c, 3, 62, 48
9, 22559, Note_on_c, 3, 62, 0
9, 22560, Note_on_c, 3, 62, 48
9, 22679, Note_on_c, 3, 62, 0
9, 22680, Note_on_c, 3, 61, 48
9, 22739, Note_on_c, 3, 61, 0
9, 22740, Note_on_c, 3, 59, 48
9, 22799, Note_on_c, 3, 59, 0
9, 22800, Note_on_c, 3, 60, 48
9, 23039, Note_on_c, 3, 60, 0
9, 23580, Note_on_c, 3, 64, 72
9, 23639, Note_on_c, 3, 64, 0
9, 23640, Note_on_c, 3, 64, 72
9, 23699, Note_on_c, 3, 64, 0
9, 23700, Note_on_c, 3, 64, 72
9, 23759, Note_on_c, 3, 64, 0
9, 23760, Note_on_c, 3, 65, 72
9, 23789, Note_on_c, 3, 65, 0
9, 23790, Note_on_c, 3, 67, 72
9, 23819, Note_on_c, 3, 67, 0
9, 23820, Note_on_c, 3, 65, 72
9, 23849, Note_on_c, 3, 65, 0
9, 23850, Note_on_c, 3, 64, 72
9, 23879, Note_on_c, 3, 64, 0
9, 23880, Note_on_c, 3, 65, 72
9, 23909, Note_on_c, 3, 65, 0
9, 23910, Note_on_c, 3, 67, 72
9, 23939, Note_on_c, 3, 67, 0
9, 23940, Note_on_c, 3, 64, 72
9, 23969, Note_on_c, 3, 64, 0
9, 23970, Note_on_c, 3, 65, 72
9, 23999, Note_on_c, 3, 65, 0
9, 24000, Note_on_c, 3, 67, 72
9, 24029, Note_on_c, 3, 67, 0
9, 24030, Note_on_c, 3, 69, 72
9, 24059, Note_on_c, 3, 69, 0
9, 24060, Note_on_c, 3, 67, 72
9, 24089, Note_on_c, 3, 67, 0
9, 24090, Note_on_c, 3, 65, 72
9, 24119, Note_on_c, 3, 65, 0
9, 24120, Note_on_c, 3, 67, 72
9, 24149, Note_on_c, 3, 67, 0
9, 24150, Note_on_c, 3, 69, 72
9, 24179, Note_on_c, 3, 69, 0
9, 24180, Note_on_c, 3, 65, 72
9, 24209, Note_on_c, 3, 65, 0
9, 24210, Note_on_c, 3, 67, 72
9, 24239, Note_on_c, 3, 67, 0
9, 24240, Note_on_c, 3, 69, 72
9, 24299, Note_on_c, 3, 69, 0
9, 24300, Note_on_c, 3, 70, 72
9, 24329, Note_on_c, 3, 70, 0
9, 24330, Note_on_c, 3, 69, 72
9, 24359, Note_on_c, 3, 69, 0
9, 24360, Note_on_c, 3, 67, 72
9, 24389, Note_on_c, 3, 67, 0
9, 24390, Note_on_c, 3, 65, 72
9, 24419, Note_on_c, 3, 65, 0
9, 24420, Note_on_c, 3, 64, 72
9, 24449, Note_on_c, 3, 64, 0
9, 24450, Note_on_c, 3, 62, 72
9, 24479, Note_on_c, 3, 62, 0
9, 24480, Note_on_c, 3, 61, 72
9, 24539, Note_on_c, 3, 61, 0
9, 24540, Note_on_c, 3, 64, 72
9, 24599, Note_on_c, 3, 64, 0
9, 24600, Note_on_c, 3, 69, 72
9, 24659, Note_on_c, 3, 69, 0
9, 24660, Note_on_c, 3, 67, 72
9, 24719, Note_on_c, 3, 67, 0
9, 24720, Note_on_c, 3, 65, 72
9, 24779, Note_on_c, 3, 65, 0
9, 24780, Note_on_c, 3, 64, 72
9, 24809, Note_on_c, 3, 64, 0
9, 24810, Note_on_c, 3, 65, 72
9, 24839, Note_on_c, 3, 65, 0
9, 24840, Note_on_c, 3, 62, 72
9, 24869, Note_on_c, 3, 62, 0
9, 24870, Note_on_c, 3, 64, 72
9, 24899, Note_on_c, 3, 64, 0
9, 24900, Note_on_c, 3, 66, 72
9, 24929, Note_on_c, 3, 66, 0
9, 24930, Note_on_c, 3, 68, 72
9, 24959, Note_on_c, 3, 68, 0
9, 24960, Note_on_c, 3, 69, 72
9, 25079, Note_on_c, 3, 69, 0
9, 26400, Note_on_c, 3, 69, 72
9, 26579, Note_on_c, 3, 69, 0
9, 26580, Note_on_c, 3, 69, 72
9, 26639, Note_on_c, 3, 69, 0
9, 26640, Note_on_c, 3, 65, 72
9, 26759, Note_on_c, 3, 65, 0
9, 26760, Note_on_c, 3, 70, 72
9, 26879, Note_on_c, 3, 70, 0
9, 26880, Note_on_c, 3, 61, 72
9, 27059, Note_on_c, 3, 61, 0
9, 27060, Note_on_c, 3, 61, 72
9, 27119, Note_on_c, 3, 61, 0
9, 27120, Note_on_c, 3, 62, 72
9, 27239, Note_on_c, 3, 62, 0
9, 27300, Note_on_c, 3, 62, 72
9, 27359, Note_on_c, 3, 62, 0
9, 27360, Note_on_c, 3, 64, 72
9, 27539, Note_on_c, 3, 64, 0
9, 27540, Note_on_c, 3, 62, 72
9, 27569, Note_on_c, 3, 62, 0
9, 27570, Note_on_c, 3, 64, 72
9, 27599, Note_on_c, 3, 64, 0
9, 27600, Note_on_c, 3, 65, 72
9, 27659, Note_on_c, 3, 65, 0
9, 27660, Note_on_c, 3, 64, 72
9, 27689, Note_on_c, 3, 64, 0
9, 27690, Note_on_c, 3, 65, 72
9, 27719, Note_on_c, 3, 65, 0
9, 27720, Note_on_c, 3, 67, 72
9, 27779, Note_on_c, 3, 67, 0
9, 27780, Note_on_c, 3, 65, 72
9, 27809, Note_on_c, 3, 65, 0
9, 27810, Note_on_c, 3, 67, 72
9, 27839, Note_on_c, 3, 67, 0
9, 27840, Note_on_c, 3, 69, 72
9, 27899, Note_on_c, 3, 69, 0
9, 27900, Note_on_c, 3, 67, 72
9, 27959, Note_on_c, 3, 67, 0
9, 27960, Note_on_c, 3, 65, 72
9, 28019, Note_on_c, 3, 65, 0
9, 28020, Note_on_c, 3, 64, 72
9, 28079, Note_on_c, 3, 64, 0
9, 28080, Note_on_c, 3, 62, 72
9, 28169, Note_on_c, 3, 62, 0
9, 28170, Note_on_c, 3, 64, 72
9, 28199, Note_on_c, 3, 64, 0
9, 28200, Note_on_c, 3, 66, 72
9, 28259, Note_on_c, 3, 66, 0
9, 28260, Note_on_c, 3, 68, 72
9, 28319, Note_on_c, 3, 68, 0
9, 28320, Note_on_c, 3, 69, 72
9, 28379, Note_on_c, 3, 69, 0
9, 28380, Note_on_c, 3, 64, 72
9, 28499, Note_on_c, 3, 64, 0
9, 28500, Note_on_c, 3, 62, 72
9, 28529, Note_on_c, 3, 62, 0
9, 28530, Note_on_c, 3, 60, 72
9, 28559, Note_on_c, 3, 60, 0
9, 28560, Note_on_c, 3, 59, 72
9, 28679, Note_on_c, 3, 59, 0
9, 28860, Note_on_c, 3, 64, 72
9, 28919, Note_on_c, 3, 64, 0
9, 28920, Note_on_c, 3, 69, 72
9, 29069, Note_on_c, 3, 69, 0
9, 29070, Note_on_c, 3, 67, 72
9, 29099, Note_on_c, 3, 67, 0
9, 29100, Note_on_c, 3, 65, 72
9, 29129, Note_on_c, 3, 65, 0
9, 29130, Note_on_c, 3, 64, 72
9, 29159, Note_on_c, 3, 64, 0
9, 29160, Note_on_c, 3, 65, 72
9, 29219, Note_on_c, 3, 65, 0
9, 29220, Note_on_c, 3, 67, 72
9, 29249, Note_on_c, 3, 67, 0
9, 29250, Note_on_c, 3, 65, 72
9, 29279, Note_on_c, 3, 65, 0
9, 29280, Note_on_c, 3, 64, 72
9, 29399, Note_on_c, 3, 64, 0
9, 29580, Note_on_c, 3, 64, 72
9, 29639, Note_on_c, 3, 64, 0
9, 29640, Note_on_c, 3, 66, 72
9, 29699, Note_on_c, 3, 66, 0
9, 29700, Note_on_c, 3, 68, 72
9, 29759, Note_on_c, 3, 68, 0
9, 29760, Note_on_c, 3, 69, 72
9, 29879, Note_on_c, 3, 69, 0
9, 30060, Note_on_c, 3, 69, 72
9, 30119, Note_on_c, 3, 69, 0
9, 30120, Note_on_c, 3, 74, 72
9, 30179, Note_on_c, 3, 74, 0
9, 30180, Note_on_c, 3, 72, 72
9, 30239, Note_on_c, 3, 72, 0
9, 30240, Note_on_c, 3, 70, 72
9, 30269, Note_on_c, 3, 70, 0
9, 30270, Note_on_c, 3, 69, 72
9, 30299, Note_on_c, 3, 69, 0
9, 30300, Note_on_c, 3, 67, 72
9, 30389, Note_on_c, 3, 67, 0
9, 30390, Note_on_c, 3, 69, 72
9, 30419, Note_on_c, 3, 69, 0
9, 30420, Note_on_c, 3, 65, 72
9, 30449, Note_on_c, 3, 65, 0
9, 30450, Note_on_c, 3, 67, 72
9, 30479, Note_on_c, 3, 67, 0
9, 30480, Note_on_c, 3, 64, 72
9, 30599, Note_on_c, 3, 64, 0
9, 30600, Note_on_c, 3, 65, 72
9, 30659, Note_on_c, 3, 65, 0
9, 30660, Note_on_c, 3, 67, 72
9, 30719, Note_on_c, 3, 67, 0
9, 30720, Note_on_c, 3, 60, 72
9, 30839, Note_on_c, 3, 60, 0
9, 31020, Note_on_c, 3, 60, 72
9, 31139, Note_on_c, 3, 60, 0
9, 31140, Note_on_c, 3, 58, 72
9, 31199, Note_on_c, 3, 58, 0
9, 31200, Note_on_c, 3, 57, 72
9, 31259, Note_on_c, 3, 57, 0
9, 31260, Note_on_c, 3, 65, 72
9, 31319, Note_on_c, 3, 65, 0
9, 31320, Note_on_c, 3, 62, 72
9, 31379, Note_on_c, 3, 62, 0
9, 31395, Note_on_c, 3, 58, 72
9, 31454, Note_on_c, 3, 58, 0
9, 31500, Note_on_c, 3, 67, 72
9, 31559, Note_on_c, 3, 67, 0
9, 31560, Note_on_c, 3, 64, 72
9, 31619, Note_on_c, 3, 64, 0
9, 31620, Note_on_c, 3, 60, 72
9, 31679, Note_on_c, 3, 60, 0
9, 31740, Note_on_c, 3, 64, 72
9, 31769, Note_on_c, 3, 64, 0
9, 31770, Note_on_c, 3, 65, 72
9, 31799, Note_on_c, 3, 65, 0
9, 31800, Note_on_c, 3, 67, 72
9, 31859, Note_on_c, 3, 67, 0
9, 31860, Note_on_c, 3, 65, 72
9, 31889, Note_on_c, 3, 65, 0
9, 31890, Note_on_c, 3, 67, 72
9, 31919, Note_on_c, 3, 67, 0
9, 31920, Note_on_c, 3, 69, 72
9, 31979, Note_on_c, 3, 69, 0
9, 31980, Note_on_c, 3, 64, 72
9, 32039, Note_on_c, 3, 64, 0
9, 32040, Note_on_c, 3, 65, 72
9, 32099, Note_on_c, 3, 65, 0
9, 32100, Note_on_c, 3, 61, 72
9, 32159, Note_on_c, 3, 61, 0
9, 32160, Note_on_c, 3, 62, 72
9, 32279, Note_on_c, 3, 62, 0
9, 32280, Note_on_c, 3, 64, 72
9, 32339, Note_on_c, 3, 64, 0
9, 32340, Note_on_c, 3, 66, 72
9, 32399, Note_on_c, 3, 66, 0
9, 32400, Note_on_c, 3, 67, 72
9, 32519, Note_on_c, 3, 67, 0
9, 32700, Note_on_c, 3, 63, 72
9, 32759, Note_on_c, 3, 63, 0
9, 32760, Note_on_c, 3, 62, 72
9, 32819, Note_on_c, 3, 62, 0
9, 32820, Note_on_c, 3, 60, 72
9, 32879, Note_on_c, 3, 60, 0
9, 32880, Note_on_c, 3, 58, 72
9, 32939, Note_on_c, 3, 58, 0
9, 32940, Note_on_c, 3, 55, 72
9, 32999, Note_on_c, 3, 55, 0
9, 33000, Note_on_c, 3, 63, 72
9, 33179, Note_on_c, 3, 63, 0
9, 33180, Note_on_c, 3, 60, 72
9, 33239, Note_on_c, 3, 60, 0
9, 33240, Note_on_c, 3, 65, 72
9, 33479, Note_on_c, 3, 65, 0
9, 33480, Note_on_c, 3, 63, 72
9, 33599, Note_on_c, 3, 63, 0
9, 33600, Note_on_c, 3, 62, 72
9, 33659, Note_on_c, 3, 62, 0
9, 33660, Note_on_c, 3, 66, 72
9, 33719, Note_on_c, 3, 66, 0
9, 33720, Note_on_c, 3, 67, 72
9, 33779, Note_on_c, 3, 67, 0
9, 33780, Note_on_c, 3, 69, 72
9, 33839, Note_on_c, 3, 69, 0
9, 33840, Note_on_c, 3, 62, 72
9, 33899, Note_on_c, 3, 62, 0
9, 33900, Note_on_c, 3, 68, 72
9, 33959, Note_on_c, 3, 68, 0
9, 33960, Note_on_c, 3, 67, 72
9, 34079, Note_on_c, 3, 67, 0
9, 34380, Note_on_c, 3, 62, 72
9, 34439, Note_on_c, 3, 62, 0
9, 34440, Note_on_c, 3, 62, 72
9, 34499, Note_on_c, 3, 62, 0
9, 34500, Note_on_c, 3, 62, 72
9, 34559, Note_on_c, 3, 62, 0
9, 34560, Note_on_c, 3, 63, 72
9, 34589, Note_on_c, 3, 63, 0
9, 34590, Note_on_c, 3, 65, 72
9, 34619, Note_on_c, 3, 65, 0
9, 34620, Note_on_c, 3, 63, 72
9, 34649, Note_on_c, 3, 63, 0
9, 34650, Note_on_c, 3, 62, 72
9, 34679, Note_on_c, 3, 62, 0
9, 34680, Note_on_c, 3, 63, 72
9, 34709, Note_on_c, 3, 63, 0
9, 34710, Note_on_c, 3, 65, 72
9, 34739, Note_on_c, 3, 65, 0
9, 34740, Note_on_c, 3, 62, 72
9, 34769, Note_on_c, 3, 62, 0
9, 34770, Note_on_c, 3, 63, 72
9, 34799, Note_on_c, 3, 63, 0
9, 34800, Note_on_c, 3, 65, 72
9, 34829, Note_on_c, 3, 65, 0
9, 34830, Note_on_c, 3, 67, 72
9, 34859, Note_on_c, 3, 67, 0
9, 34860, Note_on_c, 3, 65, 72
9, 34889, Note_on_c, 3, 65, 0
9, 34890, Note_on_c, 3, 63, 72
9, 34919, Note_on_c, 3, 63, 0
9, 34920, Note_on_c, 3, 65, 72
9, 34949, Note_on_c, 3, 65, 0
9, 34950, Note_on_c, 3, 67, 72
9, 34979, Note_on_c, 3, 67, 0
9, 34980, Note_on_c, 3, 63, 72
9, 35009, Note_on_c, 3, 63, 0
9, 35010, Note_on_c, 3, 65, 72
9, 35039, Note_on_c, 3, 65, 0
9, 35040, Note_on_c, 3, 67, 72
9, 35099, Note_on_c, 3, 67, 0
9, 35100, Note_on_c, 3, 68, 72
9, 35129, Note_on_c, 3, 68, 0
9, 35130, Note_on_c, 3, 67, 72
9, 35159, Note_on_c, 3, 67, 0
9, 35160, Note_on_c, 3, 65, 72
9, 35189, Note_on_c, 3, 65, 0
9, 35190, Note_on_c, 3, 63, 72
9, 35219, Note_on_c, 3, 63, 0
9, 35220, Note_on_c, 3, 62, 72
9, 35249, Note_on_c, 3, 62, 0
9, 35250, Note_on_c, 3, 60, 72
9, 35279, Note_on_c, 3, 60, 0
9, 35280, Note_on_c, 3, 59, 72
9, 35339, Note_on_c, 3, 59, 0
9, 35340, Note_on_c, 3, 62, 72
9, 35399, Note_on_c, 3, 62, 0
9, 35400, Note_on_c, 3, 67, 72
9, 35459, Note_on_c, 3, 67, 0
9, 35460, Note_on_c, 3, 65, 72
9, 35519, Note_on_c, 3, 65, 0
9, 35520, Note_on_c, 3, 63, 72
9, 35699, Note_on_c, 3, 63, 0
9, 35700, Note_on_c, 3, 62, 72
9, 35759, Note_on_c, 3, 62, 0
9, 35760, Note_on_c, 3, 60, 72
9, 35819, Note_on_c, 3, 60, 0
9, 35820, Note_on_c, 3, 65, 72
9, 35879, Note_on_c, 3, 65, 0
9, 35880, Note_on_c, 3, 67, 72
9, 35939, Note_on_c, 3, 67, 0
9, 35940, Note_on_c, 3, 69, 72
9, 35999, Note_on_c, 3, 69, 0
9, 36000, Note_on_c, 3, 70, 72
9, 36059, Note_on_c, 3, 70, 0
9, 36060, Note_on_c, 3, 58, 72
9, 36119, Note_on_c, 3, 58, 0
9, 36120, Note_on_c, 3, 63, 72
9, 36209, Note_on_c, 3, 63, 0
9, 36210, Note_on_c, 3, 62, 72
9, 36239, Note_on_c, 3, 62, 0
9, 36240, Note_on_c, 3, 60, 72
9, 36299, Note_on_c, 3, 60, 0
9, 36300, Note_on_c, 3, 60, 72
9, 36359, Note_on_c, 3, 60, 0
9, 36360, Note_on_c, 3, 65, 72
9, 36539, Note_on_c, 3, 65, 0
9, 36540, Note_on_c, 3, 63, 72
9, 36569, Note_on_c, 3, 63, 0
9, 36570, Note_on_c, 3, 62, 72
9, 36599, Note_on_c, 3, 62, 0
9, 36600, Note_on_c, 3, 63, 72
9, 36629, Note_on_c, 3, 63, 0
9, 36630, Note_on_c, 3, 65, 72
9, 36659, Note_on_c, 3, 65, 0
9, 36660, Note_on_c, 3, 62, 72
9, 36689, Note_on_c, 3, 62, 0
9, 36690, Note_on_c, 3, 63, 72
9, 36719, Note_on_c, 3, 63, 0
9, 36720, Note_on_c, 3, 60, 72
9, 36779, Note_on_c, 3, 60, 0
9, 36780, Note_on_c, 3, 62, 72
9, 36809, Note_on_c, 3, 62, 0
9, 36810, Note_on_c, 3, 63, 72
9, 36839, Note_on_c, 3, 63, 0
9, 36840, Note_on_c, 3, 65, 72
9, 37019, Note_on_c, 3, 65, 0
9, 37020, Note_on_c, 3, 58, 72
9, 37139, Note_on_c, 3, 58, 0
9, 37140, Note_on_c, 3, 67, 72
9, 37199, Note_on_c, 3, 67, 0
9, 37200, Note_on_c, 3, 65, 72
9, 37319, Note_on_c, 3, 65, 0
9, 38160, Note_on_c, 3, 72, 72
9, 38339, Note_on_c, 3, 72, 0
9, 38340, Note_on_c, 3, 72, 72
9, 38399, Note_on_c, 3, 72, 0
9, 38400, Note_on_c, 3, 68, 72
9, 38519, Note_on_c, 3, 68, 0
9, 38520, Note_on_c, 3, 73, 72
9, 38639, Note_on_c, 3, 73, 0
9, 38640, Note_on_c, 3, 64, 72
9, 38819, Note_on_c, 3, 64, 0
9, 38820, Note_on_c, 3, 64, 72
9, 38879, Note_on_c, 3, 64, 0
9, 38880, Note_on_c, 3, 65, 72
9, 38999, Note_on_c, 3, 65, 0
9, 39660, Note_on_c, 3, 62, 72
9, 39719, Note_on_c, 3, 62, 0
9, 39720, Note_on_c, 3, 62, 72
9, 39779, Note_on_c, 3, 62, 0
9, 39780, Note_on_c, 3, 62, 72
9, 39839, Note_on_c, 3, 62, 0
9, 39840, Note_on_c, 3, 63, 72
9, 39869, Note_on_c, 3, 63, 0
9, 39870, Note_on_c, 3, 65, 72
9, 39899, Note_on_c, 3, 65, 0
9, 39900, Note_on_c, 3, 63, 72
9, 39929, Note_on_c, 3, 63, 0
9, 39930, Note_on_c, 3, 62, 72
9, 39959, Note_on_c, 3, 62, 0
9, 39960, Note_on_c, 3, 64, 72
9, 39989, Note_on_c, 3, 64, 0
9, 39990, Note_on_c, 3, 65, 72
9, 40019, Note_on_c, 3, 65, 0
9, 40020, Note_on_c, 3, 62, 72
9, 40049, Note_on_c, 3, 62, 0
9, 40050, Note_on_c, 3, 64, 72
9, 40079, Note_on_c, 3, 64, 0
9, 40080, Note_on_c, 3, 65, 72
9, 40109, Note_on_c, 3, 65, 0
9, 40110, Note_on_c, 3, 67, 72
9, 40139, Note_on_c, 3, 67, 0
9, 40140, Note_on_c, 3, 65, 72
9, 40169, Note_on_c, 3, 65, 0
9, 40170, Note_on_c, 3, 64, 72
9, 40199, Note_on_c, 3, 64, 0
9, 40200, Note_on_c, 3, 66, 72
9, 40229, Note_on_c, 3, 66, 0
9, 40230, Note_on_c, 3, 67, 72
9, 40259, Note_on_c, 3, 67, 0
9, 40260, Note_on_c, 3, 64, 72
9, 40289, Note_on_c, 3, 64, 0
9, 40290, Note_on_c, 3, 66, 72
9, 40319, Note_on_c, 3, 66, 0
9, 40320, Note_on_c, 3, 67, 72
9, 40379, Note_on_c, 3, 67, 0
9, 40380, Note_on_c, 3, 62, 72
9, 40439, Note_on_c, 3, 62, 0
9, 40440, Note_on_c, 3, 67, 72
9, 40499, Note_on_c, 3, 67, 0
9, 40500, Note_on_c, 3, 65, 72
9, 40559, Note_on_c, 3, 65, 0
9, 40560, Note_on_c, 3, 64, 72
9, 40619, Note_on_c, 3, 64, 0
9, 40620, Note_on_c, 3, 57, 72
9, 40679, Note_on_c, 3, 57, 0
9, 40680, Note_on_c, 3, 69, 72
9, 40739, Note_on_c, 3, 69, 0
9, 40740, Note_on_c, 3, 67, 72
9, 40799, Note_on_c, 3, 67, 0
9, 40800, Note_on_c, 3, 65, 72
9, 40919, Note_on_c, 3, 65, 0
9, 40920, Note_on_c, 3, 69, 72
9, 41009, Note_on_c, 3, 69, 0
9, 41010, Note_on_c, 3, 69, 72
9, 41039, Note_on_c, 3, 69, 0
9, 41040, Note_on_c, 3, 62, 72
9, 41099, Note_on_c, 3, 62, 0
9, 41100, Note_on_c, 3, 71, 72
9, 41159, Note_on_c, 3, 71, 0
9, 41160, Note_on_c, 3, 71, 72
9, 41279, Note_on_c, 3, 71, 0
9, 41280, Note_on_c, 3, 64, 72
9, 41339, Note_on_c, 3, 64, 0
9, 41340, Note_on_c, 3, 61, 72
9, 41399, Note_on_c, 3, 61, 0
9, 41400, Note_on_c, 3, 62, 72
9, 41459, Note_on_c, 3, 62, 0
9, 41460, Note_on_c, 3, 64, 72
9, 41519, Note_on_c, 3, 64, 0
9, 41520, Note_on_c, 3, 65, 72
9, 41579, Note_on_c, 3, 65, 0
9, 41580, Note_on_c, 3, 64, 72
9, 41609, Note_on_c, 3, 64, 0
9, 41610, Note_on_c, 3, 65, 72
9, 41639, Note_on_c, 3, 65, 0
9, 41640, Note_on_c, 3, 67, 72
9, 41699, Note_on_c, 3, 67, 0
9, 41700, Note_on_c, 3, 65, 72
9, 41729, Note_on_c, 3, 65, 0
9, 41730, Note_on_c, 3, 67, 72
9, 41759, Note_on_c, 3, 67, 0
9, 41760, Note_on_c, 3, 69, 72
9, 41819, Note_on_c, 3, 69, 0
9, 41820, Note_on_c, 3, 70, 72
9, 41879, Note_on_c, 3, 70, 0
9, 41880, Note_on_c, 3, 69, 72
9, 41939, Note_on_c, 3, 69, 0
9, 41940, Note_on_c, 3, 67, 72
9, 41999, Note_on_c, 3, 67, 0
9, 42000, Note_on_c, 3, 65, 72
9, 42059, Note_on_c, 3, 65, 0
9, 42060, Note_on_c, 3, 69, 72
9, 42119, Note_on_c, 3, 69, 0
9, 42120, Note_on_c, 3, 74, 72
9, 42359, Note_on_c, 3, 74, 0
9, 42360, Note_on_c, 3, 73, 72
9, 42479, Note_on_c, 3, 73, 0
9, 42840, Note_on_c, 3, 70, 72
9, 43019, Note_on_c, 3, 70, 0
9, 43020, Note_on_c, 3, 70, 72
9, 43079, Note_on_c, 3, 70, 0
9, 43080, Note_on_c, 3, 69, 72
9, 43139, Note_on_c, 3, 69, 0
9, 43140, Note_on_c, 3, 69, 72
9, 43199, Note_on_c, 3, 69, 0
9, 43200, Note_on_c, 3, 69, 72
9, 43319, Note_on_c, 3, 69, 0
9, 43320, Note_on_c, 3, 68, 72
9, 43439, Note_on_c, 3, 68, 0
9, 43440, Note_on_c, 3, 69, 72
9, 43499, Note_on_c, 3, 69, 0
9, 43500, Note_on_c, 3, 69, 72
9, 43619, Note_on_c, 3, 69, 0
9, 43620, Note_on_c, 3, 69, 72
9, 43679, Note_on_c, 3, 69, 0
9, 43680, Note_on_c, 3, 65, 72
9, 43799, Note_on_c, 3, 65, 0
9, 43800, Note_on_c, 3, 70, 72
9, 43919, Note_on_c, 3, 70, 0
9, 43920, Note_on_c, 3, 61, 72
9, 44099, Note_on_c, 3, 61, 0
9, 44100, Note_on_c, 3, 61, 72
9, 44159, Note_on_c, 3, 61, 0
9, 44160, Note_on_c, 3, 62, 72
9, 44279, Note_on_c, 3, 62, 0
9, 44340, Note_on_c, 3, 62, 72
9, 44399, Note_on_c, 3, 62, 0
9, 44400, Note_on_c, 3, 64, 72
9, 44579, Note_on_c, 3, 64, 0
9, 44580, Note_on_c, 3, 62, 72
9, 44609, Note_on_c, 3, 62, 0
9, 44610, Note_on_c, 3, 64, 72
9, 44639, Note_on_c, 3, 64, 0
9, 44640, Note_on_c, 3, 65, 72
9, 44759, Note_on_c, 3, 65, 0
9, 44940, Note_on_c, 3, 64, 72
9, 44999, Note_on_c, 3, 64, 0
9, 45000, Note_on_c, 3, 64, 72
9, 45059, Note_on_c, 3, 64, 0
9, 45060, Note_on_c, 3, 64, 72
9, 45119, Note_on_c, 3, 64, 0
9, 45120, Note_on_c, 3, 65, 72
9, 45149, Note_on_c, 3, 65, 0
9, 45150, Note_on_c, 3, 67, 72
9, 45179, Note_on_c, 3, 67, 0
9, 45180, Note_on_c, 3, 65, 72
9, 45209, Note_on_c, 3, 65, 0
9, 45210, Note_on_c, 3, 64, 72
9, 45239, Note_on_c, 3, 64, 0
9, 45240, Note_on_c, 3, 66, 72
9, 45269, Note_on_c, 3, 66, 0
9, 45270, Note_on_c, 3, 67, 72
9, 45299, Note_on_c, 3, 67, 0
9, 45300, Note_on_c, 3, 64, 72
9, 45329, Note_on_c, 3, 64, 0
9, 45330, Note_on_c, 3, 66, 72
9, 45359, Note_on_c, 3, 66, 0
9, 45360, Note_on_c, 3, 67, 72
9, 45389, Note_on_c, 3, 67, 0
9, 45390, Note_on_c, 3, 69, 72
9, 45419, Note_on_c, 3, 69, 0
9, 45420, Note_on_c, 3, 67, 72
9, 45449, Note_on_c, 3, 67, 0
9, 45450, Note_on_c, 3, 66, 72
9, 45479, Note_on_c, 3, 66, 0
9, 45480, Note_on_c, 3, 68, 72
9, 45509, Note_on_c, 3, 68, 0
9, 45510, Note_on_c, 3, 69, 72
9, 45539, Note_on_c, 3, 69, 0
9, 45540, Note_on_c, 3, 66, 72
9, 45569, Note_on_c, 3, 66, 0
9, 45570, Note_on_c, 3, 68, 72
9, 45599, Note_on_c, 3, 68, 0
9, 45600, Note_on_c, 3, 69, 72
9, 45719, Note_on_c, 3, 69, 0
9, 45720, Note_on_c, 3, 69, 72
9, 45809, Note_on_c, 3, 69, 0
9, 45810, Note_on_c, 3, 69, 72
9, 45839, Note_on_c, 3, 69, 0
9, 45840, Note_on_c, 3, 67, 72
9, 45959, Note_on_c, 3, 67, 0
9, 45960, Note_on_c, 3, 71, 72
9, 46049, Note_on_c, 3, 71, 0
9, 46050, Note_on_c, 3, 71, 72
9, 46079, Note_on_c, 3, 71, 0
9, 46080, Note_on_c, 3, 69, 72
9, 46139, Note_on_c, 3, 69, 0
9, 46140, Note_on_c, 3, 67, 72
9, 46199, Note_on_c, 3, 67, 0
9, 46200, Note_on_c, 3, 65, 72
9, 46259, Note_on_c, 3, 65, 0
9, 46260, Note_on_c, 3, 70, 72
9, 46319, Note_on_c, 3, 70, 0
9, 46320, Note_on_c, 3, 69, 72
9, 46499, Note_on_c, 3, 69, 0
9, 46500, Note_on_c, 3, 69, 72
9, 46559, Note_on_c, 3, 69, 0
9, 46560, Note_on_c, 3, 71, 72
9, 46799, Note_on_c, 3, 71, 0
9, 46920, Note_on_c, 3, 71, 72
9, 47009, Note_on_c, 3, 71, 0
9, 47010, Note_on_c, 3, 71, 72
9, 47039, Note_on_c, 3, 71, 0
9, 47040, Note_on_c, 3, 69, 72
9, 47159, Note_on_c, 3, 69, 0
9, 47160, Note_on_c, 3, 69, 72
9, 47279, Note_on_c, 3, 69, 0
9, 47280, Note_on_c, 3, 69, 72
9, 47459, Note_on_c, 3, 69, 0
9, 47460, Note_on_c, 3, 69, 72
9, 47519, Note_on_c, 3, 69, 0
9, 47520, Note_on_c, 3, 69, 72
9, 47999, Note_on_c, 3, 69, 0
9, 47999, End_track
10, 0, Start_track
10, 0, Title_t, "Viola"
10, 0, Program_c, 4, 48
10, 0, Control_c, 4, 7, 96
10, 0, Control_c, 4, 10, 80
10, 0, Control_c, 4, 11, 127
10, 60, Note_on_c, 4, 53, 48
10, 89, Note_on_c, 4, 53, 0
10, 180, Note_on_c, 4, 57, 48
10, 209, Note_on_c, 4, 57, 0
10, 300, Note_on_c, 4, 55, 48
10, 329, Note_on_c, 4, 55, 0
10, 405, Note_on_c, 4, 58, 48
10, 434, Note_on_c, 4, 58, 0
10, 540, Note_on_c, 4, 57, 48
10, 569, Note_on_c, 4, 57, 0
10, 660, Note_on_c, 4, 57, 48
10, 689, Note_on_c, 4, 57, 0
10, 780, Note_on_c, 4, 57, 48
10, 809, Note_on_c, 4, 57, 0
10, 900, Note_on_c, 4, 59, 48
10, 929, Note_on_c, 4, 59, 0
10, 1020, Note_on_c, 4, 60, 48
10, 1079, Note_on_c, 4, 60, 0
10, 1140, Note_on_c, 4, 62, 48
10, 1199, Note_on_c, 4, 62, 0
10, 1260, Note_on_c, 4, 60, 48
10, 1319, Note_on_c, 4, 60, 0
10, 1380, Note_on_c, 4, 62, 48
10, 1439, Note_on_c, 4, 62, 0
10, 1500, Note_on_c, 4, 62, 48
10, 1559, Note_on_c, 4, 62, 0
10, 1620, Note_on_c, 4, 57, 48
10, 1679, Note_on_c, 4, 57, 0
10, 1740, Note_on_c, 4, 57, 48
10, 1799, Note_on_c, 4, 57, 0
10, 1860, Note_on_c, 4, 59, 48
10, 1919, Note_on_c, 4, 59, 0
10, 1980, Note_on_c, 4, 65, 48
10, 2039, Note_on_c, 4, 65, 0
10, 2100, Note_on_c, 4, 65, 48
10, 2159, Note_on_c, 4, 65, 0
10, 2220, Note_on_c, 4, 64, 48
10, 2279, Note_on_c, 4, 64, 0
10, 2340, Note_on_c, 4, 69, 48
10, 2399, Note_on_c, 4, 69, 0
10, 2460, Note_on_c, 4, 65, 48
10, 2519, Note_on_c, 4, 65, 0
10, 2580, Note_on_c, 4, 65, 48
10, 2639, Note_on_c, 4, 65, 0
10, 2700, Note_on_c, 4, 64, 48
10, 2759, Note_on_c, 4, 64, 0
10, 2820, Note_on_c, 4, 62, 48
10, 2879, Note_on_c, 4, 62, 0
10, 2940, Note_on_c, 4, 60, 48
10, 2999, Note_on_c, 4, 60, 0
10, 3060, Note_on_c, 4, 67, 72
10, 3119, Note_on_c, 4, 67, 0
10, 3180, Note_on_c, 4, 65, 72
10, 3239, Note_on_c, 4, 65, 0
10, 3300, Note_on_c, 4, 64, 72
10, 3359, Note_on_c, 4, 64, 0
10, 3360, Note_on_c, 4, 62, 72
10, 3419, Note_on_c, 4, 62, 0
10, 3480, Note_on_c, 4, 62, 72
10, 3539, Note_on_c, 4, 62, 0
10, 3600, Note_on_c, 4, 62, 72
10, 3659, Note_on_c, 4, 62, 0
10, 3720, Note_on_c, 4, 61, 72
10, 3779, Note_on_c, 4, 61, 0
10, 3840, Note_on_c, 4, 62, 72
10, 3899, Note_on_c, 4, 62, 0
10, 3960, Note_on_c, 4, 64, 72
10, 4019, Note_on_c, 4, 64, 0
10, 4080, Note_on_c, 4, 65, 72
10, 4139, Note_on_c, 4, 65, 0
10, 4200, Note_on_c, 4, 64, 72
10, 4259, Note_on_c, 4, 64, 0
10, 4320, Note_on_c, 4, 62, 72
10, 4379, Note_on_c, 4, 62, 0
10, 4440, Note_on_c, 4, 64, 72
10, 4499, Note_on_c, 4, 64, 0
10, 4560, Note_on_c, 4, 65, 72
10, 4619, Note_on_c, 4, 65, 0
10, 4620, Note_on_c, 4, 64, 72
10, 4679, Note_on_c, 4, 64, 0
10, 4680, Note_on_c, 4, 62, 72
10, 4739, Note_on_c, 4, 62, 0
10, 4740, Note_on_c, 4, 67, 72
10, 4799, Note_on_c, 4, 67, 0
10, 4800, Note_on_c, 4, 60, 72
10, 4919, Note_on_c, 4, 60, 0
10, 4920, Note_on_c, 4, 62, 72
10, 5039, Note_on_c, 4, 62, 0
10, 5040, Note_on_c, 4, 55, 72
10, 5159, Note_on_c, 4, 55, 0
10, 5160, Note_on_c, 4, 60, 72
10, 5279, Note_on_c, 4, 60, 0
10, 5280, Note_on_c, 4, 65, 72
10, 5399, Note_on_c, 4, 65, 0
10, 5400, Note_on_c, 4, 70, 72
10, 5459, Note_on_c, 4, 70, 0
10, 5460, Note_on_c, 4, 69, 72
10, 5519, Note_on_c, 4, 69, 0
10, 5520, Note_on_c, 4, 67, 72
10, 5579, Note_on_c, 4, 67, 0
10, 5580, Note_on_c, 4, 65, 72
10, 5609, Note_on_c, 4, 65, 0
10, 5610, Note_on_c, 4, 64, 72
10, 5639, Note_on_c, 4, 64, 0
10, 5640, Note_on_c, 4, 69, 72
10, 5699, Note_on_c, 4, 69, 0
10, 5700, Note_on_c, 4, 67, 72
10, 5759, Note_on_c, 4, 67, 0
10, 5760, Note_on_c, 4, 65, 72
10, 5819, Note_on_c, 4, 65, 0
10, 5820, Note_on_c, 4, 64, 72
10, 5879, Note_on_c, 4, 64, 0
10, 5880, Note_on_c, 4, 62, 72
10, 5939, Note_on_c, 4, 62, 0
10, 5940, Note_on_c, 4, 61, 72
10, 5999, Note_on_c, 4, 61, 0
10, 6000, Note_on_c, 4, 62, 72
10, 6119, Note_on_c, 4, 62, 0
10, 6120, Note_on_c, 4, 60, 72
10, 6239, Note_on_c, 4, 60, 0
10, 6240, Note_on_c, 4, 58, 72
10, 6359, Note_on_c, 4, 58, 0
10, 6360, Note_on_c, 4, 70, 72
10, 6479, Note_on_c, 4, 70, 0
10, 6480, Note_on_c, 4, 69, 72
10, 6539, Note_on_c, 4, 69, 0
10, 6600, Note_on_c, 4, 67, 72
10, 6659, Note_on_c, 4, 67, 0
10, 6720, Note_on_c, 4, 65, 72
10, 6839, Note_on_c, 4, 65, 0
10, 6990, Note_on_c, 4, 65, 72
10, 7019, Note_on_c, 4, 65, 0
10, 7020, Note_on_c, 4, 69, 72
10, 7049, Note_on_c, 4, 69, 0
10, 7050, Note_on_c, 4, 65, 72
10, 7064, Note_on_c, 4, 65, 0
10, 7080, Note_on_c, 4, 60, 72
10, 7094, Note_on_c, 4, 60, 0
10, 7110, Note_on_c, 4, 65, 72
10, 7124, Note_on_c, 4, 65, 0
10, 7140, Note_on_c, 4, 57, 72
10, 7154, Note_on_c, 4, 57, 0
10, 7170, Note_on_c, 4, 60, 72
10, 7184, Note_on_c, 4, 60, 0
10, 7200, Note_on_c, 4, 53, 72
10, 7319, Note_on_c, 4, 53, 0
10, 7470, Note_on_c, 4, 65, 72
10, 7499, Note_on_c, 4, 65, 0
10, 7500, Note_on_c, 4, 69, 72
10, 7529, Note_on_c, 4, 69, 0
10, 7530, Note_on_c, 4, 65, 72
10, 7544, Note_on_c, 4, 65, 0
10, 7560, Note_on_c, 4, 60, 72
10, 7574, Note_on_c, 4, 60, 0
10, 7590, Note_on_c, 4, 65, 72
10, 7604, Note_on_c, 4, 65, 0
10, 7620, Note_on_c, 4, 57, 72
10, 7634, Note_on_c, 4, 57, 0
10, 7650, Note_on_c, 4, 60, 72
10, 7664, Note_on_c, 4, 60, 0
10, 7680, Note_on_c, 4, 63, 72
10, 7739, Note_on_c, 4, 63, 0
10, 7800, Note_on_c, 4, 62, 72
10, 7859, Note_on_c, 4, 62, 0
10, 7980, Note_on_c, 4, 72, 48
10, 8039, Note_on_c, 4, 72, 0
10, 8100, Note_on_c, 4, 70, 48
10, 8159, Note_on_c, 4, 70, 0
10, 8220, Note_on_c, 4, 55, 48
10, 8279, Note_on_c, 4, 55, 0
10, 8340, Note_on_c, 4, 55, 48
10, 8399, Note_on_c, 4, 55, 0
10, 8460, Note_on_c, 4, 58, 48
10, 8519, Note_on_c, 4, 58, 0
10, 8580, Note_on_c, 4, 57, 48
10, 8639, Note_on_c, 4, 57, 0
10, 8640, Note_on_c, 4, 58, 48
10, 8699, Note_on_c, 4, 58, 0
10, 8700, Note_on_c, 4, 58, 48
10, 8759, Note_on_c, 4, 58, 0
10, 8820, Note_on_c, 4, 58, 48
10, 8879, Note_on_c, 4, 58, 0
10, 8940, Note_on_c, 4, 60, 48
10, 8999, Note_on_c, 4, 60, 0
10, 9060, Note_on_c, 4, 60, 48
10, 9119, Note_on_c, 4, 60, 0
10, 9120, Note_on_c, 4, 58, 48
10, 9239, Note_on_c, 4, 58, 0
10, 9240, Note_on_c, 4, 57, 48
10, 9359, Note_on_c, 4, 57, 0
10, 9360, Note_on_c, 4, 58, 48
10, 9419, Note_on_c, 4, 58, 0
10, 9420, Note_on_c, 4, 55, 48
10, 9479, Note_on_c, 4, 55, 0
10, 9480, Note_on_c, 4, 51, 48
10, 9539, Note_on_c, 4, 51, 0
10, 9540, Note_on_c, 4, 53, 48
10, 9599, Note_on_c, 4, 53, 0
10, 9600, Note_on_c, 4, 58, 48
10, 9719, Note_on_c, 4, 58, 0
10, 9900, Note_on_c, 4, 62, 48
10, 9989, Note_on_c, 4, 62, 0
10, 9990, Note_on_c, 4, 63, 48
10, 10019, Note_on_c, 4, 63, 0
10, 10020, Note_on_c, 4, 62, 48
10, 10049, Note_on_c, 4, 62, 0
10, 10050, Note_on_c, 4, 60, 48
10, 10079, Note_on_c, 4, 60, 0
10, 10080, Note_on_c, 4, 58, 48
10, 10109, Note_on_c, 4, 58, 0
10, 10110, Note_on_c, 4, 57, 48
10, 10139, Note_on_c, 4, 57, 0
10, 10140, Note_on_c, 4, 55, 48
10, 10169, Note_on_c, 4, 55, 0
10, 10170, Note_on_c, 4, 53, 48
10, 10199, Note_on_c, 4, 53, 0
10, 10200, Note_on_c, 4, 51, 48
10, 10319, Note_on_c, 4, 51, 0
10, 10320, Note_on_c, 4, 53, 48
10, 10439, Note_on_c, 4, 53, 0
10, 10500, Note_on_c, 4, 65, 48
10, 10589, Note_on_c, 4, 65, 0
10, 10590, Note_on_c, 4, 67, 48
10, 10619, Note_on_c, 4, 67, 0
10, 10620, Note_on_c, 4, 65, 48
10, 10649, Note_on_c, 4, 65, 0
10, 10650, Note_on_c, 4, 63, 48
10, 10679, Note_on_c, 4, 63, 0
10, 10680, Note_on_c, 4, 62, 48
10, 10709, Note_on_c, 4, 62, 0
10, 10710, Note_on_c, 4, 63, 48
10, 10739, Note_on_c, 4, 63, 0
10, 10740, Note_on_c, 4, 62, 48
10, 10769, Note_on_c, 4, 62, 0
10, 10770, Note_on_c, 4, 60, 48
10, 10799, Note_on_c, 4, 60, 0
10, 10800, Note_on_c, 4, 58, 48
10, 10829, Note_on_c, 4, 58, 0
10, 10830, Note_on_c, 4, 72, 48
10, 10859, Note_on_c, 4, 72, 0
10, 10860, Note_on_c, 4, 70, 48
10, 10889, Note_on_c, 4, 70, 0
10, 10890, Note_on_c, 4, 69, 48
10, 10919, Note_on_c, 4, 69, 0
10, 10920, Note_on_c, 4, 67, 48
10, 10949, Note_on_c, 4, 67, 0
10, 10950, Note_on_c, 4, 69, 48
10, 10979, Note_on_c, 4, 69, 0
10, 10980, Note_on_c, 4, 67, 48
10, 11009, Note_on_c, 4, 67, 0
10, 11010, Note_on_c, 4, 65, 48
10, 11039, Note_on_c, 4, 65, 0
10, 11040, Note_on_c, 4, 64, 48
10, 11159, Note_on_c, 4, 64, 0
10, 11160, Note_on_c, 4, 65, 48
10, 11279, Note_on_c, 4, 65, 0
10, 11580, Note_on_c, 4, 62, 48
10, 11669, Note_on_c, 4, 62, 0
10, 11670, Note_on_c, 4, 63, 48
10, 11699, Note_on_c, 4, 63, 0
10, 11700, Note_on_c, 4, 62, 48
10, 11729, Note_on_c, 4, 62, 0
10, 11730, Note_on_c, 4, 60, 48
10, 11759, Note_on_c, 4, 60, 0
10, 11760, Note_on_c, 4, 58, 48
10, 11789, Note_on_c, 4, 58, 0
10, 11790, Note_on_c, 4, 57, 48
10, 11819, Note_on_c, 4, 57, 0
10, 11820, Note_on_c, 4, 58, 48
10, 11849, Note_on_c, 4, 58, 0
10, 11850, Note_on_c, 4, 60, 48
10, 11879, Note_on_c, 4, 60, 0
10, 11880, Note_on_c, 4, 62, 48
10, 12119, Note_on_c, 4, 62, 0
10, 12165, Note_on_c, 4, 60, 72
10, 12179, Note_on_c, 4, 60, 0
10, 12180, Note_on_c, 4, 67, 72
10, 12224, Note_on_c, 4, 67, 0
10, 12225, Note_on_c, 4, 63, 72
10, 12239, Note_on_c, 4, 63, 0
10, 12240, Note_on_c, 4, 65, 72
10, 12359, Note_on_c, 4, 65, 0
10, 12405, Note_on_c, 4, 69, 72
10, 12419, Note_on_c, 4, 69, 0
10, 12420, Note_on_c, 4, 72, 72
10, 12464, Note_on_c, 4, 72, 0
10, 12465, Note_on_c, 4, 69, 72
10, 12479, Note_on_c, 4, 69, 0
10, 12480, Note_on_c, 4, 65, 72
10, 12599, Note_on_c, 4, 65, 0
10, 12645, Note_on_c, 4, 62, 72
10, 12659, Note_on_c, 4, 62, 0
10, 12660, Note_on_c, 4, 65, 72
10, 12704, Note_on_c, 4, 65, 0
10, 12705, Note_on_c, 4, 62, 72
10, 12719, Note_on_c, 4, 62, 0
10, 12720, Note_on_c, 4, 69, 72
10, 12839, Note_on_c, 4, 69, 0
10, 12885, Note_on_c, 4, 66, 72
10, 12899, Note_on_c, 4, 66, 0
10, 12900, Note_on_c, 4, 69, 72
10, 12944, Note_on_c, 4, 69, 0
10, 12945, Note_on_c, 4, 66, 72
10, 12959, Note_on_c, 4, 66, 0
10, 12960, Note_on_c, 4, 70, 72
10, 13079, Note_on_c, 4, 70, 0
10, 13125, Note_on_c, 4, 58, 72
10, 13139, Note_on_c, 4, 58, 0
10, 13140, Note_on_c, 4, 62, 72
10, 13184, Note_on_c, 4, 62, 0
10, 13185, Note_on_c, 4, 58, 72
10, 13199, Note_on_c, 4, 58, 0
10, 13200, Note_on_c, 4, 63, 72
10, 13259, Note_on_c, 4, 63, 0
10, 13260, Note_on_c, 4, 65, 72
10, 13379, Note_on_c, 4, 65, 0
10, 13380, Note_on_c, 4, 63, 72
10, 13439, Note_on_c, 4, 63, 0
10, 13440, Note_on_c, 4, 62, 72
10, 13559, Note_on_c, 4, 62, 0
10, 13605, Note_on_c, 4, 62, 72
10, 13619, Note_on_c, 4, 62, 0
10, 13620, Note_on_c, 4, 65, 72
10, 13664, Note_on_c, 4, 65, 0
10, 13665, Note_on_c, 4, 62, 72
10, 13679, Note_on_c, 4, 62, 0
10, 13680, Note_on_c, 4, 58, 72
10, 13799, Note_on_c, 4, 58, 0
10, 13845, Note_on_c, 4, 58, 72
10, 13859, Note_on_c, 4, 58, 0
10, 13860, Note_on_c, 4, 62, 72
10, 13904, Note_on_c, 4, 62, 0
10, 13905, Note_on_c, 4, 58, 72
10, 13919, Note_on_c, 4, 58, 0
10, 13920, Note_on_c, 4, 55, 72
10, 14039, Note_on_c, 4, 55, 0
10, 14085, Note_on_c, 4, 67, 72
10, 14099, Note_on_c, 4, 67, 0
10, 14100, Note_on_c, 4, 70, 72
10, 14144, Note_on_c, 4, 70, 0
10, 14145, Note_on_c, 4, 67, 72
10, 14159, Note_on_c, 4, 67, 0
10, 14160, Note_on_c, 4, 55, 72
10, 14279, Note_on_c, 4, 55, 0
10, 14325, Note_on_c, 4, 63, 72
10, 14339, Note_on_c, 4, 63, 0
10, 14340, Note_on_c, 4, 55, 72
10, 14384, Note_on_c, 4, 55, 0
10, 14385, Note_on_c, 4, 67, 72
10, 14399, Note_on_c, 4, 67, 0
10, 14400, Note_on_c, 4, 66, 72
10, 14459, Note_on_c, 4, 66, 0
10, 14505, Note_on_c, 4, 66, 72
10, 14519, Note_on_c, 4, 66, 0
10, 14520, Note_on_c, 4, 64, 72
10, 14579, Note_on_c, 4, 64, 0
10, 14625, Note_on_c, 4, 64, 72
10, 14639, Note_on_c, 4, 64, 0
10, 14640, Note_on_c, 4, 62, 72
10, 14699, Note_on_c, 4, 62, 0
10, 14700, Note_on_c, 4, 62, 72
10, 14759, Note_on_c, 4, 62, 0
10, 14760, Note_on_c, 4, 62, 72
10, 14819, Note_on_c, 4, 62, 0
10, 14820, Note_on_c, 4, 62, 72
10, 14879, Note_on_c, 4, 62, 0
10, 14880, Note_on_c, 4, 55, 72
10, 14939, Note_on_c, 4, 55, 0
10, 14940, Note_on_c, 4, 55, 48
10, 14999, Note_on_c, 4, 55, 0
10, 15060, Note_on_c, 4, 58, 48
10, 15119, Note_on_c, 4, 58, 0
10, 15180, Note_on_c, 4, 57, 48
10, 15239, Note_on_c, 4, 57, 0
10, 15300, Note_on_c, 4, 57, 48
10, 15359, Note_on_c, 4, 57, 0
10, 15360, Note_on_c, 4, 55, 48
10, 15479, Note_on_c, 4, 55, 0
10, 15480, Note_on_c, 4, 54, 48
10, 15599, Note_on_c, 4, 54, 0
10, 15600, Note_on_c, 4, 55, 48
10, 15659, Note_on_c, 4, 55, 0
10, 15660, Note_on_c, 4, 51, 48
10, 15719, Note_on_c, 4, 51, 0
10, 15720, Note_on_c, 4, 48, 48
10, 15779, Note_on_c, 4, 48, 0
10, 15780, Note_on_c, 4, 50, 48
10, 15839, Note_on_c, 4, 50, 0
10, 15840, Note_on_c, 4, 55, 48
10, 15899, Note_on_c, 4, 55, 0
10, 15960, Note_on_c, 4, 58, 72
10, 16019, Note_on_c, 4, 58, 0
10, 16080, Note_on_c, 4, 57, 72
10, 16139, Note_on_c, 4, 57, 0
10, 16200, Note_on_c, 4, 57, 72
10, 16259, Note_on_c, 4, 57, 0
10, 16320, Note_on_c, 4, 62, 72
10, 16379, Note_on_c, 4, 62, 0
10, 16440, Note_on_c, 4, 64, 72
10, 16499, Note_on_c, 4, 64, 0
10, 16560, Note_on_c, 4, 65, 72
10, 16619, Note_on_c, 4, 65, 0
10, 16680, Note_on_c, 4, 62, 72
10, 16739, Note_on_c, 4, 62, 0
10, 16800, Note_on_c, 4, 52, 72
10, 16859, Note_on_c, 4, 52, 0
10, 16920, Note_on_c, 4, 52, 72
10, 16979, Note_on_c, 4, 52, 0
10, 17040, Note_on_c, 4, 57, 72
10, 17159, Note_on_c, 4, 57, 0
10, 17160, Note_on_c, 4, 59, 72
10, 17279, Note_on_c, 4, 59, 0
10, 17280, Note_on_c, 4, 60, 72
10, 17399, Note_on_c, 4, 60, 0
10, 17400, Note_on_c, 4, 62, 72
10, 17579, Note_on_c, 4, 62, 0
10, 17580, Note_on_c, 4, 62, 72
10, 17699, Note_on_c, 4, 62, 0
10, 17700, Note_on_c, 4, 62, 72
10, 17819, Note_on_c, 4, 62, 0
10, 17820, Note_on_c, 4, 62, 72
10, 17909, Note_on_c, 4, 62, 0
10, 17910, Note_on_c, 4, 63, 72
10, 17939, Note_on_c, 4, 63, 0
10, 17940, Note_on_c, 4, 62, 72
10, 17969, Note_on_c, 4, 62, 0
10, 17970, Note_on_c, 4, 60, 72
10, 17999, Note_on_c, 4, 60, 0
10, 18000, Note_on_c, 4, 58, 72
10, 18029, Note_on_c, 4, 58, 0
10, 18030, Note_on_c, 4, 62, 72
10, 18059, Note_on_c, 4, 62, 0
10, 18060, Note_on_c, 4, 60, 72
10, 18089, Note_on_c, 4, 60, 0
10, 18090, Note_on_c, 4, 58, 72
10, 18119, Note_on_c, 4, 58, 0
10, 18120, Note_on_c, 4, 57, 72
10, 18149, Note_on_c, 4, 57, 0
10, 18150, Note_on_c, 4, 60, 72
10, 18179, Note_on_c, 4, 60, 0
10, 18180, Note_on_c, 4, 58, 72
10, 18209, Note_on_c, 4, 58, 0
10, 18210, Note_on_c, 4, 57, 72
10, 18239, Note_on_c, 4, 57, 0
10, 18240, Note_on_c, 4, 55, 72
10, 18329, Note_on_c, 4, 55, 0
10, 18330, Note_on_c, 4, 57, 72
10, 18359, Note_on_c, 4, 57, 0
10, 18360, Note_on_c, 4, 58, 72
10, 18389, Note_on_c, 4, 58, 0
10, 18390, Note_on_c, 4, 57, 72
10, 18419, Note_on_c, 4, 57, 0
10, 18420, Note_on_c, 4, 55, 72
10, 18449, Note_on_c, 4, 55, 0
10, 18450, Note_on_c, 4, 58, 72
10, 18479, Note_on_c, 4, 58, 0
10, 18480, Note_on_c, 4, 57, 72
10, 18509, Note_on_c, 4, 57, 0
10, 18510, Note_on_c, 4, 55, 72
10, 18539, Note_on_c, 4, 55, 0
10, 18540, Note_on_c, 4, 53, 72
10, 18569, Note_on_c, 4, 53, 0
10, 18570, Note_on_c, 4, 55, 72
10, 18599, Note_on_c, 4, 55, 0
10, 18600, Note_on_c, 4, 57, 72
10, 18629, Note_on_c, 4, 57, 0
10, 18630, Note_on_c, 4, 55, 72
10, 18659, Note_on_c, 4, 55, 0
10, 18660, Note_on_c, 4, 57, 72
10, 18689, Note_on_c, 4, 57, 0
10, 18690, Note_on_c, 4, 53, 72
10, 18719, Note_on_c, 4, 53, 0
10, 18720, Note_on_c, 4, 60, 72
10, 18779, Note_on_c, 4, 60, 0
10, 18780, Note_on_c, 4, 48, 72
10, 18839, Note_on_c, 4, 48, 0
10, 18840, Note_on_c, 4, 60, 72
10, 19079, Note_on_c, 4, 60, 0
10, 19080, Note_on_c, 4, 64, 72
10, 19199, Note_on_c, 4, 64, 0
10, 19200, Note_on_c, 4, 65, 72
10, 19319, Note_on_c, 4, 65, 0
10, 19320, Note_on_c, 4, 57, 72
10, 19379, Note_on_c, 4, 57, 0
10, 19380, Note_on_c, 4, 57, 72
10, 19439, Note_on_c, 4, 57, 0
10, 19440, Note_on_c, 4, 57, 72
10, 19559, Note_on_c, 4, 57, 0
10, 19560, Note_on_c, 4, 61, 72
10, 19679, Note_on_c, 4, 61, 0
10, 19680, Note_on_c, 4, 62, 72
10, 19799, Note_on_c, 4, 62, 0
10, 19800, Note_on_c, 4, 53, 72
10, 19859, Note_on_c, 4, 53, 0
10, 19860, Note_on_c, 4, 53, 72
10, 19919, Note_on_c, 4, 53, 0
10, 19920, Note_on_c, 4, 53, 72
10, 20039, Note_on_c, 4, 53, 0
10, 20040, Note_on_c, 4, 57, 72
10, 20159, Note_on_c, 4, 57, 0
10, 20160, Note_on_c, 4, 58, 72
10, 20279, Note_on_c, 4, 58, 0
10, 20430, Note_on_c, 4, 70, 72
10, 20459, Note_on_c, 4, 70, 0
10, 20460, Note_on_c, 4, 74, 72
10, 20489, Note_on_c, 4, 74, 0
10, 20490, Note_on_c, 4, 70, 72
10, 20504, Note_on_c, 4, 70, 0
10, 20520, Note_on_c, 4, 65, 72
10, 20534, Note_on_c, 4, 65, 0
10, 20550, Note_on_c, 4, 62, 72
10, 20564, Note_on_c, 4, 62, 0
10, 20580, Note_on_c, 4, 58, 72
10, 20594, Note_on_c, 4, 58, 0
10, 20610, Note_on_c, 4, 65, 72
10, 20624, Note_on_c, 4, 65, 0
10, 20640, Note_on_c, 4, 57, 72
10, 20759, Note_on_c, 4, 57, 0
10, 20910, Note_on_c, 4, 74, 72
10, 20939, Note_on_c, 4, 74, 0
10, 20940, Note_on_c, 4, 77, 72
10, 20969, Note_on_c, 4, 77, 0
10, 20970, Note_on_c, 4, 74, 72
10, 20984, Note_on_c, 4, 74, 0
10, 21000, Note_on_c, 4, 69, 72
10, 21014, Note_on_c, 4, 69, 0
10, 21030, Note_on_c, 4, 65, 72
10, 21044, Note_on_c, 4, 65, 0
10, 21060, Note_on_c, 4, 62, 72
10, 21074, Note_on_c, 4, 62, 0
10, 21090, Note_on_c, 4, 65, 72
10, 21104, Note_on_c, 4, 65, 0
10, 21120, Note_on_c, 4, 56, 72
10, 21179, Note_on_c, 4, 56, 0
10, 21180, Note_on_c, 4, 71, 72
10, 21239, Note_on_c, 4, 71, 0
10, 21240, Note_on_c, 4, 71, 72
10, 21299, Note_on_c, 4, 71, 0
10, 21300, Note_on_c, 4, 71, 72
10, 21359, Note_on_c, 4, 71, 0
10, 21360, Note_on_c, 4, 71, 72
10, 21419, Note_on_c, 4, 71, 0
10, 21420, Note_on_c, 4, 71, 72
10, 21479, Note_on_c, 4, 71, 0
10, 21480, Note_on_c, 4, 71, 72
10, 21539, Note_on_c, 4, 71, 0
10, 21540, Note_on_c, 4, 71, 72
10, 21599, Note_on_c, 4, 71, 0
10, 21600, Note_on_c, 4, 69, 72
10, 21659, Note_on_c, 4, 69, 0
10, 21660, Note_on_c, 4, 57, 72
10, 21719, Note_on_c, 4, 57, 0
10, 21780, Note_on_c, 4, 60, 48
10, 21839, Note_on_c, 4, 60, 0
10, 21840, Note_on_c, 4, 62, 48
10, 21959, Note_on_c, 4, 62, 0
10, 21960, Note_on_c, 4, 64, 48
10, 22079, Note_on_c, 4, 64, 0
10, 22080, Note_on_c, 4, 62, 48
10, 22199, Note_on_c, 4, 62, 0
10, 22200, Note_on_c, 4, 57, 48
10, 22319, Note_on_c, 4, 57, 0
10, 22320, Note_on_c, 4, 53, 48
10, 22439, Note_on_c, 4, 53, 0
10, 22440, Note_on_c, 4, 52, 48
10, 22499, Note_on_c, 4, 52, 0
10, 22500, Note_on_c, 4, 50, 48
10, 22559, Note_on_c, 4, 50, 0
10, 22560, Note_on_c, 4, 57, 48
10, 22799, Note_on_c, 4, 57, 0
10, 22800, Note_on_c, 4, 57, 48
10, 23039, Note_on_c, 4, 57, 0
10, 25260, Note_on_c, 4, 59, 72
10, 25319, Note_on_c, 4, 59, 0
10, 25320, Note_on_c, 4, 59, 72
10, 25379, Note_on_c, 4, 59, 0
10, 25380, Note_on_c, 4, 59, 72
10, 25439, Note_on_c, 4, 59, 0
10, 25440, Note_on_c, 4, 60, 72
10, 25469, Note_on_c, 4, 60, 0
10, 25470, Note_on_c, 4, 62, 72
10, 25499, Note_on_c, 4, 62, 0
10, 25500, Note_on_c, 4, 60, 72
10, 25529, Note_on_c, 4, 60, 0
10, 25530, Note_on_c, 4, 59, 72
10, 25559, Note_on_c, 4, 59, 0
10, 25560, Note_on_c, 4, 60, 72
10, 25589, Note_on_c, 4, 60, 0
10, 25590, Note_on_c, 4, 62, 72
10, 25619, Note_on_c, 4, 62, 0
10, 25620, Note_on_c, 4, 59, 72
10, 25649, Note_on_c, 4, 59, 0
10, 25650, Note_on_c, 4, 60, 72
10, 25679, Note_on_c, 4, 60, 0
10, 25680, Note_on_c, 4, 62, 72
10, 25709, Note_on_c, 4, 62, 0
10, 25710, Note_on_c, 4, 64, 72
10, 25739, Note_on_c, 4, 64, 0
10, 25740, Note_on_c, 4, 62, 72
10, 25769, Note_on_c, 4, 62, 0
10, 25770, Note_on_c, 4, 60, 72
10, 25799, Note_on_c, 4, 60, 0
10, 25800, Note_on_c, 4, 62, 72
10, 25829, Note_on_c, 4, 62, 0
10, 25830, Note_on_c, 4, 64, 72
10, 25859, Note_on_c, 4, 64, 0
10, 25860, Note_on_c, 4, 60, 72
10, 25889, Note_on_c, 4, 60, 0
10, 25890, Note_on_c, 4, 62, 72
10, 25919, Note_on_c, 4, 62, 0
10, 25920, Note_on_c, 4, 64, 72
10, 25979, Note_on_c, 4, 64, 0
10, 25980, Note_on_c, 4, 65, 72
10, 26009, Note_on_c, 4, 65, 0
10, 26010, Note_on_c, 4, 64, 72
10, 26039, Note_on_c, 4, 64, 0
10, 26040, Note_on_c, 4, 62, 72
10, 26069, Note_on_c, 4, 62, 0
10, 26070, Note_on_c, 4, 60, 72
10, 26099, Note_on_c, 4, 60, 0
10, 26100, Note_on_c, 4, 59, 72
10, 26129, Note_on_c, 4, 59, 0
10, 26130, Note_on_c, 4, 57, 72
10, 26159, Note_on_c, 4, 57, 0
10, 26160, Note_on_c, 4, 56, 72
10, 26219, Note_on_c, 4, 56, 0
10, 26220, Note_on_c, 4, 59, 72
10, 26279, Note_on_c, 4, 59, 0
10, 26280, Note_on_c, 4, 64, 72
10, 26339, Note_on_c, 4, 64, 0
10, 26340, Note_on_c, 4, 62, 72
10, 26399, Note_on_c, 4, 62, 0
10, 26400, Note_on_c, 4, 60, 72
10, 26459, Note_on_c, 4, 60, 0
10, 26460, Note_on_c, 4, 61, 72
10, 26519, Note_on_c, 4, 61, 0
10, 26520, Note_on_c, 4, 62, 72
10, 26579, Note_on_c, 4, 62, 0
10, 26580, Note_on_c, 4, 64, 72
10, 26639, Note_on_c, 4, 64, 0
10, 26640, Note_on_c, 4, 57, 72
10, 26699, Note_on_c, 4, 57, 0
10, 26700, Note_on_c, 4, 50, 72
10, 26759, Note_on_c, 4, 50, 0
10, 26760, Note_on_c, 4, 55, 72
10, 26819, Note_on_c, 4, 55, 0
10, 26820, Note_on_c, 4, 53, 72
10, 26879, Note_on_c, 4, 53, 0
10, 26880, Note_on_c, 4, 52, 72
10, 26939, Note_on_c, 4, 52, 0
10, 26940, Note_on_c, 4, 55, 72
10, 26999, Note_on_c, 4, 55, 0
10, 27000, Note_on_c, 4, 58, 72
10, 27119, Note_on_c, 4, 58, 0
10, 27120, Note_on_c, 4, 57, 72
10, 27239, Note_on_c, 4, 57, 0
10, 28080, Note_on_c, 4, 62, 72
10, 28259, Note_on_c, 4, 62, 0
10, 28260, Note_on_c, 4, 62, 72
10, 28319, Note_on_c, 4, 62, 0
10, 28320, Note_on_c, 4, 60, 72
10, 28439, Note_on_c, 4, 60, 0
10, 28440, Note_on_c, 4, 65, 72
10, 28559, Note_on_c, 4, 65, 0
10, 28560, Note_on_c, 4, 56, 72
10, 28739, Note_on_c, 4, 56, 0
10, 28740, Note_on_c, 4, 56, 72
10, 28799, Note_on_c, 4, 56, 0
10, 28800, Note_on_c, 4, 57, 72
10, 28919, Note_on_c, 4, 57, 0
10, 28980, Note_on_c, 4, 57, 72
10, 29039, Note_on_c, 4, 57, 0
10, 29040, Note_on_c, 4, 59, 72
10, 29219, Note_on_c, 4, 59, 0
10, 29220, Note_on_c, 4, 57, 72
10, 29249, Note_on_c, 4, 57, 0
10, 29250, Note_on_c, 4, 59, 72
10, 29279, Note_on_c, 4, 59, 0
10, 29280, Note_on_c, 4, 60, 72
10, 29339, Note_on_c, 4, 60, 0
10, 29340, Note_on_c, 4, 59, 72
10, 29369, Note_on_c, 4, 59, 0
10, 29370, Note_on_c, 4, 60, 72
10, 29399, Note_on_c, 4, 60, 0
10, 29400, Note_on_c, 4, 62, 72
10, 29459, Note_on_c, 4, 62, 0
10, 29460, Note_on_c, 4, 60, 72
10, 29489, Note_on_c, 4, 60, 0
10, 29490, Note_on_c, 4, 62, 72
10, 29519, Note_on_c, 4, 62, 0
10, 29520, Note_on_c, 4, 64, 72
10, 29579, Note_on_c, 4, 64, 0
10, 29580, Note_on_c, 4, 62, 72
10, 29639, Note_on_c, 4, 62, 0
10, 29640, Note_on_c, 4, 60, 72
10, 29699, Note_on_c, 4, 60, 0
10, 29700, Note_on_c, 4, 59, 72
10, 29759, Note_on_c, 4, 59, 0
10, 29760, Note_on_c, 4, 57, 72
10, 29789, Note_on_c, 4, 57, 0
10, 29790, Note_on_c, 4, 59, 72
10, 29819, Note_on_c, 4, 59, 0
10, 29820, Note_on_c, 4, 60, 72
10, 29939, Note_on_c, 4, 60, 0
10, 29940, Note_on_c, 4, 61, 72
10, 29999, Note_on_c, 4, 61, 0
10, 30000, Note_on_c, 4, 62, 72
10, 30059, Note_on_c, 4, 62, 0
10, 30060, Note_on_c, 4, 50, 72
10, 30119, Note_on_c, 4, 50, 0
10, 30120, Note_on_c, 4, 52, 72
10, 30179, Note_on_c, 4, 52, 0
10, 30180, Note_on_c, 4, 54, 72
10, 30239, Note_on_c, 4, 54, 0
10, 30240, Note_on_c, 4, 55, 72
10, 30269, Note_on_c, 4, 55, 0
10, 30270, Note_on_c, 4, 57, 72
10, 30299, Note_on_c, 4, 57, 0
10, 30300, Note_on_c, 4, 58, 72
10, 30419, Note_on_c, 4, 58, 0
10, 30420, Note_on_c, 4, 59, 72
10, 30479, Note_on_c, 4, 59, 0
10, 30480, Note_on_c, 4, 60, 72
10, 30539, Note_on_c, 4, 60, 0
10, 30540, Note_on_c, 4, 58, 72
10, 30599, Note_on_c, 4, 58, 0
10, 30600, Note_on_c, 4, 57, 72
10, 30659, Note_on_c, 4, 57, 0
10, 30660, Note_on_c, 4, 55, 72
10, 30719, Note_on_c, 4, 55, 0
10, 30720, Note_on_c, 4, 57, 72
10, 30749, Note_on_c, 4, 57, 0
10, 30750, Note_on_c, 4, 53, 72
10, 30779, Note_on_c, 4, 53, 0
10, 30780, Note_on_c, 4, 55, 72
10, 30809, Note_on_c, 4, 55, 0
10, 30810, Note_on_c, 4, 57, 72
10, 30839, Note_on_c, 4, 57, 0
10, 30840, Note_on_c, 4, 58, 72
10, 30869, Note_on_c, 4, 58, 0
10, 30870, Note_on_c, 4, 55, 72
10, 30899, Note_on_c, 4, 55, 0
10, 30900, Note_on_c, 4, 57, 72
10, 30929, Note_on_c, 4, 57, 0
10, 30930, Note_on_c, 4, 58, 72
10, 30959, Note_on_c, 4, 58, 0
10, 30960, Note_on_c, 4, 60, 72
10, 31019, Note_on_c, 4, 60, 0
10, 31020, Note_on_c, 4, 55, 72
10, 31079, Note_on_c, 4, 55, 0
10, 31080, Note_on_c, 4, 60, 72
10, 31259, Note_on_c, 4, 60, 0
10, 31260, Note_on_c, 4, 58, 72
10, 31289, Note_on_c, 4, 58, 0
10, 31290, Note_on_c, 4, 57, 72
10, 31319, Note_on_c, 4, 57, 0
10, 31320, Note_on_c, 4, 58, 72
10, 31349, Note_on_c, 4, 58, 0
10, 31350, Note_on_c, 4, 60, 72
10, 31379, Note_on_c, 4, 60, 0
10, 31380, Note_on_c, 4, 57, 72
10, 31409, Note_on_c, 4, 57, 0
10, 31410, Note_on_c, 4, 58, 72
10, 31439, Note_on_c, 4, 58, 0
10, 31440, Note_on_c, 4, 55, 72
10, 31499, Note_on_c, 4, 55, 0
10, 31500, Note_on_c, 4, 57, 72
10, 31529, Note_on_c, 4, 57, 0
10, 31530, Note_on_c, 4, 58, 72
10, 31559, Note_on_c, 4, 58, 0
10, 31560, Note_on_c, 4, 60, 72
10, 31679, Note_on_c, 4, 60, 0
10, 32160, Note_on_c, 4, 62, 72
10, 32339, Note_on_c, 4, 62, 0
10, 32340, Note_on_c, 4, 62, 72
10, 32399, Note_on_c, 4, 62, 0
10, 32400, Note_on_c, 4, 58, 72
10, 32519, Note_on_c, 4, 58, 0
10, 32520, Note_on_c, 4, 63, 72
10, 32639, Note_on_c, 4, 63, 0
10, 32640, Note_on_c, 4, 54, 72
10, 32819, Note_on_c, 4, 54, 0
10, 32820, Note_on_c, 4, 54, 72
10, 32879, Note_on_c, 4, 54, 0
10, 32880, Note_on_c, 4, 55, 72
10, 32999, Note_on_c, 4, 55, 0
10, 33060, Note_on_c, 4, 55, 72
10, 33119, Note_on_c, 4, 55, 0
10, 33120, Note_on_c, 4, 57, 72
10, 33299, Note_on_c, 4, 57, 0
10, 33300, Note_on_c, 4, 55, 72
10, 33329, Note_on_c, 4, 55, 0
10, 33330, Note_on_c, 4, 57, 72
10, 33359, Note_on_c, 4, 57, 0
10, 33360, Note_on_c, 4, 58, 72
10, 33419, Note_on_c, 4, 58, 0
10, 33420, Note_on_c, 4, 57, 72
10, 33449, Note_on_c, 4, 57, 0
10, 33450, Note_on_c, 4, 58, 72
10, 33479, Note_on_c, 4, 58, 0
10, 33480, Note_on_c, 4, 60, 72
10, 33539, Note_on_c, 4, 60, 0
10, 33540, Note_on_c, 4, 58, 72
10, 33569, Note_on_c, 4, 58, 0
10, 33570, Note_on_c, 4, 60, 72
10, 33599, Note_on_c, 4, 60, 0
10, 33600, Note_on_c, 4, 62, 72
10, 33659, Note_on_c, 4, 62, 0
10, 33660, Note_on_c, 4, 60, 72
10, 33719, Note_on_c, 4, 60, 0
10, 33720, Note_on_c, 4, 58, 72
10, 33779, Note_on_c, 4, 58, 0
10, 33780, Note_on_c, 4, 57, 72
10, 33839, Note_on_c, 4, 57, 0
10, 33840, Note_on_c, 4, 55, 72
10, 33899, Note_on_c, 4, 55, 0
10, 33900, Note_on_c, 4, 65, 72
10, 33959, Note_on_c, 4, 65, 0
10, 33960, Note_on_c, 4, 63, 72
10, 34019, Note_on_c, 4, 63, 0
10, 34020, Note_on_c, 4, 59, 72
10, 34079, Note_on_c, 4, 59, 0
10, 34080, Note_on_c, 4, 60, 72
10, 34139, Note_on_c, 4, 60, 0
10, 34140, Note_on_c, 4, 67, 72
10, 34199, Note_on_c, 4, 67, 0
10, 34200, Note_on_c, 4, 65, 72
10, 34229, Note_on_c, 4, 65, 0
10, 34230, Note_on_c, 4, 63, 72
10, 34259, Note_on_c, 4, 63, 0
10, 34260, Note_on_c, 4, 62, 72
10, 34289, Note_on_c, 4, 62, 0
10, 34290, Note_on_c, 4, 60, 72
10, 34319, Note_on_c, 4, 60, 0
10, 34320, Note_on_c, 4, 62, 72
10, 34349, Note_on_c, 4, 62, 0
10, 34350, Note_on_c, 4, 60, 72
10, 34379, Note_on_c, 4, 60, 0
10, 34380, Note_on_c, 4, 59, 72
10, 34409, Note_on_c, 4, 59, 0
10, 34410, Note_on_c, 4, 57, 72
10, 34439, Note_on_c, 4, 57, 0
10, 34440, Note_on_c, 4, 55, 72
10, 34469, Note_on_c, 4, 55, 0
10, 34470, Note_on_c, 4, 56, 72
10, 34499, Note_on_c, 4, 56, 0
10, 34500, Note_on_c, 4, 53, 72
10, 34529, Note_on_c, 4, 53, 0
10, 34530, Note_on_c, 4, 55, 72
10, 34559, Note_on_c, 4, 55, 0
10, 34560, Note_on_c, 4, 51, 72
10, 34619, Note_on_c, 4, 51, 0
10, 34620, Note_on_c, 4, 48, 72
10, 34679, Note_on_c, 4, 48, 0
10, 34680, Note_on_c, 4, 56, 72
10, 34859, Note_on_c, 4, 56, 0
10, 34860, Note_on_c, 4, 53, 72
10, 34919, Note_on_c, 4, 53, 0
10, 34920, Note_on_c, 4, 58, 72
10, 35159, Note_on_c, 4, 58, 0
10, 35160, Note_on_c, 4, 56, 72
10, 35279, Note_on_c, 4, 56, 0
10, 35280, Note_on_c, 4, 55, 72
10, 35339, Note_on_c, 4, 55, 0
10, 35340, Note_on_c, 4, 57, 72
10, 35369, Note_on_c, 4, 57, 0
10, 35370, Note_on_c, 4, 59, 72
10, 35399, Note_on_c, 4, 59, 0
10, 35400, Note_on_c, 4, 60, 72
10, 35459, Note_on_c, 4, 60, 0
10, 35460, Note_on_c, 4, 62, 72
10, 35519, Note_on_c, 4, 62, 0
10, 35520, Note_on_c, 4, 63, 72
10, 35549, Note_on_c, 4, 63, 0
10, 35550, Note_on_c, 4, 62, 72
10, 35579, Note_on_c, 4, 62, 0
10, 35580, Note_on_c, 4, 60, 72
10, 35609, Note_on_c, 4, 60, 0
10, 35610, Note_on_c, 4, 58, 72
10, 35639, Note_on_c, 4, 58, 0
10, 35640, Note_on_c, 4, 57, 72
10, 35699, Note_on_c, 4, 57, 0
10, 35700, Note_on_c, 4, 58, 72
10, 35819, Note_on_c, 4, 58, 0
10, 35820, Note_on_c, 4, 57, 72
10, 35879, Note_on_c, 4, 57, 0
10, 35880, Note_on_c, 4, 58, 72
10, 35939, Note_on_c, 4, 58, 0
10, 35940, Note_on_c, 4, 60, 72
10, 35999, Note_on_c, 4, 60, 0
10, 36000, Note_on_c, 4, 62, 72
10, 36119, Note_on_c, 4, 62, 0
10, 36300, Note_on_c, 4, 53, 72
10, 36359, Note_on_c, 4, 53, 0
10, 36360, Note_on_c, 4, 53, 72
10, 36419, Note_on_c, 4, 53, 0
10, 36420, Note_on_c, 4, 53, 72
10, 36479, Note_on_c, 4, 53, 0
10, 36480, Note_on_c, 4, 55, 72
10, 36509, Note_on_c, 4, 55, 0
10, 36510, Note_on_c, 4, 57, 72
10, 36539, Note_on_c, 4, 57, 0
10, 36540, Note_on_c, 4, 55, 72
10, 36569, Note_on_c, 4, 55, 0
10, 36570, Note_on_c, 4, 53, 72
10, 36599, Note_on_c, 4, 53, 0
10, 36600, Note_on_c, 4, 55, 72
10, 36629, Note_on_c, 4, 55, 0
10, 36630, Note_on_c, 4, 57, 72
10, 36659, Note_on_c, 4, 57, 0
10, 36660, Note_on_c, 4, 53, 72
10, 36689, Note_on_c, 4, 53, 0
10, 36690, Note_on_c, 4, 55, 72
10, 36719, Note_on_c, 4, 55, 0
10, 36720, Note_on_c, 4, 57, 72
10, 36749, Note_on_c, 4, 57, 0
10, 36750, Note_on_c, 4, 58, 72
10, 36779, Note_on_c, 4, 58, 0
10, 36780, Note_on_c, 4, 57, 72
10, 36809, Note_on_c, 4, 57, 0
10, 36810, Note_on_c, 4, 55, 72
10, 36839, Note_on_c, 4, 55, 0
10, 36840, Note_on_c, 4, 57, 72
10, 36869, Note_on_c, 4, 57, 0
10, 36870, Note_on_c, 4, 58, 72
10, 36899, Note_on_c, 4, 58, 0
10, 36900, Note_on_c, 4, 55, 72
10, 36929, Note_on_c, 4, 55, 0
10, 36930, Note_on_c, 4, 57, 72
10, 36959, Note_on_c, 4, 57, 0
10, 36960, Note_on_c, 4, 58, 72
10, 37079, Note_on_c, 4, 58, 0
10, 37260, Note_on_c, 4, 60, 72
10, 37319, Note_on_c, 4, 60, 0
10, 37320, Note_on_c, 4, 60, 72
10, 37379, Note_on_c, 4, 60, 0
10, 37380, Note_on_c, 4, 60, 72
10, 37439, Note_on_c, 4, 60, 0
10, 37440, Note_on_c, 4, 62, 72
10, 37469, Note_on_c, 4, 62, 0
10, 37470, Note_on_c, 4, 63, 72
10, 37499, Note_on_c, 4, 63, 0
10, 37500, Note_on_c, 4, 62, 72
10, 37529, Note_on_c, 4, 62, 0
10, 37530, Note_on_c, 4, 60, 72
10, 37559, Note_on_c, 4, 60, 0
10, 37560, Note_on_c, 4, 62, 72
10, 37589, Note_on_c, 4, 62, 0
10, 37590, Note_on_c, 4, 63, 72
10, 37619, Note_on_c, 4, 63, 0
10, 37620, Note_on_c, 4, 60, 72
10, 37649, Note_on_c, 4, 60, 0
10, 37650, Note_on_c, 4, 62, 72
10, 37679, Note_on_c, 4, 62, 0
10, 37680, Note_on_c, 4, 63, 72
10, 37709, Note_on_c, 4, 63, 0
10, 37710, Note_on_c, 4, 65, 72
10, 37739, Note_on_c, 4, 65, 0
10, 37740, Note_on_c, 4, 63, 72
10, 37769, Note_on_c, 4, 63, 0
10, 37770, Note_on_c, 4, 62, 72
10, 37799, Note_on_c, 4, 62, 0
10, 37800, Note_on_c, 4, 63, 72
10, 37829, Note_on_c, 4, 63, 0
10, 37830, Note_on_c, 4, 65, 72
10, 37859, Note_on_c, 4, 65, 0
10, 37860, Note_on_c, 4, 62, 72
10, 37889, Note_on_c, 4, 62, 0
10, 37890, Note_on_c, 4, 63, 72
10, 37919, Note_on_c, 4, 63, 0
10, 37920, Note_on_c, 4, 65, 72
10, 37979, Note_on_c, 4, 65, 0
10, 37980, Note_on_c, 4, 62, 72
10, 38039, Note_on_c, 4, 62, 0
10, 38040, Note_on_c, 4, 64, 72
10, 38099, Note_on_c, 4, 64, 0
10, 38100, Note_on_c, 4, 65, 72
10, 38159, Note_on_c, 4, 65, 0
10, 38160, Note_on_c, 4, 67, 72
10, 38279, Note_on_c, 4, 67, 0
10, 38280, Note_on_c, 4, 65, 72
10, 38339, Note_on_c, 4, 65, 0
10, 38340, Note_on_c, 4, 64, 72
10, 38399, Note_on_c, 4, 64, 0
10, 38400, Note_on_c, 4, 65, 72
10, 38459, Note_on_c, 4, 65, 0
10, 38460, Note_on_c, 4, 53, 72
10, 38519, Note_on_c, 4, 53, 0
10, 38520, Note_on_c, 4, 58, 72
10, 38579, Note_on_c, 4, 58, 0
10, 38580, Note_on_c, 4, 55, 72
10, 38639, Note_on_c, 4, 55, 0
10, 38640, Note_on_c, 4, 60, 72
10, 38759, Note_on_c, 4, 60, 0
10, 39180, Note_on_c, 4, 55, 72
10, 39239, Note_on_c, 4, 55, 0
10, 39240, Note_on_c, 4, 55, 72
10, 39299, Note_on_c, 4, 55, 0
10, 39300, Note_on_c, 4, 55, 72
10, 39359, Note_on_c, 4, 55, 0
10, 39360, Note_on_c, 4, 56, 72
10, 39389, Note_on_c, 4, 56, 0
10, 39390, Note_on_c, 4, 58, 72
10, 39419, Note_on_c, 4, 58, 0
10, 39420, Note_on_c, 4, 56, 72
10, 39449, Note_on_c, 4, 56, 0
10, 39450, Note_on_c, 4, 55, 72
10, 39479, Note_on_c, 4, 55, 0
10, 39480, Note_on_c, 4, 57, 72
10, 39509, Note_on_c, 4, 57, 0
10, 39510, Note_on_c, 4, 58, 72
10, 39539, Note_on_c, 4, 58, 0
10, 39540, Note_on_c, 4, 55, 72
10, 39569, Note_on_c, 4, 55, 0
10, 39570, Note_on_c, 4, 57, 72
10, 39599, Note_on_c, 4, 57, 0
10, 39600, Note_on_c, 4, 58, 72
10, 39629, Note_on_c, 4, 58, 0
10, 39630, Note_on_c, 4, 60, 72
10, 39659, Note_on_c, 4, 60, 0
10, 39660, Note_on_c, 4, 58, 72
10, 39689, Note_on_c, 4, 58, 0
10, 39690, Note_on_c, 4, 57, 72
10, 39719, Note_on_c, 4, 57, 0
10, 39720, Note_on_c, 4, 59, 72
10, 39749, Note_on_c, 4, 59, 0
10, 39750, Note_on_c, 4, 60, 72
10, 39779, Note_on_c, 4, 60, 0
10, 39780, Note_on_c, 4, 57, 72
10, 39809, Note_on_c, 4, 57, 0
10, 39810, Note_on_c, 4, 59, 72
10, 39839, Note_on_c, 4, 59, 0
10, 39840, Note_on_c, 4, 60, 72
10, 39899, Note_on_c, 4, 60, 0
10, 39900, Note_on_c, 4, 55, 72
10, 39959, Note_on_c, 4, 55, 0
10, 39960, Note_on_c, 4, 60, 72
10, 40019, Note_on_c, 4, 60, 0
10, 40020, Note_on_c, 4, 58, 72
10, 40079, Note_on_c, 4, 58, 0
10, 40080, Note_on_c, 4, 57, 72
10, 40139, Note_on_c, 4, 57, 0
10, 40140, Note_on_c, 4, 50, 72
10, 40199, Note_on_c, 4, 50, 0
10, 40200, Note_on_c, 4, 62, 72
10, 40259, Note_on_c, 4, 62, 0
10, 40260, Note_on_c, 4, 60, 72
10, 40319, Note_on_c, 4, 60, 0
10, 40320, Note_on_c, 4, 58, 72
10, 40439, Note_on_c, 4, 58, 0
10, 40620, Note_on_c, 4, 55, 72
10, 40679, Note_on_c, 4, 55, 0
10, 40680, Note_on_c, 4, 55, 72
10, 40739, Note_on_c, 4, 55, 0
10, 40740, Note_on_c, 4, 57, 72
10, 40799, Note_on_c, 4, 57, 0
10, 40800, Note_on_c, 4, 57, 72
10, 40919, Note_on_c, 4, 57, 0
10, 40920, Note_on_c, 4, 57, 72
10, 41009, Note_on_c, 4, 57, 0
10, 41010, Note_on_c, 4, 57, 72
10, 41039, Note_on_c, 4, 57, 0
10, 41040, Note_on_c, 4, 59, 72
10, 41159, Note_on_c, 4, 59, 0
10, 41160, Note_on_c, 4, 59, 72
10, 41249, Note_on_c, 4, 59, 0
10, 41250, Note_on_c, 4, 59, 72
10, 41279, Note_on_c, 4, 59, 0
10, 41280, Note_on_c, 4, 61, 72
10, 41339, Note_on_c, 4, 61, 0
10, 41340, Note_on_c, 4, 57, 72
10, 41399, Note_on_c, 4, 57, 0
10, 41400, Note_on_c, 4, 59, 72
10, 41459, Note_on_c, 4, 59, 0
10, 41460, Note_on_c, 4, 61, 72
10, 41519, Note_on_c, 4, 61, 0
10, 41520, Note_on_c, 4, 62, 72
10, 41699, Note_on_c, 4, 62, 0
10, 41700, Note_on_c, 4, 62, 72
10, 41759, Note_on_c, 4, 62, 0
10, 41760, Note_on_c, 4, 64, 72
10, 41879, Note_on_c, 4, 64, 0
10, 41880, Note_on_c, 4, 57, 72
10, 42059, Note_on_c, 4, 57, 0
10, 42060, Note_on_c, 4, 53, 72
10, 42119, Note_on_c, 4, 53, 0
10, 42120, Note_on_c, 4, 58, 72
10, 42239, Note_on_c, 4, 58, 0
10, 42240, Note_on_c, 4, 58, 72
10, 42299, Note_on_c, 4, 58, 0
10, 42300, Note_on_c, 4, 55, 72
10, 42359, Note_on_c, 4, 55, 0
10, 42360, Note_on_c, 4, 64, 72
10, 42419, Note_on_c, 4, 64, 0
10, 42420, Note_on_c, 4, 64, 72
10, 42479, Note_on_c, 4, 64, 0
10, 42480, Note_on_c, 4, 62, 72
10, 42539, Note_on_c, 4, 62, 0
10, 42540, Note_on_c, 4, 61, 72
10, 42569, Note_on_c, 4, 61, 0
10, 42570, Note_on_c, 4, 62, 72
10, 42599, Note_on_c, 4, 62, 0
10, 42600, Note_on_c, 4, 64, 72
10, 42629, Note_on_c, 4, 64, 0
10, 42630, Note_on_c, 4, 65, 72
10, 42659, Note_on_c, 4, 65, 0
10, 42660, Note_on_c, 4, 67, 72
10, 42689, Note_on_c, 4, 67, 0
10, 42690, Note_on_c, 4, 65, 72
10, 42719, Note_on_c, 4, 65, 0
10, 42720, Note_on_c, 4, 64, 72
10, 42779, Note_on_c, 4, 64, 0
10, 42780, Note_on_c, 4, 62, 72
10, 42839, Note_on_c, 4, 62, 0
10, 42840, Note_on_c, 4, 61, 72
10, 42929, Note_on_c, 4, 61, 0
10, 42930, Note_on_c, 4, 62, 72
10, 42959, Note_on_c, 4, 62, 0
10, 42960, Note_on_c, 4, 64, 72
10, 43079, Note_on_c, 4, 64, 0
10, 43080, Note_on_c, 4, 57, 72
10, 43139, Note_on_c, 4, 57, 0
10, 43140, Note_on_c, 4, 61, 72
10, 43199, Note_on_c, 4, 61, 0
10, 43200, Note_on_c, 4, 62, 72
10, 43259, Note_on_c, 4, 62, 0
10, 43260, Note_on_c, 4, 65, 72
10, 43319, Note_on_c, 4, 65, 0
10, 43320, Note_on_c, 4, 64, 72
10, 43379, Note_on_c, 4, 64, 0
10, 43380, Note_on_c, 4, 62, 72
10, 43439, Note_on_c, 4, 62, 0
10, 43440, Note_on_c, 4, 64, 72
10, 43499, Note_on_c, 4, 64, 0
10, 43500, Note_on_c, 4, 57, 72
10, 43559, Note_on_c, 4, 57, 0
10, 43560, Note_on_c, 4, 59, 72
10, 43619, Note_on_c, 4, 59, 0
10, 43620, Note_on_c, 4, 61, 72
10, 43679, Note_on_c, 4, 61, 0
10, 43680, Note_on_c, 4, 62, 72
10, 43739, Note_on_c, 4, 62, 0
10, 43740, Note_on_c, 4, 50, 72
10, 43799, Note_on_c, 4, 50, 0
10, 43800, Note_on_c, 4, 55, 72
10, 43859, Note_on_c, 4, 55, 0
10, 43860, Note_on_c, 4, 52, 72
10, 43919, Note_on_c, 4, 52, 0
10, 43920, Note_on_c, 4, 57, 72
10, 43979, Note_on_c, 4, 57, 0
10, 43980, Note_on_c, 4, 58, 72
10, 44039, Note_on_c, 4, 58, 0
10, 44040, Note_on_c, 4, 57, 72
10, 44099, Note_on_c, 4, 57, 0
10, 44100, Note_on_c, 4, 55, 72
10, 44159, Note_on_c, 4, 55, 0
10, 44160, Note_on_c, 4, 53, 72
10, 44219, Note_on_c, 4, 53, 0
10, 44220, Note_on_c, 4, 50, 72
10, 44279, Note_on_c, 4, 50, 0
10, 44280, Note_on_c, 4, 55, 72
10, 44339, Note_on_c, 4, 55, 0
10, 44340, Note_on_c, 4, 53, 72
10, 44399, Note_on_c, 4, 53, 0
10, 44400, Note_on_c, 4, 52, 72
10, 44459, Note_on_c, 4, 52, 0
10, 44460, Note_on_c, 4, 48, 72
10, 44519, Note_on_c, 4, 48, 0
10, 44520, Note_on_c, 4, 57, 72
10, 44579, Note_on_c, 4, 57, 0
10, 44580, Note_on_c, 4, 57, 72
10, 44639, Note_on_c, 4, 57, 0
10, 44640, Note_on_c, 4, 53, 72
10, 44759, Note_on_c, 4, 53, 0
10, 44760, Note_on_c, 4, 62, 72
10, 44879, Note_on_c, 4, 62, 0
10, 44880, Note_on_c, 4, 55, 72
10, 44999, Note_on_c, 4, 55, 0
10, 45180, Note_on_c, 4, 57, 72
10, 45239, Note_on_c, 4, 57, 0
10, 45240, Note_on_c, 4, 62, 72
10, 45299, Note_on_c, 4, 62, 0
10, 45300, Note_on_c, 4, 60, 72
10, 45359, Note_on_c, 4, 60, 0
10, 45360, Note_on_c, 4, 59, 72
10, 45419, Note_on_c, 4, 59, 0
10, 45420, Note_on_c, 4, 59, 72
10, 45479, Note_on_c, 4, 59, 0
10, 45480, Note_on_c, 4, 64, 72
10, 45539, Note_on_c, 4, 64, 0
10, 45540, Note_on_c, 4, 62, 72
10, 45599, Note_on_c, 4, 62, 0
10, 45600, Note_on_c, 4, 60, 72
10, 45719, Note_on_c, 4, 60, 0
10, 45720, Note_on_c, 4, 62, 72
10, 45809, Note_on_c, 4, 62, 0
10, 45810, Note_on_c, 4, 62, 72
10, 45839, Note_on_c, 4, 62, 0
10, 45840, Note_on_c, 4, 62, 72
10, 45959, Note_on_c, 4, 62, 0
10, 45960, Note_on_c, 4, 64, 72
10, 46049, Note_on_c, 4, 64, 0
10, 46050, Note_on_c, 4, 64, 72
10, 46079, Note_on_c, 4, 64, 0
10, 46080, Note_on_c, 4, 64, 72
10, 46199, Note_on_c, 4, 64, 0
10, 46200, Note_on_c, 4, 62, 72
10, 46259, Note_on_c, 4, 62, 0
10, 46260, Note_on_c, 4, 65, 72
10, 46319, Note_on_c, 4, 65, 0
10, 46320, Note_on_c, 4, 64, 72
10, 46499, Note_on_c, 4, 64, 0
10, 46500, Note_on_c, 4, 64, 72
10, 46559, Note_on_c, 4, 64, 0
10, 46560, Note_on_c, 4, 65, 72
10, 46799, Note_on_c, 4, 65, 0
10, 46920, Note_on_c, 4, 65, 72
10, 47009, Note_on_c, 4, 65, 0
10, 47010, Note_on_c, 4, 65, 72
10, 47039, Note_on_c, 4, 65, 0
10, 47040, Note_on_c, 4, 64, 72
10, 47159, Note_on_c, 4, 64, 0
10, 47160, Note_on_c, 4, 65, 72
10, 47399, Note_on_c, 4, 65, 0
10, 47400, Note_on_c, 4, 64, 72
10, 47519, Note_on_c, 4, 64, 0
10, 47520, Note_on_c, 4, 62, 72
10, 47999, Note_on_c, 4, 62, 0
10, 47999, End_track
11, 0, Start_track
11, 0, Title_t, "Cello"
11, 0, Program_c, 5, 48
11, 0, Control_c, 5, 7, 96
11, 0, Control_c, 5, 10, 96
11, 0, Control_c, 5, 11, 127
11, 3480, Note_on_c, 5, 50, 48
11, 3719, Note_on_c, 5, 50, 0
11, 3720, Note_on_c, 5, 57, 48
11, 3959, Note_on_c, 5, 57, 0
11, 3960, Note_on_c, 5, 62, 48
11, 3960, Note_on_c, 5, 56, 48
11, 4079, Note_on_c, 5, 56, 0
11, 4080, Note_on_c, 5, 57, 48
11, 4199, Note_on_c, 5, 57, 0
11, 4199, Note_on_c, 5, 62, 0
11, 7920, Note_on_c, 5, 66, 48
11, 7979, Note_on_c, 5, 66, 0
11, 8040, Note_on_c, 5, 67, 48
11, 8099, Note_on_c, 5, 67, 0
11, 9900, Note_on_c, 5, 58, 48
11, 9989, Note_on_c, 5, 58, 0
11, 9990, Note_on_c, 5, 60, 48
11, 10019, Note_on_c, 5, 60, 0
11, 10020, Note_on_c, 5, 58, 48
11, 10049, Note_on_c, 5, 58, 0
11, 10050, Note_on_c, 5, 57, 48
11, 10079, Note_on_c, 5, 57, 0
11, 10080, Note_on_c, 5, 55, 48
11, 10109, Note_on_c, 5, 55, 0
11, 10110, Note_on_c, 5, 53, 48
11, 10139, Note_on_c, 5, 53, 0
11, 10140, Note_on_c, 5, 51, 48
11, 10169, Note_on_c, 5, 51, 0
11, 10170, Note_on_c, 5, 50, 48
11, 10199, Note_on_c, 5, 50, 0
11, 10200, Note_on_c, 5, 48, 48
11, 10319, Note_on_c, 5, 48, 0
11, 10320, Note_on_c, 5, 50, 48
11, 10409, Note_on_c, 5, 50, 0
11, 10410, Note_on_c, 5, 52, 48
11, 10439, Note_on_c, 5, 52, 0
11, 10440, Note_on_c, 5, 53, 48
11, 10559, Note_on_c, 5, 53, 0
11, 10560, Note_on_c, 5, 46, 48
11, 10679, Note_on_c, 5, 46, 0
11, 10980, Note_on_c, 5, 60, 48
11, 11069, Note_on_c, 5, 60, 0
11, 11070, Note_on_c, 5, 62, 48
11, 11099, Note_on_c, 5, 62, 0
11, 11100, Note_on_c, 5, 60, 48
11, 11129, Note_on_c, 5, 60, 0
11, 11130, Note_on_c, 5, 58, 48
11, 11159, Note_on_c, 5, 58, 0
11, 11160, Note_on_c, 5, 57, 48
11, 11189, Note_on_c, 5, 57, 0
11, 11190, Note_on_c, 5, 58, 48
11, 11219, Note_on_c, 5, 58, 0
11, 11220, Note_on_c, 5, 57, 48
11, 11249, Note_on_c, 5, 57, 0
11, 11250, Note_on_c, 5, 55, 48
11, 11279, Note_on_c, 5, 55, 0
11, 11280, Note_on_c, 5, 53, 48
11, 11459, Note_on_c, 5, 53, 0
11, 11460, Note_on_c, 5, 51, 48
11, 11519, Note_on_c, 5, 51, 0
11, 11520, Note_on_c, 5, 50, 48
11, 11549, Note_on_c, 5, 50, 0
11, 11550, Note_on_c, 5, 51, 48
11, 11579, Note_on_c, 5, 51, 0
11, 11580, Note_on_c, 5, 50, 48
11, 11609, Note_on_c, 5, 50, 0
11, 11610, Note_on_c, 5, 48, 48
11, 11639, Note_on_c, 5, 48, 0
11, 11640, Note_on_c, 5, 46, 48
11, 11669, Note_on_c, 5, 46, 0
11, 11670, Note_on_c, 5, 45, 48
11, 11699, Note_on_c, 5, 45, 0
11, 11700, Note_on_c, 5, 46, 48
11, 11729, Note_on_c, 5, 46, 0
11, 11730, Note_on_c, 5, 48, 48
11, 11759, Note_on_c, 5, 48, 0
11, 11760, Note_on_c, 5, 50, 48
11, 11999, Note_on_c, 5, 50, 0
11, 12000, Note_on_c, 5, 55, 48
11, 12119, Note_on_c, 5, 55, 0
11, 17040, Note_on_c, 5, 57, 72
11, 17159, Note_on_c, 5, 57, 0
11, 17160, Note_on_c, 5, 59, 72
11, 17279, Note_on_c, 5, 59, 0
11, 17280, Note_on_c, 5, 60, 72
11, 17339, Note_on_c, 5, 60, 0
11, 17820, Note_on_c, 5, 62, 72
11, 17909, Note_on_c, 5, 62, 0
11, 17910, Note_on_c, 5, 63, 72
11, 17939, Note_on_c, 5, 63, 0
11, 17940, Note_on_c, 5, 62, 72
11, 17969, Note_on_c, 5, 62, 0
11, 17970, Note_on_c, 5, 60, 72
11, 17999, Note_on_c, 5, 60, 0
11, 18000, Note_on_c, 5, 58, 72
11, 18059, Note_on_c, 5, 58, 0
11, 23580, Note_on_c, 5, 64, 72
11, 23639, Note_on_c, 5, 64, 0
11, 23640, Note_on_c, 5, 64, 72
11, 23699, Note_on_c, 5, 64, 0
11, 23700, Note_on_c, 5, 64, 72
11, 23759, Note_on_c, 5, 64, 0
11, 23760, Note_on_c, 5, 65, 72
11, 23789, Note_on_c, 5, 65, 0
11, 23790, Note_on_c, 5, 67, 72
11, 23819, Note_on_c, 5, 67, 0
11, 23820, Note_on_c, 5, 65, 72
11, 23849, Note_on_c, 5, 65, 0
11, 23850, Note_on_c, 5, 64, 72
11, 23879, Note_on_c, 5, 64, 0
11, 23880, Note_on_c, 5, 65, 72
11, 23909, Note_on_c, 5, 65, 0
11, 23910, Note_on_c, 5, 67, 72
11, 23939, Note_on_c, 5, 67, 0
11, 23940, Note_on_c, 5, 64, 72
11, 23969, Note_on_c, 5, 64, 0
11, 23970, Note_on_c, 5, 65, 72
11, 23999, Note_on_c, 5, 65, 0
11, 24000, Note_on_c, 5, 67, 72
11, 24029, Note_on_c, 5, 67, 0
11, 24030, Note_on_c, 5, 69, 72
11, 24059, Note_on_c, 5, 69, 0
11, 24060, Note_on_c, 5, 67, 72
11, 24089, Note_on_c, 5, 67, 0
11, 24090, Note_on_c, 5, 65, 72
11, 24119, Note_on_c, 5, 65, 0
11, 24120, Note_on_c, 5, 67, 72
11, 24149, Note_on_c, 5, 67, 0
11, 24150, Note_on_c, 5, 69, 72
11, 24179, Note_on_c, 5, 69, 0
11, 24180, Note_on_c, 5, 65, 72
11, 24209, Note_on_c, 5, 65, 0
11, 24210, Note_on_c, 5, 67, 72
11, 24239, Note_on_c, 5, 67, 0
11, 24240, Note_on_c, 5, 69, 72
11, 24299, Note_on_c, 5, 69, 0
11, 24300, Note_on_c, 5, 70, 72
11, 24329, Note_on_c, 5, 70, 0
11, 24330, Note_on_c, 5, 69, 72
11, 24359, Note_on_c, 5, 69, 0
11, 24360, Note_on_c, 5, 67, 72
11, 24389, Note_on_c, 5, 67, 0
11, 24390, Note_on_c, 5, 65, 72
11, 24419, Note_on_c, 5, 65, 0
11, 24420, Note_on_c, 5, 64, 72
11, 24449, Note_on_c, 5, 64, 0
11, 24450, Note_on_c, 5, 62, 72
11, 24479, Note_on_c, 5, 62, 0
11, 24480, Note_on_c, 5, 61, 72
11, 24539, Note_on_c, 5, 61, 0
11, 24540, Note_on_c, 5, 64, 72
11, 24599, Note_on_c, 5, 64, 0
11, 24600, Note_on_c, 5, 65, 72
11, 24659, Note_on_c, 5, 65, 0
11, 24660, Note_on_c, 5, 64, 72
11, 24719, Note_on_c, 5, 64, 0
11, 29580, Note_on_c, 5, 62, 72
11, 29639, Note_on_c, 5, 62, 0
11, 29640, Note_on_c, 5, 60, 72
11, 29699, Note_on_c, 5, 60, 0
11, 29700, Note_on_c, 5, 59, 72
11, 29759, Note_on_c, 5, 59, 0
11, 29760, Note_on_c, 5, 57, 72
11, 29819, Note_on_c, 5, 57, 0
11, 30060, Note_on_c, 5, 50, 72
11, 30119, Note_on_c, 5, 50, 0
11, 30120, Note_on_c, 5, 52, 72
11, 30179, Note_on_c, 5, 52, 0
11, 30180, Note_on_c, 5, 54, 72
11, 30239, Note_on_c, 5, 54, 0
11, 30240, Note_on_c, 5, 55, 72
11, 30299, Note_on_c, 5, 55, 0
11, 30780, Note_on_c, 5, 55, 72
11, 30809, Note_on_c, 5, 55, 0
11, 30810, Note_on_c, 5, 57, 72
11, 30839, Note_on_c, 5, 57, 0
11, 30840, Note_on_c, 5, 58, 72
11, 30869, Note_on_c, 5, 58, 0
11, 30870, Note_on_c, 5, 55, 72
11, 30899, Note_on_c, 5, 55, 0
11, 30900, Note_on_c, 5, 57, 72
11, 30929, Note_on_c, 5, 57, 0
11, 30930, Note_on_c, 5, 58, 72
11, 30959, Note_on_c, 5, 58, 0
11, 30960, Note_on_c, 5, 60, 72
11, 31019, Note_on_c, 5, 60, 0
11, 33060, Note_on_c, 5, 55, 72
11, 33119, Note_on_c, 5, 55, 0
11, 33120, Note_on_c, 5, 57, 72
11, 33299, Note_on_c, 5, 57, 0
11, 33300, Note_on_c, 5, 55, 72
11, 33329, Note_on_c, 5, 55, 0
11, 33330, Note_on_c, 5, 57, 72
11, 33359, Note_on_c, 5, 57, 0
11, 33360, Note_on_c, 5, 58, 72
11, 33419, Note_on_c, 5, 58, 0
11, 33420, Note_on_c, 5, 57, 72
11, 33449, Note_on_c, 5, 57, 0
11, 33450, Note_on_c, 5, 58, 72
11, 33479, Note_on_c, 5, 58, 0
11, 33480, Note_on_c, 5, 60, 72
11, 33539, Note_on_c, 5, 60, 0
11, 33540, Note_on_c, 5, 58, 72
11, 33569, Note_on_c, 5, 58, 0
11, 33570, Note_on_c, 5, 60, 72
11, 33599, Note_on_c, 5, 60, 0
11, 33600, Note_on_c, 5, 62, 72
11, 33659, Note_on_c, 5, 62, 0
11, 33660, Note_on_c, 5, 60, 72
11, 33719, Note_on_c, 5, 60, 0
11, 33720, Note_on_c, 5, 58, 72
11, 33779, Note_on_c, 5, 58, 0
11, 33780, Note_on_c, 5, 57, 72
11, 33839, Note_on_c, 5, 57, 0
11, 36300, Note_on_c, 5, 53, 72
11, 36359, Note_on_c, 5, 53, 0
11, 36360, Note_on_c, 5, 53, 72
11, 36419, Note_on_c, 5, 53, 0
11, 36420, Note_on_c, 5, 53, 72
11, 36479, Note_on_c, 5, 53, 0
11, 36480, Note_on_c, 5, 55, 72
11, 36509, Note_on_c, 5, 55, 0
11, 36510, Note_on_c, 5, 57, 72
11, 36539, Note_on_c, 5, 57, 0
11, 36540, Note_on_c, 5, 55, 72
11, 36569, Note_on_c, 5, 55, 0
11, 36570, Note_on_c, 5, 53, 72
11, 36599, Note_on_c, 5, 53, 0
11, 36600, Note_on_c, 5, 55, 72
11, 36629, Note_on_c, 5, 55, 0
11, 36630, Note_on_c, 5, 57, 72
11, 36659, Note_on_c, 5, 57, 0
11, 36660, Note_on_c, 5, 53, 72
11, 36689, Note_on_c, 5, 53, 0
11, 36690, Note_on_c, 5, 55, 72
11, 36719, Note_on_c, 5, 55, 0
11, 38460, Note_on_c, 5, 53, 72
11, 38519, Note_on_c, 5, 53, 0
11, 38520, Note_on_c, 5, 58, 72
11, 38579, Note_on_c, 5, 58, 0
11, 38580, Note_on_c, 5, 55, 72
11, 38639, Note_on_c, 5, 55, 0
11, 38640, Note_on_c, 5, 60, 72
11, 38699, Note_on_c, 5, 60, 0
11, 39900, Note_on_c, 5, 55, 72
11, 39959, Note_on_c, 5, 55, 0
11, 39960, Note_on_c, 5, 60, 72
11, 40019, Note_on_c, 5, 60, 0
11, 40020, Note_on_c, 5, 58, 72
11, 40079, Note_on_c, 5, 58, 0
11, 40080, Note_on_c, 5, 57, 72
11, 40139, Note_on_c, 5, 57, 0
11, 40140, Note_on_c, 5, 50, 72
11, 40199, Note_on_c, 5, 50, 0
11, 40200, Note_on_c, 5, 62, 72
11, 40259, Note_on_c, 5, 62, 0
11, 40260, Note_on_c, 5, 60, 72
11, 40319, Note_on_c, 5, 60, 0
11, 40320, Note_on_c, 5, 58, 72
11, 40379, Note_on_c, 5, 58, 0
11, 40380, Note_on_c, 5, 62, 72
11, 40439, Note_on_c, 5, 62, 0
11, 40440, Note_on_c, 5, 67, 72
11, 40499, Note_on_c, 5, 67, 0
11, 40500, Note_on_c, 5, 65, 72
11, 40559, Note_on_c, 5, 65, 0
11, 40560, Note_on_c, 5, 64, 72
11, 40619, Note_on_c, 5, 64, 0
11, 43500, Note_on_c, 5, 57, 72
11, 43559, Note_on_c, 5, 57, 0
11, 43560, Note_on_c, 5, 59, 72
11, 43619, Note_on_c, 5, 59, 0
11, 43620, Note_on_c, 5, 61, 72
11, 43679, Note_on_c, 5, 61, 0
11, 43680, Note_on_c, 5, 62, 72
11, 43739, Note_on_c, 5, 62, 0
11, 43740, Note_on_c, 5, 50, 72
11, 43799, Note_on_c, 5, 50, 0
11, 43800, Note_on_c, 5, 55, 72
11, 43859, Note_on_c, 5, 55, 0
11, 43860, Note_on_c, 5, 52, 72
11, 43919, Note_on_c, 5, 52, 0
11, 43920, Note_on_c, 5, 57, 72
11, 43979, Note_on_c, 5, 57, 0
11, 45180, Note_on_c, 5, 57, 72
11, 45239, Note_on_c, 5, 57, 0
11, 45240, Note_on_c, 5, 62, 72
11, 45299, Note_on_c, 5, 62, 0
11, 45300, Note_on_c, 5, 60, 72
11, 45359, Note_on_c, 5, 60, 0
11, 45360, Note_on_c, 5, 59, 72
11, 45419, Note_on_c, 5, 59, 0
11, 45420, Note_on_c, 5, 59, 72
11, 45479, Note_on_c, 5, 59, 0
11, 45480, Note_on_c, 5, 64, 72
11, 45539, Note_on_c, 5, 64, 0
11, 45539, End_track
12, 0, Start_track
12, 0, Title_t, "Contrabass"
12, 0, Program_c, 6, 48
12, 0, Control_c, 6, 7, 112
12, 0, Control_c, 6, 10, 115
12, 0, Control_c, 6, 11, 127
12, 0, Note_on_c, 6, 38, 48
12, 29, Note_on_c, 6, 38, 0
12, 120, Note_on_c, 6, 41, 48
12, 149, Note_on_c, 6, 41, 0
12, 240, Note_on_c, 6, 40, 48
12, 269, Note_on_c, 6, 40, 0
12, 360, Note_on_c, 6, 43, 48
12, 389, Note_on_c, 6, 43, 0
12, 480, Note_on_c, 6, 41, 48
12, 509, Note_on_c, 6, 41, 0
12, 600, Note_on_c, 6, 37, 48
12, 629, Note_on_c, 6, 37, 0
12, 720, Note_on_c, 6, 38, 48
12, 749, Note_on_c, 6, 38, 0
12, 840, Note_on_c, 6, 38, 48
12, 869, Note_on_c, 6, 38, 0
12, 960, Note_on_c, 6, 36, 48
12, 1019, Note_on_c, 6, 36, 0
12, 1080, Note_on_c, 6, 32, 48
12, 1139, Note_on_c, 6, 32, 0
12, 1200, Note_on_c, 6, 33, 48
12, 1259, Note_on_c, 6, 33, 0
12, 1320, Note_on_c, 6, 38, 48
12, 1379, Note_on_c, 6, 38, 0
12, 1440, Note_on_c, 6, 31, 48
12, 1499, Note_on_c, 6, 31, 0
12, 1560, Note_on_c, 6, 33, 48
12, 1619, Note_on_c, 6, 33, 0
12, 1680, Note_on_c, 6, 41, 48
12, 1739, Note_on_c, 6, 41, 0
12, 1800, Note_on_c, 6, 40, 48
12, 1859, Note_on_c, 6, 40, 0
12, 1920, Note_on_c, 6, 38, 48
12, 1979, Note_on_c, 6, 38, 0
12, 2040, Note_on_c, 6, 43, 48
12, 2099, Note_on_c, 6, 43, 0
12, 2160, Note_on_c, 6, 36, 48
12, 2219, Note_on_c, 6, 36, 0
12, 2280, Note_on_c, 6, 33, 48
12, 2339, Note_on_c, 6, 33, 0
12, 2400, Note_on_c, 6, 38, 48
12, 2459, Note_on_c, 6, 38, 0
12, 2520, Note_on_c, 6, 38, 48
12, 2579, Note_on_c, 6, 38, 0
12, 2640, Note_on_c, 6, 40, 48
12, 2699, Note_on_c, 6, 40, 0
12, 2760, Note_on_c, 6, 40, 48
12, 2819, Note_on_c, 6, 40, 0
12, 2880, Note_on_c, 6, 45, 48
12, 2939, Note_on_c, 6, 45, 0
12, 3000, Note_on_c, 6, 43, 48
12, 3059, Note_on_c, 6, 43, 0
12, 3120, Note_on_c, 6, 41, 48
12, 3179, Note_on_c, 6, 41, 0
12, 3240, Note_on_c, 6, 40, 48
12, 3299, Note_on_c, 6, 40, 0
12, 3360, Note_on_c, 6, 38, 48
12, 3419, Note_on_c, 6, 38, 0
12, 3480, Note_on_c, 6, 38, 48
12, 3539, Note_on_c, 6, 38, 0
12, 3600, Note_on_c, 6, 38, 48
12, 3659, Note_on_c, 6, 38, 0
12, 3720, Note_on_c, 6, 37, 48
12, 3779, Note_on_c, 6, 37, 0
12, 3840, Note_on_c, 6, 38, 48
12, 3899, Note_on_c, 6, 38, 0
12, 3960, Note_on_c, 6, 40, 48
12, 4019, Note_on_c, 6, 40, 0
12, 4080, Note_on_c, 6, 41, 48
12, 4139, Note_on_c, 6, 41, 0
12, 4200, Note_on_c, 6, 40, 48
12, 4259, Note_on_c, 6, 40, 0
12, 4320, Note_on_c, 6, 38, 48
12, 4379, Note_on_c, 6, 38, 0
12, 4440, Note_on_c, 6, 40, 48
12, 4499, Note_on_c, 6, 40, 0
12, 4560, Note_on_c, 6, 41, 48
12, 4619, Note_on_c, 6, 41, 0
12, 4620, Note_on_c, 6, 40, 48
12, 4679, Note_on_c, 6, 40, 0
12, 4680, Note_on_c, 6, 38, 48
12, 4739, Note_on_c, 6, 38, 0
12, 4740, Note_on_c, 6, 43, 48
12, 4799, Note_on_c, 6, 43, 0
12, 4800, Note_on_c, 6, 36, 48
12, 4919, Note_on_c, 6, 36, 0
12, 4920, Note_on_c, 6, 38, 48
12, 5039, Note_on_c, 6, 38, 0
12, 5040, Note_on_c, 6, 31, 48
12, 5159, Note_on_c, 6, 31, 0
12, 5160, Note_on_c, 6, 36, 48
12, 5279, Note_on_c, 6, 36, 0
12, 5280, Note_on_c, 6, 41, 48
12, 5399, Note_on_c, 6, 41, 0
12, 5400, Note_on_c, 6, 46, 48
12, 5459, Note_on_c, 6, 46, 0
12, 5460, Note_on_c, 6, 45, 48
12, 5519, Note_on_c, 6, 45, 0
12, 5520, Note_on_c, 6, 43, 48
12, 5579, Note_on_c, 6, 43, 0
12, 5580, Note_on_c, 6, 41, 48
12, 5609, Note_on_c, 6, 41, 0
12, 5610, Note_on_c, 6, 40, 48
12, 5639, Note_on_c, 6, 40, 0
12, 5640, Note_on_c, 6, 45, 48
12, 5699, Note_on_c, 6, 45, 0
12, 5700, Note_on_c, 6, 43, 48
12, 5759, Note_on_c, 6, 43, 0
12, 5760, Note_on_c, 6, 41, 48
12, 5819, Note_on_c, 6, 41, 0
12, 5820, Note_on_c, 6, 40, 48
12, 5879, Note_on_c, 6, 40, 0
12, 5880, Note_on_c, 6, 38, 48
12, 5939, Note_on_c, 6, 38, 0
12, 5940, Note_on_c, 6, 37, 48
12, 5999, Note_on_c, 6, 37, 0
12, 6000, Note_on_c, 6, 38, 48
12, 6119, Note_on_c, 6, 38, 0
12, 6120, Note_on_c, 6, 36, 48
12, 6239, Note_on_c, 6, 36, 0
12, 6240, Note_on_c, 6, 34, 48
12, 6359, Note_on_c, 6, 34, 0
12, 6360, Note_on_c, 6, 46, 48
12, 6479, Note_on_c, 6, 46, 0
12, 6480, Note_on_c, 6, 45, 48
12, 6539, Note_on_c, 6, 45, 0
12, 6600, Note_on_c, 6, 43, 48
12, 6659, Note_on_c, 6, 43, 0
12, 6720, Note_on_c, 6, 41, 48
12, 6839, Note_on_c, 6, 41, 0
12, 6990, Note_on_c, 6, 41, 48
12, 7019, Note_on_c, 6, 41, 0
12, 7020, Note_on_c, 6, 45, 48
12, 7049, Note_on_c, 6, 45, 0
12, 7050, Note_on_c, 6, 41, 48
12, 7064, Note_on_c, 6, 41, 0
12, 7080, Note_on_c, 6, 36, 48
12, 7094, Note_on_c, 6, 36, 0
12, 7110, Note_on_c, 6, 41, 48
12, 7124, Note_on_c, 6, 41, 0
12, 7140, Note_on_c, 6, 33, 48
12, 7154, Note_on_c, 6, 33, 0
12, 7170, Note_on_c, 6, 36, 48
12, 7184, Note_on_c, 6, 36, 0
12, 7200, Note_on_c, 6, 29, 48
12, 7319, Note_on_c, 6, 29, 0
12, 7470, Note_on_c, 6, 41, 48
12, 7499, Note_on_c, 6, 41, 0
12, 7500, Note_on_c, 6, 45, 48
12, 7529, Note_on_c, 6, 45, 0
12, 7530, Note_on_c, 6, 41, 48
12, 7544, Note_on_c, 6, 41, 0
12, 7560, Note_on_c, 6, 36, 48
12, 7574, Note_on_c, 6, 36, 0
12, 7590, Note_on_c, 6, 41, 48
12, 7604, Note_on_c, 6, 41, 0
12, 7620, Note_on_c, 6, 33, 48
12, 7634, Note_on_c, 6, 33, 0
12, 7650, Note_on_c, 6, 36, 48
12, 7664, Note_on_c, 6, 36, 0
12, 7680, Note_on_c, 6, 39, 48
12, 7739, Note_on_c, 6, 39, 0
12, 7800, Note_on_c, 6, 38, 48
12, 7859, Note_on_c, 6, 38, 0
12, 8160, Note_on_c, 6, 39, 48
12, 8219, Note_on_c, 6, 39, 0
12, 8280, Note_on_c, 6, 40, 48
12, 8339, Note_on_c, 6, 40, 0
12, 8400, Note_on_c, 6, 41, 48
12, 8459, Note_on_c, 6, 41, 0
12, 8520, Note_on_c, 6, 29, 48
12, 8579, Note_on_c, 6, 29, 0
12, 8640, Note_on_c, 6, 34, 48
12, 8699, Note_on_c, 6, 34, 0
12, 8760, Note_on_c, 6, 50, 48
12, 8819, Note_on_c, 6, 50, 0
12, 8880, Note_on_c, 6, 48, 48
12, 8939, Note_on_c, 6, 48, 0
12, 9000, Note_on_c, 6, 41, 48
12, 9059, Note_on_c, 6, 41, 0
12, 9120, Note_on_c, 6, 46, 48
12, 9179, Note_on_c, 6, 46, 0
12, 9240, Note_on_c, 6, 45, 48
12, 9299, Note_on_c, 6, 45, 0
12, 9360, Note_on_c, 6, 46, 48
12, 9419, Note_on_c, 6, 46, 0
12, 9420, Note_on_c, 6, 43, 48
12, 9479, Note_on_c, 6, 43, 0
12, 9480, Note_on_c, 6, 39, 48
12, 9539, Note_on_c, 6, 39, 0
12, 9540, Note_on_c, 6, 41, 48
12, 9599, Note_on_c, 6, 41, 0
12, 9600, Note_on_c, 6, 34, 48
12, 9719, Note_on_c, 6, 34, 0
12, 12165, Note_on_c, 6, 43, 72
12, 12179, Note_on_c, 6, 43, 0
12, 12180, Note_on_c, 6, 46, 72
12, 12224, Note_on_c, 6, 46, 0
12, 12225, Note_on_c, 6, 43, 72
12, 12239, Note_on_c, 6, 43, 0
12, 12240, Note_on_c, 6, 45, 72
12, 12359, Note_on_c, 6, 45, 0
12, 12405, Note_on_c, 6, 41, 72
12, 12419, Note_on_c, 6, 41, 0
12, 12420, Note_on_c, 6, 45, 72
12, 12464, Note_on_c, 6, 45, 0
12, 12465, Note_on_c, 6, 41, 72
12, 12479, Note_on_c, 6, 41, 0
12, 12480, Note_on_c, 6, 46, 72
12, 12599, Note_on_c, 6, 46, 0
12, 12645, Note_on_c, 6, 46, 72
12, 12659, Note_on_c, 6, 46, 0
12, 12660, Note_on_c, 6, 50, 72
12, 12704, Note_on_c, 6, 50, 0
12, 12705, Note_on_c, 6, 46, 72
12, 12719, Note_on_c, 6, 46, 0
12, 12720, Note_on_c, 6, 42, 72
12, 12839, Note_on_c, 6, 42, 0
12, 12885, Note_on_c, 6, 38, 72
12, 12899, Note_on_c, 6, 38, 0
12, 12900, Note_on_c, 6, 41, 72
12, 12944, Note_on_c, 6, 41, 0
12, 12945, Note_on_c, 6, 38, 72
12, 12959, Note_on_c, 6, 38, 0
12, 12960, Note_on_c, 6, 43, 72
12, 13079, Note_on_c, 6, 43, 0
12, 13125, Note_on_c, 6, 43, 72
12, 13139, Note_on_c, 6, 43, 0
12, 13140, Note_on_c, 6, 46, 72
12, 13184, Note_on_c, 6, 46, 0
12, 13185, Note_on_c, 6, 43, 72
12, 13199, Note_on_c, 6, 43, 0
12, 13200, Note_on_c, 6, 36, 72
12, 13259, Note_on_c, 6, 36, 0
12, 13260, Note_on_c, 6, 38, 72
12, 13304, Note_on_c, 6, 38, 0
12, 13305, Note_on_c, 6, 39, 72
12, 13319, Note_on_c, 6, 39, 0
12, 13320, Note_on_c, 6, 41, 72
12, 13379, Note_on_c, 6, 41, 0
12, 13380, Note_on_c, 6, 29, 72
12, 13439, Note_on_c, 6, 29, 0
12, 13440, Note_on_c, 6, 34, 72
12, 13559, Note_on_c, 6, 34, 0
12, 13605, Note_on_c, 6, 46, 72
12, 13619, Note_on_c, 6, 46, 0
12, 13620, Note_on_c, 6, 50, 72
12, 13664, Note_on_c, 6, 50, 0
12, 13665, Note_on_c, 6, 46, 72
12, 13679, Note_on_c, 6, 46, 0
12, 13680, Note_on_c, 6, 43, 72
12, 13799, Note_on_c, 6, 43, 0
12, 13845, Note_on_c, 6, 43, 72
12, 13859, Note_on_c, 6, 43, 0
12, 13860, Note_on_c, 6, 46, 72
12, 13904, Note_on_c, 6, 46, 0
12, 13905, Note_on_c, 6, 43, 72
12, 13919, Note_on_c, 6, 43, 0
12, 13920, Note_on_c, 6, 40, 72
12, 14039, Note_on_c, 6, 40, 0
12, 14085, Note_on_c, 6, 40, 72
12, 14099, Note_on_c, 6, 40, 0
12, 14100, Note_on_c, 6, 43, 72
12, 14144, Note_on_c, 6, 43, 0
12, 14145, Note_on_c, 6, 48, 72
12, 14159, Note_on_c, 6, 48, 0
12, 14160, Note_on_c, 6, 39, 72
12, 14279, Note_on_c, 6, 39, 0
12, 14325, Note_on_c, 6, 39, 72
12, 14339, Note_on_c, 6, 39, 0
12, 14340, Note_on_c, 6, 43, 72
12, 14384, Note_on_c, 6, 43, 0
12, 14385, Note_on_c, 6, 48, 72
12, 14399, Note_on_c, 6, 48, 0
12, 14400, Note_on_c, 6, 38, 72
12, 14459, Note_on_c, 6, 38, 0
12, 14505, Note_on_c, 6, 50, 72
12, 14519, Note_on_c, 6, 50, 0
12, 14520, Note_on_c, 6, 49, 72
12, 14579, Note_on_c, 6, 49, 0
12, 14625, Note_on_c, 6, 36, 72
12, 14639, Note_on_c, 6, 36, 0
12, 14640, Note_on_c, 6, 38, 72
12, 14699, Note_on_c, 6, 38, 0
12, 14700, Note_on_c, 6, 38, 72
12, 14759, Note_on_c, 6, 38, 0
12, 14760, Note_on_c, 6, 38, 72
12, 14819, Note_on_c, 6, 38, 0
12, 14820, Note_on_c, 6, 38, 72
12, 14879, Note_on_c, 6, 38, 0
12, 14880, Note_on_c, 6, 31, 72
12, 14939, Note_on_c, 6, 31, 0
12, 15000, Note_on_c, 6, 46, 48
12, 15059, Note_on_c, 6, 46, 0
12, 15120, Note_on_c, 6, 45, 48
12, 15179, Note_on_c, 6, 45, 0
12, 15240, Note_on_c, 6, 38, 48
12, 15299, Note_on_c, 6, 38, 0
12, 15360, Note_on_c, 6, 43, 48
12, 15419, Note_on_c, 6, 43, 0
12, 15480, Note_on_c, 6, 42, 48
12, 15539, Note_on_c, 6, 42, 0
12, 15600, Note_on_c, 6, 43, 48
12, 15659, Note_on_c, 6, 43, 0
12, 15660, Note_on_c, 6, 39, 48
12, 15719, Note_on_c, 6, 39, 0
12, 15720, Note_on_c, 6, 36, 48
12, 15779, Note_on_c, 6, 36, 0
12, 15780, Note_on_c, 6, 38, 48
12, 15839, Note_on_c, 6, 38, 0
12, 15840, Note_on_c, 6, 31, 48
12, 15899, Note_on_c, 6, 31, 0
12, 15960, Note_on_c, 6, 46, 72
12, 16019, Note_on_c, 6, 46, 0
12, 16080, Note_on_c, 6, 45, 72
12, 16139, Note_on_c, 6, 45, 0
12, 16200, Note_on_c, 6, 33, 72
12, 16259, Note_on_c, 6, 33, 0
12, 16320, Note_on_c, 6, 38, 72
12, 16379, Note_on_c, 6, 38, 0
12, 16440, Note_on_c, 6, 40, 72
12, 16499, Note_on_c, 6, 40, 0
12, 16560, Note_on_c, 6, 41, 72
12, 16619, Note_on_c, 6, 41, 0
12, 16680, Note_on_c, 6, 38, 72
12, 16739, Note_on_c, 6, 38, 0
12, 16800, Note_on_c, 6, 40, 72
12, 16859, Note_on_c, 6, 40, 0
12, 16920, Note_on_c, 6, 40, 72
12, 16979, Note_on_c, 6, 40, 0
12, 17340, Note_on_c, 6, 45, 72
12, 17399, Note_on_c, 6, 45, 0
12, 17400, Note_on_c, 6, 42, 72
12, 17459, Note_on_c, 6, 42, 0
12, 17460, Note_on_c, 6, 34, 72
12, 17519, Note_on_c, 6, 34, 0
12, 17520, Note_on_c, 6, 43, 72
12, 17609, Note_on_c, 6, 43, 0
12, 17610, Note_on_c, 6, 45, 72
12, 17639, Note_on_c, 6, 45, 0
12, 17640, Note_on_c, 6, 46, 72
12, 17699, Note_on_c, 6, 46, 0
12, 17700, Note_on_c, 6, 43, 72
12, 17759, Note_on_c, 6, 43, 0
12, 17760, Note_on_c, 6, 38, 72
12, 17819, Note_on_c, 6, 38, 0
12, 18060, Note_on_c, 6, 43, 72
12, 18179, Note_on_c, 6, 43, 0
12, 18180, Note_on_c, 6, 42, 72
12, 18239, Note_on_c, 6, 42, 0
12, 18240, Note_on_c, 6, 43, 72
12, 18359, Note_on_c, 6, 43, 0
12, 18360, Note_on_c, 6, 31, 72
12, 18419, Note_on_c, 6, 31, 0
12, 18420, Note_on_c, 6, 43, 72
12, 18479, Note_on_c, 6, 43, 0
12, 18480, Note_on_c, 6, 45, 72
12, 18509, Note_on_c, 6, 45, 0
12, 18510, Note_on_c, 6, 43, 72
12, 18539, Note_on_c, 6, 43, 0
12, 18540, Note_on_c, 6, 41, 72
12, 18569, Note_on_c, 6, 41, 0
12, 18570, Note_on_c, 6, 43, 72
12, 18599, Note_on_c, 6, 43, 0
12, 18600, Note_on_c, 6, 45, 72
12, 18629, Note_on_c, 6, 45, 0
12, 18630, Note_on_c, 6, 43, 72
12, 18659, Note_on_c, 6, 43, 0
12, 18660, Note_on_c, 6, 45, 72
12, 18689, Note_on_c, 6, 45, 0
12, 18690, Note_on_c, 6, 41, 72
12, 18719, Note_on_c, 6, 41, 0
12, 18720, Note_on_c, 6, 36, 72
12, 18779, Note_on_c, 6, 36, 0
12, 18780, Note_on_c, 6, 48, 72
12, 18869, Note_on_c, 6, 48, 0
12, 18870, Note_on_c, 6, 50, 72
12, 18899, Note_on_c, 6, 50, 0
12, 18900, Note_on_c, 6, 48, 72
12, 18929, Note_on_c, 6, 48, 0
12, 18930, Note_on_c, 6, 46, 72
12, 18959, Note_on_c, 6, 46, 0
12, 18960, Note_on_c, 6, 45, 72
12, 18989, Note_on_c, 6, 45, 0
12, 18990, Note_on_c, 6, 48, 72
12, 19019, Note_on_c, 6, 48, 0
12, 19020, Note_on_c, 6, 46, 72
12, 19049, Note_on_c, 6, 46, 0
12, 19050, Note_on_c, 6, 45, 72
12, 19079, Note_on_c, 6, 45, 0
12, 19080, Note_on_c, 6, 43, 72
12, 19109, Note_on_c, 6, 43, 0
12, 19110, Note_on_c, 6, 46, 72
12, 19139, Note_on_c, 6, 46, 0
12, 19140, Note_on_c, 6, 45, 72
12, 19169, Note_on_c, 6, 45, 0
12, 19170, Note_on_c, 6, 43, 72
12, 19199, Note_on_c, 6, 43, 0
12, 19200, Note_on_c, 6, 41, 72
12, 19229, Note_on_c, 6, 41, 0
12, 19230, Note_on_c, 6, 43, 72
12, 19259, Note_on_c, 6, 43, 0
12, 19260, Note_on_c, 6, 45, 72
12, 19349, Note_on_c, 6, 45, 0
12, 19350, Note_on_c, 6, 46, 72
12, 19379, Note_on_c, 6, 46, 0
12, 19380, Note_on_c, 6, 45, 72
12, 19409, Note_on_c, 6, 45, 0
12, 19410, Note_on_c, 6, 43, 72
12, 19439, Note_on_c, 6, 43, 0
12, 19440, Note_on_c, 6, 41, 72
12, 19469, Note_on_c, 6, 41, 0
12, 19470, Note_on_c, 6, 45, 72
12, 19499, Note_on_c, 6, 45, 0
12, 19500, Note_on_c, 6, 43, 72
12, 19529, Note_on_c, 6, 43, 0
12, 19530, Note_on_c, 6, 41, 72
12, 19559, Note_on_c, 6, 41, 0
12, 19560, Note_on_c, 6, 40, 72
12, 19589, Note_on_c, 6, 40, 0
12, 19590, Note_on_c, 6, 43, 72
12, 19619, Note_on_c, 6, 43, 0
12, 19620, Note_on_c, 6, 41, 72
12, 19649, Note_on_c, 6, 41, 0
12, 19650, Note_on_c, 6, 40, 72
12, 19679, Note_on_c, 6, 40, 0
12, 19680, Note_on_c, 6, 38, 72
12, 19709, Note_on_c, 6, 38, 0
12, 19710, Note_on_c, 6, 39, 72
12, 19739, Note_on_c, 6, 39, 0
12, 19740, Note_on_c, 6, 41, 72
12, 19829, Note_on_c, 6, 41, 0
12, 19830, Note_on_c, 6, 43, 72
12, 19859, Note_on_c, 6, 43, 0
12, 19860, Note_on_c, 6, 41, 72
12, 19889, Note_on_c, 6, 41, 0
12, 19890, Note_on_c, 6, 40, 72
12, 19919, Note_on_c, 6, 40, 0
12, 19920, Note_on_c, 6, 38, 72
12, 19949, Note_on_c, 6, 38, 0
12, 19950, Note_on_c, 6, 41, 72
12, 19979, Note_on_c, 6, 41, 0
12, 19980, Note_on_c, 6, 40, 72
12, 20009, Note_on_c, 6, 40, 0
12, 20010, Note_on_c, 6, 38, 72
12, 20039, Note_on_c, 6, 38, 0
12, 20040, Note_on_c, 6, 36, 72
12, 20069, Note_on_c, 6, 36, 0
12, 20070, Note_on_c, 6, 40, 72
12, 20099, Note_on_c, 6, 40, 0
12, 20100, Note_on_c, 6, 38, 72
12, 20129, Note_on_c, 6, 38, 0
12, 20130, Note_on_c, 6, 36, 72
12, 20159, Note_on_c, 6, 36, 0
12, 20160, Note_on_c, 6, 34, 72
12, 20279, Note_on_c, 6, 34, 0
12, 20430, Note_on_c, 6, 46, 72
12, 20459, Note_on_c, 6, 46, 0
12, 20460, Note_on_c, 6, 50, 72
12, 20489, Note_on_c, 6, 50, 0
12, 20490, Note_on_c, 6, 46, 72
12, 20504, Note_on_c, 6, 46, 0
12, 20520, Note_on_c, 6, 41, 72
12, 20534, Note_on_c, 6, 41, 0
12, 20550, Note_on_c, 6, 38, 72
12, 20564, Note_on_c, 6, 38, 0
12, 20580, Note_on_c, 6, 34, 72
12, 20594, Note_on_c, 6, 34, 0
12, 20610, Note_on_c, 6, 41, 72
12, 20624, Note_on_c, 6, 41, 0
12, 20640, Note_on_c, 6, 33, 72
12, 20759, Note_on_c, 6, 33, 0
12, 20910, Note_on_c, 6, 50, 72
12, 20939, Note_on_c, 6, 50, 0
12, 20940, Note_on_c, 6, 53, 72
12, 20969, Note_on_c, 6, 53, 0
12, 20970, Note_on_c, 6, 50, 72
12, 20984, Note_on_c, 6, 50, 0
12, 21000, Note_on_c, 6, 45, 72
12, 21014, Note_on_c, 6, 45, 0
12, 21030, Note_on_c, 6, 41, 72
12, 21044, Note_on_c, 6, 41, 0
12, 21060, Note_on_c, 6, 38, 72
12, 21074, Note_on_c, 6, 38, 0
12, 21090, Note_on_c, 6, 41, 72
12, 21104, Note_on_c, 6, 41, 0
12, 21120, Note_on_c, 6, 32, 72
12, 21179, Note_on_c, 6, 32, 0
12, 21180, Note_on_c, 6, 44, 72
12, 21239, Note_on_c, 6, 44, 0
12, 21240, Note_on_c, 6, 44, 72
12, 21299, Note_on_c, 6, 44, 0
12, 21300, Note_on_c, 6, 44, 72
12, 21359, Note_on_c, 6, 44, 0
12, 21360, Note_on_c, 6, 44, 72
12, 21419, Note_on_c, 6, 44, 0
12, 21420, Note_on_c, 6, 44, 72
12, 21479, Note_on_c, 6, 44, 0
12, 21480, Note_on_c, 6, 44, 72
12, 21539, Note_on_c, 6, 44, 0
12, 21540, Note_on_c, 6, 44, 72
12, 21599, Note_on_c, 6, 44, 0
12, 21600, Note_on_c, 6, 45, 72
12, 21659, Note_on_c, 6, 45, 0
12, 21660, Note_on_c, 6, 33, 72
12, 21719, Note_on_c, 6, 33, 0
12, 21780, Note_on_c, 6, 33, 48
12, 21839, Note_on_c, 6, 33, 0
12, 21840, Note_on_c, 6, 38, 48
12, 21959, Note_on_c, 6, 38, 0
12, 21960, Note_on_c, 6, 37, 48
12, 22079, Note_on_c, 6, 37, 0
12, 22080, Note_on_c, 6, 38, 48
12, 22199, Note_on_c, 6, 38, 0
12, 22200, Note_on_c, 6, 36, 48
12, 22319, Note_on_c, 6, 36, 0
12, 22320, Note_on_c, 6, 35, 48
12, 22439, Note_on_c, 6, 35, 0
12, 22440, Note_on_c, 6, 34, 48
12, 22559, Note_on_c, 6, 34, 0
12, 22560, Note_on_c, 6, 33, 48
12, 22799, Note_on_c, 6, 33, 0
12, 22800, Note_on_c, 6, 33, 48
12, 23039, Note_on_c, 6, 33, 0
12, 23040, Note_on_c, 6, 45, 72
12, 23219, Note_on_c, 6, 45, 0
12, 23220, Note_on_c, 6, 45, 72
12, 23279, Note_on_c, 6, 45, 0
12, 23280, Note_on_c, 6, 41, 72
12, 23399, Note_on_c, 6, 41, 0
12, 23400, Note_on_c, 6, 46, 72
12, 23519, Note_on_c, 6, 46, 0
12, 23520, Note_on_c, 6, 37, 72
12, 23699, Note_on_c, 6, 37, 0
12, 23700, Note_on_c, 6, 37, 72
12, 23759, Note_on_c, 6, 37, 0
12, 23760, Note_on_c, 6, 38, 72
12, 23879, Note_on_c, 6, 38, 0
12, 23940, Note_on_c, 6, 38, 72
12, 23999, Note_on_c, 6, 38, 0
12, 24000, Note_on_c, 6, 40, 72
12, 24179, Note_on_c, 6, 40, 0
12, 24180, Note_on_c, 6, 38, 72
12, 24209, Note_on_c, 6, 38, 0
12, 24210, Note_on_c, 6, 40, 72
12, 24239, Note_on_c, 6, 40, 0
12, 24240, Note_on_c, 6, 41, 72
12, 24299, Note_on_c, 6, 41, 0
12, 24300, Note_on_c, 6, 40, 72
12, 24329, Note_on_c, 6, 40, 0
12, 24330, Note_on_c, 6, 41, 72
12, 24359, Note_on_c, 6, 41, 0
12, 24360, Note_on_c, 6, 43, 72
12, 24419, Note_on_c, 6, 43, 0
12, 24420, Note_on_c, 6, 41, 72
12, 24449, Note_on_c, 6, 41, 0
12, 24450, Note_on_c, 6, 43, 72
12, 24479, Note_on_c, 6, 43, 0
12, 24480, Note_on_c, 6, 45, 72
12, 24539, Note_on_c, 6, 45, 0
12, 24540, Note_on_c, 6, 43, 72
12, 24599, Note_on_c, 6, 43, 0
12, 24600, Note_on_c, 6, 41, 72
12, 24659, Note_on_c, 6, 41, 0
12, 24660, Note_on_c, 6, 40, 72
12, 24719, Note_on_c, 6, 40, 0
12, 24720, Note_on_c, 6, 38, 72
12, 24779, Note_on_c, 6, 38, 0
12, 24780, Note_on_c, 6, 36, 72
12, 24839, Note_on_c, 6, 36, 0
12, 24840, Note_on_c, 6, 35, 72
12, 24899, Note_on_c, 6, 35, 0
12, 24900, Note_on_c, 6, 40, 72
12, 24959, Note_on_c, 6, 40, 0
12, 24960, Note_on_c, 6, 33, 72
12, 25019, Note_on_c, 6, 33, 0
12, 25020, Note_on_c, 6, 41, 72
12, 25049, Note_on_c, 6, 41, 0
12, 25050, Note_on_c, 6, 40, 72
12, 25079, Note_on_c, 6, 40, 0
12, 25080, Note_on_c, 6, 38, 72
12, 25109, Note_on_c, 6, 38, 0
12, 25110, Note_on_c, 6, 35, 72
12, 25139, Note_on_c, 6, 35, 0
12, 25140, Note_on_c, 6, 36, 72
12, 25169, Note_on_c, 6, 36, 0
12, 25170, Note_on_c, 6, 38, 72
12, 25199, Note_on_c, 6, 38, 0
12, 25200, Note_on_c, 6, 40, 72
12, 25319, Note_on_c, 6, 40, 0
12, 25380, Note_on_c, 6, 40, 72
12, 25439, Note_on_c, 6, 40, 0
12, 25440, Note_on_c, 6, 45, 72
12, 25499, Note_on_c, 6, 45, 0
12, 25500, Note_on_c, 6, 33, 72
12, 25559, Note_on_c, 6, 33, 0
12, 25560, Note_on_c, 6, 45, 72
12, 25799, Note_on_c, 6, 45, 0
12, 25800, Note_on_c, 6, 43, 72
12, 25829, Note_on_c, 6, 43, 0
12, 25830, Note_on_c, 6, 41, 72
12, 25859, Note_on_c, 6, 41, 0
12, 25860, Note_on_c, 6, 40, 72
12, 25889, Note_on_c, 6, 40, 0
12, 25890, Note_on_c, 6, 38, 72
12, 25919, Note_on_c, 6, 38, 0
12, 25920, Note_on_c, 6, 36, 72
12, 26039, Note_on_c, 6, 36, 0
12, 26040, Note_on_c, 6, 35, 72
12, 26099, Note_on_c, 6, 35, 0
12, 26100, Note_on_c, 6, 41, 72
12, 26159, Note_on_c, 6, 41, 0
12, 26160, Note_on_c, 6, 40, 72
12, 26249, Note_on_c, 6, 40, 0
12, 26250, Note_on_c, 6, 42, 72
12, 26279, Note_on_c, 6, 42, 0
12, 26280, Note_on_c, 6, 44, 72
12, 26309, Note_on_c, 6, 44, 0
12, 26310, Note_on_c, 6, 45, 72
12, 26339, Note_on_c, 6, 45, 0
12, 26340, Note_on_c, 6, 42, 72
12, 26369, Note_on_c, 6, 42, 0
12, 26370, Note_on_c, 6, 44, 72
12, 26399, Note_on_c, 6, 44, 0
12, 26400, Note_on_c, 6, 45, 72
12, 26459, Note_on_c, 6, 45, 0
12, 26460, Note_on_c, 6, 33, 72
12, 26519, Note_on_c, 6, 33, 0
12, 26520, Note_on_c, 6, 35, 72
12, 26579, Note_on_c, 6, 35, 0
12, 26580, Note_on_c, 6, 37, 72
12, 26639, Note_on_c, 6, 37, 0
12, 26640, Note_on_c, 6, 38, 72
12, 26699, Note_on_c, 6, 38, 0
12, 26700, Note_on_c, 6, 38, 72
12, 26759, Note_on_c, 6, 38, 0
12, 26760, Note_on_c, 6, 43, 72
12, 26819, Note_on_c, 6, 43, 0
12, 26820, Note_on_c, 6, 41, 72
12, 26879, Note_on_c, 6, 41, 0
12, 26880, Note_on_c, 6, 40, 72
12, 26939, Note_on_c, 6, 40, 0
12, 26940, Note_on_c, 6, 40, 72
12, 26999, Note_on_c, 6, 40, 0
12, 27000, Note_on_c, 6, 40, 72
12, 27059, Note_on_c, 6, 40, 0
12, 27060, Note_on_c, 6, 40, 72
12, 27119, Note_on_c, 6, 40, 0
12, 27120, Note_on_c, 6, 41, 72
12, 27149, Note_on_c, 6, 41, 0
12, 27150, Note_on_c, 6, 43, 72
12, 27179, Note_on_c, 6, 43, 0
12, 27180, Note_on_c, 6, 41, 72
12, 27209, Note_on_c, 6, 41, 0
12, 27210, Note_on_c, 6, 40, 72
12, 27239, Note_on_c, 6, 40, 0
12, 27240, Note_on_c, 6, 41, 72
12, 27269, Note_on_c, 6, 41, 0
12, 27270, Note_on_c, 6, 43, 72
12, 27299, Note_on_c, 6, 43, 0
12, 27300, Note_on_c, 6, 40, 72
12, 27329, Note_on_c, 6, 40, 0
12, 27330, Note_on_c, 6, 41, 72
12, 27359, Note_on_c, 6, 41, 0
12, 27360, Note_on_c, 6, 43, 72
12, 27389, Note_on_c, 6, 43, 0
12, 27390, Note_on_c, 6, 45, 72
12, 27419, Note_on_c, 6, 45, 0
12, 27420, Note_on_c, 6, 43, 72
12, 27449, Note_on_c, 6, 43, 0
12, 27450, Note_on_c, 6, 41, 72
12, 27479, Note_on_c, 6, 41, 0
12, 27480, Note_on_c, 6, 43, 72
12, 27509, Note_on_c, 6, 43, 0
12, 27510, Note_on_c, 6, 45, 72
12, 27539, Note_on_c, 6, 45, 0
12, 27540, Note_on_c, 6, 41, 72
12, 27569, Note_on_c, 6, 41, 0
12, 27570, Note_on_c, 6, 43, 72
12, 27599, Note_on_c, 6, 43, 0
12, 27600, Note_on_c, 6, 45, 72
12, 27659, Note_on_c, 6, 45, 0
12, 27660, Note_on_c, 6, 46, 72
12, 27689, Note_on_c, 6, 46, 0
12, 27690, Note_on_c, 6, 45, 72
12, 27719, Note_on_c, 6, 45, 0
12, 27720, Note_on_c, 6, 43, 72
12, 27749, Note_on_c, 6, 43, 0
12, 27750, Note_on_c, 6, 41, 72
12, 27779, Note_on_c, 6, 41, 0
12, 27780, Note_on_c, 6, 40, 72
12, 27809, Note_on_c, 6, 40, 0
12, 27810, Note_on_c, 6, 38, 72
12, 27839, Note_on_c, 6, 38, 0
12, 27840, Note_on_c, 6, 37, 72
12, 27899, Note_on_c, 6, 37, 0
12, 27900, Note_on_c, 6, 40, 72
12, 27959, Note_on_c, 6, 40, 0
12, 27960, Note_on_c, 6, 45, 72
12, 28019, Note_on_c, 6, 45, 0
12, 28020, Note_on_c, 6, 43, 72
12, 28079, Note_on_c, 6, 43, 0
12, 28080, Note_on_c, 6, 41, 72
12, 28109, Note_on_c, 6, 41, 0
12, 28110, Note_on_c, 6, 40, 72
12, 28139, Note_on_c, 6, 40, 0
12, 28140, Note_on_c, 6, 38, 72
12, 28169, Note_on_c, 6, 38, 0
12, 28170, Note_on_c, 6, 36, 72
12, 28199, Note_on_c, 6, 36, 0
12, 28200, Note_on_c, 6, 35, 72
12, 28319, Note_on_c, 6, 35, 0
12, 28320, Note_on_c, 6, 36, 72
12, 28439, Note_on_c, 6, 36, 0
12, 28440, Note_on_c, 6, 38, 72
12, 28559, Note_on_c, 6, 38, 0
12, 28560, Note_on_c, 6, 40, 72
12, 28679, Note_on_c, 6, 40, 0
12, 28740, Note_on_c, 6, 40, 72
12, 28799, Note_on_c, 6, 40, 0
12, 28800, Note_on_c, 6, 45, 72
12, 28949, Note_on_c, 6, 45, 0
12, 28950, Note_on_c, 6, 43, 72
12, 28979, Note_on_c, 6, 43, 0
12, 28980, Note_on_c, 6, 41, 72
12, 29009, Note_on_c, 6, 41, 0
12, 29010, Note_on_c, 6, 40, 72
12, 29039, Note_on_c, 6, 40, 0
12, 29040, Note_on_c, 6, 41, 72
12, 29099, Note_on_c, 6, 41, 0
12, 29100, Note_on_c, 6, 38, 72
12, 29159, Note_on_c, 6, 38, 0
12, 29160, Note_on_c, 6, 43, 72
12, 29279, Note_on_c, 6, 43, 0
12, 29280, Note_on_c, 6, 36, 72
12, 29339, Note_on_c, 6, 36, 0
12, 29340, Note_on_c, 6, 33, 72
12, 29399, Note_on_c, 6, 33, 0
12, 29400, Note_on_c, 6, 41, 72
12, 29519, Note_on_c, 6, 41, 0
12, 29520, Note_on_c, 6, 40, 72
12, 29579, Note_on_c, 6, 40, 0
12, 29820, Note_on_c, 6, 45, 72
12, 29849, Note_on_c, 6, 45, 0
12, 29850, Note_on_c, 6, 43, 72
12, 29879, Note_on_c, 6, 43, 0
12, 29880, Note_on_c, 6, 41, 72
12, 29939, Note_on_c, 6, 41, 0
12, 29940, Note_on_c, 6, 39, 72
12, 29999, Note_on_c, 6, 39, 0
12, 30000, Note_on_c, 6, 38, 72
12, 30059, Note_on_c, 6, 38, 0
12, 30300, Note_on_c, 6, 43, 72
12, 30329, Note_on_c, 6, 43, 0
12, 30330, Note_on_c, 6, 41, 72
12, 30359, Note_on_c, 6, 41, 0
12, 30360, Note_on_c, 6, 40, 72
12, 30419, Note_on_c, 6, 40, 0
12, 30420, Note_on_c, 6, 38, 72
12, 30479, Note_on_c, 6, 38, 0
12, 30480, Note_on_c, 6, 36, 72
12, 30599, Note_on_c, 6, 36, 0
12, 30600, Note_on_c, 6, 38, 72
12, 30659, Note_on_c, 6, 38, 0
12, 30660, Note_on_c, 6, 40, 72
12, 30719, Note_on_c, 6, 40, 0
12, 30720, Note_on_c, 6, 41, 72
12, 30779, Note_on_c, 6, 41, 0
12, 31020, Note_on_c, 6, 36, 72
12, 31049, Note_on_c, 6, 36, 0
12, 31080, Note_on_c, 6, 36, 72
12, 31109, Note_on_c, 6, 36, 0
12, 31140, Note_on_c, 6, 36, 72
12, 31169, Note_on_c, 6, 36, 0
12, 31200, Note_on_c, 6, 38, 72
12, 31229, Note_on_c, 6, 38, 0
12, 31230, Note_on_c, 6, 40, 72
12, 31259, Note_on_c, 6, 40, 0
12, 31260, Note_on_c, 6, 38, 72
12, 31289, Note_on_c, 6, 38, 0
12, 31290, Note_on_c, 6, 36, 72
12, 31319, Note_on_c, 6, 36, 0
12, 31320, Note_on_c, 6, 38, 72
12, 31349, Note_on_c, 6, 38, 0
12, 31350, Note_on_c, 6, 40, 72
12, 31379, Note_on_c, 6, 40, 0
12, 31380, Note_on_c, 6, 36, 72
12, 31409, Note_on_c, 6, 36, 0
12, 31410, Note_on_c, 6, 38, 72
12, 31439, Note_on_c, 6, 38, 0
12, 31440, Note_on_c, 6, 40, 72
12, 31469, Note_on_c, 6, 40, 0
12, 31470, Note_on_c, 6, 41, 72
12, 31499, Note_on_c, 6, 41, 0
12, 31500, Note_on_c, 6, 40, 72
12, 31529, Note_on_c, 6, 40, 0
12, 31530, Note_on_c, 6, 38, 72
12, 31559, Note_on_c, 6, 38, 0
12, 31560, Note_on_c, 6, 40, 72
12, 31589, Note_on_c, 6, 40, 0
12, 31590, Note_on_c, 6, 41, 72
12, 31619, Note_on_c, 6, 41, 0
12, 31620, Note_on_c, 6, 38, 72
12, 31649, Note_on_c, 6, 38, 0
12, 31650, Note_on_c, 6, 40, 72
12, 31679, Note_on_c, 6, 40, 0
12, 31680, Note_on_c, 6, 41, 72
12, 31739, Note_on_c, 6, 41, 0
12, 31740, Note_on_c, 6, 43, 72
12, 31769, Note_on_c, 6, 43, 0
12, 31770, Note_on_c, 6, 41, 72
12, 31799, Note_on_c, 6, 41, 0
12, 31800, Note_on_c, 6, 40, 72
12, 31829, Note_on_c, 6, 40, 0
12, 31830, Note_on_c, 6, 38, 72
12, 31859, Note_on_c, 6, 38, 0
12, 31860, Note_on_c, 6, 36, 72
12, 31889, Note_on_c, 6, 36, 0
12, 31890, Note_on_c, 6, 34, 72
12, 31919, Note_on_c, 6, 34, 0
12, 31920, Note_on_c, 6, 33, 72
12, 31979, Note_on_c, 6, 33, 0
12, 31980, Note_on_c, 6, 36, 72
12, 32039, Note_on_c, 6, 36, 0
12, 32040, Note_on_c, 6, 41, 72
12, 32099, Note_on_c, 6, 41, 0
12, 32100, Note_on_c, 6, 39, 72
12, 32159, Note_on_c, 6, 39, 0
12, 32160, Note_on_c, 6, 38, 72
12, 32219, Note_on_c, 6, 38, 0
12, 32220, Note_on_c, 6, 48, 72
12, 32339, Note_on_c, 6, 48, 0
12, 32340, Note_on_c, 6, 46, 72
12, 32369, Note_on_c, 6, 46, 0
12, 32370, Note_on_c, 6, 45, 72
12, 32399, Note_on_c, 6, 45, 0
12, 32400, Note_on_c, 6, 43, 72
12, 32429, Note_on_c, 6, 43, 0
12, 32430, Note_on_c, 6, 41, 72
12, 32459, Note_on_c, 6, 41, 0
12, 32460, Note_on_c, 6, 39, 72
12, 32489, Note_on_c, 6, 39, 0
12, 32490, Note_on_c, 6, 38, 72
12, 32519, Note_on_c, 6, 38, 0
12, 32520, Note_on_c, 6, 36, 72
12, 32549, Note_on_c, 6, 36, 0
12, 32550, Note_on_c, 6, 38, 72
12, 32579, Note_on_c, 6, 38, 0
12, 32580, Note_on_c, 6, 34, 72
12, 32609, Note_on_c, 6, 34, 0
12, 32610, Note_on_c, 6, 36, 72
12, 32639, Note_on_c, 6, 36, 0
12, 32640, Note_on_c, 6, 38, 72
12, 32819, Note_on_c, 6, 38, 0
12, 32820, Note_on_c, 6, 38, 72
12, 32879, Note_on_c, 6, 38, 0
12, 32880, Note_on_c, 6, 31, 72
12, 32999, Note_on_c, 6, 31, 0
12, 33840, Note_on_c, 6, 43, 72
12, 34019, Note_on_c, 6, 43, 0
12, 34020, Note_on_c, 6, 43, 72
12, 34079, Note_on_c, 6, 43, 0
12, 34080, Note_on_c, 6, 39, 72
12, 34199, Note_on_c, 6, 39, 0
12, 34200, Note_on_c, 6, 44, 72
12, 34319, Note_on_c, 6, 44, 0
12, 34320, Note_on_c, 6, 35, 72
12, 34499, Note_on_c, 6, 35, 0
12, 34500, Note_on_c, 6, 35, 72
12, 34559, Note_on_c, 6, 35, 0
12, 34560, Note_on_c, 6, 36, 72
12, 34679, Note_on_c, 6, 36, 0
12, 34740, Note_on_c, 6, 36, 72
12, 34799, Note_on_c, 6, 36, 0
12, 34800, Note_on_c, 6, 38, 72
12, 34979, Note_on_c, 6, 38, 0
12, 34980, Note_on_c, 6, 36, 72
12, 35009, Note_on_c, 6, 36, 0
12, 35010, Note_on_c, 6, 38, 72
12, 35039, Note_on_c, 6, 38, 0
12, 35040, Note_on_c, 6, 39, 72
12, 35099, Note_on_c, 6, 39, 0
12, 35100, Note_on_c, 6, 38, 72
12, 35129, Note_on_c, 6, 38, 0
12, 35130, Note_on_c, 6, 39, 72
12, 35159, Note_on_c, 6, 39, 0
12, 35160, Note_on_c, 6, 41, 72
12, 35219, Note_on_c, 6, 41, 0
12, 35220, Note_on_c, 6, 39, 72
12, 35249, Note_on_c, 6, 39, 0
12, 35250, Note_on_c, 6, 41, 72
12, 35279, Note_on_c, 6, 41, 0
12, 35280, Note_on_c, 6, 43, 72
12, 35339, Note_on_c, 6, 43, 0
12, 35340, Note_on_c, 6, 41, 72
12, 35399, Note_on_c, 6, 41, 0
12, 35400, Note_on_c, 6, 39, 72
12, 35459, Note_on_c, 6, 39, 0
12, 35460, Note_on_c, 6, 38, 72
12, 35519, Note_on_c, 6, 38, 0
12, 35520, Note_on_c, 6, 36, 72
12, 35579, Note_on_c, 6, 36, 0
12, 35580, Note_on_c, 6, 38, 72
12, 35609, Note_on_c, 6, 38, 0
12, 35610, Note_on_c, 6, 39, 72
12, 35639, Note_on_c, 6, 39, 0
12, 35640, Note_on_c, 6, 41, 72
12, 35819, Note_on_c, 6, 41, 0
12, 35820, Note_on_c, 6, 39, 72
12, 35879, Note_on_c, 6, 39, 0
12, 35880, Note_on_c, 6, 38, 72
12, 35939, Note_on_c, 6, 38, 0
12, 35940, Note_on_c, 6, 36, 72
12, 35999, Note_on_c, 6, 36, 0
12, 36000, Note_on_c, 6, 34, 72
12, 36059, Note_on_c, 6, 34, 0
12, 36060, Note_on_c, 6, 43, 72
12, 36089, Note_on_c, 6, 43, 0
12, 36090, Note_on_c, 6, 41, 72
12, 36119, Note_on_c, 6, 41, 0
12, 36120, Note_on_c, 6, 39, 72
12, 36149, Note_on_c, 6, 39, 0
12, 36150, Note_on_c, 6, 36, 72
12, 36179, Note_on_c, 6, 36, 0
12, 36180, Note_on_c, 6, 38, 72
12, 36209, Note_on_c, 6, 38, 0
12, 36210, Note_on_c, 6, 39, 72
12, 36239, Note_on_c, 6, 39, 0
12, 36240, Note_on_c, 6, 41, 72
12, 36299, Note_on_c, 6, 41, 0
12, 36720, Note_on_c, 6, 41, 72
12, 36899, Note_on_c, 6, 41, 0
12, 36900, Note_on_c, 6, 41, 72
12, 36959, Note_on_c, 6, 41, 0
12, 36960, Note_on_c, 6, 38, 72
12, 37079, Note_on_c, 6, 38, 0
12, 37080, Note_on_c, 6, 43, 72
12, 37199, Note_on_c, 6, 43, 0
12, 37200, Note_on_c, 6, 33, 72
12, 37379, Note_on_c, 6, 33, 0
12, 37380, Note_on_c, 6, 33, 72
12, 37439, Note_on_c, 6, 33, 0
12, 37440, Note_on_c, 6, 34, 72
12, 37559, Note_on_c, 6, 34, 0
12, 37620, Note_on_c, 6, 34, 72
12, 37679, Note_on_c, 6, 34, 0
12, 37680, Note_on_c, 6, 36, 72
12, 37859, Note_on_c, 6, 36, 0
12, 37860, Note_on_c, 6, 34, 72
12, 37889, Note_on_c, 6, 34, 0
12, 37890, Note_on_c, 6, 36, 72
12, 37919, Note_on_c, 6, 36, 0
12, 37920, Note_on_c, 6, 38, 72
12, 37979, Note_on_c, 6, 38, 0
12, 37980, Note_on_c, 6, 46, 72
12, 38009, Note_on_c, 6, 46, 0
12, 38010, Note_on_c, 6, 45, 72
12, 38039, Note_on_c, 6, 45, 0
12, 38040, Note_on_c, 6, 43, 72
12, 38099, Note_on_c, 6, 43, 0
12, 38100, Note_on_c, 6, 41, 72
12, 38159, Note_on_c, 6, 41, 0
12, 38160, Note_on_c, 6, 40, 72
12, 38219, Note_on_c, 6, 40, 0
12, 38220, Note_on_c, 6, 43, 72
12, 38279, Note_on_c, 6, 43, 0
12, 38280, Note_on_c, 6, 36, 72
12, 38399, Note_on_c, 6, 36, 0
12, 38700, Note_on_c, 6, 36, 72
12, 38759, Note_on_c, 6, 36, 0
12, 38760, Note_on_c, 6, 36, 72
12, 38819, Note_on_c, 6, 36, 0
12, 38820, Note_on_c, 6, 36, 72
12, 38879, Note_on_c, 6, 36, 0
12, 38880, Note_on_c, 6, 37, 72
12, 38909, Note_on_c, 6, 37, 0
12, 38910, Note_on_c, 6, 39, 72
12, 38939, Note_on_c, 6, 39, 0
12, 38940, Note_on_c, 6, 37, 72
12, 38969, Note_on_c, 6, 37, 0
12, 38970, Note_on_c, 6, 36, 72
12, 38999, Note_on_c, 6, 36, 0
12, 39000, Note_on_c, 6, 38, 72
12, 39029, Note_on_c, 6, 38, 0
12, 39030, Note_on_c, 6, 39, 72
12, 39059, Note_on_c, 6, 39, 0
12, 39060, Note_on_c, 6, 36, 72
12, 39089, Note_on_c, 6, 36, 0
12, 39090, Note_on_c, 6, 38, 72
12, 39119, Note_on_c, 6, 38, 0
12, 39120, Note_on_c, 6, 39, 72
12, 39149, Note_on_c, 6, 39, 0
12, 39150, Note_on_c, 6, 41, 72
12, 39179, Note_on_c, 6, 41, 0
12, 39180, Note_on_c, 6, 39, 72
12, 39209, Note_on_c, 6, 39, 0
12, 39210, Note_on_c, 6, 38, 72
12, 39239, Note_on_c, 6, 38, 0
12, 39240, Note_on_c, 6, 40, 72
12, 39269, Note_on_c, 6, 40, 0
12, 39270, Note_on_c, 6, 41, 72
12, 39299, Note_on_c, 6, 41, 0
12, 39300, Note_on_c, 6, 38, 72
12, 39329, Note_on_c, 6, 38, 0
12, 39330, Note_on_c, 6, 40, 72
12, 39359, Note_on_c, 6, 40, 0
12, 39360, Note_on_c, 6, 41, 72
12, 39419, Note_on_c, 6, 41, 0
12, 39420, Note_on_c, 6, 36, 72
12, 39479, Note_on_c, 6, 36, 0
12, 39480, Note_on_c, 6, 41, 72
12, 39539, Note_on_c, 6, 41, 0
12, 39540, Note_on_c, 6, 39, 72
12, 39599, Note_on_c, 6, 39, 0
12, 39600, Note_on_c, 6, 38, 72
12, 39659, Note_on_c, 6, 38, 0
12, 39660, Note_on_c, 6, 31, 72
12, 39719, Note_on_c, 6, 31, 0
12, 39720, Note_on_c, 6, 43, 72
12, 39779, Note_on_c, 6, 43, 0
12, 39780, Note_on_c, 6, 41, 72
12, 39839, Note_on_c, 6, 41, 0
12, 39840, Note_on_c, 6, 39, 72
12, 39899, Note_on_c, 6, 39, 0
12, 40620, Note_on_c, 6, 40, 72
12, 40679, Note_on_c, 6, 40, 0
12, 40680, Note_on_c, 6, 40, 72
12, 40739, Note_on_c, 6, 40, 0
12, 40740, Note_on_c, 6, 40, 72
12, 40799, Note_on_c, 6, 40, 0
12, 40800, Note_on_c, 6, 41, 72
12, 40829, Note_on_c, 6, 41, 0
12, 40830, Note_on_c, 6, 43, 72
12, 40859, Note_on_c, 6, 43, 0
12, 40860, Note_on_c, 6, 41, 72
12, 40889, Note_on_c, 6, 41, 0
12, 40890, Note_on_c, 6, 40, 72
12, 40919, Note_on_c, 6, 40, 0
12, 40920, Note_on_c, 6, 42, 72
12, 40949, Note_on_c, 6, 42, 0
12, 40950, Note_on_c, 6, 43, 72
12, 40979, Note_on_c, 6, 43, 0
12, 40980, Note_on_c, 6, 40, 72
12, 41009, Note_on_c, 6, 40, 0
12, 41010, Note_on_c, 6, 42, 72
12, 41039, Note_on_c, 6, 42, 0
12, 41040, Note_on_c, 6, 43, 72
12, 41069, Note_on_c, 6, 43, 0
12, 41070, Note_on_c, 6, 45, 72
12, 41099, Note_on_c, 6, 45, 0
12, 41100, Note_on_c, 6, 43, 72
12, 41129, Note_on_c, 6, 43, 0
12, 41130, Note_on_c, 6, 42, 72
12, 41159, Note_on_c, 6, 42, 0
12, 41160, Note_on_c, 6, 44, 72
12, 41189, Note_on_c, 6, 44, 0
12, 41190, Note_on_c, 6, 45, 72
12, 41219, Note_on_c, 6, 45, 0
12, 41220, Note_on_c, 6, 42, 72
12, 41249, Note_on_c, 6, 42, 0
12, 41250, Note_on_c, 6, 43, 72
12, 41279, Note_on_c, 6, 43, 0
12, 41280, Note_on_c, 6, 45, 72
12, 41459, Note_on_c, 6, 45, 0
12, 41460, Note_on_c, 6, 45, 72
12, 41519, Note_on_c, 6, 45, 0
12, 41520, Note_on_c, 6, 41, 72
12, 41639, Note_on_c, 6, 41, 0
12, 41640, Note_on_c, 6, 46, 72
12, 41759, Note_on_c, 6, 46, 0
12, 41760, Note_on_c, 6, 37, 72
12, 41939, Note_on_c, 6, 37, 0
12, 41940, Note_on_c, 6, 37, 72
12, 41999, Note_on_c, 6, 37, 0
12, 42000, Note_on_c, 6, 38, 72
12, 42119, Note_on_c, 6, 38, 0
12, 42180, Note_on_c, 6, 38, 72
12, 42239, Note_on_c, 6, 38, 0
12, 42240, Note_on_c, 6, 40, 72
12, 42419, Note_on_c, 6, 40, 0
12, 42420, Note_on_c, 6, 38, 72
12, 42449, Note_on_c, 6, 38, 0
12, 42450, Note_on_c, 6, 40, 72
12, 42479, Note_on_c, 6, 40, 0
12, 42480, Note_on_c, 6, 41, 72
12, 42539, Note_on_c, 6, 41, 0
12, 42540, Note_on_c, 6, 40, 72
12, 42569, Note_on_c, 6, 40, 0
12, 42570, Note_on_c, 6, 41, 72
12, 42599, Note_on_c, 6, 41, 0
12, 42600, Note_on_c, 6, 43, 72
12, 42659, Note_on_c, 6, 43, 0
12, 42660, Note_on_c, 6, 41, 72
12, 42689, Note_on_c, 6, 41, 0
12, 42690, Note_on_c, 6, 43, 72
12, 42719, Note_on_c, 6, 43, 0
12, 42720, Note_on_c, 6, 45, 72
12, 42779, Note_on_c, 6, 45, 0
12, 42780, Note_on_c, 6, 46, 72
12, 42809, Note_on_c, 6, 46, 0
12, 42810, Note_on_c, 6, 45, 72
12, 42839, Note_on_c, 6, 45, 0
12, 42840, Note_on_c, 6, 43, 72
12, 42869, Note_on_c, 6, 43, 0
12, 42870, Note_on_c, 6, 41, 72
12, 42899, Note_on_c, 6, 41, 0
12, 42900, Note_on_c, 6, 40, 72
12, 42929, Note_on_c, 6, 40, 0
12, 42930, Note_on_c, 6, 38, 72
12, 42959, Note_on_c, 6, 38, 0
12, 42960, Note_on_c, 6, 37, 72
12, 43079, Note_on_c, 6, 37, 0
12, 43080, Note_on_c, 6, 38, 72
12, 43139, Note_on_c, 6, 38, 0
12, 43140, Note_on_c, 6, 45, 72
12, 43199, Note_on_c, 6, 45, 0
12, 43200, Note_on_c, 6, 46, 72
12, 43319, Note_on_c, 6, 46, 0
12, 43320, Note_on_c, 6, 34, 72
12, 43439, Note_on_c, 6, 34, 0
12, 43440, Note_on_c, 6, 33, 72
12, 43499, Note_on_c, 6, 33, 0
12, 43980, Note_on_c, 6, 33, 72
12, 44039, Note_on_c, 6, 33, 0
12, 44040, Note_on_c, 6, 33, 72
12, 44099, Note_on_c, 6, 33, 0
12, 44100, Note_on_c, 6, 33, 72
12, 44159, Note_on_c, 6, 33, 0
12, 44160, Note_on_c, 6, 34, 72
12, 44189, Note_on_c, 6, 34, 0
12, 44190, Note_on_c, 6, 36, 72
12, 44219, Note_on_c, 6, 36, 0
12, 44220, Note_on_c, 6, 34, 72
12, 44249, Note_on_c, 6, 34, 0
12, 44250, Note_on_c, 6, 33, 72
12, 44279, Note_on_c, 6, 33, 0
12, 44280, Note_on_c, 6, 35, 72
12, 44309, Note_on_c, 6, 35, 0
12, 44310, Note_on_c, 6, 36, 72
12, 44339, Note_on_c, 6, 36, 0
12, 44340, Note_on_c, 6, 33, 72
12, 44369, Note_on_c, 6, 33, 0
12, 44370, Note_on_c, 6, 35, 72
12, 44399, Note_on_c, 6, 35, 0
12, 44400, Note_on_c, 6, 36, 72
12, 44429, Note_on_c, 6, 36, 0
12, 44430, Note_on_c, 6, 38, 72
12, 44459, Note_on_c, 6, 38, 0
12, 44460, Note_on_c, 6, 36, 72
12, 44489, Note_on_c, 6, 36, 0
12, 44490, Note_on_c, 6, 35, 72
12, 44519, Note_on_c, 6, 35, 0
12, 44520, Note_on_c, 6, 37, 72
12, 44549, Note_on_c, 6, 37, 0
12, 44550, Note_on_c, 6, 38, 72
12, 44579, Note_on_c, 6, 38, 0
12, 44580, Note_on_c, 6, 35, 72
12, 44609, Note_on_c, 6, 35, 0
12, 44610, Note_on_c, 6, 37, 72
12, 44639, Note_on_c, 6, 37, 0
12, 44640, Note_on_c, 6, 38, 72
12, 44699, Note_on_c, 6, 38, 0
12, 44700, Note_on_c, 6, 38, 72
12, 44759, Note_on_c, 6, 38, 0
12, 44760, Note_on_c, 6, 43, 72
12, 44819, Note_on_c, 6, 43, 0
12, 44820, Note_on_c, 6, 41, 72
12, 44879, Note_on_c, 6, 41, 0
12, 44880, Note_on_c, 6, 40, 72
12, 44939, Note_on_c, 6, 40, 0
12, 44940, Note_on_c, 6, 40, 72
12, 44999, Note_on_c, 6, 40, 0
12, 45000, Note_on_c, 6, 45, 72
12, 45059, Note_on_c, 6, 45, 0
12, 45060, Note_on_c, 6, 43, 72
12, 45119, Note_on_c, 6, 43, 0
12, 45120, Note_on_c, 6, 41, 72
12, 45179, Note_on_c, 6, 41, 0
12, 45540, Note_on_c, 6, 40, 72
12, 45599, Note_on_c, 6, 40, 0
12, 45600, Note_on_c, 6, 45, 72
12, 45659, Note_on_c, 6, 45, 0
12, 45660, Note_on_c, 6, 33, 72
12, 45719, Note_on_c, 6, 33, 0
12, 45720, Note_on_c, 6, 38, 72
12, 45779, Note_on_c, 6, 38, 0
12, 45780, Note_on_c, 6, 36, 72
12, 45839, Note_on_c, 6, 36, 0
12, 45840, Note_on_c, 6, 35, 72
12, 45899, Note_on_c, 6, 35, 0
12, 45900, Note_on_c, 6, 35, 72
12, 45959, Note_on_c, 6, 35, 0
12, 45960, Note_on_c, 6, 40, 72
12, 46019, Note_on_c, 6, 40, 0
12, 46020, Note_on_c, 6, 38, 72
12, 46079, Note_on_c, 6, 38, 0
12, 46080, Note_on_c, 6, 37, 72
12, 46139, Note_on_c, 6, 37, 0
12, 46140, Note_on_c, 6, 45, 72
12, 46199, Note_on_c, 6, 45, 0
12, 46200, Note_on_c, 6, 46, 72
12, 46259, Note_on_c, 6, 46, 0
12, 46260, Note_on_c, 6, 43, 72
12, 46319, Note_on_c, 6, 43, 0
12, 46320, Note_on_c, 6, 45, 72
12, 46439, Note_on_c, 6, 45, 0
12, 46440, Note_on_c, 6, 33, 72
12, 46559, Note_on_c, 6, 33, 0
12, 46560, Note_on_c, 6, 32, 72
12, 46799, Note_on_c, 6, 32, 0
12, 46920, Note_on_c, 6, 44, 72
12, 47039, Note_on_c, 6, 44, 0
12, 47040, Note_on_c, 6, 45, 72
12, 47159, Note_on_c, 6, 45, 0
12, 47160, Note_on_c, 6, 41, 72
12, 47219, Note_on_c, 6, 41, 0
12, 47220, Note_on_c, 6, 38, 72
12, 47279, Note_on_c, 6, 38, 0
12, 47280, Note_on_c, 6, 33, 72
12, 47399, Note_on_c, 6, 33, 0
12, 47400, Note_on_c, 6, 33, 72
12, 47519, Note_on_c, 6, 33, 0
12, 47520, Note_on_c, 6, 38, 72
12, 47999, Note_on_c, 6, 38, 0
12, 47999, End_track
13, 0, Start_track
13, 0, Title_t, "Trumpet in D"
13, 0, Program_c, 7, 56
13, 0, Control_c, 7, 7, 96
13, 0, Control_c, 7, 10, 64
13, 0, Control_c, 7, 11, 127
13, 3240, Note_on_c, 7, 69, 76
13, 3240, Note_on_c, 7, 57, 76
13, 3299, Note_on_c, 7, 57, 0
13, 3299, Note_on_c, 7, 69, 0
13, 3300, Note_on_c, 7, 69, 76
13, 3300, Note_on_c, 7, 57, 76
13, 3359, Note_on_c, 7, 57, 0
13, 3359, Note_on_c, 7, 69, 0
13, 3360, Note_on_c, 7, 69, 76
13, 3360, Note_on_c, 7, 62, 76
13, 3479, Note_on_c, 7, 62, 0
13, 3479, Note_on_c, 7, 69, 0
13, 20220, Note_on_c, 7, 74, 76
13, 20220, Note_on_c, 7, 62, 76
13, 20279, Note_on_c, 7, 62, 0
13, 20279, Note_on_c, 7, 74, 0
13, 20280, Note_on_c, 7, 62, 76
13, 20280, Note_on_c, 7, 74, 76
13, 20339, Note_on_c, 7, 74, 0
13, 20339, Note_on_c, 7, 62, 0
13, 20340, Note_on_c, 7, 74, 76
13, 20340, Note_on_c, 7, 62, 76
13, 20399, Note_on_c, 7, 62, 0
13, 20399, Note_on_c, 7, 74, 0
13, 20400, Note_on_c, 7, 74, 76
13, 20400, Note_on_c, 7, 62, 76
13, 20519, Note_on_c, 7, 62, 0
13, 20519, Note_on_c, 7, 74, 0
13, 20700, Note_on_c, 7, 57, 76
13, 20700, Note_on_c, 7, 69, 76
13, 20759, Note_on_c, 7, 69, 0
13, 20759, Note_on_c, 7, 57, 0
13, 20760, Note_on_c, 7, 57, 76
13, 20760, Note_on_c, 7, 69, 76
13, 20819, Note_on_c, 7, 69, 0
13, 20819, Note_on_c, 7, 57, 0
13, 20820, Note_on_c, 7, 57, 76
13, 20820, Note_on_c, 7, 69, 76
13, 20879, Note_on_c, 7, 69, 0
13, 20879, Note_on_c, 7, 57, 0
13, 20880, Note_on_c, 7, 69, 76
13, 20880, Note_on_c, 7, 57, 76
13, 20999, Note_on_c, 7, 57, 0
13, 20999, Note_on_c, 7, 69, 0
13, 21120, Note_on_c, 7, 62, 76
13, 21120, Note_on_c, 7, 74, 76
13, 21239, Note_on_c, 7, 74, 0
13, 21239, Note_on_c, 7, 62, 0
13, 21240, Note_on_c, 7, 74, 76
13, 21240, Note_on_c, 7, 62, 76
13, 21329, Note_on_c, 7, 62, 0
13, 21329, Note_on_c, 7, 74, 0
13, 21330, Note_on_c, 7, 74, 76
13, 21330, Note_on_c, 7, 62, 76
13, 21359, Note_on_c, 7, 62, 0
13, 21359, Note_on_c, 7, 74, 0
13, 21360, Note_on_c, 7, 74, 76
13, 21360, Note_on_c, 7, 62, 76
13, 21479, Note_on_c, 7, 62, 0
13, 21479, Note_on_c, 7, 74, 0
13, 21540, Note_on_c, 7, 74, 76
13, 21540, Note_on_c, 7, 62, 76
13, 21599, Note_on_c, 7, 62, 0
13, 21599, Note_on_c, 7, 74, 0
13, 21600, Note_on_c, 7, 69, 76
13, 21600, Note_on_c, 7, 57, 76
13, 21659, Note_on_c, 7, 57, 0
13, 21659, Note_on_c, 7, 69, 0
13, 21660, Note_on_c, 7, 69, 76
13, 21660, Note_on_c, 7, 57, 76
13, 21719, Note_on_c, 7, 57, 0
13, 21719, Note_on_c, 7, 69, 0
13, 22560, Note_on_c, 7, 69, 48
13, 22560, Note_on_c, 7, 57, 48
13, 22799, Note_on_c, 7, 57, 0
13, 22799, Note_on_c, 7, 69, 0
13, 22800, Note_on_c, 7, 69, 48
13, 22800, Note_on_c, 7, 57, 48
13, 23039, Note_on_c, 7, 57, 0
13, 23039, Note_on_c, 7, 69, 0
13, 26400, Note_on_c, 7, 69, 76
13, 26400, Note_on_c, 7, 57, 76
13, 26519, Note_on_c, 7, 57, 0
13, 26519, Note_on_c, 7, 69, 0
13, 26520, Note_on_c, 7, 69, 76
13, 26520, Note_on_c, 7, 57, 76
13, 26579, Note_on_c, 7, 57, 0
13, 26579, Note_on_c, 7, 69, 0
13, 26580, Note_on_c, 7, 69, 76
13, 26580, Note_on_c, 7, 57, 76
13, 26639, Note_on_c, 7, 57, 0
13, 26639, Note_on_c, 7, 69, 0
13, 26640, Note_on_c, 7, 69, 76
13, 26640, Note_on_c, 7, 62, 76
13, 26759, Note_on_c, 7, 62, 0
13, 26759, Note_on_c, 7, 69, 0
13, 27900, Note_on_c, 7, 69, 76
13, 27900, Note_on_c, 7, 57, 76
13, 27959, Note_on_c, 7, 57, 0
13, 27959, Note_on_c, 7, 69, 0
13, 27960, Note_on_c, 7, 69, 76
13, 27960, Note_on_c, 7, 57, 76
13, 28019, Note_on_c, 7, 57, 0
13, 28019, Note_on_c, 7, 69, 0
13, 28020, Note_on_c, 7, 69, 76
13, 28020, Note_on_c, 7, 57, 76
13, 28079, Note_on_c, 7, 57, 0
13, 28079, Note_on_c, 7, 69, 0
13, 28080, Note_on_c, 7, 69, 76
13, 28080, Note_on_c, 7, 62, 76
13, 28199, Note_on_c, 7, 62, 0
13, 28199, Note_on_c, 7, 69, 0
13, 32160, Note_on_c, 7, 62, 76
13, 32279, Note_on_c, 7, 62, 0
13, 32280, Note_on_c, 7, 62, 76
13, 32339, Note_on_c, 7, 62, 0
13, 32340, Note_on_c, 7, 62, 76
13, 32399, Note_on_c, 7, 62, 0
13, 32400, Note_on_c, 7, 62, 76
13, 32519, Note_on_c, 7, 62, 0
13, 40800, Note_on_c, 7, 74, 76
13, 40800, Note_on_c, 7, 62, 76
13, 40919, Note_on_c, 7, 62, 0
13, 40919, Note_on_c, 7, 74, 0
13, 40920, Note_on_c, 7, 74, 76
13, 40920, Note_on_c, 7, 62, 76
13, 41039, Note_on_c, 7, 62, 0
13, 41039, Note_on_c, 7, 74, 0
13, 41040, Note_on_c, 7, 74, 76
13, 41040, Note_on_c, 7, 62, 76
13, 41159, Note_on_c, 7, 62, 0
13, 41159, Note_on_c, 7, 74, 0
13, 41340, Note_on_c, 7, 69, 76
13, 41340, Note_on_c, 7, 57, 76
13, 41399, Note_on_c, 7, 57, 0
13, 41399, Note_on_c, 7, 69, 0
13, 41400, Note_on_c, 7, 69, 76
13, 41400, Note_on_c, 7, 57, 76
13, 41459, Note_on_c, 7, 57, 0
13, 41459, Note_on_c, 7, 69, 0
13, 41460, Note_on_c, 7, 69, 76
13, 41460, Note_on_c, 7, 57, 76
13, 41519, Note_on_c, 7, 57, 0
13, 41519, Note_on_c, 7, 69, 0
13, 41520, Note_on_c, 7, 69, 76
13, 41520, Note_on_c, 7, 62, 76
13, 41639, Note_on_c, 7, 62, 0
13, 41639, Note_on_c, 7, 69, 0
13, 41640, Note_on_c, 7, 74, 76
13, 41640, Note_on_c, 7, 62, 76
13, 41759, Note_on_c, 7, 62, 0
13, 41759, Note_on_c, 7, 74, 0
13, 41760, Note_on_c, 7, 69, 76
13, 41760, Note_on_c, 7, 57, 76
13, 41879, Note_on_c, 7, 57, 0
13, 41879, Note_on_c, 7, 69, 0
13, 43020, Note_on_c, 7, 69, 76
13, 43020, Note_on_c, 7, 57, 76
13, 43079, Note_on_c, 7, 57, 0
13, 43079, Note_on_c, 7, 69, 0
13, 43080, Note_on_c, 7, 69, 76
13, 43080, Note_on_c, 7, 57, 76
13, 43139, Note_on_c, 7, 57, 0
13, 43139, Note_on_c, 7, 69, 0
13, 43140, Note_on_c, 7, 69, 76
13, 43140, Note_on_c, 7, 57, 76
13, 43199, Note_on_c, 7, 57, 0
13, 43199, Note_on_c, 7, 69, 0
13, 43200, Note_on_c, 7, 74, 76
13, 43200, Note_on_c, 7, 62, 76
13, 43439, Note_on_c, 7, 62, 0
13, 43439, Note_on_c, 7, 74, 0
13, 43440, Note_on_c, 7, 69, 76
13, 43440, Note_on_c, 7, 57, 76
13, 43559, Note_on_c, 7, 57, 0
13, 43559, Note_on_c, 7, 69, 0
13, 46080, Note_on_c, 7, 69, 76
13, 46080, Note_on_c, 7, 57, 76
13, 46199, Note_on_c, 7, 57, 0
13, 46199, Note_on_c, 7, 69, 0
13, 46200, Note_on_c, 7, 62, 76
13, 46259, Note_on_c, 7, 62, 0
13, 46260, Note_on_c, 7, 62, 76
13, 46319, Note_on_c, 7, 62, 0
13, 46320, Note_on_c, 7, 69, 76
13, 46320, Note_on_c, 7, 57, 76
13, 46379, Note_on_c, 7, 57, 0
13, 46379, Note_on_c, 7, 69, 0
13, 46380, Note_on_c, 7, 69, 76
13, 46380, Note_on_c, 7, 57, 76
13, 46409, Note_on_c, 7, 57, 0
13, 46409, Note_on_c, 7, 69, 0
13, 46410, Note_on_c, 7, 69, 76
13, 46410, Note_on_c, 7, 57, 76
13, 46439, Note_on_c, 7, 57, 0
13, 46439, Note_on_c, 7, 69, 0
13, 46440, Note_on_c, 7, 69, 76
13, 46440, Note_on_c, 7, 57, 76
13, 46499, Note_on_c, 7, 57, 0
13, 46499, Note_on_c, 7, 69, 0
13, 46500, Note_on_c, 7, 69, 76
13, 46500, Note_on_c, 7, 57, 76
13, 46559, Note_on_c, 7, 57, 0
13, 46559, Note_on_c, 7, 69, 0
13, 46560, Note_on_c, 7, 74, 76
13, 46560, Note_on_c, 7, 62, 76
13, 46799, Note_on_c, 7, 62, 0
13, 46799, Note_on_c, 7, 74, 0
13, 47040, Note_on_c, 7, 69, 76
13, 47040, Note_on_c, 7, 57, 76
13, 47159, Note_on_c, 7, 57, 0
13, 47159, Note_on_c, 7, 69, 0
13, 47160, Note_on_c, 7, 69, 76
13, 47160, Note_on_c, 7, 62, 76
13, 47219, Note_on_c, 7, 62, 0
13, 47219, Note_on_c, 7, 69, 0
13, 47220, Note_on_c, 7, 69, 76
13, 47220, Note_on_c, 7, 62, 76
13, 47279, Note_on_c, 7, 62, 0
13, 47279, Note_on_c, 7, 69, 0
13, 47280, Note_on_c, 7, 69, 76
13, 47280, Note_on_c, 7, 57, 76
13, 47399, Note_on_c, 7, 57, 0
13, 47399, Note_on_c, 7, 69, 0
13, 47400, Note_on_c, 7, 69, 76
13, 47400, Note_on_c, 7, 57, 76
13, 47459, Note_on_c, 7, 57, 0
13, 47459, Note_on_c, 7, 69, 0
13, 47460, Note_on_c, 7, 69, 76
13, 47460, Note_on_c, 7, 57, 76
13, 47519, Note_on_c, 7, 57, 0
13, 47519, Note_on_c, 7, 69, 0
13, 47520, Note_on_c, 7, 69, 76
13, 47520, Note_on_c, 7, 62, 76
13, 47999, Note_on_c, 7, 62, 0
13, 47999, Note_on_c, 7, 69, 0
13, 47999, End_track
14, 0, Start_track
14, 0, Title_t, "Timpani"
14, 0, Program_c, 8, 47
14, 0, Control_c, 8, 7, 112
14, 0, Control_c, 8, 10, 24
14, 0, Control_c, 8, 11, 127
14, 3240, Note_on_c, 8, 45, 72
14, 3299, Note_on_c, 8, 45, 0
14, 3300, Note_on_c, 8, 45, 72
14, 3359, Note_on_c, 8, 45, 0
14, 3360, Note_on_c, 8, 50, 72
14, 3479, Note_on_c, 8, 50, 0
14, 20220, Note_on_c, 8, 50, 72
14, 20279, Note_on_c, 8, 50, 0
14, 20280, Note_on_c, 8, 50, 72
14, 20339, Note_on_c, 8, 50, 0
14, 20340, Note_on_c, 8, 50, 72
14, 20399, Note_on_c, 8, 50, 0
14, 20400, Note_on_c, 8, 50, 72
14, 20519, Note_on_c, 8, 50, 0
14, 20700, Note_on_c, 8, 50, 72
14, 20759, Note_on_c, 8, 50, 0
14, 20760, Note_on_c, 8, 50, 72
14, 20819, Note_on_c, 8, 50, 0
14, 20820, Note_on_c, 8, 50, 72
14, 20879, Note_on_c, 8, 50, 0
14, 20880, Note_on_c, 8, 50, 72
14, 20999, Note_on_c, 8, 50, 0
14, 21120, Note_on_c, 8, 50, 72
14, 21239, Note_on_c, 8, 50, 0
14, 21240, Note_on_c, 8, 50, 72
14, 21329, Note_on_c, 8, 50, 0
14, 21330, Note_on_c, 8, 50, 72
14, 21359, Note_on_c, 8, 50, 0
14, 21360, Note_on_c, 8, 50, 72
14, 21479, Note_on_c, 8, 50, 0
14, 21540, Note_on_c, 8, 50, 72
14, 21599, Note_on_c, 8, 50, 0
14, 21600, Note_on_c, 8, 45, 72
14, 21659, Note_on_c, 8, 45, 0
14, 21660, Note_on_c, 8, 45, 72
14, 21719, Note_on_c, 8, 45, 0
14, 22080, Note_on_c, 8, 45, 48
14, 22139, Note_on_c, 8, 45, 0
14, 22140, Note_on_c, 8, 45, 48
14, 22169, Note_on_c, 8, 45, 0
14, 22170, Note_on_c, 8, 45, 48
14, 22199, Note_on_c, 8, 45, 0
14, 22200, Note_on_c, 8, 45, 48
14, 22259, Note_on_c, 8, 45, 0
14, 22260, Note_on_c, 8, 45, 48
14, 22319, Note_on_c, 8, 45, 0
14, 22320, Note_on_c, 8, 45, 48
14, 22559, Note_on_c, 8, 45, 0
14, 26400, Note_on_c, 8, 45, 72
14, 26459, Note_on_c, 8, 45, 0
14, 26460, Note_on_c, 8, 45, 72
14, 26489, Note_on_c, 8, 45, 0
14, 26490, Note_on_c, 8, 45, 72
14, 26519, Note_on_c, 8, 45, 0
14, 26520, Note_on_c, 8, 45, 72
14, 26579, Note_on_c, 8, 45, 0
14, 26580, Note_on_c, 8, 45, 72
14, 26639, Note_on_c, 8, 45, 0
14, 26640, Note_on_c, 8, 50, 72
14, 26759, Note_on_c, 8, 50, 0
14, 27900, Note_on_c, 8, 45, 72
14, 27959, Note_on_c, 8, 45, 0
14, 27960, Note_on_c, 8, 45, 72
14, 28019, Note_on_c, 8, 45, 0
14, 28020, Note_on_c, 8, 45, 72
14, 28079, Note_on_c, 8, 45, 0
14, 28080, Note_on_c, 8, 50, 72
14, 28199, Note_on_c, 8, 50, 0
14, 32160, Note_on_c, 8, 50, 72
14, 32279, Note_on_c, 8, 50, 0
14, 40800, Note_on_c, 8, 50, 72
14, 40859, Note_on_c, 8, 50, 0
14, 40860, Note_on_c, 8, 50, 72
14, 40889, Note_on_c, 8, 50, 0
14, 40890, Note_on_c, 8, 50, 72
14, 40919, Note_on_c, 8, 50, 0
14, 40920, Note_on_c, 8, 50, 72
14, 40979, Note_on_c, 8, 50, 0
14, 40980, Note_on_c, 8, 50, 72
14, 41009, Note_on_c, 8, 50, 0
14, 41010, Note_on_c, 8, 50, 72
14, 41039, Note_on_c, 8, 50, 0
14, 41040, Note_on_c, 8, 50, 72
14, 41159, Note_on_c, 8, 50, 0
14, 41340, Note_on_c, 8, 45, 72
14, 41399, Note_on_c, 8, 45, 0
14, 41400, Note_on_c, 8, 45, 72
14, 41459, Note_on_c, 8, 45, 0
14, 41460, Note_on_c, 8, 45, 72
14, 41519, Note_on_c, 8, 45, 0
14, 41520, Note_on_c, 8, 50, 72
14, 41639, Note_on_c, 8, 50, 0
14, 41640, Note_on_c, 8, 50, 72
14, 41759, Note_on_c, 8, 50, 0
14, 41760, Note_on_c, 8, 45, 72
14, 41879, Note_on_c, 8, 45, 0
14, 43020, Note_on_c, 8, 45, 72
14, 43079, Note_on_c, 8, 45, 0
14, 43080, Note_on_c, 8, 50, 72
14, 43139, Note_on_c, 8, 50, 0
14, 43140, Note_on_c, 8, 45, 72
14, 43199, Note_on_c, 8, 45, 0
14, 43200, Note_on_c, 8, 50, 72
14, 43259, Note_on_c, 8, 50, 0
14, 43260, Note_on_c, 8, 50, 72
14, 43289, Note_on_c, 8, 50, 0
14, 43290, Note_on_c, 8, 50, 72
14, 43319, Note_on_c, 8, 50, 0
14, 43320, Note_on_c, 8, 50, 72
14, 43379, Note_on_c, 8, 50, 0
14, 43380, Note_on_c, 8, 50, 72
14, 43439, Note_on_c, 8, 50, 0
14, 43440, Note_on_c, 8, 45, 72
14, 43559, Note_on_c, 8, 45, 0
14, 46080, Note_on_c, 8, 45, 72
14, 46199, Note_on_c, 8, 45, 0
14, 46200, Note_on_c, 8, 50, 72
14, 46259, Note_on_c, 8, 50, 0
14, 46260, Note_on_c, 8, 50, 72
14, 46319, Note_on_c, 8, 50, 0
14, 46320, Note_on_c, 8, 45, 72
14, 46379, Note_on_c, 8, 45, 0
14, 46380, Note_on_c, 8, 45, 72
14, 46409, Note_on_c, 8, 45, 0
14, 46410, Note_on_c, 8, 45, 72
14, 46439, Note_on_c, 8, 45, 0
14, 46440, Note_on_c, 8, 45, 72
14, 46499, Note_on_c, 8, 45, 0
14, 46500, Note_on_c, 8, 45, 72
14, 46559, Note_on_c, 8, 45, 0
14, 46560, Note_on_c, 8, 50, 72
14, 46799, Note_on_c, 8, 50, 0
14, 47040, Note_on_c, 8, 45, 72
14, 47159, Note_on_c, 8, 45, 0
14, 47160, Note_on_c, 8, 50, 72
14, 47219, Note_on_c, 8, 50, 0
14, 47220, Note_on_c, 8, 50, 72
14, 47279, Note_on_c, 8, 50, 0
14, 47280, Note_on_c, 8, 45, 72
14, 47339, Note_on_c, 8, 45, 0
14, 47340, Note_on_c, 8, 45, 72
14, 47369, Note_on_c, 8, 45, 0
14, 47370, Note_on_c, 8, 45, 72
14, 47399, Note_on_c, 8, 45, 0
14, 47400, Note_on_c, 8, 45, 72
14, 47429, Note_on_c, 8, 45, 0
14, 47430, Note_on_c, 8, 45, 72
14, 47459, Note_on_c, 8, 45, 0
14, 47460, Note_on_c, 8, 45, 72
14, 47489, Note_on_c, 8, 45, 0
14, 47490, Note_on_c, 8, 45, 72
14, 47519, Note_on_c, 8, 45, 0
14, 47520, Note_on_c, 8, 50, 72
14, 47999, Note_on_c, 8, 50, 0
14, 47999, End_track
15, 0, Start_track
15, 0, Title_t, "Alto Trombone"
15, 0, Program_c, 10, 57
15, 0, Control_c, 10, 7, 96
15, 0, Control_c, 10, 10, 90
15, 0, Control_c, 10, 11, 127
15, 3000, Note_on_c, 10, 70, 72
15, 3119, Note_on_c, 10, 70, 0
15, 3120, Note_on_c, 10, 69, 72
15, 3239, Note_on_c, 10, 69, 0
15, 3240, Note_on_c, 10, 67, 72
15, 3359, Note_on_c, 10, 67, 0
15, 3360, Note_on_c, 10, 65, 72
15, 3479, Note_on_c, 10, 65, 0
15, 3960, Note_on_c, 10, 62, 72
15, 4139, Note_on_c, 10, 62, 0
15, 4140, Note_on_c, 10, 62, 72
15, 4199, Note_on_c, 10, 62, 0
15, 4200, Note_on_c, 10, 61, 72
15, 4259, Note_on_c, 10, 61, 0
15, 4260, Note_on_c, 10, 61, 72
15, 4319, Note_on_c, 10, 61, 0
15, 4320, Note_on_c, 10, 62, 72
15, 4379, Note_on_c, 10, 62, 0
15, 4380, Note_on_c, 10, 60, 72
15, 4439, Note_on_c, 10, 60, 0
15, 4440, Note_on_c, 10, 59, 72
15, 4499, Note_on_c, 10, 59, 0
15, 4500, Note_on_c, 10, 64, 72
15, 4559, Note_on_c, 10, 64, 0
15, 4560, Note_on_c, 10, 57, 72
15, 4679, Note_on_c, 10, 57, 0
15, 4680, Note_on_c, 10, 65, 72
15, 4799, Note_on_c, 10, 65, 0
15, 4800, Note_on_c, 10, 64, 72
15, 4919, Note_on_c, 10, 64, 0
15, 4920, Note_on_c, 10, 66, 72
15, 5039, Note_on_c, 10, 66, 0
15, 5040, Note_on_c, 10, 67, 72
15, 5099, Note_on_c, 10, 67, 0
15, 5100, Note_on_c, 10, 65, 72
15, 5159, Note_on_c, 10, 65, 0
15, 5160, Note_on_c, 10, 64, 72
15, 5339, Note_on_c, 10, 64, 0
15, 5340, Note_on_c, 10, 62, 72
15, 5369, Note_on_c, 10, 62, 0
15, 5370, Note_on_c, 10, 61, 72
15, 5399, Note_on_c, 10, 61, 0
15, 5400, Note_on_c, 10, 62, 72
15, 5459, Note_on_c, 10, 62, 0
15, 5460, Note_on_c, 10, 69, 72
15, 5519, Note_on_c, 10, 69, 0
15, 5520, Note_on_c, 10, 70, 72
15, 5639, Note_on_c, 10, 70, 0
15, 5640, Note_on_c, 10, 69, 72
15, 5939, Note_on_c, 10, 69, 0
15, 5940, Note_on_c, 10, 67, 72
15, 5999, Note_on_c, 10, 67, 0
15, 6000, Note_on_c, 10, 65, 72
15, 6059, Note_on_c, 10, 65, 0
15, 6060, Note_on_c, 10, 64, 72
15, 6089, Note_on_c, 10, 64, 0
15, 6090, Note_on_c, 10, 62, 72
15, 6119, Note_on_c, 10, 62, 0
15, 6120, Note_on_c, 10, 65, 72
15, 6179, Note_on_c, 10, 65, 0
15, 6180, Note_on_c, 10, 65, 72
15, 6239, Note_on_c, 10, 65, 0
15, 6240, Note_on_c, 10, 69, 72
15, 6299, Note_on_c, 10, 69, 0
15, 6300, Note_on_c, 10, 70, 72
15, 6359, Note_on_c, 10, 70, 0
15, 6360, Note_on_c, 10, 67, 72
15, 6449, Note_on_c, 10, 67, 0
15, 6450, Note_on_c, 10, 67, 72
15, 6479, Note_on_c, 10, 67, 0
15, 6480, Note_on_c, 10, 69, 72
15, 6599, Note_on_c, 10, 69, 0
15, 6780, Note_on_c, 10, 69, 72
15, 6839, Note_on_c, 10, 69, 0
15, 6840, Note_on_c, 10, 69, 72
15, 6899, Note_on_c, 10, 69, 0
15, 6900, Note_on_c, 10, 69, 72
15, 6959, Note_on_c, 10, 69, 0
15, 6960, Note_on_c, 10, 69, 72
15, 7049, Note_on_c, 10, 69, 0
15, 7050, Note_on_c, 10, 67, 72
15, 7079, Note_on_c, 10, 67, 0
15, 7080, Note_on_c, 10, 65, 72
15, 7199, Note_on_c, 10, 65, 0
15, 7260, Note_on_c, 10, 69, 72
15, 7319, Note_on_c, 10, 69, 0
15, 7320, Note_on_c, 10, 69, 72
15, 7379, Note_on_c, 10, 69, 0
15, 7380, Note_on_c, 10, 69, 72
15, 7439, Note_on_c, 10, 69, 0
15, 7440, Note_on_c, 10, 69, 72
15, 7529, Note_on_c, 10, 69, 0
15, 7530, Note_on_c, 10, 70, 72
15, 7559, Note_on_c, 10, 70, 0
15, 7560, Note_on_c, 10, 69, 72
15, 7679, Note_on_c, 10, 69, 0
15, 7680, Note_on_c, 10, 69, 72
15, 7769, Note_on_c, 10, 69, 0
15, 7770, Note_on_c, 10, 69, 72
15, 7799, Note_on_c, 10, 69, 0
15, 7800, Note_on_c, 10, 70, 72
15, 7919, Note_on_c, 10, 70, 0
15, 8160, Note_on_c, 10, 67, 48
15, 8279, Note_on_c, 10, 67, 0
15, 8280, Note_on_c, 10, 67, 48
15, 8339, Note_on_c, 10, 67, 0
15, 8340, Note_on_c, 10, 67, 48
15, 8399, Note_on_c, 10, 67, 0
15, 8400, Note_on_c, 10, 65, 48
15, 8639, Note_on_c, 10, 65, 0
15, 8640, Note_on_c, 10, 65, 48
15, 8759, Note_on_c, 10, 65, 0
15, 12300, Note_on_c, 10, 72, 72
15, 12359, Note_on_c, 10, 72, 0
15, 12360, Note_on_c, 10, 69, 72
15, 12419, Note_on_c, 10, 69, 0
15, 12420, Note_on_c, 10, 65, 72
15, 12479, Note_on_c, 10, 65, 0
15, 12540, Note_on_c, 10, 65, 72
15, 12599, Note_on_c, 10, 65, 0
15, 12600, Note_on_c, 10, 62, 72
15, 12659, Note_on_c, 10, 62, 0
15, 12660, Note_on_c, 10, 70, 72
15, 12719, Note_on_c, 10, 70, 0
15, 12780, Note_on_c, 10, 69, 72
15, 12839, Note_on_c, 10, 69, 0
15, 12840, Note_on_c, 10, 66, 72
15, 12899, Note_on_c, 10, 66, 0
15, 12900, Note_on_c, 10, 62, 72
15, 12929, Note_on_c, 10, 62, 0
15, 12930, Note_on_c, 10, 62, 72
15, 12959, Note_on_c, 10, 62, 0
15, 12960, Note_on_c, 10, 70, 72
15, 13139, Note_on_c, 10, 70, 0
15, 13140, Note_on_c, 10, 70, 72
15, 13199, Note_on_c, 10, 70, 0
15, 13200, Note_on_c, 10, 69, 72
15, 13259, Note_on_c, 10, 69, 0
15, 13260, Note_on_c, 10, 70, 72
15, 13319, Note_on_c, 10, 70, 0
15, 13320, Note_on_c, 10, 70, 72
15, 13379, Note_on_c, 10, 70, 0
15, 13380, Note_on_c, 10, 69, 72
15, 13439, Note_on_c, 10, 69, 0
15, 13440, Note_on_c, 10, 70, 72
15, 13559, Note_on_c, 10, 70, 0
15, 13740, Note_on_c, 10, 62, 72
15, 13799, Note_on_c, 10, 62, 0
15, 13800, Note_on_c, 10, 67, 72
15, 13919, Note_on_c, 10, 67, 0
15, 13980, Note_on_c, 10, 67, 72
15, 14039, Note_on_c, 10, 67, 0
15, 14040, Note_on_c, 10, 70, 72
15, 14219, Note_on_c, 10, 70, 0
15, 14220, Note_on_c, 10, 70, 72
15, 14279, Note_on_c, 10, 70, 0
15, 14280, Note_on_c, 10, 69, 72
15, 14339, Note_on_c, 10, 69, 0
15, 14340, Note_on_c, 10, 67, 72
15, 14399, Note_on_c, 10, 67, 0
15, 14400, Note_on_c, 10, 66, 72
15, 14519, Note_on_c, 10, 66, 0
15, 14520, Note_on_c, 10, 64, 72
15, 14639, Note_on_c, 10, 64, 0
15, 14640, Note_on_c, 10, 67, 72
15, 14699, Note_on_c, 10, 67, 0
15, 14700, Note_on_c, 10, 67, 72
15, 14759, Note_on_c, 10, 67, 0
15, 14760, Note_on_c, 10, 65, 72
15, 14849, Note_on_c, 10, 65, 0
15, 14850, Note_on_c, 10, 65, 72
15, 14879, Note_on_c, 10, 65, 0
15, 14880, Note_on_c, 10, 67, 72
15, 14999, Note_on_c, 10, 67, 0
15, 16140, Note_on_c, 10, 69, 72
15, 16229, Note_on_c, 10, 69, 0
15, 16230, Note_on_c, 10, 70, 72
15, 16259, Note_on_c, 10, 70, 0
15, 16260, Note_on_c, 10, 69, 72
15, 16289, Note_on_c, 10, 69, 0
15, 16290, Note_on_c, 10, 67, 72
15, 16319, Note_on_c, 10, 67, 0
15, 16320, Note_on_c, 10, 65, 72
15, 16349, Note_on_c, 10, 65, 0
15, 16350, Note_on_c, 10, 69, 72
15, 16379, Note_on_c, 10, 69, 0
15, 16380, Note_on_c, 10, 67, 72
15, 16409, Note_on_c, 10, 67, 0
15, 16410, Note_on_c, 10, 65, 72
15, 16439, Note_on_c, 10, 65, 0
15, 16440, Note_on_c, 10, 64, 72
15, 16469, Note_on_c, 10, 64, 0
15, 16470, Note_on_c, 10, 67, 72
15, 16499, Note_on_c, 10, 67, 0
15, 16500, Note_on_c, 10, 65, 72
15, 16529, Note_on_c, 10, 65, 0
15, 16530, Note_on_c, 10, 64, 72
15, 16559, Note_on_c, 10, 64, 0
15, 16560, Note_on_c, 10, 62, 72
15, 16589, Note_on_c, 10, 62, 0
15, 16590, Note_on_c, 10, 61, 72
15, 16619, Note_on_c, 10, 61, 0
15, 16620, Note_on_c, 10, 62, 72
15, 16649, Note_on_c, 10, 62, 0
15, 16650, Note_on_c, 10, 64, 72
15, 16679, Note_on_c, 10, 64, 0
15, 16680, Note_on_c, 10, 65, 72
15, 16709, Note_on_c, 10, 65, 0
15, 16710, Note_on_c, 10, 64, 72
15, 16739, Note_on_c, 10, 64, 0
15, 16740, Note_on_c, 10, 62, 72
15, 16769, Note_on_c, 10, 62, 0
15, 16770, Note_on_c, 10, 60, 72
15, 16799, Note_on_c, 10, 60, 0
15, 16800, Note_on_c, 10, 59, 72
15, 16889, Note_on_c, 10, 59, 0
15, 16890, Note_on_c, 10, 59, 72
15, 16919, Note_on_c, 10, 59, 0
15, 16920, Note_on_c, 10, 59, 72
15, 17039, Note_on_c, 10, 59, 0
15, 17040, Note_on_c, 10, 60, 72
15, 17159, Note_on_c, 10, 60, 0
15, 17160, Note_on_c, 10, 62, 72
15, 17279, Note_on_c, 10, 62, 0
15, 17280, Note_on_c, 10, 64, 72
15, 17339, Note_on_c, 10, 64, 0
15, 17340, Note_on_c, 10, 64, 72
15, 17399, Note_on_c, 10, 64, 0
15, 17400, Note_on_c, 10, 69, 72
15, 17549, Note_on_c, 10, 69, 0
15, 17550, Note_on_c, 10, 62, 72
15, 17579, Note_on_c, 10, 62, 0
15, 17580, Note_on_c, 10, 64, 72
15, 17609, Note_on_c, 10, 64, 0
15, 17610, Note_on_c, 10, 66, 72
15, 17639, Note_on_c, 10, 66, 0
15, 17640, Note_on_c, 10, 67, 72
15, 17819, Note_on_c, 10, 67, 0
15, 17820, Note_on_c, 10, 67, 72
15, 17879, Note_on_c, 10, 67, 0
15, 17880, Note_on_c, 10, 66, 72
15, 17939, Note_on_c, 10, 66, 0
15, 17940, Note_on_c, 10, 66, 72
15, 17999, Note_on_c, 10, 66, 0
15, 18000, Note_on_c, 10, 67, 72
15, 18119, Note_on_c, 10, 67, 0
15, 18120, Note_on_c, 10, 69, 72
15, 18239, Note_on_c, 10, 69, 0
15, 18240, Note_on_c, 10, 70, 72
15, 18269, Note_on_c, 10, 70, 0
15, 18270, Note_on_c, 10, 69, 72
15, 18299, Note_on_c, 10, 69, 0
15, 18300, Note_on_c, 10, 67, 72
15, 18389, Note_on_c, 10, 67, 0
15, 18390, Note_on_c, 10, 69, 72
15, 18419, Note_on_c, 10, 69, 0
15, 18420, Note_on_c, 10, 70, 72
15, 18449, Note_on_c, 10, 70, 0
15, 18450, Note_on_c, 10, 67, 72
15, 18479, Note_on_c, 10, 67, 0
15, 18480, Note_on_c, 10, 72, 72
15, 18509, Note_on_c, 10, 72, 0
15, 18510, Note_on_c, 10, 70, 72
15, 18539, Note_on_c, 10, 70, 0
15, 18540, Note_on_c, 10, 69, 72
15, 18569, Note_on_c, 10, 69, 0
15, 18570, Note_on_c, 10, 70, 72
15, 18599, Note_on_c, 10, 70, 0
15, 18600, Note_on_c, 10, 72, 72
15, 18629, Note_on_c, 10, 72, 0
15, 18630, Note_on_c, 10, 70, 72
15, 18659, Note_on_c, 10, 70, 0
15, 18660, Note_on_c, 10, 69, 72
15, 18689, Note_on_c, 10, 69, 0
15, 18690, Note_on_c, 10, 70, 72
15, 18719, Note_on_c, 10, 70, 0
15, 18720, Note_on_c, 10, 67, 72
15, 18809, Note_on_c, 10, 67, 0
15, 18810, Note_on_c, 10, 67, 72
15, 18839, Note_on_c, 10, 67, 0
15, 18840, Note_on_c, 10, 67, 72
15, 18959, Note_on_c, 10, 67, 0
15, 19020, Note_on_c, 10, 72, 72
15, 19139, Note_on_c, 10, 72, 0
15, 19140, Note_on_c, 10, 70, 72
15, 19199, Note_on_c, 10, 70, 0
15, 19200, Note_on_c, 10, 69, 72
15, 19259, Note_on_c, 10, 69, 0
15, 19260, Note_on_c, 10, 67, 72
15, 19289, Note_on_c, 10, 67, 0
15, 19290, Note_on_c, 10, 65, 72
15, 19319, Note_on_c, 10, 65, 0
15, 19320, Note_on_c, 10, 64, 72
15, 19439, Note_on_c, 10, 64, 0
15, 19500, Note_on_c, 10, 69, 72
15, 19619, Note_on_c, 10, 69, 0
15, 19620, Note_on_c, 10, 67, 72
15, 19679, Note_on_c, 10, 67, 0
15, 19680, Note_on_c, 10, 65, 72
15, 19739, Note_on_c, 10, 65, 0
15, 19740, Note_on_c, 10, 63, 72
15, 19769, Note_on_c, 10, 63, 0
15, 19770, Note_on_c, 10, 62, 72
15, 19799, Note_on_c, 10, 62, 0
15, 19800, Note_on_c, 10, 60, 72
15, 19919, Note_on_c, 10, 60, 0
15, 19980, Note_on_c, 10, 65, 72
15, 20099, Note_on_c, 10, 65, 0
15, 20100, Note_on_c, 10, 64, 72
15, 20159, Note_on_c, 10, 64, 0
15, 20160, Note_on_c, 10, 62, 72
15, 20279, Note_on_c, 10, 62, 0
15, 20460, Note_on_c, 10, 65, 72
15, 20519, Note_on_c, 10, 65, 0
15, 20520, Note_on_c, 10, 65, 72
15, 20579, Note_on_c, 10, 65, 0
15, 20580, Note_on_c, 10, 65, 72
15, 20639, Note_on_c, 10, 65, 0
15, 20640, Note_on_c, 10, 69, 72
15, 20729, Note_on_c, 10, 69, 0
15, 20730, Note_on_c, 10, 67, 72
15, 20759, Note_on_c, 10, 67, 0
15, 20760, Note_on_c, 10, 65, 72
15, 20879, Note_on_c, 10, 65, 0
15, 20940, Note_on_c, 10, 65, 72
15, 20999, Note_on_c, 10, 65, 0
15, 21000, Note_on_c, 10, 65, 72
15, 21059, Note_on_c, 10, 65, 0
15, 21060, Note_on_c, 10, 65, 72
15, 21119, Note_on_c, 10, 65, 0
15, 21120, Note_on_c, 10, 65, 72
15, 21209, Note_on_c, 10, 65, 0
15, 21210, Note_on_c, 10, 64, 72
15, 21239, Note_on_c, 10, 64, 0
15, 21240, Note_on_c, 10, 62, 72
15, 21359, Note_on_c, 10, 62, 0
15, 21360, Note_on_c, 10, 71, 72
15, 21479, Note_on_c, 10, 71, 0
15, 21480, Note_on_c, 10, 71, 72
15, 21539, Note_on_c, 10, 71, 0
15, 21540, Note_on_c, 10, 71, 72
15, 21599, Note_on_c, 10, 71, 0
15, 21600, Note_on_c, 10, 69, 72
15, 21659, Note_on_c, 10, 69, 0
15, 21660, Note_on_c, 10, 69, 72
15, 21719, Note_on_c, 10, 69, 0
15, 21780, Note_on_c, 10, 64, 48
15, 21839, Note_on_c, 10, 64, 0
15, 21840, Note_on_c, 10, 65, 48
15, 21959, Note_on_c, 10, 65, 0
15, 21960, Note_on_c, 10, 67, 48
15, 22079, Note_on_c, 10, 67, 0
15, 22080, Note_on_c, 10, 65, 48
15, 22169, Note_on_c, 10, 65, 0
15, 22170, Note_on_c, 10, 65, 48
15, 22199, Note_on_c, 10, 65, 0
15, 22200, Note_on_c, 10, 64, 48
15, 22319, Note_on_c, 10, 64, 0
15, 22320, Note_on_c, 10, 62, 48
15, 22439, Note_on_c, 10, 62, 0
15, 22440, Note_on_c, 10, 62, 48
15, 22499, Note_on_c, 10, 62, 0
15, 22500, Note_on_c, 10, 62, 48
15, 22559, Note_on_c, 10, 62, 0
15, 22560, Note_on_c, 10, 62, 48
15, 22679, Note_on_c, 10, 62, 0
15, 22680, Note_on_c, 10, 61, 48
15, 22739, Note_on_c, 10, 61, 0
15, 22740, Note_on_c, 10, 59, 48
15, 22799, Note_on_c, 10, 59, 0
15, 22800, Note_on_c, 10, 61, 48
15, 23039, Note_on_c, 10, 61, 0
15, 23580, Note_on_c, 10, 64, 72
15, 23639, Note_on_c, 10, 64, 0
15, 23640, Note_on_c, 10, 64, 72
15, 23699, Note_on_c, 10, 64, 0
15, 23700, Note_on_c, 10, 64, 72
15, 23759, Note_on_c, 10, 64, 0
15, 23760, Note_on_c, 10, 65, 72
15, 23789, Note_on_c, 10, 65, 0
15, 23790, Note_on_c, 10, 67, 72
15, 23819, Note_on_c, 10, 67, 0
15, 23820, Note_on_c, 10, 65, 72
15, 23849, Note_on_c, 10, 65, 0
15, 23850, Note_on_c, 10, 64, 72
15, 23879, Note_on_c, 10, 64, 0
15, 23880, Note_on_c, 10, 65, 72
15, 23909, Note_on_c, 10, 65, 0
15, 23910, Note_on_c, 10, 67, 72
15, 23939, Note_on_c, 10, 67, 0
15, 23940, Note_on_c, 10, 64, 72
15, 23969, Note_on_c, 10, 64, 0
15, 23970, Note_on_c, 10, 65, 72
15, 23999, Note_on_c, 10, 65, 0
15, 24000, Note_on_c, 10, 67, 72
15, 24029, Note_on_c, 10, 67, 0
15, 24030, Note_on_c, 10, 69, 72
15, 24059, Note_on_c, 10, 69, 0
15, 24060, Note_on_c, 10, 67, 72
15, 24089, Note_on_c, 10, 67, 0
15, 24090, Note_on_c, 10, 65, 72
15, 24119, Note_on_c, 10, 65, 0
15, 24120, Note_on_c, 10, 67, 72
15, 24149, Note_on_c, 10, 67, 0
15, 24150, Note_on_c, 10, 69, 72
15, 24179, Note_on_c, 10, 69, 0
15, 24180, Note_on_c, 10, 65, 72
15, 24209, Note_on_c, 10, 65, 0
15, 24210, Note_on_c, 10, 67, 72
15, 24239, Note_on_c, 10, 67, 0
15, 24240, Note_on_c, 10, 69, 72
15, 24299, Note_on_c, 10, 69, 0
15, 24300, Note_on_c, 10, 70, 72
15, 24329, Note_on_c, 10, 70, 0
15, 24330, Note_on_c, 10, 69, 72
15, 24359, Note_on_c, 10, 69, 0
15, 24360, Note_on_c, 10, 67, 72
15, 24389, Note_on_c, 10, 67, 0
15, 24390, Note_on_c, 10, 65, 72
15, 24419, Note_on_c, 10, 65, 0
15, 24420, Note_on_c, 10, 64, 72
15, 24449, Note_on_c, 10, 64, 0
15, 24450, Note_on_c, 10, 62, 72
15, 24479, Note_on_c, 10, 62, 0
15, 24480, Note_on_c, 10, 61, 72
15, 24539, Note_on_c, 10, 61, 0
15, 24540, Note_on_c, 10, 64, 72
15, 24599, Note_on_c, 10, 64, 0
15, 24600, Note_on_c, 10, 69, 72
15, 24659, Note_on_c, 10, 69, 0
15, 24660, Note_on_c, 10, 67, 72
15, 24719, Note_on_c, 10, 67, 0
15, 24720, Note_on_c, 10, 65, 72
15, 24779, Note_on_c, 10, 65, 0
15, 24780, Note_on_c, 10, 64, 72
15, 24809, Note_on_c, 10, 64, 0
15, 24810, Note_on_c, 10, 65, 72
15, 24839, Note_on_c, 10, 65, 0
15, 24840, Note_on_c, 10, 62, 72
15, 24869, Note_on_c, 10, 62, 0
15, 24870, Note_on_c, 10, 64, 72
15, 24899, Note_on_c, 10, 64, 0
15, 24900, Note_on_c, 10, 66, 72
15, 24929, Note_on_c, 10, 66, 0
15, 24930, Note_on_c, 10, 68, 72
15, 24959, Note_on_c, 10, 68, 0
15, 24960, Note_on_c, 10, 69, 72
15, 25079, Note_on_c, 10, 69, 0
15, 26400, Note_on_c, 10, 69, 72
15, 26579, Note_on_c, 10, 69, 0
15, 26580, Note_on_c, 10, 69, 72
15, 26639, Note_on_c, 10, 69, 0
15, 26640, Note_on_c, 10, 65, 72
15, 26759, Note_on_c, 10, 65, 0
15, 26760, Note_on_c, 10, 70, 72
15, 26879, Note_on_c, 10, 70, 0
15, 26880, Note_on_c, 10, 61, 72
15, 27059, Note_on_c, 10, 61, 0
15, 27060, Note_on_c, 10, 61, 72
15, 27119, Note_on_c, 10, 61, 0
15, 27120, Note_on_c, 10, 62, 72
15, 27239, Note_on_c, 10, 62, 0
15, 27300, Note_on_c, 10, 62, 72
15, 27359, Note_on_c, 10, 62, 0
15, 27360, Note_on_c, 10, 64, 72
15, 27539, Note_on_c, 10, 64, 0
15, 27540, Note_on_c, 10, 62, 72
15, 27569, Note_on_c, 10, 62, 0
15, 27570, Note_on_c, 10, 64, 72
15, 27599, Note_on_c, 10, 64, 0
15, 27600, Note_on_c, 10, 65, 72
15, 27659, Note_on_c, 10, 65, 0
15, 27660, Note_on_c, 10, 64, 72
15, 27689, Note_on_c, 10, 64, 0
15, 27690, Note_on_c, 10, 65, 72
15, 27719, Note_on_c, 10, 65, 0
15, 27720, Note_on_c, 10, 67, 72
15, 27779, Note_on_c, 10, 67, 0
15, 27780, Note_on_c, 10, 65, 72
15, 27795, Note_on_c, 10, 67, 72
15, 27809, Note_on_c, 10, 65, 0
15, 27824, Note_on_c, 10, 67, 0
15, 27840, Note_on_c, 10, 69, 72
15, 27899, Note_on_c, 10, 69, 0
15, 27900, Note_on_c, 10, 67, 72
15, 27959, Note_on_c, 10, 67, 0
15, 27960, Note_on_c, 10, 65, 72
15, 28019, Note_on_c, 10, 65, 0
15, 28020, Note_on_c, 10, 64, 72
15, 28079, Note_on_c, 10, 64, 0
15, 28080, Note_on_c, 10, 62, 72
15, 28169, Note_on_c, 10, 62, 0
15, 28170, Note_on_c, 10, 64, 72
15, 28199, Note_on_c, 10, 64, 0
15, 28200, Note_on_c, 10, 66, 72
15, 28259, Note_on_c, 10, 66, 0
15, 28260, Note_on_c, 10, 68, 72
15, 28319, Note_on_c, 10, 68, 0
15, 28320, Note_on_c, 10, 69, 72
15, 28379, Note_on_c, 10, 69, 0
15, 28380, Note_on_c, 10, 64, 72
15, 28499, Note_on_c, 10, 64, 0
15, 28500, Note_on_c, 10, 62, 72
15, 28529, Note_on_c, 10, 62, 0
15, 28530, Note_on_c, 10, 60, 72
15, 28559, Note_on_c, 10, 60, 0
15, 28560, Note_on_c, 10, 59, 72
15, 28679, Note_on_c, 10, 59, 0
15, 28860, Note_on_c, 10, 64, 72
15, 28919, Note_on_c, 10, 64, 0
15, 28920, Note_on_c, 10, 69, 72
15, 29069, Note_on_c, 10, 69, 0
15, 29070, Note_on_c, 10, 67, 72
15, 29099, Note_on_c, 10, 67, 0
15, 29100, Note_on_c, 10, 65, 72
15, 29129, Note_on_c, 10, 65, 0
15, 29130, Note_on_c, 10, 64, 72
15, 29159, Note_on_c, 10, 64, 0
15, 29160, Note_on_c, 10, 65, 72
15, 29219, Note_on_c, 10, 65, 0
15, 29220, Note_on_c, 10, 67, 72
15, 29249, Note_on_c, 10, 67, 0
15, 29250, Note_on_c, 10, 65, 72
15, 29279, Note_on_c, 10, 65, 0
15, 29280, Note_on_c, 10, 64, 72
15, 29399, Note_on_c, 10, 64, 0
15, 29580, Note_on_c, 10, 64, 72
15, 29639, Note_on_c, 10, 64, 0
15, 29640, Note_on_c, 10, 66, 72
15, 29699, Note_on_c, 10, 66, 0
15, 29700, Note_on_c, 10, 68, 72
15, 29759, Note_on_c, 10, 68, 0
15, 29760, Note_on_c, 10, 69, 72
15, 29879, Note_on_c, 10, 69, 0
15, 30060, Note_on_c, 10, 69, 72
15, 30119, Note_on_c, 10, 69, 0
15, 30120, Note_on_c, 10, 74, 72
15, 30179, Note_on_c, 10, 74, 0
15, 30180, Note_on_c, 10, 72, 72
15, 30239, Note_on_c, 10, 72, 0
15, 30240, Note_on_c, 10, 70, 72
15, 30269, Note_on_c, 10, 70, 0
15, 30270, Note_on_c, 10, 69, 72
15, 30299, Note_on_c, 10, 69, 0
15, 30300, Note_on_c, 10, 67, 72
15, 30389, Note_on_c, 10, 67, 0
15, 30390, Note_on_c, 10, 69, 72
15, 30419, Note_on_c, 10, 69, 0
15, 30420, Note_on_c, 10, 65, 72
15, 30449, Note_on_c, 10, 65, 0
15, 30450, Note_on_c, 10, 67, 72
15, 30479, Note_on_c, 10, 67, 0
15, 30480, Note_on_c, 10, 64, 72
15, 30599, Note_on_c, 10, 64, 0
15, 30600, Note_on_c, 10, 65, 72
15, 30659, Note_on_c, 10, 65, 0
15, 30660, Note_on_c, 10, 67, 72
15, 30719, Note_on_c, 10, 67, 0
15, 30720, Note_on_c, 10, 60, 72
15, 30839, Note_on_c, 10, 60, 0
15, 31020, Note_on_c, 10, 60, 72
15, 31139, Note_on_c, 10, 60, 0
15, 31140, Note_on_c, 10, 58, 72
15, 31199, Note_on_c, 10, 58, 0
15, 31200, Note_on_c, 10, 57, 72
15, 31259, Note_on_c, 10, 57, 0
15, 31260, Note_on_c, 10, 65, 72
15, 31319, Note_on_c, 10, 65, 0
15, 31320, Note_on_c, 10, 62, 72
15, 31379, Note_on_c, 10, 62, 0
15, 31380, Note_on_c, 10, 58, 72
15, 31439, Note_on_c, 10, 58, 0
15, 31500, Note_on_c, 10, 67, 72
15, 31559, Note_on_c, 10, 67, 0
15, 31560, Note_on_c, 10, 64, 72
15, 31619, Note_on_c, 10, 64, 0
15, 31620, Note_on_c, 10, 60, 72
15, 31679, Note_on_c, 10, 60, 0
15, 31740, Note_on_c, 10, 64, 72
15, 31769, Note_on_c, 10, 64, 0
15, 31770, Note_on_c, 10, 65, 72
15, 31799, Note_on_c, 10, 65, 0
15, 31800, Note_on_c, 10, 67, 72
15, 31859, Note_on_c, 10, 67, 0
15, 31860, Note_on_c, 10, 65, 72
15, 31889, Note_on_c, 10, 65, 0
15, 31890, Note_on_c, 10, 67, 72
15, 31919, Note_on_c, 10, 67, 0
15, 31920, Note_on_c, 10, 69, 72
15, 31979, Note_on_c, 10, 69, 0
15, 31980, Note_on_c, 10, 64, 72
15, 32039, Note_on_c, 10, 64, 0
15, 32040, Note_on_c, 10, 65, 72
15, 32099, Note_on_c, 10, 65, 0
15, 32100, Note_on_c, 10, 61, 72
15, 32159, Note_on_c, 10, 61, 0
15, 32160, Note_on_c, 10, 62, 72
15, 32279, Note_on_c, 10, 62, 0
15, 32280, Note_on_c, 10, 64, 72
15, 32339, Note_on_c, 10, 64, 0
15, 32340, Note_on_c, 10, 66, 72
15, 32399, Note_on_c, 10, 66, 0
15, 32400, Note_on_c, 10, 67, 72
15, 32519, Note_on_c, 10, 67, 0
15, 32700, Note_on_c, 10, 63, 72
15, 32759, Note_on_c, 10, 63, 0
15, 32760, Note_on_c, 10, 62, 72
15, 32819, Note_on_c, 10, 62, 0
15, 32820, Note_on_c, 10, 60, 72
15, 32879, Note_on_c, 10, 60, 0
15, 32880, Note_on_c, 10, 58, 72
15, 32939, Note_on_c, 10, 58, 0
15, 32940, Note_on_c, 10, 55, 72
15, 32999, Note_on_c, 10, 55, 0
15, 33000, Note_on_c, 10, 63, 72
15, 33179, Note_on_c, 10, 63, 0
15, 33180, Note_on_c, 10, 60, 72
15, 33239, Note_on_c, 10, 60, 0
15, 33240, Note_on_c, 10, 65, 72
15, 33479, Note_on_c, 10, 65, 0
15, 33480, Note_on_c, 10, 64, 72
15, 33599, Note_on_c, 10, 64, 0
15, 33600, Note_on_c, 10, 62, 72
15, 33659, Note_on_c, 10, 62, 0
15, 33660, Note_on_c, 10, 66, 72
15, 33719, Note_on_c, 10, 66, 0
15, 33720, Note_on_c, 10, 67, 72
15, 33779, Note_on_c, 10, 67, 0
15, 33780, Note_on_c, 10, 69, 72
15, 33839, Note_on_c, 10, 69, 0
15, 33840, Note_on_c, 10, 62, 72
15, 33899, Note_on_c, 10, 62, 0
15, 33900, Note_on_c, 10, 68, 72
15, 33959, Note_on_c, 10, 68, 0
15, 33960, Note_on_c, 10, 67, 72
15, 34079, Note_on_c, 10, 67, 0
15, 34380, Note_on_c, 10, 62, 72
15, 34439, Note_on_c, 10, 62, 0
15, 34440, Note_on_c, 10, 62, 72
15, 34499, Note_on_c, 10, 62, 0
15, 34500, Note_on_c, 10, 62, 72
15, 34559, Note_on_c, 10, 62, 0
15, 34560, Note_on_c, 10, 63, 72
15, 34589, Note_on_c, 10, 63, 0
15, 34590, Note_on_c, 10, 65, 72
15, 34619, Note_on_c, 10, 65, 0
15, 34620, Note_on_c, 10, 63, 72
15, 34649, Note_on_c, 10, 63, 0
15, 34650, Note_on_c, 10, 62, 72
15, 34679, Note_on_c, 10, 62, 0
15, 34680, Note_on_c, 10, 63, 72
15, 34709, Note_on_c, 10, 63, 0
15, 34710, Note_on_c, 10, 65, 72
15, 34739, Note_on_c, 10, 65, 0
15, 34740, Note_on_c, 10, 62, 72
15, 34769, Note_on_c, 10, 62, 0
15, 34770, Note_on_c, 10, 63, 72
15, 34799, Note_on_c, 10, 63, 0
15, 34800, Note_on_c, 10, 65, 72
15, 34829, Note_on_c, 10, 65, 0
15, 34830, Note_on_c, 10, 67, 72
15, 34859, Note_on_c, 10, 67, 0
15, 34860, Note_on_c, 10, 65, 72
15, 34889, Note_on_c, 10, 65, 0
15, 34890, Note_on_c, 10, 63, 72
15, 34919, Note_on_c, 10, 63, 0
15, 34920, Note_on_c, 10, 65, 72
15, 34949, Note_on_c, 10, 65, 0
15, 34950, Note_on_c, 10, 67, 72
15, 34979, Note_on_c, 10, 67, 0
15, 34980, Note_on_c, 10, 63, 72
15, 35009, Note_on_c, 10, 63, 0
15, 35010, Note_on_c, 10, 65, 72
15, 35039, Note_on_c, 10, 65, 0
15, 35040, Note_on_c, 10, 67, 72
15, 35099, Note_on_c, 10, 67, 0
15, 35100, Note_on_c, 10, 68, 72
15, 35129, Note_on_c, 10, 68, 0
15, 35130, Note_on_c, 10, 67, 72
15, 35159, Note_on_c, 10, 67, 0
15, 35160, Note_on_c, 10, 65, 72
15, 35189, Note_on_c, 10, 65, 0
15, 35190, Note_on_c, 10, 63, 72
15, 35219, Note_on_c, 10, 63, 0
15, 35220, Note_on_c, 10, 62, 72
15, 35249, Note_on_c, 10, 62, 0
15, 35250, Note_on_c, 10, 60, 72
15, 35279, Note_on_c, 10, 60, 0
15, 35280, Note_on_c, 10, 59, 72
15, 35339, Note_on_c, 10, 59, 0
15, 35340, Note_on_c, 10, 62, 72
15, 35399, Note_on_c, 10, 62, 0
15, 35400, Note_on_c, 10, 67, 72
15, 35459, Note_on_c, 10, 67, 0
15, 35460, Note_on_c, 10, 65, 72
15, 35519, Note_on_c, 10, 65, 0
15, 35520, Note_on_c, 10, 63, 72
15, 35699, Note_on_c, 10, 63, 0
15, 35700, Note_on_c, 10, 62, 72
15, 35759, Note_on_c, 10, 62, 0
15, 35760, Note_on_c, 10, 60, 72
15, 35819, Note_on_c, 10, 60, 0
15, 35820, Note_on_c, 10, 65, 72
15, 35879, Note_on_c, 10, 65, 0
15, 35880, Note_on_c, 10, 67, 72
15, 35939, Note_on_c, 10, 67, 0
15, 35940, Note_on_c, 10, 69, 72
15, 35999, Note_on_c, 10, 69, 0
15, 36000, Note_on_c, 10, 70, 72
15, 36059, Note_on_c, 10, 70, 0
15, 36060, Note_on_c, 10, 58, 72
15, 36119, Note_on_c, 10, 58, 0
15, 36120, Note_on_c, 10, 63, 72
15, 36209, Note_on_c, 10, 63, 0
15, 36210, Note_on_c, 10, 62, 72
15, 36239, Note_on_c, 10, 62, 0
15, 36240, Note_on_c, 10, 60, 72
15, 36299, Note_on_c, 10, 60, 0
15, 36300, Note_on_c, 10, 60, 72
15, 36359, Note_on_c, 10, 60, 0
15, 36360, Note_on_c, 10, 65, 72
15, 36539, Note_on_c, 10, 65, 0
15, 36540, Note_on_c, 10, 63, 72
15, 36569, Note_on_c, 10, 63, 0
15, 36570, Note_on_c, 10, 62, 72
15, 36599, Note_on_c, 10, 62, 0
15, 36600, Note_on_c, 10, 63, 72
15, 36629, Note_on_c, 10, 63, 0
15, 36630, Note_on_c, 10, 65, 72
15, 36659, Note_on_c, 10, 65, 0
15, 36660, Note_on_c, 10, 62, 72
15, 36689, Note_on_c, 10, 62, 0
15, 36690, Note_on_c, 10, 63, 72
15, 36719, Note_on_c, 10, 63, 0
15, 36720, Note_on_c, 10, 60, 72
15, 36779, Note_on_c, 10, 60, 0
15, 36780, Note_on_c, 10, 62, 72
15, 36809, Note_on_c, 10, 62, 0
15, 36810, Note_on_c, 10, 63, 72
15, 36839, Note_on_c, 10, 63, 0
15, 36840, Note_on_c, 10, 65, 72
15, 37019, Note_on_c, 10, 65, 0
15, 37020, Note_on_c, 10, 58, 72
15, 37139, Note_on_c, 10, 58, 0
15, 37140, Note_on_c, 10, 67, 72
15, 37199, Note_on_c, 10, 67, 0
15, 37200, Note_on_c, 10, 65, 72
15, 37319, Note_on_c, 10, 65, 0
15, 38160, Note_on_c, 10, 72, 72
15, 38339, Note_on_c, 10, 72, 0
15, 38340, Note_on_c, 10, 72, 72
15, 38399, Note_on_c, 10, 72, 0
15, 38400, Note_on_c, 10, 68, 72
15, 38519, Note_on_c, 10, 68, 0
15, 38520, Note_on_c, 10, 73, 72
15, 38639, Note_on_c, 10, 73, 0
15, 38640, Note_on_c, 10, 64, 72
15, 38819, Note_on_c, 10, 64, 0
15, 38820, Note_on_c, 10, 64, 72
15, 38879, Note_on_c, 10, 64, 0
15, 38880, Note_on_c, 10, 65, 72
15, 38999, Note_on_c, 10, 65, 0
15, 39660, Note_on_c, 10, 62, 72
15, 39719, Note_on_c, 10, 62, 0
15, 39720, Note_on_c, 10, 62, 72
15, 39779, Note_on_c, 10, 62, 0
15, 39780, Note_on_c, 10, 62, 72
15, 39839, Note_on_c, 10, 62, 0
15, 39840, Note_on_c, 10, 63, 72
15, 39869, Note_on_c, 10, 63, 0
15, 39870, Note_on_c, 10, 65, 72
15, 39899, Note_on_c, 10, 65, 0
15, 39900, Note_on_c, 10, 63, 72
15, 39929, Note_on_c, 10, 63, 0
15, 39930, Note_on_c, 10, 62, 72
15, 39959, Note_on_c, 10, 62, 0
15, 39960, Note_on_c, 10, 64, 72
15, 39989, Note_on_c, 10, 64, 0
15, 39990, Note_on_c, 10, 65, 72
15, 40019, Note_on_c, 10, 65, 0
15, 40020, Note_on_c, 10, 62, 72
15, 40049, Note_on_c, 10, 62, 0
15, 40050, Note_on_c, 10, 64, 72
15, 40079, Note_on_c, 10, 64, 0
15, 40080, Note_on_c, 10, 65, 72
15, 40109, Note_on_c, 10, 65, 0
15, 40110, Note_on_c, 10, 67, 72
15, 40139, Note_on_c, 10, 67, 0
15, 40140, Note_on_c, 10, 65, 72
15, 40169, Note_on_c, 10, 65, 0
15, 40170, Note_on_c, 10, 64, 72
15, 40199, Note_on_c, 10, 64, 0
15, 40200, Note_on_c, 10, 66, 72
15, 40229, Note_on_c, 10, 66, 0
15, 40230, Note_on_c, 10, 67, 72
15, 40259, Note_on_c, 10, 67, 0
15, 40260, Note_on_c, 10, 64, 72
15, 40289, Note_on_c, 10, 64, 0
15, 40290, Note_on_c, 10, 66, 72
15, 40319, Note_on_c, 10, 66, 0
15, 40320, Note_on_c, 10, 67, 72
15, 40379, Note_on_c, 10, 67, 0
15, 40380, Note_on_c, 10, 62, 72
15, 40439, Note_on_c, 10, 62, 0
15, 40440, Note_on_c, 10, 67, 72
15, 40499, Note_on_c, 10, 67, 0
15, 40500, Note_on_c, 10, 65, 72
15, 40559, Note_on_c, 10, 65, 0
15, 40560, Note_on_c, 10, 64, 72
15, 40619, Note_on_c, 10, 64, 0
15, 40620, Note_on_c, 10, 57, 72
15, 40679, Note_on_c, 10, 57, 0
15, 40680, Note_on_c, 10, 69, 72
15, 40739, Note_on_c, 10, 69, 0
15, 40740, Note_on_c, 10, 67, 72
15, 40799, Note_on_c, 10, 67, 0
15, 40800, Note_on_c, 10, 65, 72
15, 40919, Note_on_c, 10, 65, 0
15, 40920, Note_on_c, 10, 69, 72
15, 41009, Note_on_c, 10, 69, 0
15, 41010, Note_on_c, 10, 69, 72
15, 41039, Note_on_c, 10, 69, 0
15, 41040, Note_on_c, 10, 62, 72
15, 41099, Note_on_c, 10, 62, 0
15, 41100, Note_on_c, 10, 71, 72
15, 41159, Note_on_c, 10, 71, 0
15, 41160, Note_on_c, 10, 71, 72
15, 41279, Note_on_c, 10, 71, 0
15, 41280, Note_on_c, 10, 64, 72
15, 41339, Note_on_c, 10, 64, 0
15, 41340, Note_on_c, 10, 61, 72
15, 41399, Note_on_c, 10, 61, 0
15, 41400, Note_on_c, 10, 62, 72
15, 41459, Note_on_c, 10, 62, 0
15, 41460, Note_on_c, 10, 64, 72
15, 41519, Note_on_c, 10, 64, 0
15, 41520, Note_on_c, 10, 65, 72
15, 41579, Note_on_c, 10, 65, 0
15, 41580, Note_on_c, 10, 64, 72
15, 41609, Note_on_c, 10, 64, 0
15, 41610, Note_on_c, 10, 65, 72
15, 41639, Note_on_c, 10, 65, 0
15, 41640, Note_on_c, 10, 67, 72
15, 41699, Note_on_c, 10, 67, 0
15, 41700, Note_on_c, 10, 65, 72
15, 41729, Note_on_c, 10, 65, 0
15, 41730, Note_on_c, 10, 67, 72
15, 41759, Note_on_c, 10, 67, 0
15, 41760, Note_on_c, 10, 69, 72
15, 41819, Note_on_c, 10, 69, 0
15, 41820, Note_on_c, 10, 70, 72
15, 41879, Note_on_c, 10, 70, 0
15, 41880, Note_on_c, 10, 69, 72
15, 41939, Note_on_c, 10, 69, 0
15, 41940, Note_on_c, 10, 67, 72
15, 41999, Note_on_c, 10, 67, 0
15, 42000, Note_on_c, 10, 65, 72
15, 42059, Note_on_c, 10, 65, 0
15, 42060, Note_on_c, 10, 69, 72
15, 42119, Note_on_c, 10, 69, 0
15, 42120, Note_on_c, 10, 74, 72
15, 42239, Note_on_c, 10, 74, 0
15, 42240, Note_on_c, 10, 74, 72
15, 42359, Note_on_c, 10, 74, 0
15, 42360, Note_on_c, 10, 73, 72
15, 42479, Note_on_c, 10, 73, 0
15, 42840, Note_on_c, 10, 70, 72
15, 43019, Note_on_c, 10, 70, 0
15, 43020, Note_on_c, 10, 70, 72
15, 43079, Note_on_c, 10, 70, 0
15, 43080, Note_on_c, 10, 69, 72
15, 43139, Note_on_c, 10, 69, 0
15, 43140, Note_on_c, 10, 69, 72
15, 43199, Note_on_c, 10, 69, 0
15, 43200, Note_on_c, 10, 69, 72
15, 43319, Note_on_c, 10, 69, 0
15, 43320, Note_on_c, 10, 68, 72
15, 43439, Note_on_c, 10, 68, 0
15, 43440, Note_on_c, 10, 69, 72
15, 43499, Note_on_c, 10, 69, 0
15, 43500, Note_on_c, 10, 69, 72
15, 43619, Note_on_c, 10, 69, 0
15, 43620, Note_on_c, 10, 69, 72
15, 43679, Note_on_c, 10, 69, 0
15, 43680, Note_on_c, 10, 65, 72
15, 43799, Note_on_c, 10, 65, 0
15, 43800, Note_on_c, 10, 70, 72
15, 43919, Note_on_c, 10, 70, 0
15, 43920, Note_on_c, 10, 61, 72
15, 44099, Note_on_c, 10, 61, 0
15, 44100, Note_on_c, 10, 61, 72
15, 44159, Note_on_c, 10, 61, 0
15, 44160, Note_on_c, 10, 62, 72
15, 44279, Note_on_c, 10, 62, 0
15, 44340, Note_on_c, 10, 62, 72
15, 44399, Note_on_c, 10, 62, 0
15, 44400, Note_on_c, 10, 64, 72
15, 44579, Note_on_c, 10, 64, 0
15, 44580, Note_on_c, 10, 62, 72
15, 44609, Note_on_c, 10, 62, 0
15, 44610, Note_on_c, 10, 64, 72
15, 44639, Note_on_c, 10, 64, 0
15, 44640, Note_on_c, 10, 65, 72
15, 44759, Note_on_c, 10, 65, 0
15, 44940, Note_on_c, 10, 64, 72
15, 44999, Note_on_c, 10, 64, 0
15, 45000, Note_on_c, 10, 64, 72
15, 45059, Note_on_c, 10, 64, 0
15, 45060, Note_on_c, 10, 64, 72
15, 45119, Note_on_c, 10, 64, 0
15, 45120, Note_on_c, 10, 65, 72
15, 45149, Note_on_c, 10, 65, 0
15, 45150, Note_on_c, 10, 67, 72
15, 45179, Note_on_c, 10, 67, 0
15, 45180, Note_on_c, 10, 65, 72
15, 45209, Note_on_c, 10, 65, 0
15, 45210, Note_on_c, 10, 64, 72
15, 45239, Note_on_c, 10, 64, 0
15, 45240, Note_on_c, 10, 66, 72
15, 45269, Note_on_c, 10, 66, 0
15, 45270, Note_on_c, 10, 67, 72
15, 45299, Note_on_c, 10, 67, 0
15, 45300, Note_on_c, 10, 64, 72
15, 45329, Note_on_c, 10, 64, 0
15, 45330, Note_on_c, 10, 66, 72
15, 45359, Note_on_c, 10, 66, 0
15, 45360, Note_on_c, 10, 67, 72
15, 45389, Note_on_c, 10, 67, 0
15, 45390, Note_on_c, 10, 69, 72
15, 45419, Note_on_c, 10, 69, 0
15, 45420, Note_on_c, 10, 67, 72
15, 45449, Note_on_c, 10, 67, 0
15, 45450, Note_on_c, 10, 66, 72
15, 45479, Note_on_c, 10, 66, 0
15, 45480, Note_on_c, 10, 68, 72
15, 45509, Note_on_c, 10, 68, 0
15, 45510, Note_on_c, 10, 69, 72
15, 45539, Note_on_c, 10, 69, 0
15, 45540, Note_on_c, 10, 66, 72
15, 45569, Note_on_c, 10, 66, 0
15, 45570, Note_on_c, 10, 68, 72
15, 45599, Note_on_c, 10, 68, 0
15, 45600, Note_on_c, 10, 69, 72
15, 45719, Note_on_c, 10, 69, 0
15, 45720, Note_on_c, 10, 69, 72
15, 45809, Note_on_c, 10, 69, 0
15, 45810, Note_on_c, 10, 69, 72
15, 45839, Note_on_c, 10, 69, 0
15, 45840, Note_on_c, 10, 67, 72
15, 45959, Note_on_c, 10, 67, 0
15, 45960, Note_on_c, 10, 71, 72
15, 46049, Note_on_c, 10, 71, 0
15, 46050, Note_on_c, 10, 71, 72
15, 46079, Note_on_c, 10, 71, 0
15, 46080, Note_on_c, 10, 69, 72
15, 46139, Note_on_c, 10, 69, 0
15, 46140, Note_on_c, 10, 67, 72
15, 46199, Note_on_c, 10, 67, 0
15, 46200, Note_on_c, 10, 65, 72
15, 46259, Note_on_c, 10, 65, 0
15, 46260, Note_on_c, 10, 70, 72
15, 46319, Note_on_c, 10, 70, 0
15, 46320, Note_on_c, 10, 69, 72
15, 46499, Note_on_c, 10, 69, 0
15, 46500, Note_on_c, 10, 69, 72
15, 46559, Note_on_c, 10, 69, 0
15, 46560, Note_on_c, 10, 71, 72
15, 46799, Note_on_c, 10, 71, 0
15, 46920, Note_on_c, 10, 71, 72
15, 47009, Note_on_c, 10, 71, 0
15, 47010, Note_on_c, 10, 71, 72
15, 47039, Note_on_c, 10, 71, 0
15, 47040, Note_on_c, 10, 69, 72
15, 47159, Note_on_c, 10, 69, 0
15, 47160, Note_on_c, 10, 69, 72
15, 47279, Note_on_c, 10, 69, 0
15, 47280, Note_on_c, 10, 69, 72
15, 47459, Note_on_c, 10, 69, 0
15, 47460, Note_on_c, 10, 69, 72
15, 47519, Note_on_c, 10, 69, 0
15, 47520, Note_on_c, 10, 69, 72
15, 47999, Note_on_c, 10, 69, 0
15, 47999, End_track
16, 0, Start_track
16, 0, Title_t, "TenorTrombone"
16, 0, Program_c, 10, 57
16, 0, Control_c, 10, 7, 96
16, 0, Control_c, 10, 10, 90
16, 0, Control_c, 10, 11, 127
16, 3000, Note_on_c, 10, 61, 72
16, 3119, Note_on_c, 10, 61, 0
16, 3120, Note_on_c, 10, 62, 72
16, 3239, Note_on_c, 10, 62, 0
16, 3240, Note_on_c, 10, 61, 72
16, 3359, Note_on_c, 10, 61, 0
16, 3360, Note_on_c, 10, 62, 72
16, 3479, Note_on_c, 10, 62, 0
16, 3720, Note_on_c, 10, 57, 72
16, 3899, Note_on_c, 10, 57, 0
16, 3900, Note_on_c, 10, 57, 72
16, 3959, Note_on_c, 10, 57, 0
16, 3960, Note_on_c, 10, 56, 72
16, 4019, Note_on_c, 10, 56, 0
16, 4020, Note_on_c, 10, 56, 72
16, 4079, Note_on_c, 10, 56, 0
16, 4080, Note_on_c, 10, 57, 72
16, 4199, Note_on_c, 10, 57, 0
16, 4200, Note_on_c, 10, 55, 72
16, 4319, Note_on_c, 10, 55, 0
16, 4320, Note_on_c, 10, 53, 72
16, 4439, Note_on_c, 10, 53, 0
16, 4440, Note_on_c, 10, 62, 72
16, 4559, Note_on_c, 10, 62, 0
16, 4560, Note_on_c, 10, 60, 72
16, 4679, Note_on_c, 10, 60, 0
16, 4680, Note_on_c, 10, 62, 72
16, 4799, Note_on_c, 10, 62, 0
16, 4800, Note_on_c, 10, 64, 72
16, 4859, Note_on_c, 10, 64, 0
16, 4860, Note_on_c, 10, 57, 72
16, 4919, Note_on_c, 10, 57, 0
16, 4920, Note_on_c, 10, 62, 72
16, 4979, Note_on_c, 10, 62, 0
16, 4980, Note_on_c, 10, 60, 72
16, 5039, Note_on_c, 10, 60, 0
16, 5040, Note_on_c, 10, 58, 72
16, 5219, Note_on_c, 10, 58, 0
16, 5220, Note_on_c, 10, 60, 72
16, 5249, Note_on_c, 10, 60, 0
16, 5250, Note_on_c, 10, 58, 72
16, 5279, Note_on_c, 10, 58, 0
16, 5280, Note_on_c, 10, 57, 72
16, 5369, Note_on_c, 10, 57, 0
16, 5370, Note_on_c, 10, 57, 72
16, 5399, Note_on_c, 10, 57, 0
16, 5400, Note_on_c, 10, 65, 72
16, 5459, Note_on_c, 10, 65, 0
16, 5460, Note_on_c, 10, 65, 72
16, 5519, Note_on_c, 10, 65, 0
16, 5520, Note_on_c, 10, 64, 72
16, 5639, Note_on_c, 10, 64, 0
16, 5640, Note_on_c, 10, 64, 72
16, 5759, Note_on_c, 10, 64, 0
16, 5760, Note_on_c, 10, 57, 72
16, 5939, Note_on_c, 10, 57, 0
16, 5940, Note_on_c, 10, 57, 72
16, 5999, Note_on_c, 10, 57, 0
16, 6000, Note_on_c, 10, 57, 72
16, 6059, Note_on_c, 10, 57, 0
16, 6060, Note_on_c, 10, 57, 72
16, 6119, Note_on_c, 10, 57, 0
16, 6120, Note_on_c, 10, 57, 72
16, 6179, Note_on_c, 10, 57, 0
16, 6180, Note_on_c, 10, 60, 72
16, 6209, Note_on_c, 10, 60, 0
16, 6210, Note_on_c, 10, 57, 72
16, 6239, Note_on_c, 10, 57, 0
16, 6240, Note_on_c, 10, 65, 72
16, 6299, Note_on_c, 10, 65, 0
16, 6300, Note_on_c, 10, 65, 72
16, 6359, Note_on_c, 10, 65, 0
16, 6360, Note_on_c, 10, 62, 72
16, 6449, Note_on_c, 10, 62, 0
16, 6450, Note_on_c, 10, 62, 72
16, 6479, Note_on_c, 10, 62, 0
16, 6480, Note_on_c, 10, 64, 72
16, 6599, Note_on_c, 10, 64, 0
16, 6780, Note_on_c, 10, 57, 72
16, 6839, Note_on_c, 10, 57, 0
16, 6840, Note_on_c, 10, 57, 72
16, 6899, Note_on_c, 10, 57, 0
16, 6900, Note_on_c, 10, 57, 72
16, 6959, Note_on_c, 10, 57, 0
16, 6960, Note_on_c, 10, 57, 72
16, 7049, Note_on_c, 10, 57, 0
16, 7050, Note_on_c, 10, 58, 72
16, 7079, Note_on_c, 10, 58, 0
16, 7080, Note_on_c, 10, 60, 72
16, 7199, Note_on_c, 10, 60, 0
16, 7260, Note_on_c, 10, 60, 72
16, 7319, Note_on_c, 10, 60, 0
16, 7320, Note_on_c, 10, 60, 72
16, 7379, Note_on_c, 10, 60, 0
16, 7380, Note_on_c, 10, 60, 72
16, 7439, Note_on_c, 10, 60, 0
16, 7440, Note_on_c, 10, 60, 72
16, 7529, Note_on_c, 10, 60, 0
16, 7530, Note_on_c, 10, 62, 72
16, 7559, Note_on_c, 10, 62, 0
16, 7560, Note_on_c, 10, 63, 72
16, 7679, Note_on_c, 10, 63, 0
16, 7680, Note_on_c, 10, 60, 72
16, 7769, Note_on_c, 10, 60, 0
16, 7770, Note_on_c, 10, 60, 72
16, 7799, Note_on_c, 10, 60, 0
16, 7800, Note_on_c, 10, 62, 72
16, 7919, Note_on_c, 10, 62, 0
16, 8160, Note_on_c, 10, 58, 48
16, 8279, Note_on_c, 10, 58, 0
16, 8280, Note_on_c, 10, 55, 48
16, 8339, Note_on_c, 10, 55, 0
16, 8340, Note_on_c, 10, 61, 48
16, 8399, Note_on_c, 10, 61, 0
16, 8400, Note_on_c, 10, 60, 48
16, 8639, Note_on_c, 10, 60, 0
16, 8640, Note_on_c, 10, 62, 48
16, 8759, Note_on_c, 10, 62, 0
16, 12180, Note_on_c, 10, 63, 72
16, 12239, Note_on_c, 10, 63, 0
16, 12240, Note_on_c, 10, 60, 72
16, 12299, Note_on_c, 10, 60, 0
16, 12300, Note_on_c, 10, 65, 72
16, 12359, Note_on_c, 10, 65, 0
16, 12420, Note_on_c, 10, 65, 72
16, 12479, Note_on_c, 10, 65, 0
16, 12480, Note_on_c, 10, 62, 72
16, 12539, Note_on_c, 10, 62, 0
16, 12540, Note_on_c, 10, 58, 72
16, 12599, Note_on_c, 10, 58, 0
16, 12660, Note_on_c, 10, 62, 72
16, 12719, Note_on_c, 10, 62, 0
16, 12720, Note_on_c, 10, 57, 72
16, 12839, Note_on_c, 10, 57, 0
16, 12840, Note_on_c, 10, 57, 72
16, 12899, Note_on_c, 10, 57, 0
16, 12900, Note_on_c, 10, 57, 72
16, 12959, Note_on_c, 10, 57, 0
16, 12960, Note_on_c, 10, 58, 72
16, 13019, Note_on_c, 10, 58, 0
16, 13020, Note_on_c, 10, 62, 72
16, 13079, Note_on_c, 10, 62, 0
16, 13080, Note_on_c, 10, 67, 72
16, 13139, Note_on_c, 10, 67, 0
16, 13140, Note_on_c, 10, 65, 72
16, 13199, Note_on_c, 10, 65, 0
16, 13200, Note_on_c, 10, 63, 72
16, 13259, Note_on_c, 10, 63, 0
16, 13260, Note_on_c, 10, 65, 72
16, 13379, Note_on_c, 10, 65, 0
16, 13380, Note_on_c, 10, 63, 72
16, 13439, Note_on_c, 10, 63, 0
16, 13440, Note_on_c, 10, 62, 72
16, 13559, Note_on_c, 10, 62, 0
16, 13620, Note_on_c, 10, 62, 72
16, 13679, Note_on_c, 10, 62, 0
16, 13680, Note_on_c, 10, 58, 72
16, 13799, Note_on_c, 10, 58, 0
16, 13860, Note_on_c, 10, 58, 72
16, 13919, Note_on_c, 10, 58, 0
16, 13920, Note_on_c, 10, 55, 72
16, 14039, Note_on_c, 10, 55, 0
16, 14040, Note_on_c, 10, 55, 72
16, 14279, Note_on_c, 10, 55, 0
16, 14280, Note_on_c, 10, 54, 72
16, 14339, Note_on_c, 10, 54, 0
16, 14340, Note_on_c, 10, 55, 72
16, 14399, Note_on_c, 10, 55, 0
16, 14400, Note_on_c, 10, 57, 72
16, 14459, Note_on_c, 10, 57, 0
16, 14460, Note_on_c, 10, 57, 72
16, 14519, Note_on_c, 10, 57, 0
16, 14520, Note_on_c, 10, 58, 72
16, 14579, Note_on_c, 10, 58, 0
16, 14580, Note_on_c, 10, 55, 72
16, 14639, Note_on_c, 10, 55, 0
16, 14640, Note_on_c, 10, 62, 72
16, 14819, Note_on_c, 10, 62, 0
16, 14820, Note_on_c, 10, 60, 72
16, 14879, Note_on_c, 10, 60, 0
16, 14880, Note_on_c, 10, 58, 72
16, 14999, Note_on_c, 10, 58, 0
16, 16680, Note_on_c, 10, 57, 72
16, 16859, Note_on_c, 10, 57, 0
16, 16860, Note_on_c, 10, 57, 72
16, 16919, Note_on_c, 10, 57, 0
16, 16920, Note_on_c, 10, 56, 72
16, 16979, Note_on_c, 10, 56, 0
16, 16980, Note_on_c, 10, 56, 72
16, 17039, Note_on_c, 10, 56, 0
16, 17040, Note_on_c, 10, 57, 72
16, 17159, Note_on_c, 10, 57, 0
16, 17160, Note_on_c, 10, 59, 72
16, 17279, Note_on_c, 10, 59, 0
16, 17280, Note_on_c, 10, 60, 72
16, 17399, Note_on_c, 10, 60, 0
16, 17820, Note_on_c, 10, 62, 72
16, 17909, Note_on_c, 10, 62, 0
16, 17910, Note_on_c, 10, 63, 72
16, 17939, Note_on_c, 10, 63, 0
16, 17940, Note_on_c, 10, 62, 72
16, 17969, Note_on_c, 10, 62, 0
16, 17970, Note_on_c, 10, 60, 72
16, 17999, Note_on_c, 10, 60, 0
16, 18000, Note_on_c, 10, 58, 72
16, 18029, Note_on_c, 10, 58, 0
16, 18030, Note_on_c, 10, 62, 72
16, 18059, Note_on_c, 10, 62, 0
16, 18060, Note_on_c, 10, 60, 72
16, 18089, Note_on_c, 10, 60, 0
16, 18090, Note_on_c, 10, 58, 72
16, 18119, Note_on_c, 10, 58, 0
16, 18120, Note_on_c, 10, 57, 72
16, 18149, Note_on_c, 10, 57, 0
16, 18150, Note_on_c, 10, 60, 72
16, 18179, Note_on_c, 10, 60, 0
16, 18180, Note_on_c, 10, 58, 72
16, 18209, Note_on_c, 10, 58, 0
16, 18210, Note_on_c, 10, 57, 72
16, 18239, Note_on_c, 10, 57, 0
16, 18240, Note_on_c, 10, 55, 72
16, 18329, Note_on_c, 10, 55, 0
16, 18330, Note_on_c, 10, 57, 72
16, 18359, Note_on_c, 10, 57, 0
16, 18360, Note_on_c, 10, 58, 72
16, 18389, Note_on_c, 10, 58, 0
16, 18390, Note_on_c, 10, 57, 72
16, 18419, Note_on_c, 10, 57, 0
16, 18420, Note_on_c, 10, 55, 72
16, 18449, Note_on_c, 10, 55, 0
16, 18450, Note_on_c, 10, 58, 72
16, 18479, Note_on_c, 10, 58, 0
16, 18480, Note_on_c, 10, 57, 72
16, 18509, Note_on_c, 10, 57, 0
16, 18510, Note_on_c, 10, 55, 72
16, 18539, Note_on_c, 10, 55, 0
16, 18540, Note_on_c, 10, 53, 72
16, 18569, Note_on_c, 10, 53, 0
16, 18570, Note_on_c, 10, 55, 72
16, 18599, Note_on_c, 10, 55, 0
16, 18600, Note_on_c, 10, 57, 72
16, 18629, Note_on_c, 10, 57, 0
16, 18630, Note_on_c, 10, 55, 72
16, 18659, Note_on_c, 10, 55, 0
16, 18660, Note_on_c, 10, 57, 72
16, 18689, Note_on_c, 10, 57, 0
16, 18690, Note_on_c, 10, 53, 72
16, 18719, Note_on_c, 10, 53, 0
16, 18720, Note_on_c, 10, 60, 72
16, 18779, Note_on_c, 10, 60, 0
16, 18780, Note_on_c, 10, 48, 72
16, 18839, Note_on_c, 10, 48, 0
16, 18960, Note_on_c, 10, 60, 72
16, 19079, Note_on_c, 10, 60, 0
16, 19080, Note_on_c, 10, 64, 72
16, 19199, Note_on_c, 10, 64, 0
16, 19200, Note_on_c, 10, 65, 72
16, 19319, Note_on_c, 10, 65, 0
16, 19440, Note_on_c, 10, 57, 72
16, 19559, Note_on_c, 10, 57, 0
16, 19560, Note_on_c, 10, 61, 72
16, 19679, Note_on_c, 10, 61, 0
16, 19680, Note_on_c, 10, 62, 72
16, 19799, Note_on_c, 10, 62, 0
16, 19920, Note_on_c, 10, 53, 72
16, 20039, Note_on_c, 10, 53, 0
16, 20040, Note_on_c, 10, 57, 72
16, 20159, Note_on_c, 10, 57, 0
16, 20160, Note_on_c, 10, 58, 72
16, 20279, Note_on_c, 10, 58, 0
16, 20460, Note_on_c, 10, 62, 72
16, 20519, Note_on_c, 10, 62, 0
16, 20520, Note_on_c, 10, 62, 72
16, 20579, Note_on_c, 10, 62, 0
16, 20580, Note_on_c, 10, 62, 72
16, 20639, Note_on_c, 10, 62, 0
16, 20640, Note_on_c, 10, 65, 72
16, 20729, Note_on_c, 10, 65, 0
16, 20730, Note_on_c, 10, 64, 72
16, 20759, Note_on_c, 10, 64, 0
16, 20760, Note_on_c, 10, 62, 72
16, 20879, Note_on_c, 10, 62, 0
16, 20940, Note_on_c, 10, 62, 72
16, 20999, Note_on_c, 10, 62, 0
16, 21000, Note_on_c, 10, 62, 72
16, 21059, Note_on_c, 10, 62, 0
16, 21060, Note_on_c, 10, 62, 72
16, 21119, Note_on_c, 10, 62, 0
16, 21120, Note_on_c, 10, 62, 72
16, 21209, Note_on_c, 10, 62, 0
16, 21210, Note_on_c, 10, 60, 72
16, 21239, Note_on_c, 10, 60, 0
16, 21240, Note_on_c, 10, 59, 72
16, 21359, Note_on_c, 10, 59, 0
16, 21360, Note_on_c, 10, 62, 72
16, 21479, Note_on_c, 10, 62, 0
16, 21480, Note_on_c, 10, 64, 72
16, 21539, Note_on_c, 10, 64, 0
16, 21540, Note_on_c, 10, 65, 72
16, 21599, Note_on_c, 10, 65, 0
16, 21600, Note_on_c, 10, 65, 72
16, 21659, Note_on_c, 10, 65, 0
16, 21660, Note_on_c, 10, 64, 72
16, 21719, Note_on_c, 10, 64, 0
16, 21780, Note_on_c, 10, 61, 48
16, 21839, Note_on_c, 10, 61, 0
16, 21840, Note_on_c, 10, 62, 48
16, 21959, Note_on_c, 10, 62, 0
16, 21960, Note_on_c, 10, 64, 48
16, 22079, Note_on_c, 10, 64, 0
16, 22080, Note_on_c, 10, 62, 48
16, 22169, Note_on_c, 10, 62, 0
16, 22170, Note_on_c, 10, 62, 48
16, 22199, Note_on_c, 10, 62, 0
16, 22200, Note_on_c, 10, 57, 48
16, 22319, Note_on_c, 10, 57, 0
16, 22320, Note_on_c, 10, 53, 48
16, 22439, Note_on_c, 10, 53, 0
16, 22440, Note_on_c, 10, 52, 48
16, 22499, Note_on_c, 10, 52, 0
16, 22500, Note_on_c, 10, 50, 48
16, 22559, Note_on_c, 10, 50, 0
16, 22560, Note_on_c, 10, 57, 48
16, 22799, Note_on_c, 10, 57, 0
16, 22800, Note_on_c, 10, 57, 48
16, 23039, Note_on_c, 10, 57, 0
16, 25260, Note_on_c, 10, 59, 72
16, 25319, Note_on_c, 10, 59, 0
16, 25320, Note_on_c, 10, 59, 72
16, 25379, Note_on_c, 10, 59, 0
16, 25380, Note_on_c, 10, 59, 72
16, 25439, Note_on_c, 10, 59, 0
16, 25440, Note_on_c, 10, 60, 72
16, 25469, Note_on_c, 10, 60, 0
16, 25470, Note_on_c, 10, 62, 72
16, 25499, Note_on_c, 10, 62, 0
16, 25500, Note_on_c, 10, 60, 72
16, 25529, Note_on_c, 10, 60, 0
16, 25530, Note_on_c, 10, 59, 72
16, 25559, Note_on_c, 10, 59, 0
16, 25560, Note_on_c, 10, 60, 72
16, 25589, Note_on_c, 10, 60, 0
16, 25590, Note_on_c, 10, 62, 72
16, 25619, Note_on_c, 10, 62, 0
16, 25620, Note_on_c, 10, 59, 72
16, 25649, Note_on_c, 10, 59, 0
16, 25650, Note_on_c, 10, 60, 72
16, 25679, Note_on_c, 10, 60, 0
16, 25680, Note_on_c, 10, 62, 72
16, 25709, Note_on_c, 10, 62, 0
16, 25710, Note_on_c, 10, 64, 72
16, 25739, Note_on_c, 10, 64, 0
16, 25740, Note_on_c, 10, 62, 72
16, 25769, Note_on_c, 10, 62, 0
16, 25770, Note_on_c, 10, 60, 72
16, 25799, Note_on_c, 10, 60, 0
16, 25800, Note_on_c, 10, 62, 72
16, 25829, Note_on_c, 10, 62, 0
16, 25830, Note_on_c, 10, 64, 72
16, 25859, Note_on_c, 10, 64, 0
16, 25860, Note_on_c, 10, 60, 72
16, 25889, Note_on_c, 10, 60, 0
16, 25890, Note_on_c, 10, 62, 72
16, 25919, Note_on_c, 10, 62, 0
16, 25920, Note_on_c, 10, 64, 72
16, 25979, Note_on_c, 10, 64, 0
16, 25980, Note_on_c, 10, 65, 72
16, 26009, Note_on_c, 10, 65, 0
16, 26010, Note_on_c, 10, 64, 72
16, 26039, Note_on_c, 10, 64, 0
16, 26040, Note_on_c, 10, 62, 72
16, 26069, Note_on_c, 10, 62, 0
16, 26070, Note_on_c, 10, 60, 72
16, 26099, Note_on_c, 10, 60, 0
16, 26100, Note_on_c, 10, 59, 72
16, 26129, Note_on_c, 10, 59, 0
16, 26130, Note_on_c, 10, 57, 72
16, 26159, Note_on_c, 10, 57, 0
16, 26160, Note_on_c, 10, 56, 72
16, 26219, Note_on_c, 10, 56, 0
16, 26220, Note_on_c, 10, 59, 72
16, 26279, Note_on_c, 10, 59, 0
16, 26280, Note_on_c, 10, 64, 72
16, 26339, Note_on_c, 10, 64, 0
16, 26340, Note_on_c, 10, 62, 72
16, 26399, Note_on_c, 10, 62, 0
16, 26400, Note_on_c, 10, 60, 72
16, 26459, Note_on_c, 10, 60, 0
16, 26460, Note_on_c, 10, 61, 72
16, 26519, Note_on_c, 10, 61, 0
16, 26520, Note_on_c, 10, 62, 72
16, 26579, Note_on_c, 10, 62, 0
16, 26580, Note_on_c, 10, 64, 72
16, 26639, Note_on_c, 10, 64, 0
16, 26640, Note_on_c, 10, 57, 72
16, 26699, Note_on_c, 10, 57, 0
16, 26700, Note_on_c, 10, 50, 72
16, 26759, Note_on_c, 10, 50, 0
16, 26760, Note_on_c, 10, 55, 72
16, 26819, Note_on_c, 10, 55, 0
16, 26820, Note_on_c, 10, 53, 72
16, 26879, Note_on_c, 10, 53, 0
16, 26880, Note_on_c, 10, 52, 72
16, 26939, Note_on_c, 10, 52, 0
16, 26940, Note_on_c, 10, 53, 72
16, 26999, Note_on_c, 10, 53, 0
16, 27000, Note_on_c, 10, 58, 72
16, 27119, Note_on_c, 10, 58, 0
16, 27120, Note_on_c, 10, 57, 72
16, 27239, Note_on_c, 10, 57, 0
16, 28080, Note_on_c, 10, 62, 72
16, 28259, Note_on_c, 10, 62, 0
16, 28260, Note_on_c, 10, 62, 72
16, 28319, Note_on_c, 10, 62, 0
16, 28320, Note_on_c, 10, 60, 72
16, 28439, Note_on_c, 10, 60, 0
16, 28440, Note_on_c, 10, 65, 72
16, 28559, Note_on_c, 10, 65, 0
16, 28560, Note_on_c, 10, 56, 72
16, 28739, Note_on_c, 10, 56, 0
16, 28740, Note_on_c, 10, 56, 72
16, 28799, Note_on_c, 10, 56, 0
16, 28800, Note_on_c, 10, 57, 72
16, 28919, Note_on_c, 10, 57, 0
16, 28980, Note_on_c, 10, 57, 72
16, 29039, Note_on_c, 10, 57, 0
16, 29040, Note_on_c, 10, 59, 72
16, 29219, Note_on_c, 10, 59, 0
16, 29220, Note_on_c, 10, 57, 72
16, 29249, Note_on_c, 10, 57, 0
16, 29250, Note_on_c, 10, 59, 72
16, 29279, Note_on_c, 10, 59, 0
16, 29280, Note_on_c, 10, 60, 72
16, 29339, Note_on_c, 10, 60, 0
16, 29340, Note_on_c, 10, 59, 72
16, 29369, Note_on_c, 10, 59, 0
16, 29370, Note_on_c, 10, 60, 72
16, 29399, Note_on_c, 10, 60, 0
16, 29400, Note_on_c, 10, 62, 72
16, 29459, Note_on_c, 10, 62, 0
16, 29460, Note_on_c, 10, 60, 72
16, 29489, Note_on_c, 10, 60, 0
16, 29490, Note_on_c, 10, 62, 72
16, 29519, Note_on_c, 10, 62, 0
16, 29520, Note_on_c, 10, 64, 72
16, 29579, Note_on_c, 10, 64, 0
16, 29580, Note_on_c, 10, 62, 72
16, 29639, Note_on_c, 10, 62, 0
16, 29640, Note_on_c, 10, 60, 72
16, 29699, Note_on_c, 10, 60, 0
16, 29700, Note_on_c, 10, 59, 72
16, 29759, Note_on_c, 10, 59, 0
16, 29760, Note_on_c, 10, 57, 72
16, 29789, Note_on_c, 10, 57, 0
16, 29790, Note_on_c, 10, 59, 72
16, 29819, Note_on_c, 10, 59, 0
16, 29820, Note_on_c, 10, 60, 72
16, 29939, Note_on_c, 10, 60, 0
16, 29940, Note_on_c, 10, 61, 72
16, 29999, Note_on_c, 10, 61, 0
16, 30000, Note_on_c, 10, 62, 72
16, 30059, Note_on_c, 10, 62, 0
16, 30060, Note_on_c, 10, 50, 72
16, 30119, Note_on_c, 10, 50, 0
16, 30120, Note_on_c, 10, 52, 72
16, 30179, Note_on_c, 10, 52, 0
16, 30180, Note_on_c, 10, 54, 72
16, 30239, Note_on_c, 10, 54, 0
16, 30240, Note_on_c, 10, 55, 72
16, 30269, Note_on_c, 10, 55, 0
16, 30270, Note_on_c, 10, 57, 72
16, 30299, Note_on_c, 10, 57, 0
16, 30300, Note_on_c, 10, 58, 72
16, 30419, Note_on_c, 10, 58, 0
16, 30420, Note_on_c, 10, 59, 72
16, 30479, Note_on_c, 10, 59, 0
16, 30480, Note_on_c, 10, 60, 72
16, 30539, Note_on_c, 10, 60, 0
16, 30540, Note_on_c, 10, 58, 72
16, 30599, Note_on_c, 10, 58, 0
16, 30600, Note_on_c, 10, 57, 72
16, 30659, Note_on_c, 10, 57, 0
16, 30660, Note_on_c, 10, 55, 72
16, 30719, Note_on_c, 10, 55, 0
16, 30720, Note_on_c, 10, 57, 72
16, 30749, Note_on_c, 10, 57, 0
16, 30750, Note_on_c, 10, 53, 72
16, 30779, Note_on_c, 10, 53, 0
16, 30780, Note_on_c, 10, 55, 72
16, 30809, Note_on_c, 10, 55, 0
16, 30810, Note_on_c, 10, 57, 72
16, 30839, Note_on_c, 10, 57, 0
16, 30840, Note_on_c, 10, 58, 72
16, 30869, Note_on_c, 10, 58, 0
16, 30870, Note_on_c, 10, 55, 72
16, 30899, Note_on_c, 10, 55, 0
16, 30900, Note_on_c, 10, 57, 72
16, 30929, Note_on_c, 10, 57, 0
16, 30930, Note_on_c, 10, 58, 72
16, 30959, Note_on_c, 10, 58, 0
16, 30960, Note_on_c, 10, 60, 72
16, 31019, Note_on_c, 10, 60, 0
16, 31020, Note_on_c, 10, 55, 72
16, 31079, Note_on_c, 10, 55, 0
16, 31080, Note_on_c, 10, 60, 72
16, 31259, Note_on_c, 10, 60, 0
16, 31260, Note_on_c, 10, 58, 72
16, 31289, Note_on_c, 10, 58, 0
16, 31290, Note_on_c, 10, 57, 72
16, 31319, Note_on_c, 10, 57, 0
16, 31320, Note_on_c, 10, 58, 72
16, 31349, Note_on_c, 10, 58, 0
16, 31350, Note_on_c, 10, 60, 72
16, 31379, Note_on_c, 10, 60, 0
16, 31380, Note_on_c, 10, 57, 72
16, 31409, Note_on_c, 10, 57, 0
16, 31410, Note_on_c, 10, 58, 72
16, 31439, Note_on_c, 10, 58, 0
16, 31440, Note_on_c, 10, 55, 72
16, 31499, Note_on_c, 10, 55, 0
16, 31500, Note_on_c, 10, 57, 72
16, 31529, Note_on_c, 10, 57, 0
16, 31530, Note_on_c, 10, 58, 72
16, 31559, Note_on_c, 10, 58, 0
16, 31560, Note_on_c, 10, 60, 72
16, 31679, Note_on_c, 10, 60, 0
16, 32160, Note_on_c, 10, 62, 72
16, 32339, Note_on_c, 10, 62, 0
16, 32340, Note_on_c, 10, 62, 72
16, 32399, Note_on_c, 10, 62, 0
16, 32400, Note_on_c, 10, 58, 72
16, 32519, Note_on_c, 10, 58, 0
16, 32520, Note_on_c, 10, 63, 72
16, 32639, Note_on_c, 10, 63, 0
16, 32640, Note_on_c, 10, 54, 72
16, 32819, Note_on_c, 10, 54, 0
16, 32820, Note_on_c, 10, 54, 72
16, 32879, Note_on_c, 10, 54, 0
16, 32880, Note_on_c, 10, 55, 72
16, 32999, Note_on_c, 10, 55, 0
16, 33060, Note_on_c, 10, 55, 72
16, 33119, Note_on_c, 10, 55, 0
16, 33120, Note_on_c, 10, 57, 72
16, 33299, Note_on_c, 10, 57, 0
16, 33300, Note_on_c, 10, 55, 72
16, 33329, Note_on_c, 10, 55, 0
16, 33330, Note_on_c, 10, 57, 72
16, 33359, Note_on_c, 10, 57, 0
16, 33360, Note_on_c, 10, 58, 72
16, 33419, Note_on_c, 10, 58, 0
16, 33420, Note_on_c, 10, 57, 72
16, 33449, Note_on_c, 10, 57, 0
16, 33450, Note_on_c, 10, 58, 72
16, 33479, Note_on_c, 10, 58, 0
16, 33480, Note_on_c, 10, 60, 72
16, 33539, Note_on_c, 10, 60, 0
16, 33540, Note_on_c, 10, 58, 72
16, 33569, Note_on_c, 10, 58, 0
16, 33570, Note_on_c, 10, 60, 72
16, 33599, Note_on_c, 10, 60, 0
16, 33600, Note_on_c, 10, 62, 72
16, 33659, Note_on_c, 10, 62, 0
16, 33660, Note_on_c, 10, 60, 72
16, 33719, Note_on_c, 10, 60, 0
16, 33720, Note_on_c, 10, 58, 72
16, 33779, Note_on_c, 10, 58, 0
16, 33780, Note_on_c, 10, 57, 72
16, 33839, Note_on_c, 10, 57, 0
16, 33840, Note_on_c, 10, 55, 72
16, 33899, Note_on_c, 10, 55, 0
16, 33900, Note_on_c, 10, 65, 72
16, 33959, Note_on_c, 10, 65, 0
16, 33960, Note_on_c, 10, 63, 72
16, 34019, Note_on_c, 10, 63, 0
16, 34020, Note_on_c, 10, 59, 72
16, 34079, Note_on_c, 10, 59, 0
16, 34080, Note_on_c, 10, 60, 72
16, 34139, Note_on_c, 10, 60, 0
16, 34140, Note_on_c, 10, 67, 72
16, 34199, Note_on_c, 10, 67, 0
16, 34200, Note_on_c, 10, 65, 72
16, 34229, Note_on_c, 10, 65, 0
16, 34230, Note_on_c, 10, 63, 72
16, 34259, Note_on_c, 10, 63, 0
16, 34260, Note_on_c, 10, 62, 72
16, 34289, Note_on_c, 10, 62, 0
16, 34290, Note_on_c, 10, 60, 72
16, 34319, Note_on_c, 10, 60, 0
16, 34320, Note_on_c, 10, 62, 72
16, 34349, Note_on_c, 10, 62, 0
16, 34350, Note_on_c, 10, 60, 72
16, 34379, Note_on_c, 10, 60, 0
16, 34380, Note_on_c, 10, 59, 72
16, 34409, Note_on_c, 10, 59, 0
16, 34410, Note_on_c, 10, 57, 72
16, 34439, Note_on_c, 10, 57, 0
16, 34440, Note_on_c, 10, 55, 72
16, 34469, Note_on_c, 10, 55, 0
16, 34470, Note_on_c, 10, 56, 72
16, 34499, Note_on_c, 10, 56, 0
16, 34500, Note_on_c, 10, 53, 72
16, 34529, Note_on_c, 10, 53, 0
16, 34530, Note_on_c, 10, 55, 72
16, 34559, Note_on_c, 10, 55, 0
16, 34560, Note_on_c, 10, 51, 72
16, 34619, Note_on_c, 10, 51, 0
16, 34620, Note_on_c, 10, 48, 72
16, 34679, Note_on_c, 10, 48, 0
16, 34680, Note_on_c, 10, 56, 72
16, 34859, Note_on_c, 10, 56, 0
16, 34860, Note_on_c, 10, 53, 72
16, 34919, Note_on_c, 10, 53, 0
16, 34920, Note_on_c, 10, 58, 72
16, 35159, Note_on_c, 10, 58, 0
16, 35160, Note_on_c, 10, 56, 72
16, 35279, Note_on_c, 10, 56, 0
16, 35280, Note_on_c, 10, 55, 72
16, 35339, Note_on_c, 10, 55, 0
16, 35340, Note_on_c, 10, 57, 72
16, 35369, Note_on_c, 10, 57, 0
16, 35370, Note_on_c, 10, 59, 72
16, 35399, Note_on_c, 10, 59, 0
16, 35400, Note_on_c, 10, 60, 72
16, 35459, Note_on_c, 10, 60, 0
16, 35460, Note_on_c, 10, 62, 72
16, 35519, Note_on_c, 10, 62, 0
16, 35520, Note_on_c, 10, 63, 72
16, 35549, Note_on_c, 10, 63, 0
16, 35550, Note_on_c, 10, 62, 72
16, 35579, Note_on_c, 10, 62, 0
16, 35580, Note_on_c, 10, 60, 72
16, 35609, Note_on_c, 10, 60, 0
16, 35610, Note_on_c, 10, 58, 72
16, 35639, Note_on_c, 10, 58, 0
16, 35640, Note_on_c, 10, 57, 72
16, 35699, Note_on_c, 10, 57, 0
16, 35700, Note_on_c, 10, 58, 72
16, 35819, Note_on_c, 10, 58, 0
16, 35820, Note_on_c, 10, 57, 72
16, 35879, Note_on_c, 10, 57, 0
16, 35880, Note_on_c, 10, 58, 72
16, 35939, Note_on_c, 10, 58, 0
16, 35940, Note_on_c, 10, 60, 72
16, 35999, Note_on_c, 10, 60, 0
16, 36000, Note_on_c, 10, 62, 72
16, 36119, Note_on_c, 10, 62, 0
16, 36300, Note_on_c, 10, 53, 72
16, 36359, Note_on_c, 10, 53, 0
16, 36360, Note_on_c, 10, 53, 72
16, 36419, Note_on_c, 10, 53, 0
16, 36420, Note_on_c, 10, 53, 72
16, 36479, Note_on_c, 10, 53, 0
16, 36480, Note_on_c, 10, 55, 72
16, 36509, Note_on_c, 10, 55, 0
16, 36510, Note_on_c, 10, 57, 72
16, 36539, Note_on_c, 10, 57, 0
16, 36540, Note_on_c, 10, 55, 72
16, 36569, Note_on_c, 10, 55, 0
16, 36570, Note_on_c, 10, 53, 72
16, 36599, Note_on_c, 10, 53, 0
16, 36600, Note_on_c, 10, 55, 72
16, 36629, Note_on_c, 10, 55, 0
16, 36630, Note_on_c, 10, 57, 72
16, 36659, Note_on_c, 10, 57, 0
16, 36660, Note_on_c, 10, 53, 72
16, 36689, Note_on_c, 10, 53, 0
16, 36690, Note_on_c, 10, 55, 72
16, 36719, Note_on_c, 10, 55, 0
16, 36720, Note_on_c, 10, 57, 72
16, 36749, Note_on_c, 10, 57, 0
16, 36750, Note_on_c, 10, 58, 72
16, 36779, Note_on_c, 10, 58, 0
16, 36780, Note_on_c, 10, 57, 72
16, 36809, Note_on_c, 10, 57, 0
16, 36810, Note_on_c, 10, 55, 72
16, 36839, Note_on_c, 10, 55, 0
16, 36840, Note_on_c, 10, 57, 72
16, 36869, Note_on_c, 10, 57, 0
16, 36870, Note_on_c, 10, 58, 72
16, 36899, Note_on_c, 10, 58, 0
16, 36900, Note_on_c, 10, 55, 72
16, 36929, Note_on_c, 10, 55, 0
16, 36930, Note_on_c, 10, 57, 72
16, 36959, Note_on_c, 10, 57, 0
16, 36960, Note_on_c, 10, 58, 72
16, 37079, Note_on_c, 10, 58, 0
16, 37260, Note_on_c, 10, 60, 72
16, 37319, Note_on_c, 10, 60, 0
16, 37320, Note_on_c, 10, 60, 72
16, 37379, Note_on_c, 10, 60, 0
16, 37380, Note_on_c, 10, 60, 72
16, 37439, Note_on_c, 10, 60, 0
16, 37440, Note_on_c, 10, 62, 72
16, 37469, Note_on_c, 10, 62, 0
16, 37470, Note_on_c, 10, 63, 72
16, 37499, Note_on_c, 10, 63, 0
16, 37500, Note_on_c, 10, 62, 72
16, 37529, Note_on_c, 10, 62, 0
16, 37530, Note_on_c, 10, 60, 72
16, 37559, Note_on_c, 10, 60, 0
16, 37560, Note_on_c, 10, 62, 72
16, 37589, Note_on_c, 10, 62, 0
16, 37590, Note_on_c, 10, 63, 72
16, 37619, Note_on_c, 10, 63, 0
16, 37620, Note_on_c, 10, 60, 72
16, 37649, Note_on_c, 10, 60, 0
16, 37650, Note_on_c, 10, 62, 72
16, 37679, Note_on_c, 10, 62, 0
16, 37680, Note_on_c, 10, 63, 72
16, 37709, Note_on_c, 10, 63, 0
16, 37710, Note_on_c, 10, 65, 72
16, 37739, Note_on_c, 10, 65, 0
16, 37740, Note_on_c, 10, 63, 72
16, 37769, Note_on_c, 10, 63, 0
16, 37770, Note_on_c, 10, 62, 72
16, 37799, Note_on_c, 10, 62, 0
16, 37800, Note_on_c, 10, 63, 72
16, 37829, Note_on_c, 10, 63, 0
16, 37830, Note_on_c, 10, 65, 72
16, 37859, Note_on_c, 10, 65, 0
16, 37860, Note_on_c, 10, 62, 72
16, 37889, Note_on_c, 10, 62, 0
16, 37890, Note_on_c, 10, 63, 72
16, 37919, Note_on_c, 10, 63, 0
16, 37920, Note_on_c, 10, 65, 72
16, 37979, Note_on_c, 10, 65, 0
16, 37980, Note_on_c, 10, 62, 72
16, 38039, Note_on_c, 10, 62, 0
16, 38040, Note_on_c, 10, 64, 72
16, 38099, Note_on_c, 10, 64, 0
16, 38100, Note_on_c, 10, 65, 72
16, 38159, Note_on_c, 10, 65, 0
16, 38160, Note_on_c, 10, 67, 72
16, 38279, Note_on_c, 10, 67, 0
16, 38280, Note_on_c, 10, 65, 72
16, 38339, Note_on_c, 10, 65, 0
16, 38340, Note_on_c, 10, 64, 72
16, 38399, Note_on_c, 10, 64, 0
16, 38400, Note_on_c, 10, 65, 72
16, 38459, Note_on_c, 10, 65, 0
16, 38460, Note_on_c, 10, 53, 72
16, 38519, Note_on_c, 10, 53, 0
16, 38520, Note_on_c, 10, 58, 72
16, 38579, Note_on_c, 10, 58, 0
16, 38580, Note_on_c, 10, 55, 72
16, 38639, Note_on_c, 10, 55, 0
16, 38640, Note_on_c, 10, 60, 72
16, 38759, Note_on_c, 10, 60, 0
16, 39180, Note_on_c, 10, 55, 72
16, 39239, Note_on_c, 10, 55, 0
16, 39240, Note_on_c, 10, 55, 72
16, 39299, Note_on_c, 10, 55, 0
16, 39300, Note_on_c, 10, 55, 72
16, 39359, Note_on_c, 10, 55, 0
16, 39360, Note_on_c, 10, 56, 72
16, 39389, Note_on_c, 10, 56, 0
16, 39390, Note_on_c, 10, 58, 72
16, 39419, Note_on_c, 10, 58, 0
16, 39420, Note_on_c, 10, 56, 72
16, 39449, Note_on_c, 10, 56, 0
16, 39450, Note_on_c, 10, 55, 72
16, 39479, Note_on_c, 10, 55, 0
16, 39480, Note_on_c, 10, 57, 72
16, 39509, Note_on_c, 10, 57, 0
16, 39510, Note_on_c, 10, 58, 72
16, 39539, Note_on_c, 10, 58, 0
16, 39540, Note_on_c, 10, 55, 72
16, 39569, Note_on_c, 10, 55, 0
16, 39570, Note_on_c, 10, 57, 72
16, 39599, Note_on_c, 10, 57, 0
16, 39600, Note_on_c, 10, 58, 72
16, 39629, Note_on_c, 10, 58, 0
16, 39630, Note_on_c, 10, 60, 72
16, 39659, Note_on_c, 10, 60, 0
16, 39660, Note_on_c, 10, 58, 72
16, 39689, Note_on_c, 10, 58, 0
16, 39690, Note_on_c, 10, 57, 72
16, 39719, Note_on_c, 10, 57, 0
16, 39720, Note_on_c, 10, 59, 72
16, 39749, Note_on_c, 10, 59, 0
16, 39750, Note_on_c, 10, 60, 72
16, 39779, Note_on_c, 10, 60, 0
16, 39780, Note_on_c, 10, 57, 72
16, 39809, Note_on_c, 10, 57, 0
16, 39810, Note_on_c, 10, 59, 72
16, 39839, Note_on_c, 10, 59, 0
16, 39840, Note_on_c, 10, 60, 72
16, 39899, Note_on_c, 10, 60, 0
16, 39900, Note_on_c, 10, 55, 72
16, 39959, Note_on_c, 10, 55, 0
16, 39960, Note_on_c, 10, 60, 72
16, 40019, Note_on_c, 10, 60, 0
16, 40020, Note_on_c, 10, 58, 72
16, 40079, Note_on_c, 10, 58, 0
16, 40080, Note_on_c, 10, 57, 72
16, 40139, Note_on_c, 10, 57, 0
16, 40140, Note_on_c, 10, 50, 72
16, 40199, Note_on_c, 10, 50, 0
16, 40200, Note_on_c, 10, 62, 72
16, 40259, Note_on_c, 10, 62, 0
16, 40260, Note_on_c, 10, 60, 72
16, 40319, Note_on_c, 10, 60, 0
16, 40320, Note_on_c, 10, 58, 72
16, 40439, Note_on_c, 10, 58, 0
16, 40620, Note_on_c, 10, 55, 72
16, 40679, Note_on_c, 10, 55, 0
16, 40680, Note_on_c, 10, 55, 72
16, 40739, Note_on_c, 10, 55, 0
16, 40740, Note_on_c, 10, 57, 72
16, 40799, Note_on_c, 10, 57, 0
16, 40800, Note_on_c, 10, 57, 72
16, 40919, Note_on_c, 10, 57, 0
16, 40920, Note_on_c, 10, 57, 72
16, 41009, Note_on_c, 10, 57, 0
16, 41010, Note_on_c, 10, 57, 72
16, 41039, Note_on_c, 10, 57, 0
16, 41040, Note_on_c, 10, 59, 72
16, 41159, Note_on_c, 10, 59, 0
16, 41160, Note_on_c, 10, 59, 72
16, 41249, Note_on_c, 10, 59, 0
16, 41250, Note_on_c, 10, 59, 72
16, 41279, Note_on_c, 10, 59, 0
16, 41280, Note_on_c, 10, 61, 72
16, 41339, Note_on_c, 10, 61, 0
16, 41340, Note_on_c, 10, 57, 72
16, 41399, Note_on_c, 10, 57, 0
16, 41400, Note_on_c, 10, 59, 72
16, 41459, Note_on_c, 10, 59, 0
16, 41460, Note_on_c, 10, 61, 72
16, 41519, Note_on_c, 10, 61, 0
16, 41520, Note_on_c, 10, 62, 72
16, 41699, Note_on_c, 10, 62, 0
16, 41700, Note_on_c, 10, 62, 72
16, 41759, Note_on_c, 10, 62, 0
16, 41760, Note_on_c, 10, 64, 72
16, 41879, Note_on_c, 10, 64, 0
16, 41880, Note_on_c, 10, 57, 72
16, 42059, Note_on_c, 10, 57, 0
16, 42060, Note_on_c, 10, 53, 72
16, 42119, Note_on_c, 10, 53, 0
16, 42120, Note_on_c, 10, 58, 72
16, 42299, Note_on_c, 10, 58, 0
16, 42300, Note_on_c, 10, 55, 72
16, 42359, Note_on_c, 10, 55, 0
16, 42360, Note_on_c, 10, 64, 72
16, 42419, Note_on_c, 10, 64, 0
16, 42420, Note_on_c, 10, 64, 72
16, 42479, Note_on_c, 10, 64, 0
16, 42480, Note_on_c, 10, 62, 72
16, 42539, Note_on_c, 10, 62, 0
16, 42540, Note_on_c, 10, 61, 72
16, 42569, Note_on_c, 10, 61, 0
16, 42570, Note_on_c, 10, 62, 72
16, 42599, Note_on_c, 10, 62, 0
16, 42600, Note_on_c, 10, 64, 72
16, 42629, Note_on_c, 10, 64, 0
16, 42630, Note_on_c, 10, 65, 72
16, 42659, Note_on_c, 10, 65, 0
16, 42660, Note_on_c, 10, 67, 72
16, 42689, Note_on_c, 10, 67, 0
16, 42690, Note_on_c, 10, 65, 72
16, 42719, Note_on_c, 10, 65, 0
16, 42720, Note_on_c, 10, 64, 72
16, 42779, Note_on_c, 10, 64, 0
16, 42780, Note_on_c, 10, 62, 72
16, 42839, Note_on_c, 10, 62, 0
16, 42840, Note_on_c, 10, 61, 72
16, 42929, Note_on_c, 10, 61, 0
16, 42930, Note_on_c, 10, 62, 72
16, 42959, Note_on_c, 10, 62, 0
16, 42960, Note_on_c, 10, 64, 72
16, 43079, Note_on_c, 10, 64, 0
16, 43080, Note_on_c, 10, 57, 72
16, 43139, Note_on_c, 10, 57, 0
16, 43140, Note_on_c, 10, 60, 72
16, 43199, Note_on_c, 10, 60, 0
16, 43200, Note_on_c, 10, 62, 72
16, 43259, Note_on_c, 10, 62, 0
16, 43260, Note_on_c, 10, 65, 72
16, 43319, Note_on_c, 10, 65, 0
16, 43320, Note_on_c, 10, 64, 72
16, 43379, Note_on_c, 10, 64, 0
16, 43380, Note_on_c, 10, 62, 72
16, 43439, Note_on_c, 10, 62, 0
16, 43440, Note_on_c, 10, 64, 72
16, 43499, Note_on_c, 10, 64, 0
16, 43500, Note_on_c, 10, 57, 72
16, 43559, Note_on_c, 10, 57, 0
16, 43560, Note_on_c, 10, 59, 72
16, 43619, Note_on_c, 10, 59, 0
16, 43620, Note_on_c, 10, 61, 72
16, 43679, Note_on_c, 10, 61, 0
16, 43680, Note_on_c, 10, 62, 72
16, 43739, Note_on_c, 10, 62, 0
16, 43740, Note_on_c, 10, 50, 72
16, 43799, Note_on_c, 10, 50, 0
16, 43800, Note_on_c, 10, 55, 72
16, 43859, Note_on_c, 10, 55, 0
16, 43860, Note_on_c, 10, 52, 72
16, 43919, Note_on_c, 10, 52, 0
16, 43920, Note_on_c, 10, 57, 72
16, 43979, Note_on_c, 10, 57, 0
16, 43980, Note_on_c, 10, 58, 72
16, 44039, Note_on_c, 10, 58, 0
16, 44040, Note_on_c, 10, 57, 72
16, 44099, Note_on_c, 10, 57, 0
16, 44100, Note_on_c, 10, 55, 72
16, 44159, Note_on_c, 10, 55, 0
16, 44160, Note_on_c, 10, 53, 72
16, 44219, Note_on_c, 10, 53, 0
16, 44220, Note_on_c, 10, 50, 72
16, 44279, Note_on_c, 10, 50, 0
16, 44280, Note_on_c, 10, 55, 72
16, 44339, Note_on_c, 10, 55, 0
16, 44340, Note_on_c, 10, 53, 72
16, 44399, Note_on_c, 10, 53, 0
16, 44400, Note_on_c, 10, 52, 72
16, 44459, Note_on_c, 10, 52, 0
16, 44460, Note_on_c, 10, 48, 72
16, 44519, Note_on_c, 10, 48, 0
16, 44520, Note_on_c, 10, 57, 72
16, 44579, Note_on_c, 10, 57, 0
16, 44580, Note_on_c, 10, 57, 72
16, 44639, Note_on_c, 10, 57, 0
16, 44640, Note_on_c, 10, 53, 72
16, 44759, Note_on_c, 10, 53, 0
16, 44760, Note_on_c, 10, 62, 72
16, 44879, Note_on_c, 10, 62, 0
16, 44880, Note_on_c, 10, 55, 72
16, 44999, Note_on_c, 10, 55, 0
16, 45180, Note_on_c, 10, 57, 72
16, 45239, Note_on_c, 10, 57, 0
16, 45240, Note_on_c, 10, 62, 72
16, 45299, Note_on_c, 10, 62, 0
16, 45300, Note_on_c, 10, 60, 72
16, 45359, Note_on_c, 10, 60, 0
16, 45360, Note_on_c, 10, 59, 72
16, 45419, Note_on_c, 10, 59, 0
16, 45420, Note_on_c, 10, 59, 72
16, 45479, Note_on_c, 10, 59, 0
16, 45480, Note_on_c, 10, 64, 72
16, 45539, Note_on_c, 10, 64, 0
16, 45540, Note_on_c, 10, 62, 72
16, 45599, Note_on_c, 10, 62, 0
16, 45600, Note_on_c, 10, 60, 72
16, 45719, Note_on_c, 10, 60, 0
16, 45720, Note_on_c, 10, 62, 72
16, 45809, Note_on_c, 10, 62, 0
16, 45810, Note_on_c, 10, 62, 72
16, 45839, Note_on_c, 10, 62, 0
16, 45840, Note_on_c, 10, 62, 72
16, 45959, Note_on_c, 10, 62, 0
16, 45960, Note_on_c, 10, 64, 72
16, 46049, Note_on_c, 10, 64, 0
16, 46050, Note_on_c, 10, 64, 72
16, 46079, Note_on_c, 10, 64, 0
16, 46080, Note_on_c, 10, 64, 72
16, 46199, Note_on_c, 10, 64, 0
16, 46200, Note_on_c, 10, 62, 72
16, 46259, Note_on_c, 10, 62, 0
16, 46260, Note_on_c, 10, 65, 72
16, 46319, Note_on_c, 10, 65, 0
16, 46320, Note_on_c, 10, 64, 72
16, 46499, Note_on_c, 10, 64, 0
16, 46500, Note_on_c, 10, 64, 72
16, 46559, Note_on_c, 10, 64, 0
16, 46560, Note_on_c, 10, 65, 72
16, 46799, Note_on_c, 10, 65, 0
16, 46920, Note_on_c, 10, 65, 72
16, 47009, Note_on_c, 10, 65, 0
16, 47010, Note_on_c, 10, 65, 72
16, 47039, Note_on_c, 10, 65, 0
16, 47040, Note_on_c, 10, 64, 72
16, 47159, Note_on_c, 10, 64, 0
16, 47160, Note_on_c, 10, 65, 72
16, 47279, Note_on_c, 10, 65, 0
16, 47280, Note_on_c, 10, 65, 72
16, 47399, Note_on_c, 10, 65, 0
16, 47400, Note_on_c, 10, 64, 72
16, 47519, Note_on_c, 10, 64, 0
16, 47520, Note_on_c, 10, 62, 72
16, 47999, Note_on_c, 10, 62, 0
16, 47999, End_track
17, 0, Start_track
17, 0, Title_t, "BaritoneTrombone"
17, 0, Program_c, 10, 57
17, 0, Control_c, 10, 7, 96
17, 0, Control_c, 10, 10, 90
17, 0, Control_c, 10, 11, 127
17, 3000, Note_on_c, 10, 55, 72
17, 3119, Note_on_c, 10, 55, 0
17, 3120, Note_on_c, 10, 53, 72
17, 3239, Note_on_c, 10, 53, 0
17, 3240, Note_on_c, 10, 52, 72
17, 3359, Note_on_c, 10, 52, 0
17, 3360, Note_on_c, 10, 50, 72
17, 3479, Note_on_c, 10, 50, 0
17, 3480, Note_on_c, 10, 50, 72
17, 3659, Note_on_c, 10, 50, 0
17, 3660, Note_on_c, 10, 50, 72
17, 3719, Note_on_c, 10, 50, 0
17, 3720, Note_on_c, 10, 49, 72
17, 3779, Note_on_c, 10, 49, 0
17, 3780, Note_on_c, 10, 49, 72
17, 3839, Note_on_c, 10, 49, 0
17, 3840, Note_on_c, 10, 50, 72
17, 3959, Note_on_c, 10, 50, 0
17, 3960, Note_on_c, 10, 52, 72
17, 4079, Note_on_c, 10, 52, 0
17, 4080, Note_on_c, 10, 53, 72
17, 4199, Note_on_c, 10, 53, 0
17, 4200, Note_on_c, 10, 52, 72
17, 4319, Note_on_c, 10, 52, 0
17, 4320, Note_on_c, 10, 50, 72
17, 4439, Note_on_c, 10, 50, 0
17, 4440, Note_on_c, 10, 52, 72
17, 4559, Note_on_c, 10, 52, 0
17, 4560, Note_on_c, 10, 53, 72
17, 4619, Note_on_c, 10, 53, 0
17, 4620, Note_on_c, 10, 52, 72
17, 4679, Note_on_c, 10, 52, 0
17, 4680, Note_on_c, 10, 50, 72
17, 4739, Note_on_c, 10, 50, 0
17, 4740, Note_on_c, 10, 55, 72
17, 4799, Note_on_c, 10, 55, 0
17, 4800, Note_on_c, 10, 48, 72
17, 4919, Note_on_c, 10, 48, 0
17, 4920, Note_on_c, 10, 50, 72
17, 5039, Note_on_c, 10, 50, 0
17, 5040, Note_on_c, 10, 55, 72
17, 5159, Note_on_c, 10, 55, 0
17, 5160, Note_on_c, 10, 48, 72
17, 5279, Note_on_c, 10, 48, 0
17, 5280, Note_on_c, 10, 53, 72
17, 5339, Note_on_c, 10, 53, 0
17, 5340, Note_on_c, 10, 53, 72
17, 5399, Note_on_c, 10, 53, 0
17, 5400, Note_on_c, 10, 58, 72
17, 5459, Note_on_c, 10, 58, 0
17, 5460, Note_on_c, 10, 57, 72
17, 5519, Note_on_c, 10, 57, 0
17, 5520, Note_on_c, 10, 55, 72
17, 5579, Note_on_c, 10, 55, 0
17, 5580, Note_on_c, 10, 53, 72
17, 5609, Note_on_c, 10, 53, 0
17, 5610, Note_on_c, 10, 52, 72
17, 5639, Note_on_c, 10, 52, 0
17, 5640, Note_on_c, 10, 57, 72
17, 5699, Note_on_c, 10, 57, 0
17, 5700, Note_on_c, 10, 55, 72
17, 5759, Note_on_c, 10, 55, 0
17, 5760, Note_on_c, 10, 53, 72
17, 5819, Note_on_c, 10, 53, 0
17, 5820, Note_on_c, 10, 52, 72
17, 5879, Note_on_c, 10, 52, 0
17, 5880, Note_on_c, 10, 50, 72
17, 5939, Note_on_c, 10, 50, 0
17, 5940, Note_on_c, 10, 49, 72
17, 5999, Note_on_c, 10, 49, 0
17, 6000, Note_on_c, 10, 50, 72
17, 6059, Note_on_c, 10, 50, 0
17, 6060, Note_on_c, 10, 50, 72
17, 6119, Note_on_c, 10, 50, 0
17, 6120, Note_on_c, 10, 48, 72
17, 6179, Note_on_c, 10, 48, 0
17, 6180, Note_on_c, 10, 48, 72
17, 6239, Note_on_c, 10, 48, 0
17, 6240, Note_on_c, 10, 46, 72
17, 6299, Note_on_c, 10, 46, 0
17, 6300, Note_on_c, 10, 46, 72
17, 6359, Note_on_c, 10, 46, 0
17, 6360, Note_on_c, 10, 58, 72
17, 6449, Note_on_c, 10, 58, 0
17, 6450, Note_on_c, 10, 58, 72
17, 6479, Note_on_c, 10, 58, 0
17, 6480, Note_on_c, 10, 57, 72
17, 6599, Note_on_c, 10, 57, 0
17, 6780, Note_on_c, 10, 53, 72
17, 6839, Note_on_c, 10, 53, 0
17, 6840, Note_on_c, 10, 53, 72
17, 6899, Note_on_c, 10, 53, 0
17, 6900, Note_on_c, 10, 53, 72
17, 6959, Note_on_c, 10, 53, 0
17, 6960, Note_on_c, 10, 53, 72
17, 7049, Note_on_c, 10, 53, 0
17, 7050, Note_on_c, 10, 53, 72
17, 7079, Note_on_c, 10, 53, 0
17, 7080, Note_on_c, 10, 53, 72
17, 7199, Note_on_c, 10, 53, 0
17, 7260, Note_on_c, 10, 53, 72
17, 7319, Note_on_c, 10, 53, 0
17, 7320, Note_on_c, 10, 53, 72
17, 7379, Note_on_c, 10, 53, 0
17, 7380, Note_on_c, 10, 53, 72
17, 7439, Note_on_c, 10, 53, 0
17, 7440, Note_on_c, 10, 53, 72
17, 7529, Note_on_c, 10, 53, 0
17, 7530, Note_on_c, 10, 53, 72
17, 7559, Note_on_c, 10, 53, 0
17, 7560, Note_on_c, 10, 53, 72
17, 7679, Note_on_c, 10, 53, 0
17, 7680, Note_on_c, 10, 51, 72
17, 7769, Note_on_c, 10, 51, 0
17, 7770, Note_on_c, 10, 51, 72
17, 7799, Note_on_c, 10, 51, 0
17, 7800, Note_on_c, 10, 50, 72
17, 7919, Note_on_c, 10, 50, 0
17, 8160, Note_on_c, 10, 51, 48
17, 8279, Note_on_c, 10, 51, 0
17, 8280, Note_on_c, 10, 52, 48
17, 8339, Note_on_c, 10, 52, 0
17, 8340, Note_on_c, 10, 52, 48
17, 8399, Note_on_c, 10, 52, 0
17, 8400, Note_on_c, 10, 53, 48
17, 8639, Note_on_c, 10, 53, 0
17, 8640, Note_on_c, 10, 46, 48
17, 8759, Note_on_c, 10, 46, 0
17, 12180, Note_on_c, 10, 55, 72
17, 12239, Note_on_c, 10, 55, 0
17, 12240, Note_on_c, 10, 57, 72
17, 12299, Note_on_c, 10, 57, 0
17, 12300, Note_on_c, 10, 57, 72
17, 12359, Note_on_c, 10, 57, 0
17, 12420, Note_on_c, 10, 57, 72
17, 12479, Note_on_c, 10, 57, 0
17, 12480, Note_on_c, 10, 58, 72
17, 12539, Note_on_c, 10, 58, 0
17, 12540, Note_on_c, 10, 46, 72
17, 12599, Note_on_c, 10, 46, 0
17, 12660, Note_on_c, 10, 58, 72
17, 12719, Note_on_c, 10, 58, 0
17, 12720, Note_on_c, 10, 54, 72
17, 12839, Note_on_c, 10, 54, 0
17, 12840, Note_on_c, 10, 54, 72
17, 12899, Note_on_c, 10, 54, 0
17, 12900, Note_on_c, 10, 54, 72
17, 12959, Note_on_c, 10, 54, 0
17, 12960, Note_on_c, 10, 55, 72
17, 13019, Note_on_c, 10, 55, 0
17, 13020, Note_on_c, 10, 55, 72
17, 13049, Note_on_c, 10, 55, 0
17, 13050, Note_on_c, 10, 55, 72
17, 13079, Note_on_c, 10, 55, 0
17, 13080, Note_on_c, 10, 55, 72
17, 13139, Note_on_c, 10, 55, 0
17, 13140, Note_on_c, 10, 55, 72
17, 13199, Note_on_c, 10, 55, 0
17, 13200, Note_on_c, 10, 48, 72
17, 13259, Note_on_c, 10, 48, 0
17, 13260, Note_on_c, 10, 50, 72
17, 13304, Note_on_c, 10, 50, 0
17, 13305, Note_on_c, 10, 51, 72
17, 13319, Note_on_c, 10, 51, 0
17, 13320, Note_on_c, 10, 53, 72
17, 13439, Note_on_c, 10, 53, 0
17, 13440, Note_on_c, 10, 46, 72
17, 13559, Note_on_c, 10, 46, 0
17, 13620, Note_on_c, 10, 58, 72
17, 13679, Note_on_c, 10, 58, 0
17, 13680, Note_on_c, 10, 55, 72
17, 13799, Note_on_c, 10, 55, 0
17, 13860, Note_on_c, 10, 55, 72
17, 13919, Note_on_c, 10, 55, 0
17, 13920, Note_on_c, 10, 52, 72
17, 14039, Note_on_c, 10, 52, 0
17, 14040, Note_on_c, 10, 52, 72
17, 14099, Note_on_c, 10, 52, 0
17, 14100, Note_on_c, 10, 52, 72
17, 14159, Note_on_c, 10, 52, 0
17, 14160, Note_on_c, 10, 51, 72
17, 14219, Note_on_c, 10, 51, 0
17, 14220, Note_on_c, 10, 51, 72
17, 14279, Note_on_c, 10, 51, 0
17, 14280, Note_on_c, 10, 51, 72
17, 14339, Note_on_c, 10, 51, 0
17, 14340, Note_on_c, 10, 51, 72
17, 14399, Note_on_c, 10, 51, 0
17, 14400, Note_on_c, 10, 50, 72
17, 14519, Note_on_c, 10, 50, 0
17, 14520, Note_on_c, 10, 49, 72
17, 14639, Note_on_c, 10, 49, 0
17, 14640, Note_on_c, 10, 50, 72
17, 14819, Note_on_c, 10, 50, 0
17, 14820, Note_on_c, 10, 50, 72
17, 14879, Note_on_c, 10, 50, 0
17, 14880, Note_on_c, 10, 50, 72
17, 14999, Note_on_c, 10, 50, 0
17, 15960, Note_on_c, 10, 50, 72
17, 16139, Note_on_c, 10, 50, 0
17, 16140, Note_on_c, 10, 50, 72
17, 16199, Note_on_c, 10, 50, 0
17, 16200, Note_on_c, 10, 49, 72
17, 16259, Note_on_c, 10, 49, 0
17, 16260, Note_on_c, 10, 49, 72
17, 16319, Note_on_c, 10, 49, 0
17, 16320, Note_on_c, 10, 50, 72
17, 16439, Note_on_c, 10, 50, 0
17, 16440, Note_on_c, 10, 52, 72
17, 16559, Note_on_c, 10, 52, 0
17, 16560, Note_on_c, 10, 53, 72
17, 16679, Note_on_c, 10, 53, 0
17, 16680, Note_on_c, 10, 50, 72
17, 16799, Note_on_c, 10, 50, 0
17, 16800, Note_on_c, 10, 52, 72
17, 16919, Note_on_c, 10, 52, 0
17, 17340, Note_on_c, 10, 57, 72
17, 17399, Note_on_c, 10, 57, 0
17, 17400, Note_on_c, 10, 54, 72
17, 17459, Note_on_c, 10, 54, 0
17, 17460, Note_on_c, 10, 50, 72
17, 17519, Note_on_c, 10, 50, 0
17, 17520, Note_on_c, 10, 55, 72
17, 17609, Note_on_c, 10, 55, 0
17, 17610, Note_on_c, 10, 57, 72
17, 17639, Note_on_c, 10, 57, 0
17, 17640, Note_on_c, 10, 58, 72
17, 17699, Note_on_c, 10, 58, 0
17, 17700, Note_on_c, 10, 55, 72
17, 17759, Note_on_c, 10, 55, 0
17, 17760, Note_on_c, 10, 62, 72
17, 17819, Note_on_c, 10, 62, 0
17, 17820, Note_on_c, 10, 50, 72
17, 17879, Note_on_c, 10, 50, 0
17, 18060, Note_on_c, 10, 55, 72
17, 18179, Note_on_c, 10, 55, 0
17, 18180, Note_on_c, 10, 54, 72
17, 18239, Note_on_c, 10, 54, 0
17, 18240, Note_on_c, 10, 55, 72
17, 18329, Note_on_c, 10, 55, 0
17, 18330, Note_on_c, 10, 43, 72
17, 18359, Note_on_c, 10, 43, 0
17, 18360, Note_on_c, 10, 43, 72
17, 18479, Note_on_c, 10, 43, 0
17, 18780, Note_on_c, 10, 60, 72
17, 18869, Note_on_c, 10, 60, 0
17, 18870, Note_on_c, 10, 62, 72
17, 18899, Note_on_c, 10, 62, 0
17, 18900, Note_on_c, 10, 60, 72
17, 18929, Note_on_c, 10, 60, 0
17, 18930, Note_on_c, 10, 58, 72
17, 18959, Note_on_c, 10, 58, 0
17, 18960, Note_on_c, 10, 57, 72
17, 18989, Note_on_c, 10, 57, 0
17, 18990, Note_on_c, 10, 60, 72
17, 19019, Note_on_c, 10, 60, 0
17, 19020, Note_on_c, 10, 58, 72
17, 19049, Note_on_c, 10, 58, 0
17, 19050, Note_on_c, 10, 57, 72
17, 19079, Note_on_c, 10, 57, 0
17, 19080, Note_on_c, 10, 55, 72
17, 19109, Note_on_c, 10, 55, 0
17, 19110, Note_on_c, 10, 58, 72
17, 19139, Note_on_c, 10, 58, 0
17, 19140, Note_on_c, 10, 57, 72
17, 19169, Note_on_c, 10, 57, 0
17, 19170, Note_on_c, 10, 55, 72
17, 19199, Note_on_c, 10, 55, 0
17, 19200, Note_on_c, 10, 53, 72
17, 19229, Note_on_c, 10, 53, 0
17, 19230, Note_on_c, 10, 55, 72
17, 19259, Note_on_c, 10, 55, 0
17, 19260, Note_on_c, 10, 57, 72
17, 19349, Note_on_c, 10, 57, 0
17, 19350, Note_on_c, 10, 58, 72
17, 19379, Note_on_c, 10, 58, 0
17, 19380, Note_on_c, 10, 57, 72
17, 19409, Note_on_c, 10, 57, 0
17, 19410, Note_on_c, 10, 55, 72
17, 19439, Note_on_c, 10, 55, 0
17, 19440, Note_on_c, 10, 53, 72
17, 19469, Note_on_c, 10, 53, 0
17, 19470, Note_on_c, 10, 57, 72
17, 19499, Note_on_c, 10, 57, 0
17, 19500, Note_on_c, 10, 55, 72
17, 19529, Note_on_c, 10, 55, 0
17, 19530, Note_on_c, 10, 53, 72
17, 19559, Note_on_c, 10, 53, 0
17, 19560, Note_on_c, 10, 52, 72
17, 19589, Note_on_c, 10, 52, 0
17, 19590, Note_on_c, 10, 55, 72
17, 19619, Note_on_c, 10, 55, 0
17, 19620, Note_on_c, 10, 53, 72
17, 19649, Note_on_c, 10, 53, 0
17, 19650, Note_on_c, 10, 52, 72
17, 19679, Note_on_c, 10, 52, 0
17, 19680, Note_on_c, 10, 50, 72
17, 19709, Note_on_c, 10, 50, 0
17, 19710, Note_on_c, 10, 51, 72
17, 19739, Note_on_c, 10, 51, 0
17, 19740, Note_on_c, 10, 53, 72
17, 19829, Note_on_c, 10, 53, 0
17, 19830, Note_on_c, 10, 55, 72
17, 19859, Note_on_c, 10, 55, 0
17, 19860, Note_on_c, 10, 53, 72
17, 19889, Note_on_c, 10, 53, 0
17, 19890, Note_on_c, 10, 52, 72
17, 19919, Note_on_c, 10, 52, 0
17, 19920, Note_on_c, 10, 50, 72
17, 19949, Note_on_c, 10, 50, 0
17, 19950, Note_on_c, 10, 53, 72
17, 19979, Note_on_c, 10, 53, 0
17, 19980, Note_on_c, 10, 52, 72
17, 20009, Note_on_c, 10, 52, 0
17, 20010, Note_on_c, 10, 50, 72
17, 20039, Note_on_c, 10, 50, 0
17, 20040, Note_on_c, 10, 48, 72
17, 20069, Note_on_c, 10, 48, 0
17, 20070, Note_on_c, 10, 52, 72
17, 20099, Note_on_c, 10, 52, 0
17, 20100, Note_on_c, 10, 50, 72
17, 20129, Note_on_c, 10, 50, 0
17, 20130, Note_on_c, 10, 48, 72
17, 20159, Note_on_c, 10, 48, 0
17, 20160, Note_on_c, 10, 46, 72
17, 20279, Note_on_c, 10, 46, 0
17, 20460, Note_on_c, 10, 58, 72
17, 20519, Note_on_c, 10, 58, 0
17, 20520, Note_on_c, 10, 58, 72
17, 20579, Note_on_c, 10, 58, 0
17, 20580, Note_on_c, 10, 58, 72
17, 20639, Note_on_c, 10, 58, 0
17, 20640, Note_on_c, 10, 57, 72
17, 20729, Note_on_c, 10, 57, 0
17, 20730, Note_on_c, 10, 57, 72
17, 20759, Note_on_c, 10, 57, 0
17, 20760, Note_on_c, 10, 57, 72
17, 20879, Note_on_c, 10, 57, 0
17, 20940, Note_on_c, 10, 57, 72
17, 20999, Note_on_c, 10, 57, 0
17, 21000, Note_on_c, 10, 57, 72
17, 21059, Note_on_c, 10, 57, 0
17, 21060, Note_on_c, 10, 57, 72
17, 21119, Note_on_c, 10, 57, 0
17, 21120, Note_on_c, 10, 56, 72
17, 21209, Note_on_c, 10, 56, 0
17, 21210, Note_on_c, 10, 56, 72
17, 21239, Note_on_c, 10, 56, 0
17, 21240, Note_on_c, 10, 56, 72
17, 21359, Note_on_c, 10, 56, 0
17, 21360, Note_on_c, 10, 56, 72
17, 21479, Note_on_c, 10, 56, 0
17, 21480, Note_on_c, 10, 56, 72
17, 21539, Note_on_c, 10, 56, 0
17, 21540, Note_on_c, 10, 56, 72
17, 21599, Note_on_c, 10, 56, 0
17, 21600, Note_on_c, 10, 57, 72
17, 21659, Note_on_c, 10, 57, 0
17, 21660, Note_on_c, 10, 57, 72
17, 21719, Note_on_c, 10, 57, 0
17, 21780, Note_on_c, 10, 57, 48
17, 21839, Note_on_c, 10, 57, 0
17, 21840, Note_on_c, 10, 50, 48
17, 21959, Note_on_c, 10, 50, 0
17, 21960, Note_on_c, 10, 49, 48
17, 22079, Note_on_c, 10, 49, 0
17, 22080, Note_on_c, 10, 50, 48
17, 22169, Note_on_c, 10, 50, 0
17, 22170, Note_on_c, 10, 50, 48
17, 22199, Note_on_c, 10, 50, 0
17, 22200, Note_on_c, 10, 48, 48
17, 22319, Note_on_c, 10, 48, 0
17, 22320, Note_on_c, 10, 47, 48
17, 22439, Note_on_c, 10, 47, 0
17, 22440, Note_on_c, 10, 46, 48
17, 22499, Note_on_c, 10, 46, 0
17, 22500, Note_on_c, 10, 46, 48
17, 22559, Note_on_c, 10, 46, 0
17, 22560, Note_on_c, 10, 45, 48
17, 22799, Note_on_c, 10, 45, 0
17, 22800, Note_on_c, 10, 45, 48
17, 23039, Note_on_c, 10, 45, 0
17, 23040, Note_on_c, 10, 57, 72
17, 23219, Note_on_c, 10, 57, 0
17, 23220, Note_on_c, 10, 57, 72
17, 23279, Note_on_c, 10, 57, 0
17, 23280, Note_on_c, 10, 53, 72
17, 23399, Note_on_c, 10, 53, 0
17, 23400, Note_on_c, 10, 58, 72
17, 23519, Note_on_c, 10, 58, 0
17, 23520, Note_on_c, 10, 49, 72
17, 23699, Note_on_c, 10, 49, 0
17, 23700, Note_on_c, 10, 49, 72
17, 23759, Note_on_c, 10, 49, 0
17, 23760, Note_on_c, 10, 50, 72
17, 23879, Note_on_c, 10, 50, 0
17, 23940, Note_on_c, 10, 50, 72
17, 23999, Note_on_c, 10, 50, 0
17, 24000, Note_on_c, 10, 52, 72
17, 24179, Note_on_c, 10, 52, 0
17, 24180, Note_on_c, 10, 50, 72
17, 24209, Note_on_c, 10, 50, 0
17, 24210, Note_on_c, 10, 52, 72
17, 24239, Note_on_c, 10, 52, 0
17, 24240, Note_on_c, 10, 53, 72
17, 24299, Note_on_c, 10, 53, 0
17, 24300, Note_on_c, 10, 52, 72
17, 24329, Note_on_c, 10, 52, 0
17, 24330, Note_on_c, 10, 53, 72
17, 24359, Note_on_c, 10, 53, 0
17, 24360, Note_on_c, 10, 55, 72
17, 24419, Note_on_c, 10, 55, 0
17, 24420, Note_on_c, 10, 53, 72
17, 24449, Note_on_c, 10, 53, 0
17, 24450, Note_on_c, 10, 55, 72
17, 24479, Note_on_c, 10, 55, 0
17, 24480, Note_on_c, 10, 57, 72
17, 24539, Note_on_c, 10, 57, 0
17, 24540, Note_on_c, 10, 55, 72
17, 24599, Note_on_c, 10, 55, 0
17, 24600, Note_on_c, 10, 53, 72
17, 24659, Note_on_c, 10, 53, 0
17, 24660, Note_on_c, 10, 52, 72
17, 24719, Note_on_c, 10, 52, 0
17, 24720, Note_on_c, 10, 50, 72
17, 24779, Note_on_c, 10, 50, 0
17, 24780, Note_on_c, 10, 48, 72
17, 24839, Note_on_c, 10, 48, 0
17, 24840, Note_on_c, 10, 47, 72
17, 24899, Note_on_c, 10, 47, 0
17, 24900, Note_on_c, 10, 52, 72
17, 24959, Note_on_c, 10, 52, 0
17, 24960, Note_on_c, 10, 45, 72
17, 25019, Note_on_c, 10, 45, 0
17, 25020, Note_on_c, 10, 53, 72
17, 25049, Note_on_c, 10, 53, 0
17, 25050, Note_on_c, 10, 52, 72
17, 25079, Note_on_c, 10, 52, 0
17, 25080, Note_on_c, 10, 50, 72
17, 25109, Note_on_c, 10, 50, 0
17, 25110, Note_on_c, 10, 47, 72
17, 25139, Note_on_c, 10, 47, 0
17, 25140, Note_on_c, 10, 48, 72
17, 25169, Note_on_c, 10, 48, 0
17, 25170, Note_on_c, 10, 50, 72
17, 25199, Note_on_c, 10, 50, 0
17, 25200, Note_on_c, 10, 52, 72
17, 25319, Note_on_c, 10, 52, 0
17, 25380, Note_on_c, 10, 52, 72
17, 25439, Note_on_c, 10, 52, 0
17, 25440, Note_on_c, 10, 57, 72
17, 25499, Note_on_c, 10, 57, 0
17, 25500, Note_on_c, 10, 45, 72
17, 25559, Note_on_c, 10, 45, 0
17, 25560, Note_on_c, 10, 57, 72
17, 25799, Note_on_c, 10, 57, 0
17, 25800, Note_on_c, 10, 55, 72
17, 25829, Note_on_c, 10, 55, 0
17, 25830, Note_on_c, 10, 53, 72
17, 25859, Note_on_c, 10, 53, 0
17, 25860, Note_on_c, 10, 52, 72
17, 25889, Note_on_c, 10, 52, 0
17, 25890, Note_on_c, 10, 50, 72
17, 25919, Note_on_c, 10, 50, 0
17, 25920, Note_on_c, 10, 48, 72
17, 26039, Note_on_c, 10, 48, 0
17, 26040, Note_on_c, 10, 47, 72
17, 26099, Note_on_c, 10, 47, 0
17, 26100, Note_on_c, 10, 53, 72
17, 26159, Note_on_c, 10, 53, 0
17, 26160, Note_on_c, 10, 52, 72
17, 26249, Note_on_c, 10, 52, 0
17, 26250, Note_on_c, 10, 54, 72
17, 26279, Note_on_c, 10, 54, 0
17, 26280, Note_on_c, 10, 56, 72
17, 26309, Note_on_c, 10, 56, 0
17, 26310, Note_on_c, 10, 57, 72
17, 26339, Note_on_c, 10, 57, 0
17, 26340, Note_on_c, 10, 54, 72
17, 26369, Note_on_c, 10, 54, 0
17, 26370, Note_on_c, 10, 56, 72
17, 26399, Note_on_c, 10, 56, 0
17, 26400, Note_on_c, 10, 57, 72
17, 26459, Note_on_c, 10, 57, 0
17, 26460, Note_on_c, 10, 45, 72
17, 26519, Note_on_c, 10, 45, 0
17, 26520, Note_on_c, 10, 47, 72
17, 26579, Note_on_c, 10, 47, 0
17, 26580, Note_on_c, 10, 49, 72
17, 26639, Note_on_c, 10, 49, 0
17, 26640, Note_on_c, 10, 50, 72
17, 26759, Note_on_c, 10, 50, 0
17, 26940, Note_on_c, 10, 52, 72
17, 26999, Note_on_c, 10, 52, 0
17, 27000, Note_on_c, 10, 52, 72
17, 27059, Note_on_c, 10, 52, 0
17, 27060, Note_on_c, 10, 52, 72
17, 27119, Note_on_c, 10, 52, 0
17, 27120, Note_on_c, 10, 53, 72
17, 27149, Note_on_c, 10, 53, 0
17, 27150, Note_on_c, 10, 55, 72
17, 27179, Note_on_c, 10, 55, 0
17, 27180, Note_on_c, 10, 53, 72
17, 27209, Note_on_c, 10, 53, 0
17, 27210, Note_on_c, 10, 52, 72
17, 27239, Note_on_c, 10, 52, 0
17, 27240, Note_on_c, 10, 53, 72
17, 27269, Note_on_c, 10, 53, 0
17, 27270, Note_on_c, 10, 55, 72
17, 27299, Note_on_c, 10, 55, 0
17, 27300, Note_on_c, 10, 52, 72
17, 27329, Note_on_c, 10, 52, 0
17, 27330, Note_on_c, 10, 53, 72
17, 27359, Note_on_c, 10, 53, 0
17, 27360, Note_on_c, 10, 55, 72
17, 27389, Note_on_c, 10, 55, 0
17, 27390, Note_on_c, 10, 57, 72
17, 27419, Note_on_c, 10, 57, 0
17, 27420, Note_on_c, 10, 55, 72
17, 27449, Note_on_c, 10, 55, 0
17, 27450, Note_on_c, 10, 53, 72
17, 27479, Note_on_c, 10, 53, 0
17, 27480, Note_on_c, 10, 55, 72
17, 27509, Note_on_c, 10, 55, 0
17, 27510, Note_on_c, 10, 57, 72
17, 27539, Note_on_c, 10, 57, 0
17, 27540, Note_on_c, 10, 53, 72
17, 27569, Note_on_c, 10, 53, 0
17, 27570, Note_on_c, 10, 55, 72
17, 27599, Note_on_c, 10, 55, 0
17, 27600, Note_on_c, 10, 57, 72
17, 27659, Note_on_c, 10, 57, 0
17, 27660, Note_on_c, 10, 58, 72
17, 27689, Note_on_c, 10, 58, 0
17, 27690, Note_on_c, 10, 57, 72
17, 27719, Note_on_c, 10, 57, 0
17, 27720, Note_on_c, 10, 55, 72
17, 27749, Note_on_c, 10, 55, 0
17, 27750, Note_on_c, 10, 53, 72
17, 27779, Note_on_c, 10, 53, 0
17, 27780, Note_on_c, 10, 52, 72
17, 27809, Note_on_c, 10, 52, 0
17, 27810, Note_on_c, 10, 50, 72
17, 27839, Note_on_c, 10, 50, 0
17, 27840, Note_on_c, 10, 49, 72
17, 27899, Note_on_c, 10, 49, 0
17, 27900, Note_on_c, 10, 52, 72
17, 27959, Note_on_c, 10, 52, 0
17, 27960, Note_on_c, 10, 57, 72
17, 28019, Note_on_c, 10, 57, 0
17, 28020, Note_on_c, 10, 55, 72
17, 28079, Note_on_c, 10, 55, 0
17, 28080, Note_on_c, 10, 53, 72
17, 28109, Note_on_c, 10, 53, 0
17, 28110, Note_on_c, 10, 52, 72
17, 28139, Note_on_c, 10, 52, 0
17, 28140, Note_on_c, 10, 50, 72
17, 28169, Note_on_c, 10, 50, 0
17, 28170, Note_on_c, 10, 48, 72
17, 28199, Note_on_c, 10, 48, 0
17, 28200, Note_on_c, 10, 47, 72
17, 28319, Note_on_c, 10, 47, 0
17, 28320, Note_on_c, 10, 48, 72
17, 28439, Note_on_c, 10, 48, 0
17, 28440, Note_on_c, 10, 50, 72
17, 28559, Note_on_c, 10, 50, 0
17, 28560, Note_on_c, 10, 52, 72
17, 28679, Note_on_c, 10, 52, 0
17, 28740, Note_on_c, 10, 52, 72
17, 28799, Note_on_c, 10, 52, 0
17, 28800, Note_on_c, 10, 57, 72
17, 28949, Note_on_c, 10, 57, 0
17, 28950, Note_on_c, 10, 55, 72
17, 28979, Note_on_c, 10, 55, 0
17, 28980, Note_on_c, 10, 53, 72
17, 29009, Note_on_c, 10, 53, 0
17, 29010, Note_on_c, 10, 52, 72
17, 29039, Note_on_c, 10, 52, 0
17, 29040, Note_on_c, 10, 53, 72
17, 29099, Note_on_c, 10, 53, 0
17, 29100, Note_on_c, 10, 50, 72
17, 29159, Note_on_c, 10, 50, 0
17, 29160, Note_on_c, 10, 55, 72
17, 29279, Note_on_c, 10, 55, 0
17, 29280, Note_on_c, 10, 48, 72
17, 29339, Note_on_c, 10, 48, 0
17, 29340, Note_on_c, 10, 45, 72
17, 29399, Note_on_c, 10, 45, 0
17, 29400, Note_on_c, 10, 53, 72
17, 29489, Note_on_c, 10, 53, 0
17, 29490, Note_on_c, 10, 53, 72
17, 29519, Note_on_c, 10, 53, 0
17, 29520, Note_on_c, 10, 52, 72
17, 29639, Note_on_c, 10, 52, 0
17, 29820, Note_on_c, 10, 57, 72
17, 29849, Note_on_c, 10, 57, 0
17, 29850, Note_on_c, 10, 55, 72
17, 29879, Note_on_c, 10, 55, 0
17, 29880, Note_on_c, 10, 53, 72
17, 29939, Note_on_c, 10, 53, 0
17, 29940, Note_on_c, 10, 51, 72
17, 29999, Note_on_c, 10, 51, 0
17, 30000, Note_on_c, 10, 50, 72
17, 30119, Note_on_c, 10, 50, 0
17, 30300, Note_on_c, 10, 55, 72
17, 30329, Note_on_c, 10, 55, 0
17, 30330, Note_on_c, 10, 53, 72
17, 30359, Note_on_c, 10, 53, 0
17, 30360, Note_on_c, 10, 52, 72
17, 30419, Note_on_c, 10, 52, 0
17, 30420, Note_on_c, 10, 50, 72
17, 30479, Note_on_c, 10, 50, 0
17, 30480, Note_on_c, 10, 48, 72
17, 30599, Note_on_c, 10, 48, 0
17, 30600, Note_on_c, 10, 50, 72
17, 30659, Note_on_c, 10, 50, 0
17, 30660, Note_on_c, 10, 52, 72
17, 30719, Note_on_c, 10, 52, 0
17, 30720, Note_on_c, 10, 53, 72
17, 30839, Note_on_c, 10, 53, 0
17, 31020, Note_on_c, 10, 48, 72
17, 31079, Note_on_c, 10, 48, 0
17, 31080, Note_on_c, 10, 48, 72
17, 31139, Note_on_c, 10, 48, 0
17, 31140, Note_on_c, 10, 48, 72
17, 31199, Note_on_c, 10, 48, 0
17, 31200, Note_on_c, 10, 50, 72
17, 31229, Note_on_c, 10, 50, 0
17, 31230, Note_on_c, 10, 52, 72
17, 31259, Note_on_c, 10, 52, 0
17, 31260, Note_on_c, 10, 50, 72
17, 31289, Note_on_c, 10, 50, 0
17, 31290, Note_on_c, 10, 48, 72
17, 31319, Note_on_c, 10, 48, 0
17, 31320, Note_on_c, 10, 50, 72
17, 31349, Note_on_c, 10, 50, 0
17, 31350, Note_on_c, 10, 52, 72
17, 31379, Note_on_c, 10, 52, 0
17, 31380, Note_on_c, 10, 48, 72
17, 31409, Note_on_c, 10, 48, 0
17, 31410, Note_on_c, 10, 50, 72
17, 31439, Note_on_c, 10, 50, 0
17, 31440, Note_on_c, 10, 52, 72
17, 31469, Note_on_c, 10, 52, 0
17, 31470, Note_on_c, 10, 53, 72
17, 31499, Note_on_c, 10, 53, 0
17, 31500, Note_on_c, 10, 52, 72
17, 31529, Note_on_c, 10, 52, 0
17, 31530, Note_on_c, 10, 50, 72
17, 31559, Note_on_c, 10, 50, 0
17, 31560, Note_on_c, 10, 52, 72
17, 31589, Note_on_c, 10, 52, 0
17, 31590, Note_on_c, 10, 53, 72
17, 31619, Note_on_c, 10, 53, 0
17, 31620, Note_on_c, 10, 50, 72
17, 31649, Note_on_c, 10, 50, 0
17, 31650, Note_on_c, 10, 52, 72
17, 31679, Note_on_c, 10, 52, 0
17, 31680, Note_on_c, 10, 53, 72
17, 31739, Note_on_c, 10, 53, 0
17, 31740, Note_on_c, 10, 55, 72
17, 31769, Note_on_c, 10, 55, 0
17, 31770, Note_on_c, 10, 53, 72
17, 31799, Note_on_c, 10, 53, 0
17, 31800, Note_on_c, 10, 52, 72
17, 31829, Note_on_c, 10, 52, 0
17, 31830, Note_on_c, 10, 50, 72
17, 31859, Note_on_c, 10, 50, 0
17, 31860, Note_on_c, 10, 48, 72
17, 31889, Note_on_c, 10, 48, 0
17, 31890, Note_on_c, 10, 46, 72
17, 31919, Note_on_c, 10, 46, 0
17, 31920, Note_on_c, 10, 45, 72
17, 31979, Note_on_c, 10, 45, 0
17, 31980, Note_on_c, 10, 48, 72
17, 32039, Note_on_c, 10, 48, 0
17, 32040, Note_on_c, 10, 53, 72
17, 32099, Note_on_c, 10, 53, 0
17, 32100, Note_on_c, 10, 51, 72
17, 32159, Note_on_c, 10, 51, 0
17, 32160, Note_on_c, 10, 50, 72
17, 32219, Note_on_c, 10, 50, 0
17, 32220, Note_on_c, 10, 60, 72
17, 32339, Note_on_c, 10, 60, 0
17, 32340, Note_on_c, 10, 58, 72
17, 32369, Note_on_c, 10, 58, 0
17, 32370, Note_on_c, 10, 57, 72
17, 32399, Note_on_c, 10, 57, 0
17, 32400, Note_on_c, 10, 55, 72
17, 32429, Note_on_c, 10, 55, 0
17, 32430, Note_on_c, 10, 53, 72
17, 32459, Note_on_c, 10, 53, 0
17, 32460, Note_on_c, 10, 51, 72
17, 32489, Note_on_c, 10, 51, 0
17, 32490, Note_on_c, 10, 50, 72
17, 32519, Note_on_c, 10, 50, 0
17, 32520, Note_on_c, 10, 48, 72
17, 32549, Note_on_c, 10, 48, 0
17, 32550, Note_on_c, 10, 50, 72
17, 32579, Note_on_c, 10, 50, 0
17, 32580, Note_on_c, 10, 46, 72
17, 32609, Note_on_c, 10, 46, 0
17, 32610, Note_on_c, 10, 48, 72
17, 32639, Note_on_c, 10, 48, 0
17, 32640, Note_on_c, 10, 50, 72
17, 32819, Note_on_c, 10, 50, 0
17, 32820, Note_on_c, 10, 50, 72
17, 32879, Note_on_c, 10, 50, 0
17, 32880, Note_on_c, 10, 43, 72
17, 32999, Note_on_c, 10, 43, 0
17, 33840, Note_on_c, 10, 55, 72
17, 34019, Note_on_c, 10, 55, 0
17, 34020, Note_on_c, 10, 55, 72
17, 34079, Note_on_c, 10, 55, 0
17, 34080, Note_on_c, 10, 51, 72
17, 34199, Note_on_c, 10, 51, 0
17, 34200, Note_on_c, 10, 56, 72
17, 34319, Note_on_c, 10, 56, 0
17, 34320, Note_on_c, 10, 47, 72
17, 34499, Note_on_c, 10, 47, 0
17, 34500, Note_on_c, 10, 47, 72
17, 34559, Note_on_c, 10, 47, 0
17, 34560, Note_on_c, 10, 48, 72
17, 34679, Note_on_c, 10, 48, 0
17, 34740, Note_on_c, 10, 48, 72
17, 34799, Note_on_c, 10, 48, 0
17, 34800, Note_on_c, 10, 50, 72
17, 34979, Note_on_c, 10, 50, 0
17, 34980, Note_on_c, 10, 48, 72
17, 35009, Note_on_c, 10, 48, 0
17, 35010, Note_on_c, 10, 50, 72
17, 35039, Note_on_c, 10, 50, 0
17, 35040, Note_on_c, 10, 51, 72
17, 35099, Note_on_c, 10, 51, 0
17, 35100, Note_on_c, 10, 50, 72
17, 35129, Note_on_c, 10, 50, 0
17, 35130, Note_on_c, 10, 51, 72
17, 35159, Note_on_c, 10, 51, 0
17, 35160, Note_on_c, 10, 53, 72
17, 35219, Note_on_c, 10, 53, 0
17, 35220, Note_on_c, 10, 51, 72
17, 35249, Note_on_c, 10, 51, 0
17, 35250, Note_on_c, 10, 53, 72
17, 35279, Note_on_c, 10, 53, 0
17, 35280, Note_on_c, 10, 55, 72
17, 35339, Note_on_c, 10, 55, 0
17, 35340, Note_on_c, 10, 53, 72
17, 35399, Note_on_c, 10, 53, 0
17, 35400, Note_on_c, 10, 51, 72
17, 35459, Note_on_c, 10, 51, 0
17, 35460, Note_on_c, 10, 50, 72
17, 35519, Note_on_c, 10, 50, 0
17, 35520, Note_on_c, 10, 48, 72
17, 35579, Note_on_c, 10, 48, 0
17, 35580, Note_on_c, 10, 50, 72
17, 35609, Note_on_c, 10, 50, 0
17, 35610, Note_on_c, 10, 51, 72
17, 35639, Note_on_c, 10, 51, 0
17, 35640, Note_on_c, 10, 53, 72
17, 35819, Note_on_c, 10, 53, 0
17, 35820, Note_on_c, 10, 51, 72
17, 35879, Note_on_c, 10, 51, 0
17, 35880, Note_on_c, 10, 50, 72
17, 35939, Note_on_c, 10, 50, 0
17, 35940, Note_on_c, 10, 48, 72
17, 35999, Note_on_c, 10, 48, 0
17, 36000, Note_on_c, 10, 46, 72
17, 36059, Note_on_c, 10, 46, 0
17, 36060, Note_on_c, 10, 55, 72
17, 36089, Note_on_c, 10, 55, 0
17, 36090, Note_on_c, 10, 53, 72
17, 36119, Note_on_c, 10, 53, 0
17, 36120, Note_on_c, 10, 51, 72
17, 36149, Note_on_c, 10, 51, 0
17, 36150, Note_on_c, 10, 48, 72
17, 36179, Note_on_c, 10, 48, 0
17, 36180, Note_on_c, 10, 50, 72
17, 36209, Note_on_c, 10, 50, 0
17, 36210, Note_on_c, 10, 51, 72
17, 36239, Note_on_c, 10, 51, 0
17, 36240, Note_on_c, 10, 53, 72
17, 36359, Note_on_c, 10, 53, 0
17, 36720, Note_on_c, 10, 53, 72
17, 36899, Note_on_c, 10, 53, 0
17, 36900, Note_on_c, 10, 53, 72
17, 36959, Note_on_c, 10, 53, 0
17, 36960, Note_on_c, 10, 50, 72
17, 37079, Note_on_c, 10, 50, 0
17, 37080, Note_on_c, 10, 55, 72
17, 37199, Note_on_c, 10, 55, 0
17, 37200, Note_on_c, 10, 45, 72
17, 37379, Note_on_c, 10, 45, 0
17, 37380, Note_on_c, 10, 45, 72
17, 37439, Note_on_c, 10, 45, 0
17, 37440, Note_on_c, 10, 46, 72
17, 37559, Note_on_c, 10, 46, 0
17, 37620, Note_on_c, 10, 46, 72
17, 37679, Note_on_c, 10, 46, 0
17, 37680, Note_on_c, 10, 48, 72
17, 37859, Note_on_c, 10, 48, 0
17, 37860, Note_on_c, 10, 46, 72
17, 37889, Note_on_c, 10, 46, 0
17, 37890, Note_on_c, 10, 48, 72
17, 37919, Note_on_c, 10, 48, 0
17, 37920, Note_on_c, 10, 50, 72
17, 37979, Note_on_c, 10, 50, 0
17, 37980, Note_on_c, 10, 58, 72
17, 38009, Note_on_c, 10, 58, 0
17, 38010, Note_on_c, 10, 57, 72
17, 38039, Note_on_c, 10, 57, 0
17, 38040, Note_on_c, 10, 55, 72
17, 38099, Note_on_c, 10, 55, 0
17, 38100, Note_on_c, 10, 53, 72
17, 38159, Note_on_c, 10, 53, 0
17, 38160, Note_on_c, 10, 52, 72
17, 38219, Note_on_c, 10, 52, 0
17, 38220, Note_on_c, 10, 55, 72
17, 38279, Note_on_c, 10, 55, 0
17, 38280, Note_on_c, 10, 48, 72
17, 38399, Note_on_c, 10, 48, 0
17, 38700, Note_on_c, 10, 48, 72
17, 38759, Note_on_c, 10, 48, 0
17, 38760, Note_on_c, 10, 48, 72
17, 38819, Note_on_c, 10, 48, 0
17, 38820, Note_on_c, 10, 48, 72
17, 38879, Note_on_c, 10, 48, 0
17, 38880, Note_on_c, 10, 49, 72
17, 38909, Note_on_c, 10, 49, 0
17, 38910, Note_on_c, 10, 51, 72
17, 38939, Note_on_c, 10, 51, 0
17, 38940, Note_on_c, 10, 49, 72
17, 38969, Note_on_c, 10, 49, 0
17, 38970, Note_on_c, 10, 48, 72
17, 38999, Note_on_c, 10, 48, 0
17, 39000, Note_on_c, 10, 50, 72
17, 39029, Note_on_c, 10, 50, 0
17, 39030, Note_on_c, 10, 51, 72
17, 39059, Note_on_c, 10, 51, 0
17, 39060, Note_on_c, 10, 48, 72
17, 39089, Note_on_c, 10, 48, 0
17, 39090, Note_on_c, 10, 50, 72
17, 39119, Note_on_c, 10, 50, 0
17, 39120, Note_on_c, 10, 51, 72
17, 39149, Note_on_c, 10, 51, 0
17, 39150, Note_on_c, 10, 53, 72
17, 39179, Note_on_c, 10, 53, 0
17, 39180, Note_on_c, 10, 51, 72
17, 39209, Note_on_c, 10, 51, 0
17, 39210, Note_on_c, 10, 50, 72
17, 39239, Note_on_c, 10, 50, 0
17, 39240, Note_on_c, 10, 52, 72
17, 39269, Note_on_c, 10, 52, 0
17, 39270, Note_on_c, 10, 53, 72
17, 39299, Note_on_c, 10, 53, 0
17, 39300, Note_on_c, 10, 50, 72
17, 39329, Note_on_c, 10, 50, 0
17, 39330, Note_on_c, 10, 52, 72
17, 39359, Note_on_c, 10, 52, 0
17, 39360, Note_on_c, 10, 53, 72
17, 39419, Note_on_c, 10, 53, 0
17, 39420, Note_on_c, 10, 48, 72
17, 39479, Note_on_c, 10, 48, 0
17, 39480, Note_on_c, 10, 53, 72
17, 39539, Note_on_c, 10, 53, 0
17, 39540, Note_on_c, 10, 51, 72
17, 39599, Note_on_c, 10, 51, 0
17, 39600, Note_on_c, 10, 50, 72
17, 39659, Note_on_c, 10, 50, 0
17, 39660, Note_on_c, 10, 43, 72
17, 39719, Note_on_c, 10, 43, 0
17, 39720, Note_on_c, 10, 55, 72
17, 39779, Note_on_c, 10, 55, 0
17, 39780, Note_on_c, 10, 53, 72
17, 39839, Note_on_c, 10, 53, 0
17, 39840, Note_on_c, 10, 51, 72
17, 39959, Note_on_c, 10, 51, 0
17, 40620, Note_on_c, 10, 52, 72
17, 40679, Note_on_c, 10, 52, 0
17, 40680, Note_on_c, 10, 52, 72
17, 40739, Note_on_c, 10, 52, 0
17, 40740, Note_on_c, 10, 52, 72
17, 40799, Note_on_c, 10, 52, 0
17, 40800, Note_on_c, 10, 53, 72
17, 40829, Note_on_c, 10, 53, 0
17, 40830, Note_on_c, 10, 55, 72
17, 40859, Note_on_c, 10, 55, 0
17, 40860, Note_on_c, 10, 53, 72
17, 40889, Note_on_c, 10, 53, 0
17, 40890, Note_on_c, 10, 52, 72
17, 40919, Note_on_c, 10, 52, 0
17, 40920, Note_on_c, 10, 54, 72
17, 40949, Note_on_c, 10, 54, 0
17, 40950, Note_on_c, 10, 55, 72
17, 40979, Note_on_c, 10, 55, 0
17, 40980, Note_on_c, 10, 52, 72
17, 41009, Note_on_c, 10, 52, 0
17, 41010, Note_on_c, 10, 54, 72
17, 41039, Note_on_c, 10, 54, 0
17, 41040, Note_on_c, 10, 55, 72
17, 41069, Note_on_c, 10, 55, 0
17, 41070, Note_on_c, 10, 57, 72
17, 41099, Note_on_c, 10, 57, 0
17, 41100, Note_on_c, 10, 55, 72
17, 41129, Note_on_c, 10, 55, 0
17, 41130, Note_on_c, 10, 54, 72
17, 41159, Note_on_c, 10, 54, 0
17, 41160, Note_on_c, 10, 56, 72
17, 41189, Note_on_c, 10, 56, 0
17, 41190, Note_on_c, 10, 57, 72
17, 41219, Note_on_c, 10, 57, 0
17, 41220, Note_on_c, 10, 54, 72
17, 41249, Note_on_c, 10, 54, 0
17, 41250, Note_on_c, 10, 56, 72
17, 41279, Note_on_c, 10, 56, 0
17, 41280, Note_on_c, 10, 57, 72
17, 41339, Note_on_c, 10, 57, 0
17, 41340, Note_on_c, 10, 57, 72
17, 41459, Note_on_c, 10, 57, 0
17, 41460, Note_on_c, 10, 57, 72
17, 41519, Note_on_c, 10, 57, 0
17, 41520, Note_on_c, 10, 53, 72
17, 41639, Note_on_c, 10, 53, 0
17, 41640, Note_on_c, 10, 58, 72
17, 41759, Note_on_c, 10, 58, 0
17, 41760, Note_on_c, 10, 49, 72
17, 41939, Note_on_c, 10, 49, 0
17, 41940, Note_on_c, 10, 49, 72
17, 41999, Note_on_c, 10, 49, 0
17, 42000, Note_on_c, 10, 50, 72
17, 42119, Note_on_c, 10, 50, 0
17, 42180, Note_on_c, 10, 50, 72
17, 42239, Note_on_c, 10, 50, 0
17, 42240, Note_on_c, 10, 52, 72
17, 42419, Note_on_c, 10, 52, 0
17, 42420, Note_on_c, 10, 50, 72
17, 42449, Note_on_c, 10, 50, 0
17, 42450, Note_on_c, 10, 52, 72
17, 42479, Note_on_c, 10, 52, 0
17, 42480, Note_on_c, 10, 53, 72
17, 42539, Note_on_c, 10, 53, 0
17, 42540, Note_on_c, 10, 52, 72
17, 42569, Note_on_c, 10, 52, 0
17, 42570, Note_on_c, 10, 53, 72
17, 42599, Note_on_c, 10, 53, 0
17, 42600, Note_on_c, 10, 55, 72
17, 42659, Note_on_c, 10, 55, 0
17, 42660, Note_on_c, 10, 53, 72
17, 42689, Note_on_c, 10, 53, 0
17, 42690, Note_on_c, 10, 55, 72
17, 42719, Note_on_c, 10, 55, 0
17, 42720, Note_on_c, 10, 57, 72
17, 42779, Note_on_c, 10, 57, 0
17, 42780, Note_on_c, 10, 58, 72
17, 42809, Note_on_c, 10, 58, 0
17, 42810, Note_on_c, 10, 57, 72
17, 42839, Note_on_c, 10, 57, 0
17, 42840, Note_on_c, 10, 55, 72
17, 42869, Note_on_c, 10, 55, 0
17, 42870, Note_on_c, 10, 53, 72
17, 42899, Note_on_c, 10, 53, 0
17, 42900, Note_on_c, 10, 52, 72
17, 42929, Note_on_c, 10, 52, 0
17, 42930, Note_on_c, 10, 50, 72
17, 42959, Note_on_c, 10, 50, 0
17, 42960, Note_on_c, 10, 49, 72
17, 43079, Note_on_c, 10, 49, 0
17, 43080, Note_on_c, 10, 50, 72
17, 43139, Note_on_c, 10, 50, 0
17, 43140, Note_on_c, 10, 57, 72
17, 43199, Note_on_c, 10, 57, 0
17, 43200, Note_on_c, 10, 58, 72
17, 43379, Note_on_c, 10, 58, 0
17, 43380, Note_on_c, 10, 58, 72
17, 43439, Note_on_c, 10, 58, 0
17, 43440, Note_on_c, 10, 57, 72
17, 43559, Note_on_c, 10, 57, 0
17, 43980, Note_on_c, 10, 45, 72
17, 44039, Note_on_c, 10, 45, 0
17, 44040, Note_on_c, 10, 45, 72
17, 44099, Note_on_c, 10, 45, 0
17, 44100, Note_on_c, 10, 45, 72
17, 44159, Note_on_c, 10, 45, 0
17, 44160, Note_on_c, 10, 46, 72
17, 44189, Note_on_c, 10, 46, 0
17, 44190, Note_on_c, 10, 48, 72
17, 44219, Note_on_c, 10, 48, 0
17, 44220, Note_on_c, 10, 46, 72
17, 44249, Note_on_c, 10, 46, 0
17, 44250, Note_on_c, 10, 45, 72
17, 44279, Note_on_c, 10, 45, 0
17, 44280, Note_on_c, 10, 47, 72
17, 44309, Note_on_c, 10, 47, 0
17, 44310, Note_on_c, 10, 48, 72
17, 44339, Note_on_c, 10, 48, 0
17, 44340, Note_on_c, 10, 45, 72
17, 44369, Note_on_c, 10, 45, 0
17, 44370, Note_on_c, 10, 47, 72
17, 44399, Note_on_c, 10, 47, 0
17, 44400, Note_on_c, 10, 48, 72
17, 44429, Note_on_c, 10, 48, 0
17, 44430, Note_on_c, 10, 50, 72
17, 44459, Note_on_c, 10, 50, 0
17, 44460, Note_on_c, 10, 48, 72
17, 44489, Note_on_c, 10, 48, 0
17, 44490, Note_on_c, 10, 47, 72
17, 44519, Note_on_c, 10, 47, 0
17, 44520, Note_on_c, 10, 49, 72
17, 44549, Note_on_c, 10, 49, 0
17, 44550, Note_on_c, 10, 50, 72
17, 44579, Note_on_c, 10, 50, 0
17, 44580, Note_on_c, 10, 47, 72
17, 44609, Note_on_c, 10, 47, 0
17, 44610, Note_on_c, 10, 49, 72
17, 44639, Note_on_c, 10, 49, 0
17, 44640, Note_on_c, 10, 50, 72
17, 44699, Note_on_c, 10, 50, 0
17, 44700, Note_on_c, 10, 50, 72
17, 44759, Note_on_c, 10, 50, 0
17, 44760, Note_on_c, 10, 55, 72
17, 44819, Note_on_c, 10, 55, 0
17, 44820, Note_on_c, 10, 53, 72
17, 44879, Note_on_c, 10, 53, 0
17, 44880, Note_on_c, 10, 52, 72
17, 44939, Note_on_c, 10, 52, 0
17, 44940, Note_on_c, 10, 52, 72
17, 44999, Note_on_c, 10, 52, 0
17, 45000, Note_on_c, 10, 57, 72
17, 45059, Note_on_c, 10, 57, 0
17, 45060, Note_on_c, 10, 55, 72
17, 45119, Note_on_c, 10, 55, 0
17, 45120, Note_on_c, 10, 53, 72
17, 45239, Note_on_c, 10, 53, 0
17, 45540, Note_on_c, 10, 52, 72
17, 45599, Note_on_c, 10, 52, 0
17, 45600, Note_on_c, 10, 57, 72
17, 45659, Note_on_c, 10, 57, 0
17, 45660, Note_on_c, 10, 45, 72
17, 45719, Note_on_c, 10, 45, 0
17, 45720, Note_on_c, 10, 50, 72
17, 45779, Note_on_c, 10, 50, 0
17, 45780, Note_on_c, 10, 48, 72
17, 45839, Note_on_c, 10, 48, 0
17, 45840, Note_on_c, 10, 47, 72
17, 45899, Note_on_c, 10, 47, 0
17, 45900, Note_on_c, 10, 47, 72
17, 45959, Note_on_c, 10, 47, 0
17, 45960, Note_on_c, 10, 52, 72
17, 46019, Note_on_c, 10, 52, 0
17, 46020, Note_on_c, 10, 50, 72
17, 46079, Note_on_c, 10, 50, 0
17, 46080, Note_on_c, 10, 49, 72
17, 46139, Note_on_c, 10, 49, 0
17, 46140, Note_on_c, 10, 57, 72
17, 46199, Note_on_c, 10, 57, 0
17, 46200, Note_on_c, 10, 58, 72
17, 46259, Note_on_c, 10, 58, 0
17, 46260, Note_on_c, 10, 55, 72
17, 46319, Note_on_c, 10, 55, 0
17, 46320, Note_on_c, 10, 57, 72
17, 46499, Note_on_c, 10, 57, 0
17, 46500, Note_on_c, 10, 57, 72
17, 46559, Note_on_c, 10, 57, 0
17, 46560, Note_on_c, 10, 56, 72
17, 46799, Note_on_c, 10, 56, 0
17, 46920, Note_on_c, 10, 56, 72
17, 47009, Note_on_c, 10, 56, 0
17, 47010, Note_on_c, 10, 56, 72
17, 47039, Note_on_c, 10, 56, 0
17, 47040, Note_on_c, 10, 57, 72
17, 47159, Note_on_c, 10, 57, 0
17, 47160, Note_on_c, 10, 53, 72
17, 47219, Note_on_c, 10, 53, 0
17, 47220, Note_on_c, 10, 50, 72
17, 47279, Note_on_c, 10, 50, 0
17, 47280, Note_on_c, 10, 57, 72
17, 47459, Note_on_c, 10, 57, 0
17, 47460, Note_on_c, 10, 57, 72
17, 47519, Note_on_c, 10, 57, 0
17, 47520, Note_on_c, 10, 50, 72
17, 47999, Note_on_c, 10, 50, 0
17, 47999, End_track
18, 0, Start_track
18, 0, Title_t, "Soprano"
18, 0, Program_c, 11, 52
18, 0, Control_c, 11, 7, 127
18, 0, Control_c, 11, 10, 43
18, 0, Control_c, 11, 11, 127
18, 4200, Note_on_c, 11, 69, 72
18, 4379, Note_on_c, 11, 69, 0
18, 4380, Note_on_c, 11, 69, 72
18, 4439, Note_on_c, 11, 69, 0
18, 4440, Note_on_c, 11, 68, 72
18, 4499, Note_on_c, 11, 68, 0
18, 4500, Note_on_c, 11, 68, 72
18, 4559, Note_on_c, 11, 68, 0
18, 4560, Note_on_c, 11, 69, 72
18, 4679, Note_on_c, 11, 69, 0
18, 4680, Note_on_c, 11, 71, 72
18, 4799, Note_on_c, 11, 71, 0
18, 4800, Note_on_c, 11, 72, 72
18, 4919, Note_on_c, 11, 72, 0
18, 4920, Note_on_c, 11, 70, 72
18, 4979, Note_on_c, 11, 70, 0
18, 4980, Note_on_c, 11, 69, 72
18, 5039, Note_on_c, 11, 69, 0
18, 5040, Note_on_c, 11, 70, 72
18, 5159, Note_on_c, 11, 70, 0
18, 5160, Note_on_c, 11, 69, 72
18, 5219, Note_on_c, 11, 69, 0
18, 5220, Note_on_c, 11, 67, 72
18, 5279, Note_on_c, 11, 67, 0
18, 5280, Note_on_c, 11, 69, 72
18, 5339, Note_on_c, 11, 69, 0
18, 5340, Note_on_c, 11, 69, 72
18, 5369, Note_on_c, 11, 69, 0
18, 5370, Note_on_c, 11, 69, 72
18, 5399, Note_on_c, 11, 69, 0
18, 5400, Note_on_c, 11, 74, 72
18, 5579, Note_on_c, 11, 74, 0
18, 5580, Note_on_c, 11, 74, 72
18, 5639, Note_on_c, 11, 74, 0
18, 5640, Note_on_c, 11, 73, 72
18, 5699, Note_on_c, 11, 73, 0
18, 5700, Note_on_c, 11, 73, 72
18, 5759, Note_on_c, 11, 73, 0
18, 5760, Note_on_c, 11, 74, 72
18, 5879, Note_on_c, 11, 74, 0
18, 5880, Note_on_c, 11, 76, 72
18, 5999, Note_on_c, 11, 76, 0
18, 6000, Note_on_c, 11, 77, 72
18, 6119, Note_on_c, 11, 77, 0
18, 6120, Note_on_c, 11, 76, 72
18, 6179, Note_on_c, 11, 76, 0
18, 6180, Note_on_c, 11, 76, 72
18, 6239, Note_on_c, 11, 76, 0
18, 6240, Note_on_c, 11, 74, 72
18, 6299, Note_on_c, 11, 74, 0
18, 6300, Note_on_c, 11, 74, 72
18, 6359, Note_on_c, 11, 74, 0
18, 6360, Note_on_c, 11, 74, 72
18, 6449, Note_on_c, 11, 74, 0
18, 6450, Note_on_c, 11, 74, 72
18, 6479, Note_on_c, 11, 74, 0
18, 6480, Note_on_c, 11, 73, 72
18, 6599, Note_on_c, 11, 73, 0
18, 6780, Note_on_c, 11, 72, 72
18, 6839, Note_on_c, 11, 72, 0
18, 6840, Note_on_c, 11, 72, 72
18, 6899, Note_on_c, 11, 72, 0
18, 6900, Note_on_c, 11, 72, 72
18, 6959, Note_on_c, 11, 72, 0
18, 6960, Note_on_c, 11, 72, 72
18, 7049, Note_on_c, 11, 72, 0
18, 7050, Note_on_c, 11, 70, 72
18, 7079, Note_on_c, 11, 70, 0
18, 7080, Note_on_c, 11, 69, 72
18, 7199, Note_on_c, 11, 69, 0
18, 7260, Note_on_c, 11, 75, 72
18, 7319, Note_on_c, 11, 75, 0
18, 7320, Note_on_c, 11, 75, 72
18, 7379, Note_on_c, 11, 75, 0
18, 7380, Note_on_c, 11, 75, 72
18, 7439, Note_on_c, 11, 75, 0
18, 7440, Note_on_c, 11, 75, 72
18, 7529, Note_on_c, 11, 75, 0
18, 7530, Note_on_c, 11, 74, 72
18, 7559, Note_on_c, 11, 74, 0
18, 7560, Note_on_c, 11, 72, 72
18, 7679, Note_on_c, 11, 72, 0
18, 7680, Note_on_c, 11, 79, 72
18, 7769, Note_on_c, 11, 79, 0
18, 7770, Note_on_c, 11, 79, 72
18, 7799, Note_on_c, 11, 79, 0
18, 7800, Note_on_c, 11, 77, 72
18, 7919, Note_on_c, 11, 77, 0
18, 8160, Note_on_c, 11, 72, 48
18, 8279, Note_on_c, 11, 72, 0
18, 8280, Note_on_c, 11, 73, 48
18, 8339, Note_on_c, 11, 73, 0
18, 8340, Note_on_c, 11, 70, 48
18, 8399, Note_on_c, 11, 70, 0
18, 8400, Note_on_c, 11, 70, 48
18, 8519, Note_on_c, 11, 70, 0
18, 8520, Note_on_c, 11, 69, 48
18, 8639, Note_on_c, 11, 69, 0
18, 8640, Note_on_c, 11, 70, 48
18, 8759, Note_on_c, 11, 70, 0
18, 9120, Control_c, 11, 10, 55
18, 9120, Program_c, 11, 73
18, 9600, Note_on_c, 11, 74, 64
18, 9719, Note_on_c, 11, 74, 0
18, 9720, Note_on_c, 11, 77, 64
18, 9839, Note_on_c, 11, 77, 0
18, 9840, Note_on_c, 11, 74, 64
18, 9899, Note_on_c, 11, 74, 0
18, 9900, Note_on_c, 11, 74, 64
18, 9959, Note_on_c, 11, 74, 0
18, 9960, Note_on_c, 11, 74, 64
18, 10139, Note_on_c, 11, 74, 0
18, 10140, Note_on_c, 11, 74, 64
18, 10199, Note_on_c, 11, 74, 0
18, 10200, Note_on_c, 11, 75, 64
18, 10319, Note_on_c, 11, 75, 0
18, 10320, Note_on_c, 11, 74, 64
18, 10379, Note_on_c, 11, 74, 0
18, 10380, Note_on_c, 11, 74, 64
18, 10439, Note_on_c, 11, 74, 0
18, 10440, Note_on_c, 11, 72, 64
18, 10559, Note_on_c, 11, 72, 0
18, 10560, Note_on_c, 11, 70, 64
18, 10679, Note_on_c, 11, 70, 0
18, 11040, Note_on_c, 11, 72, 64
18, 11159, Note_on_c, 11, 72, 0
18, 11160, Note_on_c, 11, 72, 64
18, 11279, Note_on_c, 11, 72, 0
18, 11280, Note_on_c, 11, 72, 64
18, 11339, Note_on_c, 11, 72, 0
18, 11340, Note_on_c, 11, 72, 64
18, 11399, Note_on_c, 11, 72, 0
18, 11400, Note_on_c, 11, 72, 64
18, 11489, Note_on_c, 11, 72, 0
18, 11490, Note_on_c, 11, 72, 64
18, 11519, Note_on_c, 11, 72, 0
18, 11520, Note_on_c, 11, 74, 64
18, 11579, Note_on_c, 11, 74, 0
18, 11580, Note_on_c, 11, 74, 64
18, 11639, Note_on_c, 11, 74, 0
18, 11640, Note_on_c, 11, 67, 64
18, 11699, Note_on_c, 11, 67, 0
18, 11700, Note_on_c, 11, 67, 64
18, 11759, Note_on_c, 11, 67, 0
18, 11760, Note_on_c, 11, 70, 64
18, 11879, Note_on_c, 11, 70, 0
18, 11880, Note_on_c, 11, 69, 64
18, 11969, Note_on_c, 11, 69, 0
18, 11970, Note_on_c, 11, 69, 64
18, 11999, Note_on_c, 11, 69, 0
18, 12000, Note_on_c, 11, 67, 64
18, 12119, Note_on_c, 11, 67, 0
18, 12120, Control_c, 11, 10, 24
18, 12120, Program_c, 11, 73
18, 12480, Note_on_c, 11, 74, 72
18, 12599, Note_on_c, 11, 74, 0
18, 12600, Note_on_c, 11, 77, 72
18, 12719, Note_on_c, 11, 77, 0
18, 12720, Note_on_c, 11, 74, 72
18, 12839, Note_on_c, 11, 74, 0
18, 12840, Note_on_c, 11, 74, 72
18, 13019, Note_on_c, 11, 74, 0
18, 13020, Note_on_c, 11, 74, 72
18, 13079, Note_on_c, 11, 74, 0
18, 13080, Note_on_c, 11, 74, 72
18, 13139, Note_on_c, 11, 74, 0
18, 13140, Note_on_c, 11, 74, 72
18, 13199, Note_on_c, 11, 74, 0
18, 13200, Note_on_c, 11, 75, 72
18, 13259, Note_on_c, 11, 75, 0
18, 13260, Note_on_c, 11, 74, 72
18, 13319, Note_on_c, 11, 74, 0
18, 13320, Note_on_c, 11, 72, 72
18, 13439, Note_on_c, 11, 72, 0
18, 13440, Note_on_c, 11, 70, 72
18, 13559, Note_on_c, 11, 70, 0
18, 13920, Note_on_c, 11, 72, 72
18, 14039, Note_on_c, 11, 72, 0
18, 14040, Note_on_c, 11, 72, 72
18, 14159, Note_on_c, 11, 72, 0
18, 14160, Note_on_c, 11, 72, 72
18, 14339, Note_on_c, 11, 72, 0
18, 14340, Note_on_c, 11, 72, 72
18, 14399, Note_on_c, 11, 72, 0
18, 14400, Note_on_c, 11, 74, 72
18, 14519, Note_on_c, 11, 74, 0
18, 14520, Note_on_c, 11, 67, 72
18, 14639, Note_on_c, 11, 67, 0
18, 14640, Note_on_c, 11, 70, 72
18, 14759, Note_on_c, 11, 70, 0
18, 14760, Note_on_c, 11, 69, 72
18, 14849, Note_on_c, 11, 69, 0
18, 14850, Note_on_c, 11, 69, 72
18, 14879, Note_on_c, 11, 69, 0
18, 14880, Note_on_c, 11, 67, 72
18, 14999, Note_on_c, 11, 67, 0
18, 16860, Note_on_c, 11, 76, 72
18, 16949, Note_on_c, 11, 76, 0
18, 16950, Note_on_c, 11, 77, 72
18, 16979, Note_on_c, 11, 77, 0
18, 16980, Note_on_c, 11, 76, 72
18, 17009, Note_on_c, 11, 76, 0
18, 17010, Note_on_c, 11, 74, 72
18, 17039, Note_on_c, 11, 74, 0
18, 17040, Note_on_c, 11, 72, 72
18, 17069, Note_on_c, 11, 72, 0
18, 17070, Note_on_c, 11, 76, 72
18, 17099, Note_on_c, 11, 76, 0
18, 17100, Note_on_c, 11, 74, 72
18, 17129, Note_on_c, 11, 74, 0
18, 17130, Note_on_c, 11, 72, 72
18, 17159, Note_on_c, 11, 72, 0
18, 17160, Note_on_c, 11, 71, 72
18, 17189, Note_on_c, 11, 71, 0
18, 17190, Note_on_c, 11, 74, 72
18, 17219, Note_on_c, 11, 74, 0
18, 17220, Note_on_c, 11, 72, 72
18, 17249, Note_on_c, 11, 72, 0
18, 17250, Note_on_c, 11, 71, 72
18, 17279, Note_on_c, 11, 71, 0
18, 17280, Note_on_c, 11, 69, 72
18, 17309, Note_on_c, 11, 69, 0
18, 17310, Note_on_c, 11, 71, 72
18, 17339, Note_on_c, 11, 71, 0
18, 17340, Note_on_c, 11, 72, 72
18, 17429, Note_on_c, 11, 72, 0
18, 17430, Note_on_c, 11, 70, 72
18, 17459, Note_on_c, 11, 70, 0
18, 17460, Note_on_c, 11, 72, 72
18, 17489, Note_on_c, 11, 72, 0
18, 17490, Note_on_c, 11, 74, 72
18, 17519, Note_on_c, 11, 74, 0
18, 17520, Note_on_c, 11, 70, 72
18, 17669, Note_on_c, 11, 70, 0
18, 17670, Note_on_c, 11, 69, 72
18, 17699, Note_on_c, 11, 69, 0
18, 17700, Note_on_c, 11, 70, 72
18, 17729, Note_on_c, 11, 70, 0
18, 17730, Note_on_c, 11, 72, 72
18, 17759, Note_on_c, 11, 72, 0
18, 17760, Note_on_c, 11, 72, 72
18, 17849, Note_on_c, 11, 72, 0
18, 17850, Note_on_c, 11, 72, 72
18, 17879, Note_on_c, 11, 72, 0
18, 17880, Note_on_c, 11, 72, 72
18, 17999, Note_on_c, 11, 72, 0
18, 18000, Note_on_c, 11, 74, 72
18, 18179, Note_on_c, 11, 74, 0
18, 18180, Note_on_c, 11, 74, 72
18, 18239, Note_on_c, 11, 74, 0
18, 18240, Note_on_c, 11, 74, 72
18, 18269, Note_on_c, 11, 74, 0
18, 18270, Note_on_c, 11, 72, 72
18, 18299, Note_on_c, 11, 72, 0
18, 18300, Note_on_c, 11, 70, 72
18, 18329, Note_on_c, 11, 70, 0
18, 18330, Note_on_c, 11, 72, 72
18, 18359, Note_on_c, 11, 72, 0
18, 18360, Note_on_c, 11, 74, 72
18, 18389, Note_on_c, 11, 74, 0
18, 18390, Note_on_c, 11, 72, 72
18, 18419, Note_on_c, 11, 72, 0
18, 18420, Note_on_c, 11, 74, 72
18, 18449, Note_on_c, 11, 74, 0
18, 18450, Note_on_c, 11, 76, 72
18, 18479, Note_on_c, 11, 76, 0
18, 18480, Note_on_c, 11, 77, 72
18, 18539, Note_on_c, 11, 77, 0
18, 18540, Note_on_c, 11, 72, 72
18, 18599, Note_on_c, 11, 72, 0
18, 18600, Note_on_c, 11, 77, 72
18, 18779, Note_on_c, 11, 77, 0
18, 18780, Note_on_c, 11, 77, 72
18, 18839, Note_on_c, 11, 77, 0
18, 18840, Note_on_c, 11, 76, 72
18, 18899, Note_on_c, 11, 76, 0
18, 18900, Note_on_c, 11, 76, 72
18, 18959, Note_on_c, 11, 76, 0
18, 18960, Note_on_c, 11, 77, 72
18, 19079, Note_on_c, 11, 77, 0
18, 19080, Note_on_c, 11, 79, 72
18, 19199, Note_on_c, 11, 79, 0
18, 19200, Note_on_c, 11, 81, 72
18, 19319, Note_on_c, 11, 81, 0
18, 19320, Note_on_c, 11, 73, 72
18, 19379, Note_on_c, 11, 73, 0
18, 19380, Note_on_c, 11, 73, 72
18, 19439, Note_on_c, 11, 73, 0
18, 19440, Note_on_c, 11, 74, 72
18, 19559, Note_on_c, 11, 74, 0
18, 19560, Note_on_c, 11, 76, 72
18, 19679, Note_on_c, 11, 76, 0
18, 19680, Note_on_c, 11, 77, 72
18, 19799, Note_on_c, 11, 77, 0
18, 19800, Note_on_c, 11, 69, 72
18, 19859, Note_on_c, 11, 69, 0
18, 19860, Note_on_c, 11, 69, 72
18, 19919, Note_on_c, 11, 69, 0
18, 19920, Note_on_c, 11, 70, 72
18, 20039, Note_on_c, 11, 70, 0
18, 20040, Note_on_c, 11, 72, 72
18, 20159, Note_on_c, 11, 72, 0
18, 20160, Note_on_c, 11, 74, 72
18, 20219, Note_on_c, 11, 74, 0
18, 20220, Note_on_c, 11, 74, 72
18, 20279, Note_on_c, 11, 74, 0
18, 20280, Note_on_c, 11, 74, 72
18, 20339, Note_on_c, 11, 74, 0
18, 20340, Note_on_c, 11, 74, 72
18, 20399, Note_on_c, 11, 74, 0
18, 20400, Note_on_c, 11, 77, 72
18, 20489, Note_on_c, 11, 77, 0
18, 20490, Note_on_c, 11, 76, 72
18, 20519, Note_on_c, 11, 76, 0
18, 20520, Note_on_c, 11, 74, 72
18, 20639, Note_on_c, 11, 74, 0
18, 20700, Note_on_c, 11, 74, 72
18, 20759, Note_on_c, 11, 74, 0
18, 20760, Note_on_c, 11, 74, 72
18, 20819, Note_on_c, 11, 74, 0
18, 20820, Note_on_c, 11, 74, 72
18, 20879, Note_on_c, 11, 74, 0
18, 20880, Note_on_c, 11, 77, 72
18, 20969, Note_on_c, 11, 77, 0
18, 20970, Note_on_c, 11, 76, 72
18, 20999, Note_on_c, 11, 76, 0
18, 21000, Note_on_c, 11, 74, 72
18, 21119, Note_on_c, 11, 74, 0
18, 21240, Note_on_c, 11, 77, 72
18, 21479, Note_on_c, 11, 77, 0
18, 21480, Note_on_c, 11, 76, 72
18, 21539, Note_on_c, 11, 76, 0
18, 21540, Note_on_c, 11, 74, 72
18, 21599, Note_on_c, 11, 74, 0
18, 21600, Note_on_c, 11, 74, 72
18, 21659, Note_on_c, 11, 74, 0
18, 21660, Note_on_c, 11, 73, 72
18, 21719, Note_on_c, 11, 73, 0
18, 21780, Note_on_c, 11, 69, 48
18, 21839, Note_on_c, 11, 69, 0
18, 21840, Note_on_c, 11, 69, 48
18, 21959, Note_on_c, 11, 69, 0
18, 21960, Note_on_c, 11, 69, 48
18, 22079, Note_on_c, 11, 69, 0
18, 22080, Note_on_c, 11, 69, 48
18, 22169, Note_on_c, 11, 69, 0
18, 22170, Note_on_c, 11, 69, 48
18, 22199, Note_on_c, 11, 69, 0
18, 22200, Note_on_c, 11, 69, 48
18, 22319, Note_on_c, 11, 69, 0
18, 22320, Note_on_c, 11, 69, 48
18, 22439, Note_on_c, 11, 69, 0
18, 22440, Note_on_c, 11, 68, 48
18, 22499, Note_on_c, 11, 68, 0
18, 22500, Note_on_c, 11, 69, 48
18, 22559, Note_on_c, 11, 69, 0
18, 22560, Note_on_c, 11, 65, 48
18, 22679, Note_on_c, 11, 65, 0
18, 22680, Note_on_c, 11, 64, 48
18, 22739, Note_on_c, 11, 64, 0
18, 22740, Note_on_c, 11, 62, 48
18, 22799, Note_on_c, 11, 62, 0
18, 22800, Note_on_c, 11, 64, 48
18, 23039, Note_on_c, 11, 64, 0
18, 24720, Note_on_c, 11, 74, 72
18, 24899, Note_on_c, 11, 74, 0
18, 24900, Note_on_c, 11, 74, 72
18, 24959, Note_on_c, 11, 74, 0
18, 24960, Note_on_c, 11, 72, 72
18, 25079, Note_on_c, 11, 72, 0
18, 25080, Note_on_c, 11, 77, 72
18, 25199, Note_on_c, 11, 77, 0
18, 25200, Note_on_c, 11, 68, 72
18, 25379, Note_on_c, 11, 68, 0
18, 25380, Note_on_c, 11, 68, 72
18, 25439, Note_on_c, 11, 68, 0
18, 25440, Note_on_c, 11, 69, 72
18, 25559, Note_on_c, 11, 69, 0
18, 25620, Note_on_c, 11, 69, 72
18, 25679, Note_on_c, 11, 69, 0
18, 25680, Note_on_c, 11, 71, 72
18, 25859, Note_on_c, 11, 71, 0
18, 25860, Note_on_c, 11, 69, 72
18, 25889, Note_on_c, 11, 69, 0
18, 25890, Note_on_c, 11, 71, 72
18, 25919, Note_on_c, 11, 71, 0
18, 25920, Note_on_c, 11, 72, 72
18, 25979, Note_on_c, 11, 72, 0
18, 25980, Note_on_c, 11, 71, 72
18, 26009, Note_on_c, 11, 71, 0
18, 26010, Note_on_c, 11, 72, 72
18, 26039, Note_on_c, 11, 72, 0
18, 26040, Note_on_c, 11, 74, 72
18, 26099, Note_on_c, 11, 74, 0
18, 26100, Note_on_c, 11, 72, 72
18, 26129, Note_on_c, 11, 72, 0
18, 26130, Note_on_c, 11, 74, 72
18, 26159, Note_on_c, 11, 74, 0
18, 26160, Note_on_c, 11, 76, 72
18, 26219, Note_on_c, 11, 76, 0
18, 26220, Note_on_c, 11, 74, 72
18, 26279, Note_on_c, 11, 74, 0
18, 26280, Note_on_c, 11, 72, 72
18, 26339, Note_on_c, 11, 72, 0
18, 26340, Note_on_c, 11, 71, 72
18, 26399, Note_on_c, 11, 71, 0
18, 26400, Note_on_c, 11, 69, 72
18, 26459, Note_on_c, 11, 69, 0
18, 26460, Note_on_c, 11, 79, 72
18, 26519, Note_on_c, 11, 79, 0
18, 26520, Note_on_c, 11, 77, 72
18, 26579, Note_on_c, 11, 77, 0
18, 26580, Note_on_c, 11, 76, 72
18, 26639, Note_on_c, 11, 76, 0
18, 26640, Note_on_c, 11, 74, 72
18, 26759, Note_on_c, 11, 74, 0
18, 26820, Note_on_c, 11, 62, 72
18, 26879, Note_on_c, 11, 62, 0
18, 26880, Note_on_c, 11, 67, 72
18, 27059, Note_on_c, 11, 67, 0
18, 27060, Note_on_c, 11, 65, 72
18, 27089, Note_on_c, 11, 65, 0
18, 27090, Note_on_c, 11, 64, 72
18, 27119, Note_on_c, 11, 64, 0
18, 27120, Note_on_c, 11, 69, 72
18, 27179, Note_on_c, 11, 69, 0
18, 27180, Note_on_c, 11, 62, 72
18, 27239, Note_on_c, 11, 62, 0
18, 27240, Note_on_c, 11, 74, 72
18, 27479, Note_on_c, 11, 74, 0
18, 27480, Note_on_c, 11, 74, 72
18, 27599, Note_on_c, 11, 74, 0
18, 27600, Note_on_c, 11, 74, 72
18, 27659, Note_on_c, 11, 74, 0
18, 27660, Note_on_c, 11, 73, 72
18, 27689, Note_on_c, 11, 73, 0
18, 27690, Note_on_c, 11, 74, 72
18, 27719, Note_on_c, 11, 74, 0
18, 27720, Note_on_c, 11, 76, 72
18, 27959, Note_on_c, 11, 76, 0
18, 27960, Note_on_c, 11, 74, 72
18, 28019, Note_on_c, 11, 74, 0
18, 28020, Note_on_c, 11, 73, 72
18, 28079, Note_on_c, 11, 73, 0
18, 28080, Note_on_c, 11, 74, 72
18, 28199, Note_on_c, 11, 74, 0
18, 28620, Note_on_c, 11, 71, 72
18, 28679, Note_on_c, 11, 71, 0
18, 28680, Note_on_c, 11, 71, 72
18, 28739, Note_on_c, 11, 71, 0
18, 28740, Note_on_c, 11, 71, 72
18, 28799, Note_on_c, 11, 71, 0
18, 28800, Note_on_c, 11, 72, 72
18, 28829, Note_on_c, 11, 72, 0
18, 28830, Note_on_c, 11, 74, 72
18, 28859, Note_on_c, 11, 74, 0
18, 28860, Note_on_c, 11, 72, 72
18, 28889, Note_on_c, 11, 72, 0
18, 28890, Note_on_c, 11, 71, 72
18, 28919, Note_on_c, 11, 71, 0
18, 28920, Note_on_c, 11, 72, 72
18, 28949, Note_on_c, 11, 72, 0
18, 28950, Note_on_c, 11, 74, 72
18, 28979, Note_on_c, 11, 74, 0
18, 28980, Note_on_c, 11, 71, 72
18, 29009, Note_on_c, 11, 71, 0
18, 29010, Note_on_c, 11, 72, 72
18, 29039, Note_on_c, 11, 72, 0
18, 29040, Note_on_c, 11, 74, 72
18, 29069, Note_on_c, 11, 74, 0
18, 29070, Note_on_c, 11, 76, 72
18, 29099, Note_on_c, 11, 76, 0
18, 29100, Note_on_c, 11, 74, 72
18, 29129, Note_on_c, 11, 74, 0
18, 29130, Note_on_c, 11, 72, 72
18, 29159, Note_on_c, 11, 72, 0
18, 29160, Note_on_c, 11, 74, 72
18, 29189, Note_on_c, 11, 74, 0
18, 29190, Note_on_c, 11, 76, 72
18, 29219, Note_on_c, 11, 76, 0
18, 29220, Note_on_c, 11, 72, 72
18, 29249, Note_on_c, 11, 72, 0
18, 29250, Note_on_c, 11, 74, 72
18, 29279, Note_on_c, 11, 74, 0
18, 29280, Note_on_c, 11, 76, 72
18, 29339, Note_on_c, 11, 76, 0
18, 29340, Note_on_c, 11, 77, 72
18, 29369, Note_on_c, 11, 77, 0
18, 29370, Note_on_c, 11, 76, 72
18, 29399, Note_on_c, 11, 76, 0
18, 29400, Note_on_c, 11, 74, 72
18, 29429, Note_on_c, 11, 74, 0
18, 29430, Note_on_c, 11, 72, 72
18, 29459, Note_on_c, 11, 72, 0
18, 29460, Note_on_c, 11, 71, 72
18, 29489, Note_on_c, 11, 71, 0
18, 29490, Note_on_c, 11, 69, 72
18, 29519, Note_on_c, 11, 69, 0
18, 29520, Note_on_c, 11, 68, 72
18, 29579, Note_on_c, 11, 68, 0
18, 29580, Note_on_c, 11, 71, 72
18, 29639, Note_on_c, 11, 71, 0
18, 29640, Note_on_c, 11, 76, 72
18, 29699, Note_on_c, 11, 76, 0
18, 29700, Note_on_c, 11, 74, 72
18, 29759, Note_on_c, 11, 74, 0
18, 29760, Note_on_c, 11, 72, 72
18, 29789, Note_on_c, 11, 72, 0
18, 29790, Note_on_c, 11, 71, 72
18, 29819, Note_on_c, 11, 71, 0
18, 29820, Note_on_c, 11, 69, 72
18, 29909, Note_on_c, 11, 69, 0
18, 29910, Note_on_c, 11, 70, 72
18, 29939, Note_on_c, 11, 70, 0
18, 29940, Note_on_c, 11, 67, 72
18, 29969, Note_on_c, 11, 67, 0
18, 29970, Note_on_c, 11, 69, 72
18, 29999, Note_on_c, 11, 69, 0
18, 30000, Note_on_c, 11, 66, 72
18, 30119, Note_on_c, 11, 66, 0
18, 30120, Note_on_c, 11, 67, 72
18, 30179, Note_on_c, 11, 67, 0
18, 30180, Note_on_c, 11, 69, 72
18, 30239, Note_on_c, 11, 69, 0
18, 30240, Note_on_c, 11, 62, 72
18, 30359, Note_on_c, 11, 62, 0
18, 30480, Note_on_c, 11, 72, 72
18, 30659, Note_on_c, 11, 72, 0
18, 30660, Note_on_c, 11, 72, 72
18, 30719, Note_on_c, 11, 72, 0
18, 30720, Note_on_c, 11, 69, 72
18, 30839, Note_on_c, 11, 69, 0
18, 30840, Note_on_c, 11, 74, 72
18, 30959, Note_on_c, 11, 74, 0
18, 30960, Note_on_c, 11, 64, 72
18, 31139, Note_on_c, 11, 64, 0
18, 31140, Note_on_c, 11, 64, 72
18, 31199, Note_on_c, 11, 64, 0
18, 31200, Note_on_c, 11, 65, 72
18, 31319, Note_on_c, 11, 65, 0
18, 31380, Note_on_c, 11, 65, 72
18, 31439, Note_on_c, 11, 65, 0
18, 31440, Note_on_c, 11, 67, 72
18, 31619, Note_on_c, 11, 67, 0
18, 31620, Note_on_c, 11, 65, 72
18, 31649, Note_on_c, 11, 65, 0
18, 31650, Note_on_c, 11, 67, 72
18, 31679, Note_on_c, 11, 67, 0
18, 31680, Note_on_c, 11, 69, 72
18, 31739, Note_on_c, 11, 69, 0
18, 31740, Note_on_c, 11, 67, 72
18, 31769, Note_on_c, 11, 67, 0
18, 31770, Note_on_c, 11, 69, 72
18, 31799, Note_on_c, 11, 69, 0
18, 31800, Note_on_c, 11, 70, 72
18, 31859, Note_on_c, 11, 70, 0
18, 31860, Note_on_c, 11, 69, 72
18, 31889, Note_on_c, 11, 69, 0
18, 31890, Note_on_c, 11, 70, 72
18, 31919, Note_on_c, 11, 70, 0
18, 31920, Note_on_c, 11, 72, 72
18, 31979, Note_on_c, 11, 72, 0
18, 31980, Note_on_c, 11, 70, 72
18, 32039, Note_on_c, 11, 70, 0
18, 32040, Note_on_c, 11, 69, 72
18, 32099, Note_on_c, 11, 69, 0
18, 32100, Note_on_c, 11, 67, 72
18, 32159, Note_on_c, 11, 67, 0
18, 32160, Note_on_c, 11, 66, 72
18, 32279, Note_on_c, 11, 66, 0
18, 32280, Note_on_c, 11, 67, 72
18, 32339, Note_on_c, 11, 67, 0
18, 32340, Note_on_c, 11, 69, 72
18, 32399, Note_on_c, 11, 69, 0
18, 32400, Note_on_c, 11, 70, 72
18, 32519, Note_on_c, 11, 70, 0
18, 32700, Note_on_c, 11, 69, 72
18, 32759, Note_on_c, 11, 69, 0
18, 32760, Note_on_c, 11, 69, 72
18, 32819, Note_on_c, 11, 69, 0
18, 32820, Note_on_c, 11, 69, 72
18, 32879, Note_on_c, 11, 69, 0
18, 32880, Note_on_c, 11, 70, 72
18, 32909, Note_on_c, 11, 70, 0
18, 32910, Note_on_c, 11, 72, 72
18, 32939, Note_on_c, 11, 72, 0
18, 32940, Note_on_c, 11, 70, 72
18, 32969, Note_on_c, 11, 70, 0
18, 32970, Note_on_c, 11, 69, 72
18, 32999, Note_on_c, 11, 69, 0
18, 33000, Note_on_c, 11, 70, 72
18, 33029, Note_on_c, 11, 70, 0
18, 33030, Note_on_c, 11, 72, 72
18, 33059, Note_on_c, 11, 72, 0
18, 33060, Note_on_c, 11, 69, 72
18, 33089, Note_on_c, 11, 69, 0
18, 33090, Note_on_c, 11, 70, 72
18, 33119, Note_on_c, 11, 70, 0
18, 33120, Note_on_c, 11, 72, 72
18, 33149, Note_on_c, 11, 72, 0
18, 33150, Note_on_c, 11, 74, 72
18, 33179, Note_on_c, 11, 74, 0
18, 33180, Note_on_c, 11, 72, 72
18, 33209, Note_on_c, 11, 72, 0
18, 33210, Note_on_c, 11, 70, 72
18, 33239, Note_on_c, 11, 70, 0
18, 33240, Note_on_c, 11, 72, 72
18, 33269, Note_on_c, 11, 72, 0
18, 33270, Note_on_c, 11, 74, 72
18, 33299, Note_on_c, 11, 74, 0
18, 33300, Note_on_c, 11, 70, 72
18, 33329, Note_on_c, 11, 70, 0
18, 33330, Note_on_c, 11, 72, 72
18, 33359, Note_on_c, 11, 72, 0
18, 33360, Note_on_c, 11, 74, 72
18, 33419, Note_on_c, 11, 74, 0
18, 33420, Note_on_c, 11, 75, 72
18, 33449, Note_on_c, 11, 75, 0
18, 33450, Note_on_c, 11, 74, 72
18, 33479, Note_on_c, 11, 74, 0
18, 33480, Note_on_c, 11, 72, 72
18, 33509, Note_on_c, 11, 72, 0
18, 33510, Note_on_c, 11, 70, 72
18, 33539, Note_on_c, 11, 70, 0
18, 33540, Note_on_c, 11, 69, 72
18, 33569, Note_on_c, 11, 69, 0
18, 33570, Note_on_c, 11, 67, 72
18, 33599, Note_on_c, 11, 67, 0
18, 33600, Note_on_c, 11, 66, 72
18, 33659, Note_on_c, 11, 66, 0
18, 33660, Note_on_c, 11, 69, 72
18, 33719, Note_on_c, 11, 69, 0
18, 33720, Note_on_c, 11, 74, 72
18, 33779, Note_on_c, 11, 74, 0
18, 33780, Note_on_c, 11, 72, 72
18, 33839, Note_on_c, 11, 72, 0
18, 33840, Note_on_c, 11, 70, 72
18, 33899, Note_on_c, 11, 70, 0
18, 33900, Note_on_c, 11, 71, 72
18, 33959, Note_on_c, 11, 71, 0
18, 33960, Note_on_c, 11, 72, 72
18, 34019, Note_on_c, 11, 72, 0
18, 34020, Note_on_c, 11, 74, 72
18, 34079, Note_on_c, 11, 74, 0
18, 34080, Note_on_c, 11, 75, 72
18, 34109, Note_on_c, 11, 75, 0
18, 34110, Note_on_c, 11, 74, 72
18, 34139, Note_on_c, 11, 74, 0
18, 34140, Note_on_c, 11, 72, 72
18, 34199, Note_on_c, 11, 72, 0
18, 35760, Note_on_c, 11, 77, 72
18, 35939, Note_on_c, 11, 77, 0
18, 35940, Note_on_c, 11, 77, 72
18, 35999, Note_on_c, 11, 77, 0
18, 36000, Note_on_c, 11, 74, 72
18, 36119, Note_on_c, 11, 74, 0
18, 36120, Note_on_c, 11, 79, 72
18, 36239, Note_on_c, 11, 79, 0
18, 36240, Note_on_c, 11, 69, 72
18, 36419, Note_on_c, 11, 69, 0
18, 36420, Note_on_c, 11, 69, 72
18, 36479, Note_on_c, 11, 69, 0
18, 36480, Note_on_c, 11, 70, 72
18, 36599, Note_on_c, 11, 70, 0
18, 36660, Note_on_c, 11, 70, 72
18, 36719, Note_on_c, 11, 70, 0
18, 36720, Note_on_c, 11, 72, 72
18, 36899, Note_on_c, 11, 72, 0
18, 36900, Note_on_c, 11, 70, 72
18, 36929, Note_on_c, 11, 70, 0
18, 36930, Note_on_c, 11, 72, 72
18, 36959, Note_on_c, 11, 72, 0
18, 36960, Note_on_c, 11, 74, 72
18, 37019, Note_on_c, 11, 74, 0
18, 37020, Note_on_c, 11, 72, 72
18, 37049, Note_on_c, 11, 72, 0
18, 37050, Note_on_c, 11, 74, 72
18, 37079, Note_on_c, 11, 74, 0
18, 37080, Note_on_c, 11, 75, 72
18, 37139, Note_on_c, 11, 75, 0
18, 37140, Note_on_c, 11, 74, 72
18, 37169, Note_on_c, 11, 74, 0
18, 37170, Note_on_c, 11, 75, 72
18, 37199, Note_on_c, 11, 75, 0
18, 37200, Note_on_c, 11, 77, 72
18, 37259, Note_on_c, 11, 77, 0
18, 37260, Note_on_c, 11, 72, 72
18, 37319, Note_on_c, 11, 72, 0
18, 37320, Note_on_c, 11, 77, 72
18, 37379, Note_on_c, 11, 77, 0
18, 37380, Note_on_c, 11, 75, 72
18, 37439, Note_on_c, 11, 75, 0
18, 37440, Note_on_c, 11, 74, 72
18, 37499, Note_on_c, 11, 74, 0
18, 37500, Note_on_c, 11, 65, 72
18, 37559, Note_on_c, 11, 65, 0
18, 37560, Note_on_c, 11, 70, 72
18, 37799, Note_on_c, 11, 70, 0
18, 37800, Note_on_c, 11, 69, 72
18, 37919, Note_on_c, 11, 69, 0
18, 37920, Note_on_c, 11, 70, 72
18, 37979, Note_on_c, 11, 70, 0
18, 37980, Note_on_c, 11, 70, 72
18, 38039, Note_on_c, 11, 70, 0
18, 38040, Note_on_c, 11, 70, 72
18, 38279, Note_on_c, 11, 70, 0
18, 38280, Note_on_c, 11, 68, 72
18, 38339, Note_on_c, 11, 68, 0
18, 38340, Note_on_c, 11, 67, 72
18, 38399, Note_on_c, 11, 67, 0
18, 38400, Note_on_c, 11, 68, 72
18, 38519, Note_on_c, 11, 68, 0
18, 38940, Note_on_c, 11, 65, 72
18, 38999, Note_on_c, 11, 65, 0
18, 39000, Note_on_c, 11, 70, 72
18, 39059, Note_on_c, 11, 70, 0
18, 39060, Note_on_c, 11, 68, 72
18, 39119, Note_on_c, 11, 68, 0
18, 39120, Note_on_c, 11, 67, 72
18, 39179, Note_on_c, 11, 67, 0
18, 39180, Note_on_c, 11, 60, 72
18, 39239, Note_on_c, 11, 60, 0
18, 39240, Note_on_c, 11, 72, 72
18, 39299, Note_on_c, 11, 72, 0
18, 39300, Note_on_c, 11, 70, 72
18, 39359, Note_on_c, 11, 70, 0
18, 39360, Note_on_c, 11, 68, 72
18, 39479, Note_on_c, 11, 68, 0
18, 40140, Note_on_c, 11, 69, 72
18, 40199, Note_on_c, 11, 69, 0
18, 40200, Note_on_c, 11, 69, 72
18, 40259, Note_on_c, 11, 69, 0
18, 40260, Note_on_c, 11, 69, 72
18, 40319, Note_on_c, 11, 69, 0
18, 40320, Note_on_c, 11, 70, 72
18, 40349, Note_on_c, 11, 70, 0
18, 40350, Note_on_c, 11, 72, 72
18, 40379, Note_on_c, 11, 72, 0
18, 40380, Note_on_c, 11, 70, 72
18, 40409, Note_on_c, 11, 70, 0
18, 40410, Note_on_c, 11, 69, 72
18, 40439, Note_on_c, 11, 69, 0
18, 40440, Note_on_c, 11, 71, 72
18, 40469, Note_on_c, 11, 71, 0
18, 40470, Note_on_c, 11, 72, 72
18, 40499, Note_on_c, 11, 72, 0
18, 40500, Note_on_c, 11, 69, 72
18, 40529, Note_on_c, 11, 69, 0
18, 40530, Note_on_c, 11, 71, 72
18, 40559, Note_on_c, 11, 71, 0
18, 40560, Note_on_c, 11, 72, 72
18, 40589, Note_on_c, 11, 72, 0
18, 40590, Note_on_c, 11, 74, 72
18, 40619, Note_on_c, 11, 74, 0
18, 40620, Note_on_c, 11, 72, 72
18, 40649, Note_on_c, 11, 72, 0
18, 40650, Note_on_c, 11, 71, 72
18, 40679, Note_on_c, 11, 71, 0
18, 40680, Note_on_c, 11, 73, 72
18, 40709, Note_on_c, 11, 73, 0
18, 40710, Note_on_c, 11, 74, 72
18, 40739, Note_on_c, 11, 74, 0
18, 40740, Note_on_c, 11, 71, 72
18, 40769, Note_on_c, 11, 71, 0
18, 40770, Note_on_c, 11, 73, 72
18, 40799, Note_on_c, 11, 73, 0
18, 40800, Note_on_c, 11, 74, 72
18, 40859, Note_on_c, 11, 74, 0
18, 40860, Note_on_c, 11, 69, 72
18, 40919, Note_on_c, 11, 69, 0
18, 40920, Note_on_c, 11, 74, 72
18, 40979, Note_on_c, 11, 74, 0
18, 40980, Note_on_c, 11, 72, 72
18, 41039, Note_on_c, 11, 72, 0
18, 41040, Note_on_c, 11, 71, 72
18, 41099, Note_on_c, 11, 71, 0
18, 41100, Note_on_c, 11, 64, 72
18, 41159, Note_on_c, 11, 64, 0
18, 41160, Note_on_c, 11, 76, 72
18, 41219, Note_on_c, 11, 76, 0
18, 41220, Note_on_c, 11, 74, 72
18, 41279, Note_on_c, 11, 74, 0
18, 41280, Note_on_c, 11, 73, 72
18, 41399, Note_on_c, 11, 73, 0
18, 41820, Note_on_c, 11, 76, 72
18, 41879, Note_on_c, 11, 76, 0
18, 41880, Note_on_c, 11, 76, 72
18, 41939, Note_on_c, 11, 76, 0
18, 41940, Note_on_c, 11, 76, 72
18, 41999, Note_on_c, 11, 76, 0
18, 42000, Note_on_c, 11, 77, 72
18, 42029, Note_on_c, 11, 77, 0
18, 42030, Note_on_c, 11, 79, 72
18, 42059, Note_on_c, 11, 79, 0
18, 42060, Note_on_c, 11, 77, 72
18, 42089, Note_on_c, 11, 77, 0
18, 42090, Note_on_c, 11, 76, 72
18, 42119, Note_on_c, 11, 76, 0
18, 42120, Note_on_c, 11, 77, 72
18, 42149, Note_on_c, 11, 77, 0
18, 42150, Note_on_c, 11, 79, 72
18, 42179, Note_on_c, 11, 79, 0
18, 42180, Note_on_c, 11, 76, 72
18, 42209, Note_on_c, 11, 76, 0
18, 42210, Note_on_c, 11, 77, 72
18, 42239, Note_on_c, 11, 77, 0
18, 42240, Note_on_c, 11, 79, 72
18, 42269, Note_on_c, 11, 79, 0
18, 42270, Note_on_c, 11, 81, 72
18, 42299, Note_on_c, 11, 81, 0
18, 42300, Note_on_c, 11, 79, 72
18, 42329, Note_on_c, 11, 79, 0
18, 42330, Note_on_c, 11, 77, 72
18, 42359, Note_on_c, 11, 77, 0
18, 42360, Note_on_c, 11, 79, 72
18, 42389, Note_on_c, 11, 79, 0
18, 42390, Note_on_c, 11, 81, 72
18, 42419, Note_on_c, 11, 81, 0
18, 42420, Note_on_c, 11, 77, 72
18, 42449, Note_on_c, 11, 77, 0
18, 42450, Note_on_c, 11, 79, 72
18, 42479, Note_on_c, 11, 79, 0
18, 42480, Note_on_c, 11, 81, 72
18, 42539, Note_on_c, 11, 81, 0
18, 42540, Note_on_c, 11, 82, 72
18, 42569, Note_on_c, 11, 82, 0
18, 42570, Note_on_c, 11, 81, 72
18, 42599, Note_on_c, 11, 81, 0
18, 42600, Note_on_c, 11, 79, 72
18, 42629, Note_on_c, 11, 79, 0
18, 42630, Note_on_c, 11, 77, 72
18, 42659, Note_on_c, 11, 77, 0
18, 42660, Note_on_c, 11, 76, 72
18, 42689, Note_on_c, 11, 76, 0
18, 42690, Note_on_c, 11, 74, 72
18, 42719, Note_on_c, 11, 74, 0
18, 42720, Note_on_c, 11, 73, 72
18, 42779, Note_on_c, 11, 73, 0
18, 42780, Note_on_c, 11, 74, 72
18, 42839, Note_on_c, 11, 74, 0
18, 42840, Note_on_c, 11, 76, 72
18, 43019, Note_on_c, 11, 76, 0
18, 43020, Note_on_c, 11, 79, 72
18, 43079, Note_on_c, 11, 79, 0
18, 43080, Note_on_c, 11, 77, 72
18, 43139, Note_on_c, 11, 77, 0
18, 43140, Note_on_c, 11, 76, 72
18, 43199, Note_on_c, 11, 76, 0
18, 43200, Note_on_c, 11, 74, 72
18, 43379, Note_on_c, 11, 74, 0
18, 43380, Note_on_c, 11, 74, 72
18, 43439, Note_on_c, 11, 74, 0
18, 43440, Note_on_c, 11, 73, 72
18, 43499, Note_on_c, 11, 73, 0
18, 43500, Note_on_c, 11, 73, 72
18, 43559, Note_on_c, 11, 73, 0
18, 43560, Note_on_c, 11, 74, 72
18, 43619, Note_on_c, 11, 74, 0
18, 43620, Note_on_c, 11, 76, 72
18, 43679, Note_on_c, 11, 76, 0
18, 43680, Note_on_c, 11, 69, 72
18, 43799, Note_on_c, 11, 69, 0
18, 44460, Note_on_c, 11, 69, 72
18, 44519, Note_on_c, 11, 69, 0
18, 44520, Note_on_c, 11, 69, 72
18, 44579, Note_on_c, 11, 69, 0
18, 44580, Note_on_c, 11, 69, 72
18, 44639, Note_on_c, 11, 69, 0
18, 44640, Note_on_c, 11, 70, 72
18, 44669, Note_on_c, 11, 70, 0
18, 44670, Note_on_c, 11, 72, 72
18, 44699, Note_on_c, 11, 72, 0
18, 44700, Note_on_c, 11, 70, 72
18, 44729, Note_on_c, 11, 70, 0
18, 44730, Note_on_c, 11, 69, 72
18, 44759, Note_on_c, 11, 69, 0
18, 44760, Note_on_c, 11, 71, 72
18, 44789, Note_on_c, 11, 71, 0
18, 44790, Note_on_c, 11, 72, 72
18, 44819, Note_on_c, 11, 72, 0
18, 44820, Note_on_c, 11, 69, 72
18, 44849, Note_on_c, 11, 69, 0
18, 44850, Note_on_c, 11, 71, 72
18, 44879, Note_on_c, 11, 71, 0
18, 44880, Note_on_c, 11, 72, 72
18, 44909, Note_on_c, 11, 72, 0
18, 44910, Note_on_c, 11, 74, 72
18, 44939, Note_on_c, 11, 74, 0
18, 44940, Note_on_c, 11, 72, 72
18, 44969, Note_on_c, 11, 72, 0
18, 44970, Note_on_c, 11, 71, 72
18, 44999, Note_on_c, 11, 71, 0
18, 45000, Note_on_c, 11, 73, 72
18, 45029, Note_on_c, 11, 73, 0
18, 45030, Note_on_c, 11, 74, 72
18, 45059, Note_on_c, 11, 74, 0
18, 45060, Note_on_c, 11, 71, 72
18, 45089, Note_on_c, 11, 71, 0
18, 45090, Note_on_c, 11, 73, 72
18, 45119, Note_on_c, 11, 73, 0
18, 45120, Note_on_c, 11, 74, 72
18, 45239, Note_on_c, 11, 74, 0
18, 45420, Note_on_c, 11, 76, 72
18, 45479, Note_on_c, 11, 76, 0
18, 45480, Note_on_c, 11, 76, 72
18, 45539, Note_on_c, 11, 76, 0
18, 45540, Note_on_c, 11, 76, 72
18, 45599, Note_on_c, 11, 76, 0
18, 45600, Note_on_c, 11, 77, 72
18, 45629, Note_on_c, 11, 77, 0
18, 45630, Note_on_c, 11, 79, 72
18, 45659, Note_on_c, 11, 79, 0
18, 45660, Note_on_c, 11, 77, 72
18, 45689, Note_on_c, 11, 77, 0
18, 45690, Note_on_c, 11, 76, 72
18, 45719, Note_on_c, 11, 76, 0
18, 45720, Note_on_c, 11, 78, 72
18, 45749, Note_on_c, 11, 78, 0
18, 45750, Note_on_c, 11, 79, 72
18, 45779, Note_on_c, 11, 79, 0
18, 45780, Note_on_c, 11, 76, 72
18, 45809, Note_on_c, 11, 76, 0
18, 45810, Note_on_c, 11, 78, 72
18, 45839, Note_on_c, 11, 78, 0
18, 45840, Note_on_c, 11, 79, 72
18, 45869, Note_on_c, 11, 79, 0
18, 45870, Note_on_c, 11, 81, 72
18, 45899, Note_on_c, 11, 81, 0
18, 45900, Note_on_c, 11, 79, 72
18, 45929, Note_on_c, 11, 79, 0
18, 45930, Note_on_c, 11, 78, 72
18, 45959, Note_on_c, 11, 78, 0
18, 45960, Note_on_c, 11, 80, 72
18, 45989, Note_on_c, 11, 80, 0
18, 45990, Note_on_c, 11, 81, 72
18, 46019, Note_on_c, 11, 81, 0
18, 46020, Note_on_c, 11, 78, 72
18, 46049, Note_on_c, 11, 78, 0
18, 46050, Note_on_c, 11, 80, 72
18, 46079, Note_on_c, 11, 80, 0
18, 46080, Note_on_c, 11, 81, 72
18, 46139, Note_on_c, 11, 81, 0
18, 46140, Note_on_c, 11, 73, 72
18, 46199, Note_on_c, 11, 73, 0
18, 46200, Note_on_c, 11, 74, 72
18, 46259, Note_on_c, 11, 74, 0
18, 46260, Note_on_c, 11, 74, 72
18, 46319, Note_on_c, 11, 74, 0
18, 46320, Note_on_c, 11, 74, 72
18, 46439, Note_on_c, 11, 74, 0
18, 46440, Note_on_c, 11, 72, 72
18, 46559, Note_on_c, 11, 72, 0
18, 46560, Note_on_c, 11, 74, 72
18, 46799, Note_on_c, 11, 74, 0
18, 46920, Note_on_c, 11, 74, 72
18, 47009, Note_on_c, 11, 74, 0
18, 47010, Note_on_c, 11, 74, 72
18, 47039, Note_on_c, 11, 74, 0
18, 47040, Note_on_c, 11, 73, 72
18, 47159, Note_on_c, 11, 73, 0
18, 47160, Note_on_c, 11, 74, 72
18, 47399, Note_on_c, 11, 74, 0
18, 47400, Note_on_c, 11, 73, 72
18, 47519, Note_on_c, 11, 73, 0
18, 47520, Note_on_c, 11, 74, 72
18, 47999, Note_on_c, 11, 74, 0
18, 47999, End_track
19, 0, Start_track
19, 0, Title_t, "Alto"
19, 0, Program_c, 12, 52
19, 0, Control_c, 12, 7, 127
19, 0, Control_c, 12, 10, 94
19, 0, Control_c, 12, 11, 127
19, 3960, Note_on_c, 12, 62, 72
19, 4139, Note_on_c, 12, 62, 0
19, 4140, Note_on_c, 12, 62, 72
19, 4199, Note_on_c, 12, 62, 0
19, 4200, Note_on_c, 12, 61, 72
19, 4259, Note_on_c, 12, 61, 0
19, 4260, Note_on_c, 12, 61, 72
19, 4319, Note_on_c, 12, 61, 0
19, 4320, Note_on_c, 12, 62, 72
19, 4379, Note_on_c, 12, 62, 0
19, 4380, Note_on_c, 12, 60, 72
19, 4439, Note_on_c, 12, 60, 0
19, 4440, Note_on_c, 12, 59, 72
19, 4499, Note_on_c, 12, 59, 0
19, 4500, Note_on_c, 12, 64, 72
19, 4559, Note_on_c, 12, 64, 0
19, 4560, Note_on_c, 12, 57, 72
19, 4679, Note_on_c, 12, 57, 0
19, 4680, Note_on_c, 12, 65, 72
19, 4799, Note_on_c, 12, 65, 0
19, 4800, Note_on_c, 12, 64, 72
19, 4919, Note_on_c, 12, 64, 0
19, 4920, Note_on_c, 12, 66, 72
19, 5039, Note_on_c, 12, 66, 0
19, 5040, Note_on_c, 12, 67, 72
19, 5099, Note_on_c, 12, 67, 0
19, 5100, Note_on_c, 12, 65, 72
19, 5159, Note_on_c, 12, 65, 0
19, 5160, Note_on_c, 12, 64, 72
19, 5339, Note_on_c, 12, 64, 0
19, 5340, Note_on_c, 12, 62, 72
19, 5369, Note_on_c, 12, 62, 0
19, 5370, Note_on_c, 12, 61, 72
19, 5399, Note_on_c, 12, 61, 0
19, 5400, Note_on_c, 12, 62, 72
19, 5459, Note_on_c, 12, 62, 0
19, 5460, Note_on_c, 12, 69, 72
19, 5519, Note_on_c, 12, 69, 0
19, 5520, Note_on_c, 12, 70, 72
19, 5639, Note_on_c, 12, 70, 0
19, 5640, Note_on_c, 12, 69, 72
19, 5939, Note_on_c, 12, 69, 0
19, 5940, Note_on_c, 12, 67, 72
19, 5999, Note_on_c, 12, 67, 0
19, 6000, Note_on_c, 12, 65, 72
19, 6059, Note_on_c, 12, 65, 0
19, 6060, Note_on_c, 12, 64, 72
19, 6089, Note_on_c, 12, 64, 0
19, 6090, Note_on_c, 12, 62, 72
19, 6119, Note_on_c, 12, 62, 0
19, 6120, Note_on_c, 12, 65, 72
19, 6179, Note_on_c, 12, 65, 0
19, 6180, Note_on_c, 12, 65, 72
19, 6239, Note_on_c, 12, 65, 0
19, 6240, Note_on_c, 12, 69, 72
19, 6299, Note_on_c, 12, 69, 0
19, 6300, Note_on_c, 12, 70, 72
19, 6359, Note_on_c, 12, 70, 0
19, 6360, Note_on_c, 12, 67, 72
19, 6449, Note_on_c, 12, 67, 0
19, 6450, Note_on_c, 12, 67, 72
19, 6479, Note_on_c, 12, 67, 0
19, 6480, Note_on_c, 12, 69, 72
19, 6599, Note_on_c, 12, 69, 0
19, 6780, Note_on_c, 12, 69, 72
19, 6839, Note_on_c, 12, 69, 0
19, 6840, Note_on_c, 12, 69, 72
19, 6899, Note_on_c, 12, 69, 0
19, 6900, Note_on_c, 12, 69, 72
19, 6959, Note_on_c, 12, 69, 0
19, 6960, Note_on_c, 12, 69, 72
19, 7049, Note_on_c, 12, 69, 0
19, 7050, Note_on_c, 12, 67, 72
19, 7079, Note_on_c, 12, 67, 0
19, 7080, Note_on_c, 12, 65, 72
19, 7199, Note_on_c, 12, 65, 0
19, 7260, Note_on_c, 12, 69, 72
19, 7319, Note_on_c, 12, 69, 0
19, 7320, Note_on_c, 12, 69, 72
19, 7379, Note_on_c, 12, 69, 0
19, 7380, Note_on_c, 12, 69, 72
19, 7439, Note_on_c, 12, 69, 0
19, 7440, Note_on_c, 12, 69, 72
19, 7529, Note_on_c, 12, 69, 0
19, 7530, Note_on_c, 12, 70, 72
19, 7559, Note_on_c, 12, 70, 0
19, 7560, Note_on_c, 12, 69, 72
19, 7679, Note_on_c, 12, 69, 0
19, 7680, Note_on_c, 12, 69, 72
19, 7769, Note_on_c, 12, 69, 0
19, 7770, Note_on_c, 12, 69, 72
19, 7799, Note_on_c, 12, 69, 0
19, 7800, Note_on_c, 12, 70, 72
19, 7919, Note_on_c, 12, 70, 0
19, 8160, Note_on_c, 12, 67, 48
19, 8279, Note_on_c, 12, 67, 0
19, 8280, Note_on_c, 12, 67, 48
19, 8339, Note_on_c, 12, 67, 0
19, 8340, Note_on_c, 12, 67, 48
19, 8399, Note_on_c, 12, 67, 0
19, 8400, Note_on_c, 12, 65, 48
19, 8639, Note_on_c, 12, 65, 0
19, 8640, Note_on_c, 12, 65, 48
19, 8759, Note_on_c, 12, 65, 0
19, 12300, Note_on_c, 12, 72, 72
19, 12359, Note_on_c, 12, 72, 0
19, 12360, Note_on_c, 12, 69, 72
19, 12419, Note_on_c, 12, 69, 0
19, 12420, Note_on_c, 12, 65, 72
19, 12479, Note_on_c, 12, 65, 0
19, 12540, Note_on_c, 12, 65, 72
19, 12599, Note_on_c, 12, 65, 0
19, 12600, Note_on_c, 12, 62, 72
19, 12659, Note_on_c, 12, 62, 0
19, 12660, Note_on_c, 12, 70, 72
19, 12719, Note_on_c, 12, 70, 0
19, 12780, Note_on_c, 12, 69, 72
19, 12839, Note_on_c, 12, 69, 0
19, 12840, Note_on_c, 12, 66, 72
19, 12899, Note_on_c, 12, 66, 0
19, 12900, Note_on_c, 12, 62, 72
19, 12929, Note_on_c, 12, 62, 0
19, 12930, Note_on_c, 12, 62, 72
19, 12959, Note_on_c, 12, 62, 0
19, 12960, Note_on_c, 12, 70, 72
19, 13139, Note_on_c, 12, 70, 0
19, 13140, Note_on_c, 12, 70, 72
19, 13199, Note_on_c, 12, 70, 0
19, 13200, Note_on_c, 12, 69, 72
19, 13259, Note_on_c, 12, 69, 0
19, 13260, Note_on_c, 12, 70, 72
19, 13319, Note_on_c, 12, 70, 0
19, 13320, Note_on_c, 12, 70, 72
19, 13379, Note_on_c, 12, 70, 0
19, 13380, Note_on_c, 12, 69, 72
19, 13439, Note_on_c, 12, 69, 0
19, 13440, Note_on_c, 12, 70, 72
19, 13559, Note_on_c, 12, 70, 0
19, 13740, Note_on_c, 12, 62, 72
19, 13799, Note_on_c, 12, 62, 0
19, 13800, Note_on_c, 12, 67, 72
19, 13919, Note_on_c, 12, 67, 0
19, 13980, Note_on_c, 12, 67, 72
19, 14039, Note_on_c, 12, 67, 0
19, 14040, Note_on_c, 12, 70, 72
19, 14219, Note_on_c, 12, 70, 0
19, 14220, Note_on_c, 12, 70, 72
19, 14279, Note_on_c, 12, 70, 0
19, 14280, Note_on_c, 12, 69, 72
19, 14339, Note_on_c, 12, 69, 0
19, 14340, Note_on_c, 12, 67, 72
19, 14399, Note_on_c, 12, 67, 0
19, 14400, Note_on_c, 12, 66, 72
19, 14519, Note_on_c, 12, 66, 0
19, 14520, Note_on_c, 12, 64, 72
19, 14639, Note_on_c, 12, 64, 0
19, 14640, Note_on_c, 12, 67, 72
19, 14699, Note_on_c, 12, 67, 0
19, 14700, Note_on_c, 12, 67, 72
19, 14759, Note_on_c, 12, 67, 0
19, 14760, Note_on_c, 12, 65, 72
19, 14849, Note_on_c, 12, 65, 0
19, 14850, Note_on_c, 12, 65, 72
19, 14879, Note_on_c, 12, 65, 0
19, 14880, Note_on_c, 12, 67, 72
19, 14999, Note_on_c, 12, 67, 0
19, 16140, Note_on_c, 12, 69, 72
19, 16229, Note_on_c, 12, 69, 0
19, 16230, Note_on_c, 12, 70, 72
19, 16259, Note_on_c, 12, 70, 0
19, 16260, Note_on_c, 12, 69, 72
19, 16289, Note_on_c, 12, 69, 0
19, 16290, Note_on_c, 12, 67, 72
19, 16319, Note_on_c, 12, 67, 0
19, 16320, Note_on_c, 12, 65, 72
19, 16349, Note_on_c, 12, 65, 0
19, 16350, Note_on_c, 12, 69, 72
19, 16379, Note_on_c, 12, 69, 0
19, 16380, Note_on_c, 12, 67, 72
19, 16409, Note_on_c, 12, 67, 0
19, 16410, Note_on_c, 12, 65, 72
19, 16439, Note_on_c, 12, 65, 0
19, 16440, Note_on_c, 12, 64, 72
19, 16469, Note_on_c, 12, 64, 0
19, 16470, Note_on_c, 12, 67, 72
19, 16499, Note_on_c, 12, 67, 0
19, 16500, Note_on_c, 12, 65, 72
19, 16529, Note_on_c, 12, 65, 0
19, 16530, Note_on_c, 12, 64, 72
19, 16559, Note_on_c, 12, 64, 0
19, 16560, Note_on_c, 12, 62, 72
19, 16589, Note_on_c, 12, 62, 0
19, 16590, Note_on_c, 12, 61, 72
19, 16619, Note_on_c, 12, 61, 0
19, 16620, Note_on_c, 12, 62, 72
19, 16649, Note_on_c, 12, 62, 0
19, 16650, Note_on_c, 12, 64, 72
19, 16679, Note_on_c, 12, 64, 0
19, 16680, Note_on_c, 12, 65, 72
19, 16709, Note_on_c, 12, 65, 0
19, 16710, Note_on_c, 12, 64, 72
19, 16739, Note_on_c, 12, 64, 0
19, 16740, Note_on_c, 12, 62, 72
19, 16769, Note_on_c, 12, 62, 0
19, 16770, Note_on_c, 12, 60, 72
19, 16799, Note_on_c, 12, 60, 0
19, 16800, Note_on_c, 12, 59, 72
19, 16889, Note_on_c, 12, 59, 0
19, 16890, Note_on_c, 12, 59, 72
19, 16919, Note_on_c, 12, 59, 0
19, 16920, Note_on_c, 12, 59, 72
19, 17039, Note_on_c, 12, 59, 0
19, 17040, Note_on_c, 12, 60, 72
19, 17159, Note_on_c, 12, 60, 0
19, 17160, Note_on_c, 12, 62, 72
19, 17279, Note_on_c, 12, 62, 0
19, 17280, Note_on_c, 12, 64, 72
19, 17339, Note_on_c, 12, 64, 0
19, 17340, Note_on_c, 12, 64, 72
19, 17399, Note_on_c, 12, 64, 0
19, 17400, Note_on_c, 12, 69, 72
19, 17549, Note_on_c, 12, 69, 0
19, 17550, Note_on_c, 12, 62, 72
19, 17579, Note_on_c, 12, 62, 0
19, 17580, Note_on_c, 12, 64, 72
19, 17609, Note_on_c, 12, 64, 0
19, 17610, Note_on_c, 12, 66, 72
19, 17639, Note_on_c, 12, 66, 0
19, 17640, Note_on_c, 12, 67, 72
19, 17819, Note_on_c, 12, 67, 0
19, 17820, Note_on_c, 12, 67, 72
19, 17879, Note_on_c, 12, 67, 0
19, 17880, Note_on_c, 12, 66, 72
19, 17939, Note_on_c, 12, 66, 0
19, 17940, Note_on_c, 12, 66, 72
19, 17999, Note_on_c, 12, 66, 0
19, 18000, Note_on_c, 12, 67, 72
19, 18119, Note_on_c, 12, 67, 0
19, 18120, Note_on_c, 12, 69, 72
19, 18239, Note_on_c, 12, 69, 0
19, 18240, Note_on_c, 12, 70, 72
19, 18269, Note_on_c, 12, 70, 0
19, 18270, Note_on_c, 12, 69, 72
19, 18299, Note_on_c, 12, 69, 0
19, 18300, Note_on_c, 12, 67, 72
19, 18389, Note_on_c, 12, 67, 0
19, 18390, Note_on_c, 12, 69, 72
19, 18419, Note_on_c, 12, 69, 0
19, 18420, Note_on_c, 12, 70, 72
19, 18449, Note_on_c, 12, 70, 0
19, 18450, Note_on_c, 12, 67, 72
19, 18479, Note_on_c, 12, 67, 0
19, 18480, Note_on_c, 12, 72, 72
19, 18509, Note_on_c, 12, 72, 0
19, 18510, Note_on_c, 12, 70, 72
19, 18539, Note_on_c, 12, 70, 0
19, 18540, Note_on_c, 12, 69, 72
19, 18569, Note_on_c, 12, 69, 0
19, 18570, Note_on_c, 12, 70, 72
19, 18599, Note_on_c, 12, 70, 0
19, 18600, Note_on_c, 12, 72, 72
19, 18629, Note_on_c, 12, 72, 0
19, 18630, Note_on_c, 12, 70, 72
19, 18659, Note_on_c, 12, 70, 0
19, 18660, Note_on_c, 12, 69, 72
19, 18689, Note_on_c, 12, 69, 0
19, 18690, Note_on_c, 12, 70, 72
19, 18719, Note_on_c, 12, 70, 0
19, 18720, Note_on_c, 12, 67, 72
19, 18809, Note_on_c, 12, 67, 0
19, 18810, Note_on_c, 12, 67, 72
19, 18839, Note_on_c, 12, 67, 0
19, 18840, Note_on_c, 12, 67, 72
19, 18959, Note_on_c, 12, 67, 0
19, 19020, Note_on_c, 12, 72, 72
19, 19139, Note_on_c, 12, 72, 0
19, 19140, Note_on_c, 12, 70, 72
19, 19199, Note_on_c, 12, 70, 0
19, 19200, Note_on_c, 12, 69, 72
19, 19259, Note_on_c, 12, 69, 0
19, 19260, Note_on_c, 12, 67, 72
19, 19289, Note_on_c, 12, 67, 0
19, 19290, Note_on_c, 12, 65, 72
19, 19319, Note_on_c, 12, 65, 0
19, 19320, Note_on_c, 12, 64, 72
19, 19439, Note_on_c, 12, 64, 0
19, 19500, Note_on_c, 12, 69, 72
19, 19619, Note_on_c, 12, 69, 0
19, 19620, Note_on_c, 12, 67, 72
19, 19679, Note_on_c, 12, 67, 0
19, 19680, Note_on_c, 12, 65, 72
19, 19739, Note_on_c, 12, 65, 0
19, 19740, Note_on_c, 12, 63, 72
19, 19769, Note_on_c, 12, 63, 0
19, 19770, Note_on_c, 12, 62, 72
19, 19799, Note_on_c, 12, 62, 0
19, 19800, Note_on_c, 12, 60, 72
19, 19919, Note_on_c, 12, 60, 0
19, 19980, Note_on_c, 12, 65, 72
19, 20099, Note_on_c, 12, 65, 0
19, 20100, Note_on_c, 12, 64, 72
19, 20159, Note_on_c, 12, 64, 0
19, 20160, Note_on_c, 12, 62, 72
19, 20279, Note_on_c, 12, 62, 0
19, 20460, Note_on_c, 12, 65, 72
19, 20519, Note_on_c, 12, 65, 0
19, 20520, Note_on_c, 12, 65, 72
19, 20579, Note_on_c, 12, 65, 0
19, 20580, Note_on_c, 12, 65, 72
19, 20639, Note_on_c, 12, 65, 0
19, 20640, Note_on_c, 12, 69, 72
19, 20729, Note_on_c, 12, 69, 0
19, 20730, Note_on_c, 12, 67, 72
19, 20759, Note_on_c, 12, 67, 0
19, 20760, Note_on_c, 12, 65, 72
19, 20879, Note_on_c, 12, 65, 0
19, 20940, Note_on_c, 12, 65, 72
19, 20999, Note_on_c, 12, 65, 0
19, 21000, Note_on_c, 12, 65, 72
19, 21059, Note_on_c, 12, 65, 0
19, 21060, Note_on_c, 12, 65, 72
19, 21119, Note_on_c, 12, 65, 0
19, 21120, Note_on_c, 12, 65, 72
19, 21209, Note_on_c, 12, 65, 0
19, 21210, Note_on_c, 12, 64, 72
19, 21239, Note_on_c, 12, 64, 0
19, 21240, Note_on_c, 12, 62, 72
19, 21359, Note_on_c, 12, 62, 0
19, 21360, Note_on_c, 12, 71, 72
19, 21479, Note_on_c, 12, 71, 0
19, 21480, Note_on_c, 12, 71, 72
19, 21539, Note_on_c, 12, 71, 0
19, 21540, Note_on_c, 12, 71, 72
19, 21599, Note_on_c, 12, 71, 0
19, 21600, Note_on_c, 12, 69, 72
19, 21659, Note_on_c, 12, 69, 0
19, 21660, Note_on_c, 12, 69, 72
19, 21719, Note_on_c, 12, 69, 0
19, 21780, Note_on_c, 12, 64, 48
19, 21839, Note_on_c, 12, 64, 0
19, 21840, Note_on_c, 12, 65, 48
19, 21959, Note_on_c, 12, 65, 0
19, 21960, Note_on_c, 12, 67, 48
19, 22079, Note_on_c, 12, 67, 0
19, 22080, Note_on_c, 12, 65, 48
19, 22169, Note_on_c, 12, 65, 0
19, 22170, Note_on_c, 12, 65, 48
19, 22199, Note_on_c, 12, 65, 0
19, 22200, Note_on_c, 12, 64, 48
19, 22319, Note_on_c, 12, 64, 0
19, 22320, Note_on_c, 12, 62, 48
19, 22439, Note_on_c, 12, 62, 0
19, 22440, Note_on_c, 12, 62, 48
19, 22499, Note_on_c, 12, 62, 0
19, 22500, Note_on_c, 12, 62, 48
19, 22559, Note_on_c, 12, 62, 0
19, 22560, Note_on_c, 12, 62, 48
19, 22679, Note_on_c, 12, 62, 0
19, 22680, Note_on_c, 12, 61, 48
19, 22739, Note_on_c, 12, 61, 0
19, 22740, Note_on_c, 12, 59, 48
19, 22799, Note_on_c, 12, 59, 0
19, 22800, Note_on_c, 12, 61, 48
19, 23039, Note_on_c, 12, 61, 0
19, 23580, Note_on_c, 12, 64, 72
19, 23639, Note_on_c, 12, 64, 0
19, 23640, Note_on_c, 12, 64, 72
19, 23699, Note_on_c, 12, 64, 0
19, 23700, Note_on_c, 12, 64, 72
19, 23759, Note_on_c, 12, 64, 0
19, 23760, Note_on_c, 12, 65, 72
19, 23789, Note_on_c, 12, 65, 0
19, 23790, Note_on_c, 12, 67, 72
19, 23819, Note_on_c, 12, 67, 0
19, 23820, Note_on_c, 12, 65, 72
19, 23849, Note_on_c, 12, 65, 0
19, 23850, Note_on_c, 12, 64, 72
19, 23879, Note_on_c, 12, 64, 0
19, 23880, Note_on_c, 12, 65, 72
19, 23909, Note_on_c, 12, 65, 0
19, 23910, Note_on_c, 12, 67, 72
19, 23939, Note_on_c, 12, 67, 0
19, 23940, Note_on_c, 12, 64, 72
19, 23969, Note_on_c, 12, 64, 0
19, 23970, Note_on_c, 12, 65, 72
19, 23999, Note_on_c, 12, 65, 0
19, 24000, Note_on_c, 12, 67, 72
19, 24029, Note_on_c, 12, 67, 0
19, 24030, Note_on_c, 12, 69, 72
19, 24059, Note_on_c, 12, 69, 0
19, 24060, Note_on_c, 12, 67, 72
19, 24089, Note_on_c, 12, 67, 0
19, 24090, Note_on_c, 12, 65, 72
19, 24119, Note_on_c, 12, 65, 0
19, 24120, Note_on_c, 12, 67, 72
19, 24149, Note_on_c, 12, 67, 0
19, 24150, Note_on_c, 12, 69, 72
19, 24179, Note_on_c, 12, 69, 0
19, 24180, Note_on_c, 12, 65, 72
19, 24209, Note_on_c, 12, 65, 0
19, 24210, Note_on_c, 12, 67, 72
19, 24239, Note_on_c, 12, 67, 0
19, 24240, Note_on_c, 12, 69, 72
19, 24299, Note_on_c, 12, 69, 0
19, 24300, Note_on_c, 12, 70, 72
19, 24329, Note_on_c, 12, 70, 0
19, 24330, Note_on_c, 12, 69, 72
19, 24359, Note_on_c, 12, 69, 0
19, 24360, Note_on_c, 12, 67, 72
19, 24389, Note_on_c, 12, 67, 0
19, 24390, Note_on_c, 12, 65, 72
19, 24419, Note_on_c, 12, 65, 0
19, 24420, Note_on_c, 12, 64, 72
19, 24449, Note_on_c, 12, 64, 0
19, 24450, Note_on_c, 12, 62, 72
19, 24479, Note_on_c, 12, 62, 0
19, 24480, Note_on_c, 12, 61, 72
19, 24539, Note_on_c, 12, 61, 0
19, 24540, Note_on_c, 12, 64, 72
19, 24599, Note_on_c, 12, 64, 0
19, 24600, Note_on_c, 12, 69, 72
19, 24659, Note_on_c, 12, 69, 0
19, 24660, Note_on_c, 12, 67, 72
19, 24719, Note_on_c, 12, 67, 0
19, 24720, Note_on_c, 12, 65, 72
19, 24779, Note_on_c, 12, 65, 0
19, 24780, Note_on_c, 12, 64, 72
19, 24809, Note_on_c, 12, 64, 0
19, 24810, Note_on_c, 12, 65, 72
19, 24839, Note_on_c, 12, 65, 0
19, 24840, Note_on_c, 12, 62, 72
19, 24869, Note_on_c, 12, 62, 0
19, 24870, Note_on_c, 12, 64, 72
19, 24899, Note_on_c, 12, 64, 0
19, 24900, Note_on_c, 12, 66, 72
19, 24929, Note_on_c, 12, 66, 0
19, 24930, Note_on_c, 12, 68, 72
19, 24959, Note_on_c, 12, 68, 0
19, 24960, Note_on_c, 12, 69, 72
19, 25079, Note_on_c, 12, 69, 0
19, 26400, Note_on_c, 12, 69, 72
19, 26579, Note_on_c, 12, 69, 0
19, 26580, Note_on_c, 12, 69, 72
19, 26639, Note_on_c, 12, 69, 0
19, 26640, Note_on_c, 12, 65, 72
19, 26759, Note_on_c, 12, 65, 0
19, 26760, Note_on_c, 12, 70, 72
19, 26879, Note_on_c, 12, 70, 0
19, 26880, Note_on_c, 12, 61, 72
19, 27059, Note_on_c, 12, 61, 0
19, 27060, Note_on_c, 12, 61, 72
19, 27119, Note_on_c, 12, 61, 0
19, 27120, Note_on_c, 12, 62, 72
19, 27239, Note_on_c, 12, 62, 0
19, 27300, Note_on_c, 12, 62, 72
19, 27359, Note_on_c, 12, 62, 0
19, 27360, Note_on_c, 12, 64, 72
19, 27539, Note_on_c, 12, 64, 0
19, 27540, Note_on_c, 12, 62, 72
19, 27569, Note_on_c, 12, 62, 0
19, 27570, Note_on_c, 12, 64, 72
19, 27599, Note_on_c, 12, 64, 0
19, 27600, Note_on_c, 12, 65, 72
19, 27659, Note_on_c, 12, 65, 0
19, 27660, Note_on_c, 12, 64, 72
19, 27689, Note_on_c, 12, 64, 0
19, 27690, Note_on_c, 12, 65, 72
19, 27719, Note_on_c, 12, 65, 0
19, 27720, Note_on_c, 12, 67, 72
19, 27779, Note_on_c, 12, 67, 0
19, 27780, Note_on_c, 12, 65, 72
19, 27795, Note_on_c, 12, 67, 72
19, 27809, Note_on_c, 12, 65, 0
19, 27824, Note_on_c, 12, 67, 0
19, 27840, Note_on_c, 12, 69, 72
19, 27899, Note_on_c, 12, 69, 0
19, 27900, Note_on_c, 12, 67, 72
19, 27959, Note_on_c, 12, 67, 0
19, 27960, Note_on_c, 12, 65, 72
19, 28019, Note_on_c, 12, 65, 0
19, 28020, Note_on_c, 12, 64, 72
19, 28079, Note_on_c, 12, 64, 0
19, 28080, Note_on_c, 12, 62, 72
19, 28169, Note_on_c, 12, 62, 0
19, 28170, Note_on_c, 12, 64, 72
19, 28199, Note_on_c, 12, 64, 0
19, 28200, Note_on_c, 12, 66, 72
19, 28259, Note_on_c, 12, 66, 0
19, 28260, Note_on_c, 12, 68, 72
19, 28319, Note_on_c, 12, 68, 0
19, 28320, Note_on_c, 12, 69, 72
19, 28379, Note_on_c, 12, 69, 0
19, 28380, Note_on_c, 12, 64, 72
19, 28499, Note_on_c, 12, 64, 0
19, 28500, Note_on_c, 12, 62, 72
19, 28529, Note_on_c, 12, 62, 0
19, 28530, Note_on_c, 12, 60, 72
19, 28559, Note_on_c, 12, 60, 0
19, 28560, Note_on_c, 12, 59, 72
19, 28679, Note_on_c, 12, 59, 0
19, 28860, Note_on_c, 12, 64, 72
19, 28919, Note_on_c, 12, 64, 0
19, 28920, Note_on_c, 12, 69, 72
19, 29069, Note_on_c, 12, 69, 0
19, 29070, Note_on_c, 12, 67, 72
19, 29099, Note_on_c, 12, 67, 0
19, 29100, Note_on_c, 12, 65, 72
19, 29129, Note_on_c, 12, 65, 0
19, 29130, Note_on_c, 12, 64, 72
19, 29159, Note_on_c, 12, 64, 0
19, 29160, Note_on_c, 12, 65, 72
19, 29219, Note_on_c, 12, 65, 0
19, 29220, Note_on_c, 12, 67, 72
19, 29249, Note_on_c, 12, 67, 0
19, 29250, Note_on_c, 12, 65, 72
19, 29279, Note_on_c, 12, 65, 0
19, 29280, Note_on_c, 12, 64, 72
19, 29399, Note_on_c, 12, 64, 0
19, 29580, Note_on_c, 12, 64, 72
19, 29639, Note_on_c, 12, 64, 0
19, 29640, Note_on_c, 12, 66, 72
19, 29699, Note_on_c, 12, 66, 0
19, 29700, Note_on_c, 12, 68, 72
19, 29759, Note_on_c, 12, 68, 0
19, 29760, Note_on_c, 12, 69, 72
19, 29879, Note_on_c, 12, 69, 0
19, 30060, Note_on_c, 12, 69, 72
19, 30119, Note_on_c, 12, 69, 0
19, 30120, Note_on_c, 12, 74, 72
19, 30179, Note_on_c, 12, 74, 0
19, 30180, Note_on_c, 12, 72, 72
19, 30239, Note_on_c, 12, 72, 0
19, 30240, Note_on_c, 12, 70, 72
19, 30269, Note_on_c, 12, 70, 0
19, 30270, Note_on_c, 12, 69, 72
19, 30299, Note_on_c, 12, 69, 0
19, 30300, Note_on_c, 12, 67, 72
19, 30389, Note_on_c, 12, 67, 0
19, 30390, Note_on_c, 12, 69, 72
19, 30419, Note_on_c, 12, 69, 0
19, 30420, Note_on_c, 12, 65, 72
19, 30449, Note_on_c, 12, 65, 0
19, 30450, Note_on_c, 12, 67, 72
19, 30479, Note_on_c, 12, 67, 0
19, 30480, Note_on_c, 12, 64, 72
19, 30599, Note_on_c, 12, 64, 0
19, 30600, Note_on_c, 12, 65, 72
19, 30659, Note_on_c, 12, 65, 0
19, 30660, Note_on_c, 12, 67, 72
19, 30719, Note_on_c, 12, 67, 0
19, 30720, Note_on_c, 12, 60, 72
19, 30839, Note_on_c, 12, 60, 0
19, 31020, Note_on_c, 12, 60, 72
19, 31139, Note_on_c, 12, 60, 0
19, 31140, Note_on_c, 12, 58, 72
19, 31199, Note_on_c, 12, 58, 0
19, 31200, Note_on_c, 12, 57, 72
19, 31259, Note_on_c, 12, 57, 0
19, 31260, Note_on_c, 12, 65, 72
19, 31319, Note_on_c, 12, 65, 0
19, 31320, Note_on_c, 12, 62, 72
19, 31379, Note_on_c, 12, 62, 0
19, 31380, Note_on_c, 12, 58, 72
19, 31439, Note_on_c, 12, 58, 0
19, 31500, Note_on_c, 12, 67, 72
19, 31559, Note_on_c, 12, 67, 0
19, 31560, Note_on_c, 12, 64, 72
19, 31619, Note_on_c, 12, 64, 0
19, 31620, Note_on_c, 12, 60, 72
19, 31679, Note_on_c, 12, 60, 0
19, 31740, Note_on_c, 12, 64, 72
19, 31769, Note_on_c, 12, 64, 0
19, 31770, Note_on_c, 12, 65, 72
19, 31799, Note_on_c, 12, 65, 0
19, 31800, Note_on_c, 12, 67, 72
19, 31859, Note_on_c, 12, 67, 0
19, 31860, Note_on_c, 12, 65, 72
19, 31889, Note_on_c, 12, 65, 0
19, 31890, Note_on_c, 12, 67, 72
19, 31919, Note_on_c, 12, 67, 0
19, 31920, Note_on_c, 12, 69, 72
19, 31979, Note_on_c, 12, 69, 0
19, 31980, Note_on_c, 12, 64, 72
19, 32039, Note_on_c, 12, 64, 0
19, 32040, Note_on_c, 12, 65, 72
19, 32099, Note_on_c, 12, 65, 0
19, 32100, Note_on_c, 12, 61, 72
19, 32159, Note_on_c, 12, 61, 0
19, 32160, Note_on_c, 12, 62, 72
19, 32279, Note_on_c, 12, 62, 0
19, 32280, Note_on_c, 12, 64, 72
19, 32339, Note_on_c, 12, 64, 0
19, 32340, Note_on_c, 12, 66, 72
19, 32399, Note_on_c, 12, 66, 0
19, 32400, Note_on_c, 12, 67, 72
19, 32519, Note_on_c, 12, 67, 0
19, 32700, Note_on_c, 12, 63, 72
19, 32759, Note_on_c, 12, 63, 0
19, 32760, Note_on_c, 12, 62, 72
19, 32819, Note_on_c, 12, 62, 0
19, 32820, Note_on_c, 12, 60, 72
19, 32879, Note_on_c, 12, 60, 0
19, 32880, Note_on_c, 12, 58, 72
19, 32939, Note_on_c, 12, 58, 0
19, 32940, Note_on_c, 12, 55, 72
19, 32999, Note_on_c, 12, 55, 0
19, 33000, Note_on_c, 12, 63, 72
19, 33179, Note_on_c, 12, 63, 0
19, 33180, Note_on_c, 12, 60, 72
19, 33239, Note_on_c, 12, 60, 0
19, 33240, Note_on_c, 12, 65, 72
19, 33479, Note_on_c, 12, 65, 0
19, 33480, Note_on_c, 12, 64, 72
19, 33599, Note_on_c, 12, 64, 0
19, 33600, Note_on_c, 12, 62, 72
19, 33659, Note_on_c, 12, 62, 0
19, 33660, Note_on_c, 12, 66, 72
19, 33719, Note_on_c, 12, 66, 0
19, 33720, Note_on_c, 12, 67, 72
19, 33779, Note_on_c, 12, 67, 0
19, 33780, Note_on_c, 12, 69, 72
19, 33839, Note_on_c, 12, 69, 0
19, 33840, Note_on_c, 12, 62, 72
19, 33899, Note_on_c, 12, 62, 0
19, 33900, Note_on_c, 12, 68, 72
19, 33959, Note_on_c, 12, 68, 0
19, 33960, Note_on_c, 12, 67, 72
19, 34079, Note_on_c, 12, 67, 0
19, 34380, Note_on_c, 12, 62, 72
19, 34439, Note_on_c, 12, 62, 0
19, 34440, Note_on_c, 12, 62, 72
19, 34499, Note_on_c, 12, 62, 0
19, 34500, Note_on_c, 12, 62, 72
19, 34559, Note_on_c, 12, 62, 0
19, 34560, Note_on_c, 12, 63, 72
19, 34589, Note_on_c, 12, 63, 0
19, 34590, Note_on_c, 12, 65, 72
19, 34619, Note_on_c, 12, 65, 0
19, 34620, Note_on_c, 12, 63, 72
19, 34649, Note_on_c, 12, 63, 0
19, 34650, Note_on_c, 12, 62, 72
19, 34679, Note_on_c, 12, 62, 0
19, 34680, Note_on_c, 12, 63, 72
19, 34709, Note_on_c, 12, 63, 0
19, 34710, Note_on_c, 12, 65, 72
19, 34739, Note_on_c, 12, 65, 0
19, 34740, Note_on_c, 12, 62, 72
19, 34769, Note_on_c, 12, 62, 0
19, 34770, Note_on_c, 12, 63, 72
19, 34799, Note_on_c, 12, 63, 0
19, 34800, Note_on_c, 12, 65, 72
19, 34829, Note_on_c, 12, 65, 0
19, 34830, Note_on_c, 12, 67, 72
19, 34859, Note_on_c, 12, 67, 0
19, 34860, Note_on_c, 12, 65, 72
19, 34889, Note_on_c, 12, 65, 0
19, 34890, Note_on_c, 12, 63, 72
19, 34919, Note_on_c, 12, 63, 0
19, 34920, Note_on_c, 12, 65, 72
19, 34949, Note_on_c, 12, 65, 0
19, 34950, Note_on_c, 12, 67, 72
19, 34979, Note_on_c, 12, 67, 0
19, 34980, Note_on_c, 12, 63, 72
19, 35009, Note_on_c, 12, 63, 0
19, 35010, Note_on_c, 12, 65, 72
19, 35039, Note_on_c, 12, 65, 0
19, 35040, Note_on_c, 12, 67, 72
19, 35099, Note_on_c, 12, 67, 0
19, 35100, Note_on_c, 12, 68, 72
19, 35129, Note_on_c, 12, 68, 0
19, 35130, Note_on_c, 12, 67, 72
19, 35159, Note_on_c, 12, 67, 0
19, 35160, Note_on_c, 12, 65, 72
19, 35189, Note_on_c, 12, 65, 0
19, 35190, Note_on_c, 12, 63, 72
19, 35219, Note_on_c, 12, 63, 0
19, 35220, Note_on_c, 12, 62, 72
19, 35249, Note_on_c, 12, 62, 0
19, 35250, Note_on_c, 12, 60, 72
19, 35279, Note_on_c, 12, 60, 0
19, 35280, Note_on_c, 12, 59, 72
19, 35339, Note_on_c, 12, 59, 0
19, 35340, Note_on_c, 12, 62, 72
19, 35399, Note_on_c, 12, 62, 0
19, 35400, Note_on_c, 12, 67, 72
19, 35459, Note_on_c, 12, 67, 0
19, 35460, Note_on_c, 12, 65, 72
19, 35519, Note_on_c, 12, 65, 0
19, 35520, Note_on_c, 12, 63, 72
19, 35699, Note_on_c, 12, 63, 0
19, 35700, Note_on_c, 12, 62, 72
19, 35759, Note_on_c, 12, 62, 0
19, 35760, Note_on_c, 12, 60, 72
19, 35819, Note_on_c, 12, 60, 0
19, 35820, Note_on_c, 12, 65, 72
19, 35879, Note_on_c, 12, 65, 0
19, 35880, Note_on_c, 12, 67, 72
19, 35939, Note_on_c, 12, 67, 0
19, 35940, Note_on_c, 12, 69, 72
19, 35999, Note_on_c, 12, 69, 0
19, 36000, Note_on_c, 12, 70, 72
19, 36059, Note_on_c, 12, 70, 0
19, 36060, Note_on_c, 12, 58, 72
19, 36119, Note_on_c, 12, 58, 0
19, 36120, Note_on_c, 12, 63, 72
19, 36209, Note_on_c, 12, 63, 0
19, 36210, Note_on_c, 12, 62, 72
19, 36239, Note_on_c, 12, 62, 0
19, 36240, Note_on_c, 12, 60, 72
19, 36299, Note_on_c, 12, 60, 0
19, 36300, Note_on_c, 12, 60, 72
19, 36359, Note_on_c, 12, 60, 0
19, 36360, Note_on_c, 12, 65, 72
19, 36539, Note_on_c, 12, 65, 0
19, 36540, Note_on_c, 12, 63, 72
19, 36569, Note_on_c, 12, 63, 0
19, 36570, Note_on_c, 12, 62, 72
19, 36599, Note_on_c, 12, 62, 0
19, 36600, Note_on_c, 12, 63, 72
19, 36629, Note_on_c, 12, 63, 0
19, 36630, Note_on_c, 12, 65, 72
19, 36659, Note_on_c, 12, 65, 0
19, 36660, Note_on_c, 12, 62, 72
19, 36689, Note_on_c, 12, 62, 0
19, 36690, Note_on_c, 12, 63, 72
19, 36719, Note_on_c, 12, 63, 0
19, 36720, Note_on_c, 12, 60, 72
19, 36779, Note_on_c, 12, 60, 0
19, 36780, Note_on_c, 12, 62, 72
19, 36809, Note_on_c, 12, 62, 0
19, 36810, Note_on_c, 12, 63, 72
19, 36839, Note_on_c, 12, 63, 0
19, 36840, Note_on_c, 12, 65, 72
19, 37019, Note_on_c, 12, 65, 0
19, 37020, Note_on_c, 12, 58, 72
19, 37139, Note_on_c, 12, 58, 0
19, 37140, Note_on_c, 12, 67, 72
19, 37199, Note_on_c, 12, 67, 0
19, 37200, Note_on_c, 12, 65, 72
19, 37319, Note_on_c, 12, 65, 0
19, 38160, Note_on_c, 12, 72, 72
19, 38339, Note_on_c, 12, 72, 0
19, 38340, Note_on_c, 12, 72, 72
19, 38399, Note_on_c, 12, 72, 0
19, 38400, Note_on_c, 12, 68, 72
19, 38519, Note_on_c, 12, 68, 0
19, 38520, Note_on_c, 12, 73, 72
19, 38639, Note_on_c, 12, 73, 0
19, 38640, Note_on_c, 12, 64, 72
19, 38819, Note_on_c, 12, 64, 0
19, 38820, Note_on_c, 12, 64, 72
19, 38879, Note_on_c, 12, 64, 0
19, 38880, Note_on_c, 12, 65, 72
19, 38999, Note_on_c, 12, 65, 0
19, 39660, Note_on_c, 12, 62, 72
19, 39719, Note_on_c, 12, 62, 0
19, 39720, Note_on_c, 12, 62, 72
19, 39779, Note_on_c, 12, 62, 0
19, 39780, Note_on_c, 12, 62, 72
19, 39839, Note_on_c, 12, 62, 0
19, 39840, Note_on_c, 12, 63, 72
19, 39869, Note_on_c, 12, 63, 0
19, 39870, Note_on_c, 12, 65, 72
19, 39899, Note_on_c, 12, 65, 0
19, 39900, Note_on_c, 12, 63, 72
19, 39929, Note_on_c, 12, 63, 0
19, 39930, Note_on_c, 12, 62, 72
19, 39959, Note_on_c, 12, 62, 0
19, 39960, Note_on_c, 12, 64, 72
19, 39989, Note_on_c, 12, 64, 0
19, 39990, Note_on_c, 12, 65, 72
19, 40019, Note_on_c, 12, 65, 0
19, 40020, Note_on_c, 12, 62, 72
19, 40049, Note_on_c, 12, 62, 0
19, 40050, Note_on_c, 12, 64, 72
19, 40079, Note_on_c, 12, 64, 0
19, 40080, Note_on_c, 12, 65, 72
19, 40109, Note_on_c, 12, 65, 0
19, 40110, Note_on_c, 12, 67, 72
19, 40139, Note_on_c, 12, 67, 0
19, 40140, Note_on_c, 12, 65, 72
19, 40169, Note_on_c, 12, 65, 0
19, 40170, Note_on_c, 12, 64, 72
19, 40199, Note_on_c, 12, 64, 0
19, 40200, Note_on_c, 12, 66, 72
19, 40229, Note_on_c, 12, 66, 0
19, 40230, Note_on_c, 12, 67, 72
19, 40259, Note_on_c, 12, 67, 0
19, 40260, Note_on_c, 12, 64, 72
19, 40289, Note_on_c, 12, 64, 0
19, 40290, Note_on_c, 12, 66, 72
19, 40319, Note_on_c, 12, 66, 0
19, 40320, Note_on_c, 12, 67, 72
19, 40379, Note_on_c, 12, 67, 0
19, 40380, Note_on_c, 12, 62, 72
19, 40439, Note_on_c, 12, 62, 0
19, 40440, Note_on_c, 12, 67, 72
19, 40499, Note_on_c, 12, 67, 0
19, 40500, Note_on_c, 12, 65, 72
19, 40559, Note_on_c, 12, 65, 0
19, 40560, Note_on_c, 12, 64, 72
19, 40619, Note_on_c, 12, 64, 0
19, 40620, Note_on_c, 12, 57, 72
19, 40679, Note_on_c, 12, 57, 0
19, 40680, Note_on_c, 12, 69, 72
19, 40739, Note_on_c, 12, 69, 0
19, 40740, Note_on_c, 12, 67, 72
19, 40799, Note_on_c, 12, 67, 0
19, 40800, Note_on_c, 12, 65, 72
19, 40919, Note_on_c, 12, 65, 0
19, 40920, Note_on_c, 12, 69, 72
19, 41009, Note_on_c, 12, 69, 0
19, 41010, Note_on_c, 12, 69, 72
19, 41039, Note_on_c, 12, 69, 0
19, 41040, Note_on_c, 12, 62, 72
19, 41099, Note_on_c, 12, 62, 0
19, 41100, Note_on_c, 12, 71, 72
19, 41159, Note_on_c, 12, 71, 0
19, 41160, Note_on_c, 12, 71, 72
19, 41279, Note_on_c, 12, 71, 0
19, 41280, Note_on_c, 12, 64, 72
19, 41339, Note_on_c, 12, 64, 0
19, 41340, Note_on_c, 12, 61, 72
19, 41399, Note_on_c, 12, 61, 0
19, 41400, Note_on_c, 12, 62, 72
19, 41459, Note_on_c, 12, 62, 0
19, 41460, Note_on_c, 12, 64, 72
19, 41519, Note_on_c, 12, 64, 0
19, 41520, Note_on_c, 12, 65, 72
19, 41579, Note_on_c, 12, 65, 0
19, 41580, Note_on_c, 12, 64, 72
19, 41609, Note_on_c, 12, 64, 0
19, 41610, Note_on_c, 12, 65, 72
19, 41639, Note_on_c, 12, 65, 0
19, 41640, Note_on_c, 12, 67, 72
19, 41699, Note_on_c, 12, 67, 0
19, 41700, Note_on_c, 12, 65, 72
19, 41729, Note_on_c, 12, 65, 0
19, 41730, Note_on_c, 12, 67, 72
19, 41759, Note_on_c, 12, 67, 0
19, 41760, Note_on_c, 12, 69, 72
19, 41819, Note_on_c, 12, 69, 0
19, 41820, Note_on_c, 12, 70, 72
19, 41879, Note_on_c, 12, 70, 0
19, 41880, Note_on_c, 12, 69, 72
19, 41939, Note_on_c, 12, 69, 0
19, 41940, Note_on_c, 12, 67, 72
19, 41999, Note_on_c, 12, 67, 0
19, 42000, Note_on_c, 12, 65, 72
19, 42059, Note_on_c, 12, 65, 0
19, 42060, Note_on_c, 12, 69, 72
19, 42119, Note_on_c, 12, 69, 0
19, 42120, Note_on_c, 12, 74, 72
19, 42239, Note_on_c, 12, 74, 0
19, 42240, Note_on_c, 12, 74, 72
19, 42359, Note_on_c, 12, 74, 0
19, 42360, Note_on_c, 12, 73, 72
19, 42479, Note_on_c, 12, 73, 0
19, 42840, Note_on_c, 12, 70, 72
19, 43019, Note_on_c, 12, 70, 0
19, 43020, Note_on_c, 12, 70, 72
19, 43079, Note_on_c, 12, 70, 0
19, 43080, Note_on_c, 12, 69, 72
19, 43139, Note_on_c, 12, 69, 0
19, 43140, Note_on_c, 12, 69, 72
19, 43199, Note_on_c, 12, 69, 0
19, 43200, Note_on_c, 12, 69, 72
19, 43319, Note_on_c, 12, 69, 0
19, 43320, Note_on_c, 12, 68, 72
19, 43439, Note_on_c, 12, 68, 0
19, 43440, Note_on_c, 12, 69, 72
19, 43499, Note_on_c, 12, 69, 0
19, 43500, Note_on_c, 12, 69, 72
19, 43619, Note_on_c, 12, 69, 0
19, 43620, Note_on_c, 12, 69, 72
19, 43679, Note_on_c, 12, 69, 0
19, 43680, Note_on_c, 12, 65, 72
19, 43799, Note_on_c, 12, 65, 0
19, 43800, Note_on_c, 12, 70, 72
19, 43919, Note_on_c, 12, 70, 0
19, 43920, Note_on_c, 12, 61, 72
19, 44099, Note_on_c, 12, 61, 0
19, 44100, Note_on_c, 12, 61, 72
19, 44159, Note_on_c, 12, 61, 0
19, 44160, Note_on_c, 12, 62, 72
19, 44279, Note_on_c, 12, 62, 0
19, 44340, Note_on_c, 12, 62, 72
19, 44399, Note_on_c, 12, 62, 0
19, 44400, Note_on_c, 12, 64, 72
19, 44579, Note_on_c, 12, 64, 0
19, 44580, Note_on_c, 12, 62, 72
19, 44609, Note_on_c, 12, 62, 0
19, 44610, Note_on_c, 12, 64, 72
19, 44639, Note_on_c, 12, 64, 0
19, 44640, Note_on_c, 12, 65, 72
19, 44759, Note_on_c, 12, 65, 0
19, 44940, Note_on_c, 12, 64, 72
19, 44999, Note_on_c, 12, 64, 0
19, 45000, Note_on_c, 12, 64, 72
19, 45059, Note_on_c, 12, 64, 0
19, 45060, Note_on_c, 12, 64, 72
19, 45119, Note_on_c, 12, 64, 0
19, 45120, Note_on_c, 12, 65, 72
19, 45149, Note_on_c, 12, 65, 0
19, 45150, Note_on_c, 12, 67, 72
19, 45179, Note_on_c, 12, 67, 0
19, 45180, Note_on_c, 12, 65, 72
19, 45209, Note_on_c, 12, 65, 0
19, 45210, Note_on_c, 12, 64, 72
19, 45239, Note_on_c, 12, 64, 0
19, 45240, Note_on_c, 12, 66, 72
19, 45269, Note_on_c, 12, 66, 0
19, 45270, Note_on_c, 12, 67, 72
19, 45299, Note_on_c, 12, 67, 0
19, 45300, Note_on_c, 12, 64, 72
19, 45329, Note_on_c, 12, 64, 0
19, 45330, Note_on_c, 12, 66, 72
19, 45359, Note_on_c, 12, 66, 0
19, 45360, Note_on_c, 12, 67, 72
19, 45389, Note_on_c, 12, 67, 0
19, 45390, Note_on_c, 12, 69, 72
19, 45419, Note_on_c, 12, 69, 0
19, 45420, Note_on_c, 12, 67, 72
19, 45449, Note_on_c, 12, 67, 0
19, 45450, Note_on_c, 12, 66, 72
19, 45479, Note_on_c, 12, 66, 0
19, 45480, Note_on_c, 12, 68, 72
19, 45509, Note_on_c, 12, 68, 0
19, 45510, Note_on_c, 12, 69, 72
19, 45539, Note_on_c, 12, 69, 0
19, 45540, Note_on_c, 12, 66, 72
19, 45569, Note_on_c, 12, 66, 0
19, 45570, Note_on_c, 12, 68, 72
19, 45599, Note_on_c, 12, 68, 0
19, 45600, Note_on_c, 12, 69, 72
19, 45719, Note_on_c, 12, 69, 0
19, 45720, Note_on_c, 12, 69, 72
19, 45809, Note_on_c, 12, 69, 0
19, 45810, Note_on_c, 12, 69, 72
19, 45839, Note_on_c, 12, 69, 0
19, 45840, Note_on_c, 12, 67, 72
19, 45959, Note_on_c, 12, 67, 0
19, 45960, Note_on_c, 12, 71, 72
19, 46049, Note_on_c, 12, 71, 0
19, 46050, Note_on_c, 12, 71, 72
19, 46079, Note_on_c, 12, 71, 0
19, 46080, Note_on_c, 12, 69, 72
19, 46139, Note_on_c, 12, 69, 0
19, 46140, Note_on_c, 12, 67, 72
19, 46199, Note_on_c, 12, 67, 0
19, 46200, Note_on_c, 12, 65, 72
19, 46259, Note_on_c, 12, 65, 0
19, 46260, Note_on_c, 12, 70, 72
19, 46319, Note_on_c, 12, 70, 0
19, 46320, Note_on_c, 12, 69, 72
19, 46499, Note_on_c, 12, 69, 0
19, 46500, Note_on_c, 12, 69, 72
19, 46559, Note_on_c, 12, 69, 0
19, 46560, Note_on_c, 12, 71, 72
19, 46799, Note_on_c, 12, 71, 0
19, 46920, Note_on_c, 12, 71, 72
19, 47009, Note_on_c, 12, 71, 0
19, 47010, Note_on_c, 12, 71, 72
19, 47039, Note_on_c, 12, 71, 0
19, 47040, Note_on_c, 12, 69, 72
19, 47159, Note_on_c, 12, 69, 0
19, 47160, Note_on_c, 12, 69, 72
19, 47279, Note_on_c, 12, 69, 0
19, 47280, Note_on_c, 12, 69, 72
19, 47459, Note_on_c, 12, 69, 0
19, 47460, Note_on_c, 12, 69, 72
19, 47519, Note_on_c, 12, 69, 0
19, 47520, Note_on_c, 12, 69, 72
19, 47999, Note_on_c, 12, 69, 0
19, 47999, End_track
20, 0, Start_track
20, 0, Title_t, "Tenor"
20, 0, Program_c, 13, 52
20, 0, Control_c, 13, 7, 127
20, 0, Control_c, 13, 10, 48
20, 0, Control_c, 13, 11, 127
20, 3720, Note_on_c, 13, 57, 72
20, 3899, Note_on_c, 13, 57, 0
20, 3900, Note_on_c, 13, 57, 72
20, 3959, Note_on_c, 13, 57, 0
20, 3960, Note_on_c, 13, 56, 72
20, 4019, Note_on_c, 13, 56, 0
20, 4020, Note_on_c, 13, 56, 72
20, 4079, Note_on_c, 13, 56, 0
20, 4080, Note_on_c, 13, 57, 72
20, 4199, Note_on_c, 13, 57, 0
20, 4200, Note_on_c, 13, 55, 72
20, 4319, Note_on_c, 13, 55, 0
20, 4320, Note_on_c, 13, 53, 72
20, 4439, Note_on_c, 13, 53, 0
20, 4440, Note_on_c, 13, 62, 72
20, 4559, Note_on_c, 13, 62, 0
20, 4560, Note_on_c, 13, 60, 72
20, 4679, Note_on_c, 13, 60, 0
20, 4680, Note_on_c, 13, 62, 72
20, 4799, Note_on_c, 13, 62, 0
20, 4800, Note_on_c, 13, 64, 72
20, 4859, Note_on_c, 13, 64, 0
20, 4860, Note_on_c, 13, 57, 72
20, 4919, Note_on_c, 13, 57, 0
20, 4920, Note_on_c, 13, 62, 72
20, 4979, Note_on_c, 13, 62, 0
20, 4980, Note_on_c, 13, 60, 72
20, 5039, Note_on_c, 13, 60, 0
20, 5040, Note_on_c, 13, 58, 72
20, 5219, Note_on_c, 13, 58, 0
20, 5220, Note_on_c, 13, 60, 72
20, 5249, Note_on_c, 13, 60, 0
20, 5250, Note_on_c, 13, 58, 72
20, 5279, Note_on_c, 13, 58, 0
20, 5280, Note_on_c, 13, 57, 72
20, 5369, Note_on_c, 13, 57, 0
20, 5370, Note_on_c, 13, 57, 72
20, 5399, Note_on_c, 13, 57, 0
20, 5400, Note_on_c, 13, 65, 72
20, 5459, Note_on_c, 13, 65, 0
20, 5460, Note_on_c, 13, 65, 72
20, 5519, Note_on_c, 13, 65, 0
20, 5520, Note_on_c, 13, 64, 72
20, 5639, Note_on_c, 13, 64, 0
20, 5640, Note_on_c, 13, 64, 72
20, 5759, Note_on_c, 13, 64, 0
20, 5760, Note_on_c, 13, 57, 72
20, 5939, Note_on_c, 13, 57, 0
20, 5940, Note_on_c, 13, 57, 72
20, 5999, Note_on_c, 13, 57, 0
20, 6000, Note_on_c, 13, 57, 72
20, 6059, Note_on_c, 13, 57, 0
20, 6060, Note_on_c, 13, 57, 72
20, 6119, Note_on_c, 13, 57, 0
20, 6120, Note_on_c, 13, 57, 72
20, 6179, Note_on_c, 13, 57, 0
20, 6180, Note_on_c, 13, 60, 72
20, 6209, Note_on_c, 13, 60, 0
20, 6210, Note_on_c, 13, 57, 72
20, 6239, Note_on_c, 13, 57, 0
20, 6240, Note_on_c, 13, 65, 72
20, 6299, Note_on_c, 13, 65, 0
20, 6300, Note_on_c, 13, 65, 72
20, 6359, Note_on_c, 13, 65, 0
20, 6360, Note_on_c, 13, 62, 72
20, 6449, Note_on_c, 13, 62, 0
20, 6450, Note_on_c, 13, 62, 72
20, 6479, Note_on_c, 13, 62, 0
20, 6480, Note_on_c, 13, 64, 72
20, 6599, Note_on_c, 13, 64, 0
20, 6780, Note_on_c, 13, 57, 72
20, 6839, Note_on_c, 13, 57, 0
20, 6840, Note_on_c, 13, 57, 72
20, 6899, Note_on_c, 13, 57, 0
20, 6900, Note_on_c, 13, 57, 72
20, 6959, Note_on_c, 13, 57, 0
20, 6960, Note_on_c, 13, 57, 72
20, 7049, Note_on_c, 13, 57, 0
20, 7050, Note_on_c, 13, 58, 72
20, 7079, Note_on_c, 13, 58, 0
20, 7080, Note_on_c, 13, 60, 72
20, 7199, Note_on_c, 13, 60, 0
20, 7260, Note_on_c, 13, 60, 72
20, 7319, Note_on_c, 13, 60, 0
20, 7320, Note_on_c, 13, 60, 72
20, 7379, Note_on_c, 13, 60, 0
20, 7380, Note_on_c, 13, 60, 72
20, 7439, Note_on_c, 13, 60, 0
20, 7440, Note_on_c, 13, 60, 72
20, 7529, Note_on_c, 13, 60, 0
20, 7530, Note_on_c, 13, 62, 72
20, 7559, Note_on_c, 13, 62, 0
20, 7560, Note_on_c, 13, 63, 72
20, 7679, Note_on_c, 13, 63, 0
20, 7680, Note_on_c, 13, 60, 72
20, 7769, Note_on_c, 13, 60, 0
20, 7770, Note_on_c, 13, 60, 72
20, 7799, Note_on_c, 13, 60, 0
20, 7800, Note_on_c, 13, 62, 72
20, 7919, Note_on_c, 13, 62, 0
20, 8160, Note_on_c, 13, 58, 48
20, 8279, Note_on_c, 13, 58, 0
20, 8280, Note_on_c, 13, 55, 48
20, 8339, Note_on_c, 13, 55, 0
20, 8340, Note_on_c, 13, 61, 48
20, 8399, Note_on_c, 13, 61, 0
20, 8400, Note_on_c, 13, 60, 48
20, 8639, Note_on_c, 13, 60, 0
20, 8640, Note_on_c, 13, 62, 48
20, 8759, Note_on_c, 13, 62, 0
20, 12180, Note_on_c, 13, 63, 72
20, 12239, Note_on_c, 13, 63, 0
20, 12240, Note_on_c, 13, 60, 72
20, 12299, Note_on_c, 13, 60, 0
20, 12300, Note_on_c, 13, 65, 72
20, 12359, Note_on_c, 13, 65, 0
20, 12420, Note_on_c, 13, 65, 72
20, 12479, Note_on_c, 13, 65, 0
20, 12480, Note_on_c, 13, 62, 72
20, 12539, Note_on_c, 13, 62, 0
20, 12540, Note_on_c, 13, 58, 72
20, 12599, Note_on_c, 13, 58, 0
20, 12660, Note_on_c, 13, 62, 72
20, 12719, Note_on_c, 13, 62, 0
20, 12720, Note_on_c, 13, 57, 72
20, 12839, Note_on_c, 13, 57, 0
20, 12840, Note_on_c, 13, 57, 72
20, 12899, Note_on_c, 13, 57, 0
20, 12900, Note_on_c, 13, 57, 72
20, 12959, Note_on_c, 13, 57, 0
20, 12960, Note_on_c, 13, 58, 72
20, 13019, Note_on_c, 13, 58, 0
20, 13020, Note_on_c, 13, 62, 72
20, 13079, Note_on_c, 13, 62, 0
20, 13080, Note_on_c, 13, 67, 72
20, 13139, Note_on_c, 13, 67, 0
20, 13140, Note_on_c, 13, 65, 72
20, 13199, Note_on_c, 13, 65, 0
20, 13200, Note_on_c, 13, 63, 72
20, 13259, Note_on_c, 13, 63, 0
20, 13260, Note_on_c, 13, 65, 72
20, 13379, Note_on_c, 13, 65, 0
20, 13380, Note_on_c, 13, 63, 72
20, 13439, Note_on_c, 13, 63, 0
20, 13440, Note_on_c, 13, 62, 72
20, 13559, Note_on_c, 13, 62, 0
20, 13620, Note_on_c, 13, 62, 72
20, 13679, Note_on_c, 13, 62, 0
20, 13680, Note_on_c, 13, 58, 72
20, 13799, Note_on_c, 13, 58, 0
20, 13860, Note_on_c, 13, 58, 72
20, 13919, Note_on_c, 13, 58, 0
20, 13920, Note_on_c, 13, 55, 72
20, 14039, Note_on_c, 13, 55, 0
20, 14040, Note_on_c, 13, 55, 72
20, 14279, Note_on_c, 13, 55, 0
20, 14280, Note_on_c, 13, 54, 72
20, 14339, Note_on_c, 13, 54, 0
20, 14340, Note_on_c, 13, 55, 72
20, 14399, Note_on_c, 13, 55, 0
20, 14400, Note_on_c, 13, 57, 72
20, 14459, Note_on_c, 13, 57, 0
20, 14460, Note_on_c, 13, 57, 72
20, 14519, Note_on_c, 13, 57, 0
20, 14520, Note_on_c, 13, 58, 72
20, 14579, Note_on_c, 13, 58, 0
20, 14580, Note_on_c, 13, 55, 72
20, 14639, Note_on_c, 13, 55, 0
20, 14640, Note_on_c, 13, 62, 72
20, 14819, Note_on_c, 13, 62, 0
20, 14820, Note_on_c, 13, 60, 72
20, 14879, Note_on_c, 13, 60, 0
20, 14880, Note_on_c, 13, 58, 72
20, 14999, Note_on_c, 13, 58, 0
20, 16680, Note_on_c, 13, 57, 72
20, 16859, Note_on_c, 13, 57, 0
20, 16860, Note_on_c, 13, 57, 72
20, 16919, Note_on_c, 13, 57, 0
20, 16920, Note_on_c, 13, 56, 72
20, 16979, Note_on_c, 13, 56, 0
20, 16980, Note_on_c, 13, 56, 72
20, 17039, Note_on_c, 13, 56, 0
20, 17040, Note_on_c, 13, 57, 72
20, 17159, Note_on_c, 13, 57, 0
20, 17160, Note_on_c, 13, 59, 72
20, 17279, Note_on_c, 13, 59, 0
20, 17280, Note_on_c, 13, 60, 72
20, 17399, Note_on_c, 13, 60, 0
20, 17820, Note_on_c, 13, 62, 72
20, 17909, Note_on_c, 13, 62, 0
20, 17910, Note_on_c, 13, 63, 72
20, 17939, Note_on_c, 13, 63, 0
20, 17940, Note_on_c, 13, 62, 72
20, 17969, Note_on_c, 13, 62, 0
20, 17970, Note_on_c, 13, 60, 72
20, 17999, Note_on_c, 13, 60, 0
20, 18000, Note_on_c, 13, 58, 72
20, 18029, Note_on_c, 13, 58, 0
20, 18030, Note_on_c, 13, 62, 72
20, 18059, Note_on_c, 13, 62, 0
20, 18060, Note_on_c, 13, 60, 72
20, 18089, Note_on_c, 13, 60, 0
20, 18090, Note_on_c, 13, 58, 72
20, 18119, Note_on_c, 13, 58, 0
20, 18120, Note_on_c, 13, 57, 72
20, 18149, Note_on_c, 13, 57, 0
20, 18150, Note_on_c, 13, 60, 72
20, 18179, Note_on_c, 13, 60, 0
20, 18180, Note_on_c, 13, 58, 72
20, 18209, Note_on_c, 13, 58, 0
20, 18210, Note_on_c, 13, 57, 72
20, 18239, Note_on_c, 13, 57, 0
20, 18240, Note_on_c, 13, 55, 72
20, 18329, Note_on_c, 13, 55, 0
20, 18330, Note_on_c, 13, 57, 72
20, 18359, Note_on_c, 13, 57, 0
20, 18360, Note_on_c, 13, 58, 72
20, 18389, Note_on_c, 13, 58, 0
20, 18390, Note_on_c, 13, 57, 72
20, 18419, Note_on_c, 13, 57, 0
20, 18420, Note_on_c, 13, 55, 72
20, 18449, Note_on_c, 13, 55, 0
20, 18450, Note_on_c, 13, 58, 72
20, 18479, Note_on_c, 13, 58, 0
20, 18480, Note_on_c, 13, 57, 72
20, 18509, Note_on_c, 13, 57, 0
20, 18510, Note_on_c, 13, 55, 72
20, 18539, Note_on_c, 13, 55, 0
20, 18540, Note_on_c, 13, 53, 72
20, 18569, Note_on_c, 13, 53, 0
20, 18570, Note_on_c, 13, 55, 72
20, 18599, Note_on_c, 13, 55, 0
20, 18600, Note_on_c, 13, 57, 72
20, 18629, Note_on_c, 13, 57, 0
20, 18630, Note_on_c, 13, 55, 72
20, 18659, Note_on_c, 13, 55, 0
20, 18660, Note_on_c, 13, 57, 72
20, 18689, Note_on_c, 13, 57, 0
20, 18690, Note_on_c, 13, 53, 72
20, 18719, Note_on_c, 13, 53, 0
20, 18720, Note_on_c, 13, 60, 72
20, 18779, Note_on_c, 13, 60, 0
20, 18780, Note_on_c, 13, 48, 72
20, 18839, Note_on_c, 13, 48, 0
20, 18960, Note_on_c, 13, 60, 72
20, 19079, Note_on_c, 13, 60, 0
20, 19080, Note_on_c, 13, 64, 72
20, 19199, Note_on_c, 13, 64, 0
20, 19200, Note_on_c, 13, 65, 72
20, 19319, Note_on_c, 13, 65, 0
20, 19440, Note_on_c, 13, 57, 72
20, 19559, Note_on_c, 13, 57, 0
20, 19560, Note_on_c, 13, 61, 72
20, 19679, Note_on_c, 13, 61, 0
20, 19680, Note_on_c, 13, 62, 72
20, 19799, Note_on_c, 13, 62, 0
20, 19920, Note_on_c, 13, 53, 72
20, 20039, Note_on_c, 13, 53, 0
20, 20040, Note_on_c, 13, 57, 72
20, 20159, Note_on_c, 13, 57, 0
20, 20160, Note_on_c, 13, 58, 72
20, 20279, Note_on_c, 13, 58, 0
20, 20460, Note_on_c, 13, 62, 72
20, 20519, Note_on_c, 13, 62, 0
20, 20520, Note_on_c, 13, 62, 72
20, 20579, Note_on_c, 13, 62, 0
20, 20580, Note_on_c, 13, 62, 72
20, 20639, Note_on_c, 13, 62, 0
20, 20640, Note_on_c, 13, 65, 72
20, 20729, Note_on_c, 13, 65, 0
20, 20730, Note_on_c, 13, 64, 72
20, 20759, Note_on_c, 13, 64, 0
20, 20760, Note_on_c, 13, 62, 72
20, 20879, Note_on_c, 13, 62, 0
20, 20940, Note_on_c, 13, 62, 72
20, 20999, Note_on_c, 13, 62, 0
20, 21000, Note_on_c, 13, 62, 72
20, 21059, Note_on_c, 13, 62, 0
20, 21060, Note_on_c, 13, 62, 72
20, 21119, Note_on_c, 13, 62, 0
20, 21120, Note_on_c, 13, 62, 72
20, 21209, Note_on_c, 13, 62, 0
20, 21210, Note_on_c, 13, 60, 72
20, 21239, Note_on_c, 13, 60, 0
20, 21240, Note_on_c, 13, 59, 72
20, 21359, Note_on_c, 13, 59, 0
20, 21360, Note_on_c, 13, 62, 72
20, 21479, Note_on_c, 13, 62, 0
20, 21480, Note_on_c, 13, 64, 72
20, 21539, Note_on_c, 13, 64, 0
20, 21540, Note_on_c, 13, 65, 72
20, 21599, Note_on_c, 13, 65, 0
20, 21600, Note_on_c, 13, 65, 72
20, 21659, Note_on_c, 13, 65, 0
20, 21660, Note_on_c, 13, 64, 72
20, 21719, Note_on_c, 13, 64, 0
20, 21780, Note_on_c, 13, 61, 48
20, 21839, Note_on_c, 13, 61, 0
20, 21840, Note_on_c, 13, 62, 48
20, 21959, Note_on_c, 13, 62, 0
20, 21960, Note_on_c, 13, 64, 48
20, 22079, Note_on_c, 13, 64, 0
20, 22080, Note_on_c, 13, 62, 48
20, 22169, Note_on_c, 13, 62, 0
20, 22170, Note_on_c, 13, 62, 48
20, 22199, Note_on_c, 13, 62, 0
20, 22200, Note_on_c, 13, 57, 48
20, 22319, Note_on_c, 13, 57, 0
20, 22320, Note_on_c, 13, 53, 48
20, 22439, Note_on_c, 13, 53, 0
20, 22440, Note_on_c, 13, 52, 48
20, 22499, Note_on_c, 13, 52, 0
20, 22500, Note_on_c, 13, 50, 48
20, 22559, Note_on_c, 13, 50, 0
20, 22560, Note_on_c, 13, 57, 48
20, 22799, Note_on_c, 13, 57, 0
20, 22800, Note_on_c, 13, 57, 48
20, 23039, Note_on_c, 13, 57, 0
20, 25260, Note_on_c, 13, 59, 72
20, 25319, Note_on_c, 13, 59, 0
20, 25320, Note_on_c, 13, 59, 72
20, 25379, Note_on_c, 13, 59, 0
20, 25380, Note_on_c, 13, 59, 72
20, 25439, Note_on_c, 13, 59, 0
20, 25440, Note_on_c, 13, 60, 72
20, 25469, Note_on_c, 13, 60, 0
20, 25470, Note_on_c, 13, 62, 72
20, 25499, Note_on_c, 13, 62, 0
20, 25500, Note_on_c, 13, 60, 72
20, 25529, Note_on_c, 13, 60, 0
20, 25530, Note_on_c, 13, 59, 72
20, 25559, Note_on_c, 13, 59, 0
20, 25560, Note_on_c, 13, 60, 72
20, 25589, Note_on_c, 13, 60, 0
20, 25590, Note_on_c, 13, 62, 72
20, 25619, Note_on_c, 13, 62, 0
20, 25620, Note_on_c, 13, 59, 72
20, 25649, Note_on_c, 13, 59, 0
20, 25650, Note_on_c, 13, 60, 72
20, 25679, Note_on_c, 13, 60, 0
20, 25680, Note_on_c, 13, 62, 72
20, 25709, Note_on_c, 13, 62, 0
20, 25710, Note_on_c, 13, 64, 72
20, 25739, Note_on_c, 13, 64, 0
20, 25740, Note_on_c, 13, 62, 72
20, 25769, Note_on_c, 13, 62, 0
20, 25770, Note_on_c, 13, 60, 72
20, 25799, Note_on_c, 13, 60, 0
20, 25800, Note_on_c, 13, 62, 72
20, 25829, Note_on_c, 13, 62, 0
20, 25830, Note_on_c, 13, 64, 72
20, 25859, Note_on_c, 13, 64, 0
20, 25860, Note_on_c, 13, 60, 72
20, 25889, Note_on_c, 13, 60, 0
20, 25890, Note_on_c, 13, 62, 72
20, 25919, Note_on_c, 13, 62, 0
20, 25920, Note_on_c, 13, 64, 72
20, 25979, Note_on_c, 13, 64, 0
20, 25980, Note_on_c, 13, 65, 72
20, 26009, Note_on_c, 13, 65, 0
20, 26010, Note_on_c, 13, 64, 72
20, 26039, Note_on_c, 13, 64, 0
20, 26040, Note_on_c, 13, 62, 72
20, 26069, Note_on_c, 13, 62, 0
20, 26070, Note_on_c, 13, 60, 72
20, 26099, Note_on_c, 13, 60, 0
20, 26100, Note_on_c, 13, 59, 72
20, 26129, Note_on_c, 13, 59, 0
20, 26130, Note_on_c, 13, 57, 72
20, 26159, Note_on_c, 13, 57, 0
20, 26160, Note_on_c, 13, 56, 72
20, 26219, Note_on_c, 13, 56, 0
20, 26220, Note_on_c, 13, 59, 72
20, 26279, Note_on_c, 13, 59, 0
20, 26280, Note_on_c, 13, 64, 72
20, 26339, Note_on_c, 13, 64, 0
20, 26340, Note_on_c, 13, 62, 72
20, 26399, Note_on_c, 13, 62, 0
20, 26400, Note_on_c, 13, 60, 72
20, 26459, Note_on_c, 13, 60, 0
20, 26460, Note_on_c, 13, 61, 72
20, 26519, Note_on_c, 13, 61, 0
20, 26520, Note_on_c, 13, 62, 72
20, 26579, Note_on_c, 13, 62, 0
20, 26580, Note_on_c, 13, 64, 72
20, 26639, Note_on_c, 13, 64, 0
20, 26640, Note_on_c, 13, 57, 72
20, 26699, Note_on_c, 13, 57, 0
20, 26700, Note_on_c, 13, 50, 72
20, 26759, Note_on_c, 13, 50, 0
20, 26760, Note_on_c, 13, 55, 72
20, 26819, Note_on_c, 13, 55, 0
20, 26820, Note_on_c, 13, 53, 72
20, 26879, Note_on_c, 13, 53, 0
20, 26880, Note_on_c, 13, 52, 72
20, 26939, Note_on_c, 13, 52, 0
20, 26940, Note_on_c, 13, 53, 72
20, 26999, Note_on_c, 13, 53, 0
20, 27000, Note_on_c, 13, 58, 72
20, 27119, Note_on_c, 13, 58, 0
20, 27120, Note_on_c, 13, 57, 72
20, 27239, Note_on_c, 13, 57, 0
20, 28080, Note_on_c, 13, 62, 72
20, 28259, Note_on_c, 13, 62, 0
20, 28260, Note_on_c, 13, 62, 72
20, 28319, Note_on_c, 13, 62, 0
20, 28320, Note_on_c, 13, 60, 72
20, 28439, Note_on_c, 13, 60, 0
20, 28440, Note_on_c, 13, 65, 72
20, 28559, Note_on_c, 13, 65, 0
20, 28560, Note_on_c, 13, 56, 72
20, 28739, Note_on_c, 13, 56, 0
20, 28740, Note_on_c, 13, 56, 72
20, 28799, Note_on_c, 13, 56, 0
20, 28800, Note_on_c, 13, 57, 72
20, 28919, Note_on_c, 13, 57, 0
20, 28980, Note_on_c, 13, 57, 72
20, 29039, Note_on_c, 13, 57, 0
20, 29040, Note_on_c, 13, 59, 72
20, 29219, Note_on_c, 13, 59, 0
20, 29220, Note_on_c, 13, 57, 72
20, 29249, Note_on_c, 13, 57, 0
20, 29250, Note_on_c, 13, 59, 72
20, 29279, Note_on_c, 13, 59, 0
20, 29280, Note_on_c, 13, 60, 72
20, 29339, Note_on_c, 13, 60, 0
20, 29340, Note_on_c, 13, 59, 72
20, 29369, Note_on_c, 13, 59, 0
20, 29370, Note_on_c, 13, 60, 72
20, 29399, Note_on_c, 13, 60, 0
20, 29400, Note_on_c, 13, 62, 72
20, 29459, Note_on_c, 13, 62, 0
20, 29460, Note_on_c, 13, 60, 72
20, 29489, Note_on_c, 13, 60, 0
20, 29490, Note_on_c, 13, 62, 72
20, 29519, Note_on_c, 13, 62, 0
20, 29520, Note_on_c, 13, 64, 72
20, 29579, Note_on_c, 13, 64, 0
20, 29580, Note_on_c, 13, 62, 72
20, 29639, Note_on_c, 13, 62, 0
20, 29640, Note_on_c, 13, 60, 72
20, 29699, Note_on_c, 13, 60, 0
20, 29700, Note_on_c, 13, 59, 72
20, 29759, Note_on_c, 13, 59, 0
20, 29760, Note_on_c, 13, 57, 72
20, 29789, Note_on_c, 13, 57, 0
20, 29790, Note_on_c, 13, 59, 72
20, 29819, Note_on_c, 13, 59, 0
20, 29820, Note_on_c, 13, 60, 72
20, 29939, Note_on_c, 13, 60, 0
20, 29940, Note_on_c, 13, 61, 72
20, 29999, Note_on_c, 13, 61, 0
20, 30000, Note_on_c, 13, 62, 72
20, 30059, Note_on_c, 13, 62, 0
20, 30060, Note_on_c, 13, 50, 72
20, 30119, Note_on_c, 13, 50, 0
20, 30120, Note_on_c, 13, 52, 72
20, 30179, Note_on_c, 13, 52, 0
20, 30180, Note_on_c, 13, 54, 72
20, 30239, Note_on_c, 13, 54, 0
20, 30240, Note_on_c, 13, 55, 72
20, 30269, Note_on_c, 13, 55, 0
20, 30270, Note_on_c, 13, 57, 72
20, 30299, Note_on_c, 13, 57, 0
20, 30300, Note_on_c, 13, 58, 72
20, 30419, Note_on_c, 13, 58, 0
20, 30420, Note_on_c, 13, 59, 72
20, 30479, Note_on_c, 13, 59, 0
20, 30480, Note_on_c, 13, 60, 72
20, 30539, Note_on_c, 13, 60, 0
20, 30540, Note_on_c, 13, 58, 72
20, 30599, Note_on_c, 13, 58, 0
20, 30600, Note_on_c, 13, 57, 72
20, 30659, Note_on_c, 13, 57, 0
20, 30660, Note_on_c, 13, 55, 72
20, 30719, Note_on_c, 13, 55, 0
20, 30720, Note_on_c, 13, 57, 72
20, 30749, Note_on_c, 13, 57, 0
20, 30750, Note_on_c, 13, 53, 72
20, 30779, Note_on_c, 13, 53, 0
20, 30780, Note_on_c, 13, 55, 72
20, 30809, Note_on_c, 13, 55, 0
20, 30810, Note_on_c, 13, 57, 72
20, 30839, Note_on_c, 13, 57, 0
20, 30840, Note_on_c, 13, 58, 72
20, 30869, Note_on_c, 13, 58, 0
20, 30870, Note_on_c, 13, 55, 72
20, 30899, Note_on_c, 13, 55, 0
20, 30900, Note_on_c, 13, 57, 72
20, 30929, Note_on_c, 13, 57, 0
20, 30930, Note_on_c, 13, 58, 72
20, 30959, Note_on_c, 13, 58, 0
20, 30960, Note_on_c, 13, 60, 72
20, 31019, Note_on_c, 13, 60, 0
20, 31020, Note_on_c, 13, 55, 72
20, 31079, Note_on_c, 13, 55, 0
20, 31080, Note_on_c, 13, 60, 72
20, 31259, Note_on_c, 13, 60, 0
20, 31260, Note_on_c, 13, 58, 72
20, 31289, Note_on_c, 13, 58, 0
20, 31290, Note_on_c, 13, 57, 72
20, 31319, Note_on_c, 13, 57, 0
20, 31320, Note_on_c, 13, 58, 72
20, 31349, Note_on_c, 13, 58, 0
20, 31350, Note_on_c, 13, 60, 72
20, 31379, Note_on_c, 13, 60, 0
20, 31380, Note_on_c, 13, 57, 72
20, 31409, Note_on_c, 13, 57, 0
20, 31410, Note_on_c, 13, 58, 72
20, 31439, Note_on_c, 13, 58, 0
20, 31440, Note_on_c, 13, 55, 72
20, 31499, Note_on_c, 13, 55, 0
20, 31500, Note_on_c, 13, 57, 72
20, 31529, Note_on_c, 13, 57, 0
20, 31530, Note_on_c, 13, 58, 72
20, 31559, Note_on_c, 13, 58, 0
20, 31560, Note_on_c, 13, 60, 72
20, 31679, Note_on_c, 13, 60, 0
20, 32160, Note_on_c, 13, 62, 72
20, 32339, Note_on_c, 13, 62, 0
20, 32340, Note_on_c, 13, 62, 72
20, 32399, Note_on_c, 13, 62, 0
20, 32400, Note_on_c, 13, 58, 72
20, 32519, Note_on_c, 13, 58, 0
20, 32520, Note_on_c, 13, 63, 72
20, 32639, Note_on_c, 13, 63, 0
20, 32640, Note_on_c, 13, 54, 72
20, 32819, Note_on_c, 13, 54, 0
20, 32820, Note_on_c, 13, 54, 72
20, 32879, Note_on_c, 13, 54, 0
20, 32880, Note_on_c, 13, 55, 72
20, 32999, Note_on_c, 13, 55, 0
20, 33060, Note_on_c, 13, 55, 72
20, 33119, Note_on_c, 13, 55, 0
20, 33120, Note_on_c, 13, 57, 72
20, 33299, Note_on_c, 13, 57, 0
20, 33300, Note_on_c, 13, 55, 72
20, 33329, Note_on_c, 13, 55, 0
20, 33330, Note_on_c, 13, 57, 72
20, 33359, Note_on_c, 13, 57, 0
20, 33360, Note_on_c, 13, 58, 72
20, 33419, Note_on_c, 13, 58, 0
20, 33420, Note_on_c, 13, 57, 72
20, 33449, Note_on_c, 13, 57, 0
20, 33450, Note_on_c, 13, 58, 72
20, 33479, Note_on_c, 13, 58, 0
20, 33480, Note_on_c, 13, 60, 72
20, 33539, Note_on_c, 13, 60, 0
20, 33540, Note_on_c, 13, 58, 72
20, 33569, Note_on_c, 13, 58, 0
20, 33570, Note_on_c, 13, 60, 72
20, 33599, Note_on_c, 13, 60, 0
20, 33600, Note_on_c, 13, 62, 72
20, 33659, Note_on_c, 13, 62, 0
20, 33660, Note_on_c, 13, 60, 72
20, 33719, Note_on_c, 13, 60, 0
20, 33720, Note_on_c, 13, 58, 72
20, 33779, Note_on_c, 13, 58, 0
20, 33780, Note_on_c, 13, 57, 72
20, 33839, Note_on_c, 13, 57, 0
20, 33840, Note_on_c, 13, 55, 72
20, 33899, Note_on_c, 13, 55, 0
20, 33900, Note_on_c, 13, 65, 72
20, 33959, Note_on_c, 13, 65, 0
20, 33960, Note_on_c, 13, 63, 72
20, 34019, Note_on_c, 13, 63, 0
20, 34020, Note_on_c, 13, 59, 72
20, 34079, Note_on_c, 13, 59, 0
20, 34080, Note_on_c, 13, 60, 72
20, 34139, Note_on_c, 13, 60, 0
20, 34140, Note_on_c, 13, 67, 72
20, 34199, Note_on_c, 13, 67, 0
20, 34200, Note_on_c, 13, 65, 72
20, 34229, Note_on_c, 13, 65, 0
20, 34230, Note_on_c, 13, 63, 72
20, 34259, Note_on_c, 13, 63, 0
20, 34260, Note_on_c, 13, 62, 72
20, 34289, Note_on_c, 13, 62, 0
20, 34290, Note_on_c, 13, 60, 72
20, 34319, Note_on_c, 13, 60, 0
20, 34320, Note_on_c, 13, 62, 72
20, 34349, Note_on_c, 13, 62, 0
20, 34350, Note_on_c, 13, 60, 72
20, 34379, Note_on_c, 13, 60, 0
20, 34380, Note_on_c, 13, 59, 72
20, 34409, Note_on_c, 13, 59, 0
20, 34410, Note_on_c, 13, 57, 72
20, 34439, Note_on_c, 13, 57, 0
20, 34440, Note_on_c, 13, 55, 72
20, 34469, Note_on_c, 13, 55, 0
20, 34470, Note_on_c, 13, 56, 72
20, 34499, Note_on_c, 13, 56, 0
20, 34500, Note_on_c, 13, 53, 72
20, 34529, Note_on_c, 13, 53, 0
20, 34530, Note_on_c, 13, 55, 72
20, 34559, Note_on_c, 13, 55, 0
20, 34560, Note_on_c, 13, 51, 72
20, 34619, Note_on_c, 13, 51, 0
20, 34620, Note_on_c, 13, 48, 72
20, 34679, Note_on_c, 13, 48, 0
20, 34680, Note_on_c, 13, 56, 72
20, 34859, Note_on_c, 13, 56, 0
20, 34860, Note_on_c, 13, 53, 72
20, 34919, Note_on_c, 13, 53, 0
20, 34920, Note_on_c, 13, 58, 72
20, 35159, Note_on_c, 13, 58, 0
20, 35160, Note_on_c, 13, 56, 72
20, 35279, Note_on_c, 13, 56, 0
20, 35280, Note_on_c, 13, 55, 72
20, 35339, Note_on_c, 13, 55, 0
20, 35340, Note_on_c, 13, 57, 72
20, 35369, Note_on_c, 13, 57, 0
20, 35370, Note_on_c, 13, 59, 72
20, 35399, Note_on_c, 13, 59, 0
20, 35400, Note_on_c, 13, 60, 72
20, 35459, Note_on_c, 13, 60, 0
20, 35460, Note_on_c, 13, 62, 72
20, 35519, Note_on_c, 13, 62, 0
20, 35520, Note_on_c, 13, 63, 72
20, 35549, Note_on_c, 13, 63, 0
20, 35550, Note_on_c, 13, 62, 72
20, 35579, Note_on_c, 13, 62, 0
20, 35580, Note_on_c, 13, 60, 72
20, 35609, Note_on_c, 13, 60, 0
20, 35610, Note_on_c, 13, 58, 72
20, 35639, Note_on_c, 13, 58, 0
20, 35640, Note_on_c, 13, 57, 72
20, 35699, Note_on_c, 13, 57, 0
20, 35700, Note_on_c, 13, 58, 72
20, 35819, Note_on_c, 13, 58, 0
20, 35820, Note_on_c, 13, 57, 72
20, 35879, Note_on_c, 13, 57, 0
20, 35880, Note_on_c, 13, 58, 72
20, 35939, Note_on_c, 13, 58, 0
20, 35940, Note_on_c, 13, 60, 72
20, 35999, Note_on_c, 13, 60, 0
20, 36000, Note_on_c, 13, 62, 72
20, 36119, Note_on_c, 13, 62, 0
20, 36300, Note_on_c, 13, 53, 72
20, 36359, Note_on_c, 13, 53, 0
20, 36360, Note_on_c, 13, 53, 72
20, 36419, Note_on_c, 13, 53, 0
20, 36420, Note_on_c, 13, 53, 72
20, 36479, Note_on_c, 13, 53, 0
20, 36480, Note_on_c, 13, 55, 72
20, 36509, Note_on_c, 13, 55, 0
20, 36510, Note_on_c, 13, 57, 72
20, 36539, Note_on_c, 13, 57, 0
20, 36540, Note_on_c, 13, 55, 72
20, 36569, Note_on_c, 13, 55, 0
20, 36570, Note_on_c, 13, 53, 72
20, 36599, Note_on_c, 13, 53, 0
20, 36600, Note_on_c, 13, 55, 72
20, 36629, Note_on_c, 13, 55, 0
20, 36630, Note_on_c, 13, 57, 72
20, 36659, Note_on_c, 13, 57, 0
20, 36660, Note_on_c, 13, 53, 72
20, 36689, Note_on_c, 13, 53, 0
20, 36690, Note_on_c, 13, 55, 72
20, 36719, Note_on_c, 13, 55, 0
20, 36720, Note_on_c, 13, 57, 72
20, 36749, Note_on_c, 13, 57, 0
20, 36750, Note_on_c, 13, 58, 72
20, 36779, Note_on_c, 13, 58, 0
20, 36780, Note_on_c, 13, 57, 72
20, 36809, Note_on_c, 13, 57, 0
20, 36810, Note_on_c, 13, 55, 72
20, 36839, Note_on_c, 13, 55, 0
20, 36840, Note_on_c, 13, 57, 72
20, 36869, Note_on_c, 13, 57, 0
20, 36870, Note_on_c, 13, 58, 72
20, 36899, Note_on_c, 13, 58, 0
20, 36900, Note_on_c, 13, 55, 72
20, 36929, Note_on_c, 13, 55, 0
20, 36930, Note_on_c, 13, 57, 72
20, 36959, Note_on_c, 13, 57, 0
20, 36960, Note_on_c, 13, 58, 72
20, 37079, Note_on_c, 13, 58, 0
20, 37260, Note_on_c, 13, 60, 72
20, 37319, Note_on_c, 13, 60, 0
20, 37320, Note_on_c, 13, 60, 72
20, 37379, Note_on_c, 13, 60, 0
20, 37380, Note_on_c, 13, 60, 72
20, 37439, Note_on_c, 13, 60, 0
20, 37440, Note_on_c, 13, 62, 72
20, 37469, Note_on_c, 13, 62, 0
20, 37470, Note_on_c, 13, 63, 72
20, 37499, Note_on_c, 13, 63, 0
20, 37500, Note_on_c, 13, 62, 72
20, 37529, Note_on_c, 13, 62, 0
20, 37530, Note_on_c, 13, 60, 72
20, 37559, Note_on_c, 13, 60, 0
20, 37560, Note_on_c, 13, 62, 72
20, 37589, Note_on_c, 13, 62, 0
20, 37590, Note_on_c, 13, 63, 72
20, 37619, Note_on_c, 13, 63, 0
20, 37620, Note_on_c, 13, 60, 72
20, 37649, Note_on_c, 13, 60, 0
20, 37650, Note_on_c, 13, 62, 72
20, 37679, Note_on_c, 13, 62, 0
20, 37680, Note_on_c, 13, 63, 72
20, 37709, Note_on_c, 13, 63, 0
20, 37710, Note_on_c, 13, 65, 72
20, 37739, Note_on_c, 13, 65, 0
20, 37740, Note_on_c, 13, 63, 72
20, 37769, Note_on_c, 13, 63, 0
20, 37770, Note_on_c, 13, 62, 72
20, 37799, Note_on_c, 13, 62, 0
20, 37800, Note_on_c, 13, 63, 72
20, 37829, Note_on_c, 13, 63, 0
20, 37830, Note_on_c, 13, 65, 72
20, 37859, Note_on_c, 13, 65, 0
20, 37860, Note_on_c, 13, 62, 72
20, 37889, Note_on_c, 13, 62, 0
20, 37890, Note_on_c, 13, 63, 72
20, 37919, Note_on_c, 13, 63, 0
20, 37920, Note_on_c, 13, 65, 72
20, 37979, Note_on_c, 13, 65, 0
20, 37980, Note_on_c, 13, 62, 72
20, 38039, Note_on_c, 13, 62, 0
20, 38040, Note_on_c, 13, 64, 72
20, 38099, Note_on_c, 13, 64, 0
20, 38100, Note_on_c, 13, 65, 72
20, 38159, Note_on_c, 13, 65, 0
20, 38160, Note_on_c, 13, 67, 72
20, 38279, Note_on_c, 13, 67, 0
20, 38280, Note_on_c, 13, 65, 72
20, 38339, Note_on_c, 13, 65, 0
20, 38340, Note_on_c, 13, 64, 72
20, 38399, Note_on_c, 13, 64, 0
20, 38400, Note_on_c, 13, 65, 72
20, 38459, Note_on_c, 13, 65, 0
20, 38460, Note_on_c, 13, 53, 72
20, 38519, Note_on_c, 13, 53, 0
20, 38520, Note_on_c, 13, 58, 72
20, 38579, Note_on_c, 13, 58, 0
20, 38580, Note_on_c, 13, 55, 72
20, 38639, Note_on_c, 13, 55, 0
20, 38640, Note_on_c, 13, 60, 72
20, 38759, Note_on_c, 13, 60, 0
20, 39180, Note_on_c, 13, 55, 72
20, 39239, Note_on_c, 13, 55, 0
20, 39240, Note_on_c, 13, 55, 72
20, 39299, Note_on_c, 13, 55, 0
20, 39300, Note_on_c, 13, 55, 72
20, 39359, Note_on_c, 13, 55, 0
20, 39360, Note_on_c, 13, 56, 72
20, 39389, Note_on_c, 13, 56, 0
20, 39390, Note_on_c, 13, 58, 72
20, 39419, Note_on_c, 13, 58, 0
20, 39420, Note_on_c, 13, 56, 72
20, 39449, Note_on_c, 13, 56, 0
20, 39450, Note_on_c, 13, 55, 72
20, 39479, Note_on_c, 13, 55, 0
20, 39480, Note_on_c, 13, 57, 72
20, 39509, Note_on_c, 13, 57, 0
20, 39510, Note_on_c, 13, 58, 72
20, 39539, Note_on_c, 13, 58, 0
20, 39540, Note_on_c, 13, 55, 72
20, 39569, Note_on_c, 13, 55, 0
20, 39570, Note_on_c, 13, 57, 72
20, 39599, Note_on_c, 13, 57, 0
20, 39600, Note_on_c, 13, 58, 72
20, 39629, Note_on_c, 13, 58, 0
20, 39630, Note_on_c, 13, 60, 72
20, 39659, Note_on_c, 13, 60, 0
20, 39660, Note_on_c, 13, 58, 72
20, 39689, Note_on_c, 13, 58, 0
20, 39690, Note_on_c, 13, 57, 72
20, 39719, Note_on_c, 13, 57, 0
20, 39720, Note_on_c, 13, 59, 72
20, 39749, Note_on_c, 13, 59, 0
20, 39750, Note_on_c, 13, 60, 72
20, 39779, Note_on_c, 13, 60, 0
20, 39780, Note_on_c, 13, 57, 72
20, 39809, Note_on_c, 13, 57, 0
20, 39810, Note_on_c, 13, 59, 72
20, 39839, Note_on_c, 13, 59, 0
20, 39840, Note_on_c, 13, 60, 72
20, 39899, Note_on_c, 13, 60, 0
20, 39900, Note_on_c, 13, 55, 72
20, 39959, Note_on_c, 13, 55, 0
20, 39960, Note_on_c, 13, 60, 72
20, 40019, Note_on_c, 13, 60, 0
20, 40020, Note_on_c, 13, 58, 72
20, 40079, Note_on_c, 13, 58, 0
20, 40080, Note_on_c, 13, 57, 72
20, 40139, Note_on_c, 13, 57, 0
20, 40140, Note_on_c, 13, 50, 72
20, 40199, Note_on_c, 13, 50, 0
20, 40200, Note_on_c, 13, 62, 72
20, 40259, Note_on_c, 13, 62, 0
20, 40260, Note_on_c, 13, 60, 72
20, 40319, Note_on_c, 13, 60, 0
20, 40320, Note_on_c, 13, 58, 72
20, 40439, Note_on_c, 13, 58, 0
20, 40620, Note_on_c, 13, 55, 72
20, 40679, Note_on_c, 13, 55, 0
20, 40680, Note_on_c, 13, 55, 72
20, 40739, Note_on_c, 13, 55, 0
20, 40740, Note_on_c, 13, 57, 72
20, 40799, Note_on_c, 13, 57, 0
20, 40800, Note_on_c, 13, 57, 72
20, 40919, Note_on_c, 13, 57, 0
20, 40920, Note_on_c, 13, 57, 72
20, 41009, Note_on_c, 13, 57, 0
20, 41010, Note_on_c, 13, 57, 72
20, 41039, Note_on_c, 13, 57, 0
20, 41040, Note_on_c, 13, 59, 72
20, 41159, Note_on_c, 13, 59, 0
20, 41160, Note_on_c, 13, 59, 72
20, 41249, Note_on_c, 13, 59, 0
20, 41250, Note_on_c, 13, 59, 72
20, 41279, Note_on_c, 13, 59, 0
20, 41280, Note_on_c, 13, 61, 72
20, 41339, Note_on_c, 13, 61, 0
20, 41340, Note_on_c, 13, 57, 72
20, 41399, Note_on_c, 13, 57, 0
20, 41400, Note_on_c, 13, 59, 72
20, 41459, Note_on_c, 13, 59, 0
20, 41460, Note_on_c, 13, 61, 72
20, 41519, Note_on_c, 13, 61, 0
20, 41520, Note_on_c, 13, 62, 72
20, 41699, Note_on_c, 13, 62, 0
20, 41700, Note_on_c, 13, 62, 72
20, 41759, Note_on_c, 13, 62, 0
20, 41760, Note_on_c, 13, 64, 72
20, 41879, Note_on_c, 13, 64, 0
20, 41880, Note_on_c, 13, 57, 72
20, 42059, Note_on_c, 13, 57, 0
20, 42060, Note_on_c, 13, 53, 72
20, 42119, Note_on_c, 13, 53, 0
20, 42120, Note_on_c, 13, 58, 72
20, 42299, Note_on_c, 13, 58, 0
20, 42300, Note_on_c, 13, 55, 72
20, 42359, Note_on_c, 13, 55, 0
20, 42360, Note_on_c, 13, 64, 72
20, 42419, Note_on_c, 13, 64, 0
20, 42420, Note_on_c, 13, 64, 72
20, 42479, Note_on_c, 13, 64, 0
20, 42480, Note_on_c, 13, 62, 72
20, 42539, Note_on_c, 13, 62, 0
20, 42540, Note_on_c, 13, 61, 72
20, 42569, Note_on_c, 13, 61, 0
20, 42570, Note_on_c, 13, 62, 72
20, 42599, Note_on_c, 13, 62, 0
20, 42600, Note_on_c, 13, 64, 72
20, 42629, Note_on_c, 13, 64, 0
20, 42630, Note_on_c, 13, 65, 72
20, 42659, Note_on_c, 13, 65, 0
20, 42660, Note_on_c, 13, 67, 72
20, 42689, Note_on_c, 13, 67, 0
20, 42690, Note_on_c, 13, 65, 72
20, 42719, Note_on_c, 13, 65, 0
20, 42720, Note_on_c, 13, 64, 72
20, 42779, Note_on_c, 13, 64, 0
20, 42780, Note_on_c, 13, 62, 72
20, 42839, Note_on_c, 13, 62, 0
20, 42840, Note_on_c, 13, 61, 72
20, 42929, Note_on_c, 13, 61, 0
20, 42930, Note_on_c, 13, 62, 72
20, 42959, Note_on_c, 13, 62, 0
20, 42960, Note_on_c, 13, 64, 72
20, 43079, Note_on_c, 13, 64, 0
20, 43080, Note_on_c, 13, 57, 72
20, 43139, Note_on_c, 13, 57, 0
20, 43140, Note_on_c, 13, 60, 72
20, 43199, Note_on_c, 13, 60, 0
20, 43200, Note_on_c, 13, 62, 72
20, 43259, Note_on_c, 13, 62, 0
20, 43260, Note_on_c, 13, 65, 72
20, 43319, Note_on_c, 13, 65, 0
20, 43320, Note_on_c, 13, 64, 72
20, 43379, Note_on_c, 13, 64, 0
20, 43380, Note_on_c, 13, 62, 72
20, 43439, Note_on_c, 13, 62, 0
20, 43440, Note_on_c, 13, 64, 72
20, 43499, Note_on_c, 13, 64, 0
20, 43500, Note_on_c, 13, 57, 72
20, 43559, Note_on_c, 13, 57, 0
20, 43560, Note_on_c, 13, 59, 72
20, 43619, Note_on_c, 13, 59, 0
20, 43620, Note_on_c, 13, 61, 72
20, 43679, Note_on_c, 13, 61, 0
20, 43680, Note_on_c, 13, 62, 72
20, 43739, Note_on_c, 13, 62, 0
20, 43740, Note_on_c, 13, 50, 72
20, 43799, Note_on_c, 13, 50, 0
20, 43800, Note_on_c, 13, 55, 72
20, 43859, Note_on_c, 13, 55, 0
20, 43860, Note_on_c, 13, 52, 72
20, 43919, Note_on_c, 13, 52, 0
20, 43920, Note_on_c, 13, 57, 72
20, 43979, Note_on_c, 13, 57, 0
20, 43980, Note_on_c, 13, 58, 72
20, 44039, Note_on_c, 13, 58, 0
20, 44040, Note_on_c, 13, 57, 72
20, 44099, Note_on_c, 13, 57, 0
20, 44100, Note_on_c, 13, 55, 72
20, 44159, Note_on_c, 13, 55, 0
20, 44160, Note_on_c, 13, 53, 72
20, 44219, Note_on_c, 13, 53, 0
20, 44220, Note_on_c, 13, 50, 72
20, 44279, Note_on_c, 13, 50, 0
20, 44280, Note_on_c, 13, 55, 72
20, 44339, Note_on_c, 13, 55, 0
20, 44340, Note_on_c, 13, 53, 72
20, 44399, Note_on_c, 13, 53, 0
20, 44400, Note_on_c, 13, 52, 72
20, 44459, Note_on_c, 13, 52, 0
20, 44460, Note_on_c, 13, 48, 72
20, 44519, Note_on_c, 13, 48, 0
20, 44520, Note_on_c, 13, 57, 72
20, 44579, Note_on_c, 13, 57, 0
20, 44580, Note_on_c, 13, 57, 72
20, 44639, Note_on_c, 13, 57, 0
20, 44640, Note_on_c, 13, 53, 72
20, 44759, Note_on_c, 13, 53, 0
20, 44760, Note_on_c, 13, 62, 72
20, 44879, Note_on_c, 13, 62, 0
20, 44880, Note_on_c, 13, 55, 72
20, 44999, Note_on_c, 13, 55, 0
20, 45180, Note_on_c, 13, 57, 72
20, 45239, Note_on_c, 13, 57, 0
20, 45240, Note_on_c, 13, 62, 72
20, 45299, Note_on_c, 13, 62, 0
20, 45300, Note_on_c, 13, 60, 72
20, 45359, Note_on_c, 13, 60, 0
20, 45360, Note_on_c, 13, 59, 72
20, 45419, Note_on_c, 13, 59, 0
20, 45420, Note_on_c, 13, 59, 72
20, 45479, Note_on_c, 13, 59, 0
20, 45480, Note_on_c, 13, 64, 72
20, 45539, Note_on_c, 13, 64, 0
20, 45540, Note_on_c, 13, 62, 72
20, 45599, Note_on_c, 13, 62, 0
20, 45600, Note_on_c, 13, 60, 72
20, 45719, Note_on_c, 13, 60, 0
20, 45720, Note_on_c, 13, 62, 72
20, 45809, Note_on_c, 13, 62, 0
20, 45810, Note_on_c, 13, 62, 72
20, 45839, Note_on_c, 13, 62, 0
20, 45840, Note_on_c, 13, 62, 72
20, 45959, Note_on_c, 13, 62, 0
20, 45960, Note_on_c, 13, 64, 72
20, 46049, Note_on_c, 13, 64, 0
20, 46050, Note_on_c, 13, 64, 72
20, 46079, Note_on_c, 13, 64, 0
20, 46080, Note_on_c, 13, 64, 72
20, 46199, Note_on_c, 13, 64, 0
20, 46200, Note_on_c, 13, 62, 72
20, 46259, Note_on_c, 13, 62, 0
20, 46260, Note_on_c, 13, 65, 72
20, 46319, Note_on_c, 13, 65, 0
20, 46320, Note_on_c, 13, 64, 72
20, 46499, Note_on_c, 13, 64, 0
20, 46500, Note_on_c, 13, 64, 72
20, 46559, Note_on_c, 13, 64, 0
20, 46560, Note_on_c, 13, 65, 72
20, 46799, Note_on_c, 13, 65, 0
20, 46920, Note_on_c, 13, 65, 72
20, 47009, Note_on_c, 13, 65, 0
20, 47010, Note_on_c, 13, 65, 72
20, 47039, Note_on_c, 13, 65, 0
20, 47040, Note_on_c, 13, 64, 72
20, 47159, Note_on_c, 13, 64, 0
20, 47160, Note_on_c, 13, 65, 72
20, 47279, Note_on_c, 13, 65, 0
20, 47280, Note_on_c, 13, 65, 72
20, 47399, Note_on_c, 13, 65, 0
20, 47400, Note_on_c, 13, 64, 72
20, 47519, Note_on_c, 13, 64, 0
20, 47520, Note_on_c, 13, 62, 72
20, 47999, Note_on_c, 13, 62, 0
20, 47999, End_track
21, 0, Start_track
21, 0, Title_t, "Bass"
21, 0, Program_c, 14, 52
21, 0, Control_c, 14, 7, 127
21, 0, Control_c, 14, 10, 80
21, 0, Control_c, 14, 11, 127
21, 3480, Note_on_c, 14, 50, 72
21, 3659, Note_on_c, 14, 50, 0
21, 3660, Note_on_c, 14, 50, 72
21, 3719, Note_on_c, 14, 50, 0
21, 3720, Note_on_c, 14, 49, 72
21, 3779, Note_on_c, 14, 49, 0
21, 3780, Note_on_c, 14, 49, 72
21, 3839, Note_on_c, 14, 49, 0
21, 3840, Note_on_c, 14, 50, 72
21, 3959, Note_on_c, 14, 50, 0
21, 3960, Note_on_c, 14, 52, 72
21, 4079, Note_on_c, 14, 52, 0
21, 4080, Note_on_c, 14, 53, 72
21, 4199, Note_on_c, 14, 53, 0
21, 4200, Note_on_c, 14, 52, 72
21, 4319, Note_on_c, 14, 52, 0
21, 4320, Note_on_c, 14, 50, 72
21, 4439, Note_on_c, 14, 50, 0
21, 4440, Note_on_c, 14, 52, 72
21, 4559, Note_on_c, 14, 52, 0
21, 4560, Note_on_c, 14, 53, 72
21, 4619, Note_on_c, 14, 53, 0
21, 4620, Note_on_c, 14, 52, 72
21, 4679, Note_on_c, 14, 52, 0
21, 4680, Note_on_c, 14, 50, 72
21, 4739, Note_on_c, 14, 50, 0
21, 4740, Note_on_c, 14, 55, 72
21, 4799, Note_on_c, 14, 55, 0
21, 4800, Note_on_c, 14, 48, 72
21, 4919, Note_on_c, 14, 48, 0
21, 4920, Note_on_c, 14, 50, 72
21, 5039, Note_on_c, 14, 50, 0
21, 5040, Note_on_c, 14, 55, 72
21, 5159, Note_on_c, 14, 55, 0
21, 5160, Note_on_c, 14, 48, 72
21, 5279, Note_on_c, 14, 48, 0
21, 5280, Note_on_c, 14, 53, 72
21, 5339, Note_on_c, 14, 53, 0
21, 5340, Note_on_c, 14, 53, 72
21, 5399, Note_on_c, 14, 53, 0
21, 5400, Note_on_c, 14, 58, 72
21, 5459, Note_on_c, 14, 58, 0
21, 5460, Note_on_c, 14, 57, 72
21, 5519, Note_on_c, 14, 57, 0
21, 5520, Note_on_c, 14, 55, 72
21, 5579, Note_on_c, 14, 55, 0
21, 5580, Note_on_c, 14, 53, 72
21, 5609, Note_on_c, 14, 53, 0
21, 5610, Note_on_c, 14, 52, 72
21, 5639, Note_on_c, 14, 52, 0
21, 5640, Note_on_c, 14, 57, 72
21, 5699, Note_on_c, 14, 57, 0
21, 5700, Note_on_c, 14, 55, 72
21, 5759, Note_on_c, 14, 55, 0
21, 5760, Note_on_c, 14, 53, 72
21, 5819, Note_on_c, 14, 53, 0
21, 5820, Note_on_c, 14, 52, 72
21, 5879, Note_on_c, 14, 52, 0
21, 5880, Note_on_c, 14, 50, 72
21, 5939, Note_on_c, 14, 50, 0
21, 5940, Note_on_c, 14, 49, 72
21, 5999, Note_on_c, 14, 49, 0
21, 6000, Note_on_c, 14, 50, 72
21, 6059, Note_on_c, 14, 50, 0
21, 6060, Note_on_c, 14, 50, 72
21, 6119, Note_on_c, 14, 50, 0
21, 6120, Note_on_c, 14, 48, 72
21, 6179, Note_on_c, 14, 48, 0
21, 6180, Note_on_c, 14, 48, 72
21, 6239, Note_on_c, 14, 48, 0
21, 6240, Note_on_c, 14, 46, 72
21, 6299, Note_on_c, 14, 46, 0
21, 6300, Note_on_c, 14, 46, 72
21, 6359, Note_on_c, 14, 46, 0
21, 6360, Note_on_c, 14, 58, 72
21, 6449, Note_on_c, 14, 58, 0
21, 6450, Note_on_c, 14, 58, 72
21, 6479, Note_on_c, 14, 58, 0
21, 6480, Note_on_c, 14, 57, 72
21, 6599, Note_on_c, 14, 57, 0
21, 6780, Note_on_c, 14, 53, 72
21, 6839, Note_on_c, 14, 53, 0
21, 6840, Note_on_c, 14, 53, 72
21, 6899, Note_on_c, 14, 53, 0
21, 6900, Note_on_c, 14, 53, 72
21, 6959, Note_on_c, 14, 53, 0
21, 6960, Note_on_c, 14, 53, 72
21, 7049, Note_on_c, 14, 53, 0
21, 7050, Note_on_c, 14, 53, 72
21, 7079, Note_on_c, 14, 53, 0
21, 7080, Note_on_c, 14, 53, 72
21, 7199, Note_on_c, 14, 53, 0
21, 7260, Note_on_c, 14, 53, 72
21, 7319, Note_on_c, 14, 53, 0
21, 7320, Note_on_c, 14, 53, 72
21, 7379, Note_on_c, 14, 53, 0
21, 7380, Note_on_c, 14, 53, 72
21, 7439, Note_on_c, 14, 53, 0
21, 7440, Note_on_c, 14, 53, 72
21, 7529, Note_on_c, 14, 53, 0
21, 7530, Note_on_c, 14, 53, 72
21, 7559, Note_on_c, 14, 53, 0
21, 7560, Note_on_c, 14, 53, 72
21, 7679, Note_on_c, 14, 53, 0
21, 7680, Note_on_c, 14, 51, 72
21, 7769, Note_on_c, 14, 51, 0
21, 7770, Note_on_c, 14, 51, 72
21, 7799, Note_on_c, 14, 51, 0
21, 7800, Note_on_c, 14, 50, 72
21, 7919, Note_on_c, 14, 50, 0
21, 8160, Note_on_c, 14, 51, 48
21, 8279, Note_on_c, 14, 51, 0
21, 8280, Note_on_c, 14, 52, 48
21, 8339, Note_on_c, 14, 52, 0
21, 8340, Note_on_c, 14, 52, 48
21, 8399, Note_on_c, 14, 52, 0
21, 8400, Note_on_c, 14, 53, 48
21, 8639, Note_on_c, 14, 53, 0
21, 8640, Note_on_c, 14, 46, 48
21, 8759, Note_on_c, 14, 46, 0
21, 12180, Note_on_c, 14, 55, 72
21, 12239, Note_on_c, 14, 55, 0
21, 12240, Note_on_c, 14, 57, 72
21, 12299, Note_on_c, 14, 57, 0
21, 12300, Note_on_c, 14, 57, 72
21, 12359, Note_on_c, 14, 57, 0
21, 12420, Note_on_c, 14, 57, 72
21, 12479, Note_on_c, 14, 57, 0
21, 12480, Note_on_c, 14, 58, 72
21, 12539, Note_on_c, 14, 58, 0
21, 12540, Note_on_c, 14, 46, 72
21, 12599, Note_on_c, 14, 46, 0
21, 12660, Note_on_c, 14, 58, 72
21, 12719, Note_on_c, 14, 58, 0
21, 12720, Note_on_c, 14, 54, 72
21, 12839, Note_on_c, 14, 54, 0
21, 12840, Note_on_c, 14, 54, 72
21, 12899, Note_on_c, 14, 54, 0
21, 12900, Note_on_c, 14, 54, 72
21, 12959, Note_on_c, 14, 54, 0
21, 12960, Note_on_c, 14, 55, 72
21, 13019, Note_on_c, 14, 55, 0
21, 13020, Note_on_c, 14, 55, 72
21, 13049, Note_on_c, 14, 55, 0
21, 13050, Note_on_c, 14, 55, 72
21, 13079, Note_on_c, 14, 55, 0
21, 13080, Note_on_c, 14, 55, 72
21, 13139, Note_on_c, 14, 55, 0
21, 13140, Note_on_c, 14, 55, 72
21, 13199, Note_on_c, 14, 55, 0
21, 13200, Note_on_c, 14, 48, 72
21, 13259, Note_on_c, 14, 48, 0
21, 13260, Note_on_c, 14, 50, 72
21, 13304, Note_on_c, 14, 50, 0
21, 13305, Note_on_c, 14, 51, 72
21, 13319, Note_on_c, 14, 51, 0
21, 13320, Note_on_c, 14, 53, 72
21, 13439, Note_on_c, 14, 53, 0
21, 13440, Note_on_c, 14, 46, 72
21, 13559, Note_on_c, 14, 46, 0
21, 13620, Note_on_c, 14, 58, 72
21, 13679, Note_on_c, 14, 58, 0
21, 13680, Note_on_c, 14, 55, 72
21, 13799, Note_on_c, 14, 55, 0
21, 13860, Note_on_c, 14, 55, 72
21, 13919, Note_on_c, 14, 55, 0
21, 13920, Note_on_c, 14, 52, 72
21, 14039, Note_on_c, 14, 52, 0
21, 14040, Note_on_c, 14, 52, 72
21, 14099, Note_on_c, 14, 52, 0
21, 14100, Note_on_c, 14, 52, 72
21, 14159, Note_on_c, 14, 52, 0
21, 14160, Note_on_c, 14, 51, 72
21, 14219, Note_on_c, 14, 51, 0
21, 14220, Note_on_c, 14, 51, 72
21, 14279, Note_on_c, 14, 51, 0
21, 14280, Note_on_c, 14, 51, 72
21, 14339, Note_on_c, 14, 51, 0
21, 14340, Note_on_c, 14, 51, 72
21, 14399, Note_on_c, 14, 51, 0
21, 14400, Note_on_c, 14, 50, 72
21, 14519, Note_on_c, 14, 50, 0
21, 14520, Note_on_c, 14, 49, 72
21, 14639, Note_on_c, 14, 49, 0
21, 14640, Note_on_c, 14, 50, 72
21, 14819, Note_on_c, 14, 50, 0
21, 14820, Note_on_c, 14, 50, 72
21, 14879, Note_on_c, 14, 50, 0
21, 14880, Note_on_c, 14, 50, 72
21, 14999, Note_on_c, 14, 50, 0
21, 15960, Note_on_c, 14, 50, 72
21, 16139, Note_on_c, 14, 50, 0
21, 16140, Note_on_c, 14, 50, 72
21, 16199, Note_on_c, 14, 50, 0
21, 16200, Note_on_c, 14, 49, 72
21, 16259, Note_on_c, 14, 49, 0
21, 16260, Note_on_c, 14, 49, 72
21, 16319, Note_on_c, 14, 49, 0
21, 16320, Note_on_c, 14, 50, 72
21, 16439, Note_on_c, 14, 50, 0
21, 16440, Note_on_c, 14, 52, 72
21, 16559, Note_on_c, 14, 52, 0
21, 16560, Note_on_c, 14, 53, 72
21, 16679, Note_on_c, 14, 53, 0
21, 16680, Note_on_c, 14, 50, 72
21, 16799, Note_on_c, 14, 50, 0
21, 16800, Note_on_c, 14, 52, 72
21, 16919, Note_on_c, 14, 52, 0
21, 17340, Note_on_c, 14, 57, 72
21, 17399, Note_on_c, 14, 57, 0
21, 17400, Note_on_c, 14, 54, 72
21, 17459, Note_on_c, 14, 54, 0
21, 17460, Note_on_c, 14, 50, 72
21, 17519, Note_on_c, 14, 50, 0
21, 17520, Note_on_c, 14, 55, 72
21, 17609, Note_on_c, 14, 55, 0
21, 17610, Note_on_c, 14, 57, 72
21, 17639, Note_on_c, 14, 57, 0
21, 17640, Note_on_c, 14, 58, 72
21, 17699, Note_on_c, 14, 58, 0
21, 17700, Note_on_c, 14, 55, 72
21, 17759, Note_on_c, 14, 55, 0
21, 17760, Note_on_c, 14, 62, 72
21, 17819, Note_on_c, 14, 62, 0
21, 17820, Note_on_c, 14, 50, 72
21, 17879, Note_on_c, 14, 50, 0
21, 18060, Note_on_c, 14, 55, 72
21, 18179, Note_on_c, 14, 55, 0
21, 18180, Note_on_c, 14, 54, 72
21, 18239, Note_on_c, 14, 54, 0
21, 18240, Note_on_c, 14, 55, 72
21, 18329, Note_on_c, 14, 55, 0
21, 18330, Note_on_c, 14, 43, 72
21, 18359, Note_on_c, 14, 43, 0
21, 18360, Note_on_c, 14, 43, 72
21, 18479, Note_on_c, 14, 43, 0
21, 18780, Note_on_c, 14, 60, 72
21, 18869, Note_on_c, 14, 60, 0
21, 18870, Note_on_c, 14, 62, 72
21, 18899, Note_on_c, 14, 62, 0
21, 18900, Note_on_c, 14, 60, 72
21, 18929, Note_on_c, 14, 60, 0
21, 18930, Note_on_c, 14, 58, 72
21, 18959, Note_on_c, 14, 58, 0
21, 18960, Note_on_c, 14, 57, 72
21, 18989, Note_on_c, 14, 57, 0
21, 18990, Note_on_c, 14, 60, 72
21, 19019, Note_on_c, 14, 60, 0
21, 19020, Note_on_c, 14, 58, 72
21, 19049, Note_on_c, 14, 58, 0
21, 19050, Note_on_c, 14, 57, 72
21, 19079, Note_on_c, 14, 57, 0
21, 19080, Note_on_c, 14, 55, 72
21, 19109, Note_on_c, 14, 55, 0
21, 19110, Note_on_c, 14, 58, 72
21, 19139, Note_on_c, 14, 58, 0
21, 19140, Note_on_c, 14, 57, 72
21, 19169, Note_on_c, 14, 57, 0
21, 19170, Note_on_c, 14, 55, 72
21, 19199, Note_on_c, 14, 55, 0
21, 19200, Note_on_c, 14, 53, 72
21, 19229, Note_on_c, 14, 53, 0
21, 19230, Note_on_c, 14, 55, 72
21, 19259, Note_on_c, 14, 55, 0
21, 19260, Note_on_c, 14, 57, 72
21, 19349, Note_on_c, 14, 57, 0
21, 19350, Note_on_c, 14, 58, 72
21, 19379, Note_on_c, 14, 58, 0
21, 19380, Note_on_c, 14, 57, 72
21, 19409, Note_on_c, 14, 57, 0
21, 19410, Note_on_c, 14, 55, 72
21, 19439, Note_on_c, 14, 55, 0
21, 19440, Note_on_c, 14, 53, 72
21, 19469, Note_on_c, 14, 53, 0
21, 19470, Note_on_c, 14, 57, 72
21, 19499, Note_on_c, 14, 57, 0
21, 19500, Note_on_c, 14, 55, 72
21, 19529, Note_on_c, 14, 55, 0
21, 19530, Note_on_c, 14, 53, 72
21, 19559, Note_on_c, 14, 53, 0
21, 19560, Note_on_c, 14, 52, 72
21, 19589, Note_on_c, 14, 52, 0
21, 19590, Note_on_c, 14, 55, 72
21, 19619, Note_on_c, 14, 55, 0
21, 19620, Note_on_c, 14, 53, 72
21, 19649, Note_on_c, 14, 53, 0
21, 19650, Note_on_c, 14, 52, 72
21, 19679, Note_on_c, 14, 52, 0
21, 19680, Note_on_c, 14, 50, 72
21, 19709, Note_on_c, 14, 50, 0
21, 19710, Note_on_c, 14, 51, 72
21, 19739, Note_on_c, 14, 51, 0
21, 19740, Note_on_c, 14, 53, 72
21, 19829, Note_on_c, 14, 53, 0
21, 19830, Note_on_c, 14, 55, 72
21, 19859, Note_on_c, 14, 55, 0
21, 19860, Note_on_c, 14, 53, 72
21, 19889, Note_on_c, 14, 53, 0
21, 19890, Note_on_c, 14, 52, 72
21, 19919, Note_on_c, 14, 52, 0
21, 19920, Note_on_c, 14, 50, 72
21, 19949, Note_on_c, 14, 50, 0
21, 19950, Note_on_c, 14, 53, 72
21, 19979, Note_on_c, 14, 53, 0
21, 19980, Note_on_c, 14, 52, 72
21, 20009, Note_on_c, 14, 52, 0
21, 20010, Note_on_c, 14, 50, 72
21, 20039, Note_on_c, 14, 50, 0
21, 20040, Note_on_c, 14, 48, 72
21, 20069, Note_on_c, 14, 48, 0
21, 20070, Note_on_c, 14, 52, 72
21, 20099, Note_on_c, 14, 52, 0
21, 20100, Note_on_c, 14, 50, 72
21, 20129, Note_on_c, 14, 50, 0
21, 20130, Note_on_c, 14, 48, 72
21, 20159, Note_on_c, 14, 48, 0
21, 20160, Note_on_c, 14, 46, 72
21, 20279, Note_on_c, 14, 46, 0
21, 20460, Note_on_c, 14, 58, 72
21, 20519, Note_on_c, 14, 58, 0
21, 20520, Note_on_c, 14, 58, 72
21, 20579, Note_on_c, 14, 58, 0
21, 20580, Note_on_c, 14, 58, 72
21, 20639, Note_on_c, 14, 58, 0
21, 20640, Note_on_c, 14, 57, 72
21, 20729, Note_on_c, 14, 57, 0
21, 20730, Note_on_c, 14, 57, 72
21, 20759, Note_on_c, 14, 57, 0
21, 20760, Note_on_c, 14, 57, 72
21, 20879, Note_on_c, 14, 57, 0
21, 20940, Note_on_c, 14, 57, 72
21, 20999, Note_on_c, 14, 57, 0
21, 21000, Note_on_c, 14, 57, 72
21, 21059, Note_on_c, 14, 57, 0
21, 21060, Note_on_c, 14, 57, 72
21, 21119, Note_on_c, 14, 57, 0
21, 21120, Note_on_c, 14, 56, 72
21, 21209, Note_on_c, 14, 56, 0
21, 21210, Note_on_c, 14, 56, 72
21, 21239, Note_on_c, 14, 56, 0
21, 21240, Note_on_c, 14, 56, 72
21, 21359, Note_on_c, 14, 56, 0
21, 21360, Note_on_c, 14, 56, 72
21, 21479, Note_on_c, 14, 56, 0
21, 21480, Note_on_c, 14, 56, 72
21, 21539, Note_on_c, 14, 56, 0
21, 21540, Note_on_c, 14, 56, 72
21, 21599, Note_on_c, 14, 56, 0
21, 21600, Note_on_c, 14, 57, 72
21, 21659, Note_on_c, 14, 57, 0
21, 21660, Note_on_c, 14, 57, 72
21, 21719, Note_on_c, 14, 57, 0
21, 21780, Note_on_c, 14, 57, 48
21, 21839, Note_on_c, 14, 57, 0
21, 21840, Note_on_c, 14, 50, 48
21, 21959, Note_on_c, 14, 50, 0
21, 21960, Note_on_c, 14, 49, 48
21, 22079, Note_on_c, 14, 49, 0
21, 22080, Note_on_c, 14, 50, 48
21, 22169, Note_on_c, 14, 50, 0
21, 22170, Note_on_c, 14, 50, 48
21, 22199, Note_on_c, 14, 50, 0
21, 22200, Note_on_c, 14, 48, 48
21, 22319, Note_on_c, 14, 48, 0
21, 22320, Note_on_c, 14, 47, 48
21, 22439, Note_on_c, 14, 47, 0
21, 22440, Note_on_c, 14, 46, 48
21, 22499, Note_on_c, 14, 46, 0
21, 22500, Note_on_c, 14, 46, 48
21, 22559, Note_on_c, 14, 46, 0
21, 22560, Note_on_c, 14, 45, 48
21, 22799, Note_on_c, 14, 45, 0
21, 22800, Note_on_c, 14, 45, 48
21, 23039, Note_on_c, 14, 45, 0
21, 23040, Note_on_c, 14, 57, 72
21, 23219, Note_on_c, 14, 57, 0
21, 23220, Note_on_c, 14, 57, 72
21, 23279, Note_on_c, 14, 57, 0
21, 23280, Note_on_c, 14, 53, 72
21, 23399, Note_on_c, 14, 53, 0
21, 23400, Note_on_c, 14, 58, 72
21, 23519, Note_on_c, 14, 58, 0
21, 23520, Note_on_c, 14, 49, 72
21, 23699, Note_on_c, 14, 49, 0
21, 23700, Note_on_c, 14, 49, 72
21, 23759, Note_on_c, 14, 49, 0
21, 23760, Note_on_c, 14, 50, 72
21, 23879, Note_on_c, 14, 50, 0
21, 23940, Note_on_c, 14, 50, 72
21, 23999, Note_on_c, 14, 50, 0
21, 24000, Note_on_c, 14, 52, 72
21, 24179, Note_on_c, 14, 52, 0
21, 24180, Note_on_c, 14, 50, 72
21, 24209, Note_on_c, 14, 50, 0
21, 24210, Note_on_c, 14, 52, 72
21, 24239, Note_on_c, 14, 52, 0
21, 24240, Note_on_c, 14, 53, 72
21, 24299, Note_on_c, 14, 53, 0
21, 24300, Note_on_c, 14, 52, 72
21, 24329, Note_on_c, 14, 52, 0
21, 24330, Note_on_c, 14, 53, 72
21, 24359, Note_on_c, 14, 53, 0
21, 24360, Note_on_c, 14, 55, 72
21, 24419, Note_on_c, 14, 55, 0
21, 24420, Note_on_c, 14, 53, 72
21, 24449, Note_on_c, 14, 53, 0
21, 24450, Note_on_c, 14, 55, 72
21, 24479, Note_on_c, 14, 55, 0
21, 24480, Note_on_c, 14, 57, 72
21, 24539, Note_on_c, 14, 57, 0
21, 24540, Note_on_c, 14, 55, 72
21, 24599, Note_on_c, 14, 55, 0
21, 24600, Note_on_c, 14, 53, 72
21, 24659, Note_on_c, 14, 53, 0
21, 24660, Note_on_c, 14, 52, 72
21, 24719, Note_on_c, 14, 52, 0
21, 24720, Note_on_c, 14, 50, 72
21, 24779, Note_on_c, 14, 50, 0
21, 24780, Note_on_c, 14, 48, 72
21, 24839, Note_on_c, 14, 48, 0
21, 24840, Note_on_c, 14, 47, 72
21, 24899, Note_on_c, 14, 47, 0
21, 24900, Note_on_c, 14, 52, 72
21, 24959, Note_on_c, 14, 52, 0
21, 24960, Note_on_c, 14, 45, 72
21, 25019, Note_on_c, 14, 45, 0
21, 25020, Note_on_c, 14, 53, 72
21, 25049, Note_on_c, 14, 53, 0
21, 25050, Note_on_c, 14, 52, 72
21, 25079, Note_on_c, 14, 52, 0
21, 25080, Note_on_c, 14, 50, 72
21, 25109, Note_on_c, 14, 50, 0
21, 25110, Note_on_c, 14, 47, 72
21, 25139, Note_on_c, 14, 47, 0
21, 25140, Note_on_c, 14, 48, 72
21, 25169, Note_on_c, 14, 48, 0
21, 25170, Note_on_c, 14, 50, 72
21, 25199, Note_on_c, 14, 50, 0
21, 25200, Note_on_c, 14, 52, 72
21, 25319, Note_on_c, 14, 52, 0
21, 25380, Note_on_c, 14, 52, 72
21, 25439, Note_on_c, 14, 52, 0
21, 25440, Note_on_c, 14, 57, 72
21, 25499, Note_on_c, 14, 57, 0
21, 25500, Note_on_c, 14, 45, 72
21, 25559, Note_on_c, 14, 45, 0
21, 25560, Note_on_c, 14, 57, 72
21, 25799, Note_on_c, 14, 57, 0
21, 25800, Note_on_c, 14, 55, 72
21, 25829, Note_on_c, 14, 55, 0
21, 25830, Note_on_c, 14, 53, 72
21, 25859, Note_on_c, 14, 53, 0
21, 25860, Note_on_c, 14, 52, 72
21, 25889, Note_on_c, 14, 52, 0
21, 25890, Note_on_c, 14, 50, 72
21, 25919, Note_on_c, 14, 50, 0
21, 25920, Note_on_c, 14, 48, 72
21, 26039, Note_on_c, 14, 48, 0
21, 26040, Note_on_c, 14, 47, 72
21, 26099, Note_on_c, 14, 47, 0
21, 26100, Note_on_c, 14, 53, 72
21, 26159, Note_on_c, 14, 53, 0
21, 26160, Note_on_c, 14, 52, 72
21, 26249, Note_on_c, 14, 52, 0
21, 26250, Note_on_c, 14, 54, 72
21, 26279, Note_on_c, 14, 54, 0
21, 26280, Note_on_c, 14, 56, 72
21, 26309, Note_on_c, 14, 56, 0
21, 26310, Note_on_c, 14, 57, 72
21, 26339, Note_on_c, 14, 57, 0
21, 26340, Note_on_c, 14, 54, 72
21, 26369, Note_on_c, 14, 54, 0
21, 26370, Note_on_c, 14, 56, 72
21, 26399, Note_on_c, 14, 56, 0
21, 26400, Note_on_c, 14, 57, 72
21, 26459, Note_on_c, 14, 57, 0
21, 26460, Note_on_c, 14, 45, 72
21, 26519, Note_on_c, 14, 45, 0
21, 26520, Note_on_c, 14, 47, 72
21, 26579, Note_on_c, 14, 47, 0
21, 26580, Note_on_c, 14, 49, 72
21, 26639, Note_on_c, 14, 49, 0
21, 26640, Note_on_c, 14, 50, 72
21, 26759, Note_on_c, 14, 50, 0
21, 26940, Note_on_c, 14, 52, 72
21, 26999, Note_on_c, 14, 52, 0
21, 27000, Note_on_c, 14, 52, 72
21, 27059, Note_on_c, 14, 52, 0
21, 27060, Note_on_c, 14, 52, 72
21, 27119, Note_on_c, 14, 52, 0
21, 27120, Note_on_c, 14, 53, 72
21, 27149, Note_on_c, 14, 53, 0
21, 27150, Note_on_c, 14, 55, 72
21, 27179, Note_on_c, 14, 55, 0
21, 27180, Note_on_c, 14, 53, 72
21, 27209, Note_on_c, 14, 53, 0
21, 27210, Note_on_c, 14, 52, 72
21, 27239, Note_on_c, 14, 52, 0
21, 27240, Note_on_c, 14, 53, 72
21, 27269, Note_on_c, 14, 53, 0
21, 27270, Note_on_c, 14, 55, 72
21, 27299, Note_on_c, 14, 55, 0
21, 27300, Note_on_c, 14, 52, 72
21, 27329, Note_on_c, 14, 52, 0
21, 27330, Note_on_c, 14, 53, 72
21, 27359, Note_on_c, 14, 53, 0
21, 27360, Note_on_c, 14, 55, 72
21, 27389, Note_on_c, 14, 55, 0
21, 27390, Note_on_c, 14, 57, 72
21, 27419, Note_on_c, 14, 57, 0
21, 27420, Note_on_c, 14, 55, 72
21, 27449, Note_on_c, 14, 55, 0
21, 27450, Note_on_c, 14, 53, 72
21, 27479, Note_on_c, 14, 53, 0
21, 27480, Note_on_c, 14, 55, 72
21, 27509, Note_on_c, 14, 55, 0
21, 27510, Note_on_c, 14, 57, 72
21, 27539, Note_on_c, 14, 57, 0
21, 27540, Note_on_c, 14, 53, 72
21, 27569, Note_on_c, 14, 53, 0
21, 27570, Note_on_c, 14, 55, 72
21, 27599, Note_on_c, 14, 55, 0
21, 27600, Note_on_c, 14, 57, 72
21, 27659, Note_on_c, 14, 57, 0
21, 27660, Note_on_c, 14, 58, 72
21, 27689, Note_on_c, 14, 58, 0
21, 27690, Note_on_c, 14, 57, 72
21, 27719, Note_on_c, 14, 57, 0
21, 27720, Note_on_c, 14, 55, 72
21, 27749, Note_on_c, 14, 55, 0
21, 27750, Note_on_c, 14, 53, 72
21, 27779, Note_on_c, 14, 53, 0
21, 27780, Note_on_c, 14, 52, 72
21, 27809, Note_on_c, 14, 52, 0
21, 27810, Note_on_c, 14, 50, 72
21, 27839, Note_on_c, 14, 50, 0
21, 27840, Note_on_c, 14, 49, 72
21, 27899, Note_on_c, 14, 49, 0
21, 27900, Note_on_c, 14, 52, 72
21, 27959, Note_on_c, 14, 52, 0
21, 27960, Note_on_c, 14, 57, 72
21, 28019, Note_on_c, 14, 57, 0
21, 28020, Note_on_c, 14, 55, 72
21, 28079, Note_on_c, 14, 55, 0
21, 28080, Note_on_c, 14, 53, 72
21, 28109, Note_on_c, 14, 53, 0
21, 28110, Note_on_c, 14, 52, 72
21, 28139, Note_on_c, 14, 52, 0
21, 28140, Note_on_c, 14, 50, 72
21, 28169, Note_on_c, 14, 50, 0
21, 28170, Note_on_c, 14, 48, 72
21, 28199, Note_on_c, 14, 48, 0
21, 28200, Note_on_c, 14, 47, 72
21, 28319, Note_on_c, 14, 47, 0
21, 28320, Note_on_c, 14, 48, 72
21, 28439, Note_on_c, 14, 48, 0
21, 28440, Note_on_c, 14, 50, 72
21, 28559, Note_on_c, 14, 50, 0
21, 28560, Note_on_c, 14, 52, 72
21, 28679, Note_on_c, 14, 52, 0
21, 28740, Note_on_c, 14, 52, 72
21, 28799, Note_on_c, 14, 52, 0
21, 28800, Note_on_c, 14, 57, 72
21, 28949, Note_on_c, 14, 57, 0
21, 28950, Note_on_c, 14, 55, 72
21, 28979, Note_on_c, 14, 55, 0
21, 28980, Note_on_c, 14, 53, 72
21, 29009, Note_on_c, 14, 53, 0
21, 29010, Note_on_c, 14, 52, 72
21, 29039, Note_on_c, 14, 52, 0
21, 29040, Note_on_c, 14, 53, 72
21, 29099, Note_on_c, 14, 53, 0
21, 29100, Note_on_c, 14, 50, 72
21, 29159, Note_on_c, 14, 50, 0
21, 29160, Note_on_c, 14, 55, 72
21, 29279, Note_on_c, 14, 55, 0
21, 29280, Note_on_c, 14, 48, 72
21, 29339, Note_on_c, 14, 48, 0
21, 29340, Note_on_c, 14, 45, 72
21, 29399, Note_on_c, 14, 45, 0
21, 29400, Note_on_c, 14, 53, 72
21, 29489, Note_on_c, 14, 53, 0
21, 29490, Note_on_c, 14, 53, 72
21, 29519, Note_on_c, 14, 53, 0
21, 29520, Note_on_c, 14, 52, 72
21, 29639, Note_on_c, 14, 52, 0
21, 29820, Note_on_c, 14, 57, 72
21, 29849, Note_on_c, 14, 57, 0
21, 29850, Note_on_c, 14, 55, 72
21, 29879, Note_on_c, 14, 55, 0
21, 29880, Note_on_c, 14, 53, 72
21, 29939, Note_on_c, 14, 53, 0
21, 29940, Note_on_c, 14, 51, 72
21, 29999, Note_on_c, 14, 51, 0
21, 30000, Note_on_c, 14, 50, 72
21, 30119, Note_on_c, 14, 50, 0
21, 30300, Note_on_c, 14, 55, 72
21, 30329, Note_on_c, 14, 55, 0
21, 30330, Note_on_c, 14, 53, 72
21, 30359, Note_on_c, 14, 53, 0
21, 30360, Note_on_c, 14, 52, 72
21, 30419, Note_on_c, 14, 52, 0
21, 30420, Note_on_c, 14, 50, 72
21, 30479, Note_on_c, 14, 50, 0
21, 30480, Note_on_c, 14, 48, 72
21, 30599, Note_on_c, 14, 48, 0
21, 30600, Note_on_c, 14, 50, 72
21, 30659, Note_on_c, 14, 50, 0
21, 30660, Note_on_c, 14, 52, 72
21, 30719, Note_on_c, 14, 52, 0
21, 30720, Note_on_c, 14, 53, 72
21, 30839, Note_on_c, 14, 53, 0
21, 31020, Note_on_c, 14, 48, 72
21, 31079, Note_on_c, 14, 48, 0
21, 31080, Note_on_c, 14, 48, 72
21, 31139, Note_on_c, 14, 48, 0
21, 31140, Note_on_c, 14, 48, 72
21, 31199, Note_on_c, 14, 48, 0
21, 31200, Note_on_c, 14, 50, 72
21, 31229, Note_on_c, 14, 50, 0
21, 31230, Note_on_c, 14, 52, 72
21, 31259, Note_on_c, 14, 52, 0
21, 31260, Note_on_c, 14, 50, 72
21, 31289, Note_on_c, 14, 50, 0
21, 31290, Note_on_c, 14, 48, 72
21, 31319, Note_on_c, 14, 48, 0
21, 31320, Note_on_c, 14, 50, 72
21, 31349, Note_on_c, 14, 50, 0
21, 31350, Note_on_c, 14, 52, 72
21, 31379, Note_on_c, 14, 52, 0
21, 31380, Note_on_c, 14, 48, 72
21, 31409, Note_on_c, 14, 48, 0
21, 31410, Note_on_c, 14, 50, 72
21, 31439, Note_on_c, 14, 50, 0
21, 31440, Note_on_c, 14, 52, 72
21, 31469, Note_on_c, 14, 52, 0
21, 31470, Note_on_c, 14, 53, 72
21, 31499, Note_on_c, 14, 53, 0
21, 31500, Note_on_c, 14, 52, 72
21, 31529, Note_on_c, 14, 52, 0
21, 31530, Note_on_c, 14, 50, 72
21, 31559, Note_on_c, 14, 50, 0
21, 31560, Note_on_c, 14, 52, 72
21, 31589, Note_on_c, 14, 52, 0
21, 31590, Note_on_c, 14, 53, 72
21, 31619, Note_on_c, 14, 53, 0
21, 31620, Note_on_c, 14, 50, 72
21, 31649, Note_on_c, 14, 50, 0
21, 31650, Note_on_c, 14, 52, 72
21, 31679, Note_on_c, 14, 52, 0
21, 31680, Note_on_c, 14, 53, 72
21, 31739, Note_on_c, 14, 53, 0
21, 31740, Note_on_c, 14, 55, 72
21, 31769, Note_on_c, 14, 55, 0
21, 31770, Note_on_c, 14, 53, 72
21, 31799, Note_on_c, 14, 53, 0
21, 31800, Note_on_c, 14, 52, 72
21, 31829, Note_on_c, 14, 52, 0
21, 31830, Note_on_c, 14, 50, 72
21, 31859, Note_on_c, 14, 50, 0
21, 31860, Note_on_c, 14, 48, 72
21, 31889, Note_on_c, 14, 48, 0
21, 31890, Note_on_c, 14, 46, 72
21, 31919, Note_on_c, 14, 46, 0
21, 31920, Note_on_c, 14, 45, 72
21, 31979, Note_on_c, 14, 45, 0
21, 31980, Note_on_c, 14, 48, 72
21, 32039, Note_on_c, 14, 48, 0
21, 32040, Note_on_c, 14, 53, 72
21, 32099, Note_on_c, 14, 53, 0
21, 32100, Note_on_c, 14, 51, 72
21, 32159, Note_on_c, 14, 51, 0
21, 32160, Note_on_c, 14, 50, 72
21, 32219, Note_on_c, 14, 50, 0
21, 32220, Note_on_c, 14, 60, 72
21, 32339, Note_on_c, 14, 60, 0
21, 32340, Note_on_c, 14, 58, 72
21, 32369, Note_on_c, 14, 58, 0
21, 32370, Note_on_c, 14, 57, 72
21, 32399, Note_on_c, 14, 57, 0
21, 32400, Note_on_c, 14, 55, 72
21, 32429, Note_on_c, 14, 55, 0
21, 32430, Note_on_c, 14, 53, 72
21, 32459, Note_on_c, 14, 53, 0
21, 32460, Note_on_c, 14, 51, 72
21, 32489, Note_on_c, 14, 51, 0
21, 32490, Note_on_c, 14, 50, 72
21, 32519, Note_on_c, 14, 50, 0
21, 32520, Note_on_c, 14, 48, 72
21, 32549, Note_on_c, 14, 48, 0
21, 32550, Note_on_c, 14, 50, 72
21, 32579, Note_on_c, 14, 50, 0
21, 32580, Note_on_c, 14, 46, 72
21, 32609, Note_on_c, 14, 46, 0
21, 32610, Note_on_c, 14, 48, 72
21, 32639, Note_on_c, 14, 48, 0
21, 32640, Note_on_c, 14, 50, 72
21, 32819, Note_on_c, 14, 50, 0
21, 32820, Note_on_c, 14, 50, 72
21, 32879, Note_on_c, 14, 50, 0
21, 32880, Note_on_c, 14, 43, 72
21, 32999, Note_on_c, 14, 43, 0
21, 33840, Note_on_c, 14, 55, 72
21, 34019, Note_on_c, 14, 55, 0
21, 34020, Note_on_c, 14, 55, 72
21, 34079, Note_on_c, 14, 55, 0
21, 34080, Note_on_c, 14, 51, 72
21, 34199, Note_on_c, 14, 51, 0
21, 34200, Note_on_c, 14, 56, 72
21, 34319, Note_on_c, 14, 56, 0
21, 34320, Note_on_c, 14, 47, 72
21, 34499, Note_on_c, 14, 47, 0
21, 34500, Note_on_c, 14, 47, 72
21, 34559, Note_on_c, 14, 47, 0
21, 34560, Note_on_c, 14, 48, 72
21, 34679, Note_on_c, 14, 48, 0
21, 34740, Note_on_c, 14, 48, 72
21, 34799, Note_on_c, 14, 48, 0
21, 34800, Note_on_c, 14, 50, 72
21, 34979, Note_on_c, 14, 50, 0
21, 34980, Note_on_c, 14, 48, 72
21, 35009, Note_on_c, 14, 48, 0
21, 35010, Note_on_c, 14, 50, 72
21, 35039, Note_on_c, 14, 50, 0
21, 35040, Note_on_c, 14, 51, 72
21, 35099, Note_on_c, 14, 51, 0
21, 35100, Note_on_c, 14, 50, 72
21, 35129, Note_on_c, 14, 50, 0
21, 35130, Note_on_c, 14, 51, 72
21, 35159, Note_on_c, 14, 51, 0
21, 35160, Note_on_c, 14, 53, 72
21, 35219, Note_on_c, 14, 53, 0
21, 35220, Note_on_c, 14, 51, 72
21, 35249, Note_on_c, 14, 51, 0
21, 35250, Note_on_c, 14, 53, 72
21, 35279, Note_on_c, 14, 53, 0
21, 35280, Note_on_c, 14, 55, 72
21, 35339, Note_on_c, 14, 55, 0
21, 35340, Note_on_c, 14, 53, 72
21, 35399, Note_on_c, 14, 53, 0
21, 35400, Note_on_c, 14, 51, 72
21, 35459, Note_on_c, 14, 51, 0
21, 35460, Note_on_c, 14, 50, 72
21, 35519, Note_on_c, 14, 50, 0
21, 35520, Note_on_c, 14, 48, 72
21, 35579, Note_on_c, 14, 48, 0
21, 35580, Note_on_c, 14, 50, 72
21, 35609, Note_on_c, 14, 50, 0
21, 35610, Note_on_c, 14, 51, 72
21, 35639, Note_on_c, 14, 51, 0
21, 35640, Note_on_c, 14, 53, 72
21, 35819, Note_on_c, 14, 53, 0
21, 35820, Note_on_c, 14, 51, 72
21, 35879, Note_on_c, 14, 51, 0
21, 35880, Note_on_c, 14, 50, 72
21, 35939, Note_on_c, 14, 50, 0
21, 35940, Note_on_c, 14, 48, 72
21, 35999, Note_on_c, 14, 48, 0
21, 36000, Note_on_c, 14, 46, 72
21, 36059, Note_on_c, 14, 46, 0
21, 36060, Note_on_c, 14, 55, 72
21, 36089, Note_on_c, 14, 55, 0
21, 36090, Note_on_c, 14, 53, 72
21, 36119, Note_on_c, 14, 53, 0
21, 36120, Note_on_c, 14, 51, 72
21, 36149, Note_on_c, 14, 51, 0
21, 36150, Note_on_c, 14, 48, 72
21, 36179, Note_on_c, 14, 48, 0
21, 36180, Note_on_c, 14, 50, 72
21, 36209, Note_on_c, 14, 50, 0
21, 36210, Note_on_c, 14, 51, 72
21, 36239, Note_on_c, 14, 51, 0
21, 36240, Note_on_c, 14, 53, 72
21, 36359, Note_on_c, 14, 53, 0
21, 36720, Note_on_c, 14, 53, 72
21, 36899, Note_on_c, 14, 53, 0
21, 36900, Note_on_c, 14, 53, 72
21, 36959, Note_on_c, 14, 53, 0
21, 36960, Note_on_c, 14, 50, 72
21, 37079, Note_on_c, 14, 50, 0
21, 37080, Note_on_c, 14, 55, 72
21, 37199, Note_on_c, 14, 55, 0
21, 37200, Note_on_c, 14, 45, 72
21, 37379, Note_on_c, 14, 45, 0
21, 37380, Note_on_c, 14, 45, 72
21, 37439, Note_on_c, 14, 45, 0
21, 37440, Note_on_c, 14, 46, 72
21, 37559, Note_on_c, 14, 46, 0
21, 37620, Note_on_c, 14, 46, 72
21, 37679, Note_on_c, 14, 46, 0
21, 37680, Note_on_c, 14, 48, 72
21, 37859, Note_on_c, 14, 48, 0
21, 37860, Note_on_c, 14, 46, 72
21, 37889, Note_on_c, 14, 46, 0
21, 37890, Note_on_c, 14, 48, 72
21, 37919, Note_on_c, 14, 48, 0
21, 37920, Note_on_c, 14, 50, 72
21, 37979, Note_on_c, 14, 50, 0
21, 37980, Note_on_c, 14, 58, 72
21, 38009, Note_on_c, 14, 58, 0
21, 38010, Note_on_c, 14, 57, 72
21, 38039, Note_on_c, 14, 57, 0
21, 38040, Note_on_c, 14, 55, 72
21, 38099, Note_on_c, 14, 55, 0
21, 38100, Note_on_c, 14, 53, 72
21, 38159, Note_on_c, 14, 53, 0
21, 38160, Note_on_c, 14, 52, 72
21, 38219, Note_on_c, 14, 52, 0
21, 38220, Note_on_c, 14, 55, 72
21, 38279, Note_on_c, 14, 55, 0
21, 38280, Note_on_c, 14, 48, 72
21, 38399, Note_on_c, 14, 48, 0
21, 38700, Note_on_c, 14, 48, 72
21, 38759, Note_on_c, 14, 48, 0
21, 38760, Note_on_c, 14, 48, 72
21, 38819, Note_on_c, 14, 48, 0
21, 38820, Note_on_c, 14, 48, 72
21, 38879, Note_on_c, 14, 48, 0
21, 38880, Note_on_c, 14, 49, 72
21, 38909, Note_on_c, 14, 49, 0
21, 38910, Note_on_c, 14, 51, 72
21, 38939, Note_on_c, 14, 51, 0
21, 38940, Note_on_c, 14, 49, 72
21, 38969, Note_on_c, 14, 49, 0
21, 38970, Note_on_c, 14, 48, 72
21, 38999, Note_on_c, 14, 48, 0
21, 39000, Note_on_c, 14, 50, 72
21, 39029, Note_on_c, 14, 50, 0
21, 39030, Note_on_c, 14, 51, 72
21, 39059, Note_on_c, 14, 51, 0
21, 39060, Note_on_c, 14, 48, 72
21, 39089, Note_on_c, 14, 48, 0
21, 39090, Note_on_c, 14, 50, 72
21, 39119, Note_on_c, 14, 50, 0
21, 39120, Note_on_c, 14, 51, 72
21, 39149, Note_on_c, 14, 51, 0
21, 39150, Note_on_c, 14, 53, 72
21, 39179, Note_on_c, 14, 53, 0
21, 39180, Note_on_c, 14, 51, 72
21, 39209, Note_on_c, 14, 51, 0
21, 39210, Note_on_c, 14, 50, 72
21, 39239, Note_on_c, 14, 50, 0
21, 39240, Note_on_c, 14, 52, 72
21, 39269, Note_on_c, 14, 52, 0
21, 39270, Note_on_c, 14, 53, 72
21, 39299, Note_on_c, 14, 53, 0
21, 39300, Note_on_c, 14, 50, 72
21, 39329, Note_on_c, 14, 50, 0
21, 39330, Note_on_c, 14, 52, 72
21, 39359, Note_on_c, 14, 52, 0
21, 39360, Note_on_c, 14, 53, 72
21, 39419, Note_on_c, 14, 53, 0
21, 39420, Note_on_c, 14, 48, 72
21, 39479, Note_on_c, 14, 48, 0
21, 39480, Note_on_c, 14, 53, 72
21, 39539, Note_on_c, 14, 53, 0
21, 39540, Note_on_c, 14, 51, 72
21, 39599, Note_on_c, 14, 51, 0
21, 39600, Note_on_c, 14, 50, 72
21, 39659, Note_on_c, 14, 50, 0
21, 39660, Note_on_c, 14, 43, 72
21, 39719, Note_on_c, 14, 43, 0
21, 39720, Note_on_c, 14, 55, 72
21, 39779, Note_on_c, 14, 55, 0
21, 39780, Note_on_c, 14, 53, 72
21, 39839, Note_on_c, 14, 53, 0
21, 39840, Note_on_c, 14, 51, 72
21, 39959, Note_on_c, 14, 51, 0
21, 40620, Note_on_c, 14, 52, 72
21, 40679, Note_on_c, 14, 52, 0
21, 40680, Note_on_c, 14, 52, 72
21, 40739, Note_on_c, 14, 52, 0
21, 40740, Note_on_c, 14, 52, 72
21, 40799, Note_on_c, 14, 52, 0
21, 40800, Note_on_c, 14, 53, 72
21, 40829, Note_on_c, 14, 53, 0
21, 40830, Note_on_c, 14, 55, 72
21, 40859, Note_on_c, 14, 55, 0
21, 40860, Note_on_c, 14, 53, 72
21, 40889, Note_on_c, 14, 53, 0
21, 40890, Note_on_c, 14, 52, 72
21, 40919, Note_on_c, 14, 52, 0
21, 40920, Note_on_c, 14, 54, 72
21, 40949, Note_on_c, 14, 54, 0
21, 40950, Note_on_c, 14, 55, 72
21, 40979, Note_on_c, 14, 55, 0
21, 40980, Note_on_c, 14, 52, 72
21, 41009, Note_on_c, 14, 52, 0
21, 41010, Note_on_c, 14, 54, 72
21, 41039, Note_on_c, 14, 54, 0
21, 41040, Note_on_c, 14, 55, 72
21, 41069, Note_on_c, 14, 55, 0
21, 41070, Note_on_c, 14, 57, 72
21, 41099, Note_on_c, 14, 57, 0
21, 41100, Note_on_c, 14, 55, 72
21, 41129, Note_on_c, 14, 55, 0
21, 41130, Note_on_c, 14, 54, 72
21, 41159, Note_on_c, 14, 54, 0
21, 41160, Note_on_c, 14, 56, 72
21, 41189, Note_on_c, 14, 56, 0
21, 41190, Note_on_c, 14, 57, 72
21, 41219, Note_on_c, 14, 57, 0
21, 41220, Note_on_c, 14, 54, 72
21, 41249, Note_on_c, 14, 54, 0
21, 41250, Note_on_c, 14, 56, 72
21, 41279, Note_on_c, 14, 56, 0
21, 41280, Note_on_c, 14, 57, 72
21, 41339, Note_on_c, 14, 57, 0
21, 41340, Note_on_c, 14, 57, 72
21, 41459, Note_on_c, 14, 57, 0
21, 41460, Note_on_c, 14, 57, 72
21, 41519, Note_on_c, 14, 57, 0
21, 41520, Note_on_c, 14, 53, 72
21, 41639, Note_on_c, 14, 53, 0
21, 41640, Note_on_c, 14, 58, 72
21, 41759, Note_on_c, 14, 58, 0
21, 41760, Note_on_c, 14, 49, 72
21, 41939, Note_on_c, 14, 49, 0
21, 41940, Note_on_c, 14, 49, 72
21, 41999, Note_on_c, 14, 49, 0
21, 42000, Note_on_c, 14, 50, 72
21, 42119, Note_on_c, 14, 50, 0
21, 42180, Note_on_c, 14, 50, 72
21, 42239, Note_on_c, 14, 50, 0
21, 42240, Note_on_c, 14, 52, 72
21, 42419, Note_on_c, 14, 52, 0
21, 42420, Note_on_c, 14, 50, 72
21, 42449, Note_on_c, 14, 50, 0
21, 42450, Note_on_c, 14, 52, 72
21, 42479, Note_on_c, 14, 52, 0
21, 42480, Note_on_c, 14, 53, 72
21, 42539, Note_on_c, 14, 53, 0
21, 42540, Note_on_c, 14, 52, 72
21, 42569, Note_on_c, 14, 52, 0
21, 42570, Note_on_c, 14, 53, 72
21, 42599, Note_on_c, 14, 53, 0
21, 42600, Note_on_c, 14, 55, 72
21, 42659, Note_on_c, 14, 55, 0
21, 42660, Note_on_c, 14, 53, 72
21, 42689, Note_on_c, 14, 53, 0
21, 42690, Note_on_c, 14, 55, 72
21, 42719, Note_on_c, 14, 55, 0
21, 42720, Note_on_c, 14, 57, 72
21, 42779, Note_on_c, 14, 57, 0
21, 42780, Note_on_c, 14, 58, 72
21, 42809, Note_on_c, 14, 58, 0
21, 42810, Note_on_c, 14, 57, 72
21, 42839, Note_on_c, 14, 57, 0
21, 42840, Note_on_c, 14, 55, 72
21, 42869, Note_on_c, 14, 55, 0
21, 42870, Note_on_c, 14, 53, 72
21, 42899, Note_on_c, 14, 53, 0
21, 42900, Note_on_c, 14, 52, 72
21, 42929, Note_on_c, 14, 52, 0
21, 42930, Note_on_c, 14, 50, 72
21, 42959, Note_on_c, 14, 50, 0
21, 42960, Note_on_c, 14, 49, 72
21, 43079, Note_on_c, 14, 49, 0
21, 43080, Note_on_c, 14, 50, 72
21, 43139, Note_on_c, 14, 50, 0
21, 43140, Note_on_c, 14, 57, 72
21, 43199, Note_on_c, 14, 57, 0
21, 43200, Note_on_c, 14, 58, 72
21, 43379, Note_on_c, 14, 58, 0
21, 43380, Note_on_c, 14, 58, 72
21, 43439, Note_on_c, 14, 58, 0
21, 43440, Note_on_c, 14, 57, 72
21, 43559, Note_on_c, 14, 57, 0
21, 43980, Note_on_c, 14, 45, 72
21, 44039, Note_on_c, 14, 45, 0
21, 44040, Note_on_c, 14, 45, 72
21, 44099, Note_on_c, 14, 45, 0
21, 44100, Note_on_c, 14, 45, 72
21, 44159, Note_on_c, 14, 45, 0
21, 44160, Note_on_c, 14, 46, 72
21, 44189, Note_on_c, 14, 46, 0
21, 44190, Note_on_c, 14, 48, 72
21, 44219, Note_on_c, 14, 48, 0
21, 44220, Note_on_c, 14, 46, 72
21, 44249, Note_on_c, 14, 46, 0
21, 44250, Note_on_c, 14, 45, 72
21, 44279, Note_on_c, 14, 45, 0
21, 44280, Note_on_c, 14, 47, 72
21, 44309, Note_on_c, 14, 47, 0
21, 44310, Note_on_c, 14, 48, 72
21, 44339, Note_on_c, 14, 48, 0
21, 44340, Note_on_c, 14, 45, 72
21, 44369, Note_on_c, 14, 45, 0
21, 44370, Note_on_c, 14, 47, 72
21, 44399, Note_on_c, 14, 47, 0
21, 44400, Note_on_c, 14, 48, 72
21, 44429, Note_on_c, 14, 48, 0
21, 44430, Note_on_c, 14, 50, 72
21, 44459, Note_on_c, 14, 50, 0
21, 44460, Note_on_c, 14, 48, 72
21, 44489, Note_on_c, 14, 48, 0
21, 44490, Note_on_c, 14, 47, 72
21, 44519, Note_on_c, 14, 47, 0
21, 44520, Note_on_c, 14, 49, 72
21, 44549, Note_on_c, 14, 49, 0
21, 44550, Note_on_c, 14, 50, 72
21, 44579, Note_on_c, 14, 50, 0
21, 44580, Note_on_c, 14, 47, 72
21, 44609, Note_on_c, 14, 47, 0
21, 44610, Note_on_c, 14, 49, 72
21, 44639, Note_on_c, 14, 49, 0
21, 44640, Note_on_c, 14, 50, 72
21, 44699, Note_on_c, 14, 50, 0
21, 44700, Note_on_c, 14, 50, 72
21, 44759, Note_on_c, 14, 50, 0
21, 44760, Note_on_c, 14, 55, 72
21, 44819, Note_on_c, 14, 55, 0
21, 44820, Note_on_c, 14, 53, 72
21, 44879, Note_on_c, 14, 53, 0
21, 44880, Note_on_c, 14, 52, 72
21, 44939, Note_on_c, 14, 52, 0
21, 44940, Note_on_c, 14, 52, 72
21, 44999, Note_on_c, 14, 52, 0
21, 45000, Note_on_c, 14, 57, 72
21, 45059, Note_on_c, 14, 57, 0
21, 45060, Note_on_c, 14, 55, 72
21, 45119, Note_on_c, 14, 55, 0
21, 45120, Note_on_c, 14, 53, 72
21, 45239, Note_on_c, 14, 53, 0
21, 45540, Note_on_c, 14, 52, 72
21, 45599, Note_on_c, 14, 52, 0
21, 45600, Note_on_c, 14, 57, 72
21, 45659, Note_on_c, 14, 57, 0
21, 45660, Note_on_c, 14, 45, 72
21, 45719, Note_on_c, 14, 45, 0
21, 45720, Note_on_c, 14, 50, 72
21, 45779, Note_on_c, 14, 50, 0
21, 45780, Note_on_c, 14, 48, 72
21, 45839, Note_on_c, 14, 48, 0
21, 45840, Note_on_c, 14, 47, 72
21, 45899, Note_on_c, 14, 47, 0
21, 45900, Note_on_c, 14, 47, 72
21, 45959, Note_on_c, 14, 47, 0
21, 45960, Note_on_c, 14, 52, 72
21, 46019, Note_on_c, 14, 52, 0
21, 46020, Note_on_c, 14, 50, 72
21, 46079, Note_on_c, 14, 50, 0
21, 46080, Note_on_c, 14, 49, 72
21, 46139, Note_on_c, 14, 49, 0
21, 46140, Note_on_c, 14, 57, 72
21, 46199, Note_on_c, 14, 57, 0
21, 46200, Note_on_c, 14, 58, 72
21, 46259, Note_on_c, 14, 58, 0
21, 46260, Note_on_c, 14, 55, 72
21, 46319, Note_on_c, 14, 55, 0
21, 46320, Note_on_c, 14, 57, 72
21, 46499, Note_on_c, 14, 57, 0
21, 46500, Note_on_c, 14, 57, 72
21, 46559, Note_on_c, 14, 57, 0
21, 46560, Note_on_c, 14, 56, 72
21, 46799, Note_on_c, 14, 56, 0
21, 46920, Note_on_c, 14, 56, 72
21, 47009, Note_on_c, 14, 56, 0
21, 47010, Note_on_c, 14, 56, 72
21, 47039, Note_on_c, 14, 56, 0
21, 47040, Note_on_c, 14, 57, 72
21, 47159, Note_on_c, 14, 57, 0
21, 47160, Note_on_c, 14, 53, 72
21, 47219, Note_on_c, 14, 53, 0
21, 47220, Note_on_c, 14, 50, 72
21, 47279, Note_on_c, 14, 50, 0
21, 47280, Note_on_c, 14, 57, 72
21, 47459, Note_on_c, 14, 57, 0
21, 47460, Note_on_c, 14, 57, 72
21, 47519, Note_on_c, 14, 57, 0
21, 47520, Note_on_c, 14, 50, 72
21, 47999, Note_on_c, 14, 50, 0
21, 47999, End_track
22, 0, Start_track
22, 0, Title_t, "Organ"
22, 0, Program_c, 15, 19
22, 0, Control_c, 15, 7, 31
22, 0, Control_c, 15, 10, 70
22, 0, Control_c, 15, 11, 127
22, 3480, Note_on_c, 15, 50, 72
22, 3480, Note_on_c, 15, 65, 72
22, 3480, Note_on_c, 15, 69, 72
22, 3480, Note_on_c, 15, 74, 72
22, 3719, Note_on_c, 15, 74, 0
22, 3719, Note_on_c, 15, 50, 0
22, 3719, Note_on_c, 15, 65, 0
22, 3719, Note_on_c, 15, 69, 0
22, 3720, Note_on_c, 15, 57, 72
22, 3720, Note_on_c, 15, 73, 72
22, 3720, Note_on_c, 15, 76, 72
22, 3720, Note_on_c, 15, 69, 72
22, 3959, Note_on_c, 15, 69, 0
22, 3959, Note_on_c, 15, 57, 0
22, 3959, Note_on_c, 15, 73, 0
22, 3959, Note_on_c, 15, 76, 0
22, 3960, Note_on_c, 15, 62, 72
22, 3960, Note_on_c, 15, 56, 72
22, 4079, Note_on_c, 15, 56, 0
22, 4080, Note_on_c, 15, 57, 72
22, 4199, Note_on_c, 15, 57, 0
22, 4199, Note_on_c, 15, 62, 0
22, 4200, Note_on_c, 15, 52, 72
22, 4200, Note_on_c, 15, 67, 72
22, 4200, Note_on_c, 15, 69, 72
22, 4200, Note_on_c, 15, 73, 72
22, 4259, Note_on_c, 15, 73, 0
22, 4259, Note_on_c, 15, 52, 0
22, 4259, Note_on_c, 15, 67, 0
22, 4259, Note_on_c, 15, 69, 0
22, 4320, Note_on_c, 15, 50, 72
22, 4320, Note_on_c, 15, 65, 72
22, 4320, Note_on_c, 15, 69, 72
22, 4320, Note_on_c, 15, 74, 72
22, 4379, Note_on_c, 15, 74, 0
22, 4379, Note_on_c, 15, 50, 0
22, 4379, Note_on_c, 15, 65, 0
22, 4379, Note_on_c, 15, 69, 0
22, 4440, Note_on_c, 15, 52, 72
22, 4440, Note_on_c, 15, 68, 72
22, 4440, Note_on_c, 15, 71, 72
22, 4440, Note_on_c, 15, 74, 72
22, 4499, Note_on_c, 15, 74, 0
22, 4499, Note_on_c, 15, 52, 0
22, 4499, Note_on_c, 15, 68, 0
22, 4499, Note_on_c, 15, 71, 0
22, 4560, Note_on_c, 15, 53, 72
22, 4560, Note_on_c, 15, 69, 72
22, 4560, Note_on_c, 15, 72, 72
22, 4619, Note_on_c, 15, 53, 0
22, 4620, Note_on_c, 15, 52, 72
22, 4679, Note_on_c, 15, 52, 0
22, 4679, Note_on_c, 15, 72, 0
22, 4679, Note_on_c, 15, 69, 0
22, 4680, Note_on_c, 15, 50, 72
22, 4680, Note_on_c, 15, 65, 72
22, 4680, Note_on_c, 15, 67, 72
22, 4680, Note_on_c, 15, 71, 72
22, 4739, Note_on_c, 15, 50, 0
22, 4740, Note_on_c, 15, 55, 72
22, 4799, Note_on_c, 15, 55, 0
22, 4799, Note_on_c, 15, 71, 0
22, 4799, Note_on_c, 15, 67, 0
22, 4799, Note_on_c, 15, 65, 0
22, 4800, Note_on_c, 15, 48, 72
22, 4800, Note_on_c, 15, 64, 72
22, 4800, Note_on_c, 15, 67, 72
22, 4800, Note_on_c, 15, 72, 72
22, 4919, Note_on_c, 15, 72, 0
22, 4919, Note_on_c, 15, 48, 0
22, 4919, Note_on_c, 15, 64, 0
22, 4919, Note_on_c, 15, 67, 0
22, 4920, Note_on_c, 15, 50, 72
22, 4920, Note_on_c, 15, 66, 72
22, 4920, Note_on_c, 15, 69, 72
22, 4920, Note_on_c, 15, 72, 72
22, 5039, Note_on_c, 15, 72, 0
22, 5039, Note_on_c, 15, 50, 0
22, 5039, Note_on_c, 15, 66, 0
22, 5039, Note_on_c, 15, 69, 0
22, 5040, Note_on_c, 15, 43, 72
22, 5040, Note_on_c, 15, 58, 72
22, 5040, Note_on_c, 15, 55, 72
22, 5159, Note_on_c, 15, 55, 0
22, 5159, Note_on_c, 15, 58, 0
22, 5159, Note_on_c, 15, 43, 0
22, 5160, Note_on_c, 15, 48, 72
22, 5160, Note_on_c, 15, 64, 72
22, 5160, Note_on_c, 15, 67, 72
22, 5160, Note_on_c, 15, 70, 72
22, 5279, Note_on_c, 15, 70, 0
22, 5279, Note_on_c, 15, 48, 0
22, 5279, Note_on_c, 15, 64, 0
22, 5279, Note_on_c, 15, 67, 0
22, 5280, Note_on_c, 15, 53, 72
22, 5280, Note_on_c, 15, 69, 72
22, 5280, Note_on_c, 15, 72, 72
22, 5280, Note_on_c, 15, 76, 72
22, 5339, Note_on_c, 15, 76, 0
22, 5339, Note_on_c, 15, 72, 0
22, 5340, Note_on_c, 15, 74, 72
22, 5340, Note_on_c, 15, 65, 72
22, 5399, Note_on_c, 15, 65, 0
22, 5399, Note_on_c, 15, 53, 0
22, 5399, Note_on_c, 15, 69, 0
22, 5399, Note_on_c, 15, 74, 0
22, 5400, Note_on_c, 15, 58, 72
22, 5400, Note_on_c, 15, 74, 72
22, 5400, Note_on_c, 15, 65, 72
22, 5400, Note_on_c, 15, 62, 72
22, 5459, Note_on_c, 15, 62, 0
22, 5459, Note_on_c, 15, 58, 0
22, 5459, Note_on_c, 15, 74, 0
22, 5459, Note_on_c, 15, 65, 0
22, 5460, Note_on_c, 15, 57, 72
22, 5460, Note_on_c, 15, 74, 72
22, 5460, Note_on_c, 15, 65, 72
22, 5460, Note_on_c, 15, 69, 72
22, 5519, Note_on_c, 15, 69, 0
22, 5519, Note_on_c, 15, 57, 0
22, 5519, Note_on_c, 15, 74, 0
22, 5519, Note_on_c, 15, 65, 0
22, 5520, Note_on_c, 15, 55, 72
22, 5520, Note_on_c, 15, 70, 72
22, 5520, Note_on_c, 15, 74, 72
22, 5520, Note_on_c, 15, 64, 72
22, 5579, Note_on_c, 15, 55, 0
22, 5580, Note_on_c, 15, 53, 72
22, 5609, Note_on_c, 15, 53, 0
22, 5610, Note_on_c, 15, 52, 72
22, 5639, Note_on_c, 15, 52, 0
22, 5639, Note_on_c, 15, 70, 0
22, 5639, Note_on_c, 15, 74, 0
22, 5639, Note_on_c, 15, 64, 0
22, 5640, Note_on_c, 15, 57, 72
22, 5640, Note_on_c, 15, 73, 72
22, 5640, Note_on_c, 15, 64, 72
22, 5640, Note_on_c, 15, 69, 72
22, 5699, Note_on_c, 15, 69, 0
22, 5699, Note_on_c, 15, 57, 0
22, 5699, Note_on_c, 15, 73, 0
22, 5699, Note_on_c, 15, 64, 0
22, 5700, Note_on_c, 15, 55, 72
22, 5700, Note_on_c, 15, 69, 72
22, 5700, Note_on_c, 15, 73, 72
22, 5759, Note_on_c, 15, 73, 0
22, 5759, Note_on_c, 15, 69, 0
22, 5759, Note_on_c, 15, 55, 0
22, 5760, Note_on_c, 15, 53, 72
22, 5760, Note_on_c, 15, 69, 72
22, 5760, Note_on_c, 15, 74, 72
22, 5760, Note_on_c, 15, 57, 72
22, 5819, Note_on_c, 15, 53, 0
22, 5820, Note_on_c, 15, 52, 72
22, 5879, Note_on_c, 15, 52, 0
22, 5879, Note_on_c, 15, 57, 0
22, 5879, Note_on_c, 15, 74, 0
22, 5879, Note_on_c, 15, 69, 0
22, 5880, Note_on_c, 15, 50, 72
22, 5880, Note_on_c, 15, 76, 72
22, 5880, Note_on_c, 15, 67, 72
22, 5880, Note_on_c, 15, 70, 72
22, 5939, Note_on_c, 15, 70, 0
22, 5939, Note_on_c, 15, 50, 0
22, 5939, Note_on_c, 15, 76, 0
22, 5939, Note_on_c, 15, 67, 0
22, 5940, Note_on_c, 15, 49, 72
22, 5940, Note_on_c, 15, 76, 72
22, 5940, Note_on_c, 15, 67, 72
22, 5940, Note_on_c, 15, 69, 72
22, 5999, Note_on_c, 15, 69, 0
22, 5999, Note_on_c, 15, 49, 0
22, 5999, Note_on_c, 15, 76, 0
22, 5999, Note_on_c, 15, 67, 0
22, 6000, Note_on_c, 15, 50, 72
22, 6000, Note_on_c, 15, 65, 72
22, 6000, Note_on_c, 15, 69, 72
22, 6000, Note_on_c, 15, 74, 72
22, 6119, Note_on_c, 15, 74, 0
22, 6119, Note_on_c, 15, 50, 0
22, 6119, Note_on_c, 15, 65, 0
22, 6119, Note_on_c, 15, 69, 0
22, 6120, Note_on_c, 15, 48, 72
22, 6120, Note_on_c, 15, 76, 72
22, 6120, Note_on_c, 15, 69, 72
22, 6120, Note_on_c, 15, 57, 72
22, 6239, Note_on_c, 15, 57, 0
22, 6239, Note_on_c, 15, 48, 0
22, 6239, Note_on_c, 15, 76, 0
22, 6239, Note_on_c, 15, 69, 0
22, 6240, Note_on_c, 15, 46, 72
22, 6240, Note_on_c, 15, 62, 72
22, 6240, Note_on_c, 15, 65, 72
22, 6240, Note_on_c, 15, 69, 72
22, 6299, Note_on_c, 15, 69, 0
22, 6300, Note_on_c, 15, 70, 72
22, 6359, Note_on_c, 15, 70, 0
22, 6359, Note_on_c, 15, 65, 0
22, 6359, Note_on_c, 15, 62, 0
22, 6359, Note_on_c, 15, 46, 0
22, 6360, Note_on_c, 15, 58, 72
22, 6360, Note_on_c, 15, 74, 72
22, 6360, Note_on_c, 15, 67, 72
22, 6360, Note_on_c, 15, 62, 72
22, 6479, Note_on_c, 15, 62, 0
22, 6479, Note_on_c, 15, 58, 0
22, 6479, Note_on_c, 15, 74, 0
22, 6479, Note_on_c, 15, 67, 0
22, 6480, Note_on_c, 15, 57, 72
22, 6480, Note_on_c, 15, 73, 72
22, 6480, Note_on_c, 15, 64, 72
22, 6480, Note_on_c, 15, 69, 72
22, 6539, Note_on_c, 15, 69, 0
22, 6539, Note_on_c, 15, 57, 0
22, 6539, Note_on_c, 15, 73, 0
22, 6539, Note_on_c, 15, 64, 0
22, 6600, Note_on_c, 15, 55, 72
22, 6600, Note_on_c, 15, 70, 72
22, 6600, Note_on_c, 15, 72, 72
22, 6600, Note_on_c, 15, 64, 72
22, 6659, Note_on_c, 15, 64, 0
22, 6659, Note_on_c, 15, 55, 0
22, 6659, Note_on_c, 15, 70, 0
22, 6659, Note_on_c, 15, 72, 0
22, 6720, Note_on_c, 15, 53, 72
22, 6720, Note_on_c, 15, 69, 72
22, 6720, Note_on_c, 15, 72, 72
22, 6720, Note_on_c, 15, 77, 72
22, 6839, Note_on_c, 15, 77, 0
22, 6839, Note_on_c, 15, 53, 0
22, 6839, Note_on_c, 15, 69, 0
22, 6839, Note_on_c, 15, 72, 0
22, 6960, Note_on_c, 15, 69, 72
22, 6960, Note_on_c, 15, 72, 72
22, 6990, Note_on_c, 15, 53, 72
22, 7019, Note_on_c, 15, 53, 0
22, 7020, Note_on_c, 15, 57, 72
22, 7049, Note_on_c, 15, 57, 0
22, 7050, Note_on_c, 15, 53, 72
22, 7064, Note_on_c, 15, 53, 0
22, 7079, Note_on_c, 15, 72, 0
22, 7079, Note_on_c, 15, 69, 0
22, 7200, Note_on_c, 15, 41, 72
22, 7200, Note_on_c, 15, 57, 72
22, 7200, Note_on_c, 15, 60, 72
22, 7200, Note_on_c, 15, 65, 72
22, 7319, Note_on_c, 15, 65, 0
22, 7319, Note_on_c, 15, 41, 0
22, 7319, Note_on_c, 15, 57, 0
22, 7319, Note_on_c, 15, 60, 0
22, 7440, Note_on_c, 15, 69, 72
22, 7440, Note_on_c, 15, 72, 72
22, 7470, Note_on_c, 15, 53, 72
22, 7499, Note_on_c, 15, 53, 0
22, 7500, Note_on_c, 15, 57, 72
22, 7529, Note_on_c, 15, 57, 0
22, 7530, Note_on_c, 15, 53, 72
22, 7544, Note_on_c, 15, 53, 0
22, 7559, Note_on_c, 15, 72, 0
22, 7559, Note_on_c, 15, 69, 0
22, 7680, Note_on_c, 15, 51, 72
22, 7680, Note_on_c, 15, 67, 72
22, 7680, Note_on_c, 15, 69, 72
22, 7680, Note_on_c, 15, 60, 72
22, 7739, Note_on_c, 15, 60, 0
22, 7739, Note_on_c, 15, 51, 0
22, 7739, Note_on_c, 15, 67, 0
22, 7739, Note_on_c, 15, 69, 0
22, 7800, Note_on_c, 15, 50, 72
22, 7800, Note_on_c, 15, 65, 72
22, 7800, Note_on_c, 15, 70, 72
22, 7800, Note_on_c, 15, 62, 72
22, 7859, Note_on_c, 15, 62, 0
22, 7859, Note_on_c, 15, 50, 0
22, 7859, Note_on_c, 15, 65, 0
22, 7859, Note_on_c, 15, 70, 0
22, 8160, Note_on_c, 15, 51, 48
22, 8160, Note_on_c, 15, 67, 48
22, 8160, Note_on_c, 15, 70, 48
22, 8160, Note_on_c, 15, 72, 48
22, 8219, Note_on_c, 15, 72, 0
22, 8219, Note_on_c, 15, 51, 0
22, 8219, Note_on_c, 15, 67, 0
22, 8219, Note_on_c, 15, 70, 0
22, 8280, Note_on_c, 15, 52, 48
22, 8280, Note_on_c, 15, 73, 48
22, 8280, Note_on_c, 15, 70, 48
22, 8280, Note_on_c, 15, 67, 48
22, 8339, Note_on_c, 15, 67, 0
22, 8339, Note_on_c, 15, 52, 0
22, 8339, Note_on_c, 15, 73, 0
22, 8339, Note_on_c, 15, 70, 0
22, 8400, Note_on_c, 15, 53, 48
22, 8400, Note_on_c, 15, 70, 48
22, 8400, Note_on_c, 15, 60, 48
22, 8400, Note_on_c, 15, 65, 48
22, 8459, Note_on_c, 15, 65, 0
22, 8459, Note_on_c, 15, 53, 0
22, 8459, Note_on_c, 15, 70, 0
22, 8459, Note_on_c, 15, 60, 0
22, 8520, Note_on_c, 15, 41, 48
22, 8520, Note_on_c, 15, 60, 48
22, 8520, Note_on_c, 15, 69, 48
22, 8520, Note_on_c, 15, 65, 48
22, 8579, Note_on_c, 15, 65, 0
22, 8579, Note_on_c, 15, 41, 0
22, 8579, Note_on_c, 15, 60, 0
22, 8579, Note_on_c, 15, 69, 0
22, 8640, Note_on_c, 15, 46, 48
22, 8640, Note_on_c, 15, 62, 48
22, 8640, Note_on_c, 15, 65, 48
22, 8640, Note_on_c, 15, 70, 48
22, 8699, Note_on_c, 15, 70, 0
22, 8699, Note_on_c, 15, 46, 0
22, 8699, Note_on_c, 15, 62, 0
22, 8699, Note_on_c, 15, 65, 0
22, 12165, Note_on_c, 15, 55, 72
22, 12165, Note_on_c, 15, 70, 72
22, 12165, Note_on_c, 15, 63, 72
22, 12165, Note_on_c, 15, 67, 72
22, 12179, Note_on_c, 15, 55, 0
22, 12180, Note_on_c, 15, 58, 72
22, 12224, Note_on_c, 15, 58, 0
22, 12225, Note_on_c, 15, 55, 72
22, 12239, Note_on_c, 15, 55, 0
22, 12239, Note_on_c, 15, 70, 0
22, 12239, Note_on_c, 15, 63, 0
22, 12239, Note_on_c, 15, 67, 0
22, 12240, Note_on_c, 15, 57, 72
22, 12240, Note_on_c, 15, 60, 72
22, 12240, Note_on_c, 15, 65, 72
22, 12359, Note_on_c, 15, 65, 0
22, 12359, Note_on_c, 15, 60, 0
22, 12359, Note_on_c, 15, 57, 0
22, 12405, Note_on_c, 15, 53, 72
22, 12405, Note_on_c, 15, 69, 72
22, 12405, Note_on_c, 15, 72, 72
22, 12405, Note_on_c, 15, 65, 72
22, 12419, Note_on_c, 15, 53, 0
22, 12420, Note_on_c, 15, 57, 72
22, 12464, Note_on_c, 15, 57, 0
22, 12465, Note_on_c, 15, 53, 72
22, 12479, Note_on_c, 15, 53, 0
22, 12479, Note_on_c, 15, 69, 0
22, 12479, Note_on_c, 15, 72, 0
22, 12479, Note_on_c, 15, 65, 0
22, 12480, Note_on_c, 15, 58, 72
22, 12599, Note_on_c, 15, 58, 0
22, 12645, Note_on_c, 15, 58, 72
22, 12645, Note_on_c, 15, 74, 72
22, 12645, Note_on_c, 15, 77, 72
22, 12645, Note_on_c, 15, 70, 72
22, 12659, Note_on_c, 15, 58, 0
22, 12660, Note_on_c, 15, 62, 72
22, 12704, Note_on_c, 15, 62, 0
22, 12705, Note_on_c, 15, 58, 72
22, 12719, Note_on_c, 15, 58, 0
22, 12719, Note_on_c, 15, 74, 0
22, 12719, Note_on_c, 15, 77, 0
22, 12719, Note_on_c, 15, 70, 0
22, 12720, Note_on_c, 15, 54, 72
22, 12720, Note_on_c, 15, 69, 72
22, 12720, Note_on_c, 15, 74, 72
22, 12839, Note_on_c, 15, 74, 0
22, 12839, Note_on_c, 15, 69, 0
22, 12839, Note_on_c, 15, 54, 0
22, 12885, Note_on_c, 15, 50, 72
22, 12885, Note_on_c, 15, 66, 72
22, 12885, Note_on_c, 15, 69, 72
22, 12885, Note_on_c, 15, 74, 72
22, 12899, Note_on_c, 15, 50, 0
22, 12900, Note_on_c, 15, 53, 72
22, 12944, Note_on_c, 15, 53, 0
22, 12945, Note_on_c, 15, 50, 72
22, 12959, Note_on_c, 15, 50, 0
22, 12959, Note_on_c, 15, 66, 0
22, 12959, Note_on_c, 15, 69, 0
22, 12959, Note_on_c, 15, 74, 0
22, 12960, Note_on_c, 15, 55, 72
22, 12960, Note_on_c, 15, 70, 72
22, 12960, Note_on_c, 15, 74, 72
22, 12960, Note_on_c, 15, 67, 72
22, 13079, Note_on_c, 15, 67, 0
22, 13079, Note_on_c, 15, 55, 0
22, 13079, Note_on_c, 15, 70, 0
22, 13079, Note_on_c, 15, 74, 0
22, 13125, Note_on_c, 15, 55, 72
22, 13125, Note_on_c, 15, 70, 72
22, 13125, Note_on_c, 15, 74, 72
22, 13125, Note_on_c, 15, 65, 72
22, 13139, Note_on_c, 15, 55, 0
22, 13140, Note_on_c, 15, 58, 72
22, 13184, Note_on_c, 15, 58, 0
22, 13185, Note_on_c, 15, 55, 72
22, 13199, Note_on_c, 15, 55, 0
22, 13199, Note_on_c, 15, 70, 0
22, 13199, Note_on_c, 15, 74, 0
22, 13199, Note_on_c, 15, 65, 0
22, 13200, Note_on_c, 15, 48, 72
22, 13200, Note_on_c, 15, 63, 72
22, 13200, Note_on_c, 15, 69, 72
22, 13200, Note_on_c, 15, 75, 72
22, 13259, Note_on_c, 15, 75, 0
22, 13259, Note_on_c, 15, 48, 0
22, 13259, Note_on_c, 15, 63, 0
22, 13259, Note_on_c, 15, 69, 0
22, 13260, Note_on_c, 15, 50, 72
22, 13260, Note_on_c, 15, 65, 72
22, 13260, Note_on_c, 15, 70, 72
22, 13260, Note_on_c, 15, 74, 72
22, 13304, Note_on_c, 15, 74, 0
22, 13304, Note_on_c, 15, 50, 0
22, 13304, Note_on_c, 15, 65, 0
22, 13305, Note_on_c, 15, 51, 72
22, 13305, Note_on_c, 15, 67, 72
22, 13319, Note_on_c, 15, 67, 0
22, 13319, Note_on_c, 15, 51, 0
22, 13319, Note_on_c, 15, 70, 0
22, 13320, Note_on_c, 15, 53, 72
22, 13320, Note_on_c, 15, 70, 72
22, 13320, Note_on_c, 15, 72, 72
22, 13320, Note_on_c, 15, 65, 72
22, 13379, Note_on_c, 15, 70, 0
22, 13379, Note_on_c, 15, 53, 0
22, 13380, Note_on_c, 15, 41, 72
22, 13380, Note_on_c, 15, 69, 72
22, 13439, Note_on_c, 15, 69, 0
22, 13439, Note_on_c, 15, 65, 0
22, 13439, Note_on_c, 15, 72, 0
22, 13439, Note_on_c, 15, 41, 0
22, 13440, Note_on_c, 15, 46, 72
22, 13440, Note_on_c, 15, 62, 72
22, 13440, Note_on_c, 15, 65, 72
22, 13440, Note_on_c, 15, 70, 72
22, 13559, Note_on_c, 15, 70, 0
22, 13559, Note_on_c, 15, 46, 0
22, 13559, Note_on_c, 15, 62, 0
22, 13559, Note_on_c, 15, 65, 0
22, 13605, Note_on_c, 15, 58, 72
22, 13605, Note_on_c, 15, 65, 72
22, 13605, Note_on_c, 15, 74, 72
22, 13605, Note_on_c, 15, 70, 72
22, 13619, Note_on_c, 15, 58, 0
22, 13620, Note_on_c, 15, 62, 72
22, 13664, Note_on_c, 15, 62, 0
22, 13665, Note_on_c, 15, 58, 72
22, 13679, Note_on_c, 15, 58, 0
22, 13679, Note_on_c, 15, 65, 0
22, 13679, Note_on_c, 15, 74, 0
22, 13679, Note_on_c, 15, 70, 0
22, 13680, Note_on_c, 15, 55, 72
22, 13680, Note_on_c, 15, 70, 72
22, 13680, Note_on_c, 15, 74, 72
22, 13680, Note_on_c, 15, 67, 72
22, 13799, Note_on_c, 15, 67, 0
22, 13799, Note_on_c, 15, 55, 0
22, 13799, Note_on_c, 15, 70, 0
22, 13799, Note_on_c, 15, 74, 0
22, 13845, Note_on_c, 15, 55, 72
22, 13845, Note_on_c, 15, 70, 72
22, 13845, Note_on_c, 15, 74, 72
22, 13845, Note_on_c, 15, 67, 72
22, 13859, Note_on_c, 15, 55, 0
22, 13860, Note_on_c, 15, 58, 72
22, 13904, Note_on_c, 15, 58, 0
22, 13905, Note_on_c, 15, 55, 72
22, 13919, Note_on_c, 15, 55, 0
22, 13919, Note_on_c, 15, 70, 0
22, 13919, Note_on_c, 15, 74, 0
22, 13919, Note_on_c, 15, 67, 0
22, 13920, Note_on_c, 15, 52, 72
22, 13920, Note_on_c, 15, 67, 72
22, 13920, Note_on_c, 15, 70, 72
22, 13920, Note_on_c, 15, 72, 72
22, 14039, Note_on_c, 15, 72, 0
22, 14039, Note_on_c, 15, 52, 0
22, 14039, Note_on_c, 15, 67, 0
22, 14039, Note_on_c, 15, 70, 0
22, 14085, Note_on_c, 15, 52, 72
22, 14085, Note_on_c, 15, 67, 72
22, 14085, Note_on_c, 15, 70, 72
22, 14085, Note_on_c, 15, 72, 72
22, 14099, Note_on_c, 15, 52, 0
22, 14100, Note_on_c, 15, 55, 72
22, 14144, Note_on_c, 15, 55, 0
22, 14145, Note_on_c, 15, 60, 72
22, 14159, Note_on_c, 15, 60, 0
22, 14160, Note_on_c, 15, 51, 72
22, 14279, Note_on_c, 15, 51, 0
22, 14279, Note_on_c, 15, 72, 0
22, 14279, Note_on_c, 15, 70, 0
22, 14279, Note_on_c, 15, 67, 0
22, 14325, Note_on_c, 15, 51, 72
22, 14325, Note_on_c, 15, 72, 72
22, 14325, Note_on_c, 15, 69, 72
22, 14325, Note_on_c, 15, 66, 72
22, 14339, Note_on_c, 15, 66, 0
22, 14339, Note_on_c, 15, 69, 0
22, 14339, Note_on_c, 15, 51, 0
22, 14340, Note_on_c, 15, 55, 72
22, 14340, Note_on_c, 15, 63, 72
22, 14340, Note_on_c, 15, 67, 72
22, 14384, Note_on_c, 15, 55, 0
22, 14385, Note_on_c, 15, 60, 72
22, 14399, Note_on_c, 15, 60, 0
22, 14399, Note_on_c, 15, 67, 0
22, 14399, Note_on_c, 15, 63, 0
22, 14399, Note_on_c, 15, 72, 0
22, 14400, Note_on_c, 15, 69, 72
22, 14400, Note_on_c, 15, 50, 72
22, 14400, Note_on_c, 15, 66, 72
22, 14400, Note_on_c, 15, 72, 72
22, 14459, Note_on_c, 15, 72, 0
22, 14459, Note_on_c, 15, 69, 0
22, 14459, Note_on_c, 15, 50, 0
22, 14459, Note_on_c, 15, 66, 0
22, 14505, Note_on_c, 15, 62, 72
22, 14505, Note_on_c, 15, 72, 72
22, 14505, Note_on_c, 15, 69, 72
22, 14505, Note_on_c, 15, 66, 72
22, 14519, Note_on_c, 15, 66, 0
22, 14519, Note_on_c, 15, 62, 0
22, 14519, Note_on_c, 15, 72, 0
22, 14519, Note_on_c, 15, 69, 0
22, 14520, Note_on_c, 15, 61, 72
22, 14520, Note_on_c, 15, 64, 72
22, 14520, Note_on_c, 15, 67, 72
22, 14520, Note_on_c, 15, 70, 72
22, 14579, Note_on_c, 15, 70, 0
22, 14579, Note_on_c, 15, 61, 0
22, 14579, Note_on_c, 15, 64, 0
22, 14579, Note_on_c, 15, 67, 0
22, 14625, Note_on_c, 15, 48, 72
22, 14625, Note_on_c, 15, 70, 72
22, 14625, Note_on_c, 15, 67, 72
22, 14625, Note_on_c, 15, 64, 72
22, 14639, Note_on_c, 15, 64, 0
22, 14639, Note_on_c, 15, 48, 0
22, 14639, Note_on_c, 15, 70, 0
22, 14639, Note_on_c, 15, 67, 0
22, 14640, Note_on_c, 15, 50, 72
22, 14640, Note_on_c, 15, 67, 72
22, 14640, Note_on_c, 15, 70, 72
22, 14640, Note_on_c, 15, 62, 72
22, 14699, Note_on_c, 15, 62, 0
22, 14699, Note_on_c, 15, 50, 0
22, 14699, Note_on_c, 15, 67, 0
22, 14699, Note_on_c, 15, 70, 0
22, 14700, Note_on_c, 15, 50, 72
22, 14700, Note_on_c, 15, 66, 72
22, 14700, Note_on_c, 15, 69, 72
22, 14700, Note_on_c, 15, 62, 72
22, 14759, Note_on_c, 15, 62, 0
22, 14759, Note_on_c, 15, 50, 0
22, 14759, Note_on_c, 15, 66, 0
22, 14759, Note_on_c, 15, 69, 0
22, 14760, Note_on_c, 15, 50, 72
22, 14760, Note_on_c, 15, 66, 72
22, 14760, Note_on_c, 15, 69, 72
22, 14760, Note_on_c, 15, 62, 72
22, 14819, Note_on_c, 15, 62, 0
22, 14819, Note_on_c, 15, 50, 0
22, 14819, Note_on_c, 15, 66, 0
22, 14819, Note_on_c, 15, 69, 0
22, 14820, Note_on_c, 15, 50, 72
22, 14820, Note_on_c, 15, 66, 72
22, 14820, Note_on_c, 15, 69, 72
22, 14820, Note_on_c, 15, 62, 72
22, 14879, Note_on_c, 15, 62, 0
22, 14879, Note_on_c, 15, 50, 0
22, 14879, Note_on_c, 15, 66, 0
22, 14879, Note_on_c, 15, 69, 0
22, 14880, Note_on_c, 15, 43, 72
22, 14880, Note_on_c, 15, 58, 72
22, 14880, Note_on_c, 15, 62, 72
22, 14880, Note_on_c, 15, 67, 72
22, 14939, Note_on_c, 15, 67, 0
22, 14939, Note_on_c, 15, 43, 0
22, 14939, Note_on_c, 15, 58, 0
22, 14939, Note_on_c, 15, 62, 0
22, 15960, Note_on_c, 15, 58, 72
22, 15960, Note_on_c, 15, 67, 72
22, 15960, Note_on_c, 15, 62, 72
22, 15960, Note_on_c, 15, 70, 72
22, 16019, Note_on_c, 15, 70, 0
22, 16019, Note_on_c, 15, 58, 0
22, 16019, Note_on_c, 15, 67, 0
22, 16019, Note_on_c, 15, 62, 0
22, 16080, Note_on_c, 15, 57, 72
22, 16080, Note_on_c, 15, 62, 72
22, 16080, Note_on_c, 15, 64, 72
22, 16080, Note_on_c, 15, 69, 72
22, 16139, Note_on_c, 15, 69, 0
22, 16139, Note_on_c, 15, 57, 0
22, 16139, Note_on_c, 15, 62, 0
22, 16139, Note_on_c, 15, 64, 0
22, 16200, Note_on_c, 15, 45, 72
22, 16200, Note_on_c, 15, 61, 72
22, 16200, Note_on_c, 15, 64, 72
22, 16200, Note_on_c, 15, 69, 72
22, 16259, Note_on_c, 15, 69, 0
22, 16259, Note_on_c, 15, 45, 0
22, 16259, Note_on_c, 15, 61, 0
22, 16259, Note_on_c, 15, 64, 0
22, 16320, Note_on_c, 15, 50, 72
22, 16320, Note_on_c, 15, 65, 72
22, 16320, Note_on_c, 15, 69, 72
22, 16320, Note_on_c, 15, 62, 72
22, 16379, Note_on_c, 15, 62, 0
22, 16379, Note_on_c, 15, 50, 0
22, 16379, Note_on_c, 15, 65, 0
22, 16379, Note_on_c, 15, 69, 0
22, 16440, Note_on_c, 15, 73, 72
22, 16440, Note_on_c, 15, 52, 72
22, 16440, Note_on_c, 15, 67, 72
22, 16440, Note_on_c, 15, 64, 72
22, 16499, Note_on_c, 15, 64, 0
22, 16499, Note_on_c, 15, 73, 0
22, 16499, Note_on_c, 15, 52, 0
22, 16499, Note_on_c, 15, 67, 0
22, 16560, Note_on_c, 15, 53, 72
22, 16560, Note_on_c, 15, 69, 72
22, 16560, Note_on_c, 15, 74, 72
22, 16560, Note_on_c, 15, 65, 72
22, 16619, Note_on_c, 15, 65, 0
22, 16619, Note_on_c, 15, 53, 0
22, 16619, Note_on_c, 15, 69, 0
22, 16619, Note_on_c, 15, 74, 0
22, 16680, Note_on_c, 15, 50, 72
22, 16680, Note_on_c, 15, 65, 72
22, 16680, Note_on_c, 15, 69, 72
22, 16680, Note_on_c, 15, 74, 72
22, 16739, Note_on_c, 15, 74, 0
22, 16739, Note_on_c, 15, 50, 0
22, 16739, Note_on_c, 15, 65, 0
22, 16739, Note_on_c, 15, 69, 0
22, 16800, Note_on_c, 15, 52, 72
22, 16800, Note_on_c, 15, 69, 72
22, 16800, Note_on_c, 15, 59, 72
22, 16800, Note_on_c, 15, 64, 72
22, 16859, Note_on_c, 15, 64, 0
22, 16859, Note_on_c, 15, 52, 0
22, 16859, Note_on_c, 15, 69, 0
22, 16859, Note_on_c, 15, 59, 0
22, 16920, Note_on_c, 15, 52, 72
22, 16920, Note_on_c, 15, 59, 72
22, 16920, Note_on_c, 15, 68, 72
22, 16920, Note_on_c, 15, 64, 72
22, 16979, Note_on_c, 15, 64, 0
22, 16979, Note_on_c, 15, 52, 0
22, 16979, Note_on_c, 15, 59, 0
22, 16979, Note_on_c, 15, 68, 0
22, 17040, Note_on_c, 15, 57, 72
22, 17040, Note_on_c, 15, 60, 72
22, 17040, Note_on_c, 15, 64, 72
22, 17040, Note_on_c, 15, 69, 72
22, 17159, Note_on_c, 15, 69, 0
22, 17159, Note_on_c, 15, 57, 0
22, 17159, Note_on_c, 15, 60, 0
22, 17159, Note_on_c, 15, 64, 0
22, 17160, Note_on_c, 15, 59, 72
22, 17160, Note_on_c, 15, 62, 72
22, 17160, Note_on_c, 15, 68, 72
22, 17279, Note_on_c, 15, 68, 0
22, 17279, Note_on_c, 15, 62, 0
22, 17279, Note_on_c, 15, 59, 0
22, 17280, Note_on_c, 15, 60, 72
22, 17280, Note_on_c, 15, 64, 72
22, 17280, Note_on_c, 15, 69, 72
22, 17339, Note_on_c, 15, 69, 0
22, 17339, Note_on_c, 15, 64, 0
22, 17339, Note_on_c, 15, 60, 0
22, 17340, Note_on_c, 15, 57, 72
22, 17340, Note_on_c, 15, 60, 72
22, 17340, Note_on_c, 15, 64, 72
22, 17340, Note_on_c, 15, 69, 72
22, 17399, Note_on_c, 15, 69, 0
22, 17399, Note_on_c, 15, 57, 0
22, 17399, Note_on_c, 15, 60, 0
22, 17399, Note_on_c, 15, 64, 0
22, 17400, Note_on_c, 15, 54, 72
22, 17400, Note_on_c, 15, 69, 72
22, 17400, Note_on_c, 15, 72, 72
22, 17400, Note_on_c, 15, 62, 72
22, 17459, Note_on_c, 15, 62, 0
22, 17459, Note_on_c, 15, 54, 0
22, 17459, Note_on_c, 15, 69, 0
22, 17459, Note_on_c, 15, 72, 0
22, 17460, Note_on_c, 15, 46, 72
22, 17460, Note_on_c, 15, 62, 72
22, 17460, Note_on_c, 15, 65, 72
22, 17460, Note_on_c, 15, 70, 72
22, 17519, Note_on_c, 15, 70, 0
22, 17519, Note_on_c, 15, 46, 0
22, 17519, Note_on_c, 15, 62, 0
22, 17519, Note_on_c, 15, 65, 0
22, 17520, Note_on_c, 15, 55, 72
22, 17520, Note_on_c, 15, 70, 72
22, 17520, Note_on_c, 15, 69, 72
22, 17609, Note_on_c, 15, 55, 0
22, 17610, Note_on_c, 15, 57, 72
22, 17639, Note_on_c, 15, 57, 0
22, 17639, Note_on_c, 15, 69, 0
22, 17639, Note_on_c, 15, 70, 0
22, 17640, Note_on_c, 15, 58, 72
22, 17640, Note_on_c, 15, 62, 72
22, 17640, Note_on_c, 15, 67, 72
22, 17640, Note_on_c, 15, 70, 72
22, 17699, Note_on_c, 15, 58, 0
22, 17700, Note_on_c, 15, 55, 72
22, 17759, Note_on_c, 15, 55, 0
22, 17759, Note_on_c, 15, 70, 0
22, 17759, Note_on_c, 15, 67, 0
22, 17759, Note_on_c, 15, 62, 0
22, 17760, Note_on_c, 15, 50, 72
22, 17760, Note_on_c, 15, 67, 72
22, 17760, Note_on_c, 15, 69, 72
22, 17760, Note_on_c, 15, 62, 72
22, 17819, Note_on_c, 15, 62, 0
22, 17819, Note_on_c, 15, 50, 0
22, 17819, Note_on_c, 15, 67, 0
22, 17819, Note_on_c, 15, 69, 0
22, 17820, Note_on_c, 15, 62, 72
22, 17820, Note_on_c, 15, 65, 72
22, 17820, Note_on_c, 15, 69, 72
22, 17879, Note_on_c, 15, 69, 0
22, 17879, Note_on_c, 15, 65, 0
22, 17880, Note_on_c, 15, 66, 72
22, 17880, Note_on_c, 15, 69, 72
22, 17880, Note_on_c, 15, 74, 72
22, 17909, Note_on_c, 15, 62, 0
22, 17910, Note_on_c, 15, 63, 72
22, 17939, Note_on_c, 15, 63, 0
22, 17940, Note_on_c, 15, 62, 72
22, 17969, Note_on_c, 15, 62, 0
22, 17970, Note_on_c, 15, 60, 72
22, 17999, Note_on_c, 15, 60, 0
22, 17999, Note_on_c, 15, 74, 0
22, 17999, Note_on_c, 15, 69, 0
22, 17999, Note_on_c, 15, 66, 0
22, 18000, Note_on_c, 15, 58, 72
22, 18000, Note_on_c, 15, 74, 72
22, 18000, Note_on_c, 15, 67, 72
22, 18059, Note_on_c, 15, 67, 0
22, 18059, Note_on_c, 15, 74, 0
22, 18059, Note_on_c, 15, 58, 0
22, 18060, Note_on_c, 15, 55, 72
22, 18060, Note_on_c, 15, 74, 72
22, 18060, Note_on_c, 15, 70, 72
22, 18119, Note_on_c, 15, 70, 0
22, 18120, Note_on_c, 15, 69, 72
22, 18179, Note_on_c, 15, 74, 0
22, 18179, Note_on_c, 15, 55, 0
22, 18180, Note_on_c, 15, 54, 72
22, 18180, Note_on_c, 15, 74, 72
22, 18239, Note_on_c, 15, 74, 0
22, 18239, Note_on_c, 15, 54, 0
22, 18239, Note_on_c, 15, 69, 0
22, 18240, Note_on_c, 15, 55, 72
22, 18240, Note_on_c, 15, 70, 72
22, 18240, Note_on_c, 15, 74, 72
22, 18240, Note_on_c, 15, 67, 72
22, 18359, Note_on_c, 15, 67, 0
22, 18359, Note_on_c, 15, 55, 0
22, 18359, Note_on_c, 15, 70, 0
22, 18359, Note_on_c, 15, 74, 0
22, 18360, Note_on_c, 15, 43, 72
22, 18360, Note_on_c, 15, 67, 72
22, 18360, Note_on_c, 15, 70, 72
22, 18360, Note_on_c, 15, 74, 72
22, 18419, Note_on_c, 15, 74, 0
22, 18419, Note_on_c, 15, 43, 0
22, 18419, Note_on_c, 15, 67, 0
22, 18419, Note_on_c, 15, 70, 0
22, 18420, Note_on_c, 15, 55, 72
22, 18420, Note_on_c, 15, 70, 72
22, 18420, Note_on_c, 15, 76, 72
22, 18479, Note_on_c, 15, 76, 0
22, 18479, Note_on_c, 15, 70, 0
22, 18479, Note_on_c, 15, 55, 0
22, 18480, Note_on_c, 15, 57, 72
22, 18480, Note_on_c, 15, 72, 72
22, 18480, Note_on_c, 15, 77, 72
22, 18509, Note_on_c, 15, 57, 0
22, 18510, Note_on_c, 15, 55, 72
22, 18539, Note_on_c, 15, 55, 0
22, 18540, Note_on_c, 15, 53, 72
22, 18569, Note_on_c, 15, 53, 0
22, 18570, Note_on_c, 15, 55, 72
22, 18599, Note_on_c, 15, 55, 0
22, 18600, Note_on_c, 15, 57, 72
22, 18629, Note_on_c, 15, 57, 0
22, 18630, Note_on_c, 15, 55, 72
22, 18659, Note_on_c, 15, 55, 0
22, 18660, Note_on_c, 15, 57, 72
22, 18689, Note_on_c, 15, 57, 0
22, 18690, Note_on_c, 15, 53, 72
22, 18719, Note_on_c, 15, 53, 0
22, 18719, Note_on_c, 15, 77, 0
22, 18719, Note_on_c, 15, 72, 0
22, 18720, Note_on_c, 15, 48, 72
22, 18720, Note_on_c, 15, 77, 72
22, 18720, Note_on_c, 15, 67, 72
22, 18720, Note_on_c, 15, 60, 72
22, 18779, Note_on_c, 15, 60, 0
22, 18779, Note_on_c, 15, 48, 0
22, 18780, Note_on_c, 15, 60, 72
22, 18839, Note_on_c, 15, 67, 0
22, 18839, Note_on_c, 15, 77, 0
22, 18840, Note_on_c, 15, 76, 72
22, 18840, Note_on_c, 15, 67, 72
22, 18869, Note_on_c, 15, 60, 0
22, 18870, Note_on_c, 15, 62, 72
22, 18899, Note_on_c, 15, 62, 0
22, 18900, Note_on_c, 15, 60, 72
22, 18929, Note_on_c, 15, 60, 0
22, 18930, Note_on_c, 15, 58, 72
22, 18959, Note_on_c, 15, 58, 0
22, 18959, Note_on_c, 15, 67, 0
22, 18959, Note_on_c, 15, 76, 0
22, 18960, Note_on_c, 15, 57, 72
22, 18960, Note_on_c, 15, 72, 72
22, 18960, Note_on_c, 15, 77, 72
22, 18960, Note_on_c, 15, 69, 72
22, 18989, Note_on_c, 15, 57, 0
22, 18990, Note_on_c, 15, 60, 72
22, 19019, Note_on_c, 15, 60, 0
22, 19020, Note_on_c, 15, 58, 72
22, 19049, Note_on_c, 15, 58, 0
22, 19050, Note_on_c, 15, 57, 72
22, 19079, Note_on_c, 15, 57, 0
22, 19079, Note_on_c, 15, 69, 0
22, 19079, Note_on_c, 15, 77, 0
22, 19079, Note_on_c, 15, 72, 0
22, 19080, Note_on_c, 15, 55, 72
22, 19080, Note_on_c, 15, 67, 72
22, 19080, Note_on_c, 15, 70, 72
22, 19080, Note_on_c, 15, 76, 72
22, 19109, Note_on_c, 15, 55, 0
22, 19110, Note_on_c, 15, 58, 72
22, 19139, Note_on_c, 15, 58, 0
22, 19140, Note_on_c, 15, 57, 72
22, 19169, Note_on_c, 15, 57, 0
22, 19170, Note_on_c, 15, 55, 72
22, 19199, Note_on_c, 15, 55, 0
22, 19199, Note_on_c, 15, 76, 0
22, 19199, Note_on_c, 15, 70, 0
22, 19199, Note_on_c, 15, 67, 0
22, 19200, Note_on_c, 15, 53, 72
22, 19200, Note_on_c, 15, 69, 72
22, 19200, Note_on_c, 15, 62, 72
22, 19229, Note_on_c, 15, 62, 0
22, 19229, Note_on_c, 15, 69, 0
22, 19229, Note_on_c, 15, 53, 0
22, 19230, Note_on_c, 15, 55, 72
22, 19230, Note_on_c, 15, 70, 72
22, 19230, Note_on_c, 15, 64, 72
22, 19259, Note_on_c, 15, 64, 0
22, 19259, Note_on_c, 15, 70, 0
22, 19259, Note_on_c, 15, 55, 0
22, 19260, Note_on_c, 15, 57, 72
22, 19260, Note_on_c, 15, 72, 72
22, 19260, Note_on_c, 15, 65, 72
22, 19319, Note_on_c, 15, 65, 0
22, 19319, Note_on_c, 15, 72, 0
22, 19320, Note_on_c, 15, 73, 72
22, 19320, Note_on_c, 15, 64, 72
22, 19349, Note_on_c, 15, 57, 0
22, 19350, Note_on_c, 15, 58, 72
22, 19379, Note_on_c, 15, 58, 0
22, 19380, Note_on_c, 15, 57, 72
22, 19409, Note_on_c, 15, 57, 0
22, 19410, Note_on_c, 15, 55, 72
22, 19439, Note_on_c, 15, 55, 0
22, 19439, Note_on_c, 15, 64, 0
22, 19439, Note_on_c, 15, 73, 0
22, 19440, Note_on_c, 15, 53, 72
22, 19440, Note_on_c, 15, 69, 72
22, 19440, Note_on_c, 15, 74, 72
22, 19469, Note_on_c, 15, 53, 0
22, 19470, Note_on_c, 15, 57, 72
22, 19499, Note_on_c, 15, 57, 0
22, 19500, Note_on_c, 15, 55, 72
22, 19529, Note_on_c, 15, 55, 0
22, 19530, Note_on_c, 15, 53, 72
22, 19559, Note_on_c, 15, 53, 0
22, 19559, Note_on_c, 15, 74, 0
22, 19559, Note_on_c, 15, 69, 0
22, 19560, Note_on_c, 15, 52, 72
22, 19560, Note_on_c, 15, 67, 72
22, 19560, Note_on_c, 15, 61, 72
22, 19589, Note_on_c, 15, 52, 0
22, 19590, Note_on_c, 15, 55, 72
22, 19619, Note_on_c, 15, 55, 0
22, 19620, Note_on_c, 15, 53, 72
22, 19649, Note_on_c, 15, 53, 0
22, 19650, Note_on_c, 15, 52, 72
22, 19679, Note_on_c, 15, 52, 0
22, 19679, Note_on_c, 15, 61, 0
22, 19679, Note_on_c, 15, 67, 0
22, 19680, Note_on_c, 15, 50, 72
22, 19680, Note_on_c, 15, 65, 72
22, 19680, Note_on_c, 15, 69, 72
22, 19680, Note_on_c, 15, 62, 72
22, 19709, Note_on_c, 15, 50, 0
22, 19710, Note_on_c, 15, 51, 72
22, 19739, Note_on_c, 15, 51, 0
22, 19739, Note_on_c, 15, 69, 0
22, 19740, Note_on_c, 15, 53, 72
22, 19740, Note_on_c, 15, 69, 72
22, 19799, Note_on_c, 15, 69, 0
22, 19799, Note_on_c, 15, 62, 0
22, 19799, Note_on_c, 15, 65, 0
22, 19800, Note_on_c, 15, 69, 72
22, 19800, Note_on_c, 15, 60, 72
22, 19800, Note_on_c, 15, 65, 72
22, 19829, Note_on_c, 15, 53, 0
22, 19830, Note_on_c, 15, 55, 72
22, 19859, Note_on_c, 15, 55, 0
22, 19860, Note_on_c, 15, 53, 72
22, 19889, Note_on_c, 15, 53, 0
22, 19890, Note_on_c, 15, 52, 72
22, 19919, Note_on_c, 15, 52, 0
22, 19919, Note_on_c, 15, 65, 0
22, 19919, Note_on_c, 15, 60, 0
22, 19919, Note_on_c, 15, 69, 0
22, 19920, Note_on_c, 15, 50, 72
22, 19920, Note_on_c, 15, 65, 72
22, 19920, Note_on_c, 15, 70, 72
22, 19949, Note_on_c, 15, 50, 0
22, 19950, Note_on_c, 15, 53, 72
22, 19979, Note_on_c, 15, 53, 0
22, 19980, Note_on_c, 15, 52, 72
22, 20009, Note_on_c, 15, 52, 0
22, 20010, Note_on_c, 15, 50, 72
22, 20039, Note_on_c, 15, 50, 0
22, 20039, Note_on_c, 15, 70, 0
22, 20039, Note_on_c, 15, 65, 0
22, 20040, Note_on_c, 15, 48, 72
22, 20040, Note_on_c, 15, 63, 72
22, 20040, Note_on_c, 15, 69, 72
22, 20069, Note_on_c, 15, 48, 0
22, 20070, Note_on_c, 15, 52, 72
22, 20099, Note_on_c, 15, 52, 0
22, 20100, Note_on_c, 15, 50, 72
22, 20129, Note_on_c, 15, 50, 0
22, 20130, Note_on_c, 15, 48, 72
22, 20159, Note_on_c, 15, 48, 0
22, 20159, Note_on_c, 15, 69, 0
22, 20159, Note_on_c, 15, 63, 0
22, 20160, Note_on_c, 15, 46, 72
22, 20160, Note_on_c, 15, 62, 72
22, 20160, Note_on_c, 15, 65, 72
22, 20160, Note_on_c, 15, 58, 72
22, 20279, Note_on_c, 15, 58, 0
22, 20279, Note_on_c, 15, 46, 0
22, 20279, Note_on_c, 15, 62, 0
22, 20279, Note_on_c, 15, 65, 0
22, 20640, Note_on_c, 15, 45, 72
22, 20640, Note_on_c, 15, 62, 72
22, 20640, Note_on_c, 15, 65, 72
22, 20640, Note_on_c, 15, 69, 72
22, 20759, Note_on_c, 15, 69, 0
22, 20759, Note_on_c, 15, 45, 0
22, 20759, Note_on_c, 15, 62, 0
22, 20759, Note_on_c, 15, 65, 0
22, 21120, Note_on_c, 15, 44, 72
22, 21120, Note_on_c, 15, 71, 72
22, 21120, Note_on_c, 15, 77, 72
22, 21120, Note_on_c, 15, 65, 72
22, 21179, Note_on_c, 15, 44, 0
22, 21180, Note_on_c, 15, 56, 72
22, 21239, Note_on_c, 15, 56, 0
22, 21240, Note_on_c, 15, 56, 72
22, 21299, Note_on_c, 15, 56, 0
22, 21300, Note_on_c, 15, 56, 72
22, 21359, Note_on_c, 15, 56, 0
22, 21359, Note_on_c, 15, 65, 0
22, 21359, Note_on_c, 15, 77, 0
22, 21359, Note_on_c, 15, 71, 0
22, 21360, Note_on_c, 15, 56, 72
22, 21360, Note_on_c, 15, 71, 72
22, 21360, Note_on_c, 15, 77, 72
22, 21419, Note_on_c, 15, 56, 0
22, 21420, Note_on_c, 15, 56, 72
22, 21479, Note_on_c, 15, 56, 0
22, 21479, Note_on_c, 15, 77, 0
22, 21479, Note_on_c, 15, 71, 0
22, 21480, Note_on_c, 15, 56, 72
22, 21480, Note_on_c, 15, 71, 72
22, 21480, Note_on_c, 15, 76, 72
22, 21539, Note_on_c, 15, 76, 0
22, 21539, Note_on_c, 15, 71, 0
22, 21539, Note_on_c, 15, 56, 0
22, 21540, Note_on_c, 15, 56, 72
22, 21540, Note_on_c, 15, 74, 72
22, 21540, Note_on_c, 15, 71, 72
22, 21599, Note_on_c, 15, 71, 0
22, 21599, Note_on_c, 15, 74, 0
22, 21599, Note_on_c, 15, 56, 0
22, 21600, Note_on_c, 15, 57, 72
22, 21600, Note_on_c, 15, 74, 72
22, 21600, Note_on_c, 15, 65, 72
22, 21600, Note_on_c, 15, 69, 72
22, 21659, Note_on_c, 15, 69, 0
22, 21659, Note_on_c, 15, 57, 0
22, 21659, Note_on_c, 15, 74, 0
22, 21659, Note_on_c, 15, 65, 0
22, 21660, Note_on_c, 15, 45, 72
22, 21660, Note_on_c, 15, 73, 72
22, 21660, Note_on_c, 15, 64, 72
22, 21660, Note_on_c, 15, 69, 72
22, 21719, Note_on_c, 15, 69, 0
22, 21719, Note_on_c, 15, 45, 0
22, 21719, Note_on_c, 15, 73, 0
22, 21719, Note_on_c, 15, 64, 0
22, 21780, Note_on_c, 15, 45, 48
22, 21780, Note_on_c, 15, 61, 48
22, 21780, Note_on_c, 15, 64, 48
22, 21839, Note_on_c, 15, 64, 0
22, 21839, Note_on_c, 15, 61, 0
22, 21839, Note_on_c, 15, 45, 0
22, 21840, Note_on_c, 15, 50, 48
22, 21840, Note_on_c, 15, 65, 48
22, 21840, Note_on_c, 15, 69, 48
22, 21840, Note_on_c, 15, 62, 48
22, 21959, Note_on_c, 15, 62, 0
22, 21959, Note_on_c, 15, 50, 0
22, 21959, Note_on_c, 15, 65, 0
22, 21959, Note_on_c, 15, 69, 0
22, 21960, Note_on_c, 15, 49, 48
22, 21960, Note_on_c, 15, 67, 48
22, 21960, Note_on_c, 15, 69, 48
22, 21960, Note_on_c, 15, 64, 48
22, 22079, Note_on_c, 15, 64, 0
22, 22079, Note_on_c, 15, 49, 0
22, 22079, Note_on_c, 15, 67, 0
22, 22079, Note_on_c, 15, 69, 0
22, 22080, Note_on_c, 15, 50, 48
22, 22080, Note_on_c, 15, 65, 48
22, 22080, Note_on_c, 15, 69, 48
22, 22080, Note_on_c, 15, 62, 48
22, 22199, Note_on_c, 15, 62, 0
22, 22199, Note_on_c, 15, 50, 0
22, 22199, Note_on_c, 15, 65, 0
22, 22199, Note_on_c, 15, 69, 0
22, 22200, Note_on_c, 15, 48, 48
22, 22200, Note_on_c, 15, 64, 48
22, 22200, Note_on_c, 15, 69, 48
22, 22200, Note_on_c, 15, 57, 48
22, 22319, Note_on_c, 15, 57, 0
22, 22319, Note_on_c, 15, 48, 0
22, 22319, Note_on_c, 15, 64, 0
22, 22319, Note_on_c, 15, 69, 0
22, 22320, Note_on_c, 15, 47, 48
22, 22320, Note_on_c, 15, 62, 48
22, 22320, Note_on_c, 15, 65, 48
22, 22320, Note_on_c, 15, 69, 48
22, 22439, Note_on_c, 15, 69, 0
22, 22439, Note_on_c, 15, 47, 0
22, 22439, Note_on_c, 15, 62, 0
22, 22439, Note_on_c, 15, 65, 0
22, 22440, Note_on_c, 15, 46, 48
22, 22440, Note_on_c, 15, 62, 48
22, 22440, Note_on_c, 15, 68, 48
22, 22559, Note_on_c, 15, 68, 0
22, 22559, Note_on_c, 15, 62, 0
22, 22559, Note_on_c, 15, 46, 0
22, 22560, Note_on_c, 15, 45, 48
22, 22560, Note_on_c, 15, 62, 48
22, 22560, Note_on_c, 15, 65, 48
22, 22560, Note_on_c, 15, 57, 48
22, 22679, Note_on_c, 15, 65, 0
22, 22679, Note_on_c, 15, 62, 0
22, 22680, Note_on_c, 15, 64, 48
22, 22680, Note_on_c, 15, 61, 48
22, 22739, Note_on_c, 15, 61, 0
22, 22739, Note_on_c, 15, 64, 0
22, 22740, Note_on_c, 15, 62, 48
22, 22740, Note_on_c, 15, 59, 48
22, 22799, Note_on_c, 15, 59, 0
22, 22799, Note_on_c, 15, 57, 0
22, 22799, Note_on_c, 15, 45, 0
22, 22799, Note_on_c, 15, 62, 0
22, 22800, Note_on_c, 15, 45, 48
22, 22800, Note_on_c, 15, 57, 48
22, 22800, Note_on_c, 15, 61, 48
22, 22800, Note_on_c, 15, 64, 48
22, 23039, Note_on_c, 15, 64, 0
22, 23039, Note_on_c, 15, 45, 0
22, 23039, Note_on_c, 15, 57, 0
22, 23039, Note_on_c, 15, 61, 0
22, 23040, Note_on_c, 15, 57, 72
22, 23219, Note_on_c, 15, 57, 0
22, 23220, Note_on_c, 15, 57, 72
22, 23279, Note_on_c, 15, 57, 0
22, 23280, Note_on_c, 15, 53, 72
22, 23399, Note_on_c, 15, 53, 0
22, 23400, Note_on_c, 15, 58, 72
22, 23519, Note_on_c, 15, 58, 0
22, 23520, Note_on_c, 15, 49, 72
22, 23580, Note_on_c, 15, 64, 72
22, 23639, Note_on_c, 15, 64, 0
22, 23640, Note_on_c, 15, 64, 72
22, 23699, Note_on_c, 15, 64, 0
22, 23699, Note_on_c, 15, 49, 0
22, 23700, Note_on_c, 15, 64, 72
22, 23700, Note_on_c, 15, 49, 72
22, 23759, Note_on_c, 15, 49, 0
22, 23759, Note_on_c, 15, 64, 0
22, 23760, Note_on_c, 15, 65, 72
22, 23760, Note_on_c, 15, 50, 72
22, 23789, Note_on_c, 15, 65, 0
22, 23790, Note_on_c, 15, 67, 72
22, 23819, Note_on_c, 15, 67, 0
22, 23820, Note_on_c, 15, 65, 72
22, 23849, Note_on_c, 15, 65, 0
22, 23850, Note_on_c, 15, 64, 72
22, 23879, Note_on_c, 15, 64, 0
22, 23879, Note_on_c, 15, 50, 0
22, 23880, Note_on_c, 15, 65, 72
22, 23909, Note_on_c, 15, 65, 0
22, 23910, Note_on_c, 15, 67, 72
22, 23939, Note_on_c, 15, 67, 0
22, 23940, Note_on_c, 15, 64, 72
22, 23940, Note_on_c, 15, 50, 72
22, 23969, Note_on_c, 15, 64, 0
22, 23970, Note_on_c, 15, 65, 72
22, 23999, Note_on_c, 15, 65, 0
22, 23999, Note_on_c, 15, 50, 0
22, 24000, Note_on_c, 15, 52, 72
22, 24000, Note_on_c, 15, 67, 72
22, 24029, Note_on_c, 15, 67, 0
22, 24030, Note_on_c, 15, 69, 72
22, 24059, Note_on_c, 15, 69, 0
22, 24060, Note_on_c, 15, 67, 72
22, 24089, Note_on_c, 15, 67, 0
22, 24090, Note_on_c, 15, 65, 72
22, 24119, Note_on_c, 15, 65, 0
22, 24120, Note_on_c, 15, 67, 72
22, 24149, Note_on_c, 15, 67, 0
22, 24150, Note_on_c, 15, 69, 72
22, 24179, Note_on_c, 15, 69, 0
22, 24179, Note_on_c, 15, 52, 0
22, 24180, Note_on_c, 15, 65, 72
22, 24180, Note_on_c, 15, 50, 72
22, 24209, Note_on_c, 15, 50, 0
22, 24209, Note_on_c, 15, 65, 0
22, 24210, Note_on_c, 15, 67, 72
22, 24210, Note_on_c, 15, 52, 72
22, 24239, Note_on_c, 15, 52, 0
22, 24239, Note_on_c, 15, 67, 0
22, 24240, Note_on_c, 15, 53, 72
22, 24240, Note_on_c, 15, 69, 72
22, 24299, Note_on_c, 15, 69, 0
22, 24299, Note_on_c, 15, 53, 0
22, 24300, Note_on_c, 15, 52, 72
22, 24300, Note_on_c, 15, 70, 72
22, 24329, Note_on_c, 15, 70, 0
22, 24329, Note_on_c, 15, 52, 0
22, 24330, Note_on_c, 15, 69, 72
22, 24330, Note_on_c, 15, 53, 72
22, 24359, Note_on_c, 15, 53, 0
22, 24359, Note_on_c, 15, 69, 0
22, 24360, Note_on_c, 15, 55, 72
22, 24360, Note_on_c, 15, 67, 72
22, 24389, Note_on_c, 15, 67, 0
22, 24390, Note_on_c, 15, 65, 72
22, 24419, Note_on_c, 15, 65, 0
22, 24419, Note_on_c, 15, 55, 0
22, 24420, Note_on_c, 15, 53, 72
22, 24420, Note_on_c, 15, 64, 72
22, 24449, Note_on_c, 15, 64, 0
22, 24449, Note_on_c, 15, 53, 0
22, 24450, Note_on_c, 15, 55, 72
22, 24450, Note_on_c, 15, 62, 72
22, 24479, Note_on_c, 15, 62, 0
22, 24479, Note_on_c, 15, 55, 0
22, 24480, Note_on_c, 15, 57, 72
22, 24480, Note_on_c, 15, 61, 72
22, 24539, Note_on_c, 15, 61, 0
22, 24539, Note_on_c, 15, 57, 0
22, 24540, Note_on_c, 15, 55, 72
22, 24540, Note_on_c, 15, 64, 72
22, 24599, Note_on_c, 15, 64, 0
22, 24599, Note_on_c, 15, 55, 0
22, 24600, Note_on_c, 15, 53, 72
22, 24600, Note_on_c, 15, 65, 72
22, 24659, Note_on_c, 15, 65, 0
22, 24659, Note_on_c, 15, 53, 0
22, 24660, Note_on_c, 15, 64, 72
22, 24660, Note_on_c, 15, 52, 72
22, 24719, Note_on_c, 15, 52, 0
22, 24719, Note_on_c, 15, 64, 0
22, 24720, Note_on_c, 15, 50, 72
22, 24779, Note_on_c, 15, 50, 0
22, 24780, Note_on_c, 15, 67, 72
22, 24780, Note_on_c, 15, 70, 72
22, 24780, Note_on_c, 15, 74, 72
22, 24780, Note_on_c, 15, 48, 72
22, 24780, Note_on_c, 15, 64, 72
22, 24839, Note_on_c, 15, 64, 0
22, 24839, Note_on_c, 15, 74, 0
22, 24839, Note_on_c, 15, 67, 0
22, 24839, Note_on_c, 15, 70, 0
22, 24839, Note_on_c, 15, 48, 0
22, 24840, Note_on_c, 15, 47, 72
22, 24840, Note_on_c, 15, 74, 72
22, 24840, Note_on_c, 15, 66, 72
22, 24899, Note_on_c, 15, 66, 0
22, 24899, Note_on_c, 15, 74, 0
22, 24899, Note_on_c, 15, 47, 0
22, 24900, Note_on_c, 15, 52, 72
22, 24900, Note_on_c, 15, 68, 72
22, 24900, Note_on_c, 15, 71, 72
22, 24900, Note_on_c, 15, 74, 72
22, 24959, Note_on_c, 15, 74, 0
22, 24959, Note_on_c, 15, 52, 0
22, 24959, Note_on_c, 15, 68, 0
22, 24959, Note_on_c, 15, 71, 0
22, 24960, Note_on_c, 15, 45, 72
22, 24960, Note_on_c, 15, 72, 72
22, 24960, Note_on_c, 15, 64, 72
22, 24960, Note_on_c, 15, 69, 72
22, 25019, Note_on_c, 15, 45, 0
22, 25020, Note_on_c, 15, 53, 72
22, 25049, Note_on_c, 15, 53, 0
22, 25050, Note_on_c, 15, 52, 72
22, 25079, Note_on_c, 15, 52, 0
22, 25079, Note_on_c, 15, 72, 0
22, 25079, Note_on_c, 15, 64, 0
22, 25079, Note_on_c, 15, 69, 0
22, 25080, Note_on_c, 15, 50, 72
22, 25080, Note_on_c, 15, 77, 72
22, 25080, Note_on_c, 15, 69, 72
22, 25080, Note_on_c, 15, 74, 72
22, 25109, Note_on_c, 15, 50, 0
22, 25110, Note_on_c, 15, 47, 72
22, 25139, Note_on_c, 15, 47, 0
22, 25140, Note_on_c, 15, 48, 72
22, 25169, Note_on_c, 15, 48, 0
22, 25170, Note_on_c, 15, 50, 72
22, 25199, Note_on_c, 15, 50, 0
22, 25199, Note_on_c, 15, 74, 0
22, 25199, Note_on_c, 15, 69, 0
22, 25199, Note_on_c, 15, 77, 0
22, 25200, Note_on_c, 15, 52, 72
22, 25200, Note_on_c, 15, 68, 72
22, 25200, Note_on_c, 15, 71, 72
22, 25319, Note_on_c, 15, 71, 0
22, 25319, Note_on_c, 15, 68, 0
22, 25319, Note_on_c, 15, 52, 0
22, 25380, Note_on_c, 15, 52, 72
22, 25380, Note_on_c, 15, 71, 72
22, 25380, Note_on_c, 15, 68, 72
22, 25439, Note_on_c, 15, 68, 0
22, 25439, Note_on_c, 15, 71, 0
22, 25439, Note_on_c, 15, 52, 0
22, 25440, Note_on_c, 15, 57, 72
22, 25440, Note_on_c, 15, 60, 72
22, 25440, Note_on_c, 15, 64, 72
22, 25499, Note_on_c, 15, 57, 0
22, 25500, Note_on_c, 15, 45, 72
22, 25559, Note_on_c, 15, 45, 0
22, 25559, Note_on_c, 15, 64, 0
22, 25559, Note_on_c, 15, 60, 0
22, 25560, Note_on_c, 15, 57, 72
22, 25560, Note_on_c, 15, 60, 72
22, 25560, Note_on_c, 15, 64, 72
22, 25679, Note_on_c, 15, 64, 0
22, 25679, Note_on_c, 15, 60, 0
22, 25680, Note_on_c, 15, 71, 72
22, 25680, Note_on_c, 15, 62, 72
22, 25680, Note_on_c, 15, 65, 72
22, 25799, Note_on_c, 15, 65, 0
22, 25799, Note_on_c, 15, 57, 0
22, 25799, Note_on_c, 15, 71, 0
22, 25799, Note_on_c, 15, 62, 0
22, 25800, Note_on_c, 15, 55, 72
22, 25800, Note_on_c, 15, 71, 72
22, 25800, Note_on_c, 15, 62, 72
22, 25800, Note_on_c, 15, 65, 72
22, 25829, Note_on_c, 15, 55, 0
22, 25830, Note_on_c, 15, 53, 72
22, 25859, Note_on_c, 15, 53, 0
22, 25860, Note_on_c, 15, 52, 72
22, 25889, Note_on_c, 15, 52, 0
22, 25890, Note_on_c, 15, 50, 72
22, 25919, Note_on_c, 15, 50, 0
22, 25919, Note_on_c, 15, 65, 0
22, 25919, Note_on_c, 15, 62, 0
22, 25919, Note_on_c, 15, 71, 0
22, 25920, Note_on_c, 15, 48, 72
22, 25920, Note_on_c, 15, 64, 72
22, 25920, Note_on_c, 15, 67, 72
22, 26039, Note_on_c, 15, 67, 0
22, 26039, Note_on_c, 15, 64, 0
22, 26039, Note_on_c, 15, 48, 0
22, 26040, Note_on_c, 15, 47, 72
22, 26040, Note_on_c, 15, 62, 72
22, 26040, Note_on_c, 15, 65, 72
22, 26040, Note_on_c, 15, 69, 72
22, 26099, Note_on_c, 15, 47, 0
22, 26100, Note_on_c, 15, 53, 72
22, 26159, Note_on_c, 15, 53, 0
22, 26159, Note_on_c, 15, 69, 0
22, 26159, Note_on_c, 15, 65, 0
22, 26159, Note_on_c, 15, 62, 0
22, 26160, Note_on_c, 15, 52, 72
22, 26160, Note_on_c, 15, 68, 72
22, 26160, Note_on_c, 15, 71, 72
22, 26160, Note_on_c, 15, 76, 72
22, 26219, Note_on_c, 15, 76, 0
22, 26219, Note_on_c, 15, 71, 0
22, 26219, Note_on_c, 15, 68, 0
22, 26220, Note_on_c, 15, 68, 72
22, 26220, Note_on_c, 15, 71, 72
22, 26220, Note_on_c, 15, 74, 72
22, 26249, Note_on_c, 15, 52, 0
22, 26250, Note_on_c, 15, 54, 72
22, 26279, Note_on_c, 15, 54, 0
22, 26279, Note_on_c, 15, 74, 0
22, 26279, Note_on_c, 15, 71, 0
22, 26279, Note_on_c, 15, 68, 0
22, 26280, Note_on_c, 15, 56, 72
22, 26280, Note_on_c, 15, 72, 72
22, 26280, Note_on_c, 15, 64, 72
22, 26309, Note_on_c, 15, 56, 0
22, 26310, Note_on_c, 15, 57, 72
22, 26339, Note_on_c, 15, 57, 0
22, 26339, Note_on_c, 15, 64, 0
22, 26339, Note_on_c, 15, 72, 0
22, 26340, Note_on_c, 15, 54, 72
22, 26340, Note_on_c, 15, 71, 72
22, 26340, Note_on_c, 15, 62, 72
22, 26369, Note_on_c, 15, 54, 0
22, 26370, Note_on_c, 15, 56, 72
22, 26399, Note_on_c, 15, 56, 0
22, 26399, Note_on_c, 15, 62, 0
22, 26399, Note_on_c, 15, 71, 0
22, 26400, Note_on_c, 15, 57, 72
22, 26400, Note_on_c, 15, 60, 72
22, 26400, Note_on_c, 15, 64, 72
22, 26400, Note_on_c, 15, 69, 72
22, 26459, Note_on_c, 15, 69, 0
22, 26459, Note_on_c, 15, 57, 0
22, 26459, Note_on_c, 15, 60, 0
22, 26459, Note_on_c, 15, 64, 0
22, 26460, Note_on_c, 15, 45, 72
22, 26460, Note_on_c, 15, 61, 72
22, 26460, Note_on_c, 15, 64, 72
22, 26460, Note_on_c, 15, 69, 72
22, 26519, Note_on_c, 15, 69, 0
22, 26519, Note_on_c, 15, 45, 0
22, 26519, Note_on_c, 15, 61, 0
22, 26519, Note_on_c, 15, 64, 0
22, 26520, Note_on_c, 15, 47, 72
22, 26520, Note_on_c, 15, 62, 72
22, 26520, Note_on_c, 15, 77, 72
22, 26520, Note_on_c, 15, 69, 72
22, 26579, Note_on_c, 15, 69, 0
22, 26579, Note_on_c, 15, 47, 0
22, 26579, Note_on_c, 15, 62, 0
22, 26579, Note_on_c, 15, 77, 0
22, 26580, Note_on_c, 15, 49, 72
22, 26580, Note_on_c, 15, 76, 72
22, 26580, Note_on_c, 15, 67, 72
22, 26580, Note_on_c, 15, 69, 72
22, 26639, Note_on_c, 15, 69, 0
22, 26639, Note_on_c, 15, 49, 0
22, 26639, Note_on_c, 15, 76, 0
22, 26639, Note_on_c, 15, 67, 0
22, 26640, Note_on_c, 15, 50, 72
22, 26640, Note_on_c, 15, 65, 72
22, 26640, Note_on_c, 15, 69, 72
22, 26699, Note_on_c, 15, 50, 0
22, 26700, Note_on_c, 15, 50, 72
22, 26759, Note_on_c, 15, 50, 0
22, 26759, Note_on_c, 15, 69, 0
22, 26759, Note_on_c, 15, 65, 0
22, 26760, Note_on_c, 15, 55, 72
22, 26760, Note_on_c, 15, 58, 72
22, 26760, Note_on_c, 15, 62, 72
22, 26819, Note_on_c, 15, 62, 0
22, 26819, Note_on_c, 15, 55, 0
22, 26820, Note_on_c, 15, 53, 72
22, 26820, Note_on_c, 15, 67, 72
22, 26879, Note_on_c, 15, 67, 0
22, 26879, Note_on_c, 15, 53, 0
22, 26879, Note_on_c, 15, 58, 0
22, 26880, Note_on_c, 15, 52, 72
22, 26880, Note_on_c, 15, 58, 72
22, 26880, Note_on_c, 15, 67, 72
22, 26880, Note_on_c, 15, 61, 72
22, 26939, Note_on_c, 15, 52, 0
22, 26940, Note_on_c, 15, 52, 72
22, 26999, Note_on_c, 15, 52, 0
22, 27000, Note_on_c, 15, 52, 72
22, 27059, Note_on_c, 15, 52, 0
22, 27060, Note_on_c, 15, 52, 72
22, 27119, Note_on_c, 15, 52, 0
22, 27119, Note_on_c, 15, 61, 0
22, 27119, Note_on_c, 15, 67, 0
22, 27119, Note_on_c, 15, 58, 0
22, 27120, Note_on_c, 15, 53, 72
22, 27120, Note_on_c, 15, 69, 72
22, 27120, Note_on_c, 15, 62, 72
22, 27149, Note_on_c, 15, 53, 0
22, 27150, Note_on_c, 15, 55, 72
22, 27179, Note_on_c, 15, 55, 0
22, 27180, Note_on_c, 15, 53, 72
22, 27209, Note_on_c, 15, 53, 0
22, 27210, Note_on_c, 15, 52, 72
22, 27239, Note_on_c, 15, 52, 0
22, 27240, Note_on_c, 15, 53, 72
22, 27269, Note_on_c, 15, 53, 0
22, 27270, Note_on_c, 15, 55, 72
22, 27299, Note_on_c, 15, 55, 0
22, 27300, Note_on_c, 15, 52, 72
22, 27329, Note_on_c, 15, 52, 0
22, 27330, Note_on_c, 15, 53, 72
22, 27359, Note_on_c, 15, 53, 0
22, 27359, Note_on_c, 15, 62, 0
22, 27359, Note_on_c, 15, 69, 0
22, 27360, Note_on_c, 15, 55, 72
22, 27360, Note_on_c, 15, 70, 72
22, 27360, Note_on_c, 15, 74, 72
22, 27360, Note_on_c, 15, 65, 72
22, 27389, Note_on_c, 15, 55, 0
22, 27390, Note_on_c, 15, 57, 72
22, 27419, Note_on_c, 15, 57, 0
22, 27420, Note_on_c, 15, 55, 72
22, 27449, Note_on_c, 15, 55, 0
22, 27450, Note_on_c, 15, 53, 72
22, 27479, Note_on_c, 15, 53, 0
22, 27480, Note_on_c, 15, 55, 72
22, 27509, Note_on_c, 15, 55, 0
22, 27510, Note_on_c, 15, 57, 72
22, 27539, Note_on_c, 15, 57, 0
22, 27540, Note_on_c, 15, 53, 72
22, 27569, Note_on_c, 15, 53, 0
22, 27570, Note_on_c, 15, 55, 72
22, 27599, Note_on_c, 15, 55, 0
22, 27599, Note_on_c, 15, 65, 0
22, 27599, Note_on_c, 15, 74, 0
22, 27599, Note_on_c, 15, 70, 0
22, 27600, Note_on_c, 15, 57, 72
22, 27600, Note_on_c, 15, 74, 72
22, 27600, Note_on_c, 15, 65, 72
22, 27600, Note_on_c, 15, 69, 72
22, 27659, Note_on_c, 15, 69, 0
22, 27659, Note_on_c, 15, 57, 0
22, 27659, Note_on_c, 15, 74, 0
22, 27659, Note_on_c, 15, 65, 0
22, 27660, Note_on_c, 15, 58, 72
22, 27660, Note_on_c, 15, 73, 72
22, 27660, Note_on_c, 15, 65, 72
22, 27660, Note_on_c, 15, 69, 72
22, 27689, Note_on_c, 15, 58, 0
22, 27690, Note_on_c, 15, 57, 72
22, 27719, Note_on_c, 15, 57, 0
22, 27719, Note_on_c, 15, 69, 0
22, 27719, Note_on_c, 15, 65, 0
22, 27719, Note_on_c, 15, 73, 0
22, 27720, Note_on_c, 15, 67, 72
22, 27720, Note_on_c, 15, 55, 72
22, 27720, Note_on_c, 15, 70, 72
22, 27720, Note_on_c, 15, 76, 72
22, 27749, Note_on_c, 15, 55, 0
22, 27750, Note_on_c, 15, 53, 72
22, 27779, Note_on_c, 15, 53, 0
22, 27780, Note_on_c, 15, 52, 72
22, 27809, Note_on_c, 15, 52, 0
22, 27810, Note_on_c, 15, 50, 72
22, 27839, Note_on_c, 15, 50, 0
22, 27839, Note_on_c, 15, 76, 0
22, 27839, Note_on_c, 15, 70, 0
22, 27839, Note_on_c, 15, 67, 0
22, 27840, Note_on_c, 15, 76, 72
22, 27840, Note_on_c, 15, 49, 72
22, 27840, Note_on_c, 15, 67, 72
22, 27840, Note_on_c, 15, 69, 72
22, 27899, Note_on_c, 15, 49, 0
22, 27900, Note_on_c, 15, 52, 72
22, 27959, Note_on_c, 15, 52, 0
22, 27959, Note_on_c, 15, 69, 0
22, 27959, Note_on_c, 15, 67, 0
22, 27959, Note_on_c, 15, 76, 0
22, 27960, Note_on_c, 15, 57, 72
22, 27960, Note_on_c, 15, 74, 72
22, 27960, Note_on_c, 15, 65, 72
22, 28019, Note_on_c, 15, 65, 0
22, 28019, Note_on_c, 15, 74, 0
22, 28019, Note_on_c, 15, 57, 0
22, 28020, Note_on_c, 15, 55, 72
22, 28020, Note_on_c, 15, 69, 72
22, 28020, Note_on_c, 15, 73, 72
22, 28079, Note_on_c, 15, 73, 0
22, 28079, Note_on_c, 15, 69, 0
22, 28079, Note_on_c, 15, 55, 0
22, 28080, Note_on_c, 15, 53, 72
22, 28080, Note_on_c, 15, 69, 72
22, 28080, Note_on_c, 15, 74, 72
22, 28109, Note_on_c, 15, 53, 0
22, 28110, Note_on_c, 15, 52, 72
22, 28139, Note_on_c, 15, 52, 0
22, 28140, Note_on_c, 15, 50, 72
22, 28169, Note_on_c, 15, 50, 0
22, 28170, Note_on_c, 15, 48, 72
22, 28199, Note_on_c, 15, 48, 0
22, 28199, Note_on_c, 15, 74, 0
22, 28199, Note_on_c, 15, 69, 0
22, 28200, Note_on_c, 15, 47, 72
22, 28200, Note_on_c, 15, 62, 72
22, 28200, Note_on_c, 15, 66, 72
22, 28259, Note_on_c, 15, 66, 0
22, 28259, Note_on_c, 15, 62, 0
22, 28260, Note_on_c, 15, 68, 72
22, 28260, Note_on_c, 15, 62, 72
22, 28319, Note_on_c, 15, 62, 0
22, 28319, Note_on_c, 15, 68, 0
22, 28319, Note_on_c, 15, 47, 0
22, 28320, Note_on_c, 15, 48, 72
22, 28320, Note_on_c, 15, 64, 72
22, 28320, Note_on_c, 15, 69, 72
22, 28320, Note_on_c, 15, 60, 72
22, 28439, Note_on_c, 15, 60, 0
22, 28439, Note_on_c, 15, 48, 0
22, 28439, Note_on_c, 15, 64, 0
22, 28439, Note_on_c, 15, 69, 0
22, 28440, Note_on_c, 15, 50, 72
22, 28440, Note_on_c, 15, 65, 72
22, 28440, Note_on_c, 15, 69, 72
22, 28440, Note_on_c, 15, 72, 72
22, 28440, Note_on_c, 15, 64, 72
22, 28499, Note_on_c, 15, 64, 0
22, 28499, Note_on_c, 15, 69, 0
22, 28499, Note_on_c, 15, 72, 0
22, 28500, Note_on_c, 15, 62, 72
22, 28500, Note_on_c, 15, 71, 72
22, 28529, Note_on_c, 15, 71, 0
22, 28529, Note_on_c, 15, 62, 0
22, 28530, Note_on_c, 15, 60, 72
22, 28530, Note_on_c, 15, 69, 72
22, 28559, Note_on_c, 15, 69, 0
22, 28559, Note_on_c, 15, 50, 0
22, 28559, Note_on_c, 15, 65, 0
22, 28559, Note_on_c, 15, 60, 0
22, 28560, Note_on_c, 15, 52, 72
22, 28560, Note_on_c, 15, 68, 72
22, 28560, Note_on_c, 15, 71, 72
22, 28679, Note_on_c, 15, 71, 0
22, 28679, Note_on_c, 15, 68, 0
22, 28679, Note_on_c, 15, 52, 0
22, 28740, Note_on_c, 15, 52, 72
22, 28740, Note_on_c, 15, 68, 72
22, 28740, Note_on_c, 15, 71, 72
22, 28799, Note_on_c, 15, 71, 0
22, 28799, Note_on_c, 15, 68, 0
22, 28799, Note_on_c, 15, 52, 0
22, 28800, Note_on_c, 15, 57, 72
22, 28800, Note_on_c, 15, 72, 72
22, 28800, Note_on_c, 15, 64, 72
22, 28949, Note_on_c, 15, 57, 0
22, 28950, Note_on_c, 15, 55, 72
22, 28979, Note_on_c, 15, 55, 0
22, 28980, Note_on_c, 15, 53, 72
22, 29009, Note_on_c, 15, 53, 0
22, 29010, Note_on_c, 15, 52, 72
22, 29039, Note_on_c, 15, 52, 0
22, 29039, Note_on_c, 15, 64, 0
22, 29039, Note_on_c, 15, 72, 0
22, 29040, Note_on_c, 15, 53, 72
22, 29040, Note_on_c, 15, 69, 72
22, 29040, Note_on_c, 15, 59, 72
22, 29040, Note_on_c, 15, 62, 72
22, 29099, Note_on_c, 15, 53, 0
22, 29100, Note_on_c, 15, 50, 72
22, 29159, Note_on_c, 15, 50, 0
22, 29159, Note_on_c, 15, 62, 0
22, 29159, Note_on_c, 15, 59, 0
22, 29159, Note_on_c, 15, 69, 0
22, 29160, Note_on_c, 15, 55, 72
22, 29160, Note_on_c, 15, 59, 72
22, 29160, Note_on_c, 15, 74, 72
22, 29160, Note_on_c, 15, 67, 72
22, 29219, Note_on_c, 15, 67, 0
22, 29220, Note_on_c, 15, 65, 72
22, 29279, Note_on_c, 15, 65, 0
22, 29279, Note_on_c, 15, 74, 0
22, 29279, Note_on_c, 15, 59, 0
22, 29279, Note_on_c, 15, 55, 0
22, 29280, Note_on_c, 15, 48, 72
22, 29280, Note_on_c, 15, 64, 72
22, 29280, Note_on_c, 15, 69, 72
22, 29339, Note_on_c, 15, 48, 0
22, 29340, Note_on_c, 15, 45, 72
22, 29399, Note_on_c, 15, 45, 0
22, 29399, Note_on_c, 15, 69, 0
22, 29399, Note_on_c, 15, 64, 0
22, 29400, Note_on_c, 15, 53, 72
22, 29400, Note_on_c, 15, 69, 72
22, 29400, Note_on_c, 15, 62, 72
22, 29519, Note_on_c, 15, 62, 0
22, 29519, Note_on_c, 15, 69, 0
22, 29519, Note_on_c, 15, 53, 0
22, 29520, Note_on_c, 15, 52, 72
22, 29520, Note_on_c, 15, 68, 72
22, 29520, Note_on_c, 15, 71, 72
22, 29579, Note_on_c, 15, 71, 0
22, 29579, Note_on_c, 15, 68, 0
22, 29579, Note_on_c, 15, 52, 0
22, 29580, Note_on_c, 15, 62, 72
22, 29580, Note_on_c, 15, 64, 72
22, 29580, Note_on_c, 15, 68, 72
22, 29580, Note_on_c, 15, 71, 72
22, 29639, Note_on_c, 15, 71, 0
22, 29639, Note_on_c, 15, 62, 0
22, 29639, Note_on_c, 15, 64, 0
22, 29639, Note_on_c, 15, 68, 0
22, 29640, Note_on_c, 15, 60, 72
22, 29640, Note_on_c, 15, 76, 72
22, 29640, Note_on_c, 15, 66, 72
22, 29640, Note_on_c, 15, 69, 72
22, 29699, Note_on_c, 15, 69, 0
22, 29699, Note_on_c, 15, 60, 0
22, 29699, Note_on_c, 15, 76, 0
22, 29699, Note_on_c, 15, 66, 0
22, 29700, Note_on_c, 15, 59, 72
22, 29700, Note_on_c, 15, 74, 72
22, 29700, Note_on_c, 15, 68, 72
22, 29759, Note_on_c, 15, 68, 0
22, 29759, Note_on_c, 15, 74, 0
22, 29759, Note_on_c, 15, 59, 0
22, 29760, Note_on_c, 15, 57, 72
22, 29760, Note_on_c, 15, 72, 72
22, 29760, Note_on_c, 15, 65, 72
22, 29760, Note_on_c, 15, 69, 72
22, 29819, Note_on_c, 15, 57, 0
22, 29820, Note_on_c, 15, 57, 72
22, 29849, Note_on_c, 15, 57, 0
22, 29850, Note_on_c, 15, 55, 72
22, 29879, Note_on_c, 15, 55, 0
22, 29879, Note_on_c, 15, 72, 0
22, 29879, Note_on_c, 15, 65, 0
22, 29879, Note_on_c, 15, 69, 0
22, 29880, Note_on_c, 15, 53, 72
22, 29880, Note_on_c, 15, 69, 72
22, 29880, Note_on_c, 15, 72, 72
22, 29939, Note_on_c, 15, 72, 0
22, 29939, Note_on_c, 15, 69, 0
22, 29939, Note_on_c, 15, 53, 0
22, 29940, Note_on_c, 15, 51, 72
22, 29940, Note_on_c, 15, 67, 72
22, 29940, Note_on_c, 15, 73, 72
22, 29999, Note_on_c, 15, 73, 0
22, 29999, Note_on_c, 15, 67, 0
22, 29999, Note_on_c, 15, 51, 0
22, 30000, Note_on_c, 15, 50, 72
22, 30000, Note_on_c, 15, 66, 72
22, 30000, Note_on_c, 15, 69, 72
22, 30059, Note_on_c, 15, 69, 0
22, 30059, Note_on_c, 15, 66, 0
22, 30059, Note_on_c, 15, 50, 0
22, 30060, Note_on_c, 15, 50, 72
22, 30060, Note_on_c, 15, 66, 72
22, 30060, Note_on_c, 15, 69, 72
22, 30119, Note_on_c, 15, 69, 0
22, 30119, Note_on_c, 15, 66, 0
22, 30119, Note_on_c, 15, 50, 0
22, 30120, Note_on_c, 15, 52, 72
22, 30120, Note_on_c, 15, 70, 72
22, 30120, Note_on_c, 15, 67, 72
22, 30120, Note_on_c, 15, 74, 72
22, 30179, Note_on_c, 15, 74, 0
22, 30179, Note_on_c, 15, 52, 0
22, 30179, Note_on_c, 15, 70, 0
22, 30179, Note_on_c, 15, 67, 0
22, 30180, Note_on_c, 15, 54, 72
22, 30180, Note_on_c, 15, 72, 72
22, 30180, Note_on_c, 15, 64, 72
22, 30180, Note_on_c, 15, 69, 72
22, 30239, Note_on_c, 15, 69, 0
22, 30239, Note_on_c, 15, 54, 0
22, 30239, Note_on_c, 15, 72, 0
22, 30239, Note_on_c, 15, 64, 0
22, 30240, Note_on_c, 15, 55, 72
22, 30240, Note_on_c, 15, 70, 72
22, 30240, Note_on_c, 15, 62, 72
22, 30299, Note_on_c, 15, 55, 0
22, 30300, Note_on_c, 15, 55, 72
22, 30329, Note_on_c, 15, 55, 0
22, 30330, Note_on_c, 15, 53, 72
22, 30359, Note_on_c, 15, 53, 0
22, 30359, Note_on_c, 15, 62, 0
22, 30359, Note_on_c, 15, 70, 0
22, 30360, Note_on_c, 15, 70, 72
22, 30360, Note_on_c, 15, 52, 72
22, 30360, Note_on_c, 15, 67, 72
22, 30419, Note_on_c, 15, 67, 0
22, 30419, Note_on_c, 15, 52, 0
22, 30419, Note_on_c, 15, 70, 0
22, 30420, Note_on_c, 15, 50, 72
22, 30420, Note_on_c, 15, 65, 72
22, 30420, Note_on_c, 15, 71, 72
22, 30479, Note_on_c, 15, 71, 0
22, 30479, Note_on_c, 15, 65, 0
22, 30479, Note_on_c, 15, 50, 0
22, 30480, Note_on_c, 15, 48, 72
22, 30480, Note_on_c, 15, 72, 72
22, 30480, Note_on_c, 15, 67, 72
22, 30480, Note_on_c, 15, 64, 72
22, 30539, Note_on_c, 15, 72, 0
22, 30540, Note_on_c, 15, 70, 72
22, 30599, Note_on_c, 15, 70, 0
22, 30599, Note_on_c, 15, 64, 0
22, 30599, Note_on_c, 15, 67, 0
22, 30599, Note_on_c, 15, 48, 0
22, 30600, Note_on_c, 15, 50, 72
22, 30600, Note_on_c, 15, 65, 72
22, 30600, Note_on_c, 15, 69, 72
22, 30600, Note_on_c, 15, 72, 72
22, 30659, Note_on_c, 15, 72, 0
22, 30659, Note_on_c, 15, 50, 0
22, 30659, Note_on_c, 15, 65, 0
22, 30659, Note_on_c, 15, 69, 0
22, 30660, Note_on_c, 15, 70, 72
22, 30660, Note_on_c, 15, 52, 72
22, 30660, Note_on_c, 15, 67, 72
22, 30660, Note_on_c, 15, 72, 72
22, 30719, Note_on_c, 15, 72, 0
22, 30719, Note_on_c, 15, 70, 0
22, 30719, Note_on_c, 15, 52, 0
22, 30719, Note_on_c, 15, 67, 0
22, 30720, Note_on_c, 15, 53, 72
22, 30720, Note_on_c, 15, 69, 72
22, 30720, Note_on_c, 15, 72, 72
22, 30720, Note_on_c, 15, 65, 72
22, 30779, Note_on_c, 15, 65, 0
22, 30779, Note_on_c, 15, 53, 0
22, 30779, Note_on_c, 15, 69, 0
22, 30779, Note_on_c, 15, 72, 0
22, 30780, Note_on_c, 15, 55, 72
22, 30780, Note_on_c, 15, 70, 72
22, 30780, Note_on_c, 15, 62, 72
22, 30780, Note_on_c, 15, 67, 72
22, 30809, Note_on_c, 15, 55, 0
22, 30810, Note_on_c, 15, 57, 72
22, 30839, Note_on_c, 15, 57, 0
22, 30839, Note_on_c, 15, 67, 0
22, 30839, Note_on_c, 15, 62, 0
22, 30839, Note_on_c, 15, 70, 0
22, 30840, Note_on_c, 15, 58, 72
22, 30840, Note_on_c, 15, 74, 72
22, 30840, Note_on_c, 15, 65, 72
22, 30840, Note_on_c, 15, 67, 72
22, 30869, Note_on_c, 15, 58, 0
22, 30870, Note_on_c, 15, 55, 72
22, 30899, Note_on_c, 15, 55, 0
22, 30900, Note_on_c, 15, 57, 72
22, 30929, Note_on_c, 15, 57, 0
22, 30930, Note_on_c, 15, 58, 72
22, 30959, Note_on_c, 15, 58, 0
22, 30959, Note_on_c, 15, 67, 0
22, 30959, Note_on_c, 15, 65, 0
22, 30959, Note_on_c, 15, 74, 0
22, 30960, Note_on_c, 15, 60, 72
22, 30960, Note_on_c, 15, 64, 72
22, 30960, Note_on_c, 15, 67, 72
22, 30960, Note_on_c, 15, 72, 72
22, 31019, Note_on_c, 15, 72, 0
22, 31019, Note_on_c, 15, 60, 0
22, 31019, Note_on_c, 15, 64, 0
22, 31019, Note_on_c, 15, 67, 0
22, 31020, Note_on_c, 15, 48, 72
22, 31020, Note_on_c, 15, 64, 72
22, 31020, Note_on_c, 15, 67, 72
22, 31020, Note_on_c, 15, 60, 72
22, 31049, Note_on_c, 15, 48, 0
22, 31080, Note_on_c, 15, 48, 72
22, 31109, Note_on_c, 15, 48, 0
22, 31139, Note_on_c, 15, 60, 0
22, 31139, Note_on_c, 15, 67, 0
22, 31139, Note_on_c, 15, 64, 0
22, 31140, Note_on_c, 15, 48, 72
22, 31140, Note_on_c, 15, 64, 72
22, 31140, Note_on_c, 15, 67, 72
22, 31140, Note_on_c, 15, 58, 72
22, 31169, Note_on_c, 15, 48, 0
22, 31199, Note_on_c, 15, 64, 0
22, 31199, Note_on_c, 15, 67, 0
22, 31199, Note_on_c, 15, 58, 0
22, 31200, Note_on_c, 15, 50, 72
22, 31200, Note_on_c, 15, 69, 72
22, 31200, Note_on_c, 15, 65, 72
22, 31200, Note_on_c, 15, 57, 72
22, 31229, Note_on_c, 15, 50, 0
22, 31230, Note_on_c, 15, 52, 72
22, 31259, Note_on_c, 15, 52, 0
22, 31259, Note_on_c, 15, 57, 0
22, 31259, Note_on_c, 15, 65, 0
22, 31259, Note_on_c, 15, 69, 0
22, 31260, Note_on_c, 15, 50, 72
22, 31260, Note_on_c, 15, 65, 72
22, 31260, Note_on_c, 15, 70, 72
22, 31289, Note_on_c, 15, 50, 0
22, 31290, Note_on_c, 15, 48, 72
22, 31319, Note_on_c, 15, 48, 0
22, 31320, Note_on_c, 15, 50, 72
22, 31349, Note_on_c, 15, 50, 0
22, 31350, Note_on_c, 15, 52, 72
22, 31379, Note_on_c, 15, 52, 0
22, 31380, Note_on_c, 15, 48, 72
22, 31409, Note_on_c, 15, 48, 0
22, 31410, Note_on_c, 15, 50, 72
22, 31439, Note_on_c, 15, 50, 0
22, 31439, Note_on_c, 15, 70, 0
22, 31439, Note_on_c, 15, 65, 0
22, 31440, Note_on_c, 15, 52, 72
22, 31440, Note_on_c, 15, 67, 72
22, 31440, Note_on_c, 15, 70, 72
22, 31440, Note_on_c, 15, 60, 72
22, 31469, Note_on_c, 15, 52, 0
22, 31470, Note_on_c, 15, 53, 72
22, 31499, Note_on_c, 15, 53, 0
22, 31500, Note_on_c, 15, 52, 72
22, 31529, Note_on_c, 15, 52, 0
22, 31530, Note_on_c, 15, 50, 72
22, 31559, Note_on_c, 15, 50, 0
22, 31560, Note_on_c, 15, 52, 72
22, 31589, Note_on_c, 15, 52, 0
22, 31590, Note_on_c, 15, 53, 72
22, 31619, Note_on_c, 15, 53, 0
22, 31620, Note_on_c, 15, 50, 72
22, 31649, Note_on_c, 15, 50, 0
22, 31650, Note_on_c, 15, 52, 72
22, 31679, Note_on_c, 15, 52, 0
22, 31679, Note_on_c, 15, 60, 0
22, 31679, Note_on_c, 15, 70, 0
22, 31679, Note_on_c, 15, 67, 0
22, 31680, Note_on_c, 15, 53, 72
22, 31680, Note_on_c, 15, 69, 72
22, 31680, Note_on_c, 15, 72, 72
22, 31680, Note_on_c, 15, 65, 72
22, 31739, Note_on_c, 15, 65, 0
22, 31739, Note_on_c, 15, 53, 0
22, 31739, Note_on_c, 15, 69, 0
22, 31739, Note_on_c, 15, 72, 0
22, 31740, Note_on_c, 15, 55, 72
22, 31740, Note_on_c, 15, 70, 72
22, 31740, Note_on_c, 15, 64, 72
22, 31769, Note_on_c, 15, 64, 0
22, 31769, Note_on_c, 15, 70, 0
22, 31769, Note_on_c, 15, 55, 0
22, 31770, Note_on_c, 15, 53, 72
22, 31770, Note_on_c, 15, 72, 72
22, 31770, Note_on_c, 15, 69, 72
22, 31799, Note_on_c, 15, 69, 0
22, 31799, Note_on_c, 15, 72, 0
22, 31799, Note_on_c, 15, 53, 0
22, 31800, Note_on_c, 15, 52, 72
22, 31800, Note_on_c, 15, 67, 72
22, 31800, Note_on_c, 15, 70, 72
22, 31800, Note_on_c, 15, 72, 72
22, 31829, Note_on_c, 15, 52, 0
22, 31830, Note_on_c, 15, 50, 72
22, 31859, Note_on_c, 15, 50, 0
22, 31860, Note_on_c, 15, 48, 72
22, 31889, Note_on_c, 15, 48, 0
22, 31890, Note_on_c, 15, 46, 72
22, 31919, Note_on_c, 15, 46, 0
22, 31919, Note_on_c, 15, 72, 0
22, 31919, Note_on_c, 15, 70, 0
22, 31919, Note_on_c, 15, 67, 0
22, 31920, Note_on_c, 15, 45, 72
22, 31920, Note_on_c, 15, 72, 72
22, 31920, Note_on_c, 15, 65, 72
22, 31979, Note_on_c, 15, 65, 0
22, 31979, Note_on_c, 15, 72, 0
22, 31979, Note_on_c, 15, 45, 0
22, 31980, Note_on_c, 15, 48, 72
22, 31980, Note_on_c, 15, 64, 72
22, 31980, Note_on_c, 15, 67, 72
22, 31980, Note_on_c, 15, 70, 72
22, 32039, Note_on_c, 15, 70, 0
22, 32039, Note_on_c, 15, 48, 0
22, 32039, Note_on_c, 15, 64, 0
22, 32039, Note_on_c, 15, 67, 0
22, 32040, Note_on_c, 15, 53, 72
22, 32040, Note_on_c, 15, 69, 72
22, 32040, Note_on_c, 15, 72, 72
22, 32099, Note_on_c, 15, 72, 0
22, 32099, Note_on_c, 15, 69, 0
22, 32099, Note_on_c, 15, 53, 0
22, 32100, Note_on_c, 15, 51, 72
22, 32100, Note_on_c, 15, 67, 72
22, 32100, Note_on_c, 15, 61, 72
22, 32159, Note_on_c, 15, 61, 0
22, 32159, Note_on_c, 15, 67, 0
22, 32159, Note_on_c, 15, 51, 0
22, 32160, Note_on_c, 15, 50, 72
22, 32160, Note_on_c, 15, 66, 72
22, 32160, Note_on_c, 15, 69, 72
22, 32219, Note_on_c, 15, 69, 0
22, 32219, Note_on_c, 15, 66, 0
22, 32219, Note_on_c, 15, 50, 0
22, 32220, Note_on_c, 15, 60, 72
22, 32220, Note_on_c, 15, 65, 72
22, 32220, Note_on_c, 15, 62, 72
22, 32279, Note_on_c, 15, 62, 0
22, 32279, Note_on_c, 15, 65, 0
22, 32280, Note_on_c, 15, 67, 72
22, 32280, Note_on_c, 15, 64, 72
22, 32339, Note_on_c, 15, 64, 0
22, 32339, Note_on_c, 15, 67, 0
22, 32339, Note_on_c, 15, 60, 0
22, 32340, Note_on_c, 15, 58, 72
22, 32340, Note_on_c, 15, 64, 72
22, 32340, Note_on_c, 15, 68, 72
22, 32369, Note_on_c, 15, 58, 0
22, 32370, Note_on_c, 15, 57, 72
22, 32399, Note_on_c, 15, 57, 0
22, 32399, Note_on_c, 15, 68, 0
22, 32399, Note_on_c, 15, 64, 0
22, 32400, Note_on_c, 15, 55, 72
22, 32400, Note_on_c, 15, 70, 72
22, 32400, Note_on_c, 15, 62, 72
22, 32429, Note_on_c, 15, 55, 0
22, 32430, Note_on_c, 15, 53, 72
22, 32459, Note_on_c, 15, 53, 0
22, 32460, Note_on_c, 15, 51, 72
22, 32489, Note_on_c, 15, 51, 0
22, 32490, Note_on_c, 15, 50, 72
22, 32519, Note_on_c, 15, 50, 0
22, 32519, Note_on_c, 15, 62, 0
22, 32519, Note_on_c, 15, 70, 0
22, 32520, Note_on_c, 15, 48, 72
22, 32520, Note_on_c, 15, 63, 72
22, 32520, Note_on_c, 15, 67, 72
22, 32549, Note_on_c, 15, 48, 0
22, 32550, Note_on_c, 15, 50, 72
22, 32579, Note_on_c, 15, 50, 0
22, 32580, Note_on_c, 15, 46, 72
22, 32609, Note_on_c, 15, 46, 0
22, 32610, Note_on_c, 15, 48, 72
22, 32639, Note_on_c, 15, 48, 0
22, 32639, Note_on_c, 15, 67, 0
22, 32639, Note_on_c, 15, 63, 0
22, 32640, Note_on_c, 15, 50, 72
22, 32640, Note_on_c, 15, 66, 72
22, 32640, Note_on_c, 15, 69, 72
22, 32699, Note_on_c, 15, 69, 0
22, 32700, Note_on_c, 15, 63, 72
22, 32700, Note_on_c, 15, 69, 72
22, 32759, Note_on_c, 15, 69, 0
22, 32759, Note_on_c, 15, 63, 0
22, 32760, Note_on_c, 15, 62, 72
22, 32760, Note_on_c, 15, 69, 72
22, 32819, Note_on_c, 15, 69, 0
22, 32819, Note_on_c, 15, 62, 0
22, 32819, Note_on_c, 15, 50, 0
22, 32820, Note_on_c, 15, 50, 72
22, 32820, Note_on_c, 15, 69, 72
22, 32820, Note_on_c, 15, 60, 72
22, 32879, Note_on_c, 15, 60, 0
22, 32879, Note_on_c, 15, 66, 0
22, 32879, Note_on_c, 15, 50, 0
22, 32879, Note_on_c, 15, 69, 0
22, 32880, Note_on_c, 15, 43, 72
22, 32880, Note_on_c, 15, 70, 72
22, 32880, Note_on_c, 15, 62, 72
22, 32880, Note_on_c, 15, 67, 72
22, 32999, Note_on_c, 15, 67, 0
22, 32999, Note_on_c, 15, 43, 0
22, 32999, Note_on_c, 15, 70, 0
22, 32999, Note_on_c, 15, 62, 0
22, 33060, Note_on_c, 15, 70, 72
22, 33060, Note_on_c, 15, 55, 72
22, 33060, Note_on_c, 15, 64, 72
22, 33119, Note_on_c, 15, 64, 0
22, 33119, Note_on_c, 15, 55, 0
22, 33119, Note_on_c, 15, 70, 0
22, 33120, Note_on_c, 15, 57, 72
22, 33120, Note_on_c, 15, 72, 72
22, 33120, Note_on_c, 15, 65, 72
22, 33299, Note_on_c, 15, 65, 0
22, 33299, Note_on_c, 15, 72, 0
22, 33299, Note_on_c, 15, 57, 0
22, 33300, Note_on_c, 15, 55, 72
22, 33300, Note_on_c, 15, 70, 72
22, 33300, Note_on_c, 15, 74, 72
22, 33329, Note_on_c, 15, 55, 0
22, 33330, Note_on_c, 15, 57, 72
22, 33359, Note_on_c, 15, 57, 0
22, 33359, Note_on_c, 15, 74, 0
22, 33359, Note_on_c, 15, 70, 0
22, 33360, Note_on_c, 15, 58, 72
22, 33360, Note_on_c, 15, 74, 72
22, 33360, Note_on_c, 15, 65, 72
22, 33419, Note_on_c, 15, 58, 0
22, 33420, Note_on_c, 15, 57, 72
22, 33449, Note_on_c, 15, 57, 0
22, 33450, Note_on_c, 15, 58, 72
22, 33479, Note_on_c, 15, 58, 0
22, 33479, Note_on_c, 15, 65, 0
22, 33479, Note_on_c, 15, 74, 0
22, 33480, Note_on_c, 15, 60, 72
22, 33480, Note_on_c, 15, 63, 72
22, 33480, Note_on_c, 15, 67, 72
22, 33539, Note_on_c, 15, 60, 0
22, 33540, Note_on_c, 15, 58, 72
22, 33569, Note_on_c, 15, 58, 0
22, 33570, Note_on_c, 15, 60, 72
22, 33599, Note_on_c, 15, 60, 0
22, 33599, Note_on_c, 15, 67, 0
22, 33599, Note_on_c, 15, 63, 0
22, 33600, Note_on_c, 15, 62, 72
22, 33600, Note_on_c, 15, 66, 72
22, 33600, Note_on_c, 15, 69, 72
22, 33659, Note_on_c, 15, 69, 0
22, 33659, Note_on_c, 15, 66, 0
22, 33659, Note_on_c, 15, 62, 0
22, 33660, Note_on_c, 15, 60, 72
22, 33660, Note_on_c, 15, 62, 72
22, 33660, Note_on_c, 15, 66, 72
22, 33719, Note_on_c, 15, 66, 0
22, 33719, Note_on_c, 15, 62, 0
22, 33719, Note_on_c, 15, 60, 0
22, 33720, Note_on_c, 15, 58, 72
22, 33720, Note_on_c, 15, 74, 72
22, 33720, Note_on_c, 15, 67, 72
22, 33779, Note_on_c, 15, 67, 0
22, 33779, Note_on_c, 15, 74, 0
22, 33779, Note_on_c, 15, 58, 0
22, 33780, Note_on_c, 15, 57, 72
22, 33780, Note_on_c, 15, 72, 72
22, 33780, Note_on_c, 15, 66, 72
22, 33839, Note_on_c, 15, 66, 0
22, 33839, Note_on_c, 15, 72, 0
22, 33839, Note_on_c, 15, 57, 0
22, 33840, Note_on_c, 15, 55, 72
22, 33840, Note_on_c, 15, 70, 72
22, 33840, Note_on_c, 15, 62, 72
22, 33899, Note_on_c, 15, 62, 0
22, 33899, Note_on_c, 15, 70, 0
22, 33900, Note_on_c, 15, 68, 72
22, 33900, Note_on_c, 15, 71, 72
22, 33900, Note_on_c, 15, 60, 72
22, 33959, Note_on_c, 15, 60, 0
22, 33959, Note_on_c, 15, 71, 0
22, 33959, Note_on_c, 15, 68, 0
22, 33960, Note_on_c, 15, 67, 72
22, 33960, Note_on_c, 15, 63, 72
22, 33960, Note_on_c, 15, 72, 72
22, 34019, Note_on_c, 15, 72, 0
22, 34019, Note_on_c, 15, 55, 0
22, 34019, Note_on_c, 15, 67, 0
22, 34019, Note_on_c, 15, 63, 0
22, 34020, Note_on_c, 15, 55, 72
22, 34020, Note_on_c, 15, 67, 72
22, 34020, Note_on_c, 15, 74, 72
22, 34020, Note_on_c, 15, 59, 72
22, 34079, Note_on_c, 15, 59, 0
22, 34079, Note_on_c, 15, 55, 0
22, 34079, Note_on_c, 15, 67, 0
22, 34079, Note_on_c, 15, 74, 0
22, 34080, Note_on_c, 15, 51, 72
22, 34080, Note_on_c, 15, 67, 72
22, 34080, Note_on_c, 15, 72, 72
22, 34199, Note_on_c, 15, 72, 0
22, 34199, Note_on_c, 15, 67, 0
22, 34199, Note_on_c, 15, 51, 0
22, 34200, Note_on_c, 15, 56, 72
22, 34200, Note_on_c, 15, 72, 72
22, 34200, Note_on_c, 15, 65, 72
22, 34319, Note_on_c, 15, 65, 0
22, 34319, Note_on_c, 15, 72, 0
22, 34319, Note_on_c, 15, 56, 0
22, 34320, Note_on_c, 15, 65, 72
22, 34320, Note_on_c, 15, 47, 72
22, 34320, Note_on_c, 15, 62, 72
22, 34320, Note_on_c, 15, 71, 72
22, 34439, Note_on_c, 15, 71, 0
22, 34439, Note_on_c, 15, 62, 0
22, 34439, Note_on_c, 15, 65, 0
22, 34440, Note_on_c, 15, 62, 72
22, 34440, Note_on_c, 15, 67, 72
22, 34440, Note_on_c, 15, 71, 72
22, 34499, Note_on_c, 15, 67, 0
22, 34499, Note_on_c, 15, 47, 0
22, 34500, Note_on_c, 15, 47, 72
22, 34500, Note_on_c, 15, 65, 72
22, 34559, Note_on_c, 15, 65, 0
22, 34559, Note_on_c, 15, 71, 0
22, 34559, Note_on_c, 15, 62, 0
22, 34559, Note_on_c, 15, 47, 0
22, 34560, Note_on_c, 15, 48, 72
22, 34560, Note_on_c, 15, 63, 72
22, 34560, Note_on_c, 15, 67, 72
22, 34679, Note_on_c, 15, 67, 0
22, 34679, Note_on_c, 15, 63, 0
22, 34679, Note_on_c, 15, 48, 0
22, 34740, Note_on_c, 15, 48, 72
22, 34740, Note_on_c, 15, 63, 72
22, 34740, Note_on_c, 15, 68, 72
22, 34799, Note_on_c, 15, 68, 0
22, 34799, Note_on_c, 15, 63, 0
22, 34799, Note_on_c, 15, 48, 0
22, 34800, Note_on_c, 15, 50, 72
22, 34800, Note_on_c, 15, 65, 72
22, 34800, Note_on_c, 15, 68, 72
22, 34919, Note_on_c, 15, 68, 0
22, 34919, Note_on_c, 15, 65, 0
22, 34920, Note_on_c, 15, 70, 72
22, 34920, Note_on_c, 15, 65, 72
22, 34979, Note_on_c, 15, 65, 0
22, 34979, Note_on_c, 15, 70, 0
22, 34979, Note_on_c, 15, 50, 0
22, 34980, Note_on_c, 15, 48, 72
22, 34980, Note_on_c, 15, 63, 72
22, 34980, Note_on_c, 15, 67, 72
22, 35009, Note_on_c, 15, 48, 0
22, 35010, Note_on_c, 15, 50, 72
22, 35039, Note_on_c, 15, 50, 0
22, 35039, Note_on_c, 15, 67, 0
22, 35039, Note_on_c, 15, 63, 0
22, 35040, Note_on_c, 15, 51, 72
22, 35040, Note_on_c, 15, 67, 72
22, 35040, Note_on_c, 15, 58, 72
22, 35099, Note_on_c, 15, 51, 0
22, 35100, Note_on_c, 15, 50, 72
22, 35129, Note_on_c, 15, 50, 0
22, 35130, Note_on_c, 15, 51, 72
22, 35159, Note_on_c, 15, 51, 0
22, 35159, Note_on_c, 15, 58, 0
22, 35159, Note_on_c, 15, 67, 0
22, 35160, Note_on_c, 15, 53, 72
22, 35160, Note_on_c, 15, 56, 72
22, 35160, Note_on_c, 15, 60, 72
22, 35219, Note_on_c, 15, 53, 0
22, 35220, Note_on_c, 15, 51, 72
22, 35249, Note_on_c, 15, 51, 0
22, 35250, Note_on_c, 15, 53, 72
22, 35279, Note_on_c, 15, 53, 0
22, 35279, Note_on_c, 15, 60, 0
22, 35279, Note_on_c, 15, 56, 0
22, 35280, Note_on_c, 15, 55, 72
22, 35280, Note_on_c, 15, 59, 72
22, 35280, Note_on_c, 15, 62, 72
22, 35339, Note_on_c, 15, 62, 0
22, 35339, Note_on_c, 15, 59, 0
22, 35339, Note_on_c, 15, 55, 0
22, 35340, Note_on_c, 15, 53, 72
22, 35340, Note_on_c, 15, 67, 72
22, 35340, Note_on_c, 15, 59, 72
22, 35399, Note_on_c, 15, 59, 0
22, 35399, Note_on_c, 15, 67, 0
22, 35399, Note_on_c, 15, 53, 0
22, 35400, Note_on_c, 15, 51, 72
22, 35400, Note_on_c, 15, 67, 72
22, 35400, Note_on_c, 15, 60, 72
22, 35459, Note_on_c, 15, 60, 0
22, 35459, Note_on_c, 15, 67, 0
22, 35459, Note_on_c, 15, 51, 0
22, 35460, Note_on_c, 15, 50, 72
22, 35460, Note_on_c, 15, 65, 72
22, 35460, Note_on_c, 15, 59, 72
22, 35519, Note_on_c, 15, 59, 0
22, 35519, Note_on_c, 15, 65, 0
22, 35519, Note_on_c, 15, 50, 0
22, 35520, Note_on_c, 15, 48, 72
22, 35520, Note_on_c, 15, 63, 72
22, 35520, Note_on_c, 15, 67, 72
22, 35579, Note_on_c, 15, 48, 0
22, 35580, Note_on_c, 15, 50, 72
22, 35609, Note_on_c, 15, 50, 0
22, 35610, Note_on_c, 15, 51, 72
22, 35639, Note_on_c, 15, 51, 0
22, 35639, Note_on_c, 15, 67, 0
22, 35639, Note_on_c, 15, 63, 0
22, 35640, Note_on_c, 15, 53, 72
22, 35640, Note_on_c, 15, 57, 72
22, 35640, Note_on_c, 15, 60, 72
22, 35640, Note_on_c, 15, 63, 72
22, 35699, Note_on_c, 15, 63, 0
22, 35699, Note_on_c, 15, 60, 0
22, 35699, Note_on_c, 15, 57, 0
22, 35700, Note_on_c, 15, 62, 72
22, 35700, Note_on_c, 15, 58, 72
22, 35759, Note_on_c, 15, 58, 0
22, 35759, Note_on_c, 15, 62, 0
22, 35760, Note_on_c, 15, 60, 72
22, 35760, Note_on_c, 15, 57, 72
22, 35819, Note_on_c, 15, 57, 0
22, 35819, Note_on_c, 15, 60, 0
22, 35819, Note_on_c, 15, 53, 0
22, 35820, Note_on_c, 15, 51, 72
22, 35820, Note_on_c, 15, 65, 72
22, 35820, Note_on_c, 15, 60, 72
22, 35820, Note_on_c, 15, 69, 72
22, 35879, Note_on_c, 15, 69, 0
22, 35879, Note_on_c, 15, 51, 0
22, 35879, Note_on_c, 15, 65, 0
22, 35879, Note_on_c, 15, 60, 0
22, 35880, Note_on_c, 15, 50, 72
22, 35880, Note_on_c, 15, 65, 72
22, 35880, Note_on_c, 15, 58, 72
22, 35939, Note_on_c, 15, 58, 0
22, 35939, Note_on_c, 15, 65, 0
22, 35939, Note_on_c, 15, 50, 0
22, 35940, Note_on_c, 15, 48, 72
22, 35940, Note_on_c, 15, 65, 72
22, 35940, Note_on_c, 15, 69, 72
22, 35940, Note_on_c, 15, 60, 72
22, 35999, Note_on_c, 15, 60, 0
22, 35999, Note_on_c, 15, 48, 0
22, 35999, Note_on_c, 15, 65, 0
22, 35999, Note_on_c, 15, 69, 0
22, 36000, Note_on_c, 15, 46, 72
22, 36000, Note_on_c, 15, 74, 72
22, 36000, Note_on_c, 15, 65, 72
22, 36000, Note_on_c, 15, 70, 72
22, 36059, Note_on_c, 15, 46, 0
22, 36060, Note_on_c, 15, 55, 72
22, 36089, Note_on_c, 15, 55, 0
22, 36090, Note_on_c, 15, 53, 72
22, 36119, Note_on_c, 15, 53, 0
22, 36119, Note_on_c, 15, 74, 0
22, 36119, Note_on_c, 15, 65, 0
22, 36119, Note_on_c, 15, 70, 0
22, 36120, Note_on_c, 15, 51, 72
22, 36120, Note_on_c, 15, 67, 72
22, 36120, Note_on_c, 15, 70, 72
22, 36149, Note_on_c, 15, 51, 0
22, 36150, Note_on_c, 15, 48, 72
22, 36179, Note_on_c, 15, 48, 0
22, 36180, Note_on_c, 15, 50, 72
22, 36209, Note_on_c, 15, 50, 0
22, 36209, Note_on_c, 15, 70, 0
22, 36209, Note_on_c, 15, 67, 0
22, 36210, Note_on_c, 15, 67, 72
22, 36210, Note_on_c, 15, 51, 72
22, 36210, Note_on_c, 15, 70, 72
22, 36210, Note_on_c, 15, 62, 72
22, 36239, Note_on_c, 15, 62, 0
22, 36239, Note_on_c, 15, 67, 0
22, 36239, Note_on_c, 15, 51, 0
22, 36239, Note_on_c, 15, 70, 0
22, 36240, Note_on_c, 15, 53, 72
22, 36240, Note_on_c, 15, 69, 72
22, 36240, Note_on_c, 15, 60, 72
22, 36240, Note_on_c, 15, 65, 72
22, 36299, Note_on_c, 15, 65, 0
22, 36299, Note_on_c, 15, 53, 0
22, 36299, Note_on_c, 15, 69, 0
22, 36299, Note_on_c, 15, 60, 0
22, 36300, Note_on_c, 15, 53, 72
22, 36300, Note_on_c, 15, 69, 72
22, 36300, Note_on_c, 15, 60, 72
22, 36300, Note_on_c, 15, 65, 72
22, 36359, Note_on_c, 15, 53, 0
22, 36360, Note_on_c, 15, 53, 72
22, 36419, Note_on_c, 15, 53, 0
22, 36420, Note_on_c, 15, 53, 72
22, 36479, Note_on_c, 15, 53, 0
22, 36479, Note_on_c, 15, 69, 0
22, 36479, Note_on_c, 15, 60, 0
22, 36479, Note_on_c, 15, 65, 0
22, 36480, Note_on_c, 15, 55, 72
22, 36480, Note_on_c, 15, 70, 72
22, 36480, Note_on_c, 15, 74, 72
22, 36480, Note_on_c, 15, 65, 72
22, 36509, Note_on_c, 15, 55, 0
22, 36510, Note_on_c, 15, 57, 72
22, 36539, Note_on_c, 15, 57, 0
22, 36539, Note_on_c, 15, 65, 0
22, 36539, Note_on_c, 15, 74, 0
22, 36539, Note_on_c, 15, 70, 0
22, 36540, Note_on_c, 15, 55, 72
22, 36540, Note_on_c, 15, 70, 72
22, 36540, Note_on_c, 15, 63, 72
22, 36569, Note_on_c, 15, 55, 0
22, 36570, Note_on_c, 15, 53, 72
22, 36599, Note_on_c, 15, 53, 0
22, 36600, Note_on_c, 15, 55, 72
22, 36629, Note_on_c, 15, 55, 0
22, 36630, Note_on_c, 15, 57, 72
22, 36659, Note_on_c, 15, 57, 0
22, 36660, Note_on_c, 15, 53, 72
22, 36689, Note_on_c, 15, 53, 0
22, 36690, Note_on_c, 15, 55, 72
22, 36719, Note_on_c, 15, 55, 0
22, 36719, Note_on_c, 15, 63, 0
22, 36719, Note_on_c, 15, 70, 0
22, 36720, Note_on_c, 15, 53, 72
22, 36720, Note_on_c, 15, 69, 72
22, 36720, Note_on_c, 15, 72, 72
22, 36720, Note_on_c, 15, 65, 72
22, 36899, Note_on_c, 15, 53, 0
22, 36900, Note_on_c, 15, 53, 72
22, 36959, Note_on_c, 15, 53, 0
22, 36959, Note_on_c, 15, 65, 0
22, 36959, Note_on_c, 15, 72, 0
22, 36959, Note_on_c, 15, 69, 0
22, 36960, Note_on_c, 15, 50, 72
22, 36960, Note_on_c, 15, 65, 72
22, 36960, Note_on_c, 15, 70, 72
22, 36960, Note_on_c, 15, 74, 72
22, 37079, Note_on_c, 15, 74, 0
22, 37079, Note_on_c, 15, 50, 0
22, 37079, Note_on_c, 15, 65, 0
22, 37079, Note_on_c, 15, 70, 0
22, 37080, Note_on_c, 15, 55, 72
22, 37080, Note_on_c, 15, 70, 72
22, 37080, Note_on_c, 15, 75, 72
22, 37199, Note_on_c, 15, 75, 0
22, 37199, Note_on_c, 15, 70, 0
22, 37199, Note_on_c, 15, 55, 0
22, 37200, Note_on_c, 15, 45, 72
22, 37200, Note_on_c, 15, 60, 72
22, 37200, Note_on_c, 15, 77, 72
22, 37379, Note_on_c, 15, 77, 0
22, 37379, Note_on_c, 15, 60, 0
22, 37379, Note_on_c, 15, 45, 0
22, 37380, Note_on_c, 15, 45, 72
22, 37380, Note_on_c, 15, 75, 72
22, 37380, Note_on_c, 15, 60, 72
22, 37439, Note_on_c, 15, 60, 0
22, 37439, Note_on_c, 15, 75, 0
22, 37439, Note_on_c, 15, 45, 0
22, 37440, Note_on_c, 15, 46, 72
22, 37440, Note_on_c, 15, 74, 72
22, 37440, Note_on_c, 15, 65, 72
22, 37440, Note_on_c, 15, 58, 72
22, 37559, Note_on_c, 15, 58, 0
22, 37559, Note_on_c, 15, 46, 0
22, 37559, Note_on_c, 15, 74, 0
22, 37559, Note_on_c, 15, 65, 0
22, 37620, Note_on_c, 15, 46, 72
22, 37620, Note_on_c, 15, 58, 72
22, 37620, Note_on_c, 15, 65, 72
22, 37620, Note_on_c, 15, 74, 72
22, 37679, Note_on_c, 15, 74, 0
22, 37679, Note_on_c, 15, 46, 0
22, 37679, Note_on_c, 15, 58, 0
22, 37679, Note_on_c, 15, 65, 0
22, 37680, Note_on_c, 15, 48, 72
22, 37680, Note_on_c, 15, 64, 72
22, 37680, Note_on_c, 15, 67, 72
22, 37680, Note_on_c, 15, 70, 72
22, 37799, Note_on_c, 15, 70, 0
22, 37799, Note_on_c, 15, 67, 0
22, 37799, Note_on_c, 15, 64, 0
22, 37800, Note_on_c, 15, 64, 72
22, 37800, Note_on_c, 15, 69, 72
22, 37859, Note_on_c, 15, 48, 0
22, 37860, Note_on_c, 15, 46, 72
22, 37889, Note_on_c, 15, 46, 0
22, 37890, Note_on_c, 15, 48, 72
22, 37919, Note_on_c, 15, 48, 0
22, 37919, Note_on_c, 15, 69, 0
22, 37919, Note_on_c, 15, 64, 0
22, 37920, Note_on_c, 15, 50, 72
22, 37920, Note_on_c, 15, 65, 72
22, 37920, Note_on_c, 15, 70, 72
22, 37979, Note_on_c, 15, 50, 0
22, 37980, Note_on_c, 15, 58, 72
22, 38009, Note_on_c, 15, 58, 0
22, 38010, Note_on_c, 15, 57, 72
22, 38039, Note_on_c, 15, 57, 0
22, 38039, Note_on_c, 15, 70, 0
22, 38039, Note_on_c, 15, 65, 0
22, 38040, Note_on_c, 15, 55, 72
22, 38040, Note_on_c, 15, 70, 72
22, 38040, Note_on_c, 15, 64, 72
22, 38099, Note_on_c, 15, 64, 0
22, 38099, Note_on_c, 15, 70, 0
22, 38099, Note_on_c, 15, 55, 0
22, 38100, Note_on_c, 15, 53, 72
22, 38100, Note_on_c, 15, 70, 72
22, 38100, Note_on_c, 15, 65, 72
22, 38159, Note_on_c, 15, 65, 0
22, 38159, Note_on_c, 15, 70, 0
22, 38159, Note_on_c, 15, 53, 0
22, 38160, Note_on_c, 15, 52, 72
22, 38160, Note_on_c, 15, 67, 72
22, 38160, Note_on_c, 15, 70, 72
22, 38160, Note_on_c, 15, 72, 72
22, 38219, Note_on_c, 15, 52, 0
22, 38220, Note_on_c, 15, 55, 72
22, 38279, Note_on_c, 15, 55, 0
22, 38279, Note_on_c, 15, 72, 0
22, 38279, Note_on_c, 15, 70, 0
22, 38279, Note_on_c, 15, 67, 0
22, 38280, Note_on_c, 15, 48, 72
22, 38280, Note_on_c, 15, 65, 72
22, 38280, Note_on_c, 15, 68, 72
22, 38280, Note_on_c, 15, 72, 72
22, 38339, Note_on_c, 15, 72, 0
22, 38339, Note_on_c, 15, 68, 0
22, 38339, Note_on_c, 15, 65, 0
22, 38340, Note_on_c, 15, 67, 72
22, 38340, Note_on_c, 15, 64, 72
22, 38340, Note_on_c, 15, 72, 72
22, 38399, Note_on_c, 15, 72, 0
22, 38399, Note_on_c, 15, 48, 0
22, 38399, Note_on_c, 15, 67, 0
22, 38399, Note_on_c, 15, 64, 0
22, 38460, Note_on_c, 15, 53, 72
22, 38460, Note_on_c, 15, 68, 72
22, 38460, Note_on_c, 15, 72, 72
22, 38519, Note_on_c, 15, 72, 0
22, 38519, Note_on_c, 15, 68, 0
22, 38519, Note_on_c, 15, 53, 0
22, 38520, Note_on_c, 15, 58, 72
22, 38520, Note_on_c, 15, 73, 72
22, 38520, Note_on_c, 15, 65, 72
22, 38579, Note_on_c, 15, 58, 0
22, 38580, Note_on_c, 15, 55, 72
22, 38639, Note_on_c, 15, 55, 0
22, 38639, Note_on_c, 15, 65, 0
22, 38639, Note_on_c, 15, 73, 0
22, 38640, Note_on_c, 15, 60, 72
22, 38640, Note_on_c, 15, 64, 72
22, 38640, Note_on_c, 15, 67, 72
22, 38699, Note_on_c, 15, 60, 0
22, 38700, Note_on_c, 15, 48, 72
22, 38700, Note_on_c, 15, 60, 72
22, 38759, Note_on_c, 15, 48, 0
22, 38760, Note_on_c, 15, 48, 72
22, 38819, Note_on_c, 15, 48, 0
22, 38820, Note_on_c, 15, 48, 72
22, 38879, Note_on_c, 15, 48, 0
22, 38879, Note_on_c, 15, 64, 0
22, 38879, Note_on_c, 15, 67, 0
22, 38879, Note_on_c, 15, 60, 0
22, 38880, Note_on_c, 15, 49, 72
22, 38880, Note_on_c, 15, 65, 72
22, 38880, Note_on_c, 15, 69, 72
22, 38909, Note_on_c, 15, 49, 0
22, 38910, Note_on_c, 15, 51, 72
22, 38939, Note_on_c, 15, 51, 0
22, 38940, Note_on_c, 15, 49, 72
22, 38969, Note_on_c, 15, 49, 0
22, 38970, Note_on_c, 15, 48, 72
22, 38999, Note_on_c, 15, 48, 0
22, 38999, Note_on_c, 15, 69, 0
22, 38999, Note_on_c, 15, 65, 0
22, 39000, Note_on_c, 15, 50, 72
22, 39000, Note_on_c, 15, 65, 72
22, 39000, Note_on_c, 15, 70, 72
22, 39029, Note_on_c, 15, 50, 0
22, 39030, Note_on_c, 15, 51, 72
22, 39059, Note_on_c, 15, 51, 0
22, 39059, Note_on_c, 15, 70, 0
22, 39059, Note_on_c, 15, 65, 0
22, 39060, Note_on_c, 15, 48, 72
22, 39060, Note_on_c, 15, 65, 72
22, 39060, Note_on_c, 15, 68, 72
22, 39089, Note_on_c, 15, 48, 0
22, 39090, Note_on_c, 15, 50, 72
22, 39119, Note_on_c, 15, 50, 0
22, 39119, Note_on_c, 15, 68, 0
22, 39119, Note_on_c, 15, 65, 0
22, 39120, Note_on_c, 15, 51, 72
22, 39120, Note_on_c, 15, 67, 72
22, 39120, Note_on_c, 15, 70, 72
22, 39149, Note_on_c, 15, 51, 0
22, 39150, Note_on_c, 15, 53, 72
22, 39179, Note_on_c, 15, 53, 0
22, 39179, Note_on_c, 15, 70, 0
22, 39179, Note_on_c, 15, 67, 0
22, 39180, Note_on_c, 15, 51, 72
22, 39180, Note_on_c, 15, 72, 72
22, 39180, Note_on_c, 15, 67, 72
22, 39209, Note_on_c, 15, 51, 0
22, 39210, Note_on_c, 15, 50, 72
22, 39239, Note_on_c, 15, 50, 0
22, 39239, Note_on_c, 15, 67, 0
22, 39239, Note_on_c, 15, 72, 0
22, 39240, Note_on_c, 15, 52, 72
22, 39240, Note_on_c, 15, 67, 72
22, 39240, Note_on_c, 15, 72, 72
22, 39269, Note_on_c, 15, 52, 0
22, 39270, Note_on_c, 15, 53, 72
22, 39299, Note_on_c, 15, 53, 0
22, 39299, Note_on_c, 15, 72, 0
22, 39299, Note_on_c, 15, 67, 0
22, 39300, Note_on_c, 15, 50, 72
22, 39300, Note_on_c, 15, 67, 72
22, 39300, Note_on_c, 15, 70, 72
22, 39329, Note_on_c, 15, 50, 0
22, 39330, Note_on_c, 15, 52, 72
22, 39359, Note_on_c, 15, 52, 0
22, 39359, Note_on_c, 15, 70, 0
22, 39359, Note_on_c, 15, 67, 0
22, 39360, Note_on_c, 15, 53, 72
22, 39360, Note_on_c, 15, 68, 72
22, 39360, Note_on_c, 15, 72, 72
22, 39360, Note_on_c, 15, 65, 72
22, 39419, Note_on_c, 15, 53, 0
22, 39420, Note_on_c, 15, 48, 72
22, 39479, Note_on_c, 15, 48, 0
22, 39479, Note_on_c, 15, 65, 0
22, 39479, Note_on_c, 15, 72, 0
22, 39479, Note_on_c, 15, 68, 0
22, 39480, Note_on_c, 15, 53, 72
22, 39480, Note_on_c, 15, 69, 72
22, 39480, Note_on_c, 15, 72, 72
22, 39480, Note_on_c, 15, 65, 72
22, 39539, Note_on_c, 15, 53, 0
22, 39540, Note_on_c, 15, 51, 72
22, 39599, Note_on_c, 15, 51, 0
22, 39599, Note_on_c, 15, 65, 0
22, 39599, Note_on_c, 15, 72, 0
22, 39599, Note_on_c, 15, 69, 0
22, 39600, Note_on_c, 15, 50, 72
22, 39600, Note_on_c, 15, 65, 72
22, 39600, Note_on_c, 15, 70, 72
22, 39659, Note_on_c, 15, 50, 0
22, 39660, Note_on_c, 15, 43, 72
22, 39719, Note_on_c, 15, 43, 0
22, 39719, Note_on_c, 15, 70, 0
22, 39719, Note_on_c, 15, 65, 0
22, 39720, Note_on_c, 15, 55, 72
22, 39720, Note_on_c, 15, 71, 72
22, 39720, Note_on_c, 15, 62, 72
22, 39779, Note_on_c, 15, 55, 0
22, 39780, Note_on_c, 15, 53, 72
22, 39839, Note_on_c, 15, 53, 0
22, 39839, Note_on_c, 15, 62, 0
22, 39839, Note_on_c, 15, 71, 0
22, 39840, Note_on_c, 15, 51, 72
22, 39840, Note_on_c, 15, 67, 72
22, 39840, Note_on_c, 15, 60, 72
22, 39899, Note_on_c, 15, 60, 0
22, 39899, Note_on_c, 15, 67, 0
22, 39899, Note_on_c, 15, 51, 0
22, 39900, Note_on_c, 15, 55, 72
22, 39900, Note_on_c, 15, 70, 72
22, 39900, Note_on_c, 15, 62, 72
22, 39959, Note_on_c, 15, 62, 0
22, 39959, Note_on_c, 15, 70, 0
22, 39959, Note_on_c, 15, 55, 0
22, 39960, Note_on_c, 15, 60, 72
22, 39960, Note_on_c, 15, 64, 72
22, 39960, Note_on_c, 15, 67, 72
22, 40019, Note_on_c, 15, 60, 0
22, 40020, Note_on_c, 15, 58, 72
22, 40079, Note_on_c, 15, 58, 0
22, 40079, Note_on_c, 15, 67, 0
22, 40079, Note_on_c, 15, 64, 0
22, 40080, Note_on_c, 15, 57, 72
22, 40080, Note_on_c, 15, 60, 72
22, 40080, Note_on_c, 15, 65, 72
22, 40139, Note_on_c, 15, 57, 0
22, 40140, Note_on_c, 15, 50, 72
22, 40199, Note_on_c, 15, 50, 0
22, 40199, Note_on_c, 15, 65, 0
22, 40199, Note_on_c, 15, 60, 0
22, 40200, Note_on_c, 15, 62, 72
22, 40200, Note_on_c, 15, 66, 72
22, 40200, Note_on_c, 15, 69, 72
22, 40259, Note_on_c, 15, 62, 0
22, 40260, Note_on_c, 15, 60, 72
22, 40319, Note_on_c, 15, 60, 0
22, 40319, Note_on_c, 15, 69, 0
22, 40319, Note_on_c, 15, 66, 0
22, 40320, Note_on_c, 15, 58, 72
22, 40320, Note_on_c, 15, 74, 72
22, 40320, Note_on_c, 15, 67, 72
22, 40379, Note_on_c, 15, 58, 0
22, 40380, Note_on_c, 15, 62, 72
22, 40439, Note_on_c, 15, 62, 0
22, 40439, Note_on_c, 15, 67, 0
22, 40439, Note_on_c, 15, 74, 0
22, 40440, Note_on_c, 15, 67, 72
22, 40440, Note_on_c, 15, 71, 72
22, 40440, Note_on_c, 15, 74, 72
22, 40499, Note_on_c, 15, 67, 0
22, 40500, Note_on_c, 15, 65, 72
22, 40559, Note_on_c, 15, 65, 0
22, 40559, Note_on_c, 15, 74, 0
22, 40559, Note_on_c, 15, 71, 0
22, 40560, Note_on_c, 15, 64, 72
22, 40560, Note_on_c, 15, 67, 72
22, 40560, Note_on_c, 15, 72, 72
22, 40619, Note_on_c, 15, 72, 0
22, 40619, Note_on_c, 15, 67, 0
22, 40619, Note_on_c, 15, 64, 0
22, 40620, Note_on_c, 15, 52, 72
22, 40620, Note_on_c, 15, 69, 72
22, 40620, Note_on_c, 15, 72, 72
22, 40679, Note_on_c, 15, 72, 0
22, 40679, Note_on_c, 15, 52, 0
22, 40680, Note_on_c, 15, 52, 72
22, 40680, Note_on_c, 15, 73, 72
22, 40739, Note_on_c, 15, 52, 0
22, 40739, Note_on_c, 15, 69, 0
22, 40740, Note_on_c, 15, 52, 72
22, 40740, Note_on_c, 15, 67, 72
22, 40799, Note_on_c, 15, 67, 0
22, 40799, Note_on_c, 15, 52, 0
22, 40799, Note_on_c, 15, 73, 0
22, 40800, Note_on_c, 15, 53, 72
22, 40800, Note_on_c, 15, 57, 72
22, 40800, Note_on_c, 15, 74, 72
22, 40800, Note_on_c, 15, 65, 72
22, 40829, Note_on_c, 15, 53, 0
22, 40830, Note_on_c, 15, 55, 72
22, 40859, Note_on_c, 15, 55, 0
22, 40860, Note_on_c, 15, 53, 72
22, 40889, Note_on_c, 15, 53, 0
22, 40890, Note_on_c, 15, 52, 72
22, 40919, Note_on_c, 15, 52, 0
22, 40919, Note_on_c, 15, 65, 0
22, 40919, Note_on_c, 15, 74, 0
22, 40919, Note_on_c, 15, 57, 0
22, 40920, Note_on_c, 15, 54, 72
22, 40920, Note_on_c, 15, 57, 72
22, 40920, Note_on_c, 15, 74, 72
22, 40920, Note_on_c, 15, 69, 72
22, 40949, Note_on_c, 15, 54, 0
22, 40950, Note_on_c, 15, 55, 72
22, 40979, Note_on_c, 15, 55, 0
22, 40979, Note_on_c, 15, 69, 0
22, 40979, Note_on_c, 15, 74, 0
22, 40979, Note_on_c, 15, 57, 0
22, 40980, Note_on_c, 15, 52, 72
22, 40980, Note_on_c, 15, 72, 72
22, 40980, Note_on_c, 15, 69, 72
22, 40980, Note_on_c, 15, 64, 72
22, 41009, Note_on_c, 15, 52, 0
22, 41010, Note_on_c, 15, 54, 72
22, 41039, Note_on_c, 15, 54, 0
22, 41039, Note_on_c, 15, 64, 0
22, 41039, Note_on_c, 15, 69, 0
22, 41039, Note_on_c, 15, 72, 0
22, 41040, Note_on_c, 15, 55, 72
22, 41040, Note_on_c, 15, 59, 72
22, 41040, Note_on_c, 15, 62, 72
22, 41040, Note_on_c, 15, 71, 72
22, 41069, Note_on_c, 15, 55, 0
22, 41070, Note_on_c, 15, 57, 72
22, 41099, Note_on_c, 15, 57, 0
22, 41099, Note_on_c, 15, 71, 0
22, 41099, Note_on_c, 15, 62, 0
22, 41099, Note_on_c, 15, 59, 0
22, 41100, Note_on_c, 15, 55, 72
22, 41100, Note_on_c, 15, 59, 72
22, 41100, Note_on_c, 15, 71, 72
22, 41100, Note_on_c, 15, 64, 72
22, 41129, Note_on_c, 15, 55, 0
22, 41130, Note_on_c, 15, 54, 72
22, 41159, Note_on_c, 15, 54, 0
22, 41159, Note_on_c, 15, 64, 0
22, 41159, Note_on_c, 15, 71, 0
22, 41159, Note_on_c, 15, 59, 0
22, 41160, Note_on_c, 15, 56, 72
22, 41160, Note_on_c, 15, 71, 72
22, 41160, Note_on_c, 15, 74, 72
22, 41160, Note_on_c, 15, 68, 72
22, 41189, Note_on_c, 15, 56, 0
22, 41190, Note_on_c, 15, 57, 72
22, 41219, Note_on_c, 15, 57, 0
22, 41219, Note_on_c, 15, 68, 0
22, 41219, Note_on_c, 15, 74, 0
22, 41220, Note_on_c, 15, 54, 72
22, 41220, Note_on_c, 15, 74, 72
22, 41220, Note_on_c, 15, 66, 72
22, 41249, Note_on_c, 15, 54, 0
22, 41250, Note_on_c, 15, 55, 72
22, 41279, Note_on_c, 15, 55, 0
22, 41279, Note_on_c, 15, 66, 0
22, 41279, Note_on_c, 15, 74, 0
22, 41279, Note_on_c, 15, 71, 0
22, 41280, Note_on_c, 15, 57, 72
22, 41280, Note_on_c, 15, 73, 72
22, 41280, Note_on_c, 15, 64, 72
22, 41280, Note_on_c, 15, 61, 72
22, 41399, Note_on_c, 15, 61, 0
22, 41399, Note_on_c, 15, 64, 0
22, 41399, Note_on_c, 15, 73, 0
22, 41400, Note_on_c, 15, 59, 72
22, 41400, Note_on_c, 15, 62, 72
22, 41459, Note_on_c, 15, 62, 0
22, 41459, Note_on_c, 15, 59, 0
22, 41459, Note_on_c, 15, 57, 0
22, 41460, Note_on_c, 15, 61, 72
22, 41460, Note_on_c, 15, 57, 72
22, 41460, Note_on_c, 15, 64, 72
22, 41519, Note_on_c, 15, 64, 0
22, 41519, Note_on_c, 15, 57, 0
22, 41519, Note_on_c, 15, 61, 0
22, 41520, Note_on_c, 15, 53, 72
22, 41520, Note_on_c, 15, 69, 72
22, 41520, Note_on_c, 15, 62, 72
22, 41639, Note_on_c, 15, 62, 0
22, 41639, Note_on_c, 15, 69, 0
22, 41639, Note_on_c, 15, 53, 0
22, 41640, Note_on_c, 15, 58, 72
22, 41640, Note_on_c, 15, 62, 72
22, 41640, Note_on_c, 15, 67, 72
22, 41759, Note_on_c, 15, 67, 0
22, 41759, Note_on_c, 15, 62, 0
22, 41759, Note_on_c, 15, 58, 0
22, 41760, Note_on_c, 15, 49, 72
22, 41760, Note_on_c, 15, 64, 72
22, 41760, Note_on_c, 15, 69, 72
22, 41819, Note_on_c, 15, 69, 0
22, 41820, Note_on_c, 15, 70, 72
22, 41820, Note_on_c, 15, 76, 72
22, 41879, Note_on_c, 15, 76, 0
22, 41879, Note_on_c, 15, 70, 0
22, 41880, Note_on_c, 15, 69, 72
22, 41880, Note_on_c, 15, 76, 72
22, 41939, Note_on_c, 15, 76, 0
22, 41939, Note_on_c, 15, 69, 0
22, 41939, Note_on_c, 15, 49, 0
22, 41940, Note_on_c, 15, 49, 72
22, 41940, Note_on_c, 15, 67, 72
22, 41940, Note_on_c, 15, 76, 72
22, 41999, Note_on_c, 15, 76, 0
22, 41999, Note_on_c, 15, 64, 0
22, 41999, Note_on_c, 15, 49, 0
22, 41999, Note_on_c, 15, 67, 0
22, 42000, Note_on_c, 15, 50, 72
22, 42000, Note_on_c, 15, 65, 72
22, 42000, Note_on_c, 15, 69, 72
22, 42000, Note_on_c, 15, 77, 72
22, 42119, Note_on_c, 15, 77, 0
22, 42119, Note_on_c, 15, 50, 0
22, 42119, Note_on_c, 15, 65, 0
22, 42119, Note_on_c, 15, 69, 0
22, 42120, Note_on_c, 15, 65, 72
22, 42120, Note_on_c, 15, 70, 72
22, 42179, Note_on_c, 15, 70, 0
22, 42180, Note_on_c, 15, 50, 72
22, 42180, Note_on_c, 15, 69, 72
22, 42239, Note_on_c, 15, 69, 0
22, 42239, Note_on_c, 15, 50, 0
22, 42239, Note_on_c, 15, 65, 0
22, 42240, Note_on_c, 15, 52, 72
22, 42240, Note_on_c, 15, 67, 72
22, 42240, Note_on_c, 15, 58, 72
22, 42240, Note_on_c, 15, 74, 72
22, 42359, Note_on_c, 15, 74, 0
22, 42359, Note_on_c, 15, 58, 0
22, 42360, Note_on_c, 15, 73, 72
22, 42419, Note_on_c, 15, 52, 0
22, 42420, Note_on_c, 15, 50, 72
22, 42449, Note_on_c, 15, 50, 0
22, 42450, Note_on_c, 15, 52, 72
22, 42479, Note_on_c, 15, 52, 0
22, 42479, Note_on_c, 15, 73, 0
22, 42479, Note_on_c, 15, 67, 0
22, 42480, Note_on_c, 15, 53, 72
22, 42480, Note_on_c, 15, 69, 72
22, 42480, Note_on_c, 15, 62, 72
22, 42480, Note_on_c, 15, 65, 72
22, 42539, Note_on_c, 15, 53, 0
22, 42540, Note_on_c, 15, 52, 72
22, 42569, Note_on_c, 15, 52, 0
22, 42570, Note_on_c, 15, 53, 72
22, 42599, Note_on_c, 15, 53, 0
22, 42599, Note_on_c, 15, 69, 0
22, 42599, Note_on_c, 15, 62, 0
22, 42599, Note_on_c, 15, 65, 0
22, 42600, Note_on_c, 15, 55, 72
22, 42600, Note_on_c, 15, 64, 72
22, 42600, Note_on_c, 15, 67, 72
22, 42600, Note_on_c, 15, 70, 72
22, 42659, Note_on_c, 15, 55, 0
22, 42660, Note_on_c, 15, 53, 72
22, 42689, Note_on_c, 15, 53, 0
22, 42690, Note_on_c, 15, 55, 72
22, 42719, Note_on_c, 15, 55, 0
22, 42719, Note_on_c, 15, 64, 0
22, 42719, Note_on_c, 15, 67, 0
22, 42719, Note_on_c, 15, 70, 0
22, 42720, Note_on_c, 15, 57, 72
22, 42720, Note_on_c, 15, 73, 72
22, 42720, Note_on_c, 15, 64, 72
22, 42779, Note_on_c, 15, 64, 0
22, 42779, Note_on_c, 15, 73, 0
22, 42779, Note_on_c, 15, 57, 0
22, 42780, Note_on_c, 15, 58, 72
22, 42780, Note_on_c, 15, 62, 72
22, 42780, Note_on_c, 15, 65, 72
22, 42809, Note_on_c, 15, 58, 0
22, 42810, Note_on_c, 15, 57, 72
22, 42839, Note_on_c, 15, 57, 0
22, 42839, Note_on_c, 15, 65, 0
22, 42839, Note_on_c, 15, 62, 0
22, 42840, Note_on_c, 15, 55, 72
22, 42840, Note_on_c, 15, 70, 72
22, 42840, Note_on_c, 15, 61, 72
22, 42840, Note_on_c, 15, 76, 72
22, 42869, Note_on_c, 15, 55, 0
22, 42870, Note_on_c, 15, 53, 72
22, 42899, Note_on_c, 15, 53, 0
22, 42900, Note_on_c, 15, 52, 72
22, 42929, Note_on_c, 15, 52, 0
22, 42930, Note_on_c, 15, 50, 72
22, 42959, Note_on_c, 15, 50, 0
22, 42959, Note_on_c, 15, 76, 0
22, 42959, Note_on_c, 15, 61, 0
22, 42959, Note_on_c, 15, 70, 0
22, 42960, Note_on_c, 15, 49, 72
22, 42960, Note_on_c, 15, 76, 72
22, 42960, Note_on_c, 15, 67, 72
22, 42960, Note_on_c, 15, 70, 72
22, 43079, Note_on_c, 15, 70, 0
22, 43079, Note_on_c, 15, 49, 0
22, 43079, Note_on_c, 15, 76, 0
22, 43079, Note_on_c, 15, 67, 0
22, 43080, Note_on_c, 15, 50, 72
22, 43080, Note_on_c, 15, 65, 72
22, 43080, Note_on_c, 15, 57, 72
22, 43080, Note_on_c, 15, 69, 72
22, 43139, Note_on_c, 15, 69, 0
22, 43139, Note_on_c, 15, 50, 0
22, 43139, Note_on_c, 15, 65, 0
22, 43139, Note_on_c, 15, 57, 0
22, 43140, Note_on_c, 15, 57, 72
22, 43140, Note_on_c, 15, 61, 72
22, 43140, Note_on_c, 15, 76, 72
22, 43199, Note_on_c, 15, 76, 0
22, 43199, Note_on_c, 15, 61, 0
22, 43199, Note_on_c, 15, 57, 0
22, 43200, Note_on_c, 15, 58, 72
22, 43200, Note_on_c, 15, 74, 72
22, 43200, Note_on_c, 15, 65, 72
22, 43200, Note_on_c, 15, 69, 72
22, 43319, Note_on_c, 15, 69, 0
22, 43319, Note_on_c, 15, 65, 0
22, 43319, Note_on_c, 15, 58, 0
22, 43320, Note_on_c, 15, 46, 72
22, 43320, Note_on_c, 15, 68, 72
22, 43320, Note_on_c, 15, 64, 72
22, 43379, Note_on_c, 15, 64, 0
22, 43379, Note_on_c, 15, 74, 0
22, 43380, Note_on_c, 15, 74, 72
22, 43439, Note_on_c, 15, 74, 0
22, 43439, Note_on_c, 15, 68, 0
22, 43439, Note_on_c, 15, 46, 0
22, 43440, Note_on_c, 15, 45, 72
22, 43440, Note_on_c, 15, 73, 72
22, 43440, Note_on_c, 15, 64, 72
22, 43440, Note_on_c, 15, 69, 72
22, 43499, Note_on_c, 15, 45, 0
22, 43500, Note_on_c, 15, 57, 72
22, 43559, Note_on_c, 15, 57, 0
22, 43559, Note_on_c, 15, 69, 0
22, 43559, Note_on_c, 15, 64, 0
22, 43559, Note_on_c, 15, 73, 0
22, 43560, Note_on_c, 15, 59, 72
22, 43560, Note_on_c, 15, 74, 72
22, 43560, Note_on_c, 15, 65, 72
22, 43560, Note_on_c, 15, 69, 72
22, 43619, Note_on_c, 15, 69, 0
22, 43619, Note_on_c, 15, 59, 0
22, 43619, Note_on_c, 15, 74, 0
22, 43619, Note_on_c, 15, 65, 0
22, 43620, Note_on_c, 15, 61, 72
22, 43620, Note_on_c, 15, 76, 72
22, 43620, Note_on_c, 15, 69, 72
22, 43679, Note_on_c, 15, 69, 0
22, 43679, Note_on_c, 15, 76, 0
22, 43679, Note_on_c, 15, 61, 0
22, 43680, Note_on_c, 15, 62, 72
22, 43680, Note_on_c, 15, 65, 72
22, 43680, Note_on_c, 15, 69, 72
22, 43739, Note_on_c, 15, 62, 0
22, 43740, Note_on_c, 15, 50, 72
22, 43799, Note_on_c, 15, 50, 0
22, 43799, Note_on_c, 15, 69, 0
22, 43799, Note_on_c, 15, 65, 0
22, 43800, Note_on_c, 15, 55, 72
22, 43800, Note_on_c, 15, 70, 72
22, 43800, Note_on_c, 15, 62, 72
22, 43859, Note_on_c, 15, 55, 0
22, 43860, Note_on_c, 15, 52, 72
22, 43919, Note_on_c, 15, 52, 0
22, 43919, Note_on_c, 15, 62, 0
22, 43919, Note_on_c, 15, 70, 0
22, 43920, Note_on_c, 15, 57, 72
22, 43920, Note_on_c, 15, 61, 72
22, 43920, Note_on_c, 15, 64, 72
22, 43979, Note_on_c, 15, 57, 0
22, 43980, Note_on_c, 15, 70, 72
22, 43980, Note_on_c, 15, 45, 72
22, 44039, Note_on_c, 15, 45, 0
22, 44039, Note_on_c, 15, 70, 0
22, 44040, Note_on_c, 15, 69, 72
22, 44040, Note_on_c, 15, 45, 72
22, 44099, Note_on_c, 15, 45, 0
22, 44099, Note_on_c, 15, 69, 0
22, 44100, Note_on_c, 15, 45, 72
22, 44100, Note_on_c, 15, 67, 72
22, 44159, Note_on_c, 15, 67, 0
22, 44159, Note_on_c, 15, 61, 0
22, 44159, Note_on_c, 15, 64, 0
22, 44159, Note_on_c, 15, 45, 0
22, 44160, Note_on_c, 15, 46, 72
22, 44160, Note_on_c, 15, 62, 72
22, 44160, Note_on_c, 15, 53, 72
22, 44189, Note_on_c, 15, 46, 0
22, 44190, Note_on_c, 15, 48, 72
22, 44219, Note_on_c, 15, 48, 0
22, 44220, Note_on_c, 15, 46, 72
22, 44249, Note_on_c, 15, 46, 0
22, 44250, Note_on_c, 15, 45, 72
22, 44279, Note_on_c, 15, 45, 0
22, 44279, Note_on_c, 15, 53, 0
22, 44279, Note_on_c, 15, 62, 0
22, 44280, Note_on_c, 15, 47, 72
22, 44280, Note_on_c, 15, 62, 72
22, 44280, Note_on_c, 15, 55, 72
22, 44309, Note_on_c, 15, 47, 0
22, 44310, Note_on_c, 15, 48, 72
22, 44339, Note_on_c, 15, 48, 0
22, 44339, Note_on_c, 15, 55, 0
22, 44339, Note_on_c, 15, 62, 0
22, 44340, Note_on_c, 15, 45, 72
22, 44340, Note_on_c, 15, 62, 72
22, 44340, Note_on_c, 15, 53, 72
22, 44369, Note_on_c, 15, 45, 0
22, 44370, Note_on_c, 15, 47, 72
22, 44399, Note_on_c, 15, 47, 0
22, 44399, Note_on_c, 15, 53, 0
22, 44399, Note_on_c, 15, 62, 0
22, 44400, Note_on_c, 15, 48, 72
22, 44400, Note_on_c, 15, 64, 72
22, 44400, Note_on_c, 15, 67, 72
22, 44429, Note_on_c, 15, 48, 0
22, 44430, Note_on_c, 15, 50, 72
22, 44459, Note_on_c, 15, 50, 0
22, 44459, Note_on_c, 15, 67, 0
22, 44459, Note_on_c, 15, 64, 0
22, 44460, Note_on_c, 15, 48, 72
22, 44460, Note_on_c, 15, 64, 72
22, 44460, Note_on_c, 15, 69, 72
22, 44489, Note_on_c, 15, 48, 0
22, 44490, Note_on_c, 15, 47, 72
22, 44519, Note_on_c, 15, 47, 0
22, 44520, Note_on_c, 15, 49, 72
22, 44549, Note_on_c, 15, 49, 0
22, 44550, Note_on_c, 15, 50, 72
22, 44579, Note_on_c, 15, 50, 0
22, 44580, Note_on_c, 15, 47, 72
22, 44609, Note_on_c, 15, 47, 0
22, 44610, Note_on_c, 15, 49, 72
22, 44639, Note_on_c, 15, 49, 0
22, 44639, Note_on_c, 15, 69, 0
22, 44639, Note_on_c, 15, 64, 0
22, 44640, Note_on_c, 15, 50, 72
22, 44640, Note_on_c, 15, 65, 72
22, 44640, Note_on_c, 15, 70, 72
22, 44640, Note_on_c, 15, 53, 72
22, 44699, Note_on_c, 15, 50, 0
22, 44700, Note_on_c, 15, 50, 72
22, 44759, Note_on_c, 15, 50, 0
22, 44759, Note_on_c, 15, 53, 0
22, 44759, Note_on_c, 15, 70, 0
22, 44759, Note_on_c, 15, 65, 0
22, 44760, Note_on_c, 15, 55, 72
22, 44760, Note_on_c, 15, 71, 72
22, 44760, Note_on_c, 15, 62, 72
22, 44819, Note_on_c, 15, 55, 0
22, 44820, Note_on_c, 15, 53, 72
22, 44879, Note_on_c, 15, 53, 0
22, 44879, Note_on_c, 15, 62, 0
22, 44879, Note_on_c, 15, 71, 0
22, 44880, Note_on_c, 15, 52, 72
22, 44880, Note_on_c, 15, 55, 72
22, 44880, Note_on_c, 15, 72, 72
22, 44939, Note_on_c, 15, 52, 0
22, 44940, Note_on_c, 15, 52, 72
22, 44999, Note_on_c, 15, 52, 0
22, 44999, Note_on_c, 15, 72, 0
22, 44999, Note_on_c, 15, 55, 0
22, 45000, Note_on_c, 15, 57, 72
22, 45000, Note_on_c, 15, 73, 72
22, 45000, Note_on_c, 15, 64, 72
22, 45059, Note_on_c, 15, 57, 0
22, 45060, Note_on_c, 15, 55, 72
22, 45119, Note_on_c, 15, 55, 0
22, 45119, Note_on_c, 15, 64, 0
22, 45119, Note_on_c, 15, 73, 0
22, 45120, Note_on_c, 15, 53, 72
22, 45120, Note_on_c, 15, 69, 72
22, 45120, Note_on_c, 15, 74, 72
22, 45179, Note_on_c, 15, 53, 0
22, 45180, Note_on_c, 15, 57, 72
22, 45239, Note_on_c, 15, 57, 0
22, 45239, Note_on_c, 15, 74, 0
22, 45239, Note_on_c, 15, 69, 0
22, 45240, Note_on_c, 15, 62, 72
22, 45240, Note_on_c, 15, 66, 72
22, 45240, Note_on_c, 15, 70, 72
22, 45299, Note_on_c, 15, 70, 0
22, 45299, Note_on_c, 15, 66, 0
22, 45299, Note_on_c, 15, 62, 0
22, 45300, Note_on_c, 15, 60, 72
22, 45300, Note_on_c, 15, 64, 72
22, 45300, Note_on_c, 15, 67, 72
22, 45359, Note_on_c, 15, 67, 0
22, 45359, Note_on_c, 15, 64, 0
22, 45359, Note_on_c, 15, 60, 0
22, 45360, Note_on_c, 15, 59, 72
22, 45360, Note_on_c, 15, 62, 72
22, 45360, Note_on_c, 15, 67, 72
22, 45419, Note_on_c, 15, 62, 0
22, 45419, Note_on_c, 15, 59, 0
22, 45420, Note_on_c, 15, 59, 72
22, 45420, Note_on_c, 15, 76, 72
22, 45479, Note_on_c, 15, 76, 0
22, 45479, Note_on_c, 15, 59, 0
22, 45479, Note_on_c, 15, 67, 0
22, 45480, Note_on_c, 15, 64, 72
22, 45480, Note_on_c, 15, 68, 72
22, 45480, Note_on_c, 15, 70, 72
22, 45539, Note_on_c, 15, 64, 0
22, 45540, Note_on_c, 15, 52, 72
22, 45540, Note_on_c, 15, 62, 72
22, 45599, Note_on_c, 15, 62, 0
22, 45599, Note_on_c, 15, 68, 0
22, 45599, Note_on_c, 15, 70, 0
22, 45599, Note_on_c, 15, 52, 0
22, 45600, Note_on_c, 15, 57, 72
22, 45600, Note_on_c, 15, 60, 72
22, 45600, Note_on_c, 15, 77, 72
22, 45659, Note_on_c, 15, 57, 0
22, 45660, Note_on_c, 15, 45, 72
22, 45719, Note_on_c, 15, 45, 0
22, 45719, Note_on_c, 15, 77, 0
22, 45719, Note_on_c, 15, 60, 0
22, 45720, Note_on_c, 15, 50, 72
22, 45720, Note_on_c, 15, 78, 72
22, 45720, Note_on_c, 15, 69, 72
22, 45720, Note_on_c, 15, 62, 72
22, 45779, Note_on_c, 15, 50, 0
22, 45780, Note_on_c, 15, 48, 72
22, 45839, Note_on_c, 15, 48, 0
22, 45839, Note_on_c, 15, 62, 0
22, 45839, Note_on_c, 15, 69, 0
22, 45839, Note_on_c, 15, 78, 0
22, 45840, Note_on_c, 15, 47, 72
22, 45840, Note_on_c, 15, 62, 72
22, 45840, Note_on_c, 15, 67, 72
22, 45840, Note_on_c, 15, 79, 72
22, 45899, Note_on_c, 15, 47, 0
22, 45900, Note_on_c, 15, 47, 72
22, 45959, Note_on_c, 15, 47, 0
22, 45959, Note_on_c, 15, 79, 0
22, 45959, Note_on_c, 15, 67, 0
22, 45959, Note_on_c, 15, 62, 0
22, 45960, Note_on_c, 15, 52, 72
22, 45960, Note_on_c, 15, 80, 72
22, 46019, Note_on_c, 15, 52, 0
22, 46020, Note_on_c, 15, 50, 72
22, 46079, Note_on_c, 15, 50, 0
22, 46079, Note_on_c, 15, 80, 0
22, 46080, Note_on_c, 15, 49, 72
22, 46080, Note_on_c, 15, 64, 72
22, 46080, Note_on_c, 15, 69, 72
22, 46139, Note_on_c, 15, 69, 0
22, 46139, Note_on_c, 15, 64, 0
22, 46139, Note_on_c, 15, 49, 0
22, 46140, Note_on_c, 15, 57, 72
22, 46140, Note_on_c, 15, 73, 72
22, 46140, Note_on_c, 15, 64, 72
22, 46140, Note_on_c, 15, 67, 72
22, 46199, Note_on_c, 15, 67, 0
22, 46199, Note_on_c, 15, 57, 0
22, 46199, Note_on_c, 15, 73, 0
22, 46199, Note_on_c, 15, 64, 0
22, 46200, Note_on_c, 15, 58, 72
22, 46200, Note_on_c, 15, 74, 72
22, 46200, Note_on_c, 15, 65, 72
22, 46259, Note_on_c, 15, 65, 0
22, 46259, Note_on_c, 15, 74, 0
22, 46259, Note_on_c, 15, 58, 0
22, 46260, Note_on_c, 15, 55, 72
22, 46260, Note_on_c, 15, 70, 72
22, 46260, Note_on_c, 15, 74, 72
22, 46260, Note_on_c, 15, 65, 72
22, 46319, Note_on_c, 15, 65, 0
22, 46319, Note_on_c, 15, 55, 0
22, 46319, Note_on_c, 15, 70, 0
22, 46319, Note_on_c, 15, 74, 0
22, 46320, Note_on_c, 15, 57, 72
22, 46320, Note_on_c, 15, 74, 72
22, 46320, Note_on_c, 15, 64, 72
22, 46320, Note_on_c, 15, 69, 72
22, 46439, Note_on_c, 15, 69, 0
22, 46439, Note_on_c, 15, 57, 0
22, 46439, Note_on_c, 15, 74, 0
22, 46439, Note_on_c, 15, 64, 0
22, 46440, Note_on_c, 15, 45, 72
22, 46440, Note_on_c, 15, 73, 72
22, 46440, Note_on_c, 15, 64, 72
22, 46440, Note_on_c, 15, 57, 72
22, 46559, Note_on_c, 15, 57, 0
22, 46559, Note_on_c, 15, 45, 0
22, 46559, Note_on_c, 15, 73, 0
22, 46559, Note_on_c, 15, 64, 0
22, 46560, Note_on_c, 15, 44, 72
22, 46560, Note_on_c, 15, 71, 72
22, 46560, Note_on_c, 15, 74, 72
22, 46560, Note_on_c, 15, 65, 72
22, 46799, Note_on_c, 15, 65, 0
22, 46799, Note_on_c, 15, 44, 0
22, 46799, Note_on_c, 15, 71, 0
22, 46799, Note_on_c, 15, 74, 0
22, 46920, Note_on_c, 15, 56, 72
22, 46920, Note_on_c, 15, 71, 72
22, 46920, Note_on_c, 15, 74, 72
22, 46920, Note_on_c, 15, 65, 72
22, 47039, Note_on_c, 15, 65, 0
22, 47039, Note_on_c, 15, 56, 0
22, 47039, Note_on_c, 15, 71, 0
22, 47039, Note_on_c, 15, 74, 0
22, 47040, Note_on_c, 15, 57, 72
22, 47040, Note_on_c, 15, 73, 72
22, 47040, Note_on_c, 15, 64, 72
22, 47040, Note_on_c, 15, 69, 72
22, 47159, Note_on_c, 15, 69, 0
22, 47159, Note_on_c, 15, 57, 0
22, 47159, Note_on_c, 15, 73, 0
22, 47159, Note_on_c, 15, 64, 0
22, 47160, Note_on_c, 15, 53, 72
22, 47160, Note_on_c, 15, 69, 72
22, 47160, Note_on_c, 15, 74, 72
22, 47219, Note_on_c, 15, 53, 0
22, 47220, Note_on_c, 15, 50, 72
22, 47279, Note_on_c, 15, 50, 0
22, 47279, Note_on_c, 15, 74, 0
22, 47279, Note_on_c, 15, 69, 0
22, 47280, Note_on_c, 15, 45, 72
22, 47280, Note_on_c, 15, 74, 72
22, 47280, Note_on_c, 15, 65, 72
22, 47280, Note_on_c, 15, 69, 72
22, 47399, Note_on_c, 15, 69, 0
22, 47399, Note_on_c, 15, 45, 0
22, 47399, Note_on_c, 15, 74, 0
22, 47399, Note_on_c, 15, 65, 0
22, 47400, Note_on_c, 15, 45, 72
22, 47400, Note_on_c, 15, 73, 72
22, 47400, Note_on_c, 15, 64, 72
22, 47400, Note_on_c, 15, 69, 72
22, 47519, Note_on_c, 15, 69, 0
22, 47519, Note_on_c, 15, 45, 0
22, 47519, Note_on_c, 15, 73, 0
22, 47519, Note_on_c, 15, 64, 0
22, 47520, Note_on_c, 15, 50, 72
22, 47520, Note_on_c, 15, 69, 72
22, 47520, Note_on_c, 15, 62, 72
22, 47520, Note_on_c, 15, 74, 72
22, 47520, Note_on_c, 15, 65, 72
22, 47999, Note_on_c, 15, 65, 0
22, 47999, Note_on_c, 15, 62, 0
22, 47999, Note_on_c, 15, 50, 0
22, 47999, Note_on_c, 15, 69, 0
22, 47999, Note_on_c, 15, 74, 0
22, 47999, End_track
23, 0, Start_track
23, 0, End_track
0, 0, End_of_file