0, 0, Header, 1, 8, 120
1, 0, Start_track
1, 0, MIDI_port, 0
1, 0, System_exclusive, 05, 7E, 7F, 09, 01, F7
1, 0, MIDI_port, 0
1, 0, Time_signature, 4, 2, 24, 8
1, 0, Key_signature, -4, "major"
1, 0, Tempo, 545455
1, 480, Marker_t, """Allegro"""
1, 36480, Time_signature, 3, 2, 24, 8
1, 36480, Tempo, 909091
1, 36480, Marker_t, """Andante"""
1, 66720, Time_signature, 4, 2, 24, 8
1, 66720, Tempo, 545455
1, 66720, Marker_t, """Tempo I"""
1, 66720, End_track
2, 0, Start_track
2, 0, MIDI_port, 0
2, 0, Title_t, "Primo"
2, 0, Program_c, 0, 19
2, 0, Control_c, 0, 121, 0
2, 0, Control_c, 0, 1, 5
2, 0, Control_c, 0, 7, 127
2, 0, Control_c, 0, 10, 84
2, 0, Control_c, 0, 91, 127
2, 480, Note_on_c, 0, 68, 89
2, 480, Note_on_c, 0, 77, 93
2, 480, Note_on_c, 0, 72, 89
2, 592, Note_on_c, 0, 72, 0
2, 593, Note_on_c, 0, 77, 0
2, 596, Note_on_c, 0, 68, 0
2, 660, Note_on_c, 0, 70, 98
2, 660, Note_on_c, 0, 67, 93
2, 675, Note_on_c, 0, 67, 0
2, 675, Note_on_c, 0, 68, 90
2, 675, Note_on_c, 0, 65, 85
2, 679, Note_on_c, 0, 70, 0
2, 686, Note_on_c, 0, 68, 0
2, 689, Note_on_c, 0, 65, 0
2, 690, Note_on_c, 0, 67, 85
2, 690, Note_on_c, 0, 64, 80
2, 705, Note_on_c, 0, 67, 0
2, 705, Note_on_c, 0, 68, 80
2, 705, Note_on_c, 0, 65, 85
2, 706, Note_on_c, 0, 64, 0
2, 717, Note_on_c, 0, 65, 0
2, 718, Note_on_c, 0, 68, 0
2, 720, Note_on_c, 0, 72, 85
2, 720, Note_on_c, 0, 68, 76
2, 795, Note_on_c, 0, 72, 0
2, 796, Note_on_c, 0, 68, 0
2, 810, Note_on_c, 0, 72, 80
2, 810, Note_on_c, 0, 68, 89
2, 834, Note_on_c, 0, 68, 0
2, 839, Note_on_c, 0, 72, 0
2, 840, Note_on_c, 0, 70, 93
2, 840, Note_on_c, 0, 67, 85
2, 917, Note_on_c, 0, 70, 0
2, 922, Note_on_c, 0, 67, 0
2, 930, Note_on_c, 0, 68, 93
2, 930, Note_on_c, 0, 65, 102
2, 951, Note_on_c, 0, 68, 0
2, 955, Note_on_c, 0, 65, 0
2, 960, Note_on_c, 0, 73, 89
2, 960, Note_on_c, 0, 70, 85
2, 960, Note_on_c, 0, 79, 98
2, 960, Note_on_c, 0, 67, 93
2, 1076, Note_on_c, 0, 67, 0
2, 1077, Note_on_c, 0, 73, 0
2, 1078, Note_on_c, 0, 79, 0
2, 1078, Note_on_c, 0, 70, 0
2, 1140, Note_on_c, 0, 72, 89
2, 1140, Note_on_c, 0, 68, 93
2, 1155, Note_on_c, 0, 68, 0
2, 1155, Note_on_c, 0, 70, 80
2, 1155, Note_on_c, 0, 67, 89
2, 1157, Note_on_c, 0, 72, 0
2, 1169, Note_on_c, 0, 70, 0
2, 1170, Note_on_c, 0, 67, 0
2, 1170, Note_on_c, 0, 69, 80
2, 1170, Note_on_c, 0, 66, 60
2, 1183, Note_on_c, 0, 66, 0
2, 1184, Note_on_c, 0, 69, 0
2, 1185, Note_on_c, 0, 70, 80
2, 1185, Note_on_c, 0, 67, 85
2, 1197, Note_on_c, 0, 70, 0
2, 1199, Note_on_c, 0, 67, 0
2, 1200, Note_on_c, 0, 70, 89
2, 1204, Note_on_c, 0, 73, 89
2, 1277, Note_on_c, 0, 73, 0
2, 1278, Note_on_c, 0, 70, 0
2, 1290, Note_on_c, 0, 73, 89
2, 1290, Note_on_c, 0, 70, 89
2, 1314, Note_on_c, 0, 70, 0
2, 1315, Note_on_c, 0, 73, 0
2, 1320, Note_on_c, 0, 72, 93
2, 1320, Note_on_c, 0, 68, 85
2, 1395, Note_on_c, 0, 72, 0
2, 1398, Note_on_c, 0, 68, 0
2, 1410, Note_on_c, 0, 70, 102
2, 1410, Note_on_c, 0, 67, 98
2, 1429, Note_on_c, 0, 70, 0
2, 1432, Note_on_c, 0, 67, 0
2, 1440, Note_on_c, 0, 73, 89
2, 1440, Note_on_c, 0, 79, 98
2, 1440, Note_on_c, 0, 82, 89
2, 1440, Note_on_c, 0, 70, 80
2, 1440, Note_on_c, 0, 67, 93
2, 1557, Note_on_c, 0, 82, 0
2, 1557, Note_on_c, 0, 79, 0
2, 1562, Note_on_c, 0, 73, 0
2, 1564, Note_on_c, 0, 70, 0
2, 1568, Note_on_c, 0, 67, 0
2, 1620, Note_on_c, 0, 72, 93
2, 1620, Note_on_c, 0, 68, 89
2, 1635, Note_on_c, 0, 70, 60
2, 1635, Note_on_c, 0, 67, 93
2, 1636, Note_on_c, 0, 68, 0
2, 1638, Note_on_c, 0, 72, 0
2, 1649, Note_on_c, 0, 70, 0
2, 1650, Note_on_c, 0, 69, 89
2, 1650, Note_on_c, 0, 66, 68
2, 1651, Note_on_c, 0, 67, 0
2, 1664, Note_on_c, 0, 69, 0
2, 1665, Note_on_c, 0, 66, 0
2, 1665, Note_on_c, 0, 70, 68
2, 1665, Note_on_c, 0, 67, 89
2, 1677, Note_on_c, 0, 70, 0
2, 1679, Note_on_c, 0, 67, 0
2, 1680, Note_on_c, 0, 73, 102
2, 1680, Note_on_c, 0, 70, 89
2, 1754, Note_on_c, 0, 70, 0
2, 1755, Note_on_c, 0, 73, 0
2, 1770, Note_on_c, 0, 73, 85
2, 1770, Note_on_c, 0, 70, 89
2, 1794, Note_on_c, 0, 70, 0
2, 1794, Note_on_c, 0, 73, 0
2, 1800, Note_on_c, 0, 72, 89
2, 1800, Note_on_c, 0, 68, 85
2, 1877, Note_on_c, 0, 72, 0
2, 1882, Note_on_c, 0, 68, 0
2, 1890, Note_on_c, 0, 70, 89
2, 1890, Note_on_c, 0, 67, 93
2, 1908, Note_on_c, 0, 70, 0
2, 1915, Note_on_c, 0, 67, 0
2, 1920, Note_on_c, 0, 84, 93
2, 1920, Note_on_c, 0, 78, 93
2, 1920, Note_on_c, 0, 81, 102
2, 1920, Note_on_c, 0, 75, 76
2, 1920, Note_on_c, 0, 72, 89
2, 1920, Note_on_c, 0, 69, 89
2, 2031, Note_on_c, 0, 72, 0
2, 2032, Note_on_c, 0, 75, 0
2, 2033, Note_on_c, 0, 81, 0
2, 2033, Note_on_c, 0, 78, 0
2, 2033, Note_on_c, 0, 69, 0
2, 2034, Note_on_c, 0, 84, 0
2, 2100, Note_on_c, 0, 73, 93
2, 2100, Note_on_c, 0, 70, 89
2, 2115, Note_on_c, 0, 72, 85
2, 2115, Note_on_c, 0, 69, 85
2, 2117, Note_on_c, 0, 73, 0
2, 2118, Note_on_c, 0, 70, 0
2, 2125, Note_on_c, 0, 69, 0
2, 2129, Note_on_c, 0, 72, 0
2, 2130, Note_on_c, 0, 71, 80
2, 2130, Note_on_c, 0, 68, 48
2, 2144, Note_on_c, 0, 71, 0
2, 2145, Note_on_c, 0, 72, 85
2, 2145, Note_on_c, 0, 69, 93
2, 2148, Note_on_c, 0, 68, 0
2, 2158, Note_on_c, 0, 72, 0
2, 2160, Note_on_c, 0, 69, 0
2, 2160, Note_on_c, 0, 75, 80
2, 2160, Note_on_c, 0, 72, 85
2, 2231, Note_on_c, 0, 75, 0
2, 2236, Note_on_c, 0, 72, 0
2, 2250, Note_on_c, 0, 75, 89
2, 2250, Note_on_c, 0, 72, 85
2, 2277, Note_on_c, 0, 72, 0
2, 2277, Note_on_c, 0, 75, 0
2, 2280, Note_on_c, 0, 73, 85
2, 2280, Note_on_c, 0, 70, 85
2, 2357, Note_on_c, 0, 73, 0
2, 2363, Note_on_c, 0, 70, 0
2, 2370, Note_on_c, 0, 72, 93
2, 2370, Note_on_c, 0, 69, 93
2, 2391, Note_on_c, 0, 72, 0
2, 2392, Note_on_c, 0, 69, 0
2, 2400, Note_on_c, 0, 82, 76
2, 2400, Note_on_c, 0, 73, 98
2, 2400, Note_on_c, 0, 77, 93
2, 2400, Note_on_c, 0, 70, 72
2, 2400, Note_on_c, 0, 73, 85
2, 2506, Note_on_c, 0, 70, 0
2, 2509, Note_on_c, 0, 73, 0
2, 2514, Note_on_c, 0, 73, 0
2, 2515, Note_on_c, 0, 77, 0
2, 2517, Note_on_c, 0, 82, 0
2, 2640, Note_on_c, 0, 84, 89
2, 2640, Note_on_c, 0, 81, 85
2, 2640, Note_on_c, 0, 77, 89
2, 2640, Note_on_c, 0, 75, 72
2, 2640, Note_on_c, 0, 72, 93
2, 2756, Note_on_c, 0, 77, 0
2, 2758, Note_on_c, 0, 81, 0
2, 2760, Note_on_c, 0, 84, 0
2, 2764, Note_on_c, 0, 72, 0
2, 2764, Note_on_c, 0, 75, 0
2, 2880, Note_on_c, 0, 77, 93
2, 2880, Note_on_c, 0, 82, 93
2, 2880, Note_on_c, 0, 85, 93
2, 2880, Note_on_c, 0, 73, 85
2, 2880, Note_on_c, 0, 70, 89
2, 2995, Note_on_c, 0, 82, 0
2, 2997, Note_on_c, 0, 85, 0
2, 3002, Note_on_c, 0, 77, 0
2, 3004, Note_on_c, 0, 70, 0
2, 3007, Note_on_c, 0, 73, 0
2, 3060, Note_on_c, 0, 78, 93
2, 3060, Note_on_c, 0, 75, 89
2, 3075, Note_on_c, 0, 77, 76
2, 3075, Note_on_c, 0, 73, 68
2, 3078, Note_on_c, 0, 75, 0
2, 3078, Note_on_c, 0, 78, 0
2, 3088, Note_on_c, 0, 73, 0
2, 3089, Note_on_c, 0, 77, 0
2, 3090, Note_on_c, 0, 76, 85
2, 3090, Note_on_c, 0, 72, 76
2, 3104, Note_on_c, 0, 72, 0
2, 3105, Note_on_c, 0, 76, 0
2, 3105, Note_on_c, 0, 77, 89
2, 3105, Note_on_c, 0, 73, 72
2, 3116, Note_on_c, 0, 73, 0
2, 3117, Note_on_c, 0, 77, 0
2, 3120, Note_on_c, 0, 85, 93
2, 3120, Note_on_c, 0, 77, 89
2, 3193, Note_on_c, 0, 85, 0
2, 3201, Note_on_c, 0, 77, 0
2, 3210, Note_on_c, 0, 85, 76
2, 3210, Note_on_c, 0, 77, 80
2, 3236, Note_on_c, 0, 77, 0
2, 3237, Note_on_c, 0, 85, 0
2, 3240, Note_on_c, 0, 84, 93
2, 3240, Note_on_c, 0, 75, 89
2, 3313, Note_on_c, 0, 75, 0
2, 3319, Note_on_c, 0, 84, 0
2, 3330, Note_on_c, 0, 84, 85
2, 3330, Note_on_c, 0, 75, 85
2, 3353, Note_on_c, 0, 75, 0
2, 3356, Note_on_c, 0, 84, 0
2, 3360, Note_on_c, 0, 82, 98
2, 3360, Note_on_c, 0, 73, 93
2, 3472, Note_on_c, 0, 82, 0
2, 3486, Note_on_c, 0, 73, 0
2, 3540, Note_on_c, 0, 75, 102
2, 3540, Note_on_c, 0, 72, 89
2, 3555, Note_on_c, 0, 73, 56
2, 3555, Note_on_c, 0, 70, 80
2, 3558, Note_on_c, 0, 72, 0
2, 3559, Note_on_c, 0, 75, 0
2, 3568, Note_on_c, 0, 73, 0
2, 3569, Note_on_c, 0, 70, 0
2, 3570, Note_on_c, 0, 72, 85
2, 3570, Note_on_c, 0, 68, 62
2, 3585, Note_on_c, 0, 73, 93
2, 3585, Note_on_c, 0, 70, 76
2, 3586, Note_on_c, 0, 72, 0
2, 3587, Note_on_c, 0, 68, 0
2, 3596, Note_on_c, 0, 73, 0
2, 3599, Note_on_c, 0, 70, 0
2, 3600, Note_on_c, 0, 82, 85
2, 3600, Note_on_c, 0, 73, 80
2, 3675, Note_on_c, 0, 73, 0
2, 3675, Note_on_c, 0, 82, 0
2, 3690, Note_on_c, 0, 82, 80
2, 3690, Note_on_c, 0, 73, 89
2, 3716, Note_on_c, 0, 82, 0
2, 3717, Note_on_c, 0, 73, 0
2, 3720, Note_on_c, 0, 80, 89
2, 3720, Note_on_c, 0, 71, 93
2, 3793, Note_on_c, 0, 80, 0
2, 3794, Note_on_c, 0, 71, 0
2, 3810, Note_on_c, 0, 80, 89
2, 3810, Note_on_c, 0, 71, 93
2, 3834, Note_on_c, 0, 80, 0
2, 3838, Note_on_c, 0, 71, 0
2, 3840, Note_on_c, 0, 78, 93
2, 3840, Note_on_c, 0, 70, 85
2, 3960, Note_on_c, 0, 78, 0
2, 3962, Note_on_c, 0, 70, 0
2, 4020, Note_on_c, 0, 71, 85
2, 4020, Note_on_c, 0, 68, 89
2, 4035, Note_on_c, 0, 70, 76
2, 4035, Note_on_c, 0, 66, 60
2, 4036, Note_on_c, 0, 68, 0
2, 4037, Note_on_c, 0, 71, 0
2, 4049, Note_on_c, 0, 70, 0
2, 4050, Note_on_c, 0, 68, 93
2, 4050, Note_on_c, 0, 65, 80
2, 4051, Note_on_c, 0, 66, 0
2, 4064, Note_on_c, 0, 68, 0
2, 4065, Note_on_c, 0, 65, 0
2, 4065, Note_on_c, 0, 70, 57
2, 4065, Note_on_c, 0, 66, 72
2, 4076, Note_on_c, 0, 66, 0
2, 4077, Note_on_c, 0, 70, 0
2, 4080, Note_on_c, 0, 78, 89
2, 4080, Note_on_c, 0, 70, 89
2, 4153, Note_on_c, 0, 78, 0
2, 4155, Note_on_c, 0, 70, 0
2, 4170, Note_on_c, 0, 78, 85
2, 4170, Note_on_c, 0, 70, 80
2, 4190, Note_on_c, 0, 78, 0
2, 4193, Note_on_c, 0, 70, 0
2, 4200, Note_on_c, 0, 77, 85
2, 4200, Note_on_c, 0, 68, 93
2, 4275, Note_on_c, 0, 77, 0
2, 4277, Note_on_c, 0, 68, 0
2, 4290, Note_on_c, 0, 77, 80
2, 4290, Note_on_c, 0, 68, 76
2, 4311, Note_on_c, 0, 77, 0
2, 4315, Note_on_c, 0, 68, 0
2, 4320, Note_on_c, 0, 76, 89
2, 4320, Note_on_c, 0, 67, 89
2, 4545, Note_on_c, 0, 67, 0
2, 4546, Note_on_c, 0, 76, 0
2, 4560, Note_on_c, 0, 77, 89
2, 4560, Note_on_c, 0, 65, 85
2, 4678, Note_on_c, 0, 77, 0
2, 4680, Note_on_c, 0, 65, 0
2, 4680, Note_on_c, 0, 71, 85
2, 4680, Note_on_c, 0, 67, 89
2, 4768, Note_on_c, 0, 67, 0
2, 4770, Note_on_c, 0, 68, 80
2, 4790, Note_on_c, 0, 71, 0
2, 4799, Note_on_c, 0, 68, 0
2, 4800, Note_on_c, 0, 72, 93
2, 4800, Note_on_c, 0, 67, 76
2, 4918, Note_on_c, 0, 67, 0
2, 4924, Note_on_c, 0, 72, 0
2, 4950, Note_on_c, 0, 84, 80
2, 4980, Note_on_c, 0, 84, 0
2, 4980, Note_on_c, 0, 83, 72
2, 5009, Note_on_c, 0, 83, 0
2, 5010, Note_on_c, 0, 84, 72
2, 5039, Note_on_c, 0, 84, 0
2, 5040, Note_on_c, 0, 79, 76
2, 5069, Note_on_c, 0, 79, 0
2, 5070, Note_on_c, 0, 80, 76
2, 5100, Note_on_c, 0, 80, 0
2, 5100, Note_on_c, 0, 82, 62
2, 5129, Note_on_c, 0, 82, 0
2, 5130, Note_on_c, 0, 80, 72
2, 5160, Note_on_c, 0, 80, 0
2, 5160, Note_on_c, 0, 76, 80
2, 5160, Note_on_c, 0, 59, 89
2, 5189, Note_on_c, 0, 76, 0
2, 5190, Note_on_c, 0, 77, 72
2, 5220, Note_on_c, 0, 77, 0
2, 5220, Note_on_c, 0, 79, 76
2, 5249, Note_on_c, 0, 79, 0
2, 5250, Note_on_c, 0, 77, 76
2, 5273, Note_on_c, 0, 59, 0
2, 5280, Note_on_c, 0, 72, 80
2, 5280, Note_on_c, 0, 60, 85
2, 5281, Note_on_c, 0, 77, 0
2, 5392, Note_on_c, 0, 72, 0
2, 5398, Note_on_c, 0, 60, 0
2, 5430, Note_on_c, 0, 72, 80
2, 5459, Note_on_c, 0, 72, 0
2, 5460, Note_on_c, 0, 71, 76
2, 5487, Note_on_c, 0, 71, 0
2, 5490, Note_on_c, 0, 72, 89
2, 5520, Note_on_c, 0, 67, 80
2, 5521, Note_on_c, 0, 72, 0
2, 5550, Note_on_c, 0, 68, 72
2, 5552, Note_on_c, 0, 67, 0
2, 5580, Note_on_c, 0, 70, 76
2, 5582, Note_on_c, 0, 68, 0
2, 5610, Note_on_c, 0, 70, 0
2, 5610, Note_on_c, 0, 68, 68
2, 5640, Note_on_c, 0, 64, 85
2, 5640, Note_on_c, 0, 59, 89
2, 5642, Note_on_c, 0, 68, 0
2, 5669, Note_on_c, 0, 64, 0
2, 5670, Note_on_c, 0, 65, 80
2, 5699, Note_on_c, 0, 65, 0
2, 5700, Note_on_c, 0, 67, 76
2, 5728, Note_on_c, 0, 67, 0
2, 5730, Note_on_c, 0, 65, 76
2, 5757, Note_on_c, 0, 59, 0
2, 5760, Note_on_c, 0, 65, 0
2, 5760, Note_on_c, 0, 60, 76
2, 5760, Note_on_c, 0, 60, 89
2, 5880, Note_on_c, 0, 60, 0
2, 5903, Note_on_c, 0, 60, 0
2, 5910, Note_on_c, 0, 62, 89
2, 5925, Note_on_c, 0, 64, 72
2, 5927, Note_on_c, 0, 62, 0
2, 5938, Note_on_c, 0, 64, 0
2, 5940, Note_on_c, 0, 65, 80
2, 5955, Note_on_c, 0, 67, 76
2, 5959, Note_on_c, 0, 65, 0
2, 5970, Note_on_c, 0, 69, 64
2, 5972, Note_on_c, 0, 67, 0
2, 5985, Note_on_c, 0, 69, 0
2, 5985, Note_on_c, 0, 71, 76
2, 6000, Note_on_c, 0, 72, 93
2, 6002, Note_on_c, 0, 71, 0
2, 6140, Note_on_c, 0, 72, 0
2, 6150, Note_on_c, 0, 74, 89
2, 6165, Note_on_c, 0, 74, 0
2, 6165, Note_on_c, 0, 76, 76
2, 6176, Note_on_c, 0, 76, 0
2, 6180, Note_on_c, 0, 77, 89
2, 6195, Note_on_c, 0, 79, 76
2, 6198, Note_on_c, 0, 77, 0
2, 6210, Note_on_c, 0, 81, 80
2, 6215, Note_on_c, 0, 79, 0
2, 6225, Note_on_c, 0, 81, 0
2, 6225, Note_on_c, 0, 83, 76
2, 6239, Note_on_c, 0, 83, 0
2, 6240, Note_on_c, 0, 84, 80
2, 6349, Note_on_c, 0, 84, 0
2, 6480, Note_on_c, 0, 72, 85
2, 6712, Note_on_c, 0, 72, 0
2, 6720, Note_on_c, 0, 65, 80
2, 6952, Note_on_c, 0, 65, 0
2, 6960, Note_on_c, 0, 67, 93
2, 7187, Note_on_c, 0, 67, 0
2, 7200, Note_on_c, 0, 68, 85
2, 7214, Note_on_c, 0, 68, 0
2, 7260, Note_on_c, 0, 68, 72
2, 7320, Note_on_c, 0, 67, 85
2, 7323, Note_on_c, 0, 68, 0
2, 7374, Note_on_c, 0, 67, 0
2, 7380, Note_on_c, 0, 65, 89
2, 7437, Note_on_c, 0, 65, 0
2, 7440, Note_on_c, 0, 70, 80
2, 7460, Note_on_c, 0, 70, 0
2, 7500, Note_on_c, 0, 70, 85
2, 7560, Note_on_c, 0, 70, 0
2, 7560, Note_on_c, 0, 68, 72
2, 7616, Note_on_c, 0, 68, 0
2, 7620, Note_on_c, 0, 67, 80
2, 7680, Note_on_c, 0, 68, 89
2, 7681, Note_on_c, 0, 67, 0
2, 7697, Note_on_c, 0, 68, 0
2, 7740, Note_on_c, 0, 68, 76
2, 7800, Note_on_c, 0, 67, 76
2, 7801, Note_on_c, 0, 68, 0
2, 7857, Note_on_c, 0, 67, 0
2, 7860, Note_on_c, 0, 65, 80
2, 7916, Note_on_c, 0, 65, 0
2, 7920, Note_on_c, 0, 70, 85
2, 7939, Note_on_c, 0, 70, 0
2, 7980, Note_on_c, 0, 70, 76
2, 8039, Note_on_c, 0, 70, 0
2, 8040, Note_on_c, 0, 68, 72
2, 8096, Note_on_c, 0, 68, 0
2, 8100, Note_on_c, 0, 67, 76
2, 8160, Note_on_c, 0, 68, 85
2, 8161, Note_on_c, 0, 67, 0
2, 8216, Note_on_c, 0, 68, 0
2, 8220, Note_on_c, 0, 67, 80
2, 8280, Note_on_c, 0, 67, 0
2, 8280, Note_on_c, 0, 65, 76
2, 8340, Note_on_c, 0, 65, 0
2, 8340, Note_on_c, 0, 67, 89
2, 8398, Note_on_c, 0, 67, 0
2, 8400, Note_on_c, 0, 68, 80
2, 8400, Note_on_c, 0, 65, 93
2, 8457, Note_on_c, 0, 68, 0
2, 8460, Note_on_c, 0, 69, 80
2, 8520, Note_on_c, 0, 69, 0
2, 8520, Note_on_c, 0, 70, 76
2, 8576, Note_on_c, 0, 70, 0
2, 8580, Note_on_c, 0, 71, 76
2, 8626, Note_on_c, 0, 65, 0
2, 8640, Note_on_c, 0, 71, 0
2, 8640, Note_on_c, 0, 60, 90
2, 8700, Note_on_c, 0, 75, 76
2, 8757, Note_on_c, 0, 75, 0
2, 8760, Note_on_c, 0, 74, 80
2, 8819, Note_on_c, 0, 74, 0
2, 8820, Note_on_c, 0, 72, 76
2, 8868, Note_on_c, 0, 60, 0
2, 8879, Note_on_c, 0, 72, 0
2, 8880, Note_on_c, 0, 71, 80
2, 8880, Note_on_c, 0, 62, 80
2, 8936, Note_on_c, 0, 71, 0
2, 8940, Note_on_c, 0, 72, 93
2, 9000, Note_on_c, 0, 72, 0
2, 9000, Note_on_c, 0, 69, 72
2, 9055, Note_on_c, 0, 69, 0
2, 9060, Note_on_c, 0, 71, 80
2, 9106, Note_on_c, 0, 62, 0
2, 9118, Note_on_c, 0, 71, 0
2, 9120, Note_on_c, 0, 72, 80
2, 9120, Note_on_c, 0, 63, 85
2, 9142, Note_on_c, 0, 63, 0
2, 9180, Note_on_c, 0, 63, 85
2, 9236, Note_on_c, 0, 63, 0
2, 9240, Note_on_c, 0, 62, 89
2, 9247, Note_on_c, 0, 72, 0
2, 9296, Note_on_c, 0, 62, 0
2, 9300, Note_on_c, 0, 84, 85
2, 9300, Note_on_c, 0, 60, 76
2, 9356, Note_on_c, 0, 60, 0
2, 9360, Note_on_c, 0, 74, 72
2, 9360, Note_on_c, 0, 65, 93
2, 9362, Note_on_c, 0, 84, 0
2, 9382, Note_on_c, 0, 65, 0
2, 9417, Note_on_c, 0, 74, 0
2, 9420, Note_on_c, 0, 84, 80
2, 9420, Note_on_c, 0, 65, 98
2, 9479, Note_on_c, 0, 84, 0
2, 9480, Note_on_c, 0, 65, 0
2, 9480, Note_on_c, 0, 74, 80
2, 9480, Note_on_c, 0, 63, 72
2, 9536, Note_on_c, 0, 74, 0
2, 9540, Note_on_c, 0, 83, 80
2, 9540, Note_on_c, 0, 62, 89
2, 9541, Note_on_c, 0, 63, 0
2, 9599, Note_on_c, 0, 83, 0
2, 9600, Note_on_c, 0, 84, 72
2, 9600, Note_on_c, 0, 63, 80
2, 9602, Note_on_c, 0, 62, 0
2, 9623, Note_on_c, 0, 63, 0
2, 9660, Note_on_c, 0, 63, 80
2, 9709, Note_on_c, 0, 63, 0
2, 9720, Note_on_c, 0, 62, 85
2, 9722, Note_on_c, 0, 84, 0
2, 9780, Note_on_c, 0, 62, 0
2, 9780, Note_on_c, 0, 84, 76
2, 9780, Note_on_c, 0, 60, 85
2, 9832, Note_on_c, 0, 60, 0
2, 9838, Note_on_c, 0, 84, 0
2, 9840, Note_on_c, 0, 74, 76
2, 9840, Note_on_c, 0, 65, 89
2, 9864, Note_on_c, 0, 65, 0
2, 9895, Note_on_c, 0, 74, 0
2, 9900, Note_on_c, 0, 84, 89
2, 9900, Note_on_c, 0, 65, 98
2, 9957, Note_on_c, 0, 65, 0
2, 9958, Note_on_c, 0, 84, 0
2, 9960, Note_on_c, 0, 74, 76
2, 9960, Note_on_c, 0, 63, 76
2, 10012, Note_on_c, 0, 74, 0
2, 10018, Note_on_c, 0, 63, 0
2, 10020, Note_on_c, 0, 83, 80
2, 10020, Note_on_c, 0, 62, 89
2, 10079, Note_on_c, 0, 83, 0
2, 10080, Note_on_c, 0, 84, 80
2, 10080, Note_on_c, 0, 63, 76
2, 10083, Note_on_c, 0, 62, 0
2, 10138, Note_on_c, 0, 63, 0
2, 10140, Note_on_c, 0, 60, 76
2, 10145, Note_on_c, 0, 84, 0
2, 10200, Note_on_c, 0, 72, 85
2, 10200, Note_on_c, 0, 63, 72
2, 10206, Note_on_c, 0, 60, 0
2, 10251, Note_on_c, 0, 63, 0
2, 10260, Note_on_c, 0, 65, 89
2, 10320, Note_on_c, 0, 67, 76
2, 10326, Note_on_c, 0, 65, 0
2, 10369, Note_on_c, 0, 72, 0
2, 10380, Note_on_c, 0, 69, 89
2, 10440, Note_on_c, 0, 70, 85
2, 10441, Note_on_c, 0, 69, 0
2, 10494, Note_on_c, 0, 67, 0
2, 10500, Note_on_c, 0, 65, 89
2, 10556, Note_on_c, 0, 65, 0
2, 10560, Note_on_c, 0, 64, 89
2, 10613, Note_on_c, 0, 70, 0
2, 10620, Note_on_c, 0, 72, 89
2, 10680, Note_on_c, 0, 64, 0
2, 10680, Note_on_c, 0, 68, 80
2, 10680, Note_on_c, 0, 65, 89
2, 10682, Note_on_c, 0, 72, 0
2, 10735, Note_on_c, 0, 68, 0
2, 10740, Note_on_c, 0, 70, 76
2, 10796, Note_on_c, 0, 70, 0
2, 10800, Note_on_c, 0, 67, 93
2, 10860, Note_on_c, 0, 62, 80
2, 10864, Note_on_c, 0, 65, 0
2, 10913, Note_on_c, 0, 62, 0
2, 10920, Note_on_c, 0, 64, 76
2, 10971, Note_on_c, 0, 64, 0
2, 10980, Note_on_c, 0, 60, 76
2, 11040, Note_on_c, 0, 68, 85
2, 11047, Note_on_c, 0, 60, 0
2, 11083, Note_on_c, 0, 67, 0
2, 11100, Note_on_c, 0, 64, 89
2, 11160, Note_on_c, 0, 65, 85
2, 11162, Note_on_c, 0, 64, 0
2, 11220, Note_on_c, 0, 61, 80
2, 11221, Note_on_c, 0, 65, 0
2, 11276, Note_on_c, 0, 61, 0
2, 11280, Note_on_c, 0, 70, 85
2, 11324, Note_on_c, 0, 68, 0
2, 11340, Note_on_c, 0, 65, 76
2, 11400, Note_on_c, 0, 67, 89
2, 11402, Note_on_c, 0, 65, 0
2, 11448, Note_on_c, 0, 70, 0
2, 11456, Note_on_c, 0, 67, 0
2, 11460, Note_on_c, 0, 67, 80
2, 11460, Note_on_c, 0, 64, 76
2, 11511, Note_on_c, 0, 64, 0
2, 11519, Note_on_c, 0, 67, 0
2, 11520, Note_on_c, 0, 72, 85
2, 11520, Note_on_c, 0, 65, 80
2, 11547, Note_on_c, 0, 72, 0
2, 11640, Note_on_c, 0, 84, 89
2, 11651, Note_on_c, 0, 65, 0
2, 11700, Note_on_c, 0, 77, 89
2, 11758, Note_on_c, 0, 84, 0
2, 11759, Note_on_c, 0, 77, 0
2, 11760, Note_on_c, 0, 85, 76
2, 11760, Note_on_c, 0, 67, 76
2, 11817, Note_on_c, 0, 67, 0
2, 11820, Note_on_c, 0, 77, 80
2, 11871, Note_on_c, 0, 85, 0
2, 11880, Note_on_c, 0, 84, 72
2, 11880, Note_on_c, 0, 67, 64
2, 11887, Note_on_c, 0, 77, 0
2, 11935, Note_on_c, 0, 67, 0
2, 11940, Note_on_c, 0, 76, 80
2, 12000, Note_on_c, 0, 77, 85
2, 12001, Note_on_c, 0, 76, 0
2, 12004, Note_on_c, 0, 84, 0
2, 12067, Note_on_c, 0, 77, 0
2, 12120, Note_on_c, 0, 84, 85
2, 12180, Note_on_c, 0, 77, 89
2, 12235, Note_on_c, 0, 84, 0
2, 12240, Note_on_c, 0, 85, 85
2, 12240, Note_on_c, 0, 67, 72
2, 12241, Note_on_c, 0, 77, 0
2, 12295, Note_on_c, 0, 67, 0
2, 12300, Note_on_c, 0, 77, 80
2, 12356, Note_on_c, 0, 85, 0
2, 12360, Note_on_c, 0, 84, 89
2, 12360, Note_on_c, 0, 67, 59
2, 12370, Note_on_c, 0, 77, 0
2, 12411, Note_on_c, 0, 67, 0
2, 12420, Note_on_c, 0, 76, 89
2, 12478, Note_on_c, 0, 76, 0
2, 12480, Note_on_c, 0, 77, 89
2, 12530, Note_on_c, 0, 77, 0
2, 12531, Note_on_c, 0, 84, 0
2, 12540, Note_on_c, 0, 82, 76
2, 12600, Note_on_c, 0, 80, 80
2, 12600, Note_on_c, 0, 60, 89
2, 12601, Note_on_c, 0, 82, 0
2, 12658, Note_on_c, 0, 80, 0
2, 12660, Note_on_c, 0, 79, 80
2, 12707, Note_on_c, 0, 60, 0
2, 12719, Note_on_c, 0, 79, 0
2, 12720, Note_on_c, 0, 77, 76
2, 12720, Note_on_c, 0, 65, 89
2, 12777, Note_on_c, 0, 77, 0
2, 12780, Note_on_c, 0, 75, 80
2, 12831, Note_on_c, 0, 65, 0
2, 12839, Note_on_c, 0, 75, 0
2, 12840, Note_on_c, 0, 74, 80
2, 12840, Note_on_c, 0, 68, 85
2, 12900, Note_on_c, 0, 74, 0
2, 12900, Note_on_c, 0, 77, 76
2, 12959, Note_on_c, 0, 77, 0
2, 12960, Note_on_c, 0, 75, 76
2, 12960, Note_on_c, 0, 67, 93
2, 12965, Note_on_c, 0, 68, 0
2, 13078, Note_on_c, 0, 67, 0
2, 13080, Note_on_c, 0, 75, 0
2, 13080, Note_on_c, 0, 65, 80
2, 13139, Note_on_c, 0, 65, 0
2, 13140, Note_on_c, 0, 63, 76
2, 13192, Note_on_c, 0, 63, 0
2, 13200, Note_on_c, 0, 65, 76
2, 13362, Note_on_c, 0, 65, 0
2, 13380, Note_on_c, 0, 63, 60
2, 13407, Note_on_c, 0, 63, 0
2, 13410, Note_on_c, 0, 62, 85
2, 13437, Note_on_c, 0, 62, 0
2, 13440, Note_on_c, 0, 67, 85
2, 13496, Note_on_c, 0, 67, 0
2, 13560, Note_on_c, 0, 79, 89
2, 13680, Note_on_c, 0, 80, 80
2, 13684, Note_on_c, 0, 79, 0
2, 13800, Note_on_c, 0, 79, 85
2, 13804, Note_on_c, 0, 80, 0
2, 13914, Note_on_c, 0, 79, 0
2, 14040, Note_on_c, 0, 79, 80
2, 14160, Note_on_c, 0, 80, 80
2, 14161, Note_on_c, 0, 79, 0
2, 14276, Note_on_c, 0, 80, 0
2, 14280, Note_on_c, 0, 79, 80
2, 14437, Note_on_c, 0, 79, 0
2, 14460, Note_on_c, 0, 79, 80
2, 14518, Note_on_c, 0, 79, 0
2, 14520, Note_on_c, 0, 77, 89
2, 14580, Note_on_c, 0, 77, 0
2, 14580, Note_on_c, 0, 75, 64
2, 14638, Note_on_c, 0, 75, 0
2, 14640, Note_on_c, 0, 74, 80
2, 14915, Note_on_c, 0, 74, 0
2, 14940, Note_on_c, 0, 76, 76
2, 15000, Note_on_c, 0, 77, 76
2, 15005, Note_on_c, 0, 76, 0
2, 15056, Note_on_c, 0, 77, 0
2, 15060, Note_on_c, 0, 79, 76
2, 15120, Note_on_c, 0, 72, 76
2, 15130, Note_on_c, 0, 79, 0
2, 15355, Note_on_c, 0, 72, 0
2, 15480, Note_on_c, 0, 77, 76
2, 15644, Note_on_c, 0, 77, 0
2, 15660, Note_on_c, 0, 77, 85
2, 15710, Note_on_c, 0, 77, 0
2, 15720, Note_on_c, 0, 75, 80
2, 15778, Note_on_c, 0, 75, 0
2, 15780, Note_on_c, 0, 74, 85
2, 15833, Note_on_c, 0, 74, 0
2, 15840, Note_on_c, 0, 75, 68
2, 16077, Note_on_c, 0, 77, 76
2, 16120, Note_on_c, 0, 75, 0
2, 16140, Note_on_c, 0, 77, 89
2, 16170, Note_on_c, 0, 75, 60
2, 16181, Note_on_c, 0, 77, 0
2, 16198, Note_on_c, 0, 75, 0
2, 16200, Note_on_c, 0, 73, 64
2, 16257, Note_on_c, 0, 73, 0
2, 16260, Note_on_c, 0, 72, 72
2, 16309, Note_on_c, 0, 77, 0
2, 16320, Note_on_c, 0, 73, 85
2, 16321, Note_on_c, 0, 70, 72
2, 16322, Note_on_c, 0, 72, 0
2, 16435, Note_on_c, 0, 70, 0
2, 16449, Note_on_c, 0, 73, 0
2, 16558, Note_on_c, 0, 73, 64
2, 16574, Note_on_c, 0, 72, 68
2, 16576, Note_on_c, 0, 73, 0
2, 16590, Note_on_c, 0, 73, 72
2, 16591, Note_on_c, 0, 72, 0
2, 16605, Note_on_c, 0, 73, 0
2, 16605, Note_on_c, 0, 72, 76
2, 16618, Note_on_c, 0, 72, 0
2, 16619, Note_on_c, 0, 73, 62
2, 16631, Note_on_c, 0, 73, 0
2, 16631, Note_on_c, 0, 72, 57
2, 16648, Note_on_c, 0, 72, 0
2, 16648, Note_on_c, 0, 73, 62
2, 16662, Note_on_c, 0, 73, 0
2, 16663, Note_on_c, 0, 72, 60
2, 16677, Note_on_c, 0, 72, 0
2, 16678, Note_on_c, 0, 73, 68
2, 16692, Note_on_c, 0, 73, 0
2, 16692, Note_on_c, 0, 72, 64
2, 16706, Note_on_c, 0, 72, 0
2, 16707, Note_on_c, 0, 73, 62
2, 16719, Note_on_c, 0, 73, 0
2, 16719, Note_on_c, 0, 72, 64
2, 16735, Note_on_c, 0, 72, 0
2, 16736, Note_on_c, 0, 70, 68
2, 16765, Note_on_c, 0, 70, 0
2, 16766, Note_on_c, 0, 72, 85
2, 16796, Note_on_c, 0, 72, 0
2, 16796, Note_on_c, 0, 73, 85
2, 16821, Note_on_c, 0, 73, 0
2, 16858, Note_on_c, 0, 73, 64
2, 16915, Note_on_c, 0, 73, 0
2, 16918, Note_on_c, 0, 72, 68
2, 16974, Note_on_c, 0, 72, 0
2, 16975, Note_on_c, 0, 70, 60
2, 17036, Note_on_c, 0, 70, 0
2, 17037, Note_on_c, 0, 75, 85
2, 17054, Note_on_c, 0, 75, 0
2, 17097, Note_on_c, 0, 75, 76
2, 17155, Note_on_c, 0, 75, 0
2, 17156, Note_on_c, 0, 73, 76
2, 17211, Note_on_c, 0, 73, 0
2, 17214, Note_on_c, 0, 72, 76
2, 17276, Note_on_c, 0, 72, 0
2, 17276, Note_on_c, 0, 73, 89
2, 17294, Note_on_c, 0, 73, 0
2, 17337, Note_on_c, 0, 73, 72
2, 17396, Note_on_c, 0, 73, 0
2, 17399, Note_on_c, 0, 72, 72
2, 17460, Note_on_c, 0, 72, 0
2, 17461, Note_on_c, 0, 70, 72
2, 17516, Note_on_c, 0, 70, 0
2, 17517, Note_on_c, 0, 75, 76
2, 17530, Note_on_c, 0, 75, 0
2, 17577, Note_on_c, 0, 75, 76
2, 17635, Note_on_c, 0, 75, 0
2, 17636, Note_on_c, 0, 73, 72
2, 17691, Note_on_c, 0, 73, 0
2, 17696, Note_on_c, 0, 72, 72
2, 17756, Note_on_c, 0, 72, 0
2, 17756, Note_on_c, 0, 73, 85
2, 17767, Note_on_c, 0, 73, 0
2, 17816, Note_on_c, 0, 73, 68
2, 17875, Note_on_c, 0, 73, 0
2, 17878, Note_on_c, 0, 72, 72
2, 17937, Note_on_c, 0, 72, 0
2, 17938, Note_on_c, 0, 70, 72
2, 17997, Note_on_c, 0, 70, 0
2, 17997, Note_on_c, 0, 73, 72
2, 18000, Note_on_c, 0, 75, 62
2, 18010, Note_on_c, 0, 73, 0
2, 18057, Note_on_c, 0, 73, 72
2, 18116, Note_on_c, 0, 73, 0
2, 18118, Note_on_c, 0, 72, 76
2, 18173, Note_on_c, 0, 72, 0
2, 18174, Note_on_c, 0, 70, 68
2, 18231, Note_on_c, 0, 75, 0
2, 18236, Note_on_c, 0, 70, 0
2, 18236, Note_on_c, 0, 75, 72
2, 18240, Note_on_c, 0, 68, 72
2, 18292, Note_on_c, 0, 75, 0
2, 18295, Note_on_c, 0, 72, 76
2, 18354, Note_on_c, 0, 72, 0
2, 18356, Note_on_c, 0, 80, 76
2, 18475, Note_on_c, 0, 68, 0
2, 18480, Note_on_c, 0, 72, 72
2, 18494, Note_on_c, 0, 72, 0
2, 18495, Note_on_c, 0, 70, 60
2, 18510, Note_on_c, 0, 70, 0
2, 18510, Note_on_c, 0, 72, 76
2, 18524, Note_on_c, 0, 72, 0
2, 18525, Note_on_c, 0, 70, 62
2, 18539, Note_on_c, 0, 70, 0
2, 18540, Note_on_c, 0, 72, 68
2, 18554, Note_on_c, 0, 72, 0
2, 18555, Note_on_c, 0, 70, 62
2, 18568, Note_on_c, 0, 70, 0
2, 18570, Note_on_c, 0, 72, 64
2, 18582, Note_on_c, 0, 80, 0
2, 18583, Note_on_c, 0, 72, 0
2, 18585, Note_on_c, 0, 70, 62
2, 18595, Note_on_c, 0, 79, 64
2, 18597, Note_on_c, 0, 70, 0
2, 18600, Note_on_c, 0, 72, 72
2, 18612, Note_on_c, 0, 72, 0
2, 18615, Note_on_c, 0, 70, 59
2, 18626, Note_on_c, 0, 70, 0
2, 18630, Note_on_c, 0, 72, 64
2, 18645, Note_on_c, 0, 70, 57
2, 18646, Note_on_c, 0, 72, 0
2, 18660, Note_on_c, 0, 70, 0
2, 18660, Note_on_c, 0, 68, 64
2, 18688, Note_on_c, 0, 68, 0
2, 18690, Note_on_c, 0, 70, 76
2, 18715, Note_on_c, 0, 79, 0
2, 18719, Note_on_c, 0, 70, 0
2, 18720, Note_on_c, 0, 80, 93
2, 18720, Note_on_c, 0, 72, 85
2, 18735, Note_on_c, 0, 72, 0
2, 18739, Note_on_c, 0, 80, 0
2, 18780, Note_on_c, 0, 72, 80
2, 18781, Note_on_c, 0, 75, 85
2, 18797, Note_on_c, 0, 75, 0
2, 18840, Note_on_c, 0, 72, 0
2, 18840, Note_on_c, 0, 70, 72
2, 18842, Note_on_c, 0, 84, 89
2, 18898, Note_on_c, 0, 70, 0
2, 18900, Note_on_c, 0, 68, 64
2, 18958, Note_on_c, 0, 68, 0
2, 18960, Note_on_c, 0, 73, 80
2, 18973, Note_on_c, 0, 73, 0
2, 19013, Note_on_c, 0, 84, 0
2, 19018, Note_on_c, 0, 82, 80
2, 19020, Note_on_c, 0, 73, 76
2, 19077, Note_on_c, 0, 73, 0
2, 19078, Note_on_c, 0, 82, 0
2, 19078, Note_on_c, 0, 80, 72
2, 19080, Note_on_c, 0, 72, 64
2, 19135, Note_on_c, 0, 80, 0
2, 19137, Note_on_c, 0, 79, 72
2, 19138, Note_on_c, 0, 72, 0
2, 19140, Note_on_c, 0, 70, 68
2, 19193, Note_on_c, 0, 79, 0
2, 19196, Note_on_c, 0, 80, 68
2, 19199, Note_on_c, 0, 70, 0
2, 19200, Note_on_c, 0, 75, 80
2, 19215, Note_on_c, 0, 75, 0
2, 19257, Note_on_c, 0, 80, 0
2, 19260, Note_on_c, 0, 75, 64
2, 19320, Note_on_c, 0, 75, 0
2, 19320, Note_on_c, 0, 75, 76
2, 19320, Note_on_c, 0, 73, 76
2, 19377, Note_on_c, 0, 73, 0
2, 19380, Note_on_c, 0, 72, 72
2, 19438, Note_on_c, 0, 72, 0
2, 19440, Note_on_c, 0, 77, 89
2, 19454, Note_on_c, 0, 77, 0
2, 19500, Note_on_c, 0, 65, 89
2, 19550, Note_on_c, 0, 75, 0
2, 19557, Note_on_c, 0, 65, 0
2, 19560, Note_on_c, 0, 73, 68
2, 19560, Note_on_c, 0, 67, 64
2, 19620, Note_on_c, 0, 68, 64
2, 19621, Note_on_c, 0, 67, 0
2, 19680, Note_on_c, 0, 67, 68
2, 19681, Note_on_c, 0, 68, 0
2, 19733, Note_on_c, 0, 73, 0
2, 19740, Note_on_c, 0, 67, 0
2, 19740, Note_on_c, 0, 72, 72
2, 19740, Note_on_c, 0, 68, 76
2, 19798, Note_on_c, 0, 72, 0
2, 19798, Note_on_c, 0, 70, 64
2, 19856, Note_on_c, 0, 75, 60
2, 19858, Note_on_c, 0, 68, 0
2, 19859, Note_on_c, 0, 70, 0
2, 19860, Note_on_c, 0, 66, 68
2, 19914, Note_on_c, 0, 75, 0
2, 19916, Note_on_c, 0, 72, 72
2, 19978, Note_on_c, 0, 66, 0
2, 19980, Note_on_c, 0, 72, 0
2, 19980, Note_on_c, 0, 65, 76
2, 19981, Note_on_c, 0, 73, 72
2, 20040, Note_on_c, 0, 65, 0
2, 20040, Note_on_c, 0, 66, 72
2, 20092, Note_on_c, 0, 73, 0
2, 20097, Note_on_c, 0, 72, 72
2, 20098, Note_on_c, 0, 66, 0
2, 20100, Note_on_c, 0, 68, 76
2, 20154, Note_on_c, 0, 68, 0
2, 20157, Note_on_c, 0, 72, 0
2, 20159, Note_on_c, 0, 73, 68
2, 20160, Note_on_c, 0, 65, 80
2, 20175, Note_on_c, 0, 65, 0
2, 20220, Note_on_c, 0, 65, 72
2, 20276, Note_on_c, 0, 73, 0
2, 20277, Note_on_c, 0, 65, 0
2, 20280, Note_on_c, 0, 63, 64
2, 20337, Note_on_c, 0, 63, 0
2, 20340, Note_on_c, 0, 61, 72
2, 20395, Note_on_c, 0, 61, 0
2, 20400, Note_on_c, 0, 60, 89
2, 20414, Note_on_c, 0, 60, 0
2, 20460, Note_on_c, 0, 66, 76
2, 20518, Note_on_c, 0, 80, 80
2, 20520, Note_on_c, 0, 65, 80
2, 20525, Note_on_c, 0, 66, 0
2, 20579, Note_on_c, 0, 65, 0
2, 20580, Note_on_c, 0, 63, 68
2, 20632, Note_on_c, 0, 80, 0
2, 20639, Note_on_c, 0, 74, 80
2, 20640, Note_on_c, 0, 63, 0
2, 20640, Note_on_c, 0, 71, 80
2, 20753, Note_on_c, 0, 74, 0
2, 20759, Note_on_c, 0, 77, 80
2, 20771, Note_on_c, 0, 75, 72
2, 20773, Note_on_c, 0, 77, 0
2, 20789, Note_on_c, 0, 77, 64
2, 20790, Note_on_c, 0, 75, 0
2, 20804, Note_on_c, 0, 75, 72
2, 20805, Note_on_c, 0, 77, 0
2, 20820, Note_on_c, 0, 75, 0
2, 20820, Note_on_c, 0, 77, 72
2, 20834, Note_on_c, 0, 75, 64
2, 20837, Note_on_c, 0, 77, 0
2, 20847, Note_on_c, 0, 75, 0
2, 20847, Note_on_c, 0, 74, 57
2, 20861, Note_on_c, 0, 75, 37
2, 20862, Note_on_c, 0, 74, 0
2, 20877, Note_on_c, 0, 75, 0
2, 20877, Note_on_c, 0, 77, 76
2, 20929, Note_on_c, 0, 71, 0
2, 20940, Note_on_c, 0, 73, 72
2, 20969, Note_on_c, 0, 73, 0
2, 20970, Note_on_c, 0, 71, 76
2, 21000, Note_on_c, 0, 70, 68
2, 21001, Note_on_c, 0, 71, 0
2, 21001, Note_on_c, 0, 77, 0
2, 21058, Note_on_c, 0, 70, 0
2, 21060, Note_on_c, 0, 68, 80
2, 21118, Note_on_c, 0, 68, 0
2, 21120, Note_on_c, 0, 66, 76
2, 21138, Note_on_c, 0, 66, 0
2, 21180, Note_on_c, 0, 66, 76
2, 21237, Note_on_c, 0, 66, 0
2, 21240, Note_on_c, 0, 65, 80
2, 21298, Note_on_c, 0, 65, 0
2, 21300, Note_on_c, 0, 63, 76
2, 21357, Note_on_c, 0, 63, 0
2, 21360, Note_on_c, 0, 62, 89
2, 21378, Note_on_c, 0, 62, 0
2, 21420, Note_on_c, 0, 68, 89
2, 21479, Note_on_c, 0, 82, 89
2, 21480, Note_on_c, 0, 67, 80
2, 21482, Note_on_c, 0, 68, 0
2, 21539, Note_on_c, 0, 67, 0
2, 21540, Note_on_c, 0, 65, 76
2, 21588, Note_on_c, 0, 82, 0
2, 21597, Note_on_c, 0, 65, 0
2, 21600, Note_on_c, 0, 76, 80
2, 21600, Note_on_c, 0, 73, 80
2, 21713, Note_on_c, 0, 76, 0
2, 21720, Note_on_c, 0, 79, 76
2, 21735, Note_on_c, 0, 79, 0
2, 21735, Note_on_c, 0, 77, 72
2, 21743, Note_on_c, 0, 79, 76
2, 21754, Note_on_c, 0, 77, 0
2, 21760, Note_on_c, 0, 79, 0
2, 21765, Note_on_c, 0, 77, 72
2, 21776, Note_on_c, 0, 79, 80
2, 21783, Note_on_c, 0, 77, 0
2, 21789, Note_on_c, 0, 77, 64
2, 21792, Note_on_c, 0, 79, 0
2, 21806, Note_on_c, 0, 77, 0
2, 21806, Note_on_c, 0, 76, 62
2, 21823, Note_on_c, 0, 76, 0
2, 21823, Note_on_c, 0, 77, 76
2, 21840, Note_on_c, 0, 77, 0
2, 21840, Note_on_c, 0, 79, 80
2, 21883, Note_on_c, 0, 73, 0
2, 21900, Note_on_c, 0, 75, 76
2, 21930, Note_on_c, 0, 73, 72
2, 21932, Note_on_c, 0, 75, 0
2, 21957, Note_on_c, 0, 79, 0
2, 21960, Note_on_c, 0, 72, 64
2, 21963, Note_on_c, 0, 73, 0
2, 22017, Note_on_c, 0, 72, 0
2, 22020, Note_on_c, 0, 70, 80
2, 22080, Note_on_c, 0, 68, 68
2, 22082, Note_on_c, 0, 70, 0
2, 22100, Note_on_c, 0, 68, 0
2, 22140, Note_on_c, 0, 68, 72
2, 22200, Note_on_c, 0, 68, 0
2, 22200, Note_on_c, 0, 67, 76
2, 22260, Note_on_c, 0, 65, 72
2, 22263, Note_on_c, 0, 67, 0
2, 22314, Note_on_c, 0, 65, 0
2, 22317, Note_on_c, 0, 79, 85
2, 22320, Note_on_c, 0, 64, 80
2, 22335, Note_on_c, 0, 64, 0
2, 22380, Note_on_c, 0, 70, 76
2, 22440, Note_on_c, 0, 68, 72
2, 22443, Note_on_c, 0, 70, 0
2, 22491, Note_on_c, 0, 68, 0
2, 22500, Note_on_c, 0, 67, 68
2, 22548, Note_on_c, 0, 79, 0
2, 22558, Note_on_c, 0, 84, 76
2, 22560, Note_on_c, 0, 65, 80
2, 22563, Note_on_c, 0, 67, 0
2, 22576, Note_on_c, 0, 65, 0
2, 22620, Note_on_c, 0, 65, 80
2, 22680, Note_on_c, 0, 67, 76
2, 22681, Note_on_c, 0, 65, 0
2, 22737, Note_on_c, 0, 67, 0
2, 22740, Note_on_c, 0, 68, 64
2, 22782, Note_on_c, 0, 84, 0
2, 22796, Note_on_c, 0, 68, 0
2, 22800, Note_on_c, 0, 67, 80
2, 22801, Note_on_c, 0, 84, 62
2, 22818, Note_on_c, 0, 67, 0
2, 22818, Note_on_c, 0, 82, 62
2, 22819, Note_on_c, 0, 84, 0
2, 22831, Note_on_c, 0, 82, 0
2, 22831, Note_on_c, 0, 84, 64
2, 22846, Note_on_c, 0, 82, 60
2, 22848, Note_on_c, 0, 84, 0
2, 22858, Note_on_c, 0, 82, 0
2, 22860, Note_on_c, 0, 67, 76
2, 22861, Note_on_c, 0, 84, 62
2, 22876, Note_on_c, 0, 82, 57
2, 22877, Note_on_c, 0, 84, 0
2, 22889, Note_on_c, 0, 82, 0
2, 22891, Note_on_c, 0, 84, 64
2, 22904, Note_on_c, 0, 82, 62
2, 22906, Note_on_c, 0, 84, 0
2, 22917, Note_on_c, 0, 82, 0
2, 22918, Note_on_c, 0, 67, 0
2, 22920, Note_on_c, 0, 84, 62
2, 22920, Note_on_c, 0, 68, 76
2, 22934, Note_on_c, 0, 82, 64
2, 22935, Note_on_c, 0, 84, 0
2, 22945, Note_on_c, 0, 82, 0
2, 22948, Note_on_c, 0, 84, 60
2, 22962, Note_on_c, 0, 82, 72
2, 22963, Note_on_c, 0, 84, 0
2, 22975, Note_on_c, 0, 82, 0
2, 22977, Note_on_c, 0, 84, 76
2, 22978, Note_on_c, 0, 68, 0
2, 22980, Note_on_c, 0, 70, 60
2, 23008, Note_on_c, 0, 84, 0
2, 23008, Note_on_c, 0, 82, 76
2, 23037, Note_on_c, 0, 70, 0
2, 23039, Note_on_c, 0, 82, 0
2, 23040, Note_on_c, 0, 80, 93
2, 23040, Note_on_c, 0, 68, 72
2, 23040, Note_on_c, 0, 72, 72
2, 23040, Note_on_c, 0, 65, 80
2, 23058, Note_on_c, 0, 80, 0
2, 23097, Note_on_c, 0, 80, 76
2, 23156, Note_on_c, 0, 80, 0
2, 23156, Note_on_c, 0, 65, 0
2, 23157, Note_on_c, 0, 72, 0
2, 23157, Note_on_c, 0, 68, 0
2, 23157, Note_on_c, 0, 82, 80
2, 23160, Note_on_c, 0, 77, 64
2, 23214, Note_on_c, 0, 82, 0
2, 23217, Note_on_c, 0, 84, 80
2, 23277, Note_on_c, 0, 84, 0
2, 23277, Note_on_c, 0, 79, 89
2, 23292, Note_on_c, 0, 79, 0
2, 23336, Note_on_c, 0, 79, 80
2, 23391, Note_on_c, 0, 77, 0
2, 23397, Note_on_c, 0, 81, 76
2, 23398, Note_on_c, 0, 79, 0
2, 23400, Note_on_c, 0, 75, 68
2, 23456, Note_on_c, 0, 81, 0
2, 23457, Note_on_c, 0, 82, 80
2, 23515, Note_on_c, 0, 82, 0
2, 23516, Note_on_c, 0, 81, 76
2, 23570, Note_on_c, 0, 75, 0
2, 23580, Note_on_c, 0, 77, 80
2, 23638, Note_on_c, 0, 81, 0
2, 23640, Note_on_c, 0, 77, 0
2, 23640, Note_on_c, 0, 74, 80
2, 23642, Note_on_c, 0, 82, 80
2, 23700, Note_on_c, 0, 75, 59
2, 23707, Note_on_c, 0, 74, 0
2, 23760, Note_on_c, 0, 75, 0
2, 23760, Note_on_c, 0, 74, 80
2, 23775, Note_on_c, 0, 72, 57
2, 23777, Note_on_c, 0, 74, 0
2, 23790, Note_on_c, 0, 74, 76
2, 23791, Note_on_c, 0, 72, 0
2, 23804, Note_on_c, 0, 74, 0
2, 23805, Note_on_c, 0, 72, 64
2, 23809, Note_on_c, 0, 82, 0
2, 23816, Note_on_c, 0, 81, 64
2, 23820, Note_on_c, 0, 74, 76
2, 23821, Note_on_c, 0, 72, 0
2, 23835, Note_on_c, 0, 74, 0
2, 23835, Note_on_c, 0, 72, 62
2, 23848, Note_on_c, 0, 72, 0
2, 23850, Note_on_c, 0, 74, 72
2, 23862, Note_on_c, 0, 74, 0
2, 23865, Note_on_c, 0, 72, 62
2, 23878, Note_on_c, 0, 81, 0
2, 23878, Note_on_c, 0, 82, 72
2, 23879, Note_on_c, 0, 72, 0
2, 23880, Note_on_c, 0, 74, 76
2, 23893, Note_on_c, 0, 74, 0
2, 23895, Note_on_c, 0, 72, 72
2, 23909, Note_on_c, 0, 72, 0
2, 23910, Note_on_c, 0, 74, 85
2, 23924, Note_on_c, 0, 74, 0
2, 23925, Note_on_c, 0, 72, 76
2, 23933, Note_on_c, 0, 82, 0
2, 23935, Note_on_c, 0, 84, 80
2, 23940, Note_on_c, 0, 70, 89
2, 23942, Note_on_c, 0, 72, 0
2, 23969, Note_on_c, 0, 70, 0
2, 23970, Note_on_c, 0, 69, 85
2, 24000, Note_on_c, 0, 70, 80
2, 24001, Note_on_c, 0, 69, 0
2, 24055, Note_on_c, 0, 84, 0
2, 24058, Note_on_c, 0, 77, 64
2, 24117, Note_on_c, 0, 77, 0
2, 24118, Note_on_c, 0, 82, 72
2, 24119, Note_on_c, 0, 70, 0
2, 24237, Note_on_c, 0, 82, 0
2, 24240, Note_on_c, 0, 65, 85
2, 24470, Note_on_c, 0, 65, 0
2, 24480, Note_on_c, 0, 70, 68
2, 24701, Note_on_c, 0, 70, 0
2, 24718, Note_on_c, 0, 77, 76
2, 24720, Note_on_c, 0, 70, 72
2, 24735, Note_on_c, 0, 68, 62
2, 24737, Note_on_c, 0, 70, 0
2, 24749, Note_on_c, 0, 68, 0
2, 24750, Note_on_c, 0, 70, 57
2, 24764, Note_on_c, 0, 70, 0
2, 24765, Note_on_c, 0, 68, 59
2, 24779, Note_on_c, 0, 68, 0
2, 24780, Note_on_c, 0, 70, 57
2, 24794, Note_on_c, 0, 70, 0
2, 24795, Note_on_c, 0, 68, 60
2, 24809, Note_on_c, 0, 68, 0
2, 24810, Note_on_c, 0, 70, 56
2, 24825, Note_on_c, 0, 70, 0
2, 24825, Note_on_c, 0, 68, 60
2, 24839, Note_on_c, 0, 68, 0
2, 24840, Note_on_c, 0, 70, 56
2, 24855, Note_on_c, 0, 70, 0
2, 24855, Note_on_c, 0, 68, 52
2, 24870, Note_on_c, 0, 68, 0
2, 24870, Note_on_c, 0, 70, 56
2, 24884, Note_on_c, 0, 70, 0
2, 24885, Note_on_c, 0, 68, 60
2, 24900, Note_on_c, 0, 68, 0
2, 24900, Note_on_c, 0, 70, 72
2, 24929, Note_on_c, 0, 70, 0
2, 24930, Note_on_c, 0, 68, 76
2, 24947, Note_on_c, 0, 77, 0
2, 24956, Note_on_c, 0, 82, 76
2, 24959, Note_on_c, 0, 68, 0
2, 24960, Note_on_c, 0, 67, 80
2, 24979, Note_on_c, 0, 67, 0
2, 25020, Note_on_c, 0, 67, 89
2, 25078, Note_on_c, 0, 67, 0
2, 25080, Note_on_c, 0, 68, 76
2, 25137, Note_on_c, 0, 68, 0
2, 25140, Note_on_c, 0, 70, 76
2, 25172, Note_on_c, 0, 82, 0
2, 25197, Note_on_c, 0, 70, 0
2, 25200, Note_on_c, 0, 65, 80
2, 25201, Note_on_c, 0, 82, 89
2, 25216, Note_on_c, 0, 80, 72
2, 25217, Note_on_c, 0, 82, 0
2, 25217, Note_on_c, 0, 65, 0
2, 25228, Note_on_c, 0, 80, 0
2, 25230, Note_on_c, 0, 82, 68
2, 25243, Note_on_c, 0, 82, 0
2, 25243, Note_on_c, 0, 80, 62
2, 25257, Note_on_c, 0, 80, 0
2, 25259, Note_on_c, 0, 82, 76
2, 25260, Note_on_c, 0, 65, 80
2, 25274, Note_on_c, 0, 82, 0
2, 25274, Note_on_c, 0, 80, 64
2, 25287, Note_on_c, 0, 80, 0
2, 25288, Note_on_c, 0, 82, 64
2, 25302, Note_on_c, 0, 82, 0
2, 25302, Note_on_c, 0, 80, 62
2, 25315, Note_on_c, 0, 80, 0
2, 25317, Note_on_c, 0, 82, 62
2, 25318, Note_on_c, 0, 65, 0
2, 25320, Note_on_c, 0, 67, 89
2, 25329, Note_on_c, 0, 82, 0
2, 25329, Note_on_c, 0, 80, 64
2, 25343, Note_on_c, 0, 80, 0
2, 25344, Note_on_c, 0, 82, 62
2, 25358, Note_on_c, 0, 80, 62
2, 25359, Note_on_c, 0, 82, 0
2, 25375, Note_on_c, 0, 79, 76
2, 25376, Note_on_c, 0, 80, 0
2, 25376, Note_on_c, 0, 67, 0
2, 25380, Note_on_c, 0, 68, 76
2, 25403, Note_on_c, 0, 79, 0
2, 25405, Note_on_c, 0, 80, 68
2, 25437, Note_on_c, 0, 80, 0
2, 25437, Note_on_c, 0, 79, 89
2, 25440, Note_on_c, 0, 68, 0
2, 25440, Note_on_c, 0, 70, 76
2, 25440, Note_on_c, 0, 63, 68
2, 25450, Note_on_c, 0, 79, 0
2, 25498, Note_on_c, 0, 79, 80
2, 25552, Note_on_c, 0, 63, 0
2, 25552, Note_on_c, 0, 70, 0
2, 25557, Note_on_c, 0, 79, 0
2, 25558, Note_on_c, 0, 80, 76
2, 25615, Note_on_c, 0, 80, 0
2, 25616, Note_on_c, 0, 82, 76
2, 25620, Note_on_c, 0, 67, 85
2, 25673, Note_on_c, 0, 82, 0
2, 25675, Note_on_c, 0, 77, 89
2, 25678, Note_on_c, 0, 67, 0
2, 25680, Note_on_c, 0, 75, 72
2, 25687, Note_on_c, 0, 77, 0
2, 25735, Note_on_c, 0, 77, 76
2, 25737, Note_on_c, 0, 75, 0
2, 25740, Note_on_c, 0, 65, 76
2, 25796, Note_on_c, 0, 77, 0
2, 25796, Note_on_c, 0, 79, 76
2, 25799, Note_on_c, 0, 65, 0
2, 25800, Note_on_c, 0, 74, 76
2, 25855, Note_on_c, 0, 79, 0
2, 25857, Note_on_c, 0, 74, 0
2, 25858, Note_on_c, 0, 80, 76
2, 25860, Note_on_c, 0, 65, 72
2, 25918, Note_on_c, 0, 80, 0
2, 25919, Note_on_c, 0, 75, 72
2, 25920, Note_on_c, 0, 74, 68
2, 25921, Note_on_c, 0, 65, 0
2, 25931, Note_on_c, 0, 75, 0
2, 25973, Note_on_c, 0, 74, 0
2, 25976, Note_on_c, 0, 75, 72
2, 25980, Note_on_c, 0, 63, 60
2, 26038, Note_on_c, 0, 77, 76
2, 26040, Note_on_c, 0, 75, 0
2, 26040, Note_on_c, 0, 72, 80
2, 26042, Note_on_c, 0, 63, 0
2, 26095, Note_on_c, 0, 72, 0
2, 26098, Note_on_c, 0, 79, 76
2, 26099, Note_on_c, 0, 77, 0
2, 26100, Note_on_c, 0, 63, 62
2, 26156, Note_on_c, 0, 79, 0
2, 26159, Note_on_c, 0, 74, 89
2, 26160, Note_on_c, 0, 72, 76
2, 26162, Note_on_c, 0, 63, 0
2, 26171, Note_on_c, 0, 74, 0
2, 26216, Note_on_c, 0, 72, 0
2, 26219, Note_on_c, 0, 74, 85
2, 26220, Note_on_c, 0, 62, 62
2, 26278, Note_on_c, 0, 62, 0
2, 26278, Note_on_c, 0, 75, 72
2, 26279, Note_on_c, 0, 74, 0
2, 26280, Note_on_c, 0, 71, 64
2, 26337, Note_on_c, 0, 77, 76
2, 26338, Note_on_c, 0, 71, 0
2, 26338, Note_on_c, 0, 75, 0
2, 26340, Note_on_c, 0, 62, 72
2, 26396, Note_on_c, 0, 77, 0
2, 26398, Note_on_c, 0, 75, 76
2, 26399, Note_on_c, 0, 62, 0
2, 26400, Note_on_c, 0, 72, 93
2, 26410, Note_on_c, 0, 75, 0
2, 26437, Note_on_c, 0, 72, 0
2, 26456, Note_on_c, 0, 71, 68
2, 26514, Note_on_c, 0, 72, 76
2, 26515, Note_on_c, 0, 71, 0
2, 26574, Note_on_c, 0, 74, 76
2, 26575, Note_on_c, 0, 72, 0
2, 26636, Note_on_c, 0, 74, 0
2, 26637, Note_on_c, 0, 75, 85
2, 26640, Note_on_c, 0, 72, 89
2, 26650, Note_on_c, 0, 75, 0
2, 26669, Note_on_c, 0, 72, 0
2, 26697, Note_on_c, 0, 71, 85
2, 26758, Note_on_c, 0, 71, 0
2, 26758, Note_on_c, 0, 72, 80
2, 26817, Note_on_c, 0, 72, 0
2, 26818, Note_on_c, 0, 74, 85
2, 26877, Note_on_c, 0, 74, 0
2, 26879, Note_on_c, 0, 75, 68
2, 26880, Note_on_c, 0, 70, 89
2, 26906, Note_on_c, 0, 70, 0
2, 26937, Note_on_c, 0, 75, 0
2, 26938, Note_on_c, 0, 71, 80
2, 26964, Note_on_c, 0, 71, 0
2, 26965, Note_on_c, 0, 74, 72
2, 26996, Note_on_c, 0, 72, 72
2, 26997, Note_on_c, 0, 74, 0
2, 27025, Note_on_c, 0, 75, 72
2, 27026, Note_on_c, 0, 72, 0
2, 27054, Note_on_c, 0, 75, 0
2, 27054, Note_on_c, 0, 74, 76
2, 27084, Note_on_c, 0, 74, 0
2, 27087, Note_on_c, 0, 77, 76
2, 27116, Note_on_c, 0, 77, 0
2, 27118, Note_on_c, 0, 75, 76
2, 27120, Note_on_c, 0, 69, 89
2, 27140, Note_on_c, 0, 69, 0
2, 27147, Note_on_c, 0, 75, 0
2, 27147, Note_on_c, 0, 78, 62
2, 27175, Note_on_c, 0, 78, 0
2, 27176, Note_on_c, 0, 77, 76
2, 27205, Note_on_c, 0, 77, 0
2, 27205, Note_on_c, 0, 80, 68
2, 27237, Note_on_c, 0, 78, 76
2, 27238, Note_on_c, 0, 80, 0
2, 27251, Note_on_c, 0, 78, 0
2, 27298, Note_on_c, 0, 78, 80
2, 27306, Note_on_c, 0, 78, 0
2, 27360, Note_on_c, 0, 78, 72
2, 27360, Note_on_c, 0, 69, 80
2, 27386, Note_on_c, 0, 78, 0
2, 27386, Note_on_c, 0, 80, 80
2, 27416, Note_on_c, 0, 80, 0
2, 27416, Note_on_c, 0, 69, 0
2, 27417, Note_on_c, 0, 81, 76
2, 27420, Note_on_c, 0, 69, 85
2, 27447, Note_on_c, 0, 81, 0
2, 27448, Note_on_c, 0, 83, 76
2, 27467, Note_on_c, 0, 69, 0
2, 27478, Note_on_c, 0, 83, 0
2, 27478, Note_on_c, 0, 85, 64
2, 27480, Note_on_c, 0, 69, 72
2, 27506, Note_on_c, 0, 83, 80
2, 27507, Note_on_c, 0, 85, 0
2, 27528, Note_on_c, 0, 69, 0
2, 27535, Note_on_c, 0, 83, 0
2, 27538, Note_on_c, 0, 81, 76
2, 27540, Note_on_c, 0, 69, 89
2, 27567, Note_on_c, 0, 81, 0
2, 27567, Note_on_c, 0, 80, 76
2, 27591, Note_on_c, 0, 69, 0
2, 27597, Note_on_c, 0, 78, 68
2, 27599, Note_on_c, 0, 80, 0
2, 27600, Note_on_c, 0, 69, 93
2, 27628, Note_on_c, 0, 78, 0
2, 27629, Note_on_c, 0, 76, 76
2, 27652, Note_on_c, 0, 69, 0
2, 27657, Note_on_c, 0, 76, 0
2, 27658, Note_on_c, 0, 74, 89
2, 27660, Note_on_c, 0, 69, 72
2, 27687, Note_on_c, 0, 74, 0
2, 27689, Note_on_c, 0, 73, 68
2, 27710, Note_on_c, 0, 69, 0
2, 27715, Note_on_c, 0, 73, 0
2, 27718, Note_on_c, 0, 71, 76
2, 27720, Note_on_c, 0, 69, 80
2, 27746, Note_on_c, 0, 71, 0
2, 27748, Note_on_c, 0, 69, 80
2, 27777, Note_on_c, 0, 69, 0
2, 27777, Note_on_c, 0, 69, 0
2, 27778, Note_on_c, 0, 68, 62
2, 27780, Note_on_c, 0, 61, 68
2, 27780, Note_on_c, 0, 66, 76
2, 27807, Note_on_c, 0, 66, 68
2, 27808, Note_on_c, 0, 68, 0
2, 27826, Note_on_c, 0, 61, 0
2, 27830, Note_on_c, 0, 66, 0
2, 27836, Note_on_c, 0, 66, 0
2, 27840, Note_on_c, 0, 70, 80
2, 27840, Note_on_c, 0, 61, 72
2, 27840, Note_on_c, 0, 66, 72
2, 27854, Note_on_c, 0, 68, 64
2, 27855, Note_on_c, 0, 70, 0
2, 27869, Note_on_c, 0, 68, 0
2, 27869, Note_on_c, 0, 70, 57
2, 27884, Note_on_c, 0, 70, 0
2, 27884, Note_on_c, 0, 68, 68
2, 27891, Note_on_c, 0, 61, 0
2, 27894, Note_on_c, 0, 66, 0
2, 27899, Note_on_c, 0, 68, 0
2, 27900, Note_on_c, 0, 70, 62
2, 27900, Note_on_c, 0, 61, 62
2, 27900, Note_on_c, 0, 66, 76
2, 27914, Note_on_c, 0, 70, 0
2, 27915, Note_on_c, 0, 68, 57
2, 27929, Note_on_c, 0, 68, 0
2, 27930, Note_on_c, 0, 70, 51
2, 27945, Note_on_c, 0, 61, 0
2, 27945, Note_on_c, 0, 68, 56
2, 27946, Note_on_c, 0, 70, 0
2, 27948, Note_on_c, 0, 66, 0
2, 27958, Note_on_c, 0, 68, 0
2, 27960, Note_on_c, 0, 70, 64
2, 27960, Note_on_c, 0, 66, 64
2, 27960, Note_on_c, 0, 61, 72
2, 27972, Note_on_c, 0, 70, 0
2, 27973, Note_on_c, 0, 68, 55
2, 27987, Note_on_c, 0, 68, 0
2, 27989, Note_on_c, 0, 70, 56
2, 28002, Note_on_c, 0, 70, 0
2, 28003, Note_on_c, 0, 68, 52
2, 28007, Note_on_c, 0, 61, 0
2, 28009, Note_on_c, 0, 66, 0
2, 28016, Note_on_c, 0, 68, 0
2, 28018, Note_on_c, 0, 70, 60
2, 28020, Note_on_c, 0, 66, 76
2, 28020, Note_on_c, 0, 61, 76
2, 28032, Note_on_c, 0, 70, 0
2, 28033, Note_on_c, 0, 68, 62
2, 28047, Note_on_c, 0, 68, 0
2, 28048, Note_on_c, 0, 70, 60
2, 28063, Note_on_c, 0, 68, 60
2, 28064, Note_on_c, 0, 70, 0
2, 28065, Note_on_c, 0, 61, 0
2, 28068, Note_on_c, 0, 66, 0
2, 28076, Note_on_c, 0, 68, 0
2, 28078, Note_on_c, 0, 70, 60
2, 28080, Note_on_c, 0, 61, 72
2, 28080, Note_on_c, 0, 65, 89
2, 28093, Note_on_c, 0, 70, 0
2, 28093, Note_on_c, 0, 68, 45
2, 28107, Note_on_c, 0, 68, 0
2, 28110, Note_on_c, 0, 70, 57
2, 28125, Note_on_c, 0, 70, 0
2, 28125, Note_on_c, 0, 68, 53
2, 28128, Note_on_c, 0, 61, 0
2, 28129, Note_on_c, 0, 65, 0
2, 28138, Note_on_c, 0, 68, 0
2, 28140, Note_on_c, 0, 70, 57
2, 28140, Note_on_c, 0, 65, 80
2, 28140, Note_on_c, 0, 61, 72
2, 28156, Note_on_c, 0, 70, 0
2, 28156, Note_on_c, 0, 68, 59
2, 28168, Note_on_c, 0, 68, 0
2, 28170, Note_on_c, 0, 70, 56
2, 28185, Note_on_c, 0, 70, 0
2, 28185, Note_on_c, 0, 68, 59
2, 28188, Note_on_c, 0, 61, 0
2, 28188, Note_on_c, 0, 65, 0
2, 28199, Note_on_c, 0, 68, 0
2, 28200, Note_on_c, 0, 61, 64
2, 28200, Note_on_c, 0, 65, 80
2, 28201, Note_on_c, 0, 70, 59
2, 28214, Note_on_c, 0, 68, 51
2, 28215, Note_on_c, 0, 70, 0
2, 28227, Note_on_c, 0, 68, 0
2, 28230, Note_on_c, 0, 70, 62
2, 28244, Note_on_c, 0, 70, 0
2, 28244, Note_on_c, 0, 68, 76
2, 28245, Note_on_c, 0, 61, 0
2, 28246, Note_on_c, 0, 65, 0
2, 28260, Note_on_c, 0, 68, 0
2, 28260, Note_on_c, 0, 65, 89
2, 28260, Note_on_c, 0, 61, 62
2, 28262, Note_on_c, 0, 66, 62
2, 28286, Note_on_c, 0, 66, 0
2, 28288, Note_on_c, 0, 68, 72
2, 28304, Note_on_c, 0, 61, 0
2, 28313, Note_on_c, 0, 65, 0
2, 28319, Note_on_c, 0, 68, 0
2, 28320, Note_on_c, 0, 61, 72
2, 28327, Note_on_c, 0, 66, 80
2, 28440, Note_on_c, 0, 61, 0
2, 28446, Note_on_c, 0, 66, 0
2, 28500, Note_on_c, 0, 68, 76
2, 28501, Note_on_c, 0, 71, 72
2, 28515, Note_on_c, 0, 66, 57
2, 28519, Note_on_c, 0, 69, 60
2, 28520, Note_on_c, 0, 68, 0
2, 28522, Note_on_c, 0, 71, 0
2, 28530, Note_on_c, 0, 65, 72
2, 28531, Note_on_c, 0, 66, 0
2, 28532, Note_on_c, 0, 69, 0
2, 28533, Note_on_c, 0, 68, 62
2, 28545, Note_on_c, 0, 65, 0
2, 28545, Note_on_c, 0, 66, 62
2, 28547, Note_on_c, 0, 68, 0
2, 28548, Note_on_c, 0, 69, 80
2, 28557, Note_on_c, 0, 66, 0
2, 28560, Note_on_c, 0, 69, 0
2, 28560, Note_on_c, 0, 69, 98
2, 28562, Note_on_c, 0, 73, 76
2, 28642, Note_on_c, 0, 69, 0
2, 28644, Note_on_c, 0, 73, 0
2, 28650, Note_on_c, 0, 69, 89
2, 28654, Note_on_c, 0, 73, 80
2, 28680, Note_on_c, 0, 68, 80
2, 28682, Note_on_c, 0, 69, 0
2, 28683, Note_on_c, 0, 73, 0
2, 28687, Note_on_c, 0, 71, 80
2, 28764, Note_on_c, 0, 68, 0
2, 28765, Note_on_c, 0, 71, 0
2, 28770, Note_on_c, 0, 66, 72
2, 28772, Note_on_c, 0, 69, 93
2, 28794, Note_on_c, 0, 69, 0
2, 28799, Note_on_c, 0, 66, 0
2, 28800, Note_on_c, 0, 68, 80
2, 28807, Note_on_c, 0, 74, 89
2, 28807, Note_on_c, 0, 80, 89
2, 28807, Note_on_c, 0, 71, 85
2, 28917, Note_on_c, 0, 74, 0
2, 28918, Note_on_c, 0, 80, 0
2, 28920, Note_on_c, 0, 71, 0
2, 28923, Note_on_c, 0, 68, 0
2, 28980, Note_on_c, 0, 69, 80
2, 28983, Note_on_c, 0, 73, 72
2, 28995, Note_on_c, 0, 68, 62
2, 28998, Note_on_c, 0, 71, 64
2, 28999, Note_on_c, 0, 69, 0
2, 29002, Note_on_c, 0, 73, 0
2, 29010, Note_on_c, 0, 66, 62
2, 29011, Note_on_c, 0, 68, 0
2, 29013, Note_on_c, 0, 71, 0
2, 29014, Note_on_c, 0, 69, 80
2, 29025, Note_on_c, 0, 68, 64
2, 29028, Note_on_c, 0, 66, 0
2, 29028, Note_on_c, 0, 71, 80
2, 29029, Note_on_c, 0, 69, 0
2, 29036, Note_on_c, 0, 68, 0
2, 29040, Note_on_c, 0, 71, 93
2, 29041, Note_on_c, 0, 71, 0
2, 29043, Note_on_c, 0, 74, 85
2, 29118, Note_on_c, 0, 71, 0
2, 29123, Note_on_c, 0, 74, 0
2, 29130, Note_on_c, 0, 71, 89
2, 29132, Note_on_c, 0, 74, 80
2, 29155, Note_on_c, 0, 71, 0
2, 29159, Note_on_c, 0, 74, 0
2, 29160, Note_on_c, 0, 69, 85
2, 29164, Note_on_c, 0, 73, 72
2, 29242, Note_on_c, 0, 69, 0
2, 29247, Note_on_c, 0, 73, 0
2, 29250, Note_on_c, 0, 68, 76
2, 29255, Note_on_c, 0, 71, 89
2, 29270, Note_on_c, 0, 68, 0
2, 29273, Note_on_c, 0, 71, 0
2, 29280, Note_on_c, 0, 80, 80
2, 29280, Note_on_c, 0, 74, 80
2, 29280, Note_on_c, 0, 83, 89
2, 29280, Note_on_c, 0, 71, 76
2, 29280, Note_on_c, 0, 68, 80
2, 29385, Note_on_c, 0, 80, 0
2, 29386, Note_on_c, 0, 83, 0
2, 29392, Note_on_c, 0, 74, 0
2, 29405, Note_on_c, 0, 68, 0
2, 29408, Note_on_c, 0, 71, 0
2, 29460, Note_on_c, 0, 69, 89
2, 29467, Note_on_c, 0, 73, 72
2, 29475, Note_on_c, 0, 68, 72
2, 29479, Note_on_c, 0, 69, 0
2, 29480, Note_on_c, 0, 71, 76
2, 29483, Note_on_c, 0, 73, 0
2, 29490, Note_on_c, 0, 68, 0
2, 29490, Note_on_c, 0, 66, 57
2, 29494, Note_on_c, 0, 69, 62
2, 29495, Note_on_c, 0, 71, 0
2, 29504, Note_on_c, 0, 66, 0
2, 29505, Note_on_c, 0, 68, 62
2, 29510, Note_on_c, 0, 69, 0
2, 29510, Note_on_c, 0, 71, 76
2, 29520, Note_on_c, 0, 68, 0
2, 29520, Note_on_c, 0, 71, 93
2, 29524, Note_on_c, 0, 71, 0
2, 29526, Note_on_c, 0, 74, 89
2, 29596, Note_on_c, 0, 71, 0
2, 29602, Note_on_c, 0, 74, 0
2, 29610, Note_on_c, 0, 71, 80
2, 29612, Note_on_c, 0, 74, 89
2, 29638, Note_on_c, 0, 74, 0
2, 29639, Note_on_c, 0, 71, 0
2, 29640, Note_on_c, 0, 69, 93
2, 29643, Note_on_c, 0, 73, 72
2, 29722, Note_on_c, 0, 73, 0
2, 29723, Note_on_c, 0, 69, 0
2, 29729, Note_on_c, 0, 71, 85
2, 29730, Note_on_c, 0, 68, 80
2, 29742, Note_on_c, 0, 71, 0
2, 29755, Note_on_c, 0, 68, 0
2, 29760, Note_on_c, 0, 73, 85
2, 29760, Note_on_c, 0, 70, 89
2, 29762, Note_on_c, 0, 79, 89
2, 29763, Note_on_c, 0, 82, 76
2, 29763, Note_on_c, 0, 85, 76
2, 29877, Note_on_c, 0, 82, 0
2, 29878, Note_on_c, 0, 85, 0
2, 29880, Note_on_c, 0, 70, 0
2, 29881, Note_on_c, 0, 79, 0
2, 29884, Note_on_c, 0, 73, 0
2, 29940, Note_on_c, 0, 71, 89
2, 29945, Note_on_c, 0, 75, 93
2, 29955, Note_on_c, 0, 70, 80
2, 29958, Note_on_c, 0, 71, 0
2, 29961, Note_on_c, 0, 73, 60
2, 29965, Note_on_c, 0, 75, 0
2, 29970, Note_on_c, 0, 69, 72
2, 29972, Note_on_c, 0, 70, 0
2, 29974, Note_on_c, 0, 73, 0
2, 29975, Note_on_c, 0, 72, 60
2, 29985, Note_on_c, 0, 70, 62
2, 29986, Note_on_c, 0, 69, 0
2, 29990, Note_on_c, 0, 73, 72
2, 29991, Note_on_c, 0, 72, 0
2, 30000, Note_on_c, 0, 73, 89
2, 30001, Note_on_c, 0, 73, 0
2, 30001, Note_on_c, 0, 70, 0
2, 30004, Note_on_c, 0, 76, 80
2, 30069, Note_on_c, 0, 73, 0
2, 30082, Note_on_c, 0, 76, 0
2, 30090, Note_on_c, 0, 73, 72
2, 30093, Note_on_c, 0, 76, 76
2, 30119, Note_on_c, 0, 76, 0
2, 30119, Note_on_c, 0, 73, 0
2, 30120, Note_on_c, 0, 71, 89
2, 30125, Note_on_c, 0, 75, 76
2, 30201, Note_on_c, 0, 71, 0
2, 30210, Note_on_c, 0, 75, 0
2, 30210, Note_on_c, 0, 70, 80
2, 30213, Note_on_c, 0, 73, 85
2, 30238, Note_on_c, 0, 73, 0
2, 30239, Note_on_c, 0, 70, 0
2, 30240, Note_on_c, 0, 68, 89
2, 30244, Note_on_c, 0, 75, 76
2, 30244, Note_on_c, 0, 71, 76
2, 30244, Note_on_c, 0, 80, 80
2, 30359, Note_on_c, 0, 68, 0
2, 30367, Note_on_c, 0, 75, 0
2, 30368, Note_on_c, 0, 80, 0
2, 30374, Note_on_c, 0, 71, 0
2, 30420, Note_on_c, 0, 70, 80
2, 30425, Note_on_c, 0, 73, 72
2, 30435, Note_on_c, 0, 68, 72
2, 30438, Note_on_c, 0, 70, 0
2, 30440, Note_on_c, 0, 73, 0
2, 30440, Note_on_c, 0, 71, 80
2, 30450, Note_on_c, 0, 67, 76
2, 30451, Note_on_c, 0, 68, 0
2, 30453, Note_on_c, 0, 70, 56
2, 30454, Note_on_c, 0, 71, 0
2, 30464, Note_on_c, 0, 67, 0
2, 30465, Note_on_c, 0, 68, 62
2, 30466, Note_on_c, 0, 70, 0
2, 30466, Note_on_c, 0, 71, 80
2, 30478, Note_on_c, 0, 68, 0
2, 30479, Note_on_c, 0, 71, 0
2, 30480, Note_on_c, 0, 71, 89
2, 30482, Note_on_c, 0, 75, 80
2, 30553, Note_on_c, 0, 71, 0
2, 30563, Note_on_c, 0, 75, 0
2, 30570, Note_on_c, 0, 71, 80
2, 30572, Note_on_c, 0, 75, 68
2, 30598, Note_on_c, 0, 75, 0
2, 30598, Note_on_c, 0, 71, 0
2, 30600, Note_on_c, 0, 70, 68
2, 30604, Note_on_c, 0, 73, 76
2, 30681, Note_on_c, 0, 70, 0
2, 30689, Note_on_c, 0, 73, 0
2, 30690, Note_on_c, 0, 68, 76
2, 30694, Note_on_c, 0, 71, 76
2, 30718, Note_on_c, 0, 68, 0
2, 30719, Note_on_c, 0, 71, 0
2, 30720, Note_on_c, 0, 70, 89
2, 30721, Note_on_c, 0, 82, 85
2, 30722, Note_on_c, 0, 73, 80
2, 30722, Note_on_c, 0, 76, 89
2, 30838, Note_on_c, 0, 82, 0
2, 30839, Note_on_c, 0, 76, 0
2, 30842, Note_on_c, 0, 73, 0
2, 30846, Note_on_c, 0, 70, 0
2, 30897, Note_on_c, 0, 75, 72
2, 30900, Note_on_c, 0, 72, 89
2, 30911, Note_on_c, 0, 73, 68
2, 30915, Note_on_c, 0, 75, 0
2, 30915, Note_on_c, 0, 70, 57
2, 30916, Note_on_c, 0, 72, 0
2, 30926, Note_on_c, 0, 73, 0
2, 30927, Note_on_c, 0, 72, 76
2, 30930, Note_on_c, 0, 69, 76
2, 30931, Note_on_c, 0, 70, 0
2, 30941, Note_on_c, 0, 73, 62
2, 30945, Note_on_c, 0, 69, 0
2, 30945, Note_on_c, 0, 72, 0
2, 30945, Note_on_c, 0, 70, 64
2, 30954, Note_on_c, 0, 73, 0
2, 30958, Note_on_c, 0, 76, 85
2, 30959, Note_on_c, 0, 70, 0
2, 30960, Note_on_c, 0, 73, 89
2, 31034, Note_on_c, 0, 76, 0
2, 31040, Note_on_c, 0, 73, 0
2, 31047, Note_on_c, 0, 76, 89
2, 31050, Note_on_c, 0, 73, 85
2, 31073, Note_on_c, 0, 76, 0
2, 31077, Note_on_c, 0, 73, 0
2, 31079, Note_on_c, 0, 75, 64
2, 31080, Note_on_c, 0, 71, 85
2, 31161, Note_on_c, 0, 75, 0
2, 31163, Note_on_c, 0, 71, 0
2, 31169, Note_on_c, 0, 73, 98
2, 31170, Note_on_c, 0, 70, 80
2, 31188, Note_on_c, 0, 73, 0
2, 31192, Note_on_c, 0, 70, 0
2, 31199, Note_on_c, 0, 73, 72
2, 31200, Note_on_c, 0, 82, 62
2, 31200, Note_on_c, 0, 70, 85
2, 31201, Note_on_c, 0, 76, 89
2, 31322, Note_on_c, 0, 76, 0
2, 31323, Note_on_c, 0, 70, 0
2, 31323, Note_on_c, 0, 82, 0
2, 31326, Note_on_c, 0, 73, 0
2, 31380, Note_on_c, 0, 75, 68
2, 31380, Note_on_c, 0, 71, 89
2, 31394, Note_on_c, 0, 73, 62
2, 31395, Note_on_c, 0, 70, 80
2, 31397, Note_on_c, 0, 75, 0
2, 31398, Note_on_c, 0, 71, 0
2, 31407, Note_on_c, 0, 73, 0
2, 31408, Note_on_c, 0, 72, 64
2, 31410, Note_on_c, 0, 70, 0
2, 31410, Note_on_c, 0, 69, 72
2, 31419, Note_on_c, 0, 73, 64
2, 31421, Note_on_c, 0, 72, 0
2, 31423, Note_on_c, 0, 69, 0
2, 31425, Note_on_c, 0, 70, 72
2, 31431, Note_on_c, 0, 73, 0
2, 31436, Note_on_c, 0, 76, 93
2, 31440, Note_on_c, 0, 73, 85
2, 31441, Note_on_c, 0, 70, 0
2, 31515, Note_on_c, 0, 76, 0
2, 31517, Note_on_c, 0, 73, 0
2, 31528, Note_on_c, 0, 76, 80
2, 31530, Note_on_c, 0, 73, 76
2, 31557, Note_on_c, 0, 76, 0
2, 31559, Note_on_c, 0, 73, 0
2, 31560, Note_on_c, 0, 71, 85
2, 31561, Note_on_c, 0, 75, 72
2, 31639, Note_on_c, 0, 75, 0
2, 31643, Note_on_c, 0, 71, 0
2, 31646, Note_on_c, 0, 73, 72
2, 31650, Note_on_c, 0, 70, 89
2, 31669, Note_on_c, 0, 73, 0
2, 31674, Note_on_c, 0, 70, 0
2, 31679, Note_on_c, 0, 75, 76
2, 31680, Note_on_c, 0, 81, 89
2, 31680, Note_on_c, 0, 84, 93
2, 31680, Note_on_c, 0, 69, 85
2, 31680, Note_on_c, 0, 72, 72
2, 31801, Note_on_c, 0, 81, 0
2, 31804, Note_on_c, 0, 84, 0
2, 31808, Note_on_c, 0, 75, 0
2, 31809, Note_on_c, 0, 72, 0
2, 31811, Note_on_c, 0, 69, 0
2, 31857, Note_on_c, 0, 77, 89
2, 31860, Note_on_c, 0, 74, 89
2, 31873, Note_on_c, 0, 75, 55
2, 31875, Note_on_c, 0, 72, 76
2, 31876, Note_on_c, 0, 74, 0
2, 31880, Note_on_c, 0, 77, 0
2, 31887, Note_on_c, 0, 75, 0
2, 31888, Note_on_c, 0, 74, 64
2, 31890, Note_on_c, 0, 72, 0
2, 31890, Note_on_c, 0, 71, 76
2, 31904, Note_on_c, 0, 75, 62
2, 31905, Note_on_c, 0, 74, 0
2, 31905, Note_on_c, 0, 72, 80
2, 31906, Note_on_c, 0, 71, 0
2, 31916, Note_on_c, 0, 75, 0
2, 31919, Note_on_c, 0, 78, 85
2, 31920, Note_on_c, 0, 72, 0
2, 31920, Note_on_c, 0, 75, 85
2, 31993, Note_on_c, 0, 78, 0
2, 31997, Note_on_c, 0, 75, 0
2, 32004, Note_on_c, 0, 78, 85
2, 32010, Note_on_c, 0, 75, 64
2, 32032, Note_on_c, 0, 78, 0
2, 32038, Note_on_c, 0, 77, 89
2, 32039, Note_on_c, 0, 75, 0
2, 32040, Note_on_c, 0, 74, 89
2, 32121, Note_on_c, 0, 77, 0
2, 32126, Note_on_c, 0, 74, 0
2, 32127, Note_on_c, 0, 75, 76
2, 32130, Note_on_c, 0, 72, 85
2, 32150, Note_on_c, 0, 75, 0
2, 32157, Note_on_c, 0, 73, 89
2, 32159, Note_on_c, 0, 72, 0
2, 32160, Note_on_c, 0, 70, 76
2, 32279, Note_on_c, 0, 70, 0
2, 32280, Note_on_c, 0, 73, 0
2, 32336, Note_on_c, 0, 75, 85
2, 32340, Note_on_c, 0, 72, 85
2, 32350, Note_on_c, 0, 73, 80
2, 32353, Note_on_c, 0, 75, 0
2, 32355, Note_on_c, 0, 70, 76
2, 32359, Note_on_c, 0, 72, 0
2, 32365, Note_on_c, 0, 73, 0
2, 32367, Note_on_c, 0, 72, 89
2, 32370, Note_on_c, 0, 69, 72
2, 32371, Note_on_c, 0, 70, 0
2, 32381, Note_on_c, 0, 73, 64
2, 32383, Note_on_c, 0, 72, 0
2, 32385, Note_on_c, 0, 70, 64
2, 32388, Note_on_c, 0, 69, 0
2, 32392, Note_on_c, 0, 73, 0
2, 32397, Note_on_c, 0, 82, 89
2, 32399, Note_on_c, 0, 70, 0
2, 32400, Note_on_c, 0, 79, 93
2, 32476, Note_on_c, 0, 82, 0
2, 32477, Note_on_c, 0, 79, 0
2, 32486, Note_on_c, 0, 82, 72
2, 32490, Note_on_c, 0, 79, 85
2, 32514, Note_on_c, 0, 82, 0
2, 32516, Note_on_c, 0, 79, 0
2, 32519, Note_on_c, 0, 79, 93
2, 32520, Note_on_c, 0, 75, 80
2, 32599, Note_on_c, 0, 79, 0
2, 32606, Note_on_c, 0, 82, 80
2, 32607, Note_on_c, 0, 75, 0
2, 32610, Note_on_c, 0, 79, 89
2, 32634, Note_on_c, 0, 79, 0
2, 32634, Note_on_c, 0, 82, 0
2, 32637, Note_on_c, 0, 72, 85
2, 32640, Note_on_c, 0, 68, 76
2, 32762, Note_on_c, 0, 68, 0
2, 32764, Note_on_c, 0, 72, 0
2, 32819, Note_on_c, 0, 73, 76
2, 32820, Note_on_c, 0, 70, 93
2, 32834, Note_on_c, 0, 72, 76
2, 32835, Note_on_c, 0, 68, 76
2, 32836, Note_on_c, 0, 70, 0
2, 32836, Note_on_c, 0, 73, 0
2, 32849, Note_on_c, 0, 68, 0
2, 32850, Note_on_c, 0, 72, 0
2, 32850, Note_on_c, 0, 70, 57
2, 32850, Note_on_c, 0, 67, 62
2, 32864, Note_on_c, 0, 70, 0
2, 32864, Note_on_c, 0, 72, 76
2, 32865, Note_on_c, 0, 68, 76
2, 32866, Note_on_c, 0, 67, 0
2, 32875, Note_on_c, 0, 72, 0
2, 32877, Note_on_c, 0, 68, 0
2, 32880, Note_on_c, 0, 80, 89
2, 32880, Note_on_c, 0, 77, 93
2, 32952, Note_on_c, 0, 80, 0
2, 32955, Note_on_c, 0, 77, 0
2, 32963, Note_on_c, 0, 80, 76
2, 32970, Note_on_c, 0, 77, 72
2, 32991, Note_on_c, 0, 80, 0
2, 32996, Note_on_c, 0, 77, 89
2, 32997, Note_on_c, 0, 77, 0
2, 33000, Note_on_c, 0, 73, 93
2, 33081, Note_on_c, 0, 77, 0
2, 33086, Note_on_c, 0, 73, 0
2, 33087, Note_on_c, 0, 80, 89
2, 33090, Note_on_c, 0, 77, 89
2, 33113, Note_on_c, 0, 80, 0
2, 33117, Note_on_c, 0, 70, 72
2, 33120, Note_on_c, 0, 67, 76
2, 33123, Note_on_c, 0, 77, 0
2, 33236, Note_on_c, 0, 70, 0
2, 33237, Note_on_c, 0, 67, 0
2, 33299, Note_on_c, 0, 72, 85
2, 33300, Note_on_c, 0, 68, 80
2, 33315, Note_on_c, 0, 70, 64
2, 33315, Note_on_c, 0, 67, 72
2, 33318, Note_on_c, 0, 68, 0
2, 33320, Note_on_c, 0, 72, 0
2, 33328, Note_on_c, 0, 70, 0
2, 33328, Note_on_c, 0, 69, 56
2, 33330, Note_on_c, 0, 65, 68
2, 33332, Note_on_c, 0, 67, 0
2, 33344, Note_on_c, 0, 69, 0
2, 33344, Note_on_c, 0, 70, 55
2, 33345, Note_on_c, 0, 67, 80
2, 33347, Note_on_c, 0, 65, 0
2, 33354, Note_on_c, 0, 70, 0
2, 33357, Note_on_c, 0, 67, 0
2, 33360, Note_on_c, 0, 79, 85
2, 33360, Note_on_c, 0, 76, 93
2, 33434, Note_on_c, 0, 79, 0
2, 33440, Note_on_c, 0, 76, 0
2, 33445, Note_on_c, 0, 79, 76
2, 33450, Note_on_c, 0, 76, 85
2, 33467, Note_on_c, 0, 79, 0
2, 33476, Note_on_c, 0, 76, 0
2, 33477, Note_on_c, 0, 76, 93
2, 33480, Note_on_c, 0, 72, 89
2, 33555, Note_on_c, 0, 79, 72
2, 33555, Note_on_c, 0, 76, 89
2, 33556, Note_on_c, 0, 72, 0
2, 33560, Note_on_c, 0, 76, 0
2, 33580, Note_on_c, 0, 79, 0
2, 33584, Note_on_c, 0, 76, 0
2, 33597, Note_on_c, 0, 68, 76
2, 33600, Note_on_c, 0, 65, 76
2, 33600, Note_on_c, 0, 64, 85
2, 33606, Note_on_c, 0, 64, 0
2, 33682, Note_on_c, 0, 68, 0
2, 33688, Note_on_c, 0, 65, 0
2, 33689, Note_on_c, 0, 70, 80
2, 33690, Note_on_c, 0, 67, 89
2, 33715, Note_on_c, 0, 70, 0
2, 33719, Note_on_c, 0, 72, 85
2, 33720, Note_on_c, 0, 68, 85
2, 33722, Note_on_c, 0, 67, 0
2, 33949, Note_on_c, 0, 72, 0
2, 33959, Note_on_c, 0, 71, 89
2, 34041, Note_on_c, 0, 68, 0
2, 34050, Note_on_c, 0, 67, 80
2, 34064, Note_on_c, 0, 67, 0
2, 34065, Note_on_c, 0, 65, 64
2, 34071, Note_on_c, 0, 71, 0
2, 34078, Note_on_c, 0, 72, 80
2, 34080, Note_on_c, 0, 64, 93
2, 34085, Note_on_c, 0, 65, 0
2, 34191, Note_on_c, 0, 64, 0
2, 34202, Note_on_c, 0, 72, 0
2, 34225, Note_on_c, 0, 84, 80
2, 34253, Note_on_c, 0, 84, 0
2, 34255, Note_on_c, 0, 83, 80
2, 34285, Note_on_c, 0, 83, 0
2, 34285, Note_on_c, 0, 84, 72
2, 34318, Note_on_c, 0, 84, 0
2, 34319, Note_on_c, 0, 79, 80
2, 34346, Note_on_c, 0, 80, 72
2, 34348, Note_on_c, 0, 79, 0
2, 34376, Note_on_c, 0, 80, 0
2, 34377, Note_on_c, 0, 82, 59
2, 34407, Note_on_c, 0, 80, 72
2, 34410, Note_on_c, 0, 82, 0
2, 34439, Note_on_c, 0, 76, 76
2, 34440, Note_on_c, 0, 59, 89
2, 34441, Note_on_c, 0, 80, 0
2, 34468, Note_on_c, 0, 76, 0
2, 34468, Note_on_c, 0, 77, 76
2, 34499, Note_on_c, 0, 77, 0
2, 34500, Note_on_c, 0, 79, 76
2, 34529, Note_on_c, 0, 77, 72
2, 34530, Note_on_c, 0, 79, 0
2, 34559, Note_on_c, 0, 59, 0
2, 34560, Note_on_c, 0, 77, 0
2, 34560, Note_on_c, 0, 60, 76
2, 34561, Note_on_c, 0, 72, 72
2, 34675, Note_on_c, 0, 60, 0
2, 34679, Note_on_c, 0, 72, 0
2, 34704, Note_on_c, 0, 72, 76
2, 34735, Note_on_c, 0, 72, 0
2, 34737, Note_on_c, 0, 71, 76
2, 34766, Note_on_c, 0, 71, 0
2, 34766, Note_on_c, 0, 72, 80
2, 34796, Note_on_c, 0, 72, 0
2, 34797, Note_on_c, 0, 67, 76
2, 34828, Note_on_c, 0, 68, 76
2, 34829, Note_on_c, 0, 67, 0
2, 34861, Note_on_c, 0, 70, 64
2, 34862, Note_on_c, 0, 68, 0
2, 34889, Note_on_c, 0, 68, 72
2, 34891, Note_on_c, 0, 70, 0
2, 34920, Note_on_c, 0, 59, 89
2, 34922, Note_on_c, 0, 68, 0
2, 34923, Note_on_c, 0, 64, 76
2, 34950, Note_on_c, 0, 64, 0
2, 34950, Note_on_c, 0, 65, 85
2, 34979, Note_on_c, 0, 65, 0
2, 34981, Note_on_c, 0, 67, 72
2, 35007, Note_on_c, 0, 67, 0
2, 35008, Note_on_c, 0, 65, 76
2, 35037, Note_on_c, 0, 65, 0
2, 35037, Note_on_c, 0, 59, 0
2, 35040, Note_on_c, 0, 60, 85
2, 35183, Note_on_c, 0, 60, 0
2, 35186, Note_on_c, 0, 62, 85
2, 35202, Note_on_c, 0, 64, 80
2, 35203, Note_on_c, 0, 62, 0
2, 35213, Note_on_c, 0, 64, 0
2, 35217, Note_on_c, 0, 65, 80
2, 35232, Note_on_c, 0, 67, 64
2, 35236, Note_on_c, 0, 65, 0
2, 35249, Note_on_c, 0, 69, 72
2, 35251, Note_on_c, 0, 67, 0
2, 35264, Note_on_c, 0, 69, 0
2, 35264, Note_on_c, 0, 71, 76
2, 35282, Note_on_c, 0, 71, 0
2, 35282, Note_on_c, 0, 72, 89
2, 35425, Note_on_c, 0, 72, 0
2, 35428, Note_on_c, 0, 74, 80
2, 35445, Note_on_c, 0, 76, 76
2, 35446, Note_on_c, 0, 74, 0
2, 35457, Note_on_c, 0, 76, 0
2, 35460, Note_on_c, 0, 77, 80
2, 35477, Note_on_c, 0, 79, 64
2, 35479, Note_on_c, 0, 77, 0
2, 35492, Note_on_c, 0, 81, 68
2, 35493, Note_on_c, 0, 79, 0
2, 35507, Note_on_c, 0, 81, 0
2, 35507, Note_on_c, 0, 83, 76
2, 35521, Note_on_c, 0, 83, 0
2, 35522, Note_on_c, 0, 84, 80
2, 35636, Note_on_c, 0, 84, 0
2, 36480, Note_on_c, 0, 72, 72
2, 36480, Note_on_c, 0, 63, 89
2, 36600, Note_on_c, 0, 70, 64
2, 36608, Note_on_c, 0, 72, 0
2, 36714, Note_on_c, 0, 70, 0
2, 36720, Note_on_c, 0, 68, 76
2, 36834, Note_on_c, 0, 68, 0
2, 36840, Note_on_c, 0, 67, 68
2, 36934, Note_on_c, 0, 63, 0
2, 36960, Note_on_c, 0, 73, 72
2, 36960, Note_on_c, 0, 70, 76
2, 36968, Note_on_c, 0, 67, 0
2, 37074, Note_on_c, 0, 73, 0
2, 37080, Note_on_c, 0, 70, 0
2, 37080, Note_on_c, 0, 72, 72
2, 37080, Note_on_c, 0, 68, 76
2, 37194, Note_on_c, 0, 72, 0
2, 37196, Note_on_c, 0, 68, 0
2, 37200, Note_on_c, 0, 71, 85
2, 37200, Note_on_c, 0, 65, 89
2, 37320, Note_on_c, 0, 70, 72
2, 37328, Note_on_c, 0, 71, 0
2, 37440, Note_on_c, 0, 68, 64
2, 37448, Note_on_c, 0, 70, 0
2, 37546, Note_on_c, 0, 65, 0
2, 37554, Note_on_c, 0, 68, 0
2, 37560, Note_on_c, 0, 68, 76
2, 37560, Note_on_c, 0, 63, 64
2, 37603, Note_on_c, 0, 68, 0
2, 37620, Note_on_c, 0, 70, 60
2, 37632, Note_on_c, 0, 68, 64
2, 37644, Note_on_c, 0, 67, 60
2, 37649, Note_on_c, 0, 70, 0
2, 37656, Note_on_c, 0, 68, 89
2, 37668, Note_on_c, 0, 70, 51
2, 37670, Note_on_c, 0, 68, 0
2, 37673, Note_on_c, 0, 67, 0
2, 37675, Note_on_c, 0, 68, 0
2, 37680, Note_on_c, 0, 67, 76
2, 37681, Note_on_c, 0, 70, 0
2, 37736, Note_on_c, 0, 63, 0
2, 37751, Note_on_c, 0, 67, 0
2, 37800, Note_on_c, 0, 75, 72
2, 37920, Note_on_c, 0, 72, 72
2, 38040, Note_on_c, 0, 74, 76
2, 38040, Note_on_c, 0, 70, 72
2, 38041, Note_on_c, 0, 72, 0
2, 38042, Note_on_c, 0, 75, 0
2, 38097, Note_on_c, 0, 74, 0
2, 38147, Note_on_c, 0, 70, 0
2, 38160, Note_on_c, 0, 73, 85
2, 38280, Note_on_c, 0, 70, 76
2, 38388, Note_on_c, 0, 73, 0
2, 38400, Note_on_c, 0, 72, 72
2, 38400, Note_on_c, 0, 68, 76
2, 38401, Note_on_c, 0, 70, 0
2, 38443, Note_on_c, 0, 72, 0
2, 38473, Note_on_c, 0, 68, 0
2, 38520, Note_on_c, 0, 77, 76
2, 38520, Note_on_c, 0, 68, 76
2, 38620, Note_on_c, 0, 77, 0
2, 38640, Note_on_c, 0, 70, 72
2, 38749, Note_on_c, 0, 68, 0
2, 38760, Note_on_c, 0, 67, 76
2, 38797, Note_on_c, 0, 70, 0
2, 38820, Note_on_c, 0, 72, 72
2, 38877, Note_on_c, 0, 72, 0
2, 38880, Note_on_c, 0, 73, 64
2, 38933, Note_on_c, 0, 67, 0
2, 38940, Note_on_c, 0, 70, 64
2, 38988, Note_on_c, 0, 70, 0
2, 38994, Note_on_c, 0, 73, 0
2, 39000, Note_on_c, 0, 72, 76
2, 39000, Note_on_c, 0, 70, 62
2, 39015, Note_on_c, 0, 73, 60
2, 39028, Note_on_c, 0, 73, 0
2, 39029, Note_on_c, 0, 72, 0
2, 39030, Note_on_c, 0, 75, 49
2, 39043, Note_on_c, 0, 75, 0
2, 39045, Note_on_c, 0, 73, 68
2, 39120, Note_on_c, 0, 72, 68
2, 39120, Note_on_c, 0, 68, 76
2, 39124, Note_on_c, 0, 70, 0
2, 39131, Note_on_c, 0, 73, 0
2, 39149, Note_on_c, 0, 72, 0
2, 39180, Note_on_c, 0, 72, 76
2, 39237, Note_on_c, 0, 72, 0
2, 39240, Note_on_c, 0, 68, 0
2, 39240, Note_on_c, 0, 75, 76
2, 39297, Note_on_c, 0, 75, 0
2, 39300, Note_on_c, 0, 80, 89
2, 39357, Note_on_c, 0, 80, 0
2, 39360, Note_on_c, 0, 84, 76
2, 39360, Note_on_c, 0, 75, 85
2, 39480, Note_on_c, 0, 82, 76
2, 39488, Note_on_c, 0, 84, 0
2, 39600, Note_on_c, 0, 80, 76
2, 39608, Note_on_c, 0, 82, 0
2, 39720, Note_on_c, 0, 79, 80
2, 39728, Note_on_c, 0, 80, 0
2, 39820, Note_on_c, 0, 75, 0
2, 39834, Note_on_c, 0, 79, 0
2, 39840, Note_on_c, 0, 85, 80
2, 39840, Note_on_c, 0, 82, 80
2, 39954, Note_on_c, 0, 85, 0
2, 39960, Note_on_c, 0, 84, 76
2, 39960, Note_on_c, 0, 80, 72
2, 39964, Note_on_c, 0, 82, 0
2, 40074, Note_on_c, 0, 84, 0
2, 40075, Note_on_c, 0, 80, 0
2, 40080, Note_on_c, 0, 83, 80
2, 40080, Note_on_c, 0, 77, 72
2, 40200, Note_on_c, 0, 82, 76
2, 40208, Note_on_c, 0, 83, 0
2, 40314, Note_on_c, 0, 82, 0
2, 40320, Note_on_c, 0, 80, 72
2, 40421, Note_on_c, 0, 77, 0
2, 40434, Note_on_c, 0, 80, 0
2, 40440, Note_on_c, 0, 80, 72
2, 40440, Note_on_c, 0, 75, 76
2, 40497, Note_on_c, 0, 80, 0
2, 40500, Note_on_c, 0, 82, 64
2, 40512, Note_on_c, 0, 80, 68
2, 40513, Note_on_c, 0, 82, 0
2, 40524, Note_on_c, 0, 79, 57
2, 40536, Note_on_c, 0, 80, 89
2, 40537, Note_on_c, 0, 79, 0
2, 40548, Note_on_c, 0, 82, 42
2, 40550, Note_on_c, 0, 80, 0
2, 40555, Note_on_c, 0, 80, 0
2, 40560, Note_on_c, 0, 79, 57
2, 40561, Note_on_c, 0, 82, 0
2, 40610, Note_on_c, 0, 75, 0
2, 40631, Note_on_c, 0, 79, 0
2, 40680, Note_on_c, 0, 75, 85
2, 40800, Note_on_c, 0, 81, 76
2, 40854, Note_on_c, 0, 75, 0
2, 40860, Note_on_c, 0, 77, 76
2, 40872, Note_on_c, 0, 75, 80
2, 40874, Note_on_c, 0, 77, 0
2, 40884, Note_on_c, 0, 74, 76
2, 40896, Note_on_c, 0, 75, 80
2, 40903, Note_on_c, 0, 74, 0
2, 40907, Note_on_c, 0, 75, 0
2, 40908, Note_on_c, 0, 77, 59
2, 40920, Note_on_c, 0, 82, 62
2, 40920, Note_on_c, 0, 73, 80
2, 40922, Note_on_c, 0, 75, 0
2, 40923, Note_on_c, 0, 77, 0
2, 40928, Note_on_c, 0, 81, 0
2, 40949, Note_on_c, 0, 82, 0
2, 40977, Note_on_c, 0, 73, 0
2, 41040, Note_on_c, 0, 73, 93
2, 41160, Note_on_c, 0, 79, 80
2, 41185, Note_on_c, 0, 73, 0
2, 41220, Note_on_c, 0, 75, 62
2, 41232, Note_on_c, 0, 73, 72
2, 41244, Note_on_c, 0, 72, 72
2, 41245, Note_on_c, 0, 75, 0
2, 41254, Note_on_c, 0, 73, 0
2, 41256, Note_on_c, 0, 73, 57
2, 41259, Note_on_c, 0, 72, 0
2, 41267, Note_on_c, 0, 73, 0
2, 41268, Note_on_c, 0, 75, 15
2, 41274, Note_on_c, 0, 79, 0
2, 41279, Note_on_c, 0, 75, 0
2, 41280, Note_on_c, 0, 80, 72
2, 41280, Note_on_c, 0, 72, 76
2, 41323, Note_on_c, 0, 80, 0
2, 41365, Note_on_c, 0, 72, 0
2, 41400, Note_on_c, 0, 80, 72
2, 41400, Note_on_c, 0, 77, 89
2, 41484, Note_on_c, 0, 77, 0
2, 41490, Note_on_c, 0, 77, 72
2, 41490, Note_on_c, 0, 73, 80
2, 41500, Note_on_c, 0, 80, 0
2, 41519, Note_on_c, 0, 73, 0
2, 41519, Note_on_c, 0, 77, 0
2, 41520, Note_on_c, 0, 75, 64
2, 41520, Note_on_c, 0, 72, 80
2, 41663, Note_on_c, 0, 75, 0
2, 41755, Note_on_c, 0, 72, 0
2, 41760, Note_on_c, 0, 73, 72
2, 41813, Note_on_c, 0, 73, 0
2, 41865, Note_on_c, 0, 67, 64
2, 41879, Note_on_c, 0, 67, 0
2, 41880, Note_on_c, 0, 70, 76
2, 41880, Note_on_c, 0, 67, 85
2, 41966, Note_on_c, 0, 70, 0
2, 41970, Note_on_c, 0, 72, 76
2, 41983, Note_on_c, 0, 72, 0
2, 41985, Note_on_c, 0, 70, 64
2, 41998, Note_on_c, 0, 70, 0
2, 42000, Note_on_c, 0, 68, 64
2, 42000, Note_on_c, 0, 68, 76
2, 42004, Note_on_c, 0, 67, 0
2, 42057, Note_on_c, 0, 68, 0
2, 42057, Note_on_c, 0, 68, 0
2, 42120, Note_on_c, 0, 72, 76
2, 42210, Note_on_c, 0, 70, 80
2, 42220, Note_on_c, 0, 72, 0
2, 42223, Note_on_c, 0, 70, 0
2, 42240, Note_on_c, 0, 70, 76
2, 42240, Note_on_c, 0, 68, 72
2, 42351, Note_on_c, 0, 68, 0
2, 42360, Note_on_c, 0, 67, 76
2, 42411, Note_on_c, 0, 70, 0
2, 42420, Note_on_c, 0, 67, 0
2, 42420, Note_on_c, 0, 72, 76
2, 42435, Note_on_c, 0, 70, 68
2, 42448, Note_on_c, 0, 70, 0
2, 42449, Note_on_c, 0, 72, 0
2, 42450, Note_on_c, 0, 69, 55
2, 42465, Note_on_c, 0, 70, 62
2, 42478, Note_on_c, 0, 70, 0
2, 42479, Note_on_c, 0, 69, 0
2, 42480, Note_on_c, 0, 74, 72
2, 42523, Note_on_c, 0, 74, 0
2, 42540, Note_on_c, 0, 72, 72
2, 42583, Note_on_c, 0, 72, 0
2, 42585, Note_on_c, 0, 70, 72
2, 42598, Note_on_c, 0, 70, 0
2, 42600, Note_on_c, 0, 70, 68
2, 42600, Note_on_c, 0, 68, 80
2, 42718, Note_on_c, 0, 68, 0
2, 42720, Note_on_c, 0, 67, 76
2, 42771, Note_on_c, 0, 67, 0
2, 42780, Note_on_c, 0, 72, 76
2, 42785, Note_on_c, 0, 70, 0
2, 42795, Note_on_c, 0, 70, 64
2, 42808, Note_on_c, 0, 70, 0
2, 42809, Note_on_c, 0, 72, 0
2, 42810, Note_on_c, 0, 69, 62
2, 42825, Note_on_c, 0, 70, 80
2, 42839, Note_on_c, 0, 69, 0
2, 42840, Note_on_c, 0, 75, 62
2, 42854, Note_on_c, 0, 70, 0
2, 42897, Note_on_c, 0, 75, 0
2, 42900, Note_on_c, 0, 79, 80
2, 42913, Note_on_c, 0, 79, 0
2, 42960, Note_on_c, 0, 82, 76
2, 42960, Note_on_c, 0, 75, 85
2, 43131, Note_on_c, 0, 82, 0
2, 43140, Note_on_c, 0, 84, 76
2, 43170, Note_on_c, 0, 82, 76
2, 43183, Note_on_c, 0, 82, 0
2, 43183, Note_on_c, 0, 84, 0
2, 43189, Note_on_c, 0, 75, 0
2, 43200, Note_on_c, 0, 82, 80
2, 43200, Note_on_c, 0, 74, 72
2, 43229, Note_on_c, 0, 82, 0
2, 43230, Note_on_c, 0, 80, 72
2, 43259, Note_on_c, 0, 80, 0
2, 43260, Note_on_c, 0, 79, 72
2, 43289, Note_on_c, 0, 79, 0
2, 43290, Note_on_c, 0, 80, 72
2, 43303, Note_on_c, 0, 80, 0
2, 43307, Note_on_c, 0, 74, 0
2, 43320, Note_on_c, 0, 80, 76
2, 43320, Note_on_c, 0, 74, 80
2, 43434, Note_on_c, 0, 80, 0
2, 43436, Note_on_c, 0, 74, 0
2, 43440, Note_on_c, 0, 79, 72
2, 43440, Note_on_c, 0, 75, 80
2, 43497, Note_on_c, 0, 79, 0
2, 43518, Note_on_c, 0, 75, 0
2, 43530, Note_on_c, 0, 75, 59
2, 43559, Note_on_c, 0, 75, 0
2, 43560, Note_on_c, 0, 84, 76
2, 43560, Note_on_c, 0, 79, 76
2, 43606, Note_on_c, 0, 79, 0
2, 43617, Note_on_c, 0, 84, 0
2, 43620, Note_on_c, 0, 82, 76
2, 43620, Note_on_c, 0, 77, 64
2, 43663, Note_on_c, 0, 82, 0
2, 43677, Note_on_c, 0, 77, 0
2, 43680, Note_on_c, 0, 82, 72
2, 43680, Note_on_c, 0, 75, 62
2, 43766, Note_on_c, 0, 82, 0
2, 43770, Note_on_c, 0, 84, 76
2, 43785, Note_on_c, 0, 82, 68
2, 43786, Note_on_c, 0, 75, 0
2, 43798, Note_on_c, 0, 82, 0
2, 43799, Note_on_c, 0, 84, 0
2, 43800, Note_on_c, 0, 80, 85
2, 43800, Note_on_c, 0, 75, 76
2, 43820, Note_on_c, 0, 75, 0
2, 43829, Note_on_c, 0, 80, 0
2, 43860, Note_on_c, 0, 79, 85
2, 43860, Note_on_c, 0, 74, 68
2, 43873, Note_on_c, 0, 79, 0
2, 43876, Note_on_c, 0, 74, 0
2, 43920, Note_on_c, 0, 77, 80
2, 43920, Note_on_c, 0, 72, 76
2, 43932, Note_on_c, 0, 72, 0
2, 43933, Note_on_c, 0, 77, 0
2, 43980, Note_on_c, 0, 75, 64
2, 43980, Note_on_c, 0, 70, 80
2, 43993, Note_on_c, 0, 75, 0
2, 43996, Note_on_c, 0, 70, 0
2, 44040, Note_on_c, 0, 75, 68
2, 44040, Note_on_c, 0, 68, 89
2, 44126, Note_on_c, 0, 75, 0
2, 44130, Note_on_c, 0, 77, 72
2, 44143, Note_on_c, 0, 77, 0
2, 44145, Note_on_c, 0, 75, 68
2, 44158, Note_on_c, 0, 75, 0
2, 44160, Note_on_c, 0, 74, 76
2, 44212, Note_on_c, 0, 68, 0
2, 44217, Note_on_c, 0, 74, 0
2, 44220, Note_on_c, 0, 72, 76
2, 44220, Note_on_c, 0, 67, 76
2, 44277, Note_on_c, 0, 72, 0
2, 44280, Note_on_c, 0, 70, 76
2, 44280, Note_on_c, 0, 65, 80
2, 44282, Note_on_c, 0, 67, 0
2, 44323, Note_on_c, 0, 70, 0
2, 44340, Note_on_c, 0, 68, 72
2, 44389, Note_on_c, 0, 65, 0
2, 44400, Note_on_c, 0, 67, 76
2, 44400, Note_on_c, 0, 63, 72
2, 44411, Note_on_c, 0, 68, 0
2, 44457, Note_on_c, 0, 67, 0
2, 44459, Note_on_c, 0, 63, 0
2, 44460, Note_on_c, 0, 72, 72
2, 44460, Note_on_c, 0, 66, 72
2, 44517, Note_on_c, 0, 72, 0
2, 44520, Note_on_c, 0, 66, 0
2, 44520, Note_on_c, 0, 70, 80
2, 44520, Note_on_c, 0, 67, 80
2, 44640, Note_on_c, 0, 68, 72
2, 44644, Note_on_c, 0, 67, 0
2, 44648, Note_on_c, 0, 70, 0
2, 44693, Note_on_c, 0, 68, 0
2, 44730, Note_on_c, 0, 74, 76
2, 44743, Note_on_c, 0, 74, 0
2, 44760, Note_on_c, 0, 77, 76
2, 44760, Note_on_c, 0, 74, 89
2, 44874, Note_on_c, 0, 77, 0
2, 44876, Note_on_c, 0, 74, 0
2, 44880, Note_on_c, 0, 75, 64
2, 44937, Note_on_c, 0, 75, 0
2, 45000, Note_on_c, 0, 78, 80
2, 45000, Note_on_c, 0, 75, 89
2, 45086, Note_on_c, 0, 78, 0
2, 45090, Note_on_c, 0, 77, 48
2, 45103, Note_on_c, 0, 77, 0
2, 45120, Note_on_c, 0, 77, 80
2, 45174, Note_on_c, 0, 75, 0
2, 45180, Note_on_c, 0, 79, 76
2, 45180, Note_on_c, 0, 74, 80
2, 45191, Note_on_c, 0, 77, 0
2, 45193, Note_on_c, 0, 79, 0
2, 45195, Note_on_c, 0, 77, 76
2, 45208, Note_on_c, 0, 77, 0
2, 45210, Note_on_c, 0, 76, 64
2, 45223, Note_on_c, 0, 76, 0
2, 45225, Note_on_c, 0, 77, 76
2, 45238, Note_on_c, 0, 77, 0
2, 45240, Note_on_c, 0, 82, 64
2, 45283, Note_on_c, 0, 82, 0
2, 45297, Note_on_c, 0, 74, 0
2, 45300, Note_on_c, 0, 73, 85
2, 45349, Note_on_c, 0, 73, 0
2, 45360, Note_on_c, 0, 75, 85
2, 45420, Note_on_c, 0, 73, 89
2, 45446, Note_on_c, 0, 75, 0
2, 45450, Note_on_c, 0, 75, 72
2, 45463, Note_on_c, 0, 75, 0
2, 45480, Note_on_c, 0, 75, 76
2, 45533, Note_on_c, 0, 73, 0
2, 45540, Note_on_c, 0, 77, 80
2, 45540, Note_on_c, 0, 71, 89
2, 45553, Note_on_c, 0, 77, 0
2, 45555, Note_on_c, 0, 75, 48
2, 45566, Note_on_c, 0, 75, 0
2, 45568, Note_on_c, 0, 75, 0
2, 45570, Note_on_c, 0, 74, 57
2, 45583, Note_on_c, 0, 74, 0
2, 45585, Note_on_c, 0, 75, 68
2, 45598, Note_on_c, 0, 75, 0
2, 45600, Note_on_c, 0, 80, 72
2, 45600, Note_on_c, 0, 72, 80
2, 45601, Note_on_c, 0, 71, 0
2, 45633, Note_on_c, 0, 72, 0
2, 45643, Note_on_c, 0, 80, 0
2, 45720, Note_on_c, 0, 80, 80
2, 45806, Note_on_c, 0, 80, 0
2, 45810, Note_on_c, 0, 75, 68
2, 45823, Note_on_c, 0, 75, 0
2, 45840, Note_on_c, 0, 83, 89
2, 45840, Note_on_c, 0, 65, 85
2, 45983, Note_on_c, 0, 83, 0
2, 46005, Note_on_c, 0, 82, 76
2, 46018, Note_on_c, 0, 82, 0
2, 46018, Note_on_c, 0, 65, 0
2, 46020, Note_on_c, 0, 80, 56
2, 46020, Note_on_c, 0, 68, 80
2, 46033, Note_on_c, 0, 80, 0
2, 46035, Note_on_c, 0, 79, 72
2, 46048, Note_on_c, 0, 79, 0
2, 46050, Note_on_c, 0, 77, 57
2, 46063, Note_on_c, 0, 77, 0
2, 46065, Note_on_c, 0, 75, 60
2, 46078, Note_on_c, 0, 75, 0
2, 46080, Note_on_c, 0, 74, 60
2, 46080, Note_on_c, 0, 71, 80
2, 46083, Note_on_c, 0, 68, 0
2, 46097, Note_on_c, 0, 71, 0
2, 46123, Note_on_c, 0, 74, 0
2, 46140, Note_on_c, 0, 74, 64
2, 46140, Note_on_c, 0, 71, 76
2, 46154, Note_on_c, 0, 71, 0
2, 46183, Note_on_c, 0, 74, 0
2, 46200, Note_on_c, 0, 77, 72
2, 46200, Note_on_c, 0, 71, 80
2, 46317, Note_on_c, 0, 71, 0
2, 46320, Note_on_c, 0, 75, 64
2, 46320, Note_on_c, 0, 70, 72
2, 46328, Note_on_c, 0, 77, 0
2, 46349, Note_on_c, 0, 75, 0
2, 46380, Note_on_c, 0, 75, 62
2, 46396, Note_on_c, 0, 70, 0
2, 46437, Note_on_c, 0, 75, 0
2, 46440, Note_on_c, 0, 74, 80
2, 46497, Note_on_c, 0, 74, 0
2, 46500, Note_on_c, 0, 73, 72
2, 46557, Note_on_c, 0, 73, 0
2, 46560, Note_on_c, 0, 72, 76
2, 46560, Note_on_c, 0, 63, 72
2, 46590, Note_on_c, 0, 75, 72
2, 46603, Note_on_c, 0, 72, 0
2, 46619, Note_on_c, 0, 75, 0
2, 46620, Note_on_c, 0, 73, 68
2, 46649, Note_on_c, 0, 73, 0
2, 46650, Note_on_c, 0, 72, 72
2, 46680, Note_on_c, 0, 70, 76
2, 46693, Note_on_c, 0, 72, 0
2, 46709, Note_on_c, 0, 70, 0
2, 46710, Note_on_c, 0, 73, 68
2, 46740, Note_on_c, 0, 72, 68
2, 46753, Note_on_c, 0, 73, 0
2, 46770, Note_on_c, 0, 70, 72
2, 46783, Note_on_c, 0, 72, 0
2, 46799, Note_on_c, 0, 70, 0
2, 46800, Note_on_c, 0, 68, 76
2, 46829, Note_on_c, 0, 68, 0
2, 46830, Note_on_c, 0, 72, 72
2, 46859, Note_on_c, 0, 72, 0
2, 46860, Note_on_c, 0, 70, 76
2, 46889, Note_on_c, 0, 70, 0
2, 46890, Note_on_c, 0, 68, 68
2, 46905, Note_on_c, 0, 63, 0
2, 46920, Note_on_c, 0, 67, 76
2, 46920, Note_on_c, 0, 61, 76
2, 46933, Note_on_c, 0, 68, 0
2, 46950, Note_on_c, 0, 68, 57
2, 46963, Note_on_c, 0, 67, 0
2, 46979, Note_on_c, 0, 68, 0
2, 46980, Note_on_c, 0, 70, 64
2, 47009, Note_on_c, 0, 70, 0
2, 47010, Note_on_c, 0, 72, 80
2, 47039, Note_on_c, 0, 72, 0
2, 47040, Note_on_c, 0, 61, 0
2, 47040, Note_on_c, 0, 73, 72
2, 47040, Note_on_c, 0, 67, 80
2, 47069, Note_on_c, 0, 73, 0
2, 47070, Note_on_c, 0, 75, 68
2, 47099, Note_on_c, 0, 75, 0
2, 47100, Note_on_c, 0, 77, 76
2, 47129, Note_on_c, 0, 77, 0
2, 47130, Note_on_c, 0, 75, 62
2, 47156, Note_on_c, 0, 67, 0
2, 47159, Note_on_c, 0, 75, 0
2, 47160, Note_on_c, 0, 73, 72
2, 47160, Note_on_c, 0, 68, 80
2, 47189, Note_on_c, 0, 73, 0
2, 47190, Note_on_c, 0, 72, 64
2, 47219, Note_on_c, 0, 72, 0
2, 47220, Note_on_c, 0, 71, 62
2, 47249, Note_on_c, 0, 71, 0
2, 47250, Note_on_c, 0, 72, 80
2, 47279, Note_on_c, 0, 72, 0
2, 47280, Note_on_c, 0, 72, 76
2, 47280, Note_on_c, 0, 65, 85
2, 47283, Note_on_c, 0, 68, 0
2, 47309, Note_on_c, 0, 72, 0
2, 47310, Note_on_c, 0, 71, 68
2, 47339, Note_on_c, 0, 71, 0
2, 47340, Note_on_c, 0, 77, 85
2, 47353, Note_on_c, 0, 77, 0
2, 47370, Note_on_c, 0, 77, 76
2, 47399, Note_on_c, 0, 77, 0
2, 47400, Note_on_c, 0, 71, 80
2, 47429, Note_on_c, 0, 71, 0
2, 47430, Note_on_c, 0, 70, 57
2, 47459, Note_on_c, 0, 70, 0
2, 47460, Note_on_c, 0, 77, 85
2, 47473, Note_on_c, 0, 77, 0
2, 47490, Note_on_c, 0, 77, 80
2, 47519, Note_on_c, 0, 77, 0
2, 47520, Note_on_c, 0, 70, 64
2, 47549, Note_on_c, 0, 70, 0
2, 47550, Note_on_c, 0, 68, 68
2, 47579, Note_on_c, 0, 68, 0
2, 47580, Note_on_c, 0, 77, 89
2, 47593, Note_on_c, 0, 77, 0
2, 47610, Note_on_c, 0, 77, 76
2, 47619, Note_on_c, 0, 65, 0
2, 47623, Note_on_c, 0, 77, 0
2, 47640, Note_on_c, 0, 68, 64
2, 47640, Note_on_c, 0, 63, 76
2, 47669, Note_on_c, 0, 68, 0
2, 47670, Note_on_c, 0, 72, 62
2, 47699, Note_on_c, 0, 72, 0
2, 47700, Note_on_c, 0, 70, 76
2, 47729, Note_on_c, 0, 70, 0
2, 47730, Note_on_c, 0, 68, 64
2, 47759, Note_on_c, 0, 68, 0
2, 47760, Note_on_c, 0, 67, 72
2, 47789, Note_on_c, 0, 67, 0
2, 47790, Note_on_c, 0, 68, 62
2, 47804, Note_on_c, 0, 63, 0
2, 47819, Note_on_c, 0, 68, 0
2, 47820, Note_on_c, 0, 70, 72
2, 47849, Note_on_c, 0, 70, 0
2, 47850, Note_on_c, 0, 71, 76
2, 47879, Note_on_c, 0, 71, 0
2, 47880, Note_on_c, 0, 72, 85
2, 47909, Note_on_c, 0, 72, 0
2, 47910, Note_on_c, 0, 73, 72
2, 47939, Note_on_c, 0, 73, 0
2, 47940, Note_on_c, 0, 74, 72
2, 47969, Note_on_c, 0, 74, 0
2, 47970, Note_on_c, 0, 75, 80
2, 47999, Note_on_c, 0, 75, 0
2, 48000, Note_on_c, 0, 76, 76
2, 48000, Note_on_c, 0, 72, 76
2, 48029, Note_on_c, 0, 76, 0
2, 48030, Note_on_c, 0, 77, 64
2, 48060, Note_on_c, 0, 78, 64
2, 48073, Note_on_c, 0, 77, 0
2, 48090, Note_on_c, 0, 77, 72
2, 48103, Note_on_c, 0, 78, 0
2, 48119, Note_on_c, 0, 77, 0
2, 48120, Note_on_c, 0, 76, 72
2, 48120, Note_on_c, 0, 73, 68
2, 48121, Note_on_c, 0, 72, 0
2, 48150, Note_on_c, 0, 77, 76
2, 48163, Note_on_c, 0, 76, 0
2, 48176, Note_on_c, 0, 73, 0
2, 48180, Note_on_c, 0, 78, 76
2, 48193, Note_on_c, 0, 77, 0
2, 48209, Note_on_c, 0, 78, 0
2, 48210, Note_on_c, 0, 79, 68
2, 48239, Note_on_c, 0, 79, 0
2, 48240, Note_on_c, 0, 80, 85
2, 48269, Note_on_c, 0, 80, 0
2, 48270, Note_on_c, 0, 81, 76
2, 48299, Note_on_c, 0, 81, 0
2, 48300, Note_on_c, 0, 84, 62
2, 48329, Note_on_c, 0, 84, 0
2, 48330, Note_on_c, 0, 82, 68
2, 48359, Note_on_c, 0, 82, 0
2, 48360, Note_on_c, 0, 74, 80
2, 48360, Note_on_c, 0, 70, 80
2, 48389, Note_on_c, 0, 74, 0
2, 48390, Note_on_c, 0, 75, 68
2, 48419, Note_on_c, 0, 75, 0
2, 48420, Note_on_c, 0, 77, 72
2, 48449, Note_on_c, 0, 77, 0
2, 48450, Note_on_c, 0, 75, 60
2, 48479, Note_on_c, 0, 75, 0
2, 48480, Note_on_c, 0, 70, 0
2, 48480, Note_on_c, 0, 74, 72
2, 48480, Note_on_c, 0, 72, 76
2, 48509, Note_on_c, 0, 74, 0
2, 48510, Note_on_c, 0, 75, 59
2, 48539, Note_on_c, 0, 75, 0
2, 48539, Note_on_c, 0, 72, 0
2, 48540, Note_on_c, 0, 76, 80
2, 48569, Note_on_c, 0, 76, 0
2, 48570, Note_on_c, 0, 77, 76
2, 48599, Note_on_c, 0, 77, 0
2, 48600, Note_on_c, 0, 78, 68
2, 48629, Note_on_c, 0, 78, 0
2, 48630, Note_on_c, 0, 79, 76
2, 48659, Note_on_c, 0, 79, 0
2, 48660, Note_on_c, 0, 82, 80
2, 48689, Note_on_c, 0, 82, 0
2, 48690, Note_on_c, 0, 80, 76
2, 48703, Note_on_c, 0, 80, 0
2, 48720, Note_on_c, 0, 82, 76
2, 48720, Note_on_c, 0, 68, 62
2, 48720, Note_on_c, 0, 65, 64
2, 48749, Note_on_c, 0, 82, 0
2, 48750, Note_on_c, 0, 80, 64
2, 48779, Note_on_c, 0, 80, 0
2, 48780, Note_on_c, 0, 79, 68
2, 48809, Note_on_c, 0, 79, 0
2, 48810, Note_on_c, 0, 77, 80
2, 48823, Note_on_c, 0, 77, 0
2, 48831, Note_on_c, 0, 65, 0
2, 48840, Note_on_c, 0, 77, 76
2, 48840, Note_on_c, 0, 63, 62
2, 48869, Note_on_c, 0, 77, 0
2, 48870, Note_on_c, 0, 75, 60
2, 48899, Note_on_c, 0, 75, 0
2, 48900, Note_on_c, 0, 73, 72
2, 48929, Note_on_c, 0, 73, 0
2, 48930, Note_on_c, 0, 72, 72
2, 48943, Note_on_c, 0, 72, 0
2, 48947, Note_on_c, 0, 68, 0
2, 48960, Note_on_c, 0, 72, 76
2, 48960, Note_on_c, 0, 67, 85
2, 48973, Note_on_c, 0, 72, 0
2, 48975, Note_on_c, 0, 70, 64
2, 48988, Note_on_c, 0, 70, 0
2, 48990, Note_on_c, 0, 73, 64
2, 49003, Note_on_c, 0, 73, 0
2, 49005, Note_on_c, 0, 72, 64
2, 49018, Note_on_c, 0, 72, 0
2, 49020, Note_on_c, 0, 75, 60
2, 49033, Note_on_c, 0, 75, 0
2, 49035, Note_on_c, 0, 73, 51
2, 49048, Note_on_c, 0, 73, 0
2, 49050, Note_on_c, 0, 77, 60
2, 49058, Note_on_c, 0, 63, 0
2, 49065, Note_on_c, 0, 75, 60
2, 49067, Note_on_c, 0, 67, 0
2, 49078, Note_on_c, 0, 75, 0
2, 49079, Note_on_c, 0, 77, 0
2, 49080, Note_on_c, 0, 75, 80
2, 49080, Note_on_c, 0, 67, 76
2, 49080, Note_on_c, 0, 63, 51
2, 49194, Note_on_c, 0, 67, 0
2, 49194, Note_on_c, 0, 75, 0
2, 49200, Note_on_c, 0, 68, 85
2, 49200, Note_on_c, 0, 68, 72
2, 49250, Note_on_c, 0, 63, 0
2, 49261, Note_on_c, 0, 68, 0
2, 49271, Note_on_c, 0, 68, 0
2, 49320, Note_on_c, 0, 67, 89
2, 49349, Note_on_c, 0, 67, 0
2, 49350, Note_on_c, 0, 68, 76
2, 49379, Note_on_c, 0, 68, 0
2, 49380, Note_on_c, 0, 70, 68
2, 49409, Note_on_c, 0, 70, 0
2, 49410, Note_on_c, 0, 72, 62
2, 49423, Note_on_c, 0, 72, 0
2, 49440, Note_on_c, 0, 74, 76
2, 49440, Note_on_c, 0, 68, 72
2, 49447, Note_on_c, 0, 72, 62
2, 49453, Note_on_c, 0, 74, 0
2, 49454, Note_on_c, 0, 74, 80
2, 49460, Note_on_c, 0, 72, 0
2, 49461, Note_on_c, 0, 72, 76
2, 49467, Note_on_c, 0, 74, 0
2, 49470, Note_on_c, 0, 70, 85
2, 49474, Note_on_c, 0, 72, 0
2, 49483, Note_on_c, 0, 70, 0
2, 49500, Note_on_c, 0, 70, 93
2, 49513, Note_on_c, 0, 70, 0
2, 49530, Note_on_c, 0, 70, 85
2, 49543, Note_on_c, 0, 70, 0
2, 49560, Note_on_c, 0, 70, 93
2, 49560, Note_on_c, 0, 67, 76
2, 49569, Note_on_c, 0, 68, 0
2, 49573, Note_on_c, 0, 70, 0
2, 49590, Note_on_c, 0, 82, 80
2, 49603, Note_on_c, 0, 82, 0
2, 49614, Note_on_c, 0, 67, 0
2, 49620, Note_on_c, 0, 82, 76
2, 49649, Note_on_c, 0, 82, 0
2, 49650, Note_on_c, 0, 79, 85
2, 49663, Note_on_c, 0, 79, 0
2, 49680, Note_on_c, 0, 79, 76
2, 49693, Note_on_c, 0, 79, 0
2, 49710, Note_on_c, 0, 75, 72
2, 49723, Note_on_c, 0, 75, 0
2, 49740, Note_on_c, 0, 75, 64
2, 49753, Note_on_c, 0, 75, 0
2, 49770, Note_on_c, 0, 70, 64
2, 49783, Note_on_c, 0, 70, 0
2, 49800, Note_on_c, 0, 74, 80
2, 49800, Note_on_c, 0, 68, 76
2, 49807, Note_on_c, 0, 72, 64
2, 49813, Note_on_c, 0, 74, 0
2, 49814, Note_on_c, 0, 74, 80
2, 49820, Note_on_c, 0, 72, 0
2, 49821, Note_on_c, 0, 72, 89
2, 49827, Note_on_c, 0, 74, 0
2, 49830, Note_on_c, 0, 70, 89
2, 49834, Note_on_c, 0, 72, 0
2, 49843, Note_on_c, 0, 70, 0
2, 49860, Note_on_c, 0, 70, 76
2, 49873, Note_on_c, 0, 70, 0
2, 49890, Note_on_c, 0, 70, 76
2, 49903, Note_on_c, 0, 70, 0
2, 49920, Note_on_c, 0, 70, 107
2, 49920, Note_on_c, 0, 67, 72
2, 49921, Note_on_c, 0, 68, 0
2, 49933, Note_on_c, 0, 70, 0
2, 49950, Note_on_c, 0, 82, 107
2, 49963, Note_on_c, 0, 82, 0
2, 49966, Note_on_c, 0, 67, 0
2, 49980, Note_on_c, 0, 82, 80
2, 50009, Note_on_c, 0, 82, 0
2, 50010, Note_on_c, 0, 79, 85
2, 50023, Note_on_c, 0, 79, 0
2, 50040, Note_on_c, 0, 79, 85
2, 50069, Note_on_c, 0, 79, 0
2, 50070, Note_on_c, 0, 75, 80
2, 50083, Note_on_c, 0, 75, 0
2, 50100, Note_on_c, 0, 75, 72
2, 50129, Note_on_c, 0, 75, 0
2, 50130, Note_on_c, 0, 70, 56
2, 50143, Note_on_c, 0, 70, 0
2, 50160, Note_on_c, 0, 70, 80
2, 50160, Note_on_c, 0, 67, 80
2, 50189, Note_on_c, 0, 70, 0
2, 50190, Note_on_c, 0, 75, 76
2, 50219, Note_on_c, 0, 75, 0
2, 50220, Note_on_c, 0, 79, 89
2, 50249, Note_on_c, 0, 79, 0
2, 50250, Note_on_c, 0, 77, 64
2, 50279, Note_on_c, 0, 77, 0
2, 50280, Note_on_c, 0, 75, 76
2, 50309, Note_on_c, 0, 75, 0
2, 50310, Note_on_c, 0, 74, 76
2, 50339, Note_on_c, 0, 74, 0
2, 50340, Note_on_c, 0, 72, 68
2, 50369, Note_on_c, 0, 72, 0
2, 50370, Note_on_c, 0, 70, 72
2, 50396, Note_on_c, 0, 67, 0
2, 50399, Note_on_c, 0, 70, 0
2, 50400, Note_on_c, 0, 69, 64
2, 50400, Note_on_c, 0, 65, 85
2, 50429, Note_on_c, 0, 69, 0
2, 50430, Note_on_c, 0, 70, 62
2, 50459, Note_on_c, 0, 70, 0
2, 50460, Note_on_c, 0, 72, 68
2, 50489, Note_on_c, 0, 72, 0
2, 50490, Note_on_c, 0, 68, 68
2, 50499, Note_on_c, 0, 65, 0
2, 50519, Note_on_c, 0, 68, 0
2, 50520, Note_on_c, 0, 70, 76
2, 50520, Note_on_c, 0, 65, 62
2, 50549, Note_on_c, 0, 70, 0
2, 50580, Note_on_c, 0, 70, 68
2, 50586, Note_on_c, 0, 70, 0
2, 50587, Note_on_c, 0, 68, 64
2, 50593, Note_on_c, 0, 68, 0
2, 50594, Note_on_c, 0, 70, 62
2, 50600, Note_on_c, 0, 70, 0
2, 50601, Note_on_c, 0, 68, 57
2, 50607, Note_on_c, 0, 68, 0
2, 50608, Note_on_c, 0, 67, 68
2, 50621, Note_on_c, 0, 67, 0
2, 50623, Note_on_c, 0, 68, 72
2, 50636, Note_on_c, 0, 68, 0
2, 50636, Note_on_c, 0, 65, 0
2, 50638, Note_on_c, 0, 67, 80
2, 50640, Note_on_c, 0, 63, 72
2, 50693, Note_on_c, 0, 63, 0
2, 50694, Note_on_c, 0, 67, 0
2, 50760, Note_on_c, 0, 74, 93
2, 50789, Note_on_c, 0, 74, 0
2, 50790, Note_on_c, 0, 75, 68
2, 50819, Note_on_c, 0, 75, 0
2, 50820, Note_on_c, 0, 84, 76
2, 50820, Note_on_c, 0, 79, 80
2, 50849, Note_on_c, 0, 84, 0
2, 50850, Note_on_c, 0, 82, 76
2, 50850, Note_on_c, 0, 77, 76
2, 50852, Note_on_c, 0, 79, 0
2, 50863, Note_on_c, 0, 82, 0
2, 50880, Note_on_c, 0, 82, 72
2, 50880, Note_on_c, 0, 75, 68
2, 50885, Note_on_c, 0, 77, 0
2, 50909, Note_on_c, 0, 82, 0
2, 50910, Note_on_c, 0, 80, 76
2, 50939, Note_on_c, 0, 80, 0
2, 50940, Note_on_c, 0, 84, 72
2, 50969, Note_on_c, 0, 84, 0
2, 50970, Note_on_c, 0, 82, 55
2, 50983, Note_on_c, 0, 82, 0
2, 51000, Note_on_c, 0, 82, 64
2, 51007, Note_on_c, 0, 84, 64
2, 51013, Note_on_c, 0, 82, 0
2, 51015, Note_on_c, 0, 82, 80
2, 51020, Note_on_c, 0, 84, 0
2, 51028, Note_on_c, 0, 82, 0
2, 51030, Note_on_c, 0, 80, 60
2, 51043, Note_on_c, 0, 80, 0
2, 51053, Note_on_c, 0, 75, 0
2, 51060, Note_on_c, 0, 80, 85
2, 51060, Note_on_c, 0, 74, 89
2, 51067, Note_on_c, 0, 82, 62
2, 51073, Note_on_c, 0, 80, 0
2, 51075, Note_on_c, 0, 80, 76
2, 51080, Note_on_c, 0, 82, 0
2, 51088, Note_on_c, 0, 80, 0
2, 51090, Note_on_c, 0, 79, 85
2, 51103, Note_on_c, 0, 79, 0
2, 51117, Note_on_c, 0, 74, 0
2, 51120, Note_on_c, 0, 79, 76
2, 51120, Note_on_c, 0, 72, 80
2, 51127, Note_on_c, 0, 80, 62
2, 51133, Note_on_c, 0, 79, 0
2, 51135, Note_on_c, 0, 79, 80
2, 51140, Note_on_c, 0, 80, 0
2, 51148, Note_on_c, 0, 79, 0
2, 51150, Note_on_c, 0, 77, 89
2, 51163, Note_on_c, 0, 77, 0
2, 51179, Note_on_c, 0, 72, 0
2, 51180, Note_on_c, 0, 77, 76
2, 51180, Note_on_c, 0, 70, 89
2, 51187, Note_on_c, 0, 79, 57
2, 51194, Note_on_c, 0, 77, 76
2, 51200, Note_on_c, 0, 79, 0
2, 51201, Note_on_c, 0, 77, 0
2, 51209, Note_on_c, 0, 77, 0
2, 51210, Note_on_c, 0, 75, 76
2, 51239, Note_on_c, 0, 75, 0
2, 51240, Note_on_c, 0, 75, 80
2, 51240, Note_on_c, 0, 68, 76
2, 51243, Note_on_c, 0, 70, 0
2, 51269, Note_on_c, 0, 75, 0
2, 51270, Note_on_c, 0, 74, 76
2, 51299, Note_on_c, 0, 74, 0
2, 51300, Note_on_c, 0, 77, 76
2, 51329, Note_on_c, 0, 77, 0
2, 51330, Note_on_c, 0, 75, 72
2, 51343, Note_on_c, 0, 75, 0
2, 51360, Note_on_c, 0, 75, 89
2, 51367, Note_on_c, 0, 77, 72
2, 51373, Note_on_c, 0, 75, 0
2, 51375, Note_on_c, 0, 75, 80
2, 51380, Note_on_c, 0, 77, 0
2, 51388, Note_on_c, 0, 75, 0
2, 51390, Note_on_c, 0, 74, 76
2, 51403, Note_on_c, 0, 74, 0
2, 51403, Note_on_c, 0, 68, 0
2, 51420, Note_on_c, 0, 74, 80
2, 51420, Note_on_c, 0, 67, 89
2, 51427, Note_on_c, 0, 75, 72
2, 51433, Note_on_c, 0, 74, 0
2, 51435, Note_on_c, 0, 74, 72
2, 51440, Note_on_c, 0, 75, 0
2, 51448, Note_on_c, 0, 74, 0
2, 51450, Note_on_c, 0, 72, 98
2, 51463, Note_on_c, 0, 72, 0
2, 51480, Note_on_c, 0, 72, 76
2, 51480, Note_on_c, 0, 65, 85
2, 51487, Note_on_c, 0, 74, 57
2, 51489, Note_on_c, 0, 67, 0
2, 51495, Note_on_c, 0, 72, 45
2, 51500, Note_on_c, 0, 74, 0
2, 51508, Note_on_c, 0, 72, 0
2, 51509, Note_on_c, 0, 72, 0
2, 51510, Note_on_c, 0, 70, 76
2, 51523, Note_on_c, 0, 70, 0
2, 51540, Note_on_c, 0, 70, 80
2, 51547, Note_on_c, 0, 72, 76
2, 51553, Note_on_c, 0, 70, 0
2, 51555, Note_on_c, 0, 70, 62
2, 51560, Note_on_c, 0, 72, 0
2, 51568, Note_on_c, 0, 70, 0
2, 51570, Note_on_c, 0, 68, 80
2, 51583, Note_on_c, 0, 68, 0
2, 51595, Note_on_c, 0, 65, 0
2, 51600, Note_on_c, 0, 67, 98
2, 51600, Note_on_c, 0, 63, 80
2, 51629, Note_on_c, 0, 67, 0
2, 51630, Note_on_c, 0, 75, 64
2, 51659, Note_on_c, 0, 75, 0
2, 51660, Note_on_c, 0, 63, 0
2, 51660, Note_on_c, 0, 74, 72
2, 51660, Note_on_c, 0, 66, 62
2, 51689, Note_on_c, 0, 74, 0
2, 51690, Note_on_c, 0, 72, 80
2, 51703, Note_on_c, 0, 72, 0
2, 51708, Note_on_c, 0, 66, 0
2, 51720, Note_on_c, 0, 72, 76
2, 51720, Note_on_c, 0, 67, 80
2, 51749, Note_on_c, 0, 72, 0
2, 51750, Note_on_c, 0, 70, 52
2, 51780, Note_on_c, 0, 68, 76
2, 51793, Note_on_c, 0, 70, 0
2, 51793, Note_on_c, 0, 67, 0
2, 51809, Note_on_c, 0, 68, 0
2, 51810, Note_on_c, 0, 67, 76
2, 51839, Note_on_c, 0, 67, 0
2, 51840, Note_on_c, 0, 65, 64
2, 51840, Note_on_c, 0, 62, 76
2, 51869, Note_on_c, 0, 65, 0
2, 51870, Note_on_c, 0, 68, 76
2, 51883, Note_on_c, 0, 68, 0
2, 51885, Note_on_c, 0, 67, 80
2, 51898, Note_on_c, 0, 67, 0
2, 51900, Note_on_c, 0, 70, 64
2, 51909, Note_on_c, 0, 62, 0
2, 51913, Note_on_c, 0, 70, 0
2, 51915, Note_on_c, 0, 68, 52
2, 51928, Note_on_c, 0, 68, 0
2, 51930, Note_on_c, 0, 72, 64
2, 51945, Note_on_c, 0, 70, 53
2, 51958, Note_on_c, 0, 70, 0
2, 51959, Note_on_c, 0, 72, 0
2, 51960, Note_on_c, 0, 70, 68
2, 51960, Note_on_c, 0, 62, 80
2, 52074, Note_on_c, 0, 70, 0
2, 52078, Note_on_c, 0, 62, 0
2, 52080, Note_on_c, 0, 63, 72
2, 52080, Note_on_c, 0, 63, 72
2, 52121, Note_on_c, 0, 63, 0
2, 52123, Note_on_c, 0, 63, 0
2, 52200, Note_on_c, 0, 69, 76
2, 52200, Note_on_c, 0, 66, 72
2, 52200, Note_on_c, 0, 69, 76
2, 52229, Note_on_c, 0, 69, 0
2, 52230, Note_on_c, 0, 72, 72
2, 52259, Note_on_c, 0, 72, 0
2, 52260, Note_on_c, 0, 75, 68
2, 52289, Note_on_c, 0, 75, 0
2, 52290, Note_on_c, 0, 78, 64
2, 52315, Note_on_c, 0, 66, 0
2, 52317, Note_on_c, 0, 69, 0
2, 52319, Note_on_c, 0, 78, 0
2, 52320, Note_on_c, 0, 77, 85
2, 52320, Note_on_c, 0, 65, 60
2, 52320, Note_on_c, 0, 70, 62
2, 52349, Note_on_c, 0, 77, 0
2, 52350, Note_on_c, 0, 79, 76
2, 52379, Note_on_c, 0, 79, 0
2, 52380, Note_on_c, 0, 80, 72
2, 52391, Note_on_c, 0, 70, 0
2, 52395, Note_on_c, 0, 65, 0
2, 52409, Note_on_c, 0, 80, 0
2, 52410, Note_on_c, 0, 81, 60
2, 52439, Note_on_c, 0, 81, 0
2, 52440, Note_on_c, 0, 84, 80
2, 52470, Note_on_c, 0, 82, 62
2, 52483, Note_on_c, 0, 84, 0
2, 52499, Note_on_c, 0, 82, 0
2, 52500, Note_on_c, 0, 81, 64
2, 52529, Note_on_c, 0, 81, 0
2, 52530, Note_on_c, 0, 82, 72
2, 52543, Note_on_c, 0, 82, 0
2, 52560, Note_on_c, 0, 67, 68
2, 52560, Note_on_c, 0, 64, 80
2, 52560, Note_on_c, 0, 67, 85
2, 52590, Note_on_c, 0, 70, 62
2, 52603, Note_on_c, 0, 67, 0
2, 52620, Note_on_c, 0, 73, 72
2, 52633, Note_on_c, 0, 70, 0
2, 52649, Note_on_c, 0, 73, 0
2, 52650, Note_on_c, 0, 77, 72
2, 52665, Note_on_c, 0, 64, 0
2, 52668, Note_on_c, 0, 67, 0
2, 52679, Note_on_c, 0, 77, 0
2, 52680, Note_on_c, 0, 75, 76
2, 52680, Note_on_c, 0, 68, 76
2, 52680, Note_on_c, 0, 63, 60
2, 52709, Note_on_c, 0, 75, 0
2, 52710, Note_on_c, 0, 77, 60
2, 52739, Note_on_c, 0, 77, 0
2, 52740, Note_on_c, 0, 78, 76
2, 52747, Note_on_c, 0, 63, 0
2, 52752, Note_on_c, 0, 68, 0
2, 52769, Note_on_c, 0, 78, 0
2, 52770, Note_on_c, 0, 79, 64
2, 52799, Note_on_c, 0, 79, 0
2, 52800, Note_on_c, 0, 82, 76
2, 52829, Note_on_c, 0, 82, 0
2, 52830, Note_on_c, 0, 80, 68
2, 52859, Note_on_c, 0, 80, 0
2, 52860, Note_on_c, 0, 79, 64
2, 52889, Note_on_c, 0, 79, 0
2, 52890, Note_on_c, 0, 80, 72
2, 52903, Note_on_c, 0, 80, 0
2, 52920, Note_on_c, 0, 68, 89
2, 52920, Note_on_c, 0, 68, 76
2, 52920, Note_on_c, 0, 63, 72
2, 52949, Note_on_c, 0, 68, 0
2, 52950, Note_on_c, 0, 71, 80
2, 52979, Note_on_c, 0, 71, 0
2, 52980, Note_on_c, 0, 75, 68
2, 52997, Note_on_c, 0, 68, 0
2, 53005, Note_on_c, 0, 63, 0
2, 53009, Note_on_c, 0, 75, 0
2, 53010, Note_on_c, 0, 80, 72
2, 53039, Note_on_c, 0, 80, 0
2, 53040, Note_on_c, 0, 74, 85
2, 53040, Note_on_c, 0, 68, 62
2, 53040, Note_on_c, 0, 62, 76
2, 53040, Note_on_c, 0, 65, 76
2, 53040, Note_on_c, 0, 71, 64
2, 53067, Note_on_c, 0, 68, 0
2, 53069, Note_on_c, 0, 65, 0
2, 53069, Note_on_c, 0, 74, 0
2, 53070, Note_on_c, 0, 77, 76
2, 53073, Note_on_c, 0, 62, 0
2, 53073, Note_on_c, 0, 71, 0
2, 53099, Note_on_c, 0, 77, 0
2, 53100, Note_on_c, 0, 80, 62
2, 53100, Note_on_c, 0, 68, 60
2, 53100, Note_on_c, 0, 62, 60
2, 53100, Note_on_c, 0, 71, 60
2, 53100, Note_on_c, 0, 65, 76
2, 53129, Note_on_c, 0, 80, 0
2, 53130, Note_on_c, 0, 83, 68
2, 53131, Note_on_c, 0, 65, 0
2, 53132, Note_on_c, 0, 68, 0
2, 53132, Note_on_c, 0, 62, 0
2, 53135, Note_on_c, 0, 71, 0
2, 53159, Note_on_c, 0, 83, 0
2, 53160, Note_on_c, 0, 82, 72
2, 53160, Note_on_c, 0, 68, 62
2, 53160, Note_on_c, 0, 62, 60
2, 53160, Note_on_c, 0, 71, 68
2, 53160, Note_on_c, 0, 65, 76
2, 53189, Note_on_c, 0, 82, 0
2, 53190, Note_on_c, 0, 80, 72
2, 53196, Note_on_c, 0, 65, 0
2, 53197, Note_on_c, 0, 71, 0
2, 53197, Note_on_c, 0, 68, 0
2, 53198, Note_on_c, 0, 62, 0
2, 53219, Note_on_c, 0, 80, 0
2, 53220, Note_on_c, 0, 79, 72
2, 53220, Note_on_c, 0, 68, 62
2, 53220, Note_on_c, 0, 62, 64
2, 53220, Note_on_c, 0, 71, 76
2, 53220, Note_on_c, 0, 65, 76
2, 53248, Note_on_c, 0, 65, 0
2, 53248, Note_on_c, 0, 62, 0
2, 53249, Note_on_c, 0, 79, 0
2, 53249, Note_on_c, 0, 68, 0
2, 53249, Note_on_c, 0, 71, 0
2, 53250, Note_on_c, 0, 77, 64
2, 53279, Note_on_c, 0, 77, 0
2, 53280, Note_on_c, 0, 75, 62
2, 53280, Note_on_c, 0, 68, 60
2, 53280, Note_on_c, 0, 62, 72
2, 53280, Note_on_c, 0, 71, 64
2, 53280, Note_on_c, 0, 65, 80
2, 53309, Note_on_c, 0, 65, 0
2, 53309, Note_on_c, 0, 75, 0
2, 53310, Note_on_c, 0, 74, 56
2, 53311, Note_on_c, 0, 68, 0
2, 53313, Note_on_c, 0, 71, 0
2, 53313, Note_on_c, 0, 62, 0
2, 53339, Note_on_c, 0, 74, 0
2, 53340, Note_on_c, 0, 83, 80
2, 53340, Note_on_c, 0, 71, 72
2, 53340, Note_on_c, 0, 68, 68
2, 53340, Note_on_c, 0, 62, 76
2, 53340, Note_on_c, 0, 65, 80
2, 53365, Note_on_c, 0, 68, 0
2, 53365, Note_on_c, 0, 71, 0
2, 53369, Note_on_c, 0, 83, 0
2, 53369, Note_on_c, 0, 62, 0
2, 53369, Note_on_c, 0, 65, 0
2, 53370, Note_on_c, 0, 74, 62
2, 53383, Note_on_c, 0, 74, 0
2, 53400, Note_on_c, 0, 74, 56
2, 53400, Note_on_c, 0, 70, 80
2, 53400, Note_on_c, 0, 67, 76
2, 53400, Note_on_c, 0, 63, 62
2, 53429, Note_on_c, 0, 74, 0
2, 53430, Note_on_c, 0, 75, 64
2, 53456, Note_on_c, 0, 67, 0
2, 53457, Note_on_c, 0, 63, 0
2, 53458, Note_on_c, 0, 70, 0
2, 53459, Note_on_c, 0, 75, 0
2, 53460, Note_on_c, 0, 77, 76
2, 53489, Note_on_c, 0, 77, 0
2, 53490, Note_on_c, 0, 75, 72
2, 53503, Note_on_c, 0, 75, 0
2, 53520, Note_on_c, 0, 75, 89
2, 53520, Note_on_c, 0, 70, 76
2, 53520, Note_on_c, 0, 63, 64
2, 53520, Note_on_c, 0, 67, 85
2, 53533, Note_on_c, 0, 75, 0
2, 53550, Note_on_c, 0, 75, 55
2, 53563, Note_on_c, 0, 75, 0
2, 53570, Note_on_c, 0, 67, 0
2, 53571, Note_on_c, 0, 63, 0
2, 53578, Note_on_c, 0, 70, 0
2, 53580, Note_on_c, 0, 77, 56
2, 53609, Note_on_c, 0, 77, 0
2, 53610, Note_on_c, 0, 79, 72
2, 53639, Note_on_c, 0, 79, 0
2, 53640, Note_on_c, 0, 80, 76
2, 53669, Note_on_c, 0, 80, 0
2, 53670, Note_on_c, 0, 81, 76
2, 53699, Note_on_c, 0, 81, 0
2, 53700, Note_on_c, 0, 82, 62
2, 53729, Note_on_c, 0, 82, 0
2, 53730, Note_on_c, 0, 83, 59
2, 53759, Note_on_c, 0, 83, 0
2, 53760, Note_on_c, 0, 84, 80
2, 53760, Note_on_c, 0, 75, 85
2, 53789, Note_on_c, 0, 75, 0
2, 53790, Note_on_c, 0, 74, 72
2, 53820, Note_on_c, 0, 77, 72
2, 53822, Note_on_c, 0, 74, 0
2, 53850, Note_on_c, 0, 77, 0
2, 53850, Note_on_c, 0, 75, 72
2, 53874, Note_on_c, 0, 84, 0
2, 53880, Note_on_c, 0, 75, 0
2, 53880, Note_on_c, 0, 82, 80
2, 53880, Note_on_c, 0, 73, 72
2, 53909, Note_on_c, 0, 73, 0
2, 53910, Note_on_c, 0, 72, 72
2, 53940, Note_on_c, 0, 75, 62
2, 53942, Note_on_c, 0, 72, 0
2, 53970, Note_on_c, 0, 73, 62
2, 53974, Note_on_c, 0, 75, 0
2, 53994, Note_on_c, 0, 82, 0
2, 53999, Note_on_c, 0, 73, 0
2, 54000, Note_on_c, 0, 80, 80
2, 54000, Note_on_c, 0, 72, 68
2, 54030, Note_on_c, 0, 72, 0
2, 54030, Note_on_c, 0, 71, 59
2, 54060, Note_on_c, 0, 71, 0
2, 54060, Note_on_c, 0, 73, 64
2, 54090, Note_on_c, 0, 72, 72
2, 54093, Note_on_c, 0, 73, 0
2, 54114, Note_on_c, 0, 80, 0
2, 54120, Note_on_c, 0, 72, 0
2, 54120, Note_on_c, 0, 79, 80
2, 54120, Note_on_c, 0, 70, 76
2, 54149, Note_on_c, 0, 70, 0
2, 54150, Note_on_c, 0, 72, 68
2, 54180, Note_on_c, 0, 72, 0
2, 54180, Note_on_c, 0, 73, 76
2, 54209, Note_on_c, 0, 73, 0
2, 54210, Note_on_c, 0, 74, 85
2, 54234, Note_on_c, 0, 79, 0
2, 54239, Note_on_c, 0, 74, 0
2, 54240, Note_on_c, 0, 85, 93
2, 54240, Note_on_c, 0, 75, 76
2, 54268, Note_on_c, 0, 75, 0
2, 54270, Note_on_c, 0, 77, 51
2, 54300, Note_on_c, 0, 78, 72
2, 54304, Note_on_c, 0, 77, 0
2, 54328, Note_on_c, 0, 78, 0
2, 54330, Note_on_c, 0, 79, 64
2, 54354, Note_on_c, 0, 85, 0
2, 54360, Note_on_c, 0, 84, 76
2, 54360, Note_on_c, 0, 82, 85
2, 54361, Note_on_c, 0, 79, 0
2, 54389, Note_on_c, 0, 82, 0
2, 54390, Note_on_c, 0, 80, 76
2, 54416, Note_on_c, 0, 80, 0
2, 54420, Note_on_c, 0, 79, 64
2, 54449, Note_on_c, 0, 79, 0
2, 54450, Note_on_c, 0, 80, 76
2, 54462, Note_on_c, 0, 80, 0
2, 54474, Note_on_c, 0, 84, 0
2, 54480, Note_on_c, 0, 83, 85
2, 54480, Note_on_c, 0, 68, 89
2, 54509, Note_on_c, 0, 68, 0
2, 54510, Note_on_c, 0, 67, 68
2, 54539, Note_on_c, 0, 67, 0
2, 54540, Note_on_c, 0, 68, 80
2, 54550, Note_on_c, 0, 68, 0
2, 54570, Note_on_c, 0, 68, 80
2, 54581, Note_on_c, 0, 68, 0
2, 54600, Note_on_c, 0, 82, 85
2, 54600, Note_on_c, 0, 70, 72
2, 54608, Note_on_c, 0, 83, 0
2, 54629, Note_on_c, 0, 70, 0
2, 54630, Note_on_c, 0, 69, 76
2, 54660, Note_on_c, 0, 69, 0
2, 54660, Note_on_c, 0, 70, 76
2, 54672, Note_on_c, 0, 70, 0
2, 54690, Note_on_c, 0, 70, 76
2, 54700, Note_on_c, 0, 70, 0
2, 54714, Note_on_c, 0, 82, 0
2, 54720, Note_on_c, 0, 80, 80
2, 54720, Note_on_c, 0, 71, 68
2, 54749, Note_on_c, 0, 71, 0
2, 54750, Note_on_c, 0, 70, 68
2, 54774, Note_on_c, 0, 70, 0
2, 54780, Note_on_c, 0, 71, 89
2, 54791, Note_on_c, 0, 71, 0
2, 54810, Note_on_c, 0, 71, 80
2, 54820, Note_on_c, 0, 71, 0
2, 54834, Note_on_c, 0, 80, 0
2, 54840, Note_on_c, 0, 80, 89
2, 54840, Note_on_c, 0, 72, 80
2, 54868, Note_on_c, 0, 72, 0
2, 54870, Note_on_c, 0, 73, 76
2, 54898, Note_on_c, 0, 73, 0
2, 54900, Note_on_c, 0, 75, 72
2, 54928, Note_on_c, 0, 75, 0
2, 54930, Note_on_c, 0, 72, 76
2, 54951, Note_on_c, 0, 72, 0
2, 54954, Note_on_c, 0, 80, 0
2, 54960, Note_on_c, 0, 79, 72
2, 54960, Note_on_c, 0, 70, 53
2, 54990, Note_on_c, 0, 70, 0
2, 54990, Note_on_c, 0, 74, 76
2, 55017, Note_on_c, 0, 79, 0
2, 55020, Note_on_c, 0, 75, 76
2, 55022, Note_on_c, 0, 74, 0
2, 55046, Note_on_c, 0, 75, 0
2, 55050, Note_on_c, 0, 74, 89
2, 55079, Note_on_c, 0, 74, 0
2, 55080, Note_on_c, 0, 75, 72
2, 55110, Note_on_c, 0, 73, 68
2, 55111, Note_on_c, 0, 75, 0
2, 55139, Note_on_c, 0, 73, 0
2, 55140, Note_on_c, 0, 72, 85
2, 55169, Note_on_c, 0, 72, 0
2, 55170, Note_on_c, 0, 70, 56
2, 55197, Note_on_c, 0, 70, 0
2, 55200, Note_on_c, 0, 85, 80
2, 55200, Note_on_c, 0, 69, 89
2, 55213, Note_on_c, 0, 85, 0
2, 55215, Note_on_c, 0, 84, 80
2, 55228, Note_on_c, 0, 84, 0
2, 55228, Note_on_c, 0, 69, 0
2, 55230, Note_on_c, 0, 85, 68
2, 55230, Note_on_c, 0, 78, 72
2, 55243, Note_on_c, 0, 85, 0
2, 55245, Note_on_c, 0, 84, 80
2, 55258, Note_on_c, 0, 84, 0
2, 55260, Note_on_c, 0, 78, 0
2, 55260, Note_on_c, 0, 85, 76
2, 55260, Note_on_c, 0, 77, 80
2, 55273, Note_on_c, 0, 85, 0
2, 55275, Note_on_c, 0, 84, 64
2, 55288, Note_on_c, 0, 84, 0
2, 55290, Note_on_c, 0, 82, 62
2, 55290, Note_on_c, 0, 75, 76
2, 55292, Note_on_c, 0, 77, 0
2, 55303, Note_on_c, 0, 82, 0
2, 55305, Note_on_c, 0, 84, 76
2, 55319, Note_on_c, 0, 84, 0
2, 55319, Note_on_c, 0, 75, 0
2, 55320, Note_on_c, 0, 85, 89
2, 55320, Note_on_c, 0, 73, 85
2, 55349, Note_on_c, 0, 73, 0
2, 55349, Note_on_c, 0, 85, 0
2, 55350, Note_on_c, 0, 71, 33
2, 55380, Note_on_c, 0, 76, 80
2, 55385, Note_on_c, 0, 71, 0
2, 55409, Note_on_c, 0, 76, 0
2, 55410, Note_on_c, 0, 75, 68
2, 55440, Note_on_c, 0, 73, 80
2, 55444, Note_on_c, 0, 75, 0
2, 55470, Note_on_c, 0, 71, 64
2, 55472, Note_on_c, 0, 73, 0
2, 55500, Note_on_c, 0, 70, 62
2, 55504, Note_on_c, 0, 71, 0
2, 55526, Note_on_c, 0, 70, 0
2, 55530, Note_on_c, 0, 68, 89
2, 55550, Note_on_c, 0, 68, 0
2, 55560, Note_on_c, 0, 84, 72
2, 55560, Note_on_c, 0, 67, 76
2, 55573, Note_on_c, 0, 84, 0
2, 55575, Note_on_c, 0, 82, 68
2, 55585, Note_on_c, 0, 67, 0
2, 55588, Note_on_c, 0, 82, 0
2, 55590, Note_on_c, 0, 84, 62
2, 55590, Note_on_c, 0, 76, 72
2, 55603, Note_on_c, 0, 84, 0
2, 55605, Note_on_c, 0, 82, 76
2, 55618, Note_on_c, 0, 82, 0
2, 55618, Note_on_c, 0, 76, 0
2, 55620, Note_on_c, 0, 84, 64
2, 55620, Note_on_c, 0, 75, 55
2, 55633, Note_on_c, 0, 84, 0
2, 55635, Note_on_c, 0, 82, 62
2, 55648, Note_on_c, 0, 82, 0
2, 55650, Note_on_c, 0, 80, 62
2, 55650, Note_on_c, 0, 73, 72
2, 55652, Note_on_c, 0, 75, 0
2, 55663, Note_on_c, 0, 80, 0
2, 55665, Note_on_c, 0, 82, 72
2, 55678, Note_on_c, 0, 82, 0
2, 55679, Note_on_c, 0, 73, 0
2, 55680, Note_on_c, 0, 84, 76
2, 55680, Note_on_c, 0, 72, 76
2, 55710, Note_on_c, 0, 72, 0
2, 55710, Note_on_c, 0, 73, 85
2, 55723, Note_on_c, 0, 84, 0
2, 55738, Note_on_c, 0, 73, 0
2, 55740, Note_on_c, 0, 80, 50
2, 55740, Note_on_c, 0, 75, 76
2, 55769, Note_on_c, 0, 75, 0
2, 55770, Note_on_c, 0, 76, 62
2, 55799, Note_on_c, 0, 76, 0
2, 55800, Note_on_c, 0, 77, 76
2, 55829, Note_on_c, 0, 77, 0
2, 55830, Note_on_c, 0, 72, 59
2, 55859, Note_on_c, 0, 72, 0
2, 55860, Note_on_c, 0, 77, 76
2, 55860, Note_on_c, 0, 73, 76
2, 55868, Note_on_c, 0, 80, 0
2, 55889, Note_on_c, 0, 73, 0
2, 55890, Note_on_c, 0, 65, 56
2, 55916, Note_on_c, 0, 65, 0
2, 55917, Note_on_c, 0, 77, 0
2, 55920, Note_on_c, 0, 75, 72
2, 55920, Note_on_c, 0, 68, 68
2, 55945, Note_on_c, 0, 68, 0
2, 55950, Note_on_c, 0, 67, 76
2, 55980, Note_on_c, 0, 67, 0
2, 55980, Note_on_c, 0, 68, 72
2, 56003, Note_on_c, 0, 68, 0
2, 56010, Note_on_c, 0, 66, 56
2, 56010, Note_on_c, 0, 69, 80
2, 56032, Note_on_c, 0, 66, 0
2, 56039, Note_on_c, 0, 69, 0
2, 56040, Note_on_c, 0, 70, 76
2, 56040, Note_on_c, 0, 67, 60
2, 56066, Note_on_c, 0, 70, 0
2, 56068, Note_on_c, 0, 67, 0
2, 56070, Note_on_c, 0, 66, 46
2, 56070, Note_on_c, 0, 69, 64
2, 56099, Note_on_c, 0, 69, 0
2, 56099, Note_on_c, 0, 66, 0
2, 56100, Note_on_c, 0, 67, 62
2, 56100, Note_on_c, 0, 70, 76
2, 56114, Note_on_c, 0, 67, 0
2, 56122, Note_on_c, 0, 70, 0
2, 56130, Note_on_c, 0, 68, 76
2, 56130, Note_on_c, 0, 72, 57
2, 56144, Note_on_c, 0, 68, 0
2, 56145, Note_on_c, 0, 72, 0
2, 56160, Note_on_c, 0, 73, 89
2, 56160, Note_on_c, 0, 70, 26
2, 56190, Note_on_c, 0, 85, 76
2, 56196, Note_on_c, 0, 70, 0
2, 56205, Note_on_c, 0, 75, 0
2, 56211, Note_on_c, 0, 73, 0
2, 56219, Note_on_c, 0, 85, 0
2, 56220, Note_on_c, 0, 84, 76
2, 56233, Note_on_c, 0, 84, 0
2, 56235, Note_on_c, 0, 82, 64
2, 56248, Note_on_c, 0, 82, 0
2, 56250, Note_on_c, 0, 80, 62
2, 56263, Note_on_c, 0, 80, 0
2, 56265, Note_on_c, 0, 79, 80
2, 56278, Note_on_c, 0, 79, 0
2, 56280, Note_on_c, 0, 82, 64
2, 56280, Note_on_c, 0, 78, 62
2, 56280, Note_on_c, 0, 75, 60
2, 56394, Note_on_c, 0, 82, 0
2, 56397, Note_on_c, 0, 78, 0
2, 56400, Note_on_c, 0, 80, 76
2, 56400, Note_on_c, 0, 80, 76
2, 56442, Note_on_c, 0, 75, 0
2, 56449, Note_on_c, 0, 80, 0
2, 56457, Note_on_c, 0, 80, 0
2, 56520, Note_on_c, 0, 84, 85
2, 56606, Note_on_c, 0, 84, 0
2, 56610, Note_on_c, 0, 82, 80
2, 56623, Note_on_c, 0, 82, 0
2, 56640, Note_on_c, 0, 82, 85
2, 56670, Note_on_c, 0, 79, 89
2, 56697, Note_on_c, 0, 82, 0
2, 56700, Note_on_c, 0, 79, 0
2, 56700, Note_on_c, 0, 77, 76
2, 56729, Note_on_c, 0, 77, 0
2, 56730, Note_on_c, 0, 79, 72
2, 56758, Note_on_c, 0, 79, 0
2, 56760, Note_on_c, 0, 82, 98
2, 56760, Note_on_c, 0, 80, 68
2, 56785, Note_on_c, 0, 80, 0
2, 56790, Note_on_c, 0, 79, 72
2, 56820, Note_on_c, 0, 79, 0
2, 56820, Note_on_c, 0, 77, 80
2, 56850, Note_on_c, 0, 75, 72
2, 56851, Note_on_c, 0, 77, 0
2, 56879, Note_on_c, 0, 75, 0
2, 56880, Note_on_c, 0, 74, 76
2, 56910, Note_on_c, 0, 72, 72
2, 56912, Note_on_c, 0, 74, 0
2, 56931, Note_on_c, 0, 82, 0
2, 56940, Note_on_c, 0, 82, 60
2, 56940, Note_on_c, 0, 70, 72
2, 56942, Note_on_c, 0, 72, 0
2, 56970, Note_on_c, 0, 70, 0
2, 56970, Note_on_c, 0, 68, 64
2, 56991, Note_on_c, 0, 68, 0
2, 56997, Note_on_c, 0, 82, 0
2, 57000, Note_on_c, 0, 84, 93
2, 57030, Note_on_c, 0, 79, 85
2, 57060, Note_on_c, 0, 79, 0
2, 57060, Note_on_c, 0, 77, 62
2, 57086, Note_on_c, 0, 84, 0
2, 57087, Note_on_c, 0, 77, 0
2, 57090, Note_on_c, 0, 82, 80
2, 57090, Note_on_c, 0, 79, 80
2, 57103, Note_on_c, 0, 82, 0
2, 57119, Note_on_c, 0, 79, 0
2, 57120, Note_on_c, 0, 82, 72
2, 57120, Note_on_c, 0, 80, 72
2, 57147, Note_on_c, 0, 80, 0
2, 57150, Note_on_c, 0, 79, 64
2, 57180, Note_on_c, 0, 77, 72
2, 57183, Note_on_c, 0, 79, 0
2, 57210, Note_on_c, 0, 75, 64
2, 57211, Note_on_c, 0, 77, 0
2, 57238, Note_on_c, 0, 75, 0
2, 57240, Note_on_c, 0, 74, 76
2, 57269, Note_on_c, 0, 74, 0
2, 57270, Note_on_c, 0, 72, 62
2, 57291, Note_on_c, 0, 82, 0
2, 57300, Note_on_c, 0, 72, 0
2, 57300, Note_on_c, 0, 82, 62
2, 57300, Note_on_c, 0, 70, 59
2, 57329, Note_on_c, 0, 70, 0
2, 57330, Note_on_c, 0, 68, 72
2, 57340, Note_on_c, 0, 68, 0
2, 57357, Note_on_c, 0, 82, 0
2, 57360, Note_on_c, 0, 82, 68
2, 57360, Note_on_c, 0, 75, 72
2, 57360, Note_on_c, 0, 79, 76
2, 57387, Note_on_c, 0, 79, 0
2, 57389, Note_on_c, 0, 82, 0
2, 57390, Note_on_c, 0, 81, 76
2, 57390, Note_on_c, 0, 78, 51
2, 57419, Note_on_c, 0, 81, 0
2, 57420, Note_on_c, 0, 82, 72
2, 57420, Note_on_c, 0, 79, 62
2, 57421, Note_on_c, 0, 78, 0
2, 57448, Note_on_c, 0, 79, 0
2, 57449, Note_on_c, 0, 82, 0
2, 57450, Note_on_c, 0, 81, 76
2, 57450, Note_on_c, 0, 78, 72
2, 57478, Note_on_c, 0, 78, 0
2, 57479, Note_on_c, 0, 81, 0
2, 57480, Note_on_c, 0, 82, 76
2, 57480, Note_on_c, 0, 79, 76
2, 57509, Note_on_c, 0, 79, 0
2, 57509, Note_on_c, 0, 82, 0
2, 57510, Note_on_c, 0, 81, 80
2, 57510, Note_on_c, 0, 78, 64
2, 57534, Note_on_c, 0, 78, 0
2, 57539, Note_on_c, 0, 81, 0
2, 57540, Note_on_c, 0, 82, 72
2, 57540, Note_on_c, 0, 79, 76
2, 57556, Note_on_c, 0, 79, 0
2, 57569, Note_on_c, 0, 82, 0
2, 57569, Note_on_c, 0, 75, 0
2, 57570, Note_on_c, 0, 83, 64
2, 57570, Note_on_c, 0, 79, 72
2, 57583, Note_on_c, 0, 79, 0
2, 57599, Note_on_c, 0, 83, 0
2, 57600, Note_on_c, 0, 84, 80
2, 57600, Note_on_c, 0, 74, 76
2, 57600, Note_on_c, 0, 80, 72
2, 57629, Note_on_c, 0, 84, 0
2, 57630, Note_on_c, 0, 80, 0
2, 57630, Note_on_c, 0, 83, 80
2, 57630, Note_on_c, 0, 79, 62
2, 57658, Note_on_c, 0, 79, 0
2, 57659, Note_on_c, 0, 83, 0
2, 57660, Note_on_c, 0, 84, 72
2, 57660, Note_on_c, 0, 80, 64
2, 57689, Note_on_c, 0, 84, 0
2, 57690, Note_on_c, 0, 80, 64
2, 57690, Note_on_c, 0, 77, 59
2, 57696, Note_on_c, 0, 80, 0
2, 57699, Note_on_c, 0, 77, 0
2, 57701, Note_on_c, 0, 74, 0
2, 57719, Note_on_c, 0, 80, 0
2, 57720, Note_on_c, 0, 82, 76
2, 57720, Note_on_c, 0, 74, 85
2, 57720, Note_on_c, 0, 77, 76
2, 57750, Note_on_c, 0, 80, 68
2, 57763, Note_on_c, 0, 82, 0
2, 57780, Note_on_c, 0, 79, 76
2, 57793, Note_on_c, 0, 80, 0
2, 57809, Note_on_c, 0, 79, 0
2, 57810, Note_on_c, 0, 80, 76
2, 57834, Note_on_c, 0, 74, 0
2, 57836, Note_on_c, 0, 77, 0
2, 57840, Note_on_c, 0, 79, 72
2, 57840, Note_on_c, 0, 75, 85
2, 57853, Note_on_c, 0, 80, 0
2, 57870, Note_on_c, 0, 80, 80
2, 57883, Note_on_c, 0, 79, 0
2, 57900, Note_on_c, 0, 82, 76
2, 57906, Note_on_c, 0, 75, 0
2, 57913, Note_on_c, 0, 80, 0
2, 57930, Note_on_c, 0, 83, 72
2, 57943, Note_on_c, 0, 82, 0
2, 57959, Note_on_c, 0, 83, 0
2, 57960, Note_on_c, 0, 84, 93
2, 57989, Note_on_c, 0, 84, 0
2, 57990, Note_on_c, 0, 79, 93
2, 58001, Note_on_c, 0, 79, 0
2, 58020, Note_on_c, 0, 82, 76
2, 58033, Note_on_c, 0, 82, 0
2, 58050, Note_on_c, 0, 77, 80
2, 58063, Note_on_c, 0, 77, 0
2, 58080, Note_on_c, 0, 82, 76
2, 58080, Note_on_c, 0, 75, 80
2, 58109, Note_on_c, 0, 82, 0
2, 58110, Note_on_c, 0, 81, 72
2, 58139, Note_on_c, 0, 81, 0
2, 58140, Note_on_c, 0, 84, 80
2, 58170, Note_on_c, 0, 82, 64
2, 58183, Note_on_c, 0, 84, 0
2, 58195, Note_on_c, 0, 75, 0
2, 58199, Note_on_c, 0, 82, 0
2, 58200, Note_on_c, 0, 80, 85
2, 58213, Note_on_c, 0, 80, 0
2, 58230, Note_on_c, 0, 75, 98
2, 58241, Note_on_c, 0, 75, 0
2, 58260, Note_on_c, 0, 79, 76
2, 58273, Note_on_c, 0, 79, 0
2, 58290, Note_on_c, 0, 74, 89
2, 58300, Note_on_c, 0, 74, 0
2, 58320, Note_on_c, 0, 77, 64
2, 58333, Note_on_c, 0, 77, 0
2, 58350, Note_on_c, 0, 72, 89
2, 58364, Note_on_c, 0, 72, 0
2, 58380, Note_on_c, 0, 75, 72
2, 58393, Note_on_c, 0, 75, 0
2, 58410, Note_on_c, 0, 70, 76
2, 58422, Note_on_c, 0, 70, 0
2, 58440, Note_on_c, 0, 75, 72
2, 58440, Note_on_c, 0, 68, 80
2, 58469, Note_on_c, 0, 75, 0
2, 58470, Note_on_c, 0, 74, 76
2, 58499, Note_on_c, 0, 74, 0
2, 58500, Note_on_c, 0, 77, 76
2, 58529, Note_on_c, 0, 77, 0
2, 58530, Note_on_c, 0, 75, 55
2, 58551, Note_on_c, 0, 68, 0
2, 58559, Note_on_c, 0, 75, 0
2, 58560, Note_on_c, 0, 74, 76
2, 58590, Note_on_c, 0, 68, 89
2, 58601, Note_on_c, 0, 68, 0
2, 58603, Note_on_c, 0, 74, 0
2, 58620, Note_on_c, 0, 72, 68
2, 58649, Note_on_c, 0, 72, 0
2, 58650, Note_on_c, 0, 67, 85
2, 58659, Note_on_c, 0, 67, 0
2, 58680, Note_on_c, 0, 70, 68
2, 58709, Note_on_c, 0, 70, 0
2, 58710, Note_on_c, 0, 65, 89
2, 58723, Note_on_c, 0, 65, 0
2, 58740, Note_on_c, 0, 68, 72
2, 58769, Note_on_c, 0, 68, 0
2, 58770, Note_on_c, 0, 65, 76
2, 58781, Note_on_c, 0, 65, 0
2, 58800, Note_on_c, 0, 67, 76
2, 58829, Note_on_c, 0, 67, 0
2, 58830, Note_on_c, 0, 63, 68
2, 58840, Note_on_c, 0, 63, 0
2, 58860, Note_on_c, 0, 72, 64
2, 58889, Note_on_c, 0, 72, 0
2, 58890, Note_on_c, 0, 66, 80
2, 58899, Note_on_c, 0, 66, 0
2, 58920, Note_on_c, 0, 70, 76
2, 58950, Note_on_c, 0, 76, 89
2, 58950, Note_on_c, 0, 73, 49
2, 58970, Note_on_c, 0, 73, 0
2, 58976, Note_on_c, 0, 76, 0
2, 58980, Note_on_c, 0, 77, 76
2, 58980, Note_on_c, 0, 74, 76
2, 59005, Note_on_c, 0, 74, 0
2, 59006, Note_on_c, 0, 77, 0
2, 59010, Note_on_c, 0, 79, 64
2, 59010, Note_on_c, 0, 76, 76
2, 59018, Note_on_c, 0, 76, 0
2, 59020, Note_on_c, 0, 79, 0
2, 59040, Note_on_c, 0, 77, 56
2, 59040, Note_on_c, 0, 80, 62
2, 59048, Note_on_c, 0, 70, 0
2, 59055, Note_on_c, 0, 75, 45
2, 59061, Note_on_c, 0, 75, 0
2, 59063, Note_on_c, 0, 77, 0
2, 59065, Note_on_c, 0, 80, 0
2, 59070, Note_on_c, 0, 79, 60
2, 59070, Note_on_c, 0, 76, 62
2, 59082, Note_on_c, 0, 76, 0
2, 59095, Note_on_c, 0, 79, 0
2, 59100, Note_on_c, 0, 80, 85
2, 59100, Note_on_c, 0, 77, 80
2, 59124, Note_on_c, 0, 77, 0
2, 59125, Note_on_c, 0, 80, 0
2, 59145, Note_on_c, 0, 74, 72
2, 59158, Note_on_c, 0, 74, 0
2, 59160, Note_on_c, 0, 77, 80
2, 59160, Note_on_c, 0, 68, 76
2, 59160, Note_on_c, 0, 70, 68
2, 59245, Note_on_c, 0, 68, 0
2, 59246, Note_on_c, 0, 77, 0
2, 59250, Note_on_c, 0, 79, 60
2, 59263, Note_on_c, 0, 79, 0
2, 59265, Note_on_c, 0, 77, 60
2, 59278, Note_on_c, 0, 77, 0
2, 59280, Note_on_c, 0, 75, 68
2, 59280, Note_on_c, 0, 70, 51
2, 59280, Note_on_c, 0, 67, 68
2, 59283, Note_on_c, 0, 70, 0
2, 59290, Note_on_c, 0, 67, 0
2, 59294, Note_on_c, 0, 70, 0
2, 59310, Note_on_c, 0, 75, 76
2, 59338, Note_on_c, 0, 75, 0
2, 59340, Note_on_c, 0, 78, 64
2, 59351, Note_on_c, 0, 75, 0
2, 59369, Note_on_c, 0, 78, 0
2, 59370, Note_on_c, 0, 77, 76
2, 59400, Note_on_c, 0, 75, 72
2, 59403, Note_on_c, 0, 77, 0
2, 59428, Note_on_c, 0, 75, 0
2, 59430, Note_on_c, 0, 73, 80
2, 59456, Note_on_c, 0, 73, 0
2, 59460, Note_on_c, 0, 72, 64
2, 59490, Note_on_c, 0, 70, 85
2, 59492, Note_on_c, 0, 72, 0
2, 59512, Note_on_c, 0, 70, 0
2, 59520, Note_on_c, 0, 69, 76
2, 59522, Note_on_c, 0, 77, 76
2, 59549, Note_on_c, 0, 69, 0
2, 59550, Note_on_c, 0, 70, 76
2, 59578, Note_on_c, 0, 70, 0
2, 59580, Note_on_c, 0, 72, 72
2, 59607, Note_on_c, 0, 72, 0
2, 59610, Note_on_c, 0, 69, 64
2, 59639, Note_on_c, 0, 69, 0
2, 59640, Note_on_c, 0, 70, 72
2, 59669, Note_on_c, 0, 70, 0
2, 59670, Note_on_c, 0, 73, 68
2, 59697, Note_on_c, 0, 73, 0
2, 59700, Note_on_c, 0, 77, 72
2, 59728, Note_on_c, 0, 77, 0
2, 59730, Note_on_c, 0, 75, 68
2, 59753, Note_on_c, 0, 77, 0
2, 59758, Note_on_c, 0, 82, 72
2, 59760, Note_on_c, 0, 75, 0
2, 59760, Note_on_c, 0, 73, 72
2, 59787, Note_on_c, 0, 73, 0
2, 59790, Note_on_c, 0, 72, 76
2, 59817, Note_on_c, 0, 82, 0
2, 59818, Note_on_c, 0, 72, 0
2, 59818, Note_on_c, 0, 85, 80
2, 59820, Note_on_c, 0, 70, 62
2, 59850, Note_on_c, 0, 70, 0
2, 59850, Note_on_c, 0, 68, 80
2, 59878, Note_on_c, 0, 68, 0
2, 59880, Note_on_c, 0, 67, 80
2, 59881, Note_on_c, 0, 85, 0
2, 59884, Note_on_c, 0, 75, 72
2, 59910, Note_on_c, 0, 68, 76
2, 59911, Note_on_c, 0, 67, 0
2, 59939, Note_on_c, 0, 68, 0
2, 59940, Note_on_c, 0, 70, 76
2, 59969, Note_on_c, 0, 70, 0
2, 59970, Note_on_c, 0, 67, 76
2, 59998, Note_on_c, 0, 67, 0
2, 60000, Note_on_c, 0, 68, 64
2, 60028, Note_on_c, 0, 68, 0
2, 60030, Note_on_c, 0, 72, 68
2, 60060, Note_on_c, 0, 72, 0
2, 60060, Note_on_c, 0, 75, 72
2, 60089, Note_on_c, 0, 75, 0
2, 60090, Note_on_c, 0, 73, 68
2, 60109, Note_on_c, 0, 75, 0
2, 60118, Note_on_c, 0, 80, 85
2, 60119, Note_on_c, 0, 73, 0
2, 60120, Note_on_c, 0, 72, 76
2, 60147, Note_on_c, 0, 72, 0
2, 60150, Note_on_c, 0, 70, 64
2, 60177, Note_on_c, 0, 70, 0
2, 60180, Note_on_c, 0, 80, 0
2, 60180, Note_on_c, 0, 68, 64
2, 60183, Note_on_c, 0, 84, 80
2, 60209, Note_on_c, 0, 68, 0
2, 60210, Note_on_c, 0, 67, 72
2, 60232, Note_on_c, 0, 67, 0
2, 60238, Note_on_c, 0, 84, 0
2, 60240, Note_on_c, 0, 65, 89
2, 60242, Note_on_c, 0, 74, 72
2, 60247, Note_on_c, 0, 67, 62
2, 60250, Note_on_c, 0, 65, 0
2, 60255, Note_on_c, 0, 67, 0
2, 60255, Note_on_c, 0, 65, 57
2, 60264, Note_on_c, 0, 65, 0
2, 60270, Note_on_c, 0, 64, 60
2, 60290, Note_on_c, 0, 74, 0
2, 60296, Note_on_c, 0, 64, 0
2, 60300, Note_on_c, 0, 65, 80
2, 60303, Note_on_c, 0, 74, 68
2, 60310, Note_on_c, 0, 65, 0
2, 60330, Note_on_c, 0, 65, 80
2, 60337, Note_on_c, 0, 65, 0
2, 60360, Note_on_c, 0, 65, 76
2, 60367, Note_on_c, 0, 67, 59
2, 60370, Note_on_c, 0, 65, 0
2, 60375, Note_on_c, 0, 65, 64
2, 60377, Note_on_c, 0, 67, 0
2, 60385, Note_on_c, 0, 65, 0
2, 60390, Note_on_c, 0, 64, 76
2, 60405, Note_on_c, 0, 74, 0
2, 60419, Note_on_c, 0, 64, 0
2, 60419, Note_on_c, 0, 74, 76
2, 60420, Note_on_c, 0, 65, 89
2, 60429, Note_on_c, 0, 65, 0
2, 60450, Note_on_c, 0, 65, 72
2, 60456, Note_on_c, 0, 65, 0
2, 60480, Note_on_c, 0, 65, 72
2, 60487, Note_on_c, 0, 67, 62
2, 60488, Note_on_c, 0, 65, 0
2, 60495, Note_on_c, 0, 67, 0
2, 60495, Note_on_c, 0, 65, 76
2, 60506, Note_on_c, 0, 65, 0
2, 60510, Note_on_c, 0, 64, 85
2, 60524, Note_on_c, 0, 74, 0
2, 60537, Note_on_c, 0, 64, 0
2, 60540, Note_on_c, 0, 74, 76
2, 60540, Note_on_c, 0, 65, 80
2, 60550, Note_on_c, 0, 65, 0
2, 60570, Note_on_c, 0, 65, 76
2, 60578, Note_on_c, 0, 65, 0
2, 60588, Note_on_c, 0, 74, 0
2, 60597, Note_on_c, 0, 75, 80
2, 60600, Note_on_c, 0, 63, 80
2, 60616, Note_on_c, 0, 75, 0
2, 60616, Note_on_c, 0, 77, 64
2, 60631, Note_on_c, 0, 75, 62
2, 60632, Note_on_c, 0, 77, 0
2, 60645, Note_on_c, 0, 75, 0
2, 60645, Note_on_c, 0, 74, 62
2, 60657, Note_on_c, 0, 63, 0
2, 60660, Note_on_c, 0, 74, 0
2, 60660, Note_on_c, 0, 67, 89
2, 60662, Note_on_c, 0, 75, 68
2, 60672, Note_on_c, 0, 75, 0
2, 60693, Note_on_c, 0, 75, 62
2, 60702, Note_on_c, 0, 75, 0
2, 60718, Note_on_c, 0, 67, 0
2, 60723, Note_on_c, 0, 75, 62
2, 60737, Note_on_c, 0, 77, 76
2, 60738, Note_on_c, 0, 75, 0
2, 60751, Note_on_c, 0, 77, 0
2, 60751, Note_on_c, 0, 75, 60
2, 60764, Note_on_c, 0, 75, 0
2, 60765, Note_on_c, 0, 74, 62
2, 60778, Note_on_c, 0, 74, 0
2, 60780, Note_on_c, 0, 74, 85
2, 60781, Note_on_c, 0, 75, 64
2, 60790, Note_on_c, 0, 75, 0
2, 60811, Note_on_c, 0, 75, 64
2, 60819, Note_on_c, 0, 75, 0
2, 60836, Note_on_c, 0, 74, 0
2, 60843, Note_on_c, 0, 75, 72
2, 60856, Note_on_c, 0, 75, 0
2, 60856, Note_on_c, 0, 77, 57
2, 60870, Note_on_c, 0, 77, 0
2, 60870, Note_on_c, 0, 75, 56
2, 60881, Note_on_c, 0, 75, 0
2, 60883, Note_on_c, 0, 74, 64
2, 60895, Note_on_c, 0, 74, 0
2, 60899, Note_on_c, 0, 75, 80
2, 60900, Note_on_c, 0, 73, 89
2, 60908, Note_on_c, 0, 75, 0
2, 60931, Note_on_c, 0, 75, 72
2, 60938, Note_on_c, 0, 75, 0
2, 60949, Note_on_c, 0, 73, 0
2, 60960, Note_on_c, 0, 68, 64
2, 60960, Note_on_c, 0, 72, 89
2, 60962, Note_on_c, 0, 80, 72
2, 60962, Note_on_c, 0, 75, 64
2, 60963, Note_on_c, 0, 84, 68
2, 61068, Note_on_c, 0, 68, 0
2, 61070, Note_on_c, 0, 72, 0
2, 61071, Note_on_c, 0, 84, 0
2, 61074, Note_on_c, 0, 80, 0
2, 61079, Note_on_c, 0, 79, 93
2, 61079, Note_on_c, 0, 82, 57
2, 61080, Note_on_c, 0, 73, 68
2, 61080, Note_on_c, 0, 67, 80
2, 61080, Note_on_c, 0, 70, 80
2, 61178, Note_on_c, 0, 67, 0
2, 61185, Note_on_c, 0, 70, 0
2, 61188, Note_on_c, 0, 73, 0
2, 61190, Note_on_c, 0, 82, 0
2, 61192, Note_on_c, 0, 79, 0
2, 61196, Note_on_c, 0, 80, 72
2, 61200, Note_on_c, 0, 72, 76
2, 61200, Note_on_c, 0, 68, 62
2, 61307, Note_on_c, 0, 68, 0
2, 61312, Note_on_c, 0, 72, 0
2, 61316, Note_on_c, 0, 80, 0
2, 61320, Note_on_c, 0, 67, 76
2, 61320, Note_on_c, 0, 70, 76
2, 61321, Note_on_c, 0, 79, 80
2, 61404, Note_on_c, 0, 75, 0
2, 61421, Note_on_c, 0, 79, 0
2, 61439, Note_on_c, 0, 67, 0
2, 61440, Note_on_c, 0, 75, 80
2, 61441, Note_on_c, 0, 70, 0
2, 61441, Note_on_c, 0, 82, 72
2, 61441, Note_on_c, 0, 85, 72
2, 61551, Note_on_c, 0, 82, 0
2, 61552, Note_on_c, 0, 85, 0
2, 61558, Note_on_c, 0, 84, 59
2, 61559, Note_on_c, 0, 80, 76
2, 61623, Note_on_c, 0, 80, 0
2, 61625, Note_on_c, 0, 84, 0
2, 61641, Note_on_c, 0, 75, 0
2, 61650, Note_on_c, 0, 76, 89
2, 61679, Note_on_c, 0, 76, 0
2, 61679, Note_on_c, 0, 84, 80
2, 61680, Note_on_c, 0, 77, 85
2, 61799, Note_on_c, 0, 84, 0
2, 61800, Note_on_c, 0, 82, 80
2, 61919, Note_on_c, 0, 82, 0
2, 61922, Note_on_c, 0, 80, 85
2, 61938, Note_on_c, 0, 77, 0
2, 61950, Note_on_c, 0, 75, 72
2, 61980, Note_on_c, 0, 75, 0
2, 61980, Note_on_c, 0, 74, 80
2, 62009, Note_on_c, 0, 74, 0
2, 62010, Note_on_c, 0, 77, 72
2, 62040, Note_on_c, 0, 75, 76
2, 62042, Note_on_c, 0, 77, 0
2, 62126, Note_on_c, 0, 80, 0
2, 62130, Note_on_c, 0, 82, 64
2, 62141, Note_on_c, 0, 82, 0
2, 62145, Note_on_c, 0, 80, 80
2, 62156, Note_on_c, 0, 80, 0
2, 62160, Note_on_c, 0, 79, 64
2, 62202, Note_on_c, 0, 75, 0
2, 62225, Note_on_c, 0, 79, 0
2, 62400, Note_on_c, 0, 77, 76
2, 62400, Note_on_c, 0, 75, 76
2, 62485, Note_on_c, 0, 77, 0
2, 62490, Note_on_c, 0, 79, 85
2, 62496, Note_on_c, 0, 79, 0
2, 62497, Note_on_c, 0, 81, 80
2, 62503, Note_on_c, 0, 81, 0
2, 62504, Note_on_c, 0, 82, 68
2, 62510, Note_on_c, 0, 82, 0
2, 62511, Note_on_c, 0, 84, 80
2, 62513, Note_on_c, 0, 75, 0
2, 62517, Note_on_c, 0, 84, 0
2, 62518, Note_on_c, 0, 85, 80
2, 62520, Note_on_c, 0, 73, 76
2, 62574, Note_on_c, 0, 85, 0
2, 62578, Note_on_c, 0, 73, 0
2, 62760, Note_on_c, 0, 75, 70
2, 62760, Note_on_c, 0, 73, 76
2, 62845, Note_on_c, 0, 75, 0
2, 62850, Note_on_c, 0, 77, 80
2, 62856, Note_on_c, 0, 77, 0
2, 62857, Note_on_c, 0, 79, 80
2, 62863, Note_on_c, 0, 79, 0
2, 62864, Note_on_c, 0, 80, 72
2, 62870, Note_on_c, 0, 80, 0
2, 62871, Note_on_c, 0, 82, 64
2, 62872, Note_on_c, 0, 73, 0
2, 62877, Note_on_c, 0, 82, 0
2, 62878, Note_on_c, 0, 84, 76
2, 62880, Note_on_c, 0, 72, 68
2, 62934, Note_on_c, 0, 84, 0
2, 62938, Note_on_c, 0, 72, 0
2, 63090, Note_on_c, 0, 84, 80
2, 63090, Note_on_c, 0, 72, 80
2, 63097, Note_on_c, 0, 72, 0
2, 63097, Note_on_c, 0, 84, 0
2, 63120, Note_on_c, 0, 72, 76
2, 63123, Note_on_c, 0, 84, 89
2, 63179, Note_on_c, 0, 72, 0
2, 63180, Note_on_c, 0, 70, 89
2, 63181, Note_on_c, 0, 84, 0
2, 63182, Note_on_c, 0, 82, 80
2, 63189, Note_on_c, 0, 70, 0
2, 63192, Note_on_c, 0, 82, 0
2, 63240, Note_on_c, 0, 70, 64
2, 63246, Note_on_c, 0, 82, 93
2, 63300, Note_on_c, 0, 68, 85
2, 63301, Note_on_c, 0, 70, 0
2, 63302, Note_on_c, 0, 82, 0
2, 63304, Note_on_c, 0, 80, 85
2, 63309, Note_on_c, 0, 68, 0
2, 63312, Note_on_c, 0, 80, 0
2, 63360, Note_on_c, 0, 68, 76
2, 63367, Note_on_c, 0, 80, 89
2, 63417, Note_on_c, 0, 68, 0
2, 63420, Note_on_c, 0, 67, 85
2, 63423, Note_on_c, 0, 80, 0
2, 63426, Note_on_c, 0, 79, 80
2, 63430, Note_on_c, 0, 67, 0
2, 63437, Note_on_c, 0, 79, 0
2, 63480, Note_on_c, 0, 79, 76
2, 63480, Note_on_c, 0, 82, 76
2, 63480, Note_on_c, 0, 85, 72
2, 63480, Note_on_c, 0, 73, 72
2, 63480, Note_on_c, 0, 70, 72
2, 63480, Note_on_c, 0, 67, 80
2, 63682, Note_on_c, 0, 67, 0
2, 63697, Note_on_c, 0, 73, 0
2, 63699, Note_on_c, 0, 70, 0
2, 63702, Note_on_c, 0, 82, 0
2, 63703, Note_on_c, 0, 79, 0
2, 63704, Note_on_c, 0, 85, 0
2, 63720, Note_on_c, 0, 72, 76
2, 63720, Note_on_c, 0, 68, 57
2, 63724, Note_on_c, 0, 84, 76
2, 63725, Note_on_c, 0, 80, 76
2, 63780, Note_on_c, 0, 72, 0
2, 63785, Note_on_c, 0, 68, 0
2, 63787, Note_on_c, 0, 80, 0
2, 63789, Note_on_c, 0, 84, 0
2, 63810, Note_on_c, 0, 68, 62
2, 63810, Note_on_c, 0, 72, 68
2, 63813, Note_on_c, 0, 84, 76
2, 63820, Note_on_c, 0, 68, 0
2, 63821, Note_on_c, 0, 72, 0
2, 63823, Note_on_c, 0, 84, 0
2, 63840, Note_on_c, 0, 72, 72
2, 63845, Note_on_c, 0, 84, 80
2, 63898, Note_on_c, 0, 72, 0
2, 63900, Note_on_c, 0, 70, 76
2, 63905, Note_on_c, 0, 82, 76
2, 63906, Note_on_c, 0, 84, 0
2, 63910, Note_on_c, 0, 70, 0
2, 63915, Note_on_c, 0, 82, 0
2, 63960, Note_on_c, 0, 70, 62
2, 63965, Note_on_c, 0, 82, 80
2, 64014, Note_on_c, 0, 70, 0
2, 64020, Note_on_c, 0, 68, 80
2, 64023, Note_on_c, 0, 82, 0
2, 64024, Note_on_c, 0, 80, 72
2, 64029, Note_on_c, 0, 68, 0
2, 64034, Note_on_c, 0, 80, 0
2, 64080, Note_on_c, 0, 68, 76
2, 64086, Note_on_c, 0, 80, 85
2, 64138, Note_on_c, 0, 68, 0
2, 64140, Note_on_c, 0, 67, 72
2, 64142, Note_on_c, 0, 80, 0
2, 64144, Note_on_c, 0, 79, 89
2, 64150, Note_on_c, 0, 67, 0
2, 64156, Note_on_c, 0, 79, 0
2, 64200, Note_on_c, 0, 70, 80
2, 64200, Note_on_c, 0, 67, 72
2, 64200, Note_on_c, 0, 73, 64
2, 64205, Note_on_c, 0, 85, 72
2, 64206, Note_on_c, 0, 79, 85
2, 64206, Note_on_c, 0, 82, 76
2, 64409, Note_on_c, 0, 67, 0
2, 64416, Note_on_c, 0, 73, 0
2, 64419, Note_on_c, 0, 70, 0
2, 64419, Note_on_c, 0, 82, 0
2, 64427, Note_on_c, 0, 79, 0
2, 64428, Note_on_c, 0, 85, 0
2, 64440, Note_on_c, 0, 68, 62
2, 64440, Note_on_c, 0, 72, 60
2, 64446, Note_on_c, 0, 84, 76
2, 64447, Note_on_c, 0, 80, 62
2, 64503, Note_on_c, 0, 72, 0
2, 64503, Note_on_c, 0, 68, 0
2, 64506, Note_on_c, 0, 80, 0
2, 64508, Note_on_c, 0, 84, 0
2, 64530, Note_on_c, 0, 72, 76
2, 64530, Note_on_c, 0, 68, 64
2, 64534, Note_on_c, 0, 80, 72
2, 64534, Note_on_c, 0, 84, 76
2, 64546, Note_on_c, 0, 80, 0
2, 64549, Note_on_c, 0, 84, 0
2, 64550, Note_on_c, 0, 68, 0
2, 64555, Note_on_c, 0, 72, 0
2, 64560, Note_on_c, 0, 77, 89
2, 64564, Note_on_c, 0, 82, 62
2, 64564, Note_on_c, 0, 80, 64
2, 64614, Note_on_c, 0, 80, 0
2, 64615, Note_on_c, 0, 82, 0
2, 64616, Note_on_c, 0, 77, 0
2, 64620, Note_on_c, 0, 75, 76
2, 64627, Note_on_c, 0, 82, 60
2, 64627, Note_on_c, 0, 80, 60
2, 64680, Note_on_c, 0, 73, 72
2, 64685, Note_on_c, 0, 75, 0
2, 64728, Note_on_c, 0, 80, 0
2, 64730, Note_on_c, 0, 82, 0
2, 64737, Note_on_c, 0, 73, 0
2, 64740, Note_on_c, 0, 75, 76
2, 64744, Note_on_c, 0, 82, 62
2, 64745, Note_on_c, 0, 80, 64
2, 64796, Note_on_c, 0, 75, 0
2, 64800, Note_on_c, 0, 77, 80
2, 64844, Note_on_c, 0, 80, 0
2, 64846, Note_on_c, 0, 82, 0
2, 64854, Note_on_c, 0, 77, 0
2, 64860, Note_on_c, 0, 74, 76
2, 64863, Note_on_c, 0, 82, 72
2, 64864, Note_on_c, 0, 80, 68
2, 64906, Note_on_c, 0, 80, 0
2, 64913, Note_on_c, 0, 82, 0
2, 64920, Note_on_c, 0, 80, 76
2, 64920, Note_on_c, 0, 84, 72
2, 64920, Note_on_c, 0, 75, 80
2, 64921, Note_on_c, 0, 74, 0
2, 64976, Note_on_c, 0, 80, 0
2, 64976, Note_on_c, 0, 84, 0
2, 64980, Note_on_c, 0, 63, 64
2, 64981, Note_on_c, 0, 75, 0
2, 65048, Note_on_c, 0, 63, 0
2, 65053, Note_on_c, 0, 65, 68
2, 65066, Note_on_c, 0, 65, 0
2, 65068, Note_on_c, 0, 63, 76
2, 65081, Note_on_c, 0, 63, 0
2, 65083, Note_on_c, 0, 62, 76
2, 65096, Note_on_c, 0, 62, 0
2, 65098, Note_on_c, 0, 63, 72
2, 65111, Note_on_c, 0, 63, 0
2, 65113, Note_on_c, 0, 65, 72
2, 65119, Note_on_c, 0, 65, 0
2, 65120, Note_on_c, 0, 67, 76
2, 65126, Note_on_c, 0, 67, 0
2, 65127, Note_on_c, 0, 68, 62
2, 65133, Note_on_c, 0, 68, 0
2, 65134, Note_on_c, 0, 70, 72
2, 65140, Note_on_c, 0, 70, 0
2, 65141, Note_on_c, 0, 72, 76
2, 65147, Note_on_c, 0, 72, 0
2, 65148, Note_on_c, 0, 73, 62
2, 65154, Note_on_c, 0, 73, 0
2, 65155, Note_on_c, 0, 75, 68
2, 65168, Note_on_c, 0, 75, 0
2, 65170, Note_on_c, 0, 77, 76
2, 65183, Note_on_c, 0, 77, 0
2, 65185, Note_on_c, 0, 75, 72
2, 65198, Note_on_c, 0, 75, 0
2, 65200, Note_on_c, 0, 73, 72
2, 65213, Note_on_c, 0, 73, 0
2, 65215, Note_on_c, 0, 72, 80
2, 65228, Note_on_c, 0, 72, 0
2, 65230, Note_on_c, 0, 73, 72
2, 65236, Note_on_c, 0, 73, 0
2, 65237, Note_on_c, 0, 75, 76
2, 65243, Note_on_c, 0, 75, 0
2, 65244, Note_on_c, 0, 77, 72
2, 65250, Note_on_c, 0, 77, 0
2, 65251, Note_on_c, 0, 79, 76
2, 65257, Note_on_c, 0, 79, 0
2, 65258, Note_on_c, 0, 80, 72
2, 65264, Note_on_c, 0, 80, 0
2, 65265, Note_on_c, 0, 82, 76
2, 65271, Note_on_c, 0, 82, 0
2, 65280, Note_on_c, 0, 84, 76
2, 65293, Note_on_c, 0, 84, 0
2, 65295, Note_on_c, 0, 82, 76
2, 65308, Note_on_c, 0, 82, 0
2, 65310, Note_on_c, 0, 85, 72
2, 65323, Note_on_c, 0, 85, 0
2, 65325, Note_on_c, 0, 84, 68
2, 65338, Note_on_c, 0, 84, 0
2, 65340, Note_on_c, 0, 82, 72
2, 65353, Note_on_c, 0, 82, 0
2, 65355, Note_on_c, 0, 80, 60
2, 65368, Note_on_c, 0, 80, 0
2, 65370, Note_on_c, 0, 79, 85
2, 65383, Note_on_c, 0, 79, 0
2, 65385, Note_on_c, 0, 77, 72
2, 65398, Note_on_c, 0, 77, 0
2, 65400, Note_on_c, 0, 75, 68
2, 65413, Note_on_c, 0, 75, 0
2, 65415, Note_on_c, 0, 80, 72
2, 65428, Note_on_c, 0, 80, 0
2, 65430, Note_on_c, 0, 79, 64
2, 65443, Note_on_c, 0, 79, 0
2, 65445, Note_on_c, 0, 82, 68
2, 65458, Note_on_c, 0, 82, 0
2, 65460, Note_on_c, 0, 80, 60
2, 65473, Note_on_c, 0, 80, 0
2, 65475, Note_on_c, 0, 79, 62
2, 65488, Note_on_c, 0, 79, 0
2, 65490, Note_on_c, 0, 77, 76
2, 65503, Note_on_c, 0, 77, 0
2, 65505, Note_on_c, 0, 75, 62
2, 65511, Note_on_c, 0, 75, 0
2, 65512, Note_on_c, 0, 73, 80
2, 65518, Note_on_c, 0, 73, 0
2, 65519, Note_on_c, 0, 72, 76
2, 65532, Note_on_c, 0, 72, 0
2, 65534, Note_on_c, 0, 77, 72
2, 65547, Note_on_c, 0, 77, 0
2, 65549, Note_on_c, 0, 76, 80
2, 65562, Note_on_c, 0, 76, 0
2, 65564, Note_on_c, 0, 79, 80
2, 65577, Note_on_c, 0, 79, 0
2, 65579, Note_on_c, 0, 77, 72
2, 65592, Note_on_c, 0, 77, 0
2, 65594, Note_on_c, 0, 75, 60
2, 65607, Note_on_c, 0, 75, 0
2, 65609, Note_on_c, 0, 73, 68
2, 65622, Note_on_c, 0, 73, 0
2, 65624, Note_on_c, 0, 72, 72
2, 65637, Note_on_c, 0, 72, 0
2, 65640, Note_on_c, 0, 72, 68
2, 65640, Note_on_c, 0, 68, 76
2, 65653, Note_on_c, 0, 68, 0
2, 65653, Note_on_c, 0, 72, 0
2, 65655, Note_on_c, 0, 70, 64
2, 65655, Note_on_c, 0, 67, 76
2, 65668, Note_on_c, 0, 67, 0
2, 65668, Note_on_c, 0, 70, 0
2, 65670, Note_on_c, 0, 72, 59
2, 65670, Note_on_c, 0, 68, 62
2, 65683, Note_on_c, 0, 68, 0
2, 65683, Note_on_c, 0, 72, 0
2, 65685, Note_on_c, 0, 70, 56
2, 65685, Note_on_c, 0, 67, 80
2, 65698, Note_on_c, 0, 67, 0
2, 65698, Note_on_c, 0, 70, 0
2, 65700, Note_on_c, 0, 72, 60
2, 65700, Note_on_c, 0, 68, 72
2, 65713, Note_on_c, 0, 68, 0
2, 65713, Note_on_c, 0, 72, 0
2, 65715, Note_on_c, 0, 70, 62
2, 65715, Note_on_c, 0, 67, 76
2, 65728, Note_on_c, 0, 67, 0
2, 65728, Note_on_c, 0, 70, 0
2, 65730, Note_on_c, 0, 72, 62
2, 65730, Note_on_c, 0, 68, 62
2, 65743, Note_on_c, 0, 68, 0
2, 65743, Note_on_c, 0, 72, 0
2, 65745, Note_on_c, 0, 70, 60
2, 65745, Note_on_c, 0, 67, 80
2, 65758, Note_on_c, 0, 67, 0
2, 65758, Note_on_c, 0, 70, 0
2, 65760, Note_on_c, 0, 72, 68
2, 65760, Note_on_c, 0, 68, 62
2, 65773, Note_on_c, 0, 68, 0
2, 65773, Note_on_c, 0, 72, 0
2, 65775, Note_on_c, 0, 70, 53
2, 65775, Note_on_c, 0, 67, 72
2, 65788, Note_on_c, 0, 67, 0
2, 65788, Note_on_c, 0, 70, 0
2, 65790, Note_on_c, 0, 72, 62
2, 65790, Note_on_c, 0, 68, 64
2, 65803, Note_on_c, 0, 68, 0
2, 65803, Note_on_c, 0, 72, 0
2, 65805, Note_on_c, 0, 70, 72
2, 65805, Note_on_c, 0, 67, 76
2, 65818, Note_on_c, 0, 67, 0
2, 65818, Note_on_c, 0, 70, 0
2, 65820, Note_on_c, 0, 68, 76
2, 65820, Note_on_c, 0, 65, 89
2, 65848, Note_on_c, 0, 65, 0
2, 65848, Note_on_c, 0, 68, 0
2, 65850, Note_on_c, 0, 70, 72
2, 65850, Note_on_c, 0, 67, 93
2, 65878, Note_on_c, 0, 67, 0
2, 65878, Note_on_c, 0, 70, 0
2, 65880, Note_on_c, 0, 80, 68
2, 65880, Note_on_c, 0, 72, 72
2, 65893, Note_on_c, 0, 72, 0
2, 65893, Note_on_c, 0, 80, 0
2, 65895, Note_on_c, 0, 79, 76
2, 65895, Note_on_c, 0, 70, 76
2, 65908, Note_on_c, 0, 70, 0
2, 65908, Note_on_c, 0, 79, 0
2, 65910, Note_on_c, 0, 80, 60
2, 65910, Note_on_c, 0, 72, 76
2, 65923, Note_on_c, 0, 72, 0
2, 65923, Note_on_c, 0, 80, 0
2, 65925, Note_on_c, 0, 79, 62
2, 65925, Note_on_c, 0, 70, 80
2, 65938, Note_on_c, 0, 70, 0
2, 65938, Note_on_c, 0, 79, 0
2, 65940, Note_on_c, 0, 77, 85
2, 65940, Note_on_c, 0, 68, 76
2, 65968, Note_on_c, 0, 68, 0
2, 65968, Note_on_c, 0, 77, 0
2, 65970, Note_on_c, 0, 79, 85
2, 65970, Note_on_c, 0, 70, 85
2, 65998, Note_on_c, 0, 70, 0
2, 65998, Note_on_c, 0, 79, 0
2, 66000, Note_on_c, 0, 84, 80
2, 66000, Note_on_c, 0, 80, 85
2, 66013, Note_on_c, 0, 80, 0
2, 66013, Note_on_c, 0, 84, 0
2, 66015, Note_on_c, 0, 82, 76
2, 66015, Note_on_c, 0, 79, 76
2, 66028, Note_on_c, 0, 79, 0
2, 66028, Note_on_c, 0, 82, 0
2, 66030, Note_on_c, 0, 84, 72
2, 66030, Note_on_c, 0, 80, 68
2, 66043, Note_on_c, 0, 80, 0
2, 66043, Note_on_c, 0, 84, 0
2, 66045, Note_on_c, 0, 82, 72
2, 66045, Note_on_c, 0, 79, 76
2, 66058, Note_on_c, 0, 79, 0
2, 66058, Note_on_c, 0, 82, 0
2, 66060, Note_on_c, 0, 84, 72
2, 66060, Note_on_c, 0, 80, 68
2, 66073, Note_on_c, 0, 80, 0
2, 66073, Note_on_c, 0, 84, 0
2, 66075, Note_on_c, 0, 82, 64
2, 66075, Note_on_c, 0, 79, 80
2, 66088, Note_on_c, 0, 79, 0
2, 66088, Note_on_c, 0, 82, 0
2, 66090, Note_on_c, 0, 84, 64
2, 66090, Note_on_c, 0, 80, 72
2, 66103, Note_on_c, 0, 80, 0
2, 66103, Note_on_c, 0, 84, 0
2, 66105, Note_on_c, 0, 82, 64
2, 66105, Note_on_c, 0, 79, 76
2, 66118, Note_on_c, 0, 79, 0
2, 66118, Note_on_c, 0, 82, 0
2, 66120, Note_on_c, 0, 84, 64
2, 66120, Note_on_c, 0, 80, 76
2, 66133, Note_on_c, 0, 80, 0
2, 66133, Note_on_c, 0, 84, 0
2, 66135, Note_on_c, 0, 82, 64
2, 66135, Note_on_c, 0, 79, 76
2, 66148, Note_on_c, 0, 79, 0
2, 66148, Note_on_c, 0, 82, 0
2, 66150, Note_on_c, 0, 84, 72
2, 66150, Note_on_c, 0, 80, 60
2, 66163, Note_on_c, 0, 80, 0
2, 66163, Note_on_c, 0, 84, 0
2, 66165, Note_on_c, 0, 82, 72
2, 66165, Note_on_c, 0, 79, 76
2, 66178, Note_on_c, 0, 79, 0
2, 66178, Note_on_c, 0, 82, 0
2, 66180, Note_on_c, 0, 84, 72
2, 66180, Note_on_c, 0, 80, 68
2, 66193, Note_on_c, 0, 80, 0
2, 66193, Note_on_c, 0, 84, 0
2, 66195, Note_on_c, 0, 82, 59
2, 66195, Note_on_c, 0, 79, 80
2, 66208, Note_on_c, 0, 79, 0
2, 66208, Note_on_c, 0, 82, 0
2, 66210, Note_on_c, 0, 84, 76
2, 66210, Note_on_c, 0, 80, 64
2, 66223, Note_on_c, 0, 80, 0
2, 66223, Note_on_c, 0, 84, 0
2, 66225, Note_on_c, 0, 82, 62
2, 66225, Note_on_c, 0, 79, 80
2, 66238, Note_on_c, 0, 79, 0
2, 66238, Note_on_c, 0, 82, 0
2, 66240, Note_on_c, 0, 84, 68
2, 66240, Note_on_c, 0, 80, 76
2, 66253, Note_on_c, 0, 80, 0
2, 66253, Note_on_c, 0, 84, 0
2, 66255, Note_on_c, 0, 82, 59
2, 66255, Note_on_c, 0, 79, 72
2, 66268, Note_on_c, 0, 79, 0
2, 66268, Note_on_c, 0, 82, 0
2, 66270, Note_on_c, 0, 84, 64
2, 66270, Note_on_c, 0, 80, 64
2, 66283, Note_on_c, 0, 80, 0
2, 66283, Note_on_c, 0, 84, 0
2, 66285, Note_on_c, 0, 82, 59
2, 66285, Note_on_c, 0, 79, 60
2, 66298, Note_on_c, 0, 79, 0
2, 66298, Note_on_c, 0, 82, 0
2, 66300, Note_on_c, 0, 84, 62
2, 66300, Note_on_c, 0, 80, 76
2, 66313, Note_on_c, 0, 80, 0
2, 66313, Note_on_c, 0, 84, 0
2, 66315, Note_on_c, 0, 82, 64
2, 66315, Note_on_c, 0, 79, 80
2, 66328, Note_on_c, 0, 79, 0
2, 66328, Note_on_c, 0, 82, 0
2, 66330, Note_on_c, 0, 84, 64
2, 66330, Note_on_c, 0, 80, 76
2, 66343, Note_on_c, 0, 80, 0
2, 66343, Note_on_c, 0, 84, 0
2, 66345, Note_on_c, 0, 82, 72
2, 66345, Note_on_c, 0, 79, 72
2, 66358, Note_on_c, 0, 79, 0
2, 66358, Note_on_c, 0, 82, 0
2, 66360, Note_on_c, 0, 84, 68
2, 66360, Note_on_c, 0, 80, 72
2, 66373, Note_on_c, 0, 80, 0
2, 66373, Note_on_c, 0, 84, 0
2, 66375, Note_on_c, 0, 82, 68
2, 66375, Note_on_c, 0, 79, 62
2, 66388, Note_on_c, 0, 79, 0
2, 66388, Note_on_c, 0, 82, 0
2, 66390, Note_on_c, 0, 84, 68
2, 66390, Note_on_c, 0, 80, 64
2, 66403, Note_on_c, 0, 80, 0
2, 66403, Note_on_c, 0, 84, 0
2, 66405, Note_on_c, 0, 82, 80
2, 66405, Note_on_c, 0, 79, 60
2, 66418, Note_on_c, 0, 79, 0
2, 66418, Note_on_c, 0, 82, 0
2, 66420, Note_on_c, 0, 84, 76
2, 66420, Note_on_c, 0, 80, 64
2, 66433, Note_on_c, 0, 80, 0
2, 66433, Note_on_c, 0, 84, 0
2, 66435, Note_on_c, 0, 82, 68
2, 66435, Note_on_c, 0, 79, 72
2, 66448, Note_on_c, 0, 79, 0
2, 66448, Note_on_c, 0, 82, 0
2, 66450, Note_on_c, 0, 84, 64
2, 66450, Note_on_c, 0, 80, 64
2, 66463, Note_on_c, 0, 80, 0
2, 66463, Note_on_c, 0, 84, 0
2, 66465, Note_on_c, 0, 82, 64
2, 66465, Note_on_c, 0, 79, 76
2, 66478, Note_on_c, 0, 79, 0
2, 66478, Note_on_c, 0, 82, 0
2, 66480, Note_on_c, 0, 84, 72
2, 66480, Note_on_c, 0, 80, 68
2, 66493, Note_on_c, 0, 80, 0
2, 66493, Note_on_c, 0, 84, 0
2, 66495, Note_on_c, 0, 82, 62
2, 66495, Note_on_c, 0, 79, 64
2, 66508, Note_on_c, 0, 79, 0
2, 66508, Note_on_c, 0, 82, 0
2, 66510, Note_on_c, 0, 84, 64
2, 66510, Note_on_c, 0, 80, 62
2, 66523, Note_on_c, 0, 80, 0
2, 66523, Note_on_c, 0, 84, 0
2, 66525, Note_on_c, 0, 82, 62
2, 66525, Note_on_c, 0, 79, 72
2, 66538, Note_on_c, 0, 79, 0
2, 66538, Note_on_c, 0, 82, 0
2, 66540, Note_on_c, 0, 84, 72
2, 66540, Note_on_c, 0, 80, 68
2, 66553, Note_on_c, 0, 80, 0
2, 66553, Note_on_c, 0, 84, 0
2, 66555, Note_on_c, 0, 82, 56
2, 66555, Note_on_c, 0, 79, 72
2, 66568, Note_on_c, 0, 79, 0
2, 66568, Note_on_c, 0, 82, 0
2, 66570, Note_on_c, 0, 84, 60
2, 66570, Note_on_c, 0, 80, 64
2, 66583, Note_on_c, 0, 80, 0
2, 66583, Note_on_c, 0, 84, 0
2, 66585, Note_on_c, 0, 82, 68
2, 66585, Note_on_c, 0, 79, 68
2, 66598, Note_on_c, 0, 79, 0
2, 66598, Note_on_c, 0, 82, 0
2, 66600, Note_on_c, 0, 84, 60
2, 66600, Note_on_c, 0, 80, 62
2, 66613, Note_on_c, 0, 80, 0
2, 66613, Note_on_c, 0, 84, 0
2, 66615, Note_on_c, 0, 82, 60
2, 66615, Note_on_c, 0, 79, 68
2, 66628, Note_on_c, 0, 79, 0
2, 66628, Note_on_c, 0, 82, 0
2, 66630, Note_on_c, 0, 84, 64
2, 66630, Note_on_c, 0, 80, 62
2, 66643, Note_on_c, 0, 80, 0
2, 66643, Note_on_c, 0, 84, 0
2, 66645, Note_on_c, 0, 82, 68
2, 66645, Note_on_c, 0, 79, 72
2, 66658, Note_on_c, 0, 79, 0
2, 66658, Note_on_c, 0, 82, 0
2, 66660, Note_on_c, 0, 80, 76
2, 66660, Note_on_c, 0, 77, 72
2, 66688, Note_on_c, 0, 77, 0
2, 66688, Note_on_c, 0, 80, 0
2, 66690, Note_on_c, 0, 82, 76
2, 66690, Note_on_c, 0, 79, 85
2, 66718, Note_on_c, 0, 79, 0
2, 66718, Note_on_c, 0, 82, 0
2, 66720, Note_on_c, 0, 72, 89
2, 66720, Note_on_c, 0, 75, 80
2, 66720, Note_on_c, 0, 80, 85
2, 66720, Note_on_c, 0, 68, 93
2, 66823, Note_on_c, 0, 80, 0
2, 66823, Note_on_c, 0, 75, 0
2, 66826, Note_on_c, 0, 72, 0
2, 66828, Note_on_c, 0, 68, 0
2, 66930, Note_on_c, 0, 73, 89
2, 66930, Note_on_c, 0, 70, 85
2, 66937, Note_on_c, 0, 72, 85
2, 66937, Note_on_c, 0, 68, 107
2, 66939, Note_on_c, 0, 70, 0
2, 66941, Note_on_c, 0, 73, 0
2, 66944, Note_on_c, 0, 70, 72
2, 66944, Note_on_c, 0, 67, 89
2, 66946, Note_on_c, 0, 68, 0
2, 66947, Note_on_c, 0, 72, 0
2, 66951, Note_on_c, 0, 72, 85
2, 66951, Note_on_c, 0, 68, 89
2, 66954, Note_on_c, 0, 70, 0
2, 66954, Note_on_c, 0, 67, 0
2, 66960, Note_on_c, 0, 68, 0
2, 66960, Note_on_c, 0, 75, 89
2, 66960, Note_on_c, 0, 72, 89
2, 66961, Note_on_c, 0, 72, 0
2, 67034, Note_on_c, 0, 75, 0
2, 67035, Note_on_c, 0, 72, 0
2, 67050, Note_on_c, 0, 75, 76
2, 67050, Note_on_c, 0, 72, 76
2, 67066, Note_on_c, 0, 75, 0
2, 67080, Note_on_c, 0, 72, 0
2, 67080, Note_on_c, 0, 73, 93
2, 67080, Note_on_c, 0, 70, 93
2, 67156, Note_on_c, 0, 70, 0
2, 67162, Note_on_c, 0, 73, 0
2, 67170, Note_on_c, 0, 72, 89
2, 67170, Note_on_c, 0, 68, 93
2, 67187, Note_on_c, 0, 72, 0
2, 67194, Note_on_c, 0, 68, 0
2, 67200, Note_on_c, 0, 82, 76
2, 67200, Note_on_c, 0, 76, 93
2, 67200, Note_on_c, 0, 73, 93
2, 67200, Note_on_c, 0, 70, 102
2, 67313, Note_on_c, 0, 70, 0
2, 67315, Note_on_c, 0, 76, 0
2, 67316, Note_on_c, 0, 82, 0
2, 67318, Note_on_c, 0, 73, 0
2, 67410, Note_on_c, 0, 75, 89
2, 67410, Note_on_c, 0, 72, 98
2, 67417, Note_on_c, 0, 73, 98
2, 67417, Note_on_c, 0, 69, 89
2, 67420, Note_on_c, 0, 75, 0
2, 67423, Note_on_c, 0, 72, 0
2, 67424, Note_on_c, 0, 70, 89
2, 67425, Note_on_c, 0, 72, 85
2, 67426, Note_on_c, 0, 73, 0
2, 67427, Note_on_c, 0, 69, 0
2, 67431, Note_on_c, 0, 73, 56
2, 67431, Note_on_c, 0, 70, 85
2, 67434, Note_on_c, 0, 70, 0
2, 67435, Note_on_c, 0, 72, 0
2, 67439, Note_on_c, 0, 70, 0
2, 67440, Note_on_c, 0, 76, 107
2, 67440, Note_on_c, 0, 73, 102
2, 67444, Note_on_c, 0, 73, 0
2, 67510, Note_on_c, 0, 76, 0
2, 67520, Note_on_c, 0, 73, 0
2, 67530, Note_on_c, 0, 76, 93
2, 67530, Note_on_c, 0, 73, 89
2, 67551, Note_on_c, 0, 76, 0
2, 67553, Note_on_c, 0, 73, 0
2, 67560, Note_on_c, 0, 75, 93
2, 67560, Note_on_c, 0, 71, 98
2, 67639, Note_on_c, 0, 75, 0
2, 67642, Note_on_c, 0, 71, 0
2, 67650, Note_on_c, 0, 73, 93
2, 67650, Note_on_c, 0, 70, 93
2, 67668, Note_on_c, 0, 73, 0
2, 67672, Note_on_c, 0, 70, 0
2, 67680, Note_on_c, 0, 82, 89
2, 67680, Note_on_c, 0, 75, 93
2, 67680, Note_on_c, 0, 78, 89
2, 67680, Note_on_c, 0, 70, 107
2, 67791, Note_on_c, 0, 70, 0
2, 67791, Note_on_c, 0, 75, 0
2, 67792, Note_on_c, 0, 78, 0
2, 67792, Note_on_c, 0, 82, 0
2, 67890, Note_on_c, 0, 77, 89
2, 67890, Note_on_c, 0, 68, 102
2, 67897, Note_on_c, 0, 75, 85
2, 67897, Note_on_c, 0, 66, 98
2, 67900, Note_on_c, 0, 77, 0
2, 67902, Note_on_c, 0, 68, 0
2, 67904, Note_on_c, 0, 74, 93
2, 67904, Note_on_c, 0, 65, 85
2, 67907, Note_on_c, 0, 75, 0
2, 67907, Note_on_c, 0, 66, 0
2, 67911, Note_on_c, 0, 75, 55
2, 67911, Note_on_c, 0, 66, 68
2, 67914, Note_on_c, 0, 74, 0
2, 67914, Note_on_c, 0, 65, 0
2, 67917, Note_on_c, 0, 66, 0
2, 67920, Note_on_c, 0, 75, 0
2, 67920, Note_on_c, 0, 78, 89
2, 67920, Note_on_c, 0, 70, 98
2, 67991, Note_on_c, 0, 78, 0
2, 67993, Note_on_c, 0, 70, 0
2, 68010, Note_on_c, 0, 78, 85
2, 68010, Note_on_c, 0, 70, 89
2, 68032, Note_on_c, 0, 70, 0
2, 68034, Note_on_c, 0, 78, 0
2, 68040, Note_on_c, 0, 77, 89
2, 68040, Note_on_c, 0, 68, 89
2, 68120, Note_on_c, 0, 77, 0
2, 68123, Note_on_c, 0, 68, 0
2, 68130, Note_on_c, 0, 75, 93
2, 68130, Note_on_c, 0, 66, 89
2, 68148, Note_on_c, 0, 75, 0
2, 68149, Note_on_c, 0, 66, 0
2, 68160, Note_on_c, 0, 75, 85
2, 68160, Note_on_c, 0, 81, 102
2, 68160, Note_on_c, 0, 84, 93
2, 68160, Note_on_c, 0, 72, 89
2, 68160, Note_on_c, 0, 69, 93
2, 68267, Note_on_c, 0, 84, 0
2, 68267, Note_on_c, 0, 81, 0
2, 68268, Note_on_c, 0, 69, 0
2, 68272, Note_on_c, 0, 72, 0
2, 68272, Note_on_c, 0, 75, 0
2, 68370, Note_on_c, 0, 73, 93
2, 68370, Note_on_c, 0, 72, 76
2, 68370, Note_on_c, 0, 70, 89
2, 68377, Note_on_c, 0, 69, 93
2, 68379, Note_on_c, 0, 72, 0
2, 68380, Note_on_c, 0, 73, 0
2, 68381, Note_on_c, 0, 70, 0
2, 68385, Note_on_c, 0, 69, 0
2, 68385, Note_on_c, 0, 70, 89
2, 68385, Note_on_c, 0, 69, 93
2, 68391, Note_on_c, 0, 72, 60
2, 68391, Note_on_c, 0, 72, 98
2, 68394, Note_on_c, 0, 69, 0
2, 68395, Note_on_c, 0, 70, 0
2, 68398, Note_on_c, 0, 72, 0
2, 68399, Note_on_c, 0, 72, 0
2, 68400, Note_on_c, 0, 75, 89
2, 68400, Note_on_c, 0, 75, 102
2, 68471, Note_on_c, 0, 75, 0
2, 68471, Note_on_c, 0, 75, 0
2, 68490, Note_on_c, 0, 75, 89
2, 68490, Note_on_c, 0, 72, 89
2, 68511, Note_on_c, 0, 75, 0
2, 68513, Note_on_c, 0, 72, 0
2, 68520, Note_on_c, 0, 73, 98
2, 68520, Note_on_c, 0, 70, 102
2, 68595, Note_on_c, 0, 73, 0
2, 68605, Note_on_c, 0, 70, 0
2, 68610, Note_on_c, 0, 72, 98
2, 68610, Note_on_c, 0, 69, 93
2, 68624, Note_on_c, 0, 69, 0
2, 68627, Note_on_c, 0, 72, 0
2, 68640, Note_on_c, 0, 77, 98
2, 68640, Note_on_c, 0, 82, 85
2, 68640, Note_on_c, 0, 73, 93
2, 68640, Note_on_c, 0, 70, 107
2, 68640, Note_on_c, 0, 73, 93
2, 68749, Note_on_c, 0, 73, 0
2, 68751, Note_on_c, 0, 70, 0
2, 68752, Note_on_c, 0, 77, 0
2, 68752, Note_on_c, 0, 82, 0
2, 68753, Note_on_c, 0, 73, 0
2, 68880, Note_on_c, 0, 81, 93
2, 68880, Note_on_c, 0, 84, 98
2, 68880, Note_on_c, 0, 77, 93
2, 68880, Note_on_c, 0, 75, 76
2, 68880, Note_on_c, 0, 72, 93
2, 68985, Note_on_c, 0, 77, 0
2, 68987, Note_on_c, 0, 81, 0
2, 68987, Note_on_c, 0, 84, 0
2, 68994, Note_on_c, 0, 72, 0
2, 68995, Note_on_c, 0, 75, 0
2, 69120, Note_on_c, 0, 85, 93
2, 69120, Note_on_c, 0, 82, 93
2, 69120, Note_on_c, 0, 77, 102
2, 69120, Note_on_c, 0, 70, 98
2, 69120, Note_on_c, 0, 73, 93
2, 69229, Note_on_c, 0, 82, 0
2, 69232, Note_on_c, 0, 85, 0
2, 69233, Note_on_c, 0, 77, 0
2, 69237, Note_on_c, 0, 73, 0
2, 69239, Note_on_c, 0, 70, 0
2, 69330, Note_on_c, 0, 78, 89
2, 69330, Note_on_c, 0, 75, 89
2, 69337, Note_on_c, 0, 77, 98
2, 69337, Note_on_c, 0, 73, 62
2, 69340, Note_on_c, 0, 78, 0
2, 69342, Note_on_c, 0, 75, 0
2, 69345, Note_on_c, 0, 76, 89
2, 69345, Note_on_c, 0, 72, 89
2, 69346, Note_on_c, 0, 77, 0
2, 69348, Note_on_c, 0, 73, 0
2, 69351, Note_on_c, 0, 77, 76
2, 69351, Note_on_c, 0, 73, 68
2, 69355, Note_on_c, 0, 76, 0
2, 69355, Note_on_c, 0, 72, 0
2, 69360, Note_on_c, 0, 77, 0
2, 69360, Note_on_c, 0, 85, 89
2, 69360, Note_on_c, 0, 77, 93
2, 69361, Note_on_c, 0, 73, 0
2, 69431, Note_on_c, 0, 85, 0
2, 69438, Note_on_c, 0, 77, 0
2, 69450, Note_on_c, 0, 85, 85
2, 69450, Note_on_c, 0, 77, 72
2, 69474, Note_on_c, 0, 85, 0
2, 69477, Note_on_c, 0, 77, 0
2, 69480, Note_on_c, 0, 84, 93
2, 69480, Note_on_c, 0, 75, 93
2, 69555, Note_on_c, 0, 84, 0
2, 69557, Note_on_c, 0, 75, 0
2, 69570, Note_on_c, 0, 84, 93
2, 69570, Note_on_c, 0, 75, 85
2, 69596, Note_on_c, 0, 75, 0
2, 69596, Note_on_c, 0, 84, 0
2, 69600, Note_on_c, 0, 82, 102
2, 69600, Note_on_c, 0, 73, 93
2, 69715, Note_on_c, 0, 73, 0
2, 69715, Note_on_c, 0, 82, 0
2, 69810, Note_on_c, 0, 75, 102
2, 69810, Note_on_c, 0, 72, 89
2, 69817, Note_on_c, 0, 73, 76
2, 69817, Note_on_c, 0, 70, 80
2, 69820, Note_on_c, 0, 75, 0
2, 69825, Note_on_c, 0, 72, 0
2, 69825, Note_on_c, 0, 72, 80
2, 69825, Note_on_c, 0, 70, 93
2, 69826, Note_on_c, 0, 73, 0
2, 69827, Note_on_c, 0, 70, 0
2, 69831, Note_on_c, 0, 73, 89
2, 69831, Note_on_c, 0, 69, 89
2, 69834, Note_on_c, 0, 70, 0
2, 69836, Note_on_c, 0, 72, 0
2, 69838, Note_on_c, 0, 73, 0
2, 69840, Note_on_c, 0, 82, 85
2, 69840, Note_on_c, 0, 73, 93
2, 69841, Note_on_c, 0, 69, 0
2, 69914, Note_on_c, 0, 82, 0
2, 69917, Note_on_c, 0, 73, 0
2, 69930, Note_on_c, 0, 82, 89
2, 69930, Note_on_c, 0, 73, 85
2, 69951, Note_on_c, 0, 82, 0
2, 69957, Note_on_c, 0, 73, 0
2, 69960, Note_on_c, 0, 80, 93
2, 69960, Note_on_c, 0, 71, 89
2, 70039, Note_on_c, 0, 71, 0
2, 70039, Note_on_c, 0, 80, 0
2, 70050, Note_on_c, 0, 80, 80
2, 70050, Note_on_c, 0, 71, 85
2, 70069, Note_on_c, 0, 71, 0
2, 70071, Note_on_c, 0, 80, 0
2, 70080, Note_on_c, 0, 78, 113
2, 70080, Note_on_c, 0, 70, 98
2, 70187, Note_on_c, 0, 78, 0
2, 70200, Note_on_c, 0, 70, 0
2, 70290, Note_on_c, 0, 70, 98
2, 70290, Note_on_c, 0, 68, 107
2, 70297, Note_on_c, 0, 68, 93
2, 70297, Note_on_c, 0, 66, 93
2, 70301, Note_on_c, 0, 70, 0
2, 70302, Note_on_c, 0, 68, 0
2, 70305, Note_on_c, 0, 67, 93
2, 70305, Note_on_c, 0, 65, 93
2, 70307, Note_on_c, 0, 66, 0
2, 70310, Note_on_c, 0, 68, 0
2, 70311, Note_on_c, 0, 68, 102
2, 70311, Note_on_c, 0, 66, 62
2, 70315, Note_on_c, 0, 67, 0
2, 70315, Note_on_c, 0, 65, 0
2, 70318, Note_on_c, 0, 68, 0
2, 70320, Note_on_c, 0, 66, 0
2, 70320, Note_on_c, 0, 78, 93
2, 70320, Note_on_c, 0, 70, 89
2, 70392, Note_on_c, 0, 70, 0
2, 70392, Note_on_c, 0, 78, 0
2, 70410, Note_on_c, 0, 78, 89
2, 70410, Note_on_c, 0, 70, 89
2, 70429, Note_on_c, 0, 78, 0
2, 70436, Note_on_c, 0, 70, 0
2, 70440, Note_on_c, 0, 77, 93
2, 70440, Note_on_c, 0, 68, 93
2, 70514, Note_on_c, 0, 77, 0
2, 70515, Note_on_c, 0, 68, 0
2, 70530, Note_on_c, 0, 77, 93
2, 70530, Note_on_c, 0, 68, 85
2, 70550, Note_on_c, 0, 68, 0
2, 70551, Note_on_c, 0, 77, 0
2, 70560, Note_on_c, 0, 76, 85
2, 70560, Note_on_c, 0, 67, 98
2, 70792, Note_on_c, 0, 76, 0
2, 70794, Note_on_c, 0, 67, 0
2, 70800, Note_on_c, 0, 77, 98
2, 70800, Note_on_c, 0, 65, 80
2, 70912, Note_on_c, 0, 65, 0
2, 70915, Note_on_c, 0, 77, 0
2, 70920, Note_on_c, 0, 71, 93
2, 70920, Note_on_c, 0, 67, 93
2, 71008, Note_on_c, 0, 67, 0
2, 71010, Note_on_c, 0, 68, 80
2, 71038, Note_on_c, 0, 71, 0
2, 71039, Note_on_c, 0, 68, 0
2, 71040, Note_on_c, 0, 72, 85
2, 71040, Note_on_c, 0, 67, 80
2, 71155, Note_on_c, 0, 67, 0
2, 71157, Note_on_c, 0, 72, 0
2, 71190, Note_on_c, 0, 84, 93
2, 71219, Note_on_c, 0, 84, 0
2, 71220, Note_on_c, 0, 83, 93
2, 71250, Note_on_c, 0, 83, 0
2, 71250, Note_on_c, 0, 84, 76
2, 71279, Note_on_c, 0, 84, 0
2, 71280, Note_on_c, 0, 79, 76
2, 71310, Note_on_c, 0, 80, 80
2, 71311, Note_on_c, 0, 79, 0
2, 71338, Note_on_c, 0, 80, 0
2, 71340, Note_on_c, 0, 82, 85
2, 71370, Note_on_c, 0, 80, 89
2, 71371, Note_on_c, 0, 82, 0
2, 71400, Note_on_c, 0, 76, 85
2, 71400, Note_on_c, 0, 59, 89
2, 71401, Note_on_c, 0, 80, 0
2, 71430, Note_on_c, 0, 76, 0
2, 71430, Note_on_c, 0, 77, 80
2, 71460, Note_on_c, 0, 77, 0
2, 71460, Note_on_c, 0, 79, 89
2, 71490, Note_on_c, 0, 79, 0
2, 71490, Note_on_c, 0, 77, 76
2, 71512, Note_on_c, 0, 59, 0
2, 71520, Note_on_c, 0, 77, 0
2, 71520, Note_on_c, 0, 72, 93
2, 71520, Note_on_c, 0, 60, 93
2, 71640, Note_on_c, 0, 60, 0
2, 71645, Note_on_c, 0, 72, 0
2, 71670, Note_on_c, 0, 72, 80
2, 71699, Note_on_c, 0, 72, 0
2, 71700, Note_on_c, 0, 71, 76
2, 71729, Note_on_c, 0, 71, 0
2, 71730, Note_on_c, 0, 72, 80
2, 71760, Note_on_c, 0, 72, 0
2, 71760, Note_on_c, 0, 67, 85
2, 71790, Note_on_c, 0, 67, 0
2, 71790, Note_on_c, 0, 68, 76
2, 71819, Note_on_c, 0, 68, 0
2, 71820, Note_on_c, 0, 70, 72
2, 71849, Note_on_c, 0, 70, 0
2, 71850, Note_on_c, 0, 68, 72
2, 71879, Note_on_c, 0, 68, 0
2, 71880, Note_on_c, 0, 64, 85
2, 71880, Note_on_c, 0, 59, 89
2, 71909, Note_on_c, 0, 64, 0
2, 71910, Note_on_c, 0, 65, 80
2, 71939, Note_on_c, 0, 65, 0
2, 71940, Note_on_c, 0, 67, 80
2, 71969, Note_on_c, 0, 67, 0
2, 71970, Note_on_c, 0, 65, 72
2, 71995, Note_on_c, 0, 59, 0
2, 71999, Note_on_c, 0, 65, 0
2, 72000, Note_on_c, 0, 60, 89
2, 72000, Note_on_c, 0, 60, 64
2, 72114, Note_on_c, 0, 60, 0
2, 72150, Note_on_c, 0, 60, 0
2, 72150, Note_on_c, 0, 62, 89
2, 72165, Note_on_c, 0, 64, 93
2, 72166, Note_on_c, 0, 62, 0
2, 72175, Note_on_c, 0, 64, 0
2, 72180, Note_on_c, 0, 65, 72
2, 72195, Note_on_c, 0, 67, 72
2, 72196, Note_on_c, 0, 65, 0
2, 72210, Note_on_c, 0, 69, 64
2, 72213, Note_on_c, 0, 67, 0
2, 72225, Note_on_c, 0, 69, 0
2, 72225, Note_on_c, 0, 71, 76
2, 72238, Note_on_c, 0, 71, 0
2, 72240, Note_on_c, 0, 72, 80
2, 72379, Note_on_c, 0, 72, 0
2, 72390, Note_on_c, 0, 74, 80
2, 72405, Note_on_c, 0, 74, 0
2, 72405, Note_on_c, 0, 76, 80
2, 72416, Note_on_c, 0, 76, 0
2, 72420, Note_on_c, 0, 77, 80
2, 72435, Note_on_c, 0, 79, 68
2, 72438, Note_on_c, 0, 77, 0
2, 72450, Note_on_c, 0, 81, 72
2, 72452, Note_on_c, 0, 79, 0
2, 72463, Note_on_c, 0, 81, 0
2, 72465, Note_on_c, 0, 83, 93
2, 72480, Note_on_c, 0, 83, 0
2, 72480, Note_on_c, 0, 84, 93
2, 72598, Note_on_c, 0, 84, 0
2, 72600, Note_on_c, 0, 72, 89
2, 72840, Note_on_c, 0, 84, 93
2, 72941, Note_on_c, 0, 72, 0
2, 72960, Note_on_c, 0, 65, 89
2, 72988, Note_on_c, 0, 84, 0
2, 72990, Note_on_c, 0, 83, 89
2, 73020, Note_on_c, 0, 85, 72
2, 73021, Note_on_c, 0, 83, 0
2, 73048, Note_on_c, 0, 85, 0
2, 73050, Note_on_c, 0, 84, 93
2, 73080, Note_on_c, 0, 84, 0
2, 73080, Note_on_c, 0, 82, 89
2, 73109, Note_on_c, 0, 82, 0
2, 73110, Note_on_c, 0, 80, 85
2, 73139, Note_on_c, 0, 80, 0
2, 73140, Note_on_c, 0, 79, 76
2, 73167, Note_on_c, 0, 79, 0
2, 73170, Note_on_c, 0, 77, 60
2, 73187, Note_on_c, 0, 65, 0
2, 73199, Note_on_c, 0, 77, 0
2, 73200, Note_on_c, 0, 76, 80
2, 73200, Note_on_c, 0, 67, 85
2, 73229, Note_on_c, 0, 76, 0
2, 73230, Note_on_c, 0, 79, 85
2, 73260, Note_on_c, 0, 79, 0
2, 73260, Note_on_c, 0, 84, 89
2, 73290, Note_on_c, 0, 82, 80
2, 73291, Note_on_c, 0, 84, 0
2, 73320, Note_on_c, 0, 82, 0
2, 73320, Note_on_c, 0, 80, 85
2, 73350, Note_on_c, 0, 79, 85
2, 73352, Note_on_c, 0, 80, 0
2, 73379, Note_on_c, 0, 79, 0
2, 73380, Note_on_c, 0, 77, 76
2, 73409, Note_on_c, 0, 77, 0
2, 73410, Note_on_c, 0, 76, 80
2, 73425, Note_on_c, 0, 67, 0
2, 73439, Note_on_c, 0, 76, 0
2, 73440, Note_on_c, 0, 77, 89
2, 73440, Note_on_c, 0, 68, 80
2, 73451, Note_on_c, 0, 77, 0
2, 73457, Note_on_c, 0, 68, 0
2, 73470, Note_on_c, 0, 72, 80
2, 73500, Note_on_c, 0, 72, 0
2, 73500, Note_on_c, 0, 71, 80
2, 73500, Note_on_c, 0, 68, 80
2, 73529, Note_on_c, 0, 71, 0
2, 73530, Note_on_c, 0, 72, 76
2, 73559, Note_on_c, 0, 72, 0
2, 73560, Note_on_c, 0, 71, 80
2, 73560, Note_on_c, 0, 67, 89
2, 73561, Note_on_c, 0, 68, 0
2, 73589, Note_on_c, 0, 71, 0
2, 73590, Note_on_c, 0, 72, 76
2, 73620, Note_on_c, 0, 67, 0
2, 73620, Note_on_c, 0, 71, 76
2, 73620, Note_on_c, 0, 65, 80
2, 73621, Note_on_c, 0, 72, 0
2, 73649, Note_on_c, 0, 71, 0
2, 73650, Note_on_c, 0, 72, 76
2, 73678, Note_on_c, 0, 72, 0
2, 73678, Note_on_c, 0, 65, 0
2, 73680, Note_on_c, 0, 73, 89
2, 73680, Note_on_c, 0, 70, 85
2, 73692, Note_on_c, 0, 70, 0
2, 73708, Note_on_c, 0, 73, 0
2, 73710, Note_on_c, 0, 72, 56
2, 73738, Note_on_c, 0, 72, 0
2, 73740, Note_on_c, 0, 74, 85
2, 73740, Note_on_c, 0, 70, 93
2, 73770, Note_on_c, 0, 72, 64
2, 73771, Note_on_c, 0, 74, 0
2, 73796, Note_on_c, 0, 70, 0
2, 73800, Note_on_c, 0, 72, 0
2, 73800, Note_on_c, 0, 75, 76
2, 73800, Note_on_c, 0, 68, 89
2, 73829, Note_on_c, 0, 75, 0
2, 73830, Note_on_c, 0, 72, 72
2, 73858, Note_on_c, 0, 68, 0
2, 73859, Note_on_c, 0, 72, 0
2, 73860, Note_on_c, 0, 76, 80
2, 73860, Note_on_c, 0, 67, 64
2, 73889, Note_on_c, 0, 76, 0
2, 73890, Note_on_c, 0, 72, 76
2, 73918, Note_on_c, 0, 67, 0
2, 73920, Note_on_c, 0, 72, 0
2, 73920, Note_on_c, 0, 77, 89
2, 73920, Note_on_c, 0, 68, 76
2, 73930, Note_on_c, 0, 77, 0
2, 73932, Note_on_c, 0, 68, 0
2, 73950, Note_on_c, 0, 72, 76
2, 73977, Note_on_c, 0, 72, 0
2, 73980, Note_on_c, 0, 71, 76
2, 73980, Note_on_c, 0, 68, 89
2, 74008, Note_on_c, 0, 71, 0
2, 74010, Note_on_c, 0, 72, 76
2, 74038, Note_on_c, 0, 68, 0
2, 74039, Note_on_c, 0, 72, 0
2, 74040, Note_on_c, 0, 71, 89
2, 74040, Note_on_c, 0, 67, 76
2, 74067, Note_on_c, 0, 71, 0
2, 74070, Note_on_c, 0, 72, 80
2, 74099, Note_on_c, 0, 67, 0
2, 74100, Note_on_c, 0, 71, 76
2, 74100, Note_on_c, 0, 65, 72
2, 74101, Note_on_c, 0, 72, 0
2, 74129, Note_on_c, 0, 71, 0
2, 74130, Note_on_c, 0, 72, 76
2, 74159, Note_on_c, 0, 72, 0
2, 74160, Note_on_c, 0, 73, 85
2, 74160, Note_on_c, 0, 70, 80
2, 74162, Note_on_c, 0, 65, 0
2, 74171, Note_on_c, 0, 70, 0
2, 74188, Note_on_c, 0, 73, 0
2, 74190, Note_on_c, 0, 72, 64
2, 74219, Note_on_c, 0, 72, 0
2, 74220, Note_on_c, 0, 74, 85
2, 74220, Note_on_c, 0, 70, 64
2, 74249, Note_on_c, 0, 74, 0
2, 74250, Note_on_c, 0, 72, 76
2, 74279, Note_on_c, 0, 72, 0
2, 74280, Note_on_c, 0, 70, 0
2, 74280, Note_on_c, 0, 75, 80
2, 74280, Note_on_c, 0, 68, 76
2, 74309, Note_on_c, 0, 75, 0
2, 74310, Note_on_c, 0, 72, 85
2, 74337, Note_on_c, 0, 68, 0
2, 74339, Note_on_c, 0, 72, 0
2, 74340, Note_on_c, 0, 76, 89
2, 74340, Note_on_c, 0, 67, 76
2, 74369, Note_on_c, 0, 76, 0
2, 74370, Note_on_c, 0, 72, 72
2, 74399, Note_on_c, 0, 67, 0
2, 74400, Note_on_c, 0, 77, 89
2, 74400, Note_on_c, 0, 68, 72
2, 74401, Note_on_c, 0, 72, 0
2, 74429, Note_on_c, 0, 77, 0
2, 74430, Note_on_c, 0, 76, 72
2, 74460, Note_on_c, 0, 76, 0
2, 74460, Note_on_c, 0, 80, 89
2, 74489, Note_on_c, 0, 80, 0
2, 74490, Note_on_c, 0, 79, 85
2, 74513, Note_on_c, 0, 68, 0
2, 74516, Note_on_c, 0, 79, 0
2, 74520, Note_on_c, 0, 77, 80
2, 74548, Note_on_c, 0, 77, 0
2, 74550, Note_on_c, 0, 75, 76
2, 74579, Note_on_c, 0, 75, 0
2, 74580, Note_on_c, 0, 74, 89
2, 74608, Note_on_c, 0, 74, 0
2, 74610, Note_on_c, 0, 72, 76
2, 74639, Note_on_c, 0, 72, 0
2, 74640, Note_on_c, 0, 71, 85
2, 74669, Note_on_c, 0, 71, 0
2, 74670, Note_on_c, 0, 72, 89
2, 74699, Note_on_c, 0, 72, 0
2, 74700, Note_on_c, 0, 75, 80
2, 74729, Note_on_c, 0, 75, 0
2, 74730, Note_on_c, 0, 74, 80
2, 74760, Note_on_c, 0, 72, 80
2, 74760, Note_on_c, 0, 77, 93
2, 74763, Note_on_c, 0, 74, 0
2, 74789, Note_on_c, 0, 72, 0
2, 74790, Note_on_c, 0, 71, 85
2, 74818, Note_on_c, 0, 71, 0
2, 74820, Note_on_c, 0, 69, 85
2, 74849, Note_on_c, 0, 69, 0
2, 74850, Note_on_c, 0, 71, 93
2, 74880, Note_on_c, 0, 72, 89
2, 74881, Note_on_c, 0, 71, 0
2, 74904, Note_on_c, 0, 77, 0
2, 74910, Note_on_c, 0, 76, 85
2, 74940, Note_on_c, 0, 80, 85
2, 74944, Note_on_c, 0, 76, 0
2, 74967, Note_on_c, 0, 80, 0
2, 74970, Note_on_c, 0, 79, 76
2, 74991, Note_on_c, 0, 72, 0
2, 75000, Note_on_c, 0, 63, 80
2, 75000, Note_on_c, 0, 77, 72
2, 75002, Note_on_c, 0, 79, 0
2, 75030, Note_on_c, 0, 75, 72
2, 75031, Note_on_c, 0, 77, 0
2, 75059, Note_on_c, 0, 75, 0
2, 75060, Note_on_c, 0, 74, 76
2, 75089, Note_on_c, 0, 74, 0
2, 75090, Note_on_c, 0, 72, 76
2, 75110, Note_on_c, 0, 63, 0
2, 75119, Note_on_c, 0, 72, 0
2, 75120, Note_on_c, 0, 67, 76
2, 75120, Note_on_c, 0, 71, 80
2, 75135, Note_on_c, 0, 65, 76
2, 75136, Note_on_c, 0, 67, 0
2, 75149, Note_on_c, 0, 71, 0
2, 75150, Note_on_c, 0, 67, 76
2, 75150, Note_on_c, 0, 74, 80
2, 75151, Note_on_c, 0, 65, 0
2, 75165, Note_on_c, 0, 67, 0
2, 75165, Note_on_c, 0, 65, 64
2, 75179, Note_on_c, 0, 74, 0
2, 75180, Note_on_c, 0, 67, 76
2, 75180, Note_on_c, 0, 79, 85
2, 75182, Note_on_c, 0, 65, 0
2, 75195, Note_on_c, 0, 67, 0
2, 75195, Note_on_c, 0, 65, 76
2, 75210, Note_on_c, 0, 65, 0
2, 75210, Note_on_c, 0, 67, 68
2, 75210, Note_on_c, 0, 77, 76
2, 75211, Note_on_c, 0, 79, 0
2, 75224, Note_on_c, 0, 67, 0
2, 75225, Note_on_c, 0, 65, 72
2, 75240, Note_on_c, 0, 65, 0
2, 75240, Note_on_c, 0, 67, 72
2, 75240, Note_on_c, 0, 75, 62
2, 75242, Note_on_c, 0, 77, 0
2, 75254, Note_on_c, 0, 67, 0
2, 75255, Note_on_c, 0, 65, 76
2, 75270, Note_on_c, 0, 67, 72
2, 75270, Note_on_c, 0, 74, 72
2, 75271, Note_on_c, 0, 65, 0
2, 75271, Note_on_c, 0, 75, 0
2, 75284, Note_on_c, 0, 67, 0
2, 75285, Note_on_c, 0, 65, 68
2, 75300, Note_on_c, 0, 63, 76
2, 75300, Note_on_c, 0, 72, 72
2, 75302, Note_on_c, 0, 65, 0
2, 75305, Note_on_c, 0, 74, 0
2, 75328, Note_on_c, 0, 63, 0
2, 75330, Note_on_c, 0, 65, 85
2, 75330, Note_on_c, 0, 71, 76
2, 75332, Note_on_c, 0, 72, 0
2, 75358, Note_on_c, 0, 65, 0
2, 75360, Note_on_c, 0, 67, 93
2, 75360, Note_on_c, 0, 72, 85
2, 75361, Note_on_c, 0, 71, 0
2, 75389, Note_on_c, 0, 72, 0
2, 75390, Note_on_c, 0, 67, 72
2, 75420, Note_on_c, 0, 66, 72
2, 75422, Note_on_c, 0, 67, 0
2, 75449, Note_on_c, 0, 66, 0
2, 75450, Note_on_c, 0, 67, 72
2, 75469, Note_on_c, 0, 67, 0
2, 75479, Note_on_c, 0, 67, 0
2, 75480, Note_on_c, 0, 66, 76
2, 75509, Note_on_c, 0, 66, 0
2, 75510, Note_on_c, 0, 67, 80
2, 75537, Note_on_c, 0, 67, 0
2, 75540, Note_on_c, 0, 79, 98
2, 75540, Note_on_c, 0, 66, 72
2, 75569, Note_on_c, 0, 66, 0
2, 75570, Note_on_c, 0, 67, 89
2, 75600, Note_on_c, 0, 68, 85
2, 75601, Note_on_c, 0, 67, 0
2, 75629, Note_on_c, 0, 68, 0
2, 75630, Note_on_c, 0, 67, 76
2, 75659, Note_on_c, 0, 79, 0
2, 75660, Note_on_c, 0, 67, 0
2, 75660, Note_on_c, 0, 77, 93
2, 75660, Note_on_c, 0, 69, 89
2, 75688, Note_on_c, 0, 77, 0
2, 75689, Note_on_c, 0, 69, 0
2, 75690, Note_on_c, 0, 67, 80
2, 75719, Note_on_c, 0, 67, 0
2, 75720, Note_on_c, 0, 70, 80
2, 75749, Note_on_c, 0, 70, 0
2, 75750, Note_on_c, 0, 67, 76
2, 75780, Note_on_c, 0, 67, 0
2, 75780, Note_on_c, 0, 77, 85
2, 75780, Note_on_c, 0, 71, 80
2, 75809, Note_on_c, 0, 71, 0
2, 75810, Note_on_c, 0, 67, 76
2, 75839, Note_on_c, 0, 67, 0
2, 75840, Note_on_c, 0, 72, 80
2, 75866, Note_on_c, 0, 72, 0
2, 75870, Note_on_c, 0, 67, 80
2, 75897, Note_on_c, 0, 77, 0
2, 75900, Note_on_c, 0, 67, 0
2, 75900, Note_on_c, 0, 75, 76
2, 75900, Note_on_c, 0, 66, 68
2, 75927, Note_on_c, 0, 75, 0
2, 75928, Note_on_c, 0, 66, 0
2, 75930, Note_on_c, 0, 67, 85
2, 75960, Note_on_c, 0, 66, 62
2, 75962, Note_on_c, 0, 67, 0
2, 75989, Note_on_c, 0, 66, 0
2, 75990, Note_on_c, 0, 67, 80
2, 76019, Note_on_c, 0, 67, 0
2, 76020, Note_on_c, 0, 79, 89
2, 76020, Note_on_c, 0, 66, 68
2, 76049, Note_on_c, 0, 66, 0
2, 76050, Note_on_c, 0, 67, 85
2, 76079, Note_on_c, 0, 67, 0
2, 76080, Note_on_c, 0, 68, 72
2, 76110, Note_on_c, 0, 67, 76
2, 76111, Note_on_c, 0, 68, 0
2, 76139, Note_on_c, 0, 67, 0
2, 76140, Note_on_c, 0, 77, 89
2, 76140, Note_on_c, 0, 69, 85
2, 76141, Note_on_c, 0, 79, 0
2, 76162, Note_on_c, 0, 77, 0
2, 76170, Note_on_c, 0, 67, 68
2, 76171, Note_on_c, 0, 69, 0
2, 76199, Note_on_c, 0, 67, 0
2, 76200, Note_on_c, 0, 70, 85
2, 76229, Note_on_c, 0, 70, 0
2, 76230, Note_on_c, 0, 67, 72
2, 76259, Note_on_c, 0, 67, 0
2, 76260, Note_on_c, 0, 77, 89
2, 76260, Note_on_c, 0, 71, 89
2, 76289, Note_on_c, 0, 71, 0
2, 76290, Note_on_c, 0, 67, 72
2, 76319, Note_on_c, 0, 67, 0
2, 76320, Note_on_c, 0, 72, 89
2, 76345, Note_on_c, 0, 77, 0
2, 76350, Note_on_c, 0, 76, 89
2, 76375, Note_on_c, 0, 72, 0
2, 76380, Note_on_c, 0, 85, 80
2, 76384, Note_on_c, 0, 76, 0
2, 76409, Note_on_c, 0, 85, 0
2, 76410, Note_on_c, 0, 84, 80
2, 76440, Note_on_c, 0, 82, 89
2, 76440, Note_on_c, 0, 73, 93
2, 76442, Note_on_c, 0, 84, 0
2, 76470, Note_on_c, 0, 82, 0
2, 76470, Note_on_c, 0, 80, 89
2, 76498, Note_on_c, 0, 80, 0
2, 76500, Note_on_c, 0, 79, 80
2, 76530, Note_on_c, 0, 77, 93
2, 76532, Note_on_c, 0, 79, 0
2, 76551, Note_on_c, 0, 77, 0
2, 76560, Note_on_c, 0, 77, 89
2, 76574, Note_on_c, 0, 77, 0
2, 76575, Note_on_c, 0, 75, 51
2, 76584, Note_on_c, 0, 73, 0
2, 76588, Note_on_c, 0, 75, 0
2, 76590, Note_on_c, 0, 77, 72
2, 76590, Note_on_c, 0, 72, 89
2, 76605, Note_on_c, 0, 77, 0
2, 76605, Note_on_c, 0, 75, 64
2, 76616, Note_on_c, 0, 75, 0
2, 76620, Note_on_c, 0, 77, 76
2, 76620, Note_on_c, 0, 70, 80
2, 76621, Note_on_c, 0, 72, 0
2, 76632, Note_on_c, 0, 77, 0
2, 76635, Note_on_c, 0, 75, 14
2, 76647, Note_on_c, 0, 70, 0
2, 76650, Note_on_c, 0, 77, 64
2, 76650, Note_on_c, 0, 68, 68
2, 76651, Note_on_c, 0, 75, 0
2, 76664, Note_on_c, 0, 77, 0
2, 76665, Note_on_c, 0, 75, 64
2, 76677, Note_on_c, 0, 75, 0
2, 76679, Note_on_c, 0, 68, 0
2, 76680, Note_on_c, 0, 77, 76
2, 76680, Note_on_c, 0, 67, 89
2, 76695, Note_on_c, 0, 75, 72
2, 76697, Note_on_c, 0, 77, 0
2, 76709, Note_on_c, 0, 75, 0
2, 76709, Note_on_c, 0, 67, 0
2, 76710, Note_on_c, 0, 77, 72
2, 76710, Note_on_c, 0, 68, 76
2, 76725, Note_on_c, 0, 75, 64
2, 76726, Note_on_c, 0, 77, 0
2, 76739, Note_on_c, 0, 68, 0
2, 76740, Note_on_c, 0, 74, 76
2, 76740, Note_on_c, 0, 70, 80
2, 76741, Note_on_c, 0, 75, 0
2, 76766, Note_on_c, 0, 74, 0
2, 76770, Note_on_c, 0, 75, 68
2, 76770, Note_on_c, 0, 67, 89
2, 76771, Note_on_c, 0, 70, 0
2, 76799, Note_on_c, 0, 75, 0
2, 76800, Note_on_c, 0, 77, 80
2, 76800, Note_on_c, 0, 68, 80
2, 76801, Note_on_c, 0, 67, 0
2, 76912, Note_on_c, 0, 68, 0
2, 76920, Note_on_c, 0, 56, 85
2, 76921, Note_on_c, 0, 77, 0
2, 77033, Note_on_c, 0, 56, 0
2, 77040, Note_on_c, 0, 60, 89
2, 77055, Note_on_c, 0, 60, 0
2, 77055, Note_on_c, 0, 58, 72
2, 77070, Note_on_c, 0, 58, 0
2, 77070, Note_on_c, 0, 60, 85
2, 77083, Note_on_c, 0, 60, 0
2, 77085, Note_on_c, 0, 58, 64
2, 77099, Note_on_c, 0, 58, 0
2, 77100, Note_on_c, 0, 60, 76
2, 77115, Note_on_c, 0, 58, 72
2, 77117, Note_on_c, 0, 60, 0
2, 77129, Note_on_c, 0, 58, 0
2, 77130, Note_on_c, 0, 60, 76
2, 77145, Note_on_c, 0, 60, 0
2, 77145, Note_on_c, 0, 58, 76
2, 77158, Note_on_c, 0, 58, 0
2, 77160, Note_on_c, 0, 60, 76
2, 77175, Note_on_c, 0, 58, 62
2, 77176, Note_on_c, 0, 60, 0
2, 77190, Note_on_c, 0, 58, 0
2, 77190, Note_on_c, 0, 60, 72
2, 77204, Note_on_c, 0, 60, 0
2, 77205, Note_on_c, 0, 58, 76
2, 77218, Note_on_c, 0, 58, 0
2, 77220, Note_on_c, 0, 56, 76
2, 77250, Note_on_c, 0, 58, 85
2, 77251, Note_on_c, 0, 56, 0
2, 77279, Note_on_c, 0, 58, 0
2, 77280, Note_on_c, 0, 60, 85
2, 77385, Note_on_c, 0, 60, 0
2, 77460, Note_on_c, 0, 72, 89
2, 77579, Note_on_c, 0, 72, 0
2, 77580, Note_on_c, 0, 70, 80
2, 77635, Note_on_c, 0, 70, 0
2, 77700, Note_on_c, 0, 70, 93
2, 77818, Note_on_c, 0, 70, 0
2, 77820, Note_on_c, 0, 68, 89
2, 77873, Note_on_c, 0, 68, 0
2, 77940, Note_on_c, 0, 72, 80
2, 78056, Note_on_c, 0, 72, 0
2, 78060, Note_on_c, 0, 70, 80
2, 78120, Note_on_c, 0, 70, 0
2, 78120, Note_on_c, 0, 79, 93
2, 78180, Note_on_c, 0, 70, 89
2, 78237, Note_on_c, 0, 79, 0
2, 78239, Note_on_c, 0, 70, 0
2, 78240, Note_on_c, 0, 84, 85
2, 78240, Note_on_c, 0, 68, 89
2, 78358, Note_on_c, 0, 68, 0
2, 78358, Note_on_c, 0, 84, 0
2, 78360, Note_on_c, 0, 82, 85
2, 78360, Note_on_c, 0, 67, 85
2, 78473, Note_on_c, 0, 82, 0
2, 78475, Note_on_c, 0, 67, 0
2, 78480, Note_on_c, 0, 80, 89
2, 78480, Note_on_c, 0, 72, 89
2, 78490, Note_on_c, 0, 80, 0
2, 78510, Note_on_c, 0, 80, 76
2, 78539, Note_on_c, 0, 80, 0
2, 78540, Note_on_c, 0, 82, 80
2, 78569, Note_on_c, 0, 82, 0
2, 78570, Note_on_c, 0, 84, 89
2, 78597, Note_on_c, 0, 72, 0
2, 78599, Note_on_c, 0, 84, 0
2, 78600, Note_on_c, 0, 79, 85
2, 78600, Note_on_c, 0, 70, 80
2, 78610, Note_on_c, 0, 79, 0
2, 78630, Note_on_c, 0, 79, 80
2, 78657, Note_on_c, 0, 79, 0
2, 78660, Note_on_c, 0, 80, 76
2, 78689, Note_on_c, 0, 80, 0
2, 78690, Note_on_c, 0, 82, 72
2, 78712, Note_on_c, 0, 70, 0
2, 78720, Note_on_c, 0, 77, 93
2, 78720, Note_on_c, 0, 68, 85
2, 78721, Note_on_c, 0, 82, 0
2, 78730, Note_on_c, 0, 68, 0
2, 78750, Note_on_c, 0, 68, 85
2, 78780, Note_on_c, 0, 70, 76
2, 78783, Note_on_c, 0, 68, 0
2, 78808, Note_on_c, 0, 70, 0
2, 78810, Note_on_c, 0, 72, 76
2, 78837, Note_on_c, 0, 77, 0
2, 78840, Note_on_c, 0, 72, 0
2, 78840, Note_on_c, 0, 75, 80
2, 78840, Note_on_c, 0, 67, 85
2, 78850, Note_on_c, 0, 67, 0
2, 78870, Note_on_c, 0, 67, 93
2, 78899, Note_on_c, 0, 67, 0
2, 78900, Note_on_c, 0, 68, 85
2, 78929, Note_on_c, 0, 68, 0
2, 78930, Note_on_c, 0, 70, 72
2, 78960, Note_on_c, 0, 70, 0
2, 78960, Note_on_c, 0, 65, 89
2, 79066, Note_on_c, 0, 75, 0
2, 79080, Note_on_c, 0, 74, 89
2, 79187, Note_on_c, 0, 65, 0
2, 79200, Note_on_c, 0, 63, 85
2, 79258, Note_on_c, 0, 74, 0
2, 79260, Note_on_c, 0, 72, 80
2, 79316, Note_on_c, 0, 63, 0
2, 79320, Note_on_c, 0, 62, 93
2, 79371, Note_on_c, 0, 72, 0
2, 79380, Note_on_c, 0, 71, 89
2, 79432, Note_on_c, 0, 62, 0
2, 79439, Note_on_c, 0, 71, 0
2, 79440, Note_on_c, 0, 72, 93
2, 79440, Note_on_c, 0, 60, 89
2, 79494, Note_on_c, 0, 60, 0
2, 79500, Note_on_c, 0, 75, 85
2, 79500, Note_on_c, 0, 72, 89
2, 79501, Note_on_c, 0, 72, 0
2, 79560, Note_on_c, 0, 72, 0
2, 79560, Note_on_c, 0, 73, 85
2, 79560, Note_on_c, 0, 70, 76
2, 79561, Note_on_c, 0, 75, 0
2, 79574, Note_on_c, 0, 70, 0
2, 79575, Note_on_c, 0, 68, 68
2, 79589, Note_on_c, 0, 68, 0
2, 79590, Note_on_c, 0, 70, 72
2, 79603, Note_on_c, 0, 70, 0
2, 79605, Note_on_c, 0, 68, 55
2, 79618, Note_on_c, 0, 68, 0
2, 79620, Note_on_c, 0, 72, 85
2, 79620, Note_on_c, 0, 70, 89
2, 79621, Note_on_c, 0, 73, 0
2, 79634, Note_on_c, 0, 70, 0
2, 79635, Note_on_c, 0, 68, 76
2, 79650, Note_on_c, 0, 67, 72
2, 79651, Note_on_c, 0, 68, 0
2, 79665, Note_on_c, 0, 68, 62
2, 79668, Note_on_c, 0, 67, 0
2, 79676, Note_on_c, 0, 72, 0
2, 79677, Note_on_c, 0, 68, 0
2, 79680, Note_on_c, 0, 71, 85
2, 79680, Note_on_c, 0, 67, 93
2, 79692, Note_on_c, 0, 67, 0
2, 79710, Note_on_c, 0, 67, 76
2, 79739, Note_on_c, 0, 67, 0
2, 79740, Note_on_c, 0, 66, 72
2, 79766, Note_on_c, 0, 66, 0
2, 79770, Note_on_c, 0, 67, 72
2, 79800, Note_on_c, 0, 67, 0
2, 79800, Note_on_c, 0, 71, 0
2, 79800, Note_on_c, 0, 66, 68
2, 79828, Note_on_c, 0, 66, 0
2, 79830, Note_on_c, 0, 67, 72
2, 79859, Note_on_c, 0, 67, 0
2, 79860, Note_on_c, 0, 79, 98
2, 79860, Note_on_c, 0, 66, 76
2, 79888, Note_on_c, 0, 66, 0
2, 79890, Note_on_c, 0, 67, 85
2, 79919, Note_on_c, 0, 67, 0
2, 79920, Note_on_c, 0, 68, 85
2, 79949, Note_on_c, 0, 68, 0
2, 79950, Note_on_c, 0, 67, 76
2, 79978, Note_on_c, 0, 79, 0
2, 79979, Note_on_c, 0, 67, 0
2, 79980, Note_on_c, 0, 77, 80
2, 79980, Note_on_c, 0, 69, 93
2, 80009, Note_on_c, 0, 69, 0
2, 80010, Note_on_c, 0, 67, 76
2, 80038, Note_on_c, 0, 77, 0
2, 80039, Note_on_c, 0, 67, 0
2, 80040, Note_on_c, 0, 70, 80
2, 80068, Note_on_c, 0, 70, 0
2, 80070, Note_on_c, 0, 67, 76
2, 80100, Note_on_c, 0, 67, 0
2, 80100, Note_on_c, 0, 77, 89
2, 80100, Note_on_c, 0, 71, 76
2, 80129, Note_on_c, 0, 71, 0
2, 80130, Note_on_c, 0, 67, 80
2, 80158, Note_on_c, 0, 67, 0
2, 80160, Note_on_c, 0, 72, 85
2, 80170, Note_on_c, 0, 72, 0
2, 80190, Note_on_c, 0, 67, 80
2, 80219, Note_on_c, 0, 77, 0
2, 80220, Note_on_c, 0, 75, 76
2, 80220, Note_on_c, 0, 66, 68
2, 80221, Note_on_c, 0, 67, 0
2, 80250, Note_on_c, 0, 66, 0
2, 80250, Note_on_c, 0, 67, 76
2, 80265, Note_on_c, 0, 75, 0
2, 80279, Note_on_c, 0, 67, 0
2, 80280, Note_on_c, 0, 66, 62
2, 80309, Note_on_c, 0, 66, 0
2, 80310, Note_on_c, 0, 67, 89
2, 80339, Note_on_c, 0, 67, 0
2, 80340, Note_on_c, 0, 79, 93
2, 80340, Note_on_c, 0, 66, 62
2, 80369, Note_on_c, 0, 66, 0
2, 80370, Note_on_c, 0, 67, 76
2, 80400, Note_on_c, 0, 68, 76
2, 80401, Note_on_c, 0, 67, 0
2, 80427, Note_on_c, 0, 68, 0
2, 80430, Note_on_c, 0, 67, 80
2, 80457, Note_on_c, 0, 79, 0
2, 80460, Note_on_c, 0, 77, 85
2, 80460, Note_on_c, 0, 69, 89
2, 80461, Note_on_c, 0, 67, 0
2, 80489, Note_on_c, 0, 69, 0
2, 80490, Note_on_c, 0, 67, 72
2, 80515, Note_on_c, 0, 77, 0
2, 80520, Note_on_c, 0, 67, 0
2, 80520, Note_on_c, 0, 70, 80
2, 80549, Note_on_c, 0, 70, 0
2, 80550, Note_on_c, 0, 67, 62
2, 80579, Note_on_c, 0, 67, 0
2, 80580, Note_on_c, 0, 77, 93
2, 80580, Note_on_c, 0, 71, 89
2, 80609, Note_on_c, 0, 71, 0
2, 80610, Note_on_c, 0, 67, 76
2, 80640, Note_on_c, 0, 67, 0
2, 80640, Note_on_c, 0, 72, 85
2, 80692, Note_on_c, 0, 72, 0
2, 80692, Note_on_c, 0, 77, 0
2, 80700, Note_on_c, 0, 76, 89
2, 80748, Note_on_c, 0, 76, 0
2, 80760, Note_on_c, 0, 82, 93
2, 80880, Note_on_c, 0, 84, 98
2, 80905, Note_on_c, 0, 82, 0
2, 80910, Note_on_c, 0, 80, 89
2, 80939, Note_on_c, 0, 80, 0
2, 80940, Note_on_c, 0, 79, 85
2, 80969, Note_on_c, 0, 79, 0
2, 80970, Note_on_c, 0, 77, 76
2, 80999, Note_on_c, 0, 77, 0
2, 81000, Note_on_c, 0, 76, 89
2, 81029, Note_on_c, 0, 76, 0
2, 81030, Note_on_c, 0, 73, 76
2, 81059, Note_on_c, 0, 73, 0
2, 81060, Note_on_c, 0, 72, 76
2, 81090, Note_on_c, 0, 70, 80
2, 81091, Note_on_c, 0, 72, 0
2, 81110, Note_on_c, 0, 84, 0
2, 81120, Note_on_c, 0, 77, 89
2, 81120, Note_on_c, 0, 68, 98
2, 81122, Note_on_c, 0, 70, 0
2, 81347, Note_on_c, 0, 68, 0
2, 81351, Note_on_c, 0, 77, 0
2, 81360, Note_on_c, 0, 79, 93
2, 81360, Note_on_c, 0, 72, 89
2, 81375, Note_on_c, 0, 70, 76
2, 81379, Note_on_c, 0, 72, 0
2, 81387, Note_on_c, 0, 70, 0
2, 81390, Note_on_c, 0, 72, 85
2, 81405, Note_on_c, 0, 70, 64
2, 81406, Note_on_c, 0, 72, 0
2, 81415, Note_on_c, 0, 70, 0
2, 81420, Note_on_c, 0, 72, 76
2, 81435, Note_on_c, 0, 70, 76
2, 81437, Note_on_c, 0, 72, 0
2, 81446, Note_on_c, 0, 70, 0
2, 81450, Note_on_c, 0, 72, 80
2, 81465, Note_on_c, 0, 70, 64
2, 81467, Note_on_c, 0, 72, 0
2, 81476, Note_on_c, 0, 70, 0
2, 81480, Note_on_c, 0, 72, 76
2, 81495, Note_on_c, 0, 70, 89
2, 81502, Note_on_c, 0, 72, 0
2, 81505, Note_on_c, 0, 70, 0
2, 81510, Note_on_c, 0, 72, 89
2, 81525, Note_on_c, 0, 70, 72
2, 81528, Note_on_c, 0, 72, 0
2, 81538, Note_on_c, 0, 70, 0
2, 81540, Note_on_c, 0, 68, 89
2, 81569, Note_on_c, 0, 68, 0
2, 81570, Note_on_c, 0, 67, 80
2, 81584, Note_on_c, 0, 79, 0
2, 81596, Note_on_c, 0, 67, 0
2, 81600, Note_on_c, 0, 80, 89
2, 81600, Note_on_c, 0, 65, 85
2, 81615, Note_on_c, 0, 80, 0
2, 81660, Note_on_c, 0, 80, 89
2, 81713, Note_on_c, 0, 65, 0
2, 81720, Note_on_c, 0, 79, 80
2, 81723, Note_on_c, 0, 80, 0
2, 81780, Note_on_c, 0, 79, 0
2, 81780, Note_on_c, 0, 77, 76
2, 81780, Note_on_c, 0, 72, 93
2, 81837, Note_on_c, 0, 77, 0
2, 81840, Note_on_c, 0, 82, 85
2, 81855, Note_on_c, 0, 82, 0
2, 81898, Note_on_c, 0, 72, 0
2, 81900, Note_on_c, 0, 82, 89
2, 81900, Note_on_c, 0, 70, 89
2, 81958, Note_on_c, 0, 82, 0
2, 81960, Note_on_c, 0, 80, 85
2, 81965, Note_on_c, 0, 70, 0
2, 82020, Note_on_c, 0, 80, 0
2, 82020, Note_on_c, 0, 79, 93
2, 82020, Note_on_c, 0, 70, 89
2, 82078, Note_on_c, 0, 79, 0
2, 82080, Note_on_c, 0, 84, 93
2, 82091, Note_on_c, 0, 84, 0
2, 82140, Note_on_c, 0, 84, 89
2, 82140, Note_on_c, 0, 68, 85
2, 82142, Note_on_c, 0, 70, 0
2, 82194, Note_on_c, 0, 68, 0
2, 82200, Note_on_c, 0, 84, 0
2, 82200, Note_on_c, 0, 82, 80
2, 82258, Note_on_c, 0, 82, 0
2, 82260, Note_on_c, 0, 80, 89
2, 82260, Note_on_c, 0, 77, 89
2, 82320, Note_on_c, 0, 80, 0
2, 82320, Note_on_c, 0, 85, 93
2, 82380, Note_on_c, 0, 76, 76
2, 82381, Note_on_c, 0, 77, 0
2, 82437, Note_on_c, 0, 76, 0
2, 82440, Note_on_c, 0, 85, 0
2, 82440, Note_on_c, 0, 84, 89
2, 82440, Note_on_c, 0, 77, 85
2, 82497, Note_on_c, 0, 77, 0
2, 82500, Note_on_c, 0, 75, 80
2, 82558, Note_on_c, 0, 75, 0
2, 82560, Note_on_c, 0, 74, 89
2, 82570, Note_on_c, 0, 74, 0
2, 82609, Note_on_c, 0, 84, 0
2, 82620, Note_on_c, 0, 77, 85
2, 82620, Note_on_c, 0, 74, 80
2, 82679, Note_on_c, 0, 74, 0
2, 82679, Note_on_c, 0, 77, 0
2, 82680, Note_on_c, 0, 82, 85
2, 82680, Note_on_c, 0, 72, 85
2, 82740, Note_on_c, 0, 70, 72
2, 82741, Note_on_c, 0, 72, 0
2, 82800, Note_on_c, 0, 70, 0
2, 82800, Note_on_c, 0, 75, 85
2, 82802, Note_on_c, 0, 82, 0
2, 82815, Note_on_c, 0, 75, 0
2, 82860, Note_on_c, 0, 75, 72
2, 82916, Note_on_c, 0, 75, 0
2, 82920, Note_on_c, 0, 74, 85
2, 82978, Note_on_c, 0, 74, 0
2, 82980, Note_on_c, 0, 72, 80
2, 83038, Note_on_c, 0, 72, 0
2, 83040, Note_on_c, 0, 77, 89
2, 83052, Note_on_c, 0, 77, 0
2, 83100, Note_on_c, 0, 77, 89
2, 83160, Note_on_c, 0, 75, 64
2, 83163, Note_on_c, 0, 77, 0
2, 83215, Note_on_c, 0, 75, 0
2, 83220, Note_on_c, 0, 80, 89
2, 83220, Note_on_c, 0, 74, 89
2, 83277, Note_on_c, 0, 80, 0
2, 83280, Note_on_c, 0, 74, 0
2, 83280, Note_on_c, 0, 78, 72
2, 83280, Note_on_c, 0, 75, 80
2, 83290, Note_on_c, 0, 75, 0
2, 83310, Note_on_c, 0, 70, 89
2, 83326, Note_on_c, 0, 78, 0
2, 83337, Note_on_c, 0, 70, 0
2, 83340, Note_on_c, 0, 78, 89
2, 83340, Note_on_c, 0, 71, 85
2, 83369, Note_on_c, 0, 71, 0
2, 83370, Note_on_c, 0, 70, 64
2, 83397, Note_on_c, 0, 78, 0
2, 83399, Note_on_c, 0, 70, 0
2, 83400, Note_on_c, 0, 77, 85
2, 83400, Note_on_c, 0, 71, 80
2, 83430, Note_on_c, 0, 70, 64
2, 83431, Note_on_c, 0, 71, 0
2, 83457, Note_on_c, 0, 77, 0
2, 83458, Note_on_c, 0, 70, 0
2, 83460, Note_on_c, 0, 75, 72
2, 83460, Note_on_c, 0, 71, 89
2, 83490, Note_on_c, 0, 71, 0
2, 83490, Note_on_c, 0, 70, 64
2, 83517, Note_on_c, 0, 75, 0
2, 83519, Note_on_c, 0, 70, 0
2, 83520, Note_on_c, 0, 80, 89
2, 83520, Note_on_c, 0, 72, 89
2, 83534, Note_on_c, 0, 80, 0
2, 83549, Note_on_c, 0, 72, 0
2, 83550, Note_on_c, 0, 70, 62
2, 83579, Note_on_c, 0, 70, 0
2, 83580, Note_on_c, 0, 80, 89
2, 83580, Note_on_c, 0, 72, 89
2, 83609, Note_on_c, 0, 72, 0
2, 83610, Note_on_c, 0, 70, 64
2, 83638, Note_on_c, 0, 80, 0
2, 83640, Note_on_c, 0, 78, 76
2, 83640, Note_on_c, 0, 73, 85
2, 83642, Note_on_c, 0, 70, 0
2, 83666, Note_on_c, 0, 73, 0
2, 83670, Note_on_c, 0, 70, 56
2, 83697, Note_on_c, 0, 78, 0
2, 83699, Note_on_c, 0, 70, 0
2, 83700, Note_on_c, 0, 77, 80
2, 83700, Note_on_c, 0, 73, 80
2, 83730, Note_on_c, 0, 73, 0
2, 83730, Note_on_c, 0, 70, 62
2, 83759, Note_on_c, 0, 77, 0
2, 83760, Note_on_c, 0, 70, 0
2, 83760, Note_on_c, 0, 82, 89
2, 83760, Note_on_c, 0, 74, 89
2, 83774, Note_on_c, 0, 82, 0
2, 83790, Note_on_c, 0, 74, 0
2, 83790, Note_on_c, 0, 70, 62
2, 83819, Note_on_c, 0, 70, 0
2, 83820, Note_on_c, 0, 82, 85
2, 83820, Note_on_c, 0, 74, 89
2, 83850, Note_on_c, 0, 74, 0
2, 83850, Note_on_c, 0, 70, 64
2, 83877, Note_on_c, 0, 82, 0
2, 83879, Note_on_c, 0, 70, 0
2, 83880, Note_on_c, 0, 80, 89
2, 83880, Note_on_c, 0, 75, 80
2, 83910, Note_on_c, 0, 70, 62
2, 83911, Note_on_c, 0, 75, 0
2, 83940, Note_on_c, 0, 70, 0
2, 83940, Note_on_c, 0, 80, 0
2, 83940, Note_on_c, 0, 79, 89
2, 83940, Note_on_c, 0, 76, 80
2, 83970, Note_on_c, 0, 76, 0
2, 83970, Note_on_c, 0, 72, 76
2, 83992, Note_on_c, 0, 79, 0
2, 83999, Note_on_c, 0, 72, 0
2, 84000, Note_on_c, 0, 80, 89
2, 84000, Note_on_c, 0, 77, 89
2, 84013, Note_on_c, 0, 80, 0
2, 84030, Note_on_c, 0, 84, 80
2, 84058, Note_on_c, 0, 84, 0
2, 84060, Note_on_c, 0, 83, 80
2, 84089, Note_on_c, 0, 83, 0
2, 84090, Note_on_c, 0, 84, 76
2, 84120, Note_on_c, 0, 84, 0
2, 84120, Note_on_c, 0, 83, 80
2, 84123, Note_on_c, 0, 77, 0
2, 84150, Note_on_c, 0, 83, 0
2, 84150, Note_on_c, 0, 84, 72
2, 84180, Note_on_c, 0, 84, 0
2, 84180, Note_on_c, 0, 83, 80
2, 84209, Note_on_c, 0, 83, 0
2, 84210, Note_on_c, 0, 84, 80
2, 84239, Note_on_c, 0, 84, 0
2, 84240, Note_on_c, 0, 82, 80
2, 84269, Note_on_c, 0, 82, 0
2, 84270, Note_on_c, 0, 84, 72
2, 84300, Note_on_c, 0, 84, 0
2, 84300, Note_on_c, 0, 82, 68
2, 84329, Note_on_c, 0, 82, 0
2, 84330, Note_on_c, 0, 84, 76
2, 84360, Note_on_c, 0, 82, 72
2, 84361, Note_on_c, 0, 84, 0
2, 84389, Note_on_c, 0, 82, 0
2, 84390, Note_on_c, 0, 84, 68
2, 84419, Note_on_c, 0, 84, 0
2, 84420, Note_on_c, 0, 82, 72
2, 84450, Note_on_c, 0, 82, 0
2, 84450, Note_on_c, 0, 84, 89
2, 84480, Note_on_c, 0, 84, 0
2, 84480, Note_on_c, 0, 81, 89
2, 84510, Note_on_c, 0, 81, 0
2, 84510, Note_on_c, 0, 84, 72
2, 84539, Note_on_c, 0, 84, 0
2, 84540, Note_on_c, 0, 81, 72
2, 84570, Note_on_c, 0, 81, 0
2, 84570, Note_on_c, 0, 84, 72
2, 84600, Note_on_c, 0, 80, 85
2, 84600, Note_on_c, 0, 77, 89
2, 84601, Note_on_c, 0, 84, 0
2, 84628, Note_on_c, 0, 80, 0
2, 84630, Note_on_c, 0, 84, 64
2, 84658, Note_on_c, 0, 84, 0
2, 84660, Note_on_c, 0, 80, 85
2, 84689, Note_on_c, 0, 80, 0
2, 84690, Note_on_c, 0, 84, 68
2, 84716, Note_on_c, 0, 77, 0
2, 84719, Note_on_c, 0, 84, 0
2, 84720, Note_on_c, 0, 79, 85
2, 84720, Note_on_c, 0, 76, 93
2, 84748, Note_on_c, 0, 79, 0
2, 84750, Note_on_c, 0, 84, 76
2, 84779, Note_on_c, 0, 84, 0
2, 84780, Note_on_c, 0, 79, 80
2, 84809, Note_on_c, 0, 79, 0
2, 84810, Note_on_c, 0, 84, 80
2, 84828, Note_on_c, 0, 76, 0
2, 84839, Note_on_c, 0, 84, 0
2, 84840, Note_on_c, 0, 78, 72
2, 84840, Note_on_c, 0, 77, 89
2, 84855, Note_on_c, 0, 75, 60
2, 84858, Note_on_c, 0, 77, 0
2, 84869, Note_on_c, 0, 75, 0
2, 84869, Note_on_c, 0, 78, 0
2, 84870, Note_on_c, 0, 84, 76
2, 84870, Note_on_c, 0, 77, 80
2, 84885, Note_on_c, 0, 77, 0
2, 84885, Note_on_c, 0, 75, 72
2, 84897, Note_on_c, 0, 75, 0
2, 84899, Note_on_c, 0, 84, 0
2, 84900, Note_on_c, 0, 78, 59
2, 84900, Note_on_c, 0, 77, 89
2, 84915, Note_on_c, 0, 75, 59
2, 84918, Note_on_c, 0, 77, 0
2, 84929, Note_on_c, 0, 75, 0
2, 84930, Note_on_c, 0, 84, 72
2, 84930, Note_on_c, 0, 74, 85
2, 84933, Note_on_c, 0, 78, 0
2, 84944, Note_on_c, 0, 74, 0
2, 84945, Note_on_c, 0, 75, 72
2, 84958, Note_on_c, 0, 75, 0
2, 84960, Note_on_c, 0, 84, 0
2, 84960, Note_on_c, 0, 77, 80
2, 84960, Note_on_c, 0, 74, 89
2, 84989, Note_on_c, 0, 77, 0
2, 84990, Note_on_c, 0, 84, 72
2, 85020, Note_on_c, 0, 84, 0
2, 85020, Note_on_c, 0, 77, 76
2, 85050, Note_on_c, 0, 82, 76
2, 85051, Note_on_c, 0, 77, 0
2, 85067, Note_on_c, 0, 74, 0
2, 85080, Note_on_c, 0, 82, 0
2, 85080, Note_on_c, 0, 75, 62
2, 85080, Note_on_c, 0, 75, 93
2, 85095, Note_on_c, 0, 73, 89
2, 85096, Note_on_c, 0, 75, 0
2, 85109, Note_on_c, 0, 73, 0
2, 85109, Note_on_c, 0, 75, 0
2, 85110, Note_on_c, 0, 82, 72
2, 85110, Note_on_c, 0, 75, 76
2, 85123, Note_on_c, 0, 75, 0
2, 85125, Note_on_c, 0, 73, 72
2, 85138, Note_on_c, 0, 73, 0
2, 85140, Note_on_c, 0, 75, 62
2, 85140, Note_on_c, 0, 75, 85
2, 85142, Note_on_c, 0, 82, 0
2, 85154, Note_on_c, 0, 75, 0
2, 85155, Note_on_c, 0, 73, 72
2, 85169, Note_on_c, 0, 75, 0
2, 85170, Note_on_c, 0, 73, 0
2, 85170, Note_on_c, 0, 82, 72
2, 85170, Note_on_c, 0, 72, 60
2, 85184, Note_on_c, 0, 72, 0
2, 85185, Note_on_c, 0, 73, 80
2, 85200, Note_on_c, 0, 73, 0
2, 85200, Note_on_c, 0, 75, 64
2, 85200, Note_on_c, 0, 72, 89
2, 85201, Note_on_c, 0, 82, 0
2, 85230, Note_on_c, 0, 75, 0
2, 85230, Note_on_c, 0, 82, 76
2, 85259, Note_on_c, 0, 82, 0
2, 85260, Note_on_c, 0, 75, 72
2, 85290, Note_on_c, 0, 75, 0
2, 85290, Note_on_c, 0, 80, 76
2, 85319, Note_on_c, 0, 80, 0
2, 85320, Note_on_c, 0, 74, 85
2, 85341, Note_on_c, 0, 72, 0
2, 85350, Note_on_c, 0, 80, 76
2, 85350, Note_on_c, 0, 71, 76
2, 85351, Note_on_c, 0, 74, 0
2, 85378, Note_on_c, 0, 80, 0
2, 85380, Note_on_c, 0, 74, 80
2, 85380, Note_on_c, 0, 72, 85
2, 85381, Note_on_c, 0, 71, 0
2, 85409, Note_on_c, 0, 72, 0
2, 85410, Note_on_c, 0, 80, 85
2, 85410, Note_on_c, 0, 74, 80
2, 85413, Note_on_c, 0, 74, 0
2, 85439, Note_on_c, 0, 80, 0
2, 85440, Note_on_c, 0, 74, 85
2, 85440, Note_on_c, 0, 71, 93
2, 85442, Note_on_c, 0, 74, 0
2, 85469, Note_on_c, 0, 74, 0
2, 85470, Note_on_c, 0, 80, 72
2, 85498, Note_on_c, 0, 71, 0
2, 85500, Note_on_c, 0, 80, 0
2, 85500, Note_on_c, 0, 73, 72
2, 85500, Note_on_c, 0, 70, 93
2, 85530, Note_on_c, 0, 79, 85
2, 85531, Note_on_c, 0, 73, 0
2, 85559, Note_on_c, 0, 79, 0
2, 85560, Note_on_c, 0, 72, 76
2, 85583, Note_on_c, 0, 70, 0
2, 85590, Note_on_c, 0, 72, 0
2, 85590, Note_on_c, 0, 79, 80
2, 85590, Note_on_c, 0, 69, 93
2, 85619, Note_on_c, 0, 79, 0
2, 85620, Note_on_c, 0, 72, 76
2, 85620, Note_on_c, 0, 70, 76
2, 85621, Note_on_c, 0, 69, 0
2, 85648, Note_on_c, 0, 70, 0
2, 85649, Note_on_c, 0, 72, 0
2, 85650, Note_on_c, 0, 79, 76
2, 85650, Note_on_c, 0, 72, 80
2, 85679, Note_on_c, 0, 79, 0
2, 85680, Note_on_c, 0, 77, 93
2, 85680, Note_on_c, 0, 68, 85
2, 85682, Note_on_c, 0, 72, 0
2, 85737, Note_on_c, 0, 68, 0
2, 85740, Note_on_c, 0, 69, 80
2, 85799, Note_on_c, 0, 69, 0
2, 85800, Note_on_c, 0, 70, 89
2, 85860, Note_on_c, 0, 70, 0
2, 85860, Note_on_c, 0, 71, 80
2, 85910, Note_on_c, 0, 77, 0
2, 85920, Note_on_c, 0, 76, 89
2, 85920, Note_on_c, 0, 72, 89
2, 85921, Note_on_c, 0, 71, 0
2, 86037, Note_on_c, 0, 76, 0
2, 86040, Note_on_c, 0, 77, 85
2, 86265, Note_on_c, 0, 77, 0
2, 86280, Note_on_c, 0, 76, 89
2, 86280, Note_on_c, 0, 70, 80
2, 86393, Note_on_c, 0, 70, 0
2, 86398, Note_on_c, 0, 76, 0
2, 86400, Note_on_c, 0, 77, 93
2, 86400, Note_on_c, 0, 68, 85
2, 86491, Note_on_c, 0, 72, 0
2, 86513, Note_on_c, 0, 77, 0
2, 86516, Note_on_c, 0, 68, 0
2, 86610, Note_on_c, 0, 70, 76
2, 86610, Note_on_c, 0, 67, 89
2, 86617, Note_on_c, 0, 68, 62
2, 86617, Note_on_c, 0, 65, 89
2, 86620, Note_on_c, 0, 67, 0
2, 86622, Note_on_c, 0, 70, 0
2, 86623, Note_on_c, 0, 68, 0
2, 86625, Note_on_c, 0, 67, 85
2, 86625, Note_on_c, 0, 64, 72
2, 86629, Note_on_c, 0, 65, 0
2, 86631, Note_on_c, 0, 68, 76
2, 86631, Note_on_c, 0, 65, 89
2, 86635, Note_on_c, 0, 67, 0
2, 86637, Note_on_c, 0, 64, 0
2, 86639, Note_on_c, 0, 68, 0
2, 86639, Note_on_c, 0, 65, 0
2, 86640, Note_on_c, 0, 72, 89
2, 86640, Note_on_c, 0, 68, 60
2, 86709, Note_on_c, 0, 68, 0
2, 86721, Note_on_c, 0, 72, 0
2, 86730, Note_on_c, 0, 72, 85
2, 86730, Note_on_c, 0, 68, 76
2, 86756, Note_on_c, 0, 68, 0
2, 86759, Note_on_c, 0, 72, 0
2, 86760, Note_on_c, 0, 70, 85
2, 86760, Note_on_c, 0, 67, 85
2, 86840, Note_on_c, 0, 70, 0
2, 86848, Note_on_c, 0, 67, 0
2, 86850, Note_on_c, 0, 68, 93
2, 86850, Note_on_c, 0, 65, 85
2, 86869, Note_on_c, 0, 68, 0
2, 86877, Note_on_c, 0, 65, 0
2, 86880, Note_on_c, 0, 79, 93
2, 86880, Note_on_c, 0, 70, 72
2, 86880, Note_on_c, 0, 73, 89
2, 86880, Note_on_c, 0, 67, 93
2, 86994, Note_on_c, 0, 73, 0
2, 86994, Note_on_c, 0, 70, 0
2, 86996, Note_on_c, 0, 79, 0
2, 87001, Note_on_c, 0, 67, 0
2, 87090, Note_on_c, 0, 72, 80
2, 87090, Note_on_c, 0, 68, 93
2, 87097, Note_on_c, 0, 70, 80
2, 87097, Note_on_c, 0, 67, 80
2, 87100, Note_on_c, 0, 68, 0
2, 87101, Note_on_c, 0, 72, 0
2, 87104, Note_on_c, 0, 67, 0
2, 87105, Note_on_c, 0, 69, 76
2, 87105, Note_on_c, 0, 66, 72
2, 87108, Note_on_c, 0, 70, 0
2, 87111, Note_on_c, 0, 70, 76
2, 87111, Note_on_c, 0, 67, 89
2, 87114, Note_on_c, 0, 66, 0
2, 87114, Note_on_c, 0, 69, 0
2, 87117, Note_on_c, 0, 70, 0
2, 87120, Note_on_c, 0, 73, 93
2, 87120, Note_on_c, 0, 70, 62
2, 87121, Note_on_c, 0, 67, 0
2, 87187, Note_on_c, 0, 70, 0
2, 87201, Note_on_c, 0, 73, 0
2, 87210, Note_on_c, 0, 73, 85
2, 87210, Note_on_c, 0, 70, 85
2, 87235, Note_on_c, 0, 73, 0
2, 87237, Note_on_c, 0, 70, 0
2, 87240, Note_on_c, 0, 72, 89
2, 87240, Note_on_c, 0, 68, 98
2, 87318, Note_on_c, 0, 72, 0
2, 87329, Note_on_c, 0, 68, 0
2, 87330, Note_on_c, 0, 70, 80
2, 87330, Note_on_c, 0, 67, 93
2, 87345, Note_on_c, 0, 70, 0
2, 87355, Note_on_c, 0, 67, 0
2, 87360, Note_on_c, 0, 75, 89
2, 87360, Note_on_c, 0, 81, 102
2, 87360, Note_on_c, 0, 72, 107
2, 87360, Note_on_c, 0, 69, 93
2, 87468, Note_on_c, 0, 81, 0
2, 87469, Note_on_c, 0, 75, 0
2, 87471, Note_on_c, 0, 72, 0
2, 87481, Note_on_c, 0, 69, 0
2, 87570, Note_on_c, 0, 73, 76
2, 87570, Note_on_c, 0, 70, 85
2, 87577, Note_on_c, 0, 72, 76
2, 87577, Note_on_c, 0, 69, 89
2, 87581, Note_on_c, 0, 70, 0
2, 87583, Note_on_c, 0, 73, 0
2, 87585, Note_on_c, 0, 71, 76
2, 87585, Note_on_c, 0, 68, 80
2, 87587, Note_on_c, 0, 72, 0
2, 87588, Note_on_c, 0, 69, 0
2, 87591, Note_on_c, 0, 72, 72
2, 87591, Note_on_c, 0, 69, 89
2, 87593, Note_on_c, 0, 68, 0
2, 87595, Note_on_c, 0, 71, 0
2, 87600, Note_on_c, 0, 72, 0
2, 87600, Note_on_c, 0, 75, 62
2, 87600, Note_on_c, 0, 72, 93
2, 87601, Note_on_c, 0, 69, 0
2, 87672, Note_on_c, 0, 75, 0
2, 87674, Note_on_c, 0, 72, 0
2, 87690, Note_on_c, 0, 75, 89
2, 87690, Note_on_c, 0, 72, 93
2, 87713, Note_on_c, 0, 72, 0
2, 87714, Note_on_c, 0, 75, 0
2, 87720, Note_on_c, 0, 73, 80
2, 87720, Note_on_c, 0, 70, 93
2, 87803, Note_on_c, 0, 73, 0
2, 87804, Note_on_c, 0, 70, 0
2, 87810, Note_on_c, 0, 72, 93
2, 87810, Note_on_c, 0, 69, 98
2, 87830, Note_on_c, 0, 69, 0
2, 87834, Note_on_c, 0, 72, 0
2, 87840, Note_on_c, 0, 82, 93
2, 87840, Note_on_c, 0, 77, 102
2, 87840, Note_on_c, 0, 74, 98
2, 87920, Note_on_c, 0, 74, 0
2, 87930, Note_on_c, 0, 74, 89
2, 87950, Note_on_c, 0, 77, 0
2, 87952, Note_on_c, 0, 82, 0
2, 87959, Note_on_c, 0, 74, 0
2, 87960, Note_on_c, 0, 72, 89
2, 88043, Note_on_c, 0, 72, 0
2, 88050, Note_on_c, 0, 70, 89
2, 88078, Note_on_c, 0, 70, 0
2, 88080, Note_on_c, 0, 77, 93
2, 88080, Note_on_c, 0, 83, 93
2, 88080, Note_on_c, 0, 80, 93
2, 88150, Note_on_c, 0, 80, 0
2, 88170, Note_on_c, 0, 80, 80
2, 88194, Note_on_c, 0, 77, 0
2, 88197, Note_on_c, 0, 83, 0
2, 88200, Note_on_c, 0, 79, 93
2, 88202, Note_on_c, 0, 80, 0
2, 88289, Note_on_c, 0, 79, 0
2, 88290, Note_on_c, 0, 77, 89
2, 88319, Note_on_c, 0, 77, 0
2, 88320, Note_on_c, 0, 84, 93
2, 88320, Note_on_c, 0, 79, 93
2, 88320, Note_on_c, 0, 76, 93
2, 88432, Note_on_c, 0, 76, 0
2, 88435, Note_on_c, 0, 79, 0
2, 88439, Note_on_c, 0, 84, 0
2, 88500, Note_on_c, 0, 84, 89
2, 88785, Note_on_c, 0, 84, 0
2, 88800, Note_on_c, 0, 77, 89
2, 89024, Note_on_c, 0, 77, 0
2, 89040, Note_on_c, 0, 80, 76
2, 89040, Note_on_c, 0, 72, 93
2, 89055, Note_on_c, 0, 79, 76
2, 89056, Note_on_c, 0, 80, 0
2, 89069, Note_on_c, 0, 79, 0
2, 89070, Note_on_c, 0, 80, 60
2, 89082, Note_on_c, 0, 80, 0
2, 89085, Note_on_c, 0, 79, 64
2, 89100, Note_on_c, 0, 79, 0
2, 89100, Note_on_c, 0, 80, 68
2, 89114, Note_on_c, 0, 80, 0
2, 89115, Note_on_c, 0, 79, 76
2, 89129, Note_on_c, 0, 79, 0
2, 89130, Note_on_c, 0, 80, 55
2, 89145, Note_on_c, 0, 80, 0
2, 89145, Note_on_c, 0, 79, 64
2, 89158, Note_on_c, 0, 79, 0
2, 89160, Note_on_c, 0, 80, 60
2, 89173, Note_on_c, 0, 80, 0
2, 89175, Note_on_c, 0, 79, 60
2, 89190, Note_on_c, 0, 79, 0
2, 89190, Note_on_c, 0, 80, 59
2, 89200, Note_on_c, 0, 80, 0
2, 89205, Note_on_c, 0, 79, 56
2, 89220, Note_on_c, 0, 77, 76
2, 89223, Note_on_c, 0, 79, 0
2, 89250, Note_on_c, 0, 79, 80
2, 89251, Note_on_c, 0, 77, 0
2, 89266, Note_on_c, 0, 72, 0
2, 89279, Note_on_c, 0, 79, 0
2, 89280, Note_on_c, 0, 80, 80
2, 89280, Note_on_c, 0, 65, 80
2, 89298, Note_on_c, 0, 80, 0
2, 89340, Note_on_c, 0, 80, 93
2, 89398, Note_on_c, 0, 80, 0
2, 89400, Note_on_c, 0, 79, 89
2, 89458, Note_on_c, 0, 79, 0
2, 89460, Note_on_c, 0, 77, 76
2, 89511, Note_on_c, 0, 65, 0
2, 89518, Note_on_c, 0, 77, 0
2, 89520, Note_on_c, 0, 82, 89
2, 89520, Note_on_c, 0, 68, 89
2, 89535, Note_on_c, 0, 82, 0
2, 89535, Note_on_c, 0, 67, 89
2, 89536, Note_on_c, 0, 68, 0
2, 89549, Note_on_c, 0, 67, 0
2, 89550, Note_on_c, 0, 68, 64
2, 89563, Note_on_c, 0, 68, 0
2, 89565, Note_on_c, 0, 67, 85
2, 89578, Note_on_c, 0, 67, 0
2, 89580, Note_on_c, 0, 82, 76
2, 89580, Note_on_c, 0, 68, 76
2, 89595, Note_on_c, 0, 68, 0
2, 89595, Note_on_c, 0, 67, 72
2, 89608, Note_on_c, 0, 67, 0
2, 89610, Note_on_c, 0, 68, 62
2, 89624, Note_on_c, 0, 68, 0
2, 89625, Note_on_c, 0, 67, 68
2, 89638, Note_on_c, 0, 67, 0
2, 89638, Note_on_c, 0, 82, 0
2, 89640, Note_on_c, 0, 80, 85
2, 89640, Note_on_c, 0, 68, 76
2, 89654, Note_on_c, 0, 68, 0
2, 89655, Note_on_c, 0, 67, 68
2, 89669, Note_on_c, 0, 67, 0
2, 89670, Note_on_c, 0, 68, 72
2, 89684, Note_on_c, 0, 68, 0
2, 89685, Note_on_c, 0, 67, 68
2, 89698, Note_on_c, 0, 80, 0
2, 89700, Note_on_c, 0, 67, 0
2, 89700, Note_on_c, 0, 79, 85
2, 89700, Note_on_c, 0, 65, 89
2, 89726, Note_on_c, 0, 65, 0
2, 89730, Note_on_c, 0, 67, 89
2, 89758, Note_on_c, 0, 79, 0
2, 89760, Note_on_c, 0, 84, 93
2, 89760, Note_on_c, 0, 68, 89
2, 89761, Note_on_c, 0, 67, 0
2, 89791, Note_on_c, 0, 68, 0
2, 89820, Note_on_c, 0, 68, 98
2, 89880, Note_on_c, 0, 67, 93
2, 89882, Note_on_c, 0, 68, 0
2, 89939, Note_on_c, 0, 67, 0
2, 89940, Note_on_c, 0, 65, 85
2, 89998, Note_on_c, 0, 65, 0
2, 90000, Note_on_c, 0, 74, 93
2, 90014, Note_on_c, 0, 74, 0
2, 90050, Note_on_c, 0, 84, 0
2, 90060, Note_on_c, 0, 77, 62
2, 90060, Note_on_c, 0, 74, 93
2, 90115, Note_on_c, 0, 74, 0
2, 90116, Note_on_c, 0, 77, 0
2, 90120, Note_on_c, 0, 82, 85
2, 90120, Note_on_c, 0, 72, 76
2, 90133, Note_on_c, 0, 82, 0
2, 90176, Note_on_c, 0, 72, 0
2, 90180, Note_on_c, 0, 82, 85
2, 90180, Note_on_c, 0, 70, 85
2, 90192, Note_on_c, 0, 82, 0
2, 90234, Note_on_c, 0, 70, 0
2, 90240, Note_on_c, 0, 82, 89
2, 90240, Note_on_c, 0, 76, 93
2, 90347, Note_on_c, 0, 82, 0
2, 90354, Note_on_c, 0, 76, 0
2, 90480, Note_on_c, 0, 82, 98
2, 90480, Note_on_c, 0, 74, 93
2, 90590, Note_on_c, 0, 74, 0
2, 90591, Note_on_c, 0, 82, 0
2, 90720, Note_on_c, 0, 82, 76
2, 90720, Note_on_c, 0, 79, 93
2, 90720, Note_on_c, 0, 72, 98
2, 90833, Note_on_c, 0, 72, 0
2, 90837, Note_on_c, 0, 79, 0
2, 90838, Note_on_c, 0, 82, 0
2, 90960, Note_on_c, 0, 77, 93
2, 90960, Note_on_c, 0, 80, 93
2, 90960, Note_on_c, 0, 71, 98
2, 90960, Note_on_c, 0, 74, 89
2, 91075, Note_on_c, 0, 80, 0
2, 91076, Note_on_c, 0, 77, 0
2, 91078, Note_on_c, 0, 71, 0
2, 91078, Note_on_c, 0, 74, 0
2, 91200, Note_on_c, 0, 76, 89
2, 91200, Note_on_c, 0, 79, 85
2, 91200, Note_on_c, 0, 73, 89
2, 91312, Note_on_c, 0, 79, 0
2, 91315, Note_on_c, 0, 76, 0
2, 91317, Note_on_c, 0, 73, 0
2, 91320, Note_on_c, 0, 77, 89
2, 91320, Note_on_c, 0, 72, 89
2, 91435, Note_on_c, 0, 72, 0
2, 91440, Note_on_c, 0, 73, 89
2, 91549, Note_on_c, 0, 77, 0
2, 91556, Note_on_c, 0, 73, 0
2, 91560, Note_on_c, 0, 76, 85
2, 91560, Note_on_c, 0, 72, 80
2, 91617, Note_on_c, 0, 72, 0
2, 91620, Note_on_c, 0, 70, 85
2, 91672, Note_on_c, 0, 76, 0
2, 91680, Note_on_c, 0, 77, 89
2, 91680, Note_on_c, 0, 68, 89
2, 91681, Note_on_c, 0, 70, 0
2, 91687, Note_on_c, 0, 68, 0
2, 91710, Note_on_c, 0, 72, 76
2, 91739, Note_on_c, 0, 72, 0
2, 91740, Note_on_c, 0, 71, 72
2, 91768, Note_on_c, 0, 71, 0
2, 91770, Note_on_c, 0, 72, 76
2, 91799, Note_on_c, 0, 72, 0
2, 91800, Note_on_c, 0, 71, 76
2, 91805, Note_on_c, 0, 77, 0
2, 91828, Note_on_c, 0, 71, 0
2, 91830, Note_on_c, 0, 72, 80
2, 91859, Note_on_c, 0, 72, 0
2, 91860, Note_on_c, 0, 71, 80
2, 91889, Note_on_c, 0, 71, 0
2, 91890, Note_on_c, 0, 72, 80
2, 91918, Note_on_c, 0, 72, 0
2, 91920, Note_on_c, 0, 73, 72
2, 91949, Note_on_c, 0, 73, 0
2, 91950, Note_on_c, 0, 72, 72
2, 91978, Note_on_c, 0, 72, 0
2, 91980, Note_on_c, 0, 74, 89
2, 92007, Note_on_c, 0, 74, 0
2, 92010, Note_on_c, 0, 72, 76
2, 92039, Note_on_c, 0, 72, 0
2, 92040, Note_on_c, 0, 82, 85
2, 92040, Note_on_c, 0, 79, 98
2, 92040, Note_on_c, 0, 75, 64
2, 92067, Note_on_c, 0, 75, 0
2, 92070, Note_on_c, 0, 72, 72
2, 92099, Note_on_c, 0, 72, 0
2, 92100, Note_on_c, 0, 76, 85
2, 92128, Note_on_c, 0, 76, 0
2, 92130, Note_on_c, 0, 72, 76
2, 92155, Note_on_c, 0, 79, 0
2, 92156, Note_on_c, 0, 72, 0
2, 92157, Note_on_c, 0, 82, 0
2, 92160, Note_on_c, 0, 80, 93
2, 92160, Note_on_c, 0, 77, 85
2, 92170, Note_on_c, 0, 77, 0
2, 92190, Note_on_c, 0, 72, 85
2, 92219, Note_on_c, 0, 72, 0
2, 92220, Note_on_c, 0, 71, 76
2, 92248, Note_on_c, 0, 71, 0
2, 92250, Note_on_c, 0, 72, 76
2, 92278, Note_on_c, 0, 72, 0
2, 92278, Note_on_c, 0, 80, 0
2, 92280, Note_on_c, 0, 71, 80
2, 92308, Note_on_c, 0, 71, 0
2, 92310, Note_on_c, 0, 72, 72
2, 92339, Note_on_c, 0, 72, 0
2, 92340, Note_on_c, 0, 71, 89
2, 92366, Note_on_c, 0, 71, 0
2, 92370, Note_on_c, 0, 72, 76
2, 92400, Note_on_c, 0, 72, 0
2, 92400, Note_on_c, 0, 73, 80
2, 92428, Note_on_c, 0, 73, 0
2, 92430, Note_on_c, 0, 72, 68
2, 92458, Note_on_c, 0, 72, 0
2, 92460, Note_on_c, 0, 74, 85
2, 92489, Note_on_c, 0, 74, 0
2, 92490, Note_on_c, 0, 72, 64
2, 92519, Note_on_c, 0, 72, 0
2, 92520, Note_on_c, 0, 82, 72
2, 92520, Note_on_c, 0, 79, 89
2, 92520, Note_on_c, 0, 75, 85
2, 92549, Note_on_c, 0, 75, 0
2, 92550, Note_on_c, 0, 72, 72
2, 92579, Note_on_c, 0, 72, 0
2, 92580, Note_on_c, 0, 76, 85
2, 92609, Note_on_c, 0, 76, 0
2, 92610, Note_on_c, 0, 72, 76
2, 92632, Note_on_c, 0, 79, 0
2, 92633, Note_on_c, 0, 82, 0
2, 92637, Note_on_c, 0, 72, 0
2, 92640, Note_on_c, 0, 80, 89
2, 92640, Note_on_c, 0, 77, 89
2, 92752, Note_on_c, 0, 80, 0
2, 92763, Note_on_c, 0, 77, 0
2, 93000, Note_on_c, 0, 84, 93
2, 93000, Note_on_c, 0, 75, 85
2, 93000, Note_on_c, 0, 77, 89
2, 93013, Note_on_c, 0, 84, 0
2, 93015, Note_on_c, 0, 82, 80
2, 93026, Note_on_c, 0, 82, 0
2, 93030, Note_on_c, 0, 84, 72
2, 93044, Note_on_c, 0, 84, 0
2, 93045, Note_on_c, 0, 82, 72
2, 93056, Note_on_c, 0, 82, 0
2, 93060, Note_on_c, 0, 84, 80
2, 93073, Note_on_c, 0, 84, 0
2, 93075, Note_on_c, 0, 82, 76
2, 93086, Note_on_c, 0, 82, 0
2, 93090, Note_on_c, 0, 84, 72
2, 93098, Note_on_c, 0, 75, 0
2, 93101, Note_on_c, 0, 77, 0
2, 93104, Note_on_c, 0, 84, 0
2, 93105, Note_on_c, 0, 82, 72
2, 93117, Note_on_c, 0, 82, 0
2, 93120, Note_on_c, 0, 84, 64
2, 93120, Note_on_c, 0, 85, 85
2, 93120, Note_on_c, 0, 77, 93
2, 93120, Note_on_c, 0, 73, 76
2, 93137, Note_on_c, 0, 84, 0
2, 93162, Note_on_c, 0, 77, 0
2, 93164, Note_on_c, 0, 85, 0
2, 93165, Note_on_c, 0, 73, 0
2, 93180, Note_on_c, 0, 85, 89
2, 93180, Note_on_c, 0, 82, 93
2, 93180, Note_on_c, 0, 77, 102
2, 93227, Note_on_c, 0, 82, 0
2, 93228, Note_on_c, 0, 77, 0
2, 93236, Note_on_c, 0, 85, 0
2, 93300, Note_on_c, 0, 82, 89
2, 93300, Note_on_c, 0, 79, 93
2, 93300, Note_on_c, 0, 73, 80
2, 93345, Note_on_c, 0, 79, 0
2, 93348, Note_on_c, 0, 82, 0
2, 93349, Note_on_c, 0, 73, 0
2, 93420, Note_on_c, 0, 80, 89
2, 93420, Note_on_c, 0, 72, 89
2, 93420, Note_on_c, 0, 77, 89
2, 93467, Note_on_c, 0, 77, 0
2, 93468, Note_on_c, 0, 72, 0
2, 93474, Note_on_c, 0, 80, 0
2, 93540, Note_on_c, 0, 79, 93
2, 93540, Note_on_c, 0, 76, 85
2, 93540, Note_on_c, 0, 70, 85
2, 93574, Note_on_c, 0, 79, 0
2, 93597, Note_on_c, 0, 70, 0
2, 93599, Note_on_c, 0, 76, 0
2, 93600, Note_on_c, 0, 77, 85
2, 93600, Note_on_c, 0, 68, 85
2, 93611, Note_on_c, 0, 77, 0
2, 93630, Note_on_c, 0, 84, 89
2, 93660, Note_on_c, 0, 84, 0
2, 93660, Note_on_c, 0, 85, 68
2, 93688, Note_on_c, 0, 85, 0
2, 93690, Note_on_c, 0, 84, 76
2, 93718, Note_on_c, 0, 68, 0
2, 93719, Note_on_c, 0, 84, 0
2, 93720, Note_on_c, 0, 85, 76
2, 93750, Note_on_c, 0, 85, 0
2, 93750, Note_on_c, 0, 84, 76
2, 93778, Note_on_c, 0, 84, 0
2, 93780, Note_on_c, 0, 85, 72
2, 93808, Note_on_c, 0, 85, 0
2, 93810, Note_on_c, 0, 84, 76
2, 93839, Note_on_c, 0, 84, 0
2, 93840, Note_on_c, 0, 83, 85
2, 93869, Note_on_c, 0, 83, 0
2, 93870, Note_on_c, 0, 84, 80
2, 93900, Note_on_c, 0, 84, 0
2, 93900, Note_on_c, 0, 82, 68
2, 93927, Note_on_c, 0, 82, 0
2, 93930, Note_on_c, 0, 84, 76
2, 93960, Note_on_c, 0, 84, 0
2, 93960, Note_on_c, 0, 80, 76
2, 93960, Note_on_c, 0, 77, 98
2, 93973, Note_on_c, 0, 77, 0
2, 93975, Note_on_c, 0, 76, 85
2, 93989, Note_on_c, 0, 76, 0
2, 93989, Note_on_c, 0, 80, 0
2, 93990, Note_on_c, 0, 84, 80
2, 93990, Note_on_c, 0, 77, 76
2, 94002, Note_on_c, 0, 77, 0
2, 94005, Note_on_c, 0, 76, 76
2, 94018, Note_on_c, 0, 76, 0
2, 94020, Note_on_c, 0, 84, 0
2, 94020, Note_on_c, 0, 79, 80
2, 94020, Note_on_c, 0, 77, 85
2, 94033, Note_on_c, 0, 77, 0
2, 94035, Note_on_c, 0, 76, 85
2, 94047, Note_on_c, 0, 79, 0
2, 94050, Note_on_c, 0, 76, 0
2, 94050, Note_on_c, 0, 84, 72
2, 94050, Note_on_c, 0, 74, 72
2, 94064, Note_on_c, 0, 74, 0
2, 94065, Note_on_c, 0, 76, 80
2, 94077, Note_on_c, 0, 76, 0
2, 94077, Note_on_c, 0, 84, 0
2, 94080, Note_on_c, 0, 77, 89
2, 94080, Note_on_c, 0, 77, 93
2, 94091, Note_on_c, 0, 77, 0
2, 94110, Note_on_c, 0, 84, 85
2, 94139, Note_on_c, 0, 84, 0
2, 94140, Note_on_c, 0, 85, 68
2, 94170, Note_on_c, 0, 84, 76
2, 94172, Note_on_c, 0, 85, 0
2, 94199, Note_on_c, 0, 84, 0
2, 94199, Note_on_c, 0, 77, 0
2, 94200, Note_on_c, 0, 85, 68
2, 94230, Note_on_c, 0, 85, 0
2, 94230, Note_on_c, 0, 84, 80
2, 94260, Note_on_c, 0, 84, 0
2, 94260, Note_on_c, 0, 85, 68
2, 94290, Note_on_c, 0, 84, 72
2, 94293, Note_on_c, 0, 85, 0
2, 94320, Note_on_c, 0, 83, 89
2, 94321, Note_on_c, 0, 84, 0
2, 94349, Note_on_c, 0, 83, 0
2, 94350, Note_on_c, 0, 84, 76
2, 94380, Note_on_c, 0, 84, 0
2, 94380, Note_on_c, 0, 82, 68
2, 94408, Note_on_c, 0, 82, 0
2, 94410, Note_on_c, 0, 84, 76
2, 94438, Note_on_c, 0, 84, 0
2, 94440, Note_on_c, 0, 80, 76
2, 94440, Note_on_c, 0, 77, 89
2, 94452, Note_on_c, 0, 77, 0
2, 94455, Note_on_c, 0, 76, 76
2, 94467, Note_on_c, 0, 76, 0
2, 94470, Note_on_c, 0, 80, 0
2, 94470, Note_on_c, 0, 84, 72
2, 94470, Note_on_c, 0, 77, 76
2, 94481, Note_on_c, 0, 77, 0
2, 94485, Note_on_c, 0, 76, 62
2, 94498, Note_on_c, 0, 84, 0
2, 94500, Note_on_c, 0, 76, 0
2, 94500, Note_on_c, 0, 79, 85
2, 94500, Note_on_c, 0, 77, 76
2, 94513, Note_on_c, 0, 77, 0
2, 94515, Note_on_c, 0, 76, 72
2, 94528, Note_on_c, 0, 79, 0
2, 94530, Note_on_c, 0, 76, 0
2, 94530, Note_on_c, 0, 84, 72
2, 94530, Note_on_c, 0, 74, 68
2, 94543, Note_on_c, 0, 74, 0
2, 94545, Note_on_c, 0, 76, 72
2, 94557, Note_on_c, 0, 76, 0
2, 94558, Note_on_c, 0, 84, 0
2, 94560, Note_on_c, 0, 77, 89
2, 94560, Note_on_c, 0, 77, 89
2, 94671, Note_on_c, 0, 77, 0
2, 94672, Note_on_c, 0, 77, 0
2, 94740, Note_on_c, 0, 77, 89
2, 94793, Note_on_c, 0, 77, 0
2, 94800, Note_on_c, 0, 79, 89
2, 94859, Note_on_c, 0, 79, 0
2, 94860, Note_on_c, 0, 81, 93
2, 94860, Note_on_c, 0, 72, 85
2, 94917, Note_on_c, 0, 81, 0
2, 94920, Note_on_c, 0, 72, 0
2, 94920, Note_on_c, 0, 82, 76
2, 94920, Note_on_c, 0, 73, 89
2, 94976, Note_on_c, 0, 82, 0
2, 94977, Note_on_c, 0, 73, 0
2, 94980, Note_on_c, 0, 84, 76
2, 94980, Note_on_c, 0, 75, 76
2, 95035, Note_on_c, 0, 75, 0
2, 95040, Note_on_c, 0, 85, 76
2, 95040, Note_on_c, 0, 73, 76
2, 95042, Note_on_c, 0, 84, 0
2, 95088, Note_on_c, 0, 85, 0
2, 95092, Note_on_c, 0, 73, 0
2, 95100, Note_on_c, 0, 85, 85
2, 95100, Note_on_c, 0, 82, 85
2, 95100, Note_on_c, 0, 77, 89
2, 95150, Note_on_c, 0, 85, 0
2, 95153, Note_on_c, 0, 77, 0
2, 95155, Note_on_c, 0, 82, 0
2, 95220, Note_on_c, 0, 82, 89
2, 95220, Note_on_c, 0, 73, 72
2, 95220, Note_on_c, 0, 79, 93
2, 95265, Note_on_c, 0, 82, 0
2, 95271, Note_on_c, 0, 73, 0
2, 95273, Note_on_c, 0, 79, 0
2, 95340, Note_on_c, 0, 80, 89
2, 95340, Note_on_c, 0, 72, 89
2, 95340, Note_on_c, 0, 77, 89
2, 95385, Note_on_c, 0, 77, 0
2, 95387, Note_on_c, 0, 72, 0
2, 95392, Note_on_c, 0, 80, 0
2, 95460, Note_on_c, 0, 79, 93
2, 95460, Note_on_c, 0, 76, 93
2, 95460, Note_on_c, 0, 70, 76
2, 95493, Note_on_c, 0, 70, 0
2, 95495, Note_on_c, 0, 76, 0
2, 95516, Note_on_c, 0, 79, 0
2, 95520, Note_on_c, 0, 80, 85
2, 95548, Note_on_c, 0, 80, 0
2, 95550, Note_on_c, 0, 84, 76
2, 95577, Note_on_c, 0, 84, 0
2, 95580, Note_on_c, 0, 76, 72
2, 95609, Note_on_c, 0, 76, 0
2, 95610, Note_on_c, 0, 79, 68
2, 95639, Note_on_c, 0, 79, 0
2, 95640, Note_on_c, 0, 77, 85
2, 95670, Note_on_c, 0, 80, 76
2, 95671, Note_on_c, 0, 77, 0
2, 95699, Note_on_c, 0, 80, 0
2, 95700, Note_on_c, 0, 74, 80
2, 95700, Note_on_c, 0, 62, 76
2, 95729, Note_on_c, 0, 62, 0
2, 95729, Note_on_c, 0, 74, 0
2, 95730, Note_on_c, 0, 77, 72
2, 95730, Note_on_c, 0, 65, 80
2, 95756, Note_on_c, 0, 65, 0
2, 95760, Note_on_c, 0, 77, 0
2, 95760, Note_on_c, 0, 75, 76
2, 95760, Note_on_c, 0, 63, 80
2, 95789, Note_on_c, 0, 63, 0
2, 95790, Note_on_c, 0, 75, 0
2, 95790, Note_on_c, 0, 78, 64
2, 95790, Note_on_c, 0, 66, 72
2, 95819, Note_on_c, 0, 66, 0
2, 95820, Note_on_c, 0, 78, 0
2, 95820, Note_on_c, 0, 71, 80
2, 95820, Note_on_c, 0, 59, 76
2, 95848, Note_on_c, 0, 71, 0
2, 95849, Note_on_c, 0, 59, 0
2, 95850, Note_on_c, 0, 74, 80
2, 95850, Note_on_c, 0, 62, 80
2, 95878, Note_on_c, 0, 74, 0
2, 95879, Note_on_c, 0, 62, 0
2, 95880, Note_on_c, 0, 72, 80
2, 95880, Note_on_c, 0, 60, 85
2, 95910, Note_on_c, 0, 60, 0
2, 95910, Note_on_c, 0, 75, 60
2, 95910, Note_on_c, 0, 63, 51
2, 95912, Note_on_c, 0, 72, 0
2, 95939, Note_on_c, 0, 75, 0
2, 95940, Note_on_c, 0, 63, 0
2, 95940, Note_on_c, 0, 81, 76
2, 95940, Note_on_c, 0, 69, 64
2, 95969, Note_on_c, 0, 69, 0
2, 95969, Note_on_c, 0, 81, 0
2, 95970, Note_on_c, 0, 84, 72
2, 95970, Note_on_c, 0, 72, 76
2, 95999, Note_on_c, 0, 72, 0
2, 95999, Note_on_c, 0, 84, 0
2, 96000, Note_on_c, 0, 82, 80
2, 96000, Note_on_c, 0, 70, 72
2, 96029, Note_on_c, 0, 70, 0
2, 96029, Note_on_c, 0, 82, 0
2, 96030, Note_on_c, 0, 85, 68
2, 96030, Note_on_c, 0, 73, 76
2, 96059, Note_on_c, 0, 73, 0
2, 96060, Note_on_c, 0, 85, 0
2, 96060, Note_on_c, 0, 78, 76
2, 96060, Note_on_c, 0, 66, 76
2, 96087, Note_on_c, 0, 78, 0
2, 96088, Note_on_c, 0, 66, 0
2, 96090, Note_on_c, 0, 81, 85
2, 96090, Note_on_c, 0, 69, 80
2, 96118, Note_on_c, 0, 69, 0
2, 96120, Note_on_c, 0, 81, 0
2, 96120, Note_on_c, 0, 79, 85
2, 96120, Note_on_c, 0, 67, 80
2, 96148, Note_on_c, 0, 79, 0
2, 96149, Note_on_c, 0, 67, 0
2, 96150, Note_on_c, 0, 82, 68
2, 96150, Note_on_c, 0, 70, 64
2, 96180, Note_on_c, 0, 70, 0
2, 96180, Note_on_c, 0, 76, 76
2, 96180, Note_on_c, 0, 64, 76
2, 96181, Note_on_c, 0, 82, 0
2, 96206, Note_on_c, 0, 64, 0
2, 96208, Note_on_c, 0, 76, 0
2, 96210, Note_on_c, 0, 79, 76
2, 96210, Note_on_c, 0, 67, 80
2, 96238, Note_on_c, 0, 79, 0
2, 96239, Note_on_c, 0, 67, 0
2, 96240, Note_on_c, 0, 77, 85
2, 96240, Note_on_c, 0, 65, 89
2, 96281, Note_on_c, 0, 77, 0
2, 96299, Note_on_c, 0, 65, 0
2, 96300, Note_on_c, 0, 77, 89
2, 96300, Note_on_c, 0, 80, 89
2, 96300, Note_on_c, 0, 73, 80
2, 96344, Note_on_c, 0, 77, 0
2, 96349, Note_on_c, 0, 73, 0
2, 96349, Note_on_c, 0, 80, 0
2, 96360, Note_on_c, 0, 79, 93
2, 96360, Note_on_c, 0, 77, 80
2, 96360, Note_on_c, 0, 73, 76
2, 96396, Note_on_c, 0, 77, 0
2, 96401, Note_on_c, 0, 79, 0
2, 96415, Note_on_c, 0, 73, 0
2, 96420, Note_on_c, 0, 76, 76
2, 96420, Note_on_c, 0, 84, 93
2, 96420, Note_on_c, 0, 72, 76
2, 96463, Note_on_c, 0, 84, 0
2, 96464, Note_on_c, 0, 76, 0
2, 96468, Note_on_c, 0, 72, 0
2, 96480, Note_on_c, 0, 77, 93
2, 96480, Note_on_c, 0, 72, 80
2, 96541, Note_on_c, 0, 77, 0
2, 96542, Note_on_c, 0, 72, 0
2, 96600, Note_on_c, 0, 84, 80
2, 96600, Note_on_c, 0, 76, 98
2, 96600, Note_on_c, 0, 70, 93
2, 96674, Note_on_c, 0, 84, 0
2, 96690, Note_on_c, 0, 82, 68
2, 96698, Note_on_c, 0, 76, 0
2, 96705, Note_on_c, 0, 82, 0
2, 96705, Note_on_c, 0, 80, 68
2, 96705, Note_on_c, 0, 79, 80
2, 96715, Note_on_c, 0, 79, 0
2, 96718, Note_on_c, 0, 80, 0
2, 96720, Note_on_c, 0, 70, 0
2, 96720, Note_on_c, 0, 77, 80
2, 96720, Note_on_c, 0, 68, 76
2, 96767, Note_on_c, 0, 77, 0
2, 96769, Note_on_c, 0, 68, 0
2, 96840, Note_on_c, 0, 84, 93
2, 96840, Note_on_c, 0, 76, 93
2, 96840, Note_on_c, 0, 70, 89
2, 96914, Note_on_c, 0, 84, 0
2, 96930, Note_on_c, 0, 82, 72
2, 96930, Note_on_c, 0, 80, 64
2, 96943, Note_on_c, 0, 82, 0
2, 96945, Note_on_c, 0, 79, 76
2, 96948, Note_on_c, 0, 76, 0
2, 96949, Note_on_c, 0, 80, 0
2, 96955, Note_on_c, 0, 79, 0
2, 96956, Note_on_c, 0, 70, 0
2, 96960, Note_on_c, 0, 77, 107
2, 96960, Note_on_c, 0, 68, 89
2, 96994, Note_on_c, 0, 77, 0
2, 97058, Note_on_c, 0, 68, 0
2, 97080, Note_on_c, 0, 77, 85
2, 97080, Note_on_c, 0, 80, 85
2, 97080, Note_on_c, 0, 72, 76
2, 97080, Note_on_c, 0, 65, 93
2, 97102, Note_on_c, 0, 65, 0
2, 97118, Note_on_c, 0, 80, 0
2, 97119, Note_on_c, 0, 72, 0
2, 97119, Note_on_c, 0, 77, 0
2, 97200, Note_on_c, 0, 77, 98
2, 97200, Note_on_c, 0, 68, 85
2, 97200, Note_on_c, 0, 72, 89
2, 97200, Note_on_c, 0, 65, 93
2, 97231, Note_on_c, 0, 65, 0
2, 97240, Note_on_c, 0, 68, 0
2, 97241, Note_on_c, 0, 77, 0
2, 97242, Note_on_c, 0, 72, 0
2, 97440, Control_c, 0, 121, 0
2, 97440, End_track
3, 0, Start_track
3, 0, MIDI_port, 0
3, 0, Title_t, "Secondo"
3, 0, Program_c, 1, 19
3, 0, Control_c, 1, 121, 0
3, 0, Control_c, 1, 1, 5
3, 0, Control_c, 1, 7, 127
3, 0, Control_c, 1, 10, 44
3, 0, Control_c, 1, 91, 127
3, 480, Note_on_c, 1, 48, 57
3, 480, Note_on_c, 1, 53, 85
3, 480, Note_on_c, 1, 41, 68
3, 480, Note_on_c, 1, 44, 76
3, 602, Note_on_c, 1, 44, 0
3, 602, Note_on_c, 1, 48, 0
3, 602, Note_on_c, 1, 53, 0
3, 603, Note_on_c, 1, 41, 0
3, 960, Note_on_c, 1, 46, 64
3, 960, Note_on_c, 1, 41, 76
3, 960, Note_on_c, 1, 49, 76
3, 960, Note_on_c, 1, 43, 89
3, 1079, Note_on_c, 1, 49, 0
3, 1080, Note_on_c, 1, 46, 0
3, 1080, Note_on_c, 1, 41, 0
3, 1080, Note_on_c, 1, 43, 0
3, 1440, Note_on_c, 1, 40, 80
3, 1440, Note_on_c, 1, 46, 64
3, 1440, Note_on_c, 1, 43, 76
3, 1440, Note_on_c, 1, 49, 80
3, 1556, Note_on_c, 1, 49, 0
3, 1557, Note_on_c, 1, 46, 0
3, 1558, Note_on_c, 1, 43, 0
3, 1559, Note_on_c, 1, 40, 0
3, 1920, Note_on_c, 1, 54, 72
3, 1920, Note_on_c, 1, 51, 76
3, 1920, Note_on_c, 1, 42, 62
3, 1920, Note_on_c, 1, 48, 80
3, 1920, Note_on_c, 1, 39, 68
3, 1920, Note_on_c, 1, 45, 80
3, 2038, Note_on_c, 1, 45, 0
3, 2038, Note_on_c, 1, 51, 0
3, 2039, Note_on_c, 1, 48, 0
3, 2039, Note_on_c, 1, 39, 0
3, 2039, Note_on_c, 1, 42, 0
3, 2040, Note_on_c, 1, 54, 0
3, 2370, Note_on_c, 1, 54, 76
3, 2370, Note_on_c, 1, 51, 76
3, 2392, Note_on_c, 1, 51, 0
3, 2394, Note_on_c, 1, 54, 0
3, 2400, Note_on_c, 1, 49, 76
3, 2400, Note_on_c, 1, 53, 89
3, 2476, Note_on_c, 1, 49, 0
3, 2477, Note_on_c, 1, 53, 0
3, 2490, Note_on_c, 1, 53, 76
3, 2490, Note_on_c, 1, 49, 76
3, 2516, Note_on_c, 1, 49, 0
3, 2518, Note_on_c, 1, 53, 0
3, 2520, Note_on_c, 1, 51, 89
3, 2520, Note_on_c, 1, 48, 89
3, 2602, Note_on_c, 1, 48, 0
3, 2604, Note_on_c, 1, 51, 0
3, 2610, Note_on_c, 1, 46, 80
3, 2610, Note_on_c, 1, 49, 85
3, 2637, Note_on_c, 1, 49, 0
3, 2637, Note_on_c, 1, 46, 0
3, 2640, Note_on_c, 1, 48, 89
3, 2640, Note_on_c, 1, 45, 89
3, 2713, Note_on_c, 1, 45, 0
3, 2713, Note_on_c, 1, 48, 0
3, 2730, Note_on_c, 1, 48, 72
3, 2730, Note_on_c, 1, 45, 93
3, 2758, Note_on_c, 1, 48, 0
3, 2759, Note_on_c, 1, 45, 0
3, 2760, Note_on_c, 1, 43, 93
3, 2760, Note_on_c, 1, 46, 85
3, 2842, Note_on_c, 1, 46, 0
3, 2842, Note_on_c, 1, 43, 0
3, 2850, Note_on_c, 1, 45, 89
3, 2850, Note_on_c, 1, 41, 85
3, 2878, Note_on_c, 1, 45, 0
3, 2879, Note_on_c, 1, 41, 0
3, 2880, Note_on_c, 1, 46, 85
3, 2880, Note_on_c, 1, 49, 89
3, 2999, Note_on_c, 1, 46, 0
3, 3001, Note_on_c, 1, 49, 0
3, 3300, Note_on_c, 1, 42, 76
3, 3300, Note_on_c, 1, 54, 76
3, 3315, Note_on_c, 1, 54, 0
3, 3315, Note_on_c, 1, 53, 72
3, 3315, Note_on_c, 1, 41, 68
3, 3319, Note_on_c, 1, 42, 0
3, 3329, Note_on_c, 1, 53, 0
3, 3330, Note_on_c, 1, 52, 85
3, 3330, Note_on_c, 1, 40, 64
3, 3333, Note_on_c, 1, 41, 0
3, 3344, Note_on_c, 1, 52, 0
3, 3345, Note_on_c, 1, 53, 80
3, 3345, Note_on_c, 1, 41, 80
3, 3349, Note_on_c, 1, 40, 0
3, 3358, Note_on_c, 1, 53, 0
3, 3359, Note_on_c, 1, 41, 0
3, 3360, Note_on_c, 1, 58, 93
3, 3360, Note_on_c, 1, 46, 85
3, 3433, Note_on_c, 1, 58, 0
3, 3436, Note_on_c, 1, 46, 0
3, 3450, Note_on_c, 1, 58, 93
3, 3450, Note_on_c, 1, 46, 85
3, 3467, Note_on_c, 1, 46, 0
3, 3468, Note_on_c, 1, 58, 0
3, 3480, Note_on_c, 1, 46, 62
3, 3480, Note_on_c, 1, 58, 89
3, 3596, Note_on_c, 1, 58, 0
3, 3598, Note_on_c, 1, 46, 0
3, 3780, Note_on_c, 1, 39, 89
3, 3780, Note_on_c, 1, 51, 76
3, 3795, Note_on_c, 1, 51, 0
3, 3795, Note_on_c, 1, 37, 57
3, 3795, Note_on_c, 1, 49, 64
3, 3801, Note_on_c, 1, 39, 0
3, 3806, Note_on_c, 1, 49, 0
3, 3810, Note_on_c, 1, 48, 89
3, 3810, Note_on_c, 1, 36, 62
3, 3821, Note_on_c, 1, 36, 0
3, 3824, Note_on_c, 1, 48, 0
3, 3825, Note_on_c, 1, 37, 72
3, 3825, Note_on_c, 1, 49, 72
3, 3831, Note_on_c, 1, 37, 0
3, 3834, Note_on_c, 1, 37, 0
3, 3836, Note_on_c, 1, 49, 0
3, 3840, Note_on_c, 1, 54, 89
3, 3840, Note_on_c, 1, 42, 102
3, 3919, Note_on_c, 1, 42, 0
3, 3921, Note_on_c, 1, 54, 0
3, 3930, Note_on_c, 1, 42, 89
3, 3930, Note_on_c, 1, 54, 89
3, 3948, Note_on_c, 1, 54, 0
3, 3949, Note_on_c, 1, 42, 0
3, 3960, Note_on_c, 1, 54, 89
3, 3960, Note_on_c, 1, 42, 80
3, 4070, Note_on_c, 1, 42, 0
3, 4070, Note_on_c, 1, 54, 0
3, 4260, Note_on_c, 1, 48, 89
3, 4275, Note_on_c, 1, 46, 76
3, 4277, Note_on_c, 1, 48, 0
3, 4288, Note_on_c, 1, 46, 0
3, 4290, Note_on_c, 1, 45, 93
3, 4304, Note_on_c, 1, 45, 0
3, 4305, Note_on_c, 1, 46, 72
3, 4320, Note_on_c, 1, 49, 93
3, 4320, Note_on_c, 1, 36, 89
3, 4324, Note_on_c, 1, 46, 0
3, 4391, Note_on_c, 1, 49, 0
3, 4410, Note_on_c, 1, 49, 76
3, 4435, Note_on_c, 1, 49, 0
3, 4440, Note_on_c, 1, 48, 89
3, 4525, Note_on_c, 1, 48, 0
3, 4530, Note_on_c, 1, 46, 80
3, 4558, Note_on_c, 1, 46, 0
3, 4560, Note_on_c, 1, 44, 93
3, 4643, Note_on_c, 1, 44, 0
3, 4650, Note_on_c, 1, 44, 80
3, 4675, Note_on_c, 1, 44, 0
3, 4680, Note_on_c, 1, 43, 89
3, 4764, Note_on_c, 1, 43, 0
3, 4770, Note_on_c, 1, 41, 80
3, 4799, Note_on_c, 1, 41, 0
3, 4800, Note_on_c, 1, 40, 80
3, 4886, Note_on_c, 1, 36, 0
3, 4916, Note_on_c, 1, 40, 0
3, 5160, Note_on_c, 1, 44, 76
3, 5160, Note_on_c, 1, 36, 80
3, 5160, Note_on_c, 1, 41, 76
3, 5271, Note_on_c, 1, 41, 0
3, 5274, Note_on_c, 1, 44, 0
3, 5280, Note_on_c, 1, 40, 80
3, 5280, Note_on_c, 1, 43, 52
3, 5396, Note_on_c, 1, 36, 0
3, 5397, Note_on_c, 1, 43, 0
3, 5400, Note_on_c, 1, 40, 0
3, 5640, Note_on_c, 1, 44, 60
3, 5640, Note_on_c, 1, 41, 68
3, 5640, Note_on_c, 1, 36, 68
3, 5760, Note_on_c, 1, 44, 0
3, 5760, Note_on_c, 1, 43, 68
3, 5760, Note_on_c, 1, 40, 62
3, 5762, Note_on_c, 1, 41, 0
3, 5868, Note_on_c, 1, 40, 0
3, 5875, Note_on_c, 1, 43, 0
3, 5880, Note_on_c, 1, 41, 62
3, 5880, Note_on_c, 1, 44, 64
3, 5991, Note_on_c, 1, 44, 0
3, 5992, Note_on_c, 1, 41, 0
3, 6000, Note_on_c, 1, 43, 64
3, 6000, Note_on_c, 1, 40, 60
3, 6115, Note_on_c, 1, 40, 0
3, 6120, Note_on_c, 1, 41, 62
3, 6120, Note_on_c, 1, 44, 68
3, 6122, Note_on_c, 1, 43, 0
3, 6233, Note_on_c, 1, 44, 0
3, 6234, Note_on_c, 1, 41, 0
3, 6240, Note_on_c, 1, 43, 68
3, 6240, Note_on_c, 1, 40, 62
3, 6332, Note_on_c, 1, 36, 0
3, 6364, Note_on_c, 1, 40, 0
3, 6364, Note_on_c, 1, 43, 0
3, 10800, Note_on_c, 1, 48, 76
3, 11029, Note_on_c, 1, 48, 0
3, 11040, Note_on_c, 1, 41, 72
3, 11273, Note_on_c, 1, 41, 0
3, 11280, Note_on_c, 1, 43, 76
3, 11509, Note_on_c, 1, 43, 0
3, 11520, Note_on_c, 1, 44, 93
3, 11546, Note_on_c, 1, 44, 0
3, 11580, Note_on_c, 1, 44, 64
3, 11640, Note_on_c, 1, 43, 85
3, 11642, Note_on_c, 1, 44, 0
3, 11698, Note_on_c, 1, 43, 0
3, 11700, Note_on_c, 1, 41, 80
3, 11759, Note_on_c, 1, 41, 0
3, 11760, Note_on_c, 1, 46, 89
3, 11783, Note_on_c, 1, 46, 0
3, 11820, Note_on_c, 1, 46, 85
3, 11880, Note_on_c, 1, 46, 0
3, 11880, Note_on_c, 1, 44, 76
3, 11938, Note_on_c, 1, 44, 0
3, 11940, Note_on_c, 1, 43, 80
3, 12000, Note_on_c, 1, 44, 89
3, 12001, Note_on_c, 1, 43, 0
3, 12017, Note_on_c, 1, 44, 0
3, 12060, Note_on_c, 1, 44, 98
3, 12116, Note_on_c, 1, 44, 0
3, 12120, Note_on_c, 1, 43, 72
3, 12178, Note_on_c, 1, 43, 0
3, 12180, Note_on_c, 1, 41, 72
3, 12240, Note_on_c, 1, 41, 0
3, 12240, Note_on_c, 1, 46, 85
3, 12258, Note_on_c, 1, 46, 0
3, 12300, Note_on_c, 1, 46, 80
3, 12360, Note_on_c, 1, 44, 80
3, 12361, Note_on_c, 1, 46, 0
3, 12415, Note_on_c, 1, 44, 0
3, 12420, Note_on_c, 1, 43, 85
3, 12478, Note_on_c, 1, 43, 0
3, 12480, Note_on_c, 1, 44, 76
3, 12540, Note_on_c, 1, 43, 76
3, 12542, Note_on_c, 1, 44, 0
3, 12597, Note_on_c, 1, 43, 0
3, 12600, Note_on_c, 1, 41, 72
3, 12660, Note_on_c, 1, 43, 89
3, 12663, Note_on_c, 1, 41, 0
3, 12719, Note_on_c, 1, 43, 0
3, 12720, Note_on_c, 1, 44, 80
3, 12720, Note_on_c, 1, 41, 93
3, 12777, Note_on_c, 1, 44, 0
3, 12780, Note_on_c, 1, 45, 80
3, 12840, Note_on_c, 1, 45, 0
3, 12840, Note_on_c, 1, 46, 80
3, 12895, Note_on_c, 1, 46, 0
3, 12900, Note_on_c, 1, 47, 80
3, 12949, Note_on_c, 1, 41, 0
3, 12958, Note_on_c, 1, 47, 0
3, 12960, Note_on_c, 1, 48, 89
3, 12960, Note_on_c, 1, 36, 80
3, 13020, Note_on_c, 1, 51, 76
3, 13021, Note_on_c, 1, 48, 0
3, 13078, Note_on_c, 1, 51, 0
3, 13080, Note_on_c, 1, 50, 89
3, 13137, Note_on_c, 1, 50, 0
3, 13140, Note_on_c, 1, 48, 85
3, 13190, Note_on_c, 1, 36, 0
3, 13197, Note_on_c, 1, 48, 0
3, 13200, Note_on_c, 1, 47, 89
3, 13200, Note_on_c, 1, 38, 80
3, 13259, Note_on_c, 1, 47, 0
3, 13260, Note_on_c, 1, 48, 80
3, 13320, Note_on_c, 1, 45, 76
3, 13321, Note_on_c, 1, 48, 0
3, 13375, Note_on_c, 1, 45, 0
3, 13380, Note_on_c, 1, 47, 93
3, 13427, Note_on_c, 1, 38, 0
3, 13439, Note_on_c, 1, 47, 0
3, 13440, Note_on_c, 1, 48, 93
3, 13440, Note_on_c, 1, 39, 93
3, 13469, Note_on_c, 1, 39, 0
3, 13500, Note_on_c, 1, 39, 102
3, 13554, Note_on_c, 1, 48, 0
3, 13557, Note_on_c, 1, 39, 0
3, 13560, Note_on_c, 1, 38, 93
3, 13620, Note_on_c, 1, 38, 0
3, 13620, Note_on_c, 1, 60, 80
3, 13620, Note_on_c, 1, 36, 89
3, 13672, Note_on_c, 1, 36, 0
3, 13677, Note_on_c, 1, 60, 0
3, 13680, Note_on_c, 1, 50, 89
3, 13680, Note_on_c, 1, 41, 89
3, 13697, Note_on_c, 1, 41, 0
3, 13740, Note_on_c, 1, 60, 85
3, 13740, Note_on_c, 1, 41, 60
3, 13743, Note_on_c, 1, 50, 0
3, 13794, Note_on_c, 1, 41, 0
3, 13800, Note_on_c, 1, 50, 76
3, 13800, Note_on_c, 1, 39, 89
3, 13810, Note_on_c, 1, 60, 0
3, 13853, Note_on_c, 1, 39, 0
3, 13858, Note_on_c, 1, 50, 0
3, 13860, Note_on_c, 1, 38, 89
3, 13860, Note_on_c, 1, 59, 93
3, 13917, Note_on_c, 1, 38, 0
3, 13920, Note_on_c, 1, 60, 93
3, 13920, Note_on_c, 1, 39, 93
3, 13921, Note_on_c, 1, 59, 0
3, 13930, Note_on_c, 1, 39, 0
3, 13980, Note_on_c, 1, 39, 102
3, 14035, Note_on_c, 1, 60, 0
3, 14038, Note_on_c, 1, 39, 0
3, 14040, Note_on_c, 1, 38, 98
3, 14096, Note_on_c, 1, 38, 0
3, 14100, Note_on_c, 1, 60, 89
3, 14100, Note_on_c, 1, 36, 89
3, 14156, Note_on_c, 1, 36, 0
3, 14157, Note_on_c, 1, 60, 0
3, 14160, Note_on_c, 1, 50, 89
3, 14160, Note_on_c, 1, 41, 85
3, 14176, Note_on_c, 1, 41, 0
3, 14220, Note_on_c, 1, 60, 89
3, 14220, Note_on_c, 1, 41, 89
3, 14221, Note_on_c, 1, 50, 0
3, 14278, Note_on_c, 1, 41, 0
3, 14280, Note_on_c, 1, 60, 0
3, 14280, Note_on_c, 1, 39, 80
3, 14280, Note_on_c, 1, 50, 85
3, 14336, Note_on_c, 1, 39, 0
3, 14337, Note_on_c, 1, 50, 0
3, 14340, Note_on_c, 1, 38, 93
3, 14340, Note_on_c, 1, 59, 89
3, 14393, Note_on_c, 1, 38, 0
3, 14396, Note_on_c, 1, 59, 0
3, 14400, Note_on_c, 1, 60, 93
3, 14400, Note_on_c, 1, 39, 85
3, 14412, Note_on_c, 1, 39, 0
3, 14460, Note_on_c, 1, 39, 85
3, 14520, Note_on_c, 1, 39, 0
3, 14520, Note_on_c, 1, 38, 89
3, 14577, Note_on_c, 1, 38, 0
3, 14580, Note_on_c, 1, 36, 93
3, 14634, Note_on_c, 1, 36, 0
3, 14640, Note_on_c, 1, 43, 89
3, 14674, Note_on_c, 1, 60, 0
3, 14700, Note_on_c, 1, 60, 93
3, 14758, Note_on_c, 1, 60, 0
3, 14760, Note_on_c, 1, 58, 80
3, 14817, Note_on_c, 1, 58, 0
3, 14820, Note_on_c, 1, 57, 93
3, 14880, Note_on_c, 1, 58, 76
3, 14882, Note_on_c, 1, 57, 0
3, 14925, Note_on_c, 1, 43, 0
3, 14940, Note_on_c, 1, 49, 85
3, 14996, Note_on_c, 1, 49, 0
3, 15000, Note_on_c, 1, 46, 68
3, 15045, Note_on_c, 1, 43, 68
3, 15059, Note_on_c, 1, 46, 0
3, 15106, Note_on_c, 1, 43, 0
3, 15120, Note_on_c, 1, 40, 89
3, 15166, Note_on_c, 1, 58, 0
3, 15180, Note_on_c, 1, 60, 89
3, 15180, Note_on_c, 1, 43, 76
3, 15181, Note_on_c, 1, 40, 0
3, 15210, Note_on_c, 1, 58, 80
3, 15214, Note_on_c, 1, 60, 0
3, 15240, Note_on_c, 1, 56, 80
3, 15240, Note_on_c, 1, 36, 76
3, 15242, Note_on_c, 1, 43, 0
3, 15245, Note_on_c, 1, 58, 0
3, 15296, Note_on_c, 1, 36, 0
3, 15297, Note_on_c, 1, 56, 0
3, 15300, Note_on_c, 1, 39, 76
3, 15300, Note_on_c, 1, 55, 89
3, 15360, Note_on_c, 1, 41, 76
3, 15360, Note_on_c, 1, 56, 89
3, 15361, Note_on_c, 1, 55, 0
3, 15362, Note_on_c, 1, 39, 0
3, 15418, Note_on_c, 1, 56, 0
3, 15420, Note_on_c, 1, 60, 93
3, 15420, Note_on_c, 1, 44, 60
3, 15421, Note_on_c, 1, 41, 0
3, 15476, Note_on_c, 1, 44, 0
3, 15480, Note_on_c, 1, 43, 89
3, 15480, Note_on_c, 1, 58, 76
3, 15481, Note_on_c, 1, 60, 0
3, 15537, Note_on_c, 1, 43, 0
3, 15540, Note_on_c, 1, 41, 80
3, 15540, Note_on_c, 1, 56, 76
3, 15543, Note_on_c, 1, 58, 0
3, 15598, Note_on_c, 1, 41, 0
3, 15600, Note_on_c, 1, 56, 0
3, 15600, Note_on_c, 1, 55, 89
3, 15600, Note_on_c, 1, 48, 85
3, 15878, Note_on_c, 1, 48, 0
3, 15882, Note_on_c, 1, 55, 0
3, 15900, Note_on_c, 1, 57, 93
3, 15900, Note_on_c, 1, 54, 72
3, 15959, Note_on_c, 1, 54, 0
3, 15960, Note_on_c, 1, 51, 76
3, 15960, Note_on_c, 1, 58, 85
3, 15961, Note_on_c, 1, 57, 0
3, 16020, Note_on_c, 1, 51, 0
3, 16020, Note_on_c, 1, 48, 85
3, 16020, Note_on_c, 1, 60, 93
3, 16021, Note_on_c, 1, 58, 0
3, 16074, Note_on_c, 1, 60, 0
3, 16075, Note_on_c, 1, 48, 0
3, 16080, Note_on_c, 1, 53, 80
3, 16080, Note_on_c, 1, 45, 93
3, 16139, Note_on_c, 1, 45, 0
3, 16140, Note_on_c, 1, 48, 85
3, 16200, Note_on_c, 1, 48, 0
3, 16200, Note_on_c, 1, 41, 72
3, 16258, Note_on_c, 1, 41, 0
3, 16260, Note_on_c, 1, 45, 98
3, 16310, Note_on_c, 1, 45, 0
3, 16320, Note_on_c, 1, 46, 41
3, 16380, Note_on_c, 1, 49, 80
3, 16382, Note_on_c, 1, 46, 0
3, 16425, Note_on_c, 1, 53, 0
3, 16437, Note_on_c, 1, 49, 0
3, 16440, Note_on_c, 1, 58, 93
3, 16440, Note_on_c, 1, 54, 85
3, 16493, Note_on_c, 1, 54, 0
3, 16500, Note_on_c, 1, 53, 89
3, 16558, Note_on_c, 1, 53, 0
3, 16560, Note_on_c, 1, 51, 80
3, 16616, Note_on_c, 1, 51, 0
3, 16620, Note_on_c, 1, 48, 93
3, 16666, Note_on_c, 1, 58, 0
3, 16679, Note_on_c, 1, 48, 0
3, 16680, Note_on_c, 1, 57, 89
3, 16680, Note_on_c, 1, 53, 76
3, 16735, Note_on_c, 1, 53, 0
3, 16740, Note_on_c, 1, 41, 89
3, 16795, Note_on_c, 1, 57, 0
3, 16800, Note_on_c, 1, 41, 0
3, 16800, Note_on_c, 1, 58, 85
3, 16800, Note_on_c, 1, 46, 80
3, 16855, Note_on_c, 1, 58, 0
3, 16920, Note_on_c, 1, 65, 76
3, 16924, Note_on_c, 1, 46, 0
3, 16980, Note_on_c, 1, 46, 93
3, 17032, Note_on_c, 1, 65, 0
3, 17036, Note_on_c, 1, 46, 0
3, 17040, Note_on_c, 1, 66, 76
3, 17040, Note_on_c, 1, 36, 89
3, 17099, Note_on_c, 1, 36, 0
3, 17100, Note_on_c, 1, 46, 72
3, 17156, Note_on_c, 1, 46, 0
3, 17156, Note_on_c, 1, 66, 0
3, 17160, Note_on_c, 1, 65, 76
3, 17160, Note_on_c, 1, 36, 85
3, 17205, Note_on_c, 1, 45, 98
3, 17217, Note_on_c, 1, 36, 0
3, 17260, Note_on_c, 1, 45, 0
3, 17265, Note_on_c, 1, 46, 89
3, 17270, Note_on_c, 1, 65, 0
3, 17314, Note_on_c, 1, 46, 0
3, 17400, Note_on_c, 1, 65, 80
3, 17460, Note_on_c, 1, 46, 76
3, 17505, Note_on_c, 1, 36, 85
3, 17514, Note_on_c, 1, 46, 0
3, 17520, Note_on_c, 1, 66, 80
3, 17521, Note_on_c, 1, 65, 0
3, 17565, Note_on_c, 1, 36, 0
3, 17580, Note_on_c, 1, 46, 80
3, 17635, Note_on_c, 1, 66, 0
3, 17639, Note_on_c, 1, 46, 0
3, 17640, Note_on_c, 1, 65, 76
3, 17640, Note_on_c, 1, 36, 89
3, 17698, Note_on_c, 1, 36, 0
3, 17700, Note_on_c, 1, 45, 93
3, 17755, Note_on_c, 1, 45, 0
3, 17760, Note_on_c, 1, 46, 72
3, 17867, Note_on_c, 1, 65, 0
3, 17877, Note_on_c, 1, 46, 0
3, 17940, Note_on_c, 1, 56, 80
3, 18000, Note_on_c, 1, 56, 0
3, 18000, Note_on_c, 1, 46, 76
3, 18000, Note_on_c, 1, 39, 89
3, 18060, Note_on_c, 1, 56, 72
3, 18061, Note_on_c, 1, 46, 0
3, 18116, Note_on_c, 1, 56, 0
3, 18120, Note_on_c, 1, 46, 62
3, 18175, Note_on_c, 1, 39, 0
3, 18180, Note_on_c, 1, 46, 0
3, 18180, Note_on_c, 1, 55, 76
3, 18180, Note_on_c, 1, 37, 72
3, 18233, Note_on_c, 1, 55, 0
3, 18239, Note_on_c, 1, 37, 0
3, 18240, Note_on_c, 1, 44, 76
3, 18240, Note_on_c, 1, 36, 80
3, 18357, Note_on_c, 1, 44, 0
3, 18360, Note_on_c, 1, 36, 0
3, 18480, Note_on_c, 1, 51, 72
3, 18710, Note_on_c, 1, 51, 0
3, 18720, Note_on_c, 1, 44, 80
3, 18949, Note_on_c, 1, 44, 0
3, 18960, Note_on_c, 1, 48, 76
3, 18975, Note_on_c, 1, 46, 60
3, 18977, Note_on_c, 1, 48, 0
3, 18990, Note_on_c, 1, 48, 64
3, 18991, Note_on_c, 1, 46, 0
3, 19005, Note_on_c, 1, 48, 0
3, 19005, Note_on_c, 1, 46, 64
3, 19019, Note_on_c, 1, 46, 0
3, 19020, Note_on_c, 1, 48, 72
3, 19035, Note_on_c, 1, 48, 0
3, 19035, Note_on_c, 1, 46, 57
3, 19050, Note_on_c, 1, 48, 76
3, 19051, Note_on_c, 1, 46, 0
3, 19065, Note_on_c, 1, 48, 0
3, 19065, Note_on_c, 1, 46, 62
3, 19080, Note_on_c, 1, 46, 0
3, 19080, Note_on_c, 1, 48, 68
3, 19095, Note_on_c, 1, 46, 60
3, 19096, Note_on_c, 1, 48, 0
3, 19108, Note_on_c, 1, 46, 0
3, 19110, Note_on_c, 1, 48, 56
3, 19125, Note_on_c, 1, 46, 64
3, 19126, Note_on_c, 1, 48, 0
3, 19140, Note_on_c, 1, 44, 59
3, 19141, Note_on_c, 1, 46, 0
3, 19170, Note_on_c, 1, 44, 0
3, 19170, Note_on_c, 1, 46, 80
3, 19199, Note_on_c, 1, 46, 0
3, 19200, Note_on_c, 1, 48, 89
3, 19218, Note_on_c, 1, 48, 0
3, 19260, Note_on_c, 1, 48, 85
3, 19320, Note_on_c, 1, 46, 76
3, 19321, Note_on_c, 1, 48, 0
3, 19378, Note_on_c, 1, 46, 0
3, 19380, Note_on_c, 1, 44, 76
3, 19436, Note_on_c, 1, 44, 0
3, 19440, Note_on_c, 1, 49, 85
3, 19453, Note_on_c, 1, 49, 0
3, 19500, Note_on_c, 1, 49, 76
3, 19559, Note_on_c, 1, 49, 0
3, 19560, Note_on_c, 1, 48, 76
3, 19620, Note_on_c, 1, 48, 0
3, 19620, Note_on_c, 1, 46, 76
3, 19679, Note_on_c, 1, 46, 0
3, 19680, Note_on_c, 1, 51, 76
3, 19920, Note_on_c, 1, 44, 93
3, 19963, Note_on_c, 1, 51, 0
3, 19980, Note_on_c, 1, 49, 76
3, 20040, Note_on_c, 1, 53, 76
3, 20044, Note_on_c, 1, 49, 0
3, 20055, Note_on_c, 1, 51, 76
3, 20057, Note_on_c, 1, 53, 0
3, 20068, Note_on_c, 1, 51, 0
3, 20070, Note_on_c, 1, 53, 72
3, 20085, Note_on_c, 1, 51, 62
3, 20088, Note_on_c, 1, 53, 0
3, 20096, Note_on_c, 1, 51, 0
3, 20100, Note_on_c, 1, 53, 80
3, 20115, Note_on_c, 1, 51, 56
3, 20118, Note_on_c, 1, 53, 0
3, 20130, Note_on_c, 1, 49, 62
3, 20131, Note_on_c, 1, 51, 0
3, 20145, Note_on_c, 1, 44, 0
3, 20145, Note_on_c, 1, 51, 62
3, 20146, Note_on_c, 1, 49, 0
3, 20159, Note_on_c, 1, 51, 0
3, 20160, Note_on_c, 1, 49, 72
3, 20160, Note_on_c, 1, 37, 76
3, 20263, Note_on_c, 1, 49, 0
3, 20280, Note_on_c, 1, 41, 89
3, 20396, Note_on_c, 1, 37, 0
3, 20397, Note_on_c, 1, 41, 0
3, 20400, Note_on_c, 1, 44, 89
3, 20400, Note_on_c, 1, 41, 85
3, 20414, Note_on_c, 1, 44, 0
3, 20415, Note_on_c, 1, 42, 68
3, 20415, Note_on_c, 1, 39, 72
3, 20416, Note_on_c, 1, 41, 0
3, 20430, Note_on_c, 1, 39, 0
3, 20430, Note_on_c, 1, 44, 60
3, 20430, Note_on_c, 1, 41, 80
3, 20431, Note_on_c, 1, 42, 0
3, 20444, Note_on_c, 1, 44, 0
3, 20445, Note_on_c, 1, 41, 0
3, 20445, Note_on_c, 1, 42, 60
3, 20445, Note_on_c, 1, 39, 72
3, 20458, Note_on_c, 1, 42, 0
3, 20459, Note_on_c, 1, 39, 0
3, 20460, Note_on_c, 1, 44, 68
3, 20460, Note_on_c, 1, 41, 76
3, 20473, Note_on_c, 1, 41, 0
3, 20475, Note_on_c, 1, 42, 59
3, 20475, Note_on_c, 1, 39, 72
3, 20476, Note_on_c, 1, 44, 0
3, 20490, Note_on_c, 1, 39, 0
3, 20490, Note_on_c, 1, 44, 60
3, 20490, Note_on_c, 1, 41, 72
3, 20494, Note_on_c, 1, 42, 0
3, 20503, Note_on_c, 1, 41, 0
3, 20505, Note_on_c, 1, 42, 62
3, 20505, Note_on_c, 1, 39, 68
3, 20507, Note_on_c, 1, 44, 0
3, 20519, Note_on_c, 1, 39, 0
3, 20520, Note_on_c, 1, 42, 0
3, 20520, Note_on_c, 1, 44, 64
3, 20520, Note_on_c, 1, 41, 72
3, 20534, Note_on_c, 1, 41, 0
3, 20534, Note_on_c, 1, 44, 0
3, 20535, Note_on_c, 1, 42, 62
3, 20535, Note_on_c, 1, 39, 76
3, 20550, Note_on_c, 1, 39, 0
3, 20550, Note_on_c, 1, 44, 62
3, 20550, Note_on_c, 1, 41, 76
3, 20551, Note_on_c, 1, 42, 0
3, 20565, Note_on_c, 1, 42, 62
3, 20565, Note_on_c, 1, 39, 72
3, 20566, Note_on_c, 1, 44, 0
3, 20567, Note_on_c, 1, 41, 0
3, 20580, Note_on_c, 1, 41, 76
3, 20580, Note_on_c, 1, 37, 72
3, 20581, Note_on_c, 1, 39, 0
3, 20583, Note_on_c, 1, 42, 0
3, 20609, Note_on_c, 1, 41, 0
3, 20609, Note_on_c, 1, 37, 0
3, 20610, Note_on_c, 1, 42, 72
3, 20610, Note_on_c, 1, 39, 89
3, 20638, Note_on_c, 1, 39, 0
3, 20640, Note_on_c, 1, 44, 80
3, 20640, Note_on_c, 1, 41, 93
3, 20642, Note_on_c, 1, 42, 0
3, 20683, Note_on_c, 1, 44, 0
3, 20700, Note_on_c, 1, 56, 72
3, 20757, Note_on_c, 1, 56, 0
3, 20760, Note_on_c, 1, 41, 0
3, 20760, Note_on_c, 1, 53, 89
3, 20817, Note_on_c, 1, 53, 0
3, 20820, Note_on_c, 1, 51, 68
3, 20879, Note_on_c, 1, 51, 0
3, 20880, Note_on_c, 1, 50, 89
3, 20880, Note_on_c, 1, 46, 89
3, 21109, Note_on_c, 1, 46, 0
3, 21116, Note_on_c, 1, 50, 0
3, 21120, Note_on_c, 1, 51, 80
3, 21120, Note_on_c, 1, 39, 72
3, 21228, Note_on_c, 1, 51, 0
3, 21240, Note_on_c, 1, 42, 76
3, 21351, Note_on_c, 1, 39, 0
3, 21359, Note_on_c, 1, 42, 0
3, 21360, Note_on_c, 1, 46, 76
3, 21360, Note_on_c, 1, 42, 76
3, 21375, Note_on_c, 1, 44, 76
3, 21375, Note_on_c, 1, 41, 72
3, 21377, Note_on_c, 1, 46, 0
3, 21378, Note_on_c, 1, 42, 0
3, 21390, Note_on_c, 1, 44, 0
3, 21390, Note_on_c, 1, 46, 72
3, 21390, Note_on_c, 1, 42, 72
3, 21391, Note_on_c, 1, 41, 0
3, 21405, Note_on_c, 1, 42, 0
3, 21405, Note_on_c, 1, 46, 0
3, 21405, Note_on_c, 1, 44, 62
3, 21405, Note_on_c, 1, 41, 80
3, 21418, Note_on_c, 1, 44, 0
3, 21420, Note_on_c, 1, 41, 0
3, 21420, Note_on_c, 1, 46, 72
3, 21420, Note_on_c, 1, 42, 68
3, 21432, Note_on_c, 1, 42, 0
3, 21434, Note_on_c, 1, 46, 0
3, 21435, Note_on_c, 1, 44, 64
3, 21435, Note_on_c, 1, 41, 76
3, 21450, Note_on_c, 1, 46, 76
3, 21450, Note_on_c, 1, 42, 64
3, 21451, Note_on_c, 1, 41, 0
3, 21452, Note_on_c, 1, 44, 0
3, 21463, Note_on_c, 1, 42, 0
3, 21465, Note_on_c, 1, 46, 0
3, 21465, Note_on_c, 1, 44, 68
3, 21465, Note_on_c, 1, 41, 85
3, 21480, Note_on_c, 1, 41, 0
3, 21480, Note_on_c, 1, 46, 68
3, 21480, Note_on_c, 1, 42, 76
3, 21481, Note_on_c, 1, 44, 0
3, 21493, Note_on_c, 1, 42, 0
3, 21494, Note_on_c, 1, 46, 0
3, 21495, Note_on_c, 1, 44, 60
3, 21495, Note_on_c, 1, 41, 76
3, 21507, Note_on_c, 1, 41, 0
3, 21508, Note_on_c, 1, 44, 0
3, 21510, Note_on_c, 1, 46, 68
3, 21510, Note_on_c, 1, 42, 72
3, 21524, Note_on_c, 1, 42, 0
3, 21525, Note_on_c, 1, 44, 53
3, 21525, Note_on_c, 1, 41, 76
3, 21526, Note_on_c, 1, 46, 0
3, 21540, Note_on_c, 1, 41, 0
3, 21540, Note_on_c, 1, 42, 76
3, 21540, Note_on_c, 1, 39, 85
3, 21543, Note_on_c, 1, 44, 0
3, 21568, Note_on_c, 1, 42, 0
3, 21569, Note_on_c, 1, 39, 0
3, 21570, Note_on_c, 1, 44, 80
3, 21570, Note_on_c, 1, 41, 85
3, 21599, Note_on_c, 1, 41, 0
3, 21600, Note_on_c, 1, 46, 85
3, 21600, Note_on_c, 1, 43, 89
3, 21601, Note_on_c, 1, 44, 0
3, 21660, Note_on_c, 1, 46, 0
3, 21660, Note_on_c, 1, 58, 85
3, 21716, Note_on_c, 1, 58, 0
3, 21717, Note_on_c, 1, 43, 0
3, 21720, Note_on_c, 1, 55, 93
3, 21775, Note_on_c, 1, 55, 0
3, 21780, Note_on_c, 1, 53, 89
3, 21839, Note_on_c, 1, 53, 0
3, 21840, Note_on_c, 1, 52, 80
3, 21840, Note_on_c, 1, 48, 89
3, 22069, Note_on_c, 1, 48, 0
3, 22071, Note_on_c, 1, 52, 0
3, 22080, Note_on_c, 1, 53, 89
3, 22080, Note_on_c, 1, 41, 68
3, 22080, Note_on_c, 1, 41, 89
3, 22190, Note_on_c, 1, 53, 0
3, 22200, Note_on_c, 1, 44, 80
3, 22312, Note_on_c, 1, 41, 0
3, 22314, Note_on_c, 1, 41, 0
3, 22318, Note_on_c, 1, 44, 0
3, 22320, Note_on_c, 1, 48, 85
3, 22320, Note_on_c, 1, 44, 98
3, 22335, Note_on_c, 1, 46, 60
3, 22335, Note_on_c, 1, 43, 93
3, 22337, Note_on_c, 1, 48, 0
3, 22338, Note_on_c, 1, 44, 0
3, 22347, Note_on_c, 1, 43, 0
3, 22350, Note_on_c, 1, 48, 72
3, 22350, Note_on_c, 1, 44, 89
3, 22351, Note_on_c, 1, 46, 0
3, 22365, Note_on_c, 1, 44, 0
3, 22365, Note_on_c, 1, 46, 59
3, 22365, Note_on_c, 1, 43, 89
3, 22368, Note_on_c, 1, 48, 0
3, 22378, Note_on_c, 1, 43, 0
3, 22379, Note_on_c, 1, 46, 0
3, 22380, Note_on_c, 1, 48, 76
3, 22380, Note_on_c, 1, 44, 85
3, 22394, Note_on_c, 1, 44, 0
3, 22394, Note_on_c, 1, 48, 0
3, 22395, Note_on_c, 1, 46, 57
3, 22395, Note_on_c, 1, 43, 80
3, 22406, Note_on_c, 1, 43, 0
3, 22410, Note_on_c, 1, 48, 68
3, 22410, Note_on_c, 1, 44, 76
3, 22412, Note_on_c, 1, 46, 0
3, 22424, Note_on_c, 1, 44, 0
3, 22425, Note_on_c, 1, 48, 0
3, 22425, Note_on_c, 1, 46, 62
3, 22425, Note_on_c, 1, 43, 76
3, 22439, Note_on_c, 1, 43, 0
3, 22440, Note_on_c, 1, 48, 68
3, 22440, Note_on_c, 1, 44, 93
3, 22442, Note_on_c, 1, 46, 0
3, 22455, Note_on_c, 1, 44, 0
3, 22455, Note_on_c, 1, 48, 0
3, 22455, Note_on_c, 1, 46, 53
3, 22455, Note_on_c, 1, 43, 72
3, 22466, Note_on_c, 1, 43, 0
3, 22470, Note_on_c, 1, 48, 76
3, 22470, Note_on_c, 1, 44, 76
3, 22471, Note_on_c, 1, 46, 0
3, 22485, Note_on_c, 1, 46, 62
3, 22485, Note_on_c, 1, 43, 80
3, 22486, Note_on_c, 1, 48, 0
3, 22487, Note_on_c, 1, 44, 0
3, 22499, Note_on_c, 1, 43, 0
3, 22500, Note_on_c, 1, 44, 64
3, 22500, Note_on_c, 1, 41, 93
3, 22504, Note_on_c, 1, 46, 0
3, 22527, Note_on_c, 1, 41, 0
3, 22529, Note_on_c, 1, 44, 0
3, 22530, Note_on_c, 1, 46, 80
3, 22530, Note_on_c, 1, 43, 85
3, 22558, Note_on_c, 1, 43, 0
3, 22559, Note_on_c, 1, 46, 0
3, 22560, Note_on_c, 1, 48, 89
3, 22560, Note_on_c, 1, 44, 98
3, 22581, Note_on_c, 1, 48, 0
3, 22587, Note_on_c, 1, 44, 0
3, 22620, Note_on_c, 1, 48, 85
3, 22620, Note_on_c, 1, 44, 102
3, 22676, Note_on_c, 1, 44, 0
3, 22680, Note_on_c, 1, 46, 80
3, 22680, Note_on_c, 1, 43, 89
3, 22682, Note_on_c, 1, 48, 0
3, 22736, Note_on_c, 1, 43, 0
3, 22739, Note_on_c, 1, 46, 0
3, 22740, Note_on_c, 1, 44, 76
3, 22740, Note_on_c, 1, 41, 85
3, 22797, Note_on_c, 1, 44, 0
3, 22800, Note_on_c, 1, 49, 85
3, 22800, Note_on_c, 1, 46, 85
3, 22803, Note_on_c, 1, 41, 0
3, 22818, Note_on_c, 1, 46, 0
3, 22819, Note_on_c, 1, 49, 0
3, 22860, Note_on_c, 1, 49, 89
3, 22860, Note_on_c, 1, 46, 80
3, 22920, Note_on_c, 1, 48, 85
3, 22920, Note_on_c, 1, 44, 76
3, 22921, Note_on_c, 1, 49, 0
3, 22922, Note_on_c, 1, 46, 0
3, 22973, Note_on_c, 1, 44, 0
3, 22976, Note_on_c, 1, 48, 0
3, 22980, Note_on_c, 1, 46, 76
3, 22980, Note_on_c, 1, 43, 93
3, 23035, Note_on_c, 1, 43, 0
3, 23038, Note_on_c, 1, 46, 0
3, 23040, Note_on_c, 1, 53, 89
3, 23040, Note_on_c, 1, 48, 85
3, 23152, Note_on_c, 1, 53, 0
3, 23159, Note_on_c, 1, 48, 0
3, 23280, Note_on_c, 1, 48, 89
3, 23509, Note_on_c, 1, 48, 0
3, 23520, Note_on_c, 1, 53, 80
3, 23736, Note_on_c, 1, 53, 0
3, 23760, Note_on_c, 1, 53, 93
3, 23760, Note_on_c, 1, 41, 89
3, 23775, Note_on_c, 1, 51, 57
3, 23776, Note_on_c, 1, 53, 0
3, 23789, Note_on_c, 1, 51, 0
3, 23790, Note_on_c, 1, 53, 76
3, 23805, Note_on_c, 1, 51, 62
3, 23807, Note_on_c, 1, 53, 0
3, 23819, Note_on_c, 1, 51, 0
3, 23820, Note_on_c, 1, 53, 76
3, 23835, Note_on_c, 1, 51, 59
3, 23837, Note_on_c, 1, 53, 0
3, 23848, Note_on_c, 1, 51, 0
3, 23850, Note_on_c, 1, 53, 72
3, 23865, Note_on_c, 1, 51, 60
3, 23867, Note_on_c, 1, 53, 0
3, 23879, Note_on_c, 1, 51, 0
3, 23880, Note_on_c, 1, 53, 68
3, 23895, Note_on_c, 1, 51, 60
3, 23896, Note_on_c, 1, 53, 0
3, 23909, Note_on_c, 1, 51, 0
3, 23910, Note_on_c, 1, 53, 59
3, 23925, Note_on_c, 1, 51, 60
3, 23928, Note_on_c, 1, 53, 0
3, 23939, Note_on_c, 1, 51, 0
3, 23940, Note_on_c, 1, 53, 85
3, 23969, Note_on_c, 1, 53, 0
3, 23970, Note_on_c, 1, 51, 76
3, 23993, Note_on_c, 1, 41, 0
3, 24000, Note_on_c, 1, 51, 0
3, 24000, Note_on_c, 1, 50, 89
3, 24000, Note_on_c, 1, 46, 102
3, 24021, Note_on_c, 1, 50, 0
3, 24060, Note_on_c, 1, 50, 85
3, 24120, Note_on_c, 1, 51, 76
3, 24123, Note_on_c, 1, 50, 0
3, 24174, Note_on_c, 1, 51, 0
3, 24180, Note_on_c, 1, 53, 89
3, 24216, Note_on_c, 1, 46, 0
3, 24240, Note_on_c, 1, 53, 0
3, 24240, Note_on_c, 1, 48, 89
3, 24240, Note_on_c, 1, 46, 89
3, 24253, Note_on_c, 1, 46, 0
3, 24255, Note_on_c, 1, 44, 62
3, 24259, Note_on_c, 1, 48, 0
3, 24268, Note_on_c, 1, 44, 0
3, 24270, Note_on_c, 1, 46, 76
3, 24283, Note_on_c, 1, 46, 0
3, 24285, Note_on_c, 1, 44, 62
3, 24298, Note_on_c, 1, 44, 0
3, 24300, Note_on_c, 1, 48, 85
3, 24300, Note_on_c, 1, 46, 89
3, 24313, Note_on_c, 1, 46, 0
3, 24315, Note_on_c, 1, 44, 72
3, 24326, Note_on_c, 1, 44, 0
3, 24330, Note_on_c, 1, 46, 85
3, 24344, Note_on_c, 1, 46, 0
3, 24345, Note_on_c, 1, 44, 68
3, 24358, Note_on_c, 1, 44, 0
3, 24360, Note_on_c, 1, 48, 0
3, 24360, Note_on_c, 1, 50, 89
3, 24360, Note_on_c, 1, 46, 72
3, 24374, Note_on_c, 1, 46, 0
3, 24375, Note_on_c, 1, 44, 76
3, 24390, Note_on_c, 1, 44, 0
3, 24390, Note_on_c, 1, 46, 72
3, 24405, Note_on_c, 1, 44, 72
3, 24406, Note_on_c, 1, 46, 0
3, 24418, Note_on_c, 1, 50, 0
3, 24419, Note_on_c, 1, 44, 0
3, 24420, Note_on_c, 1, 51, 76
3, 24420, Note_on_c, 1, 46, 76
3, 24450, Note_on_c, 1, 44, 76
3, 24453, Note_on_c, 1, 46, 0
3, 24477, Note_on_c, 1, 51, 0
3, 24479, Note_on_c, 1, 44, 0
3, 24480, Note_on_c, 1, 46, 72
3, 24480, Note_on_c, 1, 43, 89
3, 24498, Note_on_c, 1, 43, 0
3, 24537, Note_on_c, 1, 46, 0
3, 24540, Note_on_c, 1, 43, 89
3, 24600, Note_on_c, 1, 51, 80
3, 24600, Note_on_c, 1, 44, 85
3, 24603, Note_on_c, 1, 43, 0
3, 24654, Note_on_c, 1, 44, 0
3, 24660, Note_on_c, 1, 46, 76
3, 24719, Note_on_c, 1, 46, 0
3, 24720, Note_on_c, 1, 41, 89
3, 24734, Note_on_c, 1, 41, 0
3, 24780, Note_on_c, 1, 41, 93
3, 24832, Note_on_c, 1, 51, 0
3, 24839, Note_on_c, 1, 41, 0
3, 24840, Note_on_c, 1, 50, 89
3, 24840, Note_on_c, 1, 43, 89
3, 24898, Note_on_c, 1, 43, 0
3, 24900, Note_on_c, 1, 44, 72
3, 24957, Note_on_c, 1, 50, 0
3, 24958, Note_on_c, 1, 44, 0
3, 24960, Note_on_c, 1, 51, 72
3, 24960, Note_on_c, 1, 39, 76
3, 25080, Note_on_c, 1, 51, 0
3, 25088, Note_on_c, 1, 39, 0
3, 25140, Note_on_c, 1, 43, 89
3, 25195, Note_on_c, 1, 43, 0
3, 25200, Note_on_c, 1, 51, 80
3, 25256, Note_on_c, 1, 51, 0
3, 25260, Note_on_c, 1, 41, 85
3, 25320, Note_on_c, 1, 50, 85
3, 25321, Note_on_c, 1, 41, 0
3, 25376, Note_on_c, 1, 50, 0
3, 25380, Note_on_c, 1, 41, 85
3, 25436, Note_on_c, 1, 41, 0
3, 25440, Note_on_c, 1, 39, 80
3, 25500, Note_on_c, 1, 55, 76
3, 25507, Note_on_c, 1, 39, 0
3, 25558, Note_on_c, 1, 55, 0
3, 25560, Note_on_c, 1, 53, 80
3, 25560, Note_on_c, 1, 48, 89
3, 25617, Note_on_c, 1, 53, 0
3, 25620, Note_on_c, 1, 51, 72
3, 25679, Note_on_c, 1, 48, 0
3, 25680, Note_on_c, 1, 60, 80
3, 25680, Note_on_c, 1, 44, 89
3, 25681, Note_on_c, 1, 51, 0
3, 25794, Note_on_c, 1, 44, 0
3, 25795, Note_on_c, 1, 60, 0
3, 25800, Note_on_c, 1, 58, 76
3, 25800, Note_on_c, 1, 46, 80
3, 25916, Note_on_c, 1, 46, 0
3, 25920, Note_on_c, 1, 43, 89
3, 25976, Note_on_c, 1, 43, 0
3, 26032, Note_on_c, 1, 58, 0
3, 26040, Note_on_c, 1, 56, 76
3, 26040, Note_on_c, 1, 44, 98
3, 26156, Note_on_c, 1, 44, 0
3, 26160, Note_on_c, 1, 41, 80
3, 26270, Note_on_c, 1, 56, 0
3, 26275, Note_on_c, 1, 41, 0
3, 26280, Note_on_c, 1, 55, 85
3, 26280, Note_on_c, 1, 43, 89
3, 26393, Note_on_c, 1, 43, 0
3, 26394, Note_on_c, 1, 55, 0
3, 26400, Note_on_c, 1, 54, 80
3, 26400, Note_on_c, 1, 44, 85
3, 26420, Note_on_c, 1, 54, 0
3, 26429, Note_on_c, 1, 44, 0
3, 26640, Note_on_c, 1, 54, 89
3, 26640, Note_on_c, 1, 45, 93
3, 26661, Note_on_c, 1, 54, 0
3, 26669, Note_on_c, 1, 45, 0
3, 26880, Note_on_c, 1, 54, 89
3, 26880, Note_on_c, 1, 46, 89
3, 26898, Note_on_c, 1, 54, 0
3, 26910, Note_on_c, 1, 46, 0
3, 27120, Note_on_c, 1, 54, 93
3, 27120, Note_on_c, 1, 48, 89
3, 27138, Note_on_c, 1, 54, 0
3, 27148, Note_on_c, 1, 48, 0
3, 27360, Note_on_c, 1, 54, 62
3, 27360, Note_on_c, 1, 49, 72
3, 27410, Note_on_c, 1, 49, 0
3, 27412, Note_on_c, 1, 54, 0
3, 27420, Note_on_c, 1, 54, 80
3, 27420, Note_on_c, 1, 49, 76
3, 27465, Note_on_c, 1, 49, 76
3, 27467, Note_on_c, 1, 49, 0
3, 27468, Note_on_c, 1, 54, 0
3, 27480, Note_on_c, 1, 54, 76
3, 27520, Note_on_c, 1, 49, 0
3, 27531, Note_on_c, 1, 54, 0
3, 27540, Note_on_c, 1, 54, 80
3, 27540, Note_on_c, 1, 49, 89
3, 27585, Note_on_c, 1, 49, 0
3, 27589, Note_on_c, 1, 54, 0
3, 27600, Note_on_c, 1, 54, 80
3, 27600, Note_on_c, 1, 49, 85
3, 27649, Note_on_c, 1, 54, 0
3, 27657, Note_on_c, 1, 49, 0
3, 27660, Note_on_c, 1, 54, 85
3, 27660, Note_on_c, 1, 37, 80
3, 27708, Note_on_c, 1, 37, 0
3, 27708, Note_on_c, 1, 54, 0
3, 27720, Note_on_c, 1, 54, 76
3, 27720, Note_on_c, 1, 37, 89
3, 27768, Note_on_c, 1, 37, 0
3, 27780, Note_on_c, 1, 45, 93
3, 27780, Note_on_c, 1, 37, 76
3, 27781, Note_on_c, 1, 54, 0
3, 27834, Note_on_c, 1, 37, 0
3, 27838, Note_on_c, 1, 45, 0
3, 27840, Note_on_c, 1, 47, 85
3, 27840, Note_on_c, 1, 37, 80
3, 27888, Note_on_c, 1, 37, 0
3, 27889, Note_on_c, 1, 47, 0
3, 27900, Note_on_c, 1, 47, 89
3, 27900, Note_on_c, 1, 37, 89
3, 27947, Note_on_c, 1, 37, 0
3, 27950, Note_on_c, 1, 47, 0
3, 27960, Note_on_c, 1, 47, 76
3, 27960, Note_on_c, 1, 37, 93
3, 28006, Note_on_c, 1, 37, 0
3, 28008, Note_on_c, 1, 47, 0
3, 28020, Note_on_c, 1, 47, 89
3, 28020, Note_on_c, 1, 37, 89
3, 28064, Note_on_c, 1, 37, 0
3, 28070, Note_on_c, 1, 47, 0
3, 28080, Note_on_c, 1, 47, 76
3, 28080, Note_on_c, 1, 37, 93
3, 28124, Note_on_c, 1, 37, 0
3, 28133, Note_on_c, 1, 47, 0
3, 28140, Note_on_c, 1, 47, 89
3, 28140, Note_on_c, 1, 37, 93
3, 28189, Note_on_c, 1, 37, 0
3, 28192, Note_on_c, 1, 47, 0
3, 28200, Note_on_c, 1, 47, 85
3, 28200, Note_on_c, 1, 37, 93
3, 28246, Note_on_c, 1, 37, 0
3, 28246, Note_on_c, 1, 47, 0
3, 28260, Note_on_c, 1, 47, 76
3, 28260, Note_on_c, 1, 37, 93
3, 28315, Note_on_c, 1, 37, 0
3, 28317, Note_on_c, 1, 47, 0
3, 28320, Note_on_c, 1, 45, 85
3, 28320, Note_on_c, 1, 42, 89
3, 28432, Note_on_c, 1, 45, 0
3, 28438, Note_on_c, 1, 42, 0
3, 28800, Note_on_c, 1, 50, 93
3, 28800, Note_on_c, 1, 41, 85
3, 28800, Note_on_c, 1, 47, 85
3, 28800, Note_on_c, 1, 44, 89
3, 28910, Note_on_c, 1, 44, 0
3, 28910, Note_on_c, 1, 47, 0
3, 28910, Note_on_c, 1, 41, 0
3, 28914, Note_on_c, 1, 50, 0
3, 29280, Note_on_c, 1, 50, 89
3, 29280, Note_on_c, 1, 41, 89
3, 29280, Note_on_c, 1, 44, 80
3, 29280, Note_on_c, 1, 47, 89
3, 29394, Note_on_c, 1, 50, 0
3, 29395, Note_on_c, 1, 47, 0
3, 29396, Note_on_c, 1, 44, 0
3, 29397, Note_on_c, 1, 41, 0
3, 29760, Note_on_c, 1, 55, 76
3, 29760, Note_on_c, 1, 49, 80
3, 29760, Note_on_c, 1, 46, 76
3, 29760, Note_on_c, 1, 39, 76
3, 29760, Note_on_c, 1, 43, 93
3, 29870, Note_on_c, 1, 39, 0
3, 29872, Note_on_c, 1, 43, 0
3, 29874, Note_on_c, 1, 46, 0
3, 29877, Note_on_c, 1, 49, 0
3, 29878, Note_on_c, 1, 55, 0
3, 30240, Note_on_c, 1, 51, 72
3, 30240, Note_on_c, 1, 47, 89
3, 30240, Note_on_c, 1, 44, 89
3, 30356, Note_on_c, 1, 51, 0
3, 30357, Note_on_c, 1, 44, 0
3, 30357, Note_on_c, 1, 47, 0
3, 30720, Note_on_c, 1, 52, 80
3, 30720, Note_on_c, 1, 49, 76
3, 30720, Note_on_c, 1, 46, 76
3, 30720, Note_on_c, 1, 44, 89
3, 30831, Note_on_c, 1, 46, 0
3, 30832, Note_on_c, 1, 44, 0
3, 30834, Note_on_c, 1, 52, 0
3, 30836, Note_on_c, 1, 49, 0
3, 31200, Note_on_c, 1, 52, 85
3, 31200, Note_on_c, 1, 49, 72
3, 31200, Note_on_c, 1, 46, 72
3, 31200, Note_on_c, 1, 43, 85
3, 31316, Note_on_c, 1, 52, 0
3, 31317, Note_on_c, 1, 46, 0
3, 31319, Note_on_c, 1, 49, 0
3, 31321, Note_on_c, 1, 43, 0
3, 31680, Note_on_c, 1, 48, 72
3, 31680, Note_on_c, 1, 51, 68
3, 31680, Note_on_c, 1, 39, 76
3, 31680, Note_on_c, 1, 45, 98
3, 31797, Note_on_c, 1, 39, 0
3, 31799, Note_on_c, 1, 45, 0
3, 31799, Note_on_c, 1, 48, 0
3, 31801, Note_on_c, 1, 51, 0
3, 32100, Note_on_c, 1, 46, 76
3, 32100, Note_on_c, 1, 43, 76
3, 32115, Note_on_c, 1, 45, 85
3, 32115, Note_on_c, 1, 41, 76
3, 32116, Note_on_c, 1, 46, 0
3, 32125, Note_on_c, 1, 43, 0
3, 32127, Note_on_c, 1, 45, 0
3, 32129, Note_on_c, 1, 41, 0
3, 32130, Note_on_c, 1, 43, 76
3, 32130, Note_on_c, 1, 45, 89
3, 32130, Note_on_c, 1, 40, 76
3, 32143, Note_on_c, 1, 45, 0
3, 32145, Note_on_c, 1, 43, 0
3, 32145, Note_on_c, 1, 41, 68
3, 32148, Note_on_c, 1, 40, 0
3, 32160, Note_on_c, 1, 41, 0
3, 32160, Note_on_c, 1, 53, 98
3, 32160, Note_on_c, 1, 49, 89
3, 32240, Note_on_c, 1, 49, 0
3, 32245, Note_on_c, 1, 53, 0
3, 32250, Note_on_c, 1, 53, 80
3, 32250, Note_on_c, 1, 49, 89
3, 32273, Note_on_c, 1, 49, 0
3, 32279, Note_on_c, 1, 53, 0
3, 32280, Note_on_c, 1, 49, 89
3, 32280, Note_on_c, 1, 46, 76
3, 32361, Note_on_c, 1, 49, 0
3, 32362, Note_on_c, 1, 46, 0
3, 32370, Note_on_c, 1, 53, 93
3, 32370, Note_on_c, 1, 49, 85
3, 32395, Note_on_c, 1, 49, 0
3, 32396, Note_on_c, 1, 53, 0
3, 32400, Note_on_c, 1, 43, 89
3, 32400, Note_on_c, 1, 39, 80
3, 32527, Note_on_c, 1, 43, 0
3, 32574, Note_on_c, 1, 39, 0
3, 32580, Note_on_c, 1, 44, 85
3, 32580, Note_on_c, 1, 41, 89
3, 32595, Note_on_c, 1, 43, 76
3, 32595, Note_on_c, 1, 39, 85
3, 32596, Note_on_c, 1, 44, 0
3, 32599, Note_on_c, 1, 41, 0
3, 32607, Note_on_c, 1, 39, 0
3, 32610, Note_on_c, 1, 41, 60
3, 32610, Note_on_c, 1, 38, 72
3, 32611, Note_on_c, 1, 43, 0
3, 32625, Note_on_c, 1, 41, 0
3, 32625, Note_on_c, 1, 43, 76
3, 32625, Note_on_c, 1, 39, 53
3, 32628, Note_on_c, 1, 38, 0
3, 32636, Note_on_c, 1, 43, 0
3, 32638, Note_on_c, 1, 39, 0
3, 32640, Note_on_c, 1, 51, 76
3, 32640, Note_on_c, 1, 48, 85
3, 32714, Note_on_c, 1, 48, 0
3, 32717, Note_on_c, 1, 51, 0
3, 32730, Note_on_c, 1, 51, 85
3, 32730, Note_on_c, 1, 48, 89
3, 32757, Note_on_c, 1, 48, 0
3, 32758, Note_on_c, 1, 51, 0
3, 32760, Note_on_c, 1, 48, 85
3, 32760, Note_on_c, 1, 44, 85
3, 32846, Note_on_c, 1, 44, 0
3, 32846, Note_on_c, 1, 48, 0
3, 32850, Note_on_c, 1, 51, 89
3, 32850, Note_on_c, 1, 48, 93
3, 32875, Note_on_c, 1, 48, 0
3, 32877, Note_on_c, 1, 51, 0
3, 32880, Note_on_c, 1, 41, 76
3, 32880, Note_on_c, 1, 37, 89
3, 32940, Note_on_c, 1, 43, 51
3, 32957, Note_on_c, 1, 43, 0
3, 33014, Note_on_c, 1, 37, 0
3, 33031, Note_on_c, 1, 41, 0
3, 33060, Note_on_c, 1, 43, 80
3, 33060, Note_on_c, 1, 39, 76
3, 33075, Note_on_c, 1, 41, 68
3, 33075, Note_on_c, 1, 37, 85
3, 33077, Note_on_c, 1, 43, 0
3, 33078, Note_on_c, 1, 39, 0
3, 33088, Note_on_c, 1, 41, 0
3, 33090, Note_on_c, 1, 37, 0
3, 33090, Note_on_c, 1, 40, 56
3, 33090, Note_on_c, 1, 36, 72
3, 33105, Note_on_c, 1, 41, 59
3, 33105, Note_on_c, 1, 37, 62
3, 33107, Note_on_c, 1, 36, 0
3, 33109, Note_on_c, 1, 40, 0
3, 33116, Note_on_c, 1, 41, 0
3, 33120, Note_on_c, 1, 37, 0
3, 33120, Note_on_c, 1, 49, 76
3, 33120, Note_on_c, 1, 46, 85
3, 33197, Note_on_c, 1, 49, 0
3, 33200, Note_on_c, 1, 46, 0
3, 33210, Note_on_c, 1, 49, 93
3, 33210, Note_on_c, 1, 46, 76
3, 33236, Note_on_c, 1, 46, 0
3, 33239, Note_on_c, 1, 49, 0
3, 33240, Note_on_c, 1, 46, 76
3, 33240, Note_on_c, 1, 43, 93
3, 33326, Note_on_c, 1, 43, 0
3, 33327, Note_on_c, 1, 46, 0
3, 33330, Note_on_c, 1, 49, 89
3, 33330, Note_on_c, 1, 46, 85
3, 33358, Note_on_c, 1, 46, 0
3, 33360, Note_on_c, 1, 49, 0
3, 33360, Note_on_c, 1, 40, 80
3, 33360, Note_on_c, 1, 36, 89
3, 33488, Note_on_c, 1, 40, 0
3, 33512, Note_on_c, 1, 36, 0
3, 33540, Note_on_c, 1, 40, 93
3, 33540, Note_on_c, 1, 36, 89
3, 33592, Note_on_c, 1, 36, 0
3, 33592, Note_on_c, 1, 40, 0
3, 33600, Note_on_c, 1, 48, 89
3, 33600, Note_on_c, 1, 41, 89
3, 33690, Note_on_c, 1, 46, 76
3, 33692, Note_on_c, 1, 48, 0
3, 33720, Note_on_c, 1, 44, 89
3, 33722, Note_on_c, 1, 46, 0
3, 33804, Note_on_c, 1, 41, 0
3, 33805, Note_on_c, 1, 44, 0
3, 33810, Note_on_c, 1, 43, 80
3, 33810, Note_on_c, 1, 39, 85
3, 33839, Note_on_c, 1, 43, 0
3, 33840, Note_on_c, 1, 39, 0
3, 33840, Note_on_c, 1, 41, 85
3, 33840, Note_on_c, 1, 38, 89
3, 33960, Note_on_c, 1, 38, 0
3, 33960, Note_on_c, 1, 37, 89
3, 34047, Note_on_c, 1, 41, 0
3, 34050, Note_on_c, 1, 40, 76
3, 34063, Note_on_c, 1, 40, 0
3, 34065, Note_on_c, 1, 41, 80
3, 34079, Note_on_c, 1, 37, 0
3, 34080, Note_on_c, 1, 43, 80
3, 34080, Note_on_c, 1, 36, 89
3, 34083, Note_on_c, 1, 41, 0
3, 34189, Note_on_c, 1, 43, 0
3, 34195, Note_on_c, 1, 36, 0
3, 34440, Note_on_c, 1, 44, 85
3, 34440, Note_on_c, 1, 36, 89
3, 34440, Note_on_c, 1, 41, 93
3, 34552, Note_on_c, 1, 44, 0
3, 34554, Note_on_c, 1, 41, 0
3, 34560, Note_on_c, 1, 43, 72
3, 34560, Note_on_c, 1, 40, 62
3, 34673, Note_on_c, 1, 36, 0
3, 34676, Note_on_c, 1, 40, 0
3, 34678, Note_on_c, 1, 43, 0
3, 34920, Note_on_c, 1, 41, 80
3, 34920, Note_on_c, 1, 44, 76
3, 34920, Note_on_c, 1, 36, 80
3, 35023, Note_on_c, 1, 41, 0
3, 35028, Note_on_c, 1, 44, 0
3, 35040, Note_on_c, 1, 40, 89
3, 35040, Note_on_c, 1, 43, 89
3, 35148, Note_on_c, 1, 43, 0
3, 35150, Note_on_c, 1, 40, 0
3, 35160, Note_on_c, 1, 44, 64
3, 35160, Note_on_c, 1, 41, 59
3, 35277, Note_on_c, 1, 41, 0
3, 35277, Note_on_c, 1, 44, 0
3, 35280, Note_on_c, 1, 43, 72
3, 35280, Note_on_c, 1, 40, 80
3, 35389, Note_on_c, 1, 40, 0
3, 35393, Note_on_c, 1, 43, 0
3, 35400, Note_on_c, 1, 44, 68
3, 35400, Note_on_c, 1, 41, 56
3, 35505, Note_on_c, 1, 44, 0
3, 35505, Note_on_c, 1, 43, 60
3, 35511, Note_on_c, 1, 41, 0
3, 35520, Note_on_c, 1, 40, 89
3, 35607, Note_on_c, 1, 36, 0
3, 35632, Note_on_c, 1, 43, 0
3, 35643, Note_on_c, 1, 40, 0
3, 36480, Note_on_c, 1, 44, 76
3, 36570, Note_on_c, 1, 46, 64
3, 36583, Note_on_c, 1, 46, 0
3, 36585, Note_on_c, 1, 48, 80
3, 36600, Note_on_c, 1, 49, 60
3, 36602, Note_on_c, 1, 48, 0
3, 36710, Note_on_c, 1, 49, 0
3, 36720, Note_on_c, 1, 48, 85
3, 36822, Note_on_c, 1, 44, 0
3, 36832, Note_on_c, 1, 48, 0
3, 36840, Note_on_c, 1, 39, 68
3, 36840, Note_on_c, 1, 46, 64
3, 36955, Note_on_c, 1, 46, 0
3, 36960, Note_on_c, 1, 43, 76
3, 37078, Note_on_c, 1, 39, 0
3, 37080, Note_on_c, 1, 41, 85
3, 37080, Note_on_c, 1, 44, 80
3, 37082, Note_on_c, 1, 43, 0
3, 37192, Note_on_c, 1, 41, 0
3, 37200, Note_on_c, 1, 38, 68
3, 37306, Note_on_c, 1, 44, 0
3, 37320, Note_on_c, 1, 46, 76
3, 37433, Note_on_c, 1, 46, 0
3, 37440, Note_on_c, 1, 47, 89
3, 37541, Note_on_c, 1, 38, 0
3, 37558, Note_on_c, 1, 47, 0
3, 37560, Note_on_c, 1, 48, 72
3, 37560, Note_on_c, 1, 39, 89
3, 37678, Note_on_c, 1, 48, 0
3, 37680, Note_on_c, 1, 46, 76
3, 37740, Note_on_c, 1, 39, 0
3, 37747, Note_on_c, 1, 46, 0
3, 37920, Note_on_c, 1, 54, 85
3, 37920, Note_on_c, 1, 45, 89
3, 38032, Note_on_c, 1, 54, 0
3, 38033, Note_on_c, 1, 45, 0
3, 38040, Note_on_c, 1, 46, 68
3, 38040, Note_on_c, 1, 53, 76
3, 38125, Note_on_c, 1, 53, 0
3, 38125, Note_on_c, 1, 46, 0
3, 38280, Note_on_c, 1, 43, 76
3, 38280, Note_on_c, 1, 52, 76
3, 38394, Note_on_c, 1, 52, 0
3, 38396, Note_on_c, 1, 43, 0
3, 38400, Note_on_c, 1, 51, 80
3, 38400, Note_on_c, 1, 44, 72
3, 38466, Note_on_c, 1, 44, 0
3, 38467, Note_on_c, 1, 51, 0
3, 38520, Note_on_c, 1, 37, 76
3, 38520, Note_on_c, 1, 46, 76
3, 38630, Note_on_c, 1, 37, 0
3, 38631, Note_on_c, 1, 46, 0
3, 38640, Note_on_c, 1, 49, 72
3, 38640, Note_on_c, 1, 39, 72
3, 38806, Note_on_c, 1, 49, 0
3, 38820, Note_on_c, 1, 48, 80
3, 38880, Note_on_c, 1, 46, 68
3, 38881, Note_on_c, 1, 48, 0
3, 38934, Note_on_c, 1, 46, 0
3, 38940, Note_on_c, 1, 51, 72
3, 38940, Note_on_c, 1, 55, 80
3, 38979, Note_on_c, 1, 39, 0
3, 38987, Note_on_c, 1, 51, 0
3, 38988, Note_on_c, 1, 55, 0
3, 39000, Note_on_c, 1, 44, 72
3, 39000, Note_on_c, 1, 55, 76
3, 39000, Note_on_c, 1, 51, 76
3, 39092, Note_on_c, 1, 55, 0
3, 39120, Note_on_c, 1, 56, 76
3, 39209, Note_on_c, 1, 51, 0
3, 39215, Note_on_c, 1, 44, 0
3, 39220, Note_on_c, 1, 56, 0
3, 39360, Note_on_c, 1, 56, 98
3, 39360, Note_on_c, 1, 48, 80
3, 39476, Note_on_c, 1, 48, 0
3, 39477, Note_on_c, 1, 56, 0
3, 39480, Note_on_c, 1, 58, 89
3, 39480, Note_on_c, 1, 51, 68
3, 39594, Note_on_c, 1, 51, 0
3, 39597, Note_on_c, 1, 58, 0
3, 39600, Note_on_c, 1, 60, 76
3, 39600, Note_on_c, 1, 56, 76
3, 39708, Note_on_c, 1, 60, 0
3, 39710, Note_on_c, 1, 56, 0
3, 39720, Note_on_c, 1, 58, 76
3, 39720, Note_on_c, 1, 61, 62
3, 39829, Note_on_c, 1, 61, 0
3, 39831, Note_on_c, 1, 58, 0
3, 39840, Note_on_c, 1, 55, 85
3, 39840, Note_on_c, 1, 51, 72
3, 39952, Note_on_c, 1, 51, 0
3, 39957, Note_on_c, 1, 55, 0
3, 39960, Note_on_c, 1, 56, 57
3, 39960, Note_on_c, 1, 53, 80
3, 40076, Note_on_c, 1, 53, 0
3, 40080, Note_on_c, 1, 50, 89
3, 40190, Note_on_c, 1, 56, 0
3, 40200, Note_on_c, 1, 58, 76
3, 40320, Note_on_c, 1, 58, 0
3, 40320, Note_on_c, 1, 59, 93
3, 40428, Note_on_c, 1, 50, 0
3, 40434, Note_on_c, 1, 59, 0
3, 40440, Note_on_c, 1, 60, 76
3, 40440, Note_on_c, 1, 51, 76
3, 40560, Note_on_c, 1, 60, 0
3, 40560, Note_on_c, 1, 58, 76
3, 40613, Note_on_c, 1, 51, 0
3, 40618, Note_on_c, 1, 58, 0
3, 40800, Note_on_c, 1, 53, 85
3, 40800, Note_on_c, 1, 60, 80
3, 40914, Note_on_c, 1, 60, 0
3, 40915, Note_on_c, 1, 53, 0
3, 40920, Note_on_c, 1, 58, 72
3, 40920, Note_on_c, 1, 46, 57
3, 41001, Note_on_c, 1, 46, 0
3, 41001, Note_on_c, 1, 58, 0
3, 41160, Note_on_c, 1, 51, 68
3, 41160, Note_on_c, 1, 58, 85
3, 41273, Note_on_c, 1, 51, 0
3, 41274, Note_on_c, 1, 58, 0
3, 41280, Note_on_c, 1, 53, 85
3, 41280, Note_on_c, 1, 56, 89
3, 41335, Note_on_c, 1, 56, 0
3, 41335, Note_on_c, 1, 53, 0
3, 41400, Note_on_c, 1, 56, 80
3, 41400, Note_on_c, 1, 49, 72
3, 41480, Note_on_c, 1, 49, 0
3, 41483, Note_on_c, 1, 56, 0
3, 41521, Note_on_c, 1, 56, 68
3, 41522, Note_on_c, 1, 51, 72
3, 41603, Note_on_c, 1, 56, 0
3, 41610, Note_on_c, 1, 58, 68
3, 41619, Note_on_c, 1, 58, 0
3, 41620, Note_on_c, 1, 56, 72
3, 41629, Note_on_c, 1, 56, 0
3, 41630, Note_on_c, 1, 55, 80
3, 41639, Note_on_c, 1, 55, 0
3, 41641, Note_on_c, 1, 56, 72
3, 41709, Note_on_c, 1, 56, 0
3, 41734, Note_on_c, 1, 56, 76
3, 41754, Note_on_c, 1, 56, 0
3, 41761, Note_on_c, 1, 58, 76
3, 41805, Note_on_c, 1, 51, 0
3, 41816, Note_on_c, 1, 58, 0
3, 41880, Note_on_c, 1, 51, 80
3, 41880, Note_on_c, 1, 49, 72
3, 41880, Note_on_c, 1, 44, 72
3, 41999, Note_on_c, 1, 49, 0
3, 42000, Note_on_c, 1, 48, 76
3, 42056, Note_on_c, 1, 44, 0
3, 42057, Note_on_c, 1, 51, 0
3, 42061, Note_on_c, 1, 48, 0
3, 42240, Note_on_c, 1, 53, 80
3, 42240, Note_on_c, 1, 50, 76
3, 42352, Note_on_c, 1, 50, 0
3, 42355, Note_on_c, 1, 53, 0
3, 42360, Note_on_c, 1, 51, 64
3, 42424, Note_on_c, 1, 51, 0
3, 42600, Note_on_c, 1, 53, 76
3, 42600, Note_on_c, 1, 50, 85
3, 42710, Note_on_c, 1, 50, 0
3, 42711, Note_on_c, 1, 53, 0
3, 42720, Note_on_c, 1, 51, 72
3, 42774, Note_on_c, 1, 51, 0
3, 42960, Note_on_c, 1, 55, 80
3, 42960, Note_on_c, 1, 46, 72
3, 43133, Note_on_c, 1, 55, 0
3, 43140, Note_on_c, 1, 56, 76
3, 43170, Note_on_c, 1, 55, 89
3, 43173, Note_on_c, 1, 56, 0
3, 43186, Note_on_c, 1, 55, 0
3, 43200, Note_on_c, 1, 55, 80
3, 43230, Note_on_c, 1, 55, 0
3, 43230, Note_on_c, 1, 53, 80
3, 43260, Note_on_c, 1, 51, 68
3, 43264, Note_on_c, 1, 53, 0
3, 43289, Note_on_c, 1, 51, 0
3, 43290, Note_on_c, 1, 53, 89
3, 43291, Note_on_c, 1, 46, 0
3, 43306, Note_on_c, 1, 53, 0
3, 43320, Note_on_c, 1, 39, 72
3, 43320, Note_on_c, 1, 46, 62
3, 43320, Note_on_c, 1, 53, 85
3, 43433, Note_on_c, 1, 53, 0
3, 43440, Note_on_c, 1, 51, 62
3, 43487, Note_on_c, 1, 46, 0
3, 43489, Note_on_c, 1, 39, 0
3, 43495, Note_on_c, 1, 51, 0
3, 43560, Note_on_c, 1, 63, 80
3, 43617, Note_on_c, 1, 63, 0
3, 43620, Note_on_c, 1, 62, 80
3, 43677, Note_on_c, 1, 62, 0
3, 43680, Note_on_c, 1, 60, 76
3, 43788, Note_on_c, 1, 60, 0
3, 43860, Note_on_c, 1, 58, 89
3, 43872, Note_on_c, 1, 58, 0
3, 43920, Note_on_c, 1, 56, 80
3, 43932, Note_on_c, 1, 56, 0
3, 43980, Note_on_c, 1, 55, 89
3, 43990, Note_on_c, 1, 55, 0
3, 44040, Note_on_c, 1, 53, 89
3, 44040, Note_on_c, 1, 46, 93
3, 44202, Note_on_c, 1, 53, 0
3, 44220, Note_on_c, 1, 51, 76
3, 44280, Note_on_c, 1, 50, 80
3, 44284, Note_on_c, 1, 51, 0
3, 44321, Note_on_c, 1, 46, 0
3, 44340, Note_on_c, 1, 47, 76
3, 44395, Note_on_c, 1, 50, 0
3, 44400, Note_on_c, 1, 47, 0
3, 44400, Note_on_c, 1, 48, 76
3, 44400, Note_on_c, 1, 51, 76
3, 44460, Note_on_c, 1, 45, 93
3, 44462, Note_on_c, 1, 48, 0
3, 44519, Note_on_c, 1, 45, 0
3, 44520, Note_on_c, 1, 46, 89
3, 44533, Note_on_c, 1, 51, 0
3, 44535, Note_on_c, 1, 53, 89
3, 44550, Note_on_c, 1, 51, 60
3, 44555, Note_on_c, 1, 53, 0
3, 44561, Note_on_c, 1, 51, 0
3, 44565, Note_on_c, 1, 50, 72
3, 44580, Note_on_c, 1, 51, 85
3, 44581, Note_on_c, 1, 50, 0
3, 44609, Note_on_c, 1, 51, 0
3, 44610, Note_on_c, 1, 52, 76
3, 44639, Note_on_c, 1, 52, 0
3, 44640, Note_on_c, 1, 53, 80
3, 44685, Note_on_c, 1, 46, 0
3, 44690, Note_on_c, 1, 53, 0
3, 44760, Note_on_c, 1, 56, 76
3, 44760, Note_on_c, 1, 46, 60
3, 44760, Note_on_c, 1, 39, 72
3, 44877, Note_on_c, 1, 56, 0
3, 44880, Note_on_c, 1, 55, 76
3, 44927, Note_on_c, 1, 39, 0
3, 44928, Note_on_c, 1, 46, 0
3, 44937, Note_on_c, 1, 55, 0
3, 45000, Note_on_c, 1, 51, 76
3, 45000, Note_on_c, 1, 57, 93
3, 45115, Note_on_c, 1, 57, 0
3, 45120, Note_on_c, 1, 58, 72
3, 45263, Note_on_c, 1, 51, 0
3, 45271, Note_on_c, 1, 58, 0
3, 45360, Note_on_c, 1, 51, 76
3, 45360, Note_on_c, 1, 55, 85
3, 45478, Note_on_c, 1, 55, 0
3, 45480, Note_on_c, 1, 56, 68
3, 45618, Note_on_c, 1, 51, 0
3, 45620, Note_on_c, 1, 56, 0
3, 45840, Note_on_c, 1, 50, 89
3, 45840, Note_on_c, 1, 39, 76
3, 46008, Note_on_c, 1, 50, 0
3, 46020, Note_on_c, 1, 53, 80
3, 46080, Note_on_c, 1, 56, 72
3, 46101, Note_on_c, 1, 39, 0
3, 46109, Note_on_c, 1, 56, 0
3, 46109, Note_on_c, 1, 53, 0
3, 46140, Note_on_c, 1, 56, 62
3, 46140, Note_on_c, 1, 39, 76
3, 46140, Note_on_c, 1, 53, 85
3, 46156, Note_on_c, 1, 53, 0
3, 46158, Note_on_c, 1, 56, 0
3, 46162, Note_on_c, 1, 39, 0
3, 46200, Note_on_c, 1, 56, 76
3, 46200, Note_on_c, 1, 50, 72
3, 46200, Note_on_c, 1, 39, 72
3, 46315, Note_on_c, 1, 50, 0
3, 46320, Note_on_c, 1, 55, 72
3, 46320, Note_on_c, 1, 51, 55
3, 46321, Note_on_c, 1, 56, 0
3, 46378, Note_on_c, 1, 51, 0
3, 46379, Note_on_c, 1, 39, 0
3, 46381, Note_on_c, 1, 55, 0
3, 46560, Note_on_c, 1, 44, 76
3, 46560, Note_on_c, 1, 48, 76
3, 46676, Note_on_c, 1, 48, 0
3, 46680, Note_on_c, 1, 49, 72
3, 46794, Note_on_c, 1, 49, 0
3, 46800, Note_on_c, 1, 48, 80
3, 46901, Note_on_c, 1, 44, 0
3, 46920, Note_on_c, 1, 39, 59
3, 46920, Note_on_c, 1, 46, 85
3, 46922, Note_on_c, 1, 48, 0
3, 47154, Note_on_c, 1, 39, 0
3, 47157, Note_on_c, 1, 46, 0
3, 47160, Note_on_c, 1, 44, 76
3, 47160, Note_on_c, 1, 41, 80
3, 47269, Note_on_c, 1, 41, 0
3, 47280, Note_on_c, 1, 38, 89
3, 47388, Note_on_c, 1, 44, 0
3, 47400, Note_on_c, 1, 46, 85
3, 47515, Note_on_c, 1, 46, 0
3, 47520, Note_on_c, 1, 47, 89
3, 47627, Note_on_c, 1, 38, 0
3, 47640, Note_on_c, 1, 47, 0
3, 47640, Note_on_c, 1, 39, 76
3, 47640, Note_on_c, 1, 48, 89
3, 47757, Note_on_c, 1, 48, 0
3, 47760, Note_on_c, 1, 46, 76
3, 47801, Note_on_c, 1, 39, 0
3, 47804, Note_on_c, 1, 46, 0
3, 48000, Note_on_c, 1, 51, 76
3, 48000, Note_on_c, 1, 57, 89
3, 48115, Note_on_c, 1, 57, 0
3, 48115, Note_on_c, 1, 51, 0
3, 48120, Note_on_c, 1, 58, 76
3, 48120, Note_on_c, 1, 49, 72
3, 48173, Note_on_c, 1, 58, 0
3, 48177, Note_on_c, 1, 49, 0
3, 48360, Note_on_c, 1, 55, 93
3, 48360, Note_on_c, 1, 49, 80
3, 48473, Note_on_c, 1, 49, 0
3, 48475, Note_on_c, 1, 55, 0
3, 48480, Note_on_c, 1, 56, 89
3, 48480, Note_on_c, 1, 48, 72
3, 48540, Note_on_c, 1, 56, 0
3, 48542, Note_on_c, 1, 48, 0
3, 48720, Note_on_c, 1, 46, 80
3, 48720, Note_on_c, 1, 37, 64
3, 48775, Note_on_c, 1, 37, 0
3, 48776, Note_on_c, 1, 46, 0
3, 48780, Note_on_c, 1, 38, 76
3, 48780, Note_on_c, 1, 47, 89
3, 48838, Note_on_c, 1, 47, 0
3, 48840, Note_on_c, 1, 48, 85
3, 48840, Note_on_c, 1, 39, 72
3, 48843, Note_on_c, 1, 38, 0
3, 48960, Note_on_c, 1, 49, 76
3, 48962, Note_on_c, 1, 48, 0
3, 49070, Note_on_c, 1, 39, 0
3, 49080, Note_on_c, 1, 44, 80
3, 49193, Note_on_c, 1, 49, 0
3, 49200, Note_on_c, 1, 48, 64
3, 49255, Note_on_c, 1, 48, 0
3, 49255, Note_on_c, 1, 44, 0
3, 49440, Note_on_c, 1, 53, 85
3, 49440, Note_on_c, 1, 50, 89
3, 49558, Note_on_c, 1, 50, 0
3, 49560, Note_on_c, 1, 51, 60
3, 49561, Note_on_c, 1, 53, 0
3, 49616, Note_on_c, 1, 51, 0
3, 49800, Note_on_c, 1, 53, 89
3, 49800, Note_on_c, 1, 50, 89
3, 49918, Note_on_c, 1, 50, 0
3, 49918, Note_on_c, 1, 53, 0
3, 49920, Note_on_c, 1, 51, 68
3, 49965, Note_on_c, 1, 51, 0
3, 50160, Note_on_c, 1, 51, 98
3, 50160, Note_on_c, 1, 46, 102
3, 50446, Note_on_c, 1, 51, 0
3, 50460, Note_on_c, 1, 50, 80
3, 50520, Note_on_c, 1, 39, 72
3, 50630, Note_on_c, 1, 50, 0
3, 50640, Note_on_c, 1, 51, 72
3, 50677, Note_on_c, 1, 46, 0
3, 50699, Note_on_c, 1, 39, 0
3, 50706, Note_on_c, 1, 51, 0
3, 50820, Note_on_c, 1, 63, 76
3, 50850, Note_on_c, 1, 63, 0
3, 50850, Note_on_c, 1, 62, 80
3, 50880, Note_on_c, 1, 60, 89
3, 50881, Note_on_c, 1, 62, 0
3, 51054, Note_on_c, 1, 60, 0
3, 51060, Note_on_c, 1, 58, 76
3, 51120, Note_on_c, 1, 58, 0
3, 51120, Note_on_c, 1, 56, 89
3, 51179, Note_on_c, 1, 56, 0
3, 51180, Note_on_c, 1, 55, 85
3, 51239, Note_on_c, 1, 55, 0
3, 51240, Note_on_c, 1, 53, 93
3, 51240, Note_on_c, 1, 46, 64
3, 51411, Note_on_c, 1, 53, 0
3, 51420, Note_on_c, 1, 51, 89
3, 51480, Note_on_c, 1, 50, 89
3, 51487, Note_on_c, 1, 51, 0
3, 51526, Note_on_c, 1, 46, 0
3, 51540, Note_on_c, 1, 47, 76
3, 51597, Note_on_c, 1, 50, 0
3, 51600, Note_on_c, 1, 48, 80
3, 51600, Note_on_c, 1, 51, 76
3, 51601, Note_on_c, 1, 47, 0
3, 51657, Note_on_c, 1, 48, 0
3, 51660, Note_on_c, 1, 45, 89
3, 51718, Note_on_c, 1, 45, 0
3, 51720, Note_on_c, 1, 46, 76
3, 51755, Note_on_c, 1, 51, 0
3, 51765, Note_on_c, 1, 46, 0
3, 51840, Note_on_c, 1, 46, 93
3, 51873, Note_on_c, 1, 46, 0
3, 51960, Note_on_c, 1, 44, 80
3, 51960, Note_on_c, 1, 39, 72
3, 52080, Note_on_c, 1, 43, 68
3, 52081, Note_on_c, 1, 44, 0
3, 52138, Note_on_c, 1, 43, 0
3, 52138, Note_on_c, 1, 39, 0
3, 52200, Note_on_c, 1, 39, 80
3, 52200, Note_on_c, 1, 51, 76
3, 52200, Note_on_c, 1, 48, 89
3, 52312, Note_on_c, 1, 48, 0
3, 52312, Note_on_c, 1, 51, 0
3, 52320, Note_on_c, 1, 53, 80
3, 52320, Note_on_c, 1, 49, 72
3, 52411, Note_on_c, 1, 39, 0
3, 52413, Note_on_c, 1, 53, 0
3, 52415, Note_on_c, 1, 49, 0
3, 52560, Note_on_c, 1, 46, 85
3, 52560, Note_on_c, 1, 49, 80
3, 52560, Note_on_c, 1, 39, 93
3, 52671, Note_on_c, 1, 46, 0
3, 52676, Note_on_c, 1, 49, 0
3, 52680, Note_on_c, 1, 51, 72
3, 52680, Note_on_c, 1, 48, 76
3, 52750, Note_on_c, 1, 48, 0
3, 52750, Note_on_c, 1, 39, 0
3, 52753, Note_on_c, 1, 51, 0
3, 52920, Note_on_c, 1, 44, 89
3, 52920, Note_on_c, 1, 47, 89
3, 52920, Note_on_c, 1, 39, 93
3, 53018, Note_on_c, 1, 39, 0
3, 53019, Note_on_c, 1, 47, 0
3, 53019, Note_on_c, 1, 44, 0
3, 53040, Note_on_c, 1, 41, 72
3, 53040, Note_on_c, 1, 44, 72
3, 53040, Note_on_c, 1, 47, 80
3, 53040, Note_on_c, 1, 39, 80
3, 53084, Note_on_c, 1, 44, 0
3, 53085, Note_on_c, 1, 41, 0
3, 53086, Note_on_c, 1, 47, 0
3, 53100, Note_on_c, 1, 41, 62
3, 53100, Note_on_c, 1, 47, 68
3, 53100, Note_on_c, 1, 44, 76
3, 53142, Note_on_c, 1, 44, 0
3, 53144, Note_on_c, 1, 41, 0
3, 53145, Note_on_c, 1, 47, 0
3, 53160, Note_on_c, 1, 41, 62
3, 53160, Note_on_c, 1, 47, 76
3, 53160, Note_on_c, 1, 44, 62
3, 53195, Note_on_c, 1, 44, 0
3, 53196, Note_on_c, 1, 41, 0
3, 53197, Note_on_c, 1, 47, 0
3, 53220, Note_on_c, 1, 41, 62
3, 53220, Note_on_c, 1, 44, 59
3, 53220, Note_on_c, 1, 47, 68
3, 53257, Note_on_c, 1, 44, 0
3, 53257, Note_on_c, 1, 41, 0
3, 53259, Note_on_c, 1, 47, 0
3, 53280, Note_on_c, 1, 47, 62
3, 53280, Note_on_c, 1, 41, 62
3, 53280, Note_on_c, 1, 44, 68
3, 53318, Note_on_c, 1, 44, 0
3, 53319, Note_on_c, 1, 41, 0
3, 53320, Note_on_c, 1, 47, 0
3, 53340, Note_on_c, 1, 47, 72
3, 53340, Note_on_c, 1, 41, 62
3, 53340, Note_on_c, 1, 44, 62
3, 53359, Note_on_c, 1, 39, 0
3, 53373, Note_on_c, 1, 41, 0
3, 53377, Note_on_c, 1, 44, 0
3, 53378, Note_on_c, 1, 47, 0
3, 53400, Note_on_c, 1, 43, 80
3, 53400, Note_on_c, 1, 46, 76
3, 53400, Note_on_c, 1, 39, 76
3, 53445, Note_on_c, 1, 39, 0
3, 53445, Note_on_c, 1, 46, 0
3, 53446, Note_on_c, 1, 43, 0
3, 53520, Note_on_c, 1, 43, 76
3, 53520, Note_on_c, 1, 46, 76
3, 53520, Note_on_c, 1, 39, 80
3, 53598, Note_on_c, 1, 46, 0
3, 53599, Note_on_c, 1, 43, 0
3, 53600, Note_on_c, 1, 39, 0
3, 53760, Note_on_c, 1, 51, 72
3, 53760, Note_on_c, 1, 56, 72
3, 53760, Note_on_c, 1, 44, 80
3, 53873, Note_on_c, 1, 56, 0
3, 53880, Note_on_c, 1, 55, 89
3, 53991, Note_on_c, 1, 55, 0
3, 54000, Note_on_c, 1, 56, 85
3, 54089, Note_on_c, 1, 51, 0
3, 54097, Note_on_c, 1, 44, 0
3, 54110, Note_on_c, 1, 56, 0
3, 54120, Note_on_c, 1, 49, 89
3, 54120, Note_on_c, 1, 39, 80
3, 54175, Note_on_c, 1, 49, 0
3, 54180, Note_on_c, 1, 46, 76
3, 54240, Note_on_c, 1, 58, 89
3, 54241, Note_on_c, 1, 46, 0
3, 54357, Note_on_c, 1, 39, 0
3, 54360, Note_on_c, 1, 56, 85
3, 54360, Note_on_c, 1, 41, 76
3, 54363, Note_on_c, 1, 58, 0
3, 54471, Note_on_c, 1, 41, 0
3, 54471, Note_on_c, 1, 56, 0
3, 54480, Note_on_c, 1, 53, 93
3, 54480, Note_on_c, 1, 38, 93
3, 54821, Note_on_c, 1, 38, 0
3, 54822, Note_on_c, 1, 53, 0
3, 54840, Note_on_c, 1, 39, 76
3, 54840, Note_on_c, 1, 51, 89
3, 54999, Note_on_c, 1, 51, 0
3, 55009, Note_on_c, 1, 39, 0
3, 55080, Note_on_c, 1, 54, 89
3, 55200, Note_on_c, 1, 41, 85
3, 55222, Note_on_c, 1, 54, 0
3, 55230, Note_on_c, 1, 51, 85
3, 55260, Note_on_c, 1, 51, 0
3, 55260, Note_on_c, 1, 48, 76
3, 55289, Note_on_c, 1, 48, 0
3, 55290, Note_on_c, 1, 57, 89
3, 55314, Note_on_c, 1, 41, 0
3, 55319, Note_on_c, 1, 57, 0
3, 55320, Note_on_c, 1, 58, 89
3, 55320, Note_on_c, 1, 46, 85
3, 55358, Note_on_c, 1, 46, 0
3, 55410, Note_on_c, 1, 58, 0
3, 55440, Note_on_c, 1, 52, 93
3, 55560, Note_on_c, 1, 39, 80
3, 55573, Note_on_c, 1, 52, 0
3, 55590, Note_on_c, 1, 49, 85
3, 55615, Note_on_c, 1, 49, 0
3, 55620, Note_on_c, 1, 46, 55
3, 55648, Note_on_c, 1, 46, 0
3, 55650, Note_on_c, 1, 55, 80
3, 55662, Note_on_c, 1, 55, 0
3, 55677, Note_on_c, 1, 39, 0
3, 55680, Note_on_c, 1, 44, 80
3, 55680, Note_on_c, 1, 56, 80
3, 55710, Note_on_c, 1, 56, 0
3, 55710, Note_on_c, 1, 58, 85
3, 55735, Note_on_c, 1, 58, 0
3, 55740, Note_on_c, 1, 60, 89
3, 55770, Note_on_c, 1, 60, 0
3, 55770, Note_on_c, 1, 48, 57
3, 55784, Note_on_c, 1, 48, 0
3, 55794, Note_on_c, 1, 44, 0
3, 55800, Note_on_c, 1, 37, 76
3, 55800, Note_on_c, 1, 49, 80
3, 55830, Note_on_c, 1, 45, 89
3, 55832, Note_on_c, 1, 49, 0
3, 55859, Note_on_c, 1, 45, 0
3, 55860, Note_on_c, 1, 46, 80
3, 55890, Note_on_c, 1, 49, 59
3, 55892, Note_on_c, 1, 46, 0
3, 55910, Note_on_c, 1, 49, 0
3, 55917, Note_on_c, 1, 37, 0
3, 55920, Note_on_c, 1, 51, 59
3, 55920, Note_on_c, 1, 48, 72
3, 55920, Note_on_c, 1, 39, 93
3, 55946, Note_on_c, 1, 48, 0
3, 55950, Note_on_c, 1, 47, 85
3, 55970, Note_on_c, 1, 47, 0
3, 55980, Note_on_c, 1, 48, 76
3, 56001, Note_on_c, 1, 48, 0
3, 56010, Note_on_c, 1, 48, 68
3, 56038, Note_on_c, 1, 48, 0
3, 56040, Note_on_c, 1, 49, 89
3, 56068, Note_on_c, 1, 49, 0
3, 56070, Note_on_c, 1, 48, 72
3, 56100, Note_on_c, 1, 48, 0
3, 56100, Note_on_c, 1, 49, 68
3, 56124, Note_on_c, 1, 51, 0
3, 56127, Note_on_c, 1, 49, 0
3, 56130, Note_on_c, 1, 48, 64
3, 56158, Note_on_c, 1, 48, 0
3, 56160, Note_on_c, 1, 55, 49
3, 56160, Note_on_c, 1, 51, 85
3, 56160, Note_on_c, 1, 46, 64
3, 56203, Note_on_c, 1, 39, 0
3, 56215, Note_on_c, 1, 46, 0
3, 56216, Note_on_c, 1, 51, 0
3, 56221, Note_on_c, 1, 55, 0
3, 56280, Note_on_c, 1, 61, 85
3, 56280, Note_on_c, 1, 56, 93
3, 56280, Note_on_c, 1, 44, 72
3, 56397, Note_on_c, 1, 61, 0
3, 56400, Note_on_c, 1, 60, 72
3, 56455, Note_on_c, 1, 56, 0
3, 56461, Note_on_c, 1, 44, 0
3, 56465, Note_on_c, 1, 60, 0
3, 56640, Note_on_c, 1, 55, 76
3, 56640, Note_on_c, 1, 51, 85
3, 56670, Note_on_c, 1, 63, 93
3, 56697, Note_on_c, 1, 63, 0
3, 56700, Note_on_c, 1, 62, 80
3, 56730, Note_on_c, 1, 62, 0
3, 56730, Note_on_c, 1, 63, 62
3, 56752, Note_on_c, 1, 51, 0
3, 56753, Note_on_c, 1, 55, 0
3, 56756, Note_on_c, 1, 63, 0
3, 56760, Note_on_c, 1, 65, 85
3, 56760, Note_on_c, 1, 46, 72
3, 56760, Note_on_c, 1, 53, 76
3, 56790, Note_on_c, 1, 63, 76
3, 56792, Note_on_c, 1, 65, 0
3, 56819, Note_on_c, 1, 63, 0
3, 56820, Note_on_c, 1, 62, 62
3, 56847, Note_on_c, 1, 62, 0
3, 56850, Note_on_c, 1, 60, 72
3, 56864, Note_on_c, 1, 53, 0
3, 56867, Note_on_c, 1, 46, 0
3, 56876, Note_on_c, 1, 60, 0
3, 56880, Note_on_c, 1, 58, 59
3, 56910, Note_on_c, 1, 56, 80
3, 56916, Note_on_c, 1, 58, 0
3, 56939, Note_on_c, 1, 56, 0
3, 56940, Note_on_c, 1, 55, 80
3, 56969, Note_on_c, 1, 55, 0
3, 56970, Note_on_c, 1, 53, 93
3, 56995, Note_on_c, 1, 53, 0
3, 57000, Note_on_c, 1, 55, 89
3, 57000, Note_on_c, 1, 51, 76
3, 57030, Note_on_c, 1, 63, 93
3, 57059, Note_on_c, 1, 63, 0
3, 57060, Note_on_c, 1, 62, 89
3, 57067, Note_on_c, 1, 51, 0
3, 57067, Note_on_c, 1, 55, 0
3, 57090, Note_on_c, 1, 63, 72
3, 57092, Note_on_c, 1, 62, 0
3, 57118, Note_on_c, 1, 63, 0
3, 57120, Note_on_c, 1, 65, 89
3, 57120, Note_on_c, 1, 46, 64
3, 57120, Note_on_c, 1, 53, 76
3, 57150, Note_on_c, 1, 63, 76
3, 57154, Note_on_c, 1, 65, 0
3, 57180, Note_on_c, 1, 62, 89
3, 57182, Note_on_c, 1, 63, 0
3, 57209, Note_on_c, 1, 62, 0
3, 57210, Note_on_c, 1, 60, 93
3, 57212, Note_on_c, 1, 53, 0
3, 57215, Note_on_c, 1, 46, 0
3, 57229, Note_on_c, 1, 60, 0
3, 57240, Note_on_c, 1, 58, 80
3, 57270, Note_on_c, 1, 56, 76
3, 57275, Note_on_c, 1, 58, 0
3, 57300, Note_on_c, 1, 55, 98
3, 57302, Note_on_c, 1, 56, 0
3, 57330, Note_on_c, 1, 53, 76
3, 57331, Note_on_c, 1, 55, 0
3, 57350, Note_on_c, 1, 53, 0
3, 57360, Note_on_c, 1, 58, 76
3, 57360, Note_on_c, 1, 51, 85
3, 57360, Note_on_c, 1, 46, 76
3, 57360, Note_on_c, 1, 55, 76
3, 57389, Note_on_c, 1, 55, 0
3, 57390, Note_on_c, 1, 58, 0
3, 57390, Note_on_c, 1, 54, 62
3, 57390, Note_on_c, 1, 57, 80
3, 57414, Note_on_c, 1, 54, 0
3, 57419, Note_on_c, 1, 57, 0
3, 57420, Note_on_c, 1, 58, 76
3, 57420, Note_on_c, 1, 55, 60
3, 57447, Note_on_c, 1, 58, 0
3, 57448, Note_on_c, 1, 55, 0
3, 57450, Note_on_c, 1, 54, 55
3, 57450, Note_on_c, 1, 57, 80
3, 57473, Note_on_c, 1, 54, 0
3, 57480, Note_on_c, 1, 58, 64
3, 57480, Note_on_c, 1, 55, 56
3, 57481, Note_on_c, 1, 57, 0
3, 57506, Note_on_c, 1, 58, 0
3, 57508, Note_on_c, 1, 55, 0
3, 57510, Note_on_c, 1, 57, 72
3, 57510, Note_on_c, 1, 54, 57
3, 57539, Note_on_c, 1, 57, 0
3, 57540, Note_on_c, 1, 58, 72
3, 57540, Note_on_c, 1, 55, 76
3, 57543, Note_on_c, 1, 54, 0
3, 57553, Note_on_c, 1, 55, 0
3, 57562, Note_on_c, 1, 58, 0
3, 57570, Note_on_c, 1, 59, 80
3, 57570, Note_on_c, 1, 55, 80
3, 57580, Note_on_c, 1, 55, 0
3, 57583, Note_on_c, 1, 46, 0
3, 57584, Note_on_c, 1, 51, 0
3, 57585, Note_on_c, 1, 59, 0
3, 57600, Note_on_c, 1, 60, 80
3, 57600, Note_on_c, 1, 56, 80
3, 57600, Note_on_c, 1, 50, 85
3, 57630, Note_on_c, 1, 56, 0
3, 57630, Note_on_c, 1, 60, 0
3, 57630, Note_on_c, 1, 55, 51
3, 57630, Note_on_c, 1, 58, 62
3, 57658, Note_on_c, 1, 58, 0
3, 57659, Note_on_c, 1, 55, 0
3, 57660, Note_on_c, 1, 60, 80
3, 57660, Note_on_c, 1, 56, 62
3, 57684, Note_on_c, 1, 56, 0
3, 57690, Note_on_c, 1, 53, 72
3, 57690, Note_on_c, 1, 56, 93
3, 57692, Note_on_c, 1, 60, 0
3, 57698, Note_on_c, 1, 50, 0
3, 57704, Note_on_c, 1, 56, 0
3, 57706, Note_on_c, 1, 53, 0
3, 57720, Note_on_c, 1, 39, 93
3, 57720, Note_on_c, 1, 46, 85
3, 57720, Note_on_c, 1, 50, 93
3, 57720, Note_on_c, 1, 58, 80
3, 57720, Note_on_c, 1, 53, 98
3, 57750, Note_on_c, 1, 58, 0
3, 57750, Note_on_c, 1, 56, 89
3, 57777, Note_on_c, 1, 56, 0
3, 57780, Note_on_c, 1, 55, 80
3, 57809, Note_on_c, 1, 55, 0
3, 57810, Note_on_c, 1, 56, 76
3, 57824, Note_on_c, 1, 50, 0
3, 57832, Note_on_c, 1, 53, 0
3, 57837, Note_on_c, 1, 56, 0
3, 57840, Note_on_c, 1, 55, 98
3, 57840, Note_on_c, 1, 51, 85
3, 57890, Note_on_c, 1, 46, 0
3, 57892, Note_on_c, 1, 39, 0
3, 57895, Note_on_c, 1, 55, 0
3, 57895, Note_on_c, 1, 51, 0
3, 57990, Note_on_c, 1, 63, 76
3, 58018, Note_on_c, 1, 63, 0
3, 58050, Note_on_c, 1, 62, 85
3, 58078, Note_on_c, 1, 62, 0
3, 58080, Note_on_c, 1, 60, 85
3, 58193, Note_on_c, 1, 60, 0
3, 58230, Note_on_c, 1, 60, 76
3, 58258, Note_on_c, 1, 60, 0
3, 58290, Note_on_c, 1, 58, 72
3, 58318, Note_on_c, 1, 58, 0
3, 58350, Note_on_c, 1, 56, 72
3, 58378, Note_on_c, 1, 56, 0
3, 58410, Note_on_c, 1, 55, 89
3, 58438, Note_on_c, 1, 55, 0
3, 58440, Note_on_c, 1, 53, 89
3, 58440, Note_on_c, 1, 46, 85
3, 58553, Note_on_c, 1, 46, 0
3, 58553, Note_on_c, 1, 53, 0
3, 58590, Note_on_c, 1, 53, 76
3, 58590, Note_on_c, 1, 46, 76
3, 58618, Note_on_c, 1, 46, 0
3, 58618, Note_on_c, 1, 53, 0
3, 58650, Note_on_c, 1, 51, 76
3, 58650, Note_on_c, 1, 46, 72
3, 58678, Note_on_c, 1, 46, 0
3, 58678, Note_on_c, 1, 51, 0
3, 58710, Note_on_c, 1, 46, 76
3, 58710, Note_on_c, 1, 50, 80
3, 58738, Note_on_c, 1, 50, 0
3, 58738, Note_on_c, 1, 46, 0
3, 58770, Note_on_c, 1, 50, 80
3, 58770, Note_on_c, 1, 47, 89
3, 58798, Note_on_c, 1, 47, 0
3, 58798, Note_on_c, 1, 50, 0
3, 58830, Note_on_c, 1, 48, 85
3, 58858, Note_on_c, 1, 48, 0
3, 58890, Note_on_c, 1, 51, 72
3, 58890, Note_on_c, 1, 45, 89
3, 58918, Note_on_c, 1, 45, 0
3, 58918, Note_on_c, 1, 51, 0
3, 58920, Note_on_c, 1, 46, 80
3, 58950, Note_on_c, 1, 52, 89
3, 58950, Note_on_c, 1, 49, 76
3, 58978, Note_on_c, 1, 49, 0
3, 58978, Note_on_c, 1, 52, 0
3, 58980, Note_on_c, 1, 50, 80
3, 58980, Note_on_c, 1, 53, 80
3, 59008, Note_on_c, 1, 53, 0
3, 59008, Note_on_c, 1, 50, 0
3, 59010, Note_on_c, 1, 55, 76
3, 59010, Note_on_c, 1, 52, 89
3, 59038, Note_on_c, 1, 52, 0
3, 59038, Note_on_c, 1, 55, 0
3, 59040, Note_on_c, 1, 56, 72
3, 59040, Note_on_c, 1, 53, 89
3, 59068, Note_on_c, 1, 53, 0
3, 59068, Note_on_c, 1, 56, 0
3, 59070, Note_on_c, 1, 55, 85
3, 59070, Note_on_c, 1, 52, 80
3, 59090, Note_on_c, 1, 46, 0
3, 59098, Note_on_c, 1, 52, 0
3, 59098, Note_on_c, 1, 55, 0
3, 59100, Note_on_c, 1, 56, 72
3, 59100, Note_on_c, 1, 53, 89
3, 59128, Note_on_c, 1, 53, 0
3, 59128, Note_on_c, 1, 56, 0
3, 59160, Note_on_c, 1, 50, 89
3, 59160, Note_on_c, 1, 39, 68
3, 59274, Note_on_c, 1, 50, 0
3, 59280, Note_on_c, 1, 51, 62
3, 59327, Note_on_c, 1, 39, 0
3, 59339, Note_on_c, 1, 51, 0
3, 59520, Note_on_c, 1, 48, 76
3, 59520, Note_on_c, 1, 51, 72
3, 59520, Note_on_c, 1, 39, 76
3, 59550, Note_on_c, 1, 51, 0
3, 59550, Note_on_c, 1, 46, 57
3, 59550, Note_on_c, 1, 49, 62
3, 59552, Note_on_c, 1, 48, 0
3, 59575, Note_on_c, 1, 49, 0
3, 59577, Note_on_c, 1, 46, 0
3, 59580, Note_on_c, 1, 48, 76
3, 59580, Note_on_c, 1, 45, 64
3, 59605, Note_on_c, 1, 45, 0
3, 59610, Note_on_c, 1, 51, 76
3, 59631, Note_on_c, 1, 51, 0
3, 59632, Note_on_c, 1, 48, 0
3, 59640, Note_on_c, 1, 46, 72
3, 59640, Note_on_c, 1, 49, 68
3, 59697, Note_on_c, 1, 39, 0
3, 59699, Note_on_c, 1, 49, 0
3, 59700, Note_on_c, 1, 46, 0
3, 59880, Note_on_c, 1, 46, 76
3, 59880, Note_on_c, 1, 49, 76
3, 59880, Note_on_c, 1, 39, 72
3, 59909, Note_on_c, 1, 46, 0
3, 59910, Note_on_c, 1, 49, 0
3, 59910, Note_on_c, 1, 44, 64
3, 59910, Note_on_c, 1, 48, 76
3, 59937, Note_on_c, 1, 44, 0
3, 59940, Note_on_c, 1, 48, 0
3, 59940, Note_on_c, 1, 43, 56
3, 59940, Note_on_c, 1, 46, 62
3, 59963, Note_on_c, 1, 46, 0
3, 59966, Note_on_c, 1, 43, 0
3, 59970, Note_on_c, 1, 46, 93
3, 59970, Note_on_c, 1, 49, 64
3, 59998, Note_on_c, 1, 49, 0
3, 59999, Note_on_c, 1, 46, 0
3, 60000, Note_on_c, 1, 44, 72
3, 60000, Note_on_c, 1, 48, 76
3, 60054, Note_on_c, 1, 44, 0
3, 60055, Note_on_c, 1, 48, 0
3, 60056, Note_on_c, 1, 39, 0
3, 60240, Note_on_c, 1, 47, 85
3, 60240, Note_on_c, 1, 39, 80
3, 60326, Note_on_c, 1, 47, 0
3, 60330, Note_on_c, 1, 49, 60
3, 60342, Note_on_c, 1, 39, 0
3, 60343, Note_on_c, 1, 49, 0
3, 60345, Note_on_c, 1, 47, 64
3, 60360, Note_on_c, 1, 46, 64
3, 60360, Note_on_c, 1, 39, 85
3, 60361, Note_on_c, 1, 47, 0
3, 60447, Note_on_c, 1, 46, 0
3, 60450, Note_on_c, 1, 47, 76
3, 60461, Note_on_c, 1, 39, 0
3, 60463, Note_on_c, 1, 47, 0
3, 60465, Note_on_c, 1, 46, 60
3, 60480, Note_on_c, 1, 44, 62
3, 60480, Note_on_c, 1, 39, 76
3, 60482, Note_on_c, 1, 46, 0
3, 60564, Note_on_c, 1, 44, 0
3, 60570, Note_on_c, 1, 46, 76
3, 60585, Note_on_c, 1, 44, 76
3, 60586, Note_on_c, 1, 46, 0
3, 60600, Note_on_c, 1, 43, 80
3, 60603, Note_on_c, 1, 44, 0
3, 60622, Note_on_c, 1, 43, 0
3, 60656, Note_on_c, 1, 39, 0
3, 60660, Note_on_c, 1, 51, 76
3, 60680, Note_on_c, 1, 51, 0
3, 60780, Note_on_c, 1, 56, 76
3, 60780, Note_on_c, 1, 53, 85
3, 60801, Note_on_c, 1, 53, 0
3, 60802, Note_on_c, 1, 56, 0
3, 60900, Note_on_c, 1, 58, 68
3, 60900, Note_on_c, 1, 55, 89
3, 60917, Note_on_c, 1, 55, 0
3, 60917, Note_on_c, 1, 58, 0
3, 60960, Note_on_c, 1, 51, 80
3, 60960, Note_on_c, 1, 44, 68
3, 60990, Note_on_c, 1, 44, 0
3, 60990, Note_on_c, 1, 39, 72
3, 61020, Note_on_c, 1, 43, 89
3, 61022, Note_on_c, 1, 39, 0
3, 61049, Note_on_c, 1, 43, 0
3, 61050, Note_on_c, 1, 44, 76
3, 61077, Note_on_c, 1, 44, 0
3, 61080, Note_on_c, 1, 46, 76
3, 61109, Note_on_c, 1, 46, 0
3, 61110, Note_on_c, 1, 39, 72
3, 61140, Note_on_c, 1, 39, 0
3, 61140, Note_on_c, 1, 44, 72
3, 61170, Note_on_c, 1, 46, 72
3, 61172, Note_on_c, 1, 44, 0
3, 61198, Note_on_c, 1, 46, 0
3, 61200, Note_on_c, 1, 48, 93
3, 61229, Note_on_c, 1, 48, 0
3, 61230, Note_on_c, 1, 39, 72
3, 61259, Note_on_c, 1, 39, 0
3, 61260, Note_on_c, 1, 46, 68
3, 61286, Note_on_c, 1, 46, 0
3, 61290, Note_on_c, 1, 48, 85
3, 61319, Note_on_c, 1, 48, 0
3, 61320, Note_on_c, 1, 49, 76
3, 61348, Note_on_c, 1, 49, 0
3, 61350, Note_on_c, 1, 48, 72
3, 61380, Note_on_c, 1, 46, 72
3, 61382, Note_on_c, 1, 48, 0
3, 61407, Note_on_c, 1, 46, 0
3, 61410, Note_on_c, 1, 44, 76
3, 61415, Note_on_c, 1, 51, 0
3, 61439, Note_on_c, 1, 44, 0
3, 61440, Note_on_c, 1, 43, 72
3, 61467, Note_on_c, 1, 43, 0
3, 61470, Note_on_c, 1, 39, 60
3, 61500, Note_on_c, 1, 41, 72
3, 61502, Note_on_c, 1, 39, 0
3, 61528, Note_on_c, 1, 41, 0
3, 61530, Note_on_c, 1, 43, 64
3, 61560, Note_on_c, 1, 56, 85
3, 61560, Note_on_c, 1, 44, 72
3, 61563, Note_on_c, 1, 43, 0
3, 61589, Note_on_c, 1, 44, 0
3, 61590, Note_on_c, 1, 43, 64
3, 61620, Note_on_c, 1, 41, 72
3, 61624, Note_on_c, 1, 43, 0
3, 61650, Note_on_c, 1, 39, 72
3, 61651, Note_on_c, 1, 41, 0
3, 61678, Note_on_c, 1, 39, 0
3, 61680, Note_on_c, 1, 37, 68
3, 61710, Note_on_c, 1, 44, 72
3, 61711, Note_on_c, 1, 37, 0
3, 61740, Note_on_c, 1, 44, 0
3, 61740, Note_on_c, 1, 46, 76
3, 61761, Note_on_c, 1, 56, 0
3, 61770, Note_on_c, 1, 46, 0
3, 61770, Note_on_c, 1, 57, 80
3, 61770, Note_on_c, 1, 48, 72
3, 61790, Note_on_c, 1, 48, 0
3, 61796, Note_on_c, 1, 57, 0
3, 61800, Note_on_c, 1, 58, 89
3, 61800, Note_on_c, 1, 49, 89
3, 61828, Note_on_c, 1, 49, 0
3, 61830, Note_on_c, 1, 46, 76
3, 61860, Note_on_c, 1, 41, 76
3, 61862, Note_on_c, 1, 46, 0
3, 61890, Note_on_c, 1, 39, 72
3, 61891, Note_on_c, 1, 41, 0
3, 61914, Note_on_c, 1, 58, 0
3, 61918, Note_on_c, 1, 39, 0
3, 61920, Note_on_c, 1, 59, 85
3, 61920, Note_on_c, 1, 38, 89
3, 61949, Note_on_c, 1, 38, 0
3, 61950, Note_on_c, 1, 39, 80
3, 61979, Note_on_c, 1, 39, 0
3, 61980, Note_on_c, 1, 41, 72
3, 62010, Note_on_c, 1, 38, 72
3, 62014, Note_on_c, 1, 41, 0
3, 62023, Note_on_c, 1, 38, 0
3, 62034, Note_on_c, 1, 59, 0
3, 62040, Note_on_c, 1, 60, 76
3, 62040, Note_on_c, 1, 39, 72
3, 62070, Note_on_c, 1, 39, 0
3, 62070, Note_on_c, 1, 44, 64
3, 62100, Note_on_c, 1, 48, 80
3, 62102, Note_on_c, 1, 44, 0
3, 62129, Note_on_c, 1, 48, 0
3, 62130, Note_on_c, 1, 50, 89
3, 62154, Note_on_c, 1, 60, 0
3, 62156, Note_on_c, 1, 50, 0
3, 62160, Note_on_c, 1, 58, 76
3, 62160, Note_on_c, 1, 51, 64
3, 62185, Note_on_c, 1, 51, 0
3, 62190, Note_on_c, 1, 45, 89
3, 62215, Note_on_c, 1, 58, 0
3, 62217, Note_on_c, 1, 45, 0
3, 62220, Note_on_c, 1, 46, 76
3, 62247, Note_on_c, 1, 46, 0
3, 62250, Note_on_c, 1, 42, 64
3, 62275, Note_on_c, 1, 42, 0
3, 62280, Note_on_c, 1, 43, 76
3, 62310, Note_on_c, 1, 43, 0
3, 62310, Note_on_c, 1, 39, 72
3, 62340, Note_on_c, 1, 48, 89
3, 62343, Note_on_c, 1, 39, 0
3, 62369, Note_on_c, 1, 48, 0
3, 62370, Note_on_c, 1, 46, 72
3, 62399, Note_on_c, 1, 46, 0
3, 62400, Note_on_c, 1, 60, 85
3, 62400, Note_on_c, 1, 45, 80
3, 62425, Note_on_c, 1, 45, 0
3, 62430, Note_on_c, 1, 48, 76
3, 62460, Note_on_c, 1, 45, 80
3, 62464, Note_on_c, 1, 48, 0
3, 62490, Note_on_c, 1, 45, 0
3, 62490, Note_on_c, 1, 41, 62
3, 62515, Note_on_c, 1, 60, 0
3, 62516, Note_on_c, 1, 41, 0
3, 62520, Note_on_c, 1, 58, 76
3, 62520, Note_on_c, 1, 46, 85
3, 62530, Note_on_c, 1, 46, 0
3, 62550, Note_on_c, 1, 52, 89
3, 62567, Note_on_c, 1, 58, 0
3, 62579, Note_on_c, 1, 52, 0
3, 62580, Note_on_c, 1, 53, 62
3, 62608, Note_on_c, 1, 53, 0
3, 62610, Note_on_c, 1, 48, 76
3, 62639, Note_on_c, 1, 48, 0
3, 62640, Note_on_c, 1, 49, 64
3, 62668, Note_on_c, 1, 49, 0
3, 62670, Note_on_c, 1, 44, 62
3, 62699, Note_on_c, 1, 44, 0
3, 62700, Note_on_c, 1, 46, 72
3, 62726, Note_on_c, 1, 46, 0
3, 62730, Note_on_c, 1, 44, 93
3, 62744, Note_on_c, 1, 44, 0
3, 62760, Note_on_c, 1, 58, 76
3, 62760, Note_on_c, 1, 43, 72
3, 62786, Note_on_c, 1, 43, 0
3, 62790, Note_on_c, 1, 46, 68
3, 62819, Note_on_c, 1, 46, 0
3, 62820, Note_on_c, 1, 43, 93
3, 62848, Note_on_c, 1, 43, 0
3, 62850, Note_on_c, 1, 39, 72
3, 62870, Note_on_c, 1, 39, 0
3, 62876, Note_on_c, 1, 58, 0
3, 62880, Note_on_c, 1, 56, 76
3, 62880, Note_on_c, 1, 44, 80
3, 62891, Note_on_c, 1, 44, 0
3, 62910, Note_on_c, 1, 50, 76
3, 62927, Note_on_c, 1, 56, 0
3, 62940, Note_on_c, 1, 50, 0
3, 62940, Note_on_c, 1, 51, 72
3, 62967, Note_on_c, 1, 51, 0
3, 62970, Note_on_c, 1, 47, 72
3, 62997, Note_on_c, 1, 47, 0
3, 63000, Note_on_c, 1, 48, 68
3, 63026, Note_on_c, 1, 48, 0
3, 63030, Note_on_c, 1, 43, 76
3, 63059, Note_on_c, 1, 43, 0
3, 63060, Note_on_c, 1, 44, 80
3, 63087, Note_on_c, 1, 44, 0
3, 63090, Note_on_c, 1, 56, 76
3, 63090, Note_on_c, 1, 41, 80
3, 63103, Note_on_c, 1, 41, 0
3, 63117, Note_on_c, 1, 56, 0
3, 63120, Note_on_c, 1, 53, 93
3, 63120, Note_on_c, 1, 49, 57
3, 63120, Note_on_c, 1, 37, 72
3, 63149, Note_on_c, 1, 37, 0
3, 63150, Note_on_c, 1, 41, 72
3, 63173, Note_on_c, 1, 53, 0
3, 63175, Note_on_c, 1, 49, 0
3, 63180, Note_on_c, 1, 46, 76
3, 63184, Note_on_c, 1, 41, 0
3, 63209, Note_on_c, 1, 46, 0
3, 63210, Note_on_c, 1, 49, 76
3, 63238, Note_on_c, 1, 49, 0
3, 63240, Note_on_c, 1, 48, 85
3, 63240, Note_on_c, 1, 51, 76
3, 63240, Note_on_c, 1, 39, 76
3, 63270, Note_on_c, 1, 39, 0
3, 63270, Note_on_c, 1, 44, 80
3, 63294, Note_on_c, 1, 51, 0
3, 63297, Note_on_c, 1, 48, 0
3, 63300, Note_on_c, 1, 44, 0
3, 63300, Note_on_c, 1, 48, 76
3, 63328, Note_on_c, 1, 48, 0
3, 63330, Note_on_c, 1, 51, 76
3, 63360, Note_on_c, 1, 51, 0
3, 63360, Note_on_c, 1, 49, 76
3, 63360, Note_on_c, 1, 46, 76
3, 63360, Note_on_c, 1, 39, 72
3, 63387, Note_on_c, 1, 39, 0
3, 63390, Note_on_c, 1, 43, 85
3, 63418, Note_on_c, 1, 49, 0
3, 63420, Note_on_c, 1, 46, 0
3, 63420, Note_on_c, 1, 46, 80
3, 63423, Note_on_c, 1, 43, 0
3, 63449, Note_on_c, 1, 46, 0
3, 63450, Note_on_c, 1, 51, 68
3, 63474, Note_on_c, 1, 51, 0
3, 63480, Note_on_c, 1, 51, 72
3, 63480, Note_on_c, 1, 39, 60
3, 63509, Note_on_c, 1, 51, 0
3, 63510, Note_on_c, 1, 39, 0
3, 63510, Note_on_c, 1, 50, 76
3, 63510, Note_on_c, 1, 38, 68
3, 63538, Note_on_c, 1, 38, 0
3, 63539, Note_on_c, 1, 50, 0
3, 63540, Note_on_c, 1, 51, 76
3, 63540, Note_on_c, 1, 39, 72
3, 63567, Note_on_c, 1, 39, 0
3, 63569, Note_on_c, 1, 51, 0
3, 63570, Note_on_c, 1, 50, 76
3, 63570, Note_on_c, 1, 38, 76
3, 63599, Note_on_c, 1, 38, 0
3, 63599, Note_on_c, 1, 50, 0
3, 63600, Note_on_c, 1, 51, 76
3, 63600, Note_on_c, 1, 39, 80
3, 63627, Note_on_c, 1, 39, 0
3, 63628, Note_on_c, 1, 51, 0
3, 63630, Note_on_c, 1, 50, 76
3, 63630, Note_on_c, 1, 38, 89
3, 63657, Note_on_c, 1, 38, 0
3, 63658, Note_on_c, 1, 50, 0
3, 63660, Note_on_c, 1, 51, 72
3, 63660, Note_on_c, 1, 39, 85
3, 63687, Note_on_c, 1, 51, 0
3, 63688, Note_on_c, 1, 39, 0
3, 63690, Note_on_c, 1, 52, 72
3, 63690, Note_on_c, 1, 40, 93
3, 63717, Note_on_c, 1, 40, 0
3, 63719, Note_on_c, 1, 52, 0
3, 63720, Note_on_c, 1, 53, 60
3, 63720, Note_on_c, 1, 41, 72
3, 63750, Note_on_c, 1, 41, 0
3, 63750, Note_on_c, 1, 55, 76
3, 63750, Note_on_c, 1, 43, 89
3, 63753, Note_on_c, 1, 53, 0
3, 63780, Note_on_c, 1, 56, 76
3, 63780, Note_on_c, 1, 44, 76
3, 63781, Note_on_c, 1, 43, 0
3, 63781, Note_on_c, 1, 55, 0
3, 63808, Note_on_c, 1, 56, 0
3, 63809, Note_on_c, 1, 44, 0
3, 63810, Note_on_c, 1, 51, 62
3, 63810, Note_on_c, 1, 36, 72
3, 63825, Note_on_c, 1, 36, 0
3, 63837, Note_on_c, 1, 51, 0
3, 63840, Note_on_c, 1, 49, 80
3, 63840, Note_on_c, 1, 53, 89
3, 63840, Note_on_c, 1, 37, 93
3, 63870, Note_on_c, 1, 37, 0
3, 63870, Note_on_c, 1, 41, 72
3, 63889, Note_on_c, 1, 49, 0
3, 63891, Note_on_c, 1, 53, 0
3, 63900, Note_on_c, 1, 46, 76
3, 63906, Note_on_c, 1, 41, 0
3, 63930, Note_on_c, 1, 49, 85
3, 63931, Note_on_c, 1, 46, 0
3, 63951, Note_on_c, 1, 49, 0
3, 63960, Note_on_c, 1, 48, 89
3, 63960, Note_on_c, 1, 51, 76
3, 63960, Note_on_c, 1, 39, 68
3, 63990, Note_on_c, 1, 44, 85
3, 63992, Note_on_c, 1, 39, 0
3, 64011, Note_on_c, 1, 51, 0
3, 64014, Note_on_c, 1, 48, 0
3, 64020, Note_on_c, 1, 44, 0
3, 64020, Note_on_c, 1, 48, 80
3, 64048, Note_on_c, 1, 48, 0
3, 64050, Note_on_c, 1, 51, 72
3, 64075, Note_on_c, 1, 51, 0
3, 64080, Note_on_c, 1, 49, 85
3, 64080, Note_on_c, 1, 46, 76
3, 64080, Note_on_c, 1, 39, 72
3, 64110, Note_on_c, 1, 43, 85
3, 64111, Note_on_c, 1, 39, 0
3, 64128, Note_on_c, 1, 49, 0
3, 64131, Note_on_c, 1, 46, 0
3, 64137, Note_on_c, 1, 43, 0
3, 64140, Note_on_c, 1, 46, 76
3, 64169, Note_on_c, 1, 46, 0
3, 64170, Note_on_c, 1, 51, 68
3, 64186, Note_on_c, 1, 51, 0
3, 64200, Note_on_c, 1, 51, 76
3, 64200, Note_on_c, 1, 39, 62
3, 64229, Note_on_c, 1, 51, 0
3, 64230, Note_on_c, 1, 50, 76
3, 64230, Note_on_c, 1, 38, 85
3, 64232, Note_on_c, 1, 39, 0
3, 64257, Note_on_c, 1, 38, 0
3, 64258, Note_on_c, 1, 50, 0
3, 64260, Note_on_c, 1, 51, 76
3, 64260, Note_on_c, 1, 39, 76
3, 64288, Note_on_c, 1, 39, 0
3, 64290, Note_on_c, 1, 51, 0
3, 64290, Note_on_c, 1, 50, 80
3, 64290, Note_on_c, 1, 38, 85
3, 64318, Note_on_c, 1, 38, 0
3, 64318, Note_on_c, 1, 50, 0
3, 64320, Note_on_c, 1, 51, 72
3, 64320, Note_on_c, 1, 39, 76
3, 64347, Note_on_c, 1, 39, 0
3, 64349, Note_on_c, 1, 51, 0
3, 64350, Note_on_c, 1, 50, 80
3, 64350, Note_on_c, 1, 38, 72
3, 64379, Note_on_c, 1, 38, 0
3, 64379, Note_on_c, 1, 50, 0
3, 64380, Note_on_c, 1, 51, 76
3, 64380, Note_on_c, 1, 39, 80
3, 64407, Note_on_c, 1, 51, 0
3, 64409, Note_on_c, 1, 39, 0
3, 64410, Note_on_c, 1, 52, 89
3, 64410, Note_on_c, 1, 40, 89
3, 64437, Note_on_c, 1, 52, 0
3, 64439, Note_on_c, 1, 40, 0
3, 64440, Note_on_c, 1, 53, 85
3, 64440, Note_on_c, 1, 41, 85
3, 64469, Note_on_c, 1, 41, 0
3, 64470, Note_on_c, 1, 55, 80
3, 64470, Note_on_c, 1, 43, 85
3, 64471, Note_on_c, 1, 53, 0
3, 64499, Note_on_c, 1, 43, 0
3, 64500, Note_on_c, 1, 56, 76
3, 64500, Note_on_c, 1, 44, 76
3, 64503, Note_on_c, 1, 55, 0
3, 64524, Note_on_c, 1, 44, 0
3, 64528, Note_on_c, 1, 56, 0
3, 64530, Note_on_c, 1, 51, 72
3, 64530, Note_on_c, 1, 36, 72
3, 64530, Note_on_c, 1, 48, 76
3, 64554, Note_on_c, 1, 36, 0
3, 64554, Note_on_c, 1, 51, 0
3, 64555, Note_on_c, 1, 48, 0
3, 64560, Note_on_c, 1, 58, 80
3, 64560, Note_on_c, 1, 56, 85
3, 64560, Note_on_c, 1, 37, 98
3, 64586, Note_on_c, 1, 37, 0
3, 64590, Note_on_c, 1, 49, 76
3, 64597, Note_on_c, 1, 56, 0
3, 64603, Note_on_c, 1, 58, 0
3, 64619, Note_on_c, 1, 49, 0
3, 64620, Note_on_c, 1, 58, 76
3, 64620, Note_on_c, 1, 56, 80
3, 64620, Note_on_c, 1, 39, 72
3, 64649, Note_on_c, 1, 39, 0
3, 64650, Note_on_c, 1, 51, 60
3, 64677, Note_on_c, 1, 51, 0
3, 64680, Note_on_c, 1, 41, 76
3, 64709, Note_on_c, 1, 41, 0
3, 64710, Note_on_c, 1, 53, 85
3, 64722, Note_on_c, 1, 56, 0
3, 64724, Note_on_c, 1, 58, 0
3, 64735, Note_on_c, 1, 53, 0
3, 64740, Note_on_c, 1, 58, 76
3, 64740, Note_on_c, 1, 56, 72
3, 64740, Note_on_c, 1, 39, 72
3, 64770, Note_on_c, 1, 51, 68
3, 64772, Note_on_c, 1, 39, 0
3, 64793, Note_on_c, 1, 51, 0
3, 64800, Note_on_c, 1, 38, 93
3, 64829, Note_on_c, 1, 38, 0
3, 64830, Note_on_c, 1, 50, 52
3, 64840, Note_on_c, 1, 56, 0
3, 64842, Note_on_c, 1, 58, 0
3, 64847, Note_on_c, 1, 50, 0
3, 64860, Note_on_c, 1, 58, 80
3, 64860, Note_on_c, 1, 56, 80
3, 64860, Note_on_c, 1, 41, 93
3, 64881, Note_on_c, 1, 56, 0
3, 64889, Note_on_c, 1, 41, 0
3, 64890, Note_on_c, 1, 53, 80
3, 64903, Note_on_c, 1, 53, 0
3, 64904, Note_on_c, 1, 58, 0
3, 64920, Note_on_c, 1, 60, 85
3, 64920, Note_on_c, 1, 56, 80
3, 64920, Note_on_c, 1, 51, 85
3, 64920, Note_on_c, 1, 39, 85
3, 64944, Note_on_c, 1, 60, 0
3, 64945, Note_on_c, 1, 56, 0
3, 64980, Note_on_c, 1, 48, 85
3, 64980, Note_on_c, 1, 44, 62
3, 65025, Note_on_c, 1, 44, 0
3, 65028, Note_on_c, 1, 48, 0
3, 65037, Note_on_c, 1, 39, 0
3, 65038, Note_on_c, 1, 51, 0
3, 65040, Note_on_c, 1, 48, 76
3, 65040, Note_on_c, 1, 44, 50
3, 65082, Note_on_c, 1, 44, 0
3, 65086, Note_on_c, 1, 48, 0
3, 65100, Note_on_c, 1, 48, 76
3, 65100, Note_on_c, 1, 44, 62
3, 65143, Note_on_c, 1, 44, 0
3, 65148, Note_on_c, 1, 48, 0
3, 65160, Note_on_c, 1, 44, 64
3, 65160, Note_on_c, 1, 48, 80
3, 65202, Note_on_c, 1, 44, 0
3, 65204, Note_on_c, 1, 48, 0
3, 65220, Note_on_c, 1, 44, 72
3, 65220, Note_on_c, 1, 48, 80
3, 65255, Note_on_c, 1, 44, 0
3, 65259, Note_on_c, 1, 48, 0
3, 65280, Note_on_c, 1, 44, 72
3, 65280, Note_on_c, 1, 48, 80
3, 65280, Note_on_c, 1, 51, 72
3, 65280, Note_on_c, 1, 39, 93
3, 65322, Note_on_c, 1, 44, 0
3, 65326, Note_on_c, 1, 48, 0
3, 65340, Note_on_c, 1, 48, 85
3, 65340, Note_on_c, 1, 44, 68
3, 65381, Note_on_c, 1, 44, 0
3, 65386, Note_on_c, 1, 48, 0
3, 65400, Note_on_c, 1, 44, 64
3, 65400, Note_on_c, 1, 48, 85
3, 65410, Note_on_c, 1, 51, 0
3, 65410, Note_on_c, 1, 39, 0
3, 65438, Note_on_c, 1, 44, 0
3, 65444, Note_on_c, 1, 48, 0
3, 65460, Note_on_c, 1, 48, 80
3, 65460, Note_on_c, 1, 44, 76
3, 65504, Note_on_c, 1, 44, 0
3, 65508, Note_on_c, 1, 48, 0
3, 65520, Note_on_c, 1, 48, 85
3, 65520, Note_on_c, 1, 44, 68
3, 65559, Note_on_c, 1, 44, 0
3, 65561, Note_on_c, 1, 48, 0
3, 65580, Note_on_c, 1, 44, 68
3, 65580, Note_on_c, 1, 48, 85
3, 65627, Note_on_c, 1, 48, 0
3, 65629, Note_on_c, 1, 44, 0
3, 66060, Note_on_c, 1, 39, 76
3, 66128, Note_on_c, 1, 39, 0
3, 66133, Note_on_c, 1, 41, 80
3, 66146, Note_on_c, 1, 41, 0
3, 66148, Note_on_c, 1, 39, 64
3, 66161, Note_on_c, 1, 39, 0
3, 66163, Note_on_c, 1, 38, 76
3, 66176, Note_on_c, 1, 38, 0
3, 66178, Note_on_c, 1, 39, 76
3, 66191, Note_on_c, 1, 39, 0
3, 66193, Note_on_c, 1, 41, 76
3, 66206, Note_on_c, 1, 41, 0
3, 66208, Note_on_c, 1, 43, 85
3, 66221, Note_on_c, 1, 43, 0
3, 66223, Note_on_c, 1, 44, 76
3, 66236, Note_on_c, 1, 44, 0
3, 66238, Note_on_c, 1, 45, 76
3, 66244, Note_on_c, 1, 45, 0
3, 66245, Note_on_c, 1, 46, 76
3, 66251, Note_on_c, 1, 46, 0
3, 66252, Note_on_c, 1, 47, 76
3, 66258, Note_on_c, 1, 47, 0
3, 66259, Note_on_c, 1, 48, 76
3, 66265, Note_on_c, 1, 48, 0
3, 66266, Note_on_c, 1, 49, 72
3, 66272, Note_on_c, 1, 49, 0
3, 66273, Note_on_c, 1, 50, 76
3, 66279, Note_on_c, 1, 50, 0
3, 66280, Note_on_c, 1, 51, 76
3, 66286, Note_on_c, 1, 51, 0
3, 66287, Note_on_c, 1, 52, 80
3, 66293, Note_on_c, 1, 52, 0
3, 66294, Note_on_c, 1, 53, 80
3, 66300, Note_on_c, 1, 53, 0
3, 66301, Note_on_c, 1, 54, 72
3, 66307, Note_on_c, 1, 54, 0
3, 66308, Note_on_c, 1, 55, 76
3, 66314, Note_on_c, 1, 55, 0
3, 66315, Note_on_c, 1, 56, 68
3, 66321, Note_on_c, 1, 56, 0
3, 66322, Note_on_c, 1, 57, 76
3, 66328, Note_on_c, 1, 57, 0
3, 66329, Note_on_c, 1, 58, 76
3, 66335, Note_on_c, 1, 58, 0
3, 66336, Note_on_c, 1, 59, 76
3, 66342, Note_on_c, 1, 59, 0
3, 66343, Note_on_c, 1, 60, 72
3, 66349, Note_on_c, 1, 60, 0
3, 66360, Note_on_c, 1, 63, 64
3, 66360, Note_on_c, 1, 39, 76
3, 66373, Note_on_c, 1, 63, 0
3, 66375, Note_on_c, 1, 62, 80
3, 66388, Note_on_c, 1, 62, 0
3, 66390, Note_on_c, 1, 63, 80
3, 66403, Note_on_c, 1, 63, 0
3, 66405, Note_on_c, 1, 62, 76
3, 66418, Note_on_c, 1, 62, 0
3, 66420, Note_on_c, 1, 63, 68
3, 66433, Note_on_c, 1, 63, 0
3, 66435, Note_on_c, 1, 62, 60
3, 66448, Note_on_c, 1, 62, 0
3, 66450, Note_on_c, 1, 63, 76
3, 66463, Note_on_c, 1, 63, 0
3, 66465, Note_on_c, 1, 62, 72
3, 66478, Note_on_c, 1, 62, 0
3, 66480, Note_on_c, 1, 63, 80
3, 66493, Note_on_c, 1, 63, 0
3, 66495, Note_on_c, 1, 62, 68
3, 66508, Note_on_c, 1, 62, 0
3, 66510, Note_on_c, 1, 63, 76
3, 66523, Note_on_c, 1, 63, 0
3, 66525, Note_on_c, 1, 62, 62
3, 66538, Note_on_c, 1, 62, 0
3, 66540, Note_on_c, 1, 63, 76
3, 66553, Note_on_c, 1, 63, 0
3, 66555, Note_on_c, 1, 62, 80
3, 66568, Note_on_c, 1, 62, 0
3, 66570, Note_on_c, 1, 63, 76
3, 66583, Note_on_c, 1, 63, 0
3, 66585, Note_on_c, 1, 62, 85
3, 66598, Note_on_c, 1, 62, 0
3, 66600, Note_on_c, 1, 63, 68
3, 66613, Note_on_c, 1, 63, 0
3, 66615, Note_on_c, 1, 62, 76
3, 66628, Note_on_c, 1, 62, 0
3, 66630, Note_on_c, 1, 63, 53
3, 66643, Note_on_c, 1, 63, 0
3, 66645, Note_on_c, 1, 62, 72
3, 66658, Note_on_c, 1, 62, 0
3, 66660, Note_on_c, 1, 60, 76
3, 66688, Note_on_c, 1, 60, 0
3, 66690, Note_on_c, 1, 62, 89
3, 66701, Note_on_c, 1, 39, 0
3, 66718, Note_on_c, 1, 62, 0
3, 66720, Note_on_c, 1, 48, 89
3, 66720, Note_on_c, 1, 51, 80
3, 66720, Note_on_c, 1, 44, 76
3, 66838, Note_on_c, 1, 44, 0
3, 66839, Note_on_c, 1, 48, 0
3, 66841, Note_on_c, 1, 51, 0
3, 67200, Note_on_c, 1, 49, 76
3, 67200, Note_on_c, 1, 52, 89
3, 67200, Note_on_c, 1, 44, 72
3, 67200, Note_on_c, 1, 46, 76
3, 67315, Note_on_c, 1, 46, 0
3, 67315, Note_on_c, 1, 49, 0
3, 67315, Note_on_c, 1, 52, 0
3, 67315, Note_on_c, 1, 44, 0
3, 67680, Note_on_c, 1, 54, 76
3, 67680, Note_on_c, 1, 46, 89
3, 67680, Note_on_c, 1, 42, 76
3, 67680, Note_on_c, 1, 51, 76
3, 67797, Note_on_c, 1, 46, 0
3, 67798, Note_on_c, 1, 51, 0
3, 67799, Note_on_c, 1, 42, 0
3, 67799, Note_on_c, 1, 54, 0
3, 68160, Note_on_c, 1, 51, 80
3, 68160, Note_on_c, 1, 42, 85
3, 68160, Note_on_c, 1, 48, 93
3, 68160, Note_on_c, 1, 45, 93
3, 68275, Note_on_c, 1, 45, 0
3, 68275, Note_on_c, 1, 48, 0
3, 68277, Note_on_c, 1, 42, 0
3, 68281, Note_on_c, 1, 51, 0
3, 68610, Note_on_c, 1, 51, 72
3, 68610, Note_on_c, 1, 53, 89
3, 68624, Note_on_c, 1, 53, 0
3, 68624, Note_on_c, 1, 51, 0
3, 68640, Note_on_c, 1, 53, 93
3, 68640, Note_on_c, 1, 49, 93
3, 68715, Note_on_c, 1, 49, 0
3, 68716, Note_on_c, 1, 53, 0
3, 68730, Note_on_c, 1, 49, 85
3, 68730, Note_on_c, 1, 53, 80
3, 68753, Note_on_c, 1, 49, 0
3, 68755, Note_on_c, 1, 53, 0
3, 68760, Note_on_c, 1, 48, 89
3, 68760, Note_on_c, 1, 51, 89
3, 68842, Note_on_c, 1, 48, 0
3, 68845, Note_on_c, 1, 51, 0
3, 68850, Note_on_c, 1, 49, 72
3, 68850, Note_on_c, 1, 46, 76
3, 68874, Note_on_c, 1, 46, 0
3, 68875, Note_on_c, 1, 49, 0
3, 68880, Note_on_c, 1, 48, 85
3, 68880, Note_on_c, 1, 45, 89
3, 68952, Note_on_c, 1, 45, 0
3, 68954, Note_on_c, 1, 48, 0
3, 68970, Note_on_c, 1, 48, 85
3, 68970, Note_on_c, 1, 45, 89
3, 68991, Note_on_c, 1, 45, 0
3, 68996, Note_on_c, 1, 48, 0
3, 69000, Note_on_c, 1, 43, 93
3, 69000, Note_on_c, 1, 46, 80
3, 69076, Note_on_c, 1, 46, 0
3, 69076, Note_on_c, 1, 43, 0
3, 69090, Note_on_c, 1, 45, 89
3, 69090, Note_on_c, 1, 41, 85
3, 69112, Note_on_c, 1, 45, 0
3, 69113, Note_on_c, 1, 41, 0
3, 69120, Note_on_c, 1, 49, 98
3, 69120, Note_on_c, 1, 46, 93
3, 69234, Note_on_c, 1, 46, 0
3, 69237, Note_on_c, 1, 49, 0
3, 69570, Note_on_c, 1, 42, 93
3, 69570, Note_on_c, 1, 54, 89
3, 69577, Note_on_c, 1, 41, 98
3, 69577, Note_on_c, 1, 53, 76
3, 69582, Note_on_c, 1, 54, 0
3, 69582, Note_on_c, 1, 42, 0
3, 69585, Note_on_c, 1, 52, 80
3, 69585, Note_on_c, 1, 40, 85
3, 69587, Note_on_c, 1, 53, 0
3, 69588, Note_on_c, 1, 41, 0
3, 69591, Note_on_c, 1, 41, 100
3, 69591, Note_on_c, 1, 53, 100
3, 69596, Note_on_c, 1, 52, 0
3, 69598, Note_on_c, 1, 40, 0
3, 69600, Note_on_c, 1, 58, 80
3, 69600, Note_on_c, 1, 46, 102
3, 69605, Note_on_c, 1, 41, 0
3, 69605, Note_on_c, 1, 53, 0
3, 69663, Note_on_c, 1, 58, 0
3, 69677, Note_on_c, 1, 46, 0
3, 69690, Note_on_c, 1, 58, 93
3, 69690, Note_on_c, 1, 46, 107
3, 69709, Note_on_c, 1, 46, 0
3, 69710, Note_on_c, 1, 58, 0
3, 69720, Note_on_c, 1, 46, 93
3, 69720, Note_on_c, 1, 58, 93
3, 69781, Note_on_c, 1, 58, 0
3, 69784, Note_on_c, 1, 46, 0
3, 70050, Note_on_c, 1, 39, 98
3, 70050, Note_on_c, 1, 51, 89
3, 70057, Note_on_c, 1, 37, 76
3, 70057, Note_on_c, 1, 49, 72
3, 70061, Note_on_c, 1, 51, 0
3, 70061, Note_on_c, 1, 39, 0
3, 70064, Note_on_c, 1, 37, 0
3, 70065, Note_on_c, 1, 49, 0
3, 70065, Note_on_c, 1, 36, 89
3, 70065, Note_on_c, 1, 48, 80
3, 70071, Note_on_c, 1, 37, 76
3, 70071, Note_on_c, 1, 49, 89
3, 70073, Note_on_c, 1, 48, 0
3, 70074, Note_on_c, 1, 37, 0
3, 70075, Note_on_c, 1, 36, 0
3, 70076, Note_on_c, 1, 49, 0
3, 70080, Note_on_c, 1, 54, 85
3, 70080, Note_on_c, 1, 42, 76
3, 70147, Note_on_c, 1, 54, 0
3, 70149, Note_on_c, 1, 42, 0
3, 70170, Note_on_c, 1, 54, 93
3, 70170, Note_on_c, 1, 42, 102
3, 70192, Note_on_c, 1, 42, 0
3, 70193, Note_on_c, 1, 54, 0
3, 70200, Note_on_c, 1, 54, 93
3, 70200, Note_on_c, 1, 42, 89
3, 70298, Note_on_c, 1, 54, 0
3, 70299, Note_on_c, 1, 42, 0
3, 70530, Note_on_c, 1, 48, 76
3, 70537, Note_on_c, 1, 46, 85
3, 70541, Note_on_c, 1, 48, 0
3, 70545, Note_on_c, 1, 46, 93
3, 70546, Note_on_c, 1, 46, 0
3, 70551, Note_on_c, 1, 45, 85
3, 70553, Note_on_c, 1, 46, 0
3, 70560, Note_on_c, 1, 45, 0
3, 70560, Note_on_c, 1, 49, 85
3, 70560, Note_on_c, 1, 36, 80
3, 70639, Note_on_c, 1, 49, 0
3, 70650, Note_on_c, 1, 49, 93
3, 70674, Note_on_c, 1, 49, 0
3, 70680, Note_on_c, 1, 48, 89
3, 70762, Note_on_c, 1, 48, 0
3, 70770, Note_on_c, 1, 46, 80
3, 70799, Note_on_c, 1, 46, 0
3, 70800, Note_on_c, 1, 44, 89
3, 70878, Note_on_c, 1, 44, 0
3, 70890, Note_on_c, 1, 44, 93
3, 70918, Note_on_c, 1, 44, 0
3, 70920, Note_on_c, 1, 43, 93
3, 71005, Note_on_c, 1, 43, 0
3, 71010, Note_on_c, 1, 41, 85
3, 71038, Note_on_c, 1, 41, 0
3, 71040, Note_on_c, 1, 40, 85
3, 71123, Note_on_c, 1, 36, 0
3, 71153, Note_on_c, 1, 40, 0
3, 71400, Note_on_c, 1, 41, 89
3, 71400, Note_on_c, 1, 36, 85
3, 71400, Note_on_c, 1, 44, 85
3, 71514, Note_on_c, 1, 44, 0
3, 71516, Note_on_c, 1, 41, 0
3, 71520, Note_on_c, 1, 43, 80
3, 71520, Note_on_c, 1, 40, 80
3, 71634, Note_on_c, 1, 36, 0
3, 71638, Note_on_c, 1, 40, 0
3, 71639, Note_on_c, 1, 43, 0
3, 71880, Note_on_c, 1, 41, 80
3, 71880, Note_on_c, 1, 36, 80
3, 71880, Note_on_c, 1, 44, 85
3, 71992, Note_on_c, 1, 44, 0
3, 71993, Note_on_c, 1, 41, 0
3, 72000, Note_on_c, 1, 43, 80
3, 72000, Note_on_c, 1, 40, 76
3, 72115, Note_on_c, 1, 40, 0
3, 72120, Note_on_c, 1, 41, 72
3, 72120, Note_on_c, 1, 44, 62
3, 72124, Note_on_c, 1, 43, 0
3, 72233, Note_on_c, 1, 44, 0
3, 72236, Note_on_c, 1, 41, 0
3, 72240, Note_on_c, 1, 43, 76
3, 72240, Note_on_c, 1, 40, 68
3, 72352, Note_on_c, 1, 40, 0
3, 72360, Note_on_c, 1, 43, 0
3, 72360, Note_on_c, 1, 41, 72
3, 72360, Note_on_c, 1, 44, 64
3, 72473, Note_on_c, 1, 44, 0
3, 72473, Note_on_c, 1, 41, 0
3, 72480, Note_on_c, 1, 43, 89
3, 72480, Note_on_c, 1, 40, 80
3, 72571, Note_on_c, 1, 36, 0
3, 72601, Note_on_c, 1, 40, 0
3, 72603, Note_on_c, 1, 43, 0
3, 74640, Note_on_c, 1, 53, 93
3, 74867, Note_on_c, 1, 53, 0
3, 74880, Note_on_c, 1, 48, 80
3, 75116, Note_on_c, 1, 48, 0
3, 75120, Note_on_c, 1, 50, 93
3, 75347, Note_on_c, 1, 50, 0
3, 75360, Note_on_c, 1, 51, 85
3, 75375, Note_on_c, 1, 51, 0
3, 75420, Note_on_c, 1, 51, 89
3, 75479, Note_on_c, 1, 51, 0
3, 75480, Note_on_c, 1, 50, 89
3, 75533, Note_on_c, 1, 50, 0
3, 75540, Note_on_c, 1, 48, 76
3, 75598, Note_on_c, 1, 48, 0
3, 75600, Note_on_c, 1, 53, 89
3, 75611, Note_on_c, 1, 53, 0
3, 75660, Note_on_c, 1, 53, 93
3, 75720, Note_on_c, 1, 51, 80
3, 75724, Note_on_c, 1, 53, 0
3, 75774, Note_on_c, 1, 51, 0
3, 75780, Note_on_c, 1, 50, 89
3, 75840, Note_on_c, 1, 50, 0
3, 75840, Note_on_c, 1, 51, 89
3, 75852, Note_on_c, 1, 51, 0
3, 75900, Note_on_c, 1, 51, 85
3, 75960, Note_on_c, 1, 50, 76
3, 75962, Note_on_c, 1, 51, 0
3, 76017, Note_on_c, 1, 50, 0
3, 76020, Note_on_c, 1, 48, 80
3, 76079, Note_on_c, 1, 48, 0
3, 76080, Note_on_c, 1, 53, 93
3, 76093, Note_on_c, 1, 53, 0
3, 76140, Note_on_c, 1, 53, 93
3, 76200, Note_on_c, 1, 51, 76
3, 76202, Note_on_c, 1, 53, 0
3, 76255, Note_on_c, 1, 51, 0
3, 76260, Note_on_c, 1, 50, 93
3, 76319, Note_on_c, 1, 50, 0
3, 76320, Note_on_c, 1, 48, 89
3, 76426, Note_on_c, 1, 48, 0
3, 76560, Note_on_c, 1, 48, 89
3, 76680, Note_on_c, 1, 60, 89
3, 76789, Note_on_c, 1, 48, 0
3, 76800, Note_on_c, 1, 41, 85
3, 76823, Note_on_c, 1, 60, 0
3, 76830, Note_on_c, 1, 59, 93
3, 76860, Note_on_c, 1, 61, 85
3, 76865, Note_on_c, 1, 59, 0
3, 76890, Note_on_c, 1, 61, 0
3, 76890, Note_on_c, 1, 60, 80
3, 76920, Note_on_c, 1, 58, 76
3, 76924, Note_on_c, 1, 60, 0
3, 76950, Note_on_c, 1, 58, 0
3, 76950, Note_on_c, 1, 56, 68
3, 76976, Note_on_c, 1, 56, 0
3, 76980, Note_on_c, 1, 55, 76
3, 77012, Note_on_c, 1, 55, 0
3, 77025, Note_on_c, 1, 53, 89
3, 77030, Note_on_c, 1, 41, 0
3, 77040, Note_on_c, 1, 43, 93
3, 77044, Note_on_c, 1, 53, 0
3, 77055, Note_on_c, 1, 52, 93
3, 77070, Note_on_c, 1, 55, 76
3, 77085, Note_on_c, 1, 52, 0
3, 77099, Note_on_c, 1, 55, 0
3, 77100, Note_on_c, 1, 60, 72
3, 77128, Note_on_c, 1, 60, 0
3, 77130, Note_on_c, 1, 58, 80
3, 77160, Note_on_c, 1, 56, 72
3, 77164, Note_on_c, 1, 58, 0
3, 77188, Note_on_c, 1, 56, 0
3, 77190, Note_on_c, 1, 55, 76
3, 77220, Note_on_c, 1, 53, 76
3, 77221, Note_on_c, 1, 55, 0
3, 77249, Note_on_c, 1, 53, 0
3, 77250, Note_on_c, 1, 52, 60
3, 77267, Note_on_c, 1, 43, 0
3, 77268, Note_on_c, 1, 52, 0
3, 77280, Note_on_c, 1, 53, 98
3, 77280, Note_on_c, 1, 44, 93
3, 77291, Note_on_c, 1, 53, 0
3, 77297, Note_on_c, 1, 44, 0
3, 77310, Note_on_c, 1, 48, 89
3, 77340, Note_on_c, 1, 47, 85
3, 77340, Note_on_c, 1, 44, 93
3, 77343, Note_on_c, 1, 48, 0
3, 77368, Note_on_c, 1, 47, 0
3, 77370, Note_on_c, 1, 48, 76
3, 77399, Note_on_c, 1, 48, 0
3, 77400, Note_on_c, 1, 47, 76
3, 77400, Note_on_c, 1, 43, 76
3, 77401, Note_on_c, 1, 44, 0
3, 77430, Note_on_c, 1, 47, 0
3, 77430, Note_on_c, 1, 48, 80
3, 77456, Note_on_c, 1, 43, 0
3, 77460, Note_on_c, 1, 47, 76
3, 77460, Note_on_c, 1, 41, 89
3, 77462, Note_on_c, 1, 48, 0
3, 77490, Note_on_c, 1, 47, 0
3, 77490, Note_on_c, 1, 48, 68
3, 77519, Note_on_c, 1, 48, 0
3, 77520, Note_on_c, 1, 41, 0
3, 77520, Note_on_c, 1, 49, 89
3, 77520, Note_on_c, 1, 46, 85
3, 77534, Note_on_c, 1, 46, 0
3, 77548, Note_on_c, 1, 49, 0
3, 77550, Note_on_c, 1, 48, 76
3, 77575, Note_on_c, 1, 48, 0
3, 77580, Note_on_c, 1, 50, 93
3, 77580, Note_on_c, 1, 46, 76
3, 77609, Note_on_c, 1, 50, 0
3, 77610, Note_on_c, 1, 48, 72
3, 77638, Note_on_c, 1, 46, 0
3, 77639, Note_on_c, 1, 48, 0
3, 77640, Note_on_c, 1, 51, 68
3, 77640, Note_on_c, 1, 44, 80
3, 77669, Note_on_c, 1, 51, 0
3, 77670, Note_on_c, 1, 48, 72
3, 77696, Note_on_c, 1, 48, 0
3, 77698, Note_on_c, 1, 44, 0
3, 77700, Note_on_c, 1, 52, 80
3, 77700, Note_on_c, 1, 43, 76
3, 77725, Note_on_c, 1, 52, 0
3, 77730, Note_on_c, 1, 48, 68
3, 77749, Note_on_c, 1, 48, 0
3, 77758, Note_on_c, 1, 43, 0
3, 77760, Note_on_c, 1, 53, 89
3, 77760, Note_on_c, 1, 44, 93
3, 77771, Note_on_c, 1, 53, 0
3, 77773, Note_on_c, 1, 44, 0
3, 77790, Note_on_c, 1, 48, 76
3, 77818, Note_on_c, 1, 48, 0
3, 77820, Note_on_c, 1, 47, 76
3, 77820, Note_on_c, 1, 44, 93
3, 77849, Note_on_c, 1, 47, 0
3, 77850, Note_on_c, 1, 48, 76
3, 77880, Note_on_c, 1, 48, 0
3, 77880, Note_on_c, 1, 47, 72
3, 77880, Note_on_c, 1, 43, 85
3, 77882, Note_on_c, 1, 44, 0
3, 77908, Note_on_c, 1, 47, 0
3, 77910, Note_on_c, 1, 48, 76
3, 77939, Note_on_c, 1, 43, 0
3, 77940, Note_on_c, 1, 47, 76
3, 77940, Note_on_c, 1, 41, 85
3, 77941, Note_on_c, 1, 48, 0
3, 77969, Note_on_c, 1, 47, 0
3, 77970, Note_on_c, 1, 48, 62
3, 77996, Note_on_c, 1, 48, 0
3, 78000, Note_on_c, 1, 41, 0
3, 78000, Note_on_c, 1, 49, 89
3, 78000, Note_on_c, 1, 46, 85
3, 78013, Note_on_c, 1, 46, 0
3, 78027, Note_on_c, 1, 49, 0
3, 78030, Note_on_c, 1, 47, 76
3, 78053, Note_on_c, 1, 47, 0
3, 78060, Note_on_c, 1, 50, 80
3, 78060, Note_on_c, 1, 46, 80
3, 78087, Note_on_c, 1, 50, 0
3, 78090, Note_on_c, 1, 47, 64
3, 78116, Note_on_c, 1, 46, 0
3, 78119, Note_on_c, 1, 47, 0
3, 78120, Note_on_c, 1, 51, 76
3, 78120, Note_on_c, 1, 44, 80
3, 78150, Note_on_c, 1, 48, 76
3, 78151, Note_on_c, 1, 51, 0
3, 78173, Note_on_c, 1, 48, 0
3, 78178, Note_on_c, 1, 44, 0
3, 78180, Note_on_c, 1, 52, 80
3, 78180, Note_on_c, 1, 43, 89
3, 78209, Note_on_c, 1, 52, 0
3, 78210, Note_on_c, 1, 48, 72
3, 78236, Note_on_c, 1, 43, 0
3, 78238, Note_on_c, 1, 48, 0
3, 78240, Note_on_c, 1, 53, 85
3, 78240, Note_on_c, 1, 41, 80
3, 78343, Note_on_c, 1, 53, 0
3, 78363, Note_on_c, 1, 41, 0
3, 78600, Note_on_c, 1, 48, 89
3, 78718, Note_on_c, 1, 48, 0
3, 78720, Note_on_c, 1, 41, 80
3, 78830, Note_on_c, 1, 41, 0
3, 78840, Note_on_c, 1, 43, 89
3, 78955, Note_on_c, 1, 43, 0
3, 78960, Note_on_c, 1, 45, 89
3, 78971, Note_on_c, 1, 45, 0
3, 78990, Note_on_c, 1, 45, 89
3, 79020, Note_on_c, 1, 45, 0
3, 79020, Note_on_c, 1, 43, 80
3, 79048, Note_on_c, 1, 43, 0
3, 79050, Note_on_c, 1, 41, 76
3, 79074, Note_on_c, 1, 41, 0
3, 79080, Note_on_c, 1, 47, 89
3, 79080, Note_on_c, 1, 43, 93
3, 79092, Note_on_c, 1, 47, 0
3, 79110, Note_on_c, 1, 47, 93
3, 79140, Note_on_c, 1, 45, 89
3, 79141, Note_on_c, 1, 47, 0
3, 79169, Note_on_c, 1, 45, 0
3, 79170, Note_on_c, 1, 43, 72
3, 79183, Note_on_c, 1, 43, 0
3, 79197, Note_on_c, 1, 43, 0
3, 79200, Note_on_c, 1, 55, 93
3, 79200, Note_on_c, 1, 36, 89
3, 79314, Note_on_c, 1, 36, 0
3, 79317, Note_on_c, 1, 55, 0
3, 79320, Note_on_c, 1, 53, 89
3, 79320, Note_on_c, 1, 38, 89
3, 79433, Note_on_c, 1, 38, 0
3, 79436, Note_on_c, 1, 53, 0
3, 79440, Note_on_c, 1, 51, 72
3, 79440, Note_on_c, 1, 39, 93
3, 79455, Note_on_c, 1, 39, 0
3, 79470, Note_on_c, 1, 39, 93
3, 79496, Note_on_c, 1, 51, 0
3, 79498, Note_on_c, 1, 39, 0
3, 79500, Note_on_c, 1, 55, 76
3, 79500, Note_on_c, 1, 38, 89
3, 79528, Note_on_c, 1, 38, 0
3, 79530, Note_on_c, 1, 36, 85
3, 79553, Note_on_c, 1, 36, 0
3, 79560, Note_on_c, 1, 53, 89
3, 79560, Note_on_c, 1, 41, 89
3, 79562, Note_on_c, 1, 55, 0
3, 79571, Note_on_c, 1, 41, 0
3, 79590, Note_on_c, 1, 41, 93
3, 79619, Note_on_c, 1, 41, 0
3, 79620, Note_on_c, 1, 51, 85
3, 79620, Note_on_c, 1, 39, 80
3, 79647, Note_on_c, 1, 39, 0
3, 79649, Note_on_c, 1, 53, 0
3, 79650, Note_on_c, 1, 38, 85
3, 79652, Note_on_c, 1, 51, 0
3, 79671, Note_on_c, 1, 38, 0
3, 79680, Note_on_c, 1, 50, 93
3, 79680, Note_on_c, 1, 43, 89
3, 79693, Note_on_c, 1, 50, 0
3, 79740, Note_on_c, 1, 51, 89
3, 79788, Note_on_c, 1, 43, 0
3, 79799, Note_on_c, 1, 51, 0
3, 79800, Note_on_c, 1, 50, 89
3, 79853, Note_on_c, 1, 50, 0
3, 79860, Note_on_c, 1, 48, 85
3, 79912, Note_on_c, 1, 48, 0
3, 79920, Note_on_c, 1, 53, 98
3, 79932, Note_on_c, 1, 53, 0
3, 79980, Note_on_c, 1, 53, 93
3, 80040, Note_on_c, 1, 51, 80
3, 80040, Note_on_c, 1, 43, 89
3, 80043, Note_on_c, 1, 53, 0
3, 80093, Note_on_c, 1, 51, 0
3, 80100, Note_on_c, 1, 50, 89
3, 80154, Note_on_c, 1, 43, 0
3, 80160, Note_on_c, 1, 51, 93
3, 80160, Note_on_c, 1, 36, 89
3, 80164, Note_on_c, 1, 50, 0
3, 80173, Note_on_c, 1, 51, 0
3, 80220, Note_on_c, 1, 51, 89
3, 80277, Note_on_c, 1, 51, 0
3, 80278, Note_on_c, 1, 36, 0
3, 80280, Note_on_c, 1, 50, 89
3, 80336, Note_on_c, 1, 50, 0
3, 80340, Note_on_c, 1, 48, 76
3, 80400, Note_on_c, 1, 53, 93
3, 80403, Note_on_c, 1, 48, 0
3, 80412, Note_on_c, 1, 53, 0
3, 80460, Note_on_c, 1, 53, 93
3, 80520, Note_on_c, 1, 51, 76
3, 80520, Note_on_c, 1, 43, 93
3, 80523, Note_on_c, 1, 53, 0
3, 80574, Note_on_c, 1, 51, 0
3, 80580, Note_on_c, 1, 50, 89
3, 80634, Note_on_c, 1, 50, 0
3, 80637, Note_on_c, 1, 43, 0
3, 80640, Note_on_c, 1, 48, 89
3, 80640, Note_on_c, 1, 36, 98
3, 80700, Note_on_c, 1, 60, 85
3, 80704, Note_on_c, 1, 48, 0
3, 80728, Note_on_c, 1, 60, 0
3, 80730, Note_on_c, 1, 58, 68
3, 80760, Note_on_c, 1, 61, 76
3, 80761, Note_on_c, 1, 58, 0
3, 80763, Note_on_c, 1, 36, 0
3, 80781, Note_on_c, 1, 61, 0
3, 80790, Note_on_c, 1, 60, 80
3, 80819, Note_on_c, 1, 60, 0
3, 80820, Note_on_c, 1, 58, 80
3, 80850, Note_on_c, 1, 56, 76
3, 80854, Note_on_c, 1, 58, 0
3, 80880, Note_on_c, 1, 56, 0
3, 80880, Note_on_c, 1, 55, 89
3, 80909, Note_on_c, 1, 55, 0
3, 80910, Note_on_c, 1, 53, 80
3, 80940, Note_on_c, 1, 58, 76
3, 80941, Note_on_c, 1, 53, 0
3, 80970, Note_on_c, 1, 56, 72
3, 80975, Note_on_c, 1, 58, 0
3, 80999, Note_on_c, 1, 56, 0
3, 81000, Note_on_c, 1, 55, 76
3, 81000, Note_on_c, 1, 48, 89
3, 81029, Note_on_c, 1, 55, 0
3, 81030, Note_on_c, 1, 53, 76
3, 81059, Note_on_c, 1, 53, 0
3, 81060, Note_on_c, 1, 52, 80
3, 81084, Note_on_c, 1, 52, 0
3, 81090, Note_on_c, 1, 55, 85
3, 81118, Note_on_c, 1, 55, 0
3, 81120, Note_on_c, 1, 53, 93
3, 81145, Note_on_c, 1, 48, 0
3, 81150, Note_on_c, 1, 47, 85
3, 81180, Note_on_c, 1, 49, 72
3, 81187, Note_on_c, 1, 47, 0
3, 81205, Note_on_c, 1, 49, 0
3, 81210, Note_on_c, 1, 48, 76
3, 81240, Note_on_c, 1, 53, 0
3, 81240, Note_on_c, 1, 46, 80
3, 81242, Note_on_c, 1, 48, 0
3, 81269, Note_on_c, 1, 46, 0
3, 81270, Note_on_c, 1, 44, 68
3, 81296, Note_on_c, 1, 44, 0
3, 81300, Note_on_c, 1, 43, 80
3, 81329, Note_on_c, 1, 43, 0
3, 81330, Note_on_c, 1, 41, 85
3, 81357, Note_on_c, 1, 41, 0
3, 81360, Note_on_c, 1, 40, 56
3, 81390, Note_on_c, 1, 43, 93
3, 81391, Note_on_c, 1, 40, 0
3, 81417, Note_on_c, 1, 43, 0
3, 81420, Note_on_c, 1, 48, 72
3, 81450, Note_on_c, 1, 46, 80
3, 81451, Note_on_c, 1, 48, 0
3, 81480, Note_on_c, 1, 44, 72
3, 81486, Note_on_c, 1, 46, 0
3, 81510, Note_on_c, 1, 43, 80
3, 81511, Note_on_c, 1, 44, 0
3, 81540, Note_on_c, 1, 41, 72
3, 81541, Note_on_c, 1, 43, 0
3, 81569, Note_on_c, 1, 41, 0
3, 81570, Note_on_c, 1, 40, 89
3, 81597, Note_on_c, 1, 40, 0
3, 81600, Note_on_c, 1, 41, 89
3, 81611, Note_on_c, 1, 41, 0
3, 81630, Note_on_c, 1, 36, 89
3, 81659, Note_on_c, 1, 36, 0
3, 81660, Note_on_c, 1, 37, 89
3, 81688, Note_on_c, 1, 37, 0
3, 81690, Note_on_c, 1, 36, 80
3, 81720, Note_on_c, 1, 36, 0
3, 81720, Note_on_c, 1, 37, 72
3, 81749, Note_on_c, 1, 37, 0
3, 81750, Note_on_c, 1, 36, 80
3, 81779, Note_on_c, 1, 36, 0
3, 81780, Note_on_c, 1, 37, 76
3, 81810, Note_on_c, 1, 36, 72
3, 81811, Note_on_c, 1, 37, 0
3, 81840, Note_on_c, 1, 36, 0
3, 81840, Note_on_c, 1, 38, 80
3, 81869, Note_on_c, 1, 38, 0
3, 81870, Note_on_c, 1, 36, 76
3, 81900, Note_on_c, 1, 36, 0
3, 81900, Note_on_c, 1, 38, 89
3, 81930, Note_on_c, 1, 38, 0
3, 81930, Note_on_c, 1, 36, 68
3, 81959, Note_on_c, 1, 36, 0
3, 81960, Note_on_c, 1, 39, 85
3, 81988, Note_on_c, 1, 39, 0
3, 81990, Note_on_c, 1, 36, 64
3, 82019, Note_on_c, 1, 36, 0
3, 82020, Note_on_c, 1, 39, 72
3, 82049, Note_on_c, 1, 39, 0
3, 82050, Note_on_c, 1, 36, 72
3, 82079, Note_on_c, 1, 36, 0
3, 82080, Note_on_c, 1, 40, 80
3, 82108, Note_on_c, 1, 40, 0
3, 82110, Note_on_c, 1, 36, 72
3, 82140, Note_on_c, 1, 36, 0
3, 82140, Note_on_c, 1, 40, 85
3, 82170, Note_on_c, 1, 36, 60
3, 82172, Note_on_c, 1, 40, 0
3, 82200, Note_on_c, 1, 36, 0
3, 82200, Note_on_c, 1, 41, 85
3, 82230, Note_on_c, 1, 41, 0
3, 82230, Note_on_c, 1, 36, 72
3, 82259, Note_on_c, 1, 36, 0
3, 82260, Note_on_c, 1, 41, 80
3, 82290, Note_on_c, 1, 41, 0
3, 82290, Note_on_c, 1, 36, 72
3, 82319, Note_on_c, 1, 36, 0
3, 82320, Note_on_c, 1, 43, 89
3, 82350, Note_on_c, 1, 43, 0
3, 82350, Note_on_c, 1, 36, 57
3, 82379, Note_on_c, 1, 36, 0
3, 82380, Note_on_c, 1, 43, 76
3, 82410, Note_on_c, 1, 36, 64
3, 82412, Note_on_c, 1, 43, 0
3, 82440, Note_on_c, 1, 36, 0
3, 82440, Note_on_c, 1, 45, 89
3, 82470, Note_on_c, 1, 36, 56
3, 82472, Note_on_c, 1, 45, 0
3, 82496, Note_on_c, 1, 36, 0
3, 82500, Note_on_c, 1, 45, 93
3, 82529, Note_on_c, 1, 45, 0
3, 82530, Note_on_c, 1, 36, 68
3, 82554, Note_on_c, 1, 36, 0
3, 82560, Note_on_c, 1, 46, 85
3, 82590, Note_on_c, 1, 53, 85
3, 82620, Note_on_c, 1, 54, 72
3, 82622, Note_on_c, 1, 53, 0
3, 82650, Note_on_c, 1, 54, 0
3, 82650, Note_on_c, 1, 53, 76
3, 82678, Note_on_c, 1, 53, 0
3, 82680, Note_on_c, 1, 54, 76
3, 82685, Note_on_c, 1, 46, 0
3, 82709, Note_on_c, 1, 54, 0
3, 82710, Note_on_c, 1, 53, 80
3, 82738, Note_on_c, 1, 53, 0
3, 82740, Note_on_c, 1, 54, 76
3, 82740, Note_on_c, 1, 37, 89
3, 82770, Note_on_c, 1, 54, 0
3, 82770, Note_on_c, 1, 53, 80
3, 82792, Note_on_c, 1, 37, 0
3, 82799, Note_on_c, 1, 53, 0
3, 82800, Note_on_c, 1, 55, 80
3, 82800, Note_on_c, 1, 36, 93
3, 82829, Note_on_c, 1, 55, 0
3, 82830, Note_on_c, 1, 53, 72
3, 82852, Note_on_c, 1, 36, 0
3, 82860, Note_on_c, 1, 53, 0
3, 82860, Note_on_c, 1, 55, 85
3, 82860, Note_on_c, 1, 45, 98
3, 82890, Note_on_c, 1, 53, 76
3, 82891, Note_on_c, 1, 55, 0
3, 82911, Note_on_c, 1, 45, 0
3, 82919, Note_on_c, 1, 53, 0
3, 82920, Note_on_c, 1, 56, 89
3, 82950, Note_on_c, 1, 53, 76
3, 82951, Note_on_c, 1, 56, 0
3, 82979, Note_on_c, 1, 53, 0
3, 82980, Note_on_c, 1, 56, 80
3, 82980, Note_on_c, 1, 39, 98
3, 83010, Note_on_c, 1, 53, 76
3, 83011, Note_on_c, 1, 56, 0
3, 83037, Note_on_c, 1, 53, 0
3, 83039, Note_on_c, 1, 39, 0
3, 83040, Note_on_c, 1, 57, 85
3, 83040, Note_on_c, 1, 38, 89
3, 83069, Note_on_c, 1, 57, 0
3, 83070, Note_on_c, 1, 53, 76
3, 83091, Note_on_c, 1, 38, 0
3, 83100, Note_on_c, 1, 57, 76
3, 83100, Note_on_c, 1, 46, 89
3, 83101, Note_on_c, 1, 53, 0
3, 83129, Note_on_c, 1, 57, 0
3, 83130, Note_on_c, 1, 53, 72
3, 83146, Note_on_c, 1, 46, 0
3, 83156, Note_on_c, 1, 53, 0
3, 83160, Note_on_c, 1, 58, 64
3, 83190, Note_on_c, 1, 53, 76
3, 83191, Note_on_c, 1, 58, 0
3, 83220, Note_on_c, 1, 53, 0
3, 83220, Note_on_c, 1, 58, 76
3, 83220, Note_on_c, 1, 41, 89
3, 83250, Note_on_c, 1, 53, 76
3, 83252, Note_on_c, 1, 58, 0
3, 83279, Note_on_c, 1, 53, 0
3, 83280, Note_on_c, 1, 58, 80
3, 83280, Note_on_c, 1, 39, 89
3, 83281, Note_on_c, 1, 41, 0
3, 83392, Note_on_c, 1, 39, 0
3, 83397, Note_on_c, 1, 58, 0
3, 83460, Note_on_c, 1, 42, 89
3, 83515, Note_on_c, 1, 42, 0
3, 83520, Note_on_c, 1, 41, 89
3, 83575, Note_on_c, 1, 41, 0
3, 83580, Note_on_c, 1, 50, 93
3, 83628, Note_on_c, 1, 50, 0
3, 83700, Note_on_c, 1, 44, 93
3, 83759, Note_on_c, 1, 44, 0
3, 83760, Note_on_c, 1, 43, 80
3, 83819, Note_on_c, 1, 43, 0
3, 83820, Note_on_c, 1, 51, 89
3, 83881, Note_on_c, 1, 51, 0
3, 83940, Note_on_c, 1, 46, 89
3, 83995, Note_on_c, 1, 46, 0
3, 84000, Note_on_c, 1, 44, 93
3, 84052, Note_on_c, 1, 44, 0
3, 84060, Note_on_c, 1, 44, 93
3, 84115, Note_on_c, 1, 44, 0
3, 84120, Note_on_c, 1, 46, 85
3, 84172, Note_on_c, 1, 46, 0
3, 84180, Note_on_c, 1, 48, 85
3, 84240, Note_on_c, 1, 48, 0
3, 84240, Note_on_c, 1, 43, 98
3, 84260, Note_on_c, 1, 43, 0
3, 84300, Note_on_c, 1, 43, 89
3, 84360, Note_on_c, 1, 44, 80
3, 84361, Note_on_c, 1, 43, 0
3, 84416, Note_on_c, 1, 44, 0
3, 84420, Note_on_c, 1, 46, 80
3, 84480, Note_on_c, 1, 46, 0
3, 84480, Note_on_c, 1, 41, 89
3, 84496, Note_on_c, 1, 41, 0
3, 84510, Note_on_c, 1, 60, 89
3, 84540, Note_on_c, 1, 59, 72
3, 84540, Note_on_c, 1, 41, 89
3, 84542, Note_on_c, 1, 60, 0
3, 84570, Note_on_c, 1, 59, 0
3, 84570, Note_on_c, 1, 60, 80
3, 84599, Note_on_c, 1, 60, 0
3, 84600, Note_on_c, 1, 59, 72
3, 84600, Note_on_c, 1, 43, 93
3, 84601, Note_on_c, 1, 41, 0
3, 84629, Note_on_c, 1, 59, 0
3, 84630, Note_on_c, 1, 60, 76
3, 84655, Note_on_c, 1, 43, 0
3, 84660, Note_on_c, 1, 59, 62
3, 84660, Note_on_c, 1, 44, 76
3, 84661, Note_on_c, 1, 60, 0
3, 84687, Note_on_c, 1, 59, 0
3, 84690, Note_on_c, 1, 60, 76
3, 84720, Note_on_c, 1, 44, 0
3, 84720, Note_on_c, 1, 58, 64
3, 84720, Note_on_c, 1, 36, 89
3, 84722, Note_on_c, 1, 60, 0
3, 84749, Note_on_c, 1, 58, 0
3, 84750, Note_on_c, 1, 60, 80
3, 84780, Note_on_c, 1, 60, 0
3, 84780, Note_on_c, 1, 58, 60
3, 84809, Note_on_c, 1, 58, 0
3, 84810, Note_on_c, 1, 60, 80
3, 84839, Note_on_c, 1, 60, 0
3, 84839, Note_on_c, 1, 36, 0
3, 84840, Note_on_c, 1, 57, 80
3, 84840, Note_on_c, 1, 41, 89
3, 84866, Note_on_c, 1, 57, 0
3, 84870, Note_on_c, 1, 60, 80
3, 84899, Note_on_c, 1, 60, 0
3, 84900, Note_on_c, 1, 57, 85
3, 84929, Note_on_c, 1, 57, 0
3, 84930, Note_on_c, 1, 60, 55
3, 84954, Note_on_c, 1, 41, 0
3, 84958, Note_on_c, 1, 60, 0
3, 84960, Note_on_c, 1, 56, 62
3, 84960, Note_on_c, 1, 46, 76
3, 84988, Note_on_c, 1, 56, 0
3, 84990, Note_on_c, 1, 58, 80
3, 85008, Note_on_c, 1, 46, 0
3, 85020, Note_on_c, 1, 56, 60
3, 85020, Note_on_c, 1, 46, 89
3, 85024, Note_on_c, 1, 58, 0
3, 85050, Note_on_c, 1, 58, 72
3, 85051, Note_on_c, 1, 46, 0
3, 85051, Note_on_c, 1, 56, 0
3, 85078, Note_on_c, 1, 58, 0
3, 85080, Note_on_c, 1, 55, 89
3, 85109, Note_on_c, 1, 55, 0
3, 85110, Note_on_c, 1, 58, 76
3, 85139, Note_on_c, 1, 58, 0
3, 85140, Note_on_c, 1, 55, 76
3, 85140, Note_on_c, 1, 39, 98
3, 85170, Note_on_c, 1, 55, 0
3, 85170, Note_on_c, 1, 58, 72
3, 85198, Note_on_c, 1, 58, 0
3, 85200, Note_on_c, 1, 55, 76
3, 85200, Note_on_c, 1, 44, 85
3, 85202, Note_on_c, 1, 39, 0
3, 85226, Note_on_c, 1, 44, 0
3, 85229, Note_on_c, 1, 55, 0
3, 85230, Note_on_c, 1, 56, 76
3, 85230, Note_on_c, 1, 43, 89
3, 85258, Note_on_c, 1, 56, 0
3, 85259, Note_on_c, 1, 43, 0
3, 85260, Note_on_c, 1, 55, 68
3, 85260, Note_on_c, 1, 44, 85
3, 85287, Note_on_c, 1, 44, 0
3, 85289, Note_on_c, 1, 55, 0
3, 85290, Note_on_c, 1, 56, 76
3, 85319, Note_on_c, 1, 56, 0
3, 85320, Note_on_c, 1, 53, 80
3, 85349, Note_on_c, 1, 53, 0
3, 85350, Note_on_c, 1, 56, 76
3, 85378, Note_on_c, 1, 56, 0
3, 85380, Note_on_c, 1, 53, 76
3, 85380, Note_on_c, 1, 38, 89
3, 85410, Note_on_c, 1, 53, 0
3, 85410, Note_on_c, 1, 56, 64
3, 85439, Note_on_c, 1, 56, 0
3, 85439, Note_on_c, 1, 38, 0
3, 85440, Note_on_c, 1, 53, 80
3, 85440, Note_on_c, 1, 43, 89
3, 85469, Note_on_c, 1, 53, 0
3, 85470, Note_on_c, 1, 55, 72
3, 85494, Note_on_c, 1, 43, 0
3, 85499, Note_on_c, 1, 55, 0
3, 85500, Note_on_c, 1, 53, 72
3, 85500, Note_on_c, 1, 43, 98
3, 85523, Note_on_c, 1, 43, 0
3, 85530, Note_on_c, 1, 53, 0
3, 85530, Note_on_c, 1, 55, 89
3, 85558, Note_on_c, 1, 55, 0
3, 85560, Note_on_c, 1, 52, 64
3, 85589, Note_on_c, 1, 52, 0
3, 85590, Note_on_c, 1, 55, 76
3, 85619, Note_on_c, 1, 55, 0
3, 85620, Note_on_c, 1, 52, 80
3, 85620, Note_on_c, 1, 36, 93
3, 85646, Note_on_c, 1, 52, 0
3, 85650, Note_on_c, 1, 55, 76
3, 85677, Note_on_c, 1, 36, 0
3, 85680, Note_on_c, 1, 48, 60
3, 85680, Note_on_c, 1, 41, 85
3, 85684, Note_on_c, 1, 55, 0
3, 85708, Note_on_c, 1, 41, 0
3, 85710, Note_on_c, 1, 44, 80
3, 85732, Note_on_c, 1, 48, 0
3, 85737, Note_on_c, 1, 44, 0
3, 85740, Note_on_c, 1, 53, 93
3, 85740, Note_on_c, 1, 39, 89
3, 85770, Note_on_c, 1, 39, 0
3, 85770, Note_on_c, 1, 48, 80
3, 85800, Note_on_c, 1, 38, 85
3, 85801, Note_on_c, 1, 48, 0
3, 85829, Note_on_c, 1, 38, 0
3, 85830, Note_on_c, 1, 41, 76
3, 85856, Note_on_c, 1, 53, 0
3, 85860, Note_on_c, 1, 55, 93
3, 85860, Note_on_c, 1, 37, 76
3, 85862, Note_on_c, 1, 41, 0
3, 85887, Note_on_c, 1, 37, 0
3, 85890, Note_on_c, 1, 47, 89
3, 85919, Note_on_c, 1, 47, 0
3, 85920, Note_on_c, 1, 36, 76
3, 85950, Note_on_c, 1, 40, 93
3, 85951, Note_on_c, 1, 36, 0
3, 85979, Note_on_c, 1, 40, 0
3, 85980, Note_on_c, 1, 43, 89
3, 86009, Note_on_c, 1, 43, 0
3, 86010, Note_on_c, 1, 48, 76
3, 86033, Note_on_c, 1, 55, 0
3, 86040, Note_on_c, 1, 48, 0
3, 86040, Note_on_c, 1, 56, 85
3, 86040, Note_on_c, 1, 36, 76
3, 86068, Note_on_c, 1, 36, 0
3, 86070, Note_on_c, 1, 41, 60
3, 86099, Note_on_c, 1, 41, 0
3, 86100, Note_on_c, 1, 44, 76
3, 86129, Note_on_c, 1, 44, 0
3, 86130, Note_on_c, 1, 48, 68
3, 86154, Note_on_c, 1, 56, 0
3, 86159, Note_on_c, 1, 48, 0
3, 86160, Note_on_c, 1, 55, 89
3, 86160, Note_on_c, 1, 36, 80
3, 86188, Note_on_c, 1, 36, 0
3, 86190, Note_on_c, 1, 41, 80
3, 86220, Note_on_c, 1, 43, 76
3, 86223, Note_on_c, 1, 41, 0
3, 86249, Note_on_c, 1, 43, 0
3, 86250, Note_on_c, 1, 48, 72
3, 86279, Note_on_c, 1, 48, 0
3, 86280, Note_on_c, 1, 36, 76
3, 86310, Note_on_c, 1, 40, 76
3, 86312, Note_on_c, 1, 36, 0
3, 86339, Note_on_c, 1, 40, 0
3, 86340, Note_on_c, 1, 43, 85
3, 86369, Note_on_c, 1, 43, 0
3, 86370, Note_on_c, 1, 48, 72
3, 86388, Note_on_c, 1, 48, 0
3, 86388, Note_on_c, 1, 55, 0
3, 86400, Note_on_c, 1, 53, 85
3, 86400, Note_on_c, 1, 41, 76
3, 86400, Note_on_c, 1, 44, 85
3, 86400, Note_on_c, 1, 48, 89
3, 86516, Note_on_c, 1, 41, 0
3, 86519, Note_on_c, 1, 53, 0
3, 86521, Note_on_c, 1, 44, 0
3, 86522, Note_on_c, 1, 48, 0
3, 86880, Note_on_c, 1, 49, 107
3, 86880, Note_on_c, 1, 43, 93
3, 86880, Note_on_c, 1, 46, 76
3, 86880, Note_on_c, 1, 40, 93
3, 87000, Note_on_c, 1, 49, 0
3, 87002, Note_on_c, 1, 40, 0
3, 87003, Note_on_c, 1, 43, 0
3, 87005, Note_on_c, 1, 46, 0
3, 87360, Note_on_c, 1, 51, 89
3, 87360, Note_on_c, 1, 54, 80
3, 87360, Note_on_c, 1, 48, 89
3, 87360, Note_on_c, 1, 39, 80
3, 87360, Note_on_c, 1, 45, 93
3, 87360, Note_on_c, 1, 42, 76
3, 87478, Note_on_c, 1, 51, 0
3, 87480, Note_on_c, 1, 54, 0
3, 87482, Note_on_c, 1, 39, 0
3, 87484, Note_on_c, 1, 45, 0
3, 87484, Note_on_c, 1, 42, 0
3, 87490, Note_on_c, 1, 48, 0
3, 87810, Note_on_c, 1, 54, 89
3, 87810, Note_on_c, 1, 51, 85
3, 87835, Note_on_c, 1, 54, 0
3, 87838, Note_on_c, 1, 51, 0
3, 87840, Note_on_c, 1, 53, 98
3, 87840, Note_on_c, 1, 50, 89
3, 87950, Note_on_c, 1, 50, 0
3, 87950, Note_on_c, 1, 53, 0
3, 88080, Note_on_c, 1, 53, 93
3, 88080, Note_on_c, 1, 49, 93
3, 88196, Note_on_c, 1, 53, 0
3, 88202, Note_on_c, 1, 49, 0
3, 88320, Note_on_c, 1, 55, 89
3, 88320, Note_on_c, 1, 52, 89
3, 88320, Note_on_c, 1, 48, 89
3, 88441, Note_on_c, 1, 52, 0
3, 88444, Note_on_c, 1, 48, 0
3, 88445, Note_on_c, 1, 55, 0
3, 89520, Note_on_c, 1, 51, 80
3, 89751, Note_on_c, 1, 51, 0
3, 89760, Note_on_c, 1, 44, 80
3, 89983, Note_on_c, 1, 44, 0
3, 90000, Note_on_c, 1, 48, 76
3, 90000, Note_on_c, 1, 43, 89
3, 90015, Note_on_c, 1, 48, 0
3, 90015, Note_on_c, 1, 46, 68
3, 90030, Note_on_c, 1, 48, 80
3, 90031, Note_on_c, 1, 46, 0
3, 90043, Note_on_c, 1, 48, 0
3, 90045, Note_on_c, 1, 46, 85
3, 90059, Note_on_c, 1, 46, 0
3, 90060, Note_on_c, 1, 48, 80
3, 90075, Note_on_c, 1, 48, 0
3, 90075, Note_on_c, 1, 46, 68
3, 90090, Note_on_c, 1, 46, 0
3, 90090, Note_on_c, 1, 48, 56
3, 90105, Note_on_c, 1, 46, 76
3, 90107, Note_on_c, 1, 48, 0
3, 90118, Note_on_c, 1, 46, 0
3, 90120, Note_on_c, 1, 48, 76
3, 90133, Note_on_c, 1, 48, 0
3, 90135, Note_on_c, 1, 46, 89
3, 90147, Note_on_c, 1, 46, 0
3, 90150, Note_on_c, 1, 48, 76
3, 90165, Note_on_c, 1, 46, 85
3, 90167, Note_on_c, 1, 48, 0
3, 90178, Note_on_c, 1, 46, 0
3, 90180, Note_on_c, 1, 44, 93
3, 90208, Note_on_c, 1, 44, 0
3, 90210, Note_on_c, 1, 46, 76
3, 90233, Note_on_c, 1, 43, 0
3, 90237, Note_on_c, 1, 46, 0
3, 90240, Note_on_c, 1, 48, 76
3, 90240, Note_on_c, 1, 36, 102
3, 90260, Note_on_c, 1, 48, 0
3, 90300, Note_on_c, 1, 52, 89
3, 90360, Note_on_c, 1, 50, 89
3, 90361, Note_on_c, 1, 52, 0
3, 90411, Note_on_c, 1, 50, 0
3, 90420, Note_on_c, 1, 48, 89
3, 90460, Note_on_c, 1, 36, 0
3, 90480, Note_on_c, 1, 53, 98
3, 90480, Note_on_c, 1, 39, 80
3, 90481, Note_on_c, 1, 48, 0
3, 90494, Note_on_c, 1, 53, 0
3, 90495, Note_on_c, 1, 38, 72
3, 90498, Note_on_c, 1, 39, 0
3, 90509, Note_on_c, 1, 38, 0
3, 90510, Note_on_c, 1, 39, 76
3, 90525, Note_on_c, 1, 38, 85
3, 90526, Note_on_c, 1, 39, 0
3, 90539, Note_on_c, 1, 38, 0
3, 90540, Note_on_c, 1, 53, 89
3, 90540, Note_on_c, 1, 39, 68
3, 90554, Note_on_c, 1, 39, 0
3, 90555, Note_on_c, 1, 38, 72
3, 90570, Note_on_c, 1, 39, 62
3, 90571, Note_on_c, 1, 38, 0
3, 90583, Note_on_c, 1, 39, 0
3, 90585, Note_on_c, 1, 38, 76
3, 90598, Note_on_c, 1, 38, 0
3, 90598, Note_on_c, 1, 53, 0
3, 90600, Note_on_c, 1, 52, 76
3, 90600, Note_on_c, 1, 39, 80
3, 90613, Note_on_c, 1, 39, 0
3, 90615, Note_on_c, 1, 38, 80
3, 90628, Note_on_c, 1, 38, 0
3, 90630, Note_on_c, 1, 39, 76
3, 90642, Note_on_c, 1, 39, 0
3, 90645, Note_on_c, 1, 38, 85
3, 90651, Note_on_c, 1, 52, 0
3, 90658, Note_on_c, 1, 38, 0
3, 90660, Note_on_c, 1, 50, 89
3, 90660, Note_on_c, 1, 36, 93
3, 90690, Note_on_c, 1, 36, 0
3, 90690, Note_on_c, 1, 38, 89
3, 90709, Note_on_c, 1, 38, 0
3, 90719, Note_on_c, 1, 50, 0
3, 90720, Note_on_c, 1, 55, 93
3, 90720, Note_on_c, 1, 40, 89
3, 90733, Note_on_c, 1, 55, 0
3, 90739, Note_on_c, 1, 40, 0
3, 90780, Note_on_c, 1, 55, 76
3, 90780, Note_on_c, 1, 40, 89
3, 90839, Note_on_c, 1, 40, 0
3, 90840, Note_on_c, 1, 53, 85
3, 90840, Note_on_c, 1, 38, 93
3, 90842, Note_on_c, 1, 55, 0
3, 90895, Note_on_c, 1, 53, 0
3, 90896, Note_on_c, 1, 38, 0
3, 90900, Note_on_c, 1, 52, 89
3, 90900, Note_on_c, 1, 36, 80
3, 90956, Note_on_c, 1, 36, 0
3, 90958, Note_on_c, 1, 52, 0
3, 90960, Note_on_c, 1, 56, 89
3, 90960, Note_on_c, 1, 41, 89
3, 90972, Note_on_c, 1, 56, 0
3, 90976, Note_on_c, 1, 41, 0
3, 91020, Note_on_c, 1, 56, 98
3, 91020, Note_on_c, 1, 41, 89
3, 91078, Note_on_c, 1, 56, 0
3, 91080, Note_on_c, 1, 41, 0
3, 91080, Note_on_c, 1, 55, 89
3, 91080, Note_on_c, 1, 40, 89
3, 91136, Note_on_c, 1, 55, 0
3, 91138, Note_on_c, 1, 40, 0
3, 91140, Note_on_c, 1, 53, 89
3, 91140, Note_on_c, 1, 38, 89
3, 91194, Note_on_c, 1, 38, 0
3, 91197, Note_on_c, 1, 53, 0
3, 91200, Note_on_c, 1, 58, 85
3, 91200, Note_on_c, 1, 43, 93
3, 91255, Note_on_c, 1, 43, 0
3, 91260, Note_on_c, 1, 40, 80
3, 91313, Note_on_c, 1, 58, 0
3, 91320, Note_on_c, 1, 56, 89
3, 91320, Note_on_c, 1, 44, 89
3, 91322, Note_on_c, 1, 40, 0
3, 91376, Note_on_c, 1, 44, 0
3, 91380, Note_on_c, 1, 41, 85
3, 91412, Note_on_c, 1, 56, 0
3, 91440, Note_on_c, 1, 56, 93
3, 91440, Note_on_c, 1, 46, 72
3, 91443, Note_on_c, 1, 41, 0
3, 91454, Note_on_c, 1, 56, 0
3, 91455, Note_on_c, 1, 55, 76
3, 91468, Note_on_c, 1, 55, 0
3, 91470, Note_on_c, 1, 56, 72
3, 91484, Note_on_c, 1, 56, 0
3, 91485, Note_on_c, 1, 55, 72
3, 91491, Note_on_c, 1, 46, 0
3, 91496, Note_on_c, 1, 55, 0
3, 91500, Note_on_c, 1, 56, 80
3, 91500, Note_on_c, 1, 43, 89
3, 91515, Note_on_c, 1, 56, 0
3, 91515, Note_on_c, 1, 55, 64
3, 91530, Note_on_c, 1, 56, 76
3, 91531, Note_on_c, 1, 55, 0
3, 91544, Note_on_c, 1, 56, 0
3, 91545, Note_on_c, 1, 55, 68
3, 91557, Note_on_c, 1, 43, 0
3, 91558, Note_on_c, 1, 55, 0
3, 91560, Note_on_c, 1, 56, 76
3, 91560, Note_on_c, 1, 48, 93
3, 91573, Note_on_c, 1, 56, 0
3, 91575, Note_on_c, 1, 55, 85
3, 91588, Note_on_c, 1, 55, 0
3, 91590, Note_on_c, 1, 56, 89
3, 91603, Note_on_c, 1, 56, 0
3, 91605, Note_on_c, 1, 55, 80
3, 91615, Note_on_c, 1, 48, 0
3, 91617, Note_on_c, 1, 55, 0
3, 91620, Note_on_c, 1, 53, 85
3, 91620, Note_on_c, 1, 36, 85
3, 91649, Note_on_c, 1, 53, 0
3, 91650, Note_on_c, 1, 55, 72
3, 91676, Note_on_c, 1, 36, 0
3, 91680, Note_on_c, 1, 55, 0
3, 91680, Note_on_c, 1, 53, 93
3, 91680, Note_on_c, 1, 41, 93
3, 91785, Note_on_c, 1, 41, 0
3, 91788, Note_on_c, 1, 53, 0
3, 92040, Note_on_c, 1, 55, 89
3, 92040, Note_on_c, 1, 58, 85
3, 92040, Note_on_c, 1, 36, 98
3, 92040, Note_on_c, 1, 48, 107
3, 92145, Note_on_c, 1, 48, 0
3, 92146, Note_on_c, 1, 36, 0
3, 92155, Note_on_c, 1, 58, 0
3, 92155, Note_on_c, 1, 55, 0
3, 92160, Note_on_c, 1, 56, 76
3, 92160, Note_on_c, 1, 53, 80
3, 92160, Note_on_c, 1, 48, 93
3, 92160, Note_on_c, 1, 41, 89
3, 92242, Note_on_c, 1, 41, 0
3, 92246, Note_on_c, 1, 48, 0
3, 92274, Note_on_c, 1, 53, 0
3, 92284, Note_on_c, 1, 56, 0
3, 92520, Note_on_c, 1, 55, 93
3, 92520, Note_on_c, 1, 58, 89
3, 92520, Note_on_c, 1, 36, 93
3, 92520, Note_on_c, 1, 48, 93
3, 92613, Note_on_c, 1, 48, 0
3, 92615, Note_on_c, 1, 36, 0
3, 92629, Note_on_c, 1, 58, 0
3, 92630, Note_on_c, 1, 55, 0
3, 92640, Note_on_c, 1, 56, 76
3, 92640, Note_on_c, 1, 53, 89
3, 92640, Note_on_c, 1, 48, 89
3, 92640, Note_on_c, 1, 41, 89
3, 92654, Note_on_c, 1, 41, 0
3, 92657, Note_on_c, 1, 48, 0
3, 92670, Note_on_c, 1, 41, 85
3, 92699, Note_on_c, 1, 41, 0
3, 92700, Note_on_c, 1, 40, 76
3, 92729, Note_on_c, 1, 40, 0
3, 92730, Note_on_c, 1, 41, 85
3, 92756, Note_on_c, 1, 53, 0
3, 92760, Note_on_c, 1, 41, 0
3, 92760, Note_on_c, 1, 56, 0
3, 92760, Note_on_c, 1, 40, 76
3, 92789, Note_on_c, 1, 40, 0
3, 92790, Note_on_c, 1, 41, 80
3, 92820, Note_on_c, 1, 41, 0
3, 92820, Note_on_c, 1, 40, 68
3, 92849, Note_on_c, 1, 40, 0
3, 92850, Note_on_c, 1, 41, 85
3, 92880, Note_on_c, 1, 41, 0
3, 92880, Note_on_c, 1, 42, 72
3, 92909, Note_on_c, 1, 42, 0
3, 92910, Note_on_c, 1, 41, 68
3, 92939, Note_on_c, 1, 41, 0
3, 92940, Note_on_c, 1, 43, 93
3, 92970, Note_on_c, 1, 43, 0
3, 92970, Note_on_c, 1, 41, 72
3, 92999, Note_on_c, 1, 41, 0
3, 93000, Note_on_c, 1, 53, 93
3, 93000, Note_on_c, 1, 60, 93
3, 93000, Note_on_c, 1, 44, 85
3, 93029, Note_on_c, 1, 44, 0
3, 93030, Note_on_c, 1, 41, 80
3, 93057, Note_on_c, 1, 41, 0
3, 93060, Note_on_c, 1, 45, 85
3, 93088, Note_on_c, 1, 45, 0
3, 93090, Note_on_c, 1, 41, 72
3, 93105, Note_on_c, 1, 60, 0
3, 93105, Note_on_c, 1, 53, 0
3, 93113, Note_on_c, 1, 41, 0
3, 93120, Note_on_c, 1, 53, 89
3, 93120, Note_on_c, 1, 61, 89
3, 93120, Note_on_c, 1, 46, 93
3, 93168, Note_on_c, 1, 61, 0
3, 93170, Note_on_c, 1, 53, 0
3, 93176, Note_on_c, 1, 46, 0
3, 93240, Note_on_c, 1, 58, 76
3, 93240, Note_on_c, 1, 55, 93
3, 93240, Note_on_c, 1, 46, 98
3, 93284, Note_on_c, 1, 55, 0
3, 93287, Note_on_c, 1, 58, 0
3, 93299, Note_on_c, 1, 46, 0
3, 93360, Note_on_c, 1, 56, 80
3, 93360, Note_on_c, 1, 53, 93
3, 93360, Note_on_c, 1, 48, 89
3, 93409, Note_on_c, 1, 53, 0
3, 93410, Note_on_c, 1, 56, 0
3, 93418, Note_on_c, 1, 48, 0
3, 93480, Note_on_c, 1, 52, 89
3, 93480, Note_on_c, 1, 55, 93
3, 93480, Note_on_c, 1, 36, 107
3, 93533, Note_on_c, 1, 55, 0
3, 93533, Note_on_c, 1, 52, 0
3, 93555, Note_on_c, 1, 36, 0
3, 93600, Note_on_c, 1, 53, 93
3, 93600, Note_on_c, 1, 41, 102
3, 93684, Note_on_c, 1, 41, 0
3, 93716, Note_on_c, 1, 53, 0
3, 93960, Note_on_c, 1, 60, 85
3, 93960, Note_on_c, 1, 36, 93
3, 93960, Note_on_c, 1, 48, 102
3, 94017, Note_on_c, 1, 60, 0
3, 94020, Note_on_c, 1, 58, 85
3, 94060, Note_on_c, 1, 48, 0
3, 94060, Note_on_c, 1, 36, 0
3, 94080, Note_on_c, 1, 56, 85
3, 94080, Note_on_c, 1, 48, 89
3, 94080, Note_on_c, 1, 41, 85
3, 94083, Note_on_c, 1, 58, 0
3, 94148, Note_on_c, 1, 41, 0
3, 94149, Note_on_c, 1, 48, 0
3, 94196, Note_on_c, 1, 56, 0
3, 94440, Note_on_c, 1, 60, 85
3, 94440, Note_on_c, 1, 36, 89
3, 94440, Note_on_c, 1, 48, 89
3, 94496, Note_on_c, 1, 60, 0
3, 94500, Note_on_c, 1, 58, 89
3, 94541, Note_on_c, 1, 48, 0
3, 94541, Note_on_c, 1, 36, 0
3, 94553, Note_on_c, 1, 58, 0
3, 94560, Note_on_c, 1, 56, 89
3, 94560, Note_on_c, 1, 48, 85
3, 94560, Note_on_c, 1, 41, 93
3, 94572, Note_on_c, 1, 56, 0
3, 94590, Note_on_c, 1, 53, 89
3, 94620, Note_on_c, 1, 54, 72
3, 94621, Note_on_c, 1, 53, 0
3, 94649, Note_on_c, 1, 54, 0
3, 94650, Note_on_c, 1, 53, 76
3, 94671, Note_on_c, 1, 41, 0
3, 94673, Note_on_c, 1, 48, 0
3, 94679, Note_on_c, 1, 53, 0
3, 94680, Note_on_c, 1, 54, 76
3, 94709, Note_on_c, 1, 54, 0
3, 94710, Note_on_c, 1, 53, 68
3, 94739, Note_on_c, 1, 53, 0
3, 94740, Note_on_c, 1, 54, 76
3, 94740, Note_on_c, 1, 49, 85
3, 94769, Note_on_c, 1, 54, 0
3, 94770, Note_on_c, 1, 53, 80
3, 94795, Note_on_c, 1, 53, 0
3, 94800, Note_on_c, 1, 49, 0
3, 94800, Note_on_c, 1, 52, 76
3, 94800, Note_on_c, 1, 48, 80
3, 94829, Note_on_c, 1, 52, 0
3, 94830, Note_on_c, 1, 53, 76
3, 94860, Note_on_c, 1, 51, 85
3, 94861, Note_on_c, 1, 53, 0
3, 94887, Note_on_c, 1, 51, 0
3, 94890, Note_on_c, 1, 53, 72
3, 94915, Note_on_c, 1, 48, 0
3, 94920, Note_on_c, 1, 49, 80
3, 94920, Note_on_c, 1, 46, 89
3, 94925, Note_on_c, 1, 53, 0
3, 94949, Note_on_c, 1, 49, 0
3, 94950, Note_on_c, 1, 53, 72
3, 94978, Note_on_c, 1, 53, 0
3, 94980, Note_on_c, 1, 48, 80
3, 94980, Note_on_c, 1, 45, 93
3, 94981, Note_on_c, 1, 46, 0
3, 95009, Note_on_c, 1, 48, 0
3, 95010, Note_on_c, 1, 53, 76
3, 95027, Note_on_c, 1, 53, 0
3, 95040, Note_on_c, 1, 53, 93
3, 95040, Note_on_c, 1, 46, 89
3, 95042, Note_on_c, 1, 45, 0
3, 95092, Note_on_c, 1, 46, 0
3, 95111, Note_on_c, 1, 53, 0
3, 95160, Note_on_c, 1, 58, 85
3, 95160, Note_on_c, 1, 55, 89
3, 95160, Note_on_c, 1, 46, 93
3, 95223, Note_on_c, 1, 55, 0
3, 95223, Note_on_c, 1, 58, 0
3, 95224, Note_on_c, 1, 46, 0
3, 95280, Note_on_c, 1, 56, 80
3, 95280, Note_on_c, 1, 53, 93
3, 95280, Note_on_c, 1, 48, 93
3, 95331, Note_on_c, 1, 56, 0
3, 95334, Note_on_c, 1, 53, 0
3, 95346, Note_on_c, 1, 48, 0
3, 95400, Note_on_c, 1, 52, 85
3, 95400, Note_on_c, 1, 55, 93
3, 95400, Note_on_c, 1, 36, 89
3, 95459, Note_on_c, 1, 36, 0
3, 95461, Note_on_c, 1, 55, 0
3, 95462, Note_on_c, 1, 52, 0
3, 95940, Note_on_c, 1, 45, 93
3, 95969, Note_on_c, 1, 45, 0
3, 95970, Note_on_c, 1, 48, 85
3, 95998, Note_on_c, 1, 48, 0
3, 96000, Note_on_c, 1, 46, 72
3, 96030, Note_on_c, 1, 49, 80
3, 96031, Note_on_c, 1, 46, 0
3, 96060, Note_on_c, 1, 49, 0
3, 96060, Note_on_c, 1, 42, 62
3, 96087, Note_on_c, 1, 42, 0
3, 96090, Note_on_c, 1, 45, 93
3, 96120, Note_on_c, 1, 45, 0
3, 96120, Note_on_c, 1, 43, 80
3, 96147, Note_on_c, 1, 43, 0
3, 96150, Note_on_c, 1, 46, 80
3, 96180, Note_on_c, 1, 46, 0
3, 96180, Note_on_c, 1, 40, 85
3, 96206, Note_on_c, 1, 40, 0
3, 96210, Note_on_c, 1, 43, 85
3, 96240, Note_on_c, 1, 41, 85
3, 96241, Note_on_c, 1, 43, 0
3, 96290, Note_on_c, 1, 41, 0
3, 96300, Note_on_c, 1, 56, 107
3, 96300, Note_on_c, 1, 49, 89
3, 96357, Note_on_c, 1, 56, 0
3, 96360, Note_on_c, 1, 55, 93
3, 96360, Note_on_c, 1, 46, 89
3, 96366, Note_on_c, 1, 49, 0
3, 96415, Note_on_c, 1, 46, 0
3, 96416, Note_on_c, 1, 55, 0
3, 96420, Note_on_c, 1, 58, 80
3, 96420, Note_on_c, 1, 48, 93
3, 96465, Note_on_c, 1, 48, 0
3, 96475, Note_on_c, 1, 58, 0
3, 96480, Note_on_c, 1, 56, 85
3, 96480, Note_on_c, 1, 53, 89
3, 96480, Note_on_c, 1, 41, 93
3, 96480, Note_on_c, 1, 48, 93
3, 96533, Note_on_c, 1, 53, 0
3, 96534, Note_on_c, 1, 56, 0
3, 96534, Note_on_c, 1, 48, 0
3, 96536, Note_on_c, 1, 41, 0
3, 96600, Note_on_c, 1, 55, 93
3, 96600, Note_on_c, 1, 36, 93
3, 96600, Note_on_c, 1, 48, 93
3, 96670, Note_on_c, 1, 48, 0
3, 96671, Note_on_c, 1, 36, 0
3, 96709, Note_on_c, 1, 55, 0
3, 96720, Note_on_c, 1, 53, 80
3, 96720, Note_on_c, 1, 48, 89
3, 96720, Note_on_c, 1, 41, 98
3, 96765, Note_on_c, 1, 53, 0
3, 96771, Note_on_c, 1, 48, 0
3, 96773, Note_on_c, 1, 41, 0
3, 96840, Note_on_c, 1, 55, 93
3, 96840, Note_on_c, 1, 36, 93
3, 96840, Note_on_c, 1, 48, 102
3, 96946, Note_on_c, 1, 36, 0
3, 96947, Note_on_c, 1, 48, 0
3, 96957, Note_on_c, 1, 55, 0
3, 96960, Note_on_c, 1, 53, 93
3, 96960, Note_on_c, 1, 41, 93
3, 96960, Note_on_c, 1, 48, 80
3, 97004, Note_on_c, 1, 48, 0
3, 97006, Note_on_c, 1, 41, 0
3, 97068, Note_on_c, 1, 53, 0
3, 97080, Note_on_c, 1, 48, 98
3, 97080, Note_on_c, 1, 41, 107
3, 97080, Note_on_c, 1, 44, 98
3, 97140, Note_on_c, 1, 48, 0
3, 97142, Note_on_c, 1, 41, 0
3, 97143, Note_on_c, 1, 44, 0
3, 97200, Note_on_c, 1, 48, 107
3, 97200, Note_on_c, 1, 44, 93
3, 97200, Note_on_c, 1, 41, 102
3, 97255, Note_on_c, 1, 48, 0
3, 97256, Note_on_c, 1, 41, 0
3, 97258, Note_on_c, 1, 44, 0
3, 97440, Control_c, 1, 121, 0
3, 97440, End_track
4, 0, Start_track
4, 0, MIDI_port, 0
4, 0, End_track
5, 0, Start_track
5, 0, MIDI_port, 0
5, 0, Title_t, "Title: Ein Orgel-St\374ck F\374r Ein Uhr in Abmaj (K. 608, 1791)"
5, 0, End_track
6, 0, Start_track
6, 0, MIDI_port, 0
6, 0, Title_t, "Composer: W. A. Mozart"
6, 0, End_track
7, 0, Start_track
7, 0, MIDI_port, 0
7, 0, Title_t, "Sequence: Faren Raborn"
7, 0, End_track
8, 0, Start_track
8, 0, MIDI_port, 0
8, 0, Title_t, "Email: raborn@dtx.net"
8, 0, End_track
0, 0, End_of_file