0, 0, Header, 1, 18, 120
1, 0, Start_track
1, 0, Title_t, "Little Song in Ab"
1, 0, Title_t, "The Chelsea Notebook"
1, 0, Text_t, "Composed by Wolfgang Amadeus Mozart (1756-1791)\012"
1, 0, Text_t, "Programmed for MIDI by Lory Werths\012"
1, 0, Text_t, "Composed in 1764 at the age of 8.\012"
1, 0, Time_signature, 3, 2, 24, 8
1, 0, Key_signature, -4, "major"
1, 0, Tempo, 666667
1, 360, Tempo, 666667
1, 2880, Tempo, 666667
1, 3240, Tempo, 666667
1, 10800, Tempo, 666667
1, 10830, Tempo, 674157
1, 10860, Tempo, 681818
1, 10890, Tempo, 689655
1, 10920, Tempo, 697674
1, 10950, Tempo, 705882
1, 10980, Tempo, 714286
1, 11010, Tempo, 722892
1, 11040, Tempo, 731707
1, 11070, Tempo, 740741
1, 11100, Tempo, 750000
1, 11130, Tempo, 759494
1, 11160, Tempo, 769231
1, 11190, Tempo, 779221
1, 11220, Tempo, 789474
1, 11250, Tempo, 800000
1, 11280, Tempo, 810811
1, 11310, Tempo, 821918
1, 11340, Tempo, 833333
1, 11370, Tempo, 845070
1, 11400, Tempo, 857143
1, 11400, End_track
2, 0, Start_track
2, 0, Control_c, 0, 0, 0
2, 0, Program_c, 0, 0
2, 0, Control_c, 0, 7, 105
2, 0, Control_c, 0, 10, 32
2, 0, Note_on_c, 0, 75, 100
2, 119, Note_on_c, 0, 75, 0
2, 120, Note_on_c, 0, 72, 100
2, 239, Note_on_c, 0, 72, 0
2, 240, Note_on_c, 0, 73, 100
2, 329, Note_on_c, 0, 73, 0
2, 330, Note_on_c, 0, 77, 100
2, 359, Note_on_c, 0, 77, 0
2, 360, Note_on_c, 0, 75, 100
2, 479, Note_on_c, 0, 75, 0
2, 480, Note_on_c, 0, 72, 100
2, 599, Note_on_c, 0, 72, 0
2, 600, Note_on_c, 0, 73, 100
2, 689, Note_on_c, 0, 73, 0
2, 690, Note_on_c, 0, 77, 100
2, 719, Note_on_c, 0, 77, 0
2, 720, Note_on_c, 0, 75, 100
2, 839, Note_on_c, 0, 75, 0
2, 840, Note_on_c, 0, 73, 100
2, 959, Note_on_c, 0, 73, 0
2, 960, Note_on_c, 0, 72, 100
2, 1049, Note_on_c, 0, 72, 0
2, 1050, Note_on_c, 0, 73, 100
2, 1079, Note_on_c, 0, 73, 0
2, 1080, Note_on_c, 0, 72, 100
2, 1199, Note_on_c, 0, 72, 0
2, 1200, Note_on_c, 0, 70, 100
2, 1439, Note_on_c, 0, 70, 0
2, 1440, Note_on_c, 0, 79, 100
2, 1559, Note_on_c, 0, 79, 0
2, 1560, Note_on_c, 0, 75, 100
2, 1679, Note_on_c, 0, 75, 0
2, 1680, Note_on_c, 0, 80, 100
2, 1769, Note_on_c, 0, 80, 0
2, 1770, Note_on_c, 0, 77, 100
2, 1799, Note_on_c, 0, 77, 0
2, 1800, Note_on_c, 0, 82, 100
2, 1919, Note_on_c, 0, 82, 0
2, 1920, Note_on_c, 0, 75, 100
2, 2039, Note_on_c, 0, 75, 0
2, 2040, Note_on_c, 0, 80, 100
2, 2129, Note_on_c, 0, 80, 0
2, 2130, Note_on_c, 0, 77, 100
2, 2159, Note_on_c, 0, 77, 0
2, 2160, Note_on_c, 0, 82, 100
2, 2219, Note_on_c, 0, 82, 0
2, 2220, Note_on_c, 0, 79, 100
2, 2279, Note_on_c, 0, 79, 0
2, 2280, Note_on_c, 0, 75, 100
2, 2399, Note_on_c, 0, 75, 0
2, 2400, Note_on_c, 0, 74, 100
2, 2415, Note_on_c, 0, 74, 0
2, 2415, Note_on_c, 0, 75, 100
2, 2430, Note_on_c, 0, 75, 0
2, 2430, Note_on_c, 0, 74, 100
2, 2445, Note_on_c, 0, 74, 0
2, 2445, Note_on_c, 0, 75, 100
2, 2460, Note_on_c, 0, 75, 0
2, 2460, Note_on_c, 0, 74, 100
2, 2475, Note_on_c, 0, 74, 0
2, 2475, Note_on_c, 0, 75, 100
2, 2490, Note_on_c, 0, 75, 0
2, 2490, Note_on_c, 0, 74, 100
2, 2519, Note_on_c, 0, 74, 0
2, 2520, Note_on_c, 0, 75, 100
2, 2879, Note_on_c, 0, 75, 0
2, 2880, Note_on_c, 0, 75, 100
2, 2999, Note_on_c, 0, 75, 0
2, 3000, Note_on_c, 0, 72, 100
2, 3119, Note_on_c, 0, 72, 0
2, 3120, Note_on_c, 0, 73, 100
2, 3209, Note_on_c, 0, 73, 0
2, 3210, Note_on_c, 0, 77, 100
2, 3239, Note_on_c, 0, 77, 0
2, 3240, Note_on_c, 0, 75, 100
2, 3359, Note_on_c, 0, 75, 0
2, 3360, Note_on_c, 0, 72, 100
2, 3479, Note_on_c, 0, 72, 0
2, 3480, Note_on_c, 0, 73, 100
2, 3569, Note_on_c, 0, 73, 0
2, 3570, Note_on_c, 0, 77, 100
2, 3599, Note_on_c, 0, 77, 0
2, 3600, Note_on_c, 0, 75, 100
2, 3719, Note_on_c, 0, 75, 0
2, 3720, Note_on_c, 0, 73, 100
2, 3839, Note_on_c, 0, 73, 0
2, 3840, Note_on_c, 0, 72, 100
2, 3929, Note_on_c, 0, 72, 0
2, 3930, Note_on_c, 0, 73, 100
2, 3959, Note_on_c, 0, 73, 0
2, 3960, Note_on_c, 0, 72, 100
2, 4079, Note_on_c, 0, 72, 0
2, 4080, Note_on_c, 0, 70, 100
2, 4319, Note_on_c, 0, 70, 0
2, 4320, Note_on_c, 0, 79, 100
2, 4439, Note_on_c, 0, 79, 0
2, 4440, Note_on_c, 0, 75, 100
2, 4559, Note_on_c, 0, 75, 0
2, 4560, Note_on_c, 0, 80, 100
2, 4649, Note_on_c, 0, 80, 0
2, 4650, Note_on_c, 0, 77, 100
2, 4679, Note_on_c, 0, 77, 0
2, 4680, Note_on_c, 0, 82, 100
2, 4799, Note_on_c, 0, 82, 0
2, 4800, Note_on_c, 0, 75, 100
2, 4919, Note_on_c, 0, 75, 0
2, 4920, Note_on_c, 0, 80, 100
2, 5009, Note_on_c, 0, 80, 0
2, 5010, Note_on_c, 0, 77, 100
2, 5039, Note_on_c, 0, 77, 0
2, 5040, Note_on_c, 0, 82, 100
2, 5099, Note_on_c, 0, 82, 0
2, 5100, Note_on_c, 0, 79, 100
2, 5159, Note_on_c, 0, 79, 0
2, 5160, Note_on_c, 0, 75, 100
2, 5279, Note_on_c, 0, 75, 0
2, 5280, Note_on_c, 0, 74, 100
2, 5295, Note_on_c, 0, 74, 0
2, 5295, Note_on_c, 0, 75, 100
2, 5310, Note_on_c, 0, 75, 0
2, 5310, Note_on_c, 0, 74, 100
2, 5325, Note_on_c, 0, 74, 0
2, 5325, Note_on_c, 0, 75, 100
2, 5340, Note_on_c, 0, 75, 0
2, 5340, Note_on_c, 0, 74, 100
2, 5355, Note_on_c, 0, 74, 0
2, 5355, Note_on_c, 0, 75, 100
2, 5370, Note_on_c, 0, 75, 0
2, 5370, Note_on_c, 0, 74, 100
2, 5399, Note_on_c, 0, 74, 0
2, 5400, Note_on_c, 0, 75, 100
2, 5759, Note_on_c, 0, 75, 0
2, 5760, Note_on_c, 0, 77, 100
2, 5760, Note_on_c, 0, 69, 100
2, 5819, Note_on_c, 0, 77, 0
2, 5820, Note_on_c, 0, 78, 100
2, 5879, Note_on_c, 0, 78, 0
2, 5879, Note_on_c, 0, 69, 0
2, 5880, Note_on_c, 0, 77, 100
2, 5939, Note_on_c, 0, 77, 0
2, 5940, Note_on_c, 0, 75, 100
2, 5999, Note_on_c, 0, 75, 0
2, 6000, Note_on_c, 0, 73, 100
2, 6059, Note_on_c, 0, 73, 0
2, 6060, Note_on_c, 0, 72, 100
2, 6119, Note_on_c, 0, 72, 0
2, 6120, Note_on_c, 0, 73, 100
2, 6120, Note_on_c, 0, 70, 100
2, 6479, Note_on_c, 0, 70, 0
2, 6479, Note_on_c, 0, 73, 0
2, 6480, Note_on_c, 0, 73, 100
2, 6480, Note_on_c, 0, 70, 100
2, 6599, Note_on_c, 0, 70, 0
2, 6599, Note_on_c, 0, 73, 0
2, 6600, Note_on_c, 0, 72, 100
2, 6600, Note_on_c, 0, 68, 100
2, 6719, Note_on_c, 0, 68, 0
2, 6719, Note_on_c, 0, 72, 0
2, 6720, Note_on_c, 0, 80, 100
2, 6720, Note_on_c, 0, 72, 100
2, 6809, Note_on_c, 0, 72, 0
2, 6809, Note_on_c, 0, 80, 0
2, 6810, Note_on_c, 0, 72, 100
2, 6810, Note_on_c, 0, 68, 100
2, 6839, Note_on_c, 0, 68, 0
2, 6839, Note_on_c, 0, 72, 0
2, 6840, Note_on_c, 0, 72, 100
2, 6840, Note_on_c, 0, 68, 100
2, 6959, Note_on_c, 0, 68, 0
2, 6959, Note_on_c, 0, 72, 0
2, 6960, Note_on_c, 0, 70, 100
2, 6960, Note_on_c, 0, 67, 100
2, 7079, Note_on_c, 0, 67, 0
2, 7079, Note_on_c, 0, 70, 0
2, 7200, Note_on_c, 0, 72, 100
2, 7319, Note_on_c, 0, 72, 0
2, 7320, Note_on_c, 0, 68, 100
2, 7439, Note_on_c, 0, 68, 0
2, 7440, Note_on_c, 0, 73, 100
2, 7529, Note_on_c, 0, 73, 0
2, 7530, Note_on_c, 0, 70, 100
2, 7559, Note_on_c, 0, 70, 0
2, 7560, Note_on_c, 0, 75, 100
2, 7679, Note_on_c, 0, 75, 0
2, 7680, Note_on_c, 0, 68, 100
2, 7799, Note_on_c, 0, 68, 0
2, 7800, Note_on_c, 0, 73, 100
2, 7889, Note_on_c, 0, 73, 0
2, 7890, Note_on_c, 0, 70, 100
2, 7919, Note_on_c, 0, 70, 0
2, 7920, Note_on_c, 0, 75, 100
2, 7979, Note_on_c, 0, 75, 0
2, 7980, Note_on_c, 0, 72, 100
2, 8039, Note_on_c, 0, 72, 0
2, 8040, Note_on_c, 0, 68, 100
2, 8159, Note_on_c, 0, 68, 0
2, 8160, Note_on_c, 0, 67, 100
2, 8175, Note_on_c, 0, 67, 0
2, 8175, Note_on_c, 0, 68, 100
2, 8190, Note_on_c, 0, 68, 0
2, 8190, Note_on_c, 0, 67, 100
2, 8205, Note_on_c, 0, 67, 0
2, 8205, Note_on_c, 0, 68, 100
2, 8220, Note_on_c, 0, 68, 0
2, 8220, Note_on_c, 0, 67, 100
2, 8235, Note_on_c, 0, 67, 0
2, 8235, Note_on_c, 0, 68, 100
2, 8250, Note_on_c, 0, 68, 0
2, 8250, Note_on_c, 0, 67, 100
2, 8279, Note_on_c, 0, 67, 0
2, 8280, Note_on_c, 0, 68, 100
2, 8639, Note_on_c, 0, 68, 0
2, 8640, Note_on_c, 0, 77, 100
2, 8640, Note_on_c, 0, 69, 100
2, 8699, Note_on_c, 0, 77, 0
2, 8700, Note_on_c, 0, 78, 100
2, 8759, Note_on_c, 0, 78, 0
2, 8759, Note_on_c, 0, 69, 0
2, 8760, Note_on_c, 0, 77, 100
2, 8819, Note_on_c, 0, 77, 0
2, 8820, Note_on_c, 0, 75, 100
2, 8879, Note_on_c, 0, 75, 0
2, 8880, Note_on_c, 0, 73, 100
2, 8939, Note_on_c, 0, 73, 0
2, 8940, Note_on_c, 0, 72, 100
2, 8999, Note_on_c, 0, 72, 0
2, 9000, Note_on_c, 0, 73, 100
2, 9000, Note_on_c, 0, 70, 100
2, 9359, Note_on_c, 0, 70, 0
2, 9359, Note_on_c, 0, 73, 0
2, 9360, Note_on_c, 0, 73, 100
2, 9360, Note_on_c, 0, 70, 100
2, 9479, Note_on_c, 0, 70, 0
2, 9479, Note_on_c, 0, 73, 0
2, 9480, Note_on_c, 0, 72, 100
2, 9480, Note_on_c, 0, 68, 100
2, 9599, Note_on_c, 0, 68, 0
2, 9599, Note_on_c, 0, 72, 0
2, 9600, Note_on_c, 0, 80, 100
2, 9600, Note_on_c, 0, 72, 100
2, 9689, Note_on_c, 0, 72, 0
2, 9689, Note_on_c, 0, 80, 0
2, 9690, Note_on_c, 0, 72, 100
2, 9690, Note_on_c, 0, 68, 100
2, 9719, Note_on_c, 0, 68, 0
2, 9719, Note_on_c, 0, 72, 0
2, 9720, Note_on_c, 0, 72, 100
2, 9720, Note_on_c, 0, 68, 100
2, 9839, Note_on_c, 0, 68, 0
2, 9839, Note_on_c, 0, 72, 0
2, 9840, Note_on_c, 0, 70, 100
2, 9840, Note_on_c, 0, 67, 100
2, 9959, Note_on_c, 0, 67, 0
2, 9959, Note_on_c, 0, 70, 0
2, 10080, Note_on_c, 0, 72, 100
2, 10199, Note_on_c, 0, 72, 0
2, 10200, Note_on_c, 0, 68, 100
2, 10319, Note_on_c, 0, 68, 0
2, 10320, Note_on_c, 0, 73, 100
2, 10409, Note_on_c, 0, 73, 0
2, 10410, Note_on_c, 0, 70, 100
2, 10439, Note_on_c, 0, 70, 0
2, 10440, Note_on_c, 0, 75, 100
2, 10559, Note_on_c, 0, 75, 0
2, 10560, Note_on_c, 0, 68, 100
2, 10679, Note_on_c, 0, 68, 0
2, 10680, Note_on_c, 0, 73, 100
2, 10769, Note_on_c, 0, 73, 0
2, 10770, Note_on_c, 0, 70, 100
2, 10799, Note_on_c, 0, 70, 0
2, 10800, Note_on_c, 0, 75, 100
2, 10859, Note_on_c, 0, 75, 0
2, 10860, Note_on_c, 0, 72, 100
2, 10919, Note_on_c, 0, 72, 0
2, 10920, Note_on_c, 0, 68, 100
2, 11039, Note_on_c, 0, 68, 0
2, 11040, Note_on_c, 0, 67, 100
2, 11055, Note_on_c, 0, 67, 0
2, 11055, Note_on_c, 0, 68, 100
2, 11070, Note_on_c, 0, 68, 0
2, 11070, Note_on_c, 0, 67, 100
2, 11085, Note_on_c, 0, 67, 0
2, 11085, Note_on_c, 0, 68, 100
2, 11100, Note_on_c, 0, 68, 0
2, 11100, Note_on_c, 0, 67, 100
2, 11115, Note_on_c, 0, 67, 0
2, 11115, Note_on_c, 0, 68, 100
2, 11130, Note_on_c, 0, 68, 0
2, 11130, Note_on_c, 0, 67, 100
2, 11159, Note_on_c, 0, 67, 0
2, 11160, Note_on_c, 0, 68, 100
2, 11519, Note_on_c, 0, 68, 0
2, 11519, End_track
3, 0, Start_track
3, 0, Control_c, 1, 0, 0
3, 0, Program_c, 1, 0
3, 0, Control_c, 1, 7, 100
3, 0, Control_c, 1, 10, 95
3, 0, Note_on_c, 1, 60, 100
3, 119, Note_on_c, 1, 60, 0
3, 120, Note_on_c, 1, 56, 100
3, 239, Note_on_c, 1, 56, 0
3, 240, Note_on_c, 1, 58, 100
3, 329, Note_on_c, 1, 58, 0
3, 330, Note_on_c, 1, 61, 100
3, 359, Note_on_c, 1, 61, 0
3, 360, Note_on_c, 1, 60, 100
3, 479, Note_on_c, 1, 60, 0
3, 480, Note_on_c, 1, 56, 100
3, 599, Note_on_c, 1, 56, 0
3, 600, Note_on_c, 1, 58, 100
3, 689, Note_on_c, 1, 58, 0
3, 690, Note_on_c, 1, 61, 100
3, 719, Note_on_c, 1, 61, 0
3, 720, Note_on_c, 1, 60, 100
3, 720, Note_on_c, 1, 51, 100
3, 839, Note_on_c, 1, 60, 0
3, 840, Note_on_c, 1, 58, 100
3, 959, Note_on_c, 1, 58, 0
3, 960, Note_on_c, 1, 56, 100
3, 1049, Note_on_c, 1, 56, 0
3, 1050, Note_on_c, 1, 58, 100
3, 1079, Note_on_c, 1, 58, 0
3, 1079, Note_on_c, 1, 51, 0
3, 1080, Note_on_c, 1, 56, 100
3, 1080, Note_on_c, 1, 51, 100
3, 1199, Note_on_c, 1, 56, 0
3, 1200, Note_on_c, 1, 55, 100
3, 1439, Note_on_c, 1, 55, 0
3, 1439, Note_on_c, 1, 51, 0
3, 1440, Note_on_c, 1, 51, 100
3, 1799, Note_on_c, 1, 51, 0
3, 1800, Note_on_c, 1, 51, 100
3, 2159, Note_on_c, 1, 51, 0
3, 2160, Note_on_c, 1, 51, 100
3, 2279, Note_on_c, 1, 51, 0
3, 2280, Note_on_c, 1, 58, 100
3, 2399, Note_on_c, 1, 58, 0
3, 2400, Note_on_c, 1, 46, 100
3, 2519, Note_on_c, 1, 46, 0
3, 2520, Note_on_c, 1, 51, 100
3, 2639, Note_on_c, 1, 51, 0
3, 2640, Note_on_c, 1, 46, 100
3, 2759, Note_on_c, 1, 46, 0
3, 2760, Note_on_c, 1, 39, 100
3, 2879, Note_on_c, 1, 39, 0
3, 2880, Note_on_c, 1, 60, 100
3, 2999, Note_on_c, 1, 60, 0
3, 3000, Note_on_c, 1, 56, 100
3, 3119, Note_on_c, 1, 56, 0
3, 3120, Note_on_c, 1, 58, 100
3, 3209, Note_on_c, 1, 58, 0
3, 3210, Note_on_c, 1, 61, 100
3, 3239, Note_on_c, 1, 61, 0
3, 3240, Note_on_c, 1, 60, 100
3, 3359, Note_on_c, 1, 60, 0
3, 3360, Note_on_c, 1, 56, 100
3, 3479, Note_on_c, 1, 56, 0
3, 3480, Note_on_c, 1, 58, 100
3, 3569, Note_on_c, 1, 58, 0
3, 3570, Note_on_c, 1, 61, 100
3, 3599, Note_on_c, 1, 61, 0
3, 3600, Note_on_c, 1, 60, 100
3, 3600, Note_on_c, 1, 51, 100
3, 3719, Note_on_c, 1, 60, 0
3, 3720, Note_on_c, 1, 58, 100
3, 3839, Note_on_c, 1, 58, 0
3, 3840, Note_on_c, 1, 56, 100
3, 3929, Note_on_c, 1, 56, 0
3, 3930, Note_on_c, 1, 58, 100
3, 3959, Note_on_c, 1, 58, 0
3, 3959, Note_on_c, 1, 51, 0
3, 3960, Note_on_c, 1, 56, 100
3, 3960, Note_on_c, 1, 51, 100
3, 4079, Note_on_c, 1, 56, 0
3, 4080, Note_on_c, 1, 55, 100
3, 4319, Note_on_c, 1, 55, 0
3, 4319, Note_on_c, 1, 51, 0
3, 4320, Note_on_c, 1, 51, 100
3, 4679, Note_on_c, 1, 51, 0
3, 4680, Note_on_c, 1, 51, 100
3, 5039, Note_on_c, 1, 51, 0
3, 5040, Note_on_c, 1, 51, 100
3, 5159, Note_on_c, 1, 51, 0
3, 5160, Note_on_c, 1, 58, 100
3, 5279, Note_on_c, 1, 58, 0
3, 5280, Note_on_c, 1, 46, 100
3, 5399, Note_on_c, 1, 46, 0
3, 5400, Note_on_c, 1, 51, 100
3, 5519, Note_on_c, 1, 51, 0
3, 5520, Note_on_c, 1, 46, 100
3, 5639, Note_on_c, 1, 46, 0
3, 5640, Note_on_c, 1, 39, 100
3, 5759, Note_on_c, 1, 39, 0
3, 5760, Note_on_c, 1, 53, 100
3, 6119, Note_on_c, 1, 53, 0
3, 6120, Note_on_c, 1, 58, 100
3, 6179, Note_on_c, 1, 58, 0
3, 6180, Note_on_c, 1, 60, 100
3, 6239, Note_on_c, 1, 60, 0
3, 6240, Note_on_c, 1, 58, 100
3, 6299, Note_on_c, 1, 58, 0
3, 6300, Note_on_c, 1, 56, 100
3, 6359, Note_on_c, 1, 56, 0
3, 6360, Note_on_c, 1, 55, 100
3, 6419, Note_on_c, 1, 55, 0
3, 6420, Note_on_c, 1, 53, 100
3, 6479, Note_on_c, 1, 53, 0
3, 6480, Note_on_c, 1, 51, 100
3, 6599, Note_on_c, 1, 51, 0
3, 6600, Note_on_c, 1, 56, 100
3, 6719, Note_on_c, 1, 56, 0
3, 6720, Note_on_c, 1, 50, 100
3, 6839, Note_on_c, 1, 50, 0
3, 6840, Note_on_c, 1, 51, 100
3, 6959, Note_on_c, 1, 51, 0
3, 6960, Note_on_c, 1, 51, 100
3, 7019, Note_on_c, 1, 51, 0
3, 7020, Note_on_c, 1, 49, 100
3, 7079, Note_on_c, 1, 49, 0
3, 7080, Note_on_c, 1, 48, 100
3, 7139, Note_on_c, 1, 48, 0
3, 7140, Note_on_c, 1, 46, 100
3, 7199, Note_on_c, 1, 46, 0
3, 7200, Note_on_c, 1, 44, 100
3, 7559, Note_on_c, 1, 44, 0
3, 7560, Note_on_c, 1, 56, 100
3, 7919, Note_on_c, 1, 56, 0
3, 7920, Note_on_c, 1, 56, 100
3, 8039, Note_on_c, 1, 56, 0
3, 8040, Note_on_c, 1, 60, 100
3, 8159, Note_on_c, 1, 60, 0
3, 8160, Note_on_c, 1, 51, 100
3, 8279, Note_on_c, 1, 51, 0
3, 8280, Note_on_c, 1, 56, 100
3, 8399, Note_on_c, 1, 56, 0
3, 8400, Note_on_c, 1, 51, 100
3, 8519, Note_on_c, 1, 51, 0
3, 8520, Note_on_c, 1, 44, 100
3, 8639, Note_on_c, 1, 44, 0
3, 8640, Note_on_c, 1, 53, 100
3, 8999, Note_on_c, 1, 53, 0
3, 9000, Note_on_c, 1, 58, 100
3, 9059, Note_on_c, 1, 58, 0
3, 9060, Note_on_c, 1, 60, 100
3, 9119, Note_on_c, 1, 60, 0
3, 9120, Note_on_c, 1, 58, 100
3, 9179, Note_on_c, 1, 58, 0
3, 9180, Note_on_c, 1, 56, 100
3, 9239, Note_on_c, 1, 56, 0
3, 9240, Note_on_c, 1, 55, 100
3, 9299, Note_on_c, 1, 55, 0
3, 9300, Note_on_c, 1, 53, 100
3, 9359, Note_on_c, 1, 53, 0
3, 9360, Note_on_c, 1, 51, 100
3, 9479, Note_on_c, 1, 51, 0
3, 9480, Note_on_c, 1, 56, 100
3, 9599, Note_on_c, 1, 56, 0
3, 9600, Note_on_c, 1, 50, 100
3, 9719, Note_on_c, 1, 50, 0
3, 9720, Note_on_c, 1, 51, 100
3, 9839, Note_on_c, 1, 51, 0
3, 9840, Note_on_c, 1, 51, 100
3, 9899, Note_on_c, 1, 51, 0
3, 9900, Note_on_c, 1, 49, 100
3, 9959, Note_on_c, 1, 49, 0
3, 9960, Note_on_c, 1, 48, 100
3, 10019, Note_on_c, 1, 48, 0
3, 10020, Note_on_c, 1, 46, 100
3, 10079, Note_on_c, 1, 46, 0
3, 10080, Note_on_c, 1, 44, 100
3, 10439, Note_on_c, 1, 44, 0
3, 10440, Note_on_c, 1, 56, 100
3, 10799, Note_on_c, 1, 56, 0
3, 10800, Note_on_c, 1, 56, 100
3, 10919, Note_on_c, 1, 56, 0
3, 10920, Note_on_c, 1, 60, 100
3, 11039, Note_on_c, 1, 60, 0
3, 11040, Note_on_c, 1, 51, 100
3, 11159, Note_on_c, 1, 51, 0
3, 11160, Note_on_c, 1, 56, 100
3, 11279, Note_on_c, 1, 56, 0
3, 11280, Note_on_c, 1, 51, 100
3, 11399, Note_on_c, 1, 51, 0
3, 11400, Note_on_c, 1, 44, 100
3, 11519, Note_on_c, 1, 44, 0
3, 11519, End_track
4, 0, Start_track
4, 0, End_track
5, 0, Start_track
5, 0, End_track
6, 0, Start_track
6, 0, End_track
7, 0, Start_track
7, 0, End_track
8, 0, Start_track
8, 0, End_track
9, 0, Start_track
9, 0, End_track
10, 0, Start_track
10, 0, End_track
11, 0, Start_track
11, 0, End_track
12, 0, Start_track
12, 0, End_track
13, 0, Start_track
13, 0, End_track
14, 0, Start_track
14, 0, End_track
15, 0, Start_track
15, 0, End_track
16, 0, Start_track
16, 0, End_track
17, 0, Start_track
17, 0, End_track
18, 0, Start_track
18, 0, End_track
0, 0, End_of_file