0, 0, Header, 1, 15, 240
1, 0, Start_track
1, 0, Title_t, "W. A. Mozart - Symphony No. 28 in C Major, K.200"
1, 0, Time_signature, 3, 2, 24, 8
1, 0, Key_signature, 0, "major"
1, 0, Tempo, 416667
1, 0, Marker_t, "Conductor Track"
1, 171360, Tempo, 416667
1, 171380, Tempo, 419580
1, 171400, Tempo, 422535
1, 171420, Tempo, 425532
1, 171440, Tempo, 428571
1, 171460, Tempo, 431655
1, 171480, Tempo, 434783
1, 171500, Tempo, 437956
1, 171520, Tempo, 441176
1, 171540, Tempo, 444444
1, 171560, Tempo, 447761
1, 171580, Tempo, 451128
1, 171600, Tempo, 454545
1, 171620, Tempo, 458015
1, 171640, Tempo, 461538
1, 171660, Tempo, 465116
1, 171680, Tempo, 468750
1, 171700, Tempo, 472441
1, 171720, Tempo, 476190
1, 171740, Tempo, 480000
1, 171760, Tempo, 483871
1, 171780, Tempo, 487805
1, 171800, Tempo, 491803
1, 171820, Tempo, 495868
1, 171840, Tempo, 500000
1, 171860, Tempo, 504202
1, 171880, Tempo, 508475
1, 171900, Tempo, 512821
1, 171920, Tempo, 517241
1, 171940, Tempo, 521739
1, 171960, Tempo, 526316
1, 171980, Tempo, 530973
1, 172000, Tempo, 535714
1, 172020, Tempo, 540541
1, 172040, Tempo, 545455
1, 172060, Tempo, 550459
1, 172080, Tempo, 555556
1, 172320, Tempo, 3000000
1, 172800, Tempo, 416667
1, 172800, End_track
2, 0, Start_track
2, 0, Title_t, "1st Movement - Allegro spiritoso"
2, 0, End_track
3, 0, Start_track
3, 0, Title_t, "Sequenced by D. L. Viens 8 Apr 2002"
3, 0, End_track
4, 0, Start_track
4, 0, Title_t, "dlviens@empire.net"
4, 0, End_track
5, 0, Start_track
5, 0, End_track
6, 0, Start_track
6, 0, Title_t, "Oboe"
6, 0, Program_c, 0, 68
6, 0, Control_c, 0, 7, 96
6, 0, Control_c, 0, 10, 82
6, 0, Control_c, 0, 121, 0
6, 0, Control_c, 0, 11, 127
6, 0, Note_on_c, 0, 72, 80
6, 224, Note_on_c, 0, 72, 0
6, 240, Note_on_c, 0, 67, 80
6, 479, Note_on_c, 0, 67, 0
6, 720, Note_on_c, 0, 64, 80
6, 944, Note_on_c, 0, 64, 0
6, 960, Note_on_c, 0, 60, 80
6, 1199, Note_on_c, 0, 60, 0
6, 4320, Note_on_c, 0, 72, 80
6, 4544, Note_on_c, 0, 72, 0
6, 4560, Note_on_c, 0, 67, 80
6, 4799, Note_on_c, 0, 67, 0
6, 5040, Note_on_c, 0, 64, 80
6, 5264, Note_on_c, 0, 64, 0
6, 5280, Note_on_c, 0, 60, 80
6, 5519, Note_on_c, 0, 60, 0
6, 8640, Note_on_c, 0, 72, 80
6, 8864, Note_on_c, 0, 72, 0
6, 8880, Note_on_c, 0, 72, 80
6, 8999, Note_on_c, 0, 72, 0
6, 9000, Note_on_c, 0, 76, 80
6, 9104, Note_on_c, 0, 76, 0
6, 9120, Note_on_c, 0, 79, 80
6, 9239, Note_on_c, 0, 79, 0
6, 9240, Note_on_c, 0, 84, 80
6, 9344, Note_on_c, 0, 84, 0
6, 9360, Note_on_c, 0, 84, 80
6, 9479, Note_on_c, 0, 84, 0
6, 9480, Note_on_c, 0, 74, 80
6, 9584, Note_on_c, 0, 74, 0
6, 9600, Note_on_c, 0, 74, 80
6, 9959, Note_on_c, 0, 74, 0
6, 9960, Note_on_c, 0, 76, 80
6, 10064, Note_on_c, 0, 76, 0
6, 10080, Note_on_c, 0, 76, 80
6, 10199, Note_on_c, 0, 76, 0
6, 10200, Note_on_c, 0, 77, 80
6, 10304, Note_on_c, 0, 77, 0
6, 10320, Note_on_c, 0, 77, 80
6, 10679, Note_on_c, 0, 77, 0
6, 10680, Note_on_c, 0, 79, 80
6, 10784, Note_on_c, 0, 79, 0
6, 10800, Note_on_c, 0, 81, 80
6, 11024, Note_on_c, 0, 81, 0
6, 11040, Note_on_c, 0, 79, 80
6, 11384, Note_on_c, 0, 79, 0
6, 11400, Note_on_c, 0, 77, 80
6, 11504, Note_on_c, 0, 77, 0
6, 11520, Note_on_c, 0, 76, 80
6, 11744, Note_on_c, 0, 76, 0
6, 11760, Note_on_c, 0, 76, 80
6, 11760, Note_on_c, 0, 79, 80
6, 11819, Note_on_c, 0, 79, 0
6, 11819, Note_on_c, 0, 76, 0
6, 11820, Note_on_c, 0, 77, 80
6, 11820, Note_on_c, 0, 74, 80
6, 11984, Note_on_c, 0, 74, 0
6, 11984, Note_on_c, 0, 77, 0
6, 12000, Note_on_c, 0, 76, 80
6, 12000, Note_on_c, 0, 72, 80
6, 12059, Note_on_c, 0, 72, 0
6, 12059, Note_on_c, 0, 76, 0
6, 12060, Note_on_c, 0, 71, 80
6, 12060, Note_on_c, 0, 74, 80
6, 12224, Note_on_c, 0, 74, 0
6, 12224, Note_on_c, 0, 71, 0
6, 12240, Note_on_c, 0, 79, 80
6, 12240, Note_on_c, 0, 72, 80
6, 12464, Note_on_c, 0, 79, 0
6, 12480, Note_on_c, 0, 84, 80
6, 12824, Note_on_c, 0, 84, 0
6, 12840, Note_on_c, 0, 76, 80
6, 12944, Note_on_c, 0, 76, 0
6, 12944, Note_on_c, 0, 72, 0
6, 12960, Note_on_c, 0, 81, 80
6, 12960, Note_on_c, 0, 77, 80
6, 13184, Note_on_c, 0, 77, 0
6, 13184, Note_on_c, 0, 81, 0
6, 13200, Note_on_c, 0, 79, 80
6, 13200, Note_on_c, 0, 76, 80
6, 13424, Note_on_c, 0, 76, 0
6, 13424, Note_on_c, 0, 79, 0
6, 13440, Note_on_c, 0, 71, 80
6, 13440, Note_on_c, 0, 74, 80
6, 13664, Note_on_c, 0, 74, 0
6, 13664, Note_on_c, 0, 71, 0
6, 13680, Note_on_c, 0, 76, 80
6, 13680, Note_on_c, 0, 72, 80
6, 14639, Note_on_c, 0, 72, 0
6, 14639, Note_on_c, 0, 76, 0
6, 15120, Note_on_c, 0, 71, 80
6, 15120, Note_on_c, 0, 77, 80
6, 16079, Note_on_c, 0, 77, 0
6, 16079, Note_on_c, 0, 71, 0
6, 16560, Note_on_c, 0, 76, 80
6, 16560, Note_on_c, 0, 72, 80
6, 17279, Note_on_c, 0, 72, 0
6, 17279, Note_on_c, 0, 76, 0
6, 17280, Note_on_c, 0, 76, 80
6, 17280, Note_on_c, 0, 79, 80
6, 17519, Note_on_c, 0, 79, 0
6, 17519, Note_on_c, 0, 76, 0
6, 18000, Note_on_c, 0, 84, 80
6, 18000, Note_on_c, 0, 81, 80
6, 19424, Note_on_c, 0, 81, 0
6, 19424, Note_on_c, 0, 84, 0
6, 19440, Note_on_c, 0, 83, 80
6, 19440, Note_on_c, 0, 79, 80
6, 20144, Note_on_c, 0, 83, 0
6, 20160, Note_on_c, 0, 84, 80
6, 20864, Note_on_c, 0, 84, 0
6, 20880, Note_on_c, 0, 86, 80
6, 21584, Note_on_c, 0, 86, 0
6, 21584, Note_on_c, 0, 79, 0
6, 21600, Note_on_c, 0, 76, 80
6, 21600, Note_on_c, 0, 79, 80
6, 21824, Note_on_c, 0, 79, 0
6, 21824, Note_on_c, 0, 76, 0
6, 21840, Note_on_c, 0, 84, 80
6, 21840, Note_on_c, 0, 76, 80
6, 21929, Note_on_c, 0, 76, 0
6, 21929, Note_on_c, 0, 84, 0
6, 21960, Note_on_c, 0, 74, 80
6, 21960, Note_on_c, 0, 83, 80
6, 22049, Note_on_c, 0, 83, 0
6, 22049, Note_on_c, 0, 74, 0
6, 22080, Note_on_c, 0, 72, 80
6, 22080, Note_on_c, 0, 81, 80
6, 22169, Note_on_c, 0, 81, 0
6, 22169, Note_on_c, 0, 72, 0
6, 22200, Note_on_c, 0, 79, 80
6, 22200, Note_on_c, 0, 71, 80
6, 22289, Note_on_c, 0, 71, 0
6, 22289, Note_on_c, 0, 79, 0
6, 22320, Note_on_c, 0, 69, 80
6, 22320, Note_on_c, 0, 78, 80
6, 22544, Note_on_c, 0, 78, 0
6, 22544, Note_on_c, 0, 69, 0
6, 22560, Note_on_c, 0, 62, 80
6, 22799, Note_on_c, 0, 62, 0
6, 24720, Note_on_c, 0, 69, 44
6, 24720, Note_on_c, 0, 78, 44
6, 24779, Note_on_c, 0, 78, 0
6, 24779, Note_on_c, 0, 69, 0
6, 24780, Note_on_c, 0, 79, 44
6, 24780, Note_on_c, 0, 71, 44
6, 24839, Note_on_c, 0, 71, 0
6, 24839, Note_on_c, 0, 79, 0
6, 24840, Note_on_c, 0, 69, 44
6, 24840, Note_on_c, 0, 78, 44
6, 24899, Note_on_c, 0, 78, 0
6, 24899, Note_on_c, 0, 69, 0
6, 24900, Note_on_c, 0, 71, 44
6, 24900, Note_on_c, 0, 79, 44
6, 24959, Note_on_c, 0, 79, 0
6, 24959, Note_on_c, 0, 71, 0
6, 24960, Note_on_c, 0, 81, 44
6, 24960, Note_on_c, 0, 72, 44
6, 25199, Note_on_c, 0, 72, 0
6, 25199, Note_on_c, 0, 81, 0
6, 25440, Note_on_c, 0, 71, 44
6, 25440, Note_on_c, 0, 79, 44
6, 25499, Note_on_c, 0, 79, 0
6, 25499, Note_on_c, 0, 71, 0
6, 25500, Note_on_c, 0, 81, 44
6, 25500, Note_on_c, 0, 72, 44
6, 25559, Note_on_c, 0, 72, 0
6, 25559, Note_on_c, 0, 81, 0
6, 25560, Note_on_c, 0, 79, 44
6, 25560, Note_on_c, 0, 71, 44
6, 25619, Note_on_c, 0, 71, 0
6, 25619, Note_on_c, 0, 79, 0
6, 25620, Note_on_c, 0, 81, 44
6, 25620, Note_on_c, 0, 72, 44
6, 25679, Note_on_c, 0, 72, 0
6, 25679, Note_on_c, 0, 81, 0
6, 25680, Note_on_c, 0, 74, 44
6, 25680, Note_on_c, 0, 83, 44
6, 25919, Note_on_c, 0, 83, 0
6, 25919, Note_on_c, 0, 74, 0
6, 28800, Note_on_c, 0, 71, 44
6, 28800, Note_on_c, 0, 74, 44
6, 28979, Note_on_c, 0, 74, 0
6, 28979, Note_on_c, 0, 71, 0
6, 29040, Note_on_c, 0, 74, 44
6, 29040, Note_on_c, 0, 71, 44
6, 29219, Note_on_c, 0, 71, 0
6, 29219, Note_on_c, 0, 74, 0
6, 29280, Note_on_c, 0, 74, 44
6, 29280, Note_on_c, 0, 71, 44
6, 29459, Note_on_c, 0, 71, 0
6, 29459, Note_on_c, 0, 74, 0
6, 29520, Note_on_c, 0, 72, 44
6, 29520, Note_on_c, 0, 76, 44
6, 29879, Note_on_c, 0, 76, 0
6, 29879, Note_on_c, 0, 72, 0
6, 29880, Note_on_c, 0, 78, 44
6, 29880, Note_on_c, 0, 74, 44
6, 29984, Note_on_c, 0, 74, 0
6, 29984, Note_on_c, 0, 78, 0
6, 30000, Note_on_c, 0, 79, 44
6, 30000, Note_on_c, 0, 76, 44
6, 30179, Note_on_c, 0, 76, 0
6, 30179, Note_on_c, 0, 79, 0
6, 30240, Note_on_c, 0, 69, 44
6, 30240, Note_on_c, 0, 66, 44
6, 30269, Note_on_c, 0, 66, 0
6, 30269, Note_on_c, 0, 69, 0
6, 30270, Note_on_c, 0, 67, 44
6, 30270, Note_on_c, 0, 71, 44
6, 30299, Note_on_c, 0, 71, 0
6, 30299, Note_on_c, 0, 67, 0
6, 30300, Note_on_c, 0, 72, 44
6, 30300, Note_on_c, 0, 69, 44
6, 30479, Note_on_c, 0, 69, 0
6, 30479, Note_on_c, 0, 72, 0
6, 30960, Note_on_c, 0, 67, 44
6, 30960, Note_on_c, 0, 71, 44
6, 30989, Note_on_c, 0, 71, 0
6, 30989, Note_on_c, 0, 67, 0
6, 30990, Note_on_c, 0, 69, 44
6, 30990, Note_on_c, 0, 72, 44
6, 31019, Note_on_c, 0, 72, 0
6, 31019, Note_on_c, 0, 69, 0
6, 31020, Note_on_c, 0, 74, 44
6, 31020, Note_on_c, 0, 71, 44
6, 31199, Note_on_c, 0, 71, 0
6, 31199, Note_on_c, 0, 74, 0
6, 31680, Note_on_c, 0, 74, 44
6, 31680, Note_on_c, 0, 71, 44
6, 31859, Note_on_c, 0, 71, 0
6, 31859, Note_on_c, 0, 74, 0
6, 31920, Note_on_c, 0, 71, 44
6, 31920, Note_on_c, 0, 74, 44
6, 32099, Note_on_c, 0, 74, 0
6, 32099, Note_on_c, 0, 71, 0
6, 32160, Note_on_c, 0, 71, 44
6, 32160, Note_on_c, 0, 74, 44
6, 32339, Note_on_c, 0, 74, 0
6, 32339, Note_on_c, 0, 71, 0
6, 32400, Note_on_c, 0, 76, 44
6, 32400, Note_on_c, 0, 72, 44
6, 32579, Note_on_c, 0, 72, 0
6, 32579, Note_on_c, 0, 76, 0
6, 32580, Note_on_c, 0, 78, 44
6, 32580, Note_on_c, 0, 74, 44
6, 32639, Note_on_c, 0, 74, 0
6, 32639, Note_on_c, 0, 78, 0
6, 32640, Note_on_c, 0, 76, 44
6, 32640, Note_on_c, 0, 79, 44
6, 32744, Note_on_c, 0, 79, 0
6, 32744, Note_on_c, 0, 76, 0
6, 32760, Note_on_c, 0, 78, 44
6, 32760, Note_on_c, 0, 74, 44
6, 32849, Note_on_c, 0, 74, 0
6, 32849, Note_on_c, 0, 78, 0
6, 32880, Note_on_c, 0, 72, 44
6, 32880, Note_on_c, 0, 76, 44
6, 32969, Note_on_c, 0, 76, 0
6, 32969, Note_on_c, 0, 72, 0
6, 33000, Note_on_c, 0, 71, 44
6, 33000, Note_on_c, 0, 74, 44
6, 33089, Note_on_c, 0, 74, 0
6, 33089, Note_on_c, 0, 71, 0
6, 33120, Note_on_c, 0, 71, 44
6, 33120, Note_on_c, 0, 74, 44
6, 33179, Note_on_c, 0, 74, 0
6, 33179, Note_on_c, 0, 71, 0
6, 33180, Note_on_c, 0, 69, 44
6, 33180, Note_on_c, 0, 72, 44
6, 33359, Note_on_c, 0, 72, 0
6, 33359, Note_on_c, 0, 69, 0
6, 33360, Note_on_c, 0, 67, 44
6, 33360, Note_on_c, 0, 71, 44
6, 33599, Note_on_c, 0, 71, 0
6, 33599, Note_on_c, 0, 67, 0
6, 33600, Note_on_c, 0, 69, 44
6, 33600, Note_on_c, 0, 66, 44
6, 33824, Note_on_c, 0, 66, 0
6, 33824, Note_on_c, 0, 69, 0
6, 33840, Note_on_c, 0, 67, 80
6, 34079, Note_on_c, 0, 67, 0
6, 35280, Note_on_c, 0, 79, 80
6, 35280, Note_on_c, 0, 67, 80
6, 35384, Note_on_c, 0, 67, 0
6, 35384, Note_on_c, 0, 79, 0
6, 35400, Note_on_c, 0, 66, 80
6, 35400, Note_on_c, 0, 78, 80
6, 35504, Note_on_c, 0, 78, 0
6, 35504, Note_on_c, 0, 66, 0
6, 35520, Note_on_c, 0, 67, 80
6, 35520, Note_on_c, 0, 79, 80
6, 35624, Note_on_c, 0, 79, 0
6, 35624, Note_on_c, 0, 67, 0
6, 35640, Note_on_c, 0, 66, 80
6, 35640, Note_on_c, 0, 78, 80
6, 35744, Note_on_c, 0, 78, 0
6, 35744, Note_on_c, 0, 66, 0
6, 35760, Note_on_c, 0, 79, 80
6, 35760, Note_on_c, 0, 67, 80
6, 35864, Note_on_c, 0, 67, 0
6, 35864, Note_on_c, 0, 79, 0
6, 35880, Note_on_c, 0, 76, 80
6, 35984, Note_on_c, 0, 76, 0
6, 36000, Note_on_c, 0, 74, 80
6, 36000, Note_on_c, 0, 79, 80
6, 36104, Note_on_c, 0, 79, 0
6, 36104, Note_on_c, 0, 74, 0
6, 36120, Note_on_c, 0, 72, 80
6, 36120, Note_on_c, 0, 78, 80
6, 36224, Note_on_c, 0, 78, 0
6, 36224, Note_on_c, 0, 72, 0
6, 36240, Note_on_c, 0, 71, 80
6, 36240, Note_on_c, 0, 79, 80
6, 36344, Note_on_c, 0, 79, 0
6, 36344, Note_on_c, 0, 71, 0
6, 36360, Note_on_c, 0, 72, 80
6, 36360, Note_on_c, 0, 78, 80
6, 36464, Note_on_c, 0, 78, 0
6, 36464, Note_on_c, 0, 72, 0
6, 36480, Note_on_c, 0, 79, 80
6, 36480, Note_on_c, 0, 74, 80
6, 36584, Note_on_c, 0, 74, 0
6, 36584, Note_on_c, 0, 79, 0
6, 36600, Note_on_c, 0, 79, 80
6, 36600, Note_on_c, 0, 71, 80
6, 36704, Note_on_c, 0, 71, 0
6, 36704, Note_on_c, 0, 79, 0
6, 36720, Note_on_c, 0, 72, 80
6, 36720, Note_on_c, 0, 79, 80
6, 36944, Note_on_c, 0, 79, 0
6, 36944, Note_on_c, 0, 72, 0
6, 36960, Note_on_c, 0, 78, 80
6, 36960, Note_on_c, 0, 84, 80
6, 37184, Note_on_c, 0, 84, 0
6, 37184, Note_on_c, 0, 78, 0
6, 37200, Note_on_c, 0, 76, 80
6, 37200, Note_on_c, 0, 84, 80
6, 37424, Note_on_c, 0, 84, 0
6, 37424, Note_on_c, 0, 76, 0
6, 37440, Note_on_c, 0, 84, 80
6, 37440, Note_on_c, 0, 74, 80
6, 37679, Note_on_c, 0, 74, 0
6, 37680, Note_on_c, 0, 78, 80
6, 37904, Note_on_c, 0, 78, 0
6, 37919, Note_on_c, 0, 84, 0
6, 37920, Note_on_c, 0, 83, 80
6, 37920, Note_on_c, 0, 79, 80
6, 38144, Note_on_c, 0, 79, 0
6, 38144, Note_on_c, 0, 83, 0
6, 38160, Note_on_c, 0, 81, 80
6, 38160, Note_on_c, 0, 72, 80
6, 38384, Note_on_c, 0, 72, 0
6, 38384, Note_on_c, 0, 81, 0
6, 38400, Note_on_c, 0, 79, 80
6, 38400, Note_on_c, 0, 71, 80
6, 38624, Note_on_c, 0, 71, 0
6, 38624, Note_on_c, 0, 79, 0
6, 38640, Note_on_c, 0, 69, 80
6, 38640, Note_on_c, 0, 78, 80
6, 38864, Note_on_c, 0, 78, 0
6, 38864, Note_on_c, 0, 69, 0
6, 38880, Note_on_c, 0, 79, 80
6, 38880, Note_on_c, 0, 71, 80
6, 39059, Note_on_c, 0, 71, 0
6, 39059, Note_on_c, 0, 79, 0
6, 39120, Note_on_c, 0, 68, 80
6, 39120, Note_on_c, 0, 77, 80
6, 39299, Note_on_c, 0, 77, 0
6, 39299, Note_on_c, 0, 68, 0
6, 39360, Note_on_c, 0, 76, 80
6, 39360, Note_on_c, 0, 69, 80
6, 39539, Note_on_c, 0, 69, 0
6, 39539, Note_on_c, 0, 76, 0
6, 39600, Note_on_c, 0, 74, 80
6, 39600, Note_on_c, 0, 71, 80
6, 39779, Note_on_c, 0, 71, 0
6, 39779, Note_on_c, 0, 74, 0
6, 39840, Note_on_c, 0, 64, 80
6, 39840, Note_on_c, 0, 73, 80
6, 40019, Note_on_c, 0, 73, 0
6, 40019, Note_on_c, 0, 64, 0
6, 42720, Note_on_c, 0, 83, 80
6, 42720, Note_on_c, 0, 86, 80
6, 42959, Note_on_c, 0, 86, 0
6, 42959, Note_on_c, 0, 83, 0
6, 42960, Note_on_c, 0, 84, 80
6, 42960, Note_on_c, 0, 81, 80
6, 43184, Note_on_c, 0, 81, 0
6, 43184, Note_on_c, 0, 84, 0
6, 43200, Note_on_c, 0, 79, 80
6, 43200, Note_on_c, 0, 83, 80
6, 43379, Note_on_c, 0, 83, 0
6, 43379, Note_on_c, 0, 79, 0
6, 43440, Note_on_c, 0, 79, 80
6, 43440, Note_on_c, 0, 83, 80
6, 43679, Note_on_c, 0, 83, 0
6, 43679, Note_on_c, 0, 79, 0
6, 43680, Note_on_c, 0, 78, 80
6, 43680, Note_on_c, 0, 81, 80
6, 43904, Note_on_c, 0, 81, 0
6, 43904, Note_on_c, 0, 78, 0
6, 43920, Note_on_c, 0, 79, 80
6, 44099, Note_on_c, 0, 79, 0
6, 44160, Note_on_c, 0, 86, 80
6, 44160, Note_on_c, 0, 83, 80
6, 44399, Note_on_c, 0, 83, 0
6, 44399, Note_on_c, 0, 86, 0
6, 44400, Note_on_c, 0, 81, 80
6, 44400, Note_on_c, 0, 84, 80
6, 44624, Note_on_c, 0, 84, 0
6, 44624, Note_on_c, 0, 81, 0
6, 44640, Note_on_c, 0, 79, 80
6, 44640, Note_on_c, 0, 83, 80
6, 44819, Note_on_c, 0, 83, 0
6, 44819, Note_on_c, 0, 79, 0
6, 44880, Note_on_c, 0, 83, 80
6, 44880, Note_on_c, 0, 79, 80
6, 45119, Note_on_c, 0, 79, 0
6, 45119, Note_on_c, 0, 83, 0
6, 45120, Note_on_c, 0, 78, 80
6, 45120, Note_on_c, 0, 81, 80
6, 45344, Note_on_c, 0, 81, 0
6, 45344, Note_on_c, 0, 78, 0
6, 45360, Note_on_c, 0, 79, 80
6, 45539, Note_on_c, 0, 79, 0
6, 45840, Note_on_c, 0, 78, 80
6, 45840, Note_on_c, 0, 72, 80
6, 46079, Note_on_c, 0, 72, 0
6, 46079, Note_on_c, 0, 78, 0
6, 46080, Note_on_c, 0, 79, 80
6, 46080, Note_on_c, 0, 71, 80
6, 46319, Note_on_c, 0, 71, 0
6, 46319, Note_on_c, 0, 79, 0
6, 46560, Note_on_c, 0, 78, 80
6, 46560, Note_on_c, 0, 72, 80
6, 46799, Note_on_c, 0, 72, 0
6, 46799, Note_on_c, 0, 78, 0
6, 46800, Note_on_c, 0, 71, 80
6, 46800, Note_on_c, 0, 79, 80
6, 47024, Note_on_c, 0, 79, 0
6, 47024, Note_on_c, 0, 71, 0
6, 47040, Note_on_c, 0, 67, 80
6, 47144, Note_on_c, 0, 67, 0
6, 47160, Note_on_c, 0, 69, 80
6, 47264, Note_on_c, 0, 69, 0
6, 47280, Note_on_c, 0, 71, 80
6, 47384, Note_on_c, 0, 71, 0
6, 47400, Note_on_c, 0, 72, 80
6, 47504, Note_on_c, 0, 72, 0
6, 47520, Note_on_c, 0, 74, 80
6, 47624, Note_on_c, 0, 74, 0
6, 47640, Note_on_c, 0, 76, 80
6, 47744, Note_on_c, 0, 76, 0
6, 47760, Note_on_c, 0, 77, 80
6, 47864, Note_on_c, 0, 77, 0
6, 47880, Note_on_c, 0, 74, 80
6, 47984, Note_on_c, 0, 74, 0
6, 48000, Note_on_c, 0, 71, 80
6, 48104, Note_on_c, 0, 71, 0
6, 48120, Note_on_c, 0, 67, 80
6, 48224, Note_on_c, 0, 67, 0
6, 48240, Note_on_c, 0, 72, 80
6, 48464, Note_on_c, 0, 72, 0
6, 48480, Note_on_c, 0, 67, 80
6, 48719, Note_on_c, 0, 67, 0
6, 48960, Note_on_c, 0, 64, 80
6, 49184, Note_on_c, 0, 64, 0
6, 49200, Note_on_c, 0, 60, 80
6, 49439, Note_on_c, 0, 60, 0
6, 52560, Note_on_c, 0, 72, 80
6, 52784, Note_on_c, 0, 72, 0
6, 52800, Note_on_c, 0, 67, 80
6, 53039, Note_on_c, 0, 67, 0
6, 53280, Note_on_c, 0, 64, 80
6, 53504, Note_on_c, 0, 64, 0
6, 53520, Note_on_c, 0, 60, 80
6, 53759, Note_on_c, 0, 60, 0
6, 56880, Note_on_c, 0, 72, 80
6, 57104, Note_on_c, 0, 72, 0
6, 57120, Note_on_c, 0, 72, 80
6, 57239, Note_on_c, 0, 72, 0
6, 57240, Note_on_c, 0, 76, 80
6, 57344, Note_on_c, 0, 76, 0
6, 57360, Note_on_c, 0, 79, 80
6, 57479, Note_on_c, 0, 79, 0
6, 57480, Note_on_c, 0, 84, 80
6, 57584, Note_on_c, 0, 84, 0
6, 57600, Note_on_c, 0, 84, 80
6, 57719, Note_on_c, 0, 84, 0
6, 57720, Note_on_c, 0, 74, 80
6, 57824, Note_on_c, 0, 74, 0
6, 57840, Note_on_c, 0, 74, 80
6, 58199, Note_on_c, 0, 74, 0
6, 58200, Note_on_c, 0, 76, 80
6, 58304, Note_on_c, 0, 76, 0
6, 58320, Note_on_c, 0, 76, 80
6, 58439, Note_on_c, 0, 76, 0
6, 58440, Note_on_c, 0, 77, 80
6, 58544, Note_on_c, 0, 77, 0
6, 58560, Note_on_c, 0, 77, 80
6, 58919, Note_on_c, 0, 77, 0
6, 58920, Note_on_c, 0, 79, 80
6, 59024, Note_on_c, 0, 79, 0
6, 59040, Note_on_c, 0, 81, 80
6, 59264, Note_on_c, 0, 81, 0
6, 59280, Note_on_c, 0, 79, 80
6, 59624, Note_on_c, 0, 79, 0
6, 59640, Note_on_c, 0, 77, 80
6, 59744, Note_on_c, 0, 77, 0
6, 59760, Note_on_c, 0, 76, 80
6, 59984, Note_on_c, 0, 76, 0
6, 60000, Note_on_c, 0, 76, 80
6, 60000, Note_on_c, 0, 79, 80
6, 60059, Note_on_c, 0, 79, 0
6, 60059, Note_on_c, 0, 76, 0
6, 60060, Note_on_c, 0, 77, 80
6, 60060, Note_on_c, 0, 74, 80
6, 60224, Note_on_c, 0, 74, 0
6, 60224, Note_on_c, 0, 77, 0
6, 60240, Note_on_c, 0, 76, 80
6, 60240, Note_on_c, 0, 72, 80
6, 60299, Note_on_c, 0, 72, 0
6, 60299, Note_on_c, 0, 76, 0
6, 60300, Note_on_c, 0, 74, 80
6, 60300, Note_on_c, 0, 71, 80
6, 60464, Note_on_c, 0, 71, 0
6, 60464, Note_on_c, 0, 74, 0
6, 60480, Note_on_c, 0, 72, 80
6, 60480, Note_on_c, 0, 79, 80
6, 60704, Note_on_c, 0, 79, 0
6, 60720, Note_on_c, 0, 84, 80
6, 61064, Note_on_c, 0, 84, 0
6, 61080, Note_on_c, 0, 76, 80
6, 61184, Note_on_c, 0, 76, 0
6, 61184, Note_on_c, 0, 72, 0
6, 61200, Note_on_c, 0, 77, 80
6, 61200, Note_on_c, 0, 81, 80
6, 61424, Note_on_c, 0, 81, 0
6, 61424, Note_on_c, 0, 77, 0
6, 61440, Note_on_c, 0, 76, 80
6, 61440, Note_on_c, 0, 79, 80
6, 61664, Note_on_c, 0, 79, 0
6, 61664, Note_on_c, 0, 76, 0
6, 61680, Note_on_c, 0, 74, 80
6, 61680, Note_on_c, 0, 71, 80
6, 61904, Note_on_c, 0, 71, 0
6, 61904, Note_on_c, 0, 74, 0
6, 61920, Note_on_c, 0, 76, 80
6, 61920, Note_on_c, 0, 72, 80
6, 62879, Note_on_c, 0, 72, 0
6, 62879, Note_on_c, 0, 76, 0
6, 63360, Note_on_c, 0, 77, 80
6, 63360, Note_on_c, 0, 71, 80
6, 64319, Note_on_c, 0, 71, 0
6, 64319, Note_on_c, 0, 77, 0
6, 64800, Note_on_c, 0, 72, 80
6, 64800, Note_on_c, 0, 76, 80
6, 65519, Note_on_c, 0, 76, 0
6, 65519, Note_on_c, 0, 72, 0
6, 65520, Note_on_c, 0, 76, 80
6, 65520, Note_on_c, 0, 79, 80
6, 65759, Note_on_c, 0, 79, 0
6, 65759, Note_on_c, 0, 76, 0
6, 66240, Note_on_c, 0, 81, 80
6, 66240, Note_on_c, 0, 84, 80
6, 67664, Note_on_c, 0, 84, 0
6, 67664, Note_on_c, 0, 81, 0
6, 67680, Note_on_c, 0, 79, 80
6, 67680, Note_on_c, 0, 83, 80
6, 68384, Note_on_c, 0, 83, 0
6, 68400, Note_on_c, 0, 84, 80
6, 69104, Note_on_c, 0, 84, 0
6, 69120, Note_on_c, 0, 86, 80
6, 69824, Note_on_c, 0, 86, 0
6, 69824, Note_on_c, 0, 79, 0
6, 69840, Note_on_c, 0, 79, 80
6, 69840, Note_on_c, 0, 76, 80
6, 70064, Note_on_c, 0, 76, 0
6, 70064, Note_on_c, 0, 79, 0
6, 70080, Note_on_c, 0, 84, 80
6, 70080, Note_on_c, 0, 76, 80
6, 70169, Note_on_c, 0, 76, 0
6, 70169, Note_on_c, 0, 84, 0
6, 70200, Note_on_c, 0, 83, 80
6, 70200, Note_on_c, 0, 74, 80
6, 70289, Note_on_c, 0, 74, 0
6, 70289, Note_on_c, 0, 83, 0
6, 70320, Note_on_c, 0, 81, 80
6, 70320, Note_on_c, 0, 72, 80
6, 70409, Note_on_c, 0, 72, 0
6, 70409, Note_on_c, 0, 81, 0
6, 70440, Note_on_c, 0, 79, 80
6, 70440, Note_on_c, 0, 71, 80
6, 70529, Note_on_c, 0, 71, 0
6, 70529, Note_on_c, 0, 79, 0
6, 70560, Note_on_c, 0, 78, 80
6, 70560, Note_on_c, 0, 69, 80
6, 70784, Note_on_c, 0, 69, 0
6, 70784, Note_on_c, 0, 78, 0
6, 70800, Note_on_c, 0, 62, 80
6, 71039, Note_on_c, 0, 62, 0
6, 72960, Note_on_c, 0, 78, 44
6, 72960, Note_on_c, 0, 69, 44
6, 73019, Note_on_c, 0, 69, 0
6, 73019, Note_on_c, 0, 78, 0
6, 73020, Note_on_c, 0, 79, 44
6, 73020, Note_on_c, 0, 71, 44
6, 73079, Note_on_c, 0, 71, 0
6, 73079, Note_on_c, 0, 79, 0
6, 73080, Note_on_c, 0, 78, 44
6, 73080, Note_on_c, 0, 69, 44
6, 73139, Note_on_c, 0, 69, 0
6, 73139, Note_on_c, 0, 78, 0
6, 73140, Note_on_c, 0, 71, 44
6, 73140, Note_on_c, 0, 79, 44
6, 73199, Note_on_c, 0, 79, 0
6, 73199, Note_on_c, 0, 71, 0
6, 73200, Note_on_c, 0, 72, 44
6, 73200, Note_on_c, 0, 81, 44
6, 73439, Note_on_c, 0, 81, 0
6, 73439, Note_on_c, 0, 72, 0
6, 73680, Note_on_c, 0, 71, 44
6, 73680, Note_on_c, 0, 79, 44
6, 73739, Note_on_c, 0, 79, 0
6, 73739, Note_on_c, 0, 71, 0
6, 73740, Note_on_c, 0, 72, 44
6, 73740, Note_on_c, 0, 81, 44
6, 73799, Note_on_c, 0, 81, 0
6, 73799, Note_on_c, 0, 72, 0
6, 73800, Note_on_c, 0, 71, 44
6, 73800, Note_on_c, 0, 79, 44
6, 73859, Note_on_c, 0, 79, 0
6, 73859, Note_on_c, 0, 71, 0
6, 73860, Note_on_c, 0, 81, 44
6, 73860, Note_on_c, 0, 72, 44
6, 73919, Note_on_c, 0, 72, 0
6, 73919, Note_on_c, 0, 81, 0
6, 73920, Note_on_c, 0, 74, 44
6, 73920, Note_on_c, 0, 83, 44
6, 74159, Note_on_c, 0, 83, 0
6, 74159, Note_on_c, 0, 74, 0
6, 77040, Note_on_c, 0, 74, 44
6, 77040, Note_on_c, 0, 71, 44
6, 77219, Note_on_c, 0, 71, 0
6, 77219, Note_on_c, 0, 74, 0
6, 77280, Note_on_c, 0, 71, 44
6, 77280, Note_on_c, 0, 74, 44
6, 77459, Note_on_c, 0, 74, 0
6, 77459, Note_on_c, 0, 71, 0
6, 77520, Note_on_c, 0, 71, 44
6, 77520, Note_on_c, 0, 74, 44
6, 77699, Note_on_c, 0, 74, 0
6, 77699, Note_on_c, 0, 71, 0
6, 77760, Note_on_c, 0, 72, 44
6, 77760, Note_on_c, 0, 76, 44
6, 78119, Note_on_c, 0, 76, 0
6, 78119, Note_on_c, 0, 72, 0
6, 78120, Note_on_c, 0, 78, 44
6, 78120, Note_on_c, 0, 74, 44
6, 78224, Note_on_c, 0, 74, 0
6, 78224, Note_on_c, 0, 78, 0
6, 78240, Note_on_c, 0, 79, 44
6, 78240, Note_on_c, 0, 76, 44
6, 78419, Note_on_c, 0, 76, 0
6, 78419, Note_on_c, 0, 79, 0
6, 78480, Note_on_c, 0, 66, 44
6, 78480, Note_on_c, 0, 69, 44
6, 78509, Note_on_c, 0, 69, 0
6, 78509, Note_on_c, 0, 66, 0
6, 78510, Note_on_c, 0, 71, 44
6, 78510, Note_on_c, 0, 67, 44
6, 78539, Note_on_c, 0, 67, 0
6, 78539, Note_on_c, 0, 71, 0
6, 78540, Note_on_c, 0, 72, 44
6, 78540, Note_on_c, 0, 69, 44
6, 78719, Note_on_c, 0, 69, 0
6, 78719, Note_on_c, 0, 72, 0
6, 79200, Note_on_c, 0, 67, 44
6, 79200, Note_on_c, 0, 71, 44
6, 79229, Note_on_c, 0, 71, 0
6, 79229, Note_on_c, 0, 67, 0
6, 79230, Note_on_c, 0, 72, 44
6, 79230, Note_on_c, 0, 69, 44
6, 79259, Note_on_c, 0, 69, 0
6, 79259, Note_on_c, 0, 72, 0
6, 79260, Note_on_c, 0, 71, 44
6, 79260, Note_on_c, 0, 74, 44
6, 79439, Note_on_c, 0, 74, 0
6, 79439, Note_on_c, 0, 71, 0
6, 79920, Note_on_c, 0, 71, 44
6, 79920, Note_on_c, 0, 74, 44
6, 80099, Note_on_c, 0, 74, 0
6, 80099, Note_on_c, 0, 71, 0
6, 80160, Note_on_c, 0, 71, 44
6, 80160, Note_on_c, 0, 74, 44
6, 80339, Note_on_c, 0, 74, 0
6, 80339, Note_on_c, 0, 71, 0
6, 80400, Note_on_c, 0, 71, 44
6, 80400, Note_on_c, 0, 74, 44
6, 80579, Note_on_c, 0, 74, 0
6, 80579, Note_on_c, 0, 71, 0
6, 80640, Note_on_c, 0, 76, 44
6, 80640, Note_on_c, 0, 72, 44
6, 80819, Note_on_c, 0, 72, 0
6, 80819, Note_on_c, 0, 76, 0
6, 80820, Note_on_c, 0, 78, 44
6, 80820, Note_on_c, 0, 74, 44
6, 80879, Note_on_c, 0, 74, 0
6, 80879, Note_on_c, 0, 78, 0
6, 80880, Note_on_c, 0, 79, 44
6, 80880, Note_on_c, 0, 76, 44
6, 80984, Note_on_c, 0, 76, 0
6, 80984, Note_on_c, 0, 79, 0
6, 81000, Note_on_c, 0, 74, 44
6, 81000, Note_on_c, 0, 78, 44
6, 81089, Note_on_c, 0, 78, 0
6, 81089, Note_on_c, 0, 74, 0
6, 81120, Note_on_c, 0, 72, 44
6, 81120, Note_on_c, 0, 76, 44
6, 81209, Note_on_c, 0, 76, 0
6, 81209, Note_on_c, 0, 72, 0
6, 81240, Note_on_c, 0, 71, 44
6, 81240, Note_on_c, 0, 74, 44
6, 81329, Note_on_c, 0, 74, 0
6, 81329, Note_on_c, 0, 71, 0
6, 81360, Note_on_c, 0, 74, 44
6, 81360, Note_on_c, 0, 71, 44
6, 81419, Note_on_c, 0, 71, 0
6, 81419, Note_on_c, 0, 74, 0
6, 81420, Note_on_c, 0, 72, 44
6, 81420, Note_on_c, 0, 69, 44
6, 81599, Note_on_c, 0, 69, 0
6, 81599, Note_on_c, 0, 72, 0
6, 81600, Note_on_c, 0, 71, 44
6, 81600, Note_on_c, 0, 67, 44
6, 81839, Note_on_c, 0, 67, 0
6, 81839, Note_on_c, 0, 71, 0
6, 81840, Note_on_c, 0, 66, 44
6, 81840, Note_on_c, 0, 69, 44
6, 82064, Note_on_c, 0, 69, 0
6, 82064, Note_on_c, 0, 66, 0
6, 82080, Note_on_c, 0, 67, 80
6, 82319, Note_on_c, 0, 67, 0
6, 83520, Note_on_c, 0, 79, 80
6, 83520, Note_on_c, 0, 67, 80
6, 83624, Note_on_c, 0, 67, 0
6, 83624, Note_on_c, 0, 79, 0
6, 83640, Note_on_c, 0, 66, 80
6, 83640, Note_on_c, 0, 78, 80
6, 83744, Note_on_c, 0, 78, 0
6, 83744, Note_on_c, 0, 66, 0
6, 83760, Note_on_c, 0, 79, 80
6, 83760, Note_on_c, 0, 67, 80
6, 83864, Note_on_c, 0, 67, 0
6, 83864, Note_on_c, 0, 79, 0
6, 83880, Note_on_c, 0, 66, 80
6, 83880, Note_on_c, 0, 78, 80
6, 83984, Note_on_c, 0, 78, 0
6, 83984, Note_on_c, 0, 66, 0
6, 84000, Note_on_c, 0, 67, 80
6, 84000, Note_on_c, 0, 79, 80
6, 84104, Note_on_c, 0, 79, 0
6, 84104, Note_on_c, 0, 67, 0
6, 84120, Note_on_c, 0, 76, 80
6, 84224, Note_on_c, 0, 76, 0
6, 84240, Note_on_c, 0, 74, 80
6, 84240, Note_on_c, 0, 79, 80
6, 84344, Note_on_c, 0, 79, 0
6, 84344, Note_on_c, 0, 74, 0
6, 84360, Note_on_c, 0, 72, 80
6, 84360, Note_on_c, 0, 78, 80
6, 84464, Note_on_c, 0, 78, 0
6, 84464, Note_on_c, 0, 72, 0
6, 84480, Note_on_c, 0, 71, 80
6, 84480, Note_on_c, 0, 79, 80
6, 84584, Note_on_c, 0, 79, 0
6, 84584, Note_on_c, 0, 71, 0
6, 84600, Note_on_c, 0, 72, 80
6, 84600, Note_on_c, 0, 78, 80
6, 84704, Note_on_c, 0, 78, 0
6, 84704, Note_on_c, 0, 72, 0
6, 84720, Note_on_c, 0, 79, 80
6, 84720, Note_on_c, 0, 74, 80
6, 84824, Note_on_c, 0, 74, 0
6, 84824, Note_on_c, 0, 79, 0
6, 84840, Note_on_c, 0, 71, 80
6, 84840, Note_on_c, 0, 79, 80
6, 84944, Note_on_c, 0, 79, 0
6, 84944, Note_on_c, 0, 71, 0
6, 84960, Note_on_c, 0, 79, 80
6, 84960, Note_on_c, 0, 72, 80
6, 85184, Note_on_c, 0, 72, 0
6, 85184, Note_on_c, 0, 79, 0
6, 85200, Note_on_c, 0, 78, 80
6, 85200, Note_on_c, 0, 84, 80
6, 85424, Note_on_c, 0, 84, 0
6, 85424, Note_on_c, 0, 78, 0
6, 85440, Note_on_c, 0, 76, 80
6, 85440, Note_on_c, 0, 84, 80
6, 85664, Note_on_c, 0, 84, 0
6, 85664, Note_on_c, 0, 76, 0
6, 85680, Note_on_c, 0, 84, 80
6, 85680, Note_on_c, 0, 74, 80
6, 85919, Note_on_c, 0, 74, 0
6, 85920, Note_on_c, 0, 78, 80
6, 86144, Note_on_c, 0, 78, 0
6, 86159, Note_on_c, 0, 84, 0
6, 86160, Note_on_c, 0, 83, 80
6, 86160, Note_on_c, 0, 79, 80
6, 86384, Note_on_c, 0, 79, 0
6, 86384, Note_on_c, 0, 83, 0
6, 86400, Note_on_c, 0, 81, 80
6, 86400, Note_on_c, 0, 72, 80
6, 86624, Note_on_c, 0, 72, 0
6, 86624, Note_on_c, 0, 81, 0
6, 86640, Note_on_c, 0, 79, 80
6, 86640, Note_on_c, 0, 71, 80
6, 86864, Note_on_c, 0, 71, 0
6, 86864, Note_on_c, 0, 79, 0
6, 86880, Note_on_c, 0, 69, 80
6, 86880, Note_on_c, 0, 78, 80
6, 87104, Note_on_c, 0, 78, 0
6, 87104, Note_on_c, 0, 69, 0
6, 87120, Note_on_c, 0, 79, 80
6, 87120, Note_on_c, 0, 71, 80
6, 87299, Note_on_c, 0, 71, 0
6, 87299, Note_on_c, 0, 79, 0
6, 87360, Note_on_c, 0, 77, 80
6, 87360, Note_on_c, 0, 68, 80
6, 87539, Note_on_c, 0, 68, 0
6, 87539, Note_on_c, 0, 77, 0
6, 87600, Note_on_c, 0, 69, 80
6, 87600, Note_on_c, 0, 76, 80
6, 87779, Note_on_c, 0, 76, 0
6, 87779, Note_on_c, 0, 69, 0
6, 87840, Note_on_c, 0, 74, 80
6, 87840, Note_on_c, 0, 71, 80
6, 88019, Note_on_c, 0, 71, 0
6, 88019, Note_on_c, 0, 74, 0
6, 88080, Note_on_c, 0, 73, 80
6, 88080, Note_on_c, 0, 64, 80
6, 88259, Note_on_c, 0, 64, 0
6, 88259, Note_on_c, 0, 73, 0
6, 90960, Note_on_c, 0, 83, 80
6, 90960, Note_on_c, 0, 86, 80
6, 91199, Note_on_c, 0, 86, 0
6, 91199, Note_on_c, 0, 83, 0
6, 91200, Note_on_c, 0, 84, 80
6, 91200, Note_on_c, 0, 81, 80
6, 91424, Note_on_c, 0, 81, 0
6, 91424, Note_on_c, 0, 84, 0
6, 91440, Note_on_c, 0, 79, 80
6, 91440, Note_on_c, 0, 83, 80
6, 91619, Note_on_c, 0, 83, 0
6, 91619, Note_on_c, 0, 79, 0
6, 91680, Note_on_c, 0, 83, 80
6, 91680, Note_on_c, 0, 79, 80
6, 91919, Note_on_c, 0, 79, 0
6, 91919, Note_on_c, 0, 83, 0
6, 91920, Note_on_c, 0, 78, 80
6, 91920, Note_on_c, 0, 81, 80
6, 92144, Note_on_c, 0, 81, 0
6, 92144, Note_on_c, 0, 78, 0
6, 92160, Note_on_c, 0, 79, 80
6, 92339, Note_on_c, 0, 79, 0
6, 92400, Note_on_c, 0, 86, 80
6, 92400, Note_on_c, 0, 83, 80
6, 92639, Note_on_c, 0, 83, 0
6, 92639, Note_on_c, 0, 86, 0
6, 92640, Note_on_c, 0, 81, 80
6, 92640, Note_on_c, 0, 84, 80
6, 92864, Note_on_c, 0, 84, 0
6, 92864, Note_on_c, 0, 81, 0
6, 92880, Note_on_c, 0, 83, 80
6, 92880, Note_on_c, 0, 79, 80
6, 93059, Note_on_c, 0, 79, 0
6, 93059, Note_on_c, 0, 83, 0
6, 93120, Note_on_c, 0, 83, 80
6, 93120, Note_on_c, 0, 79, 80
6, 93359, Note_on_c, 0, 79, 0
6, 93359, Note_on_c, 0, 83, 0
6, 93360, Note_on_c, 0, 78, 80
6, 93360, Note_on_c, 0, 81, 80
6, 93584, Note_on_c, 0, 81, 0
6, 93584, Note_on_c, 0, 78, 0
6, 93600, Note_on_c, 0, 79, 80
6, 93779, Note_on_c, 0, 79, 0
6, 94080, Note_on_c, 0, 72, 80
6, 94080, Note_on_c, 0, 78, 80
6, 94319, Note_on_c, 0, 78, 0
6, 94319, Note_on_c, 0, 72, 0
6, 94320, Note_on_c, 0, 71, 80
6, 94320, Note_on_c, 0, 79, 80
6, 94559, Note_on_c, 0, 79, 0
6, 94559, Note_on_c, 0, 71, 0
6, 94800, Note_on_c, 0, 72, 80
6, 94800, Note_on_c, 0, 78, 80
6, 95039, Note_on_c, 0, 78, 0
6, 95039, Note_on_c, 0, 72, 0
6, 95040, Note_on_c, 0, 79, 80
6, 95040, Note_on_c, 0, 71, 80
6, 95264, Note_on_c, 0, 71, 0
6, 95264, Note_on_c, 0, 79, 0
6, 95280, Note_on_c, 0, 67, 80
6, 95384, Note_on_c, 0, 67, 0
6, 95400, Note_on_c, 0, 69, 80
6, 95504, Note_on_c, 0, 69, 0
6, 95520, Note_on_c, 0, 71, 80
6, 95624, Note_on_c, 0, 71, 0
6, 95640, Note_on_c, 0, 72, 80
6, 95744, Note_on_c, 0, 72, 0
6, 95760, Note_on_c, 0, 74, 80
6, 95864, Note_on_c, 0, 74, 0
6, 95880, Note_on_c, 0, 76, 80
6, 95984, Note_on_c, 0, 76, 0
6, 96000, Note_on_c, 0, 77, 80
6, 96104, Note_on_c, 0, 77, 0
6, 96120, Note_on_c, 0, 74, 80
6, 96224, Note_on_c, 0, 74, 0
6, 96240, Note_on_c, 0, 71, 80
6, 96344, Note_on_c, 0, 71, 0
6, 96360, Note_on_c, 0, 67, 80
6, 96464, Note_on_c, 0, 67, 0
6, 96480, Note_on_c, 0, 72, 80
6, 96719, Note_on_c, 0, 72, 0
6, 97200, Note_on_c, 0, 76, 80
6, 97200, Note_on_c, 0, 67, 80
6, 97439, Note_on_c, 0, 67, 0
6, 97439, Note_on_c, 0, 76, 0
6, 97920, Note_on_c, 0, 77, 80
6, 97920, Note_on_c, 0, 72, 80
6, 98159, Note_on_c, 0, 72, 0
6, 98159, Note_on_c, 0, 77, 0
6, 98640, Note_on_c, 0, 82, 80
6, 98640, Note_on_c, 0, 76, 80
6, 98879, Note_on_c, 0, 76, 0
6, 98879, Note_on_c, 0, 82, 0
6, 99360, Note_on_c, 0, 81, 80
6, 99360, Note_on_c, 0, 77, 80
6, 99599, Note_on_c, 0, 77, 0
6, 99599, Note_on_c, 0, 81, 0
6, 107280, Note_on_c, 0, 79, 44
6, 107280, Note_on_c, 0, 67, 44
6, 110159, Note_on_c, 0, 67, 0
6, 110159, Note_on_c, 0, 79, 0
6, 110400, Note_on_c, 0, 67, 44
6, 110400, Note_on_c, 0, 71, 44
6, 110459, Note_on_c, 0, 71, 0
6, 110459, Note_on_c, 0, 67, 0
6, 110460, Note_on_c, 0, 69, 44
6, 110460, Note_on_c, 0, 72, 44
6, 110519, Note_on_c, 0, 72, 0
6, 110519, Note_on_c, 0, 69, 0
6, 110520, Note_on_c, 0, 71, 44
6, 110520, Note_on_c, 0, 67, 44
6, 110579, Note_on_c, 0, 67, 0
6, 110579, Note_on_c, 0, 71, 0
6, 110580, Note_on_c, 0, 69, 44
6, 110580, Note_on_c, 0, 72, 44
6, 110639, Note_on_c, 0, 72, 0
6, 110639, Note_on_c, 0, 69, 0
6, 110640, Note_on_c, 0, 71, 44
6, 110640, Note_on_c, 0, 74, 44
6, 110879, Note_on_c, 0, 74, 0
6, 110879, Note_on_c, 0, 71, 0
6, 111120, Note_on_c, 0, 72, 44
6, 111120, Note_on_c, 0, 69, 44
6, 111179, Note_on_c, 0, 69, 0
6, 111179, Note_on_c, 0, 72, 0
6, 111180, Note_on_c, 0, 71, 44
6, 111180, Note_on_c, 0, 74, 44
6, 111239, Note_on_c, 0, 74, 0
6, 111239, Note_on_c, 0, 71, 0
6, 111240, Note_on_c, 0, 69, 44
6, 111240, Note_on_c, 0, 72, 44
6, 111299, Note_on_c, 0, 72, 0
6, 111299, Note_on_c, 0, 69, 0
6, 111300, Note_on_c, 0, 74, 44
6, 111300, Note_on_c, 0, 71, 44
6, 111359, Note_on_c, 0, 71, 0
6, 111359, Note_on_c, 0, 74, 0
6, 111360, Note_on_c, 0, 76, 44
6, 111360, Note_on_c, 0, 72, 44
6, 111584, Note_on_c, 0, 72, 0
6, 111584, Note_on_c, 0, 76, 0
6, 111600, Note_on_c, 0, 77, 44
6, 111600, Note_on_c, 0, 74, 44
6, 111839, Note_on_c, 0, 74, 0
6, 111839, Note_on_c, 0, 77, 0
6, 113040, Note_on_c, 0, 72, 80
6, 113264, Note_on_c, 0, 72, 0
6, 113280, Note_on_c, 0, 67, 80
6, 113519, Note_on_c, 0, 67, 0
6, 113760, Note_on_c, 0, 64, 80
6, 113984, Note_on_c, 0, 64, 0
6, 114000, Note_on_c, 0, 60, 80
6, 114239, Note_on_c, 0, 60, 0
6, 117360, Note_on_c, 0, 72, 80
6, 117584, Note_on_c, 0, 72, 0
6, 117600, Note_on_c, 0, 67, 80
6, 117839, Note_on_c, 0, 67, 0
6, 118080, Note_on_c, 0, 64, 80
6, 118304, Note_on_c, 0, 64, 0
6, 118320, Note_on_c, 0, 60, 80
6, 118559, Note_on_c, 0, 60, 0
6, 121680, Note_on_c, 0, 72, 80
6, 121904, Note_on_c, 0, 72, 0
6, 121920, Note_on_c, 0, 72, 80
6, 122039, Note_on_c, 0, 72, 0
6, 122040, Note_on_c, 0, 76, 80
6, 122144, Note_on_c, 0, 76, 0
6, 122160, Note_on_c, 0, 79, 80
6, 122279, Note_on_c, 0, 79, 0
6, 122280, Note_on_c, 0, 84, 80
6, 122384, Note_on_c, 0, 84, 0
6, 122400, Note_on_c, 0, 84, 80
6, 122519, Note_on_c, 0, 84, 0
6, 122520, Note_on_c, 0, 74, 80
6, 122624, Note_on_c, 0, 74, 0
6, 122640, Note_on_c, 0, 74, 80
6, 122999, Note_on_c, 0, 74, 0
6, 123000, Note_on_c, 0, 76, 80
6, 123104, Note_on_c, 0, 76, 0
6, 123120, Note_on_c, 0, 76, 80
6, 123239, Note_on_c, 0, 76, 0
6, 123240, Note_on_c, 0, 77, 80
6, 123344, Note_on_c, 0, 77, 0
6, 123360, Note_on_c, 0, 77, 80
6, 123719, Note_on_c, 0, 77, 0
6, 123720, Note_on_c, 0, 79, 80
6, 123824, Note_on_c, 0, 79, 0
6, 123840, Note_on_c, 0, 81, 80
6, 124064, Note_on_c, 0, 81, 0
6, 124080, Note_on_c, 0, 79, 80
6, 124424, Note_on_c, 0, 79, 0
6, 124440, Note_on_c, 0, 77, 80
6, 124544, Note_on_c, 0, 77, 0
6, 124560, Note_on_c, 0, 76, 80
6, 124784, Note_on_c, 0, 76, 0
6, 124800, Note_on_c, 0, 79, 80
6, 124800, Note_on_c, 0, 76, 80
6, 124859, Note_on_c, 0, 76, 0
6, 124859, Note_on_c, 0, 79, 0
6, 124860, Note_on_c, 0, 74, 80
6, 124860, Note_on_c, 0, 77, 80
6, 125024, Note_on_c, 0, 77, 0
6, 125024, Note_on_c, 0, 74, 0
6, 125040, Note_on_c, 0, 72, 80
6, 125040, Note_on_c, 0, 76, 80
6, 125099, Note_on_c, 0, 76, 0
6, 125099, Note_on_c, 0, 72, 0
6, 125100, Note_on_c, 0, 74, 80
6, 125100, Note_on_c, 0, 71, 80
6, 125264, Note_on_c, 0, 71, 0
6, 125264, Note_on_c, 0, 74, 0
6, 125280, Note_on_c, 0, 72, 80
6, 125280, Note_on_c, 0, 79, 80
6, 125504, Note_on_c, 0, 79, 0
6, 125520, Note_on_c, 0, 84, 80
6, 125864, Note_on_c, 0, 84, 0
6, 125880, Note_on_c, 0, 76, 80
6, 125984, Note_on_c, 0, 76, 0
6, 125984, Note_on_c, 0, 72, 0
6, 126000, Note_on_c, 0, 77, 80
6, 126000, Note_on_c, 0, 81, 80
6, 126224, Note_on_c, 0, 81, 0
6, 126224, Note_on_c, 0, 77, 0
6, 126240, Note_on_c, 0, 76, 80
6, 126240, Note_on_c, 0, 79, 80
6, 126464, Note_on_c, 0, 79, 0
6, 126464, Note_on_c, 0, 76, 0
6, 126480, Note_on_c, 0, 71, 80
6, 126480, Note_on_c, 0, 74, 80
6, 126704, Note_on_c, 0, 74, 0
6, 126704, Note_on_c, 0, 71, 0
6, 126720, Note_on_c, 0, 76, 80
6, 126720, Note_on_c, 0, 72, 80
6, 127439, Note_on_c, 0, 72, 0
6, 127440, Note_on_c, 0, 79, 80
6, 127679, Note_on_c, 0, 79, 0
6, 127679, Note_on_c, 0, 76, 0
6, 128160, Note_on_c, 0, 72, 80
6, 128160, Note_on_c, 0, 77, 80
6, 128639, Note_on_c, 0, 77, 0
6, 128639, Note_on_c, 0, 72, 0
6, 128640, Note_on_c, 0, 77, 80
6, 128640, Note_on_c, 0, 81, 80
6, 128879, Note_on_c, 0, 81, 0
6, 128879, Note_on_c, 0, 77, 0
6, 128880, Note_on_c, 0, 81, 80
6, 128880, Note_on_c, 0, 84, 80
6, 129119, Note_on_c, 0, 84, 0
6, 129119, Note_on_c, 0, 81, 0
6, 129600, Note_on_c, 0, 73, 80
6, 129600, Note_on_c, 0, 76, 80
6, 130319, Note_on_c, 0, 76, 0
6, 130320, Note_on_c, 0, 81, 80
6, 130559, Note_on_c, 0, 81, 0
6, 130559, Note_on_c, 0, 73, 0
6, 131040, Note_on_c, 0, 74, 80
6, 131040, Note_on_c, 0, 69, 80
6, 131519, Note_on_c, 0, 74, 0
6, 131520, Note_on_c, 0, 77, 80
6, 131759, Note_on_c, 0, 77, 0
6, 131759, Note_on_c, 0, 69, 0
6, 131760, Note_on_c, 0, 74, 80
6, 131760, Note_on_c, 0, 81, 80
6, 131999, Note_on_c, 0, 81, 0
6, 131999, Note_on_c, 0, 74, 0
6, 132480, Note_on_c, 0, 84, 80
6, 132480, Note_on_c, 0, 81, 80
6, 133904, Note_on_c, 0, 81, 0
6, 133904, Note_on_c, 0, 84, 0
6, 133920, Note_on_c, 0, 79, 80
6, 133920, Note_on_c, 0, 83, 80
6, 134144, Note_on_c, 0, 83, 0
6, 134144, Note_on_c, 0, 79, 0
6, 134160, Note_on_c, 0, 77, 80
6, 134160, Note_on_c, 0, 71, 80
6, 135344, Note_on_c, 0, 71, 0
6, 135344, Note_on_c, 0, 77, 0
6, 135360, Note_on_c, 0, 76, 80
6, 135360, Note_on_c, 0, 72, 80
6, 136064, Note_on_c, 0, 76, 0
6, 136080, Note_on_c, 0, 77, 80
6, 136784, Note_on_c, 0, 77, 0
6, 136800, Note_on_c, 0, 79, 80
6, 137504, Note_on_c, 0, 79, 0
6, 137504, Note_on_c, 0, 72, 0
6, 137520, Note_on_c, 0, 81, 80
6, 137520, Note_on_c, 0, 72, 80
6, 137609, Note_on_c, 0, 72, 0
6, 137609, Note_on_c, 0, 81, 0
6, 137640, Note_on_c, 0, 79, 80
6, 137640, Note_on_c, 0, 71, 80
6, 137729, Note_on_c, 0, 71, 0
6, 137729, Note_on_c, 0, 79, 0
6, 137760, Note_on_c, 0, 69, 80
6, 137760, Note_on_c, 0, 77, 80
6, 137849, Note_on_c, 0, 77, 0
6, 137849, Note_on_c, 0, 69, 0
6, 137880, Note_on_c, 0, 76, 80
6, 137880, Note_on_c, 0, 67, 80
6, 137969, Note_on_c, 0, 67, 0
6, 137969, Note_on_c, 0, 76, 0
6, 138000, Note_on_c, 0, 65, 80
6, 138000, Note_on_c, 0, 74, 80
6, 138089, Note_on_c, 0, 74, 0
6, 138089, Note_on_c, 0, 65, 0
6, 138120, Note_on_c, 0, 64, 80
6, 138120, Note_on_c, 0, 72, 80
6, 138209, Note_on_c, 0, 72, 0
6, 138209, Note_on_c, 0, 64, 0
6, 138240, Note_on_c, 0, 71, 80
6, 138240, Note_on_c, 0, 62, 80
6, 138464, Note_on_c, 0, 62, 0
6, 138464, Note_on_c, 0, 71, 0
6, 138480, Note_on_c, 0, 67, 80
6, 138719, Note_on_c, 0, 67, 0
6, 140640, Note_on_c, 0, 71, 44
6, 140640, Note_on_c, 0, 74, 44
6, 140699, Note_on_c, 0, 74, 0
6, 140699, Note_on_c, 0, 71, 0
6, 140700, Note_on_c, 0, 72, 44
6, 140700, Note_on_c, 0, 76, 44
6, 140759, Note_on_c, 0, 76, 0
6, 140759, Note_on_c, 0, 72, 0
6, 140760, Note_on_c, 0, 71, 44
6, 140760, Note_on_c, 0, 74, 44
6, 140819, Note_on_c, 0, 74, 0
6, 140819, Note_on_c, 0, 71, 0
6, 140820, Note_on_c, 0, 76, 44
6, 140820, Note_on_c, 0, 72, 44
6, 140879, Note_on_c, 0, 72, 0
6, 140879, Note_on_c, 0, 76, 0
6, 140880, Note_on_c, 0, 77, 44
6, 140880, Note_on_c, 0, 74, 44
6, 141119, Note_on_c, 0, 74, 0
6, 141119, Note_on_c, 0, 77, 0
6, 141360, Note_on_c, 0, 76, 44
6, 141360, Note_on_c, 0, 72, 44
6, 141419, Note_on_c, 0, 72, 0
6, 141419, Note_on_c, 0, 76, 0
6, 141420, Note_on_c, 0, 77, 44
6, 141420, Note_on_c, 0, 74, 44
6, 141479, Note_on_c, 0, 74, 0
6, 141479, Note_on_c, 0, 77, 0
6, 141480, Note_on_c, 0, 76, 44
6, 141480, Note_on_c, 0, 72, 44
6, 141539, Note_on_c, 0, 72, 0
6, 141539, Note_on_c, 0, 76, 0
6, 141540, Note_on_c, 0, 74, 44
6, 141540, Note_on_c, 0, 77, 44
6, 141599, Note_on_c, 0, 77, 0
6, 141599, Note_on_c, 0, 74, 0
6, 141600, Note_on_c, 0, 76, 44
6, 141600, Note_on_c, 0, 79, 44
6, 141839, Note_on_c, 0, 79, 0
6, 141839, Note_on_c, 0, 76, 0
6, 144720, Note_on_c, 0, 76, 44
6, 144720, Note_on_c, 0, 79, 44
6, 144899, Note_on_c, 0, 79, 0
6, 144899, Note_on_c, 0, 76, 0
6, 144960, Note_on_c, 0, 76, 44
6, 144960, Note_on_c, 0, 79, 44
6, 145139, Note_on_c, 0, 79, 0
6, 145139, Note_on_c, 0, 76, 0
6, 145200, Note_on_c, 0, 79, 44
6, 145200, Note_on_c, 0, 76, 44
6, 145379, Note_on_c, 0, 76, 0
6, 145379, Note_on_c, 0, 79, 0
6, 145440, Note_on_c, 0, 81, 44
6, 145440, Note_on_c, 0, 77, 44
6, 145799, Note_on_c, 0, 77, 0
6, 145799, Note_on_c, 0, 81, 0
6, 145800, Note_on_c, 0, 83, 44
6, 145800, Note_on_c, 0, 79, 44
6, 145904, Note_on_c, 0, 79, 0
6, 145904, Note_on_c, 0, 83, 0
6, 145920, Note_on_c, 0, 84, 44
6, 145920, Note_on_c, 0, 81, 44
6, 146099, Note_on_c, 0, 81, 0
6, 146099, Note_on_c, 0, 84, 0
6, 146160, Note_on_c, 0, 74, 44
6, 146160, Note_on_c, 0, 71, 44
6, 146189, Note_on_c, 0, 71, 0
6, 146189, Note_on_c, 0, 74, 0
6, 146190, Note_on_c, 0, 76, 44
6, 146190, Note_on_c, 0, 72, 44
6, 146219, Note_on_c, 0, 72, 0
6, 146219, Note_on_c, 0, 76, 0
6, 146220, Note_on_c, 0, 77, 44
6, 146220, Note_on_c, 0, 74, 44
6, 146399, Note_on_c, 0, 74, 0
6, 146399, Note_on_c, 0, 77, 0
6, 146880, Note_on_c, 0, 72, 44
6, 146880, Note_on_c, 0, 76, 44
6, 146909, Note_on_c, 0, 76, 0
6, 146909, Note_on_c, 0, 72, 0
6, 146910, Note_on_c, 0, 74, 44
6, 146910, Note_on_c, 0, 77, 44
6, 146939, Note_on_c, 0, 77, 0
6, 146939, Note_on_c, 0, 74, 0
6, 146940, Note_on_c, 0, 79, 44
6, 146940, Note_on_c, 0, 76, 44
6, 147119, Note_on_c, 0, 76, 0
6, 147119, Note_on_c, 0, 79, 0
6, 147600, Note_on_c, 0, 79, 44
6, 147600, Note_on_c, 0, 76, 44
6, 147779, Note_on_c, 0, 76, 0
6, 147779, Note_on_c, 0, 79, 0
6, 147840, Note_on_c, 0, 76, 44
6, 147840, Note_on_c, 0, 79, 44
6, 148019, Note_on_c, 0, 79, 0
6, 148019, Note_on_c, 0, 76, 0
6, 148080, Note_on_c, 0, 76, 44
6, 148080, Note_on_c, 0, 79, 44
6, 148259, Note_on_c, 0, 79, 0
6, 148259, Note_on_c, 0, 76, 0
6, 148320, Note_on_c, 0, 81, 44
6, 148320, Note_on_c, 0, 77, 44
6, 148499, Note_on_c, 0, 77, 0
6, 148499, Note_on_c, 0, 81, 0
6, 148500, Note_on_c, 0, 79, 44
6, 148500, Note_on_c, 0, 83, 44
6, 148559, Note_on_c, 0, 83, 0
6, 148559, Note_on_c, 0, 79, 0
6, 148560, Note_on_c, 0, 84, 44
6, 148560, Note_on_c, 0, 81, 44
6, 148664, Note_on_c, 0, 81, 0
6, 148664, Note_on_c, 0, 84, 0
6, 148680, Note_on_c, 0, 79, 44
6, 148680, Note_on_c, 0, 83, 44
6, 148769, Note_on_c, 0, 83, 0
6, 148769, Note_on_c, 0, 79, 0
6, 148800, Note_on_c, 0, 77, 44
6, 148800, Note_on_c, 0, 81, 44
6, 148889, Note_on_c, 0, 81, 0
6, 148889, Note_on_c, 0, 77, 0
6, 148920, Note_on_c, 0, 79, 44
6, 148920, Note_on_c, 0, 76, 44
6, 149009, Note_on_c, 0, 76, 0
6, 149009, Note_on_c, 0, 79, 0
6, 149040, Note_on_c, 0, 79, 44
6, 149040, Note_on_c, 0, 76, 44
6, 149099, Note_on_c, 0, 76, 0
6, 149099, Note_on_c, 0, 79, 0
6, 149100, Note_on_c, 0, 77, 44
6, 149100, Note_on_c, 0, 74, 44
6, 149279, Note_on_c, 0, 74, 0
6, 149279, Note_on_c, 0, 77, 0
6, 149280, Note_on_c, 0, 72, 44
6, 149280, Note_on_c, 0, 76, 44
6, 149519, Note_on_c, 0, 76, 0
6, 149519, Note_on_c, 0, 72, 0
6, 149520, Note_on_c, 0, 74, 44
6, 149520, Note_on_c, 0, 71, 44
6, 149744, Note_on_c, 0, 71, 0
6, 149744, Note_on_c, 0, 74, 0
6, 149760, Note_on_c, 0, 72, 80
6, 149999, Note_on_c, 0, 72, 0
6, 151200, Note_on_c, 0, 84, 80
6, 151200, Note_on_c, 0, 72, 80
6, 151304, Note_on_c, 0, 72, 0
6, 151304, Note_on_c, 0, 84, 0
6, 151320, Note_on_c, 0, 83, 80
6, 151320, Note_on_c, 0, 71, 80
6, 151424, Note_on_c, 0, 71, 0
6, 151424, Note_on_c, 0, 83, 0
6, 151440, Note_on_c, 0, 84, 80
6, 151440, Note_on_c, 0, 72, 80
6, 151544, Note_on_c, 0, 72, 0
6, 151544, Note_on_c, 0, 84, 0
6, 151560, Note_on_c, 0, 71, 80
6, 151560, Note_on_c, 0, 83, 80
6, 151664, Note_on_c, 0, 83, 0
6, 151664, Note_on_c, 0, 71, 0
6, 151680, Note_on_c, 0, 84, 80
6, 151680, Note_on_c, 0, 72, 80
6, 151784, Note_on_c, 0, 72, 0
6, 151784, Note_on_c, 0, 84, 0
6, 151800, Note_on_c, 0, 81, 80
6, 151904, Note_on_c, 0, 81, 0
6, 151920, Note_on_c, 0, 84, 80
6, 151920, Note_on_c, 0, 79, 80
6, 152024, Note_on_c, 0, 79, 0
6, 152024, Note_on_c, 0, 84, 0
6, 152040, Note_on_c, 0, 83, 80
6, 152040, Note_on_c, 0, 77, 80
6, 152144, Note_on_c, 0, 77, 0
6, 152144, Note_on_c, 0, 83, 0
6, 152160, Note_on_c, 0, 76, 80
6, 152160, Note_on_c, 0, 84, 80
6, 152264, Note_on_c, 0, 84, 0
6, 152264, Note_on_c, 0, 76, 0
6, 152280, Note_on_c, 0, 83, 80
6, 152280, Note_on_c, 0, 77, 80
6, 152384, Note_on_c, 0, 77, 0
6, 152384, Note_on_c, 0, 83, 0
6, 152400, Note_on_c, 0, 84, 80
6, 152400, Note_on_c, 0, 79, 80
6, 152504, Note_on_c, 0, 79, 0
6, 152504, Note_on_c, 0, 84, 0
6, 152520, Note_on_c, 0, 76, 80
6, 152520, Note_on_c, 0, 72, 80
6, 152624, Note_on_c, 0, 72, 0
6, 152624, Note_on_c, 0, 76, 0
6, 152640, Note_on_c, 0, 72, 80
6, 152640, Note_on_c, 0, 77, 80
6, 152864, Note_on_c, 0, 77, 0
6, 152864, Note_on_c, 0, 72, 0
6, 152880, Note_on_c, 0, 77, 80
6, 152880, Note_on_c, 0, 71, 80
6, 153104, Note_on_c, 0, 71, 0
6, 153104, Note_on_c, 0, 77, 0
6, 153120, Note_on_c, 0, 77, 80
6, 153120, Note_on_c, 0, 69, 80
6, 153344, Note_on_c, 0, 69, 0
6, 153344, Note_on_c, 0, 77, 0
6, 153360, Note_on_c, 0, 67, 80
6, 153360, Note_on_c, 0, 77, 80
6, 153599, Note_on_c, 0, 67, 0
6, 153600, Note_on_c, 0, 71, 80
6, 153824, Note_on_c, 0, 71, 0
6, 153839, Note_on_c, 0, 77, 0
6, 153840, Note_on_c, 0, 72, 80
6, 153840, Note_on_c, 0, 76, 80
6, 154064, Note_on_c, 0, 76, 0
6, 154064, Note_on_c, 0, 72, 0
6, 154080, Note_on_c, 0, 77, 80
6, 154080, Note_on_c, 0, 74, 80
6, 154304, Note_on_c, 0, 74, 0
6, 154304, Note_on_c, 0, 77, 0
6, 154320, Note_on_c, 0, 76, 80
6, 154320, Note_on_c, 0, 72, 80
6, 154544, Note_on_c, 0, 72, 0
6, 154544, Note_on_c, 0, 76, 0
6, 154560, Note_on_c, 0, 71, 80
6, 154560, Note_on_c, 0, 74, 80
6, 154784, Note_on_c, 0, 74, 0
6, 154784, Note_on_c, 0, 71, 0
6, 154800, Note_on_c, 0, 72, 80
6, 154979, Note_on_c, 0, 72, 0
6, 155040, Note_on_c, 0, 73, 80
6, 155040, Note_on_c, 0, 82, 80
6, 155219, Note_on_c, 0, 82, 0
6, 155219, Note_on_c, 0, 73, 0
6, 155280, Note_on_c, 0, 74, 80
6, 155280, Note_on_c, 0, 81, 80
6, 155459, Note_on_c, 0, 81, 0
6, 155459, Note_on_c, 0, 74, 0
6, 155520, Note_on_c, 0, 79, 80
6, 155520, Note_on_c, 0, 76, 80
6, 155699, Note_on_c, 0, 76, 0
6, 155699, Note_on_c, 0, 79, 0
6, 155760, Note_on_c, 0, 78, 80
6, 155760, Note_on_c, 0, 69, 80
6, 155939, Note_on_c, 0, 69, 0
6, 155939, Note_on_c, 0, 78, 0
6, 158640, Note_on_c, 0, 76, 80
6, 158640, Note_on_c, 0, 79, 80
6, 158879, Note_on_c, 0, 79, 0
6, 158879, Note_on_c, 0, 76, 0
6, 158880, Note_on_c, 0, 74, 80
6, 158880, Note_on_c, 0, 77, 80
6, 159104, Note_on_c, 0, 77, 0
6, 159104, Note_on_c, 0, 74, 0
6, 159120, Note_on_c, 0, 76, 80
6, 159120, Note_on_c, 0, 72, 80
6, 159299, Note_on_c, 0, 72, 0
6, 159299, Note_on_c, 0, 76, 0
6, 159360, Note_on_c, 0, 72, 80
6, 159360, Note_on_c, 0, 76, 80
6, 159599, Note_on_c, 0, 76, 0
6, 159599, Note_on_c, 0, 72, 0
6, 159600, Note_on_c, 0, 74, 80
6, 159600, Note_on_c, 0, 71, 80
6, 159824, Note_on_c, 0, 71, 0
6, 159824, Note_on_c, 0, 74, 0
6, 159840, Note_on_c, 0, 72, 80
6, 160019, Note_on_c, 0, 72, 0
6, 160080, Note_on_c, 0, 79, 80
6, 160080, Note_on_c, 0, 76, 80
6, 160319, Note_on_c, 0, 76, 0
6, 160319, Note_on_c, 0, 79, 0
6, 160320, Note_on_c, 0, 77, 80
6, 160320, Note_on_c, 0, 74, 80
6, 160544, Note_on_c, 0, 74, 0
6, 160544, Note_on_c, 0, 77, 0
6, 160560, Note_on_c, 0, 76, 80
6, 160560, Note_on_c, 0, 72, 80
6, 160739, Note_on_c, 0, 72, 0
6, 160739, Note_on_c, 0, 76, 0
6, 160800, Note_on_c, 0, 76, 80
6, 160800, Note_on_c, 0, 72, 80
6, 161039, Note_on_c, 0, 72, 0
6, 161039, Note_on_c, 0, 76, 0
6, 161040, Note_on_c, 0, 74, 80
6, 161040, Note_on_c, 0, 71, 80
6, 161264, Note_on_c, 0, 71, 0
6, 161264, Note_on_c, 0, 74, 0
6, 161280, Note_on_c, 0, 72, 80
6, 161519, Note_on_c, 0, 72, 0
6, 161760, Note_on_c, 0, 83, 80
6, 161760, Note_on_c, 0, 77, 80
6, 161999, Note_on_c, 0, 77, 0
6, 161999, Note_on_c, 0, 83, 0
6, 162000, Note_on_c, 0, 84, 80
6, 162000, Note_on_c, 0, 76, 80
6, 162239, Note_on_c, 0, 76, 0
6, 162239, Note_on_c, 0, 84, 0
6, 162480, Note_on_c, 0, 83, 80
6, 162480, Note_on_c, 0, 77, 80
6, 162719, Note_on_c, 0, 77, 0
6, 162719, Note_on_c, 0, 83, 0
6, 162720, Note_on_c, 0, 84, 80
6, 162720, Note_on_c, 0, 76, 80
6, 162944, Note_on_c, 0, 76, 0
6, 162944, Note_on_c, 0, 84, 0
6, 162960, Note_on_c, 0, 79, 80
6, 163199, Note_on_c, 0, 79, 0
6, 163440, Note_on_c, 0, 76, 80
6, 163664, Note_on_c, 0, 76, 0
6, 163680, Note_on_c, 0, 72, 80
6, 163919, Note_on_c, 0, 72, 0
6, 167040, Note_on_c, 0, 84, 80
6, 167040, Note_on_c, 0, 76, 80
6, 167759, Note_on_c, 0, 76, 0
6, 167759, Note_on_c, 0, 84, 0
6, 168480, Note_on_c, 0, 84, 80
6, 168480, Note_on_c, 0, 76, 80
6, 169199, Note_on_c, 0, 76, 0
6, 169199, Note_on_c, 0, 84, 0
6, 169920, Note_on_c, 0, 72, 80
6, 170144, Note_on_c, 0, 72, 0
6, 170160, Note_on_c, 0, 79, 80
6, 170384, Note_on_c, 0, 79, 0
6, 170400, Note_on_c, 0, 76, 80
6, 170624, Note_on_c, 0, 76, 0
6, 170640, Note_on_c, 0, 84, 80
6, 170864, Note_on_c, 0, 84, 0
6, 170880, Note_on_c, 0, 79, 80
6, 171104, Note_on_c, 0, 79, 0
6, 171120, Note_on_c, 0, 76, 80
6, 171344, Note_on_c, 0, 76, 0
6, 171360, Note_on_c, 0, 72, 80
6, 171584, Note_on_c, 0, 72, 0
6, 171600, Note_on_c, 0, 67, 80
6, 171824, Note_on_c, 0, 67, 0
6, 171840, Note_on_c, 0, 76, 80
6, 172064, Note_on_c, 0, 76, 0
6, 172080, Note_on_c, 0, 72, 80
6, 172319, Note_on_c, 0, 72, 0
6, 172319, End_track
7, 0, Start_track
7, 0, Title_t, "French Horn in C"
7, 0, Program_c, 1, 60
7, 0, Control_c, 1, 7, 104
7, 0, Control_c, 1, 10, 45
7, 0, Control_c, 1, 121, 0
7, 0, Control_c, 1, 11, 127
7, 0, Note_on_c, 1, 60, 80
7, 224, Note_on_c, 1, 60, 0
7, 240, Note_on_c, 1, 55, 80
7, 479, Note_on_c, 1, 55, 0
7, 720, Note_on_c, 1, 52, 80
7, 944, Note_on_c, 1, 52, 0
7, 960, Note_on_c, 1, 48, 80
7, 1199, Note_on_c, 1, 48, 0
7, 4320, Note_on_c, 1, 60, 80
7, 4544, Note_on_c, 1, 60, 0
7, 4560, Note_on_c, 1, 55, 80
7, 4799, Note_on_c, 1, 55, 0
7, 5040, Note_on_c, 1, 52, 80
7, 5264, Note_on_c, 1, 52, 0
7, 5280, Note_on_c, 1, 48, 80
7, 5519, Note_on_c, 1, 48, 0
7, 8640, Note_on_c, 1, 60, 80
7, 8640, Note_on_c, 1, 48, 80
7, 11264, Note_on_c, 1, 48, 0
7, 11264, Note_on_c, 1, 60, 0
7, 11280, Note_on_c, 1, 55, 80
7, 11280, Note_on_c, 1, 62, 80
7, 11504, Note_on_c, 1, 62, 0
7, 11504, Note_on_c, 1, 55, 0
7, 11520, Note_on_c, 1, 64, 80
7, 11520, Note_on_c, 1, 60, 80
7, 11744, Note_on_c, 1, 60, 0
7, 11744, Note_on_c, 1, 64, 0
7, 11760, Note_on_c, 1, 67, 80
7, 11760, Note_on_c, 1, 64, 80
7, 11819, Note_on_c, 1, 64, 0
7, 11819, Note_on_c, 1, 67, 0
7, 11820, Note_on_c, 1, 62, 80
7, 11820, Note_on_c, 1, 65, 80
7, 11984, Note_on_c, 1, 65, 0
7, 11984, Note_on_c, 1, 62, 0
7, 12000, Note_on_c, 1, 55, 80
7, 12000, Note_on_c, 1, 64, 80
7, 12059, Note_on_c, 1, 64, 0
7, 12060, Note_on_c, 1, 62, 80
7, 12224, Note_on_c, 1, 62, 0
7, 12224, Note_on_c, 1, 55, 0
7, 12240, Note_on_c, 1, 67, 80
7, 12240, Note_on_c, 1, 48, 80
7, 12704, Note_on_c, 1, 48, 0
7, 12720, Note_on_c, 1, 60, 80
7, 12944, Note_on_c, 1, 60, 0
7, 12944, Note_on_c, 1, 67, 0
7, 12960, Note_on_c, 1, 65, 80
7, 12960, Note_on_c, 1, 62, 80
7, 13184, Note_on_c, 1, 62, 0
7, 13184, Note_on_c, 1, 65, 0
7, 13200, Note_on_c, 1, 60, 80
7, 13200, Note_on_c, 1, 64, 80
7, 13424, Note_on_c, 1, 64, 0
7, 13424, Note_on_c, 1, 60, 0
7, 13440, Note_on_c, 1, 55, 80
7, 13440, Note_on_c, 1, 62, 80
7, 13664, Note_on_c, 1, 62, 0
7, 13664, Note_on_c, 1, 55, 0
7, 13680, Note_on_c, 1, 60, 80
7, 13680, Note_on_c, 1, 52, 80
7, 14639, Note_on_c, 1, 52, 0
7, 14639, Note_on_c, 1, 60, 0
7, 15120, Note_on_c, 1, 62, 80
7, 15120, Note_on_c, 1, 55, 80
7, 16079, Note_on_c, 1, 55, 0
7, 16079, Note_on_c, 1, 62, 0
7, 16560, Note_on_c, 1, 52, 80
7, 16560, Note_on_c, 1, 60, 80
7, 17519, Note_on_c, 1, 60, 0
7, 17519, Note_on_c, 1, 52, 0
7, 18000, Note_on_c, 1, 62, 80
7, 19439, Note_on_c, 1, 62, 0
7, 19560, Note_on_c, 1, 62, 80
7, 19560, Note_on_c, 1, 55, 80
7, 19664, Note_on_c, 1, 55, 0
7, 19664, Note_on_c, 1, 62, 0
7, 19680, Note_on_c, 1, 62, 80
7, 19680, Note_on_c, 1, 55, 80
7, 19784, Note_on_c, 1, 55, 0
7, 19784, Note_on_c, 1, 62, 0
7, 19800, Note_on_c, 1, 55, 80
7, 19800, Note_on_c, 1, 62, 80
7, 19904, Note_on_c, 1, 62, 0
7, 19904, Note_on_c, 1, 55, 0
7, 19920, Note_on_c, 1, 62, 80
7, 19920, Note_on_c, 1, 55, 80
7, 20159, Note_on_c, 1, 55, 0
7, 20159, Note_on_c, 1, 62, 0
7, 20280, Note_on_c, 1, 64, 80
7, 20280, Note_on_c, 1, 60, 80
7, 20384, Note_on_c, 1, 60, 0
7, 20384, Note_on_c, 1, 64, 0
7, 20400, Note_on_c, 1, 60, 80
7, 20400, Note_on_c, 1, 64, 80
7, 20504, Note_on_c, 1, 64, 0
7, 20504, Note_on_c, 1, 60, 0
7, 20520, Note_on_c, 1, 64, 80
7, 20520, Note_on_c, 1, 60, 80
7, 20624, Note_on_c, 1, 60, 0
7, 20624, Note_on_c, 1, 64, 0
7, 20640, Note_on_c, 1, 64, 80
7, 20640, Note_on_c, 1, 60, 80
7, 20879, Note_on_c, 1, 60, 0
7, 20879, Note_on_c, 1, 64, 0
7, 21000, Note_on_c, 1, 62, 80
7, 21000, Note_on_c, 1, 55, 80
7, 21104, Note_on_c, 1, 55, 0
7, 21104, Note_on_c, 1, 62, 0
7, 21120, Note_on_c, 1, 62, 80
7, 21120, Note_on_c, 1, 55, 80
7, 21224, Note_on_c, 1, 55, 0
7, 21224, Note_on_c, 1, 62, 0
7, 21240, Note_on_c, 1, 62, 80
7, 21240, Note_on_c, 1, 55, 80
7, 21344, Note_on_c, 1, 55, 0
7, 21344, Note_on_c, 1, 62, 0
7, 21360, Note_on_c, 1, 62, 80
7, 21360, Note_on_c, 1, 55, 80
7, 21584, Note_on_c, 1, 55, 0
7, 21584, Note_on_c, 1, 62, 0
7, 21600, Note_on_c, 1, 64, 80
7, 21600, Note_on_c, 1, 60, 80
7, 21824, Note_on_c, 1, 60, 0
7, 21824, Note_on_c, 1, 64, 0
7, 21840, Note_on_c, 1, 60, 80
7, 21840, Note_on_c, 1, 64, 80
7, 22064, Note_on_c, 1, 64, 0
7, 22064, Note_on_c, 1, 60, 0
7, 22080, Note_on_c, 1, 64, 80
7, 22304, Note_on_c, 1, 64, 0
7, 22320, Note_on_c, 1, 62, 80
7, 22544, Note_on_c, 1, 62, 0
7, 22560, Note_on_c, 1, 62, 80
7, 22799, Note_on_c, 1, 62, 0
7, 35280, Note_on_c, 1, 55, 80
7, 36704, Note_on_c, 1, 55, 0
7, 36720, Note_on_c, 1, 60, 80
7, 36944, Note_on_c, 1, 60, 0
7, 36960, Note_on_c, 1, 60, 80
7, 37184, Note_on_c, 1, 60, 0
7, 37200, Note_on_c, 1, 60, 80
7, 37200, Note_on_c, 1, 64, 80
7, 37424, Note_on_c, 1, 64, 0
7, 37424, Note_on_c, 1, 60, 0
7, 37440, Note_on_c, 1, 62, 80
7, 37680, Note_on_c, 1, 66, 80
7, 37904, Note_on_c, 1, 66, 0
7, 37904, Note_on_c, 1, 62, 0
7, 37920, Note_on_c, 1, 55, 80
7, 37920, Note_on_c, 1, 67, 80
7, 38144, Note_on_c, 1, 67, 0
7, 38160, Note_on_c, 1, 64, 80
7, 38384, Note_on_c, 1, 64, 0
7, 38384, Note_on_c, 1, 55, 0
7, 38400, Note_on_c, 1, 62, 80
7, 38624, Note_on_c, 1, 62, 0
7, 38640, Note_on_c, 1, 60, 80
7, 38864, Note_on_c, 1, 60, 0
7, 38880, Note_on_c, 1, 55, 80
7, 38880, Note_on_c, 1, 67, 80
7, 39059, Note_on_c, 1, 67, 0
7, 39059, Note_on_c, 1, 55, 0
7, 39120, Note_on_c, 1, 65, 80
7, 39120, Note_on_c, 1, 62, 80
7, 39299, Note_on_c, 1, 62, 0
7, 39299, Note_on_c, 1, 65, 0
7, 39360, Note_on_c, 1, 60, 80
7, 39360, Note_on_c, 1, 64, 80
7, 39539, Note_on_c, 1, 64, 0
7, 39539, Note_on_c, 1, 60, 0
7, 39600, Note_on_c, 1, 64, 80
7, 39600, Note_on_c, 1, 52, 80
7, 39779, Note_on_c, 1, 52, 0
7, 39779, Note_on_c, 1, 64, 0
7, 39840, Note_on_c, 1, 64, 80
7, 39840, Note_on_c, 1, 52, 80
7, 40019, Note_on_c, 1, 52, 0
7, 40019, Note_on_c, 1, 64, 0
7, 42480, Note_on_c, 1, 62, 80
7, 42480, Note_on_c, 1, 55, 80
7, 42719, Note_on_c, 1, 55, 0
7, 42719, Note_on_c, 1, 62, 0
7, 42960, Note_on_c, 1, 62, 80
7, 43184, Note_on_c, 1, 62, 0
7, 43200, Note_on_c, 1, 62, 80
7, 43904, Note_on_c, 1, 62, 0
7, 43920, Note_on_c, 1, 62, 80
7, 43920, Note_on_c, 1, 55, 80
7, 44159, Note_on_c, 1, 55, 0
7, 44159, Note_on_c, 1, 62, 0
7, 44400, Note_on_c, 1, 62, 80
7, 44624, Note_on_c, 1, 62, 0
7, 44640, Note_on_c, 1, 62, 80
7, 45344, Note_on_c, 1, 62, 0
7, 45360, Note_on_c, 1, 55, 80
7, 45360, Note_on_c, 1, 62, 80
7, 45599, Note_on_c, 1, 62, 0
7, 45599, Note_on_c, 1, 55, 0
7, 45840, Note_on_c, 1, 62, 80
7, 46064, Note_on_c, 1, 62, 0
7, 46080, Note_on_c, 1, 55, 80
7, 46080, Note_on_c, 1, 62, 80
7, 46319, Note_on_c, 1, 62, 0
7, 46319, Note_on_c, 1, 55, 0
7, 46560, Note_on_c, 1, 62, 80
7, 46784, Note_on_c, 1, 62, 0
7, 46800, Note_on_c, 1, 55, 80
7, 46800, Note_on_c, 1, 62, 80
7, 47039, Note_on_c, 1, 62, 0
7, 47039, Note_on_c, 1, 55, 0
7, 48240, Note_on_c, 1, 60, 80
7, 48464, Note_on_c, 1, 60, 0
7, 48480, Note_on_c, 1, 55, 80
7, 48719, Note_on_c, 1, 55, 0
7, 48960, Note_on_c, 1, 52, 80
7, 49184, Note_on_c, 1, 52, 0
7, 49200, Note_on_c, 1, 48, 80
7, 49439, Note_on_c, 1, 48, 0
7, 52560, Note_on_c, 1, 60, 80
7, 52784, Note_on_c, 1, 60, 0
7, 52800, Note_on_c, 1, 55, 80
7, 53039, Note_on_c, 1, 55, 0
7, 53280, Note_on_c, 1, 52, 80
7, 53504, Note_on_c, 1, 52, 0
7, 53520, Note_on_c, 1, 48, 80
7, 53759, Note_on_c, 1, 48, 0
7, 56880, Note_on_c, 1, 60, 80
7, 56880, Note_on_c, 1, 48, 80
7, 59504, Note_on_c, 1, 48, 0
7, 59504, Note_on_c, 1, 60, 0
7, 59520, Note_on_c, 1, 62, 80
7, 59520, Note_on_c, 1, 55, 80
7, 59744, Note_on_c, 1, 55, 0
7, 59744, Note_on_c, 1, 62, 0
7, 59760, Note_on_c, 1, 60, 80
7, 59760, Note_on_c, 1, 64, 80
7, 59984, Note_on_c, 1, 64, 0
7, 59984, Note_on_c, 1, 60, 0
7, 60000, Note_on_c, 1, 64, 80
7, 60000, Note_on_c, 1, 67, 80
7, 60059, Note_on_c, 1, 67, 0
7, 60059, Note_on_c, 1, 64, 0
7, 60060, Note_on_c, 1, 65, 80
7, 60060, Note_on_c, 1, 62, 80
7, 60224, Note_on_c, 1, 62, 0
7, 60224, Note_on_c, 1, 65, 0
7, 60240, Note_on_c, 1, 55, 80
7, 60240, Note_on_c, 1, 64, 80
7, 60299, Note_on_c, 1, 64, 0
7, 60300, Note_on_c, 1, 62, 80
7, 60464, Note_on_c, 1, 62, 0
7, 60464, Note_on_c, 1, 55, 0
7, 60480, Note_on_c, 1, 48, 80
7, 60480, Note_on_c, 1, 67, 80
7, 60944, Note_on_c, 1, 48, 0
7, 60960, Note_on_c, 1, 60, 80
7, 61184, Note_on_c, 1, 60, 0
7, 61184, Note_on_c, 1, 67, 0
7, 61200, Note_on_c, 1, 62, 80
7, 61200, Note_on_c, 1, 65, 80
7, 61424, Note_on_c, 1, 65, 0
7, 61424, Note_on_c, 1, 62, 0
7, 61440, Note_on_c, 1, 60, 80
7, 61440, Note_on_c, 1, 64, 80
7, 61664, Note_on_c, 1, 64, 0
7, 61664, Note_on_c, 1, 60, 0
7, 61680, Note_on_c, 1, 55, 80
7, 61680, Note_on_c, 1, 62, 80
7, 61904, Note_on_c, 1, 62, 0
7, 61904, Note_on_c, 1, 55, 0
7, 61920, Note_on_c, 1, 60, 80
7, 61920, Note_on_c, 1, 52, 80
7, 62879, Note_on_c, 1, 52, 0
7, 62879, Note_on_c, 1, 60, 0
7, 63360, Note_on_c, 1, 55, 80
7, 63360, Note_on_c, 1, 62, 80
7, 64319, Note_on_c, 1, 62, 0
7, 64319, Note_on_c, 1, 55, 0
7, 64800, Note_on_c, 1, 60, 80
7, 64800, Note_on_c, 1, 52, 80
7, 65759, Note_on_c, 1, 52, 0
7, 65759, Note_on_c, 1, 60, 0
7, 66240, Note_on_c, 1, 62, 80
7, 67679, Note_on_c, 1, 62, 0
7, 67800, Note_on_c, 1, 62, 80
7, 67800, Note_on_c, 1, 55, 80
7, 67904, Note_on_c, 1, 55, 0
7, 67904, Note_on_c, 1, 62, 0
7, 67920, Note_on_c, 1, 55, 80
7, 67920, Note_on_c, 1, 62, 80
7, 68024, Note_on_c, 1, 62, 0
7, 68024, Note_on_c, 1, 55, 0
7, 68040, Note_on_c, 1, 55, 80
7, 68040, Note_on_c, 1, 62, 80
7, 68144, Note_on_c, 1, 62, 0
7, 68144, Note_on_c, 1, 55, 0
7, 68160, Note_on_c, 1, 55, 80
7, 68160, Note_on_c, 1, 62, 80
7, 68399, Note_on_c, 1, 62, 0
7, 68399, Note_on_c, 1, 55, 0
7, 68520, Note_on_c, 1, 60, 80
7, 68520, Note_on_c, 1, 64, 80
7, 68624, Note_on_c, 1, 64, 0
7, 68624, Note_on_c, 1, 60, 0
7, 68640, Note_on_c, 1, 60, 80
7, 68640, Note_on_c, 1, 64, 80
7, 68744, Note_on_c, 1, 64, 0
7, 68744, Note_on_c, 1, 60, 0
7, 68760, Note_on_c, 1, 60, 80
7, 68760, Note_on_c, 1, 64, 80
7, 68864, Note_on_c, 1, 64, 0
7, 68864, Note_on_c, 1, 60, 0
7, 68880, Note_on_c, 1, 64, 80
7, 68880, Note_on_c, 1, 60, 80
7, 69119, Note_on_c, 1, 60, 0
7, 69119, Note_on_c, 1, 64, 0
7, 69240, Note_on_c, 1, 55, 80
7, 69240, Note_on_c, 1, 62, 80
7, 69344, Note_on_c, 1, 62, 0
7, 69344, Note_on_c, 1, 55, 0
7, 69360, Note_on_c, 1, 62, 80
7, 69360, Note_on_c, 1, 55, 80
7, 69464, Note_on_c, 1, 55, 0
7, 69464, Note_on_c, 1, 62, 0
7, 69480, Note_on_c, 1, 55, 80
7, 69480, Note_on_c, 1, 62, 80
7, 69584, Note_on_c, 1, 62, 0
7, 69584, Note_on_c, 1, 55, 0
7, 69600, Note_on_c, 1, 62, 80
7, 69600, Note_on_c, 1, 55, 80
7, 69824, Note_on_c, 1, 55, 0
7, 69824, Note_on_c, 1, 62, 0
7, 69840, Note_on_c, 1, 60, 80
7, 69840, Note_on_c, 1, 64, 80
7, 70064, Note_on_c, 1, 64, 0
7, 70064, Note_on_c, 1, 60, 0
7, 70080, Note_on_c, 1, 64, 80
7, 70080, Note_on_c, 1, 60, 80
7, 70304, Note_on_c, 1, 60, 0
7, 70304, Note_on_c, 1, 64, 0
7, 70320, Note_on_c, 1, 64, 80
7, 70544, Note_on_c, 1, 64, 0
7, 70560, Note_on_c, 1, 62, 80
7, 70784, Note_on_c, 1, 62, 0
7, 70800, Note_on_c, 1, 62, 80
7, 71039, Note_on_c, 1, 62, 0
7, 83520, Note_on_c, 1, 55, 80
7, 84944, Note_on_c, 1, 55, 0
7, 84960, Note_on_c, 1, 60, 80
7, 85184, Note_on_c, 1, 60, 0
7, 85200, Note_on_c, 1, 60, 80
7, 85424, Note_on_c, 1, 60, 0
7, 85440, Note_on_c, 1, 64, 80
7, 85440, Note_on_c, 1, 60, 80
7, 85664, Note_on_c, 1, 60, 0
7, 85664, Note_on_c, 1, 64, 0
7, 85680, Note_on_c, 1, 62, 80
7, 85920, Note_on_c, 1, 66, 80
7, 86144, Note_on_c, 1, 66, 0
7, 86144, Note_on_c, 1, 62, 0
7, 86160, Note_on_c, 1, 55, 80
7, 86160, Note_on_c, 1, 67, 80
7, 86384, Note_on_c, 1, 67, 0
7, 86400, Note_on_c, 1, 64, 80
7, 86624, Note_on_c, 1, 64, 0
7, 86624, Note_on_c, 1, 55, 0
7, 86640, Note_on_c, 1, 62, 80
7, 86864, Note_on_c, 1, 62, 0
7, 86880, Note_on_c, 1, 60, 80
7, 87104, Note_on_c, 1, 60, 0
7, 87120, Note_on_c, 1, 55, 80
7, 87120, Note_on_c, 1, 67, 80
7, 87299, Note_on_c, 1, 67, 0
7, 87299, Note_on_c, 1, 55, 0
7, 87360, Note_on_c, 1, 62, 80
7, 87360, Note_on_c, 1, 65, 80
7, 87539, Note_on_c, 1, 65, 0
7, 87539, Note_on_c, 1, 62, 0
7, 87600, Note_on_c, 1, 64, 80
7, 87600, Note_on_c, 1, 60, 80
7, 87779, Note_on_c, 1, 60, 0
7, 87779, Note_on_c, 1, 64, 0
7, 87840, Note_on_c, 1, 64, 80
7, 87840, Note_on_c, 1, 52, 80
7, 88019, Note_on_c, 1, 52, 0
7, 88019, Note_on_c, 1, 64, 0
7, 88080, Note_on_c, 1, 64, 80
7, 88080, Note_on_c, 1, 52, 80
7, 88259, Note_on_c, 1, 52, 0
7, 88259, Note_on_c, 1, 64, 0
7, 90720, Note_on_c, 1, 55, 80
7, 90720, Note_on_c, 1, 62, 80
7, 90959, Note_on_c, 1, 62, 0
7, 90959, Note_on_c, 1, 55, 0
7, 91200, Note_on_c, 1, 62, 80
7, 91424, Note_on_c, 1, 62, 0
7, 91440, Note_on_c, 1, 62, 80
7, 92144, Note_on_c, 1, 62, 0
7, 92160, Note_on_c, 1, 62, 80
7, 92160, Note_on_c, 1, 55, 80
7, 92399, Note_on_c, 1, 55, 0
7, 92399, Note_on_c, 1, 62, 0
7, 92640, Note_on_c, 1, 62, 80
7, 92864, Note_on_c, 1, 62, 0
7, 92880, Note_on_c, 1, 62, 80
7, 93584, Note_on_c, 1, 62, 0
7, 93600, Note_on_c, 1, 62, 80
7, 93600, Note_on_c, 1, 55, 80
7, 93839, Note_on_c, 1, 55, 0
7, 93839, Note_on_c, 1, 62, 0
7, 94080, Note_on_c, 1, 62, 80
7, 94304, Note_on_c, 1, 62, 0
7, 94320, Note_on_c, 1, 62, 80
7, 94320, Note_on_c, 1, 55, 80
7, 94559, Note_on_c, 1, 55, 0
7, 94559, Note_on_c, 1, 62, 0
7, 94800, Note_on_c, 1, 62, 80
7, 95024, Note_on_c, 1, 62, 0
7, 95040, Note_on_c, 1, 62, 80
7, 95040, Note_on_c, 1, 55, 80
7, 95279, Note_on_c, 1, 55, 0
7, 95279, Note_on_c, 1, 62, 0
7, 96480, Note_on_c, 1, 48, 80
7, 96480, Note_on_c, 1, 60, 80
7, 96719, Note_on_c, 1, 60, 0
7, 96719, Note_on_c, 1, 48, 0
7, 97200, Note_on_c, 1, 48, 80
7, 97200, Note_on_c, 1, 60, 80
7, 97439, Note_on_c, 1, 60, 0
7, 97439, Note_on_c, 1, 48, 0
7, 97920, Note_on_c, 1, 60, 80
7, 97920, Note_on_c, 1, 48, 80
7, 98159, Note_on_c, 1, 48, 0
7, 98159, Note_on_c, 1, 60, 0
7, 98640, Note_on_c, 1, 60, 80
7, 98640, Note_on_c, 1, 48, 80
7, 98879, Note_on_c, 1, 48, 0
7, 98879, Note_on_c, 1, 60, 0
7, 99360, Note_on_c, 1, 60, 80
7, 99360, Note_on_c, 1, 48, 80
7, 99599, Note_on_c, 1, 48, 0
7, 99599, Note_on_c, 1, 60, 0
7, 113040, Note_on_c, 1, 60, 80
7, 113264, Note_on_c, 1, 60, 0
7, 113280, Note_on_c, 1, 55, 80
7, 113519, Note_on_c, 1, 55, 0
7, 113760, Note_on_c, 1, 52, 80
7, 113984, Note_on_c, 1, 52, 0
7, 114000, Note_on_c, 1, 48, 80
7, 114239, Note_on_c, 1, 48, 0
7, 117360, Note_on_c, 1, 60, 80
7, 117584, Note_on_c, 1, 60, 0
7, 117600, Note_on_c, 1, 55, 80
7, 117839, Note_on_c, 1, 55, 0
7, 118080, Note_on_c, 1, 52, 80
7, 118304, Note_on_c, 1, 52, 0
7, 118320, Note_on_c, 1, 48, 80
7, 118559, Note_on_c, 1, 48, 0
7, 121680, Note_on_c, 1, 60, 80
7, 121680, Note_on_c, 1, 48, 80
7, 124304, Note_on_c, 1, 48, 0
7, 124304, Note_on_c, 1, 60, 0
7, 124320, Note_on_c, 1, 55, 80
7, 124320, Note_on_c, 1, 62, 80
7, 124544, Note_on_c, 1, 62, 0
7, 124544, Note_on_c, 1, 55, 0
7, 124560, Note_on_c, 1, 60, 80
7, 124560, Note_on_c, 1, 64, 80
7, 124784, Note_on_c, 1, 64, 0
7, 124784, Note_on_c, 1, 60, 0
7, 124800, Note_on_c, 1, 64, 80
7, 124800, Note_on_c, 1, 67, 80
7, 124859, Note_on_c, 1, 67, 0
7, 124859, Note_on_c, 1, 64, 0
7, 124860, Note_on_c, 1, 62, 80
7, 124860, Note_on_c, 1, 65, 80
7, 125024, Note_on_c, 1, 65, 0
7, 125024, Note_on_c, 1, 62, 0
7, 125040, Note_on_c, 1, 64, 80
7, 125040, Note_on_c, 1, 55, 80
7, 125099, Note_on_c, 1, 64, 0
7, 125100, Note_on_c, 1, 62, 80
7, 125264, Note_on_c, 1, 62, 0
7, 125264, Note_on_c, 1, 55, 0
7, 125280, Note_on_c, 1, 67, 80
7, 125280, Note_on_c, 1, 48, 80
7, 125744, Note_on_c, 1, 48, 0
7, 125760, Note_on_c, 1, 60, 80
7, 125984, Note_on_c, 1, 60, 0
7, 125984, Note_on_c, 1, 67, 0
7, 126000, Note_on_c, 1, 65, 80
7, 126000, Note_on_c, 1, 62, 80
7, 126224, Note_on_c, 1, 62, 0
7, 126224, Note_on_c, 1, 65, 0
7, 126240, Note_on_c, 1, 64, 80
7, 126240, Note_on_c, 1, 60, 80
7, 126464, Note_on_c, 1, 60, 0
7, 126464, Note_on_c, 1, 64, 0
7, 126480, Note_on_c, 1, 55, 80
7, 126480, Note_on_c, 1, 62, 80
7, 126704, Note_on_c, 1, 62, 0
7, 126704, Note_on_c, 1, 55, 0
7, 126720, Note_on_c, 1, 52, 80
7, 126720, Note_on_c, 1, 60, 80
7, 127679, Note_on_c, 1, 60, 0
7, 127679, Note_on_c, 1, 52, 0
7, 128160, Note_on_c, 1, 60, 80
7, 128160, Note_on_c, 1, 48, 80
7, 129119, Note_on_c, 1, 48, 0
7, 129119, Note_on_c, 1, 60, 0
7, 131040, Note_on_c, 1, 62, 80
7, 131999, Note_on_c, 1, 62, 0
7, 132480, Note_on_c, 1, 62, 80
7, 133904, Note_on_c, 1, 62, 0
7, 133920, Note_on_c, 1, 55, 80
7, 133920, Note_on_c, 1, 62, 80
7, 135359, Note_on_c, 1, 62, 0
7, 135359, Note_on_c, 1, 55, 0
7, 135480, Note_on_c, 1, 60, 80
7, 135480, Note_on_c, 1, 64, 80
7, 135584, Note_on_c, 1, 64, 0
7, 135584, Note_on_c, 1, 60, 0
7, 135600, Note_on_c, 1, 60, 80
7, 135600, Note_on_c, 1, 64, 80
7, 135704, Note_on_c, 1, 64, 0
7, 135704, Note_on_c, 1, 60, 0
7, 135720, Note_on_c, 1, 60, 80
7, 135720, Note_on_c, 1, 64, 80
7, 135824, Note_on_c, 1, 64, 0
7, 135824, Note_on_c, 1, 60, 0
7, 135840, Note_on_c, 1, 60, 80
7, 135840, Note_on_c, 1, 64, 80
7, 136079, Note_on_c, 1, 64, 0
7, 136079, Note_on_c, 1, 60, 0
7, 136200, Note_on_c, 1, 65, 80
7, 136200, Note_on_c, 1, 60, 80
7, 136304, Note_on_c, 1, 60, 0
7, 136304, Note_on_c, 1, 65, 0
7, 136320, Note_on_c, 1, 60, 80
7, 136320, Note_on_c, 1, 65, 80
7, 136424, Note_on_c, 1, 65, 0
7, 136424, Note_on_c, 1, 60, 0
7, 136440, Note_on_c, 1, 65, 80
7, 136440, Note_on_c, 1, 60, 80
7, 136544, Note_on_c, 1, 60, 0
7, 136544, Note_on_c, 1, 65, 0
7, 136560, Note_on_c, 1, 65, 80
7, 136560, Note_on_c, 1, 60, 80
7, 136799, Note_on_c, 1, 60, 0
7, 136799, Note_on_c, 1, 65, 0
7, 136920, Note_on_c, 1, 67, 80
7, 136920, Note_on_c, 1, 60, 80
7, 137024, Note_on_c, 1, 60, 0
7, 137024, Note_on_c, 1, 67, 0
7, 137040, Note_on_c, 1, 67, 80
7, 137040, Note_on_c, 1, 60, 80
7, 137144, Note_on_c, 1, 60, 0
7, 137144, Note_on_c, 1, 67, 0
7, 137160, Note_on_c, 1, 67, 80
7, 137160, Note_on_c, 1, 60, 80
7, 137264, Note_on_c, 1, 60, 0
7, 137264, Note_on_c, 1, 67, 0
7, 137280, Note_on_c, 1, 67, 80
7, 137280, Note_on_c, 1, 60, 80
7, 137504, Note_on_c, 1, 60, 0
7, 137504, Note_on_c, 1, 67, 0
7, 137520, Note_on_c, 1, 60, 80
7, 137744, Note_on_c, 1, 60, 0
7, 137760, Note_on_c, 1, 60, 80
7, 137984, Note_on_c, 1, 60, 0
7, 138000, Note_on_c, 1, 60, 80
7, 138224, Note_on_c, 1, 60, 0
7, 138240, Note_on_c, 1, 55, 80
7, 138240, Note_on_c, 1, 67, 80
7, 138464, Note_on_c, 1, 67, 0
7, 138464, Note_on_c, 1, 55, 0
7, 138480, Note_on_c, 1, 43, 80
7, 138480, Note_on_c, 1, 55, 80
7, 138719, Note_on_c, 1, 55, 0
7, 138719, Note_on_c, 1, 43, 0
7, 151200, Note_on_c, 1, 48, 80
7, 151200, Note_on_c, 1, 60, 80
7, 152639, Note_on_c, 1, 60, 0
7, 152639, Note_on_c, 1, 48, 0
7, 152880, Note_on_c, 1, 65, 80
7, 153104, Note_on_c, 1, 65, 0
7, 153120, Note_on_c, 1, 65, 80
7, 153120, Note_on_c, 1, 64, 80
7, 153344, Note_on_c, 1, 64, 0
7, 153344, Note_on_c, 1, 65, 0
7, 153360, Note_on_c, 1, 62, 80
7, 153360, Note_on_c, 1, 65, 80
7, 153824, Note_on_c, 1, 65, 0
7, 153824, Note_on_c, 1, 62, 0
7, 153840, Note_on_c, 1, 60, 80
7, 153840, Note_on_c, 1, 64, 80
7, 154064, Note_on_c, 1, 64, 0
7, 154064, Note_on_c, 1, 60, 0
7, 154080, Note_on_c, 1, 65, 80
7, 154080, Note_on_c, 1, 62, 80
7, 154304, Note_on_c, 1, 62, 0
7, 154304, Note_on_c, 1, 65, 0
7, 154320, Note_on_c, 1, 60, 80
7, 154320, Note_on_c, 1, 64, 80
7, 154544, Note_on_c, 1, 64, 0
7, 154544, Note_on_c, 1, 60, 0
7, 154560, Note_on_c, 1, 62, 80
7, 154560, Note_on_c, 1, 65, 80
7, 154784, Note_on_c, 1, 65, 0
7, 154784, Note_on_c, 1, 62, 0
7, 154800, Note_on_c, 1, 60, 80
7, 154800, Note_on_c, 1, 64, 80
7, 154979, Note_on_c, 1, 64, 0
7, 154979, Note_on_c, 1, 60, 0
7, 155040, Note_on_c, 1, 64, 80
7, 155219, Note_on_c, 1, 64, 0
7, 155280, Note_on_c, 1, 65, 80
7, 155280, Note_on_c, 1, 62, 80
7, 155459, Note_on_c, 1, 62, 0
7, 155459, Note_on_c, 1, 65, 0
7, 155520, Note_on_c, 1, 67, 80
7, 155520, Note_on_c, 1, 64, 80
7, 155699, Note_on_c, 1, 64, 0
7, 155699, Note_on_c, 1, 67, 0
7, 155760, Note_on_c, 1, 62, 80
7, 155760, Note_on_c, 1, 66, 80
7, 155939, Note_on_c, 1, 66, 0
7, 155939, Note_on_c, 1, 62, 0
7, 158640, Note_on_c, 1, 64, 80
7, 158640, Note_on_c, 1, 67, 80
7, 158879, Note_on_c, 1, 67, 0
7, 158879, Note_on_c, 1, 64, 0
7, 158880, Note_on_c, 1, 62, 80
7, 158880, Note_on_c, 1, 65, 80
7, 159104, Note_on_c, 1, 65, 0
7, 159104, Note_on_c, 1, 62, 0
7, 159120, Note_on_c, 1, 60, 80
7, 159120, Note_on_c, 1, 64, 80
7, 159299, Note_on_c, 1, 64, 0
7, 159299, Note_on_c, 1, 60, 0
7, 159360, Note_on_c, 1, 64, 80
7, 159360, Note_on_c, 1, 60, 80
7, 159599, Note_on_c, 1, 60, 0
7, 159599, Note_on_c, 1, 64, 0
7, 159600, Note_on_c, 1, 62, 80
7, 159600, Note_on_c, 1, 55, 80
7, 159824, Note_on_c, 1, 55, 0
7, 159824, Note_on_c, 1, 62, 0
7, 159840, Note_on_c, 1, 52, 80
7, 159840, Note_on_c, 1, 60, 80
7, 160019, Note_on_c, 1, 60, 0
7, 160019, Note_on_c, 1, 52, 0
7, 160080, Note_on_c, 1, 64, 80
7, 160080, Note_on_c, 1, 67, 80
7, 160319, Note_on_c, 1, 67, 0
7, 160319, Note_on_c, 1, 64, 0
7, 160320, Note_on_c, 1, 65, 80
7, 160320, Note_on_c, 1, 62, 80
7, 160544, Note_on_c, 1, 62, 0
7, 160544, Note_on_c, 1, 65, 0
7, 160560, Note_on_c, 1, 64, 80
7, 160560, Note_on_c, 1, 60, 80
7, 160739, Note_on_c, 1, 60, 0
7, 160739, Note_on_c, 1, 64, 0
7, 160800, Note_on_c, 1, 60, 80
7, 160800, Note_on_c, 1, 64, 80
7, 161039, Note_on_c, 1, 64, 0
7, 161039, Note_on_c, 1, 60, 0
7, 161040, Note_on_c, 1, 55, 80
7, 161040, Note_on_c, 1, 62, 80
7, 161264, Note_on_c, 1, 62, 0
7, 161264, Note_on_c, 1, 55, 0
7, 161280, Note_on_c, 1, 52, 80
7, 161280, Note_on_c, 1, 60, 80
7, 161519, Note_on_c, 1, 60, 0
7, 161519, Note_on_c, 1, 52, 0
7, 161760, Note_on_c, 1, 55, 80
7, 161760, Note_on_c, 1, 62, 80
7, 161984, Note_on_c, 1, 62, 0
7, 161984, Note_on_c, 1, 55, 0
7, 162000, Note_on_c, 1, 60, 80
7, 162000, Note_on_c, 1, 64, 80
7, 162239, Note_on_c, 1, 64, 0
7, 162239, Note_on_c, 1, 60, 0
7, 162480, Note_on_c, 1, 62, 80
7, 162480, Note_on_c, 1, 55, 80
7, 162704, Note_on_c, 1, 55, 0
7, 162704, Note_on_c, 1, 62, 0
7, 162720, Note_on_c, 1, 60, 80
7, 162944, Note_on_c, 1, 60, 0
7, 162960, Note_on_c, 1, 55, 80
7, 163199, Note_on_c, 1, 55, 0
7, 163440, Note_on_c, 1, 52, 80
7, 163664, Note_on_c, 1, 52, 0
7, 163680, Note_on_c, 1, 48, 80
7, 163919, Note_on_c, 1, 48, 0
7, 167040, Note_on_c, 1, 60, 80
7, 167264, Note_on_c, 1, 60, 0
7, 167280, Note_on_c, 1, 64, 80
7, 167384, Note_on_c, 1, 64, 0
7, 167400, Note_on_c, 1, 60, 80
7, 167504, Note_on_c, 1, 60, 0
7, 167520, Note_on_c, 1, 55, 80
7, 167759, Note_on_c, 1, 55, 0
7, 168480, Note_on_c, 1, 60, 80
7, 168704, Note_on_c, 1, 60, 0
7, 168720, Note_on_c, 1, 64, 80
7, 168824, Note_on_c, 1, 64, 0
7, 168840, Note_on_c, 1, 60, 80
7, 168944, Note_on_c, 1, 60, 0
7, 168960, Note_on_c, 1, 55, 80
7, 169199, Note_on_c, 1, 55, 0
7, 169920, Note_on_c, 1, 60, 80
7, 169920, Note_on_c, 1, 48, 80
7, 170144, Note_on_c, 1, 48, 0
7, 170144, Note_on_c, 1, 60, 0
7, 170160, Note_on_c, 1, 67, 80
7, 170160, Note_on_c, 1, 55, 80
7, 170384, Note_on_c, 1, 55, 0
7, 170384, Note_on_c, 1, 67, 0
7, 170400, Note_on_c, 1, 64, 80
7, 170400, Note_on_c, 1, 52, 80
7, 170624, Note_on_c, 1, 52, 0
7, 170624, Note_on_c, 1, 64, 0
7, 170640, Note_on_c, 1, 72, 80
7, 170640, Note_on_c, 1, 60, 80
7, 170864, Note_on_c, 1, 60, 0
7, 170864, Note_on_c, 1, 72, 0
7, 170880, Note_on_c, 1, 67, 80
7, 170880, Note_on_c, 1, 55, 80
7, 171104, Note_on_c, 1, 55, 0
7, 171104, Note_on_c, 1, 67, 0
7, 171120, Note_on_c, 1, 64, 80
7, 171120, Note_on_c, 1, 52, 80
7, 171344, Note_on_c, 1, 52, 0
7, 171344, Note_on_c, 1, 64, 0
7, 171360, Note_on_c, 1, 60, 80
7, 171360, Note_on_c, 1, 48, 80
7, 171584, Note_on_c, 1, 48, 0
7, 171584, Note_on_c, 1, 60, 0
7, 171600, Note_on_c, 1, 55, 80
7, 171600, Note_on_c, 1, 43, 80
7, 171824, Note_on_c, 1, 43, 0
7, 171824, Note_on_c, 1, 55, 0
7, 171840, Note_on_c, 1, 64, 80
7, 171840, Note_on_c, 1, 52, 80
7, 172064, Note_on_c, 1, 52, 0
7, 172064, Note_on_c, 1, 64, 0
7, 172080, Note_on_c, 1, 60, 80
7, 172080, Note_on_c, 1, 48, 80
7, 172319, Note_on_c, 1, 48, 0
7, 172319, Note_on_c, 1, 60, 0
7, 172319, End_track
8, 0, Start_track
8, 0, Title_t, "Trumpet in C"
8, 0, Program_c, 2, 56
8, 0, Control_c, 2, 7, 112
8, 0, Control_c, 2, 10, 58
8, 0, Control_c, 2, 121, 0
8, 0, Control_c, 2, 11, 127
8, 0, Note_on_c, 2, 72, 80
8, 224, Note_on_c, 2, 72, 0
8, 240, Note_on_c, 2, 67, 80
8, 479, Note_on_c, 2, 67, 0
8, 720, Note_on_c, 2, 64, 80
8, 944, Note_on_c, 2, 64, 0
8, 960, Note_on_c, 2, 60, 80
8, 1199, Note_on_c, 2, 60, 0
8, 4320, Note_on_c, 2, 72, 80
8, 4544, Note_on_c, 2, 72, 0
8, 4560, Note_on_c, 2, 67, 80
8, 4799, Note_on_c, 2, 67, 0
8, 5040, Note_on_c, 2, 64, 80
8, 5264, Note_on_c, 2, 64, 0
8, 5280, Note_on_c, 2, 60, 80
8, 5519, Note_on_c, 2, 60, 0
8, 8640, Note_on_c, 2, 72, 80
8, 8640, Note_on_c, 2, 60, 80
8, 8879, Note_on_c, 2, 60, 0
8, 8879, Note_on_c, 2, 72, 0
8, 9360, Note_on_c, 2, 60, 80
8, 9360, Note_on_c, 2, 72, 80
8, 9599, Note_on_c, 2, 72, 0
8, 9599, Note_on_c, 2, 60, 0
8, 10080, Note_on_c, 2, 60, 80
8, 10080, Note_on_c, 2, 72, 80
8, 10319, Note_on_c, 2, 72, 0
8, 10319, Note_on_c, 2, 60, 0
8, 11040, Note_on_c, 2, 60, 80
8, 11040, Note_on_c, 2, 72, 80
8, 11264, Note_on_c, 2, 72, 0
8, 11264, Note_on_c, 2, 60, 0
8, 11280, Note_on_c, 2, 67, 80
8, 11280, Note_on_c, 2, 74, 80
8, 11504, Note_on_c, 2, 74, 0
8, 11504, Note_on_c, 2, 67, 0
8, 11520, Note_on_c, 2, 72, 80
8, 11520, Note_on_c, 2, 76, 80
8, 11744, Note_on_c, 2, 76, 0
8, 11744, Note_on_c, 2, 72, 0
8, 11760, Note_on_c, 2, 79, 80
8, 11760, Note_on_c, 2, 76, 80
8, 11819, Note_on_c, 2, 76, 0
8, 11819, Note_on_c, 2, 79, 0
8, 11820, Note_on_c, 2, 77, 80
8, 11820, Note_on_c, 2, 74, 80
8, 11984, Note_on_c, 2, 74, 0
8, 11984, Note_on_c, 2, 77, 0
8, 12000, Note_on_c, 2, 67, 80
8, 12000, Note_on_c, 2, 76, 80
8, 12059, Note_on_c, 2, 76, 0
8, 12060, Note_on_c, 2, 74, 80
8, 12224, Note_on_c, 2, 74, 0
8, 12224, Note_on_c, 2, 67, 0
8, 12240, Note_on_c, 2, 67, 80
8, 12240, Note_on_c, 2, 79, 80
8, 12464, Note_on_c, 2, 67, 0
8, 12480, Note_on_c, 2, 72, 80
8, 12944, Note_on_c, 2, 72, 0
8, 12944, Note_on_c, 2, 79, 0
8, 12960, Note_on_c, 2, 74, 80
8, 12960, Note_on_c, 2, 77, 80
8, 13184, Note_on_c, 2, 77, 0
8, 13184, Note_on_c, 2, 74, 0
8, 13200, Note_on_c, 2, 72, 80
8, 13200, Note_on_c, 2, 76, 80
8, 13424, Note_on_c, 2, 76, 0
8, 13424, Note_on_c, 2, 72, 0
8, 13440, Note_on_c, 2, 67, 80
8, 13440, Note_on_c, 2, 74, 80
8, 13664, Note_on_c, 2, 74, 0
8, 13664, Note_on_c, 2, 67, 0
8, 13680, Note_on_c, 2, 72, 80
8, 13680, Note_on_c, 2, 64, 80
8, 14639, Note_on_c, 2, 64, 0
8, 14639, Note_on_c, 2, 72, 0
8, 15120, Note_on_c, 2, 74, 80
8, 15120, Note_on_c, 2, 67, 80
8, 16079, Note_on_c, 2, 67, 0
8, 16079, Note_on_c, 2, 74, 0
8, 16560, Note_on_c, 2, 72, 80
8, 16560, Note_on_c, 2, 64, 80
8, 17519, Note_on_c, 2, 64, 0
8, 17519, Note_on_c, 2, 72, 0
8, 18000, Note_on_c, 2, 74, 80
8, 19424, Note_on_c, 2, 74, 0
8, 19440, Note_on_c, 2, 67, 80
8, 21599, Note_on_c, 2, 67, 0
8, 22080, Note_on_c, 2, 67, 80
8, 22304, Note_on_c, 2, 67, 0
8, 22320, Note_on_c, 2, 74, 80
8, 22544, Note_on_c, 2, 74, 0
8, 22560, Note_on_c, 2, 74, 80
8, 22799, Note_on_c, 2, 74, 0
8, 35280, Note_on_c, 2, 67, 80
8, 36704, Note_on_c, 2, 67, 0
8, 36720, Note_on_c, 2, 60, 80
8, 36720, Note_on_c, 2, 72, 80
8, 37184, Note_on_c, 2, 72, 0
8, 37184, Note_on_c, 2, 60, 0
8, 37200, Note_on_c, 2, 72, 80
8, 37200, Note_on_c, 2, 76, 80
8, 37424, Note_on_c, 2, 76, 0
8, 37424, Note_on_c, 2, 72, 0
8, 37440, Note_on_c, 2, 74, 80
8, 37904, Note_on_c, 2, 74, 0
8, 37920, Note_on_c, 2, 67, 80
8, 38159, Note_on_c, 2, 67, 0
8, 38400, Note_on_c, 2, 74, 80
8, 38624, Note_on_c, 2, 74, 0
8, 38640, Note_on_c, 2, 72, 80
8, 38864, Note_on_c, 2, 72, 0
8, 38880, Note_on_c, 2, 64, 80
8, 38880, Note_on_c, 2, 67, 80
8, 39119, Note_on_c, 2, 67, 0
8, 39119, Note_on_c, 2, 64, 0
8, 39600, Note_on_c, 2, 64, 80
8, 39779, Note_on_c, 2, 64, 0
8, 39840, Note_on_c, 2, 64, 80
8, 40019, Note_on_c, 2, 64, 0
8, 43200, Note_on_c, 2, 67, 80
8, 43200, Note_on_c, 2, 74, 80
8, 43664, Note_on_c, 2, 74, 0
8, 43664, Note_on_c, 2, 67, 0
8, 43680, Note_on_c, 2, 74, 80
8, 43904, Note_on_c, 2, 74, 0
8, 43920, Note_on_c, 2, 67, 80
8, 43920, Note_on_c, 2, 74, 80
8, 44159, Note_on_c, 2, 74, 0
8, 44159, Note_on_c, 2, 67, 0
8, 44640, Note_on_c, 2, 74, 80
8, 44640, Note_on_c, 2, 67, 80
8, 45104, Note_on_c, 2, 67, 0
8, 45104, Note_on_c, 2, 74, 0
8, 45120, Note_on_c, 2, 74, 80
8, 45344, Note_on_c, 2, 74, 0
8, 45360, Note_on_c, 2, 74, 80
8, 45360, Note_on_c, 2, 67, 80
8, 45599, Note_on_c, 2, 67, 0
8, 45599, Note_on_c, 2, 74, 0
8, 45840, Note_on_c, 2, 74, 80
8, 46064, Note_on_c, 2, 74, 0
8, 46080, Note_on_c, 2, 74, 80
8, 46080, Note_on_c, 2, 67, 80
8, 46319, Note_on_c, 2, 67, 0
8, 46319, Note_on_c, 2, 74, 0
8, 46560, Note_on_c, 2, 74, 80
8, 46784, Note_on_c, 2, 74, 0
8, 46800, Note_on_c, 2, 67, 80
8, 46800, Note_on_c, 2, 74, 80
8, 47039, Note_on_c, 2, 74, 0
8, 47039, Note_on_c, 2, 67, 0
8, 48240, Note_on_c, 2, 72, 80
8, 48464, Note_on_c, 2, 72, 0
8, 48480, Note_on_c, 2, 67, 80
8, 48719, Note_on_c, 2, 67, 0
8, 48960, Note_on_c, 2, 64, 80
8, 49184, Note_on_c, 2, 64, 0
8, 49200, Note_on_c, 2, 60, 80
8, 49439, Note_on_c, 2, 60, 0
8, 52560, Note_on_c, 2, 72, 80
8, 52784, Note_on_c, 2, 72, 0
8, 52800, Note_on_c, 2, 67, 80
8, 53039, Note_on_c, 2, 67, 0
8, 53280, Note_on_c, 2, 64, 80
8, 53504, Note_on_c, 2, 64, 0
8, 53520, Note_on_c, 2, 60, 80
8, 53759, Note_on_c, 2, 60, 0
8, 56880, Note_on_c, 2, 72, 80
8, 56880, Note_on_c, 2, 60, 80
8, 57119, Note_on_c, 2, 60, 0
8, 57119, Note_on_c, 2, 72, 0
8, 57600, Note_on_c, 2, 60, 80
8, 57600, Note_on_c, 2, 72, 80
8, 57839, Note_on_c, 2, 72, 0
8, 57839, Note_on_c, 2, 60, 0
8, 58320, Note_on_c, 2, 60, 80
8, 58320, Note_on_c, 2, 72, 80
8, 58559, Note_on_c, 2, 72, 0
8, 58559, Note_on_c, 2, 60, 0
8, 59280, Note_on_c, 2, 60, 80
8, 59280, Note_on_c, 2, 72, 80
8, 59504, Note_on_c, 2, 72, 0
8, 59504, Note_on_c, 2, 60, 0
8, 59520, Note_on_c, 2, 74, 80
8, 59520, Note_on_c, 2, 67, 80
8, 59744, Note_on_c, 2, 67, 0
8, 59744, Note_on_c, 2, 74, 0
8, 59760, Note_on_c, 2, 76, 80
8, 59760, Note_on_c, 2, 72, 80
8, 59984, Note_on_c, 2, 72, 0
8, 59984, Note_on_c, 2, 76, 0
8, 60000, Note_on_c, 2, 76, 80
8, 60000, Note_on_c, 2, 79, 80
8, 60059, Note_on_c, 2, 79, 0
8, 60059, Note_on_c, 2, 76, 0
8, 60060, Note_on_c, 2, 74, 80
8, 60060, Note_on_c, 2, 77, 80
8, 60224, Note_on_c, 2, 77, 0
8, 60224, Note_on_c, 2, 74, 0
8, 60240, Note_on_c, 2, 67, 80
8, 60240, Note_on_c, 2, 76, 80
8, 60299, Note_on_c, 2, 76, 0
8, 60300, Note_on_c, 2, 74, 80
8, 60464, Note_on_c, 2, 74, 0
8, 60464, Note_on_c, 2, 67, 0
8, 60480, Note_on_c, 2, 79, 80
8, 60480, Note_on_c, 2, 67, 80
8, 60704, Note_on_c, 2, 67, 0
8, 60720, Note_on_c, 2, 72, 80
8, 61184, Note_on_c, 2, 72, 0
8, 61184, Note_on_c, 2, 79, 0
8, 61200, Note_on_c, 2, 74, 80
8, 61200, Note_on_c, 2, 77, 80
8, 61424, Note_on_c, 2, 77, 0
8, 61424, Note_on_c, 2, 74, 0
8, 61440, Note_on_c, 2, 72, 80
8, 61440, Note_on_c, 2, 76, 80
8, 61664, Note_on_c, 2, 76, 0
8, 61664, Note_on_c, 2, 72, 0
8, 61680, Note_on_c, 2, 74, 80
8, 61680, Note_on_c, 2, 67, 80
8, 61904, Note_on_c, 2, 67, 0
8, 61904, Note_on_c, 2, 74, 0
8, 61920, Note_on_c, 2, 64, 80
8, 61920, Note_on_c, 2, 72, 80
8, 62879, Note_on_c, 2, 72, 0
8, 62879, Note_on_c, 2, 64, 0
8, 63360, Note_on_c, 2, 67, 80
8, 63360, Note_on_c, 2, 74, 80
8, 64319, Note_on_c, 2, 74, 0
8, 64319, Note_on_c, 2, 67, 0
8, 64800, Note_on_c, 2, 72, 80
8, 64800, Note_on_c, 2, 64, 80
8, 65759, Note_on_c, 2, 64, 0
8, 65759, Note_on_c, 2, 72, 0
8, 66240, Note_on_c, 2, 74, 80
8, 67664, Note_on_c, 2, 74, 0
8, 67680, Note_on_c, 2, 67, 80
8, 69839, Note_on_c, 2, 67, 0
8, 70320, Note_on_c, 2, 67, 80
8, 70544, Note_on_c, 2, 67, 0
8, 70560, Note_on_c, 2, 74, 80
8, 70784, Note_on_c, 2, 74, 0
8, 70800, Note_on_c, 2, 74, 80
8, 71039, Note_on_c, 2, 74, 0
8, 83520, Note_on_c, 2, 67, 80
8, 84944, Note_on_c, 2, 67, 0
8, 84960, Note_on_c, 2, 72, 80
8, 84960, Note_on_c, 2, 60, 80
8, 85424, Note_on_c, 2, 60, 0
8, 85424, Note_on_c, 2, 72, 0
8, 85440, Note_on_c, 2, 72, 80
8, 85440, Note_on_c, 2, 76, 80
8, 85664, Note_on_c, 2, 76, 0
8, 85664, Note_on_c, 2, 72, 0
8, 85680, Note_on_c, 2, 74, 80
8, 86144, Note_on_c, 2, 74, 0
8, 86160, Note_on_c, 2, 67, 80
8, 86399, Note_on_c, 2, 67, 0
8, 86640, Note_on_c, 2, 74, 80
8, 86864, Note_on_c, 2, 74, 0
8, 86880, Note_on_c, 2, 72, 80
8, 87104, Note_on_c, 2, 72, 0
8, 87120, Note_on_c, 2, 64, 80
8, 87120, Note_on_c, 2, 67, 80
8, 87359, Note_on_c, 2, 67, 0
8, 87359, Note_on_c, 2, 64, 0
8, 87840, Note_on_c, 2, 64, 80
8, 88019, Note_on_c, 2, 64, 0
8, 88080, Note_on_c, 2, 64, 80
8, 88259, Note_on_c, 2, 64, 0
8, 91440, Note_on_c, 2, 74, 80
8, 91440, Note_on_c, 2, 67, 80
8, 91904, Note_on_c, 2, 67, 0
8, 91904, Note_on_c, 2, 74, 0
8, 91920, Note_on_c, 2, 74, 80
8, 92144, Note_on_c, 2, 74, 0
8, 92160, Note_on_c, 2, 67, 80
8, 92160, Note_on_c, 2, 74, 80
8, 92399, Note_on_c, 2, 74, 0
8, 92399, Note_on_c, 2, 67, 0
8, 92880, Note_on_c, 2, 67, 80
8, 92880, Note_on_c, 2, 74, 80
8, 93344, Note_on_c, 2, 74, 0
8, 93344, Note_on_c, 2, 67, 0
8, 93360, Note_on_c, 2, 74, 80
8, 93584, Note_on_c, 2, 74, 0
8, 93600, Note_on_c, 2, 74, 80
8, 93600, Note_on_c, 2, 67, 80
8, 93839, Note_on_c, 2, 67, 0
8, 93839, Note_on_c, 2, 74, 0
8, 94080, Note_on_c, 2, 74, 80
8, 94304, Note_on_c, 2, 74, 0
8, 94320, Note_on_c, 2, 74, 80
8, 94320, Note_on_c, 2, 67, 80
8, 94559, Note_on_c, 2, 67, 0
8, 94559, Note_on_c, 2, 74, 0
8, 94800, Note_on_c, 2, 74, 80
8, 95024, Note_on_c, 2, 74, 0
8, 95040, Note_on_c, 2, 74, 80
8, 95040, Note_on_c, 2, 67, 80
8, 95279, Note_on_c, 2, 67, 0
8, 95279, Note_on_c, 2, 74, 0
8, 96480, Note_on_c, 2, 72, 80
8, 96480, Note_on_c, 2, 60, 80
8, 96719, Note_on_c, 2, 60, 0
8, 96719, Note_on_c, 2, 72, 0
8, 97200, Note_on_c, 2, 60, 80
8, 97200, Note_on_c, 2, 72, 80
8, 97439, Note_on_c, 2, 72, 0
8, 97439, Note_on_c, 2, 60, 0
8, 97920, Note_on_c, 2, 72, 80
8, 97920, Note_on_c, 2, 60, 80
8, 98159, Note_on_c, 2, 60, 0
8, 98159, Note_on_c, 2, 72, 0
8, 98640, Note_on_c, 2, 60, 80
8, 98640, Note_on_c, 2, 72, 80
8, 98879, Note_on_c, 2, 72, 0
8, 98879, Note_on_c, 2, 60, 0
8, 99360, Note_on_c, 2, 72, 80
8, 99360, Note_on_c, 2, 60, 80
8, 99599, Note_on_c, 2, 60, 0
8, 99599, Note_on_c, 2, 72, 0
8, 113040, Note_on_c, 2, 72, 80
8, 113264, Note_on_c, 2, 72, 0
8, 113280, Note_on_c, 2, 67, 80
8, 113519, Note_on_c, 2, 67, 0
8, 113760, Note_on_c, 2, 64, 80
8, 113984, Note_on_c, 2, 64, 0
8, 114000, Note_on_c, 2, 60, 80
8, 114239, Note_on_c, 2, 60, 0
8, 117360, Note_on_c, 2, 72, 80
8, 117584, Note_on_c, 2, 72, 0
8, 117600, Note_on_c, 2, 67, 80
8, 117839, Note_on_c, 2, 67, 0
8, 118080, Note_on_c, 2, 64, 80
8, 118304, Note_on_c, 2, 64, 0
8, 118320, Note_on_c, 2, 60, 80
8, 118559, Note_on_c, 2, 60, 0
8, 121680, Note_on_c, 2, 72, 80
8, 121680, Note_on_c, 2, 60, 80
8, 121919, Note_on_c, 2, 60, 0
8, 121919, Note_on_c, 2, 72, 0
8, 122400, Note_on_c, 2, 72, 80
8, 122400, Note_on_c, 2, 60, 80
8, 122639, Note_on_c, 2, 60, 0
8, 122639, Note_on_c, 2, 72, 0
8, 123120, Note_on_c, 2, 60, 80
8, 123120, Note_on_c, 2, 72, 80
8, 123359, Note_on_c, 2, 72, 0
8, 123359, Note_on_c, 2, 60, 0
8, 124080, Note_on_c, 2, 60, 80
8, 124080, Note_on_c, 2, 72, 80
8, 124304, Note_on_c, 2, 72, 0
8, 124304, Note_on_c, 2, 60, 0
8, 124320, Note_on_c, 2, 74, 80
8, 124320, Note_on_c, 2, 67, 80
8, 124544, Note_on_c, 2, 67, 0
8, 124544, Note_on_c, 2, 74, 0
8, 124560, Note_on_c, 2, 76, 80
8, 124560, Note_on_c, 2, 72, 80
8, 124784, Note_on_c, 2, 72, 0
8, 124784, Note_on_c, 2, 76, 0
8, 124800, Note_on_c, 2, 76, 80
8, 124800, Note_on_c, 2, 79, 80
8, 124859, Note_on_c, 2, 79, 0
8, 124859, Note_on_c, 2, 76, 0
8, 124860, Note_on_c, 2, 77, 80
8, 124860, Note_on_c, 2, 74, 80
8, 125024, Note_on_c, 2, 74, 0
8, 125024, Note_on_c, 2, 77, 0
8, 125040, Note_on_c, 2, 76, 80
8, 125040, Note_on_c, 2, 67, 80
8, 125099, Note_on_c, 2, 76, 0
8, 125100, Note_on_c, 2, 74, 80
8, 125264, Note_on_c, 2, 74, 0
8, 125264, Note_on_c, 2, 67, 0
8, 125280, Note_on_c, 2, 67, 80
8, 125280, Note_on_c, 2, 79, 80
8, 125504, Note_on_c, 2, 67, 0
8, 125520, Note_on_c, 2, 72, 80
8, 125984, Note_on_c, 2, 72, 0
8, 125984, Note_on_c, 2, 79, 0
8, 126000, Note_on_c, 2, 74, 80
8, 126000, Note_on_c, 2, 77, 80
8, 126224, Note_on_c, 2, 77, 0
8, 126224, Note_on_c, 2, 74, 0
8, 126240, Note_on_c, 2, 72, 80
8, 126240, Note_on_c, 2, 76, 80
8, 126464, Note_on_c, 2, 76, 0
8, 126464, Note_on_c, 2, 72, 0
8, 126480, Note_on_c, 2, 74, 80
8, 126480, Note_on_c, 2, 67, 80
8, 126704, Note_on_c, 2, 67, 0
8, 126704, Note_on_c, 2, 74, 0
8, 126720, Note_on_c, 2, 72, 80
8, 126720, Note_on_c, 2, 64, 80
8, 127679, Note_on_c, 2, 64, 0
8, 127679, Note_on_c, 2, 72, 0
8, 128160, Note_on_c, 2, 72, 80
8, 128160, Note_on_c, 2, 60, 80
8, 129119, Note_on_c, 2, 60, 0
8, 129119, Note_on_c, 2, 72, 0
8, 131040, Note_on_c, 2, 74, 80
8, 131999, Note_on_c, 2, 74, 0
8, 132480, Note_on_c, 2, 74, 80
8, 133904, Note_on_c, 2, 74, 0
8, 133920, Note_on_c, 2, 67, 80
8, 133920, Note_on_c, 2, 74, 80
8, 135344, Note_on_c, 2, 74, 0
8, 135344, Note_on_c, 2, 67, 0
8, 135360, Note_on_c, 2, 60, 80
8, 135360, Note_on_c, 2, 72, 80
8, 137519, Note_on_c, 2, 72, 0
8, 137519, Note_on_c, 2, 60, 0
8, 138000, Note_on_c, 2, 72, 80
8, 138000, Note_on_c, 2, 60, 80
8, 138224, Note_on_c, 2, 60, 0
8, 138224, Note_on_c, 2, 72, 0
8, 138240, Note_on_c, 2, 67, 80
8, 138240, Note_on_c, 2, 55, 80
8, 138464, Note_on_c, 2, 55, 0
8, 138464, Note_on_c, 2, 67, 0
8, 138480, Note_on_c, 2, 67, 80
8, 138480, Note_on_c, 2, 55, 80
8, 138719, Note_on_c, 2, 55, 0
8, 138719, Note_on_c, 2, 67, 0
8, 151200, Note_on_c, 2, 60, 80
8, 151200, Note_on_c, 2, 72, 80
8, 152639, Note_on_c, 2, 72, 0
8, 152639, Note_on_c, 2, 60, 0
8, 153360, Note_on_c, 2, 74, 80
8, 153360, Note_on_c, 2, 67, 80
8, 153824, Note_on_c, 2, 67, 0
8, 153824, Note_on_c, 2, 74, 0
8, 153840, Note_on_c, 2, 72, 80
8, 153840, Note_on_c, 2, 76, 80
8, 154079, Note_on_c, 2, 76, 0
8, 154079, Note_on_c, 2, 72, 0
8, 154560, Note_on_c, 2, 74, 80
8, 154784, Note_on_c, 2, 74, 0
8, 154800, Note_on_c, 2, 72, 80
8, 155039, Note_on_c, 2, 72, 0
8, 155520, Note_on_c, 2, 76, 80
8, 155699, Note_on_c, 2, 76, 0
8, 155760, Note_on_c, 2, 74, 80
8, 155939, Note_on_c, 2, 74, 0
8, 159120, Note_on_c, 2, 60, 80
8, 159344, Note_on_c, 2, 60, 0
8, 159360, Note_on_c, 2, 64, 80
8, 159584, Note_on_c, 2, 64, 0
8, 159600, Note_on_c, 2, 67, 80
8, 159824, Note_on_c, 2, 67, 0
8, 159840, Note_on_c, 2, 72, 80
8, 160079, Note_on_c, 2, 72, 0
8, 160560, Note_on_c, 2, 60, 80
8, 160784, Note_on_c, 2, 60, 0
8, 160800, Note_on_c, 2, 64, 80
8, 161024, Note_on_c, 2, 64, 0
8, 161040, Note_on_c, 2, 67, 80
8, 161264, Note_on_c, 2, 67, 0
8, 161280, Note_on_c, 2, 72, 80
8, 161280, Note_on_c, 2, 64, 80
8, 161519, Note_on_c, 2, 64, 0
8, 161519, Note_on_c, 2, 72, 0
8, 161760, Note_on_c, 2, 67, 80
8, 161760, Note_on_c, 2, 74, 80
8, 161984, Note_on_c, 2, 74, 0
8, 161984, Note_on_c, 2, 67, 0
8, 162000, Note_on_c, 2, 72, 80
8, 162000, Note_on_c, 2, 76, 80
8, 162239, Note_on_c, 2, 76, 0
8, 162239, Note_on_c, 2, 72, 0
8, 162480, Note_on_c, 2, 67, 80
8, 162480, Note_on_c, 2, 74, 80
8, 162704, Note_on_c, 2, 74, 0
8, 162704, Note_on_c, 2, 67, 0
8, 162720, Note_on_c, 2, 72, 80
8, 162944, Note_on_c, 2, 72, 0
8, 162960, Note_on_c, 2, 67, 80
8, 163199, Note_on_c, 2, 67, 0
8, 163440, Note_on_c, 2, 64, 80
8, 163664, Note_on_c, 2, 64, 0
8, 163680, Note_on_c, 2, 60, 80
8, 163919, Note_on_c, 2, 60, 0
8, 167040, Note_on_c, 2, 60, 80
8, 167040, Note_on_c, 2, 72, 80
8, 167264, Note_on_c, 2, 72, 0
8, 167264, Note_on_c, 2, 60, 0
8, 167280, Note_on_c, 2, 64, 80
8, 167280, Note_on_c, 2, 76, 80
8, 167384, Note_on_c, 2, 76, 0
8, 167384, Note_on_c, 2, 64, 0
8, 167400, Note_on_c, 2, 72, 80
8, 167400, Note_on_c, 2, 60, 80
8, 167504, Note_on_c, 2, 60, 0
8, 167504, Note_on_c, 2, 72, 0
8, 167520, Note_on_c, 2, 67, 80
8, 167520, Note_on_c, 2, 55, 80
8, 167759, Note_on_c, 2, 55, 0
8, 167759, Note_on_c, 2, 67, 0
8, 168480, Note_on_c, 2, 60, 80
8, 168480, Note_on_c, 2, 72, 80
8, 168704, Note_on_c, 2, 72, 0
8, 168704, Note_on_c, 2, 60, 0
8, 168720, Note_on_c, 2, 76, 80
8, 168720, Note_on_c, 2, 64, 80
8, 168824, Note_on_c, 2, 64, 0
8, 168824, Note_on_c, 2, 76, 0
8, 168840, Note_on_c, 2, 60, 80
8, 168840, Note_on_c, 2, 72, 80
8, 168944, Note_on_c, 2, 72, 0
8, 168944, Note_on_c, 2, 60, 0
8, 168960, Note_on_c, 2, 55, 80
8, 168960, Note_on_c, 2, 67, 80
8, 169199, Note_on_c, 2, 67, 0
8, 169199, Note_on_c, 2, 55, 0
8, 169920, Note_on_c, 2, 60, 80
8, 169920, Note_on_c, 2, 72, 80
8, 170144, Note_on_c, 2, 72, 0
8, 170144, Note_on_c, 2, 60, 0
8, 170160, Note_on_c, 2, 67, 80
8, 170160, Note_on_c, 2, 79, 80
8, 170384, Note_on_c, 2, 79, 0
8, 170384, Note_on_c, 2, 67, 0
8, 170400, Note_on_c, 2, 64, 80
8, 170400, Note_on_c, 2, 76, 80
8, 170624, Note_on_c, 2, 76, 0
8, 170624, Note_on_c, 2, 64, 0
8, 170640, Note_on_c, 2, 72, 80
8, 170640, Note_on_c, 2, 84, 80
8, 170864, Note_on_c, 2, 84, 0
8, 170864, Note_on_c, 2, 72, 0
8, 170880, Note_on_c, 2, 67, 80
8, 170880, Note_on_c, 2, 79, 80
8, 171104, Note_on_c, 2, 79, 0
8, 171104, Note_on_c, 2, 67, 0
8, 171120, Note_on_c, 2, 64, 80
8, 171120, Note_on_c, 2, 76, 80
8, 171344, Note_on_c, 2, 76, 0
8, 171344, Note_on_c, 2, 64, 0
8, 171360, Note_on_c, 2, 60, 80
8, 171360, Note_on_c, 2, 72, 80
8, 171584, Note_on_c, 2, 72, 0
8, 171584, Note_on_c, 2, 60, 0
8, 171600, Note_on_c, 2, 55, 80
8, 171600, Note_on_c, 2, 67, 80
8, 171824, Note_on_c, 2, 67, 0
8, 171824, Note_on_c, 2, 55, 0
8, 171840, Note_on_c, 2, 64, 80
8, 171840, Note_on_c, 2, 76, 80
8, 172064, Note_on_c, 2, 76, 0
8, 172064, Note_on_c, 2, 64, 0
8, 172080, Note_on_c, 2, 60, 80
8, 172080, Note_on_c, 2, 72, 80
8, 172319, Note_on_c, 2, 72, 0
8, 172319, Note_on_c, 2, 60, 0
8, 172319, End_track
9, 0, Start_track
9, 0, Title_t, "Violin I"
9, 0, Program_c, 11, 48
9, 0, Control_c, 11, 7, 96
9, 0, Control_c, 11, 10, 31
9, 0, Control_c, 11, 121, 0
9, 0, Control_c, 11, 11, 127
9, 0, Note_on_c, 11, 72, 80
9, 0, Note_on_c, 11, 64, 80
9, 0, Note_on_c, 11, 55, 80
9, 224, Note_on_c, 11, 55, 0
9, 224, Note_on_c, 11, 64, 0
9, 224, Note_on_c, 11, 72, 0
9, 240, Note_on_c, 11, 67, 80
9, 479, Note_on_c, 11, 67, 0
9, 720, Note_on_c, 11, 64, 80
9, 944, Note_on_c, 11, 64, 0
9, 960, Note_on_c, 11, 60, 80
9, 1199, Note_on_c, 11, 60, 0
9, 1440, Note_on_c, 11, 79, 44
9, 1479, Note_on_c, 11, 79, 0
9, 1480, Note_on_c, 11, 81, 44
9, 1519, Note_on_c, 11, 81, 0
9, 1520, Note_on_c, 11, 79, 44
9, 1559, Note_on_c, 11, 79, 0
9, 1560, Note_on_c, 11, 81, 44
9, 1599, Note_on_c, 11, 81, 0
9, 1600, Note_on_c, 11, 77, 44
9, 1639, Note_on_c, 11, 77, 0
9, 1640, Note_on_c, 11, 79, 44
9, 1679, Note_on_c, 11, 79, 0
9, 1680, Note_on_c, 11, 81, 44
9, 1784, Note_on_c, 11, 81, 0
9, 1800, Note_on_c, 11, 79, 44
9, 1889, Note_on_c, 11, 79, 0
9, 1920, Note_on_c, 11, 77, 44
9, 2009, Note_on_c, 11, 77, 0
9, 2040, Note_on_c, 11, 76, 44
9, 2129, Note_on_c, 11, 76, 0
9, 2160, Note_on_c, 11, 77, 44
9, 2199, Note_on_c, 11, 77, 0
9, 2200, Note_on_c, 11, 79, 44
9, 2239, Note_on_c, 11, 79, 0
9, 2240, Note_on_c, 11, 77, 44
9, 2279, Note_on_c, 11, 77, 0
9, 2280, Note_on_c, 11, 79, 44
9, 2319, Note_on_c, 11, 79, 0
9, 2320, Note_on_c, 11, 76, 44
9, 2359, Note_on_c, 11, 76, 0
9, 2360, Note_on_c, 11, 77, 44
9, 2399, Note_on_c, 11, 77, 0
9, 2400, Note_on_c, 11, 79, 44
9, 2504, Note_on_c, 11, 79, 0
9, 2520, Note_on_c, 11, 77, 44
9, 2609, Note_on_c, 11, 77, 0
9, 2640, Note_on_c, 11, 76, 44
9, 2729, Note_on_c, 11, 76, 0
9, 2760, Note_on_c, 11, 74, 44
9, 2849, Note_on_c, 11, 74, 0
9, 2880, Note_on_c, 11, 76, 44
9, 2919, Note_on_c, 11, 76, 0
9, 2920, Note_on_c, 11, 77, 44
9, 2959, Note_on_c, 11, 77, 0
9, 2960, Note_on_c, 11, 76, 44
9, 2999, Note_on_c, 11, 76, 0
9, 3000, Note_on_c, 11, 77, 44
9, 3039, Note_on_c, 11, 77, 0
9, 3040, Note_on_c, 11, 74, 44
9, 3079, Note_on_c, 11, 74, 0
9, 3080, Note_on_c, 11, 76, 44
9, 3119, Note_on_c, 11, 76, 0
9, 3120, Note_on_c, 11, 77, 44
9, 3224, Note_on_c, 11, 77, 0
9, 3240, Note_on_c, 11, 76, 44
9, 3329, Note_on_c, 11, 76, 0
9, 3360, Note_on_c, 11, 74, 44
9, 3449, Note_on_c, 11, 74, 0
9, 3480, Note_on_c, 11, 72, 44
9, 3569, Note_on_c, 11, 72, 0
9, 3600, Note_on_c, 11, 74, 44
9, 3639, Note_on_c, 11, 74, 0
9, 3640, Note_on_c, 11, 76, 44
9, 3679, Note_on_c, 11, 76, 0
9, 3680, Note_on_c, 11, 74, 44
9, 3719, Note_on_c, 11, 74, 0
9, 3720, Note_on_c, 11, 76, 44
9, 3759, Note_on_c, 11, 76, 0
9, 3760, Note_on_c, 11, 72, 44
9, 3799, Note_on_c, 11, 72, 0
9, 3800, Note_on_c, 11, 74, 44
9, 3839, Note_on_c, 11, 74, 0
9, 3840, Note_on_c, 11, 76, 44
9, 3944, Note_on_c, 11, 76, 0
9, 3960, Note_on_c, 11, 74, 44
9, 4049, Note_on_c, 11, 74, 0
9, 4080, Note_on_c, 11, 72, 44
9, 4169, Note_on_c, 11, 72, 0
9, 4200, Note_on_c, 11, 71, 44
9, 4289, Note_on_c, 11, 71, 0
9, 4320, Note_on_c, 11, 55, 80
9, 4320, Note_on_c, 11, 72, 80
9, 4320, Note_on_c, 11, 64, 80
9, 4544, Note_on_c, 11, 64, 0
9, 4544, Note_on_c, 11, 72, 0
9, 4544, Note_on_c, 11, 55, 0
9, 4560, Note_on_c, 11, 67, 80
9, 4799, Note_on_c, 11, 67, 0
9, 5040, Note_on_c, 11, 64, 80
9, 5264, Note_on_c, 11, 64, 0
9, 5280, Note_on_c, 11, 60, 80
9, 5519, Note_on_c, 11, 60, 0
9, 7200, Note_on_c, 11, 79, 44
9, 7239, Note_on_c, 11, 79, 0
9, 7240, Note_on_c, 11, 81, 44
9, 7279, Note_on_c, 11, 81, 0
9, 7280, Note_on_c, 11, 79, 44
9, 7319, Note_on_c, 11, 79, 0
9, 7320, Note_on_c, 11, 81, 44
9, 7359, Note_on_c, 11, 81, 0
9, 7360, Note_on_c, 11, 77, 44
9, 7399, Note_on_c, 11, 77, 0
9, 7400, Note_on_c, 11, 79, 44
9, 7439, Note_on_c, 11, 79, 0
9, 7440, Note_on_c, 11, 81, 44
9, 7544, Note_on_c, 11, 81, 0
9, 7560, Note_on_c, 11, 79, 44
9, 7649, Note_on_c, 11, 79, 0
9, 7680, Note_on_c, 11, 77, 44
9, 7769, Note_on_c, 11, 77, 0
9, 7800, Note_on_c, 11, 76, 44
9, 7889, Note_on_c, 11, 76, 0
9, 7920, Note_on_c, 11, 77, 44
9, 7959, Note_on_c, 11, 77, 0
9, 7960, Note_on_c, 11, 79, 44
9, 7999, Note_on_c, 11, 79, 0
9, 8000, Note_on_c, 11, 77, 44
9, 8039, Note_on_c, 11, 77, 0
9, 8040, Note_on_c, 11, 79, 44
9, 8079, Note_on_c, 11, 79, 0
9, 8080, Note_on_c, 11, 76, 44
9, 8119, Note_on_c, 11, 76, 0
9, 8120, Note_on_c, 11, 77, 44
9, 8159, Note_on_c, 11, 77, 0
9, 8160, Note_on_c, 11, 79, 44
9, 8264, Note_on_c, 11, 79, 0
9, 8280, Note_on_c, 11, 77, 44
9, 8369, Note_on_c, 11, 77, 0
9, 8400, Note_on_c, 11, 76, 44
9, 8489, Note_on_c, 11, 76, 0
9, 8520, Note_on_c, 11, 74, 44
9, 8609, Note_on_c, 11, 74, 0
9, 8640, Note_on_c, 11, 72, 80
9, 8864, Note_on_c, 11, 72, 0
9, 8880, Note_on_c, 11, 72, 80
9, 8999, Note_on_c, 11, 72, 0
9, 9000, Note_on_c, 11, 76, 80
9, 9104, Note_on_c, 11, 76, 0
9, 9120, Note_on_c, 11, 79, 80
9, 9239, Note_on_c, 11, 79, 0
9, 9240, Note_on_c, 11, 84, 80
9, 9344, Note_on_c, 11, 84, 0
9, 9360, Note_on_c, 11, 84, 80
9, 9479, Note_on_c, 11, 84, 0
9, 9480, Note_on_c, 11, 74, 80
9, 9584, Note_on_c, 11, 74, 0
9, 9600, Note_on_c, 11, 74, 80
9, 9959, Note_on_c, 11, 74, 0
9, 9960, Note_on_c, 11, 76, 80
9, 10064, Note_on_c, 11, 76, 0
9, 10080, Note_on_c, 11, 76, 80
9, 10199, Note_on_c, 11, 76, 0
9, 10200, Note_on_c, 11, 77, 80
9, 10304, Note_on_c, 11, 77, 0
9, 10320, Note_on_c, 11, 77, 80
9, 10679, Note_on_c, 11, 77, 0
9, 10680, Note_on_c, 11, 79, 80
9, 10784, Note_on_c, 11, 79, 0
9, 10800, Note_on_c, 11, 81, 80
9, 11024, Note_on_c, 11, 81, 0
9, 11040, Note_on_c, 11, 79, 80
9, 11384, Note_on_c, 11, 79, 0
9, 11400, Note_on_c, 11, 77, 80
9, 11504, Note_on_c, 11, 77, 0
9, 11520, Note_on_c, 11, 76, 80
9, 11744, Note_on_c, 11, 76, 0
9, 11760, Note_on_c, 11, 79, 80
9, 11819, Note_on_c, 11, 79, 0
9, 11820, Note_on_c, 11, 77, 80
9, 11984, Note_on_c, 11, 77, 0
9, 12000, Note_on_c, 11, 76, 80
9, 12059, Note_on_c, 11, 76, 0
9, 12060, Note_on_c, 11, 74, 80
9, 12224, Note_on_c, 11, 74, 0
9, 12240, Note_on_c, 11, 79, 80
9, 12464, Note_on_c, 11, 79, 0
9, 12480, Note_on_c, 11, 84, 80
9, 12824, Note_on_c, 11, 84, 0
9, 12840, Note_on_c, 11, 76, 80
9, 12944, Note_on_c, 11, 76, 0
9, 12960, Note_on_c, 11, 74, 80
9, 12989, Note_on_c, 11, 74, 0
9, 12990, Note_on_c, 11, 76, 80
9, 13019, Note_on_c, 11, 76, 0
9, 13020, Note_on_c, 11, 77, 80
9, 13184, Note_on_c, 11, 77, 0
9, 13200, Note_on_c, 11, 76, 80
9, 13229, Note_on_c, 11, 76, 0
9, 13230, Note_on_c, 11, 77, 80
9, 13259, Note_on_c, 11, 77, 0
9, 13260, Note_on_c, 11, 79, 80
9, 13424, Note_on_c, 11, 79, 0
9, 13440, Note_on_c, 11, 71, 80
9, 13469, Note_on_c, 11, 71, 0
9, 13470, Note_on_c, 11, 72, 80
9, 13499, Note_on_c, 11, 72, 0
9, 13500, Note_on_c, 11, 74, 80
9, 13664, Note_on_c, 11, 74, 0
9, 13680, Note_on_c, 11, 72, 80
9, 13731, Note_on_c, 11, 72, 0
9, 13740, Note_on_c, 11, 84, 80
9, 13791, Note_on_c, 11, 84, 0
9, 13800, Note_on_c, 11, 84, 80
9, 13851, Note_on_c, 11, 84, 0
9, 13860, Note_on_c, 11, 84, 80
9, 13911, Note_on_c, 11, 84, 0
9, 13920, Note_on_c, 11, 84, 80
9, 13971, Note_on_c, 11, 84, 0
9, 13980, Note_on_c, 11, 84, 80
9, 14031, Note_on_c, 11, 84, 0
9, 14040, Note_on_c, 11, 84, 80
9, 14091, Note_on_c, 11, 84, 0
9, 14100, Note_on_c, 11, 84, 80
9, 14151, Note_on_c, 11, 84, 0
9, 14160, Note_on_c, 11, 84, 80
9, 14211, Note_on_c, 11, 84, 0
9, 14220, Note_on_c, 11, 84, 80
9, 14271, Note_on_c, 11, 84, 0
9, 14280, Note_on_c, 11, 84, 80
9, 14331, Note_on_c, 11, 84, 0
9, 14340, Note_on_c, 11, 84, 80
9, 14391, Note_on_c, 11, 84, 0
9, 14400, Note_on_c, 11, 84, 80
9, 14624, Note_on_c, 11, 84, 0
9, 14640, Note_on_c, 11, 81, 44
9, 14699, Note_on_c, 11, 81, 0
9, 14700, Note_on_c, 11, 79, 44
9, 14744, Note_on_c, 11, 79, 0
9, 14760, Note_on_c, 11, 77, 44
9, 14811, Note_on_c, 11, 77, 0
9, 14820, Note_on_c, 11, 76, 44
9, 14871, Note_on_c, 11, 76, 0
9, 14880, Note_on_c, 11, 81, 44
9, 14939, Note_on_c, 11, 81, 0
9, 14940, Note_on_c, 11, 79, 44
9, 14984, Note_on_c, 11, 79, 0
9, 15000, Note_on_c, 11, 77, 44
9, 15051, Note_on_c, 11, 77, 0
9, 15060, Note_on_c, 11, 76, 44
9, 15111, Note_on_c, 11, 76, 0
9, 15120, Note_on_c, 11, 77, 80
9, 15171, Note_on_c, 11, 77, 0
9, 15180, Note_on_c, 11, 86, 80
9, 15231, Note_on_c, 11, 86, 0
9, 15240, Note_on_c, 11, 86, 80
9, 15291, Note_on_c, 11, 86, 0
9, 15300, Note_on_c, 11, 86, 80
9, 15351, Note_on_c, 11, 86, 0
9, 15360, Note_on_c, 11, 86, 80
9, 15411, Note_on_c, 11, 86, 0
9, 15420, Note_on_c, 11, 86, 80
9, 15471, Note_on_c, 11, 86, 0
9, 15480, Note_on_c, 11, 86, 80
9, 15531, Note_on_c, 11, 86, 0
9, 15540, Note_on_c, 11, 86, 80
9, 15591, Note_on_c, 11, 86, 0
9, 15600, Note_on_c, 11, 86, 80
9, 15651, Note_on_c, 11, 86, 0
9, 15660, Note_on_c, 11, 86, 80
9, 15711, Note_on_c, 11, 86, 0
9, 15720, Note_on_c, 11, 86, 80
9, 15771, Note_on_c, 11, 86, 0
9, 15780, Note_on_c, 11, 86, 80
9, 15831, Note_on_c, 11, 86, 0
9, 15840, Note_on_c, 11, 86, 80
9, 16064, Note_on_c, 11, 86, 0
9, 16080, Note_on_c, 11, 79, 44
9, 16139, Note_on_c, 11, 79, 0
9, 16140, Note_on_c, 11, 77, 44
9, 16184, Note_on_c, 11, 77, 0
9, 16200, Note_on_c, 11, 76, 44
9, 16251, Note_on_c, 11, 76, 0
9, 16260, Note_on_c, 11, 74, 44
9, 16311, Note_on_c, 11, 74, 0
9, 16320, Note_on_c, 11, 79, 44
9, 16379, Note_on_c, 11, 79, 0
9, 16380, Note_on_c, 11, 77, 44
9, 16424, Note_on_c, 11, 77, 0
9, 16440, Note_on_c, 11, 76, 44
9, 16491, Note_on_c, 11, 76, 0
9, 16500, Note_on_c, 11, 74, 44
9, 16551, Note_on_c, 11, 74, 0
9, 16560, Note_on_c, 11, 76, 80
9, 16611, Note_on_c, 11, 76, 0
9, 16620, Note_on_c, 11, 84, 80
9, 16671, Note_on_c, 11, 84, 0
9, 16680, Note_on_c, 11, 84, 80
9, 16731, Note_on_c, 11, 84, 0
9, 16740, Note_on_c, 11, 84, 80
9, 16791, Note_on_c, 11, 84, 0
9, 16800, Note_on_c, 11, 84, 80
9, 16851, Note_on_c, 11, 84, 0
9, 16860, Note_on_c, 11, 84, 80
9, 16911, Note_on_c, 11, 84, 0
9, 16920, Note_on_c, 11, 84, 80
9, 16971, Note_on_c, 11, 84, 0
9, 16980, Note_on_c, 11, 84, 80
9, 17031, Note_on_c, 11, 84, 0
9, 17040, Note_on_c, 11, 84, 80
9, 17091, Note_on_c, 11, 84, 0
9, 17100, Note_on_c, 11, 84, 80
9, 17151, Note_on_c, 11, 84, 0
9, 17160, Note_on_c, 11, 84, 80
9, 17211, Note_on_c, 11, 84, 0
9, 17220, Note_on_c, 11, 84, 80
9, 17271, Note_on_c, 11, 84, 0
9, 17280, Note_on_c, 11, 84, 80
9, 17504, Note_on_c, 11, 84, 0
9, 17520, Note_on_c, 11, 81, 44
9, 17579, Note_on_c, 11, 81, 0
9, 17580, Note_on_c, 11, 79, 44
9, 17624, Note_on_c, 11, 79, 0
9, 17640, Note_on_c, 11, 77, 44
9, 17691, Note_on_c, 11, 77, 0
9, 17700, Note_on_c, 11, 76, 44
9, 17751, Note_on_c, 11, 76, 0
9, 17760, Note_on_c, 11, 81, 44
9, 17819, Note_on_c, 11, 81, 0
9, 17820, Note_on_c, 11, 79, 44
9, 17864, Note_on_c, 11, 79, 0
9, 17880, Note_on_c, 11, 77, 44
9, 17931, Note_on_c, 11, 77, 0
9, 17940, Note_on_c, 11, 76, 44
9, 17991, Note_on_c, 11, 76, 0
9, 18000, Note_on_c, 11, 74, 80
9, 18051, Note_on_c, 11, 74, 0
9, 18060, Note_on_c, 11, 84, 80
9, 18111, Note_on_c, 11, 84, 0
9, 18120, Note_on_c, 11, 84, 80
9, 18171, Note_on_c, 11, 84, 0
9, 18180, Note_on_c, 11, 84, 80
9, 18231, Note_on_c, 11, 84, 0
9, 18240, Note_on_c, 11, 84, 80
9, 18291, Note_on_c, 11, 84, 0
9, 18300, Note_on_c, 11, 84, 80
9, 18351, Note_on_c, 11, 84, 0
9, 18360, Note_on_c, 11, 84, 80
9, 18411, Note_on_c, 11, 84, 0
9, 18420, Note_on_c, 11, 84, 80
9, 18471, Note_on_c, 11, 84, 0
9, 18480, Note_on_c, 11, 84, 80
9, 18531, Note_on_c, 11, 84, 0
9, 18540, Note_on_c, 11, 84, 80
9, 18591, Note_on_c, 11, 84, 0
9, 18600, Note_on_c, 11, 84, 80
9, 18651, Note_on_c, 11, 84, 0
9, 18660, Note_on_c, 11, 84, 80
9, 18711, Note_on_c, 11, 84, 0
9, 18720, Note_on_c, 11, 84, 80
9, 18771, Note_on_c, 11, 84, 0
9, 18780, Note_on_c, 11, 83, 80
9, 18831, Note_on_c, 11, 83, 0
9, 18840, Note_on_c, 11, 81, 80
9, 18891, Note_on_c, 11, 81, 0
9, 18900, Note_on_c, 11, 83, 80
9, 18951, Note_on_c, 11, 83, 0
9, 18960, Note_on_c, 11, 81, 80
9, 19011, Note_on_c, 11, 81, 0
9, 19020, Note_on_c, 11, 79, 80
9, 19071, Note_on_c, 11, 79, 0
9, 19080, Note_on_c, 11, 78, 80
9, 19131, Note_on_c, 11, 78, 0
9, 19140, Note_on_c, 11, 79, 80
9, 19191, Note_on_c, 11, 79, 0
9, 19200, Note_on_c, 11, 78, 80
9, 19251, Note_on_c, 11, 78, 0
9, 19260, Note_on_c, 11, 76, 80
9, 19311, Note_on_c, 11, 76, 0
9, 19320, Note_on_c, 11, 74, 80
9, 19371, Note_on_c, 11, 74, 0
9, 19380, Note_on_c, 11, 72, 80
9, 19431, Note_on_c, 11, 72, 0
9, 19440, Note_on_c, 11, 71, 80
9, 19679, Note_on_c, 11, 71, 0
9, 19920, Note_on_c, 11, 83, 80
9, 19959, Note_on_c, 11, 83, 0
9, 19960, Note_on_c, 11, 84, 80
9, 19999, Note_on_c, 11, 84, 0
9, 20000, Note_on_c, 11, 83, 80
9, 20039, Note_on_c, 11, 83, 0
9, 20040, Note_on_c, 11, 84, 80
9, 20079, Note_on_c, 11, 84, 0
9, 20080, Note_on_c, 11, 81, 80
9, 20119, Note_on_c, 11, 81, 0
9, 20120, Note_on_c, 11, 83, 80
9, 20159, Note_on_c, 11, 83, 0
9, 20160, Note_on_c, 11, 84, 80
9, 20399, Note_on_c, 11, 84, 0
9, 20640, Note_on_c, 11, 84, 80
9, 20679, Note_on_c, 11, 84, 0
9, 20680, Note_on_c, 11, 86, 80
9, 20719, Note_on_c, 11, 86, 0
9, 20720, Note_on_c, 11, 84, 80
9, 20759, Note_on_c, 11, 84, 0
9, 20760, Note_on_c, 11, 86, 80
9, 20799, Note_on_c, 11, 86, 0
9, 20800, Note_on_c, 11, 83, 80
9, 20839, Note_on_c, 11, 83, 0
9, 20840, Note_on_c, 11, 84, 80
9, 20879, Note_on_c, 11, 84, 0
9, 20880, Note_on_c, 11, 86, 80
9, 21119, Note_on_c, 11, 86, 0
9, 21360, Note_on_c, 11, 86, 80
9, 21399, Note_on_c, 11, 86, 0
9, 21400, Note_on_c, 11, 88, 80
9, 21439, Note_on_c, 11, 88, 0
9, 21440, Note_on_c, 11, 86, 80
9, 21479, Note_on_c, 11, 86, 0
9, 21480, Note_on_c, 11, 88, 80
9, 21519, Note_on_c, 11, 88, 0
9, 21520, Note_on_c, 11, 84, 80
9, 21559, Note_on_c, 11, 84, 0
9, 21560, Note_on_c, 11, 86, 80
9, 21599, Note_on_c, 11, 86, 0
9, 21600, Note_on_c, 11, 88, 80
9, 21689, Note_on_c, 11, 88, 0
9, 21720, Note_on_c, 11, 86, 80
9, 21809, Note_on_c, 11, 86, 0
9, 21840, Note_on_c, 11, 84, 80
9, 21929, Note_on_c, 11, 84, 0
9, 21960, Note_on_c, 11, 83, 80
9, 22049, Note_on_c, 11, 83, 0
9, 22080, Note_on_c, 11, 81, 80
9, 22169, Note_on_c, 11, 81, 0
9, 22200, Note_on_c, 11, 79, 80
9, 22289, Note_on_c, 11, 79, 0
9, 22320, Note_on_c, 11, 86, 80
9, 22320, Note_on_c, 11, 74, 80
9, 22544, Note_on_c, 11, 74, 0
9, 22544, Note_on_c, 11, 86, 0
9, 22560, Note_on_c, 11, 62, 80
9, 22799, Note_on_c, 11, 62, 0
9, 23040, Note_on_c, 11, 74, 44
9, 23219, Note_on_c, 11, 74, 0
9, 23280, Note_on_c, 11, 74, 44
9, 23459, Note_on_c, 11, 74, 0
9, 23520, Note_on_c, 11, 74, 44
9, 23699, Note_on_c, 11, 74, 0
9, 23760, Note_on_c, 11, 76, 44
9, 24119, Note_on_c, 11, 76, 0
9, 24120, Note_on_c, 11, 78, 44
9, 24224, Note_on_c, 11, 78, 0
9, 24240, Note_on_c, 11, 79, 44
9, 24419, Note_on_c, 11, 79, 0
9, 24480, Note_on_c, 11, 69, 44
9, 24509, Note_on_c, 11, 69, 0
9, 24510, Note_on_c, 11, 71, 44
9, 24539, Note_on_c, 11, 71, 0
9, 24540, Note_on_c, 11, 72, 44
9, 24719, Note_on_c, 11, 72, 0
9, 25200, Note_on_c, 11, 71, 44
9, 25229, Note_on_c, 11, 71, 0
9, 25230, Note_on_c, 11, 72, 44
9, 25259, Note_on_c, 11, 72, 0
9, 25260, Note_on_c, 11, 74, 44
9, 25439, Note_on_c, 11, 74, 0
9, 25920, Note_on_c, 11, 74, 44
9, 26099, Note_on_c, 11, 74, 0
9, 26160, Note_on_c, 11, 74, 44
9, 26339, Note_on_c, 11, 74, 0
9, 26400, Note_on_c, 11, 74, 44
9, 26579, Note_on_c, 11, 74, 0
9, 26640, Note_on_c, 11, 76, 44
9, 26819, Note_on_c, 11, 76, 0
9, 26820, Note_on_c, 11, 78, 44
9, 26879, Note_on_c, 11, 78, 0
9, 26880, Note_on_c, 11, 79, 44
9, 26984, Note_on_c, 11, 79, 0
9, 27000, Note_on_c, 11, 78, 44
9, 27089, Note_on_c, 11, 78, 0
9, 27120, Note_on_c, 11, 76, 44
9, 27209, Note_on_c, 11, 76, 0
9, 27240, Note_on_c, 11, 74, 44
9, 27329, Note_on_c, 11, 74, 0
9, 27360, Note_on_c, 11, 74, 44
9, 27419, Note_on_c, 11, 74, 0
9, 27420, Note_on_c, 11, 72, 44
9, 27584, Note_on_c, 11, 72, 0
9, 27600, Note_on_c, 11, 71, 44
9, 27824, Note_on_c, 11, 71, 0
9, 27840, Note_on_c, 11, 69, 44
9, 28064, Note_on_c, 11, 69, 0
9, 28080, Note_on_c, 11, 70, 44
9, 28559, Note_on_c, 11, 70, 0
9, 28560, Note_on_c, 11, 71, 44
9, 28679, Note_on_c, 11, 71, 0
9, 30480, Note_on_c, 11, 66, 44
9, 30539, Note_on_c, 11, 66, 0
9, 30540, Note_on_c, 11, 67, 44
9, 30599, Note_on_c, 11, 67, 0
9, 30600, Note_on_c, 11, 66, 44
9, 30659, Note_on_c, 11, 66, 0
9, 30660, Note_on_c, 11, 67, 44
9, 30719, Note_on_c, 11, 67, 0
9, 30720, Note_on_c, 11, 69, 44
9, 30959, Note_on_c, 11, 69, 0
9, 31200, Note_on_c, 11, 67, 44
9, 31259, Note_on_c, 11, 67, 0
9, 31260, Note_on_c, 11, 69, 44
9, 31319, Note_on_c, 11, 69, 0
9, 31320, Note_on_c, 11, 67, 44
9, 31379, Note_on_c, 11, 67, 0
9, 31380, Note_on_c, 11, 69, 44
9, 31439, Note_on_c, 11, 69, 0
9, 31440, Note_on_c, 11, 71, 44
9, 31679, Note_on_c, 11, 71, 0
9, 33840, Note_on_c, 11, 86, 80
9, 33891, Note_on_c, 11, 86, 0
9, 33900, Note_on_c, 11, 86, 80
9, 33951, Note_on_c, 11, 86, 0
9, 33960, Note_on_c, 11, 85, 80
9, 34011, Note_on_c, 11, 85, 0
9, 34020, Note_on_c, 11, 85, 80
9, 34071, Note_on_c, 11, 85, 0
9, 34080, Note_on_c, 11, 86, 80
9, 34131, Note_on_c, 11, 86, 0
9, 34140, Note_on_c, 11, 86, 80
9, 34191, Note_on_c, 11, 86, 0
9, 34200, Note_on_c, 11, 85, 80
9, 34251, Note_on_c, 11, 85, 0
9, 34260, Note_on_c, 11, 85, 80
9, 34311, Note_on_c, 11, 85, 0
9, 34320, Note_on_c, 11, 86, 80
9, 34371, Note_on_c, 11, 86, 0
9, 34380, Note_on_c, 11, 86, 80
9, 34431, Note_on_c, 11, 86, 0
9, 34440, Note_on_c, 11, 83, 80
9, 34491, Note_on_c, 11, 83, 0
9, 34500, Note_on_c, 11, 83, 80
9, 34551, Note_on_c, 11, 83, 0
9, 34560, Note_on_c, 11, 86, 80
9, 34611, Note_on_c, 11, 86, 0
9, 34620, Note_on_c, 11, 86, 80
9, 34671, Note_on_c, 11, 86, 0
9, 34680, Note_on_c, 11, 85, 80
9, 34731, Note_on_c, 11, 85, 0
9, 34740, Note_on_c, 11, 85, 80
9, 34791, Note_on_c, 11, 85, 0
9, 34800, Note_on_c, 11, 86, 80
9, 34851, Note_on_c, 11, 86, 0
9, 34860, Note_on_c, 11, 86, 80
9, 34911, Note_on_c, 11, 86, 0
9, 34920, Note_on_c, 11, 85, 80
9, 34971, Note_on_c, 11, 85, 0
9, 34980, Note_on_c, 11, 85, 80
9, 35031, Note_on_c, 11, 85, 0
9, 35040, Note_on_c, 11, 86, 80
9, 35091, Note_on_c, 11, 86, 0
9, 35100, Note_on_c, 11, 86, 80
9, 35151, Note_on_c, 11, 86, 0
9, 35160, Note_on_c, 11, 81, 80
9, 35211, Note_on_c, 11, 81, 0
9, 35220, Note_on_c, 11, 81, 80
9, 35271, Note_on_c, 11, 81, 0
9, 35280, Note_on_c, 11, 79, 80
9, 35331, Note_on_c, 11, 79, 0
9, 35340, Note_on_c, 11, 79, 80
9, 35391, Note_on_c, 11, 79, 0
9, 35400, Note_on_c, 11, 78, 80
9, 35451, Note_on_c, 11, 78, 0
9, 35460, Note_on_c, 11, 78, 80
9, 35511, Note_on_c, 11, 78, 0
9, 35520, Note_on_c, 11, 79, 80
9, 35571, Note_on_c, 11, 79, 0
9, 35580, Note_on_c, 11, 79, 80
9, 35631, Note_on_c, 11, 79, 0
9, 35640, Note_on_c, 11, 78, 80
9, 35691, Note_on_c, 11, 78, 0
9, 35700, Note_on_c, 11, 78, 80
9, 35751, Note_on_c, 11, 78, 0
9, 35760, Note_on_c, 11, 79, 80
9, 35811, Note_on_c, 11, 79, 0
9, 35820, Note_on_c, 11, 79, 80
9, 35871, Note_on_c, 11, 79, 0
9, 35880, Note_on_c, 11, 76, 80
9, 35931, Note_on_c, 11, 76, 0
9, 35940, Note_on_c, 11, 76, 80
9, 35991, Note_on_c, 11, 76, 0
9, 36000, Note_on_c, 11, 79, 80
9, 36051, Note_on_c, 11, 79, 0
9, 36060, Note_on_c, 11, 79, 80
9, 36111, Note_on_c, 11, 79, 0
9, 36120, Note_on_c, 11, 78, 80
9, 36171, Note_on_c, 11, 78, 0
9, 36180, Note_on_c, 11, 78, 80
9, 36231, Note_on_c, 11, 78, 0
9, 36240, Note_on_c, 11, 79, 80
9, 36291, Note_on_c, 11, 79, 0
9, 36300, Note_on_c, 11, 79, 80
9, 36351, Note_on_c, 11, 79, 0
9, 36360, Note_on_c, 11, 78, 80
9, 36411, Note_on_c, 11, 78, 0
9, 36420, Note_on_c, 11, 78, 80
9, 36471, Note_on_c, 11, 78, 0
9, 36480, Note_on_c, 11, 79, 80
9, 36531, Note_on_c, 11, 79, 0
9, 36540, Note_on_c, 11, 79, 80
9, 36591, Note_on_c, 11, 79, 0
9, 36600, Note_on_c, 11, 71, 80
9, 36651, Note_on_c, 11, 71, 0
9, 36660, Note_on_c, 11, 71, 80
9, 36711, Note_on_c, 11, 71, 0
9, 36720, Note_on_c, 11, 72, 80
9, 36944, Note_on_c, 11, 72, 0
9, 36960, Note_on_c, 11, 84, 80
9, 37184, Note_on_c, 11, 84, 0
9, 37200, Note_on_c, 11, 84, 80
9, 37424, Note_on_c, 11, 84, 0
9, 37440, Note_on_c, 11, 84, 80
9, 37664, Note_on_c, 11, 84, 0
9, 37680, Note_on_c, 11, 86, 80
9, 37739, Note_on_c, 11, 86, 0
9, 37740, Note_on_c, 11, 84, 80
9, 37784, Note_on_c, 11, 84, 0
9, 37800, Note_on_c, 11, 83, 80
9, 37851, Note_on_c, 11, 83, 0
9, 37860, Note_on_c, 11, 81, 80
9, 37911, Note_on_c, 11, 81, 0
9, 37920, Note_on_c, 11, 83, 80
9, 38144, Note_on_c, 11, 83, 0
9, 38160, Note_on_c, 11, 76, 80
9, 38339, Note_on_c, 11, 76, 0
9, 38340, Note_on_c, 11, 81, 80
9, 38391, Note_on_c, 11, 81, 0
9, 38400, Note_on_c, 11, 79, 80
9, 38639, Note_on_c, 11, 79, 0
9, 38640, Note_on_c, 11, 78, 80
9, 38864, Note_on_c, 11, 78, 0
9, 38880, Note_on_c, 11, 79, 80
9, 39059, Note_on_c, 11, 79, 0
9, 39120, Note_on_c, 11, 77, 80
9, 39299, Note_on_c, 11, 77, 0
9, 39360, Note_on_c, 11, 76, 80
9, 39539, Note_on_c, 11, 76, 0
9, 39600, Note_on_c, 11, 64, 80
9, 39600, Note_on_c, 11, 74, 80
9, 39779, Note_on_c, 11, 74, 0
9, 39779, Note_on_c, 11, 64, 0
9, 39840, Note_on_c, 11, 73, 80
9, 39840, Note_on_c, 11, 64, 80
9, 40019, Note_on_c, 11, 64, 0
9, 40019, Note_on_c, 11, 73, 0
9, 40320, Note_on_c, 11, 60, 44
9, 40544, Note_on_c, 11, 60, 0
9, 40560, Note_on_c, 11, 72, 44
9, 40784, Note_on_c, 11, 72, 0
9, 40800, Note_on_c, 11, 72, 44
9, 41024, Note_on_c, 11, 72, 0
9, 41040, Note_on_c, 11, 72, 44
9, 41264, Note_on_c, 11, 72, 0
9, 41280, Note_on_c, 11, 74, 44
9, 41339, Note_on_c, 11, 74, 0
9, 41340, Note_on_c, 11, 72, 44
9, 41384, Note_on_c, 11, 72, 0
9, 41400, Note_on_c, 11, 71, 44
9, 41451, Note_on_c, 11, 71, 0
9, 41460, Note_on_c, 11, 69, 44
9, 41511, Note_on_c, 11, 69, 0
9, 41520, Note_on_c, 11, 71, 44
9, 41744, Note_on_c, 11, 71, 0
9, 41760, Note_on_c, 11, 64, 44
9, 41939, Note_on_c, 11, 64, 0
9, 41940, Note_on_c, 11, 69, 44
9, 41991, Note_on_c, 11, 69, 0
9, 42000, Note_on_c, 11, 67, 44
9, 42239, Note_on_c, 11, 67, 0
9, 42240, Note_on_c, 11, 66, 44
9, 42464, Note_on_c, 11, 66, 0
9, 42480, Note_on_c, 11, 67, 80
9, 42719, Note_on_c, 11, 67, 0
9, 42960, Note_on_c, 11, 86, 80
9, 43019, Note_on_c, 11, 86, 0
9, 43020, Note_on_c, 11, 84, 80
9, 43064, Note_on_c, 11, 84, 0
9, 43080, Note_on_c, 11, 83, 80
9, 43131, Note_on_c, 11, 83, 0
9, 43140, Note_on_c, 11, 81, 80
9, 43191, Note_on_c, 11, 81, 0
9, 43200, Note_on_c, 11, 83, 80
9, 43439, Note_on_c, 11, 83, 0
9, 43680, Note_on_c, 11, 83, 80
9, 43739, Note_on_c, 11, 83, 0
9, 43740, Note_on_c, 11, 81, 80
9, 43784, Note_on_c, 11, 81, 0
9, 43800, Note_on_c, 11, 79, 80
9, 43851, Note_on_c, 11, 79, 0
9, 43860, Note_on_c, 11, 78, 80
9, 43911, Note_on_c, 11, 78, 0
9, 43920, Note_on_c, 11, 79, 80
9, 44159, Note_on_c, 11, 79, 0
9, 44400, Note_on_c, 11, 86, 80
9, 44459, Note_on_c, 11, 86, 0
9, 44460, Note_on_c, 11, 84, 80
9, 44504, Note_on_c, 11, 84, 0
9, 44520, Note_on_c, 11, 83, 80
9, 44571, Note_on_c, 11, 83, 0
9, 44580, Note_on_c, 11, 81, 80
9, 44631, Note_on_c, 11, 81, 0
9, 44640, Note_on_c, 11, 83, 80
9, 44879, Note_on_c, 11, 83, 0
9, 45120, Note_on_c, 11, 83, 80
9, 45179, Note_on_c, 11, 83, 0
9, 45180, Note_on_c, 11, 81, 80
9, 45224, Note_on_c, 11, 81, 0
9, 45240, Note_on_c, 11, 79, 80
9, 45291, Note_on_c, 11, 79, 0
9, 45300, Note_on_c, 11, 78, 80
9, 45351, Note_on_c, 11, 78, 0
9, 45360, Note_on_c, 11, 79, 80
9, 45411, Note_on_c, 11, 79, 0
9, 45420, Note_on_c, 11, 74, 80
9, 45471, Note_on_c, 11, 74, 0
9, 45480, Note_on_c, 11, 74, 80
9, 45531, Note_on_c, 11, 74, 0
9, 45540, Note_on_c, 11, 74, 80
9, 45591, Note_on_c, 11, 74, 0
9, 45600, Note_on_c, 11, 83, 80
9, 45651, Note_on_c, 11, 83, 0
9, 45660, Note_on_c, 11, 74, 80
9, 45711, Note_on_c, 11, 74, 0
9, 45720, Note_on_c, 11, 74, 80
9, 45771, Note_on_c, 11, 74, 0
9, 45780, Note_on_c, 11, 74, 80
9, 45831, Note_on_c, 11, 74, 0
9, 45840, Note_on_c, 11, 78, 80
9, 45891, Note_on_c, 11, 78, 0
9, 45900, Note_on_c, 11, 74, 80
9, 45951, Note_on_c, 11, 74, 0
9, 45960, Note_on_c, 11, 74, 80
9, 46011, Note_on_c, 11, 74, 0
9, 46020, Note_on_c, 11, 74, 80
9, 46071, Note_on_c, 11, 74, 0
9, 46080, Note_on_c, 11, 79, 80
9, 46131, Note_on_c, 11, 79, 0
9, 46140, Note_on_c, 11, 74, 80
9, 46191, Note_on_c, 11, 74, 0
9, 46200, Note_on_c, 11, 74, 80
9, 46251, Note_on_c, 11, 74, 0
9, 46260, Note_on_c, 11, 74, 80
9, 46311, Note_on_c, 11, 74, 0
9, 46320, Note_on_c, 11, 83, 80
9, 46371, Note_on_c, 11, 83, 0
9, 46380, Note_on_c, 11, 74, 80
9, 46431, Note_on_c, 11, 74, 0
9, 46440, Note_on_c, 11, 74, 80
9, 46491, Note_on_c, 11, 74, 0
9, 46500, Note_on_c, 11, 74, 80
9, 46551, Note_on_c, 11, 74, 0
9, 46560, Note_on_c, 11, 78, 80
9, 46611, Note_on_c, 11, 78, 0
9, 46620, Note_on_c, 11, 74, 80
9, 46671, Note_on_c, 11, 74, 0
9, 46680, Note_on_c, 11, 74, 80
9, 46731, Note_on_c, 11, 74, 0
9, 46740, Note_on_c, 11, 74, 80
9, 46791, Note_on_c, 11, 74, 0
9, 46800, Note_on_c, 11, 79, 80
9, 47024, Note_on_c, 11, 79, 0
9, 47040, Note_on_c, 11, 67, 80
9, 47129, Note_on_c, 11, 67, 0
9, 47160, Note_on_c, 11, 69, 80
9, 47249, Note_on_c, 11, 69, 0
9, 47280, Note_on_c, 11, 71, 80
9, 47369, Note_on_c, 11, 71, 0
9, 47400, Note_on_c, 11, 72, 80
9, 47489, Note_on_c, 11, 72, 0
9, 47520, Note_on_c, 11, 74, 80
9, 47609, Note_on_c, 11, 74, 0
9, 47640, Note_on_c, 11, 76, 80
9, 47729, Note_on_c, 11, 76, 0
9, 47760, Note_on_c, 11, 77, 80
9, 47849, Note_on_c, 11, 77, 0
9, 47880, Note_on_c, 11, 74, 80
9, 47969, Note_on_c, 11, 74, 0
9, 48000, Note_on_c, 11, 71, 80
9, 48089, Note_on_c, 11, 71, 0
9, 48120, Note_on_c, 11, 67, 80
9, 48209, Note_on_c, 11, 67, 0
9, 48240, Note_on_c, 11, 72, 80
9, 48240, Note_on_c, 11, 64, 80
9, 48240, Note_on_c, 11, 55, 80
9, 48464, Note_on_c, 11, 55, 0
9, 48464, Note_on_c, 11, 64, 0
9, 48464, Note_on_c, 11, 72, 0
9, 48480, Note_on_c, 11, 67, 80
9, 48719, Note_on_c, 11, 67, 0
9, 48960, Note_on_c, 11, 64, 80
9, 49184, Note_on_c, 11, 64, 0
9, 49200, Note_on_c, 11, 60, 80
9, 49439, Note_on_c, 11, 60, 0
9, 49680, Note_on_c, 11, 79, 44
9, 49719, Note_on_c, 11, 79, 0
9, 49720, Note_on_c, 11, 81, 44
9, 49759, Note_on_c, 11, 81, 0
9, 49760, Note_on_c, 11, 79, 44
9, 49799, Note_on_c, 11, 79, 0
9, 49800, Note_on_c, 11, 81, 44
9, 49839, Note_on_c, 11, 81, 0
9, 49840, Note_on_c, 11, 77, 44
9, 49879, Note_on_c, 11, 77, 0
9, 49880, Note_on_c, 11, 79, 44
9, 49919, Note_on_c, 11, 79, 0
9, 49920, Note_on_c, 11, 81, 44
9, 50024, Note_on_c, 11, 81, 0
9, 50040, Note_on_c, 11, 79, 44
9, 50129, Note_on_c, 11, 79, 0
9, 50160, Note_on_c, 11, 77, 44
9, 50249, Note_on_c, 11, 77, 0
9, 50280, Note_on_c, 11, 76, 44
9, 50369, Note_on_c, 11, 76, 0
9, 50400, Note_on_c, 11, 77, 44
9, 50439, Note_on_c, 11, 77, 0
9, 50440, Note_on_c, 11, 79, 44
9, 50479, Note_on_c, 11, 79, 0
9, 50480, Note_on_c, 11, 77, 44
9, 50519, Note_on_c, 11, 77, 0
9, 50520, Note_on_c, 11, 79, 44
9, 50559, Note_on_c, 11, 79, 0
9, 50560, Note_on_c, 11, 76, 44
9, 50599, Note_on_c, 11, 76, 0
9, 50600, Note_on_c, 11, 77, 44
9, 50639, Note_on_c, 11, 77, 0
9, 50640, Note_on_c, 11, 79, 44
9, 50744, Note_on_c, 11, 79, 0
9, 50760, Note_on_c, 11, 77, 44
9, 50849, Note_on_c, 11, 77, 0
9, 50880, Note_on_c, 11, 76, 44
9, 50969, Note_on_c, 11, 76, 0
9, 51000, Note_on_c, 11, 74, 44
9, 51089, Note_on_c, 11, 74, 0
9, 51120, Note_on_c, 11, 76, 44
9, 51159, Note_on_c, 11, 76, 0
9, 51160, Note_on_c, 11, 77, 44
9, 51199, Note_on_c, 11, 77, 0
9, 51200, Note_on_c, 11, 76, 44
9, 51239, Note_on_c, 11, 76, 0
9, 51240, Note_on_c, 11, 77, 44
9, 51279, Note_on_c, 11, 77, 0
9, 51280, Note_on_c, 11, 74, 44
9, 51319, Note_on_c, 11, 74, 0
9, 51320, Note_on_c, 11, 76, 44
9, 51359, Note_on_c, 11, 76, 0
9, 51360, Note_on_c, 11, 77, 44
9, 51464, Note_on_c, 11, 77, 0
9, 51480, Note_on_c, 11, 76, 44
9, 51569, Note_on_c, 11, 76, 0
9, 51600, Note_on_c, 11, 74, 44
9, 51689, Note_on_c, 11, 74, 0
9, 51720, Note_on_c, 11, 72, 44
9, 51809, Note_on_c, 11, 72, 0
9, 51840, Note_on_c, 11, 74, 44
9, 51879, Note_on_c, 11, 74, 0
9, 51880, Note_on_c, 11, 76, 44
9, 51919, Note_on_c, 11, 76, 0
9, 51920, Note_on_c, 11, 74, 44
9, 51959, Note_on_c, 11, 74, 0
9, 51960, Note_on_c, 11, 76, 44
9, 51999, Note_on_c, 11, 76, 0
9, 52000, Note_on_c, 11, 72, 44
9, 52039, Note_on_c, 11, 72, 0
9, 52040, Note_on_c, 11, 74, 44
9, 52079, Note_on_c, 11, 74, 0
9, 52080, Note_on_c, 11, 76, 44
9, 52184, Note_on_c, 11, 76, 0
9, 52200, Note_on_c, 11, 74, 44
9, 52289, Note_on_c, 11, 74, 0
9, 52320, Note_on_c, 11, 72, 44
9, 52409, Note_on_c, 11, 72, 0
9, 52440, Note_on_c, 11, 71, 44
9, 52529, Note_on_c, 11, 71, 0
9, 52560, Note_on_c, 11, 64, 80
9, 52560, Note_on_c, 11, 55, 80
9, 52560, Note_on_c, 11, 72, 80
9, 52784, Note_on_c, 11, 72, 0
9, 52784, Note_on_c, 11, 55, 0
9, 52784, Note_on_c, 11, 64, 0
9, 52800, Note_on_c, 11, 67, 80
9, 53039, Note_on_c, 11, 67, 0
9, 53280, Note_on_c, 11, 64, 80
9, 53504, Note_on_c, 11, 64, 0
9, 53520, Note_on_c, 11, 60, 80
9, 53759, Note_on_c, 11, 60, 0
9, 55440, Note_on_c, 11, 79, 44
9, 55479, Note_on_c, 11, 79, 0
9, 55480, Note_on_c, 11, 81, 44
9, 55519, Note_on_c, 11, 81, 0
9, 55520, Note_on_c, 11, 79, 44
9, 55559, Note_on_c, 11, 79, 0
9, 55560, Note_on_c, 11, 81, 44
9, 55599, Note_on_c, 11, 81, 0
9, 55600, Note_on_c, 11, 77, 44
9, 55639, Note_on_c, 11, 77, 0
9, 55640, Note_on_c, 11, 79, 44
9, 55679, Note_on_c, 11, 79, 0
9, 55680, Note_on_c, 11, 81, 44
9, 55784, Note_on_c, 11, 81, 0
9, 55800, Note_on_c, 11, 79, 44
9, 55889, Note_on_c, 11, 79, 0
9, 55920, Note_on_c, 11, 77, 44
9, 56009, Note_on_c, 11, 77, 0
9, 56040, Note_on_c, 11, 76, 44
9, 56129, Note_on_c, 11, 76, 0
9, 56160, Note_on_c, 11, 77, 44
9, 56199, Note_on_c, 11, 77, 0
9, 56200, Note_on_c, 11, 79, 44
9, 56239, Note_on_c, 11, 79, 0
9, 56240, Note_on_c, 11, 77, 44
9, 56279, Note_on_c, 11, 77, 0
9, 56280, Note_on_c, 11, 79, 44
9, 56319, Note_on_c, 11, 79, 0
9, 56320, Note_on_c, 11, 76, 44
9, 56359, Note_on_c, 11, 76, 0
9, 56360, Note_on_c, 11, 77, 44
9, 56399, Note_on_c, 11, 77, 0
9, 56400, Note_on_c, 11, 79, 44
9, 56504, Note_on_c, 11, 79, 0
9, 56520, Note_on_c, 11, 77, 44
9, 56609, Note_on_c, 11, 77, 0
9, 56640, Note_on_c, 11, 76, 44
9, 56729, Note_on_c, 11, 76, 0
9, 56760, Note_on_c, 11, 74, 44
9, 56849, Note_on_c, 11, 74, 0
9, 56880, Note_on_c, 11, 72, 80
9, 57104, Note_on_c, 11, 72, 0
9, 57120, Note_on_c, 11, 72, 80
9, 57239, Note_on_c, 11, 72, 0
9, 57240, Note_on_c, 11, 76, 80
9, 57344, Note_on_c, 11, 76, 0
9, 57360, Note_on_c, 11, 79, 80
9, 57479, Note_on_c, 11, 79, 0
9, 57480, Note_on_c, 11, 84, 80
9, 57584, Note_on_c, 11, 84, 0
9, 57600, Note_on_c, 11, 84, 80
9, 57719, Note_on_c, 11, 84, 0
9, 57720, Note_on_c, 11, 74, 80
9, 57824, Note_on_c, 11, 74, 0
9, 57840, Note_on_c, 11, 74, 80
9, 58199, Note_on_c, 11, 74, 0
9, 58200, Note_on_c, 11, 76, 80
9, 58304, Note_on_c, 11, 76, 0
9, 58320, Note_on_c, 11, 76, 80
9, 58439, Note_on_c, 11, 76, 0
9, 58440, Note_on_c, 11, 77, 80
9, 58544, Note_on_c, 11, 77, 0
9, 58560, Note_on_c, 11, 77, 80
9, 58919, Note_on_c, 11, 77, 0
9, 58920, Note_on_c, 11, 79, 80
9, 59024, Note_on_c, 11, 79, 0
9, 59040, Note_on_c, 11, 81, 80
9, 59264, Note_on_c, 11, 81, 0
9, 59280, Note_on_c, 11, 79, 80
9, 59624, Note_on_c, 11, 79, 0
9, 59640, Note_on_c, 11, 77, 80
9, 59744, Note_on_c, 11, 77, 0
9, 59760, Note_on_c, 11, 76, 80
9, 59984, Note_on_c, 11, 76, 0
9, 60000, Note_on_c, 11, 79, 80
9, 60059, Note_on_c, 11, 79, 0
9, 60060, Note_on_c, 11, 77, 80
9, 60224, Note_on_c, 11, 77, 0
9, 60240, Note_on_c, 11, 76, 80
9, 60299, Note_on_c, 11, 76, 0
9, 60300, Note_on_c, 11, 74, 80
9, 60464, Note_on_c, 11, 74, 0
9, 60480, Note_on_c, 11, 79, 80
9, 60704, Note_on_c, 11, 79, 0
9, 60720, Note_on_c, 11, 84, 80
9, 61064, Note_on_c, 11, 84, 0
9, 61080, Note_on_c, 11, 76, 80
9, 61184, Note_on_c, 11, 76, 0
9, 61200, Note_on_c, 11, 74, 80
9, 61229, Note_on_c, 11, 74, 0
9, 61230, Note_on_c, 11, 76, 80
9, 61259, Note_on_c, 11, 76, 0
9, 61260, Note_on_c, 11, 77, 80
9, 61424, Note_on_c, 11, 77, 0
9, 61440, Note_on_c, 11, 76, 80
9, 61469, Note_on_c, 11, 76, 0
9, 61470, Note_on_c, 11, 77, 80
9, 61499, Note_on_c, 11, 77, 0
9, 61500, Note_on_c, 11, 79, 80
9, 61664, Note_on_c, 11, 79, 0
9, 61680, Note_on_c, 11, 71, 80
9, 61709, Note_on_c, 11, 71, 0
9, 61710, Note_on_c, 11, 72, 80
9, 61739, Note_on_c, 11, 72, 0
9, 61740, Note_on_c, 11, 74, 80
9, 61904, Note_on_c, 11, 74, 0
9, 61920, Note_on_c, 11, 72, 80
9, 61971, Note_on_c, 11, 72, 0
9, 61980, Note_on_c, 11, 84, 80
9, 62031, Note_on_c, 11, 84, 0
9, 62040, Note_on_c, 11, 84, 80
9, 62091, Note_on_c, 11, 84, 0
9, 62100, Note_on_c, 11, 84, 80
9, 62151, Note_on_c, 11, 84, 0
9, 62160, Note_on_c, 11, 84, 80
9, 62211, Note_on_c, 11, 84, 0
9, 62220, Note_on_c, 11, 84, 80
9, 62271, Note_on_c, 11, 84, 0
9, 62280, Note_on_c, 11, 84, 80
9, 62331, Note_on_c, 11, 84, 0
9, 62340, Note_on_c, 11, 84, 80
9, 62391, Note_on_c, 11, 84, 0
9, 62400, Note_on_c, 11, 84, 80
9, 62451, Note_on_c, 11, 84, 0
9, 62460, Note_on_c, 11, 84, 80
9, 62511, Note_on_c, 11, 84, 0
9, 62520, Note_on_c, 11, 84, 80
9, 62571, Note_on_c, 11, 84, 0
9, 62580, Note_on_c, 11, 84, 80
9, 62631, Note_on_c, 11, 84, 0
9, 62640, Note_on_c, 11, 84, 80
9, 62864, Note_on_c, 11, 84, 0
9, 62880, Note_on_c, 11, 81, 44
9, 62939, Note_on_c, 11, 81, 0
9, 62940, Note_on_c, 11, 79, 44
9, 62984, Note_on_c, 11, 79, 0
9, 63000, Note_on_c, 11, 77, 44
9, 63051, Note_on_c, 11, 77, 0
9, 63060, Note_on_c, 11, 76, 44
9, 63111, Note_on_c, 11, 76, 0
9, 63120, Note_on_c, 11, 81, 44
9, 63179, Note_on_c, 11, 81, 0
9, 63180, Note_on_c, 11, 79, 44
9, 63224, Note_on_c, 11, 79, 0
9, 63240, Note_on_c, 11, 77, 44
9, 63291, Note_on_c, 11, 77, 0
9, 63300, Note_on_c, 11, 76, 44
9, 63351, Note_on_c, 11, 76, 0
9, 63360, Note_on_c, 11, 77, 80
9, 63411, Note_on_c, 11, 77, 0
9, 63420, Note_on_c, 11, 86, 80
9, 63471, Note_on_c, 11, 86, 0
9, 63480, Note_on_c, 11, 86, 80
9, 63531, Note_on_c, 11, 86, 0
9, 63540, Note_on_c, 11, 86, 80
9, 63591, Note_on_c, 11, 86, 0
9, 63600, Note_on_c, 11, 86, 80
9, 63651, Note_on_c, 11, 86, 0
9, 63660, Note_on_c, 11, 86, 80
9, 63711, Note_on_c, 11, 86, 0
9, 63720, Note_on_c, 11, 86, 80
9, 63771, Note_on_c, 11, 86, 0
9, 63780, Note_on_c, 11, 86, 80
9, 63831, Note_on_c, 11, 86, 0
9, 63840, Note_on_c, 11, 86, 80
9, 63891, Note_on_c, 11, 86, 0
9, 63900, Note_on_c, 11, 86, 80
9, 63951, Note_on_c, 11, 86, 0
9, 63960, Note_on_c, 11, 86, 80
9, 64011, Note_on_c, 11, 86, 0
9, 64020, Note_on_c, 11, 86, 80
9, 64071, Note_on_c, 11, 86, 0
9, 64080, Note_on_c, 11, 86, 80
9, 64304, Note_on_c, 11, 86, 0
9, 64320, Note_on_c, 11, 79, 44
9, 64379, Note_on_c, 11, 79, 0
9, 64380, Note_on_c, 11, 77, 44
9, 64424, Note_on_c, 11, 77, 0
9, 64440, Note_on_c, 11, 76, 44
9, 64491, Note_on_c, 11, 76, 0
9, 64500, Note_on_c, 11, 74, 44
9, 64551, Note_on_c, 11, 74, 0
9, 64560, Note_on_c, 11, 79, 44
9, 64619, Note_on_c, 11, 79, 0
9, 64620, Note_on_c, 11, 77, 44
9, 64664, Note_on_c, 11, 77, 0
9, 64680, Note_on_c, 11, 76, 44
9, 64731, Note_on_c, 11, 76, 0
9, 64740, Note_on_c, 11, 74, 44
9, 64791, Note_on_c, 11, 74, 0
9, 64800, Note_on_c, 11, 76, 80
9, 64851, Note_on_c, 11, 76, 0
9, 64860, Note_on_c, 11, 84, 80
9, 64911, Note_on_c, 11, 84, 0
9, 64920, Note_on_c, 11, 84, 80
9, 64971, Note_on_c, 11, 84, 0
9, 64980, Note_on_c, 11, 84, 80
9, 65031, Note_on_c, 11, 84, 0
9, 65040, Note_on_c, 11, 84, 80
9, 65091, Note_on_c, 11, 84, 0
9, 65100, Note_on_c, 11, 84, 80
9, 65151, Note_on_c, 11, 84, 0
9, 65160, Note_on_c, 11, 84, 80
9, 65211, Note_on_c, 11, 84, 0
9, 65220, Note_on_c, 11, 84, 80
9, 65271, Note_on_c, 11, 84, 0
9, 65280, Note_on_c, 11, 84, 80
9, 65331, Note_on_c, 11, 84, 0
9, 65340, Note_on_c, 11, 84, 80
9, 65391, Note_on_c, 11, 84, 0
9, 65400, Note_on_c, 11, 84, 80
9, 65451, Note_on_c, 11, 84, 0
9, 65460, Note_on_c, 11, 84, 80
9, 65511, Note_on_c, 11, 84, 0
9, 65520, Note_on_c, 11, 84, 80
9, 65744, Note_on_c, 11, 84, 0
9, 65760, Note_on_c, 11, 81, 44
9, 65819, Note_on_c, 11, 81, 0
9, 65820, Note_on_c, 11, 79, 44
9, 65864, Note_on_c, 11, 79, 0
9, 65880, Note_on_c, 11, 77, 44
9, 65931, Note_on_c, 11, 77, 0
9, 65940, Note_on_c, 11, 76, 44
9, 65991, Note_on_c, 11, 76, 0
9, 66000, Note_on_c, 11, 81, 44
9, 66059, Note_on_c, 11, 81, 0
9, 66060, Note_on_c, 11, 79, 44
9, 66104, Note_on_c, 11, 79, 0
9, 66120, Note_on_c, 11, 77, 44
9, 66171, Note_on_c, 11, 77, 0
9, 66180, Note_on_c, 11, 76, 44
9, 66231, Note_on_c, 11, 76, 0
9, 66240, Note_on_c, 11, 74, 80
9, 66291, Note_on_c, 11, 74, 0
9, 66300, Note_on_c, 11, 84, 80
9, 66351, Note_on_c, 11, 84, 0
9, 66360, Note_on_c, 11, 84, 80
9, 66411, Note_on_c, 11, 84, 0
9, 66420, Note_on_c, 11, 84, 80
9, 66471, Note_on_c, 11, 84, 0
9, 66480, Note_on_c, 11, 84, 80
9, 66531, Note_on_c, 11, 84, 0
9, 66540, Note_on_c, 11, 84, 80
9, 66591, Note_on_c, 11, 84, 0
9, 66600, Note_on_c, 11, 84, 80
9, 66651, Note_on_c, 11, 84, 0
9, 66660, Note_on_c, 11, 84, 80
9, 66711, Note_on_c, 11, 84, 0
9, 66720, Note_on_c, 11, 84, 80
9, 66771, Note_on_c, 11, 84, 0
9, 66780, Note_on_c, 11, 84, 80
9, 66831, Note_on_c, 11, 84, 0
9, 66840, Note_on_c, 11, 84, 80
9, 66891, Note_on_c, 11, 84, 0
9, 66900, Note_on_c, 11, 84, 80
9, 66951, Note_on_c, 11, 84, 0
9, 66960, Note_on_c, 11, 84, 80
9, 67011, Note_on_c, 11, 84, 0
9, 67020, Note_on_c, 11, 83, 80
9, 67071, Note_on_c, 11, 83, 0
9, 67080, Note_on_c, 11, 81, 80
9, 67131, Note_on_c, 11, 81, 0
9, 67140, Note_on_c, 11, 83, 80
9, 67191, Note_on_c, 11, 83, 0
9, 67200, Note_on_c, 11, 81, 80
9, 67251, Note_on_c, 11, 81, 0
9, 67260, Note_on_c, 11, 79, 80
9, 67311, Note_on_c, 11, 79, 0
9, 67320, Note_on_c, 11, 78, 80
9, 67371, Note_on_c, 11, 78, 0
9, 67380, Note_on_c, 11, 79, 80
9, 67431, Note_on_c, 11, 79, 0
9, 67440, Note_on_c, 11, 78, 80
9, 67491, Note_on_c, 11, 78, 0
9, 67500, Note_on_c, 11, 76, 80
9, 67551, Note_on_c, 11, 76, 0
9, 67560, Note_on_c, 11, 74, 80
9, 67611, Note_on_c, 11, 74, 0
9, 67620, Note_on_c, 11, 72, 80
9, 67671, Note_on_c, 11, 72, 0
9, 67680, Note_on_c, 11, 71, 80
9, 67919, Note_on_c, 11, 71, 0
9, 68160, Note_on_c, 11, 83, 80
9, 68199, Note_on_c, 11, 83, 0
9, 68200, Note_on_c, 11, 84, 80
9, 68239, Note_on_c, 11, 84, 0
9, 68240, Note_on_c, 11, 83, 80
9, 68279, Note_on_c, 11, 83, 0
9, 68280, Note_on_c, 11, 84, 80
9, 68319, Note_on_c, 11, 84, 0
9, 68320, Note_on_c, 11, 81, 80
9, 68359, Note_on_c, 11, 81, 0
9, 68360, Note_on_c, 11, 83, 80
9, 68399, Note_on_c, 11, 83, 0
9, 68400, Note_on_c, 11, 84, 80
9, 68639, Note_on_c, 11, 84, 0
9, 68880, Note_on_c, 11, 84, 80
9, 68919, Note_on_c, 11, 84, 0
9, 68920, Note_on_c, 11, 86, 80
9, 68959, Note_on_c, 11, 86, 0
9, 68960, Note_on_c, 11, 84, 80
9, 68999, Note_on_c, 11, 84, 0
9, 69000, Note_on_c, 11, 86, 80
9, 69039, Note_on_c, 11, 86, 0
9, 69040, Note_on_c, 11, 83, 80
9, 69079, Note_on_c, 11, 83, 0
9, 69080, Note_on_c, 11, 84, 80
9, 69119, Note_on_c, 11, 84, 0
9, 69120, Note_on_c, 11, 86, 80
9, 69359, Note_on_c, 11, 86, 0
9, 69600, Note_on_c, 11, 86, 80
9, 69639, Note_on_c, 11, 86, 0
9, 69640, Note_on_c, 11, 88, 80
9, 69679, Note_on_c, 11, 88, 0
9, 69680, Note_on_c, 11, 86, 80
9, 69719, Note_on_c, 11, 86, 0
9, 69720, Note_on_c, 11, 88, 80
9, 69759, Note_on_c, 11, 88, 0
9, 69760, Note_on_c, 11, 84, 80
9, 69799, Note_on_c, 11, 84, 0
9, 69800, Note_on_c, 11, 86, 80
9, 69839, Note_on_c, 11, 86, 0
9, 69840, Note_on_c, 11, 88, 80
9, 69929, Note_on_c, 11, 88, 0
9, 69960, Note_on_c, 11, 86, 80
9, 70049, Note_on_c, 11, 86, 0
9, 70080, Note_on_c, 11, 84, 80
9, 70169, Note_on_c, 11, 84, 0
9, 70200, Note_on_c, 11, 83, 80
9, 70289, Note_on_c, 11, 83, 0
9, 70320, Note_on_c, 11, 81, 80
9, 70409, Note_on_c, 11, 81, 0
9, 70440, Note_on_c, 11, 79, 80
9, 70529, Note_on_c, 11, 79, 0
9, 70560, Note_on_c, 11, 74, 80
9, 70560, Note_on_c, 11, 86, 80
9, 70784, Note_on_c, 11, 86, 0
9, 70784, Note_on_c, 11, 74, 0
9, 70800, Note_on_c, 11, 62, 80
9, 71039, Note_on_c, 11, 62, 0
9, 71280, Note_on_c, 11, 74, 44
9, 71459, Note_on_c, 11, 74, 0
9, 71520, Note_on_c, 11, 74, 44
9, 71699, Note_on_c, 11, 74, 0
9, 71760, Note_on_c, 11, 74, 44
9, 71939, Note_on_c, 11, 74, 0
9, 72000, Note_on_c, 11, 76, 44
9, 72359, Note_on_c, 11, 76, 0
9, 72360, Note_on_c, 11, 78, 44
9, 72464, Note_on_c, 11, 78, 0
9, 72480, Note_on_c, 11, 79, 44
9, 72659, Note_on_c, 11, 79, 0
9, 72720, Note_on_c, 11, 69, 44
9, 72749, Note_on_c, 11, 69, 0
9, 72750, Note_on_c, 11, 71, 44
9, 72779, Note_on_c, 11, 71, 0
9, 72780, Note_on_c, 11, 72, 44
9, 72959, Note_on_c, 11, 72, 0
9, 73440, Note_on_c, 11, 71, 44
9, 73469, Note_on_c, 11, 71, 0
9, 73470, Note_on_c, 11, 72, 44
9, 73499, Note_on_c, 11, 72, 0
9, 73500, Note_on_c, 11, 74, 44
9, 73679, Note_on_c, 11, 74, 0
9, 74160, Note_on_c, 11, 74, 44
9, 74339, Note_on_c, 11, 74, 0
9, 74400, Note_on_c, 11, 74, 44
9, 74579, Note_on_c, 11, 74, 0
9, 74640, Note_on_c, 11, 74, 44
9, 74819, Note_on_c, 11, 74, 0
9, 74880, Note_on_c, 11, 76, 44
9, 75059, Note_on_c, 11, 76, 0
9, 75060, Note_on_c, 11, 78, 44
9, 75119, Note_on_c, 11, 78, 0
9, 75120, Note_on_c, 11, 79, 44
9, 75224, Note_on_c, 11, 79, 0
9, 75240, Note_on_c, 11, 78, 44
9, 75329, Note_on_c, 11, 78, 0
9, 75360, Note_on_c, 11, 76, 44
9, 75449, Note_on_c, 11, 76, 0
9, 75480, Note_on_c, 11, 74, 44
9, 75569, Note_on_c, 11, 74, 0
9, 75600, Note_on_c, 11, 74, 44
9, 75659, Note_on_c, 11, 74, 0
9, 75660, Note_on_c, 11, 72, 44
9, 75824, Note_on_c, 11, 72, 0
9, 75840, Note_on_c, 11, 71, 44
9, 76064, Note_on_c, 11, 71, 0
9, 76080, Note_on_c, 11, 69, 44
9, 76304, Note_on_c, 11, 69, 0
9, 76320, Note_on_c, 11, 70, 44
9, 76799, Note_on_c, 11, 70, 0
9, 76800, Note_on_c, 11, 71, 44
9, 76919, Note_on_c, 11, 71, 0
9, 78720, Note_on_c, 11, 66, 44
9, 78779, Note_on_c, 11, 66, 0
9, 78780, Note_on_c, 11, 67, 44
9, 78839, Note_on_c, 11, 67, 0
9, 78840, Note_on_c, 11, 66, 44
9, 78899, Note_on_c, 11, 66, 0
9, 78900, Note_on_c, 11, 67, 44
9, 78959, Note_on_c, 11, 67, 0
9, 78960, Note_on_c, 11, 69, 44
9, 79199, Note_on_c, 11, 69, 0
9, 79440, Note_on_c, 11, 67, 44
9, 79499, Note_on_c, 11, 67, 0
9, 79500, Note_on_c, 11, 69, 44
9, 79559, Note_on_c, 11, 69, 0
9, 79560, Note_on_c, 11, 67, 44
9, 79619, Note_on_c, 11, 67, 0
9, 79620, Note_on_c, 11, 69, 44
9, 79679, Note_on_c, 11, 69, 0
9, 79680, Note_on_c, 11, 71, 44
9, 79919, Note_on_c, 11, 71, 0
9, 82080, Note_on_c, 11, 86, 80
9, 82131, Note_on_c, 11, 86, 0
9, 82140, Note_on_c, 11, 86, 80
9, 82191, Note_on_c, 11, 86, 0
9, 82200, Note_on_c, 11, 85, 80
9, 82251, Note_on_c, 11, 85, 0
9, 82260, Note_on_c, 11, 85, 80
9, 82311, Note_on_c, 11, 85, 0
9, 82320, Note_on_c, 11, 86, 80
9, 82371, Note_on_c, 11, 86, 0
9, 82380, Note_on_c, 11, 86, 80
9, 82431, Note_on_c, 11, 86, 0
9, 82440, Note_on_c, 11, 85, 80
9, 82491, Note_on_c, 11, 85, 0
9, 82500, Note_on_c, 11, 85, 80
9, 82551, Note_on_c, 11, 85, 0
9, 82560, Note_on_c, 11, 86, 80
9, 82611, Note_on_c, 11, 86, 0
9, 82620, Note_on_c, 11, 86, 80
9, 82671, Note_on_c, 11, 86, 0
9, 82680, Note_on_c, 11, 83, 80
9, 82731, Note_on_c, 11, 83, 0
9, 82740, Note_on_c, 11, 83, 80
9, 82791, Note_on_c, 11, 83, 0
9, 82800, Note_on_c, 11, 86, 80
9, 82851, Note_on_c, 11, 86, 0
9, 82860, Note_on_c, 11, 86, 80
9, 82911, Note_on_c, 11, 86, 0
9, 82920, Note_on_c, 11, 85, 80
9, 82971, Note_on_c, 11, 85, 0
9, 82980, Note_on_c, 11, 85, 80
9, 83031, Note_on_c, 11, 85, 0
9, 83040, Note_on_c, 11, 86, 80
9, 83091, Note_on_c, 11, 86, 0
9, 83100, Note_on_c, 11, 86, 80
9, 83151, Note_on_c, 11, 86, 0
9, 83160, Note_on_c, 11, 85, 80
9, 83211, Note_on_c, 11, 85, 0
9, 83220, Note_on_c, 11, 85, 80
9, 83271, Note_on_c, 11, 85, 0
9, 83280, Note_on_c, 11, 86, 80
9, 83331, Note_on_c, 11, 86, 0
9, 83340, Note_on_c, 11, 86, 80
9, 83391, Note_on_c, 11, 86, 0
9, 83400, Note_on_c, 11, 81, 80
9, 83451, Note_on_c, 11, 81, 0
9, 83460, Note_on_c, 11, 81, 80
9, 83511, Note_on_c, 11, 81, 0
9, 83520, Note_on_c, 11, 79, 80
9, 83571, Note_on_c, 11, 79, 0
9, 83580, Note_on_c, 11, 79, 80
9, 83631, Note_on_c, 11, 79, 0
9, 83640, Note_on_c, 11, 78, 80
9, 83691, Note_on_c, 11, 78, 0
9, 83700, Note_on_c, 11, 78, 80
9, 83751, Note_on_c, 11, 78, 0
9, 83760, Note_on_c, 11, 79, 80
9, 83811, Note_on_c, 11, 79, 0
9, 83820, Note_on_c, 11, 79, 80
9, 83871, Note_on_c, 11, 79, 0
9, 83880, Note_on_c, 11, 78, 80
9, 83931, Note_on_c, 11, 78, 0
9, 83940, Note_on_c, 11, 78, 80
9, 83991, Note_on_c, 11, 78, 0
9, 84000, Note_on_c, 11, 79, 80
9, 84051, Note_on_c, 11, 79, 0
9, 84060, Note_on_c, 11, 79, 80
9, 84111, Note_on_c, 11, 79, 0
9, 84120, Note_on_c, 11, 76, 80
9, 84171, Note_on_c, 11, 76, 0
9, 84180, Note_on_c, 11, 76, 80
9, 84231, Note_on_c, 11, 76, 0
9, 84240, Note_on_c, 11, 79, 80
9, 84291, Note_on_c, 11, 79, 0
9, 84300, Note_on_c, 11, 79, 80
9, 84351, Note_on_c, 11, 79, 0
9, 84360, Note_on_c, 11, 78, 80
9, 84411, Note_on_c, 11, 78, 0
9, 84420, Note_on_c, 11, 78, 80
9, 84471, Note_on_c, 11, 78, 0
9, 84480, Note_on_c, 11, 79, 80
9, 84531, Note_on_c, 11, 79, 0
9, 84540, Note_on_c, 11, 79, 80
9, 84591, Note_on_c, 11, 79, 0
9, 84600, Note_on_c, 11, 78, 80
9, 84651, Note_on_c, 11, 78, 0
9, 84660, Note_on_c, 11, 78, 80
9, 84711, Note_on_c, 11, 78, 0
9, 84720, Note_on_c, 11, 79, 80
9, 84771, Note_on_c, 11, 79, 0
9, 84780, Note_on_c, 11, 79, 80
9, 84831, Note_on_c, 11, 79, 0
9, 84840, Note_on_c, 11, 71, 80
9, 84891, Note_on_c, 11, 71, 0
9, 84900, Note_on_c, 11, 71, 80
9, 84951, Note_on_c, 11, 71, 0
9, 84960, Note_on_c, 11, 72, 80
9, 85184, Note_on_c, 11, 72, 0
9, 85200, Note_on_c, 11, 84, 80
9, 85424, Note_on_c, 11, 84, 0
9, 85440, Note_on_c, 11, 84, 80
9, 85664, Note_on_c, 11, 84, 0
9, 85680, Note_on_c, 11, 84, 80
9, 85904, Note_on_c, 11, 84, 0
9, 85920, Note_on_c, 11, 86, 80
9, 85979, Note_on_c, 11, 86, 0
9, 85980, Note_on_c, 11, 84, 80
9, 86024, Note_on_c, 11, 84, 0
9, 86040, Note_on_c, 11, 83, 80
9, 86091, Note_on_c, 11, 83, 0
9, 86100, Note_on_c, 11, 81, 80
9, 86151, Note_on_c, 11, 81, 0
9, 86160, Note_on_c, 11, 83, 80
9, 86384, Note_on_c, 11, 83, 0
9, 86400, Note_on_c, 11, 76, 80
9, 86579, Note_on_c, 11, 76, 0
9, 86580, Note_on_c, 11, 81, 80
9, 86631, Note_on_c, 11, 81, 0
9, 86640, Note_on_c, 11, 79, 80
9, 86879, Note_on_c, 11, 79, 0
9, 86880, Note_on_c, 11, 78, 80
9, 87104, Note_on_c, 11, 78, 0
9, 87120, Note_on_c, 11, 79, 80
9, 87299, Note_on_c, 11, 79, 0
9, 87360, Note_on_c, 11, 77, 80
9, 87539, Note_on_c, 11, 77, 0
9, 87600, Note_on_c, 11, 76, 80
9, 87779, Note_on_c, 11, 76, 0
9, 87840, Note_on_c, 11, 64, 80
9, 87840, Note_on_c, 11, 74, 80
9, 88019, Note_on_c, 11, 74, 0
9, 88019, Note_on_c, 11, 64, 0
9, 88080, Note_on_c, 11, 73, 80
9, 88080, Note_on_c, 11, 64, 80
9, 88259, Note_on_c, 11, 64, 0
9, 88259, Note_on_c, 11, 73, 0
9, 88560, Note_on_c, 11, 60, 44
9, 88784, Note_on_c, 11, 60, 0
9, 88800, Note_on_c, 11, 72, 44
9, 89024, Note_on_c, 11, 72, 0
9, 89040, Note_on_c, 11, 72, 44
9, 89264, Note_on_c, 11, 72, 0
9, 89280, Note_on_c, 11, 72, 44
9, 89504, Note_on_c, 11, 72, 0
9, 89520, Note_on_c, 11, 74, 44
9, 89579, Note_on_c, 11, 74, 0
9, 89580, Note_on_c, 11, 72, 44
9, 89624, Note_on_c, 11, 72, 0
9, 89640, Note_on_c, 11, 71, 44
9, 89691, Note_on_c, 11, 71, 0
9, 89700, Note_on_c, 11, 69, 44
9, 89751, Note_on_c, 11, 69, 0
9, 89760, Note_on_c, 11, 71, 44
9, 89984, Note_on_c, 11, 71, 0
9, 90000, Note_on_c, 11, 64, 44
9, 90179, Note_on_c, 11, 64, 0
9, 90180, Note_on_c, 11, 69, 44
9, 90231, Note_on_c, 11, 69, 0
9, 90240, Note_on_c, 11, 67, 44
9, 90479, Note_on_c, 11, 67, 0
9, 90480, Note_on_c, 11, 66, 44
9, 90704, Note_on_c, 11, 66, 0
9, 90720, Note_on_c, 11, 67, 80
9, 90959, Note_on_c, 11, 67, 0
9, 91200, Note_on_c, 11, 86, 80
9, 91259, Note_on_c, 11, 86, 0
9, 91260, Note_on_c, 11, 84, 80
9, 91304, Note_on_c, 11, 84, 0
9, 91320, Note_on_c, 11, 83, 80
9, 91371, Note_on_c, 11, 83, 0
9, 91380, Note_on_c, 11, 81, 80
9, 91431, Note_on_c, 11, 81, 0
9, 91440, Note_on_c, 11, 83, 80
9, 91679, Note_on_c, 11, 83, 0
9, 91920, Note_on_c, 11, 83, 80
9, 91979, Note_on_c, 11, 83, 0
9, 91980, Note_on_c, 11, 81, 80
9, 92024, Note_on_c, 11, 81, 0
9, 92040, Note_on_c, 11, 79, 80
9, 92091, Note_on_c, 11, 79, 0
9, 92100, Note_on_c, 11, 78, 80
9, 92151, Note_on_c, 11, 78, 0
9, 92160, Note_on_c, 11, 79, 80
9, 92399, Note_on_c, 11, 79, 0
9, 92640, Note_on_c, 11, 86, 80
9, 92699, Note_on_c, 11, 86, 0
9, 92700, Note_on_c, 11, 84, 80
9, 92744, Note_on_c, 11, 84, 0
9, 92760, Note_on_c, 11, 83, 80
9, 92811, Note_on_c, 11, 83, 0
9, 92820, Note_on_c, 11, 81, 80
9, 92871, Note_on_c, 11, 81, 0
9, 92880, Note_on_c, 11, 83, 80
9, 93119, Note_on_c, 11, 83, 0
9, 93360, Note_on_c, 11, 83, 80
9, 93419, Note_on_c, 11, 83, 0
9, 93420, Note_on_c, 11, 81, 80
9, 93464, Note_on_c, 11, 81, 0
9, 93480, Note_on_c, 11, 79, 80
9, 93531, Note_on_c, 11, 79, 0
9, 93540, Note_on_c, 11, 78, 80
9, 93591, Note_on_c, 11, 78, 0
9, 93600, Note_on_c, 11, 79, 80
9, 93651, Note_on_c, 11, 79, 0
9, 93660, Note_on_c, 11, 74, 80
9, 93711, Note_on_c, 11, 74, 0
9, 93720, Note_on_c, 11, 74, 80
9, 93771, Note_on_c, 11, 74, 0
9, 93780, Note_on_c, 11, 74, 80
9, 93831, Note_on_c, 11, 74, 0
9, 93840, Note_on_c, 11, 83, 80
9, 93891, Note_on_c, 11, 83, 0
9, 93900, Note_on_c, 11, 74, 80
9, 93951, Note_on_c, 11, 74, 0
9, 93960, Note_on_c, 11, 74, 80
9, 94011, Note_on_c, 11, 74, 0
9, 94020, Note_on_c, 11, 74, 80
9, 94071, Note_on_c, 11, 74, 0
9, 94080, Note_on_c, 11, 78, 80
9, 94131, Note_on_c, 11, 78, 0
9, 94140, Note_on_c, 11, 74, 80
9, 94191, Note_on_c, 11, 74, 0
9, 94200, Note_on_c, 11, 74, 80
9, 94251, Note_on_c, 11, 74, 0
9, 94260, Note_on_c, 11, 74, 80
9, 94311, Note_on_c, 11, 74, 0
9, 94320, Note_on_c, 11, 79, 80
9, 94371, Note_on_c, 11, 79, 0
9, 94380, Note_on_c, 11, 74, 80
9, 94431, Note_on_c, 11, 74, 0
9, 94440, Note_on_c, 11, 74, 80
9, 94491, Note_on_c, 11, 74, 0
9, 94500, Note_on_c, 11, 74, 80
9, 94551, Note_on_c, 11, 74, 0
9, 94560, Note_on_c, 11, 83, 80
9, 94611, Note_on_c, 11, 83, 0
9, 94620, Note_on_c, 11, 74, 80
9, 94671, Note_on_c, 11, 74, 0
9, 94680, Note_on_c, 11, 74, 80
9, 94731, Note_on_c, 11, 74, 0
9, 94740, Note_on_c, 11, 74, 80
9, 94791, Note_on_c, 11, 74, 0
9, 94800, Note_on_c, 11, 78, 80
9, 94851, Note_on_c, 11, 78, 0
9, 94860, Note_on_c, 11, 74, 80
9, 94911, Note_on_c, 11, 74, 0
9, 94920, Note_on_c, 11, 74, 80
9, 94971, Note_on_c, 11, 74, 0
9, 94980, Note_on_c, 11, 74, 80
9, 95031, Note_on_c, 11, 74, 0
9, 95040, Note_on_c, 11, 79, 80
9, 95264, Note_on_c, 11, 79, 0
9, 95280, Note_on_c, 11, 67, 80
9, 95369, Note_on_c, 11, 67, 0
9, 95400, Note_on_c, 11, 69, 80
9, 95489, Note_on_c, 11, 69, 0
9, 95520, Note_on_c, 11, 71, 80
9, 95609, Note_on_c, 11, 71, 0
9, 95640, Note_on_c, 11, 72, 80
9, 95729, Note_on_c, 11, 72, 0
9, 95760, Note_on_c, 11, 74, 80
9, 95849, Note_on_c, 11, 74, 0
9, 95880, Note_on_c, 11, 76, 80
9, 95969, Note_on_c, 11, 76, 0
9, 96000, Note_on_c, 11, 77, 80
9, 96089, Note_on_c, 11, 77, 0
9, 96120, Note_on_c, 11, 74, 80
9, 96209, Note_on_c, 11, 74, 0
9, 96240, Note_on_c, 11, 71, 80
9, 96329, Note_on_c, 11, 71, 0
9, 96360, Note_on_c, 11, 67, 80
9, 96449, Note_on_c, 11, 67, 0
9, 96480, Note_on_c, 11, 72, 80
9, 96480, Note_on_c, 11, 64, 80
9, 96480, Note_on_c, 11, 55, 80
9, 96719, Note_on_c, 11, 55, 0
9, 96719, Note_on_c, 11, 64, 0
9, 96719, Note_on_c, 11, 72, 0
9, 97200, Note_on_c, 11, 72, 80
9, 97200, Note_on_c, 11, 67, 80
9, 97200, Note_on_c, 11, 76, 80
9, 97439, Note_on_c, 11, 76, 0
9, 97439, Note_on_c, 11, 67, 0
9, 97439, Note_on_c, 11, 72, 0
9, 97920, Note_on_c, 11, 72, 80
9, 97920, Note_on_c, 11, 77, 80
9, 97920, Note_on_c, 11, 65, 80
9, 98159, Note_on_c, 11, 65, 0
9, 98159, Note_on_c, 11, 77, 0
9, 98159, Note_on_c, 11, 72, 0
9, 98640, Note_on_c, 11, 55, 80
9, 98640, Note_on_c, 11, 82, 80
9, 98640, Note_on_c, 11, 72, 80
9, 98640, Note_on_c, 11, 64, 80
9, 98879, Note_on_c, 11, 64, 0
9, 98879, Note_on_c, 11, 55, 0
9, 98879, Note_on_c, 11, 82, 0
9, 98879, Note_on_c, 11, 72, 0
9, 99360, Note_on_c, 11, 81, 80
9, 99464, Note_on_c, 11, 81, 0
9, 99480, Note_on_c, 11, 72, 44
9, 99569, Note_on_c, 11, 72, 0
9, 99600, Note_on_c, 11, 72, 44
9, 99689, Note_on_c, 11, 72, 0
9, 99720, Note_on_c, 11, 72, 44
9, 99809, Note_on_c, 11, 72, 0
9, 99840, Note_on_c, 11, 72, 44
9, 99879, Note_on_c, 11, 72, 0
9, 99880, Note_on_c, 11, 74, 44
9, 99919, Note_on_c, 11, 74, 0
9, 99920, Note_on_c, 11, 72, 44
9, 99959, Note_on_c, 11, 72, 0
9, 99960, Note_on_c, 11, 74, 44
9, 99999, Note_on_c, 11, 74, 0
9, 100000, Note_on_c, 11, 71, 44
9, 100039, Note_on_c, 11, 71, 0
9, 100040, Note_on_c, 11, 72, 44
9, 100079, Note_on_c, 11, 72, 0
9, 100080, Note_on_c, 11, 71, 44
9, 100184, Note_on_c, 11, 71, 0
9, 100200, Note_on_c, 11, 70, 44
9, 100289, Note_on_c, 11, 70, 0
9, 100320, Note_on_c, 11, 70, 44
9, 100409, Note_on_c, 11, 70, 0
9, 100440, Note_on_c, 11, 70, 44
9, 100529, Note_on_c, 11, 70, 0
9, 100560, Note_on_c, 11, 70, 44
9, 100599, Note_on_c, 11, 70, 0
9, 100600, Note_on_c, 11, 72, 44
9, 100639, Note_on_c, 11, 72, 0
9, 100640, Note_on_c, 11, 70, 44
9, 100679, Note_on_c, 11, 70, 0
9, 100680, Note_on_c, 11, 72, 44
9, 100719, Note_on_c, 11, 72, 0
9, 100720, Note_on_c, 11, 69, 44
9, 100759, Note_on_c, 11, 69, 0
9, 100760, Note_on_c, 11, 70, 44
9, 100799, Note_on_c, 11, 70, 0
9, 100800, Note_on_c, 11, 69, 44
9, 100904, Note_on_c, 11, 69, 0
9, 100920, Note_on_c, 11, 72, 44
9, 101009, Note_on_c, 11, 72, 0
9, 101040, Note_on_c, 11, 72, 44
9, 101129, Note_on_c, 11, 72, 0
9, 101160, Note_on_c, 11, 72, 44
9, 101249, Note_on_c, 11, 72, 0
9, 101280, Note_on_c, 11, 72, 44
9, 101319, Note_on_c, 11, 72, 0
9, 101320, Note_on_c, 11, 74, 44
9, 101359, Note_on_c, 11, 74, 0
9, 101360, Note_on_c, 11, 72, 44
9, 101399, Note_on_c, 11, 72, 0
9, 101400, Note_on_c, 11, 74, 44
9, 101439, Note_on_c, 11, 74, 0
9, 101440, Note_on_c, 11, 71, 44
9, 101479, Note_on_c, 11, 71, 0
9, 101480, Note_on_c, 11, 72, 44
9, 101519, Note_on_c, 11, 72, 0
9, 101520, Note_on_c, 11, 71, 44
9, 101624, Note_on_c, 11, 71, 0
9, 101640, Note_on_c, 11, 70, 44
9, 101729, Note_on_c, 11, 70, 0
9, 101760, Note_on_c, 11, 70, 44
9, 101849, Note_on_c, 11, 70, 0
9, 101880, Note_on_c, 11, 70, 44
9, 101969, Note_on_c, 11, 70, 0
9, 102000, Note_on_c, 11, 70, 44
9, 102039, Note_on_c, 11, 70, 0
9, 102040, Note_on_c, 11, 72, 44
9, 102079, Note_on_c, 11, 72, 0
9, 102080, Note_on_c, 11, 70, 44
9, 102119, Note_on_c, 11, 70, 0
9, 102120, Note_on_c, 11, 72, 44
9, 102159, Note_on_c, 11, 72, 0
9, 102160, Note_on_c, 11, 69, 44
9, 102199, Note_on_c, 11, 69, 0
9, 102200, Note_on_c, 11, 70, 44
9, 102239, Note_on_c, 11, 70, 0
9, 102240, Note_on_c, 11, 69, 44
9, 102344, Note_on_c, 11, 69, 0
9, 102360, Note_on_c, 11, 81, 44
9, 102449, Note_on_c, 11, 81, 0
9, 102480, Note_on_c, 11, 81, 44
9, 102569, Note_on_c, 11, 81, 0
9, 102600, Note_on_c, 11, 81, 44
9, 102689, Note_on_c, 11, 81, 0
9, 102720, Note_on_c, 11, 81, 44
9, 102759, Note_on_c, 11, 81, 0
9, 102760, Note_on_c, 11, 83, 44
9, 102799, Note_on_c, 11, 83, 0
9, 102800, Note_on_c, 11, 81, 44
9, 102839, Note_on_c, 11, 81, 0
9, 102840, Note_on_c, 11, 83, 44
9, 102879, Note_on_c, 11, 83, 0
9, 102880, Note_on_c, 11, 79, 44
9, 102919, Note_on_c, 11, 79, 0
9, 102920, Note_on_c, 11, 81, 44
9, 102959, Note_on_c, 11, 81, 0
9, 102960, Note_on_c, 11, 79, 44
9, 103064, Note_on_c, 11, 79, 0
9, 103080, Note_on_c, 11, 72, 44
9, 103169, Note_on_c, 11, 72, 0
9, 103200, Note_on_c, 11, 72, 44
9, 103289, Note_on_c, 11, 72, 0
9, 103320, Note_on_c, 11, 72, 44
9, 103409, Note_on_c, 11, 72, 0
9, 103440, Note_on_c, 11, 72, 44
9, 103479, Note_on_c, 11, 72, 0
9, 103480, Note_on_c, 11, 74, 44
9, 103519, Note_on_c, 11, 74, 0
9, 103520, Note_on_c, 11, 72, 44
9, 103559, Note_on_c, 11, 72, 0
9, 103560, Note_on_c, 11, 74, 44
9, 103599, Note_on_c, 11, 74, 0
9, 103600, Note_on_c, 11, 71, 44
9, 103639, Note_on_c, 11, 71, 0
9, 103640, Note_on_c, 11, 72, 44
9, 103679, Note_on_c, 11, 72, 0
9, 103680, Note_on_c, 11, 71, 44
9, 103784, Note_on_c, 11, 71, 0
9, 103800, Note_on_c, 11, 77, 44
9, 103904, Note_on_c, 11, 77, 0
9, 103920, Note_on_c, 11, 77, 44
9, 104024, Note_on_c, 11, 77, 0
9, 104040, Note_on_c, 11, 77, 44
9, 104144, Note_on_c, 11, 77, 0
9, 104160, Note_on_c, 11, 77, 44
9, 104264, Note_on_c, 11, 77, 0
9, 104280, Note_on_c, 11, 77, 44
9, 104384, Note_on_c, 11, 77, 0
9, 104400, Note_on_c, 11, 75, 44
9, 104459, Note_on_c, 11, 75, 0
9, 104460, Note_on_c, 11, 76, 44
9, 104624, Note_on_c, 11, 76, 0
9, 104640, Note_on_c, 11, 76, 44
9, 104729, Note_on_c, 11, 76, 0
9, 104760, Note_on_c, 11, 76, 44
9, 104849, Note_on_c, 11, 76, 0
9, 104880, Note_on_c, 11, 76, 44
9, 104969, Note_on_c, 11, 76, 0
9, 105000, Note_on_c, 11, 76, 44
9, 105089, Note_on_c, 11, 76, 0
9, 105240, Note_on_c, 11, 76, 44
9, 105329, Note_on_c, 11, 76, 0
9, 105360, Note_on_c, 11, 76, 44
9, 105449, Note_on_c, 11, 76, 0
9, 105480, Note_on_c, 11, 76, 44
9, 105569, Note_on_c, 11, 76, 0
9, 105600, Note_on_c, 11, 76, 44
9, 105639, Note_on_c, 11, 76, 0
9, 105640, Note_on_c, 11, 77, 44
9, 105679, Note_on_c, 11, 77, 0
9, 105680, Note_on_c, 11, 76, 44
9, 105719, Note_on_c, 11, 76, 0
9, 105720, Note_on_c, 11, 77, 44
9, 105759, Note_on_c, 11, 77, 0
9, 105760, Note_on_c, 11, 74, 44
9, 105799, Note_on_c, 11, 74, 0
9, 105800, Note_on_c, 11, 76, 44
9, 105839, Note_on_c, 11, 76, 0
9, 105840, Note_on_c, 11, 74, 44
9, 105944, Note_on_c, 11, 74, 0
9, 105960, Note_on_c, 11, 79, 44
9, 106049, Note_on_c, 11, 79, 0
9, 106080, Note_on_c, 11, 79, 44
9, 106169, Note_on_c, 11, 79, 0
9, 106200, Note_on_c, 11, 79, 44
9, 106289, Note_on_c, 11, 79, 0
9, 106320, Note_on_c, 11, 79, 44
9, 106359, Note_on_c, 11, 79, 0
9, 106360, Note_on_c, 11, 81, 44
9, 106399, Note_on_c, 11, 81, 0
9, 106400, Note_on_c, 11, 79, 44
9, 106439, Note_on_c, 11, 79, 0
9, 106440, Note_on_c, 11, 81, 44
9, 106479, Note_on_c, 11, 81, 0
9, 106480, Note_on_c, 11, 78, 44
9, 106519, Note_on_c, 11, 78, 0
9, 106520, Note_on_c, 11, 79, 44
9, 106559, Note_on_c, 11, 79, 0
9, 106560, Note_on_c, 11, 78, 44
9, 106664, Note_on_c, 11, 78, 0
9, 106680, Note_on_c, 11, 72, 44
9, 106769, Note_on_c, 11, 72, 0
9, 106800, Note_on_c, 11, 72, 44
9, 106889, Note_on_c, 11, 72, 0
9, 106920, Note_on_c, 11, 72, 44
9, 107009, Note_on_c, 11, 72, 0
9, 107040, Note_on_c, 11, 72, 44
9, 107079, Note_on_c, 11, 72, 0
9, 107080, Note_on_c, 11, 74, 44
9, 107119, Note_on_c, 11, 74, 0
9, 107120, Note_on_c, 11, 72, 44
9, 107159, Note_on_c, 11, 72, 0
9, 107160, Note_on_c, 11, 74, 44
9, 107199, Note_on_c, 11, 74, 0
9, 107200, Note_on_c, 11, 71, 44
9, 107239, Note_on_c, 11, 71, 0
9, 107240, Note_on_c, 11, 72, 44
9, 107279, Note_on_c, 11, 72, 0
9, 107280, Note_on_c, 11, 71, 44
9, 107519, Note_on_c, 11, 71, 0
9, 107760, Note_on_c, 11, 74, 44
9, 107819, Note_on_c, 11, 74, 0
9, 107820, Note_on_c, 11, 71, 44
9, 107984, Note_on_c, 11, 71, 0
9, 108000, Note_on_c, 11, 72, 44
9, 108059, Note_on_c, 11, 72, 0
9, 108060, Note_on_c, 11, 67, 44
9, 108224, Note_on_c, 11, 67, 0
9, 108240, Note_on_c, 11, 77, 44
9, 108299, Note_on_c, 11, 77, 0
9, 108300, Note_on_c, 11, 74, 44
9, 108464, Note_on_c, 11, 74, 0
9, 108480, Note_on_c, 11, 76, 44
9, 108539, Note_on_c, 11, 76, 0
9, 108540, Note_on_c, 11, 72, 44
9, 108704, Note_on_c, 11, 72, 0
9, 108720, Note_on_c, 11, 74, 44
9, 108959, Note_on_c, 11, 74, 0
9, 109200, Note_on_c, 11, 74, 44
9, 109259, Note_on_c, 11, 74, 0
9, 109260, Note_on_c, 11, 71, 44
9, 109424, Note_on_c, 11, 71, 0
9, 109440, Note_on_c, 11, 72, 44
9, 109499, Note_on_c, 11, 72, 0
9, 109500, Note_on_c, 11, 67, 44
9, 109664, Note_on_c, 11, 67, 0
9, 109680, Note_on_c, 11, 77, 44
9, 109739, Note_on_c, 11, 77, 0
9, 109740, Note_on_c, 11, 74, 44
9, 109904, Note_on_c, 11, 74, 0
9, 109920, Note_on_c, 11, 76, 44
9, 109979, Note_on_c, 11, 76, 0
9, 109980, Note_on_c, 11, 72, 44
9, 110144, Note_on_c, 11, 72, 0
9, 110160, Note_on_c, 11, 74, 44
9, 110199, Note_on_c, 11, 74, 0
9, 110200, Note_on_c, 11, 76, 44
9, 110239, Note_on_c, 11, 76, 0
9, 110240, Note_on_c, 11, 74, 44
9, 110279, Note_on_c, 11, 74, 0
9, 110280, Note_on_c, 11, 76, 44
9, 110319, Note_on_c, 11, 76, 0
9, 110320, Note_on_c, 11, 72, 44
9, 110359, Note_on_c, 11, 72, 0
9, 110360, Note_on_c, 11, 74, 44
9, 110399, Note_on_c, 11, 74, 0
9, 110880, Note_on_c, 11, 76, 44
9, 110919, Note_on_c, 11, 76, 0
9, 110920, Note_on_c, 11, 77, 44
9, 110959, Note_on_c, 11, 77, 0
9, 110960, Note_on_c, 11, 76, 44
9, 110999, Note_on_c, 11, 76, 0
9, 111000, Note_on_c, 11, 77, 44
9, 111039, Note_on_c, 11, 77, 0
9, 111040, Note_on_c, 11, 74, 44
9, 111079, Note_on_c, 11, 74, 0
9, 111080, Note_on_c, 11, 76, 44
9, 111119, Note_on_c, 11, 76, 0
9, 111840, Note_on_c, 11, 77, 44
9, 111929, Note_on_c, 11, 77, 0
9, 111960, Note_on_c, 11, 76, 44
9, 112049, Note_on_c, 11, 76, 0
9, 112080, Note_on_c, 11, 74, 44
9, 112169, Note_on_c, 11, 74, 0
9, 112200, Note_on_c, 11, 72, 44
9, 112289, Note_on_c, 11, 72, 0
9, 112320, Note_on_c, 11, 71, 44
9, 112409, Note_on_c, 11, 71, 0
9, 112440, Note_on_c, 11, 69, 44
9, 112529, Note_on_c, 11, 69, 0
9, 112560, Note_on_c, 11, 67, 44
9, 112649, Note_on_c, 11, 67, 0
9, 112680, Note_on_c, 11, 65, 44
9, 112769, Note_on_c, 11, 65, 0
9, 112800, Note_on_c, 11, 64, 44
9, 112889, Note_on_c, 11, 64, 0
9, 112920, Note_on_c, 11, 62, 44
9, 113009, Note_on_c, 11, 62, 0
9, 113040, Note_on_c, 11, 72, 80
9, 113040, Note_on_c, 11, 55, 80
9, 113040, Note_on_c, 11, 64, 80
9, 113264, Note_on_c, 11, 64, 0
9, 113264, Note_on_c, 11, 55, 0
9, 113264, Note_on_c, 11, 72, 0
9, 113280, Note_on_c, 11, 67, 80
9, 113519, Note_on_c, 11, 67, 0
9, 113760, Note_on_c, 11, 64, 80
9, 113984, Note_on_c, 11, 64, 0
9, 114000, Note_on_c, 11, 60, 80
9, 114239, Note_on_c, 11, 60, 0
9, 114480, Note_on_c, 11, 79, 44
9, 114519, Note_on_c, 11, 79, 0
9, 114520, Note_on_c, 11, 81, 44
9, 114559, Note_on_c, 11, 81, 0
9, 114560, Note_on_c, 11, 79, 44
9, 114599, Note_on_c, 11, 79, 0
9, 114600, Note_on_c, 11, 81, 44
9, 114639, Note_on_c, 11, 81, 0
9, 114640, Note_on_c, 11, 77, 44
9, 114679, Note_on_c, 11, 77, 0
9, 114680, Note_on_c, 11, 79, 44
9, 114719, Note_on_c, 11, 79, 0
9, 114720, Note_on_c, 11, 81, 44
9, 114824, Note_on_c, 11, 81, 0
9, 114840, Note_on_c, 11, 79, 44
9, 114929, Note_on_c, 11, 79, 0
9, 114960, Note_on_c, 11, 77, 44
9, 115049, Note_on_c, 11, 77, 0
9, 115080, Note_on_c, 11, 76, 44
9, 115169, Note_on_c, 11, 76, 0
9, 115200, Note_on_c, 11, 77, 44
9, 115239, Note_on_c, 11, 77, 0
9, 115240, Note_on_c, 11, 79, 44
9, 115279, Note_on_c, 11, 79, 0
9, 115280, Note_on_c, 11, 77, 44
9, 115319, Note_on_c, 11, 77, 0
9, 115320, Note_on_c, 11, 79, 44
9, 115359, Note_on_c, 11, 79, 0
9, 115360, Note_on_c, 11, 76, 44
9, 115399, Note_on_c, 11, 76, 0
9, 115400, Note_on_c, 11, 77, 44
9, 115439, Note_on_c, 11, 77, 0
9, 115440, Note_on_c, 11, 79, 44
9, 115544, Note_on_c, 11, 79, 0
9, 115560, Note_on_c, 11, 77, 44
9, 115649, Note_on_c, 11, 77, 0
9, 115680, Note_on_c, 11, 76, 44
9, 115769, Note_on_c, 11, 76, 0
9, 115800, Note_on_c, 11, 74, 44
9, 115889, Note_on_c, 11, 74, 0
9, 115920, Note_on_c, 11, 76, 44
9, 115959, Note_on_c, 11, 76, 0
9, 115960, Note_on_c, 11, 77, 44
9, 115999, Note_on_c, 11, 77, 0
9, 116000, Note_on_c, 11, 76, 44
9, 116039, Note_on_c, 11, 76, 0
9, 116040, Note_on_c, 11, 77, 44
9, 116079, Note_on_c, 11, 77, 0
9, 116080, Note_on_c, 11, 74, 44
9, 116119, Note_on_c, 11, 74, 0
9, 116120, Note_on_c, 11, 76, 44
9, 116159, Note_on_c, 11, 76, 0
9, 116160, Note_on_c, 11, 77, 44
9, 116264, Note_on_c, 11, 77, 0
9, 116280, Note_on_c, 11, 76, 44
9, 116369, Note_on_c, 11, 76, 0
9, 116400, Note_on_c, 11, 74, 44
9, 116489, Note_on_c, 11, 74, 0
9, 116520, Note_on_c, 11, 72, 44
9, 116609, Note_on_c, 11, 72, 0
9, 116640, Note_on_c, 11, 74, 44
9, 116679, Note_on_c, 11, 74, 0
9, 116680, Note_on_c, 11, 76, 44
9, 116719, Note_on_c, 11, 76, 0
9, 116720, Note_on_c, 11, 74, 44
9, 116759, Note_on_c, 11, 74, 0
9, 116760, Note_on_c, 11, 76, 44
9, 116799, Note_on_c, 11, 76, 0
9, 116800, Note_on_c, 11, 72, 44
9, 116839, Note_on_c, 11, 72, 0
9, 116840, Note_on_c, 11, 74, 44
9, 116879, Note_on_c, 11, 74, 0
9, 116880, Note_on_c, 11, 76, 44
9, 116984, Note_on_c, 11, 76, 0
9, 117000, Note_on_c, 11, 74, 44
9, 117089, Note_on_c, 11, 74, 0
9, 117120, Note_on_c, 11, 72, 44
9, 117209, Note_on_c, 11, 72, 0
9, 117240, Note_on_c, 11, 71, 44
9, 117329, Note_on_c, 11, 71, 0
9, 117360, Note_on_c, 11, 64, 80
9, 117360, Note_on_c, 11, 72, 80
9, 117360, Note_on_c, 11, 55, 80
9, 117584, Note_on_c, 11, 55, 0
9, 117584, Note_on_c, 11, 72, 0
9, 117584, Note_on_c, 11, 64, 0
9, 117600, Note_on_c, 11, 67, 80
9, 117839, Note_on_c, 11, 67, 0
9, 118080, Note_on_c, 11, 64, 80
9, 118304, Note_on_c, 11, 64, 0
9, 118320, Note_on_c, 11, 60, 80
9, 118559, Note_on_c, 11, 60, 0
9, 120240, Note_on_c, 11, 79, 44
9, 120279, Note_on_c, 11, 79, 0
9, 120280, Note_on_c, 11, 81, 44
9, 120319, Note_on_c, 11, 81, 0
9, 120320, Note_on_c, 11, 79, 44
9, 120359, Note_on_c, 11, 79, 0
9, 120360, Note_on_c, 11, 81, 44
9, 120399, Note_on_c, 11, 81, 0
9, 120400, Note_on_c, 11, 77, 44
9, 120439, Note_on_c, 11, 77, 0
9, 120440, Note_on_c, 11, 79, 44
9, 120479, Note_on_c, 11, 79, 0
9, 120480, Note_on_c, 11, 81, 44
9, 120584, Note_on_c, 11, 81, 0
9, 120600, Note_on_c, 11, 79, 44
9, 120689, Note_on_c, 11, 79, 0
9, 120720, Note_on_c, 11, 77, 44
9, 120809, Note_on_c, 11, 77, 0
9, 120840, Note_on_c, 11, 76, 44
9, 120929, Note_on_c, 11, 76, 0
9, 120960, Note_on_c, 11, 77, 44
9, 120999, Note_on_c, 11, 77, 0
9, 121000, Note_on_c, 11, 79, 44
9, 121039, Note_on_c, 11, 79, 0
9, 121040, Note_on_c, 11, 77, 44
9, 121079, Note_on_c, 11, 77, 0
9, 121080, Note_on_c, 11, 79, 44
9, 121119, Note_on_c, 11, 79, 0
9, 121120, Note_on_c, 11, 76, 44
9, 121159, Note_on_c, 11, 76, 0
9, 121160, Note_on_c, 11, 77, 44
9, 121199, Note_on_c, 11, 77, 0
9, 121200, Note_on_c, 11, 79, 44
9, 121304, Note_on_c, 11, 79, 0
9, 121320, Note_on_c, 11, 77, 44
9, 121409, Note_on_c, 11, 77, 0
9, 121440, Note_on_c, 11, 76, 44
9, 121529, Note_on_c, 11, 76, 0
9, 121560, Note_on_c, 11, 74, 44
9, 121649, Note_on_c, 11, 74, 0
9, 121680, Note_on_c, 11, 72, 80
9, 121904, Note_on_c, 11, 72, 0
9, 121920, Note_on_c, 11, 72, 80
9, 122039, Note_on_c, 11, 72, 0
9, 122040, Note_on_c, 11, 76, 80
9, 122144, Note_on_c, 11, 76, 0
9, 122160, Note_on_c, 11, 79, 80
9, 122279, Note_on_c, 11, 79, 0
9, 122280, Note_on_c, 11, 84, 80
9, 122384, Note_on_c, 11, 84, 0
9, 122400, Note_on_c, 11, 84, 80
9, 122519, Note_on_c, 11, 84, 0
9, 122520, Note_on_c, 11, 74, 80
9, 122624, Note_on_c, 11, 74, 0
9, 122640, Note_on_c, 11, 74, 80
9, 122999, Note_on_c, 11, 74, 0
9, 123000, Note_on_c, 11, 76, 80
9, 123104, Note_on_c, 11, 76, 0
9, 123120, Note_on_c, 11, 76, 80
9, 123239, Note_on_c, 11, 76, 0
9, 123240, Note_on_c, 11, 77, 80
9, 123344, Note_on_c, 11, 77, 0
9, 123360, Note_on_c, 11, 77, 80
9, 123719, Note_on_c, 11, 77, 0
9, 123720, Note_on_c, 11, 79, 80
9, 123824, Note_on_c, 11, 79, 0
9, 123840, Note_on_c, 11, 81, 80
9, 124064, Note_on_c, 11, 81, 0
9, 124080, Note_on_c, 11, 79, 80
9, 124424, Note_on_c, 11, 79, 0
9, 124440, Note_on_c, 11, 77, 80
9, 124544, Note_on_c, 11, 77, 0
9, 124560, Note_on_c, 11, 76, 80
9, 124784, Note_on_c, 11, 76, 0
9, 124800, Note_on_c, 11, 79, 80
9, 124859, Note_on_c, 11, 79, 0
9, 124860, Note_on_c, 11, 77, 80
9, 125024, Note_on_c, 11, 77, 0
9, 125040, Note_on_c, 11, 76, 80
9, 125099, Note_on_c, 11, 76, 0
9, 125100, Note_on_c, 11, 74, 80
9, 125264, Note_on_c, 11, 74, 0
9, 125280, Note_on_c, 11, 79, 80
9, 125504, Note_on_c, 11, 79, 0
9, 125520, Note_on_c, 11, 84, 80
9, 125864, Note_on_c, 11, 84, 0
9, 125880, Note_on_c, 11, 76, 80
9, 125984, Note_on_c, 11, 76, 0
9, 126000, Note_on_c, 11, 74, 80
9, 126029, Note_on_c, 11, 74, 0
9, 126030, Note_on_c, 11, 76, 80
9, 126059, Note_on_c, 11, 76, 0
9, 126060, Note_on_c, 11, 77, 80
9, 126224, Note_on_c, 11, 77, 0
9, 126240, Note_on_c, 11, 76, 80
9, 126269, Note_on_c, 11, 76, 0
9, 126270, Note_on_c, 11, 77, 80
9, 126299, Note_on_c, 11, 77, 0
9, 126300, Note_on_c, 11, 79, 80
9, 126464, Note_on_c, 11, 79, 0
9, 126480, Note_on_c, 11, 71, 80
9, 126509, Note_on_c, 11, 71, 0
9, 126510, Note_on_c, 11, 72, 80
9, 126539, Note_on_c, 11, 72, 0
9, 126540, Note_on_c, 11, 74, 80
9, 126704, Note_on_c, 11, 74, 0
9, 126720, Note_on_c, 11, 72, 80
9, 126771, Note_on_c, 11, 72, 0
9, 126780, Note_on_c, 11, 84, 80
9, 126831, Note_on_c, 11, 84, 0
9, 126840, Note_on_c, 11, 84, 80
9, 126891, Note_on_c, 11, 84, 0
9, 126900, Note_on_c, 11, 84, 80
9, 126951, Note_on_c, 11, 84, 0
9, 126960, Note_on_c, 11, 84, 80
9, 127011, Note_on_c, 11, 84, 0
9, 127020, Note_on_c, 11, 84, 80
9, 127071, Note_on_c, 11, 84, 0
9, 127080, Note_on_c, 11, 84, 80
9, 127131, Note_on_c, 11, 84, 0
9, 127140, Note_on_c, 11, 84, 80
9, 127191, Note_on_c, 11, 84, 0
9, 127200, Note_on_c, 11, 84, 80
9, 127251, Note_on_c, 11, 84, 0
9, 127260, Note_on_c, 11, 84, 80
9, 127311, Note_on_c, 11, 84, 0
9, 127320, Note_on_c, 11, 84, 80
9, 127371, Note_on_c, 11, 84, 0
9, 127380, Note_on_c, 11, 84, 80
9, 127431, Note_on_c, 11, 84, 0
9, 127440, Note_on_c, 11, 84, 80
9, 127664, Note_on_c, 11, 84, 0
9, 127680, Note_on_c, 11, 81, 44
9, 127739, Note_on_c, 11, 81, 0
9, 127740, Note_on_c, 11, 79, 44
9, 127784, Note_on_c, 11, 79, 0
9, 127800, Note_on_c, 11, 77, 44
9, 127851, Note_on_c, 11, 77, 0
9, 127860, Note_on_c, 11, 76, 44
9, 127911, Note_on_c, 11, 76, 0
9, 127920, Note_on_c, 11, 81, 44
9, 127979, Note_on_c, 11, 81, 0
9, 127980, Note_on_c, 11, 79, 44
9, 128024, Note_on_c, 11, 79, 0
9, 128040, Note_on_c, 11, 77, 44
9, 128091, Note_on_c, 11, 77, 0
9, 128100, Note_on_c, 11, 76, 44
9, 128151, Note_on_c, 11, 76, 0
9, 128160, Note_on_c, 11, 77, 80
9, 128211, Note_on_c, 11, 77, 0
9, 128220, Note_on_c, 11, 84, 80
9, 128271, Note_on_c, 11, 84, 0
9, 128280, Note_on_c, 11, 84, 80
9, 128331, Note_on_c, 11, 84, 0
9, 128340, Note_on_c, 11, 84, 80
9, 128391, Note_on_c, 11, 84, 0
9, 128400, Note_on_c, 11, 84, 80
9, 128451, Note_on_c, 11, 84, 0
9, 128460, Note_on_c, 11, 84, 80
9, 128511, Note_on_c, 11, 84, 0
9, 128520, Note_on_c, 11, 84, 80
9, 128571, Note_on_c, 11, 84, 0
9, 128580, Note_on_c, 11, 84, 80
9, 128631, Note_on_c, 11, 84, 0
9, 128640, Note_on_c, 11, 84, 80
9, 128691, Note_on_c, 11, 84, 0
9, 128700, Note_on_c, 11, 84, 80
9, 128751, Note_on_c, 11, 84, 0
9, 128760, Note_on_c, 11, 84, 80
9, 128811, Note_on_c, 11, 84, 0
9, 128820, Note_on_c, 11, 84, 80
9, 128871, Note_on_c, 11, 84, 0
9, 128880, Note_on_c, 11, 84, 80
9, 129104, Note_on_c, 11, 84, 0
9, 129120, Note_on_c, 11, 82, 44
9, 129179, Note_on_c, 11, 82, 0
9, 129180, Note_on_c, 11, 81, 44
9, 129224, Note_on_c, 11, 81, 0
9, 129240, Note_on_c, 11, 79, 44
9, 129291, Note_on_c, 11, 79, 0
9, 129300, Note_on_c, 11, 77, 44
9, 129351, Note_on_c, 11, 77, 0
9, 129360, Note_on_c, 11, 82, 44
9, 129419, Note_on_c, 11, 82, 0
9, 129420, Note_on_c, 11, 81, 44
9, 129464, Note_on_c, 11, 81, 0
9, 129480, Note_on_c, 11, 79, 44
9, 129531, Note_on_c, 11, 79, 0
9, 129540, Note_on_c, 11, 77, 44
9, 129591, Note_on_c, 11, 77, 0
9, 129600, Note_on_c, 11, 76, 80
9, 129651, Note_on_c, 11, 76, 0
9, 129660, Note_on_c, 11, 81, 80
9, 129711, Note_on_c, 11, 81, 0
9, 129720, Note_on_c, 11, 81, 80
9, 129771, Note_on_c, 11, 81, 0
9, 129780, Note_on_c, 11, 81, 80
9, 129831, Note_on_c, 11, 81, 0
9, 129840, Note_on_c, 11, 81, 80
9, 129891, Note_on_c, 11, 81, 0
9, 129900, Note_on_c, 11, 81, 80
9, 129951, Note_on_c, 11, 81, 0
9, 129960, Note_on_c, 11, 81, 80
9, 130011, Note_on_c, 11, 81, 0
9, 130020, Note_on_c, 11, 81, 80
9, 130071, Note_on_c, 11, 81, 0
9, 130080, Note_on_c, 11, 81, 80
9, 130131, Note_on_c, 11, 81, 0
9, 130140, Note_on_c, 11, 81, 80
9, 130191, Note_on_c, 11, 81, 0
9, 130200, Note_on_c, 11, 81, 80
9, 130251, Note_on_c, 11, 81, 0
9, 130260, Note_on_c, 11, 81, 80
9, 130311, Note_on_c, 11, 81, 0
9, 130320, Note_on_c, 11, 81, 80
9, 130544, Note_on_c, 11, 81, 0
9, 130560, Note_on_c, 11, 77, 44
9, 130619, Note_on_c, 11, 77, 0
9, 130620, Note_on_c, 11, 76, 44
9, 130664, Note_on_c, 11, 76, 0
9, 130680, Note_on_c, 11, 74, 44
9, 130731, Note_on_c, 11, 74, 0
9, 130740, Note_on_c, 11, 73, 44
9, 130791, Note_on_c, 11, 73, 0
9, 130800, Note_on_c, 11, 77, 44
9, 130859, Note_on_c, 11, 77, 0
9, 130860, Note_on_c, 11, 76, 44
9, 130904, Note_on_c, 11, 76, 0
9, 130920, Note_on_c, 11, 74, 44
9, 130971, Note_on_c, 11, 74, 0
9, 130980, Note_on_c, 11, 73, 44
9, 131031, Note_on_c, 11, 73, 0
9, 131040, Note_on_c, 11, 74, 80
9, 131091, Note_on_c, 11, 74, 0
9, 131100, Note_on_c, 11, 81, 80
9, 131151, Note_on_c, 11, 81, 0
9, 131160, Note_on_c, 11, 81, 80
9, 131211, Note_on_c, 11, 81, 0
9, 131220, Note_on_c, 11, 81, 80
9, 131271, Note_on_c, 11, 81, 0
9, 131280, Note_on_c, 11, 81, 80
9, 131280, Note_on_c, 11, 69, 80
9, 131331, Note_on_c, 11, 69, 0
9, 131331, Note_on_c, 11, 81, 0
9, 131340, Note_on_c, 11, 69, 80
9, 131340, Note_on_c, 11, 81, 80
9, 131391, Note_on_c, 11, 81, 0
9, 131391, Note_on_c, 11, 69, 0
9, 131400, Note_on_c, 11, 69, 80
9, 131400, Note_on_c, 11, 81, 80
9, 131451, Note_on_c, 11, 81, 0
9, 131451, Note_on_c, 11, 69, 0
9, 131460, Note_on_c, 11, 69, 80
9, 131460, Note_on_c, 11, 81, 80
9, 131511, Note_on_c, 11, 81, 0
9, 131511, Note_on_c, 11, 69, 0
9, 131520, Note_on_c, 11, 69, 80
9, 131520, Note_on_c, 11, 81, 80
9, 131571, Note_on_c, 11, 81, 0
9, 131571, Note_on_c, 11, 69, 0
9, 131580, Note_on_c, 11, 69, 80
9, 131580, Note_on_c, 11, 81, 80
9, 131631, Note_on_c, 11, 81, 0
9, 131631, Note_on_c, 11, 69, 0
9, 131640, Note_on_c, 11, 81, 80
9, 131640, Note_on_c, 11, 69, 80
9, 131691, Note_on_c, 11, 69, 0
9, 131691, Note_on_c, 11, 81, 0
9, 131700, Note_on_c, 11, 69, 80
9, 131700, Note_on_c, 11, 81, 80
9, 131751, Note_on_c, 11, 81, 0
9, 131751, Note_on_c, 11, 69, 0
9, 131760, Note_on_c, 11, 81, 80
9, 131760, Note_on_c, 11, 69, 80
9, 131984, Note_on_c, 11, 69, 0
9, 131984, Note_on_c, 11, 81, 0
9, 132000, Note_on_c, 11, 79, 44
9, 132059, Note_on_c, 11, 79, 0
9, 132060, Note_on_c, 11, 77, 44
9, 132104, Note_on_c, 11, 77, 0
9, 132120, Note_on_c, 11, 76, 44
9, 132171, Note_on_c, 11, 76, 0
9, 132180, Note_on_c, 11, 74, 44
9, 132231, Note_on_c, 11, 74, 0
9, 132240, Note_on_c, 11, 79, 44
9, 132299, Note_on_c, 11, 79, 0
9, 132300, Note_on_c, 11, 77, 44
9, 132344, Note_on_c, 11, 77, 0
9, 132360, Note_on_c, 11, 76, 44
9, 132411, Note_on_c, 11, 76, 0
9, 132420, Note_on_c, 11, 74, 44
9, 132471, Note_on_c, 11, 74, 0
9, 132480, Note_on_c, 11, 74, 80
9, 132531, Note_on_c, 11, 74, 0
9, 132540, Note_on_c, 11, 84, 80
9, 132591, Note_on_c, 11, 84, 0
9, 132600, Note_on_c, 11, 84, 80
9, 132651, Note_on_c, 11, 84, 0
9, 132660, Note_on_c, 11, 84, 80
9, 132711, Note_on_c, 11, 84, 0
9, 132720, Note_on_c, 11, 84, 80
9, 132771, Note_on_c, 11, 84, 0
9, 132780, Note_on_c, 11, 84, 80
9, 132831, Note_on_c, 11, 84, 0
9, 132840, Note_on_c, 11, 84, 80
9, 132891, Note_on_c, 11, 84, 0
9, 132900, Note_on_c, 11, 84, 80
9, 132951, Note_on_c, 11, 84, 0
9, 132960, Note_on_c, 11, 84, 80
9, 133011, Note_on_c, 11, 84, 0
9, 133020, Note_on_c, 11, 84, 80
9, 133071, Note_on_c, 11, 84, 0
9, 133080, Note_on_c, 11, 84, 80
9, 133131, Note_on_c, 11, 84, 0
9, 133140, Note_on_c, 11, 84, 80
9, 133191, Note_on_c, 11, 84, 0
9, 133200, Note_on_c, 11, 84, 80
9, 133251, Note_on_c, 11, 84, 0
9, 133260, Note_on_c, 11, 83, 80
9, 133311, Note_on_c, 11, 83, 0
9, 133320, Note_on_c, 11, 81, 80
9, 133371, Note_on_c, 11, 81, 0
9, 133380, Note_on_c, 11, 83, 80
9, 133431, Note_on_c, 11, 83, 0
9, 133440, Note_on_c, 11, 81, 80
9, 133491, Note_on_c, 11, 81, 0
9, 133500, Note_on_c, 11, 79, 80
9, 133551, Note_on_c, 11, 79, 0
9, 133560, Note_on_c, 11, 78, 80
9, 133611, Note_on_c, 11, 78, 0
9, 133620, Note_on_c, 11, 79, 80
9, 133671, Note_on_c, 11, 79, 0
9, 133680, Note_on_c, 11, 78, 80
9, 133731, Note_on_c, 11, 78, 0
9, 133740, Note_on_c, 11, 76, 80
9, 133791, Note_on_c, 11, 76, 0
9, 133800, Note_on_c, 11, 74, 80
9, 133851, Note_on_c, 11, 74, 0
9, 133860, Note_on_c, 11, 72, 80
9, 133911, Note_on_c, 11, 72, 0
9, 133920, Note_on_c, 11, 71, 80
9, 133971, Note_on_c, 11, 71, 0
9, 133980, Note_on_c, 11, 77, 80
9, 134031, Note_on_c, 11, 77, 0
9, 134040, Note_on_c, 11, 77, 80
9, 134091, Note_on_c, 11, 77, 0
9, 134100, Note_on_c, 11, 77, 80
9, 134151, Note_on_c, 11, 77, 0
9, 134160, Note_on_c, 11, 77, 80
9, 134211, Note_on_c, 11, 77, 0
9, 134220, Note_on_c, 11, 77, 80
9, 134271, Note_on_c, 11, 77, 0
9, 134280, Note_on_c, 11, 77, 80
9, 134331, Note_on_c, 11, 77, 0
9, 134340, Note_on_c, 11, 77, 80
9, 134391, Note_on_c, 11, 77, 0
9, 134400, Note_on_c, 11, 77, 80
9, 134451, Note_on_c, 11, 77, 0
9, 134460, Note_on_c, 11, 77, 80
9, 134511, Note_on_c, 11, 77, 0
9, 134520, Note_on_c, 11, 77, 80
9, 134571, Note_on_c, 11, 77, 0
9, 134580, Note_on_c, 11, 77, 80
9, 134631, Note_on_c, 11, 77, 0
9, 134640, Note_on_c, 11, 77, 80
9, 134691, Note_on_c, 11, 77, 0
9, 134700, Note_on_c, 11, 76, 80
9, 134751, Note_on_c, 11, 76, 0
9, 134760, Note_on_c, 11, 74, 80
9, 134811, Note_on_c, 11, 74, 0
9, 134820, Note_on_c, 11, 76, 80
9, 134871, Note_on_c, 11, 76, 0
9, 134880, Note_on_c, 11, 74, 80
9, 134931, Note_on_c, 11, 74, 0
9, 134940, Note_on_c, 11, 72, 80
9, 134991, Note_on_c, 11, 72, 0
9, 135000, Note_on_c, 11, 71, 80
9, 135051, Note_on_c, 11, 71, 0
9, 135060, Note_on_c, 11, 72, 80
9, 135111, Note_on_c, 11, 72, 0
9, 135120, Note_on_c, 11, 71, 80
9, 135171, Note_on_c, 11, 71, 0
9, 135180, Note_on_c, 11, 69, 80
9, 135231, Note_on_c, 11, 69, 0
9, 135240, Note_on_c, 11, 67, 80
9, 135291, Note_on_c, 11, 67, 0
9, 135300, Note_on_c, 11, 65, 80
9, 135351, Note_on_c, 11, 65, 0
9, 135360, Note_on_c, 11, 64, 80
9, 135599, Note_on_c, 11, 64, 0
9, 135840, Note_on_c, 11, 76, 80
9, 135879, Note_on_c, 11, 76, 0
9, 135880, Note_on_c, 11, 77, 80
9, 135919, Note_on_c, 11, 77, 0
9, 135920, Note_on_c, 11, 76, 80
9, 135959, Note_on_c, 11, 76, 0
9, 135960, Note_on_c, 11, 77, 80
9, 135999, Note_on_c, 11, 77, 0
9, 136000, Note_on_c, 11, 74, 80
9, 136039, Note_on_c, 11, 74, 0
9, 136040, Note_on_c, 11, 76, 80
9, 136079, Note_on_c, 11, 76, 0
9, 136080, Note_on_c, 11, 77, 80
9, 136319, Note_on_c, 11, 77, 0
9, 136560, Note_on_c, 11, 77, 80
9, 136599, Note_on_c, 11, 77, 0
9, 136600, Note_on_c, 11, 79, 80
9, 136639, Note_on_c, 11, 79, 0
9, 136640, Note_on_c, 11, 77, 80
9, 136679, Note_on_c, 11, 77, 0
9, 136680, Note_on_c, 11, 79, 80
9, 136719, Note_on_c, 11, 79, 0
9, 136720, Note_on_c, 11, 76, 80
9, 136759, Note_on_c, 11, 76, 0
9, 136760, Note_on_c, 11, 77, 80
9, 136799, Note_on_c, 11, 77, 0
9, 136800, Note_on_c, 11, 79, 80
9, 137039, Note_on_c, 11, 79, 0
9, 137280, Note_on_c, 11, 79, 80
9, 137319, Note_on_c, 11, 79, 0
9, 137320, Note_on_c, 11, 81, 80
9, 137359, Note_on_c, 11, 81, 0
9, 137360, Note_on_c, 11, 79, 80
9, 137399, Note_on_c, 11, 79, 0
9, 137400, Note_on_c, 11, 81, 80
9, 137439, Note_on_c, 11, 81, 0
9, 137440, Note_on_c, 11, 77, 80
9, 137479, Note_on_c, 11, 77, 0
9, 137480, Note_on_c, 11, 79, 80
9, 137511, Note_on_c, 11, 79, 0
9, 137520, Note_on_c, 11, 81, 80
9, 137609, Note_on_c, 11, 81, 0
9, 137640, Note_on_c, 11, 79, 80
9, 137729, Note_on_c, 11, 79, 0
9, 137760, Note_on_c, 11, 77, 80
9, 137849, Note_on_c, 11, 77, 0
9, 137880, Note_on_c, 11, 76, 80
9, 137969, Note_on_c, 11, 76, 0
9, 138000, Note_on_c, 11, 74, 80
9, 138089, Note_on_c, 11, 74, 0
9, 138120, Note_on_c, 11, 72, 80
9, 138209, Note_on_c, 11, 72, 0
9, 138240, Note_on_c, 11, 79, 80
9, 138240, Note_on_c, 11, 62, 80
9, 138240, Note_on_c, 11, 71, 80
9, 138464, Note_on_c, 11, 71, 0
9, 138464, Note_on_c, 11, 62, 0
9, 138464, Note_on_c, 11, 79, 0
9, 138480, Note_on_c, 11, 55, 80
9, 138719, Note_on_c, 11, 55, 0
9, 138960, Note_on_c, 11, 67, 44
9, 139139, Note_on_c, 11, 67, 0
9, 139200, Note_on_c, 11, 67, 44
9, 139379, Note_on_c, 11, 67, 0
9, 139440, Note_on_c, 11, 67, 44
9, 139619, Note_on_c, 11, 67, 0
9, 139680, Note_on_c, 11, 69, 44
9, 140039, Note_on_c, 11, 69, 0
9, 140040, Note_on_c, 11, 71, 44
9, 140144, Note_on_c, 11, 71, 0
9, 140160, Note_on_c, 11, 72, 44
9, 140339, Note_on_c, 11, 72, 0
9, 140400, Note_on_c, 11, 62, 44
9, 140429, Note_on_c, 11, 62, 0
9, 140430, Note_on_c, 11, 64, 44
9, 140459, Note_on_c, 11, 64, 0
9, 140460, Note_on_c, 11, 65, 44
9, 140639, Note_on_c, 11, 65, 0
9, 141120, Note_on_c, 11, 64, 44
9, 141149, Note_on_c, 11, 64, 0
9, 141150, Note_on_c, 11, 65, 44
9, 141179, Note_on_c, 11, 65, 0
9, 141180, Note_on_c, 11, 67, 44
9, 141359, Note_on_c, 11, 67, 0
9, 141840, Note_on_c, 11, 67, 44
9, 142019, Note_on_c, 11, 67, 0
9, 142080, Note_on_c, 11, 67, 44
9, 142259, Note_on_c, 11, 67, 0
9, 142320, Note_on_c, 11, 67, 44
9, 142499, Note_on_c, 11, 67, 0
9, 142560, Note_on_c, 11, 69, 44
9, 142739, Note_on_c, 11, 69, 0
9, 142740, Note_on_c, 11, 71, 44
9, 142799, Note_on_c, 11, 71, 0
9, 142800, Note_on_c, 11, 72, 44
9, 142904, Note_on_c, 11, 72, 0
9, 142920, Note_on_c, 11, 71, 44
9, 143009, Note_on_c, 11, 71, 0
9, 143040, Note_on_c, 11, 69, 44
9, 143129, Note_on_c, 11, 69, 0
9, 143160, Note_on_c, 11, 67, 44
9, 143249, Note_on_c, 11, 67, 0
9, 143280, Note_on_c, 11, 67, 44
9, 143339, Note_on_c, 11, 67, 0
9, 143340, Note_on_c, 11, 65, 44
9, 143504, Note_on_c, 11, 65, 0
9, 143520, Note_on_c, 11, 64, 44
9, 143744, Note_on_c, 11, 64, 0
9, 143760, Note_on_c, 11, 62, 44
9, 143984, Note_on_c, 11, 62, 0
9, 144000, Note_on_c, 11, 63, 44
9, 144479, Note_on_c, 11, 63, 0
9, 144480, Note_on_c, 11, 64, 44
9, 144599, Note_on_c, 11, 64, 0
9, 146400, Note_on_c, 11, 71, 44
9, 146459, Note_on_c, 11, 71, 0
9, 146460, Note_on_c, 11, 72, 44
9, 146519, Note_on_c, 11, 72, 0
9, 146520, Note_on_c, 11, 71, 44
9, 146579, Note_on_c, 11, 71, 0
9, 146580, Note_on_c, 11, 72, 44
9, 146639, Note_on_c, 11, 72, 0
9, 146640, Note_on_c, 11, 74, 44
9, 146879, Note_on_c, 11, 74, 0
9, 147120, Note_on_c, 11, 72, 44
9, 147179, Note_on_c, 11, 72, 0
9, 147180, Note_on_c, 11, 74, 44
9, 147239, Note_on_c, 11, 74, 0
9, 147240, Note_on_c, 11, 72, 44
9, 147299, Note_on_c, 11, 72, 0
9, 147300, Note_on_c, 11, 74, 44
9, 147359, Note_on_c, 11, 74, 0
9, 147360, Note_on_c, 11, 76, 44
9, 147599, Note_on_c, 11, 76, 0
9, 149760, Note_on_c, 11, 79, 80
9, 149811, Note_on_c, 11, 79, 0
9, 149820, Note_on_c, 11, 79, 80
9, 149871, Note_on_c, 11, 79, 0
9, 149880, Note_on_c, 11, 78, 80
9, 149931, Note_on_c, 11, 78, 0
9, 149940, Note_on_c, 11, 78, 80
9, 149991, Note_on_c, 11, 78, 0
9, 150000, Note_on_c, 11, 79, 80
9, 150051, Note_on_c, 11, 79, 0
9, 150060, Note_on_c, 11, 79, 80
9, 150111, Note_on_c, 11, 79, 0
9, 150120, Note_on_c, 11, 78, 80
9, 150171, Note_on_c, 11, 78, 0
9, 150180, Note_on_c, 11, 78, 80
9, 150231, Note_on_c, 11, 78, 0
9, 150240, Note_on_c, 11, 79, 80
9, 150291, Note_on_c, 11, 79, 0
9, 150300, Note_on_c, 11, 79, 80
9, 150351, Note_on_c, 11, 79, 0
9, 150360, Note_on_c, 11, 76, 80
9, 150411, Note_on_c, 11, 76, 0
9, 150420, Note_on_c, 11, 76, 80
9, 150471, Note_on_c, 11, 76, 0
9, 150480, Note_on_c, 11, 79, 80
9, 150531, Note_on_c, 11, 79, 0
9, 150540, Note_on_c, 11, 79, 80
9, 150591, Note_on_c, 11, 79, 0
9, 150600, Note_on_c, 11, 78, 80
9, 150651, Note_on_c, 11, 78, 0
9, 150660, Note_on_c, 11, 78, 80
9, 150711, Note_on_c, 11, 78, 0
9, 150720, Note_on_c, 11, 79, 80
9, 150771, Note_on_c, 11, 79, 0
9, 150780, Note_on_c, 11, 79, 80
9, 150831, Note_on_c, 11, 79, 0
9, 150840, Note_on_c, 11, 78, 80
9, 150891, Note_on_c, 11, 78, 0
9, 150900, Note_on_c, 11, 78, 80
9, 150951, Note_on_c, 11, 78, 0
9, 150960, Note_on_c, 11, 79, 80
9, 151011, Note_on_c, 11, 79, 0
9, 151020, Note_on_c, 11, 79, 80
9, 151071, Note_on_c, 11, 79, 0
9, 151080, Note_on_c, 11, 74, 80
9, 151131, Note_on_c, 11, 74, 0
9, 151140, Note_on_c, 11, 74, 80
9, 151191, Note_on_c, 11, 74, 0
9, 151200, Note_on_c, 11, 84, 80
9, 151251, Note_on_c, 11, 84, 0
9, 151260, Note_on_c, 11, 84, 80
9, 151311, Note_on_c, 11, 84, 0
9, 151320, Note_on_c, 11, 83, 80
9, 151371, Note_on_c, 11, 83, 0
9, 151380, Note_on_c, 11, 83, 80
9, 151431, Note_on_c, 11, 83, 0
9, 151440, Note_on_c, 11, 84, 80
9, 151491, Note_on_c, 11, 84, 0
9, 151500, Note_on_c, 11, 84, 80
9, 151551, Note_on_c, 11, 84, 0
9, 151560, Note_on_c, 11, 83, 80
9, 151611, Note_on_c, 11, 83, 0
9, 151620, Note_on_c, 11, 83, 80
9, 151671, Note_on_c, 11, 83, 0
9, 151680, Note_on_c, 11, 84, 80
9, 151731, Note_on_c, 11, 84, 0
9, 151740, Note_on_c, 11, 84, 80
9, 151791, Note_on_c, 11, 84, 0
9, 151800, Note_on_c, 11, 81, 80
9, 151851, Note_on_c, 11, 81, 0
9, 151860, Note_on_c, 11, 81, 80
9, 151911, Note_on_c, 11, 81, 0
9, 151920, Note_on_c, 11, 84, 80
9, 151971, Note_on_c, 11, 84, 0
9, 151980, Note_on_c, 11, 84, 80
9, 152031, Note_on_c, 11, 84, 0
9, 152040, Note_on_c, 11, 83, 80
9, 152091, Note_on_c, 11, 83, 0
9, 152100, Note_on_c, 11, 83, 80
9, 152151, Note_on_c, 11, 83, 0
9, 152160, Note_on_c, 11, 84, 80
9, 152211, Note_on_c, 11, 84, 0
9, 152220, Note_on_c, 11, 84, 80
9, 152271, Note_on_c, 11, 84, 0
9, 152280, Note_on_c, 11, 83, 80
9, 152331, Note_on_c, 11, 83, 0
9, 152340, Note_on_c, 11, 83, 80
9, 152391, Note_on_c, 11, 83, 0
9, 152400, Note_on_c, 11, 84, 80
9, 152451, Note_on_c, 11, 84, 0
9, 152460, Note_on_c, 11, 84, 80
9, 152511, Note_on_c, 11, 84, 0
9, 152520, Note_on_c, 11, 76, 80
9, 152571, Note_on_c, 11, 76, 0
9, 152580, Note_on_c, 11, 76, 80
9, 152631, Note_on_c, 11, 76, 0
9, 152640, Note_on_c, 11, 77, 80
9, 152864, Note_on_c, 11, 77, 0
9, 152880, Note_on_c, 11, 77, 80
9, 153104, Note_on_c, 11, 77, 0
9, 153120, Note_on_c, 11, 77, 80
9, 153344, Note_on_c, 11, 77, 0
9, 153360, Note_on_c, 11, 77, 80
9, 153584, Note_on_c, 11, 77, 0
9, 153600, Note_on_c, 11, 79, 80
9, 153659, Note_on_c, 11, 79, 0
9, 153660, Note_on_c, 11, 77, 80
9, 153704, Note_on_c, 11, 77, 0
9, 153720, Note_on_c, 11, 76, 80
9, 153771, Note_on_c, 11, 76, 0
9, 153780, Note_on_c, 11, 74, 80
9, 153831, Note_on_c, 11, 74, 0
9, 153840, Note_on_c, 11, 76, 80
9, 154019, Note_on_c, 11, 76, 0
9, 154020, Note_on_c, 11, 84, 80
9, 154071, Note_on_c, 11, 84, 0
9, 154080, Note_on_c, 11, 81, 80
9, 154259, Note_on_c, 11, 81, 0
9, 154260, Note_on_c, 11, 86, 80
9, 154311, Note_on_c, 11, 86, 0
9, 154320, Note_on_c, 11, 84, 80
9, 154559, Note_on_c, 11, 84, 0
9, 154560, Note_on_c, 11, 83, 80
9, 154784, Note_on_c, 11, 83, 0
9, 154800, Note_on_c, 11, 84, 80
9, 154979, Note_on_c, 11, 84, 0
9, 155040, Note_on_c, 11, 82, 80
9, 155219, Note_on_c, 11, 82, 0
9, 155280, Note_on_c, 11, 81, 80
9, 155459, Note_on_c, 11, 81, 0
9, 155520, Note_on_c, 11, 79, 80
9, 155520, Note_on_c, 11, 69, 80
9, 155699, Note_on_c, 11, 69, 0
9, 155699, Note_on_c, 11, 79, 0
9, 155760, Note_on_c, 11, 69, 80
9, 155760, Note_on_c, 11, 78, 80
9, 155760, Note_on_c, 11, 62, 80
9, 155939, Note_on_c, 11, 62, 0
9, 155939, Note_on_c, 11, 78, 0
9, 155939, Note_on_c, 11, 69, 0
9, 156240, Note_on_c, 11, 77, 44
9, 156464, Note_on_c, 11, 77, 0
9, 156480, Note_on_c, 11, 65, 44
9, 156704, Note_on_c, 11, 65, 0
9, 156720, Note_on_c, 11, 65, 44
9, 156944, Note_on_c, 11, 65, 0
9, 156960, Note_on_c, 11, 65, 44
9, 157184, Note_on_c, 11, 65, 0
9, 157200, Note_on_c, 11, 67, 44
9, 157259, Note_on_c, 11, 67, 0
9, 157260, Note_on_c, 11, 65, 44
9, 157304, Note_on_c, 11, 65, 0
9, 157320, Note_on_c, 11, 64, 44
9, 157371, Note_on_c, 11, 64, 0
9, 157380, Note_on_c, 11, 62, 44
9, 157431, Note_on_c, 11, 62, 0
9, 157440, Note_on_c, 11, 64, 44
9, 157619, Note_on_c, 11, 64, 0
9, 157620, Note_on_c, 11, 67, 44
9, 157671, Note_on_c, 11, 67, 0
9, 157680, Note_on_c, 11, 69, 44
9, 157859, Note_on_c, 11, 69, 0
9, 157860, Note_on_c, 11, 74, 44
9, 157911, Note_on_c, 11, 74, 0
9, 157920, Note_on_c, 11, 72, 44
9, 158159, Note_on_c, 11, 72, 0
9, 158160, Note_on_c, 11, 71, 44
9, 158384, Note_on_c, 11, 71, 0
9, 158400, Note_on_c, 11, 72, 80
9, 158639, Note_on_c, 11, 72, 0
9, 158880, Note_on_c, 11, 79, 80
9, 158939, Note_on_c, 11, 79, 0
9, 158940, Note_on_c, 11, 77, 80
9, 158984, Note_on_c, 11, 77, 0
9, 159000, Note_on_c, 11, 76, 80
9, 159051, Note_on_c, 11, 76, 0
9, 159060, Note_on_c, 11, 74, 80
9, 159111, Note_on_c, 11, 74, 0
9, 159120, Note_on_c, 11, 76, 80
9, 159359, Note_on_c, 11, 76, 0
9, 159600, Note_on_c, 11, 76, 80
9, 159659, Note_on_c, 11, 76, 0
9, 159660, Note_on_c, 11, 74, 80
9, 159704, Note_on_c, 11, 74, 0
9, 159720, Note_on_c, 11, 72, 80
9, 159771, Note_on_c, 11, 72, 0
9, 159780, Note_on_c, 11, 71, 80
9, 159831, Note_on_c, 11, 71, 0
9, 159840, Note_on_c, 11, 72, 80
9, 160079, Note_on_c, 11, 72, 0
9, 160320, Note_on_c, 11, 79, 80
9, 160379, Note_on_c, 11, 79, 0
9, 160380, Note_on_c, 11, 77, 80
9, 160424, Note_on_c, 11, 77, 0
9, 160440, Note_on_c, 11, 76, 80
9, 160491, Note_on_c, 11, 76, 0
9, 160500, Note_on_c, 11, 74, 80
9, 160551, Note_on_c, 11, 74, 0
9, 160560, Note_on_c, 11, 76, 80
9, 160799, Note_on_c, 11, 76, 0
9, 161040, Note_on_c, 11, 76, 80
9, 161099, Note_on_c, 11, 76, 0
9, 161100, Note_on_c, 11, 74, 80
9, 161144, Note_on_c, 11, 74, 0
9, 161160, Note_on_c, 11, 72, 80
9, 161211, Note_on_c, 11, 72, 0
9, 161220, Note_on_c, 11, 71, 80
9, 161271, Note_on_c, 11, 71, 0
9, 161280, Note_on_c, 11, 72, 80
9, 161331, Note_on_c, 11, 72, 0
9, 161340, Note_on_c, 11, 67, 80
9, 161391, Note_on_c, 11, 67, 0
9, 161400, Note_on_c, 11, 67, 80
9, 161451, Note_on_c, 11, 67, 0
9, 161460, Note_on_c, 11, 67, 80
9, 161511, Note_on_c, 11, 67, 0
9, 161520, Note_on_c, 11, 76, 80
9, 161571, Note_on_c, 11, 76, 0
9, 161580, Note_on_c, 11, 67, 80
9, 161631, Note_on_c, 11, 67, 0
9, 161640, Note_on_c, 11, 67, 80
9, 161691, Note_on_c, 11, 67, 0
9, 161700, Note_on_c, 11, 67, 80
9, 161751, Note_on_c, 11, 67, 0
9, 161760, Note_on_c, 11, 71, 80
9, 161811, Note_on_c, 11, 71, 0
9, 161820, Note_on_c, 11, 67, 80
9, 161871, Note_on_c, 11, 67, 0
9, 161880, Note_on_c, 11, 67, 80
9, 161931, Note_on_c, 11, 67, 0
9, 161940, Note_on_c, 11, 67, 80
9, 161991, Note_on_c, 11, 67, 0
9, 162000, Note_on_c, 11, 72, 80
9, 162051, Note_on_c, 11, 72, 0
9, 162060, Note_on_c, 11, 67, 80
9, 162111, Note_on_c, 11, 67, 0
9, 162120, Note_on_c, 11, 67, 80
9, 162171, Note_on_c, 11, 67, 0
9, 162180, Note_on_c, 11, 67, 80
9, 162231, Note_on_c, 11, 67, 0
9, 162240, Note_on_c, 11, 76, 80
9, 162291, Note_on_c, 11, 76, 0
9, 162300, Note_on_c, 11, 67, 80
9, 162351, Note_on_c, 11, 67, 0
9, 162360, Note_on_c, 11, 67, 80
9, 162411, Note_on_c, 11, 67, 0
9, 162420, Note_on_c, 11, 67, 80
9, 162471, Note_on_c, 11, 67, 0
9, 162480, Note_on_c, 11, 71, 80
9, 162531, Note_on_c, 11, 71, 0
9, 162540, Note_on_c, 11, 67, 80
9, 162591, Note_on_c, 11, 67, 0
9, 162600, Note_on_c, 11, 67, 80
9, 162651, Note_on_c, 11, 67, 0
9, 162660, Note_on_c, 11, 67, 80
9, 162711, Note_on_c, 11, 67, 0
9, 162720, Note_on_c, 11, 55, 80
9, 162720, Note_on_c, 11, 72, 80
9, 162720, Note_on_c, 11, 64, 80
9, 162944, Note_on_c, 11, 64, 0
9, 162944, Note_on_c, 11, 72, 0
9, 162944, Note_on_c, 11, 55, 0
9, 162960, Note_on_c, 11, 67, 80
9, 163199, Note_on_c, 11, 67, 0
9, 163440, Note_on_c, 11, 64, 80
9, 163664, Note_on_c, 11, 64, 0
9, 163680, Note_on_c, 11, 60, 80
9, 163919, Note_on_c, 11, 60, 0
9, 164160, Note_on_c, 11, 79, 44
9, 164199, Note_on_c, 11, 79, 0
9, 164200, Note_on_c, 11, 81, 44
9, 164239, Note_on_c, 11, 81, 0
9, 164240, Note_on_c, 11, 79, 44
9, 164279, Note_on_c, 11, 79, 0
9, 164280, Note_on_c, 11, 81, 44
9, 164319, Note_on_c, 11, 81, 0
9, 164320, Note_on_c, 11, 77, 44
9, 164359, Note_on_c, 11, 77, 0
9, 164360, Note_on_c, 11, 79, 44
9, 164399, Note_on_c, 11, 79, 0
9, 164400, Note_on_c, 11, 81, 44
9, 164504, Note_on_c, 11, 81, 0
9, 164520, Note_on_c, 11, 79, 44
9, 164609, Note_on_c, 11, 79, 0
9, 164640, Note_on_c, 11, 77, 44
9, 164729, Note_on_c, 11, 77, 0
9, 164760, Note_on_c, 11, 76, 44
9, 164849, Note_on_c, 11, 76, 0
9, 164880, Note_on_c, 11, 77, 44
9, 164919, Note_on_c, 11, 77, 0
9, 164920, Note_on_c, 11, 79, 44
9, 164959, Note_on_c, 11, 79, 0
9, 164960, Note_on_c, 11, 77, 44
9, 164999, Note_on_c, 11, 77, 0
9, 165000, Note_on_c, 11, 79, 44
9, 165039, Note_on_c, 11, 79, 0
9, 165040, Note_on_c, 11, 76, 44
9, 165079, Note_on_c, 11, 76, 0
9, 165080, Note_on_c, 11, 77, 44
9, 165119, Note_on_c, 11, 77, 0
9, 165120, Note_on_c, 11, 79, 44
9, 165224, Note_on_c, 11, 79, 0
9, 165240, Note_on_c, 11, 77, 44
9, 165329, Note_on_c, 11, 77, 0
9, 165360, Note_on_c, 11, 76, 44
9, 165449, Note_on_c, 11, 76, 0
9, 165480, Note_on_c, 11, 74, 44
9, 165569, Note_on_c, 11, 74, 0
9, 165600, Note_on_c, 11, 76, 44
9, 165639, Note_on_c, 11, 76, 0
9, 165640, Note_on_c, 11, 77, 44
9, 165679, Note_on_c, 11, 77, 0
9, 165680, Note_on_c, 11, 76, 44
9, 165719, Note_on_c, 11, 76, 0
9, 165720, Note_on_c, 11, 77, 44
9, 165759, Note_on_c, 11, 77, 0
9, 165760, Note_on_c, 11, 74, 44
9, 165799, Note_on_c, 11, 74, 0
9, 165800, Note_on_c, 11, 76, 44
9, 165839, Note_on_c, 11, 76, 0
9, 165840, Note_on_c, 11, 77, 44
9, 165944, Note_on_c, 11, 77, 0
9, 165960, Note_on_c, 11, 76, 44
9, 166049, Note_on_c, 11, 76, 0
9, 166080, Note_on_c, 11, 74, 44
9, 166169, Note_on_c, 11, 74, 0
9, 166200, Note_on_c, 11, 72, 44
9, 166289, Note_on_c, 11, 72, 0
9, 166320, Note_on_c, 11, 74, 44
9, 166359, Note_on_c, 11, 74, 0
9, 166360, Note_on_c, 11, 76, 44
9, 166399, Note_on_c, 11, 76, 0
9, 166400, Note_on_c, 11, 74, 44
9, 166439, Note_on_c, 11, 74, 0
9, 166440, Note_on_c, 11, 76, 44
9, 166479, Note_on_c, 11, 76, 0
9, 166480, Note_on_c, 11, 72, 44
9, 166519, Note_on_c, 11, 72, 0
9, 166520, Note_on_c, 11, 74, 44
9, 166559, Note_on_c, 11, 74, 0
9, 166560, Note_on_c, 11, 76, 44
9, 166664, Note_on_c, 11, 76, 0
9, 166680, Note_on_c, 11, 74, 44
9, 166769, Note_on_c, 11, 74, 0
9, 166800, Note_on_c, 11, 72, 44
9, 166889, Note_on_c, 11, 72, 0
9, 166920, Note_on_c, 11, 71, 44
9, 167009, Note_on_c, 11, 71, 0
9, 167040, Note_on_c, 11, 72, 80
9, 167091, Note_on_c, 11, 72, 0
9, 167100, Note_on_c, 11, 84, 80
9, 167151, Note_on_c, 11, 84, 0
9, 167160, Note_on_c, 11, 84, 80
9, 167211, Note_on_c, 11, 84, 0
9, 167220, Note_on_c, 11, 84, 80
9, 167271, Note_on_c, 11, 84, 0
9, 167280, Note_on_c, 11, 84, 80
9, 167331, Note_on_c, 11, 84, 0
9, 167340, Note_on_c, 11, 84, 80
9, 167391, Note_on_c, 11, 84, 0
9, 167400, Note_on_c, 11, 84, 80
9, 167451, Note_on_c, 11, 84, 0
9, 167460, Note_on_c, 11, 84, 80
9, 167511, Note_on_c, 11, 84, 0
9, 167520, Note_on_c, 11, 84, 80
9, 167571, Note_on_c, 11, 84, 0
9, 167580, Note_on_c, 11, 84, 80
9, 167631, Note_on_c, 11, 84, 0
9, 167640, Note_on_c, 11, 84, 80
9, 167691, Note_on_c, 11, 84, 0
9, 167700, Note_on_c, 11, 84, 80
9, 167751, Note_on_c, 11, 84, 0
9, 167760, Note_on_c, 11, 81, 80
9, 167879, Note_on_c, 11, 81, 0
9, 168000, Note_on_c, 11, 77, 80
9, 168119, Note_on_c, 11, 77, 0
9, 168240, Note_on_c, 11, 74, 80
9, 168359, Note_on_c, 11, 74, 0
9, 168480, Note_on_c, 11, 84, 80
9, 168531, Note_on_c, 11, 84, 0
9, 168540, Note_on_c, 11, 84, 80
9, 168591, Note_on_c, 11, 84, 0
9, 168600, Note_on_c, 11, 84, 80
9, 168651, Note_on_c, 11, 84, 0
9, 168660, Note_on_c, 11, 84, 80
9, 168711, Note_on_c, 11, 84, 0
9, 168720, Note_on_c, 11, 84, 80
9, 168771, Note_on_c, 11, 84, 0
9, 168780, Note_on_c, 11, 84, 80
9, 168831, Note_on_c, 11, 84, 0
9, 168840, Note_on_c, 11, 84, 80
9, 168891, Note_on_c, 11, 84, 0
9, 168900, Note_on_c, 11, 84, 80
9, 168951, Note_on_c, 11, 84, 0
9, 168960, Note_on_c, 11, 84, 80
9, 169011, Note_on_c, 11, 84, 0
9, 169020, Note_on_c, 11, 84, 80
9, 169071, Note_on_c, 11, 84, 0
9, 169080, Note_on_c, 11, 84, 80
9, 169131, Note_on_c, 11, 84, 0
9, 169140, Note_on_c, 11, 84, 80
9, 169191, Note_on_c, 11, 84, 0
9, 169200, Note_on_c, 11, 81, 80
9, 169319, Note_on_c, 11, 81, 0
9, 169440, Note_on_c, 11, 77, 80
9, 169559, Note_on_c, 11, 77, 0
9, 169680, Note_on_c, 11, 74, 80
9, 169799, Note_on_c, 11, 74, 0
9, 169920, Note_on_c, 11, 72, 80
9, 169971, Note_on_c, 11, 72, 0
9, 169980, Note_on_c, 11, 72, 80
9, 170031, Note_on_c, 11, 72, 0
9, 170040, Note_on_c, 11, 72, 80
9, 170091, Note_on_c, 11, 72, 0
9, 170100, Note_on_c, 11, 72, 80
9, 170151, Note_on_c, 11, 72, 0
9, 170160, Note_on_c, 11, 79, 80
9, 170211, Note_on_c, 11, 79, 0
9, 170220, Note_on_c, 11, 79, 80
9, 170271, Note_on_c, 11, 79, 0
9, 170280, Note_on_c, 11, 79, 80
9, 170331, Note_on_c, 11, 79, 0
9, 170340, Note_on_c, 11, 79, 80
9, 170391, Note_on_c, 11, 79, 0
9, 170400, Note_on_c, 11, 76, 80
9, 170451, Note_on_c, 11, 76, 0
9, 170460, Note_on_c, 11, 76, 80
9, 170511, Note_on_c, 11, 76, 0
9, 170520, Note_on_c, 11, 76, 80
9, 170571, Note_on_c, 11, 76, 0
9, 170580, Note_on_c, 11, 76, 80
9, 170631, Note_on_c, 11, 76, 0
9, 170640, Note_on_c, 11, 72, 80
9, 170691, Note_on_c, 11, 72, 0
9, 170700, Note_on_c, 11, 72, 80
9, 170751, Note_on_c, 11, 72, 0
9, 170760, Note_on_c, 11, 72, 80
9, 170811, Note_on_c, 11, 72, 0
9, 170820, Note_on_c, 11, 72, 80
9, 170871, Note_on_c, 11, 72, 0
9, 170880, Note_on_c, 11, 67, 80
9, 170931, Note_on_c, 11, 67, 0
9, 170940, Note_on_c, 11, 67, 80
9, 170991, Note_on_c, 11, 67, 0
9, 171000, Note_on_c, 11, 67, 80
9, 171051, Note_on_c, 11, 67, 0
9, 171060, Note_on_c, 11, 67, 80
9, 171111, Note_on_c, 11, 67, 0
9, 171120, Note_on_c, 11, 64, 80
9, 171171, Note_on_c, 11, 64, 0
9, 171180, Note_on_c, 11, 64, 80
9, 171231, Note_on_c, 11, 64, 0
9, 171240, Note_on_c, 11, 64, 80
9, 171291, Note_on_c, 11, 64, 0
9, 171300, Note_on_c, 11, 64, 80
9, 171351, Note_on_c, 11, 64, 0
9, 171360, Note_on_c, 11, 60, 80
9, 171411, Note_on_c, 11, 60, 0
9, 171420, Note_on_c, 11, 60, 80
9, 171471, Note_on_c, 11, 60, 0
9, 171480, Note_on_c, 11, 60, 80
9, 171531, Note_on_c, 11, 60, 0
9, 171540, Note_on_c, 11, 60, 80
9, 171591, Note_on_c, 11, 60, 0
9, 171600, Note_on_c, 11, 55, 80
9, 171651, Note_on_c, 11, 55, 0
9, 171660, Note_on_c, 11, 55, 80
9, 171711, Note_on_c, 11, 55, 0
9, 171720, Note_on_c, 11, 55, 80
9, 171771, Note_on_c, 11, 55, 0
9, 171780, Note_on_c, 11, 55, 80
9, 171831, Note_on_c, 11, 55, 0
9, 171840, Note_on_c, 11, 64, 80
9, 171891, Note_on_c, 11, 64, 0
9, 171900, Note_on_c, 11, 64, 80
9, 171951, Note_on_c, 11, 64, 0
9, 171960, Note_on_c, 11, 64, 80
9, 172011, Note_on_c, 11, 64, 0
9, 172020, Note_on_c, 11, 64, 80
9, 172071, Note_on_c, 11, 64, 0
9, 172080, Note_on_c, 11, 60, 80
9, 172319, Note_on_c, 11, 60, 0
9, 172319, End_track
10, 0, Start_track
10, 0, Title_t, "Violin II"
10, 0, Program_c, 12, 48
10, 0, Control_c, 12, 7, 96
10, 0, Control_c, 12, 10, 43
10, 0, Control_c, 12, 121, 0
10, 0, Control_c, 12, 11, 127
10, 0, Note_on_c, 12, 72, 80
10, 0, Note_on_c, 12, 64, 80
10, 0, Note_on_c, 12, 55, 80
10, 224, Note_on_c, 12, 55, 0
10, 224, Note_on_c, 12, 64, 0
10, 224, Note_on_c, 12, 72, 0
10, 240, Note_on_c, 12, 67, 80
10, 479, Note_on_c, 12, 67, 0
10, 720, Note_on_c, 12, 64, 80
10, 944, Note_on_c, 12, 64, 0
10, 960, Note_on_c, 12, 60, 80
10, 1199, Note_on_c, 12, 60, 0
10, 2880, Note_on_c, 12, 67, 44
10, 2919, Note_on_c, 12, 67, 0
10, 2920, Note_on_c, 12, 69, 44
10, 2959, Note_on_c, 12, 69, 0
10, 2960, Note_on_c, 12, 67, 44
10, 2999, Note_on_c, 12, 67, 0
10, 3000, Note_on_c, 12, 69, 44
10, 3039, Note_on_c, 12, 69, 0
10, 3040, Note_on_c, 12, 65, 44
10, 3079, Note_on_c, 12, 65, 0
10, 3080, Note_on_c, 12, 67, 44
10, 3119, Note_on_c, 12, 67, 0
10, 3120, Note_on_c, 12, 69, 44
10, 3224, Note_on_c, 12, 69, 0
10, 3240, Note_on_c, 12, 67, 44
10, 3329, Note_on_c, 12, 67, 0
10, 3360, Note_on_c, 12, 65, 44
10, 3449, Note_on_c, 12, 65, 0
10, 3480, Note_on_c, 12, 64, 44
10, 3569, Note_on_c, 12, 64, 0
10, 3600, Note_on_c, 12, 65, 44
10, 3639, Note_on_c, 12, 65, 0
10, 3640, Note_on_c, 12, 67, 44
10, 3679, Note_on_c, 12, 67, 0
10, 3680, Note_on_c, 12, 65, 44
10, 3719, Note_on_c, 12, 65, 0
10, 3720, Note_on_c, 12, 67, 44
10, 3759, Note_on_c, 12, 67, 0
10, 3760, Note_on_c, 12, 64, 44
10, 3799, Note_on_c, 12, 64, 0
10, 3800, Note_on_c, 12, 65, 44
10, 3839, Note_on_c, 12, 65, 0
10, 3840, Note_on_c, 12, 67, 44
10, 3944, Note_on_c, 12, 67, 0
10, 3960, Note_on_c, 12, 65, 44
10, 4049, Note_on_c, 12, 65, 0
10, 4080, Note_on_c, 12, 64, 44
10, 4169, Note_on_c, 12, 64, 0
10, 4200, Note_on_c, 12, 62, 44
10, 4289, Note_on_c, 12, 62, 0
10, 4320, Note_on_c, 12, 72, 80
10, 4320, Note_on_c, 12, 55, 80
10, 4320, Note_on_c, 12, 64, 80
10, 4544, Note_on_c, 12, 64, 0
10, 4544, Note_on_c, 12, 55, 0
10, 4544, Note_on_c, 12, 72, 0
10, 4560, Note_on_c, 12, 67, 80
10, 4799, Note_on_c, 12, 67, 0
10, 5040, Note_on_c, 12, 64, 80
10, 5264, Note_on_c, 12, 64, 0
10, 5280, Note_on_c, 12, 60, 80
10, 5519, Note_on_c, 12, 60, 0
10, 5760, Note_on_c, 12, 67, 44
10, 5799, Note_on_c, 12, 67, 0
10, 5800, Note_on_c, 12, 69, 44
10, 5839, Note_on_c, 12, 69, 0
10, 5840, Note_on_c, 12, 67, 44
10, 5879, Note_on_c, 12, 67, 0
10, 5880, Note_on_c, 12, 69, 44
10, 5919, Note_on_c, 12, 69, 0
10, 5920, Note_on_c, 12, 65, 44
10, 5959, Note_on_c, 12, 65, 0
10, 5960, Note_on_c, 12, 67, 44
10, 5999, Note_on_c, 12, 67, 0
10, 6000, Note_on_c, 12, 69, 44
10, 6104, Note_on_c, 12, 69, 0
10, 6120, Note_on_c, 12, 67, 44
10, 6209, Note_on_c, 12, 67, 0
10, 6240, Note_on_c, 12, 65, 44
10, 6329, Note_on_c, 12, 65, 0
10, 6360, Note_on_c, 12, 64, 44
10, 6449, Note_on_c, 12, 64, 0
10, 6480, Note_on_c, 12, 65, 44
10, 6519, Note_on_c, 12, 65, 0
10, 6520, Note_on_c, 12, 67, 44
10, 6559, Note_on_c, 12, 67, 0
10, 6560, Note_on_c, 12, 65, 44
10, 6599, Note_on_c, 12, 65, 0
10, 6600, Note_on_c, 12, 67, 44
10, 6639, Note_on_c, 12, 67, 0
10, 6640, Note_on_c, 12, 64, 44
10, 6679, Note_on_c, 12, 64, 0
10, 6680, Note_on_c, 12, 65, 44
10, 6719, Note_on_c, 12, 65, 0
10, 6720, Note_on_c, 12, 67, 44
10, 6824, Note_on_c, 12, 67, 0
10, 6840, Note_on_c, 12, 65, 44
10, 6929, Note_on_c, 12, 65, 0
10, 6960, Note_on_c, 12, 64, 44
10, 7049, Note_on_c, 12, 64, 0
10, 7080, Note_on_c, 12, 62, 44
10, 7169, Note_on_c, 12, 62, 0
10, 7200, Note_on_c, 12, 64, 44
10, 7239, Note_on_c, 12, 64, 0
10, 7240, Note_on_c, 12, 65, 44
10, 7279, Note_on_c, 12, 65, 0
10, 7280, Note_on_c, 12, 64, 44
10, 7319, Note_on_c, 12, 64, 0
10, 7320, Note_on_c, 12, 65, 44
10, 7359, Note_on_c, 12, 65, 0
10, 7360, Note_on_c, 12, 62, 44
10, 7399, Note_on_c, 12, 62, 0
10, 7400, Note_on_c, 12, 64, 44
10, 7439, Note_on_c, 12, 64, 0
10, 7440, Note_on_c, 12, 65, 44
10, 7544, Note_on_c, 12, 65, 0
10, 7560, Note_on_c, 12, 64, 44
10, 7649, Note_on_c, 12, 64, 0
10, 7680, Note_on_c, 12, 62, 44
10, 7769, Note_on_c, 12, 62, 0
10, 7800, Note_on_c, 12, 60, 44
10, 7889, Note_on_c, 12, 60, 0
10, 7920, Note_on_c, 12, 62, 44
10, 7959, Note_on_c, 12, 62, 0
10, 7960, Note_on_c, 12, 64, 44
10, 7999, Note_on_c, 12, 64, 0
10, 8000, Note_on_c, 12, 62, 44
10, 8039, Note_on_c, 12, 62, 0
10, 8040, Note_on_c, 12, 64, 44
10, 8079, Note_on_c, 12, 64, 0
10, 8080, Note_on_c, 12, 60, 44
10, 8119, Note_on_c, 12, 60, 0
10, 8120, Note_on_c, 12, 62, 44
10, 8159, Note_on_c, 12, 62, 0
10, 8160, Note_on_c, 12, 64, 44
10, 8264, Note_on_c, 12, 64, 0
10, 8280, Note_on_c, 12, 62, 44
10, 8369, Note_on_c, 12, 62, 0
10, 8400, Note_on_c, 12, 60, 44
10, 8489, Note_on_c, 12, 60, 0
10, 8520, Note_on_c, 12, 59, 44
10, 8609, Note_on_c, 12, 59, 0
10, 8640, Note_on_c, 12, 60, 80
10, 8691, Note_on_c, 12, 60, 0
10, 8700, Note_on_c, 12, 72, 80
10, 8751, Note_on_c, 12, 72, 0
10, 8760, Note_on_c, 12, 72, 80
10, 8811, Note_on_c, 12, 72, 0
10, 8820, Note_on_c, 12, 72, 80
10, 8871, Note_on_c, 12, 72, 0
10, 8880, Note_on_c, 12, 72, 80
10, 8931, Note_on_c, 12, 72, 0
10, 8940, Note_on_c, 12, 72, 80
10, 8991, Note_on_c, 12, 72, 0
10, 9000, Note_on_c, 12, 72, 80
10, 9051, Note_on_c, 12, 72, 0
10, 9060, Note_on_c, 12, 72, 80
10, 9111, Note_on_c, 12, 72, 0
10, 9120, Note_on_c, 12, 72, 80
10, 9171, Note_on_c, 12, 72, 0
10, 9180, Note_on_c, 12, 72, 80
10, 9231, Note_on_c, 12, 72, 0
10, 9240, Note_on_c, 12, 72, 80
10, 9291, Note_on_c, 12, 72, 0
10, 9300, Note_on_c, 12, 72, 80
10, 9351, Note_on_c, 12, 72, 0
10, 9360, Note_on_c, 12, 72, 80
10, 9411, Note_on_c, 12, 72, 0
10, 9420, Note_on_c, 12, 72, 80
10, 9471, Note_on_c, 12, 72, 0
10, 9480, Note_on_c, 12, 72, 80
10, 9531, Note_on_c, 12, 72, 0
10, 9540, Note_on_c, 12, 72, 80
10, 9591, Note_on_c, 12, 72, 0
10, 9600, Note_on_c, 12, 72, 80
10, 9651, Note_on_c, 12, 72, 0
10, 9660, Note_on_c, 12, 72, 80
10, 9711, Note_on_c, 12, 72, 0
10, 9720, Note_on_c, 12, 72, 80
10, 9771, Note_on_c, 12, 72, 0
10, 9780, Note_on_c, 12, 72, 80
10, 9831, Note_on_c, 12, 72, 0
10, 9840, Note_on_c, 12, 72, 80
10, 9891, Note_on_c, 12, 72, 0
10, 9900, Note_on_c, 12, 72, 80
10, 9951, Note_on_c, 12, 72, 0
10, 9960, Note_on_c, 12, 72, 80
10, 10011, Note_on_c, 12, 72, 0
10, 10020, Note_on_c, 12, 72, 80
10, 10071, Note_on_c, 12, 72, 0
10, 10080, Note_on_c, 12, 72, 80
10, 10131, Note_on_c, 12, 72, 0
10, 10140, Note_on_c, 12, 72, 80
10, 10191, Note_on_c, 12, 72, 0
10, 10200, Note_on_c, 12, 72, 80
10, 10251, Note_on_c, 12, 72, 0
10, 10260, Note_on_c, 12, 72, 80
10, 10311, Note_on_c, 12, 72, 0
10, 10320, Note_on_c, 12, 72, 80
10, 10371, Note_on_c, 12, 72, 0
10, 10380, Note_on_c, 12, 72, 80
10, 10431, Note_on_c, 12, 72, 0
10, 10440, Note_on_c, 12, 72, 80
10, 10491, Note_on_c, 12, 72, 0
10, 10500, Note_on_c, 12, 72, 80
10, 10551, Note_on_c, 12, 72, 0
10, 10560, Note_on_c, 12, 72, 80
10, 10611, Note_on_c, 12, 72, 0
10, 10620, Note_on_c, 12, 72, 80
10, 10671, Note_on_c, 12, 72, 0
10, 10680, Note_on_c, 12, 72, 80
10, 10731, Note_on_c, 12, 72, 0
10, 10740, Note_on_c, 12, 72, 80
10, 10791, Note_on_c, 12, 72, 0
10, 10800, Note_on_c, 12, 72, 80
10, 10851, Note_on_c, 12, 72, 0
10, 10860, Note_on_c, 12, 72, 80
10, 10911, Note_on_c, 12, 72, 0
10, 10920, Note_on_c, 12, 72, 80
10, 10971, Note_on_c, 12, 72, 0
10, 10980, Note_on_c, 12, 72, 80
10, 11031, Note_on_c, 12, 72, 0
10, 11040, Note_on_c, 12, 72, 80
10, 11091, Note_on_c, 12, 72, 0
10, 11100, Note_on_c, 12, 72, 80
10, 11151, Note_on_c, 12, 72, 0
10, 11160, Note_on_c, 12, 72, 80
10, 11211, Note_on_c, 12, 72, 0
10, 11220, Note_on_c, 12, 72, 80
10, 11271, Note_on_c, 12, 72, 0
10, 11280, Note_on_c, 12, 74, 80
10, 11331, Note_on_c, 12, 74, 0
10, 11340, Note_on_c, 12, 74, 80
10, 11391, Note_on_c, 12, 74, 0
10, 11400, Note_on_c, 12, 74, 80
10, 11451, Note_on_c, 12, 74, 0
10, 11460, Note_on_c, 12, 74, 80
10, 11511, Note_on_c, 12, 74, 0
10, 11520, Note_on_c, 12, 72, 80
10, 11744, Note_on_c, 12, 72, 0
10, 11760, Note_on_c, 12, 76, 80
10, 11819, Note_on_c, 12, 76, 0
10, 11820, Note_on_c, 12, 74, 80
10, 11984, Note_on_c, 12, 74, 0
10, 12000, Note_on_c, 12, 72, 80
10, 12059, Note_on_c, 12, 72, 0
10, 12060, Note_on_c, 12, 71, 80
10, 12224, Note_on_c, 12, 71, 0
10, 12240, Note_on_c, 12, 72, 80
10, 12291, Note_on_c, 12, 72, 0
10, 12300, Note_on_c, 12, 72, 80
10, 12351, Note_on_c, 12, 72, 0
10, 12360, Note_on_c, 12, 72, 80
10, 12411, Note_on_c, 12, 72, 0
10, 12420, Note_on_c, 12, 72, 80
10, 12471, Note_on_c, 12, 72, 0
10, 12480, Note_on_c, 12, 72, 80
10, 12531, Note_on_c, 12, 72, 0
10, 12540, Note_on_c, 12, 72, 80
10, 12591, Note_on_c, 12, 72, 0
10, 12600, Note_on_c, 12, 72, 80
10, 12651, Note_on_c, 12, 72, 0
10, 12660, Note_on_c, 12, 72, 80
10, 12711, Note_on_c, 12, 72, 0
10, 12720, Note_on_c, 12, 72, 80
10, 12771, Note_on_c, 12, 72, 0
10, 12780, Note_on_c, 12, 72, 80
10, 12831, Note_on_c, 12, 72, 0
10, 12840, Note_on_c, 12, 72, 80
10, 12891, Note_on_c, 12, 72, 0
10, 12900, Note_on_c, 12, 72, 80
10, 12951, Note_on_c, 12, 72, 0
10, 12960, Note_on_c, 12, 65, 80
10, 12989, Note_on_c, 12, 65, 0
10, 12990, Note_on_c, 12, 67, 80
10, 13019, Note_on_c, 12, 67, 0
10, 13020, Note_on_c, 12, 69, 80
10, 13184, Note_on_c, 12, 69, 0
10, 13200, Note_on_c, 12, 60, 80
10, 13229, Note_on_c, 12, 60, 0
10, 13230, Note_on_c, 12, 62, 80
10, 13259, Note_on_c, 12, 62, 0
10, 13260, Note_on_c, 12, 64, 80
10, 13424, Note_on_c, 12, 64, 0
10, 13440, Note_on_c, 12, 62, 80
10, 13469, Note_on_c, 12, 62, 0
10, 13470, Note_on_c, 12, 64, 80
10, 13499, Note_on_c, 12, 64, 0
10, 13500, Note_on_c, 12, 65, 80
10, 13664, Note_on_c, 12, 65, 0
10, 13680, Note_on_c, 12, 64, 80
10, 13731, Note_on_c, 12, 64, 0
10, 13740, Note_on_c, 12, 76, 80
10, 13791, Note_on_c, 12, 76, 0
10, 13800, Note_on_c, 12, 76, 80
10, 13851, Note_on_c, 12, 76, 0
10, 13860, Note_on_c, 12, 76, 80
10, 13911, Note_on_c, 12, 76, 0
10, 13920, Note_on_c, 12, 76, 80
10, 13971, Note_on_c, 12, 76, 0
10, 13980, Note_on_c, 12, 76, 80
10, 14031, Note_on_c, 12, 76, 0
10, 14040, Note_on_c, 12, 76, 80
10, 14091, Note_on_c, 12, 76, 0
10, 14100, Note_on_c, 12, 76, 80
10, 14151, Note_on_c, 12, 76, 0
10, 14160, Note_on_c, 12, 76, 80
10, 14211, Note_on_c, 12, 76, 0
10, 14220, Note_on_c, 12, 76, 80
10, 14271, Note_on_c, 12, 76, 0
10, 14280, Note_on_c, 12, 76, 80
10, 14331, Note_on_c, 12, 76, 0
10, 14340, Note_on_c, 12, 76, 80
10, 14391, Note_on_c, 12, 76, 0
10, 14400, Note_on_c, 12, 76, 80
10, 14624, Note_on_c, 12, 76, 0
10, 14640, Note_on_c, 12, 77, 44
10, 14699, Note_on_c, 12, 77, 0
10, 14700, Note_on_c, 12, 76, 44
10, 14744, Note_on_c, 12, 76, 0
10, 14760, Note_on_c, 12, 74, 44
10, 14811, Note_on_c, 12, 74, 0
10, 14820, Note_on_c, 12, 72, 44
10, 14871, Note_on_c, 12, 72, 0
10, 14880, Note_on_c, 12, 77, 44
10, 14939, Note_on_c, 12, 77, 0
10, 14940, Note_on_c, 12, 76, 44
10, 14984, Note_on_c, 12, 76, 0
10, 15000, Note_on_c, 12, 74, 44
10, 15051, Note_on_c, 12, 74, 0
10, 15060, Note_on_c, 12, 72, 44
10, 15111, Note_on_c, 12, 72, 0
10, 15120, Note_on_c, 12, 74, 80
10, 15171, Note_on_c, 12, 74, 0
10, 15180, Note_on_c, 12, 77, 80
10, 15231, Note_on_c, 12, 77, 0
10, 15240, Note_on_c, 12, 77, 80
10, 15291, Note_on_c, 12, 77, 0
10, 15300, Note_on_c, 12, 77, 80
10, 15351, Note_on_c, 12, 77, 0
10, 15360, Note_on_c, 12, 77, 80
10, 15411, Note_on_c, 12, 77, 0
10, 15420, Note_on_c, 12, 77, 80
10, 15471, Note_on_c, 12, 77, 0
10, 15480, Note_on_c, 12, 77, 80
10, 15531, Note_on_c, 12, 77, 0
10, 15540, Note_on_c, 12, 77, 80
10, 15591, Note_on_c, 12, 77, 0
10, 15600, Note_on_c, 12, 77, 80
10, 15651, Note_on_c, 12, 77, 0
10, 15660, Note_on_c, 12, 77, 80
10, 15711, Note_on_c, 12, 77, 0
10, 15720, Note_on_c, 12, 77, 80
10, 15771, Note_on_c, 12, 77, 0
10, 15780, Note_on_c, 12, 77, 80
10, 15831, Note_on_c, 12, 77, 0
10, 15840, Note_on_c, 12, 77, 80
10, 16064, Note_on_c, 12, 77, 0
10, 16080, Note_on_c, 12, 76, 44
10, 16139, Note_on_c, 12, 76, 0
10, 16140, Note_on_c, 12, 74, 44
10, 16184, Note_on_c, 12, 74, 0
10, 16200, Note_on_c, 12, 72, 44
10, 16251, Note_on_c, 12, 72, 0
10, 16260, Note_on_c, 12, 71, 44
10, 16311, Note_on_c, 12, 71, 0
10, 16320, Note_on_c, 12, 76, 44
10, 16379, Note_on_c, 12, 76, 0
10, 16380, Note_on_c, 12, 74, 44
10, 16424, Note_on_c, 12, 74, 0
10, 16440, Note_on_c, 12, 72, 44
10, 16491, Note_on_c, 12, 72, 0
10, 16500, Note_on_c, 12, 71, 44
10, 16551, Note_on_c, 12, 71, 0
10, 16560, Note_on_c, 12, 72, 80
10, 16611, Note_on_c, 12, 72, 0
10, 16620, Note_on_c, 12, 76, 80
10, 16671, Note_on_c, 12, 76, 0
10, 16680, Note_on_c, 12, 76, 80
10, 16731, Note_on_c, 12, 76, 0
10, 16740, Note_on_c, 12, 76, 80
10, 16791, Note_on_c, 12, 76, 0
10, 16800, Note_on_c, 12, 76, 80
10, 16851, Note_on_c, 12, 76, 0
10, 16860, Note_on_c, 12, 76, 80
10, 16911, Note_on_c, 12, 76, 0
10, 16920, Note_on_c, 12, 76, 80
10, 16971, Note_on_c, 12, 76, 0
10, 16980, Note_on_c, 12, 76, 80
10, 17031, Note_on_c, 12, 76, 0
10, 17040, Note_on_c, 12, 76, 80
10, 17091, Note_on_c, 12, 76, 0
10, 17100, Note_on_c, 12, 76, 80
10, 17151, Note_on_c, 12, 76, 0
10, 17160, Note_on_c, 12, 76, 80
10, 17211, Note_on_c, 12, 76, 0
10, 17220, Note_on_c, 12, 76, 80
10, 17271, Note_on_c, 12, 76, 0
10, 17280, Note_on_c, 12, 76, 80
10, 17504, Note_on_c, 12, 76, 0
10, 17520, Note_on_c, 12, 77, 44
10, 17579, Note_on_c, 12, 77, 0
10, 17580, Note_on_c, 12, 76, 44
10, 17624, Note_on_c, 12, 76, 0
10, 17640, Note_on_c, 12, 74, 44
10, 17691, Note_on_c, 12, 74, 0
10, 17700, Note_on_c, 12, 72, 44
10, 17751, Note_on_c, 12, 72, 0
10, 17760, Note_on_c, 12, 77, 44
10, 17819, Note_on_c, 12, 77, 0
10, 17820, Note_on_c, 12, 76, 44
10, 17864, Note_on_c, 12, 76, 0
10, 17880, Note_on_c, 12, 74, 44
10, 17931, Note_on_c, 12, 74, 0
10, 17940, Note_on_c, 12, 72, 44
10, 17991, Note_on_c, 12, 72, 0
10, 18000, Note_on_c, 12, 74, 80
10, 18051, Note_on_c, 12, 74, 0
10, 18060, Note_on_c, 12, 81, 80
10, 18111, Note_on_c, 12, 81, 0
10, 18120, Note_on_c, 12, 81, 80
10, 18171, Note_on_c, 12, 81, 0
10, 18180, Note_on_c, 12, 81, 80
10, 18231, Note_on_c, 12, 81, 0
10, 18240, Note_on_c, 12, 81, 80
10, 18291, Note_on_c, 12, 81, 0
10, 18300, Note_on_c, 12, 81, 80
10, 18351, Note_on_c, 12, 81, 0
10, 18360, Note_on_c, 12, 81, 80
10, 18411, Note_on_c, 12, 81, 0
10, 18420, Note_on_c, 12, 81, 80
10, 18471, Note_on_c, 12, 81, 0
10, 18480, Note_on_c, 12, 81, 80
10, 18531, Note_on_c, 12, 81, 0
10, 18540, Note_on_c, 12, 81, 80
10, 18591, Note_on_c, 12, 81, 0
10, 18600, Note_on_c, 12, 81, 80
10, 18651, Note_on_c, 12, 81, 0
10, 18660, Note_on_c, 12, 81, 80
10, 18711, Note_on_c, 12, 81, 0
10, 18720, Note_on_c, 12, 81, 80
10, 18771, Note_on_c, 12, 81, 0
10, 18780, Note_on_c, 12, 79, 80
10, 18831, Note_on_c, 12, 79, 0
10, 18840, Note_on_c, 12, 78, 80
10, 18891, Note_on_c, 12, 78, 0
10, 18900, Note_on_c, 12, 79, 80
10, 18951, Note_on_c, 12, 79, 0
10, 18960, Note_on_c, 12, 78, 80
10, 19011, Note_on_c, 12, 78, 0
10, 19020, Note_on_c, 12, 76, 80
10, 19071, Note_on_c, 12, 76, 0
10, 19080, Note_on_c, 12, 74, 80
10, 19131, Note_on_c, 12, 74, 0
10, 19140, Note_on_c, 12, 76, 80
10, 19191, Note_on_c, 12, 76, 0
10, 19200, Note_on_c, 12, 74, 80
10, 19251, Note_on_c, 12, 74, 0
10, 19260, Note_on_c, 12, 72, 80
10, 19311, Note_on_c, 12, 72, 0
10, 19320, Note_on_c, 12, 71, 80
10, 19371, Note_on_c, 12, 71, 0
10, 19380, Note_on_c, 12, 69, 80
10, 19431, Note_on_c, 12, 69, 0
10, 19440, Note_on_c, 12, 67, 80
10, 19491, Note_on_c, 12, 67, 0
10, 19500, Note_on_c, 12, 79, 80
10, 19551, Note_on_c, 12, 79, 0
10, 19560, Note_on_c, 12, 78, 80
10, 19611, Note_on_c, 12, 78, 0
10, 19620, Note_on_c, 12, 79, 80
10, 19671, Note_on_c, 12, 79, 0
10, 19680, Note_on_c, 12, 81, 80
10, 19739, Note_on_c, 12, 81, 0
10, 19740, Note_on_c, 12, 79, 80
10, 19791, Note_on_c, 12, 79, 0
10, 19800, Note_on_c, 12, 78, 80
10, 19844, Note_on_c, 12, 78, 0
10, 19860, Note_on_c, 12, 79, 80
10, 19904, Note_on_c, 12, 79, 0
10, 19920, Note_on_c, 12, 81, 80
10, 19979, Note_on_c, 12, 81, 0
10, 19980, Note_on_c, 12, 79, 80
10, 20031, Note_on_c, 12, 79, 0
10, 20040, Note_on_c, 12, 78, 80
10, 20084, Note_on_c, 12, 78, 0
10, 20100, Note_on_c, 12, 79, 80
10, 20144, Note_on_c, 12, 79, 0
10, 20160, Note_on_c, 12, 67, 80
10, 20211, Note_on_c, 12, 67, 0
10, 20220, Note_on_c, 12, 79, 80
10, 20271, Note_on_c, 12, 79, 0
10, 20280, Note_on_c, 12, 78, 80
10, 20331, Note_on_c, 12, 78, 0
10, 20340, Note_on_c, 12, 79, 80
10, 20391, Note_on_c, 12, 79, 0
10, 20400, Note_on_c, 12, 81, 80
10, 20459, Note_on_c, 12, 81, 0
10, 20460, Note_on_c, 12, 79, 80
10, 20511, Note_on_c, 12, 79, 0
10, 20520, Note_on_c, 12, 78, 80
10, 20564, Note_on_c, 12, 78, 0
10, 20580, Note_on_c, 12, 79, 80
10, 20624, Note_on_c, 12, 79, 0
10, 20640, Note_on_c, 12, 81, 80
10, 20699, Note_on_c, 12, 81, 0
10, 20700, Note_on_c, 12, 79, 80
10, 20751, Note_on_c, 12, 79, 0
10, 20760, Note_on_c, 12, 78, 80
10, 20804, Note_on_c, 12, 78, 0
10, 20820, Note_on_c, 12, 79, 80
10, 20864, Note_on_c, 12, 79, 0
10, 20880, Note_on_c, 12, 67, 80
10, 20931, Note_on_c, 12, 67, 0
10, 20940, Note_on_c, 12, 79, 80
10, 20991, Note_on_c, 12, 79, 0
10, 21000, Note_on_c, 12, 78, 80
10, 21051, Note_on_c, 12, 78, 0
10, 21060, Note_on_c, 12, 79, 80
10, 21111, Note_on_c, 12, 79, 0
10, 21120, Note_on_c, 12, 81, 80
10, 21179, Note_on_c, 12, 81, 0
10, 21180, Note_on_c, 12, 79, 80
10, 21231, Note_on_c, 12, 79, 0
10, 21240, Note_on_c, 12, 78, 80
10, 21284, Note_on_c, 12, 78, 0
10, 21300, Note_on_c, 12, 79, 80
10, 21344, Note_on_c, 12, 79, 0
10, 21360, Note_on_c, 12, 81, 80
10, 21419, Note_on_c, 12, 81, 0
10, 21420, Note_on_c, 12, 79, 80
10, 21471, Note_on_c, 12, 79, 0
10, 21480, Note_on_c, 12, 78, 80
10, 21524, Note_on_c, 12, 78, 0
10, 21540, Note_on_c, 12, 79, 80
10, 21584, Note_on_c, 12, 79, 0
10, 21600, Note_on_c, 12, 79, 80
10, 21689, Note_on_c, 12, 79, 0
10, 21720, Note_on_c, 12, 78, 80
10, 21809, Note_on_c, 12, 78, 0
10, 21840, Note_on_c, 12, 76, 80
10, 21929, Note_on_c, 12, 76, 0
10, 21960, Note_on_c, 12, 74, 80
10, 22049, Note_on_c, 12, 74, 0
10, 22080, Note_on_c, 12, 72, 80
10, 22169, Note_on_c, 12, 72, 0
10, 22200, Note_on_c, 12, 71, 80
10, 22289, Note_on_c, 12, 71, 0
10, 22320, Note_on_c, 12, 69, 80
10, 22320, Note_on_c, 12, 78, 80
10, 22544, Note_on_c, 12, 78, 0
10, 22544, Note_on_c, 12, 69, 0
10, 22560, Note_on_c, 12, 62, 80
10, 22799, Note_on_c, 12, 62, 0
10, 23040, Note_on_c, 12, 71, 44
10, 23219, Note_on_c, 12, 71, 0
10, 23280, Note_on_c, 12, 71, 44
10, 23459, Note_on_c, 12, 71, 0
10, 23520, Note_on_c, 12, 71, 44
10, 23699, Note_on_c, 12, 71, 0
10, 23760, Note_on_c, 12, 72, 44
10, 24119, Note_on_c, 12, 72, 0
10, 24120, Note_on_c, 12, 74, 44
10, 24224, Note_on_c, 12, 74, 0
10, 24240, Note_on_c, 12, 76, 44
10, 24419, Note_on_c, 12, 76, 0
10, 24480, Note_on_c, 12, 66, 44
10, 24509, Note_on_c, 12, 66, 0
10, 24510, Note_on_c, 12, 67, 44
10, 24539, Note_on_c, 12, 67, 0
10, 24540, Note_on_c, 12, 69, 44
10, 24719, Note_on_c, 12, 69, 0
10, 25200, Note_on_c, 12, 67, 44
10, 25229, Note_on_c, 12, 67, 0
10, 25230, Note_on_c, 12, 69, 44
10, 25259, Note_on_c, 12, 69, 0
10, 25260, Note_on_c, 12, 71, 44
10, 25439, Note_on_c, 12, 71, 0
10, 25920, Note_on_c, 12, 71, 44
10, 26099, Note_on_c, 12, 71, 0
10, 26160, Note_on_c, 12, 71, 44
10, 26339, Note_on_c, 12, 71, 0
10, 26400, Note_on_c, 12, 71, 44
10, 26579, Note_on_c, 12, 71, 0
10, 26640, Note_on_c, 12, 72, 44
10, 26819, Note_on_c, 12, 72, 0
10, 26820, Note_on_c, 12, 74, 44
10, 26879, Note_on_c, 12, 74, 0
10, 26880, Note_on_c, 12, 76, 44
10, 26984, Note_on_c, 12, 76, 0
10, 27000, Note_on_c, 12, 74, 44
10, 27089, Note_on_c, 12, 74, 0
10, 27120, Note_on_c, 12, 72, 44
10, 27209, Note_on_c, 12, 72, 0
10, 27240, Note_on_c, 12, 71, 44
10, 27329, Note_on_c, 12, 71, 0
10, 27360, Note_on_c, 12, 71, 44
10, 27419, Note_on_c, 12, 71, 0
10, 27420, Note_on_c, 12, 69, 44
10, 27584, Note_on_c, 12, 69, 0
10, 27600, Note_on_c, 12, 67, 44
10, 27824, Note_on_c, 12, 67, 0
10, 27840, Note_on_c, 12, 66, 44
10, 28064, Note_on_c, 12, 66, 0
10, 28080, Note_on_c, 12, 66, 44
10, 28559, Note_on_c, 12, 66, 0
10, 28560, Note_on_c, 12, 67, 44
10, 28679, Note_on_c, 12, 67, 0
10, 30480, Note_on_c, 12, 57, 44
10, 30539, Note_on_c, 12, 57, 0
10, 30540, Note_on_c, 12, 59, 44
10, 30599, Note_on_c, 12, 59, 0
10, 30600, Note_on_c, 12, 57, 44
10, 30659, Note_on_c, 12, 57, 0
10, 30660, Note_on_c, 12, 59, 44
10, 30719, Note_on_c, 12, 59, 0
10, 30720, Note_on_c, 12, 60, 44
10, 30959, Note_on_c, 12, 60, 0
10, 31200, Note_on_c, 12, 59, 44
10, 31259, Note_on_c, 12, 59, 0
10, 31260, Note_on_c, 12, 60, 44
10, 31319, Note_on_c, 12, 60, 0
10, 31320, Note_on_c, 12, 59, 44
10, 31379, Note_on_c, 12, 59, 0
10, 31380, Note_on_c, 12, 60, 44
10, 31439, Note_on_c, 12, 60, 0
10, 31440, Note_on_c, 12, 62, 44
10, 31679, Note_on_c, 12, 62, 0
10, 33840, Note_on_c, 12, 74, 80
10, 33891, Note_on_c, 12, 74, 0
10, 33900, Note_on_c, 12, 74, 80
10, 33951, Note_on_c, 12, 74, 0
10, 33960, Note_on_c, 12, 73, 80
10, 34011, Note_on_c, 12, 73, 0
10, 34020, Note_on_c, 12, 73, 80
10, 34071, Note_on_c, 12, 73, 0
10, 34080, Note_on_c, 12, 74, 80
10, 34131, Note_on_c, 12, 74, 0
10, 34140, Note_on_c, 12, 74, 80
10, 34191, Note_on_c, 12, 74, 0
10, 34200, Note_on_c, 12, 73, 80
10, 34251, Note_on_c, 12, 73, 0
10, 34260, Note_on_c, 12, 73, 80
10, 34311, Note_on_c, 12, 73, 0
10, 34320, Note_on_c, 12, 74, 80
10, 34371, Note_on_c, 12, 74, 0
10, 34380, Note_on_c, 12, 74, 80
10, 34431, Note_on_c, 12, 74, 0
10, 34440, Note_on_c, 12, 71, 80
10, 34491, Note_on_c, 12, 71, 0
10, 34500, Note_on_c, 12, 71, 80
10, 34551, Note_on_c, 12, 71, 0
10, 34560, Note_on_c, 12, 74, 80
10, 34611, Note_on_c, 12, 74, 0
10, 34620, Note_on_c, 12, 74, 80
10, 34671, Note_on_c, 12, 74, 0
10, 34680, Note_on_c, 12, 73, 80
10, 34731, Note_on_c, 12, 73, 0
10, 34740, Note_on_c, 12, 73, 80
10, 34791, Note_on_c, 12, 73, 0
10, 34800, Note_on_c, 12, 74, 80
10, 34851, Note_on_c, 12, 74, 0
10, 34860, Note_on_c, 12, 74, 80
10, 34911, Note_on_c, 12, 74, 0
10, 34920, Note_on_c, 12, 73, 80
10, 34971, Note_on_c, 12, 73, 0
10, 34980, Note_on_c, 12, 73, 80
10, 35031, Note_on_c, 12, 73, 0
10, 35040, Note_on_c, 12, 74, 80
10, 35091, Note_on_c, 12, 74, 0
10, 35100, Note_on_c, 12, 74, 80
10, 35151, Note_on_c, 12, 74, 0
10, 35160, Note_on_c, 12, 69, 80
10, 35211, Note_on_c, 12, 69, 0
10, 35220, Note_on_c, 12, 69, 80
10, 35271, Note_on_c, 12, 69, 0
10, 35280, Note_on_c, 12, 67, 80
10, 35331, Note_on_c, 12, 67, 0
10, 35340, Note_on_c, 12, 67, 80
10, 35391, Note_on_c, 12, 67, 0
10, 35400, Note_on_c, 12, 66, 80
10, 35451, Note_on_c, 12, 66, 0
10, 35460, Note_on_c, 12, 66, 80
10, 35511, Note_on_c, 12, 66, 0
10, 35520, Note_on_c, 12, 67, 80
10, 35571, Note_on_c, 12, 67, 0
10, 35580, Note_on_c, 12, 67, 80
10, 35631, Note_on_c, 12, 67, 0
10, 35640, Note_on_c, 12, 66, 80
10, 35691, Note_on_c, 12, 66, 0
10, 35700, Note_on_c, 12, 66, 80
10, 35751, Note_on_c, 12, 66, 0
10, 35760, Note_on_c, 12, 67, 80
10, 35811, Note_on_c, 12, 67, 0
10, 35820, Note_on_c, 12, 67, 80
10, 35871, Note_on_c, 12, 67, 0
10, 35880, Note_on_c, 12, 64, 80
10, 35931, Note_on_c, 12, 64, 0
10, 35940, Note_on_c, 12, 64, 80
10, 35991, Note_on_c, 12, 64, 0
10, 36000, Note_on_c, 12, 62, 80
10, 36051, Note_on_c, 12, 62, 0
10, 36060, Note_on_c, 12, 62, 80
10, 36111, Note_on_c, 12, 62, 0
10, 36120, Note_on_c, 12, 60, 80
10, 36171, Note_on_c, 12, 60, 0
10, 36180, Note_on_c, 12, 60, 80
10, 36231, Note_on_c, 12, 60, 0
10, 36240, Note_on_c, 12, 59, 80
10, 36291, Note_on_c, 12, 59, 0
10, 36300, Note_on_c, 12, 59, 80
10, 36351, Note_on_c, 12, 59, 0
10, 36360, Note_on_c, 12, 60, 80
10, 36411, Note_on_c, 12, 60, 0
10, 36420, Note_on_c, 12, 60, 80
10, 36471, Note_on_c, 12, 60, 0
10, 36480, Note_on_c, 12, 62, 80
10, 36531, Note_on_c, 12, 62, 0
10, 36540, Note_on_c, 12, 62, 80
10, 36591, Note_on_c, 12, 62, 0
10, 36600, Note_on_c, 12, 67, 80
10, 36651, Note_on_c, 12, 67, 0
10, 36660, Note_on_c, 12, 67, 80
10, 36711, Note_on_c, 12, 67, 0
10, 36720, Note_on_c, 12, 67, 80
10, 36771, Note_on_c, 12, 67, 0
10, 36780, Note_on_c, 12, 67, 80
10, 36831, Note_on_c, 12, 67, 0
10, 36840, Note_on_c, 12, 67, 80
10, 36891, Note_on_c, 12, 67, 0
10, 36900, Note_on_c, 12, 67, 80
10, 36951, Note_on_c, 12, 67, 0
10, 36960, Note_on_c, 12, 66, 80
10, 37011, Note_on_c, 12, 66, 0
10, 37020, Note_on_c, 12, 66, 80
10, 37071, Note_on_c, 12, 66, 0
10, 37080, Note_on_c, 12, 66, 80
10, 37131, Note_on_c, 12, 66, 0
10, 37140, Note_on_c, 12, 66, 80
10, 37191, Note_on_c, 12, 66, 0
10, 37200, Note_on_c, 12, 64, 80
10, 37251, Note_on_c, 12, 64, 0
10, 37260, Note_on_c, 12, 64, 80
10, 37311, Note_on_c, 12, 64, 0
10, 37320, Note_on_c, 12, 64, 80
10, 37371, Note_on_c, 12, 64, 0
10, 37380, Note_on_c, 12, 64, 80
10, 37431, Note_on_c, 12, 64, 0
10, 37440, Note_on_c, 12, 62, 80
10, 37664, Note_on_c, 12, 62, 0
10, 37680, Note_on_c, 12, 83, 80
10, 37739, Note_on_c, 12, 83, 0
10, 37740, Note_on_c, 12, 81, 80
10, 37784, Note_on_c, 12, 81, 0
10, 37800, Note_on_c, 12, 79, 80
10, 37851, Note_on_c, 12, 79, 0
10, 37860, Note_on_c, 12, 78, 80
10, 37911, Note_on_c, 12, 78, 0
10, 37920, Note_on_c, 12, 79, 80
10, 37971, Note_on_c, 12, 79, 0
10, 37980, Note_on_c, 12, 78, 80
10, 38031, Note_on_c, 12, 78, 0
10, 38040, Note_on_c, 12, 76, 80
10, 38091, Note_on_c, 12, 76, 0
10, 38100, Note_on_c, 12, 74, 80
10, 38151, Note_on_c, 12, 74, 0
10, 38160, Note_on_c, 12, 76, 80
10, 38339, Note_on_c, 12, 76, 0
10, 38340, Note_on_c, 12, 72, 80
10, 38391, Note_on_c, 12, 72, 0
10, 38400, Note_on_c, 12, 71, 80
10, 38639, Note_on_c, 12, 71, 0
10, 38640, Note_on_c, 12, 72, 80
10, 38864, Note_on_c, 12, 72, 0
10, 38880, Note_on_c, 12, 71, 80
10, 39059, Note_on_c, 12, 71, 0
10, 39120, Note_on_c, 12, 71, 80
10, 39120, Note_on_c, 12, 68, 80
10, 39299, Note_on_c, 12, 68, 0
10, 39299, Note_on_c, 12, 71, 0
10, 39360, Note_on_c, 12, 69, 80
10, 39539, Note_on_c, 12, 69, 0
10, 39600, Note_on_c, 12, 71, 80
10, 39779, Note_on_c, 12, 71, 0
10, 39840, Note_on_c, 12, 64, 80
10, 39840, Note_on_c, 12, 57, 80
10, 39840, Note_on_c, 12, 69, 80
10, 40019, Note_on_c, 12, 69, 0
10, 40019, Note_on_c, 12, 57, 0
10, 40019, Note_on_c, 12, 64, 0
10, 40560, Note_on_c, 12, 64, 44
10, 40799, Note_on_c, 12, 64, 0
10, 40800, Note_on_c, 12, 63, 44
10, 41024, Note_on_c, 12, 63, 0
10, 41040, Note_on_c, 12, 62, 44
10, 41219, Note_on_c, 12, 62, 0
10, 41280, Note_on_c, 12, 66, 44
10, 41519, Note_on_c, 12, 66, 0
10, 41520, Note_on_c, 12, 67, 44
10, 41744, Note_on_c, 12, 67, 0
10, 41760, Note_on_c, 12, 64, 44
10, 41939, Note_on_c, 12, 64, 0
10, 41940, Note_on_c, 12, 60, 44
10, 41991, Note_on_c, 12, 60, 0
10, 42000, Note_on_c, 12, 59, 44
10, 42239, Note_on_c, 12, 59, 0
10, 42240, Note_on_c, 12, 57, 44
10, 42464, Note_on_c, 12, 57, 0
10, 42480, Note_on_c, 12, 59, 80
10, 42531, Note_on_c, 12, 59, 0
10, 42540, Note_on_c, 12, 67, 80
10, 42591, Note_on_c, 12, 67, 0
10, 42600, Note_on_c, 12, 71, 80
10, 42651, Note_on_c, 12, 71, 0
10, 42660, Note_on_c, 12, 74, 80
10, 42711, Note_on_c, 12, 74, 0
10, 42720, Note_on_c, 12, 71, 80
10, 42771, Note_on_c, 12, 71, 0
10, 42780, Note_on_c, 12, 74, 80
10, 42831, Note_on_c, 12, 74, 0
10, 42840, Note_on_c, 12, 79, 80
10, 42891, Note_on_c, 12, 79, 0
10, 42900, Note_on_c, 12, 83, 80
10, 42951, Note_on_c, 12, 83, 0
10, 42960, Note_on_c, 12, 83, 80
10, 43019, Note_on_c, 12, 83, 0
10, 43020, Note_on_c, 12, 81, 80
10, 43064, Note_on_c, 12, 81, 0
10, 43080, Note_on_c, 12, 79, 80
10, 43131, Note_on_c, 12, 79, 0
10, 43140, Note_on_c, 12, 78, 80
10, 43191, Note_on_c, 12, 78, 0
10, 43200, Note_on_c, 12, 79, 80
10, 43251, Note_on_c, 12, 79, 0
10, 43260, Note_on_c, 12, 74, 80
10, 43311, Note_on_c, 12, 74, 0
10, 43320, Note_on_c, 12, 71, 80
10, 43371, Note_on_c, 12, 71, 0
10, 43380, Note_on_c, 12, 67, 80
10, 43431, Note_on_c, 12, 67, 0
10, 43440, Note_on_c, 12, 74, 80
10, 43491, Note_on_c, 12, 74, 0
10, 43500, Note_on_c, 12, 71, 80
10, 43551, Note_on_c, 12, 71, 0
10, 43560, Note_on_c, 12, 67, 80
10, 43611, Note_on_c, 12, 67, 0
10, 43620, Note_on_c, 12, 62, 80
10, 43671, Note_on_c, 12, 62, 0
10, 43680, Note_on_c, 12, 74, 80
10, 43739, Note_on_c, 12, 74, 0
10, 43740, Note_on_c, 12, 72, 80
10, 43784, Note_on_c, 12, 72, 0
10, 43800, Note_on_c, 12, 71, 80
10, 43851, Note_on_c, 12, 71, 0
10, 43860, Note_on_c, 12, 69, 80
10, 43911, Note_on_c, 12, 69, 0
10, 43920, Note_on_c, 12, 67, 80
10, 43971, Note_on_c, 12, 67, 0
10, 43980, Note_on_c, 12, 71, 80
10, 44031, Note_on_c, 12, 71, 0
10, 44040, Note_on_c, 12, 74, 80
10, 44091, Note_on_c, 12, 74, 0
10, 44100, Note_on_c, 12, 79, 80
10, 44151, Note_on_c, 12, 79, 0
10, 44160, Note_on_c, 12, 71, 80
10, 44211, Note_on_c, 12, 71, 0
10, 44220, Note_on_c, 12, 74, 80
10, 44271, Note_on_c, 12, 74, 0
10, 44280, Note_on_c, 12, 79, 80
10, 44331, Note_on_c, 12, 79, 0
10, 44340, Note_on_c, 12, 83, 80
10, 44391, Note_on_c, 12, 83, 0
10, 44400, Note_on_c, 12, 83, 80
10, 44459, Note_on_c, 12, 83, 0
10, 44460, Note_on_c, 12, 81, 80
10, 44504, Note_on_c, 12, 81, 0
10, 44520, Note_on_c, 12, 79, 80
10, 44571, Note_on_c, 12, 79, 0
10, 44580, Note_on_c, 12, 78, 80
10, 44631, Note_on_c, 12, 78, 0
10, 44640, Note_on_c, 12, 79, 80
10, 44691, Note_on_c, 12, 79, 0
10, 44700, Note_on_c, 12, 74, 80
10, 44751, Note_on_c, 12, 74, 0
10, 44760, Note_on_c, 12, 71, 80
10, 44811, Note_on_c, 12, 71, 0
10, 44820, Note_on_c, 12, 67, 80
10, 44871, Note_on_c, 12, 67, 0
10, 44880, Note_on_c, 12, 74, 80
10, 44931, Note_on_c, 12, 74, 0
10, 44940, Note_on_c, 12, 71, 80
10, 44991, Note_on_c, 12, 71, 0
10, 45000, Note_on_c, 12, 67, 80
10, 45051, Note_on_c, 12, 67, 0
10, 45060, Note_on_c, 12, 62, 80
10, 45111, Note_on_c, 12, 62, 0
10, 45120, Note_on_c, 12, 74, 80
10, 45179, Note_on_c, 12, 74, 0
10, 45180, Note_on_c, 12, 72, 80
10, 45224, Note_on_c, 12, 72, 0
10, 45240, Note_on_c, 12, 71, 80
10, 45291, Note_on_c, 12, 71, 0
10, 45300, Note_on_c, 12, 69, 80
10, 45351, Note_on_c, 12, 69, 0
10, 45360, Note_on_c, 12, 71, 80
10, 45411, Note_on_c, 12, 71, 0
10, 45420, Note_on_c, 12, 74, 80
10, 45471, Note_on_c, 12, 74, 0
10, 45480, Note_on_c, 12, 74, 80
10, 45531, Note_on_c, 12, 74, 0
10, 45540, Note_on_c, 12, 74, 80
10, 45591, Note_on_c, 12, 74, 0
10, 45600, Note_on_c, 12, 67, 80
10, 45651, Note_on_c, 12, 67, 0
10, 45660, Note_on_c, 12, 74, 80
10, 45711, Note_on_c, 12, 74, 0
10, 45720, Note_on_c, 12, 74, 80
10, 45771, Note_on_c, 12, 74, 0
10, 45780, Note_on_c, 12, 74, 80
10, 45831, Note_on_c, 12, 74, 0
10, 45840, Note_on_c, 12, 69, 80
10, 45891, Note_on_c, 12, 69, 0
10, 45900, Note_on_c, 12, 74, 80
10, 45951, Note_on_c, 12, 74, 0
10, 45960, Note_on_c, 12, 74, 80
10, 46011, Note_on_c, 12, 74, 0
10, 46020, Note_on_c, 12, 74, 80
10, 46071, Note_on_c, 12, 74, 0
10, 46080, Note_on_c, 12, 71, 80
10, 46131, Note_on_c, 12, 71, 0
10, 46140, Note_on_c, 12, 74, 80
10, 46191, Note_on_c, 12, 74, 0
10, 46200, Note_on_c, 12, 74, 80
10, 46251, Note_on_c, 12, 74, 0
10, 46260, Note_on_c, 12, 74, 80
10, 46311, Note_on_c, 12, 74, 0
10, 46320, Note_on_c, 12, 67, 80
10, 46371, Note_on_c, 12, 67, 0
10, 46380, Note_on_c, 12, 74, 80
10, 46431, Note_on_c, 12, 74, 0
10, 46440, Note_on_c, 12, 74, 80
10, 46491, Note_on_c, 12, 74, 0
10, 46500, Note_on_c, 12, 74, 80
10, 46551, Note_on_c, 12, 74, 0
10, 46560, Note_on_c, 12, 69, 80
10, 46611, Note_on_c, 12, 69, 0
10, 46620, Note_on_c, 12, 74, 80
10, 46671, Note_on_c, 12, 74, 0
10, 46680, Note_on_c, 12, 74, 80
10, 46731, Note_on_c, 12, 74, 0
10, 46740, Note_on_c, 12, 74, 80
10, 46791, Note_on_c, 12, 74, 0
10, 46800, Note_on_c, 12, 71, 80
10, 47024, Note_on_c, 12, 71, 0
10, 47040, Note_on_c, 12, 67, 80
10, 47129, Note_on_c, 12, 67, 0
10, 47160, Note_on_c, 12, 69, 80
10, 47249, Note_on_c, 12, 69, 0
10, 47280, Note_on_c, 12, 71, 80
10, 47369, Note_on_c, 12, 71, 0
10, 47400, Note_on_c, 12, 72, 80
10, 47489, Note_on_c, 12, 72, 0
10, 47520, Note_on_c, 12, 74, 80
10, 47609, Note_on_c, 12, 74, 0
10, 47640, Note_on_c, 12, 76, 80
10, 47729, Note_on_c, 12, 76, 0
10, 47760, Note_on_c, 12, 77, 80
10, 47849, Note_on_c, 12, 77, 0
10, 47880, Note_on_c, 12, 74, 80
10, 47969, Note_on_c, 12, 74, 0
10, 48000, Note_on_c, 12, 71, 80
10, 48089, Note_on_c, 12, 71, 0
10, 48120, Note_on_c, 12, 67, 80
10, 48209, Note_on_c, 12, 67, 0
10, 48240, Note_on_c, 12, 72, 80
10, 48240, Note_on_c, 12, 55, 80
10, 48240, Note_on_c, 12, 64, 80
10, 48464, Note_on_c, 12, 64, 0
10, 48464, Note_on_c, 12, 55, 0
10, 48464, Note_on_c, 12, 72, 0
10, 48480, Note_on_c, 12, 67, 80
10, 48719, Note_on_c, 12, 67, 0
10, 48960, Note_on_c, 12, 64, 80
10, 49184, Note_on_c, 12, 64, 0
10, 49200, Note_on_c, 12, 60, 80
10, 49439, Note_on_c, 12, 60, 0
10, 51120, Note_on_c, 12, 67, 44
10, 51159, Note_on_c, 12, 67, 0
10, 51160, Note_on_c, 12, 69, 44
10, 51199, Note_on_c, 12, 69, 0
10, 51200, Note_on_c, 12, 67, 44
10, 51239, Note_on_c, 12, 67, 0
10, 51240, Note_on_c, 12, 69, 44
10, 51279, Note_on_c, 12, 69, 0
10, 51280, Note_on_c, 12, 65, 44
10, 51319, Note_on_c, 12, 65, 0
10, 51320, Note_on_c, 12, 67, 44
10, 51359, Note_on_c, 12, 67, 0
10, 51360, Note_on_c, 12, 69, 44
10, 51464, Note_on_c, 12, 69, 0
10, 51480, Note_on_c, 12, 67, 44
10, 51569, Note_on_c, 12, 67, 0
10, 51600, Note_on_c, 12, 65, 44
10, 51689, Note_on_c, 12, 65, 0
10, 51720, Note_on_c, 12, 64, 44
10, 51809, Note_on_c, 12, 64, 0
10, 51840, Note_on_c, 12, 65, 44
10, 51879, Note_on_c, 12, 65, 0
10, 51880, Note_on_c, 12, 67, 44
10, 51919, Note_on_c, 12, 67, 0
10, 51920, Note_on_c, 12, 65, 44
10, 51959, Note_on_c, 12, 65, 0
10, 51960, Note_on_c, 12, 67, 44
10, 51999, Note_on_c, 12, 67, 0
10, 52000, Note_on_c, 12, 64, 44
10, 52039, Note_on_c, 12, 64, 0
10, 52040, Note_on_c, 12, 65, 44
10, 52079, Note_on_c, 12, 65, 0
10, 52080, Note_on_c, 12, 67, 44
10, 52184, Note_on_c, 12, 67, 0
10, 52200, Note_on_c, 12, 65, 44
10, 52289, Note_on_c, 12, 65, 0
10, 52320, Note_on_c, 12, 64, 44
10, 52409, Note_on_c, 12, 64, 0
10, 52440, Note_on_c, 12, 62, 44
10, 52529, Note_on_c, 12, 62, 0
10, 52560, Note_on_c, 12, 72, 80
10, 52560, Note_on_c, 12, 55, 80
10, 52560, Note_on_c, 12, 64, 80
10, 52784, Note_on_c, 12, 64, 0
10, 52784, Note_on_c, 12, 55, 0
10, 52784, Note_on_c, 12, 72, 0
10, 52800, Note_on_c, 12, 67, 80
10, 53039, Note_on_c, 12, 67, 0
10, 53280, Note_on_c, 12, 64, 80
10, 53504, Note_on_c, 12, 64, 0
10, 53520, Note_on_c, 12, 60, 80
10, 53759, Note_on_c, 12, 60, 0
10, 54000, Note_on_c, 12, 67, 44
10, 54039, Note_on_c, 12, 67, 0
10, 54040, Note_on_c, 12, 69, 44
10, 54079, Note_on_c, 12, 69, 0
10, 54080, Note_on_c, 12, 67, 44
10, 54119, Note_on_c, 12, 67, 0
10, 54120, Note_on_c, 12, 69, 44
10, 54159, Note_on_c, 12, 69, 0
10, 54160, Note_on_c, 12, 65, 44
10, 54199, Note_on_c, 12, 65, 0
10, 54200, Note_on_c, 12, 67, 44
10, 54239, Note_on_c, 12, 67, 0
10, 54240, Note_on_c, 12, 69, 44
10, 54344, Note_on_c, 12, 69, 0
10, 54360, Note_on_c, 12, 67, 44
10, 54449, Note_on_c, 12, 67, 0
10, 54480, Note_on_c, 12, 65, 44
10, 54569, Note_on_c, 12, 65, 0
10, 54600, Note_on_c, 12, 64, 44
10, 54689, Note_on_c, 12, 64, 0
10, 54720, Note_on_c, 12, 65, 44
10, 54759, Note_on_c, 12, 65, 0
10, 54760, Note_on_c, 12, 67, 44
10, 54799, Note_on_c, 12, 67, 0
10, 54800, Note_on_c, 12, 65, 44
10, 54839, Note_on_c, 12, 65, 0
10, 54840, Note_on_c, 12, 67, 44
10, 54879, Note_on_c, 12, 67, 0
10, 54880, Note_on_c, 12, 64, 44
10, 54919, Note_on_c, 12, 64, 0
10, 54920, Note_on_c, 12, 65, 44
10, 54959, Note_on_c, 12, 65, 0
10, 54960, Note_on_c, 12, 67, 44
10, 55064, Note_on_c, 12, 67, 0
10, 55080, Note_on_c, 12, 65, 44
10, 55169, Note_on_c, 12, 65, 0
10, 55200, Note_on_c, 12, 64, 44
10, 55289, Note_on_c, 12, 64, 0
10, 55320, Note_on_c, 12, 62, 44
10, 55409, Note_on_c, 12, 62, 0
10, 55440, Note_on_c, 12, 64, 44
10, 55479, Note_on_c, 12, 64, 0
10, 55480, Note_on_c, 12, 65, 44
10, 55519, Note_on_c, 12, 65, 0
10, 55520, Note_on_c, 12, 64, 44
10, 55559, Note_on_c, 12, 64, 0
10, 55560, Note_on_c, 12, 65, 44
10, 55599, Note_on_c, 12, 65, 0
10, 55600, Note_on_c, 12, 62, 44
10, 55639, Note_on_c, 12, 62, 0
10, 55640, Note_on_c, 12, 64, 44
10, 55679, Note_on_c, 12, 64, 0
10, 55680, Note_on_c, 12, 65, 44
10, 55784, Note_on_c, 12, 65, 0
10, 55800, Note_on_c, 12, 64, 44
10, 55889, Note_on_c, 12, 64, 0
10, 55920, Note_on_c, 12, 62, 44
10, 56009, Note_on_c, 12, 62, 0
10, 56040, Note_on_c, 12, 60, 44
10, 56129, Note_on_c, 12, 60, 0
10, 56160, Note_on_c, 12, 62, 44
10, 56199, Note_on_c, 12, 62, 0
10, 56200, Note_on_c, 12, 64, 44
10, 56239, Note_on_c, 12, 64, 0
10, 56240, Note_on_c, 12, 62, 44
10, 56279, Note_on_c, 12, 62, 0
10, 56280, Note_on_c, 12, 64, 44
10, 56319, Note_on_c, 12, 64, 0
10, 56320, Note_on_c, 12, 60, 44
10, 56359, Note_on_c, 12, 60, 0
10, 56360, Note_on_c, 12, 62, 44
10, 56399, Note_on_c, 12, 62, 0
10, 56400, Note_on_c, 12, 64, 44
10, 56504, Note_on_c, 12, 64, 0
10, 56520, Note_on_c, 12, 62, 44
10, 56609, Note_on_c, 12, 62, 0
10, 56640, Note_on_c, 12, 60, 44
10, 56729, Note_on_c, 12, 60, 0
10, 56760, Note_on_c, 12, 59, 44
10, 56849, Note_on_c, 12, 59, 0
10, 56880, Note_on_c, 12, 60, 80
10, 56931, Note_on_c, 12, 60, 0
10, 56940, Note_on_c, 12, 72, 80
10, 56991, Note_on_c, 12, 72, 0
10, 57000, Note_on_c, 12, 72, 80
10, 57051, Note_on_c, 12, 72, 0
10, 57060, Note_on_c, 12, 72, 80
10, 57111, Note_on_c, 12, 72, 0
10, 57120, Note_on_c, 12, 72, 80
10, 57171, Note_on_c, 12, 72, 0
10, 57180, Note_on_c, 12, 72, 80
10, 57231, Note_on_c, 12, 72, 0
10, 57240, Note_on_c, 12, 72, 80
10, 57291, Note_on_c, 12, 72, 0
10, 57300, Note_on_c, 12, 72, 80
10, 57351, Note_on_c, 12, 72, 0
10, 57360, Note_on_c, 12, 72, 80
10, 57411, Note_on_c, 12, 72, 0
10, 57420, Note_on_c, 12, 72, 80
10, 57471, Note_on_c, 12, 72, 0
10, 57480, Note_on_c, 12, 72, 80
10, 57531, Note_on_c, 12, 72, 0
10, 57540, Note_on_c, 12, 72, 80
10, 57591, Note_on_c, 12, 72, 0
10, 57600, Note_on_c, 12, 72, 80
10, 57651, Note_on_c, 12, 72, 0
10, 57660, Note_on_c, 12, 72, 80
10, 57711, Note_on_c, 12, 72, 0
10, 57720, Note_on_c, 12, 72, 80
10, 57771, Note_on_c, 12, 72, 0
10, 57780, Note_on_c, 12, 72, 80
10, 57831, Note_on_c, 12, 72, 0
10, 57840, Note_on_c, 12, 72, 80
10, 57891, Note_on_c, 12, 72, 0
10, 57900, Note_on_c, 12, 72, 80
10, 57951, Note_on_c, 12, 72, 0
10, 57960, Note_on_c, 12, 72, 80
10, 58011, Note_on_c, 12, 72, 0
10, 58020, Note_on_c, 12, 72, 80
10, 58071, Note_on_c, 12, 72, 0
10, 58080, Note_on_c, 12, 72, 80
10, 58131, Note_on_c, 12, 72, 0
10, 58140, Note_on_c, 12, 72, 80
10, 58191, Note_on_c, 12, 72, 0
10, 58200, Note_on_c, 12, 72, 80
10, 58251, Note_on_c, 12, 72, 0
10, 58260, Note_on_c, 12, 72, 80
10, 58311, Note_on_c, 12, 72, 0
10, 58320, Note_on_c, 12, 72, 80
10, 58371, Note_on_c, 12, 72, 0
10, 58380, Note_on_c, 12, 72, 80
10, 58431, Note_on_c, 12, 72, 0
10, 58440, Note_on_c, 12, 72, 80
10, 58491, Note_on_c, 12, 72, 0
10, 58500, Note_on_c, 12, 72, 80
10, 58551, Note_on_c, 12, 72, 0
10, 58560, Note_on_c, 12, 72, 80
10, 58611, Note_on_c, 12, 72, 0
10, 58620, Note_on_c, 12, 72, 80
10, 58671, Note_on_c, 12, 72, 0
10, 58680, Note_on_c, 12, 72, 80
10, 58731, Note_on_c, 12, 72, 0
10, 58740, Note_on_c, 12, 72, 80
10, 58791, Note_on_c, 12, 72, 0
10, 58800, Note_on_c, 12, 72, 80
10, 58851, Note_on_c, 12, 72, 0
10, 58860, Note_on_c, 12, 72, 80
10, 58911, Note_on_c, 12, 72, 0
10, 58920, Note_on_c, 12, 72, 80
10, 58971, Note_on_c, 12, 72, 0
10, 58980, Note_on_c, 12, 72, 80
10, 59031, Note_on_c, 12, 72, 0
10, 59040, Note_on_c, 12, 72, 80
10, 59091, Note_on_c, 12, 72, 0
10, 59100, Note_on_c, 12, 72, 80
10, 59151, Note_on_c, 12, 72, 0
10, 59160, Note_on_c, 12, 72, 80
10, 59211, Note_on_c, 12, 72, 0
10, 59220, Note_on_c, 12, 72, 80
10, 59271, Note_on_c, 12, 72, 0
10, 59280, Note_on_c, 12, 72, 80
10, 59331, Note_on_c, 12, 72, 0
10, 59340, Note_on_c, 12, 72, 80
10, 59391, Note_on_c, 12, 72, 0
10, 59400, Note_on_c, 12, 72, 80
10, 59451, Note_on_c, 12, 72, 0
10, 59460, Note_on_c, 12, 72, 80
10, 59511, Note_on_c, 12, 72, 0
10, 59520, Note_on_c, 12, 74, 80
10, 59571, Note_on_c, 12, 74, 0
10, 59580, Note_on_c, 12, 74, 80
10, 59631, Note_on_c, 12, 74, 0
10, 59640, Note_on_c, 12, 74, 80
10, 59691, Note_on_c, 12, 74, 0
10, 59700, Note_on_c, 12, 74, 80
10, 59751, Note_on_c, 12, 74, 0
10, 59760, Note_on_c, 12, 72, 80
10, 59984, Note_on_c, 12, 72, 0
10, 60000, Note_on_c, 12, 76, 80
10, 60059, Note_on_c, 12, 76, 0
10, 60060, Note_on_c, 12, 74, 80
10, 60224, Note_on_c, 12, 74, 0
10, 60240, Note_on_c, 12, 72, 80
10, 60299, Note_on_c, 12, 72, 0
10, 60300, Note_on_c, 12, 71, 80
10, 60464, Note_on_c, 12, 71, 0
10, 60480, Note_on_c, 12, 72, 80
10, 60531, Note_on_c, 12, 72, 0
10, 60540, Note_on_c, 12, 72, 80
10, 60591, Note_on_c, 12, 72, 0
10, 60600, Note_on_c, 12, 72, 80
10, 60651, Note_on_c, 12, 72, 0
10, 60660, Note_on_c, 12, 72, 80
10, 60711, Note_on_c, 12, 72, 0
10, 60720, Note_on_c, 12, 72, 80
10, 60771, Note_on_c, 12, 72, 0
10, 60780, Note_on_c, 12, 72, 80
10, 60831, Note_on_c, 12, 72, 0
10, 60840, Note_on_c, 12, 72, 80
10, 60891, Note_on_c, 12, 72, 0
10, 60900, Note_on_c, 12, 72, 80
10, 60951, Note_on_c, 12, 72, 0
10, 60960, Note_on_c, 12, 72, 80
10, 61011, Note_on_c, 12, 72, 0
10, 61020, Note_on_c, 12, 72, 80
10, 61071, Note_on_c, 12, 72, 0
10, 61080, Note_on_c, 12, 72, 80
10, 61131, Note_on_c, 12, 72, 0
10, 61140, Note_on_c, 12, 72, 80
10, 61191, Note_on_c, 12, 72, 0
10, 61200, Note_on_c, 12, 65, 80
10, 61229, Note_on_c, 12, 65, 0
10, 61230, Note_on_c, 12, 67, 80
10, 61259, Note_on_c, 12, 67, 0
10, 61260, Note_on_c, 12, 69, 80
10, 61424, Note_on_c, 12, 69, 0
10, 61440, Note_on_c, 12, 60, 80
10, 61469, Note_on_c, 12, 60, 0
10, 61470, Note_on_c, 12, 62, 80
10, 61499, Note_on_c, 12, 62, 0
10, 61500, Note_on_c, 12, 64, 80
10, 61664, Note_on_c, 12, 64, 0
10, 61680, Note_on_c, 12, 62, 80
10, 61709, Note_on_c, 12, 62, 0
10, 61710, Note_on_c, 12, 64, 80
10, 61739, Note_on_c, 12, 64, 0
10, 61740, Note_on_c, 12, 65, 80
10, 61904, Note_on_c, 12, 65, 0
10, 61920, Note_on_c, 12, 64, 80
10, 61971, Note_on_c, 12, 64, 0
10, 61980, Note_on_c, 12, 76, 80
10, 62031, Note_on_c, 12, 76, 0
10, 62040, Note_on_c, 12, 76, 80
10, 62091, Note_on_c, 12, 76, 0
10, 62100, Note_on_c, 12, 76, 80
10, 62151, Note_on_c, 12, 76, 0
10, 62160, Note_on_c, 12, 76, 80
10, 62211, Note_on_c, 12, 76, 0
10, 62220, Note_on_c, 12, 76, 80
10, 62271, Note_on_c, 12, 76, 0
10, 62280, Note_on_c, 12, 76, 80
10, 62331, Note_on_c, 12, 76, 0
10, 62340, Note_on_c, 12, 76, 80
10, 62391, Note_on_c, 12, 76, 0
10, 62400, Note_on_c, 12, 76, 80
10, 62451, Note_on_c, 12, 76, 0
10, 62460, Note_on_c, 12, 76, 80
10, 62511, Note_on_c, 12, 76, 0
10, 62520, Note_on_c, 12, 76, 80
10, 62571, Note_on_c, 12, 76, 0
10, 62580, Note_on_c, 12, 76, 80
10, 62631, Note_on_c, 12, 76, 0
10, 62640, Note_on_c, 12, 76, 80
10, 62864, Note_on_c, 12, 76, 0
10, 62880, Note_on_c, 12, 77, 44
10, 62939, Note_on_c, 12, 77, 0
10, 62940, Note_on_c, 12, 76, 44
10, 62984, Note_on_c, 12, 76, 0
10, 63000, Note_on_c, 12, 74, 44
10, 63051, Note_on_c, 12, 74, 0
10, 63060, Note_on_c, 12, 72, 44
10, 63111, Note_on_c, 12, 72, 0
10, 63120, Note_on_c, 12, 77, 44
10, 63179, Note_on_c, 12, 77, 0
10, 63180, Note_on_c, 12, 76, 44
10, 63224, Note_on_c, 12, 76, 0
10, 63240, Note_on_c, 12, 74, 44
10, 63291, Note_on_c, 12, 74, 0
10, 63300, Note_on_c, 12, 72, 44
10, 63351, Note_on_c, 12, 72, 0
10, 63360, Note_on_c, 12, 74, 80
10, 63411, Note_on_c, 12, 74, 0
10, 63420, Note_on_c, 12, 77, 80
10, 63471, Note_on_c, 12, 77, 0
10, 63480, Note_on_c, 12, 77, 80
10, 63531, Note_on_c, 12, 77, 0
10, 63540, Note_on_c, 12, 77, 80
10, 63591, Note_on_c, 12, 77, 0
10, 63600, Note_on_c, 12, 77, 80
10, 63651, Note_on_c, 12, 77, 0
10, 63660, Note_on_c, 12, 77, 80
10, 63711, Note_on_c, 12, 77, 0
10, 63720, Note_on_c, 12, 77, 80
10, 63771, Note_on_c, 12, 77, 0
10, 63780, Note_on_c, 12, 77, 80
10, 63831, Note_on_c, 12, 77, 0
10, 63840, Note_on_c, 12, 77, 80
10, 63891, Note_on_c, 12, 77, 0
10, 63900, Note_on_c, 12, 77, 80
10, 63951, Note_on_c, 12, 77, 0
10, 63960, Note_on_c, 12, 77, 80
10, 64011, Note_on_c, 12, 77, 0
10, 64020, Note_on_c, 12, 77, 80
10, 64071, Note_on_c, 12, 77, 0
10, 64080, Note_on_c, 12, 77, 80
10, 64304, Note_on_c, 12, 77, 0
10, 64320, Note_on_c, 12, 76, 44
10, 64379, Note_on_c, 12, 76, 0
10, 64380, Note_on_c, 12, 74, 44
10, 64424, Note_on_c, 12, 74, 0
10, 64440, Note_on_c, 12, 72, 44
10, 64491, Note_on_c, 12, 72, 0
10, 64500, Note_on_c, 12, 71, 44
10, 64551, Note_on_c, 12, 71, 0
10, 64560, Note_on_c, 12, 76, 44
10, 64619, Note_on_c, 12, 76, 0
10, 64620, Note_on_c, 12, 74, 44
10, 64664, Note_on_c, 12, 74, 0
10, 64680, Note_on_c, 12, 72, 44
10, 64731, Note_on_c, 12, 72, 0
10, 64740, Note_on_c, 12, 71, 44
10, 64791, Note_on_c, 12, 71, 0
10, 64800, Note_on_c, 12, 72, 80
10, 64851, Note_on_c, 12, 72, 0
10, 64860, Note_on_c, 12, 76, 80
10, 64911, Note_on_c, 12, 76, 0
10, 64920, Note_on_c, 12, 76, 80
10, 64971, Note_on_c, 12, 76, 0
10, 64980, Note_on_c, 12, 76, 80
10, 65031, Note_on_c, 12, 76, 0
10, 65040, Note_on_c, 12, 76, 80
10, 65091, Note_on_c, 12, 76, 0
10, 65100, Note_on_c, 12, 76, 80
10, 65151, Note_on_c, 12, 76, 0
10, 65160, Note_on_c, 12, 76, 80
10, 65211, Note_on_c, 12, 76, 0
10, 65220, Note_on_c, 12, 76, 80
10, 65271, Note_on_c, 12, 76, 0
10, 65280, Note_on_c, 12, 76, 80
10, 65331, Note_on_c, 12, 76, 0
10, 65340, Note_on_c, 12, 76, 80
10, 65391, Note_on_c, 12, 76, 0
10, 65400, Note_on_c, 12, 76, 80
10, 65451, Note_on_c, 12, 76, 0
10, 65460, Note_on_c, 12, 76, 80
10, 65511, Note_on_c, 12, 76, 0
10, 65520, Note_on_c, 12, 76, 80
10, 65744, Note_on_c, 12, 76, 0
10, 65760, Note_on_c, 12, 77, 44
10, 65819, Note_on_c, 12, 77, 0
10, 65820, Note_on_c, 12, 76, 44
10, 65864, Note_on_c, 12, 76, 0
10, 65880, Note_on_c, 12, 74, 44
10, 65931, Note_on_c, 12, 74, 0
10, 65940, Note_on_c, 12, 72, 44
10, 65991, Note_on_c, 12, 72, 0
10, 66000, Note_on_c, 12, 77, 44
10, 66059, Note_on_c, 12, 77, 0
10, 66060, Note_on_c, 12, 76, 44
10, 66104, Note_on_c, 12, 76, 0
10, 66120, Note_on_c, 12, 74, 44
10, 66171, Note_on_c, 12, 74, 0
10, 66180, Note_on_c, 12, 72, 44
10, 66231, Note_on_c, 12, 72, 0
10, 66240, Note_on_c, 12, 74, 80
10, 66291, Note_on_c, 12, 74, 0
10, 66300, Note_on_c, 12, 81, 80
10, 66351, Note_on_c, 12, 81, 0
10, 66360, Note_on_c, 12, 81, 80
10, 66411, Note_on_c, 12, 81, 0
10, 66420, Note_on_c, 12, 81, 80
10, 66471, Note_on_c, 12, 81, 0
10, 66480, Note_on_c, 12, 81, 80
10, 66531, Note_on_c, 12, 81, 0
10, 66540, Note_on_c, 12, 81, 80
10, 66591, Note_on_c, 12, 81, 0
10, 66600, Note_on_c, 12, 81, 80
10, 66651, Note_on_c, 12, 81, 0
10, 66660, Note_on_c, 12, 81, 80
10, 66711, Note_on_c, 12, 81, 0
10, 66720, Note_on_c, 12, 81, 80
10, 66771, Note_on_c, 12, 81, 0
10, 66780, Note_on_c, 12, 81, 80
10, 66831, Note_on_c, 12, 81, 0
10, 66840, Note_on_c, 12, 81, 80
10, 66891, Note_on_c, 12, 81, 0
10, 66900, Note_on_c, 12, 81, 80
10, 66951, Note_on_c, 12, 81, 0
10, 66960, Note_on_c, 12, 81, 80
10, 67011, Note_on_c, 12, 81, 0
10, 67020, Note_on_c, 12, 79, 80
10, 67071, Note_on_c, 12, 79, 0
10, 67080, Note_on_c, 12, 78, 80
10, 67131, Note_on_c, 12, 78, 0
10, 67140, Note_on_c, 12, 79, 80
10, 67191, Note_on_c, 12, 79, 0
10, 67200, Note_on_c, 12, 78, 80
10, 67251, Note_on_c, 12, 78, 0
10, 67260, Note_on_c, 12, 76, 80
10, 67311, Note_on_c, 12, 76, 0
10, 67320, Note_on_c, 12, 74, 80
10, 67371, Note_on_c, 12, 74, 0
10, 67380, Note_on_c, 12, 76, 80
10, 67431, Note_on_c, 12, 76, 0
10, 67440, Note_on_c, 12, 74, 80
10, 67491, Note_on_c, 12, 74, 0
10, 67500, Note_on_c, 12, 72, 80
10, 67551, Note_on_c, 12, 72, 0
10, 67560, Note_on_c, 12, 71, 80
10, 67611, Note_on_c, 12, 71, 0
10, 67620, Note_on_c, 12, 69, 80
10, 67671, Note_on_c, 12, 69, 0
10, 67680, Note_on_c, 12, 67, 80
10, 67731, Note_on_c, 12, 67, 0
10, 67740, Note_on_c, 12, 79, 80
10, 67791, Note_on_c, 12, 79, 0
10, 67800, Note_on_c, 12, 78, 80
10, 67851, Note_on_c, 12, 78, 0
10, 67860, Note_on_c, 12, 79, 80
10, 67911, Note_on_c, 12, 79, 0
10, 67920, Note_on_c, 12, 81, 80
10, 67979, Note_on_c, 12, 81, 0
10, 67980, Note_on_c, 12, 79, 80
10, 68031, Note_on_c, 12, 79, 0
10, 68040, Note_on_c, 12, 78, 80
10, 68084, Note_on_c, 12, 78, 0
10, 68100, Note_on_c, 12, 79, 80
10, 68144, Note_on_c, 12, 79, 0
10, 68160, Note_on_c, 12, 81, 80
10, 68219, Note_on_c, 12, 81, 0
10, 68220, Note_on_c, 12, 79, 80
10, 68271, Note_on_c, 12, 79, 0
10, 68280, Note_on_c, 12, 78, 80
10, 68324, Note_on_c, 12, 78, 0
10, 68340, Note_on_c, 12, 79, 80
10, 68384, Note_on_c, 12, 79, 0
10, 68400, Note_on_c, 12, 67, 80
10, 68451, Note_on_c, 12, 67, 0
10, 68460, Note_on_c, 12, 79, 80
10, 68511, Note_on_c, 12, 79, 0
10, 68520, Note_on_c, 12, 78, 80
10, 68571, Note_on_c, 12, 78, 0
10, 68580, Note_on_c, 12, 79, 80
10, 68631, Note_on_c, 12, 79, 0
10, 68640, Note_on_c, 12, 81, 80
10, 68699, Note_on_c, 12, 81, 0
10, 68700, Note_on_c, 12, 79, 80
10, 68751, Note_on_c, 12, 79, 0
10, 68760, Note_on_c, 12, 78, 80
10, 68804, Note_on_c, 12, 78, 0
10, 68820, Note_on_c, 12, 79, 80
10, 68864, Note_on_c, 12, 79, 0
10, 68880, Note_on_c, 12, 81, 80
10, 68939, Note_on_c, 12, 81, 0
10, 68940, Note_on_c, 12, 79, 80
10, 68991, Note_on_c, 12, 79, 0
10, 69000, Note_on_c, 12, 78, 80
10, 69044, Note_on_c, 12, 78, 0
10, 69060, Note_on_c, 12, 79, 80
10, 69104, Note_on_c, 12, 79, 0
10, 69120, Note_on_c, 12, 67, 80
10, 69171, Note_on_c, 12, 67, 0
10, 69180, Note_on_c, 12, 79, 80
10, 69231, Note_on_c, 12, 79, 0
10, 69240, Note_on_c, 12, 78, 80
10, 69291, Note_on_c, 12, 78, 0
10, 69300, Note_on_c, 12, 79, 80
10, 69351, Note_on_c, 12, 79, 0
10, 69360, Note_on_c, 12, 81, 80
10, 69419, Note_on_c, 12, 81, 0
10, 69420, Note_on_c, 12, 79, 80
10, 69471, Note_on_c, 12, 79, 0
10, 69480, Note_on_c, 12, 78, 80
10, 69524, Note_on_c, 12, 78, 0
10, 69540, Note_on_c, 12, 79, 80
10, 69584, Note_on_c, 12, 79, 0
10, 69600, Note_on_c, 12, 81, 80
10, 69659, Note_on_c, 12, 81, 0
10, 69660, Note_on_c, 12, 79, 80
10, 69711, Note_on_c, 12, 79, 0
10, 69720, Note_on_c, 12, 78, 80
10, 69764, Note_on_c, 12, 78, 0
10, 69780, Note_on_c, 12, 79, 80
10, 69824, Note_on_c, 12, 79, 0
10, 69840, Note_on_c, 12, 79, 80
10, 69929, Note_on_c, 12, 79, 0
10, 69960, Note_on_c, 12, 78, 80
10, 70049, Note_on_c, 12, 78, 0
10, 70080, Note_on_c, 12, 76, 80
10, 70169, Note_on_c, 12, 76, 0
10, 70200, Note_on_c, 12, 74, 80
10, 70289, Note_on_c, 12, 74, 0
10, 70320, Note_on_c, 12, 72, 80
10, 70409, Note_on_c, 12, 72, 0
10, 70440, Note_on_c, 12, 71, 80
10, 70529, Note_on_c, 12, 71, 0
10, 70560, Note_on_c, 12, 78, 80
10, 70560, Note_on_c, 12, 69, 80
10, 70784, Note_on_c, 12, 69, 0
10, 70784, Note_on_c, 12, 78, 0
10, 70800, Note_on_c, 12, 62, 80
10, 71039, Note_on_c, 12, 62, 0
10, 71280, Note_on_c, 12, 71, 44
10, 71459, Note_on_c, 12, 71, 0
10, 71520, Note_on_c, 12, 71, 44
10, 71699, Note_on_c, 12, 71, 0
10, 71760, Note_on_c, 12, 71, 44
10, 71939, Note_on_c, 12, 71, 0
10, 72000, Note_on_c, 12, 72, 44
10, 72359, Note_on_c, 12, 72, 0
10, 72360, Note_on_c, 12, 74, 44
10, 72464, Note_on_c, 12, 74, 0
10, 72480, Note_on_c, 12, 76, 44
10, 72659, Note_on_c, 12, 76, 0
10, 72720, Note_on_c, 12, 66, 44
10, 72749, Note_on_c, 12, 66, 0
10, 72750, Note_on_c, 12, 67, 44
10, 72779, Note_on_c, 12, 67, 0
10, 72780, Note_on_c, 12, 69, 44
10, 72959, Note_on_c, 12, 69, 0
10, 73440, Note_on_c, 12, 67, 44
10, 73469, Note_on_c, 12, 67, 0
10, 73470, Note_on_c, 12, 69, 44
10, 73499, Note_on_c, 12, 69, 0
10, 73500, Note_on_c, 12, 71, 44
10, 73679, Note_on_c, 12, 71, 0
10, 74160, Note_on_c, 12, 71, 44
10, 74339, Note_on_c, 12, 71, 0
10, 74400, Note_on_c, 12, 71, 44
10, 74579, Note_on_c, 12, 71, 0
10, 74640, Note_on_c, 12, 71, 44
10, 74819, Note_on_c, 12, 71, 0
10, 74880, Note_on_c, 12, 72, 44
10, 75059, Note_on_c, 12, 72, 0
10, 75060, Note_on_c, 12, 74, 44
10, 75119, Note_on_c, 12, 74, 0
10, 75120, Note_on_c, 12, 76, 44
10, 75224, Note_on_c, 12, 76, 0
10, 75240, Note_on_c, 12, 74, 44
10, 75329, Note_on_c, 12, 74, 0
10, 75360, Note_on_c, 12, 72, 44
10, 75449, Note_on_c, 12, 72, 0
10, 75480, Note_on_c, 12, 71, 44
10, 75569, Note_on_c, 12, 71, 0
10, 75600, Note_on_c, 12, 71, 44
10, 75659, Note_on_c, 12, 71, 0
10, 75660, Note_on_c, 12, 69, 44
10, 75824, Note_on_c, 12, 69, 0
10, 75840, Note_on_c, 12, 67, 44
10, 76064, Note_on_c, 12, 67, 0
10, 76080, Note_on_c, 12, 66, 44
10, 76304, Note_on_c, 12, 66, 0
10, 76320, Note_on_c, 12, 66, 44
10, 76799, Note_on_c, 12, 66, 0
10, 76800, Note_on_c, 12, 67, 44
10, 76919, Note_on_c, 12, 67, 0
10, 78720, Note_on_c, 12, 57, 44
10, 78779, Note_on_c, 12, 57, 0
10, 78780, Note_on_c, 12, 59, 44
10, 78839, Note_on_c, 12, 59, 0
10, 78840, Note_on_c, 12, 57, 44
10, 78899, Note_on_c, 12, 57, 0
10, 78900, Note_on_c, 12, 59, 44
10, 78959, Note_on_c, 12, 59, 0
10, 78960, Note_on_c, 12, 60, 44
10, 79199, Note_on_c, 12, 60, 0
10, 79440, Note_on_c, 12, 59, 44
10, 79499, Note_on_c, 12, 59, 0
10, 79500, Note_on_c, 12, 60, 44
10, 79559, Note_on_c, 12, 60, 0
10, 79560, Note_on_c, 12, 59, 44
10, 79619, Note_on_c, 12, 59, 0
10, 79620, Note_on_c, 12, 60, 44
10, 79679, Note_on_c, 12, 60, 0
10, 79680, Note_on_c, 12, 62, 44
10, 79919, Note_on_c, 12, 62, 0
10, 82080, Note_on_c, 12, 74, 80
10, 82131, Note_on_c, 12, 74, 0
10, 82140, Note_on_c, 12, 74, 80
10, 82191, Note_on_c, 12, 74, 0
10, 82200, Note_on_c, 12, 73, 80
10, 82251, Note_on_c, 12, 73, 0
10, 82260, Note_on_c, 12, 73, 80
10, 82311, Note_on_c, 12, 73, 0
10, 82320, Note_on_c, 12, 74, 80
10, 82371, Note_on_c, 12, 74, 0
10, 82380, Note_on_c, 12, 74, 80
10, 82431, Note_on_c, 12, 74, 0
10, 82440, Note_on_c, 12, 73, 80
10, 82491, Note_on_c, 12, 73, 0
10, 82500, Note_on_c, 12, 73, 80
10, 82551, Note_on_c, 12, 73, 0
10, 82560, Note_on_c, 12, 74, 80
10, 82611, Note_on_c, 12, 74, 0
10, 82620, Note_on_c, 12, 74, 80
10, 82671, Note_on_c, 12, 74, 0
10, 82680, Note_on_c, 12, 71, 80
10, 82731, Note_on_c, 12, 71, 0
10, 82740, Note_on_c, 12, 71, 80
10, 82791, Note_on_c, 12, 71, 0
10, 82800, Note_on_c, 12, 74, 80
10, 82851, Note_on_c, 12, 74, 0
10, 82860, Note_on_c, 12, 74, 80
10, 82911, Note_on_c, 12, 74, 0
10, 82920, Note_on_c, 12, 73, 80
10, 82971, Note_on_c, 12, 73, 0
10, 82980, Note_on_c, 12, 73, 80
10, 83031, Note_on_c, 12, 73, 0
10, 83040, Note_on_c, 12, 74, 80
10, 83091, Note_on_c, 12, 74, 0
10, 83100, Note_on_c, 12, 74, 80
10, 83151, Note_on_c, 12, 74, 0
10, 83160, Note_on_c, 12, 73, 80
10, 83211, Note_on_c, 12, 73, 0
10, 83220, Note_on_c, 12, 73, 80
10, 83271, Note_on_c, 12, 73, 0
10, 83280, Note_on_c, 12, 74, 80
10, 83331, Note_on_c, 12, 74, 0
10, 83340, Note_on_c, 12, 74, 80
10, 83391, Note_on_c, 12, 74, 0
10, 83400, Note_on_c, 12, 69, 80
10, 83451, Note_on_c, 12, 69, 0
10, 83460, Note_on_c, 12, 69, 80
10, 83511, Note_on_c, 12, 69, 0
10, 83520, Note_on_c, 12, 67, 80
10, 83571, Note_on_c, 12, 67, 0
10, 83580, Note_on_c, 12, 67, 80
10, 83631, Note_on_c, 12, 67, 0
10, 83640, Note_on_c, 12, 66, 80
10, 83691, Note_on_c, 12, 66, 0
10, 83700, Note_on_c, 12, 66, 80
10, 83751, Note_on_c, 12, 66, 0
10, 83760, Note_on_c, 12, 67, 80
10, 83811, Note_on_c, 12, 67, 0
10, 83820, Note_on_c, 12, 67, 80
10, 83871, Note_on_c, 12, 67, 0
10, 83880, Note_on_c, 12, 66, 80
10, 83931, Note_on_c, 12, 66, 0
10, 83940, Note_on_c, 12, 66, 80
10, 83991, Note_on_c, 12, 66, 0
10, 84000, Note_on_c, 12, 67, 80
10, 84051, Note_on_c, 12, 67, 0
10, 84060, Note_on_c, 12, 67, 80
10, 84111, Note_on_c, 12, 67, 0
10, 84120, Note_on_c, 12, 64, 80
10, 84171, Note_on_c, 12, 64, 0
10, 84180, Note_on_c, 12, 64, 80
10, 84231, Note_on_c, 12, 64, 0
10, 84240, Note_on_c, 12, 62, 80
10, 84291, Note_on_c, 12, 62, 0
10, 84300, Note_on_c, 12, 62, 80
10, 84351, Note_on_c, 12, 62, 0
10, 84360, Note_on_c, 12, 60, 80
10, 84411, Note_on_c, 12, 60, 0
10, 84420, Note_on_c, 12, 60, 80
10, 84471, Note_on_c, 12, 60, 0
10, 84480, Note_on_c, 12, 59, 80
10, 84531, Note_on_c, 12, 59, 0
10, 84540, Note_on_c, 12, 59, 80
10, 84591, Note_on_c, 12, 59, 0
10, 84600, Note_on_c, 12, 60, 80
10, 84651, Note_on_c, 12, 60, 0
10, 84660, Note_on_c, 12, 60, 80
10, 84711, Note_on_c, 12, 60, 0
10, 84720, Note_on_c, 12, 62, 80
10, 84771, Note_on_c, 12, 62, 0
10, 84780, Note_on_c, 12, 62, 80
10, 84831, Note_on_c, 12, 62, 0
10, 84840, Note_on_c, 12, 67, 80
10, 84891, Note_on_c, 12, 67, 0
10, 84900, Note_on_c, 12, 67, 80
10, 84951, Note_on_c, 12, 67, 0
10, 84960, Note_on_c, 12, 67, 80
10, 85011, Note_on_c, 12, 67, 0
10, 85020, Note_on_c, 12, 67, 80
10, 85071, Note_on_c, 12, 67, 0
10, 85080, Note_on_c, 12, 67, 80
10, 85131, Note_on_c, 12, 67, 0
10, 85140, Note_on_c, 12, 67, 80
10, 85191, Note_on_c, 12, 67, 0
10, 85200, Note_on_c, 12, 66, 80
10, 85251, Note_on_c, 12, 66, 0
10, 85260, Note_on_c, 12, 66, 80
10, 85311, Note_on_c, 12, 66, 0
10, 85320, Note_on_c, 12, 66, 80
10, 85371, Note_on_c, 12, 66, 0
10, 85380, Note_on_c, 12, 66, 80
10, 85431, Note_on_c, 12, 66, 0
10, 85440, Note_on_c, 12, 64, 80
10, 85491, Note_on_c, 12, 64, 0
10, 85500, Note_on_c, 12, 64, 80
10, 85551, Note_on_c, 12, 64, 0
10, 85560, Note_on_c, 12, 64, 80
10, 85611, Note_on_c, 12, 64, 0
10, 85620, Note_on_c, 12, 64, 80
10, 85671, Note_on_c, 12, 64, 0
10, 85680, Note_on_c, 12, 62, 80
10, 85904, Note_on_c, 12, 62, 0
10, 85920, Note_on_c, 12, 83, 80
10, 85979, Note_on_c, 12, 83, 0
10, 85980, Note_on_c, 12, 81, 80
10, 86024, Note_on_c, 12, 81, 0
10, 86040, Note_on_c, 12, 79, 80
10, 86091, Note_on_c, 12, 79, 0
10, 86100, Note_on_c, 12, 78, 80
10, 86151, Note_on_c, 12, 78, 0
10, 86160, Note_on_c, 12, 79, 80
10, 86211, Note_on_c, 12, 79, 0
10, 86220, Note_on_c, 12, 78, 80
10, 86271, Note_on_c, 12, 78, 0
10, 86280, Note_on_c, 12, 76, 80
10, 86331, Note_on_c, 12, 76, 0
10, 86340, Note_on_c, 12, 74, 80
10, 86391, Note_on_c, 12, 74, 0
10, 86400, Note_on_c, 12, 76, 80
10, 86579, Note_on_c, 12, 76, 0
10, 86580, Note_on_c, 12, 72, 80
10, 86631, Note_on_c, 12, 72, 0
10, 86640, Note_on_c, 12, 71, 80
10, 86879, Note_on_c, 12, 71, 0
10, 86880, Note_on_c, 12, 72, 80
10, 87104, Note_on_c, 12, 72, 0
10, 87120, Note_on_c, 12, 71, 80
10, 87299, Note_on_c, 12, 71, 0
10, 87360, Note_on_c, 12, 71, 80
10, 87360, Note_on_c, 12, 68, 80
10, 87539, Note_on_c, 12, 68, 0
10, 87539, Note_on_c, 12, 71, 0
10, 87600, Note_on_c, 12, 69, 80
10, 87779, Note_on_c, 12, 69, 0
10, 87840, Note_on_c, 12, 71, 80
10, 88019, Note_on_c, 12, 71, 0
10, 88080, Note_on_c, 12, 64, 80
10, 88080, Note_on_c, 12, 57, 80
10, 88080, Note_on_c, 12, 69, 80
10, 88259, Note_on_c, 12, 69, 0
10, 88259, Note_on_c, 12, 57, 0
10, 88259, Note_on_c, 12, 64, 0
10, 88800, Note_on_c, 12, 64, 44
10, 89039, Note_on_c, 12, 64, 0
10, 89040, Note_on_c, 12, 63, 44
10, 89264, Note_on_c, 12, 63, 0
10, 89280, Note_on_c, 12, 62, 44
10, 89459, Note_on_c, 12, 62, 0
10, 89520, Note_on_c, 12, 66, 44
10, 89759, Note_on_c, 12, 66, 0
10, 89760, Note_on_c, 12, 67, 44
10, 89984, Note_on_c, 12, 67, 0
10, 90000, Note_on_c, 12, 64, 44
10, 90179, Note_on_c, 12, 64, 0
10, 90180, Note_on_c, 12, 60, 44
10, 90231, Note_on_c, 12, 60, 0
10, 90240, Note_on_c, 12, 59, 44
10, 90479, Note_on_c, 12, 59, 0
10, 90480, Note_on_c, 12, 57, 44
10, 90704, Note_on_c, 12, 57, 0
10, 90720, Note_on_c, 12, 59, 80
10, 90771, Note_on_c, 12, 59, 0
10, 90780, Note_on_c, 12, 67, 80
10, 90831, Note_on_c, 12, 67, 0
10, 90840, Note_on_c, 12, 71, 80
10, 90891, Note_on_c, 12, 71, 0
10, 90900, Note_on_c, 12, 74, 80
10, 90951, Note_on_c, 12, 74, 0
10, 90960, Note_on_c, 12, 71, 80
10, 91011, Note_on_c, 12, 71, 0
10, 91020, Note_on_c, 12, 74, 80
10, 91071, Note_on_c, 12, 74, 0
10, 91080, Note_on_c, 12, 79, 80
10, 91131, Note_on_c, 12, 79, 0
10, 91140, Note_on_c, 12, 83, 80
10, 91191, Note_on_c, 12, 83, 0
10, 91200, Note_on_c, 12, 83, 80
10, 91259, Note_on_c, 12, 83, 0
10, 91260, Note_on_c, 12, 81, 80
10, 91304, Note_on_c, 12, 81, 0
10, 91320, Note_on_c, 12, 79, 80
10, 91371, Note_on_c, 12, 79, 0
10, 91380, Note_on_c, 12, 78, 80
10, 91431, Note_on_c, 12, 78, 0
10, 91440, Note_on_c, 12, 79, 80
10, 91491, Note_on_c, 12, 79, 0
10, 91500, Note_on_c, 12, 74, 80
10, 91551, Note_on_c, 12, 74, 0
10, 91560, Note_on_c, 12, 71, 80
10, 91611, Note_on_c, 12, 71, 0
10, 91620, Note_on_c, 12, 67, 80
10, 91671, Note_on_c, 12, 67, 0
10, 91680, Note_on_c, 12, 74, 80
10, 91731, Note_on_c, 12, 74, 0
10, 91740, Note_on_c, 12, 71, 80
10, 91791, Note_on_c, 12, 71, 0
10, 91800, Note_on_c, 12, 67, 80
10, 91851, Note_on_c, 12, 67, 0
10, 91860, Note_on_c, 12, 62, 80
10, 91911, Note_on_c, 12, 62, 0
10, 91920, Note_on_c, 12, 74, 80
10, 91979, Note_on_c, 12, 74, 0
10, 91980, Note_on_c, 12, 72, 80
10, 92024, Note_on_c, 12, 72, 0
10, 92040, Note_on_c, 12, 71, 80
10, 92091, Note_on_c, 12, 71, 0
10, 92100, Note_on_c, 12, 69, 80
10, 92151, Note_on_c, 12, 69, 0
10, 92160, Note_on_c, 12, 67, 80
10, 92211, Note_on_c, 12, 67, 0
10, 92220, Note_on_c, 12, 71, 80
10, 92271, Note_on_c, 12, 71, 0
10, 92280, Note_on_c, 12, 74, 80
10, 92331, Note_on_c, 12, 74, 0
10, 92340, Note_on_c, 12, 79, 80
10, 92391, Note_on_c, 12, 79, 0
10, 92400, Note_on_c, 12, 71, 80
10, 92451, Note_on_c, 12, 71, 0
10, 92460, Note_on_c, 12, 74, 80
10, 92511, Note_on_c, 12, 74, 0
10, 92520, Note_on_c, 12, 79, 80
10, 92571, Note_on_c, 12, 79, 0
10, 92580, Note_on_c, 12, 83, 80
10, 92631, Note_on_c, 12, 83, 0
10, 92640, Note_on_c, 12, 83, 80
10, 92699, Note_on_c, 12, 83, 0
10, 92700, Note_on_c, 12, 81, 80
10, 92744, Note_on_c, 12, 81, 0
10, 92760, Note_on_c, 12, 79, 80
10, 92811, Note_on_c, 12, 79, 0
10, 92820, Note_on_c, 12, 78, 80
10, 92871, Note_on_c, 12, 78, 0
10, 92880, Note_on_c, 12, 79, 80
10, 92931, Note_on_c, 12, 79, 0
10, 92940, Note_on_c, 12, 74, 80
10, 92991, Note_on_c, 12, 74, 0
10, 93000, Note_on_c, 12, 71, 80
10, 93051, Note_on_c, 12, 71, 0
10, 93060, Note_on_c, 12, 67, 80
10, 93111, Note_on_c, 12, 67, 0
10, 93120, Note_on_c, 12, 74, 80
10, 93171, Note_on_c, 12, 74, 0
10, 93180, Note_on_c, 12, 71, 80
10, 93231, Note_on_c, 12, 71, 0
10, 93240, Note_on_c, 12, 67, 80
10, 93291, Note_on_c, 12, 67, 0
10, 93300, Note_on_c, 12, 62, 80
10, 93351, Note_on_c, 12, 62, 0
10, 93360, Note_on_c, 12, 74, 80
10, 93419, Note_on_c, 12, 74, 0
10, 93420, Note_on_c, 12, 72, 80
10, 93464, Note_on_c, 12, 72, 0
10, 93480, Note_on_c, 12, 71, 80
10, 93531, Note_on_c, 12, 71, 0
10, 93540, Note_on_c, 12, 69, 80
10, 93591, Note_on_c, 12, 69, 0
10, 93600, Note_on_c, 12, 71, 80
10, 93651, Note_on_c, 12, 71, 0
10, 93660, Note_on_c, 12, 74, 80
10, 93711, Note_on_c, 12, 74, 0
10, 93720, Note_on_c, 12, 74, 80
10, 93771, Note_on_c, 12, 74, 0
10, 93780, Note_on_c, 12, 74, 80
10, 93831, Note_on_c, 12, 74, 0
10, 93840, Note_on_c, 12, 67, 80
10, 93891, Note_on_c, 12, 67, 0
10, 93900, Note_on_c, 12, 74, 80
10, 93951, Note_on_c, 12, 74, 0
10, 93960, Note_on_c, 12, 74, 80
10, 94011, Note_on_c, 12, 74, 0
10, 94020, Note_on_c, 12, 74, 80
10, 94071, Note_on_c, 12, 74, 0
10, 94080, Note_on_c, 12, 69, 80
10, 94131, Note_on_c, 12, 69, 0
10, 94140, Note_on_c, 12, 74, 80
10, 94191, Note_on_c, 12, 74, 0
10, 94200, Note_on_c, 12, 74, 80
10, 94251, Note_on_c, 12, 74, 0
10, 94260, Note_on_c, 12, 74, 80
10, 94311, Note_on_c, 12, 74, 0
10, 94320, Note_on_c, 12, 71, 80
10, 94371, Note_on_c, 12, 71, 0
10, 94380, Note_on_c, 12, 74, 80
10, 94431, Note_on_c, 12, 74, 0
10, 94440, Note_on_c, 12, 74, 80
10, 94491, Note_on_c, 12, 74, 0
10, 94500, Note_on_c, 12, 74, 80
10, 94551, Note_on_c, 12, 74, 0
10, 94560, Note_on_c, 12, 67, 80
10, 94611, Note_on_c, 12, 67, 0
10, 94620, Note_on_c, 12, 74, 80
10, 94671, Note_on_c, 12, 74, 0
10, 94680, Note_on_c, 12, 74, 80
10, 94731, Note_on_c, 12, 74, 0
10, 94740, Note_on_c, 12, 74, 80
10, 94791, Note_on_c, 12, 74, 0
10, 94800, Note_on_c, 12, 69, 80
10, 94851, Note_on_c, 12, 69, 0
10, 94860, Note_on_c, 12, 74, 80
10, 94911, Note_on_c, 12, 74, 0
10, 94920, Note_on_c, 12, 74, 80
10, 94971, Note_on_c, 12, 74, 0
10, 94980, Note_on_c, 12, 74, 80
10, 95031, Note_on_c, 12, 74, 0
10, 95040, Note_on_c, 12, 71, 80
10, 95264, Note_on_c, 12, 71, 0
10, 95280, Note_on_c, 12, 67, 80
10, 95369, Note_on_c, 12, 67, 0
10, 95400, Note_on_c, 12, 69, 80
10, 95489, Note_on_c, 12, 69, 0
10, 95520, Note_on_c, 12, 71, 80
10, 95609, Note_on_c, 12, 71, 0
10, 95640, Note_on_c, 12, 72, 80
10, 95729, Note_on_c, 12, 72, 0
10, 95760, Note_on_c, 12, 74, 80
10, 95849, Note_on_c, 12, 74, 0
10, 95880, Note_on_c, 12, 76, 80
10, 95969, Note_on_c, 12, 76, 0
10, 96000, Note_on_c, 12, 77, 80
10, 96089, Note_on_c, 12, 77, 0
10, 96120, Note_on_c, 12, 74, 80
10, 96209, Note_on_c, 12, 74, 0
10, 96240, Note_on_c, 12, 71, 80
10, 96329, Note_on_c, 12, 71, 0
10, 96360, Note_on_c, 12, 67, 80
10, 96449, Note_on_c, 12, 67, 0
10, 96480, Note_on_c, 12, 55, 80
10, 96480, Note_on_c, 12, 64, 80
10, 96480, Note_on_c, 12, 72, 80
10, 96719, Note_on_c, 12, 72, 0
10, 96719, Note_on_c, 12, 64, 0
10, 96719, Note_on_c, 12, 55, 0
10, 97200, Note_on_c, 12, 76, 80
10, 97200, Note_on_c, 12, 67, 80
10, 97200, Note_on_c, 12, 72, 80
10, 97439, Note_on_c, 12, 72, 0
10, 97439, Note_on_c, 12, 67, 0
10, 97439, Note_on_c, 12, 76, 0
10, 97920, Note_on_c, 12, 72, 80
10, 97920, Note_on_c, 12, 77, 80
10, 97920, Note_on_c, 12, 65, 80
10, 98159, Note_on_c, 12, 65, 0
10, 98159, Note_on_c, 12, 77, 0
10, 98159, Note_on_c, 12, 72, 0
10, 98640, Note_on_c, 12, 64, 80
10, 98640, Note_on_c, 12, 72, 80
10, 98640, Note_on_c, 12, 82, 80
10, 98640, Note_on_c, 12, 55, 80
10, 98879, Note_on_c, 12, 55, 0
10, 98879, Note_on_c, 12, 64, 0
10, 98879, Note_on_c, 12, 72, 0
10, 98879, Note_on_c, 12, 82, 0
10, 99360, Note_on_c, 12, 72, 80
10, 99464, Note_on_c, 12, 72, 0
10, 99480, Note_on_c, 12, 60, 44
10, 99569, Note_on_c, 12, 60, 0
10, 99600, Note_on_c, 12, 60, 44
10, 99689, Note_on_c, 12, 60, 0
10, 99720, Note_on_c, 12, 60, 44
10, 99809, Note_on_c, 12, 60, 0
10, 99840, Note_on_c, 12, 60, 44
10, 99879, Note_on_c, 12, 60, 0
10, 99880, Note_on_c, 12, 62, 44
10, 99919, Note_on_c, 12, 62, 0
10, 99920, Note_on_c, 12, 60, 44
10, 99959, Note_on_c, 12, 60, 0
10, 99960, Note_on_c, 12, 62, 44
10, 99999, Note_on_c, 12, 62, 0
10, 100000, Note_on_c, 12, 59, 44
10, 100039, Note_on_c, 12, 59, 0
10, 100040, Note_on_c, 12, 60, 44
10, 100079, Note_on_c, 12, 60, 0
10, 100080, Note_on_c, 12, 59, 44
10, 100184, Note_on_c, 12, 59, 0
10, 100200, Note_on_c, 12, 58, 44
10, 100289, Note_on_c, 12, 58, 0
10, 100320, Note_on_c, 12, 58, 44
10, 100409, Note_on_c, 12, 58, 0
10, 100440, Note_on_c, 12, 58, 44
10, 100529, Note_on_c, 12, 58, 0
10, 100560, Note_on_c, 12, 58, 44
10, 100599, Note_on_c, 12, 58, 0
10, 100600, Note_on_c, 12, 60, 44
10, 100639, Note_on_c, 12, 60, 0
10, 100640, Note_on_c, 12, 58, 44
10, 100679, Note_on_c, 12, 58, 0
10, 100680, Note_on_c, 12, 60, 44
10, 100719, Note_on_c, 12, 60, 0
10, 100720, Note_on_c, 12, 57, 44
10, 100759, Note_on_c, 12, 57, 0
10, 100760, Note_on_c, 12, 58, 44
10, 100799, Note_on_c, 12, 58, 0
10, 100800, Note_on_c, 12, 57, 44
10, 100904, Note_on_c, 12, 57, 0
10, 100920, Note_on_c, 12, 60, 44
10, 101009, Note_on_c, 12, 60, 0
10, 101040, Note_on_c, 12, 60, 44
10, 101129, Note_on_c, 12, 60, 0
10, 101160, Note_on_c, 12, 60, 44
10, 101249, Note_on_c, 12, 60, 0
10, 101280, Note_on_c, 12, 60, 44
10, 101319, Note_on_c, 12, 60, 0
10, 101320, Note_on_c, 12, 62, 44
10, 101359, Note_on_c, 12, 62, 0
10, 101360, Note_on_c, 12, 60, 44
10, 101399, Note_on_c, 12, 60, 0
10, 101400, Note_on_c, 12, 62, 44
10, 101439, Note_on_c, 12, 62, 0
10, 101440, Note_on_c, 12, 59, 44
10, 101479, Note_on_c, 12, 59, 0
10, 101480, Note_on_c, 12, 60, 44
10, 101519, Note_on_c, 12, 60, 0
10, 101520, Note_on_c, 12, 59, 44
10, 101624, Note_on_c, 12, 59, 0
10, 101640, Note_on_c, 12, 58, 44
10, 101729, Note_on_c, 12, 58, 0
10, 101760, Note_on_c, 12, 58, 44
10, 101849, Note_on_c, 12, 58, 0
10, 101880, Note_on_c, 12, 58, 44
10, 101969, Note_on_c, 12, 58, 0
10, 102000, Note_on_c, 12, 58, 44
10, 102039, Note_on_c, 12, 58, 0
10, 102040, Note_on_c, 12, 60, 44
10, 102079, Note_on_c, 12, 60, 0
10, 102080, Note_on_c, 12, 58, 44
10, 102119, Note_on_c, 12, 58, 0
10, 102120, Note_on_c, 12, 60, 44
10, 102159, Note_on_c, 12, 60, 0
10, 102160, Note_on_c, 12, 57, 44
10, 102199, Note_on_c, 12, 57, 0
10, 102200, Note_on_c, 12, 58, 44
10, 102239, Note_on_c, 12, 58, 0
10, 102240, Note_on_c, 12, 57, 44
10, 102344, Note_on_c, 12, 57, 0
10, 102360, Note_on_c, 12, 69, 44
10, 102449, Note_on_c, 12, 69, 0
10, 102480, Note_on_c, 12, 69, 44
10, 102569, Note_on_c, 12, 69, 0
10, 102600, Note_on_c, 12, 69, 44
10, 102689, Note_on_c, 12, 69, 0
10, 102720, Note_on_c, 12, 69, 44
10, 102759, Note_on_c, 12, 69, 0
10, 102760, Note_on_c, 12, 71, 44
10, 102799, Note_on_c, 12, 71, 0
10, 102800, Note_on_c, 12, 69, 44
10, 102839, Note_on_c, 12, 69, 0
10, 102840, Note_on_c, 12, 71, 44
10, 102879, Note_on_c, 12, 71, 0
10, 102880, Note_on_c, 12, 67, 44
10, 102919, Note_on_c, 12, 67, 0
10, 102920, Note_on_c, 12, 69, 44
10, 102959, Note_on_c, 12, 69, 0
10, 102960, Note_on_c, 12, 67, 44
10, 103064, Note_on_c, 12, 67, 0
10, 103080, Note_on_c, 12, 60, 44
10, 103169, Note_on_c, 12, 60, 0
10, 103200, Note_on_c, 12, 60, 44
10, 103289, Note_on_c, 12, 60, 0
10, 103320, Note_on_c, 12, 60, 44
10, 103409, Note_on_c, 12, 60, 0
10, 103440, Note_on_c, 12, 60, 44
10, 103479, Note_on_c, 12, 60, 0
10, 103480, Note_on_c, 12, 62, 44
10, 103519, Note_on_c, 12, 62, 0
10, 103520, Note_on_c, 12, 60, 44
10, 103559, Note_on_c, 12, 60, 0
10, 103560, Note_on_c, 12, 62, 44
10, 103599, Note_on_c, 12, 62, 0
10, 103600, Note_on_c, 12, 59, 44
10, 103639, Note_on_c, 12, 59, 0
10, 103640, Note_on_c, 12, 60, 44
10, 103679, Note_on_c, 12, 60, 0
10, 103680, Note_on_c, 12, 59, 44
10, 103784, Note_on_c, 12, 59, 0
10, 103800, Note_on_c, 12, 65, 44
10, 103904, Note_on_c, 12, 65, 0
10, 103920, Note_on_c, 12, 65, 44
10, 104024, Note_on_c, 12, 65, 0
10, 104040, Note_on_c, 12, 65, 44
10, 104144, Note_on_c, 12, 65, 0
10, 104160, Note_on_c, 12, 65, 44
10, 104264, Note_on_c, 12, 65, 0
10, 104280, Note_on_c, 12, 65, 44
10, 104384, Note_on_c, 12, 65, 0
10, 104400, Note_on_c, 12, 63, 44
10, 104459, Note_on_c, 12, 63, 0
10, 104460, Note_on_c, 12, 64, 44
10, 104624, Note_on_c, 12, 64, 0
10, 104640, Note_on_c, 12, 64, 44
10, 104729, Note_on_c, 12, 64, 0
10, 104760, Note_on_c, 12, 64, 44
10, 104849, Note_on_c, 12, 64, 0
10, 104880, Note_on_c, 12, 64, 44
10, 104969, Note_on_c, 12, 64, 0
10, 105000, Note_on_c, 12, 64, 44
10, 105089, Note_on_c, 12, 64, 0
10, 105240, Note_on_c, 12, 64, 44
10, 105329, Note_on_c, 12, 64, 0
10, 105360, Note_on_c, 12, 64, 44
10, 105449, Note_on_c, 12, 64, 0
10, 105480, Note_on_c, 12, 64, 44
10, 105569, Note_on_c, 12, 64, 0
10, 105600, Note_on_c, 12, 64, 44
10, 105639, Note_on_c, 12, 64, 0
10, 105640, Note_on_c, 12, 65, 44
10, 105679, Note_on_c, 12, 65, 0
10, 105680, Note_on_c, 12, 64, 44
10, 105719, Note_on_c, 12, 64, 0
10, 105720, Note_on_c, 12, 65, 44
10, 105759, Note_on_c, 12, 65, 0
10, 105760, Note_on_c, 12, 62, 44
10, 105799, Note_on_c, 12, 62, 0
10, 105800, Note_on_c, 12, 64, 44
10, 105839, Note_on_c, 12, 64, 0
10, 105840, Note_on_c, 12, 62, 44
10, 105944, Note_on_c, 12, 62, 0
10, 105960, Note_on_c, 12, 67, 44
10, 106049, Note_on_c, 12, 67, 0
10, 106080, Note_on_c, 12, 67, 44
10, 106169, Note_on_c, 12, 67, 0
10, 106200, Note_on_c, 12, 67, 44
10, 106289, Note_on_c, 12, 67, 0
10, 106320, Note_on_c, 12, 67, 44
10, 106359, Note_on_c, 12, 67, 0
10, 106360, Note_on_c, 12, 69, 44
10, 106399, Note_on_c, 12, 69, 0
10, 106400, Note_on_c, 12, 67, 44
10, 106439, Note_on_c, 12, 67, 0
10, 106440, Note_on_c, 12, 69, 44
10, 106479, Note_on_c, 12, 69, 0
10, 106480, Note_on_c, 12, 66, 44
10, 106519, Note_on_c, 12, 66, 0
10, 106520, Note_on_c, 12, 67, 44
10, 106559, Note_on_c, 12, 67, 0
10, 106560, Note_on_c, 12, 66, 44
10, 106664, Note_on_c, 12, 66, 0
10, 106680, Note_on_c, 12, 60, 44
10, 106769, Note_on_c, 12, 60, 0
10, 106800, Note_on_c, 12, 60, 44
10, 106889, Note_on_c, 12, 60, 0
10, 106920, Note_on_c, 12, 60, 44
10, 107009, Note_on_c, 12, 60, 0
10, 107040, Note_on_c, 12, 60, 44
10, 107079, Note_on_c, 12, 60, 0
10, 107080, Note_on_c, 12, 62, 44
10, 107119, Note_on_c, 12, 62, 0
10, 107120, Note_on_c, 12, 60, 44
10, 107159, Note_on_c, 12, 60, 0
10, 107160, Note_on_c, 12, 62, 44
10, 107199, Note_on_c, 12, 62, 0
10, 107200, Note_on_c, 12, 59, 44
10, 107239, Note_on_c, 12, 59, 0
10, 107240, Note_on_c, 12, 60, 44
10, 107279, Note_on_c, 12, 60, 0
10, 107280, Note_on_c, 12, 59, 44
10, 107459, Note_on_c, 12, 59, 0
10, 107520, Note_on_c, 12, 67, 44
10, 107759, Note_on_c, 12, 67, 0
10, 107760, Note_on_c, 12, 65, 44
10, 107999, Note_on_c, 12, 65, 0
10, 108000, Note_on_c, 12, 64, 44
10, 108239, Note_on_c, 12, 64, 0
10, 108240, Note_on_c, 12, 62, 44
10, 108479, Note_on_c, 12, 62, 0
10, 108480, Note_on_c, 12, 60, 44
10, 108704, Note_on_c, 12, 60, 0
10, 108720, Note_on_c, 12, 59, 44
10, 108899, Note_on_c, 12, 59, 0
10, 108960, Note_on_c, 12, 67, 44
10, 109199, Note_on_c, 12, 67, 0
10, 109200, Note_on_c, 12, 65, 44
10, 109439, Note_on_c, 12, 65, 0
10, 109440, Note_on_c, 12, 64, 44
10, 109679, Note_on_c, 12, 64, 0
10, 109680, Note_on_c, 12, 62, 44
10, 109919, Note_on_c, 12, 62, 0
10, 109920, Note_on_c, 12, 60, 44
10, 110144, Note_on_c, 12, 60, 0
10, 110160, Note_on_c, 12, 59, 44
10, 110199, Note_on_c, 12, 59, 0
10, 110200, Note_on_c, 12, 60, 44
10, 110239, Note_on_c, 12, 60, 0
10, 110240, Note_on_c, 12, 59, 44
10, 110279, Note_on_c, 12, 59, 0
10, 110280, Note_on_c, 12, 60, 44
10, 110319, Note_on_c, 12, 60, 0
10, 110320, Note_on_c, 12, 57, 44
10, 110359, Note_on_c, 12, 57, 0
10, 110360, Note_on_c, 12, 59, 44
10, 110399, Note_on_c, 12, 59, 0
10, 110880, Note_on_c, 12, 60, 44
10, 110919, Note_on_c, 12, 60, 0
10, 110920, Note_on_c, 12, 62, 44
10, 110959, Note_on_c, 12, 62, 0
10, 110960, Note_on_c, 12, 60, 44
10, 110999, Note_on_c, 12, 60, 0
10, 111000, Note_on_c, 12, 62, 44
10, 111039, Note_on_c, 12, 62, 0
10, 111040, Note_on_c, 12, 59, 44
10, 111079, Note_on_c, 12, 59, 0
10, 111080, Note_on_c, 12, 60, 44
10, 111119, Note_on_c, 12, 60, 0
10, 111840, Note_on_c, 12, 74, 44
10, 111929, Note_on_c, 12, 74, 0
10, 111960, Note_on_c, 12, 72, 44
10, 112049, Note_on_c, 12, 72, 0
10, 112080, Note_on_c, 12, 71, 44
10, 112169, Note_on_c, 12, 71, 0
10, 112200, Note_on_c, 12, 69, 44
10, 112289, Note_on_c, 12, 69, 0
10, 112320, Note_on_c, 12, 67, 44
10, 112409, Note_on_c, 12, 67, 0
10, 112440, Note_on_c, 12, 65, 44
10, 112529, Note_on_c, 12, 65, 0
10, 112560, Note_on_c, 12, 64, 44
10, 112649, Note_on_c, 12, 64, 0
10, 112680, Note_on_c, 12, 62, 44
10, 112769, Note_on_c, 12, 62, 0
10, 112800, Note_on_c, 12, 60, 44
10, 112889, Note_on_c, 12, 60, 0
10, 112920, Note_on_c, 12, 59, 44
10, 113009, Note_on_c, 12, 59, 0
10, 113040, Note_on_c, 12, 64, 80
10, 113040, Note_on_c, 12, 72, 80
10, 113040, Note_on_c, 12, 55, 80
10, 113264, Note_on_c, 12, 55, 0
10, 113264, Note_on_c, 12, 72, 0
10, 113264, Note_on_c, 12, 64, 0
10, 113280, Note_on_c, 12, 67, 80
10, 113519, Note_on_c, 12, 67, 0
10, 113760, Note_on_c, 12, 64, 80
10, 113984, Note_on_c, 12, 64, 0
10, 114000, Note_on_c, 12, 60, 80
10, 114239, Note_on_c, 12, 60, 0
10, 115920, Note_on_c, 12, 67, 44
10, 115959, Note_on_c, 12, 67, 0
10, 115960, Note_on_c, 12, 69, 44
10, 115999, Note_on_c, 12, 69, 0
10, 116000, Note_on_c, 12, 67, 44
10, 116039, Note_on_c, 12, 67, 0
10, 116040, Note_on_c, 12, 69, 44
10, 116079, Note_on_c, 12, 69, 0
10, 116080, Note_on_c, 12, 65, 44
10, 116119, Note_on_c, 12, 65, 0
10, 116120, Note_on_c, 12, 67, 44
10, 116159, Note_on_c, 12, 67, 0
10, 116160, Note_on_c, 12, 69, 44
10, 116264, Note_on_c, 12, 69, 0
10, 116280, Note_on_c, 12, 67, 44
10, 116369, Note_on_c, 12, 67, 0
10, 116400, Note_on_c, 12, 65, 44
10, 116489, Note_on_c, 12, 65, 0
10, 116520, Note_on_c, 12, 64, 44
10, 116609, Note_on_c, 12, 64, 0
10, 116640, Note_on_c, 12, 65, 44
10, 116679, Note_on_c, 12, 65, 0
10, 116680, Note_on_c, 12, 67, 44
10, 116719, Note_on_c, 12, 67, 0
10, 116720, Note_on_c, 12, 65, 44
10, 116759, Note_on_c, 12, 65, 0
10, 116760, Note_on_c, 12, 67, 44
10, 116799, Note_on_c, 12, 67, 0
10, 116800, Note_on_c, 12, 64, 44
10, 116839, Note_on_c, 12, 64, 0
10, 116840, Note_on_c, 12, 65, 44
10, 116879, Note_on_c, 12, 65, 0
10, 116880, Note_on_c, 12, 67, 44
10, 116984, Note_on_c, 12, 67, 0
10, 117000, Note_on_c, 12, 65, 44
10, 117089, Note_on_c, 12, 65, 0
10, 117120, Note_on_c, 12, 64, 44
10, 117209, Note_on_c, 12, 64, 0
10, 117240, Note_on_c, 12, 62, 44
10, 117329, Note_on_c, 12, 62, 0
10, 117360, Note_on_c, 12, 55, 80
10, 117360, Note_on_c, 12, 64, 80
10, 117360, Note_on_c, 12, 72, 80
10, 117584, Note_on_c, 12, 72, 0
10, 117584, Note_on_c, 12, 64, 0
10, 117584, Note_on_c, 12, 55, 0
10, 117600, Note_on_c, 12, 67, 80
10, 117839, Note_on_c, 12, 67, 0
10, 118080, Note_on_c, 12, 64, 80
10, 118304, Note_on_c, 12, 64, 0
10, 118320, Note_on_c, 12, 60, 80
10, 118559, Note_on_c, 12, 60, 0
10, 118800, Note_on_c, 12, 67, 44
10, 118839, Note_on_c, 12, 67, 0
10, 118840, Note_on_c, 12, 69, 44
10, 118879, Note_on_c, 12, 69, 0
10, 118880, Note_on_c, 12, 67, 44
10, 118919, Note_on_c, 12, 67, 0
10, 118920, Note_on_c, 12, 69, 44
10, 118959, Note_on_c, 12, 69, 0
10, 118960, Note_on_c, 12, 65, 44
10, 118999, Note_on_c, 12, 65, 0
10, 119000, Note_on_c, 12, 67, 44
10, 119039, Note_on_c, 12, 67, 0
10, 119040, Note_on_c, 12, 69, 44
10, 119144, Note_on_c, 12, 69, 0
10, 119160, Note_on_c, 12, 67, 44
10, 119249, Note_on_c, 12, 67, 0
10, 119280, Note_on_c, 12, 65, 44
10, 119369, Note_on_c, 12, 65, 0
10, 119400, Note_on_c, 12, 64, 44
10, 119489, Note_on_c, 12, 64, 0
10, 119520, Note_on_c, 12, 65, 44
10, 119559, Note_on_c, 12, 65, 0
10, 119560, Note_on_c, 12, 67, 44
10, 119599, Note_on_c, 12, 67, 0
10, 119600, Note_on_c, 12, 65, 44
10, 119639, Note_on_c, 12, 65, 0
10, 119640, Note_on_c, 12, 67, 44
10, 119679, Note_on_c, 12, 67, 0
10, 119680, Note_on_c, 12, 64, 44
10, 119719, Note_on_c, 12, 64, 0
10, 119720, Note_on_c, 12, 65, 44
10, 119759, Note_on_c, 12, 65, 0
10, 119760, Note_on_c, 12, 67, 44
10, 119864, Note_on_c, 12, 67, 0
10, 119880, Note_on_c, 12, 65, 44
10, 119969, Note_on_c, 12, 65, 0
10, 120000, Note_on_c, 12, 64, 44
10, 120089, Note_on_c, 12, 64, 0
10, 120120, Note_on_c, 12, 62, 44
10, 120209, Note_on_c, 12, 62, 0
10, 120240, Note_on_c, 12, 64, 44
10, 120279, Note_on_c, 12, 64, 0
10, 120280, Note_on_c, 12, 65, 44
10, 120319, Note_on_c, 12, 65, 0
10, 120320, Note_on_c, 12, 64, 44
10, 120359, Note_on_c, 12, 64, 0
10, 120360, Note_on_c, 12, 65, 44
10, 120399, Note_on_c, 12, 65, 0
10, 120400, Note_on_c, 12, 62, 44
10, 120439, Note_on_c, 12, 62, 0
10, 120440, Note_on_c, 12, 64, 44
10, 120479, Note_on_c, 12, 64, 0
10, 120480, Note_on_c, 12, 65, 44
10, 120584, Note_on_c, 12, 65, 0
10, 120600, Note_on_c, 12, 64, 44
10, 120689, Note_on_c, 12, 64, 0
10, 120720, Note_on_c, 12, 62, 44
10, 120809, Note_on_c, 12, 62, 0
10, 120840, Note_on_c, 12, 60, 44
10, 120929, Note_on_c, 12, 60, 0
10, 120960, Note_on_c, 12, 62, 44
10, 120999, Note_on_c, 12, 62, 0
10, 121000, Note_on_c, 12, 64, 44
10, 121039, Note_on_c, 12, 64, 0
10, 121040, Note_on_c, 12, 62, 44
10, 121079, Note_on_c, 12, 62, 0
10, 121080, Note_on_c, 12, 64, 44
10, 121119, Note_on_c, 12, 64, 0
10, 121120, Note_on_c, 12, 60, 44
10, 121159, Note_on_c, 12, 60, 0
10, 121160, Note_on_c, 12, 62, 44
10, 121199, Note_on_c, 12, 62, 0
10, 121200, Note_on_c, 12, 64, 44
10, 121304, Note_on_c, 12, 64, 0
10, 121320, Note_on_c, 12, 62, 44
10, 121409, Note_on_c, 12, 62, 0
10, 121440, Note_on_c, 12, 60, 44
10, 121529, Note_on_c, 12, 60, 0
10, 121560, Note_on_c, 12, 59, 44
10, 121649, Note_on_c, 12, 59, 0
10, 121680, Note_on_c, 12, 60, 76
10, 121731, Note_on_c, 12, 60, 0
10, 121740, Note_on_c, 12, 72, 80
10, 121791, Note_on_c, 12, 72, 0
10, 121800, Note_on_c, 12, 72, 77
10, 121851, Note_on_c, 12, 72, 0
10, 121860, Note_on_c, 12, 72, 82
10, 121911, Note_on_c, 12, 72, 0
10, 121920, Note_on_c, 12, 72, 80
10, 121971, Note_on_c, 12, 72, 0
10, 121980, Note_on_c, 12, 72, 79
10, 122031, Note_on_c, 12, 72, 0
10, 122040, Note_on_c, 12, 72, 78
10, 122091, Note_on_c, 12, 72, 0
10, 122100, Note_on_c, 12, 72, 83
10, 122151, Note_on_c, 12, 72, 0
10, 122160, Note_on_c, 12, 72, 82
10, 122211, Note_on_c, 12, 72, 0
10, 122220, Note_on_c, 12, 72, 81
10, 122271, Note_on_c, 12, 72, 0
10, 122280, Note_on_c, 12, 72, 77
10, 122331, Note_on_c, 12, 72, 0
10, 122340, Note_on_c, 12, 72, 82
10, 122391, Note_on_c, 12, 72, 0
10, 122400, Note_on_c, 12, 72, 81
10, 122451, Note_on_c, 12, 72, 0
10, 122460, Note_on_c, 12, 72, 80
10, 122511, Note_on_c, 12, 72, 0
10, 122520, Note_on_c, 12, 72, 78
10, 122571, Note_on_c, 12, 72, 0
10, 122580, Note_on_c, 12, 72, 76
10, 122631, Note_on_c, 12, 72, 0
10, 122640, Note_on_c, 12, 72, 76
10, 122691, Note_on_c, 12, 72, 0
10, 122700, Note_on_c, 12, 72, 78
10, 122751, Note_on_c, 12, 72, 0
10, 122760, Note_on_c, 12, 72, 77
10, 122811, Note_on_c, 12, 72, 0
10, 122820, Note_on_c, 12, 72, 77
10, 122871, Note_on_c, 12, 72, 0
10, 122880, Note_on_c, 12, 72, 83
10, 122931, Note_on_c, 12, 72, 0
10, 122940, Note_on_c, 12, 72, 79
10, 122991, Note_on_c, 12, 72, 0
10, 123000, Note_on_c, 12, 72, 76
10, 123051, Note_on_c, 12, 72, 0
10, 123060, Note_on_c, 12, 72, 76
10, 123111, Note_on_c, 12, 72, 0
10, 123120, Note_on_c, 12, 72, 76
10, 123171, Note_on_c, 12, 72, 0
10, 123180, Note_on_c, 12, 72, 79
10, 123231, Note_on_c, 12, 72, 0
10, 123240, Note_on_c, 12, 72, 80
10, 123291, Note_on_c, 12, 72, 0
10, 123300, Note_on_c, 12, 72, 80
10, 123351, Note_on_c, 12, 72, 0
10, 123360, Note_on_c, 12, 72, 80
10, 123411, Note_on_c, 12, 72, 0
10, 123420, Note_on_c, 12, 72, 80
10, 123471, Note_on_c, 12, 72, 0
10, 123480, Note_on_c, 12, 72, 77
10, 123531, Note_on_c, 12, 72, 0
10, 123540, Note_on_c, 12, 72, 81
10, 123591, Note_on_c, 12, 72, 0
10, 123600, Note_on_c, 12, 72, 79
10, 123651, Note_on_c, 12, 72, 0
10, 123660, Note_on_c, 12, 72, 78
10, 123711, Note_on_c, 12, 72, 0
10, 123720, Note_on_c, 12, 72, 76
10, 123771, Note_on_c, 12, 72, 0
10, 123780, Note_on_c, 12, 72, 80
10, 123831, Note_on_c, 12, 72, 0
10, 123840, Note_on_c, 12, 72, 82
10, 123891, Note_on_c, 12, 72, 0
10, 123900, Note_on_c, 12, 72, 82
10, 123951, Note_on_c, 12, 72, 0
10, 123960, Note_on_c, 12, 72, 80
10, 124011, Note_on_c, 12, 72, 0
10, 124020, Note_on_c, 12, 72, 78
10, 124071, Note_on_c, 12, 72, 0
10, 124080, Note_on_c, 12, 72, 83
10, 124131, Note_on_c, 12, 72, 0
10, 124140, Note_on_c, 12, 72, 81
10, 124191, Note_on_c, 12, 72, 0
10, 124200, Note_on_c, 12, 72, 83
10, 124251, Note_on_c, 12, 72, 0
10, 124260, Note_on_c, 12, 72, 83
10, 124311, Note_on_c, 12, 72, 0
10, 124320, Note_on_c, 12, 74, 80
10, 124371, Note_on_c, 12, 74, 0
10, 124380, Note_on_c, 12, 74, 77
10, 124431, Note_on_c, 12, 74, 0
10, 124440, Note_on_c, 12, 74, 79
10, 124491, Note_on_c, 12, 74, 0
10, 124500, Note_on_c, 12, 74, 77
10, 124551, Note_on_c, 12, 74, 0
10, 124560, Note_on_c, 12, 72, 80
10, 124784, Note_on_c, 12, 72, 0
10, 124800, Note_on_c, 12, 76, 80
10, 124859, Note_on_c, 12, 76, 0
10, 124860, Note_on_c, 12, 74, 80
10, 125024, Note_on_c, 12, 74, 0
10, 125040, Note_on_c, 12, 72, 80
10, 125099, Note_on_c, 12, 72, 0
10, 125100, Note_on_c, 12, 71, 80
10, 125264, Note_on_c, 12, 71, 0
10, 125280, Note_on_c, 12, 72, 80
10, 125331, Note_on_c, 12, 72, 0
10, 125340, Note_on_c, 12, 72, 80
10, 125391, Note_on_c, 12, 72, 0
10, 125400, Note_on_c, 12, 72, 80
10, 125451, Note_on_c, 12, 72, 0
10, 125460, Note_on_c, 12, 72, 80
10, 125511, Note_on_c, 12, 72, 0
10, 125520, Note_on_c, 12, 72, 80
10, 125571, Note_on_c, 12, 72, 0
10, 125580, Note_on_c, 12, 72, 80
10, 125631, Note_on_c, 12, 72, 0
10, 125640, Note_on_c, 12, 72, 80
10, 125691, Note_on_c, 12, 72, 0
10, 125700, Note_on_c, 12, 72, 80
10, 125751, Note_on_c, 12, 72, 0
10, 125760, Note_on_c, 12, 72, 80
10, 125811, Note_on_c, 12, 72, 0
10, 125820, Note_on_c, 12, 72, 80
10, 125871, Note_on_c, 12, 72, 0
10, 125880, Note_on_c, 12, 72, 80
10, 125931, Note_on_c, 12, 72, 0
10, 125940, Note_on_c, 12, 72, 80
10, 125991, Note_on_c, 12, 72, 0
10, 126000, Note_on_c, 12, 65, 80
10, 126029, Note_on_c, 12, 65, 0
10, 126030, Note_on_c, 12, 67, 80
10, 126059, Note_on_c, 12, 67, 0
10, 126060, Note_on_c, 12, 69, 80
10, 126224, Note_on_c, 12, 69, 0
10, 126240, Note_on_c, 12, 60, 80
10, 126269, Note_on_c, 12, 60, 0
10, 126270, Note_on_c, 12, 62, 80
10, 126299, Note_on_c, 12, 62, 0
10, 126300, Note_on_c, 12, 64, 80
10, 126464, Note_on_c, 12, 64, 0
10, 126480, Note_on_c, 12, 62, 80
10, 126509, Note_on_c, 12, 62, 0
10, 126510, Note_on_c, 12, 64, 80
10, 126539, Note_on_c, 12, 64, 0
10, 126540, Note_on_c, 12, 65, 80
10, 126704, Note_on_c, 12, 65, 0
10, 126720, Note_on_c, 12, 64, 80
10, 126771, Note_on_c, 12, 64, 0
10, 126780, Note_on_c, 12, 76, 80
10, 126831, Note_on_c, 12, 76, 0
10, 126840, Note_on_c, 12, 76, 80
10, 126891, Note_on_c, 12, 76, 0
10, 126900, Note_on_c, 12, 76, 80
10, 126951, Note_on_c, 12, 76, 0
10, 126960, Note_on_c, 12, 76, 80
10, 127011, Note_on_c, 12, 76, 0
10, 127020, Note_on_c, 12, 76, 80
10, 127071, Note_on_c, 12, 76, 0
10, 127080, Note_on_c, 12, 76, 80
10, 127131, Note_on_c, 12, 76, 0
10, 127140, Note_on_c, 12, 76, 80
10, 127191, Note_on_c, 12, 76, 0
10, 127200, Note_on_c, 12, 76, 80
10, 127251, Note_on_c, 12, 76, 0
10, 127260, Note_on_c, 12, 76, 80
10, 127311, Note_on_c, 12, 76, 0
10, 127320, Note_on_c, 12, 76, 80
10, 127371, Note_on_c, 12, 76, 0
10, 127380, Note_on_c, 12, 76, 80
10, 127431, Note_on_c, 12, 76, 0
10, 127440, Note_on_c, 12, 76, 80
10, 127664, Note_on_c, 12, 76, 0
10, 127680, Note_on_c, 12, 79, 44
10, 127739, Note_on_c, 12, 79, 0
10, 127740, Note_on_c, 12, 77, 44
10, 127784, Note_on_c, 12, 77, 0
10, 127800, Note_on_c, 12, 76, 44
10, 127851, Note_on_c, 12, 76, 0
10, 127860, Note_on_c, 12, 74, 44
10, 127911, Note_on_c, 12, 74, 0
10, 127920, Note_on_c, 12, 72, 44
10, 127979, Note_on_c, 12, 72, 0
10, 127980, Note_on_c, 12, 70, 44
10, 128024, Note_on_c, 12, 70, 0
10, 128040, Note_on_c, 12, 69, 44
10, 128091, Note_on_c, 12, 69, 0
10, 128100, Note_on_c, 12, 67, 44
10, 128151, Note_on_c, 12, 67, 0
10, 128160, Note_on_c, 12, 72, 80
10, 128211, Note_on_c, 12, 72, 0
10, 128220, Note_on_c, 12, 77, 80
10, 128220, Note_on_c, 12, 69, 80
10, 128271, Note_on_c, 12, 69, 0
10, 128271, Note_on_c, 12, 77, 0
10, 128280, Note_on_c, 12, 77, 80
10, 128280, Note_on_c, 12, 69, 80
10, 128331, Note_on_c, 12, 69, 0
10, 128331, Note_on_c, 12, 77, 0
10, 128340, Note_on_c, 12, 69, 80
10, 128340, Note_on_c, 12, 77, 80
10, 128391, Note_on_c, 12, 77, 0
10, 128391, Note_on_c, 12, 69, 0
10, 128400, Note_on_c, 12, 69, 80
10, 128400, Note_on_c, 12, 77, 80
10, 128451, Note_on_c, 12, 77, 0
10, 128451, Note_on_c, 12, 69, 0
10, 128460, Note_on_c, 12, 69, 80
10, 128460, Note_on_c, 12, 77, 80
10, 128511, Note_on_c, 12, 77, 0
10, 128511, Note_on_c, 12, 69, 0
10, 128520, Note_on_c, 12, 69, 80
10, 128520, Note_on_c, 12, 77, 80
10, 128571, Note_on_c, 12, 77, 0
10, 128571, Note_on_c, 12, 69, 0
10, 128580, Note_on_c, 12, 77, 80
10, 128580, Note_on_c, 12, 69, 80
10, 128631, Note_on_c, 12, 69, 0
10, 128631, Note_on_c, 12, 77, 0
10, 128640, Note_on_c, 12, 69, 80
10, 128640, Note_on_c, 12, 77, 80
10, 128691, Note_on_c, 12, 77, 0
10, 128691, Note_on_c, 12, 69, 0
10, 128700, Note_on_c, 12, 77, 80
10, 128700, Note_on_c, 12, 69, 80
10, 128751, Note_on_c, 12, 69, 0
10, 128751, Note_on_c, 12, 77, 0
10, 128760, Note_on_c, 12, 69, 80
10, 128760, Note_on_c, 12, 77, 80
10, 128811, Note_on_c, 12, 77, 0
10, 128811, Note_on_c, 12, 69, 0
10, 128820, Note_on_c, 12, 69, 80
10, 128820, Note_on_c, 12, 77, 80
10, 128871, Note_on_c, 12, 77, 0
10, 128871, Note_on_c, 12, 69, 0
10, 128880, Note_on_c, 12, 69, 80
10, 128880, Note_on_c, 12, 77, 80
10, 129104, Note_on_c, 12, 77, 0
10, 129104, Note_on_c, 12, 69, 0
10, 129120, Note_on_c, 12, 74, 44
10, 129179, Note_on_c, 12, 74, 0
10, 129180, Note_on_c, 12, 72, 44
10, 129224, Note_on_c, 12, 72, 0
10, 129240, Note_on_c, 12, 70, 44
10, 129291, Note_on_c, 12, 70, 0
10, 129300, Note_on_c, 12, 69, 44
10, 129351, Note_on_c, 12, 69, 0
10, 129360, Note_on_c, 12, 74, 44
10, 129419, Note_on_c, 12, 74, 0
10, 129420, Note_on_c, 12, 72, 44
10, 129464, Note_on_c, 12, 72, 0
10, 129480, Note_on_c, 12, 70, 44
10, 129531, Note_on_c, 12, 70, 0
10, 129540, Note_on_c, 12, 69, 44
10, 129591, Note_on_c, 12, 69, 0
10, 129600, Note_on_c, 12, 67, 80
10, 129651, Note_on_c, 12, 67, 0
10, 129660, Note_on_c, 12, 73, 80
10, 129660, Note_on_c, 12, 76, 80
10, 129711, Note_on_c, 12, 76, 0
10, 129711, Note_on_c, 12, 73, 0
10, 129720, Note_on_c, 12, 76, 80
10, 129720, Note_on_c, 12, 73, 80
10, 129771, Note_on_c, 12, 73, 0
10, 129771, Note_on_c, 12, 76, 0
10, 129780, Note_on_c, 12, 76, 80
10, 129780, Note_on_c, 12, 73, 80
10, 129831, Note_on_c, 12, 73, 0
10, 129831, Note_on_c, 12, 76, 0
10, 129840, Note_on_c, 12, 73, 80
10, 129840, Note_on_c, 12, 76, 80
10, 129891, Note_on_c, 12, 76, 0
10, 129891, Note_on_c, 12, 73, 0
10, 129900, Note_on_c, 12, 73, 80
10, 129900, Note_on_c, 12, 76, 80
10, 129951, Note_on_c, 12, 76, 0
10, 129951, Note_on_c, 12, 73, 0
10, 129960, Note_on_c, 12, 73, 80
10, 129960, Note_on_c, 12, 76, 80
10, 130011, Note_on_c, 12, 76, 0
10, 130011, Note_on_c, 12, 73, 0
10, 130020, Note_on_c, 12, 73, 80
10, 130020, Note_on_c, 12, 76, 80
10, 130071, Note_on_c, 12, 76, 0
10, 130071, Note_on_c, 12, 73, 0
10, 130080, Note_on_c, 12, 73, 80
10, 130080, Note_on_c, 12, 76, 80
10, 130131, Note_on_c, 12, 76, 0
10, 130131, Note_on_c, 12, 73, 0
10, 130140, Note_on_c, 12, 73, 80
10, 130140, Note_on_c, 12, 76, 80
10, 130191, Note_on_c, 12, 76, 0
10, 130191, Note_on_c, 12, 73, 0
10, 130200, Note_on_c, 12, 73, 80
10, 130200, Note_on_c, 12, 76, 80
10, 130251, Note_on_c, 12, 76, 0
10, 130251, Note_on_c, 12, 73, 0
10, 130260, Note_on_c, 12, 73, 80
10, 130260, Note_on_c, 12, 76, 80
10, 130311, Note_on_c, 12, 76, 0
10, 130311, Note_on_c, 12, 73, 0
10, 130320, Note_on_c, 12, 73, 80
10, 130320, Note_on_c, 12, 76, 80
10, 130544, Note_on_c, 12, 76, 0
10, 130544, Note_on_c, 12, 73, 0
10, 130560, Note_on_c, 12, 69, 44
10, 130619, Note_on_c, 12, 69, 0
10, 130620, Note_on_c, 12, 67, 44
10, 130664, Note_on_c, 12, 67, 0
10, 130680, Note_on_c, 12, 65, 44
10, 130731, Note_on_c, 12, 65, 0
10, 130740, Note_on_c, 12, 64, 44
10, 130791, Note_on_c, 12, 64, 0
10, 130800, Note_on_c, 12, 69, 44
10, 130859, Note_on_c, 12, 69, 0
10, 130860, Note_on_c, 12, 67, 44
10, 130904, Note_on_c, 12, 67, 0
10, 130920, Note_on_c, 12, 65, 44
10, 130971, Note_on_c, 12, 65, 0
10, 130980, Note_on_c, 12, 64, 44
10, 131031, Note_on_c, 12, 64, 0
10, 131040, Note_on_c, 12, 65, 80
10, 131091, Note_on_c, 12, 65, 0
10, 131100, Note_on_c, 12, 74, 80
10, 131151, Note_on_c, 12, 74, 0
10, 131160, Note_on_c, 12, 74, 80
10, 131211, Note_on_c, 12, 74, 0
10, 131220, Note_on_c, 12, 74, 80
10, 131271, Note_on_c, 12, 74, 0
10, 131280, Note_on_c, 12, 74, 80
10, 131331, Note_on_c, 12, 74, 0
10, 131340, Note_on_c, 12, 74, 80
10, 131391, Note_on_c, 12, 74, 0
10, 131400, Note_on_c, 12, 74, 80
10, 131451, Note_on_c, 12, 74, 0
10, 131460, Note_on_c, 12, 74, 80
10, 131511, Note_on_c, 12, 74, 0
10, 131520, Note_on_c, 12, 74, 80
10, 131571, Note_on_c, 12, 74, 0
10, 131580, Note_on_c, 12, 74, 80
10, 131631, Note_on_c, 12, 74, 0
10, 131640, Note_on_c, 12, 74, 80
10, 131691, Note_on_c, 12, 74, 0
10, 131700, Note_on_c, 12, 74, 80
10, 131751, Note_on_c, 12, 74, 0
10, 131760, Note_on_c, 12, 74, 80
10, 131984, Note_on_c, 12, 74, 0
10, 132000, Note_on_c, 12, 70, 44
10, 132059, Note_on_c, 12, 70, 0
10, 132060, Note_on_c, 12, 69, 44
10, 132104, Note_on_c, 12, 69, 0
10, 132120, Note_on_c, 12, 67, 44
10, 132171, Note_on_c, 12, 67, 0
10, 132180, Note_on_c, 12, 65, 44
10, 132231, Note_on_c, 12, 65, 0
10, 132240, Note_on_c, 12, 70, 44
10, 132299, Note_on_c, 12, 70, 0
10, 132300, Note_on_c, 12, 69, 44
10, 132344, Note_on_c, 12, 69, 0
10, 132360, Note_on_c, 12, 67, 44
10, 132411, Note_on_c, 12, 67, 0
10, 132420, Note_on_c, 12, 65, 44
10, 132471, Note_on_c, 12, 65, 0
10, 132480, Note_on_c, 12, 74, 80
10, 132531, Note_on_c, 12, 74, 0
10, 132540, Note_on_c, 12, 81, 80
10, 132591, Note_on_c, 12, 81, 0
10, 132600, Note_on_c, 12, 81, 80
10, 132651, Note_on_c, 12, 81, 0
10, 132660, Note_on_c, 12, 81, 80
10, 132711, Note_on_c, 12, 81, 0
10, 132720, Note_on_c, 12, 81, 80
10, 132771, Note_on_c, 12, 81, 0
10, 132780, Note_on_c, 12, 81, 80
10, 132831, Note_on_c, 12, 81, 0
10, 132840, Note_on_c, 12, 81, 80
10, 132891, Note_on_c, 12, 81, 0
10, 132900, Note_on_c, 12, 81, 80
10, 132951, Note_on_c, 12, 81, 0
10, 132960, Note_on_c, 12, 81, 80
10, 133011, Note_on_c, 12, 81, 0
10, 133020, Note_on_c, 12, 81, 80
10, 133071, Note_on_c, 12, 81, 0
10, 133080, Note_on_c, 12, 81, 80
10, 133131, Note_on_c, 12, 81, 0
10, 133140, Note_on_c, 12, 81, 80
10, 133191, Note_on_c, 12, 81, 0
10, 133200, Note_on_c, 12, 81, 80
10, 133251, Note_on_c, 12, 81, 0
10, 133260, Note_on_c, 12, 79, 80
10, 133311, Note_on_c, 12, 79, 0
10, 133320, Note_on_c, 12, 78, 80
10, 133371, Note_on_c, 12, 78, 0
10, 133380, Note_on_c, 12, 79, 80
10, 133431, Note_on_c, 12, 79, 0
10, 133440, Note_on_c, 12, 78, 80
10, 133491, Note_on_c, 12, 78, 0
10, 133500, Note_on_c, 12, 76, 80
10, 133551, Note_on_c, 12, 76, 0
10, 133560, Note_on_c, 12, 74, 80
10, 133611, Note_on_c, 12, 74, 0
10, 133620, Note_on_c, 12, 76, 80
10, 133671, Note_on_c, 12, 76, 0
10, 133680, Note_on_c, 12, 74, 80
10, 133731, Note_on_c, 12, 74, 0
10, 133740, Note_on_c, 12, 72, 80
10, 133791, Note_on_c, 12, 72, 0
10, 133800, Note_on_c, 12, 71, 80
10, 133851, Note_on_c, 12, 71, 0
10, 133860, Note_on_c, 12, 69, 80
10, 133911, Note_on_c, 12, 69, 0
10, 133920, Note_on_c, 12, 67, 80
10, 133971, Note_on_c, 12, 67, 0
10, 133980, Note_on_c, 12, 74, 80
10, 134031, Note_on_c, 12, 74, 0
10, 134040, Note_on_c, 12, 74, 80
10, 134091, Note_on_c, 12, 74, 0
10, 134100, Note_on_c, 12, 74, 80
10, 134151, Note_on_c, 12, 74, 0
10, 134160, Note_on_c, 12, 74, 80
10, 134211, Note_on_c, 12, 74, 0
10, 134220, Note_on_c, 12, 74, 80
10, 134271, Note_on_c, 12, 74, 0
10, 134280, Note_on_c, 12, 74, 80
10, 134331, Note_on_c, 12, 74, 0
10, 134340, Note_on_c, 12, 74, 80
10, 134391, Note_on_c, 12, 74, 0
10, 134400, Note_on_c, 12, 74, 80
10, 134451, Note_on_c, 12, 74, 0
10, 134460, Note_on_c, 12, 74, 80
10, 134511, Note_on_c, 12, 74, 0
10, 134520, Note_on_c, 12, 74, 80
10, 134571, Note_on_c, 12, 74, 0
10, 134580, Note_on_c, 12, 74, 80
10, 134631, Note_on_c, 12, 74, 0
10, 134640, Note_on_c, 12, 74, 80
10, 134691, Note_on_c, 12, 74, 0
10, 134700, Note_on_c, 12, 72, 80
10, 134751, Note_on_c, 12, 72, 0
10, 134760, Note_on_c, 12, 71, 80
10, 134811, Note_on_c, 12, 71, 0
10, 134820, Note_on_c, 12, 72, 80
10, 134871, Note_on_c, 12, 72, 0
10, 134880, Note_on_c, 12, 71, 80
10, 134931, Note_on_c, 12, 71, 0
10, 134940, Note_on_c, 12, 69, 80
10, 134991, Note_on_c, 12, 69, 0
10, 135000, Note_on_c, 12, 67, 80
10, 135051, Note_on_c, 12, 67, 0
10, 135060, Note_on_c, 12, 69, 80
10, 135111, Note_on_c, 12, 69, 0
10, 135120, Note_on_c, 12, 67, 80
10, 135171, Note_on_c, 12, 67, 0
10, 135180, Note_on_c, 12, 65, 80
10, 135231, Note_on_c, 12, 65, 0
10, 135240, Note_on_c, 12, 64, 80
10, 135291, Note_on_c, 12, 64, 0
10, 135300, Note_on_c, 12, 62, 80
10, 135351, Note_on_c, 12, 62, 0
10, 135360, Note_on_c, 12, 60, 80
10, 135411, Note_on_c, 12, 60, 0
10, 135420, Note_on_c, 12, 72, 80
10, 135471, Note_on_c, 12, 72, 0
10, 135480, Note_on_c, 12, 71, 80
10, 135531, Note_on_c, 12, 71, 0
10, 135540, Note_on_c, 12, 72, 80
10, 135591, Note_on_c, 12, 72, 0
10, 135600, Note_on_c, 12, 74, 80
10, 135659, Note_on_c, 12, 74, 0
10, 135660, Note_on_c, 12, 72, 80
10, 135711, Note_on_c, 12, 72, 0
10, 135720, Note_on_c, 12, 71, 80
10, 135764, Note_on_c, 12, 71, 0
10, 135780, Note_on_c, 12, 72, 80
10, 135824, Note_on_c, 12, 72, 0
10, 135840, Note_on_c, 12, 74, 80
10, 135899, Note_on_c, 12, 74, 0
10, 135900, Note_on_c, 12, 72, 80
10, 135951, Note_on_c, 12, 72, 0
10, 135960, Note_on_c, 12, 71, 80
10, 136004, Note_on_c, 12, 71, 0
10, 136020, Note_on_c, 12, 72, 80
10, 136064, Note_on_c, 12, 72, 0
10, 136080, Note_on_c, 12, 60, 80
10, 136131, Note_on_c, 12, 60, 0
10, 136140, Note_on_c, 12, 72, 80
10, 136191, Note_on_c, 12, 72, 0
10, 136200, Note_on_c, 12, 71, 80
10, 136251, Note_on_c, 12, 71, 0
10, 136260, Note_on_c, 12, 72, 80
10, 136311, Note_on_c, 12, 72, 0
10, 136320, Note_on_c, 12, 74, 80
10, 136379, Note_on_c, 12, 74, 0
10, 136380, Note_on_c, 12, 72, 80
10, 136431, Note_on_c, 12, 72, 0
10, 136440, Note_on_c, 12, 71, 80
10, 136484, Note_on_c, 12, 71, 0
10, 136500, Note_on_c, 12, 72, 80
10, 136544, Note_on_c, 12, 72, 0
10, 136560, Note_on_c, 12, 74, 80
10, 136619, Note_on_c, 12, 74, 0
10, 136620, Note_on_c, 12, 72, 80
10, 136671, Note_on_c, 12, 72, 0
10, 136680, Note_on_c, 12, 71, 80
10, 136724, Note_on_c, 12, 71, 0
10, 136740, Note_on_c, 12, 72, 80
10, 136784, Note_on_c, 12, 72, 0
10, 136800, Note_on_c, 12, 60, 80
10, 136851, Note_on_c, 12, 60, 0
10, 136860, Note_on_c, 12, 72, 80
10, 136911, Note_on_c, 12, 72, 0
10, 136920, Note_on_c, 12, 71, 80
10, 136971, Note_on_c, 12, 71, 0
10, 136980, Note_on_c, 12, 72, 80
10, 137031, Note_on_c, 12, 72, 0
10, 137040, Note_on_c, 12, 74, 80
10, 137099, Note_on_c, 12, 74, 0
10, 137100, Note_on_c, 12, 72, 80
10, 137151, Note_on_c, 12, 72, 0
10, 137160, Note_on_c, 12, 71, 80
10, 137204, Note_on_c, 12, 71, 0
10, 137220, Note_on_c, 12, 72, 80
10, 137264, Note_on_c, 12, 72, 0
10, 137280, Note_on_c, 12, 74, 80
10, 137339, Note_on_c, 12, 74, 0
10, 137340, Note_on_c, 12, 72, 80
10, 137391, Note_on_c, 12, 72, 0
10, 137400, Note_on_c, 12, 71, 80
10, 137444, Note_on_c, 12, 71, 0
10, 137460, Note_on_c, 12, 72, 80
10, 137504, Note_on_c, 12, 72, 0
10, 137520, Note_on_c, 12, 72, 80
10, 137609, Note_on_c, 12, 72, 0
10, 137640, Note_on_c, 12, 71, 80
10, 137729, Note_on_c, 12, 71, 0
10, 137760, Note_on_c, 12, 69, 80
10, 137849, Note_on_c, 12, 69, 0
10, 137880, Note_on_c, 12, 67, 80
10, 137969, Note_on_c, 12, 67, 0
10, 138000, Note_on_c, 12, 65, 80
10, 138089, Note_on_c, 12, 65, 0
10, 138120, Note_on_c, 12, 64, 80
10, 138209, Note_on_c, 12, 64, 0
10, 138240, Note_on_c, 12, 71, 80
10, 138240, Note_on_c, 12, 62, 80
10, 138464, Note_on_c, 12, 62, 0
10, 138464, Note_on_c, 12, 71, 0
10, 138480, Note_on_c, 12, 55, 80
10, 138719, Note_on_c, 12, 55, 0
10, 138960, Note_on_c, 12, 64, 44
10, 139139, Note_on_c, 12, 64, 0
10, 139200, Note_on_c, 12, 64, 44
10, 139379, Note_on_c, 12, 64, 0
10, 139440, Note_on_c, 12, 64, 44
10, 139619, Note_on_c, 12, 64, 0
10, 139680, Note_on_c, 12, 65, 44
10, 140039, Note_on_c, 12, 65, 0
10, 140040, Note_on_c, 12, 67, 44
10, 140144, Note_on_c, 12, 67, 0
10, 140160, Note_on_c, 12, 69, 44
10, 140339, Note_on_c, 12, 69, 0
10, 140400, Note_on_c, 12, 59, 44
10, 140429, Note_on_c, 12, 59, 0
10, 140430, Note_on_c, 12, 60, 44
10, 140459, Note_on_c, 12, 60, 0
10, 140460, Note_on_c, 12, 62, 44
10, 140639, Note_on_c, 12, 62, 0
10, 141120, Note_on_c, 12, 60, 44
10, 141149, Note_on_c, 12, 60, 0
10, 141150, Note_on_c, 12, 62, 44
10, 141179, Note_on_c, 12, 62, 0
10, 141180, Note_on_c, 12, 64, 44
10, 141359, Note_on_c, 12, 64, 0
10, 141840, Note_on_c, 12, 64, 44
10, 142019, Note_on_c, 12, 64, 0
10, 142080, Note_on_c, 12, 64, 44
10, 142259, Note_on_c, 12, 64, 0
10, 142320, Note_on_c, 12, 64, 44
10, 142499, Note_on_c, 12, 64, 0
10, 142560, Note_on_c, 12, 65, 44
10, 142739, Note_on_c, 12, 65, 0
10, 142740, Note_on_c, 12, 67, 44
10, 142799, Note_on_c, 12, 67, 0
10, 142800, Note_on_c, 12, 69, 44
10, 142904, Note_on_c, 12, 69, 0
10, 142920, Note_on_c, 12, 67, 44
10, 143009, Note_on_c, 12, 67, 0
10, 143040, Note_on_c, 12, 65, 44
10, 143129, Note_on_c, 12, 65, 0
10, 143160, Note_on_c, 12, 64, 44
10, 143249, Note_on_c, 12, 64, 0
10, 143280, Note_on_c, 12, 64, 44
10, 143339, Note_on_c, 12, 64, 0
10, 143340, Note_on_c, 12, 62, 44
10, 143504, Note_on_c, 12, 62, 0
10, 143520, Note_on_c, 12, 60, 44
10, 143744, Note_on_c, 12, 60, 0
10, 143760, Note_on_c, 12, 59, 44
10, 143984, Note_on_c, 12, 59, 0
10, 144000, Note_on_c, 12, 59, 44
10, 144479, Note_on_c, 12, 59, 0
10, 144480, Note_on_c, 12, 60, 44
10, 144599, Note_on_c, 12, 60, 0
10, 146400, Note_on_c, 12, 62, 44
10, 146459, Note_on_c, 12, 62, 0
10, 146460, Note_on_c, 12, 64, 44
10, 146519, Note_on_c, 12, 64, 0
10, 146520, Note_on_c, 12, 62, 44
10, 146579, Note_on_c, 12, 62, 0
10, 146580, Note_on_c, 12, 64, 44
10, 146639, Note_on_c, 12, 64, 0
10, 146640, Note_on_c, 12, 65, 44
10, 146879, Note_on_c, 12, 65, 0
10, 147120, Note_on_c, 12, 64, 44
10, 147179, Note_on_c, 12, 64, 0
10, 147180, Note_on_c, 12, 65, 44
10, 147239, Note_on_c, 12, 65, 0
10, 147240, Note_on_c, 12, 64, 44
10, 147299, Note_on_c, 12, 64, 0
10, 147300, Note_on_c, 12, 65, 44
10, 147359, Note_on_c, 12, 65, 0
10, 147360, Note_on_c, 12, 67, 44
10, 147599, Note_on_c, 12, 67, 0
10, 149760, Note_on_c, 12, 67, 80
10, 149811, Note_on_c, 12, 67, 0
10, 149820, Note_on_c, 12, 67, 80
10, 149871, Note_on_c, 12, 67, 0
10, 149880, Note_on_c, 12, 66, 80
10, 149931, Note_on_c, 12, 66, 0
10, 149940, Note_on_c, 12, 66, 80
10, 149991, Note_on_c, 12, 66, 0
10, 150000, Note_on_c, 12, 67, 80
10, 150051, Note_on_c, 12, 67, 0
10, 150060, Note_on_c, 12, 67, 80
10, 150111, Note_on_c, 12, 67, 0
10, 150120, Note_on_c, 12, 66, 80
10, 150171, Note_on_c, 12, 66, 0
10, 150180, Note_on_c, 12, 66, 80
10, 150231, Note_on_c, 12, 66, 0
10, 150240, Note_on_c, 12, 67, 80
10, 150291, Note_on_c, 12, 67, 0
10, 150300, Note_on_c, 12, 67, 80
10, 150351, Note_on_c, 12, 67, 0
10, 150360, Note_on_c, 12, 64, 80
10, 150411, Note_on_c, 12, 64, 0
10, 150420, Note_on_c, 12, 64, 80
10, 150471, Note_on_c, 12, 64, 0
10, 150480, Note_on_c, 12, 67, 80
10, 150531, Note_on_c, 12, 67, 0
10, 150540, Note_on_c, 12, 67, 80
10, 150591, Note_on_c, 12, 67, 0
10, 150600, Note_on_c, 12, 66, 80
10, 150651, Note_on_c, 12, 66, 0
10, 150660, Note_on_c, 12, 66, 80
10, 150711, Note_on_c, 12, 66, 0
10, 150720, Note_on_c, 12, 67, 80
10, 150771, Note_on_c, 12, 67, 0
10, 150780, Note_on_c, 12, 67, 80
10, 150831, Note_on_c, 12, 67, 0
10, 150840, Note_on_c, 12, 66, 80
10, 150891, Note_on_c, 12, 66, 0
10, 150900, Note_on_c, 12, 66, 80
10, 150951, Note_on_c, 12, 66, 0
10, 150960, Note_on_c, 12, 67, 80
10, 151011, Note_on_c, 12, 67, 0
10, 151020, Note_on_c, 12, 67, 80
10, 151071, Note_on_c, 12, 67, 0
10, 151080, Note_on_c, 12, 62, 80
10, 151131, Note_on_c, 12, 62, 0
10, 151140, Note_on_c, 12, 62, 80
10, 151191, Note_on_c, 12, 62, 0
10, 151200, Note_on_c, 12, 72, 80
10, 151251, Note_on_c, 12, 72, 0
10, 151260, Note_on_c, 12, 72, 80
10, 151311, Note_on_c, 12, 72, 0
10, 151320, Note_on_c, 12, 71, 80
10, 151371, Note_on_c, 12, 71, 0
10, 151380, Note_on_c, 12, 71, 80
10, 151431, Note_on_c, 12, 71, 0
10, 151440, Note_on_c, 12, 72, 80
10, 151491, Note_on_c, 12, 72, 0
10, 151500, Note_on_c, 12, 72, 80
10, 151551, Note_on_c, 12, 72, 0
10, 151560, Note_on_c, 12, 71, 80
10, 151611, Note_on_c, 12, 71, 0
10, 151620, Note_on_c, 12, 71, 80
10, 151671, Note_on_c, 12, 71, 0
10, 151680, Note_on_c, 12, 72, 80
10, 151731, Note_on_c, 12, 72, 0
10, 151740, Note_on_c, 12, 72, 80
10, 151791, Note_on_c, 12, 72, 0
10, 151800, Note_on_c, 12, 69, 80
10, 151851, Note_on_c, 12, 69, 0
10, 151860, Note_on_c, 12, 69, 80
10, 151911, Note_on_c, 12, 69, 0
10, 151920, Note_on_c, 12, 67, 80
10, 151971, Note_on_c, 12, 67, 0
10, 151980, Note_on_c, 12, 67, 80
10, 152031, Note_on_c, 12, 67, 0
10, 152040, Note_on_c, 12, 65, 80
10, 152091, Note_on_c, 12, 65, 0
10, 152100, Note_on_c, 12, 65, 80
10, 152151, Note_on_c, 12, 65, 0
10, 152160, Note_on_c, 12, 64, 80
10, 152211, Note_on_c, 12, 64, 0
10, 152220, Note_on_c, 12, 64, 80
10, 152271, Note_on_c, 12, 64, 0
10, 152280, Note_on_c, 12, 65, 80
10, 152331, Note_on_c, 12, 65, 0
10, 152340, Note_on_c, 12, 65, 80
10, 152391, Note_on_c, 12, 65, 0
10, 152400, Note_on_c, 12, 67, 80
10, 152451, Note_on_c, 12, 67, 0
10, 152460, Note_on_c, 12, 67, 80
10, 152511, Note_on_c, 12, 67, 0
10, 152520, Note_on_c, 12, 72, 80
10, 152571, Note_on_c, 12, 72, 0
10, 152580, Note_on_c, 12, 72, 80
10, 152631, Note_on_c, 12, 72, 0
10, 152640, Note_on_c, 12, 72, 80
10, 152691, Note_on_c, 12, 72, 0
10, 152700, Note_on_c, 12, 72, 80
10, 152751, Note_on_c, 12, 72, 0
10, 152760, Note_on_c, 12, 72, 80
10, 152811, Note_on_c, 12, 72, 0
10, 152820, Note_on_c, 12, 72, 80
10, 152871, Note_on_c, 12, 72, 0
10, 152880, Note_on_c, 12, 71, 80
10, 152931, Note_on_c, 12, 71, 0
10, 152940, Note_on_c, 12, 71, 80
10, 152991, Note_on_c, 12, 71, 0
10, 153000, Note_on_c, 12, 71, 80
10, 153051, Note_on_c, 12, 71, 0
10, 153060, Note_on_c, 12, 71, 80
10, 153111, Note_on_c, 12, 71, 0
10, 153120, Note_on_c, 12, 69, 80
10, 153171, Note_on_c, 12, 69, 0
10, 153180, Note_on_c, 12, 69, 80
10, 153231, Note_on_c, 12, 69, 0
10, 153240, Note_on_c, 12, 69, 80
10, 153291, Note_on_c, 12, 69, 0
10, 153300, Note_on_c, 12, 69, 80
10, 153351, Note_on_c, 12, 69, 0
10, 153360, Note_on_c, 12, 67, 80
10, 153584, Note_on_c, 12, 67, 0
10, 153600, Note_on_c, 12, 76, 80
10, 153659, Note_on_c, 12, 76, 0
10, 153660, Note_on_c, 12, 74, 80
10, 153704, Note_on_c, 12, 74, 0
10, 153720, Note_on_c, 12, 72, 80
10, 153771, Note_on_c, 12, 72, 0
10, 153780, Note_on_c, 12, 71, 80
10, 153831, Note_on_c, 12, 71, 0
10, 153840, Note_on_c, 12, 72, 80
10, 153891, Note_on_c, 12, 72, 0
10, 153900, Note_on_c, 12, 76, 80
10, 153951, Note_on_c, 12, 76, 0
10, 153960, Note_on_c, 12, 79, 80
10, 154011, Note_on_c, 12, 79, 0
10, 154020, Note_on_c, 12, 76, 80
10, 154071, Note_on_c, 12, 76, 0
10, 154080, Note_on_c, 12, 81, 80
10, 154259, Note_on_c, 12, 81, 0
10, 154260, Note_on_c, 12, 77, 80
10, 154311, Note_on_c, 12, 77, 0
10, 154320, Note_on_c, 12, 76, 80
10, 154559, Note_on_c, 12, 76, 0
10, 154560, Note_on_c, 12, 77, 80
10, 154784, Note_on_c, 12, 77, 0
10, 154800, Note_on_c, 12, 76, 80
10, 154979, Note_on_c, 12, 76, 0
10, 155040, Note_on_c, 12, 73, 80
10, 155040, Note_on_c, 12, 76, 80
10, 155219, Note_on_c, 12, 76, 0
10, 155219, Note_on_c, 12, 73, 0
10, 155280, Note_on_c, 12, 74, 80
10, 155280, Note_on_c, 12, 62, 80
10, 155459, Note_on_c, 12, 62, 0
10, 155459, Note_on_c, 12, 74, 0
10, 155520, Note_on_c, 12, 76, 80
10, 155520, Note_on_c, 12, 69, 80
10, 155699, Note_on_c, 12, 69, 0
10, 155699, Note_on_c, 12, 76, 0
10, 155760, Note_on_c, 12, 62, 80
10, 155760, Note_on_c, 12, 74, 80
10, 155939, Note_on_c, 12, 74, 0
10, 155939, Note_on_c, 12, 62, 0
10, 156480, Note_on_c, 12, 57, 44
10, 156719, Note_on_c, 12, 57, 0
10, 156720, Note_on_c, 12, 56, 44
10, 156944, Note_on_c, 12, 56, 0
10, 156960, Note_on_c, 12, 55, 44
10, 157139, Note_on_c, 12, 55, 0
10, 157200, Note_on_c, 12, 59, 44
10, 157439, Note_on_c, 12, 59, 0
10, 157440, Note_on_c, 12, 60, 44
10, 157664, Note_on_c, 12, 60, 0
10, 157680, Note_on_c, 12, 60, 44
10, 157859, Note_on_c, 12, 60, 0
10, 157860, Note_on_c, 12, 65, 44
10, 157911, Note_on_c, 12, 65, 0
10, 157920, Note_on_c, 12, 64, 44
10, 158159, Note_on_c, 12, 64, 0
10, 158160, Note_on_c, 12, 62, 44
10, 158384, Note_on_c, 12, 62, 0
10, 158400, Note_on_c, 12, 64, 80
10, 158451, Note_on_c, 12, 64, 0
10, 158460, Note_on_c, 12, 60, 80
10, 158511, Note_on_c, 12, 60, 0
10, 158520, Note_on_c, 12, 64, 80
10, 158571, Note_on_c, 12, 64, 0
10, 158580, Note_on_c, 12, 67, 80
10, 158631, Note_on_c, 12, 67, 0
10, 158640, Note_on_c, 12, 64, 80
10, 158691, Note_on_c, 12, 64, 0
10, 158700, Note_on_c, 12, 67, 80
10, 158751, Note_on_c, 12, 67, 0
10, 158760, Note_on_c, 12, 72, 80
10, 158811, Note_on_c, 12, 72, 0
10, 158820, Note_on_c, 12, 76, 80
10, 158871, Note_on_c, 12, 76, 0
10, 158880, Note_on_c, 12, 76, 80
10, 158939, Note_on_c, 12, 76, 0
10, 158940, Note_on_c, 12, 74, 80
10, 158984, Note_on_c, 12, 74, 0
10, 159000, Note_on_c, 12, 72, 80
10, 159051, Note_on_c, 12, 72, 0
10, 159060, Note_on_c, 12, 71, 80
10, 159111, Note_on_c, 12, 71, 0
10, 159120, Note_on_c, 12, 72, 80
10, 159171, Note_on_c, 12, 72, 0
10, 159180, Note_on_c, 12, 67, 80
10, 159231, Note_on_c, 12, 67, 0
10, 159240, Note_on_c, 12, 64, 80
10, 159291, Note_on_c, 12, 64, 0
10, 159300, Note_on_c, 12, 60, 80
10, 159351, Note_on_c, 12, 60, 0
10, 159360, Note_on_c, 12, 67, 80
10, 159411, Note_on_c, 12, 67, 0
10, 159420, Note_on_c, 12, 64, 80
10, 159471, Note_on_c, 12, 64, 0
10, 159480, Note_on_c, 12, 60, 80
10, 159531, Note_on_c, 12, 60, 0
10, 159540, Note_on_c, 12, 55, 80
10, 159591, Note_on_c, 12, 55, 0
10, 159600, Note_on_c, 12, 67, 80
10, 159659, Note_on_c, 12, 67, 0
10, 159660, Note_on_c, 12, 65, 80
10, 159704, Note_on_c, 12, 65, 0
10, 159720, Note_on_c, 12, 64, 80
10, 159771, Note_on_c, 12, 64, 0
10, 159780, Note_on_c, 12, 62, 80
10, 159831, Note_on_c, 12, 62, 0
10, 159840, Note_on_c, 12, 64, 80
10, 159891, Note_on_c, 12, 64, 0
10, 159900, Note_on_c, 12, 60, 80
10, 159951, Note_on_c, 12, 60, 0
10, 159960, Note_on_c, 12, 64, 80
10, 160011, Note_on_c, 12, 64, 0
10, 160020, Note_on_c, 12, 67, 80
10, 160071, Note_on_c, 12, 67, 0
10, 160080, Note_on_c, 12, 64, 80
10, 160131, Note_on_c, 12, 64, 0
10, 160140, Note_on_c, 12, 67, 80
10, 160191, Note_on_c, 12, 67, 0
10, 160200, Note_on_c, 12, 72, 80
10, 160251, Note_on_c, 12, 72, 0
10, 160260, Note_on_c, 12, 76, 80
10, 160311, Note_on_c, 12, 76, 0
10, 160320, Note_on_c, 12, 76, 80
10, 160379, Note_on_c, 12, 76, 0
10, 160380, Note_on_c, 12, 74, 80
10, 160424, Note_on_c, 12, 74, 0
10, 160440, Note_on_c, 12, 72, 80
10, 160491, Note_on_c, 12, 72, 0
10, 160500, Note_on_c, 12, 71, 80
10, 160551, Note_on_c, 12, 71, 0
10, 160560, Note_on_c, 12, 72, 80
10, 160611, Note_on_c, 12, 72, 0
10, 160620, Note_on_c, 12, 67, 80
10, 160671, Note_on_c, 12, 67, 0
10, 160680, Note_on_c, 12, 64, 80
10, 160731, Note_on_c, 12, 64, 0
10, 160740, Note_on_c, 12, 60, 80
10, 160791, Note_on_c, 12, 60, 0
10, 160800, Note_on_c, 12, 67, 80
10, 160851, Note_on_c, 12, 67, 0
10, 160860, Note_on_c, 12, 64, 80
10, 160911, Note_on_c, 12, 64, 0
10, 160920, Note_on_c, 12, 60, 80
10, 160971, Note_on_c, 12, 60, 0
10, 160980, Note_on_c, 12, 55, 80
10, 161031, Note_on_c, 12, 55, 0
10, 161040, Note_on_c, 12, 67, 80
10, 161099, Note_on_c, 12, 67, 0
10, 161100, Note_on_c, 12, 65, 80
10, 161144, Note_on_c, 12, 65, 0
10, 161160, Note_on_c, 12, 64, 80
10, 161211, Note_on_c, 12, 64, 0
10, 161220, Note_on_c, 12, 62, 80
10, 161271, Note_on_c, 12, 62, 0
10, 161280, Note_on_c, 12, 64, 80
10, 161331, Note_on_c, 12, 64, 0
10, 161340, Note_on_c, 12, 67, 80
10, 161391, Note_on_c, 12, 67, 0
10, 161400, Note_on_c, 12, 67, 80
10, 161451, Note_on_c, 12, 67, 0
10, 161460, Note_on_c, 12, 67, 80
10, 161511, Note_on_c, 12, 67, 0
10, 161520, Note_on_c, 12, 60, 80
10, 161571, Note_on_c, 12, 60, 0
10, 161580, Note_on_c, 12, 67, 80
10, 161631, Note_on_c, 12, 67, 0
10, 161640, Note_on_c, 12, 67, 80
10, 161691, Note_on_c, 12, 67, 0
10, 161700, Note_on_c, 12, 67, 80
10, 161751, Note_on_c, 12, 67, 0
10, 161760, Note_on_c, 12, 62, 80
10, 161811, Note_on_c, 12, 62, 0
10, 161820, Note_on_c, 12, 67, 80
10, 161871, Note_on_c, 12, 67, 0
10, 161880, Note_on_c, 12, 67, 80
10, 161931, Note_on_c, 12, 67, 0
10, 161940, Note_on_c, 12, 67, 80
10, 161991, Note_on_c, 12, 67, 0
10, 162000, Note_on_c, 12, 64, 80
10, 162051, Note_on_c, 12, 64, 0
10, 162060, Note_on_c, 12, 67, 80
10, 162111, Note_on_c, 12, 67, 0
10, 162120, Note_on_c, 12, 67, 80
10, 162171, Note_on_c, 12, 67, 0
10, 162180, Note_on_c, 12, 67, 80
10, 162231, Note_on_c, 12, 67, 0
10, 162240, Note_on_c, 12, 60, 80
10, 162291, Note_on_c, 12, 60, 0
10, 162300, Note_on_c, 12, 67, 80
10, 162351, Note_on_c, 12, 67, 0
10, 162360, Note_on_c, 12, 67, 80
10, 162411, Note_on_c, 12, 67, 0
10, 162420, Note_on_c, 12, 67, 80
10, 162471, Note_on_c, 12, 67, 0
10, 162480, Note_on_c, 12, 62, 80
10, 162531, Note_on_c, 12, 62, 0
10, 162540, Note_on_c, 12, 67, 80
10, 162591, Note_on_c, 12, 67, 0
10, 162600, Note_on_c, 12, 67, 80
10, 162651, Note_on_c, 12, 67, 0
10, 162660, Note_on_c, 12, 67, 80
10, 162711, Note_on_c, 12, 67, 0
10, 162720, Note_on_c, 12, 72, 80
10, 162720, Note_on_c, 12, 55, 80
10, 162720, Note_on_c, 12, 64, 80
10, 162944, Note_on_c, 12, 64, 0
10, 162944, Note_on_c, 12, 55, 0
10, 162944, Note_on_c, 12, 72, 0
10, 162960, Note_on_c, 12, 67, 80
10, 163199, Note_on_c, 12, 67, 0
10, 163440, Note_on_c, 12, 64, 80
10, 163664, Note_on_c, 12, 64, 0
10, 163680, Note_on_c, 12, 60, 80
10, 163919, Note_on_c, 12, 60, 0
10, 165600, Note_on_c, 12, 67, 44
10, 165639, Note_on_c, 12, 67, 0
10, 165640, Note_on_c, 12, 69, 44
10, 165679, Note_on_c, 12, 69, 0
10, 165680, Note_on_c, 12, 67, 44
10, 165719, Note_on_c, 12, 67, 0
10, 165720, Note_on_c, 12, 69, 44
10, 165759, Note_on_c, 12, 69, 0
10, 165760, Note_on_c, 12, 65, 44
10, 165799, Note_on_c, 12, 65, 0
10, 165800, Note_on_c, 12, 67, 44
10, 165839, Note_on_c, 12, 67, 0
10, 165840, Note_on_c, 12, 69, 44
10, 165944, Note_on_c, 12, 69, 0
10, 165960, Note_on_c, 12, 67, 44
10, 166049, Note_on_c, 12, 67, 0
10, 166080, Note_on_c, 12, 65, 44
10, 166169, Note_on_c, 12, 65, 0
10, 166200, Note_on_c, 12, 64, 44
10, 166289, Note_on_c, 12, 64, 0
10, 166320, Note_on_c, 12, 65, 44
10, 166359, Note_on_c, 12, 65, 0
10, 166360, Note_on_c, 12, 67, 44
10, 166399, Note_on_c, 12, 67, 0
10, 166400, Note_on_c, 12, 65, 44
10, 166439, Note_on_c, 12, 65, 0
10, 166440, Note_on_c, 12, 67, 44
10, 166479, Note_on_c, 12, 67, 0
10, 166480, Note_on_c, 12, 64, 44
10, 166519, Note_on_c, 12, 64, 0
10, 166520, Note_on_c, 12, 65, 44
10, 166559, Note_on_c, 12, 65, 0
10, 166560, Note_on_c, 12, 67, 44
10, 166664, Note_on_c, 12, 67, 0
10, 166680, Note_on_c, 12, 65, 44
10, 166769, Note_on_c, 12, 65, 0
10, 166800, Note_on_c, 12, 64, 44
10, 166889, Note_on_c, 12, 64, 0
10, 166920, Note_on_c, 12, 62, 44
10, 167009, Note_on_c, 12, 62, 0
10, 167040, Note_on_c, 12, 64, 80
10, 167091, Note_on_c, 12, 64, 0
10, 167100, Note_on_c, 12, 76, 80
10, 167151, Note_on_c, 12, 76, 0
10, 167160, Note_on_c, 12, 76, 80
10, 167211, Note_on_c, 12, 76, 0
10, 167220, Note_on_c, 12, 76, 80
10, 167271, Note_on_c, 12, 76, 0
10, 167280, Note_on_c, 12, 76, 80
10, 167331, Note_on_c, 12, 76, 0
10, 167340, Note_on_c, 12, 76, 80
10, 167391, Note_on_c, 12, 76, 0
10, 167400, Note_on_c, 12, 76, 80
10, 167451, Note_on_c, 12, 76, 0
10, 167460, Note_on_c, 12, 76, 80
10, 167511, Note_on_c, 12, 76, 0
10, 167520, Note_on_c, 12, 76, 80
10, 167571, Note_on_c, 12, 76, 0
10, 167580, Note_on_c, 12, 76, 80
10, 167631, Note_on_c, 12, 76, 0
10, 167640, Note_on_c, 12, 76, 80
10, 167691, Note_on_c, 12, 76, 0
10, 167700, Note_on_c, 12, 76, 80
10, 167751, Note_on_c, 12, 76, 0
10, 167760, Note_on_c, 12, 74, 80
10, 167879, Note_on_c, 12, 74, 0
10, 168000, Note_on_c, 12, 69, 80
10, 168119, Note_on_c, 12, 69, 0
10, 168240, Note_on_c, 12, 71, 80
10, 168359, Note_on_c, 12, 71, 0
10, 168480, Note_on_c, 12, 76, 80
10, 168531, Note_on_c, 12, 76, 0
10, 168540, Note_on_c, 12, 76, 80
10, 168591, Note_on_c, 12, 76, 0
10, 168600, Note_on_c, 12, 76, 80
10, 168651, Note_on_c, 12, 76, 0
10, 168660, Note_on_c, 12, 76, 80
10, 168711, Note_on_c, 12, 76, 0
10, 168720, Note_on_c, 12, 76, 80
10, 168771, Note_on_c, 12, 76, 0
10, 168780, Note_on_c, 12, 76, 80
10, 168831, Note_on_c, 12, 76, 0
10, 168840, Note_on_c, 12, 76, 80
10, 168891, Note_on_c, 12, 76, 0
10, 168900, Note_on_c, 12, 76, 80
10, 168951, Note_on_c, 12, 76, 0
10, 168960, Note_on_c, 12, 76, 80
10, 169011, Note_on_c, 12, 76, 0
10, 169020, Note_on_c, 12, 76, 80
10, 169071, Note_on_c, 12, 76, 0
10, 169080, Note_on_c, 12, 76, 80
10, 169131, Note_on_c, 12, 76, 0
10, 169140, Note_on_c, 12, 76, 80
10, 169191, Note_on_c, 12, 76, 0
10, 169200, Note_on_c, 12, 74, 80
10, 169319, Note_on_c, 12, 74, 0
10, 169440, Note_on_c, 12, 69, 80
10, 169559, Note_on_c, 12, 69, 0
10, 169680, Note_on_c, 12, 71, 80
10, 169799, Note_on_c, 12, 71, 0
10, 169920, Note_on_c, 12, 72, 80
10, 169971, Note_on_c, 12, 72, 0
10, 169980, Note_on_c, 12, 72, 80
10, 170031, Note_on_c, 12, 72, 0
10, 170040, Note_on_c, 12, 72, 80
10, 170091, Note_on_c, 12, 72, 0
10, 170100, Note_on_c, 12, 72, 80
10, 170151, Note_on_c, 12, 72, 0
10, 170160, Note_on_c, 12, 79, 80
10, 170211, Note_on_c, 12, 79, 0
10, 170220, Note_on_c, 12, 79, 80
10, 170271, Note_on_c, 12, 79, 0
10, 170280, Note_on_c, 12, 79, 80
10, 170331, Note_on_c, 12, 79, 0
10, 170340, Note_on_c, 12, 79, 80
10, 170391, Note_on_c, 12, 79, 0
10, 170400, Note_on_c, 12, 76, 80
10, 170451, Note_on_c, 12, 76, 0
10, 170460, Note_on_c, 12, 76, 80
10, 170511, Note_on_c, 12, 76, 0
10, 170520, Note_on_c, 12, 76, 80
10, 170571, Note_on_c, 12, 76, 0
10, 170580, Note_on_c, 12, 76, 80
10, 170631, Note_on_c, 12, 76, 0
10, 170640, Note_on_c, 12, 72, 80
10, 170691, Note_on_c, 12, 72, 0
10, 170700, Note_on_c, 12, 72, 80
10, 170751, Note_on_c, 12, 72, 0
10, 170760, Note_on_c, 12, 72, 80
10, 170811, Note_on_c, 12, 72, 0
10, 170820, Note_on_c, 12, 72, 80
10, 170871, Note_on_c, 12, 72, 0
10, 170880, Note_on_c, 12, 67, 80
10, 170931, Note_on_c, 12, 67, 0
10, 170940, Note_on_c, 12, 67, 80
10, 170991, Note_on_c, 12, 67, 0
10, 171000, Note_on_c, 12, 67, 80
10, 171051, Note_on_c, 12, 67, 0
10, 171060, Note_on_c, 12, 67, 80
10, 171111, Note_on_c, 12, 67, 0
10, 171120, Note_on_c, 12, 64, 80
10, 171171, Note_on_c, 12, 64, 0
10, 171180, Note_on_c, 12, 64, 80
10, 171231, Note_on_c, 12, 64, 0
10, 171240, Note_on_c, 12, 64, 80
10, 171291, Note_on_c, 12, 64, 0
10, 171300, Note_on_c, 12, 64, 80
10, 171351, Note_on_c, 12, 64, 0
10, 171360, Note_on_c, 12, 60, 80
10, 171411, Note_on_c, 12, 60, 0
10, 171420, Note_on_c, 12, 60, 80
10, 171471, Note_on_c, 12, 60, 0
10, 171480, Note_on_c, 12, 60, 80
10, 171531, Note_on_c, 12, 60, 0
10, 171540, Note_on_c, 12, 60, 80
10, 171591, Note_on_c, 12, 60, 0
10, 171600, Note_on_c, 12, 55, 80
10, 171651, Note_on_c, 12, 55, 0
10, 171660, Note_on_c, 12, 55, 80
10, 171711, Note_on_c, 12, 55, 0
10, 171720, Note_on_c, 12, 55, 80
10, 171771, Note_on_c, 12, 55, 0
10, 171780, Note_on_c, 12, 55, 80
10, 171831, Note_on_c, 12, 55, 0
10, 171840, Note_on_c, 12, 64, 80
10, 171891, Note_on_c, 12, 64, 0
10, 171900, Note_on_c, 12, 64, 80
10, 171951, Note_on_c, 12, 64, 0
10, 171960, Note_on_c, 12, 64, 80
10, 172011, Note_on_c, 12, 64, 0
10, 172020, Note_on_c, 12, 64, 80
10, 172071, Note_on_c, 12, 64, 0
10, 172080, Note_on_c, 12, 60, 80
10, 172319, Note_on_c, 12, 60, 0
10, 172319, End_track
11, 0, Start_track
11, 0, Title_t, "Viola "
11, 0, Program_c, 13, 48
11, 0, Control_c, 13, 7, 96
11, 0, Control_c, 13, 10, 86
11, 0, Control_c, 13, 121, 0
11, 0, Control_c, 13, 11, 127
11, 0, Note_on_c, 13, 72, 80
11, 224, Note_on_c, 13, 72, 0
11, 240, Note_on_c, 13, 67, 80
11, 479, Note_on_c, 13, 67, 0
11, 720, Note_on_c, 13, 64, 80
11, 944, Note_on_c, 13, 64, 0
11, 960, Note_on_c, 13, 60, 80
11, 1199, Note_on_c, 13, 60, 0
11, 4320, Note_on_c, 13, 72, 80
11, 4544, Note_on_c, 13, 72, 0
11, 4560, Note_on_c, 13, 67, 80
11, 4799, Note_on_c, 13, 67, 0
11, 5040, Note_on_c, 13, 64, 80
11, 5264, Note_on_c, 13, 64, 0
11, 5280, Note_on_c, 13, 60, 80
11, 5519, Note_on_c, 13, 60, 0
11, 8640, Note_on_c, 13, 64, 80
11, 8640, Note_on_c, 13, 55, 80
11, 8691, Note_on_c, 13, 55, 0
11, 8691, Note_on_c, 13, 64, 0
11, 8700, Note_on_c, 13, 64, 80
11, 8700, Note_on_c, 13, 55, 80
11, 8751, Note_on_c, 13, 55, 0
11, 8751, Note_on_c, 13, 64, 0
11, 8760, Note_on_c, 13, 64, 80
11, 8760, Note_on_c, 13, 55, 80
11, 8811, Note_on_c, 13, 55, 0
11, 8811, Note_on_c, 13, 64, 0
11, 8820, Note_on_c, 13, 64, 80
11, 8820, Note_on_c, 13, 55, 80
11, 8871, Note_on_c, 13, 55, 0
11, 8871, Note_on_c, 13, 64, 0
11, 8880, Note_on_c, 13, 64, 80
11, 8880, Note_on_c, 13, 55, 80
11, 8931, Note_on_c, 13, 55, 0
11, 8931, Note_on_c, 13, 64, 0
11, 8940, Note_on_c, 13, 55, 80
11, 8940, Note_on_c, 13, 64, 80
11, 8991, Note_on_c, 13, 64, 0
11, 8991, Note_on_c, 13, 55, 0
11, 9000, Note_on_c, 13, 55, 80
11, 9000, Note_on_c, 13, 64, 80
11, 9051, Note_on_c, 13, 64, 0
11, 9051, Note_on_c, 13, 55, 0
11, 9060, Note_on_c, 13, 64, 80
11, 9060, Note_on_c, 13, 55, 80
11, 9111, Note_on_c, 13, 55, 0
11, 9111, Note_on_c, 13, 64, 0
11, 9120, Note_on_c, 13, 67, 80
11, 9171, Note_on_c, 13, 67, 0
11, 9180, Note_on_c, 13, 67, 80
11, 9231, Note_on_c, 13, 67, 0
11, 9240, Note_on_c, 13, 67, 80
11, 9291, Note_on_c, 13, 67, 0
11, 9300, Note_on_c, 13, 67, 80
11, 9351, Note_on_c, 13, 67, 0
11, 9360, Note_on_c, 13, 69, 80
11, 9411, Note_on_c, 13, 69, 0
11, 9420, Note_on_c, 13, 69, 80
11, 9471, Note_on_c, 13, 69, 0
11, 9480, Note_on_c, 13, 69, 80
11, 9531, Note_on_c, 13, 69, 0
11, 9540, Note_on_c, 13, 69, 80
11, 9591, Note_on_c, 13, 69, 0
11, 9600, Note_on_c, 13, 69, 80
11, 9651, Note_on_c, 13, 69, 0
11, 9660, Note_on_c, 13, 69, 80
11, 9711, Note_on_c, 13, 69, 0
11, 9720, Note_on_c, 13, 69, 80
11, 9771, Note_on_c, 13, 69, 0
11, 9780, Note_on_c, 13, 69, 80
11, 9831, Note_on_c, 13, 69, 0
11, 9840, Note_on_c, 13, 67, 80
11, 9891, Note_on_c, 13, 67, 0
11, 9900, Note_on_c, 13, 67, 80
11, 9951, Note_on_c, 13, 67, 0
11, 9960, Note_on_c, 13, 67, 80
11, 10011, Note_on_c, 13, 67, 0
11, 10020, Note_on_c, 13, 67, 80
11, 10071, Note_on_c, 13, 67, 0
11, 10080, Note_on_c, 13, 65, 80
11, 10131, Note_on_c, 13, 65, 0
11, 10140, Note_on_c, 13, 65, 80
11, 10191, Note_on_c, 13, 65, 0
11, 10200, Note_on_c, 13, 65, 80
11, 10251, Note_on_c, 13, 65, 0
11, 10260, Note_on_c, 13, 65, 80
11, 10311, Note_on_c, 13, 65, 0
11, 10320, Note_on_c, 13, 65, 80
11, 10371, Note_on_c, 13, 65, 0
11, 10380, Note_on_c, 13, 65, 80
11, 10431, Note_on_c, 13, 65, 0
11, 10440, Note_on_c, 13, 65, 80
11, 10491, Note_on_c, 13, 65, 0
11, 10500, Note_on_c, 13, 65, 80
11, 10551, Note_on_c, 13, 65, 0
11, 10560, Note_on_c, 13, 65, 80
11, 10611, Note_on_c, 13, 65, 0
11, 10620, Note_on_c, 13, 65, 80
11, 10671, Note_on_c, 13, 65, 0
11, 10680, Note_on_c, 13, 64, 80
11, 10731, Note_on_c, 13, 64, 0
11, 10740, Note_on_c, 13, 64, 80
11, 10791, Note_on_c, 13, 64, 0
11, 10800, Note_on_c, 13, 65, 80
11, 10851, Note_on_c, 13, 65, 0
11, 10860, Note_on_c, 13, 65, 80
11, 10911, Note_on_c, 13, 65, 0
11, 10920, Note_on_c, 13, 65, 80
11, 10971, Note_on_c, 13, 65, 0
11, 10980, Note_on_c, 13, 65, 80
11, 11031, Note_on_c, 13, 65, 0
11, 11040, Note_on_c, 13, 67, 80
11, 11091, Note_on_c, 13, 67, 0
11, 11100, Note_on_c, 13, 67, 80
11, 11151, Note_on_c, 13, 67, 0
11, 11160, Note_on_c, 13, 67, 80
11, 11211, Note_on_c, 13, 67, 0
11, 11220, Note_on_c, 13, 67, 80
11, 11271, Note_on_c, 13, 67, 0
11, 11280, Note_on_c, 13, 67, 80
11, 11331, Note_on_c, 13, 67, 0
11, 11340, Note_on_c, 13, 67, 80
11, 11391, Note_on_c, 13, 67, 0
11, 11400, Note_on_c, 13, 67, 80
11, 11451, Note_on_c, 13, 67, 0
11, 11460, Note_on_c, 13, 67, 80
11, 11511, Note_on_c, 13, 67, 0
11, 11520, Note_on_c, 13, 67, 80
11, 11571, Note_on_c, 13, 67, 0
11, 11580, Note_on_c, 13, 67, 80
11, 11631, Note_on_c, 13, 67, 0
11, 11640, Note_on_c, 13, 67, 80
11, 11691, Note_on_c, 13, 67, 0
11, 11700, Note_on_c, 13, 67, 80
11, 11751, Note_on_c, 13, 67, 0
11, 11760, Note_on_c, 13, 69, 80
11, 11811, Note_on_c, 13, 69, 0
11, 11820, Note_on_c, 13, 69, 80
11, 11871, Note_on_c, 13, 69, 0
11, 11880, Note_on_c, 13, 69, 80
11, 11931, Note_on_c, 13, 69, 0
11, 11940, Note_on_c, 13, 69, 80
11, 11991, Note_on_c, 13, 69, 0
11, 12000, Note_on_c, 13, 67, 80
11, 12051, Note_on_c, 13, 67, 0
11, 12060, Note_on_c, 13, 67, 80
11, 12111, Note_on_c, 13, 67, 0
11, 12120, Note_on_c, 13, 67, 80
11, 12171, Note_on_c, 13, 67, 0
11, 12180, Note_on_c, 13, 67, 80
11, 12231, Note_on_c, 13, 67, 0
11, 12240, Note_on_c, 13, 67, 80
11, 12291, Note_on_c, 13, 67, 0
11, 12300, Note_on_c, 13, 67, 80
11, 12351, Note_on_c, 13, 67, 0
11, 12360, Note_on_c, 13, 67, 80
11, 12411, Note_on_c, 13, 67, 0
11, 12420, Note_on_c, 13, 67, 80
11, 12471, Note_on_c, 13, 67, 0
11, 12480, Note_on_c, 13, 67, 80
11, 12531, Note_on_c, 13, 67, 0
11, 12540, Note_on_c, 13, 67, 80
11, 12591, Note_on_c, 13, 67, 0
11, 12600, Note_on_c, 13, 67, 80
11, 12651, Note_on_c, 13, 67, 0
11, 12660, Note_on_c, 13, 67, 80
11, 12711, Note_on_c, 13, 67, 0
11, 12720, Note_on_c, 13, 67, 80
11, 12771, Note_on_c, 13, 67, 0
11, 12780, Note_on_c, 13, 67, 80
11, 12831, Note_on_c, 13, 67, 0
11, 12840, Note_on_c, 13, 67, 80
11, 12891, Note_on_c, 13, 67, 0
11, 12900, Note_on_c, 13, 67, 80
11, 12951, Note_on_c, 13, 67, 0
11, 12960, Note_on_c, 13, 69, 80
11, 13184, Note_on_c, 13, 69, 0
11, 13200, Note_on_c, 13, 67, 80
11, 13424, Note_on_c, 13, 67, 0
11, 13440, Note_on_c, 13, 55, 80
11, 13664, Note_on_c, 13, 55, 0
11, 13680, Note_on_c, 13, 60, 80
11, 13784, Note_on_c, 13, 60, 0
11, 13800, Note_on_c, 13, 72, 80
11, 13904, Note_on_c, 13, 72, 0
11, 13920, Note_on_c, 13, 67, 80
11, 14024, Note_on_c, 13, 67, 0
11, 14040, Note_on_c, 13, 72, 80
11, 14144, Note_on_c, 13, 72, 0
11, 14160, Note_on_c, 13, 64, 80
11, 14264, Note_on_c, 13, 64, 0
11, 14280, Note_on_c, 13, 67, 80
11, 14384, Note_on_c, 13, 67, 0
11, 14400, Note_on_c, 13, 60, 80
11, 14639, Note_on_c, 13, 60, 0
11, 15120, Note_on_c, 13, 55, 80
11, 15224, Note_on_c, 13, 55, 0
11, 15240, Note_on_c, 13, 67, 80
11, 15344, Note_on_c, 13, 67, 0
11, 15360, Note_on_c, 13, 62, 80
11, 15464, Note_on_c, 13, 62, 0
11, 15480, Note_on_c, 13, 67, 80
11, 15584, Note_on_c, 13, 67, 0
11, 15600, Note_on_c, 13, 59, 80
11, 15704, Note_on_c, 13, 59, 0
11, 15720, Note_on_c, 13, 62, 80
11, 15824, Note_on_c, 13, 62, 0
11, 15840, Note_on_c, 13, 55, 80
11, 16079, Note_on_c, 13, 55, 0
11, 16560, Note_on_c, 13, 60, 80
11, 16664, Note_on_c, 13, 60, 0
11, 16680, Note_on_c, 13, 72, 80
11, 16784, Note_on_c, 13, 72, 0
11, 16800, Note_on_c, 13, 67, 80
11, 16904, Note_on_c, 13, 67, 0
11, 16920, Note_on_c, 13, 72, 80
11, 17024, Note_on_c, 13, 72, 0
11, 17040, Note_on_c, 13, 64, 80
11, 17144, Note_on_c, 13, 64, 0
11, 17160, Note_on_c, 13, 67, 80
11, 17264, Note_on_c, 13, 67, 0
11, 17280, Note_on_c, 13, 60, 80
11, 17519, Note_on_c, 13, 60, 0
11, 18000, Note_on_c, 13, 66, 80
11, 18104, Note_on_c, 13, 66, 0
11, 18120, Note_on_c, 13, 69, 80
11, 18224, Note_on_c, 13, 69, 0
11, 18240, Note_on_c, 13, 74, 80
11, 18344, Note_on_c, 13, 74, 0
11, 18360, Note_on_c, 13, 69, 80
11, 18464, Note_on_c, 13, 69, 0
11, 18480, Note_on_c, 13, 74, 80
11, 18584, Note_on_c, 13, 74, 0
11, 18600, Note_on_c, 13, 69, 80
11, 18704, Note_on_c, 13, 69, 0
11, 18720, Note_on_c, 13, 66, 80
11, 18959, Note_on_c, 13, 66, 0
11, 19440, Note_on_c, 13, 67, 80
11, 19544, Note_on_c, 13, 67, 0
11, 19560, Note_on_c, 13, 67, 80
11, 19664, Note_on_c, 13, 67, 0
11, 19680, Note_on_c, 13, 67, 80
11, 19784, Note_on_c, 13, 67, 0
11, 19800, Note_on_c, 13, 67, 80
11, 19904, Note_on_c, 13, 67, 0
11, 19920, Note_on_c, 13, 67, 80
11, 20024, Note_on_c, 13, 67, 0
11, 20040, Note_on_c, 13, 67, 80
11, 20144, Note_on_c, 13, 67, 0
11, 20160, Note_on_c, 13, 64, 80
11, 20264, Note_on_c, 13, 64, 0
11, 20280, Note_on_c, 13, 64, 80
11, 20384, Note_on_c, 13, 64, 0
11, 20400, Note_on_c, 13, 64, 80
11, 20504, Note_on_c, 13, 64, 0
11, 20520, Note_on_c, 13, 64, 80
11, 20624, Note_on_c, 13, 64, 0
11, 20640, Note_on_c, 13, 64, 80
11, 20744, Note_on_c, 13, 64, 0
11, 20760, Note_on_c, 13, 64, 80
11, 20864, Note_on_c, 13, 64, 0
11, 20880, Note_on_c, 13, 59, 80
11, 20984, Note_on_c, 13, 59, 0
11, 21000, Note_on_c, 13, 59, 80
11, 21104, Note_on_c, 13, 59, 0
11, 21120, Note_on_c, 13, 59, 80
11, 21224, Note_on_c, 13, 59, 0
11, 21240, Note_on_c, 13, 59, 80
11, 21344, Note_on_c, 13, 59, 0
11, 21360, Note_on_c, 13, 59, 80
11, 21464, Note_on_c, 13, 59, 0
11, 21480, Note_on_c, 13, 59, 80
11, 21584, Note_on_c, 13, 59, 0
11, 21600, Note_on_c, 13, 60, 80
11, 21704, Note_on_c, 13, 60, 0
11, 21720, Note_on_c, 13, 60, 80
11, 21824, Note_on_c, 13, 60, 0
11, 21840, Note_on_c, 13, 60, 80
11, 21944, Note_on_c, 13, 60, 0
11, 21960, Note_on_c, 13, 60, 80
11, 22064, Note_on_c, 13, 60, 0
11, 22080, Note_on_c, 13, 60, 80
11, 22184, Note_on_c, 13, 60, 0
11, 22200, Note_on_c, 13, 61, 80
11, 22304, Note_on_c, 13, 61, 0
11, 22320, Note_on_c, 13, 62, 80
11, 22544, Note_on_c, 13, 62, 0
11, 22560, Note_on_c, 13, 62, 80
11, 22799, Note_on_c, 13, 62, 0
11, 23040, Note_on_c, 13, 67, 44
11, 23279, Note_on_c, 13, 67, 0
11, 23760, Note_on_c, 13, 60, 44
11, 23999, Note_on_c, 13, 60, 0
11, 24480, Note_on_c, 13, 62, 44
11, 24719, Note_on_c, 13, 62, 0
11, 25200, Note_on_c, 13, 55, 44
11, 25439, Note_on_c, 13, 55, 0
11, 25920, Note_on_c, 13, 67, 44
11, 26159, Note_on_c, 13, 67, 0
11, 26640, Note_on_c, 13, 60, 44
11, 26879, Note_on_c, 13, 60, 0
11, 27360, Note_on_c, 13, 62, 44
11, 27599, Note_on_c, 13, 62, 0
11, 28800, Note_on_c, 13, 59, 44
11, 28800, Note_on_c, 13, 62, 44
11, 28979, Note_on_c, 13, 62, 0
11, 28979, Note_on_c, 13, 59, 0
11, 29040, Note_on_c, 13, 59, 44
11, 29040, Note_on_c, 13, 62, 44
11, 29219, Note_on_c, 13, 62, 0
11, 29219, Note_on_c, 13, 59, 0
11, 29280, Note_on_c, 13, 62, 44
11, 29280, Note_on_c, 13, 59, 44
11, 29459, Note_on_c, 13, 59, 0
11, 29459, Note_on_c, 13, 62, 0
11, 29520, Note_on_c, 13, 60, 44
11, 29520, Note_on_c, 13, 64, 44
11, 29879, Note_on_c, 13, 64, 0
11, 29879, Note_on_c, 13, 60, 0
11, 29880, Note_on_c, 13, 62, 44
11, 29880, Note_on_c, 13, 66, 44
11, 29984, Note_on_c, 13, 66, 0
11, 29984, Note_on_c, 13, 62, 0
11, 30000, Note_on_c, 13, 67, 44
11, 30000, Note_on_c, 13, 64, 44
11, 30179, Note_on_c, 13, 64, 0
11, 30179, Note_on_c, 13, 67, 0
11, 30240, Note_on_c, 13, 57, 44
11, 30240, Note_on_c, 13, 54, 44
11, 30269, Note_on_c, 13, 54, 0
11, 30269, Note_on_c, 13, 57, 0
11, 30270, Note_on_c, 13, 59, 44
11, 30270, Note_on_c, 13, 55, 44
11, 30299, Note_on_c, 13, 55, 0
11, 30299, Note_on_c, 13, 59, 0
11, 30300, Note_on_c, 13, 60, 44
11, 30300, Note_on_c, 13, 57, 44
11, 30479, Note_on_c, 13, 57, 0
11, 30479, Note_on_c, 13, 60, 0
11, 30960, Note_on_c, 13, 55, 44
11, 30960, Note_on_c, 13, 59, 44
11, 30989, Note_on_c, 13, 59, 0
11, 30989, Note_on_c, 13, 55, 0
11, 30990, Note_on_c, 13, 57, 44
11, 30990, Note_on_c, 13, 60, 44
11, 31019, Note_on_c, 13, 60, 0
11, 31019, Note_on_c, 13, 57, 0
11, 31020, Note_on_c, 13, 59, 44
11, 31020, Note_on_c, 13, 62, 44
11, 31199, Note_on_c, 13, 62, 0
11, 31199, Note_on_c, 13, 59, 0
11, 31680, Note_on_c, 13, 59, 44
11, 31680, Note_on_c, 13, 62, 44
11, 31859, Note_on_c, 13, 62, 0
11, 31859, Note_on_c, 13, 59, 0
11, 31920, Note_on_c, 13, 59, 44
11, 31920, Note_on_c, 13, 62, 44
11, 32099, Note_on_c, 13, 62, 0
11, 32099, Note_on_c, 13, 59, 0
11, 32160, Note_on_c, 13, 62, 44
11, 32160, Note_on_c, 13, 59, 44
11, 32339, Note_on_c, 13, 59, 0
11, 32339, Note_on_c, 13, 62, 0
11, 32400, Note_on_c, 13, 64, 44
11, 32400, Note_on_c, 13, 60, 44
11, 32579, Note_on_c, 13, 60, 0
11, 32579, Note_on_c, 13, 64, 0
11, 32580, Note_on_c, 13, 62, 44
11, 32580, Note_on_c, 13, 66, 44
11, 32639, Note_on_c, 13, 66, 0
11, 32639, Note_on_c, 13, 62, 0
11, 32640, Note_on_c, 13, 64, 44
11, 32640, Note_on_c, 13, 67, 44
11, 32744, Note_on_c, 13, 67, 0
11, 32744, Note_on_c, 13, 64, 0
11, 32760, Note_on_c, 13, 66, 44
11, 32760, Note_on_c, 13, 62, 44
11, 32849, Note_on_c, 13, 62, 0
11, 32849, Note_on_c, 13, 66, 0
11, 32880, Note_on_c, 13, 64, 44
11, 32880, Note_on_c, 13, 60, 44
11, 32969, Note_on_c, 13, 60, 0
11, 32969, Note_on_c, 13, 64, 0
11, 33000, Note_on_c, 13, 62, 44
11, 33000, Note_on_c, 13, 59, 44
11, 33089, Note_on_c, 13, 59, 0
11, 33089, Note_on_c, 13, 62, 0
11, 33120, Note_on_c, 13, 62, 44
11, 33120, Note_on_c, 13, 59, 44
11, 33179, Note_on_c, 13, 59, 0
11, 33179, Note_on_c, 13, 62, 0
11, 33180, Note_on_c, 13, 60, 44
11, 33180, Note_on_c, 13, 57, 44
11, 33359, Note_on_c, 13, 57, 0
11, 33359, Note_on_c, 13, 60, 0
11, 33360, Note_on_c, 13, 59, 44
11, 33360, Note_on_c, 13, 55, 44
11, 33599, Note_on_c, 13, 55, 0
11, 33599, Note_on_c, 13, 59, 0
11, 33600, Note_on_c, 13, 54, 44
11, 33600, Note_on_c, 13, 57, 44
11, 33824, Note_on_c, 13, 57, 0
11, 33824, Note_on_c, 13, 54, 0
11, 33840, Note_on_c, 13, 55, 80
11, 34079, Note_on_c, 13, 55, 0
11, 34320, Note_on_c, 13, 67, 80
11, 34544, Note_on_c, 13, 67, 0
11, 34560, Note_on_c, 13, 66, 80
11, 34799, Note_on_c, 13, 66, 0
11, 35040, Note_on_c, 13, 66, 80
11, 35264, Note_on_c, 13, 66, 0
11, 35280, Note_on_c, 13, 64, 80
11, 35331, Note_on_c, 13, 64, 0
11, 35340, Note_on_c, 13, 64, 80
11, 35391, Note_on_c, 13, 64, 0
11, 35400, Note_on_c, 13, 63, 80
11, 35451, Note_on_c, 13, 63, 0
11, 35460, Note_on_c, 13, 63, 80
11, 35511, Note_on_c, 13, 63, 0
11, 35520, Note_on_c, 13, 64, 80
11, 35571, Note_on_c, 13, 64, 0
11, 35580, Note_on_c, 13, 64, 80
11, 35631, Note_on_c, 13, 64, 0
11, 35640, Note_on_c, 13, 63, 80
11, 35691, Note_on_c, 13, 63, 0
11, 35700, Note_on_c, 13, 63, 80
11, 35751, Note_on_c, 13, 63, 0
11, 35760, Note_on_c, 13, 64, 80
11, 35811, Note_on_c, 13, 64, 0
11, 35820, Note_on_c, 13, 64, 80
11, 35871, Note_on_c, 13, 64, 0
11, 35880, Note_on_c, 13, 60, 80
11, 35931, Note_on_c, 13, 60, 0
11, 35940, Note_on_c, 13, 60, 80
11, 35991, Note_on_c, 13, 60, 0
11, 36000, Note_on_c, 13, 59, 80
11, 36051, Note_on_c, 13, 59, 0
11, 36060, Note_on_c, 13, 59, 80
11, 36111, Note_on_c, 13, 59, 0
11, 36120, Note_on_c, 13, 57, 80
11, 36171, Note_on_c, 13, 57, 0
11, 36180, Note_on_c, 13, 57, 80
11, 36231, Note_on_c, 13, 57, 0
11, 36240, Note_on_c, 13, 55, 80
11, 36291, Note_on_c, 13, 55, 0
11, 36300, Note_on_c, 13, 55, 80
11, 36351, Note_on_c, 13, 55, 0
11, 36360, Note_on_c, 13, 57, 80
11, 36411, Note_on_c, 13, 57, 0
11, 36420, Note_on_c, 13, 57, 80
11, 36471, Note_on_c, 13, 57, 0
11, 36480, Note_on_c, 13, 59, 80
11, 36531, Note_on_c, 13, 59, 0
11, 36540, Note_on_c, 13, 59, 80
11, 36591, Note_on_c, 13, 59, 0
11, 36600, Note_on_c, 13, 62, 80
11, 36651, Note_on_c, 13, 62, 0
11, 36660, Note_on_c, 13, 62, 80
11, 36711, Note_on_c, 13, 62, 0
11, 36720, Note_on_c, 13, 60, 80
11, 36771, Note_on_c, 13, 60, 0
11, 36780, Note_on_c, 13, 60, 80
11, 36831, Note_on_c, 13, 60, 0
11, 36840, Note_on_c, 13, 60, 80
11, 36891, Note_on_c, 13, 60, 0
11, 36900, Note_on_c, 13, 60, 80
11, 36951, Note_on_c, 13, 60, 0
11, 36960, Note_on_c, 13, 60, 80
11, 37011, Note_on_c, 13, 60, 0
11, 37020, Note_on_c, 13, 60, 80
11, 37071, Note_on_c, 13, 60, 0
11, 37080, Note_on_c, 13, 60, 80
11, 37131, Note_on_c, 13, 60, 0
11, 37140, Note_on_c, 13, 60, 80
11, 37191, Note_on_c, 13, 60, 0
11, 37200, Note_on_c, 13, 59, 80
11, 37251, Note_on_c, 13, 59, 0
11, 37260, Note_on_c, 13, 59, 80
11, 37311, Note_on_c, 13, 59, 0
11, 37320, Note_on_c, 13, 59, 80
11, 37371, Note_on_c, 13, 59, 0
11, 37380, Note_on_c, 13, 59, 80
11, 37431, Note_on_c, 13, 59, 0
11, 37440, Note_on_c, 13, 57, 80
11, 37491, Note_on_c, 13, 57, 0
11, 37500, Note_on_c, 13, 57, 80
11, 37551, Note_on_c, 13, 57, 0
11, 37560, Note_on_c, 13, 57, 80
11, 37611, Note_on_c, 13, 57, 0
11, 37620, Note_on_c, 13, 57, 80
11, 37671, Note_on_c, 13, 57, 0
11, 37680, Note_on_c, 13, 66, 80
11, 37784, Note_on_c, 13, 66, 0
11, 37800, Note_on_c, 13, 62, 80
11, 37904, Note_on_c, 13, 62, 0
11, 37920, Note_on_c, 13, 62, 80
11, 38024, Note_on_c, 13, 62, 0
11, 38040, Note_on_c, 13, 71, 80
11, 38144, Note_on_c, 13, 71, 0
11, 38160, Note_on_c, 13, 72, 80
11, 38384, Note_on_c, 13, 72, 0
11, 38400, Note_on_c, 13, 71, 80
11, 38624, Note_on_c, 13, 71, 0
11, 38640, Note_on_c, 13, 69, 80
11, 38864, Note_on_c, 13, 69, 0
11, 38880, Note_on_c, 13, 67, 80
11, 39059, Note_on_c, 13, 67, 0
11, 39120, Note_on_c, 13, 62, 80
11, 39299, Note_on_c, 13, 62, 0
11, 39360, Note_on_c, 13, 60, 80
11, 39539, Note_on_c, 13, 60, 0
11, 39600, Note_on_c, 13, 56, 80
11, 39779, Note_on_c, 13, 56, 0
11, 39840, Note_on_c, 13, 57, 80
11, 40019, Note_on_c, 13, 57, 0
11, 40560, Note_on_c, 13, 57, 44
11, 40799, Note_on_c, 13, 57, 0
11, 40800, Note_on_c, 13, 55, 44
11, 41024, Note_on_c, 13, 55, 0
11, 41040, Note_on_c, 13, 54, 44
11, 41219, Note_on_c, 13, 54, 0
11, 41280, Note_on_c, 13, 50, 44
11, 41519, Note_on_c, 13, 50, 0
11, 41520, Note_on_c, 13, 52, 44
11, 41744, Note_on_c, 13, 52, 0
11, 41760, Note_on_c, 13, 48, 44
11, 41984, Note_on_c, 13, 48, 0
11, 42000, Note_on_c, 13, 50, 44
11, 42224, Note_on_c, 13, 50, 0
11, 42240, Note_on_c, 13, 50, 44
11, 42464, Note_on_c, 13, 50, 0
11, 42480, Note_on_c, 13, 55, 76
11, 42531, Note_on_c, 13, 55, 0
11, 42540, Note_on_c, 13, 62, 80
11, 42591, Note_on_c, 13, 62, 0
11, 42600, Note_on_c, 13, 62, 77
11, 42651, Note_on_c, 13, 62, 0
11, 42660, Note_on_c, 13, 62, 82
11, 42711, Note_on_c, 13, 62, 0
11, 42720, Note_on_c, 13, 62, 80
11, 42771, Note_on_c, 13, 62, 0
11, 42780, Note_on_c, 13, 62, 79
11, 42831, Note_on_c, 13, 62, 0
11, 42840, Note_on_c, 13, 62, 78
11, 42891, Note_on_c, 13, 62, 0
11, 42900, Note_on_c, 13, 62, 83
11, 42951, Note_on_c, 13, 62, 0
11, 42960, Note_on_c, 13, 62, 82
11, 43011, Note_on_c, 13, 62, 0
11, 43020, Note_on_c, 13, 62, 81
11, 43071, Note_on_c, 13, 62, 0
11, 43080, Note_on_c, 13, 62, 77
11, 43131, Note_on_c, 13, 62, 0
11, 43140, Note_on_c, 13, 62, 82
11, 43191, Note_on_c, 13, 62, 0
11, 43200, Note_on_c, 13, 62, 81
11, 43251, Note_on_c, 13, 62, 0
11, 43260, Note_on_c, 13, 62, 80
11, 43311, Note_on_c, 13, 62, 0
11, 43320, Note_on_c, 13, 62, 78
11, 43371, Note_on_c, 13, 62, 0
11, 43380, Note_on_c, 13, 62, 76
11, 43431, Note_on_c, 13, 62, 0
11, 43440, Note_on_c, 13, 62, 76
11, 43491, Note_on_c, 13, 62, 0
11, 43500, Note_on_c, 13, 62, 78
11, 43551, Note_on_c, 13, 62, 0
11, 43560, Note_on_c, 13, 62, 77
11, 43611, Note_on_c, 13, 62, 0
11, 43620, Note_on_c, 13, 62, 77
11, 43671, Note_on_c, 13, 62, 0
11, 43680, Note_on_c, 13, 62, 83
11, 43731, Note_on_c, 13, 62, 0
11, 43740, Note_on_c, 13, 62, 79
11, 43791, Note_on_c, 13, 62, 0
11, 43800, Note_on_c, 13, 62, 76
11, 43851, Note_on_c, 13, 62, 0
11, 43860, Note_on_c, 13, 62, 76
11, 43911, Note_on_c, 13, 62, 0
11, 43920, Note_on_c, 13, 62, 76
11, 43971, Note_on_c, 13, 62, 0
11, 43980, Note_on_c, 13, 62, 79
11, 44031, Note_on_c, 13, 62, 0
11, 44040, Note_on_c, 13, 62, 80
11, 44091, Note_on_c, 13, 62, 0
11, 44100, Note_on_c, 13, 62, 80
11, 44151, Note_on_c, 13, 62, 0
11, 44160, Note_on_c, 13, 62, 80
11, 44211, Note_on_c, 13, 62, 0
11, 44220, Note_on_c, 13, 62, 80
11, 44271, Note_on_c, 13, 62, 0
11, 44280, Note_on_c, 13, 62, 77
11, 44331, Note_on_c, 13, 62, 0
11, 44340, Note_on_c, 13, 62, 81
11, 44391, Note_on_c, 13, 62, 0
11, 44400, Note_on_c, 13, 62, 79
11, 44451, Note_on_c, 13, 62, 0
11, 44460, Note_on_c, 13, 62, 78
11, 44511, Note_on_c, 13, 62, 0
11, 44520, Note_on_c, 13, 62, 76
11, 44571, Note_on_c, 13, 62, 0
11, 44580, Note_on_c, 13, 62, 80
11, 44631, Note_on_c, 13, 62, 0
11, 44640, Note_on_c, 13, 62, 82
11, 44691, Note_on_c, 13, 62, 0
11, 44700, Note_on_c, 13, 62, 82
11, 44751, Note_on_c, 13, 62, 0
11, 44760, Note_on_c, 13, 62, 80
11, 44811, Note_on_c, 13, 62, 0
11, 44820, Note_on_c, 13, 62, 78
11, 44871, Note_on_c, 13, 62, 0
11, 44880, Note_on_c, 13, 62, 83
11, 44931, Note_on_c, 13, 62, 0
11, 44940, Note_on_c, 13, 62, 81
11, 44991, Note_on_c, 13, 62, 0
11, 45000, Note_on_c, 13, 62, 83
11, 45051, Note_on_c, 13, 62, 0
11, 45060, Note_on_c, 13, 62, 83
11, 45111, Note_on_c, 13, 62, 0
11, 45120, Note_on_c, 13, 62, 80
11, 45171, Note_on_c, 13, 62, 0
11, 45180, Note_on_c, 13, 62, 77
11, 45231, Note_on_c, 13, 62, 0
11, 45240, Note_on_c, 13, 62, 79
11, 45291, Note_on_c, 13, 62, 0
11, 45300, Note_on_c, 13, 62, 77
11, 45351, Note_on_c, 13, 62, 0
11, 45360, Note_on_c, 13, 67, 80
11, 45599, Note_on_c, 13, 67, 0
11, 45840, Note_on_c, 13, 62, 80
11, 46064, Note_on_c, 13, 62, 0
11, 46080, Note_on_c, 13, 67, 80
11, 46319, Note_on_c, 13, 67, 0
11, 46560, Note_on_c, 13, 62, 80
11, 46784, Note_on_c, 13, 62, 0
11, 46800, Note_on_c, 13, 55, 80
11, 47024, Note_on_c, 13, 55, 0
11, 47040, Note_on_c, 13, 55, 80
11, 47129, Note_on_c, 13, 55, 0
11, 47160, Note_on_c, 13, 57, 80
11, 47249, Note_on_c, 13, 57, 0
11, 47280, Note_on_c, 13, 59, 80
11, 47369, Note_on_c, 13, 59, 0
11, 47400, Note_on_c, 13, 60, 80
11, 47489, Note_on_c, 13, 60, 0
11, 47520, Note_on_c, 13, 62, 80
11, 47609, Note_on_c, 13, 62, 0
11, 47640, Note_on_c, 13, 64, 80
11, 47729, Note_on_c, 13, 64, 0
11, 47760, Note_on_c, 13, 65, 80
11, 47849, Note_on_c, 13, 65, 0
11, 47880, Note_on_c, 13, 62, 80
11, 47969, Note_on_c, 13, 62, 0
11, 48000, Note_on_c, 13, 59, 80
11, 48089, Note_on_c, 13, 59, 0
11, 48120, Note_on_c, 13, 55, 80
11, 48209, Note_on_c, 13, 55, 0
11, 48240, Note_on_c, 13, 72, 80
11, 48464, Note_on_c, 13, 72, 0
11, 48480, Note_on_c, 13, 67, 80
11, 48719, Note_on_c, 13, 67, 0
11, 48960, Note_on_c, 13, 64, 80
11, 49184, Note_on_c, 13, 64, 0
11, 49200, Note_on_c, 13, 60, 80
11, 49439, Note_on_c, 13, 60, 0
11, 52560, Note_on_c, 13, 72, 80
11, 52784, Note_on_c, 13, 72, 0
11, 52800, Note_on_c, 13, 67, 80
11, 53039, Note_on_c, 13, 67, 0
11, 53280, Note_on_c, 13, 64, 80
11, 53504, Note_on_c, 13, 64, 0
11, 53520, Note_on_c, 13, 60, 80
11, 53759, Note_on_c, 13, 60, 0
11, 56880, Note_on_c, 13, 64, 80
11, 56880, Note_on_c, 13, 55, 80
11, 56931, Note_on_c, 13, 55, 0
11, 56931, Note_on_c, 13, 64, 0
11, 56940, Note_on_c, 13, 64, 80
11, 56940, Note_on_c, 13, 55, 80
11, 56991, Note_on_c, 13, 55, 0
11, 56991, Note_on_c, 13, 64, 0
11, 57000, Note_on_c, 13, 64, 80
11, 57000, Note_on_c, 13, 55, 80
11, 57051, Note_on_c, 13, 55, 0
11, 57051, Note_on_c, 13, 64, 0
11, 57060, Note_on_c, 13, 64, 80
11, 57060, Note_on_c, 13, 55, 80
11, 57111, Note_on_c, 13, 55, 0
11, 57111, Note_on_c, 13, 64, 0
11, 57120, Note_on_c, 13, 64, 80
11, 57120, Note_on_c, 13, 55, 80
11, 57171, Note_on_c, 13, 55, 0
11, 57171, Note_on_c, 13, 64, 0
11, 57180, Note_on_c, 13, 64, 80
11, 57180, Note_on_c, 13, 55, 80
11, 57231, Note_on_c, 13, 55, 0
11, 57231, Note_on_c, 13, 64, 0
11, 57240, Note_on_c, 13, 64, 80
11, 57240, Note_on_c, 13, 55, 80
11, 57291, Note_on_c, 13, 55, 0
11, 57291, Note_on_c, 13, 64, 0
11, 57300, Note_on_c, 13, 64, 80
11, 57300, Note_on_c, 13, 55, 80
11, 57351, Note_on_c, 13, 55, 0
11, 57351, Note_on_c, 13, 64, 0
11, 57360, Note_on_c, 13, 67, 80
11, 57411, Note_on_c, 13, 67, 0
11, 57420, Note_on_c, 13, 67, 80
11, 57471, Note_on_c, 13, 67, 0
11, 57480, Note_on_c, 13, 67, 80
11, 57531, Note_on_c, 13, 67, 0
11, 57540, Note_on_c, 13, 67, 80
11, 57591, Note_on_c, 13, 67, 0
11, 57600, Note_on_c, 13, 69, 80
11, 57651, Note_on_c, 13, 69, 0
11, 57660, Note_on_c, 13, 69, 80
11, 57711, Note_on_c, 13, 69, 0
11, 57720, Note_on_c, 13, 69, 80
11, 57771, Note_on_c, 13, 69, 0
11, 57780, Note_on_c, 13, 69, 80
11, 57831, Note_on_c, 13, 69, 0
11, 57840, Note_on_c, 13, 69, 80
11, 57891, Note_on_c, 13, 69, 0
11, 57900, Note_on_c, 13, 69, 80
11, 57951, Note_on_c, 13, 69, 0
11, 57960, Note_on_c, 13, 69, 80
11, 58011, Note_on_c, 13, 69, 0
11, 58020, Note_on_c, 13, 69, 80
11, 58071, Note_on_c, 13, 69, 0
11, 58080, Note_on_c, 13, 67, 80
11, 58131, Note_on_c, 13, 67, 0
11, 58140, Note_on_c, 13, 67, 80
11, 58191, Note_on_c, 13, 67, 0
11, 58200, Note_on_c, 13, 67, 80
11, 58251, Note_on_c, 13, 67, 0
11, 58260, Note_on_c, 13, 67, 80
11, 58311, Note_on_c, 13, 67, 0
11, 58320, Note_on_c, 13, 65, 80
11, 58371, Note_on_c, 13, 65, 0
11, 58380, Note_on_c, 13, 65, 80
11, 58431, Note_on_c, 13, 65, 0
11, 58440, Note_on_c, 13, 65, 80
11, 58491, Note_on_c, 13, 65, 0
11, 58500, Note_on_c, 13, 65, 80
11, 58551, Note_on_c, 13, 65, 0
11, 58560, Note_on_c, 13, 65, 80
11, 58611, Note_on_c, 13, 65, 0
11, 58620, Note_on_c, 13, 65, 80
11, 58671, Note_on_c, 13, 65, 0
11, 58680, Note_on_c, 13, 65, 80
11, 58731, Note_on_c, 13, 65, 0
11, 58740, Note_on_c, 13, 65, 80
11, 58791, Note_on_c, 13, 65, 0
11, 58800, Note_on_c, 13, 65, 80
11, 58851, Note_on_c, 13, 65, 0
11, 58860, Note_on_c, 13, 65, 80
11, 58911, Note_on_c, 13, 65, 0
11, 58920, Note_on_c, 13, 64, 80
11, 58971, Note_on_c, 13, 64, 0
11, 58980, Note_on_c, 13, 64, 80
11, 59031, Note_on_c, 13, 64, 0
11, 59040, Note_on_c, 13, 65, 80
11, 59091, Note_on_c, 13, 65, 0
11, 59100, Note_on_c, 13, 65, 80
11, 59151, Note_on_c, 13, 65, 0
11, 59160, Note_on_c, 13, 65, 80
11, 59211, Note_on_c, 13, 65, 0
11, 59220, Note_on_c, 13, 65, 80
11, 59271, Note_on_c, 13, 65, 0
11, 59280, Note_on_c, 13, 67, 80
11, 59331, Note_on_c, 13, 67, 0
11, 59340, Note_on_c, 13, 67, 80
11, 59391, Note_on_c, 13, 67, 0
11, 59400, Note_on_c, 13, 67, 80
11, 59451, Note_on_c, 13, 67, 0
11, 59460, Note_on_c, 13, 67, 80
11, 59511, Note_on_c, 13, 67, 0
11, 59520, Note_on_c, 13, 67, 80
11, 59571, Note_on_c, 13, 67, 0
11, 59580, Note_on_c, 13, 67, 80
11, 59631, Note_on_c, 13, 67, 0
11, 59640, Note_on_c, 13, 67, 80
11, 59691, Note_on_c, 13, 67, 0
11, 59700, Note_on_c, 13, 67, 80
11, 59751, Note_on_c, 13, 67, 0
11, 59760, Note_on_c, 13, 67, 80
11, 59811, Note_on_c, 13, 67, 0
11, 59820, Note_on_c, 13, 67, 80
11, 59871, Note_on_c, 13, 67, 0
11, 59880, Note_on_c, 13, 67, 80
11, 59931, Note_on_c, 13, 67, 0
11, 59940, Note_on_c, 13, 67, 80
11, 59991, Note_on_c, 13, 67, 0
11, 60000, Note_on_c, 13, 69, 80
11, 60051, Note_on_c, 13, 69, 0
11, 60060, Note_on_c, 13, 69, 80
11, 60111, Note_on_c, 13, 69, 0
11, 60120, Note_on_c, 13, 69, 80
11, 60171, Note_on_c, 13, 69, 0
11, 60180, Note_on_c, 13, 69, 80
11, 60231, Note_on_c, 13, 69, 0
11, 60240, Note_on_c, 13, 67, 80
11, 60291, Note_on_c, 13, 67, 0
11, 60300, Note_on_c, 13, 67, 80
11, 60351, Note_on_c, 13, 67, 0
11, 60360, Note_on_c, 13, 67, 80
11, 60411, Note_on_c, 13, 67, 0
11, 60420, Note_on_c, 13, 67, 80
11, 60471, Note_on_c, 13, 67, 0
11, 60480, Note_on_c, 13, 67, 80
11, 60531, Note_on_c, 13, 67, 0
11, 60540, Note_on_c, 13, 67, 80
11, 60591, Note_on_c, 13, 67, 0
11, 60600, Note_on_c, 13, 67, 80
11, 60651, Note_on_c, 13, 67, 0
11, 60660, Note_on_c, 13, 67, 80
11, 60711, Note_on_c, 13, 67, 0
11, 60720, Note_on_c, 13, 67, 80
11, 60771, Note_on_c, 13, 67, 0
11, 60780, Note_on_c, 13, 67, 80
11, 60831, Note_on_c, 13, 67, 0
11, 60840, Note_on_c, 13, 67, 80
11, 60891, Note_on_c, 13, 67, 0
11, 60900, Note_on_c, 13, 67, 80
11, 60951, Note_on_c, 13, 67, 0
11, 60960, Note_on_c, 13, 67, 80
11, 61011, Note_on_c, 13, 67, 0
11, 61020, Note_on_c, 13, 67, 80
11, 61071, Note_on_c, 13, 67, 0
11, 61080, Note_on_c, 13, 67, 80
11, 61131, Note_on_c, 13, 67, 0
11, 61140, Note_on_c, 13, 67, 80
11, 61191, Note_on_c, 13, 67, 0
11, 61200, Note_on_c, 13, 69, 80
11, 61424, Note_on_c, 13, 69, 0
11, 61440, Note_on_c, 13, 67, 80
11, 61664, Note_on_c, 13, 67, 0
11, 61680, Note_on_c, 13, 55, 80
11, 61904, Note_on_c, 13, 55, 0
11, 61920, Note_on_c, 13, 60, 80
11, 62024, Note_on_c, 13, 60, 0
11, 62040, Note_on_c, 13, 72, 80
11, 62144, Note_on_c, 13, 72, 0
11, 62160, Note_on_c, 13, 67, 80
11, 62264, Note_on_c, 13, 67, 0
11, 62280, Note_on_c, 13, 72, 80
11, 62384, Note_on_c, 13, 72, 0
11, 62400, Note_on_c, 13, 64, 80
11, 62504, Note_on_c, 13, 64, 0
11, 62520, Note_on_c, 13, 67, 80
11, 62624, Note_on_c, 13, 67, 0
11, 62640, Note_on_c, 13, 60, 80
11, 62879, Note_on_c, 13, 60, 0
11, 63360, Note_on_c, 13, 55, 80
11, 63464, Note_on_c, 13, 55, 0
11, 63480, Note_on_c, 13, 67, 80
11, 63584, Note_on_c, 13, 67, 0
11, 63600, Note_on_c, 13, 62, 80
11, 63704, Note_on_c, 13, 62, 0
11, 63720, Note_on_c, 13, 67, 80
11, 63824, Note_on_c, 13, 67, 0
11, 63840, Note_on_c, 13, 59, 80
11, 63944, Note_on_c, 13, 59, 0
11, 63960, Note_on_c, 13, 62, 80
11, 64064, Note_on_c, 13, 62, 0
11, 64080, Note_on_c, 13, 55, 80
11, 64319, Note_on_c, 13, 55, 0
11, 64800, Note_on_c, 13, 60, 80
11, 64904, Note_on_c, 13, 60, 0
11, 64920, Note_on_c, 13, 72, 80
11, 65024, Note_on_c, 13, 72, 0
11, 65040, Note_on_c, 13, 67, 80
11, 65144, Note_on_c, 13, 67, 0
11, 65160, Note_on_c, 13, 72, 80
11, 65264, Note_on_c, 13, 72, 0
11, 65280, Note_on_c, 13, 64, 80
11, 65384, Note_on_c, 13, 64, 0
11, 65400, Note_on_c, 13, 67, 80
11, 65504, Note_on_c, 13, 67, 0
11, 65520, Note_on_c, 13, 60, 80
11, 65759, Note_on_c, 13, 60, 0
11, 66240, Note_on_c, 13, 66, 80
11, 66344, Note_on_c, 13, 66, 0
11, 66360, Note_on_c, 13, 69, 80
11, 66464, Note_on_c, 13, 69, 0
11, 66480, Note_on_c, 13, 74, 80
11, 66584, Note_on_c, 13, 74, 0
11, 66600, Note_on_c, 13, 69, 80
11, 66704, Note_on_c, 13, 69, 0
11, 66720, Note_on_c, 13, 74, 80
11, 66824, Note_on_c, 13, 74, 0
11, 66840, Note_on_c, 13, 69, 80
11, 66944, Note_on_c, 13, 69, 0
11, 66960, Note_on_c, 13, 66, 80
11, 67199, Note_on_c, 13, 66, 0
11, 67680, Note_on_c, 13, 67, 80
11, 67784, Note_on_c, 13, 67, 0
11, 67800, Note_on_c, 13, 67, 80
11, 67904, Note_on_c, 13, 67, 0
11, 67920, Note_on_c, 13, 67, 80
11, 68024, Note_on_c, 13, 67, 0
11, 68040, Note_on_c, 13, 67, 80
11, 68144, Note_on_c, 13, 67, 0
11, 68160, Note_on_c, 13, 67, 80
11, 68264, Note_on_c, 13, 67, 0
11, 68280, Note_on_c, 13, 67, 80
11, 68384, Note_on_c, 13, 67, 0
11, 68400, Note_on_c, 13, 64, 80
11, 68504, Note_on_c, 13, 64, 0
11, 68520, Note_on_c, 13, 64, 80
11, 68624, Note_on_c, 13, 64, 0
11, 68640, Note_on_c, 13, 64, 80
11, 68744, Note_on_c, 13, 64, 0
11, 68760, Note_on_c, 13, 64, 80
11, 68864, Note_on_c, 13, 64, 0
11, 68880, Note_on_c, 13, 64, 80
11, 68984, Note_on_c, 13, 64, 0
11, 69000, Note_on_c, 13, 64, 80
11, 69104, Note_on_c, 13, 64, 0
11, 69120, Note_on_c, 13, 59, 80
11, 69224, Note_on_c, 13, 59, 0
11, 69240, Note_on_c, 13, 59, 80
11, 69344, Note_on_c, 13, 59, 0
11, 69360, Note_on_c, 13, 59, 80
11, 69464, Note_on_c, 13, 59, 0
11, 69480, Note_on_c, 13, 59, 80
11, 69584, Note_on_c, 13, 59, 0
11, 69600, Note_on_c, 13, 59, 80
11, 69704, Note_on_c, 13, 59, 0
11, 69720, Note_on_c, 13, 59, 80
11, 69824, Note_on_c, 13, 59, 0
11, 69840, Note_on_c, 13, 60, 80
11, 69944, Note_on_c, 13, 60, 0
11, 69960, Note_on_c, 13, 60, 80
11, 70064, Note_on_c, 13, 60, 0
11, 70080, Note_on_c, 13, 60, 80
11, 70184, Note_on_c, 13, 60, 0
11, 70200, Note_on_c, 13, 60, 80
11, 70304, Note_on_c, 13, 60, 0
11, 70320, Note_on_c, 13, 60, 80
11, 70424, Note_on_c, 13, 60, 0
11, 70440, Note_on_c, 13, 61, 80
11, 70544, Note_on_c, 13, 61, 0
11, 70560, Note_on_c, 13, 62, 80
11, 70784, Note_on_c, 13, 62, 0
11, 70800, Note_on_c, 13, 62, 80
11, 71039, Note_on_c, 13, 62, 0
11, 71280, Note_on_c, 13, 67, 44
11, 71519, Note_on_c, 13, 67, 0
11, 72000, Note_on_c, 13, 60, 44
11, 72239, Note_on_c, 13, 60, 0
11, 72720, Note_on_c, 13, 62, 44
11, 72959, Note_on_c, 13, 62, 0
11, 73440, Note_on_c, 13, 55, 44
11, 73679, Note_on_c, 13, 55, 0
11, 74160, Note_on_c, 13, 67, 44
11, 74399, Note_on_c, 13, 67, 0
11, 74880, Note_on_c, 13, 60, 44
11, 75119, Note_on_c, 13, 60, 0
11, 75600, Note_on_c, 13, 62, 44
11, 75839, Note_on_c, 13, 62, 0
11, 77040, Note_on_c, 13, 59, 44
11, 77040, Note_on_c, 13, 62, 44
11, 77219, Note_on_c, 13, 62, 0
11, 77219, Note_on_c, 13, 59, 0
11, 77280, Note_on_c, 13, 59, 44
11, 77280, Note_on_c, 13, 62, 44
11, 77459, Note_on_c, 13, 62, 0
11, 77459, Note_on_c, 13, 59, 0
11, 77520, Note_on_c, 13, 59, 44
11, 77520, Note_on_c, 13, 62, 44
11, 77699, Note_on_c, 13, 62, 0
11, 77699, Note_on_c, 13, 59, 0
11, 77760, Note_on_c, 13, 60, 44
11, 77760, Note_on_c, 13, 64, 44
11, 78119, Note_on_c, 13, 64, 0
11, 78119, Note_on_c, 13, 60, 0
11, 78120, Note_on_c, 13, 62, 44
11, 78120, Note_on_c, 13, 66, 44
11, 78224, Note_on_c, 13, 66, 0
11, 78224, Note_on_c, 13, 62, 0
11, 78240, Note_on_c, 13, 64, 44
11, 78240, Note_on_c, 13, 67, 44
11, 78419, Note_on_c, 13, 67, 0
11, 78419, Note_on_c, 13, 64, 0
11, 78480, Note_on_c, 13, 54, 44
11, 78480, Note_on_c, 13, 57, 44
11, 78509, Note_on_c, 13, 57, 0
11, 78509, Note_on_c, 13, 54, 0
11, 78510, Note_on_c, 13, 55, 44
11, 78510, Note_on_c, 13, 59, 44
11, 78539, Note_on_c, 13, 59, 0
11, 78539, Note_on_c, 13, 55, 0
11, 78540, Note_on_c, 13, 57, 44
11, 78540, Note_on_c, 13, 60, 44
11, 78719, Note_on_c, 13, 60, 0
11, 78719, Note_on_c, 13, 57, 0
11, 79200, Note_on_c, 13, 59, 44
11, 79200, Note_on_c, 13, 55, 44
11, 79229, Note_on_c, 13, 55, 0
11, 79229, Note_on_c, 13, 59, 0
11, 79230, Note_on_c, 13, 57, 44
11, 79230, Note_on_c, 13, 60, 44
11, 79259, Note_on_c, 13, 60, 0
11, 79259, Note_on_c, 13, 57, 0
11, 79260, Note_on_c, 13, 62, 44
11, 79260, Note_on_c, 13, 59, 44
11, 79439, Note_on_c, 13, 59, 0
11, 79439, Note_on_c, 13, 62, 0
11, 79920, Note_on_c, 13, 59, 44
11, 79920, Note_on_c, 13, 62, 44
11, 80099, Note_on_c, 13, 62, 0
11, 80099, Note_on_c, 13, 59, 0
11, 80160, Note_on_c, 13, 59, 44
11, 80160, Note_on_c, 13, 62, 44
11, 80339, Note_on_c, 13, 62, 0
11, 80339, Note_on_c, 13, 59, 0
11, 80400, Note_on_c, 13, 59, 44
11, 80400, Note_on_c, 13, 62, 44
11, 80579, Note_on_c, 13, 62, 0
11, 80579, Note_on_c, 13, 59, 0
11, 80640, Note_on_c, 13, 60, 44
11, 80640, Note_on_c, 13, 64, 44
11, 80819, Note_on_c, 13, 64, 0
11, 80819, Note_on_c, 13, 60, 0
11, 80820, Note_on_c, 13, 66, 44
11, 80820, Note_on_c, 13, 62, 44
11, 80879, Note_on_c, 13, 62, 0
11, 80879, Note_on_c, 13, 66, 0
11, 80880, Note_on_c, 13, 67, 44
11, 80880, Note_on_c, 13, 64, 44
11, 80984, Note_on_c, 13, 64, 0
11, 80984, Note_on_c, 13, 67, 0
11, 81000, Note_on_c, 13, 62, 44
11, 81000, Note_on_c, 13, 66, 44
11, 81089, Note_on_c, 13, 66, 0
11, 81089, Note_on_c, 13, 62, 0
11, 81120, Note_on_c, 13, 60, 44
11, 81120, Note_on_c, 13, 64, 44
11, 81209, Note_on_c, 13, 64, 0
11, 81209, Note_on_c, 13, 60, 0
11, 81240, Note_on_c, 13, 62, 44
11, 81240, Note_on_c, 13, 59, 44
11, 81329, Note_on_c, 13, 59, 0
11, 81329, Note_on_c, 13, 62, 0
11, 81360, Note_on_c, 13, 62, 44
11, 81360, Note_on_c, 13, 59, 44
11, 81419, Note_on_c, 13, 59, 0
11, 81419, Note_on_c, 13, 62, 0
11, 81420, Note_on_c, 13, 60, 44
11, 81420, Note_on_c, 13, 57, 44
11, 81599, Note_on_c, 13, 57, 0
11, 81599, Note_on_c, 13, 60, 0
11, 81600, Note_on_c, 13, 59, 44
11, 81600, Note_on_c, 13, 55, 44
11, 81839, Note_on_c, 13, 55, 0
11, 81839, Note_on_c, 13, 59, 0
11, 81840, Note_on_c, 13, 57, 44
11, 81840, Note_on_c, 13, 54, 44
11, 82064, Note_on_c, 13, 54, 0
11, 82064, Note_on_c, 13, 57, 0
11, 82080, Note_on_c, 13, 55, 80
11, 82319, Note_on_c, 13, 55, 0
11, 82560, Note_on_c, 13, 67, 80
11, 82784, Note_on_c, 13, 67, 0
11, 82800, Note_on_c, 13, 66, 80
11, 83039, Note_on_c, 13, 66, 0
11, 83280, Note_on_c, 13, 66, 80
11, 83504, Note_on_c, 13, 66, 0
11, 83520, Note_on_c, 13, 64, 80
11, 83571, Note_on_c, 13, 64, 0
11, 83580, Note_on_c, 13, 64, 80
11, 83631, Note_on_c, 13, 64, 0
11, 83640, Note_on_c, 13, 63, 80
11, 83691, Note_on_c, 13, 63, 0
11, 83700, Note_on_c, 13, 63, 80
11, 83751, Note_on_c, 13, 63, 0
11, 83760, Note_on_c, 13, 64, 80
11, 83811, Note_on_c, 13, 64, 0
11, 83820, Note_on_c, 13, 64, 80
11, 83871, Note_on_c, 13, 64, 0
11, 83880, Note_on_c, 13, 63, 80
11, 83931, Note_on_c, 13, 63, 0
11, 83940, Note_on_c, 13, 63, 80
11, 83991, Note_on_c, 13, 63, 0
11, 84000, Note_on_c, 13, 64, 80
11, 84051, Note_on_c, 13, 64, 0
11, 84060, Note_on_c, 13, 64, 80
11, 84111, Note_on_c, 13, 64, 0
11, 84120, Note_on_c, 13, 60, 80
11, 84171, Note_on_c, 13, 60, 0
11, 84180, Note_on_c, 13, 60, 80
11, 84231, Note_on_c, 13, 60, 0
11, 84240, Note_on_c, 13, 59, 80
11, 84291, Note_on_c, 13, 59, 0
11, 84300, Note_on_c, 13, 59, 80
11, 84351, Note_on_c, 13, 59, 0
11, 84360, Note_on_c, 13, 57, 80
11, 84411, Note_on_c, 13, 57, 0
11, 84420, Note_on_c, 13, 57, 80
11, 84471, Note_on_c, 13, 57, 0
11, 84480, Note_on_c, 13, 55, 80
11, 84531, Note_on_c, 13, 55, 0
11, 84540, Note_on_c, 13, 55, 80
11, 84591, Note_on_c, 13, 55, 0
11, 84600, Note_on_c, 13, 57, 80
11, 84651, Note_on_c, 13, 57, 0
11, 84660, Note_on_c, 13, 57, 80
11, 84711, Note_on_c, 13, 57, 0
11, 84720, Note_on_c, 13, 59, 80
11, 84771, Note_on_c, 13, 59, 0
11, 84780, Note_on_c, 13, 59, 80
11, 84831, Note_on_c, 13, 59, 0
11, 84840, Note_on_c, 13, 62, 80
11, 84891, Note_on_c, 13, 62, 0
11, 84900, Note_on_c, 13, 62, 80
11, 84951, Note_on_c, 13, 62, 0
11, 84960, Note_on_c, 13, 60, 80
11, 85011, Note_on_c, 13, 60, 0
11, 85020, Note_on_c, 13, 60, 80
11, 85071, Note_on_c, 13, 60, 0
11, 85080, Note_on_c, 13, 60, 80
11, 85131, Note_on_c, 13, 60, 0
11, 85140, Note_on_c, 13, 60, 80
11, 85191, Note_on_c, 13, 60, 0
11, 85200, Note_on_c, 13, 60, 80
11, 85251, Note_on_c, 13, 60, 0
11, 85260, Note_on_c, 13, 60, 80
11, 85311, Note_on_c, 13, 60, 0
11, 85320, Note_on_c, 13, 60, 80
11, 85371, Note_on_c, 13, 60, 0
11, 85380, Note_on_c, 13, 60, 80
11, 85431, Note_on_c, 13, 60, 0
11, 85440, Note_on_c, 13, 59, 80
11, 85491, Note_on_c, 13, 59, 0
11, 85500, Note_on_c, 13, 59, 80
11, 85551, Note_on_c, 13, 59, 0
11, 85560, Note_on_c, 13, 59, 80
11, 85611, Note_on_c, 13, 59, 0
11, 85620, Note_on_c, 13, 59, 80
11, 85671, Note_on_c, 13, 59, 0
11, 85680, Note_on_c, 13, 57, 80
11, 85731, Note_on_c, 13, 57, 0
11, 85740, Note_on_c, 13, 57, 80
11, 85791, Note_on_c, 13, 57, 0
11, 85800, Note_on_c, 13, 57, 80
11, 85851, Note_on_c, 13, 57, 0
11, 85860, Note_on_c, 13, 57, 80
11, 85911, Note_on_c, 13, 57, 0
11, 85920, Note_on_c, 13, 66, 80
11, 86024, Note_on_c, 13, 66, 0
11, 86040, Note_on_c, 13, 62, 80
11, 86144, Note_on_c, 13, 62, 0
11, 86160, Note_on_c, 13, 62, 80
11, 86264, Note_on_c, 13, 62, 0
11, 86280, Note_on_c, 13, 71, 80
11, 86384, Note_on_c, 13, 71, 0
11, 86400, Note_on_c, 13, 72, 80
11, 86624, Note_on_c, 13, 72, 0
11, 86640, Note_on_c, 13, 71, 80
11, 86864, Note_on_c, 13, 71, 0
11, 86880, Note_on_c, 13, 69, 80
11, 87104, Note_on_c, 13, 69, 0
11, 87120, Note_on_c, 13, 67, 80
11, 87299, Note_on_c, 13, 67, 0
11, 87360, Note_on_c, 13, 62, 80
11, 87539, Note_on_c, 13, 62, 0
11, 87600, Note_on_c, 13, 60, 80
11, 87779, Note_on_c, 13, 60, 0
11, 87840, Note_on_c, 13, 56, 80
11, 88019, Note_on_c, 13, 56, 0
11, 88080, Note_on_c, 13, 57, 80
11, 88259, Note_on_c, 13, 57, 0
11, 88800, Note_on_c, 13, 57, 44
11, 89039, Note_on_c, 13, 57, 0
11, 89040, Note_on_c, 13, 55, 44
11, 89264, Note_on_c, 13, 55, 0
11, 89280, Note_on_c, 13, 54, 44
11, 89459, Note_on_c, 13, 54, 0
11, 89520, Note_on_c, 13, 50, 44
11, 89759, Note_on_c, 13, 50, 0
11, 89760, Note_on_c, 13, 52, 44
11, 89984, Note_on_c, 13, 52, 0
11, 90000, Note_on_c, 13, 48, 44
11, 90224, Note_on_c, 13, 48, 0
11, 90240, Note_on_c, 13, 50, 44
11, 90464, Note_on_c, 13, 50, 0
11, 90480, Note_on_c, 13, 50, 44
11, 90704, Note_on_c, 13, 50, 0
11, 90720, Note_on_c, 13, 55, 82
11, 90771, Note_on_c, 13, 55, 0
11, 90780, Note_on_c, 13, 62, 77
11, 90831, Note_on_c, 13, 62, 0
11, 90840, Note_on_c, 13, 62, 82
11, 90891, Note_on_c, 13, 62, 0
11, 90900, Note_on_c, 13, 62, 82
11, 90951, Note_on_c, 13, 62, 0
11, 90960, Note_on_c, 13, 62, 83
11, 91011, Note_on_c, 13, 62, 0
11, 91020, Note_on_c, 13, 62, 83
11, 91071, Note_on_c, 13, 62, 0
11, 91080, Note_on_c, 13, 62, 80
11, 91131, Note_on_c, 13, 62, 0
11, 91140, Note_on_c, 13, 62, 79
11, 91191, Note_on_c, 13, 62, 0
11, 91200, Note_on_c, 13, 62, 78
11, 91251, Note_on_c, 13, 62, 0
11, 91260, Note_on_c, 13, 62, 78
11, 91311, Note_on_c, 13, 62, 0
11, 91320, Note_on_c, 13, 62, 82
11, 91371, Note_on_c, 13, 62, 0
11, 91380, Note_on_c, 13, 62, 76
11, 91431, Note_on_c, 13, 62, 0
11, 91440, Note_on_c, 13, 62, 79
11, 91491, Note_on_c, 13, 62, 0
11, 91500, Note_on_c, 13, 62, 76
11, 91551, Note_on_c, 13, 62, 0
11, 91560, Note_on_c, 13, 62, 81
11, 91611, Note_on_c, 13, 62, 0
11, 91620, Note_on_c, 13, 62, 76
11, 91671, Note_on_c, 13, 62, 0
11, 91680, Note_on_c, 13, 62, 76
11, 91731, Note_on_c, 13, 62, 0
11, 91740, Note_on_c, 13, 62, 83
11, 91791, Note_on_c, 13, 62, 0
11, 91800, Note_on_c, 13, 62, 78
11, 91851, Note_on_c, 13, 62, 0
11, 91860, Note_on_c, 13, 62, 78
11, 91911, Note_on_c, 13, 62, 0
11, 91920, Note_on_c, 13, 62, 80
11, 91971, Note_on_c, 13, 62, 0
11, 91980, Note_on_c, 13, 62, 81
11, 92031, Note_on_c, 13, 62, 0
11, 92040, Note_on_c, 13, 62, 82
11, 92091, Note_on_c, 13, 62, 0
11, 92100, Note_on_c, 13, 62, 81
11, 92151, Note_on_c, 13, 62, 0
11, 92160, Note_on_c, 13, 62, 79
11, 92211, Note_on_c, 13, 62, 0
11, 92220, Note_on_c, 13, 62, 77
11, 92271, Note_on_c, 13, 62, 0
11, 92280, Note_on_c, 13, 62, 81
11, 92331, Note_on_c, 13, 62, 0
11, 92340, Note_on_c, 13, 62, 79
11, 92391, Note_on_c, 13, 62, 0
11, 92400, Note_on_c, 13, 62, 79
11, 92451, Note_on_c, 13, 62, 0
11, 92460, Note_on_c, 13, 62, 83
11, 92511, Note_on_c, 13, 62, 0
11, 92520, Note_on_c, 13, 62, 81
11, 92571, Note_on_c, 13, 62, 0
11, 92580, Note_on_c, 13, 62, 76
11, 92631, Note_on_c, 13, 62, 0
11, 92640, Note_on_c, 13, 62, 80
11, 92691, Note_on_c, 13, 62, 0
11, 92700, Note_on_c, 13, 62, 79
11, 92751, Note_on_c, 13, 62, 0
11, 92760, Note_on_c, 13, 62, 81
11, 92811, Note_on_c, 13, 62, 0
11, 92820, Note_on_c, 13, 62, 80
11, 92871, Note_on_c, 13, 62, 0
11, 92880, Note_on_c, 13, 62, 80
11, 92931, Note_on_c, 13, 62, 0
11, 92940, Note_on_c, 13, 62, 78
11, 92991, Note_on_c, 13, 62, 0
11, 93000, Note_on_c, 13, 62, 77
11, 93051, Note_on_c, 13, 62, 0
11, 93060, Note_on_c, 13, 62, 77
11, 93111, Note_on_c, 13, 62, 0
11, 93120, Note_on_c, 13, 62, 79
11, 93171, Note_on_c, 13, 62, 0
11, 93180, Note_on_c, 13, 62, 82
11, 93231, Note_on_c, 13, 62, 0
11, 93240, Note_on_c, 13, 62, 80
11, 93291, Note_on_c, 13, 62, 0
11, 93300, Note_on_c, 13, 62, 83
11, 93351, Note_on_c, 13, 62, 0
11, 93360, Note_on_c, 13, 62, 82
11, 93411, Note_on_c, 13, 62, 0
11, 93420, Note_on_c, 13, 62, 78
11, 93471, Note_on_c, 13, 62, 0
11, 93480, Note_on_c, 13, 62, 77
11, 93531, Note_on_c, 13, 62, 0
11, 93540, Note_on_c, 13, 62, 81
11, 93591, Note_on_c, 13, 62, 0
11, 93600, Note_on_c, 13, 67, 80
11, 93839, Note_on_c, 13, 67, 0
11, 94080, Note_on_c, 13, 62, 80
11, 94304, Note_on_c, 13, 62, 0
11, 94320, Note_on_c, 13, 67, 80
11, 94559, Note_on_c, 13, 67, 0
11, 94800, Note_on_c, 13, 62, 80
11, 95024, Note_on_c, 13, 62, 0
11, 95040, Note_on_c, 13, 55, 80
11, 95264, Note_on_c, 13, 55, 0
11, 95280, Note_on_c, 13, 55, 80
11, 95369, Note_on_c, 13, 55, 0
11, 95400, Note_on_c, 13, 57, 80
11, 95489, Note_on_c, 13, 57, 0
11, 95520, Note_on_c, 13, 59, 80
11, 95609, Note_on_c, 13, 59, 0
11, 95640, Note_on_c, 13, 60, 80
11, 95729, Note_on_c, 13, 60, 0
11, 95760, Note_on_c, 13, 62, 80
11, 95849, Note_on_c, 13, 62, 0
11, 95880, Note_on_c, 13, 64, 80
11, 95969, Note_on_c, 13, 64, 0
11, 96000, Note_on_c, 13, 65, 80
11, 96089, Note_on_c, 13, 65, 0
11, 96120, Note_on_c, 13, 62, 80
11, 96209, Note_on_c, 13, 62, 0
11, 96240, Note_on_c, 13, 59, 80
11, 96329, Note_on_c, 13, 59, 0
11, 96360, Note_on_c, 13, 55, 80
11, 96449, Note_on_c, 13, 55, 0
11, 96480, Note_on_c, 13, 60, 80
11, 96719, Note_on_c, 13, 60, 0
11, 97920, Note_on_c, 13, 72, 80
11, 97959, Note_on_c, 13, 72, 0
11, 97960, Note_on_c, 13, 74, 80
11, 97999, Note_on_c, 13, 74, 0
11, 98000, Note_on_c, 13, 72, 80
11, 98039, Note_on_c, 13, 72, 0
11, 98040, Note_on_c, 13, 74, 80
11, 98079, Note_on_c, 13, 74, 0
11, 98080, Note_on_c, 13, 71, 80
11, 98119, Note_on_c, 13, 71, 0
11, 98120, Note_on_c, 13, 72, 80
11, 98159, Note_on_c, 13, 72, 0
11, 98160, Note_on_c, 13, 74, 80
11, 98264, Note_on_c, 13, 74, 0
11, 98280, Note_on_c, 13, 72, 80
11, 98369, Note_on_c, 13, 72, 0
11, 98400, Note_on_c, 13, 70, 80
11, 98489, Note_on_c, 13, 70, 0
11, 98520, Note_on_c, 13, 69, 80
11, 98609, Note_on_c, 13, 69, 0
11, 98640, Note_on_c, 13, 70, 80
11, 98679, Note_on_c, 13, 70, 0
11, 98680, Note_on_c, 13, 72, 80
11, 98719, Note_on_c, 13, 72, 0
11, 98720, Note_on_c, 13, 70, 80
11, 98759, Note_on_c, 13, 70, 0
11, 98760, Note_on_c, 13, 72, 80
11, 98799, Note_on_c, 13, 72, 0
11, 98800, Note_on_c, 13, 69, 80
11, 98839, Note_on_c, 13, 69, 0
11, 98840, Note_on_c, 13, 70, 80
11, 98879, Note_on_c, 13, 70, 0
11, 98880, Note_on_c, 13, 72, 80
11, 98984, Note_on_c, 13, 72, 0
11, 99000, Note_on_c, 13, 70, 80
11, 99089, Note_on_c, 13, 70, 0
11, 99120, Note_on_c, 13, 69, 80
11, 99209, Note_on_c, 13, 69, 0
11, 99240, Note_on_c, 13, 67, 80
11, 99329, Note_on_c, 13, 67, 0
11, 99360, Note_on_c, 13, 69, 80
11, 99539, Note_on_c, 13, 69, 0
11, 99600, Note_on_c, 13, 57, 44
11, 99779, Note_on_c, 13, 57, 0
11, 99840, Note_on_c, 13, 53, 44
11, 100019, Note_on_c, 13, 53, 0
11, 100080, Note_on_c, 13, 55, 44
11, 100259, Note_on_c, 13, 55, 0
11, 100320, Note_on_c, 13, 55, 44
11, 100559, Note_on_c, 13, 55, 0
11, 100560, Note_on_c, 13, 52, 44
11, 100784, Note_on_c, 13, 52, 0
11, 100800, Note_on_c, 13, 53, 44
11, 101024, Note_on_c, 13, 53, 0
11, 101040, Note_on_c, 13, 57, 44
11, 101264, Note_on_c, 13, 57, 0
11, 101280, Note_on_c, 13, 53, 44
11, 101504, Note_on_c, 13, 53, 0
11, 101520, Note_on_c, 13, 55, 44
11, 101699, Note_on_c, 13, 55, 0
11, 101760, Note_on_c, 13, 55, 44
11, 101999, Note_on_c, 13, 55, 0
11, 102000, Note_on_c, 13, 52, 44
11, 102224, Note_on_c, 13, 52, 0
11, 102240, Note_on_c, 13, 53, 44
11, 102479, Note_on_c, 13, 53, 0
11, 102720, Note_on_c, 13, 60, 44
11, 102944, Note_on_c, 13, 60, 0
11, 102960, Note_on_c, 13, 60, 44
11, 103199, Note_on_c, 13, 60, 0
11, 103440, Note_on_c, 13, 55, 44
11, 103679, Note_on_c, 13, 55, 0
11, 103680, Note_on_c, 13, 53, 44
11, 103904, Note_on_c, 13, 53, 0
11, 103920, Note_on_c, 13, 62, 44
11, 104144, Note_on_c, 13, 62, 0
11, 104160, Note_on_c, 13, 59, 44
11, 104384, Note_on_c, 13, 59, 0
11, 104400, Note_on_c, 13, 59, 44
11, 104459, Note_on_c, 13, 59, 0
11, 104460, Note_on_c, 13, 60, 44
11, 104624, Note_on_c, 13, 60, 0
11, 104640, Note_on_c, 13, 60, 44
11, 104729, Note_on_c, 13, 60, 0
11, 104760, Note_on_c, 13, 60, 44
11, 104849, Note_on_c, 13, 60, 0
11, 104880, Note_on_c, 13, 60, 44
11, 104969, Note_on_c, 13, 60, 0
11, 105000, Note_on_c, 13, 60, 44
11, 105089, Note_on_c, 13, 60, 0
11, 105120, Note_on_c, 13, 55, 44
11, 105359, Note_on_c, 13, 55, 0
11, 105600, Note_on_c, 13, 67, 44
11, 105824, Note_on_c, 13, 67, 0
11, 105840, Note_on_c, 13, 67, 44
11, 106079, Note_on_c, 13, 67, 0
11, 106320, Note_on_c, 13, 62, 44
11, 106559, Note_on_c, 13, 62, 0
11, 106560, Note_on_c, 13, 60, 44
11, 106784, Note_on_c, 13, 60, 0
11, 106800, Note_on_c, 13, 57, 44
11, 107024, Note_on_c, 13, 57, 0
11, 107040, Note_on_c, 13, 54, 44
11, 107264, Note_on_c, 13, 54, 0
11, 107280, Note_on_c, 13, 55, 44
11, 107519, Note_on_c, 13, 55, 0
11, 108720, Note_on_c, 13, 55, 44
11, 108959, Note_on_c, 13, 55, 0
11, 110160, Note_on_c, 13, 55, 44
11, 110399, Note_on_c, 13, 55, 0
11, 110880, Note_on_c, 13, 55, 44
11, 111119, Note_on_c, 13, 55, 0
11, 111600, Note_on_c, 13, 55, 44
11, 111839, Note_on_c, 13, 55, 0
11, 113040, Note_on_c, 13, 72, 80
11, 113264, Note_on_c, 13, 72, 0
11, 113280, Note_on_c, 13, 67, 80
11, 113519, Note_on_c, 13, 67, 0
11, 113760, Note_on_c, 13, 64, 80
11, 113984, Note_on_c, 13, 64, 0
11, 114000, Note_on_c, 13, 60, 80
11, 114239, Note_on_c, 13, 60, 0
11, 117360, Note_on_c, 13, 72, 80
11, 117584, Note_on_c, 13, 72, 0
11, 117600, Note_on_c, 13, 67, 80
11, 117839, Note_on_c, 13, 67, 0
11, 118080, Note_on_c, 13, 64, 80
11, 118304, Note_on_c, 13, 64, 0
11, 118320, Note_on_c, 13, 60, 80
11, 118559, Note_on_c, 13, 60, 0
11, 121680, Note_on_c, 13, 64, 80
11, 121680, Note_on_c, 13, 55, 80
11, 121731, Note_on_c, 13, 55, 0
11, 121731, Note_on_c, 13, 64, 0
11, 121740, Note_on_c, 13, 64, 80
11, 121740, Note_on_c, 13, 55, 80
11, 121791, Note_on_c, 13, 55, 0
11, 121791, Note_on_c, 13, 64, 0
11, 121800, Note_on_c, 13, 55, 80
11, 121800, Note_on_c, 13, 64, 80
11, 121851, Note_on_c, 13, 64, 0
11, 121851, Note_on_c, 13, 55, 0
11, 121860, Note_on_c, 13, 55, 80
11, 121860, Note_on_c, 13, 64, 80
11, 121911, Note_on_c, 13, 64, 0
11, 121911, Note_on_c, 13, 55, 0
11, 121920, Note_on_c, 13, 64, 80
11, 121920, Note_on_c, 13, 55, 80
11, 121971, Note_on_c, 13, 55, 0
11, 121971, Note_on_c, 13, 64, 0
11, 121980, Note_on_c, 13, 55, 80
11, 121980, Note_on_c, 13, 64, 80
11, 122031, Note_on_c, 13, 64, 0
11, 122031, Note_on_c, 13, 55, 0
11, 122040, Note_on_c, 13, 55, 80
11, 122040, Note_on_c, 13, 64, 80
11, 122091, Note_on_c, 13, 64, 0
11, 122091, Note_on_c, 13, 55, 0
11, 122100, Note_on_c, 13, 64, 80
11, 122100, Note_on_c, 13, 55, 80
11, 122151, Note_on_c, 13, 55, 0
11, 122151, Note_on_c, 13, 64, 0
11, 122160, Note_on_c, 13, 67, 80
11, 122211, Note_on_c, 13, 67, 0
11, 122220, Note_on_c, 13, 67, 80
11, 122271, Note_on_c, 13, 67, 0
11, 122280, Note_on_c, 13, 67, 80
11, 122331, Note_on_c, 13, 67, 0
11, 122340, Note_on_c, 13, 67, 80
11, 122391, Note_on_c, 13, 67, 0
11, 122400, Note_on_c, 13, 69, 80
11, 122451, Note_on_c, 13, 69, 0
11, 122460, Note_on_c, 13, 69, 80
11, 122511, Note_on_c, 13, 69, 0
11, 122520, Note_on_c, 13, 69, 80
11, 122571, Note_on_c, 13, 69, 0
11, 122580, Note_on_c, 13, 69, 80
11, 122631, Note_on_c, 13, 69, 0
11, 122640, Note_on_c, 13, 69, 80
11, 122691, Note_on_c, 13, 69, 0
11, 122700, Note_on_c, 13, 69, 80
11, 122751, Note_on_c, 13, 69, 0
11, 122760, Note_on_c, 13, 69, 80
11, 122811, Note_on_c, 13, 69, 0
11, 122820, Note_on_c, 13, 69, 80
11, 122871, Note_on_c, 13, 69, 0
11, 122880, Note_on_c, 13, 67, 80
11, 122931, Note_on_c, 13, 67, 0
11, 122940, Note_on_c, 13, 67, 80
11, 122991, Note_on_c, 13, 67, 0
11, 123000, Note_on_c, 13, 67, 80
11, 123051, Note_on_c, 13, 67, 0
11, 123060, Note_on_c, 13, 67, 80
11, 123111, Note_on_c, 13, 67, 0
11, 123120, Note_on_c, 13, 65, 80
11, 123171, Note_on_c, 13, 65, 0
11, 123180, Note_on_c, 13, 65, 80
11, 123231, Note_on_c, 13, 65, 0
11, 123240, Note_on_c, 13, 65, 80
11, 123291, Note_on_c, 13, 65, 0
11, 123300, Note_on_c, 13, 65, 80
11, 123351, Note_on_c, 13, 65, 0
11, 123360, Note_on_c, 13, 65, 80
11, 123411, Note_on_c, 13, 65, 0
11, 123420, Note_on_c, 13, 65, 80
11, 123471, Note_on_c, 13, 65, 0
11, 123480, Note_on_c, 13, 65, 80
11, 123531, Note_on_c, 13, 65, 0
11, 123540, Note_on_c, 13, 65, 80
11, 123591, Note_on_c, 13, 65, 0
11, 123600, Note_on_c, 13, 65, 80
11, 123651, Note_on_c, 13, 65, 0
11, 123660, Note_on_c, 13, 65, 80
11, 123711, Note_on_c, 13, 65, 0
11, 123720, Note_on_c, 13, 64, 80
11, 123771, Note_on_c, 13, 64, 0
11, 123780, Note_on_c, 13, 64, 80
11, 123831, Note_on_c, 13, 64, 0
11, 123840, Note_on_c, 13, 65, 80
11, 123891, Note_on_c, 13, 65, 0
11, 123900, Note_on_c, 13, 65, 80
11, 123951, Note_on_c, 13, 65, 0
11, 123960, Note_on_c, 13, 65, 80
11, 124011, Note_on_c, 13, 65, 0
11, 124020, Note_on_c, 13, 65, 80
11, 124071, Note_on_c, 13, 65, 0
11, 124080, Note_on_c, 13, 67, 80
11, 124131, Note_on_c, 13, 67, 0
11, 124140, Note_on_c, 13, 67, 80
11, 124191, Note_on_c, 13, 67, 0
11, 124200, Note_on_c, 13, 67, 80
11, 124251, Note_on_c, 13, 67, 0
11, 124260, Note_on_c, 13, 67, 80
11, 124311, Note_on_c, 13, 67, 0
11, 124320, Note_on_c, 13, 67, 80
11, 124371, Note_on_c, 13, 67, 0
11, 124380, Note_on_c, 13, 67, 80
11, 124431, Note_on_c, 13, 67, 0
11, 124440, Note_on_c, 13, 67, 80
11, 124491, Note_on_c, 13, 67, 0
11, 124500, Note_on_c, 13, 67, 80
11, 124551, Note_on_c, 13, 67, 0
11, 124560, Note_on_c, 13, 67, 80
11, 124611, Note_on_c, 13, 67, 0
11, 124620, Note_on_c, 13, 67, 80
11, 124671, Note_on_c, 13, 67, 0
11, 124680, Note_on_c, 13, 67, 80
11, 124731, Note_on_c, 13, 67, 0
11, 124740, Note_on_c, 13, 67, 80
11, 124791, Note_on_c, 13, 67, 0
11, 124800, Note_on_c, 13, 69, 80
11, 124851, Note_on_c, 13, 69, 0
11, 124860, Note_on_c, 13, 69, 80
11, 124911, Note_on_c, 13, 69, 0
11, 124920, Note_on_c, 13, 69, 80
11, 124971, Note_on_c, 13, 69, 0
11, 124980, Note_on_c, 13, 69, 80
11, 125031, Note_on_c, 13, 69, 0
11, 125040, Note_on_c, 13, 67, 80
11, 125091, Note_on_c, 13, 67, 0
11, 125100, Note_on_c, 13, 67, 80
11, 125151, Note_on_c, 13, 67, 0
11, 125160, Note_on_c, 13, 67, 80
11, 125211, Note_on_c, 13, 67, 0
11, 125220, Note_on_c, 13, 67, 80
11, 125271, Note_on_c, 13, 67, 0
11, 125280, Note_on_c, 13, 67, 80
11, 125331, Note_on_c, 13, 67, 0
11, 125340, Note_on_c, 13, 67, 80
11, 125391, Note_on_c, 13, 67, 0
11, 125400, Note_on_c, 13, 67, 80
11, 125451, Note_on_c, 13, 67, 0
11, 125460, Note_on_c, 13, 67, 80
11, 125511, Note_on_c, 13, 67, 0
11, 125520, Note_on_c, 13, 67, 80
11, 125571, Note_on_c, 13, 67, 0
11, 125580, Note_on_c, 13, 67, 80
11, 125631, Note_on_c, 13, 67, 0
11, 125640, Note_on_c, 13, 67, 80
11, 125691, Note_on_c, 13, 67, 0
11, 125700, Note_on_c, 13, 67, 80
11, 125751, Note_on_c, 13, 67, 0
11, 125760, Note_on_c, 13, 67, 80
11, 125811, Note_on_c, 13, 67, 0
11, 125820, Note_on_c, 13, 67, 80
11, 125871, Note_on_c, 13, 67, 0
11, 125880, Note_on_c, 13, 67, 80
11, 125931, Note_on_c, 13, 67, 0
11, 125940, Note_on_c, 13, 67, 80
11, 125991, Note_on_c, 13, 67, 0
11, 126000, Note_on_c, 13, 69, 80
11, 126224, Note_on_c, 13, 69, 0
11, 126240, Note_on_c, 13, 67, 80
11, 126464, Note_on_c, 13, 67, 0
11, 126480, Note_on_c, 13, 55, 80
11, 126704, Note_on_c, 13, 55, 0
11, 126720, Note_on_c, 13, 60, 80
11, 126824, Note_on_c, 13, 60, 0
11, 126840, Note_on_c, 13, 67, 80
11, 126944, Note_on_c, 13, 67, 0
11, 126960, Note_on_c, 13, 72, 80
11, 127064, Note_on_c, 13, 72, 0
11, 127080, Note_on_c, 13, 67, 80
11, 127184, Note_on_c, 13, 67, 0
11, 127200, Note_on_c, 13, 64, 80
11, 127304, Note_on_c, 13, 64, 0
11, 127320, Note_on_c, 13, 60, 80
11, 127424, Note_on_c, 13, 60, 0
11, 127440, Note_on_c, 13, 58, 80
11, 127679, Note_on_c, 13, 58, 0
11, 128160, Note_on_c, 13, 57, 80
11, 128264, Note_on_c, 13, 57, 0
11, 128280, Note_on_c, 13, 65, 80
11, 128384, Note_on_c, 13, 65, 0
11, 128400, Note_on_c, 13, 69, 80
11, 128504, Note_on_c, 13, 69, 0
11, 128520, Note_on_c, 13, 65, 80
11, 128624, Note_on_c, 13, 65, 0
11, 128640, Note_on_c, 13, 60, 80
11, 128744, Note_on_c, 13, 60, 0
11, 128760, Note_on_c, 13, 65, 80
11, 128864, Note_on_c, 13, 65, 0
11, 128880, Note_on_c, 13, 57, 80
11, 129119, Note_on_c, 13, 57, 0
11, 129600, Note_on_c, 13, 55, 80
11, 129704, Note_on_c, 13, 55, 0
11, 129720, Note_on_c, 13, 67, 80
11, 129824, Note_on_c, 13, 67, 0
11, 129840, Note_on_c, 13, 73, 80
11, 129944, Note_on_c, 13, 73, 0
11, 129960, Note_on_c, 13, 67, 80
11, 130064, Note_on_c, 13, 67, 0
11, 130080, Note_on_c, 13, 76, 80
11, 130184, Note_on_c, 13, 76, 0
11, 130200, Note_on_c, 13, 73, 80
11, 130304, Note_on_c, 13, 73, 0
11, 130320, Note_on_c, 13, 67, 80
11, 130559, Note_on_c, 13, 67, 0
11, 131040, Note_on_c, 13, 53, 80
11, 131144, Note_on_c, 13, 53, 0
11, 131160, Note_on_c, 13, 65, 80
11, 131264, Note_on_c, 13, 65, 0
11, 131280, Note_on_c, 13, 69, 80
11, 131384, Note_on_c, 13, 69, 0
11, 131400, Note_on_c, 13, 65, 80
11, 131504, Note_on_c, 13, 65, 0
11, 131520, Note_on_c, 13, 74, 80
11, 131624, Note_on_c, 13, 74, 0
11, 131640, Note_on_c, 13, 69, 80
11, 131744, Note_on_c, 13, 69, 0
11, 131760, Note_on_c, 13, 65, 80
11, 131999, Note_on_c, 13, 65, 0
11, 132480, Note_on_c, 13, 66, 80
11, 132584, Note_on_c, 13, 66, 0
11, 132600, Note_on_c, 13, 69, 80
11, 132704, Note_on_c, 13, 69, 0
11, 132720, Note_on_c, 13, 74, 80
11, 132824, Note_on_c, 13, 74, 0
11, 132840, Note_on_c, 13, 69, 80
11, 132944, Note_on_c, 13, 69, 0
11, 132960, Note_on_c, 13, 74, 80
11, 133064, Note_on_c, 13, 74, 0
11, 133080, Note_on_c, 13, 69, 80
11, 133184, Note_on_c, 13, 69, 0
11, 133200, Note_on_c, 13, 66, 80
11, 133439, Note_on_c, 13, 66, 0
11, 133920, Note_on_c, 13, 55, 80
11, 134024, Note_on_c, 13, 55, 0
11, 134040, Note_on_c, 13, 67, 80
11, 134144, Note_on_c, 13, 67, 0
11, 134160, Note_on_c, 13, 74, 80
11, 134264, Note_on_c, 13, 74, 0
11, 134280, Note_on_c, 13, 71, 80
11, 134384, Note_on_c, 13, 71, 0
11, 134400, Note_on_c, 13, 67, 80
11, 134504, Note_on_c, 13, 67, 0
11, 134520, Note_on_c, 13, 62, 80
11, 134624, Note_on_c, 13, 62, 0
11, 134640, Note_on_c, 13, 59, 80
11, 134879, Note_on_c, 13, 59, 0
11, 135360, Note_on_c, 13, 60, 80
11, 135464, Note_on_c, 13, 60, 0
11, 135480, Note_on_c, 13, 60, 80
11, 135584, Note_on_c, 13, 60, 0
11, 135600, Note_on_c, 13, 60, 80
11, 135704, Note_on_c, 13, 60, 0
11, 135720, Note_on_c, 13, 60, 80
11, 135824, Note_on_c, 13, 60, 0
11, 135840, Note_on_c, 13, 60, 80
11, 135944, Note_on_c, 13, 60, 0
11, 135960, Note_on_c, 13, 60, 80
11, 136064, Note_on_c, 13, 60, 0
11, 136080, Note_on_c, 13, 69, 80
11, 136184, Note_on_c, 13, 69, 0
11, 136200, Note_on_c, 13, 69, 80
11, 136304, Note_on_c, 13, 69, 0
11, 136320, Note_on_c, 13, 69, 80
11, 136424, Note_on_c, 13, 69, 0
11, 136440, Note_on_c, 13, 69, 80
11, 136544, Note_on_c, 13, 69, 0
11, 136560, Note_on_c, 13, 69, 80
11, 136664, Note_on_c, 13, 69, 0
11, 136680, Note_on_c, 13, 69, 80
11, 136784, Note_on_c, 13, 69, 0
11, 136800, Note_on_c, 13, 64, 80
11, 136904, Note_on_c, 13, 64, 0
11, 136920, Note_on_c, 13, 64, 80
11, 137024, Note_on_c, 13, 64, 0
11, 137040, Note_on_c, 13, 64, 80
11, 137144, Note_on_c, 13, 64, 0
11, 137160, Note_on_c, 13, 64, 80
11, 137264, Note_on_c, 13, 64, 0
11, 137280, Note_on_c, 13, 64, 80
11, 137384, Note_on_c, 13, 64, 0
11, 137400, Note_on_c, 13, 64, 80
11, 137504, Note_on_c, 13, 64, 0
11, 137520, Note_on_c, 13, 65, 80
11, 137624, Note_on_c, 13, 65, 0
11, 137640, Note_on_c, 13, 65, 80
11, 137744, Note_on_c, 13, 65, 0
11, 137760, Note_on_c, 13, 65, 80
11, 137864, Note_on_c, 13, 65, 0
11, 137880, Note_on_c, 13, 65, 80
11, 137984, Note_on_c, 13, 65, 0
11, 138000, Note_on_c, 13, 65, 80
11, 138104, Note_on_c, 13, 65, 0
11, 138120, Note_on_c, 13, 66, 80
11, 138224, Note_on_c, 13, 66, 0
11, 138240, Note_on_c, 13, 67, 80
11, 138464, Note_on_c, 13, 67, 0
11, 138480, Note_on_c, 13, 55, 80
11, 138719, Note_on_c, 13, 55, 0
11, 138960, Note_on_c, 13, 60, 44
11, 139199, Note_on_c, 13, 60, 0
11, 139680, Note_on_c, 13, 53, 44
11, 139919, Note_on_c, 13, 53, 0
11, 140400, Note_on_c, 13, 55, 44
11, 140639, Note_on_c, 13, 55, 0
11, 141120, Note_on_c, 13, 48, 44
11, 141359, Note_on_c, 13, 48, 0
11, 141840, Note_on_c, 13, 60, 44
11, 142079, Note_on_c, 13, 60, 0
11, 142560, Note_on_c, 13, 53, 44
11, 142799, Note_on_c, 13, 53, 0
11, 143280, Note_on_c, 13, 55, 44
11, 143519, Note_on_c, 13, 55, 0
11, 144720, Note_on_c, 13, 67, 44
11, 144720, Note_on_c, 13, 64, 44
11, 144899, Note_on_c, 13, 64, 0
11, 144899, Note_on_c, 13, 67, 0
11, 144960, Note_on_c, 13, 67, 44
11, 144960, Note_on_c, 13, 64, 44
11, 145139, Note_on_c, 13, 64, 0
11, 145139, Note_on_c, 13, 67, 0
11, 145200, Note_on_c, 13, 64, 44
11, 145200, Note_on_c, 13, 67, 44
11, 145379, Note_on_c, 13, 67, 0
11, 145379, Note_on_c, 13, 64, 0
11, 145440, Note_on_c, 13, 65, 44
11, 145440, Note_on_c, 13, 69, 44
11, 145799, Note_on_c, 13, 69, 0
11, 145799, Note_on_c, 13, 65, 0
11, 145800, Note_on_c, 13, 67, 44
11, 145800, Note_on_c, 13, 71, 44
11, 145904, Note_on_c, 13, 71, 0
11, 145904, Note_on_c, 13, 67, 0
11, 145920, Note_on_c, 13, 69, 44
11, 145920, Note_on_c, 13, 72, 44
11, 146099, Note_on_c, 13, 72, 0
11, 146099, Note_on_c, 13, 69, 0
11, 146160, Note_on_c, 13, 59, 44
11, 146160, Note_on_c, 13, 62, 44
11, 146189, Note_on_c, 13, 62, 0
11, 146189, Note_on_c, 13, 59, 0
11, 146190, Note_on_c, 13, 60, 44
11, 146190, Note_on_c, 13, 64, 44
11, 146219, Note_on_c, 13, 64, 0
11, 146219, Note_on_c, 13, 60, 0
11, 146220, Note_on_c, 13, 65, 44
11, 146220, Note_on_c, 13, 62, 44
11, 146399, Note_on_c, 13, 62, 0
11, 146399, Note_on_c, 13, 65, 0
11, 146880, Note_on_c, 13, 64, 44
11, 146880, Note_on_c, 13, 60, 44
11, 146909, Note_on_c, 13, 60, 0
11, 146909, Note_on_c, 13, 64, 0
11, 146910, Note_on_c, 13, 65, 44
11, 146910, Note_on_c, 13, 62, 44
11, 146939, Note_on_c, 13, 62, 0
11, 146939, Note_on_c, 13, 65, 0
11, 146940, Note_on_c, 13, 67, 44
11, 146940, Note_on_c, 13, 64, 44
11, 147119, Note_on_c, 13, 64, 0
11, 147119, Note_on_c, 13, 67, 0
11, 147600, Note_on_c, 13, 64, 44
11, 147600, Note_on_c, 13, 67, 44
11, 147779, Note_on_c, 13, 67, 0
11, 147779, Note_on_c, 13, 64, 0
11, 147840, Note_on_c, 13, 64, 44
11, 147840, Note_on_c, 13, 67, 44
11, 148019, Note_on_c, 13, 67, 0
11, 148019, Note_on_c, 13, 64, 0
11, 148080, Note_on_c, 13, 67, 44
11, 148080, Note_on_c, 13, 64, 44
11, 148259, Note_on_c, 13, 64, 0
11, 148259, Note_on_c, 13, 67, 0
11, 148320, Note_on_c, 13, 65, 44
11, 148320, Note_on_c, 13, 69, 44
11, 148499, Note_on_c, 13, 69, 0
11, 148499, Note_on_c, 13, 65, 0
11, 148500, Note_on_c, 13, 71, 44
11, 148500, Note_on_c, 13, 67, 44
11, 148559, Note_on_c, 13, 67, 0
11, 148559, Note_on_c, 13, 71, 0
11, 148560, Note_on_c, 13, 69, 44
11, 148560, Note_on_c, 13, 72, 44
11, 148664, Note_on_c, 13, 72, 0
11, 148664, Note_on_c, 13, 69, 0
11, 148680, Note_on_c, 13, 71, 44
11, 148680, Note_on_c, 13, 67, 44
11, 148769, Note_on_c, 13, 67, 0
11, 148769, Note_on_c, 13, 71, 0
11, 148800, Note_on_c, 13, 69, 44
11, 148800, Note_on_c, 13, 65, 44
11, 148889, Note_on_c, 13, 65, 0
11, 148889, Note_on_c, 13, 69, 0
11, 148920, Note_on_c, 13, 67, 44
11, 148920, Note_on_c, 13, 64, 44
11, 149009, Note_on_c, 13, 64, 0
11, 149009, Note_on_c, 13, 67, 0
11, 149040, Note_on_c, 13, 67, 44
11, 149040, Note_on_c, 13, 64, 44
11, 149099, Note_on_c, 13, 64, 0
11, 149099, Note_on_c, 13, 67, 0
11, 149100, Note_on_c, 13, 65, 44
11, 149100, Note_on_c, 13, 62, 44
11, 149279, Note_on_c, 13, 62, 0
11, 149279, Note_on_c, 13, 65, 0
11, 149280, Note_on_c, 13, 64, 44
11, 149280, Note_on_c, 13, 60, 44
11, 149519, Note_on_c, 13, 60, 0
11, 149519, Note_on_c, 13, 64, 0
11, 149520, Note_on_c, 13, 62, 44
11, 149520, Note_on_c, 13, 59, 44
11, 149744, Note_on_c, 13, 59, 0
11, 149744, Note_on_c, 13, 62, 0
11, 149760, Note_on_c, 13, 60, 80
11, 149999, Note_on_c, 13, 60, 0
11, 150240, Note_on_c, 13, 64, 80
11, 150464, Note_on_c, 13, 64, 0
11, 150480, Note_on_c, 13, 62, 80
11, 150719, Note_on_c, 13, 62, 0
11, 150960, Note_on_c, 13, 59, 80
11, 151184, Note_on_c, 13, 59, 0
11, 151200, Note_on_c, 13, 57, 80
11, 151251, Note_on_c, 13, 57, 0
11, 151260, Note_on_c, 13, 57, 80
11, 151311, Note_on_c, 13, 57, 0
11, 151320, Note_on_c, 13, 56, 80
11, 151371, Note_on_c, 13, 56, 0
11, 151380, Note_on_c, 13, 56, 80
11, 151431, Note_on_c, 13, 56, 0
11, 151440, Note_on_c, 13, 57, 80
11, 151491, Note_on_c, 13, 57, 0
11, 151500, Note_on_c, 13, 57, 80
11, 151551, Note_on_c, 13, 57, 0
11, 151560, Note_on_c, 13, 56, 80
11, 151611, Note_on_c, 13, 56, 0
11, 151620, Note_on_c, 13, 56, 80
11, 151671, Note_on_c, 13, 56, 0
11, 151680, Note_on_c, 13, 57, 80
11, 151731, Note_on_c, 13, 57, 0
11, 151740, Note_on_c, 13, 57, 80
11, 151791, Note_on_c, 13, 57, 0
11, 151800, Note_on_c, 13, 53, 80
11, 151851, Note_on_c, 13, 53, 0
11, 151860, Note_on_c, 13, 53, 80
11, 151911, Note_on_c, 13, 53, 0
11, 151920, Note_on_c, 13, 52, 80
11, 151971, Note_on_c, 13, 52, 0
11, 151980, Note_on_c, 13, 52, 80
11, 152031, Note_on_c, 13, 52, 0
11, 152040, Note_on_c, 13, 50, 80
11, 152091, Note_on_c, 13, 50, 0
11, 152100, Note_on_c, 13, 50, 80
11, 152151, Note_on_c, 13, 50, 0
11, 152160, Note_on_c, 13, 48, 80
11, 152211, Note_on_c, 13, 48, 0
11, 152220, Note_on_c, 13, 48, 80
11, 152271, Note_on_c, 13, 48, 0
11, 152280, Note_on_c, 13, 50, 80
11, 152331, Note_on_c, 13, 50, 0
11, 152340, Note_on_c, 13, 50, 80
11, 152391, Note_on_c, 13, 50, 0
11, 152400, Note_on_c, 13, 52, 80
11, 152451, Note_on_c, 13, 52, 0
11, 152460, Note_on_c, 13, 52, 80
11, 152511, Note_on_c, 13, 52, 0
11, 152520, Note_on_c, 13, 55, 80
11, 152571, Note_on_c, 13, 55, 0
11, 152580, Note_on_c, 13, 55, 80
11, 152631, Note_on_c, 13, 55, 0
11, 152640, Note_on_c, 13, 53, 80
11, 152691, Note_on_c, 13, 53, 0
11, 152700, Note_on_c, 13, 53, 80
11, 152751, Note_on_c, 13, 53, 0
11, 152760, Note_on_c, 13, 53, 80
11, 152811, Note_on_c, 13, 53, 0
11, 152820, Note_on_c, 13, 53, 80
11, 152871, Note_on_c, 13, 53, 0
11, 152880, Note_on_c, 13, 65, 80
11, 152931, Note_on_c, 13, 65, 0
11, 152940, Note_on_c, 13, 65, 80
11, 152991, Note_on_c, 13, 65, 0
11, 153000, Note_on_c, 13, 65, 80
11, 153051, Note_on_c, 13, 65, 0
11, 153060, Note_on_c, 13, 65, 80
11, 153111, Note_on_c, 13, 65, 0
11, 153120, Note_on_c, 13, 64, 80
11, 153171, Note_on_c, 13, 64, 0
11, 153180, Note_on_c, 13, 64, 80
11, 153231, Note_on_c, 13, 64, 0
11, 153240, Note_on_c, 13, 64, 80
11, 153291, Note_on_c, 13, 64, 0
11, 153300, Note_on_c, 13, 64, 80
11, 153351, Note_on_c, 13, 64, 0
11, 153360, Note_on_c, 13, 62, 80
11, 153411, Note_on_c, 13, 62, 0
11, 153420, Note_on_c, 13, 62, 80
11, 153471, Note_on_c, 13, 62, 0
11, 153480, Note_on_c, 13, 62, 80
11, 153531, Note_on_c, 13, 62, 0
11, 153540, Note_on_c, 13, 62, 80
11, 153591, Note_on_c, 13, 62, 0
11, 153600, Note_on_c, 13, 71, 80
11, 153719, Note_on_c, 13, 71, 0
11, 153720, Note_on_c, 13, 67, 80
11, 153824, Note_on_c, 13, 67, 0
11, 153840, Note_on_c, 13, 67, 80
11, 153959, Note_on_c, 13, 67, 0
11, 153960, Note_on_c, 13, 64, 80
11, 154064, Note_on_c, 13, 64, 0
11, 154080, Note_on_c, 13, 69, 80
11, 154304, Note_on_c, 13, 69, 0
11, 154320, Note_on_c, 13, 67, 80
11, 154544, Note_on_c, 13, 67, 0
11, 154560, Note_on_c, 13, 65, 80
11, 154784, Note_on_c, 13, 65, 0
11, 154800, Note_on_c, 13, 64, 80
11, 154979, Note_on_c, 13, 64, 0
11, 155040, Note_on_c, 13, 67, 80
11, 155219, Note_on_c, 13, 67, 0
11, 155280, Note_on_c, 13, 65, 80
11, 155459, Note_on_c, 13, 65, 0
11, 155520, Note_on_c, 13, 61, 80
11, 155699, Note_on_c, 13, 61, 0
11, 155760, Note_on_c, 13, 62, 80
11, 155939, Note_on_c, 13, 62, 0
11, 158400, Note_on_c, 13, 67, 77
11, 158400, Note_on_c, 13, 55, 82
11, 158451, Note_on_c, 13, 55, 0
11, 158451, Note_on_c, 13, 67, 0
11, 158460, Note_on_c, 13, 55, 82
11, 158460, Note_on_c, 13, 67, 82
11, 158511, Note_on_c, 13, 67, 0
11, 158511, Note_on_c, 13, 55, 0
11, 158520, Note_on_c, 13, 55, 83
11, 158520, Note_on_c, 13, 67, 83
11, 158571, Note_on_c, 13, 67, 0
11, 158571, Note_on_c, 13, 55, 0
11, 158580, Note_on_c, 13, 67, 80
11, 158580, Note_on_c, 13, 55, 79
11, 158631, Note_on_c, 13, 55, 0
11, 158631, Note_on_c, 13, 67, 0
11, 158640, Note_on_c, 13, 67, 78
11, 158640, Note_on_c, 13, 55, 78
11, 158691, Note_on_c, 13, 55, 0
11, 158691, Note_on_c, 13, 67, 0
11, 158700, Note_on_c, 13, 67, 76
11, 158700, Note_on_c, 13, 55, 82
11, 158751, Note_on_c, 13, 55, 0
11, 158751, Note_on_c, 13, 67, 0
11, 158760, Note_on_c, 13, 55, 76
11, 158760, Note_on_c, 13, 67, 79
11, 158811, Note_on_c, 13, 67, 0
11, 158811, Note_on_c, 13, 55, 0
11, 158820, Note_on_c, 13, 55, 76
11, 158820, Note_on_c, 13, 67, 81
11, 158871, Note_on_c, 13, 67, 0
11, 158871, Note_on_c, 13, 55, 0
11, 158880, Note_on_c, 13, 55, 76
11, 158880, Note_on_c, 13, 67, 83
11, 158931, Note_on_c, 13, 67, 0
11, 158931, Note_on_c, 13, 55, 0
11, 158940, Note_on_c, 13, 67, 78
11, 158940, Note_on_c, 13, 55, 78
11, 158991, Note_on_c, 13, 55, 0
11, 158991, Note_on_c, 13, 67, 0
11, 159000, Note_on_c, 13, 55, 81
11, 159000, Note_on_c, 13, 67, 80
11, 159051, Note_on_c, 13, 67, 0
11, 159051, Note_on_c, 13, 55, 0
11, 159060, Note_on_c, 13, 67, 82
11, 159060, Note_on_c, 13, 55, 81
11, 159111, Note_on_c, 13, 55, 0
11, 159111, Note_on_c, 13, 67, 0
11, 159120, Note_on_c, 13, 67, 77
11, 159120, Note_on_c, 13, 55, 79
11, 159171, Note_on_c, 13, 55, 0
11, 159171, Note_on_c, 13, 67, 0
11, 159180, Note_on_c, 13, 67, 81
11, 159180, Note_on_c, 13, 55, 79
11, 159231, Note_on_c, 13, 55, 0
11, 159231, Note_on_c, 13, 67, 0
11, 159240, Note_on_c, 13, 55, 83
11, 159240, Note_on_c, 13, 67, 79
11, 159291, Note_on_c, 13, 67, 0
11, 159291, Note_on_c, 13, 55, 0
11, 159300, Note_on_c, 13, 55, 76
11, 159300, Note_on_c, 13, 67, 81
11, 159351, Note_on_c, 13, 67, 0
11, 159351, Note_on_c, 13, 55, 0
11, 159360, Note_on_c, 13, 55, 80
11, 159360, Note_on_c, 13, 67, 79
11, 159411, Note_on_c, 13, 67, 0
11, 159411, Note_on_c, 13, 55, 0
11, 159420, Note_on_c, 13, 55, 81
11, 159420, Note_on_c, 13, 67, 80
11, 159471, Note_on_c, 13, 67, 0
11, 159471, Note_on_c, 13, 55, 0
11, 159480, Note_on_c, 13, 67, 80
11, 159480, Note_on_c, 13, 55, 78
11, 159531, Note_on_c, 13, 55, 0
11, 159531, Note_on_c, 13, 67, 0
11, 159540, Note_on_c, 13, 67, 77
11, 159540, Note_on_c, 13, 55, 77
11, 159591, Note_on_c, 13, 55, 0
11, 159591, Note_on_c, 13, 67, 0
11, 159600, Note_on_c, 13, 67, 79
11, 159600, Note_on_c, 13, 55, 82
11, 159651, Note_on_c, 13, 55, 0
11, 159651, Note_on_c, 13, 67, 0
11, 159660, Note_on_c, 13, 67, 83
11, 159660, Note_on_c, 13, 55, 80
11, 159711, Note_on_c, 13, 55, 0
11, 159711, Note_on_c, 13, 67, 0
11, 159720, Note_on_c, 13, 55, 78
11, 159720, Note_on_c, 13, 67, 82
11, 159771, Note_on_c, 13, 67, 0
11, 159771, Note_on_c, 13, 55, 0
11, 159780, Note_on_c, 13, 67, 81
11, 159780, Note_on_c, 13, 55, 77
11, 159831, Note_on_c, 13, 55, 0
11, 159831, Note_on_c, 13, 67, 0
11, 159840, Note_on_c, 13, 67, 79
11, 159840, Note_on_c, 13, 55, 76
11, 159891, Note_on_c, 13, 55, 0
11, 159891, Note_on_c, 13, 67, 0
11, 159900, Note_on_c, 13, 67, 81
11, 159900, Note_on_c, 13, 55, 80
11, 159951, Note_on_c, 13, 55, 0
11, 159951, Note_on_c, 13, 67, 0
11, 159960, Note_on_c, 13, 55, 77
11, 159960, Note_on_c, 13, 67, 83
11, 160011, Note_on_c, 13, 67, 0
11, 160011, Note_on_c, 13, 55, 0
11, 160020, Note_on_c, 13, 55, 77
11, 160020, Note_on_c, 13, 67, 83
11, 160071, Note_on_c, 13, 67, 0
11, 160071, Note_on_c, 13, 55, 0
11, 160080, Note_on_c, 13, 67, 81
11, 160080, Note_on_c, 13, 55, 78
11, 160131, Note_on_c, 13, 55, 0
11, 160131, Note_on_c, 13, 67, 0
11, 160140, Note_on_c, 13, 55, 79
11, 160140, Note_on_c, 13, 67, 76
11, 160191, Note_on_c, 13, 67, 0
11, 160191, Note_on_c, 13, 55, 0
11, 160200, Note_on_c, 13, 67, 83
11, 160200, Note_on_c, 13, 55, 81
11, 160251, Note_on_c, 13, 55, 0
11, 160251, Note_on_c, 13, 67, 0
11, 160260, Note_on_c, 13, 55, 77
11, 160260, Note_on_c, 13, 67, 83
11, 160311, Note_on_c, 13, 67, 0
11, 160311, Note_on_c, 13, 55, 0
11, 160320, Note_on_c, 13, 67, 82
11, 160320, Note_on_c, 13, 55, 80
11, 160371, Note_on_c, 13, 55, 0
11, 160371, Note_on_c, 13, 67, 0
11, 160380, Note_on_c, 13, 55, 77
11, 160380, Note_on_c, 13, 67, 77
11, 160431, Note_on_c, 13, 67, 0
11, 160431, Note_on_c, 13, 55, 0
11, 160440, Note_on_c, 13, 67, 79
11, 160440, Note_on_c, 13, 55, 82
11, 160491, Note_on_c, 13, 55, 0
11, 160491, Note_on_c, 13, 67, 0
11, 160500, Note_on_c, 13, 67, 77
11, 160500, Note_on_c, 13, 55, 80
11, 160551, Note_on_c, 13, 55, 0
11, 160551, Note_on_c, 13, 67, 0
11, 160560, Note_on_c, 13, 55, 81
11, 160560, Note_on_c, 13, 67, 79
11, 160611, Note_on_c, 13, 67, 0
11, 160611, Note_on_c, 13, 55, 0
11, 160620, Note_on_c, 13, 67, 80
11, 160620, Note_on_c, 13, 55, 78
11, 160671, Note_on_c, 13, 55, 0
11, 160671, Note_on_c, 13, 67, 0
11, 160680, Note_on_c, 13, 67, 82
11, 160680, Note_on_c, 13, 55, 81
11, 160731, Note_on_c, 13, 55, 0
11, 160731, Note_on_c, 13, 67, 0
11, 160740, Note_on_c, 13, 67, 79
11, 160740, Note_on_c, 13, 55, 81
11, 160791, Note_on_c, 13, 55, 0
11, 160791, Note_on_c, 13, 67, 0
11, 160800, Note_on_c, 13, 67, 78
11, 160800, Note_on_c, 13, 55, 76
11, 160851, Note_on_c, 13, 55, 0
11, 160851, Note_on_c, 13, 67, 0
11, 160860, Note_on_c, 13, 55, 82
11, 160860, Note_on_c, 13, 67, 76
11, 160911, Note_on_c, 13, 67, 0
11, 160911, Note_on_c, 13, 55, 0
11, 160920, Note_on_c, 13, 67, 81
11, 160920, Note_on_c, 13, 55, 80
11, 160971, Note_on_c, 13, 55, 0
11, 160971, Note_on_c, 13, 67, 0
11, 160980, Note_on_c, 13, 67, 79
11, 160980, Note_on_c, 13, 55, 76
11, 161031, Note_on_c, 13, 55, 0
11, 161031, Note_on_c, 13, 67, 0
11, 161040, Note_on_c, 13, 55, 83
11, 161040, Note_on_c, 13, 67, 83
11, 161091, Note_on_c, 13, 67, 0
11, 161091, Note_on_c, 13, 55, 0
11, 161100, Note_on_c, 13, 67, 78
11, 161100, Note_on_c, 13, 55, 80
11, 161151, Note_on_c, 13, 55, 0
11, 161151, Note_on_c, 13, 67, 0
11, 161160, Note_on_c, 13, 67, 78
11, 161160, Note_on_c, 13, 55, 79
11, 161211, Note_on_c, 13, 55, 0
11, 161211, Note_on_c, 13, 67, 0
11, 161220, Note_on_c, 13, 55, 82
11, 161220, Note_on_c, 13, 67, 78
11, 161271, Note_on_c, 13, 67, 0
11, 161271, Note_on_c, 13, 55, 0
11, 161280, Note_on_c, 13, 60, 80
11, 161519, Note_on_c, 13, 60, 0
11, 161760, Note_on_c, 13, 67, 80
11, 161984, Note_on_c, 13, 67, 0
11, 162000, Note_on_c, 13, 60, 80
11, 162239, Note_on_c, 13, 60, 0
11, 162480, Note_on_c, 13, 67, 80
11, 162704, Note_on_c, 13, 67, 0
11, 162720, Note_on_c, 13, 72, 80
11, 162944, Note_on_c, 13, 72, 0
11, 162960, Note_on_c, 13, 67, 80
11, 163199, Note_on_c, 13, 67, 0
11, 163440, Note_on_c, 13, 64, 80
11, 163664, Note_on_c, 13, 64, 0
11, 163680, Note_on_c, 13, 60, 80
11, 163919, Note_on_c, 13, 60, 0
11, 167040, Note_on_c, 13, 72, 80
11, 167079, Note_on_c, 13, 72, 0
11, 167080, Note_on_c, 13, 74, 80
11, 167119, Note_on_c, 13, 74, 0
11, 167120, Note_on_c, 13, 72, 80
11, 167159, Note_on_c, 13, 72, 0
11, 167160, Note_on_c, 13, 74, 80
11, 167199, Note_on_c, 13, 74, 0
11, 167200, Note_on_c, 13, 71, 80
11, 167239, Note_on_c, 13, 71, 0
11, 167240, Note_on_c, 13, 72, 80
11, 167271, Note_on_c, 13, 72, 0
11, 167280, Note_on_c, 13, 76, 80
11, 167369, Note_on_c, 13, 76, 0
11, 167400, Note_on_c, 13, 72, 80
11, 167489, Note_on_c, 13, 72, 0
11, 167520, Note_on_c, 13, 67, 80
11, 167609, Note_on_c, 13, 67, 0
11, 167640, Note_on_c, 13, 64, 80
11, 167729, Note_on_c, 13, 64, 0
11, 167760, Note_on_c, 13, 65, 80
11, 167879, Note_on_c, 13, 65, 0
11, 168000, Note_on_c, 13, 62, 80
11, 168119, Note_on_c, 13, 62, 0
11, 168240, Note_on_c, 13, 67, 80
11, 168359, Note_on_c, 13, 67, 0
11, 168480, Note_on_c, 13, 72, 80
11, 168519, Note_on_c, 13, 72, 0
11, 168520, Note_on_c, 13, 74, 80
11, 168559, Note_on_c, 13, 74, 0
11, 168560, Note_on_c, 13, 72, 80
11, 168599, Note_on_c, 13, 72, 0
11, 168600, Note_on_c, 13, 74, 80
11, 168639, Note_on_c, 13, 74, 0
11, 168640, Note_on_c, 13, 71, 80
11, 168679, Note_on_c, 13, 71, 0
11, 168680, Note_on_c, 13, 72, 80
11, 168711, Note_on_c, 13, 72, 0
11, 168720, Note_on_c, 13, 76, 80
11, 168809, Note_on_c, 13, 76, 0
11, 168840, Note_on_c, 13, 72, 80
11, 168929, Note_on_c, 13, 72, 0
11, 168960, Note_on_c, 13, 67, 80
11, 169049, Note_on_c, 13, 67, 0
11, 169080, Note_on_c, 13, 64, 80
11, 169169, Note_on_c, 13, 64, 0
11, 169200, Note_on_c, 13, 65, 80
11, 169319, Note_on_c, 13, 65, 0
11, 169440, Note_on_c, 13, 62, 80
11, 169559, Note_on_c, 13, 62, 0
11, 169680, Note_on_c, 13, 67, 80
11, 169799, Note_on_c, 13, 67, 0
11, 169920, Note_on_c, 13, 60, 80
11, 170159, Note_on_c, 13, 60, 0
11, 170640, Note_on_c, 13, 72, 80
11, 170691, Note_on_c, 13, 72, 0
11, 170700, Note_on_c, 13, 72, 80
11, 170751, Note_on_c, 13, 72, 0
11, 170760, Note_on_c, 13, 72, 80
11, 170811, Note_on_c, 13, 72, 0
11, 170820, Note_on_c, 13, 72, 80
11, 170871, Note_on_c, 13, 72, 0
11, 170880, Note_on_c, 13, 67, 80
11, 170931, Note_on_c, 13, 67, 0
11, 170940, Note_on_c, 13, 67, 80
11, 170991, Note_on_c, 13, 67, 0
11, 171000, Note_on_c, 13, 67, 80
11, 171051, Note_on_c, 13, 67, 0
11, 171060, Note_on_c, 13, 67, 80
11, 171111, Note_on_c, 13, 67, 0
11, 171120, Note_on_c, 13, 64, 80
11, 171171, Note_on_c, 13, 64, 0
11, 171180, Note_on_c, 13, 64, 80
11, 171231, Note_on_c, 13, 64, 0
11, 171240, Note_on_c, 13, 64, 80
11, 171291, Note_on_c, 13, 64, 0
11, 171300, Note_on_c, 13, 64, 80
11, 171351, Note_on_c, 13, 64, 0
11, 171360, Note_on_c, 13, 60, 80
11, 171411, Note_on_c, 13, 60, 0
11, 171420, Note_on_c, 13, 60, 80
11, 171471, Note_on_c, 13, 60, 0
11, 171480, Note_on_c, 13, 60, 80
11, 171531, Note_on_c, 13, 60, 0
11, 171540, Note_on_c, 13, 60, 80
11, 171591, Note_on_c, 13, 60, 0
11, 171600, Note_on_c, 13, 55, 80
11, 171651, Note_on_c, 13, 55, 0
11, 171660, Note_on_c, 13, 55, 80
11, 171711, Note_on_c, 13, 55, 0
11, 171720, Note_on_c, 13, 55, 80
11, 171771, Note_on_c, 13, 55, 0
11, 171780, Note_on_c, 13, 55, 80
11, 171831, Note_on_c, 13, 55, 0
11, 171840, Note_on_c, 13, 64, 80
11, 171891, Note_on_c, 13, 64, 0
11, 171900, Note_on_c, 13, 64, 80
11, 171951, Note_on_c, 13, 64, 0
11, 171960, Note_on_c, 13, 64, 80
11, 172011, Note_on_c, 13, 64, 0
11, 172020, Note_on_c, 13, 64, 80
11, 172071, Note_on_c, 13, 64, 0
11, 172080, Note_on_c, 13, 60, 80
11, 172319, Note_on_c, 13, 60, 0
11, 172319, End_track
12, 0, Start_track
12, 0, Title_t, "Cello"
12, 0, Program_c, 14, 48
12, 0, Control_c, 14, 7, 96
12, 0, Control_c, 14, 10, 100
12, 0, Control_c, 14, 121, 0
12, 0, Control_c, 14, 11, 127
12, 0, Note_on_c, 14, 60, 80
12, 224, Note_on_c, 14, 60, 0
12, 240, Note_on_c, 14, 55, 80
12, 479, Note_on_c, 14, 55, 0
12, 720, Note_on_c, 14, 52, 80
12, 944, Note_on_c, 14, 52, 0
12, 960, Note_on_c, 14, 48, 80
12, 1199, Note_on_c, 14, 48, 0
12, 4320, Note_on_c, 14, 60, 80
12, 4544, Note_on_c, 14, 60, 0
12, 4560, Note_on_c, 14, 55, 80
12, 4799, Note_on_c, 14, 55, 0
12, 5040, Note_on_c, 14, 52, 80
12, 5264, Note_on_c, 14, 52, 0
12, 5280, Note_on_c, 14, 48, 80
12, 5519, Note_on_c, 14, 48, 0
12, 8640, Note_on_c, 14, 48, 80
12, 8744, Note_on_c, 14, 48, 0
12, 8760, Note_on_c, 14, 48, 80
12, 8864, Note_on_c, 14, 48, 0
12, 8880, Note_on_c, 14, 48, 80
12, 8984, Note_on_c, 14, 48, 0
12, 9000, Note_on_c, 14, 48, 80
12, 9104, Note_on_c, 14, 48, 0
12, 9120, Note_on_c, 14, 52, 80
12, 9224, Note_on_c, 14, 52, 0
12, 9240, Note_on_c, 14, 52, 80
12, 9344, Note_on_c, 14, 52, 0
12, 9360, Note_on_c, 14, 53, 80
12, 9464, Note_on_c, 14, 53, 0
12, 9480, Note_on_c, 14, 53, 80
12, 9584, Note_on_c, 14, 53, 0
12, 9600, Note_on_c, 14, 53, 80
12, 9704, Note_on_c, 14, 53, 0
12, 9720, Note_on_c, 14, 53, 80
12, 9824, Note_on_c, 14, 53, 0
12, 9840, Note_on_c, 14, 55, 80
12, 9944, Note_on_c, 14, 55, 0
12, 9960, Note_on_c, 14, 55, 80
12, 10064, Note_on_c, 14, 55, 0
12, 10080, Note_on_c, 14, 57, 80
12, 10184, Note_on_c, 14, 57, 0
12, 10200, Note_on_c, 14, 57, 80
12, 10304, Note_on_c, 14, 57, 0
12, 10320, Note_on_c, 14, 57, 80
12, 10424, Note_on_c, 14, 57, 0
12, 10440, Note_on_c, 14, 57, 80
12, 10544, Note_on_c, 14, 57, 0
12, 10560, Note_on_c, 14, 57, 80
12, 10664, Note_on_c, 14, 57, 0
12, 10680, Note_on_c, 14, 52, 80
12, 10784, Note_on_c, 14, 52, 0
12, 10800, Note_on_c, 14, 53, 80
12, 10904, Note_on_c, 14, 53, 0
12, 10920, Note_on_c, 14, 53, 80
12, 11024, Note_on_c, 14, 53, 0
12, 11040, Note_on_c, 14, 52, 80
12, 11144, Note_on_c, 14, 52, 0
12, 11160, Note_on_c, 14, 52, 80
12, 11264, Note_on_c, 14, 52, 0
12, 11280, Note_on_c, 14, 47, 80
12, 11384, Note_on_c, 14, 47, 0
12, 11400, Note_on_c, 14, 47, 80
12, 11504, Note_on_c, 14, 47, 0
12, 11520, Note_on_c, 14, 48, 80
12, 11624, Note_on_c, 14, 48, 0
12, 11640, Note_on_c, 14, 48, 80
12, 11744, Note_on_c, 14, 48, 0
12, 11760, Note_on_c, 14, 53, 80
12, 11864, Note_on_c, 14, 53, 0
12, 11880, Note_on_c, 14, 53, 80
12, 11984, Note_on_c, 14, 53, 0
12, 12000, Note_on_c, 14, 55, 80
12, 12104, Note_on_c, 14, 55, 0
12, 12120, Note_on_c, 14, 55, 80
12, 12224, Note_on_c, 14, 55, 0
12, 12240, Note_on_c, 14, 52, 80
12, 12344, Note_on_c, 14, 52, 0
12, 12360, Note_on_c, 14, 52, 80
12, 12464, Note_on_c, 14, 52, 0
12, 12480, Note_on_c, 14, 52, 80
12, 12584, Note_on_c, 14, 52, 0
12, 12600, Note_on_c, 14, 52, 80
12, 12704, Note_on_c, 14, 52, 0
12, 12720, Note_on_c, 14, 52, 80
12, 12824, Note_on_c, 14, 52, 0
12, 12840, Note_on_c, 14, 52, 80
12, 12944, Note_on_c, 14, 52, 0
12, 12960, Note_on_c, 14, 53, 80
12, 13184, Note_on_c, 14, 53, 0
12, 13200, Note_on_c, 14, 55, 80
12, 13424, Note_on_c, 14, 55, 0
12, 13440, Note_on_c, 14, 43, 80
12, 13664, Note_on_c, 14, 43, 0
12, 13680, Note_on_c, 14, 48, 80
12, 13784, Note_on_c, 14, 48, 0
12, 13800, Note_on_c, 14, 60, 80
12, 13904, Note_on_c, 14, 60, 0
12, 13920, Note_on_c, 14, 55, 80
12, 14024, Note_on_c, 14, 55, 0
12, 14040, Note_on_c, 14, 60, 80
12, 14144, Note_on_c, 14, 60, 0
12, 14160, Note_on_c, 14, 52, 80
12, 14264, Note_on_c, 14, 52, 0
12, 14280, Note_on_c, 14, 55, 80
12, 14384, Note_on_c, 14, 55, 0
12, 14400, Note_on_c, 14, 48, 80
12, 14639, Note_on_c, 14, 48, 0
12, 15120, Note_on_c, 14, 43, 80
12, 15224, Note_on_c, 14, 43, 0
12, 15240, Note_on_c, 14, 55, 80
12, 15344, Note_on_c, 14, 55, 0
12, 15360, Note_on_c, 14, 50, 80
12, 15464, Note_on_c, 14, 50, 0
12, 15480, Note_on_c, 14, 55, 80
12, 15584, Note_on_c, 14, 55, 0
12, 15600, Note_on_c, 14, 47, 80
12, 15704, Note_on_c, 14, 47, 0
12, 15720, Note_on_c, 14, 50, 80
12, 15824, Note_on_c, 14, 50, 0
12, 15840, Note_on_c, 14, 43, 80
12, 16079, Note_on_c, 14, 43, 0
12, 16560, Note_on_c, 14, 48, 80
12, 16664, Note_on_c, 14, 48, 0
12, 16680, Note_on_c, 14, 60, 80
12, 16784, Note_on_c, 14, 60, 0
12, 16800, Note_on_c, 14, 55, 80
12, 16904, Note_on_c, 14, 55, 0
12, 16920, Note_on_c, 14, 60, 80
12, 17024, Note_on_c, 14, 60, 0
12, 17040, Note_on_c, 14, 52, 80
12, 17144, Note_on_c, 14, 52, 0
12, 17160, Note_on_c, 14, 55, 80
12, 17264, Note_on_c, 14, 55, 0
12, 17280, Note_on_c, 14, 48, 80
12, 17519, Note_on_c, 14, 48, 0
12, 18000, Note_on_c, 14, 54, 80
12, 18104, Note_on_c, 14, 54, 0
12, 18120, Note_on_c, 14, 57, 80
12, 18224, Note_on_c, 14, 57, 0
12, 18240, Note_on_c, 14, 62, 80
12, 18344, Note_on_c, 14, 62, 0
12, 18360, Note_on_c, 14, 57, 80
12, 18464, Note_on_c, 14, 57, 0
12, 18480, Note_on_c, 14, 62, 80
12, 18584, Note_on_c, 14, 62, 0
12, 18600, Note_on_c, 14, 57, 80
12, 18704, Note_on_c, 14, 57, 0
12, 18720, Note_on_c, 14, 54, 80
12, 18959, Note_on_c, 14, 54, 0
12, 19440, Note_on_c, 14, 55, 80
12, 19544, Note_on_c, 14, 55, 0
12, 19560, Note_on_c, 14, 55, 80
12, 19664, Note_on_c, 14, 55, 0
12, 19680, Note_on_c, 14, 55, 80
12, 19784, Note_on_c, 14, 55, 0
12, 19800, Note_on_c, 14, 55, 80
12, 19904, Note_on_c, 14, 55, 0
12, 19920, Note_on_c, 14, 55, 80
12, 20024, Note_on_c, 14, 55, 0
12, 20040, Note_on_c, 14, 55, 80
12, 20144, Note_on_c, 14, 55, 0
12, 20160, Note_on_c, 14, 52, 80
12, 20264, Note_on_c, 14, 52, 0
12, 20280, Note_on_c, 14, 52, 80
12, 20384, Note_on_c, 14, 52, 0
12, 20400, Note_on_c, 14, 52, 80
12, 20504, Note_on_c, 14, 52, 0
12, 20520, Note_on_c, 14, 52, 80
12, 20624, Note_on_c, 14, 52, 0
12, 20640, Note_on_c, 14, 52, 80
12, 20744, Note_on_c, 14, 52, 0
12, 20760, Note_on_c, 14, 52, 80
12, 20864, Note_on_c, 14, 52, 0
12, 20880, Note_on_c, 14, 47, 80
12, 20984, Note_on_c, 14, 47, 0
12, 21000, Note_on_c, 14, 47, 80
12, 21104, Note_on_c, 14, 47, 0
12, 21120, Note_on_c, 14, 47, 80
12, 21224, Note_on_c, 14, 47, 0
12, 21240, Note_on_c, 14, 47, 80
12, 21344, Note_on_c, 14, 47, 0
12, 21360, Note_on_c, 14, 47, 80
12, 21464, Note_on_c, 14, 47, 0
12, 21480, Note_on_c, 14, 47, 80
12, 21584, Note_on_c, 14, 47, 0
12, 21600, Note_on_c, 14, 48, 80
12, 21704, Note_on_c, 14, 48, 0
12, 21720, Note_on_c, 14, 48, 80
12, 21824, Note_on_c, 14, 48, 0
12, 21840, Note_on_c, 14, 48, 80
12, 21944, Note_on_c, 14, 48, 0
12, 21960, Note_on_c, 14, 48, 80
12, 22064, Note_on_c, 14, 48, 0
12, 22080, Note_on_c, 14, 48, 80
12, 22184, Note_on_c, 14, 48, 0
12, 22200, Note_on_c, 14, 49, 80
12, 22304, Note_on_c, 14, 49, 0
12, 22320, Note_on_c, 14, 50, 80
12, 22544, Note_on_c, 14, 50, 0
12, 22560, Note_on_c, 14, 50, 80
12, 22799, Note_on_c, 14, 50, 0
12, 23040, Note_on_c, 14, 55, 44
12, 23279, Note_on_c, 14, 55, 0
12, 23760, Note_on_c, 14, 48, 44
12, 23999, Note_on_c, 14, 48, 0
12, 24480, Note_on_c, 14, 50, 44
12, 24719, Note_on_c, 14, 50, 0
12, 25200, Note_on_c, 14, 43, 44
12, 25439, Note_on_c, 14, 43, 0
12, 25920, Note_on_c, 14, 55, 44
12, 26159, Note_on_c, 14, 55, 0
12, 26640, Note_on_c, 14, 48, 44
12, 26879, Note_on_c, 14, 48, 0
12, 27360, Note_on_c, 14, 50, 44
12, 27599, Note_on_c, 14, 50, 0
12, 28200, Note_on_c, 14, 55, 44
12, 28304, Note_on_c, 14, 55, 0
12, 28320, Note_on_c, 14, 50, 44
12, 28424, Note_on_c, 14, 50, 0
12, 28440, Note_on_c, 14, 48, 44
12, 28544, Note_on_c, 14, 48, 0
12, 28560, Note_on_c, 14, 47, 44
12, 28664, Note_on_c, 14, 47, 0
12, 28680, Note_on_c, 14, 45, 44
12, 28784, Note_on_c, 14, 45, 0
12, 28800, Note_on_c, 14, 43, 44
12, 29039, Note_on_c, 14, 43, 0
12, 29520, Note_on_c, 14, 48, 44
12, 29759, Note_on_c, 14, 48, 0
12, 30240, Note_on_c, 14, 50, 44
12, 30479, Note_on_c, 14, 50, 0
12, 30960, Note_on_c, 14, 55, 44
12, 31199, Note_on_c, 14, 55, 0
12, 31680, Note_on_c, 14, 43, 44
12, 31919, Note_on_c, 14, 43, 0
12, 32400, Note_on_c, 14, 48, 44
12, 32639, Note_on_c, 14, 48, 0
12, 33120, Note_on_c, 14, 48, 44
12, 33344, Note_on_c, 14, 48, 0
12, 33360, Note_on_c, 14, 50, 44
12, 33584, Note_on_c, 14, 50, 0
12, 33600, Note_on_c, 14, 50, 44
12, 33824, Note_on_c, 14, 50, 0
12, 33840, Note_on_c, 14, 43, 80
12, 34079, Note_on_c, 14, 43, 0
12, 34320, Note_on_c, 14, 55, 80
12, 34544, Note_on_c, 14, 55, 0
12, 34560, Note_on_c, 14, 54, 80
12, 34799, Note_on_c, 14, 54, 0
12, 35040, Note_on_c, 14, 66, 80
12, 35264, Note_on_c, 14, 66, 0
12, 35280, Note_on_c, 14, 64, 80
12, 35384, Note_on_c, 14, 64, 0
12, 35400, Note_on_c, 14, 63, 80
12, 35504, Note_on_c, 14, 63, 0
12, 35520, Note_on_c, 14, 64, 80
12, 35624, Note_on_c, 14, 64, 0
12, 35640, Note_on_c, 14, 63, 80
12, 35744, Note_on_c, 14, 63, 0
12, 35760, Note_on_c, 14, 64, 80
12, 35864, Note_on_c, 14, 64, 0
12, 35880, Note_on_c, 14, 60, 80
12, 35984, Note_on_c, 14, 60, 0
12, 36000, Note_on_c, 14, 59, 80
12, 36104, Note_on_c, 14, 59, 0
12, 36120, Note_on_c, 14, 57, 80
12, 36224, Note_on_c, 14, 57, 0
12, 36240, Note_on_c, 14, 55, 80
12, 36344, Note_on_c, 14, 55, 0
12, 36360, Note_on_c, 14, 57, 80
12, 36464, Note_on_c, 14, 57, 0
12, 36480, Note_on_c, 14, 59, 80
12, 36584, Note_on_c, 14, 59, 0
12, 36600, Note_on_c, 14, 55, 80
12, 36704, Note_on_c, 14, 55, 0
12, 36720, Note_on_c, 14, 57, 80
12, 36824, Note_on_c, 14, 57, 0
12, 36840, Note_on_c, 14, 57, 80
12, 36944, Note_on_c, 14, 57, 0
12, 36960, Note_on_c, 14, 57, 80
12, 37064, Note_on_c, 14, 57, 0
12, 37080, Note_on_c, 14, 57, 80
12, 37184, Note_on_c, 14, 57, 0
12, 37200, Note_on_c, 14, 55, 80
12, 37304, Note_on_c, 14, 55, 0
12, 37320, Note_on_c, 14, 55, 80
12, 37424, Note_on_c, 14, 55, 0
12, 37440, Note_on_c, 14, 54, 80
12, 37544, Note_on_c, 14, 54, 0
12, 37560, Note_on_c, 14, 54, 80
12, 37664, Note_on_c, 14, 54, 0
12, 37680, Note_on_c, 14, 50, 80
12, 37784, Note_on_c, 14, 50, 0
12, 37800, Note_on_c, 14, 50, 80
12, 37904, Note_on_c, 14, 50, 0
12, 37920, Note_on_c, 14, 55, 80
12, 38024, Note_on_c, 14, 55, 0
12, 38040, Note_on_c, 14, 55, 80
12, 38144, Note_on_c, 14, 55, 0
12, 38160, Note_on_c, 14, 48, 80
12, 38264, Note_on_c, 14, 48, 0
12, 38280, Note_on_c, 14, 48, 80
12, 38384, Note_on_c, 14, 48, 0
12, 38400, Note_on_c, 14, 50, 80
12, 38504, Note_on_c, 14, 50, 0
12, 38520, Note_on_c, 14, 50, 80
12, 38624, Note_on_c, 14, 50, 0
12, 38640, Note_on_c, 14, 51, 80
12, 38744, Note_on_c, 14, 51, 0
12, 38760, Note_on_c, 14, 51, 80
12, 38864, Note_on_c, 14, 51, 0
12, 38880, Note_on_c, 14, 52, 80
12, 39059, Note_on_c, 14, 52, 0
12, 39120, Note_on_c, 14, 50, 80
12, 39299, Note_on_c, 14, 50, 0
12, 39360, Note_on_c, 14, 48, 80
12, 39539, Note_on_c, 14, 48, 0
12, 39600, Note_on_c, 14, 56, 80
12, 39779, Note_on_c, 14, 56, 0
12, 39840, Note_on_c, 14, 57, 80
12, 40019, Note_on_c, 14, 57, 0
12, 42480, Note_on_c, 14, 43, 80
12, 42719, Note_on_c, 14, 43, 0
12, 42960, Note_on_c, 14, 50, 80
12, 43184, Note_on_c, 14, 50, 0
12, 43200, Note_on_c, 14, 55, 80
12, 43424, Note_on_c, 14, 55, 0
12, 43440, Note_on_c, 14, 59, 80
12, 43664, Note_on_c, 14, 59, 0
12, 43680, Note_on_c, 14, 62, 80
12, 43904, Note_on_c, 14, 62, 0
12, 43920, Note_on_c, 14, 55, 80
12, 44159, Note_on_c, 14, 55, 0
12, 44400, Note_on_c, 14, 50, 80
12, 44624, Note_on_c, 14, 50, 0
12, 44640, Note_on_c, 14, 55, 80
12, 44864, Note_on_c, 14, 55, 0
12, 44880, Note_on_c, 14, 59, 80
12, 45104, Note_on_c, 14, 59, 0
12, 45120, Note_on_c, 14, 62, 80
12, 45344, Note_on_c, 14, 62, 0
12, 45360, Note_on_c, 14, 55, 80
12, 45599, Note_on_c, 14, 55, 0
12, 45840, Note_on_c, 14, 50, 80
12, 46064, Note_on_c, 14, 50, 0
12, 46080, Note_on_c, 14, 55, 80
12, 46319, Note_on_c, 14, 55, 0
12, 46560, Note_on_c, 14, 50, 80
12, 46784, Note_on_c, 14, 50, 0
12, 46800, Note_on_c, 14, 43, 80
12, 47024, Note_on_c, 14, 43, 0
12, 47040, Note_on_c, 14, 55, 80
12, 47129, Note_on_c, 14, 55, 0
12, 47160, Note_on_c, 14, 57, 80
12, 47249, Note_on_c, 14, 57, 0
12, 47280, Note_on_c, 14, 59, 80
12, 47369, Note_on_c, 14, 59, 0
12, 47400, Note_on_c, 14, 60, 80
12, 47489, Note_on_c, 14, 60, 0
12, 47520, Note_on_c, 14, 62, 80
12, 47609, Note_on_c, 14, 62, 0
12, 47640, Note_on_c, 14, 64, 80
12, 47729, Note_on_c, 14, 64, 0
12, 47760, Note_on_c, 14, 65, 80
12, 47849, Note_on_c, 14, 65, 0
12, 47880, Note_on_c, 14, 62, 80
12, 47969, Note_on_c, 14, 62, 0
12, 48000, Note_on_c, 14, 59, 80
12, 48089, Note_on_c, 14, 59, 0
12, 48120, Note_on_c, 14, 55, 80
12, 48209, Note_on_c, 14, 55, 0
12, 48240, Note_on_c, 14, 60, 80
12, 48464, Note_on_c, 14, 60, 0
12, 48480, Note_on_c, 14, 55, 80
12, 48719, Note_on_c, 14, 55, 0
12, 48960, Note_on_c, 14, 52, 80
12, 49184, Note_on_c, 14, 52, 0
12, 49200, Note_on_c, 14, 48, 80
12, 49439, Note_on_c, 14, 48, 0
12, 52560, Note_on_c, 14, 60, 80
12, 52784, Note_on_c, 14, 60, 0
12, 52800, Note_on_c, 14, 55, 80
12, 53039, Note_on_c, 14, 55, 0
12, 53280, Note_on_c, 14, 52, 80
12, 53504, Note_on_c, 14, 52, 0
12, 53520, Note_on_c, 14, 48, 80
12, 53759, Note_on_c, 14, 48, 0
12, 56880, Note_on_c, 14, 48, 80
12, 56984, Note_on_c, 14, 48, 0
12, 57000, Note_on_c, 14, 48, 80
12, 57104, Note_on_c, 14, 48, 0
12, 57120, Note_on_c, 14, 48, 80
12, 57224, Note_on_c, 14, 48, 0
12, 57240, Note_on_c, 14, 48, 80
12, 57344, Note_on_c, 14, 48, 0
12, 57360, Note_on_c, 14, 52, 80
12, 57464, Note_on_c, 14, 52, 0
12, 57480, Note_on_c, 14, 52, 80
12, 57584, Note_on_c, 14, 52, 0
12, 57600, Note_on_c, 14, 53, 80
12, 57704, Note_on_c, 14, 53, 0
12, 57720, Note_on_c, 14, 53, 80
12, 57824, Note_on_c, 14, 53, 0
12, 57840, Note_on_c, 14, 53, 80
12, 57944, Note_on_c, 14, 53, 0
12, 57960, Note_on_c, 14, 53, 80
12, 58064, Note_on_c, 14, 53, 0
12, 58080, Note_on_c, 14, 55, 80
12, 58184, Note_on_c, 14, 55, 0
12, 58200, Note_on_c, 14, 55, 80
12, 58304, Note_on_c, 14, 55, 0
12, 58320, Note_on_c, 14, 57, 80
12, 58424, Note_on_c, 14, 57, 0
12, 58440, Note_on_c, 14, 57, 80
12, 58544, Note_on_c, 14, 57, 0
12, 58560, Note_on_c, 14, 57, 80
12, 58664, Note_on_c, 14, 57, 0
12, 58680, Note_on_c, 14, 57, 80
12, 58784, Note_on_c, 14, 57, 0
12, 58800, Note_on_c, 14, 57, 80
12, 58904, Note_on_c, 14, 57, 0
12, 58920, Note_on_c, 14, 52, 80
12, 59024, Note_on_c, 14, 52, 0
12, 59040, Note_on_c, 14, 53, 80
12, 59144, Note_on_c, 14, 53, 0
12, 59160, Note_on_c, 14, 53, 80
12, 59264, Note_on_c, 14, 53, 0
12, 59280, Note_on_c, 14, 52, 80
12, 59384, Note_on_c, 14, 52, 0
12, 59400, Note_on_c, 14, 52, 80
12, 59504, Note_on_c, 14, 52, 0
12, 59520, Note_on_c, 14, 47, 80
12, 59624, Note_on_c, 14, 47, 0
12, 59640, Note_on_c, 14, 47, 80
12, 59744, Note_on_c, 14, 47, 0
12, 59760, Note_on_c, 14, 48, 80
12, 59864, Note_on_c, 14, 48, 0
12, 59880, Note_on_c, 14, 48, 80
12, 59984, Note_on_c, 14, 48, 0
12, 60000, Note_on_c, 14, 53, 80
12, 60104, Note_on_c, 14, 53, 0
12, 60120, Note_on_c, 14, 53, 80
12, 60224, Note_on_c, 14, 53, 0
12, 60240, Note_on_c, 14, 55, 80
12, 60344, Note_on_c, 14, 55, 0
12, 60360, Note_on_c, 14, 55, 80
12, 60464, Note_on_c, 14, 55, 0
12, 60480, Note_on_c, 14, 52, 80
12, 60584, Note_on_c, 14, 52, 0
12, 60600, Note_on_c, 14, 52, 80
12, 60704, Note_on_c, 14, 52, 0
12, 60720, Note_on_c, 14, 52, 80
12, 60824, Note_on_c, 14, 52, 0
12, 60840, Note_on_c, 14, 52, 80
12, 60944, Note_on_c, 14, 52, 0
12, 60960, Note_on_c, 14, 52, 80
12, 61064, Note_on_c, 14, 52, 0
12, 61080, Note_on_c, 14, 52, 80
12, 61184, Note_on_c, 14, 52, 0
12, 61200, Note_on_c, 14, 53, 80
12, 61424, Note_on_c, 14, 53, 0
12, 61440, Note_on_c, 14, 55, 80
12, 61664, Note_on_c, 14, 55, 0
12, 61680, Note_on_c, 14, 43, 80
12, 61904, Note_on_c, 14, 43, 0
12, 61920, Note_on_c, 14, 48, 80
12, 62024, Note_on_c, 14, 48, 0
12, 62040, Note_on_c, 14, 60, 80
12, 62144, Note_on_c, 14, 60, 0
12, 62160, Note_on_c, 14, 55, 80
12, 62264, Note_on_c, 14, 55, 0
12, 62280, Note_on_c, 14, 60, 80
12, 62384, Note_on_c, 14, 60, 0
12, 62400, Note_on_c, 14, 52, 80
12, 62504, Note_on_c, 14, 52, 0
12, 62520, Note_on_c, 14, 55, 80
12, 62624, Note_on_c, 14, 55, 0
12, 62640, Note_on_c, 14, 48, 80
12, 62879, Note_on_c, 14, 48, 0
12, 63360, Note_on_c, 14, 43, 80
12, 63464, Note_on_c, 14, 43, 0
12, 63480, Note_on_c, 14, 55, 80
12, 63584, Note_on_c, 14, 55, 0
12, 63600, Note_on_c, 14, 50, 80
12, 63704, Note_on_c, 14, 50, 0
12, 63720, Note_on_c, 14, 55, 80
12, 63824, Note_on_c, 14, 55, 0
12, 63840, Note_on_c, 14, 47, 80
12, 63944, Note_on_c, 14, 47, 0
12, 63960, Note_on_c, 14, 50, 80
12, 64064, Note_on_c, 14, 50, 0
12, 64080, Note_on_c, 14, 43, 80
12, 64319, Note_on_c, 14, 43, 0
12, 64800, Note_on_c, 14, 48, 80
12, 64904, Note_on_c, 14, 48, 0
12, 64920, Note_on_c, 14, 60, 80
12, 65024, Note_on_c, 14, 60, 0
12, 65040, Note_on_c, 14, 55, 80
12, 65144, Note_on_c, 14, 55, 0
12, 65160, Note_on_c, 14, 60, 80
12, 65264, Note_on_c, 14, 60, 0
12, 65280, Note_on_c, 14, 52, 80
12, 65384, Note_on_c, 14, 52, 0
12, 65400, Note_on_c, 14, 55, 80
12, 65504, Note_on_c, 14, 55, 0
12, 65520, Note_on_c, 14, 48, 80
12, 65759, Note_on_c, 14, 48, 0
12, 66240, Note_on_c, 14, 54, 80
12, 66344, Note_on_c, 14, 54, 0
12, 66360, Note_on_c, 14, 57, 80
12, 66464, Note_on_c, 14, 57, 0
12, 66480, Note_on_c, 14, 62, 80
12, 66584, Note_on_c, 14, 62, 0
12, 66600, Note_on_c, 14, 57, 80
12, 66704, Note_on_c, 14, 57, 0
12, 66720, Note_on_c, 14, 62, 80
12, 66824, Note_on_c, 14, 62, 0
12, 66840, Note_on_c, 14, 57, 80
12, 66944, Note_on_c, 14, 57, 0
12, 66960, Note_on_c, 14, 54, 80
12, 67199, Note_on_c, 14, 54, 0
12, 67680, Note_on_c, 14, 55, 80
12, 67784, Note_on_c, 14, 55, 0
12, 67800, Note_on_c, 14, 55, 80
12, 67904, Note_on_c, 14, 55, 0
12, 67920, Note_on_c, 14, 55, 80
12, 68024, Note_on_c, 14, 55, 0
12, 68040, Note_on_c, 14, 55, 80
12, 68144, Note_on_c, 14, 55, 0
12, 68160, Note_on_c, 14, 55, 80
12, 68264, Note_on_c, 14, 55, 0
12, 68280, Note_on_c, 14, 55, 80
12, 68384, Note_on_c, 14, 55, 0
12, 68400, Note_on_c, 14, 52, 80
12, 68504, Note_on_c, 14, 52, 0
12, 68520, Note_on_c, 14, 52, 80
12, 68624, Note_on_c, 14, 52, 0
12, 68640, Note_on_c, 14, 52, 80
12, 68744, Note_on_c, 14, 52, 0
12, 68760, Note_on_c, 14, 52, 80
12, 68864, Note_on_c, 14, 52, 0
12, 68880, Note_on_c, 14, 52, 80
12, 68984, Note_on_c, 14, 52, 0
12, 69000, Note_on_c, 14, 52, 80
12, 69104, Note_on_c, 14, 52, 0
12, 69120, Note_on_c, 14, 47, 80
12, 69224, Note_on_c, 14, 47, 0
12, 69240, Note_on_c, 14, 47, 80
12, 69344, Note_on_c, 14, 47, 0
12, 69360, Note_on_c, 14, 47, 80
12, 69464, Note_on_c, 14, 47, 0
12, 69480, Note_on_c, 14, 47, 80
12, 69584, Note_on_c, 14, 47, 0
12, 69600, Note_on_c, 14, 47, 80
12, 69704, Note_on_c, 14, 47, 0
12, 69720, Note_on_c, 14, 47, 80
12, 69824, Note_on_c, 14, 47, 0
12, 69840, Note_on_c, 14, 48, 80
12, 69944, Note_on_c, 14, 48, 0
12, 69960, Note_on_c, 14, 48, 80
12, 70064, Note_on_c, 14, 48, 0
12, 70080, Note_on_c, 14, 48, 80
12, 70184, Note_on_c, 14, 48, 0
12, 70200, Note_on_c, 14, 48, 80
12, 70304, Note_on_c, 14, 48, 0
12, 70320, Note_on_c, 14, 48, 80
12, 70424, Note_on_c, 14, 48, 0
12, 70440, Note_on_c, 14, 49, 80
12, 70544, Note_on_c, 14, 49, 0
12, 70560, Note_on_c, 14, 50, 80
12, 70784, Note_on_c, 14, 50, 0
12, 70800, Note_on_c, 14, 50, 80
12, 71039, Note_on_c, 14, 50, 0
12, 71280, Note_on_c, 14, 55, 44
12, 71519, Note_on_c, 14, 55, 0
12, 72000, Note_on_c, 14, 48, 44
12, 72239, Note_on_c, 14, 48, 0
12, 72720, Note_on_c, 14, 50, 44
12, 72959, Note_on_c, 14, 50, 0
12, 73440, Note_on_c, 14, 43, 44
12, 73679, Note_on_c, 14, 43, 0
12, 74160, Note_on_c, 14, 55, 44
12, 74399, Note_on_c, 14, 55, 0
12, 74880, Note_on_c, 14, 48, 44
12, 75119, Note_on_c, 14, 48, 0
12, 75600, Note_on_c, 14, 50, 44
12, 75839, Note_on_c, 14, 50, 0
12, 76440, Note_on_c, 14, 55, 44
12, 76544, Note_on_c, 14, 55, 0
12, 76560, Note_on_c, 14, 50, 44
12, 76664, Note_on_c, 14, 50, 0
12, 76680, Note_on_c, 14, 48, 44
12, 76784, Note_on_c, 14, 48, 0
12, 76800, Note_on_c, 14, 47, 44
12, 76904, Note_on_c, 14, 47, 0
12, 76920, Note_on_c, 14, 45, 44
12, 77024, Note_on_c, 14, 45, 0
12, 77040, Note_on_c, 14, 43, 44
12, 77279, Note_on_c, 14, 43, 0
12, 77760, Note_on_c, 14, 48, 44
12, 77999, Note_on_c, 14, 48, 0
12, 78480, Note_on_c, 14, 50, 44
12, 78719, Note_on_c, 14, 50, 0
12, 79200, Note_on_c, 14, 55, 44
12, 79439, Note_on_c, 14, 55, 0
12, 79920, Note_on_c, 14, 43, 44
12, 80159, Note_on_c, 14, 43, 0
12, 80640, Note_on_c, 14, 48, 44
12, 80879, Note_on_c, 14, 48, 0
12, 81360, Note_on_c, 14, 48, 44
12, 81584, Note_on_c, 14, 48, 0
12, 81600, Note_on_c, 14, 50, 44
12, 81824, Note_on_c, 14, 50, 0
12, 81840, Note_on_c, 14, 50, 44
12, 82064, Note_on_c, 14, 50, 0
12, 82080, Note_on_c, 14, 43, 80
12, 82319, Note_on_c, 14, 43, 0
12, 82560, Note_on_c, 14, 55, 80
12, 82784, Note_on_c, 14, 55, 0
12, 82800, Note_on_c, 14, 54, 80
12, 83039, Note_on_c, 14, 54, 0
12, 83280, Note_on_c, 14, 66, 80
12, 83504, Note_on_c, 14, 66, 0
12, 83520, Note_on_c, 14, 64, 80
12, 83624, Note_on_c, 14, 64, 0
12, 83640, Note_on_c, 14, 63, 80
12, 83744, Note_on_c, 14, 63, 0
12, 83760, Note_on_c, 14, 64, 80
12, 83864, Note_on_c, 14, 64, 0
12, 83880, Note_on_c, 14, 63, 80
12, 83984, Note_on_c, 14, 63, 0
12, 84000, Note_on_c, 14, 64, 80
12, 84104, Note_on_c, 14, 64, 0
12, 84120, Note_on_c, 14, 60, 80
12, 84224, Note_on_c, 14, 60, 0
12, 84240, Note_on_c, 14, 59, 80
12, 84344, Note_on_c, 14, 59, 0
12, 84360, Note_on_c, 14, 57, 80
12, 84464, Note_on_c, 14, 57, 0
12, 84480, Note_on_c, 14, 55, 80
12, 84584, Note_on_c, 14, 55, 0
12, 84600, Note_on_c, 14, 57, 80
12, 84704, Note_on_c, 14, 57, 0
12, 84720, Note_on_c, 14, 59, 80
12, 84824, Note_on_c, 14, 59, 0
12, 84840, Note_on_c, 14, 55, 80
12, 84944, Note_on_c, 14, 55, 0
12, 84960, Note_on_c, 14, 57, 80
12, 85064, Note_on_c, 14, 57, 0
12, 85080, Note_on_c, 14, 57, 80
12, 85184, Note_on_c, 14, 57, 0
12, 85200, Note_on_c, 14, 57, 80
12, 85304, Note_on_c, 14, 57, 0
12, 85320, Note_on_c, 14, 57, 80
12, 85424, Note_on_c, 14, 57, 0
12, 85440, Note_on_c, 14, 55, 80
12, 85544, Note_on_c, 14, 55, 0
12, 85560, Note_on_c, 14, 55, 80
12, 85664, Note_on_c, 14, 55, 0
12, 85680, Note_on_c, 14, 54, 80
12, 85784, Note_on_c, 14, 54, 0
12, 85800, Note_on_c, 14, 54, 80
12, 85904, Note_on_c, 14, 54, 0
12, 85920, Note_on_c, 14, 50, 80
12, 86024, Note_on_c, 14, 50, 0
12, 86040, Note_on_c, 14, 50, 80
12, 86144, Note_on_c, 14, 50, 0
12, 86160, Note_on_c, 14, 55, 80
12, 86264, Note_on_c, 14, 55, 0
12, 86280, Note_on_c, 14, 55, 80
12, 86384, Note_on_c, 14, 55, 0
12, 86400, Note_on_c, 14, 48, 80
12, 86504, Note_on_c, 14, 48, 0
12, 86520, Note_on_c, 14, 48, 80
12, 86624, Note_on_c, 14, 48, 0
12, 86640, Note_on_c, 14, 50, 80
12, 86744, Note_on_c, 14, 50, 0
12, 86760, Note_on_c, 14, 50, 80
12, 86864, Note_on_c, 14, 50, 0
12, 86880, Note_on_c, 14, 51, 80
12, 86984, Note_on_c, 14, 51, 0
12, 87000, Note_on_c, 14, 51, 80
12, 87104, Note_on_c, 14, 51, 0
12, 87120, Note_on_c, 14, 52, 80
12, 87299, Note_on_c, 14, 52, 0
12, 87360, Note_on_c, 14, 50, 80
12, 87539, Note_on_c, 14, 50, 0
12, 87600, Note_on_c, 14, 48, 80
12, 87779, Note_on_c, 14, 48, 0
12, 87840, Note_on_c, 14, 56, 80
12, 88019, Note_on_c, 14, 56, 0
12, 88080, Note_on_c, 14, 57, 80
12, 88259, Note_on_c, 14, 57, 0
12, 90720, Note_on_c, 14, 43, 80
12, 90959, Note_on_c, 14, 43, 0
12, 91200, Note_on_c, 14, 50, 80
12, 91424, Note_on_c, 14, 50, 0
12, 91440, Note_on_c, 14, 55, 80
12, 91664, Note_on_c, 14, 55, 0
12, 91680, Note_on_c, 14, 59, 80
12, 91904, Note_on_c, 14, 59, 0
12, 91920, Note_on_c, 14, 62, 80
12, 92144, Note_on_c, 14, 62, 0
12, 92160, Note_on_c, 14, 55, 80
12, 92399, Note_on_c, 14, 55, 0
12, 92640, Note_on_c, 14, 50, 80
12, 92864, Note_on_c, 14, 50, 0
12, 92880, Note_on_c, 14, 55, 80
12, 93104, Note_on_c, 14, 55, 0
12, 93120, Note_on_c, 14, 59, 80
12, 93344, Note_on_c, 14, 59, 0
12, 93360, Note_on_c, 14, 62, 80
12, 93584, Note_on_c, 14, 62, 0
12, 93600, Note_on_c, 14, 55, 80
12, 93839, Note_on_c, 14, 55, 0
12, 94080, Note_on_c, 14, 50, 80
12, 94304, Note_on_c, 14, 50, 0
12, 94320, Note_on_c, 14, 55, 80
12, 94559, Note_on_c, 14, 55, 0
12, 94800, Note_on_c, 14, 50, 80
12, 95024, Note_on_c, 14, 50, 0
12, 95040, Note_on_c, 14, 43, 80
12, 95264, Note_on_c, 14, 43, 0
12, 95280, Note_on_c, 14, 55, 80
12, 95369, Note_on_c, 14, 55, 0
12, 95400, Note_on_c, 14, 57, 80
12, 95489, Note_on_c, 14, 57, 0
12, 95520, Note_on_c, 14, 59, 80
12, 95609, Note_on_c, 14, 59, 0
12, 95640, Note_on_c, 14, 60, 80
12, 95729, Note_on_c, 14, 60, 0
12, 95760, Note_on_c, 14, 62, 80
12, 95849, Note_on_c, 14, 62, 0
12, 95880, Note_on_c, 14, 64, 80
12, 95969, Note_on_c, 14, 64, 0
12, 96000, Note_on_c, 14, 65, 80
12, 96089, Note_on_c, 14, 65, 0
12, 96120, Note_on_c, 14, 62, 80
12, 96209, Note_on_c, 14, 62, 0
12, 96240, Note_on_c, 14, 59, 80
12, 96329, Note_on_c, 14, 59, 0
12, 96360, Note_on_c, 14, 55, 80
12, 96449, Note_on_c, 14, 55, 0
12, 96480, Note_on_c, 14, 60, 80
12, 96519, Note_on_c, 14, 60, 0
12, 96520, Note_on_c, 14, 62, 80
12, 96559, Note_on_c, 14, 62, 0
12, 96560, Note_on_c, 14, 60, 80
12, 96599, Note_on_c, 14, 60, 0
12, 96600, Note_on_c, 14, 62, 80
12, 96639, Note_on_c, 14, 62, 0
12, 96640, Note_on_c, 14, 58, 80
12, 96679, Note_on_c, 14, 58, 0
12, 96680, Note_on_c, 14, 60, 80
12, 96719, Note_on_c, 14, 60, 0
12, 96720, Note_on_c, 14, 62, 80
12, 96824, Note_on_c, 14, 62, 0
12, 96840, Note_on_c, 14, 60, 80
12, 96929, Note_on_c, 14, 60, 0
12, 96960, Note_on_c, 14, 58, 80
12, 97049, Note_on_c, 14, 58, 0
12, 97080, Note_on_c, 14, 57, 80
12, 97169, Note_on_c, 14, 57, 0
12, 97200, Note_on_c, 14, 58, 80
12, 97239, Note_on_c, 14, 58, 0
12, 97240, Note_on_c, 14, 60, 80
12, 97279, Note_on_c, 14, 60, 0
12, 97280, Note_on_c, 14, 58, 80
12, 97319, Note_on_c, 14, 58, 0
12, 97320, Note_on_c, 14, 60, 80
12, 97359, Note_on_c, 14, 60, 0
12, 97360, Note_on_c, 14, 57, 80
12, 97399, Note_on_c, 14, 57, 0
12, 97400, Note_on_c, 14, 58, 80
12, 97439, Note_on_c, 14, 58, 0
12, 97440, Note_on_c, 14, 60, 80
12, 97544, Note_on_c, 14, 60, 0
12, 97560, Note_on_c, 14, 58, 80
12, 97649, Note_on_c, 14, 58, 0
12, 97680, Note_on_c, 14, 57, 80
12, 97769, Note_on_c, 14, 57, 0
12, 97800, Note_on_c, 14, 55, 80
12, 97889, Note_on_c, 14, 55, 0
12, 97920, Note_on_c, 14, 57, 80
12, 97959, Note_on_c, 14, 57, 0
12, 97960, Note_on_c, 14, 58, 80
12, 97999, Note_on_c, 14, 58, 0
12, 98000, Note_on_c, 14, 57, 80
12, 98039, Note_on_c, 14, 57, 0
12, 98040, Note_on_c, 14, 58, 80
12, 98079, Note_on_c, 14, 58, 0
12, 98080, Note_on_c, 14, 55, 80
12, 98119, Note_on_c, 14, 55, 0
12, 98120, Note_on_c, 14, 57, 80
12, 98159, Note_on_c, 14, 57, 0
12, 98160, Note_on_c, 14, 58, 80
12, 98264, Note_on_c, 14, 58, 0
12, 98280, Note_on_c, 14, 57, 80
12, 98369, Note_on_c, 14, 57, 0
12, 98400, Note_on_c, 14, 55, 80
12, 98489, Note_on_c, 14, 55, 0
12, 98520, Note_on_c, 14, 53, 80
12, 98609, Note_on_c, 14, 53, 0
12, 98640, Note_on_c, 14, 55, 80
12, 98679, Note_on_c, 14, 55, 0
12, 98680, Note_on_c, 14, 57, 80
12, 98719, Note_on_c, 14, 57, 0
12, 98720, Note_on_c, 14, 55, 80
12, 98759, Note_on_c, 14, 55, 0
12, 98760, Note_on_c, 14, 57, 80
12, 98799, Note_on_c, 14, 57, 0
12, 98800, Note_on_c, 14, 53, 80
12, 98839, Note_on_c, 14, 53, 0
12, 98840, Note_on_c, 14, 55, 80
12, 98879, Note_on_c, 14, 55, 0
12, 98880, Note_on_c, 14, 57, 80
12, 98984, Note_on_c, 14, 57, 0
12, 99000, Note_on_c, 14, 55, 80
12, 99089, Note_on_c, 14, 55, 0
12, 99120, Note_on_c, 14, 53, 80
12, 99209, Note_on_c, 14, 53, 0
12, 99240, Note_on_c, 14, 52, 80
12, 99329, Note_on_c, 14, 52, 0
12, 99360, Note_on_c, 14, 53, 80
12, 99539, Note_on_c, 14, 53, 0
12, 99600, Note_on_c, 14, 57, 44
12, 99779, Note_on_c, 14, 57, 0
12, 99840, Note_on_c, 14, 53, 44
12, 100019, Note_on_c, 14, 53, 0
12, 100080, Note_on_c, 14, 55, 44
12, 100259, Note_on_c, 14, 55, 0
12, 100320, Note_on_c, 14, 52, 44
12, 100559, Note_on_c, 14, 52, 0
12, 100560, Note_on_c, 14, 48, 44
12, 100784, Note_on_c, 14, 48, 0
12, 100800, Note_on_c, 14, 53, 44
12, 101024, Note_on_c, 14, 53, 0
12, 101040, Note_on_c, 14, 57, 44
12, 101264, Note_on_c, 14, 57, 0
12, 101280, Note_on_c, 14, 53, 44
12, 101504, Note_on_c, 14, 53, 0
12, 101520, Note_on_c, 14, 55, 44
12, 101699, Note_on_c, 14, 55, 0
12, 101760, Note_on_c, 14, 52, 44
12, 101999, Note_on_c, 14, 52, 0
12, 102000, Note_on_c, 14, 48, 44
12, 102224, Note_on_c, 14, 48, 0
12, 102240, Note_on_c, 14, 53, 44
12, 102479, Note_on_c, 14, 53, 0
12, 102720, Note_on_c, 14, 53, 44
12, 102959, Note_on_c, 14, 53, 0
12, 102960, Note_on_c, 14, 52, 44
12, 103199, Note_on_c, 14, 52, 0
12, 103440, Note_on_c, 14, 52, 44
12, 103679, Note_on_c, 14, 52, 0
12, 103680, Note_on_c, 14, 50, 44
12, 103904, Note_on_c, 14, 50, 0
12, 103920, Note_on_c, 14, 47, 44
12, 104144, Note_on_c, 14, 47, 0
12, 104160, Note_on_c, 14, 43, 44
12, 104384, Note_on_c, 14, 43, 0
12, 104400, Note_on_c, 14, 48, 44
12, 104639, Note_on_c, 14, 48, 0
12, 105120, Note_on_c, 14, 48, 44
12, 105359, Note_on_c, 14, 48, 0
12, 105600, Note_on_c, 14, 60, 44
12, 105839, Note_on_c, 14, 60, 0
12, 105840, Note_on_c, 14, 59, 44
12, 106079, Note_on_c, 14, 59, 0
12, 106320, Note_on_c, 14, 59, 44
12, 106559, Note_on_c, 14, 59, 0
12, 106560, Note_on_c, 14, 57, 44
12, 106784, Note_on_c, 14, 57, 0
12, 106800, Note_on_c, 14, 54, 44
12, 107024, Note_on_c, 14, 54, 0
12, 107040, Note_on_c, 14, 50, 44
12, 107264, Note_on_c, 14, 50, 0
12, 107280, Note_on_c, 14, 55, 44
12, 107519, Note_on_c, 14, 55, 0
12, 108720, Note_on_c, 14, 55, 44
12, 108959, Note_on_c, 14, 55, 0
12, 110160, Note_on_c, 14, 43, 44
12, 110399, Note_on_c, 14, 43, 0
12, 110880, Note_on_c, 14, 43, 44
12, 111119, Note_on_c, 14, 43, 0
12, 111600, Note_on_c, 14, 43, 44
12, 111839, Note_on_c, 14, 43, 0
12, 113040, Note_on_c, 14, 60, 80
12, 113264, Note_on_c, 14, 60, 0
12, 113280, Note_on_c, 14, 55, 80
12, 113519, Note_on_c, 14, 55, 0
12, 113760, Note_on_c, 14, 52, 80
12, 113984, Note_on_c, 14, 52, 0
12, 114000, Note_on_c, 14, 48, 80
12, 114239, Note_on_c, 14, 48, 0
12, 117360, Note_on_c, 14, 60, 80
12, 117584, Note_on_c, 14, 60, 0
12, 117600, Note_on_c, 14, 55, 80
12, 117839, Note_on_c, 14, 55, 0
12, 118080, Note_on_c, 14, 52, 80
12, 118304, Note_on_c, 14, 52, 0
12, 118320, Note_on_c, 14, 48, 80
12, 118559, Note_on_c, 14, 48, 0
12, 121680, Note_on_c, 14, 48, 80
12, 121784, Note_on_c, 14, 48, 0
12, 121800, Note_on_c, 14, 48, 80
12, 121904, Note_on_c, 14, 48, 0
12, 121920, Note_on_c, 14, 48, 80
12, 122024, Note_on_c, 14, 48, 0
12, 122040, Note_on_c, 14, 48, 80
12, 122144, Note_on_c, 14, 48, 0
12, 122160, Note_on_c, 14, 52, 80
12, 122264, Note_on_c, 14, 52, 0
12, 122280, Note_on_c, 14, 52, 80
12, 122384, Note_on_c, 14, 52, 0
12, 122400, Note_on_c, 14, 53, 80
12, 122504, Note_on_c, 14, 53, 0
12, 122520, Note_on_c, 14, 53, 80
12, 122624, Note_on_c, 14, 53, 0
12, 122640, Note_on_c, 14, 53, 80
12, 122744, Note_on_c, 14, 53, 0
12, 122760, Note_on_c, 14, 53, 80
12, 122864, Note_on_c, 14, 53, 0
12, 122880, Note_on_c, 14, 55, 80
12, 122984, Note_on_c, 14, 55, 0
12, 123000, Note_on_c, 14, 55, 80
12, 123104, Note_on_c, 14, 55, 0
12, 123120, Note_on_c, 14, 57, 80
12, 123224, Note_on_c, 14, 57, 0
12, 123240, Note_on_c, 14, 57, 80
12, 123344, Note_on_c, 14, 57, 0
12, 123360, Note_on_c, 14, 57, 80
12, 123464, Note_on_c, 14, 57, 0
12, 123480, Note_on_c, 14, 57, 80
12, 123584, Note_on_c, 14, 57, 0
12, 123600, Note_on_c, 14, 57, 80
12, 123704, Note_on_c, 14, 57, 0
12, 123720, Note_on_c, 14, 52, 80
12, 123824, Note_on_c, 14, 52, 0
12, 123840, Note_on_c, 14, 53, 80
12, 123944, Note_on_c, 14, 53, 0
12, 123960, Note_on_c, 14, 53, 80
12, 124064, Note_on_c, 14, 53, 0
12, 124080, Note_on_c, 14, 52, 80
12, 124184, Note_on_c, 14, 52, 0
12, 124200, Note_on_c, 14, 52, 80
12, 124304, Note_on_c, 14, 52, 0
12, 124320, Note_on_c, 14, 47, 80
12, 124424, Note_on_c, 14, 47, 0
12, 124440, Note_on_c, 14, 47, 80
12, 124544, Note_on_c, 14, 47, 0
12, 124560, Note_on_c, 14, 48, 80
12, 124664, Note_on_c, 14, 48, 0
12, 124680, Note_on_c, 14, 48, 80
12, 124784, Note_on_c, 14, 48, 0
12, 124800, Note_on_c, 14, 53, 80
12, 124904, Note_on_c, 14, 53, 0
12, 124920, Note_on_c, 14, 53, 80
12, 125024, Note_on_c, 14, 53, 0
12, 125040, Note_on_c, 14, 55, 80
12, 125144, Note_on_c, 14, 55, 0
12, 125160, Note_on_c, 14, 55, 80
12, 125264, Note_on_c, 14, 55, 0
12, 125280, Note_on_c, 14, 52, 80
12, 125384, Note_on_c, 14, 52, 0
12, 125400, Note_on_c, 14, 52, 80
12, 125504, Note_on_c, 14, 52, 0
12, 125520, Note_on_c, 14, 52, 80
12, 125624, Note_on_c, 14, 52, 0
12, 125640, Note_on_c, 14, 52, 80
12, 125744, Note_on_c, 14, 52, 0
12, 125760, Note_on_c, 14, 52, 80
12, 125864, Note_on_c, 14, 52, 0
12, 125880, Note_on_c, 14, 52, 80
12, 125984, Note_on_c, 14, 52, 0
12, 126000, Note_on_c, 14, 53, 80
12, 126224, Note_on_c, 14, 53, 0
12, 126240, Note_on_c, 14, 55, 80
12, 126464, Note_on_c, 14, 55, 0
12, 126480, Note_on_c, 14, 43, 80
12, 126704, Note_on_c, 14, 43, 0
12, 126720, Note_on_c, 14, 48, 80
12, 126824, Note_on_c, 14, 48, 0
12, 126840, Note_on_c, 14, 55, 80
12, 126944, Note_on_c, 14, 55, 0
12, 126960, Note_on_c, 14, 60, 80
12, 127064, Note_on_c, 14, 60, 0
12, 127080, Note_on_c, 14, 55, 80
12, 127184, Note_on_c, 14, 55, 0
12, 127200, Note_on_c, 14, 52, 80
12, 127304, Note_on_c, 14, 52, 0
12, 127320, Note_on_c, 14, 48, 80
12, 127424, Note_on_c, 14, 48, 0
12, 127440, Note_on_c, 14, 46, 80
12, 127679, Note_on_c, 14, 46, 0
12, 128160, Note_on_c, 14, 45, 80
12, 128264, Note_on_c, 14, 45, 0
12, 128280, Note_on_c, 14, 53, 80
12, 128384, Note_on_c, 14, 53, 0
12, 128400, Note_on_c, 14, 57, 80
12, 128504, Note_on_c, 14, 57, 0
12, 128520, Note_on_c, 14, 53, 80
12, 128624, Note_on_c, 14, 53, 0
12, 128640, Note_on_c, 14, 48, 80
12, 128744, Note_on_c, 14, 48, 0
12, 128760, Note_on_c, 14, 53, 80
12, 128864, Note_on_c, 14, 53, 0
12, 128880, Note_on_c, 14, 45, 80
12, 129119, Note_on_c, 14, 45, 0
12, 129600, Note_on_c, 14, 43, 80
12, 129704, Note_on_c, 14, 43, 0
12, 129720, Note_on_c, 14, 55, 80
12, 129824, Note_on_c, 14, 55, 0
12, 129840, Note_on_c, 14, 61, 80
12, 129944, Note_on_c, 14, 61, 0
12, 129960, Note_on_c, 14, 55, 80
12, 130064, Note_on_c, 14, 55, 0
12, 130080, Note_on_c, 14, 64, 80
12, 130184, Note_on_c, 14, 64, 0
12, 130200, Note_on_c, 14, 61, 80
12, 130304, Note_on_c, 14, 61, 0
12, 130320, Note_on_c, 14, 55, 80
12, 130559, Note_on_c, 14, 55, 0
12, 131040, Note_on_c, 14, 41, 80
12, 131144, Note_on_c, 14, 41, 0
12, 131160, Note_on_c, 14, 53, 80
12, 131264, Note_on_c, 14, 53, 0
12, 131280, Note_on_c, 14, 57, 80
12, 131384, Note_on_c, 14, 57, 0
12, 131400, Note_on_c, 14, 53, 80
12, 131504, Note_on_c, 14, 53, 0
12, 131520, Note_on_c, 14, 62, 80
12, 131624, Note_on_c, 14, 62, 0
12, 131640, Note_on_c, 14, 57, 80
12, 131744, Note_on_c, 14, 57, 0
12, 131760, Note_on_c, 14, 53, 80
12, 131999, Note_on_c, 14, 53, 0
12, 132480, Note_on_c, 14, 54, 80
12, 132584, Note_on_c, 14, 54, 0
12, 132600, Note_on_c, 14, 57, 80
12, 132704, Note_on_c, 14, 57, 0
12, 132720, Note_on_c, 14, 62, 80
12, 132824, Note_on_c, 14, 62, 0
12, 132840, Note_on_c, 14, 57, 80
12, 132944, Note_on_c, 14, 57, 0
12, 132960, Note_on_c, 14, 62, 80
12, 133064, Note_on_c, 14, 62, 0
12, 133080, Note_on_c, 14, 57, 80
12, 133184, Note_on_c, 14, 57, 0
12, 133200, Note_on_c, 14, 54, 80
12, 133439, Note_on_c, 14, 54, 0
12, 133920, Note_on_c, 14, 43, 80
12, 134024, Note_on_c, 14, 43, 0
12, 134040, Note_on_c, 14, 55, 80
12, 134144, Note_on_c, 14, 55, 0
12, 134160, Note_on_c, 14, 62, 80
12, 134264, Note_on_c, 14, 62, 0
12, 134280, Note_on_c, 14, 59, 80
12, 134384, Note_on_c, 14, 59, 0
12, 134400, Note_on_c, 14, 55, 80
12, 134504, Note_on_c, 14, 55, 0
12, 134520, Note_on_c, 14, 50, 80
12, 134624, Note_on_c, 14, 50, 0
12, 134640, Note_on_c, 14, 47, 80
12, 134879, Note_on_c, 14, 47, 0
12, 135360, Note_on_c, 14, 48, 80
12, 135464, Note_on_c, 14, 48, 0
12, 135480, Note_on_c, 14, 48, 80
12, 135584, Note_on_c, 14, 48, 0
12, 135600, Note_on_c, 14, 48, 80
12, 135704, Note_on_c, 14, 48, 0
12, 135720, Note_on_c, 14, 48, 80
12, 135824, Note_on_c, 14, 48, 0
12, 135840, Note_on_c, 14, 48, 80
12, 135944, Note_on_c, 14, 48, 0
12, 135960, Note_on_c, 14, 48, 80
12, 136064, Note_on_c, 14, 48, 0
12, 136080, Note_on_c, 14, 57, 80
12, 136184, Note_on_c, 14, 57, 0
12, 136200, Note_on_c, 14, 57, 80
12, 136304, Note_on_c, 14, 57, 0
12, 136320, Note_on_c, 14, 57, 80
12, 136424, Note_on_c, 14, 57, 0
12, 136440, Note_on_c, 14, 57, 80
12, 136544, Note_on_c, 14, 57, 0
12, 136560, Note_on_c, 14, 57, 80
12, 136664, Note_on_c, 14, 57, 0
12, 136680, Note_on_c, 14, 57, 80
12, 136784, Note_on_c, 14, 57, 0
12, 136800, Note_on_c, 14, 52, 80
12, 136904, Note_on_c, 14, 52, 0
12, 136920, Note_on_c, 14, 52, 80
12, 137024, Note_on_c, 14, 52, 0
12, 137040, Note_on_c, 14, 52, 80
12, 137144, Note_on_c, 14, 52, 0
12, 137160, Note_on_c, 14, 52, 80
12, 137264, Note_on_c, 14, 52, 0
12, 137280, Note_on_c, 14, 52, 80
12, 137384, Note_on_c, 14, 52, 0
12, 137400, Note_on_c, 14, 52, 80
12, 137504, Note_on_c, 14, 52, 0
12, 137520, Note_on_c, 14, 53, 80
12, 137624, Note_on_c, 14, 53, 0
12, 137640, Note_on_c, 14, 53, 80
12, 137744, Note_on_c, 14, 53, 0
12, 137760, Note_on_c, 14, 53, 80
12, 137864, Note_on_c, 14, 53, 0
12, 137880, Note_on_c, 14, 53, 80
12, 137984, Note_on_c, 14, 53, 0
12, 138000, Note_on_c, 14, 53, 80
12, 138104, Note_on_c, 14, 53, 0
12, 138120, Note_on_c, 14, 54, 80
12, 138224, Note_on_c, 14, 54, 0
12, 138240, Note_on_c, 14, 55, 80
12, 138464, Note_on_c, 14, 55, 0
12, 138480, Note_on_c, 14, 43, 80
12, 138719, Note_on_c, 14, 43, 0
12, 138960, Note_on_c, 14, 48, 44
12, 139199, Note_on_c, 14, 48, 0
12, 139680, Note_on_c, 14, 53, 44
12, 139919, Note_on_c, 14, 53, 0
12, 140400, Note_on_c, 14, 55, 44
12, 140639, Note_on_c, 14, 55, 0
12, 141120, Note_on_c, 14, 48, 44
12, 141359, Note_on_c, 14, 48, 0
12, 141840, Note_on_c, 14, 60, 44
12, 142079, Note_on_c, 14, 60, 0
12, 142560, Note_on_c, 14, 53, 44
12, 142799, Note_on_c, 14, 53, 0
12, 143280, Note_on_c, 14, 55, 44
12, 143519, Note_on_c, 14, 55, 0
12, 144120, Note_on_c, 14, 60, 44
12, 144224, Note_on_c, 14, 60, 0
12, 144240, Note_on_c, 14, 55, 44
12, 144344, Note_on_c, 14, 55, 0
12, 144360, Note_on_c, 14, 53, 44
12, 144464, Note_on_c, 14, 53, 0
12, 144480, Note_on_c, 14, 52, 44
12, 144584, Note_on_c, 14, 52, 0
12, 144600, Note_on_c, 14, 50, 44
12, 144704, Note_on_c, 14, 50, 0
12, 144720, Note_on_c, 14, 48, 44
12, 144959, Note_on_c, 14, 48, 0
12, 145440, Note_on_c, 14, 53, 44
12, 145679, Note_on_c, 14, 53, 0
12, 146160, Note_on_c, 14, 55, 44
12, 146399, Note_on_c, 14, 55, 0
12, 146880, Note_on_c, 14, 48, 44
12, 147119, Note_on_c, 14, 48, 0
12, 147600, Note_on_c, 14, 60, 44
12, 147839, Note_on_c, 14, 60, 0
12, 148320, Note_on_c, 14, 53, 44
12, 148559, Note_on_c, 14, 53, 0
12, 149040, Note_on_c, 14, 55, 44
12, 149279, Note_on_c, 14, 55, 0
12, 149760, Note_on_c, 14, 48, 80
12, 149999, Note_on_c, 14, 48, 0
12, 150240, Note_on_c, 14, 60, 80
12, 150464, Note_on_c, 14, 60, 0
12, 150480, Note_on_c, 14, 59, 80
12, 150719, Note_on_c, 14, 59, 0
12, 150960, Note_on_c, 14, 59, 80
12, 151184, Note_on_c, 14, 59, 0
12, 151200, Note_on_c, 14, 57, 80
12, 151304, Note_on_c, 14, 57, 0
12, 151320, Note_on_c, 14, 56, 80
12, 151424, Note_on_c, 14, 56, 0
12, 151440, Note_on_c, 14, 57, 80
12, 151544, Note_on_c, 14, 57, 0
12, 151560, Note_on_c, 14, 56, 80
12, 151664, Note_on_c, 14, 56, 0
12, 151680, Note_on_c, 14, 57, 80
12, 151784, Note_on_c, 14, 57, 0
12, 151800, Note_on_c, 14, 65, 80
12, 151904, Note_on_c, 14, 65, 0
12, 151920, Note_on_c, 14, 64, 80
12, 152024, Note_on_c, 14, 64, 0
12, 152040, Note_on_c, 14, 62, 80
12, 152144, Note_on_c, 14, 62, 0
12, 152160, Note_on_c, 14, 60, 80
12, 152264, Note_on_c, 14, 60, 0
12, 152280, Note_on_c, 14, 62, 80
12, 152384, Note_on_c, 14, 62, 0
12, 152400, Note_on_c, 14, 64, 80
12, 152504, Note_on_c, 14, 64, 0
12, 152520, Note_on_c, 14, 60, 80
12, 152624, Note_on_c, 14, 60, 0
12, 152640, Note_on_c, 14, 62, 80
12, 152744, Note_on_c, 14, 62, 0
12, 152760, Note_on_c, 14, 62, 80
12, 152864, Note_on_c, 14, 62, 0
12, 152880, Note_on_c, 14, 62, 80
12, 152984, Note_on_c, 14, 62, 0
12, 153000, Note_on_c, 14, 62, 80
12, 153104, Note_on_c, 14, 62, 0
12, 153120, Note_on_c, 14, 60, 80
12, 153224, Note_on_c, 14, 60, 0
12, 153240, Note_on_c, 14, 60, 80
12, 153344, Note_on_c, 14, 60, 0
12, 153360, Note_on_c, 14, 59, 80
12, 153464, Note_on_c, 14, 59, 0
12, 153480, Note_on_c, 14, 59, 80
12, 153584, Note_on_c, 14, 59, 0
12, 153600, Note_on_c, 14, 55, 80
12, 153704, Note_on_c, 14, 55, 0
12, 153720, Note_on_c, 14, 55, 80
12, 153824, Note_on_c, 14, 55, 0
12, 153840, Note_on_c, 14, 60, 80
12, 153944, Note_on_c, 14, 60, 0
12, 153960, Note_on_c, 14, 60, 80
12, 154064, Note_on_c, 14, 60, 0
12, 154080, Note_on_c, 14, 53, 80
12, 154184, Note_on_c, 14, 53, 0
12, 154200, Note_on_c, 14, 53, 80
12, 154304, Note_on_c, 14, 53, 0
12, 154320, Note_on_c, 14, 55, 80
12, 154424, Note_on_c, 14, 55, 0
12, 154440, Note_on_c, 14, 55, 80
12, 154544, Note_on_c, 14, 55, 0
12, 154560, Note_on_c, 14, 56, 80
12, 154664, Note_on_c, 14, 56, 0
12, 154680, Note_on_c, 14, 56, 80
12, 154784, Note_on_c, 14, 56, 0
12, 154800, Note_on_c, 14, 57, 80
12, 154979, Note_on_c, 14, 57, 0
12, 155040, Note_on_c, 14, 55, 80
12, 155219, Note_on_c, 14, 55, 0
12, 155280, Note_on_c, 14, 53, 80
12, 155459, Note_on_c, 14, 53, 0
12, 155520, Note_on_c, 14, 49, 80
12, 155699, Note_on_c, 14, 49, 0
12, 155760, Note_on_c, 14, 50, 80
12, 155939, Note_on_c, 14, 50, 0
12, 156480, Note_on_c, 14, 50, 44
12, 156719, Note_on_c, 14, 50, 0
12, 156720, Note_on_c, 14, 48, 44
12, 156944, Note_on_c, 14, 48, 0
12, 156960, Note_on_c, 14, 47, 44
12, 157139, Note_on_c, 14, 47, 0
12, 157200, Note_on_c, 14, 43, 44
12, 157439, Note_on_c, 14, 43, 0
12, 157440, Note_on_c, 14, 45, 44
12, 157664, Note_on_c, 14, 45, 0
12, 157680, Note_on_c, 14, 53, 44
12, 157904, Note_on_c, 14, 53, 0
12, 157920, Note_on_c, 14, 55, 44
12, 158144, Note_on_c, 14, 55, 0
12, 158160, Note_on_c, 14, 43, 44
12, 158384, Note_on_c, 14, 43, 0
12, 158400, Note_on_c, 14, 48, 80
12, 158639, Note_on_c, 14, 48, 0
12, 158880, Note_on_c, 14, 55, 80
12, 159104, Note_on_c, 14, 55, 0
12, 159120, Note_on_c, 14, 48, 80
12, 159344, Note_on_c, 14, 48, 0
12, 159360, Note_on_c, 14, 52, 80
12, 159584, Note_on_c, 14, 52, 0
12, 159600, Note_on_c, 14, 55, 80
12, 159824, Note_on_c, 14, 55, 0
12, 159840, Note_on_c, 14, 60, 80
12, 160079, Note_on_c, 14, 60, 0
12, 160320, Note_on_c, 14, 55, 80
12, 160544, Note_on_c, 14, 55, 0
12, 160560, Note_on_c, 14, 48, 80
12, 160784, Note_on_c, 14, 48, 0
12, 160800, Note_on_c, 14, 52, 80
12, 161024, Note_on_c, 14, 52, 0
12, 161040, Note_on_c, 14, 55, 80
12, 161264, Note_on_c, 14, 55, 0
12, 161280, Note_on_c, 14, 48, 80
12, 161519, Note_on_c, 14, 48, 0
12, 161760, Note_on_c, 14, 55, 80
12, 161984, Note_on_c, 14, 55, 0
12, 162000, Note_on_c, 14, 48, 80
12, 162239, Note_on_c, 14, 48, 0
12, 162480, Note_on_c, 14, 55, 80
12, 162704, Note_on_c, 14, 55, 0
12, 162720, Note_on_c, 14, 60, 80
12, 162944, Note_on_c, 14, 60, 0
12, 162960, Note_on_c, 14, 55, 80
12, 163199, Note_on_c, 14, 55, 0
12, 163440, Note_on_c, 14, 52, 80
12, 163664, Note_on_c, 14, 52, 0
12, 163680, Note_on_c, 14, 48, 80
12, 163919, Note_on_c, 14, 48, 0
12, 167040, Note_on_c, 14, 60, 80
12, 167079, Note_on_c, 14, 60, 0
12, 167080, Note_on_c, 14, 62, 80
12, 167119, Note_on_c, 14, 62, 0
12, 167120, Note_on_c, 14, 60, 80
12, 167159, Note_on_c, 14, 60, 0
12, 167160, Note_on_c, 14, 62, 80
12, 167199, Note_on_c, 14, 62, 0
12, 167200, Note_on_c, 14, 59, 80
12, 167239, Note_on_c, 14, 59, 0
12, 167240, Note_on_c, 14, 60, 80
12, 167271, Note_on_c, 14, 60, 0
12, 167280, Note_on_c, 14, 64, 80
12, 167369, Note_on_c, 14, 64, 0
12, 167400, Note_on_c, 14, 60, 80
12, 167489, Note_on_c, 14, 60, 0
12, 167520, Note_on_c, 14, 55, 80
12, 167609, Note_on_c, 14, 55, 0
12, 167640, Note_on_c, 14, 52, 80
12, 167729, Note_on_c, 14, 52, 0
12, 167760, Note_on_c, 14, 53, 80
12, 167879, Note_on_c, 14, 53, 0
12, 168000, Note_on_c, 14, 50, 80
12, 168119, Note_on_c, 14, 50, 0
12, 168240, Note_on_c, 14, 55, 80
12, 168359, Note_on_c, 14, 55, 0
12, 168480, Note_on_c, 14, 60, 80
12, 168519, Note_on_c, 14, 60, 0
12, 168520, Note_on_c, 14, 62, 80
12, 168559, Note_on_c, 14, 62, 0
12, 168560, Note_on_c, 14, 60, 80
12, 168599, Note_on_c, 14, 60, 0
12, 168600, Note_on_c, 14, 62, 80
12, 168639, Note_on_c, 14, 62, 0
12, 168640, Note_on_c, 14, 59, 80
12, 168679, Note_on_c, 14, 59, 0
12, 168680, Note_on_c, 14, 60, 80
12, 168711, Note_on_c, 14, 60, 0
12, 168720, Note_on_c, 14, 64, 80
12, 168809, Note_on_c, 14, 64, 0
12, 168840, Note_on_c, 14, 60, 80
12, 168929, Note_on_c, 14, 60, 0
12, 168960, Note_on_c, 14, 55, 80
12, 169049, Note_on_c, 14, 55, 0
12, 169080, Note_on_c, 14, 52, 80
12, 169169, Note_on_c, 14, 52, 0
12, 169200, Note_on_c, 14, 53, 80
12, 169319, Note_on_c, 14, 53, 0
12, 169440, Note_on_c, 14, 50, 80
12, 169559, Note_on_c, 14, 50, 0
12, 169680, Note_on_c, 14, 55, 80
12, 169799, Note_on_c, 14, 55, 0
12, 169920, Note_on_c, 14, 48, 80
12, 170159, Note_on_c, 14, 48, 0
12, 170640, Note_on_c, 14, 60, 80
12, 170864, Note_on_c, 14, 60, 0
12, 170880, Note_on_c, 14, 55, 80
12, 171104, Note_on_c, 14, 55, 0
12, 171120, Note_on_c, 14, 52, 80
12, 171344, Note_on_c, 14, 52, 0
12, 171360, Note_on_c, 14, 48, 80
12, 171584, Note_on_c, 14, 48, 0
12, 171600, Note_on_c, 14, 43, 80
12, 171824, Note_on_c, 14, 43, 0
12, 171840, Note_on_c, 14, 52, 80
12, 172064, Note_on_c, 14, 52, 0
12, 172080, Note_on_c, 14, 48, 80
12, 172319, Note_on_c, 14, 48, 0
12, 172319, End_track
13, 0, Start_track
13, 0, Title_t, "Contrabass"
13, 0, Program_c, 15, 48
13, 0, Control_c, 15, 7, 96
13, 0, Control_c, 15, 10, 80
13, 0, Control_c, 15, 121, 0
13, 0, Control_c, 15, 11, 127
13, 0, Note_on_c, 15, 48, 80
13, 224, Note_on_c, 15, 48, 0
13, 240, Note_on_c, 15, 43, 80
13, 479, Note_on_c, 15, 43, 0
13, 720, Note_on_c, 15, 40, 80
13, 944, Note_on_c, 15, 40, 0
13, 960, Note_on_c, 15, 36, 80
13, 1199, Note_on_c, 15, 36, 0
13, 4320, Note_on_c, 15, 48, 80
13, 4544, Note_on_c, 15, 48, 0
13, 4560, Note_on_c, 15, 43, 80
13, 4799, Note_on_c, 15, 43, 0
13, 5040, Note_on_c, 15, 40, 80
13, 5264, Note_on_c, 15, 40, 0
13, 5280, Note_on_c, 15, 36, 80
13, 5519, Note_on_c, 15, 36, 0
13, 8640, Note_on_c, 15, 36, 80
13, 8744, Note_on_c, 15, 36, 0
13, 8760, Note_on_c, 15, 36, 80
13, 8864, Note_on_c, 15, 36, 0
13, 8880, Note_on_c, 15, 36, 80
13, 8984, Note_on_c, 15, 36, 0
13, 9000, Note_on_c, 15, 36, 80
13, 9104, Note_on_c, 15, 36, 0
13, 9120, Note_on_c, 15, 40, 80
13, 9224, Note_on_c, 15, 40, 0
13, 9240, Note_on_c, 15, 40, 80
13, 9344, Note_on_c, 15, 40, 0
13, 9360, Note_on_c, 15, 41, 80
13, 9464, Note_on_c, 15, 41, 0
13, 9480, Note_on_c, 15, 41, 80
13, 9584, Note_on_c, 15, 41, 0
13, 9600, Note_on_c, 15, 41, 80
13, 9704, Note_on_c, 15, 41, 0
13, 9720, Note_on_c, 15, 41, 80
13, 9824, Note_on_c, 15, 41, 0
13, 9840, Note_on_c, 15, 43, 80
13, 9944, Note_on_c, 15, 43, 0
13, 9960, Note_on_c, 15, 43, 80
13, 10064, Note_on_c, 15, 43, 0
13, 10080, Note_on_c, 15, 45, 80
13, 10184, Note_on_c, 15, 45, 0
13, 10200, Note_on_c, 15, 45, 80
13, 10304, Note_on_c, 15, 45, 0
13, 10320, Note_on_c, 15, 45, 80
13, 10424, Note_on_c, 15, 45, 0
13, 10440, Note_on_c, 15, 45, 80
13, 10544, Note_on_c, 15, 45, 0
13, 10560, Note_on_c, 15, 45, 80
13, 10664, Note_on_c, 15, 45, 0
13, 10680, Note_on_c, 15, 40, 80
13, 10784, Note_on_c, 15, 40, 0
13, 10800, Note_on_c, 15, 41, 80
13, 10904, Note_on_c, 15, 41, 0
13, 10920, Note_on_c, 15, 41, 80
13, 11024, Note_on_c, 15, 41, 0
13, 11040, Note_on_c, 15, 40, 80
13, 11144, Note_on_c, 15, 40, 0
13, 11160, Note_on_c, 15, 40, 80
13, 11264, Note_on_c, 15, 40, 0
13, 11280, Note_on_c, 15, 35, 80
13, 11384, Note_on_c, 15, 35, 0
13, 11400, Note_on_c, 15, 35, 80
13, 11504, Note_on_c, 15, 35, 0
13, 11520, Note_on_c, 15, 36, 80
13, 11624, Note_on_c, 15, 36, 0
13, 11640, Note_on_c, 15, 36, 80
13, 11744, Note_on_c, 15, 36, 0
13, 11760, Note_on_c, 15, 41, 80
13, 11864, Note_on_c, 15, 41, 0
13, 11880, Note_on_c, 15, 41, 80
13, 11984, Note_on_c, 15, 41, 0
13, 12000, Note_on_c, 15, 43, 80
13, 12104, Note_on_c, 15, 43, 0
13, 12120, Note_on_c, 15, 43, 80
13, 12224, Note_on_c, 15, 43, 0
13, 12240, Note_on_c, 15, 40, 80
13, 12344, Note_on_c, 15, 40, 0
13, 12360, Note_on_c, 15, 40, 80
13, 12464, Note_on_c, 15, 40, 0
13, 12480, Note_on_c, 15, 40, 80
13, 12584, Note_on_c, 15, 40, 0
13, 12600, Note_on_c, 15, 40, 80
13, 12704, Note_on_c, 15, 40, 0
13, 12720, Note_on_c, 15, 40, 80
13, 12824, Note_on_c, 15, 40, 0
13, 12840, Note_on_c, 15, 40, 80
13, 12944, Note_on_c, 15, 40, 0
13, 12960, Note_on_c, 15, 41, 80
13, 13184, Note_on_c, 15, 41, 0
13, 13200, Note_on_c, 15, 43, 80
13, 13424, Note_on_c, 15, 43, 0
13, 13440, Note_on_c, 15, 31, 80
13, 13664, Note_on_c, 15, 31, 0
13, 13680, Note_on_c, 15, 36, 80
13, 13784, Note_on_c, 15, 36, 0
13, 13800, Note_on_c, 15, 48, 80
13, 13904, Note_on_c, 15, 48, 0
13, 13920, Note_on_c, 15, 43, 80
13, 14024, Note_on_c, 15, 43, 0
13, 14040, Note_on_c, 15, 48, 80
13, 14144, Note_on_c, 15, 48, 0
13, 14160, Note_on_c, 15, 40, 80
13, 14264, Note_on_c, 15, 40, 0
13, 14280, Note_on_c, 15, 43, 80
13, 14384, Note_on_c, 15, 43, 0
13, 14400, Note_on_c, 15, 36, 80
13, 14639, Note_on_c, 15, 36, 0
13, 15120, Note_on_c, 15, 31, 80
13, 15224, Note_on_c, 15, 31, 0
13, 15240, Note_on_c, 15, 43, 80
13, 15344, Note_on_c, 15, 43, 0
13, 15360, Note_on_c, 15, 38, 80
13, 15464, Note_on_c, 15, 38, 0
13, 15480, Note_on_c, 15, 43, 80
13, 15584, Note_on_c, 15, 43, 0
13, 15600, Note_on_c, 15, 35, 80
13, 15704, Note_on_c, 15, 35, 0
13, 15720, Note_on_c, 15, 38, 80
13, 15824, Note_on_c, 15, 38, 0
13, 15840, Note_on_c, 15, 31, 80
13, 16079, Note_on_c, 15, 31, 0
13, 16560, Note_on_c, 15, 36, 80
13, 16664, Note_on_c, 15, 36, 0
13, 16680, Note_on_c, 15, 48, 80
13, 16784, Note_on_c, 15, 48, 0
13, 16800, Note_on_c, 15, 43, 80
13, 16904, Note_on_c, 15, 43, 0
13, 16920, Note_on_c, 15, 48, 80
13, 17024, Note_on_c, 15, 48, 0
13, 17040, Note_on_c, 15, 40, 80
13, 17144, Note_on_c, 15, 40, 0
13, 17160, Note_on_c, 15, 43, 80
13, 17264, Note_on_c, 15, 43, 0
13, 17280, Note_on_c, 15, 36, 80
13, 17519, Note_on_c, 15, 36, 0
13, 18000, Note_on_c, 15, 42, 80
13, 18104, Note_on_c, 15, 42, 0
13, 18120, Note_on_c, 15, 45, 80
13, 18224, Note_on_c, 15, 45, 0
13, 18240, Note_on_c, 15, 50, 80
13, 18344, Note_on_c, 15, 50, 0
13, 18360, Note_on_c, 15, 45, 80
13, 18464, Note_on_c, 15, 45, 0
13, 18480, Note_on_c, 15, 50, 80
13, 18584, Note_on_c, 15, 50, 0
13, 18600, Note_on_c, 15, 45, 80
13, 18704, Note_on_c, 15, 45, 0
13, 18720, Note_on_c, 15, 42, 80
13, 18959, Note_on_c, 15, 42, 0
13, 19440, Note_on_c, 15, 43, 80
13, 19544, Note_on_c, 15, 43, 0
13, 19560, Note_on_c, 15, 43, 80
13, 19664, Note_on_c, 15, 43, 0
13, 19680, Note_on_c, 15, 43, 80
13, 19784, Note_on_c, 15, 43, 0
13, 19800, Note_on_c, 15, 43, 80
13, 19904, Note_on_c, 15, 43, 0
13, 19920, Note_on_c, 15, 43, 80
13, 20024, Note_on_c, 15, 43, 0
13, 20040, Note_on_c, 15, 43, 80
13, 20144, Note_on_c, 15, 43, 0
13, 20160, Note_on_c, 15, 40, 80
13, 20264, Note_on_c, 15, 40, 0
13, 20280, Note_on_c, 15, 40, 80
13, 20384, Note_on_c, 15, 40, 0
13, 20400, Note_on_c, 15, 40, 80
13, 20504, Note_on_c, 15, 40, 0
13, 20520, Note_on_c, 15, 40, 80
13, 20624, Note_on_c, 15, 40, 0
13, 20640, Note_on_c, 15, 40, 80
13, 20744, Note_on_c, 15, 40, 0
13, 20760, Note_on_c, 15, 40, 80
13, 20864, Note_on_c, 15, 40, 0
13, 20880, Note_on_c, 15, 35, 80
13, 20984, Note_on_c, 15, 35, 0
13, 21000, Note_on_c, 15, 35, 80
13, 21104, Note_on_c, 15, 35, 0
13, 21120, Note_on_c, 15, 35, 80
13, 21224, Note_on_c, 15, 35, 0
13, 21240, Note_on_c, 15, 35, 80
13, 21344, Note_on_c, 15, 35, 0
13, 21360, Note_on_c, 15, 35, 80
13, 21464, Note_on_c, 15, 35, 0
13, 21480, Note_on_c, 15, 35, 80
13, 21584, Note_on_c, 15, 35, 0
13, 21600, Note_on_c, 15, 36, 80
13, 21704, Note_on_c, 15, 36, 0
13, 21720, Note_on_c, 15, 36, 80
13, 21824, Note_on_c, 15, 36, 0
13, 21840, Note_on_c, 15, 36, 80
13, 21944, Note_on_c, 15, 36, 0
13, 21960, Note_on_c, 15, 36, 80
13, 22064, Note_on_c, 15, 36, 0
13, 22080, Note_on_c, 15, 36, 80
13, 22184, Note_on_c, 15, 36, 0
13, 22200, Note_on_c, 15, 37, 80
13, 22304, Note_on_c, 15, 37, 0
13, 22320, Note_on_c, 15, 38, 80
13, 22544, Note_on_c, 15, 38, 0
13, 22560, Note_on_c, 15, 38, 80
13, 22799, Note_on_c, 15, 38, 0
13, 23040, Note_on_c, 15, 43, 44
13, 23279, Note_on_c, 15, 43, 0
13, 23760, Note_on_c, 15, 36, 44
13, 23999, Note_on_c, 15, 36, 0
13, 24480, Note_on_c, 15, 38, 44
13, 24719, Note_on_c, 15, 38, 0
13, 25200, Note_on_c, 15, 31, 44
13, 25439, Note_on_c, 15, 31, 0
13, 25920, Note_on_c, 15, 43, 44
13, 26159, Note_on_c, 15, 43, 0
13, 26640, Note_on_c, 15, 36, 44
13, 26879, Note_on_c, 15, 36, 0
13, 27360, Note_on_c, 15, 38, 44
13, 27599, Note_on_c, 15, 38, 0
13, 28200, Note_on_c, 15, 43, 44
13, 28304, Note_on_c, 15, 43, 0
13, 28320, Note_on_c, 15, 38, 44
13, 28424, Note_on_c, 15, 38, 0
13, 28440, Note_on_c, 15, 36, 44
13, 28544, Note_on_c, 15, 36, 0
13, 28560, Note_on_c, 15, 35, 44
13, 28664, Note_on_c, 15, 35, 0
13, 28680, Note_on_c, 15, 33, 44
13, 28784, Note_on_c, 15, 33, 0
13, 28800, Note_on_c, 15, 31, 44
13, 29039, Note_on_c, 15, 31, 0
13, 29520, Note_on_c, 15, 36, 44
13, 29759, Note_on_c, 15, 36, 0
13, 30240, Note_on_c, 15, 38, 44
13, 30479, Note_on_c, 15, 38, 0
13, 30960, Note_on_c, 15, 43, 44
13, 31199, Note_on_c, 15, 43, 0
13, 31680, Note_on_c, 15, 31, 44
13, 31919, Note_on_c, 15, 31, 0
13, 32400, Note_on_c, 15, 36, 44
13, 32639, Note_on_c, 15, 36, 0
13, 33120, Note_on_c, 15, 36, 44
13, 33344, Note_on_c, 15, 36, 0
13, 33360, Note_on_c, 15, 38, 44
13, 33584, Note_on_c, 15, 38, 0
13, 33600, Note_on_c, 15, 38, 44
13, 33824, Note_on_c, 15, 38, 0
13, 33840, Note_on_c, 15, 31, 80
13, 34079, Note_on_c, 15, 31, 0
13, 34320, Note_on_c, 15, 43, 80
13, 34544, Note_on_c, 15, 43, 0
13, 34560, Note_on_c, 15, 42, 80
13, 34799, Note_on_c, 15, 42, 0
13, 35040, Note_on_c, 15, 54, 80
13, 35264, Note_on_c, 15, 54, 0
13, 35280, Note_on_c, 15, 52, 80
13, 35384, Note_on_c, 15, 52, 0
13, 35400, Note_on_c, 15, 51, 80
13, 35504, Note_on_c, 15, 51, 0
13, 35520, Note_on_c, 15, 52, 80
13, 35624, Note_on_c, 15, 52, 0
13, 35640, Note_on_c, 15, 51, 80
13, 35744, Note_on_c, 15, 51, 0
13, 35760, Note_on_c, 15, 52, 80
13, 35864, Note_on_c, 15, 52, 0
13, 35880, Note_on_c, 15, 48, 80
13, 35984, Note_on_c, 15, 48, 0
13, 36000, Note_on_c, 15, 47, 80
13, 36104, Note_on_c, 15, 47, 0
13, 36120, Note_on_c, 15, 45, 80
13, 36224, Note_on_c, 15, 45, 0
13, 36240, Note_on_c, 15, 43, 80
13, 36344, Note_on_c, 15, 43, 0
13, 36360, Note_on_c, 15, 45, 80
13, 36464, Note_on_c, 15, 45, 0
13, 36480, Note_on_c, 15, 47, 80
13, 36584, Note_on_c, 15, 47, 0
13, 36600, Note_on_c, 15, 43, 80
13, 36704, Note_on_c, 15, 43, 0
13, 36720, Note_on_c, 15, 45, 80
13, 36824, Note_on_c, 15, 45, 0
13, 36840, Note_on_c, 15, 45, 80
13, 36944, Note_on_c, 15, 45, 0
13, 36960, Note_on_c, 15, 45, 80
13, 37064, Note_on_c, 15, 45, 0
13, 37080, Note_on_c, 15, 45, 80
13, 37184, Note_on_c, 15, 45, 0
13, 37200, Note_on_c, 15, 43, 80
13, 37304, Note_on_c, 15, 43, 0
13, 37320, Note_on_c, 15, 43, 80
13, 37424, Note_on_c, 15, 43, 0
13, 37440, Note_on_c, 15, 42, 80
13, 37544, Note_on_c, 15, 42, 0
13, 37560, Note_on_c, 15, 42, 80
13, 37664, Note_on_c, 15, 42, 0
13, 37680, Note_on_c, 15, 38, 80
13, 37784, Note_on_c, 15, 38, 0
13, 37800, Note_on_c, 15, 38, 80
13, 37904, Note_on_c, 15, 38, 0
13, 37920, Note_on_c, 15, 43, 80
13, 38024, Note_on_c, 15, 43, 0
13, 38040, Note_on_c, 15, 43, 80
13, 38144, Note_on_c, 15, 43, 0
13, 38160, Note_on_c, 15, 36, 80
13, 38264, Note_on_c, 15, 36, 0
13, 38280, Note_on_c, 15, 36, 80
13, 38384, Note_on_c, 15, 36, 0
13, 38400, Note_on_c, 15, 38, 80
13, 38504, Note_on_c, 15, 38, 0
13, 38520, Note_on_c, 15, 38, 80
13, 38624, Note_on_c, 15, 38, 0
13, 38640, Note_on_c, 15, 39, 80
13, 38744, Note_on_c, 15, 39, 0
13, 38760, Note_on_c, 15, 39, 80
13, 38864, Note_on_c, 15, 39, 0
13, 38880, Note_on_c, 15, 40, 80
13, 39059, Note_on_c, 15, 40, 0
13, 39120, Note_on_c, 15, 38, 80
13, 39299, Note_on_c, 15, 38, 0
13, 39360, Note_on_c, 15, 36, 80
13, 39539, Note_on_c, 15, 36, 0
13, 39600, Note_on_c, 15, 44, 80
13, 39779, Note_on_c, 15, 44, 0
13, 39840, Note_on_c, 15, 45, 80
13, 40019, Note_on_c, 15, 45, 0
13, 42480, Note_on_c, 15, 31, 80
13, 42719, Note_on_c, 15, 31, 0
13, 42960, Note_on_c, 15, 38, 80
13, 43184, Note_on_c, 15, 38, 0
13, 43200, Note_on_c, 15, 43, 80
13, 43424, Note_on_c, 15, 43, 0
13, 43440, Note_on_c, 15, 47, 80
13, 43664, Note_on_c, 15, 47, 0
13, 43680, Note_on_c, 15, 50, 80
13, 43904, Note_on_c, 15, 50, 0
13, 43920, Note_on_c, 15, 43, 80
13, 44159, Note_on_c, 15, 43, 0
13, 44400, Note_on_c, 15, 38, 80
13, 44624, Note_on_c, 15, 38, 0
13, 44640, Note_on_c, 15, 43, 80
13, 44864, Note_on_c, 15, 43, 0
13, 44880, Note_on_c, 15, 47, 80
13, 45104, Note_on_c, 15, 47, 0
13, 45120, Note_on_c, 15, 50, 80
13, 45344, Note_on_c, 15, 50, 0
13, 45360, Note_on_c, 15, 43, 80
13, 45599, Note_on_c, 15, 43, 0
13, 45840, Note_on_c, 15, 38, 80
13, 46064, Note_on_c, 15, 38, 0
13, 46080, Note_on_c, 15, 43, 80
13, 46319, Note_on_c, 15, 43, 0
13, 46560, Note_on_c, 15, 38, 80
13, 46784, Note_on_c, 15, 38, 0
13, 46800, Note_on_c, 15, 31, 80
13, 47024, Note_on_c, 15, 31, 0
13, 47040, Note_on_c, 15, 43, 80
13, 47129, Note_on_c, 15, 43, 0
13, 47160, Note_on_c, 15, 45, 80
13, 47249, Note_on_c, 15, 45, 0
13, 47280, Note_on_c, 15, 47, 80
13, 47369, Note_on_c, 15, 47, 0
13, 47400, Note_on_c, 15, 48, 80
13, 47489, Note_on_c, 15, 48, 0
13, 47520, Note_on_c, 15, 50, 80
13, 47609, Note_on_c, 15, 50, 0
13, 47640, Note_on_c, 15, 52, 80
13, 47729, Note_on_c, 15, 52, 0
13, 47760, Note_on_c, 15, 53, 80
13, 47849, Note_on_c, 15, 53, 0
13, 47880, Note_on_c, 15, 50, 80
13, 47969, Note_on_c, 15, 50, 0
13, 48000, Note_on_c, 15, 47, 80
13, 48089, Note_on_c, 15, 47, 0
13, 48120, Note_on_c, 15, 43, 80
13, 48209, Note_on_c, 15, 43, 0
13, 48240, Note_on_c, 15, 48, 80
13, 48464, Note_on_c, 15, 48, 0
13, 48480, Note_on_c, 15, 43, 80
13, 48719, Note_on_c, 15, 43, 0
13, 48960, Note_on_c, 15, 40, 80
13, 49184, Note_on_c, 15, 40, 0
13, 49200, Note_on_c, 15, 36, 80
13, 49439, Note_on_c, 15, 36, 0
13, 52560, Note_on_c, 15, 48, 80
13, 52784, Note_on_c, 15, 48, 0
13, 52800, Note_on_c, 15, 43, 80
13, 53039, Note_on_c, 15, 43, 0
13, 53280, Note_on_c, 15, 40, 80
13, 53504, Note_on_c, 15, 40, 0
13, 53520, Note_on_c, 15, 36, 80
13, 53759, Note_on_c, 15, 36, 0
13, 56880, Note_on_c, 15, 36, 80
13, 56984, Note_on_c, 15, 36, 0
13, 57000, Note_on_c, 15, 36, 80
13, 57104, Note_on_c, 15, 36, 0
13, 57120, Note_on_c, 15, 36, 80
13, 57224, Note_on_c, 15, 36, 0
13, 57240, Note_on_c, 15, 36, 80
13, 57344, Note_on_c, 15, 36, 0
13, 57360, Note_on_c, 15, 40, 80
13, 57464, Note_on_c, 15, 40, 0
13, 57480, Note_on_c, 15, 40, 80
13, 57584, Note_on_c, 15, 40, 0
13, 57600, Note_on_c, 15, 41, 80
13, 57704, Note_on_c, 15, 41, 0
13, 57720, Note_on_c, 15, 41, 80
13, 57824, Note_on_c, 15, 41, 0
13, 57840, Note_on_c, 15, 41, 80
13, 57944, Note_on_c, 15, 41, 0
13, 57960, Note_on_c, 15, 41, 80
13, 58064, Note_on_c, 15, 41, 0
13, 58080, Note_on_c, 15, 43, 80
13, 58184, Note_on_c, 15, 43, 0
13, 58200, Note_on_c, 15, 43, 80
13, 58304, Note_on_c, 15, 43, 0
13, 58320, Note_on_c, 15, 45, 80
13, 58424, Note_on_c, 15, 45, 0
13, 58440, Note_on_c, 15, 45, 80
13, 58544, Note_on_c, 15, 45, 0
13, 58560, Note_on_c, 15, 45, 80
13, 58664, Note_on_c, 15, 45, 0
13, 58680, Note_on_c, 15, 45, 80
13, 58784, Note_on_c, 15, 45, 0
13, 58800, Note_on_c, 15, 45, 80
13, 58904, Note_on_c, 15, 45, 0
13, 58920, Note_on_c, 15, 40, 80
13, 59024, Note_on_c, 15, 40, 0
13, 59040, Note_on_c, 15, 41, 80
13, 59144, Note_on_c, 15, 41, 0
13, 59160, Note_on_c, 15, 41, 80
13, 59264, Note_on_c, 15, 41, 0
13, 59280, Note_on_c, 15, 40, 80
13, 59384, Note_on_c, 15, 40, 0
13, 59400, Note_on_c, 15, 40, 80
13, 59504, Note_on_c, 15, 40, 0
13, 59520, Note_on_c, 15, 35, 80
13, 59624, Note_on_c, 15, 35, 0
13, 59640, Note_on_c, 15, 35, 80
13, 59744, Note_on_c, 15, 35, 0
13, 59760, Note_on_c, 15, 36, 80
13, 59864, Note_on_c, 15, 36, 0
13, 59880, Note_on_c, 15, 36, 80
13, 59984, Note_on_c, 15, 36, 0
13, 60000, Note_on_c, 15, 41, 80
13, 60104, Note_on_c, 15, 41, 0
13, 60120, Note_on_c, 15, 41, 80
13, 60224, Note_on_c, 15, 41, 0
13, 60240, Note_on_c, 15, 43, 80
13, 60344, Note_on_c, 15, 43, 0
13, 60360, Note_on_c, 15, 43, 80
13, 60464, Note_on_c, 15, 43, 0
13, 60480, Note_on_c, 15, 40, 80
13, 60584, Note_on_c, 15, 40, 0
13, 60600, Note_on_c, 15, 40, 80
13, 60704, Note_on_c, 15, 40, 0
13, 60720, Note_on_c, 15, 40, 80
13, 60824, Note_on_c, 15, 40, 0
13, 60840, Note_on_c, 15, 40, 80
13, 60944, Note_on_c, 15, 40, 0
13, 60960, Note_on_c, 15, 40, 80
13, 61064, Note_on_c, 15, 40, 0
13, 61080, Note_on_c, 15, 40, 80
13, 61184, Note_on_c, 15, 40, 0
13, 61200, Note_on_c, 15, 41, 80
13, 61424, Note_on_c, 15, 41, 0
13, 61440, Note_on_c, 15, 43, 80
13, 61664, Note_on_c, 15, 43, 0
13, 61680, Note_on_c, 15, 31, 80
13, 61904, Note_on_c, 15, 31, 0
13, 61920, Note_on_c, 15, 36, 80
13, 62024, Note_on_c, 15, 36, 0
13, 62040, Note_on_c, 15, 48, 80
13, 62144, Note_on_c, 15, 48, 0
13, 62160, Note_on_c, 15, 43, 80
13, 62264, Note_on_c, 15, 43, 0
13, 62280, Note_on_c, 15, 48, 80
13, 62384, Note_on_c, 15, 48, 0
13, 62400, Note_on_c, 15, 40, 80
13, 62504, Note_on_c, 15, 40, 0
13, 62520, Note_on_c, 15, 43, 80
13, 62624, Note_on_c, 15, 43, 0
13, 62640, Note_on_c, 15, 36, 80
13, 62879, Note_on_c, 15, 36, 0
13, 63360, Note_on_c, 15, 31, 80
13, 63464, Note_on_c, 15, 31, 0
13, 63480, Note_on_c, 15, 43, 80
13, 63584, Note_on_c, 15, 43, 0
13, 63600, Note_on_c, 15, 38, 80
13, 63704, Note_on_c, 15, 38, 0
13, 63720, Note_on_c, 15, 43, 80
13, 63824, Note_on_c, 15, 43, 0
13, 63840, Note_on_c, 15, 35, 80
13, 63944, Note_on_c, 15, 35, 0
13, 63960, Note_on_c, 15, 38, 80
13, 64064, Note_on_c, 15, 38, 0
13, 64080, Note_on_c, 15, 31, 80
13, 64319, Note_on_c, 15, 31, 0
13, 64800, Note_on_c, 15, 36, 80
13, 64904, Note_on_c, 15, 36, 0
13, 64920, Note_on_c, 15, 48, 80
13, 65024, Note_on_c, 15, 48, 0
13, 65040, Note_on_c, 15, 43, 80
13, 65144, Note_on_c, 15, 43, 0
13, 65160, Note_on_c, 15, 48, 80
13, 65264, Note_on_c, 15, 48, 0
13, 65280, Note_on_c, 15, 40, 80
13, 65384, Note_on_c, 15, 40, 0
13, 65400, Note_on_c, 15, 43, 80
13, 65504, Note_on_c, 15, 43, 0
13, 65520, Note_on_c, 15, 36, 80
13, 65759, Note_on_c, 15, 36, 0
13, 66240, Note_on_c, 15, 42, 80
13, 66344, Note_on_c, 15, 42, 0
13, 66360, Note_on_c, 15, 45, 80
13, 66464, Note_on_c, 15, 45, 0
13, 66480, Note_on_c, 15, 50, 80
13, 66584, Note_on_c, 15, 50, 0
13, 66600, Note_on_c, 15, 45, 80
13, 66704, Note_on_c, 15, 45, 0
13, 66720, Note_on_c, 15, 50, 80
13, 66824, Note_on_c, 15, 50, 0
13, 66840, Note_on_c, 15, 45, 80
13, 66944, Note_on_c, 15, 45, 0
13, 66960, Note_on_c, 15, 42, 80
13, 67199, Note_on_c, 15, 42, 0
13, 67680, Note_on_c, 15, 43, 80
13, 67784, Note_on_c, 15, 43, 0
13, 67800, Note_on_c, 15, 43, 80
13, 67904, Note_on_c, 15, 43, 0
13, 67920, Note_on_c, 15, 43, 80
13, 68024, Note_on_c, 15, 43, 0
13, 68040, Note_on_c, 15, 43, 80
13, 68144, Note_on_c, 15, 43, 0
13, 68160, Note_on_c, 15, 43, 80
13, 68264, Note_on_c, 15, 43, 0
13, 68280, Note_on_c, 15, 43, 80
13, 68384, Note_on_c, 15, 43, 0
13, 68400, Note_on_c, 15, 40, 80
13, 68504, Note_on_c, 15, 40, 0
13, 68520, Note_on_c, 15, 40, 80
13, 68624, Note_on_c, 15, 40, 0
13, 68640, Note_on_c, 15, 40, 80
13, 68744, Note_on_c, 15, 40, 0
13, 68760, Note_on_c, 15, 40, 80
13, 68864, Note_on_c, 15, 40, 0
13, 68880, Note_on_c, 15, 40, 80
13, 68984, Note_on_c, 15, 40, 0
13, 69000, Note_on_c, 15, 40, 80
13, 69104, Note_on_c, 15, 40, 0
13, 69120, Note_on_c, 15, 35, 80
13, 69224, Note_on_c, 15, 35, 0
13, 69240, Note_on_c, 15, 35, 80
13, 69344, Note_on_c, 15, 35, 0
13, 69360, Note_on_c, 15, 35, 80
13, 69464, Note_on_c, 15, 35, 0
13, 69480, Note_on_c, 15, 35, 80
13, 69584, Note_on_c, 15, 35, 0
13, 69600, Note_on_c, 15, 35, 80
13, 69704, Note_on_c, 15, 35, 0
13, 69720, Note_on_c, 15, 35, 80
13, 69824, Note_on_c, 15, 35, 0
13, 69840, Note_on_c, 15, 36, 80
13, 69944, Note_on_c, 15, 36, 0
13, 69960, Note_on_c, 15, 36, 80
13, 70064, Note_on_c, 15, 36, 0
13, 70080, Note_on_c, 15, 36, 80
13, 70184, Note_on_c, 15, 36, 0
13, 70200, Note_on_c, 15, 36, 80
13, 70304, Note_on_c, 15, 36, 0
13, 70320, Note_on_c, 15, 36, 80
13, 70424, Note_on_c, 15, 36, 0
13, 70440, Note_on_c, 15, 37, 80
13, 70544, Note_on_c, 15, 37, 0
13, 70560, Note_on_c, 15, 38, 80
13, 70784, Note_on_c, 15, 38, 0
13, 70800, Note_on_c, 15, 38, 80
13, 71039, Note_on_c, 15, 38, 0
13, 71280, Note_on_c, 15, 43, 44
13, 71519, Note_on_c, 15, 43, 0
13, 72000, Note_on_c, 15, 36, 44
13, 72239, Note_on_c, 15, 36, 0
13, 72720, Note_on_c, 15, 38, 44
13, 72959, Note_on_c, 15, 38, 0
13, 73440, Note_on_c, 15, 31, 44
13, 73679, Note_on_c, 15, 31, 0
13, 74160, Note_on_c, 15, 43, 44
13, 74399, Note_on_c, 15, 43, 0
13, 74880, Note_on_c, 15, 36, 44
13, 75119, Note_on_c, 15, 36, 0
13, 75600, Note_on_c, 15, 38, 44
13, 75839, Note_on_c, 15, 38, 0
13, 76440, Note_on_c, 15, 43, 44
13, 76544, Note_on_c, 15, 43, 0
13, 76560, Note_on_c, 15, 38, 44
13, 76664, Note_on_c, 15, 38, 0
13, 76680, Note_on_c, 15, 36, 44
13, 76784, Note_on_c, 15, 36, 0
13, 76800, Note_on_c, 15, 35, 44
13, 76904, Note_on_c, 15, 35, 0
13, 76920, Note_on_c, 15, 33, 44
13, 77024, Note_on_c, 15, 33, 0
13, 77040, Note_on_c, 15, 31, 44
13, 77279, Note_on_c, 15, 31, 0
13, 77760, Note_on_c, 15, 36, 44
13, 77999, Note_on_c, 15, 36, 0
13, 78480, Note_on_c, 15, 38, 44
13, 78719, Note_on_c, 15, 38, 0
13, 79200, Note_on_c, 15, 43, 44
13, 79439, Note_on_c, 15, 43, 0
13, 79920, Note_on_c, 15, 31, 44
13, 80159, Note_on_c, 15, 31, 0
13, 80640, Note_on_c, 15, 36, 44
13, 80879, Note_on_c, 15, 36, 0
13, 81360, Note_on_c, 15, 36, 44
13, 81584, Note_on_c, 15, 36, 0
13, 81600, Note_on_c, 15, 38, 44
13, 81824, Note_on_c, 15, 38, 0
13, 81840, Note_on_c, 15, 38, 44
13, 82064, Note_on_c, 15, 38, 0
13, 82080, Note_on_c, 15, 31, 80
13, 82319, Note_on_c, 15, 31, 0
13, 82560, Note_on_c, 15, 43, 80
13, 82784, Note_on_c, 15, 43, 0
13, 82800, Note_on_c, 15, 42, 80
13, 83039, Note_on_c, 15, 42, 0
13, 83280, Note_on_c, 15, 54, 80
13, 83504, Note_on_c, 15, 54, 0
13, 83520, Note_on_c, 15, 52, 80
13, 83624, Note_on_c, 15, 52, 0
13, 83640, Note_on_c, 15, 51, 80
13, 83744, Note_on_c, 15, 51, 0
13, 83760, Note_on_c, 15, 52, 80
13, 83864, Note_on_c, 15, 52, 0
13, 83880, Note_on_c, 15, 51, 80
13, 83984, Note_on_c, 15, 51, 0
13, 84000, Note_on_c, 15, 52, 80
13, 84104, Note_on_c, 15, 52, 0
13, 84120, Note_on_c, 15, 48, 80
13, 84224, Note_on_c, 15, 48, 0
13, 84240, Note_on_c, 15, 47, 80
13, 84344, Note_on_c, 15, 47, 0
13, 84360, Note_on_c, 15, 45, 80
13, 84464, Note_on_c, 15, 45, 0
13, 84480, Note_on_c, 15, 43, 80
13, 84584, Note_on_c, 15, 43, 0
13, 84600, Note_on_c, 15, 45, 80
13, 84704, Note_on_c, 15, 45, 0
13, 84720, Note_on_c, 15, 47, 80
13, 84824, Note_on_c, 15, 47, 0
13, 84840, Note_on_c, 15, 43, 80
13, 84944, Note_on_c, 15, 43, 0
13, 84960, Note_on_c, 15, 45, 80
13, 85064, Note_on_c, 15, 45, 0
13, 85080, Note_on_c, 15, 45, 80
13, 85184, Note_on_c, 15, 45, 0
13, 85200, Note_on_c, 15, 45, 80
13, 85304, Note_on_c, 15, 45, 0
13, 85320, Note_on_c, 15, 45, 80
13, 85424, Note_on_c, 15, 45, 0
13, 85440, Note_on_c, 15, 43, 80
13, 85544, Note_on_c, 15, 43, 0
13, 85560, Note_on_c, 15, 43, 80
13, 85664, Note_on_c, 15, 43, 0
13, 85680, Note_on_c, 15, 42, 80
13, 85784, Note_on_c, 15, 42, 0
13, 85800, Note_on_c, 15, 42, 80
13, 85904, Note_on_c, 15, 42, 0
13, 85920, Note_on_c, 15, 38, 80
13, 86024, Note_on_c, 15, 38, 0
13, 86040, Note_on_c, 15, 38, 80
13, 86144, Note_on_c, 15, 38, 0
13, 86160, Note_on_c, 15, 43, 80
13, 86264, Note_on_c, 15, 43, 0
13, 86280, Note_on_c, 15, 43, 80
13, 86384, Note_on_c, 15, 43, 0
13, 86400, Note_on_c, 15, 36, 80
13, 86504, Note_on_c, 15, 36, 0
13, 86520, Note_on_c, 15, 36, 80
13, 86624, Note_on_c, 15, 36, 0
13, 86640, Note_on_c, 15, 38, 80
13, 86744, Note_on_c, 15, 38, 0
13, 86760, Note_on_c, 15, 38, 80
13, 86864, Note_on_c, 15, 38, 0
13, 86880, Note_on_c, 15, 39, 80
13, 86984, Note_on_c, 15, 39, 0
13, 87000, Note_on_c, 15, 39, 80
13, 87104, Note_on_c, 15, 39, 0
13, 87120, Note_on_c, 15, 40, 80
13, 87299, Note_on_c, 15, 40, 0
13, 87360, Note_on_c, 15, 38, 80
13, 87539, Note_on_c, 15, 38, 0
13, 87600, Note_on_c, 15, 36, 80
13, 87779, Note_on_c, 15, 36, 0
13, 87840, Note_on_c, 15, 44, 80
13, 88019, Note_on_c, 15, 44, 0
13, 88080, Note_on_c, 15, 45, 80
13, 88259, Note_on_c, 15, 45, 0
13, 90720, Note_on_c, 15, 31, 80
13, 90959, Note_on_c, 15, 31, 0
13, 91200, Note_on_c, 15, 38, 80
13, 91424, Note_on_c, 15, 38, 0
13, 91440, Note_on_c, 15, 43, 80
13, 91664, Note_on_c, 15, 43, 0
13, 91680, Note_on_c, 15, 47, 80
13, 91904, Note_on_c, 15, 47, 0
13, 91920, Note_on_c, 15, 50, 80
13, 92144, Note_on_c, 15, 50, 0
13, 92160, Note_on_c, 15, 43, 80
13, 92399, Note_on_c, 15, 43, 0
13, 92640, Note_on_c, 15, 38, 80
13, 92864, Note_on_c, 15, 38, 0
13, 92880, Note_on_c, 15, 43, 80
13, 93104, Note_on_c, 15, 43, 0
13, 93120, Note_on_c, 15, 47, 80
13, 93344, Note_on_c, 15, 47, 0
13, 93360, Note_on_c, 15, 50, 80
13, 93584, Note_on_c, 15, 50, 0
13, 93600, Note_on_c, 15, 43, 80
13, 93839, Note_on_c, 15, 43, 0
13, 94080, Note_on_c, 15, 38, 80
13, 94304, Note_on_c, 15, 38, 0
13, 94320, Note_on_c, 15, 43, 80
13, 94559, Note_on_c, 15, 43, 0
13, 94800, Note_on_c, 15, 38, 80
13, 95024, Note_on_c, 15, 38, 0
13, 95040, Note_on_c, 15, 31, 80
13, 95264, Note_on_c, 15, 31, 0
13, 95280, Note_on_c, 15, 43, 80
13, 95369, Note_on_c, 15, 43, 0
13, 95400, Note_on_c, 15, 45, 80
13, 95489, Note_on_c, 15, 45, 0
13, 95520, Note_on_c, 15, 47, 80
13, 95609, Note_on_c, 15, 47, 0
13, 95640, Note_on_c, 15, 48, 80
13, 95729, Note_on_c, 15, 48, 0
13, 95760, Note_on_c, 15, 50, 80
13, 95849, Note_on_c, 15, 50, 0
13, 95880, Note_on_c, 15, 52, 80
13, 95969, Note_on_c, 15, 52, 0
13, 96000, Note_on_c, 15, 53, 80
13, 96089, Note_on_c, 15, 53, 0
13, 96120, Note_on_c, 15, 50, 80
13, 96209, Note_on_c, 15, 50, 0
13, 96240, Note_on_c, 15, 47, 80
13, 96329, Note_on_c, 15, 47, 0
13, 96360, Note_on_c, 15, 43, 80
13, 96449, Note_on_c, 15, 43, 0
13, 96480, Note_on_c, 15, 48, 80
13, 96519, Note_on_c, 15, 48, 0
13, 96520, Note_on_c, 15, 50, 80
13, 96559, Note_on_c, 15, 50, 0
13, 96560, Note_on_c, 15, 48, 80
13, 96599, Note_on_c, 15, 48, 0
13, 96600, Note_on_c, 15, 50, 80
13, 96639, Note_on_c, 15, 50, 0
13, 96640, Note_on_c, 15, 46, 80
13, 96679, Note_on_c, 15, 46, 0
13, 96680, Note_on_c, 15, 48, 80
13, 96719, Note_on_c, 15, 48, 0
13, 96720, Note_on_c, 15, 50, 80
13, 96824, Note_on_c, 15, 50, 0
13, 96840, Note_on_c, 15, 48, 80
13, 96929, Note_on_c, 15, 48, 0
13, 96960, Note_on_c, 15, 46, 80
13, 97049, Note_on_c, 15, 46, 0
13, 97080, Note_on_c, 15, 45, 80
13, 97169, Note_on_c, 15, 45, 0
13, 97200, Note_on_c, 15, 46, 80
13, 97239, Note_on_c, 15, 46, 0
13, 97240, Note_on_c, 15, 48, 80
13, 97279, Note_on_c, 15, 48, 0
13, 97280, Note_on_c, 15, 46, 80
13, 97319, Note_on_c, 15, 46, 0
13, 97320, Note_on_c, 15, 48, 80
13, 97359, Note_on_c, 15, 48, 0
13, 97360, Note_on_c, 15, 45, 80
13, 97399, Note_on_c, 15, 45, 0
13, 97400, Note_on_c, 15, 46, 80
13, 97439, Note_on_c, 15, 46, 0
13, 97440, Note_on_c, 15, 48, 80
13, 97544, Note_on_c, 15, 48, 0
13, 97560, Note_on_c, 15, 46, 80
13, 97649, Note_on_c, 15, 46, 0
13, 97680, Note_on_c, 15, 45, 80
13, 97769, Note_on_c, 15, 45, 0
13, 97800, Note_on_c, 15, 43, 80
13, 97889, Note_on_c, 15, 43, 0
13, 97920, Note_on_c, 15, 45, 80
13, 97959, Note_on_c, 15, 45, 0
13, 97960, Note_on_c, 15, 46, 80
13, 97999, Note_on_c, 15, 46, 0
13, 98000, Note_on_c, 15, 45, 80
13, 98039, Note_on_c, 15, 45, 0
13, 98040, Note_on_c, 15, 46, 80
13, 98079, Note_on_c, 15, 46, 0
13, 98080, Note_on_c, 15, 43, 80
13, 98119, Note_on_c, 15, 43, 0
13, 98120, Note_on_c, 15, 45, 80
13, 98159, Note_on_c, 15, 45, 0
13, 98160, Note_on_c, 15, 46, 80
13, 98264, Note_on_c, 15, 46, 0
13, 98280, Note_on_c, 15, 45, 80
13, 98369, Note_on_c, 15, 45, 0
13, 98400, Note_on_c, 15, 43, 80
13, 98489, Note_on_c, 15, 43, 0
13, 98520, Note_on_c, 15, 41, 80
13, 98609, Note_on_c, 15, 41, 0
13, 98640, Note_on_c, 15, 43, 80
13, 98679, Note_on_c, 15, 43, 0
13, 98680, Note_on_c, 15, 45, 80
13, 98719, Note_on_c, 15, 45, 0
13, 98720, Note_on_c, 15, 43, 80
13, 98759, Note_on_c, 15, 43, 0
13, 98760, Note_on_c, 15, 45, 80
13, 98799, Note_on_c, 15, 45, 0
13, 98800, Note_on_c, 15, 41, 80
13, 98839, Note_on_c, 15, 41, 0
13, 98840, Note_on_c, 15, 43, 80
13, 98879, Note_on_c, 15, 43, 0
13, 98880, Note_on_c, 15, 45, 80
13, 98984, Note_on_c, 15, 45, 0
13, 99000, Note_on_c, 15, 43, 80
13, 99089, Note_on_c, 15, 43, 0
13, 99120, Note_on_c, 15, 41, 80
13, 99209, Note_on_c, 15, 41, 0
13, 99240, Note_on_c, 15, 40, 80
13, 99329, Note_on_c, 15, 40, 0
13, 99360, Note_on_c, 15, 41, 80
13, 99539, Note_on_c, 15, 41, 0
13, 99600, Note_on_c, 15, 45, 44
13, 99779, Note_on_c, 15, 45, 0
13, 99840, Note_on_c, 15, 41, 44
13, 100019, Note_on_c, 15, 41, 0
13, 100080, Note_on_c, 15, 43, 44
13, 100259, Note_on_c, 15, 43, 0
13, 100320, Note_on_c, 15, 40, 44
13, 100559, Note_on_c, 15, 40, 0
13, 100560, Note_on_c, 15, 36, 44
13, 100784, Note_on_c, 15, 36, 0
13, 100800, Note_on_c, 15, 41, 44
13, 101024, Note_on_c, 15, 41, 0
13, 101040, Note_on_c, 15, 45, 44
13, 101264, Note_on_c, 15, 45, 0
13, 101280, Note_on_c, 15, 41, 44
13, 101504, Note_on_c, 15, 41, 0
13, 101520, Note_on_c, 15, 43, 44
13, 101699, Note_on_c, 15, 43, 0
13, 101760, Note_on_c, 15, 40, 44
13, 101999, Note_on_c, 15, 40, 0
13, 102000, Note_on_c, 15, 36, 44
13, 102224, Note_on_c, 15, 36, 0
13, 102240, Note_on_c, 15, 41, 44
13, 102479, Note_on_c, 15, 41, 0
13, 102720, Note_on_c, 15, 41, 44
13, 102959, Note_on_c, 15, 41, 0
13, 102960, Note_on_c, 15, 40, 44
13, 103199, Note_on_c, 15, 40, 0
13, 103440, Note_on_c, 15, 40, 44
13, 103679, Note_on_c, 15, 40, 0
13, 103680, Note_on_c, 15, 38, 44
13, 103904, Note_on_c, 15, 38, 0
13, 103920, Note_on_c, 15, 35, 44
13, 104144, Note_on_c, 15, 35, 0
13, 104160, Note_on_c, 15, 31, 44
13, 104384, Note_on_c, 15, 31, 0
13, 104400, Note_on_c, 15, 36, 44
13, 104639, Note_on_c, 15, 36, 0
13, 105120, Note_on_c, 15, 36, 44
13, 105359, Note_on_c, 15, 36, 0
13, 105600, Note_on_c, 15, 48, 44
13, 105839, Note_on_c, 15, 48, 0
13, 105840, Note_on_c, 15, 47, 44
13, 106079, Note_on_c, 15, 47, 0
13, 106320, Note_on_c, 15, 47, 44
13, 106559, Note_on_c, 15, 47, 0
13, 106560, Note_on_c, 15, 45, 44
13, 106784, Note_on_c, 15, 45, 0
13, 106800, Note_on_c, 15, 42, 44
13, 107024, Note_on_c, 15, 42, 0
13, 107040, Note_on_c, 15, 38, 44
13, 107264, Note_on_c, 15, 38, 0
13, 107280, Note_on_c, 15, 43, 44
13, 107519, Note_on_c, 15, 43, 0
13, 108720, Note_on_c, 15, 43, 44
13, 108959, Note_on_c, 15, 43, 0
13, 110160, Note_on_c, 15, 31, 44
13, 110399, Note_on_c, 15, 31, 0
13, 110880, Note_on_c, 15, 31, 44
13, 111119, Note_on_c, 15, 31, 0
13, 111600, Note_on_c, 15, 31, 44
13, 111839, Note_on_c, 15, 31, 0
13, 113040, Note_on_c, 15, 48, 80
13, 113264, Note_on_c, 15, 48, 0
13, 113280, Note_on_c, 15, 43, 80
13, 113519, Note_on_c, 15, 43, 0
13, 113760, Note_on_c, 15, 40, 80
13, 113984, Note_on_c, 15, 40, 0
13, 114000, Note_on_c, 15, 36, 80
13, 114239, Note_on_c, 15, 36, 0
13, 117360, Note_on_c, 15, 48, 80
13, 117584, Note_on_c, 15, 48, 0
13, 117600, Note_on_c, 15, 43, 80
13, 117839, Note_on_c, 15, 43, 0
13, 118080, Note_on_c, 15, 40, 80
13, 118304, Note_on_c, 15, 40, 0
13, 118320, Note_on_c, 15, 36, 80
13, 118559, Note_on_c, 15, 36, 0
13, 121680, Note_on_c, 15, 36, 80
13, 121784, Note_on_c, 15, 36, 0
13, 121800, Note_on_c, 15, 36, 80
13, 121904, Note_on_c, 15, 36, 0
13, 121920, Note_on_c, 15, 36, 80
13, 122024, Note_on_c, 15, 36, 0
13, 122040, Note_on_c, 15, 36, 80
13, 122144, Note_on_c, 15, 36, 0
13, 122160, Note_on_c, 15, 40, 80
13, 122264, Note_on_c, 15, 40, 0
13, 122280, Note_on_c, 15, 40, 80
13, 122384, Note_on_c, 15, 40, 0
13, 122400, Note_on_c, 15, 41, 80
13, 122504, Note_on_c, 15, 41, 0
13, 122520, Note_on_c, 15, 41, 80
13, 122624, Note_on_c, 15, 41, 0
13, 122640, Note_on_c, 15, 41, 80
13, 122744, Note_on_c, 15, 41, 0
13, 122760, Note_on_c, 15, 41, 80
13, 122864, Note_on_c, 15, 41, 0
13, 122880, Note_on_c, 15, 43, 80
13, 122984, Note_on_c, 15, 43, 0
13, 123000, Note_on_c, 15, 43, 80
13, 123104, Note_on_c, 15, 43, 0
13, 123120, Note_on_c, 15, 45, 80
13, 123224, Note_on_c, 15, 45, 0
13, 123240, Note_on_c, 15, 45, 80
13, 123344, Note_on_c, 15, 45, 0
13, 123360, Note_on_c, 15, 45, 80
13, 123464, Note_on_c, 15, 45, 0
13, 123480, Note_on_c, 15, 45, 80
13, 123584, Note_on_c, 15, 45, 0
13, 123600, Note_on_c, 15, 45, 80
13, 123704, Note_on_c, 15, 45, 0
13, 123720, Note_on_c, 15, 40, 80
13, 123824, Note_on_c, 15, 40, 0
13, 123840, Note_on_c, 15, 41, 80
13, 123944, Note_on_c, 15, 41, 0
13, 123960, Note_on_c, 15, 41, 80
13, 124064, Note_on_c, 15, 41, 0
13, 124080, Note_on_c, 15, 40, 80
13, 124184, Note_on_c, 15, 40, 0
13, 124200, Note_on_c, 15, 40, 80
13, 124304, Note_on_c, 15, 40, 0
13, 124320, Note_on_c, 15, 35, 80
13, 124424, Note_on_c, 15, 35, 0
13, 124440, Note_on_c, 15, 35, 80
13, 124544, Note_on_c, 15, 35, 0
13, 124560, Note_on_c, 15, 36, 80
13, 124664, Note_on_c, 15, 36, 0
13, 124680, Note_on_c, 15, 36, 80
13, 124784, Note_on_c, 15, 36, 0
13, 124800, Note_on_c, 15, 41, 80
13, 124904, Note_on_c, 15, 41, 0
13, 124920, Note_on_c, 15, 41, 80
13, 125024, Note_on_c, 15, 41, 0
13, 125040, Note_on_c, 15, 43, 80
13, 125144, Note_on_c, 15, 43, 0
13, 125160, Note_on_c, 15, 43, 80
13, 125264, Note_on_c, 15, 43, 0
13, 125280, Note_on_c, 15, 40, 80
13, 125384, Note_on_c, 15, 40, 0
13, 125400, Note_on_c, 15, 40, 80
13, 125504, Note_on_c, 15, 40, 0
13, 125520, Note_on_c, 15, 40, 80
13, 125624, Note_on_c, 15, 40, 0
13, 125640, Note_on_c, 15, 40, 80
13, 125744, Note_on_c, 15, 40, 0
13, 125760, Note_on_c, 15, 40, 80
13, 125864, Note_on_c, 15, 40, 0
13, 125880, Note_on_c, 15, 40, 80
13, 125984, Note_on_c, 15, 40, 0
13, 126000, Note_on_c, 15, 41, 80
13, 126224, Note_on_c, 15, 41, 0
13, 126240, Note_on_c, 15, 43, 80
13, 126464, Note_on_c, 15, 43, 0
13, 126480, Note_on_c, 15, 31, 80
13, 126704, Note_on_c, 15, 31, 0
13, 126720, Note_on_c, 15, 36, 80
13, 126824, Note_on_c, 15, 36, 0
13, 126840, Note_on_c, 15, 43, 80
13, 126944, Note_on_c, 15, 43, 0
13, 126960, Note_on_c, 15, 48, 80
13, 127064, Note_on_c, 15, 48, 0
13, 127080, Note_on_c, 15, 43, 80
13, 127184, Note_on_c, 15, 43, 0
13, 127200, Note_on_c, 15, 40, 80
13, 127304, Note_on_c, 15, 40, 0
13, 127320, Note_on_c, 15, 36, 80
13, 127424, Note_on_c, 15, 36, 0
13, 127440, Note_on_c, 15, 34, 80
13, 127679, Note_on_c, 15, 34, 0
13, 128160, Note_on_c, 15, 33, 80
13, 128264, Note_on_c, 15, 33, 0
13, 128280, Note_on_c, 15, 41, 80
13, 128384, Note_on_c, 15, 41, 0
13, 128400, Note_on_c, 15, 45, 80
13, 128504, Note_on_c, 15, 45, 0
13, 128520, Note_on_c, 15, 41, 80
13, 128624, Note_on_c, 15, 41, 0
13, 128640, Note_on_c, 15, 36, 80
13, 128744, Note_on_c, 15, 36, 0
13, 128760, Note_on_c, 15, 41, 80
13, 128864, Note_on_c, 15, 41, 0
13, 128880, Note_on_c, 15, 33, 80
13, 129119, Note_on_c, 15, 33, 0
13, 129600, Note_on_c, 15, 31, 80
13, 129704, Note_on_c, 15, 31, 0
13, 129720, Note_on_c, 15, 43, 80
13, 129824, Note_on_c, 15, 43, 0
13, 129840, Note_on_c, 15, 49, 80
13, 129944, Note_on_c, 15, 49, 0
13, 129960, Note_on_c, 15, 43, 80
13, 130064, Note_on_c, 15, 43, 0
13, 130080, Note_on_c, 15, 52, 80
13, 130184, Note_on_c, 15, 52, 0
13, 130200, Note_on_c, 15, 49, 80
13, 130304, Note_on_c, 15, 49, 0
13, 130320, Note_on_c, 15, 43, 80
13, 130559, Note_on_c, 15, 43, 0
13, 131040, Note_on_c, 15, 29, 80
13, 131144, Note_on_c, 15, 29, 0
13, 131160, Note_on_c, 15, 41, 80
13, 131264, Note_on_c, 15, 41, 0
13, 131280, Note_on_c, 15, 45, 80
13, 131384, Note_on_c, 15, 45, 0
13, 131400, Note_on_c, 15, 41, 80
13, 131504, Note_on_c, 15, 41, 0
13, 131520, Note_on_c, 15, 50, 80
13, 131624, Note_on_c, 15, 50, 0
13, 131640, Note_on_c, 15, 45, 80
13, 131744, Note_on_c, 15, 45, 0
13, 131760, Note_on_c, 15, 41, 80
13, 131999, Note_on_c, 15, 41, 0
13, 132480, Note_on_c, 15, 42, 80
13, 132584, Note_on_c, 15, 42, 0
13, 132600, Note_on_c, 15, 45, 80
13, 132704, Note_on_c, 15, 45, 0
13, 132720, Note_on_c, 15, 50, 80
13, 132824, Note_on_c, 15, 50, 0
13, 132840, Note_on_c, 15, 45, 80
13, 132944, Note_on_c, 15, 45, 0
13, 132960, Note_on_c, 15, 50, 80
13, 133064, Note_on_c, 15, 50, 0
13, 133080, Note_on_c, 15, 45, 80
13, 133184, Note_on_c, 15, 45, 0
13, 133200, Note_on_c, 15, 42, 80
13, 133439, Note_on_c, 15, 42, 0
13, 133920, Note_on_c, 15, 31, 80
13, 134024, Note_on_c, 15, 31, 0
13, 134040, Note_on_c, 15, 43, 80
13, 134144, Note_on_c, 15, 43, 0
13, 134160, Note_on_c, 15, 50, 80
13, 134264, Note_on_c, 15, 50, 0
13, 134280, Note_on_c, 15, 47, 80
13, 134384, Note_on_c, 15, 47, 0
13, 134400, Note_on_c, 15, 43, 80
13, 134504, Note_on_c, 15, 43, 0
13, 134520, Note_on_c, 15, 38, 80
13, 134624, Note_on_c, 15, 38, 0
13, 134640, Note_on_c, 15, 35, 80
13, 134879, Note_on_c, 15, 35, 0
13, 135360, Note_on_c, 15, 36, 80
13, 135464, Note_on_c, 15, 36, 0
13, 135480, Note_on_c, 15, 36, 80
13, 135584, Note_on_c, 15, 36, 0
13, 135600, Note_on_c, 15, 36, 80
13, 135704, Note_on_c, 15, 36, 0
13, 135720, Note_on_c, 15, 36, 80
13, 135824, Note_on_c, 15, 36, 0
13, 135840, Note_on_c, 15, 36, 80
13, 135944, Note_on_c, 15, 36, 0
13, 135960, Note_on_c, 15, 36, 80
13, 136064, Note_on_c, 15, 36, 0
13, 136080, Note_on_c, 15, 45, 80
13, 136184, Note_on_c, 15, 45, 0
13, 136200, Note_on_c, 15, 45, 80
13, 136304, Note_on_c, 15, 45, 0
13, 136320, Note_on_c, 15, 45, 80
13, 136424, Note_on_c, 15, 45, 0
13, 136440, Note_on_c, 15, 45, 80
13, 136544, Note_on_c, 15, 45, 0
13, 136560, Note_on_c, 15, 45, 80
13, 136664, Note_on_c, 15, 45, 0
13, 136680, Note_on_c, 15, 45, 80
13, 136784, Note_on_c, 15, 45, 0
13, 136800, Note_on_c, 15, 40, 80
13, 136904, Note_on_c, 15, 40, 0
13, 136920, Note_on_c, 15, 40, 80
13, 137024, Note_on_c, 15, 40, 0
13, 137040, Note_on_c, 15, 40, 80
13, 137144, Note_on_c, 15, 40, 0
13, 137160, Note_on_c, 15, 40, 80
13, 137264, Note_on_c, 15, 40, 0
13, 137280, Note_on_c, 15, 40, 80
13, 137384, Note_on_c, 15, 40, 0
13, 137400, Note_on_c, 15, 40, 80
13, 137504, Note_on_c, 15, 40, 0
13, 137520, Note_on_c, 15, 41, 80
13, 137624, Note_on_c, 15, 41, 0
13, 137640, Note_on_c, 15, 41, 80
13, 137744, Note_on_c, 15, 41, 0
13, 137760, Note_on_c, 15, 41, 80
13, 137864, Note_on_c, 15, 41, 0
13, 137880, Note_on_c, 15, 41, 80
13, 137984, Note_on_c, 15, 41, 0
13, 138000, Note_on_c, 15, 41, 80
13, 138104, Note_on_c, 15, 41, 0
13, 138120, Note_on_c, 15, 42, 80
13, 138224, Note_on_c, 15, 42, 0
13, 138240, Note_on_c, 15, 43, 80
13, 138464, Note_on_c, 15, 43, 0
13, 138480, Note_on_c, 15, 31, 80
13, 138719, Note_on_c, 15, 31, 0
13, 138960, Note_on_c, 15, 36, 44
13, 139199, Note_on_c, 15, 36, 0
13, 139680, Note_on_c, 15, 41, 44
13, 139919, Note_on_c, 15, 41, 0
13, 140400, Note_on_c, 15, 43, 44
13, 140639, Note_on_c, 15, 43, 0
13, 141120, Note_on_c, 15, 36, 44
13, 141359, Note_on_c, 15, 36, 0
13, 141840, Note_on_c, 15, 48, 44
13, 142079, Note_on_c, 15, 48, 0
13, 142560, Note_on_c, 15, 41, 44
13, 142799, Note_on_c, 15, 41, 0
13, 143280, Note_on_c, 15, 43, 44
13, 143519, Note_on_c, 15, 43, 0
13, 144120, Note_on_c, 15, 48, 44
13, 144224, Note_on_c, 15, 48, 0
13, 144240, Note_on_c, 15, 43, 44
13, 144344, Note_on_c, 15, 43, 0
13, 144360, Note_on_c, 15, 41, 44
13, 144464, Note_on_c, 15, 41, 0
13, 144480, Note_on_c, 15, 40, 44
13, 144584, Note_on_c, 15, 40, 0
13, 144600, Note_on_c, 15, 38, 44
13, 144704, Note_on_c, 15, 38, 0
13, 144720, Note_on_c, 15, 36, 44
13, 144959, Note_on_c, 15, 36, 0
13, 145440, Note_on_c, 15, 41, 44
13, 145679, Note_on_c, 15, 41, 0
13, 146160, Note_on_c, 15, 43, 44
13, 146399, Note_on_c, 15, 43, 0
13, 146880, Note_on_c, 15, 36, 44
13, 147119, Note_on_c, 15, 36, 0
13, 147600, Note_on_c, 15, 48, 44
13, 147839, Note_on_c, 15, 48, 0
13, 148320, Note_on_c, 15, 41, 44
13, 148559, Note_on_c, 15, 41, 0
13, 149040, Note_on_c, 15, 43, 44
13, 149279, Note_on_c, 15, 43, 0
13, 149760, Note_on_c, 15, 36, 80
13, 149999, Note_on_c, 15, 36, 0
13, 150240, Note_on_c, 15, 48, 80
13, 150464, Note_on_c, 15, 48, 0
13, 150480, Note_on_c, 15, 47, 80
13, 150719, Note_on_c, 15, 47, 0
13, 150960, Note_on_c, 15, 47, 80
13, 151184, Note_on_c, 15, 47, 0
13, 151200, Note_on_c, 15, 45, 80
13, 151304, Note_on_c, 15, 45, 0
13, 151320, Note_on_c, 15, 44, 80
13, 151424, Note_on_c, 15, 44, 0
13, 151440, Note_on_c, 15, 45, 80
13, 151544, Note_on_c, 15, 45, 0
13, 151560, Note_on_c, 15, 44, 80
13, 151664, Note_on_c, 15, 44, 0
13, 151680, Note_on_c, 15, 45, 80
13, 151784, Note_on_c, 15, 45, 0
13, 151800, Note_on_c, 15, 53, 80
13, 151904, Note_on_c, 15, 53, 0
13, 151920, Note_on_c, 15, 52, 80
13, 152024, Note_on_c, 15, 52, 0
13, 152040, Note_on_c, 15, 50, 80
13, 152144, Note_on_c, 15, 50, 0
13, 152160, Note_on_c, 15, 48, 80
13, 152264, Note_on_c, 15, 48, 0
13, 152280, Note_on_c, 15, 50, 80
13, 152384, Note_on_c, 15, 50, 0
13, 152400, Note_on_c, 15, 52, 80
13, 152504, Note_on_c, 15, 52, 0
13, 152520, Note_on_c, 15, 48, 80
13, 152624, Note_on_c, 15, 48, 0
13, 152640, Note_on_c, 15, 50, 80
13, 152744, Note_on_c, 15, 50, 0
13, 152760, Note_on_c, 15, 50, 80
13, 152864, Note_on_c, 15, 50, 0
13, 152880, Note_on_c, 15, 50, 80
13, 152984, Note_on_c, 15, 50, 0
13, 153000, Note_on_c, 15, 50, 80
13, 153104, Note_on_c, 15, 50, 0
13, 153120, Note_on_c, 15, 48, 80
13, 153224, Note_on_c, 15, 48, 0
13, 153240, Note_on_c, 15, 48, 80
13, 153344, Note_on_c, 15, 48, 0
13, 153360, Note_on_c, 15, 47, 80
13, 153464, Note_on_c, 15, 47, 0
13, 153480, Note_on_c, 15, 47, 80
13, 153584, Note_on_c, 15, 47, 0
13, 153600, Note_on_c, 15, 43, 80
13, 153704, Note_on_c, 15, 43, 0
13, 153720, Note_on_c, 15, 43, 80
13, 153824, Note_on_c, 15, 43, 0
13, 153840, Note_on_c, 15, 48, 80
13, 153944, Note_on_c, 15, 48, 0
13, 153960, Note_on_c, 15, 48, 80
13, 154064, Note_on_c, 15, 48, 0
13, 154080, Note_on_c, 15, 41, 80
13, 154184, Note_on_c, 15, 41, 0
13, 154200, Note_on_c, 15, 41, 80
13, 154304, Note_on_c, 15, 41, 0
13, 154320, Note_on_c, 15, 43, 80
13, 154424, Note_on_c, 15, 43, 0
13, 154440, Note_on_c, 15, 43, 80
13, 154544, Note_on_c, 15, 43, 0
13, 154560, Note_on_c, 15, 44, 80
13, 154664, Note_on_c, 15, 44, 0
13, 154680, Note_on_c, 15, 44, 80
13, 154784, Note_on_c, 15, 44, 0
13, 154800, Note_on_c, 15, 45, 80
13, 154979, Note_on_c, 15, 45, 0
13, 155040, Note_on_c, 15, 43, 80
13, 155219, Note_on_c, 15, 43, 0
13, 155280, Note_on_c, 15, 41, 80
13, 155459, Note_on_c, 15, 41, 0
13, 155520, Note_on_c, 15, 37, 80
13, 155699, Note_on_c, 15, 37, 0
13, 155760, Note_on_c, 15, 38, 80
13, 155939, Note_on_c, 15, 38, 0
13, 156480, Note_on_c, 15, 38, 44
13, 156719, Note_on_c, 15, 38, 0
13, 156720, Note_on_c, 15, 36, 44
13, 156944, Note_on_c, 15, 36, 0
13, 156960, Note_on_c, 15, 35, 44
13, 157139, Note_on_c, 15, 35, 0
13, 157200, Note_on_c, 15, 31, 44
13, 157439, Note_on_c, 15, 31, 0
13, 157440, Note_on_c, 15, 33, 44
13, 157664, Note_on_c, 15, 33, 0
13, 157680, Note_on_c, 15, 41, 44
13, 157904, Note_on_c, 15, 41, 0
13, 157920, Note_on_c, 15, 43, 44
13, 158144, Note_on_c, 15, 43, 0
13, 158160, Note_on_c, 15, 31, 44
13, 158384, Note_on_c, 15, 31, 0
13, 158400, Note_on_c, 15, 36, 80
13, 158639, Note_on_c, 15, 36, 0
13, 158880, Note_on_c, 15, 43, 80
13, 159104, Note_on_c, 15, 43, 0
13, 159120, Note_on_c, 15, 36, 80
13, 159344, Note_on_c, 15, 36, 0
13, 159360, Note_on_c, 15, 40, 80
13, 159584, Note_on_c, 15, 40, 0
13, 159600, Note_on_c, 15, 43, 80
13, 159824, Note_on_c, 15, 43, 0
13, 159840, Note_on_c, 15, 48, 80
13, 160079, Note_on_c, 15, 48, 0
13, 160320, Note_on_c, 15, 43, 80
13, 160544, Note_on_c, 15, 43, 0
13, 160560, Note_on_c, 15, 36, 80
13, 160784, Note_on_c, 15, 36, 0
13, 160800, Note_on_c, 15, 40, 80
13, 161024, Note_on_c, 15, 40, 0
13, 161040, Note_on_c, 15, 43, 80
13, 161264, Note_on_c, 15, 43, 0
13, 161280, Note_on_c, 15, 36, 80
13, 161519, Note_on_c, 15, 36, 0
13, 161760, Note_on_c, 15, 43, 80
13, 161984, Note_on_c, 15, 43, 0
13, 162000, Note_on_c, 15, 36, 80
13, 162239, Note_on_c, 15, 36, 0
13, 162480, Note_on_c, 15, 43, 80
13, 162704, Note_on_c, 15, 43, 0
13, 162720, Note_on_c, 15, 48, 80
13, 162944, Note_on_c, 15, 48, 0
13, 162960, Note_on_c, 15, 43, 80
13, 163199, Note_on_c, 15, 43, 0
13, 163440, Note_on_c, 15, 40, 80
13, 163664, Note_on_c, 15, 40, 0
13, 163680, Note_on_c, 15, 36, 80
13, 163919, Note_on_c, 15, 36, 0
13, 167040, Note_on_c, 15, 48, 80
13, 167079, Note_on_c, 15, 48, 0
13, 167080, Note_on_c, 15, 50, 80
13, 167119, Note_on_c, 15, 50, 0
13, 167120, Note_on_c, 15, 48, 80
13, 167159, Note_on_c, 15, 48, 0
13, 167160, Note_on_c, 15, 50, 80
13, 167199, Note_on_c, 15, 50, 0
13, 167200, Note_on_c, 15, 47, 80
13, 167239, Note_on_c, 15, 47, 0
13, 167240, Note_on_c, 15, 48, 80
13, 167271, Note_on_c, 15, 48, 0
13, 167280, Note_on_c, 15, 52, 80
13, 167369, Note_on_c, 15, 52, 0
13, 167400, Note_on_c, 15, 48, 80
13, 167489, Note_on_c, 15, 48, 0
13, 167520, Note_on_c, 15, 43, 80
13, 167609, Note_on_c, 15, 43, 0
13, 167640, Note_on_c, 15, 40, 80
13, 167729, Note_on_c, 15, 40, 0
13, 167760, Note_on_c, 15, 41, 80
13, 167879, Note_on_c, 15, 41, 0
13, 168000, Note_on_c, 15, 38, 80
13, 168119, Note_on_c, 15, 38, 0
13, 168240, Note_on_c, 15, 43, 80
13, 168359, Note_on_c, 15, 43, 0
13, 168480, Note_on_c, 15, 48, 80
13, 168519, Note_on_c, 15, 48, 0
13, 168520, Note_on_c, 15, 50, 80
13, 168559, Note_on_c, 15, 50, 0
13, 168560, Note_on_c, 15, 48, 80
13, 168599, Note_on_c, 15, 48, 0
13, 168600, Note_on_c, 15, 50, 80
13, 168639, Note_on_c, 15, 50, 0
13, 168640, Note_on_c, 15, 47, 80
13, 168679, Note_on_c, 15, 47, 0
13, 168680, Note_on_c, 15, 48, 80
13, 168711, Note_on_c, 15, 48, 0
13, 168720, Note_on_c, 15, 52, 80
13, 168809, Note_on_c, 15, 52, 0
13, 168840, Note_on_c, 15, 48, 80
13, 168929, Note_on_c, 15, 48, 0
13, 168960, Note_on_c, 15, 43, 80
13, 169049, Note_on_c, 15, 43, 0
13, 169080, Note_on_c, 15, 40, 80
13, 169169, Note_on_c, 15, 40, 0
13, 169200, Note_on_c, 15, 41, 80
13, 169319, Note_on_c, 15, 41, 0
13, 169440, Note_on_c, 15, 38, 80
13, 169559, Note_on_c, 15, 38, 0
13, 169680, Note_on_c, 15, 43, 80
13, 169799, Note_on_c, 15, 43, 0
13, 169920, Note_on_c, 15, 36, 80
13, 170159, Note_on_c, 15, 36, 0
13, 170640, Note_on_c, 15, 48, 80
13, 170864, Note_on_c, 15, 48, 0
13, 170880, Note_on_c, 15, 43, 80
13, 171104, Note_on_c, 15, 43, 0
13, 171120, Note_on_c, 15, 40, 80
13, 171344, Note_on_c, 15, 40, 0
13, 171360, Note_on_c, 15, 36, 80
13, 171584, Note_on_c, 15, 36, 0
13, 171600, Note_on_c, 15, 31, 80
13, 171824, Note_on_c, 15, 31, 0
13, 171840, Note_on_c, 15, 40, 80
13, 172064, Note_on_c, 15, 40, 0
13, 172080, Note_on_c, 15, 36, 80
13, 172319, Note_on_c, 15, 36, 0
13, 172319, End_track
14, 0, Start_track
14, 0, Title_t, "W. A. Mozart - Symphony No. 28 in C Major, K.200 - 1. Allegro spiritoso"
14, 0, End_track
15, 0, Start_track
15, 0, End_track
0, 0, End_of_file