0, 0, Header, 1, 12, 480
1, 0, Start_track
1, 0, Title_t, "untitled"
1, 0, Time_signature, 4, 3, 12, 8
1, 0, Key_signature, 0, "major"
1, 0, Tempo, 444444
1, 552177, Tempo, 450450
1, 552214, Tempo, 452489
1, 552399, Tempo, 454545
1, 552731, Tempo, 458716
1, 552916, Tempo, 458716
1, 553137, Tempo, 460829
1, 553322, Tempo, 462963
1, 553543, Tempo, 465116
1, 553765, Tempo, 467290
1, 553949, Tempo, 469484
1, 554023, Tempo, 534759
1, 554060, Tempo, 540541
1, 554097, Tempo, 543478
1, 554134, Tempo, 546448
1, 554171, Tempo, 552486
1, 554208, Tempo, 555556
1, 554245, Tempo, 558659
1, 554282, Tempo, 564972
1, 554319, Tempo, 568182
1, 554356, Tempo, 571429
1, 554393, Tempo, 578035
1, 554429, Tempo, 581395
1, 554466, Tempo, 588235
1, 554503, Tempo, 591716
1, 554540, Tempo, 595238
1, 554577, Tempo, 602410
1, 554614, Tempo, 606061
1, 554651, Tempo, 609756
1, 554688, Tempo, 617284
1, 554725, Tempo, 621118
1, 554762, Tempo, 625000
1, 554799, Tempo, 632911
1, 554836, Tempo, 636943
1, 554873, Tempo, 645161
1, 554909, Tempo, 649351
1, 554946, Tempo, 653595
1, 554983, Tempo, 662252
1, 555020, Tempo, 666667
1, 555057, Tempo, 671141
1, 555094, Tempo, 680272
1, 555131, Tempo, 684932
1, 555168, Tempo, 689655
1, 555205, Tempo, 699301
1, 555242, Tempo, 704225
1, 555279, Tempo, 714286
1, 555316, Tempo, 719424
1, 555353, Tempo, 724638
1, 555389, Tempo, 735294
1, 555426, Tempo, 740741
1, 555463, Tempo, 746269
1, 555500, Tempo, 757576
1, 555537, Tempo, 763359
1, 555574, Tempo, 769231
1, 555611, Tempo, 781250
1, 555648, Tempo, 787402
1, 555685, Tempo, 800000
1, 555722, Tempo, 806452
1, 555759, Tempo, 813008
1, 555796, Tempo, 826446
1, 555833, Tempo, 833333
1, 555869, Tempo, 840336
1, 555906, Tempo, 854701
1, 555943, Tempo, 862069
1, 555980, Tempo, 869565
1, 556017, Tempo, 884956
1, 556054, Tempo, 892857
1, 556091, Tempo, 909091
1, 556128, Tempo, 917431
1, 556165, Tempo, 925926
1, 556202, Tempo, 943396
1, 556239, Tempo, 952381
1, 556276, Tempo, 961538
1, 556313, Tempo, 980392
1, 556349, Tempo, 990099
1, 556386, Tempo, 1000000
1, 556423, Tempo, 1020408
1, 556460, Tempo, 1030928
1, 556497, Tempo, 1041667
1, 556534, Tempo, 1063830
1, 556571, Tempo, 1075269
1, 556608, Tempo, 1098901
1, 556645, Tempo, 1111111
1, 556682, Tempo, 1123596
1, 556719, Tempo, 1149425
1, 556756, Tempo, 1162791
1, 556793, Tempo, 1176471
1, 556829, Tempo, 1204819
1, 556866, Tempo, 1219512
1, 556903, Tempo, 1234568
1, 556940, Tempo, 1265823
1, 556977, Tempo, 1282051
1, 557014, Tempo, 1315789
1, 557051, Tempo, 1333333
1, 557088, Tempo, 1351351
1, 557125, Tempo, 1388889
1, 557162, Tempo, 1408451
1, 557199, Tempo, 1428571
1, 557236, Tempo, 1470588
1, 557273, Tempo, 1492537
1, 557309, Tempo, 1515152
1, 557346, Tempo, 1562500
1, 557383, Tempo, 1587302
1, 557420, Tempo, 1639344
1, 557457, Tempo, 1666667
1, 557494, Tempo, 1694915
1, 557531, Tempo, 1754386
1, 557568, Tempo, 1785714
1, 557605, Tempo, 1818182
1, 557642, Tempo, 1886792
1, 557679, Tempo, 1923077
1, 557716, Tempo, 1960784
1, 557753, Tempo, 2040816
1, 557789, Tempo, 2083333
1, 557826, Tempo, 2173913
1, 557863, Tempo, 2222222
1, 557900, Tempo, 2272727
1, 557937, Tempo, 2380952
1, 557974, Tempo, 2439024
1, 558011, Tempo, 2500000
1, 558048, Tempo, 2631579
1, 558085, Tempo, 2702703
1, 558122, Tempo, 2777778
1, 558159, Tempo, 2941176
1, 558196, Tempo, 3030303
1, 558233, Tempo, 3225806
1, 558269, Tempo, 869565
1, 558306, Tempo, 877193
1, 558343, Tempo, 884956
1, 558380, Tempo, 892857
1, 558417, Tempo, 900901
1, 558491, Tempo, 909091
1, 558528, Tempo, 917431
1, 558565, Tempo, 925926
1, 558602, Tempo, 934579
1, 558639, Tempo, 943396
1, 558676, Tempo, 952381
1, 558713, Tempo, 961538
1, 558749, Tempo, 970874
1, 558786, Tempo, 980392
1, 558823, Tempo, 990099
1, 558860, Tempo, 1000000
1, 558897, Tempo, 1010101
1, 558934, Tempo, 1020408
1, 558971, Tempo, 1030928
1, 559045, Tempo, 1041667
1, 559082, Tempo, 1052632
1, 559119, Tempo, 1063830
1, 559156, Tempo, 1075269
1, 559193, Tempo, 1086957
1, 559229, Tempo, 1098901
1, 559266, Tempo, 1111111
1, 559303, Tempo, 1123596
1, 559340, Tempo, 1136364
1, 559377, Tempo, 1149425
1, 559414, Tempo, 1162791
1, 559451, Tempo, 1176471
1, 559488, Tempo, 1190476
1, 559525, Tempo, 1204819
1, 559599, Tempo, 1219512
1, 559636, Tempo, 1234568
1, 559673, Tempo, 1250000
1, 559709, Tempo, 1265823
1, 559746, Tempo, 1282051
1, 559783, Tempo, 1298701
1, 559820, Tempo, 1315789
1, 559857, Tempo, 1333333
1, 559894, Tempo, 1351351
1, 559931, Tempo, 1369863
1, 559968, Tempo, 1388889
1, 560005, Tempo, 1408451
1, 560042, Tempo, 1428571
1, 560079, Tempo, 1449275
1, 560153, Tempo, 1470588
1, 560189, Tempo, 1492537
1, 560226, Tempo, 1515152
1, 560263, Tempo, 1538462
1, 560300, Tempo, 1562500
1, 560337, Tempo, 1587302
1, 560374, Tempo, 1612903
1, 560411, Tempo, 1639344
1, 560448, Tempo, 1666667
1, 560485, Tempo, 1694915
1, 560522, Tempo, 1724138
1, 560559, Tempo, 1754386
1, 560596, Tempo, 1785714
1, 560633, Tempo, 1818182
1, 560669, Tempo, 1851852
1, 560669, End_track
2, 0, Start_track
2, 0, Title_t, "Flutes"
2, 0, Program_c, 0, 73
2, 0, Control_c, 0, 7, 90
2, 0, Control_c, 0, 10, 80
2, 8160, Note_on_c, 0, 84, 100
2, 9120, Note_on_c, 0, 84, 0
2, 9120, Note_on_c, 0, 83, 100
2, 9600, Note_on_c, 0, 83, 0
2, 10080, Note_on_c, 0, 86, 100
2, 11040, Note_on_c, 0, 86, 0
2, 11040, Note_on_c, 0, 84, 100
2, 11520, Note_on_c, 0, 84, 0
2, 11760, Note_on_c, 0, 81, 127
2, 11880, Note_on_c, 0, 81, 0
2, 12000, Note_on_c, 0, 81, 127
2, 12120, Note_on_c, 0, 81, 0
2, 12240, Note_on_c, 0, 81, 127
2, 12360, Note_on_c, 0, 81, 0
2, 12480, Note_on_c, 0, 81, 127
2, 13200, Note_on_c, 0, 81, 0
2, 13200, Note_on_c, 0, 79, 127
2, 13260, Note_on_c, 0, 79, 0
2, 13260, Note_on_c, 0, 77, 127
2, 13320, Note_on_c, 0, 77, 0
2, 13320, Note_on_c, 0, 76, 127
2, 13380, Note_on_c, 0, 76, 0
2, 13380, Note_on_c, 0, 74, 127
2, 13440, Note_on_c, 0, 74, 0
2, 13440, Note_on_c, 0, 72, 127
2, 13776, Note_on_c, 0, 72, 0
2, 13920, Note_on_c, 0, 74, 127
2, 14256, Note_on_c, 0, 74, 0
2, 14400, Note_on_c, 0, 76, 127
2, 14520, Note_on_c, 0, 76, 0
2, 14640, Note_on_c, 0, 81, 127
2, 14760, Note_on_c, 0, 81, 0
2, 14880, Note_on_c, 0, 81, 127
2, 15000, Note_on_c, 0, 81, 0
2, 15120, Note_on_c, 0, 81, 127
2, 15240, Note_on_c, 0, 81, 0
2, 15360, Note_on_c, 0, 81, 127
2, 16224, Note_on_c, 0, 81, 0
2, 16320, Note_on_c, 0, 79, 127
2, 16440, Note_on_c, 0, 79, 0
2, 16560, Note_on_c, 0, 84, 127
2, 16680, Note_on_c, 0, 84, 0
2, 16800, Note_on_c, 0, 86, 127
2, 16920, Note_on_c, 0, 86, 0
2, 17040, Note_on_c, 0, 83, 127
2, 17160, Note_on_c, 0, 83, 0
2, 17280, Note_on_c, 0, 84, 127
2, 17760, Note_on_c, 0, 84, 0
2, 23520, Note_on_c, 0, 88, 127
2, 23745, Note_on_c, 0, 88, 0
2, 23880, Note_on_c, 0, 88, 127
2, 24000, Note_on_c, 0, 88, 0
2, 24000, Note_on_c, 0, 88, 127
2, 24648, Note_on_c, 0, 88, 0
2, 24720, Note_on_c, 0, 86, 127
2, 24804, Note_on_c, 0, 86, 0
2, 24840, Note_on_c, 0, 84, 127
2, 24924, Note_on_c, 0, 84, 0
2, 24960, Note_on_c, 0, 83, 127
2, 25044, Note_on_c, 0, 83, 0
2, 25080, Note_on_c, 0, 84, 127
2, 25164, Note_on_c, 0, 84, 0
2, 25200, Note_on_c, 0, 83, 127
2, 25284, Note_on_c, 0, 83, 0
2, 25320, Note_on_c, 0, 81, 127
2, 25404, Note_on_c, 0, 81, 0
2, 25440, Note_on_c, 0, 79, 127
2, 25524, Note_on_c, 0, 79, 0
2, 25560, Note_on_c, 0, 81, 127
2, 25644, Note_on_c, 0, 81, 0
2, 25680, Note_on_c, 0, 79, 127
2, 25764, Note_on_c, 0, 79, 0
2, 25800, Note_on_c, 0, 77, 127
2, 25884, Note_on_c, 0, 77, 0
2, 25920, Note_on_c, 0, 76, 127
2, 26040, Note_on_c, 0, 76, 0
2, 26160, Note_on_c, 0, 89, 127
2, 26280, Note_on_c, 0, 89, 0
2, 26400, Note_on_c, 0, 88, 127
2, 26520, Note_on_c, 0, 88, 0
2, 26640, Note_on_c, 0, 89, 127
2, 26760, Note_on_c, 0, 89, 0
2, 26880, Note_on_c, 0, 88, 127
2, 27000, Note_on_c, 0, 88, 0
2, 27120, Note_on_c, 0, 89, 127
2, 27240, Note_on_c, 0, 89, 0
2, 27360, Note_on_c, 0, 88, 127
2, 27480, Note_on_c, 0, 88, 0
2, 27600, Note_on_c, 0, 89, 127
2, 27720, Note_on_c, 0, 89, 0
2, 27840, Note_on_c, 0, 88, 127
2, 28080, Note_on_c, 0, 88, 0
2, 28320, Note_on_c, 0, 84, 127
2, 28404, Note_on_c, 0, 84, 0
2, 28440, Note_on_c, 0, 83, 127
2, 28524, Note_on_c, 0, 83, 0
2, 28560, Note_on_c, 0, 81, 127
2, 28644, Note_on_c, 0, 81, 0
2, 28680, Note_on_c, 0, 79, 127
2, 28764, Note_on_c, 0, 79, 0
2, 28800, Note_on_c, 0, 84, 127
2, 28884, Note_on_c, 0, 84, 0
2, 28920, Note_on_c, 0, 83, 127
2, 29004, Note_on_c, 0, 83, 0
2, 29040, Note_on_c, 0, 81, 127
2, 29124, Note_on_c, 0, 81, 0
2, 29160, Note_on_c, 0, 79, 127
2, 29244, Note_on_c, 0, 79, 0
2, 29280, Note_on_c, 0, 77, 127
2, 29364, Note_on_c, 0, 77, 0
2, 29400, Note_on_c, 0, 76, 127
2, 29484, Note_on_c, 0, 76, 0
2, 29520, Note_on_c, 0, 74, 127
2, 29604, Note_on_c, 0, 74, 0
2, 29640, Note_on_c, 0, 72, 127
2, 29724, Note_on_c, 0, 72, 0
2, 29760, Note_on_c, 0, 79, 127
2, 29880, Note_on_c, 0, 79, 0
2, 30000, Note_on_c, 0, 86, 127
2, 30120, Note_on_c, 0, 86, 0
2, 30240, Note_on_c, 0, 88, 127
2, 30360, Note_on_c, 0, 88, 0
2, 30480, Note_on_c, 0, 88, 127
2, 30600, Note_on_c, 0, 88, 0
2, 30720, Note_on_c, 0, 86, 127
2, 30840, Note_on_c, 0, 86, 0
2, 30960, Note_on_c, 0, 86, 127
2, 31080, Note_on_c, 0, 86, 0
2, 31200, Note_on_c, 0, 88, 127
2, 31320, Note_on_c, 0, 88, 0
2, 31440, Note_on_c, 0, 88, 127
2, 31560, Note_on_c, 0, 88, 0
2, 31680, Note_on_c, 0, 86, 127
2, 31800, Note_on_c, 0, 86, 0
2, 31920, Note_on_c, 0, 86, 127
2, 32040, Note_on_c, 0, 86, 0
2, 32160, Note_on_c, 0, 88, 127
2, 32280, Note_on_c, 0, 88, 0
2, 32400, Note_on_c, 0, 88, 127
2, 32520, Note_on_c, 0, 88, 0
2, 32640, Note_on_c, 0, 86, 127
2, 33120, Note_on_c, 0, 86, 0
2, 49920, Note_on_c, 0, 84, 100
2, 50784, Note_on_c, 0, 84, 0
2, 50880, Note_on_c, 0, 86, 100
2, 51744, Note_on_c, 0, 86, 0
2, 51840, Note_on_c, 0, 89, 100
2, 52704, Note_on_c, 0, 89, 0
2, 52800, Note_on_c, 0, 88, 100
2, 54718, Note_on_c, 0, 88, 0
2, 54720, Note_on_c, 0, 86, 100
2, 56638, Note_on_c, 0, 86, 0
2, 56640, Note_on_c, 0, 84, 100
2, 58558, Note_on_c, 0, 84, 0
2, 58560, Note_on_c, 0, 83, 100
2, 60000, Note_on_c, 0, 83, 0
2, 60000, Note_on_c, 0, 85, 127
2, 60480, Note_on_c, 0, 85, 0
2, 60480, Note_on_c, 0, 86, 127
2, 60720, Note_on_c, 0, 86, 0
2, 60960, Note_on_c, 0, 86, 127
2, 61185, Note_on_c, 0, 86, 0
2, 61320, Note_on_c, 0, 86, 127
2, 61380, Note_on_c, 0, 86, 0
2, 61440, Note_on_c, 0, 86, 127
2, 62040, Note_on_c, 0, 86, 0
2, 62160, Note_on_c, 0, 85, 127
2, 62244, Note_on_c, 0, 85, 0
2, 62280, Note_on_c, 0, 83, 127
2, 62364, Note_on_c, 0, 83, 0
2, 62400, Note_on_c, 0, 81, 127
2, 62484, Note_on_c, 0, 81, 0
2, 62520, Note_on_c, 0, 83, 127
2, 62604, Note_on_c, 0, 83, 0
2, 62640, Note_on_c, 0, 81, 127
2, 62724, Note_on_c, 0, 81, 0
2, 62760, Note_on_c, 0, 79, 127
2, 62844, Note_on_c, 0, 79, 0
2, 62880, Note_on_c, 0, 78, 127
2, 62964, Note_on_c, 0, 78, 0
2, 63000, Note_on_c, 0, 79, 127
2, 63084, Note_on_c, 0, 79, 0
2, 63120, Note_on_c, 0, 78, 127
2, 63204, Note_on_c, 0, 78, 0
2, 63240, Note_on_c, 0, 76, 127
2, 63324, Note_on_c, 0, 76, 0
2, 63360, Note_on_c, 0, 74, 127
2, 63600, Note_on_c, 0, 74, 0
2, 63840, Note_on_c, 0, 86, 127
2, 64065, Note_on_c, 0, 86, 0
2, 64200, Note_on_c, 0, 86, 127
2, 64320, Note_on_c, 0, 86, 0
2, 64320, Note_on_c, 0, 86, 127
2, 64968, Note_on_c, 0, 86, 0
2, 65040, Note_on_c, 0, 85, 127
2, 65124, Note_on_c, 0, 85, 0
2, 65160, Note_on_c, 0, 83, 127
2, 65244, Note_on_c, 0, 83, 0
2, 65280, Note_on_c, 0, 81, 127
2, 65364, Note_on_c, 0, 81, 0
2, 65400, Note_on_c, 0, 83, 127
2, 65484, Note_on_c, 0, 83, 0
2, 65520, Note_on_c, 0, 81, 127
2, 65604, Note_on_c, 0, 81, 0
2, 65640, Note_on_c, 0, 79, 127
2, 65724, Note_on_c, 0, 79, 0
2, 65760, Note_on_c, 0, 78, 127
2, 65844, Note_on_c, 0, 78, 0
2, 65880, Note_on_c, 0, 79, 127
2, 65964, Note_on_c, 0, 79, 0
2, 66000, Note_on_c, 0, 78, 127
2, 66084, Note_on_c, 0, 78, 0
2, 66120, Note_on_c, 0, 76, 127
2, 66204, Note_on_c, 0, 76, 0
2, 66240, Note_on_c, 0, 74, 127
2, 66360, Note_on_c, 0, 74, 0
2, 66480, Note_on_c, 0, 86, 127
2, 66600, Note_on_c, 0, 86, 0
2, 66720, Note_on_c, 0, 86, 127
2, 66840, Note_on_c, 0, 86, 0
2, 66960, Note_on_c, 0, 86, 127
2, 67080, Note_on_c, 0, 86, 0
2, 67200, Note_on_c, 0, 86, 127
2, 67320, Note_on_c, 0, 86, 0
2, 67440, Note_on_c, 0, 86, 127
2, 67560, Note_on_c, 0, 86, 0
2, 67680, Note_on_c, 0, 86, 127
2, 67800, Note_on_c, 0, 86, 0
2, 67920, Note_on_c, 0, 86, 127
2, 68040, Note_on_c, 0, 86, 0
2, 68160, Note_on_c, 0, 86, 127
2, 68280, Note_on_c, 0, 86, 0
2, 68400, Note_on_c, 0, 90, 127
2, 68520, Note_on_c, 0, 90, 0
2, 68640, Note_on_c, 0, 90, 127
2, 68760, Note_on_c, 0, 90, 0
2, 68880, Note_on_c, 0, 90, 127
2, 69000, Note_on_c, 0, 90, 0
2, 69120, Note_on_c, 0, 90, 127
2, 69600, Note_on_c, 0, 90, 0
2, 73440, Note_on_c, 0, 86, 50
2, 73665, Note_on_c, 0, 86, 0
2, 73800, Note_on_c, 0, 86, 50
2, 73920, Note_on_c, 0, 86, 0
2, 73920, Note_on_c, 0, 86, 50
2, 74640, Note_on_c, 0, 86, 0
2, 74640, Note_on_c, 0, 84, 50
2, 74724, Note_on_c, 0, 84, 0
2, 74760, Note_on_c, 0, 83, 50
2, 74844, Note_on_c, 0, 83, 0
2, 74880, Note_on_c, 0, 81, 50
2, 74964, Note_on_c, 0, 81, 0
2, 75000, Note_on_c, 0, 83, 50
2, 75084, Note_on_c, 0, 83, 0
2, 75120, Note_on_c, 0, 81, 50
2, 75204, Note_on_c, 0, 81, 0
2, 75240, Note_on_c, 0, 79, 50
2, 75324, Note_on_c, 0, 79, 0
2, 75360, Note_on_c, 0, 78, 50
2, 75444, Note_on_c, 0, 78, 0
2, 75480, Note_on_c, 0, 79, 50
2, 75564, Note_on_c, 0, 79, 0
2, 75600, Note_on_c, 0, 78, 50
2, 75684, Note_on_c, 0, 78, 0
2, 75720, Note_on_c, 0, 76, 50
2, 75804, Note_on_c, 0, 76, 0
2, 75840, Note_on_c, 0, 74, 50
2, 76320, Note_on_c, 0, 74, 0
2, 79200, Note_on_c, 0, 86, 50
2, 79425, Note_on_c, 0, 86, 0
2, 79560, Note_on_c, 0, 86, 50
2, 79680, Note_on_c, 0, 86, 0
2, 79680, Note_on_c, 0, 86, 50
2, 80400, Note_on_c, 0, 86, 0
2, 80400, Note_on_c, 0, 84, 50
2, 80460, Note_on_c, 0, 84, 0
2, 80520, Note_on_c, 0, 83, 50
2, 80580, Note_on_c, 0, 83, 0
2, 80640, Note_on_c, 0, 81, 50
2, 80700, Note_on_c, 0, 81, 0
2, 80760, Note_on_c, 0, 83, 50
2, 80820, Note_on_c, 0, 83, 0
2, 80880, Note_on_c, 0, 81, 50
2, 80940, Note_on_c, 0, 81, 0
2, 81000, Note_on_c, 0, 79, 50
2, 81060, Note_on_c, 0, 79, 0
2, 81120, Note_on_c, 0, 78, 50
2, 81180, Note_on_c, 0, 78, 0
2, 81240, Note_on_c, 0, 79, 50
2, 81300, Note_on_c, 0, 79, 0
2, 81360, Note_on_c, 0, 78, 50
2, 81420, Note_on_c, 0, 78, 0
2, 81480, Note_on_c, 0, 76, 50
2, 81540, Note_on_c, 0, 76, 0
2, 81600, Note_on_c, 0, 74, 50
2, 81696, Note_on_c, 0, 74, 0
2, 81840, Note_on_c, 0, 78, 50
2, 81936, Note_on_c, 0, 78, 0
2, 82080, Note_on_c, 0, 79, 50
2, 82176, Note_on_c, 0, 79, 0
2, 82320, Note_on_c, 0, 81, 50
2, 82416, Note_on_c, 0, 81, 0
2, 82560, Note_on_c, 0, 84, 50
2, 82620, Note_on_c, 0, 84, 0
2, 82620, Note_on_c, 0, 83, 50
2, 82680, Note_on_c, 0, 83, 0
2, 82680, Note_on_c, 0, 84, 50
2, 82740, Note_on_c, 0, 84, 0
2, 82740, Note_on_c, 0, 83, 50
2, 82800, Note_on_c, 0, 83, 0
2, 82920, Note_on_c, 0, 84, 50
2, 83004, Note_on_c, 0, 84, 0
2, 83040, Note_on_c, 0, 86, 50
2, 83424, Note_on_c, 0, 86, 0
2, 83760, Note_on_c, 0, 76, 50
2, 83856, Note_on_c, 0, 76, 0
2, 84000, Note_on_c, 0, 78, 50
2, 84096, Note_on_c, 0, 78, 0
2, 84240, Note_on_c, 0, 79, 50
2, 84336, Note_on_c, 0, 79, 0
2, 84480, Note_on_c, 0, 83, 50
2, 84540, Note_on_c, 0, 83, 0
2, 84540, Note_on_c, 0, 81, 50
2, 84600, Note_on_c, 0, 81, 0
2, 84600, Note_on_c, 0, 83, 50
2, 84660, Note_on_c, 0, 83, 0
2, 84660, Note_on_c, 0, 81, 50
2, 84720, Note_on_c, 0, 81, 0
2, 84840, Note_on_c, 0, 83, 50
2, 84924, Note_on_c, 0, 83, 0
2, 84960, Note_on_c, 0, 84, 50
2, 85344, Note_on_c, 0, 84, 0
2, 85680, Note_on_c, 0, 74, 50
2, 85776, Note_on_c, 0, 74, 0
2, 85920, Note_on_c, 0, 76, 50
2, 86016, Note_on_c, 0, 76, 0
2, 86160, Note_on_c, 0, 78, 50
2, 86256, Note_on_c, 0, 78, 0
2, 86400, Note_on_c, 0, 81, 50
2, 86460, Note_on_c, 0, 81, 0
2, 86460, Note_on_c, 0, 79, 50
2, 86520, Note_on_c, 0, 79, 0
2, 86520, Note_on_c, 0, 81, 50
2, 86580, Note_on_c, 0, 81, 0
2, 86580, Note_on_c, 0, 79, 50
2, 86640, Note_on_c, 0, 79, 0
2, 86760, Note_on_c, 0, 81, 50
2, 86844, Note_on_c, 0, 81, 0
2, 86880, Note_on_c, 0, 83, 50
2, 87264, Note_on_c, 0, 83, 0
2, 87600, Note_on_c, 0, 72, 50
2, 87696, Note_on_c, 0, 72, 0
2, 87840, Note_on_c, 0, 74, 50
2, 87936, Note_on_c, 0, 74, 0
2, 88080, Note_on_c, 0, 76, 50
2, 88176, Note_on_c, 0, 76, 0
2, 88320, Note_on_c, 0, 79, 50
2, 88380, Note_on_c, 0, 79, 0
2, 88380, Note_on_c, 0, 78, 50
2, 88440, Note_on_c, 0, 78, 0
2, 88440, Note_on_c, 0, 79, 50
2, 88500, Note_on_c, 0, 79, 0
2, 88500, Note_on_c, 0, 78, 50
2, 88560, Note_on_c, 0, 78, 0
2, 88680, Note_on_c, 0, 79, 50
2, 88764, Note_on_c, 0, 79, 0
2, 88800, Note_on_c, 0, 81, 50
2, 88896, Note_on_c, 0, 81, 0
2, 89040, Note_on_c, 0, 72, 50
2, 89136, Note_on_c, 0, 72, 0
2, 89280, Note_on_c, 0, 71, 127
2, 89616, Note_on_c, 0, 71, 0
2, 89760, Note_on_c, 0, 79, 127
2, 90096, Note_on_c, 0, 79, 0
2, 90240, Note_on_c, 0, 76, 127
2, 90576, Note_on_c, 0, 76, 0
2, 90720, Note_on_c, 0, 81, 127
2, 91056, Note_on_c, 0, 81, 0
2, 91680, Note_on_c, 0, 83, 127
2, 92016, Note_on_c, 0, 83, 0
2, 92160, Note_on_c, 0, 79, 127
2, 92496, Note_on_c, 0, 79, 0
2, 92640, Note_on_c, 0, 84, 127
2, 92976, Note_on_c, 0, 84, 0
2, 94560, Note_on_c, 0, 83, 127
2, 94896, Note_on_c, 0, 83, 0
2, 95040, Note_on_c, 0, 79, 127
2, 95376, Note_on_c, 0, 79, 0
2, 95520, Note_on_c, 0, 84, 127
2, 95856, Note_on_c, 0, 84, 0
2, 96480, Note_on_c, 0, 86, 127
2, 97440, Note_on_c, 0, 86, 0
2, 97440, Note_on_c, 0, 83, 127
2, 97776, Note_on_c, 0, 83, 0
2, 98400, Note_on_c, 0, 79, 127
2, 98736, Note_on_c, 0, 79, 0
2, 98880, Note_on_c, 0, 76, 127
2, 99216, Note_on_c, 0, 76, 0
2, 99360, Note_on_c, 0, 81, 127
2, 99696, Note_on_c, 0, 81, 0
2, 100320, Note_on_c, 0, 83, 127
2, 101280, Note_on_c, 0, 83, 0
2, 101280, Note_on_c, 0, 79, 127
2, 101616, Note_on_c, 0, 79, 0
2, 102240, Note_on_c, 0, 88, 127
2, 102576, Note_on_c, 0, 88, 0
2, 102720, Note_on_c, 0, 84, 127
2, 103056, Note_on_c, 0, 84, 0
2, 103200, Note_on_c, 0, 89, 127
2, 103764, Note_on_c, 0, 89, 0
2, 103800, Note_on_c, 0, 88, 127
2, 103884, Note_on_c, 0, 88, 0
2, 103920, Note_on_c, 0, 86, 127
2, 104004, Note_on_c, 0, 86, 0
2, 104040, Note_on_c, 0, 84, 127
2, 104124, Note_on_c, 0, 84, 0
2, 104160, Note_on_c, 0, 86, 127
2, 104244, Note_on_c, 0, 86, 0
2, 104280, Note_on_c, 0, 84, 127
2, 104364, Note_on_c, 0, 84, 0
2, 104400, Note_on_c, 0, 83, 127
2, 104484, Note_on_c, 0, 83, 0
2, 104520, Note_on_c, 0, 81, 127
2, 104604, Note_on_c, 0, 81, 0
2, 104640, Note_on_c, 0, 79, 127
2, 104880, Note_on_c, 0, 79, 0
2, 104880, Note_on_c, 0, 88, 127
2, 104964, Note_on_c, 0, 88, 0
2, 105000, Note_on_c, 0, 86, 127
2, 105084, Note_on_c, 0, 86, 0
2, 105120, Note_on_c, 0, 88, 127
2, 105204, Note_on_c, 0, 88, 0
2, 105240, Note_on_c, 0, 86, 127
2, 105324, Note_on_c, 0, 86, 0
2, 105360, Note_on_c, 0, 84, 127
2, 105444, Note_on_c, 0, 84, 0
2, 105480, Note_on_c, 0, 83, 127
2, 105564, Note_on_c, 0, 83, 0
2, 105600, Note_on_c, 0, 88, 127
2, 105684, Note_on_c, 0, 88, 0
2, 105720, Note_on_c, 0, 86, 127
2, 105804, Note_on_c, 0, 86, 0
2, 105840, Note_on_c, 0, 84, 127
2, 105924, Note_on_c, 0, 84, 0
2, 105960, Note_on_c, 0, 83, 127
2, 106044, Note_on_c, 0, 83, 0
2, 106080, Note_on_c, 0, 84, 127
2, 106164, Note_on_c, 0, 84, 0
2, 106200, Note_on_c, 0, 83, 127
2, 106284, Note_on_c, 0, 83, 0
2, 106320, Note_on_c, 0, 81, 127
2, 106404, Note_on_c, 0, 81, 0
2, 106440, Note_on_c, 0, 79, 127
2, 106524, Note_on_c, 0, 79, 0
2, 106560, Note_on_c, 0, 84, 127
2, 106644, Note_on_c, 0, 84, 0
2, 106680, Note_on_c, 0, 83, 127
2, 106764, Note_on_c, 0, 83, 0
2, 106800, Note_on_c, 0, 81, 127
2, 106884, Note_on_c, 0, 81, 0
2, 106920, Note_on_c, 0, 79, 127
2, 107004, Note_on_c, 0, 79, 0
2, 107040, Note_on_c, 0, 81, 127
2, 107124, Note_on_c, 0, 81, 0
2, 107160, Note_on_c, 0, 79, 127
2, 107244, Note_on_c, 0, 79, 0
2, 107280, Note_on_c, 0, 78, 127
2, 107364, Note_on_c, 0, 78, 0
2, 107400, Note_on_c, 0, 76, 127
2, 107484, Note_on_c, 0, 76, 0
2, 107520, Note_on_c, 0, 81, 127
2, 107604, Note_on_c, 0, 81, 0
2, 107640, Note_on_c, 0, 79, 127
2, 107724, Note_on_c, 0, 79, 0
2, 107760, Note_on_c, 0, 78, 127
2, 107844, Note_on_c, 0, 78, 0
2, 107880, Note_on_c, 0, 76, 127
2, 107964, Note_on_c, 0, 76, 0
2, 108000, Note_on_c, 0, 78, 127
2, 108084, Note_on_c, 0, 78, 0
2, 108120, Note_on_c, 0, 76, 127
2, 108204, Note_on_c, 0, 76, 0
2, 108240, Note_on_c, 0, 74, 127
2, 108324, Note_on_c, 0, 74, 0
2, 108360, Note_on_c, 0, 73, 127
2, 108444, Note_on_c, 0, 73, 0
2, 108480, Note_on_c, 0, 74, 127
2, 108564, Note_on_c, 0, 74, 0
2, 108600, Note_on_c, 0, 76, 127
2, 108684, Note_on_c, 0, 76, 0
2, 108720, Note_on_c, 0, 74, 127
2, 108804, Note_on_c, 0, 74, 0
2, 108840, Note_on_c, 0, 76, 127
2, 108924, Note_on_c, 0, 76, 0
2, 108960, Note_on_c, 0, 72, 127
2, 109044, Note_on_c, 0, 72, 0
2, 109080, Note_on_c, 0, 74, 127
2, 109164, Note_on_c, 0, 74, 0
2, 109200, Note_on_c, 0, 72, 127
2, 109284, Note_on_c, 0, 72, 0
2, 109320, Note_on_c, 0, 74, 127
2, 109404, Note_on_c, 0, 74, 0
2, 109440, Note_on_c, 0, 71, 127
2, 109920, Note_on_c, 0, 71, 0
2, 110640, Note_on_c, 0, 79, 127
2, 110760, Note_on_c, 0, 79, 0
2, 110880, Note_on_c, 0, 79, 127
2, 111000, Note_on_c, 0, 79, 0
2, 111120, Note_on_c, 0, 79, 127
2, 111240, Note_on_c, 0, 79, 0
2, 111360, Note_on_c, 0, 79, 127
2, 112440, Note_on_c, 0, 79, 0
2, 112560, Note_on_c, 0, 83, 127
2, 112680, Note_on_c, 0, 83, 0
2, 112800, Note_on_c, 0, 83, 127
2, 112920, Note_on_c, 0, 83, 0
2, 113040, Note_on_c, 0, 83, 127
2, 113160, Note_on_c, 0, 83, 0
2, 113280, Note_on_c, 0, 86, 127
2, 114360, Note_on_c, 0, 86, 0
2, 114480, Note_on_c, 0, 86, 127
2, 114600, Note_on_c, 0, 86, 0
2, 114720, Note_on_c, 0, 86, 127
2, 114840, Note_on_c, 0, 86, 0
2, 114960, Note_on_c, 0, 86, 127
2, 115080, Note_on_c, 0, 86, 0
2, 115200, Note_on_c, 0, 84, 127
2, 115680, Note_on_c, 0, 84, 0
2, 116160, Note_on_c, 0, 81, 127
2, 117024, Note_on_c, 0, 81, 0
2, 117120, Note_on_c, 0, 79, 127
2, 118200, Note_on_c, 0, 79, 0
2, 118320, Note_on_c, 0, 79, 127
2, 118440, Note_on_c, 0, 79, 0
2, 118560, Note_on_c, 0, 79, 127
2, 118680, Note_on_c, 0, 79, 0
2, 118800, Note_on_c, 0, 79, 127
2, 118920, Note_on_c, 0, 79, 0
2, 119040, Note_on_c, 0, 83, 127
2, 120120, Note_on_c, 0, 83, 0
2, 120240, Note_on_c, 0, 83, 127
2, 120360, Note_on_c, 0, 83, 0
2, 120480, Note_on_c, 0, 83, 127
2, 120600, Note_on_c, 0, 83, 0
2, 120720, Note_on_c, 0, 83, 127
2, 120840, Note_on_c, 0, 83, 0
2, 120960, Note_on_c, 0, 84, 127
2, 121440, Note_on_c, 0, 84, 0
2, 121440, Note_on_c, 0, 87, 127
2, 121920, Note_on_c, 0, 87, 0
2, 121920, Note_on_c, 0, 91, 127
2, 126238, Note_on_c, 0, 91, 0
2, 126720, Note_on_c, 0, 83, 127
2, 127680, Note_on_c, 0, 83, 0
2, 127680, Note_on_c, 0, 81, 127
2, 128640, Note_on_c, 0, 81, 0
2, 128640, Note_on_c, 0, 79, 127
2, 129120, Note_on_c, 0, 79, 0
2, 129600, Note_on_c, 0, 81, 127
2, 129825, Note_on_c, 0, 81, 0
2, 129960, Note_on_c, 0, 81, 127
2, 130080, Note_on_c, 0, 81, 0
2, 130080, Note_on_c, 0, 81, 127
2, 130798, Note_on_c, 0, 81, 0
2, 130800, Note_on_c, 0, 78, 127
2, 131250, Note_on_c, 0, 78, 0
2, 131280, Note_on_c, 0, 74, 127
2, 131520, Note_on_c, 0, 74, 0
2, 131520, Note_on_c, 0, 83, 127
2, 132000, Note_on_c, 0, 83, 0
2, 132480, Note_on_c, 0, 84, 127
2, 132705, Note_on_c, 0, 84, 0
2, 132840, Note_on_c, 0, 84, 127
2, 132960, Note_on_c, 0, 84, 0
2, 132960, Note_on_c, 0, 84, 127
2, 133678, Note_on_c, 0, 84, 0
2, 133680, Note_on_c, 0, 81, 127
2, 134130, Note_on_c, 0, 81, 0
2, 134160, Note_on_c, 0, 78, 127
2, 134400, Note_on_c, 0, 78, 0
2, 134400, Note_on_c, 0, 86, 127
2, 134880, Note_on_c, 0, 86, 0
2, 135360, Note_on_c, 0, 88, 127
2, 135585, Note_on_c, 0, 88, 0
2, 135720, Note_on_c, 0, 88, 127
2, 135840, Note_on_c, 0, 88, 0
2, 135840, Note_on_c, 0, 88, 127
2, 136404, Note_on_c, 0, 88, 0
2, 136440, Note_on_c, 0, 86, 127
2, 136524, Note_on_c, 0, 86, 0
2, 136560, Note_on_c, 0, 84, 127
2, 136644, Note_on_c, 0, 84, 0
2, 136680, Note_on_c, 0, 83, 127
2, 136764, Note_on_c, 0, 83, 0
2, 136800, Note_on_c, 0, 81, 127
2, 136884, Note_on_c, 0, 81, 0
2, 136920, Note_on_c, 0, 79, 127
2, 137004, Note_on_c, 0, 79, 0
2, 137040, Note_on_c, 0, 81, 127
2, 137124, Note_on_c, 0, 81, 0
2, 137160, Note_on_c, 0, 83, 127
2, 137244, Note_on_c, 0, 83, 0
2, 137280, Note_on_c, 0, 84, 127
2, 138240, Note_on_c, 0, 84, 0
2, 138240, Note_on_c, 0, 83, 127
2, 140158, Note_on_c, 0, 83, 0
2, 140160, Note_on_c, 0, 81, 127
2, 141120, Note_on_c, 0, 81, 0
2, 141120, Note_on_c, 0, 91, 127
2, 143518, Note_on_c, 0, 91, 0
2, 143520, Note_on_c, 0, 90, 127
2, 144000, Note_on_c, 0, 90, 0
2, 144000, Note_on_c, 0, 91, 127
2, 144480, Note_on_c, 0, 91, 0
2, 158880, Note_on_c, 0, 84, 103
2, 159840, Note_on_c, 0, 84, 0
2, 159840, Note_on_c, 0, 83, 110
2, 160320, Note_on_c, 0, 83, 0
2, 160800, Note_on_c, 0, 86, 116
2, 161760, Note_on_c, 0, 86, 0
2, 161760, Note_on_c, 0, 84, 123
2, 162240, Note_on_c, 0, 84, 0
2, 162480, Note_on_c, 0, 81, 127
2, 162600, Note_on_c, 0, 81, 0
2, 162720, Note_on_c, 0, 81, 127
2, 162840, Note_on_c, 0, 81, 0
2, 162960, Note_on_c, 0, 81, 127
2, 163080, Note_on_c, 0, 81, 0
2, 163200, Note_on_c, 0, 81, 127
2, 163920, Note_on_c, 0, 81, 0
2, 163920, Note_on_c, 0, 79, 127
2, 163980, Note_on_c, 0, 79, 0
2, 163980, Note_on_c, 0, 77, 127
2, 164040, Note_on_c, 0, 77, 0
2, 164040, Note_on_c, 0, 76, 127
2, 164100, Note_on_c, 0, 76, 0
2, 164100, Note_on_c, 0, 74, 127
2, 164160, Note_on_c, 0, 74, 0
2, 164160, Note_on_c, 0, 72, 127
2, 164496, Note_on_c, 0, 72, 0
2, 164640, Note_on_c, 0, 74, 127
2, 164976, Note_on_c, 0, 74, 0
2, 165120, Note_on_c, 0, 76, 127
2, 165240, Note_on_c, 0, 76, 0
2, 165360, Note_on_c, 0, 81, 127
2, 165480, Note_on_c, 0, 81, 0
2, 165600, Note_on_c, 0, 81, 127
2, 165720, Note_on_c, 0, 81, 0
2, 165840, Note_on_c, 0, 81, 127
2, 165960, Note_on_c, 0, 81, 0
2, 166080, Note_on_c, 0, 81, 127
2, 166944, Note_on_c, 0, 81, 0
2, 167040, Note_on_c, 0, 79, 127
2, 167160, Note_on_c, 0, 79, 0
2, 167280, Note_on_c, 0, 84, 127
2, 167400, Note_on_c, 0, 84, 0
2, 167520, Note_on_c, 0, 86, 127
2, 167640, Note_on_c, 0, 86, 0
2, 167760, Note_on_c, 0, 83, 127
2, 167880, Note_on_c, 0, 83, 0
2, 168000, Note_on_c, 0, 84, 127
2, 168480, Note_on_c, 0, 84, 0
2, 174240, Note_on_c, 0, 88, 127
2, 174465, Note_on_c, 0, 88, 0
2, 174600, Note_on_c, 0, 88, 127
2, 174720, Note_on_c, 0, 88, 0
2, 174720, Note_on_c, 0, 88, 127
2, 175368, Note_on_c, 0, 88, 0
2, 175440, Note_on_c, 0, 86, 127
2, 175524, Note_on_c, 0, 86, 0
2, 175560, Note_on_c, 0, 84, 127
2, 175644, Note_on_c, 0, 84, 0
2, 175680, Note_on_c, 0, 83, 127
2, 175764, Note_on_c, 0, 83, 0
2, 175800, Note_on_c, 0, 84, 127
2, 175884, Note_on_c, 0, 84, 0
2, 175920, Note_on_c, 0, 83, 127
2, 176004, Note_on_c, 0, 83, 0
2, 176040, Note_on_c, 0, 81, 127
2, 176124, Note_on_c, 0, 81, 0
2, 176160, Note_on_c, 0, 79, 127
2, 176244, Note_on_c, 0, 79, 0
2, 176280, Note_on_c, 0, 81, 127
2, 176364, Note_on_c, 0, 81, 0
2, 176400, Note_on_c, 0, 79, 127
2, 176484, Note_on_c, 0, 79, 0
2, 176520, Note_on_c, 0, 77, 127
2, 176604, Note_on_c, 0, 77, 0
2, 176640, Note_on_c, 0, 76, 127
2, 176760, Note_on_c, 0, 76, 0
2, 176880, Note_on_c, 0, 89, 127
2, 177000, Note_on_c, 0, 89, 0
2, 177120, Note_on_c, 0, 88, 127
2, 177240, Note_on_c, 0, 88, 0
2, 177360, Note_on_c, 0, 89, 127
2, 177480, Note_on_c, 0, 89, 0
2, 177600, Note_on_c, 0, 88, 127
2, 177720, Note_on_c, 0, 88, 0
2, 177840, Note_on_c, 0, 89, 127
2, 177960, Note_on_c, 0, 89, 0
2, 178080, Note_on_c, 0, 88, 127
2, 178200, Note_on_c, 0, 88, 0
2, 178320, Note_on_c, 0, 89, 127
2, 178440, Note_on_c, 0, 89, 0
2, 178560, Note_on_c, 0, 88, 127
2, 178800, Note_on_c, 0, 88, 0
2, 179040, Note_on_c, 0, 84, 127
2, 179124, Note_on_c, 0, 84, 0
2, 179160, Note_on_c, 0, 83, 127
2, 179244, Note_on_c, 0, 83, 0
2, 179280, Note_on_c, 0, 81, 127
2, 179364, Note_on_c, 0, 81, 0
2, 179400, Note_on_c, 0, 79, 127
2, 179484, Note_on_c, 0, 79, 0
2, 179520, Note_on_c, 0, 84, 127
2, 179604, Note_on_c, 0, 84, 0
2, 179640, Note_on_c, 0, 83, 127
2, 179724, Note_on_c, 0, 83, 0
2, 179760, Note_on_c, 0, 81, 127
2, 179844, Note_on_c, 0, 81, 0
2, 179880, Note_on_c, 0, 79, 127
2, 179964, Note_on_c, 0, 79, 0
2, 180000, Note_on_c, 0, 77, 127
2, 180084, Note_on_c, 0, 77, 0
2, 180120, Note_on_c, 0, 76, 127
2, 180204, Note_on_c, 0, 76, 0
2, 180240, Note_on_c, 0, 74, 127
2, 180324, Note_on_c, 0, 74, 0
2, 180360, Note_on_c, 0, 72, 127
2, 180444, Note_on_c, 0, 72, 0
2, 180480, Note_on_c, 0, 79, 127
2, 180600, Note_on_c, 0, 79, 0
2, 180720, Note_on_c, 0, 86, 127
2, 180840, Note_on_c, 0, 86, 0
2, 180960, Note_on_c, 0, 88, 127
2, 181080, Note_on_c, 0, 88, 0
2, 181200, Note_on_c, 0, 88, 127
2, 181320, Note_on_c, 0, 88, 0
2, 181440, Note_on_c, 0, 86, 127
2, 181560, Note_on_c, 0, 86, 0
2, 181680, Note_on_c, 0, 86, 127
2, 181800, Note_on_c, 0, 86, 0
2, 181920, Note_on_c, 0, 88, 127
2, 182040, Note_on_c, 0, 88, 0
2, 182160, Note_on_c, 0, 88, 127
2, 182280, Note_on_c, 0, 88, 0
2, 182400, Note_on_c, 0, 86, 127
2, 182520, Note_on_c, 0, 86, 0
2, 182640, Note_on_c, 0, 86, 127
2, 182760, Note_on_c, 0, 86, 0
2, 182880, Note_on_c, 0, 88, 127
2, 183000, Note_on_c, 0, 88, 0
2, 183120, Note_on_c, 0, 88, 127
2, 183240, Note_on_c, 0, 88, 0
2, 183360, Note_on_c, 0, 86, 127
2, 183840, Note_on_c, 0, 86, 0
2, 200640, Note_on_c, 0, 84, 127
2, 201504, Note_on_c, 0, 84, 0
2, 201600, Note_on_c, 0, 86, 127
2, 202464, Note_on_c, 0, 86, 0
2, 202560, Note_on_c, 0, 89, 127
2, 203424, Note_on_c, 0, 89, 0
2, 203520, Note_on_c, 0, 88, 127
2, 205438, Note_on_c, 0, 88, 0
2, 205440, Note_on_c, 0, 86, 127
2, 207358, Note_on_c, 0, 86, 0
2, 207360, Note_on_c, 0, 84, 127
2, 209278, Note_on_c, 0, 84, 0
2, 209280, Note_on_c, 0, 83, 127
2, 210720, Note_on_c, 0, 83, 0
2, 210720, Note_on_c, 0, 85, 127
2, 211200, Note_on_c, 0, 85, 0
2, 211200, Note_on_c, 0, 86, 127
2, 211440, Note_on_c, 0, 86, 0
2, 211680, Note_on_c, 0, 86, 127
2, 211905, Note_on_c, 0, 86, 0
2, 212040, Note_on_c, 0, 86, 127
2, 212100, Note_on_c, 0, 86, 0
2, 212160, Note_on_c, 0, 86, 127
2, 212760, Note_on_c, 0, 86, 0
2, 212880, Note_on_c, 0, 85, 127
2, 212964, Note_on_c, 0, 85, 0
2, 213000, Note_on_c, 0, 83, 127
2, 213084, Note_on_c, 0, 83, 0
2, 213120, Note_on_c, 0, 81, 127
2, 213204, Note_on_c, 0, 81, 0
2, 213240, Note_on_c, 0, 83, 127
2, 213324, Note_on_c, 0, 83, 0
2, 213360, Note_on_c, 0, 81, 127
2, 213444, Note_on_c, 0, 81, 0
2, 213480, Note_on_c, 0, 79, 127
2, 213564, Note_on_c, 0, 79, 0
2, 213600, Note_on_c, 0, 78, 127
2, 213684, Note_on_c, 0, 78, 0
2, 213720, Note_on_c, 0, 79, 127
2, 213804, Note_on_c, 0, 79, 0
2, 213840, Note_on_c, 0, 78, 127
2, 213924, Note_on_c, 0, 78, 0
2, 213960, Note_on_c, 0, 76, 127
2, 214044, Note_on_c, 0, 76, 0
2, 214080, Note_on_c, 0, 74, 127
2, 214320, Note_on_c, 0, 74, 0
2, 214560, Note_on_c, 0, 86, 127
2, 214785, Note_on_c, 0, 86, 0
2, 214920, Note_on_c, 0, 86, 127
2, 215040, Note_on_c, 0, 86, 0
2, 215040, Note_on_c, 0, 86, 127
2, 215688, Note_on_c, 0, 86, 0
2, 215760, Note_on_c, 0, 85, 127
2, 215844, Note_on_c, 0, 85, 0
2, 215880, Note_on_c, 0, 83, 127
2, 215964, Note_on_c, 0, 83, 0
2, 216000, Note_on_c, 0, 81, 127
2, 216084, Note_on_c, 0, 81, 0
2, 216120, Note_on_c, 0, 83, 127
2, 216204, Note_on_c, 0, 83, 0
2, 216240, Note_on_c, 0, 81, 127
2, 216324, Note_on_c, 0, 81, 0
2, 216360, Note_on_c, 0, 79, 127
2, 216444, Note_on_c, 0, 79, 0
2, 216480, Note_on_c, 0, 78, 127
2, 216564, Note_on_c, 0, 78, 0
2, 216600, Note_on_c, 0, 79, 127
2, 216684, Note_on_c, 0, 79, 0
2, 216720, Note_on_c, 0, 78, 127
2, 216804, Note_on_c, 0, 78, 0
2, 216840, Note_on_c, 0, 76, 127
2, 216924, Note_on_c, 0, 76, 0
2, 216960, Note_on_c, 0, 74, 127
2, 217080, Note_on_c, 0, 74, 0
2, 217200, Note_on_c, 0, 86, 127
2, 217320, Note_on_c, 0, 86, 0
2, 217440, Note_on_c, 0, 86, 127
2, 217560, Note_on_c, 0, 86, 0
2, 217680, Note_on_c, 0, 86, 127
2, 217800, Note_on_c, 0, 86, 0
2, 217920, Note_on_c, 0, 86, 127
2, 218040, Note_on_c, 0, 86, 0
2, 218160, Note_on_c, 0, 86, 127
2, 218280, Note_on_c, 0, 86, 0
2, 218400, Note_on_c, 0, 86, 127
2, 218520, Note_on_c, 0, 86, 0
2, 218640, Note_on_c, 0, 86, 127
2, 218760, Note_on_c, 0, 86, 0
2, 218880, Note_on_c, 0, 86, 127
2, 219000, Note_on_c, 0, 86, 0
2, 219120, Note_on_c, 0, 90, 127
2, 219240, Note_on_c, 0, 90, 0
2, 219360, Note_on_c, 0, 90, 127
2, 219480, Note_on_c, 0, 90, 0
2, 219600, Note_on_c, 0, 90, 127
2, 219720, Note_on_c, 0, 90, 0
2, 219840, Note_on_c, 0, 90, 127
2, 220320, Note_on_c, 0, 90, 0
2, 224160, Note_on_c, 0, 86, 50
2, 224385, Note_on_c, 0, 86, 0
2, 224520, Note_on_c, 0, 86, 50
2, 224640, Note_on_c, 0, 86, 0
2, 224640, Note_on_c, 0, 86, 50
2, 225360, Note_on_c, 0, 86, 0
2, 225360, Note_on_c, 0, 84, 50
2, 225444, Note_on_c, 0, 84, 0
2, 225480, Note_on_c, 0, 83, 50
2, 225564, Note_on_c, 0, 83, 0
2, 225600, Note_on_c, 0, 81, 50
2, 225684, Note_on_c, 0, 81, 0
2, 225720, Note_on_c, 0, 83, 50
2, 225804, Note_on_c, 0, 83, 0
2, 225840, Note_on_c, 0, 81, 50
2, 225924, Note_on_c, 0, 81, 0
2, 225960, Note_on_c, 0, 79, 50
2, 226044, Note_on_c, 0, 79, 0
2, 226080, Note_on_c, 0, 78, 50
2, 226164, Note_on_c, 0, 78, 0
2, 226200, Note_on_c, 0, 79, 50
2, 226284, Note_on_c, 0, 79, 0
2, 226320, Note_on_c, 0, 78, 50
2, 226404, Note_on_c, 0, 78, 0
2, 226440, Note_on_c, 0, 76, 50
2, 226524, Note_on_c, 0, 76, 0
2, 226560, Note_on_c, 0, 74, 50
2, 227040, Note_on_c, 0, 74, 0
2, 229920, Note_on_c, 0, 86, 50
2, 230145, Note_on_c, 0, 86, 0
2, 230280, Note_on_c, 0, 86, 50
2, 230400, Note_on_c, 0, 86, 0
2, 230400, Note_on_c, 0, 86, 50
2, 231120, Note_on_c, 0, 86, 0
2, 231120, Note_on_c, 0, 84, 50
2, 231180, Note_on_c, 0, 84, 0
2, 231240, Note_on_c, 0, 83, 50
2, 231300, Note_on_c, 0, 83, 0
2, 231360, Note_on_c, 0, 81, 50
2, 231420, Note_on_c, 0, 81, 0
2, 231480, Note_on_c, 0, 83, 50
2, 231540, Note_on_c, 0, 83, 0
2, 231600, Note_on_c, 0, 81, 50
2, 231660, Note_on_c, 0, 81, 0
2, 231720, Note_on_c, 0, 79, 50
2, 231780, Note_on_c, 0, 79, 0
2, 231840, Note_on_c, 0, 78, 50
2, 231900, Note_on_c, 0, 78, 0
2, 231960, Note_on_c, 0, 79, 50
2, 232020, Note_on_c, 0, 79, 0
2, 232080, Note_on_c, 0, 78, 50
2, 232140, Note_on_c, 0, 78, 0
2, 232200, Note_on_c, 0, 76, 50
2, 232260, Note_on_c, 0, 76, 0
2, 232320, Note_on_c, 0, 74, 50
2, 232416, Note_on_c, 0, 74, 0
2, 232560, Note_on_c, 0, 78, 50
2, 232656, Note_on_c, 0, 78, 0
2, 232800, Note_on_c, 0, 79, 50
2, 232896, Note_on_c, 0, 79, 0
2, 233040, Note_on_c, 0, 81, 50
2, 233136, Note_on_c, 0, 81, 0
2, 233280, Note_on_c, 0, 84, 50
2, 233340, Note_on_c, 0, 84, 0
2, 233340, Note_on_c, 0, 83, 50
2, 233400, Note_on_c, 0, 83, 0
2, 233400, Note_on_c, 0, 84, 50
2, 233460, Note_on_c, 0, 84, 0
2, 233460, Note_on_c, 0, 83, 50
2, 233520, Note_on_c, 0, 83, 0
2, 233640, Note_on_c, 0, 84, 50
2, 233724, Note_on_c, 0, 84, 0
2, 233760, Note_on_c, 0, 86, 50
2, 234144, Note_on_c, 0, 86, 0
2, 234480, Note_on_c, 0, 76, 50
2, 234576, Note_on_c, 0, 76, 0
2, 234720, Note_on_c, 0, 78, 50
2, 234816, Note_on_c, 0, 78, 0
2, 234960, Note_on_c, 0, 79, 50
2, 235056, Note_on_c, 0, 79, 0
2, 235200, Note_on_c, 0, 83, 50
2, 235260, Note_on_c, 0, 83, 0
2, 235260, Note_on_c, 0, 81, 50
2, 235320, Note_on_c, 0, 81, 0
2, 235320, Note_on_c, 0, 83, 50
2, 235380, Note_on_c, 0, 83, 0
2, 235380, Note_on_c, 0, 81, 50
2, 235440, Note_on_c, 0, 81, 0
2, 235560, Note_on_c, 0, 83, 50
2, 235644, Note_on_c, 0, 83, 0
2, 235680, Note_on_c, 0, 84, 50
2, 236064, Note_on_c, 0, 84, 0
2, 236400, Note_on_c, 0, 74, 50
2, 236496, Note_on_c, 0, 74, 0
2, 236640, Note_on_c, 0, 76, 50
2, 236736, Note_on_c, 0, 76, 0
2, 236880, Note_on_c, 0, 78, 50
2, 236976, Note_on_c, 0, 78, 0
2, 237120, Note_on_c, 0, 81, 50
2, 237180, Note_on_c, 0, 81, 0
2, 237180, Note_on_c, 0, 79, 50
2, 237240, Note_on_c, 0, 79, 0
2, 237240, Note_on_c, 0, 81, 50
2, 237300, Note_on_c, 0, 81, 0
2, 237300, Note_on_c, 0, 79, 50
2, 237360, Note_on_c, 0, 79, 0
2, 237480, Note_on_c, 0, 81, 50
2, 237564, Note_on_c, 0, 81, 0
2, 237600, Note_on_c, 0, 83, 50
2, 237984, Note_on_c, 0, 83, 0
2, 238320, Note_on_c, 0, 72, 50
2, 238416, Note_on_c, 0, 72, 0
2, 238560, Note_on_c, 0, 74, 50
2, 238656, Note_on_c, 0, 74, 0
2, 238800, Note_on_c, 0, 76, 50
2, 238896, Note_on_c, 0, 76, 0
2, 239040, Note_on_c, 0, 79, 50
2, 239100, Note_on_c, 0, 79, 0
2, 239100, Note_on_c, 0, 78, 50
2, 239160, Note_on_c, 0, 78, 0
2, 239160, Note_on_c, 0, 79, 50
2, 239220, Note_on_c, 0, 79, 0
2, 239220, Note_on_c, 0, 78, 50
2, 239280, Note_on_c, 0, 78, 0
2, 239400, Note_on_c, 0, 79, 50
2, 239484, Note_on_c, 0, 79, 0
2, 239520, Note_on_c, 0, 81, 50
2, 239616, Note_on_c, 0, 81, 0
2, 239760, Note_on_c, 0, 72, 50
2, 239856, Note_on_c, 0, 72, 0
2, 240000, Note_on_c, 0, 71, 100
2, 240336, Note_on_c, 0, 71, 0
2, 240480, Note_on_c, 0, 79, 100
2, 240816, Note_on_c, 0, 79, 0
2, 240960, Note_on_c, 0, 76, 100
2, 241296, Note_on_c, 0, 76, 0
2, 241440, Note_on_c, 0, 81, 100
2, 241776, Note_on_c, 0, 81, 0
2, 242400, Note_on_c, 0, 83, 100
2, 242736, Note_on_c, 0, 83, 0
2, 242880, Note_on_c, 0, 79, 100
2, 243216, Note_on_c, 0, 79, 0
2, 243360, Note_on_c, 0, 84, 100
2, 243696, Note_on_c, 0, 84, 0
2, 245280, Note_on_c, 0, 83, 100
2, 245616, Note_on_c, 0, 83, 0
2, 245760, Note_on_c, 0, 79, 100
2, 246096, Note_on_c, 0, 79, 0
2, 246240, Note_on_c, 0, 84, 100
2, 246576, Note_on_c, 0, 84, 0
2, 247200, Note_on_c, 0, 86, 100
2, 248160, Note_on_c, 0, 86, 0
2, 248160, Note_on_c, 0, 83, 100
2, 248496, Note_on_c, 0, 83, 0
2, 249120, Note_on_c, 0, 79, 100
2, 249456, Note_on_c, 0, 79, 0
2, 249600, Note_on_c, 0, 76, 100
2, 249936, Note_on_c, 0, 76, 0
2, 250080, Note_on_c, 0, 81, 100
2, 250416, Note_on_c, 0, 81, 0
2, 251040, Note_on_c, 0, 83, 100
2, 252000, Note_on_c, 0, 83, 0
2, 252000, Note_on_c, 0, 79, 100
2, 252336, Note_on_c, 0, 79, 0
2, 252960, Note_on_c, 0, 88, 100
2, 253296, Note_on_c, 0, 88, 0
2, 253440, Note_on_c, 0, 84, 100
2, 253776, Note_on_c, 0, 84, 0
2, 253920, Note_on_c, 0, 89, 100
2, 254484, Note_on_c, 0, 89, 0
2, 254520, Note_on_c, 0, 88, 100
2, 254604, Note_on_c, 0, 88, 0
2, 254640, Note_on_c, 0, 86, 100
2, 254724, Note_on_c, 0, 86, 0
2, 254760, Note_on_c, 0, 84, 100
2, 254844, Note_on_c, 0, 84, 0
2, 254880, Note_on_c, 0, 86, 100
2, 254964, Note_on_c, 0, 86, 0
2, 255000, Note_on_c, 0, 84, 100
2, 255084, Note_on_c, 0, 84, 0
2, 255120, Note_on_c, 0, 83, 100
2, 255204, Note_on_c, 0, 83, 0
2, 255240, Note_on_c, 0, 81, 100
2, 255324, Note_on_c, 0, 81, 0
2, 255360, Note_on_c, 0, 79, 100
2, 255600, Note_on_c, 0, 79, 0
2, 255600, Note_on_c, 0, 88, 100
2, 255684, Note_on_c, 0, 88, 0
2, 255720, Note_on_c, 0, 86, 100
2, 255804, Note_on_c, 0, 86, 0
2, 255840, Note_on_c, 0, 88, 100
2, 255924, Note_on_c, 0, 88, 0
2, 255960, Note_on_c, 0, 86, 100
2, 256044, Note_on_c, 0, 86, 0
2, 256080, Note_on_c, 0, 84, 100
2, 256164, Note_on_c, 0, 84, 0
2, 256200, Note_on_c, 0, 83, 100
2, 256284, Note_on_c, 0, 83, 0
2, 256320, Note_on_c, 0, 88, 100
2, 256404, Note_on_c, 0, 88, 0
2, 256440, Note_on_c, 0, 86, 100
2, 256524, Note_on_c, 0, 86, 0
2, 256560, Note_on_c, 0, 84, 100
2, 256644, Note_on_c, 0, 84, 0
2, 256680, Note_on_c, 0, 83, 100
2, 256764, Note_on_c, 0, 83, 0
2, 256800, Note_on_c, 0, 84, 100
2, 256884, Note_on_c, 0, 84, 0
2, 256920, Note_on_c, 0, 83, 100
2, 257004, Note_on_c, 0, 83, 0
2, 257040, Note_on_c, 0, 81, 100
2, 257124, Note_on_c, 0, 81, 0
2, 257160, Note_on_c, 0, 79, 100
2, 257244, Note_on_c, 0, 79, 0
2, 257280, Note_on_c, 0, 84, 100
2, 257364, Note_on_c, 0, 84, 0
2, 257400, Note_on_c, 0, 83, 100
2, 257484, Note_on_c, 0, 83, 0
2, 257520, Note_on_c, 0, 81, 100
2, 257604, Note_on_c, 0, 81, 0
2, 257640, Note_on_c, 0, 79, 100
2, 257724, Note_on_c, 0, 79, 0
2, 257760, Note_on_c, 0, 81, 100
2, 257844, Note_on_c, 0, 81, 0
2, 257880, Note_on_c, 0, 79, 100
2, 257964, Note_on_c, 0, 79, 0
2, 258000, Note_on_c, 0, 78, 100
2, 258084, Note_on_c, 0, 78, 0
2, 258120, Note_on_c, 0, 76, 100
2, 258204, Note_on_c, 0, 76, 0
2, 258240, Note_on_c, 0, 81, 100
2, 258324, Note_on_c, 0, 81, 0
2, 258360, Note_on_c, 0, 79, 100
2, 258444, Note_on_c, 0, 79, 0
2, 258480, Note_on_c, 0, 78, 100
2, 258564, Note_on_c, 0, 78, 0
2, 258600, Note_on_c, 0, 76, 100
2, 258684, Note_on_c, 0, 76, 0
2, 258720, Note_on_c, 0, 78, 100
2, 258804, Note_on_c, 0, 78, 0
2, 258840, Note_on_c, 0, 76, 100
2, 258924, Note_on_c, 0, 76, 0
2, 258960, Note_on_c, 0, 74, 100
2, 259044, Note_on_c, 0, 74, 0
2, 259080, Note_on_c, 0, 73, 100
2, 259164, Note_on_c, 0, 73, 0
2, 259200, Note_on_c, 0, 74, 100
2, 259284, Note_on_c, 0, 74, 0
2, 259320, Note_on_c, 0, 76, 100
2, 259404, Note_on_c, 0, 76, 0
2, 259440, Note_on_c, 0, 74, 100
2, 259524, Note_on_c, 0, 74, 0
2, 259560, Note_on_c, 0, 76, 100
2, 259644, Note_on_c, 0, 76, 0
2, 259680, Note_on_c, 0, 72, 100
2, 259764, Note_on_c, 0, 72, 0
2, 259800, Note_on_c, 0, 74, 100
2, 259884, Note_on_c, 0, 74, 0
2, 259920, Note_on_c, 0, 72, 100
2, 260004, Note_on_c, 0, 72, 0
2, 260040, Note_on_c, 0, 74, 100
2, 260124, Note_on_c, 0, 74, 0
2, 260160, Note_on_c, 0, 71, 100
2, 260640, Note_on_c, 0, 71, 0
2, 261360, Note_on_c, 0, 79, 100
2, 261480, Note_on_c, 0, 79, 0
2, 261600, Note_on_c, 0, 79, 100
2, 261720, Note_on_c, 0, 79, 0
2, 261840, Note_on_c, 0, 79, 100
2, 261960, Note_on_c, 0, 79, 0
2, 262080, Note_on_c, 0, 79, 100
2, 263160, Note_on_c, 0, 79, 0
2, 263280, Note_on_c, 0, 83, 100
2, 263400, Note_on_c, 0, 83, 0
2, 263520, Note_on_c, 0, 83, 100
2, 263640, Note_on_c, 0, 83, 0
2, 263760, Note_on_c, 0, 83, 100
2, 263880, Note_on_c, 0, 83, 0
2, 264000, Note_on_c, 0, 86, 100
2, 265080, Note_on_c, 0, 86, 0
2, 265200, Note_on_c, 0, 86, 100
2, 265320, Note_on_c, 0, 86, 0
2, 265440, Note_on_c, 0, 86, 100
2, 265560, Note_on_c, 0, 86, 0
2, 265680, Note_on_c, 0, 86, 100
2, 265800, Note_on_c, 0, 86, 0
2, 265920, Note_on_c, 0, 84, 100
2, 266400, Note_on_c, 0, 84, 0
2, 266880, Note_on_c, 0, 81, 100
2, 267744, Note_on_c, 0, 81, 0
2, 267840, Note_on_c, 0, 79, 100
2, 268920, Note_on_c, 0, 79, 0
2, 269040, Note_on_c, 0, 79, 100
2, 269160, Note_on_c, 0, 79, 0
2, 269280, Note_on_c, 0, 79, 100
2, 269400, Note_on_c, 0, 79, 0
2, 269520, Note_on_c, 0, 79, 100
2, 269640, Note_on_c, 0, 79, 0
2, 269760, Note_on_c, 0, 83, 100
2, 270840, Note_on_c, 0, 83, 0
2, 270960, Note_on_c, 0, 83, 100
2, 271080, Note_on_c, 0, 83, 0
2, 271200, Note_on_c, 0, 83, 100
2, 271320, Note_on_c, 0, 83, 0
2, 271440, Note_on_c, 0, 83, 100
2, 271560, Note_on_c, 0, 83, 0
2, 271680, Note_on_c, 0, 84, 100
2, 272160, Note_on_c, 0, 84, 0
2, 272160, Note_on_c, 0, 87, 100
2, 272640, Note_on_c, 0, 87, 0
2, 272640, Note_on_c, 0, 91, 100
2, 276958, Note_on_c, 0, 91, 0
2, 277440, Note_on_c, 0, 83, 100
2, 278400, Note_on_c, 0, 83, 0
2, 278400, Note_on_c, 0, 81, 100
2, 279360, Note_on_c, 0, 81, 0
2, 279360, Note_on_c, 0, 79, 100
2, 279840, Note_on_c, 0, 79, 0
2, 280320, Note_on_c, 0, 81, 100
2, 280545, Note_on_c, 0, 81, 0
2, 280680, Note_on_c, 0, 81, 100
2, 280800, Note_on_c, 0, 81, 0
2, 280800, Note_on_c, 0, 81, 100
2, 281518, Note_on_c, 0, 81, 0
2, 281520, Note_on_c, 0, 78, 100
2, 281970, Note_on_c, 0, 78, 0
2, 282000, Note_on_c, 0, 74, 100
2, 282240, Note_on_c, 0, 74, 0
2, 282240, Note_on_c, 0, 83, 100
2, 282720, Note_on_c, 0, 83, 0
2, 283200, Note_on_c, 0, 84, 100
2, 283425, Note_on_c, 0, 84, 0
2, 283560, Note_on_c, 0, 84, 100
2, 283680, Note_on_c, 0, 84, 0
2, 283680, Note_on_c, 0, 84, 100
2, 284398, Note_on_c, 0, 84, 0
2, 284400, Note_on_c, 0, 81, 100
2, 284850, Note_on_c, 0, 81, 0
2, 284880, Note_on_c, 0, 78, 100
2, 285120, Note_on_c, 0, 78, 0
2, 285120, Note_on_c, 0, 86, 100
2, 285600, Note_on_c, 0, 86, 0
2, 286080, Note_on_c, 0, 88, 100
2, 286305, Note_on_c, 0, 88, 0
2, 286440, Note_on_c, 0, 88, 100
2, 286560, Note_on_c, 0, 88, 0
2, 286560, Note_on_c, 0, 88, 100
2, 287124, Note_on_c, 0, 88, 0
2, 287160, Note_on_c, 0, 86, 100
2, 287244, Note_on_c, 0, 86, 0
2, 287280, Note_on_c, 0, 84, 100
2, 287364, Note_on_c, 0, 84, 0
2, 287400, Note_on_c, 0, 83, 100
2, 287484, Note_on_c, 0, 83, 0
2, 287520, Note_on_c, 0, 81, 100
2, 287604, Note_on_c, 0, 81, 0
2, 287640, Note_on_c, 0, 79, 100
2, 287724, Note_on_c, 0, 79, 0
2, 287760, Note_on_c, 0, 81, 100
2, 287844, Note_on_c, 0, 81, 0
2, 287880, Note_on_c, 0, 83, 100
2, 287964, Note_on_c, 0, 83, 0
2, 288000, Note_on_c, 0, 84, 100
2, 288960, Note_on_c, 0, 84, 0
2, 288960, Note_on_c, 0, 83, 100
2, 290878, Note_on_c, 0, 83, 0
2, 290880, Note_on_c, 0, 81, 100
2, 291840, Note_on_c, 0, 81, 0
2, 291840, Note_on_c, 0, 91, 100
2, 294238, Note_on_c, 0, 91, 0
2, 294240, Note_on_c, 0, 90, 100
2, 294720, Note_on_c, 0, 90, 0
2, 294720, Note_on_c, 0, 91, 100
2, 295200, Note_on_c, 0, 91, 0
2, 312480, Note_on_c, 0, 76, 50
2, 312705, Note_on_c, 0, 76, 0
2, 312840, Note_on_c, 0, 76, 50
2, 312960, Note_on_c, 0, 76, 0
2, 312960, Note_on_c, 0, 76, 50
2, 313608, Note_on_c, 0, 76, 0
2, 313680, Note_on_c, 0, 77, 50
2, 313764, Note_on_c, 0, 77, 0
2, 313800, Note_on_c, 0, 79, 50
2, 313884, Note_on_c, 0, 79, 0
2, 313920, Note_on_c, 0, 81, 50
2, 314004, Note_on_c, 0, 81, 0
2, 314040, Note_on_c, 0, 80, 50
2, 314124, Note_on_c, 0, 80, 0
2, 314160, Note_on_c, 0, 81, 50
2, 314244, Note_on_c, 0, 81, 0
2, 314280, Note_on_c, 0, 83, 50
2, 314364, Note_on_c, 0, 83, 0
2, 314400, Note_on_c, 0, 84, 50
2, 314484, Note_on_c, 0, 84, 0
2, 314520, Note_on_c, 0, 83, 50
2, 314604, Note_on_c, 0, 83, 0
2, 314640, Note_on_c, 0, 84, 50
2, 314724, Note_on_c, 0, 84, 0
2, 314760, Note_on_c, 0, 86, 50
2, 314844, Note_on_c, 0, 86, 0
2, 314880, Note_on_c, 0, 88, 50
2, 315360, Note_on_c, 0, 88, 0
2, 316320, Note_on_c, 0, 81, 127
2, 316545, Note_on_c, 0, 81, 0
2, 316680, Note_on_c, 0, 81, 127
2, 316800, Note_on_c, 0, 81, 0
2, 316800, Note_on_c, 0, 81, 127
2, 317998, Note_on_c, 0, 81, 0
2, 318000, Note_on_c, 0, 82, 127
2, 318240, Note_on_c, 0, 82, 0
2, 318240, Note_on_c, 0, 81, 127
2, 318480, Note_on_c, 0, 81, 0
2, 318480, Note_on_c, 0, 79, 127
2, 318720, Note_on_c, 0, 79, 0
2, 318720, Note_on_c, 0, 77, 127
2, 319200, Note_on_c, 0, 77, 0
2, 319680, Note_on_c, 0, 86, 127
2, 320040, Note_on_c, 0, 86, 0
2, 320040, Note_on_c, 0, 86, 127
2, 320160, Note_on_c, 0, 86, 0
2, 320160, Note_on_c, 0, 86, 127
2, 321358, Note_on_c, 0, 86, 0
2, 321360, Note_on_c, 0, 88, 127
2, 321600, Note_on_c, 0, 88, 0
2, 321600, Note_on_c, 0, 86, 127
2, 321840, Note_on_c, 0, 86, 0
2, 321840, Note_on_c, 0, 84, 127
2, 322080, Note_on_c, 0, 84, 0
2, 322080, Note_on_c, 0, 83, 127
2, 322560, Note_on_c, 0, 83, 0
2, 323040, Note_on_c, 0, 79, 127
2, 323265, Note_on_c, 0, 79, 0
2, 323400, Note_on_c, 0, 79, 127
2, 323520, Note_on_c, 0, 79, 0
2, 323520, Note_on_c, 0, 79, 127
2, 324718, Note_on_c, 0, 79, 0
2, 324720, Note_on_c, 0, 81, 127
2, 324960, Note_on_c, 0, 81, 0
2, 324960, Note_on_c, 0, 79, 127
2, 325200, Note_on_c, 0, 79, 0
2, 325200, Note_on_c, 0, 77, 127
2, 325440, Note_on_c, 0, 77, 0
2, 325440, Note_on_c, 0, 76, 127
2, 325920, Note_on_c, 0, 76, 0
2, 326400, Note_on_c, 0, 84, 127
2, 326625, Note_on_c, 0, 84, 0
2, 326760, Note_on_c, 0, 84, 127
2, 326880, Note_on_c, 0, 84, 0
2, 326880, Note_on_c, 0, 84, 127
2, 328078, Note_on_c, 0, 84, 0
2, 328080, Note_on_c, 0, 86, 127
2, 328320, Note_on_c, 0, 86, 0
2, 328320, Note_on_c, 0, 84, 127
2, 328560, Note_on_c, 0, 84, 0
2, 328560, Note_on_c, 0, 82, 127
2, 328800, Note_on_c, 0, 82, 0
2, 328800, Note_on_c, 0, 81, 127
2, 329280, Note_on_c, 0, 81, 0
2, 336480, Note_on_c, 0, 79, 100
2, 336960, Note_on_c, 0, 79, 0
2, 336960, Note_on_c, 0, 81, 50
2, 337920, Note_on_c, 0, 81, 0
2, 337920, Note_on_c, 0, 84, 50
2, 338400, Note_on_c, 0, 84, 0
2, 338400, Note_on_c, 0, 82, 60
2, 338880, Note_on_c, 0, 82, 0
2, 341280, Note_on_c, 0, 74, 48
2, 341760, Note_on_c, 0, 74, 0
2, 341760, Note_on_c, 0, 76, 48
2, 342720, Note_on_c, 0, 76, 0
2, 342720, Note_on_c, 0, 79, 48
2, 343200, Note_on_c, 0, 79, 0
2, 343200, Note_on_c, 0, 77, 48
2, 343680, Note_on_c, 0, 77, 0
2, 346080, Note_on_c, 0, 81, 60
2, 346560, Note_on_c, 0, 81, 0
2, 346560, Note_on_c, 0, 83, 60
2, 347520, Note_on_c, 0, 83, 0
2, 347520, Note_on_c, 0, 86, 60
2, 348000, Note_on_c, 0, 86, 0
2, 348000, Note_on_c, 0, 85, 60
2, 348480, Note_on_c, 0, 85, 0
2, 348480, Note_on_c, 0, 84, 60
2, 348960, Note_on_c, 0, 84, 0
2, 348960, Note_on_c, 0, 83, 60
2, 349920, Note_on_c, 0, 83, 0
2, 349920, Note_on_c, 0, 81, 60
2, 350160, Note_on_c, 0, 81, 0
2, 350160, Note_on_c, 0, 79, 60
2, 350400, Note_on_c, 0, 79, 0
2, 350400, Note_on_c, 0, 79, 60
2, 350880, Note_on_c, 0, 79, 0
2, 350880, Note_on_c, 0, 78, 60
2, 351120, Note_on_c, 0, 78, 0
2, 351120, Note_on_c, 0, 76, 60
2, 351360, Note_on_c, 0, 76, 0
2, 351360, Note_on_c, 0, 75, 127
2, 351840, Note_on_c, 0, 75, 0
2, 351840, Note_on_c, 0, 78, 127
2, 352320, Note_on_c, 0, 78, 0
2, 352320, Note_on_c, 0, 79, 127
2, 353280, Note_on_c, 0, 79, 0
2, 353280, Note_on_c, 0, 82, 127
2, 354240, Note_on_c, 0, 82, 0
2, 354240, Note_on_c, 0, 83, 127
2, 356638, Note_on_c, 0, 83, 0
2, 356640, Note_on_c, 0, 88, 127
2, 357120, Note_on_c, 0, 88, 0
2, 357120, Note_on_c, 0, 87, 127
2, 357600, Note_on_c, 0, 87, 0
2, 358080, Note_on_c, 0, 83, 127
2, 358464, Note_on_c, 0, 83, 0
2, 358560, Note_on_c, 0, 83, 127
2, 358680, Note_on_c, 0, 83, 0
2, 358800, Note_on_c, 0, 83, 127
2, 358920, Note_on_c, 0, 83, 0
2, 359040, Note_on_c, 0, 79, 127
2, 359160, Note_on_c, 0, 79, 0
2, 359280, Note_on_c, 0, 79, 127
2, 359400, Note_on_c, 0, 79, 0
2, 359520, Note_on_c, 0, 76, 127
2, 359640, Note_on_c, 0, 76, 0
2, 359760, Note_on_c, 0, 76, 127
2, 359880, Note_on_c, 0, 76, 0
2, 360000, Note_on_c, 0, 71, 50
2, 360480, Note_on_c, 0, 71, 0
2, 367680, Note_on_c, 0, 83, 50
2, 368640, Note_on_c, 0, 83, 0
2, 368640, Note_on_c, 0, 84, 50
2, 371518, Note_on_c, 0, 84, 0
2, 371520, Note_on_c, 0, 89, 50
2, 371760, Note_on_c, 0, 89, 0
2, 372000, Note_on_c, 0, 88, 50
2, 372240, Note_on_c, 0, 88, 0
2, 372480, Note_on_c, 0, 86, 50
2, 372960, Note_on_c, 0, 86, 0
2, 373920, Note_on_c, 0, 84, 127
2, 374880, Note_on_c, 0, 84, 0
2, 374880, Note_on_c, 0, 83, 127
2, 375840, Note_on_c, 0, 83, 0
2, 375840, Note_on_c, 0, 82, 127
2, 376800, Note_on_c, 0, 82, 0
2, 376800, Note_on_c, 0, 81, 127
2, 376920, Note_on_c, 0, 81, 0
2, 377040, Note_on_c, 0, 79, 127
2, 377160, Note_on_c, 0, 79, 0
2, 377280, Note_on_c, 0, 77, 127
2, 377760, Note_on_c, 0, 77, 0
2, 377760, Note_on_c, 0, 86, 127
2, 378720, Note_on_c, 0, 86, 0
2, 378720, Note_on_c, 0, 85, 127
2, 379680, Note_on_c, 0, 85, 0
2, 379680, Note_on_c, 0, 84, 127
2, 380640, Note_on_c, 0, 84, 0
2, 380640, Note_on_c, 0, 83, 127
2, 380760, Note_on_c, 0, 83, 0
2, 380880, Note_on_c, 0, 81, 127
2, 381000, Note_on_c, 0, 81, 0
2, 381120, Note_on_c, 0, 79, 127
2, 381600, Note_on_c, 0, 79, 0
2, 381600, Note_on_c, 0, 88, 127
2, 382560, Note_on_c, 0, 88, 0
2, 382560, Note_on_c, 0, 87, 127
2, 383040, Note_on_c, 0, 87, 0
2, 383520, Note_on_c, 0, 84, 127
2, 384000, Note_on_c, 0, 84, 0
2, 384000, Note_on_c, 0, 85, 127
2, 384480, Note_on_c, 0, 85, 0
2, 384480, Note_on_c, 0, 86, 127
2, 384960, Note_on_c, 0, 86, 0
2, 385440, Note_on_c, 0, 77, 127
2, 385920, Note_on_c, 0, 77, 0
2, 385920, Note_on_c, 0, 78, 127
2, 386400, Note_on_c, 0, 78, 0
2, 386400, Note_on_c, 0, 79, 127
2, 386880, Note_on_c, 0, 79, 0
2, 387360, Note_on_c, 0, 82, 127
2, 387840, Note_on_c, 0, 82, 0
2, 387840, Note_on_c, 0, 83, 127
2, 388320, Note_on_c, 0, 83, 0
2, 388320, Note_on_c, 0, 84, 127
2, 388800, Note_on_c, 0, 84, 0
2, 389280, Note_on_c, 0, 87, 127
2, 389760, Note_on_c, 0, 87, 0
2, 389760, Note_on_c, 0, 88, 127
2, 390240, Note_on_c, 0, 88, 0
2, 390240, Note_on_c, 0, 89, 127
2, 390720, Note_on_c, 0, 89, 0
2, 391200, Note_on_c, 0, 80, 127
2, 391680, Note_on_c, 0, 80, 0
2, 391680, Note_on_c, 0, 81, 127
2, 392160, Note_on_c, 0, 81, 0
2, 392160, Note_on_c, 0, 82, 127
2, 392640, Note_on_c, 0, 82, 0
2, 392640, Note_on_c, 0, 91, 127
2, 394558, Note_on_c, 0, 91, 0
2, 394560, Note_on_c, 0, 89, 127
2, 396478, Note_on_c, 0, 89, 0
2, 396480, Note_on_c, 0, 88, 127
2, 398398, Note_on_c, 0, 88, 0
2, 398400, Note_on_c, 0, 86, 127
2, 399840, Note_on_c, 0, 86, 0
2, 399840, Note_on_c, 0, 84, 127
2, 400656, Note_on_c, 0, 84, 0
2, 400800, Note_on_c, 0, 90, 127
2, 401136, Note_on_c, 0, 90, 0
2, 401280, Note_on_c, 0, 91, 127
2, 401616, Note_on_c, 0, 91, 0
2, 401760, Note_on_c, 0, 91, 127
2, 401985, Note_on_c, 0, 91, 0
2, 402120, Note_on_c, 0, 91, 127
2, 402240, Note_on_c, 0, 91, 0
2, 402240, Note_on_c, 0, 91, 127
2, 402960, Note_on_c, 0, 91, 0
2, 402960, Note_on_c, 0, 90, 127
2, 403044, Note_on_c, 0, 90, 0
2, 403080, Note_on_c, 0, 88, 127
2, 403164, Note_on_c, 0, 88, 0
2, 403200, Note_on_c, 0, 86, 127
2, 403284, Note_on_c, 0, 86, 0
2, 403320, Note_on_c, 0, 88, 127
2, 403404, Note_on_c, 0, 88, 0
2, 403440, Note_on_c, 0, 86, 127
2, 403524, Note_on_c, 0, 86, 0
2, 403560, Note_on_c, 0, 84, 127
2, 403644, Note_on_c, 0, 84, 0
2, 403680, Note_on_c, 0, 83, 127
2, 403764, Note_on_c, 0, 83, 0
2, 403800, Note_on_c, 0, 84, 127
2, 403884, Note_on_c, 0, 84, 0
2, 403920, Note_on_c, 0, 83, 127
2, 404004, Note_on_c, 0, 83, 0
2, 404040, Note_on_c, 0, 81, 127
2, 404124, Note_on_c, 0, 81, 0
2, 404160, Note_on_c, 0, 79, 127
2, 404400, Note_on_c, 0, 79, 0
2, 404640, Note_on_c, 0, 91, 127
2, 404865, Note_on_c, 0, 91, 0
2, 405000, Note_on_c, 0, 91, 127
2, 405120, Note_on_c, 0, 91, 0
2, 405120, Note_on_c, 0, 91, 127
2, 405768, Note_on_c, 0, 91, 0
2, 405840, Note_on_c, 0, 90, 127
2, 405924, Note_on_c, 0, 90, 0
2, 405960, Note_on_c, 0, 88, 127
2, 406044, Note_on_c, 0, 88, 0
2, 406080, Note_on_c, 0, 86, 127
2, 406164, Note_on_c, 0, 86, 0
2, 406200, Note_on_c, 0, 88, 127
2, 406284, Note_on_c, 0, 88, 0
2, 406320, Note_on_c, 0, 86, 127
2, 406404, Note_on_c, 0, 86, 0
2, 406440, Note_on_c, 0, 84, 127
2, 406524, Note_on_c, 0, 84, 0
2, 406560, Note_on_c, 0, 83, 127
2, 406644, Note_on_c, 0, 83, 0
2, 406680, Note_on_c, 0, 84, 127
2, 406764, Note_on_c, 0, 84, 0
2, 406800, Note_on_c, 0, 83, 127
2, 406884, Note_on_c, 0, 83, 0
2, 406920, Note_on_c, 0, 81, 127
2, 407004, Note_on_c, 0, 81, 0
2, 407040, Note_on_c, 0, 79, 127
2, 407160, Note_on_c, 0, 79, 0
2, 407280, Note_on_c, 0, 79, 127
2, 407400, Note_on_c, 0, 79, 0
2, 407520, Note_on_c, 0, 79, 127
2, 407640, Note_on_c, 0, 79, 0
2, 407760, Note_on_c, 0, 79, 127
2, 407880, Note_on_c, 0, 79, 0
2, 408000, Note_on_c, 0, 79, 127
2, 408120, Note_on_c, 0, 79, 0
2, 408240, Note_on_c, 0, 83, 127
2, 408360, Note_on_c, 0, 83, 0
2, 408480, Note_on_c, 0, 83, 127
2, 408600, Note_on_c, 0, 83, 0
2, 408720, Note_on_c, 0, 83, 127
2, 408840, Note_on_c, 0, 83, 0
2, 408960, Note_on_c, 0, 83, 127
2, 409080, Note_on_c, 0, 83, 0
2, 409200, Note_on_c, 0, 86, 127
2, 409320, Note_on_c, 0, 86, 0
2, 409440, Note_on_c, 0, 86, 127
2, 409560, Note_on_c, 0, 86, 0
2, 409680, Note_on_c, 0, 89, 127
2, 409800, Note_on_c, 0, 89, 0
2, 409920, Note_on_c, 0, 89, 127
2, 410400, Note_on_c, 0, 89, 0
2, 414240, Note_on_c, 0, 79, 50
2, 414465, Note_on_c, 0, 79, 0
2, 414600, Note_on_c, 0, 79, 50
2, 414720, Note_on_c, 0, 79, 0
2, 414720, Note_on_c, 0, 79, 50
2, 415368, Note_on_c, 0, 79, 0
2, 415440, Note_on_c, 0, 77, 50
2, 415524, Note_on_c, 0, 77, 0
2, 415560, Note_on_c, 0, 76, 50
2, 415644, Note_on_c, 0, 76, 0
2, 415680, Note_on_c, 0, 74, 50
2, 415764, Note_on_c, 0, 74, 0
2, 415800, Note_on_c, 0, 76, 50
2, 415884, Note_on_c, 0, 76, 0
2, 415920, Note_on_c, 0, 74, 50
2, 416004, Note_on_c, 0, 74, 0
2, 416040, Note_on_c, 0, 72, 50
2, 416124, Note_on_c, 0, 72, 0
2, 416160, Note_on_c, 0, 71, 50
2, 416244, Note_on_c, 0, 71, 0
2, 416280, Note_on_c, 0, 72, 50
2, 416364, Note_on_c, 0, 72, 0
2, 416400, Note_on_c, 0, 71, 50
2, 416484, Note_on_c, 0, 71, 0
2, 416520, Note_on_c, 0, 69, 50
2, 416604, Note_on_c, 0, 69, 0
2, 416640, Note_on_c, 0, 67, 50
2, 417120, Note_on_c, 0, 67, 0
2, 419760, Note_on_c, 0, 79, 50
2, 419856, Note_on_c, 0, 79, 0
2, 420000, Note_on_c, 0, 81, 50
2, 420096, Note_on_c, 0, 81, 0
2, 420240, Note_on_c, 0, 83, 50
2, 420336, Note_on_c, 0, 83, 0
2, 420480, Note_on_c, 0, 86, 50
2, 420540, Note_on_c, 0, 86, 0
2, 420540, Note_on_c, 0, 84, 50
2, 420600, Note_on_c, 0, 84, 0
2, 420600, Note_on_c, 0, 86, 50
2, 420660, Note_on_c, 0, 86, 0
2, 420660, Note_on_c, 0, 84, 50
2, 420720, Note_on_c, 0, 84, 0
2, 420840, Note_on_c, 0, 86, 50
2, 420900, Note_on_c, 0, 86, 0
2, 420960, Note_on_c, 0, 88, 50
2, 421344, Note_on_c, 0, 88, 0
2, 424560, Note_on_c, 0, 81, 50
2, 424680, Note_on_c, 0, 81, 0
2, 424800, Note_on_c, 0, 83, 50
2, 424920, Note_on_c, 0, 83, 0
2, 425040, Note_on_c, 0, 84, 50
2, 425160, Note_on_c, 0, 84, 0
2, 425280, Note_on_c, 0, 88, 50
2, 425340, Note_on_c, 0, 88, 0
2, 425340, Note_on_c, 0, 86, 50
2, 425400, Note_on_c, 0, 86, 0
2, 425400, Note_on_c, 0, 88, 50
2, 425460, Note_on_c, 0, 88, 0
2, 425460, Note_on_c, 0, 86, 50
2, 425520, Note_on_c, 0, 86, 0
2, 425640, Note_on_c, 0, 88, 50
2, 425700, Note_on_c, 0, 88, 0
2, 425760, Note_on_c, 0, 89, 50
2, 426144, Note_on_c, 0, 89, 0
2, 426480, Note_on_c, 0, 79, 50
2, 426600, Note_on_c, 0, 79, 0
2, 426720, Note_on_c, 0, 81, 50
2, 426840, Note_on_c, 0, 81, 0
2, 426960, Note_on_c, 0, 83, 50
2, 427080, Note_on_c, 0, 83, 0
2, 427200, Note_on_c, 0, 86, 50
2, 427260, Note_on_c, 0, 86, 0
2, 427260, Note_on_c, 0, 84, 50
2, 427320, Note_on_c, 0, 84, 0
2, 427320, Note_on_c, 0, 86, 50
2, 427380, Note_on_c, 0, 86, 0
2, 427380, Note_on_c, 0, 84, 50
2, 427440, Note_on_c, 0, 84, 0
2, 427560, Note_on_c, 0, 86, 50
2, 427620, Note_on_c, 0, 86, 0
2, 427680, Note_on_c, 0, 88, 50
2, 428064, Note_on_c, 0, 88, 0
2, 428400, Note_on_c, 0, 77, 50
2, 428520, Note_on_c, 0, 77, 0
2, 428640, Note_on_c, 0, 79, 50
2, 428760, Note_on_c, 0, 79, 0
2, 428880, Note_on_c, 0, 81, 50
2, 429000, Note_on_c, 0, 81, 0
2, 429120, Note_on_c, 0, 84, 50
2, 429180, Note_on_c, 0, 84, 0
2, 429180, Note_on_c, 0, 83, 50
2, 429240, Note_on_c, 0, 83, 0
2, 429240, Note_on_c, 0, 84, 50
2, 429300, Note_on_c, 0, 84, 0
2, 429300, Note_on_c, 0, 83, 50
2, 429360, Note_on_c, 0, 83, 0
2, 429480, Note_on_c, 0, 84, 50
2, 429540, Note_on_c, 0, 84, 0
2, 429600, Note_on_c, 0, 86, 50
2, 429984, Note_on_c, 0, 86, 0
2, 430080, Note_on_c, 0, 76, 50
2, 430416, Note_on_c, 0, 76, 0
2, 430560, Note_on_c, 0, 84, 127
2, 430896, Note_on_c, 0, 84, 0
2, 431040, Note_on_c, 0, 81, 127
2, 431376, Note_on_c, 0, 81, 0
2, 431520, Note_on_c, 0, 86, 127
2, 431856, Note_on_c, 0, 86, 0
2, 432480, Note_on_c, 0, 88, 127
2, 432816, Note_on_c, 0, 88, 0
2, 432960, Note_on_c, 0, 84, 127
2, 433296, Note_on_c, 0, 84, 0
2, 433440, Note_on_c, 0, 89, 127
2, 433776, Note_on_c, 0, 89, 0
2, 434400, Note_on_c, 0, 91, 127
2, 434736, Note_on_c, 0, 91, 0
2, 434880, Note_on_c, 0, 88, 127
2, 435216, Note_on_c, 0, 88, 0
2, 435360, Note_on_c, 0, 88, 127
2, 435696, Note_on_c, 0, 88, 0
2, 435840, Note_on_c, 0, 84, 127
2, 436176, Note_on_c, 0, 84, 0
2, 436320, Note_on_c, 0, 89, 127
2, 436656, Note_on_c, 0, 89, 0
2, 437280, Note_on_c, 0, 91, 127
2, 438240, Note_on_c, 0, 91, 0
2, 438240, Note_on_c, 0, 88, 127
2, 438576, Note_on_c, 0, 88, 0
2, 439200, Note_on_c, 0, 84, 127
2, 439536, Note_on_c, 0, 84, 0
2, 439680, Note_on_c, 0, 81, 127
2, 440016, Note_on_c, 0, 81, 0
2, 440160, Note_on_c, 0, 86, 127
2, 440496, Note_on_c, 0, 86, 0
2, 441120, Note_on_c, 0, 88, 127
2, 442080, Note_on_c, 0, 88, 0
2, 442080, Note_on_c, 0, 84, 127
2, 442416, Note_on_c, 0, 84, 0
2, 443040, Note_on_c, 0, 81, 127
2, 443376, Note_on_c, 0, 81, 0
2, 443520, Note_on_c, 0, 77, 127
2, 443856, Note_on_c, 0, 77, 0
2, 444000, Note_on_c, 0, 82, 127
2, 444564, Note_on_c, 0, 82, 0
2, 444600, Note_on_c, 0, 81, 127
2, 444684, Note_on_c, 0, 81, 0
2, 444720, Note_on_c, 0, 79, 127
2, 444804, Note_on_c, 0, 79, 0
2, 444840, Note_on_c, 0, 77, 127
2, 444924, Note_on_c, 0, 77, 0
2, 444960, Note_on_c, 0, 79, 127
2, 445044, Note_on_c, 0, 79, 0
2, 445080, Note_on_c, 0, 77, 127
2, 445164, Note_on_c, 0, 77, 0
2, 445200, Note_on_c, 0, 76, 127
2, 445284, Note_on_c, 0, 76, 0
2, 445320, Note_on_c, 0, 74, 127
2, 445404, Note_on_c, 0, 74, 0
2, 445440, Note_on_c, 0, 72, 127
2, 445608, Note_on_c, 0, 72, 0
2, 445680, Note_on_c, 0, 81, 127
2, 445764, Note_on_c, 0, 81, 0
2, 445800, Note_on_c, 0, 79, 127
2, 445884, Note_on_c, 0, 79, 0
2, 445920, Note_on_c, 0, 81, 127
2, 446004, Note_on_c, 0, 81, 0
2, 446040, Note_on_c, 0, 79, 127
2, 446124, Note_on_c, 0, 79, 0
2, 446160, Note_on_c, 0, 77, 127
2, 446244, Note_on_c, 0, 77, 0
2, 446280, Note_on_c, 0, 76, 127
2, 446364, Note_on_c, 0, 76, 0
2, 446400, Note_on_c, 0, 81, 127
2, 446568, Note_on_c, 0, 81, 0
2, 446640, Note_on_c, 0, 89, 127
2, 446724, Note_on_c, 0, 89, 0
2, 446760, Note_on_c, 0, 88, 127
2, 446844, Note_on_c, 0, 88, 0
2, 446880, Note_on_c, 0, 89, 127
2, 446964, Note_on_c, 0, 89, 0
2, 447000, Note_on_c, 0, 88, 127
2, 447084, Note_on_c, 0, 88, 0
2, 447120, Note_on_c, 0, 86, 127
2, 447204, Note_on_c, 0, 86, 0
2, 447240, Note_on_c, 0, 84, 127
2, 447324, Note_on_c, 0, 84, 0
2, 447360, Note_on_c, 0, 89, 127
2, 447444, Note_on_c, 0, 89, 0
2, 447480, Note_on_c, 0, 88, 127
2, 447564, Note_on_c, 0, 88, 0
2, 447600, Note_on_c, 0, 86, 127
2, 447684, Note_on_c, 0, 86, 0
2, 447720, Note_on_c, 0, 84, 127
2, 447804, Note_on_c, 0, 84, 0
2, 447840, Note_on_c, 0, 86, 127
2, 447924, Note_on_c, 0, 86, 0
2, 447960, Note_on_c, 0, 84, 127
2, 448044, Note_on_c, 0, 84, 0
2, 448080, Note_on_c, 0, 83, 127
2, 448164, Note_on_c, 0, 83, 0
2, 448200, Note_on_c, 0, 81, 127
2, 448284, Note_on_c, 0, 81, 0
2, 448320, Note_on_c, 0, 86, 127
2, 448404, Note_on_c, 0, 86, 0
2, 448440, Note_on_c, 0, 84, 127
2, 448524, Note_on_c, 0, 84, 0
2, 448560, Note_on_c, 0, 83, 127
2, 448644, Note_on_c, 0, 83, 0
2, 448680, Note_on_c, 0, 81, 127
2, 448764, Note_on_c, 0, 81, 0
2, 448800, Note_on_c, 0, 83, 127
2, 448884, Note_on_c, 0, 83, 0
2, 448920, Note_on_c, 0, 81, 127
2, 449004, Note_on_c, 0, 81, 0
2, 449040, Note_on_c, 0, 79, 127
2, 449124, Note_on_c, 0, 79, 0
2, 449160, Note_on_c, 0, 78, 127
2, 449244, Note_on_c, 0, 78, 0
2, 449280, Note_on_c, 0, 79, 127
2, 449364, Note_on_c, 0, 79, 0
2, 449400, Note_on_c, 0, 81, 127
2, 449484, Note_on_c, 0, 81, 0
2, 449520, Note_on_c, 0, 79, 127
2, 449604, Note_on_c, 0, 79, 0
2, 449640, Note_on_c, 0, 81, 127
2, 449724, Note_on_c, 0, 81, 0
2, 449760, Note_on_c, 0, 77, 127
2, 449844, Note_on_c, 0, 77, 0
2, 449880, Note_on_c, 0, 79, 127
2, 449964, Note_on_c, 0, 79, 0
2, 450000, Note_on_c, 0, 77, 127
2, 450084, Note_on_c, 0, 77, 0
2, 450120, Note_on_c, 0, 79, 127
2, 450204, Note_on_c, 0, 79, 0
2, 450240, Note_on_c, 0, 76, 127
2, 450720, Note_on_c, 0, 76, 0
2, 451440, Note_on_c, 0, 79, 127
2, 451560, Note_on_c, 0, 79, 0
2, 451680, Note_on_c, 0, 79, 127
2, 451800, Note_on_c, 0, 79, 0
2, 451920, Note_on_c, 0, 79, 127
2, 452040, Note_on_c, 0, 79, 0
2, 452160, Note_on_c, 0, 79, 127
2, 453240, Note_on_c, 0, 79, 0
2, 453360, Note_on_c, 0, 84, 127
2, 453480, Note_on_c, 0, 84, 0
2, 453600, Note_on_c, 0, 84, 127
2, 453720, Note_on_c, 0, 84, 0
2, 453840, Note_on_c, 0, 84, 127
2, 453960, Note_on_c, 0, 84, 0
2, 454080, Note_on_c, 0, 84, 127
2, 455160, Note_on_c, 0, 84, 0
2, 455280, Note_on_c, 0, 86, 127
2, 455400, Note_on_c, 0, 86, 0
2, 455520, Note_on_c, 0, 86, 127
2, 455640, Note_on_c, 0, 86, 0
2, 455760, Note_on_c, 0, 86, 127
2, 455880, Note_on_c, 0, 86, 0
2, 456000, Note_on_c, 0, 88, 127
2, 456960, Note_on_c, 0, 88, 0
2, 456960, Note_on_c, 0, 89, 127
2, 457440, Note_on_c, 0, 89, 0
2, 457440, Note_on_c, 0, 83, 127
2, 457920, Note_on_c, 0, 83, 0
2, 457920, Note_on_c, 0, 84, 127
2, 459118, Note_on_c, 0, 84, 0
2, 459840, Note_on_c, 0, 88, 127
2, 461038, Note_on_c, 0, 88, 0
2, 461760, Note_on_c, 0, 89, 127
2, 462240, Note_on_c, 0, 89, 0
2, 462240, Note_on_c, 0, 80, 127
2, 462720, Note_on_c, 0, 80, 0
2, 462720, Note_on_c, 0, 84, 127
2, 464638, Note_on_c, 0, 84, 0
2, 464640, Note_on_c, 0, 89, 127
2, 465360, Note_on_c, 0, 89, 0
2, 465360, Note_on_c, 0, 87, 127
2, 465480, Note_on_c, 0, 87, 0
2, 465600, Note_on_c, 0, 89, 127
2, 465720, Note_on_c, 0, 89, 0
2, 465840, Note_on_c, 0, 87, 127
2, 465960, Note_on_c, 0, 87, 0
2, 466080, Note_on_c, 0, 89, 127
2, 466200, Note_on_c, 0, 89, 0
2, 466320, Note_on_c, 0, 89, 127
2, 466440, Note_on_c, 0, 89, 0
2, 466560, Note_on_c, 0, 90, 127
2, 467280, Note_on_c, 0, 90, 0
2, 467280, Note_on_c, 0, 89, 127
2, 467400, Note_on_c, 0, 89, 0
2, 467520, Note_on_c, 0, 90, 127
2, 467640, Note_on_c, 0, 90, 0
2, 467760, Note_on_c, 0, 89, 127
2, 467880, Note_on_c, 0, 89, 0
2, 468000, Note_on_c, 0, 90, 127
2, 468120, Note_on_c, 0, 90, 0
2, 468240, Note_on_c, 0, 90, 127
2, 468360, Note_on_c, 0, 90, 0
2, 468480, Note_on_c, 0, 91, 127
2, 468960, Note_on_c, 0, 91, 0
2, 468960, Note_on_c, 0, 88, 127
2, 469185, Note_on_c, 0, 88, 0
2, 469320, Note_on_c, 0, 88, 127
2, 469380, Note_on_c, 0, 88, 0
2, 469440, Note_on_c, 0, 86, 127
2, 469920, Note_on_c, 0, 86, 0
2, 469920, Note_on_c, 0, 86, 127
2, 470145, Note_on_c, 0, 86, 0
2, 470280, Note_on_c, 0, 86, 127
2, 470340, Note_on_c, 0, 86, 0
2, 470400, Note_on_c, 0, 84, 127
2, 470880, Note_on_c, 0, 84, 0
2, 471360, Note_on_c, 0, 86, 127
2, 471585, Note_on_c, 0, 86, 0
2, 471720, Note_on_c, 0, 86, 127
2, 471840, Note_on_c, 0, 86, 0
2, 471840, Note_on_c, 0, 86, 127
2, 472560, Note_on_c, 0, 86, 0
2, 472560, Note_on_c, 0, 83, 127
2, 473040, Note_on_c, 0, 83, 0
2, 473040, Note_on_c, 0, 79, 127
2, 473280, Note_on_c, 0, 79, 0
2, 473280, Note_on_c, 0, 88, 127
2, 473760, Note_on_c, 0, 88, 0
2, 474240, Note_on_c, 0, 89, 127
2, 474465, Note_on_c, 0, 89, 0
2, 474600, Note_on_c, 0, 89, 127
2, 474720, Note_on_c, 0, 89, 0
2, 474720, Note_on_c, 0, 89, 127
2, 475440, Note_on_c, 0, 89, 0
2, 475440, Note_on_c, 0, 86, 127
2, 475920, Note_on_c, 0, 86, 0
2, 475920, Note_on_c, 0, 83, 127
2, 476160, Note_on_c, 0, 83, 0
2, 476160, Note_on_c, 0, 91, 127
2, 476640, Note_on_c, 0, 91, 0
2, 477120, Note_on_c, 0, 81, 127
2, 477345, Note_on_c, 0, 81, 0
2, 477480, Note_on_c, 0, 81, 127
2, 477600, Note_on_c, 0, 81, 0
2, 477600, Note_on_c, 0, 81, 127
2, 478320, Note_on_c, 0, 81, 0
2, 478320, Note_on_c, 0, 83, 127
2, 478440, Note_on_c, 0, 83, 0
2, 478440, Note_on_c, 0, 84, 127
2, 478560, Note_on_c, 0, 84, 0
2, 478560, Note_on_c, 0, 86, 127
2, 478680, Note_on_c, 0, 86, 0
2, 478680, Note_on_c, 0, 84, 127
2, 478800, Note_on_c, 0, 84, 0
2, 478800, Note_on_c, 0, 86, 127
2, 478920, Note_on_c, 0, 86, 0
2, 478920, Note_on_c, 0, 88, 127
2, 479040, Note_on_c, 0, 88, 0
2, 479040, Note_on_c, 0, 89, 127
2, 479520, Note_on_c, 0, 89, 0
2, 479520, Note_on_c, 0, 86, 89
2, 480000, Note_on_c, 0, 86, 0
2, 480000, Note_on_c, 0, 84, 50
2, 482398, Note_on_c, 0, 84, 0
2, 482400, Note_on_c, 0, 83, 82
2, 482880, Note_on_c, 0, 83, 0
2, 482880, Note_on_c, 0, 88, 88
2, 484798, Note_on_c, 0, 88, 0
2, 484800, Note_on_c, 0, 86, 114
2, 485760, Note_on_c, 0, 86, 0
2, 485760, Note_on_c, 0, 84, 127
2, 486240, Note_on_c, 0, 84, 0
2, 489120, Note_on_c, 0, 84, 80
2, 489345, Note_on_c, 0, 84, 0
2, 489480, Note_on_c, 0, 84, 80
2, 489600, Note_on_c, 0, 84, 0
2, 489600, Note_on_c, 0, 84, 80
2, 490200, Note_on_c, 0, 84, 0
2, 490320, Note_on_c, 0, 83, 80
2, 490380, Note_on_c, 0, 83, 0
2, 490440, Note_on_c, 0, 81, 80
2, 490500, Note_on_c, 0, 81, 0
2, 490560, Note_on_c, 0, 79, 80
2, 490620, Note_on_c, 0, 79, 0
2, 490680, Note_on_c, 0, 81, 80
2, 490740, Note_on_c, 0, 81, 0
2, 490800, Note_on_c, 0, 79, 80
2, 490860, Note_on_c, 0, 79, 0
2, 490920, Note_on_c, 0, 77, 80
2, 490980, Note_on_c, 0, 77, 0
2, 491040, Note_on_c, 0, 76, 80
2, 491100, Note_on_c, 0, 76, 0
2, 491160, Note_on_c, 0, 77, 80
2, 491220, Note_on_c, 0, 77, 0
2, 491280, Note_on_c, 0, 76, 80
2, 491340, Note_on_c, 0, 76, 0
2, 491400, Note_on_c, 0, 74, 80
2, 491460, Note_on_c, 0, 74, 0
2, 491520, Note_on_c, 0, 72, 80
2, 492000, Note_on_c, 0, 72, 0
2, 492480, Note_on_c, 0, 84, 127
2, 492705, Note_on_c, 0, 84, 0
2, 492840, Note_on_c, 0, 84, 127
2, 492900, Note_on_c, 0, 84, 0
2, 492960, Note_on_c, 0, 84, 127
2, 493608, Note_on_c, 0, 84, 0
2, 493680, Note_on_c, 0, 84, 127
2, 493764, Note_on_c, 0, 84, 0
2, 493800, Note_on_c, 0, 86, 127
2, 493884, Note_on_c, 0, 86, 0
2, 493920, Note_on_c, 0, 88, 127
2, 494004, Note_on_c, 0, 88, 0
2, 494040, Note_on_c, 0, 86, 127
2, 494124, Note_on_c, 0, 86, 0
2, 494160, Note_on_c, 0, 88, 127
2, 494244, Note_on_c, 0, 88, 0
2, 494280, Note_on_c, 0, 89, 127
2, 494364, Note_on_c, 0, 89, 0
2, 494400, Note_on_c, 0, 91, 127
2, 494880, Note_on_c, 0, 91, 0
2, 497280, Note_on_c, 0, 82, 50
2, 498240, Note_on_c, 0, 82, 0
2, 498240, Note_on_c, 0, 81, 50
2, 499200, Note_on_c, 0, 81, 0
2, 499200, Note_on_c, 0, 86, 50
2, 500160, Note_on_c, 0, 86, 0
2, 500160, Note_on_c, 0, 88, 50
2, 501120, Note_on_c, 0, 88, 0
2, 501120, Note_on_c, 0, 80, 50
2, 502080, Note_on_c, 0, 80, 0
2, 502080, Note_on_c, 0, 79, 50
2, 503040, Note_on_c, 0, 79, 0
2, 510720, Note_on_c, 0, 67, 62
2, 511642, Note_on_c, 0, 67, 0
2, 511680, Note_on_c, 0, 69, 64
2, 512602, Note_on_c, 0, 69, 0
2, 512640, Note_on_c, 0, 72, 67
2, 513562, Note_on_c, 0, 72, 0
2, 513600, Note_on_c, 0, 71, 69
2, 514522, Note_on_c, 0, 71, 0
2, 514560, Note_on_c, 0, 72, 72
2, 515482, Note_on_c, 0, 72, 0
2, 515520, Note_on_c, 0, 74, 74
2, 516442, Note_on_c, 0, 74, 0
2, 516480, Note_on_c, 0, 77, 77
2, 517402, Note_on_c, 0, 77, 0
2, 517440, Note_on_c, 0, 76, 79
2, 518362, Note_on_c, 0, 76, 0
2, 518400, Note_on_c, 0, 79, 82
2, 519322, Note_on_c, 0, 79, 0
2, 519360, Note_on_c, 0, 81, 84
2, 520282, Note_on_c, 0, 81, 0
2, 520320, Note_on_c, 0, 84, 86
2, 521280, Note_on_c, 0, 84, 0
2, 521280, Note_on_c, 0, 83, 89
2, 522240, Note_on_c, 0, 83, 0
2, 522480, Note_on_c, 0, 72, 92
2, 522600, Note_on_c, 0, 72, 0
2, 522720, Note_on_c, 0, 74, 93
2, 522840, Note_on_c, 0, 74, 0
2, 522960, Note_on_c, 0, 76, 93
2, 523080, Note_on_c, 0, 76, 0
2, 523200, Note_on_c, 0, 79, 94
2, 523260, Note_on_c, 0, 79, 0
2, 523260, Note_on_c, 0, 77, 94
2, 523320, Note_on_c, 0, 77, 0
2, 523320, Note_on_c, 0, 79, 94
2, 523380, Note_on_c, 0, 79, 0
2, 523380, Note_on_c, 0, 77, 94
2, 523440, Note_on_c, 0, 77, 0
2, 523560, Note_on_c, 0, 79, 95
2, 523620, Note_on_c, 0, 79, 0
2, 523680, Note_on_c, 0, 81, 95
2, 524064, Note_on_c, 0, 81, 0
2, 524400, Note_on_c, 0, 67, 97
2, 524520, Note_on_c, 0, 67, 0
2, 524640, Note_on_c, 0, 69, 98
2, 524760, Note_on_c, 0, 69, 0
2, 524880, Note_on_c, 0, 71, 98
2, 525000, Note_on_c, 0, 71, 0
2, 525120, Note_on_c, 0, 77, 99
2, 525180, Note_on_c, 0, 77, 0
2, 525180, Note_on_c, 0, 76, 99
2, 525240, Note_on_c, 0, 76, 0
2, 525240, Note_on_c, 0, 77, 99
2, 525300, Note_on_c, 0, 77, 0
2, 525300, Note_on_c, 0, 76, 99
2, 525360, Note_on_c, 0, 76, 0
2, 525480, Note_on_c, 0, 77, 100
2, 525540, Note_on_c, 0, 77, 0
2, 525600, Note_on_c, 0, 79, 100
2, 525984, Note_on_c, 0, 79, 0
2, 527280, Note_on_c, 0, 88, 104
2, 527400, Note_on_c, 0, 88, 0
2, 527520, Note_on_c, 0, 81, 105
2, 527640, Note_on_c, 0, 81, 0
2, 527760, Note_on_c, 0, 84, 106
2, 527880, Note_on_c, 0, 84, 0
2, 528000, Note_on_c, 0, 74, 106
2, 528120, Note_on_c, 0, 74, 0
2, 528240, Note_on_c, 0, 78, 107
2, 528360, Note_on_c, 0, 78, 0
2, 528480, Note_on_c, 0, 79, 107
2, 528600, Note_on_c, 0, 79, 0
2, 528720, Note_on_c, 0, 81, 108
2, 528840, Note_on_c, 0, 81, 0
2, 528960, Note_on_c, 0, 84, 109
2, 529020, Note_on_c, 0, 84, 0
2, 529020, Note_on_c, 0, 83, 109
2, 529080, Note_on_c, 0, 83, 0
2, 529080, Note_on_c, 0, 84, 109
2, 529140, Note_on_c, 0, 84, 0
2, 529140, Note_on_c, 0, 83, 109
2, 529200, Note_on_c, 0, 83, 0
2, 529320, Note_on_c, 0, 84, 110
2, 529404, Note_on_c, 0, 84, 0
2, 529440, Note_on_c, 0, 86, 110
2, 529824, Note_on_c, 0, 86, 0
2, 530400, Note_on_c, 0, 84, 112
2, 530625, Note_on_c, 0, 84, 0
2, 530760, Note_on_c, 0, 84, 113
2, 530880, Note_on_c, 0, 84, 0
2, 530880, Note_on_c, 0, 84, 114
2, 531600, Note_on_c, 0, 84, 0
2, 531600, Note_on_c, 0, 83, 115
2, 531720, Note_on_c, 0, 83, 0
2, 531720, Note_on_c, 0, 81, 116
2, 531840, Note_on_c, 0, 81, 0
2, 531840, Note_on_c, 0, 79, 116
2, 531924, Note_on_c, 0, 79, 0
2, 531960, Note_on_c, 0, 81, 116
2, 532044, Note_on_c, 0, 81, 0
2, 532080, Note_on_c, 0, 79, 117
2, 532164, Note_on_c, 0, 79, 0
2, 532200, Note_on_c, 0, 77, 117
2, 532284, Note_on_c, 0, 77, 0
2, 532320, Note_on_c, 0, 76, 117
2, 532404, Note_on_c, 0, 76, 0
2, 532440, Note_on_c, 0, 77, 118
2, 532524, Note_on_c, 0, 77, 0
2, 532560, Note_on_c, 0, 76, 118
2, 532644, Note_on_c, 0, 76, 0
2, 532680, Note_on_c, 0, 74, 118
2, 532764, Note_on_c, 0, 74, 0
2, 532800, Note_on_c, 0, 72, 118
2, 533136, Note_on_c, 0, 72, 0
2, 533280, Note_on_c, 0, 84, 120
2, 533741, Note_on_c, 0, 84, 0
2, 533760, Note_on_c, 0, 86, 121
2, 534682, Note_on_c, 0, 86, 0
2, 534720, Note_on_c, 0, 89, 123
2, 535642, Note_on_c, 0, 89, 0
2, 535680, Note_on_c, 0, 88, 126
2, 535800, Note_on_c, 0, 88, 0
2, 535920, Note_on_c, 0, 81, 127
2, 536040, Note_on_c, 0, 81, 0
2, 536160, Note_on_c, 0, 81, 127
2, 536280, Note_on_c, 0, 81, 0
2, 536400, Note_on_c, 0, 81, 127
2, 536520, Note_on_c, 0, 81, 0
2, 536640, Note_on_c, 0, 81, 127
2, 537360, Note_on_c, 0, 81, 0
2, 537360, Note_on_c, 0, 79, 127
2, 537420, Note_on_c, 0, 79, 0
2, 537420, Note_on_c, 0, 77, 127
2, 537480, Note_on_c, 0, 77, 0
2, 537480, Note_on_c, 0, 76, 127
2, 537540, Note_on_c, 0, 76, 0
2, 537540, Note_on_c, 0, 74, 127
2, 537600, Note_on_c, 0, 74, 0
2, 537600, Note_on_c, 0, 72, 127
2, 537936, Note_on_c, 0, 72, 0
2, 538080, Note_on_c, 0, 74, 127
2, 538416, Note_on_c, 0, 74, 0
2, 538560, Note_on_c, 0, 76, 127
2, 538680, Note_on_c, 0, 76, 0
2, 538800, Note_on_c, 0, 81, 127
2, 538920, Note_on_c, 0, 81, 0
2, 539040, Note_on_c, 0, 81, 127
2, 539160, Note_on_c, 0, 81, 0
2, 539280, Note_on_c, 0, 81, 127
2, 539400, Note_on_c, 0, 81, 0
2, 539520, Note_on_c, 0, 81, 127
2, 540480, Note_on_c, 0, 81, 0
2, 540480, Note_on_c, 0, 79, 127
2, 540600, Note_on_c, 0, 79, 0
2, 540720, Note_on_c, 0, 84, 127
2, 540840, Note_on_c, 0, 84, 0
2, 540960, Note_on_c, 0, 86, 127
2, 541080, Note_on_c, 0, 86, 0
2, 541200, Note_on_c, 0, 83, 127
2, 541320, Note_on_c, 0, 83, 0
2, 541440, Note_on_c, 0, 84, 127
2, 541920, Note_on_c, 0, 84, 0
2, 547680, Note_on_c, 0, 88, 127
2, 547905, Note_on_c, 0, 88, 0
2, 548040, Note_on_c, 0, 88, 127
2, 548100, Note_on_c, 0, 88, 0
2, 548160, Note_on_c, 0, 88, 127
2, 548808, Note_on_c, 0, 88, 0
2, 548880, Note_on_c, 0, 86, 127
2, 548964, Note_on_c, 0, 86, 0
2, 549000, Note_on_c, 0, 84, 127
2, 549084, Note_on_c, 0, 84, 0
2, 549120, Note_on_c, 0, 83, 127
2, 549204, Note_on_c, 0, 83, 0
2, 549240, Note_on_c, 0, 84, 127
2, 549324, Note_on_c, 0, 84, 0
2, 549360, Note_on_c, 0, 83, 127
2, 549444, Note_on_c, 0, 83, 0
2, 549480, Note_on_c, 0, 81, 127
2, 549564, Note_on_c, 0, 81, 0
2, 549600, Note_on_c, 0, 79, 127
2, 549684, Note_on_c, 0, 79, 0
2, 549720, Note_on_c, 0, 81, 127
2, 549804, Note_on_c, 0, 81, 0
2, 549840, Note_on_c, 0, 79, 127
2, 549924, Note_on_c, 0, 79, 0
2, 549960, Note_on_c, 0, 77, 127
2, 550044, Note_on_c, 0, 77, 0
2, 550080, Note_on_c, 0, 76, 127
2, 550200, Note_on_c, 0, 76, 0
2, 550320, Note_on_c, 0, 89, 127
2, 550440, Note_on_c, 0, 89, 0
2, 550560, Note_on_c, 0, 88, 127
2, 550680, Note_on_c, 0, 88, 0
2, 550800, Note_on_c, 0, 89, 127
2, 550920, Note_on_c, 0, 89, 0
2, 551040, Note_on_c, 0, 88, 127
2, 551160, Note_on_c, 0, 88, 0
2, 551280, Note_on_c, 0, 89, 127
2, 551400, Note_on_c, 0, 89, 0
2, 551520, Note_on_c, 0, 88, 127
2, 551640, Note_on_c, 0, 88, 0
2, 551760, Note_on_c, 0, 89, 127
2, 551880, Note_on_c, 0, 89, 0
2, 552000, Note_on_c, 0, 88, 127
2, 552480, Note_on_c, 0, 88, 0
2, 552960, Note_on_c, 0, 84, 127
2, 553296, Note_on_c, 0, 84, 0
2, 553440, Note_on_c, 0, 88, 127
2, 553776, Note_on_c, 0, 88, 0
2, 553920, Note_on_c, 0, 84, 127
2, 554496, Note_on_c, 0, 84, 0
2, 554880, Note_on_c, 0, 84, 127
2, 555240, Note_on_c, 0, 84, 0
2, 555360, Note_on_c, 0, 88, 127
2, 555720, Note_on_c, 0, 88, 0
2, 555840, Note_on_c, 0, 84, 127
2, 556320, Note_on_c, 0, 84, 0
2, 556320, End_track
3, 0, Start_track
3, 0, Title_t, "Oboes"
3, 0, Program_c, 1, 68
3, 0, Control_c, 1, 7, 90
3, 0, Control_c, 1, 10, 40
3, 8160, Note_on_c, 1, 72, 100
3, 9120, Note_on_c, 1, 72, 0
3, 9120, Note_on_c, 1, 71, 100
3, 9600, Note_on_c, 1, 71, 0
3, 10080, Note_on_c, 1, 74, 100
3, 11040, Note_on_c, 1, 74, 0
3, 11040, Note_on_c, 1, 72, 100
3, 11520, Note_on_c, 1, 72, 0
3, 11760, Note_on_c, 1, 81, 127
3, 11760, Note_on_c, 1, 72, 127
3, 11880, Note_on_c, 1, 72, 0
3, 11880, Note_on_c, 1, 81, 0
3, 12000, Note_on_c, 1, 81, 127
3, 12000, Note_on_c, 1, 72, 127
3, 12120, Note_on_c, 1, 72, 0
3, 12120, Note_on_c, 1, 81, 0
3, 12240, Note_on_c, 1, 72, 127
3, 12240, Note_on_c, 1, 81, 127
3, 12360, Note_on_c, 1, 81, 0
3, 12360, Note_on_c, 1, 72, 0
3, 12480, Note_on_c, 1, 72, 127
3, 12480, Note_on_c, 1, 81, 127
3, 13200, Note_on_c, 1, 81, 0
3, 13200, Note_on_c, 1, 72, 0
3, 13200, Note_on_c, 1, 79, 127
3, 13200, Note_on_c, 1, 71, 127
3, 13260, Note_on_c, 1, 71, 0
3, 13260, Note_on_c, 1, 79, 0
3, 13260, Note_on_c, 1, 77, 127
3, 13260, Note_on_c, 1, 69, 127
3, 13320, Note_on_c, 1, 69, 0
3, 13320, Note_on_c, 1, 77, 0
3, 13320, Note_on_c, 1, 76, 127
3, 13320, Note_on_c, 1, 67, 127
3, 13380, Note_on_c, 1, 67, 0
3, 13380, Note_on_c, 1, 76, 0
3, 13380, Note_on_c, 1, 65, 127
3, 13380, Note_on_c, 1, 74, 127
3, 13440, Note_on_c, 1, 74, 0
3, 13440, Note_on_c, 1, 65, 0
3, 13440, Note_on_c, 1, 72, 127
3, 13440, Note_on_c, 1, 64, 127
3, 13776, Note_on_c, 1, 64, 0
3, 13776, Note_on_c, 1, 72, 0
3, 13920, Note_on_c, 1, 74, 127
3, 13920, Note_on_c, 1, 71, 127
3, 14256, Note_on_c, 1, 71, 0
3, 14256, Note_on_c, 1, 74, 0
3, 14400, Note_on_c, 1, 76, 127
3, 14400, Note_on_c, 1, 72, 127
3, 14520, Note_on_c, 1, 72, 0
3, 14520, Note_on_c, 1, 76, 0
3, 14640, Note_on_c, 1, 81, 127
3, 14640, Note_on_c, 1, 72, 127
3, 14760, Note_on_c, 1, 72, 0
3, 14760, Note_on_c, 1, 81, 0
3, 14880, Note_on_c, 1, 81, 127
3, 14880, Note_on_c, 1, 72, 127
3, 15000, Note_on_c, 1, 72, 0
3, 15000, Note_on_c, 1, 81, 0
3, 15120, Note_on_c, 1, 72, 127
3, 15120, Note_on_c, 1, 81, 127
3, 15240, Note_on_c, 1, 81, 0
3, 15240, Note_on_c, 1, 72, 0
3, 15360, Note_on_c, 1, 81, 127
3, 15360, Note_on_c, 1, 72, 127
3, 16224, Note_on_c, 1, 72, 0
3, 16224, Note_on_c, 1, 81, 0
3, 16320, Note_on_c, 1, 79, 127
3, 16320, Note_on_c, 1, 76, 127
3, 16440, Note_on_c, 1, 76, 0
3, 16440, Note_on_c, 1, 79, 0
3, 16560, Note_on_c, 1, 72, 127
3, 16560, Note_on_c, 1, 76, 127
3, 16680, Note_on_c, 1, 76, 0
3, 16680, Note_on_c, 1, 72, 0
3, 16800, Note_on_c, 1, 74, 127
3, 16800, Note_on_c, 1, 77, 127
3, 16920, Note_on_c, 1, 77, 0
3, 16920, Note_on_c, 1, 74, 0
3, 17040, Note_on_c, 1, 71, 127
3, 17040, Note_on_c, 1, 74, 127
3, 17160, Note_on_c, 1, 74, 0
3, 17160, Note_on_c, 1, 71, 0
3, 17280, Note_on_c, 1, 72, 127
3, 17520, Note_on_c, 1, 72, 0
3, 17760, Note_on_c, 1, 72, 127
3, 17985, Note_on_c, 1, 72, 0
3, 18120, Note_on_c, 1, 72, 127
3, 18240, Note_on_c, 1, 72, 0
3, 18240, Note_on_c, 1, 72, 127
3, 18960, Note_on_c, 1, 72, 0
3, 18960, Note_on_c, 1, 71, 127
3, 19080, Note_on_c, 1, 71, 0
3, 19080, Note_on_c, 1, 69, 127
3, 19200, Note_on_c, 1, 69, 0
3, 19200, Note_on_c, 1, 67, 127
3, 19284, Note_on_c, 1, 67, 0
3, 19320, Note_on_c, 1, 69, 127
3, 19404, Note_on_c, 1, 69, 0
3, 19440, Note_on_c, 1, 67, 127
3, 19524, Note_on_c, 1, 67, 0
3, 19560, Note_on_c, 1, 65, 127
3, 19644, Note_on_c, 1, 65, 0
3, 19680, Note_on_c, 1, 64, 127
3, 19764, Note_on_c, 1, 64, 0
3, 19800, Note_on_c, 1, 65, 127
3, 19884, Note_on_c, 1, 65, 0
3, 19920, Note_on_c, 1, 64, 127
3, 20004, Note_on_c, 1, 64, 0
3, 20040, Note_on_c, 1, 62, 127
3, 20124, Note_on_c, 1, 62, 0
3, 20160, Note_on_c, 1, 60, 127
3, 20496, Note_on_c, 1, 60, 0
3, 20640, Note_on_c, 1, 60, 127
3, 20760, Note_on_c, 1, 60, 0
3, 20880, Note_on_c, 1, 60, 127
3, 21000, Note_on_c, 1, 60, 0
3, 21120, Note_on_c, 1, 64, 127
3, 21600, Note_on_c, 1, 64, 0
3, 21600, Note_on_c, 1, 64, 127
3, 21720, Note_on_c, 1, 64, 0
3, 21840, Note_on_c, 1, 64, 127
3, 21960, Note_on_c, 1, 64, 0
3, 22080, Note_on_c, 1, 67, 127
3, 22560, Note_on_c, 1, 67, 0
3, 22560, Note_on_c, 1, 67, 127
3, 22680, Note_on_c, 1, 67, 0
3, 22800, Note_on_c, 1, 67, 127
3, 22920, Note_on_c, 1, 67, 0
3, 23040, Note_on_c, 1, 72, 127
3, 23160, Note_on_c, 1, 72, 0
3, 23280, Note_on_c, 1, 76, 127
3, 23400, Note_on_c, 1, 76, 0
3, 23520, Note_on_c, 1, 79, 127
3, 23520, Note_on_c, 1, 76, 127
3, 23760, Note_on_c, 1, 79, 0
3, 23760, Note_on_c, 1, 79, 127
3, 23880, Note_on_c, 1, 76, 0
3, 23880, Note_on_c, 1, 76, 127
3, 24000, Note_on_c, 1, 76, 0
3, 24000, Note_on_c, 1, 79, 0
3, 24000, Note_on_c, 1, 79, 127
3, 24000, Note_on_c, 1, 76, 127
3, 24648, Note_on_c, 1, 76, 0
3, 24720, Note_on_c, 1, 74, 127
3, 24804, Note_on_c, 1, 74, 0
3, 24804, Note_on_c, 1, 79, 0
3, 24840, Note_on_c, 1, 72, 127
3, 24924, Note_on_c, 1, 72, 0
3, 24960, Note_on_c, 1, 71, 127
3, 25044, Note_on_c, 1, 71, 0
3, 25080, Note_on_c, 1, 72, 127
3, 25164, Note_on_c, 1, 72, 0
3, 25200, Note_on_c, 1, 71, 127
3, 25284, Note_on_c, 1, 71, 0
3, 25320, Note_on_c, 1, 69, 127
3, 25404, Note_on_c, 1, 69, 0
3, 25440, Note_on_c, 1, 67, 127
3, 25608, Note_on_c, 1, 67, 0
3, 25680, Note_on_c, 1, 69, 127
3, 25764, Note_on_c, 1, 69, 0
3, 25800, Note_on_c, 1, 71, 127
3, 25884, Note_on_c, 1, 71, 0
3, 25920, Note_on_c, 1, 72, 127
3, 26040, Note_on_c, 1, 72, 0
3, 26160, Note_on_c, 1, 79, 127
3, 26160, Note_on_c, 1, 83, 127
3, 26280, Note_on_c, 1, 83, 0
3, 26280, Note_on_c, 1, 79, 0
3, 26400, Note_on_c, 1, 79, 127
3, 26400, Note_on_c, 1, 84, 127
3, 26520, Note_on_c, 1, 84, 0
3, 26520, Note_on_c, 1, 79, 0
3, 26640, Note_on_c, 1, 83, 127
3, 26640, Note_on_c, 1, 79, 127
3, 26760, Note_on_c, 1, 79, 0
3, 26760, Note_on_c, 1, 83, 0
3, 26880, Note_on_c, 1, 84, 127
3, 26880, Note_on_c, 1, 79, 127
3, 27000, Note_on_c, 1, 79, 0
3, 27000, Note_on_c, 1, 84, 0
3, 27120, Note_on_c, 1, 79, 127
3, 27120, Note_on_c, 1, 83, 127
3, 27240, Note_on_c, 1, 83, 0
3, 27240, Note_on_c, 1, 79, 0
3, 27360, Note_on_c, 1, 79, 127
3, 27360, Note_on_c, 1, 84, 127
3, 27480, Note_on_c, 1, 84, 0
3, 27480, Note_on_c, 1, 79, 0
3, 27600, Note_on_c, 1, 83, 127
3, 27600, Note_on_c, 1, 79, 127
3, 27720, Note_on_c, 1, 79, 0
3, 27720, Note_on_c, 1, 83, 0
3, 27840, Note_on_c, 1, 79, 127
3, 27840, Note_on_c, 1, 84, 127
3, 27924, Note_on_c, 1, 84, 0
3, 27924, Note_on_c, 1, 79, 0
3, 27960, Note_on_c, 1, 83, 127
3, 28044, Note_on_c, 1, 83, 0
3, 28080, Note_on_c, 1, 81, 127
3, 28164, Note_on_c, 1, 81, 0
3, 28200, Note_on_c, 1, 79, 127
3, 28284, Note_on_c, 1, 79, 0
3, 28320, Note_on_c, 1, 84, 127
3, 28404, Note_on_c, 1, 84, 0
3, 28440, Note_on_c, 1, 83, 127
3, 28524, Note_on_c, 1, 83, 0
3, 28560, Note_on_c, 1, 81, 127
3, 28644, Note_on_c, 1, 81, 0
3, 28680, Note_on_c, 1, 79, 127
3, 28764, Note_on_c, 1, 79, 0
3, 28800, Note_on_c, 1, 84, 127
3, 28884, Note_on_c, 1, 84, 0
3, 28920, Note_on_c, 1, 83, 127
3, 29004, Note_on_c, 1, 83, 0
3, 29040, Note_on_c, 1, 81, 127
3, 29124, Note_on_c, 1, 81, 0
3, 29160, Note_on_c, 1, 79, 127
3, 29244, Note_on_c, 1, 79, 0
3, 29280, Note_on_c, 1, 77, 127
3, 29364, Note_on_c, 1, 77, 0
3, 29400, Note_on_c, 1, 76, 127
3, 29484, Note_on_c, 1, 76, 0
3, 29520, Note_on_c, 1, 74, 127
3, 29604, Note_on_c, 1, 74, 0
3, 29640, Note_on_c, 1, 72, 127
3, 29724, Note_on_c, 1, 72, 0
3, 29760, Note_on_c, 1, 79, 127
3, 29880, Note_on_c, 1, 79, 0
3, 30000, Note_on_c, 1, 74, 127
3, 30000, Note_on_c, 1, 71, 127
3, 30120, Note_on_c, 1, 71, 0
3, 30120, Note_on_c, 1, 74, 0
3, 30240, Note_on_c, 1, 72, 127
3, 30240, Note_on_c, 1, 76, 127
3, 30360, Note_on_c, 1, 76, 0
3, 30360, Note_on_c, 1, 72, 0
3, 30480, Note_on_c, 1, 76, 127
3, 30480, Note_on_c, 1, 72, 127
3, 30600, Note_on_c, 1, 72, 0
3, 30600, Note_on_c, 1, 76, 0
3, 30720, Note_on_c, 1, 74, 127
3, 30720, Note_on_c, 1, 71, 127
3, 30840, Note_on_c, 1, 71, 0
3, 30840, Note_on_c, 1, 74, 0
3, 30960, Note_on_c, 1, 74, 127
3, 30960, Note_on_c, 1, 71, 127
3, 31080, Note_on_c, 1, 71, 0
3, 31080, Note_on_c, 1, 74, 0
3, 31200, Note_on_c, 1, 72, 127
3, 31200, Note_on_c, 1, 76, 127
3, 31320, Note_on_c, 1, 76, 0
3, 31320, Note_on_c, 1, 72, 0
3, 31440, Note_on_c, 1, 76, 127
3, 31440, Note_on_c, 1, 72, 127
3, 31560, Note_on_c, 1, 72, 0
3, 31560, Note_on_c, 1, 76, 0
3, 31680, Note_on_c, 1, 74, 127
3, 31680, Note_on_c, 1, 71, 127
3, 31800, Note_on_c, 1, 71, 0
3, 31800, Note_on_c, 1, 74, 0
3, 31920, Note_on_c, 1, 74, 127
3, 31920, Note_on_c, 1, 71, 127
3, 32040, Note_on_c, 1, 71, 0
3, 32040, Note_on_c, 1, 74, 0
3, 32160, Note_on_c, 1, 76, 127
3, 32160, Note_on_c, 1, 72, 127
3, 32280, Note_on_c, 1, 72, 0
3, 32280, Note_on_c, 1, 76, 0
3, 32400, Note_on_c, 1, 72, 127
3, 32400, Note_on_c, 1, 76, 127
3, 32520, Note_on_c, 1, 76, 0
3, 32520, Note_on_c, 1, 72, 0
3, 32640, Note_on_c, 1, 74, 127
3, 32640, Note_on_c, 1, 71, 127
3, 33120, Note_on_c, 1, 71, 0
3, 33120, Note_on_c, 1, 74, 0
3, 49920, Note_on_c, 1, 72, 100
3, 50784, Note_on_c, 1, 72, 0
3, 50880, Note_on_c, 1, 74, 100
3, 51744, Note_on_c, 1, 74, 0
3, 51840, Note_on_c, 1, 77, 100
3, 52704, Note_on_c, 1, 77, 0
3, 52800, Note_on_c, 1, 76, 100
3, 53280, Note_on_c, 1, 79, 100
3, 53760, Note_on_c, 1, 79, 0
3, 53760, Note_on_c, 1, 76, 0
3, 53760, Note_on_c, 1, 81, 100
3, 53760, Note_on_c, 1, 78, 100
3, 55678, Note_on_c, 1, 78, 0
3, 55678, Note_on_c, 1, 81, 0
3, 55680, Note_on_c, 1, 79, 100
3, 55680, Note_on_c, 1, 76, 100
3, 57598, Note_on_c, 1, 76, 0
3, 57598, Note_on_c, 1, 79, 0
3, 57600, Note_on_c, 1, 78, 100
3, 57600, Note_on_c, 1, 74, 100
3, 58080, Note_on_c, 1, 78, 0
3, 58080, Note_on_c, 1, 81, 100
3, 59040, Note_on_c, 1, 81, 0
3, 59040, Note_on_c, 1, 79, 113
3, 59518, Note_on_c, 1, 74, 0
3, 59520, Note_on_c, 1, 71, 127
3, 60000, Note_on_c, 1, 71, 0
3, 60000, Note_on_c, 1, 79, 0
3, 60000, Note_on_c, 1, 79, 127
3, 60000, Note_on_c, 1, 81, 127
3, 60480, Note_on_c, 1, 81, 0
3, 60480, Note_on_c, 1, 79, 0
3, 60480, Note_on_c, 1, 78, 127
3, 60480, Note_on_c, 1, 81, 127
3, 60930, Note_on_c, 1, 81, 0
3, 60930, Note_on_c, 1, 78, 0
3, 61440, Note_on_c, 1, 74, 127
3, 61665, Note_on_c, 1, 74, 0
3, 61800, Note_on_c, 1, 74, 127
3, 61920, Note_on_c, 1, 74, 0
3, 61920, Note_on_c, 1, 74, 127
3, 62568, Note_on_c, 1, 74, 0
3, 62640, Note_on_c, 1, 73, 127
3, 62724, Note_on_c, 1, 73, 0
3, 62760, Note_on_c, 1, 71, 127
3, 62844, Note_on_c, 1, 71, 0
3, 62880, Note_on_c, 1, 69, 127
3, 62964, Note_on_c, 1, 69, 0
3, 63000, Note_on_c, 1, 71, 127
3, 63084, Note_on_c, 1, 71, 0
3, 63120, Note_on_c, 1, 69, 127
3, 63204, Note_on_c, 1, 69, 0
3, 63240, Note_on_c, 1, 67, 127
3, 63324, Note_on_c, 1, 67, 0
3, 63360, Note_on_c, 1, 66, 127
3, 63444, Note_on_c, 1, 66, 0
3, 63480, Note_on_c, 1, 67, 127
3, 63564, Note_on_c, 1, 67, 0
3, 63600, Note_on_c, 1, 66, 127
3, 63684, Note_on_c, 1, 66, 0
3, 63720, Note_on_c, 1, 64, 127
3, 63804, Note_on_c, 1, 64, 0
3, 63840, Note_on_c, 1, 62, 127
3, 64080, Note_on_c, 1, 62, 0
3, 64320, Note_on_c, 1, 74, 127
3, 64545, Note_on_c, 1, 74, 0
3, 64680, Note_on_c, 1, 74, 127
3, 64800, Note_on_c, 1, 74, 0
3, 64800, Note_on_c, 1, 74, 127
3, 65448, Note_on_c, 1, 74, 0
3, 65520, Note_on_c, 1, 73, 127
3, 65604, Note_on_c, 1, 73, 0
3, 65640, Note_on_c, 1, 71, 127
3, 65724, Note_on_c, 1, 71, 0
3, 65760, Note_on_c, 1, 69, 127
3, 65844, Note_on_c, 1, 69, 0
3, 65880, Note_on_c, 1, 71, 127
3, 65964, Note_on_c, 1, 71, 0
3, 66000, Note_on_c, 1, 69, 127
3, 66084, Note_on_c, 1, 69, 0
3, 66120, Note_on_c, 1, 67, 127
3, 66204, Note_on_c, 1, 67, 0
3, 66240, Note_on_c, 1, 66, 127
3, 66360, Note_on_c, 1, 66, 0
3, 66480, Note_on_c, 1, 74, 127
3, 66480, Note_on_c, 1, 78, 127
3, 66600, Note_on_c, 1, 78, 0
3, 66600, Note_on_c, 1, 74, 0
3, 66720, Note_on_c, 1, 78, 127
3, 66720, Note_on_c, 1, 74, 127
3, 66840, Note_on_c, 1, 74, 0
3, 66840, Note_on_c, 1, 78, 0
3, 66960, Note_on_c, 1, 74, 127
3, 66960, Note_on_c, 1, 78, 127
3, 67080, Note_on_c, 1, 78, 0
3, 67080, Note_on_c, 1, 74, 0
3, 67200, Note_on_c, 1, 78, 127
3, 67200, Note_on_c, 1, 74, 127
3, 67320, Note_on_c, 1, 74, 0
3, 67320, Note_on_c, 1, 78, 0
3, 67440, Note_on_c, 1, 78, 127
3, 67440, Note_on_c, 1, 74, 127
3, 67560, Note_on_c, 1, 74, 0
3, 67560, Note_on_c, 1, 78, 0
3, 67680, Note_on_c, 1, 74, 127
3, 67680, Note_on_c, 1, 78, 127
3, 67800, Note_on_c, 1, 78, 0
3, 67800, Note_on_c, 1, 74, 0
3, 67920, Note_on_c, 1, 78, 127
3, 67920, Note_on_c, 1, 74, 127
3, 68040, Note_on_c, 1, 74, 0
3, 68040, Note_on_c, 1, 78, 0
3, 68160, Note_on_c, 1, 81, 127
3, 68160, Note_on_c, 1, 74, 127
3, 68280, Note_on_c, 1, 74, 0
3, 68280, Note_on_c, 1, 81, 0
3, 68400, Note_on_c, 1, 72, 127
3, 68400, Note_on_c, 1, 78, 127
3, 68520, Note_on_c, 1, 78, 0
3, 68520, Note_on_c, 1, 72, 0
3, 68640, Note_on_c, 1, 78, 127
3, 68640, Note_on_c, 1, 72, 127
3, 68760, Note_on_c, 1, 72, 0
3, 68760, Note_on_c, 1, 78, 0
3, 68880, Note_on_c, 1, 72, 127
3, 68880, Note_on_c, 1, 78, 127
3, 69000, Note_on_c, 1, 78, 0
3, 69000, Note_on_c, 1, 72, 0
3, 69120, Note_on_c, 1, 72, 127
3, 69120, Note_on_c, 1, 78, 127
3, 69600, Note_on_c, 1, 78, 0
3, 69600, Note_on_c, 1, 72, 0
3, 72240, Note_on_c, 1, 76, 50
3, 72336, Note_on_c, 1, 76, 0
3, 72480, Note_on_c, 1, 69, 50
3, 72576, Note_on_c, 1, 69, 0
3, 72720, Note_on_c, 1, 72, 50
3, 72816, Note_on_c, 1, 72, 0
3, 72960, Note_on_c, 1, 62, 50
3, 73200, Note_on_c, 1, 62, 0
3, 78000, Note_on_c, 1, 76, 50
3, 78096, Note_on_c, 1, 76, 0
3, 78240, Note_on_c, 1, 69, 50
3, 78336, Note_on_c, 1, 69, 0
3, 78480, Note_on_c, 1, 72, 50
3, 78576, Note_on_c, 1, 72, 0
3, 78720, Note_on_c, 1, 62, 50
3, 78960, Note_on_c, 1, 62, 0
3, 89760, Note_on_c, 1, 71, 127
3, 90096, Note_on_c, 1, 71, 0
3, 90240, Note_on_c, 1, 67, 127
3, 90576, Note_on_c, 1, 67, 0
3, 90720, Note_on_c, 1, 64, 127
3, 90720, Note_on_c, 1, 72, 127
3, 91056, Note_on_c, 1, 72, 0
3, 91056, Note_on_c, 1, 64, 0
3, 91200, Note_on_c, 1, 60, 127
3, 91536, Note_on_c, 1, 60, 0
3, 91680, Note_on_c, 1, 74, 127
3, 91680, Note_on_c, 1, 66, 127
3, 92016, Note_on_c, 1, 66, 0
3, 92016, Note_on_c, 1, 74, 0
3, 92160, Note_on_c, 1, 71, 127
3, 92496, Note_on_c, 1, 71, 0
3, 92640, Note_on_c, 1, 67, 127
3, 92640, Note_on_c, 1, 76, 127
3, 92976, Note_on_c, 1, 76, 0
3, 92976, Note_on_c, 1, 67, 0
3, 93120, Note_on_c, 1, 64, 127
3, 93456, Note_on_c, 1, 64, 0
3, 93600, Note_on_c, 1, 69, 127
3, 93936, Note_on_c, 1, 69, 0
3, 94560, Note_on_c, 1, 71, 127
3, 94560, Note_on_c, 1, 83, 127
3, 94896, Note_on_c, 1, 83, 0
3, 94896, Note_on_c, 1, 71, 0
3, 95040, Note_on_c, 1, 79, 127
3, 95040, Note_on_c, 1, 67, 127
3, 95376, Note_on_c, 1, 67, 0
3, 95376, Note_on_c, 1, 79, 0
3, 95520, Note_on_c, 1, 72, 127
3, 95520, Note_on_c, 1, 84, 127
3, 95856, Note_on_c, 1, 84, 0
3, 95856, Note_on_c, 1, 72, 0
3, 96480, Note_on_c, 1, 74, 127
3, 96480, Note_on_c, 1, 78, 127
3, 97440, Note_on_c, 1, 78, 0
3, 97440, Note_on_c, 1, 74, 0
3, 97440, Note_on_c, 1, 74, 127
3, 97440, Note_on_c, 1, 79, 127
3, 97776, Note_on_c, 1, 79, 0
3, 97776, Note_on_c, 1, 74, 0
3, 98400, Note_on_c, 1, 67, 127
3, 98400, Note_on_c, 1, 79, 127
3, 98736, Note_on_c, 1, 79, 0
3, 98736, Note_on_c, 1, 67, 0
3, 98880, Note_on_c, 1, 64, 127
3, 98880, Note_on_c, 1, 76, 127
3, 99216, Note_on_c, 1, 76, 0
3, 99216, Note_on_c, 1, 64, 0
3, 99360, Note_on_c, 1, 69, 127
3, 99360, Note_on_c, 1, 81, 127
3, 99696, Note_on_c, 1, 81, 0
3, 99696, Note_on_c, 1, 69, 0
3, 100320, Note_on_c, 1, 71, 127
3, 100320, Note_on_c, 1, 75, 127
3, 101280, Note_on_c, 1, 75, 0
3, 101280, Note_on_c, 1, 71, 0
3, 101280, Note_on_c, 1, 71, 127
3, 101280, Note_on_c, 1, 76, 127
3, 101616, Note_on_c, 1, 76, 0
3, 101616, Note_on_c, 1, 71, 0
3, 102240, Note_on_c, 1, 64, 127
3, 102240, Note_on_c, 1, 76, 127
3, 102576, Note_on_c, 1, 76, 0
3, 102576, Note_on_c, 1, 64, 0
3, 102720, Note_on_c, 1, 60, 127
3, 102720, Note_on_c, 1, 72, 127
3, 103056, Note_on_c, 1, 72, 0
3, 103056, Note_on_c, 1, 60, 0
3, 103200, Note_on_c, 1, 77, 127
3, 103200, Note_on_c, 1, 65, 127
3, 103764, Note_on_c, 1, 65, 0
3, 103764, Note_on_c, 1, 77, 0
3, 103800, Note_on_c, 1, 76, 127
3, 103884, Note_on_c, 1, 76, 0
3, 103920, Note_on_c, 1, 74, 127
3, 104004, Note_on_c, 1, 74, 0
3, 104040, Note_on_c, 1, 72, 127
3, 104124, Note_on_c, 1, 72, 0
3, 104160, Note_on_c, 1, 74, 127
3, 104244, Note_on_c, 1, 74, 0
3, 104280, Note_on_c, 1, 72, 127
3, 104364, Note_on_c, 1, 72, 0
3, 104400, Note_on_c, 1, 71, 127
3, 104484, Note_on_c, 1, 71, 0
3, 104520, Note_on_c, 1, 69, 127
3, 104604, Note_on_c, 1, 69, 0
3, 104640, Note_on_c, 1, 67, 127
3, 105120, Note_on_c, 1, 67, 0
3, 105600, Note_on_c, 1, 72, 127
3, 105600, Note_on_c, 1, 76, 127
3, 106080, Note_on_c, 1, 76, 0
3, 106080, Note_on_c, 1, 72, 0
3, 106560, Note_on_c, 1, 79, 127
3, 106560, Note_on_c, 1, 76, 127
3, 107040, Note_on_c, 1, 76, 0
3, 107040, Note_on_c, 1, 79, 0
3, 107520, Note_on_c, 1, 84, 127
3, 107520, Note_on_c, 1, 81, 127
3, 108000, Note_on_c, 1, 81, 0
3, 108000, Note_on_c, 1, 84, 0
3, 108480, Note_on_c, 1, 74, 127
3, 108564, Note_on_c, 1, 74, 0
3, 108600, Note_on_c, 1, 76, 127
3, 108684, Note_on_c, 1, 76, 0
3, 108720, Note_on_c, 1, 74, 127
3, 108804, Note_on_c, 1, 74, 0
3, 108840, Note_on_c, 1, 76, 127
3, 108924, Note_on_c, 1, 76, 0
3, 108960, Note_on_c, 1, 72, 127
3, 109044, Note_on_c, 1, 72, 0
3, 109080, Note_on_c, 1, 74, 127
3, 109164, Note_on_c, 1, 74, 0
3, 109200, Note_on_c, 1, 72, 127
3, 109284, Note_on_c, 1, 72, 0
3, 109320, Note_on_c, 1, 74, 127
3, 109404, Note_on_c, 1, 74, 0
3, 109440, Note_on_c, 1, 71, 127
3, 109920, Note_on_c, 1, 71, 0
3, 110640, Note_on_c, 1, 71, 127
3, 110640, Note_on_c, 1, 79, 127
3, 110760, Note_on_c, 1, 79, 0
3, 110760, Note_on_c, 1, 71, 0
3, 110880, Note_on_c, 1, 79, 127
3, 110880, Note_on_c, 1, 71, 127
3, 111000, Note_on_c, 1, 71, 0
3, 111000, Note_on_c, 1, 79, 0
3, 111120, Note_on_c, 1, 71, 127
3, 111120, Note_on_c, 1, 79, 127
3, 111240, Note_on_c, 1, 79, 0
3, 111240, Note_on_c, 1, 71, 0
3, 111360, Note_on_c, 1, 79, 127
3, 111360, Note_on_c, 1, 71, 127
3, 112440, Note_on_c, 1, 71, 0
3, 112440, Note_on_c, 1, 79, 0
3, 112560, Note_on_c, 1, 71, 127
3, 112560, Note_on_c, 1, 79, 127
3, 112680, Note_on_c, 1, 79, 0
3, 112680, Note_on_c, 1, 71, 0
3, 112800, Note_on_c, 1, 79, 127
3, 112800, Note_on_c, 1, 71, 127
3, 112920, Note_on_c, 1, 71, 0
3, 112920, Note_on_c, 1, 79, 0
3, 113040, Note_on_c, 1, 71, 127
3, 113040, Note_on_c, 1, 79, 127
3, 113160, Note_on_c, 1, 79, 0
3, 113160, Note_on_c, 1, 71, 0
3, 113280, Note_on_c, 1, 79, 127
3, 113280, Note_on_c, 1, 74, 127
3, 114360, Note_on_c, 1, 74, 0
3, 114360, Note_on_c, 1, 79, 0
3, 114480, Note_on_c, 1, 74, 127
3, 114480, Note_on_c, 1, 79, 127
3, 114600, Note_on_c, 1, 79, 0
3, 114600, Note_on_c, 1, 74, 0
3, 114720, Note_on_c, 1, 79, 127
3, 114720, Note_on_c, 1, 74, 127
3, 114840, Note_on_c, 1, 74, 0
3, 114840, Note_on_c, 1, 79, 0
3, 114960, Note_on_c, 1, 74, 127
3, 114960, Note_on_c, 1, 79, 127
3, 115080, Note_on_c, 1, 79, 0
3, 115080, Note_on_c, 1, 74, 0
3, 115200, Note_on_c, 1, 81, 127
3, 115200, Note_on_c, 1, 76, 127
3, 115680, Note_on_c, 1, 76, 0
3, 115680, Note_on_c, 1, 81, 0
3, 116160, Note_on_c, 1, 78, 127
3, 116160, Note_on_c, 1, 72, 127
3, 117024, Note_on_c, 1, 72, 0
3, 117024, Note_on_c, 1, 78, 0
3, 117120, Note_on_c, 1, 79, 127
3, 117120, Note_on_c, 1, 71, 127
3, 118200, Note_on_c, 1, 71, 0
3, 118200, Note_on_c, 1, 79, 0
3, 118320, Note_on_c, 1, 71, 127
3, 118320, Note_on_c, 1, 79, 127
3, 118440, Note_on_c, 1, 79, 0
3, 118440, Note_on_c, 1, 71, 0
3, 118560, Note_on_c, 1, 71, 127
3, 118560, Note_on_c, 1, 79, 127
3, 118680, Note_on_c, 1, 79, 0
3, 118680, Note_on_c, 1, 71, 0
3, 118800, Note_on_c, 1, 71, 127
3, 118800, Note_on_c, 1, 79, 127
3, 118920, Note_on_c, 1, 79, 0
3, 118920, Note_on_c, 1, 71, 0
3, 119040, Note_on_c, 1, 79, 127
3, 119040, Note_on_c, 1, 71, 127
3, 120120, Note_on_c, 1, 71, 0
3, 120120, Note_on_c, 1, 79, 0
3, 120240, Note_on_c, 1, 71, 127
3, 120240, Note_on_c, 1, 79, 127
3, 120360, Note_on_c, 1, 79, 0
3, 120360, Note_on_c, 1, 71, 0
3, 120480, Note_on_c, 1, 71, 127
3, 120480, Note_on_c, 1, 79, 127
3, 120600, Note_on_c, 1, 79, 0
3, 120600, Note_on_c, 1, 71, 0
3, 120720, Note_on_c, 1, 71, 127
3, 120720, Note_on_c, 1, 79, 127
3, 120840, Note_on_c, 1, 79, 0
3, 120840, Note_on_c, 1, 71, 0
3, 120960, Note_on_c, 1, 72, 127
3, 121440, Note_on_c, 1, 72, 0
3, 121440, Note_on_c, 1, 63, 127
3, 121440, Note_on_c, 1, 75, 127
3, 121920, Note_on_c, 1, 75, 0
3, 121920, Note_on_c, 1, 63, 0
3, 121920, Note_on_c, 1, 67, 127
3, 121920, Note_on_c, 1, 79, 127
3, 126238, Note_on_c, 1, 79, 0
3, 126238, Note_on_c, 1, 67, 0
3, 126240, Note_on_c, 1, 74, 127
3, 126240, Note_on_c, 1, 81, 127
3, 126720, Note_on_c, 1, 74, 0
3, 126720, Note_on_c, 1, 74, 127
3, 126960, Note_on_c, 1, 74, 0
3, 126960, Note_on_c, 1, 71, 127
3, 127200, Note_on_c, 1, 81, 0
3, 127200, Note_on_c, 1, 79, 127
3, 127440, Note_on_c, 1, 71, 0
3, 127440, Note_on_c, 1, 67, 127
3, 127680, Note_on_c, 1, 67, 0
3, 127680, Note_on_c, 1, 76, 127
3, 128160, Note_on_c, 1, 76, 0
3, 128160, Note_on_c, 1, 79, 0
3, 128160, Note_on_c, 1, 74, 127
3, 128160, Note_on_c, 1, 78, 127
3, 128400, Note_on_c, 1, 74, 0
3, 128400, Note_on_c, 1, 72, 127
3, 128640, Note_on_c, 1, 72, 0
3, 128640, Note_on_c, 1, 78, 0
3, 128640, Note_on_c, 1, 71, 127
3, 128640, Note_on_c, 1, 79, 127
3, 129120, Note_on_c, 1, 79, 0
3, 129120, Note_on_c, 1, 71, 0
3, 129600, Note_on_c, 1, 69, 127
3, 129825, Note_on_c, 1, 69, 0
3, 129960, Note_on_c, 1, 69, 127
3, 130080, Note_on_c, 1, 69, 0
3, 130080, Note_on_c, 1, 69, 127
3, 130798, Note_on_c, 1, 69, 0
3, 130800, Note_on_c, 1, 66, 127
3, 131250, Note_on_c, 1, 66, 0
3, 131280, Note_on_c, 1, 62, 127
3, 131520, Note_on_c, 1, 62, 0
3, 131520, Note_on_c, 1, 71, 127
3, 132000, Note_on_c, 1, 71, 0
3, 132480, Note_on_c, 1, 72, 127
3, 132705, Note_on_c, 1, 72, 0
3, 132840, Note_on_c, 1, 72, 127
3, 132960, Note_on_c, 1, 72, 0
3, 132960, Note_on_c, 1, 72, 127
3, 133678, Note_on_c, 1, 72, 0
3, 133680, Note_on_c, 1, 69, 127
3, 134130, Note_on_c, 1, 69, 0
3, 134160, Note_on_c, 1, 66, 127
3, 134400, Note_on_c, 1, 66, 0
3, 134400, Note_on_c, 1, 74, 127
3, 134880, Note_on_c, 1, 74, 0
3, 135360, Note_on_c, 1, 76, 127
3, 135585, Note_on_c, 1, 76, 0
3, 135720, Note_on_c, 1, 76, 127
3, 135840, Note_on_c, 1, 76, 0
3, 135840, Note_on_c, 1, 76, 127
3, 136404, Note_on_c, 1, 76, 0
3, 136440, Note_on_c, 1, 74, 127
3, 136524, Note_on_c, 1, 74, 0
3, 136560, Note_on_c, 1, 72, 127
3, 136644, Note_on_c, 1, 72, 0
3, 136680, Note_on_c, 1, 71, 127
3, 136764, Note_on_c, 1, 71, 0
3, 136800, Note_on_c, 1, 69, 127
3, 136884, Note_on_c, 1, 69, 0
3, 136920, Note_on_c, 1, 67, 127
3, 137004, Note_on_c, 1, 67, 0
3, 137040, Note_on_c, 1, 69, 127
3, 137124, Note_on_c, 1, 69, 0
3, 137160, Note_on_c, 1, 71, 127
3, 137244, Note_on_c, 1, 71, 0
3, 137280, Note_on_c, 1, 72, 127
3, 137760, Note_on_c, 1, 72, 0
3, 137760, Note_on_c, 1, 81, 127
3, 137760, Note_on_c, 1, 74, 127
3, 138240, Note_on_c, 1, 74, 0
3, 138240, Note_on_c, 1, 81, 0
3, 138240, Note_on_c, 1, 79, 127
3, 138240, Note_on_c, 1, 71, 127
3, 140158, Note_on_c, 1, 71, 0
3, 140160, Note_on_c, 1, 69, 127
3, 140638, Note_on_c, 1, 79, 0
3, 140640, Note_on_c, 1, 78, 127
3, 141120, Note_on_c, 1, 78, 0
3, 141120, Note_on_c, 1, 69, 0
3, 141120, Note_on_c, 1, 79, 127
3, 141120, Note_on_c, 1, 83, 127
3, 143038, Note_on_c, 1, 83, 0
3, 143040, Note_on_c, 1, 81, 127
3, 143518, Note_on_c, 1, 79, 0
3, 143520, Note_on_c, 1, 78, 127
3, 144000, Note_on_c, 1, 78, 0
3, 144000, Note_on_c, 1, 81, 0
3, 144000, Note_on_c, 1, 79, 127
3, 144480, Note_on_c, 1, 79, 0
3, 144480, Note_on_c, 1, 79, 50
3, 144705, Note_on_c, 1, 79, 0
3, 144840, Note_on_c, 1, 79, 50
3, 144960, Note_on_c, 1, 79, 0
3, 144960, Note_on_c, 1, 79, 50
3, 145608, Note_on_c, 1, 79, 0
3, 145680, Note_on_c, 1, 78, 50
3, 145764, Note_on_c, 1, 78, 0
3, 145800, Note_on_c, 1, 76, 50
3, 145884, Note_on_c, 1, 76, 0
3, 145920, Note_on_c, 1, 74, 50
3, 146004, Note_on_c, 1, 74, 0
3, 146040, Note_on_c, 1, 76, 50
3, 146124, Note_on_c, 1, 76, 0
3, 146160, Note_on_c, 1, 74, 50
3, 146244, Note_on_c, 1, 74, 0
3, 146280, Note_on_c, 1, 72, 50
3, 146364, Note_on_c, 1, 72, 0
3, 146400, Note_on_c, 1, 71, 50
3, 146484, Note_on_c, 1, 71, 0
3, 146520, Note_on_c, 1, 72, 50
3, 146604, Note_on_c, 1, 72, 0
3, 146640, Note_on_c, 1, 71, 50
3, 146724, Note_on_c, 1, 71, 0
3, 146760, Note_on_c, 1, 69, 50
3, 146844, Note_on_c, 1, 69, 0
3, 146880, Note_on_c, 1, 67, 50
3, 147360, Note_on_c, 1, 67, 0
3, 158880, Note_on_c, 1, 72, 103
3, 159840, Note_on_c, 1, 72, 0
3, 159840, Note_on_c, 1, 71, 110
3, 160320, Note_on_c, 1, 71, 0
3, 160800, Note_on_c, 1, 74, 116
3, 161760, Note_on_c, 1, 74, 0
3, 161760, Note_on_c, 1, 72, 123
3, 162240, Note_on_c, 1, 72, 0
3, 162480, Note_on_c, 1, 81, 127
3, 162480, Note_on_c, 1, 72, 127
3, 162600, Note_on_c, 1, 72, 0
3, 162600, Note_on_c, 1, 81, 0
3, 162720, Note_on_c, 1, 81, 127
3, 162720, Note_on_c, 1, 72, 127
3, 162840, Note_on_c, 1, 72, 0
3, 162840, Note_on_c, 1, 81, 0
3, 162960, Note_on_c, 1, 72, 127
3, 162960, Note_on_c, 1, 81, 127
3, 163080, Note_on_c, 1, 81, 0
3, 163080, Note_on_c, 1, 72, 0
3, 163200, Note_on_c, 1, 72, 127
3, 163200, Note_on_c, 1, 81, 127
3, 163920, Note_on_c, 1, 81, 0
3, 163920, Note_on_c, 1, 72, 0
3, 163920, Note_on_c, 1, 79, 127
3, 163920, Note_on_c, 1, 71, 127
3, 163980, Note_on_c, 1, 71, 0
3, 163980, Note_on_c, 1, 79, 0
3, 163980, Note_on_c, 1, 77, 127
3, 163980, Note_on_c, 1, 69, 127
3, 164040, Note_on_c, 1, 69, 0
3, 164040, Note_on_c, 1, 77, 0
3, 164040, Note_on_c, 1, 76, 127
3, 164040, Note_on_c, 1, 67, 127
3, 164100, Note_on_c, 1, 67, 0
3, 164100, Note_on_c, 1, 76, 0
3, 164100, Note_on_c, 1, 65, 127
3, 164100, Note_on_c, 1, 74, 127
3, 164160, Note_on_c, 1, 74, 0
3, 164160, Note_on_c, 1, 65, 0
3, 164160, Note_on_c, 1, 72, 127
3, 164160, Note_on_c, 1, 64, 127
3, 164496, Note_on_c, 1, 64, 0
3, 164496, Note_on_c, 1, 72, 0
3, 164640, Note_on_c, 1, 74, 127
3, 164640, Note_on_c, 1, 71, 127
3, 164976, Note_on_c, 1, 71, 0
3, 164976, Note_on_c, 1, 74, 0
3, 165120, Note_on_c, 1, 76, 127
3, 165120, Note_on_c, 1, 72, 127
3, 165240, Note_on_c, 1, 72, 0
3, 165240, Note_on_c, 1, 76, 0
3, 165360, Note_on_c, 1, 81, 127
3, 165360, Note_on_c, 1, 72, 127
3, 165480, Note_on_c, 1, 72, 0
3, 165480, Note_on_c, 1, 81, 0
3, 165600, Note_on_c, 1, 81, 127
3, 165600, Note_on_c, 1, 72, 127
3, 165720, Note_on_c, 1, 72, 0
3, 165720, Note_on_c, 1, 81, 0
3, 165840, Note_on_c, 1, 72, 127
3, 165840, Note_on_c, 1, 81, 127
3, 165960, Note_on_c, 1, 81, 0
3, 165960, Note_on_c, 1, 72, 0
3, 166080, Note_on_c, 1, 81, 127
3, 166080, Note_on_c, 1, 72, 127
3, 166944, Note_on_c, 1, 72, 0
3, 166944, Note_on_c, 1, 81, 0
3, 167040, Note_on_c, 1, 79, 127
3, 167040, Note_on_c, 1, 76, 127
3, 167160, Note_on_c, 1, 76, 0
3, 167160, Note_on_c, 1, 79, 0
3, 167280, Note_on_c, 1, 72, 127
3, 167280, Note_on_c, 1, 76, 127
3, 167400, Note_on_c, 1, 76, 0
3, 167400, Note_on_c, 1, 72, 0
3, 167520, Note_on_c, 1, 74, 127
3, 167520, Note_on_c, 1, 77, 127
3, 167640, Note_on_c, 1, 77, 0
3, 167640, Note_on_c, 1, 74, 0
3, 167760, Note_on_c, 1, 71, 127
3, 167760, Note_on_c, 1, 74, 127
3, 167880, Note_on_c, 1, 74, 0
3, 167880, Note_on_c, 1, 71, 0
3, 168000, Note_on_c, 1, 72, 127
3, 168240, Note_on_c, 1, 72, 0
3, 168480, Note_on_c, 1, 72, 127
3, 168705, Note_on_c, 1, 72, 0
3, 168840, Note_on_c, 1, 72, 127
3, 168960, Note_on_c, 1, 72, 0
3, 168960, Note_on_c, 1, 72, 127
3, 169680, Note_on_c, 1, 72, 0
3, 169680, Note_on_c, 1, 71, 127
3, 169800, Note_on_c, 1, 71, 0
3, 169800, Note_on_c, 1, 69, 127
3, 169920, Note_on_c, 1, 69, 0
3, 169920, Note_on_c, 1, 67, 127
3, 170004, Note_on_c, 1, 67, 0
3, 170040, Note_on_c, 1, 69, 127
3, 170124, Note_on_c, 1, 69, 0
3, 170160, Note_on_c, 1, 67, 127
3, 170244, Note_on_c, 1, 67, 0
3, 170280, Note_on_c, 1, 65, 127
3, 170364, Note_on_c, 1, 65, 0
3, 170400, Note_on_c, 1, 64, 127
3, 170484, Note_on_c, 1, 64, 0
3, 170520, Note_on_c, 1, 65, 127
3, 170604, Note_on_c, 1, 65, 0
3, 170640, Note_on_c, 1, 64, 127
3, 170724, Note_on_c, 1, 64, 0
3, 170760, Note_on_c, 1, 62, 127
3, 170844, Note_on_c, 1, 62, 0
3, 170880, Note_on_c, 1, 60, 127
3, 171216, Note_on_c, 1, 60, 0
3, 171360, Note_on_c, 1, 60, 127
3, 171480, Note_on_c, 1, 60, 0
3, 171600, Note_on_c, 1, 60, 127
3, 171720, Note_on_c, 1, 60, 0
3, 171840, Note_on_c, 1, 64, 127
3, 172320, Note_on_c, 1, 64, 0
3, 172320, Note_on_c, 1, 64, 127
3, 172440, Note_on_c, 1, 64, 0
3, 172560, Note_on_c, 1, 64, 127
3, 172680, Note_on_c, 1, 64, 0
3, 172800, Note_on_c, 1, 67, 127
3, 173280, Note_on_c, 1, 67, 0
3, 173280, Note_on_c, 1, 67, 127
3, 173400, Note_on_c, 1, 67, 0
3, 173520, Note_on_c, 1, 67, 127
3, 173640, Note_on_c, 1, 67, 0
3, 173760, Note_on_c, 1, 72, 127
3, 173880, Note_on_c, 1, 72, 0
3, 174000, Note_on_c, 1, 76, 127
3, 174120, Note_on_c, 1, 76, 0
3, 174240, Note_on_c, 1, 79, 127
3, 174240, Note_on_c, 1, 76, 127
3, 174480, Note_on_c, 1, 79, 0
3, 174480, Note_on_c, 1, 79, 127
3, 174600, Note_on_c, 1, 76, 0
3, 174600, Note_on_c, 1, 76, 127
3, 174720, Note_on_c, 1, 76, 0
3, 174720, Note_on_c, 1, 79, 0
3, 174720, Note_on_c, 1, 79, 127
3, 174720, Note_on_c, 1, 76, 127
3, 175368, Note_on_c, 1, 76, 0
3, 175440, Note_on_c, 1, 74, 127
3, 175524, Note_on_c, 1, 74, 0
3, 175524, Note_on_c, 1, 79, 0
3, 175560, Note_on_c, 1, 72, 127
3, 175644, Note_on_c, 1, 72, 0
3, 175680, Note_on_c, 1, 71, 127
3, 175764, Note_on_c, 1, 71, 0
3, 175800, Note_on_c, 1, 72, 127
3, 175884, Note_on_c, 1, 72, 0
3, 175920, Note_on_c, 1, 71, 127
3, 176004, Note_on_c, 1, 71, 0
3, 176040, Note_on_c, 1, 69, 127
3, 176124, Note_on_c, 1, 69, 0
3, 176160, Note_on_c, 1, 67, 127
3, 176328, Note_on_c, 1, 67, 0
3, 176400, Note_on_c, 1, 69, 127
3, 176484, Note_on_c, 1, 69, 0
3, 176520, Note_on_c, 1, 71, 127
3, 176604, Note_on_c, 1, 71, 0
3, 176640, Note_on_c, 1, 72, 127
3, 176760, Note_on_c, 1, 72, 0
3, 176880, Note_on_c, 1, 79, 127
3, 176880, Note_on_c, 1, 83, 127
3, 177000, Note_on_c, 1, 83, 0
3, 177000, Note_on_c, 1, 79, 0
3, 177120, Note_on_c, 1, 79, 127
3, 177120, Note_on_c, 1, 84, 127
3, 177240, Note_on_c, 1, 84, 0
3, 177240, Note_on_c, 1, 79, 0
3, 177360, Note_on_c, 1, 83, 127
3, 177360, Note_on_c, 1, 79, 127
3, 177480, Note_on_c, 1, 79, 0
3, 177480, Note_on_c, 1, 83, 0
3, 177600, Note_on_c, 1, 84, 127
3, 177600, Note_on_c, 1, 79, 127
3, 177720, Note_on_c, 1, 79, 0
3, 177720, Note_on_c, 1, 84, 0
3, 177840, Note_on_c, 1, 79, 127
3, 177840, Note_on_c, 1, 83, 127
3, 177960, Note_on_c, 1, 83, 0
3, 177960, Note_on_c, 1, 79, 0
3, 178080, Note_on_c, 1, 79, 127
3, 178080, Note_on_c, 1, 84, 127
3, 178200, Note_on_c, 1, 84, 0
3, 178200, Note_on_c, 1, 79, 0
3, 178320, Note_on_c, 1, 83, 127
3, 178320, Note_on_c, 1, 79, 127
3, 178440, Note_on_c, 1, 79, 0
3, 178440, Note_on_c, 1, 83, 0
3, 178560, Note_on_c, 1, 79, 127
3, 178560, Note_on_c, 1, 84, 127
3, 178644, Note_on_c, 1, 84, 0
3, 178644, Note_on_c, 1, 79, 0
3, 178680, Note_on_c, 1, 83, 127
3, 178764, Note_on_c, 1, 83, 0
3, 178800, Note_on_c, 1, 81, 127
3, 178884, Note_on_c, 1, 81, 0
3, 178920, Note_on_c, 1, 79, 127
3, 179004, Note_on_c, 1, 79, 0
3, 179040, Note_on_c, 1, 84, 127
3, 179124, Note_on_c, 1, 84, 0
3, 179160, Note_on_c, 1, 83, 127
3, 179244, Note_on_c, 1, 83, 0
3, 179280, Note_on_c, 1, 81, 127
3, 179364, Note_on_c, 1, 81, 0
3, 179400, Note_on_c, 1, 79, 127
3, 179484, Note_on_c, 1, 79, 0
3, 179520, Note_on_c, 1, 84, 127
3, 179604, Note_on_c, 1, 84, 0
3, 179640, Note_on_c, 1, 83, 127
3, 179724, Note_on_c, 1, 83, 0
3, 179760, Note_on_c, 1, 81, 127
3, 179844, Note_on_c, 1, 81, 0
3, 179880, Note_on_c, 1, 79, 127
3, 179964, Note_on_c, 1, 79, 0
3, 180000, Note_on_c, 1, 77, 127
3, 180084, Note_on_c, 1, 77, 0
3, 180120, Note_on_c, 1, 76, 127
3, 180204, Note_on_c, 1, 76, 0
3, 180240, Note_on_c, 1, 74, 127
3, 180324, Note_on_c, 1, 74, 0
3, 180360, Note_on_c, 1, 72, 127
3, 180444, Note_on_c, 1, 72, 0
3, 180480, Note_on_c, 1, 79, 127
3, 180600, Note_on_c, 1, 79, 0
3, 180720, Note_on_c, 1, 74, 127
3, 180720, Note_on_c, 1, 71, 127
3, 180840, Note_on_c, 1, 71, 0
3, 180840, Note_on_c, 1, 74, 0
3, 180960, Note_on_c, 1, 72, 127
3, 180960, Note_on_c, 1, 76, 127
3, 181080, Note_on_c, 1, 76, 0
3, 181080, Note_on_c, 1, 72, 0
3, 181200, Note_on_c, 1, 76, 127
3, 181200, Note_on_c, 1, 72, 127
3, 181320, Note_on_c, 1, 72, 0
3, 181320, Note_on_c, 1, 76, 0
3, 181440, Note_on_c, 1, 74, 127
3, 181440, Note_on_c, 1, 71, 127
3, 181560, Note_on_c, 1, 71, 0
3, 181560, Note_on_c, 1, 74, 0
3, 181680, Note_on_c, 1, 74, 127
3, 181680, Note_on_c, 1, 71, 127
3, 181800, Note_on_c, 1, 71, 0
3, 181800, Note_on_c, 1, 74, 0
3, 181920, Note_on_c, 1, 72, 127
3, 181920, Note_on_c, 1, 76, 127
3, 182040, Note_on_c, 1, 76, 0
3, 182040, Note_on_c, 1, 72, 0
3, 182160, Note_on_c, 1, 76, 127
3, 182160, Note_on_c, 1, 72, 127
3, 182280, Note_on_c, 1, 72, 0
3, 182280, Note_on_c, 1, 76, 0
3, 182400, Note_on_c, 1, 74, 127
3, 182400, Note_on_c, 1, 71, 127
3, 182520, Note_on_c, 1, 71, 0
3, 182520, Note_on_c, 1, 74, 0
3, 182640, Note_on_c, 1, 74, 127
3, 182640, Note_on_c, 1, 71, 127
3, 182760, Note_on_c, 1, 71, 0
3, 182760, Note_on_c, 1, 74, 0
3, 182880, Note_on_c, 1, 76, 127
3, 182880, Note_on_c, 1, 72, 127
3, 183000, Note_on_c, 1, 72, 0
3, 183000, Note_on_c, 1, 76, 0
3, 183120, Note_on_c, 1, 72, 127
3, 183120, Note_on_c, 1, 76, 127
3, 183240, Note_on_c, 1, 76, 0
3, 183240, Note_on_c, 1, 72, 0
3, 183360, Note_on_c, 1, 74, 127
3, 183360, Note_on_c, 1, 71, 127
3, 183840, Note_on_c, 1, 71, 0
3, 183840, Note_on_c, 1, 74, 0
3, 200640, Note_on_c, 1, 72, 127
3, 201504, Note_on_c, 1, 72, 0
3, 201600, Note_on_c, 1, 74, 127
3, 202464, Note_on_c, 1, 74, 0
3, 202560, Note_on_c, 1, 77, 127
3, 203424, Note_on_c, 1, 77, 0
3, 203520, Note_on_c, 1, 76, 127
3, 204000, Note_on_c, 1, 79, 127
3, 204480, Note_on_c, 1, 79, 0
3, 204480, Note_on_c, 1, 76, 0
3, 204480, Note_on_c, 1, 81, 127
3, 204480, Note_on_c, 1, 78, 127
3, 206398, Note_on_c, 1, 78, 0
3, 206398, Note_on_c, 1, 81, 0
3, 206400, Note_on_c, 1, 79, 127
3, 206400, Note_on_c, 1, 76, 127
3, 208318, Note_on_c, 1, 76, 0
3, 208318, Note_on_c, 1, 79, 0
3, 208320, Note_on_c, 1, 78, 127
3, 208320, Note_on_c, 1, 74, 127
3, 208800, Note_on_c, 1, 78, 0
3, 208800, Note_on_c, 1, 81, 127
3, 209760, Note_on_c, 1, 81, 0
3, 209760, Note_on_c, 1, 79, 127
3, 210238, Note_on_c, 1, 74, 0
3, 210240, Note_on_c, 1, 71, 127
3, 210720, Note_on_c, 1, 71, 0
3, 210720, Note_on_c, 1, 79, 0
3, 210720, Note_on_c, 1, 79, 127
3, 210720, Note_on_c, 1, 81, 127
3, 211200, Note_on_c, 1, 81, 0
3, 211200, Note_on_c, 1, 79, 0
3, 211200, Note_on_c, 1, 78, 127
3, 211200, Note_on_c, 1, 81, 127
3, 211650, Note_on_c, 1, 81, 0
3, 211650, Note_on_c, 1, 78, 0
3, 212160, Note_on_c, 1, 74, 127
3, 212385, Note_on_c, 1, 74, 0
3, 212520, Note_on_c, 1, 74, 127
3, 212640, Note_on_c, 1, 74, 0
3, 212640, Note_on_c, 1, 74, 127
3, 213288, Note_on_c, 1, 74, 0
3, 213360, Note_on_c, 1, 73, 127
3, 213444, Note_on_c, 1, 73, 0
3, 213480, Note_on_c, 1, 71, 127
3, 213564, Note_on_c, 1, 71, 0
3, 213600, Note_on_c, 1, 69, 127
3, 213684, Note_on_c, 1, 69, 0
3, 213720, Note_on_c, 1, 71, 127
3, 213804, Note_on_c, 1, 71, 0
3, 213840, Note_on_c, 1, 69, 127
3, 213924, Note_on_c, 1, 69, 0
3, 213960, Note_on_c, 1, 67, 127
3, 214044, Note_on_c, 1, 67, 0
3, 214080, Note_on_c, 1, 66, 127
3, 214164, Note_on_c, 1, 66, 0
3, 214200, Note_on_c, 1, 67, 127
3, 214284, Note_on_c, 1, 67, 0
3, 214320, Note_on_c, 1, 66, 127
3, 214404, Note_on_c, 1, 66, 0
3, 214440, Note_on_c, 1, 64, 127
3, 214524, Note_on_c, 1, 64, 0
3, 214560, Note_on_c, 1, 62, 127
3, 214800, Note_on_c, 1, 62, 0
3, 215040, Note_on_c, 1, 74, 127
3, 215265, Note_on_c, 1, 74, 0
3, 215400, Note_on_c, 1, 74, 127
3, 215520, Note_on_c, 1, 74, 0
3, 215520, Note_on_c, 1, 74, 127
3, 216168, Note_on_c, 1, 74, 0
3, 216240, Note_on_c, 1, 73, 127
3, 216324, Note_on_c, 1, 73, 0
3, 216360, Note_on_c, 1, 71, 127
3, 216444, Note_on_c, 1, 71, 0
3, 216480, Note_on_c, 1, 69, 127
3, 216564, Note_on_c, 1, 69, 0
3, 216600, Note_on_c, 1, 71, 127
3, 216684, Note_on_c, 1, 71, 0
3, 216720, Note_on_c, 1, 69, 127
3, 216804, Note_on_c, 1, 69, 0
3, 216840, Note_on_c, 1, 67, 127
3, 216924, Note_on_c, 1, 67, 0
3, 216960, Note_on_c, 1, 66, 127
3, 217080, Note_on_c, 1, 66, 0
3, 217200, Note_on_c, 1, 74, 127
3, 217200, Note_on_c, 1, 78, 127
3, 217320, Note_on_c, 1, 78, 0
3, 217320, Note_on_c, 1, 74, 0
3, 217440, Note_on_c, 1, 78, 127
3, 217440, Note_on_c, 1, 74, 127
3, 217560, Note_on_c, 1, 74, 0
3, 217560, Note_on_c, 1, 78, 0
3, 217680, Note_on_c, 1, 74, 127
3, 217680, Note_on_c, 1, 78, 127
3, 217800, Note_on_c, 1, 78, 0
3, 217800, Note_on_c, 1, 74, 0
3, 217920, Note_on_c, 1, 78, 127
3, 217920, Note_on_c, 1, 74, 127
3, 218040, Note_on_c, 1, 74, 0
3, 218040, Note_on_c, 1, 78, 0
3, 218160, Note_on_c, 1, 78, 127
3, 218160, Note_on_c, 1, 74, 127
3, 218280, Note_on_c, 1, 74, 0
3, 218280, Note_on_c, 1, 78, 0
3, 218400, Note_on_c, 1, 74, 127
3, 218400, Note_on_c, 1, 78, 127
3, 218520, Note_on_c, 1, 78, 0
3, 218520, Note_on_c, 1, 74, 0
3, 218640, Note_on_c, 1, 78, 127
3, 218640, Note_on_c, 1, 74, 127
3, 218760, Note_on_c, 1, 74, 0
3, 218760, Note_on_c, 1, 78, 0
3, 218880, Note_on_c, 1, 81, 127
3, 218880, Note_on_c, 1, 74, 127
3, 219000, Note_on_c, 1, 74, 0
3, 219000, Note_on_c, 1, 81, 0
3, 219120, Note_on_c, 1, 72, 127
3, 219120, Note_on_c, 1, 78, 127
3, 219240, Note_on_c, 1, 78, 0
3, 219240, Note_on_c, 1, 72, 0
3, 219360, Note_on_c, 1, 78, 127
3, 219360, Note_on_c, 1, 72, 127
3, 219480, Note_on_c, 1, 72, 0
3, 219480, Note_on_c, 1, 78, 0
3, 219600, Note_on_c, 1, 72, 127
3, 219600, Note_on_c, 1, 78, 127
3, 219720, Note_on_c, 1, 78, 0
3, 219720, Note_on_c, 1, 72, 0
3, 219840, Note_on_c, 1, 72, 127
3, 219840, Note_on_c, 1, 78, 127
3, 220320, Note_on_c, 1, 78, 0
3, 220320, Note_on_c, 1, 72, 0
3, 222960, Note_on_c, 1, 76, 50
3, 223056, Note_on_c, 1, 76, 0
3, 223200, Note_on_c, 1, 69, 50
3, 223296, Note_on_c, 1, 69, 0
3, 223440, Note_on_c, 1, 72, 50
3, 223536, Note_on_c, 1, 72, 0
3, 223680, Note_on_c, 1, 62, 50
3, 223920, Note_on_c, 1, 62, 0
3, 228720, Note_on_c, 1, 76, 50
3, 228816, Note_on_c, 1, 76, 0
3, 228960, Note_on_c, 1, 69, 50
3, 229056, Note_on_c, 1, 69, 0
3, 229200, Note_on_c, 1, 72, 50
3, 229296, Note_on_c, 1, 72, 0
3, 229440, Note_on_c, 1, 62, 50
3, 229680, Note_on_c, 1, 62, 0
3, 240480, Note_on_c, 1, 71, 100
3, 240816, Note_on_c, 1, 71, 0
3, 240960, Note_on_c, 1, 67, 100
3, 241296, Note_on_c, 1, 67, 0
3, 241440, Note_on_c, 1, 64, 100
3, 241440, Note_on_c, 1, 72, 100
3, 241776, Note_on_c, 1, 72, 0
3, 241776, Note_on_c, 1, 64, 0
3, 241920, Note_on_c, 1, 60, 100
3, 242256, Note_on_c, 1, 60, 0
3, 242400, Note_on_c, 1, 74, 100
3, 242400, Note_on_c, 1, 66, 100
3, 242736, Note_on_c, 1, 66, 0
3, 242736, Note_on_c, 1, 74, 0
3, 242880, Note_on_c, 1, 71, 100
3, 243216, Note_on_c, 1, 71, 0
3, 243360, Note_on_c, 1, 67, 100
3, 243360, Note_on_c, 1, 76, 100
3, 243696, Note_on_c, 1, 76, 0
3, 243696, Note_on_c, 1, 67, 0
3, 243840, Note_on_c, 1, 64, 100
3, 244176, Note_on_c, 1, 64, 0
3, 244320, Note_on_c, 1, 69, 100
3, 244656, Note_on_c, 1, 69, 0
3, 245280, Note_on_c, 1, 71, 100
3, 245280, Note_on_c, 1, 83, 100
3, 245616, Note_on_c, 1, 83, 0
3, 245616, Note_on_c, 1, 71, 0
3, 245760, Note_on_c, 1, 79, 100
3, 245760, Note_on_c, 1, 67, 100
3, 246096, Note_on_c, 1, 67, 0
3, 246096, Note_on_c, 1, 79, 0
3, 246240, Note_on_c, 1, 72, 100
3, 246240, Note_on_c, 1, 84, 100
3, 246576, Note_on_c, 1, 84, 0
3, 246576, Note_on_c, 1, 72, 0
3, 247200, Note_on_c, 1, 74, 100
3, 247200, Note_on_c, 1, 78, 100
3, 248160, Note_on_c, 1, 78, 0
3, 248160, Note_on_c, 1, 74, 0
3, 248160, Note_on_c, 1, 74, 100
3, 248160, Note_on_c, 1, 79, 100
3, 248496, Note_on_c, 1, 79, 0
3, 248496, Note_on_c, 1, 74, 0
3, 249120, Note_on_c, 1, 67, 100
3, 249120, Note_on_c, 1, 79, 100
3, 249456, Note_on_c, 1, 79, 0
3, 249456, Note_on_c, 1, 67, 0
3, 249600, Note_on_c, 1, 64, 100
3, 249600, Note_on_c, 1, 76, 100
3, 249936, Note_on_c, 1, 76, 0
3, 249936, Note_on_c, 1, 64, 0
3, 250080, Note_on_c, 1, 69, 100
3, 250080, Note_on_c, 1, 81, 100
3, 250416, Note_on_c, 1, 81, 0
3, 250416, Note_on_c, 1, 69, 0
3, 251040, Note_on_c, 1, 71, 100
3, 251040, Note_on_c, 1, 75, 100
3, 252000, Note_on_c, 1, 75, 0
3, 252000, Note_on_c, 1, 71, 0
3, 252000, Note_on_c, 1, 71, 100
3, 252000, Note_on_c, 1, 76, 100
3, 252336, Note_on_c, 1, 76, 0
3, 252336, Note_on_c, 1, 71, 0
3, 252960, Note_on_c, 1, 64, 100
3, 252960, Note_on_c, 1, 76, 100
3, 253296, Note_on_c, 1, 76, 0
3, 253296, Note_on_c, 1, 64, 0
3, 253440, Note_on_c, 1, 60, 100
3, 253440, Note_on_c, 1, 72, 100
3, 253776, Note_on_c, 1, 72, 0
3, 253776, Note_on_c, 1, 60, 0
3, 253920, Note_on_c, 1, 77, 100
3, 253920, Note_on_c, 1, 65, 100
3, 254484, Note_on_c, 1, 65, 0
3, 254484, Note_on_c, 1, 77, 0
3, 254520, Note_on_c, 1, 76, 100
3, 254604, Note_on_c, 1, 76, 0
3, 254640, Note_on_c, 1, 74, 100
3, 254724, Note_on_c, 1, 74, 0
3, 254760, Note_on_c, 1, 72, 100
3, 254844, Note_on_c, 1, 72, 0
3, 254880, Note_on_c, 1, 74, 100
3, 254964, Note_on_c, 1, 74, 0
3, 255000, Note_on_c, 1, 72, 100
3, 255084, Note_on_c, 1, 72, 0
3, 255120, Note_on_c, 1, 71, 100
3, 255204, Note_on_c, 1, 71, 0
3, 255240, Note_on_c, 1, 69, 100
3, 255324, Note_on_c, 1, 69, 0
3, 255360, Note_on_c, 1, 67, 100
3, 255840, Note_on_c, 1, 67, 0
3, 256320, Note_on_c, 1, 72, 100
3, 256320, Note_on_c, 1, 76, 100
3, 256800, Note_on_c, 1, 76, 0
3, 256800, Note_on_c, 1, 72, 0
3, 257280, Note_on_c, 1, 79, 100
3, 257280, Note_on_c, 1, 76, 100
3, 257760, Note_on_c, 1, 76, 0
3, 257760, Note_on_c, 1, 79, 0
3, 258240, Note_on_c, 1, 84, 100
3, 258240, Note_on_c, 1, 81, 100
3, 258720, Note_on_c, 1, 81, 0
3, 258720, Note_on_c, 1, 84, 0
3, 259200, Note_on_c, 1, 74, 100
3, 259284, Note_on_c, 1, 74, 0
3, 259320, Note_on_c, 1, 76, 100
3, 259404, Note_on_c, 1, 76, 0
3, 259440, Note_on_c, 1, 74, 100
3, 259524, Note_on_c, 1, 74, 0
3, 259560, Note_on_c, 1, 76, 100
3, 259644, Note_on_c, 1, 76, 0
3, 259680, Note_on_c, 1, 72, 100
3, 259764, Note_on_c, 1, 72, 0
3, 259800, Note_on_c, 1, 74, 100
3, 259884, Note_on_c, 1, 74, 0
3, 259920, Note_on_c, 1, 72, 100
3, 260004, Note_on_c, 1, 72, 0
3, 260040, Note_on_c, 1, 74, 100
3, 260124, Note_on_c, 1, 74, 0
3, 260160, Note_on_c, 1, 71, 100
3, 260640, Note_on_c, 1, 71, 0
3, 261360, Note_on_c, 1, 71, 100
3, 261360, Note_on_c, 1, 79, 100
3, 261480, Note_on_c, 1, 79, 0
3, 261480, Note_on_c, 1, 71, 0
3, 261600, Note_on_c, 1, 79, 100
3, 261600, Note_on_c, 1, 71, 100
3, 261720, Note_on_c, 1, 71, 0
3, 261720, Note_on_c, 1, 79, 0
3, 261840, Note_on_c, 1, 71, 100
3, 261840, Note_on_c, 1, 79, 100
3, 261960, Note_on_c, 1, 79, 0
3, 261960, Note_on_c, 1, 71, 0
3, 262080, Note_on_c, 1, 79, 100
3, 262080, Note_on_c, 1, 71, 100
3, 263160, Note_on_c, 1, 71, 0
3, 263160, Note_on_c, 1, 79, 0
3, 263280, Note_on_c, 1, 71, 100
3, 263280, Note_on_c, 1, 79, 100
3, 263400, Note_on_c, 1, 79, 0
3, 263400, Note_on_c, 1, 71, 0
3, 263520, Note_on_c, 1, 79, 100
3, 263520, Note_on_c, 1, 71, 100
3, 263640, Note_on_c, 1, 71, 0
3, 263640, Note_on_c, 1, 79, 0
3, 263760, Note_on_c, 1, 71, 100
3, 263760, Note_on_c, 1, 79, 100
3, 263880, Note_on_c, 1, 79, 0
3, 263880, Note_on_c, 1, 71, 0
3, 264000, Note_on_c, 1, 79, 100
3, 264000, Note_on_c, 1, 74, 100
3, 265080, Note_on_c, 1, 74, 0
3, 265080, Note_on_c, 1, 79, 0
3, 265200, Note_on_c, 1, 74, 100
3, 265200, Note_on_c, 1, 79, 100
3, 265320, Note_on_c, 1, 79, 0
3, 265320, Note_on_c, 1, 74, 0
3, 265440, Note_on_c, 1, 79, 100
3, 265440, Note_on_c, 1, 74, 100
3, 265560, Note_on_c, 1, 74, 0
3, 265560, Note_on_c, 1, 79, 0
3, 265680, Note_on_c, 1, 74, 100
3, 265680, Note_on_c, 1, 79, 100
3, 265800, Note_on_c, 1, 79, 0
3, 265800, Note_on_c, 1, 74, 0
3, 265920, Note_on_c, 1, 81, 100
3, 265920, Note_on_c, 1, 76, 100
3, 266400, Note_on_c, 1, 76, 0
3, 266400, Note_on_c, 1, 81, 0
3, 266880, Note_on_c, 1, 78, 100
3, 266880, Note_on_c, 1, 72, 100
3, 267744, Note_on_c, 1, 72, 0
3, 267744, Note_on_c, 1, 78, 0
3, 267840, Note_on_c, 1, 79, 100
3, 267840, Note_on_c, 1, 71, 100
3, 268920, Note_on_c, 1, 71, 0
3, 268920, Note_on_c, 1, 79, 0
3, 269040, Note_on_c, 1, 71, 100
3, 269040, Note_on_c, 1, 79, 100
3, 269160, Note_on_c, 1, 79, 0
3, 269160, Note_on_c, 1, 71, 0
3, 269280, Note_on_c, 1, 71, 100
3, 269280, Note_on_c, 1, 79, 100
3, 269400, Note_on_c, 1, 79, 0
3, 269400, Note_on_c, 1, 71, 0
3, 269520, Note_on_c, 1, 71, 100
3, 269520, Note_on_c, 1, 79, 100
3, 269640, Note_on_c, 1, 79, 0
3, 269640, Note_on_c, 1, 71, 0
3, 269760, Note_on_c, 1, 79, 100
3, 269760, Note_on_c, 1, 71, 100
3, 270840, Note_on_c, 1, 71, 0
3, 270840, Note_on_c, 1, 79, 0
3, 270960, Note_on_c, 1, 71, 100
3, 270960, Note_on_c, 1, 79, 100
3, 271080, Note_on_c, 1, 79, 0
3, 271080, Note_on_c, 1, 71, 0
3, 271200, Note_on_c, 1, 71, 100
3, 271200, Note_on_c, 1, 79, 100
3, 271320, Note_on_c, 1, 79, 0
3, 271320, Note_on_c, 1, 71, 0
3, 271440, Note_on_c, 1, 71, 100
3, 271440, Note_on_c, 1, 79, 100
3, 271560, Note_on_c, 1, 79, 0
3, 271560, Note_on_c, 1, 71, 0
3, 271680, Note_on_c, 1, 72, 100
3, 272160, Note_on_c, 1, 72, 0
3, 272160, Note_on_c, 1, 63, 100
3, 272160, Note_on_c, 1, 75, 100
3, 272640, Note_on_c, 1, 75, 0
3, 272640, Note_on_c, 1, 63, 0
3, 272640, Note_on_c, 1, 67, 100
3, 272640, Note_on_c, 1, 79, 100
3, 276958, Note_on_c, 1, 79, 0
3, 276958, Note_on_c, 1, 67, 0
3, 276960, Note_on_c, 1, 74, 100
3, 276960, Note_on_c, 1, 81, 100
3, 277440, Note_on_c, 1, 74, 0
3, 277440, Note_on_c, 1, 74, 100
3, 277680, Note_on_c, 1, 74, 0
3, 277680, Note_on_c, 1, 71, 100
3, 277920, Note_on_c, 1, 81, 0
3, 277920, Note_on_c, 1, 79, 100
3, 278160, Note_on_c, 1, 71, 0
3, 278160, Note_on_c, 1, 67, 100
3, 278400, Note_on_c, 1, 67, 0
3, 278400, Note_on_c, 1, 76, 100
3, 278880, Note_on_c, 1, 76, 0
3, 278880, Note_on_c, 1, 79, 0
3, 278880, Note_on_c, 1, 74, 100
3, 278880, Note_on_c, 1, 78, 100
3, 279120, Note_on_c, 1, 74, 0
3, 279120, Note_on_c, 1, 72, 100
3, 279360, Note_on_c, 1, 72, 0
3, 279360, Note_on_c, 1, 78, 0
3, 279360, Note_on_c, 1, 71, 100
3, 279360, Note_on_c, 1, 79, 100
3, 279840, Note_on_c, 1, 79, 0
3, 279840, Note_on_c, 1, 71, 0
3, 280320, Note_on_c, 1, 69, 100
3, 280545, Note_on_c, 1, 69, 0
3, 280680, Note_on_c, 1, 69, 100
3, 280800, Note_on_c, 1, 69, 0
3, 280800, Note_on_c, 1, 69, 100
3, 281518, Note_on_c, 1, 69, 0
3, 281520, Note_on_c, 1, 66, 100
3, 281970, Note_on_c, 1, 66, 0
3, 282000, Note_on_c, 1, 62, 100
3, 282240, Note_on_c, 1, 62, 0
3, 282240, Note_on_c, 1, 71, 100
3, 282720, Note_on_c, 1, 71, 0
3, 283200, Note_on_c, 1, 72, 100
3, 283425, Note_on_c, 1, 72, 0
3, 283560, Note_on_c, 1, 72, 100
3, 283680, Note_on_c, 1, 72, 0
3, 283680, Note_on_c, 1, 72, 100
3, 284398, Note_on_c, 1, 72, 0
3, 284400, Note_on_c, 1, 69, 100
3, 284850, Note_on_c, 1, 69, 0
3, 284880, Note_on_c, 1, 66, 100
3, 285120, Note_on_c, 1, 66, 0
3, 285120, Note_on_c, 1, 74, 100
3, 285600, Note_on_c, 1, 74, 0
3, 286080, Note_on_c, 1, 76, 100
3, 286305, Note_on_c, 1, 76, 0
3, 286440, Note_on_c, 1, 76, 100
3, 286560, Note_on_c, 1, 76, 0
3, 286560, Note_on_c, 1, 76, 100
3, 287124, Note_on_c, 1, 76, 0
3, 287160, Note_on_c, 1, 74, 100
3, 287244, Note_on_c, 1, 74, 0
3, 287280, Note_on_c, 1, 72, 100
3, 287364, Note_on_c, 1, 72, 0
3, 287400, Note_on_c, 1, 71, 100
3, 287484, Note_on_c, 1, 71, 0
3, 287520, Note_on_c, 1, 69, 100
3, 287604, Note_on_c, 1, 69, 0
3, 287640, Note_on_c, 1, 67, 100
3, 287724, Note_on_c, 1, 67, 0
3, 287760, Note_on_c, 1, 69, 100
3, 287844, Note_on_c, 1, 69, 0
3, 287880, Note_on_c, 1, 71, 100
3, 287964, Note_on_c, 1, 71, 0
3, 288000, Note_on_c, 1, 72, 100
3, 288480, Note_on_c, 1, 72, 0
3, 288480, Note_on_c, 1, 81, 100
3, 288480, Note_on_c, 1, 74, 100
3, 288960, Note_on_c, 1, 74, 0
3, 288960, Note_on_c, 1, 81, 0
3, 288960, Note_on_c, 1, 79, 100
3, 288960, Note_on_c, 1, 71, 100
3, 290878, Note_on_c, 1, 71, 0
3, 290880, Note_on_c, 1, 69, 100
3, 291358, Note_on_c, 1, 79, 0
3, 291360, Note_on_c, 1, 78, 100
3, 291840, Note_on_c, 1, 78, 0
3, 291840, Note_on_c, 1, 69, 0
3, 291840, Note_on_c, 1, 79, 100
3, 291840, Note_on_c, 1, 83, 100
3, 293758, Note_on_c, 1, 83, 0
3, 293760, Note_on_c, 1, 81, 100
3, 294238, Note_on_c, 1, 79, 0
3, 294240, Note_on_c, 1, 78, 100
3, 294720, Note_on_c, 1, 78, 0
3, 294720, Note_on_c, 1, 81, 0
3, 294720, Note_on_c, 1, 79, 100
3, 295200, Note_on_c, 1, 79, 0
3, 295200, Note_on_c, 1, 79, 50
3, 295425, Note_on_c, 1, 79, 0
3, 295560, Note_on_c, 1, 79, 50
3, 295680, Note_on_c, 1, 79, 0
3, 295680, Note_on_c, 1, 79, 50
3, 296328, Note_on_c, 1, 79, 0
3, 296400, Note_on_c, 1, 78, 50
3, 296484, Note_on_c, 1, 78, 0
3, 296520, Note_on_c, 1, 76, 50
3, 296604, Note_on_c, 1, 76, 0
3, 296640, Note_on_c, 1, 74, 50
3, 296724, Note_on_c, 1, 74, 0
3, 296760, Note_on_c, 1, 76, 50
3, 296844, Note_on_c, 1, 76, 0
3, 296880, Note_on_c, 1, 74, 50
3, 296964, Note_on_c, 1, 74, 0
3, 297000, Note_on_c, 1, 72, 50
3, 297084, Note_on_c, 1, 72, 0
3, 297120, Note_on_c, 1, 71, 50
3, 297204, Note_on_c, 1, 71, 0
3, 297240, Note_on_c, 1, 72, 50
3, 297324, Note_on_c, 1, 72, 0
3, 297360, Note_on_c, 1, 71, 50
3, 297444, Note_on_c, 1, 71, 0
3, 297480, Note_on_c, 1, 69, 50
3, 297564, Note_on_c, 1, 69, 0
3, 297600, Note_on_c, 1, 67, 50
3, 298080, Note_on_c, 1, 67, 0
3, 304800, Note_on_c, 1, 79, 50
3, 305025, Note_on_c, 1, 79, 0
3, 305160, Note_on_c, 1, 79, 50
3, 305280, Note_on_c, 1, 79, 0
3, 305280, Note_on_c, 1, 79, 50
3, 305928, Note_on_c, 1, 79, 0
3, 306000, Note_on_c, 1, 77, 50
3, 306084, Note_on_c, 1, 77, 0
3, 306120, Note_on_c, 1, 75, 50
3, 306204, Note_on_c, 1, 75, 0
3, 306240, Note_on_c, 1, 74, 50
3, 306324, Note_on_c, 1, 74, 0
3, 306360, Note_on_c, 1, 75, 50
3, 306444, Note_on_c, 1, 75, 0
3, 306480, Note_on_c, 1, 74, 50
3, 306564, Note_on_c, 1, 74, 0
3, 306600, Note_on_c, 1, 72, 50
3, 306684, Note_on_c, 1, 72, 0
3, 306720, Note_on_c, 1, 71, 50
3, 306804, Note_on_c, 1, 71, 0
3, 306840, Note_on_c, 1, 72, 50
3, 306924, Note_on_c, 1, 72, 0
3, 306960, Note_on_c, 1, 71, 50
3, 307044, Note_on_c, 1, 71, 0
3, 307080, Note_on_c, 1, 69, 50
3, 307164, Note_on_c, 1, 69, 0
3, 307200, Note_on_c, 1, 67, 50
3, 308160, Note_on_c, 1, 67, 0
3, 308160, Note_on_c, 1, 65, 50
3, 309120, Note_on_c, 1, 65, 0
3, 309120, Note_on_c, 1, 64, 50
3, 309600, Note_on_c, 1, 64, 0
3, 316320, Note_on_c, 1, 76, 127
3, 316320, Note_on_c, 1, 73, 127
3, 316545, Note_on_c, 1, 73, 0
3, 316545, Note_on_c, 1, 76, 0
3, 316680, Note_on_c, 1, 76, 127
3, 316680, Note_on_c, 1, 73, 127
3, 316800, Note_on_c, 1, 73, 0
3, 316800, Note_on_c, 1, 76, 0
3, 316800, Note_on_c, 1, 73, 127
3, 316800, Note_on_c, 1, 76, 127
3, 317040, Note_on_c, 1, 76, 0
3, 317040, Note_on_c, 1, 73, 0
3, 317040, Note_on_c, 1, 74, 127
3, 317040, Note_on_c, 1, 77, 127
3, 317280, Note_on_c, 1, 77, 0
3, 317280, Note_on_c, 1, 74, 0
3, 317280, Note_on_c, 1, 79, 127
3, 317280, Note_on_c, 1, 76, 127
3, 318000, Note_on_c, 1, 76, 0
3, 318000, Note_on_c, 1, 79, 0
3, 318000, Note_on_c, 1, 69, 127
3, 318000, Note_on_c, 1, 73, 127
3, 318240, Note_on_c, 1, 73, 0
3, 318240, Note_on_c, 1, 69, 0
3, 318240, Note_on_c, 1, 73, 127
3, 318240, Note_on_c, 1, 76, 127
3, 318480, Note_on_c, 1, 76, 0
3, 318480, Note_on_c, 1, 73, 0
3, 318480, Note_on_c, 1, 79, 127
3, 318480, Note_on_c, 1, 76, 127
3, 318720, Note_on_c, 1, 76, 0
3, 318720, Note_on_c, 1, 79, 0
3, 318720, Note_on_c, 1, 74, 127
3, 318720, Note_on_c, 1, 77, 127
3, 319200, Note_on_c, 1, 77, 0
3, 319200, Note_on_c, 1, 74, 0
3, 319680, Note_on_c, 1, 78, 127
3, 319680, Note_on_c, 1, 81, 127
3, 319905, Note_on_c, 1, 81, 0
3, 319905, Note_on_c, 1, 78, 0
3, 320040, Note_on_c, 1, 78, 127
3, 320040, Note_on_c, 1, 81, 127
3, 320160, Note_on_c, 1, 81, 0
3, 320160, Note_on_c, 1, 78, 0
3, 320160, Note_on_c, 1, 81, 127
3, 320160, Note_on_c, 1, 78, 127
3, 320400, Note_on_c, 1, 78, 0
3, 320400, Note_on_c, 1, 81, 0
3, 320400, Note_on_c, 1, 83, 127
3, 320400, Note_on_c, 1, 79, 127
3, 320640, Note_on_c, 1, 79, 0
3, 320640, Note_on_c, 1, 83, 0
3, 320640, Note_on_c, 1, 81, 127
3, 320640, Note_on_c, 1, 84, 127
3, 321360, Note_on_c, 1, 84, 0
3, 321360, Note_on_c, 1, 81, 0
3, 321360, Note_on_c, 1, 74, 127
3, 321360, Note_on_c, 1, 78, 127
3, 321600, Note_on_c, 1, 78, 0
3, 321600, Note_on_c, 1, 74, 0
3, 321600, Note_on_c, 1, 78, 127
3, 321600, Note_on_c, 1, 81, 127
3, 321840, Note_on_c, 1, 81, 0
3, 321840, Note_on_c, 1, 78, 0
3, 321840, Note_on_c, 1, 81, 127
3, 321840, Note_on_c, 1, 84, 127
3, 322080, Note_on_c, 1, 84, 0
3, 322080, Note_on_c, 1, 81, 0
3, 322080, Note_on_c, 1, 83, 127
3, 322080, Note_on_c, 1, 79, 127
3, 322560, Note_on_c, 1, 79, 0
3, 322560, Note_on_c, 1, 83, 0
3, 323040, Note_on_c, 1, 71, 127
3, 323040, Note_on_c, 1, 74, 127
3, 323265, Note_on_c, 1, 74, 0
3, 323265, Note_on_c, 1, 71, 0
3, 323400, Note_on_c, 1, 74, 127
3, 323400, Note_on_c, 1, 71, 127
3, 323520, Note_on_c, 1, 71, 0
3, 323520, Note_on_c, 1, 74, 0
3, 323520, Note_on_c, 1, 74, 127
3, 323520, Note_on_c, 1, 71, 127
3, 323760, Note_on_c, 1, 71, 0
3, 323760, Note_on_c, 1, 74, 0
3, 323760, Note_on_c, 1, 76, 127
3, 323760, Note_on_c, 1, 72, 127
3, 324000, Note_on_c, 1, 72, 0
3, 324000, Note_on_c, 1, 76, 0
3, 324000, Note_on_c, 1, 77, 127
3, 324000, Note_on_c, 1, 74, 127
3, 324720, Note_on_c, 1, 74, 0
3, 324720, Note_on_c, 1, 77, 0
3, 324720, Note_on_c, 1, 71, 127
3, 324720, Note_on_c, 1, 67, 127
3, 324960, Note_on_c, 1, 67, 0
3, 324960, Note_on_c, 1, 71, 0
3, 324960, Note_on_c, 1, 71, 127
3, 324960, Note_on_c, 1, 74, 127
3, 325200, Note_on_c, 1, 74, 0
3, 325200, Note_on_c, 1, 71, 0
3, 325200, Note_on_c, 1, 77, 127
3, 325200, Note_on_c, 1, 74, 127
3, 325440, Note_on_c, 1, 74, 0
3, 325440, Note_on_c, 1, 77, 0
3, 325440, Note_on_c, 1, 72, 127
3, 325440, Note_on_c, 1, 76, 127
3, 325920, Note_on_c, 1, 76, 0
3, 325920, Note_on_c, 1, 72, 0
3, 326400, Note_on_c, 1, 76, 127
3, 326400, Note_on_c, 1, 79, 127
3, 326640, Note_on_c, 1, 79, 0
3, 326640, Note_on_c, 1, 76, 0
3, 326760, Note_on_c, 1, 76, 127
3, 326760, Note_on_c, 1, 79, 127
3, 326880, Note_on_c, 1, 79, 0
3, 326880, Note_on_c, 1, 76, 0
3, 326880, Note_on_c, 1, 76, 127
3, 326880, Note_on_c, 1, 79, 127
3, 327120, Note_on_c, 1, 79, 0
3, 327120, Note_on_c, 1, 76, 0
3, 327120, Note_on_c, 1, 77, 127
3, 327120, Note_on_c, 1, 81, 127
3, 327360, Note_on_c, 1, 81, 0
3, 327360, Note_on_c, 1, 77, 0
3, 327360, Note_on_c, 1, 82, 127
3, 327360, Note_on_c, 1, 79, 127
3, 328080, Note_on_c, 1, 79, 0
3, 328080, Note_on_c, 1, 82, 0
3, 328080, Note_on_c, 1, 72, 127
3, 328080, Note_on_c, 1, 76, 127
3, 328320, Note_on_c, 1, 76, 0
3, 328320, Note_on_c, 1, 72, 0
3, 328320, Note_on_c, 1, 76, 127
3, 328320, Note_on_c, 1, 79, 127
3, 328560, Note_on_c, 1, 79, 0
3, 328560, Note_on_c, 1, 76, 0
3, 328560, Note_on_c, 1, 79, 127
3, 328560, Note_on_c, 1, 82, 127
3, 328800, Note_on_c, 1, 82, 0
3, 328800, Note_on_c, 1, 79, 0
3, 328800, Note_on_c, 1, 77, 127
3, 328800, Note_on_c, 1, 81, 127
3, 329280, Note_on_c, 1, 81, 0
3, 329280, Note_on_c, 1, 77, 0
3, 331680, Note_on_c, 1, 72, 127
3, 332160, Note_on_c, 1, 72, 0
3, 332160, Note_on_c, 1, 74, 50
3, 332640, Note_on_c, 1, 71, 50
3, 332880, Note_on_c, 1, 71, 0
3, 332880, Note_on_c, 1, 69, 50
3, 333120, Note_on_c, 1, 69, 0
3, 333120, Note_on_c, 1, 74, 0
3, 333120, Note_on_c, 1, 71, 50
3, 333120, Note_on_c, 1, 77, 50
3, 333600, Note_on_c, 1, 77, 0
3, 333600, Note_on_c, 1, 71, 0
3, 333600, Note_on_c, 1, 72, 100
3, 333600, Note_on_c, 1, 75, 100
3, 334080, Note_on_c, 1, 75, 0
3, 334080, Note_on_c, 1, 72, 0
3, 336480, Note_on_c, 1, 79, 50
3, 337440, Note_on_c, 1, 79, 0
3, 337440, Note_on_c, 1, 78, 50
3, 337440, Note_on_c, 1, 73, 50
3, 337680, Note_on_c, 1, 78, 0
3, 337680, Note_on_c, 1, 76, 50
3, 337920, Note_on_c, 1, 76, 0
3, 337920, Note_on_c, 1, 73, 0
3, 337920, Note_on_c, 1, 78, 50
3, 337920, Note_on_c, 1, 74, 50
3, 338400, Note_on_c, 1, 74, 0
3, 338400, Note_on_c, 1, 78, 0
3, 338400, Note_on_c, 1, 67, 48
3, 338400, Note_on_c, 1, 79, 48
3, 338880, Note_on_c, 1, 79, 0
3, 338880, Note_on_c, 1, 67, 0
3, 341280, Note_on_c, 1, 74, 48
3, 342240, Note_on_c, 1, 74, 0
3, 342240, Note_on_c, 1, 73, 48
3, 342240, Note_on_c, 1, 68, 48
3, 342480, Note_on_c, 1, 73, 0
3, 342480, Note_on_c, 1, 71, 48
3, 342720, Note_on_c, 1, 71, 0
3, 342720, Note_on_c, 1, 68, 0
3, 342720, Note_on_c, 1, 69, 48
3, 342720, Note_on_c, 1, 73, 48
3, 343200, Note_on_c, 1, 73, 0
3, 343200, Note_on_c, 1, 69, 0
3, 343200, Note_on_c, 1, 74, 48
3, 343200, Note_on_c, 1, 62, 48
3, 343680, Note_on_c, 1, 62, 0
3, 343680, Note_on_c, 1, 74, 0
3, 346080, Note_on_c, 1, 81, 48
3, 346080, Note_on_c, 1, 77, 48
3, 346800, Note_on_c, 1, 81, 0
3, 346800, Note_on_c, 1, 80, 48
3, 346920, Note_on_c, 1, 80, 0
3, 346920, Note_on_c, 1, 81, 48
3, 347040, Note_on_c, 1, 81, 0
3, 347040, Note_on_c, 1, 77, 0
3, 347040, Note_on_c, 1, 83, 48
3, 347040, Note_on_c, 1, 78, 48
3, 347280, Note_on_c, 1, 83, 0
3, 347280, Note_on_c, 1, 81, 48
3, 347520, Note_on_c, 1, 81, 0
3, 347520, Note_on_c, 1, 78, 0
3, 347520, Note_on_c, 1, 76, 48
3, 347520, Note_on_c, 1, 80, 48
3, 348000, Note_on_c, 1, 80, 0
3, 348000, Note_on_c, 1, 81, 48
3, 348960, Note_on_c, 1, 81, 0
3, 348960, Note_on_c, 1, 76, 0
3, 348960, Note_on_c, 1, 75, 48
3, 348960, Note_on_c, 1, 79, 48
3, 349440, Note_on_c, 1, 75, 0
3, 349440, Note_on_c, 1, 76, 48
3, 349920, Note_on_c, 1, 76, 0
3, 349920, Note_on_c, 1, 79, 0
3, 349920, Note_on_c, 1, 78, 48
3, 350160, Note_on_c, 1, 78, 0
3, 350160, Note_on_c, 1, 76, 48
3, 350400, Note_on_c, 1, 76, 0
3, 350400, Note_on_c, 1, 76, 48
3, 350880, Note_on_c, 1, 76, 0
3, 350880, Note_on_c, 1, 75, 48
3, 351120, Note_on_c, 1, 75, 0
3, 351120, Note_on_c, 1, 76, 48
3, 351360, Note_on_c, 1, 76, 0
3, 351360, Note_on_c, 1, 71, 127
3, 351840, Note_on_c, 1, 71, 0
3, 351840, Note_on_c, 1, 78, 127
3, 351840, Note_on_c, 1, 75, 127
3, 352320, Note_on_c, 1, 75, 0
3, 352320, Note_on_c, 1, 78, 0
3, 352320, Note_on_c, 1, 79, 127
3, 352320, Note_on_c, 1, 76, 127
3, 353280, Note_on_c, 1, 76, 0
3, 353280, Note_on_c, 1, 79, 0
3, 353280, Note_on_c, 1, 76, 127
3, 353280, Note_on_c, 1, 78, 127
3, 354240, Note_on_c, 1, 78, 0
3, 354240, Note_on_c, 1, 76, 0
3, 354240, Note_on_c, 1, 75, 127
3, 354240, Note_on_c, 1, 78, 127
3, 355200, Note_on_c, 1, 78, 0
3, 355200, Note_on_c, 1, 75, 0
3, 355200, Note_on_c, 1, 79, 127
3, 355200, Note_on_c, 1, 76, 127
3, 356160, Note_on_c, 1, 76, 0
3, 356160, Note_on_c, 1, 79, 0
3, 356160, Note_on_c, 1, 81, 127
3, 356160, Note_on_c, 1, 75, 127
3, 356640, Note_on_c, 1, 75, 0
3, 356640, Note_on_c, 1, 81, 0
3, 356640, Note_on_c, 1, 78, 127
3, 356640, Note_on_c, 1, 82, 127
3, 357120, Note_on_c, 1, 82, 0
3, 357120, Note_on_c, 1, 78, 0
3, 357120, Note_on_c, 1, 78, 127
3, 357120, Note_on_c, 1, 83, 127
3, 357600, Note_on_c, 1, 83, 0
3, 357600, Note_on_c, 1, 78, 0
3, 358080, Note_on_c, 1, 83, 127
3, 358080, Note_on_c, 1, 71, 127
3, 358464, Note_on_c, 1, 71, 0
3, 358464, Note_on_c, 1, 83, 0
3, 358560, Note_on_c, 1, 71, 127
3, 358560, Note_on_c, 1, 83, 127
3, 358680, Note_on_c, 1, 83, 0
3, 358680, Note_on_c, 1, 71, 0
3, 358800, Note_on_c, 1, 71, 127
3, 358800, Note_on_c, 1, 83, 127
3, 358920, Note_on_c, 1, 83, 0
3, 358920, Note_on_c, 1, 71, 0
3, 359040, Note_on_c, 1, 67, 127
3, 359040, Note_on_c, 1, 79, 127
3, 359160, Note_on_c, 1, 79, 0
3, 359160, Note_on_c, 1, 67, 0
3, 359280, Note_on_c, 1, 67, 127
3, 359280, Note_on_c, 1, 79, 127
3, 359400, Note_on_c, 1, 79, 0
3, 359400, Note_on_c, 1, 67, 0
3, 359520, Note_on_c, 1, 76, 127
3, 359520, Note_on_c, 1, 64, 127
3, 359640, Note_on_c, 1, 64, 0
3, 359640, Note_on_c, 1, 76, 0
3, 359760, Note_on_c, 1, 64, 127
3, 359760, Note_on_c, 1, 76, 127
3, 359880, Note_on_c, 1, 76, 0
3, 359880, Note_on_c, 1, 64, 0
3, 360000, Note_on_c, 1, 71, 50
3, 360480, Note_on_c, 1, 71, 0
3, 367680, Note_on_c, 1, 74, 50
3, 367680, Note_on_c, 1, 77, 50
3, 368640, Note_on_c, 1, 77, 0
3, 368640, Note_on_c, 1, 74, 0
3, 368640, Note_on_c, 1, 76, 50
3, 368640, Note_on_c, 1, 72, 50
3, 369600, Note_on_c, 1, 76, 0
3, 369600, Note_on_c, 1, 81, 50
3, 370560, Note_on_c, 1, 81, 0
3, 370560, Note_on_c, 1, 79, 50
3, 371518, Note_on_c, 1, 79, 0
3, 371518, Note_on_c, 1, 72, 0
3, 371520, Note_on_c, 1, 79, 50
3, 371520, Note_on_c, 1, 83, 50
3, 371760, Note_on_c, 1, 83, 0
3, 371760, Note_on_c, 1, 79, 0
3, 372000, Note_on_c, 1, 79, 50
3, 372000, Note_on_c, 1, 84, 50
3, 372240, Note_on_c, 1, 84, 0
3, 372240, Note_on_c, 1, 79, 0
3, 372480, Note_on_c, 1, 79, 50
3, 372480, Note_on_c, 1, 83, 50
3, 372960, Note_on_c, 1, 83, 0
3, 372960, Note_on_c, 1, 79, 0
3, 373920, Note_on_c, 1, 72, 127
3, 374880, Note_on_c, 1, 72, 0
3, 374880, Note_on_c, 1, 71, 127
3, 375840, Note_on_c, 1, 71, 0
3, 375840, Note_on_c, 1, 70, 127
3, 376800, Note_on_c, 1, 70, 0
3, 376800, Note_on_c, 1, 69, 127
3, 376920, Note_on_c, 1, 69, 0
3, 377040, Note_on_c, 1, 67, 127
3, 377160, Note_on_c, 1, 67, 0
3, 377280, Note_on_c, 1, 65, 127
3, 377760, Note_on_c, 1, 65, 0
3, 377760, Note_on_c, 1, 74, 127
3, 378720, Note_on_c, 1, 74, 0
3, 378720, Note_on_c, 1, 73, 127
3, 379680, Note_on_c, 1, 73, 0
3, 379680, Note_on_c, 1, 72, 127
3, 380640, Note_on_c, 1, 72, 0
3, 380640, Note_on_c, 1, 71, 127
3, 380760, Note_on_c, 1, 71, 0
3, 380880, Note_on_c, 1, 69, 127
3, 381000, Note_on_c, 1, 69, 0
3, 381120, Note_on_c, 1, 67, 127
3, 381600, Note_on_c, 1, 67, 0
3, 381600, Note_on_c, 1, 76, 127
3, 382560, Note_on_c, 1, 76, 0
3, 382560, Note_on_c, 1, 75, 127
3, 383040, Note_on_c, 1, 75, 0
3, 383520, Note_on_c, 1, 72, 127
3, 384000, Note_on_c, 1, 72, 0
3, 384000, Note_on_c, 1, 73, 127
3, 384480, Note_on_c, 1, 73, 0
3, 384480, Note_on_c, 1, 74, 127
3, 384960, Note_on_c, 1, 74, 0
3, 385440, Note_on_c, 1, 65, 127
3, 385440, Note_on_c, 1, 77, 127
3, 385920, Note_on_c, 1, 77, 0
3, 385920, Note_on_c, 1, 65, 0
3, 385920, Note_on_c, 1, 78, 127
3, 386400, Note_on_c, 1, 78, 0
3, 386400, Note_on_c, 1, 79, 127
3, 386880, Note_on_c, 1, 79, 0
3, 387360, Note_on_c, 1, 70, 127
3, 387360, Note_on_c, 1, 82, 127
3, 387840, Note_on_c, 1, 82, 0
3, 387840, Note_on_c, 1, 70, 0
3, 387840, Note_on_c, 1, 83, 127
3, 387840, Note_on_c, 1, 71, 127
3, 388320, Note_on_c, 1, 71, 0
3, 388320, Note_on_c, 1, 83, 0
3, 388320, Note_on_c, 1, 72, 127
3, 388320, Note_on_c, 1, 84, 127
3, 388800, Note_on_c, 1, 84, 0
3, 388800, Note_on_c, 1, 72, 0
3, 389280, Note_on_c, 1, 63, 127
3, 389280, Note_on_c, 1, 75, 127
3, 389760, Note_on_c, 1, 75, 0
3, 389760, Note_on_c, 1, 63, 0
3, 389760, Note_on_c, 1, 76, 127
3, 389760, Note_on_c, 1, 64, 127
3, 390240, Note_on_c, 1, 64, 0
3, 390240, Note_on_c, 1, 76, 0
3, 390240, Note_on_c, 1, 65, 127
3, 390240, Note_on_c, 1, 77, 127
3, 390720, Note_on_c, 1, 77, 0
3, 390720, Note_on_c, 1, 65, 0
3, 391200, Note_on_c, 1, 68, 127
3, 391200, Note_on_c, 1, 80, 127
3, 391680, Note_on_c, 1, 80, 0
3, 391680, Note_on_c, 1, 68, 0
3, 391680, Note_on_c, 1, 69, 127
3, 391680, Note_on_c, 1, 81, 127
3, 392160, Note_on_c, 1, 81, 0
3, 392160, Note_on_c, 1, 69, 0
3, 392160, Note_on_c, 1, 82, 127
3, 392160, Note_on_c, 1, 70, 127
3, 392640, Note_on_c, 1, 70, 0
3, 392640, Note_on_c, 1, 82, 0
3, 392640, Note_on_c, 1, 82, 127
3, 392640, Note_on_c, 1, 84, 127
3, 393600, Note_on_c, 1, 82, 0
3, 393600, Note_on_c, 1, 81, 127
3, 394558, Note_on_c, 1, 84, 0
3, 394560, Note_on_c, 1, 86, 127
3, 395040, Note_on_c, 1, 81, 0
3, 395040, Note_on_c, 1, 83, 127
3, 396000, Note_on_c, 1, 83, 0
3, 396000, Note_on_c, 1, 79, 127
3, 396478, Note_on_c, 1, 86, 0
3, 396480, Note_on_c, 1, 84, 127
3, 396960, Note_on_c, 1, 79, 0
3, 396960, Note_on_c, 1, 81, 127
3, 397920, Note_on_c, 1, 81, 0
3, 397920, Note_on_c, 1, 77, 127
3, 398398, Note_on_c, 1, 84, 0
3, 398880, Note_on_c, 1, 79, 127
3, 399360, Note_on_c, 1, 77, 0
3, 399360, Note_on_c, 1, 76, 127
3, 400320, Note_on_c, 1, 76, 0
3, 400320, Note_on_c, 1, 79, 0
3, 400320, Note_on_c, 1, 78, 127
3, 400320, Note_on_c, 1, 72, 127
3, 400656, Note_on_c, 1, 72, 0
3, 400656, Note_on_c, 1, 78, 0
3, 400800, Note_on_c, 1, 84, 127
3, 400800, Note_on_c, 1, 74, 127
3, 401136, Note_on_c, 1, 74, 0
3, 401136, Note_on_c, 1, 84, 0
3, 401280, Note_on_c, 1, 74, 127
3, 401280, Note_on_c, 1, 83, 127
3, 401784, Note_on_c, 1, 83, 0
3, 401784, Note_on_c, 1, 74, 0
3, 402240, Note_on_c, 1, 79, 127
3, 402465, Note_on_c, 1, 79, 0
3, 402600, Note_on_c, 1, 79, 127
3, 402720, Note_on_c, 1, 79, 0
3, 402720, Note_on_c, 1, 79, 127
3, 403368, Note_on_c, 1, 79, 0
3, 403440, Note_on_c, 1, 78, 127
3, 403524, Note_on_c, 1, 78, 0
3, 403560, Note_on_c, 1, 76, 127
3, 403644, Note_on_c, 1, 76, 0
3, 403680, Note_on_c, 1, 74, 127
3, 403764, Note_on_c, 1, 74, 0
3, 403800, Note_on_c, 1, 76, 127
3, 403884, Note_on_c, 1, 76, 0
3, 403920, Note_on_c, 1, 74, 127
3, 404004, Note_on_c, 1, 74, 0
3, 404040, Note_on_c, 1, 72, 127
3, 404124, Note_on_c, 1, 72, 0
3, 404160, Note_on_c, 1, 71, 127
3, 404244, Note_on_c, 1, 71, 0
3, 404280, Note_on_c, 1, 72, 127
3, 404364, Note_on_c, 1, 72, 0
3, 404400, Note_on_c, 1, 71, 127
3, 404484, Note_on_c, 1, 71, 0
3, 404520, Note_on_c, 1, 69, 127
3, 404604, Note_on_c, 1, 69, 0
3, 404640, Note_on_c, 1, 67, 127
3, 404976, Note_on_c, 1, 67, 0
3, 405120, Note_on_c, 1, 79, 127
3, 405345, Note_on_c, 1, 79, 0
3, 405480, Note_on_c, 1, 79, 127
3, 405600, Note_on_c, 1, 79, 0
3, 405600, Note_on_c, 1, 79, 127
3, 406248, Note_on_c, 1, 79, 0
3, 406320, Note_on_c, 1, 78, 127
3, 406404, Note_on_c, 1, 78, 0
3, 406440, Note_on_c, 1, 76, 127
3, 406524, Note_on_c, 1, 76, 0
3, 406560, Note_on_c, 1, 74, 127
3, 406644, Note_on_c, 1, 74, 0
3, 406680, Note_on_c, 1, 76, 127
3, 406764, Note_on_c, 1, 76, 0
3, 406800, Note_on_c, 1, 74, 127
3, 406884, Note_on_c, 1, 74, 0
3, 406920, Note_on_c, 1, 72, 127
3, 407004, Note_on_c, 1, 72, 0
3, 407040, Note_on_c, 1, 71, 127
3, 407160, Note_on_c, 1, 71, 0
3, 407280, Note_on_c, 1, 74, 127
3, 407280, Note_on_c, 1, 71, 127
3, 407400, Note_on_c, 1, 71, 0
3, 407400, Note_on_c, 1, 74, 0
3, 407520, Note_on_c, 1, 71, 127
3, 407520, Note_on_c, 1, 74, 127
3, 407640, Note_on_c, 1, 74, 0
3, 407640, Note_on_c, 1, 71, 0
3, 407760, Note_on_c, 1, 74, 127
3, 407760, Note_on_c, 1, 71, 127
3, 407880, Note_on_c, 1, 71, 0
3, 407880, Note_on_c, 1, 74, 0
3, 408000, Note_on_c, 1, 71, 127
3, 408000, Note_on_c, 1, 74, 127
3, 408120, Note_on_c, 1, 74, 0
3, 408120, Note_on_c, 1, 71, 0
3, 408240, Note_on_c, 1, 79, 127
3, 408240, Note_on_c, 1, 74, 127
3, 408360, Note_on_c, 1, 74, 0
3, 408360, Note_on_c, 1, 79, 0
3, 408480, Note_on_c, 1, 74, 127
3, 408480, Note_on_c, 1, 79, 127
3, 408600, Note_on_c, 1, 79, 0
3, 408600, Note_on_c, 1, 74, 0
3, 408720, Note_on_c, 1, 79, 127
3, 408720, Note_on_c, 1, 74, 127
3, 408840, Note_on_c, 1, 74, 0
3, 408840, Note_on_c, 1, 79, 0
3, 408960, Note_on_c, 1, 83, 127
3, 408960, Note_on_c, 1, 79, 127
3, 408960, Note_on_c, 1, 74, 127
3, 409080, Note_on_c, 1, 74, 0
3, 409080, Note_on_c, 1, 79, 0
3, 409080, Note_on_c, 1, 83, 0
3, 409200, Note_on_c, 1, 83, 127
3, 409200, Note_on_c, 1, 79, 127
3, 409320, Note_on_c, 1, 79, 0
3, 409320, Note_on_c, 1, 83, 0
3, 409440, Note_on_c, 1, 79, 127
3, 409440, Note_on_c, 1, 83, 127
3, 409560, Note_on_c, 1, 83, 0
3, 409560, Note_on_c, 1, 79, 0
3, 409680, Note_on_c, 1, 83, 127
3, 409680, Note_on_c, 1, 79, 127
3, 409800, Note_on_c, 1, 79, 0
3, 409800, Note_on_c, 1, 83, 0
3, 409920, Note_on_c, 1, 83, 127
3, 409920, Note_on_c, 1, 79, 127
3, 410400, Note_on_c, 1, 79, 0
3, 410400, Note_on_c, 1, 83, 0
3, 413040, Note_on_c, 1, 81, 50
3, 413136, Note_on_c, 1, 81, 0
3, 413280, Note_on_c, 1, 74, 50
3, 413376, Note_on_c, 1, 74, 0
3, 413520, Note_on_c, 1, 77, 50
3, 413616, Note_on_c, 1, 77, 0
3, 413760, Note_on_c, 1, 67, 50
3, 414000, Note_on_c, 1, 67, 0
3, 419760, Note_on_c, 1, 71, 50
3, 419760, Note_on_c, 1, 67, 50
3, 419856, Note_on_c, 1, 67, 0
3, 419856, Note_on_c, 1, 71, 0
3, 420000, Note_on_c, 1, 72, 50
3, 420000, Note_on_c, 1, 69, 50
3, 420096, Note_on_c, 1, 69, 0
3, 420096, Note_on_c, 1, 72, 0
3, 420240, Note_on_c, 1, 71, 50
3, 420240, Note_on_c, 1, 74, 50
3, 420336, Note_on_c, 1, 74, 0
3, 420336, Note_on_c, 1, 71, 0
3, 420480, Note_on_c, 1, 74, 50
3, 420480, Note_on_c, 1, 77, 50
3, 420540, Note_on_c, 1, 77, 0
3, 420540, Note_on_c, 1, 74, 0
3, 420540, Note_on_c, 1, 76, 50
3, 420540, Note_on_c, 1, 72, 50
3, 420600, Note_on_c, 1, 72, 0
3, 420600, Note_on_c, 1, 76, 0
3, 420600, Note_on_c, 1, 74, 50
3, 420600, Note_on_c, 1, 77, 50
3, 420660, Note_on_c, 1, 77, 0
3, 420660, Note_on_c, 1, 74, 0
3, 420660, Note_on_c, 1, 76, 50
3, 420660, Note_on_c, 1, 72, 50
3, 420720, Note_on_c, 1, 72, 0
3, 420720, Note_on_c, 1, 76, 0
3, 420840, Note_on_c, 1, 77, 50
3, 420840, Note_on_c, 1, 74, 50
3, 420900, Note_on_c, 1, 74, 0
3, 420900, Note_on_c, 1, 77, 0
3, 420960, Note_on_c, 1, 79, 50
3, 420960, Note_on_c, 1, 76, 50
3, 421344, Note_on_c, 1, 76, 0
3, 421344, Note_on_c, 1, 79, 0
3, 423600, Note_on_c, 1, 72, 50
3, 423720, Note_on_c, 1, 72, 0
3, 423840, Note_on_c, 1, 74, 50
3, 423960, Note_on_c, 1, 74, 0
3, 424080, Note_on_c, 1, 76, 50
3, 424200, Note_on_c, 1, 76, 0
3, 424320, Note_on_c, 1, 79, 50
3, 424380, Note_on_c, 1, 79, 0
3, 424380, Note_on_c, 1, 77, 50
3, 424440, Note_on_c, 1, 77, 0
3, 424440, Note_on_c, 1, 79, 50
3, 424500, Note_on_c, 1, 79, 0
3, 424500, Note_on_c, 1, 77, 50
3, 424560, Note_on_c, 1, 77, 0
3, 424680, Note_on_c, 1, 79, 50
3, 424740, Note_on_c, 1, 79, 0
3, 424800, Note_on_c, 1, 81, 50
3, 425184, Note_on_c, 1, 81, 0
3, 425520, Note_on_c, 1, 71, 50
3, 425640, Note_on_c, 1, 71, 0
3, 425760, Note_on_c, 1, 72, 50
3, 425880, Note_on_c, 1, 72, 0
3, 426000, Note_on_c, 1, 74, 50
3, 426120, Note_on_c, 1, 74, 0
3, 426240, Note_on_c, 1, 77, 50
3, 426300, Note_on_c, 1, 77, 0
3, 426300, Note_on_c, 1, 76, 50
3, 426360, Note_on_c, 1, 76, 0
3, 426360, Note_on_c, 1, 77, 50
3, 426420, Note_on_c, 1, 77, 0
3, 426420, Note_on_c, 1, 76, 50
3, 426480, Note_on_c, 1, 76, 0
3, 426600, Note_on_c, 1, 77, 50
3, 426660, Note_on_c, 1, 77, 0
3, 426720, Note_on_c, 1, 79, 50
3, 427104, Note_on_c, 1, 79, 0
3, 427440, Note_on_c, 1, 69, 50
3, 427560, Note_on_c, 1, 69, 0
3, 427680, Note_on_c, 1, 71, 50
3, 427800, Note_on_c, 1, 71, 0
3, 427920, Note_on_c, 1, 72, 50
3, 428040, Note_on_c, 1, 72, 0
3, 428160, Note_on_c, 1, 76, 50
3, 428220, Note_on_c, 1, 76, 0
3, 428220, Note_on_c, 1, 74, 50
3, 428280, Note_on_c, 1, 74, 0
3, 428280, Note_on_c, 1, 76, 50
3, 428340, Note_on_c, 1, 76, 0
3, 428340, Note_on_c, 1, 74, 50
3, 428400, Note_on_c, 1, 74, 0
3, 428520, Note_on_c, 1, 76, 50
3, 428580, Note_on_c, 1, 76, 0
3, 428640, Note_on_c, 1, 77, 50
3, 429024, Note_on_c, 1, 77, 0
3, 429360, Note_on_c, 1, 67, 50
3, 429480, Note_on_c, 1, 67, 0
3, 429600, Note_on_c, 1, 69, 50
3, 429720, Note_on_c, 1, 69, 0
3, 429840, Note_on_c, 1, 71, 50
3, 429960, Note_on_c, 1, 71, 0
3, 430080, Note_on_c, 1, 72, 50
3, 430416, Note_on_c, 1, 72, 0
3, 430560, Note_on_c, 1, 76, 127
3, 430896, Note_on_c, 1, 76, 0
3, 431040, Note_on_c, 1, 72, 127
3, 431376, Note_on_c, 1, 72, 0
3, 431520, Note_on_c, 1, 77, 127
3, 431520, Note_on_c, 1, 69, 127
3, 431856, Note_on_c, 1, 69, 0
3, 431856, Note_on_c, 1, 77, 0
3, 432000, Note_on_c, 1, 65, 127
3, 432336, Note_on_c, 1, 65, 0
3, 432480, Note_on_c, 1, 79, 127
3, 432480, Note_on_c, 1, 71, 127
3, 432816, Note_on_c, 1, 71, 0
3, 432816, Note_on_c, 1, 79, 0
3, 432960, Note_on_c, 1, 76, 127
3, 433296, Note_on_c, 1, 76, 0
3, 433440, Note_on_c, 1, 81, 127
3, 433440, Note_on_c, 1, 72, 127
3, 433776, Note_on_c, 1, 72, 0
3, 433776, Note_on_c, 1, 81, 0
3, 433920, Note_on_c, 1, 69, 127
3, 434256, Note_on_c, 1, 69, 0
3, 434400, Note_on_c, 1, 79, 127
3, 434400, Note_on_c, 1, 74, 127
3, 434736, Note_on_c, 1, 74, 0
3, 434736, Note_on_c, 1, 79, 0
3, 434880, Note_on_c, 1, 76, 127
3, 434880, Note_on_c, 1, 72, 127
3, 435216, Note_on_c, 1, 72, 0
3, 435216, Note_on_c, 1, 76, 0
3, 435360, Note_on_c, 1, 76, 127
3, 435696, Note_on_c, 1, 76, 0
3, 435840, Note_on_c, 1, 72, 127
3, 436176, Note_on_c, 1, 72, 0
3, 436320, Note_on_c, 1, 77, 127
3, 436656, Note_on_c, 1, 77, 0
3, 437280, Note_on_c, 1, 79, 127
3, 437280, Note_on_c, 1, 83, 127
3, 438240, Note_on_c, 1, 83, 0
3, 438240, Note_on_c, 1, 79, 0
3, 438240, Note_on_c, 1, 79, 127
3, 438240, Note_on_c, 1, 84, 127
3, 438576, Note_on_c, 1, 84, 0
3, 438576, Note_on_c, 1, 79, 0
3, 439200, Note_on_c, 1, 72, 127
3, 439536, Note_on_c, 1, 72, 0
3, 439680, Note_on_c, 1, 69, 127
3, 440016, Note_on_c, 1, 69, 0
3, 440160, Note_on_c, 1, 74, 127
3, 440496, Note_on_c, 1, 74, 0
3, 441120, Note_on_c, 1, 76, 127
3, 441120, Note_on_c, 1, 80, 127
3, 442080, Note_on_c, 1, 80, 0
3, 442080, Note_on_c, 1, 76, 0
3, 442080, Note_on_c, 1, 81, 127
3, 442080, Note_on_c, 1, 76, 127
3, 442416, Note_on_c, 1, 76, 0
3, 442416, Note_on_c, 1, 81, 0
3, 443040, Note_on_c, 1, 69, 127
3, 443040, Note_on_c, 1, 81, 127
3, 443376, Note_on_c, 1, 81, 0
3, 443376, Note_on_c, 1, 69, 0
3, 443520, Note_on_c, 1, 77, 127
3, 443520, Note_on_c, 1, 65, 127
3, 443856, Note_on_c, 1, 65, 0
3, 443856, Note_on_c, 1, 77, 0
3, 444000, Note_on_c, 1, 70, 127
3, 444000, Note_on_c, 1, 82, 127
3, 444564, Note_on_c, 1, 82, 0
3, 444564, Note_on_c, 1, 70, 0
3, 444600, Note_on_c, 1, 69, 127
3, 444600, Note_on_c, 1, 81, 127
3, 444684, Note_on_c, 1, 81, 0
3, 444684, Note_on_c, 1, 69, 0
3, 444720, Note_on_c, 1, 67, 127
3, 444720, Note_on_c, 1, 79, 127
3, 444804, Note_on_c, 1, 79, 0
3, 444804, Note_on_c, 1, 67, 0
3, 444840, Note_on_c, 1, 65, 127
3, 444840, Note_on_c, 1, 77, 127
3, 444924, Note_on_c, 1, 77, 0
3, 444924, Note_on_c, 1, 65, 0
3, 444960, Note_on_c, 1, 79, 127
3, 444960, Note_on_c, 1, 67, 127
3, 445044, Note_on_c, 1, 67, 0
3, 445044, Note_on_c, 1, 79, 0
3, 445080, Note_on_c, 1, 77, 127
3, 445080, Note_on_c, 1, 65, 127
3, 445164, Note_on_c, 1, 65, 0
3, 445164, Note_on_c, 1, 77, 0
3, 445200, Note_on_c, 1, 76, 127
3, 445200, Note_on_c, 1, 64, 127
3, 445284, Note_on_c, 1, 64, 0
3, 445284, Note_on_c, 1, 76, 0
3, 445320, Note_on_c, 1, 62, 127
3, 445320, Note_on_c, 1, 74, 127
3, 445404, Note_on_c, 1, 74, 0
3, 445404, Note_on_c, 1, 62, 0
3, 445440, Note_on_c, 1, 60, 127
3, 445440, Note_on_c, 1, 72, 127
3, 445944, Note_on_c, 1, 72, 0
3, 445944, Note_on_c, 1, 60, 0
3, 446400, Note_on_c, 1, 69, 127
3, 446400, Note_on_c, 1, 81, 127
3, 446904, Note_on_c, 1, 81, 0
3, 446904, Note_on_c, 1, 69, 0
3, 447360, Note_on_c, 1, 65, 127
3, 447360, Note_on_c, 1, 77, 127
3, 447864, Note_on_c, 1, 77, 0
3, 447864, Note_on_c, 1, 65, 0
3, 448320, Note_on_c, 1, 69, 127
3, 448320, Note_on_c, 1, 81, 127
3, 448824, Note_on_c, 1, 81, 0
3, 448824, Note_on_c, 1, 69, 0
3, 449280, Note_on_c, 1, 79, 127
3, 449364, Note_on_c, 1, 79, 0
3, 449400, Note_on_c, 1, 81, 127
3, 449484, Note_on_c, 1, 81, 0
3, 449520, Note_on_c, 1, 79, 127
3, 449604, Note_on_c, 1, 79, 0
3, 449640, Note_on_c, 1, 81, 127
3, 449724, Note_on_c, 1, 81, 0
3, 449760, Note_on_c, 1, 77, 127
3, 449844, Note_on_c, 1, 77, 0
3, 449880, Note_on_c, 1, 79, 127
3, 449964, Note_on_c, 1, 79, 0
3, 450000, Note_on_c, 1, 77, 127
3, 450084, Note_on_c, 1, 77, 0
3, 450120, Note_on_c, 1, 79, 127
3, 450204, Note_on_c, 1, 79, 0
3, 450240, Note_on_c, 1, 76, 127
3, 450720, Note_on_c, 1, 76, 0
3, 451440, Note_on_c, 1, 72, 127
3, 451440, Note_on_c, 1, 76, 127
3, 451560, Note_on_c, 1, 76, 0
3, 451560, Note_on_c, 1, 72, 0
3, 451680, Note_on_c, 1, 76, 127
3, 451680, Note_on_c, 1, 72, 127
3, 451800, Note_on_c, 1, 72, 0
3, 451800, Note_on_c, 1, 76, 0
3, 451920, Note_on_c, 1, 72, 127
3, 451920, Note_on_c, 1, 76, 127
3, 452040, Note_on_c, 1, 76, 0
3, 452040, Note_on_c, 1, 72, 0
3, 452160, Note_on_c, 1, 76, 127
3, 452160, Note_on_c, 1, 72, 127
3, 453240, Note_on_c, 1, 72, 0
3, 453240, Note_on_c, 1, 76, 0
3, 453360, Note_on_c, 1, 79, 127
3, 453360, Note_on_c, 1, 76, 127
3, 453480, Note_on_c, 1, 76, 0
3, 453480, Note_on_c, 1, 79, 0
3, 453600, Note_on_c, 1, 76, 127
3, 453600, Note_on_c, 1, 79, 127
3, 453720, Note_on_c, 1, 79, 0
3, 453720, Note_on_c, 1, 76, 0
3, 453840, Note_on_c, 1, 79, 127
3, 453840, Note_on_c, 1, 76, 127
3, 453960, Note_on_c, 1, 76, 0
3, 453960, Note_on_c, 1, 79, 0
3, 454080, Note_on_c, 1, 81, 127
3, 454080, Note_on_c, 1, 77, 127
3, 455040, Note_on_c, 1, 77, 0
3, 455040, Note_on_c, 1, 78, 127
3, 455160, Note_on_c, 1, 78, 0
3, 455160, Note_on_c, 1, 81, 0
3, 455280, Note_on_c, 1, 81, 127
3, 455280, Note_on_c, 1, 78, 127
3, 455400, Note_on_c, 1, 78, 0
3, 455400, Note_on_c, 1, 81, 0
3, 455520, Note_on_c, 1, 78, 127
3, 455520, Note_on_c, 1, 81, 127
3, 455640, Note_on_c, 1, 81, 0
3, 455640, Note_on_c, 1, 78, 0
3, 455760, Note_on_c, 1, 81, 127
3, 455760, Note_on_c, 1, 78, 127
3, 455880, Note_on_c, 1, 78, 0
3, 455880, Note_on_c, 1, 81, 0
3, 456000, Note_on_c, 1, 79, 127
3, 456000, Note_on_c, 1, 84, 127
3, 456960, Note_on_c, 1, 84, 0
3, 456960, Note_on_c, 1, 79, 0
3, 456960, Note_on_c, 1, 83, 127
3, 456960, Note_on_c, 1, 74, 127
3, 457440, Note_on_c, 1, 74, 0
3, 457440, Note_on_c, 1, 83, 0
3, 457440, Note_on_c, 1, 77, 127
3, 457440, Note_on_c, 1, 79, 127
3, 457920, Note_on_c, 1, 79, 0
3, 457920, Note_on_c, 1, 77, 0
3, 457920, Note_on_c, 1, 76, 127
3, 457920, Note_on_c, 1, 79, 127
3, 459118, Note_on_c, 1, 79, 0
3, 459118, Note_on_c, 1, 76, 0
3, 459840, Note_on_c, 1, 79, 127
3, 459840, Note_on_c, 1, 84, 127
3, 461038, Note_on_c, 1, 84, 0
3, 461038, Note_on_c, 1, 79, 0
3, 461760, Note_on_c, 1, 84, 127
3, 461760, Note_on_c, 1, 77, 127
3, 462240, Note_on_c, 1, 77, 0
3, 462240, Note_on_c, 1, 84, 0
3, 462240, Note_on_c, 1, 68, 127
3, 462240, Note_on_c, 1, 80, 127
3, 462720, Note_on_c, 1, 80, 0
3, 462720, Note_on_c, 1, 68, 0
3, 462720, Note_on_c, 1, 84, 127
3, 462720, Note_on_c, 1, 72, 127
3, 464638, Note_on_c, 1, 72, 0
3, 464638, Note_on_c, 1, 84, 0
3, 464640, Note_on_c, 1, 73, 127
3, 464640, Note_on_c, 1, 77, 127
3, 465360, Note_on_c, 1, 77, 0
3, 465360, Note_on_c, 1, 73, 0
3, 465360, Note_on_c, 1, 75, 127
3, 465360, Note_on_c, 1, 72, 127
3, 465480, Note_on_c, 1, 72, 0
3, 465480, Note_on_c, 1, 75, 0
3, 465600, Note_on_c, 1, 73, 127
3, 465600, Note_on_c, 1, 77, 127
3, 465720, Note_on_c, 1, 77, 0
3, 465720, Note_on_c, 1, 73, 0
3, 465840, Note_on_c, 1, 72, 127
3, 465840, Note_on_c, 1, 75, 127
3, 465960, Note_on_c, 1, 75, 0
3, 465960, Note_on_c, 1, 72, 0
3, 466080, Note_on_c, 1, 77, 127
3, 466080, Note_on_c, 1, 73, 127
3, 466200, Note_on_c, 1, 73, 0
3, 466200, Note_on_c, 1, 77, 0
3, 466320, Note_on_c, 1, 74, 127
3, 466320, Note_on_c, 1, 77, 127
3, 466440, Note_on_c, 1, 77, 0
3, 466440, Note_on_c, 1, 74, 0
3, 466560, Note_on_c, 1, 75, 127
3, 466560, Note_on_c, 1, 78, 127
3, 467280, Note_on_c, 1, 78, 0
3, 467280, Note_on_c, 1, 75, 0
3, 467280, Note_on_c, 1, 74, 127
3, 467280, Note_on_c, 1, 77, 127
3, 467400, Note_on_c, 1, 77, 0
3, 467400, Note_on_c, 1, 74, 0
3, 467520, Note_on_c, 1, 78, 127
3, 467520, Note_on_c, 1, 75, 127
3, 467640, Note_on_c, 1, 75, 0
3, 467640, Note_on_c, 1, 78, 0
3, 467760, Note_on_c, 1, 74, 127
3, 467760, Note_on_c, 1, 77, 127
3, 467880, Note_on_c, 1, 77, 0
3, 467880, Note_on_c, 1, 74, 0
3, 468000, Note_on_c, 1, 75, 127
3, 468000, Note_on_c, 1, 78, 127
3, 468120, Note_on_c, 1, 78, 0
3, 468120, Note_on_c, 1, 75, 0
3, 468240, Note_on_c, 1, 78, 127
3, 468240, Note_on_c, 1, 75, 127
3, 468360, Note_on_c, 1, 75, 0
3, 468360, Note_on_c, 1, 78, 0
3, 468480, Note_on_c, 1, 79, 127
3, 468480, Note_on_c, 1, 76, 127
3, 468960, Note_on_c, 1, 76, 0
3, 468960, Note_on_c, 1, 79, 0
3, 468960, Note_on_c, 1, 84, 127
3, 468960, Note_on_c, 1, 76, 127
3, 469185, Note_on_c, 1, 76, 0
3, 469185, Note_on_c, 1, 84, 0
3, 469440, Note_on_c, 1, 83, 127
3, 469440, Note_on_c, 1, 74, 127
3, 469920, Note_on_c, 1, 74, 0
3, 469920, Note_on_c, 1, 83, 0
3, 469920, Note_on_c, 1, 83, 127
3, 469920, Note_on_c, 1, 74, 127
3, 470145, Note_on_c, 1, 74, 0
3, 470145, Note_on_c, 1, 83, 0
3, 470400, Note_on_c, 1, 84, 127
3, 470400, Note_on_c, 1, 72, 127
3, 470880, Note_on_c, 1, 72, 0
3, 470880, Note_on_c, 1, 84, 0
3, 471360, Note_on_c, 1, 74, 127
3, 471585, Note_on_c, 1, 74, 0
3, 471720, Note_on_c, 1, 74, 127
3, 471840, Note_on_c, 1, 74, 0
3, 471840, Note_on_c, 1, 74, 127
3, 472560, Note_on_c, 1, 74, 0
3, 472560, Note_on_c, 1, 71, 127
3, 473040, Note_on_c, 1, 71, 0
3, 473040, Note_on_c, 1, 67, 127
3, 473280, Note_on_c, 1, 67, 0
3, 473280, Note_on_c, 1, 76, 127
3, 473760, Note_on_c, 1, 76, 0
3, 474240, Note_on_c, 1, 77, 127
3, 474465, Note_on_c, 1, 77, 0
3, 474600, Note_on_c, 1, 77, 127
3, 474720, Note_on_c, 1, 77, 0
3, 474720, Note_on_c, 1, 77, 127
3, 475440, Note_on_c, 1, 77, 0
3, 475440, Note_on_c, 1, 74, 127
3, 475920, Note_on_c, 1, 74, 0
3, 475920, Note_on_c, 1, 71, 127
3, 476160, Note_on_c, 1, 71, 0
3, 476160, Note_on_c, 1, 79, 127
3, 476640, Note_on_c, 1, 79, 0
3, 477120, Note_on_c, 1, 69, 127
3, 477120, Note_on_c, 1, 81, 127
3, 477345, Note_on_c, 1, 81, 0
3, 477345, Note_on_c, 1, 69, 0
3, 477600, Note_on_c, 1, 69, 127
3, 477600, Note_on_c, 1, 81, 127
3, 477720, Note_on_c, 1, 81, 0
3, 477720, Note_on_c, 1, 69, 0
3, 477720, Note_on_c, 1, 81, 127
3, 477720, Note_on_c, 1, 69, 127
3, 478080, Note_on_c, 1, 69, 127
3, 478198, Note_on_c, 1, 81, 0
3, 478200, Note_on_c, 1, 69, 0
3, 478200, Note_on_c, 1, 79, 127
3, 478320, Note_on_c, 1, 79, 0
3, 478320, Note_on_c, 1, 77, 127
3, 478440, Note_on_c, 1, 77, 0
3, 478440, Note_on_c, 1, 76, 127
3, 478560, Note_on_c, 1, 76, 0
3, 478560, Note_on_c, 1, 74, 127
3, 478680, Note_on_c, 1, 74, 0
3, 478680, Note_on_c, 1, 72, 127
3, 478800, Note_on_c, 1, 72, 0
3, 478800, Note_on_c, 1, 69, 0
3, 478800, Note_on_c, 1, 74, 127
3, 478800, Note_on_c, 1, 71, 127
3, 478920, Note_on_c, 1, 71, 0
3, 478920, Note_on_c, 1, 74, 0
3, 478920, Note_on_c, 1, 72, 127
3, 478920, Note_on_c, 1, 76, 127
3, 479040, Note_on_c, 1, 76, 0
3, 479040, Note_on_c, 1, 72, 0
3, 479040, Note_on_c, 1, 74, 127
3, 479040, Note_on_c, 1, 77, 127
3, 479520, Note_on_c, 1, 77, 0
3, 479520, Note_on_c, 1, 74, 0
3, 479520, Note_on_c, 1, 79, 89
3, 479520, Note_on_c, 1, 77, 89
3, 480000, Note_on_c, 1, 77, 0
3, 480000, Note_on_c, 1, 79, 0
3, 480000, Note_on_c, 1, 76, 50
3, 480000, Note_on_c, 1, 79, 50
3, 480120, Note_on_c, 1, 76, 0
3, 480240, Note_on_c, 1, 74, 53
3, 480360, Note_on_c, 1, 74, 0
3, 480360, Note_on_c, 1, 79, 0
3, 480480, Note_on_c, 1, 76, 56
3, 480480, Note_on_c, 1, 72, 56
3, 480600, Note_on_c, 1, 72, 0
3, 480720, Note_on_c, 1, 71, 59
3, 480840, Note_on_c, 1, 71, 0
3, 480960, Note_on_c, 1, 72, 62
3, 481080, Note_on_c, 1, 72, 0
3, 481200, Note_on_c, 1, 71, 66
3, 481320, Note_on_c, 1, 71, 0
3, 481440, Note_on_c, 1, 76, 0
3, 481440, Note_on_c, 1, 69, 69
3, 481560, Note_on_c, 1, 69, 0
3, 481680, Note_on_c, 1, 67, 72
3, 481800, Note_on_c, 1, 67, 0
3, 481920, Note_on_c, 1, 74, 75
3, 481920, Note_on_c, 1, 69, 75
3, 482400, Note_on_c, 1, 69, 0
3, 482400, Note_on_c, 1, 67, 82
3, 482880, Note_on_c, 1, 67, 0
3, 482880, Note_on_c, 1, 74, 0
3, 482880, Note_on_c, 1, 76, 88
3, 482880, Note_on_c, 1, 72, 88
3, 483000, Note_on_c, 1, 76, 0
3, 483003, Note_on_c, 1, 72, 0
3, 483120, Note_on_c, 1, 86, 91
3, 483240, Note_on_c, 1, 86, 0
3, 483360, Note_on_c, 1, 84, 94
3, 483480, Note_on_c, 1, 84, 0
3, 483600, Note_on_c, 1, 83, 98
3, 483720, Note_on_c, 1, 83, 0
3, 483840, Note_on_c, 1, 84, 101
3, 483960, Note_on_c, 1, 84, 0
3, 484080, Note_on_c, 1, 83, 104
3, 484200, Note_on_c, 1, 83, 0
3, 484320, Note_on_c, 1, 81, 107
3, 484440, Note_on_c, 1, 81, 0
3, 484560, Note_on_c, 1, 79, 110
3, 484680, Note_on_c, 1, 79, 0
3, 484800, Note_on_c, 1, 81, 114
3, 485280, Note_on_c, 1, 81, 0
3, 485280, Note_on_c, 1, 79, 120
3, 485280, Note_on_c, 1, 71, 120
3, 485400, Note_on_c, 1, 79, 0
3, 485520, Note_on_c, 1, 77, 123
3, 485640, Note_on_c, 1, 77, 0
3, 485640, Note_on_c, 1, 71, 0
3, 485760, Note_on_c, 1, 76, 127
3, 485760, Note_on_c, 1, 72, 127
3, 486240, Note_on_c, 1, 72, 0
3, 486240, Note_on_c, 1, 76, 0
3, 492480, Note_on_c, 1, 79, 127
3, 492480, Note_on_c, 1, 76, 127
3, 492705, Note_on_c, 1, 76, 0
3, 492705, Note_on_c, 1, 79, 0
3, 492960, Note_on_c, 1, 76, 127
3, 492960, Note_on_c, 1, 79, 127
3, 493020, Note_on_c, 1, 79, 0
3, 493020, Note_on_c, 1, 76, 0
3, 493080, Note_on_c, 1, 76, 127
3, 493080, Note_on_c, 1, 79, 127
3, 493608, Note_on_c, 1, 79, 0
3, 493608, Note_on_c, 1, 76, 0
3, 493680, Note_on_c, 1, 82, 127
3, 493680, Note_on_c, 1, 64, 127
3, 493764, Note_on_c, 1, 64, 0
3, 493764, Note_on_c, 1, 82, 0
3, 493800, Note_on_c, 1, 65, 127
3, 493800, Note_on_c, 1, 81, 127
3, 493884, Note_on_c, 1, 81, 0
3, 493884, Note_on_c, 1, 65, 0
3, 493920, Note_on_c, 1, 79, 127
3, 493920, Note_on_c, 1, 67, 127
3, 494004, Note_on_c, 1, 67, 0
3, 494004, Note_on_c, 1, 79, 0
3, 494040, Note_on_c, 1, 81, 127
3, 494040, Note_on_c, 1, 65, 127
3, 494124, Note_on_c, 1, 65, 0
3, 494124, Note_on_c, 1, 81, 0
3, 494160, Note_on_c, 1, 79, 127
3, 494160, Note_on_c, 1, 67, 127
3, 494244, Note_on_c, 1, 67, 0
3, 494244, Note_on_c, 1, 79, 0
3, 494280, Note_on_c, 1, 69, 127
3, 494280, Note_on_c, 1, 77, 127
3, 494364, Note_on_c, 1, 77, 0
3, 494364, Note_on_c, 1, 69, 0
3, 494400, Note_on_c, 1, 76, 127
3, 494400, Note_on_c, 1, 70, 127
3, 494880, Note_on_c, 1, 70, 0
3, 494880, Note_on_c, 1, 76, 0
3, 503520, Note_on_c, 1, 79, 50
3, 504480, Note_on_c, 1, 79, 0
3, 504480, Note_on_c, 1, 78, 50
3, 504480, Note_on_c, 1, 78, 50
3, 505440, Note_on_c, 1, 78, 0
3, 505440, Note_on_c, 1, 78, 0
3, 505440, Note_on_c, 1, 77, 50
3, 505920, Note_on_c, 1, 77, 0
3, 505920, Note_on_c, 1, 77, 50
3, 505920, Note_on_c, 1, 77, 50
3, 506400, Note_on_c, 1, 77, 0
3, 506400, Note_on_c, 1, 77, 0
3, 510720, Note_on_c, 1, 67, 62
3, 511642, Note_on_c, 1, 67, 0
3, 511680, Note_on_c, 1, 69, 64
3, 512602, Note_on_c, 1, 69, 0
3, 512659, Note_on_c, 1, 72, 67
3, 513581, Note_on_c, 1, 72, 0
3, 513600, Note_on_c, 1, 71, 69
3, 514522, Note_on_c, 1, 71, 0
3, 514566, Note_on_c, 1, 72, 72
3, 515488, Note_on_c, 1, 72, 0
3, 515520, Note_on_c, 1, 74, 74
3, 516442, Note_on_c, 1, 74, 0
3, 516480, Note_on_c, 1, 77, 77
3, 517402, Note_on_c, 1, 77, 0
3, 517440, Note_on_c, 1, 76, 79
3, 518362, Note_on_c, 1, 76, 0
3, 518400, Note_on_c, 1, 79, 82
3, 519322, Note_on_c, 1, 79, 0
3, 519360, Note_on_c, 1, 81, 84
3, 520282, Note_on_c, 1, 81, 0
3, 520320, Note_on_c, 1, 84, 86
3, 521280, Note_on_c, 1, 84, 0
3, 521280, Note_on_c, 1, 83, 89
3, 522240, Note_on_c, 1, 83, 0
3, 523440, Note_on_c, 1, 81, 94
3, 523560, Note_on_c, 1, 81, 0
3, 523680, Note_on_c, 1, 74, 95
3, 523800, Note_on_c, 1, 74, 0
3, 523920, Note_on_c, 1, 77, 96
3, 523920, Note_on_c, 1, 71, 96
3, 524004, Note_on_c, 1, 71, 0
3, 524004, Note_on_c, 1, 77, 0
3, 524040, Note_on_c, 1, 69, 96
3, 524124, Note_on_c, 1, 69, 0
3, 524160, Note_on_c, 1, 67, 96
3, 524244, Note_on_c, 1, 67, 0
3, 524280, Note_on_c, 1, 69, 97
3, 524364, Note_on_c, 1, 69, 0
3, 524400, Note_on_c, 1, 71, 97
3, 524400, Note_on_c, 1, 67, 97
3, 524484, Note_on_c, 1, 67, 0
3, 524484, Note_on_c, 1, 71, 0
3, 524520, Note_on_c, 1, 65, 97
3, 524604, Note_on_c, 1, 65, 0
3, 524640, Note_on_c, 1, 64, 98
3, 524724, Note_on_c, 1, 64, 0
3, 524760, Note_on_c, 1, 65, 98
3, 524844, Note_on_c, 1, 65, 0
3, 524880, Note_on_c, 1, 64, 98
3, 524880, Note_on_c, 1, 74, 98
3, 524964, Note_on_c, 1, 74, 0
3, 524964, Note_on_c, 1, 64, 0
3, 525000, Note_on_c, 1, 62, 98
3, 525084, Note_on_c, 1, 62, 0
3, 525120, Note_on_c, 1, 60, 99
3, 525120, Note_on_c, 1, 74, 99
3, 525180, Note_on_c, 1, 74, 0
3, 525180, Note_on_c, 1, 60, 0
3, 525180, Note_on_c, 1, 72, 99
3, 525240, Note_on_c, 1, 74, 99
3, 525300, Note_on_c, 1, 74, 0
3, 525300, Note_on_c, 1, 72, 99
3, 525360, Note_on_c, 1, 72, 0
3, 525480, Note_on_c, 1, 74, 100
3, 525540, Note_on_c, 1, 74, 0
3, 525600, Note_on_c, 1, 72, 100
3, 525600, Note_on_c, 1, 76, 100
3, 525984, Note_on_c, 1, 76, 0
3, 525984, Note_on_c, 1, 72, 0
3, 526080, Note_on_c, 1, 71, 101
3, 526560, Note_on_c, 1, 71, 0
3, 526560, Note_on_c, 1, 79, 102
3, 526560, Note_on_c, 1, 76, 102
3, 526785, Note_on_c, 1, 76, 0
3, 526785, Note_on_c, 1, 79, 0
3, 527040, Note_on_c, 1, 79, 104
3, 527160, Note_on_c, 1, 74, 104
3, 527220, Note_on_c, 1, 74, 0
3, 527280, Note_on_c, 1, 72, 104
3, 527340, Note_on_c, 1, 72, 0
3, 527400, Note_on_c, 1, 71, 105
3, 527460, Note_on_c, 1, 71, 0
3, 527520, Note_on_c, 1, 72, 105
3, 527580, Note_on_c, 1, 72, 0
3, 527640, Note_on_c, 1, 71, 105
3, 527700, Note_on_c, 1, 71, 0
3, 527760, Note_on_c, 1, 79, 0
3, 527760, Note_on_c, 1, 78, 106
3, 527760, Note_on_c, 1, 69, 106
3, 527820, Note_on_c, 1, 69, 0
3, 527820, Note_on_c, 1, 78, 0
3, 527880, Note_on_c, 1, 67, 106
3, 527880, Note_on_c, 1, 76, 106
3, 527940, Note_on_c, 1, 76, 0
3, 527940, Note_on_c, 1, 67, 0
3, 528000, Note_on_c, 1, 66, 106
3, 528336, Note_on_c, 1, 66, 0
3, 528480, Note_on_c, 1, 74, 107
3, 528816, Note_on_c, 1, 74, 0
3, 528960, Note_on_c, 1, 67, 109
3, 529296, Note_on_c, 1, 67, 0
3, 529440, Note_on_c, 1, 79, 110
3, 529776, Note_on_c, 1, 79, 0
3, 529920, Note_on_c, 1, 76, 111
3, 530256, Note_on_c, 1, 76, 0
3, 530400, Note_on_c, 1, 81, 112
3, 530998, Note_on_c, 1, 81, 0
3, 531000, Note_on_c, 1, 79, 114
3, 531120, Note_on_c, 1, 79, 0
3, 531120, Note_on_c, 1, 77, 114
3, 531240, Note_on_c, 1, 77, 0
3, 531240, Note_on_c, 1, 76, 114
3, 531360, Note_on_c, 1, 76, 0
3, 531360, Note_on_c, 1, 77, 115
3, 531480, Note_on_c, 1, 77, 0
3, 531480, Note_on_c, 1, 76, 115
3, 531600, Note_on_c, 1, 76, 0
3, 531600, Note_on_c, 1, 74, 115
3, 531720, Note_on_c, 1, 74, 0
3, 531840, Note_on_c, 1, 72, 0
3, 531840, Note_on_c, 1, 71, 116
3, 531840, Note_on_c, 1, 65, 116
3, 532176, Note_on_c, 1, 71, 0
3, 532320, Note_on_c, 1, 79, 117
3, 532656, Note_on_c, 1, 65, 0
3, 532800, Note_on_c, 1, 64, 118
3, 533136, Note_on_c, 1, 64, 0
3, 533136, Note_on_c, 1, 79, 0
3, 533280, Note_on_c, 1, 76, 120
3, 533280, Note_on_c, 1, 81, 120
3, 533741, Note_on_c, 1, 81, 0
3, 533741, Note_on_c, 1, 76, 0
3, 533760, Note_on_c, 1, 81, 121
3, 533760, Note_on_c, 1, 77, 121
3, 534682, Note_on_c, 1, 77, 0
3, 534682, Note_on_c, 1, 81, 0
3, 534720, Note_on_c, 1, 83, 123
3, 534720, Note_on_c, 1, 74, 123
3, 535181, Note_on_c, 1, 74, 0
3, 535200, Note_on_c, 1, 79, 125
3, 535661, Note_on_c, 1, 79, 0
3, 535661, Note_on_c, 1, 83, 0
3, 535680, Note_on_c, 1, 84, 126
3, 535680, Note_on_c, 1, 79, 126
3, 535800, Note_on_c, 1, 79, 0
3, 535800, Note_on_c, 1, 84, 0
3, 535920, Note_on_c, 1, 81, 127
3, 535920, Note_on_c, 1, 72, 127
3, 536030, Note_on_c, 1, 72, 0
3, 536040, Note_on_c, 1, 81, 0
3, 536160, Note_on_c, 1, 81, 127
3, 536160, Note_on_c, 1, 72, 127
3, 536270, Note_on_c, 1, 72, 0
3, 536280, Note_on_c, 1, 81, 0
3, 536400, Note_on_c, 1, 81, 127
3, 536406, Note_on_c, 1, 72, 127
3, 536516, Note_on_c, 1, 72, 0
3, 536520, Note_on_c, 1, 81, 0
3, 536640, Note_on_c, 1, 81, 127
3, 536640, Note_on_c, 1, 72, 127
3, 537360, Note_on_c, 1, 81, 0
3, 537360, Note_on_c, 1, 79, 127
3, 537360, Note_on_c, 1, 71, 127
3, 537366, Note_on_c, 1, 72, 0
3, 537420, Note_on_c, 1, 71, 0
3, 537420, Note_on_c, 1, 79, 0
3, 537420, Note_on_c, 1, 77, 127
3, 537420, Note_on_c, 1, 69, 127
3, 537480, Note_on_c, 1, 69, 0
3, 537480, Note_on_c, 1, 77, 0
3, 537480, Note_on_c, 1, 76, 127
3, 537480, Note_on_c, 1, 67, 127
3, 537540, Note_on_c, 1, 67, 0
3, 537540, Note_on_c, 1, 76, 0
3, 537540, Note_on_c, 1, 65, 127
3, 537540, Note_on_c, 1, 74, 127
3, 537600, Note_on_c, 1, 74, 0
3, 537600, Note_on_c, 1, 65, 0
3, 537600, Note_on_c, 1, 64, 127
3, 537600, Note_on_c, 1, 72, 127
3, 537911, Note_on_c, 1, 72, 0
3, 537936, Note_on_c, 1, 64, 0
3, 538080, Note_on_c, 1, 71, 127
3, 538080, Note_on_c, 1, 74, 127
3, 538416, Note_on_c, 1, 74, 0
3, 538416, Note_on_c, 1, 71, 0
3, 538560, Note_on_c, 1, 76, 127
3, 538560, Note_on_c, 1, 72, 127
3, 538670, Note_on_c, 1, 72, 0
3, 538680, Note_on_c, 1, 76, 0
3, 538800, Note_on_c, 1, 81, 127
3, 538800, Note_on_c, 1, 72, 127
3, 538917, Note_on_c, 1, 72, 0
3, 538920, Note_on_c, 1, 81, 0
3, 539040, Note_on_c, 1, 81, 127
3, 539040, Note_on_c, 1, 72, 127
3, 539160, Note_on_c, 1, 81, 0
3, 539176, Note_on_c, 1, 72, 0
3, 539280, Note_on_c, 1, 81, 127
3, 539280, Note_on_c, 1, 72, 127
3, 539400, Note_on_c, 1, 72, 0
3, 539400, Note_on_c, 1, 81, 0
3, 539520, Note_on_c, 1, 81, 127
3, 539520, Note_on_c, 1, 72, 127
3, 540480, Note_on_c, 1, 81, 0
3, 540480, Note_on_c, 1, 79, 127
3, 540480, Note_on_c, 1, 76, 127
3, 540493, Note_on_c, 1, 72, 0
3, 540600, Note_on_c, 1, 76, 0
3, 540600, Note_on_c, 1, 79, 0
3, 540720, Note_on_c, 1, 76, 127
3, 540720, Note_on_c, 1, 72, 127
3, 540830, Note_on_c, 1, 72, 0
3, 540840, Note_on_c, 1, 76, 0
3, 540960, Note_on_c, 1, 77, 127
3, 540960, Note_on_c, 1, 74, 127
3, 541080, Note_on_c, 1, 74, 0
3, 541080, Note_on_c, 1, 77, 0
3, 541200, Note_on_c, 1, 71, 127
3, 541200, Note_on_c, 1, 74, 127
3, 541320, Note_on_c, 1, 74, 0
3, 541320, Note_on_c, 1, 71, 0
3, 541440, Note_on_c, 1, 72, 127
3, 541654, Note_on_c, 1, 72, 0
3, 541920, Note_on_c, 1, 72, 127
3, 542115, Note_on_c, 1, 72, 0
3, 542276, Note_on_c, 1, 72, 127
3, 542341, Note_on_c, 1, 72, 0
3, 542412, Note_on_c, 1, 72, 127
3, 543042, Note_on_c, 1, 72, 0
3, 543120, Note_on_c, 1, 71, 127
3, 543204, Note_on_c, 1, 71, 0
3, 543240, Note_on_c, 1, 69, 127
3, 543324, Note_on_c, 1, 69, 0
3, 543360, Note_on_c, 1, 67, 127
3, 543444, Note_on_c, 1, 67, 0
3, 543480, Note_on_c, 1, 69, 127
3, 543564, Note_on_c, 1, 69, 0
3, 543600, Note_on_c, 1, 67, 127
3, 543684, Note_on_c, 1, 67, 0
3, 543720, Note_on_c, 1, 65, 127
3, 543804, Note_on_c, 1, 65, 0
3, 543840, Note_on_c, 1, 64, 127
3, 543924, Note_on_c, 1, 64, 0
3, 543960, Note_on_c, 1, 65, 127
3, 544044, Note_on_c, 1, 65, 0
3, 544080, Note_on_c, 1, 64, 127
3, 544164, Note_on_c, 1, 64, 0
3, 544200, Note_on_c, 1, 62, 127
3, 544284, Note_on_c, 1, 62, 0
3, 544320, Note_on_c, 1, 60, 127
3, 544656, Note_on_c, 1, 60, 0
3, 544800, Note_on_c, 1, 60, 127
3, 544920, Note_on_c, 1, 60, 0
3, 545040, Note_on_c, 1, 60, 127
3, 545160, Note_on_c, 1, 60, 0
3, 545280, Note_on_c, 1, 64, 127
3, 545616, Note_on_c, 1, 64, 0
3, 545760, Note_on_c, 1, 64, 127
3, 545880, Note_on_c, 1, 64, 0
3, 546000, Note_on_c, 1, 64, 127
3, 546120, Note_on_c, 1, 64, 0
3, 546240, Note_on_c, 1, 67, 127
3, 546576, Note_on_c, 1, 67, 0
3, 546720, Note_on_c, 1, 67, 127
3, 546840, Note_on_c, 1, 67, 0
3, 546960, Note_on_c, 1, 67, 127
3, 547080, Note_on_c, 1, 67, 0
3, 547200, Note_on_c, 1, 72, 127
3, 547362, Note_on_c, 1, 72, 0
3, 547440, Note_on_c, 1, 76, 127
3, 547560, Note_on_c, 1, 76, 0
3, 547680, Note_on_c, 1, 79, 127
3, 547680, Note_on_c, 1, 76, 127
3, 547800, Note_on_c, 1, 76, 0
3, 547800, Note_on_c, 1, 79, 0
3, 548040, Note_on_c, 1, 76, 127
3, 548100, Note_on_c, 1, 76, 0
3, 548160, Note_on_c, 1, 79, 127
3, 548160, Note_on_c, 1, 76, 127
3, 548808, Note_on_c, 1, 76, 0
3, 548880, Note_on_c, 1, 74, 127
3, 548964, Note_on_c, 1, 74, 0
3, 548964, Note_on_c, 1, 79, 0
3, 549000, Note_on_c, 1, 72, 127
3, 549085, Note_on_c, 1, 72, 0
3, 549120, Note_on_c, 1, 71, 127
3, 549204, Note_on_c, 1, 71, 0
3, 549240, Note_on_c, 1, 72, 127
3, 549325, Note_on_c, 1, 72, 0
3, 549360, Note_on_c, 1, 71, 127
3, 549444, Note_on_c, 1, 71, 0
3, 549480, Note_on_c, 1, 69, 127
3, 549564, Note_on_c, 1, 69, 0
3, 549600, Note_on_c, 1, 67, 127
3, 549768, Note_on_c, 1, 67, 0
3, 549840, Note_on_c, 1, 69, 127
3, 549924, Note_on_c, 1, 69, 0
3, 549960, Note_on_c, 1, 71, 127
3, 550044, Note_on_c, 1, 71, 0
3, 550080, Note_on_c, 1, 72, 127
3, 550229, Note_on_c, 1, 72, 0
3, 550320, Note_on_c, 1, 79, 127
3, 550320, Note_on_c, 1, 83, 127
3, 550440, Note_on_c, 1, 83, 0
3, 550440, Note_on_c, 1, 79, 0
3, 550560, Note_on_c, 1, 79, 127
3, 550560, Note_on_c, 1, 84, 127
3, 550680, Note_on_c, 1, 84, 0
3, 550680, Note_on_c, 1, 79, 0
3, 550800, Note_on_c, 1, 83, 127
3, 550800, Note_on_c, 1, 79, 127
3, 550920, Note_on_c, 1, 79, 0
3, 550920, Note_on_c, 1, 83, 0
3, 551040, Note_on_c, 1, 79, 127
3, 551040, Note_on_c, 1, 84, 127
3, 551160, Note_on_c, 1, 84, 0
3, 551160, Note_on_c, 1, 79, 0
3, 551280, Note_on_c, 1, 79, 127
3, 551280, Note_on_c, 1, 83, 127
3, 551400, Note_on_c, 1, 83, 0
3, 551400, Note_on_c, 1, 79, 0
3, 551520, Note_on_c, 1, 79, 127
3, 551520, Note_on_c, 1, 84, 127
3, 551640, Note_on_c, 1, 84, 0
3, 551640, Note_on_c, 1, 79, 0
3, 551760, Note_on_c, 1, 83, 127
3, 551760, Note_on_c, 1, 79, 127
3, 551880, Note_on_c, 1, 79, 0
3, 551880, Note_on_c, 1, 83, 0
3, 552000, Note_on_c, 1, 79, 127
3, 552000, Note_on_c, 1, 84, 127
3, 552480, Note_on_c, 1, 84, 0
3, 552480, Note_on_c, 1, 79, 0
3, 552960, Note_on_c, 1, 76, 127
3, 552960, Note_on_c, 1, 72, 127
3, 553284, Note_on_c, 1, 72, 0
3, 553296, Note_on_c, 1, 76, 0
3, 553440, Note_on_c, 1, 79, 127
3, 553440, Note_on_c, 1, 76, 127
3, 553776, Note_on_c, 1, 76, 0
3, 553776, Note_on_c, 1, 79, 0
3, 553920, Note_on_c, 1, 76, 127
3, 553920, Note_on_c, 1, 72, 127
3, 554496, Note_on_c, 1, 76, 0
3, 554504, Note_on_c, 1, 72, 0
3, 554880, Note_on_c, 1, 76, 127
3, 554880, Note_on_c, 1, 72, 127
3, 555240, Note_on_c, 1, 76, 0
3, 555256, Note_on_c, 1, 72, 0
3, 555360, Note_on_c, 1, 79, 127
3, 555360, Note_on_c, 1, 76, 127
3, 555720, Note_on_c, 1, 76, 0
3, 555720, Note_on_c, 1, 79, 0
3, 555840, Note_on_c, 1, 76, 127
3, 555840, Note_on_c, 1, 72, 127
3, 556320, Note_on_c, 1, 72, 0
3, 556320, Note_on_c, 1, 76, 0
3, 556320, End_track
4, 0, Start_track
4, 0, Title_t, "Bassoons"
4, 0, Program_c, 2, 70
4, 0, Control_c, 2, 7, 90
4, 0, Control_c, 2, 10, 70
4, 8160, Note_on_c, 2, 60, 100
4, 9120, Note_on_c, 2, 60, 0
4, 9120, Note_on_c, 2, 59, 100
4, 9600, Note_on_c, 2, 59, 0
4, 10080, Note_on_c, 2, 62, 100
4, 11040, Note_on_c, 2, 62, 0
4, 11040, Note_on_c, 2, 60, 100
4, 11520, Note_on_c, 2, 60, 0
4, 11760, Note_on_c, 2, 53, 127
4, 11880, Note_on_c, 2, 53, 0
4, 12000, Note_on_c, 2, 53, 127
4, 12120, Note_on_c, 2, 53, 0
4, 12240, Note_on_c, 2, 53, 127
4, 12360, Note_on_c, 2, 53, 0
4, 12480, Note_on_c, 2, 53, 127
4, 12720, Note_on_c, 2, 53, 0
4, 12720, Note_on_c, 2, 53, 127
4, 12960, Note_on_c, 2, 53, 0
4, 12960, Note_on_c, 2, 53, 127
4, 13200, Note_on_c, 2, 53, 0
4, 13200, Note_on_c, 2, 53, 127
4, 13440, Note_on_c, 2, 53, 0
4, 13440, Note_on_c, 2, 55, 127
4, 13560, Note_on_c, 2, 55, 0
4, 13680, Note_on_c, 2, 55, 127
4, 13800, Note_on_c, 2, 55, 0
4, 13920, Note_on_c, 2, 43, 127
4, 14040, Note_on_c, 2, 43, 0
4, 14160, Note_on_c, 2, 43, 127
4, 14280, Note_on_c, 2, 43, 0
4, 14400, Note_on_c, 2, 48, 127
4, 14520, Note_on_c, 2, 48, 0
4, 14640, Note_on_c, 2, 41, 127
4, 14760, Note_on_c, 2, 41, 0
4, 14880, Note_on_c, 2, 53, 127
4, 15000, Note_on_c, 2, 53, 0
4, 15120, Note_on_c, 2, 53, 127
4, 15240, Note_on_c, 2, 53, 0
4, 15360, Note_on_c, 2, 53, 127
4, 15480, Note_on_c, 2, 53, 0
4, 15600, Note_on_c, 2, 53, 127
4, 15720, Note_on_c, 2, 53, 0
4, 15840, Note_on_c, 2, 53, 127
4, 15960, Note_on_c, 2, 53, 0
4, 16080, Note_on_c, 2, 53, 127
4, 16200, Note_on_c, 2, 53, 0
4, 16320, Note_on_c, 2, 55, 127
4, 16440, Note_on_c, 2, 55, 0
4, 16560, Note_on_c, 2, 55, 127
4, 16680, Note_on_c, 2, 55, 0
4, 16800, Note_on_c, 2, 43, 127
4, 16920, Note_on_c, 2, 43, 0
4, 17040, Note_on_c, 2, 43, 127
4, 17160, Note_on_c, 2, 43, 0
4, 17280, Note_on_c, 2, 48, 127
4, 17520, Note_on_c, 2, 48, 0
4, 17760, Note_on_c, 2, 60, 127
4, 17985, Note_on_c, 2, 60, 0
4, 18120, Note_on_c, 2, 60, 127
4, 18240, Note_on_c, 2, 60, 0
4, 18240, Note_on_c, 2, 60, 127
4, 18960, Note_on_c, 2, 60, 0
4, 18960, Note_on_c, 2, 59, 127
4, 19080, Note_on_c, 2, 59, 0
4, 19080, Note_on_c, 2, 57, 127
4, 19200, Note_on_c, 2, 57, 0
4, 19200, Note_on_c, 2, 55, 127
4, 19284, Note_on_c, 2, 55, 0
4, 19320, Note_on_c, 2, 57, 127
4, 19404, Note_on_c, 2, 57, 0
4, 19440, Note_on_c, 2, 55, 127
4, 19524, Note_on_c, 2, 55, 0
4, 19560, Note_on_c, 2, 53, 127
4, 19644, Note_on_c, 2, 53, 0
4, 19680, Note_on_c, 2, 52, 127
4, 19764, Note_on_c, 2, 52, 0
4, 19800, Note_on_c, 2, 53, 127
4, 19884, Note_on_c, 2, 53, 0
4, 19920, Note_on_c, 2, 52, 127
4, 20004, Note_on_c, 2, 52, 0
4, 20040, Note_on_c, 2, 50, 127
4, 20124, Note_on_c, 2, 50, 0
4, 20160, Note_on_c, 2, 48, 127
4, 20496, Note_on_c, 2, 48, 0
4, 20640, Note_on_c, 2, 48, 127
4, 20760, Note_on_c, 2, 48, 0
4, 20880, Note_on_c, 2, 48, 127
4, 21000, Note_on_c, 2, 48, 0
4, 21120, Note_on_c, 2, 52, 127
4, 21600, Note_on_c, 2, 52, 0
4, 21600, Note_on_c, 2, 52, 127
4, 21720, Note_on_c, 2, 52, 0
4, 21840, Note_on_c, 2, 52, 127
4, 21960, Note_on_c, 2, 52, 0
4, 22080, Note_on_c, 2, 55, 127
4, 22560, Note_on_c, 2, 55, 0
4, 22560, Note_on_c, 2, 55, 127
4, 22680, Note_on_c, 2, 55, 0
4, 22800, Note_on_c, 2, 55, 127
4, 22920, Note_on_c, 2, 55, 0
4, 23040, Note_on_c, 2, 60, 127
4, 23280, Note_on_c, 2, 60, 0
4, 23520, Note_on_c, 2, 60, 127
4, 23745, Note_on_c, 2, 60, 0
4, 23880, Note_on_c, 2, 60, 127
4, 24000, Note_on_c, 2, 60, 0
4, 24000, Note_on_c, 2, 60, 127
4, 24648, Note_on_c, 2, 60, 0
4, 24720, Note_on_c, 2, 59, 127
4, 24804, Note_on_c, 2, 59, 0
4, 24840, Note_on_c, 2, 57, 127
4, 24924, Note_on_c, 2, 57, 0
4, 24960, Note_on_c, 2, 55, 127
4, 25044, Note_on_c, 2, 55, 0
4, 25080, Note_on_c, 2, 57, 127
4, 25164, Note_on_c, 2, 57, 0
4, 25200, Note_on_c, 2, 55, 127
4, 25284, Note_on_c, 2, 55, 0
4, 25320, Note_on_c, 2, 53, 127
4, 25404, Note_on_c, 2, 53, 0
4, 25440, Note_on_c, 2, 52, 127
4, 25524, Note_on_c, 2, 52, 0
4, 25560, Note_on_c, 2, 53, 127
4, 25644, Note_on_c, 2, 53, 0
4, 25680, Note_on_c, 2, 52, 127
4, 25764, Note_on_c, 2, 52, 0
4, 25800, Note_on_c, 2, 50, 127
4, 25884, Note_on_c, 2, 50, 0
4, 25920, Note_on_c, 2, 48, 127
4, 26040, Note_on_c, 2, 48, 0
4, 26160, Note_on_c, 2, 55, 127
4, 26280, Note_on_c, 2, 55, 0
4, 26400, Note_on_c, 2, 60, 127
4, 26520, Note_on_c, 2, 60, 0
4, 26640, Note_on_c, 2, 55, 127
4, 26760, Note_on_c, 2, 55, 0
4, 26880, Note_on_c, 2, 60, 127
4, 27000, Note_on_c, 2, 60, 0
4, 27120, Note_on_c, 2, 55, 127
4, 27240, Note_on_c, 2, 55, 0
4, 27360, Note_on_c, 2, 60, 127
4, 27480, Note_on_c, 2, 60, 0
4, 27600, Note_on_c, 2, 55, 127
4, 27720, Note_on_c, 2, 55, 0
4, 27840, Note_on_c, 2, 60, 127
4, 27924, Note_on_c, 2, 60, 0
4, 27960, Note_on_c, 2, 59, 127
4, 28044, Note_on_c, 2, 59, 0
4, 28080, Note_on_c, 2, 57, 127
4, 28164, Note_on_c, 2, 57, 0
4, 28200, Note_on_c, 2, 55, 127
4, 28284, Note_on_c, 2, 55, 0
4, 28320, Note_on_c, 2, 60, 127
4, 28404, Note_on_c, 2, 60, 0
4, 28440, Note_on_c, 2, 59, 127
4, 28524, Note_on_c, 2, 59, 0
4, 28560, Note_on_c, 2, 57, 127
4, 28644, Note_on_c, 2, 57, 0
4, 28680, Note_on_c, 2, 55, 127
4, 28764, Note_on_c, 2, 55, 0
4, 28800, Note_on_c, 2, 60, 127
4, 28884, Note_on_c, 2, 60, 0
4, 28920, Note_on_c, 2, 59, 127
4, 29004, Note_on_c, 2, 59, 0
4, 29040, Note_on_c, 2, 57, 127
4, 29124, Note_on_c, 2, 57, 0
4, 29160, Note_on_c, 2, 55, 127
4, 29244, Note_on_c, 2, 55, 0
4, 29280, Note_on_c, 2, 53, 127
4, 29364, Note_on_c, 2, 53, 0
4, 29400, Note_on_c, 2, 52, 127
4, 29484, Note_on_c, 2, 52, 0
4, 29520, Note_on_c, 2, 50, 127
4, 29604, Note_on_c, 2, 50, 0
4, 29640, Note_on_c, 2, 48, 127
4, 29724, Note_on_c, 2, 48, 0
4, 29760, Note_on_c, 2, 43, 127
4, 29880, Note_on_c, 2, 43, 0
4, 30000, Note_on_c, 2, 55, 127
4, 30120, Note_on_c, 2, 55, 0
4, 30240, Note_on_c, 2, 55, 127
4, 30360, Note_on_c, 2, 55, 0
4, 30480, Note_on_c, 2, 55, 127
4, 30600, Note_on_c, 2, 55, 0
4, 30720, Note_on_c, 2, 55, 127
4, 30840, Note_on_c, 2, 55, 0
4, 30960, Note_on_c, 2, 55, 127
4, 31080, Note_on_c, 2, 55, 0
4, 31200, Note_on_c, 2, 55, 127
4, 31320, Note_on_c, 2, 55, 0
4, 31440, Note_on_c, 2, 55, 127
4, 31560, Note_on_c, 2, 55, 0
4, 31680, Note_on_c, 2, 55, 127
4, 31800, Note_on_c, 2, 55, 0
4, 31920, Note_on_c, 2, 55, 127
4, 32040, Note_on_c, 2, 55, 0
4, 32160, Note_on_c, 2, 55, 127
4, 32280, Note_on_c, 2, 55, 0
4, 32400, Note_on_c, 2, 55, 127
4, 32520, Note_on_c, 2, 55, 0
4, 32640, Note_on_c, 2, 55, 127
4, 33120, Note_on_c, 2, 55, 0
4, 49920, Note_on_c, 2, 64, 100
4, 50160, Note_on_c, 2, 64, 0
4, 50400, Note_on_c, 2, 60, 100
4, 50520, Note_on_c, 2, 60, 0
4, 50640, Note_on_c, 2, 59, 100
4, 50760, Note_on_c, 2, 59, 0
4, 50880, Note_on_c, 2, 57, 100
4, 51120, Note_on_c, 2, 57, 0
4, 51360, Note_on_c, 2, 65, 100
4, 51480, Note_on_c, 2, 65, 0
4, 51600, Note_on_c, 2, 64, 100
4, 51720, Note_on_c, 2, 64, 0
4, 51840, Note_on_c, 2, 62, 100
4, 51960, Note_on_c, 2, 62, 0
4, 52080, Note_on_c, 2, 59, 100
4, 52200, Note_on_c, 2, 59, 0
4, 52320, Note_on_c, 2, 60, 100
4, 52440, Note_on_c, 2, 60, 0
4, 52560, Note_on_c, 2, 62, 100
4, 52680, Note_on_c, 2, 62, 0
4, 52800, Note_on_c, 2, 55, 100
4, 53280, Note_on_c, 2, 55, 0
4, 53760, Note_on_c, 2, 64, 100
4, 53760, Note_on_c, 2, 60, 100
4, 54720, Note_on_c, 2, 64, 0
4, 54720, Note_on_c, 2, 62, 100
4, 55678, Note_on_c, 2, 60, 0
4, 55680, Note_on_c, 2, 59, 100
4, 56638, Note_on_c, 2, 62, 0
4, 56640, Note_on_c, 2, 60, 100
4, 57598, Note_on_c, 2, 59, 0
4, 57600, Note_on_c, 2, 57, 100
4, 58558, Note_on_c, 2, 60, 0
4, 58560, Note_on_c, 2, 59, 100
4, 59040, Note_on_c, 2, 57, 0
4, 59040, Note_on_c, 2, 55, 113
4, 60000, Note_on_c, 2, 59, 0
4, 60000, Note_on_c, 2, 61, 127
4, 60480, Note_on_c, 2, 61, 0
4, 60480, Note_on_c, 2, 55, 0
4, 60480, Note_on_c, 2, 54, 127
4, 60480, Note_on_c, 2, 62, 127
4, 60930, Note_on_c, 2, 62, 0
4, 60930, Note_on_c, 2, 54, 0
4, 61440, Note_on_c, 2, 62, 127
4, 61665, Note_on_c, 2, 62, 0
4, 61800, Note_on_c, 2, 62, 127
4, 61920, Note_on_c, 2, 62, 0
4, 61920, Note_on_c, 2, 62, 127
4, 62568, Note_on_c, 2, 62, 0
4, 62640, Note_on_c, 2, 61, 127
4, 62724, Note_on_c, 2, 61, 0
4, 62760, Note_on_c, 2, 59, 127
4, 62844, Note_on_c, 2, 59, 0
4, 62880, Note_on_c, 2, 57, 127
4, 62964, Note_on_c, 2, 57, 0
4, 63000, Note_on_c, 2, 59, 127
4, 63084, Note_on_c, 2, 59, 0
4, 63120, Note_on_c, 2, 57, 127
4, 63204, Note_on_c, 2, 57, 0
4, 63240, Note_on_c, 2, 55, 127
4, 63324, Note_on_c, 2, 55, 0
4, 63360, Note_on_c, 2, 54, 127
4, 63444, Note_on_c, 2, 54, 0
4, 63480, Note_on_c, 2, 55, 127
4, 63564, Note_on_c, 2, 55, 0
4, 63600, Note_on_c, 2, 54, 127
4, 63684, Note_on_c, 2, 54, 0
4, 63720, Note_on_c, 2, 52, 127
4, 63804, Note_on_c, 2, 52, 0
4, 63840, Note_on_c, 2, 50, 127
4, 64080, Note_on_c, 2, 50, 0
4, 64320, Note_on_c, 2, 62, 127
4, 64545, Note_on_c, 2, 62, 0
4, 64680, Note_on_c, 2, 62, 127
4, 64800, Note_on_c, 2, 62, 0
4, 64800, Note_on_c, 2, 62, 127
4, 65448, Note_on_c, 2, 62, 0
4, 65520, Note_on_c, 2, 61, 127
4, 65604, Note_on_c, 2, 61, 0
4, 65640, Note_on_c, 2, 59, 127
4, 65724, Note_on_c, 2, 59, 0
4, 65760, Note_on_c, 2, 57, 127
4, 65844, Note_on_c, 2, 57, 0
4, 65880, Note_on_c, 2, 59, 127
4, 65964, Note_on_c, 2, 59, 0
4, 66000, Note_on_c, 2, 57, 127
4, 66084, Note_on_c, 2, 57, 0
4, 66120, Note_on_c, 2, 55, 127
4, 66204, Note_on_c, 2, 55, 0
4, 66240, Note_on_c, 2, 54, 127
4, 66324, Note_on_c, 2, 54, 0
4, 66360, Note_on_c, 2, 55, 127
4, 66444, Note_on_c, 2, 55, 0
4, 66480, Note_on_c, 2, 54, 127
4, 66564, Note_on_c, 2, 54, 0
4, 66600, Note_on_c, 2, 52, 127
4, 66684, Note_on_c, 2, 52, 0
4, 66720, Note_on_c, 2, 50, 127
4, 66804, Note_on_c, 2, 50, 0
4, 66840, Note_on_c, 2, 52, 127
4, 66924, Note_on_c, 2, 52, 0
4, 66960, Note_on_c, 2, 54, 127
4, 67044, Note_on_c, 2, 54, 0
4, 67080, Note_on_c, 2, 55, 127
4, 67164, Note_on_c, 2, 55, 0
4, 67200, Note_on_c, 2, 57, 127
4, 67284, Note_on_c, 2, 57, 0
4, 67320, Note_on_c, 2, 59, 127
4, 67404, Note_on_c, 2, 59, 0
4, 67440, Note_on_c, 2, 57, 127
4, 67524, Note_on_c, 2, 57, 0
4, 67560, Note_on_c, 2, 55, 127
4, 67644, Note_on_c, 2, 55, 0
4, 67680, Note_on_c, 2, 54, 127
4, 67764, Note_on_c, 2, 54, 0
4, 67800, Note_on_c, 2, 55, 127
4, 67884, Note_on_c, 2, 55, 0
4, 67920, Note_on_c, 2, 57, 127
4, 68004, Note_on_c, 2, 57, 0
4, 68040, Note_on_c, 2, 55, 127
4, 68124, Note_on_c, 2, 55, 0
4, 68160, Note_on_c, 2, 54, 127
4, 68400, Note_on_c, 2, 54, 0
4, 68400, Note_on_c, 2, 60, 127
4, 68640, Note_on_c, 2, 60, 0
4, 68640, Note_on_c, 2, 57, 127
4, 68880, Note_on_c, 2, 57, 0
4, 68880, Note_on_c, 2, 54, 127
4, 69120, Note_on_c, 2, 54, 0
4, 69120, Note_on_c, 2, 50, 127
4, 69600, Note_on_c, 2, 50, 0
4, 73200, Note_on_c, 2, 54, 50
4, 73200, Note_on_c, 2, 50, 50
4, 73296, Note_on_c, 2, 50, 0
4, 73296, Note_on_c, 2, 54, 0
4, 73440, Note_on_c, 2, 55, 50
4, 73440, Note_on_c, 2, 52, 50
4, 73536, Note_on_c, 2, 52, 0
4, 73536, Note_on_c, 2, 55, 0
4, 73680, Note_on_c, 2, 54, 50
4, 73680, Note_on_c, 2, 57, 50
4, 73776, Note_on_c, 2, 57, 0
4, 73776, Note_on_c, 2, 54, 0
4, 73920, Note_on_c, 2, 57, 50
4, 73920, Note_on_c, 2, 60, 50
4, 73980, Note_on_c, 2, 60, 0
4, 73980, Note_on_c, 2, 57, 0
4, 73980, Note_on_c, 2, 59, 50
4, 73980, Note_on_c, 2, 55, 50
4, 74040, Note_on_c, 2, 55, 0
4, 74040, Note_on_c, 2, 59, 0
4, 74040, Note_on_c, 2, 60, 50
4, 74040, Note_on_c, 2, 57, 50
4, 74100, Note_on_c, 2, 57, 0
4, 74100, Note_on_c, 2, 60, 0
4, 74100, Note_on_c, 2, 59, 50
4, 74100, Note_on_c, 2, 55, 50
4, 74160, Note_on_c, 2, 55, 0
4, 74160, Note_on_c, 2, 59, 0
4, 74280, Note_on_c, 2, 57, 50
4, 74280, Note_on_c, 2, 60, 50
4, 74364, Note_on_c, 2, 60, 0
4, 74364, Note_on_c, 2, 57, 0
4, 74400, Note_on_c, 2, 59, 50
4, 74400, Note_on_c, 2, 62, 50
4, 74784, Note_on_c, 2, 62, 0
4, 74784, Note_on_c, 2, 59, 0
4, 78960, Note_on_c, 2, 54, 50
4, 78960, Note_on_c, 2, 50, 50
4, 79056, Note_on_c, 2, 50, 0
4, 79056, Note_on_c, 2, 54, 0
4, 79200, Note_on_c, 2, 52, 50
4, 79200, Note_on_c, 2, 55, 50
4, 79296, Note_on_c, 2, 55, 0
4, 79296, Note_on_c, 2, 52, 0
4, 79440, Note_on_c, 2, 57, 50
4, 79440, Note_on_c, 2, 54, 50
4, 79536, Note_on_c, 2, 54, 0
4, 79536, Note_on_c, 2, 57, 0
4, 79680, Note_on_c, 2, 57, 50
4, 79680, Note_on_c, 2, 60, 50
4, 79740, Note_on_c, 2, 60, 0
4, 79740, Note_on_c, 2, 57, 0
4, 79740, Note_on_c, 2, 55, 50
4, 79740, Note_on_c, 2, 59, 50
4, 79800, Note_on_c, 2, 59, 0
4, 79800, Note_on_c, 2, 55, 0
4, 79800, Note_on_c, 2, 57, 50
4, 79800, Note_on_c, 2, 60, 50
4, 79860, Note_on_c, 2, 60, 0
4, 79860, Note_on_c, 2, 57, 0
4, 79860, Note_on_c, 2, 55, 50
4, 79860, Note_on_c, 2, 59, 50
4, 79920, Note_on_c, 2, 59, 0
4, 79920, Note_on_c, 2, 55, 0
4, 80040, Note_on_c, 2, 57, 50
4, 80040, Note_on_c, 2, 60, 50
4, 80124, Note_on_c, 2, 60, 0
4, 80124, Note_on_c, 2, 57, 0
4, 80160, Note_on_c, 2, 62, 50
4, 80160, Note_on_c, 2, 59, 50
4, 80544, Note_on_c, 2, 59, 0
4, 80544, Note_on_c, 2, 62, 0
4, 82800, Note_on_c, 2, 55, 50
4, 82896, Note_on_c, 2, 55, 0
4, 83040, Note_on_c, 2, 57, 50
4, 83136, Note_on_c, 2, 57, 0
4, 83280, Note_on_c, 2, 59, 50
4, 83376, Note_on_c, 2, 59, 0
4, 83520, Note_on_c, 2, 62, 50
4, 83580, Note_on_c, 2, 62, 0
4, 83580, Note_on_c, 2, 60, 50
4, 83640, Note_on_c, 2, 60, 0
4, 83640, Note_on_c, 2, 62, 50
4, 83700, Note_on_c, 2, 62, 0
4, 83700, Note_on_c, 2, 60, 50
4, 83760, Note_on_c, 2, 60, 0
4, 83880, Note_on_c, 2, 62, 50
4, 83964, Note_on_c, 2, 62, 0
4, 84000, Note_on_c, 2, 64, 50
4, 84384, Note_on_c, 2, 64, 0
4, 84720, Note_on_c, 2, 54, 50
4, 84816, Note_on_c, 2, 54, 0
4, 84960, Note_on_c, 2, 55, 50
4, 85056, Note_on_c, 2, 55, 0
4, 85200, Note_on_c, 2, 57, 50
4, 85296, Note_on_c, 2, 57, 0
4, 85440, Note_on_c, 2, 60, 50
4, 85500, Note_on_c, 2, 60, 0
4, 85500, Note_on_c, 2, 59, 50
4, 85560, Note_on_c, 2, 59, 0
4, 85560, Note_on_c, 2, 60, 50
4, 85620, Note_on_c, 2, 60, 0
4, 85620, Note_on_c, 2, 59, 50
4, 85680, Note_on_c, 2, 59, 0
4, 85800, Note_on_c, 2, 60, 50
4, 85884, Note_on_c, 2, 60, 0
4, 85920, Note_on_c, 2, 62, 50
4, 86304, Note_on_c, 2, 62, 0
4, 86640, Note_on_c, 2, 52, 50
4, 86736, Note_on_c, 2, 52, 0
4, 86880, Note_on_c, 2, 54, 50
4, 86976, Note_on_c, 2, 54, 0
4, 87120, Note_on_c, 2, 55, 50
4, 87216, Note_on_c, 2, 55, 0
4, 87360, Note_on_c, 2, 59, 50
4, 87420, Note_on_c, 2, 59, 0
4, 87420, Note_on_c, 2, 57, 50
4, 87480, Note_on_c, 2, 57, 0
4, 87480, Note_on_c, 2, 59, 50
4, 87540, Note_on_c, 2, 59, 0
4, 87540, Note_on_c, 2, 57, 50
4, 87600, Note_on_c, 2, 57, 0
4, 87720, Note_on_c, 2, 59, 50
4, 87804, Note_on_c, 2, 59, 0
4, 87840, Note_on_c, 2, 60, 50
4, 88224, Note_on_c, 2, 60, 0
4, 88560, Note_on_c, 2, 50, 50
4, 88680, Note_on_c, 2, 50, 0
4, 88800, Note_on_c, 2, 52, 50
4, 88920, Note_on_c, 2, 52, 0
4, 89040, Note_on_c, 2, 54, 50
4, 89160, Note_on_c, 2, 54, 0
4, 89280, Note_on_c, 2, 55, 127
4, 89784, Note_on_c, 2, 55, 0
4, 90720, Note_on_c, 2, 64, 127
4, 90720, Note_on_c, 2, 60, 127
4, 91056, Note_on_c, 2, 60, 0
4, 91056, Note_on_c, 2, 64, 0
4, 91200, Note_on_c, 2, 60, 127
4, 91200, Note_on_c, 2, 57, 127
4, 91536, Note_on_c, 2, 57, 0
4, 91536, Note_on_c, 2, 60, 0
4, 91680, Note_on_c, 2, 66, 127
4, 91680, Note_on_c, 2, 62, 127
4, 92016, Note_on_c, 2, 62, 0
4, 92016, Note_on_c, 2, 66, 0
4, 92640, Note_on_c, 2, 64, 127
4, 92640, Note_on_c, 2, 67, 127
4, 92976, Note_on_c, 2, 67, 0
4, 92976, Note_on_c, 2, 64, 0
4, 93120, Note_on_c, 2, 64, 127
4, 93120, Note_on_c, 2, 60, 127
4, 93456, Note_on_c, 2, 60, 0
4, 93456, Note_on_c, 2, 64, 0
4, 93600, Note_on_c, 2, 54, 127
4, 93600, Note_on_c, 2, 57, 127
4, 93936, Note_on_c, 2, 57, 0
4, 93936, Note_on_c, 2, 54, 0
4, 94560, Note_on_c, 2, 55, 127
4, 94560, Note_on_c, 2, 59, 127
4, 94896, Note_on_c, 2, 59, 0
4, 94896, Note_on_c, 2, 55, 0
4, 95040, Note_on_c, 2, 52, 127
4, 95040, Note_on_c, 2, 55, 127
4, 95376, Note_on_c, 2, 55, 0
4, 95376, Note_on_c, 2, 52, 0
4, 95520, Note_on_c, 2, 57, 127
4, 95520, Note_on_c, 2, 60, 127
4, 95856, Note_on_c, 2, 60, 0
4, 95856, Note_on_c, 2, 57, 0
4, 96480, Note_on_c, 2, 54, 127
4, 96480, Note_on_c, 2, 62, 127
4, 97440, Note_on_c, 2, 62, 0
4, 97440, Note_on_c, 2, 54, 0
4, 97440, Note_on_c, 2, 55, 127
4, 97440, Note_on_c, 2, 62, 127
4, 97776, Note_on_c, 2, 62, 0
4, 97776, Note_on_c, 2, 55, 0
4, 98400, Note_on_c, 2, 52, 127
4, 98400, Note_on_c, 2, 55, 127
4, 98736, Note_on_c, 2, 55, 0
4, 98736, Note_on_c, 2, 52, 0
4, 98880, Note_on_c, 2, 48, 127
4, 98880, Note_on_c, 2, 52, 127
4, 99216, Note_on_c, 2, 52, 0
4, 99216, Note_on_c, 2, 48, 0
4, 99360, Note_on_c, 2, 54, 127
4, 99360, Note_on_c, 2, 57, 127
4, 99696, Note_on_c, 2, 57, 0
4, 99696, Note_on_c, 2, 54, 0
4, 100320, Note_on_c, 2, 59, 127
4, 100320, Note_on_c, 2, 63, 127
4, 101280, Note_on_c, 2, 63, 0
4, 101280, Note_on_c, 2, 59, 0
4, 101280, Note_on_c, 2, 59, 127
4, 101280, Note_on_c, 2, 64, 127
4, 101616, Note_on_c, 2, 64, 0
4, 101616, Note_on_c, 2, 59, 0
4, 102240, Note_on_c, 2, 60, 127
4, 102240, Note_on_c, 2, 64, 127
4, 102576, Note_on_c, 2, 64, 0
4, 102576, Note_on_c, 2, 60, 0
4, 102720, Note_on_c, 2, 57, 127
4, 102720, Note_on_c, 2, 60, 127
4, 103056, Note_on_c, 2, 60, 0
4, 103056, Note_on_c, 2, 57, 0
4, 103200, Note_on_c, 2, 65, 127
4, 103200, Note_on_c, 2, 62, 127
4, 103764, Note_on_c, 2, 62, 0
4, 103764, Note_on_c, 2, 65, 0
4, 103800, Note_on_c, 2, 64, 127
4, 103800, Note_on_c, 2, 60, 127
4, 103884, Note_on_c, 2, 60, 0
4, 103884, Note_on_c, 2, 64, 0
4, 103920, Note_on_c, 2, 62, 127
4, 103920, Note_on_c, 2, 59, 127
4, 104004, Note_on_c, 2, 59, 0
4, 104004, Note_on_c, 2, 62, 0
4, 104040, Note_on_c, 2, 60, 127
4, 104040, Note_on_c, 2, 57, 127
4, 104124, Note_on_c, 2, 57, 0
4, 104124, Note_on_c, 2, 60, 0
4, 104160, Note_on_c, 2, 59, 127
4, 104160, Note_on_c, 2, 62, 127
4, 104244, Note_on_c, 2, 62, 0
4, 104244, Note_on_c, 2, 59, 0
4, 104280, Note_on_c, 2, 57, 127
4, 104280, Note_on_c, 2, 60, 127
4, 104364, Note_on_c, 2, 60, 0
4, 104364, Note_on_c, 2, 57, 0
4, 104400, Note_on_c, 2, 55, 127
4, 104400, Note_on_c, 2, 59, 127
4, 104484, Note_on_c, 2, 59, 0
4, 104484, Note_on_c, 2, 55, 0
4, 104520, Note_on_c, 2, 57, 127
4, 104520, Note_on_c, 2, 53, 127
4, 104604, Note_on_c, 2, 53, 0
4, 104604, Note_on_c, 2, 57, 0
4, 104640, Note_on_c, 2, 52, 127
4, 104640, Note_on_c, 2, 55, 127
4, 104880, Note_on_c, 2, 55, 0
4, 104880, Note_on_c, 2, 52, 0
4, 104880, Note_on_c, 2, 60, 127
4, 104964, Note_on_c, 2, 60, 0
4, 105000, Note_on_c, 2, 59, 127
4, 105084, Note_on_c, 2, 59, 0
4, 105120, Note_on_c, 2, 60, 127
4, 105204, Note_on_c, 2, 60, 0
4, 105240, Note_on_c, 2, 59, 127
4, 105324, Note_on_c, 2, 59, 0
4, 105360, Note_on_c, 2, 57, 127
4, 105444, Note_on_c, 2, 57, 0
4, 105480, Note_on_c, 2, 55, 127
4, 105564, Note_on_c, 2, 55, 0
4, 105600, Note_on_c, 2, 60, 127
4, 105768, Note_on_c, 2, 60, 0
4, 105840, Note_on_c, 2, 64, 127
4, 105924, Note_on_c, 2, 64, 0
4, 105960, Note_on_c, 2, 62, 127
4, 106044, Note_on_c, 2, 62, 0
4, 106080, Note_on_c, 2, 64, 127
4, 106164, Note_on_c, 2, 64, 0
4, 106200, Note_on_c, 2, 62, 127
4, 106284, Note_on_c, 2, 62, 0
4, 106320, Note_on_c, 2, 60, 127
4, 106404, Note_on_c, 2, 60, 0
4, 106440, Note_on_c, 2, 59, 127
4, 106524, Note_on_c, 2, 59, 0
4, 106560, Note_on_c, 2, 64, 127
4, 106728, Note_on_c, 2, 64, 0
4, 106800, Note_on_c, 2, 60, 127
4, 106884, Note_on_c, 2, 60, 0
4, 106920, Note_on_c, 2, 59, 127
4, 107004, Note_on_c, 2, 59, 0
4, 107040, Note_on_c, 2, 60, 127
4, 107124, Note_on_c, 2, 60, 0
4, 107160, Note_on_c, 2, 59, 127
4, 107244, Note_on_c, 2, 59, 0
4, 107280, Note_on_c, 2, 57, 127
4, 107364, Note_on_c, 2, 57, 0
4, 107400, Note_on_c, 2, 55, 127
4, 107484, Note_on_c, 2, 55, 0
4, 107520, Note_on_c, 2, 60, 127
4, 107688, Note_on_c, 2, 60, 0
4, 107760, Note_on_c, 2, 57, 127
4, 107844, Note_on_c, 2, 57, 0
4, 107880, Note_on_c, 2, 55, 127
4, 107964, Note_on_c, 2, 55, 0
4, 108000, Note_on_c, 2, 57, 127
4, 108084, Note_on_c, 2, 57, 0
4, 108120, Note_on_c, 2, 55, 127
4, 108204, Note_on_c, 2, 55, 0
4, 108240, Note_on_c, 2, 54, 127
4, 108324, Note_on_c, 2, 54, 0
4, 108360, Note_on_c, 2, 52, 127
4, 108480, Note_on_c, 2, 52, 0
4, 108480, Note_on_c, 2, 54, 127
4, 108720, Note_on_c, 2, 54, 0
4, 108720, Note_on_c, 2, 50, 127
4, 108960, Note_on_c, 2, 50, 0
4, 108960, Note_on_c, 2, 52, 127
4, 109200, Note_on_c, 2, 52, 0
4, 109200, Note_on_c, 2, 54, 127
4, 109440, Note_on_c, 2, 54, 0
4, 109440, Note_on_c, 2, 55, 127
4, 109680, Note_on_c, 2, 55, 0
4, 109680, Note_on_c, 2, 55, 127
4, 109920, Note_on_c, 2, 55, 0
4, 109920, Note_on_c, 2, 55, 127
4, 110160, Note_on_c, 2, 55, 0
4, 110160, Note_on_c, 2, 55, 127
4, 110400, Note_on_c, 2, 55, 0
4, 110400, Note_on_c, 2, 55, 127
4, 110520, Note_on_c, 2, 55, 0
4, 110640, Note_on_c, 2, 55, 127
4, 110760, Note_on_c, 2, 55, 0
4, 110880, Note_on_c, 2, 55, 127
4, 111000, Note_on_c, 2, 55, 0
4, 111120, Note_on_c, 2, 43, 127
4, 111240, Note_on_c, 2, 43, 0
4, 111360, Note_on_c, 2, 52, 127
4, 111480, Note_on_c, 2, 52, 0
4, 111600, Note_on_c, 2, 52, 127
4, 111720, Note_on_c, 2, 52, 0
4, 111840, Note_on_c, 2, 52, 127
4, 111960, Note_on_c, 2, 52, 0
4, 112080, Note_on_c, 2, 52, 127
4, 112200, Note_on_c, 2, 52, 0
4, 112320, Note_on_c, 2, 52, 127
4, 112440, Note_on_c, 2, 52, 0
4, 112560, Note_on_c, 2, 52, 127
4, 112680, Note_on_c, 2, 52, 0
4, 112800, Note_on_c, 2, 52, 127
4, 112920, Note_on_c, 2, 52, 0
4, 113040, Note_on_c, 2, 40, 127
4, 113160, Note_on_c, 2, 40, 0
4, 113280, Note_on_c, 2, 59, 127
4, 113400, Note_on_c, 2, 59, 0
4, 113520, Note_on_c, 2, 59, 127
4, 113640, Note_on_c, 2, 59, 0
4, 113760, Note_on_c, 2, 59, 127
4, 113880, Note_on_c, 2, 59, 0
4, 114000, Note_on_c, 2, 59, 127
4, 114120, Note_on_c, 2, 59, 0
4, 114240, Note_on_c, 2, 59, 127
4, 114360, Note_on_c, 2, 59, 0
4, 114480, Note_on_c, 2, 59, 127
4, 114600, Note_on_c, 2, 59, 0
4, 114720, Note_on_c, 2, 59, 127
4, 114840, Note_on_c, 2, 59, 0
4, 114960, Note_on_c, 2, 47, 127
4, 115080, Note_on_c, 2, 47, 0
4, 115200, Note_on_c, 2, 48, 127
4, 115320, Note_on_c, 2, 48, 0
4, 115440, Note_on_c, 2, 48, 127
4, 115560, Note_on_c, 2, 48, 0
4, 115680, Note_on_c, 2, 48, 127
4, 115800, Note_on_c, 2, 48, 0
4, 115920, Note_on_c, 2, 48, 127
4, 116040, Note_on_c, 2, 48, 0
4, 116160, Note_on_c, 2, 50, 127
4, 116280, Note_on_c, 2, 50, 0
4, 116400, Note_on_c, 2, 50, 127
4, 116520, Note_on_c, 2, 50, 0
4, 116640, Note_on_c, 2, 50, 127
4, 116760, Note_on_c, 2, 50, 0
4, 116880, Note_on_c, 2, 50, 127
4, 117000, Note_on_c, 2, 50, 0
4, 117120, Note_on_c, 2, 43, 127
4, 117240, Note_on_c, 2, 43, 0
4, 117360, Note_on_c, 2, 59, 127
4, 117480, Note_on_c, 2, 59, 0
4, 117600, Note_on_c, 2, 59, 127
4, 117720, Note_on_c, 2, 59, 0
4, 117840, Note_on_c, 2, 59, 127
4, 117960, Note_on_c, 2, 59, 0
4, 118080, Note_on_c, 2, 59, 127
4, 118800, Note_on_c, 2, 59, 0
4, 118800, Note_on_c, 2, 57, 127
4, 118860, Note_on_c, 2, 57, 0
4, 118860, Note_on_c, 2, 55, 127
4, 118920, Note_on_c, 2, 55, 0
4, 118920, Note_on_c, 2, 54, 127
4, 118980, Note_on_c, 2, 54, 0
4, 118980, Note_on_c, 2, 52, 127
4, 119040, Note_on_c, 2, 52, 0
4, 119040, Note_on_c, 2, 50, 127
4, 119160, Note_on_c, 2, 50, 0
4, 119280, Note_on_c, 2, 62, 127
4, 119400, Note_on_c, 2, 62, 0
4, 119520, Note_on_c, 2, 62, 127
4, 119640, Note_on_c, 2, 62, 0
4, 119760, Note_on_c, 2, 62, 127
4, 119880, Note_on_c, 2, 62, 0
4, 120000, Note_on_c, 2, 62, 127
4, 120720, Note_on_c, 2, 62, 0
4, 120720, Note_on_c, 2, 59, 127
4, 120780, Note_on_c, 2, 59, 0
4, 120780, Note_on_c, 2, 57, 127
4, 120840, Note_on_c, 2, 57, 0
4, 120840, Note_on_c, 2, 55, 127
4, 120900, Note_on_c, 2, 55, 0
4, 120900, Note_on_c, 2, 53, 127
4, 120960, Note_on_c, 2, 53, 0
4, 120960, Note_on_c, 2, 51, 127
4, 121080, Note_on_c, 2, 51, 0
4, 121200, Note_on_c, 2, 63, 127
4, 121320, Note_on_c, 2, 63, 0
4, 121440, Note_on_c, 2, 63, 127
4, 121560, Note_on_c, 2, 63, 0
4, 121680, Note_on_c, 2, 63, 127
4, 121800, Note_on_c, 2, 63, 0
4, 121920, Note_on_c, 2, 63, 127
4, 122568, Note_on_c, 2, 63, 0
4, 122640, Note_on_c, 2, 65, 127
4, 122880, Note_on_c, 2, 65, 0
4, 122880, Note_on_c, 2, 63, 127
4, 123120, Note_on_c, 2, 63, 0
4, 123120, Note_on_c, 2, 65, 127
4, 123360, Note_on_c, 2, 65, 0
4, 123360, Note_on_c, 2, 63, 127
4, 123600, Note_on_c, 2, 63, 0
4, 123600, Note_on_c, 2, 65, 127
4, 123840, Note_on_c, 2, 65, 0
4, 123840, Note_on_c, 2, 64, 127
4, 124488, Note_on_c, 2, 64, 0
4, 124560, Note_on_c, 2, 65, 127
4, 124800, Note_on_c, 2, 65, 0
4, 124800, Note_on_c, 2, 64, 127
4, 125040, Note_on_c, 2, 64, 0
4, 125040, Note_on_c, 2, 65, 127
4, 125280, Note_on_c, 2, 65, 0
4, 125280, Note_on_c, 2, 64, 127
4, 125520, Note_on_c, 2, 64, 0
4, 125520, Note_on_c, 2, 65, 127
4, 125760, Note_on_c, 2, 65, 0
4, 125760, Note_on_c, 2, 64, 127
4, 125880, Note_on_c, 2, 64, 0
4, 126000, Note_on_c, 2, 52, 127
4, 126120, Note_on_c, 2, 52, 0
4, 126240, Note_on_c, 2, 54, 127
4, 126360, Note_on_c, 2, 54, 0
4, 126480, Note_on_c, 2, 66, 127
4, 126600, Note_on_c, 2, 66, 0
4, 126720, Note_on_c, 2, 67, 127
4, 126840, Note_on_c, 2, 67, 0
4, 126960, Note_on_c, 2, 63, 127
4, 127080, Note_on_c, 2, 63, 0
4, 127200, Note_on_c, 2, 64, 127
4, 127320, Note_on_c, 2, 64, 0
4, 127440, Note_on_c, 2, 59, 127
4, 127560, Note_on_c, 2, 59, 0
4, 127680, Note_on_c, 2, 60, 127
4, 127920, Note_on_c, 2, 60, 0
4, 127920, Note_on_c, 2, 57, 127
4, 128160, Note_on_c, 2, 57, 0
4, 128160, Note_on_c, 2, 62, 127
4, 128400, Note_on_c, 2, 62, 0
4, 128400, Note_on_c, 2, 50, 127
4, 128640, Note_on_c, 2, 50, 0
4, 128640, Note_on_c, 2, 55, 127
4, 129120, Note_on_c, 2, 55, 0
4, 129600, Note_on_c, 2, 60, 127
4, 130198, Note_on_c, 2, 60, 0
4, 130560, Note_on_c, 2, 54, 127
4, 130800, Note_on_c, 2, 54, 0
4, 130800, Note_on_c, 2, 57, 127
4, 131040, Note_on_c, 2, 57, 0
4, 131040, Note_on_c, 2, 62, 127
4, 131638, Note_on_c, 2, 62, 0
4, 131640, Note_on_c, 2, 60, 127
4, 131760, Note_on_c, 2, 60, 0
4, 131760, Note_on_c, 2, 59, 127
4, 131880, Note_on_c, 2, 59, 0
4, 131880, Note_on_c, 2, 57, 127
4, 132000, Note_on_c, 2, 57, 0
4, 132000, Note_on_c, 2, 55, 127
4, 132240, Note_on_c, 2, 55, 0
4, 132480, Note_on_c, 2, 64, 127
4, 133078, Note_on_c, 2, 64, 0
4, 133080, Note_on_c, 2, 62, 127
4, 133200, Note_on_c, 2, 62, 0
4, 133200, Note_on_c, 2, 60, 127
4, 133320, Note_on_c, 2, 60, 0
4, 133320, Note_on_c, 2, 59, 127
4, 133440, Note_on_c, 2, 59, 0
4, 133440, Note_on_c, 2, 57, 127
4, 133560, Note_on_c, 2, 57, 0
4, 133680, Note_on_c, 2, 60, 127
4, 134130, Note_on_c, 2, 60, 0
4, 134160, Note_on_c, 2, 57, 127
4, 134244, Note_on_c, 2, 57, 0
4, 134280, Note_on_c, 2, 54, 127
4, 134364, Note_on_c, 2, 54, 0
4, 134400, Note_on_c, 2, 55, 127
4, 134640, Note_on_c, 2, 55, 0
4, 134640, Note_on_c, 2, 57, 127
4, 134724, Note_on_c, 2, 57, 0
4, 134760, Note_on_c, 2, 59, 127
4, 134844, Note_on_c, 2, 59, 0
4, 134880, Note_on_c, 2, 60, 127
4, 134964, Note_on_c, 2, 60, 0
4, 135000, Note_on_c, 2, 62, 127
4, 135084, Note_on_c, 2, 62, 0
4, 135120, Note_on_c, 2, 64, 127
4, 135204, Note_on_c, 2, 64, 0
4, 135240, Note_on_c, 2, 66, 127
4, 135324, Note_on_c, 2, 66, 0
4, 135360, Note_on_c, 2, 67, 127
4, 135924, Note_on_c, 2, 67, 0
4, 135960, Note_on_c, 2, 66, 127
4, 136044, Note_on_c, 2, 66, 0
4, 136080, Note_on_c, 2, 64, 127
4, 136164, Note_on_c, 2, 64, 0
4, 136200, Note_on_c, 2, 62, 127
4, 136284, Note_on_c, 2, 62, 0
4, 136320, Note_on_c, 2, 60, 127
4, 136404, Note_on_c, 2, 60, 0
4, 136440, Note_on_c, 2, 59, 127
4, 136524, Note_on_c, 2, 59, 0
4, 136560, Note_on_c, 2, 57, 127
4, 136644, Note_on_c, 2, 57, 0
4, 136680, Note_on_c, 2, 55, 127
4, 136764, Note_on_c, 2, 55, 0
4, 136800, Note_on_c, 2, 54, 127
4, 136884, Note_on_c, 2, 54, 0
4, 136920, Note_on_c, 2, 55, 127
4, 137004, Note_on_c, 2, 55, 0
4, 137040, Note_on_c, 2, 54, 127
4, 137124, Note_on_c, 2, 54, 0
4, 137160, Note_on_c, 2, 52, 127
4, 137244, Note_on_c, 2, 52, 0
4, 137280, Note_on_c, 2, 50, 127
4, 137760, Note_on_c, 2, 50, 0
4, 137760, Note_on_c, 2, 54, 127
4, 138240, Note_on_c, 2, 54, 0
4, 138240, Note_on_c, 2, 55, 127
4, 138360, Note_on_c, 2, 55, 0
4, 138480, Note_on_c, 2, 54, 127
4, 138600, Note_on_c, 2, 54, 0
4, 138720, Note_on_c, 2, 52, 127
4, 138840, Note_on_c, 2, 52, 0
4, 138960, Note_on_c, 2, 51, 127
4, 139080, Note_on_c, 2, 51, 0
4, 139200, Note_on_c, 2, 52, 127
4, 139320, Note_on_c, 2, 52, 0
4, 139440, Note_on_c, 2, 50, 127
4, 139560, Note_on_c, 2, 50, 0
4, 139680, Note_on_c, 2, 48, 127
4, 139800, Note_on_c, 2, 48, 0
4, 139920, Note_on_c, 2, 47, 127
4, 140040, Note_on_c, 2, 47, 0
4, 140160, Note_on_c, 2, 48, 127
4, 140280, Note_on_c, 2, 48, 0
4, 140400, Note_on_c, 2, 49, 127
4, 140520, Note_on_c, 2, 49, 0
4, 140640, Note_on_c, 2, 50, 127
4, 141120, Note_on_c, 2, 50, 0
4, 141120, Note_on_c, 2, 55, 127
4, 141240, Note_on_c, 2, 55, 0
4, 141360, Note_on_c, 2, 54, 127
4, 141480, Note_on_c, 2, 54, 0
4, 141600, Note_on_c, 2, 52, 127
4, 141720, Note_on_c, 2, 52, 0
4, 141840, Note_on_c, 2, 51, 127
4, 141960, Note_on_c, 2, 51, 0
4, 142080, Note_on_c, 2, 52, 127
4, 142200, Note_on_c, 2, 52, 0
4, 142320, Note_on_c, 2, 50, 127
4, 142440, Note_on_c, 2, 50, 0
4, 142560, Note_on_c, 2, 48, 127
4, 142680, Note_on_c, 2, 48, 0
4, 142800, Note_on_c, 2, 47, 127
4, 142920, Note_on_c, 2, 47, 0
4, 143040, Note_on_c, 2, 48, 127
4, 143160, Note_on_c, 2, 48, 0
4, 143280, Note_on_c, 2, 49, 127
4, 143400, Note_on_c, 2, 49, 0
4, 143520, Note_on_c, 2, 50, 127
4, 143640, Note_on_c, 2, 50, 0
4, 143760, Note_on_c, 2, 38, 127
4, 143880, Note_on_c, 2, 38, 0
4, 144000, Note_on_c, 2, 43, 127
4, 144480, Note_on_c, 2, 43, 0
4, 147360, Note_on_c, 2, 67, 50
4, 147585, Note_on_c, 2, 67, 0
4, 147720, Note_on_c, 2, 67, 50
4, 147840, Note_on_c, 2, 67, 0
4, 147840, Note_on_c, 2, 67, 50
4, 148488, Note_on_c, 2, 67, 0
4, 148560, Note_on_c, 2, 66, 50
4, 148644, Note_on_c, 2, 66, 0
4, 148680, Note_on_c, 2, 64, 50
4, 148764, Note_on_c, 2, 64, 0
4, 148800, Note_on_c, 2, 62, 50
4, 148884, Note_on_c, 2, 62, 0
4, 148920, Note_on_c, 2, 64, 50
4, 149004, Note_on_c, 2, 64, 0
4, 149040, Note_on_c, 2, 62, 50
4, 149124, Note_on_c, 2, 62, 0
4, 149160, Note_on_c, 2, 60, 50
4, 149244, Note_on_c, 2, 60, 0
4, 149280, Note_on_c, 2, 59, 50
4, 149364, Note_on_c, 2, 59, 0
4, 149400, Note_on_c, 2, 60, 50
4, 149484, Note_on_c, 2, 60, 0
4, 149520, Note_on_c, 2, 59, 50
4, 149604, Note_on_c, 2, 59, 0
4, 149640, Note_on_c, 2, 57, 50
4, 149724, Note_on_c, 2, 57, 0
4, 149760, Note_on_c, 2, 55, 50
4, 150240, Note_on_c, 2, 55, 0
4, 158880, Note_on_c, 2, 60, 103
4, 159840, Note_on_c, 2, 60, 0
4, 159840, Note_on_c, 2, 59, 110
4, 160320, Note_on_c, 2, 59, 0
4, 160800, Note_on_c, 2, 62, 116
4, 161760, Note_on_c, 2, 62, 0
4, 161760, Note_on_c, 2, 60, 123
4, 162240, Note_on_c, 2, 60, 0
4, 162480, Note_on_c, 2, 53, 127
4, 162600, Note_on_c, 2, 53, 0
4, 162720, Note_on_c, 2, 53, 127
4, 162840, Note_on_c, 2, 53, 0
4, 162960, Note_on_c, 2, 53, 127
4, 163080, Note_on_c, 2, 53, 0
4, 163200, Note_on_c, 2, 53, 127
4, 163440, Note_on_c, 2, 53, 0
4, 163440, Note_on_c, 2, 53, 127
4, 163680, Note_on_c, 2, 53, 0
4, 163680, Note_on_c, 2, 53, 127
4, 163920, Note_on_c, 2, 53, 0
4, 163920, Note_on_c, 2, 53, 127
4, 164160, Note_on_c, 2, 53, 0
4, 164160, Note_on_c, 2, 55, 127
4, 164280, Note_on_c, 2, 55, 0
4, 164400, Note_on_c, 2, 55, 127
4, 164520, Note_on_c, 2, 55, 0
4, 164640, Note_on_c, 2, 43, 127
4, 164760, Note_on_c, 2, 43, 0
4, 164880, Note_on_c, 2, 43, 127
4, 165000, Note_on_c, 2, 43, 0
4, 165120, Note_on_c, 2, 48, 127
4, 165240, Note_on_c, 2, 48, 0
4, 165360, Note_on_c, 2, 41, 127
4, 165480, Note_on_c, 2, 41, 0
4, 165600, Note_on_c, 2, 53, 127
4, 165720, Note_on_c, 2, 53, 0
4, 165840, Note_on_c, 2, 53, 127
4, 165960, Note_on_c, 2, 53, 0
4, 166080, Note_on_c, 2, 53, 127
4, 166200, Note_on_c, 2, 53, 0
4, 166320, Note_on_c, 2, 53, 127
4, 166440, Note_on_c, 2, 53, 0
4, 166560, Note_on_c, 2, 53, 127
4, 166680, Note_on_c, 2, 53, 0
4, 166800, Note_on_c, 2, 53, 127
4, 166920, Note_on_c, 2, 53, 0
4, 167040, Note_on_c, 2, 55, 127
4, 167160, Note_on_c, 2, 55, 0
4, 167280, Note_on_c, 2, 55, 127
4, 167400, Note_on_c, 2, 55, 0
4, 167520, Note_on_c, 2, 43, 127
4, 167640, Note_on_c, 2, 43, 0
4, 167760, Note_on_c, 2, 43, 127
4, 167880, Note_on_c, 2, 43, 0
4, 168000, Note_on_c, 2, 48, 127
4, 168240, Note_on_c, 2, 48, 0
4, 168480, Note_on_c, 2, 60, 127
4, 168705, Note_on_c, 2, 60, 0
4, 168840, Note_on_c, 2, 60, 127
4, 168960, Note_on_c, 2, 60, 0
4, 168960, Note_on_c, 2, 60, 127
4, 169680, Note_on_c, 2, 60, 0
4, 169680, Note_on_c, 2, 59, 127
4, 169800, Note_on_c, 2, 59, 0
4, 169800, Note_on_c, 2, 57, 127
4, 169920, Note_on_c, 2, 57, 0
4, 169920, Note_on_c, 2, 55, 127
4, 170004, Note_on_c, 2, 55, 0
4, 170040, Note_on_c, 2, 57, 127
4, 170124, Note_on_c, 2, 57, 0
4, 170160, Note_on_c, 2, 55, 127
4, 170244, Note_on_c, 2, 55, 0
4, 170280, Note_on_c, 2, 53, 127
4, 170364, Note_on_c, 2, 53, 0
4, 170400, Note_on_c, 2, 52, 127
4, 170484, Note_on_c, 2, 52, 0
4, 170520, Note_on_c, 2, 53, 127
4, 170604, Note_on_c, 2, 53, 0
4, 170640, Note_on_c, 2, 52, 127
4, 170724, Note_on_c, 2, 52, 0
4, 170760, Note_on_c, 2, 50, 127
4, 170844, Note_on_c, 2, 50, 0
4, 170880, Note_on_c, 2, 48, 127
4, 171216, Note_on_c, 2, 48, 0
4, 171360, Note_on_c, 2, 48, 127
4, 171480, Note_on_c, 2, 48, 0
4, 171600, Note_on_c, 2, 48, 127
4, 171720, Note_on_c, 2, 48, 0
4, 171840, Note_on_c, 2, 52, 127
4, 172320, Note_on_c, 2, 52, 0
4, 172320, Note_on_c, 2, 52, 127
4, 172440, Note_on_c, 2, 52, 0
4, 172560, Note_on_c, 2, 52, 127
4, 172680, Note_on_c, 2, 52, 0
4, 172800, Note_on_c, 2, 55, 127
4, 173280, Note_on_c, 2, 55, 0
4, 173280, Note_on_c, 2, 55, 127
4, 173400, Note_on_c, 2, 55, 0
4, 173520, Note_on_c, 2, 55, 127
4, 173640, Note_on_c, 2, 55, 0
4, 173760, Note_on_c, 2, 60, 127
4, 174000, Note_on_c, 2, 60, 0
4, 174240, Note_on_c, 2, 60, 127
4, 174465, Note_on_c, 2, 60, 0
4, 174600, Note_on_c, 2, 60, 127
4, 174720, Note_on_c, 2, 60, 0
4, 174720, Note_on_c, 2, 60, 127
4, 175368, Note_on_c, 2, 60, 0
4, 175440, Note_on_c, 2, 59, 127
4, 175524, Note_on_c, 2, 59, 0
4, 175560, Note_on_c, 2, 57, 127
4, 175644, Note_on_c, 2, 57, 0
4, 175680, Note_on_c, 2, 55, 127
4, 175764, Note_on_c, 2, 55, 0
4, 175800, Note_on_c, 2, 57, 127
4, 175884, Note_on_c, 2, 57, 0
4, 175920, Note_on_c, 2, 55, 127
4, 176004, Note_on_c, 2, 55, 0
4, 176040, Note_on_c, 2, 53, 127
4, 176124, Note_on_c, 2, 53, 0
4, 176160, Note_on_c, 2, 52, 127
4, 176244, Note_on_c, 2, 52, 0
4, 176280, Note_on_c, 2, 53, 127
4, 176364, Note_on_c, 2, 53, 0
4, 176400, Note_on_c, 2, 52, 127
4, 176484, Note_on_c, 2, 52, 0
4, 176520, Note_on_c, 2, 50, 127
4, 176604, Note_on_c, 2, 50, 0
4, 176640, Note_on_c, 2, 48, 127
4, 176760, Note_on_c, 2, 48, 0
4, 176880, Note_on_c, 2, 55, 127
4, 177000, Note_on_c, 2, 55, 0
4, 177120, Note_on_c, 2, 60, 127
4, 177240, Note_on_c, 2, 60, 0
4, 177360, Note_on_c, 2, 55, 127
4, 177480, Note_on_c, 2, 55, 0
4, 177600, Note_on_c, 2, 60, 127
4, 177720, Note_on_c, 2, 60, 0
4, 177840, Note_on_c, 2, 55, 127
4, 177960, Note_on_c, 2, 55, 0
4, 178080, Note_on_c, 2, 60, 127
4, 178200, Note_on_c, 2, 60, 0
4, 178320, Note_on_c, 2, 55, 127
4, 178440, Note_on_c, 2, 55, 0
4, 178560, Note_on_c, 2, 60, 127
4, 178644, Note_on_c, 2, 60, 0
4, 178680, Note_on_c, 2, 59, 127
4, 178764, Note_on_c, 2, 59, 0
4, 178800, Note_on_c, 2, 57, 127
4, 178884, Note_on_c, 2, 57, 0
4, 178920, Note_on_c, 2, 55, 127
4, 179004, Note_on_c, 2, 55, 0
4, 179040, Note_on_c, 2, 60, 127
4, 179124, Note_on_c, 2, 60, 0
4, 179160, Note_on_c, 2, 59, 127
4, 179244, Note_on_c, 2, 59, 0
4, 179280, Note_on_c, 2, 57, 127
4, 179364, Note_on_c, 2, 57, 0
4, 179400, Note_on_c, 2, 55, 127
4, 179484, Note_on_c, 2, 55, 0
4, 179520, Note_on_c, 2, 60, 127
4, 179604, Note_on_c, 2, 60, 0
4, 179640, Note_on_c, 2, 59, 127
4, 179724, Note_on_c, 2, 59, 0
4, 179760, Note_on_c, 2, 57, 127
4, 179844, Note_on_c, 2, 57, 0
4, 179880, Note_on_c, 2, 55, 127
4, 179964, Note_on_c, 2, 55, 0
4, 180000, Note_on_c, 2, 53, 127
4, 180084, Note_on_c, 2, 53, 0
4, 180120, Note_on_c, 2, 52, 127
4, 180204, Note_on_c, 2, 52, 0
4, 180240, Note_on_c, 2, 50, 127
4, 180324, Note_on_c, 2, 50, 0
4, 180360, Note_on_c, 2, 48, 127
4, 180444, Note_on_c, 2, 48, 0
4, 180480, Note_on_c, 2, 43, 127
4, 180600, Note_on_c, 2, 43, 0
4, 180720, Note_on_c, 2, 55, 127
4, 180840, Note_on_c, 2, 55, 0
4, 180960, Note_on_c, 2, 55, 127
4, 181080, Note_on_c, 2, 55, 0
4, 181200, Note_on_c, 2, 55, 127
4, 181320, Note_on_c, 2, 55, 0
4, 181440, Note_on_c, 2, 55, 127
4, 181560, Note_on_c, 2, 55, 0
4, 181680, Note_on_c, 2, 55, 127
4, 181800, Note_on_c, 2, 55, 0
4, 181920, Note_on_c, 2, 55, 127
4, 182040, Note_on_c, 2, 55, 0
4, 182160, Note_on_c, 2, 55, 127
4, 182280, Note_on_c, 2, 55, 0
4, 182400, Note_on_c, 2, 55, 127
4, 182520, Note_on_c, 2, 55, 0
4, 182640, Note_on_c, 2, 55, 127
4, 182760, Note_on_c, 2, 55, 0
4, 182880, Note_on_c, 2, 55, 127
4, 183000, Note_on_c, 2, 55, 0
4, 183120, Note_on_c, 2, 55, 127
4, 183240, Note_on_c, 2, 55, 0
4, 183360, Note_on_c, 2, 55, 127
4, 183840, Note_on_c, 2, 55, 0
4, 200640, Note_on_c, 2, 64, 127
4, 200880, Note_on_c, 2, 64, 0
4, 201120, Note_on_c, 2, 60, 127
4, 201240, Note_on_c, 2, 60, 0
4, 201360, Note_on_c, 2, 59, 127
4, 201480, Note_on_c, 2, 59, 0
4, 201600, Note_on_c, 2, 57, 127
4, 201840, Note_on_c, 2, 57, 0
4, 202080, Note_on_c, 2, 65, 127
4, 202200, Note_on_c, 2, 65, 0
4, 202320, Note_on_c, 2, 64, 127
4, 202440, Note_on_c, 2, 64, 0
4, 202560, Note_on_c, 2, 62, 127
4, 202680, Note_on_c, 2, 62, 0
4, 202800, Note_on_c, 2, 59, 127
4, 202920, Note_on_c, 2, 59, 0
4, 203040, Note_on_c, 2, 60, 127
4, 203160, Note_on_c, 2, 60, 0
4, 203280, Note_on_c, 2, 62, 127
4, 203400, Note_on_c, 2, 62, 0
4, 203520, Note_on_c, 2, 55, 127
4, 204000, Note_on_c, 2, 55, 0
4, 204480, Note_on_c, 2, 64, 127
4, 204480, Note_on_c, 2, 60, 127
4, 205440, Note_on_c, 2, 64, 0
4, 205440, Note_on_c, 2, 62, 127
4, 206398, Note_on_c, 2, 60, 0
4, 206400, Note_on_c, 2, 59, 127
4, 207358, Note_on_c, 2, 62, 0
4, 207360, Note_on_c, 2, 60, 127
4, 208318, Note_on_c, 2, 59, 0
4, 208320, Note_on_c, 2, 57, 127
4, 209278, Note_on_c, 2, 60, 0
4, 209280, Note_on_c, 2, 59, 127
4, 209760, Note_on_c, 2, 57, 0
4, 209760, Note_on_c, 2, 55, 127
4, 210720, Note_on_c, 2, 59, 0
4, 210720, Note_on_c, 2, 61, 127
4, 211200, Note_on_c, 2, 61, 0
4, 211200, Note_on_c, 2, 55, 0
4, 211200, Note_on_c, 2, 54, 127
4, 211200, Note_on_c, 2, 62, 127
4, 211650, Note_on_c, 2, 62, 0
4, 211650, Note_on_c, 2, 54, 0
4, 212160, Note_on_c, 2, 62, 127
4, 212385, Note_on_c, 2, 62, 0
4, 212520, Note_on_c, 2, 62, 127
4, 212640, Note_on_c, 2, 62, 0
4, 212640, Note_on_c, 2, 62, 127
4, 213288, Note_on_c, 2, 62, 0
4, 213360, Note_on_c, 2, 61, 127
4, 213444, Note_on_c, 2, 61, 0
4, 213480, Note_on_c, 2, 59, 127
4, 213564, Note_on_c, 2, 59, 0
4, 213600, Note_on_c, 2, 57, 127
4, 213684, Note_on_c, 2, 57, 0
4, 213720, Note_on_c, 2, 59, 127
4, 213804, Note_on_c, 2, 59, 0
4, 213840, Note_on_c, 2, 57, 127
4, 213924, Note_on_c, 2, 57, 0
4, 213960, Note_on_c, 2, 55, 127
4, 214044, Note_on_c, 2, 55, 0
4, 214080, Note_on_c, 2, 54, 127
4, 214164, Note_on_c, 2, 54, 0
4, 214200, Note_on_c, 2, 55, 127
4, 214284, Note_on_c, 2, 55, 0
4, 214320, Note_on_c, 2, 54, 127
4, 214404, Note_on_c, 2, 54, 0
4, 214440, Note_on_c, 2, 52, 127
4, 214524, Note_on_c, 2, 52, 0
4, 214560, Note_on_c, 2, 50, 127
4, 214800, Note_on_c, 2, 50, 0
4, 215040, Note_on_c, 2, 62, 127
4, 215265, Note_on_c, 2, 62, 0
4, 215400, Note_on_c, 2, 62, 127
4, 215520, Note_on_c, 2, 62, 0
4, 215520, Note_on_c, 2, 62, 127
4, 216168, Note_on_c, 2, 62, 0
4, 216240, Note_on_c, 2, 61, 127
4, 216324, Note_on_c, 2, 61, 0
4, 216360, Note_on_c, 2, 59, 127
4, 216444, Note_on_c, 2, 59, 0
4, 216480, Note_on_c, 2, 57, 127
4, 216564, Note_on_c, 2, 57, 0
4, 216600, Note_on_c, 2, 59, 127
4, 216684, Note_on_c, 2, 59, 0
4, 216720, Note_on_c, 2, 57, 127
4, 216804, Note_on_c, 2, 57, 0
4, 216840, Note_on_c, 2, 55, 127
4, 216924, Note_on_c, 2, 55, 0
4, 216960, Note_on_c, 2, 54, 127
4, 217044, Note_on_c, 2, 54, 0
4, 217080, Note_on_c, 2, 55, 127
4, 217164, Note_on_c, 2, 55, 0
4, 217200, Note_on_c, 2, 54, 127
4, 217284, Note_on_c, 2, 54, 0
4, 217320, Note_on_c, 2, 52, 127
4, 217404, Note_on_c, 2, 52, 0
4, 217440, Note_on_c, 2, 50, 127
4, 217524, Note_on_c, 2, 50, 0
4, 217560, Note_on_c, 2, 52, 127
4, 217644, Note_on_c, 2, 52, 0
4, 217680, Note_on_c, 2, 54, 127
4, 217764, Note_on_c, 2, 54, 0
4, 217800, Note_on_c, 2, 55, 127
4, 217884, Note_on_c, 2, 55, 0
4, 217920, Note_on_c, 2, 57, 127
4, 218004, Note_on_c, 2, 57, 0
4, 218040, Note_on_c, 2, 59, 127
4, 218124, Note_on_c, 2, 59, 0
4, 218160, Note_on_c, 2, 57, 127
4, 218244, Note_on_c, 2, 57, 0
4, 218280, Note_on_c, 2, 55, 127
4, 218364, Note_on_c, 2, 55, 0
4, 218400, Note_on_c, 2, 54, 127
4, 218484, Note_on_c, 2, 54, 0
4, 218520, Note_on_c, 2, 55, 127
4, 218604, Note_on_c, 2, 55, 0
4, 218640, Note_on_c, 2, 57, 127
4, 218724, Note_on_c, 2, 57, 0
4, 218760, Note_on_c, 2, 55, 127
4, 218844, Note_on_c, 2, 55, 0
4, 218880, Note_on_c, 2, 54, 127
4, 219120, Note_on_c, 2, 54, 0
4, 219120, Note_on_c, 2, 60, 127
4, 219360, Note_on_c, 2, 60, 0
4, 219360, Note_on_c, 2, 57, 127
4, 219600, Note_on_c, 2, 57, 0
4, 219600, Note_on_c, 2, 54, 127
4, 219840, Note_on_c, 2, 54, 0
4, 219840, Note_on_c, 2, 50, 127
4, 220320, Note_on_c, 2, 50, 0
4, 223920, Note_on_c, 2, 54, 50
4, 223920, Note_on_c, 2, 50, 50
4, 224016, Note_on_c, 2, 50, 0
4, 224016, Note_on_c, 2, 54, 0
4, 224160, Note_on_c, 2, 55, 50
4, 224160, Note_on_c, 2, 52, 50
4, 224256, Note_on_c, 2, 52, 0
4, 224256, Note_on_c, 2, 55, 0
4, 224400, Note_on_c, 2, 54, 50
4, 224400, Note_on_c, 2, 57, 50
4, 224496, Note_on_c, 2, 57, 0
4, 224496, Note_on_c, 2, 54, 0
4, 224640, Note_on_c, 2, 57, 50
4, 224640, Note_on_c, 2, 60, 50
4, 224700, Note_on_c, 2, 60, 0
4, 224700, Note_on_c, 2, 57, 0
4, 224700, Note_on_c, 2, 59, 50
4, 224700, Note_on_c, 2, 55, 50
4, 224760, Note_on_c, 2, 55, 0
4, 224760, Note_on_c, 2, 59, 0
4, 224760, Note_on_c, 2, 60, 50
4, 224760, Note_on_c, 2, 57, 50
4, 224820, Note_on_c, 2, 57, 0
4, 224820, Note_on_c, 2, 60, 0
4, 224820, Note_on_c, 2, 59, 50
4, 224820, Note_on_c, 2, 55, 50
4, 224880, Note_on_c, 2, 55, 0
4, 224880, Note_on_c, 2, 59, 0
4, 225000, Note_on_c, 2, 57, 50
4, 225000, Note_on_c, 2, 60, 50
4, 225084, Note_on_c, 2, 60, 0
4, 225084, Note_on_c, 2, 57, 0
4, 225120, Note_on_c, 2, 59, 50
4, 225120, Note_on_c, 2, 62, 50
4, 225504, Note_on_c, 2, 62, 0
4, 225504, Note_on_c, 2, 59, 0
4, 229680, Note_on_c, 2, 54, 50
4, 229680, Note_on_c, 2, 50, 50
4, 229776, Note_on_c, 2, 50, 0
4, 229776, Note_on_c, 2, 54, 0
4, 229920, Note_on_c, 2, 52, 50
4, 229920, Note_on_c, 2, 55, 50
4, 230016, Note_on_c, 2, 55, 0
4, 230016, Note_on_c, 2, 52, 0
4, 230160, Note_on_c, 2, 57, 50
4, 230160, Note_on_c, 2, 54, 50
4, 230256, Note_on_c, 2, 54, 0
4, 230256, Note_on_c, 2, 57, 0
4, 230400, Note_on_c, 2, 57, 50
4, 230400, Note_on_c, 2, 60, 50
4, 230460, Note_on_c, 2, 60, 0
4, 230460, Note_on_c, 2, 57, 0
4, 230460, Note_on_c, 2, 55, 50
4, 230460, Note_on_c, 2, 59, 50
4, 230520, Note_on_c, 2, 59, 0
4, 230520, Note_on_c, 2, 55, 0
4, 230520, Note_on_c, 2, 57, 50
4, 230520, Note_on_c, 2, 60, 50
4, 230580, Note_on_c, 2, 60, 0
4, 230580, Note_on_c, 2, 57, 0
4, 230580, Note_on_c, 2, 55, 50
4, 230580, Note_on_c, 2, 59, 50
4, 230640, Note_on_c, 2, 59, 0
4, 230640, Note_on_c, 2, 55, 0
4, 230760, Note_on_c, 2, 57, 50
4, 230760, Note_on_c, 2, 60, 50
4, 230844, Note_on_c, 2, 60, 0
4, 230844, Note_on_c, 2, 57, 0
4, 230880, Note_on_c, 2, 62, 50
4, 230880, Note_on_c, 2, 59, 50
4, 231264, Note_on_c, 2, 59, 0
4, 231264, Note_on_c, 2, 62, 0
4, 233520, Note_on_c, 2, 55, 50
4, 233616, Note_on_c, 2, 55, 0
4, 233760, Note_on_c, 2, 57, 50
4, 233856, Note_on_c, 2, 57, 0
4, 234000, Note_on_c, 2, 59, 50
4, 234096, Note_on_c, 2, 59, 0
4, 234240, Note_on_c, 2, 62, 50
4, 234300, Note_on_c, 2, 62, 0
4, 234300, Note_on_c, 2, 60, 50
4, 234360, Note_on_c, 2, 60, 0
4, 234360, Note_on_c, 2, 62, 50
4, 234420, Note_on_c, 2, 62, 0
4, 234420, Note_on_c, 2, 60, 50
4, 234480, Note_on_c, 2, 60, 0
4, 234600, Note_on_c, 2, 62, 50
4, 234684, Note_on_c, 2, 62, 0
4, 234720, Note_on_c, 2, 64, 50
4, 235104, Note_on_c, 2, 64, 0
4, 235440, Note_on_c, 2, 54, 50
4, 235536, Note_on_c, 2, 54, 0
4, 235680, Note_on_c, 2, 55, 50
4, 235776, Note_on_c, 2, 55, 0
4, 235920, Note_on_c, 2, 57, 50
4, 236016, Note_on_c, 2, 57, 0
4, 236160, Note_on_c, 2, 60, 50
4, 236220, Note_on_c, 2, 60, 0
4, 236220, Note_on_c, 2, 59, 50
4, 236280, Note_on_c, 2, 59, 0
4, 236280, Note_on_c, 2, 60, 50
4, 236340, Note_on_c, 2, 60, 0
4, 236340, Note_on_c, 2, 59, 50
4, 236400, Note_on_c, 2, 59, 0
4, 236520, Note_on_c, 2, 60, 50
4, 236604, Note_on_c, 2, 60, 0
4, 236640, Note_on_c, 2, 62, 50
4, 237024, Note_on_c, 2, 62, 0
4, 237360, Note_on_c, 2, 52, 50
4, 237456, Note_on_c, 2, 52, 0
4, 237600, Note_on_c, 2, 54, 50
4, 237696, Note_on_c, 2, 54, 0
4, 237840, Note_on_c, 2, 55, 50
4, 237936, Note_on_c, 2, 55, 0
4, 238080, Note_on_c, 2, 59, 50
4, 238140, Note_on_c, 2, 59, 0
4, 238140, Note_on_c, 2, 57, 50
4, 238200, Note_on_c, 2, 57, 0
4, 238200, Note_on_c, 2, 59, 50
4, 238260, Note_on_c, 2, 59, 0
4, 238260, Note_on_c, 2, 57, 50
4, 238320, Note_on_c, 2, 57, 0
4, 238440, Note_on_c, 2, 59, 50
4, 238524, Note_on_c, 2, 59, 0
4, 238560, Note_on_c, 2, 60, 50
4, 238944, Note_on_c, 2, 60, 0
4, 239280, Note_on_c, 2, 50, 50
4, 239400, Note_on_c, 2, 50, 0
4, 239520, Note_on_c, 2, 52, 50
4, 239640, Note_on_c, 2, 52, 0
4, 239760, Note_on_c, 2, 54, 50
4, 239880, Note_on_c, 2, 54, 0
4, 240000, Note_on_c, 2, 55, 100
4, 240504, Note_on_c, 2, 55, 0
4, 241440, Note_on_c, 2, 64, 100
4, 241440, Note_on_c, 2, 60, 100
4, 241776, Note_on_c, 2, 60, 0
4, 241776, Note_on_c, 2, 64, 0
4, 241920, Note_on_c, 2, 60, 100
4, 241920, Note_on_c, 2, 57, 100
4, 242256, Note_on_c, 2, 57, 0
4, 242256, Note_on_c, 2, 60, 0
4, 242400, Note_on_c, 2, 66, 100
4, 242400, Note_on_c, 2, 62, 100
4, 242736, Note_on_c, 2, 62, 0
4, 242736, Note_on_c, 2, 66, 0
4, 243360, Note_on_c, 2, 64, 100
4, 243360, Note_on_c, 2, 67, 100
4, 243696, Note_on_c, 2, 67, 0
4, 243696, Note_on_c, 2, 64, 0
4, 243840, Note_on_c, 2, 64, 100
4, 243840, Note_on_c, 2, 60, 100
4, 244176, Note_on_c, 2, 60, 0
4, 244176, Note_on_c, 2, 64, 0
4, 244320, Note_on_c, 2, 54, 100
4, 244320, Note_on_c, 2, 57, 100
4, 244656, Note_on_c, 2, 57, 0
4, 244656, Note_on_c, 2, 54, 0
4, 245280, Note_on_c, 2, 55, 100
4, 245280, Note_on_c, 2, 59, 100
4, 245616, Note_on_c, 2, 59, 0
4, 245616, Note_on_c, 2, 55, 0
4, 245760, Note_on_c, 2, 52, 100
4, 245760, Note_on_c, 2, 55, 100
4, 246096, Note_on_c, 2, 55, 0
4, 246096, Note_on_c, 2, 52, 0
4, 246240, Note_on_c, 2, 57, 100
4, 246240, Note_on_c, 2, 60, 100
4, 246576, Note_on_c, 2, 60, 0
4, 246576, Note_on_c, 2, 57, 0
4, 247200, Note_on_c, 2, 54, 100
4, 247200, Note_on_c, 2, 62, 100
4, 248160, Note_on_c, 2, 62, 0
4, 248160, Note_on_c, 2, 54, 0
4, 248160, Note_on_c, 2, 55, 100
4, 248160, Note_on_c, 2, 62, 100
4, 248496, Note_on_c, 2, 62, 0
4, 248496, Note_on_c, 2, 55, 0
4, 249120, Note_on_c, 2, 52, 100
4, 249120, Note_on_c, 2, 55, 100
4, 249456, Note_on_c, 2, 55, 0
4, 249456, Note_on_c, 2, 52, 0
4, 249600, Note_on_c, 2, 48, 100
4, 249600, Note_on_c, 2, 52, 100
4, 249936, Note_on_c, 2, 52, 0
4, 249936, Note_on_c, 2, 48, 0
4, 250080, Note_on_c, 2, 54, 100
4, 250080, Note_on_c, 2, 57, 100
4, 250416, Note_on_c, 2, 57, 0
4, 250416, Note_on_c, 2, 54, 0
4, 251040, Note_on_c, 2, 59, 100
4, 251040, Note_on_c, 2, 63, 100
4, 252000, Note_on_c, 2, 63, 0
4, 252000, Note_on_c, 2, 59, 0
4, 252000, Note_on_c, 2, 59, 100
4, 252000, Note_on_c, 2, 64, 100
4, 252336, Note_on_c, 2, 64, 0
4, 252336, Note_on_c, 2, 59, 0
4, 252960, Note_on_c, 2, 60, 100
4, 252960, Note_on_c, 2, 64, 100
4, 253296, Note_on_c, 2, 64, 0
4, 253296, Note_on_c, 2, 60, 0
4, 253440, Note_on_c, 2, 57, 100
4, 253440, Note_on_c, 2, 60, 100
4, 253776, Note_on_c, 2, 60, 0
4, 253776, Note_on_c, 2, 57, 0
4, 253920, Note_on_c, 2, 65, 100
4, 253920, Note_on_c, 2, 62, 100
4, 254484, Note_on_c, 2, 62, 0
4, 254484, Note_on_c, 2, 65, 0
4, 254520, Note_on_c, 2, 64, 100
4, 254520, Note_on_c, 2, 60, 100
4, 254604, Note_on_c, 2, 60, 0
4, 254604, Note_on_c, 2, 64, 0
4, 254640, Note_on_c, 2, 62, 100
4, 254640, Note_on_c, 2, 59, 100
4, 254724, Note_on_c, 2, 59, 0
4, 254724, Note_on_c, 2, 62, 0
4, 254760, Note_on_c, 2, 60, 100
4, 254760, Note_on_c, 2, 57, 100
4, 254844, Note_on_c, 2, 57, 0
4, 254844, Note_on_c, 2, 60, 0
4, 254880, Note_on_c, 2, 59, 100
4, 254880, Note_on_c, 2, 62, 100
4, 254964, Note_on_c, 2, 62, 0
4, 254964, Note_on_c, 2, 59, 0
4, 255000, Note_on_c, 2, 57, 100
4, 255000, Note_on_c, 2, 60, 100
4, 255084, Note_on_c, 2, 60, 0
4, 255084, Note_on_c, 2, 57, 0
4, 255120, Note_on_c, 2, 55, 100
4, 255120, Note_on_c, 2, 59, 100
4, 255204, Note_on_c, 2, 59, 0
4, 255204, Note_on_c, 2, 55, 0
4, 255240, Note_on_c, 2, 57, 100
4, 255240, Note_on_c, 2, 53, 100
4, 255324, Note_on_c, 2, 53, 0
4, 255324, Note_on_c, 2, 57, 0
4, 255360, Note_on_c, 2, 52, 100
4, 255360, Note_on_c, 2, 55, 100
4, 255600, Note_on_c, 2, 55, 0
4, 255600, Note_on_c, 2, 52, 0
4, 255600, Note_on_c, 2, 60, 100
4, 255684, Note_on_c, 2, 60, 0
4, 255720, Note_on_c, 2, 59, 100
4, 255804, Note_on_c, 2, 59, 0
4, 255840, Note_on_c, 2, 60, 100
4, 255924, Note_on_c, 2, 60, 0
4, 255960, Note_on_c, 2, 59, 100
4, 256044, Note_on_c, 2, 59, 0
4, 256080, Note_on_c, 2, 57, 100
4, 256164, Note_on_c, 2, 57, 0
4, 256200, Note_on_c, 2, 55, 100
4, 256284, Note_on_c, 2, 55, 0
4, 256320, Note_on_c, 2, 60, 100
4, 256488, Note_on_c, 2, 60, 0
4, 256560, Note_on_c, 2, 64, 100
4, 256644, Note_on_c, 2, 64, 0
4, 256680, Note_on_c, 2, 62, 100
4, 256764, Note_on_c, 2, 62, 0
4, 256800, Note_on_c, 2, 64, 100
4, 256884, Note_on_c, 2, 64, 0
4, 256920, Note_on_c, 2, 62, 100
4, 257004, Note_on_c, 2, 62, 0
4, 257040, Note_on_c, 2, 60, 100
4, 257124, Note_on_c, 2, 60, 0
4, 257160, Note_on_c, 2, 59, 100
4, 257244, Note_on_c, 2, 59, 0
4, 257280, Note_on_c, 2, 64, 100
4, 257448, Note_on_c, 2, 64, 0
4, 257520, Note_on_c, 2, 60, 100
4, 257604, Note_on_c, 2, 60, 0
4, 257640, Note_on_c, 2, 59, 100
4, 257724, Note_on_c, 2, 59, 0
4, 257760, Note_on_c, 2, 60, 100
4, 257844, Note_on_c, 2, 60, 0
4, 257880, Note_on_c, 2, 59, 100
4, 257964, Note_on_c, 2, 59, 0
4, 258000, Note_on_c, 2, 57, 100
4, 258084, Note_on_c, 2, 57, 0
4, 258120, Note_on_c, 2, 55, 100
4, 258204, Note_on_c, 2, 55, 0
4, 258240, Note_on_c, 2, 60, 100
4, 258408, Note_on_c, 2, 60, 0
4, 258480, Note_on_c, 2, 57, 100
4, 258564, Note_on_c, 2, 57, 0
4, 258600, Note_on_c, 2, 55, 100
4, 258684, Note_on_c, 2, 55, 0
4, 258720, Note_on_c, 2, 57, 100
4, 258804, Note_on_c, 2, 57, 0
4, 258840, Note_on_c, 2, 55, 100
4, 258924, Note_on_c, 2, 55, 0
4, 258960, Note_on_c, 2, 54, 100
4, 259044, Note_on_c, 2, 54, 0
4, 259080, Note_on_c, 2, 52, 100
4, 259200, Note_on_c, 2, 52, 0
4, 259200, Note_on_c, 2, 54, 100
4, 259440, Note_on_c, 2, 54, 0
4, 259440, Note_on_c, 2, 50, 100
4, 259680, Note_on_c, 2, 50, 0
4, 259680, Note_on_c, 2, 52, 100
4, 259920, Note_on_c, 2, 52, 0
4, 259920, Note_on_c, 2, 54, 100
4, 260160, Note_on_c, 2, 54, 0
4, 260160, Note_on_c, 2, 55, 100
4, 260400, Note_on_c, 2, 55, 0
4, 260400, Note_on_c, 2, 55, 100
4, 260640, Note_on_c, 2, 55, 0
4, 260640, Note_on_c, 2, 55, 100
4, 260880, Note_on_c, 2, 55, 0
4, 260880, Note_on_c, 2, 55, 100
4, 261120, Note_on_c, 2, 55, 0
4, 261120, Note_on_c, 2, 55, 100
4, 261240, Note_on_c, 2, 55, 0
4, 261360, Note_on_c, 2, 55, 100
4, 261480, Note_on_c, 2, 55, 0
4, 261600, Note_on_c, 2, 55, 100
4, 261720, Note_on_c, 2, 55, 0
4, 261840, Note_on_c, 2, 43, 100
4, 261960, Note_on_c, 2, 43, 0
4, 262080, Note_on_c, 2, 52, 100
4, 262200, Note_on_c, 2, 52, 0
4, 262320, Note_on_c, 2, 52, 100
4, 262440, Note_on_c, 2, 52, 0
4, 262560, Note_on_c, 2, 52, 100
4, 262680, Note_on_c, 2, 52, 0
4, 262800, Note_on_c, 2, 52, 100
4, 262920, Note_on_c, 2, 52, 0
4, 263040, Note_on_c, 2, 52, 100
4, 263160, Note_on_c, 2, 52, 0
4, 263280, Note_on_c, 2, 52, 100
4, 263400, Note_on_c, 2, 52, 0
4, 263520, Note_on_c, 2, 52, 100
4, 263640, Note_on_c, 2, 52, 0
4, 263760, Note_on_c, 2, 40, 100
4, 263880, Note_on_c, 2, 40, 0
4, 264000, Note_on_c, 2, 59, 100
4, 264120, Note_on_c, 2, 59, 0
4, 264240, Note_on_c, 2, 59, 100
4, 264360, Note_on_c, 2, 59, 0
4, 264480, Note_on_c, 2, 59, 100
4, 264600, Note_on_c, 2, 59, 0
4, 264720, Note_on_c, 2, 59, 100
4, 264840, Note_on_c, 2, 59, 0
4, 264960, Note_on_c, 2, 59, 100
4, 265080, Note_on_c, 2, 59, 0
4, 265200, Note_on_c, 2, 59, 100
4, 265320, Note_on_c, 2, 59, 0
4, 265440, Note_on_c, 2, 59, 100
4, 265560, Note_on_c, 2, 59, 0
4, 265680, Note_on_c, 2, 47, 100
4, 265800, Note_on_c, 2, 47, 0
4, 265920, Note_on_c, 2, 48, 100
4, 266040, Note_on_c, 2, 48, 0
4, 266160, Note_on_c, 2, 48, 100
4, 266280, Note_on_c, 2, 48, 0
4, 266400, Note_on_c, 2, 48, 100
4, 266520, Note_on_c, 2, 48, 0
4, 266640, Note_on_c, 2, 48, 100
4, 266760, Note_on_c, 2, 48, 0
4, 266880, Note_on_c, 2, 50, 100
4, 267000, Note_on_c, 2, 50, 0
4, 267120, Note_on_c, 2, 50, 100
4, 267240, Note_on_c, 2, 50, 0
4, 267360, Note_on_c, 2, 50, 100
4, 267480, Note_on_c, 2, 50, 0
4, 267600, Note_on_c, 2, 50, 100
4, 267720, Note_on_c, 2, 50, 0
4, 267840, Note_on_c, 2, 43, 100
4, 267960, Note_on_c, 2, 43, 0
4, 268080, Note_on_c, 2, 59, 100
4, 268200, Note_on_c, 2, 59, 0
4, 268320, Note_on_c, 2, 59, 100
4, 268440, Note_on_c, 2, 59, 0
4, 268560, Note_on_c, 2, 59, 100
4, 268680, Note_on_c, 2, 59, 0
4, 268800, Note_on_c, 2, 59, 100
4, 269520, Note_on_c, 2, 59, 0
4, 269520, Note_on_c, 2, 57, 100
4, 269580, Note_on_c, 2, 57, 0
4, 269580, Note_on_c, 2, 55, 100
4, 269640, Note_on_c, 2, 55, 0
4, 269640, Note_on_c, 2, 54, 100
4, 269700, Note_on_c, 2, 54, 0
4, 269700, Note_on_c, 2, 52, 100
4, 269760, Note_on_c, 2, 52, 0
4, 269760, Note_on_c, 2, 50, 100
4, 269880, Note_on_c, 2, 50, 0
4, 270000, Note_on_c, 2, 62, 100
4, 270120, Note_on_c, 2, 62, 0
4, 270240, Note_on_c, 2, 62, 100
4, 270360, Note_on_c, 2, 62, 0
4, 270480, Note_on_c, 2, 62, 100
4, 270600, Note_on_c, 2, 62, 0
4, 270720, Note_on_c, 2, 62, 100
4, 271440, Note_on_c, 2, 62, 0
4, 271440, Note_on_c, 2, 59, 100
4, 271500, Note_on_c, 2, 59, 0
4, 271500, Note_on_c, 2, 57, 100
4, 271560, Note_on_c, 2, 57, 0
4, 271560, Note_on_c, 2, 55, 100
4, 271620, Note_on_c, 2, 55, 0
4, 271620, Note_on_c, 2, 53, 100
4, 271680, Note_on_c, 2, 53, 0
4, 271680, Note_on_c, 2, 51, 100
4, 271800, Note_on_c, 2, 51, 0
4, 271920, Note_on_c, 2, 63, 100
4, 272040, Note_on_c, 2, 63, 0
4, 272160, Note_on_c, 2, 63, 100
4, 272280, Note_on_c, 2, 63, 0
4, 272400, Note_on_c, 2, 63, 100
4, 272520, Note_on_c, 2, 63, 0
4, 272640, Note_on_c, 2, 63, 100
4, 273288, Note_on_c, 2, 63, 0
4, 273360, Note_on_c, 2, 65, 100
4, 273600, Note_on_c, 2, 65, 0
4, 273600, Note_on_c, 2, 63, 100
4, 273840, Note_on_c, 2, 63, 0
4, 273840, Note_on_c, 2, 65, 100
4, 274080, Note_on_c, 2, 65, 0
4, 274080, Note_on_c, 2, 63, 100
4, 274320, Note_on_c, 2, 63, 0
4, 274320, Note_on_c, 2, 65, 100
4, 274560, Note_on_c, 2, 65, 0
4, 274560, Note_on_c, 2, 64, 100
4, 275208, Note_on_c, 2, 64, 0
4, 275280, Note_on_c, 2, 65, 100
4, 275520, Note_on_c, 2, 65, 0
4, 275520, Note_on_c, 2, 64, 100
4, 275760, Note_on_c, 2, 64, 0
4, 275760, Note_on_c, 2, 65, 100
4, 276000, Note_on_c, 2, 65, 0
4, 276000, Note_on_c, 2, 64, 100
4, 276240, Note_on_c, 2, 64, 0
4, 276240, Note_on_c, 2, 65, 100
4, 276480, Note_on_c, 2, 65, 0
4, 276480, Note_on_c, 2, 64, 100
4, 276600, Note_on_c, 2, 64, 0
4, 276720, Note_on_c, 2, 52, 100
4, 276840, Note_on_c, 2, 52, 0
4, 276960, Note_on_c, 2, 54, 100
4, 277080, Note_on_c, 2, 54, 0
4, 277200, Note_on_c, 2, 66, 100
4, 277320, Note_on_c, 2, 66, 0
4, 277440, Note_on_c, 2, 67, 100
4, 277560, Note_on_c, 2, 67, 0
4, 277680, Note_on_c, 2, 63, 100
4, 277800, Note_on_c, 2, 63, 0
4, 277920, Note_on_c, 2, 64, 100
4, 278040, Note_on_c, 2, 64, 0
4, 278160, Note_on_c, 2, 59, 100
4, 278280, Note_on_c, 2, 59, 0
4, 278400, Note_on_c, 2, 60, 100
4, 278640, Note_on_c, 2, 60, 0
4, 278640, Note_on_c, 2, 57, 100
4, 278880, Note_on_c, 2, 57, 0
4, 278880, Note_on_c, 2, 62, 100
4, 279120, Note_on_c, 2, 62, 0
4, 279120, Note_on_c, 2, 50, 100
4, 279360, Note_on_c, 2, 50, 0
4, 279360, Note_on_c, 2, 55, 100
4, 279840, Note_on_c, 2, 55, 0
4, 280320, Note_on_c, 2, 60, 100
4, 280918, Note_on_c, 2, 60, 0
4, 281280, Note_on_c, 2, 54, 100
4, 281520, Note_on_c, 2, 54, 0
4, 281520, Note_on_c, 2, 57, 100
4, 281760, Note_on_c, 2, 57, 0
4, 281760, Note_on_c, 2, 62, 100
4, 282358, Note_on_c, 2, 62, 0
4, 282360, Note_on_c, 2, 60, 100
4, 282480, Note_on_c, 2, 60, 0
4, 282480, Note_on_c, 2, 59, 100
4, 282600, Note_on_c, 2, 59, 0
4, 282600, Note_on_c, 2, 57, 100
4, 282720, Note_on_c, 2, 57, 0
4, 282720, Note_on_c, 2, 55, 100
4, 282960, Note_on_c, 2, 55, 0
4, 283200, Note_on_c, 2, 64, 100
4, 283798, Note_on_c, 2, 64, 0
4, 283800, Note_on_c, 2, 62, 100
4, 283920, Note_on_c, 2, 62, 0
4, 283920, Note_on_c, 2, 60, 100
4, 284040, Note_on_c, 2, 60, 0
4, 284040, Note_on_c, 2, 59, 100
4, 284160, Note_on_c, 2, 59, 0
4, 284160, Note_on_c, 2, 57, 100
4, 284280, Note_on_c, 2, 57, 0
4, 284400, Note_on_c, 2, 60, 100
4, 284850, Note_on_c, 2, 60, 0
4, 284880, Note_on_c, 2, 57, 100
4, 284964, Note_on_c, 2, 57, 0
4, 285000, Note_on_c, 2, 54, 100
4, 285084, Note_on_c, 2, 54, 0
4, 285120, Note_on_c, 2, 55, 100
4, 285360, Note_on_c, 2, 55, 0
4, 285360, Note_on_c, 2, 57, 100
4, 285444, Note_on_c, 2, 57, 0
4, 285480, Note_on_c, 2, 59, 100
4, 285564, Note_on_c, 2, 59, 0
4, 285600, Note_on_c, 2, 60, 100
4, 285684, Note_on_c, 2, 60, 0
4, 285720, Note_on_c, 2, 62, 100
4, 285804, Note_on_c, 2, 62, 0
4, 285840, Note_on_c, 2, 64, 100
4, 285924, Note_on_c, 2, 64, 0
4, 285960, Note_on_c, 2, 66, 100
4, 286044, Note_on_c, 2, 66, 0
4, 286080, Note_on_c, 2, 67, 100
4, 286644, Note_on_c, 2, 67, 0
4, 286680, Note_on_c, 2, 66, 100
4, 286764, Note_on_c, 2, 66, 0
4, 286800, Note_on_c, 2, 64, 100
4, 286884, Note_on_c, 2, 64, 0
4, 286920, Note_on_c, 2, 62, 100
4, 287004, Note_on_c, 2, 62, 0
4, 287040, Note_on_c, 2, 60, 100
4, 287124, Note_on_c, 2, 60, 0
4, 287160, Note_on_c, 2, 59, 100
4, 287244, Note_on_c, 2, 59, 0
4, 287280, Note_on_c, 2, 57, 100
4, 287364, Note_on_c, 2, 57, 0
4, 287400, Note_on_c, 2, 55, 100
4, 287484, Note_on_c, 2, 55, 0
4, 287520, Note_on_c, 2, 54, 100
4, 287604, Note_on_c, 2, 54, 0
4, 287640, Note_on_c, 2, 55, 100
4, 287724, Note_on_c, 2, 55, 0
4, 287760, Note_on_c, 2, 54, 100
4, 287844, Note_on_c, 2, 54, 0
4, 287880, Note_on_c, 2, 52, 100
4, 287964, Note_on_c, 2, 52, 0
4, 288000, Note_on_c, 2, 50, 100
4, 288480, Note_on_c, 2, 50, 0
4, 288480, Note_on_c, 2, 54, 100
4, 288960, Note_on_c, 2, 54, 0
4, 288960, Note_on_c, 2, 55, 100
4, 289080, Note_on_c, 2, 55, 0
4, 289200, Note_on_c, 2, 54, 100
4, 289320, Note_on_c, 2, 54, 0
4, 289440, Note_on_c, 2, 52, 100
4, 289560, Note_on_c, 2, 52, 0
4, 289680, Note_on_c, 2, 51, 100
4, 289800, Note_on_c, 2, 51, 0
4, 289920, Note_on_c, 2, 52, 100
4, 290040, Note_on_c, 2, 52, 0
4, 290160, Note_on_c, 2, 50, 100
4, 290280, Note_on_c, 2, 50, 0
4, 290400, Note_on_c, 2, 48, 100
4, 290520, Note_on_c, 2, 48, 0
4, 290640, Note_on_c, 2, 47, 100
4, 290760, Note_on_c, 2, 47, 0
4, 290880, Note_on_c, 2, 48, 100
4, 291000, Note_on_c, 2, 48, 0
4, 291120, Note_on_c, 2, 49, 100
4, 291240, Note_on_c, 2, 49, 0
4, 291360, Note_on_c, 2, 50, 100
4, 291840, Note_on_c, 2, 50, 0
4, 291840, Note_on_c, 2, 55, 100
4, 291960, Note_on_c, 2, 55, 0
4, 292080, Note_on_c, 2, 54, 100
4, 292200, Note_on_c, 2, 54, 0
4, 292320, Note_on_c, 2, 52, 100
4, 292440, Note_on_c, 2, 52, 0
4, 292560, Note_on_c, 2, 51, 100
4, 292680, Note_on_c, 2, 51, 0
4, 292800, Note_on_c, 2, 52, 100
4, 292920, Note_on_c, 2, 52, 0
4, 293040, Note_on_c, 2, 50, 100
4, 293160, Note_on_c, 2, 50, 0
4, 293280, Note_on_c, 2, 48, 100
4, 293400, Note_on_c, 2, 48, 0
4, 293520, Note_on_c, 2, 47, 100
4, 293640, Note_on_c, 2, 47, 0
4, 293760, Note_on_c, 2, 48, 100
4, 293880, Note_on_c, 2, 48, 0
4, 294000, Note_on_c, 2, 49, 100
4, 294120, Note_on_c, 2, 49, 0
4, 294240, Note_on_c, 2, 50, 100
4, 294360, Note_on_c, 2, 50, 0
4, 294480, Note_on_c, 2, 38, 100
4, 294600, Note_on_c, 2, 38, 0
4, 294720, Note_on_c, 2, 43, 100
4, 295200, Note_on_c, 2, 43, 0
4, 298080, Note_on_c, 2, 67, 50
4, 298305, Note_on_c, 2, 67, 0
4, 298440, Note_on_c, 2, 67, 50
4, 298560, Note_on_c, 2, 67, 0
4, 298560, Note_on_c, 2, 67, 50
4, 299208, Note_on_c, 2, 67, 0
4, 299280, Note_on_c, 2, 66, 50
4, 299364, Note_on_c, 2, 66, 0
4, 299400, Note_on_c, 2, 64, 50
4, 299484, Note_on_c, 2, 64, 0
4, 299520, Note_on_c, 2, 62, 50
4, 299604, Note_on_c, 2, 62, 0
4, 299640, Note_on_c, 2, 64, 50
4, 299724, Note_on_c, 2, 64, 0
4, 299760, Note_on_c, 2, 62, 50
4, 299844, Note_on_c, 2, 62, 0
4, 299880, Note_on_c, 2, 60, 50
4, 299964, Note_on_c, 2, 60, 0
4, 300000, Note_on_c, 2, 59, 50
4, 300084, Note_on_c, 2, 59, 0
4, 300120, Note_on_c, 2, 60, 50
4, 300204, Note_on_c, 2, 60, 0
4, 300240, Note_on_c, 2, 59, 50
4, 300324, Note_on_c, 2, 59, 0
4, 300360, Note_on_c, 2, 57, 50
4, 300444, Note_on_c, 2, 57, 0
4, 300480, Note_on_c, 2, 55, 50
4, 300960, Note_on_c, 2, 55, 0
4, 304800, Note_on_c, 2, 67, 50
4, 305025, Note_on_c, 2, 67, 0
4, 305160, Note_on_c, 2, 67, 50
4, 305280, Note_on_c, 2, 67, 0
4, 305280, Note_on_c, 2, 67, 50
4, 305928, Note_on_c, 2, 67, 0
4, 306000, Note_on_c, 2, 65, 50
4, 306084, Note_on_c, 2, 65, 0
4, 306120, Note_on_c, 2, 63, 50
4, 306204, Note_on_c, 2, 63, 0
4, 306240, Note_on_c, 2, 62, 50
4, 306324, Note_on_c, 2, 62, 0
4, 306360, Note_on_c, 2, 63, 50
4, 306444, Note_on_c, 2, 63, 0
4, 306480, Note_on_c, 2, 62, 50
4, 306564, Note_on_c, 2, 62, 0
4, 306600, Note_on_c, 2, 60, 50
4, 306684, Note_on_c, 2, 60, 0
4, 306720, Note_on_c, 2, 59, 50
4, 306804, Note_on_c, 2, 59, 0
4, 306840, Note_on_c, 2, 60, 50
4, 306924, Note_on_c, 2, 60, 0
4, 306960, Note_on_c, 2, 59, 50
4, 307044, Note_on_c, 2, 59, 0
4, 307080, Note_on_c, 2, 57, 50
4, 307164, Note_on_c, 2, 57, 0
4, 307200, Note_on_c, 2, 55, 50
4, 308160, Note_on_c, 2, 55, 0
4, 308160, Note_on_c, 2, 53, 50
4, 309120, Note_on_c, 2, 53, 0
4, 309120, Note_on_c, 2, 52, 50
4, 309600, Note_on_c, 2, 52, 0
4, 312480, Note_on_c, 2, 52, 50
4, 312705, Note_on_c, 2, 52, 0
4, 312840, Note_on_c, 2, 52, 50
4, 312960, Note_on_c, 2, 52, 0
4, 312960, Note_on_c, 2, 52, 50
4, 313608, Note_on_c, 2, 52, 0
4, 313680, Note_on_c, 2, 53, 50
4, 313764, Note_on_c, 2, 53, 0
4, 313800, Note_on_c, 2, 55, 50
4, 313884, Note_on_c, 2, 55, 0
4, 313920, Note_on_c, 2, 57, 50
4, 314004, Note_on_c, 2, 57, 0
4, 314040, Note_on_c, 2, 56, 50
4, 314124, Note_on_c, 2, 56, 0
4, 314160, Note_on_c, 2, 57, 50
4, 314244, Note_on_c, 2, 57, 0
4, 314280, Note_on_c, 2, 59, 50
4, 314364, Note_on_c, 2, 59, 0
4, 314400, Note_on_c, 2, 60, 50
4, 314484, Note_on_c, 2, 60, 0
4, 314520, Note_on_c, 2, 59, 50
4, 314604, Note_on_c, 2, 59, 0
4, 314640, Note_on_c, 2, 60, 50
4, 314724, Note_on_c, 2, 60, 0
4, 314760, Note_on_c, 2, 62, 50
4, 314844, Note_on_c, 2, 62, 0
4, 314880, Note_on_c, 2, 64, 50
4, 315360, Note_on_c, 2, 64, 0
4, 316320, Note_on_c, 2, 61, 127
4, 316320, Note_on_c, 2, 64, 127
4, 316545, Note_on_c, 2, 64, 0
4, 316545, Note_on_c, 2, 61, 0
4, 316680, Note_on_c, 2, 64, 127
4, 316680, Note_on_c, 2, 61, 127
4, 316800, Note_on_c, 2, 61, 0
4, 316800, Note_on_c, 2, 64, 0
4, 316800, Note_on_c, 2, 61, 127
4, 316800, Note_on_c, 2, 64, 127
4, 317040, Note_on_c, 2, 64, 0
4, 317040, Note_on_c, 2, 61, 0
4, 317040, Note_on_c, 2, 65, 127
4, 317040, Note_on_c, 2, 62, 127
4, 317280, Note_on_c, 2, 62, 0
4, 317280, Note_on_c, 2, 65, 0
4, 317280, Note_on_c, 2, 67, 127
4, 317280, Note_on_c, 2, 64, 127
4, 318240, Note_on_c, 2, 64, 0
4, 318240, Note_on_c, 2, 67, 0
4, 318240, Note_on_c, 2, 64, 127
4, 318240, Note_on_c, 2, 61, 127
4, 318480, Note_on_c, 2, 61, 0
4, 318480, Note_on_c, 2, 64, 0
4, 318480, Note_on_c, 2, 57, 127
4, 318480, Note_on_c, 2, 61, 127
4, 318720, Note_on_c, 2, 61, 0
4, 318720, Note_on_c, 2, 57, 0
4, 318720, Note_on_c, 2, 65, 127
4, 318720, Note_on_c, 2, 62, 127
4, 319200, Note_on_c, 2, 62, 0
4, 319200, Note_on_c, 2, 65, 0
4, 319680, Note_on_c, 2, 57, 127
4, 319680, Note_on_c, 2, 54, 127
4, 319905, Note_on_c, 2, 54, 0
4, 319905, Note_on_c, 2, 57, 0
4, 320040, Note_on_c, 2, 57, 127
4, 320040, Note_on_c, 2, 54, 127
4, 320160, Note_on_c, 2, 54, 0
4, 320160, Note_on_c, 2, 57, 0
4, 320160, Note_on_c, 2, 54, 127
4, 320160, Note_on_c, 2, 57, 127
4, 320400, Note_on_c, 2, 57, 0
4, 320400, Note_on_c, 2, 54, 0
4, 320400, Note_on_c, 2, 59, 127
4, 320400, Note_on_c, 2, 55, 127
4, 320640, Note_on_c, 2, 55, 0
4, 320640, Note_on_c, 2, 59, 0
4, 320640, Note_on_c, 2, 57, 127
4, 320640, Note_on_c, 2, 60, 127
4, 321600, Note_on_c, 2, 60, 0
4, 321600, Note_on_c, 2, 57, 0
4, 321600, Note_on_c, 2, 57, 127
4, 321600, Note_on_c, 2, 54, 127
4, 321840, Note_on_c, 2, 54, 0
4, 321840, Note_on_c, 2, 57, 0
4, 321840, Note_on_c, 2, 54, 127
4, 321840, Note_on_c, 2, 50, 127
4, 322080, Note_on_c, 2, 50, 0
4, 322080, Note_on_c, 2, 54, 0
4, 322080, Note_on_c, 2, 59, 127
4, 322080, Note_on_c, 2, 55, 127
4, 322560, Note_on_c, 2, 55, 0
4, 322560, Note_on_c, 2, 59, 0
4, 323040, Note_on_c, 2, 59, 127
4, 323040, Note_on_c, 2, 62, 127
4, 323265, Note_on_c, 2, 62, 0
4, 323265, Note_on_c, 2, 59, 0
4, 323400, Note_on_c, 2, 59, 127
4, 323400, Note_on_c, 2, 62, 127
4, 323520, Note_on_c, 2, 62, 0
4, 323520, Note_on_c, 2, 59, 0
4, 323520, Note_on_c, 2, 59, 127
4, 323520, Note_on_c, 2, 62, 127
4, 323760, Note_on_c, 2, 62, 0
4, 323760, Note_on_c, 2, 59, 0
4, 323760, Note_on_c, 2, 60, 127
4, 323760, Note_on_c, 2, 64, 127
4, 324000, Note_on_c, 2, 64, 0
4, 324000, Note_on_c, 2, 60, 0
4, 324000, Note_on_c, 2, 65, 127
4, 324000, Note_on_c, 2, 62, 127
4, 324960, Note_on_c, 2, 62, 0
4, 324960, Note_on_c, 2, 65, 0
4, 324960, Note_on_c, 2, 59, 127
4, 324960, Note_on_c, 2, 62, 127
4, 325200, Note_on_c, 2, 62, 0
4, 325200, Note_on_c, 2, 59, 0
4, 325200, Note_on_c, 2, 55, 127
4, 325200, Note_on_c, 2, 59, 127
4, 325440, Note_on_c, 2, 59, 0
4, 325440, Note_on_c, 2, 55, 0
4, 325440, Note_on_c, 2, 60, 127
4, 325440, Note_on_c, 2, 64, 127
4, 325920, Note_on_c, 2, 64, 0
4, 325920, Note_on_c, 2, 60, 0
4, 326400, Note_on_c, 2, 55, 127
4, 326400, Note_on_c, 2, 64, 127
4, 326625, Note_on_c, 2, 64, 0
4, 326625, Note_on_c, 2, 55, 0
4, 326760, Note_on_c, 2, 64, 127
4, 326760, Note_on_c, 2, 55, 127
4, 326880, Note_on_c, 2, 55, 0
4, 326880, Note_on_c, 2, 64, 0
4, 326880, Note_on_c, 2, 64, 127
4, 326880, Note_on_c, 2, 55, 127
4, 327120, Note_on_c, 2, 55, 0
4, 327120, Note_on_c, 2, 64, 0
4, 327120, Note_on_c, 2, 57, 127
4, 327120, Note_on_c, 2, 65, 127
4, 327360, Note_on_c, 2, 65, 0
4, 327360, Note_on_c, 2, 57, 0
4, 327360, Note_on_c, 2, 67, 127
4, 327360, Note_on_c, 2, 58, 127
4, 328320, Note_on_c, 2, 58, 0
4, 328320, Note_on_c, 2, 67, 0
4, 328320, Note_on_c, 2, 64, 127
4, 328320, Note_on_c, 2, 55, 127
4, 328560, Note_on_c, 2, 55, 0
4, 328560, Note_on_c, 2, 64, 0
4, 328560, Note_on_c, 2, 52, 127
4, 328560, Note_on_c, 2, 60, 127
4, 328800, Note_on_c, 2, 60, 0
4, 328800, Note_on_c, 2, 52, 0
4, 328800, Note_on_c, 2, 57, 127
4, 328800, Note_on_c, 2, 65, 127
4, 329280, Note_on_c, 2, 65, 0
4, 329280, Note_on_c, 2, 57, 0
4, 332640, Note_on_c, 2, 66, 50
4, 333120, Note_on_c, 2, 66, 0
4, 333120, Note_on_c, 2, 67, 50
4, 333600, Note_on_c, 2, 67, 0
4, 333600, Note_on_c, 2, 60, 100
4, 334080, Note_on_c, 2, 60, 0
4, 346080, Note_on_c, 2, 62, 48
4, 347040, Note_on_c, 2, 62, 0
4, 347040, Note_on_c, 2, 63, 48
4, 347520, Note_on_c, 2, 63, 0
4, 347520, Note_on_c, 2, 64, 48
4, 348000, Note_on_c, 2, 64, 0
4, 348000, Note_on_c, 2, 57, 48
4, 348960, Note_on_c, 2, 57, 0
4, 348960, Note_on_c, 2, 59, 48
4, 349440, Note_on_c, 2, 59, 0
4, 349440, Note_on_c, 2, 48, 48
4, 349440, Note_on_c, 2, 60, 48
4, 351358, Note_on_c, 2, 60, 0
4, 351358, Note_on_c, 2, 48, 0
4, 351360, Note_on_c, 2, 54, 127
4, 351360, Note_on_c, 2, 47, 127
4, 351600, Note_on_c, 2, 47, 0
4, 351600, Note_on_c, 2, 54, 0
4, 351600, Note_on_c, 2, 59, 127
4, 351840, Note_on_c, 2, 59, 0
4, 351840, Note_on_c, 2, 59, 127
4, 352080, Note_on_c, 2, 59, 0
4, 352080, Note_on_c, 2, 59, 127
4, 352320, Note_on_c, 2, 59, 0
4, 352320, Note_on_c, 2, 59, 127
4, 352560, Note_on_c, 2, 59, 0
4, 352560, Note_on_c, 2, 59, 127
4, 352800, Note_on_c, 2, 59, 0
4, 352800, Note_on_c, 2, 59, 127
4, 353040, Note_on_c, 2, 59, 0
4, 353040, Note_on_c, 2, 59, 127
4, 353280, Note_on_c, 2, 59, 0
4, 353280, Note_on_c, 2, 59, 127
4, 353520, Note_on_c, 2, 59, 0
4, 353520, Note_on_c, 2, 59, 127
4, 353760, Note_on_c, 2, 59, 0
4, 353760, Note_on_c, 2, 59, 127
4, 354000, Note_on_c, 2, 59, 0
4, 354000, Note_on_c, 2, 59, 127
4, 354240, Note_on_c, 2, 59, 0
4, 354240, Note_on_c, 2, 59, 127
4, 354480, Note_on_c, 2, 59, 0
4, 354720, Note_on_c, 2, 59, 127
4, 355080, Note_on_c, 2, 59, 0
4, 355080, Note_on_c, 2, 59, 127
4, 355200, Note_on_c, 2, 59, 0
4, 355200, Note_on_c, 2, 59, 127
4, 355920, Note_on_c, 2, 59, 0
4, 355920, Note_on_c, 2, 57, 127
4, 356040, Note_on_c, 2, 57, 0
4, 356040, Note_on_c, 2, 55, 127
4, 356160, Note_on_c, 2, 55, 0
4, 356160, Note_on_c, 2, 54, 127
4, 356280, Note_on_c, 2, 54, 0
4, 356280, Note_on_c, 2, 55, 127
4, 356400, Note_on_c, 2, 55, 0
4, 356400, Note_on_c, 2, 54, 127
4, 356520, Note_on_c, 2, 54, 0
4, 356520, Note_on_c, 2, 52, 127
4, 356640, Note_on_c, 2, 52, 0
4, 356640, Note_on_c, 2, 51, 127
4, 356760, Note_on_c, 2, 51, 0
4, 356760, Note_on_c, 2, 52, 127
4, 356880, Note_on_c, 2, 52, 0
4, 356880, Note_on_c, 2, 51, 127
4, 357000, Note_on_c, 2, 51, 0
4, 357000, Note_on_c, 2, 49, 127
4, 357120, Note_on_c, 2, 49, 0
4, 357120, Note_on_c, 2, 47, 127
4, 357600, Note_on_c, 2, 47, 0
4, 358080, Note_on_c, 2, 59, 127
4, 358080, Note_on_c, 2, 47, 127
4, 358464, Note_on_c, 2, 47, 0
4, 358464, Note_on_c, 2, 59, 0
4, 358560, Note_on_c, 2, 59, 127
4, 358560, Note_on_c, 2, 47, 127
4, 358680, Note_on_c, 2, 47, 0
4, 358680, Note_on_c, 2, 59, 0
4, 358800, Note_on_c, 2, 47, 127
4, 358800, Note_on_c, 2, 59, 127
4, 358920, Note_on_c, 2, 59, 0
4, 358920, Note_on_c, 2, 47, 0
4, 359040, Note_on_c, 2, 55, 127
4, 359040, Note_on_c, 2, 43, 127
4, 359160, Note_on_c, 2, 43, 0
4, 359160, Note_on_c, 2, 55, 0
4, 359280, Note_on_c, 2, 43, 127
4, 359280, Note_on_c, 2, 55, 127
4, 359400, Note_on_c, 2, 55, 0
4, 359400, Note_on_c, 2, 43, 0
4, 359520, Note_on_c, 2, 40, 127
4, 359520, Note_on_c, 2, 52, 127
4, 359640, Note_on_c, 2, 52, 0
4, 359640, Note_on_c, 2, 40, 0
4, 359760, Note_on_c, 2, 52, 127
4, 359760, Note_on_c, 2, 40, 127
4, 359880, Note_on_c, 2, 40, 0
4, 359880, Note_on_c, 2, 52, 0
4, 360000, Note_on_c, 2, 59, 50
4, 360000, Note_on_c, 2, 47, 50
4, 360480, Note_on_c, 2, 47, 0
4, 360480, Note_on_c, 2, 59, 0
4, 360480, Note_on_c, 2, 66, 50
4, 360705, Note_on_c, 2, 66, 0
4, 360840, Note_on_c, 2, 66, 50
4, 360960, Note_on_c, 2, 66, 0
4, 360960, Note_on_c, 2, 66, 50
4, 361440, Note_on_c, 2, 63, 50
4, 361665, Note_on_c, 2, 63, 0
4, 361800, Note_on_c, 2, 63, 50
4, 361896, Note_on_c, 2, 63, 0
4, 361896, Note_on_c, 2, 66, 0
4, 361920, Note_on_c, 2, 66, 50
4, 361920, Note_on_c, 2, 63, 50
4, 363840, Note_on_c, 2, 62, 50
4, 363840, Note_on_c, 2, 65, 50
4, 363888, Note_on_c, 2, 63, 0
4, 363888, Note_on_c, 2, 66, 0
4, 365758, Note_on_c, 2, 62, 0
4, 365758, Note_on_c, 2, 65, 0
4, 365760, Note_on_c, 2, 60, 50
4, 365760, Note_on_c, 2, 64, 50
4, 366240, Note_on_c, 2, 64, 0
4, 366240, Note_on_c, 2, 60, 0
4, 367680, Note_on_c, 2, 55, 50
4, 367680, Note_on_c, 2, 59, 50
4, 368640, Note_on_c, 2, 59, 0
4, 368640, Note_on_c, 2, 55, 0
4, 368640, Note_on_c, 2, 57, 50
4, 368640, Note_on_c, 2, 60, 50
4, 369600, Note_on_c, 2, 60, 0
4, 369600, Note_on_c, 2, 57, 0
4, 369600, Note_on_c, 2, 57, 50
4, 369600, Note_on_c, 2, 53, 50
4, 370560, Note_on_c, 2, 53, 0
4, 370560, Note_on_c, 2, 57, 0
4, 370560, Note_on_c, 2, 55, 50
4, 370560, Note_on_c, 2, 52, 50
4, 371520, Note_on_c, 2, 52, 0
4, 371520, Note_on_c, 2, 55, 0
4, 371520, Note_on_c, 2, 57, 50
4, 371520, Note_on_c, 2, 53, 50
4, 371760, Note_on_c, 2, 53, 0
4, 371760, Note_on_c, 2, 57, 0
4, 372000, Note_on_c, 2, 60, 50
4, 372000, Note_on_c, 2, 52, 50
4, 372240, Note_on_c, 2, 52, 0
4, 372240, Note_on_c, 2, 60, 0
4, 372480, Note_on_c, 2, 59, 50
4, 372480, Note_on_c, 2, 50, 50
4, 372960, Note_on_c, 2, 50, 0
4, 372960, Note_on_c, 2, 59, 0
4, 373920, Note_on_c, 2, 60, 127
4, 374880, Note_on_c, 2, 60, 0
4, 374880, Note_on_c, 2, 59, 127
4, 375840, Note_on_c, 2, 59, 0
4, 375840, Note_on_c, 2, 58, 127
4, 376800, Note_on_c, 2, 58, 0
4, 376800, Note_on_c, 2, 57, 127
4, 376920, Note_on_c, 2, 57, 0
4, 377040, Note_on_c, 2, 55, 127
4, 377160, Note_on_c, 2, 55, 0
4, 377280, Note_on_c, 2, 53, 127
4, 377760, Note_on_c, 2, 53, 0
4, 377760, Note_on_c, 2, 62, 127
4, 378720, Note_on_c, 2, 62, 0
4, 378720, Note_on_c, 2, 61, 127
4, 379680, Note_on_c, 2, 61, 0
4, 379680, Note_on_c, 2, 60, 127
4, 380640, Note_on_c, 2, 60, 0
4, 380640, Note_on_c, 2, 59, 127
4, 380760, Note_on_c, 2, 59, 0
4, 380880, Note_on_c, 2, 57, 127
4, 381000, Note_on_c, 2, 57, 0
4, 381120, Note_on_c, 2, 55, 127
4, 381600, Note_on_c, 2, 55, 0
4, 381600, Note_on_c, 2, 64, 127
4, 382560, Note_on_c, 2, 64, 0
4, 382560, Note_on_c, 2, 63, 127
4, 383040, Note_on_c, 2, 63, 0
4, 383520, Note_on_c, 2, 60, 127
4, 384000, Note_on_c, 2, 60, 0
4, 384000, Note_on_c, 2, 61, 127
4, 384480, Note_on_c, 2, 61, 0
4, 384480, Note_on_c, 2, 62, 127
4, 384960, Note_on_c, 2, 62, 0
4, 385440, Note_on_c, 2, 53, 127
4, 385920, Note_on_c, 2, 53, 0
4, 385920, Note_on_c, 2, 54, 127
4, 386400, Note_on_c, 2, 54, 0
4, 386400, Note_on_c, 2, 55, 127
4, 386880, Note_on_c, 2, 55, 0
4, 387360, Note_on_c, 2, 58, 127
4, 387840, Note_on_c, 2, 58, 0
4, 387840, Note_on_c, 2, 59, 127
4, 388320, Note_on_c, 2, 59, 0
4, 388320, Note_on_c, 2, 60, 127
4, 388800, Note_on_c, 2, 60, 0
4, 389280, Note_on_c, 2, 51, 127
4, 389760, Note_on_c, 2, 51, 0
4, 389760, Note_on_c, 2, 52, 127
4, 390240, Note_on_c, 2, 52, 0
4, 390240, Note_on_c, 2, 53, 127
4, 390720, Note_on_c, 2, 53, 0
4, 391200, Note_on_c, 2, 56, 127
4, 391680, Note_on_c, 2, 56, 0
4, 391680, Note_on_c, 2, 57, 127
4, 392160, Note_on_c, 2, 57, 0
4, 392160, Note_on_c, 2, 58, 127
4, 392640, Note_on_c, 2, 58, 0
4, 392640, Note_on_c, 2, 58, 127
4, 392640, Note_on_c, 2, 55, 127
4, 393600, Note_on_c, 2, 58, 0
4, 393600, Note_on_c, 2, 57, 127
4, 394558, Note_on_c, 2, 55, 0
4, 394560, Note_on_c, 2, 53, 127
4, 395518, Note_on_c, 2, 57, 0
4, 395520, Note_on_c, 2, 55, 127
4, 396478, Note_on_c, 2, 53, 0
4, 396480, Note_on_c, 2, 52, 127
4, 397438, Note_on_c, 2, 55, 0
4, 397440, Note_on_c, 2, 53, 127
4, 398398, Note_on_c, 2, 52, 0
4, 398400, Note_on_c, 2, 50, 127
4, 398880, Note_on_c, 2, 50, 0
4, 398880, Note_on_c, 2, 53, 0
4, 398880, Note_on_c, 2, 62, 127
4, 398880, Note_on_c, 2, 65, 127
4, 399360, Note_on_c, 2, 65, 0
4, 399360, Note_on_c, 2, 64, 127
4, 399840, Note_on_c, 2, 62, 0
4, 399840, Note_on_c, 2, 60, 127
4, 400320, Note_on_c, 2, 60, 0
4, 400320, Note_on_c, 2, 64, 0
4, 400320, Note_on_c, 2, 45, 127
4, 400800, Note_on_c, 2, 45, 0
4, 400800, Note_on_c, 2, 57, 127
4, 401280, Note_on_c, 2, 57, 0
4, 401280, Note_on_c, 2, 55, 127
4, 401760, Note_on_c, 2, 55, 0
4, 402240, Note_on_c, 2, 55, 127
4, 402465, Note_on_c, 2, 55, 0
4, 402600, Note_on_c, 2, 55, 127
4, 402720, Note_on_c, 2, 55, 0
4, 402720, Note_on_c, 2, 55, 127
4, 403368, Note_on_c, 2, 55, 0
4, 403440, Note_on_c, 2, 54, 127
4, 403524, Note_on_c, 2, 54, 0
4, 403560, Note_on_c, 2, 52, 127
4, 403644, Note_on_c, 2, 52, 0
4, 403680, Note_on_c, 2, 50, 127
4, 403764, Note_on_c, 2, 50, 0
4, 403800, Note_on_c, 2, 52, 127
4, 403884, Note_on_c, 2, 52, 0
4, 403920, Note_on_c, 2, 50, 127
4, 404004, Note_on_c, 2, 50, 0
4, 404040, Note_on_c, 2, 48, 127
4, 404124, Note_on_c, 2, 48, 0
4, 404160, Note_on_c, 2, 47, 127
4, 404244, Note_on_c, 2, 47, 0
4, 404280, Note_on_c, 2, 48, 127
4, 404364, Note_on_c, 2, 48, 0
4, 404400, Note_on_c, 2, 47, 127
4, 404484, Note_on_c, 2, 47, 0
4, 404520, Note_on_c, 2, 45, 127
4, 404604, Note_on_c, 2, 45, 0
4, 404640, Note_on_c, 2, 43, 127
4, 404976, Note_on_c, 2, 43, 0
4, 405120, Note_on_c, 2, 67, 127
4, 405345, Note_on_c, 2, 67, 0
4, 405480, Note_on_c, 2, 67, 127
4, 405600, Note_on_c, 2, 67, 0
4, 405600, Note_on_c, 2, 67, 127
4, 406248, Note_on_c, 2, 67, 0
4, 406320, Note_on_c, 2, 66, 127
4, 406404, Note_on_c, 2, 66, 0
4, 406440, Note_on_c, 2, 64, 127
4, 406524, Note_on_c, 2, 64, 0
4, 406560, Note_on_c, 2, 62, 127
4, 406644, Note_on_c, 2, 62, 0
4, 406680, Note_on_c, 2, 64, 127
4, 406764, Note_on_c, 2, 64, 0
4, 406800, Note_on_c, 2, 62, 127
4, 406884, Note_on_c, 2, 62, 0
4, 406920, Note_on_c, 2, 60, 127
4, 407004, Note_on_c, 2, 60, 0
4, 407040, Note_on_c, 2, 59, 127
4, 407124, Note_on_c, 2, 59, 0
4, 407160, Note_on_c, 2, 60, 127
4, 407244, Note_on_c, 2, 60, 0
4, 407280, Note_on_c, 2, 59, 127
4, 407364, Note_on_c, 2, 59, 0
4, 407400, Note_on_c, 2, 57, 127
4, 407484, Note_on_c, 2, 57, 0
4, 407520, Note_on_c, 2, 55, 127
4, 407604, Note_on_c, 2, 55, 0
4, 407640, Note_on_c, 2, 57, 127
4, 407724, Note_on_c, 2, 57, 0
4, 407760, Note_on_c, 2, 59, 127
4, 407844, Note_on_c, 2, 59, 0
4, 407880, Note_on_c, 2, 60, 127
4, 407964, Note_on_c, 2, 60, 0
4, 408000, Note_on_c, 2, 62, 127
4, 408084, Note_on_c, 2, 62, 0
4, 408120, Note_on_c, 2, 64, 127
4, 408204, Note_on_c, 2, 64, 0
4, 408240, Note_on_c, 2, 62, 127
4, 408324, Note_on_c, 2, 62, 0
4, 408360, Note_on_c, 2, 60, 127
4, 408444, Note_on_c, 2, 60, 0
4, 408480, Note_on_c, 2, 59, 127
4, 408564, Note_on_c, 2, 59, 0
4, 408600, Note_on_c, 2, 60, 127
4, 408684, Note_on_c, 2, 60, 0
4, 408720, Note_on_c, 2, 62, 127
4, 408804, Note_on_c, 2, 62, 0
4, 408840, Note_on_c, 2, 60, 127
4, 408924, Note_on_c, 2, 60, 0
4, 408960, Note_on_c, 2, 62, 127
4, 409080, Note_on_c, 2, 62, 0
4, 409200, Note_on_c, 2, 65, 127
4, 409320, Note_on_c, 2, 65, 0
4, 409440, Note_on_c, 2, 62, 127
4, 409560, Note_on_c, 2, 62, 0
4, 409680, Note_on_c, 2, 59, 127
4, 409800, Note_on_c, 2, 59, 0
4, 409920, Note_on_c, 2, 55, 127
4, 410400, Note_on_c, 2, 55, 0
4, 414000, Note_on_c, 2, 59, 50
4, 414000, Note_on_c, 2, 55, 50
4, 414096, Note_on_c, 2, 55, 0
4, 414096, Note_on_c, 2, 59, 0
4, 414240, Note_on_c, 2, 57, 50
4, 414240, Note_on_c, 2, 60, 50
4, 414336, Note_on_c, 2, 60, 0
4, 414336, Note_on_c, 2, 57, 0
4, 414480, Note_on_c, 2, 62, 50
4, 414480, Note_on_c, 2, 59, 50
4, 414576, Note_on_c, 2, 59, 0
4, 414576, Note_on_c, 2, 62, 0
4, 414720, Note_on_c, 2, 65, 50
4, 414720, Note_on_c, 2, 62, 50
4, 414780, Note_on_c, 2, 62, 0
4, 414780, Note_on_c, 2, 65, 0
4, 414780, Note_on_c, 2, 64, 50
4, 414780, Note_on_c, 2, 60, 50
4, 414840, Note_on_c, 2, 60, 0
4, 414840, Note_on_c, 2, 64, 0
4, 414840, Note_on_c, 2, 65, 50
4, 414840, Note_on_c, 2, 62, 50
4, 414900, Note_on_c, 2, 62, 0
4, 414900, Note_on_c, 2, 65, 0
4, 414900, Note_on_c, 2, 64, 50
4, 414900, Note_on_c, 2, 60, 50
4, 414960, Note_on_c, 2, 60, 0
4, 414960, Note_on_c, 2, 64, 0
4, 415080, Note_on_c, 2, 65, 50
4, 415080, Note_on_c, 2, 62, 50
4, 415140, Note_on_c, 2, 62, 0
4, 415140, Note_on_c, 2, 65, 0
4, 415200, Note_on_c, 2, 67, 50
4, 415200, Note_on_c, 2, 64, 50
4, 415584, Note_on_c, 2, 64, 0
4, 415584, Note_on_c, 2, 67, 0
4, 418800, Note_on_c, 2, 57, 50
4, 418896, Note_on_c, 2, 57, 0
4, 419040, Note_on_c, 2, 50, 50
4, 419136, Note_on_c, 2, 50, 0
4, 419280, Note_on_c, 2, 53, 50
4, 419376, Note_on_c, 2, 53, 0
4, 419520, Note_on_c, 2, 43, 50
4, 419760, Note_on_c, 2, 43, 0
4, 420000, Note_on_c, 2, 67, 50
4, 420225, Note_on_c, 2, 67, 0
4, 420360, Note_on_c, 2, 67, 50
4, 420420, Note_on_c, 2, 67, 0
4, 420480, Note_on_c, 2, 67, 50
4, 421128, Note_on_c, 2, 67, 0
4, 421200, Note_on_c, 2, 65, 50
4, 421284, Note_on_c, 2, 65, 0
4, 421320, Note_on_c, 2, 64, 50
4, 421404, Note_on_c, 2, 64, 0
4, 421440, Note_on_c, 2, 62, 50
4, 421524, Note_on_c, 2, 62, 0
4, 421560, Note_on_c, 2, 64, 50
4, 421644, Note_on_c, 2, 64, 0
4, 421680, Note_on_c, 2, 62, 50
4, 421764, Note_on_c, 2, 62, 0
4, 421800, Note_on_c, 2, 60, 50
4, 421884, Note_on_c, 2, 60, 0
4, 421920, Note_on_c, 2, 59, 50
4, 422004, Note_on_c, 2, 59, 0
4, 422040, Note_on_c, 2, 60, 50
4, 422124, Note_on_c, 2, 60, 0
4, 422160, Note_on_c, 2, 59, 50
4, 422244, Note_on_c, 2, 59, 0
4, 422280, Note_on_c, 2, 57, 50
4, 422364, Note_on_c, 2, 57, 0
4, 422400, Note_on_c, 2, 55, 50
4, 422520, Note_on_c, 2, 55, 0
4, 422640, Note_on_c, 2, 59, 50
4, 422760, Note_on_c, 2, 59, 0
4, 422880, Note_on_c, 2, 60, 50
4, 423000, Note_on_c, 2, 60, 0
4, 423120, Note_on_c, 2, 62, 50
4, 423240, Note_on_c, 2, 62, 0
4, 423360, Note_on_c, 2, 64, 50
4, 423840, Note_on_c, 2, 64, 0
4, 430560, Note_on_c, 2, 36, 127
4, 430560, Note_on_c, 2, 48, 127
4, 430896, Note_on_c, 2, 48, 0
4, 430896, Note_on_c, 2, 36, 0
4, 431040, Note_on_c, 2, 53, 127
4, 431040, Note_on_c, 2, 41, 127
4, 431376, Note_on_c, 2, 41, 0
4, 431376, Note_on_c, 2, 53, 0
4, 431520, Note_on_c, 2, 53, 127
4, 431520, Note_on_c, 2, 57, 127
4, 431856, Note_on_c, 2, 57, 0
4, 431856, Note_on_c, 2, 53, 0
4, 432000, Note_on_c, 2, 53, 127
4, 432000, Note_on_c, 2, 50, 127
4, 432336, Note_on_c, 2, 50, 0
4, 432336, Note_on_c, 2, 53, 0
4, 432480, Note_on_c, 2, 55, 127
4, 432480, Note_on_c, 2, 59, 127
4, 432816, Note_on_c, 2, 59, 0
4, 432816, Note_on_c, 2, 55, 0
4, 432960, Note_on_c, 2, 45, 127
4, 432960, Note_on_c, 2, 57, 127
4, 433296, Note_on_c, 2, 57, 0
4, 433296, Note_on_c, 2, 45, 0
4, 433440, Note_on_c, 2, 57, 127
4, 433440, Note_on_c, 2, 60, 127
4, 433776, Note_on_c, 2, 60, 0
4, 433776, Note_on_c, 2, 57, 0
4, 433920, Note_on_c, 2, 57, 127
4, 433920, Note_on_c, 2, 53, 127
4, 434256, Note_on_c, 2, 53, 0
4, 434256, Note_on_c, 2, 57, 0
4, 434400, Note_on_c, 2, 62, 127
4, 434400, Note_on_c, 2, 59, 127
4, 434736, Note_on_c, 2, 59, 0
4, 434736, Note_on_c, 2, 62, 0
4, 434880, Note_on_c, 2, 64, 127
4, 434880, Note_on_c, 2, 60, 127
4, 435216, Note_on_c, 2, 60, 0
4, 435216, Note_on_c, 2, 64, 0
4, 435360, Note_on_c, 2, 60, 127
4, 435360, Note_on_c, 2, 64, 127
4, 435696, Note_on_c, 2, 64, 0
4, 435696, Note_on_c, 2, 60, 0
4, 435840, Note_on_c, 2, 60, 127
4, 435840, Note_on_c, 2, 57, 127
4, 436176, Note_on_c, 2, 57, 0
4, 436176, Note_on_c, 2, 60, 0
4, 436320, Note_on_c, 2, 65, 127
4, 436320, Note_on_c, 2, 62, 127
4, 436656, Note_on_c, 2, 62, 0
4, 436656, Note_on_c, 2, 65, 0
4, 437280, Note_on_c, 2, 67, 127
4, 437280, Note_on_c, 2, 59, 127
4, 438240, Note_on_c, 2, 59, 0
4, 438240, Note_on_c, 2, 67, 0
4, 438240, Note_on_c, 2, 60, 127
4, 438240, Note_on_c, 2, 64, 127
4, 438576, Note_on_c, 2, 64, 0
4, 438576, Note_on_c, 2, 60, 0
4, 438720, Note_on_c, 2, 57, 127
4, 438720, Note_on_c, 2, 45, 127
4, 439056, Note_on_c, 2, 45, 0
4, 439056, Note_on_c, 2, 57, 0
4, 439200, Note_on_c, 2, 57, 127
4, 439200, Note_on_c, 2, 60, 127
4, 439536, Note_on_c, 2, 60, 0
4, 439536, Note_on_c, 2, 57, 0
4, 439680, Note_on_c, 2, 53, 127
4, 439680, Note_on_c, 2, 57, 127
4, 440016, Note_on_c, 2, 57, 0
4, 440016, Note_on_c, 2, 53, 0
4, 440160, Note_on_c, 2, 62, 127
4, 440160, Note_on_c, 2, 59, 127
4, 440496, Note_on_c, 2, 59, 0
4, 440496, Note_on_c, 2, 62, 0
4, 441120, Note_on_c, 2, 56, 127
4, 441120, Note_on_c, 2, 64, 127
4, 442080, Note_on_c, 2, 64, 0
4, 442080, Note_on_c, 2, 56, 0
4, 442080, Note_on_c, 2, 60, 127
4, 442080, Note_on_c, 2, 57, 127
4, 442416, Note_on_c, 2, 57, 0
4, 442416, Note_on_c, 2, 60, 0
4, 442560, Note_on_c, 2, 53, 127
4, 442560, Note_on_c, 2, 41, 127
4, 442896, Note_on_c, 2, 41, 0
4, 442896, Note_on_c, 2, 53, 0
4, 443040, Note_on_c, 2, 57, 127
4, 443040, Note_on_c, 2, 53, 127
4, 443376, Note_on_c, 2, 53, 0
4, 443376, Note_on_c, 2, 57, 0
4, 443520, Note_on_c, 2, 50, 127
4, 443520, Note_on_c, 2, 53, 127
4, 443856, Note_on_c, 2, 53, 0
4, 443856, Note_on_c, 2, 50, 0
4, 444000, Note_on_c, 2, 55, 127
4, 444000, Note_on_c, 2, 58, 127
4, 444564, Note_on_c, 2, 58, 0
4, 444564, Note_on_c, 2, 55, 0
4, 444600, Note_on_c, 2, 53, 127
4, 444600, Note_on_c, 2, 57, 127
4, 444684, Note_on_c, 2, 57, 0
4, 444684, Note_on_c, 2, 53, 0
4, 444720, Note_on_c, 2, 52, 127
4, 444720, Note_on_c, 2, 55, 127
4, 444804, Note_on_c, 2, 55, 0
4, 444804, Note_on_c, 2, 52, 0
4, 444840, Note_on_c, 2, 50, 127
4, 444840, Note_on_c, 2, 53, 127
4, 444924, Note_on_c, 2, 53, 0
4, 444924, Note_on_c, 2, 50, 0
4, 444960, Note_on_c, 2, 55, 127
4, 444960, Note_on_c, 2, 52, 127
4, 445044, Note_on_c, 2, 52, 0
4, 445044, Note_on_c, 2, 55, 0
4, 445080, Note_on_c, 2, 53, 127
4, 445080, Note_on_c, 2, 50, 127
4, 445164, Note_on_c, 2, 50, 0
4, 445164, Note_on_c, 2, 53, 0
4, 445200, Note_on_c, 2, 52, 127
4, 445200, Note_on_c, 2, 48, 127
4, 445284, Note_on_c, 2, 48, 0
4, 445284, Note_on_c, 2, 52, 0
4, 445320, Note_on_c, 2, 46, 127
4, 445320, Note_on_c, 2, 50, 127
4, 445404, Note_on_c, 2, 50, 0
4, 445404, Note_on_c, 2, 46, 0
4, 445440, Note_on_c, 2, 45, 127
4, 445440, Note_on_c, 2, 48, 127
4, 445608, Note_on_c, 2, 48, 0
4, 445608, Note_on_c, 2, 45, 0
4, 445680, Note_on_c, 2, 65, 127
4, 445764, Note_on_c, 2, 65, 0
4, 445800, Note_on_c, 2, 64, 127
4, 445884, Note_on_c, 2, 64, 0
4, 445920, Note_on_c, 2, 65, 127
4, 446004, Note_on_c, 2, 65, 0
4, 446040, Note_on_c, 2, 64, 127
4, 446124, Note_on_c, 2, 64, 0
4, 446160, Note_on_c, 2, 62, 127
4, 446244, Note_on_c, 2, 62, 0
4, 446280, Note_on_c, 2, 60, 127
4, 446364, Note_on_c, 2, 60, 0
4, 446400, Note_on_c, 2, 65, 127
4, 446568, Note_on_c, 2, 65, 0
4, 446640, Note_on_c, 2, 57, 127
4, 446724, Note_on_c, 2, 57, 0
4, 446760, Note_on_c, 2, 55, 127
4, 446844, Note_on_c, 2, 55, 0
4, 446880, Note_on_c, 2, 57, 127
4, 446964, Note_on_c, 2, 57, 0
4, 447000, Note_on_c, 2, 55, 127
4, 447084, Note_on_c, 2, 55, 0
4, 447120, Note_on_c, 2, 53, 127
4, 447204, Note_on_c, 2, 53, 0
4, 447240, Note_on_c, 2, 52, 127
4, 447324, Note_on_c, 2, 52, 0
4, 447360, Note_on_c, 2, 57, 127
4, 447528, Note_on_c, 2, 57, 0
4, 447600, Note_on_c, 2, 53, 127
4, 447684, Note_on_c, 2, 53, 0
4, 447720, Note_on_c, 2, 52, 127
4, 447804, Note_on_c, 2, 52, 0
4, 447840, Note_on_c, 2, 53, 127
4, 447924, Note_on_c, 2, 53, 0
4, 447960, Note_on_c, 2, 52, 127
4, 448044, Note_on_c, 2, 52, 0
4, 448080, Note_on_c, 2, 50, 127
4, 448164, Note_on_c, 2, 50, 0
4, 448200, Note_on_c, 2, 48, 127
4, 448284, Note_on_c, 2, 48, 0
4, 448320, Note_on_c, 2, 53, 127
4, 448488, Note_on_c, 2, 53, 0
4, 448560, Note_on_c, 2, 62, 127
4, 448644, Note_on_c, 2, 62, 0
4, 448680, Note_on_c, 2, 60, 127
4, 448764, Note_on_c, 2, 60, 0
4, 448800, Note_on_c, 2, 62, 127
4, 448884, Note_on_c, 2, 62, 0
4, 448920, Note_on_c, 2, 60, 127
4, 449004, Note_on_c, 2, 60, 0
4, 449040, Note_on_c, 2, 59, 127
4, 449124, Note_on_c, 2, 59, 0
4, 449160, Note_on_c, 2, 57, 127
4, 449244, Note_on_c, 2, 57, 0
4, 449280, Note_on_c, 2, 59, 127
4, 449400, Note_on_c, 2, 59, 0
4, 449520, Note_on_c, 2, 55, 127
4, 449640, Note_on_c, 2, 55, 0
4, 449760, Note_on_c, 2, 57, 127
4, 449880, Note_on_c, 2, 57, 0
4, 450000, Note_on_c, 2, 59, 127
4, 450120, Note_on_c, 2, 59, 0
4, 450240, Note_on_c, 2, 60, 127
4, 450360, Note_on_c, 2, 60, 0
4, 450480, Note_on_c, 2, 60, 127
4, 450600, Note_on_c, 2, 60, 0
4, 450720, Note_on_c, 2, 60, 127
4, 450840, Note_on_c, 2, 60, 0
4, 450960, Note_on_c, 2, 60, 127
4, 451080, Note_on_c, 2, 60, 0
4, 451200, Note_on_c, 2, 60, 127
4, 451320, Note_on_c, 2, 60, 0
4, 451440, Note_on_c, 2, 60, 127
4, 451560, Note_on_c, 2, 60, 0
4, 451680, Note_on_c, 2, 60, 127
4, 451800, Note_on_c, 2, 60, 0
4, 451920, Note_on_c, 2, 48, 127
4, 452040, Note_on_c, 2, 48, 0
4, 452160, Note_on_c, 2, 52, 127
4, 452280, Note_on_c, 2, 52, 0
4, 452400, Note_on_c, 2, 52, 127
4, 452520, Note_on_c, 2, 52, 0
4, 452640, Note_on_c, 2, 52, 127
4, 452760, Note_on_c, 2, 52, 0
4, 452880, Note_on_c, 2, 52, 127
4, 453000, Note_on_c, 2, 52, 0
4, 453120, Note_on_c, 2, 52, 127
4, 453240, Note_on_c, 2, 52, 0
4, 453360, Note_on_c, 2, 52, 127
4, 453480, Note_on_c, 2, 52, 0
4, 453600, Note_on_c, 2, 52, 127
4, 453720, Note_on_c, 2, 52, 0
4, 453840, Note_on_c, 2, 46, 127
4, 453960, Note_on_c, 2, 46, 0
4, 454080, Note_on_c, 2, 45, 127
4, 454200, Note_on_c, 2, 45, 0
4, 454320, Note_on_c, 2, 57, 127
4, 454440, Note_on_c, 2, 57, 0
4, 454560, Note_on_c, 2, 57, 127
4, 454680, Note_on_c, 2, 57, 0
4, 454800, Note_on_c, 2, 57, 127
4, 454920, Note_on_c, 2, 57, 0
4, 455040, Note_on_c, 2, 57, 127
4, 455160, Note_on_c, 2, 57, 0
4, 455280, Note_on_c, 2, 57, 127
4, 455400, Note_on_c, 2, 57, 0
4, 455520, Note_on_c, 2, 57, 127
4, 455640, Note_on_c, 2, 57, 0
4, 455760, Note_on_c, 2, 57, 127
4, 455880, Note_on_c, 2, 57, 0
4, 456000, Note_on_c, 2, 55, 127
4, 456120, Note_on_c, 2, 55, 0
4, 456240, Note_on_c, 2, 55, 127
4, 456360, Note_on_c, 2, 55, 0
4, 456480, Note_on_c, 2, 55, 127
4, 456600, Note_on_c, 2, 55, 0
4, 456720, Note_on_c, 2, 55, 127
4, 456840, Note_on_c, 2, 55, 0
4, 456960, Note_on_c, 2, 43, 127
4, 457080, Note_on_c, 2, 43, 0
4, 457200, Note_on_c, 2, 43, 127
4, 457320, Note_on_c, 2, 43, 0
4, 457440, Note_on_c, 2, 43, 127
4, 457560, Note_on_c, 2, 43, 0
4, 457680, Note_on_c, 2, 43, 127
4, 457800, Note_on_c, 2, 43, 0
4, 457920, Note_on_c, 2, 48, 127
4, 458040, Note_on_c, 2, 48, 0
4, 458160, Note_on_c, 2, 60, 127
4, 458280, Note_on_c, 2, 60, 0
4, 458400, Note_on_c, 2, 60, 127
4, 458520, Note_on_c, 2, 60, 0
4, 458640, Note_on_c, 2, 60, 127
4, 458760, Note_on_c, 2, 60, 0
4, 458880, Note_on_c, 2, 60, 127
4, 459600, Note_on_c, 2, 60, 0
4, 459600, Note_on_c, 2, 59, 127
4, 459660, Note_on_c, 2, 59, 0
4, 459660, Note_on_c, 2, 57, 127
4, 459720, Note_on_c, 2, 57, 0
4, 459720, Note_on_c, 2, 55, 127
4, 459780, Note_on_c, 2, 55, 0
4, 459780, Note_on_c, 2, 53, 127
4, 459840, Note_on_c, 2, 53, 0
4, 459840, Note_on_c, 2, 52, 127
4, 459960, Note_on_c, 2, 52, 0
4, 460080, Note_on_c, 2, 64, 127
4, 460200, Note_on_c, 2, 64, 0
4, 460320, Note_on_c, 2, 64, 127
4, 460440, Note_on_c, 2, 64, 0
4, 460560, Note_on_c, 2, 64, 127
4, 460680, Note_on_c, 2, 64, 0
4, 460800, Note_on_c, 2, 64, 127
4, 461520, Note_on_c, 2, 64, 0
4, 461520, Note_on_c, 2, 64, 127
4, 461580, Note_on_c, 2, 64, 0
4, 461580, Note_on_c, 2, 62, 127
4, 461640, Note_on_c, 2, 62, 0
4, 461640, Note_on_c, 2, 60, 127
4, 461700, Note_on_c, 2, 60, 0
4, 461700, Note_on_c, 2, 58, 127
4, 461760, Note_on_c, 2, 58, 0
4, 461760, Note_on_c, 2, 56, 127
4, 461880, Note_on_c, 2, 56, 0
4, 462000, Note_on_c, 2, 44, 127
4, 462120, Note_on_c, 2, 44, 0
4, 462240, Note_on_c, 2, 56, 127
4, 462360, Note_on_c, 2, 56, 0
4, 462480, Note_on_c, 2, 56, 127
4, 462600, Note_on_c, 2, 56, 0
4, 462720, Note_on_c, 2, 56, 127
4, 463440, Note_on_c, 2, 56, 0
4, 463440, Note_on_c, 2, 55, 127
4, 463560, Note_on_c, 2, 55, 0
4, 463680, Note_on_c, 2, 56, 127
4, 463800, Note_on_c, 2, 56, 0
4, 463920, Note_on_c, 2, 55, 127
4, 464040, Note_on_c, 2, 55, 0
4, 464160, Note_on_c, 2, 56, 127
4, 464280, Note_on_c, 2, 56, 0
4, 464400, Note_on_c, 2, 55, 127
4, 464520, Note_on_c, 2, 55, 0
4, 464640, Note_on_c, 2, 61, 127
4, 464640, Note_on_c, 2, 56, 127
4, 465360, Note_on_c, 2, 61, 0
4, 465360, Note_on_c, 2, 60, 127
4, 465480, Note_on_c, 2, 60, 0
4, 465600, Note_on_c, 2, 61, 127
4, 465720, Note_on_c, 2, 61, 0
4, 465840, Note_on_c, 2, 60, 127
4, 465960, Note_on_c, 2, 60, 0
4, 466080, Note_on_c, 2, 61, 127
4, 466200, Note_on_c, 2, 61, 0
4, 466318, Note_on_c, 2, 56, 0
4, 466320, Note_on_c, 2, 62, 127
4, 466320, Note_on_c, 2, 59, 127
4, 466440, Note_on_c, 2, 59, 0
4, 466440, Note_on_c, 2, 62, 0
4, 466560, Note_on_c, 2, 63, 127
4, 466560, Note_on_c, 2, 60, 127
4, 467280, Note_on_c, 2, 60, 0
4, 467280, Note_on_c, 2, 63, 0
4, 467280, Note_on_c, 2, 59, 127
4, 467280, Note_on_c, 2, 62, 127
4, 467400, Note_on_c, 2, 62, 0
4, 467400, Note_on_c, 2, 59, 0
4, 467520, Note_on_c, 2, 63, 127
4, 467520, Note_on_c, 2, 60, 127
4, 467640, Note_on_c, 2, 60, 0
4, 467640, Note_on_c, 2, 63, 0
4, 467760, Note_on_c, 2, 62, 127
4, 467760, Note_on_c, 2, 59, 127
4, 467880, Note_on_c, 2, 59, 0
4, 467880, Note_on_c, 2, 62, 0
4, 468000, Note_on_c, 2, 60, 127
4, 468000, Note_on_c, 2, 63, 127
4, 468120, Note_on_c, 2, 63, 0
4, 468120, Note_on_c, 2, 60, 0
4, 468240, Note_on_c, 2, 63, 127
4, 468240, Note_on_c, 2, 60, 127
4, 468360, Note_on_c, 2, 60, 0
4, 468360, Note_on_c, 2, 63, 0
4, 468480, Note_on_c, 2, 64, 127
4, 468480, Note_on_c, 2, 60, 127
4, 468720, Note_on_c, 2, 60, 0
4, 468720, Note_on_c, 2, 64, 0
4, 468720, Note_on_c, 2, 55, 127
4, 468960, Note_on_c, 2, 55, 0
4, 468960, Note_on_c, 2, 55, 127
4, 469200, Note_on_c, 2, 55, 0
4, 469200, Note_on_c, 2, 55, 127
4, 469440, Note_on_c, 2, 55, 0
4, 469440, Note_on_c, 2, 43, 127
4, 469680, Note_on_c, 2, 43, 0
4, 469680, Note_on_c, 2, 43, 127
4, 469920, Note_on_c, 2, 43, 0
4, 469920, Note_on_c, 2, 43, 127
4, 470160, Note_on_c, 2, 43, 0
4, 470160, Note_on_c, 2, 43, 127
4, 470400, Note_on_c, 2, 43, 0
4, 470400, Note_on_c, 2, 48, 127
4, 470880, Note_on_c, 2, 48, 0
4, 471360, Note_on_c, 2, 65, 127
4, 471958, Note_on_c, 2, 65, 0
4, 471960, Note_on_c, 2, 64, 127
4, 472080, Note_on_c, 2, 64, 0
4, 472080, Note_on_c, 2, 62, 127
4, 472200, Note_on_c, 2, 62, 0
4, 472200, Note_on_c, 2, 60, 127
4, 472320, Note_on_c, 2, 60, 0
4, 472320, Note_on_c, 2, 59, 127
4, 472560, Note_on_c, 2, 59, 0
4, 472560, Note_on_c, 2, 62, 127
4, 472800, Note_on_c, 2, 62, 0
4, 472800, Note_on_c, 2, 67, 127
4, 473398, Note_on_c, 2, 67, 0
4, 473400, Note_on_c, 2, 65, 127
4, 473520, Note_on_c, 2, 65, 0
4, 473520, Note_on_c, 2, 64, 127
4, 473640, Note_on_c, 2, 64, 0
4, 473640, Note_on_c, 2, 62, 127
4, 473760, Note_on_c, 2, 62, 0
4, 473760, Note_on_c, 2, 60, 127
4, 474000, Note_on_c, 2, 60, 0
4, 474240, Note_on_c, 2, 57, 127
4, 474840, Note_on_c, 2, 57, 0
4, 474960, Note_on_c, 2, 59, 127
4, 475020, Note_on_c, 2, 59, 0
4, 475080, Note_on_c, 2, 60, 127
4, 475140, Note_on_c, 2, 60, 0
4, 475200, Note_on_c, 2, 62, 127
4, 475320, Note_on_c, 2, 62, 0
4, 475440, Note_on_c, 2, 65, 127
4, 475800, Note_on_c, 2, 65, 0
4, 475920, Note_on_c, 2, 62, 127
4, 475980, Note_on_c, 2, 62, 0
4, 476040, Note_on_c, 2, 59, 127
4, 476100, Note_on_c, 2, 59, 0
4, 476160, Note_on_c, 2, 60, 127
4, 476280, Note_on_c, 2, 60, 0
4, 476400, Note_on_c, 2, 55, 127
4, 476520, Note_on_c, 2, 55, 0
4, 476640, Note_on_c, 2, 64, 127
4, 477000, Note_on_c, 2, 64, 0
4, 477000, Note_on_c, 2, 64, 127
4, 477120, Note_on_c, 2, 64, 0
4, 477120, Note_on_c, 2, 64, 127
4, 477840, Note_on_c, 2, 64, 0
4, 477840, Note_on_c, 2, 62, 127
4, 477960, Note_on_c, 2, 62, 0
4, 477960, Note_on_c, 2, 64, 127
4, 478080, Note_on_c, 2, 64, 0
4, 478080, Note_on_c, 2, 65, 127
4, 478200, Note_on_c, 2, 65, 0
4, 478200, Note_on_c, 2, 64, 127
4, 478320, Note_on_c, 2, 64, 0
4, 478320, Note_on_c, 2, 62, 127
4, 478440, Note_on_c, 2, 62, 0
4, 478440, Note_on_c, 2, 60, 127
4, 478560, Note_on_c, 2, 60, 0
4, 478560, Note_on_c, 2, 59, 127
4, 478680, Note_on_c, 2, 59, 0
4, 478680, Note_on_c, 2, 60, 127
4, 478800, Note_on_c, 2, 60, 0
4, 478800, Note_on_c, 2, 59, 127
4, 478920, Note_on_c, 2, 59, 0
4, 478920, Note_on_c, 2, 57, 127
4, 479040, Note_on_c, 2, 57, 0
4, 479040, Note_on_c, 2, 55, 127
4, 479520, Note_on_c, 2, 55, 0
4, 479520, Note_on_c, 2, 59, 89
4, 480000, Note_on_c, 2, 59, 0
4, 480000, Note_on_c, 2, 64, 50
4, 480000, Note_on_c, 2, 60, 50
4, 480120, Note_on_c, 2, 60, 0
4, 480120, Note_on_c, 2, 64, 0
4, 480240, Note_on_c, 2, 62, 53
4, 480240, Note_on_c, 2, 59, 53
4, 480360, Note_on_c, 2, 59, 0
4, 480360, Note_on_c, 2, 62, 0
4, 480480, Note_on_c, 2, 57, 56
4, 480480, Note_on_c, 2, 60, 56
4, 480600, Note_on_c, 2, 60, 0
4, 480600, Note_on_c, 2, 57, 0
4, 480720, Note_on_c, 2, 59, 59
4, 480720, Note_on_c, 2, 56, 59
4, 480840, Note_on_c, 2, 56, 0
4, 480840, Note_on_c, 2, 59, 0
4, 480960, Note_on_c, 2, 57, 62
4, 480960, Note_on_c, 2, 60, 62
4, 481080, Note_on_c, 2, 60, 0
4, 481080, Note_on_c, 2, 57, 0
4, 481200, Note_on_c, 2, 59, 66
4, 481200, Note_on_c, 2, 55, 66
4, 481320, Note_on_c, 2, 55, 0
4, 481320, Note_on_c, 2, 59, 0
4, 481440, Note_on_c, 2, 53, 69
4, 481440, Note_on_c, 2, 57, 69
4, 481560, Note_on_c, 2, 57, 0
4, 481560, Note_on_c, 2, 53, 0
4, 481680, Note_on_c, 2, 55, 72
4, 481680, Note_on_c, 2, 52, 72
4, 481800, Note_on_c, 2, 52, 0
4, 481800, Note_on_c, 2, 55, 0
4, 481920, Note_on_c, 2, 53, 75
4, 481920, Note_on_c, 2, 57, 75
4, 482040, Note_on_c, 2, 53, 0
4, 482160, Note_on_c, 2, 54, 78
4, 482280, Note_on_c, 2, 54, 0
4, 482280, Note_on_c, 2, 57, 0
4, 482400, Note_on_c, 2, 55, 82
4, 482880, Note_on_c, 2, 55, 0
4, 482880, Note_on_c, 2, 60, 88
4, 482880, Note_on_c, 2, 64, 88
4, 483000, Note_on_c, 2, 64, 0
4, 483000, Note_on_c, 2, 60, 0
4, 483120, Note_on_c, 2, 62, 91
4, 483120, Note_on_c, 2, 59, 91
4, 483240, Note_on_c, 2, 59, 0
4, 483240, Note_on_c, 2, 62, 0
4, 483360, Note_on_c, 2, 57, 94
4, 483360, Note_on_c, 2, 60, 94
4, 483480, Note_on_c, 2, 60, 0
4, 483480, Note_on_c, 2, 57, 0
4, 483600, Note_on_c, 2, 59, 98
4, 483600, Note_on_c, 2, 56, 98
4, 483720, Note_on_c, 2, 56, 0
4, 483720, Note_on_c, 2, 59, 0
4, 483840, Note_on_c, 2, 60, 101
4, 483840, Note_on_c, 2, 57, 101
4, 483960, Note_on_c, 2, 57, 0
4, 483960, Note_on_c, 2, 60, 0
4, 484080, Note_on_c, 2, 59, 104
4, 484080, Note_on_c, 2, 55, 104
4, 484200, Note_on_c, 2, 55, 0
4, 484200, Note_on_c, 2, 59, 0
4, 484320, Note_on_c, 2, 53, 107
4, 484320, Note_on_c, 2, 57, 107
4, 484440, Note_on_c, 2, 57, 0
4, 484440, Note_on_c, 2, 53, 0
4, 484560, Note_on_c, 2, 55, 110
4, 484560, Note_on_c, 2, 52, 110
4, 484680, Note_on_c, 2, 52, 0
4, 484680, Note_on_c, 2, 55, 0
4, 484800, Note_on_c, 2, 53, 114
4, 484800, Note_on_c, 2, 57, 114
4, 484920, Note_on_c, 2, 53, 0
4, 485040, Note_on_c, 2, 54, 117
4, 485160, Note_on_c, 2, 54, 0
4, 485160, Note_on_c, 2, 57, 0
4, 485280, Note_on_c, 2, 55, 120
4, 485520, Note_on_c, 2, 43, 123
4, 485640, Note_on_c, 2, 43, 0
4, 485640, Note_on_c, 2, 55, 0
4, 485760, Note_on_c, 2, 48, 127
4, 486240, Note_on_c, 2, 48, 0
4, 486240, Note_on_c, 2, 48, 50
4, 486465, Note_on_c, 2, 48, 0
4, 486600, Note_on_c, 2, 48, 50
4, 486660, Note_on_c, 2, 48, 0
4, 486720, Note_on_c, 2, 48, 50
4, 487440, Note_on_c, 2, 48, 0
4, 487440, Note_on_c, 2, 50, 50
4, 487500, Note_on_c, 2, 50, 0
4, 487560, Note_on_c, 2, 52, 50
4, 487620, Note_on_c, 2, 52, 0
4, 487680, Note_on_c, 2, 53, 50
4, 487740, Note_on_c, 2, 53, 0
4, 487800, Note_on_c, 2, 52, 50
4, 487860, Note_on_c, 2, 52, 0
4, 487920, Note_on_c, 2, 53, 50
4, 487980, Note_on_c, 2, 53, 0
4, 488040, Note_on_c, 2, 55, 50
4, 488100, Note_on_c, 2, 55, 0
4, 488160, Note_on_c, 2, 57, 50
4, 488220, Note_on_c, 2, 57, 0
4, 488280, Note_on_c, 2, 55, 50
4, 488340, Note_on_c, 2, 55, 0
4, 488400, Note_on_c, 2, 57, 50
4, 488460, Note_on_c, 2, 57, 0
4, 488520, Note_on_c, 2, 59, 50
4, 488580, Note_on_c, 2, 59, 0
4, 488640, Note_on_c, 2, 60, 50
4, 489120, Note_on_c, 2, 60, 0
4, 492480, Note_on_c, 2, 64, 127
4, 492480, Note_on_c, 2, 55, 127
4, 492705, Note_on_c, 2, 55, 0
4, 492705, Note_on_c, 2, 64, 0
4, 492960, Note_on_c, 2, 64, 127
4, 492960, Note_on_c, 2, 55, 127
4, 493020, Note_on_c, 2, 55, 0
4, 493020, Note_on_c, 2, 64, 0
4, 493080, Note_on_c, 2, 55, 127
4, 493080, Note_on_c, 2, 64, 127
4, 493608, Note_on_c, 2, 64, 0
4, 493608, Note_on_c, 2, 55, 0
4, 493680, Note_on_c, 2, 58, 127
4, 493680, Note_on_c, 2, 60, 127
4, 493764, Note_on_c, 2, 60, 0
4, 493764, Note_on_c, 2, 58, 0
4, 493800, Note_on_c, 2, 62, 127
4, 493800, Note_on_c, 2, 57, 127
4, 493884, Note_on_c, 2, 57, 0
4, 493884, Note_on_c, 2, 62, 0
4, 493920, Note_on_c, 2, 55, 127
4, 493920, Note_on_c, 2, 64, 127
4, 494004, Note_on_c, 2, 64, 0
4, 494004, Note_on_c, 2, 55, 0
4, 494040, Note_on_c, 2, 57, 127
4, 494040, Note_on_c, 2, 62, 127
4, 494124, Note_on_c, 2, 62, 0
4, 494124, Note_on_c, 2, 57, 0
4, 494160, Note_on_c, 2, 55, 127
4, 494160, Note_on_c, 2, 64, 127
4, 494244, Note_on_c, 2, 64, 0
4, 494244, Note_on_c, 2, 55, 0
4, 494280, Note_on_c, 2, 65, 127
4, 494280, Note_on_c, 2, 53, 127
4, 494364, Note_on_c, 2, 53, 0
4, 494364, Note_on_c, 2, 65, 0
4, 494400, Note_on_c, 2, 67, 127
4, 494400, Note_on_c, 2, 52, 127
4, 494880, Note_on_c, 2, 52, 0
4, 494880, Note_on_c, 2, 67, 0
4, 503520, Note_on_c, 2, 67, 50
4, 504480, Note_on_c, 2, 67, 0
4, 504480, Note_on_c, 2, 66, 50
4, 504480, Note_on_c, 2, 66, 50
4, 505440, Note_on_c, 2, 66, 0
4, 505440, Note_on_c, 2, 66, 0
4, 505440, Note_on_c, 2, 65, 50
4, 505920, Note_on_c, 2, 65, 0
4, 505920, Note_on_c, 2, 65, 50
4, 506400, Note_on_c, 2, 65, 0
4, 506880, Note_on_c, 2, 60, 52
4, 507802, Note_on_c, 2, 60, 0
4, 507840, Note_on_c, 2, 62, 54
4, 508762, Note_on_c, 2, 62, 0
4, 508800, Note_on_c, 2, 65, 57
4, 509722, Note_on_c, 2, 65, 0
4, 509760, Note_on_c, 2, 64, 59
4, 510682, Note_on_c, 2, 64, 0
4, 521760, Note_on_c, 2, 67, 90
4, 522096, Note_on_c, 2, 67, 0
4, 522240, Note_on_c, 2, 64, 91
4, 522240, Note_on_c, 2, 48, 91
4, 522576, Note_on_c, 2, 64, 0
4, 522720, Note_on_c, 2, 69, 93
4, 523056, Note_on_c, 2, 48, 0
4, 523200, Note_on_c, 2, 50, 94
4, 523318, Note_on_c, 2, 69, 0
4, 523320, Note_on_c, 2, 67, 94
4, 523440, Note_on_c, 2, 67, 0
4, 523440, Note_on_c, 2, 65, 94
4, 523560, Note_on_c, 2, 65, 0
4, 523560, Note_on_c, 2, 64, 95
4, 523680, Note_on_c, 2, 64, 0
4, 523680, Note_on_c, 2, 65, 95
4, 523800, Note_on_c, 2, 65, 0
4, 523800, Note_on_c, 2, 64, 95
4, 523920, Note_on_c, 2, 64, 0
4, 523920, Note_on_c, 2, 62, 96
4, 524040, Note_on_c, 2, 62, 0
4, 524040, Note_on_c, 2, 60, 96
4, 524160, Note_on_c, 2, 60, 0
4, 524160, Note_on_c, 2, 50, 0
4, 524160, Note_on_c, 2, 59, 96
4, 524160, Note_on_c, 2, 53, 96
4, 524496, Note_on_c, 2, 59, 0
4, 524640, Note_on_c, 2, 67, 98
4, 524976, Note_on_c, 2, 67, 0
4, 524976, Note_on_c, 2, 53, 0
4, 525120, Note_on_c, 2, 52, 99
4, 526080, Note_on_c, 2, 52, 0
4, 526080, Note_on_c, 2, 55, 101
4, 526320, Note_on_c, 2, 55, 102
4, 526440, Note_on_c, 2, 55, 0
4, 526560, Note_on_c, 2, 57, 102
4, 526680, Note_on_c, 2, 57, 0
4, 526800, Note_on_c, 2, 59, 103
4, 526920, Note_on_c, 2, 59, 0
4, 527040, Note_on_c, 2, 55, 0
4, 527040, Note_on_c, 2, 57, 104
4, 527040, Note_on_c, 2, 59, 104
4, 527100, Note_on_c, 2, 59, 0
4, 527100, Note_on_c, 2, 57, 104
4, 527160, Note_on_c, 2, 57, 0
4, 527160, Note_on_c, 2, 59, 104
4, 527220, Note_on_c, 2, 59, 0
4, 527220, Note_on_c, 2, 57, 104
4, 527280, Note_on_c, 2, 57, 0
4, 527400, Note_on_c, 2, 59, 105
4, 527520, Note_on_c, 2, 59, 0
4, 527520, Note_on_c, 2, 60, 105
4, 527808, Note_on_c, 2, 57, 0
4, 528000, Note_on_c, 2, 60, 0
4, 528000, Note_on_c, 2, 60, 106
4, 528240, Note_on_c, 2, 50, 107
4, 528360, Note_on_c, 2, 50, 0
4, 528480, Note_on_c, 2, 52, 107
4, 528600, Note_on_c, 2, 52, 0
4, 528720, Note_on_c, 2, 54, 108
4, 528840, Note_on_c, 2, 54, 0
4, 528960, Note_on_c, 2, 60, 0
4, 528960, Note_on_c, 2, 57, 109
4, 528960, Note_on_c, 2, 59, 109
4, 529020, Note_on_c, 2, 57, 0
4, 529020, Note_on_c, 2, 55, 109
4, 529080, Note_on_c, 2, 55, 0
4, 529080, Note_on_c, 2, 57, 109
4, 529140, Note_on_c, 2, 57, 0
4, 529140, Note_on_c, 2, 55, 109
4, 529200, Note_on_c, 2, 55, 0
4, 529320, Note_on_c, 2, 57, 110
4, 529440, Note_on_c, 2, 57, 0
4, 529440, Note_on_c, 2, 59, 110
4, 529728, Note_on_c, 2, 59, 0
4, 529920, Note_on_c, 2, 59, 0
4, 530160, Note_on_c, 2, 60, 112
4, 530280, Note_on_c, 2, 60, 0
4, 530400, Note_on_c, 2, 62, 112
4, 530520, Note_on_c, 2, 62, 0
4, 530640, Note_on_c, 2, 64, 113
4, 530760, Note_on_c, 2, 64, 0
4, 531120, Note_on_c, 2, 57, 114
4, 531240, Note_on_c, 2, 57, 0
4, 531360, Note_on_c, 2, 50, 115
4, 531480, Note_on_c, 2, 50, 0
4, 531600, Note_on_c, 2, 53, 115
4, 531720, Note_on_c, 2, 53, 0
4, 531840, Note_on_c, 2, 43, 116
4, 531960, Note_on_c, 2, 43, 0
4, 532080, Note_on_c, 2, 59, 117
4, 532080, Note_on_c, 2, 55, 117
4, 532200, Note_on_c, 2, 55, 0
4, 532200, Note_on_c, 2, 59, 0
4, 532320, Note_on_c, 2, 60, 117
4, 532320, Note_on_c, 2, 57, 117
4, 532440, Note_on_c, 2, 57, 0
4, 532440, Note_on_c, 2, 60, 0
4, 532560, Note_on_c, 2, 62, 118
4, 532560, Note_on_c, 2, 59, 118
4, 532680, Note_on_c, 2, 59, 0
4, 532680, Note_on_c, 2, 62, 0
4, 532800, Note_on_c, 2, 64, 118
4, 532800, Note_on_c, 2, 60, 118
4, 532980, Note_on_c, 2, 60, 0
4, 532980, Note_on_c, 2, 64, 0
4, 533160, Note_on_c, 2, 62, 119
4, 533220, Note_on_c, 2, 62, 0
4, 533280, Note_on_c, 2, 60, 120
4, 533280, Note_on_c, 2, 64, 120
4, 533460, Note_on_c, 2, 64, 0
4, 533460, Note_on_c, 2, 60, 0
4, 533640, Note_on_c, 2, 60, 121
4, 533700, Note_on_c, 2, 60, 0
4, 533760, Note_on_c, 2, 60, 121
4, 534000, Note_on_c, 2, 69, 122
4, 534120, Note_on_c, 2, 69, 0
4, 534240, Note_on_c, 2, 62, 122
4, 534360, Note_on_c, 2, 62, 0
4, 534480, Note_on_c, 2, 60, 0
4, 534480, Note_on_c, 2, 65, 123
4, 534480, Note_on_c, 2, 59, 123
4, 534540, Note_on_c, 2, 59, 0
4, 534540, Note_on_c, 2, 65, 0
4, 534600, Note_on_c, 2, 57, 123
4, 534660, Note_on_c, 2, 57, 0
4, 534720, Note_on_c, 2, 55, 123
4, 534780, Note_on_c, 2, 55, 0
4, 534840, Note_on_c, 2, 57, 124
4, 534900, Note_on_c, 2, 57, 0
4, 534960, Note_on_c, 2, 55, 124
4, 535020, Note_on_c, 2, 55, 0
4, 535080, Note_on_c, 2, 53, 124
4, 535140, Note_on_c, 2, 53, 0
4, 535200, Note_on_c, 2, 52, 125
4, 535260, Note_on_c, 2, 52, 0
4, 535320, Note_on_c, 2, 53, 125
4, 535380, Note_on_c, 2, 53, 0
4, 535440, Note_on_c, 2, 52, 125
4, 535500, Note_on_c, 2, 52, 0
4, 535560, Note_on_c, 2, 50, 126
4, 535620, Note_on_c, 2, 50, 0
4, 535680, Note_on_c, 2, 48, 126
4, 535800, Note_on_c, 2, 48, 0
4, 535920, Note_on_c, 2, 41, 127
4, 536040, Note_on_c, 2, 41, 0
4, 536160, Note_on_c, 2, 53, 127
4, 536280, Note_on_c, 2, 53, 0
4, 536400, Note_on_c, 2, 53, 127
4, 536520, Note_on_c, 2, 53, 0
4, 536640, Note_on_c, 2, 53, 127
4, 536760, Note_on_c, 2, 53, 0
4, 536880, Note_on_c, 2, 53, 127
4, 537000, Note_on_c, 2, 53, 0
4, 537120, Note_on_c, 2, 53, 127
4, 537240, Note_on_c, 2, 53, 0
4, 537360, Note_on_c, 2, 53, 127
4, 537480, Note_on_c, 2, 53, 0
4, 537600, Note_on_c, 2, 55, 127
4, 537720, Note_on_c, 2, 55, 0
4, 537840, Note_on_c, 2, 55, 127
4, 537960, Note_on_c, 2, 55, 0
4, 538080, Note_on_c, 2, 43, 127
4, 538200, Note_on_c, 2, 43, 0
4, 538320, Note_on_c, 2, 43, 127
4, 538440, Note_on_c, 2, 43, 0
4, 538560, Note_on_c, 2, 48, 127
4, 538680, Note_on_c, 2, 48, 0
4, 538800, Note_on_c, 2, 41, 127
4, 538920, Note_on_c, 2, 41, 0
4, 539040, Note_on_c, 2, 53, 127
4, 539160, Note_on_c, 2, 53, 0
4, 539280, Note_on_c, 2, 53, 127
4, 539400, Note_on_c, 2, 53, 0
4, 539520, Note_on_c, 2, 53, 127
4, 539640, Note_on_c, 2, 53, 0
4, 539760, Note_on_c, 2, 53, 127
4, 539880, Note_on_c, 2, 53, 0
4, 540000, Note_on_c, 2, 53, 127
4, 540120, Note_on_c, 2, 53, 0
4, 540240, Note_on_c, 2, 53, 127
4, 540360, Note_on_c, 2, 53, 0
4, 540480, Note_on_c, 2, 55, 127
4, 540600, Note_on_c, 2, 55, 0
4, 540720, Note_on_c, 2, 55, 127
4, 540840, Note_on_c, 2, 55, 0
4, 540960, Note_on_c, 2, 43, 127
4, 541080, Note_on_c, 2, 43, 0
4, 541200, Note_on_c, 2, 43, 127
4, 541320, Note_on_c, 2, 43, 0
4, 541440, Note_on_c, 2, 48, 127
4, 541680, Note_on_c, 2, 48, 0
4, 541920, Note_on_c, 2, 60, 127
4, 542145, Note_on_c, 2, 60, 0
4, 542280, Note_on_c, 2, 60, 127
4, 542400, Note_on_c, 2, 60, 0
4, 542400, Note_on_c, 2, 60, 127
4, 543048, Note_on_c, 2, 60, 0
4, 543120, Note_on_c, 2, 59, 127
4, 543204, Note_on_c, 2, 59, 0
4, 543240, Note_on_c, 2, 57, 127
4, 543324, Note_on_c, 2, 57, 0
4, 543360, Note_on_c, 2, 55, 127
4, 543444, Note_on_c, 2, 55, 0
4, 543480, Note_on_c, 2, 57, 127
4, 543564, Note_on_c, 2, 57, 0
4, 543600, Note_on_c, 2, 55, 127
4, 543684, Note_on_c, 2, 55, 0
4, 543720, Note_on_c, 2, 53, 127
4, 543804, Note_on_c, 2, 53, 0
4, 543840, Note_on_c, 2, 52, 127
4, 543924, Note_on_c, 2, 52, 0
4, 543960, Note_on_c, 2, 53, 127
4, 544044, Note_on_c, 2, 53, 0
4, 544080, Note_on_c, 2, 52, 127
4, 544164, Note_on_c, 2, 52, 0
4, 544200, Note_on_c, 2, 50, 127
4, 544284, Note_on_c, 2, 50, 0
4, 544320, Note_on_c, 2, 48, 127
4, 544656, Note_on_c, 2, 48, 0
4, 544800, Note_on_c, 2, 48, 127
4, 544920, Note_on_c, 2, 48, 0
4, 545040, Note_on_c, 2, 48, 127
4, 545160, Note_on_c, 2, 48, 0
4, 545280, Note_on_c, 2, 52, 127
4, 545616, Note_on_c, 2, 52, 0
4, 545760, Note_on_c, 2, 52, 127
4, 545880, Note_on_c, 2, 52, 0
4, 546000, Note_on_c, 2, 52, 127
4, 546120, Note_on_c, 2, 52, 0
4, 546240, Note_on_c, 2, 55, 127
4, 546576, Note_on_c, 2, 55, 0
4, 546720, Note_on_c, 2, 55, 127
4, 546840, Note_on_c, 2, 55, 0
4, 546960, Note_on_c, 2, 55, 127
4, 547080, Note_on_c, 2, 55, 0
4, 547200, Note_on_c, 2, 60, 127
4, 547440, Note_on_c, 2, 60, 0
4, 547680, Note_on_c, 2, 60, 127
4, 548040, Note_on_c, 2, 60, 0
4, 548040, Note_on_c, 2, 60, 127
4, 548160, Note_on_c, 2, 60, 0
4, 548160, Note_on_c, 2, 60, 127
4, 548808, Note_on_c, 2, 60, 0
4, 548880, Note_on_c, 2, 59, 127
4, 548964, Note_on_c, 2, 59, 0
4, 549000, Note_on_c, 2, 57, 127
4, 549084, Note_on_c, 2, 57, 0
4, 549120, Note_on_c, 2, 55, 127
4, 549204, Note_on_c, 2, 55, 0
4, 549240, Note_on_c, 2, 57, 127
4, 549324, Note_on_c, 2, 57, 0
4, 549360, Note_on_c, 2, 55, 127
4, 549444, Note_on_c, 2, 55, 0
4, 549480, Note_on_c, 2, 53, 127
4, 549564, Note_on_c, 2, 53, 0
4, 549600, Note_on_c, 2, 52, 127
4, 549684, Note_on_c, 2, 52, 0
4, 549720, Note_on_c, 2, 53, 127
4, 549804, Note_on_c, 2, 53, 0
4, 549840, Note_on_c, 2, 52, 127
4, 549924, Note_on_c, 2, 52, 0
4, 549960, Note_on_c, 2, 50, 127
4, 550044, Note_on_c, 2, 50, 0
4, 550080, Note_on_c, 2, 48, 127
4, 550200, Note_on_c, 2, 48, 0
4, 550320, Note_on_c, 2, 55, 127
4, 550440, Note_on_c, 2, 55, 0
4, 550560, Note_on_c, 2, 60, 127
4, 550680, Note_on_c, 2, 60, 0
4, 550800, Note_on_c, 2, 55, 127
4, 550920, Note_on_c, 2, 55, 0
4, 551040, Note_on_c, 2, 60, 127
4, 551160, Note_on_c, 2, 60, 0
4, 551280, Note_on_c, 2, 55, 127
4, 551400, Note_on_c, 2, 55, 0
4, 551520, Note_on_c, 2, 60, 127
4, 551640, Note_on_c, 2, 60, 0
4, 551760, Note_on_c, 2, 55, 127
4, 551880, Note_on_c, 2, 55, 0
4, 552000, Note_on_c, 2, 60, 127
4, 552480, Note_on_c, 2, 60, 0
4, 552960, Note_on_c, 2, 48, 127
4, 553296, Note_on_c, 2, 48, 0
4, 553440, Note_on_c, 2, 60, 127
4, 553776, Note_on_c, 2, 60, 0
4, 553920, Note_on_c, 2, 48, 127
4, 554496, Note_on_c, 2, 48, 0
4, 554880, Note_on_c, 2, 60, 127
4, 555240, Note_on_c, 2, 60, 0
4, 555360, Note_on_c, 2, 60, 127
4, 555720, Note_on_c, 2, 60, 0
4, 555840, Note_on_c, 2, 48, 127
4, 556320, Note_on_c, 2, 48, 0
4, 556320, End_track
5, 0, Start_track
5, 0, Title_t, "Horns"
5, 0, Program_c, 3, 60
5, 0, Control_c, 3, 7, 100
5, 0, Control_c, 3, 10, 31
5, 7680, Note_on_c, 3, 60, 100
5, 8160, Note_on_c, 3, 60, 0
5, 8160, Note_on_c, 3, 48, 100
5, 8640, Note_on_c, 3, 48, 0
5, 8640, Note_on_c, 3, 55, 100
5, 9120, Note_on_c, 3, 55, 0
5, 9600, Note_on_c, 3, 55, 100
5, 9600, Note_on_c, 3, 67, 100
5, 10080, Note_on_c, 3, 67, 0
5, 10080, Note_on_c, 3, 55, 0
5, 10080, Note_on_c, 3, 43, 100
5, 10080, Note_on_c, 3, 55, 100
5, 10560, Note_on_c, 3, 55, 0
5, 10560, Note_on_c, 3, 43, 0
5, 10560, Note_on_c, 3, 55, 100
5, 10560, Note_on_c, 3, 48, 100
5, 11040, Note_on_c, 3, 48, 0
5, 11040, Note_on_c, 3, 55, 0
5, 11760, Note_on_c, 3, 60, 127
5, 11760, Note_on_c, 3, 48, 127
5, 11880, Note_on_c, 3, 48, 0
5, 11880, Note_on_c, 3, 60, 0
5, 12000, Note_on_c, 3, 60, 127
5, 12000, Note_on_c, 3, 48, 127
5, 12120, Note_on_c, 3, 48, 0
5, 12120, Note_on_c, 3, 60, 0
5, 12240, Note_on_c, 3, 48, 127
5, 12240, Note_on_c, 3, 60, 127
5, 12360, Note_on_c, 3, 60, 0
5, 12360, Note_on_c, 3, 48, 0
5, 12480, Note_on_c, 3, 48, 127
5, 12480, Note_on_c, 3, 60, 127
5, 13440, Note_on_c, 3, 60, 0
5, 13440, Note_on_c, 3, 48, 0
5, 13440, Note_on_c, 3, 64, 127
5, 13440, Note_on_c, 3, 60, 127
5, 13776, Note_on_c, 3, 60, 0
5, 13776, Note_on_c, 3, 64, 0
5, 13920, Note_on_c, 3, 55, 127
5, 13920, Note_on_c, 3, 62, 127
5, 14256, Note_on_c, 3, 62, 0
5, 14256, Note_on_c, 3, 55, 0
5, 14400, Note_on_c, 3, 60, 127
5, 14400, Note_on_c, 3, 52, 127
5, 14520, Note_on_c, 3, 52, 0
5, 14520, Note_on_c, 3, 60, 0
5, 14640, Note_on_c, 3, 60, 127
5, 14640, Note_on_c, 3, 48, 127
5, 14760, Note_on_c, 3, 48, 0
5, 14760, Note_on_c, 3, 60, 0
5, 14880, Note_on_c, 3, 60, 127
5, 14880, Note_on_c, 3, 48, 127
5, 15000, Note_on_c, 3, 48, 0
5, 15000, Note_on_c, 3, 60, 0
5, 15120, Note_on_c, 3, 48, 127
5, 15120, Note_on_c, 3, 60, 127
5, 15240, Note_on_c, 3, 60, 0
5, 15240, Note_on_c, 3, 48, 0
5, 15360, Note_on_c, 3, 48, 127
5, 15360, Note_on_c, 3, 60, 127
5, 16032, Note_on_c, 3, 60, 0
5, 16032, Note_on_c, 3, 48, 0
5, 16320, Note_on_c, 3, 64, 127
5, 16320, Note_on_c, 3, 60, 127
5, 16440, Note_on_c, 3, 60, 0
5, 16440, Note_on_c, 3, 64, 0
5, 16560, Note_on_c, 3, 64, 127
5, 16560, Note_on_c, 3, 60, 127
5, 16680, Note_on_c, 3, 60, 0
5, 16680, Note_on_c, 3, 64, 0
5, 16800, Note_on_c, 3, 62, 127
5, 16800, Note_on_c, 3, 55, 127
5, 16920, Note_on_c, 3, 55, 0
5, 16920, Note_on_c, 3, 62, 0
5, 17040, Note_on_c, 3, 55, 127
5, 17040, Note_on_c, 3, 62, 127
5, 17160, Note_on_c, 3, 62, 0
5, 17160, Note_on_c, 3, 55, 0
5, 17280, Note_on_c, 3, 60, 127
5, 17280, Note_on_c, 3, 48, 127
5, 17616, Note_on_c, 3, 48, 0
5, 17616, Note_on_c, 3, 60, 0
5, 17760, Note_on_c, 3, 60, 127
5, 17760, Note_on_c, 3, 48, 127
5, 17880, Note_on_c, 3, 48, 0
5, 17880, Note_on_c, 3, 60, 0
5, 18000, Note_on_c, 3, 60, 127
5, 18000, Note_on_c, 3, 48, 127
5, 18120, Note_on_c, 3, 48, 0
5, 18120, Note_on_c, 3, 60, 0
5, 18240, Note_on_c, 3, 52, 127
5, 18240, Note_on_c, 3, 64, 127
5, 18576, Note_on_c, 3, 64, 0
5, 18576, Note_on_c, 3, 52, 0
5, 18720, Note_on_c, 3, 52, 127
5, 18720, Note_on_c, 3, 64, 127
5, 18840, Note_on_c, 3, 64, 0
5, 18840, Note_on_c, 3, 52, 0
5, 18960, Note_on_c, 3, 52, 127
5, 18960, Note_on_c, 3, 64, 127
5, 19080, Note_on_c, 3, 64, 0
5, 19080, Note_on_c, 3, 52, 0
5, 19200, Note_on_c, 3, 55, 127
5, 19200, Note_on_c, 3, 67, 127
5, 19536, Note_on_c, 3, 67, 0
5, 19536, Note_on_c, 3, 55, 0
5, 19680, Note_on_c, 3, 67, 127
5, 19680, Note_on_c, 3, 55, 127
5, 19800, Note_on_c, 3, 55, 0
5, 19800, Note_on_c, 3, 67, 0
5, 19920, Note_on_c, 3, 55, 127
5, 19920, Note_on_c, 3, 67, 127
5, 20040, Note_on_c, 3, 67, 0
5, 20040, Note_on_c, 3, 55, 0
5, 20160, Note_on_c, 3, 64, 127
5, 20160, Note_on_c, 3, 60, 127
5, 20664, Note_on_c, 3, 60, 0
5, 20664, Note_on_c, 3, 64, 0
5, 23040, Note_on_c, 3, 60, 127
5, 23040, Note_on_c, 3, 48, 127
5, 23376, Note_on_c, 3, 48, 0
5, 23376, Note_on_c, 3, 60, 0
5, 23520, Note_on_c, 3, 60, 127
5, 23520, Note_on_c, 3, 48, 127
5, 23640, Note_on_c, 3, 48, 0
5, 23640, Note_on_c, 3, 60, 0
5, 23760, Note_on_c, 3, 48, 127
5, 23760, Note_on_c, 3, 60, 127
5, 23880, Note_on_c, 3, 60, 0
5, 23880, Note_on_c, 3, 48, 0
5, 24000, Note_on_c, 3, 52, 127
5, 24000, Note_on_c, 3, 64, 127
5, 24336, Note_on_c, 3, 64, 0
5, 24336, Note_on_c, 3, 52, 0
5, 24480, Note_on_c, 3, 64, 127
5, 24480, Note_on_c, 3, 52, 127
5, 24600, Note_on_c, 3, 52, 0
5, 24600, Note_on_c, 3, 64, 0
5, 24720, Note_on_c, 3, 64, 127
5, 24720, Note_on_c, 3, 52, 127
5, 24840, Note_on_c, 3, 52, 0
5, 24840, Note_on_c, 3, 64, 0
5, 24960, Note_on_c, 3, 55, 127
5, 24960, Note_on_c, 3, 67, 127
5, 25296, Note_on_c, 3, 67, 0
5, 25296, Note_on_c, 3, 55, 0
5, 25440, Note_on_c, 3, 55, 127
5, 25440, Note_on_c, 3, 67, 127
5, 25560, Note_on_c, 3, 67, 0
5, 25560, Note_on_c, 3, 55, 0
5, 25680, Note_on_c, 3, 67, 127
5, 25680, Note_on_c, 3, 55, 127
5, 25800, Note_on_c, 3, 55, 0
5, 25800, Note_on_c, 3, 67, 0
5, 25920, Note_on_c, 3, 64, 127
5, 25920, Note_on_c, 3, 60, 127
5, 26040, Note_on_c, 3, 60, 0
5, 26040, Note_on_c, 3, 64, 0
5, 26160, Note_on_c, 3, 62, 127
5, 26160, Note_on_c, 3, 55, 127
5, 26280, Note_on_c, 3, 55, 0
5, 26280, Note_on_c, 3, 62, 0
5, 26400, Note_on_c, 3, 64, 127
5, 26400, Note_on_c, 3, 60, 127
5, 26520, Note_on_c, 3, 60, 0
5, 26520, Note_on_c, 3, 64, 0
5, 26640, Note_on_c, 3, 55, 127
5, 26640, Note_on_c, 3, 62, 127
5, 26760, Note_on_c, 3, 62, 0
5, 26760, Note_on_c, 3, 55, 0
5, 26880, Note_on_c, 3, 64, 127
5, 26880, Note_on_c, 3, 60, 127
5, 27000, Note_on_c, 3, 60, 0
5, 27000, Note_on_c, 3, 64, 0
5, 27120, Note_on_c, 3, 62, 127
5, 27120, Note_on_c, 3, 55, 127
5, 27240, Note_on_c, 3, 55, 0
5, 27240, Note_on_c, 3, 62, 0
5, 27360, Note_on_c, 3, 64, 127
5, 27360, Note_on_c, 3, 60, 127
5, 27480, Note_on_c, 3, 60, 0
5, 27480, Note_on_c, 3, 64, 0
5, 27600, Note_on_c, 3, 55, 127
5, 27600, Note_on_c, 3, 62, 127
5, 27720, Note_on_c, 3, 62, 0
5, 27720, Note_on_c, 3, 55, 0
5, 27840, Note_on_c, 3, 60, 127
5, 27840, Note_on_c, 3, 64, 127
5, 28176, Note_on_c, 3, 64, 0
5, 28176, Note_on_c, 3, 60, 0
5, 28320, Note_on_c, 3, 60, 127
5, 28500, Note_on_c, 3, 60, 0
5, 28680, Note_on_c, 3, 60, 127
5, 28740, Note_on_c, 3, 60, 0
5, 28800, Note_on_c, 3, 60, 127
5, 28920, Note_on_c, 3, 60, 0
5, 29040, Note_on_c, 3, 55, 127
5, 29160, Note_on_c, 3, 55, 0
5, 29280, Note_on_c, 3, 52, 127
5, 29400, Note_on_c, 3, 52, 0
5, 29520, Note_on_c, 3, 48, 127
5, 29640, Note_on_c, 3, 48, 0
5, 29760, Note_on_c, 3, 55, 127
5, 29880, Note_on_c, 3, 55, 0
5, 30000, Note_on_c, 3, 55, 127
5, 30000, Note_on_c, 3, 62, 127
5, 30120, Note_on_c, 3, 62, 0
5, 30120, Note_on_c, 3, 55, 0
5, 30240, Note_on_c, 3, 64, 127
5, 30240, Note_on_c, 3, 60, 127
5, 30360, Note_on_c, 3, 60, 0
5, 30360, Note_on_c, 3, 64, 0
5, 30480, Note_on_c, 3, 60, 127
5, 30480, Note_on_c, 3, 64, 127
5, 30600, Note_on_c, 3, 64, 0
5, 30600, Note_on_c, 3, 60, 0
5, 30720, Note_on_c, 3, 62, 127
5, 30720, Note_on_c, 3, 55, 127
5, 30840, Note_on_c, 3, 55, 0
5, 30840, Note_on_c, 3, 62, 0
5, 30960, Note_on_c, 3, 62, 127
5, 30960, Note_on_c, 3, 55, 127
5, 31080, Note_on_c, 3, 55, 0
5, 31080, Note_on_c, 3, 62, 0
5, 31200, Note_on_c, 3, 64, 127
5, 31200, Note_on_c, 3, 60, 127
5, 31320, Note_on_c, 3, 60, 0
5, 31320, Note_on_c, 3, 64, 0
5, 31440, Note_on_c, 3, 60, 127
5, 31440, Note_on_c, 3, 64, 127
5, 31560, Note_on_c, 3, 64, 0
5, 31560, Note_on_c, 3, 60, 0
5, 31680, Note_on_c, 3, 62, 127
5, 31680, Note_on_c, 3, 55, 127
5, 31800, Note_on_c, 3, 55, 0
5, 31800, Note_on_c, 3, 62, 0
5, 31920, Note_on_c, 3, 62, 127
5, 31920, Note_on_c, 3, 55, 127
5, 32040, Note_on_c, 3, 55, 0
5, 32040, Note_on_c, 3, 62, 0
5, 32160, Note_on_c, 3, 64, 127
5, 32160, Note_on_c, 3, 60, 127
5, 32280, Note_on_c, 3, 60, 0
5, 32280, Note_on_c, 3, 64, 0
5, 32400, Note_on_c, 3, 60, 127
5, 32400, Note_on_c, 3, 64, 127
5, 32520, Note_on_c, 3, 64, 0
5, 32520, Note_on_c, 3, 60, 0
5, 32640, Note_on_c, 3, 62, 127
5, 32640, Note_on_c, 3, 55, 127
5, 33120, Note_on_c, 3, 55, 0
5, 33120, Note_on_c, 3, 62, 0
5, 49920, Note_on_c, 3, 60, 100
5, 49920, Note_on_c, 3, 48, 100
5, 50400, Note_on_c, 3, 48, 0
5, 50400, Note_on_c, 3, 60, 0
5, 50400, Note_on_c, 3, 60, 100
5, 50400, Note_on_c, 3, 48, 100
5, 50760, Note_on_c, 3, 48, 0
5, 50760, Note_on_c, 3, 60, 0
5, 50760, Note_on_c, 3, 48, 100
5, 50760, Note_on_c, 3, 60, 100
5, 50880, Note_on_c, 3, 60, 0
5, 50880, Note_on_c, 3, 48, 0
5, 50880, Note_on_c, 3, 60, 100
5, 50880, Note_on_c, 3, 48, 100
5, 51360, Note_on_c, 3, 48, 0
5, 51360, Note_on_c, 3, 60, 0
5, 51840, Note_on_c, 3, 55, 100
5, 52320, Note_on_c, 3, 55, 0
5, 52320, Note_on_c, 3, 55, 100
5, 52680, Note_on_c, 3, 55, 0
5, 52680, Note_on_c, 3, 55, 100
5, 52800, Note_on_c, 3, 55, 0
5, 52800, Note_on_c, 3, 55, 100
5, 52800, Note_on_c, 3, 48, 100
5, 53280, Note_on_c, 3, 48, 0
5, 53280, Note_on_c, 3, 55, 0
5, 53760, Note_on_c, 3, 60, 100
5, 53760, Note_on_c, 3, 64, 100
5, 54720, Note_on_c, 3, 64, 0
5, 54720, Note_on_c, 3, 60, 0
5, 54720, Note_on_c, 3, 62, 100
5, 54720, Note_on_c, 3, 60, 100
5, 55680, Note_on_c, 3, 60, 0
5, 55680, Note_on_c, 3, 62, 0
5, 55680, Note_on_c, 3, 62, 100
5, 55680, Note_on_c, 3, 55, 100
5, 56640, Note_on_c, 3, 55, 0
5, 56640, Note_on_c, 3, 62, 0
5, 56640, Note_on_c, 3, 60, 100
5, 56640, Note_on_c, 3, 52, 100
5, 57600, Note_on_c, 3, 52, 0
5, 57600, Note_on_c, 3, 60, 0
5, 57600, Note_on_c, 3, 60, 100
5, 57600, Note_on_c, 3, 62, 100
5, 58560, Note_on_c, 3, 62, 0
5, 58560, Note_on_c, 3, 60, 0
5, 58560, Note_on_c, 3, 62, 100
5, 58560, Note_on_c, 3, 55, 100
5, 59520, Note_on_c, 3, 55, 0
5, 59520, Note_on_c, 3, 62, 0
5, 59520, Note_on_c, 3, 52, 127
5, 59520, Note_on_c, 3, 64, 127
5, 60480, Note_on_c, 3, 64, 0
5, 60480, Note_on_c, 3, 52, 0
5, 60480, Note_on_c, 3, 62, 127
5, 60930, Note_on_c, 3, 62, 0
5, 61920, Note_on_c, 3, 62, 127
5, 62280, Note_on_c, 3, 62, 0
5, 62280, Note_on_c, 3, 62, 127
5, 62400, Note_on_c, 3, 62, 0
5, 62400, Note_on_c, 3, 62, 127
5, 62880, Note_on_c, 3, 62, 0
5, 62880, Note_on_c, 3, 62, 127
5, 63360, Note_on_c, 3, 62, 0
5, 63360, Note_on_c, 3, 62, 127
5, 63810, Note_on_c, 3, 62, 0
5, 64800, Note_on_c, 3, 62, 127
5, 65160, Note_on_c, 3, 62, 0
5, 65160, Note_on_c, 3, 62, 127
5, 65280, Note_on_c, 3, 62, 0
5, 65280, Note_on_c, 3, 62, 127
5, 65760, Note_on_c, 3, 62, 0
5, 65760, Note_on_c, 3, 62, 127
5, 66240, Note_on_c, 3, 62, 0
5, 66240, Note_on_c, 3, 62, 127
5, 67200, Note_on_c, 3, 62, 0
5, 67200, Note_on_c, 3, 62, 127
5, 68160, Note_on_c, 3, 62, 0
5, 68160, Note_on_c, 3, 62, 127
5, 68400, Note_on_c, 3, 62, 0
5, 68400, Note_on_c, 3, 62, 127
5, 68640, Note_on_c, 3, 62, 0
5, 68640, Note_on_c, 3, 62, 127
5, 68880, Note_on_c, 3, 62, 0
5, 68880, Note_on_c, 3, 62, 127
5, 69120, Note_on_c, 3, 62, 0
5, 69120, Note_on_c, 3, 62, 127
5, 69600, Note_on_c, 3, 62, 0
5, 89760, Note_on_c, 3, 55, 127
5, 89760, Note_on_c, 3, 62, 127
5, 90048, Note_on_c, 3, 62, 0
5, 90048, Note_on_c, 3, 55, 0
5, 90240, Note_on_c, 3, 64, 127
5, 90240, Note_on_c, 3, 60, 127
5, 90672, Note_on_c, 3, 60, 0
5, 90672, Note_on_c, 3, 64, 0
5, 91680, Note_on_c, 3, 62, 127
5, 91968, Note_on_c, 3, 62, 0
5, 92160, Note_on_c, 3, 64, 127
5, 92592, Note_on_c, 3, 64, 0
5, 93600, Note_on_c, 3, 62, 127
5, 93888, Note_on_c, 3, 62, 0
5, 94080, Note_on_c, 3, 55, 127
5, 94512, Note_on_c, 3, 55, 0
5, 97440, Note_on_c, 3, 55, 127
5, 97440, Note_on_c, 3, 67, 127
5, 97728, Note_on_c, 3, 67, 0
5, 97728, Note_on_c, 3, 55, 0
5, 97920, Note_on_c, 3, 64, 127
5, 97920, Note_on_c, 3, 52, 127
5, 98352, Note_on_c, 3, 52, 0
5, 98352, Note_on_c, 3, 64, 0
5, 101280, Note_on_c, 3, 52, 127
5, 101280, Note_on_c, 3, 64, 127
5, 101568, Note_on_c, 3, 64, 0
5, 101568, Note_on_c, 3, 52, 0
5, 101760, Note_on_c, 3, 60, 127
5, 101760, Note_on_c, 3, 48, 127
5, 102192, Note_on_c, 3, 48, 0
5, 102192, Note_on_c, 3, 60, 0
5, 104160, Note_on_c, 3, 55, 127
5, 104160, Note_on_c, 3, 62, 127
5, 104448, Note_on_c, 3, 62, 0
5, 104448, Note_on_c, 3, 55, 0
5, 104640, Note_on_c, 3, 64, 127
5, 104640, Note_on_c, 3, 60, 127
5, 105120, Note_on_c, 3, 60, 0
5, 105120, Note_on_c, 3, 64, 0
5, 105600, Note_on_c, 3, 48, 127
5, 105600, Note_on_c, 3, 60, 127
5, 106080, Note_on_c, 3, 60, 0
5, 106080, Note_on_c, 3, 48, 0
5, 106560, Note_on_c, 3, 60, 127
5, 106560, Note_on_c, 3, 52, 127
5, 107040, Note_on_c, 3, 52, 0
5, 107040, Note_on_c, 3, 60, 0
5, 107520, Note_on_c, 3, 60, 127
5, 107520, Note_on_c, 3, 64, 127
5, 108000, Note_on_c, 3, 64, 0
5, 108000, Note_on_c, 3, 60, 0
5, 108480, Note_on_c, 3, 62, 127
5, 109440, Note_on_c, 3, 62, 0
5, 109440, Note_on_c, 3, 62, 127
5, 109440, Note_on_c, 3, 55, 127
5, 109920, Note_on_c, 3, 55, 0
5, 109920, Note_on_c, 3, 62, 0
5, 110640, Note_on_c, 3, 62, 127
5, 110640, Note_on_c, 3, 55, 127
5, 110760, Note_on_c, 3, 55, 0
5, 110760, Note_on_c, 3, 62, 0
5, 110880, Note_on_c, 3, 62, 127
5, 110880, Note_on_c, 3, 55, 127
5, 111000, Note_on_c, 3, 55, 0
5, 111000, Note_on_c, 3, 62, 0
5, 111120, Note_on_c, 3, 55, 127
5, 111120, Note_on_c, 3, 62, 127
5, 111240, Note_on_c, 3, 62, 0
5, 111240, Note_on_c, 3, 55, 0
5, 111360, Note_on_c, 3, 55, 127
5, 111360, Note_on_c, 3, 64, 127
5, 112440, Note_on_c, 3, 64, 0
5, 112440, Note_on_c, 3, 55, 0
5, 112560, Note_on_c, 3, 64, 127
5, 112560, Note_on_c, 3, 55, 127
5, 112680, Note_on_c, 3, 55, 0
5, 112680, Note_on_c, 3, 64, 0
5, 112800, Note_on_c, 3, 64, 127
5, 112800, Note_on_c, 3, 55, 127
5, 112920, Note_on_c, 3, 55, 0
5, 112920, Note_on_c, 3, 64, 0
5, 113040, Note_on_c, 3, 55, 127
5, 113040, Note_on_c, 3, 64, 127
5, 113160, Note_on_c, 3, 64, 0
5, 113160, Note_on_c, 3, 55, 0
5, 113280, Note_on_c, 3, 55, 127
5, 113280, Note_on_c, 3, 62, 127
5, 114360, Note_on_c, 3, 62, 0
5, 114360, Note_on_c, 3, 55, 0
5, 114480, Note_on_c, 3, 62, 127
5, 114480, Note_on_c, 3, 55, 127
5, 114600, Note_on_c, 3, 55, 0
5, 114600, Note_on_c, 3, 62, 0
5, 114720, Note_on_c, 3, 62, 127
5, 114720, Note_on_c, 3, 55, 127
5, 114840, Note_on_c, 3, 55, 0
5, 114840, Note_on_c, 3, 62, 0
5, 114960, Note_on_c, 3, 55, 127
5, 114960, Note_on_c, 3, 62, 127
5, 115080, Note_on_c, 3, 62, 0
5, 115080, Note_on_c, 3, 55, 0
5, 115200, Note_on_c, 3, 60, 127
5, 115200, Note_on_c, 3, 64, 127
5, 116160, Note_on_c, 3, 64, 0
5, 116160, Note_on_c, 3, 60, 0
5, 116160, Note_on_c, 3, 62, 127
5, 117120, Note_on_c, 3, 62, 0
5, 117120, Note_on_c, 3, 55, 127
5, 117120, Note_on_c, 3, 62, 127
5, 118200, Note_on_c, 3, 62, 0
5, 118200, Note_on_c, 3, 55, 0
5, 118320, Note_on_c, 3, 62, 127
5, 118320, Note_on_c, 3, 55, 127
5, 118440, Note_on_c, 3, 55, 0
5, 118440, Note_on_c, 3, 62, 0
5, 118560, Note_on_c, 3, 62, 127
5, 118560, Note_on_c, 3, 55, 127
5, 118680, Note_on_c, 3, 55, 0
5, 118680, Note_on_c, 3, 62, 0
5, 118800, Note_on_c, 3, 55, 127
5, 118800, Note_on_c, 3, 62, 127
5, 118920, Note_on_c, 3, 62, 0
5, 118920, Note_on_c, 3, 55, 0
5, 119040, Note_on_c, 3, 55, 127
5, 119040, Note_on_c, 3, 62, 127
5, 120120, Note_on_c, 3, 62, 0
5, 120120, Note_on_c, 3, 55, 0
5, 120240, Note_on_c, 3, 62, 127
5, 120240, Note_on_c, 3, 55, 127
5, 120360, Note_on_c, 3, 55, 0
5, 120360, Note_on_c, 3, 62, 0
5, 120480, Note_on_c, 3, 62, 127
5, 120480, Note_on_c, 3, 55, 127
5, 120600, Note_on_c, 3, 55, 0
5, 120600, Note_on_c, 3, 62, 0
5, 120720, Note_on_c, 3, 55, 127
5, 120720, Note_on_c, 3, 62, 127
5, 120840, Note_on_c, 3, 62, 0
5, 120840, Note_on_c, 3, 55, 0
5, 120960, Note_on_c, 3, 60, 127
5, 120960, Note_on_c, 3, 55, 127
5, 121080, Note_on_c, 3, 55, 0
5, 121080, Note_on_c, 3, 60, 0
5, 121200, Note_on_c, 3, 55, 127
5, 121200, Note_on_c, 3, 60, 127
5, 121320, Note_on_c, 3, 60, 0
5, 121320, Note_on_c, 3, 55, 0
5, 121440, Note_on_c, 3, 60, 127
5, 121440, Note_on_c, 3, 55, 127
5, 121560, Note_on_c, 3, 55, 0
5, 121560, Note_on_c, 3, 60, 0
5, 121680, Note_on_c, 3, 55, 127
5, 121680, Note_on_c, 3, 60, 127
5, 121800, Note_on_c, 3, 60, 0
5, 121800, Note_on_c, 3, 55, 0
5, 121920, Note_on_c, 3, 48, 127
5, 121920, Note_on_c, 3, 60, 127
5, 122640, Note_on_c, 3, 60, 0
5, 122640, Note_on_c, 3, 48, 0
5, 122640, Note_on_c, 3, 62, 127
5, 122640, Note_on_c, 3, 55, 127
5, 122760, Note_on_c, 3, 55, 0
5, 122760, Note_on_c, 3, 62, 0
5, 122880, Note_on_c, 3, 60, 127
5, 122880, Note_on_c, 3, 48, 127
5, 123000, Note_on_c, 3, 48, 0
5, 123000, Note_on_c, 3, 60, 0
5, 123120, Note_on_c, 3, 55, 127
5, 123120, Note_on_c, 3, 62, 127
5, 123240, Note_on_c, 3, 62, 0
5, 123240, Note_on_c, 3, 55, 0
5, 123360, Note_on_c, 3, 60, 127
5, 123360, Note_on_c, 3, 48, 127
5, 123480, Note_on_c, 3, 48, 0
5, 123480, Note_on_c, 3, 60, 0
5, 123600, Note_on_c, 3, 55, 127
5, 123600, Note_on_c, 3, 62, 127
5, 123720, Note_on_c, 3, 62, 0
5, 123720, Note_on_c, 3, 55, 0
5, 123840, Note_on_c, 3, 60, 127
5, 123840, Note_on_c, 3, 48, 127
5, 124560, Note_on_c, 3, 48, 0
5, 124560, Note_on_c, 3, 60, 0
5, 124560, Note_on_c, 3, 55, 127
5, 124560, Note_on_c, 3, 62, 127
5, 124680, Note_on_c, 3, 62, 0
5, 124680, Note_on_c, 3, 55, 0
5, 124800, Note_on_c, 3, 60, 127
5, 124800, Note_on_c, 3, 48, 127
5, 124920, Note_on_c, 3, 48, 0
5, 124920, Note_on_c, 3, 60, 0
5, 125040, Note_on_c, 3, 55, 127
5, 125040, Note_on_c, 3, 62, 127
5, 125160, Note_on_c, 3, 62, 0
5, 125160, Note_on_c, 3, 55, 0
5, 125280, Note_on_c, 3, 60, 127
5, 125280, Note_on_c, 3, 48, 127
5, 125400, Note_on_c, 3, 48, 0
5, 125400, Note_on_c, 3, 60, 0
5, 125520, Note_on_c, 3, 55, 127
5, 125520, Note_on_c, 3, 62, 127
5, 125640, Note_on_c, 3, 62, 0
5, 125640, Note_on_c, 3, 55, 0
5, 125760, Note_on_c, 3, 67, 127
5, 125760, Note_on_c, 3, 55, 127
5, 126096, Note_on_c, 3, 55, 0
5, 126096, Note_on_c, 3, 67, 0
5, 126240, Note_on_c, 3, 62, 127
5, 126576, Note_on_c, 3, 62, 0
5, 126720, Note_on_c, 3, 55, 127
5, 127224, Note_on_c, 3, 55, 0
5, 127680, Note_on_c, 3, 64, 127
5, 127680, Note_on_c, 3, 60, 127
5, 128016, Note_on_c, 3, 60, 0
5, 128016, Note_on_c, 3, 64, 0
5, 128160, Note_on_c, 3, 62, 127
5, 128496, Note_on_c, 3, 62, 0
5, 128640, Note_on_c, 3, 62, 127
5, 128640, Note_on_c, 3, 55, 127
5, 129144, Note_on_c, 3, 55, 0
5, 129144, Note_on_c, 3, 62, 0
5, 129600, Note_on_c, 3, 64, 127
5, 129600, Note_on_c, 3, 60, 127
5, 130560, Note_on_c, 3, 60, 0
5, 130560, Note_on_c, 3, 64, 0
5, 130560, Note_on_c, 3, 60, 127
5, 130560, Note_on_c, 3, 62, 127
5, 130896, Note_on_c, 3, 62, 0
5, 130896, Note_on_c, 3, 60, 0
5, 131040, Note_on_c, 3, 62, 127
5, 131040, Note_on_c, 3, 60, 127
5, 131376, Note_on_c, 3, 60, 0
5, 131376, Note_on_c, 3, 62, 0
5, 131520, Note_on_c, 3, 62, 127
5, 131520, Note_on_c, 3, 55, 127
5, 132024, Note_on_c, 3, 55, 0
5, 132024, Note_on_c, 3, 62, 0
5, 132480, Note_on_c, 3, 67, 127
5, 132480, Note_on_c, 3, 64, 127
5, 133440, Note_on_c, 3, 64, 0
5, 133440, Note_on_c, 3, 67, 0
5, 133440, Note_on_c, 3, 62, 127
5, 133728, Note_on_c, 3, 62, 0
5, 133920, Note_on_c, 3, 62, 127
5, 134208, Note_on_c, 3, 62, 0
5, 134400, Note_on_c, 3, 62, 127
5, 134400, Note_on_c, 3, 55, 127
5, 134832, Note_on_c, 3, 55, 0
5, 134832, Note_on_c, 3, 62, 0
5, 135360, Note_on_c, 3, 64, 127
5, 135360, Note_on_c, 3, 55, 127
5, 136320, Note_on_c, 3, 55, 0
5, 136320, Note_on_c, 3, 64, 0
5, 136320, Note_on_c, 3, 64, 127
5, 136320, Note_on_c, 3, 60, 127
5, 137280, Note_on_c, 3, 60, 0
5, 137280, Note_on_c, 3, 64, 0
5, 137280, Note_on_c, 3, 60, 127
5, 137280, Note_on_c, 3, 62, 127
5, 138240, Note_on_c, 3, 62, 0
5, 138240, Note_on_c, 3, 60, 0
5, 138240, Note_on_c, 3, 62, 127
5, 138240, Note_on_c, 3, 55, 127
5, 138720, Note_on_c, 3, 55, 0
5, 138720, Note_on_c, 3, 62, 0
5, 139200, Note_on_c, 3, 64, 127
5, 139200, Note_on_c, 3, 55, 127
5, 139704, Note_on_c, 3, 55, 0
5, 139704, Note_on_c, 3, 64, 0
5, 140160, Note_on_c, 3, 64, 127
5, 140160, Note_on_c, 3, 55, 127
5, 140496, Note_on_c, 3, 55, 0
5, 140496, Note_on_c, 3, 64, 0
5, 140640, Note_on_c, 3, 62, 127
5, 140976, Note_on_c, 3, 62, 0
5, 141120, Note_on_c, 3, 62, 127
5, 141120, Note_on_c, 3, 55, 127
5, 141624, Note_on_c, 3, 55, 0
5, 141624, Note_on_c, 3, 62, 0
5, 142080, Note_on_c, 3, 55, 127
5, 142080, Note_on_c, 3, 64, 127
5, 142584, Note_on_c, 3, 64, 0
5, 142584, Note_on_c, 3, 55, 0
5, 143040, Note_on_c, 3, 64, 127
5, 143040, Note_on_c, 3, 55, 127
5, 143376, Note_on_c, 3, 55, 0
5, 143376, Note_on_c, 3, 64, 0
5, 143520, Note_on_c, 3, 62, 127
5, 143856, Note_on_c, 3, 62, 0
5, 144000, Note_on_c, 3, 62, 127
5, 144000, Note_on_c, 3, 55, 127
5, 144504, Note_on_c, 3, 55, 0
5, 144504, Note_on_c, 3, 62, 0
5, 158400, Note_on_c, 3, 60, 100
5, 158880, Note_on_c, 3, 60, 0
5, 158880, Note_on_c, 3, 48, 103
5, 159360, Note_on_c, 3, 48, 0
5, 159360, Note_on_c, 3, 55, 106
5, 159840, Note_on_c, 3, 55, 0
5, 160320, Note_on_c, 3, 55, 113
5, 160320, Note_on_c, 3, 67, 113
5, 160800, Note_on_c, 3, 67, 0
5, 160800, Note_on_c, 3, 55, 0
5, 160800, Note_on_c, 3, 43, 116
5, 160800, Note_on_c, 3, 55, 116
5, 161280, Note_on_c, 3, 55, 0
5, 161280, Note_on_c, 3, 43, 0
5, 161280, Note_on_c, 3, 55, 120
5, 161280, Note_on_c, 3, 48, 120
5, 161760, Note_on_c, 3, 48, 0
5, 161760, Note_on_c, 3, 55, 0
5, 162480, Note_on_c, 3, 60, 127
5, 162480, Note_on_c, 3, 48, 127
5, 162600, Note_on_c, 3, 48, 0
5, 162600, Note_on_c, 3, 60, 0
5, 162720, Note_on_c, 3, 60, 127
5, 162720, Note_on_c, 3, 48, 127
5, 162840, Note_on_c, 3, 48, 0
5, 162840, Note_on_c, 3, 60, 0
5, 162960, Note_on_c, 3, 48, 127
5, 162960, Note_on_c, 3, 60, 127
5, 163080, Note_on_c, 3, 60, 0
5, 163080, Note_on_c, 3, 48, 0
5, 163200, Note_on_c, 3, 48, 127
5, 163200, Note_on_c, 3, 60, 127
5, 164160, Note_on_c, 3, 60, 0
5, 164160, Note_on_c, 3, 48, 0
5, 164160, Note_on_c, 3, 64, 127
5, 164160, Note_on_c, 3, 60, 127
5, 164496, Note_on_c, 3, 60, 0
5, 164496, Note_on_c, 3, 64, 0
5, 164640, Note_on_c, 3, 55, 127
5, 164640, Note_on_c, 3, 62, 127
5, 164976, Note_on_c, 3, 62, 0
5, 164976, Note_on_c, 3, 55, 0
5, 165120, Note_on_c, 3, 60, 127
5, 165120, Note_on_c, 3, 52, 127
5, 165240, Note_on_c, 3, 52, 0
5, 165240, Note_on_c, 3, 60, 0
5, 165360, Note_on_c, 3, 60, 127
5, 165360, Note_on_c, 3, 48, 127
5, 165480, Note_on_c, 3, 48, 0
5, 165480, Note_on_c, 3, 60, 0
5, 165600, Note_on_c, 3, 60, 127
5, 165600, Note_on_c, 3, 48, 127
5, 165720, Note_on_c, 3, 48, 0
5, 165720, Note_on_c, 3, 60, 0
5, 165840, Note_on_c, 3, 48, 127
5, 165840, Note_on_c, 3, 60, 127
5, 165960, Note_on_c, 3, 60, 0
5, 165960, Note_on_c, 3, 48, 0
5, 166080, Note_on_c, 3, 48, 127
5, 166080, Note_on_c, 3, 60, 127
5, 166752, Note_on_c, 3, 60, 0
5, 166752, Note_on_c, 3, 48, 0
5, 167040, Note_on_c, 3, 64, 127
5, 167040, Note_on_c, 3, 60, 127
5, 167160, Note_on_c, 3, 60, 0
5, 167160, Note_on_c, 3, 64, 0
5, 167280, Note_on_c, 3, 64, 127
5, 167280, Note_on_c, 3, 60, 127
5, 167400, Note_on_c, 3, 60, 0
5, 167400, Note_on_c, 3, 64, 0
5, 167520, Note_on_c, 3, 62, 127
5, 167520, Note_on_c, 3, 55, 127
5, 167640, Note_on_c, 3, 55, 0
5, 167640, Note_on_c, 3, 62, 0
5, 167760, Note_on_c, 3, 55, 127
5, 167760, Note_on_c, 3, 62, 127
5, 167880, Note_on_c, 3, 62, 0
5, 167880, Note_on_c, 3, 55, 0
5, 168000, Note_on_c, 3, 60, 127
5, 168000, Note_on_c, 3, 48, 127
5, 168336, Note_on_c, 3, 48, 0
5, 168336, Note_on_c, 3, 60, 0
5, 168480, Note_on_c, 3, 60, 127
5, 168480, Note_on_c, 3, 48, 127
5, 168600, Note_on_c, 3, 48, 0
5, 168600, Note_on_c, 3, 60, 0
5, 168720, Note_on_c, 3, 60, 127
5, 168720, Note_on_c, 3, 48, 127
5, 168840, Note_on_c, 3, 48, 0
5, 168840, Note_on_c, 3, 60, 0
5, 168960, Note_on_c, 3, 52, 127
5, 168960, Note_on_c, 3, 64, 127
5, 169296, Note_on_c, 3, 64, 0
5, 169296, Note_on_c, 3, 52, 0
5, 169440, Note_on_c, 3, 52, 127
5, 169440, Note_on_c, 3, 64, 127
5, 169560, Note_on_c, 3, 64, 0
5, 169560, Note_on_c, 3, 52, 0
5, 169680, Note_on_c, 3, 52, 127
5, 169680, Note_on_c, 3, 64, 127
5, 169800, Note_on_c, 3, 64, 0
5, 169800, Note_on_c, 3, 52, 0
5, 169920, Note_on_c, 3, 55, 127
5, 169920, Note_on_c, 3, 67, 127
5, 170256, Note_on_c, 3, 67, 0
5, 170256, Note_on_c, 3, 55, 0
5, 170400, Note_on_c, 3, 67, 127
5, 170400, Note_on_c, 3, 55, 127
5, 170520, Note_on_c, 3, 55, 0
5, 170520, Note_on_c, 3, 67, 0
5, 170640, Note_on_c, 3, 55, 127
5, 170640, Note_on_c, 3, 67, 127
5, 170760, Note_on_c, 3, 67, 0
5, 170760, Note_on_c, 3, 55, 0
5, 170880, Note_on_c, 3, 64, 127
5, 170880, Note_on_c, 3, 60, 127
5, 171384, Note_on_c, 3, 60, 0
5, 171384, Note_on_c, 3, 64, 0
5, 173760, Note_on_c, 3, 60, 127
5, 173760, Note_on_c, 3, 48, 127
5, 174096, Note_on_c, 3, 48, 0
5, 174096, Note_on_c, 3, 60, 0
5, 174240, Note_on_c, 3, 60, 127
5, 174240, Note_on_c, 3, 48, 127
5, 174360, Note_on_c, 3, 48, 0
5, 174360, Note_on_c, 3, 60, 0
5, 174480, Note_on_c, 3, 48, 127
5, 174480, Note_on_c, 3, 60, 127
5, 174600, Note_on_c, 3, 60, 0
5, 174600, Note_on_c, 3, 48, 0
5, 174720, Note_on_c, 3, 52, 127
5, 174720, Note_on_c, 3, 64, 127
5, 175056, Note_on_c, 3, 64, 0
5, 175056, Note_on_c, 3, 52, 0
5, 175200, Note_on_c, 3, 64, 127
5, 175200, Note_on_c, 3, 52, 127
5, 175320, Note_on_c, 3, 52, 0
5, 175320, Note_on_c, 3, 64, 0
5, 175440, Note_on_c, 3, 64, 127
5, 175440, Note_on_c, 3, 52, 127
5, 175560, Note_on_c, 3, 52, 0
5, 175560, Note_on_c, 3, 64, 0
5, 175680, Note_on_c, 3, 55, 127
5, 175680, Note_on_c, 3, 67, 127
5, 176016, Note_on_c, 3, 67, 0
5, 176016, Note_on_c, 3, 55, 0
5, 176160, Note_on_c, 3, 55, 127
5, 176160, Note_on_c, 3, 67, 127
5, 176280, Note_on_c, 3, 67, 0
5, 176280, Note_on_c, 3, 55, 0
5, 176400, Note_on_c, 3, 67, 127
5, 176400, Note_on_c, 3, 55, 127
5, 176520, Note_on_c, 3, 55, 0
5, 176520, Note_on_c, 3, 67, 0
5, 176640, Note_on_c, 3, 64, 127
5, 176640, Note_on_c, 3, 60, 127
5, 176760, Note_on_c, 3, 60, 0
5, 176760, Note_on_c, 3, 64, 0
5, 176880, Note_on_c, 3, 62, 127
5, 176880, Note_on_c, 3, 55, 127
5, 177000, Note_on_c, 3, 55, 0
5, 177000, Note_on_c, 3, 62, 0
5, 177120, Note_on_c, 3, 64, 127
5, 177120, Note_on_c, 3, 60, 127
5, 177240, Note_on_c, 3, 60, 0
5, 177240, Note_on_c, 3, 64, 0
5, 177360, Note_on_c, 3, 55, 127
5, 177360, Note_on_c, 3, 62, 127
5, 177480, Note_on_c, 3, 62, 0
5, 177480, Note_on_c, 3, 55, 0
5, 177600, Note_on_c, 3, 64, 127
5, 177600, Note_on_c, 3, 60, 127
5, 177720, Note_on_c, 3, 60, 0
5, 177720, Note_on_c, 3, 64, 0
5, 177840, Note_on_c, 3, 62, 127
5, 177840, Note_on_c, 3, 55, 127
5, 177960, Note_on_c, 3, 55, 0
5, 177960, Note_on_c, 3, 62, 0
5, 178080, Note_on_c, 3, 64, 127
5, 178080, Note_on_c, 3, 60, 127
5, 178200, Note_on_c, 3, 60, 0
5, 178200, Note_on_c, 3, 64, 0
5, 178320, Note_on_c, 3, 55, 127
5, 178320, Note_on_c, 3, 62, 127
5, 178440, Note_on_c, 3, 62, 0
5, 178440, Note_on_c, 3, 55, 0
5, 178560, Note_on_c, 3, 60, 127
5, 178560, Note_on_c, 3, 64, 127
5, 178896, Note_on_c, 3, 64, 0
5, 178896, Note_on_c, 3, 60, 0
5, 179040, Note_on_c, 3, 60, 127
5, 179220, Note_on_c, 3, 60, 0
5, 179400, Note_on_c, 3, 60, 127
5, 179460, Note_on_c, 3, 60, 0
5, 179520, Note_on_c, 3, 60, 127
5, 179640, Note_on_c, 3, 60, 0
5, 179760, Note_on_c, 3, 55, 127
5, 179880, Note_on_c, 3, 55, 0
5, 180000, Note_on_c, 3, 52, 127
5, 180120, Note_on_c, 3, 52, 0
5, 180240, Note_on_c, 3, 48, 127
5, 180360, Note_on_c, 3, 48, 0
5, 180480, Note_on_c, 3, 55, 127
5, 180600, Note_on_c, 3, 55, 0
5, 180720, Note_on_c, 3, 55, 127
5, 180720, Note_on_c, 3, 62, 127
5, 180840, Note_on_c, 3, 62, 0
5, 180840, Note_on_c, 3, 55, 0
5, 180960, Note_on_c, 3, 64, 127
5, 180960, Note_on_c, 3, 60, 127
5, 181080, Note_on_c, 3, 60, 0
5, 181080, Note_on_c, 3, 64, 0
5, 181200, Note_on_c, 3, 60, 127
5, 181200, Note_on_c, 3, 64, 127
5, 181320, Note_on_c, 3, 64, 0
5, 181320, Note_on_c, 3, 60, 0
5, 181440, Note_on_c, 3, 62, 127
5, 181440, Note_on_c, 3, 55, 127
5, 181560, Note_on_c, 3, 55, 0
5, 181560, Note_on_c, 3, 62, 0
5, 181680, Note_on_c, 3, 62, 127
5, 181680, Note_on_c, 3, 55, 127
5, 181800, Note_on_c, 3, 55, 0
5, 181800, Note_on_c, 3, 62, 0
5, 181920, Note_on_c, 3, 64, 127
5, 181920, Note_on_c, 3, 60, 127
5, 182040, Note_on_c, 3, 60, 0
5, 182040, Note_on_c, 3, 64, 0
5, 182160, Note_on_c, 3, 60, 127
5, 182160, Note_on_c, 3, 64, 127
5, 182280, Note_on_c, 3, 64, 0
5, 182280, Note_on_c, 3, 60, 0
5, 182400, Note_on_c, 3, 62, 127
5, 182400, Note_on_c, 3, 55, 127
5, 182520, Note_on_c, 3, 55, 0
5, 182520, Note_on_c, 3, 62, 0
5, 182640, Note_on_c, 3, 62, 127
5, 182640, Note_on_c, 3, 55, 127
5, 182760, Note_on_c, 3, 55, 0
5, 182760, Note_on_c, 3, 62, 0
5, 182880, Note_on_c, 3, 64, 127
5, 182880, Note_on_c, 3, 60, 127
5, 183000, Note_on_c, 3, 60, 0
5, 183000, Note_on_c, 3, 64, 0
5, 183120, Note_on_c, 3, 60, 127
5, 183120, Note_on_c, 3, 64, 127
5, 183240, Note_on_c, 3, 64, 0
5, 183240, Note_on_c, 3, 60, 0
5, 183360, Note_on_c, 3, 62, 127
5, 183360, Note_on_c, 3, 55, 127
5, 183840, Note_on_c, 3, 55, 0
5, 183840, Note_on_c, 3, 62, 0
5, 200640, Note_on_c, 3, 60, 127
5, 200640, Note_on_c, 3, 48, 127
5, 201120, Note_on_c, 3, 48, 0
5, 201120, Note_on_c, 3, 60, 0
5, 201120, Note_on_c, 3, 60, 127
5, 201120, Note_on_c, 3, 48, 127
5, 201480, Note_on_c, 3, 48, 0
5, 201480, Note_on_c, 3, 60, 0
5, 201480, Note_on_c, 3, 48, 127
5, 201480, Note_on_c, 3, 60, 127
5, 201600, Note_on_c, 3, 60, 0
5, 201600, Note_on_c, 3, 48, 0
5, 201600, Note_on_c, 3, 60, 127
5, 201600, Note_on_c, 3, 48, 127
5, 202080, Note_on_c, 3, 48, 0
5, 202080, Note_on_c, 3, 60, 0
5, 202560, Note_on_c, 3, 55, 127
5, 203040, Note_on_c, 3, 55, 0
5, 203040, Note_on_c, 3, 55, 127
5, 203400, Note_on_c, 3, 55, 0
5, 203400, Note_on_c, 3, 55, 127
5, 203520, Note_on_c, 3, 55, 0
5, 203520, Note_on_c, 3, 55, 127
5, 203520, Note_on_c, 3, 48, 127
5, 204000, Note_on_c, 3, 48, 0
5, 204000, Note_on_c, 3, 55, 0
5, 204480, Note_on_c, 3, 60, 127
5, 204480, Note_on_c, 3, 64, 127
5, 205440, Note_on_c, 3, 64, 0
5, 205440, Note_on_c, 3, 60, 0
5, 205440, Note_on_c, 3, 62, 127
5, 205440, Note_on_c, 3, 60, 127
5, 206400, Note_on_c, 3, 60, 0
5, 206400, Note_on_c, 3, 62, 0
5, 206400, Note_on_c, 3, 62, 127
5, 206400, Note_on_c, 3, 55, 127
5, 207360, Note_on_c, 3, 55, 0
5, 207360, Note_on_c, 3, 62, 0
5, 207360, Note_on_c, 3, 60, 127
5, 207360, Note_on_c, 3, 52, 127
5, 208320, Note_on_c, 3, 52, 0
5, 208320, Note_on_c, 3, 60, 0
5, 208320, Note_on_c, 3, 60, 127
5, 208320, Note_on_c, 3, 62, 127
5, 209280, Note_on_c, 3, 62, 0
5, 209280, Note_on_c, 3, 60, 0
5, 209280, Note_on_c, 3, 62, 127
5, 209280, Note_on_c, 3, 55, 127
5, 210240, Note_on_c, 3, 55, 0
5, 210240, Note_on_c, 3, 62, 0
5, 210240, Note_on_c, 3, 52, 127
5, 210240, Note_on_c, 3, 64, 127
5, 211200, Note_on_c, 3, 64, 0
5, 211200, Note_on_c, 3, 52, 0
5, 211200, Note_on_c, 3, 62, 127
5, 211650, Note_on_c, 3, 62, 0
5, 212640, Note_on_c, 3, 62, 127
5, 213000, Note_on_c, 3, 62, 0
5, 213000, Note_on_c, 3, 62, 127
5, 213120, Note_on_c, 3, 62, 0
5, 213120, Note_on_c, 3, 62, 127
5, 213600, Note_on_c, 3, 62, 0
5, 213600, Note_on_c, 3, 62, 127
5, 214080, Note_on_c, 3, 62, 0
5, 214080, Note_on_c, 3, 62, 127
5, 214530, Note_on_c, 3, 62, 0
5, 215520, Note_on_c, 3, 62, 127
5, 215880, Note_on_c, 3, 62, 0
5, 215880, Note_on_c, 3, 62, 127
5, 216000, Note_on_c, 3, 62, 0
5, 216000, Note_on_c, 3, 62, 127
5, 216480, Note_on_c, 3, 62, 0
5, 216480, Note_on_c, 3, 62, 127
5, 216960, Note_on_c, 3, 62, 0
5, 216960, Note_on_c, 3, 62, 127
5, 217920, Note_on_c, 3, 62, 0
5, 217920, Note_on_c, 3, 62, 127
5, 218880, Note_on_c, 3, 62, 0
5, 218880, Note_on_c, 3, 62, 127
5, 219120, Note_on_c, 3, 62, 0
5, 219120, Note_on_c, 3, 62, 127
5, 219360, Note_on_c, 3, 62, 0
5, 219360, Note_on_c, 3, 62, 127
5, 219600, Note_on_c, 3, 62, 0
5, 219600, Note_on_c, 3, 62, 127
5, 219840, Note_on_c, 3, 62, 0
5, 219840, Note_on_c, 3, 62, 127
5, 220320, Note_on_c, 3, 62, 0
5, 240480, Note_on_c, 3, 55, 100
5, 240480, Note_on_c, 3, 62, 100
5, 240768, Note_on_c, 3, 62, 0
5, 240768, Note_on_c, 3, 55, 0
5, 240960, Note_on_c, 3, 64, 100
5, 240960, Note_on_c, 3, 60, 100
5, 241392, Note_on_c, 3, 60, 0
5, 241392, Note_on_c, 3, 64, 0
5, 242400, Note_on_c, 3, 62, 100
5, 242688, Note_on_c, 3, 62, 0
5, 242880, Note_on_c, 3, 64, 100
5, 243312, Note_on_c, 3, 64, 0
5, 244320, Note_on_c, 3, 62, 100
5, 244608, Note_on_c, 3, 62, 0
5, 244800, Note_on_c, 3, 55, 100
5, 245232, Note_on_c, 3, 55, 0
5, 248160, Note_on_c, 3, 55, 100
5, 248160, Note_on_c, 3, 67, 100
5, 248448, Note_on_c, 3, 67, 0
5, 248448, Note_on_c, 3, 55, 0
5, 248640, Note_on_c, 3, 64, 100
5, 248640, Note_on_c, 3, 52, 100
5, 249072, Note_on_c, 3, 52, 0
5, 249072, Note_on_c, 3, 64, 0
5, 252000, Note_on_c, 3, 52, 100
5, 252000, Note_on_c, 3, 64, 100
5, 252288, Note_on_c, 3, 64, 0
5, 252288, Note_on_c, 3, 52, 0
5, 252480, Note_on_c, 3, 60, 100
5, 252480, Note_on_c, 3, 48, 100
5, 252912, Note_on_c, 3, 48, 0
5, 252912, Note_on_c, 3, 60, 0
5, 254880, Note_on_c, 3, 55, 100
5, 254880, Note_on_c, 3, 62, 100
5, 255168, Note_on_c, 3, 62, 0
5, 255168, Note_on_c, 3, 55, 0
5, 255360, Note_on_c, 3, 64, 100
5, 255360, Note_on_c, 3, 60, 100
5, 255840, Note_on_c, 3, 60, 0
5, 255840, Note_on_c, 3, 64, 0
5, 256320, Note_on_c, 3, 48, 100
5, 256320, Note_on_c, 3, 60, 100
5, 256800, Note_on_c, 3, 60, 0
5, 256800, Note_on_c, 3, 48, 0
5, 257280, Note_on_c, 3, 60, 100
5, 257280, Note_on_c, 3, 52, 100
5, 257760, Note_on_c, 3, 52, 0
5, 257760, Note_on_c, 3, 60, 0
5, 258240, Note_on_c, 3, 60, 100
5, 258240, Note_on_c, 3, 64, 100
5, 258720, Note_on_c, 3, 64, 0
5, 258720, Note_on_c, 3, 60, 0
5, 259200, Note_on_c, 3, 62, 100
5, 260160, Note_on_c, 3, 62, 0
5, 260160, Note_on_c, 3, 62, 100
5, 260160, Note_on_c, 3, 55, 100
5, 260640, Note_on_c, 3, 55, 0
5, 260640, Note_on_c, 3, 62, 0
5, 261360, Note_on_c, 3, 62, 100
5, 261360, Note_on_c, 3, 55, 100
5, 261480, Note_on_c, 3, 55, 0
5, 261480, Note_on_c, 3, 62, 0
5, 261600, Note_on_c, 3, 62, 100
5, 261600, Note_on_c, 3, 55, 100
5, 261720, Note_on_c, 3, 55, 0
5, 261720, Note_on_c, 3, 62, 0
5, 261840, Note_on_c, 3, 55, 100
5, 261840, Note_on_c, 3, 62, 100
5, 261960, Note_on_c, 3, 62, 0
5, 261960, Note_on_c, 3, 55, 0
5, 262080, Note_on_c, 3, 55, 100
5, 262080, Note_on_c, 3, 64, 100
5, 263160, Note_on_c, 3, 64, 0
5, 263160, Note_on_c, 3, 55, 0
5, 263280, Note_on_c, 3, 64, 100
5, 263280, Note_on_c, 3, 55, 100
5, 263400, Note_on_c, 3, 55, 0
5, 263400, Note_on_c, 3, 64, 0
5, 263520, Note_on_c, 3, 64, 100
5, 263520, Note_on_c, 3, 55, 100
5, 263640, Note_on_c, 3, 55, 0
5, 263640, Note_on_c, 3, 64, 0
5, 263760, Note_on_c, 3, 55, 100
5, 263760, Note_on_c, 3, 64, 100
5, 263880, Note_on_c, 3, 64, 0
5, 263880, Note_on_c, 3, 55, 0
5, 264000, Note_on_c, 3, 55, 100
5, 264000, Note_on_c, 3, 62, 100
5, 265080, Note_on_c, 3, 62, 0
5, 265080, Note_on_c, 3, 55, 0
5, 265200, Note_on_c, 3, 62, 100
5, 265200, Note_on_c, 3, 55, 100
5, 265320, Note_on_c, 3, 55, 0
5, 265320, Note_on_c, 3, 62, 0
5, 265440, Note_on_c, 3, 62, 100
5, 265440, Note_on_c, 3, 55, 100
5, 265560, Note_on_c, 3, 55, 0
5, 265560, Note_on_c, 3, 62, 0
5, 265680, Note_on_c, 3, 55, 100
5, 265680, Note_on_c, 3, 62, 100
5, 265800, Note_on_c, 3, 62, 0
5, 265800, Note_on_c, 3, 55, 0
5, 265920, Note_on_c, 3, 60, 100
5, 265920, Note_on_c, 3, 64, 100
5, 266880, Note_on_c, 3, 64, 0
5, 266880, Note_on_c, 3, 60, 0
5, 266880, Note_on_c, 3, 62, 100
5, 267840, Note_on_c, 3, 62, 0
5, 267840, Note_on_c, 3, 55, 100
5, 267840, Note_on_c, 3, 62, 100
5, 268920, Note_on_c, 3, 62, 0
5, 268920, Note_on_c, 3, 55, 0
5, 269040, Note_on_c, 3, 62, 100
5, 269040, Note_on_c, 3, 55, 100
5, 269160, Note_on_c, 3, 55, 0
5, 269160, Note_on_c, 3, 62, 0
5, 269280, Note_on_c, 3, 62, 100
5, 269280, Note_on_c, 3, 55, 100
5, 269400, Note_on_c, 3, 55, 0
5, 269400, Note_on_c, 3, 62, 0
5, 269520, Note_on_c, 3, 55, 100
5, 269520, Note_on_c, 3, 62, 100
5, 269640, Note_on_c, 3, 62, 0
5, 269640, Note_on_c, 3, 55, 0
5, 269760, Note_on_c, 3, 55, 100
5, 269760, Note_on_c, 3, 62, 100
5, 270840, Note_on_c, 3, 62, 0
5, 270840, Note_on_c, 3, 55, 0
5, 270960, Note_on_c, 3, 62, 100
5, 270960, Note_on_c, 3, 55, 100
5, 271080, Note_on_c, 3, 55, 0
5, 271080, Note_on_c, 3, 62, 0
5, 271200, Note_on_c, 3, 62, 100
5, 271200, Note_on_c, 3, 55, 100
5, 271320, Note_on_c, 3, 55, 0
5, 271320, Note_on_c, 3, 62, 0
5, 271440, Note_on_c, 3, 55, 100
5, 271440, Note_on_c, 3, 62, 100
5, 271560, Note_on_c, 3, 62, 0
5, 271560, Note_on_c, 3, 55, 0
5, 271680, Note_on_c, 3, 60, 100
5, 271680, Note_on_c, 3, 55, 100
5, 271800, Note_on_c, 3, 55, 0
5, 271800, Note_on_c, 3, 60, 0
5, 271920, Note_on_c, 3, 55, 100
5, 271920, Note_on_c, 3, 60, 100
5, 272040, Note_on_c, 3, 60, 0
5, 272040, Note_on_c, 3, 55, 0
5, 272160, Note_on_c, 3, 60, 100
5, 272160, Note_on_c, 3, 55, 100
5, 272280, Note_on_c, 3, 55, 0
5, 272280, Note_on_c, 3, 60, 0
5, 272400, Note_on_c, 3, 55, 100
5, 272400, Note_on_c, 3, 60, 100
5, 272520, Note_on_c, 3, 60, 0
5, 272520, Note_on_c, 3, 55, 0
5, 272640, Note_on_c, 3, 48, 100
5, 272640, Note_on_c, 3, 60, 100
5, 273360, Note_on_c, 3, 60, 0
5, 273360, Note_on_c, 3, 48, 0
5, 273360, Note_on_c, 3, 62, 100
5, 273360, Note_on_c, 3, 55, 100
5, 273480, Note_on_c, 3, 55, 0
5, 273480, Note_on_c, 3, 62, 0
5, 273600, Note_on_c, 3, 60, 100
5, 273600, Note_on_c, 3, 48, 100
5, 273720, Note_on_c, 3, 48, 0
5, 273720, Note_on_c, 3, 60, 0
5, 273840, Note_on_c, 3, 55, 100
5, 273840, Note_on_c, 3, 62, 100
5, 273960, Note_on_c, 3, 62, 0
5, 273960, Note_on_c, 3, 55, 0
5, 274080, Note_on_c, 3, 60, 100
5, 274080, Note_on_c, 3, 48, 100
5, 274200, Note_on_c, 3, 48, 0
5, 274200, Note_on_c, 3, 60, 0
5, 274320, Note_on_c, 3, 55, 100
5, 274320, Note_on_c, 3, 62, 100
5, 274440, Note_on_c, 3, 62, 0
5, 274440, Note_on_c, 3, 55, 0
5, 274560, Note_on_c, 3, 60, 100
5, 274560, Note_on_c, 3, 48, 100
5, 275280, Note_on_c, 3, 48, 0
5, 275280, Note_on_c, 3, 60, 0
5, 275280, Note_on_c, 3, 55, 100
5, 275280, Note_on_c, 3, 62, 100
5, 275400, Note_on_c, 3, 62, 0
5, 275400, Note_on_c, 3, 55, 0
5, 275520, Note_on_c, 3, 60, 100
5, 275520, Note_on_c, 3, 48, 100
5, 275640, Note_on_c, 3, 48, 0
5, 275640, Note_on_c, 3, 60, 0
5, 275760, Note_on_c, 3, 55, 100
5, 275760, Note_on_c, 3, 62, 100
5, 275880, Note_on_c, 3, 62, 0
5, 275880, Note_on_c, 3, 55, 0
5, 276000, Note_on_c, 3, 60, 100
5, 276000, Note_on_c, 3, 48, 100
5, 276120, Note_on_c, 3, 48, 0
5, 276120, Note_on_c, 3, 60, 0
5, 276240, Note_on_c, 3, 55, 100
5, 276240, Note_on_c, 3, 62, 100
5, 276360, Note_on_c, 3, 62, 0
5, 276360, Note_on_c, 3, 55, 0
5, 276480, Note_on_c, 3, 67, 100
5, 276480, Note_on_c, 3, 55, 100
5, 276816, Note_on_c, 3, 55, 0
5, 276816, Note_on_c, 3, 67, 0
5, 276960, Note_on_c, 3, 62, 100
5, 277296, Note_on_c, 3, 62, 0
5, 277440, Note_on_c, 3, 55, 100
5, 277944, Note_on_c, 3, 55, 0
5, 278400, Note_on_c, 3, 64, 100
5, 278400, Note_on_c, 3, 60, 100
5, 278736, Note_on_c, 3, 60, 0
5, 278736, Note_on_c, 3, 64, 0
5, 278880, Note_on_c, 3, 62, 100
5, 279216, Note_on_c, 3, 62, 0
5, 279360, Note_on_c, 3, 62, 100
5, 279360, Note_on_c, 3, 55, 100
5, 279864, Note_on_c, 3, 55, 0
5, 279864, Note_on_c, 3, 62, 0
5, 280320, Note_on_c, 3, 64, 100
5, 280320, Note_on_c, 3, 60, 100
5, 281280, Note_on_c, 3, 60, 0
5, 281280, Note_on_c, 3, 64, 0
5, 281280, Note_on_c, 3, 60, 100
5, 281280, Note_on_c, 3, 62, 100
5, 281616, Note_on_c, 3, 62, 0
5, 281616, Note_on_c, 3, 60, 0
5, 281760, Note_on_c, 3, 62, 100
5, 281760, Note_on_c, 3, 60, 100
5, 282096, Note_on_c, 3, 60, 0
5, 282096, Note_on_c, 3, 62, 0
5, 282240, Note_on_c, 3, 62, 100
5, 282240, Note_on_c, 3, 55, 100
5, 282744, Note_on_c, 3, 55, 0
5, 282744, Note_on_c, 3, 62, 0
5, 283200, Note_on_c, 3, 67, 100
5, 283200, Note_on_c, 3, 64, 100
5, 284160, Note_on_c, 3, 64, 0
5, 284160, Note_on_c, 3, 67, 0
5, 284160, Note_on_c, 3, 62, 100
5, 284448, Note_on_c, 3, 62, 0
5, 284640, Note_on_c, 3, 62, 100
5, 284928, Note_on_c, 3, 62, 0
5, 285120, Note_on_c, 3, 62, 100
5, 285120, Note_on_c, 3, 55, 100
5, 285552, Note_on_c, 3, 55, 0
5, 285552, Note_on_c, 3, 62, 0
5, 286080, Note_on_c, 3, 64, 100
5, 286080, Note_on_c, 3, 55, 100
5, 287040, Note_on_c, 3, 55, 0
5, 287040, Note_on_c, 3, 64, 0
5, 287040, Note_on_c, 3, 64, 100
5, 287040, Note_on_c, 3, 60, 100
5, 288000, Note_on_c, 3, 60, 0
5, 288000, Note_on_c, 3, 64, 0
5, 288000, Note_on_c, 3, 60, 100
5, 288000, Note_on_c, 3, 62, 100
5, 288960, Note_on_c, 3, 62, 0
5, 288960, Note_on_c, 3, 60, 0
5, 288960, Note_on_c, 3, 62, 100
5, 288960, Note_on_c, 3, 55, 100
5, 289440, Note_on_c, 3, 55, 0
5, 289440, Note_on_c, 3, 62, 0
5, 289920, Note_on_c, 3, 64, 100
5, 289920, Note_on_c, 3, 55, 100
5, 290424, Note_on_c, 3, 55, 0
5, 290424, Note_on_c, 3, 64, 0
5, 290880, Note_on_c, 3, 64, 100
5, 290880, Note_on_c, 3, 55, 100
5, 291216, Note_on_c, 3, 55, 0
5, 291216, Note_on_c, 3, 64, 0
5, 291360, Note_on_c, 3, 62, 100
5, 291696, Note_on_c, 3, 62, 0
5, 291840, Note_on_c, 3, 62, 100
5, 291840, Note_on_c, 3, 55, 100
5, 292344, Note_on_c, 3, 55, 0
5, 292344, Note_on_c, 3, 62, 0
5, 292800, Note_on_c, 3, 55, 100
5, 292800, Note_on_c, 3, 64, 100
5, 293304, Note_on_c, 3, 64, 0
5, 293304, Note_on_c, 3, 55, 0
5, 293760, Note_on_c, 3, 64, 100
5, 293760, Note_on_c, 3, 55, 100
5, 294096, Note_on_c, 3, 55, 0
5, 294096, Note_on_c, 3, 64, 0
5, 294240, Note_on_c, 3, 62, 100
5, 294576, Note_on_c, 3, 62, 0
5, 294720, Note_on_c, 3, 62, 100
5, 294720, Note_on_c, 3, 55, 100
5, 295224, Note_on_c, 3, 55, 0
5, 295224, Note_on_c, 3, 62, 0
5, 301440, Note_on_c, 3, 43, 50
5, 301440, Note_on_c, 3, 55, 50
5, 304798, Note_on_c, 3, 55, 0
5, 304798, Note_on_c, 3, 43, 0
5, 309120, Note_on_c, 3, 52, 50
5, 309240, Note_on_c, 3, 52, 0
5, 309360, Note_on_c, 3, 52, 50
5, 309480, Note_on_c, 3, 52, 0
5, 309600, Note_on_c, 3, 52, 50
5, 309720, Note_on_c, 3, 52, 0
5, 309840, Note_on_c, 3, 52, 50
5, 309960, Note_on_c, 3, 52, 0
5, 310080, Note_on_c, 3, 52, 50
5, 310200, Note_on_c, 3, 52, 0
5, 310320, Note_on_c, 3, 52, 50
5, 310440, Note_on_c, 3, 52, 0
5, 310560, Note_on_c, 3, 52, 50
5, 310680, Note_on_c, 3, 52, 0
5, 310800, Note_on_c, 3, 52, 50
5, 310920, Note_on_c, 3, 52, 0
5, 311040, Note_on_c, 3, 52, 50
5, 311160, Note_on_c, 3, 52, 0
5, 311280, Note_on_c, 3, 52, 50
5, 311400, Note_on_c, 3, 52, 0
5, 311520, Note_on_c, 3, 52, 50
5, 311640, Note_on_c, 3, 52, 0
5, 311760, Note_on_c, 3, 52, 50
5, 311880, Note_on_c, 3, 52, 0
5, 312000, Note_on_c, 3, 52, 50
5, 312480, Note_on_c, 3, 52, 0
5, 315360, Note_on_c, 3, 52, 127
5, 315360, Note_on_c, 3, 48, 127
5, 315585, Note_on_c, 3, 48, 0
5, 315585, Note_on_c, 3, 52, 0
5, 315840, Note_on_c, 3, 52, 127
5, 315840, Note_on_c, 3, 48, 127
5, 316320, Note_on_c, 3, 48, 0
5, 316320, Note_on_c, 3, 52, 0
5, 318720, Note_on_c, 3, 62, 127
5, 318945, Note_on_c, 3, 62, 0
5, 319080, Note_on_c, 3, 62, 127
5, 319200, Note_on_c, 3, 62, 0
5, 319200, Note_on_c, 3, 62, 127
5, 319680, Note_on_c, 3, 62, 0
5, 322080, Note_on_c, 3, 62, 127
5, 322080, Note_on_c, 3, 55, 127
5, 322305, Note_on_c, 3, 55, 0
5, 322305, Note_on_c, 3, 62, 0
5, 322440, Note_on_c, 3, 55, 127
5, 322440, Note_on_c, 3, 62, 127
5, 322560, Note_on_c, 3, 62, 0
5, 322560, Note_on_c, 3, 55, 0
5, 322560, Note_on_c, 3, 62, 127
5, 322560, Note_on_c, 3, 55, 127
5, 323040, Note_on_c, 3, 55, 0
5, 323040, Note_on_c, 3, 62, 0
5, 325440, Note_on_c, 3, 55, 127
5, 325440, Note_on_c, 3, 52, 127
5, 325665, Note_on_c, 3, 52, 0
5, 325665, Note_on_c, 3, 55, 0
5, 325800, Note_on_c, 3, 52, 127
5, 325800, Note_on_c, 3, 55, 127
5, 325920, Note_on_c, 3, 55, 0
5, 325920, Note_on_c, 3, 52, 0
5, 325920, Note_on_c, 3, 52, 127
5, 325920, Note_on_c, 3, 55, 127
5, 326400, Note_on_c, 3, 55, 0
5, 326400, Note_on_c, 3, 52, 0
5, 328800, Note_on_c, 3, 60, 127
5, 328800, Note_on_c, 3, 48, 127
5, 329025, Note_on_c, 3, 48, 0
5, 329025, Note_on_c, 3, 60, 0
5, 329160, Note_on_c, 3, 48, 127
5, 329160, Note_on_c, 3, 60, 127
5, 329280, Note_on_c, 3, 60, 0
5, 329280, Note_on_c, 3, 48, 0
5, 329280, Note_on_c, 3, 60, 127
5, 329280, Note_on_c, 3, 48, 127
5, 329760, Note_on_c, 3, 48, 0
5, 329760, Note_on_c, 3, 60, 0
5, 334080, Note_on_c, 3, 55, 100
5, 334080, Note_on_c, 3, 48, 100
5, 334305, Note_on_c, 3, 48, 0
5, 334305, Note_on_c, 3, 55, 0
5, 334440, Note_on_c, 3, 48, 100
5, 334440, Note_on_c, 3, 55, 100
5, 334560, Note_on_c, 3, 55, 0
5, 334560, Note_on_c, 3, 48, 0
5, 334560, Note_on_c, 3, 55, 100
5, 334560, Note_on_c, 3, 48, 100
5, 335040, Note_on_c, 3, 48, 0
5, 335040, Note_on_c, 3, 55, 0
5, 338400, Note_on_c, 3, 62, 64
5, 338400, Note_on_c, 3, 55, 64
5, 338625, Note_on_c, 3, 55, 0
5, 338625, Note_on_c, 3, 62, 0
5, 338760, Note_on_c, 3, 55, 64
5, 338760, Note_on_c, 3, 62, 64
5, 338880, Note_on_c, 3, 62, 0
5, 338880, Note_on_c, 3, 55, 0
5, 338880, Note_on_c, 3, 55, 64
5, 338880, Note_on_c, 3, 62, 64
5, 339360, Note_on_c, 3, 62, 0
5, 339360, Note_on_c, 3, 55, 0
5, 343680, Note_on_c, 3, 62, 64
5, 343905, Note_on_c, 3, 62, 0
5, 344040, Note_on_c, 3, 62, 64
5, 344100, Note_on_c, 3, 62, 0
5, 344160, Note_on_c, 3, 62, 64
5, 344640, Note_on_c, 3, 62, 0
5, 362400, Note_on_c, 3, 60, 50
5, 362625, Note_on_c, 3, 60, 0
5, 362760, Note_on_c, 3, 60, 50
5, 362880, Note_on_c, 3, 60, 0
5, 362880, Note_on_c, 3, 60, 50
5, 363840, Note_on_c, 3, 55, 50
5, 363888, Note_on_c, 3, 60, 0
5, 365758, Note_on_c, 3, 55, 0
5, 365760, Note_on_c, 3, 48, 50
5, 366240, Note_on_c, 3, 48, 0
5, 367680, Note_on_c, 3, 55, 50
5, 367680, Note_on_c, 3, 62, 50
5, 368640, Note_on_c, 3, 62, 0
5, 368640, Note_on_c, 3, 55, 0
5, 368640, Note_on_c, 3, 48, 50
5, 368640, Note_on_c, 3, 60, 50
5, 371518, Note_on_c, 3, 60, 0
5, 371518, Note_on_c, 3, 48, 0
5, 371520, Note_on_c, 3, 62, 50
5, 371520, Note_on_c, 3, 55, 50
5, 371760, Note_on_c, 3, 55, 0
5, 371760, Note_on_c, 3, 62, 0
5, 372000, Note_on_c, 3, 64, 50
5, 372000, Note_on_c, 3, 60, 50
5, 372240, Note_on_c, 3, 60, 0
5, 372240, Note_on_c, 3, 64, 0
5, 372480, Note_on_c, 3, 62, 50
5, 372480, Note_on_c, 3, 55, 50
5, 372960, Note_on_c, 3, 55, 0
5, 372960, Note_on_c, 3, 62, 0
5, 373440, Note_on_c, 3, 60, 127
5, 373728, Note_on_c, 3, 60, 0
5, 373920, Note_on_c, 3, 48, 127
5, 374208, Note_on_c, 3, 48, 0
5, 374400, Note_on_c, 3, 55, 127
5, 374832, Note_on_c, 3, 55, 0
5, 375360, Note_on_c, 3, 55, 127
5, 375360, Note_on_c, 3, 67, 127
5, 375648, Note_on_c, 3, 67, 0
5, 375648, Note_on_c, 3, 55, 0
5, 375840, Note_on_c, 3, 43, 127
5, 375840, Note_on_c, 3, 55, 127
5, 376128, Note_on_c, 3, 55, 0
5, 376128, Note_on_c, 3, 43, 0
5, 376320, Note_on_c, 3, 55, 127
5, 376320, Note_on_c, 3, 43, 127
5, 376752, Note_on_c, 3, 43, 0
5, 376752, Note_on_c, 3, 55, 0
5, 377280, Note_on_c, 3, 62, 127
5, 377712, Note_on_c, 3, 62, 0
5, 379200, Note_on_c, 3, 52, 127
5, 379200, Note_on_c, 3, 64, 127
5, 379632, Note_on_c, 3, 64, 0
5, 379632, Note_on_c, 3, 52, 0
5, 381120, Note_on_c, 3, 64, 127
5, 381120, Note_on_c, 3, 52, 127
5, 381600, Note_on_c, 3, 52, 0
5, 381600, Note_on_c, 3, 64, 0
5, 392640, Note_on_c, 3, 60, 127
5, 392640, Note_on_c, 3, 48, 127
5, 393120, Note_on_c, 3, 48, 0
5, 393120, Note_on_c, 3, 60, 0
5, 393120, Note_on_c, 3, 60, 127
5, 393120, Note_on_c, 3, 48, 127
5, 393480, Note_on_c, 3, 48, 0
5, 393480, Note_on_c, 3, 60, 0
5, 393480, Note_on_c, 3, 48, 127
5, 393480, Note_on_c, 3, 60, 127
5, 393600, Note_on_c, 3, 60, 0
5, 393600, Note_on_c, 3, 48, 0
5, 393600, Note_on_c, 3, 48, 127
5, 393600, Note_on_c, 3, 60, 127
5, 394560, Note_on_c, 3, 60, 0
5, 394560, Note_on_c, 3, 48, 0
5, 394560, Note_on_c, 3, 65, 127
5, 394560, Note_on_c, 3, 62, 127
5, 395520, Note_on_c, 3, 65, 0
5, 395520, Note_on_c, 3, 64, 127
5, 396478, Note_on_c, 3, 62, 0
5, 396480, Note_on_c, 3, 64, 0
5, 396480, Note_on_c, 3, 60, 127
5, 396480, Note_on_c, 3, 64, 127
5, 397440, Note_on_c, 3, 64, 0
5, 397440, Note_on_c, 3, 62, 127
5, 398398, Note_on_c, 3, 60, 0
5, 398400, Note_on_c, 3, 62, 0
5, 398400, Note_on_c, 3, 55, 127
5, 398400, Note_on_c, 3, 62, 127
5, 399360, Note_on_c, 3, 62, 0
5, 399360, Note_on_c, 3, 55, 0
5, 399360, Note_on_c, 3, 64, 127
5, 399360, Note_on_c, 3, 55, 127
5, 399840, Note_on_c, 3, 55, 0
5, 399840, Note_on_c, 3, 48, 127
5, 400320, Note_on_c, 3, 48, 0
5, 400320, Note_on_c, 3, 64, 0
5, 400320, Note_on_c, 3, 60, 127
5, 400320, Note_on_c, 3, 48, 127
5, 400800, Note_on_c, 3, 48, 0
5, 400800, Note_on_c, 3, 60, 0
5, 400800, Note_on_c, 3, 60, 127
5, 400800, Note_on_c, 3, 48, 127
5, 401025, Note_on_c, 3, 48, 0
5, 401025, Note_on_c, 3, 60, 0
5, 401160, Note_on_c, 3, 60, 127
5, 401160, Note_on_c, 3, 48, 127
5, 401280, Note_on_c, 3, 48, 0
5, 401280, Note_on_c, 3, 60, 0
5, 401280, Note_on_c, 3, 55, 127
5, 401280, Note_on_c, 3, 43, 127
5, 401760, Note_on_c, 3, 43, 0
5, 401760, Note_on_c, 3, 55, 0
5, 402720, Note_on_c, 3, 55, 127
5, 402945, Note_on_c, 3, 55, 0
5, 403080, Note_on_c, 3, 55, 127
5, 403200, Note_on_c, 3, 55, 0
5, 403200, Note_on_c, 3, 55, 127
5, 403680, Note_on_c, 3, 55, 0
5, 403680, Note_on_c, 3, 55, 127
5, 404160, Note_on_c, 3, 55, 0
5, 404160, Note_on_c, 3, 55, 127
5, 404664, Note_on_c, 3, 55, 0
5, 405600, Note_on_c, 3, 55, 127
5, 405768, Note_on_c, 3, 55, 0
5, 405960, Note_on_c, 3, 55, 127
5, 406044, Note_on_c, 3, 55, 0
5, 406080, Note_on_c, 3, 55, 127
5, 406416, Note_on_c, 3, 55, 0
5, 406560, Note_on_c, 3, 55, 127
5, 406896, Note_on_c, 3, 55, 0
5, 407040, Note_on_c, 3, 55, 127
5, 407712, Note_on_c, 3, 55, 0
5, 408000, Note_on_c, 3, 55, 127
5, 408336, Note_on_c, 3, 55, 0
5, 408480, Note_on_c, 3, 55, 127
5, 408816, Note_on_c, 3, 55, 0
5, 408960, Note_on_c, 3, 55, 127
5, 409080, Note_on_c, 3, 55, 0
5, 409200, Note_on_c, 3, 55, 127
5, 409200, Note_on_c, 3, 62, 127
5, 409320, Note_on_c, 3, 62, 0
5, 409320, Note_on_c, 3, 55, 0
5, 409440, Note_on_c, 3, 55, 127
5, 409440, Note_on_c, 3, 62, 127
5, 409560, Note_on_c, 3, 62, 0
5, 409560, Note_on_c, 3, 55, 0
5, 409680, Note_on_c, 3, 62, 127
5, 409680, Note_on_c, 3, 55, 127
5, 409800, Note_on_c, 3, 55, 0
5, 409800, Note_on_c, 3, 62, 0
5, 409920, Note_on_c, 3, 55, 127
5, 409920, Note_on_c, 3, 62, 127
5, 410400, Note_on_c, 3, 62, 0
5, 410400, Note_on_c, 3, 55, 0
5, 422400, Note_on_c, 3, 43, 50
5, 422400, Note_on_c, 3, 55, 50
5, 430078, Note_on_c, 3, 55, 0
5, 430078, Note_on_c, 3, 43, 0
5, 430080, Note_on_c, 3, 55, 50
5, 430080, Note_on_c, 3, 48, 50
5, 430416, Note_on_c, 3, 48, 0
5, 430416, Note_on_c, 3, 55, 0
5, 430560, Note_on_c, 3, 48, 127
5, 430560, Note_on_c, 3, 60, 127
5, 430896, Note_on_c, 3, 60, 0
5, 430896, Note_on_c, 3, 48, 0
5, 431040, Note_on_c, 3, 60, 127
5, 431040, Note_on_c, 3, 48, 127
5, 431376, Note_on_c, 3, 48, 0
5, 431376, Note_on_c, 3, 60, 0
5, 431520, Note_on_c, 3, 62, 127
5, 431856, Note_on_c, 3, 62, 0
5, 432480, Note_on_c, 3, 52, 127
5, 432480, Note_on_c, 3, 64, 127
5, 432816, Note_on_c, 3, 64, 0
5, 432816, Note_on_c, 3, 52, 0
5, 432960, Note_on_c, 3, 60, 127
5, 432960, Note_on_c, 3, 52, 127
5, 433296, Note_on_c, 3, 52, 0
5, 433296, Note_on_c, 3, 60, 0
5, 433440, Note_on_c, 3, 48, 127
5, 433440, Note_on_c, 3, 60, 127
5, 433776, Note_on_c, 3, 60, 0
5, 433776, Note_on_c, 3, 48, 0
5, 434400, Note_on_c, 3, 55, 127
5, 434400, Note_on_c, 3, 62, 127
5, 434736, Note_on_c, 3, 62, 0
5, 434736, Note_on_c, 3, 55, 0
5, 434880, Note_on_c, 3, 64, 127
5, 434880, Note_on_c, 3, 60, 127
5, 435384, Note_on_c, 3, 60, 0
5, 435384, Note_on_c, 3, 64, 0
5, 438240, Note_on_c, 3, 48, 127
5, 438240, Note_on_c, 3, 55, 127
5, 438576, Note_on_c, 3, 55, 0
5, 438576, Note_on_c, 3, 48, 0
5, 438720, Note_on_c, 3, 52, 127
5, 438720, Note_on_c, 3, 60, 127
5, 439224, Note_on_c, 3, 60, 0
5, 439224, Note_on_c, 3, 52, 0
5, 442080, Note_on_c, 3, 52, 127
5, 442080, Note_on_c, 3, 60, 127
5, 442416, Note_on_c, 3, 60, 0
5, 442416, Note_on_c, 3, 52, 0
5, 442560, Note_on_c, 3, 60, 127
5, 442560, Note_on_c, 3, 48, 127
5, 443064, Note_on_c, 3, 48, 0
5, 443064, Note_on_c, 3, 60, 0
5, 444960, Note_on_c, 3, 48, 127
5, 444960, Note_on_c, 3, 60, 127
5, 445440, Note_on_c, 3, 60, 0
5, 445440, Note_on_c, 3, 48, 0
5, 445440, Note_on_c, 3, 48, 127
5, 445440, Note_on_c, 3, 60, 127
5, 445920, Note_on_c, 3, 60, 0
5, 445920, Note_on_c, 3, 48, 0
5, 446400, Note_on_c, 3, 60, 127
5, 446400, Note_on_c, 3, 48, 127
5, 446880, Note_on_c, 3, 48, 0
5, 446880, Note_on_c, 3, 60, 0
5, 447360, Note_on_c, 3, 48, 127
5, 447360, Note_on_c, 3, 60, 127
5, 447840, Note_on_c, 3, 60, 0
5, 447840, Note_on_c, 3, 48, 0
5, 448320, Note_on_c, 3, 62, 127
5, 448800, Note_on_c, 3, 62, 0
5, 449280, Note_on_c, 3, 43, 127
5, 449280, Note_on_c, 3, 55, 127
5, 449616, Note_on_c, 3, 55, 0
5, 449616, Note_on_c, 3, 43, 0
5, 449760, Note_on_c, 3, 43, 127
5, 449760, Note_on_c, 3, 55, 127
5, 450096, Note_on_c, 3, 55, 0
5, 450096, Note_on_c, 3, 43, 0
5, 450240, Note_on_c, 3, 55, 127
5, 450240, Note_on_c, 3, 43, 127
5, 450720, Note_on_c, 3, 43, 0
5, 450720, Note_on_c, 3, 55, 0
5, 451440, Note_on_c, 3, 60, 127
5, 451440, Note_on_c, 3, 48, 127
5, 451560, Note_on_c, 3, 48, 0
5, 451560, Note_on_c, 3, 60, 0
5, 451680, Note_on_c, 3, 60, 127
5, 451680, Note_on_c, 3, 48, 127
5, 451800, Note_on_c, 3, 48, 0
5, 451800, Note_on_c, 3, 60, 0
5, 451920, Note_on_c, 3, 48, 127
5, 451920, Note_on_c, 3, 60, 127
5, 452040, Note_on_c, 3, 60, 0
5, 452040, Note_on_c, 3, 48, 0
5, 452160, Note_on_c, 3, 48, 127
5, 452160, Note_on_c, 3, 60, 127
5, 453240, Note_on_c, 3, 60, 0
5, 453240, Note_on_c, 3, 48, 0
5, 453360, Note_on_c, 3, 60, 127
5, 453360, Note_on_c, 3, 48, 127
5, 453480, Note_on_c, 3, 48, 0
5, 453480, Note_on_c, 3, 60, 0
5, 453600, Note_on_c, 3, 60, 127
5, 453600, Note_on_c, 3, 48, 127
5, 453720, Note_on_c, 3, 48, 0
5, 453720, Note_on_c, 3, 60, 0
5, 453840, Note_on_c, 3, 48, 127
5, 453840, Note_on_c, 3, 60, 127
5, 453960, Note_on_c, 3, 60, 0
5, 453960, Note_on_c, 3, 48, 0
5, 454080, Note_on_c, 3, 48, 127
5, 454080, Note_on_c, 3, 60, 127
5, 455160, Note_on_c, 3, 60, 0
5, 455160, Note_on_c, 3, 48, 0
5, 455280, Note_on_c, 3, 60, 127
5, 455280, Note_on_c, 3, 48, 127
5, 455400, Note_on_c, 3, 48, 0
5, 455400, Note_on_c, 3, 60, 0
5, 455520, Note_on_c, 3, 60, 127
5, 455520, Note_on_c, 3, 48, 127
5, 455640, Note_on_c, 3, 48, 0
5, 455640, Note_on_c, 3, 60, 0
5, 455760, Note_on_c, 3, 48, 127
5, 455760, Note_on_c, 3, 60, 127
5, 455880, Note_on_c, 3, 60, 0
5, 455880, Note_on_c, 3, 48, 0
5, 456000, Note_on_c, 3, 64, 127
5, 456000, Note_on_c, 3, 60, 127
5, 456336, Note_on_c, 3, 60, 0
5, 456336, Note_on_c, 3, 64, 0
5, 456480, Note_on_c, 3, 64, 127
5, 456480, Note_on_c, 3, 60, 127
5, 456600, Note_on_c, 3, 60, 0
5, 456600, Note_on_c, 3, 64, 0
5, 456720, Note_on_c, 3, 60, 127
5, 456720, Note_on_c, 3, 64, 127
5, 456840, Note_on_c, 3, 64, 0
5, 456840, Note_on_c, 3, 60, 0
5, 456960, Note_on_c, 3, 62, 127
5, 456960, Note_on_c, 3, 55, 127
5, 457296, Note_on_c, 3, 55, 0
5, 457296, Note_on_c, 3, 62, 0
5, 457440, Note_on_c, 3, 62, 127
5, 457440, Note_on_c, 3, 55, 127
5, 457560, Note_on_c, 3, 55, 0
5, 457560, Note_on_c, 3, 62, 0
5, 457680, Note_on_c, 3, 55, 127
5, 457680, Note_on_c, 3, 62, 127
5, 457800, Note_on_c, 3, 62, 0
5, 457800, Note_on_c, 3, 55, 0
5, 457920, Note_on_c, 3, 52, 127
5, 457920, Note_on_c, 3, 60, 127
5, 459000, Note_on_c, 3, 60, 0
5, 459000, Note_on_c, 3, 52, 0
5, 459120, Note_on_c, 3, 64, 127
5, 459120, Note_on_c, 3, 60, 127
5, 459240, Note_on_c, 3, 60, 0
5, 459240, Note_on_c, 3, 64, 0
5, 459360, Note_on_c, 3, 64, 127
5, 459360, Note_on_c, 3, 60, 127
5, 459480, Note_on_c, 3, 60, 0
5, 459480, Note_on_c, 3, 64, 0
5, 459600, Note_on_c, 3, 60, 127
5, 459600, Note_on_c, 3, 64, 127
5, 459720, Note_on_c, 3, 64, 0
5, 459720, Note_on_c, 3, 60, 0
5, 459840, Note_on_c, 3, 60, 127
5, 459840, Note_on_c, 3, 64, 127
5, 460920, Note_on_c, 3, 64, 0
5, 460920, Note_on_c, 3, 60, 0
5, 461040, Note_on_c, 3, 60, 127
5, 461040, Note_on_c, 3, 48, 127
5, 461160, Note_on_c, 3, 48, 0
5, 461160, Note_on_c, 3, 60, 0
5, 461280, Note_on_c, 3, 60, 127
5, 461280, Note_on_c, 3, 48, 127
5, 461400, Note_on_c, 3, 48, 0
5, 461400, Note_on_c, 3, 60, 0
5, 461520, Note_on_c, 3, 48, 127
5, 461520, Note_on_c, 3, 60, 127
5, 461640, Note_on_c, 3, 60, 0
5, 461640, Note_on_c, 3, 48, 0
5, 461760, Note_on_c, 3, 48, 127
5, 461760, Note_on_c, 3, 60, 127
5, 462000, Note_on_c, 3, 60, 0
5, 462000, Note_on_c, 3, 48, 0
5, 462000, Note_on_c, 3, 60, 127
5, 462000, Note_on_c, 3, 48, 127
5, 462240, Note_on_c, 3, 48, 0
5, 462240, Note_on_c, 3, 60, 0
5, 462240, Note_on_c, 3, 48, 127
5, 462240, Note_on_c, 3, 60, 127
5, 462480, Note_on_c, 3, 60, 0
5, 462480, Note_on_c, 3, 48, 0
5, 462480, Note_on_c, 3, 60, 127
5, 462480, Note_on_c, 3, 48, 127
5, 462720, Note_on_c, 3, 48, 0
5, 462720, Note_on_c, 3, 60, 0
5, 462720, Note_on_c, 3, 60, 127
5, 462720, Note_on_c, 3, 48, 127
5, 463440, Note_on_c, 3, 48, 0
5, 463440, Note_on_c, 3, 60, 0
5, 463440, Note_on_c, 3, 48, 127
5, 463440, Note_on_c, 3, 60, 127
5, 463680, Note_on_c, 3, 60, 0
5, 463680, Note_on_c, 3, 48, 0
5, 463680, Note_on_c, 3, 60, 127
5, 463680, Note_on_c, 3, 48, 127
5, 463920, Note_on_c, 3, 48, 0
5, 463920, Note_on_c, 3, 60, 0
5, 463920, Note_on_c, 3, 48, 127
5, 463920, Note_on_c, 3, 60, 127
5, 464160, Note_on_c, 3, 60, 0
5, 464160, Note_on_c, 3, 48, 0
5, 464160, Note_on_c, 3, 60, 127
5, 464160, Note_on_c, 3, 48, 127
5, 464400, Note_on_c, 3, 48, 0
5, 464400, Note_on_c, 3, 60, 0
5, 466560, Note_on_c, 3, 60, 127
5, 466560, Note_on_c, 3, 48, 127
5, 467040, Note_on_c, 3, 48, 0
5, 467040, Note_on_c, 3, 60, 0
5, 468000, Note_on_c, 3, 48, 127
5, 468000, Note_on_c, 3, 60, 127
5, 468480, Note_on_c, 3, 60, 0
5, 468480, Note_on_c, 3, 48, 0
5, 468480, Note_on_c, 3, 64, 127
5, 468480, Note_on_c, 3, 60, 127
5, 468960, Note_on_c, 3, 60, 0
5, 468960, Note_on_c, 3, 64, 0
5, 468960, Note_on_c, 3, 64, 127
5, 468960, Note_on_c, 3, 60, 127
5, 469185, Note_on_c, 3, 60, 0
5, 469185, Note_on_c, 3, 64, 0
5, 469320, Note_on_c, 3, 64, 127
5, 469320, Note_on_c, 3, 60, 127
5, 469440, Note_on_c, 3, 60, 0
5, 469440, Note_on_c, 3, 64, 0
5, 469440, Note_on_c, 3, 62, 127
5, 469440, Note_on_c, 3, 55, 127
5, 469920, Note_on_c, 3, 55, 0
5, 469920, Note_on_c, 3, 62, 0
5, 469920, Note_on_c, 3, 62, 127
5, 469920, Note_on_c, 3, 55, 127
5, 470145, Note_on_c, 3, 55, 0
5, 470145, Note_on_c, 3, 62, 0
5, 470280, Note_on_c, 3, 62, 127
5, 470280, Note_on_c, 3, 55, 127
5, 470400, Note_on_c, 3, 55, 0
5, 470400, Note_on_c, 3, 62, 0
5, 470400, Note_on_c, 3, 60, 127
5, 470400, Note_on_c, 3, 52, 127
5, 470880, Note_on_c, 3, 52, 0
5, 470880, Note_on_c, 3, 60, 0
5, 471360, Note_on_c, 3, 48, 127
5, 471360, Note_on_c, 3, 60, 127
5, 471840, Note_on_c, 3, 60, 0
5, 471840, Note_on_c, 3, 48, 0
5, 471840, Note_on_c, 3, 60, 127
5, 471840, Note_on_c, 3, 48, 127
5, 472065, Note_on_c, 3, 48, 0
5, 472065, Note_on_c, 3, 60, 0
5, 472200, Note_on_c, 3, 60, 127
5, 472200, Note_on_c, 3, 48, 127
5, 472320, Note_on_c, 3, 48, 0
5, 472320, Note_on_c, 3, 60, 0
5, 472320, Note_on_c, 3, 55, 127
5, 472320, Note_on_c, 3, 43, 127
5, 473280, Note_on_c, 3, 43, 0
5, 473280, Note_on_c, 3, 55, 0
5, 473280, Note_on_c, 3, 60, 127
5, 473280, Note_on_c, 3, 48, 127
5, 473760, Note_on_c, 3, 48, 0
5, 473760, Note_on_c, 3, 60, 0
5, 474240, Note_on_c, 3, 48, 127
5, 474240, Note_on_c, 3, 60, 127
5, 474576, Note_on_c, 3, 60, 0
5, 474576, Note_on_c, 3, 48, 0
5, 474720, Note_on_c, 3, 60, 127
5, 474720, Note_on_c, 3, 48, 127
5, 474888, Note_on_c, 3, 48, 0
5, 474888, Note_on_c, 3, 60, 0
5, 475080, Note_on_c, 3, 60, 127
5, 475080, Note_on_c, 3, 48, 127
5, 475164, Note_on_c, 3, 48, 0
5, 475164, Note_on_c, 3, 60, 0
5, 475200, Note_on_c, 3, 55, 127
5, 475200, Note_on_c, 3, 43, 127
5, 475872, Note_on_c, 3, 43, 0
5, 475872, Note_on_c, 3, 55, 0
5, 476160, Note_on_c, 3, 60, 127
5, 476160, Note_on_c, 3, 48, 127
5, 476664, Note_on_c, 3, 48, 0
5, 476664, Note_on_c, 3, 60, 0
5, 477120, Note_on_c, 3, 48, 127
5, 477120, Note_on_c, 3, 60, 127
5, 477456, Note_on_c, 3, 60, 0
5, 477456, Note_on_c, 3, 48, 0
5, 477600, Note_on_c, 3, 48, 127
5, 477600, Note_on_c, 3, 60, 127
5, 477768, Note_on_c, 3, 60, 0
5, 477768, Note_on_c, 3, 48, 0
5, 477960, Note_on_c, 3, 48, 127
5, 477960, Note_on_c, 3, 60, 127
5, 478044, Note_on_c, 3, 60, 0
5, 478044, Note_on_c, 3, 48, 0
5, 478080, Note_on_c, 3, 48, 127
5, 478080, Note_on_c, 3, 60, 127
5, 478584, Note_on_c, 3, 60, 0
5, 478584, Note_on_c, 3, 48, 0
5, 479040, Note_on_c, 3, 55, 127
5, 479040, Note_on_c, 3, 43, 127
5, 479376, Note_on_c, 3, 43, 0
5, 479376, Note_on_c, 3, 55, 0
5, 479520, Note_on_c, 3, 55, 89
5, 479520, Note_on_c, 3, 62, 89
5, 479856, Note_on_c, 3, 62, 0
5, 479856, Note_on_c, 3, 55, 0
5, 480000, Note_on_c, 3, 55, 50
5, 480000, Note_on_c, 3, 64, 50
5, 480504, Note_on_c, 3, 64, 0
5, 480504, Note_on_c, 3, 55, 0
5, 480960, Note_on_c, 3, 64, 62
5, 480960, Note_on_c, 3, 60, 62
5, 481464, Note_on_c, 3, 60, 0
5, 481464, Note_on_c, 3, 64, 0
5, 481920, Note_on_c, 3, 62, 75
5, 481920, Note_on_c, 3, 60, 75
5, 482256, Note_on_c, 3, 60, 0
5, 482256, Note_on_c, 3, 62, 0
5, 482400, Note_on_c, 3, 55, 82
5, 482400, Note_on_c, 3, 62, 82
5, 482736, Note_on_c, 3, 62, 0
5, 482736, Note_on_c, 3, 55, 0
5, 482880, Note_on_c, 3, 64, 88
5, 482880, Note_on_c, 3, 55, 88
5, 483384, Note_on_c, 3, 55, 0
5, 483384, Note_on_c, 3, 64, 0
5, 483840, Note_on_c, 3, 64, 101
5, 483840, Note_on_c, 3, 60, 101
5, 484344, Note_on_c, 3, 60, 0
5, 484344, Note_on_c, 3, 64, 0
5, 484800, Note_on_c, 3, 62, 114
5, 484800, Note_on_c, 3, 60, 114
5, 485136, Note_on_c, 3, 60, 0
5, 485136, Note_on_c, 3, 62, 0
5, 485280, Note_on_c, 3, 55, 120
5, 485280, Note_on_c, 3, 62, 120
5, 485616, Note_on_c, 3, 62, 0
5, 485616, Note_on_c, 3, 55, 0
5, 485760, Note_on_c, 3, 60, 127
5, 485760, Note_on_c, 3, 52, 127
5, 486240, Note_on_c, 3, 52, 0
5, 486240, Note_on_c, 3, 60, 0
5, 488640, Note_on_c, 3, 60, 50
5, 488640, Note_on_c, 3, 48, 50
5, 488760, Note_on_c, 3, 48, 0
5, 488760, Note_on_c, 3, 60, 0
5, 488880, Note_on_c, 3, 60, 50
5, 488880, Note_on_c, 3, 48, 50
5, 489000, Note_on_c, 3, 48, 0
5, 489000, Note_on_c, 3, 60, 0
5, 489120, Note_on_c, 3, 60, 50
5, 489120, Note_on_c, 3, 48, 50
5, 489240, Note_on_c, 3, 48, 0
5, 489240, Note_on_c, 3, 60, 0
5, 489360, Note_on_c, 3, 48, 50
5, 489360, Note_on_c, 3, 60, 50
5, 489480, Note_on_c, 3, 60, 0
5, 489480, Note_on_c, 3, 48, 0
5, 489600, Note_on_c, 3, 60, 50
5, 489600, Note_on_c, 3, 48, 50
5, 489720, Note_on_c, 3, 48, 0
5, 489720, Note_on_c, 3, 60, 0
5, 489840, Note_on_c, 3, 48, 50
5, 489840, Note_on_c, 3, 60, 50
5, 489960, Note_on_c, 3, 60, 0
5, 489960, Note_on_c, 3, 48, 0
5, 490080, Note_on_c, 3, 60, 50
5, 490080, Note_on_c, 3, 48, 50
5, 490200, Note_on_c, 3, 48, 0
5, 490200, Note_on_c, 3, 60, 0
5, 490320, Note_on_c, 3, 48, 50
5, 490320, Note_on_c, 3, 60, 50
5, 490440, Note_on_c, 3, 60, 0
5, 490440, Note_on_c, 3, 48, 0
5, 490560, Note_on_c, 3, 55, 50
5, 490560, Note_on_c, 3, 43, 50
5, 490680, Note_on_c, 3, 43, 0
5, 490680, Note_on_c, 3, 55, 0
5, 490800, Note_on_c, 3, 55, 50
5, 490800, Note_on_c, 3, 43, 50
5, 490920, Note_on_c, 3, 43, 0
5, 490920, Note_on_c, 3, 55, 0
5, 491040, Note_on_c, 3, 55, 50
5, 491040, Note_on_c, 3, 43, 50
5, 491160, Note_on_c, 3, 43, 0
5, 491160, Note_on_c, 3, 55, 0
5, 491280, Note_on_c, 3, 43, 50
5, 491280, Note_on_c, 3, 55, 50
5, 491400, Note_on_c, 3, 55, 0
5, 491400, Note_on_c, 3, 43, 0
5, 491520, Note_on_c, 3, 55, 50
5, 491520, Note_on_c, 3, 48, 50
5, 491760, Note_on_c, 3, 48, 0
5, 491760, Note_on_c, 3, 55, 0
5, 492000, Note_on_c, 3, 60, 127
5, 492000, Note_on_c, 3, 48, 127
5, 492120, Note_on_c, 3, 48, 0
5, 492120, Note_on_c, 3, 60, 0
5, 492360, Note_on_c, 3, 60, 127
5, 492360, Note_on_c, 3, 48, 127
5, 492420, Note_on_c, 3, 48, 0
5, 492420, Note_on_c, 3, 60, 0
5, 492480, Note_on_c, 3, 48, 127
5, 492480, Note_on_c, 3, 60, 127
5, 492720, Note_on_c, 3, 60, 0
5, 492720, Note_on_c, 3, 48, 0
5, 492960, Note_on_c, 3, 48, 127
5, 492960, Note_on_c, 3, 60, 127
5, 493080, Note_on_c, 3, 60, 0
5, 493080, Note_on_c, 3, 48, 0
5, 493320, Note_on_c, 3, 60, 127
5, 493320, Note_on_c, 3, 48, 127
5, 493380, Note_on_c, 3, 48, 0
5, 493380, Note_on_c, 3, 60, 0
5, 493440, Note_on_c, 3, 60, 127
5, 493440, Note_on_c, 3, 48, 127
5, 493560, Note_on_c, 3, 48, 0
5, 493560, Note_on_c, 3, 60, 0
5, 493680, Note_on_c, 3, 48, 127
5, 493680, Note_on_c, 3, 60, 127
5, 493800, Note_on_c, 3, 60, 0
5, 493800, Note_on_c, 3, 48, 0
5, 493920, Note_on_c, 3, 60, 127
5, 493920, Note_on_c, 3, 48, 127
5, 494040, Note_on_c, 3, 48, 0
5, 494040, Note_on_c, 3, 60, 0
5, 494160, Note_on_c, 3, 48, 127
5, 494160, Note_on_c, 3, 60, 127
5, 494280, Note_on_c, 3, 60, 0
5, 494280, Note_on_c, 3, 48, 0
5, 494400, Note_on_c, 3, 60, 127
5, 494400, Note_on_c, 3, 48, 127
5, 494880, Note_on_c, 3, 48, 0
5, 494880, Note_on_c, 3, 60, 0
5, 506880, Note_on_c, 3, 60, 52
5, 507802, Note_on_c, 3, 60, 0
5, 507840, Note_on_c, 3, 62, 54
5, 508762, Note_on_c, 3, 62, 0
5, 508800, Note_on_c, 3, 65, 57
5, 509722, Note_on_c, 3, 65, 0
5, 509760, Note_on_c, 3, 64, 59
5, 510682, Note_on_c, 3, 64, 0
5, 522240, Note_on_c, 3, 60, 91
5, 522240, Note_on_c, 3, 48, 91
5, 522576, Note_on_c, 3, 48, 0
5, 522576, Note_on_c, 3, 60, 0
5, 522720, Note_on_c, 3, 60, 93
5, 522720, Note_on_c, 3, 48, 93
5, 522972, Note_on_c, 3, 48, 0
5, 522972, Note_on_c, 3, 60, 0
5, 523080, Note_on_c, 3, 60, 94
5, 523080, Note_on_c, 3, 48, 94
5, 523164, Note_on_c, 3, 48, 0
5, 523164, Note_on_c, 3, 60, 0
5, 523200, Note_on_c, 3, 48, 94
5, 523200, Note_on_c, 3, 60, 94
5, 523536, Note_on_c, 3, 60, 0
5, 523536, Note_on_c, 3, 48, 0
5, 523680, Note_on_c, 3, 48, 95
5, 523680, Note_on_c, 3, 60, 95
5, 524016, Note_on_c, 3, 60, 0
5, 524016, Note_on_c, 3, 48, 0
5, 524160, Note_on_c, 3, 55, 96
5, 524160, Note_on_c, 3, 43, 96
5, 524496, Note_on_c, 3, 43, 0
5, 524496, Note_on_c, 3, 55, 0
5, 524640, Note_on_c, 3, 43, 98
5, 524640, Note_on_c, 3, 55, 98
5, 524976, Note_on_c, 3, 55, 0
5, 524976, Note_on_c, 3, 43, 0
5, 525120, Note_on_c, 3, 48, 99
5, 525120, Note_on_c, 3, 55, 99
5, 525240, Note_on_c, 3, 55, 0
5, 525240, Note_on_c, 3, 48, 0
5, 525360, Note_on_c, 3, 60, 99
5, 525360, Note_on_c, 3, 48, 99
5, 525480, Note_on_c, 3, 48, 0
5, 525480, Note_on_c, 3, 60, 0
5, 525600, Note_on_c, 3, 64, 100
5, 525600, Note_on_c, 3, 52, 100
5, 525720, Note_on_c, 3, 52, 0
5, 525720, Note_on_c, 3, 64, 0
5, 525840, Note_on_c, 3, 60, 101
5, 525840, Note_on_c, 3, 48, 101
5, 525960, Note_on_c, 3, 48, 0
5, 525960, Note_on_c, 3, 60, 0
5, 526080, Note_on_c, 3, 67, 101
5, 526080, Note_on_c, 3, 55, 101
5, 526320, Note_on_c, 3, 55, 0
5, 526320, Note_on_c, 3, 67, 0
5, 526560, Note_on_c, 3, 43, 102
5, 526560, Note_on_c, 3, 55, 102
5, 526896, Note_on_c, 3, 55, 0
5, 526896, Note_on_c, 3, 43, 0
5, 527040, Note_on_c, 3, 55, 104
5, 527040, Note_on_c, 3, 43, 104
5, 527544, Note_on_c, 3, 43, 0
5, 527544, Note_on_c, 3, 55, 0
5, 528000, Note_on_c, 3, 62, 106
5, 528336, Note_on_c, 3, 62, 0
5, 528480, Note_on_c, 3, 62, 107
5, 528816, Note_on_c, 3, 62, 0
5, 528960, Note_on_c, 3, 62, 109
5, 528960, Note_on_c, 3, 55, 109
5, 529296, Note_on_c, 3, 55, 0
5, 529296, Note_on_c, 3, 62, 0
5, 529440, Note_on_c, 3, 55, 110
5, 529608, Note_on_c, 3, 55, 0
5, 529680, Note_on_c, 3, 55, 110
5, 529848, Note_on_c, 3, 55, 0
5, 529920, Note_on_c, 3, 60, 111
5, 529920, Note_on_c, 3, 52, 111
5, 530256, Note_on_c, 3, 52, 0
5, 530256, Note_on_c, 3, 60, 0
5, 530400, Note_on_c, 3, 60, 112
5, 530400, Note_on_c, 3, 64, 112
5, 530736, Note_on_c, 3, 64, 0
5, 530736, Note_on_c, 3, 60, 0
5, 530880, Note_on_c, 3, 60, 114
5, 530880, Note_on_c, 3, 62, 114
5, 531840, Note_on_c, 3, 62, 0
5, 531840, Note_on_c, 3, 60, 0
5, 531840, Note_on_c, 3, 55, 116
5, 531840, Note_on_c, 3, 62, 116
5, 532320, Note_on_c, 3, 62, 0
5, 532320, Note_on_c, 3, 55, 0
5, 532320, Note_on_c, 3, 67, 117
5, 532320, Note_on_c, 3, 55, 117
5, 532800, Note_on_c, 3, 55, 0
5, 532800, Note_on_c, 3, 67, 0
5, 532800, Note_on_c, 3, 55, 118
5, 532800, Note_on_c, 3, 67, 118
5, 533280, Note_on_c, 3, 67, 0
5, 533280, Note_on_c, 3, 55, 0
5, 533280, Note_on_c, 3, 60, 120
5, 533280, Note_on_c, 3, 48, 120
5, 533505, Note_on_c, 3, 48, 0
5, 533505, Note_on_c, 3, 60, 0
5, 533640, Note_on_c, 3, 48, 121
5, 533640, Note_on_c, 3, 60, 121
5, 533760, Note_on_c, 3, 60, 0
5, 533760, Note_on_c, 3, 48, 0
5, 533760, Note_on_c, 3, 60, 121
5, 533760, Note_on_c, 3, 48, 121
5, 534240, Note_on_c, 3, 48, 0
5, 534240, Note_on_c, 3, 60, 0
5, 534240, Note_on_c, 3, 60, 122
5, 534240, Note_on_c, 3, 48, 122
5, 534720, Note_on_c, 3, 48, 0
5, 534720, Note_on_c, 3, 60, 0
5, 534720, Note_on_c, 3, 43, 123
5, 534720, Note_on_c, 3, 55, 123
5, 535200, Note_on_c, 3, 55, 0
5, 535200, Note_on_c, 3, 43, 0
5, 535200, Note_on_c, 3, 43, 125
5, 535200, Note_on_c, 3, 55, 125
5, 535680, Note_on_c, 3, 55, 0
5, 535680, Note_on_c, 3, 43, 0
5, 535680, Note_on_c, 3, 60, 126
5, 535680, Note_on_c, 3, 48, 126
5, 535800, Note_on_c, 3, 48, 0
5, 535800, Note_on_c, 3, 60, 0
5, 535920, Note_on_c, 3, 60, 127
5, 535920, Note_on_c, 3, 48, 127
5, 536040, Note_on_c, 3, 48, 0
5, 536040, Note_on_c, 3, 60, 0
5, 536160, Note_on_c, 3, 60, 127
5, 536160, Note_on_c, 3, 48, 127
5, 536280, Note_on_c, 3, 48, 0
5, 536280, Note_on_c, 3, 60, 0
5, 536400, Note_on_c, 3, 48, 127
5, 536400, Note_on_c, 3, 60, 127
5, 536520, Note_on_c, 3, 60, 0
5, 536520, Note_on_c, 3, 48, 0
5, 536640, Note_on_c, 3, 60, 127
5, 536640, Note_on_c, 3, 48, 127
5, 537600, Note_on_c, 3, 48, 0
5, 537600, Note_on_c, 3, 60, 0
5, 537600, Note_on_c, 3, 64, 127
5, 537600, Note_on_c, 3, 60, 127
5, 538080, Note_on_c, 3, 60, 0
5, 538080, Note_on_c, 3, 64, 0
5, 538080, Note_on_c, 3, 55, 127
5, 538080, Note_on_c, 3, 62, 127
5, 538560, Note_on_c, 3, 62, 0
5, 538560, Note_on_c, 3, 55, 0
5, 538560, Note_on_c, 3, 60, 127
5, 538560, Note_on_c, 3, 52, 127
5, 538680, Note_on_c, 3, 52, 0
5, 538680, Note_on_c, 3, 60, 0
5, 538800, Note_on_c, 3, 60, 127
5, 538800, Note_on_c, 3, 48, 127
5, 538920, Note_on_c, 3, 48, 0
5, 538920, Note_on_c, 3, 60, 0
5, 539040, Note_on_c, 3, 60, 127
5, 539040, Note_on_c, 3, 48, 127
5, 539160, Note_on_c, 3, 48, 0
5, 539160, Note_on_c, 3, 60, 0
5, 539280, Note_on_c, 3, 48, 127
5, 539280, Note_on_c, 3, 60, 127
5, 539400, Note_on_c, 3, 60, 0
5, 539400, Note_on_c, 3, 48, 0
5, 539520, Note_on_c, 3, 48, 127
5, 539520, Note_on_c, 3, 60, 127
5, 540480, Note_on_c, 3, 60, 0
5, 540480, Note_on_c, 3, 48, 0
5, 540480, Note_on_c, 3, 60, 127
5, 540480, Note_on_c, 3, 64, 127
5, 540600, Note_on_c, 3, 64, 0
5, 540600, Note_on_c, 3, 60, 0
5, 540720, Note_on_c, 3, 64, 127
5, 540720, Note_on_c, 3, 60, 127
5, 540840, Note_on_c, 3, 60, 0
5, 540840, Note_on_c, 3, 64, 0
5, 540960, Note_on_c, 3, 62, 127
5, 540960, Note_on_c, 3, 55, 127
5, 541080, Note_on_c, 3, 55, 0
5, 541080, Note_on_c, 3, 62, 0
5, 541200, Note_on_c, 3, 55, 127
5, 541200, Note_on_c, 3, 62, 127
5, 541320, Note_on_c, 3, 62, 0
5, 541320, Note_on_c, 3, 55, 0
5, 541440, Note_on_c, 3, 60, 127
5, 541440, Note_on_c, 3, 48, 127
5, 541920, Note_on_c, 3, 48, 0
5, 541920, Note_on_c, 3, 60, 0
5, 541920, Note_on_c, 3, 60, 127
5, 541920, Note_on_c, 3, 48, 127
5, 542040, Note_on_c, 3, 48, 0
5, 542040, Note_on_c, 3, 60, 0
5, 542160, Note_on_c, 3, 60, 127
5, 542160, Note_on_c, 3, 48, 127
5, 542280, Note_on_c, 3, 48, 0
5, 542280, Note_on_c, 3, 60, 0
5, 542400, Note_on_c, 3, 52, 127
5, 542400, Note_on_c, 3, 64, 127
5, 542736, Note_on_c, 3, 64, 0
5, 542736, Note_on_c, 3, 52, 0
5, 542880, Note_on_c, 3, 52, 127
5, 542880, Note_on_c, 3, 64, 127
5, 543000, Note_on_c, 3, 64, 0
5, 543000, Note_on_c, 3, 52, 0
5, 543120, Note_on_c, 3, 52, 127
5, 543120, Note_on_c, 3, 64, 127
5, 543240, Note_on_c, 3, 64, 0
5, 543240, Note_on_c, 3, 52, 0
5, 543360, Note_on_c, 3, 55, 127
5, 543360, Note_on_c, 3, 67, 127
5, 543696, Note_on_c, 3, 67, 0
5, 543696, Note_on_c, 3, 55, 0
5, 543840, Note_on_c, 3, 55, 127
5, 543840, Note_on_c, 3, 67, 127
5, 543960, Note_on_c, 3, 67, 0
5, 543960, Note_on_c, 3, 55, 0
5, 544080, Note_on_c, 3, 55, 127
5, 544080, Note_on_c, 3, 67, 127
5, 544200, Note_on_c, 3, 67, 0
5, 544200, Note_on_c, 3, 55, 0
5, 544320, Note_on_c, 3, 64, 127
5, 544320, Note_on_c, 3, 60, 127
5, 544800, Note_on_c, 3, 60, 0
5, 544800, Note_on_c, 3, 64, 0
5, 547200, Note_on_c, 3, 60, 127
5, 547200, Note_on_c, 3, 48, 127
5, 547440, Note_on_c, 3, 48, 0
5, 547440, Note_on_c, 3, 60, 0
5, 547680, Note_on_c, 3, 60, 127
5, 547680, Note_on_c, 3, 48, 127
5, 547800, Note_on_c, 3, 48, 0
5, 547800, Note_on_c, 3, 60, 0
5, 547920, Note_on_c, 3, 60, 127
5, 547920, Note_on_c, 3, 48, 127
5, 548040, Note_on_c, 3, 48, 0
5, 548040, Note_on_c, 3, 60, 0
5, 548160, Note_on_c, 3, 52, 127
5, 548160, Note_on_c, 3, 64, 127
5, 548400, Note_on_c, 3, 64, 0
5, 548400, Note_on_c, 3, 52, 0
5, 548640, Note_on_c, 3, 64, 127
5, 548640, Note_on_c, 3, 52, 127
5, 548760, Note_on_c, 3, 52, 0
5, 548760, Note_on_c, 3, 64, 0
5, 548880, Note_on_c, 3, 64, 127
5, 548880, Note_on_c, 3, 52, 127
5, 549000, Note_on_c, 3, 52, 0
5, 549000, Note_on_c, 3, 64, 0
5, 549120, Note_on_c, 3, 55, 127
5, 549120, Note_on_c, 3, 67, 127
5, 549360, Note_on_c, 3, 67, 0
5, 549360, Note_on_c, 3, 55, 0
5, 549600, Note_on_c, 3, 67, 127
5, 549600, Note_on_c, 3, 55, 127
5, 549720, Note_on_c, 3, 55, 0
5, 549720, Note_on_c, 3, 67, 0
5, 549840, Note_on_c, 3, 55, 127
5, 549840, Note_on_c, 3, 67, 127
5, 549960, Note_on_c, 3, 67, 0
5, 549960, Note_on_c, 3, 55, 0
5, 550080, Note_on_c, 3, 64, 127
5, 550080, Note_on_c, 3, 60, 127
5, 550200, Note_on_c, 3, 60, 0
5, 550200, Note_on_c, 3, 64, 0
5, 550320, Note_on_c, 3, 62, 127
5, 550320, Note_on_c, 3, 55, 127
5, 550440, Note_on_c, 3, 55, 0
5, 550440, Note_on_c, 3, 62, 0
5, 550560, Note_on_c, 3, 64, 127
5, 550560, Note_on_c, 3, 60, 127
5, 550680, Note_on_c, 3, 60, 0
5, 550680, Note_on_c, 3, 64, 0
5, 550800, Note_on_c, 3, 55, 127
5, 550800, Note_on_c, 3, 62, 127
5, 550920, Note_on_c, 3, 62, 0
5, 550920, Note_on_c, 3, 55, 0
5, 551040, Note_on_c, 3, 64, 127
5, 551040, Note_on_c, 3, 60, 127
5, 551160, Note_on_c, 3, 60, 0
5, 551160, Note_on_c, 3, 64, 0
5, 551280, Note_on_c, 3, 62, 127
5, 551280, Note_on_c, 3, 55, 127
5, 551400, Note_on_c, 3, 55, 0
5, 551400, Note_on_c, 3, 62, 0
5, 551520, Note_on_c, 3, 64, 127
5, 551520, Note_on_c, 3, 60, 127
5, 551640, Note_on_c, 3, 60, 0
5, 551640, Note_on_c, 3, 64, 0
5, 551760, Note_on_c, 3, 55, 127
5, 551760, Note_on_c, 3, 62, 127
5, 551880, Note_on_c, 3, 62, 0
5, 551880, Note_on_c, 3, 55, 0
5, 552000, Note_on_c, 3, 55, 127
5, 552000, Note_on_c, 3, 60, 127
5, 552084, Note_on_c, 3, 60, 0
5, 552084, Note_on_c, 3, 55, 0
5, 552240, Note_on_c, 3, 55, 127
5, 552240, Note_on_c, 3, 52, 127
5, 552282, Note_on_c, 3, 52, 0
5, 552282, Note_on_c, 3, 55, 0
5, 552360, Note_on_c, 3, 55, 127
5, 552360, Note_on_c, 3, 52, 127
5, 552402, Note_on_c, 3, 52, 0
5, 552402, Note_on_c, 3, 55, 0
5, 552480, Note_on_c, 3, 55, 127
5, 552480, Note_on_c, 3, 52, 127
5, 552564, Note_on_c, 3, 52, 0
5, 552564, Note_on_c, 3, 55, 0
5, 552720, Note_on_c, 3, 52, 127
5, 552720, Note_on_c, 3, 55, 127
5, 552804, Note_on_c, 3, 55, 0
5, 552804, Note_on_c, 3, 52, 0
5, 552960, Note_on_c, 3, 55, 127
5, 552960, Note_on_c, 3, 52, 127
5, 553044, Note_on_c, 3, 52, 0
5, 553044, Note_on_c, 3, 55, 0
5, 553200, Note_on_c, 3, 60, 127
5, 553200, Note_on_c, 3, 55, 127
5, 553284, Note_on_c, 3, 55, 0
5, 553284, Note_on_c, 3, 60, 0
5, 553440, Note_on_c, 3, 55, 127
5, 553440, Note_on_c, 3, 52, 127
5, 553524, Note_on_c, 3, 52, 0
5, 553524, Note_on_c, 3, 55, 0
5, 553680, Note_on_c, 3, 55, 127
5, 553680, Note_on_c, 3, 60, 127
5, 553764, Note_on_c, 3, 60, 0
5, 553764, Note_on_c, 3, 55, 0
5, 553920, Note_on_c, 3, 55, 127
5, 553920, Note_on_c, 3, 52, 127
5, 554004, Note_on_c, 3, 52, 0
5, 554004, Note_on_c, 3, 55, 0
5, 554160, Note_on_c, 3, 48, 127
5, 554160, Note_on_c, 3, 52, 127
5, 554202, Note_on_c, 3, 52, 0
5, 554202, Note_on_c, 3, 48, 0
5, 554280, Note_on_c, 3, 48, 127
5, 554280, Note_on_c, 3, 52, 127
5, 554322, Note_on_c, 3, 52, 0
5, 554322, Note_on_c, 3, 48, 0
5, 554400, Note_on_c, 3, 48, 127
5, 554400, Note_on_c, 3, 52, 127
5, 554484, Note_on_c, 3, 52, 0
5, 554484, Note_on_c, 3, 48, 0
5, 554640, Note_on_c, 3, 48, 127
5, 554640, Note_on_c, 3, 52, 127
5, 554724, Note_on_c, 3, 52, 0
5, 554724, Note_on_c, 3, 48, 0
5, 554880, Note_on_c, 3, 52, 127
5, 554880, Note_on_c, 3, 48, 127
5, 554964, Note_on_c, 3, 48, 0
5, 554964, Note_on_c, 3, 52, 0
5, 555120, Note_on_c, 3, 52, 127
5, 555120, Note_on_c, 3, 55, 127
5, 555204, Note_on_c, 3, 55, 0
5, 555204, Note_on_c, 3, 52, 0
5, 555360, Note_on_c, 3, 48, 127
5, 555360, Note_on_c, 3, 52, 127
5, 555444, Note_on_c, 3, 52, 0
5, 555444, Note_on_c, 3, 48, 0
5, 555600, Note_on_c, 3, 52, 127
5, 555600, Note_on_c, 3, 55, 127
5, 555684, Note_on_c, 3, 55, 0
5, 555684, Note_on_c, 3, 52, 0
5, 555840, Note_on_c, 3, 52, 127
5, 555840, Note_on_c, 3, 48, 127
5, 556320, Note_on_c, 3, 48, 0
5, 556320, Note_on_c, 3, 52, 0
5, 556320, End_track
6, 0, Start_track
6, 0, Title_t, "Trumpets"
6, 0, Program_c, 4, 56
6, 0, Control_c, 4, 7, 127
6, 0, Control_c, 4, 10, 115
6, 7680, Note_on_c, 4, 72, 100
6, 8160, Note_on_c, 4, 72, 0
6, 8160, Note_on_c, 4, 60, 100
6, 8640, Note_on_c, 4, 60, 0
6, 8640, Note_on_c, 4, 67, 100
6, 9120, Note_on_c, 4, 67, 0
6, 9600, Note_on_c, 4, 67, 100
6, 9600, Note_on_c, 4, 79, 100
6, 10080, Note_on_c, 4, 79, 0
6, 10080, Note_on_c, 4, 67, 0
6, 10080, Note_on_c, 4, 55, 100
6, 10080, Note_on_c, 4, 67, 100
6, 10560, Note_on_c, 4, 67, 0
6, 10560, Note_on_c, 4, 55, 0
6, 10560, Note_on_c, 4, 67, 100
6, 10560, Note_on_c, 4, 60, 100
6, 11040, Note_on_c, 4, 60, 0
6, 11040, Note_on_c, 4, 67, 0
6, 11760, Note_on_c, 4, 72, 127
6, 11760, Note_on_c, 4, 60, 127
6, 11880, Note_on_c, 4, 60, 0
6, 11880, Note_on_c, 4, 72, 0
6, 12000, Note_on_c, 4, 72, 127
6, 12000, Note_on_c, 4, 60, 127
6, 12120, Note_on_c, 4, 60, 0
6, 12120, Note_on_c, 4, 72, 0
6, 12240, Note_on_c, 4, 60, 127
6, 12240, Note_on_c, 4, 72, 127
6, 12360, Note_on_c, 4, 72, 0
6, 12360, Note_on_c, 4, 60, 0
6, 12480, Note_on_c, 4, 60, 127
6, 12480, Note_on_c, 4, 72, 127
6, 13440, Note_on_c, 4, 72, 0
6, 13440, Note_on_c, 4, 60, 0
6, 13440, Note_on_c, 4, 67, 127
6, 13776, Note_on_c, 4, 67, 0
6, 13920, Note_on_c, 4, 67, 127
6, 14256, Note_on_c, 4, 67, 0
6, 14400, Note_on_c, 4, 67, 127
6, 14400, Note_on_c, 4, 60, 127
6, 14520, Note_on_c, 4, 60, 0
6, 14520, Note_on_c, 4, 67, 0
6, 14640, Note_on_c, 4, 60, 127
6, 14640, Note_on_c, 4, 72, 127
6, 14760, Note_on_c, 4, 72, 0
6, 14760, Note_on_c, 4, 60, 0
6, 14880, Note_on_c, 4, 60, 127
6, 14880, Note_on_c, 4, 72, 127
6, 15000, Note_on_c, 4, 72, 0
6, 15000, Note_on_c, 4, 60, 0
6, 15120, Note_on_c, 4, 72, 127
6, 15120, Note_on_c, 4, 60, 127
6, 15240, Note_on_c, 4, 60, 0
6, 15240, Note_on_c, 4, 72, 0
6, 15360, Note_on_c, 4, 60, 127
6, 15360, Note_on_c, 4, 72, 127
6, 16032, Note_on_c, 4, 72, 0
6, 16032, Note_on_c, 4, 60, 0
6, 16320, Note_on_c, 4, 67, 127
6, 16656, Note_on_c, 4, 67, 0
6, 16800, Note_on_c, 4, 67, 127
6, 17136, Note_on_c, 4, 67, 0
6, 23040, Note_on_c, 4, 72, 127
6, 23040, Note_on_c, 4, 60, 127
6, 23376, Note_on_c, 4, 60, 0
6, 23376, Note_on_c, 4, 72, 0
6, 23520, Note_on_c, 4, 72, 127
6, 23520, Note_on_c, 4, 60, 127
6, 23640, Note_on_c, 4, 60, 0
6, 23640, Note_on_c, 4, 72, 0
6, 23760, Note_on_c, 4, 60, 127
6, 23760, Note_on_c, 4, 72, 127
6, 23880, Note_on_c, 4, 72, 0
6, 23880, Note_on_c, 4, 60, 0
6, 24000, Note_on_c, 4, 64, 127
6, 24000, Note_on_c, 4, 76, 127
6, 24336, Note_on_c, 4, 76, 0
6, 24336, Note_on_c, 4, 64, 0
6, 24480, Note_on_c, 4, 64, 127
6, 24480, Note_on_c, 4, 76, 127
6, 24600, Note_on_c, 4, 76, 0
6, 24600, Note_on_c, 4, 64, 0
6, 24720, Note_on_c, 4, 64, 127
6, 24720, Note_on_c, 4, 76, 127
6, 24840, Note_on_c, 4, 76, 0
6, 24840, Note_on_c, 4, 64, 0
6, 24960, Note_on_c, 4, 79, 127
6, 24960, Note_on_c, 4, 67, 127
6, 25296, Note_on_c, 4, 67, 0
6, 25296, Note_on_c, 4, 79, 0
6, 25440, Note_on_c, 4, 79, 127
6, 25440, Note_on_c, 4, 67, 127
6, 25560, Note_on_c, 4, 67, 0
6, 25560, Note_on_c, 4, 79, 0
6, 25680, Note_on_c, 4, 67, 127
6, 25680, Note_on_c, 4, 79, 127
6, 25800, Note_on_c, 4, 79, 0
6, 25800, Note_on_c, 4, 67, 0
6, 25920, Note_on_c, 4, 72, 127
6, 25920, Note_on_c, 4, 60, 127
6, 26040, Note_on_c, 4, 60, 0
6, 26040, Note_on_c, 4, 72, 0
6, 26160, Note_on_c, 4, 67, 127
6, 26160, Note_on_c, 4, 55, 127
6, 26280, Note_on_c, 4, 55, 0
6, 26280, Note_on_c, 4, 67, 0
6, 26400, Note_on_c, 4, 72, 127
6, 26400, Note_on_c, 4, 60, 127
6, 26520, Note_on_c, 4, 60, 0
6, 26520, Note_on_c, 4, 72, 0
6, 26640, Note_on_c, 4, 55, 127
6, 26640, Note_on_c, 4, 67, 127
6, 26760, Note_on_c, 4, 67, 0
6, 26760, Note_on_c, 4, 55, 0
6, 26880, Note_on_c, 4, 72, 127
6, 26880, Note_on_c, 4, 60, 127
6, 27000, Note_on_c, 4, 60, 0
6, 27000, Note_on_c, 4, 72, 0
6, 27120, Note_on_c, 4, 67, 127
6, 27120, Note_on_c, 4, 55, 127
6, 27240, Note_on_c, 4, 55, 0
6, 27240, Note_on_c, 4, 67, 0
6, 27360, Note_on_c, 4, 72, 127
6, 27360, Note_on_c, 4, 60, 127
6, 27480, Note_on_c, 4, 60, 0
6, 27480, Note_on_c, 4, 72, 0
6, 27600, Note_on_c, 4, 55, 127
6, 27600, Note_on_c, 4, 67, 127
6, 27720, Note_on_c, 4, 67, 0
6, 27720, Note_on_c, 4, 55, 0
6, 27840, Note_on_c, 4, 60, 127
6, 27840, Note_on_c, 4, 72, 127
6, 28176, Note_on_c, 4, 72, 0
6, 28176, Note_on_c, 4, 60, 0
6, 28320, Note_on_c, 4, 72, 127
6, 28500, Note_on_c, 4, 72, 0
6, 28680, Note_on_c, 4, 72, 127
6, 28740, Note_on_c, 4, 72, 0
6, 28800, Note_on_c, 4, 72, 127
6, 28920, Note_on_c, 4, 72, 0
6, 29040, Note_on_c, 4, 67, 127
6, 29160, Note_on_c, 4, 67, 0
6, 29280, Note_on_c, 4, 64, 127
6, 29400, Note_on_c, 4, 64, 0
6, 29520, Note_on_c, 4, 60, 127
6, 29640, Note_on_c, 4, 60, 0
6, 29760, Note_on_c, 4, 67, 127
6, 30264, Note_on_c, 4, 67, 0
6, 30720, Note_on_c, 4, 67, 127
6, 31080, Note_on_c, 4, 67, 0
6, 31680, Note_on_c, 4, 67, 127
6, 31920, Note_on_c, 4, 67, 0
6, 32160, Note_on_c, 4, 67, 127
6, 32400, Note_on_c, 4, 67, 0
6, 32640, Note_on_c, 4, 67, 127
6, 33120, Note_on_c, 4, 67, 0
6, 49920, Note_on_c, 4, 72, 100
6, 49920, Note_on_c, 4, 60, 100
6, 50400, Note_on_c, 4, 60, 0
6, 50400, Note_on_c, 4, 72, 0
6, 50400, Note_on_c, 4, 72, 100
6, 50400, Note_on_c, 4, 60, 100
6, 50760, Note_on_c, 4, 60, 0
6, 50760, Note_on_c, 4, 72, 0
6, 50760, Note_on_c, 4, 60, 100
6, 50760, Note_on_c, 4, 72, 100
6, 50880, Note_on_c, 4, 72, 0
6, 50880, Note_on_c, 4, 60, 0
6, 50880, Note_on_c, 4, 72, 100
6, 50880, Note_on_c, 4, 60, 100
6, 51360, Note_on_c, 4, 60, 0
6, 51360, Note_on_c, 4, 72, 0
6, 51840, Note_on_c, 4, 67, 100
6, 52320, Note_on_c, 4, 67, 0
6, 52320, Note_on_c, 4, 67, 100
6, 52680, Note_on_c, 4, 67, 0
6, 52680, Note_on_c, 4, 67, 100
6, 52800, Note_on_c, 4, 67, 0
6, 52800, Note_on_c, 4, 67, 100
6, 52800, Note_on_c, 4, 60, 100
6, 53280, Note_on_c, 4, 60, 0
6, 53280, Note_on_c, 4, 67, 0
6, 53760, Note_on_c, 4, 72, 100
6, 53760, Note_on_c, 4, 76, 100
6, 54720, Note_on_c, 4, 76, 0
6, 54720, Note_on_c, 4, 72, 0
6, 54720, Note_on_c, 4, 74, 100
6, 54720, Note_on_c, 4, 72, 100
6, 55680, Note_on_c, 4, 72, 0
6, 55680, Note_on_c, 4, 74, 0
6, 55680, Note_on_c, 4, 67, 100
6, 55680, Note_on_c, 4, 74, 100
6, 56640, Note_on_c, 4, 74, 0
6, 56640, Note_on_c, 4, 67, 0
6, 56640, Note_on_c, 4, 72, 100
6, 56640, Note_on_c, 4, 64, 100
6, 57600, Note_on_c, 4, 64, 0
6, 57600, Note_on_c, 4, 72, 0
6, 57600, Note_on_c, 4, 74, 100
6, 57600, Note_on_c, 4, 72, 100
6, 58560, Note_on_c, 4, 72, 0
6, 58560, Note_on_c, 4, 74, 0
6, 58560, Note_on_c, 4, 74, 100
6, 58560, Note_on_c, 4, 67, 100
6, 59520, Note_on_c, 4, 67, 0
6, 59520, Note_on_c, 4, 74, 0
6, 59520, Note_on_c, 4, 64, 127
6, 59520, Note_on_c, 4, 76, 127
6, 60480, Note_on_c, 4, 76, 0
6, 60480, Note_on_c, 4, 64, 0
6, 60480, Note_on_c, 4, 74, 127
6, 60930, Note_on_c, 4, 74, 0
6, 63360, Note_on_c, 4, 74, 127
6, 63810, Note_on_c, 4, 74, 0
6, 66240, Note_on_c, 4, 74, 127
6, 66720, Note_on_c, 4, 74, 0
6, 67200, Note_on_c, 4, 74, 127
6, 67680, Note_on_c, 4, 74, 0
6, 68160, Note_on_c, 4, 74, 127
6, 68640, Note_on_c, 4, 74, 0
6, 68640, Note_on_c, 4, 74, 127
6, 69120, Note_on_c, 4, 74, 0
6, 69120, Note_on_c, 4, 74, 127
6, 69600, Note_on_c, 4, 74, 0
6, 89760, Note_on_c, 4, 67, 127
6, 89760, Note_on_c, 4, 55, 127
6, 90048, Note_on_c, 4, 55, 0
6, 90048, Note_on_c, 4, 67, 0
6, 90240, Note_on_c, 4, 60, 127
6, 90240, Note_on_c, 4, 67, 127
6, 90672, Note_on_c, 4, 67, 0
6, 90672, Note_on_c, 4, 60, 0
6, 91680, Note_on_c, 4, 74, 127
6, 91968, Note_on_c, 4, 74, 0
6, 92160, Note_on_c, 4, 76, 127
6, 92592, Note_on_c, 4, 76, 0
6, 93600, Note_on_c, 4, 74, 127
6, 93888, Note_on_c, 4, 74, 0
6, 94080, Note_on_c, 4, 67, 127
6, 94512, Note_on_c, 4, 67, 0
6, 97440, Note_on_c, 4, 67, 127
6, 97440, Note_on_c, 4, 79, 127
6, 97728, Note_on_c, 4, 79, 0
6, 97728, Note_on_c, 4, 67, 0
6, 97920, Note_on_c, 4, 76, 127
6, 97920, Note_on_c, 4, 64, 127
6, 98352, Note_on_c, 4, 64, 0
6, 98352, Note_on_c, 4, 76, 0
6, 101280, Note_on_c, 4, 64, 127
6, 101280, Note_on_c, 4, 76, 127
6, 101568, Note_on_c, 4, 76, 0
6, 101568, Note_on_c, 4, 64, 0
6, 101760, Note_on_c, 4, 72, 127
6, 101760, Note_on_c, 4, 60, 127
6, 102192, Note_on_c, 4, 60, 0
6, 102192, Note_on_c, 4, 72, 0
6, 104160, Note_on_c, 4, 67, 127
6, 104160, Note_on_c, 4, 74, 127
6, 104448, Note_on_c, 4, 74, 0
6, 104448, Note_on_c, 4, 67, 0
6, 104640, Note_on_c, 4, 72, 127
6, 104640, Note_on_c, 4, 76, 127
6, 105120, Note_on_c, 4, 76, 0
6, 105120, Note_on_c, 4, 72, 0
6, 105600, Note_on_c, 4, 64, 127
6, 105600, Note_on_c, 4, 67, 127
6, 106080, Note_on_c, 4, 67, 0
6, 106080, Note_on_c, 4, 64, 0
6, 106560, Note_on_c, 4, 72, 127
6, 106560, Note_on_c, 4, 67, 127
6, 107040, Note_on_c, 4, 67, 0
6, 107040, Note_on_c, 4, 72, 0
6, 107520, Note_on_c, 4, 72, 127
6, 107520, Note_on_c, 4, 76, 127
6, 108000, Note_on_c, 4, 76, 0
6, 108000, Note_on_c, 4, 72, 0
6, 108480, Note_on_c, 4, 74, 127
6, 109440, Note_on_c, 4, 74, 0
6, 109440, Note_on_c, 4, 74, 127
6, 109440, Note_on_c, 4, 67, 127
6, 109920, Note_on_c, 4, 67, 0
6, 109920, Note_on_c, 4, 74, 0
6, 110640, Note_on_c, 4, 74, 127
6, 110640, Note_on_c, 4, 67, 127
6, 110760, Note_on_c, 4, 67, 0
6, 110760, Note_on_c, 4, 74, 0
6, 110880, Note_on_c, 4, 74, 127
6, 110880, Note_on_c, 4, 67, 127
6, 111000, Note_on_c, 4, 67, 0
6, 111000, Note_on_c, 4, 74, 0
6, 111120, Note_on_c, 4, 67, 127
6, 111120, Note_on_c, 4, 74, 127
6, 111240, Note_on_c, 4, 74, 0
6, 111240, Note_on_c, 4, 67, 0
6, 111360, Note_on_c, 4, 67, 127
6, 111360, Note_on_c, 4, 76, 127
6, 112440, Note_on_c, 4, 76, 0
6, 112440, Note_on_c, 4, 67, 0
6, 112560, Note_on_c, 4, 76, 127
6, 112560, Note_on_c, 4, 67, 127
6, 112680, Note_on_c, 4, 67, 0
6, 112680, Note_on_c, 4, 76, 0
6, 112800, Note_on_c, 4, 76, 127
6, 112800, Note_on_c, 4, 67, 127
6, 112920, Note_on_c, 4, 67, 0
6, 112920, Note_on_c, 4, 76, 0
6, 113040, Note_on_c, 4, 67, 127
6, 113040, Note_on_c, 4, 76, 127
6, 113160, Note_on_c, 4, 76, 0
6, 113160, Note_on_c, 4, 67, 0
6, 113280, Note_on_c, 4, 67, 127
6, 113280, Note_on_c, 4, 74, 127
6, 114360, Note_on_c, 4, 74, 0
6, 114360, Note_on_c, 4, 67, 0
6, 114480, Note_on_c, 4, 74, 127
6, 114480, Note_on_c, 4, 67, 127
6, 114600, Note_on_c, 4, 67, 0
6, 114600, Note_on_c, 4, 74, 0
6, 114720, Note_on_c, 4, 74, 127
6, 114720, Note_on_c, 4, 67, 127
6, 114840, Note_on_c, 4, 67, 0
6, 114840, Note_on_c, 4, 74, 0
6, 114960, Note_on_c, 4, 67, 127
6, 114960, Note_on_c, 4, 74, 127
6, 115080, Note_on_c, 4, 74, 0
6, 115080, Note_on_c, 4, 67, 0
6, 115200, Note_on_c, 4, 72, 127
6, 115200, Note_on_c, 4, 76, 127
6, 116160, Note_on_c, 4, 76, 0
6, 116160, Note_on_c, 4, 72, 0
6, 116160, Note_on_c, 4, 74, 127
6, 117120, Note_on_c, 4, 74, 0
6, 117120, Note_on_c, 4, 67, 127
6, 117120, Note_on_c, 4, 74, 127
6, 118200, Note_on_c, 4, 74, 0
6, 118200, Note_on_c, 4, 67, 0
6, 118320, Note_on_c, 4, 67, 127
6, 118320, Note_on_c, 4, 74, 127
6, 118440, Note_on_c, 4, 74, 0
6, 118440, Note_on_c, 4, 67, 0
6, 118560, Note_on_c, 4, 74, 127
6, 118560, Note_on_c, 4, 67, 127
6, 118680, Note_on_c, 4, 67, 0
6, 118680, Note_on_c, 4, 74, 0
6, 118800, Note_on_c, 4, 67, 127
6, 118800, Note_on_c, 4, 74, 127
6, 118920, Note_on_c, 4, 74, 0
6, 118920, Note_on_c, 4, 67, 0
6, 119040, Note_on_c, 4, 67, 127
6, 119040, Note_on_c, 4, 74, 127
6, 120120, Note_on_c, 4, 74, 0
6, 120120, Note_on_c, 4, 67, 0
6, 120240, Note_on_c, 4, 67, 127
6, 120240, Note_on_c, 4, 74, 127
6, 120360, Note_on_c, 4, 74, 0
6, 120360, Note_on_c, 4, 67, 0
6, 120480, Note_on_c, 4, 74, 127
6, 120480, Note_on_c, 4, 67, 127
6, 120600, Note_on_c, 4, 67, 0
6, 120600, Note_on_c, 4, 74, 0
6, 120720, Note_on_c, 4, 67, 127
6, 120720, Note_on_c, 4, 74, 127
6, 120840, Note_on_c, 4, 74, 0
6, 120840, Note_on_c, 4, 67, 0
6, 120960, Note_on_c, 4, 72, 127
6, 120960, Note_on_c, 4, 67, 127
6, 121080, Note_on_c, 4, 67, 0
6, 121080, Note_on_c, 4, 72, 0
6, 121200, Note_on_c, 4, 72, 127
6, 121200, Note_on_c, 4, 67, 127
6, 121320, Note_on_c, 4, 67, 0
6, 121320, Note_on_c, 4, 72, 0
6, 121440, Note_on_c, 4, 72, 127
6, 121440, Note_on_c, 4, 67, 127
6, 121560, Note_on_c, 4, 67, 0
6, 121560, Note_on_c, 4, 72, 0
6, 121680, Note_on_c, 4, 67, 127
6, 121680, Note_on_c, 4, 72, 127
6, 121800, Note_on_c, 4, 72, 0
6, 121800, Note_on_c, 4, 67, 0
6, 121920, Note_on_c, 4, 60, 127
6, 121920, Note_on_c, 4, 72, 127
6, 122640, Note_on_c, 4, 72, 0
6, 122640, Note_on_c, 4, 60, 0
6, 122640, Note_on_c, 4, 74, 127
6, 122640, Note_on_c, 4, 67, 127
6, 122760, Note_on_c, 4, 67, 0
6, 122760, Note_on_c, 4, 74, 0
6, 122880, Note_on_c, 4, 72, 127
6, 122880, Note_on_c, 4, 60, 127
6, 123000, Note_on_c, 4, 60, 0
6, 123000, Note_on_c, 4, 72, 0
6, 123120, Note_on_c, 4, 74, 127
6, 123120, Note_on_c, 4, 67, 127
6, 123240, Note_on_c, 4, 67, 0
6, 123240, Note_on_c, 4, 74, 0
6, 123360, Note_on_c, 4, 72, 127
6, 123360, Note_on_c, 4, 60, 127
6, 123480, Note_on_c, 4, 60, 0
6, 123480, Note_on_c, 4, 72, 0
6, 123600, Note_on_c, 4, 67, 127
6, 123600, Note_on_c, 4, 74, 127
6, 123720, Note_on_c, 4, 74, 0
6, 123720, Note_on_c, 4, 67, 0
6, 123840, Note_on_c, 4, 72, 127
6, 123840, Note_on_c, 4, 60, 127
6, 124560, Note_on_c, 4, 60, 0
6, 124560, Note_on_c, 4, 72, 0
6, 124560, Note_on_c, 4, 67, 127
6, 124560, Note_on_c, 4, 74, 127
6, 124680, Note_on_c, 4, 74, 0
6, 124680, Note_on_c, 4, 67, 0
6, 124800, Note_on_c, 4, 72, 127
6, 124800, Note_on_c, 4, 60, 127
6, 124920, Note_on_c, 4, 60, 0
6, 124920, Note_on_c, 4, 72, 0
6, 125040, Note_on_c, 4, 74, 127
6, 125040, Note_on_c, 4, 67, 127
6, 125160, Note_on_c, 4, 67, 0
6, 125160, Note_on_c, 4, 74, 0
6, 125280, Note_on_c, 4, 72, 127
6, 125280, Note_on_c, 4, 60, 127
6, 125400, Note_on_c, 4, 60, 0
6, 125400, Note_on_c, 4, 72, 0
6, 125520, Note_on_c, 4, 67, 127
6, 125520, Note_on_c, 4, 74, 127
6, 125640, Note_on_c, 4, 74, 0
6, 125640, Note_on_c, 4, 67, 0
6, 125760, Note_on_c, 4, 79, 127
6, 125760, Note_on_c, 4, 67, 127
6, 126096, Note_on_c, 4, 67, 0
6, 126096, Note_on_c, 4, 79, 0
6, 126240, Note_on_c, 4, 74, 127
6, 126576, Note_on_c, 4, 74, 0
6, 126720, Note_on_c, 4, 67, 127
6, 127224, Note_on_c, 4, 67, 0
6, 127680, Note_on_c, 4, 76, 127
6, 127680, Note_on_c, 4, 72, 127
6, 128016, Note_on_c, 4, 72, 0
6, 128016, Note_on_c, 4, 76, 0
6, 128160, Note_on_c, 4, 74, 127
6, 128496, Note_on_c, 4, 74, 0
6, 128640, Note_on_c, 4, 74, 127
6, 128640, Note_on_c, 4, 67, 127
6, 129144, Note_on_c, 4, 67, 0
6, 129144, Note_on_c, 4, 74, 0
6, 129600, Note_on_c, 4, 67, 127
6, 129600, Note_on_c, 4, 55, 127
6, 130080, Note_on_c, 4, 55, 0
6, 130080, Note_on_c, 4, 67, 0
6, 131040, Note_on_c, 4, 74, 127
6, 131376, Note_on_c, 4, 74, 0
6, 131520, Note_on_c, 4, 74, 127
6, 131520, Note_on_c, 4, 67, 127
6, 132024, Note_on_c, 4, 67, 0
6, 132024, Note_on_c, 4, 74, 0
6, 132480, Note_on_c, 4, 72, 127
6, 132480, Note_on_c, 4, 60, 127
6, 132984, Note_on_c, 4, 60, 0
6, 132984, Note_on_c, 4, 72, 0
6, 133920, Note_on_c, 4, 74, 127
6, 134208, Note_on_c, 4, 74, 0
6, 134400, Note_on_c, 4, 74, 127
6, 134400, Note_on_c, 4, 67, 127
6, 134832, Note_on_c, 4, 67, 0
6, 134832, Note_on_c, 4, 74, 0
6, 135360, Note_on_c, 4, 76, 127
6, 135360, Note_on_c, 4, 67, 127
6, 136320, Note_on_c, 4, 67, 0
6, 136320, Note_on_c, 4, 76, 0
6, 136320, Note_on_c, 4, 76, 127
6, 136320, Note_on_c, 4, 72, 127
6, 137280, Note_on_c, 4, 72, 0
6, 137280, Note_on_c, 4, 76, 0
6, 137280, Note_on_c, 4, 72, 127
6, 137280, Note_on_c, 4, 74, 127
6, 138240, Note_on_c, 4, 74, 0
6, 138240, Note_on_c, 4, 72, 0
6, 138240, Note_on_c, 4, 74, 127
6, 138240, Note_on_c, 4, 67, 127
6, 138720, Note_on_c, 4, 67, 0
6, 138720, Note_on_c, 4, 74, 0
6, 139200, Note_on_c, 4, 76, 127
6, 139200, Note_on_c, 4, 67, 127
6, 139704, Note_on_c, 4, 67, 0
6, 139704, Note_on_c, 4, 76, 0
6, 140160, Note_on_c, 4, 76, 127
6, 140160, Note_on_c, 4, 67, 127
6, 140496, Note_on_c, 4, 67, 0
6, 140496, Note_on_c, 4, 76, 0
6, 140640, Note_on_c, 4, 74, 127
6, 140976, Note_on_c, 4, 74, 0
6, 141120, Note_on_c, 4, 74, 127
6, 141120, Note_on_c, 4, 67, 127
6, 141624, Note_on_c, 4, 67, 0
6, 141624, Note_on_c, 4, 74, 0
6, 142080, Note_on_c, 4, 76, 127
6, 142080, Note_on_c, 4, 67, 127
6, 142584, Note_on_c, 4, 67, 0
6, 142584, Note_on_c, 4, 76, 0
6, 143040, Note_on_c, 4, 76, 127
6, 143040, Note_on_c, 4, 67, 127
6, 143376, Note_on_c, 4, 67, 0
6, 143376, Note_on_c, 4, 76, 0
6, 143520, Note_on_c, 4, 74, 127
6, 143856, Note_on_c, 4, 74, 0
6, 144000, Note_on_c, 4, 74, 127
6, 144000, Note_on_c, 4, 67, 127
6, 144504, Note_on_c, 4, 67, 0
6, 144504, Note_on_c, 4, 74, 0
6, 158400, Note_on_c, 4, 72, 100
6, 158880, Note_on_c, 4, 72, 0
6, 158880, Note_on_c, 4, 60, 103
6, 159360, Note_on_c, 4, 60, 0
6, 159360, Note_on_c, 4, 67, 106
6, 159840, Note_on_c, 4, 67, 0
6, 160320, Note_on_c, 4, 67, 113
6, 160320, Note_on_c, 4, 79, 113
6, 160800, Note_on_c, 4, 79, 0
6, 160800, Note_on_c, 4, 67, 0
6, 160800, Note_on_c, 4, 55, 116
6, 160800, Note_on_c, 4, 67, 116
6, 161280, Note_on_c, 4, 67, 0
6, 161280, Note_on_c, 4, 55, 0
6, 161280, Note_on_c, 4, 67, 120
6, 161280, Note_on_c, 4, 60, 120
6, 161760, Note_on_c, 4, 60, 0
6, 161760, Note_on_c, 4, 67, 0
6, 162480, Note_on_c, 4, 72, 127
6, 162480, Note_on_c, 4, 60, 127
6, 162600, Note_on_c, 4, 60, 0
6, 162600, Note_on_c, 4, 72, 0
6, 162720, Note_on_c, 4, 72, 127
6, 162720, Note_on_c, 4, 60, 127
6, 162840, Note_on_c, 4, 60, 0
6, 162840, Note_on_c, 4, 72, 0
6, 162960, Note_on_c, 4, 60, 127
6, 162960, Note_on_c, 4, 72, 127
6, 163080, Note_on_c, 4, 72, 0
6, 163080, Note_on_c, 4, 60, 0
6, 163200, Note_on_c, 4, 60, 127
6, 163200, Note_on_c, 4, 72, 127
6, 164160, Note_on_c, 4, 72, 0
6, 164160, Note_on_c, 4, 60, 0
6, 164160, Note_on_c, 4, 67, 127
6, 164496, Note_on_c, 4, 67, 0
6, 164640, Note_on_c, 4, 67, 127
6, 164976, Note_on_c, 4, 67, 0
6, 165120, Note_on_c, 4, 67, 127
6, 165120, Note_on_c, 4, 60, 127
6, 165240, Note_on_c, 4, 60, 0
6, 165240, Note_on_c, 4, 67, 0
6, 165360, Note_on_c, 4, 60, 127
6, 165360, Note_on_c, 4, 72, 127
6, 165480, Note_on_c, 4, 72, 0
6, 165480, Note_on_c, 4, 60, 0
6, 165600, Note_on_c, 4, 60, 127
6, 165600, Note_on_c, 4, 72, 127
6, 165720, Note_on_c, 4, 72, 0
6, 165720, Note_on_c, 4, 60, 0
6, 165840, Note_on_c, 4, 72, 127
6, 165840, Note_on_c, 4, 60, 127
6, 165960, Note_on_c, 4, 60, 0
6, 165960, Note_on_c, 4, 72, 0
6, 166080, Note_on_c, 4, 60, 127
6, 166080, Note_on_c, 4, 72, 127
6, 166752, Note_on_c, 4, 72, 0
6, 166752, Note_on_c, 4, 60, 0
6, 167040, Note_on_c, 4, 67, 127
6, 167376, Note_on_c, 4, 67, 0
6, 167520, Note_on_c, 4, 67, 127
6, 167856, Note_on_c, 4, 67, 0
6, 173760, Note_on_c, 4, 72, 127
6, 173760, Note_on_c, 4, 60, 127
6, 174096, Note_on_c, 4, 60, 0
6, 174096, Note_on_c, 4, 72, 0
6, 174240, Note_on_c, 4, 72, 127
6, 174240, Note_on_c, 4, 60, 127
6, 174360, Note_on_c, 4, 60, 0
6, 174360, Note_on_c, 4, 72, 0
6, 174480, Note_on_c, 4, 60, 127
6, 174480, Note_on_c, 4, 72, 127
6, 174600, Note_on_c, 4, 72, 0
6, 174600, Note_on_c, 4, 60, 0
6, 174720, Note_on_c, 4, 64, 127
6, 174720, Note_on_c, 4, 76, 127
6, 175056, Note_on_c, 4, 76, 0
6, 175056, Note_on_c, 4, 64, 0
6, 175200, Note_on_c, 4, 64, 127
6, 175200, Note_on_c, 4, 76, 127
6, 175320, Note_on_c, 4, 76, 0
6, 175320, Note_on_c, 4, 64, 0
6, 175440, Note_on_c, 4, 64, 127
6, 175440, Note_on_c, 4, 76, 127
6, 175560, Note_on_c, 4, 76, 0
6, 175560, Note_on_c, 4, 64, 0
6, 175680, Note_on_c, 4, 79, 127
6, 175680, Note_on_c, 4, 67, 127
6, 176016, Note_on_c, 4, 67, 0
6, 176016, Note_on_c, 4, 79, 0
6, 176160, Note_on_c, 4, 79, 127
6, 176160, Note_on_c, 4, 67, 127
6, 176280, Note_on_c, 4, 67, 0
6, 176280, Note_on_c, 4, 79, 0
6, 176400, Note_on_c, 4, 67, 127
6, 176400, Note_on_c, 4, 79, 127
6, 176520, Note_on_c, 4, 79, 0
6, 176520, Note_on_c, 4, 67, 0
6, 176640, Note_on_c, 4, 72, 127
6, 176640, Note_on_c, 4, 60, 127
6, 176760, Note_on_c, 4, 60, 0
6, 176760, Note_on_c, 4, 72, 0
6, 176880, Note_on_c, 4, 67, 127
6, 176880, Note_on_c, 4, 55, 127
6, 177000, Note_on_c, 4, 55, 0
6, 177000, Note_on_c, 4, 67, 0
6, 177120, Note_on_c, 4, 72, 127
6, 177120, Note_on_c, 4, 60, 127
6, 177240, Note_on_c, 4, 60, 0
6, 177240, Note_on_c, 4, 72, 0
6, 177360, Note_on_c, 4, 55, 127
6, 177360, Note_on_c, 4, 67, 127
6, 177480, Note_on_c, 4, 67, 0
6, 177480, Note_on_c, 4, 55, 0
6, 177600, Note_on_c, 4, 72, 127
6, 177600, Note_on_c, 4, 60, 127
6, 177720, Note_on_c, 4, 60, 0
6, 177720, Note_on_c, 4, 72, 0
6, 177840, Note_on_c, 4, 67, 127
6, 177840, Note_on_c, 4, 55, 127
6, 177960, Note_on_c, 4, 55, 0
6, 177960, Note_on_c, 4, 67, 0
6, 178080, Note_on_c, 4, 72, 127
6, 178080, Note_on_c, 4, 60, 127
6, 178200, Note_on_c, 4, 60, 0
6, 178200, Note_on_c, 4, 72, 0
6, 178320, Note_on_c, 4, 55, 127
6, 178320, Note_on_c, 4, 67, 127
6, 178440, Note_on_c, 4, 67, 0
6, 178440, Note_on_c, 4, 55, 0
6, 178560, Note_on_c, 4, 60, 127
6, 178560, Note_on_c, 4, 72, 127
6, 178896, Note_on_c, 4, 72, 0
6, 178896, Note_on_c, 4, 60, 0
6, 179040, Note_on_c, 4, 72, 127
6, 179220, Note_on_c, 4, 72, 0
6, 179400, Note_on_c, 4, 72, 127
6, 179460, Note_on_c, 4, 72, 0
6, 179520, Note_on_c, 4, 72, 127
6, 179640, Note_on_c, 4, 72, 0
6, 179760, Note_on_c, 4, 67, 127
6, 179880, Note_on_c, 4, 67, 0
6, 180000, Note_on_c, 4, 64, 127
6, 180120, Note_on_c, 4, 64, 0
6, 180240, Note_on_c, 4, 60, 127
6, 180360, Note_on_c, 4, 60, 0
6, 180480, Note_on_c, 4, 67, 127
6, 180984, Note_on_c, 4, 67, 0
6, 181440, Note_on_c, 4, 67, 127
6, 181800, Note_on_c, 4, 67, 0
6, 182400, Note_on_c, 4, 67, 127
6, 182640, Note_on_c, 4, 67, 0
6, 182880, Note_on_c, 4, 67, 127
6, 183120, Note_on_c, 4, 67, 0
6, 183360, Note_on_c, 4, 67, 127
6, 183840, Note_on_c, 4, 67, 0
6, 200640, Note_on_c, 4, 72, 127
6, 200640, Note_on_c, 4, 60, 127
6, 201120, Note_on_c, 4, 60, 0
6, 201120, Note_on_c, 4, 72, 0
6, 201120, Note_on_c, 4, 72, 127
6, 201120, Note_on_c, 4, 60, 127
6, 201480, Note_on_c, 4, 60, 0
6, 201480, Note_on_c, 4, 72, 0
6, 201480, Note_on_c, 4, 60, 127
6, 201480, Note_on_c, 4, 72, 127
6, 201600, Note_on_c, 4, 72, 0
6, 201600, Note_on_c, 4, 60, 0
6, 201600, Note_on_c, 4, 72, 127
6, 201600, Note_on_c, 4, 60, 127
6, 202080, Note_on_c, 4, 60, 0
6, 202080, Note_on_c, 4, 72, 0
6, 202560, Note_on_c, 4, 67, 127
6, 203040, Note_on_c, 4, 67, 0
6, 203040, Note_on_c, 4, 67, 127
6, 203400, Note_on_c, 4, 67, 0
6, 203400, Note_on_c, 4, 67, 127
6, 203520, Note_on_c, 4, 67, 0
6, 203520, Note_on_c, 4, 67, 127
6, 203520, Note_on_c, 4, 60, 127
6, 204000, Note_on_c, 4, 60, 0
6, 204000, Note_on_c, 4, 67, 0
6, 204480, Note_on_c, 4, 72, 127
6, 204480, Note_on_c, 4, 76, 127
6, 205440, Note_on_c, 4, 76, 0
6, 205440, Note_on_c, 4, 72, 0
6, 205440, Note_on_c, 4, 74, 127
6, 205440, Note_on_c, 4, 72, 127
6, 206400, Note_on_c, 4, 72, 0
6, 206400, Note_on_c, 4, 74, 0
6, 206400, Note_on_c, 4, 67, 127
6, 206400, Note_on_c, 4, 74, 127
6, 207360, Note_on_c, 4, 74, 0
6, 207360, Note_on_c, 4, 67, 0
6, 207360, Note_on_c, 4, 72, 127
6, 207360, Note_on_c, 4, 64, 127
6, 208320, Note_on_c, 4, 64, 0
6, 208320, Note_on_c, 4, 72, 0
6, 208320, Note_on_c, 4, 74, 127
6, 208320, Note_on_c, 4, 72, 127
6, 209280, Note_on_c, 4, 72, 0
6, 209280, Note_on_c, 4, 74, 0
6, 209280, Note_on_c, 4, 74, 127
6, 209280, Note_on_c, 4, 67, 127
6, 210240, Note_on_c, 4, 67, 0
6, 210240, Note_on_c, 4, 74, 0
6, 210240, Note_on_c, 4, 64, 127
6, 210240, Note_on_c, 4, 76, 127
6, 211200, Note_on_c, 4, 76, 0
6, 211200, Note_on_c, 4, 64, 0
6, 211200, Note_on_c, 4, 74, 127
6, 211650, Note_on_c, 4, 74, 0
6, 214080, Note_on_c, 4, 74, 127
6, 214530, Note_on_c, 4, 74, 0
6, 216960, Note_on_c, 4, 74, 127
6, 217440, Note_on_c, 4, 74, 0
6, 217920, Note_on_c, 4, 74, 127
6, 218400, Note_on_c, 4, 74, 0
6, 218880, Note_on_c, 4, 74, 127
6, 219360, Note_on_c, 4, 74, 0
6, 219360, Note_on_c, 4, 74, 127
6, 219840, Note_on_c, 4, 74, 0
6, 219840, Note_on_c, 4, 74, 127
6, 220320, Note_on_c, 4, 74, 0
6, 240480, Note_on_c, 4, 67, 100
6, 240480, Note_on_c, 4, 55, 100
6, 240768, Note_on_c, 4, 55, 0
6, 240768, Note_on_c, 4, 67, 0
6, 240960, Note_on_c, 4, 60, 100
6, 240960, Note_on_c, 4, 67, 100
6, 241392, Note_on_c, 4, 67, 0
6, 241392, Note_on_c, 4, 60, 0
6, 242400, Note_on_c, 4, 74, 100
6, 242688, Note_on_c, 4, 74, 0
6, 242880, Note_on_c, 4, 76, 100
6, 243312, Note_on_c, 4, 76, 0
6, 244320, Note_on_c, 4, 74, 100
6, 244608, Note_on_c, 4, 74, 0
6, 244800, Note_on_c, 4, 67, 100
6, 245232, Note_on_c, 4, 67, 0
6, 248160, Note_on_c, 4, 67, 100
6, 248160, Note_on_c, 4, 79, 100
6, 248448, Note_on_c, 4, 79, 0
6, 248448, Note_on_c, 4, 67, 0
6, 248640, Note_on_c, 4, 76, 100
6, 248640, Note_on_c, 4, 64, 100
6, 249072, Note_on_c, 4, 64, 0
6, 249072, Note_on_c, 4, 76, 0
6, 252000, Note_on_c, 4, 64, 100
6, 252000, Note_on_c, 4, 76, 100
6, 252288, Note_on_c, 4, 76, 0
6, 252288, Note_on_c, 4, 64, 0
6, 252480, Note_on_c, 4, 72, 100
6, 252480, Note_on_c, 4, 60, 100
6, 252912, Note_on_c, 4, 60, 0
6, 252912, Note_on_c, 4, 72, 0
6, 254880, Note_on_c, 4, 67, 100
6, 254880, Note_on_c, 4, 74, 100
6, 255168, Note_on_c, 4, 74, 0
6, 255168, Note_on_c, 4, 67, 0
6, 255360, Note_on_c, 4, 72, 100
6, 255360, Note_on_c, 4, 76, 100
6, 255840, Note_on_c, 4, 76, 0
6, 255840, Note_on_c, 4, 72, 0
6, 256320, Note_on_c, 4, 64, 100
6, 256320, Note_on_c, 4, 67, 100
6, 256800, Note_on_c, 4, 67, 0
6, 256800, Note_on_c, 4, 64, 0
6, 257280, Note_on_c, 4, 72, 100
6, 257280, Note_on_c, 4, 67, 100
6, 257760, Note_on_c, 4, 67, 0
6, 257760, Note_on_c, 4, 72, 0
6, 258240, Note_on_c, 4, 72, 100
6, 258240, Note_on_c, 4, 76, 100
6, 258720, Note_on_c, 4, 76, 0
6, 258720, Note_on_c, 4, 72, 0
6, 259200, Note_on_c, 4, 74, 100
6, 260160, Note_on_c, 4, 74, 0
6, 260160, Note_on_c, 4, 74, 100
6, 260160, Note_on_c, 4, 67, 100
6, 260640, Note_on_c, 4, 67, 0
6, 260640, Note_on_c, 4, 74, 0
6, 261360, Note_on_c, 4, 74, 100
6, 261360, Note_on_c, 4, 67, 100
6, 261480, Note_on_c, 4, 67, 0
6, 261480, Note_on_c, 4, 74, 0
6, 261600, Note_on_c, 4, 74, 100
6, 261600, Note_on_c, 4, 67, 100
6, 261720, Note_on_c, 4, 67, 0
6, 261720, Note_on_c, 4, 74, 0
6, 261840, Note_on_c, 4, 67, 100
6, 261840, Note_on_c, 4, 74, 100
6, 261960, Note_on_c, 4, 74, 0
6, 261960, Note_on_c, 4, 67, 0
6, 262080, Note_on_c, 4, 67, 100
6, 262080, Note_on_c, 4, 76, 100
6, 263160, Note_on_c, 4, 76, 0
6, 263160, Note_on_c, 4, 67, 0
6, 263280, Note_on_c, 4, 76, 100
6, 263280, Note_on_c, 4, 67, 100
6, 263400, Note_on_c, 4, 67, 0
6, 263400, Note_on_c, 4, 76, 0
6, 263520, Note_on_c, 4, 76, 100
6, 263520, Note_on_c, 4, 67, 100
6, 263640, Note_on_c, 4, 67, 0
6, 263640, Note_on_c, 4, 76, 0
6, 263760, Note_on_c, 4, 67, 100
6, 263760, Note_on_c, 4, 76, 100
6, 263880, Note_on_c, 4, 76, 0
6, 263880, Note_on_c, 4, 67, 0
6, 264000, Note_on_c, 4, 67, 100
6, 264000, Note_on_c, 4, 74, 100
6, 265080, Note_on_c, 4, 74, 0
6, 265080, Note_on_c, 4, 67, 0
6, 265200, Note_on_c, 4, 74, 100
6, 265200, Note_on_c, 4, 67, 100
6, 265320, Note_on_c, 4, 67, 0
6, 265320, Note_on_c, 4, 74, 0
6, 265440, Note_on_c, 4, 74, 100
6, 265440, Note_on_c, 4, 67, 100
6, 265560, Note_on_c, 4, 67, 0
6, 265560, Note_on_c, 4, 74, 0
6, 265680, Note_on_c, 4, 67, 100
6, 265680, Note_on_c, 4, 74, 100
6, 265800, Note_on_c, 4, 74, 0
6, 265800, Note_on_c, 4, 67, 0
6, 265920, Note_on_c, 4, 72, 100
6, 265920, Note_on_c, 4, 76, 100
6, 266880, Note_on_c, 4, 76, 0
6, 266880, Note_on_c, 4, 72, 0
6, 266880, Note_on_c, 4, 74, 100
6, 267840, Note_on_c, 4, 74, 0
6, 267840, Note_on_c, 4, 67, 100
6, 267840, Note_on_c, 4, 74, 100
6, 268920, Note_on_c, 4, 74, 0
6, 268920, Note_on_c, 4, 67, 0
6, 269040, Note_on_c, 4, 67, 100
6, 269040, Note_on_c, 4, 74, 100
6, 269160, Note_on_c, 4, 74, 0
6, 269160, Note_on_c, 4, 67, 0
6, 269280, Note_on_c, 4, 74, 100
6, 269280, Note_on_c, 4, 67, 100
6, 269400, Note_on_c, 4, 67, 0
6, 269400, Note_on_c, 4, 74, 0
6, 269520, Note_on_c, 4, 67, 100
6, 269520, Note_on_c, 4, 74, 100
6, 269640, Note_on_c, 4, 74, 0
6, 269640, Note_on_c, 4, 67, 0
6, 269760, Note_on_c, 4, 67, 100
6, 269760, Note_on_c, 4, 74, 100
6, 270840, Note_on_c, 4, 74, 0
6, 270840, Note_on_c, 4, 67, 0
6, 270960, Note_on_c, 4, 67, 100
6, 270960, Note_on_c, 4, 74, 100
6, 271080, Note_on_c, 4, 74, 0
6, 271080, Note_on_c, 4, 67, 0
6, 271200, Note_on_c, 4, 74, 100
6, 271200, Note_on_c, 4, 67, 100
6, 271320, Note_on_c, 4, 67, 0
6, 271320, Note_on_c, 4, 74, 0
6, 271440, Note_on_c, 4, 67, 100
6, 271440, Note_on_c, 4, 74, 100
6, 271560, Note_on_c, 4, 74, 0
6, 271560, Note_on_c, 4, 67, 0
6, 271680, Note_on_c, 4, 72, 100
6, 271680, Note_on_c, 4, 67, 100
6, 271800, Note_on_c, 4, 67, 0
6, 271800, Note_on_c, 4, 72, 0
6, 271920, Note_on_c, 4, 72, 100
6, 271920, Note_on_c, 4, 67, 100
6, 272040, Note_on_c, 4, 67, 0
6, 272040, Note_on_c, 4, 72, 0
6, 272160, Note_on_c, 4, 72, 100
6, 272160, Note_on_c, 4, 67, 100
6, 272280, Note_on_c, 4, 67, 0
6, 272280, Note_on_c, 4, 72, 0
6, 272400, Note_on_c, 4, 67, 100
6, 272400, Note_on_c, 4, 72, 100
6, 272520, Note_on_c, 4, 72, 0
6, 272520, Note_on_c, 4, 67, 0
6, 272640, Note_on_c, 4, 60, 100
6, 272640, Note_on_c, 4, 72, 100
6, 273360, Note_on_c, 4, 72, 0
6, 273360, Note_on_c, 4, 60, 0
6, 273360, Note_on_c, 4, 74, 100
6, 273360, Note_on_c, 4, 67, 100
6, 273480, Note_on_c, 4, 67, 0
6, 273480, Note_on_c, 4, 74, 0
6, 273600, Note_on_c, 4, 72, 100
6, 273600, Note_on_c, 4, 60, 100
6, 273720, Note_on_c, 4, 60, 0
6, 273720, Note_on_c, 4, 72, 0
6, 273840, Note_on_c, 4, 74, 100
6, 273840, Note_on_c, 4, 67, 100
6, 273960, Note_on_c, 4, 67, 0
6, 273960, Note_on_c, 4, 74, 0
6, 274080, Note_on_c, 4, 72, 100
6, 274080, Note_on_c, 4, 60, 100
6, 274200, Note_on_c, 4, 60, 0
6, 274200, Note_on_c, 4, 72, 0
6, 274320, Note_on_c, 4, 67, 100
6, 274320, Note_on_c, 4, 74, 100
6, 274440, Note_on_c, 4, 74, 0
6, 274440, Note_on_c, 4, 67, 0
6, 274560, Note_on_c, 4, 72, 100
6, 274560, Note_on_c, 4, 60, 100
6, 275280, Note_on_c, 4, 60, 0
6, 275280, Note_on_c, 4, 72, 0
6, 275280, Note_on_c, 4, 67, 100
6, 275280, Note_on_c, 4, 74, 100
6, 275400, Note_on_c, 4, 74, 0
6, 275400, Note_on_c, 4, 67, 0
6, 275520, Note_on_c, 4, 72, 100
6, 275520, Note_on_c, 4, 60, 100
6, 275640, Note_on_c, 4, 60, 0
6, 275640, Note_on_c, 4, 72, 0
6, 275760, Note_on_c, 4, 74, 100
6, 275760, Note_on_c, 4, 67, 100
6, 275880, Note_on_c, 4, 67, 0
6, 275880, Note_on_c, 4, 74, 0
6, 276000, Note_on_c, 4, 72, 100
6, 276000, Note_on_c, 4, 60, 100
6, 276120, Note_on_c, 4, 60, 0
6, 276120, Note_on_c, 4, 72, 0
6, 276240, Note_on_c, 4, 67, 100
6, 276240, Note_on_c, 4, 74, 100
6, 276360, Note_on_c, 4, 74, 0
6, 276360, Note_on_c, 4, 67, 0
6, 276480, Note_on_c, 4, 79, 100
6, 276480, Note_on_c, 4, 67, 100
6, 276816, Note_on_c, 4, 67, 0
6, 276816, Note_on_c, 4, 79, 0
6, 276960, Note_on_c, 4, 74, 100
6, 277296, Note_on_c, 4, 74, 0
6, 277440, Note_on_c, 4, 67, 100
6, 277944, Note_on_c, 4, 67, 0
6, 278400, Note_on_c, 4, 76, 100
6, 278400, Note_on_c, 4, 72, 100
6, 278736, Note_on_c, 4, 72, 0
6, 278736, Note_on_c, 4, 76, 0
6, 278880, Note_on_c, 4, 74, 100
6, 279216, Note_on_c, 4, 74, 0
6, 279360, Note_on_c, 4, 74, 100
6, 279360, Note_on_c, 4, 67, 100
6, 279864, Note_on_c, 4, 67, 0
6, 279864, Note_on_c, 4, 74, 0
6, 280320, Note_on_c, 4, 67, 100
6, 280320, Note_on_c, 4, 55, 100
6, 280800, Note_on_c, 4, 55, 0
6, 280800, Note_on_c, 4, 67, 0
6, 281760, Note_on_c, 4, 74, 100
6, 282096, Note_on_c, 4, 74, 0
6, 282240, Note_on_c, 4, 74, 100
6, 282240, Note_on_c, 4, 67, 100
6, 282744, Note_on_c, 4, 67, 0
6, 282744, Note_on_c, 4, 74, 0
6, 283200, Note_on_c, 4, 72, 100
6, 283200, Note_on_c, 4, 60, 100
6, 283704, Note_on_c, 4, 60, 0
6, 283704, Note_on_c, 4, 72, 0
6, 284640, Note_on_c, 4, 74, 100
6, 284928, Note_on_c, 4, 74, 0
6, 285120, Note_on_c, 4, 74, 100
6, 285120, Note_on_c, 4, 67, 100
6, 285552, Note_on_c, 4, 67, 0
6, 285552, Note_on_c, 4, 74, 0
6, 286080, Note_on_c, 4, 76, 100
6, 286080, Note_on_c, 4, 67, 100
6, 287040, Note_on_c, 4, 67, 0
6, 287040, Note_on_c, 4, 76, 0
6, 287040, Note_on_c, 4, 76, 100
6, 287040, Note_on_c, 4, 72, 100
6, 288000, Note_on_c, 4, 72, 0
6, 288000, Note_on_c, 4, 76, 0
6, 288000, Note_on_c, 4, 72, 100
6, 288000, Note_on_c, 4, 74, 100
6, 288960, Note_on_c, 4, 74, 0
6, 288960, Note_on_c, 4, 72, 0
6, 288960, Note_on_c, 4, 74, 100
6, 288960, Note_on_c, 4, 67, 100
6, 289440, Note_on_c, 4, 67, 0
6, 289440, Note_on_c, 4, 74, 0
6, 289920, Note_on_c, 4, 76, 100
6, 289920, Note_on_c, 4, 67, 100
6, 290424, Note_on_c, 4, 67, 0
6, 290424, Note_on_c, 4, 76, 0
6, 290880, Note_on_c, 4, 76, 100
6, 290880, Note_on_c, 4, 67, 100
6, 291216, Note_on_c, 4, 67, 0
6, 291216, Note_on_c, 4, 76, 0
6, 291360, Note_on_c, 4, 74, 100
6, 291696, Note_on_c, 4, 74, 0
6, 291840, Note_on_c, 4, 74, 100
6, 291840, Note_on_c, 4, 67, 100
6, 292344, Note_on_c, 4, 67, 0
6, 292344, Note_on_c, 4, 74, 0
6, 292800, Note_on_c, 4, 76, 100
6, 292800, Note_on_c, 4, 67, 100
6, 293304, Note_on_c, 4, 67, 0
6, 293304, Note_on_c, 4, 76, 0
6, 293760, Note_on_c, 4, 76, 100
6, 293760, Note_on_c, 4, 67, 100
6, 294096, Note_on_c, 4, 67, 0
6, 294096, Note_on_c, 4, 76, 0
6, 294240, Note_on_c, 4, 74, 100
6, 294576, Note_on_c, 4, 74, 0
6, 294720, Note_on_c, 4, 74, 100
6, 294720, Note_on_c, 4, 67, 100
6, 295224, Note_on_c, 4, 67, 0
6, 295224, Note_on_c, 4, 74, 0
6, 315360, Note_on_c, 4, 64, 127
6, 315360, Note_on_c, 4, 60, 127
6, 315585, Note_on_c, 4, 60, 0
6, 315585, Note_on_c, 4, 64, 0
6, 315840, Note_on_c, 4, 64, 127
6, 315840, Note_on_c, 4, 60, 127
6, 316320, Note_on_c, 4, 60, 0
6, 316320, Note_on_c, 4, 64, 0
6, 318720, Note_on_c, 4, 74, 127
6, 318945, Note_on_c, 4, 74, 0
6, 319080, Note_on_c, 4, 74, 127
6, 319200, Note_on_c, 4, 74, 0
6, 319200, Note_on_c, 4, 74, 127
6, 319680, Note_on_c, 4, 74, 0
6, 322080, Note_on_c, 4, 74, 127
6, 322080, Note_on_c, 4, 67, 127
6, 322305, Note_on_c, 4, 67, 0
6, 322305, Note_on_c, 4, 74, 0
6, 322440, Note_on_c, 4, 74, 127
6, 322440, Note_on_c, 4, 67, 127
6, 322560, Note_on_c, 4, 67, 0
6, 322560, Note_on_c, 4, 74, 0
6, 322560, Note_on_c, 4, 74, 127
6, 322560, Note_on_c, 4, 67, 127
6, 323040, Note_on_c, 4, 67, 0
6, 323040, Note_on_c, 4, 74, 0
6, 325440, Note_on_c, 4, 64, 127
6, 325440, Note_on_c, 4, 67, 127
6, 325665, Note_on_c, 4, 67, 0
6, 325665, Note_on_c, 4, 64, 0
6, 325800, Note_on_c, 4, 67, 127
6, 325800, Note_on_c, 4, 64, 127
6, 325920, Note_on_c, 4, 64, 0
6, 325920, Note_on_c, 4, 67, 0
6, 325920, Note_on_c, 4, 64, 127
6, 325920, Note_on_c, 4, 67, 127
6, 326400, Note_on_c, 4, 67, 0
6, 326400, Note_on_c, 4, 64, 0
6, 328800, Note_on_c, 4, 72, 127
6, 328800, Note_on_c, 4, 60, 127
6, 329025, Note_on_c, 4, 60, 0
6, 329025, Note_on_c, 4, 72, 0
6, 329160, Note_on_c, 4, 60, 127
6, 329160, Note_on_c, 4, 72, 127
6, 329280, Note_on_c, 4, 72, 0
6, 329280, Note_on_c, 4, 60, 0
6, 329280, Note_on_c, 4, 72, 127
6, 329280, Note_on_c, 4, 60, 127
6, 329760, Note_on_c, 4, 60, 0
6, 329760, Note_on_c, 4, 72, 0
6, 334080, Note_on_c, 4, 67, 100
6, 334080, Note_on_c, 4, 60, 100
6, 334305, Note_on_c, 4, 60, 0
6, 334305, Note_on_c, 4, 67, 0
6, 334440, Note_on_c, 4, 67, 100
6, 334440, Note_on_c, 4, 60, 100
6, 334560, Note_on_c, 4, 60, 0
6, 334560, Note_on_c, 4, 67, 0
6, 334560, Note_on_c, 4, 67, 100
6, 334560, Note_on_c, 4, 60, 100
6, 335040, Note_on_c, 4, 60, 0
6, 335040, Note_on_c, 4, 67, 0
6, 338400, Note_on_c, 4, 67, 64
6, 338400, Note_on_c, 4, 74, 64
6, 338625, Note_on_c, 4, 74, 0
6, 338625, Note_on_c, 4, 67, 0
6, 338760, Note_on_c, 4, 67, 64
6, 338760, Note_on_c, 4, 74, 64
6, 338880, Note_on_c, 4, 74, 0
6, 338880, Note_on_c, 4, 67, 0
6, 338880, Note_on_c, 4, 74, 64
6, 338880, Note_on_c, 4, 67, 64
6, 339360, Note_on_c, 4, 67, 0
6, 339360, Note_on_c, 4, 74, 0
6, 343680, Note_on_c, 4, 74, 64
6, 343905, Note_on_c, 4, 74, 0
6, 344040, Note_on_c, 4, 74, 64
6, 344100, Note_on_c, 4, 74, 0
6, 344160, Note_on_c, 4, 74, 64
6, 344640, Note_on_c, 4, 74, 0
6, 363840, Note_on_c, 4, 67, 50
6, 365758, Note_on_c, 4, 67, 0
6, 365760, Note_on_c, 4, 60, 50
6, 366240, Note_on_c, 4, 60, 0
6, 367680, Note_on_c, 4, 74, 50
6, 367680, Note_on_c, 4, 67, 50
6, 368160, Note_on_c, 4, 67, 0
6, 368160, Note_on_c, 4, 74, 0
6, 368640, Note_on_c, 4, 72, 50
6, 368640, Note_on_c, 4, 60, 50
6, 369120, Note_on_c, 4, 60, 0
6, 369120, Note_on_c, 4, 72, 0
6, 369600, Note_on_c, 4, 72, 50
6, 369600, Note_on_c, 4, 60, 50
6, 370080, Note_on_c, 4, 60, 0
6, 370080, Note_on_c, 4, 72, 0
6, 370560, Note_on_c, 4, 72, 50
6, 370560, Note_on_c, 4, 60, 50
6, 371040, Note_on_c, 4, 60, 0
6, 371040, Note_on_c, 4, 72, 0
6, 371520, Note_on_c, 4, 74, 50
6, 371520, Note_on_c, 4, 67, 50
6, 371760, Note_on_c, 4, 67, 0
6, 371760, Note_on_c, 4, 74, 0
6, 372000, Note_on_c, 4, 76, 50
6, 372000, Note_on_c, 4, 72, 50
6, 372240, Note_on_c, 4, 72, 0
6, 372240, Note_on_c, 4, 76, 0
6, 372480, Note_on_c, 4, 74, 50
6, 372480, Note_on_c, 4, 67, 50
6, 372960, Note_on_c, 4, 67, 0
6, 372960, Note_on_c, 4, 74, 0
6, 373440, Note_on_c, 4, 72, 127
6, 373728, Note_on_c, 4, 72, 0
6, 373920, Note_on_c, 4, 60, 127
6, 374208, Note_on_c, 4, 60, 0
6, 374400, Note_on_c, 4, 67, 127
6, 374832, Note_on_c, 4, 67, 0
6, 375360, Note_on_c, 4, 67, 127
6, 375360, Note_on_c, 4, 79, 127
6, 375648, Note_on_c, 4, 79, 0
6, 375648, Note_on_c, 4, 67, 0
6, 375840, Note_on_c, 4, 55, 127
6, 375840, Note_on_c, 4, 67, 127
6, 376128, Note_on_c, 4, 67, 0
6, 376128, Note_on_c, 4, 55, 0
6, 376320, Note_on_c, 4, 67, 127
6, 376320, Note_on_c, 4, 55, 127
6, 376752, Note_on_c, 4, 55, 0
6, 376752, Note_on_c, 4, 67, 0
6, 377280, Note_on_c, 4, 74, 127
6, 377712, Note_on_c, 4, 74, 0
6, 379200, Note_on_c, 4, 64, 127
6, 379200, Note_on_c, 4, 76, 127
6, 379632, Note_on_c, 4, 76, 0
6, 379632, Note_on_c, 4, 64, 0
6, 381120, Note_on_c, 4, 76, 127
6, 381120, Note_on_c, 4, 64, 127
6, 381600, Note_on_c, 4, 64, 0
6, 381600, Note_on_c, 4, 76, 0
6, 392640, Note_on_c, 4, 72, 127
6, 392640, Note_on_c, 4, 60, 127
6, 393120, Note_on_c, 4, 60, 0
6, 393120, Note_on_c, 4, 72, 0
6, 393120, Note_on_c, 4, 72, 127
6, 393120, Note_on_c, 4, 60, 127
6, 393480, Note_on_c, 4, 60, 0
6, 393480, Note_on_c, 4, 72, 0
6, 393480, Note_on_c, 4, 60, 127
6, 393480, Note_on_c, 4, 72, 127
6, 393600, Note_on_c, 4, 72, 0
6, 393600, Note_on_c, 4, 60, 0
6, 393600, Note_on_c, 4, 60, 127
6, 393600, Note_on_c, 4, 72, 127
6, 394560, Note_on_c, 4, 72, 0
6, 394560, Note_on_c, 4, 60, 0
6, 394560, Note_on_c, 4, 77, 127
6, 394560, Note_on_c, 4, 74, 127
6, 395520, Note_on_c, 4, 77, 0
6, 395520, Note_on_c, 4, 76, 127
6, 396478, Note_on_c, 4, 74, 0
6, 396480, Note_on_c, 4, 76, 0
6, 396480, Note_on_c, 4, 72, 127
6, 396480, Note_on_c, 4, 76, 127
6, 397440, Note_on_c, 4, 76, 0
6, 397440, Note_on_c, 4, 74, 127
6, 398398, Note_on_c, 4, 72, 0
6, 398400, Note_on_c, 4, 74, 0
6, 398400, Note_on_c, 4, 74, 127
6, 398400, Note_on_c, 4, 67, 127
6, 399360, Note_on_c, 4, 67, 0
6, 399360, Note_on_c, 4, 74, 0
6, 399360, Note_on_c, 4, 76, 127
6, 399360, Note_on_c, 4, 67, 127
6, 399840, Note_on_c, 4, 67, 0
6, 399840, Note_on_c, 4, 60, 127
6, 400320, Note_on_c, 4, 60, 0
6, 400320, Note_on_c, 4, 76, 0
6, 400320, Note_on_c, 4, 72, 127
6, 400320, Note_on_c, 4, 60, 127
6, 400800, Note_on_c, 4, 60, 0
6, 400800, Note_on_c, 4, 72, 0
6, 400800, Note_on_c, 4, 72, 127
6, 400800, Note_on_c, 4, 60, 127
6, 401025, Note_on_c, 4, 60, 0
6, 401025, Note_on_c, 4, 72, 0
6, 401160, Note_on_c, 4, 60, 127
6, 401160, Note_on_c, 4, 72, 127
6, 401280, Note_on_c, 4, 72, 0
6, 401280, Note_on_c, 4, 60, 0
6, 401280, Note_on_c, 4, 67, 127
6, 401280, Note_on_c, 4, 55, 127
6, 401760, Note_on_c, 4, 55, 0
6, 401760, Note_on_c, 4, 67, 0
6, 402720, Note_on_c, 4, 67, 127
6, 402945, Note_on_c, 4, 67, 0
6, 403080, Note_on_c, 4, 67, 127
6, 403200, Note_on_c, 4, 67, 0
6, 403200, Note_on_c, 4, 67, 127
6, 403680, Note_on_c, 4, 67, 0
6, 403680, Note_on_c, 4, 67, 127
6, 404160, Note_on_c, 4, 67, 0
6, 404160, Note_on_c, 4, 67, 127
6, 404664, Note_on_c, 4, 67, 0
6, 405600, Note_on_c, 4, 67, 127
6, 405768, Note_on_c, 4, 67, 0
6, 405960, Note_on_c, 4, 67, 127
6, 406044, Note_on_c, 4, 67, 0
6, 406080, Note_on_c, 4, 67, 127
6, 406416, Note_on_c, 4, 67, 0
6, 406560, Note_on_c, 4, 67, 127
6, 406896, Note_on_c, 4, 67, 0
6, 407040, Note_on_c, 4, 67, 127
6, 407712, Note_on_c, 4, 67, 0
6, 408000, Note_on_c, 4, 67, 127
6, 408336, Note_on_c, 4, 67, 0
6, 408480, Note_on_c, 4, 67, 127
6, 408816, Note_on_c, 4, 67, 0
6, 408960, Note_on_c, 4, 67, 127
6, 409080, Note_on_c, 4, 67, 0
6, 409200, Note_on_c, 4, 67, 127
6, 409200, Note_on_c, 4, 74, 127
6, 409320, Note_on_c, 4, 74, 0
6, 409320, Note_on_c, 4, 67, 0
6, 409440, Note_on_c, 4, 67, 127
6, 409440, Note_on_c, 4, 74, 127
6, 409560, Note_on_c, 4, 74, 0
6, 409560, Note_on_c, 4, 67, 0
6, 409680, Note_on_c, 4, 74, 127
6, 409680, Note_on_c, 4, 67, 127
6, 409800, Note_on_c, 4, 67, 0
6, 409800, Note_on_c, 4, 74, 0
6, 409920, Note_on_c, 4, 67, 127
6, 409920, Note_on_c, 4, 74, 127
6, 410400, Note_on_c, 4, 74, 0
6, 410400, Note_on_c, 4, 67, 0
6, 422400, Note_on_c, 4, 67, 50
6, 422400, Note_on_c, 4, 55, 50
6, 422880, Note_on_c, 4, 55, 0
6, 422880, Note_on_c, 4, 67, 0
6, 424320, Note_on_c, 4, 55, 50
6, 424320, Note_on_c, 4, 67, 50
6, 424800, Note_on_c, 4, 67, 0
6, 424800, Note_on_c, 4, 55, 0
6, 426240, Note_on_c, 4, 55, 50
6, 426240, Note_on_c, 4, 67, 50
6, 426720, Note_on_c, 4, 67, 0
6, 426720, Note_on_c, 4, 55, 0
6, 428160, Note_on_c, 4, 55, 50
6, 428160, Note_on_c, 4, 67, 50
6, 428640, Note_on_c, 4, 67, 0
6, 428640, Note_on_c, 4, 55, 0
6, 430080, Note_on_c, 4, 67, 50
6, 430080, Note_on_c, 4, 60, 50
6, 430416, Note_on_c, 4, 60, 0
6, 430416, Note_on_c, 4, 67, 0
6, 430560, Note_on_c, 4, 60, 127
6, 430560, Note_on_c, 4, 72, 127
6, 430896, Note_on_c, 4, 72, 0
6, 430896, Note_on_c, 4, 60, 0
6, 431040, Note_on_c, 4, 72, 127
6, 431040, Note_on_c, 4, 60, 127
6, 431376, Note_on_c, 4, 60, 0
6, 431376, Note_on_c, 4, 72, 0
6, 431520, Note_on_c, 4, 74, 127
6, 431856, Note_on_c, 4, 74, 0
6, 432480, Note_on_c, 4, 64, 127
6, 432480, Note_on_c, 4, 76, 127
6, 432816, Note_on_c, 4, 76, 0
6, 432816, Note_on_c, 4, 64, 0
6, 432960, Note_on_c, 4, 72, 127
6, 432960, Note_on_c, 4, 64, 127
6, 433296, Note_on_c, 4, 64, 0
6, 433296, Note_on_c, 4, 72, 0
6, 433440, Note_on_c, 4, 60, 127
6, 433440, Note_on_c, 4, 72, 127
6, 433776, Note_on_c, 4, 72, 0
6, 433776, Note_on_c, 4, 60, 0
6, 434400, Note_on_c, 4, 67, 127
6, 434400, Note_on_c, 4, 74, 127
6, 434736, Note_on_c, 4, 74, 0
6, 434736, Note_on_c, 4, 67, 0
6, 434880, Note_on_c, 4, 76, 127
6, 434880, Note_on_c, 4, 72, 127
6, 435384, Note_on_c, 4, 72, 0
6, 435384, Note_on_c, 4, 76, 0
6, 438240, Note_on_c, 4, 60, 127
6, 438240, Note_on_c, 4, 67, 127
6, 438576, Note_on_c, 4, 67, 0
6, 438576, Note_on_c, 4, 60, 0
6, 438720, Note_on_c, 4, 64, 127
6, 438720, Note_on_c, 4, 72, 127
6, 439224, Note_on_c, 4, 72, 0
6, 439224, Note_on_c, 4, 64, 0
6, 442080, Note_on_c, 4, 64, 127
6, 442080, Note_on_c, 4, 72, 127
6, 442416, Note_on_c, 4, 72, 0
6, 442416, Note_on_c, 4, 64, 0
6, 442560, Note_on_c, 4, 72, 127
6, 442560, Note_on_c, 4, 60, 127
6, 443064, Note_on_c, 4, 60, 0
6, 443064, Note_on_c, 4, 72, 0
6, 444960, Note_on_c, 4, 72, 127
6, 444960, Note_on_c, 4, 60, 127
6, 445440, Note_on_c, 4, 60, 0
6, 445440, Note_on_c, 4, 72, 0
6, 445440, Note_on_c, 4, 60, 127
6, 445440, Note_on_c, 4, 72, 127
6, 445920, Note_on_c, 4, 72, 0
6, 445920, Note_on_c, 4, 60, 0
6, 446400, Note_on_c, 4, 60, 127
6, 446400, Note_on_c, 4, 72, 127
6, 446880, Note_on_c, 4, 72, 0
6, 446880, Note_on_c, 4, 60, 0
6, 447360, Note_on_c, 4, 60, 127
6, 447360, Note_on_c, 4, 72, 127
6, 447840, Note_on_c, 4, 72, 0
6, 447840, Note_on_c, 4, 60, 0
6, 448320, Note_on_c, 4, 74, 127
6, 448800, Note_on_c, 4, 74, 0
6, 449280, Note_on_c, 4, 67, 127
6, 449280, Note_on_c, 4, 55, 127
6, 449616, Note_on_c, 4, 55, 0
6, 449616, Note_on_c, 4, 67, 0
6, 449760, Note_on_c, 4, 55, 127
6, 449760, Note_on_c, 4, 67, 127
6, 450096, Note_on_c, 4, 67, 0
6, 450096, Note_on_c, 4, 55, 0
6, 450240, Note_on_c, 4, 67, 127
6, 450240, Note_on_c, 4, 55, 127
6, 450720, Note_on_c, 4, 55, 0
6, 450720, Note_on_c, 4, 67, 0
6, 451440, Note_on_c, 4, 72, 127
6, 451440, Note_on_c, 4, 60, 127
6, 451560, Note_on_c, 4, 60, 0
6, 451560, Note_on_c, 4, 72, 0
6, 451680, Note_on_c, 4, 72, 127
6, 451680, Note_on_c, 4, 60, 127
6, 451800, Note_on_c, 4, 60, 0
6, 451800, Note_on_c, 4, 72, 0
6, 451920, Note_on_c, 4, 60, 127
6, 451920, Note_on_c, 4, 72, 127
6, 452040, Note_on_c, 4, 72, 0
6, 452040, Note_on_c, 4, 60, 0
6, 452160, Note_on_c, 4, 60, 127
6, 452160, Note_on_c, 4, 72, 127
6, 453240, Note_on_c, 4, 72, 0
6, 453240, Note_on_c, 4, 60, 0
6, 453360, Note_on_c, 4, 72, 127
6, 453360, Note_on_c, 4, 60, 127
6, 453480, Note_on_c, 4, 60, 0
6, 453480, Note_on_c, 4, 72, 0
6, 453600, Note_on_c, 4, 72, 127
6, 453600, Note_on_c, 4, 60, 127
6, 453720, Note_on_c, 4, 60, 0
6, 453720, Note_on_c, 4, 72, 0
6, 453840, Note_on_c, 4, 60, 127
6, 453840, Note_on_c, 4, 72, 127
6, 453960, Note_on_c, 4, 72, 0
6, 453960, Note_on_c, 4, 60, 0
6, 454080, Note_on_c, 4, 60, 127
6, 454080, Note_on_c, 4, 72, 127
6, 455160, Note_on_c, 4, 72, 0
6, 455160, Note_on_c, 4, 60, 0
6, 455280, Note_on_c, 4, 72, 127
6, 455280, Note_on_c, 4, 60, 127
6, 455400, Note_on_c, 4, 60, 0
6, 455400, Note_on_c, 4, 72, 0
6, 455520, Note_on_c, 4, 72, 127
6, 455520, Note_on_c, 4, 60, 127
6, 455640, Note_on_c, 4, 60, 0
6, 455640, Note_on_c, 4, 72, 0
6, 455760, Note_on_c, 4, 60, 127
6, 455760, Note_on_c, 4, 72, 127
6, 455880, Note_on_c, 4, 72, 0
6, 455880, Note_on_c, 4, 60, 0
6, 456000, Note_on_c, 4, 55, 127
6, 456000, Note_on_c, 4, 67, 127
6, 456672, Note_on_c, 4, 67, 0
6, 456672, Note_on_c, 4, 55, 0
6, 456960, Note_on_c, 4, 55, 127
6, 456960, Note_on_c, 4, 67, 127
6, 457296, Note_on_c, 4, 67, 0
6, 457296, Note_on_c, 4, 55, 0
6, 457440, Note_on_c, 4, 55, 127
6, 457440, Note_on_c, 4, 67, 127
6, 457776, Note_on_c, 4, 67, 0
6, 457776, Note_on_c, 4, 55, 0
6, 457920, Note_on_c, 4, 60, 127
6, 457920, Note_on_c, 4, 67, 127
6, 459000, Note_on_c, 4, 67, 0
6, 459000, Note_on_c, 4, 60, 0
6, 459120, Note_on_c, 4, 67, 127
6, 459120, Note_on_c, 4, 72, 127
6, 459240, Note_on_c, 4, 72, 0
6, 459240, Note_on_c, 4, 67, 0
6, 459360, Note_on_c, 4, 72, 127
6, 459360, Note_on_c, 4, 67, 127
6, 459480, Note_on_c, 4, 67, 0
6, 459480, Note_on_c, 4, 72, 0
6, 459600, Note_on_c, 4, 67, 127
6, 459600, Note_on_c, 4, 72, 127
6, 459720, Note_on_c, 4, 72, 0
6, 459720, Note_on_c, 4, 67, 0
6, 459840, Note_on_c, 4, 67, 127
6, 459840, Note_on_c, 4, 72, 127
6, 460920, Note_on_c, 4, 72, 0
6, 460920, Note_on_c, 4, 67, 0
6, 461040, Note_on_c, 4, 60, 127
6, 461040, Note_on_c, 4, 72, 127
6, 461160, Note_on_c, 4, 72, 0
6, 461160, Note_on_c, 4, 60, 0
6, 461280, Note_on_c, 4, 72, 127
6, 461280, Note_on_c, 4, 60, 127
6, 461400, Note_on_c, 4, 60, 0
6, 461400, Note_on_c, 4, 72, 0
6, 461520, Note_on_c, 4, 60, 127
6, 461520, Note_on_c, 4, 72, 127
6, 461640, Note_on_c, 4, 72, 0
6, 461640, Note_on_c, 4, 60, 0
6, 461760, Note_on_c, 4, 60, 127
6, 461760, Note_on_c, 4, 72, 127
6, 462000, Note_on_c, 4, 72, 0
6, 462000, Note_on_c, 4, 60, 0
6, 462000, Note_on_c, 4, 60, 127
6, 462000, Note_on_c, 4, 72, 127
6, 462240, Note_on_c, 4, 72, 0
6, 462240, Note_on_c, 4, 60, 0
6, 462240, Note_on_c, 4, 60, 127
6, 462240, Note_on_c, 4, 72, 127
6, 462480, Note_on_c, 4, 72, 0
6, 462480, Note_on_c, 4, 60, 0
6, 462480, Note_on_c, 4, 72, 127
6, 462480, Note_on_c, 4, 60, 127
6, 462720, Note_on_c, 4, 60, 0
6, 462720, Note_on_c, 4, 72, 0
6, 462720, Note_on_c, 4, 72, 127
6, 462720, Note_on_c, 4, 60, 127
6, 463440, Note_on_c, 4, 60, 0
6, 463440, Note_on_c, 4, 72, 0
6, 463440, Note_on_c, 4, 60, 127
6, 463440, Note_on_c, 4, 72, 127
6, 463680, Note_on_c, 4, 72, 0
6, 463680, Note_on_c, 4, 60, 0
6, 463680, Note_on_c, 4, 72, 127
6, 463680, Note_on_c, 4, 60, 127
6, 463920, Note_on_c, 4, 60, 0
6, 463920, Note_on_c, 4, 72, 0
6, 463920, Note_on_c, 4, 72, 127
6, 463920, Note_on_c, 4, 60, 127
6, 464160, Note_on_c, 4, 60, 0
6, 464160, Note_on_c, 4, 72, 0
6, 464160, Note_on_c, 4, 72, 127
6, 464160, Note_on_c, 4, 60, 127
6, 464400, Note_on_c, 4, 60, 0
6, 464400, Note_on_c, 4, 72, 0
6, 466560, Note_on_c, 4, 72, 127
6, 466560, Note_on_c, 4, 60, 127
6, 467040, Note_on_c, 4, 60, 0
6, 467040, Note_on_c, 4, 72, 0
6, 468000, Note_on_c, 4, 60, 127
6, 468000, Note_on_c, 4, 72, 127
6, 468480, Note_on_c, 4, 72, 0
6, 468480, Note_on_c, 4, 60, 0
6, 468480, Note_on_c, 4, 67, 127
6, 468480, Note_on_c, 4, 55, 127
6, 468960, Note_on_c, 4, 55, 0
6, 468960, Note_on_c, 4, 67, 0
6, 468960, Note_on_c, 4, 67, 127
6, 468960, Note_on_c, 4, 55, 127
6, 469185, Note_on_c, 4, 55, 0
6, 469185, Note_on_c, 4, 67, 0
6, 469320, Note_on_c, 4, 67, 127
6, 469320, Note_on_c, 4, 55, 127
6, 469440, Note_on_c, 4, 55, 0
6, 469440, Note_on_c, 4, 67, 0
6, 469440, Note_on_c, 4, 67, 127
6, 469440, Note_on_c, 4, 55, 127
6, 469920, Note_on_c, 4, 55, 0
6, 469920, Note_on_c, 4, 67, 0
6, 469920, Note_on_c, 4, 55, 127
6, 469920, Note_on_c, 4, 67, 127
6, 470400, Note_on_c, 4, 67, 0
6, 470400, Note_on_c, 4, 55, 0
6, 470400, Note_on_c, 4, 67, 127
6, 470400, Note_on_c, 4, 60, 127
6, 470880, Note_on_c, 4, 60, 0
6, 470880, Note_on_c, 4, 67, 0
6, 471360, Note_on_c, 4, 72, 127
6, 471360, Note_on_c, 4, 60, 127
6, 471840, Note_on_c, 4, 60, 0
6, 471840, Note_on_c, 4, 72, 0
6, 471840, Note_on_c, 4, 60, 127
6, 471840, Note_on_c, 4, 72, 127
6, 472065, Note_on_c, 4, 72, 0
6, 472065, Note_on_c, 4, 60, 0
6, 472200, Note_on_c, 4, 72, 127
6, 472200, Note_on_c, 4, 60, 127
6, 472320, Note_on_c, 4, 60, 0
6, 472320, Note_on_c, 4, 72, 0
6, 472320, Note_on_c, 4, 55, 127
6, 472320, Note_on_c, 4, 67, 127
6, 473280, Note_on_c, 4, 67, 0
6, 473280, Note_on_c, 4, 55, 0
6, 473280, Note_on_c, 4, 72, 127
6, 473280, Note_on_c, 4, 60, 127
6, 473760, Note_on_c, 4, 60, 0
6, 473760, Note_on_c, 4, 72, 0
6, 474240, Note_on_c, 4, 72, 127
6, 474240, Note_on_c, 4, 60, 127
6, 474576, Note_on_c, 4, 60, 0
6, 474576, Note_on_c, 4, 72, 0
6, 474720, Note_on_c, 4, 72, 127
6, 474720, Note_on_c, 4, 60, 127
6, 474888, Note_on_c, 4, 60, 0
6, 474888, Note_on_c, 4, 72, 0
6, 475080, Note_on_c, 4, 60, 127
6, 475080, Note_on_c, 4, 72, 127
6, 475164, Note_on_c, 4, 72, 0
6, 475164, Note_on_c, 4, 60, 0
6, 475200, Note_on_c, 4, 67, 127
6, 475200, Note_on_c, 4, 55, 127
6, 475872, Note_on_c, 4, 55, 0
6, 475872, Note_on_c, 4, 67, 0
6, 476160, Note_on_c, 4, 72, 127
6, 476160, Note_on_c, 4, 60, 127
6, 476664, Note_on_c, 4, 60, 0
6, 476664, Note_on_c, 4, 72, 0
6, 477120, Note_on_c, 4, 60, 127
6, 477120, Note_on_c, 4, 72, 127
6, 477456, Note_on_c, 4, 72, 0
6, 477456, Note_on_c, 4, 60, 0
6, 477600, Note_on_c, 4, 60, 127
6, 477600, Note_on_c, 4, 72, 127
6, 477768, Note_on_c, 4, 72, 0
6, 477768, Note_on_c, 4, 60, 0
6, 477960, Note_on_c, 4, 72, 127
6, 477960, Note_on_c, 4, 60, 127
6, 478044, Note_on_c, 4, 60, 0
6, 478044, Note_on_c, 4, 72, 0
6, 478080, Note_on_c, 4, 60, 127
6, 478080, Note_on_c, 4, 72, 127
6, 478584, Note_on_c, 4, 72, 0
6, 478584, Note_on_c, 4, 60, 0
6, 479040, Note_on_c, 4, 55, 127
6, 479040, Note_on_c, 4, 67, 127
6, 479376, Note_on_c, 4, 67, 0
6, 479376, Note_on_c, 4, 55, 0
6, 479520, Note_on_c, 4, 67, 89
6, 479520, Note_on_c, 4, 74, 89
6, 479856, Note_on_c, 4, 74, 0
6, 479856, Note_on_c, 4, 67, 0
6, 480000, Note_on_c, 4, 76, 50
6, 480000, Note_on_c, 4, 67, 50
6, 480504, Note_on_c, 4, 67, 0
6, 480504, Note_on_c, 4, 76, 0
6, 480960, Note_on_c, 4, 76, 62
6, 480960, Note_on_c, 4, 72, 62
6, 481464, Note_on_c, 4, 72, 0
6, 481464, Note_on_c, 4, 76, 0
6, 481920, Note_on_c, 4, 74, 75
6, 481920, Note_on_c, 4, 72, 75
6, 482256, Note_on_c, 4, 72, 0
6, 482256, Note_on_c, 4, 74, 0
6, 482400, Note_on_c, 4, 67, 82
6, 482400, Note_on_c, 4, 74, 82
6, 482736, Note_on_c, 4, 74, 0
6, 482736, Note_on_c, 4, 67, 0
6, 482880, Note_on_c, 4, 76, 88
6, 482880, Note_on_c, 4, 67, 88
6, 483384, Note_on_c, 4, 67, 0
6, 483384, Note_on_c, 4, 76, 0
6, 483840, Note_on_c, 4, 76, 101
6, 483840, Note_on_c, 4, 72, 101
6, 484344, Note_on_c, 4, 72, 0
6, 484344, Note_on_c, 4, 76, 0
6, 484800, Note_on_c, 4, 74, 114
6, 484800, Note_on_c, 4, 72, 114
6, 485136, Note_on_c, 4, 72, 0
6, 485136, Note_on_c, 4, 74, 0
6, 485280, Note_on_c, 4, 67, 120
6, 485280, Note_on_c, 4, 74, 120
6, 485616, Note_on_c, 4, 74, 0
6, 485616, Note_on_c, 4, 67, 0
6, 485760, Note_on_c, 4, 72, 127
6, 485760, Note_on_c, 4, 64, 127
6, 486240, Note_on_c, 4, 64, 0
6, 486240, Note_on_c, 4, 72, 0
6, 489600, Note_on_c, 4, 60, 50
6, 489600, Note_on_c, 4, 67, 50
6, 490080, Note_on_c, 4, 67, 0
6, 490080, Note_on_c, 4, 60, 0
6, 490560, Note_on_c, 4, 67, 50
6, 490560, Note_on_c, 4, 55, 50
6, 491040, Note_on_c, 4, 55, 0
6, 491040, Note_on_c, 4, 67, 0
6, 491520, Note_on_c, 4, 67, 50
6, 491520, Note_on_c, 4, 60, 50
6, 491760, Note_on_c, 4, 60, 0
6, 491760, Note_on_c, 4, 67, 0
6, 492000, Note_on_c, 4, 72, 127
6, 492000, Note_on_c, 4, 60, 127
6, 492120, Note_on_c, 4, 60, 0
6, 492120, Note_on_c, 4, 72, 0
6, 492360, Note_on_c, 4, 60, 127
6, 492360, Note_on_c, 4, 72, 127
6, 492420, Note_on_c, 4, 72, 0
6, 492420, Note_on_c, 4, 60, 0
6, 492480, Note_on_c, 4, 60, 127
6, 492480, Note_on_c, 4, 72, 127
6, 492720, Note_on_c, 4, 72, 0
6, 492720, Note_on_c, 4, 60, 0
6, 492960, Note_on_c, 4, 60, 127
6, 492960, Note_on_c, 4, 72, 127
6, 493080, Note_on_c, 4, 72, 0
6, 493080, Note_on_c, 4, 60, 0
6, 493320, Note_on_c, 4, 60, 127
6, 493320, Note_on_c, 4, 72, 127
6, 493380, Note_on_c, 4, 72, 0
6, 493380, Note_on_c, 4, 60, 0
6, 493440, Note_on_c, 4, 60, 127
6, 493440, Note_on_c, 4, 72, 127
6, 493560, Note_on_c, 4, 72, 0
6, 493560, Note_on_c, 4, 60, 0
6, 493680, Note_on_c, 4, 60, 127
6, 493680, Note_on_c, 4, 72, 127
6, 493800, Note_on_c, 4, 72, 0
6, 493800, Note_on_c, 4, 60, 0
6, 493920, Note_on_c, 4, 72, 127
6, 493920, Note_on_c, 4, 60, 127
6, 494040, Note_on_c, 4, 60, 0
6, 494040, Note_on_c, 4, 72, 0
6, 494160, Note_on_c, 4, 60, 127
6, 494160, Note_on_c, 4, 72, 127
6, 494280, Note_on_c, 4, 72, 0
6, 494280, Note_on_c, 4, 60, 0
6, 494400, Note_on_c, 4, 72, 127
6, 494400, Note_on_c, 4, 60, 127
6, 494880, Note_on_c, 4, 60, 0
6, 494880, Note_on_c, 4, 72, 0
6, 522240, Note_on_c, 4, 72, 91
6, 522240, Note_on_c, 4, 60, 91
6, 522576, Note_on_c, 4, 60, 0
6, 522576, Note_on_c, 4, 72, 0
6, 522720, Note_on_c, 4, 60, 93
6, 522720, Note_on_c, 4, 72, 93
6, 522972, Note_on_c, 4, 72, 0
6, 522972, Note_on_c, 4, 60, 0
6, 523080, Note_on_c, 4, 60, 94
6, 523080, Note_on_c, 4, 72, 94
6, 523164, Note_on_c, 4, 72, 0
6, 523164, Note_on_c, 4, 60, 0
6, 523200, Note_on_c, 4, 60, 94
6, 523200, Note_on_c, 4, 72, 94
6, 523536, Note_on_c, 4, 72, 0
6, 523536, Note_on_c, 4, 60, 0
6, 523680, Note_on_c, 4, 72, 95
6, 523680, Note_on_c, 4, 60, 95
6, 524016, Note_on_c, 4, 60, 0
6, 524016, Note_on_c, 4, 72, 0
6, 524160, Note_on_c, 4, 67, 96
6, 524160, Note_on_c, 4, 55, 96
6, 524496, Note_on_c, 4, 55, 0
6, 524496, Note_on_c, 4, 67, 0
6, 524640, Note_on_c, 4, 55, 98
6, 524640, Note_on_c, 4, 67, 98
6, 524976, Note_on_c, 4, 67, 0
6, 524976, Note_on_c, 4, 55, 0
6, 525120, Note_on_c, 4, 60, 99
6, 525120, Note_on_c, 4, 67, 99
6, 525240, Note_on_c, 4, 67, 0
6, 525240, Note_on_c, 4, 60, 0
6, 525360, Note_on_c, 4, 60, 99
6, 525360, Note_on_c, 4, 72, 99
6, 525480, Note_on_c, 4, 72, 0
6, 525480, Note_on_c, 4, 60, 0
6, 525600, Note_on_c, 4, 64, 100
6, 525600, Note_on_c, 4, 76, 100
6, 525720, Note_on_c, 4, 76, 0
6, 525720, Note_on_c, 4, 64, 0
6, 525840, Note_on_c, 4, 60, 101
6, 525840, Note_on_c, 4, 72, 101
6, 525960, Note_on_c, 4, 72, 0
6, 525960, Note_on_c, 4, 60, 0
6, 526080, Note_on_c, 4, 79, 101
6, 526080, Note_on_c, 4, 67, 101
6, 526320, Note_on_c, 4, 67, 0
6, 526320, Note_on_c, 4, 79, 0
6, 526560, Note_on_c, 4, 55, 102
6, 526560, Note_on_c, 4, 67, 102
6, 526896, Note_on_c, 4, 67, 0
6, 526896, Note_on_c, 4, 55, 0
6, 527040, Note_on_c, 4, 67, 104
6, 527040, Note_on_c, 4, 55, 104
6, 527544, Note_on_c, 4, 55, 0
6, 527544, Note_on_c, 4, 67, 0
6, 528000, Note_on_c, 4, 74, 106
6, 528336, Note_on_c, 4, 74, 0
6, 528480, Note_on_c, 4, 74, 107
6, 528816, Note_on_c, 4, 74, 0
6, 528960, Note_on_c, 4, 67, 109
6, 528960, Note_on_c, 4, 74, 109
6, 529296, Note_on_c, 4, 74, 0
6, 529296, Note_on_c, 4, 67, 0
6, 529440, Note_on_c, 4, 67, 110
6, 529608, Note_on_c, 4, 67, 0
6, 529680, Note_on_c, 4, 67, 110
6, 529848, Note_on_c, 4, 67, 0
6, 529920, Note_on_c, 4, 72, 111
6, 529920, Note_on_c, 4, 64, 111
6, 530256, Note_on_c, 4, 64, 0
6, 530256, Note_on_c, 4, 72, 0
6, 530400, Note_on_c, 4, 72, 112
6, 530400, Note_on_c, 4, 76, 112
6, 530736, Note_on_c, 4, 76, 0
6, 530736, Note_on_c, 4, 72, 0
6, 530880, Note_on_c, 4, 74, 114
6, 530880, Note_on_c, 4, 72, 114
6, 531840, Note_on_c, 4, 72, 0
6, 531840, Note_on_c, 4, 74, 0
6, 531840, Note_on_c, 4, 74, 116
6, 531840, Note_on_c, 4, 67, 116
6, 532320, Note_on_c, 4, 67, 0
6, 532320, Note_on_c, 4, 74, 0
6, 532320, Note_on_c, 4, 79, 117
6, 532320, Note_on_c, 4, 67, 117
6, 532800, Note_on_c, 4, 67, 0
6, 532800, Note_on_c, 4, 79, 0
6, 532800, Note_on_c, 4, 79, 118
6, 532800, Note_on_c, 4, 67, 118
6, 533280, Note_on_c, 4, 67, 0
6, 533280, Note_on_c, 4, 79, 0
6, 533280, Note_on_c, 4, 60, 120
6, 533280, Note_on_c, 4, 72, 120
6, 533505, Note_on_c, 4, 72, 0
6, 533505, Note_on_c, 4, 60, 0
6, 533640, Note_on_c, 4, 72, 121
6, 533640, Note_on_c, 4, 60, 121
6, 533760, Note_on_c, 4, 60, 0
6, 533760, Note_on_c, 4, 72, 0
6, 533760, Note_on_c, 4, 60, 121
6, 533760, Note_on_c, 4, 72, 121
6, 534240, Note_on_c, 4, 72, 0
6, 534240, Note_on_c, 4, 60, 0
6, 534240, Note_on_c, 4, 72, 122
6, 534240, Note_on_c, 4, 60, 122
6, 534720, Note_on_c, 4, 60, 0
6, 534720, Note_on_c, 4, 72, 0
6, 534720, Note_on_c, 4, 67, 123
6, 534720, Note_on_c, 4, 55, 123
6, 535200, Note_on_c, 4, 55, 0
6, 535200, Note_on_c, 4, 67, 0
6, 535200, Note_on_c, 4, 55, 125
6, 535200, Note_on_c, 4, 67, 125
6, 535680, Note_on_c, 4, 67, 0
6, 535680, Note_on_c, 4, 55, 0
6, 535680, Note_on_c, 4, 72, 126
6, 535680, Note_on_c, 4, 60, 126
6, 535800, Note_on_c, 4, 60, 0
6, 535800, Note_on_c, 4, 72, 0
6, 535920, Note_on_c, 4, 72, 127
6, 535920, Note_on_c, 4, 60, 127
6, 536040, Note_on_c, 4, 60, 0
6, 536040, Note_on_c, 4, 72, 0
6, 536160, Note_on_c, 4, 72, 127
6, 536160, Note_on_c, 4, 60, 127
6, 536280, Note_on_c, 4, 60, 0
6, 536280, Note_on_c, 4, 72, 0
6, 536400, Note_on_c, 4, 60, 127
6, 536400, Note_on_c, 4, 72, 127
6, 536520, Note_on_c, 4, 72, 0
6, 536520, Note_on_c, 4, 60, 0
6, 536640, Note_on_c, 4, 72, 127
6, 536640, Note_on_c, 4, 60, 127
6, 537600, Note_on_c, 4, 60, 0
6, 537600, Note_on_c, 4, 72, 0
6, 537600, Note_on_c, 4, 67, 127
6, 538080, Note_on_c, 4, 67, 0
6, 538080, Note_on_c, 4, 67, 127
6, 538560, Note_on_c, 4, 67, 0
6, 538560, Note_on_c, 4, 67, 127
6, 538560, Note_on_c, 4, 60, 127
6, 538680, Note_on_c, 4, 60, 0
6, 538680, Note_on_c, 4, 67, 0
6, 538800, Note_on_c, 4, 72, 127
6, 538800, Note_on_c, 4, 60, 127
6, 538920, Note_on_c, 4, 60, 0
6, 538920, Note_on_c, 4, 72, 0
6, 539040, Note_on_c, 4, 72, 127
6, 539040, Note_on_c, 4, 60, 127
6, 539160, Note_on_c, 4, 60, 0
6, 539160, Note_on_c, 4, 72, 0
6, 539280, Note_on_c, 4, 60, 127
6, 539280, Note_on_c, 4, 72, 127
6, 539400, Note_on_c, 4, 72, 0
6, 539400, Note_on_c, 4, 60, 0
6, 539520, Note_on_c, 4, 60, 127
6, 539520, Note_on_c, 4, 72, 127
6, 540480, Note_on_c, 4, 72, 0
6, 540480, Note_on_c, 4, 60, 0
6, 540480, Note_on_c, 4, 67, 127
6, 540960, Note_on_c, 4, 67, 0
6, 540960, Note_on_c, 4, 67, 127
6, 541440, Note_on_c, 4, 67, 0
6, 541440, Note_on_c, 4, 60, 127
6, 541440, Note_on_c, 4, 64, 127
6, 541920, Note_on_c, 4, 64, 0
6, 541920, Note_on_c, 4, 60, 0
6, 547200, Note_on_c, 4, 72, 127
6, 547200, Note_on_c, 4, 60, 127
6, 547440, Note_on_c, 4, 60, 0
6, 547440, Note_on_c, 4, 72, 0
6, 547680, Note_on_c, 4, 72, 127
6, 547680, Note_on_c, 4, 60, 127
6, 547800, Note_on_c, 4, 60, 0
6, 547800, Note_on_c, 4, 72, 0
6, 547920, Note_on_c, 4, 72, 127
6, 547920, Note_on_c, 4, 60, 127
6, 548040, Note_on_c, 4, 60, 0
6, 548040, Note_on_c, 4, 72, 0
6, 548160, Note_on_c, 4, 64, 127
6, 548160, Note_on_c, 4, 76, 127
6, 548400, Note_on_c, 4, 76, 0
6, 548400, Note_on_c, 4, 64, 0
6, 548640, Note_on_c, 4, 76, 127
6, 548640, Note_on_c, 4, 64, 127
6, 548760, Note_on_c, 4, 64, 0
6, 548760, Note_on_c, 4, 76, 0
6, 548880, Note_on_c, 4, 76, 127
6, 548880, Note_on_c, 4, 64, 127
6, 549000, Note_on_c, 4, 64, 0
6, 549000, Note_on_c, 4, 76, 0
6, 549120, Note_on_c, 4, 79, 127
6, 549120, Note_on_c, 4, 67, 127
6, 549360, Note_on_c, 4, 67, 0
6, 549360, Note_on_c, 4, 79, 0
6, 549600, Note_on_c, 4, 79, 127
6, 549600, Note_on_c, 4, 67, 127
6, 549720, Note_on_c, 4, 67, 0
6, 549720, Note_on_c, 4, 79, 0
6, 549840, Note_on_c, 4, 67, 127
6, 549840, Note_on_c, 4, 79, 127
6, 549960, Note_on_c, 4, 79, 0
6, 549960, Note_on_c, 4, 67, 0
6, 550080, Note_on_c, 4, 72, 127
6, 550080, Note_on_c, 4, 60, 127
6, 550200, Note_on_c, 4, 60, 0
6, 550200, Note_on_c, 4, 72, 0
6, 550320, Note_on_c, 4, 67, 127
6, 550320, Note_on_c, 4, 55, 127
6, 550440, Note_on_c, 4, 55, 0
6, 550440, Note_on_c, 4, 67, 0
6, 550560, Note_on_c, 4, 72, 127
6, 550560, Note_on_c, 4, 60, 127
6, 550680, Note_on_c, 4, 60, 0
6, 550680, Note_on_c, 4, 72, 0
6, 550800, Note_on_c, 4, 55, 127
6, 550800, Note_on_c, 4, 67, 127
6, 550920, Note_on_c, 4, 67, 0
6, 550920, Note_on_c, 4, 55, 0
6, 551040, Note_on_c, 4, 72, 127
6, 551040, Note_on_c, 4, 60, 127
6, 551160, Note_on_c, 4, 60, 0
6, 551160, Note_on_c, 4, 72, 0
6, 551280, Note_on_c, 4, 67, 127
6, 551280, Note_on_c, 4, 55, 127
6, 551400, Note_on_c, 4, 55, 0
6, 551400, Note_on_c, 4, 67, 0
6, 551520, Note_on_c, 4, 72, 127
6, 551520, Note_on_c, 4, 60, 127
6, 551640, Note_on_c, 4, 60, 0
6, 551640, Note_on_c, 4, 72, 0
6, 551760, Note_on_c, 4, 55, 127
6, 551760, Note_on_c, 4, 67, 127
6, 551880, Note_on_c, 4, 67, 0
6, 551880, Note_on_c, 4, 55, 0
6, 552000, Note_on_c, 4, 72, 127
6, 552000, Note_on_c, 4, 60, 127
6, 552084, Note_on_c, 4, 60, 0
6, 552084, Note_on_c, 4, 72, 0
6, 552240, Note_on_c, 4, 67, 127
6, 552240, Note_on_c, 4, 64, 127
6, 552282, Note_on_c, 4, 64, 0
6, 552282, Note_on_c, 4, 67, 0
6, 552360, Note_on_c, 4, 67, 127
6, 552360, Note_on_c, 4, 64, 127
6, 552402, Note_on_c, 4, 64, 0
6, 552402, Note_on_c, 4, 67, 0
6, 552480, Note_on_c, 4, 67, 127
6, 552480, Note_on_c, 4, 64, 127
6, 552564, Note_on_c, 4, 64, 0
6, 552564, Note_on_c, 4, 67, 0
6, 552720, Note_on_c, 4, 64, 127
6, 552720, Note_on_c, 4, 67, 127
6, 552804, Note_on_c, 4, 67, 0
6, 552804, Note_on_c, 4, 64, 0
6, 552960, Note_on_c, 4, 67, 127
6, 552960, Note_on_c, 4, 64, 127
6, 553044, Note_on_c, 4, 64, 0
6, 553044, Note_on_c, 4, 67, 0
6, 553200, Note_on_c, 4, 72, 127
6, 553200, Note_on_c, 4, 67, 127
6, 553284, Note_on_c, 4, 67, 0
6, 553284, Note_on_c, 4, 72, 0
6, 553440, Note_on_c, 4, 67, 127
6, 553440, Note_on_c, 4, 64, 127
6, 553524, Note_on_c, 4, 64, 0
6, 553524, Note_on_c, 4, 67, 0
6, 553680, Note_on_c, 4, 67, 127
6, 553680, Note_on_c, 4, 72, 127
6, 553764, Note_on_c, 4, 72, 0
6, 553764, Note_on_c, 4, 67, 0
6, 553920, Note_on_c, 4, 64, 127
6, 553920, Note_on_c, 4, 67, 127
6, 554004, Note_on_c, 4, 67, 0
6, 554004, Note_on_c, 4, 64, 0
6, 554160, Note_on_c, 4, 64, 127
6, 554160, Note_on_c, 4, 60, 127
6, 554202, Note_on_c, 4, 60, 0
6, 554202, Note_on_c, 4, 64, 0
6, 554280, Note_on_c, 4, 64, 127
6, 554280, Note_on_c, 4, 60, 127
6, 554322, Note_on_c, 4, 60, 0
6, 554322, Note_on_c, 4, 64, 0
6, 554400, Note_on_c, 4, 60, 127
6, 554400, Note_on_c, 4, 64, 127
6, 554484, Note_on_c, 4, 64, 0
6, 554484, Note_on_c, 4, 60, 0
6, 554640, Note_on_c, 4, 64, 127
6, 554640, Note_on_c, 4, 60, 127
6, 554724, Note_on_c, 4, 60, 0
6, 554724, Note_on_c, 4, 64, 0
6, 554880, Note_on_c, 4, 64, 127
6, 554880, Note_on_c, 4, 60, 127
6, 554964, Note_on_c, 4, 60, 0
6, 554964, Note_on_c, 4, 64, 0
6, 555120, Note_on_c, 4, 64, 127
6, 555120, Note_on_c, 4, 67, 127
6, 555204, Note_on_c, 4, 67, 0
6, 555204, Note_on_c, 4, 64, 0
6, 555360, Note_on_c, 4, 60, 127
6, 555360, Note_on_c, 4, 64, 127
6, 555444, Note_on_c, 4, 64, 0
6, 555444, Note_on_c, 4, 60, 0
6, 555600, Note_on_c, 4, 67, 127
6, 555600, Note_on_c, 4, 64, 127
6, 555684, Note_on_c, 4, 64, 0
6, 555684, Note_on_c, 4, 67, 0
6, 555840, Note_on_c, 4, 64, 127
6, 555840, Note_on_c, 4, 60, 127
6, 556320, Note_on_c, 4, 60, 0
6, 556320, Note_on_c, 4, 64, 0
6, 556320, End_track
7, 0, Start_track
7, 0, Title_t, "Timpani"
7, 0, Program_c, 5, 47
7, 0, Control_c, 5, 7, 127
7, 0, Control_c, 5, 10, 64
7, 7680, Note_on_c, 5, 48, 100
7, 8160, Note_on_c, 5, 48, 0
7, 8640, Note_on_c, 5, 43, 100
7, 9120, Note_on_c, 5, 43, 0
7, 9600, Note_on_c, 5, 43, 100
7, 10080, Note_on_c, 5, 43, 0
7, 10560, Note_on_c, 5, 48, 100
7, 11040, Note_on_c, 5, 48, 0
7, 11760, Note_on_c, 5, 48, 127
7, 11880, Note_on_c, 5, 48, 0
7, 12000, Note_on_c, 5, 48, 127
7, 12120, Note_on_c, 5, 48, 0
7, 12240, Note_on_c, 5, 48, 127
7, 12360, Note_on_c, 5, 48, 0
7, 12480, Note_on_c, 5, 48, 127
7, 12960, Note_on_c, 5, 48, 0
7, 13440, Note_on_c, 5, 43, 127
7, 13920, Note_on_c, 5, 43, 0
7, 13920, Note_on_c, 5, 43, 127
7, 14400, Note_on_c, 5, 43, 0
7, 14400, Note_on_c, 5, 48, 127
7, 14640, Note_on_c, 5, 48, 0
7, 14640, Note_on_c, 5, 48, 127
7, 14880, Note_on_c, 5, 48, 0
7, 14880, Note_on_c, 5, 48, 127
7, 15120, Note_on_c, 5, 48, 0
7, 15120, Note_on_c, 5, 48, 127
7, 15360, Note_on_c, 5, 48, 0
7, 15360, Note_on_c, 5, 48, 127
7, 15840, Note_on_c, 5, 48, 0
7, 16320, Note_on_c, 5, 43, 127
7, 16800, Note_on_c, 5, 43, 0
7, 16800, Note_on_c, 5, 43, 127
7, 17280, Note_on_c, 5, 43, 0
7, 17280, Note_on_c, 5, 48, 127
7, 17760, Note_on_c, 5, 48, 0
7, 23040, Note_on_c, 5, 48, 127
7, 23520, Note_on_c, 5, 48, 0
7, 23520, Note_on_c, 5, 48, 127
7, 23880, Note_on_c, 5, 48, 0
7, 23880, Note_on_c, 5, 48, 127
7, 24000, Note_on_c, 5, 48, 0
7, 24000, Note_on_c, 5, 48, 127
7, 24480, Note_on_c, 5, 48, 0
7, 24480, Note_on_c, 5, 48, 127
7, 24960, Note_on_c, 5, 48, 0
7, 24960, Note_on_c, 5, 43, 127
7, 25440, Note_on_c, 5, 43, 0
7, 25440, Note_on_c, 5, 43, 127
7, 25920, Note_on_c, 5, 43, 0
7, 25920, Note_on_c, 5, 48, 127
7, 26160, Note_on_c, 5, 48, 0
7, 26160, Note_on_c, 5, 43, 127
7, 26400, Note_on_c, 5, 43, 0
7, 26400, Note_on_c, 5, 48, 127
7, 26640, Note_on_c, 5, 48, 0
7, 26640, Note_on_c, 5, 43, 127
7, 26880, Note_on_c, 5, 43, 0
7, 26880, Note_on_c, 5, 48, 127
7, 27120, Note_on_c, 5, 48, 0
7, 27120, Note_on_c, 5, 43, 127
7, 27360, Note_on_c, 5, 43, 0
7, 27360, Note_on_c, 5, 48, 127
7, 27600, Note_on_c, 5, 48, 0
7, 27600, Note_on_c, 5, 43, 127
7, 27840, Note_on_c, 5, 43, 0
7, 27840, Note_on_c, 5, 48, 127
7, 28320, Note_on_c, 5, 48, 0
7, 28320, Note_on_c, 5, 48, 127
7, 28680, Note_on_c, 5, 48, 0
7, 28680, Note_on_c, 5, 48, 127
7, 28800, Note_on_c, 5, 48, 0
7, 28800, Note_on_c, 5, 48, 127
7, 29040, Note_on_c, 5, 48, 0
7, 29040, Note_on_c, 5, 43, 127
7, 29280, Note_on_c, 5, 43, 0
7, 29280, Note_on_c, 5, 48, 127
7, 29520, Note_on_c, 5, 48, 0
7, 29520, Note_on_c, 5, 48, 127
7, 29760, Note_on_c, 5, 48, 0
7, 29760, Note_on_c, 5, 43, 127
7, 30240, Note_on_c, 5, 43, 0
7, 30720, Note_on_c, 5, 43, 127
7, 31200, Note_on_c, 5, 43, 0
7, 31680, Note_on_c, 5, 43, 127
7, 32160, Note_on_c, 5, 43, 0
7, 32160, Note_on_c, 5, 43, 127
7, 32640, Note_on_c, 5, 43, 0
7, 32640, Note_on_c, 5, 43, 127
7, 33120, Note_on_c, 5, 43, 0
7, 49920, Note_on_c, 5, 48, 100
7, 50400, Note_on_c, 5, 48, 0
7, 50880, Note_on_c, 5, 48, 100
7, 51360, Note_on_c, 5, 48, 0
7, 51840, Note_on_c, 5, 43, 100
7, 52320, Note_on_c, 5, 43, 0
7, 52800, Note_on_c, 5, 48, 100
7, 53280, Note_on_c, 5, 48, 0
7, 89760, Note_on_c, 5, 43, 127
7, 90240, Note_on_c, 5, 43, 0
7, 90240, Note_on_c, 5, 48, 127
7, 90720, Note_on_c, 5, 48, 0
7, 94080, Note_on_c, 5, 43, 127
7, 94560, Note_on_c, 5, 43, 0
7, 101760, Note_on_c, 5, 48, 127
7, 102240, Note_on_c, 5, 48, 0
7, 104160, Note_on_c, 5, 43, 127
7, 104640, Note_on_c, 5, 43, 0
7, 104640, Note_on_c, 5, 48, 127
7, 105120, Note_on_c, 5, 48, 0
7, 105600, Note_on_c, 5, 48, 127
7, 106080, Note_on_c, 5, 48, 0
7, 106560, Note_on_c, 5, 48, 127
7, 107040, Note_on_c, 5, 48, 0
7, 107520, Note_on_c, 5, 48, 127
7, 108000, Note_on_c, 5, 48, 0
7, 109440, Note_on_c, 5, 43, 127
7, 109920, Note_on_c, 5, 43, 0
7, 109920, Note_on_c, 5, 43, 127
7, 110400, Note_on_c, 5, 43, 0
7, 110400, Note_on_c, 5, 43, 127
7, 110880, Note_on_c, 5, 43, 0
7, 111360, Note_on_c, 5, 43, 127
7, 111840, Note_on_c, 5, 43, 0
7, 111840, Note_on_c, 5, 43, 127
7, 112320, Note_on_c, 5, 43, 0
7, 112320, Note_on_c, 5, 43, 127
7, 112800, Note_on_c, 5, 43, 0
7, 113280, Note_on_c, 5, 43, 127
7, 113760, Note_on_c, 5, 43, 0
7, 113760, Note_on_c, 5, 43, 127
7, 114240, Note_on_c, 5, 43, 0
7, 114240, Note_on_c, 5, 43, 127
7, 114720, Note_on_c, 5, 43, 0
7, 117120, Note_on_c, 5, 43, 127
7, 117600, Note_on_c, 5, 43, 0
7, 117600, Note_on_c, 5, 43, 127
7, 118080, Note_on_c, 5, 43, 0
7, 118080, Note_on_c, 5, 43, 127
7, 118560, Note_on_c, 5, 43, 0
7, 119040, Note_on_c, 5, 43, 127
7, 119520, Note_on_c, 5, 43, 0
7, 119520, Note_on_c, 5, 43, 127
7, 120000, Note_on_c, 5, 43, 0
7, 120000, Note_on_c, 5, 43, 127
7, 120480, Note_on_c, 5, 43, 0
7, 120720, Note_on_c, 5, 43, 127
7, 120960, Note_on_c, 5, 43, 0
7, 120960, Note_on_c, 5, 48, 127
7, 121200, Note_on_c, 5, 48, 0
7, 121200, Note_on_c, 5, 48, 127
7, 121440, Note_on_c, 5, 48, 0
7, 121440, Note_on_c, 5, 48, 127
7, 121680, Note_on_c, 5, 48, 0
7, 121680, Note_on_c, 5, 48, 127
7, 121920, Note_on_c, 5, 48, 0
7, 121920, Note_on_c, 5, 48, 127
7, 122640, Note_on_c, 5, 48, 0
7, 122640, Note_on_c, 5, 43, 127
7, 122880, Note_on_c, 5, 43, 0
7, 122880, Note_on_c, 5, 48, 127
7, 123120, Note_on_c, 5, 48, 0
7, 123120, Note_on_c, 5, 43, 127
7, 123360, Note_on_c, 5, 43, 0
7, 123360, Note_on_c, 5, 48, 127
7, 123600, Note_on_c, 5, 48, 0
7, 123600, Note_on_c, 5, 43, 127
7, 123840, Note_on_c, 5, 43, 0
7, 123840, Note_on_c, 5, 48, 127
7, 124560, Note_on_c, 5, 48, 0
7, 124560, Note_on_c, 5, 43, 127
7, 124800, Note_on_c, 5, 43, 0
7, 124800, Note_on_c, 5, 48, 127
7, 125040, Note_on_c, 5, 48, 0
7, 125040, Note_on_c, 5, 43, 127
7, 125280, Note_on_c, 5, 43, 0
7, 125280, Note_on_c, 5, 48, 127
7, 125520, Note_on_c, 5, 48, 0
7, 125520, Note_on_c, 5, 43, 127
7, 125760, Note_on_c, 5, 43, 0
7, 128640, Note_on_c, 5, 43, 127
7, 129120, Note_on_c, 5, 43, 0
7, 129600, Note_on_c, 5, 43, 127
7, 130080, Note_on_c, 5, 43, 0
7, 131520, Note_on_c, 5, 43, 127
7, 132000, Note_on_c, 5, 43, 0
7, 132480, Note_on_c, 5, 48, 127
7, 132960, Note_on_c, 5, 48, 0
7, 134400, Note_on_c, 5, 43, 127
7, 134880, Note_on_c, 5, 43, 0
7, 135360, Note_on_c, 5, 43, 127
7, 135840, Note_on_c, 5, 43, 0
7, 136320, Note_on_c, 5, 48, 127
7, 136800, Note_on_c, 5, 48, 0
7, 138240, Note_on_c, 5, 43, 127
7, 138720, Note_on_c, 5, 43, 0
7, 139200, Note_on_c, 5, 43, 127
7, 139704, Note_on_c, 5, 43, 0
7, 141120, Note_on_c, 5, 43, 127
7, 141624, Note_on_c, 5, 43, 0
7, 142080, Note_on_c, 5, 43, 127
7, 142584, Note_on_c, 5, 43, 0
7, 144000, Note_on_c, 5, 43, 127
7, 144504, Note_on_c, 5, 43, 0
7, 158400, Note_on_c, 5, 48, 100
7, 158880, Note_on_c, 5, 48, 0
7, 159360, Note_on_c, 5, 43, 106
7, 159840, Note_on_c, 5, 43, 0
7, 160320, Note_on_c, 5, 43, 113
7, 160800, Note_on_c, 5, 43, 0
7, 161280, Note_on_c, 5, 48, 120
7, 161760, Note_on_c, 5, 48, 0
7, 162480, Note_on_c, 5, 48, 127
7, 162600, Note_on_c, 5, 48, 0
7, 162720, Note_on_c, 5, 48, 127
7, 162840, Note_on_c, 5, 48, 0
7, 162960, Note_on_c, 5, 48, 127
7, 163080, Note_on_c, 5, 48, 0
7, 163200, Note_on_c, 5, 48, 127
7, 163680, Note_on_c, 5, 48, 0
7, 164160, Note_on_c, 5, 43, 127
7, 164640, Note_on_c, 5, 43, 0
7, 164640, Note_on_c, 5, 43, 127
7, 165120, Note_on_c, 5, 43, 0
7, 165120, Note_on_c, 5, 48, 127
7, 165360, Note_on_c, 5, 48, 0
7, 165360, Note_on_c, 5, 48, 127
7, 165600, Note_on_c, 5, 48, 0
7, 165600, Note_on_c, 5, 48, 127
7, 165840, Note_on_c, 5, 48, 0
7, 165840, Note_on_c, 5, 48, 127
7, 166080, Note_on_c, 5, 48, 0
7, 166080, Note_on_c, 5, 48, 127
7, 166560, Note_on_c, 5, 48, 0
7, 167040, Note_on_c, 5, 43, 127
7, 167520, Note_on_c, 5, 43, 0
7, 167520, Note_on_c, 5, 43, 127
7, 168000, Note_on_c, 5, 43, 0
7, 168000, Note_on_c, 5, 48, 127
7, 168480, Note_on_c, 5, 48, 0
7, 173760, Note_on_c, 5, 48, 127
7, 174240, Note_on_c, 5, 48, 0
7, 174240, Note_on_c, 5, 48, 127
7, 174600, Note_on_c, 5, 48, 0
7, 174600, Note_on_c, 5, 48, 127
7, 174720, Note_on_c, 5, 48, 0
7, 174720, Note_on_c, 5, 48, 127
7, 175200, Note_on_c, 5, 48, 0
7, 175200, Note_on_c, 5, 48, 127
7, 175680, Note_on_c, 5, 48, 0
7, 175680, Note_on_c, 5, 43, 127
7, 176160, Note_on_c, 5, 43, 0
7, 176160, Note_on_c, 5, 43, 127
7, 176640, Note_on_c, 5, 43, 0
7, 176640, Note_on_c, 5, 48, 127
7, 176880, Note_on_c, 5, 48, 0
7, 176880, Note_on_c, 5, 43, 127
7, 177120, Note_on_c, 5, 43, 0
7, 177120, Note_on_c, 5, 48, 127
7, 177360, Note_on_c, 5, 48, 0
7, 177360, Note_on_c, 5, 43, 127
7, 177600, Note_on_c, 5, 43, 0
7, 177600, Note_on_c, 5, 48, 127
7, 177840, Note_on_c, 5, 48, 0
7, 177840, Note_on_c, 5, 43, 127
7, 178080, Note_on_c, 5, 43, 0
7, 178080, Note_on_c, 5, 48, 127
7, 178320, Note_on_c, 5, 48, 0
7, 178320, Note_on_c, 5, 43, 127
7, 178560, Note_on_c, 5, 43, 0
7, 178560, Note_on_c, 5, 48, 127
7, 179040, Note_on_c, 5, 48, 0
7, 179040, Note_on_c, 5, 48, 127
7, 179400, Note_on_c, 5, 48, 0
7, 179400, Note_on_c, 5, 48, 127
7, 179520, Note_on_c, 5, 48, 0
7, 179520, Note_on_c, 5, 48, 127
7, 179760, Note_on_c, 5, 48, 0
7, 179760, Note_on_c, 5, 43, 127
7, 180000, Note_on_c, 5, 43, 0
7, 180000, Note_on_c, 5, 48, 127
7, 180240, Note_on_c, 5, 48, 0
7, 180240, Note_on_c, 5, 48, 127
7, 180480, Note_on_c, 5, 48, 0
7, 180480, Note_on_c, 5, 43, 127
7, 180960, Note_on_c, 5, 43, 0
7, 181440, Note_on_c, 5, 43, 127
7, 181920, Note_on_c, 5, 43, 0
7, 182400, Note_on_c, 5, 43, 127
7, 182880, Note_on_c, 5, 43, 0
7, 182880, Note_on_c, 5, 43, 127
7, 183360, Note_on_c, 5, 43, 0
7, 183360, Note_on_c, 5, 43, 127
7, 183840, Note_on_c, 5, 43, 0
7, 200640, Note_on_c, 5, 48, 127
7, 201120, Note_on_c, 5, 48, 0
7, 201600, Note_on_c, 5, 48, 127
7, 202080, Note_on_c, 5, 48, 0
7, 202560, Note_on_c, 5, 43, 127
7, 203040, Note_on_c, 5, 43, 0
7, 203520, Note_on_c, 5, 48, 127
7, 204000, Note_on_c, 5, 48, 0
7, 240480, Note_on_c, 5, 43, 100
7, 240960, Note_on_c, 5, 43, 0
7, 240960, Note_on_c, 5, 48, 100
7, 241440, Note_on_c, 5, 48, 0
7, 244800, Note_on_c, 5, 43, 100
7, 245280, Note_on_c, 5, 43, 0
7, 252480, Note_on_c, 5, 48, 100
7, 252960, Note_on_c, 5, 48, 0
7, 254880, Note_on_c, 5, 43, 100
7, 255360, Note_on_c, 5, 43, 0
7, 255360, Note_on_c, 5, 48, 100
7, 255840, Note_on_c, 5, 48, 0
7, 256320, Note_on_c, 5, 48, 100
7, 256800, Note_on_c, 5, 48, 0
7, 257280, Note_on_c, 5, 48, 100
7, 257760, Note_on_c, 5, 48, 0
7, 258240, Note_on_c, 5, 48, 100
7, 258720, Note_on_c, 5, 48, 0
7, 260160, Note_on_c, 5, 43, 100
7, 260640, Note_on_c, 5, 43, 0
7, 260640, Note_on_c, 5, 43, 100
7, 261120, Note_on_c, 5, 43, 0
7, 261120, Note_on_c, 5, 43, 100
7, 261600, Note_on_c, 5, 43, 0
7, 262080, Note_on_c, 5, 43, 100
7, 262560, Note_on_c, 5, 43, 0
7, 262560, Note_on_c, 5, 43, 100
7, 263040, Note_on_c, 5, 43, 0
7, 263040, Note_on_c, 5, 43, 100
7, 263520, Note_on_c, 5, 43, 0
7, 264000, Note_on_c, 5, 43, 100
7, 264480, Note_on_c, 5, 43, 0
7, 264480, Note_on_c, 5, 43, 100
7, 264960, Note_on_c, 5, 43, 0
7, 264960, Note_on_c, 5, 43, 100
7, 265440, Note_on_c, 5, 43, 0
7, 267840, Note_on_c, 5, 43, 100
7, 268320, Note_on_c, 5, 43, 0
7, 268320, Note_on_c, 5, 43, 100
7, 268800, Note_on_c, 5, 43, 0
7, 268800, Note_on_c, 5, 43, 100
7, 269280, Note_on_c, 5, 43, 0
7, 269760, Note_on_c, 5, 43, 100
7, 270240, Note_on_c, 5, 43, 0
7, 270240, Note_on_c, 5, 43, 100
7, 270720, Note_on_c, 5, 43, 0
7, 270720, Note_on_c, 5, 43, 100
7, 271200, Note_on_c, 5, 43, 0
7, 271440, Note_on_c, 5, 43, 100
7, 271680, Note_on_c, 5, 43, 0
7, 271680, Note_on_c, 5, 48, 100
7, 271920, Note_on_c, 5, 48, 0
7, 271920, Note_on_c, 5, 48, 100
7, 272160, Note_on_c, 5, 48, 0
7, 272160, Note_on_c, 5, 48, 100
7, 272400, Note_on_c, 5, 48, 0
7, 272400, Note_on_c, 5, 48, 100
7, 272640, Note_on_c, 5, 48, 0
7, 272640, Note_on_c, 5, 48, 100
7, 273360, Note_on_c, 5, 48, 0
7, 273360, Note_on_c, 5, 43, 100
7, 273600, Note_on_c, 5, 43, 0
7, 273600, Note_on_c, 5, 48, 100
7, 273840, Note_on_c, 5, 48, 0
7, 273840, Note_on_c, 5, 43, 100
7, 274080, Note_on_c, 5, 43, 0
7, 274080, Note_on_c, 5, 48, 100
7, 274320, Note_on_c, 5, 48, 0
7, 274320, Note_on_c, 5, 43, 100
7, 274560, Note_on_c, 5, 43, 0
7, 274560, Note_on_c, 5, 48, 100
7, 275280, Note_on_c, 5, 48, 0
7, 275280, Note_on_c, 5, 43, 100
7, 275520, Note_on_c, 5, 43, 0
7, 275520, Note_on_c, 5, 48, 100
7, 275760, Note_on_c, 5, 48, 0
7, 275760, Note_on_c, 5, 43, 100
7, 276000, Note_on_c, 5, 43, 0
7, 276000, Note_on_c, 5, 48, 100
7, 276240, Note_on_c, 5, 48, 0
7, 276240, Note_on_c, 5, 43, 100
7, 276480, Note_on_c, 5, 43, 0
7, 279360, Note_on_c, 5, 43, 100
7, 279840, Note_on_c, 5, 43, 0
7, 280320, Note_on_c, 5, 43, 100
7, 280800, Note_on_c, 5, 43, 0
7, 282240, Note_on_c, 5, 43, 100
7, 282720, Note_on_c, 5, 43, 0
7, 283200, Note_on_c, 5, 48, 100
7, 283680, Note_on_c, 5, 48, 0
7, 285120, Note_on_c, 5, 43, 100
7, 285600, Note_on_c, 5, 43, 0
7, 286080, Note_on_c, 5, 43, 100
7, 286560, Note_on_c, 5, 43, 0
7, 287040, Note_on_c, 5, 48, 100
7, 287520, Note_on_c, 5, 48, 0
7, 288960, Note_on_c, 5, 43, 100
7, 289440, Note_on_c, 5, 43, 0
7, 289920, Note_on_c, 5, 43, 100
7, 290424, Note_on_c, 5, 43, 0
7, 291840, Note_on_c, 5, 43, 100
7, 292344, Note_on_c, 5, 43, 0
7, 292800, Note_on_c, 5, 43, 100
7, 293304, Note_on_c, 5, 43, 0
7, 294720, Note_on_c, 5, 43, 100
7, 295224, Note_on_c, 5, 43, 0
7, 315360, Note_on_c, 5, 48, 127
7, 315720, Note_on_c, 5, 48, 0
7, 315720, Note_on_c, 5, 48, 127
7, 315840, Note_on_c, 5, 48, 0
7, 315840, Note_on_c, 5, 48, 127
7, 316320, Note_on_c, 5, 48, 0
7, 322080, Note_on_c, 5, 43, 127
7, 322440, Note_on_c, 5, 43, 0
7, 322440, Note_on_c, 5, 43, 127
7, 322560, Note_on_c, 5, 43, 0
7, 322560, Note_on_c, 5, 43, 127
7, 323040, Note_on_c, 5, 43, 0
7, 325440, Note_on_c, 5, 48, 127
7, 325800, Note_on_c, 5, 48, 0
7, 325800, Note_on_c, 5, 48, 127
7, 325920, Note_on_c, 5, 48, 0
7, 325920, Note_on_c, 5, 48, 127
7, 326400, Note_on_c, 5, 48, 0
7, 328800, Note_on_c, 5, 48, 127
7, 329160, Note_on_c, 5, 48, 0
7, 329160, Note_on_c, 5, 48, 127
7, 329280, Note_on_c, 5, 48, 0
7, 329280, Note_on_c, 5, 48, 127
7, 329760, Note_on_c, 5, 48, 0
7, 334080, Note_on_c, 5, 48, 100
7, 334440, Note_on_c, 5, 48, 0
7, 334440, Note_on_c, 5, 48, 100
7, 334560, Note_on_c, 5, 48, 0
7, 334560, Note_on_c, 5, 48, 100
7, 335040, Note_on_c, 5, 48, 0
7, 338400, Note_on_c, 5, 43, 64
7, 338760, Note_on_c, 5, 43, 0
7, 338760, Note_on_c, 5, 43, 64
7, 338880, Note_on_c, 5, 43, 0
7, 338880, Note_on_c, 5, 43, 64
7, 339360, Note_on_c, 5, 43, 0
7, 363840, Note_on_c, 5, 43, 50
7, 363960, Note_on_c, 5, 43, 0
7, 363960, Note_on_c, 5, 43, 50
7, 364080, Note_on_c, 5, 43, 0
7, 364080, Note_on_c, 5, 43, 50
7, 364200, Note_on_c, 5, 43, 0
7, 364200, Note_on_c, 5, 43, 50
7, 364320, Note_on_c, 5, 43, 0
7, 364320, Note_on_c, 5, 43, 50
7, 364440, Note_on_c, 5, 43, 0
7, 364440, Note_on_c, 5, 43, 50
7, 364560, Note_on_c, 5, 43, 0
7, 364560, Note_on_c, 5, 43, 50
7, 364680, Note_on_c, 5, 43, 0
7, 364680, Note_on_c, 5, 43, 50
7, 364800, Note_on_c, 5, 43, 0
7, 364800, Note_on_c, 5, 43, 50
7, 364920, Note_on_c, 5, 43, 0
7, 364920, Note_on_c, 5, 43, 50
7, 365040, Note_on_c, 5, 43, 0
7, 365040, Note_on_c, 5, 43, 50
7, 365160, Note_on_c, 5, 43, 0
7, 365160, Note_on_c, 5, 43, 50
7, 365280, Note_on_c, 5, 43, 0
7, 365280, Note_on_c, 5, 43, 50
7, 365400, Note_on_c, 5, 43, 0
7, 365400, Note_on_c, 5, 43, 50
7, 365520, Note_on_c, 5, 43, 0
7, 365520, Note_on_c, 5, 43, 50
7, 365640, Note_on_c, 5, 43, 0
7, 365640, Note_on_c, 5, 43, 50
7, 365760, Note_on_c, 5, 43, 0
7, 365760, Note_on_c, 5, 48, 50
7, 366240, Note_on_c, 5, 48, 0
7, 367680, Note_on_c, 5, 43, 50
7, 368160, Note_on_c, 5, 43, 0
7, 368640, Note_on_c, 5, 48, 50
7, 369120, Note_on_c, 5, 48, 0
7, 369600, Note_on_c, 5, 48, 50
7, 370080, Note_on_c, 5, 48, 0
7, 370560, Note_on_c, 5, 48, 50
7, 371040, Note_on_c, 5, 48, 0
7, 371520, Note_on_c, 5, 43, 50
7, 371760, Note_on_c, 5, 43, 0
7, 372000, Note_on_c, 5, 48, 50
7, 372240, Note_on_c, 5, 48, 0
7, 372480, Note_on_c, 5, 43, 50
7, 372960, Note_on_c, 5, 43, 0
7, 373440, Note_on_c, 5, 48, 127
7, 373920, Note_on_c, 5, 48, 0
7, 374400, Note_on_c, 5, 43, 127
7, 374880, Note_on_c, 5, 43, 0
7, 375360, Note_on_c, 5, 43, 127
7, 375840, Note_on_c, 5, 43, 0
7, 376320, Note_on_c, 5, 43, 127
7, 376800, Note_on_c, 5, 43, 0
7, 392640, Note_on_c, 5, 48, 127
7, 393120, Note_on_c, 5, 48, 0
7, 393120, Note_on_c, 5, 48, 127
7, 393480, Note_on_c, 5, 48, 0
7, 393480, Note_on_c, 5, 48, 127
7, 393600, Note_on_c, 5, 48, 0
7, 393600, Note_on_c, 5, 48, 127
7, 394080, Note_on_c, 5, 48, 0
7, 398400, Note_on_c, 5, 43, 127
7, 398880, Note_on_c, 5, 43, 0
7, 399360, Note_on_c, 5, 48, 127
7, 399840, Note_on_c, 5, 48, 0
7, 400320, Note_on_c, 5, 48, 127
7, 400800, Note_on_c, 5, 48, 0
7, 400800, Note_on_c, 5, 48, 127
7, 401280, Note_on_c, 5, 48, 0
7, 401280, Note_on_c, 5, 43, 127
7, 401760, Note_on_c, 5, 43, 0
7, 403200, Note_on_c, 5, 43, 127
7, 403680, Note_on_c, 5, 43, 0
7, 403680, Note_on_c, 5, 43, 127
7, 404040, Note_on_c, 5, 43, 0
7, 404040, Note_on_c, 5, 43, 127
7, 404160, Note_on_c, 5, 43, 0
7, 404160, Note_on_c, 5, 43, 127
7, 404640, Note_on_c, 5, 43, 0
7, 406080, Note_on_c, 5, 43, 127
7, 406560, Note_on_c, 5, 43, 0
7, 406560, Note_on_c, 5, 43, 127
7, 406920, Note_on_c, 5, 43, 0
7, 406920, Note_on_c, 5, 43, 127
7, 407040, Note_on_c, 5, 43, 0
7, 407040, Note_on_c, 5, 43, 127
7, 407520, Note_on_c, 5, 43, 0
7, 408000, Note_on_c, 5, 43, 127
7, 408480, Note_on_c, 5, 43, 0
7, 408480, Note_on_c, 5, 43, 127
7, 408960, Note_on_c, 5, 43, 0
7, 408960, Note_on_c, 5, 43, 127
7, 409200, Note_on_c, 5, 43, 0
7, 409200, Note_on_c, 5, 43, 127
7, 409440, Note_on_c, 5, 43, 0
7, 409440, Note_on_c, 5, 43, 127
7, 409680, Note_on_c, 5, 43, 0
7, 409680, Note_on_c, 5, 43, 127
7, 409920, Note_on_c, 5, 43, 0
7, 409920, Note_on_c, 5, 43, 127
7, 410400, Note_on_c, 5, 43, 0
7, 422400, Note_on_c, 5, 43, 50
7, 422880, Note_on_c, 5, 43, 0
7, 424320, Note_on_c, 5, 43, 50
7, 424800, Note_on_c, 5, 43, 0
7, 426240, Note_on_c, 5, 43, 50
7, 426720, Note_on_c, 5, 43, 0
7, 428160, Note_on_c, 5, 43, 50
7, 428640, Note_on_c, 5, 43, 0
7, 430080, Note_on_c, 5, 48, 50
7, 430416, Note_on_c, 5, 48, 0
7, 430560, Note_on_c, 5, 48, 127
7, 430896, Note_on_c, 5, 48, 0
7, 431040, Note_on_c, 5, 48, 127
7, 431544, Note_on_c, 5, 48, 0
7, 432480, Note_on_c, 5, 43, 127
7, 432816, Note_on_c, 5, 43, 0
7, 432960, Note_on_c, 5, 48, 127
7, 433296, Note_on_c, 5, 48, 0
7, 433440, Note_on_c, 5, 48, 127
7, 433776, Note_on_c, 5, 48, 0
7, 434400, Note_on_c, 5, 43, 127
7, 434736, Note_on_c, 5, 43, 0
7, 434880, Note_on_c, 5, 48, 127
7, 435384, Note_on_c, 5, 48, 0
7, 438240, Note_on_c, 5, 48, 127
7, 438576, Note_on_c, 5, 48, 0
7, 438720, Note_on_c, 5, 48, 127
7, 439224, Note_on_c, 5, 48, 0
7, 442080, Note_on_c, 5, 48, 127
7, 442416, Note_on_c, 5, 48, 0
7, 442560, Note_on_c, 5, 48, 127
7, 443064, Note_on_c, 5, 48, 0
7, 444960, Note_on_c, 5, 48, 127
7, 445440, Note_on_c, 5, 48, 0
7, 445440, Note_on_c, 5, 48, 127
7, 445920, Note_on_c, 5, 48, 0
7, 449280, Note_on_c, 5, 43, 127
7, 449760, Note_on_c, 5, 43, 0
7, 449760, Note_on_c, 5, 43, 127
7, 450240, Note_on_c, 5, 43, 0
7, 450240, Note_on_c, 5, 48, 127
7, 450720, Note_on_c, 5, 48, 0
7, 450720, Note_on_c, 5, 48, 127
7, 451200, Note_on_c, 5, 48, 0
7, 451200, Note_on_c, 5, 48, 127
7, 451680, Note_on_c, 5, 48, 0
7, 452160, Note_on_c, 5, 48, 127
7, 452640, Note_on_c, 5, 48, 0
7, 452640, Note_on_c, 5, 48, 127
7, 453120, Note_on_c, 5, 48, 0
7, 453120, Note_on_c, 5, 48, 127
7, 453600, Note_on_c, 5, 48, 0
7, 454080, Note_on_c, 5, 48, 127
7, 454560, Note_on_c, 5, 48, 0
7, 454560, Note_on_c, 5, 48, 127
7, 455040, Note_on_c, 5, 48, 0
7, 455040, Note_on_c, 5, 48, 127
7, 455520, Note_on_c, 5, 48, 0
7, 455520, Note_on_c, 5, 48, 127
7, 455760, Note_on_c, 5, 48, 0
7, 455760, Note_on_c, 5, 48, 127
7, 456000, Note_on_c, 5, 48, 0
7, 456000, Note_on_c, 5, 43, 127
7, 456480, Note_on_c, 5, 43, 0
7, 456480, Note_on_c, 5, 43, 127
7, 456840, Note_on_c, 5, 43, 0
7, 456840, Note_on_c, 5, 43, 127
7, 456960, Note_on_c, 5, 43, 0
7, 456960, Note_on_c, 5, 43, 127
7, 457440, Note_on_c, 5, 43, 0
7, 457440, Note_on_c, 5, 43, 127
7, 457920, Note_on_c, 5, 43, 0
7, 457920, Note_on_c, 5, 48, 127
7, 458160, Note_on_c, 5, 48, 0
7, 458160, Note_on_c, 5, 48, 127
7, 458400, Note_on_c, 5, 48, 0
7, 458400, Note_on_c, 5, 48, 127
7, 458640, Note_on_c, 5, 48, 0
7, 458640, Note_on_c, 5, 48, 127
7, 458880, Note_on_c, 5, 48, 0
7, 458880, Note_on_c, 5, 48, 127
7, 459360, Note_on_c, 5, 48, 0
7, 459840, Note_on_c, 5, 48, 127
7, 460080, Note_on_c, 5, 48, 0
7, 460080, Note_on_c, 5, 48, 127
7, 460320, Note_on_c, 5, 48, 0
7, 460320, Note_on_c, 5, 48, 127
7, 460560, Note_on_c, 5, 48, 0
7, 460560, Note_on_c, 5, 48, 127
7, 460800, Note_on_c, 5, 48, 0
7, 460800, Note_on_c, 5, 48, 127
7, 461280, Note_on_c, 5, 48, 0
7, 461520, Note_on_c, 5, 48, 127
7, 461760, Note_on_c, 5, 48, 0
7, 461760, Note_on_c, 5, 48, 127
7, 462000, Note_on_c, 5, 48, 0
7, 462000, Note_on_c, 5, 48, 127
7, 462240, Note_on_c, 5, 48, 0
7, 462240, Note_on_c, 5, 48, 127
7, 462480, Note_on_c, 5, 48, 0
7, 462480, Note_on_c, 5, 48, 127
7, 462720, Note_on_c, 5, 48, 0
7, 462720, Note_on_c, 5, 48, 127
7, 463440, Note_on_c, 5, 48, 0
7, 463440, Note_on_c, 5, 48, 127
7, 463680, Note_on_c, 5, 48, 0
7, 463680, Note_on_c, 5, 48, 127
7, 463920, Note_on_c, 5, 48, 0
7, 463920, Note_on_c, 5, 48, 127
7, 464160, Note_on_c, 5, 48, 0
7, 464160, Note_on_c, 5, 48, 127
7, 464400, Note_on_c, 5, 48, 0
7, 466560, Note_on_c, 5, 48, 127
7, 467040, Note_on_c, 5, 48, 0
7, 468000, Note_on_c, 5, 48, 127
7, 468480, Note_on_c, 5, 48, 0
7, 468480, Note_on_c, 5, 43, 127
7, 468960, Note_on_c, 5, 43, 0
7, 468960, Note_on_c, 5, 43, 127
7, 469320, Note_on_c, 5, 43, 0
7, 469320, Note_on_c, 5, 43, 127
7, 469440, Note_on_c, 5, 43, 0
7, 469440, Note_on_c, 5, 43, 127
7, 469920, Note_on_c, 5, 43, 0
7, 469920, Note_on_c, 5, 43, 127
7, 470400, Note_on_c, 5, 43, 0
7, 470400, Note_on_c, 5, 48, 127
7, 470880, Note_on_c, 5, 48, 0
7, 470880, Note_on_c, 5, 48, 127
7, 471240, Note_on_c, 5, 48, 0
7, 471360, Note_on_c, 5, 48, 127
7, 471840, Note_on_c, 5, 48, 0
7, 471840, Note_on_c, 5, 48, 127
7, 472320, Note_on_c, 5, 48, 0
7, 472320, Note_on_c, 5, 43, 127
7, 472800, Note_on_c, 5, 43, 0
7, 473280, Note_on_c, 5, 48, 127
7, 473760, Note_on_c, 5, 48, 0
7, 473760, Note_on_c, 5, 48, 127
7, 474120, Note_on_c, 5, 48, 0
7, 474120, Note_on_c, 5, 48, 127
7, 474240, Note_on_c, 5, 48, 0
7, 474240, Note_on_c, 5, 48, 127
7, 474720, Note_on_c, 5, 48, 0
7, 474720, Note_on_c, 5, 48, 127
7, 475200, Note_on_c, 5, 48, 0
7, 475200, Note_on_c, 5, 43, 127
7, 475680, Note_on_c, 5, 43, 0
7, 476160, Note_on_c, 5, 48, 127
7, 476640, Note_on_c, 5, 48, 0
7, 476640, Note_on_c, 5, 48, 127
7, 477000, Note_on_c, 5, 48, 0
7, 477000, Note_on_c, 5, 48, 127
7, 477120, Note_on_c, 5, 48, 0
7, 477120, Note_on_c, 5, 48, 127
7, 477600, Note_on_c, 5, 48, 0
7, 477600, Note_on_c, 5, 48, 127
7, 478080, Note_on_c, 5, 48, 0
7, 478080, Note_on_c, 5, 48, 127
7, 478560, Note_on_c, 5, 48, 0
7, 479040, Note_on_c, 5, 43, 127
7, 479520, Note_on_c, 5, 43, 0
7, 479520, Note_on_c, 5, 43, 89
7, 480000, Note_on_c, 5, 43, 0
7, 480000, Note_on_c, 5, 48, 50
7, 480480, Note_on_c, 5, 48, 0
7, 480960, Note_on_c, 5, 48, 62
7, 481440, Note_on_c, 5, 48, 0
7, 482400, Note_on_c, 5, 43, 82
7, 482880, Note_on_c, 5, 43, 0
7, 482880, Note_on_c, 5, 48, 88
7, 483360, Note_on_c, 5, 48, 0
7, 483360, Note_on_c, 5, 48, 94
7, 483720, Note_on_c, 5, 48, 0
7, 483720, Note_on_c, 5, 48, 99
7, 483840, Note_on_c, 5, 48, 0
7, 483840, Note_on_c, 5, 48, 101
7, 484320, Note_on_c, 5, 48, 0
7, 484320, Note_on_c, 5, 48, 107
7, 484800, Note_on_c, 5, 48, 0
7, 484800, Note_on_c, 5, 48, 114
7, 485280, Note_on_c, 5, 48, 0
7, 485280, Note_on_c, 5, 43, 120
7, 485760, Note_on_c, 5, 43, 0
7, 485760, Note_on_c, 5, 48, 127
7, 486240, Note_on_c, 5, 48, 0
7, 489600, Note_on_c, 5, 48, 50
7, 490080, Note_on_c, 5, 48, 0
7, 490560, Note_on_c, 5, 43, 50
7, 491040, Note_on_c, 5, 43, 0
7, 491520, Note_on_c, 5, 48, 50
7, 491760, Note_on_c, 5, 48, 0
7, 492000, Note_on_c, 5, 48, 127
7, 492360, Note_on_c, 5, 48, 0
7, 492360, Note_on_c, 5, 48, 127
7, 492480, Note_on_c, 5, 48, 0
7, 492480, Note_on_c, 5, 48, 127
7, 492960, Note_on_c, 5, 48, 0
7, 492960, Note_on_c, 5, 48, 127
7, 493320, Note_on_c, 5, 48, 0
7, 493320, Note_on_c, 5, 48, 127
7, 493440, Note_on_c, 5, 48, 0
7, 493440, Note_on_c, 5, 48, 127
7, 493680, Note_on_c, 5, 48, 0
7, 493680, Note_on_c, 5, 48, 127
7, 493920, Note_on_c, 5, 48, 0
7, 493920, Note_on_c, 5, 48, 127
7, 494160, Note_on_c, 5, 48, 0
7, 494160, Note_on_c, 5, 48, 127
7, 494400, Note_on_c, 5, 48, 0
7, 494400, Note_on_c, 5, 48, 127
7, 494880, Note_on_c, 5, 48, 0
7, 522240, Note_on_c, 5, 48, 91
7, 522720, Note_on_c, 5, 48, 0
7, 523200, Note_on_c, 5, 48, 94
7, 523680, Note_on_c, 5, 48, 0
7, 524160, Note_on_c, 5, 43, 96
7, 524640, Note_on_c, 5, 43, 0
7, 525120, Note_on_c, 5, 48, 99
7, 525600, Note_on_c, 5, 48, 0
7, 526080, Note_on_c, 5, 43, 101
7, 526560, Note_on_c, 5, 43, 0
7, 527040, Note_on_c, 5, 48, 104
7, 527520, Note_on_c, 5, 48, 0
7, 528960, Note_on_c, 5, 43, 109
7, 529440, Note_on_c, 5, 43, 0
7, 529440, Note_on_c, 5, 43, 110
7, 529920, Note_on_c, 5, 43, 0
7, 529920, Note_on_c, 5, 48, 111
7, 530400, Note_on_c, 5, 48, 0
7, 530880, Note_on_c, 5, 48, 114
7, 531360, Note_on_c, 5, 48, 0
7, 531840, Note_on_c, 5, 43, 116
7, 532320, Note_on_c, 5, 43, 0
7, 532800, Note_on_c, 5, 48, 118
7, 533280, Note_on_c, 5, 48, 0
7, 533280, Note_on_c, 5, 48, 120
7, 533640, Note_on_c, 5, 48, 0
7, 533640, Note_on_c, 5, 48, 121
7, 533760, Note_on_c, 5, 48, 0
7, 533760, Note_on_c, 5, 48, 121
7, 534240, Note_on_c, 5, 48, 0
7, 534240, Note_on_c, 5, 48, 122
7, 534720, Note_on_c, 5, 48, 0
7, 534720, Note_on_c, 5, 43, 123
7, 535200, Note_on_c, 5, 43, 0
7, 535200, Note_on_c, 5, 43, 125
7, 535680, Note_on_c, 5, 43, 0
7, 535680, Note_on_c, 5, 48, 126
7, 535800, Note_on_c, 5, 48, 0
7, 535920, Note_on_c, 5, 48, 127
7, 536040, Note_on_c, 5, 48, 0
7, 536160, Note_on_c, 5, 48, 127
7, 536280, Note_on_c, 5, 48, 0
7, 536400, Note_on_c, 5, 48, 127
7, 536520, Note_on_c, 5, 48, 0
7, 536640, Note_on_c, 5, 48, 127
7, 537120, Note_on_c, 5, 48, 0
7, 537600, Note_on_c, 5, 43, 127
7, 538080, Note_on_c, 5, 43, 0
7, 538080, Note_on_c, 5, 43, 127
7, 538560, Note_on_c, 5, 43, 0
7, 538560, Note_on_c, 5, 48, 127
7, 538800, Note_on_c, 5, 48, 0
7, 538800, Note_on_c, 5, 48, 127
7, 539040, Note_on_c, 5, 48, 0
7, 539040, Note_on_c, 5, 48, 127
7, 539280, Note_on_c, 5, 48, 0
7, 539280, Note_on_c, 5, 48, 127
7, 539520, Note_on_c, 5, 48, 0
7, 539520, Note_on_c, 5, 48, 127
7, 540000, Note_on_c, 5, 48, 0
7, 540480, Note_on_c, 5, 43, 127
7, 540960, Note_on_c, 5, 43, 0
7, 540960, Note_on_c, 5, 43, 127
7, 541440, Note_on_c, 5, 43, 0
7, 541440, Note_on_c, 5, 48, 127
7, 541920, Note_on_c, 5, 48, 0
7, 547200, Note_on_c, 5, 48, 127
7, 547680, Note_on_c, 5, 48, 0
7, 547680, Note_on_c, 5, 48, 127
7, 548040, Note_on_c, 5, 48, 0
7, 548040, Note_on_c, 5, 48, 127
7, 548160, Note_on_c, 5, 48, 0
7, 548160, Note_on_c, 5, 48, 127
7, 548640, Note_on_c, 5, 48, 0
7, 548640, Note_on_c, 5, 48, 127
7, 549000, Note_on_c, 5, 48, 0
7, 549000, Note_on_c, 5, 48, 127
7, 549120, Note_on_c, 5, 48, 0
7, 549120, Note_on_c, 5, 43, 127
7, 549360, Note_on_c, 5, 43, 0
7, 549360, Note_on_c, 5, 43, 127
7, 549600, Note_on_c, 5, 43, 0
7, 549600, Note_on_c, 5, 43, 127
7, 549840, Note_on_c, 5, 43, 0
7, 549840, Note_on_c, 5, 43, 127
7, 550080, Note_on_c, 5, 43, 0
7, 550080, Note_on_c, 5, 48, 127
7, 550320, Note_on_c, 5, 48, 0
7, 550320, Note_on_c, 5, 43, 127
7, 550560, Note_on_c, 5, 43, 0
7, 550560, Note_on_c, 5, 48, 127
7, 550800, Note_on_c, 5, 48, 0
7, 550800, Note_on_c, 5, 43, 127
7, 551040, Note_on_c, 5, 43, 0
7, 551040, Note_on_c, 5, 48, 127
7, 551280, Note_on_c, 5, 48, 0
7, 551280, Note_on_c, 5, 43, 127
7, 551520, Note_on_c, 5, 43, 0
7, 551520, Note_on_c, 5, 48, 127
7, 551760, Note_on_c, 5, 48, 0
7, 551760, Note_on_c, 5, 43, 127
7, 552000, Note_on_c, 5, 43, 0
7, 552000, Note_on_c, 5, 48, 127
7, 552240, Note_on_c, 5, 48, 0
7, 552240, Note_on_c, 5, 48, 127
7, 552360, Note_on_c, 5, 48, 0
7, 552360, Note_on_c, 5, 48, 127
7, 552480, Note_on_c, 5, 48, 0
7, 552480, Note_on_c, 5, 48, 127
7, 552720, Note_on_c, 5, 48, 0
7, 552720, Note_on_c, 5, 48, 127
7, 552960, Note_on_c, 5, 48, 0
7, 552960, Note_on_c, 5, 48, 127
7, 553200, Note_on_c, 5, 48, 0
7, 553200, Note_on_c, 5, 43, 127
7, 553440, Note_on_c, 5, 43, 0
7, 553440, Note_on_c, 5, 48, 127
7, 553680, Note_on_c, 5, 48, 0
7, 553680, Note_on_c, 5, 43, 127
7, 553920, Note_on_c, 5, 43, 0
7, 553920, Note_on_c, 5, 48, 127
7, 554160, Note_on_c, 5, 48, 0
7, 554160, Note_on_c, 5, 48, 127
7, 554280, Note_on_c, 5, 48, 0
7, 554280, Note_on_c, 5, 48, 127
7, 554400, Note_on_c, 5, 48, 0
7, 554400, Note_on_c, 5, 48, 127
7, 554640, Note_on_c, 5, 48, 0
7, 554640, Note_on_c, 5, 48, 127
7, 554880, Note_on_c, 5, 48, 0
7, 554880, Note_on_c, 5, 48, 127
7, 555120, Note_on_c, 5, 48, 0
7, 555120, Note_on_c, 5, 43, 127
7, 555360, Note_on_c, 5, 43, 0
7, 555360, Note_on_c, 5, 48, 127
7, 555600, Note_on_c, 5, 48, 0
7, 555600, Note_on_c, 5, 43, 127
7, 555840, Note_on_c, 5, 43, 0
7, 555840, Note_on_c, 5, 48, 127
7, 556320, Note_on_c, 5, 48, 0
7, 556320, End_track
8, 0, Start_track
8, 0, Title_t, "Violin I"
8, 0, Program_c, 6, 48
8, 0, Control_c, 6, 7, 127
8, 0, Control_c, 6, 10, 25
8, 0, Note_on_c, 6, 72, 50
8, 960, Note_on_c, 6, 72, 0
8, 960, Note_on_c, 6, 74, 50
8, 1920, Note_on_c, 6, 74, 0
8, 1920, Note_on_c, 6, 77, 50
8, 2880, Note_on_c, 6, 77, 0
8, 2880, Note_on_c, 6, 76, 50
8, 3840, Note_on_c, 6, 76, 0
8, 4080, Note_on_c, 6, 81, 50
8, 4200, Note_on_c, 6, 81, 0
8, 4320, Note_on_c, 6, 81, 50
8, 4440, Note_on_c, 6, 81, 0
8, 4560, Note_on_c, 6, 81, 50
8, 4680, Note_on_c, 6, 81, 0
8, 4800, Note_on_c, 6, 79, 50
8, 5520, Note_on_c, 6, 79, 0
8, 5520, Note_on_c, 6, 77, 50
8, 5577, Note_on_c, 6, 77, 0
8, 5580, Note_on_c, 6, 76, 50
8, 5637, Note_on_c, 6, 76, 0
8, 5640, Note_on_c, 6, 74, 50
8, 5697, Note_on_c, 6, 74, 0
8, 5700, Note_on_c, 6, 72, 50
8, 5757, Note_on_c, 6, 72, 0
8, 5760, Note_on_c, 6, 77, 50
8, 5880, Note_on_c, 6, 77, 0
8, 6000, Note_on_c, 6, 77, 50
8, 6120, Note_on_c, 6, 77, 0
8, 6240, Note_on_c, 6, 76, 50
8, 6360, Note_on_c, 6, 76, 0
8, 6480, Note_on_c, 6, 76, 50
8, 6600, Note_on_c, 6, 76, 0
8, 6720, Note_on_c, 6, 73, 50
8, 6840, Note_on_c, 6, 73, 0
8, 6840, Note_on_c, 6, 74, 50
8, 6960, Note_on_c, 6, 74, 0
8, 6960, Note_on_c, 6, 76, 50
8, 7080, Note_on_c, 6, 76, 0
8, 7080, Note_on_c, 6, 74, 50
8, 7200, Note_on_c, 6, 74, 0
8, 7200, Note_on_c, 6, 72, 50
8, 7320, Note_on_c, 6, 72, 0
8, 7320, Note_on_c, 6, 71, 50
8, 7440, Note_on_c, 6, 71, 0
8, 7440, Note_on_c, 6, 69, 50
8, 7560, Note_on_c, 6, 69, 0
8, 7560, Note_on_c, 6, 67, 50
8, 7680, Note_on_c, 6, 67, 0
8, 7680, Note_on_c, 6, 72, 100
8, 8640, Note_on_c, 6, 72, 0
8, 8640, Note_on_c, 6, 74, 100
8, 9600, Note_on_c, 6, 74, 0
8, 9600, Note_on_c, 6, 77, 100
8, 10560, Note_on_c, 6, 77, 0
8, 10560, Note_on_c, 6, 76, 100
8, 11520, Note_on_c, 6, 76, 0
8, 11760, Note_on_c, 6, 81, 127
8, 11880, Note_on_c, 6, 81, 0
8, 12000, Note_on_c, 6, 81, 127
8, 12120, Note_on_c, 6, 81, 0
8, 12240, Note_on_c, 6, 81, 127
8, 12360, Note_on_c, 6, 81, 0
8, 12480, Note_on_c, 6, 81, 127
8, 13200, Note_on_c, 6, 81, 0
8, 13200, Note_on_c, 6, 79, 127
8, 13260, Note_on_c, 6, 79, 0
8, 13260, Note_on_c, 6, 77, 127
8, 13320, Note_on_c, 6, 77, 0
8, 13320, Note_on_c, 6, 76, 127
8, 13380, Note_on_c, 6, 76, 0
8, 13380, Note_on_c, 6, 74, 127
8, 13440, Note_on_c, 6, 74, 0
8, 13440, Note_on_c, 6, 72, 127
8, 13560, Note_on_c, 6, 72, 0
8, 13680, Note_on_c, 6, 72, 127
8, 13740, Note_on_c, 6, 72, 0
8, 13800, Note_on_c, 6, 72, 127
8, 13860, Note_on_c, 6, 72, 0
8, 13920, Note_on_c, 6, 74, 127
8, 14040, Note_on_c, 6, 74, 0
8, 14160, Note_on_c, 6, 74, 127
8, 14220, Note_on_c, 6, 74, 0
8, 14280, Note_on_c, 6, 74, 127
8, 14340, Note_on_c, 6, 74, 0
8, 14400, Note_on_c, 6, 76, 127
8, 14520, Note_on_c, 6, 76, 0
8, 14640, Note_on_c, 6, 81, 127
8, 14760, Note_on_c, 6, 81, 0
8, 14880, Note_on_c, 6, 81, 127
8, 15000, Note_on_c, 6, 81, 0
8, 15120, Note_on_c, 6, 81, 127
8, 15240, Note_on_c, 6, 81, 0
8, 15360, Note_on_c, 6, 81, 127
8, 16080, Note_on_c, 6, 81, 0
8, 16080, Note_on_c, 6, 84, 127
8, 16200, Note_on_c, 6, 84, 0
8, 16200, Note_on_c, 6, 81, 127
8, 16320, Note_on_c, 6, 81, 0
8, 16320, Note_on_c, 6, 81, 127
8, 16433, Note_on_c, 6, 81, 0
8, 16440, Note_on_c, 6, 79, 127
8, 16553, Note_on_c, 6, 79, 0
8, 16560, Note_on_c, 6, 77, 127
8, 16680, Note_on_c, 6, 77, 0
8, 16680, Note_on_c, 6, 76, 127
8, 16800, Note_on_c, 6, 76, 0
8, 16800, Note_on_c, 6, 76, 127
8, 16913, Note_on_c, 6, 76, 0
8, 16920, Note_on_c, 6, 74, 127
8, 17033, Note_on_c, 6, 74, 0
8, 17040, Note_on_c, 6, 72, 127
8, 17160, Note_on_c, 6, 72, 0
8, 17160, Note_on_c, 6, 71, 127
8, 17280, Note_on_c, 6, 71, 0
8, 17280, Note_on_c, 6, 72, 127
8, 17520, Note_on_c, 6, 72, 0
8, 17760, Note_on_c, 6, 72, 127
8, 17985, Note_on_c, 6, 72, 0
8, 18120, Note_on_c, 6, 72, 127
8, 18240, Note_on_c, 6, 72, 0
8, 18240, Note_on_c, 6, 72, 127
8, 18936, Note_on_c, 6, 72, 0
8, 18960, Note_on_c, 6, 71, 127
8, 19044, Note_on_c, 6, 71, 0
8, 19080, Note_on_c, 6, 69, 127
8, 19164, Note_on_c, 6, 69, 0
8, 19200, Note_on_c, 6, 67, 127
8, 19284, Note_on_c, 6, 67, 0
8, 19320, Note_on_c, 6, 69, 127
8, 19404, Note_on_c, 6, 69, 0
8, 19440, Note_on_c, 6, 67, 127
8, 19524, Note_on_c, 6, 67, 0
8, 19560, Note_on_c, 6, 65, 127
8, 19644, Note_on_c, 6, 65, 0
8, 19680, Note_on_c, 6, 64, 127
8, 19764, Note_on_c, 6, 64, 0
8, 19800, Note_on_c, 6, 65, 127
8, 19884, Note_on_c, 6, 65, 0
8, 19920, Note_on_c, 6, 64, 127
8, 20004, Note_on_c, 6, 64, 0
8, 20040, Note_on_c, 6, 62, 127
8, 20124, Note_on_c, 6, 62, 0
8, 20160, Note_on_c, 6, 60, 127
8, 20400, Note_on_c, 6, 60, 0
8, 20640, Note_on_c, 6, 76, 127
8, 20865, Note_on_c, 6, 76, 0
8, 21000, Note_on_c, 6, 76, 127
8, 21120, Note_on_c, 6, 76, 0
8, 21120, Note_on_c, 6, 76, 127
8, 21720, Note_on_c, 6, 76, 0
8, 21840, Note_on_c, 6, 74, 127
8, 21912, Note_on_c, 6, 74, 0
8, 21960, Note_on_c, 6, 72, 127
8, 22032, Note_on_c, 6, 72, 0
8, 22080, Note_on_c, 6, 71, 127
8, 22152, Note_on_c, 6, 71, 0
8, 22200, Note_on_c, 6, 72, 127
8, 22272, Note_on_c, 6, 72, 0
8, 22320, Note_on_c, 6, 71, 127
8, 22392, Note_on_c, 6, 71, 0
8, 22440, Note_on_c, 6, 69, 127
8, 22512, Note_on_c, 6, 69, 0
8, 22560, Note_on_c, 6, 67, 127
8, 22632, Note_on_c, 6, 67, 0
8, 22680, Note_on_c, 6, 69, 127
8, 22752, Note_on_c, 6, 69, 0
8, 22800, Note_on_c, 6, 67, 127
8, 22872, Note_on_c, 6, 67, 0
8, 22920, Note_on_c, 6, 65, 127
8, 22992, Note_on_c, 6, 65, 0
8, 23040, Note_on_c, 6, 64, 127
8, 23160, Note_on_c, 6, 64, 0
8, 23160, Note_on_c, 6, 67, 127
8, 23280, Note_on_c, 6, 67, 0
8, 23280, Note_on_c, 6, 72, 127
8, 23400, Note_on_c, 6, 72, 0
8, 23400, Note_on_c, 6, 76, 127
8, 23520, Note_on_c, 6, 76, 0
8, 23520, Note_on_c, 6, 79, 127
8, 23640, Note_on_c, 6, 79, 0
8, 23640, Note_on_c, 6, 79, 127
8, 23760, Note_on_c, 6, 79, 0
8, 23760, Note_on_c, 6, 79, 127
8, 23880, Note_on_c, 6, 79, 0
8, 23880, Note_on_c, 6, 79, 127
8, 24000, Note_on_c, 6, 79, 0
8, 24000, Note_on_c, 6, 79, 127
8, 24120, Note_on_c, 6, 79, 0
8, 24120, Note_on_c, 6, 79, 127
8, 24240, Note_on_c, 6, 79, 0
8, 24240, Note_on_c, 6, 79, 127
8, 24360, Note_on_c, 6, 79, 0
8, 24360, Note_on_c, 6, 79, 127
8, 24480, Note_on_c, 6, 79, 0
8, 24480, Note_on_c, 6, 79, 127
8, 24600, Note_on_c, 6, 79, 0
8, 24600, Note_on_c, 6, 79, 127
8, 24720, Note_on_c, 6, 79, 0
8, 24720, Note_on_c, 6, 79, 127
8, 24840, Note_on_c, 6, 79, 0
8, 24840, Note_on_c, 6, 79, 127
8, 24960, Note_on_c, 6, 79, 0
8, 24960, Note_on_c, 6, 79, 127
8, 25044, Note_on_c, 6, 79, 0
8, 25080, Note_on_c, 6, 79, 127
8, 25164, Note_on_c, 6, 79, 0
8, 25200, Note_on_c, 6, 79, 127
8, 25284, Note_on_c, 6, 79, 0
8, 25320, Note_on_c, 6, 79, 127
8, 25404, Note_on_c, 6, 79, 0
8, 25440, Note_on_c, 6, 79, 127
8, 25524, Note_on_c, 6, 79, 0
8, 25560, Note_on_c, 6, 79, 127
8, 25644, Note_on_c, 6, 79, 0
8, 25680, Note_on_c, 6, 81, 127
8, 25764, Note_on_c, 6, 81, 0
8, 25800, Note_on_c, 6, 83, 127
8, 25884, Note_on_c, 6, 83, 0
8, 25920, Note_on_c, 6, 84, 127
8, 26004, Note_on_c, 6, 84, 0
8, 26040, Note_on_c, 6, 79, 127
8, 26124, Note_on_c, 6, 79, 0
8, 26160, Note_on_c, 6, 83, 127
8, 26244, Note_on_c, 6, 83, 0
8, 26280, Note_on_c, 6, 79, 127
8, 26364, Note_on_c, 6, 79, 0
8, 26400, Note_on_c, 6, 84, 127
8, 26484, Note_on_c, 6, 84, 0
8, 26520, Note_on_c, 6, 79, 127
8, 26604, Note_on_c, 6, 79, 0
8, 26640, Note_on_c, 6, 83, 127
8, 26724, Note_on_c, 6, 83, 0
8, 26760, Note_on_c, 6, 79, 127
8, 26844, Note_on_c, 6, 79, 0
8, 26880, Note_on_c, 6, 84, 127
8, 26964, Note_on_c, 6, 84, 0
8, 27000, Note_on_c, 6, 79, 127
8, 27084, Note_on_c, 6, 79, 0
8, 27120, Note_on_c, 6, 83, 127
8, 27204, Note_on_c, 6, 83, 0
8, 27240, Note_on_c, 6, 79, 127
8, 27324, Note_on_c, 6, 79, 0
8, 27360, Note_on_c, 6, 84, 127
8, 27444, Note_on_c, 6, 84, 0
8, 27480, Note_on_c, 6, 79, 127
8, 27564, Note_on_c, 6, 79, 0
8, 27600, Note_on_c, 6, 83, 127
8, 27684, Note_on_c, 6, 83, 0
8, 27720, Note_on_c, 6, 79, 127
8, 27804, Note_on_c, 6, 79, 0
8, 27840, Note_on_c, 6, 84, 127
8, 27924, Note_on_c, 6, 84, 0
8, 27960, Note_on_c, 6, 83, 127
8, 28044, Note_on_c, 6, 83, 0
8, 28080, Note_on_c, 6, 81, 127
8, 28164, Note_on_c, 6, 81, 0
8, 28200, Note_on_c, 6, 79, 127
8, 28284, Note_on_c, 6, 79, 0
8, 28320, Note_on_c, 6, 84, 127
8, 28404, Note_on_c, 6, 84, 0
8, 28440, Note_on_c, 6, 83, 127
8, 28524, Note_on_c, 6, 83, 0
8, 28560, Note_on_c, 6, 81, 127
8, 28644, Note_on_c, 6, 81, 0
8, 28680, Note_on_c, 6, 79, 127
8, 28764, Note_on_c, 6, 79, 0
8, 28800, Note_on_c, 6, 84, 127
8, 28884, Note_on_c, 6, 84, 0
8, 28920, Note_on_c, 6, 83, 127
8, 29004, Note_on_c, 6, 83, 0
8, 29040, Note_on_c, 6, 81, 127
8, 29124, Note_on_c, 6, 81, 0
8, 29160, Note_on_c, 6, 79, 127
8, 29244, Note_on_c, 6, 79, 0
8, 29280, Note_on_c, 6, 77, 127
8, 29364, Note_on_c, 6, 77, 0
8, 29400, Note_on_c, 6, 76, 127
8, 29484, Note_on_c, 6, 76, 0
8, 29520, Note_on_c, 6, 74, 127
8, 29604, Note_on_c, 6, 74, 0
8, 29640, Note_on_c, 6, 72, 127
8, 29724, Note_on_c, 6, 72, 0
8, 29760, Note_on_c, 6, 79, 127
8, 29844, Note_on_c, 6, 79, 0
8, 29880, Note_on_c, 6, 79, 127
8, 29964, Note_on_c, 6, 79, 0
8, 30000, Note_on_c, 6, 83, 127
8, 30084, Note_on_c, 6, 83, 0
8, 30120, Note_on_c, 6, 79, 127
8, 30204, Note_on_c, 6, 79, 0
8, 30240, Note_on_c, 6, 84, 127
8, 30324, Note_on_c, 6, 84, 0
8, 30360, Note_on_c, 6, 79, 127
8, 30444, Note_on_c, 6, 79, 0
8, 30480, Note_on_c, 6, 76, 127
8, 30564, Note_on_c, 6, 76, 0
8, 30600, Note_on_c, 6, 72, 127
8, 30684, Note_on_c, 6, 72, 0
8, 30720, Note_on_c, 6, 79, 127
8, 30840, Note_on_c, 6, 79, 0
8, 30840, Note_on_c, 6, 79, 127
8, 30960, Note_on_c, 6, 79, 0
8, 30960, Note_on_c, 6, 83, 127
8, 31080, Note_on_c, 6, 83, 0
8, 31080, Note_on_c, 6, 79, 127
8, 31200, Note_on_c, 6, 79, 0
8, 31200, Note_on_c, 6, 84, 127
8, 31320, Note_on_c, 6, 84, 0
8, 31320, Note_on_c, 6, 79, 127
8, 31440, Note_on_c, 6, 79, 0
8, 31440, Note_on_c, 6, 76, 127
8, 31560, Note_on_c, 6, 76, 0
8, 31560, Note_on_c, 6, 72, 127
8, 31680, Note_on_c, 6, 72, 0
8, 31680, Note_on_c, 6, 79, 127
8, 31800, Note_on_c, 6, 79, 0
8, 31800, Note_on_c, 6, 79, 127
8, 31920, Note_on_c, 6, 79, 0
8, 31920, Note_on_c, 6, 83, 127
8, 32040, Note_on_c, 6, 83, 0
8, 32040, Note_on_c, 6, 79, 127
8, 32160, Note_on_c, 6, 79, 0
8, 32160, Note_on_c, 6, 84, 127
8, 32280, Note_on_c, 6, 84, 0
8, 32280, Note_on_c, 6, 79, 127
8, 32400, Note_on_c, 6, 79, 0
8, 32400, Note_on_c, 6, 76, 127
8, 32520, Note_on_c, 6, 76, 0
8, 32520, Note_on_c, 6, 72, 127
8, 32640, Note_on_c, 6, 72, 0
8, 32640, Note_on_c, 6, 79, 127
8, 33120, Note_on_c, 6, 79, 0
8, 36480, Note_on_c, 6, 79, 50
8, 37440, Note_on_c, 6, 79, 0
8, 37440, Note_on_c, 6, 81, 50
8, 38400, Note_on_c, 6, 81, 0
8, 38400, Note_on_c, 6, 84, 50
8, 39598, Note_on_c, 6, 84, 0
8, 39600, Note_on_c, 6, 86, 50
8, 39720, Note_on_c, 6, 86, 0
8, 39720, Note_on_c, 6, 84, 50
8, 39840, Note_on_c, 6, 84, 0
8, 39840, Note_on_c, 6, 83, 50
8, 39960, Note_on_c, 6, 83, 0
8, 40080, Note_on_c, 6, 81, 50
8, 40200, Note_on_c, 6, 81, 0
8, 40320, Note_on_c, 6, 79, 50
8, 41518, Note_on_c, 6, 79, 0
8, 41520, Note_on_c, 6, 81, 50
8, 41640, Note_on_c, 6, 81, 0
8, 41640, Note_on_c, 6, 79, 50
8, 41760, Note_on_c, 6, 79, 0
8, 41760, Note_on_c, 6, 77, 50
8, 41880, Note_on_c, 6, 77, 0
8, 42000, Note_on_c, 6, 76, 50
8, 42120, Note_on_c, 6, 76, 0
8, 42240, Note_on_c, 6, 74, 50
8, 42720, Note_on_c, 6, 74, 0
8, 42720, Note_on_c, 6, 81, 50
8, 43438, Note_on_c, 6, 81, 0
8, 43440, Note_on_c, 6, 83, 50
8, 43560, Note_on_c, 6, 83, 0
8, 43560, Note_on_c, 6, 81, 50
8, 43680, Note_on_c, 6, 81, 0
8, 43680, Note_on_c, 6, 79, 50
8, 43800, Note_on_c, 6, 79, 0
8, 43920, Note_on_c, 6, 77, 50
8, 44040, Note_on_c, 6, 77, 0
8, 44160, Note_on_c, 6, 76, 50
8, 45358, Note_on_c, 6, 76, 0
8, 45360, Note_on_c, 6, 81, 50
8, 45480, Note_on_c, 6, 81, 0
8, 45480, Note_on_c, 6, 79, 50
8, 45600, Note_on_c, 6, 79, 0
8, 45600, Note_on_c, 6, 77, 50
8, 45720, Note_on_c, 6, 77, 0
8, 45840, Note_on_c, 6, 76, 50
8, 45960, Note_on_c, 6, 76, 0
8, 46080, Note_on_c, 6, 74, 50
8, 47278, Note_on_c, 6, 74, 0
8, 47280, Note_on_c, 6, 76, 50
8, 47400, Note_on_c, 6, 76, 0
8, 47400, Note_on_c, 6, 74, 50
8, 47520, Note_on_c, 6, 74, 0
8, 47520, Note_on_c, 6, 72, 50
8, 47640, Note_on_c, 6, 72, 0
8, 47760, Note_on_c, 6, 69, 50
8, 47880, Note_on_c, 6, 69, 0
8, 48000, Note_on_c, 6, 65, 50
8, 48480, Note_on_c, 6, 65, 0
8, 48480, Note_on_c, 6, 81, 50
8, 49200, Note_on_c, 6, 81, 0
8, 49200, Note_on_c, 6, 77, 50
8, 49320, Note_on_c, 6, 77, 0
8, 49320, Note_on_c, 6, 74, 50
8, 49440, Note_on_c, 6, 74, 0
8, 49440, Note_on_c, 6, 69, 50
8, 49560, Note_on_c, 6, 69, 0
8, 49680, Note_on_c, 6, 71, 50
8, 49800, Note_on_c, 6, 71, 0
8, 49920, Note_on_c, 6, 72, 100
8, 50880, Note_on_c, 6, 72, 0
8, 50880, Note_on_c, 6, 74, 100
8, 51840, Note_on_c, 6, 74, 0
8, 51840, Note_on_c, 6, 77, 100
8, 52800, Note_on_c, 6, 77, 0
8, 53040, Note_on_c, 6, 76, 100
8, 53160, Note_on_c, 6, 76, 0
8, 53280, Note_on_c, 6, 78, 100
8, 53400, Note_on_c, 6, 78, 0
8, 53520, Note_on_c, 6, 79, 100
8, 53640, Note_on_c, 6, 79, 0
8, 53760, Note_on_c, 6, 83, 100
8, 53820, Note_on_c, 6, 83, 0
8, 53820, Note_on_c, 6, 81, 100
8, 53880, Note_on_c, 6, 81, 0
8, 53880, Note_on_c, 6, 83, 100
8, 53940, Note_on_c, 6, 83, 0
8, 53940, Note_on_c, 6, 81, 100
8, 54000, Note_on_c, 6, 81, 0
8, 54120, Note_on_c, 6, 83, 100
8, 54216, Note_on_c, 6, 83, 0
8, 54240, Note_on_c, 6, 84, 100
8, 54624, Note_on_c, 6, 84, 0
8, 54960, Note_on_c, 6, 74, 100
8, 55080, Note_on_c, 6, 74, 0
8, 55200, Note_on_c, 6, 76, 100
8, 55320, Note_on_c, 6, 76, 0
8, 55440, Note_on_c, 6, 78, 100
8, 55560, Note_on_c, 6, 78, 0
8, 55680, Note_on_c, 6, 81, 100
8, 55740, Note_on_c, 6, 81, 0
8, 55740, Note_on_c, 6, 79, 100
8, 55800, Note_on_c, 6, 79, 0
8, 55800, Note_on_c, 6, 81, 100
8, 55860, Note_on_c, 6, 81, 0
8, 55860, Note_on_c, 6, 79, 100
8, 55920, Note_on_c, 6, 79, 0
8, 56040, Note_on_c, 6, 81, 100
8, 56136, Note_on_c, 6, 81, 0
8, 56160, Note_on_c, 6, 83, 100
8, 56544, Note_on_c, 6, 83, 0
8, 56880, Note_on_c, 6, 72, 100
8, 57000, Note_on_c, 6, 72, 0
8, 57120, Note_on_c, 6, 74, 100
8, 57240, Note_on_c, 6, 74, 0
8, 57360, Note_on_c, 6, 76, 100
8, 57480, Note_on_c, 6, 76, 0
8, 57600, Note_on_c, 6, 79, 100
8, 57660, Note_on_c, 6, 79, 0
8, 57660, Note_on_c, 6, 78, 100
8, 57720, Note_on_c, 6, 78, 0
8, 57720, Note_on_c, 6, 79, 100
8, 57780, Note_on_c, 6, 79, 0
8, 57780, Note_on_c, 6, 78, 100
8, 57840, Note_on_c, 6, 78, 0
8, 57960, Note_on_c, 6, 79, 100
8, 58056, Note_on_c, 6, 79, 0
8, 58080, Note_on_c, 6, 81, 100
8, 58464, Note_on_c, 6, 81, 0
8, 58800, Note_on_c, 6, 71, 106
8, 58920, Note_on_c, 6, 71, 0
8, 59040, Note_on_c, 6, 74, 113
8, 59160, Note_on_c, 6, 74, 0
8, 59280, Note_on_c, 6, 67, 120
8, 59400, Note_on_c, 6, 67, 0
8, 59520, Note_on_c, 6, 83, 127
8, 59856, Note_on_c, 6, 83, 0
8, 60000, Note_on_c, 6, 73, 127
8, 60336, Note_on_c, 6, 73, 0
8, 60480, Note_on_c, 6, 74, 127
8, 60816, Note_on_c, 6, 74, 0
8, 60960, Note_on_c, 6, 86, 127
8, 61185, Note_on_c, 6, 86, 0
8, 61320, Note_on_c, 6, 86, 127
8, 61380, Note_on_c, 6, 86, 0
8, 61440, Note_on_c, 6, 86, 127
8, 62040, Note_on_c, 6, 86, 0
8, 62160, Note_on_c, 6, 85, 127
8, 62244, Note_on_c, 6, 85, 0
8, 62280, Note_on_c, 6, 83, 127
8, 62364, Note_on_c, 6, 83, 0
8, 62400, Note_on_c, 6, 81, 127
8, 62484, Note_on_c, 6, 81, 0
8, 62520, Note_on_c, 6, 83, 127
8, 62604, Note_on_c, 6, 83, 0
8, 62640, Note_on_c, 6, 81, 127
8, 62724, Note_on_c, 6, 81, 0
8, 62760, Note_on_c, 6, 79, 127
8, 62844, Note_on_c, 6, 79, 0
8, 62880, Note_on_c, 6, 78, 127
8, 62964, Note_on_c, 6, 78, 0
8, 63000, Note_on_c, 6, 79, 127
8, 63084, Note_on_c, 6, 79, 0
8, 63120, Note_on_c, 6, 78, 127
8, 63204, Note_on_c, 6, 78, 0
8, 63240, Note_on_c, 6, 76, 127
8, 63324, Note_on_c, 6, 76, 0
8, 63360, Note_on_c, 6, 74, 127
8, 63600, Note_on_c, 6, 74, 0
8, 63840, Note_on_c, 6, 86, 127
8, 64065, Note_on_c, 6, 86, 0
8, 64200, Note_on_c, 6, 86, 127
8, 64260, Note_on_c, 6, 86, 0
8, 64320, Note_on_c, 6, 86, 127
8, 64920, Note_on_c, 6, 86, 0
8, 65040, Note_on_c, 6, 85, 127
8, 65124, Note_on_c, 6, 85, 0
8, 65160, Note_on_c, 6, 83, 127
8, 65244, Note_on_c, 6, 83, 0
8, 65280, Note_on_c, 6, 81, 127
8, 65364, Note_on_c, 6, 81, 0
8, 65400, Note_on_c, 6, 83, 127
8, 65484, Note_on_c, 6, 83, 0
8, 65520, Note_on_c, 6, 81, 127
8, 65604, Note_on_c, 6, 81, 0
8, 65640, Note_on_c, 6, 79, 127
8, 65724, Note_on_c, 6, 79, 0
8, 65760, Note_on_c, 6, 78, 127
8, 65844, Note_on_c, 6, 78, 0
8, 65880, Note_on_c, 6, 79, 127
8, 65964, Note_on_c, 6, 79, 0
8, 66000, Note_on_c, 6, 78, 127
8, 66084, Note_on_c, 6, 78, 0
8, 66120, Note_on_c, 6, 76, 127
8, 66204, Note_on_c, 6, 76, 0
8, 66240, Note_on_c, 6, 74, 127
8, 66324, Note_on_c, 6, 74, 0
8, 66360, Note_on_c, 6, 73, 127
8, 66444, Note_on_c, 6, 73, 0
8, 66480, Note_on_c, 6, 74, 127
8, 66564, Note_on_c, 6, 74, 0
8, 66600, Note_on_c, 6, 76, 127
8, 66684, Note_on_c, 6, 76, 0
8, 66720, Note_on_c, 6, 78, 127
8, 66804, Note_on_c, 6, 78, 0
8, 66840, Note_on_c, 6, 79, 127
8, 66924, Note_on_c, 6, 79, 0
8, 66960, Note_on_c, 6, 81, 127
8, 67044, Note_on_c, 6, 81, 0
8, 67080, Note_on_c, 6, 79, 127
8, 67164, Note_on_c, 6, 79, 0
8, 67200, Note_on_c, 6, 78, 127
8, 67284, Note_on_c, 6, 78, 0
8, 67320, Note_on_c, 6, 76, 127
8, 67404, Note_on_c, 6, 76, 0
8, 67440, Note_on_c, 6, 78, 127
8, 67524, Note_on_c, 6, 78, 0
8, 67560, Note_on_c, 6, 79, 127
8, 67644, Note_on_c, 6, 79, 0
8, 67680, Note_on_c, 6, 81, 127
8, 67764, Note_on_c, 6, 81, 0
8, 67800, Note_on_c, 6, 83, 127
8, 67884, Note_on_c, 6, 83, 0
8, 67920, Note_on_c, 6, 84, 127
8, 68004, Note_on_c, 6, 84, 0
8, 68040, Note_on_c, 6, 83, 127
8, 68124, Note_on_c, 6, 83, 0
8, 68160, Note_on_c, 6, 84, 127
8, 68280, Note_on_c, 6, 84, 0
8, 68280, Note_on_c, 6, 81, 127
8, 68400, Note_on_c, 6, 81, 0
8, 68400, Note_on_c, 6, 78, 127
8, 68520, Note_on_c, 6, 78, 0
8, 68520, Note_on_c, 6, 81, 127
8, 68640, Note_on_c, 6, 81, 0
8, 68640, Note_on_c, 6, 84, 127
8, 68760, Note_on_c, 6, 84, 0
8, 68760, Note_on_c, 6, 81, 127
8, 68880, Note_on_c, 6, 81, 0
8, 68880, Note_on_c, 6, 84, 127
8, 69000, Note_on_c, 6, 84, 0
8, 69000, Note_on_c, 6, 81, 127
8, 69120, Note_on_c, 6, 81, 0
8, 69120, Note_on_c, 6, 84, 127
8, 69600, Note_on_c, 6, 84, 0
8, 70560, Note_on_c, 6, 74, 50
8, 71040, Note_on_c, 6, 74, 0
8, 71040, Note_on_c, 6, 71, 50
8, 71520, Note_on_c, 6, 71, 0
8, 71520, Note_on_c, 6, 76, 50
8, 72118, Note_on_c, 6, 76, 0
8, 72120, Note_on_c, 6, 74, 50
8, 72240, Note_on_c, 6, 74, 0
8, 72240, Note_on_c, 6, 72, 50
8, 72360, Note_on_c, 6, 72, 0
8, 72360, Note_on_c, 6, 71, 50
8, 72480, Note_on_c, 6, 71, 0
8, 72480, Note_on_c, 6, 72, 50
8, 72600, Note_on_c, 6, 72, 0
8, 72600, Note_on_c, 6, 71, 50
8, 72720, Note_on_c, 6, 71, 0
8, 72720, Note_on_c, 6, 69, 50
8, 72840, Note_on_c, 6, 69, 0
8, 72840, Note_on_c, 6, 67, 50
8, 72960, Note_on_c, 6, 67, 0
8, 72960, Note_on_c, 6, 66, 50
8, 73440, Note_on_c, 6, 66, 0
8, 73440, Note_on_c, 6, 74, 50
8, 73920, Note_on_c, 6, 74, 0
8, 76320, Note_on_c, 6, 74, 50
8, 76800, Note_on_c, 6, 74, 0
8, 76800, Note_on_c, 6, 71, 50
8, 77280, Note_on_c, 6, 71, 0
8, 77280, Note_on_c, 6, 76, 50
8, 77878, Note_on_c, 6, 76, 0
8, 77880, Note_on_c, 6, 74, 50
8, 78000, Note_on_c, 6, 74, 0
8, 78000, Note_on_c, 6, 72, 50
8, 78120, Note_on_c, 6, 72, 0
8, 78120, Note_on_c, 6, 71, 50
8, 78240, Note_on_c, 6, 71, 0
8, 78240, Note_on_c, 6, 72, 50
8, 78360, Note_on_c, 6, 72, 0
8, 78360, Note_on_c, 6, 71, 50
8, 78480, Note_on_c, 6, 71, 0
8, 78480, Note_on_c, 6, 69, 50
8, 78600, Note_on_c, 6, 69, 0
8, 78600, Note_on_c, 6, 67, 50
8, 78720, Note_on_c, 6, 67, 0
8, 78720, Note_on_c, 6, 66, 50
8, 79200, Note_on_c, 6, 66, 0
8, 79200, Note_on_c, 6, 74, 50
8, 79680, Note_on_c, 6, 74, 0
8, 81720, Note_on_c, 6, 78, 50
8, 81804, Note_on_c, 6, 78, 0
8, 81840, Note_on_c, 6, 79, 50
8, 81924, Note_on_c, 6, 79, 0
8, 81960, Note_on_c, 6, 81, 50
8, 82044, Note_on_c, 6, 81, 0
8, 82080, Note_on_c, 6, 83, 50
8, 82164, Note_on_c, 6, 83, 0
8, 82200, Note_on_c, 6, 81, 50
8, 82284, Note_on_c, 6, 81, 0
8, 82320, Note_on_c, 6, 84, 50
8, 82404, Note_on_c, 6, 84, 0
8, 82440, Note_on_c, 6, 83, 50
8, 82524, Note_on_c, 6, 83, 0
8, 82560, Note_on_c, 6, 86, 50
8, 82644, Note_on_c, 6, 86, 0
8, 82680, Note_on_c, 6, 84, 50
8, 82764, Note_on_c, 6, 84, 0
8, 82800, Note_on_c, 6, 83, 50
8, 82884, Note_on_c, 6, 83, 0
8, 82920, Note_on_c, 6, 81, 50
8, 83004, Note_on_c, 6, 81, 0
8, 83040, Note_on_c, 6, 79, 50
8, 83124, Note_on_c, 6, 79, 0
8, 83160, Note_on_c, 6, 78, 50
8, 83244, Note_on_c, 6, 78, 0
8, 83280, Note_on_c, 6, 76, 50
8, 83364, Note_on_c, 6, 76, 0
8, 83400, Note_on_c, 6, 74, 50
8, 83484, Note_on_c, 6, 74, 0
8, 83520, Note_on_c, 6, 76, 50
8, 83604, Note_on_c, 6, 76, 0
8, 83640, Note_on_c, 6, 76, 50
8, 83724, Note_on_c, 6, 76, 0
8, 83760, Note_on_c, 6, 78, 50
8, 83844, Note_on_c, 6, 78, 0
8, 83880, Note_on_c, 6, 79, 50
8, 83964, Note_on_c, 6, 79, 0
8, 84000, Note_on_c, 6, 81, 50
8, 84084, Note_on_c, 6, 81, 0
8, 84120, Note_on_c, 6, 80, 50
8, 84204, Note_on_c, 6, 80, 0
8, 84240, Note_on_c, 6, 83, 50
8, 84324, Note_on_c, 6, 83, 0
8, 84360, Note_on_c, 6, 81, 50
8, 84444, Note_on_c, 6, 81, 0
8, 84480, Note_on_c, 6, 84, 50
8, 84564, Note_on_c, 6, 84, 0
8, 84600, Note_on_c, 6, 83, 50
8, 84684, Note_on_c, 6, 83, 0
8, 84720, Note_on_c, 6, 81, 50
8, 84804, Note_on_c, 6, 81, 0
8, 84840, Note_on_c, 6, 79, 50
8, 84924, Note_on_c, 6, 79, 0
8, 84960, Note_on_c, 6, 78, 50
8, 85044, Note_on_c, 6, 78, 0
8, 85080, Note_on_c, 6, 76, 50
8, 85164, Note_on_c, 6, 76, 0
8, 85200, Note_on_c, 6, 74, 50
8, 85284, Note_on_c, 6, 74, 0
8, 85320, Note_on_c, 6, 73, 50
8, 85404, Note_on_c, 6, 73, 0
8, 85440, Note_on_c, 6, 74, 50
8, 85524, Note_on_c, 6, 74, 0
8, 85560, Note_on_c, 6, 74, 50
8, 85644, Note_on_c, 6, 74, 0
8, 85680, Note_on_c, 6, 76, 50
8, 85764, Note_on_c, 6, 76, 0
8, 85800, Note_on_c, 6, 78, 50
8, 85884, Note_on_c, 6, 78, 0
8, 85920, Note_on_c, 6, 79, 50
8, 86004, Note_on_c, 6, 79, 0
8, 86040, Note_on_c, 6, 78, 50
8, 86124, Note_on_c, 6, 78, 0
8, 86160, Note_on_c, 6, 81, 50
8, 86244, Note_on_c, 6, 81, 0
8, 86280, Note_on_c, 6, 79, 50
8, 86364, Note_on_c, 6, 79, 0
8, 86400, Note_on_c, 6, 83, 50
8, 86484, Note_on_c, 6, 83, 0
8, 86520, Note_on_c, 6, 81, 50
8, 86604, Note_on_c, 6, 81, 0
8, 86640, Note_on_c, 6, 79, 50
8, 86724, Note_on_c, 6, 79, 0
8, 86760, Note_on_c, 6, 78, 50
8, 86844, Note_on_c, 6, 78, 0
8, 86880, Note_on_c, 6, 76, 50
8, 86964, Note_on_c, 6, 76, 0
8, 87000, Note_on_c, 6, 74, 50
8, 87084, Note_on_c, 6, 74, 0
8, 87120, Note_on_c, 6, 72, 50
8, 87204, Note_on_c, 6, 72, 0
8, 87240, Note_on_c, 6, 71, 50
8, 87324, Note_on_c, 6, 71, 0
8, 87360, Note_on_c, 6, 72, 50
8, 87444, Note_on_c, 6, 72, 0
8, 87480, Note_on_c, 6, 72, 50
8, 87564, Note_on_c, 6, 72, 0
8, 87600, Note_on_c, 6, 74, 50
8, 87684, Note_on_c, 6, 74, 0
8, 87720, Note_on_c, 6, 76, 50
8, 87804, Note_on_c, 6, 76, 0
8, 87840, Note_on_c, 6, 78, 50
8, 87924, Note_on_c, 6, 78, 0
8, 87960, Note_on_c, 6, 76, 50
8, 88044, Note_on_c, 6, 76, 0
8, 88080, Note_on_c, 6, 79, 50
8, 88164, Note_on_c, 6, 79, 0
8, 88200, Note_on_c, 6, 78, 50
8, 88284, Note_on_c, 6, 78, 0
8, 88320, Note_on_c, 6, 81, 50
8, 88404, Note_on_c, 6, 81, 0
8, 88440, Note_on_c, 6, 79, 50
8, 88524, Note_on_c, 6, 79, 0
8, 88560, Note_on_c, 6, 78, 50
8, 88644, Note_on_c, 6, 78, 0
8, 88680, Note_on_c, 6, 76, 50
8, 88764, Note_on_c, 6, 76, 0
8, 88800, Note_on_c, 6, 74, 50
8, 88884, Note_on_c, 6, 74, 0
8, 88920, Note_on_c, 6, 72, 50
8, 89004, Note_on_c, 6, 72, 0
8, 89040, Note_on_c, 6, 81, 50
8, 89124, Note_on_c, 6, 81, 0
8, 89160, Note_on_c, 6, 72, 50
8, 89244, Note_on_c, 6, 72, 0
8, 89280, Note_on_c, 6, 71, 127
8, 89616, Note_on_c, 6, 71, 0
8, 89760, Note_on_c, 6, 79, 127
8, 90096, Note_on_c, 6, 79, 0
8, 90240, Note_on_c, 6, 76, 127
8, 90576, Note_on_c, 6, 76, 0
8, 90720, Note_on_c, 6, 81, 127
8, 91056, Note_on_c, 6, 81, 0
8, 91680, Note_on_c, 6, 83, 127
8, 92016, Note_on_c, 6, 83, 0
8, 92160, Note_on_c, 6, 79, 127
8, 92496, Note_on_c, 6, 79, 0
8, 92640, Note_on_c, 6, 84, 127
8, 92976, Note_on_c, 6, 84, 0
8, 93600, Note_on_c, 6, 86, 127
8, 93936, Note_on_c, 6, 86, 0
8, 94080, Note_on_c, 6, 83, 127
8, 94416, Note_on_c, 6, 83, 0
8, 94560, Note_on_c, 6, 88, 127
8, 95124, Note_on_c, 6, 88, 0
8, 95160, Note_on_c, 6, 86, 127
8, 95244, Note_on_c, 6, 86, 0
8, 95280, Note_on_c, 6, 84, 127
8, 95364, Note_on_c, 6, 84, 0
8, 95400, Note_on_c, 6, 83, 127
8, 95484, Note_on_c, 6, 83, 0
8, 95520, Note_on_c, 6, 84, 127
8, 95604, Note_on_c, 6, 84, 0
8, 95640, Note_on_c, 6, 83, 127
8, 95724, Note_on_c, 6, 83, 0
8, 95760, Note_on_c, 6, 81, 127
8, 95844, Note_on_c, 6, 81, 0
8, 95880, Note_on_c, 6, 79, 127
8, 95964, Note_on_c, 6, 79, 0
8, 96000, Note_on_c, 6, 78, 127
8, 96336, Note_on_c, 6, 78, 0
8, 96480, Note_on_c, 6, 86, 127
8, 96816, Note_on_c, 6, 86, 0
8, 97440, Note_on_c, 6, 83, 127
8, 97776, Note_on_c, 6, 83, 0
8, 97920, Note_on_c, 6, 79, 127
8, 98256, Note_on_c, 6, 79, 0
8, 98400, Note_on_c, 6, 84, 127
8, 98964, Note_on_c, 6, 84, 0
8, 99000, Note_on_c, 6, 83, 127
8, 99084, Note_on_c, 6, 83, 0
8, 99120, Note_on_c, 6, 81, 127
8, 99204, Note_on_c, 6, 81, 0
8, 99240, Note_on_c, 6, 79, 127
8, 99324, Note_on_c, 6, 79, 0
8, 99360, Note_on_c, 6, 81, 127
8, 99444, Note_on_c, 6, 81, 0
8, 99480, Note_on_c, 6, 79, 127
8, 99564, Note_on_c, 6, 79, 0
8, 99600, Note_on_c, 6, 78, 127
8, 99684, Note_on_c, 6, 78, 0
8, 99720, Note_on_c, 6, 76, 127
8, 99804, Note_on_c, 6, 76, 0
8, 99840, Note_on_c, 6, 75, 127
8, 100176, Note_on_c, 6, 75, 0
8, 100320, Note_on_c, 6, 83, 127
8, 100656, Note_on_c, 6, 83, 0
8, 101280, Note_on_c, 6, 79, 127
8, 101616, Note_on_c, 6, 79, 0
8, 101760, Note_on_c, 6, 76, 127
8, 102096, Note_on_c, 6, 76, 0
8, 102240, Note_on_c, 6, 81, 127
8, 102804, Note_on_c, 6, 81, 0
8, 102840, Note_on_c, 6, 79, 127
8, 102924, Note_on_c, 6, 79, 0
8, 102960, Note_on_c, 6, 77, 127
8, 103044, Note_on_c, 6, 77, 0
8, 103080, Note_on_c, 6, 76, 127
8, 103164, Note_on_c, 6, 76, 0
8, 103200, Note_on_c, 6, 77, 127
8, 103284, Note_on_c, 6, 77, 0
8, 103320, Note_on_c, 6, 76, 127
8, 103404, Note_on_c, 6, 76, 0
8, 103440, Note_on_c, 6, 74, 127
8, 103524, Note_on_c, 6, 74, 0
8, 103560, Note_on_c, 6, 72, 127
8, 103644, Note_on_c, 6, 72, 0
8, 103680, Note_on_c, 6, 71, 127
8, 104016, Note_on_c, 6, 71, 0
8, 104160, Note_on_c, 6, 79, 127
8, 104724, Note_on_c, 6, 79, 0
8, 104760, Note_on_c, 6, 77, 127
8, 104844, Note_on_c, 6, 77, 0
8, 104880, Note_on_c, 6, 76, 127
8, 104964, Note_on_c, 6, 76, 0
8, 105000, Note_on_c, 6, 74, 127
8, 105084, Note_on_c, 6, 74, 0
8, 105120, Note_on_c, 6, 76, 127
8, 105204, Note_on_c, 6, 76, 0
8, 105240, Note_on_c, 6, 74, 127
8, 105324, Note_on_c, 6, 74, 0
8, 105360, Note_on_c, 6, 72, 127
8, 105444, Note_on_c, 6, 72, 0
8, 105480, Note_on_c, 6, 71, 127
8, 105564, Note_on_c, 6, 71, 0
8, 105600, Note_on_c, 6, 76, 127
8, 105684, Note_on_c, 6, 76, 0
8, 105720, Note_on_c, 6, 74, 127
8, 105804, Note_on_c, 6, 74, 0
8, 105840, Note_on_c, 6, 72, 127
8, 105924, Note_on_c, 6, 72, 0
8, 105960, Note_on_c, 6, 71, 127
8, 106044, Note_on_c, 6, 71, 0
8, 106080, Note_on_c, 6, 72, 127
8, 106164, Note_on_c, 6, 72, 0
8, 106200, Note_on_c, 6, 71, 127
8, 106284, Note_on_c, 6, 71, 0
8, 106320, Note_on_c, 6, 69, 127
8, 106404, Note_on_c, 6, 69, 0
8, 106440, Note_on_c, 6, 67, 127
8, 106524, Note_on_c, 6, 67, 0
8, 106560, Note_on_c, 6, 72, 127
8, 106644, Note_on_c, 6, 72, 0
8, 106680, Note_on_c, 6, 71, 127
8, 106764, Note_on_c, 6, 71, 0
8, 106800, Note_on_c, 6, 69, 127
8, 106884, Note_on_c, 6, 69, 0
8, 106920, Note_on_c, 6, 67, 127
8, 107004, Note_on_c, 6, 67, 0
8, 107040, Note_on_c, 6, 69, 127
8, 107124, Note_on_c, 6, 69, 0
8, 107160, Note_on_c, 6, 67, 127
8, 107244, Note_on_c, 6, 67, 0
8, 107280, Note_on_c, 6, 66, 127
8, 107364, Note_on_c, 6, 66, 0
8, 107400, Note_on_c, 6, 64, 127
8, 107484, Note_on_c, 6, 64, 0
8, 107520, Note_on_c, 6, 69, 127
8, 107604, Note_on_c, 6, 69, 0
8, 107640, Note_on_c, 6, 67, 127
8, 107724, Note_on_c, 6, 67, 0
8, 107760, Note_on_c, 6, 66, 127
8, 107844, Note_on_c, 6, 66, 0
8, 107880, Note_on_c, 6, 64, 127
8, 107964, Note_on_c, 6, 64, 0
8, 108000, Note_on_c, 6, 66, 127
8, 108084, Note_on_c, 6, 66, 0
8, 108120, Note_on_c, 6, 64, 127
8, 108204, Note_on_c, 6, 64, 0
8, 108240, Note_on_c, 6, 62, 127
8, 108324, Note_on_c, 6, 62, 0
8, 108360, Note_on_c, 6, 61, 127
8, 108444, Note_on_c, 6, 61, 0
8, 108480, Note_on_c, 6, 62, 127
8, 108564, Note_on_c, 6, 62, 0
8, 108600, Note_on_c, 6, 64, 127
8, 108684, Note_on_c, 6, 64, 0
8, 108720, Note_on_c, 6, 62, 127
8, 108804, Note_on_c, 6, 62, 0
8, 108840, Note_on_c, 6, 64, 127
8, 108924, Note_on_c, 6, 64, 0
8, 108960, Note_on_c, 6, 60, 127
8, 109044, Note_on_c, 6, 60, 0
8, 109080, Note_on_c, 6, 62, 127
8, 109164, Note_on_c, 6, 62, 0
8, 109200, Note_on_c, 6, 60, 127
8, 109284, Note_on_c, 6, 60, 0
8, 109320, Note_on_c, 6, 62, 127
8, 109404, Note_on_c, 6, 62, 0
8, 109440, Note_on_c, 6, 59, 127
8, 109680, Note_on_c, 6, 59, 0
8, 109680, Note_on_c, 6, 79, 127
8, 109800, Note_on_c, 6, 79, 0
8, 109920, Note_on_c, 6, 79, 127
8, 110040, Note_on_c, 6, 79, 0
8, 110160, Note_on_c, 6, 79, 127
8, 110280, Note_on_c, 6, 79, 0
8, 110400, Note_on_c, 6, 79, 127
8, 111120, Note_on_c, 6, 79, 0
8, 111120, Note_on_c, 6, 78, 127
8, 111180, Note_on_c, 6, 78, 0
8, 111180, Note_on_c, 6, 76, 127
8, 111240, Note_on_c, 6, 76, 0
8, 111240, Note_on_c, 6, 74, 127
8, 111300, Note_on_c, 6, 74, 0
8, 111300, Note_on_c, 6, 72, 127
8, 111360, Note_on_c, 6, 72, 0
8, 111360, Note_on_c, 6, 71, 127
8, 111480, Note_on_c, 6, 71, 0
8, 111600, Note_on_c, 6, 83, 127
8, 111720, Note_on_c, 6, 83, 0
8, 111840, Note_on_c, 6, 83, 127
8, 111960, Note_on_c, 6, 83, 0
8, 112080, Note_on_c, 6, 83, 127
8, 112200, Note_on_c, 6, 83, 0
8, 112320, Note_on_c, 6, 83, 127
8, 113040, Note_on_c, 6, 83, 0
8, 113040, Note_on_c, 6, 81, 127
8, 113100, Note_on_c, 6, 81, 0
8, 113100, Note_on_c, 6, 79, 127
8, 113160, Note_on_c, 6, 79, 0
8, 113160, Note_on_c, 6, 78, 127
8, 113220, Note_on_c, 6, 78, 0
8, 113220, Note_on_c, 6, 76, 127
8, 113280, Note_on_c, 6, 76, 0
8, 113280, Note_on_c, 6, 74, 127
8, 113400, Note_on_c, 6, 74, 0
8, 113520, Note_on_c, 6, 86, 127
8, 113640, Note_on_c, 6, 86, 0
8, 113760, Note_on_c, 6, 86, 127
8, 113880, Note_on_c, 6, 86, 0
8, 114000, Note_on_c, 6, 86, 127
8, 114120, Note_on_c, 6, 86, 0
8, 114240, Note_on_c, 6, 86, 127
8, 114960, Note_on_c, 6, 86, 0
8, 114960, Note_on_c, 6, 84, 127
8, 115020, Note_on_c, 6, 84, 0
8, 115020, Note_on_c, 6, 83, 127
8, 115080, Note_on_c, 6, 83, 0
8, 115080, Note_on_c, 6, 81, 127
8, 115140, Note_on_c, 6, 81, 0
8, 115140, Note_on_c, 6, 79, 127
8, 115200, Note_on_c, 6, 79, 0
8, 115200, Note_on_c, 6, 88, 127
8, 115920, Note_on_c, 6, 88, 0
8, 115920, Note_on_c, 6, 86, 127
8, 115980, Note_on_c, 6, 86, 0
8, 115980, Note_on_c, 6, 84, 127
8, 116040, Note_on_c, 6, 84, 0
8, 116040, Note_on_c, 6, 83, 127
8, 116100, Note_on_c, 6, 83, 0
8, 116100, Note_on_c, 6, 81, 127
8, 116160, Note_on_c, 6, 81, 0
8, 116160, Note_on_c, 6, 84, 127
8, 116880, Note_on_c, 6, 84, 0
8, 116880, Note_on_c, 6, 83, 127
8, 116940, Note_on_c, 6, 83, 0
8, 116940, Note_on_c, 6, 81, 127
8, 117000, Note_on_c, 6, 81, 0
8, 117000, Note_on_c, 6, 79, 127
8, 117060, Note_on_c, 6, 79, 0
8, 117060, Note_on_c, 6, 78, 127
8, 117120, Note_on_c, 6, 78, 0
8, 117120, Note_on_c, 6, 79, 127
8, 117240, Note_on_c, 6, 79, 0
8, 117240, Note_on_c, 6, 79, 127
8, 117360, Note_on_c, 6, 79, 0
8, 117360, Note_on_c, 6, 79, 127
8, 117480, Note_on_c, 6, 79, 0
8, 117480, Note_on_c, 6, 79, 127
8, 117600, Note_on_c, 6, 79, 0
8, 117600, Note_on_c, 6, 79, 127
8, 117720, Note_on_c, 6, 79, 0
8, 117720, Note_on_c, 6, 79, 127
8, 117840, Note_on_c, 6, 79, 0
8, 117840, Note_on_c, 6, 79, 127
8, 117960, Note_on_c, 6, 79, 0
8, 117960, Note_on_c, 6, 79, 127
8, 118080, Note_on_c, 6, 79, 0
8, 118080, Note_on_c, 6, 79, 127
8, 118200, Note_on_c, 6, 79, 0
8, 118200, Note_on_c, 6, 79, 127
8, 118320, Note_on_c, 6, 79, 0
8, 118320, Note_on_c, 6, 79, 127
8, 118440, Note_on_c, 6, 79, 0
8, 118440, Note_on_c, 6, 79, 127
8, 118560, Note_on_c, 6, 79, 0
8, 118560, Note_on_c, 6, 79, 127
8, 118680, Note_on_c, 6, 79, 0
8, 118680, Note_on_c, 6, 79, 127
8, 118800, Note_on_c, 6, 79, 0
8, 118800, Note_on_c, 6, 79, 127
8, 118920, Note_on_c, 6, 79, 0
8, 118920, Note_on_c, 6, 79, 127
8, 119040, Note_on_c, 6, 79, 0
8, 119040, Note_on_c, 6, 79, 127
8, 119160, Note_on_c, 6, 79, 0
8, 119160, Note_on_c, 6, 83, 127
8, 119280, Note_on_c, 6, 83, 0
8, 119280, Note_on_c, 6, 83, 127
8, 119400, Note_on_c, 6, 83, 0
8, 119400, Note_on_c, 6, 83, 127
8, 119520, Note_on_c, 6, 83, 0
8, 119520, Note_on_c, 6, 83, 127
8, 119640, Note_on_c, 6, 83, 0
8, 119640, Note_on_c, 6, 83, 127
8, 119760, Note_on_c, 6, 83, 0
8, 119760, Note_on_c, 6, 83, 127
8, 119880, Note_on_c, 6, 83, 0
8, 119880, Note_on_c, 6, 83, 127
8, 120000, Note_on_c, 6, 83, 0
8, 120000, Note_on_c, 6, 83, 127
8, 120120, Note_on_c, 6, 83, 0
8, 120120, Note_on_c, 6, 83, 127
8, 120240, Note_on_c, 6, 83, 0
8, 120240, Note_on_c, 6, 83, 127
8, 120360, Note_on_c, 6, 83, 0
8, 120360, Note_on_c, 6, 83, 127
8, 120480, Note_on_c, 6, 83, 0
8, 120480, Note_on_c, 6, 83, 127
8, 120600, Note_on_c, 6, 83, 0
8, 120600, Note_on_c, 6, 83, 127
8, 120720, Note_on_c, 6, 83, 0
8, 120720, Note_on_c, 6, 83, 127
8, 120840, Note_on_c, 6, 83, 0
8, 120840, Note_on_c, 6, 83, 127
8, 120960, Note_on_c, 6, 83, 0
8, 120960, Note_on_c, 6, 84, 127
8, 121080, Note_on_c, 6, 84, 0
8, 121080, Note_on_c, 6, 84, 127
8, 121200, Note_on_c, 6, 84, 0
8, 121200, Note_on_c, 6, 84, 127
8, 121320, Note_on_c, 6, 84, 0
8, 121320, Note_on_c, 6, 84, 127
8, 121440, Note_on_c, 6, 84, 0
8, 121440, Note_on_c, 6, 84, 127
8, 121560, Note_on_c, 6, 84, 0
8, 121560, Note_on_c, 6, 84, 127
8, 121680, Note_on_c, 6, 84, 0
8, 121680, Note_on_c, 6, 84, 127
8, 121800, Note_on_c, 6, 84, 0
8, 121800, Note_on_c, 6, 84, 127
8, 121920, Note_on_c, 6, 84, 0
8, 121920, Note_on_c, 6, 84, 127
8, 122640, Note_on_c, 6, 84, 0
8, 122640, Note_on_c, 6, 83, 127
8, 122760, Note_on_c, 6, 83, 0
8, 122760, Note_on_c, 6, 83, 127
8, 122880, Note_on_c, 6, 83, 0
8, 122880, Note_on_c, 6, 84, 127
8, 123000, Note_on_c, 6, 84, 0
8, 123000, Note_on_c, 6, 84, 127
8, 123120, Note_on_c, 6, 84, 0
8, 123120, Note_on_c, 6, 83, 127
8, 123240, Note_on_c, 6, 83, 0
8, 123240, Note_on_c, 6, 83, 127
8, 123360, Note_on_c, 6, 83, 0
8, 123360, Note_on_c, 6, 84, 127
8, 123480, Note_on_c, 6, 84, 0
8, 123480, Note_on_c, 6, 84, 127
8, 123600, Note_on_c, 6, 84, 0
8, 123600, Note_on_c, 6, 83, 127
8, 123720, Note_on_c, 6, 83, 0
8, 123720, Note_on_c, 6, 83, 127
8, 123840, Note_on_c, 6, 83, 0
8, 123840, Note_on_c, 6, 84, 127
8, 124560, Note_on_c, 6, 84, 0
8, 124560, Note_on_c, 6, 83, 127
8, 124680, Note_on_c, 6, 83, 0
8, 124680, Note_on_c, 6, 83, 127
8, 124800, Note_on_c, 6, 83, 0
8, 124800, Note_on_c, 6, 84, 127
8, 124884, Note_on_c, 6, 84, 0
8, 124920, Note_on_c, 6, 84, 127
8, 125004, Note_on_c, 6, 84, 0
8, 125040, Note_on_c, 6, 83, 127
8, 125124, Note_on_c, 6, 83, 0
8, 125160, Note_on_c, 6, 83, 127
8, 125244, Note_on_c, 6, 83, 0
8, 125280, Note_on_c, 6, 84, 127
8, 125364, Note_on_c, 6, 84, 0
8, 125400, Note_on_c, 6, 84, 127
8, 125484, Note_on_c, 6, 84, 0
8, 125520, Note_on_c, 6, 83, 127
8, 125604, Note_on_c, 6, 83, 0
8, 125640, Note_on_c, 6, 83, 127
8, 125724, Note_on_c, 6, 83, 0
8, 125760, Note_on_c, 6, 85, 127
8, 125844, Note_on_c, 6, 85, 0
8, 125880, Note_on_c, 6, 85, 127
8, 125964, Note_on_c, 6, 85, 0
8, 126000, Note_on_c, 6, 85, 127
8, 126084, Note_on_c, 6, 85, 0
8, 126120, Note_on_c, 6, 85, 127
8, 126204, Note_on_c, 6, 85, 0
8, 126240, Note_on_c, 6, 86, 127
8, 126324, Note_on_c, 6, 86, 0
8, 126360, Note_on_c, 6, 86, 127
8, 126444, Note_on_c, 6, 86, 0
8, 126480, Note_on_c, 6, 86, 127
8, 126564, Note_on_c, 6, 86, 0
8, 126600, Note_on_c, 6, 86, 127
8, 126684, Note_on_c, 6, 86, 0
8, 126720, Note_on_c, 6, 83, 127
8, 126804, Note_on_c, 6, 83, 0
8, 126840, Note_on_c, 6, 83, 127
8, 126924, Note_on_c, 6, 83, 0
8, 126960, Note_on_c, 6, 83, 127
8, 127044, Note_on_c, 6, 83, 0
8, 127080, Note_on_c, 6, 83, 127
8, 127164, Note_on_c, 6, 83, 0
8, 127200, Note_on_c, 6, 83, 127
8, 127284, Note_on_c, 6, 83, 0
8, 127320, Note_on_c, 6, 83, 127
8, 127404, Note_on_c, 6, 83, 0
8, 127440, Note_on_c, 6, 83, 127
8, 127524, Note_on_c, 6, 83, 0
8, 127560, Note_on_c, 6, 83, 127
8, 127644, Note_on_c, 6, 83, 0
8, 127680, Note_on_c, 6, 81, 127
8, 127764, Note_on_c, 6, 81, 0
8, 127800, Note_on_c, 6, 81, 127
8, 127884, Note_on_c, 6, 81, 0
8, 127920, Note_on_c, 6, 81, 127
8, 128004, Note_on_c, 6, 81, 0
8, 128040, Note_on_c, 6, 81, 127
8, 128124, Note_on_c, 6, 81, 0
8, 128160, Note_on_c, 6, 81, 127
8, 128244, Note_on_c, 6, 81, 0
8, 128280, Note_on_c, 6, 81, 127
8, 128364, Note_on_c, 6, 81, 0
8, 128400, Note_on_c, 6, 81, 127
8, 128484, Note_on_c, 6, 81, 0
8, 128520, Note_on_c, 6, 81, 127
8, 128604, Note_on_c, 6, 81, 0
8, 128640, Note_on_c, 6, 79, 127
8, 129120, Note_on_c, 6, 79, 0
8, 130080, Note_on_c, 6, 69, 127
8, 130305, Note_on_c, 6, 69, 0
8, 130440, Note_on_c, 6, 69, 127
8, 130560, Note_on_c, 6, 69, 0
8, 130560, Note_on_c, 6, 69, 127
8, 131280, Note_on_c, 6, 69, 0
8, 131280, Note_on_c, 6, 67, 127
8, 131364, Note_on_c, 6, 67, 0
8, 131400, Note_on_c, 6, 69, 127
8, 131484, Note_on_c, 6, 69, 0
8, 131520, Note_on_c, 6, 71, 127
8, 131604, Note_on_c, 6, 71, 0
8, 131640, Note_on_c, 6, 72, 127
8, 131724, Note_on_c, 6, 72, 0
8, 131760, Note_on_c, 6, 74, 127
8, 131844, Note_on_c, 6, 74, 0
8, 131880, Note_on_c, 6, 76, 127
8, 131964, Note_on_c, 6, 76, 0
8, 132000, Note_on_c, 6, 78, 127
8, 132084, Note_on_c, 6, 78, 0
8, 132120, Note_on_c, 6, 79, 127
8, 132204, Note_on_c, 6, 79, 0
8, 132240, Note_on_c, 6, 81, 127
8, 132324, Note_on_c, 6, 81, 0
8, 132360, Note_on_c, 6, 83, 127
8, 132444, Note_on_c, 6, 83, 0
8, 132480, Note_on_c, 6, 84, 127
8, 132720, Note_on_c, 6, 84, 0
8, 132960, Note_on_c, 6, 72, 127
8, 133185, Note_on_c, 6, 72, 0
8, 133320, Note_on_c, 6, 72, 127
8, 133440, Note_on_c, 6, 72, 0
8, 133440, Note_on_c, 6, 72, 127
8, 134160, Note_on_c, 6, 72, 0
8, 134160, Note_on_c, 6, 71, 127
8, 134244, Note_on_c, 6, 71, 0
8, 134280, Note_on_c, 6, 72, 127
8, 134364, Note_on_c, 6, 72, 0
8, 134400, Note_on_c, 6, 74, 127
8, 134484, Note_on_c, 6, 74, 0
8, 134520, Note_on_c, 6, 76, 127
8, 134604, Note_on_c, 6, 76, 0
8, 134640, Note_on_c, 6, 78, 127
8, 134724, Note_on_c, 6, 78, 0
8, 134760, Note_on_c, 6, 79, 127
8, 134844, Note_on_c, 6, 79, 0
8, 134880, Note_on_c, 6, 81, 127
8, 134964, Note_on_c, 6, 81, 0
8, 135000, Note_on_c, 6, 83, 127
8, 135084, Note_on_c, 6, 83, 0
8, 135120, Note_on_c, 6, 84, 127
8, 135204, Note_on_c, 6, 84, 0
8, 135240, Note_on_c, 6, 86, 127
8, 135324, Note_on_c, 6, 86, 0
8, 135360, Note_on_c, 6, 88, 127
8, 135600, Note_on_c, 6, 88, 0
8, 135840, Note_on_c, 6, 76, 127
8, 136065, Note_on_c, 6, 76, 0
8, 136200, Note_on_c, 6, 76, 127
8, 136320, Note_on_c, 6, 76, 0
8, 136320, Note_on_c, 6, 76, 127
8, 137040, Note_on_c, 6, 76, 0
8, 137040, Note_on_c, 6, 81, 127
8, 137100, Note_on_c, 6, 81, 0
8, 137160, Note_on_c, 6, 79, 127
8, 137220, Note_on_c, 6, 79, 0
8, 137280, Note_on_c, 6, 78, 127
8, 137340, Note_on_c, 6, 78, 0
8, 137400, Note_on_c, 6, 79, 127
8, 137460, Note_on_c, 6, 79, 0
8, 137520, Note_on_c, 6, 78, 127
8, 137580, Note_on_c, 6, 78, 0
8, 137640, Note_on_c, 6, 76, 127
8, 137700, Note_on_c, 6, 76, 0
8, 137760, Note_on_c, 6, 74, 127
8, 137820, Note_on_c, 6, 74, 0
8, 137880, Note_on_c, 6, 76, 127
8, 137940, Note_on_c, 6, 76, 0
8, 138000, Note_on_c, 6, 74, 127
8, 138060, Note_on_c, 6, 74, 0
8, 138120, Note_on_c, 6, 72, 127
8, 138180, Note_on_c, 6, 72, 0
8, 138240, Note_on_c, 6, 71, 127
8, 138300, Note_on_c, 6, 71, 0
8, 138360, Note_on_c, 6, 79, 127
8, 138420, Note_on_c, 6, 79, 0
8, 138480, Note_on_c, 6, 79, 127
8, 138540, Note_on_c, 6, 79, 0
8, 138600, Note_on_c, 6, 79, 127
8, 138660, Note_on_c, 6, 79, 0
8, 138720, Note_on_c, 6, 79, 127
8, 138780, Note_on_c, 6, 79, 0
8, 138840, Note_on_c, 6, 79, 127
8, 138900, Note_on_c, 6, 79, 0
8, 138960, Note_on_c, 6, 79, 127
8, 139020, Note_on_c, 6, 79, 0
8, 139080, Note_on_c, 6, 79, 127
8, 139140, Note_on_c, 6, 79, 0
8, 139200, Note_on_c, 6, 71, 127
8, 139260, Note_on_c, 6, 71, 0
8, 139320, Note_on_c, 6, 79, 127
8, 139380, Note_on_c, 6, 79, 0
8, 139440, Note_on_c, 6, 79, 127
8, 139500, Note_on_c, 6, 79, 0
8, 139560, Note_on_c, 6, 79, 127
8, 139620, Note_on_c, 6, 79, 0
8, 139680, Note_on_c, 6, 79, 127
8, 139740, Note_on_c, 6, 79, 0
8, 139800, Note_on_c, 6, 79, 127
8, 139860, Note_on_c, 6, 79, 0
8, 139920, Note_on_c, 6, 79, 127
8, 139980, Note_on_c, 6, 79, 0
8, 140040, Note_on_c, 6, 79, 127
8, 140100, Note_on_c, 6, 79, 0
8, 140160, Note_on_c, 6, 69, 127
8, 140220, Note_on_c, 6, 69, 0
8, 140280, Note_on_c, 6, 79, 127
8, 140340, Note_on_c, 6, 79, 0
8, 140400, Note_on_c, 6, 79, 127
8, 140460, Note_on_c, 6, 79, 0
8, 140520, Note_on_c, 6, 79, 127
8, 140580, Note_on_c, 6, 79, 0
8, 140640, Note_on_c, 6, 69, 127
8, 140700, Note_on_c, 6, 69, 0
8, 140760, Note_on_c, 6, 78, 127
8, 140820, Note_on_c, 6, 78, 0
8, 140880, Note_on_c, 6, 78, 127
8, 140940, Note_on_c, 6, 78, 0
8, 141000, Note_on_c, 6, 78, 127
8, 141060, Note_on_c, 6, 78, 0
8, 141120, Note_on_c, 6, 71, 127
8, 141180, Note_on_c, 6, 71, 0
8, 141240, Note_on_c, 6, 79, 127
8, 141300, Note_on_c, 6, 79, 0
8, 141360, Note_on_c, 6, 83, 127
8, 141420, Note_on_c, 6, 83, 0
8, 141480, Note_on_c, 6, 79, 127
8, 141540, Note_on_c, 6, 79, 0
8, 141600, Note_on_c, 6, 83, 127
8, 141660, Note_on_c, 6, 83, 0
8, 141720, Note_on_c, 6, 79, 127
8, 141780, Note_on_c, 6, 79, 0
8, 141840, Note_on_c, 6, 83, 127
8, 141900, Note_on_c, 6, 83, 0
8, 141960, Note_on_c, 6, 79, 127
8, 142020, Note_on_c, 6, 79, 0
8, 142080, Note_on_c, 6, 71, 127
8, 142200, Note_on_c, 6, 71, 0
8, 142200, Note_on_c, 6, 79, 127
8, 142320, Note_on_c, 6, 79, 0
8, 142320, Note_on_c, 6, 83, 127
8, 142440, Note_on_c, 6, 83, 0
8, 142440, Note_on_c, 6, 79, 127
8, 142560, Note_on_c, 6, 79, 0
8, 142560, Note_on_c, 6, 83, 127
8, 142680, Note_on_c, 6, 83, 0
8, 142680, Note_on_c, 6, 79, 127
8, 142800, Note_on_c, 6, 79, 0
8, 142800, Note_on_c, 6, 83, 127
8, 142920, Note_on_c, 6, 83, 0
8, 142920, Note_on_c, 6, 79, 127
8, 143040, Note_on_c, 6, 79, 0
8, 143040, Note_on_c, 6, 69, 127
8, 143160, Note_on_c, 6, 69, 0
8, 143160, Note_on_c, 6, 79, 127
8, 143280, Note_on_c, 6, 79, 0
8, 143280, Note_on_c, 6, 81, 127
8, 143400, Note_on_c, 6, 81, 0
8, 143400, Note_on_c, 6, 79, 127
8, 143520, Note_on_c, 6, 79, 0
8, 143520, Note_on_c, 6, 69, 127
8, 143640, Note_on_c, 6, 69, 0
8, 143640, Note_on_c, 6, 78, 127
8, 143760, Note_on_c, 6, 78, 0
8, 143760, Note_on_c, 6, 81, 127
8, 143880, Note_on_c, 6, 81, 0
8, 143880, Note_on_c, 6, 78, 127
8, 144000, Note_on_c, 6, 78, 0
8, 144000, Note_on_c, 6, 79, 127
8, 144240, Note_on_c, 6, 79, 0
8, 144480, Note_on_c, 6, 74, 50
8, 144720, Note_on_c, 6, 74, 0
8, 144960, Note_on_c, 6, 79, 50
8, 145200, Note_on_c, 6, 79, 0
8, 145440, Note_on_c, 6, 83, 50
8, 145680, Note_on_c, 6, 83, 0
8, 145920, Note_on_c, 6, 84, 50
8, 146640, Note_on_c, 6, 84, 0
8, 146640, Note_on_c, 6, 78, 50
8, 146880, Note_on_c, 6, 78, 0
8, 146880, Note_on_c, 6, 79, 50
8, 147120, Note_on_c, 6, 79, 0
8, 147360, Note_on_c, 6, 62, 50
8, 147600, Note_on_c, 6, 62, 0
8, 147840, Note_on_c, 6, 67, 50
8, 148080, Note_on_c, 6, 67, 0
8, 148320, Note_on_c, 6, 71, 50
8, 148560, Note_on_c, 6, 71, 0
8, 148800, Note_on_c, 6, 72, 50
8, 149520, Note_on_c, 6, 72, 0
8, 149520, Note_on_c, 6, 66, 50
8, 149760, Note_on_c, 6, 66, 0
8, 149760, Note_on_c, 6, 67, 50
8, 150240, Note_on_c, 6, 67, 0
8, 150720, Note_on_c, 6, 72, 50
8, 151680, Note_on_c, 6, 72, 0
8, 151680, Note_on_c, 6, 74, 50
8, 152640, Note_on_c, 6, 74, 0
8, 152640, Note_on_c, 6, 77, 50
8, 153600, Note_on_c, 6, 77, 0
8, 153600, Note_on_c, 6, 76, 50
8, 154560, Note_on_c, 6, 76, 0
8, 154800, Note_on_c, 6, 81, 50
8, 154920, Note_on_c, 6, 81, 0
8, 155040, Note_on_c, 6, 81, 50
8, 155160, Note_on_c, 6, 81, 0
8, 155280, Note_on_c, 6, 81, 50
8, 155400, Note_on_c, 6, 81, 0
8, 155520, Note_on_c, 6, 79, 50
8, 156240, Note_on_c, 6, 79, 0
8, 156240, Note_on_c, 6, 77, 50
8, 156297, Note_on_c, 6, 77, 0
8, 156300, Note_on_c, 6, 76, 50
8, 156357, Note_on_c, 6, 76, 0
8, 156360, Note_on_c, 6, 74, 50
8, 156417, Note_on_c, 6, 74, 0
8, 156420, Note_on_c, 6, 72, 50
8, 156477, Note_on_c, 6, 72, 0
8, 156480, Note_on_c, 6, 77, 50
8, 156600, Note_on_c, 6, 77, 0
8, 156720, Note_on_c, 6, 77, 50
8, 156840, Note_on_c, 6, 77, 0
8, 156960, Note_on_c, 6, 76, 50
8, 157080, Note_on_c, 6, 76, 0
8, 157200, Note_on_c, 6, 76, 50
8, 157320, Note_on_c, 6, 76, 0
8, 157440, Note_on_c, 6, 73, 50
8, 157560, Note_on_c, 6, 73, 0
8, 157560, Note_on_c, 6, 74, 50
8, 157680, Note_on_c, 6, 74, 0
8, 157680, Note_on_c, 6, 76, 50
8, 157800, Note_on_c, 6, 76, 0
8, 157800, Note_on_c, 6, 74, 50
8, 157920, Note_on_c, 6, 74, 0
8, 157920, Note_on_c, 6, 72, 50
8, 158040, Note_on_c, 6, 72, 0
8, 158040, Note_on_c, 6, 71, 50
8, 158160, Note_on_c, 6, 71, 0
8, 158160, Note_on_c, 6, 69, 50
8, 158280, Note_on_c, 6, 69, 0
8, 158280, Note_on_c, 6, 67, 50
8, 158400, Note_on_c, 6, 67, 0
8, 158400, Note_on_c, 6, 72, 100
8, 159360, Note_on_c, 6, 72, 0
8, 159360, Note_on_c, 6, 74, 106
8, 160320, Note_on_c, 6, 74, 0
8, 160320, Note_on_c, 6, 77, 113
8, 161280, Note_on_c, 6, 77, 0
8, 161280, Note_on_c, 6, 76, 120
8, 162240, Note_on_c, 6, 76, 0
8, 162480, Note_on_c, 6, 81, 127
8, 162600, Note_on_c, 6, 81, 0
8, 162720, Note_on_c, 6, 81, 127
8, 162840, Note_on_c, 6, 81, 0
8, 162960, Note_on_c, 6, 81, 127
8, 163080, Note_on_c, 6, 81, 0
8, 163200, Note_on_c, 6, 81, 127
8, 163920, Note_on_c, 6, 81, 0
8, 163920, Note_on_c, 6, 79, 127
8, 163980, Note_on_c, 6, 79, 0
8, 163980, Note_on_c, 6, 77, 127
8, 164040, Note_on_c, 6, 77, 0
8, 164040, Note_on_c, 6, 76, 127
8, 164100, Note_on_c, 6, 76, 0
8, 164100, Note_on_c, 6, 74, 127
8, 164160, Note_on_c, 6, 74, 0
8, 164160, Note_on_c, 6, 72, 127
8, 164280, Note_on_c, 6, 72, 0
8, 164400, Note_on_c, 6, 72, 127
8, 164460, Note_on_c, 6, 72, 0
8, 164520, Note_on_c, 6, 72, 127
8, 164580, Note_on_c, 6, 72, 0
8, 164640, Note_on_c, 6, 74, 127
8, 164760, Note_on_c, 6, 74, 0
8, 164880, Note_on_c, 6, 74, 127
8, 164940, Note_on_c, 6, 74, 0
8, 165000, Note_on_c, 6, 74, 127
8, 165060, Note_on_c, 6, 74, 0
8, 165120, Note_on_c, 6, 76, 127
8, 165240, Note_on_c, 6, 76, 0
8, 165360, Note_on_c, 6, 81, 127
8, 165480, Note_on_c, 6, 81, 0
8, 165600, Note_on_c, 6, 81, 127
8, 165720, Note_on_c, 6, 81, 0
8, 165840, Note_on_c, 6, 81, 127
8, 165960, Note_on_c, 6, 81, 0
8, 166080, Note_on_c, 6, 81, 127
8, 166800, Note_on_c, 6, 81, 0
8, 166800, Note_on_c, 6, 84, 127
8, 166920, Note_on_c, 6, 84, 0
8, 166920, Note_on_c, 6, 81, 127
8, 167040, Note_on_c, 6, 81, 0
8, 167040, Note_on_c, 6, 81, 127
8, 167153, Note_on_c, 6, 81, 0
8, 167160, Note_on_c, 6, 79, 127
8, 167273, Note_on_c, 6, 79, 0
8, 167280, Note_on_c, 6, 77, 127
8, 167400, Note_on_c, 6, 77, 0
8, 167400, Note_on_c, 6, 76, 127
8, 167520, Note_on_c, 6, 76, 0
8, 167520, Note_on_c, 6, 76, 127
8, 167633, Note_on_c, 6, 76, 0
8, 167640, Note_on_c, 6, 74, 127
8, 167753, Note_on_c, 6, 74, 0
8, 167760, Note_on_c, 6, 72, 127
8, 167880, Note_on_c, 6, 72, 0
8, 167880, Note_on_c, 6, 71, 127
8, 168000, Note_on_c, 6, 71, 0
8, 168000, Note_on_c, 6, 72, 127
8, 168240, Note_on_c, 6, 72, 0
8, 168480, Note_on_c, 6, 72, 127
8, 168705, Note_on_c, 6, 72, 0
8, 168840, Note_on_c, 6, 72, 127
8, 168960, Note_on_c, 6, 72, 0
8, 168960, Note_on_c, 6, 72, 127
8, 169656, Note_on_c, 6, 72, 0
8, 169680, Note_on_c, 6, 71, 127
8, 169764, Note_on_c, 6, 71, 0
8, 169800, Note_on_c, 6, 69, 127
8, 169884, Note_on_c, 6, 69, 0
8, 169920, Note_on_c, 6, 67, 127
8, 170004, Note_on_c, 6, 67, 0
8, 170040, Note_on_c, 6, 69, 127
8, 170124, Note_on_c, 6, 69, 0
8, 170160, Note_on_c, 6, 67, 127
8, 170244, Note_on_c, 6, 67, 0
8, 170280, Note_on_c, 6, 65, 127
8, 170364, Note_on_c, 6, 65, 0
8, 170400, Note_on_c, 6, 64, 127
8, 170484, Note_on_c, 6, 64, 0
8, 170520, Note_on_c, 6, 65, 127
8, 170604, Note_on_c, 6, 65, 0
8, 170640, Note_on_c, 6, 64, 127
8, 170724, Note_on_c, 6, 64, 0
8, 170760, Note_on_c, 6, 62, 127
8, 170844, Note_on_c, 6, 62, 0
8, 170880, Note_on_c, 6, 60, 127
8, 171120, Note_on_c, 6, 60, 0
8, 171360, Note_on_c, 6, 76, 127
8, 171585, Note_on_c, 6, 76, 0
8, 171720, Note_on_c, 6, 76, 127
8, 171840, Note_on_c, 6, 76, 0
8, 171840, Note_on_c, 6, 76, 127
8, 172440, Note_on_c, 6, 76, 0
8, 172560, Note_on_c, 6, 74, 127
8, 172632, Note_on_c, 6, 74, 0
8, 172680, Note_on_c, 6, 72, 127
8, 172752, Note_on_c, 6, 72, 0
8, 172800, Note_on_c, 6, 71, 127
8, 172872, Note_on_c, 6, 71, 0
8, 172920, Note_on_c, 6, 72, 127
8, 172992, Note_on_c, 6, 72, 0
8, 173040, Note_on_c, 6, 71, 127
8, 173112, Note_on_c, 6, 71, 0
8, 173160, Note_on_c, 6, 69, 127
8, 173232, Note_on_c, 6, 69, 0
8, 173280, Note_on_c, 6, 67, 127
8, 173352, Note_on_c, 6, 67, 0
8, 173400, Note_on_c, 6, 69, 127
8, 173472, Note_on_c, 6, 69, 0
8, 173520, Note_on_c, 6, 67, 127
8, 173592, Note_on_c, 6, 67, 0
8, 173640, Note_on_c, 6, 65, 127
8, 173712, Note_on_c, 6, 65, 0
8, 173760, Note_on_c, 6, 64, 127
8, 173880, Note_on_c, 6, 64, 0
8, 173880, Note_on_c, 6, 67, 127
8, 174000, Note_on_c, 6, 67, 0
8, 174000, Note_on_c, 6, 72, 127
8, 174120, Note_on_c, 6, 72, 0
8, 174120, Note_on_c, 6, 76, 127
8, 174240, Note_on_c, 6, 76, 0
8, 174240, Note_on_c, 6, 79, 127
8, 174360, Note_on_c, 6, 79, 0
8, 174360, Note_on_c, 6, 79, 127
8, 174480, Note_on_c, 6, 79, 0
8, 174480, Note_on_c, 6, 79, 127
8, 174600, Note_on_c, 6, 79, 0
8, 174600, Note_on_c, 6, 79, 127
8, 174720, Note_on_c, 6, 79, 0
8, 174720, Note_on_c, 6, 79, 127
8, 174840, Note_on_c, 6, 79, 0
8, 174840, Note_on_c, 6, 79, 127
8, 174960, Note_on_c, 6, 79, 0
8, 174960, Note_on_c, 6, 79, 127
8, 175080, Note_on_c, 6, 79, 0
8, 175080, Note_on_c, 6, 79, 127
8, 175200, Note_on_c, 6, 79, 0
8, 175200, Note_on_c, 6, 79, 127
8, 175320, Note_on_c, 6, 79, 0
8, 175320, Note_on_c, 6, 79, 127
8, 175440, Note_on_c, 6, 79, 0
8, 175440, Note_on_c, 6, 79, 127
8, 175560, Note_on_c, 6, 79, 0
8, 175560, Note_on_c, 6, 79, 127
8, 175680, Note_on_c, 6, 79, 0
8, 175680, Note_on_c, 6, 79, 127
8, 175764, Note_on_c, 6, 79, 0
8, 175800, Note_on_c, 6, 79, 127
8, 175884, Note_on_c, 6, 79, 0
8, 175920, Note_on_c, 6, 79, 127
8, 176004, Note_on_c, 6, 79, 0
8, 176040, Note_on_c, 6, 79, 127
8, 176124, Note_on_c, 6, 79, 0
8, 176160, Note_on_c, 6, 79, 127
8, 176244, Note_on_c, 6, 79, 0
8, 176280, Note_on_c, 6, 79, 127
8, 176364, Note_on_c, 6, 79, 0
8, 176400, Note_on_c, 6, 81, 127
8, 176484, Note_on_c, 6, 81, 0
8, 176520, Note_on_c, 6, 83, 127
8, 176604, Note_on_c, 6, 83, 0
8, 176640, Note_on_c, 6, 84, 127
8, 176724, Note_on_c, 6, 84, 0
8, 176760, Note_on_c, 6, 79, 127
8, 176844, Note_on_c, 6, 79, 0
8, 176880, Note_on_c, 6, 83, 127
8, 176964, Note_on_c, 6, 83, 0
8, 177000, Note_on_c, 6, 79, 127
8, 177084, Note_on_c, 6, 79, 0
8, 177120, Note_on_c, 6, 84, 127
8, 177204, Note_on_c, 6, 84, 0
8, 177240, Note_on_c, 6, 79, 127
8, 177324, Note_on_c, 6, 79, 0
8, 177360, Note_on_c, 6, 83, 127
8, 177444, Note_on_c, 6, 83, 0
8, 177480, Note_on_c, 6, 79, 127
8, 177564, Note_on_c, 6, 79, 0
8, 177600, Note_on_c, 6, 84, 127
8, 177684, Note_on_c, 6, 84, 0
8, 177720, Note_on_c, 6, 79, 127
8, 177804, Note_on_c, 6, 79, 0
8, 177840, Note_on_c, 6, 83, 127
8, 177924, Note_on_c, 6, 83, 0
8, 177960, Note_on_c, 6, 79, 127
8, 178044, Note_on_c, 6, 79, 0
8, 178080, Note_on_c, 6, 84, 127
8, 178164, Note_on_c, 6, 84, 0
8, 178200, Note_on_c, 6, 79, 127
8, 178284, Note_on_c, 6, 79, 0
8, 178320, Note_on_c, 6, 83, 127
8, 178404, Note_on_c, 6, 83, 0
8, 178440, Note_on_c, 6, 79, 127
8, 178524, Note_on_c, 6, 79, 0
8, 178560, Note_on_c, 6, 84, 127
8, 178644, Note_on_c, 6, 84, 0
8, 178680, Note_on_c, 6, 83, 127
8, 178764, Note_on_c, 6, 83, 0
8, 178800, Note_on_c, 6, 81, 127
8, 178884, Note_on_c, 6, 81, 0
8, 178920, Note_on_c, 6, 79, 127
8, 179004, Note_on_c, 6, 79, 0
8, 179040, Note_on_c, 6, 84, 127
8, 179124, Note_on_c, 6, 84, 0
8, 179160, Note_on_c, 6, 83, 127
8, 179244, Note_on_c, 6, 83, 0
8, 179280, Note_on_c, 6, 81, 127
8, 179364, Note_on_c, 6, 81, 0
8, 179400, Note_on_c, 6, 79, 127
8, 179484, Note_on_c, 6, 79, 0
8, 179520, Note_on_c, 6, 84, 127
8, 179604, Note_on_c, 6, 84, 0
8, 179640, Note_on_c, 6, 83, 127
8, 179724, Note_on_c, 6, 83, 0
8, 179760, Note_on_c, 6, 81, 127
8, 179844, Note_on_c, 6, 81, 0
8, 179880, Note_on_c, 6, 79, 127
8, 179964, Note_on_c, 6, 79, 0
8, 180000, Note_on_c, 6, 77, 127
8, 180084, Note_on_c, 6, 77, 0
8, 180120, Note_on_c, 6, 76, 127
8, 180204, Note_on_c, 6, 76, 0
8, 180240, Note_on_c, 6, 74, 127
8, 180324, Note_on_c, 6, 74, 0
8, 180360, Note_on_c, 6, 72, 127
8, 180444, Note_on_c, 6, 72, 0
8, 180480, Note_on_c, 6, 79, 127
8, 180564, Note_on_c, 6, 79, 0
8, 180600, Note_on_c, 6, 79, 127
8, 180684, Note_on_c, 6, 79, 0
8, 180720, Note_on_c, 6, 83, 127
8, 180804, Note_on_c, 6, 83, 0
8, 180840, Note_on_c, 6, 79, 127
8, 180924, Note_on_c, 6, 79, 0
8, 180960, Note_on_c, 6, 84, 127
8, 181044, Note_on_c, 6, 84, 0
8, 181080, Note_on_c, 6, 79, 127
8, 181164, Note_on_c, 6, 79, 0
8, 181200, Note_on_c, 6, 76, 127
8, 181284, Note_on_c, 6, 76, 0
8, 181320, Note_on_c, 6, 72, 127
8, 181404, Note_on_c, 6, 72, 0
8, 181440, Note_on_c, 6, 79, 127
8, 181560, Note_on_c, 6, 79, 0
8, 181560, Note_on_c, 6, 79, 127
8, 181680, Note_on_c, 6, 79, 0
8, 181680, Note_on_c, 6, 83, 127
8, 181800, Note_on_c, 6, 83, 0
8, 181800, Note_on_c, 6, 79, 127
8, 181920, Note_on_c, 6, 79, 0
8, 181920, Note_on_c, 6, 84, 127
8, 182040, Note_on_c, 6, 84, 0
8, 182040, Note_on_c, 6, 79, 127
8, 182160, Note_on_c, 6, 79, 0
8, 182160, Note_on_c, 6, 76, 127
8, 182280, Note_on_c, 6, 76, 0
8, 182280, Note_on_c, 6, 72, 127
8, 182400, Note_on_c, 6, 72, 0
8, 182400, Note_on_c, 6, 79, 127
8, 182520, Note_on_c, 6, 79, 0
8, 182520, Note_on_c, 6, 79, 127
8, 182640, Note_on_c, 6, 79, 0
8, 182640, Note_on_c, 6, 83, 127
8, 182760, Note_on_c, 6, 83, 0
8, 182760, Note_on_c, 6, 79, 127
8, 182880, Note_on_c, 6, 79, 0
8, 182880, Note_on_c, 6, 84, 127
8, 183000, Note_on_c, 6, 84, 0
8, 183000, Note_on_c, 6, 79, 127
8, 183120, Note_on_c, 6, 79, 0
8, 183120, Note_on_c, 6, 76, 127
8, 183240, Note_on_c, 6, 76, 0
8, 183240, Note_on_c, 6, 72, 127
8, 183360, Note_on_c, 6, 72, 0
8, 183360, Note_on_c, 6, 79, 127
8, 183840, Note_on_c, 6, 79, 0
8, 187200, Note_on_c, 6, 79, 50
8, 188160, Note_on_c, 6, 79, 0
8, 188160, Note_on_c, 6, 81, 50
8, 189120, Note_on_c, 6, 81, 0
8, 189120, Note_on_c, 6, 84, 50
8, 190318, Note_on_c, 6, 84, 0
8, 190320, Note_on_c, 6, 86, 50
8, 190440, Note_on_c, 6, 86, 0
8, 190440, Note_on_c, 6, 84, 50
8, 190560, Note_on_c, 6, 84, 0
8, 190560, Note_on_c, 6, 83, 50
8, 190680, Note_on_c, 6, 83, 0
8, 190800, Note_on_c, 6, 81, 50
8, 190920, Note_on_c, 6, 81, 0
8, 191040, Note_on_c, 6, 79, 50
8, 192238, Note_on_c, 6, 79, 0
8, 192240, Note_on_c, 6, 81, 50
8, 192360, Note_on_c, 6, 81, 0
8, 192360, Note_on_c, 6, 79, 50
8, 192480, Note_on_c, 6, 79, 0
8, 192480, Note_on_c, 6, 77, 50
8, 192600, Note_on_c, 6, 77, 0
8, 192720, Note_on_c, 6, 76, 50
8, 192840, Note_on_c, 6, 76, 0
8, 192960, Note_on_c, 6, 74, 50
8, 193440, Note_on_c, 6, 74, 0
8, 193440, Note_on_c, 6, 81, 50
8, 194158, Note_on_c, 6, 81, 0
8, 194160, Note_on_c, 6, 83, 50
8, 194280, Note_on_c, 6, 83, 0
8, 194280, Note_on_c, 6, 81, 50
8, 194400, Note_on_c, 6, 81, 0
8, 194400, Note_on_c, 6, 79, 50
8, 194520, Note_on_c, 6, 79, 0
8, 194640, Note_on_c, 6, 77, 50
8, 194760, Note_on_c, 6, 77, 0
8, 194880, Note_on_c, 6, 76, 50
8, 196078, Note_on_c, 6, 76, 0
8, 196080, Note_on_c, 6, 81, 50
8, 196200, Note_on_c, 6, 81, 0
8, 196200, Note_on_c, 6, 79, 50
8, 196320, Note_on_c, 6, 79, 0
8, 196320, Note_on_c, 6, 77, 50
8, 196440, Note_on_c, 6, 77, 0
8, 196560, Note_on_c, 6, 76, 50
8, 196680, Note_on_c, 6, 76, 0
8, 196800, Note_on_c, 6, 74, 50
8, 197998, Note_on_c, 6, 74, 0
8, 198000, Note_on_c, 6, 76, 50
8, 198120, Note_on_c, 6, 76, 0
8, 198120, Note_on_c, 6, 74, 50
8, 198240, Note_on_c, 6, 74, 0
8, 198240, Note_on_c, 6, 72, 50
8, 198360, Note_on_c, 6, 72, 0
8, 198480, Note_on_c, 6, 69, 50
8, 198600, Note_on_c, 6, 69, 0
8, 198720, Note_on_c, 6, 65, 50
8, 199200, Note_on_c, 6, 65, 0
8, 199200, Note_on_c, 6, 81, 50
8, 199920, Note_on_c, 6, 81, 0
8, 199920, Note_on_c, 6, 77, 50
8, 200040, Note_on_c, 6, 77, 0
8, 200040, Note_on_c, 6, 74, 50
8, 200160, Note_on_c, 6, 74, 0
8, 200160, Note_on_c, 6, 69, 50
8, 200280, Note_on_c, 6, 69, 0
8, 200400, Note_on_c, 6, 71, 50
8, 200520, Note_on_c, 6, 71, 0
8, 200640, Note_on_c, 6, 72, 127
8, 201600, Note_on_c, 6, 72, 0
8, 201600, Note_on_c, 6, 74, 127
8, 202560, Note_on_c, 6, 74, 0
8, 202560, Note_on_c, 6, 77, 127
8, 203520, Note_on_c, 6, 77, 0
8, 203760, Note_on_c, 6, 76, 127
8, 203880, Note_on_c, 6, 76, 0
8, 204000, Note_on_c, 6, 78, 127
8, 204120, Note_on_c, 6, 78, 0
8, 204240, Note_on_c, 6, 79, 127
8, 204360, Note_on_c, 6, 79, 0
8, 204480, Note_on_c, 6, 83, 127
8, 204540, Note_on_c, 6, 83, 0
8, 204540, Note_on_c, 6, 81, 127
8, 204600, Note_on_c, 6, 81, 0
8, 204600, Note_on_c, 6, 83, 127
8, 204660, Note_on_c, 6, 83, 0
8, 204660, Note_on_c, 6, 81, 127
8, 204720, Note_on_c, 6, 81, 0
8, 204840, Note_on_c, 6, 83, 127
8, 204936, Note_on_c, 6, 83, 0
8, 204960, Note_on_c, 6, 84, 127
8, 205344, Note_on_c, 6, 84, 0
8, 205680, Note_on_c, 6, 74, 127
8, 205800, Note_on_c, 6, 74, 0
8, 205920, Note_on_c, 6, 76, 127
8, 206040, Note_on_c, 6, 76, 0
8, 206160, Note_on_c, 6, 78, 127
8, 206280, Note_on_c, 6, 78, 0
8, 206400, Note_on_c, 6, 81, 127
8, 206460, Note_on_c, 6, 81, 0
8, 206460, Note_on_c, 6, 79, 127
8, 206520, Note_on_c, 6, 79, 0
8, 206520, Note_on_c, 6, 81, 127
8, 206580, Note_on_c, 6, 81, 0
8, 206580, Note_on_c, 6, 79, 127
8, 206640, Note_on_c, 6, 79, 0
8, 206760, Note_on_c, 6, 81, 127
8, 206856, Note_on_c, 6, 81, 0
8, 206880, Note_on_c, 6, 83, 127
8, 207264, Note_on_c, 6, 83, 0
8, 207600, Note_on_c, 6, 72, 127
8, 207720, Note_on_c, 6, 72, 0
8, 207840, Note_on_c, 6, 74, 127
8, 207960, Note_on_c, 6, 74, 0
8, 208080, Note_on_c, 6, 76, 127
8, 208200, Note_on_c, 6, 76, 0
8, 208320, Note_on_c, 6, 79, 127
8, 208380, Note_on_c, 6, 79, 0
8, 208380, Note_on_c, 6, 78, 127
8, 208440, Note_on_c, 6, 78, 0
8, 208440, Note_on_c, 6, 79, 127
8, 208500, Note_on_c, 6, 79, 0
8, 208500, Note_on_c, 6, 78, 127
8, 208560, Note_on_c, 6, 78, 0
8, 208680, Note_on_c, 6, 79, 127
8, 208776, Note_on_c, 6, 79, 0
8, 208800, Note_on_c, 6, 81, 127
8, 209184, Note_on_c, 6, 81, 0
8, 209520, Note_on_c, 6, 71, 127
8, 209640, Note_on_c, 6, 71, 0
8, 209760, Note_on_c, 6, 74, 127
8, 209880, Note_on_c, 6, 74, 0
8, 210000, Note_on_c, 6, 67, 127
8, 210120, Note_on_c, 6, 67, 0
8, 210240, Note_on_c, 6, 83, 127
8, 210576, Note_on_c, 6, 83, 0
8, 210720, Note_on_c, 6, 73, 127
8, 211056, Note_on_c, 6, 73, 0
8, 211200, Note_on_c, 6, 74, 127
8, 211536, Note_on_c, 6, 74, 0
8, 211680, Note_on_c, 6, 86, 127
8, 211905, Note_on_c, 6, 86, 0
8, 212040, Note_on_c, 6, 86, 127
8, 212100, Note_on_c, 6, 86, 0
8, 212160, Note_on_c, 6, 86, 127
8, 212760, Note_on_c, 6, 86, 0
8, 212880, Note_on_c, 6, 85, 127
8, 212964, Note_on_c, 6, 85, 0
8, 213000, Note_on_c, 6, 83, 127
8, 213084, Note_on_c, 6, 83, 0
8, 213120, Note_on_c, 6, 81, 127
8, 213204, Note_on_c, 6, 81, 0
8, 213240, Note_on_c, 6, 83, 127
8, 213324, Note_on_c, 6, 83, 0
8, 213360, Note_on_c, 6, 81, 127
8, 213444, Note_on_c, 6, 81, 0
8, 213480, Note_on_c, 6, 79, 127
8, 213564, Note_on_c, 6, 79, 0
8, 213600, Note_on_c, 6, 78, 127
8, 213684, Note_on_c, 6, 78, 0
8, 213720, Note_on_c, 6, 79, 127
8, 213804, Note_on_c, 6, 79, 0
8, 213840, Note_on_c, 6, 78, 127
8, 213924, Note_on_c, 6, 78, 0
8, 213960, Note_on_c, 6, 76, 127
8, 214044, Note_on_c, 6, 76, 0
8, 214080, Note_on_c, 6, 74, 127
8, 214320, Note_on_c, 6, 74, 0
8, 214560, Note_on_c, 6, 86, 127
8, 214785, Note_on_c, 6, 86, 0
8, 214920, Note_on_c, 6, 86, 127
8, 214980, Note_on_c, 6, 86, 0
8, 215040, Note_on_c, 6, 86, 127
8, 215640, Note_on_c, 6, 86, 0
8, 215760, Note_on_c, 6, 85, 127
8, 215844, Note_on_c, 6, 85, 0
8, 215880, Note_on_c, 6, 83, 127
8, 215964, Note_on_c, 6, 83, 0
8, 216000, Note_on_c, 6, 81, 127
8, 216084, Note_on_c, 6, 81, 0
8, 216120, Note_on_c, 6, 83, 127
8, 216204, Note_on_c, 6, 83, 0
8, 216240, Note_on_c, 6, 81, 127
8, 216324, Note_on_c, 6, 81, 0
8, 216360, Note_on_c, 6, 79, 127
8, 216444, Note_on_c, 6, 79, 0
8, 216480, Note_on_c, 6, 78, 127
8, 216564, Note_on_c, 6, 78, 0
8, 216600, Note_on_c, 6, 79, 127
8, 216684, Note_on_c, 6, 79, 0
8, 216720, Note_on_c, 6, 78, 127
8, 216804, Note_on_c, 6, 78, 0
8, 216840, Note_on_c, 6, 76, 127
8, 216924, Note_on_c, 6, 76, 0
8, 216960, Note_on_c, 6, 74, 127
8, 217044, Note_on_c, 6, 74, 0
8, 217080, Note_on_c, 6, 73, 127
8, 217164, Note_on_c, 6, 73, 0
8, 217200, Note_on_c, 6, 74, 127
8, 217284, Note_on_c, 6, 74, 0
8, 217320, Note_on_c, 6, 76, 127
8, 217404, Note_on_c, 6, 76, 0
8, 217440, Note_on_c, 6, 78, 127
8, 217524, Note_on_c, 6, 78, 0
8, 217560, Note_on_c, 6, 79, 127
8, 217644, Note_on_c, 6, 79, 0
8, 217680, Note_on_c, 6, 81, 127
8, 217764, Note_on_c, 6, 81, 0
8, 217800, Note_on_c, 6, 79, 127
8, 217884, Note_on_c, 6, 79, 0
8, 217920, Note_on_c, 6, 78, 127
8, 218004, Note_on_c, 6, 78, 0
8, 218040, Note_on_c, 6, 76, 127
8, 218124, Note_on_c, 6, 76, 0
8, 218160, Note_on_c, 6, 78, 127
8, 218244, Note_on_c, 6, 78, 0
8, 218280, Note_on_c, 6, 79, 127
8, 218364, Note_on_c, 6, 79, 0
8, 218400, Note_on_c, 6, 81, 127
8, 218484, Note_on_c, 6, 81, 0
8, 218520, Note_on_c, 6, 83, 127
8, 218604, Note_on_c, 6, 83, 0
8, 218640, Note_on_c, 6, 84, 127
8, 218724, Note_on_c, 6, 84, 0
8, 218760, Note_on_c, 6, 83, 127
8, 218844, Note_on_c, 6, 83, 0
8, 218880, Note_on_c, 6, 84, 127
8, 219000, Note_on_c, 6, 84, 0
8, 219000, Note_on_c, 6, 81, 127
8, 219120, Note_on_c, 6, 81, 0
8, 219120, Note_on_c, 6, 78, 127
8, 219240, Note_on_c, 6, 78, 0
8, 219240, Note_on_c, 6, 81, 127
8, 219360, Note_on_c, 6, 81, 0
8, 219360, Note_on_c, 6, 84, 127
8, 219480, Note_on_c, 6, 84, 0
8, 219480, Note_on_c, 6, 81, 127
8, 219600, Note_on_c, 6, 81, 0
8, 219600, Note_on_c, 6, 84, 127
8, 219720, Note_on_c, 6, 84, 0
8, 219720, Note_on_c, 6, 81, 127
8, 219840, Note_on_c, 6, 81, 0
8, 219840, Note_on_c, 6, 84, 127
8, 220320, Note_on_c, 6, 84, 0
8, 221280, Note_on_c, 6, 74, 50
8, 221760, Note_on_c, 6, 74, 0
8, 221760, Note_on_c, 6, 71, 50
8, 222240, Note_on_c, 6, 71, 0
8, 222240, Note_on_c, 6, 76, 50
8, 222838, Note_on_c, 6, 76, 0
8, 222840, Note_on_c, 6, 74, 50
8, 222960, Note_on_c, 6, 74, 0
8, 222960, Note_on_c, 6, 72, 50
8, 223080, Note_on_c, 6, 72, 0
8, 223080, Note_on_c, 6, 71, 50
8, 223200, Note_on_c, 6, 71, 0
8, 223200, Note_on_c, 6, 72, 50
8, 223320, Note_on_c, 6, 72, 0
8, 223320, Note_on_c, 6, 71, 50
8, 223440, Note_on_c, 6, 71, 0
8, 223440, Note_on_c, 6, 69, 50
8, 223560, Note_on_c, 6, 69, 0
8, 223560, Note_on_c, 6, 67, 50
8, 223680, Note_on_c, 6, 67, 0
8, 223680, Note_on_c, 6, 66, 50
8, 224160, Note_on_c, 6, 66, 0
8, 224160, Note_on_c, 6, 74, 50
8, 224640, Note_on_c, 6, 74, 0
8, 227040, Note_on_c, 6, 74, 50
8, 227520, Note_on_c, 6, 74, 0
8, 227520, Note_on_c, 6, 71, 50
8, 228000, Note_on_c, 6, 71, 0
8, 228000, Note_on_c, 6, 76, 50
8, 228598, Note_on_c, 6, 76, 0
8, 228600, Note_on_c, 6, 74, 50
8, 228720, Note_on_c, 6, 74, 0
8, 228720, Note_on_c, 6, 72, 50
8, 228840, Note_on_c, 6, 72, 0
8, 228840, Note_on_c, 6, 71, 50
8, 228960, Note_on_c, 6, 71, 0
8, 228960, Note_on_c, 6, 72, 50
8, 229080, Note_on_c, 6, 72, 0
8, 229080, Note_on_c, 6, 71, 50
8, 229200, Note_on_c, 6, 71, 0
8, 229200, Note_on_c, 6, 69, 50
8, 229320, Note_on_c, 6, 69, 0
8, 229320, Note_on_c, 6, 67, 50
8, 229440, Note_on_c, 6, 67, 0
8, 229440, Note_on_c, 6, 66, 50
8, 229920, Note_on_c, 6, 66, 0
8, 229920, Note_on_c, 6, 74, 50
8, 230400, Note_on_c, 6, 74, 0
8, 232440, Note_on_c, 6, 78, 50
8, 232524, Note_on_c, 6, 78, 0
8, 232560, Note_on_c, 6, 79, 50
8, 232644, Note_on_c, 6, 79, 0
8, 232680, Note_on_c, 6, 81, 50
8, 232764, Note_on_c, 6, 81, 0
8, 232800, Note_on_c, 6, 83, 50
8, 232884, Note_on_c, 6, 83, 0
8, 232920, Note_on_c, 6, 81, 50
8, 233004, Note_on_c, 6, 81, 0
8, 233040, Note_on_c, 6, 84, 50
8, 233124, Note_on_c, 6, 84, 0
8, 233160, Note_on_c, 6, 83, 50
8, 233244, Note_on_c, 6, 83, 0
8, 233280, Note_on_c, 6, 86, 50
8, 233364, Note_on_c, 6, 86, 0
8, 233400, Note_on_c, 6, 84, 50
8, 233484, Note_on_c, 6, 84, 0
8, 233520, Note_on_c, 6, 83, 50
8, 233604, Note_on_c, 6, 83, 0
8, 233640, Note_on_c, 6, 81, 50
8, 233724, Note_on_c, 6, 81, 0
8, 233760, Note_on_c, 6, 79, 50
8, 233844, Note_on_c, 6, 79, 0
8, 233880, Note_on_c, 6, 78, 50
8, 233964, Note_on_c, 6, 78, 0
8, 234000, Note_on_c, 6, 76, 50
8, 234084, Note_on_c, 6, 76, 0
8, 234120, Note_on_c, 6, 74, 50
8, 234204, Note_on_c, 6, 74, 0
8, 234240, Note_on_c, 6, 76, 50
8, 234324, Note_on_c, 6, 76, 0
8, 234360, Note_on_c, 6, 76, 50
8, 234444, Note_on_c, 6, 76, 0
8, 234480, Note_on_c, 6, 78, 50
8, 234564, Note_on_c, 6, 78, 0
8, 234600, Note_on_c, 6, 79, 50
8, 234684, Note_on_c, 6, 79, 0
8, 234720, Note_on_c, 6, 81, 50
8, 234804, Note_on_c, 6, 81, 0
8, 234840, Note_on_c, 6, 80, 50
8, 234924, Note_on_c, 6, 80, 0
8, 234960, Note_on_c, 6, 83, 50
8, 235044, Note_on_c, 6, 83, 0
8, 235080, Note_on_c, 6, 81, 50
8, 235164, Note_on_c, 6, 81, 0
8, 235200, Note_on_c, 6, 84, 50
8, 235284, Note_on_c, 6, 84, 0
8, 235320, Note_on_c, 6, 83, 50
8, 235404, Note_on_c, 6, 83, 0
8, 235440, Note_on_c, 6, 81, 50
8, 235524, Note_on_c, 6, 81, 0
8, 235560, Note_on_c, 6, 79, 50
8, 235644, Note_on_c, 6, 79, 0
8, 235680, Note_on_c, 6, 78, 50
8, 235764, Note_on_c, 6, 78, 0
8, 235800, Note_on_c, 6, 76, 50
8, 235884, Note_on_c, 6, 76, 0
8, 235920, Note_on_c, 6, 74, 50
8, 236004, Note_on_c, 6, 74, 0
8, 236040, Note_on_c, 6, 73, 50
8, 236124, Note_on_c, 6, 73, 0
8, 236160, Note_on_c, 6, 74, 50
8, 236244, Note_on_c, 6, 74, 0
8, 236280, Note_on_c, 6, 74, 50
8, 236364, Note_on_c, 6, 74, 0
8, 236400, Note_on_c, 6, 76, 50
8, 236484, Note_on_c, 6, 76, 0
8, 236520, Note_on_c, 6, 78, 50
8, 236604, Note_on_c, 6, 78, 0
8, 236640, Note_on_c, 6, 79, 50
8, 236724, Note_on_c, 6, 79, 0
8, 236760, Note_on_c, 6, 78, 50
8, 236844, Note_on_c, 6, 78, 0
8, 236880, Note_on_c, 6, 81, 50
8, 236964, Note_on_c, 6, 81, 0
8, 237000, Note_on_c, 6, 79, 50
8, 237084, Note_on_c, 6, 79, 0
8, 237120, Note_on_c, 6, 83, 50
8, 237204, Note_on_c, 6, 83, 0
8, 237240, Note_on_c, 6, 81, 50
8, 237324, Note_on_c, 6, 81, 0
8, 237360, Note_on_c, 6, 79, 50
8, 237444, Note_on_c, 6, 79, 0
8, 237480, Note_on_c, 6, 78, 50
8, 237564, Note_on_c, 6, 78, 0
8, 237600, Note_on_c, 6, 76, 50
8, 237684, Note_on_c, 6, 76, 0
8, 237720, Note_on_c, 6, 74, 50
8, 237804, Note_on_c, 6, 74, 0
8, 237840, Note_on_c, 6, 72, 50
8, 237924, Note_on_c, 6, 72, 0
8, 237960, Note_on_c, 6, 71, 50
8, 238044, Note_on_c, 6, 71, 0
8, 238080, Note_on_c, 6, 72, 50
8, 238164, Note_on_c, 6, 72, 0
8, 238200, Note_on_c, 6, 72, 50
8, 238284, Note_on_c, 6, 72, 0
8, 238320, Note_on_c, 6, 74, 50
8, 238404, Note_on_c, 6, 74, 0
8, 238440, Note_on_c, 6, 76, 50
8, 238524, Note_on_c, 6, 76, 0
8, 238560, Note_on_c, 6, 78, 50
8, 238644, Note_on_c, 6, 78, 0
8, 238680, Note_on_c, 6, 76, 50
8, 238764, Note_on_c, 6, 76, 0
8, 238800, Note_on_c, 6, 79, 50
8, 238884, Note_on_c, 6, 79, 0
8, 238920, Note_on_c, 6, 78, 50
8, 239004, Note_on_c, 6, 78, 0
8, 239040, Note_on_c, 6, 81, 50
8, 239124, Note_on_c, 6, 81, 0
8, 239160, Note_on_c, 6, 79, 50
8, 239244, Note_on_c, 6, 79, 0
8, 239280, Note_on_c, 6, 78, 50
8, 239364, Note_on_c, 6, 78, 0
8, 239400, Note_on_c, 6, 76, 50
8, 239484, Note_on_c, 6, 76, 0
8, 239520, Note_on_c, 6, 74, 50
8, 239604, Note_on_c, 6, 74, 0
8, 239640, Note_on_c, 6, 72, 50
8, 239724, Note_on_c, 6, 72, 0
8, 239760, Note_on_c, 6, 81, 50
8, 239844, Note_on_c, 6, 81, 0
8, 239880, Note_on_c, 6, 72, 50
8, 239964, Note_on_c, 6, 72, 0
8, 240000, Note_on_c, 6, 71, 100
8, 240336, Note_on_c, 6, 71, 0
8, 240480, Note_on_c, 6, 79, 100
8, 240816, Note_on_c, 6, 79, 0
8, 240960, Note_on_c, 6, 76, 100
8, 241296, Note_on_c, 6, 76, 0
8, 241440, Note_on_c, 6, 81, 100
8, 241776, Note_on_c, 6, 81, 0
8, 242400, Note_on_c, 6, 83, 100
8, 242736, Note_on_c, 6, 83, 0
8, 242880, Note_on_c, 6, 79, 100
8, 243216, Note_on_c, 6, 79, 0
8, 243360, Note_on_c, 6, 84, 100
8, 243696, Note_on_c, 6, 84, 0
8, 244320, Note_on_c, 6, 86, 100
8, 244656, Note_on_c, 6, 86, 0
8, 244800, Note_on_c, 6, 83, 100
8, 245136, Note_on_c, 6, 83, 0
8, 245280, Note_on_c, 6, 88, 100
8, 245844, Note_on_c, 6, 88, 0
8, 245880, Note_on_c, 6, 86, 100
8, 245964, Note_on_c, 6, 86, 0
8, 246000, Note_on_c, 6, 84, 100
8, 246084, Note_on_c, 6, 84, 0
8, 246120, Note_on_c, 6, 83, 100
8, 246204, Note_on_c, 6, 83, 0
8, 246240, Note_on_c, 6, 84, 100
8, 246324, Note_on_c, 6, 84, 0
8, 246360, Note_on_c, 6, 83, 100
8, 246444, Note_on_c, 6, 83, 0
8, 246480, Note_on_c, 6, 81, 100
8, 246564, Note_on_c, 6, 81, 0
8, 246600, Note_on_c, 6, 79, 100
8, 246684, Note_on_c, 6, 79, 0
8, 246720, Note_on_c, 6, 78, 100
8, 247056, Note_on_c, 6, 78, 0
8, 247200, Note_on_c, 6, 86, 100
8, 247536, Note_on_c, 6, 86, 0
8, 248160, Note_on_c, 6, 83, 100
8, 248496, Note_on_c, 6, 83, 0
8, 248640, Note_on_c, 6, 79, 100
8, 248976, Note_on_c, 6, 79, 0
8, 249120, Note_on_c, 6, 84, 100
8, 249684, Note_on_c, 6, 84, 0
8, 249720, Note_on_c, 6, 83, 100
8, 249804, Note_on_c, 6, 83, 0
8, 249840, Note_on_c, 6, 81, 100
8, 249924, Note_on_c, 6, 81, 0
8, 249960, Note_on_c, 6, 79, 100
8, 250044, Note_on_c, 6, 79, 0
8, 250080, Note_on_c, 6, 81, 100
8, 250164, Note_on_c, 6, 81, 0
8, 250200, Note_on_c, 6, 79, 100
8, 250284, Note_on_c, 6, 79, 0
8, 250320, Note_on_c, 6, 78, 100
8, 250404, Note_on_c, 6, 78, 0
8, 250440, Note_on_c, 6, 76, 100
8, 250524, Note_on_c, 6, 76, 0
8, 250560, Note_on_c, 6, 75, 100
8, 250896, Note_on_c, 6, 75, 0
8, 251040, Note_on_c, 6, 83, 100
8, 251376, Note_on_c, 6, 83, 0
8, 252000, Note_on_c, 6, 79, 100
8, 252336, Note_on_c, 6, 79, 0
8, 252480, Note_on_c, 6, 76, 100
8, 252816, Note_on_c, 6, 76, 0
8, 252960, Note_on_c, 6, 81, 100
8, 253524, Note_on_c, 6, 81, 0
8, 253560, Note_on_c, 6, 79, 100
8, 253644, Note_on_c, 6, 79, 0
8, 253680, Note_on_c, 6, 77, 100
8, 253764, Note_on_c, 6, 77, 0
8, 253800, Note_on_c, 6, 76, 100
8, 253884, Note_on_c, 6, 76, 0
8, 253920, Note_on_c, 6, 77, 100
8, 254004, Note_on_c, 6, 77, 0
8, 254040, Note_on_c, 6, 76, 100
8, 254124, Note_on_c, 6, 76, 0
8, 254160, Note_on_c, 6, 74, 100
8, 254244, Note_on_c, 6, 74, 0
8, 254280, Note_on_c, 6, 72, 100
8, 254364, Note_on_c, 6, 72, 0
8, 254400, Note_on_c, 6, 71, 100
8, 254736, Note_on_c, 6, 71, 0
8, 254880, Note_on_c, 6, 79, 100
8, 255444, Note_on_c, 6, 79, 0
8, 255480, Note_on_c, 6, 77, 100
8, 255564, Note_on_c, 6, 77, 0
8, 255600, Note_on_c, 6, 76, 100
8, 255684, Note_on_c, 6, 76, 0
8, 255720, Note_on_c, 6, 74, 100
8, 255804, Note_on_c, 6, 74, 0
8, 255840, Note_on_c, 6, 76, 100
8, 255924, Note_on_c, 6, 76, 0
8, 255960, Note_on_c, 6, 74, 100
8, 256044, Note_on_c, 6, 74, 0
8, 256080, Note_on_c, 6, 72, 100
8, 256164, Note_on_c, 6, 72, 0
8, 256200, Note_on_c, 6, 71, 100
8, 256284, Note_on_c, 6, 71, 0
8, 256320, Note_on_c, 6, 76, 100
8, 256404, Note_on_c, 6, 76, 0
8, 256440, Note_on_c, 6, 74, 100
8, 256524, Note_on_c, 6, 74, 0
8, 256560, Note_on_c, 6, 72, 100
8, 256644, Note_on_c, 6, 72, 0
8, 256680, Note_on_c, 6, 71, 100
8, 256764, Note_on_c, 6, 71, 0
8, 256800, Note_on_c, 6, 72, 100
8, 256884, Note_on_c, 6, 72, 0
8, 256920, Note_on_c, 6, 71, 100
8, 257004, Note_on_c, 6, 71, 0
8, 257040, Note_on_c, 6, 69, 100
8, 257124, Note_on_c, 6, 69, 0
8, 257160, Note_on_c, 6, 67, 100
8, 257244, Note_on_c, 6, 67, 0
8, 257280, Note_on_c, 6, 72, 100
8, 257364, Note_on_c, 6, 72, 0
8, 257400, Note_on_c, 6, 71, 100
8, 257484, Note_on_c, 6, 71, 0
8, 257520, Note_on_c, 6, 69, 100
8, 257604, Note_on_c, 6, 69, 0
8, 257640, Note_on_c, 6, 67, 100
8, 257724, Note_on_c, 6, 67, 0
8, 257760, Note_on_c, 6, 69, 100
8, 257844, Note_on_c, 6, 69, 0
8, 257880, Note_on_c, 6, 67, 100
8, 257964, Note_on_c, 6, 67, 0
8, 258000, Note_on_c, 6, 66, 100
8, 258084, Note_on_c, 6, 66, 0
8, 258120, Note_on_c, 6, 64, 100
8, 258204, Note_on_c, 6, 64, 0
8, 258240, Note_on_c, 6, 69, 100
8, 258324, Note_on_c, 6, 69, 0
8, 258360, Note_on_c, 6, 67, 100
8, 258444, Note_on_c, 6, 67, 0
8, 258480, Note_on_c, 6, 66, 100
8, 258564, Note_on_c, 6, 66, 0
8, 258600, Note_on_c, 6, 64, 100
8, 258684, Note_on_c, 6, 64, 0
8, 258720, Note_on_c, 6, 66, 100
8, 258804, Note_on_c, 6, 66, 0
8, 258840, Note_on_c, 6, 64, 100
8, 258924, Note_on_c, 6, 64, 0
8, 258960, Note_on_c, 6, 62, 100
8, 259044, Note_on_c, 6, 62, 0
8, 259080, Note_on_c, 6, 61, 100
8, 259164, Note_on_c, 6, 61, 0
8, 259200, Note_on_c, 6, 62, 100
8, 259284, Note_on_c, 6, 62, 0
8, 259320, Note_on_c, 6, 64, 100
8, 259404, Note_on_c, 6, 64, 0
8, 259440, Note_on_c, 6, 62, 100
8, 259524, Note_on_c, 6, 62, 0
8, 259560, Note_on_c, 6, 64, 100
8, 259644, Note_on_c, 6, 64, 0
8, 259680, Note_on_c, 6, 60, 100
8, 259764, Note_on_c, 6, 60, 0
8, 259800, Note_on_c, 6, 62, 100
8, 259884, Note_on_c, 6, 62, 0
8, 259920, Note_on_c, 6, 60, 100
8, 260004, Note_on_c, 6, 60, 0
8, 260040, Note_on_c, 6, 62, 100
8, 260124, Note_on_c, 6, 62, 0
8, 260160, Note_on_c, 6, 59, 100
8, 260400, Note_on_c, 6, 59, 0
8, 260400, Note_on_c, 6, 79, 100
8, 260520, Note_on_c, 6, 79, 0
8, 260640, Note_on_c, 6, 79, 100
8, 260760, Note_on_c, 6, 79, 0
8, 260880, Note_on_c, 6, 79, 100
8, 261000, Note_on_c, 6, 79, 0
8, 261120, Note_on_c, 6, 79, 100
8, 261840, Note_on_c, 6, 79, 0
8, 261840, Note_on_c, 6, 78, 100
8, 261900, Note_on_c, 6, 78, 0
8, 261900, Note_on_c, 6, 76, 100
8, 261960, Note_on_c, 6, 76, 0
8, 261960, Note_on_c, 6, 74, 100
8, 262020, Note_on_c, 6, 74, 0
8, 262020, Note_on_c, 6, 72, 100
8, 262080, Note_on_c, 6, 72, 0
8, 262080, Note_on_c, 6, 71, 100
8, 262200, Note_on_c, 6, 71, 0
8, 262320, Note_on_c, 6, 83, 100
8, 262440, Note_on_c, 6, 83, 0
8, 262560, Note_on_c, 6, 83, 100
8, 262680, Note_on_c, 6, 83, 0
8, 262800, Note_on_c, 6, 83, 100
8, 262920, Note_on_c, 6, 83, 0
8, 263040, Note_on_c, 6, 83, 100
8, 263760, Note_on_c, 6, 83, 0
8, 263760, Note_on_c, 6, 81, 100
8, 263820, Note_on_c, 6, 81, 0
8, 263820, Note_on_c, 6, 79, 100
8, 263880, Note_on_c, 6, 79, 0
8, 263880, Note_on_c, 6, 78, 100
8, 263940, Note_on_c, 6, 78, 0
8, 263940, Note_on_c, 6, 76, 100
8, 264000, Note_on_c, 6, 76, 0
8, 264000, Note_on_c, 6, 74, 100
8, 264120, Note_on_c, 6, 74, 0
8, 264240, Note_on_c, 6, 86, 100
8, 264360, Note_on_c, 6, 86, 0
8, 264480, Note_on_c, 6, 86, 100
8, 264600, Note_on_c, 6, 86, 0
8, 264720, Note_on_c, 6, 86, 100
8, 264840, Note_on_c, 6, 86, 0
8, 264960, Note_on_c, 6, 86, 100
8, 265680, Note_on_c, 6, 86, 0
8, 265680, Note_on_c, 6, 84, 100
8, 265740, Note_on_c, 6, 84, 0
8, 265740, Note_on_c, 6, 83, 100
8, 265800, Note_on_c, 6, 83, 0
8, 265800, Note_on_c, 6, 81, 100
8, 265860, Note_on_c, 6, 81, 0
8, 265860, Note_on_c, 6, 79, 100
8, 265920, Note_on_c, 6, 79, 0
8, 265920, Note_on_c, 6, 88, 100
8, 266640, Note_on_c, 6, 88, 0
8, 266640, Note_on_c, 6, 86, 100
8, 266700, Note_on_c, 6, 86, 0
8, 266700, Note_on_c, 6, 84, 100
8, 266760, Note_on_c, 6, 84, 0
8, 266760, Note_on_c, 6, 83, 100
8, 266820, Note_on_c, 6, 83, 0
8, 266820, Note_on_c, 6, 81, 100
8, 266880, Note_on_c, 6, 81, 0
8, 266880, Note_on_c, 6, 84, 100
8, 267600, Note_on_c, 6, 84, 0
8, 267600, Note_on_c, 6, 83, 100
8, 267660, Note_on_c, 6, 83, 0
8, 267660, Note_on_c, 6, 81, 100
8, 267720, Note_on_c, 6, 81, 0
8, 267720, Note_on_c, 6, 79, 100
8, 267780, Note_on_c, 6, 79, 0
8, 267780, Note_on_c, 6, 78, 100
8, 267840, Note_on_c, 6, 78, 0
8, 267840, Note_on_c, 6, 79, 100
8, 267960, Note_on_c, 6, 79, 0
8, 267960, Note_on_c, 6, 79, 100
8, 268080, Note_on_c, 6, 79, 0
8, 268080, Note_on_c, 6, 79, 100
8, 268200, Note_on_c, 6, 79, 0
8, 268200, Note_on_c, 6, 79, 100
8, 268320, Note_on_c, 6, 79, 0
8, 268320, Note_on_c, 6, 79, 100
8, 268440, Note_on_c, 6, 79, 0
8, 268440, Note_on_c, 6, 79, 100
8, 268560, Note_on_c, 6, 79, 0
8, 268560, Note_on_c, 6, 79, 100
8, 268680, Note_on_c, 6, 79, 0
8, 268680, Note_on_c, 6, 79, 100
8, 268800, Note_on_c, 6, 79, 0
8, 268800, Note_on_c, 6, 79, 100
8, 268920, Note_on_c, 6, 79, 0
8, 268920, Note_on_c, 6, 79, 100
8, 269040, Note_on_c, 6, 79, 0
8, 269040, Note_on_c, 6, 79, 100
8, 269160, Note_on_c, 6, 79, 0
8, 269160, Note_on_c, 6, 79, 100
8, 269280, Note_on_c, 6, 79, 0
8, 269280, Note_on_c, 6, 79, 100
8, 269400, Note_on_c, 6, 79, 0
8, 269400, Note_on_c, 6, 79, 100
8, 269520, Note_on_c, 6, 79, 0
8, 269520, Note_on_c, 6, 79, 100
8, 269640, Note_on_c, 6, 79, 0
8, 269640, Note_on_c, 6, 79, 100
8, 269760, Note_on_c, 6, 79, 0
8, 269760, Note_on_c, 6, 79, 100
8, 269880, Note_on_c, 6, 79, 0
8, 269880, Note_on_c, 6, 83, 100
8, 270000, Note_on_c, 6, 83, 0
8, 270000, Note_on_c, 6, 83, 100
8, 270120, Note_on_c, 6, 83, 0
8, 270120, Note_on_c, 6, 83, 100
8, 270240, Note_on_c, 6, 83, 0
8, 270240, Note_on_c, 6, 83, 100
8, 270360, Note_on_c, 6, 83, 0
8, 270360, Note_on_c, 6, 83, 100
8, 270480, Note_on_c, 6, 83, 0
8, 270480, Note_on_c, 6, 83, 100
8, 270600, Note_on_c, 6, 83, 0
8, 270600, Note_on_c, 6, 83, 100
8, 270720, Note_on_c, 6, 83, 0
8, 270720, Note_on_c, 6, 83, 100
8, 270840, Note_on_c, 6, 83, 0
8, 270840, Note_on_c, 6, 83, 100
8, 270960, Note_on_c, 6, 83, 0
8, 270960, Note_on_c, 6, 83, 100
8, 271080, Note_on_c, 6, 83, 0
8, 271080, Note_on_c, 6, 83, 100
8, 271200, Note_on_c, 6, 83, 0
8, 271200, Note_on_c, 6, 83, 100
8, 271320, Note_on_c, 6, 83, 0
8, 271320, Note_on_c, 6, 83, 100
8, 271440, Note_on_c, 6, 83, 0
8, 271440, Note_on_c, 6, 83, 100
8, 271560, Note_on_c, 6, 83, 0
8, 271560, Note_on_c, 6, 83, 100
8, 271680, Note_on_c, 6, 83, 0
8, 271680, Note_on_c, 6, 84, 100
8, 271800, Note_on_c, 6, 84, 0
8, 271800, Note_on_c, 6, 84, 100
8, 271920, Note_on_c, 6, 84, 0
8, 271920, Note_on_c, 6, 84, 100
8, 272040, Note_on_c, 6, 84, 0
8, 272040, Note_on_c, 6, 84, 100
8, 272160, Note_on_c, 6, 84, 0
8, 272160, Note_on_c, 6, 84, 100
8, 272280, Note_on_c, 6, 84, 0
8, 272280, Note_on_c, 6, 84, 100
8, 272400, Note_on_c, 6, 84, 0
8, 272400, Note_on_c, 6, 84, 100
8, 272520, Note_on_c, 6, 84, 0
8, 272520, Note_on_c, 6, 84, 100
8, 272640, Note_on_c, 6, 84, 0
8, 272640, Note_on_c, 6, 84, 100
8, 273360, Note_on_c, 6, 84, 0
8, 273360, Note_on_c, 6, 83, 100
8, 273480, Note_on_c, 6, 83, 0
8, 273480, Note_on_c, 6, 83, 100
8, 273600, Note_on_c, 6, 83, 0
8, 273600, Note_on_c, 6, 84, 100
8, 273720, Note_on_c, 6, 84, 0
8, 273720, Note_on_c, 6, 84, 100
8, 273840, Note_on_c, 6, 84, 0
8, 273840, Note_on_c, 6, 83, 100
8, 273960, Note_on_c, 6, 83, 0
8, 273960, Note_on_c, 6, 83, 100
8, 274080, Note_on_c, 6, 83, 0
8, 274080, Note_on_c, 6, 84, 100
8, 274200, Note_on_c, 6, 84, 0
8, 274200, Note_on_c, 6, 84, 100
8, 274320, Note_on_c, 6, 84, 0
8, 274320, Note_on_c, 6, 83, 100
8, 274440, Note_on_c, 6, 83, 0
8, 274440, Note_on_c, 6, 83, 100
8, 274560, Note_on_c, 6, 83, 0
8, 274560, Note_on_c, 6, 84, 100
8, 275280, Note_on_c, 6, 84, 0
8, 275280, Note_on_c, 6, 83, 100
8, 275400, Note_on_c, 6, 83, 0
8, 275400, Note_on_c, 6, 83, 100
8, 275520, Note_on_c, 6, 83, 0
8, 275520, Note_on_c, 6, 84, 100
8, 275604, Note_on_c, 6, 84, 0
8, 275640, Note_on_c, 6, 84, 100
8, 275724, Note_on_c, 6, 84, 0
8, 275760, Note_on_c, 6, 83, 100
8, 275844, Note_on_c, 6, 83, 0
8, 275880, Note_on_c, 6, 83, 100
8, 275964, Note_on_c, 6, 83, 0
8, 276000, Note_on_c, 6, 84, 100
8, 276084, Note_on_c, 6, 84, 0
8, 276120, Note_on_c, 6, 84, 100
8, 276204, Note_on_c, 6, 84, 0
8, 276240, Note_on_c, 6, 83, 100
8, 276324, Note_on_c, 6, 83, 0
8, 276360, Note_on_c, 6, 83, 100
8, 276444, Note_on_c, 6, 83, 0
8, 276480, Note_on_c, 6, 85, 100
8, 276564, Note_on_c, 6, 85, 0
8, 276600, Note_on_c, 6, 85, 100
8, 276684, Note_on_c, 6, 85, 0
8, 276720, Note_on_c, 6, 85, 100
8, 276804, Note_on_c, 6, 85, 0
8, 276840, Note_on_c, 6, 85, 100
8, 276924, Note_on_c, 6, 85, 0
8, 276960, Note_on_c, 6, 86, 100
8, 277044, Note_on_c, 6, 86, 0
8, 277080, Note_on_c, 6, 86, 100
8, 277164, Note_on_c, 6, 86, 0
8, 277200, Note_on_c, 6, 86, 100
8, 277284, Note_on_c, 6, 86, 0
8, 277320, Note_on_c, 6, 86, 100
8, 277404, Note_on_c, 6, 86, 0
8, 277440, Note_on_c, 6, 83, 100
8, 277524, Note_on_c, 6, 83, 0
8, 277560, Note_on_c, 6, 83, 100
8, 277644, Note_on_c, 6, 83, 0
8, 277680, Note_on_c, 6, 83, 100
8, 277764, Note_on_c, 6, 83, 0
8, 277800, Note_on_c, 6, 83, 100
8, 277884, Note_on_c, 6, 83, 0
8, 277920, Note_on_c, 6, 83, 100
8, 278004, Note_on_c, 6, 83, 0
8, 278040, Note_on_c, 6, 83, 100
8, 278124, Note_on_c, 6, 83, 0
8, 278160, Note_on_c, 6, 83, 100
8, 278244, Note_on_c, 6, 83, 0
8, 278280, Note_on_c, 6, 83, 100
8, 278364, Note_on_c, 6, 83, 0
8, 278400, Note_on_c, 6, 81, 100
8, 278484, Note_on_c, 6, 81, 0
8, 278520, Note_on_c, 6, 81, 100
8, 278604, Note_on_c, 6, 81, 0
8, 278640, Note_on_c, 6, 81, 100
8, 278724, Note_on_c, 6, 81, 0
8, 278760, Note_on_c, 6, 81, 100
8, 278844, Note_on_c, 6, 81, 0
8, 278880, Note_on_c, 6, 81, 100
8, 278964, Note_on_c, 6, 81, 0
8, 279000, Note_on_c, 6, 81, 100
8, 279084, Note_on_c, 6, 81, 0
8, 279120, Note_on_c, 6, 81, 100
8, 279204, Note_on_c, 6, 81, 0
8, 279240, Note_on_c, 6, 81, 100
8, 279324, Note_on_c, 6, 81, 0
8, 279360, Note_on_c, 6, 79, 100
8, 279840, Note_on_c, 6, 79, 0
8, 280800, Note_on_c, 6, 69, 100
8, 281025, Note_on_c, 6, 69, 0
8, 281160, Note_on_c, 6, 69, 100
8, 281280, Note_on_c, 6, 69, 0
8, 281280, Note_on_c, 6, 69, 100
8, 282000, Note_on_c, 6, 69, 0
8, 282000, Note_on_c, 6, 67, 100
8, 282084, Note_on_c, 6, 67, 0
8, 282120, Note_on_c, 6, 69, 100
8, 282204, Note_on_c, 6, 69, 0
8, 282240, Note_on_c, 6, 71, 100
8, 282324, Note_on_c, 6, 71, 0
8, 282360, Note_on_c, 6, 72, 100
8, 282444, Note_on_c, 6, 72, 0
8, 282480, Note_on_c, 6, 74, 100
8, 282564, Note_on_c, 6, 74, 0
8, 282600, Note_on_c, 6, 76, 100
8, 282684, Note_on_c, 6, 76, 0
8, 282720, Note_on_c, 6, 78, 100
8, 282804, Note_on_c, 6, 78, 0
8, 282840, Note_on_c, 6, 79, 100
8, 282924, Note_on_c, 6, 79, 0
8, 282960, Note_on_c, 6, 81, 100
8, 283044, Note_on_c, 6, 81, 0
8, 283080, Note_on_c, 6, 83, 100
8, 283164, Note_on_c, 6, 83, 0
8, 283200, Note_on_c, 6, 84, 100
8, 283440, Note_on_c, 6, 84, 0
8, 283680, Note_on_c, 6, 72, 100
8, 283905, Note_on_c, 6, 72, 0
8, 284040, Note_on_c, 6, 72, 100
8, 284160, Note_on_c, 6, 72, 0
8, 284160, Note_on_c, 6, 72, 100
8, 284880, Note_on_c, 6, 72, 0
8, 284880, Note_on_c, 6, 71, 100
8, 284964, Note_on_c, 6, 71, 0
8, 285000, Note_on_c, 6, 72, 100
8, 285084, Note_on_c, 6, 72, 0
8, 285120, Note_on_c, 6, 74, 100
8, 285204, Note_on_c, 6, 74, 0
8, 285240, Note_on_c, 6, 76, 100
8, 285324, Note_on_c, 6, 76, 0
8, 285360, Note_on_c, 6, 78, 100
8, 285444, Note_on_c, 6, 78, 0
8, 285480, Note_on_c, 6, 79, 100
8, 285564, Note_on_c, 6, 79, 0
8, 285600, Note_on_c, 6, 81, 100
8, 285684, Note_on_c, 6, 81, 0
8, 285720, Note_on_c, 6, 83, 100
8, 285804, Note_on_c, 6, 83, 0
8, 285840, Note_on_c, 6, 84, 100
8, 285924, Note_on_c, 6, 84, 0
8, 285960, Note_on_c, 6, 86, 100
8, 286044, Note_on_c, 6, 86, 0
8, 286080, Note_on_c, 6, 88, 100
8, 286320, Note_on_c, 6, 88, 0
8, 286560, Note_on_c, 6, 76, 100
8, 286785, Note_on_c, 6, 76, 0
8, 286920, Note_on_c, 6, 76, 100
8, 287040, Note_on_c, 6, 76, 0
8, 287040, Note_on_c, 6, 76, 100
8, 287760, Note_on_c, 6, 76, 0
8, 287760, Note_on_c, 6, 81, 100
8, 287820, Note_on_c, 6, 81, 0
8, 287880, Note_on_c, 6, 79, 100
8, 287940, Note_on_c, 6, 79, 0
8, 288000, Note_on_c, 6, 78, 100
8, 288060, Note_on_c, 6, 78, 0
8, 288120, Note_on_c, 6, 79, 100
8, 288180, Note_on_c, 6, 79, 0
8, 288240, Note_on_c, 6, 78, 100
8, 288300, Note_on_c, 6, 78, 0
8, 288360, Note_on_c, 6, 76, 100
8, 288420, Note_on_c, 6, 76, 0
8, 288480, Note_on_c, 6, 74, 100
8, 288540, Note_on_c, 6, 74, 0
8, 288600, Note_on_c, 6, 76, 100
8, 288660, Note_on_c, 6, 76, 0
8, 288720, Note_on_c, 6, 74, 100
8, 288780, Note_on_c, 6, 74, 0
8, 288840, Note_on_c, 6, 72, 100
8, 288900, Note_on_c, 6, 72, 0
8, 288960, Note_on_c, 6, 71, 100
8, 289020, Note_on_c, 6, 71, 0
8, 289080, Note_on_c, 6, 79, 100
8, 289140, Note_on_c, 6, 79, 0
8, 289200, Note_on_c, 6, 79, 100
8, 289260, Note_on_c, 6, 79, 0
8, 289320, Note_on_c, 6, 79, 100
8, 289380, Note_on_c, 6, 79, 0
8, 289440, Note_on_c, 6, 79, 100
8, 289500, Note_on_c, 6, 79, 0
8, 289560, Note_on_c, 6, 79, 100
8, 289620, Note_on_c, 6, 79, 0
8, 289680, Note_on_c, 6, 79, 100
8, 289740, Note_on_c, 6, 79, 0
8, 289800, Note_on_c, 6, 79, 100
8, 289860, Note_on_c, 6, 79, 0
8, 289920, Note_on_c, 6, 71, 100
8, 289980, Note_on_c, 6, 71, 0
8, 290040, Note_on_c, 6, 79, 100
8, 290100, Note_on_c, 6, 79, 0
8, 290160, Note_on_c, 6, 79, 100
8, 290220, Note_on_c, 6, 79, 0
8, 290280, Note_on_c, 6, 79, 100
8, 290340, Note_on_c, 6, 79, 0
8, 290400, Note_on_c, 6, 79, 100
8, 290460, Note_on_c, 6, 79, 0
8, 290520, Note_on_c, 6, 79, 100
8, 290580, Note_on_c, 6, 79, 0
8, 290640, Note_on_c, 6, 79, 100
8, 290700, Note_on_c, 6, 79, 0
8, 290760, Note_on_c, 6, 79, 100
8, 290820, Note_on_c, 6, 79, 0
8, 290880, Note_on_c, 6, 69, 100
8, 290940, Note_on_c, 6, 69, 0
8, 291000, Note_on_c, 6, 79, 100
8, 291060, Note_on_c, 6, 79, 0
8, 291120, Note_on_c, 6, 79, 100
8, 291180, Note_on_c, 6, 79, 0
8, 291240, Note_on_c, 6, 79, 100
8, 291300, Note_on_c, 6, 79, 0
8, 291360, Note_on_c, 6, 69, 100
8, 291420, Note_on_c, 6, 69, 0
8, 291480, Note_on_c, 6, 78, 100
8, 291540, Note_on_c, 6, 78, 0
8, 291600, Note_on_c, 6, 78, 100
8, 291660, Note_on_c, 6, 78, 0
8, 291720, Note_on_c, 6, 78, 100
8, 291780, Note_on_c, 6, 78, 0
8, 291840, Note_on_c, 6, 71, 100
8, 291900, Note_on_c, 6, 71, 0
8, 291960, Note_on_c, 6, 79, 100
8, 292020, Note_on_c, 6, 79, 0
8, 292080, Note_on_c, 6, 83, 100
8, 292140, Note_on_c, 6, 83, 0
8, 292200, Note_on_c, 6, 79, 100
8, 292260, Note_on_c, 6, 79, 0
8, 292320, Note_on_c, 6, 83, 100
8, 292380, Note_on_c, 6, 83, 0
8, 292440, Note_on_c, 6, 79, 100
8, 292500, Note_on_c, 6, 79, 0
8, 292560, Note_on_c, 6, 83, 100
8, 292620, Note_on_c, 6, 83, 0
8, 292680, Note_on_c, 6, 79, 100
8, 292740, Note_on_c, 6, 79, 0
8, 292800, Note_on_c, 6, 71, 100
8, 292920, Note_on_c, 6, 71, 0
8, 292920, Note_on_c, 6, 79, 100
8, 293040, Note_on_c, 6, 79, 0
8, 293040, Note_on_c, 6, 83, 100
8, 293160, Note_on_c, 6, 83, 0
8, 293160, Note_on_c, 6, 79, 100
8, 293280, Note_on_c, 6, 79, 0
8, 293280, Note_on_c, 6, 83, 100
8, 293400, Note_on_c, 6, 83, 0
8, 293400, Note_on_c, 6, 79, 100
8, 293520, Note_on_c, 6, 79, 0
8, 293520, Note_on_c, 6, 83, 100
8, 293640, Note_on_c, 6, 83, 0
8, 293640, Note_on_c, 6, 79, 100
8, 293760, Note_on_c, 6, 79, 0
8, 293760, Note_on_c, 6, 69, 100
8, 293880, Note_on_c, 6, 69, 0
8, 293880, Note_on_c, 6, 79, 100
8, 294000, Note_on_c, 6, 79, 0
8, 294000, Note_on_c, 6, 81, 100
8, 294120, Note_on_c, 6, 81, 0
8, 294120, Note_on_c, 6, 79, 100
8, 294240, Note_on_c, 6, 79, 0
8, 294240, Note_on_c, 6, 69, 100
8, 294360, Note_on_c, 6, 69, 0
8, 294360, Note_on_c, 6, 78, 100
8, 294480, Note_on_c, 6, 78, 0
8, 294480, Note_on_c, 6, 81, 100
8, 294600, Note_on_c, 6, 81, 0
8, 294600, Note_on_c, 6, 78, 100
8, 294720, Note_on_c, 6, 78, 0
8, 294720, Note_on_c, 6, 79, 100
8, 294960, Note_on_c, 6, 79, 0
8, 295200, Note_on_c, 6, 74, 50
8, 295440, Note_on_c, 6, 74, 0
8, 295680, Note_on_c, 6, 79, 50
8, 295920, Note_on_c, 6, 79, 0
8, 296160, Note_on_c, 6, 83, 50
8, 296400, Note_on_c, 6, 83, 0
8, 296640, Note_on_c, 6, 84, 50
8, 297360, Note_on_c, 6, 84, 0
8, 297360, Note_on_c, 6, 78, 50
8, 297600, Note_on_c, 6, 78, 0
8, 297600, Note_on_c, 6, 79, 50
8, 297840, Note_on_c, 6, 79, 0
8, 298080, Note_on_c, 6, 62, 50
8, 298320, Note_on_c, 6, 62, 0
8, 298560, Note_on_c, 6, 67, 50
8, 298800, Note_on_c, 6, 67, 0
8, 299040, Note_on_c, 6, 71, 50
8, 299280, Note_on_c, 6, 71, 0
8, 299520, Note_on_c, 6, 72, 50
8, 300240, Note_on_c, 6, 72, 0
8, 300240, Note_on_c, 6, 66, 50
8, 300480, Note_on_c, 6, 66, 0
8, 300480, Note_on_c, 6, 67, 50
8, 300960, Note_on_c, 6, 67, 0
8, 301440, Note_on_c, 6, 67, 50
8, 302400, Note_on_c, 6, 67, 0
8, 302400, Note_on_c, 6, 69, 50
8, 303360, Note_on_c, 6, 69, 0
8, 303360, Note_on_c, 6, 72, 50
8, 304320, Note_on_c, 6, 72, 0
8, 304320, Note_on_c, 6, 71, 50
8, 305280, Note_on_c, 6, 71, 0
8, 305280, Note_on_c, 6, 72, 50
8, 306720, Note_on_c, 6, 72, 0
8, 306720, Note_on_c, 6, 62, 50
8, 307680, Note_on_c, 6, 62, 0
8, 309120, Note_on_c, 6, 76, 50
8, 310080, Note_on_c, 6, 76, 0
8, 310080, Note_on_c, 6, 78, 50
8, 311040, Note_on_c, 6, 78, 0
8, 311040, Note_on_c, 6, 81, 50
8, 312000, Note_on_c, 6, 81, 0
8, 312000, Note_on_c, 6, 80, 50
8, 312480, Note_on_c, 6, 80, 0
8, 312480, Note_on_c, 6, 76, 50
8, 313440, Note_on_c, 6, 76, 0
8, 313440, Note_on_c, 6, 74, 50
8, 313680, Note_on_c, 6, 74, 0
8, 313680, Note_on_c, 6, 72, 50
8, 313872, Note_on_c, 6, 72, 0
8, 313920, Note_on_c, 6, 72, 50
8, 314400, Note_on_c, 6, 72, 0
8, 314400, Note_on_c, 6, 71, 50
8, 314640, Note_on_c, 6, 71, 0
8, 314640, Note_on_c, 6, 69, 50
8, 314880, Note_on_c, 6, 69, 0
8, 314880, Note_on_c, 6, 68, 50
8, 315360, Note_on_c, 6, 68, 0
8, 315840, Note_on_c, 6, 81, 127
8, 316065, Note_on_c, 6, 81, 0
8, 316200, Note_on_c, 6, 81, 127
8, 316320, Note_on_c, 6, 81, 0
8, 316320, Note_on_c, 6, 81, 127
8, 317040, Note_on_c, 6, 81, 0
8, 317040, Note_on_c, 6, 79, 127
8, 317124, Note_on_c, 6, 79, 0
8, 317160, Note_on_c, 6, 77, 127
8, 317244, Note_on_c, 6, 77, 0
8, 317280, Note_on_c, 6, 76, 127
8, 317364, Note_on_c, 6, 76, 0
8, 317400, Note_on_c, 6, 77, 127
8, 317484, Note_on_c, 6, 77, 0
8, 317520, Note_on_c, 6, 76, 127
8, 317604, Note_on_c, 6, 76, 0
8, 317640, Note_on_c, 6, 74, 127
8, 317724, Note_on_c, 6, 74, 0
8, 317760, Note_on_c, 6, 73, 127
8, 318000, Note_on_c, 6, 73, 0
8, 318000, Note_on_c, 6, 76, 127
8, 318240, Note_on_c, 6, 76, 0
8, 318240, Note_on_c, 6, 69, 127
8, 318720, Note_on_c, 6, 69, 0
8, 319200, Note_on_c, 6, 86, 127
8, 319425, Note_on_c, 6, 86, 0
8, 319560, Note_on_c, 6, 86, 127
8, 319680, Note_on_c, 6, 86, 0
8, 319680, Note_on_c, 6, 86, 127
8, 320400, Note_on_c, 6, 86, 0
8, 320400, Note_on_c, 6, 84, 127
8, 320484, Note_on_c, 6, 84, 0
8, 320520, Note_on_c, 6, 83, 127
8, 320604, Note_on_c, 6, 83, 0
8, 320640, Note_on_c, 6, 81, 127
8, 320724, Note_on_c, 6, 81, 0
8, 320760, Note_on_c, 6, 83, 127
8, 320844, Note_on_c, 6, 83, 0
8, 320880, Note_on_c, 6, 81, 127
8, 320964, Note_on_c, 6, 81, 0
8, 321000, Note_on_c, 6, 79, 127
8, 321084, Note_on_c, 6, 79, 0
8, 321120, Note_on_c, 6, 78, 127
8, 321360, Note_on_c, 6, 78, 0
8, 321360, Note_on_c, 6, 81, 127
8, 321600, Note_on_c, 6, 81, 0
8, 321600, Note_on_c, 6, 74, 127
8, 322080, Note_on_c, 6, 74, 0
8, 322560, Note_on_c, 6, 79, 127
8, 322785, Note_on_c, 6, 79, 0
8, 322920, Note_on_c, 6, 79, 127
8, 323040, Note_on_c, 6, 79, 0
8, 323040, Note_on_c, 6, 79, 127
8, 323760, Note_on_c, 6, 79, 0
8, 323760, Note_on_c, 6, 77, 127
8, 323844, Note_on_c, 6, 77, 0
8, 323880, Note_on_c, 6, 76, 127
8, 323964, Note_on_c, 6, 76, 0
8, 324000, Note_on_c, 6, 74, 127
8, 324084, Note_on_c, 6, 74, 0
8, 324120, Note_on_c, 6, 76, 127
8, 324204, Note_on_c, 6, 76, 0
8, 324240, Note_on_c, 6, 74, 127
8, 324324, Note_on_c, 6, 74, 0
8, 324360, Note_on_c, 6, 72, 127
8, 324444, Note_on_c, 6, 72, 0
8, 324480, Note_on_c, 6, 71, 127
8, 324720, Note_on_c, 6, 71, 0
8, 324720, Note_on_c, 6, 74, 127
8, 324960, Note_on_c, 6, 74, 0
8, 324960, Note_on_c, 6, 67, 127
8, 325440, Note_on_c, 6, 67, 0
8, 325920, Note_on_c, 6, 84, 127
8, 326145, Note_on_c, 6, 84, 0
8, 326280, Note_on_c, 6, 84, 127
8, 326400, Note_on_c, 6, 84, 0
8, 326400, Note_on_c, 6, 84, 127
8, 327120, Note_on_c, 6, 84, 0
8, 327120, Note_on_c, 6, 82, 127
8, 327204, Note_on_c, 6, 82, 0
8, 327240, Note_on_c, 6, 81, 127
8, 327324, Note_on_c, 6, 81, 0
8, 327360, Note_on_c, 6, 79, 127
8, 327444, Note_on_c, 6, 79, 0
8, 327480, Note_on_c, 6, 81, 127
8, 327564, Note_on_c, 6, 81, 0
8, 327600, Note_on_c, 6, 79, 127
8, 327684, Note_on_c, 6, 79, 0
8, 327720, Note_on_c, 6, 77, 127
8, 327804, Note_on_c, 6, 77, 0
8, 327840, Note_on_c, 6, 76, 127
8, 328080, Note_on_c, 6, 76, 0
8, 328080, Note_on_c, 6, 79, 127
8, 328320, Note_on_c, 6, 79, 0
8, 328320, Note_on_c, 6, 72, 127
8, 328800, Note_on_c, 6, 72, 0
8, 329280, Note_on_c, 6, 72, 127
8, 329505, Note_on_c, 6, 72, 0
8, 329640, Note_on_c, 6, 72, 127
8, 329760, Note_on_c, 6, 72, 0
8, 329760, Note_on_c, 6, 72, 127
8, 330480, Note_on_c, 6, 72, 0
8, 330480, Note_on_c, 6, 74, 127
8, 330564, Note_on_c, 6, 74, 0
8, 330600, Note_on_c, 6, 76, 127
8, 330684, Note_on_c, 6, 76, 0
8, 330720, Note_on_c, 6, 77, 127
8, 330804, Note_on_c, 6, 77, 0
8, 330840, Note_on_c, 6, 76, 127
8, 330924, Note_on_c, 6, 76, 0
8, 330960, Note_on_c, 6, 77, 127
8, 331044, Note_on_c, 6, 77, 0
8, 331080, Note_on_c, 6, 79, 127
8, 331164, Note_on_c, 6, 79, 0
8, 331200, Note_on_c, 6, 81, 127
8, 331284, Note_on_c, 6, 81, 0
8, 331320, Note_on_c, 6, 79, 127
8, 331404, Note_on_c, 6, 79, 0
8, 331440, Note_on_c, 6, 81, 127
8, 331524, Note_on_c, 6, 81, 0
8, 331560, Note_on_c, 6, 82, 127
8, 331644, Note_on_c, 6, 82, 0
8, 331680, Note_on_c, 6, 84, 127
8, 332160, Note_on_c, 6, 84, 0
8, 333600, Note_on_c, 6, 67, 100
8, 333825, Note_on_c, 6, 67, 0
8, 333960, Note_on_c, 6, 67, 100
8, 334080, Note_on_c, 6, 67, 0
8, 334080, Note_on_c, 6, 67, 100
8, 334800, Note_on_c, 6, 67, 0
8, 334800, Note_on_c, 6, 69, 100
8, 334884, Note_on_c, 6, 69, 0
8, 334920, Note_on_c, 6, 71, 100
8, 335004, Note_on_c, 6, 71, 0
8, 335040, Note_on_c, 6, 72, 100
8, 335124, Note_on_c, 6, 72, 0
8, 335160, Note_on_c, 6, 71, 100
8, 335244, Note_on_c, 6, 71, 0
8, 335280, Note_on_c, 6, 72, 100
8, 335364, Note_on_c, 6, 72, 0
8, 335400, Note_on_c, 6, 74, 100
8, 335484, Note_on_c, 6, 74, 0
8, 335520, Note_on_c, 6, 75, 100
8, 335604, Note_on_c, 6, 75, 0
8, 335640, Note_on_c, 6, 74, 100
8, 335724, Note_on_c, 6, 74, 0
8, 335760, Note_on_c, 6, 75, 100
8, 335844, Note_on_c, 6, 75, 0
8, 335880, Note_on_c, 6, 77, 100
8, 335964, Note_on_c, 6, 77, 0
8, 336000, Note_on_c, 6, 79, 100
8, 336480, Note_on_c, 6, 79, 0
8, 338880, Note_on_c, 6, 74, 83
8, 339105, Note_on_c, 6, 74, 0
8, 339240, Note_on_c, 6, 74, 83
8, 339360, Note_on_c, 6, 74, 0
8, 339360, Note_on_c, 6, 74, 83
8, 340080, Note_on_c, 6, 74, 0
8, 340080, Note_on_c, 6, 76, 83
8, 340164, Note_on_c, 6, 76, 0
8, 340200, Note_on_c, 6, 78, 83
8, 340284, Note_on_c, 6, 78, 0
8, 340320, Note_on_c, 6, 79, 83
8, 340404, Note_on_c, 6, 79, 0
8, 340440, Note_on_c, 6, 78, 83
8, 340524, Note_on_c, 6, 78, 0
8, 340560, Note_on_c, 6, 79, 83
8, 340644, Note_on_c, 6, 79, 0
8, 340680, Note_on_c, 6, 81, 83
8, 340764, Note_on_c, 6, 81, 0
8, 340800, Note_on_c, 6, 82, 83
8, 340884, Note_on_c, 6, 82, 0
8, 340920, Note_on_c, 6, 81, 83
8, 341004, Note_on_c, 6, 81, 0
8, 341040, Note_on_c, 6, 82, 83
8, 341124, Note_on_c, 6, 82, 0
8, 341160, Note_on_c, 6, 84, 83
8, 341244, Note_on_c, 6, 84, 0
8, 341280, Note_on_c, 6, 86, 83
8, 341760, Note_on_c, 6, 86, 0
8, 343200, Note_on_c, 6, 69, 83
8, 343425, Note_on_c, 6, 69, 0
8, 343560, Note_on_c, 6, 69, 83
8, 343680, Note_on_c, 6, 69, 0
8, 343680, Note_on_c, 6, 69, 83
8, 344400, Note_on_c, 6, 69, 0
8, 344400, Note_on_c, 6, 71, 83
8, 344484, Note_on_c, 6, 71, 0
8, 344520, Note_on_c, 6, 73, 83
8, 344604, Note_on_c, 6, 73, 0
8, 344640, Note_on_c, 6, 74, 83
8, 344724, Note_on_c, 6, 74, 0
8, 344760, Note_on_c, 6, 73, 83
8, 344844, Note_on_c, 6, 73, 0
8, 344880, Note_on_c, 6, 74, 83
8, 344964, Note_on_c, 6, 74, 0
8, 345000, Note_on_c, 6, 76, 83
8, 345084, Note_on_c, 6, 76, 0
8, 345120, Note_on_c, 6, 77, 83
8, 345204, Note_on_c, 6, 77, 0
8, 345240, Note_on_c, 6, 76, 83
8, 345324, Note_on_c, 6, 76, 0
8, 345360, Note_on_c, 6, 77, 83
8, 345444, Note_on_c, 6, 77, 0
8, 345480, Note_on_c, 6, 79, 83
8, 345564, Note_on_c, 6, 79, 0
8, 345600, Note_on_c, 6, 81, 83
8, 346080, Note_on_c, 6, 81, 0
8, 348960, Note_on_c, 6, 71, 66
8, 349185, Note_on_c, 6, 71, 0
8, 349320, Note_on_c, 6, 71, 66
8, 349440, Note_on_c, 6, 71, 0
8, 349440, Note_on_c, 6, 71, 66
8, 350160, Note_on_c, 6, 71, 0
8, 350160, Note_on_c, 6, 72, 66
8, 350244, Note_on_c, 6, 72, 0
8, 350280, Note_on_c, 6, 74, 66
8, 350364, Note_on_c, 6, 74, 0
8, 350400, Note_on_c, 6, 76, 66
8, 350484, Note_on_c, 6, 76, 0
8, 350520, Note_on_c, 6, 75, 66
8, 350604, Note_on_c, 6, 75, 0
8, 350640, Note_on_c, 6, 76, 66
8, 350724, Note_on_c, 6, 76, 0
8, 350760, Note_on_c, 6, 78, 66
8, 350844, Note_on_c, 6, 78, 0
8, 350880, Note_on_c, 6, 79, 66
8, 350964, Note_on_c, 6, 79, 0
8, 351000, Note_on_c, 6, 78, 66
8, 351084, Note_on_c, 6, 78, 0
8, 351120, Note_on_c, 6, 79, 66
8, 351204, Note_on_c, 6, 79, 0
8, 351240, Note_on_c, 6, 81, 66
8, 351324, Note_on_c, 6, 81, 0
8, 351360, Note_on_c, 6, 83, 127
8, 351600, Note_on_c, 6, 83, 0
8, 351840, Note_on_c, 6, 83, 127
8, 352065, Note_on_c, 6, 83, 0
8, 352200, Note_on_c, 6, 83, 127
8, 352320, Note_on_c, 6, 83, 0
8, 352320, Note_on_c, 6, 83, 127
8, 353040, Note_on_c, 6, 83, 0
8, 353040, Note_on_c, 6, 81, 127
8, 353124, Note_on_c, 6, 81, 0
8, 353160, Note_on_c, 6, 79, 127
8, 353244, Note_on_c, 6, 79, 0
8, 353280, Note_on_c, 6, 78, 127
8, 353364, Note_on_c, 6, 78, 0
8, 353400, Note_on_c, 6, 79, 127
8, 353484, Note_on_c, 6, 79, 0
8, 353520, Note_on_c, 6, 78, 127
8, 353604, Note_on_c, 6, 78, 0
8, 353640, Note_on_c, 6, 76, 127
8, 353724, Note_on_c, 6, 76, 0
8, 353760, Note_on_c, 6, 75, 127
8, 353844, Note_on_c, 6, 75, 0
8, 353880, Note_on_c, 6, 76, 127
8, 353964, Note_on_c, 6, 76, 0
8, 354000, Note_on_c, 6, 75, 127
8, 354084, Note_on_c, 6, 75, 0
8, 354120, Note_on_c, 6, 73, 127
8, 354204, Note_on_c, 6, 73, 0
8, 354240, Note_on_c, 6, 71, 127
8, 354480, Note_on_c, 6, 71, 0
8, 354720, Note_on_c, 6, 66, 127
8, 354720, Note_on_c, 6, 75, 127
8, 354960, Note_on_c, 6, 75, 0
8, 354960, Note_on_c, 6, 66, 0
8, 355200, Note_on_c, 6, 76, 127
8, 355200, Note_on_c, 6, 67, 127
8, 355440, Note_on_c, 6, 67, 0
8, 355440, Note_on_c, 6, 76, 0
8, 355680, Note_on_c, 6, 71, 127
8, 355680, Note_on_c, 6, 79, 127
8, 355920, Note_on_c, 6, 79, 0
8, 355920, Note_on_c, 6, 71, 0
8, 356160, Note_on_c, 6, 81, 127
8, 356160, Note_on_c, 6, 71, 127
8, 356400, Note_on_c, 6, 71, 0
8, 356400, Note_on_c, 6, 81, 0
8, 356640, Note_on_c, 6, 82, 127
8, 356880, Note_on_c, 6, 82, 0
8, 357120, Note_on_c, 6, 83, 127
8, 357360, Note_on_c, 6, 83, 0
8, 357600, Note_on_c, 6, 59, 127
8, 357825, Note_on_c, 6, 59, 0
8, 357960, Note_on_c, 6, 59, 127
8, 358080, Note_on_c, 6, 59, 0
8, 358080, Note_on_c, 6, 59, 127
8, 358728, Note_on_c, 6, 59, 0
8, 358800, Note_on_c, 6, 61, 127
8, 358884, Note_on_c, 6, 61, 0
8, 358920, Note_on_c, 6, 63, 127
8, 359004, Note_on_c, 6, 63, 0
8, 359040, Note_on_c, 6, 64, 127
8, 359124, Note_on_c, 6, 64, 0
8, 359160, Note_on_c, 6, 63, 127
8, 359244, Note_on_c, 6, 63, 0
8, 359280, Note_on_c, 6, 64, 127
8, 359364, Note_on_c, 6, 64, 0
8, 359400, Note_on_c, 6, 66, 127
8, 359484, Note_on_c, 6, 66, 0
8, 359520, Note_on_c, 6, 67, 127
8, 359604, Note_on_c, 6, 67, 0
8, 359640, Note_on_c, 6, 66, 127
8, 359724, Note_on_c, 6, 66, 0
8, 359760, Note_on_c, 6, 67, 127
8, 359844, Note_on_c, 6, 67, 0
8, 359880, Note_on_c, 6, 69, 127
8, 359964, Note_on_c, 6, 69, 0
8, 360000, Note_on_c, 6, 71, 70
8, 360480, Note_on_c, 6, 71, 0
8, 363360, Note_on_c, 6, 84, 50
8, 363585, Note_on_c, 6, 84, 0
8, 363720, Note_on_c, 6, 84, 50
8, 363840, Note_on_c, 6, 84, 0
8, 363840, Note_on_c, 6, 84, 50
8, 364488, Note_on_c, 6, 84, 0
8, 364560, Note_on_c, 6, 83, 50
8, 364644, Note_on_c, 6, 83, 0
8, 364680, Note_on_c, 6, 81, 50
8, 364764, Note_on_c, 6, 81, 0
8, 364800, Note_on_c, 6, 79, 50
8, 364884, Note_on_c, 6, 79, 0
8, 364920, Note_on_c, 6, 81, 50
8, 365004, Note_on_c, 6, 81, 0
8, 365040, Note_on_c, 6, 79, 50
8, 365124, Note_on_c, 6, 79, 0
8, 365160, Note_on_c, 6, 77, 50
8, 365244, Note_on_c, 6, 77, 0
8, 365280, Note_on_c, 6, 76, 50
8, 365364, Note_on_c, 6, 76, 0
8, 365400, Note_on_c, 6, 77, 50
8, 365484, Note_on_c, 6, 77, 0
8, 365520, Note_on_c, 6, 76, 50
8, 365604, Note_on_c, 6, 76, 0
8, 365640, Note_on_c, 6, 74, 50
8, 365724, Note_on_c, 6, 74, 0
8, 365760, Note_on_c, 6, 72, 50
8, 366720, Note_on_c, 6, 72, 0
8, 366720, Note_on_c, 6, 74, 50
8, 367680, Note_on_c, 6, 74, 0
8, 367680, Note_on_c, 6, 77, 50
8, 368640, Note_on_c, 6, 77, 0
8, 368640, Note_on_c, 6, 76, 50
8, 369600, Note_on_c, 6, 76, 0
8, 369840, Note_on_c, 6, 81, 50
8, 369960, Note_on_c, 6, 81, 0
8, 370080, Note_on_c, 6, 81, 50
8, 370200, Note_on_c, 6, 81, 0
8, 370320, Note_on_c, 6, 81, 50
8, 370440, Note_on_c, 6, 81, 0
8, 370560, Note_on_c, 6, 79, 50
8, 371280, Note_on_c, 6, 79, 0
8, 371280, Note_on_c, 6, 77, 50
8, 371340, Note_on_c, 6, 77, 0
8, 371340, Note_on_c, 6, 76, 50
8, 371400, Note_on_c, 6, 76, 0
8, 371400, Note_on_c, 6, 74, 50
8, 371460, Note_on_c, 6, 74, 0
8, 371460, Note_on_c, 6, 72, 50
8, 371520, Note_on_c, 6, 72, 0
8, 371520, Note_on_c, 6, 77, 50
8, 371640, Note_on_c, 6, 77, 0
8, 371760, Note_on_c, 6, 77, 50
8, 371880, Note_on_c, 6, 77, 0
8, 372000, Note_on_c, 6, 76, 50
8, 372120, Note_on_c, 6, 76, 0
8, 372240, Note_on_c, 6, 76, 50
8, 372360, Note_on_c, 6, 76, 0
8, 372480, Note_on_c, 6, 73, 50
8, 372600, Note_on_c, 6, 73, 0
8, 372600, Note_on_c, 6, 74, 50
8, 372720, Note_on_c, 6, 74, 0
8, 372720, Note_on_c, 6, 76, 50
8, 372840, Note_on_c, 6, 76, 0
8, 372840, Note_on_c, 6, 74, 50
8, 372960, Note_on_c, 6, 74, 0
8, 372960, Note_on_c, 6, 72, 50
8, 373080, Note_on_c, 6, 72, 0
8, 373080, Note_on_c, 6, 71, 50
8, 373200, Note_on_c, 6, 71, 0
8, 373200, Note_on_c, 6, 69, 50
8, 373320, Note_on_c, 6, 69, 0
8, 373320, Note_on_c, 6, 67, 50
8, 373440, Note_on_c, 6, 67, 0
8, 373440, Note_on_c, 6, 72, 127
8, 374400, Note_on_c, 6, 72, 0
8, 374400, Note_on_c, 6, 74, 127
8, 375360, Note_on_c, 6, 74, 0
8, 375360, Note_on_c, 6, 77, 127
8, 376320, Note_on_c, 6, 77, 0
8, 376320, Note_on_c, 6, 76, 127
8, 377280, Note_on_c, 6, 76, 0
8, 377280, Note_on_c, 6, 74, 127
8, 378240, Note_on_c, 6, 74, 0
8, 378240, Note_on_c, 6, 76, 127
8, 379200, Note_on_c, 6, 76, 0
8, 379200, Note_on_c, 6, 79, 127
8, 380160, Note_on_c, 6, 79, 0
8, 380160, Note_on_c, 6, 78, 127
8, 381120, Note_on_c, 6, 78, 0
8, 381120, Note_on_c, 6, 76, 127
8, 382080, Note_on_c, 6, 76, 0
8, 382080, Note_on_c, 6, 78, 127
8, 383040, Note_on_c, 6, 78, 0
8, 383040, Note_on_c, 6, 81, 127
8, 384000, Note_on_c, 6, 81, 0
8, 384000, Note_on_c, 6, 80, 127
8, 384960, Note_on_c, 6, 80, 0
8, 384960, Note_on_c, 6, 74, 127
8, 385920, Note_on_c, 6, 74, 0
8, 385920, Note_on_c, 6, 76, 127
8, 386880, Note_on_c, 6, 76, 0
8, 386880, Note_on_c, 6, 79, 127
8, 387840, Note_on_c, 6, 79, 0
8, 387840, Note_on_c, 6, 78, 127
8, 388800, Note_on_c, 6, 78, 0
8, 388800, Note_on_c, 6, 72, 127
8, 389760, Note_on_c, 6, 72, 0
8, 389760, Note_on_c, 6, 74, 127
8, 390720, Note_on_c, 6, 74, 0
8, 390720, Note_on_c, 6, 77, 127
8, 391680, Note_on_c, 6, 77, 0
8, 391680, Note_on_c, 6, 76, 127
8, 392640, Note_on_c, 6, 76, 0
8, 392640, Note_on_c, 6, 82, 127
8, 393600, Note_on_c, 6, 82, 0
8, 393840, Note_on_c, 6, 81, 127
8, 393960, Note_on_c, 6, 81, 0
8, 394080, Note_on_c, 6, 83, 127
8, 394200, Note_on_c, 6, 83, 0
8, 394320, Note_on_c, 6, 84, 127
8, 394440, Note_on_c, 6, 84, 0
8, 394560, Note_on_c, 6, 88, 127
8, 394620, Note_on_c, 6, 88, 0
8, 394620, Note_on_c, 6, 86, 127
8, 394680, Note_on_c, 6, 86, 0
8, 394680, Note_on_c, 6, 88, 127
8, 394740, Note_on_c, 6, 88, 0
8, 394740, Note_on_c, 6, 86, 127
8, 394800, Note_on_c, 6, 86, 0
8, 394920, Note_on_c, 6, 88, 127
8, 394980, Note_on_c, 6, 88, 0
8, 395040, Note_on_c, 6, 89, 127
8, 395424, Note_on_c, 6, 89, 0
8, 395760, Note_on_c, 6, 79, 127
8, 395880, Note_on_c, 6, 79, 0
8, 396000, Note_on_c, 6, 81, 127
8, 396120, Note_on_c, 6, 81, 0
8, 396240, Note_on_c, 6, 83, 127
8, 396360, Note_on_c, 6, 83, 0
8, 396480, Note_on_c, 6, 86, 127
8, 396540, Note_on_c, 6, 86, 0
8, 396540, Note_on_c, 6, 84, 127
8, 396600, Note_on_c, 6, 84, 0
8, 396600, Note_on_c, 6, 86, 127
8, 396660, Note_on_c, 6, 86, 0
8, 396660, Note_on_c, 6, 84, 127
8, 396720, Note_on_c, 6, 84, 0
8, 396840, Note_on_c, 6, 86, 127
8, 396900, Note_on_c, 6, 86, 0
8, 396960, Note_on_c, 6, 88, 127
8, 397344, Note_on_c, 6, 88, 0
8, 397680, Note_on_c, 6, 77, 127
8, 397800, Note_on_c, 6, 77, 0
8, 397920, Note_on_c, 6, 79, 127
8, 398040, Note_on_c, 6, 79, 0
8, 398160, Note_on_c, 6, 81, 127
8, 398280, Note_on_c, 6, 81, 0
8, 398400, Note_on_c, 6, 84, 127
8, 398460, Note_on_c, 6, 84, 0
8, 398460, Note_on_c, 6, 83, 127
8, 398520, Note_on_c, 6, 83, 0
8, 398520, Note_on_c, 6, 84, 127
8, 398580, Note_on_c, 6, 84, 0
8, 398580, Note_on_c, 6, 83, 127
8, 398640, Note_on_c, 6, 83, 0
8, 398760, Note_on_c, 6, 84, 127
8, 398820, Note_on_c, 6, 84, 0
8, 398880, Note_on_c, 6, 86, 127
8, 399264, Note_on_c, 6, 86, 0
8, 399600, Note_on_c, 6, 76, 127
8, 399720, Note_on_c, 6, 76, 0
8, 399840, Note_on_c, 6, 84, 127
8, 399960, Note_on_c, 6, 84, 0
8, 400080, Note_on_c, 6, 79, 127
8, 400200, Note_on_c, 6, 79, 0
8, 400320, Note_on_c, 6, 88, 127
8, 400656, Note_on_c, 6, 88, 0
8, 400800, Note_on_c, 6, 78, 127
8, 401136, Note_on_c, 6, 78, 0
8, 401280, Note_on_c, 6, 79, 127
8, 401616, Note_on_c, 6, 79, 0
8, 401760, Note_on_c, 6, 79, 127
8, 401985, Note_on_c, 6, 79, 0
8, 402120, Note_on_c, 6, 79, 127
8, 402240, Note_on_c, 6, 79, 0
8, 402240, Note_on_c, 6, 79, 127
8, 402960, Note_on_c, 6, 79, 0
8, 402960, Note_on_c, 6, 78, 127
8, 403044, Note_on_c, 6, 78, 0
8, 403080, Note_on_c, 6, 76, 127
8, 403164, Note_on_c, 6, 76, 0
8, 403200, Note_on_c, 6, 74, 127
8, 403284, Note_on_c, 6, 74, 0
8, 403320, Note_on_c, 6, 76, 127
8, 403404, Note_on_c, 6, 76, 0
8, 403440, Note_on_c, 6, 74, 127
8, 403524, Note_on_c, 6, 74, 0
8, 403560, Note_on_c, 6, 72, 127
8, 403644, Note_on_c, 6, 72, 0
8, 403680, Note_on_c, 6, 71, 127
8, 403764, Note_on_c, 6, 71, 0
8, 403800, Note_on_c, 6, 72, 127
8, 403884, Note_on_c, 6, 72, 0
8, 403920, Note_on_c, 6, 71, 127
8, 404004, Note_on_c, 6, 71, 0
8, 404040, Note_on_c, 6, 69, 127
8, 404124, Note_on_c, 6, 69, 0
8, 404160, Note_on_c, 6, 67, 127
8, 404400, Note_on_c, 6, 67, 0
8, 404640, Note_on_c, 6, 79, 127
8, 404865, Note_on_c, 6, 79, 0
8, 405000, Note_on_c, 6, 79, 127
8, 405120, Note_on_c, 6, 79, 0
8, 405120, Note_on_c, 6, 79, 127
8, 405840, Note_on_c, 6, 79, 0
8, 405840, Note_on_c, 6, 78, 127
8, 405924, Note_on_c, 6, 78, 0
8, 405960, Note_on_c, 6, 76, 127
8, 406044, Note_on_c, 6, 76, 0
8, 406080, Note_on_c, 6, 74, 127
8, 406164, Note_on_c, 6, 74, 0
8, 406200, Note_on_c, 6, 76, 127
8, 406284, Note_on_c, 6, 76, 0
8, 406320, Note_on_c, 6, 74, 127
8, 406404, Note_on_c, 6, 74, 0
8, 406440, Note_on_c, 6, 72, 127
8, 406524, Note_on_c, 6, 72, 0
8, 406560, Note_on_c, 6, 71, 127
8, 406644, Note_on_c, 6, 71, 0
8, 406680, Note_on_c, 6, 72, 127
8, 406764, Note_on_c, 6, 72, 0
8, 406800, Note_on_c, 6, 71, 127
8, 406884, Note_on_c, 6, 71, 0
8, 406920, Note_on_c, 6, 69, 127
8, 407004, Note_on_c, 6, 69, 0
8, 407040, Note_on_c, 6, 67, 127
8, 407124, Note_on_c, 6, 67, 0
8, 407160, Note_on_c, 6, 66, 127
8, 407244, Note_on_c, 6, 66, 0
8, 407280, Note_on_c, 6, 67, 127
8, 407364, Note_on_c, 6, 67, 0
8, 407400, Note_on_c, 6, 69, 127
8, 407484, Note_on_c, 6, 69, 0
8, 407520, Note_on_c, 6, 71, 127
8, 407604, Note_on_c, 6, 71, 0
8, 407640, Note_on_c, 6, 72, 127
8, 407724, Note_on_c, 6, 72, 0
8, 407760, Note_on_c, 6, 74, 127
8, 407844, Note_on_c, 6, 74, 0
8, 407880, Note_on_c, 6, 72, 127
8, 407964, Note_on_c, 6, 72, 0
8, 408000, Note_on_c, 6, 71, 127
8, 408084, Note_on_c, 6, 71, 0
8, 408120, Note_on_c, 6, 69, 127
8, 408204, Note_on_c, 6, 69, 0
8, 408240, Note_on_c, 6, 71, 127
8, 408324, Note_on_c, 6, 71, 0
8, 408360, Note_on_c, 6, 72, 127
8, 408444, Note_on_c, 6, 72, 0
8, 408480, Note_on_c, 6, 74, 127
8, 408564, Note_on_c, 6, 74, 0
8, 408600, Note_on_c, 6, 76, 127
8, 408684, Note_on_c, 6, 76, 0
8, 408720, Note_on_c, 6, 77, 127
8, 408804, Note_on_c, 6, 77, 0
8, 408840, Note_on_c, 6, 76, 127
8, 408924, Note_on_c, 6, 76, 0
8, 408960, Note_on_c, 6, 77, 127
8, 409044, Note_on_c, 6, 77, 0
8, 409080, Note_on_c, 6, 74, 127
8, 409164, Note_on_c, 6, 74, 0
8, 409200, Note_on_c, 6, 83, 127
8, 409284, Note_on_c, 6, 83, 0
8, 409320, Note_on_c, 6, 83, 127
8, 409404, Note_on_c, 6, 83, 0
8, 409440, Note_on_c, 6, 83, 127
8, 409524, Note_on_c, 6, 83, 0
8, 409560, Note_on_c, 6, 77, 127
8, 409644, Note_on_c, 6, 77, 0
8, 409680, Note_on_c, 6, 86, 127
8, 409764, Note_on_c, 6, 86, 0
8, 409800, Note_on_c, 6, 86, 127
8, 409884, Note_on_c, 6, 86, 0
8, 409920, Note_on_c, 6, 86, 127
8, 410400, Note_on_c, 6, 86, 0
8, 411360, Note_on_c, 6, 67, 50
8, 411840, Note_on_c, 6, 67, 0
8, 411840, Note_on_c, 6, 64, 50
8, 412320, Note_on_c, 6, 64, 0
8, 412320, Note_on_c, 6, 69, 50
8, 412884, Note_on_c, 6, 69, 0
8, 412920, Note_on_c, 6, 67, 50
8, 413004, Note_on_c, 6, 67, 0
8, 413040, Note_on_c, 6, 65, 50
8, 413124, Note_on_c, 6, 65, 0
8, 413160, Note_on_c, 6, 64, 50
8, 413244, Note_on_c, 6, 64, 0
8, 413280, Note_on_c, 6, 65, 50
8, 413364, Note_on_c, 6, 65, 0
8, 413400, Note_on_c, 6, 64, 50
8, 413484, Note_on_c, 6, 64, 0
8, 413520, Note_on_c, 6, 62, 50
8, 413604, Note_on_c, 6, 62, 0
8, 413640, Note_on_c, 6, 60, 50
8, 413724, Note_on_c, 6, 60, 0
8, 413760, Note_on_c, 6, 59, 50
8, 414240, Note_on_c, 6, 59, 0
8, 414240, Note_on_c, 6, 67, 50
8, 414720, Note_on_c, 6, 67, 0
8, 417120, Note_on_c, 6, 79, 50
8, 417600, Note_on_c, 6, 79, 0
8, 417600, Note_on_c, 6, 76, 50
8, 418080, Note_on_c, 6, 76, 0
8, 418080, Note_on_c, 6, 81, 50
8, 418644, Note_on_c, 6, 81, 0
8, 418680, Note_on_c, 6, 79, 50
8, 418764, Note_on_c, 6, 79, 0
8, 418800, Note_on_c, 6, 77, 50
8, 418884, Note_on_c, 6, 77, 0
8, 418920, Note_on_c, 6, 76, 50
8, 419004, Note_on_c, 6, 76, 0
8, 419040, Note_on_c, 6, 77, 50
8, 419124, Note_on_c, 6, 77, 0
8, 419160, Note_on_c, 6, 76, 50
8, 419244, Note_on_c, 6, 76, 0
8, 419280, Note_on_c, 6, 74, 50
8, 419364, Note_on_c, 6, 74, 0
8, 419400, Note_on_c, 6, 72, 50
8, 419484, Note_on_c, 6, 72, 0
8, 419520, Note_on_c, 6, 71, 50
8, 420000, Note_on_c, 6, 71, 0
8, 420000, Note_on_c, 6, 79, 50
8, 420480, Note_on_c, 6, 79, 0
8, 422520, Note_on_c, 6, 71, 50
8, 422592, Note_on_c, 6, 71, 0
8, 422640, Note_on_c, 6, 72, 50
8, 422712, Note_on_c, 6, 72, 0
8, 422760, Note_on_c, 6, 74, 50
8, 422832, Note_on_c, 6, 74, 0
8, 422880, Note_on_c, 6, 76, 50
8, 422952, Note_on_c, 6, 76, 0
8, 423000, Note_on_c, 6, 74, 50
8, 423072, Note_on_c, 6, 74, 0
8, 423120, Note_on_c, 6, 77, 50
8, 423192, Note_on_c, 6, 77, 0
8, 423240, Note_on_c, 6, 76, 50
8, 423312, Note_on_c, 6, 76, 0
8, 423360, Note_on_c, 6, 79, 50
8, 423432, Note_on_c, 6, 79, 0
8, 423480, Note_on_c, 6, 72, 50
8, 423552, Note_on_c, 6, 72, 0
8, 423600, Note_on_c, 6, 74, 50
8, 423672, Note_on_c, 6, 74, 0
8, 423720, Note_on_c, 6, 76, 50
8, 423792, Note_on_c, 6, 76, 0
8, 423840, Note_on_c, 6, 77, 50
8, 423912, Note_on_c, 6, 77, 0
8, 423960, Note_on_c, 6, 76, 50
8, 424032, Note_on_c, 6, 76, 0
8, 424080, Note_on_c, 6, 79, 50
8, 424152, Note_on_c, 6, 79, 0
8, 424200, Note_on_c, 6, 77, 50
8, 424272, Note_on_c, 6, 77, 0
8, 424320, Note_on_c, 6, 81, 50
8, 424392, Note_on_c, 6, 81, 0
8, 424440, Note_on_c, 6, 80, 50
8, 424512, Note_on_c, 6, 80, 0
8, 424560, Note_on_c, 6, 81, 50
8, 424632, Note_on_c, 6, 81, 0
8, 424680, Note_on_c, 6, 83, 50
8, 424752, Note_on_c, 6, 83, 0
8, 424800, Note_on_c, 6, 81, 50
8, 424872, Note_on_c, 6, 81, 0
8, 424920, Note_on_c, 6, 77, 50
8, 424992, Note_on_c, 6, 77, 0
8, 425040, Note_on_c, 6, 79, 50
8, 425112, Note_on_c, 6, 79, 0
8, 425160, Note_on_c, 6, 76, 50
8, 425232, Note_on_c, 6, 76, 0
8, 425280, Note_on_c, 6, 74, 50
8, 425352, Note_on_c, 6, 74, 0
8, 425400, Note_on_c, 6, 85, 50
8, 425472, Note_on_c, 6, 85, 0
8, 425520, Note_on_c, 6, 86, 50
8, 425592, Note_on_c, 6, 86, 0
8, 425640, Note_on_c, 6, 85, 50
8, 425712, Note_on_c, 6, 85, 0
8, 425760, Note_on_c, 6, 86, 50
8, 425832, Note_on_c, 6, 86, 0
8, 425880, Note_on_c, 6, 84, 50
8, 425952, Note_on_c, 6, 84, 0
8, 426000, Note_on_c, 6, 83, 50
8, 426072, Note_on_c, 6, 83, 0
8, 426120, Note_on_c, 6, 81, 50
8, 426192, Note_on_c, 6, 81, 0
8, 426240, Note_on_c, 6, 79, 50
8, 426312, Note_on_c, 6, 79, 0
8, 426360, Note_on_c, 6, 78, 50
8, 426432, Note_on_c, 6, 78, 0
8, 426480, Note_on_c, 6, 79, 50
8, 426552, Note_on_c, 6, 79, 0
8, 426600, Note_on_c, 6, 81, 50
8, 426672, Note_on_c, 6, 81, 0
8, 426720, Note_on_c, 6, 79, 50
8, 426792, Note_on_c, 6, 79, 0
8, 426840, Note_on_c, 6, 76, 50
8, 426912, Note_on_c, 6, 76, 0
8, 426960, Note_on_c, 6, 77, 50
8, 427032, Note_on_c, 6, 77, 0
8, 427080, Note_on_c, 6, 74, 50
8, 427152, Note_on_c, 6, 74, 0
8, 427200, Note_on_c, 6, 72, 50
8, 427272, Note_on_c, 6, 72, 0
8, 427320, Note_on_c, 6, 83, 50
8, 427392, Note_on_c, 6, 83, 0
8, 427440, Note_on_c, 6, 84, 50
8, 427512, Note_on_c, 6, 84, 0
8, 427560, Note_on_c, 6, 83, 50
8, 427632, Note_on_c, 6, 83, 0
8, 427680, Note_on_c, 6, 84, 50
8, 427752, Note_on_c, 6, 84, 0
8, 427800, Note_on_c, 6, 83, 50
8, 427872, Note_on_c, 6, 83, 0
8, 427920, Note_on_c, 6, 81, 50
8, 427992, Note_on_c, 6, 81, 0
8, 428040, Note_on_c, 6, 79, 50
8, 428112, Note_on_c, 6, 79, 0
8, 428160, Note_on_c, 6, 77, 50
8, 428232, Note_on_c, 6, 77, 0
8, 428280, Note_on_c, 6, 76, 50
8, 428352, Note_on_c, 6, 76, 0
8, 428400, Note_on_c, 6, 77, 50
8, 428472, Note_on_c, 6, 77, 0
8, 428520, Note_on_c, 6, 79, 50
8, 428592, Note_on_c, 6, 79, 0
8, 428640, Note_on_c, 6, 77, 50
8, 428712, Note_on_c, 6, 77, 0
8, 428760, Note_on_c, 6, 74, 50
8, 428832, Note_on_c, 6, 74, 0
8, 428880, Note_on_c, 6, 76, 50
8, 428952, Note_on_c, 6, 76, 0
8, 429000, Note_on_c, 6, 72, 50
8, 429072, Note_on_c, 6, 72, 0
8, 429120, Note_on_c, 6, 71, 50
8, 429192, Note_on_c, 6, 71, 0
8, 429240, Note_on_c, 6, 72, 50
8, 429312, Note_on_c, 6, 72, 0
8, 429360, Note_on_c, 6, 74, 50
8, 429432, Note_on_c, 6, 74, 0
8, 429480, Note_on_c, 6, 76, 50
8, 429552, Note_on_c, 6, 76, 0
8, 429600, Note_on_c, 6, 77, 50
8, 429672, Note_on_c, 6, 77, 0
8, 429720, Note_on_c, 6, 81, 50
8, 429792, Note_on_c, 6, 81, 0
8, 429840, Note_on_c, 6, 79, 50
8, 429912, Note_on_c, 6, 79, 0
8, 429960, Note_on_c, 6, 77, 50
8, 430032, Note_on_c, 6, 77, 0
8, 430080, Note_on_c, 6, 76, 50
8, 430416, Note_on_c, 6, 76, 0
8, 430560, Note_on_c, 6, 72, 127
8, 430896, Note_on_c, 6, 72, 0
8, 431040, Note_on_c, 6, 69, 127
8, 431376, Note_on_c, 6, 69, 0
8, 431520, Note_on_c, 6, 74, 127
8, 431856, Note_on_c, 6, 74, 0
8, 432480, Note_on_c, 6, 76, 127
8, 432816, Note_on_c, 6, 76, 0
8, 432960, Note_on_c, 6, 72, 127
8, 433320, Note_on_c, 6, 72, 0
8, 433440, Note_on_c, 6, 77, 127
8, 433800, Note_on_c, 6, 77, 0
8, 434400, Note_on_c, 6, 79, 127
8, 434760, Note_on_c, 6, 79, 0
8, 434880, Note_on_c, 6, 76, 127
8, 435240, Note_on_c, 6, 76, 0
8, 435360, Note_on_c, 6, 81, 127
8, 435924, Note_on_c, 6, 81, 0
8, 435960, Note_on_c, 6, 79, 127
8, 436044, Note_on_c, 6, 79, 0
8, 436080, Note_on_c, 6, 77, 127
8, 436164, Note_on_c, 6, 77, 0
8, 436200, Note_on_c, 6, 76, 127
8, 436284, Note_on_c, 6, 76, 0
8, 436320, Note_on_c, 6, 77, 127
8, 436404, Note_on_c, 6, 77, 0
8, 436440, Note_on_c, 6, 76, 127
8, 436524, Note_on_c, 6, 76, 0
8, 436560, Note_on_c, 6, 74, 127
8, 436644, Note_on_c, 6, 74, 0
8, 436680, Note_on_c, 6, 72, 127
8, 436764, Note_on_c, 6, 72, 0
8, 436800, Note_on_c, 6, 71, 127
8, 437160, Note_on_c, 6, 71, 0
8, 437280, Note_on_c, 6, 79, 127
8, 437640, Note_on_c, 6, 79, 0
8, 438240, Note_on_c, 6, 76, 127
8, 438600, Note_on_c, 6, 76, 0
8, 438720, Note_on_c, 6, 72, 127
8, 439056, Note_on_c, 6, 72, 0
8, 439200, Note_on_c, 6, 77, 127
8, 439764, Note_on_c, 6, 77, 0
8, 439800, Note_on_c, 6, 76, 127
8, 439884, Note_on_c, 6, 76, 0
8, 439920, Note_on_c, 6, 74, 127
8, 440004, Note_on_c, 6, 74, 0
8, 440040, Note_on_c, 6, 72, 127
8, 440124, Note_on_c, 6, 72, 0
8, 440160, Note_on_c, 6, 74, 127
8, 440244, Note_on_c, 6, 74, 0
8, 440280, Note_on_c, 6, 72, 127
8, 440364, Note_on_c, 6, 72, 0
8, 440400, Note_on_c, 6, 71, 127
8, 440484, Note_on_c, 6, 71, 0
8, 440520, Note_on_c, 6, 69, 127
8, 440604, Note_on_c, 6, 69, 0
8, 440640, Note_on_c, 6, 68, 127
8, 440976, Note_on_c, 6, 68, 0
8, 441120, Note_on_c, 6, 76, 127
8, 441456, Note_on_c, 6, 76, 0
8, 442080, Note_on_c, 6, 84, 127
8, 442416, Note_on_c, 6, 84, 0
8, 442560, Note_on_c, 6, 81, 127
8, 442896, Note_on_c, 6, 81, 0
8, 443040, Note_on_c, 6, 86, 127
8, 443604, Note_on_c, 6, 86, 0
8, 443640, Note_on_c, 6, 84, 127
8, 443724, Note_on_c, 6, 84, 0
8, 443760, Note_on_c, 6, 82, 127
8, 443844, Note_on_c, 6, 82, 0
8, 443880, Note_on_c, 6, 81, 127
8, 443964, Note_on_c, 6, 81, 0
8, 444000, Note_on_c, 6, 82, 127
8, 444084, Note_on_c, 6, 82, 0
8, 444120, Note_on_c, 6, 81, 127
8, 444204, Note_on_c, 6, 81, 0
8, 444240, Note_on_c, 6, 79, 127
8, 444324, Note_on_c, 6, 79, 0
8, 444360, Note_on_c, 6, 77, 127
8, 444444, Note_on_c, 6, 77, 0
8, 444480, Note_on_c, 6, 76, 127
8, 444816, Note_on_c, 6, 76, 0
8, 444960, Note_on_c, 6, 84, 127
8, 445524, Note_on_c, 6, 84, 0
8, 445560, Note_on_c, 6, 82, 127
8, 445644, Note_on_c, 6, 82, 0
8, 445680, Note_on_c, 6, 81, 127
8, 445764, Note_on_c, 6, 81, 0
8, 445800, Note_on_c, 6, 79, 127
8, 445884, Note_on_c, 6, 79, 0
8, 445920, Note_on_c, 6, 81, 127
8, 446004, Note_on_c, 6, 81, 0
8, 446040, Note_on_c, 6, 79, 127
8, 446124, Note_on_c, 6, 79, 0
8, 446160, Note_on_c, 6, 77, 127
8, 446244, Note_on_c, 6, 77, 0
8, 446280, Note_on_c, 6, 76, 127
8, 446364, Note_on_c, 6, 76, 0
8, 446400, Note_on_c, 6, 81, 127
8, 446484, Note_on_c, 6, 81, 0
8, 446520, Note_on_c, 6, 79, 127
8, 446604, Note_on_c, 6, 79, 0
8, 446640, Note_on_c, 6, 77, 127
8, 446724, Note_on_c, 6, 77, 0
8, 446760, Note_on_c, 6, 76, 127
8, 446844, Note_on_c, 6, 76, 0
8, 446880, Note_on_c, 6, 77, 127
8, 446964, Note_on_c, 6, 77, 0
8, 447000, Note_on_c, 6, 76, 127
8, 447084, Note_on_c, 6, 76, 0
8, 447120, Note_on_c, 6, 74, 127
8, 447204, Note_on_c, 6, 74, 0
8, 447240, Note_on_c, 6, 72, 127
8, 447324, Note_on_c, 6, 72, 0
8, 447360, Note_on_c, 6, 77, 127
8, 447444, Note_on_c, 6, 77, 0
8, 447480, Note_on_c, 6, 76, 127
8, 447564, Note_on_c, 6, 76, 0
8, 447600, Note_on_c, 6, 74, 127
8, 447684, Note_on_c, 6, 74, 0
8, 447720, Note_on_c, 6, 72, 127
8, 447804, Note_on_c, 6, 72, 0
8, 447840, Note_on_c, 6, 74, 127
8, 447924, Note_on_c, 6, 74, 0
8, 447960, Note_on_c, 6, 72, 127
8, 448044, Note_on_c, 6, 72, 0
8, 448080, Note_on_c, 6, 71, 127
8, 448164, Note_on_c, 6, 71, 0
8, 448200, Note_on_c, 6, 69, 127
8, 448284, Note_on_c, 6, 69, 0
8, 448320, Note_on_c, 6, 74, 127
8, 448404, Note_on_c, 6, 74, 0
8, 448440, Note_on_c, 6, 72, 127
8, 448524, Note_on_c, 6, 72, 0
8, 448560, Note_on_c, 6, 71, 127
8, 448644, Note_on_c, 6, 71, 0
8, 448680, Note_on_c, 6, 69, 127
8, 448764, Note_on_c, 6, 69, 0
8, 448800, Note_on_c, 6, 71, 127
8, 448884, Note_on_c, 6, 71, 0
8, 448920, Note_on_c, 6, 69, 127
8, 449004, Note_on_c, 6, 69, 0
8, 449040, Note_on_c, 6, 67, 127
8, 449124, Note_on_c, 6, 67, 0
8, 449160, Note_on_c, 6, 66, 127
8, 449244, Note_on_c, 6, 66, 0
8, 449280, Note_on_c, 6, 67, 127
8, 449364, Note_on_c, 6, 67, 0
8, 449400, Note_on_c, 6, 69, 127
8, 449484, Note_on_c, 6, 69, 0
8, 449520, Note_on_c, 6, 67, 127
8, 449604, Note_on_c, 6, 67, 0
8, 449640, Note_on_c, 6, 69, 127
8, 449724, Note_on_c, 6, 69, 0
8, 449760, Note_on_c, 6, 65, 127
8, 449844, Note_on_c, 6, 65, 0
8, 449880, Note_on_c, 6, 67, 127
8, 449964, Note_on_c, 6, 67, 0
8, 450000, Note_on_c, 6, 65, 127
8, 450084, Note_on_c, 6, 65, 0
8, 450120, Note_on_c, 6, 67, 127
8, 450204, Note_on_c, 6, 67, 0
8, 450240, Note_on_c, 6, 64, 127
8, 450360, Note_on_c, 6, 64, 0
8, 450480, Note_on_c, 6, 79, 127
8, 450600, Note_on_c, 6, 79, 0
8, 450720, Note_on_c, 6, 79, 127
8, 450840, Note_on_c, 6, 79, 0
8, 450960, Note_on_c, 6, 79, 127
8, 451080, Note_on_c, 6, 79, 0
8, 451200, Note_on_c, 6, 79, 127
8, 451920, Note_on_c, 6, 79, 0
8, 451920, Note_on_c, 6, 77, 127
8, 451980, Note_on_c, 6, 77, 0
8, 451980, Note_on_c, 6, 76, 127
8, 452040, Note_on_c, 6, 76, 0
8, 452040, Note_on_c, 6, 74, 127
8, 452100, Note_on_c, 6, 74, 0
8, 452100, Note_on_c, 6, 72, 127
8, 452160, Note_on_c, 6, 72, 0
8, 452160, Note_on_c, 6, 70, 127
8, 452280, Note_on_c, 6, 70, 0
8, 452400, Note_on_c, 6, 82, 127
8, 452520, Note_on_c, 6, 82, 0
8, 452640, Note_on_c, 6, 82, 127
8, 452760, Note_on_c, 6, 82, 0
8, 452880, Note_on_c, 6, 82, 127
8, 453000, Note_on_c, 6, 82, 0
8, 453120, Note_on_c, 6, 82, 127
8, 453840, Note_on_c, 6, 82, 0
8, 453840, Note_on_c, 6, 81, 127
8, 453900, Note_on_c, 6, 81, 0
8, 453900, Note_on_c, 6, 79, 127
8, 453960, Note_on_c, 6, 79, 0
8, 453960, Note_on_c, 6, 77, 127
8, 454020, Note_on_c, 6, 77, 0
8, 454020, Note_on_c, 6, 76, 127
8, 454080, Note_on_c, 6, 76, 0
8, 454080, Note_on_c, 6, 77, 127
8, 454200, Note_on_c, 6, 77, 0
8, 454320, Note_on_c, 6, 84, 127
8, 454440, Note_on_c, 6, 84, 0
8, 454560, Note_on_c, 6, 84, 127
8, 454680, Note_on_c, 6, 84, 0
8, 454800, Note_on_c, 6, 84, 127
8, 454920, Note_on_c, 6, 84, 0
8, 455040, Note_on_c, 6, 84, 127
8, 455760, Note_on_c, 6, 84, 0
8, 455760, Note_on_c, 6, 83, 127
8, 455820, Note_on_c, 6, 83, 0
8, 455820, Note_on_c, 6, 81, 127
8, 455880, Note_on_c, 6, 81, 0
8, 455880, Note_on_c, 6, 79, 127
8, 455940, Note_on_c, 6, 79, 0
8, 455940, Note_on_c, 6, 78, 127
8, 456000, Note_on_c, 6, 78, 0
8, 456000, Note_on_c, 6, 79, 127
8, 456624, Note_on_c, 6, 79, 0
8, 456720, Note_on_c, 6, 77, 127
8, 456780, Note_on_c, 6, 77, 0
8, 456780, Note_on_c, 6, 76, 127
8, 456840, Note_on_c, 6, 76, 0
8, 456840, Note_on_c, 6, 74, 127
8, 456900, Note_on_c, 6, 74, 0
8, 456900, Note_on_c, 6, 72, 127
8, 456960, Note_on_c, 6, 72, 0
8, 456960, Note_on_c, 6, 77, 127
8, 457584, Note_on_c, 6, 77, 0
8, 457680, Note_on_c, 6, 76, 127
8, 457740, Note_on_c, 6, 76, 0
8, 457740, Note_on_c, 6, 74, 127
8, 457800, Note_on_c, 6, 74, 0
8, 457800, Note_on_c, 6, 72, 127
8, 457860, Note_on_c, 6, 72, 0
8, 457860, Note_on_c, 6, 71, 127
8, 457920, Note_on_c, 6, 71, 0
8, 457920, Note_on_c, 6, 72, 127
8, 458040, Note_on_c, 6, 72, 0
8, 458040, Note_on_c, 6, 76, 127
8, 458160, Note_on_c, 6, 76, 0
8, 458160, Note_on_c, 6, 76, 127
8, 458280, Note_on_c, 6, 76, 0
8, 458280, Note_on_c, 6, 76, 127
8, 458400, Note_on_c, 6, 76, 0
8, 458400, Note_on_c, 6, 76, 127
8, 458520, Note_on_c, 6, 76, 0
8, 458520, Note_on_c, 6, 76, 127
8, 458640, Note_on_c, 6, 76, 0
8, 458640, Note_on_c, 6, 76, 127
8, 458760, Note_on_c, 6, 76, 0
8, 458760, Note_on_c, 6, 76, 127
8, 458880, Note_on_c, 6, 76, 0
8, 458880, Note_on_c, 6, 76, 127
8, 459000, Note_on_c, 6, 76, 0
8, 459000, Note_on_c, 6, 76, 127
8, 459120, Note_on_c, 6, 76, 0
8, 459120, Note_on_c, 6, 76, 127
8, 459240, Note_on_c, 6, 76, 0
8, 459240, Note_on_c, 6, 76, 127
8, 459360, Note_on_c, 6, 76, 0
8, 459360, Note_on_c, 6, 76, 127
8, 459480, Note_on_c, 6, 76, 0
8, 459480, Note_on_c, 6, 76, 127
8, 459600, Note_on_c, 6, 76, 0
8, 459600, Note_on_c, 6, 76, 127
8, 459720, Note_on_c, 6, 76, 0
8, 459720, Note_on_c, 6, 76, 127
8, 459840, Note_on_c, 6, 76, 0
8, 459840, Note_on_c, 6, 76, 127
8, 459960, Note_on_c, 6, 76, 0
8, 459960, Note_on_c, 6, 79, 127
8, 460080, Note_on_c, 6, 79, 0
8, 460080, Note_on_c, 6, 79, 127
8, 460200, Note_on_c, 6, 79, 0
8, 460200, Note_on_c, 6, 79, 127
8, 460320, Note_on_c, 6, 79, 0
8, 460320, Note_on_c, 6, 79, 127
8, 460440, Note_on_c, 6, 79, 0
8, 460440, Note_on_c, 6, 79, 127
8, 460560, Note_on_c, 6, 79, 0
8, 460560, Note_on_c, 6, 79, 127
8, 460680, Note_on_c, 6, 79, 0
8, 460680, Note_on_c, 6, 79, 127
8, 460800, Note_on_c, 6, 79, 0
8, 460800, Note_on_c, 6, 79, 127
8, 460920, Note_on_c, 6, 79, 0
8, 460920, Note_on_c, 6, 79, 127
8, 461040, Note_on_c, 6, 79, 0
8, 461040, Note_on_c, 6, 79, 127
8, 461160, Note_on_c, 6, 79, 0
8, 461160, Note_on_c, 6, 79, 127
8, 461280, Note_on_c, 6, 79, 0
8, 461280, Note_on_c, 6, 79, 127
8, 461400, Note_on_c, 6, 79, 0
8, 461400, Note_on_c, 6, 79, 127
8, 461520, Note_on_c, 6, 79, 0
8, 461520, Note_on_c, 6, 79, 127
8, 461640, Note_on_c, 6, 79, 0
8, 461640, Note_on_c, 6, 79, 127
8, 461760, Note_on_c, 6, 79, 0
8, 461760, Note_on_c, 6, 77, 127
8, 461880, Note_on_c, 6, 77, 0
8, 461880, Note_on_c, 6, 84, 127
8, 462000, Note_on_c, 6, 84, 0
8, 462000, Note_on_c, 6, 84, 127
8, 462120, Note_on_c, 6, 84, 0
8, 462120, Note_on_c, 6, 84, 127
8, 462240, Note_on_c, 6, 84, 0
8, 462240, Note_on_c, 6, 84, 127
8, 462360, Note_on_c, 6, 84, 0
8, 462360, Note_on_c, 6, 84, 127
8, 462480, Note_on_c, 6, 84, 0
8, 462480, Note_on_c, 6, 84, 127
8, 462600, Note_on_c, 6, 84, 0
8, 462600, Note_on_c, 6, 84, 127
8, 462720, Note_on_c, 6, 84, 0
8, 462720, Note_on_c, 6, 84, 127
8, 462840, Note_on_c, 6, 84, 0
8, 462840, Note_on_c, 6, 84, 127
8, 462960, Note_on_c, 6, 84, 0
8, 462960, Note_on_c, 6, 84, 127
8, 463080, Note_on_c, 6, 84, 0
8, 463080, Note_on_c, 6, 84, 127
8, 463200, Note_on_c, 6, 84, 0
8, 463200, Note_on_c, 6, 84, 127
8, 463320, Note_on_c, 6, 84, 0
8, 463320, Note_on_c, 6, 84, 127
8, 463440, Note_on_c, 6, 84, 0
8, 463440, Note_on_c, 6, 84, 127
8, 463560, Note_on_c, 6, 84, 0
8, 463560, Note_on_c, 6, 84, 127
8, 463680, Note_on_c, 6, 84, 0
8, 463680, Note_on_c, 6, 84, 127
8, 463800, Note_on_c, 6, 84, 0
8, 463800, Note_on_c, 6, 84, 127
8, 463920, Note_on_c, 6, 84, 0
8, 463920, Note_on_c, 6, 84, 127
8, 464040, Note_on_c, 6, 84, 0
8, 464040, Note_on_c, 6, 84, 127
8, 464160, Note_on_c, 6, 84, 0
8, 464160, Note_on_c, 6, 84, 127
8, 464280, Note_on_c, 6, 84, 0
8, 464280, Note_on_c, 6, 84, 127
8, 464400, Note_on_c, 6, 84, 0
8, 464400, Note_on_c, 6, 84, 127
8, 464520, Note_on_c, 6, 84, 0
8, 464520, Note_on_c, 6, 84, 127
8, 464640, Note_on_c, 6, 84, 0
8, 464640, Note_on_c, 6, 85, 127
8, 465360, Note_on_c, 6, 85, 0
8, 465360, Note_on_c, 6, 84, 127
8, 465480, Note_on_c, 6, 84, 0
8, 465480, Note_on_c, 6, 84, 127
8, 465600, Note_on_c, 6, 84, 0
8, 465600, Note_on_c, 6, 85, 127
8, 465720, Note_on_c, 6, 85, 0
8, 465720, Note_on_c, 6, 85, 127
8, 465840, Note_on_c, 6, 85, 0
8, 465840, Note_on_c, 6, 84, 127
8, 465960, Note_on_c, 6, 84, 0
8, 465960, Note_on_c, 6, 84, 127
8, 466080, Note_on_c, 6, 84, 0
8, 466080, Note_on_c, 6, 85, 127
8, 466200, Note_on_c, 6, 85, 0
8, 466200, Note_on_c, 6, 85, 127
8, 466320, Note_on_c, 6, 85, 0
8, 466320, Note_on_c, 6, 86, 127
8, 466440, Note_on_c, 6, 86, 0
8, 466440, Note_on_c, 6, 86, 127
8, 466560, Note_on_c, 6, 86, 0
8, 466560, Note_on_c, 6, 87, 127
8, 467280, Note_on_c, 6, 87, 0
8, 467280, Note_on_c, 6, 86, 127
8, 467400, Note_on_c, 6, 86, 0
8, 467400, Note_on_c, 6, 86, 127
8, 467520, Note_on_c, 6, 86, 0
8, 467520, Note_on_c, 6, 87, 127
8, 467640, Note_on_c, 6, 87, 0
8, 467640, Note_on_c, 6, 87, 127
8, 467760, Note_on_c, 6, 87, 0
8, 467760, Note_on_c, 6, 86, 127
8, 467880, Note_on_c, 6, 86, 0
8, 467880, Note_on_c, 6, 86, 127
8, 468000, Note_on_c, 6, 86, 0
8, 468000, Note_on_c, 6, 87, 127
8, 468120, Note_on_c, 6, 87, 0
8, 468120, Note_on_c, 6, 87, 127
8, 468240, Note_on_c, 6, 87, 0
8, 468240, Note_on_c, 6, 87, 127
8, 468360, Note_on_c, 6, 87, 0
8, 468360, Note_on_c, 6, 87, 127
8, 468480, Note_on_c, 6, 87, 0
8, 468480, Note_on_c, 6, 88, 127
8, 468720, Note_on_c, 6, 88, 0
8, 468960, Note_on_c, 6, 76, 127
8, 469200, Note_on_c, 6, 76, 0
8, 469440, Note_on_c, 6, 79, 127
8, 469680, Note_on_c, 6, 79, 0
8, 469920, Note_on_c, 6, 71, 127
8, 469920, Note_on_c, 6, 62, 127
8, 470160, Note_on_c, 6, 62, 0
8, 470160, Note_on_c, 6, 71, 0
8, 470400, Note_on_c, 6, 55, 127
8, 470400, Note_on_c, 6, 72, 127
8, 470640, Note_on_c, 6, 55, 0
8, 470880, Note_on_c, 6, 72, 0
8, 471840, Note_on_c, 6, 62, 127
8, 472065, Note_on_c, 6, 62, 0
8, 472200, Note_on_c, 6, 62, 127
8, 472320, Note_on_c, 6, 62, 0
8, 472320, Note_on_c, 6, 62, 127
8, 473040, Note_on_c, 6, 62, 0
8, 473040, Note_on_c, 6, 60, 127
8, 473160, Note_on_c, 6, 60, 0
8, 473160, Note_on_c, 6, 62, 127
8, 473280, Note_on_c, 6, 62, 0
8, 473280, Note_on_c, 6, 64, 127
8, 473364, Note_on_c, 6, 64, 0
8, 473400, Note_on_c, 6, 65, 127
8, 473484, Note_on_c, 6, 65, 0
8, 473520, Note_on_c, 6, 67, 127
8, 473604, Note_on_c, 6, 67, 0
8, 473640, Note_on_c, 6, 69, 127
8, 473724, Note_on_c, 6, 69, 0
8, 473760, Note_on_c, 6, 71, 127
8, 473844, Note_on_c, 6, 71, 0
8, 473880, Note_on_c, 6, 72, 127
8, 473964, Note_on_c, 6, 72, 0
8, 474000, Note_on_c, 6, 74, 127
8, 474084, Note_on_c, 6, 74, 0
8, 474120, Note_on_c, 6, 76, 127
8, 474204, Note_on_c, 6, 76, 0
8, 474240, Note_on_c, 6, 77, 127
8, 474576, Note_on_c, 6, 77, 0
8, 474720, Note_on_c, 6, 65, 127
8, 474888, Note_on_c, 6, 65, 0
8, 475080, Note_on_c, 6, 65, 127
8, 475164, Note_on_c, 6, 65, 0
8, 475200, Note_on_c, 6, 65, 127
8, 475848, Note_on_c, 6, 65, 0
8, 475920, Note_on_c, 6, 64, 127
8, 476004, Note_on_c, 6, 64, 0
8, 476040, Note_on_c, 6, 65, 127
8, 476124, Note_on_c, 6, 65, 0
8, 476160, Note_on_c, 6, 67, 127
8, 476244, Note_on_c, 6, 67, 0
8, 476280, Note_on_c, 6, 69, 127
8, 476364, Note_on_c, 6, 69, 0
8, 476400, Note_on_c, 6, 71, 127
8, 476484, Note_on_c, 6, 71, 0
8, 476520, Note_on_c, 6, 72, 127
8, 476604, Note_on_c, 6, 72, 0
8, 476640, Note_on_c, 6, 74, 127
8, 476724, Note_on_c, 6, 74, 0
8, 476760, Note_on_c, 6, 76, 127
8, 476844, Note_on_c, 6, 76, 0
8, 476880, Note_on_c, 6, 77, 127
8, 476964, Note_on_c, 6, 77, 0
8, 477000, Note_on_c, 6, 79, 127
8, 477084, Note_on_c, 6, 79, 0
8, 477120, Note_on_c, 6, 81, 127
8, 477456, Note_on_c, 6, 81, 0
8, 477600, Note_on_c, 6, 81, 127
8, 477768, Note_on_c, 6, 81, 0
8, 477960, Note_on_c, 6, 81, 127
8, 478044, Note_on_c, 6, 81, 0
8, 478080, Note_on_c, 6, 81, 127
8, 478728, Note_on_c, 6, 81, 0
8, 478800, Note_on_c, 6, 86, 127
8, 478884, Note_on_c, 6, 86, 0
8, 478920, Note_on_c, 6, 84, 127
8, 479004, Note_on_c, 6, 84, 0
8, 479040, Note_on_c, 6, 83, 127
8, 479124, Note_on_c, 6, 83, 0
8, 479160, Note_on_c, 6, 84, 118
8, 479244, Note_on_c, 6, 84, 0
8, 479280, Note_on_c, 6, 83, 108
8, 479364, Note_on_c, 6, 83, 0
8, 479400, Note_on_c, 6, 81, 99
8, 479484, Note_on_c, 6, 81, 0
8, 479520, Note_on_c, 6, 79, 89
8, 479604, Note_on_c, 6, 79, 0
8, 479640, Note_on_c, 6, 81, 79
8, 479724, Note_on_c, 6, 81, 0
8, 479760, Note_on_c, 6, 79, 70
8, 479844, Note_on_c, 6, 79, 0
8, 479880, Note_on_c, 6, 77, 60
8, 479964, Note_on_c, 6, 77, 0
8, 480000, Note_on_c, 6, 76, 50
8, 480084, Note_on_c, 6, 76, 0
8, 480120, Note_on_c, 6, 76, 51
8, 480204, Note_on_c, 6, 76, 0
8, 480240, Note_on_c, 6, 76, 53
8, 480324, Note_on_c, 6, 76, 0
8, 480360, Note_on_c, 6, 76, 54
8, 480444, Note_on_c, 6, 76, 0
8, 480480, Note_on_c, 6, 76, 56
8, 480564, Note_on_c, 6, 76, 0
8, 480600, Note_on_c, 6, 76, 58
8, 480684, Note_on_c, 6, 76, 0
8, 480720, Note_on_c, 6, 76, 59
8, 480804, Note_on_c, 6, 76, 0
8, 480840, Note_on_c, 6, 76, 61
8, 480924, Note_on_c, 6, 76, 0
8, 480960, Note_on_c, 6, 76, 62
8, 481044, Note_on_c, 6, 76, 0
8, 481080, Note_on_c, 6, 76, 64
8, 481164, Note_on_c, 6, 76, 0
8, 481200, Note_on_c, 6, 76, 66
8, 481284, Note_on_c, 6, 76, 0
8, 481320, Note_on_c, 6, 76, 67
8, 481404, Note_on_c, 6, 76, 0
8, 481440, Note_on_c, 6, 76, 69
8, 481524, Note_on_c, 6, 76, 0
8, 481560, Note_on_c, 6, 76, 70
8, 481644, Note_on_c, 6, 76, 0
8, 481680, Note_on_c, 6, 76, 72
8, 481764, Note_on_c, 6, 76, 0
8, 481800, Note_on_c, 6, 76, 74
8, 481884, Note_on_c, 6, 76, 0
8, 481920, Note_on_c, 6, 74, 75
8, 482004, Note_on_c, 6, 74, 0
8, 482040, Note_on_c, 6, 74, 77
8, 482124, Note_on_c, 6, 74, 0
8, 482160, Note_on_c, 6, 74, 78
8, 482244, Note_on_c, 6, 74, 0
8, 482280, Note_on_c, 6, 74, 80
8, 482364, Note_on_c, 6, 74, 0
8, 482400, Note_on_c, 6, 74, 82
8, 482484, Note_on_c, 6, 74, 0
8, 482520, Note_on_c, 6, 74, 83
8, 482604, Note_on_c, 6, 74, 0
8, 482640, Note_on_c, 6, 74, 85
8, 482724, Note_on_c, 6, 74, 0
8, 482760, Note_on_c, 6, 74, 86
8, 482844, Note_on_c, 6, 74, 0
8, 482880, Note_on_c, 6, 76, 88
8, 482880, Note_on_c, 6, 84, 88
8, 482964, Note_on_c, 6, 84, 0
8, 482964, Note_on_c, 6, 76, 0
8, 483000, Note_on_c, 6, 84, 90
8, 483000, Note_on_c, 6, 76, 90
8, 483084, Note_on_c, 6, 76, 0
8, 483084, Note_on_c, 6, 84, 0
8, 483120, Note_on_c, 6, 76, 91
8, 483120, Note_on_c, 6, 84, 91
8, 483204, Note_on_c, 6, 84, 0
8, 483204, Note_on_c, 6, 76, 0
8, 483240, Note_on_c, 6, 84, 93
8, 483240, Note_on_c, 6, 76, 93
8, 483324, Note_on_c, 6, 76, 0
8, 483324, Note_on_c, 6, 84, 0
8, 483360, Note_on_c, 6, 76, 94
8, 483360, Note_on_c, 6, 84, 94
8, 483444, Note_on_c, 6, 84, 0
8, 483444, Note_on_c, 6, 76, 0
8, 483480, Note_on_c, 6, 76, 96
8, 483480, Note_on_c, 6, 84, 96
8, 483564, Note_on_c, 6, 84, 0
8, 483564, Note_on_c, 6, 76, 0
8, 483600, Note_on_c, 6, 76, 98
8, 483600, Note_on_c, 6, 84, 98
8, 483684, Note_on_c, 6, 84, 0
8, 483684, Note_on_c, 6, 76, 0
8, 483720, Note_on_c, 6, 84, 99
8, 483720, Note_on_c, 6, 76, 99
8, 483804, Note_on_c, 6, 76, 0
8, 483804, Note_on_c, 6, 84, 0
8, 483840, Note_on_c, 6, 76, 101
8, 483840, Note_on_c, 6, 84, 101
8, 483924, Note_on_c, 6, 84, 0
8, 483924, Note_on_c, 6, 76, 0
8, 483960, Note_on_c, 6, 84, 102
8, 483960, Note_on_c, 6, 76, 102
8, 484044, Note_on_c, 6, 76, 0
8, 484044, Note_on_c, 6, 84, 0
8, 484080, Note_on_c, 6, 76, 104
8, 484080, Note_on_c, 6, 84, 104
8, 484164, Note_on_c, 6, 84, 0
8, 484164, Note_on_c, 6, 76, 0
8, 484200, Note_on_c, 6, 84, 106
8, 484200, Note_on_c, 6, 76, 106
8, 484284, Note_on_c, 6, 76, 0
8, 484284, Note_on_c, 6, 84, 0
8, 484320, Note_on_c, 6, 76, 107
8, 484320, Note_on_c, 6, 84, 107
8, 484404, Note_on_c, 6, 84, 0
8, 484404, Note_on_c, 6, 76, 0
8, 484440, Note_on_c, 6, 76, 109
8, 484440, Note_on_c, 6, 84, 109
8, 484524, Note_on_c, 6, 84, 0
8, 484524, Note_on_c, 6, 76, 0
8, 484560, Note_on_c, 6, 76, 110
8, 484560, Note_on_c, 6, 84, 110
8, 484644, Note_on_c, 6, 84, 0
8, 484644, Note_on_c, 6, 76, 0
8, 484680, Note_on_c, 6, 84, 112
8, 484680, Note_on_c, 6, 76, 112
8, 484764, Note_on_c, 6, 76, 0
8, 484764, Note_on_c, 6, 84, 0
8, 484800, Note_on_c, 6, 74, 114
8, 484800, Note_on_c, 6, 84, 114
8, 484884, Note_on_c, 6, 84, 0
8, 484884, Note_on_c, 6, 74, 0
8, 484920, Note_on_c, 6, 84, 115
8, 484920, Note_on_c, 6, 74, 115
8, 485004, Note_on_c, 6, 74, 0
8, 485004, Note_on_c, 6, 84, 0
8, 485040, Note_on_c, 6, 84, 117
8, 485040, Note_on_c, 6, 74, 117
8, 485124, Note_on_c, 6, 74, 0
8, 485124, Note_on_c, 6, 84, 0
8, 485160, Note_on_c, 6, 84, 118
8, 485160, Note_on_c, 6, 74, 118
8, 485244, Note_on_c, 6, 74, 0
8, 485244, Note_on_c, 6, 84, 0
8, 485280, Note_on_c, 6, 74, 120
8, 485280, Note_on_c, 6, 83, 120
8, 485364, Note_on_c, 6, 83, 0
8, 485364, Note_on_c, 6, 74, 0
8, 485400, Note_on_c, 6, 74, 122
8, 485400, Note_on_c, 6, 83, 122
8, 485484, Note_on_c, 6, 83, 0
8, 485484, Note_on_c, 6, 74, 0
8, 485520, Note_on_c, 6, 74, 123
8, 485520, Note_on_c, 6, 83, 123
8, 485604, Note_on_c, 6, 83, 0
8, 485604, Note_on_c, 6, 74, 0
8, 485640, Note_on_c, 6, 83, 125
8, 485640, Note_on_c, 6, 74, 125
8, 485724, Note_on_c, 6, 74, 0
8, 485724, Note_on_c, 6, 83, 0
8, 485760, Note_on_c, 6, 84, 127
8, 485760, Note_on_c, 6, 76, 127
8, 486000, Note_on_c, 6, 76, 0
8, 486000, Note_on_c, 6, 84, 0
8, 486240, Note_on_c, 6, 72, 50
8, 486720, Note_on_c, 6, 72, 0
8, 486720, Note_on_c, 6, 76, 50
8, 487200, Note_on_c, 6, 76, 0
8, 487200, Note_on_c, 6, 79, 50
8, 487680, Note_on_c, 6, 79, 0
8, 487680, Note_on_c, 6, 79, 50
8, 488160, Note_on_c, 6, 79, 0
8, 488160, Note_on_c, 6, 79, 50
8, 488220, Note_on_c, 6, 79, 0
8, 488220, Note_on_c, 6, 77, 50
8, 488280, Note_on_c, 6, 77, 0
8, 488280, Note_on_c, 6, 79, 50
8, 488340, Note_on_c, 6, 79, 0
8, 488340, Note_on_c, 6, 77, 50
8, 488400, Note_on_c, 6, 77, 0
8, 488400, Note_on_c, 6, 79, 50
8, 488460, Note_on_c, 6, 79, 0
8, 488460, Note_on_c, 6, 77, 50
8, 488520, Note_on_c, 6, 77, 0
8, 488520, Note_on_c, 6, 79, 50
8, 488580, Note_on_c, 6, 79, 0
8, 488580, Note_on_c, 6, 77, 50
8, 488640, Note_on_c, 6, 77, 0
8, 488640, Note_on_c, 6, 76, 50
8, 488880, Note_on_c, 6, 76, 0
8, 489120, Note_on_c, 6, 79, 50
8, 489360, Note_on_c, 6, 79, 0
8, 489600, Note_on_c, 6, 76, 50
8, 489840, Note_on_c, 6, 76, 0
8, 490080, Note_on_c, 6, 72, 50
8, 490320, Note_on_c, 6, 72, 0
8, 490560, Note_on_c, 6, 72, 50
8, 491040, Note_on_c, 6, 72, 0
8, 491040, Note_on_c, 6, 72, 50
8, 491100, Note_on_c, 6, 72, 0
8, 491100, Note_on_c, 6, 71, 50
8, 491160, Note_on_c, 6, 71, 0
8, 491160, Note_on_c, 6, 72, 50
8, 491220, Note_on_c, 6, 72, 0
8, 491220, Note_on_c, 6, 71, 50
8, 491280, Note_on_c, 6, 71, 0
8, 491280, Note_on_c, 6, 72, 50
8, 491340, Note_on_c, 6, 72, 0
8, 491340, Note_on_c, 6, 71, 50
8, 491400, Note_on_c, 6, 71, 0
8, 491400, Note_on_c, 6, 72, 50
8, 491460, Note_on_c, 6, 72, 0
8, 491460, Note_on_c, 6, 71, 50
8, 491520, Note_on_c, 6, 71, 0
8, 491520, Note_on_c, 6, 72, 50
8, 491904, Note_on_c, 6, 72, 0
8, 492000, Note_on_c, 6, 72, 127
8, 492225, Note_on_c, 6, 72, 0
8, 492360, Note_on_c, 6, 72, 127
8, 492456, Note_on_c, 6, 72, 0
8, 492480, Note_on_c, 6, 72, 127
8, 493152, Note_on_c, 6, 72, 0
8, 493200, Note_on_c, 6, 72, 127
8, 493272, Note_on_c, 6, 72, 0
8, 493320, Note_on_c, 6, 74, 127
8, 493392, Note_on_c, 6, 74, 0
8, 493440, Note_on_c, 6, 76, 127
8, 493512, Note_on_c, 6, 76, 0
8, 493560, Note_on_c, 6, 74, 127
8, 493632, Note_on_c, 6, 74, 0
8, 493680, Note_on_c, 6, 76, 127
8, 493752, Note_on_c, 6, 76, 0
8, 493800, Note_on_c, 6, 77, 127
8, 493872, Note_on_c, 6, 77, 0
8, 493920, Note_on_c, 6, 79, 127
8, 493992, Note_on_c, 6, 79, 0
8, 494040, Note_on_c, 6, 77, 127
8, 494112, Note_on_c, 6, 77, 0
8, 494160, Note_on_c, 6, 79, 127
8, 494232, Note_on_c, 6, 79, 0
8, 494280, Note_on_c, 6, 81, 127
8, 494352, Note_on_c, 6, 81, 0
8, 494400, Note_on_c, 6, 82, 127
8, 494880, Note_on_c, 6, 82, 0
8, 495360, Note_on_c, 6, 82, 50
8, 496320, Note_on_c, 6, 82, 0
8, 496320, Note_on_c, 6, 81, 50
8, 497280, Note_on_c, 6, 81, 0
8, 497280, Note_on_c, 6, 76, 50
8, 498240, Note_on_c, 6, 76, 0
8, 498240, Note_on_c, 6, 77, 50
8, 499200, Note_on_c, 6, 77, 0
8, 499200, Note_on_c, 6, 80, 50
8, 500160, Note_on_c, 6, 80, 0
8, 500160, Note_on_c, 6, 79, 50
8, 501120, Note_on_c, 6, 79, 0
8, 501120, Note_on_c, 6, 74, 50
8, 502080, Note_on_c, 6, 74, 0
8, 502080, Note_on_c, 6, 76, 50
8, 503040, Note_on_c, 6, 76, 0
8, 503040, Note_on_c, 6, 79, 50
8, 504000, Note_on_c, 6, 79, 0
8, 504000, Note_on_c, 6, 81, 50
8, 504960, Note_on_c, 6, 81, 0
8, 504960, Note_on_c, 6, 84, 50
8, 505920, Note_on_c, 6, 84, 0
8, 505920, Note_on_c, 6, 83, 50
8, 506880, Note_on_c, 6, 83, 0
8, 514080, Note_on_c, 6, 79, 70
8, 514416, Note_on_c, 6, 79, 0
8, 514560, Note_on_c, 6, 76, 72
8, 514896, Note_on_c, 6, 76, 0
8, 515040, Note_on_c, 6, 81, 73
8, 515638, Note_on_c, 6, 81, 0
8, 515640, Note_on_c, 6, 79, 74
8, 515760, Note_on_c, 6, 79, 0
8, 515760, Note_on_c, 6, 77, 75
8, 515880, Note_on_c, 6, 77, 0
8, 515880, Note_on_c, 6, 76, 75
8, 516000, Note_on_c, 6, 76, 0
8, 516000, Note_on_c, 6, 77, 75
8, 516120, Note_on_c, 6, 77, 0
8, 516120, Note_on_c, 6, 76, 76
8, 516240, Note_on_c, 6, 76, 0
8, 516240, Note_on_c, 6, 74, 76
8, 516360, Note_on_c, 6, 74, 0
8, 516360, Note_on_c, 6, 72, 76
8, 516480, Note_on_c, 6, 72, 0
8, 516480, Note_on_c, 6, 71, 77
8, 516816, Note_on_c, 6, 71, 0
8, 516960, Note_on_c, 6, 79, 78
8, 517296, Note_on_c, 6, 79, 0
8, 518400, Note_on_c, 6, 79, 82
8, 519312, Note_on_c, 6, 79, 0
8, 519360, Note_on_c, 6, 81, 84
8, 520272, Note_on_c, 6, 81, 0
8, 520320, Note_on_c, 6, 84, 86
8, 521232, Note_on_c, 6, 84, 0
8, 521280, Note_on_c, 6, 83, 89
8, 522192, Note_on_c, 6, 83, 0
8, 522480, Note_on_c, 6, 72, 92
8, 522600, Note_on_c, 6, 72, 0
8, 522720, Note_on_c, 6, 74, 93
8, 522840, Note_on_c, 6, 74, 0
8, 522960, Note_on_c, 6, 76, 93
8, 523080, Note_on_c, 6, 76, 0
8, 523200, Note_on_c, 6, 79, 94
8, 523260, Note_on_c, 6, 79, 0
8, 523260, Note_on_c, 6, 77, 94
8, 523320, Note_on_c, 6, 77, 0
8, 523320, Note_on_c, 6, 79, 94
8, 523380, Note_on_c, 6, 79, 0
8, 523380, Note_on_c, 6, 77, 94
8, 523440, Note_on_c, 6, 77, 0
8, 523560, Note_on_c, 6, 79, 95
8, 523644, Note_on_c, 6, 79, 0
8, 523680, Note_on_c, 6, 81, 95
8, 524064, Note_on_c, 6, 81, 0
8, 524400, Note_on_c, 6, 67, 97
8, 524520, Note_on_c, 6, 67, 0
8, 524640, Note_on_c, 6, 69, 98
8, 524760, Note_on_c, 6, 69, 0
8, 524880, Note_on_c, 6, 71, 98
8, 525000, Note_on_c, 6, 71, 0
8, 525120, Note_on_c, 6, 74, 99
8, 525180, Note_on_c, 6, 74, 0
8, 525180, Note_on_c, 6, 72, 99
8, 525240, Note_on_c, 6, 72, 0
8, 525240, Note_on_c, 6, 74, 99
8, 525300, Note_on_c, 6, 74, 0
8, 525300, Note_on_c, 6, 72, 99
8, 525360, Note_on_c, 6, 72, 0
8, 525480, Note_on_c, 6, 74, 100
8, 525564, Note_on_c, 6, 74, 0
8, 525600, Note_on_c, 6, 76, 100
8, 525984, Note_on_c, 6, 76, 0
8, 527280, Note_on_c, 6, 88, 104
8, 527400, Note_on_c, 6, 88, 0
8, 527520, Note_on_c, 6, 81, 105
8, 527640, Note_on_c, 6, 81, 0
8, 527760, Note_on_c, 6, 84, 106
8, 527880, Note_on_c, 6, 84, 0
8, 528000, Note_on_c, 6, 74, 106
8, 528120, Note_on_c, 6, 74, 0
8, 528240, Note_on_c, 6, 78, 107
8, 528360, Note_on_c, 6, 78, 0
8, 528480, Note_on_c, 6, 79, 107
8, 528600, Note_on_c, 6, 79, 0
8, 528720, Note_on_c, 6, 81, 108
8, 528840, Note_on_c, 6, 81, 0
8, 528960, Note_on_c, 6, 84, 109
8, 529020, Note_on_c, 6, 84, 0
8, 529020, Note_on_c, 6, 83, 109
8, 529080, Note_on_c, 6, 83, 0
8, 529080, Note_on_c, 6, 84, 109
8, 529140, Note_on_c, 6, 84, 0
8, 529140, Note_on_c, 6, 83, 109
8, 529200, Note_on_c, 6, 83, 0
8, 529320, Note_on_c, 6, 84, 110
8, 529404, Note_on_c, 6, 84, 0
8, 529440, Note_on_c, 6, 86, 110
8, 529824, Note_on_c, 6, 86, 0
8, 530400, Note_on_c, 6, 84, 112
8, 530625, Note_on_c, 6, 84, 0
8, 530760, Note_on_c, 6, 84, 113
8, 530880, Note_on_c, 6, 84, 0
8, 530880, Note_on_c, 6, 84, 114
8, 531600, Note_on_c, 6, 84, 0
8, 531600, Note_on_c, 6, 83, 115
8, 531684, Note_on_c, 6, 83, 0
8, 531720, Note_on_c, 6, 81, 116
8, 531804, Note_on_c, 6, 81, 0
8, 531840, Note_on_c, 6, 79, 116
8, 531924, Note_on_c, 6, 79, 0
8, 531960, Note_on_c, 6, 81, 116
8, 532044, Note_on_c, 6, 81, 0
8, 532080, Note_on_c, 6, 79, 117
8, 532164, Note_on_c, 6, 79, 0
8, 532200, Note_on_c, 6, 77, 117
8, 532284, Note_on_c, 6, 77, 0
8, 532320, Note_on_c, 6, 76, 117
8, 532404, Note_on_c, 6, 76, 0
8, 532440, Note_on_c, 6, 77, 118
8, 532524, Note_on_c, 6, 77, 0
8, 532560, Note_on_c, 6, 76, 118
8, 532644, Note_on_c, 6, 76, 0
8, 532680, Note_on_c, 6, 74, 118
8, 532764, Note_on_c, 6, 74, 0
8, 532800, Note_on_c, 6, 72, 118
8, 533760, Note_on_c, 6, 72, 0
8, 533760, Note_on_c, 6, 74, 121
8, 534720, Note_on_c, 6, 74, 0
8, 534720, Note_on_c, 6, 77, 123
8, 535680, Note_on_c, 6, 77, 0
8, 535680, Note_on_c, 6, 76, 126
8, 535800, Note_on_c, 6, 76, 0
8, 535920, Note_on_c, 6, 81, 127
8, 536040, Note_on_c, 6, 81, 0
8, 536160, Note_on_c, 6, 81, 127
8, 536280, Note_on_c, 6, 81, 0
8, 536400, Note_on_c, 6, 81, 127
8, 536520, Note_on_c, 6, 81, 0
8, 536640, Note_on_c, 6, 81, 127
8, 537360, Note_on_c, 6, 81, 0
8, 537360, Note_on_c, 6, 79, 127
8, 537420, Note_on_c, 6, 79, 0
8, 537420, Note_on_c, 6, 77, 127
8, 537480, Note_on_c, 6, 77, 0
8, 537480, Note_on_c, 6, 76, 127
8, 537540, Note_on_c, 6, 76, 0
8, 537540, Note_on_c, 6, 74, 127
8, 537600, Note_on_c, 6, 74, 0
8, 537600, Note_on_c, 6, 72, 127
8, 537840, Note_on_c, 6, 72, 0
8, 537840, Note_on_c, 6, 72, 127
8, 537960, Note_on_c, 6, 72, 0
8, 537960, Note_on_c, 6, 72, 127
8, 538080, Note_on_c, 6, 72, 0
8, 538080, Note_on_c, 6, 74, 127
8, 538320, Note_on_c, 6, 74, 0
8, 538320, Note_on_c, 6, 74, 127
8, 538440, Note_on_c, 6, 74, 0
8, 538440, Note_on_c, 6, 74, 127
8, 538560, Note_on_c, 6, 74, 0
8, 538560, Note_on_c, 6, 76, 127
8, 538680, Note_on_c, 6, 76, 0
8, 538800, Note_on_c, 6, 81, 127
8, 538920, Note_on_c, 6, 81, 0
8, 539040, Note_on_c, 6, 81, 127
8, 539160, Note_on_c, 6, 81, 0
8, 539280, Note_on_c, 6, 81, 127
8, 539400, Note_on_c, 6, 81, 0
8, 539520, Note_on_c, 6, 81, 127
8, 540240, Note_on_c, 6, 81, 0
8, 540240, Note_on_c, 6, 84, 127
8, 540360, Note_on_c, 6, 84, 0
8, 540360, Note_on_c, 6, 81, 127
8, 540480, Note_on_c, 6, 81, 0
8, 540480, Note_on_c, 6, 81, 127
8, 540593, Note_on_c, 6, 81, 0
8, 540600, Note_on_c, 6, 79, 127
8, 540713, Note_on_c, 6, 79, 0
8, 540720, Note_on_c, 6, 77, 127
8, 540833, Note_on_c, 6, 77, 0
8, 540840, Note_on_c, 6, 76, 127
8, 540953, Note_on_c, 6, 76, 0
8, 540960, Note_on_c, 6, 76, 127
8, 541073, Note_on_c, 6, 76, 0
8, 541080, Note_on_c, 6, 74, 127
8, 541193, Note_on_c, 6, 74, 0
8, 541200, Note_on_c, 6, 72, 127
8, 541313, Note_on_c, 6, 72, 0
8, 541320, Note_on_c, 6, 71, 127
8, 541433, Note_on_c, 6, 71, 0
8, 541440, Note_on_c, 6, 72, 127
8, 541680, Note_on_c, 6, 72, 0
8, 541920, Note_on_c, 6, 72, 127
8, 542145, Note_on_c, 6, 72, 0
8, 542280, Note_on_c, 6, 72, 127
8, 542400, Note_on_c, 6, 72, 0
8, 542400, Note_on_c, 6, 72, 127
8, 543048, Note_on_c, 6, 72, 0
8, 543120, Note_on_c, 6, 71, 127
8, 543204, Note_on_c, 6, 71, 0
8, 543240, Note_on_c, 6, 69, 127
8, 543324, Note_on_c, 6, 69, 0
8, 543360, Note_on_c, 6, 67, 127
8, 543444, Note_on_c, 6, 67, 0
8, 543480, Note_on_c, 6, 69, 127
8, 543564, Note_on_c, 6, 69, 0
8, 543600, Note_on_c, 6, 67, 127
8, 543684, Note_on_c, 6, 67, 0
8, 543720, Note_on_c, 6, 65, 127
8, 543804, Note_on_c, 6, 65, 0
8, 543840, Note_on_c, 6, 64, 127
8, 543924, Note_on_c, 6, 64, 0
8, 543960, Note_on_c, 6, 65, 127
8, 544044, Note_on_c, 6, 65, 0
8, 544080, Note_on_c, 6, 64, 127
8, 544164, Note_on_c, 6, 64, 0
8, 544200, Note_on_c, 6, 62, 127
8, 544284, Note_on_c, 6, 62, 0
8, 544320, Note_on_c, 6, 60, 127
8, 544656, Note_on_c, 6, 60, 0
8, 544800, Note_on_c, 6, 76, 127
8, 544968, Note_on_c, 6, 76, 0
8, 545160, Note_on_c, 6, 76, 127
8, 545244, Note_on_c, 6, 76, 0
8, 545280, Note_on_c, 6, 76, 127
8, 545928, Note_on_c, 6, 76, 0
8, 546000, Note_on_c, 6, 74, 127
8, 546084, Note_on_c, 6, 74, 0
8, 546120, Note_on_c, 6, 72, 127
8, 546204, Note_on_c, 6, 72, 0
8, 546240, Note_on_c, 6, 71, 127
8, 546324, Note_on_c, 6, 71, 0
8, 546360, Note_on_c, 6, 72, 127
8, 546444, Note_on_c, 6, 72, 0
8, 546480, Note_on_c, 6, 71, 127
8, 546564, Note_on_c, 6, 71, 0
8, 546600, Note_on_c, 6, 69, 127
8, 546684, Note_on_c, 6, 69, 0
8, 546720, Note_on_c, 6, 67, 127
8, 546804, Note_on_c, 6, 67, 0
8, 546840, Note_on_c, 6, 69, 127
8, 546924, Note_on_c, 6, 69, 0
8, 546960, Note_on_c, 6, 67, 127
8, 547044, Note_on_c, 6, 67, 0
8, 547080, Note_on_c, 6, 65, 127
8, 547164, Note_on_c, 6, 65, 0
8, 547200, Note_on_c, 6, 64, 127
8, 547284, Note_on_c, 6, 64, 0
8, 547320, Note_on_c, 6, 67, 127
8, 547404, Note_on_c, 6, 67, 0
8, 547440, Note_on_c, 6, 72, 127
8, 547524, Note_on_c, 6, 72, 0
8, 547560, Note_on_c, 6, 76, 127
8, 547644, Note_on_c, 6, 76, 0
8, 547680, Note_on_c, 6, 79, 127
8, 547764, Note_on_c, 6, 79, 0
8, 547800, Note_on_c, 6, 79, 127
8, 547884, Note_on_c, 6, 79, 0
8, 547920, Note_on_c, 6, 79, 127
8, 548004, Note_on_c, 6, 79, 0
8, 548040, Note_on_c, 6, 79, 127
8, 548124, Note_on_c, 6, 79, 0
8, 548160, Note_on_c, 6, 79, 127
8, 548244, Note_on_c, 6, 79, 0
8, 548280, Note_on_c, 6, 79, 127
8, 548364, Note_on_c, 6, 79, 0
8, 548400, Note_on_c, 6, 79, 127
8, 548484, Note_on_c, 6, 79, 0
8, 548520, Note_on_c, 6, 79, 127
8, 548604, Note_on_c, 6, 79, 0
8, 548640, Note_on_c, 6, 79, 127
8, 548724, Note_on_c, 6, 79, 0
8, 548760, Note_on_c, 6, 79, 127
8, 548844, Note_on_c, 6, 79, 0
8, 548880, Note_on_c, 6, 79, 127
8, 548964, Note_on_c, 6, 79, 0
8, 549000, Note_on_c, 6, 79, 127
8, 549084, Note_on_c, 6, 79, 0
8, 549120, Note_on_c, 6, 79, 127
8, 549204, Note_on_c, 6, 79, 0
8, 549240, Note_on_c, 6, 79, 127
8, 549324, Note_on_c, 6, 79, 0
8, 549360, Note_on_c, 6, 79, 127
8, 549444, Note_on_c, 6, 79, 0
8, 549480, Note_on_c, 6, 79, 127
8, 549564, Note_on_c, 6, 79, 0
8, 549600, Note_on_c, 6, 79, 127
8, 549684, Note_on_c, 6, 79, 0
8, 549720, Note_on_c, 6, 79, 127
8, 549804, Note_on_c, 6, 79, 0
8, 549840, Note_on_c, 6, 81, 127
8, 549924, Note_on_c, 6, 81, 0
8, 549960, Note_on_c, 6, 83, 127
8, 550044, Note_on_c, 6, 83, 0
8, 550080, Note_on_c, 6, 84, 127
8, 550164, Note_on_c, 6, 84, 0
8, 550200, Note_on_c, 6, 79, 127
8, 550284, Note_on_c, 6, 79, 0
8, 550320, Note_on_c, 6, 83, 127
8, 550404, Note_on_c, 6, 83, 0
8, 550440, Note_on_c, 6, 79, 127
8, 550524, Note_on_c, 6, 79, 0
8, 550560, Note_on_c, 6, 84, 127
8, 550644, Note_on_c, 6, 84, 0
8, 550680, Note_on_c, 6, 79, 127
8, 550764, Note_on_c, 6, 79, 0
8, 550800, Note_on_c, 6, 83, 127
8, 550884, Note_on_c, 6, 83, 0
8, 550920, Note_on_c, 6, 79, 127
8, 551004, Note_on_c, 6, 79, 0
8, 551040, Note_on_c, 6, 84, 127
8, 551160, Note_on_c, 6, 84, 0
8, 551160, Note_on_c, 6, 79, 127
8, 551280, Note_on_c, 6, 79, 0
8, 551280, Note_on_c, 6, 83, 127
8, 551400, Note_on_c, 6, 83, 0
8, 551400, Note_on_c, 6, 79, 127
8, 551520, Note_on_c, 6, 79, 0
8, 551520, Note_on_c, 6, 84, 127
8, 551640, Note_on_c, 6, 84, 0
8, 551640, Note_on_c, 6, 79, 127
8, 551760, Note_on_c, 6, 79, 0
8, 551760, Note_on_c, 6, 83, 127
8, 551880, Note_on_c, 6, 83, 0
8, 551880, Note_on_c, 6, 79, 127
8, 552000, Note_on_c, 6, 79, 0
8, 552000, Note_on_c, 6, 84, 127
8, 552480, Note_on_c, 6, 84, 0
8, 552960, Note_on_c, 6, 76, 127
8, 552960, Note_on_c, 6, 67, 127
8, 552960, Note_on_c, 6, 84, 127
8, 553344, Note_on_c, 6, 84, 0
8, 553344, Note_on_c, 6, 67, 0
8, 553344, Note_on_c, 6, 76, 0
8, 553440, Note_on_c, 6, 76, 127
8, 553440, Note_on_c, 6, 67, 127
8, 553440, Note_on_c, 6, 84, 127
8, 553824, Note_on_c, 6, 84, 0
8, 553824, Note_on_c, 6, 67, 0
8, 553824, Note_on_c, 6, 76, 0
8, 553920, Note_on_c, 6, 76, 127
8, 553920, Note_on_c, 6, 67, 127
8, 553920, Note_on_c, 6, 84, 127
8, 554513, Note_on_c, 6, 84, 0
8, 554513, Note_on_c, 6, 67, 0
8, 554513, Note_on_c, 6, 76, 0
8, 554880, Note_on_c, 6, 76, 127
8, 554880, Note_on_c, 6, 67, 127
8, 554880, Note_on_c, 6, 84, 127
8, 555288, Note_on_c, 6, 84, 0
8, 555288, Note_on_c, 6, 67, 0
8, 555288, Note_on_c, 6, 76, 0
8, 555360, Note_on_c, 6, 67, 127
8, 555360, Note_on_c, 6, 84, 127
8, 555360, Note_on_c, 6, 76, 127
8, 555768, Note_on_c, 6, 76, 0
8, 555768, Note_on_c, 6, 84, 0
8, 555768, Note_on_c, 6, 67, 0
8, 555840, Note_on_c, 6, 76, 127
8, 555840, Note_on_c, 6, 67, 127
8, 555840, Note_on_c, 6, 84, 127
8, 556524, Note_on_c, 6, 84, 0
8, 556524, Note_on_c, 6, 67, 0
8, 556524, Note_on_c, 6, 76, 0
8, 556524, End_track
9, 0, Start_track
9, 0, Title_t, "Violin II"
9, 0, Program_c, 7, 48
9, 0, Control_c, 7, 7, 110
9, 0, Control_c, 7, 10, 44
9, 0, Note_on_c, 7, 64, 50
9, 120, Note_on_c, 7, 64, 0
9, 120, Note_on_c, 7, 72, 50
9, 240, Note_on_c, 7, 72, 0
9, 240, Note_on_c, 7, 64, 50
9, 360, Note_on_c, 7, 64, 0
9, 360, Note_on_c, 7, 72, 50
9, 480, Note_on_c, 7, 72, 0
9, 480, Note_on_c, 7, 64, 50
9, 600, Note_on_c, 7, 64, 0
9, 600, Note_on_c, 7, 72, 50
9, 720, Note_on_c, 7, 72, 0
9, 720, Note_on_c, 7, 64, 50
9, 840, Note_on_c, 7, 64, 0
9, 840, Note_on_c, 7, 72, 50
9, 960, Note_on_c, 7, 72, 0
9, 960, Note_on_c, 7, 65, 50
9, 1080, Note_on_c, 7, 65, 0
9, 1080, Note_on_c, 7, 72, 50
9, 1200, Note_on_c, 7, 72, 0
9, 1200, Note_on_c, 7, 65, 50
9, 1320, Note_on_c, 7, 65, 0
9, 1320, Note_on_c, 7, 72, 50
9, 1440, Note_on_c, 7, 72, 0
9, 1440, Note_on_c, 7, 65, 50
9, 1560, Note_on_c, 7, 65, 0
9, 1560, Note_on_c, 7, 72, 50
9, 1680, Note_on_c, 7, 72, 0
9, 1680, Note_on_c, 7, 65, 50
9, 1800, Note_on_c, 7, 65, 0
9, 1800, Note_on_c, 7, 72, 50
9, 1920, Note_on_c, 7, 72, 0
9, 1920, Note_on_c, 7, 67, 50
9, 2040, Note_on_c, 7, 67, 0
9, 2040, Note_on_c, 7, 71, 50
9, 2160, Note_on_c, 7, 71, 0
9, 2160, Note_on_c, 7, 67, 50
9, 2280, Note_on_c, 7, 67, 0
9, 2280, Note_on_c, 7, 71, 50
9, 2400, Note_on_c, 7, 71, 0
9, 2400, Note_on_c, 7, 67, 50
9, 2520, Note_on_c, 7, 67, 0
9, 2520, Note_on_c, 7, 71, 50
9, 2640, Note_on_c, 7, 71, 0
9, 2640, Note_on_c, 7, 67, 50
9, 2760, Note_on_c, 7, 67, 0
9, 2760, Note_on_c, 7, 71, 50
9, 2880, Note_on_c, 7, 71, 0
9, 2880, Note_on_c, 7, 69, 50
9, 3000, Note_on_c, 7, 69, 0
9, 3000, Note_on_c, 7, 72, 50
9, 3120, Note_on_c, 7, 72, 0
9, 3120, Note_on_c, 7, 69, 50
9, 3240, Note_on_c, 7, 69, 0
9, 3240, Note_on_c, 7, 72, 50
9, 3360, Note_on_c, 7, 72, 0
9, 3360, Note_on_c, 7, 69, 50
9, 3480, Note_on_c, 7, 69, 0
9, 3480, Note_on_c, 7, 72, 50
9, 3600, Note_on_c, 7, 72, 0
9, 3600, Note_on_c, 7, 69, 50
9, 3720, Note_on_c, 7, 69, 0
9, 3720, Note_on_c, 7, 72, 50
9, 3840, Note_on_c, 7, 72, 0
9, 3840, Note_on_c, 7, 60, 50
9, 3960, Note_on_c, 7, 60, 0
9, 3960, Note_on_c, 7, 69, 50
9, 4080, Note_on_c, 7, 69, 0
9, 4080, Note_on_c, 7, 60, 50
9, 4200, Note_on_c, 7, 60, 0
9, 4200, Note_on_c, 7, 69, 50
9, 4320, Note_on_c, 7, 69, 0
9, 4320, Note_on_c, 7, 60, 50
9, 4440, Note_on_c, 7, 60, 0
9, 4440, Note_on_c, 7, 69, 50
9, 4560, Note_on_c, 7, 69, 0
9, 4560, Note_on_c, 7, 60, 50
9, 4680, Note_on_c, 7, 60, 0
9, 4680, Note_on_c, 7, 69, 50
9, 4800, Note_on_c, 7, 69, 0
9, 4800, Note_on_c, 7, 60, 50
9, 4920, Note_on_c, 7, 60, 0
9, 4920, Note_on_c, 7, 67, 50
9, 5040, Note_on_c, 7, 67, 0
9, 5040, Note_on_c, 7, 60, 50
9, 5160, Note_on_c, 7, 60, 0
9, 5160, Note_on_c, 7, 67, 50
9, 5280, Note_on_c, 7, 67, 0
9, 5280, Note_on_c, 7, 60, 50
9, 5400, Note_on_c, 7, 60, 0
9, 5400, Note_on_c, 7, 67, 50
9, 5520, Note_on_c, 7, 67, 0
9, 5520, Note_on_c, 7, 60, 50
9, 5640, Note_on_c, 7, 60, 0
9, 5640, Note_on_c, 7, 67, 50
9, 5760, Note_on_c, 7, 67, 0
9, 5760, Note_on_c, 7, 59, 50
9, 5880, Note_on_c, 7, 59, 0
9, 5880, Note_on_c, 7, 67, 50
9, 6000, Note_on_c, 7, 67, 0
9, 6000, Note_on_c, 7, 59, 50
9, 6120, Note_on_c, 7, 59, 0
9, 6120, Note_on_c, 7, 67, 50
9, 6240, Note_on_c, 7, 67, 0
9, 6240, Note_on_c, 7, 60, 50
9, 6360, Note_on_c, 7, 60, 0
9, 6360, Note_on_c, 7, 67, 50
9, 6480, Note_on_c, 7, 67, 0
9, 6480, Note_on_c, 7, 60, 50
9, 6600, Note_on_c, 7, 60, 0
9, 6600, Note_on_c, 7, 67, 50
9, 6720, Note_on_c, 7, 67, 0
9, 6720, Note_on_c, 7, 59, 50
9, 6960, Note_on_c, 7, 59, 0
9, 7680, Note_on_c, 7, 60, 100
9, 8640, Note_on_c, 7, 60, 0
9, 8640, Note_on_c, 7, 62, 100
9, 9600, Note_on_c, 7, 62, 0
9, 9600, Note_on_c, 7, 65, 100
9, 10560, Note_on_c, 7, 65, 0
9, 10560, Note_on_c, 7, 64, 100
9, 11520, Note_on_c, 7, 64, 0
9, 11760, Note_on_c, 7, 72, 127
9, 11880, Note_on_c, 7, 72, 0
9, 12000, Note_on_c, 7, 72, 127
9, 12120, Note_on_c, 7, 72, 0
9, 12240, Note_on_c, 7, 72, 127
9, 12360, Note_on_c, 7, 72, 0
9, 12480, Note_on_c, 7, 72, 127
9, 13200, Note_on_c, 7, 72, 0
9, 13200, Note_on_c, 7, 71, 127
9, 13260, Note_on_c, 7, 71, 0
9, 13260, Note_on_c, 7, 69, 127
9, 13320, Note_on_c, 7, 69, 0
9, 13320, Note_on_c, 7, 67, 127
9, 13380, Note_on_c, 7, 67, 0
9, 13380, Note_on_c, 7, 65, 127
9, 13440, Note_on_c, 7, 65, 0
9, 13440, Note_on_c, 7, 64, 127
9, 13560, Note_on_c, 7, 64, 0
9, 13680, Note_on_c, 7, 64, 127
9, 13740, Note_on_c, 7, 64, 0
9, 13800, Note_on_c, 7, 64, 127
9, 13860, Note_on_c, 7, 64, 0
9, 13920, Note_on_c, 7, 59, 127
9, 14040, Note_on_c, 7, 59, 0
9, 14160, Note_on_c, 7, 59, 127
9, 14220, Note_on_c, 7, 59, 0
9, 14280, Note_on_c, 7, 59, 127
9, 14340, Note_on_c, 7, 59, 0
9, 14400, Note_on_c, 7, 60, 127
9, 14520, Note_on_c, 7, 60, 0
9, 14640, Note_on_c, 7, 72, 127
9, 14760, Note_on_c, 7, 72, 0
9, 14880, Note_on_c, 7, 72, 127
9, 15000, Note_on_c, 7, 72, 0
9, 15120, Note_on_c, 7, 72, 127
9, 15240, Note_on_c, 7, 72, 0
9, 15360, Note_on_c, 7, 72, 127
9, 16080, Note_on_c, 7, 72, 0
9, 16080, Note_on_c, 7, 81, 127
9, 16200, Note_on_c, 7, 81, 0
9, 16200, Note_on_c, 7, 77, 127
9, 16320, Note_on_c, 7, 77, 0
9, 16320, Note_on_c, 7, 77, 127
9, 16433, Note_on_c, 7, 77, 0
9, 16440, Note_on_c, 7, 76, 127
9, 16553, Note_on_c, 7, 76, 0
9, 16560, Note_on_c, 7, 74, 127
9, 16680, Note_on_c, 7, 74, 0
9, 16680, Note_on_c, 7, 72, 127
9, 16800, Note_on_c, 7, 72, 0
9, 16800, Note_on_c, 7, 67, 127
9, 16913, Note_on_c, 7, 67, 0
9, 16920, Note_on_c, 7, 65, 127
9, 17033, Note_on_c, 7, 65, 0
9, 17040, Note_on_c, 7, 64, 127
9, 17160, Note_on_c, 7, 64, 0
9, 17160, Note_on_c, 7, 62, 127
9, 17280, Note_on_c, 7, 62, 0
9, 17280, Note_on_c, 7, 64, 127
9, 17520, Note_on_c, 7, 64, 0
9, 20640, Note_on_c, 7, 72, 127
9, 20865, Note_on_c, 7, 72, 0
9, 21000, Note_on_c, 7, 72, 127
9, 21120, Note_on_c, 7, 72, 0
9, 21120, Note_on_c, 7, 72, 127
9, 21720, Note_on_c, 7, 72, 0
9, 21840, Note_on_c, 7, 71, 127
9, 21912, Note_on_c, 7, 71, 0
9, 21960, Note_on_c, 7, 69, 127
9, 22032, Note_on_c, 7, 69, 0
9, 22080, Note_on_c, 7, 67, 127
9, 22152, Note_on_c, 7, 67, 0
9, 22200, Note_on_c, 7, 69, 127
9, 22272, Note_on_c, 7, 69, 0
9, 22320, Note_on_c, 7, 67, 127
9, 22392, Note_on_c, 7, 67, 0
9, 22440, Note_on_c, 7, 65, 127
9, 22512, Note_on_c, 7, 65, 0
9, 22560, Note_on_c, 7, 64, 127
9, 22632, Note_on_c, 7, 64, 0
9, 22680, Note_on_c, 7, 65, 127
9, 22752, Note_on_c, 7, 65, 0
9, 22800, Note_on_c, 7, 64, 127
9, 22872, Note_on_c, 7, 64, 0
9, 22920, Note_on_c, 7, 62, 127
9, 22992, Note_on_c, 7, 62, 0
9, 23040, Note_on_c, 7, 60, 127
9, 23280, Note_on_c, 7, 60, 0
9, 23520, Note_on_c, 7, 76, 127
9, 23745, Note_on_c, 7, 76, 0
9, 23880, Note_on_c, 7, 76, 127
9, 24000, Note_on_c, 7, 76, 0
9, 24000, Note_on_c, 7, 76, 127
9, 24600, Note_on_c, 7, 76, 0
9, 24720, Note_on_c, 7, 74, 127
9, 24840, Note_on_c, 7, 74, 0
9, 24840, Note_on_c, 7, 72, 127
9, 24960, Note_on_c, 7, 72, 0
9, 24960, Note_on_c, 7, 71, 127
9, 25044, Note_on_c, 7, 71, 0
9, 25080, Note_on_c, 7, 72, 127
9, 25164, Note_on_c, 7, 72, 0
9, 25200, Note_on_c, 7, 71, 127
9, 25284, Note_on_c, 7, 71, 0
9, 25320, Note_on_c, 7, 69, 127
9, 25404, Note_on_c, 7, 69, 0
9, 25440, Note_on_c, 7, 67, 127
9, 25524, Note_on_c, 7, 67, 0
9, 25560, Note_on_c, 7, 69, 127
9, 25644, Note_on_c, 7, 69, 0
9, 25680, Note_on_c, 7, 67, 127
9, 25764, Note_on_c, 7, 67, 0
9, 25800, Note_on_c, 7, 65, 127
9, 25884, Note_on_c, 7, 65, 0
9, 25920, Note_on_c, 7, 64, 127
9, 26040, Note_on_c, 7, 64, 0
9, 26160, Note_on_c, 7, 77, 127
9, 26160, Note_on_c, 7, 74, 127
9, 26280, Note_on_c, 7, 74, 0
9, 26280, Note_on_c, 7, 77, 0
9, 26400, Note_on_c, 7, 76, 127
9, 26400, Note_on_c, 7, 72, 127
9, 26520, Note_on_c, 7, 72, 0
9, 26520, Note_on_c, 7, 76, 0
9, 26640, Note_on_c, 7, 74, 127
9, 26640, Note_on_c, 7, 77, 127
9, 26760, Note_on_c, 7, 77, 0
9, 26760, Note_on_c, 7, 74, 0
9, 26880, Note_on_c, 7, 76, 127
9, 26880, Note_on_c, 7, 72, 127
9, 27000, Note_on_c, 7, 72, 0
9, 27000, Note_on_c, 7, 76, 0
9, 27120, Note_on_c, 7, 77, 127
9, 27120, Note_on_c, 7, 74, 127
9, 27240, Note_on_c, 7, 74, 0
9, 27240, Note_on_c, 7, 77, 0
9, 27360, Note_on_c, 7, 76, 127
9, 27360, Note_on_c, 7, 72, 127
9, 27480, Note_on_c, 7, 72, 0
9, 27480, Note_on_c, 7, 76, 0
9, 27600, Note_on_c, 7, 74, 127
9, 27600, Note_on_c, 7, 77, 127
9, 27720, Note_on_c, 7, 77, 0
9, 27720, Note_on_c, 7, 74, 0
9, 27840, Note_on_c, 7, 76, 127
9, 27840, Note_on_c, 7, 72, 127
9, 28176, Note_on_c, 7, 72, 0
9, 28176, Note_on_c, 7, 76, 0
9, 29760, Note_on_c, 7, 79, 127
9, 29760, Note_on_c, 7, 71, 127
9, 29880, Note_on_c, 7, 71, 0
9, 29880, Note_on_c, 7, 79, 0
9, 30000, Note_on_c, 7, 79, 127
9, 30000, Note_on_c, 7, 71, 127
9, 30120, Note_on_c, 7, 71, 0
9, 30120, Note_on_c, 7, 79, 0
9, 30240, Note_on_c, 7, 76, 127
9, 30240, Note_on_c, 7, 72, 127
9, 30360, Note_on_c, 7, 72, 0
9, 30360, Note_on_c, 7, 76, 0
9, 30480, Note_on_c, 7, 72, 127
9, 30480, Note_on_c, 7, 76, 127
9, 30600, Note_on_c, 7, 76, 0
9, 30600, Note_on_c, 7, 72, 0
9, 30720, Note_on_c, 7, 79, 127
9, 30720, Note_on_c, 7, 71, 127
9, 30840, Note_on_c, 7, 71, 0
9, 30840, Note_on_c, 7, 79, 0
9, 30960, Note_on_c, 7, 79, 127
9, 30960, Note_on_c, 7, 71, 127
9, 31080, Note_on_c, 7, 71, 0
9, 31080, Note_on_c, 7, 79, 0
9, 31200, Note_on_c, 7, 76, 127
9, 31200, Note_on_c, 7, 72, 127
9, 31320, Note_on_c, 7, 72, 0
9, 31320, Note_on_c, 7, 76, 0
9, 31440, Note_on_c, 7, 72, 127
9, 31440, Note_on_c, 7, 76, 127
9, 31560, Note_on_c, 7, 76, 0
9, 31560, Note_on_c, 7, 72, 0
9, 31680, Note_on_c, 7, 79, 127
9, 31680, Note_on_c, 7, 71, 127
9, 31800, Note_on_c, 7, 71, 0
9, 31800, Note_on_c, 7, 79, 0
9, 31920, Note_on_c, 7, 79, 127
9, 31920, Note_on_c, 7, 71, 127
9, 32040, Note_on_c, 7, 71, 0
9, 32040, Note_on_c, 7, 79, 0
9, 32160, Note_on_c, 7, 76, 127
9, 32160, Note_on_c, 7, 72, 127
9, 32280, Note_on_c, 7, 72, 0
9, 32280, Note_on_c, 7, 76, 0
9, 32400, Note_on_c, 7, 72, 127
9, 32400, Note_on_c, 7, 76, 127
9, 32520, Note_on_c, 7, 76, 0
9, 32520, Note_on_c, 7, 72, 0
9, 32640, Note_on_c, 7, 71, 127
9, 32640, Note_on_c, 7, 62, 127
9, 32640, Note_on_c, 7, 79, 127
9, 32880, Note_on_c, 7, 62, 0
9, 32880, Note_on_c, 7, 71, 0
9, 33120, Note_on_c, 7, 79, 0
9, 33600, Note_on_c, 7, 72, 50
9, 34560, Note_on_c, 7, 72, 0
9, 34560, Note_on_c, 7, 74, 50
9, 35520, Note_on_c, 7, 74, 0
9, 35520, Note_on_c, 7, 77, 50
9, 36718, Note_on_c, 7, 77, 0
9, 36720, Note_on_c, 7, 79, 50
9, 36840, Note_on_c, 7, 79, 0
9, 36840, Note_on_c, 7, 77, 50
9, 36960, Note_on_c, 7, 77, 0
9, 36960, Note_on_c, 7, 76, 50
9, 37080, Note_on_c, 7, 76, 0
9, 37200, Note_on_c, 7, 74, 50
9, 37320, Note_on_c, 7, 74, 0
9, 37440, Note_on_c, 7, 72, 50
9, 37560, Note_on_c, 7, 72, 0
9, 37680, Note_on_c, 7, 71, 50
9, 37800, Note_on_c, 7, 71, 0
9, 37920, Note_on_c, 7, 69, 50
9, 38040, Note_on_c, 7, 69, 0
9, 38160, Note_on_c, 7, 67, 50
9, 38280, Note_on_c, 7, 67, 0
9, 38400, Note_on_c, 7, 66, 50
9, 38520, Note_on_c, 7, 66, 0
9, 38640, Note_on_c, 7, 67, 50
9, 38760, Note_on_c, 7, 67, 0
9, 38880, Note_on_c, 7, 64, 50
9, 39000, Note_on_c, 7, 64, 0
9, 39120, Note_on_c, 7, 66, 50
9, 39240, Note_on_c, 7, 66, 0
9, 39360, Note_on_c, 7, 67, 50
9, 39480, Note_on_c, 7, 67, 0
9, 39600, Note_on_c, 7, 74, 50
9, 39840, Note_on_c, 7, 74, 0
9, 39840, Note_on_c, 7, 79, 50
9, 39960, Note_on_c, 7, 79, 0
9, 40080, Note_on_c, 7, 77, 50
9, 40560, Note_on_c, 7, 77, 0
9, 40560, Note_on_c, 7, 79, 50
9, 40680, Note_on_c, 7, 79, 0
9, 40680, Note_on_c, 7, 77, 50
9, 40800, Note_on_c, 7, 77, 0
9, 40800, Note_on_c, 7, 76, 50
9, 40920, Note_on_c, 7, 76, 0
9, 41040, Note_on_c, 7, 72, 50
9, 41160, Note_on_c, 7, 72, 0
9, 41280, Note_on_c, 7, 69, 50
9, 42478, Note_on_c, 7, 69, 0
9, 42480, Note_on_c, 7, 77, 50
9, 42600, Note_on_c, 7, 77, 0
9, 42600, Note_on_c, 7, 76, 50
9, 42720, Note_on_c, 7, 76, 0
9, 42720, Note_on_c, 7, 74, 50
9, 42840, Note_on_c, 7, 74, 0
9, 42960, Note_on_c, 7, 72, 50
9, 43080, Note_on_c, 7, 72, 0
9, 43200, Note_on_c, 7, 71, 50
9, 44398, Note_on_c, 7, 71, 0
9, 44400, Note_on_c, 7, 76, 50
9, 44520, Note_on_c, 7, 76, 0
9, 44520, Note_on_c, 7, 74, 50
9, 44640, Note_on_c, 7, 74, 0
9, 44640, Note_on_c, 7, 72, 50
9, 44760, Note_on_c, 7, 72, 0
9, 44880, Note_on_c, 7, 71, 50
9, 45000, Note_on_c, 7, 71, 0
9, 45120, Note_on_c, 7, 69, 50
9, 46318, Note_on_c, 7, 69, 0
9, 46320, Note_on_c, 7, 71, 50
9, 46440, Note_on_c, 7, 71, 0
9, 46440, Note_on_c, 7, 69, 50
9, 46560, Note_on_c, 7, 69, 0
9, 46560, Note_on_c, 7, 67, 50
9, 46680, Note_on_c, 7, 67, 0
9, 46800, Note_on_c, 7, 65, 50
9, 46920, Note_on_c, 7, 65, 0
9, 47040, Note_on_c, 7, 64, 50
9, 47520, Note_on_c, 7, 64, 0
9, 47520, Note_on_c, 7, 76, 50
9, 48238, Note_on_c, 7, 76, 0
9, 48240, Note_on_c, 7, 77, 50
9, 48360, Note_on_c, 7, 77, 0
9, 48360, Note_on_c, 7, 76, 50
9, 48480, Note_on_c, 7, 76, 0
9, 48480, Note_on_c, 7, 74, 50
9, 48720, Note_on_c, 7, 74, 0
9, 48720, Note_on_c, 7, 77, 50
9, 48960, Note_on_c, 7, 77, 0
9, 48960, Note_on_c, 7, 69, 50
9, 49440, Note_on_c, 7, 69, 0
9, 49440, Note_on_c, 7, 62, 50
9, 49920, Note_on_c, 7, 62, 0
9, 49920, Note_on_c, 7, 60, 100
9, 50880, Note_on_c, 7, 60, 0
9, 50880, Note_on_c, 7, 62, 100
9, 51840, Note_on_c, 7, 62, 0
9, 51840, Note_on_c, 7, 65, 100
9, 52800, Note_on_c, 7, 65, 0
9, 52800, Note_on_c, 7, 64, 100
9, 52872, Note_on_c, 7, 64, 0
9, 52920, Note_on_c, 7, 76, 100
9, 52992, Note_on_c, 7, 76, 0
9, 53040, Note_on_c, 7, 76, 100
9, 53112, Note_on_c, 7, 76, 0
9, 53160, Note_on_c, 7, 76, 100
9, 53232, Note_on_c, 7, 76, 0
9, 53280, Note_on_c, 7, 76, 100
9, 53352, Note_on_c, 7, 76, 0
9, 53400, Note_on_c, 7, 76, 100
9, 53472, Note_on_c, 7, 76, 0
9, 53520, Note_on_c, 7, 76, 100
9, 53592, Note_on_c, 7, 76, 0
9, 53640, Note_on_c, 7, 76, 100
9, 53712, Note_on_c, 7, 76, 0
9, 53760, Note_on_c, 7, 76, 100
9, 53832, Note_on_c, 7, 76, 0
9, 53880, Note_on_c, 7, 76, 100
9, 53952, Note_on_c, 7, 76, 0
9, 54000, Note_on_c, 7, 76, 100
9, 54072, Note_on_c, 7, 76, 0
9, 54120, Note_on_c, 7, 76, 100
9, 54192, Note_on_c, 7, 76, 0
9, 54240, Note_on_c, 7, 76, 100
9, 54312, Note_on_c, 7, 76, 0
9, 54360, Note_on_c, 7, 76, 100
9, 54432, Note_on_c, 7, 76, 0
9, 54480, Note_on_c, 7, 76, 100
9, 54552, Note_on_c, 7, 76, 0
9, 54600, Note_on_c, 7, 76, 100
9, 54672, Note_on_c, 7, 76, 0
9, 54720, Note_on_c, 7, 74, 100
9, 54792, Note_on_c, 7, 74, 0
9, 54840, Note_on_c, 7, 74, 100
9, 54912, Note_on_c, 7, 74, 0
9, 54960, Note_on_c, 7, 74, 100
9, 55032, Note_on_c, 7, 74, 0
9, 55080, Note_on_c, 7, 74, 100
9, 55152, Note_on_c, 7, 74, 0
9, 55200, Note_on_c, 7, 74, 100
9, 55272, Note_on_c, 7, 74, 0
9, 55320, Note_on_c, 7, 74, 100
9, 55392, Note_on_c, 7, 74, 0
9, 55440, Note_on_c, 7, 74, 100
9, 55512, Note_on_c, 7, 74, 0
9, 55560, Note_on_c, 7, 74, 100
9, 55632, Note_on_c, 7, 74, 0
9, 55680, Note_on_c, 7, 74, 100
9, 55752, Note_on_c, 7, 74, 0
9, 55800, Note_on_c, 7, 74, 100
9, 55872, Note_on_c, 7, 74, 0
9, 55920, Note_on_c, 7, 74, 100
9, 55992, Note_on_c, 7, 74, 0
9, 56040, Note_on_c, 7, 74, 100
9, 56112, Note_on_c, 7, 74, 0
9, 56160, Note_on_c, 7, 74, 100
9, 56232, Note_on_c, 7, 74, 0
9, 56280, Note_on_c, 7, 74, 100
9, 56352, Note_on_c, 7, 74, 0
9, 56400, Note_on_c, 7, 74, 100
9, 56472, Note_on_c, 7, 74, 0
9, 56520, Note_on_c, 7, 74, 100
9, 56592, Note_on_c, 7, 74, 0
9, 56640, Note_on_c, 7, 72, 100
9, 56712, Note_on_c, 7, 72, 0
9, 56760, Note_on_c, 7, 72, 100
9, 56832, Note_on_c, 7, 72, 0
9, 56880, Note_on_c, 7, 72, 100
9, 56952, Note_on_c, 7, 72, 0
9, 57000, Note_on_c, 7, 72, 100
9, 57072, Note_on_c, 7, 72, 0
9, 57120, Note_on_c, 7, 72, 100
9, 57192, Note_on_c, 7, 72, 0
9, 57240, Note_on_c, 7, 72, 100
9, 57312, Note_on_c, 7, 72, 0
9, 57360, Note_on_c, 7, 72, 100
9, 57432, Note_on_c, 7, 72, 0
9, 57480, Note_on_c, 7, 72, 100
9, 57552, Note_on_c, 7, 72, 0
9, 57600, Note_on_c, 7, 72, 100
9, 57672, Note_on_c, 7, 72, 0
9, 57720, Note_on_c, 7, 72, 100
9, 57792, Note_on_c, 7, 72, 0
9, 57840, Note_on_c, 7, 72, 100
9, 57912, Note_on_c, 7, 72, 0
9, 57960, Note_on_c, 7, 72, 100
9, 58032, Note_on_c, 7, 72, 0
9, 58080, Note_on_c, 7, 72, 100
9, 58152, Note_on_c, 7, 72, 0
9, 58200, Note_on_c, 7, 72, 100
9, 58272, Note_on_c, 7, 72, 0
9, 58320, Note_on_c, 7, 72, 100
9, 58392, Note_on_c, 7, 72, 0
9, 58440, Note_on_c, 7, 72, 100
9, 58512, Note_on_c, 7, 72, 0
9, 58560, Note_on_c, 7, 71, 100
9, 58632, Note_on_c, 7, 71, 0
9, 58680, Note_on_c, 7, 71, 103
9, 58752, Note_on_c, 7, 71, 0
9, 58800, Note_on_c, 7, 71, 106
9, 58872, Note_on_c, 7, 71, 0
9, 58920, Note_on_c, 7, 71, 110
9, 58992, Note_on_c, 7, 71, 0
9, 59040, Note_on_c, 7, 71, 113
9, 59112, Note_on_c, 7, 71, 0
9, 59160, Note_on_c, 7, 71, 116
9, 59232, Note_on_c, 7, 71, 0
9, 59280, Note_on_c, 7, 71, 120
9, 59352, Note_on_c, 7, 71, 0
9, 59400, Note_on_c, 7, 71, 123
9, 59472, Note_on_c, 7, 71, 0
9, 59520, Note_on_c, 7, 67, 127
9, 59640, Note_on_c, 7, 67, 0
9, 59640, Note_on_c, 7, 67, 127
9, 59760, Note_on_c, 7, 67, 0
9, 59760, Note_on_c, 7, 67, 127
9, 59880, Note_on_c, 7, 67, 0
9, 59880, Note_on_c, 7, 67, 127
9, 60000, Note_on_c, 7, 67, 0
9, 60000, Note_on_c, 7, 67, 127
9, 60000, Note_on_c, 7, 57, 127
9, 60120, Note_on_c, 7, 57, 0
9, 60120, Note_on_c, 7, 67, 0
9, 60120, Note_on_c, 7, 67, 127
9, 60120, Note_on_c, 7, 57, 127
9, 60240, Note_on_c, 7, 57, 0
9, 60240, Note_on_c, 7, 67, 0
9, 60240, Note_on_c, 7, 67, 127
9, 60240, Note_on_c, 7, 57, 127
9, 60360, Note_on_c, 7, 57, 0
9, 60360, Note_on_c, 7, 67, 0
9, 60360, Note_on_c, 7, 57, 127
9, 60360, Note_on_c, 7, 67, 127
9, 60480, Note_on_c, 7, 67, 0
9, 60480, Note_on_c, 7, 57, 0
9, 60480, Note_on_c, 7, 66, 127
9, 60480, Note_on_c, 7, 57, 127
9, 60720, Note_on_c, 7, 57, 0
9, 60720, Note_on_c, 7, 66, 0
9, 60960, Note_on_c, 7, 74, 127
9, 61185, Note_on_c, 7, 74, 0
9, 61320, Note_on_c, 7, 74, 127
9, 61380, Note_on_c, 7, 74, 0
9, 61440, Note_on_c, 7, 74, 127
9, 62040, Note_on_c, 7, 74, 0
9, 62160, Note_on_c, 7, 73, 127
9, 62244, Note_on_c, 7, 73, 0
9, 62280, Note_on_c, 7, 71, 127
9, 62364, Note_on_c, 7, 71, 0
9, 62400, Note_on_c, 7, 69, 127
9, 62484, Note_on_c, 7, 69, 0
9, 62520, Note_on_c, 7, 71, 127
9, 62604, Note_on_c, 7, 71, 0
9, 62640, Note_on_c, 7, 69, 127
9, 62724, Note_on_c, 7, 69, 0
9, 62760, Note_on_c, 7, 67, 127
9, 62844, Note_on_c, 7, 67, 0
9, 62880, Note_on_c, 7, 66, 127
9, 62964, Note_on_c, 7, 66, 0
9, 63000, Note_on_c, 7, 67, 127
9, 63084, Note_on_c, 7, 67, 0
9, 63120, Note_on_c, 7, 66, 127
9, 63204, Note_on_c, 7, 66, 0
9, 63240, Note_on_c, 7, 64, 127
9, 63324, Note_on_c, 7, 64, 0
9, 63360, Note_on_c, 7, 62, 127
9, 63600, Note_on_c, 7, 62, 0
9, 63840, Note_on_c, 7, 74, 127
9, 64065, Note_on_c, 7, 74, 0
9, 64200, Note_on_c, 7, 74, 127
9, 64260, Note_on_c, 7, 74, 0
9, 64320, Note_on_c, 7, 74, 127
9, 64920, Note_on_c, 7, 74, 0
9, 65040, Note_on_c, 7, 73, 127
9, 65124, Note_on_c, 7, 73, 0
9, 65160, Note_on_c, 7, 71, 127
9, 65244, Note_on_c, 7, 71, 0
9, 65280, Note_on_c, 7, 69, 127
9, 65364, Note_on_c, 7, 69, 0
9, 65400, Note_on_c, 7, 71, 127
9, 65484, Note_on_c, 7, 71, 0
9, 65520, Note_on_c, 7, 69, 127
9, 65604, Note_on_c, 7, 69, 0
9, 65640, Note_on_c, 7, 67, 127
9, 65724, Note_on_c, 7, 67, 0
9, 65760, Note_on_c, 7, 66, 127
9, 65844, Note_on_c, 7, 66, 0
9, 65880, Note_on_c, 7, 67, 127
9, 65964, Note_on_c, 7, 67, 0
9, 66000, Note_on_c, 7, 66, 127
9, 66084, Note_on_c, 7, 66, 0
9, 66120, Note_on_c, 7, 64, 127
9, 66204, Note_on_c, 7, 64, 0
9, 66240, Note_on_c, 7, 62, 127
9, 66324, Note_on_c, 7, 62, 0
9, 66360, Note_on_c, 7, 61, 127
9, 66444, Note_on_c, 7, 61, 0
9, 66480, Note_on_c, 7, 62, 127
9, 66564, Note_on_c, 7, 62, 0
9, 66600, Note_on_c, 7, 64, 127
9, 66684, Note_on_c, 7, 64, 0
9, 66720, Note_on_c, 7, 66, 127
9, 66804, Note_on_c, 7, 66, 0
9, 66840, Note_on_c, 7, 67, 127
9, 66924, Note_on_c, 7, 67, 0
9, 66960, Note_on_c, 7, 69, 127
9, 67044, Note_on_c, 7, 69, 0
9, 67080, Note_on_c, 7, 67, 127
9, 67164, Note_on_c, 7, 67, 0
9, 67200, Note_on_c, 7, 66, 127
9, 67284, Note_on_c, 7, 66, 0
9, 67320, Note_on_c, 7, 64, 127
9, 67404, Note_on_c, 7, 64, 0
9, 67440, Note_on_c, 7, 66, 127
9, 67524, Note_on_c, 7, 66, 0
9, 67560, Note_on_c, 7, 67, 127
9, 67644, Note_on_c, 7, 67, 0
9, 67680, Note_on_c, 7, 69, 127
9, 67764, Note_on_c, 7, 69, 0
9, 67800, Note_on_c, 7, 71, 127
9, 67884, Note_on_c, 7, 71, 0
9, 67920, Note_on_c, 7, 72, 127
9, 68004, Note_on_c, 7, 72, 0
9, 68040, Note_on_c, 7, 71, 127
9, 68124, Note_on_c, 7, 71, 0
9, 68160, Note_on_c, 7, 69, 127
9, 68400, Note_on_c, 7, 69, 0
9, 68400, Note_on_c, 7, 72, 127
9, 68520, Note_on_c, 7, 72, 0
9, 68520, Note_on_c, 7, 78, 127
9, 68640, Note_on_c, 7, 78, 0
9, 68640, Note_on_c, 7, 81, 127
9, 68760, Note_on_c, 7, 81, 0
9, 68760, Note_on_c, 7, 78, 127
9, 68880, Note_on_c, 7, 78, 0
9, 68880, Note_on_c, 7, 81, 127
9, 69000, Note_on_c, 7, 81, 0
9, 69000, Note_on_c, 7, 78, 127
9, 69120, Note_on_c, 7, 78, 0
9, 69120, Note_on_c, 7, 81, 127
9, 69600, Note_on_c, 7, 81, 0
9, 70080, Note_on_c, 7, 59, 50
9, 70200, Note_on_c, 7, 59, 0
9, 70200, Note_on_c, 7, 62, 50
9, 70320, Note_on_c, 7, 62, 0
9, 70320, Note_on_c, 7, 67, 50
9, 70440, Note_on_c, 7, 67, 0
9, 70440, Note_on_c, 7, 62, 50
9, 70560, Note_on_c, 7, 62, 0
9, 70560, Note_on_c, 7, 67, 50
9, 70680, Note_on_c, 7, 67, 0
9, 70680, Note_on_c, 7, 62, 50
9, 70800, Note_on_c, 7, 62, 0
9, 70800, Note_on_c, 7, 59, 50
9, 70920, Note_on_c, 7, 59, 0
9, 70920, Note_on_c, 7, 62, 50
9, 71040, Note_on_c, 7, 62, 0
9, 71040, Note_on_c, 7, 62, 50
9, 71160, Note_on_c, 7, 62, 0
9, 71160, Note_on_c, 7, 64, 50
9, 71280, Note_on_c, 7, 64, 0
9, 71280, Note_on_c, 7, 68, 50
9, 71400, Note_on_c, 7, 68, 0
9, 71400, Note_on_c, 7, 64, 50
9, 71520, Note_on_c, 7, 64, 0
9, 71520, Note_on_c, 7, 68, 50
9, 71640, Note_on_c, 7, 68, 0
9, 71640, Note_on_c, 7, 64, 50
9, 71760, Note_on_c, 7, 64, 0
9, 71760, Note_on_c, 7, 62, 50
9, 71880, Note_on_c, 7, 62, 0
9, 71880, Note_on_c, 7, 64, 50
9, 72000, Note_on_c, 7, 64, 0
9, 72000, Note_on_c, 7, 60, 50
9, 72120, Note_on_c, 7, 60, 0
9, 72120, Note_on_c, 7, 64, 50
9, 72240, Note_on_c, 7, 64, 0
9, 72240, Note_on_c, 7, 69, 50
9, 72360, Note_on_c, 7, 69, 0
9, 72360, Note_on_c, 7, 64, 50
9, 72480, Note_on_c, 7, 64, 0
9, 72480, Note_on_c, 7, 69, 50
9, 72600, Note_on_c, 7, 69, 0
9, 72600, Note_on_c, 7, 64, 50
9, 72720, Note_on_c, 7, 64, 0
9, 72720, Note_on_c, 7, 60, 50
9, 72840, Note_on_c, 7, 60, 0
9, 72840, Note_on_c, 7, 64, 50
9, 72960, Note_on_c, 7, 64, 0
9, 72960, Note_on_c, 7, 60, 50
9, 73080, Note_on_c, 7, 60, 0
9, 73080, Note_on_c, 7, 62, 50
9, 73200, Note_on_c, 7, 62, 0
9, 73200, Note_on_c, 7, 66, 50
9, 73320, Note_on_c, 7, 66, 0
9, 73320, Note_on_c, 7, 62, 50
9, 73440, Note_on_c, 7, 62, 0
9, 73440, Note_on_c, 7, 60, 50
9, 73560, Note_on_c, 7, 60, 0
9, 73560, Note_on_c, 7, 62, 50
9, 73680, Note_on_c, 7, 62, 0
9, 73680, Note_on_c, 7, 60, 50
9, 73800, Note_on_c, 7, 60, 0
9, 73800, Note_on_c, 7, 62, 50
9, 73920, Note_on_c, 7, 62, 0
9, 73920, Note_on_c, 7, 59, 50
9, 74040, Note_on_c, 7, 59, 0
9, 74040, Note_on_c, 7, 62, 50
9, 74160, Note_on_c, 7, 62, 0
9, 74160, Note_on_c, 7, 59, 50
9, 74280, Note_on_c, 7, 59, 0
9, 74280, Note_on_c, 7, 62, 50
9, 74400, Note_on_c, 7, 62, 0
9, 74400, Note_on_c, 7, 67, 50
9, 74520, Note_on_c, 7, 67, 0
9, 74520, Note_on_c, 7, 62, 50
9, 74640, Note_on_c, 7, 62, 0
9, 74640, Note_on_c, 7, 67, 50
9, 74760, Note_on_c, 7, 67, 0
9, 74760, Note_on_c, 7, 62, 50
9, 74880, Note_on_c, 7, 62, 0
9, 74880, Note_on_c, 7, 64, 50
9, 75000, Note_on_c, 7, 64, 0
9, 75000, Note_on_c, 7, 60, 50
9, 75120, Note_on_c, 7, 60, 0
9, 75120, Note_on_c, 7, 64, 50
9, 75240, Note_on_c, 7, 64, 0
9, 75240, Note_on_c, 7, 60, 50
9, 75360, Note_on_c, 7, 60, 0
9, 75360, Note_on_c, 7, 57, 50
9, 75480, Note_on_c, 7, 57, 0
9, 75480, Note_on_c, 7, 64, 50
9, 75600, Note_on_c, 7, 64, 0
9, 75600, Note_on_c, 7, 57, 50
9, 75720, Note_on_c, 7, 57, 0
9, 75720, Note_on_c, 7, 67, 50
9, 75840, Note_on_c, 7, 67, 0
9, 75840, Note_on_c, 7, 66, 50
9, 75960, Note_on_c, 7, 66, 0
9, 75960, Note_on_c, 7, 69, 50
9, 76080, Note_on_c, 7, 69, 0
9, 76080, Note_on_c, 7, 66, 50
9, 76200, Note_on_c, 7, 66, 0
9, 76200, Note_on_c, 7, 62, 50
9, 76320, Note_on_c, 7, 62, 0
9, 76320, Note_on_c, 7, 60, 50
9, 76440, Note_on_c, 7, 60, 0
9, 76440, Note_on_c, 7, 62, 50
9, 76560, Note_on_c, 7, 62, 0
9, 76560, Note_on_c, 7, 60, 50
9, 76680, Note_on_c, 7, 60, 0
9, 76680, Note_on_c, 7, 57, 50
9, 76800, Note_on_c, 7, 57, 0
9, 76800, Note_on_c, 7, 55, 50
9, 76920, Note_on_c, 7, 55, 0
9, 76920, Note_on_c, 7, 59, 50
9, 77040, Note_on_c, 7, 59, 0
9, 77040, Note_on_c, 7, 62, 50
9, 77160, Note_on_c, 7, 62, 0
9, 77160, Note_on_c, 7, 59, 50
9, 77280, Note_on_c, 7, 59, 0
9, 77280, Note_on_c, 7, 62, 50
9, 77400, Note_on_c, 7, 62, 0
9, 77400, Note_on_c, 7, 64, 50
9, 77520, Note_on_c, 7, 64, 0
9, 77520, Note_on_c, 7, 62, 50
9, 77640, Note_on_c, 7, 62, 0
9, 77640, Note_on_c, 7, 59, 50
9, 77760, Note_on_c, 7, 59, 0
9, 77760, Note_on_c, 7, 60, 50
9, 77880, Note_on_c, 7, 60, 0
9, 77880, Note_on_c, 7, 59, 50
9, 78000, Note_on_c, 7, 59, 0
9, 78000, Note_on_c, 7, 60, 50
9, 78120, Note_on_c, 7, 60, 0
9, 78120, Note_on_c, 7, 62, 50
9, 78240, Note_on_c, 7, 62, 0
9, 78240, Note_on_c, 7, 64, 50
9, 78360, Note_on_c, 7, 64, 0
9, 78360, Note_on_c, 7, 62, 50
9, 78480, Note_on_c, 7, 62, 0
9, 78480, Note_on_c, 7, 60, 50
9, 78600, Note_on_c, 7, 60, 0
9, 78600, Note_on_c, 7, 59, 50
9, 78720, Note_on_c, 7, 59, 0
9, 78720, Note_on_c, 7, 57, 50
9, 78840, Note_on_c, 7, 57, 0
9, 78840, Note_on_c, 7, 62, 50
9, 78960, Note_on_c, 7, 62, 0
9, 78960, Note_on_c, 7, 66, 50
9, 79080, Note_on_c, 7, 66, 0
9, 79080, Note_on_c, 7, 62, 50
9, 79200, Note_on_c, 7, 62, 0
9, 79200, Note_on_c, 7, 57, 50
9, 79320, Note_on_c, 7, 57, 0
9, 79320, Note_on_c, 7, 62, 50
9, 79440, Note_on_c, 7, 62, 0
9, 79440, Note_on_c, 7, 57, 50
9, 79560, Note_on_c, 7, 57, 0
9, 79560, Note_on_c, 7, 62, 50
9, 79680, Note_on_c, 7, 62, 0
9, 79680, Note_on_c, 7, 59, 50
9, 79800, Note_on_c, 7, 59, 0
9, 79800, Note_on_c, 7, 62, 50
9, 79920, Note_on_c, 7, 62, 0
9, 79920, Note_on_c, 7, 59, 50
9, 80040, Note_on_c, 7, 59, 0
9, 80040, Note_on_c, 7, 62, 50
9, 80160, Note_on_c, 7, 62, 0
9, 80160, Note_on_c, 7, 67, 50
9, 80280, Note_on_c, 7, 67, 0
9, 80280, Note_on_c, 7, 62, 50
9, 80400, Note_on_c, 7, 62, 0
9, 80400, Note_on_c, 7, 67, 50
9, 80520, Note_on_c, 7, 67, 0
9, 80520, Note_on_c, 7, 62, 50
9, 80640, Note_on_c, 7, 62, 0
9, 80640, Note_on_c, 7, 64, 50
9, 80760, Note_on_c, 7, 64, 0
9, 80760, Note_on_c, 7, 60, 50
9, 80880, Note_on_c, 7, 60, 0
9, 80880, Note_on_c, 7, 64, 50
9, 81000, Note_on_c, 7, 64, 0
9, 81000, Note_on_c, 7, 60, 50
9, 81120, Note_on_c, 7, 60, 0
9, 81120, Note_on_c, 7, 57, 50
9, 81240, Note_on_c, 7, 57, 0
9, 81240, Note_on_c, 7, 67, 50
9, 81360, Note_on_c, 7, 67, 0
9, 81360, Note_on_c, 7, 57, 50
9, 81480, Note_on_c, 7, 57, 0
9, 81480, Note_on_c, 7, 67, 50
9, 81600, Note_on_c, 7, 67, 0
9, 81600, Note_on_c, 7, 66, 50
9, 81684, Note_on_c, 7, 66, 0
9, 81720, Note_on_c, 7, 66, 50
9, 81804, Note_on_c, 7, 66, 0
9, 81840, Note_on_c, 7, 67, 50
9, 81924, Note_on_c, 7, 67, 0
9, 81960, Note_on_c, 7, 69, 50
9, 82044, Note_on_c, 7, 69, 0
9, 82080, Note_on_c, 7, 71, 50
9, 82164, Note_on_c, 7, 71, 0
9, 82200, Note_on_c, 7, 69, 50
9, 82284, Note_on_c, 7, 69, 0
9, 82320, Note_on_c, 7, 72, 50
9, 82404, Note_on_c, 7, 72, 0
9, 82440, Note_on_c, 7, 71, 50
9, 82524, Note_on_c, 7, 71, 0
9, 82560, Note_on_c, 7, 74, 50
9, 82644, Note_on_c, 7, 74, 0
9, 82680, Note_on_c, 7, 72, 50
9, 82764, Note_on_c, 7, 72, 0
9, 82800, Note_on_c, 7, 71, 50
9, 82884, Note_on_c, 7, 71, 0
9, 82920, Note_on_c, 7, 69, 50
9, 83004, Note_on_c, 7, 69, 0
9, 83040, Note_on_c, 7, 67, 50
9, 83124, Note_on_c, 7, 67, 0
9, 83160, Note_on_c, 7, 66, 50
9, 83244, Note_on_c, 7, 66, 0
9, 83280, Note_on_c, 7, 64, 50
9, 83364, Note_on_c, 7, 64, 0
9, 83400, Note_on_c, 7, 62, 50
9, 83484, Note_on_c, 7, 62, 0
9, 83520, Note_on_c, 7, 64, 50
9, 83604, Note_on_c, 7, 64, 0
9, 83640, Note_on_c, 7, 64, 50
9, 83724, Note_on_c, 7, 64, 0
9, 83760, Note_on_c, 7, 66, 50
9, 83844, Note_on_c, 7, 66, 0
9, 83880, Note_on_c, 7, 67, 50
9, 83964, Note_on_c, 7, 67, 0
9, 84000, Note_on_c, 7, 69, 50
9, 84084, Note_on_c, 7, 69, 0
9, 84120, Note_on_c, 7, 68, 50
9, 84204, Note_on_c, 7, 68, 0
9, 84240, Note_on_c, 7, 71, 50
9, 84324, Note_on_c, 7, 71, 0
9, 84360, Note_on_c, 7, 69, 50
9, 84444, Note_on_c, 7, 69, 0
9, 84480, Note_on_c, 7, 72, 50
9, 84564, Note_on_c, 7, 72, 0
9, 84600, Note_on_c, 7, 71, 50
9, 84684, Note_on_c, 7, 71, 0
9, 84720, Note_on_c, 7, 69, 50
9, 84804, Note_on_c, 7, 69, 0
9, 84840, Note_on_c, 7, 67, 50
9, 84924, Note_on_c, 7, 67, 0
9, 84960, Note_on_c, 7, 66, 50
9, 85044, Note_on_c, 7, 66, 0
9, 85080, Note_on_c, 7, 64, 50
9, 85164, Note_on_c, 7, 64, 0
9, 85200, Note_on_c, 7, 62, 50
9, 85284, Note_on_c, 7, 62, 0
9, 85320, Note_on_c, 7, 61, 50
9, 85404, Note_on_c, 7, 61, 0
9, 85440, Note_on_c, 7, 62, 50
9, 85524, Note_on_c, 7, 62, 0
9, 85560, Note_on_c, 7, 62, 50
9, 85644, Note_on_c, 7, 62, 0
9, 85680, Note_on_c, 7, 64, 50
9, 85764, Note_on_c, 7, 64, 0
9, 85800, Note_on_c, 7, 66, 50
9, 85884, Note_on_c, 7, 66, 0
9, 85920, Note_on_c, 7, 67, 50
9, 86004, Note_on_c, 7, 67, 0
9, 86040, Note_on_c, 7, 66, 50
9, 86124, Note_on_c, 7, 66, 0
9, 86160, Note_on_c, 7, 69, 50
9, 86244, Note_on_c, 7, 69, 0
9, 86280, Note_on_c, 7, 67, 50
9, 86364, Note_on_c, 7, 67, 0
9, 86400, Note_on_c, 7, 71, 50
9, 86484, Note_on_c, 7, 71, 0
9, 86520, Note_on_c, 7, 69, 50
9, 86604, Note_on_c, 7, 69, 0
9, 86640, Note_on_c, 7, 67, 50
9, 86724, Note_on_c, 7, 67, 0
9, 86760, Note_on_c, 7, 66, 50
9, 86844, Note_on_c, 7, 66, 0
9, 86880, Note_on_c, 7, 64, 50
9, 86964, Note_on_c, 7, 64, 0
9, 87000, Note_on_c, 7, 62, 50
9, 87084, Note_on_c, 7, 62, 0
9, 87120, Note_on_c, 7, 60, 50
9, 87204, Note_on_c, 7, 60, 0
9, 87240, Note_on_c, 7, 59, 50
9, 87324, Note_on_c, 7, 59, 0
9, 87360, Note_on_c, 7, 60, 50
9, 87444, Note_on_c, 7, 60, 0
9, 87480, Note_on_c, 7, 60, 50
9, 87564, Note_on_c, 7, 60, 0
9, 87600, Note_on_c, 7, 62, 50
9, 87684, Note_on_c, 7, 62, 0
9, 87720, Note_on_c, 7, 64, 50
9, 87804, Note_on_c, 7, 64, 0
9, 87840, Note_on_c, 7, 66, 50
9, 87924, Note_on_c, 7, 66, 0
9, 87960, Note_on_c, 7, 64, 50
9, 88044, Note_on_c, 7, 64, 0
9, 88080, Note_on_c, 7, 67, 50
9, 88164, Note_on_c, 7, 67, 0
9, 88200, Note_on_c, 7, 66, 50
9, 88284, Note_on_c, 7, 66, 0
9, 88320, Note_on_c, 7, 69, 50
9, 88404, Note_on_c, 7, 69, 0
9, 88440, Note_on_c, 7, 67, 50
9, 88524, Note_on_c, 7, 67, 0
9, 88560, Note_on_c, 7, 66, 50
9, 88644, Note_on_c, 7, 66, 0
9, 88680, Note_on_c, 7, 64, 50
9, 88764, Note_on_c, 7, 64, 0
9, 88800, Note_on_c, 7, 62, 50
9, 88884, Note_on_c, 7, 62, 0
9, 88920, Note_on_c, 7, 60, 50
9, 89004, Note_on_c, 7, 60, 0
9, 89040, Note_on_c, 7, 69, 50
9, 89124, Note_on_c, 7, 69, 0
9, 89160, Note_on_c, 7, 60, 50
9, 89244, Note_on_c, 7, 60, 0
9, 89280, Note_on_c, 7, 59, 127
9, 89364, Note_on_c, 7, 59, 0
9, 89400, Note_on_c, 7, 62, 127
9, 89484, Note_on_c, 7, 62, 0
9, 89520, Note_on_c, 7, 67, 127
9, 89604, Note_on_c, 7, 67, 0
9, 89640, Note_on_c, 7, 69, 127
9, 89724, Note_on_c, 7, 69, 0
9, 89760, Note_on_c, 7, 71, 127
9, 89844, Note_on_c, 7, 71, 0
9, 89880, Note_on_c, 7, 72, 127
9, 89964, Note_on_c, 7, 72, 0
9, 90000, Note_on_c, 7, 71, 127
9, 90084, Note_on_c, 7, 71, 0
9, 90120, Note_on_c, 7, 69, 127
9, 90204, Note_on_c, 7, 69, 0
9, 90240, Note_on_c, 7, 67, 127
9, 90324, Note_on_c, 7, 67, 0
9, 90360, Note_on_c, 7, 65, 127
9, 90444, Note_on_c, 7, 65, 0
9, 90480, Note_on_c, 7, 64, 127
9, 90564, Note_on_c, 7, 64, 0
9, 90600, Note_on_c, 7, 62, 127
9, 90684, Note_on_c, 7, 62, 0
9, 90720, Note_on_c, 7, 60, 127
9, 91056, Note_on_c, 7, 60, 0
9, 91320, Note_on_c, 7, 72, 127
9, 91404, Note_on_c, 7, 72, 0
9, 91440, Note_on_c, 7, 74, 127
9, 91524, Note_on_c, 7, 74, 0
9, 91560, Note_on_c, 7, 76, 127
9, 91644, Note_on_c, 7, 76, 0
9, 91680, Note_on_c, 7, 74, 127
9, 91764, Note_on_c, 7, 74, 0
9, 91800, Note_on_c, 7, 76, 127
9, 91884, Note_on_c, 7, 76, 0
9, 91920, Note_on_c, 7, 74, 127
9, 92004, Note_on_c, 7, 74, 0
9, 92040, Note_on_c, 7, 72, 127
9, 92124, Note_on_c, 7, 72, 0
9, 92160, Note_on_c, 7, 71, 127
9, 92244, Note_on_c, 7, 71, 0
9, 92280, Note_on_c, 7, 69, 127
9, 92364, Note_on_c, 7, 69, 0
9, 92400, Note_on_c, 7, 67, 127
9, 92484, Note_on_c, 7, 67, 0
9, 92520, Note_on_c, 7, 65, 127
9, 92604, Note_on_c, 7, 65, 0
9, 92640, Note_on_c, 7, 64, 127
9, 92976, Note_on_c, 7, 64, 0
9, 93240, Note_on_c, 7, 64, 127
9, 93324, Note_on_c, 7, 64, 0
9, 93360, Note_on_c, 7, 66, 127
9, 93444, Note_on_c, 7, 66, 0
9, 93480, Note_on_c, 7, 67, 127
9, 93564, Note_on_c, 7, 67, 0
9, 93600, Note_on_c, 7, 69, 127
9, 93684, Note_on_c, 7, 69, 0
9, 93720, Note_on_c, 7, 66, 127
9, 93804, Note_on_c, 7, 66, 0
9, 93840, Note_on_c, 7, 69, 127
9, 93924, Note_on_c, 7, 69, 0
9, 93960, Note_on_c, 7, 62, 127
9, 94044, Note_on_c, 7, 62, 0
9, 94080, Note_on_c, 7, 74, 127
9, 94416, Note_on_c, 7, 74, 0
9, 94560, Note_on_c, 7, 71, 127
9, 94896, Note_on_c, 7, 71, 0
9, 95040, Note_on_c, 7, 76, 127
9, 95604, Note_on_c, 7, 76, 0
9, 95640, Note_on_c, 7, 74, 127
9, 95724, Note_on_c, 7, 74, 0
9, 95760, Note_on_c, 7, 72, 127
9, 95844, Note_on_c, 7, 72, 0
9, 95880, Note_on_c, 7, 71, 127
9, 95964, Note_on_c, 7, 71, 0
9, 96000, Note_on_c, 7, 72, 127
9, 96084, Note_on_c, 7, 72, 0
9, 96120, Note_on_c, 7, 71, 127
9, 96204, Note_on_c, 7, 71, 0
9, 96240, Note_on_c, 7, 69, 127
9, 96324, Note_on_c, 7, 69, 0
9, 96360, Note_on_c, 7, 67, 127
9, 96444, Note_on_c, 7, 67, 0
9, 96480, Note_on_c, 7, 66, 127
9, 96816, Note_on_c, 7, 66, 0
9, 96960, Note_on_c, 7, 74, 127
9, 97464, Note_on_c, 7, 74, 0
9, 97920, Note_on_c, 7, 71, 127
9, 98256, Note_on_c, 7, 71, 0
9, 98400, Note_on_c, 7, 67, 127
9, 98736, Note_on_c, 7, 67, 0
9, 98880, Note_on_c, 7, 72, 127
9, 99444, Note_on_c, 7, 72, 0
9, 99480, Note_on_c, 7, 71, 127
9, 99564, Note_on_c, 7, 71, 0
9, 99600, Note_on_c, 7, 69, 127
9, 99684, Note_on_c, 7, 69, 0
9, 99720, Note_on_c, 7, 67, 127
9, 99804, Note_on_c, 7, 67, 0
9, 99840, Note_on_c, 7, 69, 127
9, 99924, Note_on_c, 7, 69, 0
9, 99960, Note_on_c, 7, 67, 127
9, 100044, Note_on_c, 7, 67, 0
9, 100080, Note_on_c, 7, 66, 127
9, 100164, Note_on_c, 7, 66, 0
9, 100200, Note_on_c, 7, 64, 127
9, 100284, Note_on_c, 7, 64, 0
9, 100320, Note_on_c, 7, 63, 127
9, 100656, Note_on_c, 7, 63, 0
9, 100800, Note_on_c, 7, 71, 127
9, 101304, Note_on_c, 7, 71, 0
9, 101760, Note_on_c, 7, 67, 127
9, 102096, Note_on_c, 7, 67, 0
9, 102240, Note_on_c, 7, 64, 127
9, 102576, Note_on_c, 7, 64, 0
9, 102720, Note_on_c, 7, 69, 127
9, 103284, Note_on_c, 7, 69, 0
9, 103320, Note_on_c, 7, 67, 127
9, 103404, Note_on_c, 7, 67, 0
9, 103440, Note_on_c, 7, 65, 127
9, 103524, Note_on_c, 7, 65, 0
9, 103560, Note_on_c, 7, 64, 127
9, 103644, Note_on_c, 7, 64, 0
9, 103680, Note_on_c, 7, 65, 127
9, 103764, Note_on_c, 7, 65, 0
9, 103800, Note_on_c, 7, 64, 127
9, 103884, Note_on_c, 7, 64, 0
9, 103920, Note_on_c, 7, 62, 127
9, 104004, Note_on_c, 7, 62, 0
9, 104040, Note_on_c, 7, 60, 127
9, 104124, Note_on_c, 7, 60, 0
9, 104160, Note_on_c, 7, 59, 127
9, 104328, Note_on_c, 7, 59, 0
9, 109560, Note_on_c, 7, 71, 127
9, 109644, Note_on_c, 7, 71, 0
9, 109680, Note_on_c, 7, 71, 127
9, 109764, Note_on_c, 7, 71, 0
9, 109800, Note_on_c, 7, 71, 127
9, 109884, Note_on_c, 7, 71, 0
9, 109920, Note_on_c, 7, 71, 127
9, 110004, Note_on_c, 7, 71, 0
9, 110040, Note_on_c, 7, 71, 127
9, 110124, Note_on_c, 7, 71, 0
9, 110160, Note_on_c, 7, 71, 127
9, 110244, Note_on_c, 7, 71, 0
9, 110280, Note_on_c, 7, 71, 127
9, 110364, Note_on_c, 7, 71, 0
9, 110400, Note_on_c, 7, 71, 127
9, 110484, Note_on_c, 7, 71, 0
9, 110520, Note_on_c, 7, 71, 127
9, 110604, Note_on_c, 7, 71, 0
9, 110640, Note_on_c, 7, 71, 127
9, 110724, Note_on_c, 7, 71, 0
9, 110760, Note_on_c, 7, 71, 127
9, 110844, Note_on_c, 7, 71, 0
9, 110880, Note_on_c, 7, 71, 127
9, 110964, Note_on_c, 7, 71, 0
9, 111000, Note_on_c, 7, 71, 127
9, 111084, Note_on_c, 7, 71, 0
9, 111120, Note_on_c, 7, 71, 127
9, 111204, Note_on_c, 7, 71, 0
9, 111240, Note_on_c, 7, 71, 127
9, 111324, Note_on_c, 7, 71, 0
9, 111360, Note_on_c, 7, 79, 127
9, 111360, Note_on_c, 7, 71, 127
9, 111444, Note_on_c, 7, 71, 0
9, 111444, Note_on_c, 7, 79, 0
9, 111480, Note_on_c, 7, 71, 127
9, 111480, Note_on_c, 7, 79, 127
9, 111564, Note_on_c, 7, 79, 0
9, 111564, Note_on_c, 7, 71, 0
9, 111600, Note_on_c, 7, 79, 127
9, 111600, Note_on_c, 7, 71, 127
9, 111684, Note_on_c, 7, 71, 0
9, 111684, Note_on_c, 7, 79, 0
9, 111720, Note_on_c, 7, 79, 127
9, 111804, Note_on_c, 7, 79, 0
9, 111840, Note_on_c, 7, 79, 127
9, 111840, Note_on_c, 7, 71, 127
9, 111924, Note_on_c, 7, 71, 0
9, 111924, Note_on_c, 7, 79, 0
9, 111960, Note_on_c, 7, 79, 127
9, 111960, Note_on_c, 7, 71, 127
9, 112044, Note_on_c, 7, 71, 0
9, 112044, Note_on_c, 7, 79, 0
9, 112080, Note_on_c, 7, 79, 127
9, 112080, Note_on_c, 7, 71, 127
9, 112164, Note_on_c, 7, 71, 0
9, 112164, Note_on_c, 7, 79, 0
9, 112200, Note_on_c, 7, 71, 127
9, 112200, Note_on_c, 7, 79, 127
9, 112284, Note_on_c, 7, 79, 0
9, 112284, Note_on_c, 7, 71, 0
9, 112320, Note_on_c, 7, 79, 127
9, 112320, Note_on_c, 7, 71, 127
9, 112404, Note_on_c, 7, 71, 0
9, 112404, Note_on_c, 7, 79, 0
9, 112440, Note_on_c, 7, 71, 127
9, 112440, Note_on_c, 7, 79, 127
9, 112524, Note_on_c, 7, 79, 0
9, 112524, Note_on_c, 7, 71, 0
9, 112560, Note_on_c, 7, 79, 127
9, 112560, Note_on_c, 7, 71, 127
9, 112644, Note_on_c, 7, 71, 0
9, 112644, Note_on_c, 7, 79, 0
9, 112680, Note_on_c, 7, 71, 127
9, 112680, Note_on_c, 7, 79, 127
9, 112764, Note_on_c, 7, 79, 0
9, 112764, Note_on_c, 7, 71, 0
9, 112800, Note_on_c, 7, 79, 127
9, 112800, Note_on_c, 7, 71, 127
9, 112884, Note_on_c, 7, 71, 0
9, 112884, Note_on_c, 7, 79, 0
9, 112920, Note_on_c, 7, 71, 127
9, 112920, Note_on_c, 7, 79, 127
9, 113004, Note_on_c, 7, 79, 0
9, 113004, Note_on_c, 7, 71, 0
9, 113040, Note_on_c, 7, 79, 127
9, 113040, Note_on_c, 7, 71, 127
9, 113124, Note_on_c, 7, 71, 0
9, 113124, Note_on_c, 7, 79, 0
9, 113160, Note_on_c, 7, 71, 127
9, 113160, Note_on_c, 7, 79, 127
9, 113244, Note_on_c, 7, 79, 0
9, 113244, Note_on_c, 7, 71, 0
9, 113280, Note_on_c, 7, 79, 127
9, 113280, Note_on_c, 7, 74, 127
9, 113364, Note_on_c, 7, 74, 0
9, 113364, Note_on_c, 7, 79, 0
9, 113400, Note_on_c, 7, 74, 127
9, 113400, Note_on_c, 7, 79, 127
9, 113484, Note_on_c, 7, 79, 0
9, 113484, Note_on_c, 7, 74, 0
9, 113520, Note_on_c, 7, 79, 127
9, 113520, Note_on_c, 7, 74, 127
9, 113604, Note_on_c, 7, 74, 0
9, 113604, Note_on_c, 7, 79, 0
9, 113640, Note_on_c, 7, 74, 127
9, 113640, Note_on_c, 7, 79, 127
9, 113724, Note_on_c, 7, 79, 0
9, 113724, Note_on_c, 7, 74, 0
9, 113760, Note_on_c, 7, 79, 127
9, 113760, Note_on_c, 7, 74, 127
9, 113844, Note_on_c, 7, 74, 0
9, 113844, Note_on_c, 7, 79, 0
9, 113880, Note_on_c, 7, 79, 127
9, 113880, Note_on_c, 7, 74, 127
9, 113964, Note_on_c, 7, 74, 0
9, 113964, Note_on_c, 7, 79, 0
9, 114000, Note_on_c, 7, 79, 127
9, 114000, Note_on_c, 7, 74, 127
9, 114084, Note_on_c, 7, 74, 0
9, 114084, Note_on_c, 7, 79, 0
9, 114120, Note_on_c, 7, 74, 127
9, 114120, Note_on_c, 7, 79, 127
9, 114204, Note_on_c, 7, 79, 0
9, 114204, Note_on_c, 7, 74, 0
9, 114240, Note_on_c, 7, 79, 127
9, 114240, Note_on_c, 7, 74, 127
9, 114324, Note_on_c, 7, 74, 0
9, 114324, Note_on_c, 7, 79, 0
9, 114360, Note_on_c, 7, 74, 127
9, 114360, Note_on_c, 7, 79, 127
9, 114444, Note_on_c, 7, 79, 0
9, 114444, Note_on_c, 7, 74, 0
9, 114480, Note_on_c, 7, 79, 127
9, 114480, Note_on_c, 7, 74, 127
9, 114564, Note_on_c, 7, 74, 0
9, 114564, Note_on_c, 7, 79, 0
9, 114600, Note_on_c, 7, 74, 127
9, 114600, Note_on_c, 7, 79, 127
9, 114684, Note_on_c, 7, 79, 0
9, 114684, Note_on_c, 7, 74, 0
9, 114720, Note_on_c, 7, 79, 127
9, 114720, Note_on_c, 7, 74, 127
9, 114804, Note_on_c, 7, 74, 0
9, 114804, Note_on_c, 7, 79, 0
9, 114840, Note_on_c, 7, 74, 127
9, 114840, Note_on_c, 7, 79, 127
9, 114924, Note_on_c, 7, 79, 0
9, 114924, Note_on_c, 7, 74, 0
9, 114960, Note_on_c, 7, 79, 127
9, 114960, Note_on_c, 7, 74, 127
9, 115044, Note_on_c, 7, 74, 0
9, 115044, Note_on_c, 7, 79, 0
9, 115080, Note_on_c, 7, 74, 127
9, 115080, Note_on_c, 7, 79, 127
9, 115164, Note_on_c, 7, 79, 0
9, 115164, Note_on_c, 7, 74, 0
9, 115200, Note_on_c, 7, 79, 127
9, 115200, Note_on_c, 7, 69, 127
9, 115284, Note_on_c, 7, 69, 0
9, 115284, Note_on_c, 7, 79, 0
9, 115320, Note_on_c, 7, 69, 127
9, 115320, Note_on_c, 7, 79, 127
9, 115404, Note_on_c, 7, 79, 0
9, 115404, Note_on_c, 7, 69, 0
9, 115440, Note_on_c, 7, 69, 127
9, 115440, Note_on_c, 7, 79, 127
9, 115524, Note_on_c, 7, 79, 0
9, 115524, Note_on_c, 7, 69, 0
9, 115560, Note_on_c, 7, 69, 127
9, 115560, Note_on_c, 7, 79, 127
9, 115644, Note_on_c, 7, 79, 0
9, 115644, Note_on_c, 7, 69, 0
9, 115680, Note_on_c, 7, 79, 127
9, 115680, Note_on_c, 7, 69, 127
9, 115764, Note_on_c, 7, 69, 0
9, 115764, Note_on_c, 7, 79, 0
9, 115800, Note_on_c, 7, 69, 127
9, 115800, Note_on_c, 7, 79, 127
9, 115884, Note_on_c, 7, 79, 0
9, 115884, Note_on_c, 7, 69, 0
9, 115920, Note_on_c, 7, 79, 127
9, 115920, Note_on_c, 7, 69, 127
9, 116004, Note_on_c, 7, 69, 0
9, 116004, Note_on_c, 7, 79, 0
9, 116040, Note_on_c, 7, 69, 127
9, 116040, Note_on_c, 7, 79, 127
9, 116124, Note_on_c, 7, 79, 0
9, 116124, Note_on_c, 7, 69, 0
9, 116160, Note_on_c, 7, 78, 127
9, 116160, Note_on_c, 7, 69, 127
9, 116244, Note_on_c, 7, 69, 0
9, 116244, Note_on_c, 7, 78, 0
9, 116280, Note_on_c, 7, 69, 127
9, 116280, Note_on_c, 7, 78, 127
9, 116364, Note_on_c, 7, 78, 0
9, 116364, Note_on_c, 7, 69, 0
9, 116400, Note_on_c, 7, 69, 127
9, 116400, Note_on_c, 7, 78, 127
9, 116484, Note_on_c, 7, 78, 0
9, 116484, Note_on_c, 7, 69, 0
9, 116520, Note_on_c, 7, 69, 127
9, 116520, Note_on_c, 7, 78, 127
9, 116604, Note_on_c, 7, 78, 0
9, 116604, Note_on_c, 7, 69, 0
9, 116640, Note_on_c, 7, 72, 127
9, 116724, Note_on_c, 7, 72, 0
9, 116760, Note_on_c, 7, 72, 127
9, 116844, Note_on_c, 7, 72, 0
9, 116880, Note_on_c, 7, 72, 127
9, 116964, Note_on_c, 7, 72, 0
9, 117000, Note_on_c, 7, 72, 127
9, 117084, Note_on_c, 7, 72, 0
9, 117120, Note_on_c, 7, 71, 127
9, 117240, Note_on_c, 7, 71, 0
9, 117240, Note_on_c, 7, 74, 127
9, 117360, Note_on_c, 7, 74, 0
9, 117360, Note_on_c, 7, 74, 127
9, 117480, Note_on_c, 7, 74, 0
9, 117480, Note_on_c, 7, 74, 127
9, 117600, Note_on_c, 7, 74, 0
9, 117600, Note_on_c, 7, 74, 127
9, 117720, Note_on_c, 7, 74, 0
9, 117720, Note_on_c, 7, 74, 127
9, 117840, Note_on_c, 7, 74, 0
9, 117840, Note_on_c, 7, 74, 127
9, 117960, Note_on_c, 7, 74, 0
9, 117960, Note_on_c, 7, 74, 127
9, 118080, Note_on_c, 7, 74, 0
9, 118080, Note_on_c, 7, 74, 127
9, 118200, Note_on_c, 7, 74, 0
9, 118200, Note_on_c, 7, 74, 127
9, 118320, Note_on_c, 7, 74, 0
9, 118320, Note_on_c, 7, 74, 127
9, 118440, Note_on_c, 7, 74, 0
9, 118440, Note_on_c, 7, 74, 127
9, 118560, Note_on_c, 7, 74, 0
9, 118560, Note_on_c, 7, 74, 127
9, 118680, Note_on_c, 7, 74, 0
9, 118680, Note_on_c, 7, 74, 127
9, 118800, Note_on_c, 7, 74, 0
9, 118800, Note_on_c, 7, 74, 127
9, 118920, Note_on_c, 7, 74, 0
9, 118920, Note_on_c, 7, 74, 127
9, 119040, Note_on_c, 7, 74, 0
9, 119040, Note_on_c, 7, 74, 127
9, 119160, Note_on_c, 7, 74, 0
9, 119160, Note_on_c, 7, 79, 127
9, 119280, Note_on_c, 7, 79, 0
9, 119280, Note_on_c, 7, 79, 127
9, 119400, Note_on_c, 7, 79, 0
9, 119400, Note_on_c, 7, 79, 127
9, 119520, Note_on_c, 7, 79, 0
9, 119520, Note_on_c, 7, 79, 127
9, 119640, Note_on_c, 7, 79, 0
9, 119640, Note_on_c, 7, 79, 127
9, 119760, Note_on_c, 7, 79, 0
9, 119760, Note_on_c, 7, 79, 127
9, 119880, Note_on_c, 7, 79, 0
9, 119880, Note_on_c, 7, 79, 127
9, 120000, Note_on_c, 7, 79, 0
9, 120000, Note_on_c, 7, 79, 127
9, 120120, Note_on_c, 7, 79, 0
9, 120120, Note_on_c, 7, 79, 127
9, 120240, Note_on_c, 7, 79, 0
9, 120240, Note_on_c, 7, 79, 127
9, 120360, Note_on_c, 7, 79, 0
9, 120360, Note_on_c, 7, 79, 127
9, 120480, Note_on_c, 7, 79, 0
9, 120480, Note_on_c, 7, 79, 127
9, 120600, Note_on_c, 7, 79, 0
9, 120600, Note_on_c, 7, 79, 127
9, 120720, Note_on_c, 7, 79, 0
9, 120720, Note_on_c, 7, 79, 127
9, 120840, Note_on_c, 7, 79, 0
9, 120840, Note_on_c, 7, 79, 127
9, 120960, Note_on_c, 7, 79, 0
9, 120960, Note_on_c, 7, 79, 127
9, 121080, Note_on_c, 7, 79, 0
9, 121080, Note_on_c, 7, 79, 127
9, 121200, Note_on_c, 7, 79, 0
9, 121200, Note_on_c, 7, 79, 127
9, 121320, Note_on_c, 7, 79, 0
9, 121320, Note_on_c, 7, 79, 127
9, 121440, Note_on_c, 7, 79, 0
9, 121440, Note_on_c, 7, 79, 127
9, 121560, Note_on_c, 7, 79, 0
9, 121560, Note_on_c, 7, 79, 127
9, 121680, Note_on_c, 7, 79, 0
9, 121680, Note_on_c, 7, 79, 127
9, 121800, Note_on_c, 7, 79, 0
9, 121800, Note_on_c, 7, 79, 127
9, 121920, Note_on_c, 7, 79, 0
9, 121920, Note_on_c, 7, 79, 127
9, 122040, Note_on_c, 7, 79, 0
9, 122040, Note_on_c, 7, 79, 127
9, 122160, Note_on_c, 7, 79, 0
9, 122160, Note_on_c, 7, 79, 127
9, 122280, Note_on_c, 7, 79, 0
9, 122280, Note_on_c, 7, 79, 127
9, 122400, Note_on_c, 7, 79, 0
9, 122400, Note_on_c, 7, 79, 127
9, 122520, Note_on_c, 7, 79, 0
9, 122520, Note_on_c, 7, 79, 127
9, 122640, Note_on_c, 7, 79, 0
9, 122640, Note_on_c, 7, 79, 127
9, 122760, Note_on_c, 7, 79, 0
9, 122760, Note_on_c, 7, 79, 127
9, 122880, Note_on_c, 7, 79, 0
9, 122880, Note_on_c, 7, 79, 127
9, 123000, Note_on_c, 7, 79, 0
9, 123000, Note_on_c, 7, 79, 127
9, 123120, Note_on_c, 7, 79, 0
9, 123120, Note_on_c, 7, 79, 127
9, 123240, Note_on_c, 7, 79, 0
9, 123240, Note_on_c, 7, 79, 127
9, 123360, Note_on_c, 7, 79, 0
9, 123360, Note_on_c, 7, 79, 127
9, 123480, Note_on_c, 7, 79, 0
9, 123480, Note_on_c, 7, 79, 127
9, 123600, Note_on_c, 7, 79, 0
9, 123600, Note_on_c, 7, 79, 127
9, 123720, Note_on_c, 7, 79, 0
9, 123720, Note_on_c, 7, 79, 127
9, 123840, Note_on_c, 7, 79, 0
9, 123840, Note_on_c, 7, 79, 127
9, 123960, Note_on_c, 7, 79, 0
9, 123960, Note_on_c, 7, 79, 127
9, 124080, Note_on_c, 7, 79, 0
9, 124080, Note_on_c, 7, 79, 127
9, 124200, Note_on_c, 7, 79, 0
9, 124200, Note_on_c, 7, 79, 127
9, 124320, Note_on_c, 7, 79, 0
9, 124320, Note_on_c, 7, 79, 127
9, 124440, Note_on_c, 7, 79, 0
9, 124440, Note_on_c, 7, 79, 127
9, 124560, Note_on_c, 7, 79, 0
9, 124560, Note_on_c, 7, 79, 127
9, 124680, Note_on_c, 7, 79, 0
9, 124680, Note_on_c, 7, 79, 127
9, 124800, Note_on_c, 7, 79, 0
9, 124800, Note_on_c, 7, 79, 127
9, 124884, Note_on_c, 7, 79, 0
9, 124920, Note_on_c, 7, 79, 127
9, 125004, Note_on_c, 7, 79, 0
9, 125040, Note_on_c, 7, 79, 127
9, 125124, Note_on_c, 7, 79, 0
9, 125160, Note_on_c, 7, 79, 127
9, 125244, Note_on_c, 7, 79, 0
9, 125280, Note_on_c, 7, 79, 127
9, 125364, Note_on_c, 7, 79, 0
9, 125400, Note_on_c, 7, 79, 127
9, 125484, Note_on_c, 7, 79, 0
9, 125520, Note_on_c, 7, 79, 127
9, 125604, Note_on_c, 7, 79, 0
9, 125640, Note_on_c, 7, 79, 127
9, 125724, Note_on_c, 7, 79, 0
9, 125760, Note_on_c, 7, 79, 127
9, 125844, Note_on_c, 7, 79, 0
9, 125880, Note_on_c, 7, 79, 127
9, 125964, Note_on_c, 7, 79, 0
9, 126000, Note_on_c, 7, 79, 127
9, 126084, Note_on_c, 7, 79, 0
9, 126120, Note_on_c, 7, 79, 127
9, 126204, Note_on_c, 7, 79, 0
9, 126240, Note_on_c, 7, 81, 127
9, 126324, Note_on_c, 7, 81, 0
9, 126360, Note_on_c, 7, 81, 127
9, 126444, Note_on_c, 7, 81, 0
9, 126480, Note_on_c, 7, 81, 127
9, 126564, Note_on_c, 7, 81, 0
9, 126600, Note_on_c, 7, 81, 127
9, 126684, Note_on_c, 7, 81, 0
9, 126720, Note_on_c, 7, 81, 127
9, 126804, Note_on_c, 7, 81, 0
9, 126840, Note_on_c, 7, 81, 127
9, 126924, Note_on_c, 7, 81, 0
9, 126960, Note_on_c, 7, 81, 127
9, 127044, Note_on_c, 7, 81, 0
9, 127080, Note_on_c, 7, 81, 127
9, 127164, Note_on_c, 7, 81, 0
9, 127200, Note_on_c, 7, 79, 127
9, 127284, Note_on_c, 7, 79, 0
9, 127320, Note_on_c, 7, 79, 127
9, 127404, Note_on_c, 7, 79, 0
9, 127440, Note_on_c, 7, 79, 127
9, 127524, Note_on_c, 7, 79, 0
9, 127560, Note_on_c, 7, 79, 127
9, 127644, Note_on_c, 7, 79, 0
9, 127680, Note_on_c, 7, 79, 127
9, 127764, Note_on_c, 7, 79, 0
9, 127800, Note_on_c, 7, 79, 127
9, 127884, Note_on_c, 7, 79, 0
9, 127920, Note_on_c, 7, 79, 127
9, 128004, Note_on_c, 7, 79, 0
9, 128040, Note_on_c, 7, 79, 127
9, 128124, Note_on_c, 7, 79, 0
9, 128160, Note_on_c, 7, 78, 127
9, 128244, Note_on_c, 7, 78, 0
9, 128280, Note_on_c, 7, 78, 127
9, 128364, Note_on_c, 7, 78, 0
9, 128400, Note_on_c, 7, 78, 127
9, 128484, Note_on_c, 7, 78, 0
9, 128520, Note_on_c, 7, 78, 127
9, 128604, Note_on_c, 7, 78, 0
9, 128640, Note_on_c, 7, 79, 127
9, 129120, Note_on_c, 7, 79, 0
9, 130080, Note_on_c, 7, 69, 127
9, 130305, Note_on_c, 7, 69, 0
9, 130440, Note_on_c, 7, 69, 127
9, 130560, Note_on_c, 7, 69, 0
9, 144480, Note_on_c, 7, 71, 50
9, 144720, Note_on_c, 7, 71, 0
9, 144960, Note_on_c, 7, 74, 50
9, 145200, Note_on_c, 7, 74, 0
9, 145440, Note_on_c, 7, 79, 50
9, 145680, Note_on_c, 7, 79, 0
9, 145920, Note_on_c, 7, 81, 50
9, 146640, Note_on_c, 7, 81, 0
9, 146640, Note_on_c, 7, 72, 50
9, 146880, Note_on_c, 7, 72, 0
9, 146880, Note_on_c, 7, 71, 50
9, 147120, Note_on_c, 7, 71, 0
9, 147360, Note_on_c, 7, 59, 50
9, 147600, Note_on_c, 7, 59, 0
9, 147840, Note_on_c, 7, 62, 50
9, 148080, Note_on_c, 7, 62, 0
9, 148320, Note_on_c, 7, 67, 50
9, 148560, Note_on_c, 7, 67, 0
9, 148800, Note_on_c, 7, 69, 50
9, 149520, Note_on_c, 7, 69, 0
9, 149520, Note_on_c, 7, 60, 50
9, 149760, Note_on_c, 7, 60, 0
9, 149760, Note_on_c, 7, 59, 50
9, 150240, Note_on_c, 7, 59, 0
9, 150720, Note_on_c, 7, 64, 50
9, 150840, Note_on_c, 7, 64, 0
9, 150840, Note_on_c, 7, 72, 50
9, 150960, Note_on_c, 7, 72, 0
9, 150960, Note_on_c, 7, 64, 50
9, 151080, Note_on_c, 7, 64, 0
9, 151080, Note_on_c, 7, 72, 50
9, 151200, Note_on_c, 7, 72, 0
9, 151200, Note_on_c, 7, 64, 50
9, 151320, Note_on_c, 7, 64, 0
9, 151320, Note_on_c, 7, 72, 50
9, 151440, Note_on_c, 7, 72, 0
9, 151440, Note_on_c, 7, 64, 50
9, 151560, Note_on_c, 7, 64, 0
9, 151560, Note_on_c, 7, 72, 50
9, 151680, Note_on_c, 7, 72, 0
9, 151680, Note_on_c, 7, 65, 50
9, 151800, Note_on_c, 7, 65, 0
9, 151800, Note_on_c, 7, 72, 50
9, 151920, Note_on_c, 7, 72, 0
9, 151920, Note_on_c, 7, 65, 50
9, 152040, Note_on_c, 7, 65, 0
9, 152040, Note_on_c, 7, 72, 50
9, 152160, Note_on_c, 7, 72, 0
9, 152160, Note_on_c, 7, 65, 50
9, 152280, Note_on_c, 7, 65, 0
9, 152280, Note_on_c, 7, 72, 50
9, 152400, Note_on_c, 7, 72, 0
9, 152400, Note_on_c, 7, 65, 50
9, 152520, Note_on_c, 7, 65, 0
9, 152520, Note_on_c, 7, 72, 50
9, 152640, Note_on_c, 7, 72, 0
9, 152640, Note_on_c, 7, 67, 50
9, 152760, Note_on_c, 7, 67, 0
9, 152760, Note_on_c, 7, 71, 50
9, 152880, Note_on_c, 7, 71, 0
9, 152880, Note_on_c, 7, 67, 50
9, 153000, Note_on_c, 7, 67, 0
9, 153000, Note_on_c, 7, 71, 50
9, 153120, Note_on_c, 7, 71, 0
9, 153120, Note_on_c, 7, 67, 50
9, 153240, Note_on_c, 7, 67, 0
9, 153240, Note_on_c, 7, 71, 50
9, 153360, Note_on_c, 7, 71, 0
9, 153360, Note_on_c, 7, 67, 50
9, 153480, Note_on_c, 7, 67, 0
9, 153480, Note_on_c, 7, 71, 50
9, 153600, Note_on_c, 7, 71, 0
9, 153600, Note_on_c, 7, 69, 50
9, 153720, Note_on_c, 7, 69, 0
9, 153720, Note_on_c, 7, 72, 50
9, 153840, Note_on_c, 7, 72, 0
9, 153840, Note_on_c, 7, 69, 50
9, 153960, Note_on_c, 7, 69, 0
9, 153960, Note_on_c, 7, 72, 50
9, 154080, Note_on_c, 7, 72, 0
9, 154080, Note_on_c, 7, 69, 50
9, 154200, Note_on_c, 7, 69, 0
9, 154200, Note_on_c, 7, 72, 50
9, 154320, Note_on_c, 7, 72, 0
9, 154320, Note_on_c, 7, 69, 50
9, 154440, Note_on_c, 7, 69, 0
9, 154440, Note_on_c, 7, 72, 50
9, 154560, Note_on_c, 7, 72, 0
9, 154560, Note_on_c, 7, 60, 50
9, 154680, Note_on_c, 7, 60, 0
9, 154680, Note_on_c, 7, 69, 50
9, 154800, Note_on_c, 7, 69, 0
9, 154800, Note_on_c, 7, 60, 50
9, 154920, Note_on_c, 7, 60, 0
9, 154920, Note_on_c, 7, 69, 50
9, 155040, Note_on_c, 7, 69, 0
9, 155040, Note_on_c, 7, 60, 50
9, 155160, Note_on_c, 7, 60, 0
9, 155160, Note_on_c, 7, 69, 50
9, 155280, Note_on_c, 7, 69, 0
9, 155280, Note_on_c, 7, 60, 50
9, 155400, Note_on_c, 7, 60, 0
9, 155400, Note_on_c, 7, 69, 50
9, 155520, Note_on_c, 7, 69, 0
9, 155520, Note_on_c, 7, 60, 50
9, 155640, Note_on_c, 7, 60, 0
9, 155640, Note_on_c, 7, 67, 50
9, 155760, Note_on_c, 7, 67, 0
9, 155760, Note_on_c, 7, 60, 50
9, 155880, Note_on_c, 7, 60, 0
9, 155880, Note_on_c, 7, 67, 50
9, 156000, Note_on_c, 7, 67, 0
9, 156000, Note_on_c, 7, 60, 50
9, 156120, Note_on_c, 7, 60, 0
9, 156120, Note_on_c, 7, 67, 50
9, 156240, Note_on_c, 7, 67, 0
9, 156240, Note_on_c, 7, 60, 50
9, 156360, Note_on_c, 7, 60, 0
9, 156360, Note_on_c, 7, 67, 50
9, 156480, Note_on_c, 7, 67, 0
9, 156480, Note_on_c, 7, 59, 50
9, 156600, Note_on_c, 7, 59, 0
9, 156600, Note_on_c, 7, 67, 50
9, 156720, Note_on_c, 7, 67, 0
9, 156720, Note_on_c, 7, 59, 50
9, 156840, Note_on_c, 7, 59, 0
9, 156840, Note_on_c, 7, 67, 50
9, 156960, Note_on_c, 7, 67, 0
9, 156960, Note_on_c, 7, 60, 50
9, 157080, Note_on_c, 7, 60, 0
9, 157080, Note_on_c, 7, 67, 50
9, 157200, Note_on_c, 7, 67, 0
9, 157200, Note_on_c, 7, 60, 50
9, 157320, Note_on_c, 7, 60, 0
9, 157320, Note_on_c, 7, 67, 50
9, 157440, Note_on_c, 7, 67, 0
9, 157440, Note_on_c, 7, 59, 50
9, 157680, Note_on_c, 7, 59, 0
9, 158400, Note_on_c, 7, 60, 100
9, 159360, Note_on_c, 7, 60, 0
9, 159360, Note_on_c, 7, 62, 106
9, 160320, Note_on_c, 7, 62, 0
9, 160320, Note_on_c, 7, 65, 113
9, 161280, Note_on_c, 7, 65, 0
9, 161280, Note_on_c, 7, 64, 120
9, 162240, Note_on_c, 7, 64, 0
9, 162480, Note_on_c, 7, 72, 127
9, 162600, Note_on_c, 7, 72, 0
9, 162720, Note_on_c, 7, 72, 127
9, 162840, Note_on_c, 7, 72, 0
9, 162960, Note_on_c, 7, 72, 127
9, 163080, Note_on_c, 7, 72, 0
9, 163200, Note_on_c, 7, 72, 127
9, 163920, Note_on_c, 7, 72, 0
9, 163920, Note_on_c, 7, 71, 127
9, 163980, Note_on_c, 7, 71, 0
9, 163980, Note_on_c, 7, 69, 127
9, 164040, Note_on_c, 7, 69, 0
9, 164040, Note_on_c, 7, 67, 127
9, 164100, Note_on_c, 7, 67, 0
9, 164100, Note_on_c, 7, 65, 127
9, 164160, Note_on_c, 7, 65, 0
9, 164160, Note_on_c, 7, 64, 127
9, 164280, Note_on_c, 7, 64, 0
9, 164400, Note_on_c, 7, 64, 127
9, 164460, Note_on_c, 7, 64, 0
9, 164520, Note_on_c, 7, 64, 127
9, 164580, Note_on_c, 7, 64, 0
9, 164640, Note_on_c, 7, 59, 127
9, 164760, Note_on_c, 7, 59, 0
9, 164880, Note_on_c, 7, 59, 127
9, 164940, Note_on_c, 7, 59, 0
9, 165000, Note_on_c, 7, 59, 127
9, 165060, Note_on_c, 7, 59, 0
9, 165120, Note_on_c, 7, 60, 127
9, 165240, Note_on_c, 7, 60, 0
9, 165360, Note_on_c, 7, 72, 127
9, 165480, Note_on_c, 7, 72, 0
9, 165600, Note_on_c, 7, 72, 127
9, 165720, Note_on_c, 7, 72, 0
9, 165840, Note_on_c, 7, 72, 127
9, 165960, Note_on_c, 7, 72, 0
9, 166080, Note_on_c, 7, 72, 127
9, 166800, Note_on_c, 7, 72, 0
9, 166800, Note_on_c, 7, 81, 127
9, 166920, Note_on_c, 7, 81, 0
9, 166920, Note_on_c, 7, 77, 127
9, 167040, Note_on_c, 7, 77, 0
9, 167040, Note_on_c, 7, 77, 127
9, 167153, Note_on_c, 7, 77, 0
9, 167160, Note_on_c, 7, 76, 127
9, 167273, Note_on_c, 7, 76, 0
9, 167280, Note_on_c, 7, 74, 127
9, 167400, Note_on_c, 7, 74, 0
9, 167400, Note_on_c, 7, 72, 127
9, 167520, Note_on_c, 7, 72, 0
9, 167520, Note_on_c, 7, 67, 127
9, 167633, Note_on_c, 7, 67, 0
9, 167640, Note_on_c, 7, 65, 127
9, 167753, Note_on_c, 7, 65, 0
9, 167760, Note_on_c, 7, 64, 127
9, 167880, Note_on_c, 7, 64, 0
9, 167880, Note_on_c, 7, 62, 127
9, 168000, Note_on_c, 7, 62, 0
9, 168000, Note_on_c, 7, 64, 127
9, 168240, Note_on_c, 7, 64, 0
9, 171360, Note_on_c, 7, 72, 127
9, 171585, Note_on_c, 7, 72, 0
9, 171720, Note_on_c, 7, 72, 127
9, 171840, Note_on_c, 7, 72, 0
9, 171840, Note_on_c, 7, 72, 127
9, 172440, Note_on_c, 7, 72, 0
9, 172560, Note_on_c, 7, 71, 127
9, 172632, Note_on_c, 7, 71, 0
9, 172680, Note_on_c, 7, 69, 127
9, 172752, Note_on_c, 7, 69, 0
9, 172800, Note_on_c, 7, 67, 127
9, 172872, Note_on_c, 7, 67, 0
9, 172920, Note_on_c, 7, 69, 127
9, 172992, Note_on_c, 7, 69, 0
9, 173040, Note_on_c, 7, 67, 127
9, 173112, Note_on_c, 7, 67, 0
9, 173160, Note_on_c, 7, 65, 127
9, 173232, Note_on_c, 7, 65, 0
9, 173280, Note_on_c, 7, 64, 127
9, 173352, Note_on_c, 7, 64, 0
9, 173400, Note_on_c, 7, 65, 127
9, 173472, Note_on_c, 7, 65, 0
9, 173520, Note_on_c, 7, 64, 127
9, 173592, Note_on_c, 7, 64, 0
9, 173640, Note_on_c, 7, 62, 127
9, 173712, Note_on_c, 7, 62, 0
9, 173760, Note_on_c, 7, 60, 127
9, 174000, Note_on_c, 7, 60, 0
9, 174240, Note_on_c, 7, 76, 127
9, 174465, Note_on_c, 7, 76, 0
9, 174600, Note_on_c, 7, 76, 127
9, 174720, Note_on_c, 7, 76, 0
9, 174720, Note_on_c, 7, 76, 127
9, 175320, Note_on_c, 7, 76, 0
9, 175440, Note_on_c, 7, 74, 127
9, 175560, Note_on_c, 7, 74, 0
9, 175560, Note_on_c, 7, 72, 127
9, 175680, Note_on_c, 7, 72, 0
9, 175680, Note_on_c, 7, 71, 127
9, 175764, Note_on_c, 7, 71, 0
9, 175800, Note_on_c, 7, 72, 127
9, 175884, Note_on_c, 7, 72, 0
9, 175920, Note_on_c, 7, 71, 127
9, 176004, Note_on_c, 7, 71, 0
9, 176040, Note_on_c, 7, 69, 127
9, 176124, Note_on_c, 7, 69, 0
9, 176160, Note_on_c, 7, 67, 127
9, 176244, Note_on_c, 7, 67, 0
9, 176280, Note_on_c, 7, 69, 127
9, 176364, Note_on_c, 7, 69, 0
9, 176400, Note_on_c, 7, 67, 127
9, 176484, Note_on_c, 7, 67, 0
9, 176520, Note_on_c, 7, 65, 127
9, 176604, Note_on_c, 7, 65, 0
9, 176640, Note_on_c, 7, 64, 127
9, 176760, Note_on_c, 7, 64, 0
9, 176880, Note_on_c, 7, 77, 127
9, 176880, Note_on_c, 7, 74, 127
9, 177000, Note_on_c, 7, 74, 0
9, 177000, Note_on_c, 7, 77, 0
9, 177120, Note_on_c, 7, 76, 127
9, 177120, Note_on_c, 7, 72, 127
9, 177240, Note_on_c, 7, 72, 0
9, 177240, Note_on_c, 7, 76, 0
9, 177360, Note_on_c, 7, 74, 127
9, 177360, Note_on_c, 7, 77, 127
9, 177480, Note_on_c, 7, 77, 0
9, 177480, Note_on_c, 7, 74, 0
9, 177600, Note_on_c, 7, 76, 127
9, 177600, Note_on_c, 7, 72, 127
9, 177720, Note_on_c, 7, 72, 0
9, 177720, Note_on_c, 7, 76, 0
9, 177840, Note_on_c, 7, 77, 127
9, 177840, Note_on_c, 7, 74, 127
9, 177960, Note_on_c, 7, 74, 0
9, 177960, Note_on_c, 7, 77, 0
9, 178080, Note_on_c, 7, 76, 127
9, 178080, Note_on_c, 7, 72, 127
9, 178200, Note_on_c, 7, 72, 0
9, 178200, Note_on_c, 7, 76, 0
9, 178320, Note_on_c, 7, 74, 127
9, 178320, Note_on_c, 7, 77, 127
9, 178440, Note_on_c, 7, 77, 0
9, 178440, Note_on_c, 7, 74, 0
9, 178560, Note_on_c, 7, 76, 127
9, 178560, Note_on_c, 7, 72, 127
9, 178896, Note_on_c, 7, 72, 0
9, 178896, Note_on_c, 7, 76, 0
9, 180480, Note_on_c, 7, 79, 127
9, 180480, Note_on_c, 7, 71, 127
9, 180600, Note_on_c, 7, 71, 0
9, 180600, Note_on_c, 7, 79, 0
9, 180720, Note_on_c, 7, 79, 127
9, 180720, Note_on_c, 7, 71, 127
9, 180840, Note_on_c, 7, 71, 0
9, 180840, Note_on_c, 7, 79, 0
9, 180960, Note_on_c, 7, 76, 127
9, 180960, Note_on_c, 7, 72, 127
9, 181080, Note_on_c, 7, 72, 0
9, 181080, Note_on_c, 7, 76, 0
9, 181200, Note_on_c, 7, 72, 127
9, 181200, Note_on_c, 7, 76, 127
9, 181320, Note_on_c, 7, 76, 0
9, 181320, Note_on_c, 7, 72, 0
9, 181440, Note_on_c, 7, 79, 127
9, 181440, Note_on_c, 7, 71, 127
9, 181560, Note_on_c, 7, 71, 0
9, 181560, Note_on_c, 7, 79, 0
9, 181680, Note_on_c, 7, 79, 127
9, 181680, Note_on_c, 7, 71, 127
9, 181800, Note_on_c, 7, 71, 0
9, 181800, Note_on_c, 7, 79, 0
9, 181920, Note_on_c, 7, 76, 127
9, 181920, Note_on_c, 7, 72, 127
9, 182040, Note_on_c, 7, 72, 0
9, 182040, Note_on_c, 7, 76, 0
9, 182160, Note_on_c, 7, 72, 127
9, 182160, Note_on_c, 7, 76, 127
9, 182280, Note_on_c, 7, 76, 0
9, 182280, Note_on_c, 7, 72, 0
9, 182400, Note_on_c, 7, 79, 127
9, 182400, Note_on_c, 7, 71, 127
9, 182520, Note_on_c, 7, 71, 0
9, 182520, Note_on_c, 7, 79, 0
9, 182640, Note_on_c, 7, 79, 127
9, 182640, Note_on_c, 7, 71, 127
9, 182760, Note_on_c, 7, 71, 0
9, 182760, Note_on_c, 7, 79, 0
9, 182880, Note_on_c, 7, 76, 127
9, 182880, Note_on_c, 7, 72, 127
9, 183000, Note_on_c, 7, 72, 0
9, 183000, Note_on_c, 7, 76, 0
9, 183120, Note_on_c, 7, 72, 127
9, 183120, Note_on_c, 7, 76, 127
9, 183240, Note_on_c, 7, 76, 0
9, 183240, Note_on_c, 7, 72, 0
9, 183360, Note_on_c, 7, 71, 127
9, 183360, Note_on_c, 7, 62, 127
9, 183360, Note_on_c, 7, 79, 127
9, 183600, Note_on_c, 7, 62, 0
9, 183600, Note_on_c, 7, 71, 0
9, 183840, Note_on_c, 7, 79, 0
9, 184320, Note_on_c, 7, 72, 50
9, 185280, Note_on_c, 7, 72, 0
9, 185280, Note_on_c, 7, 74, 50
9, 186240, Note_on_c, 7, 74, 0
9, 186240, Note_on_c, 7, 77, 50
9, 187438, Note_on_c, 7, 77, 0
9, 187440, Note_on_c, 7, 79, 50
9, 187560, Note_on_c, 7, 79, 0
9, 187560, Note_on_c, 7, 77, 50
9, 187680, Note_on_c, 7, 77, 0
9, 187680, Note_on_c, 7, 76, 50
9, 187800, Note_on_c, 7, 76, 0
9, 187920, Note_on_c, 7, 74, 50
9, 188040, Note_on_c, 7, 74, 0
9, 188160, Note_on_c, 7, 72, 50
9, 188280, Note_on_c, 7, 72, 0
9, 188400, Note_on_c, 7, 71, 50
9, 188520, Note_on_c, 7, 71, 0
9, 188640, Note_on_c, 7, 69, 50
9, 188760, Note_on_c, 7, 69, 0
9, 188880, Note_on_c, 7, 67, 50
9, 189000, Note_on_c, 7, 67, 0
9, 189120, Note_on_c, 7, 66, 50
9, 189240, Note_on_c, 7, 66, 0
9, 189360, Note_on_c, 7, 67, 50
9, 189480, Note_on_c, 7, 67, 0
9, 189600, Note_on_c, 7, 64, 50
9, 189720, Note_on_c, 7, 64, 0
9, 189840, Note_on_c, 7, 66, 50
9, 189960, Note_on_c, 7, 66, 0
9, 190080, Note_on_c, 7, 67, 50
9, 190200, Note_on_c, 7, 67, 0
9, 190320, Note_on_c, 7, 74, 50
9, 190560, Note_on_c, 7, 74, 0
9, 190560, Note_on_c, 7, 79, 50
9, 190680, Note_on_c, 7, 79, 0
9, 190800, Note_on_c, 7, 77, 50
9, 191280, Note_on_c, 7, 77, 0
9, 191280, Note_on_c, 7, 79, 50
9, 191400, Note_on_c, 7, 79, 0
9, 191400, Note_on_c, 7, 77, 50
9, 191520, Note_on_c, 7, 77, 0
9, 191520, Note_on_c, 7, 76, 50
9, 191640, Note_on_c, 7, 76, 0
9, 191760, Note_on_c, 7, 72, 50
9, 191880, Note_on_c, 7, 72, 0
9, 192000, Note_on_c, 7, 69, 50
9, 193198, Note_on_c, 7, 69, 0
9, 193200, Note_on_c, 7, 77, 50
9, 193320, Note_on_c, 7, 77, 0
9, 193320, Note_on_c, 7, 76, 50
9, 193440, Note_on_c, 7, 76, 0
9, 193440, Note_on_c, 7, 74, 50
9, 193560, Note_on_c, 7, 74, 0
9, 193680, Note_on_c, 7, 72, 50
9, 193800, Note_on_c, 7, 72, 0
9, 193920, Note_on_c, 7, 71, 50
9, 195118, Note_on_c, 7, 71, 0
9, 195120, Note_on_c, 7, 76, 50
9, 195240, Note_on_c, 7, 76, 0
9, 195240, Note_on_c, 7, 74, 50
9, 195360, Note_on_c, 7, 74, 0
9, 195360, Note_on_c, 7, 72, 50
9, 195480, Note_on_c, 7, 72, 0
9, 195600, Note_on_c, 7, 71, 50
9, 195720, Note_on_c, 7, 71, 0
9, 195840, Note_on_c, 7, 69, 50
9, 197038, Note_on_c, 7, 69, 0
9, 197040, Note_on_c, 7, 71, 50
9, 197160, Note_on_c, 7, 71, 0
9, 197160, Note_on_c, 7, 69, 50
9, 197280, Note_on_c, 7, 69, 0
9, 197280, Note_on_c, 7, 67, 50
9, 197400, Note_on_c, 7, 67, 0
9, 197520, Note_on_c, 7, 65, 50
9, 197640, Note_on_c, 7, 65, 0
9, 197760, Note_on_c, 7, 64, 50
9, 198240, Note_on_c, 7, 64, 0
9, 198240, Note_on_c, 7, 76, 50
9, 198958, Note_on_c, 7, 76, 0
9, 198960, Note_on_c, 7, 77, 50
9, 199080, Note_on_c, 7, 77, 0
9, 199080, Note_on_c, 7, 76, 50
9, 199200, Note_on_c, 7, 76, 0
9, 199200, Note_on_c, 7, 74, 50
9, 199440, Note_on_c, 7, 74, 0
9, 199440, Note_on_c, 7, 77, 50
9, 199680, Note_on_c, 7, 77, 0
9, 199680, Note_on_c, 7, 69, 50
9, 200160, Note_on_c, 7, 69, 0
9, 200160, Note_on_c, 7, 62, 50
9, 200640, Note_on_c, 7, 62, 0
9, 200640, Note_on_c, 7, 60, 127
9, 201600, Note_on_c, 7, 60, 0
9, 201600, Note_on_c, 7, 62, 127
9, 202560, Note_on_c, 7, 62, 0
9, 202560, Note_on_c, 7, 65, 127
9, 203520, Note_on_c, 7, 65, 0
9, 203520, Note_on_c, 7, 64, 127
9, 203592, Note_on_c, 7, 64, 0
9, 203640, Note_on_c, 7, 76, 127
9, 203712, Note_on_c, 7, 76, 0
9, 203760, Note_on_c, 7, 76, 127
9, 203832, Note_on_c, 7, 76, 0
9, 203880, Note_on_c, 7, 76, 127
9, 203952, Note_on_c, 7, 76, 0
9, 204000, Note_on_c, 7, 76, 127
9, 204072, Note_on_c, 7, 76, 0
9, 204120, Note_on_c, 7, 76, 127
9, 204192, Note_on_c, 7, 76, 0
9, 204240, Note_on_c, 7, 76, 127
9, 204312, Note_on_c, 7, 76, 0
9, 204360, Note_on_c, 7, 76, 127
9, 204432, Note_on_c, 7, 76, 0
9, 204480, Note_on_c, 7, 76, 127
9, 204552, Note_on_c, 7, 76, 0
9, 204600, Note_on_c, 7, 76, 127
9, 204672, Note_on_c, 7, 76, 0
9, 204720, Note_on_c, 7, 76, 127
9, 204792, Note_on_c, 7, 76, 0
9, 204840, Note_on_c, 7, 76, 127
9, 204912, Note_on_c, 7, 76, 0
9, 204960, Note_on_c, 7, 76, 127
9, 205032, Note_on_c, 7, 76, 0
9, 205080, Note_on_c, 7, 76, 127
9, 205152, Note_on_c, 7, 76, 0
9, 205200, Note_on_c, 7, 76, 127
9, 205272, Note_on_c, 7, 76, 0
9, 205320, Note_on_c, 7, 76, 127
9, 205392, Note_on_c, 7, 76, 0
9, 205440, Note_on_c, 7, 74, 127
9, 205512, Note_on_c, 7, 74, 0
9, 205560, Note_on_c, 7, 74, 127
9, 205632, Note_on_c, 7, 74, 0
9, 205680, Note_on_c, 7, 74, 127
9, 205752, Note_on_c, 7, 74, 0
9, 205800, Note_on_c, 7, 74, 127
9, 205872, Note_on_c, 7, 74, 0
9, 205920, Note_on_c, 7, 74, 127
9, 205992, Note_on_c, 7, 74, 0
9, 206040, Note_on_c, 7, 74, 127
9, 206112, Note_on_c, 7, 74, 0
9, 206160, Note_on_c, 7, 74, 127
9, 206232, Note_on_c, 7, 74, 0
9, 206280, Note_on_c, 7, 74, 127
9, 206352, Note_on_c, 7, 74, 0
9, 206400, Note_on_c, 7, 74, 127
9, 206472, Note_on_c, 7, 74, 0
9, 206520, Note_on_c, 7, 74, 127
9, 206592, Note_on_c, 7, 74, 0
9, 206640, Note_on_c, 7, 74, 127
9, 206712, Note_on_c, 7, 74, 0
9, 206760, Note_on_c, 7, 74, 127
9, 206832, Note_on_c, 7, 74, 0
9, 206880, Note_on_c, 7, 74, 127
9, 206952, Note_on_c, 7, 74, 0
9, 207000, Note_on_c, 7, 74, 127
9, 207072, Note_on_c, 7, 74, 0
9, 207120, Note_on_c, 7, 74, 127
9, 207192, Note_on_c, 7, 74, 0
9, 207240, Note_on_c, 7, 74, 127
9, 207312, Note_on_c, 7, 74, 0
9, 207360, Note_on_c, 7, 72, 127
9, 207432, Note_on_c, 7, 72, 0
9, 207480, Note_on_c, 7, 72, 127
9, 207552, Note_on_c, 7, 72, 0
9, 207600, Note_on_c, 7, 72, 127
9, 207672, Note_on_c, 7, 72, 0
9, 207720, Note_on_c, 7, 72, 127
9, 207792, Note_on_c, 7, 72, 0
9, 207840, Note_on_c, 7, 72, 127
9, 207912, Note_on_c, 7, 72, 0
9, 207960, Note_on_c, 7, 72, 127
9, 208032, Note_on_c, 7, 72, 0
9, 208080, Note_on_c, 7, 72, 127
9, 208152, Note_on_c, 7, 72, 0
9, 208200, Note_on_c, 7, 72, 127
9, 208272, Note_on_c, 7, 72, 0
9, 208320, Note_on_c, 7, 72, 127
9, 208392, Note_on_c, 7, 72, 0
9, 208440, Note_on_c, 7, 72, 127
9, 208512, Note_on_c, 7, 72, 0
9, 208560, Note_on_c, 7, 72, 127
9, 208632, Note_on_c, 7, 72, 0
9, 208680, Note_on_c, 7, 72, 127
9, 208752, Note_on_c, 7, 72, 0
9, 208800, Note_on_c, 7, 72, 127
9, 208872, Note_on_c, 7, 72, 0
9, 208920, Note_on_c, 7, 72, 127
9, 208992, Note_on_c, 7, 72, 0
9, 209040, Note_on_c, 7, 72, 127
9, 209112, Note_on_c, 7, 72, 0
9, 209160, Note_on_c, 7, 72, 127
9, 209232, Note_on_c, 7, 72, 0
9, 209280, Note_on_c, 7, 71, 127
9, 209352, Note_on_c, 7, 71, 0
9, 209400, Note_on_c, 7, 71, 127
9, 209472, Note_on_c, 7, 71, 0
9, 209520, Note_on_c, 7, 71, 127
9, 209592, Note_on_c, 7, 71, 0
9, 209640, Note_on_c, 7, 71, 127
9, 209712, Note_on_c, 7, 71, 0
9, 209760, Note_on_c, 7, 71, 127
9, 209832, Note_on_c, 7, 71, 0
9, 209880, Note_on_c, 7, 71, 127
9, 209952, Note_on_c, 7, 71, 0
9, 210000, Note_on_c, 7, 71, 127
9, 210072, Note_on_c, 7, 71, 0
9, 210120, Note_on_c, 7, 71, 127
9, 210192, Note_on_c, 7, 71, 0
9, 210240, Note_on_c, 7, 67, 127
9, 210360, Note_on_c, 7, 67, 0
9, 210360, Note_on_c, 7, 67, 127
9, 210480, Note_on_c, 7, 67, 0
9, 210480, Note_on_c, 7, 67, 127
9, 210600, Note_on_c, 7, 67, 0
9, 210600, Note_on_c, 7, 67, 127
9, 210720, Note_on_c, 7, 67, 0
9, 210720, Note_on_c, 7, 67, 127
9, 210720, Note_on_c, 7, 57, 127
9, 210840, Note_on_c, 7, 57, 0
9, 210840, Note_on_c, 7, 67, 0
9, 210840, Note_on_c, 7, 67, 127
9, 210840, Note_on_c, 7, 57, 127
9, 210960, Note_on_c, 7, 57, 0
9, 210960, Note_on_c, 7, 67, 0
9, 210960, Note_on_c, 7, 67, 127
9, 210960, Note_on_c, 7, 57, 127
9, 211080, Note_on_c, 7, 57, 0
9, 211080, Note_on_c, 7, 67, 0
9, 211080, Note_on_c, 7, 57, 127
9, 211080, Note_on_c, 7, 67, 127
9, 211200, Note_on_c, 7, 67, 0
9, 211200, Note_on_c, 7, 57, 0
9, 211200, Note_on_c, 7, 66, 127
9, 211200, Note_on_c, 7, 57, 127
9, 211440, Note_on_c, 7, 57, 0
9, 211440, Note_on_c, 7, 66, 0
9, 211680, Note_on_c, 7, 74, 127
9, 211905, Note_on_c, 7, 74, 0
9, 212040, Note_on_c, 7, 74, 127
9, 212100, Note_on_c, 7, 74, 0
9, 212160, Note_on_c, 7, 74, 127
9, 212760, Note_on_c, 7, 74, 0
9, 212880, Note_on_c, 7, 73, 127
9, 212964, Note_on_c, 7, 73, 0
9, 213000, Note_on_c, 7, 71, 127
9, 213084, Note_on_c, 7, 71, 0
9, 213120, Note_on_c, 7, 69, 127
9, 213204, Note_on_c, 7, 69, 0
9, 213240, Note_on_c, 7, 71, 127
9, 213324, Note_on_c, 7, 71, 0
9, 213360, Note_on_c, 7, 69, 127
9, 213444, Note_on_c, 7, 69, 0
9, 213480, Note_on_c, 7, 67, 127
9, 213564, Note_on_c, 7, 67, 0
9, 213600, Note_on_c, 7, 66, 127
9, 213684, Note_on_c, 7, 66, 0
9, 213720, Note_on_c, 7, 67, 127
9, 213804, Note_on_c, 7, 67, 0
9, 213840, Note_on_c, 7, 66, 127
9, 213924, Note_on_c, 7, 66, 0
9, 213960, Note_on_c, 7, 64, 127
9, 214044, Note_on_c, 7, 64, 0
9, 214080, Note_on_c, 7, 62, 127
9, 214320, Note_on_c, 7, 62, 0
9, 214560, Note_on_c, 7, 74, 127
9, 214785, Note_on_c, 7, 74, 0
9, 214920, Note_on_c, 7, 74, 127
9, 214980, Note_on_c, 7, 74, 0
9, 215040, Note_on_c, 7, 74, 127
9, 215640, Note_on_c, 7, 74, 0
9, 215760, Note_on_c, 7, 73, 127
9, 215844, Note_on_c, 7, 73, 0
9, 215880, Note_on_c, 7, 71, 127
9, 215964, Note_on_c, 7, 71, 0
9, 216000, Note_on_c, 7, 69, 127
9, 216084, Note_on_c, 7, 69, 0
9, 216120, Note_on_c, 7, 71, 127
9, 216204, Note_on_c, 7, 71, 0
9, 216240, Note_on_c, 7, 69, 127
9, 216324, Note_on_c, 7, 69, 0
9, 216360, Note_on_c, 7, 67, 127
9, 216444, Note_on_c, 7, 67, 0
9, 216480, Note_on_c, 7, 66, 127
9, 216564, Note_on_c, 7, 66, 0
9, 216600, Note_on_c, 7, 67, 127
9, 216684, Note_on_c, 7, 67, 0
9, 216720, Note_on_c, 7, 66, 127
9, 216804, Note_on_c, 7, 66, 0
9, 216840, Note_on_c, 7, 64, 127
9, 216924, Note_on_c, 7, 64, 0
9, 216960, Note_on_c, 7, 62, 127
9, 217044, Note_on_c, 7, 62, 0
9, 217080, Note_on_c, 7, 61, 127
9, 217164, Note_on_c, 7, 61, 0
9, 217200, Note_on_c, 7, 62, 127
9, 217284, Note_on_c, 7, 62, 0
9, 217320, Note_on_c, 7, 64, 127
9, 217404, Note_on_c, 7, 64, 0
9, 217440, Note_on_c, 7, 66, 127
9, 217524, Note_on_c, 7, 66, 0
9, 217560, Note_on_c, 7, 67, 127
9, 217644, Note_on_c, 7, 67, 0
9, 217680, Note_on_c, 7, 69, 127
9, 217764, Note_on_c, 7, 69, 0
9, 217800, Note_on_c, 7, 67, 127
9, 217884, Note_on_c, 7, 67, 0
9, 217920, Note_on_c, 7, 66, 127
9, 218004, Note_on_c, 7, 66, 0
9, 218040, Note_on_c, 7, 64, 127
9, 218124, Note_on_c, 7, 64, 0
9, 218160, Note_on_c, 7, 66, 127
9, 218244, Note_on_c, 7, 66, 0
9, 218280, Note_on_c, 7, 67, 127
9, 218364, Note_on_c, 7, 67, 0
9, 218400, Note_on_c, 7, 69, 127
9, 218484, Note_on_c, 7, 69, 0
9, 218520, Note_on_c, 7, 71, 127
9, 218604, Note_on_c, 7, 71, 0
9, 218640, Note_on_c, 7, 72, 127
9, 218724, Note_on_c, 7, 72, 0
9, 218760, Note_on_c, 7, 71, 127
9, 218844, Note_on_c, 7, 71, 0
9, 218880, Note_on_c, 7, 69, 127
9, 219120, Note_on_c, 7, 69, 0
9, 219120, Note_on_c, 7, 72, 127
9, 219240, Note_on_c, 7, 72, 0
9, 219240, Note_on_c, 7, 78, 127
9, 219360, Note_on_c, 7, 78, 0
9, 219360, Note_on_c, 7, 81, 127
9, 219480, Note_on_c, 7, 81, 0
9, 219480, Note_on_c, 7, 78, 127
9, 219600, Note_on_c, 7, 78, 0
9, 219600, Note_on_c, 7, 81, 127
9, 219720, Note_on_c, 7, 81, 0
9, 219720, Note_on_c, 7, 78, 127
9, 219840, Note_on_c, 7, 78, 0
9, 219840, Note_on_c, 7, 81, 127
9, 220320, Note_on_c, 7, 81, 0
9, 220800, Note_on_c, 7, 59, 50
9, 220920, Note_on_c, 7, 59, 0
9, 220920, Note_on_c, 7, 62, 50
9, 221040, Note_on_c, 7, 62, 0
9, 221040, Note_on_c, 7, 67, 50
9, 221160, Note_on_c, 7, 67, 0
9, 221160, Note_on_c, 7, 62, 50
9, 221280, Note_on_c, 7, 62, 0
9, 221280, Note_on_c, 7, 67, 50
9, 221400, Note_on_c, 7, 67, 0
9, 221400, Note_on_c, 7, 62, 50
9, 221520, Note_on_c, 7, 62, 0
9, 221520, Note_on_c, 7, 59, 50
9, 221640, Note_on_c, 7, 59, 0
9, 221640, Note_on_c, 7, 62, 50
9, 221760, Note_on_c, 7, 62, 0
9, 221760, Note_on_c, 7, 62, 50
9, 221880, Note_on_c, 7, 62, 0
9, 221880, Note_on_c, 7, 64, 50
9, 222000, Note_on_c, 7, 64, 0
9, 222000, Note_on_c, 7, 68, 50
9, 222120, Note_on_c, 7, 68, 0
9, 222120, Note_on_c, 7, 64, 50
9, 222240, Note_on_c, 7, 64, 0
9, 222240, Note_on_c, 7, 68, 50
9, 222360, Note_on_c, 7, 68, 0
9, 222360, Note_on_c, 7, 64, 50
9, 222480, Note_on_c, 7, 64, 0
9, 222480, Note_on_c, 7, 62, 50
9, 222600, Note_on_c, 7, 62, 0
9, 222600, Note_on_c, 7, 64, 50
9, 222720, Note_on_c, 7, 64, 0
9, 222720, Note_on_c, 7, 60, 50
9, 222840, Note_on_c, 7, 60, 0
9, 222840, Note_on_c, 7, 64, 50
9, 222960, Note_on_c, 7, 64, 0
9, 222960, Note_on_c, 7, 69, 50
9, 223080, Note_on_c, 7, 69, 0
9, 223080, Note_on_c, 7, 64, 50
9, 223200, Note_on_c, 7, 64, 0
9, 223200, Note_on_c, 7, 69, 50
9, 223320, Note_on_c, 7, 69, 0
9, 223320, Note_on_c, 7, 64, 50
9, 223440, Note_on_c, 7, 64, 0
9, 223440, Note_on_c, 7, 60, 50
9, 223560, Note_on_c, 7, 60, 0
9, 223560, Note_on_c, 7, 64, 50
9, 223680, Note_on_c, 7, 64, 0
9, 223680, Note_on_c, 7, 60, 50
9, 223800, Note_on_c, 7, 60, 0
9, 223800, Note_on_c, 7, 62, 50
9, 223920, Note_on_c, 7, 62, 0
9, 223920, Note_on_c, 7, 66, 50
9, 224040, Note_on_c, 7, 66, 0
9, 224040, Note_on_c, 7, 62, 50
9, 224160, Note_on_c, 7, 62, 0
9, 224160, Note_on_c, 7, 60, 50
9, 224280, Note_on_c, 7, 60, 0
9, 224280, Note_on_c, 7, 62, 50
9, 224400, Note_on_c, 7, 62, 0
9, 224400, Note_on_c, 7, 60, 50
9, 224520, Note_on_c, 7, 60, 0
9, 224520, Note_on_c, 7, 62, 50
9, 224640, Note_on_c, 7, 62, 0
9, 224640, Note_on_c, 7, 59, 50
9, 224760, Note_on_c, 7, 59, 0
9, 224760, Note_on_c, 7, 62, 50
9, 224880, Note_on_c, 7, 62, 0
9, 224880, Note_on_c, 7, 59, 50
9, 225000, Note_on_c, 7, 59, 0
9, 225000, Note_on_c, 7, 62, 50
9, 225120, Note_on_c, 7, 62, 0
9, 225120, Note_on_c, 7, 67, 50
9, 225240, Note_on_c, 7, 67, 0
9, 225240, Note_on_c, 7, 62, 50
9, 225360, Note_on_c, 7, 62, 0
9, 225360, Note_on_c, 7, 67, 50
9, 225480, Note_on_c, 7, 67, 0
9, 225480, Note_on_c, 7, 62, 50
9, 225600, Note_on_c, 7, 62, 0
9, 225600, Note_on_c, 7, 64, 50
9, 225720, Note_on_c, 7, 64, 0
9, 225720, Note_on_c, 7, 60, 50
9, 225840, Note_on_c, 7, 60, 0
9, 225840, Note_on_c, 7, 64, 50
9, 225960, Note_on_c, 7, 64, 0
9, 225960, Note_on_c, 7, 60, 50
9, 226080, Note_on_c, 7, 60, 0
9, 226080, Note_on_c, 7, 57, 50
9, 226200, Note_on_c, 7, 57, 0
9, 226200, Note_on_c, 7, 64, 50
9, 226320, Note_on_c, 7, 64, 0
9, 226320, Note_on_c, 7, 57, 50
9, 226440, Note_on_c, 7, 57, 0
9, 226440, Note_on_c, 7, 67, 50
9, 226560, Note_on_c, 7, 67, 0
9, 226560, Note_on_c, 7, 66, 50
9, 226680, Note_on_c, 7, 66, 0
9, 226680, Note_on_c, 7, 69, 50
9, 226800, Note_on_c, 7, 69, 0
9, 226800, Note_on_c, 7, 66, 50
9, 226920, Note_on_c, 7, 66, 0
9, 226920, Note_on_c, 7, 62, 50
9, 227040, Note_on_c, 7, 62, 0
9, 227040, Note_on_c, 7, 60, 50
9, 227160, Note_on_c, 7, 60, 0
9, 227160, Note_on_c, 7, 62, 50
9, 227280, Note_on_c, 7, 62, 0
9, 227280, Note_on_c, 7, 60, 50
9, 227400, Note_on_c, 7, 60, 0
9, 227400, Note_on_c, 7, 57, 50
9, 227520, Note_on_c, 7, 57, 0
9, 227520, Note_on_c, 7, 55, 50
9, 227640, Note_on_c, 7, 55, 0
9, 227640, Note_on_c, 7, 59, 50
9, 227760, Note_on_c, 7, 59, 0
9, 227760, Note_on_c, 7, 62, 50
9, 227880, Note_on_c, 7, 62, 0
9, 227880, Note_on_c, 7, 59, 50
9, 228000, Note_on_c, 7, 59, 0
9, 228000, Note_on_c, 7, 62, 50
9, 228120, Note_on_c, 7, 62, 0
9, 228120, Note_on_c, 7, 64, 50
9, 228240, Note_on_c, 7, 64, 0
9, 228240, Note_on_c, 7, 62, 50
9, 228360, Note_on_c, 7, 62, 0
9, 228360, Note_on_c, 7, 59, 50
9, 228480, Note_on_c, 7, 59, 0
9, 228480, Note_on_c, 7, 60, 50
9, 228600, Note_on_c, 7, 60, 0
9, 228600, Note_on_c, 7, 59, 50
9, 228720, Note_on_c, 7, 59, 0
9, 228720, Note_on_c, 7, 60, 50
9, 228840, Note_on_c, 7, 60, 0
9, 228840, Note_on_c, 7, 62, 50
9, 228960, Note_on_c, 7, 62, 0
9, 228960, Note_on_c, 7, 64, 50
9, 229080, Note_on_c, 7, 64, 0
9, 229080, Note_on_c, 7, 62, 50
9, 229200, Note_on_c, 7, 62, 0
9, 229200, Note_on_c, 7, 60, 50
9, 229320, Note_on_c, 7, 60, 0
9, 229320, Note_on_c, 7, 59, 50
9, 229440, Note_on_c, 7, 59, 0
9, 229440, Note_on_c, 7, 57, 50
9, 229560, Note_on_c, 7, 57, 0
9, 229560, Note_on_c, 7, 62, 50
9, 229680, Note_on_c, 7, 62, 0
9, 229680, Note_on_c, 7, 66, 50
9, 229800, Note_on_c, 7, 66, 0
9, 229800, Note_on_c, 7, 62, 50
9, 229920, Note_on_c, 7, 62, 0
9, 229920, Note_on_c, 7, 57, 50
9, 230040, Note_on_c, 7, 57, 0
9, 230040, Note_on_c, 7, 62, 50
9, 230160, Note_on_c, 7, 62, 0
9, 230160, Note_on_c, 7, 57, 50
9, 230280, Note_on_c, 7, 57, 0
9, 230280, Note_on_c, 7, 62, 50
9, 230400, Note_on_c, 7, 62, 0
9, 230400, Note_on_c, 7, 59, 50
9, 230520, Note_on_c, 7, 59, 0
9, 230520, Note_on_c, 7, 62, 50
9, 230640, Note_on_c, 7, 62, 0
9, 230640, Note_on_c, 7, 59, 50
9, 230760, Note_on_c, 7, 59, 0
9, 230760, Note_on_c, 7, 62, 50
9, 230880, Note_on_c, 7, 62, 0
9, 230880, Note_on_c, 7, 67, 50
9, 231000, Note_on_c, 7, 67, 0
9, 231000, Note_on_c, 7, 62, 50
9, 231120, Note_on_c, 7, 62, 0
9, 231120, Note_on_c, 7, 67, 50
9, 231240, Note_on_c, 7, 67, 0
9, 231240, Note_on_c, 7, 62, 50
9, 231360, Note_on_c, 7, 62, 0
9, 231360, Note_on_c, 7, 64, 50
9, 231480, Note_on_c, 7, 64, 0
9, 231480, Note_on_c, 7, 60, 50
9, 231600, Note_on_c, 7, 60, 0
9, 231600, Note_on_c, 7, 64, 50
9, 231720, Note_on_c, 7, 64, 0
9, 231720, Note_on_c, 7, 60, 50
9, 231840, Note_on_c, 7, 60, 0
9, 231840, Note_on_c, 7, 57, 50
9, 231960, Note_on_c, 7, 57, 0
9, 231960, Note_on_c, 7, 67, 50
9, 232080, Note_on_c, 7, 67, 0
9, 232080, Note_on_c, 7, 57, 50
9, 232200, Note_on_c, 7, 57, 0
9, 232200, Note_on_c, 7, 67, 50
9, 232320, Note_on_c, 7, 67, 0
9, 232320, Note_on_c, 7, 66, 50
9, 232404, Note_on_c, 7, 66, 0
9, 232440, Note_on_c, 7, 66, 50
9, 232524, Note_on_c, 7, 66, 0
9, 232560, Note_on_c, 7, 67, 50
9, 232644, Note_on_c, 7, 67, 0
9, 232680, Note_on_c, 7, 69, 50
9, 232764, Note_on_c, 7, 69, 0
9, 232800, Note_on_c, 7, 71, 50
9, 232884, Note_on_c, 7, 71, 0
9, 232920, Note_on_c, 7, 69, 50
9, 233004, Note_on_c, 7, 69, 0
9, 233040, Note_on_c, 7, 72, 50
9, 233124, Note_on_c, 7, 72, 0
9, 233160, Note_on_c, 7, 71, 50
9, 233244, Note_on_c, 7, 71, 0
9, 233280, Note_on_c, 7, 74, 50
9, 233364, Note_on_c, 7, 74, 0
9, 233400, Note_on_c, 7, 72, 50
9, 233484, Note_on_c, 7, 72, 0
9, 233520, Note_on_c, 7, 71, 50
9, 233604, Note_on_c, 7, 71, 0
9, 233640, Note_on_c, 7, 69, 50
9, 233724, Note_on_c, 7, 69, 0
9, 233760, Note_on_c, 7, 67, 50
9, 233844, Note_on_c, 7, 67, 0
9, 233880, Note_on_c, 7, 66, 50
9, 233964, Note_on_c, 7, 66, 0
9, 234000, Note_on_c, 7, 64, 50
9, 234084, Note_on_c, 7, 64, 0
9, 234120, Note_on_c, 7, 62, 50
9, 234204, Note_on_c, 7, 62, 0
9, 234240, Note_on_c, 7, 64, 50
9, 234324, Note_on_c, 7, 64, 0
9, 234360, Note_on_c, 7, 64, 50
9, 234444, Note_on_c, 7, 64, 0
9, 234480, Note_on_c, 7, 66, 50
9, 234564, Note_on_c, 7, 66, 0
9, 234600, Note_on_c, 7, 67, 50
9, 234684, Note_on_c, 7, 67, 0
9, 234720, Note_on_c, 7, 69, 50
9, 234804, Note_on_c, 7, 69, 0
9, 234840, Note_on_c, 7, 68, 50
9, 234924, Note_on_c, 7, 68, 0
9, 234960, Note_on_c, 7, 71, 50
9, 235044, Note_on_c, 7, 71, 0
9, 235080, Note_on_c, 7, 69, 50
9, 235164, Note_on_c, 7, 69, 0
9, 235200, Note_on_c, 7, 72, 50
9, 235284, Note_on_c, 7, 72, 0
9, 235320, Note_on_c, 7, 71, 50
9, 235404, Note_on_c, 7, 71, 0
9, 235440, Note_on_c, 7, 69, 50
9, 235524, Note_on_c, 7, 69, 0
9, 235560, Note_on_c, 7, 67, 50
9, 235644, Note_on_c, 7, 67, 0
9, 235680, Note_on_c, 7, 66, 50
9, 235764, Note_on_c, 7, 66, 0
9, 235800, Note_on_c, 7, 64, 50
9, 235884, Note_on_c, 7, 64, 0
9, 235920, Note_on_c, 7, 62, 50
9, 236004, Note_on_c, 7, 62, 0
9, 236040, Note_on_c, 7, 61, 50
9, 236124, Note_on_c, 7, 61, 0
9, 236160, Note_on_c, 7, 62, 50
9, 236244, Note_on_c, 7, 62, 0
9, 236280, Note_on_c, 7, 62, 50
9, 236364, Note_on_c, 7, 62, 0
9, 236400, Note_on_c, 7, 64, 50
9, 236484, Note_on_c, 7, 64, 0
9, 236520, Note_on_c, 7, 66, 50
9, 236604, Note_on_c, 7, 66, 0
9, 236640, Note_on_c, 7, 67, 50
9, 236724, Note_on_c, 7, 67, 0
9, 236760, Note_on_c, 7, 66, 50
9, 236844, Note_on_c, 7, 66, 0
9, 236880, Note_on_c, 7, 69, 50
9, 236964, Note_on_c, 7, 69, 0
9, 237000, Note_on_c, 7, 67, 50
9, 237084, Note_on_c, 7, 67, 0
9, 237120, Note_on_c, 7, 71, 50
9, 237204, Note_on_c, 7, 71, 0
9, 237240, Note_on_c, 7, 69, 50
9, 237324, Note_on_c, 7, 69, 0
9, 237360, Note_on_c, 7, 67, 50
9, 237444, Note_on_c, 7, 67, 0
9, 237480, Note_on_c, 7, 66, 50
9, 237564, Note_on_c, 7, 66, 0
9, 237600, Note_on_c, 7, 64, 50
9, 237684, Note_on_c, 7, 64, 0
9, 237720, Note_on_c, 7, 62, 50
9, 237804, Note_on_c, 7, 62, 0
9, 237840, Note_on_c, 7, 60, 50
9, 237924, Note_on_c, 7, 60, 0
9, 237960, Note_on_c, 7, 59, 50
9, 238044, Note_on_c, 7, 59, 0
9, 238080, Note_on_c, 7, 60, 50
9, 238164, Note_on_c, 7, 60, 0
9, 238200, Note_on_c, 7, 60, 50
9, 238284, Note_on_c, 7, 60, 0
9, 238320, Note_on_c, 7, 62, 50
9, 238404, Note_on_c, 7, 62, 0
9, 238440, Note_on_c, 7, 64, 50
9, 238524, Note_on_c, 7, 64, 0
9, 238560, Note_on_c, 7, 66, 50
9, 238644, Note_on_c, 7, 66, 0
9, 238680, Note_on_c, 7, 64, 50
9, 238764, Note_on_c, 7, 64, 0
9, 238800, Note_on_c, 7, 67, 50
9, 238884, Note_on_c, 7, 67, 0
9, 238920, Note_on_c, 7, 66, 50
9, 239004, Note_on_c, 7, 66, 0
9, 239040, Note_on_c, 7, 69, 50
9, 239124, Note_on_c, 7, 69, 0
9, 239160, Note_on_c, 7, 67, 50
9, 239244, Note_on_c, 7, 67, 0
9, 239280, Note_on_c, 7, 66, 50
9, 239364, Note_on_c, 7, 66, 0
9, 239400, Note_on_c, 7, 64, 50
9, 239484, Note_on_c, 7, 64, 0
9, 239520, Note_on_c, 7, 62, 50
9, 239604, Note_on_c, 7, 62, 0
9, 239640, Note_on_c, 7, 60, 50
9, 239724, Note_on_c, 7, 60, 0
9, 239760, Note_on_c, 7, 69, 50
9, 239844, Note_on_c, 7, 69, 0
9, 239880, Note_on_c, 7, 60, 50
9, 239964, Note_on_c, 7, 60, 0
9, 240000, Note_on_c, 7, 59, 100
9, 240084, Note_on_c, 7, 59, 0
9, 240120, Note_on_c, 7, 62, 100
9, 240204, Note_on_c, 7, 62, 0
9, 240240, Note_on_c, 7, 67, 100
9, 240324, Note_on_c, 7, 67, 0
9, 240360, Note_on_c, 7, 69, 100
9, 240444, Note_on_c, 7, 69, 0
9, 240480, Note_on_c, 7, 71, 100
9, 240564, Note_on_c, 7, 71, 0
9, 240600, Note_on_c, 7, 72, 100
9, 240684, Note_on_c, 7, 72, 0
9, 240720, Note_on_c, 7, 71, 100
9, 240804, Note_on_c, 7, 71, 0
9, 240840, Note_on_c, 7, 69, 100
9, 240924, Note_on_c, 7, 69, 0
9, 240960, Note_on_c, 7, 67, 100
9, 241044, Note_on_c, 7, 67, 0
9, 241080, Note_on_c, 7, 65, 100
9, 241164, Note_on_c, 7, 65, 0
9, 241200, Note_on_c, 7, 64, 100
9, 241284, Note_on_c, 7, 64, 0
9, 241320, Note_on_c, 7, 62, 100
9, 241404, Note_on_c, 7, 62, 0
9, 241440, Note_on_c, 7, 60, 100
9, 241776, Note_on_c, 7, 60, 0
9, 242040, Note_on_c, 7, 72, 100
9, 242124, Note_on_c, 7, 72, 0
9, 242160, Note_on_c, 7, 74, 100
9, 242244, Note_on_c, 7, 74, 0
9, 242280, Note_on_c, 7, 76, 100
9, 242364, Note_on_c, 7, 76, 0
9, 242400, Note_on_c, 7, 74, 100
9, 242484, Note_on_c, 7, 74, 0
9, 242520, Note_on_c, 7, 76, 100
9, 242604, Note_on_c, 7, 76, 0
9, 242640, Note_on_c, 7, 74, 100
9, 242724, Note_on_c, 7, 74, 0
9, 242760, Note_on_c, 7, 72, 100
9, 242844, Note_on_c, 7, 72, 0
9, 242880, Note_on_c, 7, 71, 100
9, 242964, Note_on_c, 7, 71, 0
9, 243000, Note_on_c, 7, 69, 100
9, 243084, Note_on_c, 7, 69, 0
9, 243120, Note_on_c, 7, 67, 100
9, 243204, Note_on_c, 7, 67, 0
9, 243240, Note_on_c, 7, 65, 100
9, 243324, Note_on_c, 7, 65, 0
9, 243360, Note_on_c, 7, 64, 100
9, 243696, Note_on_c, 7, 64, 0
9, 243960, Note_on_c, 7, 64, 100
9, 244044, Note_on_c, 7, 64, 0
9, 244080, Note_on_c, 7, 66, 100
9, 244164, Note_on_c, 7, 66, 0
9, 244200, Note_on_c, 7, 67, 100
9, 244284, Note_on_c, 7, 67, 0
9, 244320, Note_on_c, 7, 69, 100
9, 244404, Note_on_c, 7, 69, 0
9, 244440, Note_on_c, 7, 66, 100
9, 244524, Note_on_c, 7, 66, 0
9, 244560, Note_on_c, 7, 69, 100
9, 244644, Note_on_c, 7, 69, 0
9, 244680, Note_on_c, 7, 62, 100
9, 244764, Note_on_c, 7, 62, 0
9, 244800, Note_on_c, 7, 74, 100
9, 245136, Note_on_c, 7, 74, 0
9, 245280, Note_on_c, 7, 71, 100
9, 245616, Note_on_c, 7, 71, 0
9, 245760, Note_on_c, 7, 76, 100
9, 246324, Note_on_c, 7, 76, 0
9, 246360, Note_on_c, 7, 74, 100
9, 246444, Note_on_c, 7, 74, 0
9, 246480, Note_on_c, 7, 72, 100
9, 246564, Note_on_c, 7, 72, 0
9, 246600, Note_on_c, 7, 71, 100
9, 246684, Note_on_c, 7, 71, 0
9, 246720, Note_on_c, 7, 72, 100
9, 246804, Note_on_c, 7, 72, 0
9, 246840, Note_on_c, 7, 71, 100
9, 246924, Note_on_c, 7, 71, 0
9, 246960, Note_on_c, 7, 69, 100
9, 247044, Note_on_c, 7, 69, 0
9, 247080, Note_on_c, 7, 67, 100
9, 247164, Note_on_c, 7, 67, 0
9, 247200, Note_on_c, 7, 66, 100
9, 247536, Note_on_c, 7, 66, 0
9, 247680, Note_on_c, 7, 74, 100
9, 248184, Note_on_c, 7, 74, 0
9, 248640, Note_on_c, 7, 71, 100
9, 248976, Note_on_c, 7, 71, 0
9, 249120, Note_on_c, 7, 67, 100
9, 249456, Note_on_c, 7, 67, 0
9, 249600, Note_on_c, 7, 72, 100
9, 250164, Note_on_c, 7, 72, 0
9, 250200, Note_on_c, 7, 71, 100
9, 250284, Note_on_c, 7, 71, 0
9, 250320, Note_on_c, 7, 69, 100
9, 250404, Note_on_c, 7, 69, 0
9, 250440, Note_on_c, 7, 67, 100
9, 250524, Note_on_c, 7, 67, 0
9, 250560, Note_on_c, 7, 69, 100
9, 250644, Note_on_c, 7, 69, 0
9, 250680, Note_on_c, 7, 67, 100
9, 250764, Note_on_c, 7, 67, 0
9, 250800, Note_on_c, 7, 66, 100
9, 250884, Note_on_c, 7, 66, 0
9, 250920, Note_on_c, 7, 64, 100
9, 251004, Note_on_c, 7, 64, 0
9, 251040, Note_on_c, 7, 63, 100
9, 251376, Note_on_c, 7, 63, 0
9, 251520, Note_on_c, 7, 71, 100
9, 252024, Note_on_c, 7, 71, 0
9, 252480, Note_on_c, 7, 67, 100
9, 252816, Note_on_c, 7, 67, 0
9, 252960, Note_on_c, 7, 64, 100
9, 253296, Note_on_c, 7, 64, 0
9, 253440, Note_on_c, 7, 69, 100
9, 254004, Note_on_c, 7, 69, 0
9, 254040, Note_on_c, 7, 67, 100
9, 254124, Note_on_c, 7, 67, 0
9, 254160, Note_on_c, 7, 65, 100
9, 254244, Note_on_c, 7, 65, 0
9, 254280, Note_on_c, 7, 64, 100
9, 254364, Note_on_c, 7, 64, 0
9, 254400, Note_on_c, 7, 65, 100
9, 254484, Note_on_c, 7, 65, 0
9, 254520, Note_on_c, 7, 64, 100
9, 254604, Note_on_c, 7, 64, 0
9, 254640, Note_on_c, 7, 62, 100
9, 254724, Note_on_c, 7, 62, 0
9, 254760, Note_on_c, 7, 60, 100
9, 254844, Note_on_c, 7, 60, 0
9, 254880, Note_on_c, 7, 59, 100
9, 255048, Note_on_c, 7, 59, 0
9, 260280, Note_on_c, 7, 71, 100
9, 260364, Note_on_c, 7, 71, 0
9, 260400, Note_on_c, 7, 71, 100
9, 260484, Note_on_c, 7, 71, 0
9, 260520, Note_on_c, 7, 71, 100
9, 260604, Note_on_c, 7, 71, 0
9, 260640, Note_on_c, 7, 71, 100
9, 260724, Note_on_c, 7, 71, 0
9, 260760, Note_on_c, 7, 71, 100
9, 260844, Note_on_c, 7, 71, 0
9, 260880, Note_on_c, 7, 71, 100
9, 260964, Note_on_c, 7, 71, 0
9, 261000, Note_on_c, 7, 71, 100
9, 261084, Note_on_c, 7, 71, 0
9, 261120, Note_on_c, 7, 71, 100
9, 261204, Note_on_c, 7, 71, 0
9, 261240, Note_on_c, 7, 71, 100
9, 261324, Note_on_c, 7, 71, 0
9, 261360, Note_on_c, 7, 71, 100
9, 261444, Note_on_c, 7, 71, 0
9, 261480, Note_on_c, 7, 71, 100
9, 261564, Note_on_c, 7, 71, 0
9, 261600, Note_on_c, 7, 71, 100
9, 261684, Note_on_c, 7, 71, 0
9, 261720, Note_on_c, 7, 71, 100
9, 261804, Note_on_c, 7, 71, 0
9, 261840, Note_on_c, 7, 71, 100
9, 261924, Note_on_c, 7, 71, 0
9, 261960, Note_on_c, 7, 71, 100
9, 262044, Note_on_c, 7, 71, 0
9, 262080, Note_on_c, 7, 79, 100
9, 262080, Note_on_c, 7, 71, 100
9, 262164, Note_on_c, 7, 71, 0
9, 262164, Note_on_c, 7, 79, 0
9, 262200, Note_on_c, 7, 71, 100
9, 262200, Note_on_c, 7, 79, 100
9, 262284, Note_on_c, 7, 79, 0
9, 262284, Note_on_c, 7, 71, 0
9, 262320, Note_on_c, 7, 79, 100
9, 262320, Note_on_c, 7, 71, 100
9, 262404, Note_on_c, 7, 71, 0
9, 262404, Note_on_c, 7, 79, 0
9, 262440, Note_on_c, 7, 79, 100
9, 262524, Note_on_c, 7, 79, 0
9, 262560, Note_on_c, 7, 79, 100
9, 262560, Note_on_c, 7, 71, 100
9, 262644, Note_on_c, 7, 71, 0
9, 262644, Note_on_c, 7, 79, 0
9, 262680, Note_on_c, 7, 79, 100
9, 262680, Note_on_c, 7, 71, 100
9, 262764, Note_on_c, 7, 71, 0
9, 262764, Note_on_c, 7, 79, 0
9, 262800, Note_on_c, 7, 79, 100
9, 262800, Note_on_c, 7, 71, 100
9, 262884, Note_on_c, 7, 71, 0
9, 262884, Note_on_c, 7, 79, 0
9, 262920, Note_on_c, 7, 71, 100
9, 262920, Note_on_c, 7, 79, 100
9, 263004, Note_on_c, 7, 79, 0
9, 263004, Note_on_c, 7, 71, 0
9, 263040, Note_on_c, 7, 79, 100
9, 263040, Note_on_c, 7, 71, 100
9, 263124, Note_on_c, 7, 71, 0
9, 263124, Note_on_c, 7, 79, 0
9, 263160, Note_on_c, 7, 71, 100
9, 263160, Note_on_c, 7, 79, 100
9, 263244, Note_on_c, 7, 79, 0
9, 263244, Note_on_c, 7, 71, 0
9, 263280, Note_on_c, 7, 79, 100
9, 263280, Note_on_c, 7, 71, 100
9, 263364, Note_on_c, 7, 71, 0
9, 263364, Note_on_c, 7, 79, 0
9, 263400, Note_on_c, 7, 71, 100
9, 263400, Note_on_c, 7, 79, 100
9, 263484, Note_on_c, 7, 79, 0
9, 263484, Note_on_c, 7, 71, 0
9, 263520, Note_on_c, 7, 79, 100
9, 263520, Note_on_c, 7, 71, 100
9, 263604, Note_on_c, 7, 71, 0
9, 263604, Note_on_c, 7, 79, 0
9, 263640, Note_on_c, 7, 71, 100
9, 263640, Note_on_c, 7, 79, 100
9, 263724, Note_on_c, 7, 79, 0
9, 263724, Note_on_c, 7, 71, 0
9, 263760, Note_on_c, 7, 79, 100
9, 263760, Note_on_c, 7, 71, 100
9, 263844, Note_on_c, 7, 71, 0
9, 263844, Note_on_c, 7, 79, 0
9, 263880, Note_on_c, 7, 71, 100
9, 263880, Note_on_c, 7, 79, 100
9, 263964, Note_on_c, 7, 79, 0
9, 263964, Note_on_c, 7, 71, 0
9, 264000, Note_on_c, 7, 79, 100
9, 264000, Note_on_c, 7, 74, 100
9, 264084, Note_on_c, 7, 74, 0
9, 264084, Note_on_c, 7, 79, 0
9, 264120, Note_on_c, 7, 74, 100
9, 264120, Note_on_c, 7, 79, 100
9, 264204, Note_on_c, 7, 79, 0
9, 264204, Note_on_c, 7, 74, 0
9, 264240, Note_on_c, 7, 79, 100
9, 264240, Note_on_c, 7, 74, 100
9, 264324, Note_on_c, 7, 74, 0
9, 264324, Note_on_c, 7, 79, 0
9, 264360, Note_on_c, 7, 74, 100
9, 264360, Note_on_c, 7, 79, 100
9, 264444, Note_on_c, 7, 79, 0
9, 264444, Note_on_c, 7, 74, 0
9, 264480, Note_on_c, 7, 79, 100
9, 264480, Note_on_c, 7, 74, 100
9, 264564, Note_on_c, 7, 74, 0
9, 264564, Note_on_c, 7, 79, 0
9, 264600, Note_on_c, 7, 79, 100
9, 264600, Note_on_c, 7, 74, 100
9, 264684, Note_on_c, 7, 74, 0
9, 264684, Note_on_c, 7, 79, 0
9, 264720, Note_on_c, 7, 79, 100
9, 264720, Note_on_c, 7, 74, 100
9, 264804, Note_on_c, 7, 74, 0
9, 264804, Note_on_c, 7, 79, 0
9, 264840, Note_on_c, 7, 74, 100
9, 264840, Note_on_c, 7, 79, 100
9, 264924, Note_on_c, 7, 79, 0
9, 264924, Note_on_c, 7, 74, 0
9, 264960, Note_on_c, 7, 79, 100
9, 264960, Note_on_c, 7, 74, 100
9, 265044, Note_on_c, 7, 74, 0
9, 265044, Note_on_c, 7, 79, 0
9, 265080, Note_on_c, 7, 74, 100
9, 265080, Note_on_c, 7, 79, 100
9, 265164, Note_on_c, 7, 79, 0
9, 265164, Note_on_c, 7, 74, 0
9, 265200, Note_on_c, 7, 79, 100
9, 265200, Note_on_c, 7, 74, 100
9, 265284, Note_on_c, 7, 74, 0
9, 265284, Note_on_c, 7, 79, 0
9, 265320, Note_on_c, 7, 74, 100
9, 265320, Note_on_c, 7, 79, 100
9, 265404, Note_on_c, 7, 79, 0
9, 265404, Note_on_c, 7, 74, 0
9, 265440, Note_on_c, 7, 79, 100
9, 265440, Note_on_c, 7, 74, 100
9, 265524, Note_on_c, 7, 74, 0
9, 265524, Note_on_c, 7, 79, 0
9, 265560, Note_on_c, 7, 74, 100
9, 265560, Note_on_c, 7, 79, 100
9, 265644, Note_on_c, 7, 79, 0
9, 265644, Note_on_c, 7, 74, 0
9, 265680, Note_on_c, 7, 79, 100
9, 265680, Note_on_c, 7, 74, 100
9, 265764, Note_on_c, 7, 74, 0
9, 265764, Note_on_c, 7, 79, 0
9, 265800, Note_on_c, 7, 74, 100
9, 265800, Note_on_c, 7, 79, 100
9, 265884, Note_on_c, 7, 79, 0
9, 265884, Note_on_c, 7, 74, 0
9, 265920, Note_on_c, 7, 79, 100
9, 265920, Note_on_c, 7, 69, 100
9, 266004, Note_on_c, 7, 69, 0
9, 266004, Note_on_c, 7, 79, 0
9, 266040, Note_on_c, 7, 69, 100
9, 266040, Note_on_c, 7, 79, 100
9, 266124, Note_on_c, 7, 79, 0
9, 266124, Note_on_c, 7, 69, 0
9, 266160, Note_on_c, 7, 69, 100
9, 266160, Note_on_c, 7, 79, 100
9, 266244, Note_on_c, 7, 79, 0
9, 266244, Note_on_c, 7, 69, 0
9, 266280, Note_on_c, 7, 69, 100
9, 266280, Note_on_c, 7, 79, 100
9, 266364, Note_on_c, 7, 79, 0
9, 266364, Note_on_c, 7, 69, 0
9, 266400, Note_on_c, 7, 79, 100
9, 266400, Note_on_c, 7, 69, 100
9, 266484, Note_on_c, 7, 69, 0
9, 266484, Note_on_c, 7, 79, 0
9, 266520, Note_on_c, 7, 69, 100
9, 266520, Note_on_c, 7, 79, 100
9, 266604, Note_on_c, 7, 79, 0
9, 266604, Note_on_c, 7, 69, 0
9, 266640, Note_on_c, 7, 79, 100
9, 266640, Note_on_c, 7, 69, 100
9, 266724, Note_on_c, 7, 69, 0
9, 266724, Note_on_c, 7, 79, 0
9, 266760, Note_on_c, 7, 69, 100
9, 266760, Note_on_c, 7, 79, 100
9, 266844, Note_on_c, 7, 79, 0
9, 266844, Note_on_c, 7, 69, 0
9, 266880, Note_on_c, 7, 78, 100
9, 266880, Note_on_c, 7, 69, 100
9, 266964, Note_on_c, 7, 69, 0
9, 266964, Note_on_c, 7, 78, 0
9, 267000, Note_on_c, 7, 69, 100
9, 267000, Note_on_c, 7, 78, 100
9, 267084, Note_on_c, 7, 78, 0
9, 267084, Note_on_c, 7, 69, 0
9, 267120, Note_on_c, 7, 69, 100
9, 267120, Note_on_c, 7, 78, 100
9, 267204, Note_on_c, 7, 78, 0
9, 267204, Note_on_c, 7, 69, 0
9, 267240, Note_on_c, 7, 69, 100
9, 267240, Note_on_c, 7, 78, 100
9, 267324, Note_on_c, 7, 78, 0
9, 267324, Note_on_c, 7, 69, 0
9, 267360, Note_on_c, 7, 72, 100
9, 267444, Note_on_c, 7, 72, 0
9, 267480, Note_on_c, 7, 72, 100
9, 267564, Note_on_c, 7, 72, 0
9, 267600, Note_on_c, 7, 72, 100
9, 267684, Note_on_c, 7, 72, 0
9, 267720, Note_on_c, 7, 72, 100
9, 267804, Note_on_c, 7, 72, 0
9, 267840, Note_on_c, 7, 71, 100
9, 267960, Note_on_c, 7, 71, 0
9, 267960, Note_on_c, 7, 74, 100
9, 268080, Note_on_c, 7, 74, 0
9, 268080, Note_on_c, 7, 74, 100
9, 268200, Note_on_c, 7, 74, 0
9, 268200, Note_on_c, 7, 74, 100
9, 268320, Note_on_c, 7, 74, 0
9, 268320, Note_on_c, 7, 74, 100
9, 268440, Note_on_c, 7, 74, 0
9, 268440, Note_on_c, 7, 74, 100
9, 268560, Note_on_c, 7, 74, 0
9, 268560, Note_on_c, 7, 74, 100
9, 268680, Note_on_c, 7, 74, 0
9, 268680, Note_on_c, 7, 74, 100
9, 268800, Note_on_c, 7, 74, 0
9, 268800, Note_on_c, 7, 74, 100
9, 268920, Note_on_c, 7, 74, 0
9, 268920, Note_on_c, 7, 74, 100
9, 269040, Note_on_c, 7, 74, 0
9, 269040, Note_on_c, 7, 74, 100
9, 269160, Note_on_c, 7, 74, 0
9, 269160, Note_on_c, 7, 74, 100
9, 269280, Note_on_c, 7, 74, 0
9, 269280, Note_on_c, 7, 74, 100
9, 269400, Note_on_c, 7, 74, 0
9, 269400, Note_on_c, 7, 74, 100
9, 269520, Note_on_c, 7, 74, 0
9, 269520, Note_on_c, 7, 74, 100
9, 269640, Note_on_c, 7, 74, 0
9, 269640, Note_on_c, 7, 74, 100
9, 269760, Note_on_c, 7, 74, 0
9, 269760, Note_on_c, 7, 74, 100
9, 269880, Note_on_c, 7, 74, 0
9, 269880, Note_on_c, 7, 79, 100
9, 270000, Note_on_c, 7, 79, 0
9, 270000, Note_on_c, 7, 79, 100
9, 270120, Note_on_c, 7, 79, 0
9, 270120, Note_on_c, 7, 79, 100
9, 270240, Note_on_c, 7, 79, 0
9, 270240, Note_on_c, 7, 79, 100
9, 270360, Note_on_c, 7, 79, 0
9, 270360, Note_on_c, 7, 79, 100
9, 270480, Note_on_c, 7, 79, 0
9, 270480, Note_on_c, 7, 79, 100
9, 270600, Note_on_c, 7, 79, 0
9, 270600, Note_on_c, 7, 79, 100
9, 270720, Note_on_c, 7, 79, 0
9, 270720, Note_on_c, 7, 79, 100
9, 270840, Note_on_c, 7, 79, 0
9, 270840, Note_on_c, 7, 79, 100
9, 270960, Note_on_c, 7, 79, 0
9, 270960, Note_on_c, 7, 79, 100
9, 271080, Note_on_c, 7, 79, 0
9, 271080, Note_on_c, 7, 79, 100
9, 271200, Note_on_c, 7, 79, 0
9, 271200, Note_on_c, 7, 79, 100
9, 271320, Note_on_c, 7, 79, 0
9, 271320, Note_on_c, 7, 79, 100
9, 271440, Note_on_c, 7, 79, 0
9, 271440, Note_on_c, 7, 79, 100
9, 271560, Note_on_c, 7, 79, 0
9, 271560, Note_on_c, 7, 79, 100
9, 271680, Note_on_c, 7, 79, 0
9, 271680, Note_on_c, 7, 79, 100
9, 271800, Note_on_c, 7, 79, 0
9, 271800, Note_on_c, 7, 79, 100
9, 271920, Note_on_c, 7, 79, 0
9, 271920, Note_on_c, 7, 79, 100
9, 272040, Note_on_c, 7, 79, 0
9, 272040, Note_on_c, 7, 79, 100
9, 272160, Note_on_c, 7, 79, 0
9, 272160, Note_on_c, 7, 79, 100
9, 272280, Note_on_c, 7, 79, 0
9, 272280, Note_on_c, 7, 79, 100
9, 272400, Note_on_c, 7, 79, 0
9, 272400, Note_on_c, 7, 79, 100
9, 272520, Note_on_c, 7, 79, 0
9, 272520, Note_on_c, 7, 79, 100
9, 272640, Note_on_c, 7, 79, 0
9, 272640, Note_on_c, 7, 79, 100
9, 272760, Note_on_c, 7, 79, 0
9, 272760, Note_on_c, 7, 79, 100
9, 272880, Note_on_c, 7, 79, 0
9, 272880, Note_on_c, 7, 79, 100
9, 273000, Note_on_c, 7, 79, 0
9, 273000, Note_on_c, 7, 79, 100
9, 273120, Note_on_c, 7, 79, 0
9, 273120, Note_on_c, 7, 79, 100
9, 273240, Note_on_c, 7, 79, 0
9, 273240, Note_on_c, 7, 79, 100
9, 273360, Note_on_c, 7, 79, 0
9, 273360, Note_on_c, 7, 79, 100
9, 273480, Note_on_c, 7, 79, 0
9, 273480, Note_on_c, 7, 79, 100
9, 273600, Note_on_c, 7, 79, 0
9, 273600, Note_on_c, 7, 79, 100
9, 273720, Note_on_c, 7, 79, 0
9, 273720, Note_on_c, 7, 79, 100
9, 273840, Note_on_c, 7, 79, 0
9, 273840, Note_on_c, 7, 79, 100
9, 273960, Note_on_c, 7, 79, 0
9, 273960, Note_on_c, 7, 79, 100
9, 274080, Note_on_c, 7, 79, 0
9, 274080, Note_on_c, 7, 79, 100
9, 274200, Note_on_c, 7, 79, 0
9, 274200, Note_on_c, 7, 79, 100
9, 274320, Note_on_c, 7, 79, 0
9, 274320, Note_on_c, 7, 79, 100
9, 274440, Note_on_c, 7, 79, 0
9, 274440, Note_on_c, 7, 79, 100
9, 274560, Note_on_c, 7, 79, 0
9, 274560, Note_on_c, 7, 79, 100
9, 274680, Note_on_c, 7, 79, 0
9, 274680, Note_on_c, 7, 79, 100
9, 274800, Note_on_c, 7, 79, 0
9, 274800, Note_on_c, 7, 79, 100
9, 274920, Note_on_c, 7, 79, 0
9, 274920, Note_on_c, 7, 79, 100
9, 275040, Note_on_c, 7, 79, 0
9, 275040, Note_on_c, 7, 79, 100
9, 275160, Note_on_c, 7, 79, 0
9, 275160, Note_on_c, 7, 79, 100
9, 275280, Note_on_c, 7, 79, 0
9, 275280, Note_on_c, 7, 79, 100
9, 275400, Note_on_c, 7, 79, 0
9, 275400, Note_on_c, 7, 79, 100
9, 275520, Note_on_c, 7, 79, 0
9, 275520, Note_on_c, 7, 79, 100
9, 275604, Note_on_c, 7, 79, 0
9, 275640, Note_on_c, 7, 79, 100
9, 275724, Note_on_c, 7, 79, 0
9, 275760, Note_on_c, 7, 79, 100
9, 275844, Note_on_c, 7, 79, 0
9, 275880, Note_on_c, 7, 79, 100
9, 275964, Note_on_c, 7, 79, 0
9, 276000, Note_on_c, 7, 79, 100
9, 276084, Note_on_c, 7, 79, 0
9, 276120, Note_on_c, 7, 79, 100
9, 276204, Note_on_c, 7, 79, 0
9, 276240, Note_on_c, 7, 79, 100
9, 276324, Note_on_c, 7, 79, 0
9, 276360, Note_on_c, 7, 79, 100
9, 276444, Note_on_c, 7, 79, 0
9, 276480, Note_on_c, 7, 79, 100
9, 276564, Note_on_c, 7, 79, 0
9, 276600, Note_on_c, 7, 79, 100
9, 276684, Note_on_c, 7, 79, 0
9, 276720, Note_on_c, 7, 79, 100
9, 276804, Note_on_c, 7, 79, 0
9, 276840, Note_on_c, 7, 79, 100
9, 276924, Note_on_c, 7, 79, 0
9, 276960, Note_on_c, 7, 81, 100
9, 277044, Note_on_c, 7, 81, 0
9, 277080, Note_on_c, 7, 81, 100
9, 277164, Note_on_c, 7, 81, 0
9, 277200, Note_on_c, 7, 81, 100
9, 277284, Note_on_c, 7, 81, 0
9, 277320, Note_on_c, 7, 81, 100
9, 277404, Note_on_c, 7, 81, 0
9, 277440, Note_on_c, 7, 81, 100
9, 277524, Note_on_c, 7, 81, 0
9, 277560, Note_on_c, 7, 81, 100
9, 277644, Note_on_c, 7, 81, 0
9, 277680, Note_on_c, 7, 81, 100
9, 277764, Note_on_c, 7, 81, 0
9, 277800, Note_on_c, 7, 81, 100
9, 277884, Note_on_c, 7, 81, 0
9, 277920, Note_on_c, 7, 79, 100
9, 278004, Note_on_c, 7, 79, 0
9, 278040, Note_on_c, 7, 79, 100
9, 278124, Note_on_c, 7, 79, 0
9, 278160, Note_on_c, 7, 79, 100
9, 278244, Note_on_c, 7, 79, 0
9, 278280, Note_on_c, 7, 79, 100
9, 278364, Note_on_c, 7, 79, 0
9, 278400, Note_on_c, 7, 79, 100
9, 278484, Note_on_c, 7, 79, 0
9, 278520, Note_on_c, 7, 79, 100
9, 278604, Note_on_c, 7, 79, 0
9, 278640, Note_on_c, 7, 79, 100
9, 278724, Note_on_c, 7, 79, 0
9, 278760, Note_on_c, 7, 79, 100
9, 278844, Note_on_c, 7, 79, 0
9, 278880, Note_on_c, 7, 78, 100
9, 278964, Note_on_c, 7, 78, 0
9, 279000, Note_on_c, 7, 78, 100
9, 279084, Note_on_c, 7, 78, 0
9, 279120, Note_on_c, 7, 78, 100
9, 279204, Note_on_c, 7, 78, 0
9, 279240, Note_on_c, 7, 78, 100
9, 279324, Note_on_c, 7, 78, 0
9, 279360, Note_on_c, 7, 79, 100
9, 279840, Note_on_c, 7, 79, 0
9, 280800, Note_on_c, 7, 69, 100
9, 281025, Note_on_c, 7, 69, 0
9, 281160, Note_on_c, 7, 69, 100
9, 281280, Note_on_c, 7, 69, 0
9, 295200, Note_on_c, 7, 71, 50
9, 295440, Note_on_c, 7, 71, 0
9, 295680, Note_on_c, 7, 74, 50
9, 295920, Note_on_c, 7, 74, 0
9, 296160, Note_on_c, 7, 79, 50
9, 296400, Note_on_c, 7, 79, 0
9, 296640, Note_on_c, 7, 81, 50
9, 297360, Note_on_c, 7, 81, 0
9, 297360, Note_on_c, 7, 72, 50
9, 297600, Note_on_c, 7, 72, 0
9, 297600, Note_on_c, 7, 71, 50
9, 297840, Note_on_c, 7, 71, 0
9, 298080, Note_on_c, 7, 59, 50
9, 298320, Note_on_c, 7, 59, 0
9, 298560, Note_on_c, 7, 62, 50
9, 298800, Note_on_c, 7, 62, 0
9, 299040, Note_on_c, 7, 67, 50
9, 299280, Note_on_c, 7, 67, 0
9, 299520, Note_on_c, 7, 69, 50
9, 300240, Note_on_c, 7, 69, 0
9, 300240, Note_on_c, 7, 60, 50
9, 300480, Note_on_c, 7, 60, 0
9, 300480, Note_on_c, 7, 59, 50
9, 300960, Note_on_c, 7, 59, 0
9, 301440, Note_on_c, 7, 59, 50
9, 302400, Note_on_c, 7, 59, 0
9, 302400, Note_on_c, 7, 60, 50
9, 303360, Note_on_c, 7, 60, 0
9, 303360, Note_on_c, 7, 63, 50
9, 304320, Note_on_c, 7, 63, 0
9, 304320, Note_on_c, 7, 62, 50
9, 305280, Note_on_c, 7, 62, 0
9, 305280, Note_on_c, 7, 60, 50
9, 306240, Note_on_c, 7, 60, 0
9, 306240, Note_on_c, 7, 57, 50
9, 306720, Note_on_c, 7, 57, 0
9, 306720, Note_on_c, 7, 60, 50
9, 307200, Note_on_c, 7, 60, 0
9, 307200, Note_on_c, 7, 59, 50
9, 307680, Note_on_c, 7, 59, 0
9, 309120, Note_on_c, 7, 71, 50
9, 310080, Note_on_c, 7, 71, 0
9, 310080, Note_on_c, 7, 72, 50
9, 311040, Note_on_c, 7, 72, 0
9, 311040, Note_on_c, 7, 75, 50
9, 312000, Note_on_c, 7, 75, 0
9, 312000, Note_on_c, 7, 76, 50
9, 312480, Note_on_c, 7, 76, 0
9, 312480, Note_on_c, 7, 64, 50
9, 313440, Note_on_c, 7, 64, 0
9, 313440, Note_on_c, 7, 62, 50
9, 313680, Note_on_c, 7, 62, 0
9, 313680, Note_on_c, 7, 60, 50
9, 313872, Note_on_c, 7, 60, 0
9, 313920, Note_on_c, 7, 60, 50
9, 314400, Note_on_c, 7, 60, 0
9, 314400, Note_on_c, 7, 59, 50
9, 314640, Note_on_c, 7, 59, 0
9, 314640, Note_on_c, 7, 57, 50
9, 314880, Note_on_c, 7, 57, 0
9, 314880, Note_on_c, 7, 56, 50
9, 315360, Note_on_c, 7, 56, 0
9, 316800, Note_on_c, 7, 81, 127
9, 317025, Note_on_c, 7, 81, 0
9, 317160, Note_on_c, 7, 81, 127
9, 317280, Note_on_c, 7, 81, 0
9, 317280, Note_on_c, 7, 81, 127
9, 318000, Note_on_c, 7, 81, 0
9, 318000, Note_on_c, 7, 79, 127
9, 318084, Note_on_c, 7, 79, 0
9, 318120, Note_on_c, 7, 77, 127
9, 318204, Note_on_c, 7, 77, 0
9, 318240, Note_on_c, 7, 76, 127
9, 318324, Note_on_c, 7, 76, 0
9, 318360, Note_on_c, 7, 73, 127
9, 318444, Note_on_c, 7, 73, 0
9, 318480, Note_on_c, 7, 74, 127
9, 318564, Note_on_c, 7, 74, 0
9, 318600, Note_on_c, 7, 76, 127
9, 318684, Note_on_c, 7, 76, 0
9, 318720, Note_on_c, 7, 77, 127
9, 319200, Note_on_c, 7, 77, 0
9, 320160, Note_on_c, 7, 86, 127
9, 320385, Note_on_c, 7, 86, 0
9, 320520, Note_on_c, 7, 86, 127
9, 320640, Note_on_c, 7, 86, 0
9, 320640, Note_on_c, 7, 86, 127
9, 321360, Note_on_c, 7, 86, 0
9, 321360, Note_on_c, 7, 84, 127
9, 321444, Note_on_c, 7, 84, 0
9, 321480, Note_on_c, 7, 83, 127
9, 321564, Note_on_c, 7, 83, 0
9, 321600, Note_on_c, 7, 81, 127
9, 321684, Note_on_c, 7, 81, 0
9, 321720, Note_on_c, 7, 78, 127
9, 321804, Note_on_c, 7, 78, 0
9, 321840, Note_on_c, 7, 79, 127
9, 321924, Note_on_c, 7, 79, 0
9, 321960, Note_on_c, 7, 81, 127
9, 322044, Note_on_c, 7, 81, 0
9, 322080, Note_on_c, 7, 83, 127
9, 322560, Note_on_c, 7, 83, 0
9, 323520, Note_on_c, 7, 79, 127
9, 323745, Note_on_c, 7, 79, 0
9, 323880, Note_on_c, 7, 79, 127
9, 324000, Note_on_c, 7, 79, 0
9, 324000, Note_on_c, 7, 79, 127
9, 324720, Note_on_c, 7, 79, 0
9, 324720, Note_on_c, 7, 77, 127
9, 324804, Note_on_c, 7, 77, 0
9, 324840, Note_on_c, 7, 76, 127
9, 324924, Note_on_c, 7, 76, 0
9, 324960, Note_on_c, 7, 74, 127
9, 325044, Note_on_c, 7, 74, 0
9, 325080, Note_on_c, 7, 71, 127
9, 325164, Note_on_c, 7, 71, 0
9, 325200, Note_on_c, 7, 72, 127
9, 325284, Note_on_c, 7, 72, 0
9, 325320, Note_on_c, 7, 74, 127
9, 325404, Note_on_c, 7, 74, 0
9, 325440, Note_on_c, 7, 76, 127
9, 325920, Note_on_c, 7, 76, 0
9, 326880, Note_on_c, 7, 84, 127
9, 327105, Note_on_c, 7, 84, 0
9, 327240, Note_on_c, 7, 84, 127
9, 327360, Note_on_c, 7, 84, 0
9, 327360, Note_on_c, 7, 84, 127
9, 328080, Note_on_c, 7, 84, 0
9, 328080, Note_on_c, 7, 82, 127
9, 328164, Note_on_c, 7, 82, 0
9, 328200, Note_on_c, 7, 81, 127
9, 328284, Note_on_c, 7, 81, 0
9, 328320, Note_on_c, 7, 79, 127
9, 328404, Note_on_c, 7, 79, 0
9, 328440, Note_on_c, 7, 76, 127
9, 328524, Note_on_c, 7, 76, 0
9, 328560, Note_on_c, 7, 77, 127
9, 328644, Note_on_c, 7, 77, 0
9, 328680, Note_on_c, 7, 79, 127
9, 328764, Note_on_c, 7, 79, 0
9, 328800, Note_on_c, 7, 81, 127
9, 329280, Note_on_c, 7, 81, 0
9, 329760, Note_on_c, 7, 69, 127
9, 329985, Note_on_c, 7, 69, 0
9, 330120, Note_on_c, 7, 69, 127
9, 330240, Note_on_c, 7, 69, 0
9, 330240, Note_on_c, 7, 69, 127
9, 330804, Note_on_c, 7, 69, 0
9, 330840, Note_on_c, 7, 70, 127
9, 330924, Note_on_c, 7, 70, 0
9, 330960, Note_on_c, 7, 69, 127
9, 331044, Note_on_c, 7, 69, 0
9, 331080, Note_on_c, 7, 67, 127
9, 331164, Note_on_c, 7, 67, 0
9, 331200, Note_on_c, 7, 65, 127
9, 331284, Note_on_c, 7, 65, 0
9, 331320, Note_on_c, 7, 64, 127
9, 331404, Note_on_c, 7, 64, 0
9, 331440, Note_on_c, 7, 65, 127
9, 331524, Note_on_c, 7, 65, 0
9, 331560, Note_on_c, 7, 67, 127
9, 331644, Note_on_c, 7, 67, 0
9, 331680, Note_on_c, 7, 69, 127
9, 332160, Note_on_c, 7, 69, 0
9, 333600, Note_on_c, 7, 63, 100
9, 333825, Note_on_c, 7, 63, 0
9, 333960, Note_on_c, 7, 63, 100
9, 334080, Note_on_c, 7, 63, 0
9, 334080, Note_on_c, 7, 63, 100
9, 334800, Note_on_c, 7, 63, 0
9, 334800, Note_on_c, 7, 65, 100
9, 334884, Note_on_c, 7, 65, 0
9, 334920, Note_on_c, 7, 62, 100
9, 335004, Note_on_c, 7, 62, 0
9, 335040, Note_on_c, 7, 63, 100
9, 335280, Note_on_c, 7, 63, 0
9, 335280, Note_on_c, 7, 60, 100
9, 335520, Note_on_c, 7, 60, 0
9, 335520, Note_on_c, 7, 67, 100
9, 336084, Note_on_c, 7, 67, 0
9, 336120, Note_on_c, 7, 68, 100
9, 336204, Note_on_c, 7, 68, 0
9, 336240, Note_on_c, 7, 67, 100
9, 336324, Note_on_c, 7, 67, 0
9, 336360, Note_on_c, 7, 65, 100
9, 336444, Note_on_c, 7, 65, 0
9, 336480, Note_on_c, 7, 63, 100
9, 336960, Note_on_c, 7, 63, 0
9, 339360, Note_on_c, 7, 70, 83
9, 339585, Note_on_c, 7, 70, 0
9, 339600, Note_on_c, 7, 70, 83
9, 339720, Note_on_c, 7, 70, 0
9, 339840, Note_on_c, 7, 70, 83
9, 340404, Note_on_c, 7, 70, 0
9, 340440, Note_on_c, 7, 72, 83
9, 340524, Note_on_c, 7, 72, 0
9, 340560, Note_on_c, 7, 71, 83
9, 340644, Note_on_c, 7, 71, 0
9, 340680, Note_on_c, 7, 69, 83
9, 340764, Note_on_c, 7, 69, 0
9, 340800, Note_on_c, 7, 67, 83
9, 340884, Note_on_c, 7, 67, 0
9, 340920, Note_on_c, 7, 66, 83
9, 341004, Note_on_c, 7, 66, 0
9, 341040, Note_on_c, 7, 67, 83
9, 341124, Note_on_c, 7, 67, 0
9, 341160, Note_on_c, 7, 69, 83
9, 341244, Note_on_c, 7, 69, 0
9, 341280, Note_on_c, 7, 70, 83
9, 341760, Note_on_c, 7, 70, 0
9, 343200, Note_on_c, 7, 65, 83
9, 343425, Note_on_c, 7, 65, 0
9, 343560, Note_on_c, 7, 65, 83
9, 343680, Note_on_c, 7, 65, 0
9, 343680, Note_on_c, 7, 65, 83
9, 344400, Note_on_c, 7, 65, 0
9, 344400, Note_on_c, 7, 67, 83
9, 344484, Note_on_c, 7, 67, 0
9, 344520, Note_on_c, 7, 64, 83
9, 344604, Note_on_c, 7, 64, 0
9, 344640, Note_on_c, 7, 65, 83
9, 344760, Note_on_c, 7, 65, 0
9, 344880, Note_on_c, 7, 62, 83
9, 345000, Note_on_c, 7, 62, 0
9, 345120, Note_on_c, 7, 69, 83
9, 345684, Note_on_c, 7, 69, 0
9, 345720, Note_on_c, 7, 70, 83
9, 345804, Note_on_c, 7, 70, 0
9, 345840, Note_on_c, 7, 69, 83
9, 345924, Note_on_c, 7, 69, 0
9, 345960, Note_on_c, 7, 67, 83
9, 346044, Note_on_c, 7, 67, 0
9, 346080, Note_on_c, 7, 65, 83
9, 346560, Note_on_c, 7, 65, 0
9, 348960, Note_on_c, 7, 59, 51
9, 349185, Note_on_c, 7, 59, 0
9, 349320, Note_on_c, 7, 59, 51
9, 349440, Note_on_c, 7, 59, 0
9, 349440, Note_on_c, 7, 59, 51
9, 350160, Note_on_c, 7, 59, 0
9, 350160, Note_on_c, 7, 60, 51
9, 350244, Note_on_c, 7, 60, 0
9, 350280, Note_on_c, 7, 62, 51
9, 350364, Note_on_c, 7, 62, 0
9, 350400, Note_on_c, 7, 64, 51
9, 350484, Note_on_c, 7, 64, 0
9, 350520, Note_on_c, 7, 63, 51
9, 350604, Note_on_c, 7, 63, 0
9, 350640, Note_on_c, 7, 64, 51
9, 350724, Note_on_c, 7, 64, 0
9, 350760, Note_on_c, 7, 66, 51
9, 350844, Note_on_c, 7, 66, 0
9, 350880, Note_on_c, 7, 67, 51
9, 350964, Note_on_c, 7, 67, 0
9, 351000, Note_on_c, 7, 66, 51
9, 351084, Note_on_c, 7, 66, 0
9, 351120, Note_on_c, 7, 67, 51
9, 351204, Note_on_c, 7, 67, 0
9, 351240, Note_on_c, 7, 69, 51
9, 351324, Note_on_c, 7, 69, 0
9, 351360, Note_on_c, 7, 71, 127
9, 351480, Note_on_c, 7, 71, 0
9, 351480, Note_on_c, 7, 66, 127
9, 351600, Note_on_c, 7, 66, 0
9, 351600, Note_on_c, 7, 66, 127
9, 351720, Note_on_c, 7, 66, 0
9, 351720, Note_on_c, 7, 66, 127
9, 351840, Note_on_c, 7, 66, 0
9, 351840, Note_on_c, 7, 66, 127
9, 351960, Note_on_c, 7, 66, 0
9, 351960, Note_on_c, 7, 66, 127
9, 352080, Note_on_c, 7, 66, 0
9, 352080, Note_on_c, 7, 66, 127
9, 352200, Note_on_c, 7, 66, 0
9, 352200, Note_on_c, 7, 66, 127
9, 352320, Note_on_c, 7, 66, 0
9, 352320, Note_on_c, 7, 67, 127
9, 352440, Note_on_c, 7, 67, 0
9, 352440, Note_on_c, 7, 67, 127
9, 352560, Note_on_c, 7, 67, 0
9, 352560, Note_on_c, 7, 67, 127
9, 352680, Note_on_c, 7, 67, 0
9, 352680, Note_on_c, 7, 67, 127
9, 352800, Note_on_c, 7, 67, 0
9, 352800, Note_on_c, 7, 67, 127
9, 352920, Note_on_c, 7, 67, 0
9, 352920, Note_on_c, 7, 67, 127
9, 353040, Note_on_c, 7, 67, 0
9, 353040, Note_on_c, 7, 67, 127
9, 353160, Note_on_c, 7, 67, 0
9, 353160, Note_on_c, 7, 67, 127
9, 353280, Note_on_c, 7, 67, 0
9, 353280, Note_on_c, 7, 70, 127
9, 353400, Note_on_c, 7, 70, 0
9, 353400, Note_on_c, 7, 70, 127
9, 353520, Note_on_c, 7, 70, 0
9, 353520, Note_on_c, 7, 70, 127
9, 353640, Note_on_c, 7, 70, 0
9, 353640, Note_on_c, 7, 70, 127
9, 353760, Note_on_c, 7, 70, 0
9, 353760, Note_on_c, 7, 70, 127
9, 353880, Note_on_c, 7, 70, 0
9, 353880, Note_on_c, 7, 70, 127
9, 354000, Note_on_c, 7, 70, 0
9, 354000, Note_on_c, 7, 70, 127
9, 354120, Note_on_c, 7, 70, 0
9, 354120, Note_on_c, 7, 70, 127
9, 354240, Note_on_c, 7, 70, 0
9, 354240, Note_on_c, 7, 71, 127
9, 354480, Note_on_c, 7, 71, 0
9, 354720, Note_on_c, 7, 59, 127
9, 354720, Note_on_c, 7, 66, 127
9, 354960, Note_on_c, 7, 66, 0
9, 354960, Note_on_c, 7, 59, 0
9, 355200, Note_on_c, 7, 67, 127
9, 355200, Note_on_c, 7, 59, 127
9, 355440, Note_on_c, 7, 59, 0
9, 355440, Note_on_c, 7, 67, 0
9, 355680, Note_on_c, 7, 71, 127
9, 355920, Note_on_c, 7, 71, 0
9, 356160, Note_on_c, 7, 71, 127
9, 356400, Note_on_c, 7, 71, 0
9, 356640, Note_on_c, 7, 76, 127
9, 356640, Note_on_c, 7, 66, 127
9, 356880, Note_on_c, 7, 66, 0
9, 356880, Note_on_c, 7, 76, 0
9, 357120, Note_on_c, 7, 66, 127
9, 357120, Note_on_c, 7, 75, 127
9, 357360, Note_on_c, 7, 75, 0
9, 357360, Note_on_c, 7, 66, 0
9, 363840, Note_on_c, 7, 60, 50
9, 364800, Note_on_c, 7, 60, 0
9, 364800, Note_on_c, 7, 59, 50
9, 365280, Note_on_c, 7, 59, 0
9, 365280, Note_on_c, 7, 65, 50
9, 365760, Note_on_c, 7, 65, 0
9, 365760, Note_on_c, 7, 64, 50
9, 365880, Note_on_c, 7, 64, 0
9, 365880, Note_on_c, 7, 67, 50
9, 366000, Note_on_c, 7, 67, 0
9, 366000, Note_on_c, 7, 64, 50
9, 366120, Note_on_c, 7, 64, 0
9, 366120, Note_on_c, 7, 67, 50
9, 366240, Note_on_c, 7, 67, 0
9, 366240, Note_on_c, 7, 64, 50
9, 366360, Note_on_c, 7, 64, 0
9, 366360, Note_on_c, 7, 67, 50
9, 366480, Note_on_c, 7, 67, 0
9, 366480, Note_on_c, 7, 64, 50
9, 366600, Note_on_c, 7, 64, 0
9, 366600, Note_on_c, 7, 67, 50
9, 366720, Note_on_c, 7, 67, 0
9, 366720, Note_on_c, 7, 65, 50
9, 366840, Note_on_c, 7, 65, 0
9, 366840, Note_on_c, 7, 69, 50
9, 366960, Note_on_c, 7, 69, 0
9, 366960, Note_on_c, 7, 65, 50
9, 367080, Note_on_c, 7, 65, 0
9, 367080, Note_on_c, 7, 69, 50
9, 367200, Note_on_c, 7, 69, 0
9, 367200, Note_on_c, 7, 65, 50
9, 367320, Note_on_c, 7, 65, 0
9, 367320, Note_on_c, 7, 69, 50
9, 367440, Note_on_c, 7, 69, 0
9, 367440, Note_on_c, 7, 65, 50
9, 367560, Note_on_c, 7, 65, 0
9, 367560, Note_on_c, 7, 69, 50
9, 367680, Note_on_c, 7, 69, 0
9, 367680, Note_on_c, 7, 62, 50
9, 367800, Note_on_c, 7, 62, 0
9, 367800, Note_on_c, 7, 71, 50
9, 367920, Note_on_c, 7, 71, 0
9, 367920, Note_on_c, 7, 62, 50
9, 368040, Note_on_c, 7, 62, 0
9, 368040, Note_on_c, 7, 71, 50
9, 368160, Note_on_c, 7, 71, 0
9, 368160, Note_on_c, 7, 62, 50
9, 368280, Note_on_c, 7, 62, 0
9, 368280, Note_on_c, 7, 71, 50
9, 368400, Note_on_c, 7, 71, 0
9, 368400, Note_on_c, 7, 62, 50
9, 368520, Note_on_c, 7, 62, 0
9, 368520, Note_on_c, 7, 71, 50
9, 368640, Note_on_c, 7, 71, 0
9, 368640, Note_on_c, 7, 60, 50
9, 368760, Note_on_c, 7, 60, 0
9, 368760, Note_on_c, 7, 64, 50
9, 368880, Note_on_c, 7, 64, 0
9, 368880, Note_on_c, 7, 60, 50
9, 369000, Note_on_c, 7, 60, 0
9, 369000, Note_on_c, 7, 64, 50
9, 369120, Note_on_c, 7, 64, 0
9, 369120, Note_on_c, 7, 60, 50
9, 369240, Note_on_c, 7, 60, 0
9, 369240, Note_on_c, 7, 64, 50
9, 369360, Note_on_c, 7, 64, 0
9, 369360, Note_on_c, 7, 60, 50
9, 369480, Note_on_c, 7, 60, 0
9, 369480, Note_on_c, 7, 64, 50
9, 369600, Note_on_c, 7, 64, 0
9, 369600, Note_on_c, 7, 60, 50
9, 369720, Note_on_c, 7, 60, 0
9, 369720, Note_on_c, 7, 69, 50
9, 369840, Note_on_c, 7, 69, 0
9, 369840, Note_on_c, 7, 60, 50
9, 369960, Note_on_c, 7, 60, 0
9, 369960, Note_on_c, 7, 69, 50
9, 370080, Note_on_c, 7, 69, 0
9, 370080, Note_on_c, 7, 60, 50
9, 370200, Note_on_c, 7, 60, 0
9, 370200, Note_on_c, 7, 69, 50
9, 370320, Note_on_c, 7, 69, 0
9, 370320, Note_on_c, 7, 60, 50
9, 370440, Note_on_c, 7, 60, 0
9, 370440, Note_on_c, 7, 69, 50
9, 370560, Note_on_c, 7, 69, 0
9, 370560, Note_on_c, 7, 60, 50
9, 370680, Note_on_c, 7, 60, 0
9, 370680, Note_on_c, 7, 67, 50
9, 370800, Note_on_c, 7, 67, 0
9, 370800, Note_on_c, 7, 60, 50
9, 370920, Note_on_c, 7, 60, 0
9, 370920, Note_on_c, 7, 67, 50
9, 371040, Note_on_c, 7, 67, 0
9, 371040, Note_on_c, 7, 60, 50
9, 371160, Note_on_c, 7, 60, 0
9, 371160, Note_on_c, 7, 67, 50
9, 371280, Note_on_c, 7, 67, 0
9, 371280, Note_on_c, 7, 60, 50
9, 371400, Note_on_c, 7, 60, 0
9, 371400, Note_on_c, 7, 67, 50
9, 371520, Note_on_c, 7, 67, 0
9, 371520, Note_on_c, 7, 59, 50
9, 371640, Note_on_c, 7, 59, 0
9, 371640, Note_on_c, 7, 67, 50
9, 371760, Note_on_c, 7, 67, 0
9, 371760, Note_on_c, 7, 59, 50
9, 371880, Note_on_c, 7, 59, 0
9, 371880, Note_on_c, 7, 67, 50
9, 372000, Note_on_c, 7, 67, 0
9, 372000, Note_on_c, 7, 60, 50
9, 372120, Note_on_c, 7, 60, 0
9, 372120, Note_on_c, 7, 67, 50
9, 372240, Note_on_c, 7, 67, 0
9, 372240, Note_on_c, 7, 60, 50
9, 372360, Note_on_c, 7, 60, 0
9, 372360, Note_on_c, 7, 67, 50
9, 372480, Note_on_c, 7, 67, 0
9, 372480, Note_on_c, 7, 59, 50
9, 372960, Note_on_c, 7, 59, 0
9, 373440, Note_on_c, 7, 60, 127
9, 374400, Note_on_c, 7, 60, 0
9, 374400, Note_on_c, 7, 62, 127
9, 375360, Note_on_c, 7, 62, 0
9, 375360, Note_on_c, 7, 65, 127
9, 376320, Note_on_c, 7, 65, 0
9, 376320, Note_on_c, 7, 64, 127
9, 377280, Note_on_c, 7, 64, 0
9, 377280, Note_on_c, 7, 62, 127
9, 378240, Note_on_c, 7, 62, 0
9, 378240, Note_on_c, 7, 64, 127
9, 379200, Note_on_c, 7, 64, 0
9, 379200, Note_on_c, 7, 67, 127
9, 380160, Note_on_c, 7, 67, 0
9, 380160, Note_on_c, 7, 66, 127
9, 381120, Note_on_c, 7, 66, 0
9, 381120, Note_on_c, 7, 64, 127
9, 381600, Note_on_c, 7, 64, 0
9, 383040, Note_on_c, 7, 69, 127
9, 384000, Note_on_c, 7, 69, 0
9, 384000, Note_on_c, 7, 71, 127
9, 384960, Note_on_c, 7, 71, 0
9, 385920, Note_on_c, 7, 73, 127
9, 386880, Note_on_c, 7, 73, 0
9, 386880, Note_on_c, 7, 67, 127
9, 387840, Note_on_c, 7, 67, 0
9, 387840, Note_on_c, 7, 69, 127
9, 388800, Note_on_c, 7, 69, 0
9, 389760, Note_on_c, 7, 71, 127
9, 390720, Note_on_c, 7, 71, 0
9, 390720, Note_on_c, 7, 65, 127
9, 391680, Note_on_c, 7, 65, 0
9, 391680, Note_on_c, 7, 67, 127
9, 392640, Note_on_c, 7, 67, 0
9, 392640, Note_on_c, 7, 72, 127
9, 393600, Note_on_c, 7, 72, 0
9, 393600, Note_on_c, 7, 81, 127
9, 393600, Note_on_c, 7, 72, 127
9, 393684, Note_on_c, 7, 72, 0
9, 393684, Note_on_c, 7, 81, 0
9, 393720, Note_on_c, 7, 72, 127
9, 393720, Note_on_c, 7, 81, 127
9, 393804, Note_on_c, 7, 81, 0
9, 393804, Note_on_c, 7, 72, 0
9, 393840, Note_on_c, 7, 81, 127
9, 393840, Note_on_c, 7, 72, 127
9, 393924, Note_on_c, 7, 72, 0
9, 393924, Note_on_c, 7, 81, 0
9, 393960, Note_on_c, 7, 81, 127
9, 393960, Note_on_c, 7, 72, 127
9, 394044, Note_on_c, 7, 72, 0
9, 394044, Note_on_c, 7, 81, 0
9, 394080, Note_on_c, 7, 81, 127
9, 394080, Note_on_c, 7, 72, 127
9, 394164, Note_on_c, 7, 72, 0
9, 394164, Note_on_c, 7, 81, 0
9, 394200, Note_on_c, 7, 81, 127
9, 394200, Note_on_c, 7, 72, 127
9, 394284, Note_on_c, 7, 72, 0
9, 394284, Note_on_c, 7, 81, 0
9, 394320, Note_on_c, 7, 72, 127
9, 394320, Note_on_c, 7, 81, 127
9, 394404, Note_on_c, 7, 81, 0
9, 394404, Note_on_c, 7, 72, 0
9, 394440, Note_on_c, 7, 81, 127
9, 394440, Note_on_c, 7, 72, 127
9, 394524, Note_on_c, 7, 72, 0
9, 394524, Note_on_c, 7, 81, 0
9, 394560, Note_on_c, 7, 71, 127
9, 394560, Note_on_c, 7, 81, 127
9, 394644, Note_on_c, 7, 81, 0
9, 394644, Note_on_c, 7, 71, 0
9, 394680, Note_on_c, 7, 71, 127
9, 394680, Note_on_c, 7, 81, 127
9, 394764, Note_on_c, 7, 81, 0
9, 394764, Note_on_c, 7, 71, 0
9, 394800, Note_on_c, 7, 71, 127
9, 394800, Note_on_c, 7, 81, 127
9, 394884, Note_on_c, 7, 81, 0
9, 394884, Note_on_c, 7, 71, 0
9, 394920, Note_on_c, 7, 71, 127
9, 394920, Note_on_c, 7, 81, 127
9, 395004, Note_on_c, 7, 81, 0
9, 395004, Note_on_c, 7, 71, 0
9, 395040, Note_on_c, 7, 71, 127
9, 395040, Note_on_c, 7, 81, 127
9, 395124, Note_on_c, 7, 81, 0
9, 395124, Note_on_c, 7, 71, 0
9, 395160, Note_on_c, 7, 81, 127
9, 395160, Note_on_c, 7, 71, 127
9, 395244, Note_on_c, 7, 71, 0
9, 395244, Note_on_c, 7, 81, 0
9, 395280, Note_on_c, 7, 81, 127
9, 395280, Note_on_c, 7, 71, 127
9, 395364, Note_on_c, 7, 71, 0
9, 395364, Note_on_c, 7, 81, 0
9, 395400, Note_on_c, 7, 71, 127
9, 395400, Note_on_c, 7, 81, 127
9, 395484, Note_on_c, 7, 81, 0
9, 395484, Note_on_c, 7, 71, 0
9, 395520, Note_on_c, 7, 79, 127
9, 395520, Note_on_c, 7, 71, 127
9, 395604, Note_on_c, 7, 71, 0
9, 395604, Note_on_c, 7, 79, 0
9, 395640, Note_on_c, 7, 79, 127
9, 395640, Note_on_c, 7, 71, 127
9, 395724, Note_on_c, 7, 71, 0
9, 395724, Note_on_c, 7, 79, 0
9, 395760, Note_on_c, 7, 71, 127
9, 395760, Note_on_c, 7, 79, 127
9, 395844, Note_on_c, 7, 79, 0
9, 395844, Note_on_c, 7, 71, 0
9, 395880, Note_on_c, 7, 79, 127
9, 395880, Note_on_c, 7, 71, 127
9, 395964, Note_on_c, 7, 71, 0
9, 395964, Note_on_c, 7, 79, 0
9, 396000, Note_on_c, 7, 71, 127
9, 396000, Note_on_c, 7, 79, 127
9, 396084, Note_on_c, 7, 79, 0
9, 396084, Note_on_c, 7, 71, 0
9, 396120, Note_on_c, 7, 79, 127
9, 396120, Note_on_c, 7, 71, 127
9, 396204, Note_on_c, 7, 71, 0
9, 396204, Note_on_c, 7, 79, 0
9, 396240, Note_on_c, 7, 79, 127
9, 396240, Note_on_c, 7, 71, 127
9, 396324, Note_on_c, 7, 71, 0
9, 396324, Note_on_c, 7, 79, 0
9, 396360, Note_on_c, 7, 79, 127
9, 396360, Note_on_c, 7, 71, 127
9, 396444, Note_on_c, 7, 71, 0
9, 396444, Note_on_c, 7, 79, 0
9, 396480, Note_on_c, 7, 76, 127
9, 396480, Note_on_c, 7, 79, 127
9, 396564, Note_on_c, 7, 79, 0
9, 396564, Note_on_c, 7, 76, 0
9, 396600, Note_on_c, 7, 79, 127
9, 396600, Note_on_c, 7, 76, 127
9, 396684, Note_on_c, 7, 76, 0
9, 396684, Note_on_c, 7, 79, 0
9, 396720, Note_on_c, 7, 76, 127
9, 396720, Note_on_c, 7, 79, 127
9, 396804, Note_on_c, 7, 79, 0
9, 396804, Note_on_c, 7, 76, 0
9, 396840, Note_on_c, 7, 76, 127
9, 396840, Note_on_c, 7, 79, 127
9, 396924, Note_on_c, 7, 79, 0
9, 396924, Note_on_c, 7, 76, 0
9, 396960, Note_on_c, 7, 79, 127
9, 396960, Note_on_c, 7, 76, 127
9, 397044, Note_on_c, 7, 76, 0
9, 397044, Note_on_c, 7, 79, 0
9, 397080, Note_on_c, 7, 76, 127
9, 397080, Note_on_c, 7, 79, 127
9, 397164, Note_on_c, 7, 79, 0
9, 397164, Note_on_c, 7, 76, 0
9, 397200, Note_on_c, 7, 76, 127
9, 397200, Note_on_c, 7, 79, 127
9, 397284, Note_on_c, 7, 79, 0
9, 397284, Note_on_c, 7, 76, 0
9, 397320, Note_on_c, 7, 76, 127
9, 397320, Note_on_c, 7, 79, 127
9, 397404, Note_on_c, 7, 79, 0
9, 397404, Note_on_c, 7, 76, 0
9, 397440, Note_on_c, 7, 69, 127
9, 397440, Note_on_c, 7, 77, 127
9, 397524, Note_on_c, 7, 77, 0
9, 397524, Note_on_c, 7, 69, 0
9, 397560, Note_on_c, 7, 69, 127
9, 397560, Note_on_c, 7, 77, 127
9, 397644, Note_on_c, 7, 77, 0
9, 397644, Note_on_c, 7, 69, 0
9, 397680, Note_on_c, 7, 77, 127
9, 397680, Note_on_c, 7, 69, 127
9, 397764, Note_on_c, 7, 69, 0
9, 397764, Note_on_c, 7, 77, 0
9, 397800, Note_on_c, 7, 77, 127
9, 397800, Note_on_c, 7, 69, 127
9, 397884, Note_on_c, 7, 69, 0
9, 397884, Note_on_c, 7, 77, 0
9, 397920, Note_on_c, 7, 69, 127
9, 397920, Note_on_c, 7, 77, 127
9, 398004, Note_on_c, 7, 77, 0
9, 398004, Note_on_c, 7, 69, 0
9, 398040, Note_on_c, 7, 69, 127
9, 398040, Note_on_c, 7, 77, 127
9, 398124, Note_on_c, 7, 77, 0
9, 398124, Note_on_c, 7, 69, 0
9, 398160, Note_on_c, 7, 77, 127
9, 398160, Note_on_c, 7, 69, 127
9, 398244, Note_on_c, 7, 69, 0
9, 398244, Note_on_c, 7, 77, 0
9, 398280, Note_on_c, 7, 77, 127
9, 398280, Note_on_c, 7, 69, 127
9, 398364, Note_on_c, 7, 69, 0
9, 398364, Note_on_c, 7, 77, 0
9, 398400, Note_on_c, 7, 74, 127
9, 398400, Note_on_c, 7, 77, 127
9, 398484, Note_on_c, 7, 77, 0
9, 398484, Note_on_c, 7, 74, 0
9, 398520, Note_on_c, 7, 77, 127
9, 398520, Note_on_c, 7, 74, 127
9, 398604, Note_on_c, 7, 74, 0
9, 398604, Note_on_c, 7, 77, 0
9, 398640, Note_on_c, 7, 74, 127
9, 398640, Note_on_c, 7, 77, 127
9, 398724, Note_on_c, 7, 77, 0
9, 398724, Note_on_c, 7, 74, 0
9, 398760, Note_on_c, 7, 74, 127
9, 398760, Note_on_c, 7, 77, 127
9, 398844, Note_on_c, 7, 77, 0
9, 398844, Note_on_c, 7, 74, 0
9, 398880, Note_on_c, 7, 74, 127
9, 398880, Note_on_c, 7, 77, 127
9, 398964, Note_on_c, 7, 77, 0
9, 398964, Note_on_c, 7, 74, 0
9, 399000, Note_on_c, 7, 74, 127
9, 399000, Note_on_c, 7, 77, 127
9, 399084, Note_on_c, 7, 77, 0
9, 399084, Note_on_c, 7, 74, 0
9, 399120, Note_on_c, 7, 74, 127
9, 399120, Note_on_c, 7, 77, 127
9, 399204, Note_on_c, 7, 77, 0
9, 399204, Note_on_c, 7, 74, 0
9, 399240, Note_on_c, 7, 74, 127
9, 399240, Note_on_c, 7, 77, 127
9, 399324, Note_on_c, 7, 77, 0
9, 399324, Note_on_c, 7, 74, 0
9, 399360, Note_on_c, 7, 67, 127
9, 399360, Note_on_c, 7, 76, 127
9, 399444, Note_on_c, 7, 76, 0
9, 399444, Note_on_c, 7, 67, 0
9, 399480, Note_on_c, 7, 67, 127
9, 399480, Note_on_c, 7, 76, 127
9, 399564, Note_on_c, 7, 76, 0
9, 399564, Note_on_c, 7, 67, 0
9, 399600, Note_on_c, 7, 76, 127
9, 399600, Note_on_c, 7, 67, 127
9, 399684, Note_on_c, 7, 67, 0
9, 399684, Note_on_c, 7, 76, 0
9, 399720, Note_on_c, 7, 67, 127
9, 399720, Note_on_c, 7, 76, 127
9, 399804, Note_on_c, 7, 76, 0
9, 399804, Note_on_c, 7, 67, 0
9, 399840, Note_on_c, 7, 67, 127
9, 399840, Note_on_c, 7, 76, 127
9, 399924, Note_on_c, 7, 76, 0
9, 399924, Note_on_c, 7, 67, 0
9, 399960, Note_on_c, 7, 67, 127
9, 399960, Note_on_c, 7, 76, 127
9, 400044, Note_on_c, 7, 76, 0
9, 400044, Note_on_c, 7, 67, 0
9, 400080, Note_on_c, 7, 76, 127
9, 400080, Note_on_c, 7, 67, 127
9, 400164, Note_on_c, 7, 67, 0
9, 400164, Note_on_c, 7, 76, 0
9, 400200, Note_on_c, 7, 67, 127
9, 400200, Note_on_c, 7, 76, 127
9, 400284, Note_on_c, 7, 76, 0
9, 400284, Note_on_c, 7, 67, 0
9, 400320, Note_on_c, 7, 72, 127
9, 400404, Note_on_c, 7, 72, 0
9, 400440, Note_on_c, 7, 72, 127
9, 400524, Note_on_c, 7, 72, 0
9, 400560, Note_on_c, 7, 72, 127
9, 400644, Note_on_c, 7, 72, 0
9, 400680, Note_on_c, 7, 72, 127
9, 400764, Note_on_c, 7, 72, 0
9, 400800, Note_on_c, 7, 60, 127
9, 400800, Note_on_c, 7, 62, 127
9, 400884, Note_on_c, 7, 62, 0
9, 400884, Note_on_c, 7, 60, 0
9, 400920, Note_on_c, 7, 62, 127
9, 400920, Note_on_c, 7, 60, 127
9, 401004, Note_on_c, 7, 60, 0
9, 401004, Note_on_c, 7, 62, 0
9, 401040, Note_on_c, 7, 62, 127
9, 401040, Note_on_c, 7, 60, 127
9, 401124, Note_on_c, 7, 60, 0
9, 401124, Note_on_c, 7, 62, 0
9, 401160, Note_on_c, 7, 62, 127
9, 401160, Note_on_c, 7, 60, 127
9, 401244, Note_on_c, 7, 60, 0
9, 401244, Note_on_c, 7, 62, 0
9, 401280, Note_on_c, 7, 62, 127
9, 401280, Note_on_c, 7, 59, 127
9, 401616, Note_on_c, 7, 59, 0
9, 401616, Note_on_c, 7, 62, 0
9, 401760, Note_on_c, 7, 67, 127
9, 401985, Note_on_c, 7, 67, 0
9, 402120, Note_on_c, 7, 67, 127
9, 402240, Note_on_c, 7, 67, 0
9, 402240, Note_on_c, 7, 67, 127
9, 402960, Note_on_c, 7, 67, 0
9, 402960, Note_on_c, 7, 66, 127
9, 403044, Note_on_c, 7, 66, 0
9, 403080, Note_on_c, 7, 64, 127
9, 403164, Note_on_c, 7, 64, 0
9, 403200, Note_on_c, 7, 62, 127
9, 403284, Note_on_c, 7, 62, 0
9, 403320, Note_on_c, 7, 64, 127
9, 403404, Note_on_c, 7, 64, 0
9, 403440, Note_on_c, 7, 62, 127
9, 403524, Note_on_c, 7, 62, 0
9, 403560, Note_on_c, 7, 60, 127
9, 403644, Note_on_c, 7, 60, 0
9, 403680, Note_on_c, 7, 59, 127
9, 403764, Note_on_c, 7, 59, 0
9, 403800, Note_on_c, 7, 60, 127
9, 403884, Note_on_c, 7, 60, 0
9, 403920, Note_on_c, 7, 59, 127
9, 404004, Note_on_c, 7, 59, 0
9, 404040, Note_on_c, 7, 57, 127
9, 404124, Note_on_c, 7, 57, 0
9, 404160, Note_on_c, 7, 55, 127
9, 404400, Note_on_c, 7, 55, 0
9, 404640, Note_on_c, 7, 67, 127
9, 404865, Note_on_c, 7, 67, 0
9, 405000, Note_on_c, 7, 67, 127
9, 405120, Note_on_c, 7, 67, 0
9, 405120, Note_on_c, 7, 67, 127
9, 405840, Note_on_c, 7, 67, 0
9, 405840, Note_on_c, 7, 66, 127
9, 405924, Note_on_c, 7, 66, 0
9, 405960, Note_on_c, 7, 64, 127
9, 406044, Note_on_c, 7, 64, 0
9, 406080, Note_on_c, 7, 62, 127
9, 406164, Note_on_c, 7, 62, 0
9, 406200, Note_on_c, 7, 64, 127
9, 406284, Note_on_c, 7, 64, 0
9, 406320, Note_on_c, 7, 62, 127
9, 406404, Note_on_c, 7, 62, 0
9, 406440, Note_on_c, 7, 60, 127
9, 406524, Note_on_c, 7, 60, 0
9, 406560, Note_on_c, 7, 59, 127
9, 406644, Note_on_c, 7, 59, 0
9, 406680, Note_on_c, 7, 60, 127
9, 406764, Note_on_c, 7, 60, 0
9, 406800, Note_on_c, 7, 59, 127
9, 406884, Note_on_c, 7, 59, 0
9, 406920, Note_on_c, 7, 57, 127
9, 407004, Note_on_c, 7, 57, 0
9, 407040, Note_on_c, 7, 55, 127
9, 407208, Note_on_c, 7, 55, 0
9, 407280, Note_on_c, 7, 55, 127
9, 407364, Note_on_c, 7, 55, 0
9, 407400, Note_on_c, 7, 57, 127
9, 407484, Note_on_c, 7, 57, 0
9, 407520, Note_on_c, 7, 59, 127
9, 407604, Note_on_c, 7, 59, 0
9, 407640, Note_on_c, 7, 60, 127
9, 407724, Note_on_c, 7, 60, 0
9, 407760, Note_on_c, 7, 62, 127
9, 407844, Note_on_c, 7, 62, 0
9, 407880, Note_on_c, 7, 60, 127
9, 407964, Note_on_c, 7, 60, 0
9, 408000, Note_on_c, 7, 59, 127
9, 408084, Note_on_c, 7, 59, 0
9, 408120, Note_on_c, 7, 57, 127
9, 408204, Note_on_c, 7, 57, 0
9, 408240, Note_on_c, 7, 59, 127
9, 408324, Note_on_c, 7, 59, 0
9, 408360, Note_on_c, 7, 60, 127
9, 408444, Note_on_c, 7, 60, 0
9, 408480, Note_on_c, 7, 62, 127
9, 408564, Note_on_c, 7, 62, 0
9, 408600, Note_on_c, 7, 64, 127
9, 408684, Note_on_c, 7, 64, 0
9, 408720, Note_on_c, 7, 65, 127
9, 408804, Note_on_c, 7, 65, 0
9, 408840, Note_on_c, 7, 64, 127
9, 408924, Note_on_c, 7, 64, 0
9, 408960, Note_on_c, 7, 65, 127
9, 409044, Note_on_c, 7, 65, 0
9, 409080, Note_on_c, 7, 62, 127
9, 409164, Note_on_c, 7, 62, 0
9, 409200, Note_on_c, 7, 74, 127
9, 409284, Note_on_c, 7, 74, 0
9, 409320, Note_on_c, 7, 74, 127
9, 409404, Note_on_c, 7, 74, 0
9, 409440, Note_on_c, 7, 74, 127
9, 409524, Note_on_c, 7, 74, 0
9, 409560, Note_on_c, 7, 71, 127
9, 409644, Note_on_c, 7, 71, 0
9, 409680, Note_on_c, 7, 77, 127
9, 409764, Note_on_c, 7, 77, 0
9, 409800, Note_on_c, 7, 77, 127
9, 409884, Note_on_c, 7, 77, 0
9, 409920, Note_on_c, 7, 77, 127
9, 410400, Note_on_c, 7, 77, 0
9, 410880, Note_on_c, 7, 60, 50
9, 410964, Note_on_c, 7, 60, 0
9, 411000, Note_on_c, 7, 64, 50
9, 411084, Note_on_c, 7, 64, 0
9, 411120, Note_on_c, 7, 67, 50
9, 411204, Note_on_c, 7, 67, 0
9, 411240, Note_on_c, 7, 64, 50
9, 411324, Note_on_c, 7, 64, 0
9, 411360, Note_on_c, 7, 67, 50
9, 411444, Note_on_c, 7, 67, 0
9, 411480, Note_on_c, 7, 64, 50
9, 411564, Note_on_c, 7, 64, 0
9, 411600, Note_on_c, 7, 60, 50
9, 411684, Note_on_c, 7, 60, 0
9, 411720, Note_on_c, 7, 64, 50
9, 411804, Note_on_c, 7, 64, 0
9, 411840, Note_on_c, 7, 61, 50
9, 411924, Note_on_c, 7, 61, 0
9, 411960, Note_on_c, 7, 64, 50
9, 412044, Note_on_c, 7, 64, 0
9, 412080, Note_on_c, 7, 67, 50
9, 412164, Note_on_c, 7, 67, 0
9, 412200, Note_on_c, 7, 64, 50
9, 412284, Note_on_c, 7, 64, 0
9, 412320, Note_on_c, 7, 67, 50
9, 412404, Note_on_c, 7, 67, 0
9, 412440, Note_on_c, 7, 64, 50
9, 412524, Note_on_c, 7, 64, 0
9, 412560, Note_on_c, 7, 61, 50
9, 412644, Note_on_c, 7, 61, 0
9, 412680, Note_on_c, 7, 64, 50
9, 412764, Note_on_c, 7, 64, 0
9, 412800, Note_on_c, 7, 65, 50
9, 412884, Note_on_c, 7, 65, 0
9, 412920, Note_on_c, 7, 64, 50
9, 413004, Note_on_c, 7, 64, 0
9, 413040, Note_on_c, 7, 62, 50
9, 413124, Note_on_c, 7, 62, 0
9, 413160, Note_on_c, 7, 61, 50
9, 413244, Note_on_c, 7, 61, 0
9, 413280, Note_on_c, 7, 62, 50
9, 413364, Note_on_c, 7, 62, 0
9, 413400, Note_on_c, 7, 61, 50
9, 413484, Note_on_c, 7, 61, 0
9, 413520, Note_on_c, 7, 62, 50
9, 413604, Note_on_c, 7, 62, 0
9, 413640, Note_on_c, 7, 64, 50
9, 413724, Note_on_c, 7, 64, 0
9, 413760, Note_on_c, 7, 65, 50
9, 413844, Note_on_c, 7, 65, 0
9, 413880, Note_on_c, 7, 62, 50
9, 413964, Note_on_c, 7, 62, 0
9, 414000, Note_on_c, 7, 59, 50
9, 414084, Note_on_c, 7, 59, 0
9, 414120, Note_on_c, 7, 62, 50
9, 414204, Note_on_c, 7, 62, 0
9, 414240, Note_on_c, 7, 65, 50
9, 414324, Note_on_c, 7, 65, 0
9, 414360, Note_on_c, 7, 62, 50
9, 414444, Note_on_c, 7, 62, 0
9, 414480, Note_on_c, 7, 65, 50
9, 414564, Note_on_c, 7, 65, 0
9, 414600, Note_on_c, 7, 62, 50
9, 414684, Note_on_c, 7, 62, 0
9, 414720, Note_on_c, 7, 64, 50
9, 414804, Note_on_c, 7, 64, 0
9, 414840, Note_on_c, 7, 60, 50
9, 414924, Note_on_c, 7, 60, 0
9, 414960, Note_on_c, 7, 64, 50
9, 415044, Note_on_c, 7, 64, 0
9, 415080, Note_on_c, 7, 60, 50
9, 415164, Note_on_c, 7, 60, 0
9, 415200, Note_on_c, 7, 67, 50
9, 415284, Note_on_c, 7, 67, 0
9, 415320, Note_on_c, 7, 60, 50
9, 415404, Note_on_c, 7, 60, 0
9, 415440, Note_on_c, 7, 67, 50
9, 415524, Note_on_c, 7, 67, 0
9, 415560, Note_on_c, 7, 60, 50
9, 415644, Note_on_c, 7, 60, 0
9, 415680, Note_on_c, 7, 69, 50
9, 415800, Note_on_c, 7, 69, 0
9, 415800, Note_on_c, 7, 60, 50
9, 415920, Note_on_c, 7, 60, 0
9, 415920, Note_on_c, 7, 69, 50
9, 416040, Note_on_c, 7, 69, 0
9, 416040, Note_on_c, 7, 60, 50
9, 416160, Note_on_c, 7, 60, 0
9, 416160, Note_on_c, 7, 57, 50
9, 416280, Note_on_c, 7, 57, 0
9, 416280, Note_on_c, 7, 62, 50
9, 416400, Note_on_c, 7, 62, 0
9, 416400, Note_on_c, 7, 60, 50
9, 416520, Note_on_c, 7, 60, 0
9, 416520, Note_on_c, 7, 62, 50
9, 416640, Note_on_c, 7, 62, 0
9, 416640, Note_on_c, 7, 59, 50
9, 416760, Note_on_c, 7, 59, 0
9, 416760, Note_on_c, 7, 62, 50
9, 416880, Note_on_c, 7, 62, 0
9, 416880, Note_on_c, 7, 59, 50
9, 417000, Note_on_c, 7, 59, 0
9, 417000, Note_on_c, 7, 55, 50
9, 417120, Note_on_c, 7, 55, 0
9, 417120, Note_on_c, 7, 65, 50
9, 417240, Note_on_c, 7, 65, 0
9, 417240, Note_on_c, 7, 67, 50
9, 417360, Note_on_c, 7, 67, 0
9, 417360, Note_on_c, 7, 65, 50
9, 417480, Note_on_c, 7, 65, 0
9, 417480, Note_on_c, 7, 62, 50
9, 417600, Note_on_c, 7, 62, 0
9, 417600, Note_on_c, 7, 60, 50
9, 417720, Note_on_c, 7, 60, 0
9, 417720, Note_on_c, 7, 64, 50
9, 417840, Note_on_c, 7, 64, 0
9, 417840, Note_on_c, 7, 67, 50
9, 417960, Note_on_c, 7, 67, 0
9, 417960, Note_on_c, 7, 64, 50
9, 418080, Note_on_c, 7, 64, 0
9, 418080, Note_on_c, 7, 67, 50
9, 418200, Note_on_c, 7, 67, 0
9, 418200, Note_on_c, 7, 69, 50
9, 418320, Note_on_c, 7, 69, 0
9, 418320, Note_on_c, 7, 67, 50
9, 418440, Note_on_c, 7, 67, 0
9, 418440, Note_on_c, 7, 64, 50
9, 418560, Note_on_c, 7, 64, 0
9, 418560, Note_on_c, 7, 65, 50
9, 418680, Note_on_c, 7, 65, 0
9, 418680, Note_on_c, 7, 64, 50
9, 418800, Note_on_c, 7, 64, 0
9, 418800, Note_on_c, 7, 69, 50
9, 418920, Note_on_c, 7, 69, 0
9, 418920, Note_on_c, 7, 67, 50
9, 419040, Note_on_c, 7, 67, 0
9, 419040, Note_on_c, 7, 69, 50
9, 419160, Note_on_c, 7, 69, 0
9, 419160, Note_on_c, 7, 67, 50
9, 419280, Note_on_c, 7, 67, 0
9, 419280, Note_on_c, 7, 65, 50
9, 419400, Note_on_c, 7, 65, 0
9, 419400, Note_on_c, 7, 64, 50
9, 419520, Note_on_c, 7, 64, 0
9, 419520, Note_on_c, 7, 62, 50
9, 419640, Note_on_c, 7, 62, 0
9, 419640, Note_on_c, 7, 67, 50
9, 419760, Note_on_c, 7, 67, 0
9, 419760, Note_on_c, 7, 71, 50
9, 419880, Note_on_c, 7, 71, 0
9, 419880, Note_on_c, 7, 67, 50
9, 420000, Note_on_c, 7, 67, 0
9, 420000, Note_on_c, 7, 62, 50
9, 420120, Note_on_c, 7, 62, 0
9, 420120, Note_on_c, 7, 67, 50
9, 420240, Note_on_c, 7, 67, 0
9, 420240, Note_on_c, 7, 62, 50
9, 420360, Note_on_c, 7, 62, 0
9, 420360, Note_on_c, 7, 67, 50
9, 420480, Note_on_c, 7, 67, 0
9, 420480, Note_on_c, 7, 60, 50
9, 420600, Note_on_c, 7, 60, 0
9, 420600, Note_on_c, 7, 64, 50
9, 420720, Note_on_c, 7, 64, 0
9, 420720, Note_on_c, 7, 67, 50
9, 420840, Note_on_c, 7, 67, 0
9, 420840, Note_on_c, 7, 64, 50
9, 420960, Note_on_c, 7, 64, 0
9, 420960, Note_on_c, 7, 60, 50
9, 421080, Note_on_c, 7, 60, 0
9, 421080, Note_on_c, 7, 55, 50
9, 421200, Note_on_c, 7, 55, 0
9, 421200, Note_on_c, 7, 60, 50
9, 421320, Note_on_c, 7, 60, 0
9, 421320, Note_on_c, 7, 55, 50
9, 421440, Note_on_c, 7, 55, 0
9, 421440, Note_on_c, 7, 60, 50
9, 421560, Note_on_c, 7, 60, 0
9, 421560, Note_on_c, 7, 57, 50
9, 421680, Note_on_c, 7, 57, 0
9, 421680, Note_on_c, 7, 60, 50
9, 421800, Note_on_c, 7, 60, 0
9, 421800, Note_on_c, 7, 57, 50
9, 421920, Note_on_c, 7, 57, 0
9, 421920, Note_on_c, 7, 62, 50
9, 422040, Note_on_c, 7, 62, 0
9, 422040, Note_on_c, 7, 60, 50
9, 422160, Note_on_c, 7, 60, 0
9, 422160, Note_on_c, 7, 62, 50
9, 422280, Note_on_c, 7, 62, 0
9, 422280, Note_on_c, 7, 60, 50
9, 422400, Note_on_c, 7, 60, 0
9, 422400, Note_on_c, 7, 59, 50
9, 422520, Note_on_c, 7, 59, 0
9, 422520, Note_on_c, 7, 59, 50
9, 422592, Note_on_c, 7, 59, 0
9, 422640, Note_on_c, 7, 60, 50
9, 422712, Note_on_c, 7, 60, 0
9, 422760, Note_on_c, 7, 62, 50
9, 422832, Note_on_c, 7, 62, 0
9, 422880, Note_on_c, 7, 64, 50
9, 422952, Note_on_c, 7, 64, 0
9, 423000, Note_on_c, 7, 62, 50
9, 423072, Note_on_c, 7, 62, 0
9, 423120, Note_on_c, 7, 65, 50
9, 423192, Note_on_c, 7, 65, 0
9, 423240, Note_on_c, 7, 64, 50
9, 423312, Note_on_c, 7, 64, 0
9, 423360, Note_on_c, 7, 67, 50
9, 423432, Note_on_c, 7, 67, 0
9, 423480, Note_on_c, 7, 60, 50
9, 423552, Note_on_c, 7, 60, 0
9, 423600, Note_on_c, 7, 62, 50
9, 423672, Note_on_c, 7, 62, 0
9, 423720, Note_on_c, 7, 64, 50
9, 423792, Note_on_c, 7, 64, 0
9, 423840, Note_on_c, 7, 65, 50
9, 423912, Note_on_c, 7, 65, 0
9, 423960, Note_on_c, 7, 64, 50
9, 424032, Note_on_c, 7, 64, 0
9, 424080, Note_on_c, 7, 67, 50
9, 424152, Note_on_c, 7, 67, 0
9, 424200, Note_on_c, 7, 65, 50
9, 424272, Note_on_c, 7, 65, 0
9, 424320, Note_on_c, 7, 69, 50
9, 424392, Note_on_c, 7, 69, 0
9, 424440, Note_on_c, 7, 68, 50
9, 424512, Note_on_c, 7, 68, 0
9, 424560, Note_on_c, 7, 69, 50
9, 424632, Note_on_c, 7, 69, 0
9, 424680, Note_on_c, 7, 71, 50
9, 424752, Note_on_c, 7, 71, 0
9, 424800, Note_on_c, 7, 69, 50
9, 424872, Note_on_c, 7, 69, 0
9, 424920, Note_on_c, 7, 65, 50
9, 424992, Note_on_c, 7, 65, 0
9, 425040, Note_on_c, 7, 67, 50
9, 425112, Note_on_c, 7, 67, 0
9, 425160, Note_on_c, 7, 64, 50
9, 425232, Note_on_c, 7, 64, 0
9, 425280, Note_on_c, 7, 62, 50
9, 425352, Note_on_c, 7, 62, 0
9, 425400, Note_on_c, 7, 73, 50
9, 425472, Note_on_c, 7, 73, 0
9, 425520, Note_on_c, 7, 74, 50
9, 425592, Note_on_c, 7, 74, 0
9, 425640, Note_on_c, 7, 73, 50
9, 425712, Note_on_c, 7, 73, 0
9, 425760, Note_on_c, 7, 74, 50
9, 425832, Note_on_c, 7, 74, 0
9, 425880, Note_on_c, 7, 72, 50
9, 425952, Note_on_c, 7, 72, 0
9, 426000, Note_on_c, 7, 71, 50
9, 426072, Note_on_c, 7, 71, 0
9, 426120, Note_on_c, 7, 69, 50
9, 426192, Note_on_c, 7, 69, 0
9, 426240, Note_on_c, 7, 67, 50
9, 426312, Note_on_c, 7, 67, 0
9, 426360, Note_on_c, 7, 66, 50
9, 426432, Note_on_c, 7, 66, 0
9, 426480, Note_on_c, 7, 67, 50
9, 426552, Note_on_c, 7, 67, 0
9, 426600, Note_on_c, 7, 69, 50
9, 426672, Note_on_c, 7, 69, 0
9, 426720, Note_on_c, 7, 67, 50
9, 426792, Note_on_c, 7, 67, 0
9, 426840, Note_on_c, 7, 64, 50
9, 426912, Note_on_c, 7, 64, 0
9, 426960, Note_on_c, 7, 65, 50
9, 427032, Note_on_c, 7, 65, 0
9, 427080, Note_on_c, 7, 62, 50
9, 427152, Note_on_c, 7, 62, 0
9, 427200, Note_on_c, 7, 60, 50
9, 427272, Note_on_c, 7, 60, 0
9, 427320, Note_on_c, 7, 71, 50
9, 427392, Note_on_c, 7, 71, 0
9, 427440, Note_on_c, 7, 72, 50
9, 427512, Note_on_c, 7, 72, 0
9, 427560, Note_on_c, 7, 71, 50
9, 427632, Note_on_c, 7, 71, 0
9, 427680, Note_on_c, 7, 72, 50
9, 427752, Note_on_c, 7, 72, 0
9, 427800, Note_on_c, 7, 71, 50
9, 427872, Note_on_c, 7, 71, 0
9, 427920, Note_on_c, 7, 69, 50
9, 427992, Note_on_c, 7, 69, 0
9, 428040, Note_on_c, 7, 67, 50
9, 428112, Note_on_c, 7, 67, 0
9, 428160, Note_on_c, 7, 65, 50
9, 428232, Note_on_c, 7, 65, 0
9, 428280, Note_on_c, 7, 64, 50
9, 428352, Note_on_c, 7, 64, 0
9, 428400, Note_on_c, 7, 65, 50
9, 428472, Note_on_c, 7, 65, 0
9, 428520, Note_on_c, 7, 67, 50
9, 428592, Note_on_c, 7, 67, 0
9, 428640, Note_on_c, 7, 65, 50
9, 428712, Note_on_c, 7, 65, 0
9, 428760, Note_on_c, 7, 62, 50
9, 428832, Note_on_c, 7, 62, 0
9, 428880, Note_on_c, 7, 64, 50
9, 428952, Note_on_c, 7, 64, 0
9, 429000, Note_on_c, 7, 60, 50
9, 429072, Note_on_c, 7, 60, 0
9, 429120, Note_on_c, 7, 59, 50
9, 429192, Note_on_c, 7, 59, 0
9, 429240, Note_on_c, 7, 60, 50
9, 429312, Note_on_c, 7, 60, 0
9, 429360, Note_on_c, 7, 62, 50
9, 429432, Note_on_c, 7, 62, 0
9, 429480, Note_on_c, 7, 64, 50
9, 429552, Note_on_c, 7, 64, 0
9, 429600, Note_on_c, 7, 65, 50
9, 429672, Note_on_c, 7, 65, 0
9, 429720, Note_on_c, 7, 69, 50
9, 429792, Note_on_c, 7, 69, 0
9, 429840, Note_on_c, 7, 67, 50
9, 429912, Note_on_c, 7, 67, 0
9, 429960, Note_on_c, 7, 65, 50
9, 430032, Note_on_c, 7, 65, 0
9, 430080, Note_on_c, 7, 64, 50
9, 430164, Note_on_c, 7, 64, 0
9, 430200, Note_on_c, 7, 60, 88
9, 430284, Note_on_c, 7, 60, 0
9, 430320, Note_on_c, 7, 60, 127
9, 430404, Note_on_c, 7, 60, 0
9, 430440, Note_on_c, 7, 62, 127
9, 430524, Note_on_c, 7, 62, 0
9, 430560, Note_on_c, 7, 64, 127
9, 430644, Note_on_c, 7, 64, 0
9, 430680, Note_on_c, 7, 65, 127
9, 430764, Note_on_c, 7, 65, 0
9, 430800, Note_on_c, 7, 64, 127
9, 430884, Note_on_c, 7, 64, 0
9, 430920, Note_on_c, 7, 62, 127
9, 431004, Note_on_c, 7, 62, 0
9, 431040, Note_on_c, 7, 60, 127
9, 431124, Note_on_c, 7, 60, 0
9, 431160, Note_on_c, 7, 62, 127
9, 431244, Note_on_c, 7, 62, 0
9, 431280, Note_on_c, 7, 60, 127
9, 431364, Note_on_c, 7, 60, 0
9, 431400, Note_on_c, 7, 58, 127
9, 431484, Note_on_c, 7, 58, 0
9, 431520, Note_on_c, 7, 57, 127
9, 431856, Note_on_c, 7, 57, 0
9, 432120, Note_on_c, 7, 65, 127
9, 432204, Note_on_c, 7, 65, 0
9, 432240, Note_on_c, 7, 67, 127
9, 432324, Note_on_c, 7, 67, 0
9, 432360, Note_on_c, 7, 69, 127
9, 432444, Note_on_c, 7, 69, 0
9, 432480, Note_on_c, 7, 67, 127
9, 432564, Note_on_c, 7, 67, 0
9, 432600, Note_on_c, 7, 69, 127
9, 432684, Note_on_c, 7, 69, 0
9, 432720, Note_on_c, 7, 67, 127
9, 432804, Note_on_c, 7, 67, 0
9, 432840, Note_on_c, 7, 65, 127
9, 432924, Note_on_c, 7, 65, 0
9, 432960, Note_on_c, 7, 64, 127
9, 433044, Note_on_c, 7, 64, 0
9, 433080, Note_on_c, 7, 62, 127
9, 433164, Note_on_c, 7, 62, 0
9, 433200, Note_on_c, 7, 60, 127
9, 433284, Note_on_c, 7, 60, 0
9, 433320, Note_on_c, 7, 58, 127
9, 433404, Note_on_c, 7, 58, 0
9, 433440, Note_on_c, 7, 57, 127
9, 433776, Note_on_c, 7, 57, 0
9, 434040, Note_on_c, 7, 69, 127
9, 434124, Note_on_c, 7, 69, 0
9, 434160, Note_on_c, 7, 71, 127
9, 434244, Note_on_c, 7, 71, 0
9, 434280, Note_on_c, 7, 72, 127
9, 434364, Note_on_c, 7, 72, 0
9, 434400, Note_on_c, 7, 74, 127
9, 434484, Note_on_c, 7, 74, 0
9, 434520, Note_on_c, 7, 71, 127
9, 434604, Note_on_c, 7, 71, 0
9, 434640, Note_on_c, 7, 72, 127
9, 434724, Note_on_c, 7, 72, 0
9, 434760, Note_on_c, 7, 74, 127
9, 434844, Note_on_c, 7, 74, 0
9, 434880, Note_on_c, 7, 67, 127
9, 435360, Note_on_c, 7, 67, 0
9, 435360, Note_on_c, 7, 64, 127
9, 435840, Note_on_c, 7, 64, 0
9, 435840, Note_on_c, 7, 69, 127
9, 436404, Note_on_c, 7, 69, 0
9, 436440, Note_on_c, 7, 67, 127
9, 436524, Note_on_c, 7, 67, 0
9, 436560, Note_on_c, 7, 65, 127
9, 436644, Note_on_c, 7, 65, 0
9, 436680, Note_on_c, 7, 64, 127
9, 436764, Note_on_c, 7, 64, 0
9, 436800, Note_on_c, 7, 65, 127
9, 436884, Note_on_c, 7, 65, 0
9, 436920, Note_on_c, 7, 64, 127
9, 437004, Note_on_c, 7, 64, 0
9, 437040, Note_on_c, 7, 62, 127
9, 437124, Note_on_c, 7, 62, 0
9, 437160, Note_on_c, 7, 60, 127
9, 437244, Note_on_c, 7, 60, 0
9, 437280, Note_on_c, 7, 59, 127
9, 437760, Note_on_c, 7, 59, 0
9, 437760, Note_on_c, 7, 67, 127
9, 438240, Note_on_c, 7, 67, 0
9, 438720, Note_on_c, 7, 64, 127
9, 439056, Note_on_c, 7, 64, 0
9, 439200, Note_on_c, 7, 60, 127
9, 439536, Note_on_c, 7, 60, 0
9, 439680, Note_on_c, 7, 65, 127
9, 440244, Note_on_c, 7, 65, 0
9, 440280, Note_on_c, 7, 64, 127
9, 440364, Note_on_c, 7, 64, 0
9, 440400, Note_on_c, 7, 62, 127
9, 440484, Note_on_c, 7, 62, 0
9, 440520, Note_on_c, 7, 60, 127
9, 440604, Note_on_c, 7, 60, 0
9, 440640, Note_on_c, 7, 62, 127
9, 440724, Note_on_c, 7, 62, 0
9, 440760, Note_on_c, 7, 60, 127
9, 440844, Note_on_c, 7, 60, 0
9, 440880, Note_on_c, 7, 59, 127
9, 440964, Note_on_c, 7, 59, 0
9, 441000, Note_on_c, 7, 57, 127
9, 441084, Note_on_c, 7, 57, 0
9, 441120, Note_on_c, 7, 56, 127
9, 441600, Note_on_c, 7, 56, 0
9, 441600, Note_on_c, 7, 64, 127
9, 442080, Note_on_c, 7, 64, 0
9, 442560, Note_on_c, 7, 72, 127
9, 442896, Note_on_c, 7, 72, 0
9, 443040, Note_on_c, 7, 69, 127
9, 443376, Note_on_c, 7, 69, 0
9, 443520, Note_on_c, 7, 74, 127
9, 444084, Note_on_c, 7, 74, 0
9, 444120, Note_on_c, 7, 72, 127
9, 444204, Note_on_c, 7, 72, 0
9, 444240, Note_on_c, 7, 70, 127
9, 444324, Note_on_c, 7, 70, 0
9, 444360, Note_on_c, 7, 69, 127
9, 444444, Note_on_c, 7, 69, 0
9, 444480, Note_on_c, 7, 70, 127
9, 444564, Note_on_c, 7, 70, 0
9, 444600, Note_on_c, 7, 69, 127
9, 444684, Note_on_c, 7, 69, 0
9, 444720, Note_on_c, 7, 67, 127
9, 444804, Note_on_c, 7, 67, 0
9, 444840, Note_on_c, 7, 65, 127
9, 444924, Note_on_c, 7, 65, 0
9, 444960, Note_on_c, 7, 64, 127
9, 445128, Note_on_c, 7, 64, 0
9, 450240, Note_on_c, 7, 64, 127
9, 450240, Note_on_c, 7, 55, 127
9, 450324, Note_on_c, 7, 55, 0
9, 450324, Note_on_c, 7, 64, 0
9, 450360, Note_on_c, 7, 55, 127
9, 450360, Note_on_c, 7, 64, 127
9, 450444, Note_on_c, 7, 64, 0
9, 450444, Note_on_c, 7, 55, 0
9, 450480, Note_on_c, 7, 64, 127
9, 450480, Note_on_c, 7, 55, 127
9, 450564, Note_on_c, 7, 55, 0
9, 450564, Note_on_c, 7, 64, 0
9, 450600, Note_on_c, 7, 55, 127
9, 450600, Note_on_c, 7, 64, 127
9, 450684, Note_on_c, 7, 64, 0
9, 450684, Note_on_c, 7, 55, 0
9, 450720, Note_on_c, 7, 64, 127
9, 450720, Note_on_c, 7, 55, 127
9, 450804, Note_on_c, 7, 55, 0
9, 450804, Note_on_c, 7, 64, 0
9, 450840, Note_on_c, 7, 64, 127
9, 450840, Note_on_c, 7, 55, 127
9, 450924, Note_on_c, 7, 55, 0
9, 450924, Note_on_c, 7, 64, 0
9, 450960, Note_on_c, 7, 64, 127
9, 450960, Note_on_c, 7, 55, 127
9, 451044, Note_on_c, 7, 55, 0
9, 451044, Note_on_c, 7, 64, 0
9, 451080, Note_on_c, 7, 55, 127
9, 451080, Note_on_c, 7, 64, 127
9, 451164, Note_on_c, 7, 64, 0
9, 451164, Note_on_c, 7, 55, 0
9, 451200, Note_on_c, 7, 64, 127
9, 451200, Note_on_c, 7, 55, 127
9, 451284, Note_on_c, 7, 55, 0
9, 451284, Note_on_c, 7, 64, 0
9, 451320, Note_on_c, 7, 55, 127
9, 451320, Note_on_c, 7, 64, 127
9, 451404, Note_on_c, 7, 64, 0
9, 451404, Note_on_c, 7, 55, 0
9, 451440, Note_on_c, 7, 64, 127
9, 451440, Note_on_c, 7, 55, 127
9, 451524, Note_on_c, 7, 55, 0
9, 451524, Note_on_c, 7, 64, 0
9, 451560, Note_on_c, 7, 55, 127
9, 451560, Note_on_c, 7, 64, 127
9, 451644, Note_on_c, 7, 64, 0
9, 451644, Note_on_c, 7, 55, 0
9, 451680, Note_on_c, 7, 64, 127
9, 451680, Note_on_c, 7, 55, 127
9, 451764, Note_on_c, 7, 55, 0
9, 451764, Note_on_c, 7, 64, 0
9, 451800, Note_on_c, 7, 55, 127
9, 451800, Note_on_c, 7, 64, 127
9, 451884, Note_on_c, 7, 64, 0
9, 451884, Note_on_c, 7, 55, 0
9, 451920, Note_on_c, 7, 64, 127
9, 451920, Note_on_c, 7, 55, 127
9, 452004, Note_on_c, 7, 55, 0
9, 452004, Note_on_c, 7, 64, 0
9, 452040, Note_on_c, 7, 55, 127
9, 452040, Note_on_c, 7, 64, 127
9, 452124, Note_on_c, 7, 64, 0
9, 452124, Note_on_c, 7, 55, 0
9, 452160, Note_on_c, 7, 67, 127
9, 452160, Note_on_c, 7, 60, 127
9, 452244, Note_on_c, 7, 60, 0
9, 452244, Note_on_c, 7, 67, 0
9, 452280, Note_on_c, 7, 60, 127
9, 452280, Note_on_c, 7, 67, 127
9, 452364, Note_on_c, 7, 67, 0
9, 452364, Note_on_c, 7, 60, 0
9, 452400, Note_on_c, 7, 67, 127
9, 452400, Note_on_c, 7, 60, 127
9, 452484, Note_on_c, 7, 60, 0
9, 452484, Note_on_c, 7, 67, 0
9, 452520, Note_on_c, 7, 60, 127
9, 452520, Note_on_c, 7, 67, 127
9, 452604, Note_on_c, 7, 67, 0
9, 452604, Note_on_c, 7, 60, 0
9, 452640, Note_on_c, 7, 67, 127
9, 452640, Note_on_c, 7, 60, 127
9, 452724, Note_on_c, 7, 60, 0
9, 452724, Note_on_c, 7, 67, 0
9, 452760, Note_on_c, 7, 67, 127
9, 452760, Note_on_c, 7, 60, 127
9, 452844, Note_on_c, 7, 60, 0
9, 452844, Note_on_c, 7, 67, 0
9, 452880, Note_on_c, 7, 67, 127
9, 452880, Note_on_c, 7, 60, 127
9, 452964, Note_on_c, 7, 60, 0
9, 452964, Note_on_c, 7, 67, 0
9, 453000, Note_on_c, 7, 60, 127
9, 453000, Note_on_c, 7, 67, 127
9, 453084, Note_on_c, 7, 67, 0
9, 453084, Note_on_c, 7, 60, 0
9, 453120, Note_on_c, 7, 67, 127
9, 453120, Note_on_c, 7, 60, 127
9, 453204, Note_on_c, 7, 60, 0
9, 453204, Note_on_c, 7, 67, 0
9, 453240, Note_on_c, 7, 60, 127
9, 453240, Note_on_c, 7, 67, 127
9, 453324, Note_on_c, 7, 67, 0
9, 453324, Note_on_c, 7, 60, 0
9, 453360, Note_on_c, 7, 67, 127
9, 453360, Note_on_c, 7, 60, 127
9, 453444, Note_on_c, 7, 60, 0
9, 453444, Note_on_c, 7, 67, 0
9, 453480, Note_on_c, 7, 60, 127
9, 453480, Note_on_c, 7, 67, 127
9, 453564, Note_on_c, 7, 67, 0
9, 453564, Note_on_c, 7, 60, 0
9, 453600, Note_on_c, 7, 67, 127
9, 453600, Note_on_c, 7, 60, 127
9, 453684, Note_on_c, 7, 60, 0
9, 453684, Note_on_c, 7, 67, 0
9, 453720, Note_on_c, 7, 60, 127
9, 453720, Note_on_c, 7, 67, 127
9, 453804, Note_on_c, 7, 67, 0
9, 453804, Note_on_c, 7, 60, 0
9, 453840, Note_on_c, 7, 64, 127
9, 453924, Note_on_c, 7, 64, 0
9, 453960, Note_on_c, 7, 64, 127
9, 454044, Note_on_c, 7, 64, 0
9, 454080, Note_on_c, 7, 65, 127
9, 454164, Note_on_c, 7, 65, 0
9, 454200, Note_on_c, 7, 72, 127
9, 454284, Note_on_c, 7, 72, 0
9, 454320, Note_on_c, 7, 72, 127
9, 454404, Note_on_c, 7, 72, 0
9, 454440, Note_on_c, 7, 72, 127
9, 454524, Note_on_c, 7, 72, 0
9, 454560, Note_on_c, 7, 72, 127
9, 454644, Note_on_c, 7, 72, 0
9, 454680, Note_on_c, 7, 72, 127
9, 454764, Note_on_c, 7, 72, 0
9, 454800, Note_on_c, 7, 72, 127
9, 454884, Note_on_c, 7, 72, 0
9, 454920, Note_on_c, 7, 72, 127
9, 455004, Note_on_c, 7, 72, 0
9, 455040, Note_on_c, 7, 72, 127
9, 455040, Note_on_c, 7, 62, 127
9, 455124, Note_on_c, 7, 62, 0
9, 455124, Note_on_c, 7, 72, 0
9, 455160, Note_on_c, 7, 62, 127
9, 455160, Note_on_c, 7, 72, 127
9, 455244, Note_on_c, 7, 72, 0
9, 455244, Note_on_c, 7, 62, 0
9, 455280, Note_on_c, 7, 72, 127
9, 455280, Note_on_c, 7, 62, 127
9, 455364, Note_on_c, 7, 62, 0
9, 455364, Note_on_c, 7, 72, 0
9, 455400, Note_on_c, 7, 62, 127
9, 455400, Note_on_c, 7, 72, 127
9, 455484, Note_on_c, 7, 72, 0
9, 455484, Note_on_c, 7, 62, 0
9, 455520, Note_on_c, 7, 72, 127
9, 455520, Note_on_c, 7, 62, 127
9, 455604, Note_on_c, 7, 62, 0
9, 455604, Note_on_c, 7, 72, 0
9, 455640, Note_on_c, 7, 62, 127
9, 455640, Note_on_c, 7, 72, 127
9, 455724, Note_on_c, 7, 72, 0
9, 455724, Note_on_c, 7, 62, 0
9, 455760, Note_on_c, 7, 72, 127
9, 455760, Note_on_c, 7, 62, 127
9, 455844, Note_on_c, 7, 62, 0
9, 455844, Note_on_c, 7, 72, 0
9, 455880, Note_on_c, 7, 62, 127
9, 455880, Note_on_c, 7, 72, 127
9, 455964, Note_on_c, 7, 72, 0
9, 455964, Note_on_c, 7, 62, 0
9, 456000, Note_on_c, 7, 72, 127
9, 456000, Note_on_c, 7, 64, 127
9, 456084, Note_on_c, 7, 64, 0
9, 456084, Note_on_c, 7, 72, 0
9, 456120, Note_on_c, 7, 64, 127
9, 456120, Note_on_c, 7, 72, 127
9, 456204, Note_on_c, 7, 72, 0
9, 456204, Note_on_c, 7, 64, 0
9, 456240, Note_on_c, 7, 64, 127
9, 456240, Note_on_c, 7, 72, 127
9, 456324, Note_on_c, 7, 72, 0
9, 456324, Note_on_c, 7, 64, 0
9, 456360, Note_on_c, 7, 64, 127
9, 456360, Note_on_c, 7, 72, 127
9, 456444, Note_on_c, 7, 72, 0
9, 456444, Note_on_c, 7, 64, 0
9, 456480, Note_on_c, 7, 64, 127
9, 456564, Note_on_c, 7, 64, 0
9, 456600, Note_on_c, 7, 64, 127
9, 456684, Note_on_c, 7, 64, 0
9, 456720, Note_on_c, 7, 64, 127
9, 456804, Note_on_c, 7, 64, 0
9, 456840, Note_on_c, 7, 64, 127
9, 456924, Note_on_c, 7, 64, 0
9, 456960, Note_on_c, 7, 62, 127
9, 457044, Note_on_c, 7, 62, 0
9, 457080, Note_on_c, 7, 62, 127
9, 457164, Note_on_c, 7, 62, 0
9, 457200, Note_on_c, 7, 62, 127
9, 457284, Note_on_c, 7, 62, 0
9, 457320, Note_on_c, 7, 62, 127
9, 457404, Note_on_c, 7, 62, 0
9, 457440, Note_on_c, 7, 65, 127
9, 457524, Note_on_c, 7, 65, 0
9, 457560, Note_on_c, 7, 65, 127
9, 457644, Note_on_c, 7, 65, 0
9, 457680, Note_on_c, 7, 65, 127
9, 457764, Note_on_c, 7, 65, 0
9, 457800, Note_on_c, 7, 65, 127
9, 457884, Note_on_c, 7, 65, 0
9, 457920, Note_on_c, 7, 64, 127
9, 458004, Note_on_c, 7, 64, 0
9, 458040, Note_on_c, 7, 72, 127
9, 458124, Note_on_c, 7, 72, 0
9, 458160, Note_on_c, 7, 72, 127
9, 458244, Note_on_c, 7, 72, 0
9, 458280, Note_on_c, 7, 72, 127
9, 458364, Note_on_c, 7, 72, 0
9, 458400, Note_on_c, 7, 72, 127
9, 458484, Note_on_c, 7, 72, 0
9, 458520, Note_on_c, 7, 72, 127
9, 458604, Note_on_c, 7, 72, 0
9, 458640, Note_on_c, 7, 72, 127
9, 458724, Note_on_c, 7, 72, 0
9, 458760, Note_on_c, 7, 72, 127
9, 458844, Note_on_c, 7, 72, 0
9, 458880, Note_on_c, 7, 72, 127
9, 458964, Note_on_c, 7, 72, 0
9, 459000, Note_on_c, 7, 72, 127
9, 459084, Note_on_c, 7, 72, 0
9, 459120, Note_on_c, 7, 72, 127
9, 459204, Note_on_c, 7, 72, 0
9, 459240, Note_on_c, 7, 72, 127
9, 459324, Note_on_c, 7, 72, 0
9, 459360, Note_on_c, 7, 72, 127
9, 459444, Note_on_c, 7, 72, 0
9, 459480, Note_on_c, 7, 72, 127
9, 459564, Note_on_c, 7, 72, 0
9, 459600, Note_on_c, 7, 72, 127
9, 459684, Note_on_c, 7, 72, 0
9, 459720, Note_on_c, 7, 72, 127
9, 459804, Note_on_c, 7, 72, 0
9, 459840, Note_on_c, 7, 72, 127
9, 459924, Note_on_c, 7, 72, 0
9, 459960, Note_on_c, 7, 76, 127
9, 460044, Note_on_c, 7, 76, 0
9, 460080, Note_on_c, 7, 76, 127
9, 460164, Note_on_c, 7, 76, 0
9, 460200, Note_on_c, 7, 76, 127
9, 460284, Note_on_c, 7, 76, 0
9, 460320, Note_on_c, 7, 76, 127
9, 460404, Note_on_c, 7, 76, 0
9, 460440, Note_on_c, 7, 76, 127
9, 460524, Note_on_c, 7, 76, 0
9, 460560, Note_on_c, 7, 76, 127
9, 460644, Note_on_c, 7, 76, 0
9, 460680, Note_on_c, 7, 76, 127
9, 460764, Note_on_c, 7, 76, 0
9, 460800, Note_on_c, 7, 76, 127
9, 460884, Note_on_c, 7, 76, 0
9, 460920, Note_on_c, 7, 76, 127
9, 461004, Note_on_c, 7, 76, 0
9, 461040, Note_on_c, 7, 76, 127
9, 461124, Note_on_c, 7, 76, 0
9, 461160, Note_on_c, 7, 76, 127
9, 461244, Note_on_c, 7, 76, 0
9, 461280, Note_on_c, 7, 76, 127
9, 461364, Note_on_c, 7, 76, 0
9, 461400, Note_on_c, 7, 76, 127
9, 461484, Note_on_c, 7, 76, 0
9, 461520, Note_on_c, 7, 76, 127
9, 461604, Note_on_c, 7, 76, 0
9, 461640, Note_on_c, 7, 76, 127
9, 461724, Note_on_c, 7, 76, 0
9, 461760, Note_on_c, 7, 77, 127
9, 461880, Note_on_c, 7, 77, 0
9, 461880, Note_on_c, 7, 77, 127
9, 462000, Note_on_c, 7, 77, 0
9, 462000, Note_on_c, 7, 77, 127
9, 462120, Note_on_c, 7, 77, 0
9, 462120, Note_on_c, 7, 77, 127
9, 462240, Note_on_c, 7, 77, 0
9, 462240, Note_on_c, 7, 77, 127
9, 462360, Note_on_c, 7, 77, 0
9, 462360, Note_on_c, 7, 77, 127
9, 462480, Note_on_c, 7, 77, 0
9, 462480, Note_on_c, 7, 77, 127
9, 462600, Note_on_c, 7, 77, 0
9, 462600, Note_on_c, 7, 77, 127
9, 462720, Note_on_c, 7, 77, 0
9, 462720, Note_on_c, 7, 77, 127
9, 463440, Note_on_c, 7, 77, 0
9, 463440, Note_on_c, 7, 76, 127
9, 463560, Note_on_c, 7, 76, 0
9, 463560, Note_on_c, 7, 76, 127
9, 463680, Note_on_c, 7, 76, 0
9, 463680, Note_on_c, 7, 77, 127
9, 463800, Note_on_c, 7, 77, 0
9, 463800, Note_on_c, 7, 77, 127
9, 463920, Note_on_c, 7, 77, 0
9, 463920, Note_on_c, 7, 76, 127
9, 464040, Note_on_c, 7, 76, 0
9, 464040, Note_on_c, 7, 76, 127
9, 464160, Note_on_c, 7, 76, 0
9, 464160, Note_on_c, 7, 77, 127
9, 464280, Note_on_c, 7, 77, 0
9, 464280, Note_on_c, 7, 77, 127
9, 464400, Note_on_c, 7, 77, 0
9, 464400, Note_on_c, 7, 76, 127
9, 464520, Note_on_c, 7, 76, 0
9, 464520, Note_on_c, 7, 76, 127
9, 464640, Note_on_c, 7, 76, 0
9, 464640, Note_on_c, 7, 77, 127
9, 465360, Note_on_c, 7, 77, 0
9, 465360, Note_on_c, 7, 75, 127
9, 465480, Note_on_c, 7, 75, 0
9, 465480, Note_on_c, 7, 75, 127
9, 465600, Note_on_c, 7, 75, 0
9, 465600, Note_on_c, 7, 77, 127
9, 465720, Note_on_c, 7, 77, 0
9, 465720, Note_on_c, 7, 77, 127
9, 465840, Note_on_c, 7, 77, 0
9, 465840, Note_on_c, 7, 75, 127
9, 465960, Note_on_c, 7, 75, 0
9, 465960, Note_on_c, 7, 75, 127
9, 466080, Note_on_c, 7, 75, 0
9, 466080, Note_on_c, 7, 77, 127
9, 466200, Note_on_c, 7, 77, 0
9, 466200, Note_on_c, 7, 77, 127
9, 466320, Note_on_c, 7, 77, 0
9, 466320, Note_on_c, 7, 77, 127
9, 466440, Note_on_c, 7, 77, 0
9, 466440, Note_on_c, 7, 77, 127
9, 466560, Note_on_c, 7, 77, 0
9, 466560, Note_on_c, 7, 78, 127
9, 467280, Note_on_c, 7, 78, 0
9, 467280, Note_on_c, 7, 77, 127
9, 467400, Note_on_c, 7, 77, 0
9, 467400, Note_on_c, 7, 77, 127
9, 467520, Note_on_c, 7, 77, 0
9, 467520, Note_on_c, 7, 78, 127
9, 467640, Note_on_c, 7, 78, 0
9, 467640, Note_on_c, 7, 78, 127
9, 467760, Note_on_c, 7, 78, 0
9, 467760, Note_on_c, 7, 77, 127
9, 467880, Note_on_c, 7, 77, 0
9, 467880, Note_on_c, 7, 77, 127
9, 468000, Note_on_c, 7, 77, 0
9, 468000, Note_on_c, 7, 78, 127
9, 468120, Note_on_c, 7, 78, 0
9, 468120, Note_on_c, 7, 78, 127
9, 468240, Note_on_c, 7, 78, 0
9, 468240, Note_on_c, 7, 78, 127
9, 468360, Note_on_c, 7, 78, 0
9, 468360, Note_on_c, 7, 78, 127
9, 468480, Note_on_c, 7, 78, 0
9, 468480, Note_on_c, 7, 79, 127
9, 468720, Note_on_c, 7, 79, 0
9, 468960, Note_on_c, 7, 72, 127
9, 469200, Note_on_c, 7, 72, 0
9, 469440, Note_on_c, 7, 71, 127
9, 469680, Note_on_c, 7, 71, 0
9, 469920, Note_on_c, 7, 65, 127
9, 469920, Note_on_c, 7, 55, 127
9, 470160, Note_on_c, 7, 55, 0
9, 470160, Note_on_c, 7, 65, 0
9, 470400, Note_on_c, 7, 64, 127
9, 470400, Note_on_c, 7, 55, 127
9, 470880, Note_on_c, 7, 55, 0
9, 470880, Note_on_c, 7, 64, 0
9, 477600, Note_on_c, 7, 69, 127
9, 477768, Note_on_c, 7, 69, 0
9, 477960, Note_on_c, 7, 69, 127
9, 478044, Note_on_c, 7, 69, 0
9, 478080, Note_on_c, 7, 69, 127
9, 478728, Note_on_c, 7, 69, 0
9, 478800, Note_on_c, 7, 74, 127
9, 478884, Note_on_c, 7, 74, 0
9, 478920, Note_on_c, 7, 72, 127
9, 479004, Note_on_c, 7, 72, 0
9, 479040, Note_on_c, 7, 71, 127
9, 479124, Note_on_c, 7, 71, 0
9, 479160, Note_on_c, 7, 72, 118
9, 479244, Note_on_c, 7, 72, 0
9, 479280, Note_on_c, 7, 71, 108
9, 479364, Note_on_c, 7, 71, 0
9, 479400, Note_on_c, 7, 69, 99
9, 479484, Note_on_c, 7, 69, 0
9, 479520, Note_on_c, 7, 67, 89
9, 479604, Note_on_c, 7, 67, 0
9, 479640, Note_on_c, 7, 69, 79
9, 479724, Note_on_c, 7, 69, 0
9, 479760, Note_on_c, 7, 67, 70
9, 479844, Note_on_c, 7, 67, 0
9, 479880, Note_on_c, 7, 65, 60
9, 479964, Note_on_c, 7, 65, 0
9, 480000, Note_on_c, 7, 64, 50
9, 480084, Note_on_c, 7, 64, 0
9, 480120, Note_on_c, 7, 72, 51
9, 480204, Note_on_c, 7, 72, 0
9, 480240, Note_on_c, 7, 72, 53
9, 480324, Note_on_c, 7, 72, 0
9, 480360, Note_on_c, 7, 72, 54
9, 480444, Note_on_c, 7, 72, 0
9, 480480, Note_on_c, 7, 72, 56
9, 480564, Note_on_c, 7, 72, 0
9, 480600, Note_on_c, 7, 72, 58
9, 480684, Note_on_c, 7, 72, 0
9, 480720, Note_on_c, 7, 72, 59
9, 480804, Note_on_c, 7, 72, 0
9, 480840, Note_on_c, 7, 72, 61
9, 480924, Note_on_c, 7, 72, 0
9, 480960, Note_on_c, 7, 72, 62
9, 481044, Note_on_c, 7, 72, 0
9, 481080, Note_on_c, 7, 72, 64
9, 481164, Note_on_c, 7, 72, 0
9, 481200, Note_on_c, 7, 72, 66
9, 481284, Note_on_c, 7, 72, 0
9, 481320, Note_on_c, 7, 72, 67
9, 481404, Note_on_c, 7, 72, 0
9, 481440, Note_on_c, 7, 72, 69
9, 481524, Note_on_c, 7, 72, 0
9, 481560, Note_on_c, 7, 72, 70
9, 481644, Note_on_c, 7, 72, 0
9, 481680, Note_on_c, 7, 72, 72
9, 481764, Note_on_c, 7, 72, 0
9, 481800, Note_on_c, 7, 72, 74
9, 481884, Note_on_c, 7, 72, 0
9, 481920, Note_on_c, 7, 72, 75
9, 482004, Note_on_c, 7, 72, 0
9, 482040, Note_on_c, 7, 72, 77
9, 482124, Note_on_c, 7, 72, 0
9, 482160, Note_on_c, 7, 72, 78
9, 482244, Note_on_c, 7, 72, 0
9, 482280, Note_on_c, 7, 72, 80
9, 482364, Note_on_c, 7, 72, 0
9, 482400, Note_on_c, 7, 71, 82
9, 482484, Note_on_c, 7, 71, 0
9, 482520, Note_on_c, 7, 71, 83
9, 482604, Note_on_c, 7, 71, 0
9, 482640, Note_on_c, 7, 71, 85
9, 482724, Note_on_c, 7, 71, 0
9, 482760, Note_on_c, 7, 71, 86
9, 482844, Note_on_c, 7, 71, 0
9, 482880, Note_on_c, 7, 76, 88
9, 482880, Note_on_c, 7, 84, 88
9, 482964, Note_on_c, 7, 84, 0
9, 482964, Note_on_c, 7, 76, 0
9, 483000, Note_on_c, 7, 76, 90
9, 483000, Note_on_c, 7, 84, 90
9, 483084, Note_on_c, 7, 84, 0
9, 483084, Note_on_c, 7, 76, 0
9, 483120, Note_on_c, 7, 76, 91
9, 483120, Note_on_c, 7, 84, 91
9, 483204, Note_on_c, 7, 84, 0
9, 483204, Note_on_c, 7, 76, 0
9, 483240, Note_on_c, 7, 76, 93
9, 483240, Note_on_c, 7, 84, 93
9, 483324, Note_on_c, 7, 84, 0
9, 483324, Note_on_c, 7, 76, 0
9, 483360, Note_on_c, 7, 76, 94
9, 483360, Note_on_c, 7, 84, 94
9, 483444, Note_on_c, 7, 84, 0
9, 483444, Note_on_c, 7, 76, 0
9, 483480, Note_on_c, 7, 76, 96
9, 483480, Note_on_c, 7, 84, 96
9, 483564, Note_on_c, 7, 84, 0
9, 483564, Note_on_c, 7, 76, 0
9, 483600, Note_on_c, 7, 76, 98
9, 483600, Note_on_c, 7, 84, 98
9, 483684, Note_on_c, 7, 84, 0
9, 483684, Note_on_c, 7, 76, 0
9, 483720, Note_on_c, 7, 84, 99
9, 483720, Note_on_c, 7, 76, 99
9, 483804, Note_on_c, 7, 76, 0
9, 483804, Note_on_c, 7, 84, 0
9, 483840, Note_on_c, 7, 76, 101
9, 483840, Note_on_c, 7, 84, 101
9, 483924, Note_on_c, 7, 84, 0
9, 483924, Note_on_c, 7, 76, 0
9, 483960, Note_on_c, 7, 76, 102
9, 483960, Note_on_c, 7, 84, 102
9, 484044, Note_on_c, 7, 84, 0
9, 484044, Note_on_c, 7, 76, 0
9, 484080, Note_on_c, 7, 76, 104
9, 484080, Note_on_c, 7, 84, 104
9, 484164, Note_on_c, 7, 84, 0
9, 484164, Note_on_c, 7, 76, 0
9, 484200, Note_on_c, 7, 76, 106
9, 484200, Note_on_c, 7, 84, 106
9, 484284, Note_on_c, 7, 84, 0
9, 484284, Note_on_c, 7, 76, 0
9, 484320, Note_on_c, 7, 76, 107
9, 484320, Note_on_c, 7, 84, 107
9, 484404, Note_on_c, 7, 84, 0
9, 484404, Note_on_c, 7, 76, 0
9, 484440, Note_on_c, 7, 76, 109
9, 484440, Note_on_c, 7, 84, 109
9, 484524, Note_on_c, 7, 84, 0
9, 484524, Note_on_c, 7, 76, 0
9, 484560, Note_on_c, 7, 76, 110
9, 484560, Note_on_c, 7, 84, 110
9, 484644, Note_on_c, 7, 84, 0
9, 484644, Note_on_c, 7, 76, 0
9, 484680, Note_on_c, 7, 84, 112
9, 484680, Note_on_c, 7, 76, 112
9, 484764, Note_on_c, 7, 76, 0
9, 484764, Note_on_c, 7, 84, 0
9, 484800, Note_on_c, 7, 74, 114
9, 484800, Note_on_c, 7, 84, 114
9, 484884, Note_on_c, 7, 84, 0
9, 484884, Note_on_c, 7, 74, 0
9, 484920, Note_on_c, 7, 84, 115
9, 484920, Note_on_c, 7, 74, 115
9, 485004, Note_on_c, 7, 74, 0
9, 485004, Note_on_c, 7, 84, 0
9, 485040, Note_on_c, 7, 74, 117
9, 485040, Note_on_c, 7, 84, 117
9, 485124, Note_on_c, 7, 84, 0
9, 485124, Note_on_c, 7, 74, 0
9, 485160, Note_on_c, 7, 84, 118
9, 485160, Note_on_c, 7, 74, 118
9, 485244, Note_on_c, 7, 74, 0
9, 485244, Note_on_c, 7, 84, 0
9, 485280, Note_on_c, 7, 74, 120
9, 485280, Note_on_c, 7, 83, 120
9, 485364, Note_on_c, 7, 83, 0
9, 485364, Note_on_c, 7, 74, 0
9, 485400, Note_on_c, 7, 74, 122
9, 485400, Note_on_c, 7, 83, 122
9, 485484, Note_on_c, 7, 83, 0
9, 485484, Note_on_c, 7, 74, 0
9, 485520, Note_on_c, 7, 74, 123
9, 485520, Note_on_c, 7, 83, 123
9, 485604, Note_on_c, 7, 83, 0
9, 485604, Note_on_c, 7, 74, 0
9, 485640, Note_on_c, 7, 83, 125
9, 485640, Note_on_c, 7, 74, 125
9, 485724, Note_on_c, 7, 74, 0
9, 485724, Note_on_c, 7, 83, 0
9, 485760, Note_on_c, 7, 84, 127
9, 485760, Note_on_c, 7, 76, 127
9, 486000, Note_on_c, 7, 76, 0
9, 486000, Note_on_c, 7, 84, 0
9, 486240, Note_on_c, 7, 64, 50
9, 486720, Note_on_c, 7, 64, 0
9, 486720, Note_on_c, 7, 67, 50
9, 487200, Note_on_c, 7, 67, 0
9, 487200, Note_on_c, 7, 70, 50
9, 487680, Note_on_c, 7, 70, 0
9, 487680, Note_on_c, 7, 69, 50
9, 488640, Note_on_c, 7, 69, 0
9, 488640, Note_on_c, 7, 67, 50
9, 488880, Note_on_c, 7, 67, 0
9, 489120, Note_on_c, 7, 76, 50
9, 489360, Note_on_c, 7, 76, 0
9, 489600, Note_on_c, 7, 72, 50
9, 489840, Note_on_c, 7, 72, 0
9, 490080, Note_on_c, 7, 67, 50
9, 490320, Note_on_c, 7, 67, 0
9, 490560, Note_on_c, 7, 65, 50
9, 491520, Note_on_c, 7, 65, 0
9, 491520, Note_on_c, 7, 64, 50
9, 491904, Note_on_c, 7, 64, 0
9, 492000, Note_on_c, 7, 64, 127
9, 492225, Note_on_c, 7, 64, 0
9, 492360, Note_on_c, 7, 64, 127
9, 492456, Note_on_c, 7, 64, 0
9, 492480, Note_on_c, 7, 64, 127
9, 493152, Note_on_c, 7, 64, 0
9, 493200, Note_on_c, 7, 64, 127
9, 493272, Note_on_c, 7, 64, 0
9, 493320, Note_on_c, 7, 65, 127
9, 493392, Note_on_c, 7, 65, 0
9, 493440, Note_on_c, 7, 67, 127
9, 493512, Note_on_c, 7, 67, 0
9, 493560, Note_on_c, 7, 65, 127
9, 493632, Note_on_c, 7, 65, 0
9, 493680, Note_on_c, 7, 67, 127
9, 493752, Note_on_c, 7, 67, 0
9, 493800, Note_on_c, 7, 69, 127
9, 493872, Note_on_c, 7, 69, 0
9, 493920, Note_on_c, 7, 70, 127
9, 493992, Note_on_c, 7, 70, 0
9, 494040, Note_on_c, 7, 69, 127
9, 494112, Note_on_c, 7, 69, 0
9, 494160, Note_on_c, 7, 67, 127
9, 494232, Note_on_c, 7, 67, 0
9, 494280, Note_on_c, 7, 65, 127
9, 494352, Note_on_c, 7, 65, 0
9, 494400, Note_on_c, 7, 64, 127
9, 494880, Note_on_c, 7, 64, 0
9, 495360, Note_on_c, 7, 79, 50
9, 496320, Note_on_c, 7, 79, 0
9, 496320, Note_on_c, 7, 77, 50
9, 497280, Note_on_c, 7, 77, 0
9, 497280, Note_on_c, 7, 73, 50
9, 498240, Note_on_c, 7, 73, 0
9, 498240, Note_on_c, 7, 74, 50
9, 499200, Note_on_c, 7, 74, 0
9, 499200, Note_on_c, 7, 77, 50
9, 500160, Note_on_c, 7, 77, 0
9, 500160, Note_on_c, 7, 76, 50
9, 501120, Note_on_c, 7, 76, 0
9, 501120, Note_on_c, 7, 71, 50
9, 502080, Note_on_c, 7, 71, 0
9, 502080, Note_on_c, 7, 72, 50
9, 505918, Note_on_c, 7, 72, 0
9, 505920, Note_on_c, 7, 74, 50
9, 506880, Note_on_c, 7, 74, 0
9, 510240, Note_on_c, 7, 72, 61
9, 510576, Note_on_c, 7, 72, 0
9, 510720, Note_on_c, 7, 71, 62
9, 511056, Note_on_c, 7, 71, 0
9, 511200, Note_on_c, 7, 76, 63
9, 511798, Note_on_c, 7, 76, 0
9, 511800, Note_on_c, 7, 74, 65
9, 511920, Note_on_c, 7, 74, 0
9, 511920, Note_on_c, 7, 72, 65
9, 512040, Note_on_c, 7, 72, 0
9, 512040, Note_on_c, 7, 71, 65
9, 512160, Note_on_c, 7, 71, 0
9, 512160, Note_on_c, 7, 72, 66
9, 512280, Note_on_c, 7, 72, 0
9, 512280, Note_on_c, 7, 71, 66
9, 512400, Note_on_c, 7, 71, 0
9, 512400, Note_on_c, 7, 69, 66
9, 512520, Note_on_c, 7, 69, 0
9, 512520, Note_on_c, 7, 67, 66
9, 512640, Note_on_c, 7, 67, 0
9, 512640, Note_on_c, 7, 66, 67
9, 512976, Note_on_c, 7, 66, 0
9, 513120, Note_on_c, 7, 74, 68
9, 513456, Note_on_c, 7, 74, 0
9, 514560, Note_on_c, 7, 72, 72
9, 515520, Note_on_c, 7, 72, 0
9, 515520, Note_on_c, 7, 74, 74
9, 516480, Note_on_c, 7, 74, 0
9, 516480, Note_on_c, 7, 77, 77
9, 517440, Note_on_c, 7, 77, 0
9, 517440, Note_on_c, 7, 76, 79
9, 518400, Note_on_c, 7, 76, 0
9, 518640, Note_on_c, 7, 67, 82
9, 518760, Note_on_c, 7, 67, 0
9, 518880, Note_on_c, 7, 69, 83
9, 519000, Note_on_c, 7, 69, 0
9, 519120, Note_on_c, 7, 71, 83
9, 519240, Note_on_c, 7, 71, 0
9, 519360, Note_on_c, 7, 74, 84
9, 519408, Note_on_c, 7, 74, 0
9, 519420, Note_on_c, 7, 72, 84
9, 519468, Note_on_c, 7, 72, 0
9, 519480, Note_on_c, 7, 74, 84
9, 519528, Note_on_c, 7, 74, 0
9, 519540, Note_on_c, 7, 72, 84
9, 519588, Note_on_c, 7, 72, 0
9, 519720, Note_on_c, 7, 74, 85
9, 519840, Note_on_c, 7, 74, 0
9, 519840, Note_on_c, 7, 76, 85
9, 520320, Note_on_c, 7, 76, 0
9, 520560, Note_on_c, 7, 62, 87
9, 520800, Note_on_c, 7, 62, 0
9, 520800, Note_on_c, 7, 64, 88
9, 521040, Note_on_c, 7, 64, 0
9, 521040, Note_on_c, 7, 66, 88
9, 521280, Note_on_c, 7, 66, 0
9, 521280, Note_on_c, 7, 69, 89
9, 521340, Note_on_c, 7, 69, 0
9, 521340, Note_on_c, 7, 67, 89
9, 521400, Note_on_c, 7, 67, 0
9, 521400, Note_on_c, 7, 69, 89
9, 521460, Note_on_c, 7, 69, 0
9, 521460, Note_on_c, 7, 67, 89
9, 521520, Note_on_c, 7, 67, 0
9, 521640, Note_on_c, 7, 69, 90
9, 521724, Note_on_c, 7, 69, 0
9, 521760, Note_on_c, 7, 71, 90
9, 522144, Note_on_c, 7, 71, 0
9, 523440, Note_on_c, 7, 81, 94
9, 523560, Note_on_c, 7, 81, 0
9, 523680, Note_on_c, 7, 74, 95
9, 523800, Note_on_c, 7, 74, 0
9, 523920, Note_on_c, 7, 77, 96
9, 524040, Note_on_c, 7, 77, 0
9, 524160, Note_on_c, 7, 67, 96
9, 524280, Note_on_c, 7, 67, 0
9, 524400, Note_on_c, 7, 71, 97
9, 524520, Note_on_c, 7, 71, 0
9, 524640, Note_on_c, 7, 72, 98
9, 524760, Note_on_c, 7, 72, 0
9, 524880, Note_on_c, 7, 74, 98
9, 525000, Note_on_c, 7, 74, 0
9, 525120, Note_on_c, 7, 77, 99
9, 525180, Note_on_c, 7, 77, 0
9, 525180, Note_on_c, 7, 76, 99
9, 525240, Note_on_c, 7, 76, 0
9, 525240, Note_on_c, 7, 77, 99
9, 525300, Note_on_c, 7, 77, 0
9, 525300, Note_on_c, 7, 76, 99
9, 525360, Note_on_c, 7, 76, 0
9, 525480, Note_on_c, 7, 77, 100
9, 525564, Note_on_c, 7, 77, 0
9, 525600, Note_on_c, 7, 79, 100
9, 525984, Note_on_c, 7, 79, 0
9, 526560, Note_on_c, 7, 79, 102
9, 526785, Note_on_c, 7, 79, 0
9, 526920, Note_on_c, 7, 79, 103
9, 527040, Note_on_c, 7, 79, 0
9, 527040, Note_on_c, 7, 79, 104
9, 527664, Note_on_c, 7, 79, 0
9, 527760, Note_on_c, 7, 78, 106
9, 527832, Note_on_c, 7, 78, 0
9, 527880, Note_on_c, 7, 76, 106
9, 527952, Note_on_c, 7, 76, 0
9, 528000, Note_on_c, 7, 74, 106
9, 528072, Note_on_c, 7, 74, 0
9, 528120, Note_on_c, 7, 76, 106
9, 528192, Note_on_c, 7, 76, 0
9, 528240, Note_on_c, 7, 74, 107
9, 528312, Note_on_c, 7, 74, 0
9, 528360, Note_on_c, 7, 72, 107
9, 528432, Note_on_c, 7, 72, 0
9, 528480, Note_on_c, 7, 71, 107
9, 528552, Note_on_c, 7, 71, 0
9, 528600, Note_on_c, 7, 72, 108
9, 528672, Note_on_c, 7, 72, 0
9, 528720, Note_on_c, 7, 71, 108
9, 528792, Note_on_c, 7, 71, 0
9, 528840, Note_on_c, 7, 69, 108
9, 528912, Note_on_c, 7, 69, 0
9, 528960, Note_on_c, 7, 67, 109
9, 529296, Note_on_c, 7, 67, 0
9, 529440, Note_on_c, 7, 79, 110
9, 529776, Note_on_c, 7, 79, 0
9, 529920, Note_on_c, 7, 76, 111
9, 530256, Note_on_c, 7, 76, 0
9, 530400, Note_on_c, 7, 81, 112
9, 530964, Note_on_c, 7, 81, 0
9, 531000, Note_on_c, 7, 79, 114
9, 531084, Note_on_c, 7, 79, 0
9, 531120, Note_on_c, 7, 77, 114
9, 531204, Note_on_c, 7, 77, 0
9, 531240, Note_on_c, 7, 76, 114
9, 531324, Note_on_c, 7, 76, 0
9, 531360, Note_on_c, 7, 77, 115
9, 531444, Note_on_c, 7, 77, 0
9, 531480, Note_on_c, 7, 76, 115
9, 531564, Note_on_c, 7, 76, 0
9, 531600, Note_on_c, 7, 74, 115
9, 531684, Note_on_c, 7, 74, 0
9, 531720, Note_on_c, 7, 72, 116
9, 531804, Note_on_c, 7, 72, 0
9, 531840, Note_on_c, 7, 71, 116
9, 532320, Note_on_c, 7, 71, 0
9, 532320, Note_on_c, 7, 79, 117
9, 532800, Note_on_c, 7, 79, 0
9, 533040, Note_on_c, 7, 60, 119
9, 533160, Note_on_c, 7, 60, 0
9, 533280, Note_on_c, 7, 62, 120
9, 533400, Note_on_c, 7, 62, 0
9, 533520, Note_on_c, 7, 64, 120
9, 533640, Note_on_c, 7, 64, 0
9, 533760, Note_on_c, 7, 67, 121
9, 533820, Note_on_c, 7, 67, 0
9, 533820, Note_on_c, 7, 65, 121
9, 533880, Note_on_c, 7, 65, 0
9, 533880, Note_on_c, 7, 67, 121
9, 533940, Note_on_c, 7, 67, 0
9, 533940, Note_on_c, 7, 65, 121
9, 534000, Note_on_c, 7, 65, 0
9, 534120, Note_on_c, 7, 67, 122
9, 534204, Note_on_c, 7, 67, 0
9, 534240, Note_on_c, 7, 69, 122
9, 534624, Note_on_c, 7, 69, 0
9, 534960, Note_on_c, 7, 55, 124
9, 535080, Note_on_c, 7, 55, 0
9, 535200, Note_on_c, 7, 57, 125
9, 535320, Note_on_c, 7, 57, 0
9, 535440, Note_on_c, 7, 59, 125
9, 535560, Note_on_c, 7, 59, 0
9, 535680, Note_on_c, 7, 60, 126
9, 535800, Note_on_c, 7, 60, 0
9, 535920, Note_on_c, 7, 72, 127
9, 536040, Note_on_c, 7, 72, 0
9, 536160, Note_on_c, 7, 72, 127
9, 536280, Note_on_c, 7, 72, 0
9, 536400, Note_on_c, 7, 72, 127
9, 536520, Note_on_c, 7, 72, 0
9, 536640, Note_on_c, 7, 72, 127
9, 537360, Note_on_c, 7, 72, 0
9, 537360, Note_on_c, 7, 71, 127
9, 537420, Note_on_c, 7, 71, 0
9, 537420, Note_on_c, 7, 69, 127
9, 537480, Note_on_c, 7, 69, 0
9, 537480, Note_on_c, 7, 67, 127
9, 537540, Note_on_c, 7, 67, 0
9, 537540, Note_on_c, 7, 65, 127
9, 537600, Note_on_c, 7, 65, 0
9, 537600, Note_on_c, 7, 64, 127
9, 537840, Note_on_c, 7, 64, 0
9, 537840, Note_on_c, 7, 64, 127
9, 537960, Note_on_c, 7, 64, 0
9, 537960, Note_on_c, 7, 64, 127
9, 538080, Note_on_c, 7, 64, 0
9, 538080, Note_on_c, 7, 59, 127
9, 538320, Note_on_c, 7, 59, 0
9, 538320, Note_on_c, 7, 59, 127
9, 538440, Note_on_c, 7, 59, 0
9, 538440, Note_on_c, 7, 59, 127
9, 538560, Note_on_c, 7, 59, 0
9, 538560, Note_on_c, 7, 60, 127
9, 538680, Note_on_c, 7, 60, 0
9, 538800, Note_on_c, 7, 72, 127
9, 538920, Note_on_c, 7, 72, 0
9, 539040, Note_on_c, 7, 72, 127
9, 539160, Note_on_c, 7, 72, 0
9, 539280, Note_on_c, 7, 72, 127
9, 539400, Note_on_c, 7, 72, 0
9, 539520, Note_on_c, 7, 72, 127
9, 540240, Note_on_c, 7, 72, 0
9, 540240, Note_on_c, 7, 81, 127
9, 540360, Note_on_c, 7, 81, 0
9, 540360, Note_on_c, 7, 77, 127
9, 540480, Note_on_c, 7, 77, 0
9, 540480, Note_on_c, 7, 77, 127
9, 540593, Note_on_c, 7, 77, 0
9, 540600, Note_on_c, 7, 76, 127
9, 540713, Note_on_c, 7, 76, 0
9, 540720, Note_on_c, 7, 74, 127
9, 540833, Note_on_c, 7, 74, 0
9, 540840, Note_on_c, 7, 72, 127
9, 540953, Note_on_c, 7, 72, 0
9, 540960, Note_on_c, 7, 67, 127
9, 541073, Note_on_c, 7, 67, 0
9, 541080, Note_on_c, 7, 65, 127
9, 541193, Note_on_c, 7, 65, 0
9, 541200, Note_on_c, 7, 64, 127
9, 541313, Note_on_c, 7, 64, 0
9, 541320, Note_on_c, 7, 62, 127
9, 541433, Note_on_c, 7, 62, 0
9, 541440, Note_on_c, 7, 64, 127
9, 541680, Note_on_c, 7, 64, 0
9, 544800, Note_on_c, 7, 72, 127
9, 544968, Note_on_c, 7, 72, 0
9, 545160, Note_on_c, 7, 72, 127
9, 545244, Note_on_c, 7, 72, 0
9, 545280, Note_on_c, 7, 72, 127
9, 545928, Note_on_c, 7, 72, 0
9, 546000, Note_on_c, 7, 71, 127
9, 546084, Note_on_c, 7, 71, 0
9, 546120, Note_on_c, 7, 69, 127
9, 546204, Note_on_c, 7, 69, 0
9, 546240, Note_on_c, 7, 67, 127
9, 546324, Note_on_c, 7, 67, 0
9, 546360, Note_on_c, 7, 69, 127
9, 546444, Note_on_c, 7, 69, 0
9, 546480, Note_on_c, 7, 67, 127
9, 546564, Note_on_c, 7, 67, 0
9, 546600, Note_on_c, 7, 65, 127
9, 546684, Note_on_c, 7, 65, 0
9, 546720, Note_on_c, 7, 64, 127
9, 546804, Note_on_c, 7, 64, 0
9, 546840, Note_on_c, 7, 65, 127
9, 546924, Note_on_c, 7, 65, 0
9, 546960, Note_on_c, 7, 64, 127
9, 547044, Note_on_c, 7, 64, 0
9, 547080, Note_on_c, 7, 62, 127
9, 547164, Note_on_c, 7, 62, 0
9, 547200, Note_on_c, 7, 60, 127
9, 547440, Note_on_c, 7, 60, 0
9, 547680, Note_on_c, 7, 76, 127
9, 547905, Note_on_c, 7, 76, 0
9, 548040, Note_on_c, 7, 76, 127
9, 548160, Note_on_c, 7, 76, 0
9, 548160, Note_on_c, 7, 76, 127
9, 548880, Note_on_c, 7, 76, 0
9, 548880, Note_on_c, 7, 74, 127
9, 548964, Note_on_c, 7, 74, 0
9, 549000, Note_on_c, 7, 72, 127
9, 549084, Note_on_c, 7, 72, 0
9, 549120, Note_on_c, 7, 71, 127
9, 549204, Note_on_c, 7, 71, 0
9, 549240, Note_on_c, 7, 72, 127
9, 549324, Note_on_c, 7, 72, 0
9, 549360, Note_on_c, 7, 71, 127
9, 549444, Note_on_c, 7, 71, 0
9, 549480, Note_on_c, 7, 69, 127
9, 549564, Note_on_c, 7, 69, 0
9, 549600, Note_on_c, 7, 67, 127
9, 549684, Note_on_c, 7, 67, 0
9, 549720, Note_on_c, 7, 69, 127
9, 549804, Note_on_c, 7, 69, 0
9, 549840, Note_on_c, 7, 67, 127
9, 549924, Note_on_c, 7, 67, 0
9, 549960, Note_on_c, 7, 65, 127
9, 550044, Note_on_c, 7, 65, 0
9, 550080, Note_on_c, 7, 64, 127
9, 550200, Note_on_c, 7, 64, 0
9, 550320, Note_on_c, 7, 77, 127
9, 550320, Note_on_c, 7, 74, 127
9, 550440, Note_on_c, 7, 74, 0
9, 550440, Note_on_c, 7, 77, 0
9, 550560, Note_on_c, 7, 76, 127
9, 550560, Note_on_c, 7, 72, 127
9, 550680, Note_on_c, 7, 72, 0
9, 550680, Note_on_c, 7, 76, 0
9, 550800, Note_on_c, 7, 74, 127
9, 550800, Note_on_c, 7, 77, 127
9, 550920, Note_on_c, 7, 77, 0
9, 550920, Note_on_c, 7, 74, 0
9, 551040, Note_on_c, 7, 76, 127
9, 551040, Note_on_c, 7, 72, 127
9, 551160, Note_on_c, 7, 72, 0
9, 551160, Note_on_c, 7, 76, 0
9, 551280, Note_on_c, 7, 77, 127
9, 551280, Note_on_c, 7, 74, 127
9, 551400, Note_on_c, 7, 74, 0
9, 551400, Note_on_c, 7, 77, 0
9, 551520, Note_on_c, 7, 76, 127
9, 551520, Note_on_c, 7, 72, 127
9, 551640, Note_on_c, 7, 72, 0
9, 551640, Note_on_c, 7, 76, 0
9, 551760, Note_on_c, 7, 74, 127
9, 551760, Note_on_c, 7, 77, 127
9, 551880, Note_on_c, 7, 77, 0
9, 551880, Note_on_c, 7, 74, 0
9, 552000, Note_on_c, 7, 76, 127
9, 552000, Note_on_c, 7, 72, 127
9, 552480, Note_on_c, 7, 72, 0
9, 552480, Note_on_c, 7, 76, 0
9, 552960, Note_on_c, 7, 67, 127
9, 552960, Note_on_c, 7, 60, 127
9, 552960, Note_on_c, 7, 76, 127
9, 553344, Note_on_c, 7, 76, 0
9, 553344, Note_on_c, 7, 60, 0
9, 553344, Note_on_c, 7, 67, 0
9, 553440, Note_on_c, 7, 67, 127
9, 553440, Note_on_c, 7, 60, 127
9, 553440, Note_on_c, 7, 76, 127
9, 553824, Note_on_c, 7, 76, 0
9, 553824, Note_on_c, 7, 60, 0
9, 553824, Note_on_c, 7, 67, 0
9, 553920, Note_on_c, 7, 67, 127
9, 553920, Note_on_c, 7, 60, 127
9, 553920, Note_on_c, 7, 76, 127
9, 554513, Note_on_c, 7, 76, 0
9, 554513, Note_on_c, 7, 60, 0
9, 554513, Note_on_c, 7, 67, 0
9, 554880, Note_on_c, 7, 67, 127
9, 554880, Note_on_c, 7, 60, 127
9, 554880, Note_on_c, 7, 76, 127
9, 555288, Note_on_c, 7, 76, 0
9, 555288, Note_on_c, 7, 60, 0
9, 555288, Note_on_c, 7, 67, 0
9, 555360, Note_on_c, 7, 67, 127
9, 555360, Note_on_c, 7, 60, 127
9, 555360, Note_on_c, 7, 76, 127
9, 555768, Note_on_c, 7, 76, 0
9, 555768, Note_on_c, 7, 60, 0
9, 555768, Note_on_c, 7, 67, 0
9, 555840, Note_on_c, 7, 67, 127
9, 555840, Note_on_c, 7, 60, 127
9, 555840, Note_on_c, 7, 76, 127
9, 556524, Note_on_c, 7, 76, 0
9, 556524, Note_on_c, 7, 60, 0
9, 556524, Note_on_c, 7, 67, 0
9, 556524, End_track
10, 0, Start_track
10, 0, Title_t, "Viola"
10, 0, Program_c, 8, 48
10, 0, Control_c, 8, 7, 110
10, 0, Control_c, 8, 10, 86
10, 3840, Note_on_c, 8, 65, 50
10, 4800, Note_on_c, 8, 65, 0
10, 4800, Note_on_c, 8, 64, 50
10, 5760, Note_on_c, 8, 64, 0
10, 5760, Note_on_c, 8, 62, 50
10, 6000, Note_on_c, 8, 62, 0
10, 6240, Note_on_c, 8, 60, 50
10, 6480, Note_on_c, 8, 60, 0
10, 6720, Note_on_c, 8, 55, 50
10, 6960, Note_on_c, 8, 55, 0
10, 8400, Note_on_c, 8, 60, 100
10, 8480, Note_on_c, 8, 60, 0
10, 8480, Note_on_c, 8, 59, 100
10, 8560, Note_on_c, 8, 59, 0
10, 8560, Note_on_c, 8, 57, 100
10, 8640, Note_on_c, 8, 57, 0
10, 8640, Note_on_c, 8, 55, 100
10, 9120, Note_on_c, 8, 55, 0
10, 9360, Note_on_c, 8, 74, 100
10, 9420, Note_on_c, 8, 74, 0
10, 9420, Note_on_c, 8, 72, 100
10, 9480, Note_on_c, 8, 72, 0
10, 9480, Note_on_c, 8, 71, 100
10, 9540, Note_on_c, 8, 71, 0
10, 9540, Note_on_c, 8, 69, 100
10, 9600, Note_on_c, 8, 69, 0
10, 9600, Note_on_c, 8, 67, 100
10, 10080, Note_on_c, 8, 67, 0
10, 10320, Note_on_c, 8, 67, 100
10, 10380, Note_on_c, 8, 67, 0
10, 10380, Note_on_c, 8, 65, 100
10, 10440, Note_on_c, 8, 65, 0
10, 10440, Note_on_c, 8, 64, 100
10, 10500, Note_on_c, 8, 64, 0
10, 10500, Note_on_c, 8, 62, 100
10, 10560, Note_on_c, 8, 62, 0
10, 10560, Note_on_c, 8, 60, 100
10, 11040, Note_on_c, 8, 60, 0
10, 11280, Note_on_c, 8, 60, 100
10, 11340, Note_on_c, 8, 60, 0
10, 11340, Note_on_c, 8, 59, 100
10, 11400, Note_on_c, 8, 59, 0
10, 11400, Note_on_c, 8, 57, 100
10, 11460, Note_on_c, 8, 57, 0
10, 11460, Note_on_c, 8, 55, 100
10, 11520, Note_on_c, 8, 55, 0
10, 11520, Note_on_c, 8, 53, 100
10, 11640, Note_on_c, 8, 53, 0
10, 11760, Note_on_c, 8, 65, 127
10, 11880, Note_on_c, 8, 65, 0
10, 12000, Note_on_c, 8, 65, 127
10, 12120, Note_on_c, 8, 65, 0
10, 12240, Note_on_c, 8, 65, 127
10, 12360, Note_on_c, 8, 65, 0
10, 12480, Note_on_c, 8, 65, 127
10, 12600, Note_on_c, 8, 65, 0
10, 12720, Note_on_c, 8, 65, 127
10, 12840, Note_on_c, 8, 65, 0
10, 12960, Note_on_c, 8, 65, 127
10, 13080, Note_on_c, 8, 65, 0
10, 13200, Note_on_c, 8, 65, 127
10, 13320, Note_on_c, 8, 65, 0
10, 13440, Note_on_c, 8, 67, 127
10, 13560, Note_on_c, 8, 67, 0
10, 13680, Note_on_c, 8, 67, 127
10, 13800, Note_on_c, 8, 67, 0
10, 13920, Note_on_c, 8, 55, 127
10, 14040, Note_on_c, 8, 55, 0
10, 14160, Note_on_c, 8, 55, 127
10, 14280, Note_on_c, 8, 55, 0
10, 14400, Note_on_c, 8, 60, 127
10, 14520, Note_on_c, 8, 60, 0
10, 14640, Note_on_c, 8, 53, 127
10, 14760, Note_on_c, 8, 53, 0
10, 14880, Note_on_c, 8, 65, 127
10, 15000, Note_on_c, 8, 65, 0
10, 15120, Note_on_c, 8, 65, 127
10, 15240, Note_on_c, 8, 65, 0
10, 15360, Note_on_c, 8, 65, 127
10, 15480, Note_on_c, 8, 65, 0
10, 15600, Note_on_c, 8, 65, 127
10, 15720, Note_on_c, 8, 65, 0
10, 15840, Note_on_c, 8, 65, 127
10, 15960, Note_on_c, 8, 65, 0
10, 16080, Note_on_c, 8, 65, 127
10, 16200, Note_on_c, 8, 65, 0
10, 16320, Note_on_c, 8, 67, 127
10, 16440, Note_on_c, 8, 67, 0
10, 16560, Note_on_c, 8, 67, 127
10, 16680, Note_on_c, 8, 67, 0
10, 16800, Note_on_c, 8, 55, 127
10, 16920, Note_on_c, 8, 55, 0
10, 17040, Note_on_c, 8, 55, 127
10, 17160, Note_on_c, 8, 55, 0
10, 17280, Note_on_c, 8, 60, 127
10, 17520, Note_on_c, 8, 60, 0
10, 20160, Note_on_c, 8, 60, 127
10, 20232, Note_on_c, 8, 60, 0
10, 20280, Note_on_c, 8, 55, 127
10, 20352, Note_on_c, 8, 55, 0
10, 20400, Note_on_c, 8, 57, 127
10, 20472, Note_on_c, 8, 57, 0
10, 20520, Note_on_c, 8, 59, 127
10, 20592, Note_on_c, 8, 59, 0
10, 20640, Note_on_c, 8, 60, 127
10, 20712, Note_on_c, 8, 60, 0
10, 20760, Note_on_c, 8, 59, 127
10, 20832, Note_on_c, 8, 59, 0
10, 20880, Note_on_c, 8, 60, 127
10, 20952, Note_on_c, 8, 60, 0
10, 21000, Note_on_c, 8, 62, 127
10, 21072, Note_on_c, 8, 62, 0
10, 21120, Note_on_c, 8, 64, 127
10, 21264, Note_on_c, 8, 64, 0
10, 21360, Note_on_c, 8, 48, 127
10, 21480, Note_on_c, 8, 48, 0
10, 21480, Note_on_c, 8, 50, 127
10, 21552, Note_on_c, 8, 50, 0
10, 21600, Note_on_c, 8, 52, 127
10, 21672, Note_on_c, 8, 52, 0
10, 21720, Note_on_c, 8, 50, 127
10, 21792, Note_on_c, 8, 50, 0
10, 21840, Note_on_c, 8, 52, 127
10, 21912, Note_on_c, 8, 52, 0
10, 21960, Note_on_c, 8, 53, 127
10, 22032, Note_on_c, 8, 53, 0
10, 22080, Note_on_c, 8, 55, 127
10, 22152, Note_on_c, 8, 55, 0
10, 22200, Note_on_c, 8, 54, 127
10, 22272, Note_on_c, 8, 54, 0
10, 22320, Note_on_c, 8, 55, 127
10, 22392, Note_on_c, 8, 55, 0
10, 22440, Note_on_c, 8, 57, 127
10, 22512, Note_on_c, 8, 57, 0
10, 22560, Note_on_c, 8, 59, 127
10, 22632, Note_on_c, 8, 59, 0
10, 22680, Note_on_c, 8, 55, 127
10, 22752, Note_on_c, 8, 55, 0
10, 22800, Note_on_c, 8, 57, 127
10, 22872, Note_on_c, 8, 57, 0
10, 22920, Note_on_c, 8, 59, 127
10, 23040, Note_on_c, 8, 59, 0
10, 23040, Note_on_c, 8, 60, 127
10, 23280, Note_on_c, 8, 60, 0
10, 23520, Note_on_c, 8, 72, 127
10, 23745, Note_on_c, 8, 72, 0
10, 23880, Note_on_c, 8, 72, 127
10, 24000, Note_on_c, 8, 72, 0
10, 24000, Note_on_c, 8, 72, 127
10, 24600, Note_on_c, 8, 72, 0
10, 24720, Note_on_c, 8, 71, 127
10, 24840, Note_on_c, 8, 71, 0
10, 24840, Note_on_c, 8, 69, 127
10, 24960, Note_on_c, 8, 69, 0
10, 24960, Note_on_c, 8, 67, 127
10, 25044, Note_on_c, 8, 67, 0
10, 25080, Note_on_c, 8, 69, 127
10, 25164, Note_on_c, 8, 69, 0
10, 25200, Note_on_c, 8, 67, 127
10, 25284, Note_on_c, 8, 67, 0
10, 25320, Note_on_c, 8, 65, 127
10, 25404, Note_on_c, 8, 65, 0
10, 25440, Note_on_c, 8, 64, 127
10, 25524, Note_on_c, 8, 64, 0
10, 25560, Note_on_c, 8, 65, 127
10, 25644, Note_on_c, 8, 65, 0
10, 25680, Note_on_c, 8, 64, 127
10, 25764, Note_on_c, 8, 64, 0
10, 25800, Note_on_c, 8, 62, 127
10, 25884, Note_on_c, 8, 62, 0
10, 25920, Note_on_c, 8, 60, 127
10, 26040, Note_on_c, 8, 60, 0
10, 26160, Note_on_c, 8, 67, 127
10, 26280, Note_on_c, 8, 67, 0
10, 26400, Note_on_c, 8, 72, 127
10, 26520, Note_on_c, 8, 72, 0
10, 26640, Note_on_c, 8, 67, 127
10, 26760, Note_on_c, 8, 67, 0
10, 26880, Note_on_c, 8, 72, 127
10, 27000, Note_on_c, 8, 72, 0
10, 27120, Note_on_c, 8, 67, 127
10, 27240, Note_on_c, 8, 67, 0
10, 27360, Note_on_c, 8, 72, 127
10, 27480, Note_on_c, 8, 72, 0
10, 27600, Note_on_c, 8, 67, 127
10, 27720, Note_on_c, 8, 67, 0
10, 27840, Note_on_c, 8, 72, 127
10, 27924, Note_on_c, 8, 72, 0
10, 27960, Note_on_c, 8, 71, 127
10, 28044, Note_on_c, 8, 71, 0
10, 28080, Note_on_c, 8, 69, 127
10, 28164, Note_on_c, 8, 69, 0
10, 28200, Note_on_c, 8, 67, 127
10, 28284, Note_on_c, 8, 67, 0
10, 28320, Note_on_c, 8, 72, 127
10, 28404, Note_on_c, 8, 72, 0
10, 28440, Note_on_c, 8, 71, 127
10, 28524, Note_on_c, 8, 71, 0
10, 28560, Note_on_c, 8, 69, 127
10, 28644, Note_on_c, 8, 69, 0
10, 28680, Note_on_c, 8, 67, 127
10, 28764, Note_on_c, 8, 67, 0
10, 28800, Note_on_c, 8, 72, 127
10, 28884, Note_on_c, 8, 72, 0
10, 28920, Note_on_c, 8, 71, 127
10, 29004, Note_on_c, 8, 71, 0
10, 29040, Note_on_c, 8, 69, 127
10, 29124, Note_on_c, 8, 69, 0
10, 29160, Note_on_c, 8, 67, 127
10, 29244, Note_on_c, 8, 67, 0
10, 29280, Note_on_c, 8, 65, 127
10, 29364, Note_on_c, 8, 65, 0
10, 29400, Note_on_c, 8, 64, 127
10, 29484, Note_on_c, 8, 64, 0
10, 29520, Note_on_c, 8, 62, 127
10, 29604, Note_on_c, 8, 62, 0
10, 29640, Note_on_c, 8, 60, 127
10, 29724, Note_on_c, 8, 60, 0
10, 29760, Note_on_c, 8, 55, 127
10, 29880, Note_on_c, 8, 55, 0
10, 30000, Note_on_c, 8, 67, 127
10, 30120, Note_on_c, 8, 67, 0
10, 30240, Note_on_c, 8, 67, 127
10, 30360, Note_on_c, 8, 67, 0
10, 30480, Note_on_c, 8, 67, 127
10, 30600, Note_on_c, 8, 67, 0
10, 30720, Note_on_c, 8, 67, 127
10, 30840, Note_on_c, 8, 67, 0
10, 30960, Note_on_c, 8, 67, 127
10, 31080, Note_on_c, 8, 67, 0
10, 31200, Note_on_c, 8, 67, 127
10, 31320, Note_on_c, 8, 67, 0
10, 31440, Note_on_c, 8, 67, 127
10, 31560, Note_on_c, 8, 67, 0
10, 31680, Note_on_c, 8, 67, 127
10, 31800, Note_on_c, 8, 67, 0
10, 31920, Note_on_c, 8, 67, 127
10, 32040, Note_on_c, 8, 67, 0
10, 32160, Note_on_c, 8, 67, 127
10, 32280, Note_on_c, 8, 67, 0
10, 32400, Note_on_c, 8, 67, 127
10, 32520, Note_on_c, 8, 67, 0
10, 32640, Note_on_c, 8, 67, 127
10, 33120, Note_on_c, 8, 67, 0
10, 40320, Note_on_c, 8, 60, 50
10, 41280, Note_on_c, 8, 60, 0
10, 41280, Note_on_c, 8, 62, 50
10, 42240, Note_on_c, 8, 62, 0
10, 42240, Note_on_c, 8, 65, 50
10, 43438, Note_on_c, 8, 65, 0
10, 43440, Note_on_c, 8, 67, 50
10, 43560, Note_on_c, 8, 67, 0
10, 43560, Note_on_c, 8, 65, 50
10, 43680, Note_on_c, 8, 65, 0
10, 43680, Note_on_c, 8, 64, 50
10, 43800, Note_on_c, 8, 64, 0
10, 43920, Note_on_c, 8, 62, 50
10, 44040, Note_on_c, 8, 62, 0
10, 44160, Note_on_c, 8, 60, 50
10, 44878, Note_on_c, 8, 60, 0
10, 44880, Note_on_c, 8, 62, 50
10, 45120, Note_on_c, 8, 62, 0
10, 45120, Note_on_c, 8, 64, 50
10, 46080, Note_on_c, 8, 64, 0
10, 46080, Note_on_c, 8, 65, 50
10, 46560, Note_on_c, 8, 65, 0
10, 46560, Note_on_c, 8, 59, 50
10, 47278, Note_on_c, 8, 59, 0
10, 47280, Note_on_c, 8, 60, 50
10, 47400, Note_on_c, 8, 60, 0
10, 47400, Note_on_c, 8, 59, 50
10, 47520, Note_on_c, 8, 59, 0
10, 47520, Note_on_c, 8, 57, 50
10, 47640, Note_on_c, 8, 57, 0
10, 47760, Note_on_c, 8, 64, 50
10, 47880, Note_on_c, 8, 64, 0
10, 48000, Note_on_c, 8, 69, 50
10, 48720, Note_on_c, 8, 69, 0
10, 48720, Note_on_c, 8, 65, 50
10, 48960, Note_on_c, 8, 65, 0
10, 48960, Note_on_c, 8, 62, 50
10, 49440, Note_on_c, 8, 62, 0
10, 49440, Note_on_c, 8, 65, 50
10, 49560, Note_on_c, 8, 65, 0
10, 49680, Note_on_c, 8, 67, 50
10, 49800, Note_on_c, 8, 67, 0
10, 49920, Note_on_c, 8, 67, 100
10, 50040, Note_on_c, 8, 67, 0
10, 50160, Note_on_c, 8, 64, 100
10, 50280, Note_on_c, 8, 64, 0
10, 50400, Note_on_c, 8, 60, 100
10, 50520, Note_on_c, 8, 60, 0
10, 50640, Note_on_c, 8, 64, 100
10, 50760, Note_on_c, 8, 64, 0
10, 50880, Note_on_c, 8, 69, 100
10, 51000, Note_on_c, 8, 69, 0
10, 51120, Note_on_c, 8, 67, 100
10, 51240, Note_on_c, 8, 67, 0
10, 51360, Note_on_c, 8, 65, 100
10, 51480, Note_on_c, 8, 65, 0
10, 51600, Note_on_c, 8, 64, 100
10, 51720, Note_on_c, 8, 64, 0
10, 51840, Note_on_c, 8, 62, 100
10, 51960, Note_on_c, 8, 62, 0
10, 52080, Note_on_c, 8, 59, 100
10, 52200, Note_on_c, 8, 59, 0
10, 52320, Note_on_c, 8, 60, 100
10, 52440, Note_on_c, 8, 60, 0
10, 52560, Note_on_c, 8, 62, 100
10, 52680, Note_on_c, 8, 62, 0
10, 52800, Note_on_c, 8, 55, 100
10, 52872, Note_on_c, 8, 55, 0
10, 52920, Note_on_c, 8, 67, 100
10, 52992, Note_on_c, 8, 67, 0
10, 53040, Note_on_c, 8, 67, 100
10, 53112, Note_on_c, 8, 67, 0
10, 53160, Note_on_c, 8, 67, 100
10, 53232, Note_on_c, 8, 67, 0
10, 53280, Note_on_c, 8, 67, 100
10, 53352, Note_on_c, 8, 67, 0
10, 53400, Note_on_c, 8, 67, 100
10, 53472, Note_on_c, 8, 67, 0
10, 53520, Note_on_c, 8, 67, 100
10, 53592, Note_on_c, 8, 67, 0
10, 53640, Note_on_c, 8, 67, 100
10, 53712, Note_on_c, 8, 67, 0
10, 53760, Note_on_c, 8, 66, 100
10, 53832, Note_on_c, 8, 66, 0
10, 53880, Note_on_c, 8, 66, 100
10, 53952, Note_on_c, 8, 66, 0
10, 54000, Note_on_c, 8, 66, 100
10, 54072, Note_on_c, 8, 66, 0
10, 54120, Note_on_c, 8, 66, 100
10, 54192, Note_on_c, 8, 66, 0
10, 54240, Note_on_c, 8, 66, 100
10, 54312, Note_on_c, 8, 66, 0
10, 54360, Note_on_c, 8, 66, 100
10, 54432, Note_on_c, 8, 66, 0
10, 54480, Note_on_c, 8, 66, 100
10, 54552, Note_on_c, 8, 66, 0
10, 54600, Note_on_c, 8, 66, 100
10, 54672, Note_on_c, 8, 66, 0
10, 54720, Note_on_c, 8, 66, 100
10, 54792, Note_on_c, 8, 66, 0
10, 54840, Note_on_c, 8, 66, 100
10, 54912, Note_on_c, 8, 66, 0
10, 54960, Note_on_c, 8, 66, 100
10, 55032, Note_on_c, 8, 66, 0
10, 55080, Note_on_c, 8, 66, 100
10, 55152, Note_on_c, 8, 66, 0
10, 55200, Note_on_c, 8, 66, 100
10, 55272, Note_on_c, 8, 66, 0
10, 55320, Note_on_c, 8, 66, 100
10, 55392, Note_on_c, 8, 66, 0
10, 55440, Note_on_c, 8, 66, 100
10, 55512, Note_on_c, 8, 66, 0
10, 55560, Note_on_c, 8, 66, 100
10, 55632, Note_on_c, 8, 66, 0
10, 55680, Note_on_c, 8, 64, 100
10, 55752, Note_on_c, 8, 64, 0
10, 55800, Note_on_c, 8, 64, 100
10, 55872, Note_on_c, 8, 64, 0
10, 55920, Note_on_c, 8, 64, 100
10, 55992, Note_on_c, 8, 64, 0
10, 56040, Note_on_c, 8, 64, 100
10, 56112, Note_on_c, 8, 64, 0
10, 56160, Note_on_c, 8, 64, 100
10, 56232, Note_on_c, 8, 64, 0
10, 56280, Note_on_c, 8, 64, 100
10, 56352, Note_on_c, 8, 64, 0
10, 56400, Note_on_c, 8, 64, 100
10, 56472, Note_on_c, 8, 64, 0
10, 56520, Note_on_c, 8, 64, 100
10, 56592, Note_on_c, 8, 64, 0
10, 56640, Note_on_c, 8, 64, 100
10, 56712, Note_on_c, 8, 64, 0
10, 56760, Note_on_c, 8, 64, 100
10, 56832, Note_on_c, 8, 64, 0
10, 56880, Note_on_c, 8, 64, 100
10, 56952, Note_on_c, 8, 64, 0
10, 57000, Note_on_c, 8, 64, 100
10, 57072, Note_on_c, 8, 64, 0
10, 57120, Note_on_c, 8, 64, 100
10, 57192, Note_on_c, 8, 64, 0
10, 57240, Note_on_c, 8, 64, 100
10, 57312, Note_on_c, 8, 64, 0
10, 57360, Note_on_c, 8, 64, 100
10, 57432, Note_on_c, 8, 64, 0
10, 57480, Note_on_c, 8, 64, 100
10, 57552, Note_on_c, 8, 64, 0
10, 57600, Note_on_c, 8, 62, 100
10, 57672, Note_on_c, 8, 62, 0
10, 57720, Note_on_c, 8, 62, 100
10, 57792, Note_on_c, 8, 62, 0
10, 57840, Note_on_c, 8, 62, 100
10, 57912, Note_on_c, 8, 62, 0
10, 57960, Note_on_c, 8, 62, 100
10, 58032, Note_on_c, 8, 62, 0
10, 58080, Note_on_c, 8, 62, 100
10, 58152, Note_on_c, 8, 62, 0
10, 58200, Note_on_c, 8, 62, 100
10, 58272, Note_on_c, 8, 62, 0
10, 58320, Note_on_c, 8, 62, 100
10, 58392, Note_on_c, 8, 62, 0
10, 58440, Note_on_c, 8, 62, 100
10, 58512, Note_on_c, 8, 62, 0
10, 58560, Note_on_c, 8, 62, 100
10, 58632, Note_on_c, 8, 62, 0
10, 58680, Note_on_c, 8, 62, 103
10, 58752, Note_on_c, 8, 62, 0
10, 58800, Note_on_c, 8, 62, 106
10, 58872, Note_on_c, 8, 62, 0
10, 58920, Note_on_c, 8, 62, 110
10, 58992, Note_on_c, 8, 62, 0
10, 59040, Note_on_c, 8, 62, 113
10, 59112, Note_on_c, 8, 62, 0
10, 59160, Note_on_c, 8, 62, 116
10, 59232, Note_on_c, 8, 62, 0
10, 59280, Note_on_c, 8, 62, 120
10, 59352, Note_on_c, 8, 62, 0
10, 59400, Note_on_c, 8, 62, 123
10, 59472, Note_on_c, 8, 62, 0
10, 59520, Note_on_c, 8, 64, 127
10, 59640, Note_on_c, 8, 64, 0
10, 59640, Note_on_c, 8, 64, 127
10, 59760, Note_on_c, 8, 64, 0
10, 59760, Note_on_c, 8, 64, 127
10, 59880, Note_on_c, 8, 64, 0
10, 59880, Note_on_c, 8, 64, 127
10, 60000, Note_on_c, 8, 64, 0
10, 60000, Note_on_c, 8, 64, 127
10, 60120, Note_on_c, 8, 64, 0
10, 60120, Note_on_c, 8, 64, 127
10, 60240, Note_on_c, 8, 64, 0
10, 60240, Note_on_c, 8, 64, 127
10, 60360, Note_on_c, 8, 64, 0
10, 60360, Note_on_c, 8, 64, 127
10, 60480, Note_on_c, 8, 64, 0
10, 60480, Note_on_c, 8, 62, 127
10, 60930, Note_on_c, 8, 62, 0
10, 61440, Note_on_c, 8, 74, 127
10, 61665, Note_on_c, 8, 74, 0
10, 61800, Note_on_c, 8, 74, 127
10, 61920, Note_on_c, 8, 74, 0
10, 61920, Note_on_c, 8, 74, 127
10, 62640, Note_on_c, 8, 74, 0
10, 62640, Note_on_c, 8, 73, 127
10, 62724, Note_on_c, 8, 73, 0
10, 62760, Note_on_c, 8, 71, 127
10, 62844, Note_on_c, 8, 71, 0
10, 62880, Note_on_c, 8, 69, 127
10, 62964, Note_on_c, 8, 69, 0
10, 63000, Note_on_c, 8, 71, 127
10, 63084, Note_on_c, 8, 71, 0
10, 63120, Note_on_c, 8, 69, 127
10, 63204, Note_on_c, 8, 69, 0
10, 63240, Note_on_c, 8, 67, 127
10, 63324, Note_on_c, 8, 67, 0
10, 63360, Note_on_c, 8, 66, 127
10, 63444, Note_on_c, 8, 66, 0
10, 63480, Note_on_c, 8, 67, 127
10, 63564, Note_on_c, 8, 67, 0
10, 63600, Note_on_c, 8, 66, 127
10, 63684, Note_on_c, 8, 66, 0
10, 63720, Note_on_c, 8, 64, 127
10, 63804, Note_on_c, 8, 64, 0
10, 63840, Note_on_c, 8, 62, 127
10, 64080, Note_on_c, 8, 62, 0
10, 64320, Note_on_c, 8, 74, 127
10, 64545, Note_on_c, 8, 74, 0
10, 64680, Note_on_c, 8, 74, 127
10, 64800, Note_on_c, 8, 74, 0
10, 64800, Note_on_c, 8, 74, 127
10, 65520, Note_on_c, 8, 74, 0
10, 65520, Note_on_c, 8, 73, 127
10, 65604, Note_on_c, 8, 73, 0
10, 65640, Note_on_c, 8, 71, 127
10, 65724, Note_on_c, 8, 71, 0
10, 65760, Note_on_c, 8, 69, 127
10, 65844, Note_on_c, 8, 69, 0
10, 65880, Note_on_c, 8, 71, 127
10, 65964, Note_on_c, 8, 71, 0
10, 66000, Note_on_c, 8, 69, 127
10, 66084, Note_on_c, 8, 69, 0
10, 66120, Note_on_c, 8, 67, 127
10, 66204, Note_on_c, 8, 67, 0
10, 66240, Note_on_c, 8, 66, 127
10, 66324, Note_on_c, 8, 66, 0
10, 66360, Note_on_c, 8, 67, 127
10, 66444, Note_on_c, 8, 67, 0
10, 66480, Note_on_c, 8, 66, 127
10, 66564, Note_on_c, 8, 66, 0
10, 66600, Note_on_c, 8, 64, 127
10, 66684, Note_on_c, 8, 64, 0
10, 66720, Note_on_c, 8, 62, 127
10, 66804, Note_on_c, 8, 62, 0
10, 66840, Note_on_c, 8, 64, 127
10, 66924, Note_on_c, 8, 64, 0
10, 66960, Note_on_c, 8, 66, 127
10, 67044, Note_on_c, 8, 66, 0
10, 67080, Note_on_c, 8, 67, 127
10, 67164, Note_on_c, 8, 67, 0
10, 67200, Note_on_c, 8, 69, 127
10, 67284, Note_on_c, 8, 69, 0
10, 67320, Note_on_c, 8, 71, 127
10, 67404, Note_on_c, 8, 71, 0
10, 67440, Note_on_c, 8, 69, 127
10, 67524, Note_on_c, 8, 69, 0
10, 67560, Note_on_c, 8, 67, 127
10, 67644, Note_on_c, 8, 67, 0
10, 67680, Note_on_c, 8, 66, 127
10, 67764, Note_on_c, 8, 66, 0
10, 67800, Note_on_c, 8, 67, 127
10, 67884, Note_on_c, 8, 67, 0
10, 67920, Note_on_c, 8, 69, 127
10, 68004, Note_on_c, 8, 69, 0
10, 68040, Note_on_c, 8, 67, 127
10, 68124, Note_on_c, 8, 67, 0
10, 68160, Note_on_c, 8, 66, 127
10, 68280, Note_on_c, 8, 66, 0
10, 68400, Note_on_c, 8, 57, 127
10, 68520, Note_on_c, 8, 57, 0
10, 68640, Note_on_c, 8, 54, 127
10, 68760, Note_on_c, 8, 54, 0
10, 68880, Note_on_c, 8, 62, 127
10, 69000, Note_on_c, 8, 62, 0
10, 69120, Note_on_c, 8, 54, 127
10, 69600, Note_on_c, 8, 54, 0
10, 70080, Note_on_c, 8, 55, 50
10, 70560, Note_on_c, 8, 55, 0
10, 71040, Note_on_c, 8, 64, 50
10, 71520, Note_on_c, 8, 64, 0
10, 72000, Note_on_c, 8, 57, 50
10, 72480, Note_on_c, 8, 57, 0
10, 72960, Note_on_c, 8, 62, 50
10, 73440, Note_on_c, 8, 62, 0
10, 73920, Note_on_c, 8, 67, 50
10, 74160, Note_on_c, 8, 67, 0
10, 74400, Note_on_c, 8, 59, 50
10, 74640, Note_on_c, 8, 59, 0
10, 74880, Note_on_c, 8, 60, 50
10, 75120, Note_on_c, 8, 60, 0
10, 75360, Note_on_c, 8, 61, 50
10, 75600, Note_on_c, 8, 61, 0
10, 75840, Note_on_c, 8, 62, 50
10, 76080, Note_on_c, 8, 62, 0
10, 76320, Note_on_c, 8, 54, 50
10, 76800, Note_on_c, 8, 54, 0
10, 76800, Note_on_c, 8, 55, 50
10, 77280, Note_on_c, 8, 55, 0
10, 77280, Note_on_c, 8, 56, 50
10, 77760, Note_on_c, 8, 56, 0
10, 77760, Note_on_c, 8, 57, 50
10, 78096, Note_on_c, 8, 57, 0
10, 78240, Note_on_c, 8, 60, 50
10, 78960, Note_on_c, 8, 60, 0
10, 78960, Note_on_c, 8, 57, 50
10, 79080, Note_on_c, 8, 57, 0
10, 79200, Note_on_c, 8, 62, 50
10, 79320, Note_on_c, 8, 62, 0
10, 79440, Note_on_c, 8, 60, 50
10, 79560, Note_on_c, 8, 60, 0
10, 79680, Note_on_c, 8, 59, 50
10, 80640, Note_on_c, 8, 59, 0
10, 80640, Note_on_c, 8, 60, 50
10, 81120, Note_on_c, 8, 60, 0
10, 81120, Note_on_c, 8, 61, 50
10, 81600, Note_on_c, 8, 61, 0
10, 81600, Note_on_c, 8, 62, 50
10, 83518, Note_on_c, 8, 62, 0
10, 83520, Note_on_c, 8, 62, 50
10, 85438, Note_on_c, 8, 62, 0
10, 85440, Note_on_c, 8, 62, 50
10, 87358, Note_on_c, 8, 62, 0
10, 87360, Note_on_c, 8, 62, 50
10, 89278, Note_on_c, 8, 62, 0
10, 89280, Note_on_c, 8, 55, 127
10, 89760, Note_on_c, 8, 55, 0
10, 90360, Note_on_c, 8, 55, 127
10, 90444, Note_on_c, 8, 55, 0
10, 90480, Note_on_c, 8, 60, 127
10, 90564, Note_on_c, 8, 60, 0
10, 90600, Note_on_c, 8, 62, 127
10, 90684, Note_on_c, 8, 62, 0
10, 90720, Note_on_c, 8, 64, 127
10, 90804, Note_on_c, 8, 64, 0
10, 90840, Note_on_c, 8, 65, 127
10, 90924, Note_on_c, 8, 65, 0
10, 90960, Note_on_c, 8, 64, 127
10, 91044, Note_on_c, 8, 64, 0
10, 91080, Note_on_c, 8, 62, 127
10, 91164, Note_on_c, 8, 62, 0
10, 91200, Note_on_c, 8, 60, 127
10, 91284, Note_on_c, 8, 60, 0
10, 91320, Note_on_c, 8, 59, 127
10, 91404, Note_on_c, 8, 59, 0
10, 91440, Note_on_c, 8, 57, 127
10, 91524, Note_on_c, 8, 57, 0
10, 91560, Note_on_c, 8, 55, 127
10, 91644, Note_on_c, 8, 55, 0
10, 91680, Note_on_c, 8, 54, 127
10, 92016, Note_on_c, 8, 54, 0
10, 92280, Note_on_c, 8, 59, 127
10, 92364, Note_on_c, 8, 59, 0
10, 92400, Note_on_c, 8, 64, 127
10, 92484, Note_on_c, 8, 64, 0
10, 92520, Note_on_c, 8, 65, 127
10, 92604, Note_on_c, 8, 65, 0
10, 92640, Note_on_c, 8, 67, 127
10, 92724, Note_on_c, 8, 67, 0
10, 92760, Note_on_c, 8, 69, 127
10, 92844, Note_on_c, 8, 69, 0
10, 92880, Note_on_c, 8, 67, 127
10, 92964, Note_on_c, 8, 67, 0
10, 93000, Note_on_c, 8, 65, 127
10, 93084, Note_on_c, 8, 65, 0
10, 93120, Note_on_c, 8, 64, 127
10, 93204, Note_on_c, 8, 64, 0
10, 93240, Note_on_c, 8, 62, 127
10, 93324, Note_on_c, 8, 62, 0
10, 93360, Note_on_c, 8, 60, 127
10, 93444, Note_on_c, 8, 60, 0
10, 93480, Note_on_c, 8, 59, 127
10, 93564, Note_on_c, 8, 59, 0
10, 93600, Note_on_c, 8, 57, 127
10, 93936, Note_on_c, 8, 57, 0
10, 95040, Note_on_c, 8, 67, 127
10, 95376, Note_on_c, 8, 67, 0
10, 95520, Note_on_c, 8, 64, 127
10, 95856, Note_on_c, 8, 64, 0
10, 96000, Note_on_c, 8, 69, 127
10, 96564, Note_on_c, 8, 69, 0
10, 96600, Note_on_c, 8, 67, 127
10, 96684, Note_on_c, 8, 67, 0
10, 96720, Note_on_c, 8, 66, 127
10, 96804, Note_on_c, 8, 66, 0
10, 96840, Note_on_c, 8, 64, 127
10, 96924, Note_on_c, 8, 64, 0
10, 96960, Note_on_c, 8, 66, 127
10, 97044, Note_on_c, 8, 66, 0
10, 97080, Note_on_c, 8, 64, 127
10, 97164, Note_on_c, 8, 64, 0
10, 97200, Note_on_c, 8, 62, 127
10, 97284, Note_on_c, 8, 62, 0
10, 97320, Note_on_c, 8, 60, 127
10, 97404, Note_on_c, 8, 60, 0
10, 97440, Note_on_c, 8, 59, 127
10, 97776, Note_on_c, 8, 59, 0
10, 97920, Note_on_c, 8, 67, 127
10, 98424, Note_on_c, 8, 67, 0
10, 98880, Note_on_c, 8, 64, 127
10, 99216, Note_on_c, 8, 64, 0
10, 99360, Note_on_c, 8, 60, 127
10, 99696, Note_on_c, 8, 60, 0
10, 99840, Note_on_c, 8, 66, 127
10, 100404, Note_on_c, 8, 66, 0
10, 100440, Note_on_c, 8, 64, 127
10, 100524, Note_on_c, 8, 64, 0
10, 100560, Note_on_c, 8, 63, 127
10, 100644, Note_on_c, 8, 63, 0
10, 100680, Note_on_c, 8, 61, 127
10, 100764, Note_on_c, 8, 61, 0
10, 100800, Note_on_c, 8, 63, 127
10, 100884, Note_on_c, 8, 63, 0
10, 100920, Note_on_c, 8, 61, 127
10, 101004, Note_on_c, 8, 61, 0
10, 101040, Note_on_c, 8, 59, 127
10, 101124, Note_on_c, 8, 59, 0
10, 101160, Note_on_c, 8, 57, 127
10, 101244, Note_on_c, 8, 57, 0
10, 101280, Note_on_c, 8, 55, 127
10, 101616, Note_on_c, 8, 55, 0
10, 101760, Note_on_c, 8, 64, 127
10, 102264, Note_on_c, 8, 64, 0
10, 102720, Note_on_c, 8, 60, 127
10, 103056, Note_on_c, 8, 60, 0
10, 103200, Note_on_c, 8, 57, 127
10, 103536, Note_on_c, 8, 57, 0
10, 103680, Note_on_c, 8, 62, 127
10, 104244, Note_on_c, 8, 62, 0
10, 104280, Note_on_c, 8, 60, 127
10, 104364, Note_on_c, 8, 60, 0
10, 104400, Note_on_c, 8, 59, 127
10, 104484, Note_on_c, 8, 59, 0
10, 104520, Note_on_c, 8, 57, 127
10, 104604, Note_on_c, 8, 57, 0
10, 104640, Note_on_c, 8, 55, 127
10, 104808, Note_on_c, 8, 55, 0
10, 104880, Note_on_c, 8, 60, 127
10, 104964, Note_on_c, 8, 60, 0
10, 105000, Note_on_c, 8, 59, 127
10, 105084, Note_on_c, 8, 59, 0
10, 105120, Note_on_c, 8, 60, 127
10, 105204, Note_on_c, 8, 60, 0
10, 105240, Note_on_c, 8, 59, 127
10, 105324, Note_on_c, 8, 59, 0
10, 105360, Note_on_c, 8, 57, 127
10, 105444, Note_on_c, 8, 57, 0
10, 105480, Note_on_c, 8, 55, 127
10, 105564, Note_on_c, 8, 55, 0
10, 105600, Note_on_c, 8, 60, 127
10, 105768, Note_on_c, 8, 60, 0
10, 105840, Note_on_c, 8, 64, 127
10, 105924, Note_on_c, 8, 64, 0
10, 105960, Note_on_c, 8, 62, 127
10, 106044, Note_on_c, 8, 62, 0
10, 106080, Note_on_c, 8, 64, 127
10, 106164, Note_on_c, 8, 64, 0
10, 106200, Note_on_c, 8, 62, 127
10, 106284, Note_on_c, 8, 62, 0
10, 106320, Note_on_c, 8, 60, 127
10, 106404, Note_on_c, 8, 60, 0
10, 106440, Note_on_c, 8, 59, 127
10, 106524, Note_on_c, 8, 59, 0
10, 106560, Note_on_c, 8, 64, 127
10, 106728, Note_on_c, 8, 64, 0
10, 106800, Note_on_c, 8, 60, 127
10, 106884, Note_on_c, 8, 60, 0
10, 106920, Note_on_c, 8, 59, 127
10, 107004, Note_on_c, 8, 59, 0
10, 107040, Note_on_c, 8, 60, 127
10, 107124, Note_on_c, 8, 60, 0
10, 107160, Note_on_c, 8, 59, 127
10, 107244, Note_on_c, 8, 59, 0
10, 107280, Note_on_c, 8, 57, 127
10, 107364, Note_on_c, 8, 57, 0
10, 107400, Note_on_c, 8, 55, 127
10, 107484, Note_on_c, 8, 55, 0
10, 109440, Note_on_c, 8, 55, 127
10, 109524, Note_on_c, 8, 55, 0
10, 109560, Note_on_c, 8, 62, 127
10, 109644, Note_on_c, 8, 62, 0
10, 109680, Note_on_c, 8, 62, 127
10, 109764, Note_on_c, 8, 62, 0
10, 109800, Note_on_c, 8, 62, 127
10, 109884, Note_on_c, 8, 62, 0
10, 109920, Note_on_c, 8, 62, 127
10, 110004, Note_on_c, 8, 62, 0
10, 110040, Note_on_c, 8, 62, 127
10, 110124, Note_on_c, 8, 62, 0
10, 110160, Note_on_c, 8, 62, 127
10, 110244, Note_on_c, 8, 62, 0
10, 110280, Note_on_c, 8, 62, 127
10, 110364, Note_on_c, 8, 62, 0
10, 110400, Note_on_c, 8, 62, 127
10, 110484, Note_on_c, 8, 62, 0
10, 110520, Note_on_c, 8, 62, 127
10, 110604, Note_on_c, 8, 62, 0
10, 110640, Note_on_c, 8, 62, 127
10, 110724, Note_on_c, 8, 62, 0
10, 110760, Note_on_c, 8, 62, 127
10, 110844, Note_on_c, 8, 62, 0
10, 110880, Note_on_c, 8, 62, 127
10, 110964, Note_on_c, 8, 62, 0
10, 111000, Note_on_c, 8, 62, 127
10, 111084, Note_on_c, 8, 62, 0
10, 111120, Note_on_c, 8, 62, 127
10, 111204, Note_on_c, 8, 62, 0
10, 111240, Note_on_c, 8, 62, 127
10, 111324, Note_on_c, 8, 62, 0
10, 111360, Note_on_c, 8, 64, 127
10, 111444, Note_on_c, 8, 64, 0
10, 111480, Note_on_c, 8, 64, 127
10, 111564, Note_on_c, 8, 64, 0
10, 111600, Note_on_c, 8, 64, 127
10, 111684, Note_on_c, 8, 64, 0
10, 111720, Note_on_c, 8, 64, 127
10, 111804, Note_on_c, 8, 64, 0
10, 111840, Note_on_c, 8, 64, 127
10, 111924, Note_on_c, 8, 64, 0
10, 111960, Note_on_c, 8, 64, 127
10, 112044, Note_on_c, 8, 64, 0
10, 112080, Note_on_c, 8, 64, 127
10, 112164, Note_on_c, 8, 64, 0
10, 112200, Note_on_c, 8, 64, 127
10, 112284, Note_on_c, 8, 64, 0
10, 112320, Note_on_c, 8, 64, 127
10, 112404, Note_on_c, 8, 64, 0
10, 112440, Note_on_c, 8, 64, 127
10, 112524, Note_on_c, 8, 64, 0
10, 112560, Note_on_c, 8, 64, 127
10, 112644, Note_on_c, 8, 64, 0
10, 112680, Note_on_c, 8, 64, 127
10, 112764, Note_on_c, 8, 64, 0
10, 112800, Note_on_c, 8, 64, 127
10, 112884, Note_on_c, 8, 64, 0
10, 112920, Note_on_c, 8, 64, 127
10, 113004, Note_on_c, 8, 64, 0
10, 113040, Note_on_c, 8, 64, 127
10, 113124, Note_on_c, 8, 64, 0
10, 113160, Note_on_c, 8, 64, 127
10, 113244, Note_on_c, 8, 64, 0
10, 113280, Note_on_c, 8, 59, 127
10, 113364, Note_on_c, 8, 59, 0
10, 113400, Note_on_c, 8, 59, 127
10, 113484, Note_on_c, 8, 59, 0
10, 113520, Note_on_c, 8, 59, 127
10, 113604, Note_on_c, 8, 59, 0
10, 113640, Note_on_c, 8, 59, 127
10, 113724, Note_on_c, 8, 59, 0
10, 113760, Note_on_c, 8, 59, 127
10, 113844, Note_on_c, 8, 59, 0
10, 113880, Note_on_c, 8, 59, 127
10, 113964, Note_on_c, 8, 59, 0
10, 114000, Note_on_c, 8, 59, 127
10, 114084, Note_on_c, 8, 59, 0
10, 114120, Note_on_c, 8, 59, 127
10, 114204, Note_on_c, 8, 59, 0
10, 114240, Note_on_c, 8, 59, 127
10, 114324, Note_on_c, 8, 59, 0
10, 114360, Note_on_c, 8, 59, 127
10, 114444, Note_on_c, 8, 59, 0
10, 114480, Note_on_c, 8, 59, 127
10, 114564, Note_on_c, 8, 59, 0
10, 114600, Note_on_c, 8, 59, 127
10, 114684, Note_on_c, 8, 59, 0
10, 114720, Note_on_c, 8, 59, 127
10, 114804, Note_on_c, 8, 59, 0
10, 114840, Note_on_c, 8, 59, 127
10, 114924, Note_on_c, 8, 59, 0
10, 114960, Note_on_c, 8, 59, 127
10, 115044, Note_on_c, 8, 59, 0
10, 115080, Note_on_c, 8, 59, 127
10, 115164, Note_on_c, 8, 59, 0
10, 115200, Note_on_c, 8, 60, 127
10, 115284, Note_on_c, 8, 60, 0
10, 115320, Note_on_c, 8, 60, 127
10, 115404, Note_on_c, 8, 60, 0
10, 115440, Note_on_c, 8, 60, 127
10, 115524, Note_on_c, 8, 60, 0
10, 115560, Note_on_c, 8, 60, 127
10, 115644, Note_on_c, 8, 60, 0
10, 115680, Note_on_c, 8, 64, 127
10, 115764, Note_on_c, 8, 64, 0
10, 115800, Note_on_c, 8, 64, 127
10, 115884, Note_on_c, 8, 64, 0
10, 115920, Note_on_c, 8, 64, 127
10, 116004, Note_on_c, 8, 64, 0
10, 116040, Note_on_c, 8, 64, 127
10, 116124, Note_on_c, 8, 64, 0
10, 116160, Note_on_c, 8, 62, 127
10, 116244, Note_on_c, 8, 62, 0
10, 116280, Note_on_c, 8, 62, 127
10, 116364, Note_on_c, 8, 62, 0
10, 116400, Note_on_c, 8, 62, 127
10, 116484, Note_on_c, 8, 62, 0
10, 116520, Note_on_c, 8, 62, 127
10, 116604, Note_on_c, 8, 62, 0
10, 116640, Note_on_c, 8, 69, 127
10, 116724, Note_on_c, 8, 69, 0
10, 116760, Note_on_c, 8, 69, 127
10, 116844, Note_on_c, 8, 69, 0
10, 116880, Note_on_c, 8, 69, 127
10, 116964, Note_on_c, 8, 69, 0
10, 117000, Note_on_c, 8, 69, 127
10, 117084, Note_on_c, 8, 69, 0
10, 117120, Note_on_c, 8, 67, 127
10, 117360, Note_on_c, 8, 67, 0
10, 117360, Note_on_c, 8, 71, 127
10, 117600, Note_on_c, 8, 71, 0
10, 117600, Note_on_c, 8, 71, 127
10, 117840, Note_on_c, 8, 71, 0
10, 117840, Note_on_c, 8, 71, 127
10, 118080, Note_on_c, 8, 71, 0
10, 118080, Note_on_c, 8, 71, 127
10, 118800, Note_on_c, 8, 71, 0
10, 118800, Note_on_c, 8, 69, 127
10, 118860, Note_on_c, 8, 69, 0
10, 118860, Note_on_c, 8, 67, 127
10, 118920, Note_on_c, 8, 67, 0
10, 118920, Note_on_c, 8, 66, 127
10, 118980, Note_on_c, 8, 66, 0
10, 118980, Note_on_c, 8, 64, 127
10, 119040, Note_on_c, 8, 64, 0
10, 119040, Note_on_c, 8, 62, 127
10, 119160, Note_on_c, 8, 62, 0
10, 119280, Note_on_c, 8, 74, 127
10, 119400, Note_on_c, 8, 74, 0
10, 119520, Note_on_c, 8, 74, 127
10, 119640, Note_on_c, 8, 74, 0
10, 119760, Note_on_c, 8, 74, 127
10, 119880, Note_on_c, 8, 74, 0
10, 120000, Note_on_c, 8, 74, 127
10, 120720, Note_on_c, 8, 74, 0
10, 120720, Note_on_c, 8, 71, 127
10, 120780, Note_on_c, 8, 71, 0
10, 120780, Note_on_c, 8, 69, 127
10, 120840, Note_on_c, 8, 69, 0
10, 120840, Note_on_c, 8, 67, 127
10, 120900, Note_on_c, 8, 67, 0
10, 120900, Note_on_c, 8, 66, 127
10, 120960, Note_on_c, 8, 66, 0
10, 120960, Note_on_c, 8, 63, 127
10, 121200, Note_on_c, 8, 63, 0
10, 121200, Note_on_c, 8, 72, 127
10, 121440, Note_on_c, 8, 72, 0
10, 121440, Note_on_c, 8, 72, 127
10, 121680, Note_on_c, 8, 72, 0
10, 121680, Note_on_c, 8, 72, 127
10, 121920, Note_on_c, 8, 72, 0
10, 121920, Note_on_c, 8, 72, 127
10, 122640, Note_on_c, 8, 72, 0
10, 122640, Note_on_c, 8, 74, 127
10, 122760, Note_on_c, 8, 74, 0
10, 122760, Note_on_c, 8, 74, 127
10, 122880, Note_on_c, 8, 74, 0
10, 122880, Note_on_c, 8, 72, 127
10, 123000, Note_on_c, 8, 72, 0
10, 123000, Note_on_c, 8, 72, 127
10, 123120, Note_on_c, 8, 72, 0
10, 123120, Note_on_c, 8, 74, 127
10, 123240, Note_on_c, 8, 74, 0
10, 123240, Note_on_c, 8, 74, 127
10, 123360, Note_on_c, 8, 74, 0
10, 123360, Note_on_c, 8, 72, 127
10, 123480, Note_on_c, 8, 72, 0
10, 123480, Note_on_c, 8, 72, 127
10, 123600, Note_on_c, 8, 72, 0
10, 123600, Note_on_c, 8, 74, 127
10, 123720, Note_on_c, 8, 74, 0
10, 123720, Note_on_c, 8, 74, 127
10, 123840, Note_on_c, 8, 74, 0
10, 123840, Note_on_c, 8, 72, 127
10, 124560, Note_on_c, 8, 72, 0
10, 124560, Note_on_c, 8, 74, 127
10, 124680, Note_on_c, 8, 74, 0
10, 124680, Note_on_c, 8, 74, 127
10, 124800, Note_on_c, 8, 74, 0
10, 124800, Note_on_c, 8, 72, 127
10, 124884, Note_on_c, 8, 72, 0
10, 124920, Note_on_c, 8, 72, 127
10, 125004, Note_on_c, 8, 72, 0
10, 125040, Note_on_c, 8, 74, 127
10, 125124, Note_on_c, 8, 74, 0
10, 125160, Note_on_c, 8, 74, 127
10, 125244, Note_on_c, 8, 74, 0
10, 125280, Note_on_c, 8, 72, 127
10, 125364, Note_on_c, 8, 72, 0
10, 125400, Note_on_c, 8, 72, 127
10, 125484, Note_on_c, 8, 72, 0
10, 125520, Note_on_c, 8, 74, 127
10, 125604, Note_on_c, 8, 74, 0
10, 125640, Note_on_c, 8, 74, 127
10, 125724, Note_on_c, 8, 74, 0
10, 125760, Note_on_c, 8, 76, 127
10, 125880, Note_on_c, 8, 76, 0
10, 126000, Note_on_c, 8, 64, 127
10, 126120, Note_on_c, 8, 64, 0
10, 126240, Note_on_c, 8, 66, 127
10, 126360, Note_on_c, 8, 66, 0
10, 126480, Note_on_c, 8, 66, 127
10, 126600, Note_on_c, 8, 66, 0
10, 126720, Note_on_c, 8, 67, 127
10, 126840, Note_on_c, 8, 67, 0
10, 126960, Note_on_c, 8, 75, 127
10, 127080, Note_on_c, 8, 75, 0
10, 127200, Note_on_c, 8, 76, 127
10, 127320, Note_on_c, 8, 76, 0
10, 127440, Note_on_c, 8, 71, 127
10, 127560, Note_on_c, 8, 71, 0
10, 127680, Note_on_c, 8, 72, 127
10, 127800, Note_on_c, 8, 72, 0
10, 127920, Note_on_c, 8, 69, 127
10, 128040, Note_on_c, 8, 69, 0
10, 128160, Note_on_c, 8, 74, 127
10, 128280, Note_on_c, 8, 74, 0
10, 128400, Note_on_c, 8, 62, 127
10, 128520, Note_on_c, 8, 62, 0
10, 128640, Note_on_c, 8, 67, 127
10, 128880, Note_on_c, 8, 67, 0
10, 129120, Note_on_c, 8, 67, 127
10, 129345, Note_on_c, 8, 67, 0
10, 129480, Note_on_c, 8, 67, 127
10, 129600, Note_on_c, 8, 67, 0
10, 129600, Note_on_c, 8, 67, 127
10, 130320, Note_on_c, 8, 67, 0
10, 130320, Note_on_c, 8, 66, 127
10, 130440, Note_on_c, 8, 66, 0
10, 130440, Note_on_c, 8, 64, 127
10, 130560, Note_on_c, 8, 64, 0
10, 130560, Note_on_c, 8, 62, 127
10, 130680, Note_on_c, 8, 62, 0
10, 130680, Note_on_c, 8, 64, 127
10, 130800, Note_on_c, 8, 64, 0
10, 130800, Note_on_c, 8, 62, 127
10, 130920, Note_on_c, 8, 62, 0
10, 130920, Note_on_c, 8, 60, 127
10, 131040, Note_on_c, 8, 60, 0
10, 131040, Note_on_c, 8, 59, 127
10, 131160, Note_on_c, 8, 59, 0
10, 131160, Note_on_c, 8, 60, 127
10, 131280, Note_on_c, 8, 60, 0
10, 131280, Note_on_c, 8, 59, 127
10, 131400, Note_on_c, 8, 59, 0
10, 131400, Note_on_c, 8, 57, 127
10, 131520, Note_on_c, 8, 57, 0
10, 131520, Note_on_c, 8, 55, 127
10, 131760, Note_on_c, 8, 55, 0
10, 132000, Note_on_c, 8, 71, 127
10, 132360, Note_on_c, 8, 71, 0
10, 132360, Note_on_c, 8, 71, 127
10, 132480, Note_on_c, 8, 71, 0
10, 132480, Note_on_c, 8, 71, 127
10, 133200, Note_on_c, 8, 71, 0
10, 133200, Note_on_c, 8, 69, 127
10, 133320, Note_on_c, 8, 69, 0
10, 133320, Note_on_c, 8, 67, 127
10, 133440, Note_on_c, 8, 67, 0
10, 133440, Note_on_c, 8, 66, 127
10, 133560, Note_on_c, 8, 66, 0
10, 133560, Note_on_c, 8, 67, 127
10, 133680, Note_on_c, 8, 67, 0
10, 133680, Note_on_c, 8, 66, 127
10, 133800, Note_on_c, 8, 66, 0
10, 133800, Note_on_c, 8, 64, 127
10, 133920, Note_on_c, 8, 64, 0
10, 133920, Note_on_c, 8, 62, 127
10, 134040, Note_on_c, 8, 62, 0
10, 134040, Note_on_c, 8, 64, 127
10, 134160, Note_on_c, 8, 64, 0
10, 134160, Note_on_c, 8, 62, 127
10, 134280, Note_on_c, 8, 62, 0
10, 134280, Note_on_c, 8, 60, 127
10, 134400, Note_on_c, 8, 60, 0
10, 134400, Note_on_c, 8, 59, 127
10, 134640, Note_on_c, 8, 59, 0
10, 134880, Note_on_c, 8, 74, 127
10, 135105, Note_on_c, 8, 74, 0
10, 135240, Note_on_c, 8, 74, 127
10, 135360, Note_on_c, 8, 74, 0
10, 135360, Note_on_c, 8, 74, 127
10, 136080, Note_on_c, 8, 74, 0
10, 136080, Note_on_c, 8, 72, 127
10, 136200, Note_on_c, 8, 72, 0
10, 136200, Note_on_c, 8, 71, 127
10, 136320, Note_on_c, 8, 71, 0
10, 136320, Note_on_c, 8, 69, 127
10, 136404, Note_on_c, 8, 69, 0
10, 136440, Note_on_c, 8, 71, 127
10, 136524, Note_on_c, 8, 71, 0
10, 136560, Note_on_c, 8, 69, 127
10, 136644, Note_on_c, 8, 69, 0
10, 136680, Note_on_c, 8, 67, 127
10, 136764, Note_on_c, 8, 67, 0
10, 136800, Note_on_c, 8, 66, 127
10, 136884, Note_on_c, 8, 66, 0
10, 136920, Note_on_c, 8, 67, 127
10, 137004, Note_on_c, 8, 67, 0
10, 137040, Note_on_c, 8, 66, 127
10, 137124, Note_on_c, 8, 66, 0
10, 137160, Note_on_c, 8, 64, 127
10, 137244, Note_on_c, 8, 64, 0
10, 137280, Note_on_c, 8, 62, 127
10, 137616, Note_on_c, 8, 62, 0
10, 137760, Note_on_c, 8, 66, 127
10, 138096, Note_on_c, 8, 66, 0
10, 138240, Note_on_c, 8, 67, 127
10, 138360, Note_on_c, 8, 67, 0
10, 138480, Note_on_c, 8, 66, 127
10, 138600, Note_on_c, 8, 66, 0
10, 138720, Note_on_c, 8, 64, 127
10, 138840, Note_on_c, 8, 64, 0
10, 138960, Note_on_c, 8, 63, 127
10, 139080, Note_on_c, 8, 63, 0
10, 139200, Note_on_c, 8, 64, 127
10, 139320, Note_on_c, 8, 64, 0
10, 139440, Note_on_c, 8, 62, 127
10, 139560, Note_on_c, 8, 62, 0
10, 139680, Note_on_c, 8, 60, 127
10, 139800, Note_on_c, 8, 60, 0
10, 139920, Note_on_c, 8, 59, 127
10, 140040, Note_on_c, 8, 59, 0
10, 140160, Note_on_c, 8, 60, 127
10, 140280, Note_on_c, 8, 60, 0
10, 140400, Note_on_c, 8, 61, 127
10, 140520, Note_on_c, 8, 61, 0
10, 140640, Note_on_c, 8, 62, 127
10, 141120, Note_on_c, 8, 62, 0
10, 141120, Note_on_c, 8, 67, 127
10, 141240, Note_on_c, 8, 67, 0
10, 141360, Note_on_c, 8, 66, 127
10, 141480, Note_on_c, 8, 66, 0
10, 141600, Note_on_c, 8, 64, 127
10, 141720, Note_on_c, 8, 64, 0
10, 141840, Note_on_c, 8, 63, 127
10, 141960, Note_on_c, 8, 63, 0
10, 142080, Note_on_c, 8, 64, 127
10, 142200, Note_on_c, 8, 64, 0
10, 142320, Note_on_c, 8, 62, 127
10, 142440, Note_on_c, 8, 62, 0
10, 142560, Note_on_c, 8, 60, 127
10, 142680, Note_on_c, 8, 60, 0
10, 142800, Note_on_c, 8, 59, 127
10, 142920, Note_on_c, 8, 59, 0
10, 143040, Note_on_c, 8, 60, 127
10, 143160, Note_on_c, 8, 60, 0
10, 143280, Note_on_c, 8, 61, 127
10, 143400, Note_on_c, 8, 61, 0
10, 143520, Note_on_c, 8, 62, 127
10, 143640, Note_on_c, 8, 62, 0
10, 143760, Note_on_c, 8, 50, 127
10, 143880, Note_on_c, 8, 50, 0
10, 144000, Note_on_c, 8, 55, 127
10, 144240, Note_on_c, 8, 55, 0
10, 144480, Note_on_c, 8, 67, 50
10, 144720, Note_on_c, 8, 67, 0
10, 144960, Note_on_c, 8, 71, 50
10, 145200, Note_on_c, 8, 71, 0
10, 145440, Note_on_c, 8, 74, 50
10, 145680, Note_on_c, 8, 74, 0
10, 145920, Note_on_c, 8, 66, 50
10, 146400, Note_on_c, 8, 66, 0
10, 146400, Note_on_c, 8, 74, 50
10, 146880, Note_on_c, 8, 74, 0
10, 146880, Note_on_c, 8, 74, 50
10, 147120, Note_on_c, 8, 74, 0
10, 147360, Note_on_c, 8, 55, 50
10, 147600, Note_on_c, 8, 55, 0
10, 147840, Note_on_c, 8, 59, 50
10, 148080, Note_on_c, 8, 59, 0
10, 148320, Note_on_c, 8, 62, 50
10, 148560, Note_on_c, 8, 62, 0
10, 148800, Note_on_c, 8, 54, 50
10, 149280, Note_on_c, 8, 54, 0
10, 149280, Note_on_c, 8, 62, 50
10, 149760, Note_on_c, 8, 62, 0
10, 149760, Note_on_c, 8, 62, 50
10, 150240, Note_on_c, 8, 62, 0
10, 154560, Note_on_c, 8, 65, 50
10, 155520, Note_on_c, 8, 65, 0
10, 155520, Note_on_c, 8, 64, 50
10, 156480, Note_on_c, 8, 64, 0
10, 156480, Note_on_c, 8, 62, 50
10, 156720, Note_on_c, 8, 62, 0
10, 156960, Note_on_c, 8, 60, 50
10, 157200, Note_on_c, 8, 60, 0
10, 157440, Note_on_c, 8, 55, 50
10, 157680, Note_on_c, 8, 55, 0
10, 159120, Note_on_c, 8, 60, 105
10, 159200, Note_on_c, 8, 60, 0
10, 159200, Note_on_c, 8, 59, 105
10, 159280, Note_on_c, 8, 59, 0
10, 159280, Note_on_c, 8, 57, 106
10, 159360, Note_on_c, 8, 57, 0
10, 159360, Note_on_c, 8, 55, 106
10, 159840, Note_on_c, 8, 55, 0
10, 160080, Note_on_c, 8, 74, 111
10, 160140, Note_on_c, 8, 74, 0
10, 160140, Note_on_c, 8, 72, 112
10, 160200, Note_on_c, 8, 72, 0
10, 160200, Note_on_c, 8, 71, 112
10, 160260, Note_on_c, 8, 71, 0
10, 160260, Note_on_c, 8, 69, 113
10, 160320, Note_on_c, 8, 69, 0
10, 160320, Note_on_c, 8, 67, 113
10, 160800, Note_on_c, 8, 67, 0
10, 161040, Note_on_c, 8, 67, 118
10, 161100, Note_on_c, 8, 67, 0
10, 161100, Note_on_c, 8, 65, 118
10, 161160, Note_on_c, 8, 65, 0
10, 161160, Note_on_c, 8, 64, 119
10, 161220, Note_on_c, 8, 64, 0
10, 161220, Note_on_c, 8, 62, 119
10, 161280, Note_on_c, 8, 62, 0
10, 161280, Note_on_c, 8, 60, 120
10, 161760, Note_on_c, 8, 60, 0
10, 162000, Note_on_c, 8, 60, 125
10, 162060, Note_on_c, 8, 60, 0
10, 162060, Note_on_c, 8, 59, 125
10, 162120, Note_on_c, 8, 59, 0
10, 162120, Note_on_c, 8, 57, 126
10, 162180, Note_on_c, 8, 57, 0
10, 162180, Note_on_c, 8, 55, 126
10, 162240, Note_on_c, 8, 55, 0
10, 162240, Note_on_c, 8, 53, 127
10, 162360, Note_on_c, 8, 53, 0
10, 162480, Note_on_c, 8, 65, 127
10, 162600, Note_on_c, 8, 65, 0
10, 162720, Note_on_c, 8, 65, 127
10, 162840, Note_on_c, 8, 65, 0
10, 162960, Note_on_c, 8, 65, 127
10, 163080, Note_on_c, 8, 65, 0
10, 163200, Note_on_c, 8, 65, 127
10, 163320, Note_on_c, 8, 65, 0
10, 163440, Note_on_c, 8, 65, 127
10, 163560, Note_on_c, 8, 65, 0
10, 163680, Note_on_c, 8, 65, 127
10, 163800, Note_on_c, 8, 65, 0
10, 163920, Note_on_c, 8, 65, 127
10, 164040, Note_on_c, 8, 65, 0
10, 164160, Note_on_c, 8, 67, 127
10, 164280, Note_on_c, 8, 67, 0
10, 164400, Note_on_c, 8, 67, 127
10, 164520, Note_on_c, 8, 67, 0
10, 164640, Note_on_c, 8, 55, 127
10, 164760, Note_on_c, 8, 55, 0
10, 164880, Note_on_c, 8, 55, 127
10, 165000, Note_on_c, 8, 55, 0
10, 165120, Note_on_c, 8, 60, 127
10, 165240, Note_on_c, 8, 60, 0
10, 165360, Note_on_c, 8, 53, 127
10, 165480, Note_on_c, 8, 53, 0
10, 165600, Note_on_c, 8, 65, 127
10, 165720, Note_on_c, 8, 65, 0
10, 165840, Note_on_c, 8, 65, 127
10, 165960, Note_on_c, 8, 65, 0
10, 166080, Note_on_c, 8, 65, 127
10, 166200, Note_on_c, 8, 65, 0
10, 166320, Note_on_c, 8, 65, 127
10, 166440, Note_on_c, 8, 65, 0
10, 166560, Note_on_c, 8, 65, 127
10, 166680, Note_on_c, 8, 65, 0
10, 166800, Note_on_c, 8, 65, 127
10, 166920, Note_on_c, 8, 65, 0
10, 167040, Note_on_c, 8, 67, 127
10, 167160, Note_on_c, 8, 67, 0
10, 167280, Note_on_c, 8, 67, 127
10, 167400, Note_on_c, 8, 67, 0
10, 167520, Note_on_c, 8, 55, 127
10, 167640, Note_on_c, 8, 55, 0
10, 167760, Note_on_c, 8, 55, 127
10, 167880, Note_on_c, 8, 55, 0
10, 168000, Note_on_c, 8, 60, 127
10, 168240, Note_on_c, 8, 60, 0
10, 170880, Note_on_c, 8, 60, 127
10, 170952, Note_on_c, 8, 60, 0
10, 171000, Note_on_c, 8, 55, 127
10, 171072, Note_on_c, 8, 55, 0
10, 171120, Note_on_c, 8, 57, 127
10, 171192, Note_on_c, 8, 57, 0
10, 171240, Note_on_c, 8, 59, 127
10, 171312, Note_on_c, 8, 59, 0
10, 171360, Note_on_c, 8, 60, 127
10, 171432, Note_on_c, 8, 60, 0
10, 171480, Note_on_c, 8, 59, 127
10, 171552, Note_on_c, 8, 59, 0
10, 171600, Note_on_c, 8, 60, 127
10, 171672, Note_on_c, 8, 60, 0
10, 171720, Note_on_c, 8, 62, 127
10, 171792, Note_on_c, 8, 62, 0
10, 171840, Note_on_c, 8, 64, 127
10, 171984, Note_on_c, 8, 64, 0
10, 172080, Note_on_c, 8, 48, 127
10, 172200, Note_on_c, 8, 48, 0
10, 172200, Note_on_c, 8, 50, 127
10, 172272, Note_on_c, 8, 50, 0
10, 172320, Note_on_c, 8, 52, 127
10, 172392, Note_on_c, 8, 52, 0
10, 172440, Note_on_c, 8, 50, 127
10, 172512, Note_on_c, 8, 50, 0
10, 172560, Note_on_c, 8, 52, 127
10, 172632, Note_on_c, 8, 52, 0
10, 172680, Note_on_c, 8, 53, 127
10, 172752, Note_on_c, 8, 53, 0
10, 172800, Note_on_c, 8, 55, 127
10, 172872, Note_on_c, 8, 55, 0
10, 172920, Note_on_c, 8, 54, 127
10, 172992, Note_on_c, 8, 54, 0
10, 173040, Note_on_c, 8, 55, 127
10, 173112, Note_on_c, 8, 55, 0
10, 173160, Note_on_c, 8, 57, 127
10, 173232, Note_on_c, 8, 57, 0
10, 173280, Note_on_c, 8, 59, 127
10, 173352, Note_on_c, 8, 59, 0
10, 173400, Note_on_c, 8, 55, 127
10, 173472, Note_on_c, 8, 55, 0
10, 173520, Note_on_c, 8, 57, 127
10, 173592, Note_on_c, 8, 57, 0
10, 173640, Note_on_c, 8, 59, 127
10, 173760, Note_on_c, 8, 59, 0
10, 173760, Note_on_c, 8, 60, 127
10, 174000, Note_on_c, 8, 60, 0
10, 174240, Note_on_c, 8, 72, 127
10, 174465, Note_on_c, 8, 72, 0
10, 174600, Note_on_c, 8, 72, 127
10, 174720, Note_on_c, 8, 72, 0
10, 174720, Note_on_c, 8, 72, 127
10, 175320, Note_on_c, 8, 72, 0
10, 175440, Note_on_c, 8, 71, 127
10, 175560, Note_on_c, 8, 71, 0
10, 175560, Note_on_c, 8, 69, 127
10, 175680, Note_on_c, 8, 69, 0
10, 175680, Note_on_c, 8, 67, 127
10, 175764, Note_on_c, 8, 67, 0
10, 175800, Note_on_c, 8, 69, 127
10, 175884, Note_on_c, 8, 69, 0
10, 175920, Note_on_c, 8, 67, 127
10, 176004, Note_on_c, 8, 67, 0
10, 176040, Note_on_c, 8, 65, 127
10, 176124, Note_on_c, 8, 65, 0
10, 176160, Note_on_c, 8, 64, 127
10, 176244, Note_on_c, 8, 64, 0
10, 176280, Note_on_c, 8, 65, 127
10, 176364, Note_on_c, 8, 65, 0
10, 176400, Note_on_c, 8, 64, 127
10, 176484, Note_on_c, 8, 64, 0
10, 176520, Note_on_c, 8, 62, 127
10, 176604, Note_on_c, 8, 62, 0
10, 176640, Note_on_c, 8, 60, 127
10, 176760, Note_on_c, 8, 60, 0
10, 176880, Note_on_c, 8, 67, 127
10, 177000, Note_on_c, 8, 67, 0
10, 177120, Note_on_c, 8, 72, 127
10, 177240, Note_on_c, 8, 72, 0
10, 177360, Note_on_c, 8, 67, 127
10, 177480, Note_on_c, 8, 67, 0
10, 177600, Note_on_c, 8, 72, 127
10, 177720, Note_on_c, 8, 72, 0
10, 177840, Note_on_c, 8, 67, 127
10, 177960, Note_on_c, 8, 67, 0
10, 178080, Note_on_c, 8, 72, 127
10, 178200, Note_on_c, 8, 72, 0
10, 178320, Note_on_c, 8, 67, 127
10, 178440, Note_on_c, 8, 67, 0
10, 178560, Note_on_c, 8, 72, 127
10, 178644, Note_on_c, 8, 72, 0
10, 178680, Note_on_c, 8, 71, 127
10, 178764, Note_on_c, 8, 71, 0
10, 178800, Note_on_c, 8, 69, 127
10, 178884, Note_on_c, 8, 69, 0
10, 178920, Note_on_c, 8, 67, 127
10, 179004, Note_on_c, 8, 67, 0
10, 179040, Note_on_c, 8, 72, 127
10, 179124, Note_on_c, 8, 72, 0
10, 179160, Note_on_c, 8, 71, 127
10, 179244, Note_on_c, 8, 71, 0
10, 179280, Note_on_c, 8, 69, 127
10, 179364, Note_on_c, 8, 69, 0
10, 179400, Note_on_c, 8, 67, 127
10, 179484, Note_on_c, 8, 67, 0
10, 179520, Note_on_c, 8, 72, 127
10, 179604, Note_on_c, 8, 72, 0
10, 179640, Note_on_c, 8, 71, 127
10, 179724, Note_on_c, 8, 71, 0
10, 179760, Note_on_c, 8, 69, 127
10, 179844, Note_on_c, 8, 69, 0
10, 179880, Note_on_c, 8, 67, 127
10, 179964, Note_on_c, 8, 67, 0
10, 180000, Note_on_c, 8, 65, 127
10, 180084, Note_on_c, 8, 65, 0
10, 180120, Note_on_c, 8, 64, 127
10, 180204, Note_on_c, 8, 64, 0
10, 180240, Note_on_c, 8, 62, 127
10, 180324, Note_on_c, 8, 62, 0
10, 180360, Note_on_c, 8, 60, 127
10, 180444, Note_on_c, 8, 60, 0
10, 180480, Note_on_c, 8, 55, 127
10, 180600, Note_on_c, 8, 55, 0
10, 180720, Note_on_c, 8, 67, 127
10, 180840, Note_on_c, 8, 67, 0
10, 180960, Note_on_c, 8, 67, 127
10, 181080, Note_on_c, 8, 67, 0
10, 181200, Note_on_c, 8, 67, 127
10, 181320, Note_on_c, 8, 67, 0
10, 181440, Note_on_c, 8, 67, 127
10, 181560, Note_on_c, 8, 67, 0
10, 181680, Note_on_c, 8, 67, 127
10, 181800, Note_on_c, 8, 67, 0
10, 181920, Note_on_c, 8, 67, 127
10, 182040, Note_on_c, 8, 67, 0
10, 182160, Note_on_c, 8, 67, 127
10, 182280, Note_on_c, 8, 67, 0
10, 182400, Note_on_c, 8, 67, 127
10, 182520, Note_on_c, 8, 67, 0
10, 182640, Note_on_c, 8, 67, 127
10, 182760, Note_on_c, 8, 67, 0
10, 182880, Note_on_c, 8, 67, 127
10, 183000, Note_on_c, 8, 67, 0
10, 183120, Note_on_c, 8, 67, 127
10, 183240, Note_on_c, 8, 67, 0
10, 183360, Note_on_c, 8, 67, 127
10, 183840, Note_on_c, 8, 67, 0
10, 191040, Note_on_c, 8, 60, 50
10, 192000, Note_on_c, 8, 60, 0
10, 192000, Note_on_c, 8, 62, 50
10, 192960, Note_on_c, 8, 62, 0
10, 192960, Note_on_c, 8, 65, 50
10, 194158, Note_on_c, 8, 65, 0
10, 194160, Note_on_c, 8, 67, 50
10, 194280, Note_on_c, 8, 67, 0
10, 194280, Note_on_c, 8, 65, 50
10, 194400, Note_on_c, 8, 65, 0
10, 194400, Note_on_c, 8, 64, 50
10, 194520, Note_on_c, 8, 64, 0
10, 194640, Note_on_c, 8, 62, 50
10, 194760, Note_on_c, 8, 62, 0
10, 194880, Note_on_c, 8, 60, 50
10, 195598, Note_on_c, 8, 60, 0
10, 195600, Note_on_c, 8, 62, 50
10, 195840, Note_on_c, 8, 62, 0
10, 195840, Note_on_c, 8, 64, 50
10, 196800, Note_on_c, 8, 64, 0
10, 196800, Note_on_c, 8, 65, 50
10, 197280, Note_on_c, 8, 65, 0
10, 197280, Note_on_c, 8, 59, 50
10, 197998, Note_on_c, 8, 59, 0
10, 198000, Note_on_c, 8, 60, 50
10, 198120, Note_on_c, 8, 60, 0
10, 198120, Note_on_c, 8, 59, 50
10, 198240, Note_on_c, 8, 59, 0
10, 198240, Note_on_c, 8, 57, 50
10, 198360, Note_on_c, 8, 57, 0
10, 198480, Note_on_c, 8, 64, 50
10, 198600, Note_on_c, 8, 64, 0
10, 198720, Note_on_c, 8, 69, 50
10, 199440, Note_on_c, 8, 69, 0
10, 199440, Note_on_c, 8, 65, 50
10, 199680, Note_on_c, 8, 65, 0
10, 199680, Note_on_c, 8, 62, 50
10, 200160, Note_on_c, 8, 62, 0
10, 200160, Note_on_c, 8, 65, 50
10, 200280, Note_on_c, 8, 65, 0
10, 200400, Note_on_c, 8, 67, 50
10, 200520, Note_on_c, 8, 67, 0
10, 200640, Note_on_c, 8, 67, 127
10, 200760, Note_on_c, 8, 67, 0
10, 200880, Note_on_c, 8, 64, 127
10, 201000, Note_on_c, 8, 64, 0
10, 201120, Note_on_c, 8, 60, 127
10, 201240, Note_on_c, 8, 60, 0
10, 201360, Note_on_c, 8, 64, 127
10, 201480, Note_on_c, 8, 64, 0
10, 201600, Note_on_c, 8, 69, 127
10, 201720, Note_on_c, 8, 69, 0
10, 201840, Note_on_c, 8, 67, 127
10, 201960, Note_on_c, 8, 67, 0
10, 202080, Note_on_c, 8, 65, 127
10, 202200, Note_on_c, 8, 65, 0
10, 202320, Note_on_c, 8, 64, 127
10, 202440, Note_on_c, 8, 64, 0
10, 202560, Note_on_c, 8, 62, 127
10, 202680, Note_on_c, 8, 62, 0
10, 202800, Note_on_c, 8, 59, 127
10, 202920, Note_on_c, 8, 59, 0
10, 203040, Note_on_c, 8, 60, 127
10, 203160, Note_on_c, 8, 60, 0
10, 203280, Note_on_c, 8, 62, 127
10, 203400, Note_on_c, 8, 62, 0
10, 203520, Note_on_c, 8, 55, 127
10, 203592, Note_on_c, 8, 55, 0
10, 203640, Note_on_c, 8, 67, 127
10, 203712, Note_on_c, 8, 67, 0
10, 203760, Note_on_c, 8, 67, 127
10, 203832, Note_on_c, 8, 67, 0
10, 203880, Note_on_c, 8, 67, 127
10, 203952, Note_on_c, 8, 67, 0
10, 204000, Note_on_c, 8, 67, 127
10, 204072, Note_on_c, 8, 67, 0
10, 204120, Note_on_c, 8, 67, 127
10, 204192, Note_on_c, 8, 67, 0
10, 204240, Note_on_c, 8, 67, 127
10, 204312, Note_on_c, 8, 67, 0
10, 204360, Note_on_c, 8, 67, 127
10, 204432, Note_on_c, 8, 67, 0
10, 204480, Note_on_c, 8, 66, 127
10, 204552, Note_on_c, 8, 66, 0
10, 204600, Note_on_c, 8, 66, 127
10, 204672, Note_on_c, 8, 66, 0
10, 204720, Note_on_c, 8, 66, 127
10, 204792, Note_on_c, 8, 66, 0
10, 204840, Note_on_c, 8, 66, 127
10, 204912, Note_on_c, 8, 66, 0
10, 204960, Note_on_c, 8, 66, 127
10, 205032, Note_on_c, 8, 66, 0
10, 205080, Note_on_c, 8, 66, 127
10, 205152, Note_on_c, 8, 66, 0
10, 205200, Note_on_c, 8, 66, 127
10, 205272, Note_on_c, 8, 66, 0
10, 205320, Note_on_c, 8, 66, 127
10, 205392, Note_on_c, 8, 66, 0
10, 205440, Note_on_c, 8, 66, 127
10, 205512, Note_on_c, 8, 66, 0
10, 205560, Note_on_c, 8, 66, 127
10, 205632, Note_on_c, 8, 66, 0
10, 205680, Note_on_c, 8, 66, 127
10, 205752, Note_on_c, 8, 66, 0
10, 205800, Note_on_c, 8, 66, 127
10, 205872, Note_on_c, 8, 66, 0
10, 205920, Note_on_c, 8, 66, 127
10, 205992, Note_on_c, 8, 66, 0
10, 206040, Note_on_c, 8, 66, 127
10, 206112, Note_on_c, 8, 66, 0
10, 206160, Note_on_c, 8, 66, 127
10, 206232, Note_on_c, 8, 66, 0
10, 206280, Note_on_c, 8, 66, 127
10, 206352, Note_on_c, 8, 66, 0
10, 206400, Note_on_c, 8, 64, 127
10, 206472, Note_on_c, 8, 64, 0
10, 206520, Note_on_c, 8, 64, 127
10, 206592, Note_on_c, 8, 64, 0
10, 206640, Note_on_c, 8, 64, 127
10, 206712, Note_on_c, 8, 64, 0
10, 206760, Note_on_c, 8, 64, 127
10, 206832, Note_on_c, 8, 64, 0
10, 206880, Note_on_c, 8, 64, 127
10, 206952, Note_on_c, 8, 64, 0
10, 207000, Note_on_c, 8, 64, 127
10, 207072, Note_on_c, 8, 64, 0
10, 207120, Note_on_c, 8, 64, 127
10, 207192, Note_on_c, 8, 64, 0
10, 207240, Note_on_c, 8, 64, 127
10, 207312, Note_on_c, 8, 64, 0
10, 207360, Note_on_c, 8, 64, 127
10, 207432, Note_on_c, 8, 64, 0
10, 207480, Note_on_c, 8, 64, 127
10, 207552, Note_on_c, 8, 64, 0
10, 207600, Note_on_c, 8, 64, 127
10, 207672, Note_on_c, 8, 64, 0
10, 207720, Note_on_c, 8, 64, 127
10, 207792, Note_on_c, 8, 64, 0
10, 207840, Note_on_c, 8, 64, 127
10, 207912, Note_on_c, 8, 64, 0
10, 207960, Note_on_c, 8, 64, 127
10, 208032, Note_on_c, 8, 64, 0
10, 208080, Note_on_c, 8, 64, 127
10, 208152, Note_on_c, 8, 64, 0
10, 208200, Note_on_c, 8, 64, 127
10, 208272, Note_on_c, 8, 64, 0
10, 208320, Note_on_c, 8, 62, 127
10, 208392, Note_on_c, 8, 62, 0
10, 208440, Note_on_c, 8, 62, 127
10, 208512, Note_on_c, 8, 62, 0
10, 208560, Note_on_c, 8, 62, 127
10, 208632, Note_on_c, 8, 62, 0
10, 208680, Note_on_c, 8, 62, 127
10, 208752, Note_on_c, 8, 62, 0
10, 208800, Note_on_c, 8, 62, 127
10, 208872, Note_on_c, 8, 62, 0
10, 208920, Note_on_c, 8, 62, 127
10, 208992, Note_on_c, 8, 62, 0
10, 209040, Note_on_c, 8, 62, 127
10, 209112, Note_on_c, 8, 62, 0
10, 209160, Note_on_c, 8, 62, 127
10, 209232, Note_on_c, 8, 62, 0
10, 209280, Note_on_c, 8, 62, 127
10, 209352, Note_on_c, 8, 62, 0
10, 209400, Note_on_c, 8, 62, 127
10, 209472, Note_on_c, 8, 62, 0
10, 209520, Note_on_c, 8, 62, 127
10, 209592, Note_on_c, 8, 62, 0
10, 209640, Note_on_c, 8, 62, 127
10, 209712, Note_on_c, 8, 62, 0
10, 209760, Note_on_c, 8, 62, 127
10, 209832, Note_on_c, 8, 62, 0
10, 209880, Note_on_c, 8, 62, 127
10, 209952, Note_on_c, 8, 62, 0
10, 210000, Note_on_c, 8, 62, 127
10, 210072, Note_on_c, 8, 62, 0
10, 210120, Note_on_c, 8, 62, 127
10, 210192, Note_on_c, 8, 62, 0
10, 210240, Note_on_c, 8, 64, 127
10, 210360, Note_on_c, 8, 64, 0
10, 210360, Note_on_c, 8, 64, 127
10, 210480, Note_on_c, 8, 64, 0
10, 210480, Note_on_c, 8, 64, 127
10, 210600, Note_on_c, 8, 64, 0
10, 210600, Note_on_c, 8, 64, 127
10, 210720, Note_on_c, 8, 64, 0
10, 210720, Note_on_c, 8, 64, 127
10, 210840, Note_on_c, 8, 64, 0
10, 210840, Note_on_c, 8, 64, 127
10, 210960, Note_on_c, 8, 64, 0
10, 210960, Note_on_c, 8, 64, 127
10, 211080, Note_on_c, 8, 64, 0
10, 211080, Note_on_c, 8, 64, 127
10, 211200, Note_on_c, 8, 64, 0
10, 211200, Note_on_c, 8, 62, 127
10, 211650, Note_on_c, 8, 62, 0
10, 212160, Note_on_c, 8, 74, 127
10, 212385, Note_on_c, 8, 74, 0
10, 212520, Note_on_c, 8, 74, 127
10, 212640, Note_on_c, 8, 74, 0
10, 212640, Note_on_c, 8, 74, 127
10, 213360, Note_on_c, 8, 74, 0
10, 213360, Note_on_c, 8, 73, 127
10, 213444, Note_on_c, 8, 73, 0
10, 213480, Note_on_c, 8, 71, 127
10, 213564, Note_on_c, 8, 71, 0
10, 213600, Note_on_c, 8, 69, 127
10, 213684, Note_on_c, 8, 69, 0
10, 213720, Note_on_c, 8, 71, 127
10, 213804, Note_on_c, 8, 71, 0
10, 213840, Note_on_c, 8, 69, 127
10, 213924, Note_on_c, 8, 69, 0
10, 213960, Note_on_c, 8, 67, 127
10, 214044, Note_on_c, 8, 67, 0
10, 214080, Note_on_c, 8, 66, 127
10, 214164, Note_on_c, 8, 66, 0
10, 214200, Note_on_c, 8, 67, 127
10, 214284, Note_on_c, 8, 67, 0
10, 214320, Note_on_c, 8, 66, 127
10, 214404, Note_on_c, 8, 66, 0
10, 214440, Note_on_c, 8, 64, 127
10, 214524, Note_on_c, 8, 64, 0
10, 214560, Note_on_c, 8, 62, 127
10, 214800, Note_on_c, 8, 62, 0
10, 215040, Note_on_c, 8, 74, 127
10, 215265, Note_on_c, 8, 74, 0
10, 215400, Note_on_c, 8, 74, 127
10, 215520, Note_on_c, 8, 74, 0
10, 215520, Note_on_c, 8, 74, 127
10, 216240, Note_on_c, 8, 74, 0
10, 216240, Note_on_c, 8, 73, 127
10, 216324, Note_on_c, 8, 73, 0
10, 216360, Note_on_c, 8, 71, 127
10, 216444, Note_on_c, 8, 71, 0
10, 216480, Note_on_c, 8, 69, 127
10, 216564, Note_on_c, 8, 69, 0
10, 216600, Note_on_c, 8, 71, 127
10, 216684, Note_on_c, 8, 71, 0
10, 216720, Note_on_c, 8, 69, 127
10, 216804, Note_on_c, 8, 69, 0
10, 216840, Note_on_c, 8, 67, 127
10, 216924, Note_on_c, 8, 67, 0
10, 216960, Note_on_c, 8, 66, 127
10, 217044, Note_on_c, 8, 66, 0
10, 217080, Note_on_c, 8, 67, 127
10, 217164, Note_on_c, 8, 67, 0
10, 217200, Note_on_c, 8, 66, 127
10, 217284, Note_on_c, 8, 66, 0
10, 217320, Note_on_c, 8, 64, 127
10, 217404, Note_on_c, 8, 64, 0
10, 217440, Note_on_c, 8, 62, 127
10, 217524, Note_on_c, 8, 62, 0
10, 217560, Note_on_c, 8, 64, 127
10, 217644, Note_on_c, 8, 64, 0
10, 217680, Note_on_c, 8, 66, 127
10, 217764, Note_on_c, 8, 66, 0
10, 217800, Note_on_c, 8, 67, 127
10, 217884, Note_on_c, 8, 67, 0
10, 217920, Note_on_c, 8, 69, 127
10, 218004, Note_on_c, 8, 69, 0
10, 218040, Note_on_c, 8, 71, 127
10, 218124, Note_on_c, 8, 71, 0
10, 218160, Note_on_c, 8, 69, 127
10, 218244, Note_on_c, 8, 69, 0
10, 218280, Note_on_c, 8, 67, 127
10, 218364, Note_on_c, 8, 67, 0
10, 218400, Note_on_c, 8, 66, 127
10, 218484, Note_on_c, 8, 66, 0
10, 218520, Note_on_c, 8, 67, 127
10, 218604, Note_on_c, 8, 67, 0
10, 218640, Note_on_c, 8, 69, 127
10, 218724, Note_on_c, 8, 69, 0
10, 218760, Note_on_c, 8, 67, 127
10, 218844, Note_on_c, 8, 67, 0
10, 218880, Note_on_c, 8, 66, 127
10, 219000, Note_on_c, 8, 66, 0
10, 219120, Note_on_c, 8, 57, 127
10, 219240, Note_on_c, 8, 57, 0
10, 219360, Note_on_c, 8, 54, 127
10, 219480, Note_on_c, 8, 54, 0
10, 219600, Note_on_c, 8, 62, 127
10, 219720, Note_on_c, 8, 62, 0
10, 219840, Note_on_c, 8, 54, 127
10, 220320, Note_on_c, 8, 54, 0
10, 220800, Note_on_c, 8, 55, 50
10, 221280, Note_on_c, 8, 55, 0
10, 221760, Note_on_c, 8, 64, 50
10, 222240, Note_on_c, 8, 64, 0
10, 222720, Note_on_c, 8, 57, 50
10, 223200, Note_on_c, 8, 57, 0
10, 223680, Note_on_c, 8, 62, 50
10, 224160, Note_on_c, 8, 62, 0
10, 224640, Note_on_c, 8, 67, 50
10, 224880, Note_on_c, 8, 67, 0
10, 225120, Note_on_c, 8, 59, 50
10, 225360, Note_on_c, 8, 59, 0
10, 225600, Note_on_c, 8, 60, 50
10, 225840, Note_on_c, 8, 60, 0
10, 226080, Note_on_c, 8, 61, 50
10, 226320, Note_on_c, 8, 61, 0
10, 226560, Note_on_c, 8, 62, 50
10, 226800, Note_on_c, 8, 62, 0
10, 227040, Note_on_c, 8, 54, 50
10, 227520, Note_on_c, 8, 54, 0
10, 227520, Note_on_c, 8, 55, 50
10, 228000, Note_on_c, 8, 55, 0
10, 228000, Note_on_c, 8, 56, 50
10, 228480, Note_on_c, 8, 56, 0
10, 228480, Note_on_c, 8, 57, 50
10, 228816, Note_on_c, 8, 57, 0
10, 228960, Note_on_c, 8, 60, 50
10, 229680, Note_on_c, 8, 60, 0
10, 229680, Note_on_c, 8, 57, 50
10, 229800, Note_on_c, 8, 57, 0
10, 229920, Note_on_c, 8, 62, 50
10, 230040, Note_on_c, 8, 62, 0
10, 230160, Note_on_c, 8, 60, 50
10, 230280, Note_on_c, 8, 60, 0
10, 230400, Note_on_c, 8, 59, 50
10, 231360, Note_on_c, 8, 59, 0
10, 231360, Note_on_c, 8, 60, 50
10, 231840, Note_on_c, 8, 60, 0
10, 231840, Note_on_c, 8, 61, 50
10, 232320, Note_on_c, 8, 61, 0
10, 232320, Note_on_c, 8, 62, 50
10, 234238, Note_on_c, 8, 62, 0
10, 234240, Note_on_c, 8, 62, 50
10, 236158, Note_on_c, 8, 62, 0
10, 236160, Note_on_c, 8, 62, 50
10, 238078, Note_on_c, 8, 62, 0
10, 238080, Note_on_c, 8, 62, 50
10, 239998, Note_on_c, 8, 62, 0
10, 240000, Note_on_c, 8, 55, 100
10, 240480, Note_on_c, 8, 55, 0
10, 241080, Note_on_c, 8, 55, 100
10, 241164, Note_on_c, 8, 55, 0
10, 241200, Note_on_c, 8, 60, 100
10, 241284, Note_on_c, 8, 60, 0
10, 241320, Note_on_c, 8, 62, 100
10, 241404, Note_on_c, 8, 62, 0
10, 241440, Note_on_c, 8, 64, 100
10, 241524, Note_on_c, 8, 64, 0
10, 241560, Note_on_c, 8, 65, 100
10, 241644, Note_on_c, 8, 65, 0
10, 241680, Note_on_c, 8, 64, 100
10, 241764, Note_on_c, 8, 64, 0
10, 241800, Note_on_c, 8, 62, 100
10, 241884, Note_on_c, 8, 62, 0
10, 241920, Note_on_c, 8, 60, 100
10, 242004, Note_on_c, 8, 60, 0
10, 242040, Note_on_c, 8, 59, 100
10, 242124, Note_on_c, 8, 59, 0
10, 242160, Note_on_c, 8, 57, 100
10, 242244, Note_on_c, 8, 57, 0
10, 242280, Note_on_c, 8, 55, 100
10, 242364, Note_on_c, 8, 55, 0
10, 242400, Note_on_c, 8, 54, 100
10, 242736, Note_on_c, 8, 54, 0
10, 243000, Note_on_c, 8, 59, 100
10, 243084, Note_on_c, 8, 59, 0
10, 243120, Note_on_c, 8, 64, 100
10, 243204, Note_on_c, 8, 64, 0
10, 243240, Note_on_c, 8, 65, 100
10, 243324, Note_on_c, 8, 65, 0
10, 243360, Note_on_c, 8, 67, 100
10, 243444, Note_on_c, 8, 67, 0
10, 243480, Note_on_c, 8, 69, 100
10, 243564, Note_on_c, 8, 69, 0
10, 243600, Note_on_c, 8, 67, 100
10, 243684, Note_on_c, 8, 67, 0
10, 243720, Note_on_c, 8, 65, 100
10, 243804, Note_on_c, 8, 65, 0
10, 243840, Note_on_c, 8, 64, 100
10, 243924, Note_on_c, 8, 64, 0
10, 243960, Note_on_c, 8, 62, 100
10, 244044, Note_on_c, 8, 62, 0
10, 244080, Note_on_c, 8, 60, 100
10, 244164, Note_on_c, 8, 60, 0
10, 244200, Note_on_c, 8, 59, 100
10, 244284, Note_on_c, 8, 59, 0
10, 244320, Note_on_c, 8, 57, 100
10, 244656, Note_on_c, 8, 57, 0
10, 245760, Note_on_c, 8, 67, 100
10, 246096, Note_on_c, 8, 67, 0
10, 246240, Note_on_c, 8, 64, 100
10, 246576, Note_on_c, 8, 64, 0
10, 246720, Note_on_c, 8, 69, 100
10, 247284, Note_on_c, 8, 69, 0
10, 247320, Note_on_c, 8, 67, 100
10, 247404, Note_on_c, 8, 67, 0
10, 247440, Note_on_c, 8, 66, 100
10, 247524, Note_on_c, 8, 66, 0
10, 247560, Note_on_c, 8, 64, 100
10, 247644, Note_on_c, 8, 64, 0
10, 247680, Note_on_c, 8, 66, 100
10, 247764, Note_on_c, 8, 66, 0
10, 247800, Note_on_c, 8, 64, 100
10, 247884, Note_on_c, 8, 64, 0
10, 247920, Note_on_c, 8, 62, 100
10, 248004, Note_on_c, 8, 62, 0
10, 248040, Note_on_c, 8, 60, 100
10, 248124, Note_on_c, 8, 60, 0
10, 248160, Note_on_c, 8, 59, 100
10, 248496, Note_on_c, 8, 59, 0
10, 248640, Note_on_c, 8, 67, 100
10, 249144, Note_on_c, 8, 67, 0
10, 249600, Note_on_c, 8, 64, 100
10, 249936, Note_on_c, 8, 64, 0
10, 250080, Note_on_c, 8, 60, 100
10, 250416, Note_on_c, 8, 60, 0
10, 250560, Note_on_c, 8, 66, 100
10, 251124, Note_on_c, 8, 66, 0
10, 251160, Note_on_c, 8, 64, 100
10, 251244, Note_on_c, 8, 64, 0
10, 251280, Note_on_c, 8, 63, 100
10, 251364, Note_on_c, 8, 63, 0
10, 251400, Note_on_c, 8, 61, 100
10, 251484, Note_on_c, 8, 61, 0
10, 251520, Note_on_c, 8, 63, 100
10, 251604, Note_on_c, 8, 63, 0
10, 251640, Note_on_c, 8, 61, 100
10, 251724, Note_on_c, 8, 61, 0
10, 251760, Note_on_c, 8, 59, 100
10, 251844, Note_on_c, 8, 59, 0
10, 251880, Note_on_c, 8, 57, 100
10, 251964, Note_on_c, 8, 57, 0
10, 252000, Note_on_c, 8, 55, 100
10, 252336, Note_on_c, 8, 55, 0
10, 252480, Note_on_c, 8, 64, 100
10, 252984, Note_on_c, 8, 64, 0
10, 253440, Note_on_c, 8, 60, 100
10, 253776, Note_on_c, 8, 60, 0
10, 253920, Note_on_c, 8, 57, 100
10, 254256, Note_on_c, 8, 57, 0
10, 254400, Note_on_c, 8, 62, 100
10, 254964, Note_on_c, 8, 62, 0
10, 255000, Note_on_c, 8, 60, 100
10, 255084, Note_on_c, 8, 60, 0
10, 255120, Note_on_c, 8, 59, 100
10, 255204, Note_on_c, 8, 59, 0
10, 255240, Note_on_c, 8, 57, 100
10, 255324, Note_on_c, 8, 57, 0
10, 255360, Note_on_c, 8, 55, 100
10, 255528, Note_on_c, 8, 55, 0
10, 255600, Note_on_c, 8, 60, 100
10, 255684, Note_on_c, 8, 60, 0
10, 255720, Note_on_c, 8, 59, 100
10, 255804, Note_on_c, 8, 59, 0
10, 255840, Note_on_c, 8, 60, 100
10, 255924, Note_on_c, 8, 60, 0
10, 255960, Note_on_c, 8, 59, 100
10, 256044, Note_on_c, 8, 59, 0
10, 256080, Note_on_c, 8, 57, 100
10, 256164, Note_on_c, 8, 57, 0
10, 256200, Note_on_c, 8, 55, 100
10, 256284, Note_on_c, 8, 55, 0
10, 256320, Note_on_c, 8, 60, 100
10, 256488, Note_on_c, 8, 60, 0
10, 256560, Note_on_c, 8, 64, 100
10, 256644, Note_on_c, 8, 64, 0
10, 256680, Note_on_c, 8, 62, 100
10, 256764, Note_on_c, 8, 62, 0
10, 256800, Note_on_c, 8, 64, 100
10, 256884, Note_on_c, 8, 64, 0
10, 256920, Note_on_c, 8, 62, 100
10, 257004, Note_on_c, 8, 62, 0
10, 257040, Note_on_c, 8, 60, 100
10, 257124, Note_on_c, 8, 60, 0
10, 257160, Note_on_c, 8, 59, 100
10, 257244, Note_on_c, 8, 59, 0
10, 257280, Note_on_c, 8, 64, 100
10, 257448, Note_on_c, 8, 64, 0
10, 257520, Note_on_c, 8, 60, 100
10, 257604, Note_on_c, 8, 60, 0
10, 257640, Note_on_c, 8, 59, 100
10, 257724, Note_on_c, 8, 59, 0
10, 257760, Note_on_c, 8, 60, 100
10, 257844, Note_on_c, 8, 60, 0
10, 257880, Note_on_c, 8, 59, 100
10, 257964, Note_on_c, 8, 59, 0
10, 258000, Note_on_c, 8, 57, 100
10, 258084, Note_on_c, 8, 57, 0
10, 258120, Note_on_c, 8, 55, 100
10, 258204, Note_on_c, 8, 55, 0
10, 260160, Note_on_c, 8, 55, 100
10, 260244, Note_on_c, 8, 55, 0
10, 260280, Note_on_c, 8, 62, 100
10, 260364, Note_on_c, 8, 62, 0
10, 260400, Note_on_c, 8, 62, 100
10, 260484, Note_on_c, 8, 62, 0
10, 260520, Note_on_c, 8, 62, 100
10, 260604, Note_on_c, 8, 62, 0
10, 260640, Note_on_c, 8, 62, 100
10, 260724, Note_on_c, 8, 62, 0
10, 260760, Note_on_c, 8, 62, 100
10, 260844, Note_on_c, 8, 62, 0
10, 260880, Note_on_c, 8, 62, 100
10, 260964, Note_on_c, 8, 62, 0
10, 261000, Note_on_c, 8, 62, 100
10, 261084, Note_on_c, 8, 62, 0
10, 261120, Note_on_c, 8, 62, 100
10, 261204, Note_on_c, 8, 62, 0
10, 261240, Note_on_c, 8, 62, 100
10, 261324, Note_on_c, 8, 62, 0
10, 261360, Note_on_c, 8, 62, 100
10, 261444, Note_on_c, 8, 62, 0
10, 261480, Note_on_c, 8, 62, 100
10, 261564, Note_on_c, 8, 62, 0
10, 261600, Note_on_c, 8, 62, 100
10, 261684, Note_on_c, 8, 62, 0
10, 261720, Note_on_c, 8, 62, 100
10, 261804, Note_on_c, 8, 62, 0
10, 261840, Note_on_c, 8, 62, 100
10, 261924, Note_on_c, 8, 62, 0
10, 261960, Note_on_c, 8, 62, 100
10, 262044, Note_on_c, 8, 62, 0
10, 262080, Note_on_c, 8, 64, 100
10, 262164, Note_on_c, 8, 64, 0
10, 262200, Note_on_c, 8, 64, 100
10, 262284, Note_on_c, 8, 64, 0
10, 262320, Note_on_c, 8, 64, 100
10, 262404, Note_on_c, 8, 64, 0
10, 262440, Note_on_c, 8, 64, 100
10, 262524, Note_on_c, 8, 64, 0
10, 262560, Note_on_c, 8, 64, 100
10, 262644, Note_on_c, 8, 64, 0
10, 262680, Note_on_c, 8, 64, 100
10, 262764, Note_on_c, 8, 64, 0
10, 262800, Note_on_c, 8, 64, 100
10, 262884, Note_on_c, 8, 64, 0
10, 262920, Note_on_c, 8, 64, 100
10, 263004, Note_on_c, 8, 64, 0
10, 263040, Note_on_c, 8, 64, 100
10, 263124, Note_on_c, 8, 64, 0
10, 263160, Note_on_c, 8, 64, 100
10, 263244, Note_on_c, 8, 64, 0
10, 263280, Note_on_c, 8, 64, 100
10, 263364, Note_on_c, 8, 64, 0
10, 263400, Note_on_c, 8, 64, 100
10, 263484, Note_on_c, 8, 64, 0
10, 263520, Note_on_c, 8, 64, 100
10, 263604, Note_on_c, 8, 64, 0
10, 263640, Note_on_c, 8, 64, 100
10, 263724, Note_on_c, 8, 64, 0
10, 263760, Note_on_c, 8, 64, 100
10, 263844, Note_on_c, 8, 64, 0
10, 263880, Note_on_c, 8, 64, 100
10, 263964, Note_on_c, 8, 64, 0
10, 264000, Note_on_c, 8, 59, 100
10, 264084, Note_on_c, 8, 59, 0
10, 264120, Note_on_c, 8, 59, 100
10, 264204, Note_on_c, 8, 59, 0
10, 264240, Note_on_c, 8, 59, 100
10, 264324, Note_on_c, 8, 59, 0
10, 264360, Note_on_c, 8, 59, 100
10, 264444, Note_on_c, 8, 59, 0
10, 264480, Note_on_c, 8, 59, 100
10, 264564, Note_on_c, 8, 59, 0
10, 264600, Note_on_c, 8, 59, 100
10, 264684, Note_on_c, 8, 59, 0
10, 264720, Note_on_c, 8, 59, 100
10, 264804, Note_on_c, 8, 59, 0
10, 264840, Note_on_c, 8, 59, 100
10, 264924, Note_on_c, 8, 59, 0
10, 264960, Note_on_c, 8, 59, 100
10, 265044, Note_on_c, 8, 59, 0
10, 265080, Note_on_c, 8, 59, 100
10, 265164, Note_on_c, 8, 59, 0
10, 265200, Note_on_c, 8, 59, 100
10, 265284, Note_on_c, 8, 59, 0
10, 265320, Note_on_c, 8, 59, 100
10, 265404, Note_on_c, 8, 59, 0
10, 265440, Note_on_c, 8, 59, 100
10, 265524, Note_on_c, 8, 59, 0
10, 265560, Note_on_c, 8, 59, 100
10, 265644, Note_on_c, 8, 59, 0
10, 265680, Note_on_c, 8, 59, 100
10, 265764, Note_on_c, 8, 59, 0
10, 265800, Note_on_c, 8, 59, 100
10, 265884, Note_on_c, 8, 59, 0
10, 265920, Note_on_c, 8, 60, 100
10, 266004, Note_on_c, 8, 60, 0
10, 266040, Note_on_c, 8, 60, 100
10, 266124, Note_on_c, 8, 60, 0
10, 266160, Note_on_c, 8, 60, 100
10, 266244, Note_on_c, 8, 60, 0
10, 266280, Note_on_c, 8, 60, 100
10, 266364, Note_on_c, 8, 60, 0
10, 266400, Note_on_c, 8, 64, 100
10, 266484, Note_on_c, 8, 64, 0
10, 266520, Note_on_c, 8, 64, 100
10, 266604, Note_on_c, 8, 64, 0
10, 266640, Note_on_c, 8, 64, 100
10, 266724, Note_on_c, 8, 64, 0
10, 266760, Note_on_c, 8, 64, 100
10, 266844, Note_on_c, 8, 64, 0
10, 266880, Note_on_c, 8, 62, 100
10, 266964, Note_on_c, 8, 62, 0
10, 267000, Note_on_c, 8, 62, 100
10, 267084, Note_on_c, 8, 62, 0
10, 267120, Note_on_c, 8, 62, 100
10, 267204, Note_on_c, 8, 62, 0
10, 267240, Note_on_c, 8, 62, 100
10, 267324, Note_on_c, 8, 62, 0
10, 267360, Note_on_c, 8, 69, 100
10, 267444, Note_on_c, 8, 69, 0
10, 267480, Note_on_c, 8, 69, 100
10, 267564, Note_on_c, 8, 69, 0
10, 267600, Note_on_c, 8, 69, 100
10, 267684, Note_on_c, 8, 69, 0
10, 267720, Note_on_c, 8, 69, 100
10, 267804, Note_on_c, 8, 69, 0
10, 267840, Note_on_c, 8, 67, 100
10, 268080, Note_on_c, 8, 67, 0
10, 268080, Note_on_c, 8, 71, 100
10, 268320, Note_on_c, 8, 71, 0
10, 268320, Note_on_c, 8, 71, 100
10, 268560, Note_on_c, 8, 71, 0
10, 268560, Note_on_c, 8, 71, 100
10, 268800, Note_on_c, 8, 71, 0
10, 268800, Note_on_c, 8, 71, 100
10, 269520, Note_on_c, 8, 71, 0
10, 269520, Note_on_c, 8, 69, 100
10, 269580, Note_on_c, 8, 69, 0
10, 269580, Note_on_c, 8, 67, 100
10, 269640, Note_on_c, 8, 67, 0
10, 269640, Note_on_c, 8, 66, 100
10, 269700, Note_on_c, 8, 66, 0
10, 269700, Note_on_c, 8, 64, 100
10, 269760, Note_on_c, 8, 64, 0
10, 269760, Note_on_c, 8, 62, 100
10, 269880, Note_on_c, 8, 62, 0
10, 270000, Note_on_c, 8, 74, 100
10, 270120, Note_on_c, 8, 74, 0
10, 270240, Note_on_c, 8, 74, 100
10, 270360, Note_on_c, 8, 74, 0
10, 270480, Note_on_c, 8, 74, 100
10, 270600, Note_on_c, 8, 74, 0
10, 270720, Note_on_c, 8, 74, 100
10, 271440, Note_on_c, 8, 74, 0
10, 271440, Note_on_c, 8, 71, 100
10, 271500, Note_on_c, 8, 71, 0
10, 271500, Note_on_c, 8, 69, 100
10, 271560, Note_on_c, 8, 69, 0
10, 271560, Note_on_c, 8, 67, 100
10, 271620, Note_on_c, 8, 67, 0
10, 271620, Note_on_c, 8, 66, 100
10, 271680, Note_on_c, 8, 66, 0
10, 271680, Note_on_c, 8, 63, 100
10, 271920, Note_on_c, 8, 63, 0
10, 271920, Note_on_c, 8, 72, 100
10, 272160, Note_on_c, 8, 72, 0
10, 272160, Note_on_c, 8, 72, 100
10, 272400, Note_on_c, 8, 72, 0
10, 272400, Note_on_c, 8, 72, 100
10, 272640, Note_on_c, 8, 72, 0
10, 272640, Note_on_c, 8, 72, 100
10, 273360, Note_on_c, 8, 72, 0
10, 273360, Note_on_c, 8, 74, 100
10, 273480, Note_on_c, 8, 74, 0
10, 273480, Note_on_c, 8, 74, 100
10, 273600, Note_on_c, 8, 74, 0
10, 273600, Note_on_c, 8, 72, 100
10, 273720, Note_on_c, 8, 72, 0
10, 273720, Note_on_c, 8, 72, 100
10, 273840, Note_on_c, 8, 72, 0
10, 273840, Note_on_c, 8, 74, 100
10, 273960, Note_on_c, 8, 74, 0
10, 273960, Note_on_c, 8, 74, 100
10, 274080, Note_on_c, 8, 74, 0
10, 274080, Note_on_c, 8, 72, 100
10, 274200, Note_on_c, 8, 72, 0
10, 274200, Note_on_c, 8, 72, 100
10, 274320, Note_on_c, 8, 72, 0
10, 274320, Note_on_c, 8, 74, 100
10, 274440, Note_on_c, 8, 74, 0
10, 274440, Note_on_c, 8, 74, 100
10, 274560, Note_on_c, 8, 74, 0
10, 274560, Note_on_c, 8, 72, 100
10, 275280, Note_on_c, 8, 72, 0
10, 275280, Note_on_c, 8, 74, 100
10, 275400, Note_on_c, 8, 74, 0
10, 275400, Note_on_c, 8, 74, 100
10, 275520, Note_on_c, 8, 74, 0
10, 275520, Note_on_c, 8, 72, 100
10, 275604, Note_on_c, 8, 72, 0
10, 275640, Note_on_c, 8, 72, 100
10, 275724, Note_on_c, 8, 72, 0
10, 275760, Note_on_c, 8, 74, 100
10, 275844, Note_on_c, 8, 74, 0
10, 275880, Note_on_c, 8, 74, 100
10, 275964, Note_on_c, 8, 74, 0
10, 276000, Note_on_c, 8, 72, 100
10, 276084, Note_on_c, 8, 72, 0
10, 276120, Note_on_c, 8, 72, 100
10, 276204, Note_on_c, 8, 72, 0
10, 276240, Note_on_c, 8, 74, 100
10, 276324, Note_on_c, 8, 74, 0
10, 276360, Note_on_c, 8, 74, 100
10, 276444, Note_on_c, 8, 74, 0
10, 276480, Note_on_c, 8, 76, 100
10, 276600, Note_on_c, 8, 76, 0
10, 276720, Note_on_c, 8, 64, 100
10, 276840, Note_on_c, 8, 64, 0
10, 276960, Note_on_c, 8, 66, 100
10, 277080, Note_on_c, 8, 66, 0
10, 277200, Note_on_c, 8, 66, 100
10, 277320, Note_on_c, 8, 66, 0
10, 277440, Note_on_c, 8, 67, 100
10, 277560, Note_on_c, 8, 67, 0
10, 277680, Note_on_c, 8, 75, 100
10, 277800, Note_on_c, 8, 75, 0
10, 277920, Note_on_c, 8, 76, 100
10, 278040, Note_on_c, 8, 76, 0
10, 278160, Note_on_c, 8, 71, 100
10, 278280, Note_on_c, 8, 71, 0
10, 278400, Note_on_c, 8, 72, 100
10, 278520, Note_on_c, 8, 72, 0
10, 278640, Note_on_c, 8, 69, 100
10, 278760, Note_on_c, 8, 69, 0
10, 278880, Note_on_c, 8, 74, 100
10, 279000, Note_on_c, 8, 74, 0
10, 279120, Note_on_c, 8, 62, 100
10, 279240, Note_on_c, 8, 62, 0
10, 279360, Note_on_c, 8, 67, 100
10, 279600, Note_on_c, 8, 67, 0
10, 279840, Note_on_c, 8, 67, 100
10, 280065, Note_on_c, 8, 67, 0
10, 280200, Note_on_c, 8, 67, 100
10, 280320, Note_on_c, 8, 67, 0
10, 280320, Note_on_c, 8, 67, 100
10, 281040, Note_on_c, 8, 67, 0
10, 281040, Note_on_c, 8, 66, 100
10, 281160, Note_on_c, 8, 66, 0
10, 281160, Note_on_c, 8, 64, 100
10, 281280, Note_on_c, 8, 64, 0
10, 281280, Note_on_c, 8, 62, 100
10, 281400, Note_on_c, 8, 62, 0
10, 281400, Note_on_c, 8, 64, 100
10, 281520, Note_on_c, 8, 64, 0
10, 281520, Note_on_c, 8, 62, 100
10, 281640, Note_on_c, 8, 62, 0
10, 281640, Note_on_c, 8, 60, 100
10, 281760, Note_on_c, 8, 60, 0
10, 281760, Note_on_c, 8, 59, 100
10, 281880, Note_on_c, 8, 59, 0
10, 281880, Note_on_c, 8, 60, 100
10, 282000, Note_on_c, 8, 60, 0
10, 282000, Note_on_c, 8, 59, 100
10, 282120, Note_on_c, 8, 59, 0
10, 282120, Note_on_c, 8, 57, 100
10, 282240, Note_on_c, 8, 57, 0
10, 282240, Note_on_c, 8, 55, 100
10, 282480, Note_on_c, 8, 55, 0
10, 282720, Note_on_c, 8, 71, 100
10, 283080, Note_on_c, 8, 71, 0
10, 283080, Note_on_c, 8, 71, 100
10, 283200, Note_on_c, 8, 71, 0
10, 283200, Note_on_c, 8, 71, 100
10, 283920, Note_on_c, 8, 71, 0
10, 283920, Note_on_c, 8, 69, 100
10, 284040, Note_on_c, 8, 69, 0
10, 284040, Note_on_c, 8, 67, 100
10, 284160, Note_on_c, 8, 67, 0
10, 284160, Note_on_c, 8, 66, 100
10, 284280, Note_on_c, 8, 66, 0
10, 284280, Note_on_c, 8, 67, 100
10, 284400, Note_on_c, 8, 67, 0
10, 284400, Note_on_c, 8, 66, 100
10, 284520, Note_on_c, 8, 66, 0
10, 284520, Note_on_c, 8, 64, 100
10, 284640, Note_on_c, 8, 64, 0
10, 284640, Note_on_c, 8, 62, 100
10, 284760, Note_on_c, 8, 62, 0
10, 284760, Note_on_c, 8, 64, 100
10, 284880, Note_on_c, 8, 64, 0
10, 284880, Note_on_c, 8, 62, 100
10, 285000, Note_on_c, 8, 62, 0
10, 285000, Note_on_c, 8, 60, 100
10, 285120, Note_on_c, 8, 60, 0
10, 285120, Note_on_c, 8, 59, 100
10, 285360, Note_on_c, 8, 59, 0
10, 285600, Note_on_c, 8, 74, 100
10, 285825, Note_on_c, 8, 74, 0
10, 285960, Note_on_c, 8, 74, 100
10, 286080, Note_on_c, 8, 74, 0
10, 286080, Note_on_c, 8, 74, 100
10, 286800, Note_on_c, 8, 74, 0
10, 286800, Note_on_c, 8, 72, 100
10, 286920, Note_on_c, 8, 72, 0
10, 286920, Note_on_c, 8, 71, 100
10, 287040, Note_on_c, 8, 71, 0
10, 287040, Note_on_c, 8, 69, 100
10, 287124, Note_on_c, 8, 69, 0
10, 287160, Note_on_c, 8, 71, 100
10, 287244, Note_on_c, 8, 71, 0
10, 287280, Note_on_c, 8, 69, 100
10, 287364, Note_on_c, 8, 69, 0
10, 287400, Note_on_c, 8, 67, 100
10, 287484, Note_on_c, 8, 67, 0
10, 287520, Note_on_c, 8, 66, 100
10, 287604, Note_on_c, 8, 66, 0
10, 287640, Note_on_c, 8, 67, 100
10, 287724, Note_on_c, 8, 67, 0
10, 287760, Note_on_c, 8, 66, 100
10, 287844, Note_on_c, 8, 66, 0
10, 287880, Note_on_c, 8, 64, 100
10, 287964, Note_on_c, 8, 64, 0
10, 288000, Note_on_c, 8, 62, 100
10, 288336, Note_on_c, 8, 62, 0
10, 288480, Note_on_c, 8, 66, 100
10, 288816, Note_on_c, 8, 66, 0
10, 288960, Note_on_c, 8, 67, 100
10, 289080, Note_on_c, 8, 67, 0
10, 289200, Note_on_c, 8, 66, 100
10, 289320, Note_on_c, 8, 66, 0
10, 289440, Note_on_c, 8, 64, 100
10, 289560, Note_on_c, 8, 64, 0
10, 289680, Note_on_c, 8, 63, 100
10, 289800, Note_on_c, 8, 63, 0
10, 289920, Note_on_c, 8, 64, 100
10, 290040, Note_on_c, 8, 64, 0
10, 290160, Note_on_c, 8, 62, 100
10, 290280, Note_on_c, 8, 62, 0
10, 290400, Note_on_c, 8, 60, 100
10, 290520, Note_on_c, 8, 60, 0
10, 290640, Note_on_c, 8, 59, 100
10, 290760, Note_on_c, 8, 59, 0
10, 290880, Note_on_c, 8, 60, 100
10, 291000, Note_on_c, 8, 60, 0
10, 291120, Note_on_c, 8, 61, 100
10, 291240, Note_on_c, 8, 61, 0
10, 291360, Note_on_c, 8, 62, 100
10, 291840, Note_on_c, 8, 62, 0
10, 291840, Note_on_c, 8, 67, 100
10, 291960, Note_on_c, 8, 67, 0
10, 292080, Note_on_c, 8, 66, 100
10, 292200, Note_on_c, 8, 66, 0
10, 292320, Note_on_c, 8, 64, 100
10, 292440, Note_on_c, 8, 64, 0
10, 292560, Note_on_c, 8, 63, 100
10, 292680, Note_on_c, 8, 63, 0
10, 292800, Note_on_c, 8, 64, 100
10, 292920, Note_on_c, 8, 64, 0
10, 293040, Note_on_c, 8, 62, 100
10, 293160, Note_on_c, 8, 62, 0
10, 293280, Note_on_c, 8, 60, 100
10, 293400, Note_on_c, 8, 60, 0
10, 293520, Note_on_c, 8, 59, 100
10, 293640, Note_on_c, 8, 59, 0
10, 293760, Note_on_c, 8, 60, 100
10, 293880, Note_on_c, 8, 60, 0
10, 294000, Note_on_c, 8, 61, 100
10, 294120, Note_on_c, 8, 61, 0
10, 294240, Note_on_c, 8, 62, 100
10, 294360, Note_on_c, 8, 62, 0
10, 294480, Note_on_c, 8, 50, 100
10, 294600, Note_on_c, 8, 50, 0
10, 294720, Note_on_c, 8, 55, 100
10, 294960, Note_on_c, 8, 55, 0
10, 295200, Note_on_c, 8, 67, 50
10, 295440, Note_on_c, 8, 67, 0
10, 295680, Note_on_c, 8, 71, 50
10, 295920, Note_on_c, 8, 71, 0
10, 296160, Note_on_c, 8, 74, 50
10, 296400, Note_on_c, 8, 74, 0
10, 296640, Note_on_c, 8, 66, 50
10, 297120, Note_on_c, 8, 66, 0
10, 297120, Note_on_c, 8, 74, 50
10, 297600, Note_on_c, 8, 74, 0
10, 297600, Note_on_c, 8, 74, 50
10, 297840, Note_on_c, 8, 74, 0
10, 298080, Note_on_c, 8, 55, 50
10, 298320, Note_on_c, 8, 55, 0
10, 298560, Note_on_c, 8, 59, 50
10, 298800, Note_on_c, 8, 59, 0
10, 299040, Note_on_c, 8, 62, 50
10, 299280, Note_on_c, 8, 62, 0
10, 299520, Note_on_c, 8, 54, 50
10, 300000, Note_on_c, 8, 54, 0
10, 300000, Note_on_c, 8, 62, 50
10, 300480, Note_on_c, 8, 62, 0
10, 300480, Note_on_c, 8, 62, 50
10, 300960, Note_on_c, 8, 62, 0
10, 301440, Note_on_c, 8, 62, 50
10, 302400, Note_on_c, 8, 62, 0
10, 302400, Note_on_c, 8, 63, 50
10, 303360, Note_on_c, 8, 63, 0
10, 303360, Note_on_c, 8, 66, 50
10, 304320, Note_on_c, 8, 66, 0
10, 304320, Note_on_c, 8, 67, 50
10, 305280, Note_on_c, 8, 67, 0
10, 305280, Note_on_c, 8, 56, 50
10, 306240, Note_on_c, 8, 56, 0
10, 306240, Note_on_c, 8, 54, 50
10, 307200, Note_on_c, 8, 54, 0
10, 307200, Note_on_c, 8, 55, 50
10, 307680, Note_on_c, 8, 55, 0
10, 309120, Note_on_c, 8, 64, 50
10, 309120, Note_on_c, 8, 68, 50
10, 310080, Note_on_c, 8, 68, 0
10, 310080, Note_on_c, 8, 64, 0
10, 310080, Note_on_c, 8, 63, 50
10, 310080, Note_on_c, 8, 69, 50
10, 311040, Note_on_c, 8, 69, 0
10, 311040, Note_on_c, 8, 63, 0
10, 311040, Note_on_c, 8, 60, 50
10, 311040, Note_on_c, 8, 66, 50
10, 312000, Note_on_c, 8, 66, 0
10, 312000, Note_on_c, 8, 60, 0
10, 312000, Note_on_c, 8, 64, 50
10, 312000, Note_on_c, 8, 59, 50
10, 312480, Note_on_c, 8, 59, 0
10, 312480, Note_on_c, 8, 64, 0
10, 312480, Note_on_c, 8, 56, 50
10, 312960, Note_on_c, 8, 56, 0
10, 312960, Note_on_c, 8, 57, 50
10, 314400, Note_on_c, 8, 57, 0
10, 314400, Note_on_c, 8, 56, 50
10, 314640, Note_on_c, 8, 56, 0
10, 314640, Note_on_c, 8, 57, 50
10, 314880, Note_on_c, 8, 57, 0
10, 314880, Note_on_c, 8, 59, 50
10, 315360, Note_on_c, 8, 59, 0
10, 316320, Note_on_c, 8, 69, 127
10, 316545, Note_on_c, 8, 69, 0
10, 316680, Note_on_c, 8, 69, 127
10, 316800, Note_on_c, 8, 69, 0
10, 316800, Note_on_c, 8, 69, 127
10, 317520, Note_on_c, 8, 69, 0
10, 317520, Note_on_c, 8, 67, 127
10, 317604, Note_on_c, 8, 67, 0
10, 317640, Note_on_c, 8, 65, 127
10, 317724, Note_on_c, 8, 65, 0
10, 317760, Note_on_c, 8, 64, 127
10, 317844, Note_on_c, 8, 64, 0
10, 317880, Note_on_c, 8, 65, 127
10, 317964, Note_on_c, 8, 65, 0
10, 318000, Note_on_c, 8, 64, 127
10, 318084, Note_on_c, 8, 64, 0
10, 318120, Note_on_c, 8, 62, 127
10, 318204, Note_on_c, 8, 62, 0
10, 318240, Note_on_c, 8, 61, 127
10, 318324, Note_on_c, 8, 61, 0
10, 318360, Note_on_c, 8, 57, 127
10, 318444, Note_on_c, 8, 57, 0
10, 318480, Note_on_c, 8, 59, 127
10, 318564, Note_on_c, 8, 59, 0
10, 318600, Note_on_c, 8, 61, 127
10, 318684, Note_on_c, 8, 61, 0
10, 318720, Note_on_c, 8, 62, 127
10, 319200, Note_on_c, 8, 62, 0
10, 319680, Note_on_c, 8, 74, 127
10, 319905, Note_on_c, 8, 74, 0
10, 320040, Note_on_c, 8, 74, 127
10, 320160, Note_on_c, 8, 74, 0
10, 320160, Note_on_c, 8, 74, 127
10, 320880, Note_on_c, 8, 74, 0
10, 320880, Note_on_c, 8, 72, 127
10, 320964, Note_on_c, 8, 72, 0
10, 321000, Note_on_c, 8, 71, 127
10, 321084, Note_on_c, 8, 71, 0
10, 321120, Note_on_c, 8, 69, 127
10, 321204, Note_on_c, 8, 69, 0
10, 321240, Note_on_c, 8, 71, 127
10, 321324, Note_on_c, 8, 71, 0
10, 321360, Note_on_c, 8, 69, 127
10, 321444, Note_on_c, 8, 69, 0
10, 321480, Note_on_c, 8, 67, 127
10, 321564, Note_on_c, 8, 67, 0
10, 321600, Note_on_c, 8, 66, 127
10, 321684, Note_on_c, 8, 66, 0
10, 321720, Note_on_c, 8, 62, 127
10, 321804, Note_on_c, 8, 62, 0
10, 321840, Note_on_c, 8, 64, 127
10, 321924, Note_on_c, 8, 64, 0
10, 321960, Note_on_c, 8, 66, 127
10, 322044, Note_on_c, 8, 66, 0
10, 322080, Note_on_c, 8, 67, 127
10, 322560, Note_on_c, 8, 67, 0
10, 323040, Note_on_c, 8, 67, 127
10, 323265, Note_on_c, 8, 67, 0
10, 323400, Note_on_c, 8, 67, 127
10, 323520, Note_on_c, 8, 67, 0
10, 323520, Note_on_c, 8, 67, 127
10, 324240, Note_on_c, 8, 67, 0
10, 324240, Note_on_c, 8, 65, 127
10, 324324, Note_on_c, 8, 65, 0
10, 324360, Note_on_c, 8, 64, 127
10, 324444, Note_on_c, 8, 64, 0
10, 324480, Note_on_c, 8, 62, 127
10, 324564, Note_on_c, 8, 62, 0
10, 324600, Note_on_c, 8, 64, 127
10, 324684, Note_on_c, 8, 64, 0
10, 324720, Note_on_c, 8, 62, 127
10, 324804, Note_on_c, 8, 62, 0
10, 324840, Note_on_c, 8, 60, 127
10, 324924, Note_on_c, 8, 60, 0
10, 324960, Note_on_c, 8, 59, 127
10, 325044, Note_on_c, 8, 59, 0
10, 325080, Note_on_c, 8, 55, 127
10, 325164, Note_on_c, 8, 55, 0
10, 325200, Note_on_c, 8, 57, 127
10, 325284, Note_on_c, 8, 57, 0
10, 325320, Note_on_c, 8, 59, 127
10, 325404, Note_on_c, 8, 59, 0
10, 325440, Note_on_c, 8, 60, 127
10, 325920, Note_on_c, 8, 60, 0
10, 326400, Note_on_c, 8, 72, 127
10, 326625, Note_on_c, 8, 72, 0
10, 326760, Note_on_c, 8, 72, 127
10, 326880, Note_on_c, 8, 72, 0
10, 326880, Note_on_c, 8, 72, 127
10, 327600, Note_on_c, 8, 72, 0
10, 327600, Note_on_c, 8, 70, 127
10, 327684, Note_on_c, 8, 70, 0
10, 327720, Note_on_c, 8, 69, 127
10, 327804, Note_on_c, 8, 69, 0
10, 327840, Note_on_c, 8, 67, 127
10, 327924, Note_on_c, 8, 67, 0
10, 327960, Note_on_c, 8, 69, 127
10, 328044, Note_on_c, 8, 69, 0
10, 328080, Note_on_c, 8, 67, 127
10, 328164, Note_on_c, 8, 67, 0
10, 328200, Note_on_c, 8, 65, 127
10, 328284, Note_on_c, 8, 65, 0
10, 328320, Note_on_c, 8, 64, 127
10, 328404, Note_on_c, 8, 64, 0
10, 328440, Note_on_c, 8, 60, 127
10, 328524, Note_on_c, 8, 60, 0
10, 328560, Note_on_c, 8, 62, 127
10, 328644, Note_on_c, 8, 62, 0
10, 328680, Note_on_c, 8, 64, 127
10, 328764, Note_on_c, 8, 64, 0
10, 328800, Note_on_c, 8, 65, 127
10, 329280, Note_on_c, 8, 65, 0
10, 329280, Note_on_c, 8, 57, 127
10, 329505, Note_on_c, 8, 57, 0
10, 329640, Note_on_c, 8, 57, 127
10, 329760, Note_on_c, 8, 57, 0
10, 329760, Note_on_c, 8, 57, 127
10, 330000, Note_on_c, 8, 57, 0
10, 330000, Note_on_c, 8, 58, 127
10, 330084, Note_on_c, 8, 58, 0
10, 330120, Note_on_c, 8, 60, 127
10, 330204, Note_on_c, 8, 60, 0
10, 330240, Note_on_c, 8, 62, 127
10, 330324, Note_on_c, 8, 62, 0
10, 330360, Note_on_c, 8, 60, 127
10, 330444, Note_on_c, 8, 60, 0
10, 330480, Note_on_c, 8, 58, 127
10, 330564, Note_on_c, 8, 58, 0
10, 330600, Note_on_c, 8, 60, 127
10, 330684, Note_on_c, 8, 60, 0
10, 330720, Note_on_c, 8, 62, 127
10, 330804, Note_on_c, 8, 62, 0
10, 330840, Note_on_c, 8, 60, 127
10, 330924, Note_on_c, 8, 60, 0
10, 330960, Note_on_c, 8, 62, 127
10, 331044, Note_on_c, 8, 62, 0
10, 331080, Note_on_c, 8, 64, 127
10, 331164, Note_on_c, 8, 64, 0
10, 331200, Note_on_c, 8, 65, 127
10, 331680, Note_on_c, 8, 65, 0
10, 334080, Note_on_c, 8, 51, 100
10, 334305, Note_on_c, 8, 51, 0
10, 334440, Note_on_c, 8, 51, 100
10, 334560, Note_on_c, 8, 51, 0
10, 334560, Note_on_c, 8, 51, 100
10, 335280, Note_on_c, 8, 51, 0
10, 335280, Note_on_c, 8, 55, 100
10, 335520, Note_on_c, 8, 55, 0
10, 335520, Note_on_c, 8, 60, 100
10, 335604, Note_on_c, 8, 60, 0
10, 335640, Note_on_c, 8, 59, 100
10, 335724, Note_on_c, 8, 59, 0
10, 335760, Note_on_c, 8, 60, 100
10, 335844, Note_on_c, 8, 60, 0
10, 335880, Note_on_c, 8, 62, 100
10, 335964, Note_on_c, 8, 62, 0
10, 336000, Note_on_c, 8, 63, 100
10, 336480, Note_on_c, 8, 63, 0
10, 338880, Note_on_c, 8, 58, 83
10, 339105, Note_on_c, 8, 58, 0
10, 339240, Note_on_c, 8, 58, 83
10, 339360, Note_on_c, 8, 58, 0
10, 339360, Note_on_c, 8, 58, 83
10, 339600, Note_on_c, 8, 58, 0
10, 339600, Note_on_c, 8, 60, 83
10, 339684, Note_on_c, 8, 60, 0
10, 339720, Note_on_c, 8, 62, 83
10, 339804, Note_on_c, 8, 62, 0
10, 339840, Note_on_c, 8, 63, 83
10, 339924, Note_on_c, 8, 63, 0
10, 339960, Note_on_c, 8, 62, 83
10, 340044, Note_on_c, 8, 62, 0
10, 340080, Note_on_c, 8, 60, 83
10, 340164, Note_on_c, 8, 60, 0
10, 340200, Note_on_c, 8, 62, 83
10, 340284, Note_on_c, 8, 62, 0
10, 340320, Note_on_c, 8, 64, 83
10, 340404, Note_on_c, 8, 64, 0
10, 340440, Note_on_c, 8, 62, 83
10, 340524, Note_on_c, 8, 62, 0
10, 340560, Note_on_c, 8, 64, 83
10, 340644, Note_on_c, 8, 64, 0
10, 340680, Note_on_c, 8, 66, 83
10, 340764, Note_on_c, 8, 66, 0
10, 340800, Note_on_c, 8, 67, 83
10, 341280, Note_on_c, 8, 67, 0
10, 343680, Note_on_c, 8, 53, 83
10, 343905, Note_on_c, 8, 53, 0
10, 344040, Note_on_c, 8, 53, 83
10, 344160, Note_on_c, 8, 53, 0
10, 344160, Note_on_c, 8, 53, 83
10, 344760, Note_on_c, 8, 53, 0
10, 344880, Note_on_c, 8, 57, 83
10, 345000, Note_on_c, 8, 57, 0
10, 345120, Note_on_c, 8, 62, 83
10, 345204, Note_on_c, 8, 62, 0
10, 345240, Note_on_c, 8, 61, 83
10, 345324, Note_on_c, 8, 61, 0
10, 345360, Note_on_c, 8, 62, 83
10, 345444, Note_on_c, 8, 62, 0
10, 345480, Note_on_c, 8, 64, 83
10, 345564, Note_on_c, 8, 64, 0
10, 345600, Note_on_c, 8, 65, 83
10, 346080, Note_on_c, 8, 65, 0
10, 351360, Note_on_c, 8, 63, 127
10, 351480, Note_on_c, 8, 63, 0
10, 351480, Note_on_c, 8, 63, 127
10, 351600, Note_on_c, 8, 63, 0
10, 351600, Note_on_c, 8, 63, 127
10, 351720, Note_on_c, 8, 63, 0
10, 351720, Note_on_c, 8, 63, 127
10, 351840, Note_on_c, 8, 63, 0
10, 351840, Note_on_c, 8, 63, 127
10, 351960, Note_on_c, 8, 63, 0
10, 351960, Note_on_c, 8, 63, 127
10, 352080, Note_on_c, 8, 63, 0
10, 352080, Note_on_c, 8, 63, 127
10, 352200, Note_on_c, 8, 63, 0
10, 352200, Note_on_c, 8, 63, 127
10, 352320, Note_on_c, 8, 63, 0
10, 352320, Note_on_c, 8, 64, 127
10, 352440, Note_on_c, 8, 64, 0
10, 352440, Note_on_c, 8, 64, 127
10, 352560, Note_on_c, 8, 64, 0
10, 352560, Note_on_c, 8, 64, 127
10, 352680, Note_on_c, 8, 64, 0
10, 352680, Note_on_c, 8, 64, 127
10, 352800, Note_on_c, 8, 64, 0
10, 352800, Note_on_c, 8, 64, 127
10, 352920, Note_on_c, 8, 64, 0
10, 352920, Note_on_c, 8, 64, 127
10, 353040, Note_on_c, 8, 64, 0
10, 353040, Note_on_c, 8, 64, 127
10, 353160, Note_on_c, 8, 64, 0
10, 353160, Note_on_c, 8, 64, 127
10, 353280, Note_on_c, 8, 64, 0
10, 353280, Note_on_c, 8, 64, 127
10, 353280, Note_on_c, 8, 61, 127
10, 353400, Note_on_c, 8, 61, 0
10, 353400, Note_on_c, 8, 64, 0
10, 353400, Note_on_c, 8, 61, 127
10, 353400, Note_on_c, 8, 64, 127
10, 353520, Note_on_c, 8, 64, 0
10, 353520, Note_on_c, 8, 61, 0
10, 353520, Note_on_c, 8, 64, 127
10, 353520, Note_on_c, 8, 61, 127
10, 353640, Note_on_c, 8, 61, 0
10, 353640, Note_on_c, 8, 64, 0
10, 353640, Note_on_c, 8, 61, 127
10, 353640, Note_on_c, 8, 64, 127
10, 353760, Note_on_c, 8, 64, 0
10, 353760, Note_on_c, 8, 61, 0
10, 353760, Note_on_c, 8, 64, 127
10, 353760, Note_on_c, 8, 61, 127
10, 353880, Note_on_c, 8, 61, 0
10, 353880, Note_on_c, 8, 64, 0
10, 353880, Note_on_c, 8, 64, 127
10, 353880, Note_on_c, 8, 61, 127
10, 354000, Note_on_c, 8, 61, 0
10, 354000, Note_on_c, 8, 64, 0
10, 354000, Note_on_c, 8, 64, 127
10, 354000, Note_on_c, 8, 61, 127
10, 354120, Note_on_c, 8, 61, 0
10, 354120, Note_on_c, 8, 64, 0
10, 354120, Note_on_c, 8, 61, 127
10, 354120, Note_on_c, 8, 64, 127
10, 354240, Note_on_c, 8, 64, 0
10, 354240, Note_on_c, 8, 61, 0
10, 354240, Note_on_c, 8, 63, 127
10, 354480, Note_on_c, 8, 63, 0
10, 354720, Note_on_c, 8, 71, 127
10, 354945, Note_on_c, 8, 71, 0
10, 355080, Note_on_c, 8, 71, 127
10, 355200, Note_on_c, 8, 71, 0
10, 355200, Note_on_c, 8, 71, 127
10, 355920, Note_on_c, 8, 71, 0
10, 355920, Note_on_c, 8, 69, 127
10, 356004, Note_on_c, 8, 69, 0
10, 356040, Note_on_c, 8, 67, 127
10, 356124, Note_on_c, 8, 67, 0
10, 356160, Note_on_c, 8, 66, 127
10, 356244, Note_on_c, 8, 66, 0
10, 356280, Note_on_c, 8, 67, 127
10, 356364, Note_on_c, 8, 67, 0
10, 356400, Note_on_c, 8, 66, 127
10, 356484, Note_on_c, 8, 66, 0
10, 356520, Note_on_c, 8, 64, 127
10, 356604, Note_on_c, 8, 64, 0
10, 356640, Note_on_c, 8, 63, 127
10, 356724, Note_on_c, 8, 63, 0
10, 356760, Note_on_c, 8, 64, 127
10, 356844, Note_on_c, 8, 64, 0
10, 356880, Note_on_c, 8, 63, 127
10, 356964, Note_on_c, 8, 63, 0
10, 357000, Note_on_c, 8, 61, 127
10, 357084, Note_on_c, 8, 61, 0
10, 357120, Note_on_c, 8, 59, 127
10, 357360, Note_on_c, 8, 59, 0
10, 363840, Note_on_c, 8, 55, 50
10, 365280, Note_on_c, 8, 55, 0
10, 365280, Note_on_c, 8, 59, 50
10, 365760, Note_on_c, 8, 59, 0
10, 365760, Note_on_c, 8, 60, 50
10, 366240, Note_on_c, 8, 60, 0
10, 367680, Note_on_c, 8, 55, 50
10, 368640, Note_on_c, 8, 55, 0
10, 368640, Note_on_c, 8, 57, 50
10, 369600, Note_on_c, 8, 57, 0
10, 369600, Note_on_c, 8, 53, 50
10, 370560, Note_on_c, 8, 53, 0
10, 370560, Note_on_c, 8, 52, 50
10, 371520, Note_on_c, 8, 52, 0
10, 371520, Note_on_c, 8, 50, 50
10, 371760, Note_on_c, 8, 50, 0
10, 372000, Note_on_c, 8, 48, 50
10, 372240, Note_on_c, 8, 48, 0
10, 372480, Note_on_c, 8, 55, 50
10, 372960, Note_on_c, 8, 55, 0
10, 374280, Note_on_c, 8, 60, 127
10, 374318, Note_on_c, 8, 60, 0
10, 374320, Note_on_c, 8, 59, 127
10, 374358, Note_on_c, 8, 59, 0
10, 374360, Note_on_c, 8, 57, 127
10, 374398, Note_on_c, 8, 57, 0
10, 374400, Note_on_c, 8, 55, 127
10, 374880, Note_on_c, 8, 55, 0
10, 375120, Note_on_c, 8, 67, 127
10, 375180, Note_on_c, 8, 67, 0
10, 375180, Note_on_c, 8, 69, 127
10, 375240, Note_on_c, 8, 69, 0
10, 375240, Note_on_c, 8, 71, 127
10, 375300, Note_on_c, 8, 71, 0
10, 375300, Note_on_c, 8, 72, 127
10, 375360, Note_on_c, 8, 72, 0
10, 375360, Note_on_c, 8, 74, 127
10, 375840, Note_on_c, 8, 74, 0
10, 376080, Note_on_c, 8, 67, 127
10, 376140, Note_on_c, 8, 67, 0
10, 376140, Note_on_c, 8, 65, 127
10, 376200, Note_on_c, 8, 65, 0
10, 376200, Note_on_c, 8, 64, 127
10, 376260, Note_on_c, 8, 64, 0
10, 376260, Note_on_c, 8, 62, 127
10, 376320, Note_on_c, 8, 62, 0
10, 376320, Note_on_c, 8, 61, 127
10, 376800, Note_on_c, 8, 61, 0
10, 377160, Note_on_c, 8, 69, 127
10, 377198, Note_on_c, 8, 69, 0
10, 377200, Note_on_c, 8, 71, 127
10, 377238, Note_on_c, 8, 71, 0
10, 377240, Note_on_c, 8, 73, 127
10, 377278, Note_on_c, 8, 73, 0
10, 377280, Note_on_c, 8, 74, 127
10, 377760, Note_on_c, 8, 74, 0
10, 378120, Note_on_c, 8, 62, 127
10, 378158, Note_on_c, 8, 62, 0
10, 378160, Note_on_c, 8, 60, 127
10, 378198, Note_on_c, 8, 60, 0
10, 378200, Note_on_c, 8, 58, 127
10, 378238, Note_on_c, 8, 58, 0
10, 378240, Note_on_c, 8, 57, 127
10, 378720, Note_on_c, 8, 57, 0
10, 378960, Note_on_c, 8, 69, 127
10, 379020, Note_on_c, 8, 69, 0
10, 379020, Note_on_c, 8, 71, 127
10, 379080, Note_on_c, 8, 71, 0
10, 379080, Note_on_c, 8, 73, 127
10, 379140, Note_on_c, 8, 73, 0
10, 379140, Note_on_c, 8, 74, 127
10, 379200, Note_on_c, 8, 74, 0
10, 379200, Note_on_c, 8, 76, 127
10, 379680, Note_on_c, 8, 76, 0
10, 379920, Note_on_c, 8, 69, 127
10, 379980, Note_on_c, 8, 69, 0
10, 379980, Note_on_c, 8, 67, 127
10, 380040, Note_on_c, 8, 67, 0
10, 380040, Note_on_c, 8, 66, 127
10, 380100, Note_on_c, 8, 66, 0
10, 380100, Note_on_c, 8, 64, 127
10, 380160, Note_on_c, 8, 64, 0
10, 380160, Note_on_c, 8, 63, 127
10, 380640, Note_on_c, 8, 63, 0
10, 381000, Note_on_c, 8, 71, 127
10, 381038, Note_on_c, 8, 71, 0
10, 381040, Note_on_c, 8, 73, 127
10, 381078, Note_on_c, 8, 73, 0
10, 381080, Note_on_c, 8, 75, 127
10, 381118, Note_on_c, 8, 75, 0
10, 381120, Note_on_c, 8, 76, 127
10, 381600, Note_on_c, 8, 76, 0
10, 382800, Note_on_c, 8, 69, 127
10, 382860, Note_on_c, 8, 69, 0
10, 382860, Note_on_c, 8, 67, 127
10, 382920, Note_on_c, 8, 67, 0
10, 382920, Note_on_c, 8, 66, 127
10, 382980, Note_on_c, 8, 66, 0
10, 382980, Note_on_c, 8, 64, 127
10, 383040, Note_on_c, 8, 64, 0
10, 383040, Note_on_c, 8, 63, 127
10, 383520, Note_on_c, 8, 63, 0
10, 384720, Note_on_c, 8, 62, 127
10, 384780, Note_on_c, 8, 62, 0
10, 384780, Note_on_c, 8, 60, 127
10, 384840, Note_on_c, 8, 60, 0
10, 384840, Note_on_c, 8, 59, 127
10, 384900, Note_on_c, 8, 59, 0
10, 384900, Note_on_c, 8, 57, 127
10, 384960, Note_on_c, 8, 57, 0
10, 384960, Note_on_c, 8, 56, 127
10, 385440, Note_on_c, 8, 56, 0
10, 386640, Note_on_c, 8, 67, 127
10, 386700, Note_on_c, 8, 67, 0
10, 386700, Note_on_c, 8, 65, 127
10, 386760, Note_on_c, 8, 65, 0
10, 386760, Note_on_c, 8, 64, 127
10, 386820, Note_on_c, 8, 64, 0
10, 386820, Note_on_c, 8, 62, 127
10, 386880, Note_on_c, 8, 62, 0
10, 386880, Note_on_c, 8, 61, 127
10, 387360, Note_on_c, 8, 61, 0
10, 388560, Note_on_c, 8, 60, 127
10, 388620, Note_on_c, 8, 60, 0
10, 388620, Note_on_c, 8, 58, 127
10, 388680, Note_on_c, 8, 58, 0
10, 388680, Note_on_c, 8, 57, 127
10, 388740, Note_on_c, 8, 57, 0
10, 388740, Note_on_c, 8, 55, 127
10, 388800, Note_on_c, 8, 55, 0
10, 388800, Note_on_c, 8, 54, 127
10, 389280, Note_on_c, 8, 54, 0
10, 390480, Note_on_c, 8, 65, 127
10, 390540, Note_on_c, 8, 65, 0
10, 390540, Note_on_c, 8, 63, 127
10, 390600, Note_on_c, 8, 63, 0
10, 390600, Note_on_c, 8, 62, 127
10, 390660, Note_on_c, 8, 62, 0
10, 390660, Note_on_c, 8, 60, 127
10, 390720, Note_on_c, 8, 60, 0
10, 390720, Note_on_c, 8, 59, 127
10, 391200, Note_on_c, 8, 59, 0
10, 392480, Note_on_c, 8, 58, 127
10, 392520, Note_on_c, 8, 58, 0
10, 392520, Note_on_c, 8, 57, 127
10, 392560, Note_on_c, 8, 57, 0
10, 392560, Note_on_c, 8, 55, 127
10, 392600, Note_on_c, 8, 55, 0
10, 392600, Note_on_c, 8, 53, 127
10, 392640, Note_on_c, 8, 53, 0
10, 392640, Note_on_c, 8, 52, 127
10, 392760, Note_on_c, 8, 52, 0
10, 392880, Note_on_c, 8, 60, 127
10, 393000, Note_on_c, 8, 60, 0
10, 393120, Note_on_c, 8, 62, 127
10, 393240, Note_on_c, 8, 62, 0
10, 393360, Note_on_c, 8, 64, 127
10, 393480, Note_on_c, 8, 64, 0
10, 393600, Note_on_c, 8, 65, 127
10, 393684, Note_on_c, 8, 65, 0
10, 393720, Note_on_c, 8, 65, 127
10, 393804, Note_on_c, 8, 65, 0
10, 393840, Note_on_c, 8, 65, 127
10, 393924, Note_on_c, 8, 65, 0
10, 393960, Note_on_c, 8, 65, 127
10, 394044, Note_on_c, 8, 65, 0
10, 394080, Note_on_c, 8, 65, 127
10, 394164, Note_on_c, 8, 65, 0
10, 394200, Note_on_c, 8, 65, 127
10, 394284, Note_on_c, 8, 65, 0
10, 394320, Note_on_c, 8, 65, 127
10, 394404, Note_on_c, 8, 65, 0
10, 394440, Note_on_c, 8, 65, 127
10, 394524, Note_on_c, 8, 65, 0
10, 394560, Note_on_c, 8, 65, 127
10, 394644, Note_on_c, 8, 65, 0
10, 394680, Note_on_c, 8, 65, 127
10, 394764, Note_on_c, 8, 65, 0
10, 394800, Note_on_c, 8, 65, 127
10, 394884, Note_on_c, 8, 65, 0
10, 394920, Note_on_c, 8, 65, 127
10, 395004, Note_on_c, 8, 65, 0
10, 395040, Note_on_c, 8, 65, 127
10, 395124, Note_on_c, 8, 65, 0
10, 395160, Note_on_c, 8, 65, 127
10, 395244, Note_on_c, 8, 65, 0
10, 395280, Note_on_c, 8, 65, 127
10, 395364, Note_on_c, 8, 65, 0
10, 395400, Note_on_c, 8, 65, 127
10, 395484, Note_on_c, 8, 65, 0
10, 395520, Note_on_c, 8, 64, 127
10, 395604, Note_on_c, 8, 64, 0
10, 395640, Note_on_c, 8, 64, 127
10, 395724, Note_on_c, 8, 64, 0
10, 395760, Note_on_c, 8, 64, 127
10, 395844, Note_on_c, 8, 64, 0
10, 395880, Note_on_c, 8, 64, 127
10, 395964, Note_on_c, 8, 64, 0
10, 396000, Note_on_c, 8, 64, 127
10, 396084, Note_on_c, 8, 64, 0
10, 396120, Note_on_c, 8, 64, 127
10, 396204, Note_on_c, 8, 64, 0
10, 396240, Note_on_c, 8, 64, 127
10, 396324, Note_on_c, 8, 64, 0
10, 396360, Note_on_c, 8, 64, 127
10, 396444, Note_on_c, 8, 64, 0
10, 396480, Note_on_c, 8, 57, 127
10, 396564, Note_on_c, 8, 57, 0
10, 396600, Note_on_c, 8, 57, 127
10, 396684, Note_on_c, 8, 57, 0
10, 396720, Note_on_c, 8, 57, 127
10, 396804, Note_on_c, 8, 57, 0
10, 396840, Note_on_c, 8, 57, 127
10, 396924, Note_on_c, 8, 57, 0
10, 396960, Note_on_c, 8, 57, 127
10, 397044, Note_on_c, 8, 57, 0
10, 397080, Note_on_c, 8, 57, 127
10, 397164, Note_on_c, 8, 57, 0
10, 397200, Note_on_c, 8, 57, 127
10, 397284, Note_on_c, 8, 57, 0
10, 397320, Note_on_c, 8, 57, 127
10, 397404, Note_on_c, 8, 57, 0
10, 397440, Note_on_c, 8, 62, 127
10, 397524, Note_on_c, 8, 62, 0
10, 397560, Note_on_c, 8, 62, 127
10, 397644, Note_on_c, 8, 62, 0
10, 397680, Note_on_c, 8, 62, 127
10, 397764, Note_on_c, 8, 62, 0
10, 397800, Note_on_c, 8, 62, 127
10, 397884, Note_on_c, 8, 62, 0
10, 397920, Note_on_c, 8, 62, 127
10, 398004, Note_on_c, 8, 62, 0
10, 398040, Note_on_c, 8, 62, 127
10, 398124, Note_on_c, 8, 62, 0
10, 398160, Note_on_c, 8, 62, 127
10, 398244, Note_on_c, 8, 62, 0
10, 398280, Note_on_c, 8, 62, 127
10, 398364, Note_on_c, 8, 62, 0
10, 398400, Note_on_c, 8, 55, 127
10, 398484, Note_on_c, 8, 55, 0
10, 398520, Note_on_c, 8, 55, 127
10, 398604, Note_on_c, 8, 55, 0
10, 398640, Note_on_c, 8, 55, 127
10, 398724, Note_on_c, 8, 55, 0
10, 398760, Note_on_c, 8, 55, 127
10, 398844, Note_on_c, 8, 55, 0
10, 398880, Note_on_c, 8, 55, 127
10, 398964, Note_on_c, 8, 55, 0
10, 399000, Note_on_c, 8, 55, 127
10, 399084, Note_on_c, 8, 55, 0
10, 399120, Note_on_c, 8, 55, 127
10, 399204, Note_on_c, 8, 55, 0
10, 399240, Note_on_c, 8, 55, 127
10, 399324, Note_on_c, 8, 55, 0
10, 399360, Note_on_c, 8, 55, 127
10, 399444, Note_on_c, 8, 55, 0
10, 399480, Note_on_c, 8, 55, 127
10, 399564, Note_on_c, 8, 55, 0
10, 399600, Note_on_c, 8, 55, 127
10, 399684, Note_on_c, 8, 55, 0
10, 399720, Note_on_c, 8, 55, 127
10, 399804, Note_on_c, 8, 55, 0
10, 399840, Note_on_c, 8, 60, 127
10, 399924, Note_on_c, 8, 60, 0
10, 399960, Note_on_c, 8, 60, 127
10, 400044, Note_on_c, 8, 60, 0
10, 400080, Note_on_c, 8, 60, 127
10, 400164, Note_on_c, 8, 60, 0
10, 400200, Note_on_c, 8, 60, 127
10, 400284, Note_on_c, 8, 60, 0
10, 400320, Note_on_c, 8, 66, 127
10, 400404, Note_on_c, 8, 66, 0
10, 400440, Note_on_c, 8, 66, 127
10, 400524, Note_on_c, 8, 66, 0
10, 400560, Note_on_c, 8, 66, 127
10, 400644, Note_on_c, 8, 66, 0
10, 400680, Note_on_c, 8, 66, 127
10, 400764, Note_on_c, 8, 66, 0
10, 400800, Note_on_c, 8, 57, 127
10, 400884, Note_on_c, 8, 57, 0
10, 400920, Note_on_c, 8, 57, 127
10, 401004, Note_on_c, 8, 57, 0
10, 401040, Note_on_c, 8, 57, 127
10, 401124, Note_on_c, 8, 57, 0
10, 401160, Note_on_c, 8, 57, 127
10, 401244, Note_on_c, 8, 57, 0
10, 401280, Note_on_c, 8, 55, 127
10, 401784, Note_on_c, 8, 55, 0
10, 402240, Note_on_c, 8, 67, 127
10, 402465, Note_on_c, 8, 67, 0
10, 402600, Note_on_c, 8, 67, 127
10, 402720, Note_on_c, 8, 67, 0
10, 402720, Note_on_c, 8, 67, 127
10, 403440, Note_on_c, 8, 67, 0
10, 403440, Note_on_c, 8, 66, 127
10, 403524, Note_on_c, 8, 66, 0
10, 403560, Note_on_c, 8, 64, 127
10, 403644, Note_on_c, 8, 64, 0
10, 403680, Note_on_c, 8, 62, 127
10, 403764, Note_on_c, 8, 62, 0
10, 403800, Note_on_c, 8, 64, 127
10, 403884, Note_on_c, 8, 64, 0
10, 403920, Note_on_c, 8, 62, 127
10, 404004, Note_on_c, 8, 62, 0
10, 404040, Note_on_c, 8, 60, 127
10, 404124, Note_on_c, 8, 60, 0
10, 404160, Note_on_c, 8, 59, 127
10, 404244, Note_on_c, 8, 59, 0
10, 404280, Note_on_c, 8, 60, 127
10, 404364, Note_on_c, 8, 60, 0
10, 404400, Note_on_c, 8, 59, 127
10, 404484, Note_on_c, 8, 59, 0
10, 404520, Note_on_c, 8, 57, 127
10, 404604, Note_on_c, 8, 57, 0
10, 404640, Note_on_c, 8, 55, 127
10, 404880, Note_on_c, 8, 55, 0
10, 405120, Note_on_c, 8, 67, 127
10, 405345, Note_on_c, 8, 67, 0
10, 405480, Note_on_c, 8, 67, 127
10, 405600, Note_on_c, 8, 67, 0
10, 405600, Note_on_c, 8, 67, 127
10, 406248, Note_on_c, 8, 67, 0
10, 406320, Note_on_c, 8, 66, 127
10, 406404, Note_on_c, 8, 66, 0
10, 406440, Note_on_c, 8, 64, 127
10, 406524, Note_on_c, 8, 64, 0
10, 406560, Note_on_c, 8, 62, 127
10, 406644, Note_on_c, 8, 62, 0
10, 406680, Note_on_c, 8, 64, 127
10, 406764, Note_on_c, 8, 64, 0
10, 406800, Note_on_c, 8, 62, 127
10, 406884, Note_on_c, 8, 62, 0
10, 406920, Note_on_c, 8, 60, 127
10, 407004, Note_on_c, 8, 60, 0
10, 407040, Note_on_c, 8, 59, 127
10, 407124, Note_on_c, 8, 59, 0
10, 407160, Note_on_c, 8, 60, 127
10, 407244, Note_on_c, 8, 60, 0
10, 407280, Note_on_c, 8, 59, 127
10, 407364, Note_on_c, 8, 59, 0
10, 407400, Note_on_c, 8, 57, 127
10, 407484, Note_on_c, 8, 57, 0
10, 407520, Note_on_c, 8, 55, 127
10, 407604, Note_on_c, 8, 55, 0
10, 407640, Note_on_c, 8, 57, 127
10, 407724, Note_on_c, 8, 57, 0
10, 407760, Note_on_c, 8, 59, 127
10, 407844, Note_on_c, 8, 59, 0
10, 407880, Note_on_c, 8, 60, 127
10, 407964, Note_on_c, 8, 60, 0
10, 408000, Note_on_c, 8, 62, 127
10, 408084, Note_on_c, 8, 62, 0
10, 408120, Note_on_c, 8, 64, 127
10, 408204, Note_on_c, 8, 64, 0
10, 408240, Note_on_c, 8, 62, 127
10, 408324, Note_on_c, 8, 62, 0
10, 408360, Note_on_c, 8, 60, 127
10, 408444, Note_on_c, 8, 60, 0
10, 408480, Note_on_c, 8, 59, 127
10, 408564, Note_on_c, 8, 59, 0
10, 408600, Note_on_c, 8, 60, 127
10, 408684, Note_on_c, 8, 60, 0
10, 408720, Note_on_c, 8, 62, 127
10, 408804, Note_on_c, 8, 62, 0
10, 408840, Note_on_c, 8, 60, 127
10, 408924, Note_on_c, 8, 60, 0
10, 408960, Note_on_c, 8, 59, 127
10, 409080, Note_on_c, 8, 59, 0
10, 409200, Note_on_c, 8, 67, 127
10, 409320, Note_on_c, 8, 67, 0
10, 409440, Note_on_c, 8, 55, 127
10, 409560, Note_on_c, 8, 55, 0
10, 409680, Note_on_c, 8, 67, 127
10, 409800, Note_on_c, 8, 67, 0
10, 409920, Note_on_c, 8, 59, 127
10, 410400, Note_on_c, 8, 59, 0
10, 410880, Note_on_c, 8, 48, 50
10, 411360, Note_on_c, 8, 48, 0
10, 411840, Note_on_c, 8, 57, 50
10, 412320, Note_on_c, 8, 57, 0
10, 412800, Note_on_c, 8, 50, 50
10, 413280, Note_on_c, 8, 50, 0
10, 413760, Note_on_c, 8, 55, 50
10, 414240, Note_on_c, 8, 55, 0
10, 414720, Note_on_c, 8, 60, 50
10, 414960, Note_on_c, 8, 60, 0
10, 415200, Note_on_c, 8, 52, 50
10, 415440, Note_on_c, 8, 52, 0
10, 415680, Note_on_c, 8, 53, 50
10, 415920, Note_on_c, 8, 53, 0
10, 416160, Note_on_c, 8, 54, 50
10, 416400, Note_on_c, 8, 54, 0
10, 416640, Note_on_c, 8, 55, 50
10, 416880, Note_on_c, 8, 55, 0
10, 417120, Note_on_c, 8, 59, 50
10, 417600, Note_on_c, 8, 59, 0
10, 417600, Note_on_c, 8, 60, 50
10, 418080, Note_on_c, 8, 60, 0
10, 418080, Note_on_c, 8, 61, 50
10, 418560, Note_on_c, 8, 61, 0
10, 418560, Note_on_c, 8, 62, 50
10, 418800, Note_on_c, 8, 62, 0
10, 419040, Note_on_c, 8, 65, 50
10, 419640, Note_on_c, 8, 65, 0
10, 419760, Note_on_c, 8, 62, 50
10, 419880, Note_on_c, 8, 62, 0
10, 420000, Note_on_c, 8, 67, 50
10, 420120, Note_on_c, 8, 67, 0
10, 420240, Note_on_c, 8, 65, 50
10, 420360, Note_on_c, 8, 65, 0
10, 420480, Note_on_c, 8, 64, 50
10, 420960, Note_on_c, 8, 64, 0
10, 420960, Note_on_c, 8, 52, 50
10, 421440, Note_on_c, 8, 52, 0
10, 421440, Note_on_c, 8, 53, 50
10, 421920, Note_on_c, 8, 53, 0
10, 421920, Note_on_c, 8, 54, 50
10, 422400, Note_on_c, 8, 54, 0
10, 422400, Note_on_c, 8, 55, 50
10, 424318, Note_on_c, 8, 55, 0
10, 424320, Note_on_c, 8, 55, 50
10, 426238, Note_on_c, 8, 55, 0
10, 426240, Note_on_c, 8, 55, 50
10, 428158, Note_on_c, 8, 55, 0
10, 428160, Note_on_c, 8, 55, 50
10, 430078, Note_on_c, 8, 55, 0
10, 430080, Note_on_c, 8, 48, 50
10, 430560, Note_on_c, 8, 48, 0
10, 431160, Note_on_c, 8, 53, 127
10, 431244, Note_on_c, 8, 53, 0
10, 431280, Note_on_c, 8, 53, 127
10, 431364, Note_on_c, 8, 53, 0
10, 431400, Note_on_c, 8, 55, 127
10, 431484, Note_on_c, 8, 55, 0
10, 431520, Note_on_c, 8, 57, 127
10, 431604, Note_on_c, 8, 57, 0
10, 431640, Note_on_c, 8, 58, 127
10, 431724, Note_on_c, 8, 58, 0
10, 431760, Note_on_c, 8, 57, 127
10, 431844, Note_on_c, 8, 57, 0
10, 431880, Note_on_c, 8, 55, 127
10, 431964, Note_on_c, 8, 55, 0
10, 432000, Note_on_c, 8, 53, 127
10, 432084, Note_on_c, 8, 53, 0
10, 432120, Note_on_c, 8, 57, 127
10, 432204, Note_on_c, 8, 57, 0
10, 432240, Note_on_c, 8, 62, 127
10, 432324, Note_on_c, 8, 62, 0
10, 432360, Note_on_c, 8, 60, 127
10, 432444, Note_on_c, 8, 60, 0
10, 432480, Note_on_c, 8, 59, 127
10, 432816, Note_on_c, 8, 59, 0
10, 433080, Note_on_c, 8, 52, 127
10, 433164, Note_on_c, 8, 52, 0
10, 433200, Note_on_c, 8, 57, 127
10, 433284, Note_on_c, 8, 57, 0
10, 433320, Note_on_c, 8, 58, 127
10, 433404, Note_on_c, 8, 58, 0
10, 433440, Note_on_c, 8, 60, 127
10, 433524, Note_on_c, 8, 60, 0
10, 433560, Note_on_c, 8, 62, 127
10, 433644, Note_on_c, 8, 62, 0
10, 433680, Note_on_c, 8, 60, 127
10, 433764, Note_on_c, 8, 60, 0
10, 433800, Note_on_c, 8, 58, 127
10, 433884, Note_on_c, 8, 58, 0
10, 433920, Note_on_c, 8, 57, 127
10, 434004, Note_on_c, 8, 57, 0
10, 434040, Note_on_c, 8, 60, 127
10, 434124, Note_on_c, 8, 60, 0
10, 434160, Note_on_c, 8, 65, 127
10, 434244, Note_on_c, 8, 65, 0
10, 434280, Note_on_c, 8, 64, 127
10, 434364, Note_on_c, 8, 64, 0
10, 434400, Note_on_c, 8, 62, 127
10, 434736, Note_on_c, 8, 62, 0
10, 435840, Note_on_c, 8, 60, 127
10, 436200, Note_on_c, 8, 60, 0
10, 436320, Note_on_c, 8, 57, 127
10, 436680, Note_on_c, 8, 57, 0
10, 436800, Note_on_c, 8, 62, 127
10, 437364, Note_on_c, 8, 62, 0
10, 437400, Note_on_c, 8, 60, 127
10, 437484, Note_on_c, 8, 60, 0
10, 437520, Note_on_c, 8, 59, 127
10, 437604, Note_on_c, 8, 59, 0
10, 437640, Note_on_c, 8, 57, 127
10, 437724, Note_on_c, 8, 57, 0
10, 437760, Note_on_c, 8, 59, 127
10, 437844, Note_on_c, 8, 59, 0
10, 437880, Note_on_c, 8, 57, 127
10, 437964, Note_on_c, 8, 57, 0
10, 438000, Note_on_c, 8, 55, 127
10, 438084, Note_on_c, 8, 55, 0
10, 438120, Note_on_c, 8, 53, 127
10, 438204, Note_on_c, 8, 53, 0
10, 438240, Note_on_c, 8, 52, 127
10, 438576, Note_on_c, 8, 52, 0
10, 438720, Note_on_c, 8, 60, 127
10, 439200, Note_on_c, 8, 60, 0
10, 439680, Note_on_c, 8, 57, 127
10, 440160, Note_on_c, 8, 57, 0
10, 440160, Note_on_c, 8, 53, 127
10, 440640, Note_on_c, 8, 53, 0
10, 440640, Note_on_c, 8, 59, 127
10, 441204, Note_on_c, 8, 59, 0
10, 441240, Note_on_c, 8, 57, 127
10, 441324, Note_on_c, 8, 57, 0
10, 441360, Note_on_c, 8, 56, 127
10, 441444, Note_on_c, 8, 56, 0
10, 441480, Note_on_c, 8, 54, 127
10, 441564, Note_on_c, 8, 54, 0
10, 441600, Note_on_c, 8, 56, 127
10, 441684, Note_on_c, 8, 56, 0
10, 441720, Note_on_c, 8, 54, 127
10, 441804, Note_on_c, 8, 54, 0
10, 441840, Note_on_c, 8, 52, 127
10, 441924, Note_on_c, 8, 52, 0
10, 441960, Note_on_c, 8, 50, 127
10, 442044, Note_on_c, 8, 50, 0
10, 442080, Note_on_c, 8, 48, 127
10, 442416, Note_on_c, 8, 48, 0
10, 442560, Note_on_c, 8, 57, 127
10, 443064, Note_on_c, 8, 57, 0
10, 443520, Note_on_c, 8, 65, 127
10, 443856, Note_on_c, 8, 65, 0
10, 444000, Note_on_c, 8, 62, 127
10, 444336, Note_on_c, 8, 62, 0
10, 444480, Note_on_c, 8, 67, 127
10, 445044, Note_on_c, 8, 67, 0
10, 445080, Note_on_c, 8, 65, 127
10, 445164, Note_on_c, 8, 65, 0
10, 445200, Note_on_c, 8, 64, 127
10, 445284, Note_on_c, 8, 64, 0
10, 445320, Note_on_c, 8, 62, 127
10, 445404, Note_on_c, 8, 62, 0
10, 445440, Note_on_c, 8, 60, 127
10, 445608, Note_on_c, 8, 60, 0
10, 445680, Note_on_c, 8, 65, 127
10, 445764, Note_on_c, 8, 65, 0
10, 445800, Note_on_c, 8, 64, 127
10, 445884, Note_on_c, 8, 64, 0
10, 445920, Note_on_c, 8, 65, 127
10, 446004, Note_on_c, 8, 65, 0
10, 446040, Note_on_c, 8, 64, 127
10, 446124, Note_on_c, 8, 64, 0
10, 446160, Note_on_c, 8, 62, 127
10, 446244, Note_on_c, 8, 62, 0
10, 446280, Note_on_c, 8, 60, 127
10, 446364, Note_on_c, 8, 60, 0
10, 446400, Note_on_c, 8, 65, 127
10, 446568, Note_on_c, 8, 65, 0
10, 446640, Note_on_c, 8, 69, 127
10, 446724, Note_on_c, 8, 69, 0
10, 446760, Note_on_c, 8, 67, 127
10, 446844, Note_on_c, 8, 67, 0
10, 446880, Note_on_c, 8, 69, 127
10, 446964, Note_on_c, 8, 69, 0
10, 447000, Note_on_c, 8, 67, 127
10, 447084, Note_on_c, 8, 67, 0
10, 447120, Note_on_c, 8, 65, 127
10, 447204, Note_on_c, 8, 65, 0
10, 447240, Note_on_c, 8, 64, 127
10, 447324, Note_on_c, 8, 64, 0
10, 447360, Note_on_c, 8, 69, 127
10, 447528, Note_on_c, 8, 69, 0
10, 447600, Note_on_c, 8, 65, 127
10, 447684, Note_on_c, 8, 65, 0
10, 447720, Note_on_c, 8, 64, 127
10, 447804, Note_on_c, 8, 64, 0
10, 447840, Note_on_c, 8, 65, 127
10, 447924, Note_on_c, 8, 65, 0
10, 447960, Note_on_c, 8, 64, 127
10, 448044, Note_on_c, 8, 64, 0
10, 448080, Note_on_c, 8, 62, 127
10, 448164, Note_on_c, 8, 62, 0
10, 448200, Note_on_c, 8, 60, 127
10, 448284, Note_on_c, 8, 60, 0
10, 448320, Note_on_c, 8, 65, 127
10, 448488, Note_on_c, 8, 65, 0
10, 450240, Note_on_c, 8, 60, 127
10, 450324, Note_on_c, 8, 60, 0
10, 450360, Note_on_c, 8, 60, 127
10, 450444, Note_on_c, 8, 60, 0
10, 450480, Note_on_c, 8, 60, 127
10, 450564, Note_on_c, 8, 60, 0
10, 450600, Note_on_c, 8, 60, 127
10, 450684, Note_on_c, 8, 60, 0
10, 450720, Note_on_c, 8, 60, 127
10, 450804, Note_on_c, 8, 60, 0
10, 450840, Note_on_c, 8, 60, 127
10, 450924, Note_on_c, 8, 60, 0
10, 450960, Note_on_c, 8, 60, 127
10, 451044, Note_on_c, 8, 60, 0
10, 451080, Note_on_c, 8, 60, 127
10, 451164, Note_on_c, 8, 60, 0
10, 451200, Note_on_c, 8, 60, 127
10, 451284, Note_on_c, 8, 60, 0
10, 451320, Note_on_c, 8, 60, 127
10, 451404, Note_on_c, 8, 60, 0
10, 451440, Note_on_c, 8, 60, 127
10, 451524, Note_on_c, 8, 60, 0
10, 451560, Note_on_c, 8, 60, 127
10, 451644, Note_on_c, 8, 60, 0
10, 451680, Note_on_c, 8, 60, 127
10, 451764, Note_on_c, 8, 60, 0
10, 451800, Note_on_c, 8, 60, 127
10, 451884, Note_on_c, 8, 60, 0
10, 451920, Note_on_c, 8, 60, 127
10, 452004, Note_on_c, 8, 60, 0
10, 452040, Note_on_c, 8, 60, 127
10, 452124, Note_on_c, 8, 60, 0
10, 452160, Note_on_c, 8, 64, 127
10, 452244, Note_on_c, 8, 64, 0
10, 452280, Note_on_c, 8, 64, 127
10, 452364, Note_on_c, 8, 64, 0
10, 452400, Note_on_c, 8, 64, 127
10, 452484, Note_on_c, 8, 64, 0
10, 452520, Note_on_c, 8, 64, 127
10, 452604, Note_on_c, 8, 64, 0
10, 452640, Note_on_c, 8, 64, 127
10, 452724, Note_on_c, 8, 64, 0
10, 452760, Note_on_c, 8, 64, 127
10, 452844, Note_on_c, 8, 64, 0
10, 452880, Note_on_c, 8, 64, 127
10, 452964, Note_on_c, 8, 64, 0
10, 453000, Note_on_c, 8, 64, 127
10, 453084, Note_on_c, 8, 64, 0
10, 453120, Note_on_c, 8, 64, 127
10, 453204, Note_on_c, 8, 64, 0
10, 453240, Note_on_c, 8, 64, 127
10, 453324, Note_on_c, 8, 64, 0
10, 453360, Note_on_c, 8, 64, 127
10, 453444, Note_on_c, 8, 64, 0
10, 453480, Note_on_c, 8, 64, 127
10, 453564, Note_on_c, 8, 64, 0
10, 453600, Note_on_c, 8, 64, 127
10, 453684, Note_on_c, 8, 64, 0
10, 453720, Note_on_c, 8, 64, 127
10, 453804, Note_on_c, 8, 64, 0
10, 453840, Note_on_c, 8, 60, 127
10, 453924, Note_on_c, 8, 60, 0
10, 453960, Note_on_c, 8, 60, 127
10, 454044, Note_on_c, 8, 60, 0
10, 454080, Note_on_c, 8, 60, 127
10, 454164, Note_on_c, 8, 60, 0
10, 454200, Note_on_c, 8, 65, 127
10, 454284, Note_on_c, 8, 65, 0
10, 454320, Note_on_c, 8, 65, 127
10, 454404, Note_on_c, 8, 65, 0
10, 454440, Note_on_c, 8, 65, 127
10, 454524, Note_on_c, 8, 65, 0
10, 454560, Note_on_c, 8, 65, 127
10, 454644, Note_on_c, 8, 65, 0
10, 454680, Note_on_c, 8, 65, 127
10, 454764, Note_on_c, 8, 65, 0
10, 454800, Note_on_c, 8, 65, 127
10, 454884, Note_on_c, 8, 65, 0
10, 454920, Note_on_c, 8, 65, 127
10, 455004, Note_on_c, 8, 65, 0
10, 455040, Note_on_c, 8, 66, 127
10, 455124, Note_on_c, 8, 66, 0
10, 455160, Note_on_c, 8, 66, 127
10, 455244, Note_on_c, 8, 66, 0
10, 455280, Note_on_c, 8, 66, 127
10, 455364, Note_on_c, 8, 66, 0
10, 455400, Note_on_c, 8, 66, 127
10, 455484, Note_on_c, 8, 66, 0
10, 455520, Note_on_c, 8, 66, 127
10, 455604, Note_on_c, 8, 66, 0
10, 455640, Note_on_c, 8, 66, 127
10, 455724, Note_on_c, 8, 66, 0
10, 455760, Note_on_c, 8, 69, 127
10, 455844, Note_on_c, 8, 69, 0
10, 455880, Note_on_c, 8, 69, 127
10, 455964, Note_on_c, 8, 69, 0
10, 456000, Note_on_c, 8, 67, 127
10, 456084, Note_on_c, 8, 67, 0
10, 456120, Note_on_c, 8, 67, 127
10, 456204, Note_on_c, 8, 67, 0
10, 456240, Note_on_c, 8, 67, 127
10, 456324, Note_on_c, 8, 67, 0
10, 456360, Note_on_c, 8, 67, 127
10, 456444, Note_on_c, 8, 67, 0
10, 456480, Note_on_c, 8, 60, 127
10, 456564, Note_on_c, 8, 60, 0
10, 456600, Note_on_c, 8, 60, 127
10, 456684, Note_on_c, 8, 60, 0
10, 456720, Note_on_c, 8, 60, 127
10, 456804, Note_on_c, 8, 60, 0
10, 456840, Note_on_c, 8, 60, 127
10, 456924, Note_on_c, 8, 60, 0
10, 456960, Note_on_c, 8, 59, 127
10, 457044, Note_on_c, 8, 59, 0
10, 457080, Note_on_c, 8, 59, 127
10, 457164, Note_on_c, 8, 59, 0
10, 457200, Note_on_c, 8, 59, 127
10, 457284, Note_on_c, 8, 59, 0
10, 457320, Note_on_c, 8, 59, 127
10, 457404, Note_on_c, 8, 59, 0
10, 457440, Note_on_c, 8, 62, 127
10, 457524, Note_on_c, 8, 62, 0
10, 457560, Note_on_c, 8, 62, 127
10, 457644, Note_on_c, 8, 62, 0
10, 457680, Note_on_c, 8, 62, 127
10, 457764, Note_on_c, 8, 62, 0
10, 457800, Note_on_c, 8, 62, 127
10, 457884, Note_on_c, 8, 62, 0
10, 457920, Note_on_c, 8, 60, 127
10, 458004, Note_on_c, 8, 60, 0
10, 458040, Note_on_c, 8, 67, 127
10, 458124, Note_on_c, 8, 67, 0
10, 458160, Note_on_c, 8, 67, 127
10, 458244, Note_on_c, 8, 67, 0
10, 458280, Note_on_c, 8, 67, 127
10, 458364, Note_on_c, 8, 67, 0
10, 458400, Note_on_c, 8, 67, 127
10, 458484, Note_on_c, 8, 67, 0
10, 458520, Note_on_c, 8, 67, 127
10, 458604, Note_on_c, 8, 67, 0
10, 458640, Note_on_c, 8, 67, 127
10, 458808, Note_on_c, 8, 67, 0
10, 458880, Note_on_c, 8, 67, 127
10, 458964, Note_on_c, 8, 67, 0
10, 459000, Note_on_c, 8, 67, 127
10, 459084, Note_on_c, 8, 67, 0
10, 459120, Note_on_c, 8, 67, 127
10, 459204, Note_on_c, 8, 67, 0
10, 459240, Note_on_c, 8, 67, 127
10, 459324, Note_on_c, 8, 67, 0
10, 459360, Note_on_c, 8, 67, 127
10, 459444, Note_on_c, 8, 67, 0
10, 459480, Note_on_c, 8, 67, 127
10, 459564, Note_on_c, 8, 67, 0
10, 459600, Note_on_c, 8, 67, 127
10, 459684, Note_on_c, 8, 67, 0
10, 459720, Note_on_c, 8, 67, 127
10, 459804, Note_on_c, 8, 67, 0
10, 459840, Note_on_c, 8, 67, 127
10, 459924, Note_on_c, 8, 67, 0
10, 459960, Note_on_c, 8, 72, 127
10, 460044, Note_on_c, 8, 72, 0
10, 460080, Note_on_c, 8, 72, 127
10, 460164, Note_on_c, 8, 72, 0
10, 460200, Note_on_c, 8, 72, 127
10, 460284, Note_on_c, 8, 72, 0
10, 460320, Note_on_c, 8, 72, 127
10, 460404, Note_on_c, 8, 72, 0
10, 460440, Note_on_c, 8, 72, 127
10, 460524, Note_on_c, 8, 72, 0
10, 460560, Note_on_c, 8, 72, 127
10, 460644, Note_on_c, 8, 72, 0
10, 460680, Note_on_c, 8, 72, 127
10, 460764, Note_on_c, 8, 72, 0
10, 460800, Note_on_c, 8, 72, 127
10, 460884, Note_on_c, 8, 72, 0
10, 460920, Note_on_c, 8, 72, 127
10, 461004, Note_on_c, 8, 72, 0
10, 461040, Note_on_c, 8, 72, 127
10, 461124, Note_on_c, 8, 72, 0
10, 461160, Note_on_c, 8, 72, 127
10, 461244, Note_on_c, 8, 72, 0
10, 461280, Note_on_c, 8, 72, 127
10, 461364, Note_on_c, 8, 72, 0
10, 461400, Note_on_c, 8, 72, 127
10, 461484, Note_on_c, 8, 72, 0
10, 461520, Note_on_c, 8, 72, 127
10, 461604, Note_on_c, 8, 72, 0
10, 461640, Note_on_c, 8, 72, 127
10, 461724, Note_on_c, 8, 72, 0
10, 461760, Note_on_c, 8, 72, 127
10, 461880, Note_on_c, 8, 72, 0
10, 462000, Note_on_c, 8, 56, 127
10, 462120, Note_on_c, 8, 56, 0
10, 462240, Note_on_c, 8, 68, 127
10, 462360, Note_on_c, 8, 68, 0
10, 462480, Note_on_c, 8, 68, 127
10, 462600, Note_on_c, 8, 68, 0
10, 462720, Note_on_c, 8, 68, 127
10, 463440, Note_on_c, 8, 68, 0
10, 463440, Note_on_c, 8, 67, 127
10, 463560, Note_on_c, 8, 67, 0
10, 463680, Note_on_c, 8, 68, 127
10, 463800, Note_on_c, 8, 68, 0
10, 463920, Note_on_c, 8, 67, 127
10, 464040, Note_on_c, 8, 67, 0
10, 464160, Note_on_c, 8, 68, 127
10, 464280, Note_on_c, 8, 68, 0
10, 464400, Note_on_c, 8, 67, 127
10, 464520, Note_on_c, 8, 67, 0
10, 464640, Note_on_c, 8, 68, 127
10, 464760, Note_on_c, 8, 68, 0
10, 464880, Note_on_c, 8, 56, 127
10, 465000, Note_on_c, 8, 56, 0
10, 465120, Note_on_c, 8, 68, 127
10, 465240, Note_on_c, 8, 68, 0
10, 465360, Note_on_c, 8, 68, 127
10, 465480, Note_on_c, 8, 68, 0
10, 465600, Note_on_c, 8, 68, 127
10, 466320, Note_on_c, 8, 68, 0
10, 466320, Note_on_c, 8, 59, 127
10, 466440, Note_on_c, 8, 59, 0
10, 466440, Note_on_c, 8, 59, 127
10, 466560, Note_on_c, 8, 59, 0
10, 466560, Note_on_c, 8, 60, 127
10, 467280, Note_on_c, 8, 60, 0
10, 467280, Note_on_c, 8, 59, 127
10, 467400, Note_on_c, 8, 59, 0
10, 467400, Note_on_c, 8, 59, 127
10, 467520, Note_on_c, 8, 59, 0
10, 467520, Note_on_c, 8, 60, 127
10, 467640, Note_on_c, 8, 60, 0
10, 467640, Note_on_c, 8, 60, 127
10, 467760, Note_on_c, 8, 60, 0
10, 467760, Note_on_c, 8, 59, 127
10, 467880, Note_on_c, 8, 59, 0
10, 467880, Note_on_c, 8, 59, 127
10, 468000, Note_on_c, 8, 59, 0
10, 468000, Note_on_c, 8, 60, 127
10, 468120, Note_on_c, 8, 60, 0
10, 468120, Note_on_c, 8, 60, 127
10, 468240, Note_on_c, 8, 60, 0
10, 468240, Note_on_c, 8, 60, 127
10, 468360, Note_on_c, 8, 60, 0
10, 468360, Note_on_c, 8, 60, 127
10, 468480, Note_on_c, 8, 60, 0
10, 468480, Note_on_c, 8, 60, 127
10, 468600, Note_on_c, 8, 60, 0
10, 468720, Note_on_c, 8, 67, 127
10, 468840, Note_on_c, 8, 67, 0
10, 468960, Note_on_c, 8, 67, 127
10, 469080, Note_on_c, 8, 67, 0
10, 469200, Note_on_c, 8, 67, 127
10, 469320, Note_on_c, 8, 67, 0
10, 469440, Note_on_c, 8, 55, 127
10, 469560, Note_on_c, 8, 55, 0
10, 469680, Note_on_c, 8, 55, 127
10, 469800, Note_on_c, 8, 55, 0
10, 469920, Note_on_c, 8, 55, 127
10, 470040, Note_on_c, 8, 55, 0
10, 470160, Note_on_c, 8, 55, 127
10, 470280, Note_on_c, 8, 55, 0
10, 470400, Note_on_c, 8, 60, 127
10, 470640, Note_on_c, 8, 60, 0
10, 482880, Note_on_c, 8, 72, 88
10, 483000, Note_on_c, 8, 72, 0
10, 483120, Note_on_c, 8, 71, 91
10, 483240, Note_on_c, 8, 71, 0
10, 483360, Note_on_c, 8, 69, 94
10, 483480, Note_on_c, 8, 69, 0
10, 483600, Note_on_c, 8, 68, 98
10, 483720, Note_on_c, 8, 68, 0
10, 483840, Note_on_c, 8, 69, 101
10, 483960, Note_on_c, 8, 69, 0
10, 484080, Note_on_c, 8, 67, 104
10, 484200, Note_on_c, 8, 67, 0
10, 484320, Note_on_c, 8, 65, 107
10, 484440, Note_on_c, 8, 65, 0
10, 484560, Note_on_c, 8, 64, 110
10, 484680, Note_on_c, 8, 64, 0
10, 484800, Note_on_c, 8, 65, 114
10, 484920, Note_on_c, 8, 65, 0
10, 485040, Note_on_c, 8, 66, 117
10, 485160, Note_on_c, 8, 66, 0
10, 485280, Note_on_c, 8, 67, 120
10, 485400, Note_on_c, 8, 67, 0
10, 485520, Note_on_c, 8, 55, 123
10, 485640, Note_on_c, 8, 55, 0
10, 485760, Note_on_c, 8, 60, 127
10, 486240, Note_on_c, 8, 60, 0
10, 487200, Note_on_c, 8, 60, 50
10, 488160, Note_on_c, 8, 60, 0
10, 488160, Note_on_c, 8, 57, 50
10, 488280, Note_on_c, 8, 57, 0
10, 488400, Note_on_c, 8, 53, 50
10, 488520, Note_on_c, 8, 53, 0
10, 488640, Note_on_c, 8, 48, 50
10, 488880, Note_on_c, 8, 48, 0
10, 489120, Note_on_c, 8, 72, 50
10, 489360, Note_on_c, 8, 72, 0
10, 489600, Note_on_c, 8, 67, 50
10, 489840, Note_on_c, 8, 67, 0
10, 490080, Note_on_c, 8, 64, 50
10, 490320, Note_on_c, 8, 64, 0
10, 490560, Note_on_c, 8, 62, 50
10, 491520, Note_on_c, 8, 62, 0
10, 491520, Note_on_c, 8, 60, 50
10, 491904, Note_on_c, 8, 60, 0
10, 492000, Note_on_c, 8, 67, 127
10, 492225, Note_on_c, 8, 67, 0
10, 492360, Note_on_c, 8, 67, 127
10, 492456, Note_on_c, 8, 67, 0
10, 492480, Note_on_c, 8, 67, 127
10, 493152, Note_on_c, 8, 67, 0
10, 493200, Note_on_c, 8, 67, 127
10, 493272, Note_on_c, 8, 67, 0
10, 493320, Note_on_c, 8, 69, 127
10, 493392, Note_on_c, 8, 69, 0
10, 493440, Note_on_c, 8, 70, 127
10, 493512, Note_on_c, 8, 70, 0
10, 493560, Note_on_c, 8, 72, 127
10, 493632, Note_on_c, 8, 72, 0
10, 493680, Note_on_c, 8, 70, 127
10, 493752, Note_on_c, 8, 70, 0
10, 493800, Note_on_c, 8, 69, 127
10, 493872, Note_on_c, 8, 69, 0
10, 493920, Note_on_c, 8, 67, 127
10, 493992, Note_on_c, 8, 67, 0
10, 494040, Note_on_c, 8, 65, 127
10, 494112, Note_on_c, 8, 65, 0
10, 494160, Note_on_c, 8, 64, 127
10, 494232, Note_on_c, 8, 64, 0
10, 494280, Note_on_c, 8, 62, 127
10, 494352, Note_on_c, 8, 62, 0
10, 494400, Note_on_c, 8, 60, 127
10, 494880, Note_on_c, 8, 60, 0
10, 497280, Note_on_c, 8, 70, 50
10, 498240, Note_on_c, 8, 70, 0
10, 498240, Note_on_c, 8, 69, 50
10, 499200, Note_on_c, 8, 69, 0
10, 499200, Note_on_c, 8, 62, 50
10, 500160, Note_on_c, 8, 62, 0
10, 500160, Note_on_c, 8, 64, 50
10, 501120, Note_on_c, 8, 64, 0
10, 501120, Note_on_c, 8, 68, 50
10, 502080, Note_on_c, 8, 68, 0
10, 502080, Note_on_c, 8, 67, 50
10, 503998, Note_on_c, 8, 67, 0
10, 504000, Note_on_c, 8, 62, 50
10, 504960, Note_on_c, 8, 62, 0
10, 504960, Note_on_c, 8, 60, 50
10, 505920, Note_on_c, 8, 60, 0
10, 505920, Note_on_c, 8, 67, 50
10, 506400, Note_on_c, 8, 67, 0
10, 506400, Note_on_c, 8, 67, 51
10, 506736, Note_on_c, 8, 67, 0
10, 506880, Note_on_c, 8, 64, 52
10, 507216, Note_on_c, 8, 64, 0
10, 507360, Note_on_c, 8, 69, 53
10, 507958, Note_on_c, 8, 69, 0
10, 507960, Note_on_c, 8, 67, 55
10, 508080, Note_on_c, 8, 67, 0
10, 508080, Note_on_c, 8, 65, 55
10, 508200, Note_on_c, 8, 65, 0
10, 508200, Note_on_c, 8, 64, 55
10, 508320, Note_on_c, 8, 64, 0
10, 508320, Note_on_c, 8, 65, 56
10, 508440, Note_on_c, 8, 65, 0
10, 508440, Note_on_c, 8, 64, 56
10, 508560, Note_on_c, 8, 64, 0
10, 508560, Note_on_c, 8, 62, 56
10, 508680, Note_on_c, 8, 62, 0
10, 508680, Note_on_c, 8, 60, 57
10, 508800, Note_on_c, 8, 60, 0
10, 508800, Note_on_c, 8, 59, 57
10, 509136, Note_on_c, 8, 59, 0
10, 509280, Note_on_c, 8, 67, 58
10, 509616, Note_on_c, 8, 67, 0
10, 510720, Note_on_c, 8, 67, 62
10, 511680, Note_on_c, 8, 67, 0
10, 511680, Note_on_c, 8, 69, 64
10, 512640, Note_on_c, 8, 69, 0
10, 512640, Note_on_c, 8, 72, 67
10, 513600, Note_on_c, 8, 72, 0
10, 513600, Note_on_c, 8, 71, 69
10, 514560, Note_on_c, 8, 71, 0
10, 514800, Note_on_c, 8, 60, 72
10, 514920, Note_on_c, 8, 60, 0
10, 515040, Note_on_c, 8, 62, 73
10, 515160, Note_on_c, 8, 62, 0
10, 515280, Note_on_c, 8, 64, 74
10, 515400, Note_on_c, 8, 64, 0
10, 515520, Note_on_c, 8, 67, 74
10, 515580, Note_on_c, 8, 67, 0
10, 515580, Note_on_c, 8, 65, 74
10, 515640, Note_on_c, 8, 65, 0
10, 515640, Note_on_c, 8, 67, 74
10, 515700, Note_on_c, 8, 67, 0
10, 515700, Note_on_c, 8, 65, 75
10, 515760, Note_on_c, 8, 65, 0
10, 515880, Note_on_c, 8, 67, 75
10, 515964, Note_on_c, 8, 67, 0
10, 516000, Note_on_c, 8, 69, 75
10, 516384, Note_on_c, 8, 69, 0
10, 516720, Note_on_c, 8, 55, 77
10, 516840, Note_on_c, 8, 55, 0
10, 516960, Note_on_c, 8, 57, 78
10, 517080, Note_on_c, 8, 57, 0
10, 517200, Note_on_c, 8, 59, 78
10, 517320, Note_on_c, 8, 59, 0
10, 517440, Note_on_c, 8, 62, 79
10, 517500, Note_on_c, 8, 62, 0
10, 517500, Note_on_c, 8, 60, 79
10, 517560, Note_on_c, 8, 60, 0
10, 517560, Note_on_c, 8, 62, 79
10, 517620, Note_on_c, 8, 62, 0
10, 517620, Note_on_c, 8, 60, 80
10, 517680, Note_on_c, 8, 60, 0
10, 517800, Note_on_c, 8, 62, 80
10, 517884, Note_on_c, 8, 62, 0
10, 517920, Note_on_c, 8, 64, 80
10, 518400, Note_on_c, 8, 64, 0
10, 519600, Note_on_c, 8, 76, 85
10, 519720, Note_on_c, 8, 76, 0
10, 519840, Note_on_c, 8, 69, 85
10, 519960, Note_on_c, 8, 69, 0
10, 520080, Note_on_c, 8, 72, 86
10, 520200, Note_on_c, 8, 72, 0
10, 520320, Note_on_c, 8, 62, 86
10, 520440, Note_on_c, 8, 62, 0
10, 520560, Note_on_c, 8, 66, 87
10, 520680, Note_on_c, 8, 66, 0
10, 520800, Note_on_c, 8, 67, 88
10, 520920, Note_on_c, 8, 67, 0
10, 521040, Note_on_c, 8, 69, 88
10, 521160, Note_on_c, 8, 69, 0
10, 521280, Note_on_c, 8, 72, 89
10, 521340, Note_on_c, 8, 72, 0
10, 521340, Note_on_c, 8, 71, 89
10, 521400, Note_on_c, 8, 71, 0
10, 521400, Note_on_c, 8, 72, 89
10, 521460, Note_on_c, 8, 72, 0
10, 521460, Note_on_c, 8, 71, 89
10, 521520, Note_on_c, 8, 71, 0
10, 521640, Note_on_c, 8, 72, 90
10, 521724, Note_on_c, 8, 72, 0
10, 521760, Note_on_c, 8, 74, 90
10, 522144, Note_on_c, 8, 74, 0
10, 522720, Note_on_c, 8, 72, 93
10, 523080, Note_on_c, 8, 72, 0
10, 523080, Note_on_c, 8, 72, 94
10, 523200, Note_on_c, 8, 72, 0
10, 523200, Note_on_c, 8, 72, 94
10, 523920, Note_on_c, 8, 72, 0
10, 523920, Note_on_c, 8, 71, 96
10, 524004, Note_on_c, 8, 71, 0
10, 524040, Note_on_c, 8, 69, 96
10, 524124, Note_on_c, 8, 69, 0
10, 524160, Note_on_c, 8, 67, 96
10, 524244, Note_on_c, 8, 67, 0
10, 524280, Note_on_c, 8, 69, 97
10, 524364, Note_on_c, 8, 69, 0
10, 524400, Note_on_c, 8, 67, 97
10, 524484, Note_on_c, 8, 67, 0
10, 524520, Note_on_c, 8, 65, 97
10, 524604, Note_on_c, 8, 65, 0
10, 524640, Note_on_c, 8, 64, 98
10, 524724, Note_on_c, 8, 64, 0
10, 524760, Note_on_c, 8, 65, 98
10, 524844, Note_on_c, 8, 65, 0
10, 524880, Note_on_c, 8, 64, 98
10, 524964, Note_on_c, 8, 64, 0
10, 525000, Note_on_c, 8, 62, 98
10, 525084, Note_on_c, 8, 62, 0
10, 525120, Note_on_c, 8, 60, 99
10, 525456, Note_on_c, 8, 60, 0
10, 525600, Note_on_c, 8, 72, 100
10, 525936, Note_on_c, 8, 72, 0
10, 526080, Note_on_c, 8, 71, 101
10, 526416, Note_on_c, 8, 71, 0
10, 526560, Note_on_c, 8, 76, 102
10, 527124, Note_on_c, 8, 76, 0
10, 527160, Note_on_c, 8, 74, 104
10, 527244, Note_on_c, 8, 74, 0
10, 527280, Note_on_c, 8, 72, 104
10, 527364, Note_on_c, 8, 72, 0
10, 527400, Note_on_c, 8, 71, 105
10, 527484, Note_on_c, 8, 71, 0
10, 527520, Note_on_c, 8, 72, 105
10, 527604, Note_on_c, 8, 72, 0
10, 527640, Note_on_c, 8, 71, 105
10, 527724, Note_on_c, 8, 71, 0
10, 527760, Note_on_c, 8, 69, 106
10, 527844, Note_on_c, 8, 69, 0
10, 527880, Note_on_c, 8, 67, 106
10, 527964, Note_on_c, 8, 67, 0
10, 528000, Note_on_c, 8, 66, 106
10, 528480, Note_on_c, 8, 66, 0
10, 528480, Note_on_c, 8, 74, 107
10, 528960, Note_on_c, 8, 74, 0
10, 529920, Note_on_c, 8, 60, 111
10, 530880, Note_on_c, 8, 60, 0
10, 530880, Note_on_c, 8, 62, 114
10, 531840, Note_on_c, 8, 62, 0
10, 531840, Note_on_c, 8, 65, 116
10, 532800, Note_on_c, 8, 65, 0
10, 532800, Note_on_c, 8, 64, 118
10, 533280, Note_on_c, 8, 64, 0
10, 533280, Note_on_c, 8, 69, 120
10, 533878, Note_on_c, 8, 69, 0
10, 533880, Note_on_c, 8, 67, 121
10, 534000, Note_on_c, 8, 67, 0
10, 534000, Note_on_c, 8, 65, 122
10, 534120, Note_on_c, 8, 65, 0
10, 534120, Note_on_c, 8, 64, 122
10, 534240, Note_on_c, 8, 64, 0
10, 534240, Note_on_c, 8, 65, 122
10, 534360, Note_on_c, 8, 65, 0
10, 534360, Note_on_c, 8, 64, 122
10, 534480, Note_on_c, 8, 64, 0
10, 534480, Note_on_c, 8, 62, 123
10, 534600, Note_on_c, 8, 62, 0
10, 534600, Note_on_c, 8, 60, 123
10, 534720, Note_on_c, 8, 60, 0
10, 534720, Note_on_c, 8, 59, 123
10, 535200, Note_on_c, 8, 59, 0
10, 535200, Note_on_c, 8, 67, 125
10, 535800, Note_on_c, 8, 67, 0
10, 535920, Note_on_c, 8, 65, 127
10, 536040, Note_on_c, 8, 65, 0
10, 536160, Note_on_c, 8, 65, 127
10, 536280, Note_on_c, 8, 65, 0
10, 536400, Note_on_c, 8, 65, 127
10, 536520, Note_on_c, 8, 65, 0
10, 536640, Note_on_c, 8, 65, 127
10, 536760, Note_on_c, 8, 65, 0
10, 536880, Note_on_c, 8, 65, 127
10, 537000, Note_on_c, 8, 65, 0
10, 537120, Note_on_c, 8, 65, 127
10, 537240, Note_on_c, 8, 65, 0
10, 537360, Note_on_c, 8, 65, 127
10, 537480, Note_on_c, 8, 65, 0
10, 537600, Note_on_c, 8, 67, 127
10, 537720, Note_on_c, 8, 67, 0
10, 537840, Note_on_c, 8, 67, 127
10, 537960, Note_on_c, 8, 67, 0
10, 538080, Note_on_c, 8, 55, 127
10, 538200, Note_on_c, 8, 55, 0
10, 538320, Note_on_c, 8, 55, 127
10, 538440, Note_on_c, 8, 55, 0
10, 538560, Note_on_c, 8, 60, 127
10, 538680, Note_on_c, 8, 60, 0
10, 538800, Note_on_c, 8, 53, 127
10, 538920, Note_on_c, 8, 53, 0
10, 539040, Note_on_c, 8, 65, 127
10, 539160, Note_on_c, 8, 65, 0
10, 539280, Note_on_c, 8, 65, 127
10, 539400, Note_on_c, 8, 65, 0
10, 539520, Note_on_c, 8, 65, 127
10, 539640, Note_on_c, 8, 65, 0
10, 539760, Note_on_c, 8, 65, 127
10, 539880, Note_on_c, 8, 65, 0
10, 540000, Note_on_c, 8, 65, 127
10, 540120, Note_on_c, 8, 65, 0
10, 540240, Note_on_c, 8, 65, 127
10, 540360, Note_on_c, 8, 65, 0
10, 540480, Note_on_c, 8, 67, 127
10, 540600, Note_on_c, 8, 67, 0
10, 540720, Note_on_c, 8, 67, 127
10, 540840, Note_on_c, 8, 67, 0
10, 540960, Note_on_c, 8, 55, 127
10, 541080, Note_on_c, 8, 55, 0
10, 541200, Note_on_c, 8, 55, 127
10, 541320, Note_on_c, 8, 55, 0
10, 541440, Note_on_c, 8, 60, 127
10, 541680, Note_on_c, 8, 60, 0
10, 544440, Note_on_c, 8, 55, 127
10, 544524, Note_on_c, 8, 55, 0
10, 544560, Note_on_c, 8, 57, 127
10, 544644, Note_on_c, 8, 57, 0
10, 544680, Note_on_c, 8, 59, 127
10, 544764, Note_on_c, 8, 59, 0
10, 544800, Note_on_c, 8, 60, 127
10, 544884, Note_on_c, 8, 60, 0
10, 544920, Note_on_c, 8, 59, 127
10, 545004, Note_on_c, 8, 59, 0
10, 545040, Note_on_c, 8, 60, 127
10, 545124, Note_on_c, 8, 60, 0
10, 545160, Note_on_c, 8, 62, 127
10, 545244, Note_on_c, 8, 62, 0
10, 545280, Note_on_c, 8, 64, 127
10, 545364, Note_on_c, 8, 64, 0
10, 545400, Note_on_c, 8, 62, 127
10, 545484, Note_on_c, 8, 62, 0
10, 545520, Note_on_c, 8, 60, 127
10, 545604, Note_on_c, 8, 60, 0
10, 545640, Note_on_c, 8, 62, 127
10, 545724, Note_on_c, 8, 62, 0
10, 545760, Note_on_c, 8, 64, 127
10, 545844, Note_on_c, 8, 64, 0
10, 545880, Note_on_c, 8, 62, 127
10, 545964, Note_on_c, 8, 62, 0
10, 546000, Note_on_c, 8, 64, 127
10, 546084, Note_on_c, 8, 64, 0
10, 546120, Note_on_c, 8, 65, 127
10, 546204, Note_on_c, 8, 65, 0
10, 546240, Note_on_c, 8, 67, 127
10, 546324, Note_on_c, 8, 67, 0
10, 546360, Note_on_c, 8, 66, 127
10, 546444, Note_on_c, 8, 66, 0
10, 546480, Note_on_c, 8, 67, 127
10, 546564, Note_on_c, 8, 67, 0
10, 546600, Note_on_c, 8, 69, 127
10, 546684, Note_on_c, 8, 69, 0
10, 546720, Note_on_c, 8, 71, 127
10, 546804, Note_on_c, 8, 71, 0
10, 546840, Note_on_c, 8, 67, 127
10, 546924, Note_on_c, 8, 67, 0
10, 546960, Note_on_c, 8, 69, 127
10, 547044, Note_on_c, 8, 69, 0
10, 547080, Note_on_c, 8, 71, 127
10, 547164, Note_on_c, 8, 71, 0
10, 547200, Note_on_c, 8, 60, 127
10, 547440, Note_on_c, 8, 60, 0
10, 547680, Note_on_c, 8, 72, 127
10, 547905, Note_on_c, 8, 72, 0
10, 548040, Note_on_c, 8, 72, 127
10, 548160, Note_on_c, 8, 72, 0
10, 548160, Note_on_c, 8, 72, 127
10, 548880, Note_on_c, 8, 72, 0
10, 548880, Note_on_c, 8, 71, 127
10, 548964, Note_on_c, 8, 71, 0
10, 549000, Note_on_c, 8, 69, 127
10, 549084, Note_on_c, 8, 69, 0
10, 549120, Note_on_c, 8, 67, 127
10, 549204, Note_on_c, 8, 67, 0
10, 549240, Note_on_c, 8, 69, 127
10, 549324, Note_on_c, 8, 69, 0
10, 549360, Note_on_c, 8, 67, 127
10, 549444, Note_on_c, 8, 67, 0
10, 549480, Note_on_c, 8, 65, 127
10, 549564, Note_on_c, 8, 65, 0
10, 549600, Note_on_c, 8, 64, 127
10, 549684, Note_on_c, 8, 64, 0
10, 549720, Note_on_c, 8, 65, 127
10, 549804, Note_on_c, 8, 65, 0
10, 549840, Note_on_c, 8, 64, 127
10, 549924, Note_on_c, 8, 64, 0
10, 549960, Note_on_c, 8, 62, 127
10, 550044, Note_on_c, 8, 62, 0
10, 550080, Note_on_c, 8, 60, 127
10, 550200, Note_on_c, 8, 60, 0
10, 550320, Note_on_c, 8, 67, 127
10, 550440, Note_on_c, 8, 67, 0
10, 550560, Note_on_c, 8, 72, 127
10, 550680, Note_on_c, 8, 72, 0
10, 550800, Note_on_c, 8, 67, 127
10, 550920, Note_on_c, 8, 67, 0
10, 551040, Note_on_c, 8, 72, 127
10, 551160, Note_on_c, 8, 72, 0
10, 551280, Note_on_c, 8, 67, 127
10, 551400, Note_on_c, 8, 67, 0
10, 551520, Note_on_c, 8, 72, 127
10, 551640, Note_on_c, 8, 72, 0
10, 551760, Note_on_c, 8, 67, 127
10, 551880, Note_on_c, 8, 67, 0
10, 552000, Note_on_c, 8, 72, 127
10, 552480, Note_on_c, 8, 72, 0
10, 552960, Note_on_c, 8, 60, 127
10, 553344, Note_on_c, 8, 60, 0
10, 553440, Note_on_c, 8, 72, 127
10, 553824, Note_on_c, 8, 72, 0
10, 553920, Note_on_c, 8, 60, 127
10, 554513, Note_on_c, 8, 60, 0
10, 554880, Note_on_c, 8, 60, 127
10, 555288, Note_on_c, 8, 60, 0
10, 555360, Note_on_c, 8, 72, 127
10, 555768, Note_on_c, 8, 72, 0
10, 555840, Note_on_c, 8, 60, 127
10, 556524, Note_on_c, 8, 60, 0
10, 556524, End_track
11, 0, Start_track
11, 0, Title_t, "Celli"
11, 0, Program_c, 10, 48
11, 0, Control_c, 10, 7, 110
11, 0, Control_c, 10, 10, 105
11, 3840, Note_on_c, 10, 53, 50
11, 4800, Note_on_c, 10, 53, 0
11, 4800, Note_on_c, 10, 52, 50
11, 5760, Note_on_c, 10, 52, 0
11, 5760, Note_on_c, 10, 50, 50
11, 6000, Note_on_c, 10, 50, 0
11, 6240, Note_on_c, 10, 48, 50
11, 6480, Note_on_c, 10, 48, 0
11, 6720, Note_on_c, 10, 43, 50
11, 6960, Note_on_c, 10, 43, 0
11, 8400, Note_on_c, 10, 48, 100
11, 8480, Note_on_c, 10, 48, 0
11, 8480, Note_on_c, 10, 47, 100
11, 8560, Note_on_c, 10, 47, 0
11, 8560, Note_on_c, 10, 45, 100
11, 8640, Note_on_c, 10, 45, 0
11, 8640, Note_on_c, 10, 43, 100
11, 9120, Note_on_c, 10, 43, 0
11, 9360, Note_on_c, 10, 62, 100
11, 9420, Note_on_c, 10, 62, 0
11, 9420, Note_on_c, 10, 60, 100
11, 9480, Note_on_c, 10, 60, 0
11, 9480, Note_on_c, 10, 59, 100
11, 9540, Note_on_c, 10, 59, 0
11, 9540, Note_on_c, 10, 57, 100
11, 9600, Note_on_c, 10, 57, 0
11, 9600, Note_on_c, 10, 55, 100
11, 10080, Note_on_c, 10, 55, 0
11, 10320, Note_on_c, 10, 55, 100
11, 10380, Note_on_c, 10, 55, 0
11, 10380, Note_on_c, 10, 53, 100
11, 10440, Note_on_c, 10, 53, 0
11, 10440, Note_on_c, 10, 52, 100
11, 10500, Note_on_c, 10, 52, 0
11, 10500, Note_on_c, 10, 50, 100
11, 10560, Note_on_c, 10, 50, 0
11, 10560, Note_on_c, 10, 48, 100
11, 11040, Note_on_c, 10, 48, 0
11, 11280, Note_on_c, 10, 48, 100
11, 11340, Note_on_c, 10, 48, 0
11, 11340, Note_on_c, 10, 47, 100
11, 11400, Note_on_c, 10, 47, 0
11, 11400, Note_on_c, 10, 45, 100
11, 11460, Note_on_c, 10, 45, 0
11, 11460, Note_on_c, 10, 43, 100
11, 11520, Note_on_c, 10, 43, 0
11, 11520, Note_on_c, 10, 41, 100
11, 11640, Note_on_c, 10, 41, 0
11, 11760, Note_on_c, 10, 53, 127
11, 11880, Note_on_c, 10, 53, 0
11, 12000, Note_on_c, 10, 53, 127
11, 12120, Note_on_c, 10, 53, 0
11, 12240, Note_on_c, 10, 53, 127
11, 12360, Note_on_c, 10, 53, 0
11, 12480, Note_on_c, 10, 53, 127
11, 12600, Note_on_c, 10, 53, 0
11, 12720, Note_on_c, 10, 53, 127
11, 12840, Note_on_c, 10, 53, 0
11, 12960, Note_on_c, 10, 53, 127
11, 13080, Note_on_c, 10, 53, 0
11, 13200, Note_on_c, 10, 53, 127
11, 13320, Note_on_c, 10, 53, 0
11, 13440, Note_on_c, 10, 55, 127
11, 13560, Note_on_c, 10, 55, 0
11, 13680, Note_on_c, 10, 55, 127
11, 13800, Note_on_c, 10, 55, 0
11, 13920, Note_on_c, 10, 43, 127
11, 14040, Note_on_c, 10, 43, 0
11, 14160, Note_on_c, 10, 43, 127
11, 14280, Note_on_c, 10, 43, 0
11, 14400, Note_on_c, 10, 48, 127
11, 14520, Note_on_c, 10, 48, 0
11, 14640, Note_on_c, 10, 41, 127
11, 14760, Note_on_c, 10, 41, 0
11, 14880, Note_on_c, 10, 53, 127
11, 15000, Note_on_c, 10, 53, 0
11, 15120, Note_on_c, 10, 53, 127
11, 15240, Note_on_c, 10, 53, 0
11, 15360, Note_on_c, 10, 53, 127
11, 15480, Note_on_c, 10, 53, 0
11, 15600, Note_on_c, 10, 53, 127
11, 15720, Note_on_c, 10, 53, 0
11, 15840, Note_on_c, 10, 53, 127
11, 15960, Note_on_c, 10, 53, 0
11, 16080, Note_on_c, 10, 53, 127
11, 16200, Note_on_c, 10, 53, 0
11, 16320, Note_on_c, 10, 55, 127
11, 16440, Note_on_c, 10, 55, 0
11, 16560, Note_on_c, 10, 55, 127
11, 16680, Note_on_c, 10, 55, 0
11, 16800, Note_on_c, 10, 43, 127
11, 16920, Note_on_c, 10, 43, 0
11, 17040, Note_on_c, 10, 43, 127
11, 17160, Note_on_c, 10, 43, 0
11, 17280, Note_on_c, 10, 48, 127
11, 17520, Note_on_c, 10, 48, 0
11, 17760, Note_on_c, 10, 60, 127
11, 17985, Note_on_c, 10, 60, 0
11, 18120, Note_on_c, 10, 60, 127
11, 18240, Note_on_c, 10, 60, 0
11, 18240, Note_on_c, 10, 60, 127
11, 18936, Note_on_c, 10, 60, 0
11, 18960, Note_on_c, 10, 59, 127
11, 19080, Note_on_c, 10, 59, 0
11, 19080, Note_on_c, 10, 57, 127
11, 19200, Note_on_c, 10, 57, 0
11, 19200, Note_on_c, 10, 55, 127
11, 19284, Note_on_c, 10, 55, 0
11, 19320, Note_on_c, 10, 57, 127
11, 19404, Note_on_c, 10, 57, 0
11, 19440, Note_on_c, 10, 55, 127
11, 19524, Note_on_c, 10, 55, 0
11, 19560, Note_on_c, 10, 53, 127
11, 19644, Note_on_c, 10, 53, 0
11, 19680, Note_on_c, 10, 52, 127
11, 19764, Note_on_c, 10, 52, 0
11, 19800, Note_on_c, 10, 53, 127
11, 19884, Note_on_c, 10, 53, 0
11, 19920, Note_on_c, 10, 52, 127
11, 20004, Note_on_c, 10, 52, 0
11, 20040, Note_on_c, 10, 50, 127
11, 20124, Note_on_c, 10, 50, 0
11, 20160, Note_on_c, 10, 48, 127
11, 20232, Note_on_c, 10, 48, 0
11, 20280, Note_on_c, 10, 43, 127
11, 20352, Note_on_c, 10, 43, 0
11, 20400, Note_on_c, 10, 45, 127
11, 20472, Note_on_c, 10, 45, 0
11, 20520, Note_on_c, 10, 47, 127
11, 20592, Note_on_c, 10, 47, 0
11, 20640, Note_on_c, 10, 48, 127
11, 20712, Note_on_c, 10, 48, 0
11, 20760, Note_on_c, 10, 47, 127
11, 20832, Note_on_c, 10, 47, 0
11, 20880, Note_on_c, 10, 48, 127
11, 20952, Note_on_c, 10, 48, 0
11, 21000, Note_on_c, 10, 50, 127
11, 21072, Note_on_c, 10, 50, 0
11, 21120, Note_on_c, 10, 52, 127
11, 21192, Note_on_c, 10, 52, 0
11, 21240, Note_on_c, 10, 50, 127
11, 21312, Note_on_c, 10, 50, 0
11, 21360, Note_on_c, 10, 48, 127
11, 21432, Note_on_c, 10, 48, 0
11, 21480, Note_on_c, 10, 50, 127
11, 21552, Note_on_c, 10, 50, 0
11, 21600, Note_on_c, 10, 52, 127
11, 21672, Note_on_c, 10, 52, 0
11, 21720, Note_on_c, 10, 50, 127
11, 21792, Note_on_c, 10, 50, 0
11, 21840, Note_on_c, 10, 52, 127
11, 21912, Note_on_c, 10, 52, 0
11, 21960, Note_on_c, 10, 53, 127
11, 22032, Note_on_c, 10, 53, 0
11, 22080, Note_on_c, 10, 55, 127
11, 22152, Note_on_c, 10, 55, 0
11, 22200, Note_on_c, 10, 54, 127
11, 22272, Note_on_c, 10, 54, 0
11, 22320, Note_on_c, 10, 55, 127
11, 22392, Note_on_c, 10, 55, 0
11, 22440, Note_on_c, 10, 57, 127
11, 22512, Note_on_c, 10, 57, 0
11, 22560, Note_on_c, 10, 59, 127
11, 22632, Note_on_c, 10, 59, 0
11, 22680, Note_on_c, 10, 55, 127
11, 22752, Note_on_c, 10, 55, 0
11, 22800, Note_on_c, 10, 57, 127
11, 22872, Note_on_c, 10, 57, 0
11, 22920, Note_on_c, 10, 59, 127
11, 22992, Note_on_c, 10, 59, 0
11, 23040, Note_on_c, 10, 60, 127
11, 23280, Note_on_c, 10, 60, 0
11, 23520, Note_on_c, 10, 60, 127
11, 23745, Note_on_c, 10, 60, 0
11, 23880, Note_on_c, 10, 60, 127
11, 24000, Note_on_c, 10, 60, 0
11, 24000, Note_on_c, 10, 60, 127
11, 24600, Note_on_c, 10, 60, 0
11, 24720, Note_on_c, 10, 59, 127
11, 24840, Note_on_c, 10, 59, 0
11, 24840, Note_on_c, 10, 57, 127
11, 24960, Note_on_c, 10, 57, 0
11, 24960, Note_on_c, 10, 55, 127
11, 25044, Note_on_c, 10, 55, 0
11, 25080, Note_on_c, 10, 57, 127
11, 25164, Note_on_c, 10, 57, 0
11, 25200, Note_on_c, 10, 55, 127
11, 25284, Note_on_c, 10, 55, 0
11, 25320, Note_on_c, 10, 53, 127
11, 25404, Note_on_c, 10, 53, 0
11, 25440, Note_on_c, 10, 52, 127
11, 25524, Note_on_c, 10, 52, 0
11, 25560, Note_on_c, 10, 53, 127
11, 25644, Note_on_c, 10, 53, 0
11, 25680, Note_on_c, 10, 52, 127
11, 25764, Note_on_c, 10, 52, 0
11, 25800, Note_on_c, 10, 50, 127
11, 25884, Note_on_c, 10, 50, 0
11, 25920, Note_on_c, 10, 48, 127
11, 26040, Note_on_c, 10, 48, 0
11, 26160, Note_on_c, 10, 55, 127
11, 26280, Note_on_c, 10, 55, 0
11, 26400, Note_on_c, 10, 60, 127
11, 26520, Note_on_c, 10, 60, 0
11, 26640, Note_on_c, 10, 55, 127
11, 26760, Note_on_c, 10, 55, 0
11, 26880, Note_on_c, 10, 60, 127
11, 27000, Note_on_c, 10, 60, 0
11, 27120, Note_on_c, 10, 55, 127
11, 27240, Note_on_c, 10, 55, 0
11, 27360, Note_on_c, 10, 60, 127
11, 27480, Note_on_c, 10, 60, 0
11, 27600, Note_on_c, 10, 55, 127
11, 27720, Note_on_c, 10, 55, 0
11, 27840, Note_on_c, 10, 60, 127
11, 27924, Note_on_c, 10, 60, 0
11, 27960, Note_on_c, 10, 59, 127
11, 28044, Note_on_c, 10, 59, 0
11, 28080, Note_on_c, 10, 57, 127
11, 28164, Note_on_c, 10, 57, 0
11, 28200, Note_on_c, 10, 55, 127
11, 28284, Note_on_c, 10, 55, 0
11, 28320, Note_on_c, 10, 60, 127
11, 28404, Note_on_c, 10, 60, 0
11, 28440, Note_on_c, 10, 59, 127
11, 28524, Note_on_c, 10, 59, 0
11, 28560, Note_on_c, 10, 57, 127
11, 28644, Note_on_c, 10, 57, 0
11, 28680, Note_on_c, 10, 55, 127
11, 28764, Note_on_c, 10, 55, 0
11, 28800, Note_on_c, 10, 60, 127
11, 28884, Note_on_c, 10, 60, 0
11, 28920, Note_on_c, 10, 59, 127
11, 29004, Note_on_c, 10, 59, 0
11, 29040, Note_on_c, 10, 57, 127
11, 29124, Note_on_c, 10, 57, 0
11, 29160, Note_on_c, 10, 55, 127
11, 29244, Note_on_c, 10, 55, 0
11, 29280, Note_on_c, 10, 53, 127
11, 29364, Note_on_c, 10, 53, 0
11, 29400, Note_on_c, 10, 52, 127
11, 29484, Note_on_c, 10, 52, 0
11, 29520, Note_on_c, 10, 50, 127
11, 29604, Note_on_c, 10, 50, 0
11, 29640, Note_on_c, 10, 48, 127
11, 29724, Note_on_c, 10, 48, 0
11, 29760, Note_on_c, 10, 43, 127
11, 29880, Note_on_c, 10, 43, 0
11, 30000, Note_on_c, 10, 55, 127
11, 30120, Note_on_c, 10, 55, 0
11, 30240, Note_on_c, 10, 55, 127
11, 30360, Note_on_c, 10, 55, 0
11, 30480, Note_on_c, 10, 55, 127
11, 30600, Note_on_c, 10, 55, 0
11, 30720, Note_on_c, 10, 55, 127
11, 30840, Note_on_c, 10, 55, 0
11, 30960, Note_on_c, 10, 55, 127
11, 31080, Note_on_c, 10, 55, 0
11, 31200, Note_on_c, 10, 55, 127
11, 31320, Note_on_c, 10, 55, 0
11, 31440, Note_on_c, 10, 55, 127
11, 31560, Note_on_c, 10, 55, 0
11, 31680, Note_on_c, 10, 55, 127
11, 31800, Note_on_c, 10, 55, 0
11, 31920, Note_on_c, 10, 55, 127
11, 32040, Note_on_c, 10, 55, 0
11, 32160, Note_on_c, 10, 55, 127
11, 32280, Note_on_c, 10, 55, 0
11, 32400, Note_on_c, 10, 55, 127
11, 32520, Note_on_c, 10, 55, 0
11, 32640, Note_on_c, 10, 55, 127
11, 33120, Note_on_c, 10, 55, 0
11, 43200, Note_on_c, 10, 55, 50
11, 44160, Note_on_c, 10, 55, 0
11, 44160, Note_on_c, 10, 57, 50
11, 45120, Note_on_c, 10, 57, 0
11, 45120, Note_on_c, 10, 60, 50
11, 46318, Note_on_c, 10, 60, 0
11, 46320, Note_on_c, 10, 62, 50
11, 46440, Note_on_c, 10, 62, 0
11, 46440, Note_on_c, 10, 60, 50
11, 46560, Note_on_c, 10, 60, 0
11, 46560, Note_on_c, 10, 59, 50
11, 46680, Note_on_c, 10, 59, 0
11, 46800, Note_on_c, 10, 57, 50
11, 46920, Note_on_c, 10, 57, 0
11, 47040, Note_on_c, 10, 55, 50
11, 47520, Note_on_c, 10, 55, 0
11, 47520, Note_on_c, 10, 60, 50
11, 48238, Note_on_c, 10, 60, 0
11, 48240, Note_on_c, 10, 62, 50
11, 48360, Note_on_c, 10, 62, 0
11, 48360, Note_on_c, 10, 64, 50
11, 48480, Note_on_c, 10, 64, 0
11, 48480, Note_on_c, 10, 65, 50
11, 48600, Note_on_c, 10, 65, 0
11, 48720, Note_on_c, 10, 62, 50
11, 49200, Note_on_c, 10, 62, 0
11, 49200, Note_on_c, 10, 57, 50
11, 49680, Note_on_c, 10, 57, 0
11, 49680, Note_on_c, 10, 53, 50
11, 49800, Note_on_c, 10, 53, 0
11, 49920, Note_on_c, 10, 52, 100
11, 50040, Note_on_c, 10, 52, 0
11, 50160, Note_on_c, 10, 60, 100
11, 50280, Note_on_c, 10, 60, 0
11, 50400, Note_on_c, 10, 57, 100
11, 50520, Note_on_c, 10, 57, 0
11, 50640, Note_on_c, 10, 55, 100
11, 50760, Note_on_c, 10, 55, 0
11, 50880, Note_on_c, 10, 53, 100
11, 51000, Note_on_c, 10, 53, 0
11, 51120, Note_on_c, 10, 52, 100
11, 51240, Note_on_c, 10, 52, 0
11, 51360, Note_on_c, 10, 50, 100
11, 51480, Note_on_c, 10, 50, 0
11, 51600, Note_on_c, 10, 48, 100
11, 51720, Note_on_c, 10, 48, 0
11, 51840, Note_on_c, 10, 47, 100
11, 51960, Note_on_c, 10, 47, 0
11, 52080, Note_on_c, 10, 43, 100
11, 52200, Note_on_c, 10, 43, 0
11, 52320, Note_on_c, 10, 45, 100
11, 52440, Note_on_c, 10, 45, 0
11, 52560, Note_on_c, 10, 47, 100
11, 52680, Note_on_c, 10, 47, 0
11, 52800, Note_on_c, 10, 48, 100
11, 53280, Note_on_c, 10, 48, 0
11, 54000, Note_on_c, 10, 54, 100
11, 54240, Note_on_c, 10, 54, 0
11, 54240, Note_on_c, 10, 55, 100
11, 54480, Note_on_c, 10, 55, 0
11, 54480, Note_on_c, 10, 57, 100
11, 54720, Note_on_c, 10, 57, 0
11, 54720, Note_on_c, 10, 60, 100
11, 54780, Note_on_c, 10, 60, 0
11, 54780, Note_on_c, 10, 59, 100
11, 54840, Note_on_c, 10, 59, 0
11, 54840, Note_on_c, 10, 60, 100
11, 54900, Note_on_c, 10, 60, 0
11, 54900, Note_on_c, 10, 59, 100
11, 54960, Note_on_c, 10, 59, 0
11, 55080, Note_on_c, 10, 60, 100
11, 55176, Note_on_c, 10, 60, 0
11, 55200, Note_on_c, 10, 62, 100
11, 55584, Note_on_c, 10, 62, 0
11, 55920, Note_on_c, 10, 52, 100
11, 56160, Note_on_c, 10, 52, 0
11, 56160, Note_on_c, 10, 54, 100
11, 56400, Note_on_c, 10, 54, 0
11, 56400, Note_on_c, 10, 55, 100
11, 56640, Note_on_c, 10, 55, 0
11, 56640, Note_on_c, 10, 59, 100
11, 56700, Note_on_c, 10, 59, 0
11, 56700, Note_on_c, 10, 57, 100
11, 56760, Note_on_c, 10, 57, 0
11, 56760, Note_on_c, 10, 59, 100
11, 56820, Note_on_c, 10, 59, 0
11, 56820, Note_on_c, 10, 57, 100
11, 56880, Note_on_c, 10, 57, 0
11, 57000, Note_on_c, 10, 59, 100
11, 57096, Note_on_c, 10, 59, 0
11, 57120, Note_on_c, 10, 60, 100
11, 57504, Note_on_c, 10, 60, 0
11, 57840, Note_on_c, 10, 50, 100
11, 58080, Note_on_c, 10, 50, 0
11, 58080, Note_on_c, 10, 52, 100
11, 58320, Note_on_c, 10, 52, 0
11, 58320, Note_on_c, 10, 54, 100
11, 58560, Note_on_c, 10, 54, 0
11, 58560, Note_on_c, 10, 57, 100
11, 58620, Note_on_c, 10, 57, 0
11, 58620, Note_on_c, 10, 55, 101
11, 58680, Note_on_c, 10, 55, 0
11, 58680, Note_on_c, 10, 57, 103
11, 58740, Note_on_c, 10, 57, 0
11, 58740, Note_on_c, 10, 55, 105
11, 58800, Note_on_c, 10, 55, 0
11, 58920, Note_on_c, 10, 57, 110
11, 59016, Note_on_c, 10, 57, 0
11, 59040, Note_on_c, 10, 59, 113
11, 59424, Note_on_c, 10, 59, 0
11, 59760, Note_on_c, 10, 52, 127
11, 59880, Note_on_c, 10, 52, 0
11, 60000, Note_on_c, 10, 64, 127
11, 60120, Note_on_c, 10, 64, 0
11, 60240, Note_on_c, 10, 52, 127
11, 60360, Note_on_c, 10, 52, 0
11, 60480, Note_on_c, 10, 50, 127
11, 60930, Note_on_c, 10, 50, 0
11, 61440, Note_on_c, 10, 62, 127
11, 61665, Note_on_c, 10, 62, 0
11, 61800, Note_on_c, 10, 62, 127
11, 61920, Note_on_c, 10, 62, 0
11, 61920, Note_on_c, 10, 62, 127
11, 62640, Note_on_c, 10, 62, 0
11, 62640, Note_on_c, 10, 61, 127
11, 62724, Note_on_c, 10, 61, 0
11, 62760, Note_on_c, 10, 59, 127
11, 62844, Note_on_c, 10, 59, 0
11, 62880, Note_on_c, 10, 57, 127
11, 62964, Note_on_c, 10, 57, 0
11, 63000, Note_on_c, 10, 59, 127
11, 63084, Note_on_c, 10, 59, 0
11, 63120, Note_on_c, 10, 57, 127
11, 63204, Note_on_c, 10, 57, 0
11, 63240, Note_on_c, 10, 55, 127
11, 63324, Note_on_c, 10, 55, 0
11, 63360, Note_on_c, 10, 54, 127
11, 63444, Note_on_c, 10, 54, 0
11, 63480, Note_on_c, 10, 55, 127
11, 63564, Note_on_c, 10, 55, 0
11, 63600, Note_on_c, 10, 54, 127
11, 63684, Note_on_c, 10, 54, 0
11, 63720, Note_on_c, 10, 52, 127
11, 63804, Note_on_c, 10, 52, 0
11, 63840, Note_on_c, 10, 50, 127
11, 64080, Note_on_c, 10, 50, 0
11, 64320, Note_on_c, 10, 62, 127
11, 64545, Note_on_c, 10, 62, 0
11, 64680, Note_on_c, 10, 62, 127
11, 64800, Note_on_c, 10, 62, 0
11, 64800, Note_on_c, 10, 62, 127
11, 65520, Note_on_c, 10, 62, 0
11, 65520, Note_on_c, 10, 61, 127
11, 65604, Note_on_c, 10, 61, 0
11, 65640, Note_on_c, 10, 59, 127
11, 65724, Note_on_c, 10, 59, 0
11, 65760, Note_on_c, 10, 57, 127
11, 65844, Note_on_c, 10, 57, 0
11, 65880, Note_on_c, 10, 59, 127
11, 65964, Note_on_c, 10, 59, 0
11, 66000, Note_on_c, 10, 57, 127
11, 66084, Note_on_c, 10, 57, 0
11, 66120, Note_on_c, 10, 55, 127
11, 66204, Note_on_c, 10, 55, 0
11, 66240, Note_on_c, 10, 54, 127
11, 66324, Note_on_c, 10, 54, 0
11, 66360, Note_on_c, 10, 55, 127
11, 66444, Note_on_c, 10, 55, 0
11, 66480, Note_on_c, 10, 54, 127
11, 66564, Note_on_c, 10, 54, 0
11, 66600, Note_on_c, 10, 52, 127
11, 66684, Note_on_c, 10, 52, 0
11, 66720, Note_on_c, 10, 50, 127
11, 66804, Note_on_c, 10, 50, 0
11, 66840, Note_on_c, 10, 52, 127
11, 66924, Note_on_c, 10, 52, 0
11, 66960, Note_on_c, 10, 54, 127
11, 67044, Note_on_c, 10, 54, 0
11, 67080, Note_on_c, 10, 55, 127
11, 67164, Note_on_c, 10, 55, 0
11, 67200, Note_on_c, 10, 57, 127
11, 67284, Note_on_c, 10, 57, 0
11, 67320, Note_on_c, 10, 59, 127
11, 67404, Note_on_c, 10, 59, 0
11, 67440, Note_on_c, 10, 57, 127
11, 67524, Note_on_c, 10, 57, 0
11, 67560, Note_on_c, 10, 55, 127
11, 67644, Note_on_c, 10, 55, 0
11, 67680, Note_on_c, 10, 54, 127
11, 67764, Note_on_c, 10, 54, 0
11, 67800, Note_on_c, 10, 55, 127
11, 67884, Note_on_c, 10, 55, 0
11, 67920, Note_on_c, 10, 57, 127
11, 68004, Note_on_c, 10, 57, 0
11, 68040, Note_on_c, 10, 55, 127
11, 68124, Note_on_c, 10, 55, 0
11, 68160, Note_on_c, 10, 54, 127
11, 68280, Note_on_c, 10, 54, 0
11, 68400, Note_on_c, 10, 60, 127
11, 68520, Note_on_c, 10, 60, 0
11, 68640, Note_on_c, 10, 57, 127
11, 68760, Note_on_c, 10, 57, 0
11, 68880, Note_on_c, 10, 54, 127
11, 69000, Note_on_c, 10, 54, 0
11, 69120, Note_on_c, 10, 50, 127
11, 69600, Note_on_c, 10, 50, 0
11, 70080, Note_on_c, 10, 43, 50
11, 70560, Note_on_c, 10, 43, 0
11, 71040, Note_on_c, 10, 52, 50
11, 71520, Note_on_c, 10, 52, 0
11, 72000, Note_on_c, 10, 45, 50
11, 72480, Note_on_c, 10, 45, 0
11, 72960, Note_on_c, 10, 50, 50
11, 73440, Note_on_c, 10, 50, 0
11, 73920, Note_on_c, 10, 55, 50
11, 74160, Note_on_c, 10, 55, 0
11, 74400, Note_on_c, 10, 47, 50
11, 74640, Note_on_c, 10, 47, 0
11, 74880, Note_on_c, 10, 48, 50
11, 75120, Note_on_c, 10, 48, 0
11, 75360, Note_on_c, 10, 49, 50
11, 75600, Note_on_c, 10, 49, 0
11, 75840, Note_on_c, 10, 50, 50
11, 76080, Note_on_c, 10, 50, 0
11, 76320, Note_on_c, 10, 42, 50
11, 76800, Note_on_c, 10, 42, 0
11, 76800, Note_on_c, 10, 43, 50
11, 77280, Note_on_c, 10, 43, 0
11, 77280, Note_on_c, 10, 44, 50
11, 77760, Note_on_c, 10, 44, 0
11, 77760, Note_on_c, 10, 45, 50
11, 78096, Note_on_c, 10, 45, 0
11, 78240, Note_on_c, 10, 48, 50
11, 78960, Note_on_c, 10, 48, 0
11, 78960, Note_on_c, 10, 45, 50
11, 79080, Note_on_c, 10, 45, 0
11, 79200, Note_on_c, 10, 50, 50
11, 79320, Note_on_c, 10, 50, 0
11, 79440, Note_on_c, 10, 48, 50
11, 79560, Note_on_c, 10, 48, 0
11, 79680, Note_on_c, 10, 47, 50
11, 80640, Note_on_c, 10, 47, 0
11, 80640, Note_on_c, 10, 48, 50
11, 81120, Note_on_c, 10, 48, 0
11, 81120, Note_on_c, 10, 49, 50
11, 81600, Note_on_c, 10, 49, 0
11, 81600, Note_on_c, 10, 50, 50
11, 83488, Note_on_c, 10, 50, 0
11, 83520, Note_on_c, 10, 50, 50
11, 85438, Note_on_c, 10, 50, 0
11, 85440, Note_on_c, 10, 50, 50
11, 87358, Note_on_c, 10, 50, 0
11, 87360, Note_on_c, 10, 50, 50
11, 89278, Note_on_c, 10, 50, 0
11, 89280, Note_on_c, 10, 43, 127
11, 89760, Note_on_c, 10, 43, 0
11, 90720, Note_on_c, 10, 60, 127
11, 91056, Note_on_c, 10, 60, 0
11, 91200, Note_on_c, 10, 57, 127
11, 91536, Note_on_c, 10, 57, 0
11, 91680, Note_on_c, 10, 62, 127
11, 92016, Note_on_c, 10, 62, 0
11, 92640, Note_on_c, 10, 64, 127
11, 92976, Note_on_c, 10, 64, 0
11, 93120, Note_on_c, 10, 60, 127
11, 93456, Note_on_c, 10, 60, 0
11, 93600, Note_on_c, 10, 66, 127
11, 93936, Note_on_c, 10, 66, 0
11, 94560, Note_on_c, 10, 55, 127
11, 94896, Note_on_c, 10, 55, 0
11, 95040, Note_on_c, 10, 52, 127
11, 95376, Note_on_c, 10, 52, 0
11, 95520, Note_on_c, 10, 57, 127
11, 96084, Note_on_c, 10, 57, 0
11, 96120, Note_on_c, 10, 55, 127
11, 96204, Note_on_c, 10, 55, 0
11, 96240, Note_on_c, 10, 54, 127
11, 96324, Note_on_c, 10, 54, 0
11, 96360, Note_on_c, 10, 52, 127
11, 96444, Note_on_c, 10, 52, 0
11, 96480, Note_on_c, 10, 54, 127
11, 96564, Note_on_c, 10, 54, 0
11, 96600, Note_on_c, 10, 52, 127
11, 96684, Note_on_c, 10, 52, 0
11, 96720, Note_on_c, 10, 50, 127
11, 96804, Note_on_c, 10, 50, 0
11, 96840, Note_on_c, 10, 48, 127
11, 96924, Note_on_c, 10, 48, 0
11, 96960, Note_on_c, 10, 47, 127
11, 97296, Note_on_c, 10, 47, 0
11, 97440, Note_on_c, 10, 55, 127
11, 97776, Note_on_c, 10, 55, 0
11, 98400, Note_on_c, 10, 64, 127
11, 98736, Note_on_c, 10, 64, 0
11, 98880, Note_on_c, 10, 60, 127
11, 99216, Note_on_c, 10, 60, 0
11, 99360, Note_on_c, 10, 66, 127
11, 99924, Note_on_c, 10, 66, 0
11, 99960, Note_on_c, 10, 64, 127
11, 100044, Note_on_c, 10, 64, 0
11, 100080, Note_on_c, 10, 63, 127
11, 100164, Note_on_c, 10, 63, 0
11, 100200, Note_on_c, 10, 61, 127
11, 100284, Note_on_c, 10, 61, 0
11, 100320, Note_on_c, 10, 63, 127
11, 100404, Note_on_c, 10, 63, 0
11, 100440, Note_on_c, 10, 61, 127
11, 100524, Note_on_c, 10, 61, 0
11, 100560, Note_on_c, 10, 59, 127
11, 100644, Note_on_c, 10, 59, 0
11, 100680, Note_on_c, 10, 57, 127
11, 100764, Note_on_c, 10, 57, 0
11, 100800, Note_on_c, 10, 55, 127
11, 101136, Note_on_c, 10, 55, 0
11, 101280, Note_on_c, 10, 64, 127
11, 101616, Note_on_c, 10, 64, 0
11, 102240, Note_on_c, 10, 60, 127
11, 102576, Note_on_c, 10, 60, 0
11, 102720, Note_on_c, 10, 57, 127
11, 103056, Note_on_c, 10, 57, 0
11, 103200, Note_on_c, 10, 62, 127
11, 103764, Note_on_c, 10, 62, 0
11, 103800, Note_on_c, 10, 60, 127
11, 103884, Note_on_c, 10, 60, 0
11, 103920, Note_on_c, 10, 59, 127
11, 104004, Note_on_c, 10, 59, 0
11, 104040, Note_on_c, 10, 57, 127
11, 104124, Note_on_c, 10, 57, 0
11, 104160, Note_on_c, 10, 59, 127
11, 104244, Note_on_c, 10, 59, 0
11, 104280, Note_on_c, 10, 57, 127
11, 104364, Note_on_c, 10, 57, 0
11, 104400, Note_on_c, 10, 55, 127
11, 104484, Note_on_c, 10, 55, 0
11, 104520, Note_on_c, 10, 53, 127
11, 104604, Note_on_c, 10, 53, 0
11, 104640, Note_on_c, 10, 52, 127
11, 104808, Note_on_c, 10, 52, 0
11, 104880, Note_on_c, 10, 60, 127
11, 104964, Note_on_c, 10, 60, 0
11, 105000, Note_on_c, 10, 59, 127
11, 105084, Note_on_c, 10, 59, 0
11, 105120, Note_on_c, 10, 60, 127
11, 105204, Note_on_c, 10, 60, 0
11, 105240, Note_on_c, 10, 59, 127
11, 105324, Note_on_c, 10, 59, 0
11, 105360, Note_on_c, 10, 57, 127
11, 105444, Note_on_c, 10, 57, 0
11, 105480, Note_on_c, 10, 55, 127
11, 105564, Note_on_c, 10, 55, 0
11, 105600, Note_on_c, 10, 60, 127
11, 105768, Note_on_c, 10, 60, 0
11, 105840, Note_on_c, 10, 64, 127
11, 105924, Note_on_c, 10, 64, 0
11, 105960, Note_on_c, 10, 62, 127
11, 106044, Note_on_c, 10, 62, 0
11, 106080, Note_on_c, 10, 64, 127
11, 106164, Note_on_c, 10, 64, 0
11, 106200, Note_on_c, 10, 62, 127
11, 106284, Note_on_c, 10, 62, 0
11, 106320, Note_on_c, 10, 60, 127
11, 106404, Note_on_c, 10, 60, 0
11, 106440, Note_on_c, 10, 59, 127
11, 106524, Note_on_c, 10, 59, 0
11, 106560, Note_on_c, 10, 64, 127
11, 106728, Note_on_c, 10, 64, 0
11, 106800, Note_on_c, 10, 60, 127
11, 106884, Note_on_c, 10, 60, 0
11, 106920, Note_on_c, 10, 59, 127
11, 107004, Note_on_c, 10, 59, 0
11, 107040, Note_on_c, 10, 60, 127
11, 107124, Note_on_c, 10, 60, 0
11, 107160, Note_on_c, 10, 59, 127
11, 107244, Note_on_c, 10, 59, 0
11, 107280, Note_on_c, 10, 57, 127
11, 107364, Note_on_c, 10, 57, 0
11, 107400, Note_on_c, 10, 55, 127
11, 107484, Note_on_c, 10, 55, 0
11, 107520, Note_on_c, 10, 60, 127
11, 107688, Note_on_c, 10, 60, 0
11, 107760, Note_on_c, 10, 57, 127
11, 107844, Note_on_c, 10, 57, 0
11, 107880, Note_on_c, 10, 55, 127
11, 107964, Note_on_c, 10, 55, 0
11, 108000, Note_on_c, 10, 57, 127
11, 108084, Note_on_c, 10, 57, 0
11, 108120, Note_on_c, 10, 55, 127
11, 108204, Note_on_c, 10, 55, 0
11, 108240, Note_on_c, 10, 54, 127
11, 108324, Note_on_c, 10, 54, 0
11, 108360, Note_on_c, 10, 52, 127
11, 108444, Note_on_c, 10, 52, 0
11, 108480, Note_on_c, 10, 54, 127
11, 108600, Note_on_c, 10, 54, 0
11, 108720, Note_on_c, 10, 50, 127
11, 108840, Note_on_c, 10, 50, 0
11, 108960, Note_on_c, 10, 52, 127
11, 109080, Note_on_c, 10, 52, 0
11, 109200, Note_on_c, 10, 54, 127
11, 109320, Note_on_c, 10, 54, 0
11, 109440, Note_on_c, 10, 55, 127
11, 109560, Note_on_c, 10, 55, 0
11, 109680, Note_on_c, 10, 55, 127
11, 109800, Note_on_c, 10, 55, 0
11, 109920, Note_on_c, 10, 55, 127
11, 110040, Note_on_c, 10, 55, 0
11, 110160, Note_on_c, 10, 55, 127
11, 110280, Note_on_c, 10, 55, 0
11, 110400, Note_on_c, 10, 55, 127
11, 110520, Note_on_c, 10, 55, 0
11, 110640, Note_on_c, 10, 55, 127
11, 110760, Note_on_c, 10, 55, 0
11, 110880, Note_on_c, 10, 55, 127
11, 111000, Note_on_c, 10, 55, 0
11, 111120, Note_on_c, 10, 43, 127
11, 111240, Note_on_c, 10, 43, 0
11, 111360, Note_on_c, 10, 52, 127
11, 111480, Note_on_c, 10, 52, 0
11, 111600, Note_on_c, 10, 52, 127
11, 111720, Note_on_c, 10, 52, 0
11, 111840, Note_on_c, 10, 52, 127
11, 111960, Note_on_c, 10, 52, 0
11, 112080, Note_on_c, 10, 52, 127
11, 112200, Note_on_c, 10, 52, 0
11, 112320, Note_on_c, 10, 52, 127
11, 112440, Note_on_c, 10, 52, 0
11, 112560, Note_on_c, 10, 52, 127
11, 112680, Note_on_c, 10, 52, 0
11, 112800, Note_on_c, 10, 52, 127
11, 112920, Note_on_c, 10, 52, 0
11, 113040, Note_on_c, 10, 40, 127
11, 113160, Note_on_c, 10, 40, 0
11, 113280, Note_on_c, 10, 59, 127
11, 113400, Note_on_c, 10, 59, 0
11, 113520, Note_on_c, 10, 59, 127
11, 113640, Note_on_c, 10, 59, 0
11, 113760, Note_on_c, 10, 59, 127
11, 113880, Note_on_c, 10, 59, 0
11, 114000, Note_on_c, 10, 59, 127
11, 114120, Note_on_c, 10, 59, 0
11, 114240, Note_on_c, 10, 59, 127
11, 114360, Note_on_c, 10, 59, 0
11, 114480, Note_on_c, 10, 59, 127
11, 114600, Note_on_c, 10, 59, 0
11, 114720, Note_on_c, 10, 59, 127
11, 114840, Note_on_c, 10, 59, 0
11, 114960, Note_on_c, 10, 47, 127
11, 115080, Note_on_c, 10, 47, 0
11, 115200, Note_on_c, 10, 48, 127
11, 115320, Note_on_c, 10, 48, 0
11, 115440, Note_on_c, 10, 48, 127
11, 115560, Note_on_c, 10, 48, 0
11, 115680, Note_on_c, 10, 48, 127
11, 115800, Note_on_c, 10, 48, 0
11, 115920, Note_on_c, 10, 48, 127
11, 116040, Note_on_c, 10, 48, 0
11, 116160, Note_on_c, 10, 50, 127
11, 116280, Note_on_c, 10, 50, 0
11, 116400, Note_on_c, 10, 50, 127
11, 116520, Note_on_c, 10, 50, 0
11, 116640, Note_on_c, 10, 50, 127
11, 116760, Note_on_c, 10, 50, 0
11, 116880, Note_on_c, 10, 50, 127
11, 117000, Note_on_c, 10, 50, 0
11, 117120, Note_on_c, 10, 43, 127
11, 117240, Note_on_c, 10, 43, 0
11, 117360, Note_on_c, 10, 59, 127
11, 117480, Note_on_c, 10, 59, 0
11, 117600, Note_on_c, 10, 59, 127
11, 117720, Note_on_c, 10, 59, 0
11, 117840, Note_on_c, 10, 59, 127
11, 117960, Note_on_c, 10, 59, 0
11, 118080, Note_on_c, 10, 59, 127
11, 118800, Note_on_c, 10, 59, 0
11, 118800, Note_on_c, 10, 57, 127
11, 118860, Note_on_c, 10, 57, 0
11, 118860, Note_on_c, 10, 55, 127
11, 118920, Note_on_c, 10, 55, 0
11, 118920, Note_on_c, 10, 54, 127
11, 118980, Note_on_c, 10, 54, 0
11, 118980, Note_on_c, 10, 52, 127
11, 119040, Note_on_c, 10, 52, 0
11, 119040, Note_on_c, 10, 50, 127
11, 119160, Note_on_c, 10, 50, 0
11, 119280, Note_on_c, 10, 62, 127
11, 119400, Note_on_c, 10, 62, 0
11, 119520, Note_on_c, 10, 62, 127
11, 119640, Note_on_c, 10, 62, 0
11, 119760, Note_on_c, 10, 62, 127
11, 119880, Note_on_c, 10, 62, 0
11, 120000, Note_on_c, 10, 62, 127
11, 120720, Note_on_c, 10, 62, 0
11, 120720, Note_on_c, 10, 59, 127
11, 120780, Note_on_c, 10, 59, 0
11, 120780, Note_on_c, 10, 57, 127
11, 120840, Note_on_c, 10, 57, 0
11, 120840, Note_on_c, 10, 55, 127
11, 120900, Note_on_c, 10, 55, 0
11, 120900, Note_on_c, 10, 54, 127
11, 120960, Note_on_c, 10, 54, 0
11, 120960, Note_on_c, 10, 51, 127
11, 121200, Note_on_c, 10, 51, 0
11, 121200, Note_on_c, 10, 63, 127
11, 121320, Note_on_c, 10, 63, 0
11, 121440, Note_on_c, 10, 63, 127
11, 121560, Note_on_c, 10, 63, 0
11, 121680, Note_on_c, 10, 63, 127
11, 121800, Note_on_c, 10, 63, 0
11, 121920, Note_on_c, 10, 63, 127
11, 122568, Note_on_c, 10, 63, 0
11, 122640, Note_on_c, 10, 65, 127
11, 122760, Note_on_c, 10, 65, 0
11, 122880, Note_on_c, 10, 63, 127
11, 123000, Note_on_c, 10, 63, 0
11, 123120, Note_on_c, 10, 65, 127
11, 123240, Note_on_c, 10, 65, 0
11, 123360, Note_on_c, 10, 63, 127
11, 123480, Note_on_c, 10, 63, 0
11, 123600, Note_on_c, 10, 65, 127
11, 123720, Note_on_c, 10, 65, 0
11, 123840, Note_on_c, 10, 64, 127
11, 124488, Note_on_c, 10, 64, 0
11, 124560, Note_on_c, 10, 65, 127
11, 124680, Note_on_c, 10, 65, 0
11, 124800, Note_on_c, 10, 64, 127
11, 124920, Note_on_c, 10, 64, 0
11, 125040, Note_on_c, 10, 65, 127
11, 125160, Note_on_c, 10, 65, 0
11, 125280, Note_on_c, 10, 64, 127
11, 125400, Note_on_c, 10, 64, 0
11, 125520, Note_on_c, 10, 65, 127
11, 125640, Note_on_c, 10, 65, 0
11, 125760, Note_on_c, 10, 64, 127
11, 125880, Note_on_c, 10, 64, 0
11, 126000, Note_on_c, 10, 52, 127
11, 126120, Note_on_c, 10, 52, 0
11, 126240, Note_on_c, 10, 54, 127
11, 126360, Note_on_c, 10, 54, 0
11, 126480, Note_on_c, 10, 66, 127
11, 126600, Note_on_c, 10, 66, 0
11, 126720, Note_on_c, 10, 67, 127
11, 126840, Note_on_c, 10, 67, 0
11, 126960, Note_on_c, 10, 63, 127
11, 127080, Note_on_c, 10, 63, 0
11, 127200, Note_on_c, 10, 64, 127
11, 127320, Note_on_c, 10, 64, 0
11, 127440, Note_on_c, 10, 59, 127
11, 127560, Note_on_c, 10, 59, 0
11, 127680, Note_on_c, 10, 60, 127
11, 127800, Note_on_c, 10, 60, 0
11, 127920, Note_on_c, 10, 57, 127
11, 128040, Note_on_c, 10, 57, 0
11, 128160, Note_on_c, 10, 62, 127
11, 128280, Note_on_c, 10, 62, 0
11, 128400, Note_on_c, 10, 50, 127
11, 128520, Note_on_c, 10, 50, 0
11, 128640, Note_on_c, 10, 55, 127
11, 128880, Note_on_c, 10, 55, 0
11, 129120, Note_on_c, 10, 55, 127
11, 129345, Note_on_c, 10, 55, 0
11, 129480, Note_on_c, 10, 55, 127
11, 129600, Note_on_c, 10, 55, 0
11, 129600, Note_on_c, 10, 55, 127
11, 130320, Note_on_c, 10, 55, 0
11, 130320, Note_on_c, 10, 54, 127
11, 130440, Note_on_c, 10, 54, 0
11, 130440, Note_on_c, 10, 52, 127
11, 130560, Note_on_c, 10, 52, 0
11, 130560, Note_on_c, 10, 50, 127
11, 130680, Note_on_c, 10, 50, 0
11, 130680, Note_on_c, 10, 52, 127
11, 130800, Note_on_c, 10, 52, 0
11, 130800, Note_on_c, 10, 50, 127
11, 130920, Note_on_c, 10, 50, 0
11, 130920, Note_on_c, 10, 48, 127
11, 131040, Note_on_c, 10, 48, 0
11, 131040, Note_on_c, 10, 47, 127
11, 131160, Note_on_c, 10, 47, 0
11, 131160, Note_on_c, 10, 48, 127
11, 131280, Note_on_c, 10, 48, 0
11, 131280, Note_on_c, 10, 47, 127
11, 131400, Note_on_c, 10, 47, 0
11, 131400, Note_on_c, 10, 45, 127
11, 131520, Note_on_c, 10, 45, 0
11, 131520, Note_on_c, 10, 43, 127
11, 131760, Note_on_c, 10, 43, 0
11, 132000, Note_on_c, 10, 59, 127
11, 132225, Note_on_c, 10, 59, 0
11, 132360, Note_on_c, 10, 59, 127
11, 132480, Note_on_c, 10, 59, 0
11, 132480, Note_on_c, 10, 59, 127
11, 133200, Note_on_c, 10, 59, 0
11, 133200, Note_on_c, 10, 57, 127
11, 133320, Note_on_c, 10, 57, 0
11, 133320, Note_on_c, 10, 55, 127
11, 133440, Note_on_c, 10, 55, 0
11, 133440, Note_on_c, 10, 54, 127
11, 133560, Note_on_c, 10, 54, 0
11, 133560, Note_on_c, 10, 55, 127
11, 133680, Note_on_c, 10, 55, 0
11, 133680, Note_on_c, 10, 54, 127
11, 133800, Note_on_c, 10, 54, 0
11, 133800, Note_on_c, 10, 52, 127
11, 133920, Note_on_c, 10, 52, 0
11, 133920, Note_on_c, 10, 50, 127
11, 134040, Note_on_c, 10, 50, 0
11, 134040, Note_on_c, 10, 52, 127
11, 134160, Note_on_c, 10, 52, 0
11, 134160, Note_on_c, 10, 50, 127
11, 134280, Note_on_c, 10, 50, 0
11, 134280, Note_on_c, 10, 48, 127
11, 134400, Note_on_c, 10, 48, 0
11, 134400, Note_on_c, 10, 47, 127
11, 134640, Note_on_c, 10, 47, 0
11, 134880, Note_on_c, 10, 62, 127
11, 135105, Note_on_c, 10, 62, 0
11, 135240, Note_on_c, 10, 62, 127
11, 135360, Note_on_c, 10, 62, 0
11, 135360, Note_on_c, 10, 62, 127
11, 136080, Note_on_c, 10, 62, 0
11, 136080, Note_on_c, 10, 60, 127
11, 136200, Note_on_c, 10, 60, 0
11, 136200, Note_on_c, 10, 59, 127
11, 136320, Note_on_c, 10, 59, 0
11, 136320, Note_on_c, 10, 57, 127
11, 136404, Note_on_c, 10, 57, 0
11, 136440, Note_on_c, 10, 59, 127
11, 136524, Note_on_c, 10, 59, 0
11, 136560, Note_on_c, 10, 57, 127
11, 136644, Note_on_c, 10, 57, 0
11, 136680, Note_on_c, 10, 55, 127
11, 136764, Note_on_c, 10, 55, 0
11, 136800, Note_on_c, 10, 54, 127
11, 136884, Note_on_c, 10, 54, 0
11, 136920, Note_on_c, 10, 55, 127
11, 137004, Note_on_c, 10, 55, 0
11, 137040, Note_on_c, 10, 54, 127
11, 137124, Note_on_c, 10, 54, 0
11, 137160, Note_on_c, 10, 52, 127
11, 137244, Note_on_c, 10, 52, 0
11, 137280, Note_on_c, 10, 50, 127
11, 137616, Note_on_c, 10, 50, 0
11, 137760, Note_on_c, 10, 54, 127
11, 138096, Note_on_c, 10, 54, 0
11, 138240, Note_on_c, 10, 55, 127
11, 138360, Note_on_c, 10, 55, 0
11, 138480, Note_on_c, 10, 54, 127
11, 138600, Note_on_c, 10, 54, 0
11, 138720, Note_on_c, 10, 52, 127
11, 138840, Note_on_c, 10, 52, 0
11, 138960, Note_on_c, 10, 51, 127
11, 139080, Note_on_c, 10, 51, 0
11, 139200, Note_on_c, 10, 52, 127
11, 139320, Note_on_c, 10, 52, 0
11, 139440, Note_on_c, 10, 50, 127
11, 139560, Note_on_c, 10, 50, 0
11, 139680, Note_on_c, 10, 48, 127
11, 139800, Note_on_c, 10, 48, 0
11, 139920, Note_on_c, 10, 47, 127
11, 140040, Note_on_c, 10, 47, 0
11, 140160, Note_on_c, 10, 48, 127
11, 140280, Note_on_c, 10, 48, 0
11, 140400, Note_on_c, 10, 49, 127
11, 140520, Note_on_c, 10, 49, 0
11, 140640, Note_on_c, 10, 50, 127
11, 141120, Note_on_c, 10, 50, 0
11, 141120, Note_on_c, 10, 55, 127
11, 141240, Note_on_c, 10, 55, 0
11, 141360, Note_on_c, 10, 54, 127
11, 141480, Note_on_c, 10, 54, 0
11, 141600, Note_on_c, 10, 52, 127
11, 141720, Note_on_c, 10, 52, 0
11, 141840, Note_on_c, 10, 51, 127
11, 141960, Note_on_c, 10, 51, 0
11, 142080, Note_on_c, 10, 52, 127
11, 142200, Note_on_c, 10, 52, 0
11, 142320, Note_on_c, 10, 50, 127
11, 142440, Note_on_c, 10, 50, 0
11, 142560, Note_on_c, 10, 48, 127
11, 142680, Note_on_c, 10, 48, 0
11, 142800, Note_on_c, 10, 47, 127
11, 142920, Note_on_c, 10, 47, 0
11, 143040, Note_on_c, 10, 48, 127
11, 143160, Note_on_c, 10, 48, 0
11, 143280, Note_on_c, 10, 49, 127
11, 143400, Note_on_c, 10, 49, 0
11, 143520, Note_on_c, 10, 50, 127
11, 143640, Note_on_c, 10, 50, 0
11, 143760, Note_on_c, 10, 38, 127
11, 143880, Note_on_c, 10, 38, 0
11, 144000, Note_on_c, 10, 43, 127
11, 144120, Note_on_c, 10, 43, 0
11, 144240, Note_on_c, 10, 55, 127
11, 144360, Note_on_c, 10, 55, 0
11, 144480, Note_on_c, 10, 55, 50
11, 144600, Note_on_c, 10, 55, 0
11, 144720, Note_on_c, 10, 55, 50
11, 144840, Note_on_c, 10, 55, 0
11, 144960, Note_on_c, 10, 55, 50
11, 145080, Note_on_c, 10, 55, 0
11, 145200, Note_on_c, 10, 55, 50
11, 145320, Note_on_c, 10, 55, 0
11, 145440, Note_on_c, 10, 55, 50
11, 145560, Note_on_c, 10, 55, 0
11, 145680, Note_on_c, 10, 55, 50
11, 145800, Note_on_c, 10, 55, 0
11, 145920, Note_on_c, 10, 55, 50
11, 146040, Note_on_c, 10, 55, 0
11, 146160, Note_on_c, 10, 55, 50
11, 146280, Note_on_c, 10, 55, 0
11, 146400, Note_on_c, 10, 55, 50
11, 146520, Note_on_c, 10, 55, 0
11, 146640, Note_on_c, 10, 55, 50
11, 146760, Note_on_c, 10, 55, 0
11, 146880, Note_on_c, 10, 55, 50
11, 147000, Note_on_c, 10, 55, 0
11, 147120, Note_on_c, 10, 43, 50
11, 147240, Note_on_c, 10, 43, 0
11, 147360, Note_on_c, 10, 43, 50
11, 147480, Note_on_c, 10, 43, 0
11, 147600, Note_on_c, 10, 43, 50
11, 147720, Note_on_c, 10, 43, 0
11, 147840, Note_on_c, 10, 43, 50
11, 147960, Note_on_c, 10, 43, 0
11, 148080, Note_on_c, 10, 43, 50
11, 148200, Note_on_c, 10, 43, 0
11, 148320, Note_on_c, 10, 43, 50
11, 148440, Note_on_c, 10, 43, 0
11, 148560, Note_on_c, 10, 43, 50
11, 148680, Note_on_c, 10, 43, 0
11, 148800, Note_on_c, 10, 43, 50
11, 148920, Note_on_c, 10, 43, 0
11, 149040, Note_on_c, 10, 43, 50
11, 149160, Note_on_c, 10, 43, 0
11, 149280, Note_on_c, 10, 43, 50
11, 149400, Note_on_c, 10, 43, 0
11, 149520, Note_on_c, 10, 43, 50
11, 149640, Note_on_c, 10, 43, 0
11, 149760, Note_on_c, 10, 43, 50
11, 150240, Note_on_c, 10, 43, 0
11, 154560, Note_on_c, 10, 53, 50
11, 155520, Note_on_c, 10, 53, 0
11, 155520, Note_on_c, 10, 52, 50
11, 156480, Note_on_c, 10, 52, 0
11, 156480, Note_on_c, 10, 50, 50
11, 156720, Note_on_c, 10, 50, 0
11, 156960, Note_on_c, 10, 48, 50
11, 157200, Note_on_c, 10, 48, 0
11, 157440, Note_on_c, 10, 43, 50
11, 157680, Note_on_c, 10, 43, 0
11, 159120, Note_on_c, 10, 48, 105
11, 159200, Note_on_c, 10, 48, 0
11, 159200, Note_on_c, 10, 47, 105
11, 159280, Note_on_c, 10, 47, 0
11, 159280, Note_on_c, 10, 45, 106
11, 159360, Note_on_c, 10, 45, 0
11, 159360, Note_on_c, 10, 43, 106
11, 159840, Note_on_c, 10, 43, 0
11, 160080, Note_on_c, 10, 62, 111
11, 160140, Note_on_c, 10, 62, 0
11, 160140, Note_on_c, 10, 60, 112
11, 160200, Note_on_c, 10, 60, 0
11, 160200, Note_on_c, 10, 59, 112
11, 160260, Note_on_c, 10, 59, 0
11, 160260, Note_on_c, 10, 57, 113
11, 160320, Note_on_c, 10, 57, 0
11, 160320, Note_on_c, 10, 55, 113
11, 160800, Note_on_c, 10, 55, 0
11, 161040, Note_on_c, 10, 55, 118
11, 161100, Note_on_c, 10, 55, 0
11, 161100, Note_on_c, 10, 53, 118
11, 161160, Note_on_c, 10, 53, 0
11, 161160, Note_on_c, 10, 52, 119
11, 161220, Note_on_c, 10, 52, 0
11, 161220, Note_on_c, 10, 50, 119
11, 161280, Note_on_c, 10, 50, 0
11, 161280, Note_on_c, 10, 48, 120
11, 161760, Note_on_c, 10, 48, 0
11, 162000, Note_on_c, 10, 48, 125
11, 162060, Note_on_c, 10, 48, 0
11, 162060, Note_on_c, 10, 47, 125
11, 162120, Note_on_c, 10, 47, 0
11, 162120, Note_on_c, 10, 45, 126
11, 162180, Note_on_c, 10, 45, 0
11, 162180, Note_on_c, 10, 43, 126
11, 162240, Note_on_c, 10, 43, 0
11, 162240, Note_on_c, 10, 41, 127
11, 162360, Note_on_c, 10, 41, 0
11, 162480, Note_on_c, 10, 53, 127
11, 162600, Note_on_c, 10, 53, 0
11, 162720, Note_on_c, 10, 53, 127
11, 162840, Note_on_c, 10, 53, 0
11, 162960, Note_on_c, 10, 53, 127
11, 163080, Note_on_c, 10, 53, 0
11, 163200, Note_on_c, 10, 53, 127
11, 163320, Note_on_c, 10, 53, 0
11, 163440, Note_on_c, 10, 53, 127
11, 163560, Note_on_c, 10, 53, 0
11, 163680, Note_on_c, 10, 53, 127
11, 163800, Note_on_c, 10, 53, 0
11, 163920, Note_on_c, 10, 53, 127
11, 164040, Note_on_c, 10, 53, 0
11, 164160, Note_on_c, 10, 55, 127
11, 164280, Note_on_c, 10, 55, 0
11, 164400, Note_on_c, 10, 55, 127
11, 164520, Note_on_c, 10, 55, 0
11, 164640, Note_on_c, 10, 43, 127
11, 164760, Note_on_c, 10, 43, 0
11, 164880, Note_on_c, 10, 43, 127
11, 165000, Note_on_c, 10, 43, 0
11, 165120, Note_on_c, 10, 48, 127
11, 165240, Note_on_c, 10, 48, 0
11, 165360, Note_on_c, 10, 41, 127
11, 165480, Note_on_c, 10, 41, 0
11, 165600, Note_on_c, 10, 53, 127
11, 165720, Note_on_c, 10, 53, 0
11, 165840, Note_on_c, 10, 53, 127
11, 165960, Note_on_c, 10, 53, 0
11, 166080, Note_on_c, 10, 53, 127
11, 166200, Note_on_c, 10, 53, 0
11, 166320, Note_on_c, 10, 53, 127
11, 166440, Note_on_c, 10, 53, 0
11, 166560, Note_on_c, 10, 53, 127
11, 166680, Note_on_c, 10, 53, 0
11, 166800, Note_on_c, 10, 53, 127
11, 166920, Note_on_c, 10, 53, 0
11, 167040, Note_on_c, 10, 55, 127
11, 167160, Note_on_c, 10, 55, 0
11, 167280, Note_on_c, 10, 55, 127
11, 167400, Note_on_c, 10, 55, 0
11, 167520, Note_on_c, 10, 43, 127
11, 167640, Note_on_c, 10, 43, 0
11, 167760, Note_on_c, 10, 43, 127
11, 167880, Note_on_c, 10, 43, 0
11, 168000, Note_on_c, 10, 48, 127
11, 168240, Note_on_c, 10, 48, 0
11, 168480, Note_on_c, 10, 60, 127
11, 168705, Note_on_c, 10, 60, 0
11, 168840, Note_on_c, 10, 60, 127
11, 168960, Note_on_c, 10, 60, 0
11, 168960, Note_on_c, 10, 60, 127
11, 169656, Note_on_c, 10, 60, 0
11, 169680, Note_on_c, 10, 59, 127
11, 169800, Note_on_c, 10, 59, 0
11, 169800, Note_on_c, 10, 57, 127
11, 169920, Note_on_c, 10, 57, 0
11, 169920, Note_on_c, 10, 55, 127
11, 170004, Note_on_c, 10, 55, 0
11, 170040, Note_on_c, 10, 57, 127
11, 170124, Note_on_c, 10, 57, 0
11, 170160, Note_on_c, 10, 55, 127
11, 170244, Note_on_c, 10, 55, 0
11, 170280, Note_on_c, 10, 53, 127
11, 170364, Note_on_c, 10, 53, 0
11, 170400, Note_on_c, 10, 52, 127
11, 170484, Note_on_c, 10, 52, 0
11, 170520, Note_on_c, 10, 53, 127
11, 170604, Note_on_c, 10, 53, 0
11, 170640, Note_on_c, 10, 52, 127
11, 170724, Note_on_c, 10, 52, 0
11, 170760, Note_on_c, 10, 50, 127
11, 170844, Note_on_c, 10, 50, 0
11, 170880, Note_on_c, 10, 48, 127
11, 170952, Note_on_c, 10, 48, 0
11, 171000, Note_on_c, 10, 43, 127
11, 171072, Note_on_c, 10, 43, 0
11, 171120, Note_on_c, 10, 45, 127
11, 171192, Note_on_c, 10, 45, 0
11, 171240, Note_on_c, 10, 47, 127
11, 171312, Note_on_c, 10, 47, 0
11, 171360, Note_on_c, 10, 48, 127
11, 171432, Note_on_c, 10, 48, 0
11, 171480, Note_on_c, 10, 47, 127
11, 171552, Note_on_c, 10, 47, 0
11, 171600, Note_on_c, 10, 48, 127
11, 171672, Note_on_c, 10, 48, 0
11, 171720, Note_on_c, 10, 50, 127
11, 171792, Note_on_c, 10, 50, 0
11, 171840, Note_on_c, 10, 52, 127
11, 171912, Note_on_c, 10, 52, 0
11, 171960, Note_on_c, 10, 50, 127
11, 172032, Note_on_c, 10, 50, 0
11, 172080, Note_on_c, 10, 48, 127
11, 172152, Note_on_c, 10, 48, 0
11, 172200, Note_on_c, 10, 50, 127
11, 172272, Note_on_c, 10, 50, 0
11, 172320, Note_on_c, 10, 52, 127
11, 172392, Note_on_c, 10, 52, 0
11, 172440, Note_on_c, 10, 50, 127
11, 172512, Note_on_c, 10, 50, 0
11, 172560, Note_on_c, 10, 52, 127
11, 172632, Note_on_c, 10, 52, 0
11, 172680, Note_on_c, 10, 53, 127
11, 172752, Note_on_c, 10, 53, 0
11, 172800, Note_on_c, 10, 55, 127
11, 172872, Note_on_c, 10, 55, 0
11, 172920, Note_on_c, 10, 54, 127
11, 172992, Note_on_c, 10, 54, 0
11, 173040, Note_on_c, 10, 55, 127
11, 173112, Note_on_c, 10, 55, 0
11, 173160, Note_on_c, 10, 57, 127
11, 173232, Note_on_c, 10, 57, 0
11, 173280, Note_on_c, 10, 59, 127
11, 173352, Note_on_c, 10, 59, 0
11, 173400, Note_on_c, 10, 55, 127
11, 173472, Note_on_c, 10, 55, 0
11, 173520, Note_on_c, 10, 57, 127
11, 173592, Note_on_c, 10, 57, 0
11, 173640, Note_on_c, 10, 59, 127
11, 173712, Note_on_c, 10, 59, 0
11, 173760, Note_on_c, 10, 60, 127
11, 174000, Note_on_c, 10, 60, 0
11, 174240, Note_on_c, 10, 60, 127
11, 174465, Note_on_c, 10, 60, 0
11, 174600, Note_on_c, 10, 60, 127
11, 174720, Note_on_c, 10, 60, 0
11, 174720, Note_on_c, 10, 60, 127
11, 175320, Note_on_c, 10, 60, 0
11, 175440, Note_on_c, 10, 59, 127
11, 175560, Note_on_c, 10, 59, 0
11, 175560, Note_on_c, 10, 57, 127
11, 175680, Note_on_c, 10, 57, 0
11, 175680, Note_on_c, 10, 55, 127
11, 175764, Note_on_c, 10, 55, 0
11, 175800, Note_on_c, 10, 57, 127
11, 175884, Note_on_c, 10, 57, 0
11, 175920, Note_on_c, 10, 55, 127
11, 176004, Note_on_c, 10, 55, 0
11, 176040, Note_on_c, 10, 53, 127
11, 176124, Note_on_c, 10, 53, 0
11, 176160, Note_on_c, 10, 52, 127
11, 176244, Note_on_c, 10, 52, 0
11, 176280, Note_on_c, 10, 53, 127
11, 176364, Note_on_c, 10, 53, 0
11, 176400, Note_on_c, 10, 52, 127
11, 176484, Note_on_c, 10, 52, 0
11, 176520, Note_on_c, 10, 50, 127
11, 176604, Note_on_c, 10, 50, 0
11, 176640, Note_on_c, 10, 48, 127
11, 176760, Note_on_c, 10, 48, 0
11, 176880, Note_on_c, 10, 55, 127
11, 177000, Note_on_c, 10, 55, 0
11, 177120, Note_on_c, 10, 60, 127
11, 177240, Note_on_c, 10, 60, 0
11, 177360, Note_on_c, 10, 55, 127
11, 177480, Note_on_c, 10, 55, 0
11, 177600, Note_on_c, 10, 60, 127
11, 177720, Note_on_c, 10, 60, 0
11, 177840, Note_on_c, 10, 55, 127
11, 177960, Note_on_c, 10, 55, 0
11, 178080, Note_on_c, 10, 60, 127
11, 178200, Note_on_c, 10, 60, 0
11, 178320, Note_on_c, 10, 55, 127
11, 178440, Note_on_c, 10, 55, 0
11, 178560, Note_on_c, 10, 60, 127
11, 178644, Note_on_c, 10, 60, 0
11, 178680, Note_on_c, 10, 59, 127
11, 178764, Note_on_c, 10, 59, 0
11, 178800, Note_on_c, 10, 57, 127
11, 178884, Note_on_c, 10, 57, 0
11, 178920, Note_on_c, 10, 55, 127
11, 179004, Note_on_c, 10, 55, 0
11, 179040, Note_on_c, 10, 60, 127
11, 179124, Note_on_c, 10, 60, 0
11, 179160, Note_on_c, 10, 59, 127
11, 179244, Note_on_c, 10, 59, 0
11, 179280, Note_on_c, 10, 57, 127
11, 179364, Note_on_c, 10, 57, 0
11, 179400, Note_on_c, 10, 55, 127
11, 179484, Note_on_c, 10, 55, 0
11, 179520, Note_on_c, 10, 60, 127
11, 179604, Note_on_c, 10, 60, 0
11, 179640, Note_on_c, 10, 59, 127
11, 179724, Note_on_c, 10, 59, 0
11, 179760, Note_on_c, 10, 57, 127
11, 179844, Note_on_c, 10, 57, 0
11, 179880, Note_on_c, 10, 55, 127
11, 179964, Note_on_c, 10, 55, 0
11, 180000, Note_on_c, 10, 53, 127
11, 180084, Note_on_c, 10, 53, 0
11, 180120, Note_on_c, 10, 52, 127
11, 180204, Note_on_c, 10, 52, 0
11, 180240, Note_on_c, 10, 50, 127
11, 180324, Note_on_c, 10, 50, 0
11, 180360, Note_on_c, 10, 48, 127
11, 180444, Note_on_c, 10, 48, 0
11, 180480, Note_on_c, 10, 43, 127
11, 180600, Note_on_c, 10, 43, 0
11, 180720, Note_on_c, 10, 55, 127
11, 180840, Note_on_c, 10, 55, 0
11, 180960, Note_on_c, 10, 55, 127
11, 181080, Note_on_c, 10, 55, 0
11, 181200, Note_on_c, 10, 55, 127
11, 181320, Note_on_c, 10, 55, 0
11, 181440, Note_on_c, 10, 55, 127
11, 181560, Note_on_c, 10, 55, 0
11, 181680, Note_on_c, 10, 55, 127
11, 181800, Note_on_c, 10, 55, 0
11, 181920, Note_on_c, 10, 55, 127
11, 182040, Note_on_c, 10, 55, 0
11, 182160, Note_on_c, 10, 55, 127
11, 182280, Note_on_c, 10, 55, 0
11, 182400, Note_on_c, 10, 55, 127
11, 182520, Note_on_c, 10, 55, 0
11, 182640, Note_on_c, 10, 55, 127
11, 182760, Note_on_c, 10, 55, 0
11, 182880, Note_on_c, 10, 55, 127
11, 183000, Note_on_c, 10, 55, 0
11, 183120, Note_on_c, 10, 55, 127
11, 183240, Note_on_c, 10, 55, 0
11, 183360, Note_on_c, 10, 55, 127
11, 183840, Note_on_c, 10, 55, 0
11, 193920, Note_on_c, 10, 55, 50
11, 194880, Note_on_c, 10, 55, 0
11, 194880, Note_on_c, 10, 57, 50
11, 195840, Note_on_c, 10, 57, 0
11, 195840, Note_on_c, 10, 60, 50
11, 197038, Note_on_c, 10, 60, 0
11, 197040, Note_on_c, 10, 62, 50
11, 197160, Note_on_c, 10, 62, 0
11, 197160, Note_on_c, 10, 60, 50
11, 197280, Note_on_c, 10, 60, 0
11, 197280, Note_on_c, 10, 59, 50
11, 197400, Note_on_c, 10, 59, 0
11, 197520, Note_on_c, 10, 57, 50
11, 197640, Note_on_c, 10, 57, 0
11, 197760, Note_on_c, 10, 55, 50
11, 198240, Note_on_c, 10, 55, 0
11, 198240, Note_on_c, 10, 60, 50
11, 198958, Note_on_c, 10, 60, 0
11, 198960, Note_on_c, 10, 62, 50
11, 199080, Note_on_c, 10, 62, 0
11, 199080, Note_on_c, 10, 64, 50
11, 199200, Note_on_c, 10, 64, 0
11, 199200, Note_on_c, 10, 65, 50
11, 199320, Note_on_c, 10, 65, 0
11, 199440, Note_on_c, 10, 62, 50
11, 199920, Note_on_c, 10, 62, 0
11, 199920, Note_on_c, 10, 57, 50
11, 200400, Note_on_c, 10, 57, 0
11, 200400, Note_on_c, 10, 53, 50
11, 200520, Note_on_c, 10, 53, 0
11, 200640, Note_on_c, 10, 52, 127
11, 200760, Note_on_c, 10, 52, 0
11, 200880, Note_on_c, 10, 60, 127
11, 201000, Note_on_c, 10, 60, 0
11, 201120, Note_on_c, 10, 57, 127
11, 201240, Note_on_c, 10, 57, 0
11, 201360, Note_on_c, 10, 55, 127
11, 201480, Note_on_c, 10, 55, 0
11, 201600, Note_on_c, 10, 53, 127
11, 201720, Note_on_c, 10, 53, 0
11, 201840, Note_on_c, 10, 52, 127
11, 201960, Note_on_c, 10, 52, 0
11, 202080, Note_on_c, 10, 50, 127
11, 202200, Note_on_c, 10, 50, 0
11, 202320, Note_on_c, 10, 48, 127
11, 202440, Note_on_c, 10, 48, 0
11, 202560, Note_on_c, 10, 47, 127
11, 202680, Note_on_c, 10, 47, 0
11, 202800, Note_on_c, 10, 43, 127
11, 202920, Note_on_c, 10, 43, 0
11, 203040, Note_on_c, 10, 45, 127
11, 203160, Note_on_c, 10, 45, 0
11, 203280, Note_on_c, 10, 47, 127
11, 203400, Note_on_c, 10, 47, 0
11, 203520, Note_on_c, 10, 48, 127
11, 204000, Note_on_c, 10, 48, 0
11, 204720, Note_on_c, 10, 54, 127
11, 204960, Note_on_c, 10, 54, 0
11, 204960, Note_on_c, 10, 55, 127
11, 205200, Note_on_c, 10, 55, 0
11, 205200, Note_on_c, 10, 57, 127
11, 205440, Note_on_c, 10, 57, 0
11, 205440, Note_on_c, 10, 60, 127
11, 205500, Note_on_c, 10, 60, 0
11, 205500, Note_on_c, 10, 59, 127
11, 205560, Note_on_c, 10, 59, 0
11, 205560, Note_on_c, 10, 60, 127
11, 205620, Note_on_c, 10, 60, 0
11, 205620, Note_on_c, 10, 59, 127
11, 205680, Note_on_c, 10, 59, 0
11, 205800, Note_on_c, 10, 60, 127
11, 205896, Note_on_c, 10, 60, 0
11, 205920, Note_on_c, 10, 62, 127
11, 206304, Note_on_c, 10, 62, 0
11, 206640, Note_on_c, 10, 52, 127
11, 206880, Note_on_c, 10, 52, 0
11, 206880, Note_on_c, 10, 54, 127
11, 207120, Note_on_c, 10, 54, 0
11, 207120, Note_on_c, 10, 55, 127
11, 207360, Note_on_c, 10, 55, 0
11, 207360, Note_on_c, 10, 59, 127
11, 207420, Note_on_c, 10, 59, 0
11, 207420, Note_on_c, 10, 57, 127
11, 207480, Note_on_c, 10, 57, 0
11, 207480, Note_on_c, 10, 59, 127
11, 207540, Note_on_c, 10, 59, 0
11, 207540, Note_on_c, 10, 57, 127
11, 207600, Note_on_c, 10, 57, 0
11, 207720, Note_on_c, 10, 59, 127
11, 207816, Note_on_c, 10, 59, 0
11, 207840, Note_on_c, 10, 60, 127
11, 208224, Note_on_c, 10, 60, 0
11, 208560, Note_on_c, 10, 50, 127
11, 208800, Note_on_c, 10, 50, 0
11, 208800, Note_on_c, 10, 52, 127
11, 209040, Note_on_c, 10, 52, 0
11, 209040, Note_on_c, 10, 54, 127
11, 209280, Note_on_c, 10, 54, 0
11, 209280, Note_on_c, 10, 57, 127
11, 209340, Note_on_c, 10, 57, 0
11, 209340, Note_on_c, 10, 55, 127
11, 209400, Note_on_c, 10, 55, 0
11, 209400, Note_on_c, 10, 57, 127
11, 209460, Note_on_c, 10, 57, 0
11, 209460, Note_on_c, 10, 55, 127
11, 209520, Note_on_c, 10, 55, 0
11, 209640, Note_on_c, 10, 57, 127
11, 209736, Note_on_c, 10, 57, 0
11, 209760, Note_on_c, 10, 59, 127
11, 210144, Note_on_c, 10, 59, 0
11, 210480, Note_on_c, 10, 52, 127
11, 210600, Note_on_c, 10, 52, 0
11, 210720, Note_on_c, 10, 64, 127
11, 210840, Note_on_c, 10, 64, 0
11, 210960, Note_on_c, 10, 52, 127
11, 211080, Note_on_c, 10, 52, 0
11, 211200, Note_on_c, 10, 50, 127
11, 211650, Note_on_c, 10, 50, 0
11, 212160, Note_on_c, 10, 62, 127
11, 212385, Note_on_c, 10, 62, 0
11, 212520, Note_on_c, 10, 62, 127
11, 212640, Note_on_c, 10, 62, 0
11, 212640, Note_on_c, 10, 62, 127
11, 213360, Note_on_c, 10, 62, 0
11, 213360, Note_on_c, 10, 61, 127
11, 213444, Note_on_c, 10, 61, 0
11, 213480, Note_on_c, 10, 59, 127
11, 213564, Note_on_c, 10, 59, 0
11, 213600, Note_on_c, 10, 57, 127
11, 213684, Note_on_c, 10, 57, 0
11, 213720, Note_on_c, 10, 59, 127
11, 213804, Note_on_c, 10, 59, 0
11, 213840, Note_on_c, 10, 57, 127
11, 213924, Note_on_c, 10, 57, 0
11, 213960, Note_on_c, 10, 55, 127
11, 214044, Note_on_c, 10, 55, 0
11, 214080, Note_on_c, 10, 54, 127
11, 214164, Note_on_c, 10, 54, 0
11, 214200, Note_on_c, 10, 55, 127
11, 214284, Note_on_c, 10, 55, 0
11, 214320, Note_on_c, 10, 54, 127
11, 214404, Note_on_c, 10, 54, 0
11, 214440, Note_on_c, 10, 52, 127
11, 214524, Note_on_c, 10, 52, 0
11, 214560, Note_on_c, 10, 50, 127
11, 214800, Note_on_c, 10, 50, 0
11, 215040, Note_on_c, 10, 62, 127
11, 215265, Note_on_c, 10, 62, 0
11, 215400, Note_on_c, 10, 62, 127
11, 215520, Note_on_c, 10, 62, 0
11, 215520, Note_on_c, 10, 62, 127
11, 216240, Note_on_c, 10, 62, 0
11, 216240, Note_on_c, 10, 61, 127
11, 216324, Note_on_c, 10, 61, 0
11, 216360, Note_on_c, 10, 59, 127
11, 216444, Note_on_c, 10, 59, 0
11, 216480, Note_on_c, 10, 57, 127
11, 216564, Note_on_c, 10, 57, 0
11, 216600, Note_on_c, 10, 59, 127
11, 216684, Note_on_c, 10, 59, 0
11, 216720, Note_on_c, 10, 57, 127
11, 216804, Note_on_c, 10, 57, 0
11, 216840, Note_on_c, 10, 55, 127
11, 216924, Note_on_c, 10, 55, 0
11, 216960, Note_on_c, 10, 54, 127
11, 217044, Note_on_c, 10, 54, 0
11, 217080, Note_on_c, 10, 55, 127
11, 217164, Note_on_c, 10, 55, 0
11, 217200, Note_on_c, 10, 54, 127
11, 217284, Note_on_c, 10, 54, 0
11, 217320, Note_on_c, 10, 52, 127
11, 217404, Note_on_c, 10, 52, 0
11, 217440, Note_on_c, 10, 50, 127
11, 217524, Note_on_c, 10, 50, 0
11, 217560, Note_on_c, 10, 52, 127
11, 217644, Note_on_c, 10, 52, 0
11, 217680, Note_on_c, 10, 54, 127
11, 217764, Note_on_c, 10, 54, 0
11, 217800, Note_on_c, 10, 55, 127
11, 217884, Note_on_c, 10, 55, 0
11, 217920, Note_on_c, 10, 57, 127
11, 218004, Note_on_c, 10, 57, 0
11, 218040, Note_on_c, 10, 59, 127
11, 218124, Note_on_c, 10, 59, 0
11, 218160, Note_on_c, 10, 57, 127
11, 218244, Note_on_c, 10, 57, 0
11, 218280, Note_on_c, 10, 55, 127
11, 218364, Note_on_c, 10, 55, 0
11, 218400, Note_on_c, 10, 54, 127
11, 218484, Note_on_c, 10, 54, 0
11, 218520, Note_on_c, 10, 55, 127
11, 218604, Note_on_c, 10, 55, 0
11, 218640, Note_on_c, 10, 57, 127
11, 218724, Note_on_c, 10, 57, 0
11, 218760, Note_on_c, 10, 55, 127
11, 218844, Note_on_c, 10, 55, 0
11, 218880, Note_on_c, 10, 54, 127
11, 219000, Note_on_c, 10, 54, 0
11, 219120, Note_on_c, 10, 60, 127
11, 219240, Note_on_c, 10, 60, 0
11, 219360, Note_on_c, 10, 57, 127
11, 219480, Note_on_c, 10, 57, 0
11, 219600, Note_on_c, 10, 54, 127
11, 219720, Note_on_c, 10, 54, 0
11, 219840, Note_on_c, 10, 50, 127
11, 220320, Note_on_c, 10, 50, 0
11, 220800, Note_on_c, 10, 43, 50
11, 221280, Note_on_c, 10, 43, 0
11, 221760, Note_on_c, 10, 52, 50
11, 222240, Note_on_c, 10, 52, 0
11, 222720, Note_on_c, 10, 45, 50
11, 223200, Note_on_c, 10, 45, 0
11, 223680, Note_on_c, 10, 50, 50
11, 224160, Note_on_c, 10, 50, 0
11, 224640, Note_on_c, 10, 55, 50
11, 224880, Note_on_c, 10, 55, 0
11, 225120, Note_on_c, 10, 47, 50
11, 225360, Note_on_c, 10, 47, 0
11, 225600, Note_on_c, 10, 48, 50
11, 225840, Note_on_c, 10, 48, 0
11, 226080, Note_on_c, 10, 49, 50
11, 226320, Note_on_c, 10, 49, 0
11, 226560, Note_on_c, 10, 50, 50
11, 226800, Note_on_c, 10, 50, 0
11, 227040, Note_on_c, 10, 42, 50
11, 227520, Note_on_c, 10, 42, 0
11, 227520, Note_on_c, 10, 43, 50
11, 228000, Note_on_c, 10, 43, 0
11, 228000, Note_on_c, 10, 44, 50
11, 228480, Note_on_c, 10, 44, 0
11, 228480, Note_on_c, 10, 45, 50
11, 228816, Note_on_c, 10, 45, 0
11, 228960, Note_on_c, 10, 48, 50
11, 229680, Note_on_c, 10, 48, 0
11, 229680, Note_on_c, 10, 45, 50
11, 229800, Note_on_c, 10, 45, 0
11, 229920, Note_on_c, 10, 50, 50
11, 230040, Note_on_c, 10, 50, 0
11, 230160, Note_on_c, 10, 48, 50
11, 230280, Note_on_c, 10, 48, 0
11, 230400, Note_on_c, 10, 47, 50
11, 231360, Note_on_c, 10, 47, 0
11, 231360, Note_on_c, 10, 48, 50
11, 231840, Note_on_c, 10, 48, 0
11, 231840, Note_on_c, 10, 49, 50
11, 232320, Note_on_c, 10, 49, 0
11, 232320, Note_on_c, 10, 50, 50
11, 234208, Note_on_c, 10, 50, 0
11, 234240, Note_on_c, 10, 50, 50
11, 236158, Note_on_c, 10, 50, 0
11, 236160, Note_on_c, 10, 50, 50
11, 238078, Note_on_c, 10, 50, 0
11, 238080, Note_on_c, 10, 50, 50
11, 239998, Note_on_c, 10, 50, 0
11, 240000, Note_on_c, 10, 43, 100
11, 240480, Note_on_c, 10, 43, 0
11, 241440, Note_on_c, 10, 60, 100
11, 241776, Note_on_c, 10, 60, 0
11, 241920, Note_on_c, 10, 57, 100
11, 242256, Note_on_c, 10, 57, 0
11, 242400, Note_on_c, 10, 62, 100
11, 242736, Note_on_c, 10, 62, 0
11, 243360, Note_on_c, 10, 64, 100
11, 243696, Note_on_c, 10, 64, 0
11, 243840, Note_on_c, 10, 60, 100
11, 244176, Note_on_c, 10, 60, 0
11, 244320, Note_on_c, 10, 66, 100
11, 244656, Note_on_c, 10, 66, 0
11, 245280, Note_on_c, 10, 55, 100
11, 245616, Note_on_c, 10, 55, 0
11, 245760, Note_on_c, 10, 52, 100
11, 246096, Note_on_c, 10, 52, 0
11, 246240, Note_on_c, 10, 57, 100
11, 246804, Note_on_c, 10, 57, 0
11, 246840, Note_on_c, 10, 55, 100
11, 246924, Note_on_c, 10, 55, 0
11, 246960, Note_on_c, 10, 54, 100
11, 247044, Note_on_c, 10, 54, 0
11, 247080, Note_on_c, 10, 52, 100
11, 247164, Note_on_c, 10, 52, 0
11, 247200, Note_on_c, 10, 54, 100
11, 247284, Note_on_c, 10, 54, 0
11, 247320, Note_on_c, 10, 52, 100
11, 247404, Note_on_c, 10, 52, 0
11, 247440, Note_on_c, 10, 50, 100
11, 247524, Note_on_c, 10, 50, 0
11, 247560, Note_on_c, 10, 48, 100
11, 247644, Note_on_c, 10, 48, 0
11, 247680, Note_on_c, 10, 47, 100
11, 248016, Note_on_c, 10, 47, 0
11, 248160, Note_on_c, 10, 55, 100
11, 248496, Note_on_c, 10, 55, 0
11, 249120, Note_on_c, 10, 64, 100
11, 249456, Note_on_c, 10, 64, 0
11, 249600, Note_on_c, 10, 60, 100
11, 249936, Note_on_c, 10, 60, 0
11, 250080, Note_on_c, 10, 66, 100
11, 250644, Note_on_c, 10, 66, 0
11, 250680, Note_on_c, 10, 64, 100
11, 250764, Note_on_c, 10, 64, 0
11, 250800, Note_on_c, 10, 63, 100
11, 250884, Note_on_c, 10, 63, 0
11, 250920, Note_on_c, 10, 61, 100
11, 251004, Note_on_c, 10, 61, 0
11, 251040, Note_on_c, 10, 63, 100
11, 251124, Note_on_c, 10, 63, 0
11, 251160, Note_on_c, 10, 61, 100
11, 251244, Note_on_c, 10, 61, 0
11, 251280, Note_on_c, 10, 59, 100
11, 251364, Note_on_c, 10, 59, 0
11, 251400, Note_on_c, 10, 57, 100
11, 251484, Note_on_c, 10, 57, 0
11, 251520, Note_on_c, 10, 55, 100
11, 251856, Note_on_c, 10, 55, 0
11, 252000, Note_on_c, 10, 64, 100
11, 252336, Note_on_c, 10, 64, 0
11, 252960, Note_on_c, 10, 60, 100
11, 253296, Note_on_c, 10, 60, 0
11, 253440, Note_on_c, 10, 57, 100
11, 253776, Note_on_c, 10, 57, 0
11, 253920, Note_on_c, 10, 62, 100
11, 254484, Note_on_c, 10, 62, 0
11, 254520, Note_on_c, 10, 60, 100
11, 254604, Note_on_c, 10, 60, 0
11, 254640, Note_on_c, 10, 59, 100
11, 254724, Note_on_c, 10, 59, 0
11, 254760, Note_on_c, 10, 57, 100
11, 254844, Note_on_c, 10, 57, 0
11, 254880, Note_on_c, 10, 59, 100
11, 254964, Note_on_c, 10, 59, 0
11, 255000, Note_on_c, 10, 57, 100
11, 255084, Note_on_c, 10, 57, 0
11, 255120, Note_on_c, 10, 55, 100
11, 255204, Note_on_c, 10, 55, 0
11, 255240, Note_on_c, 10, 53, 100
11, 255324, Note_on_c, 10, 53, 0
11, 255360, Note_on_c, 10, 52, 100
11, 255528, Note_on_c, 10, 52, 0
11, 255600, Note_on_c, 10, 60, 100
11, 255684, Note_on_c, 10, 60, 0
11, 255720, Note_on_c, 10, 59, 100
11, 255804, Note_on_c, 10, 59, 0
11, 255840, Note_on_c, 10, 60, 100
11, 255924, Note_on_c, 10, 60, 0
11, 255960, Note_on_c, 10, 59, 100
11, 256044, Note_on_c, 10, 59, 0
11, 256080, Note_on_c, 10, 57, 100
11, 256164, Note_on_c, 10, 57, 0
11, 256200, Note_on_c, 10, 55, 100
11, 256284, Note_on_c, 10, 55, 0
11, 256320, Note_on_c, 10, 60, 100
11, 256488, Note_on_c, 10, 60, 0
11, 256560, Note_on_c, 10, 64, 100
11, 256644, Note_on_c, 10, 64, 0
11, 256680, Note_on_c, 10, 62, 100
11, 256764, Note_on_c, 10, 62, 0
11, 256800, Note_on_c, 10, 64, 100
11, 256884, Note_on_c, 10, 64, 0
11, 256920, Note_on_c, 10, 62, 100
11, 257004, Note_on_c, 10, 62, 0
11, 257040, Note_on_c, 10, 60, 100
11, 257124, Note_on_c, 10, 60, 0
11, 257160, Note_on_c, 10, 59, 100
11, 257244, Note_on_c, 10, 59, 0
11, 257280, Note_on_c, 10, 64, 100
11, 257448, Note_on_c, 10, 64, 0
11, 257520, Note_on_c, 10, 60, 100
11, 257604, Note_on_c, 10, 60, 0
11, 257640, Note_on_c, 10, 59, 100
11, 257724, Note_on_c, 10, 59, 0
11, 257760, Note_on_c, 10, 60, 100
11, 257844, Note_on_c, 10, 60, 0
11, 257880, Note_on_c, 10, 59, 100
11, 257964, Note_on_c, 10, 59, 0
11, 258000, Note_on_c, 10, 57, 100
11, 258084, Note_on_c, 10, 57, 0
11, 258120, Note_on_c, 10, 55, 100
11, 258204, Note_on_c, 10, 55, 0
11, 258240, Note_on_c, 10, 60, 100
11, 258408, Note_on_c, 10, 60, 0
11, 258480, Note_on_c, 10, 57, 100
11, 258564, Note_on_c, 10, 57, 0
11, 258600, Note_on_c, 10, 55, 100
11, 258684, Note_on_c, 10, 55, 0
11, 258720, Note_on_c, 10, 57, 100
11, 258804, Note_on_c, 10, 57, 0
11, 258840, Note_on_c, 10, 55, 100
11, 258924, Note_on_c, 10, 55, 0
11, 258960, Note_on_c, 10, 54, 100
11, 259044, Note_on_c, 10, 54, 0
11, 259080, Note_on_c, 10, 52, 100
11, 259164, Note_on_c, 10, 52, 0
11, 259200, Note_on_c, 10, 54, 100
11, 259320, Note_on_c, 10, 54, 0
11, 259440, Note_on_c, 10, 50, 100
11, 259560, Note_on_c, 10, 50, 0
11, 259680, Note_on_c, 10, 52, 100
11, 259800, Note_on_c, 10, 52, 0
11, 259920, Note_on_c, 10, 54, 100
11, 260040, Note_on_c, 10, 54, 0
11, 260160, Note_on_c, 10, 55, 100
11, 260280, Note_on_c, 10, 55, 0
11, 260400, Note_on_c, 10, 55, 100
11, 260520, Note_on_c, 10, 55, 0
11, 260640, Note_on_c, 10, 55, 100
11, 260760, Note_on_c, 10, 55, 0
11, 260880, Note_on_c, 10, 55, 100
11, 261000, Note_on_c, 10, 55, 0
11, 261120, Note_on_c, 10, 55, 100
11, 261240, Note_on_c, 10, 55, 0
11, 261360, Note_on_c, 10, 55, 100
11, 261480, Note_on_c, 10, 55, 0
11, 261600, Note_on_c, 10, 55, 100
11, 261720, Note_on_c, 10, 55, 0
11, 261840, Note_on_c, 10, 43, 100
11, 261960, Note_on_c, 10, 43, 0
11, 262080, Note_on_c, 10, 52, 100
11, 262200, Note_on_c, 10, 52, 0
11, 262320, Note_on_c, 10, 52, 100
11, 262440, Note_on_c, 10, 52, 0
11, 262560, Note_on_c, 10, 52, 100
11, 262680, Note_on_c, 10, 52, 0
11, 262800, Note_on_c, 10, 52, 100
11, 262920, Note_on_c, 10, 52, 0
11, 263040, Note_on_c, 10, 52, 100
11, 263160, Note_on_c, 10, 52, 0
11, 263280, Note_on_c, 10, 52, 100
11, 263400, Note_on_c, 10, 52, 0
11, 263520, Note_on_c, 10, 52, 100
11, 263640, Note_on_c, 10, 52, 0
11, 263760, Note_on_c, 10, 40, 100
11, 263880, Note_on_c, 10, 40, 0
11, 264000, Note_on_c, 10, 59, 100
11, 264120, Note_on_c, 10, 59, 0
11, 264240, Note_on_c, 10, 59, 100
11, 264360, Note_on_c, 10, 59, 0
11, 264480, Note_on_c, 10, 59, 100
11, 264600, Note_on_c, 10, 59, 0
11, 264720, Note_on_c, 10, 59, 100
11, 264840, Note_on_c, 10, 59, 0
11, 264960, Note_on_c, 10, 59, 100
11, 265080, Note_on_c, 10, 59, 0
11, 265200, Note_on_c, 10, 59, 100
11, 265320, Note_on_c, 10, 59, 0
11, 265440, Note_on_c, 10, 59, 100
11, 265560, Note_on_c, 10, 59, 0
11, 265680, Note_on_c, 10, 47, 100
11, 265800, Note_on_c, 10, 47, 0
11, 265920, Note_on_c, 10, 48, 100
11, 266040, Note_on_c, 10, 48, 0
11, 266160, Note_on_c, 10, 48, 100
11, 266280, Note_on_c, 10, 48, 0
11, 266400, Note_on_c, 10, 48, 100
11, 266520, Note_on_c, 10, 48, 0
11, 266640, Note_on_c, 10, 48, 100
11, 266760, Note_on_c, 10, 48, 0
11, 266880, Note_on_c, 10, 50, 100
11, 267000, Note_on_c, 10, 50, 0
11, 267120, Note_on_c, 10, 50, 100
11, 267240, Note_on_c, 10, 50, 0
11, 267360, Note_on_c, 10, 50, 100
11, 267480, Note_on_c, 10, 50, 0
11, 267600, Note_on_c, 10, 50, 100
11, 267720, Note_on_c, 10, 50, 0
11, 267840, Note_on_c, 10, 43, 100
11, 267960, Note_on_c, 10, 43, 0
11, 268080, Note_on_c, 10, 59, 100
11, 268200, Note_on_c, 10, 59, 0
11, 268320, Note_on_c, 10, 59, 100
11, 268440, Note_on_c, 10, 59, 0
11, 268560, Note_on_c, 10, 59, 100
11, 268680, Note_on_c, 10, 59, 0
11, 268800, Note_on_c, 10, 59, 100
11, 269520, Note_on_c, 10, 59, 0
11, 269520, Note_on_c, 10, 57, 100
11, 269580, Note_on_c, 10, 57, 0
11, 269580, Note_on_c, 10, 55, 100
11, 269640, Note_on_c, 10, 55, 0
11, 269640, Note_on_c, 10, 54, 100
11, 269700, Note_on_c, 10, 54, 0
11, 269700, Note_on_c, 10, 52, 100
11, 269760, Note_on_c, 10, 52, 0
11, 269760, Note_on_c, 10, 50, 100
11, 269880, Note_on_c, 10, 50, 0
11, 270000, Note_on_c, 10, 62, 100
11, 270120, Note_on_c, 10, 62, 0
11, 270240, Note_on_c, 10, 62, 100
11, 270360, Note_on_c, 10, 62, 0
11, 270480, Note_on_c, 10, 62, 100
11, 270600, Note_on_c, 10, 62, 0
11, 270720, Note_on_c, 10, 62, 100
11, 271440, Note_on_c, 10, 62, 0
11, 271440, Note_on_c, 10, 59, 100
11, 271500, Note_on_c, 10, 59, 0
11, 271500, Note_on_c, 10, 57, 100
11, 271560, Note_on_c, 10, 57, 0
11, 271560, Note_on_c, 10, 55, 100
11, 271620, Note_on_c, 10, 55, 0
11, 271620, Note_on_c, 10, 54, 100
11, 271680, Note_on_c, 10, 54, 0
11, 271680, Note_on_c, 10, 51, 100
11, 271920, Note_on_c, 10, 51, 0
11, 271920, Note_on_c, 10, 63, 100
11, 272040, Note_on_c, 10, 63, 0
11, 272160, Note_on_c, 10, 63, 100
11, 272280, Note_on_c, 10, 63, 0
11, 272400, Note_on_c, 10, 63, 100
11, 272520, Note_on_c, 10, 63, 0
11, 272640, Note_on_c, 10, 63, 100
11, 273288, Note_on_c, 10, 63, 0
11, 273360, Note_on_c, 10, 65, 100
11, 273480, Note_on_c, 10, 65, 0
11, 273600, Note_on_c, 10, 63, 100
11, 273720, Note_on_c, 10, 63, 0
11, 273840, Note_on_c, 10, 65, 100
11, 273960, Note_on_c, 10, 65, 0
11, 274080, Note_on_c, 10, 63, 100
11, 274200, Note_on_c, 10, 63, 0
11, 274320, Note_on_c, 10, 65, 100
11, 274440, Note_on_c, 10, 65, 0
11, 274560, Note_on_c, 10, 64, 100
11, 275208, Note_on_c, 10, 64, 0
11, 275280, Note_on_c, 10, 65, 100
11, 275400, Note_on_c, 10, 65, 0
11, 275520, Note_on_c, 10, 64, 100
11, 275640, Note_on_c, 10, 64, 0
11, 275760, Note_on_c, 10, 65, 100
11, 275880, Note_on_c, 10, 65, 0
11, 276000, Note_on_c, 10, 64, 100
11, 276120, Note_on_c, 10, 64, 0
11, 276240, Note_on_c, 10, 65, 100
11, 276360, Note_on_c, 10, 65, 0
11, 276480, Note_on_c, 10, 64, 100
11, 276600, Note_on_c, 10, 64, 0
11, 276720, Note_on_c, 10, 52, 100
11, 276840, Note_on_c, 10, 52, 0
11, 276960, Note_on_c, 10, 54, 100
11, 277080, Note_on_c, 10, 54, 0
11, 277200, Note_on_c, 10, 66, 100
11, 277320, Note_on_c, 10, 66, 0
11, 277440, Note_on_c, 10, 67, 100
11, 277560, Note_on_c, 10, 67, 0
11, 277680, Note_on_c, 10, 63, 100
11, 277800, Note_on_c, 10, 63, 0
11, 277920, Note_on_c, 10, 64, 100
11, 278040, Note_on_c, 10, 64, 0
11, 278160, Note_on_c, 10, 59, 100
11, 278280, Note_on_c, 10, 59, 0
11, 278400, Note_on_c, 10, 60, 100
11, 278520, Note_on_c, 10, 60, 0
11, 278640, Note_on_c, 10, 57, 100
11, 278760, Note_on_c, 10, 57, 0
11, 278880, Note_on_c, 10, 62, 100
11, 279000, Note_on_c, 10, 62, 0
11, 279120, Note_on_c, 10, 50, 100
11, 279240, Note_on_c, 10, 50, 0
11, 279360, Note_on_c, 10, 55, 100
11, 279600, Note_on_c, 10, 55, 0
11, 279840, Note_on_c, 10, 55, 100
11, 280065, Note_on_c, 10, 55, 0
11, 280200, Note_on_c, 10, 55, 100
11, 280320, Note_on_c, 10, 55, 0
11, 280320, Note_on_c, 10, 55, 100
11, 281040, Note_on_c, 10, 55, 0
11, 281040, Note_on_c, 10, 54, 100
11, 281160, Note_on_c, 10, 54, 0
11, 281160, Note_on_c, 10, 52, 100
11, 281280, Note_on_c, 10, 52, 0
11, 281280, Note_on_c, 10, 50, 100
11, 281400, Note_on_c, 10, 50, 0
11, 281400, Note_on_c, 10, 52, 100
11, 281520, Note_on_c, 10, 52, 0
11, 281520, Note_on_c, 10, 50, 100
11, 281640, Note_on_c, 10, 50, 0
11, 281640, Note_on_c, 10, 48, 100
11, 281760, Note_on_c, 10, 48, 0
11, 281760, Note_on_c, 10, 47, 100
11, 281880, Note_on_c, 10, 47, 0
11, 281880, Note_on_c, 10, 48, 100
11, 282000, Note_on_c, 10, 48, 0
11, 282000, Note_on_c, 10, 47, 100
11, 282120, Note_on_c, 10, 47, 0
11, 282120, Note_on_c, 10, 45, 100
11, 282240, Note_on_c, 10, 45, 0
11, 282240, Note_on_c, 10, 43, 100
11, 282480, Note_on_c, 10, 43, 0
11, 282720, Note_on_c, 10, 59, 100
11, 282945, Note_on_c, 10, 59, 0
11, 283080, Note_on_c, 10, 59, 100
11, 283200, Note_on_c, 10, 59, 0
11, 283200, Note_on_c, 10, 59, 100
11, 283920, Note_on_c, 10, 59, 0
11, 283920, Note_on_c, 10, 57, 100
11, 284040, Note_on_c, 10, 57, 0
11, 284040, Note_on_c, 10, 55, 100
11, 284160, Note_on_c, 10, 55, 0
11, 284160, Note_on_c, 10, 54, 100
11, 284280, Note_on_c, 10, 54, 0
11, 284280, Note_on_c, 10, 55, 100
11, 284400, Note_on_c, 10, 55, 0
11, 284400, Note_on_c, 10, 54, 100
11, 284520, Note_on_c, 10, 54, 0
11, 284520, Note_on_c, 10, 52, 100
11, 284640, Note_on_c, 10, 52, 0
11, 284640, Note_on_c, 10, 50, 100
11, 284760, Note_on_c, 10, 50, 0
11, 284760, Note_on_c, 10, 52, 100
11, 284880, Note_on_c, 10, 52, 0
11, 284880, Note_on_c, 10, 50, 100
11, 285000, Note_on_c, 10, 50, 0
11, 285000, Note_on_c, 10, 48, 100
11, 285120, Note_on_c, 10, 48, 0
11, 285120, Note_on_c, 10, 47, 100
11, 285360, Note_on_c, 10, 47, 0
11, 285600, Note_on_c, 10, 62, 100
11, 285825, Note_on_c, 10, 62, 0
11, 285960, Note_on_c, 10, 62, 100
11, 286080, Note_on_c, 10, 62, 0
11, 286080, Note_on_c, 10, 62, 100
11, 286800, Note_on_c, 10, 62, 0
11, 286800, Note_on_c, 10, 60, 100
11, 286920, Note_on_c, 10, 60, 0
11, 286920, Note_on_c, 10, 59, 100
11, 287040, Note_on_c, 10, 59, 0
11, 287040, Note_on_c, 10, 57, 100
11, 287124, Note_on_c, 10, 57, 0
11, 287160, Note_on_c, 10, 59, 100
11, 287244, Note_on_c, 10, 59, 0
11, 287280, Note_on_c, 10, 57, 100
11, 287364, Note_on_c, 10, 57, 0
11, 287400, Note_on_c, 10, 55, 100
11, 287484, Note_on_c, 10, 55, 0
11, 287520, Note_on_c, 10, 54, 100
11, 287604, Note_on_c, 10, 54, 0
11, 287640, Note_on_c, 10, 55, 100
11, 287724, Note_on_c, 10, 55, 0
11, 287760, Note_on_c, 10, 54, 100
11, 287844, Note_on_c, 10, 54, 0
11, 287880, Note_on_c, 10, 52, 100
11, 287964, Note_on_c, 10, 52, 0
11, 288000, Note_on_c, 10, 50, 100
11, 288336, Note_on_c, 10, 50, 0
11, 288480, Note_on_c, 10, 54, 100
11, 288816, Note_on_c, 10, 54, 0
11, 288960, Note_on_c, 10, 55, 100
11, 289080, Note_on_c, 10, 55, 0
11, 289200, Note_on_c, 10, 54, 100
11, 289320, Note_on_c, 10, 54, 0
11, 289440, Note_on_c, 10, 52, 100
11, 289560, Note_on_c, 10, 52, 0
11, 289680, Note_on_c, 10, 51, 100
11, 289800, Note_on_c, 10, 51, 0
11, 289920, Note_on_c, 10, 52, 100
11, 290040, Note_on_c, 10, 52, 0
11, 290160, Note_on_c, 10, 50, 100
11, 290280, Note_on_c, 10, 50, 0
11, 290400, Note_on_c, 10, 48, 100
11, 290520, Note_on_c, 10, 48, 0
11, 290640, Note_on_c, 10, 47, 100
11, 290760, Note_on_c, 10, 47, 0
11, 290880, Note_on_c, 10, 48, 100
11, 291000, Note_on_c, 10, 48, 0
11, 291120, Note_on_c, 10, 49, 100
11, 291240, Note_on_c, 10, 49, 0
11, 291360, Note_on_c, 10, 50, 100
11, 291840, Note_on_c, 10, 50, 0
11, 291840, Note_on_c, 10, 55, 100
11, 291960, Note_on_c, 10, 55, 0
11, 292080, Note_on_c, 10, 54, 100
11, 292200, Note_on_c, 10, 54, 0
11, 292320, Note_on_c, 10, 52, 100
11, 292440, Note_on_c, 10, 52, 0
11, 292560, Note_on_c, 10, 51, 100
11, 292680, Note_on_c, 10, 51, 0
11, 292800, Note_on_c, 10, 52, 100
11, 292920, Note_on_c, 10, 52, 0
11, 293040, Note_on_c, 10, 50, 100
11, 293160, Note_on_c, 10, 50, 0
11, 293280, Note_on_c, 10, 48, 100
11, 293400, Note_on_c, 10, 48, 0
11, 293520, Note_on_c, 10, 47, 100
11, 293640, Note_on_c, 10, 47, 0
11, 293760, Note_on_c, 10, 48, 100
11, 293880, Note_on_c, 10, 48, 0
11, 294000, Note_on_c, 10, 49, 100
11, 294120, Note_on_c, 10, 49, 0
11, 294240, Note_on_c, 10, 50, 100
11, 294360, Note_on_c, 10, 50, 0
11, 294480, Note_on_c, 10, 38, 100
11, 294600, Note_on_c, 10, 38, 0
11, 294720, Note_on_c, 10, 43, 100
11, 294840, Note_on_c, 10, 43, 0
11, 294960, Note_on_c, 10, 55, 50
11, 295080, Note_on_c, 10, 55, 0
11, 295200, Note_on_c, 10, 55, 50
11, 295320, Note_on_c, 10, 55, 0
11, 295440, Note_on_c, 10, 55, 50
11, 295560, Note_on_c, 10, 55, 0
11, 295680, Note_on_c, 10, 55, 50
11, 295800, Note_on_c, 10, 55, 0
11, 295920, Note_on_c, 10, 55, 50
11, 296040, Note_on_c, 10, 55, 0
11, 296160, Note_on_c, 10, 55, 50
11, 296280, Note_on_c, 10, 55, 0
11, 296400, Note_on_c, 10, 55, 50
11, 296520, Note_on_c, 10, 55, 0
11, 296640, Note_on_c, 10, 55, 50
11, 296760, Note_on_c, 10, 55, 0
11, 296880, Note_on_c, 10, 55, 50
11, 297000, Note_on_c, 10, 55, 0
11, 297120, Note_on_c, 10, 55, 50
11, 297240, Note_on_c, 10, 55, 0
11, 297360, Note_on_c, 10, 55, 50
11, 297480, Note_on_c, 10, 55, 0
11, 297600, Note_on_c, 10, 55, 50
11, 297720, Note_on_c, 10, 55, 0
11, 297840, Note_on_c, 10, 43, 50
11, 297960, Note_on_c, 10, 43, 0
11, 298080, Note_on_c, 10, 43, 50
11, 298200, Note_on_c, 10, 43, 0
11, 298320, Note_on_c, 10, 43, 50
11, 298440, Note_on_c, 10, 43, 0
11, 298560, Note_on_c, 10, 43, 50
11, 298680, Note_on_c, 10, 43, 0
11, 298800, Note_on_c, 10, 43, 50
11, 298920, Note_on_c, 10, 43, 0
11, 299040, Note_on_c, 10, 43, 50
11, 299160, Note_on_c, 10, 43, 0
11, 299280, Note_on_c, 10, 43, 50
11, 299400, Note_on_c, 10, 43, 0
11, 299520, Note_on_c, 10, 43, 50
11, 299640, Note_on_c, 10, 43, 0
11, 299760, Note_on_c, 10, 43, 50
11, 299880, Note_on_c, 10, 43, 0
11, 300000, Note_on_c, 10, 43, 50
11, 300120, Note_on_c, 10, 43, 0
11, 300240, Note_on_c, 10, 43, 50
11, 300360, Note_on_c, 10, 43, 0
11, 300480, Note_on_c, 10, 43, 50
11, 300960, Note_on_c, 10, 43, 0
11, 301440, Note_on_c, 10, 43, 50
11, 301560, Note_on_c, 10, 43, 0
11, 301680, Note_on_c, 10, 55, 50
11, 301800, Note_on_c, 10, 55, 0
11, 301920, Note_on_c, 10, 55, 50
11, 302040, Note_on_c, 10, 55, 0
11, 302160, Note_on_c, 10, 55, 50
11, 302280, Note_on_c, 10, 55, 0
11, 302400, Note_on_c, 10, 55, 50
11, 302520, Note_on_c, 10, 55, 0
11, 302640, Note_on_c, 10, 55, 50
11, 302760, Note_on_c, 10, 55, 0
11, 302880, Note_on_c, 10, 55, 50
11, 303000, Note_on_c, 10, 55, 0
11, 303120, Note_on_c, 10, 55, 50
11, 303240, Note_on_c, 10, 55, 0
11, 303360, Note_on_c, 10, 55, 50
11, 303480, Note_on_c, 10, 55, 0
11, 303600, Note_on_c, 10, 55, 50
11, 303720, Note_on_c, 10, 55, 0
11, 303840, Note_on_c, 10, 55, 50
11, 303960, Note_on_c, 10, 55, 0
11, 304080, Note_on_c, 10, 55, 50
11, 304200, Note_on_c, 10, 55, 0
11, 304320, Note_on_c, 10, 55, 50
11, 304440, Note_on_c, 10, 55, 0
11, 304560, Note_on_c, 10, 55, 50
11, 304680, Note_on_c, 10, 55, 0
11, 304800, Note_on_c, 10, 55, 50
11, 304920, Note_on_c, 10, 55, 0
11, 305040, Note_on_c, 10, 55, 50
11, 305160, Note_on_c, 10, 55, 0
11, 305280, Note_on_c, 10, 56, 50
11, 306240, Note_on_c, 10, 56, 0
11, 306240, Note_on_c, 10, 54, 50
11, 307200, Note_on_c, 10, 54, 0
11, 307200, Note_on_c, 10, 55, 50
11, 307320, Note_on_c, 10, 55, 0
11, 307440, Note_on_c, 10, 55, 50
11, 307560, Note_on_c, 10, 55, 0
11, 307680, Note_on_c, 10, 55, 50
11, 307800, Note_on_c, 10, 55, 0
11, 307920, Note_on_c, 10, 55, 50
11, 308040, Note_on_c, 10, 55, 0
11, 308160, Note_on_c, 10, 53, 50
11, 308280, Note_on_c, 10, 53, 0
11, 308400, Note_on_c, 10, 53, 50
11, 308520, Note_on_c, 10, 53, 0
11, 308640, Note_on_c, 10, 53, 50
11, 308760, Note_on_c, 10, 53, 0
11, 308880, Note_on_c, 10, 53, 50
11, 309000, Note_on_c, 10, 53, 0
11, 309120, Note_on_c, 10, 52, 50
11, 312238, Note_on_c, 10, 52, 0
11, 312240, Note_on_c, 10, 52, 50
11, 312360, Note_on_c, 10, 52, 0
11, 312480, Note_on_c, 10, 52, 50
11, 312600, Note_on_c, 10, 52, 0
11, 312720, Note_on_c, 10, 52, 50
11, 312840, Note_on_c, 10, 52, 0
11, 312960, Note_on_c, 10, 53, 50
11, 314878, Note_on_c, 10, 53, 0
11, 314880, Note_on_c, 10, 52, 50
11, 315120, Note_on_c, 10, 52, 0
11, 315360, Note_on_c, 10, 57, 127
11, 315585, Note_on_c, 10, 57, 0
11, 315720, Note_on_c, 10, 57, 127
11, 315840, Note_on_c, 10, 57, 0
11, 315840, Note_on_c, 10, 57, 127
11, 316560, Note_on_c, 10, 57, 0
11, 316560, Note_on_c, 10, 55, 127
11, 316644, Note_on_c, 10, 55, 0
11, 316680, Note_on_c, 10, 53, 127
11, 316764, Note_on_c, 10, 53, 0
11, 316800, Note_on_c, 10, 52, 127
11, 316884, Note_on_c, 10, 52, 0
11, 316920, Note_on_c, 10, 53, 127
11, 317004, Note_on_c, 10, 53, 0
11, 317040, Note_on_c, 10, 52, 127
11, 317124, Note_on_c, 10, 52, 0
11, 317160, Note_on_c, 10, 50, 127
11, 317244, Note_on_c, 10, 50, 0
11, 317280, Note_on_c, 10, 49, 127
11, 317520, Note_on_c, 10, 49, 0
11, 317520, Note_on_c, 10, 52, 127
11, 317760, Note_on_c, 10, 52, 0
11, 317760, Note_on_c, 10, 45, 127
11, 318240, Note_on_c, 10, 45, 0
11, 318720, Note_on_c, 10, 62, 127
11, 318945, Note_on_c, 10, 62, 0
11, 319080, Note_on_c, 10, 62, 127
11, 319200, Note_on_c, 10, 62, 0
11, 319200, Note_on_c, 10, 62, 127
11, 319920, Note_on_c, 10, 62, 0
11, 319920, Note_on_c, 10, 60, 127
11, 320004, Note_on_c, 10, 60, 0
11, 320040, Note_on_c, 10, 59, 127
11, 320124, Note_on_c, 10, 59, 0
11, 320160, Note_on_c, 10, 57, 127
11, 320244, Note_on_c, 10, 57, 0
11, 320280, Note_on_c, 10, 59, 127
11, 320364, Note_on_c, 10, 59, 0
11, 320400, Note_on_c, 10, 57, 127
11, 320484, Note_on_c, 10, 57, 0
11, 320520, Note_on_c, 10, 55, 127
11, 320604, Note_on_c, 10, 55, 0
11, 320640, Note_on_c, 10, 54, 127
11, 320880, Note_on_c, 10, 54, 0
11, 320880, Note_on_c, 10, 57, 127
11, 321120, Note_on_c, 10, 57, 0
11, 321120, Note_on_c, 10, 50, 127
11, 321600, Note_on_c, 10, 50, 0
11, 322080, Note_on_c, 10, 55, 127
11, 322305, Note_on_c, 10, 55, 0
11, 322440, Note_on_c, 10, 55, 127
11, 322560, Note_on_c, 10, 55, 0
11, 322560, Note_on_c, 10, 55, 127
11, 323280, Note_on_c, 10, 55, 0
11, 323280, Note_on_c, 10, 53, 127
11, 323364, Note_on_c, 10, 53, 0
11, 323400, Note_on_c, 10, 52, 127
11, 323484, Note_on_c, 10, 52, 0
11, 323520, Note_on_c, 10, 50, 127
11, 323604, Note_on_c, 10, 50, 0
11, 323640, Note_on_c, 10, 52, 127
11, 323724, Note_on_c, 10, 52, 0
11, 323760, Note_on_c, 10, 50, 127
11, 323844, Note_on_c, 10, 50, 0
11, 323880, Note_on_c, 10, 48, 127
11, 323964, Note_on_c, 10, 48, 0
11, 324000, Note_on_c, 10, 47, 127
11, 324240, Note_on_c, 10, 47, 0
11, 324240, Note_on_c, 10, 50, 127
11, 324480, Note_on_c, 10, 50, 0
11, 324480, Note_on_c, 10, 43, 127
11, 324960, Note_on_c, 10, 43, 0
11, 325440, Note_on_c, 10, 60, 127
11, 325665, Note_on_c, 10, 60, 0
11, 325800, Note_on_c, 10, 60, 127
11, 325920, Note_on_c, 10, 60, 0
11, 325920, Note_on_c, 10, 60, 127
11, 326640, Note_on_c, 10, 60, 0
11, 326640, Note_on_c, 10, 58, 127
11, 326724, Note_on_c, 10, 58, 0
11, 326760, Note_on_c, 10, 57, 127
11, 326844, Note_on_c, 10, 57, 0
11, 326880, Note_on_c, 10, 55, 127
11, 326964, Note_on_c, 10, 55, 0
11, 327000, Note_on_c, 10, 57, 127
11, 327084, Note_on_c, 10, 57, 0
11, 327120, Note_on_c, 10, 55, 127
11, 327204, Note_on_c, 10, 55, 0
11, 327240, Note_on_c, 10, 53, 127
11, 327324, Note_on_c, 10, 53, 0
11, 327360, Note_on_c, 10, 52, 127
11, 327600, Note_on_c, 10, 52, 0
11, 327600, Note_on_c, 10, 55, 127
11, 327840, Note_on_c, 10, 55, 0
11, 327840, Note_on_c, 10, 48, 127
11, 328320, Note_on_c, 10, 48, 0
11, 328800, Note_on_c, 10, 53, 127
11, 329025, Note_on_c, 10, 53, 0
11, 329160, Note_on_c, 10, 53, 127
11, 329280, Note_on_c, 10, 53, 0
11, 329280, Note_on_c, 10, 53, 127
11, 329856, Note_on_c, 10, 53, 0
11, 330000, Note_on_c, 10, 55, 127
11, 330084, Note_on_c, 10, 55, 0
11, 330120, Note_on_c, 10, 57, 127
11, 330204, Note_on_c, 10, 57, 0
11, 330240, Note_on_c, 10, 58, 127
11, 330324, Note_on_c, 10, 58, 0
11, 330360, Note_on_c, 10, 57, 127
11, 330444, Note_on_c, 10, 57, 0
11, 330480, Note_on_c, 10, 58, 127
11, 330564, Note_on_c, 10, 58, 0
11, 330600, Note_on_c, 10, 60, 127
11, 330684, Note_on_c, 10, 60, 0
11, 330720, Note_on_c, 10, 62, 127
11, 330804, Note_on_c, 10, 62, 0
11, 330840, Note_on_c, 10, 60, 127
11, 330924, Note_on_c, 10, 60, 0
11, 330960, Note_on_c, 10, 62, 127
11, 331044, Note_on_c, 10, 62, 0
11, 331080, Note_on_c, 10, 64, 127
11, 331164, Note_on_c, 10, 64, 0
11, 331200, Note_on_c, 10, 65, 127
11, 331680, Note_on_c, 10, 65, 0
11, 334080, Note_on_c, 10, 60, 100
11, 334305, Note_on_c, 10, 60, 0
11, 334440, Note_on_c, 10, 60, 100
11, 334560, Note_on_c, 10, 60, 0
11, 334560, Note_on_c, 10, 60, 100
11, 335280, Note_on_c, 10, 60, 0
11, 335280, Note_on_c, 10, 58, 100
11, 335364, Note_on_c, 10, 58, 0
11, 335400, Note_on_c, 10, 56, 100
11, 335484, Note_on_c, 10, 56, 0
11, 335520, Note_on_c, 10, 55, 100
11, 335604, Note_on_c, 10, 55, 0
11, 335640, Note_on_c, 10, 57, 100
11, 335724, Note_on_c, 10, 57, 0
11, 335760, Note_on_c, 10, 55, 100
11, 335844, Note_on_c, 10, 55, 0
11, 335880, Note_on_c, 10, 53, 100
11, 335964, Note_on_c, 10, 53, 0
11, 336000, Note_on_c, 10, 51, 100
11, 336084, Note_on_c, 10, 51, 0
11, 336120, Note_on_c, 10, 53, 100
11, 336204, Note_on_c, 10, 53, 0
11, 336240, Note_on_c, 10, 51, 100
11, 336324, Note_on_c, 10, 51, 0
11, 336360, Note_on_c, 10, 50, 100
11, 336444, Note_on_c, 10, 50, 0
11, 336480, Note_on_c, 10, 48, 100
11, 336960, Note_on_c, 10, 48, 0
11, 338400, Note_on_c, 10, 55, 83
11, 338625, Note_on_c, 10, 55, 0
11, 338760, Note_on_c, 10, 55, 83
11, 338880, Note_on_c, 10, 55, 0
11, 338880, Note_on_c, 10, 55, 83
11, 339600, Note_on_c, 10, 55, 0
11, 339600, Note_on_c, 10, 57, 83
11, 339684, Note_on_c, 10, 57, 0
11, 339720, Note_on_c, 10, 58, 83
11, 339804, Note_on_c, 10, 58, 0
11, 339840, Note_on_c, 10, 60, 83
11, 339924, Note_on_c, 10, 60, 0
11, 339960, Note_on_c, 10, 58, 83
11, 340044, Note_on_c, 10, 58, 0
11, 340080, Note_on_c, 10, 60, 83
11, 340164, Note_on_c, 10, 60, 0
11, 340200, Note_on_c, 10, 62, 83
11, 340284, Note_on_c, 10, 62, 0
11, 340320, Note_on_c, 10, 64, 83
11, 340404, Note_on_c, 10, 64, 0
11, 340440, Note_on_c, 10, 62, 83
11, 340524, Note_on_c, 10, 62, 0
11, 340560, Note_on_c, 10, 64, 83
11, 340644, Note_on_c, 10, 64, 0
11, 340680, Note_on_c, 10, 66, 83
11, 340764, Note_on_c, 10, 66, 0
11, 340800, Note_on_c, 10, 67, 83
11, 341280, Note_on_c, 10, 67, 0
11, 343680, Note_on_c, 10, 62, 83
11, 343905, Note_on_c, 10, 62, 0
11, 344040, Note_on_c, 10, 62, 83
11, 344160, Note_on_c, 10, 62, 0
11, 344160, Note_on_c, 10, 62, 83
11, 344880, Note_on_c, 10, 62, 0
11, 344880, Note_on_c, 10, 60, 83
11, 344964, Note_on_c, 10, 60, 0
11, 345000, Note_on_c, 10, 58, 83
11, 345084, Note_on_c, 10, 58, 0
11, 345120, Note_on_c, 10, 57, 83
11, 345204, Note_on_c, 10, 57, 0
11, 345240, Note_on_c, 10, 58, 83
11, 345324, Note_on_c, 10, 58, 0
11, 345360, Note_on_c, 10, 57, 83
11, 345444, Note_on_c, 10, 57, 0
11, 345480, Note_on_c, 10, 55, 83
11, 345564, Note_on_c, 10, 55, 0
11, 345600, Note_on_c, 10, 53, 83
11, 345684, Note_on_c, 10, 53, 0
11, 345720, Note_on_c, 10, 55, 83
11, 345804, Note_on_c, 10, 55, 0
11, 345840, Note_on_c, 10, 53, 83
11, 345924, Note_on_c, 10, 53, 0
11, 345960, Note_on_c, 10, 52, 83
11, 346044, Note_on_c, 10, 52, 0
11, 346080, Note_on_c, 10, 50, 83
11, 346560, Note_on_c, 10, 50, 0
11, 351360, Note_on_c, 10, 47, 127
11, 351480, Note_on_c, 10, 47, 0
11, 351600, Note_on_c, 10, 59, 127
11, 351720, Note_on_c, 10, 59, 0
11, 351840, Note_on_c, 10, 59, 127
11, 351960, Note_on_c, 10, 59, 0
11, 352080, Note_on_c, 10, 59, 127
11, 352200, Note_on_c, 10, 59, 0
11, 352320, Note_on_c, 10, 59, 127
11, 352440, Note_on_c, 10, 59, 0
11, 352560, Note_on_c, 10, 59, 127
11, 352680, Note_on_c, 10, 59, 0
11, 352800, Note_on_c, 10, 59, 127
11, 352920, Note_on_c, 10, 59, 0
11, 353040, Note_on_c, 10, 59, 127
11, 353160, Note_on_c, 10, 59, 0
11, 353280, Note_on_c, 10, 59, 127
11, 353400, Note_on_c, 10, 59, 0
11, 353520, Note_on_c, 10, 59, 127
11, 353640, Note_on_c, 10, 59, 0
11, 353760, Note_on_c, 10, 59, 127
11, 353880, Note_on_c, 10, 59, 0
11, 354000, Note_on_c, 10, 59, 127
11, 354120, Note_on_c, 10, 59, 0
11, 354240, Note_on_c, 10, 59, 127
11, 354480, Note_on_c, 10, 59, 0
11, 354720, Note_on_c, 10, 59, 127
11, 354945, Note_on_c, 10, 59, 0
11, 355080, Note_on_c, 10, 59, 127
11, 355200, Note_on_c, 10, 59, 0
11, 355200, Note_on_c, 10, 59, 127
11, 355920, Note_on_c, 10, 59, 0
11, 355920, Note_on_c, 10, 57, 127
11, 356004, Note_on_c, 10, 57, 0
11, 356040, Note_on_c, 10, 55, 127
11, 356124, Note_on_c, 10, 55, 0
11, 356160, Note_on_c, 10, 54, 127
11, 356244, Note_on_c, 10, 54, 0
11, 356280, Note_on_c, 10, 55, 127
11, 356364, Note_on_c, 10, 55, 0
11, 356400, Note_on_c, 10, 54, 127
11, 356484, Note_on_c, 10, 54, 0
11, 356520, Note_on_c, 10, 52, 127
11, 356604, Note_on_c, 10, 52, 0
11, 356640, Note_on_c, 10, 51, 127
11, 356724, Note_on_c, 10, 51, 0
11, 356760, Note_on_c, 10, 52, 127
11, 356844, Note_on_c, 10, 52, 0
11, 356880, Note_on_c, 10, 51, 127
11, 356964, Note_on_c, 10, 51, 0
11, 357000, Note_on_c, 10, 49, 127
11, 357084, Note_on_c, 10, 49, 0
11, 357120, Note_on_c, 10, 47, 127
11, 357360, Note_on_c, 10, 47, 0
11, 357600, Note_on_c, 10, 47, 127
11, 357825, Note_on_c, 10, 47, 0
11, 357960, Note_on_c, 10, 47, 127
11, 358080, Note_on_c, 10, 47, 0
11, 358080, Note_on_c, 10, 47, 127
11, 358728, Note_on_c, 10, 47, 0
11, 358800, Note_on_c, 10, 49, 127
11, 358884, Note_on_c, 10, 49, 0
11, 358920, Note_on_c, 10, 51, 127
11, 359004, Note_on_c, 10, 51, 0
11, 359040, Note_on_c, 10, 52, 127
11, 359124, Note_on_c, 10, 52, 0
11, 359160, Note_on_c, 10, 51, 127
11, 359244, Note_on_c, 10, 51, 0
11, 359280, Note_on_c, 10, 52, 127
11, 359364, Note_on_c, 10, 52, 0
11, 359400, Note_on_c, 10, 54, 127
11, 359484, Note_on_c, 10, 54, 0
11, 359520, Note_on_c, 10, 55, 127
11, 359604, Note_on_c, 10, 55, 0
11, 359640, Note_on_c, 10, 54, 127
11, 359724, Note_on_c, 10, 54, 0
11, 359760, Note_on_c, 10, 55, 127
11, 359844, Note_on_c, 10, 55, 0
11, 359880, Note_on_c, 10, 57, 127
11, 359964, Note_on_c, 10, 57, 0
11, 360000, Note_on_c, 10, 59, 50
11, 360960, Note_on_c, 10, 59, 0
11, 360960, Note_on_c, 10, 58, 50
11, 361920, Note_on_c, 10, 58, 0
11, 361920, Note_on_c, 10, 57, 50
11, 362880, Note_on_c, 10, 57, 0
11, 362880, Note_on_c, 10, 56, 50
11, 363840, Note_on_c, 10, 55, 50
11, 363888, Note_on_c, 10, 56, 0
11, 364800, Note_on_c, 10, 55, 0
11, 364800, Note_on_c, 10, 43, 50
11, 365760, Note_on_c, 10, 43, 0
11, 367680, Note_on_c, 10, 55, 50
11, 368640, Note_on_c, 10, 55, 0
11, 368640, Note_on_c, 10, 57, 50
11, 369600, Note_on_c, 10, 57, 0
11, 369600, Note_on_c, 10, 53, 50
11, 370560, Note_on_c, 10, 53, 0
11, 370560, Note_on_c, 10, 52, 50
11, 371520, Note_on_c, 10, 52, 0
11, 371520, Note_on_c, 10, 50, 50
11, 371760, Note_on_c, 10, 50, 0
11, 372000, Note_on_c, 10, 48, 50
11, 372240, Note_on_c, 10, 48, 0
11, 372480, Note_on_c, 10, 43, 50
11, 372960, Note_on_c, 10, 43, 0
11, 374280, Note_on_c, 10, 48, 127
11, 374318, Note_on_c, 10, 48, 0
11, 374320, Note_on_c, 10, 47, 127
11, 374358, Note_on_c, 10, 47, 0
11, 374360, Note_on_c, 10, 45, 127
11, 374398, Note_on_c, 10, 45, 0
11, 374400, Note_on_c, 10, 43, 127
11, 374880, Note_on_c, 10, 43, 0
11, 375120, Note_on_c, 10, 55, 127
11, 375180, Note_on_c, 10, 55, 0
11, 375180, Note_on_c, 10, 57, 127
11, 375240, Note_on_c, 10, 57, 0
11, 375240, Note_on_c, 10, 59, 127
11, 375300, Note_on_c, 10, 59, 0
11, 375300, Note_on_c, 10, 60, 127
11, 375360, Note_on_c, 10, 60, 0
11, 375360, Note_on_c, 10, 62, 127
11, 375840, Note_on_c, 10, 62, 0
11, 376080, Note_on_c, 10, 55, 127
11, 376140, Note_on_c, 10, 55, 0
11, 376140, Note_on_c, 10, 53, 127
11, 376200, Note_on_c, 10, 53, 0
11, 376200, Note_on_c, 10, 52, 127
11, 376260, Note_on_c, 10, 52, 0
11, 376260, Note_on_c, 10, 50, 127
11, 376320, Note_on_c, 10, 50, 0
11, 376320, Note_on_c, 10, 49, 127
11, 376800, Note_on_c, 10, 49, 0
11, 377160, Note_on_c, 10, 57, 127
11, 377198, Note_on_c, 10, 57, 0
11, 377200, Note_on_c, 10, 59, 127
11, 377238, Note_on_c, 10, 59, 0
11, 377240, Note_on_c, 10, 61, 127
11, 377278, Note_on_c, 10, 61, 0
11, 377280, Note_on_c, 10, 62, 127
11, 377760, Note_on_c, 10, 62, 0
11, 378120, Note_on_c, 10, 50, 127
11, 378158, Note_on_c, 10, 50, 0
11, 378160, Note_on_c, 10, 48, 127
11, 378198, Note_on_c, 10, 48, 0
11, 378200, Note_on_c, 10, 46, 127
11, 378238, Note_on_c, 10, 46, 0
11, 378240, Note_on_c, 10, 45, 127
11, 378720, Note_on_c, 10, 45, 0
11, 378960, Note_on_c, 10, 57, 127
11, 379020, Note_on_c, 10, 57, 0
11, 379020, Note_on_c, 10, 59, 127
11, 379080, Note_on_c, 10, 59, 0
11, 379080, Note_on_c, 10, 61, 127
11, 379140, Note_on_c, 10, 61, 0
11, 379140, Note_on_c, 10, 62, 127
11, 379200, Note_on_c, 10, 62, 0
11, 379200, Note_on_c, 10, 64, 127
11, 379680, Note_on_c, 10, 64, 0
11, 379920, Note_on_c, 10, 57, 127
11, 379980, Note_on_c, 10, 57, 0
11, 379980, Note_on_c, 10, 55, 127
11, 380040, Note_on_c, 10, 55, 0
11, 380040, Note_on_c, 10, 54, 127
11, 380100, Note_on_c, 10, 54, 0
11, 380100, Note_on_c, 10, 52, 127
11, 380160, Note_on_c, 10, 52, 0
11, 380160, Note_on_c, 10, 51, 127
11, 380640, Note_on_c, 10, 51, 0
11, 381000, Note_on_c, 10, 59, 127
11, 381038, Note_on_c, 10, 59, 0
11, 381040, Note_on_c, 10, 61, 127
11, 381078, Note_on_c, 10, 61, 0
11, 381080, Note_on_c, 10, 63, 127
11, 381118, Note_on_c, 10, 63, 0
11, 381120, Note_on_c, 10, 64, 127
11, 381600, Note_on_c, 10, 64, 0
11, 383040, Note_on_c, 10, 53, 127
11, 384000, Note_on_c, 10, 53, 0
11, 384000, Note_on_c, 10, 52, 127
11, 384960, Note_on_c, 10, 52, 0
11, 384960, Note_on_c, 10, 58, 127
11, 385920, Note_on_c, 10, 58, 0
11, 385920, Note_on_c, 10, 57, 127
11, 386880, Note_on_c, 10, 57, 0
11, 386880, Note_on_c, 10, 51, 127
11, 387840, Note_on_c, 10, 51, 0
11, 387840, Note_on_c, 10, 50, 127
11, 388800, Note_on_c, 10, 50, 0
11, 388800, Note_on_c, 10, 56, 127
11, 389760, Note_on_c, 10, 56, 0
11, 389760, Note_on_c, 10, 55, 127
11, 390720, Note_on_c, 10, 55, 0
11, 390720, Note_on_c, 10, 49, 127
11, 391680, Note_on_c, 10, 49, 0
11, 391680, Note_on_c, 10, 48, 127
11, 392640, Note_on_c, 10, 48, 0
11, 392880, Note_on_c, 10, 48, 127
11, 393000, Note_on_c, 10, 48, 0
11, 393120, Note_on_c, 10, 50, 127
11, 393240, Note_on_c, 10, 50, 0
11, 393360, Note_on_c, 10, 52, 127
11, 393480, Note_on_c, 10, 52, 0
11, 393600, Note_on_c, 10, 55, 127
11, 393660, Note_on_c, 10, 55, 0
11, 393660, Note_on_c, 10, 53, 127
11, 393720, Note_on_c, 10, 53, 0
11, 393720, Note_on_c, 10, 55, 127
11, 393780, Note_on_c, 10, 55, 0
11, 393780, Note_on_c, 10, 53, 127
11, 393840, Note_on_c, 10, 53, 0
11, 393960, Note_on_c, 10, 55, 127
11, 394020, Note_on_c, 10, 55, 0
11, 394080, Note_on_c, 10, 57, 127
11, 394464, Note_on_c, 10, 57, 0
11, 394800, Note_on_c, 10, 59, 127
11, 394920, Note_on_c, 10, 59, 0
11, 395040, Note_on_c, 10, 60, 127
11, 395160, Note_on_c, 10, 60, 0
11, 395280, Note_on_c, 10, 62, 127
11, 395400, Note_on_c, 10, 62, 0
11, 395520, Note_on_c, 10, 65, 127
11, 395580, Note_on_c, 10, 65, 0
11, 395580, Note_on_c, 10, 64, 127
11, 395640, Note_on_c, 10, 64, 0
11, 395640, Note_on_c, 10, 65, 127
11, 395700, Note_on_c, 10, 65, 0
11, 395700, Note_on_c, 10, 64, 127
11, 395760, Note_on_c, 10, 64, 0
11, 395880, Note_on_c, 10, 65, 127
11, 395940, Note_on_c, 10, 65, 0
11, 396000, Note_on_c, 10, 67, 127
11, 396384, Note_on_c, 10, 67, 0
11, 396720, Note_on_c, 10, 57, 127
11, 396840, Note_on_c, 10, 57, 0
11, 396960, Note_on_c, 10, 59, 127
11, 397080, Note_on_c, 10, 59, 0
11, 397200, Note_on_c, 10, 60, 127
11, 397320, Note_on_c, 10, 60, 0
11, 397440, Note_on_c, 10, 64, 127
11, 397500, Note_on_c, 10, 64, 0
11, 397500, Note_on_c, 10, 62, 127
11, 397560, Note_on_c, 10, 62, 0
11, 397560, Note_on_c, 10, 64, 127
11, 397620, Note_on_c, 10, 64, 0
11, 397620, Note_on_c, 10, 62, 127
11, 397680, Note_on_c, 10, 62, 0
11, 397800, Note_on_c, 10, 64, 127
11, 397860, Note_on_c, 10, 64, 0
11, 397920, Note_on_c, 10, 65, 127
11, 398304, Note_on_c, 10, 65, 0
11, 398640, Note_on_c, 10, 55, 127
11, 398760, Note_on_c, 10, 55, 0
11, 398880, Note_on_c, 10, 57, 127
11, 399000, Note_on_c, 10, 57, 0
11, 399120, Note_on_c, 10, 59, 127
11, 399240, Note_on_c, 10, 59, 0
11, 399360, Note_on_c, 10, 62, 127
11, 399420, Note_on_c, 10, 62, 0
11, 399420, Note_on_c, 10, 60, 127
11, 399480, Note_on_c, 10, 60, 0
11, 399480, Note_on_c, 10, 62, 127
11, 399540, Note_on_c, 10, 62, 0
11, 399540, Note_on_c, 10, 60, 127
11, 399600, Note_on_c, 10, 60, 0
11, 399720, Note_on_c, 10, 62, 127
11, 399780, Note_on_c, 10, 62, 0
11, 399840, Note_on_c, 10, 64, 127
11, 400224, Note_on_c, 10, 64, 0
11, 400560, Note_on_c, 10, 45, 127
11, 400680, Note_on_c, 10, 45, 0
11, 400800, Note_on_c, 10, 57, 127
11, 400920, Note_on_c, 10, 57, 0
11, 401040, Note_on_c, 10, 45, 127
11, 401160, Note_on_c, 10, 45, 0
11, 401280, Note_on_c, 10, 43, 127
11, 401760, Note_on_c, 10, 43, 0
11, 402240, Note_on_c, 10, 55, 127
11, 402465, Note_on_c, 10, 55, 0
11, 402600, Note_on_c, 10, 55, 127
11, 402720, Note_on_c, 10, 55, 0
11, 402720, Note_on_c, 10, 55, 127
11, 403440, Note_on_c, 10, 55, 0
11, 403440, Note_on_c, 10, 54, 127
11, 403524, Note_on_c, 10, 54, 0
11, 403560, Note_on_c, 10, 52, 127
11, 403644, Note_on_c, 10, 52, 0
11, 403680, Note_on_c, 10, 50, 127
11, 403764, Note_on_c, 10, 50, 0
11, 403800, Note_on_c, 10, 52, 127
11, 403884, Note_on_c, 10, 52, 0
11, 403920, Note_on_c, 10, 50, 127
11, 404004, Note_on_c, 10, 50, 0
11, 404040, Note_on_c, 10, 48, 127
11, 404124, Note_on_c, 10, 48, 0
11, 404160, Note_on_c, 10, 47, 127
11, 404244, Note_on_c, 10, 47, 0
11, 404280, Note_on_c, 10, 48, 127
11, 404364, Note_on_c, 10, 48, 0
11, 404400, Note_on_c, 10, 47, 127
11, 404484, Note_on_c, 10, 47, 0
11, 404520, Note_on_c, 10, 45, 127
11, 404604, Note_on_c, 10, 45, 0
11, 404640, Note_on_c, 10, 43, 127
11, 404880, Note_on_c, 10, 43, 0
11, 405120, Note_on_c, 10, 67, 127
11, 405345, Note_on_c, 10, 67, 0
11, 405480, Note_on_c, 10, 67, 127
11, 405600, Note_on_c, 10, 67, 0
11, 405600, Note_on_c, 10, 67, 127
11, 406248, Note_on_c, 10, 67, 0
11, 406320, Note_on_c, 10, 66, 127
11, 406404, Note_on_c, 10, 66, 0
11, 406440, Note_on_c, 10, 64, 127
11, 406524, Note_on_c, 10, 64, 0
11, 406560, Note_on_c, 10, 62, 127
11, 406644, Note_on_c, 10, 62, 0
11, 406680, Note_on_c, 10, 64, 127
11, 406764, Note_on_c, 10, 64, 0
11, 406800, Note_on_c, 10, 62, 127
11, 406884, Note_on_c, 10, 62, 0
11, 406920, Note_on_c, 10, 60, 127
11, 407004, Note_on_c, 10, 60, 0
11, 407040, Note_on_c, 10, 59, 127
11, 407124, Note_on_c, 10, 59, 0
11, 407160, Note_on_c, 10, 60, 127
11, 407244, Note_on_c, 10, 60, 0
11, 407280, Note_on_c, 10, 59, 127
11, 407364, Note_on_c, 10, 59, 0
11, 407400, Note_on_c, 10, 57, 127
11, 407484, Note_on_c, 10, 57, 0
11, 407520, Note_on_c, 10, 55, 127
11, 407604, Note_on_c, 10, 55, 0
11, 407640, Note_on_c, 10, 57, 127
11, 407724, Note_on_c, 10, 57, 0
11, 407760, Note_on_c, 10, 59, 127
11, 407844, Note_on_c, 10, 59, 0
11, 407880, Note_on_c, 10, 60, 127
11, 407964, Note_on_c, 10, 60, 0
11, 408000, Note_on_c, 10, 62, 127
11, 408084, Note_on_c, 10, 62, 0
11, 408120, Note_on_c, 10, 64, 127
11, 408204, Note_on_c, 10, 64, 0
11, 408240, Note_on_c, 10, 62, 127
11, 408324, Note_on_c, 10, 62, 0
11, 408360, Note_on_c, 10, 60, 127
11, 408444, Note_on_c, 10, 60, 0
11, 408480, Note_on_c, 10, 59, 127
11, 408564, Note_on_c, 10, 59, 0
11, 408600, Note_on_c, 10, 60, 127
11, 408684, Note_on_c, 10, 60, 0
11, 408720, Note_on_c, 10, 62, 127
11, 408804, Note_on_c, 10, 62, 0
11, 408840, Note_on_c, 10, 60, 127
11, 408924, Note_on_c, 10, 60, 0
11, 408960, Note_on_c, 10, 62, 127
11, 409080, Note_on_c, 10, 62, 0
11, 409200, Note_on_c, 10, 65, 127
11, 409320, Note_on_c, 10, 65, 0
11, 409440, Note_on_c, 10, 62, 127
11, 409560, Note_on_c, 10, 62, 0
11, 409680, Note_on_c, 10, 59, 127
11, 409800, Note_on_c, 10, 59, 0
11, 409920, Note_on_c, 10, 55, 127
11, 410400, Note_on_c, 10, 55, 0
11, 410880, Note_on_c, 10, 48, 50
11, 411360, Note_on_c, 10, 48, 0
11, 411840, Note_on_c, 10, 57, 50
11, 412320, Note_on_c, 10, 57, 0
11, 412800, Note_on_c, 10, 50, 50
11, 413280, Note_on_c, 10, 50, 0
11, 413760, Note_on_c, 10, 55, 50
11, 414240, Note_on_c, 10, 55, 0
11, 414720, Note_on_c, 10, 60, 50
11, 414960, Note_on_c, 10, 60, 0
11, 415200, Note_on_c, 10, 52, 50
11, 415440, Note_on_c, 10, 52, 0
11, 415680, Note_on_c, 10, 53, 50
11, 415920, Note_on_c, 10, 53, 0
11, 416160, Note_on_c, 10, 54, 50
11, 416400, Note_on_c, 10, 54, 0
11, 416640, Note_on_c, 10, 55, 50
11, 416880, Note_on_c, 10, 55, 0
11, 417120, Note_on_c, 10, 47, 50
11, 417600, Note_on_c, 10, 47, 0
11, 417600, Note_on_c, 10, 48, 50
11, 418080, Note_on_c, 10, 48, 0
11, 418080, Note_on_c, 10, 49, 50
11, 418560, Note_on_c, 10, 49, 0
11, 418560, Note_on_c, 10, 50, 50
11, 418800, Note_on_c, 10, 50, 0
11, 419040, Note_on_c, 10, 53, 50
11, 419640, Note_on_c, 10, 53, 0
11, 419760, Note_on_c, 10, 50, 50
11, 419880, Note_on_c, 10, 50, 0
11, 420000, Note_on_c, 10, 55, 50
11, 420120, Note_on_c, 10, 55, 0
11, 420240, Note_on_c, 10, 53, 50
11, 420360, Note_on_c, 10, 53, 0
11, 420480, Note_on_c, 10, 52, 50
11, 421440, Note_on_c, 10, 52, 0
11, 421440, Note_on_c, 10, 53, 50
11, 421920, Note_on_c, 10, 53, 0
11, 421920, Note_on_c, 10, 54, 50
11, 422400, Note_on_c, 10, 54, 0
11, 422400, Note_on_c, 10, 55, 50
11, 424318, Note_on_c, 10, 55, 0
11, 424320, Note_on_c, 10, 55, 50
11, 426238, Note_on_c, 10, 55, 0
11, 426240, Note_on_c, 10, 55, 50
11, 428158, Note_on_c, 10, 55, 0
11, 428160, Note_on_c, 10, 55, 50
11, 430078, Note_on_c, 10, 55, 0
11, 430080, Note_on_c, 10, 48, 50
11, 430560, Note_on_c, 10, 48, 0
11, 431520, Note_on_c, 10, 53, 127
11, 431856, Note_on_c, 10, 53, 0
11, 432000, Note_on_c, 10, 50, 127
11, 432336, Note_on_c, 10, 50, 0
11, 432480, Note_on_c, 10, 55, 127
11, 432816, Note_on_c, 10, 55, 0
11, 433440, Note_on_c, 10, 57, 127
11, 433800, Note_on_c, 10, 57, 0
11, 433920, Note_on_c, 10, 53, 127
11, 434280, Note_on_c, 10, 53, 0
11, 434400, Note_on_c, 10, 59, 127
11, 434760, Note_on_c, 10, 59, 0
11, 435360, Note_on_c, 10, 60, 127
11, 435720, Note_on_c, 10, 60, 0
11, 435840, Note_on_c, 10, 57, 127
11, 436200, Note_on_c, 10, 57, 0
11, 436320, Note_on_c, 10, 62, 127
11, 436884, Note_on_c, 10, 62, 0
11, 436920, Note_on_c, 10, 60, 127
11, 437004, Note_on_c, 10, 60, 0
11, 437040, Note_on_c, 10, 59, 127
11, 437124, Note_on_c, 10, 59, 0
11, 437160, Note_on_c, 10, 57, 127
11, 437244, Note_on_c, 10, 57, 0
11, 437280, Note_on_c, 10, 59, 127
11, 437364, Note_on_c, 10, 59, 0
11, 437400, Note_on_c, 10, 57, 127
11, 437484, Note_on_c, 10, 57, 0
11, 437520, Note_on_c, 10, 55, 127
11, 437604, Note_on_c, 10, 55, 0
11, 437640, Note_on_c, 10, 53, 127
11, 437724, Note_on_c, 10, 53, 0
11, 437760, Note_on_c, 10, 52, 127
11, 438120, Note_on_c, 10, 52, 0
11, 438240, Note_on_c, 10, 60, 127
11, 438600, Note_on_c, 10, 60, 0
11, 439200, Note_on_c, 10, 57, 127
11, 439680, Note_on_c, 10, 57, 0
11, 439680, Note_on_c, 10, 53, 127
11, 440160, Note_on_c, 10, 53, 0
11, 440160, Note_on_c, 10, 59, 127
11, 440724, Note_on_c, 10, 59, 0
11, 440760, Note_on_c, 10, 57, 127
11, 440844, Note_on_c, 10, 57, 0
11, 440880, Note_on_c, 10, 56, 127
11, 440964, Note_on_c, 10, 56, 0
11, 441000, Note_on_c, 10, 54, 127
11, 441084, Note_on_c, 10, 54, 0
11, 441120, Note_on_c, 10, 56, 127
11, 441204, Note_on_c, 10, 56, 0
11, 441240, Note_on_c, 10, 54, 127
11, 441324, Note_on_c, 10, 54, 0
11, 441360, Note_on_c, 10, 52, 127
11, 441444, Note_on_c, 10, 52, 0
11, 441480, Note_on_c, 10, 50, 127
11, 441564, Note_on_c, 10, 50, 0
11, 441600, Note_on_c, 10, 48, 127
11, 442080, Note_on_c, 10, 48, 0
11, 442080, Note_on_c, 10, 57, 127
11, 442416, Note_on_c, 10, 57, 0
11, 443040, Note_on_c, 10, 65, 127
11, 443376, Note_on_c, 10, 65, 0
11, 443520, Note_on_c, 10, 62, 127
11, 443856, Note_on_c, 10, 62, 0
11, 444000, Note_on_c, 10, 67, 127
11, 444564, Note_on_c, 10, 67, 0
11, 444600, Note_on_c, 10, 65, 127
11, 444684, Note_on_c, 10, 65, 0
11, 444720, Note_on_c, 10, 64, 127
11, 444804, Note_on_c, 10, 64, 0
11, 444840, Note_on_c, 10, 62, 127
11, 444924, Note_on_c, 10, 62, 0
11, 444960, Note_on_c, 10, 64, 127
11, 445044, Note_on_c, 10, 64, 0
11, 445080, Note_on_c, 10, 62, 127
11, 445164, Note_on_c, 10, 62, 0
11, 445200, Note_on_c, 10, 60, 127
11, 445284, Note_on_c, 10, 60, 0
11, 445320, Note_on_c, 10, 58, 127
11, 445404, Note_on_c, 10, 58, 0
11, 445440, Note_on_c, 10, 57, 127
11, 445608, Note_on_c, 10, 57, 0
11, 445680, Note_on_c, 10, 65, 127
11, 445764, Note_on_c, 10, 65, 0
11, 445800, Note_on_c, 10, 64, 127
11, 445884, Note_on_c, 10, 64, 0
11, 445920, Note_on_c, 10, 65, 127
11, 446004, Note_on_c, 10, 65, 0
11, 446040, Note_on_c, 10, 64, 127
11, 446124, Note_on_c, 10, 64, 0
11, 446160, Note_on_c, 10, 62, 127
11, 446244, Note_on_c, 10, 62, 0
11, 446280, Note_on_c, 10, 60, 127
11, 446364, Note_on_c, 10, 60, 0
11, 446400, Note_on_c, 10, 65, 127
11, 446568, Note_on_c, 10, 65, 0
11, 446640, Note_on_c, 10, 57, 127
11, 446724, Note_on_c, 10, 57, 0
11, 446760, Note_on_c, 10, 55, 127
11, 446844, Note_on_c, 10, 55, 0
11, 446880, Note_on_c, 10, 57, 127
11, 446964, Note_on_c, 10, 57, 0
11, 447000, Note_on_c, 10, 55, 127
11, 447084, Note_on_c, 10, 55, 0
11, 447120, Note_on_c, 10, 53, 127
11, 447204, Note_on_c, 10, 53, 0
11, 447240, Note_on_c, 10, 52, 127
11, 447324, Note_on_c, 10, 52, 0
11, 447360, Note_on_c, 10, 57, 127
11, 447528, Note_on_c, 10, 57, 0
11, 447600, Note_on_c, 10, 53, 127
11, 447684, Note_on_c, 10, 53, 0
11, 447720, Note_on_c, 10, 52, 127
11, 447804, Note_on_c, 10, 52, 0
11, 447840, Note_on_c, 10, 53, 127
11, 447924, Note_on_c, 10, 53, 0
11, 447960, Note_on_c, 10, 52, 127
11, 448044, Note_on_c, 10, 52, 0
11, 448080, Note_on_c, 10, 50, 127
11, 448164, Note_on_c, 10, 50, 0
11, 448200, Note_on_c, 10, 48, 127
11, 448284, Note_on_c, 10, 48, 0
11, 448320, Note_on_c, 10, 53, 127
11, 448488, Note_on_c, 10, 53, 0
11, 448560, Note_on_c, 10, 62, 127
11, 448644, Note_on_c, 10, 62, 0
11, 448680, Note_on_c, 10, 60, 127
11, 448764, Note_on_c, 10, 60, 0
11, 448800, Note_on_c, 10, 62, 127
11, 448884, Note_on_c, 10, 62, 0
11, 448920, Note_on_c, 10, 60, 127
11, 449004, Note_on_c, 10, 60, 0
11, 449040, Note_on_c, 10, 59, 127
11, 449124, Note_on_c, 10, 59, 0
11, 449160, Note_on_c, 10, 57, 127
11, 449244, Note_on_c, 10, 57, 0
11, 449280, Note_on_c, 10, 59, 127
11, 449400, Note_on_c, 10, 59, 0
11, 449520, Note_on_c, 10, 55, 127
11, 449640, Note_on_c, 10, 55, 0
11, 449760, Note_on_c, 10, 57, 127
11, 449880, Note_on_c, 10, 57, 0
11, 450000, Note_on_c, 10, 59, 127
11, 450120, Note_on_c, 10, 59, 0
11, 450240, Note_on_c, 10, 60, 127
11, 450360, Note_on_c, 10, 60, 0
11, 450480, Note_on_c, 10, 60, 127
11, 450600, Note_on_c, 10, 60, 0
11, 450720, Note_on_c, 10, 60, 127
11, 450840, Note_on_c, 10, 60, 0
11, 450960, Note_on_c, 10, 60, 127
11, 451080, Note_on_c, 10, 60, 0
11, 451200, Note_on_c, 10, 60, 127
11, 451320, Note_on_c, 10, 60, 0
11, 451440, Note_on_c, 10, 60, 127
11, 451560, Note_on_c, 10, 60, 0
11, 451680, Note_on_c, 10, 60, 127
11, 451800, Note_on_c, 10, 60, 0
11, 451920, Note_on_c, 10, 48, 127
11, 452040, Note_on_c, 10, 48, 0
11, 452160, Note_on_c, 10, 52, 127
11, 452280, Note_on_c, 10, 52, 0
11, 452400, Note_on_c, 10, 52, 127
11, 452520, Note_on_c, 10, 52, 0
11, 452640, Note_on_c, 10, 52, 127
11, 452760, Note_on_c, 10, 52, 0
11, 452880, Note_on_c, 10, 52, 127
11, 453000, Note_on_c, 10, 52, 0
11, 453120, Note_on_c, 10, 52, 127
11, 453240, Note_on_c, 10, 52, 0
11, 453360, Note_on_c, 10, 52, 127
11, 453480, Note_on_c, 10, 52, 0
11, 453600, Note_on_c, 10, 52, 127
11, 453720, Note_on_c, 10, 52, 0
11, 453840, Note_on_c, 10, 46, 127
11, 453960, Note_on_c, 10, 46, 0
11, 454080, Note_on_c, 10, 45, 127
11, 454200, Note_on_c, 10, 45, 0
11, 454320, Note_on_c, 10, 57, 127
11, 454440, Note_on_c, 10, 57, 0
11, 454560, Note_on_c, 10, 57, 127
11, 454680, Note_on_c, 10, 57, 0
11, 454800, Note_on_c, 10, 57, 127
11, 454920, Note_on_c, 10, 57, 0
11, 455040, Note_on_c, 10, 57, 127
11, 455160, Note_on_c, 10, 57, 0
11, 455280, Note_on_c, 10, 57, 127
11, 455400, Note_on_c, 10, 57, 0
11, 455520, Note_on_c, 10, 57, 127
11, 455640, Note_on_c, 10, 57, 0
11, 455760, Note_on_c, 10, 57, 127
11, 455880, Note_on_c, 10, 57, 0
11, 456000, Note_on_c, 10, 55, 127
11, 456120, Note_on_c, 10, 55, 0
11, 456240, Note_on_c, 10, 55, 127
11, 456360, Note_on_c, 10, 55, 0
11, 456480, Note_on_c, 10, 55, 127
11, 456600, Note_on_c, 10, 55, 0
11, 456720, Note_on_c, 10, 55, 127
11, 456840, Note_on_c, 10, 55, 0
11, 456960, Note_on_c, 10, 43, 127
11, 457080, Note_on_c, 10, 43, 0
11, 457200, Note_on_c, 10, 43, 127
11, 457320, Note_on_c, 10, 43, 0
11, 457440, Note_on_c, 10, 43, 127
11, 457560, Note_on_c, 10, 43, 0
11, 457680, Note_on_c, 10, 43, 127
11, 457800, Note_on_c, 10, 43, 0
11, 457920, Note_on_c, 10, 48, 127
11, 458040, Note_on_c, 10, 48, 0
11, 458160, Note_on_c, 10, 60, 127
11, 458280, Note_on_c, 10, 60, 0
11, 458400, Note_on_c, 10, 60, 127
11, 458520, Note_on_c, 10, 60, 0
11, 458640, Note_on_c, 10, 60, 127
11, 458760, Note_on_c, 10, 60, 0
11, 458880, Note_on_c, 10, 60, 127
11, 459600, Note_on_c, 10, 60, 0
11, 459600, Note_on_c, 10, 59, 127
11, 459660, Note_on_c, 10, 59, 0
11, 459660, Note_on_c, 10, 57, 127
11, 459720, Note_on_c, 10, 57, 0
11, 459720, Note_on_c, 10, 55, 127
11, 459780, Note_on_c, 10, 55, 0
11, 459780, Note_on_c, 10, 53, 127
11, 459840, Note_on_c, 10, 53, 0
11, 459840, Note_on_c, 10, 52, 127
11, 459960, Note_on_c, 10, 52, 0
11, 460080, Note_on_c, 10, 64, 127
11, 460200, Note_on_c, 10, 64, 0
11, 460320, Note_on_c, 10, 64, 127
11, 460440, Note_on_c, 10, 64, 0
11, 460560, Note_on_c, 10, 64, 127
11, 460680, Note_on_c, 10, 64, 0
11, 460800, Note_on_c, 10, 64, 127
11, 461520, Note_on_c, 10, 64, 0
11, 461520, Note_on_c, 10, 64, 127
11, 461580, Note_on_c, 10, 64, 0
11, 461580, Note_on_c, 10, 62, 127
11, 461640, Note_on_c, 10, 62, 0
11, 461640, Note_on_c, 10, 60, 127
11, 461700, Note_on_c, 10, 60, 0
11, 461700, Note_on_c, 10, 58, 127
11, 461760, Note_on_c, 10, 58, 0
11, 461760, Note_on_c, 10, 56, 127
11, 461880, Note_on_c, 10, 56, 0
11, 462000, Note_on_c, 10, 44, 127
11, 462120, Note_on_c, 10, 44, 0
11, 462240, Note_on_c, 10, 56, 127
11, 462360, Note_on_c, 10, 56, 0
11, 462480, Note_on_c, 10, 56, 127
11, 462600, Note_on_c, 10, 56, 0
11, 462720, Note_on_c, 10, 56, 127
11, 463440, Note_on_c, 10, 56, 0
11, 463440, Note_on_c, 10, 55, 127
11, 463560, Note_on_c, 10, 55, 0
11, 463680, Note_on_c, 10, 56, 127
11, 463800, Note_on_c, 10, 56, 0
11, 463920, Note_on_c, 10, 55, 127
11, 464040, Note_on_c, 10, 55, 0
11, 464160, Note_on_c, 10, 56, 127
11, 464280, Note_on_c, 10, 56, 0
11, 464400, Note_on_c, 10, 55, 127
11, 464520, Note_on_c, 10, 55, 0
11, 464640, Note_on_c, 10, 56, 127
11, 464760, Note_on_c, 10, 56, 0
11, 464880, Note_on_c, 10, 44, 127
11, 465000, Note_on_c, 10, 44, 0
11, 465120, Note_on_c, 10, 56, 127
11, 465240, Note_on_c, 10, 56, 0
11, 465360, Note_on_c, 10, 56, 127
11, 465480, Note_on_c, 10, 56, 0
11, 465600, Note_on_c, 10, 56, 127
11, 465720, Note_on_c, 10, 56, 0
11, 465840, Note_on_c, 10, 56, 127
11, 465960, Note_on_c, 10, 56, 0
11, 466080, Note_on_c, 10, 56, 127
11, 466200, Note_on_c, 10, 56, 0
11, 466320, Note_on_c, 10, 56, 127
11, 466440, Note_on_c, 10, 56, 0
11, 466560, Note_on_c, 10, 56, 127
11, 466680, Note_on_c, 10, 56, 0
11, 466800, Note_on_c, 10, 44, 127
11, 466920, Note_on_c, 10, 44, 0
11, 467040, Note_on_c, 10, 56, 127
11, 467160, Note_on_c, 10, 56, 0
11, 467280, Note_on_c, 10, 56, 127
11, 467400, Note_on_c, 10, 56, 0
11, 467520, Note_on_c, 10, 56, 127
11, 467640, Note_on_c, 10, 56, 0
11, 467760, Note_on_c, 10, 56, 127
11, 467880, Note_on_c, 10, 56, 0
11, 468000, Note_on_c, 10, 56, 127
11, 468120, Note_on_c, 10, 56, 0
11, 468240, Note_on_c, 10, 56, 127
11, 468360, Note_on_c, 10, 56, 0
11, 468480, Note_on_c, 10, 55, 127
11, 468600, Note_on_c, 10, 55, 0
11, 468720, Note_on_c, 10, 55, 127
11, 468840, Note_on_c, 10, 55, 0
11, 468960, Note_on_c, 10, 55, 127
11, 469080, Note_on_c, 10, 55, 0
11, 469200, Note_on_c, 10, 55, 127
11, 469320, Note_on_c, 10, 55, 0
11, 469440, Note_on_c, 10, 43, 127
11, 469560, Note_on_c, 10, 43, 0
11, 469680, Note_on_c, 10, 43, 127
11, 469800, Note_on_c, 10, 43, 0
11, 469920, Note_on_c, 10, 43, 127
11, 470040, Note_on_c, 10, 43, 0
11, 470160, Note_on_c, 10, 43, 127
11, 470280, Note_on_c, 10, 43, 0
11, 470400, Note_on_c, 10, 48, 127
11, 470640, Note_on_c, 10, 48, 0
11, 470880, Note_on_c, 10, 60, 127
11, 471105, Note_on_c, 10, 60, 0
11, 471240, Note_on_c, 10, 60, 127
11, 471360, Note_on_c, 10, 60, 0
11, 471360, Note_on_c, 10, 60, 127
11, 472080, Note_on_c, 10, 60, 0
11, 472080, Note_on_c, 10, 59, 127
11, 472200, Note_on_c, 10, 59, 0
11, 472200, Note_on_c, 10, 57, 127
11, 472320, Note_on_c, 10, 57, 0
11, 472320, Note_on_c, 10, 55, 127
11, 472440, Note_on_c, 10, 55, 0
11, 472440, Note_on_c, 10, 57, 127
11, 472560, Note_on_c, 10, 57, 0
11, 472560, Note_on_c, 10, 55, 127
11, 472680, Note_on_c, 10, 55, 0
11, 472680, Note_on_c, 10, 53, 127
11, 472800, Note_on_c, 10, 53, 0
11, 472800, Note_on_c, 10, 52, 127
11, 472920, Note_on_c, 10, 52, 0
11, 472920, Note_on_c, 10, 53, 127
11, 473040, Note_on_c, 10, 53, 0
11, 473040, Note_on_c, 10, 52, 127
11, 473160, Note_on_c, 10, 52, 0
11, 473160, Note_on_c, 10, 50, 127
11, 473280, Note_on_c, 10, 50, 0
11, 473280, Note_on_c, 10, 48, 127
11, 473616, Note_on_c, 10, 48, 0
11, 473760, Note_on_c, 10, 64, 127
11, 473928, Note_on_c, 10, 64, 0
11, 474120, Note_on_c, 10, 64, 127
11, 474204, Note_on_c, 10, 64, 0
11, 474240, Note_on_c, 10, 64, 127
11, 474888, Note_on_c, 10, 64, 0
11, 474960, Note_on_c, 10, 62, 127
11, 475044, Note_on_c, 10, 62, 0
11, 475080, Note_on_c, 10, 60, 127
11, 475164, Note_on_c, 10, 60, 0
11, 475200, Note_on_c, 10, 59, 127
11, 475284, Note_on_c, 10, 59, 0
11, 475320, Note_on_c, 10, 60, 127
11, 475404, Note_on_c, 10, 60, 0
11, 475440, Note_on_c, 10, 59, 127
11, 475524, Note_on_c, 10, 59, 0
11, 475560, Note_on_c, 10, 57, 127
11, 475644, Note_on_c, 10, 57, 0
11, 475680, Note_on_c, 10, 55, 127
11, 475764, Note_on_c, 10, 55, 0
11, 475800, Note_on_c, 10, 57, 127
11, 475884, Note_on_c, 10, 57, 0
11, 475920, Note_on_c, 10, 55, 127
11, 476004, Note_on_c, 10, 55, 0
11, 476040, Note_on_c, 10, 53, 127
11, 476124, Note_on_c, 10, 53, 0
11, 476160, Note_on_c, 10, 52, 127
11, 476496, Note_on_c, 10, 52, 0
11, 476640, Note_on_c, 10, 67, 127
11, 476808, Note_on_c, 10, 67, 0
11, 477000, Note_on_c, 10, 67, 127
11, 477084, Note_on_c, 10, 67, 0
11, 477120, Note_on_c, 10, 67, 127
11, 477768, Note_on_c, 10, 67, 0
11, 477840, Note_on_c, 10, 65, 127
11, 477924, Note_on_c, 10, 65, 0
11, 477960, Note_on_c, 10, 64, 127
11, 478044, Note_on_c, 10, 64, 0
11, 478080, Note_on_c, 10, 62, 127
11, 478164, Note_on_c, 10, 62, 0
11, 478200, Note_on_c, 10, 64, 127
11, 478284, Note_on_c, 10, 64, 0
11, 478320, Note_on_c, 10, 62, 127
11, 478404, Note_on_c, 10, 62, 0
11, 478440, Note_on_c, 10, 60, 127
11, 478524, Note_on_c, 10, 60, 0
11, 478560, Note_on_c, 10, 59, 127
11, 478644, Note_on_c, 10, 59, 0
11, 478680, Note_on_c, 10, 60, 127
11, 478764, Note_on_c, 10, 60, 0
11, 478800, Note_on_c, 10, 59, 127
11, 478884, Note_on_c, 10, 59, 0
11, 478920, Note_on_c, 10, 57, 127
11, 479004, Note_on_c, 10, 57, 0
11, 479040, Note_on_c, 10, 55, 127
11, 479376, Note_on_c, 10, 55, 0
11, 479520, Note_on_c, 10, 59, 89
11, 479856, Note_on_c, 10, 59, 0
11, 480000, Note_on_c, 10, 60, 50
11, 480120, Note_on_c, 10, 60, 0
11, 480240, Note_on_c, 10, 59, 53
11, 480360, Note_on_c, 10, 59, 0
11, 480480, Note_on_c, 10, 57, 56
11, 480600, Note_on_c, 10, 57, 0
11, 480720, Note_on_c, 10, 56, 59
11, 480840, Note_on_c, 10, 56, 0
11, 480960, Note_on_c, 10, 57, 62
11, 481080, Note_on_c, 10, 57, 0
11, 481200, Note_on_c, 10, 55, 66
11, 481320, Note_on_c, 10, 55, 0
11, 481440, Note_on_c, 10, 53, 69
11, 481560, Note_on_c, 10, 53, 0
11, 481680, Note_on_c, 10, 52, 72
11, 481800, Note_on_c, 10, 52, 0
11, 481920, Note_on_c, 10, 53, 75
11, 482040, Note_on_c, 10, 53, 0
11, 482160, Note_on_c, 10, 54, 78
11, 482280, Note_on_c, 10, 54, 0
11, 482400, Note_on_c, 10, 55, 82
11, 482640, Note_on_c, 10, 55, 0
11, 482880, Note_on_c, 10, 60, 88
11, 483000, Note_on_c, 10, 60, 0
11, 483120, Note_on_c, 10, 59, 91
11, 483240, Note_on_c, 10, 59, 0
11, 483360, Note_on_c, 10, 57, 94
11, 483480, Note_on_c, 10, 57, 0
11, 483600, Note_on_c, 10, 56, 98
11, 483720, Note_on_c, 10, 56, 0
11, 483840, Note_on_c, 10, 57, 101
11, 483960, Note_on_c, 10, 57, 0
11, 484080, Note_on_c, 10, 55, 104
11, 484200, Note_on_c, 10, 55, 0
11, 484320, Note_on_c, 10, 53, 107
11, 484440, Note_on_c, 10, 53, 0
11, 484560, Note_on_c, 10, 52, 110
11, 484680, Note_on_c, 10, 52, 0
11, 484800, Note_on_c, 10, 53, 114
11, 484920, Note_on_c, 10, 53, 0
11, 485040, Note_on_c, 10, 54, 117
11, 485160, Note_on_c, 10, 54, 0
11, 485280, Note_on_c, 10, 55, 120
11, 485400, Note_on_c, 10, 55, 0
11, 485520, Note_on_c, 10, 43, 123
11, 485640, Note_on_c, 10, 43, 0
11, 485760, Note_on_c, 10, 48, 127
11, 485880, Note_on_c, 10, 48, 0
11, 486000, Note_on_c, 10, 60, 50
11, 486120, Note_on_c, 10, 60, 0
11, 486240, Note_on_c, 10, 60, 50
11, 486360, Note_on_c, 10, 60, 0
11, 486480, Note_on_c, 10, 60, 50
11, 486600, Note_on_c, 10, 60, 0
11, 486720, Note_on_c, 10, 60, 50
11, 486840, Note_on_c, 10, 60, 0
11, 486960, Note_on_c, 10, 60, 50
11, 487080, Note_on_c, 10, 60, 0
11, 487200, Note_on_c, 10, 60, 50
11, 487320, Note_on_c, 10, 60, 0
11, 487440, Note_on_c, 10, 60, 50
11, 487560, Note_on_c, 10, 60, 0
11, 487680, Note_on_c, 10, 60, 50
11, 487800, Note_on_c, 10, 60, 0
11, 487920, Note_on_c, 10, 60, 50
11, 488040, Note_on_c, 10, 60, 0
11, 488160, Note_on_c, 10, 60, 50
11, 488280, Note_on_c, 10, 60, 0
11, 488400, Note_on_c, 10, 60, 50
11, 488520, Note_on_c, 10, 60, 0
11, 488640, Note_on_c, 10, 60, 50
11, 489120, Note_on_c, 10, 60, 0
11, 489600, Note_on_c, 10, 48, 50
11, 490080, Note_on_c, 10, 48, 0
11, 490560, Note_on_c, 10, 43, 50
11, 491040, Note_on_c, 10, 43, 0
11, 491520, Note_on_c, 10, 48, 50
11, 491904, Note_on_c, 10, 48, 0
11, 492000, Note_on_c, 10, 58, 127
11, 492225, Note_on_c, 10, 58, 0
11, 492360, Note_on_c, 10, 58, 127
11, 492456, Note_on_c, 10, 58, 0
11, 492480, Note_on_c, 10, 58, 127
11, 493152, Note_on_c, 10, 58, 0
11, 493200, Note_on_c, 10, 58, 127
11, 493272, Note_on_c, 10, 58, 0
11, 493320, Note_on_c, 10, 57, 127
11, 493392, Note_on_c, 10, 57, 0
11, 493440, Note_on_c, 10, 55, 127
11, 493512, Note_on_c, 10, 55, 0
11, 493560, Note_on_c, 10, 57, 127
11, 493632, Note_on_c, 10, 57, 0
11, 493680, Note_on_c, 10, 55, 127
11, 493752, Note_on_c, 10, 55, 0
11, 493800, Note_on_c, 10, 53, 127
11, 493872, Note_on_c, 10, 53, 0
11, 493920, Note_on_c, 10, 52, 127
11, 493992, Note_on_c, 10, 52, 0
11, 494040, Note_on_c, 10, 53, 127
11, 494112, Note_on_c, 10, 53, 0
11, 494160, Note_on_c, 10, 52, 127
11, 494232, Note_on_c, 10, 52, 0
11, 494280, Note_on_c, 10, 50, 127
11, 494352, Note_on_c, 10, 50, 0
11, 494400, Note_on_c, 10, 48, 127
11, 494880, Note_on_c, 10, 48, 0
11, 497280, Note_on_c, 10, 67, 50
11, 498240, Note_on_c, 10, 67, 0
11, 498240, Note_on_c, 10, 65, 50
11, 499200, Note_on_c, 10, 65, 0
11, 499200, Note_on_c, 10, 59, 50
11, 500160, Note_on_c, 10, 59, 0
11, 500160, Note_on_c, 10, 60, 50
11, 501120, Note_on_c, 10, 60, 0
11, 501120, Note_on_c, 10, 65, 50
11, 502080, Note_on_c, 10, 65, 0
11, 502080, Note_on_c, 10, 64, 50
11, 503040, Note_on_c, 10, 64, 0
11, 503040, Note_on_c, 10, 63, 50
11, 504000, Note_on_c, 10, 63, 0
11, 504000, Note_on_c, 10, 62, 50
11, 504960, Note_on_c, 10, 62, 0
11, 504960, Note_on_c, 10, 56, 50
11, 505920, Note_on_c, 10, 56, 0
11, 505920, Note_on_c, 10, 55, 50
11, 506880, Note_on_c, 10, 55, 0
11, 506880, Note_on_c, 10, 60, 52
11, 507840, Note_on_c, 10, 60, 0
11, 507840, Note_on_c, 10, 62, 54
11, 508800, Note_on_c, 10, 62, 0
11, 508800, Note_on_c, 10, 65, 57
11, 509760, Note_on_c, 10, 65, 0
11, 509760, Note_on_c, 10, 64, 59
11, 510720, Note_on_c, 10, 64, 0
11, 510960, Note_on_c, 10, 55, 62
11, 511080, Note_on_c, 10, 55, 0
11, 511200, Note_on_c, 10, 57, 63
11, 511320, Note_on_c, 10, 57, 0
11, 511440, Note_on_c, 10, 59, 64
11, 511560, Note_on_c, 10, 59, 0
11, 511680, Note_on_c, 10, 62, 64
11, 511740, Note_on_c, 10, 62, 0
11, 511740, Note_on_c, 10, 60, 64
11, 511800, Note_on_c, 10, 60, 0
11, 511800, Note_on_c, 10, 62, 65
11, 511860, Note_on_c, 10, 62, 0
11, 511860, Note_on_c, 10, 60, 65
11, 511920, Note_on_c, 10, 60, 0
11, 512040, Note_on_c, 10, 62, 65
11, 512124, Note_on_c, 10, 62, 0
11, 512160, Note_on_c, 10, 64, 66
11, 512544, Note_on_c, 10, 64, 0
11, 512880, Note_on_c, 10, 50, 67
11, 513000, Note_on_c, 10, 50, 0
11, 513120, Note_on_c, 10, 52, 68
11, 513240, Note_on_c, 10, 52, 0
11, 513360, Note_on_c, 10, 54, 69
11, 513480, Note_on_c, 10, 54, 0
11, 513600, Note_on_c, 10, 57, 69
11, 513660, Note_on_c, 10, 57, 0
11, 513660, Note_on_c, 10, 55, 69
11, 513720, Note_on_c, 10, 55, 0
11, 513720, Note_on_c, 10, 57, 70
11, 513780, Note_on_c, 10, 57, 0
11, 513780, Note_on_c, 10, 55, 70
11, 513840, Note_on_c, 10, 55, 0
11, 513960, Note_on_c, 10, 57, 70
11, 514044, Note_on_c, 10, 57, 0
11, 514080, Note_on_c, 10, 59, 70
11, 514464, Note_on_c, 10, 59, 0
11, 515760, Note_on_c, 10, 69, 75
11, 515880, Note_on_c, 10, 69, 0
11, 516000, Note_on_c, 10, 62, 75
11, 516120, Note_on_c, 10, 62, 0
11, 516240, Note_on_c, 10, 65, 76
11, 516360, Note_on_c, 10, 65, 0
11, 516480, Note_on_c, 10, 55, 77
11, 516600, Note_on_c, 10, 55, 0
11, 516720, Note_on_c, 10, 59, 77
11, 516840, Note_on_c, 10, 59, 0
11, 516960, Note_on_c, 10, 60, 78
11, 517080, Note_on_c, 10, 60, 0
11, 517200, Note_on_c, 10, 62, 78
11, 517320, Note_on_c, 10, 62, 0
11, 517440, Note_on_c, 10, 65, 79
11, 517500, Note_on_c, 10, 65, 0
11, 517500, Note_on_c, 10, 64, 79
11, 517560, Note_on_c, 10, 64, 0
11, 517560, Note_on_c, 10, 65, 79
11, 517620, Note_on_c, 10, 65, 0
11, 517620, Note_on_c, 10, 64, 80
11, 517680, Note_on_c, 10, 64, 0
11, 517800, Note_on_c, 10, 65, 80
11, 517884, Note_on_c, 10, 65, 0
11, 517920, Note_on_c, 10, 67, 80
11, 518400, Note_on_c, 10, 67, 0
11, 518880, Note_on_c, 10, 67, 83
11, 519240, Note_on_c, 10, 67, 0
11, 519240, Note_on_c, 10, 67, 84
11, 519360, Note_on_c, 10, 67, 0
11, 519360, Note_on_c, 10, 67, 84
11, 520080, Note_on_c, 10, 67, 0
11, 520080, Note_on_c, 10, 65, 86
11, 520164, Note_on_c, 10, 65, 0
11, 520200, Note_on_c, 10, 64, 86
11, 520284, Note_on_c, 10, 64, 0
11, 520320, Note_on_c, 10, 62, 86
11, 520404, Note_on_c, 10, 62, 0
11, 520440, Note_on_c, 10, 64, 87
11, 520524, Note_on_c, 10, 64, 0
11, 520560, Note_on_c, 10, 62, 87
11, 520644, Note_on_c, 10, 62, 0
11, 520680, Note_on_c, 10, 60, 87
11, 520764, Note_on_c, 10, 60, 0
11, 520800, Note_on_c, 10, 59, 88
11, 520884, Note_on_c, 10, 59, 0
11, 520920, Note_on_c, 10, 60, 88
11, 521004, Note_on_c, 10, 60, 0
11, 521040, Note_on_c, 10, 59, 88
11, 521124, Note_on_c, 10, 59, 0
11, 521160, Note_on_c, 10, 57, 89
11, 521244, Note_on_c, 10, 57, 0
11, 521280, Note_on_c, 10, 55, 89
11, 521616, Note_on_c, 10, 55, 0
11, 521760, Note_on_c, 10, 67, 90
11, 522096, Note_on_c, 10, 67, 0
11, 522240, Note_on_c, 10, 64, 91
11, 522576, Note_on_c, 10, 64, 0
11, 522720, Note_on_c, 10, 69, 93
11, 523284, Note_on_c, 10, 69, 0
11, 523320, Note_on_c, 10, 67, 94
11, 523404, Note_on_c, 10, 67, 0
11, 523440, Note_on_c, 10, 65, 94
11, 523524, Note_on_c, 10, 65, 0
11, 523560, Note_on_c, 10, 64, 95
11, 523644, Note_on_c, 10, 64, 0
11, 523680, Note_on_c, 10, 65, 95
11, 523764, Note_on_c, 10, 65, 0
11, 523800, Note_on_c, 10, 64, 95
11, 523884, Note_on_c, 10, 64, 0
11, 523920, Note_on_c, 10, 62, 96
11, 524004, Note_on_c, 10, 62, 0
11, 524040, Note_on_c, 10, 60, 96
11, 524124, Note_on_c, 10, 60, 0
11, 524160, Note_on_c, 10, 59, 96
11, 524496, Note_on_c, 10, 59, 0
11, 524640, Note_on_c, 10, 67, 98
11, 524976, Note_on_c, 10, 67, 0
11, 526080, Note_on_c, 10, 55, 101
11, 526992, Note_on_c, 10, 55, 0
11, 527040, Note_on_c, 10, 57, 104
11, 527952, Note_on_c, 10, 57, 0
11, 528000, Note_on_c, 10, 60, 106
11, 528912, Note_on_c, 10, 60, 0
11, 528960, Note_on_c, 10, 59, 109
11, 529872, Note_on_c, 10, 59, 0
11, 530160, Note_on_c, 10, 60, 112
11, 530280, Note_on_c, 10, 60, 0
11, 530400, Note_on_c, 10, 62, 112
11, 530520, Note_on_c, 10, 62, 0
11, 530640, Note_on_c, 10, 64, 113
11, 530760, Note_on_c, 10, 64, 0
11, 530880, Note_on_c, 10, 64, 114
11, 530940, Note_on_c, 10, 64, 0
11, 530940, Note_on_c, 10, 62, 114
11, 531000, Note_on_c, 10, 62, 0
11, 531000, Note_on_c, 10, 64, 114
11, 531060, Note_on_c, 10, 64, 0
11, 531060, Note_on_c, 10, 62, 114
11, 531120, Note_on_c, 10, 62, 0
11, 531240, Note_on_c, 10, 64, 114
11, 531324, Note_on_c, 10, 64, 0
11, 531360, Note_on_c, 10, 65, 115
11, 531744, Note_on_c, 10, 65, 0
11, 532080, Note_on_c, 10, 55, 117
11, 532200, Note_on_c, 10, 55, 0
11, 532320, Note_on_c, 10, 57, 117
11, 532440, Note_on_c, 10, 57, 0
11, 532560, Note_on_c, 10, 59, 118
11, 532680, Note_on_c, 10, 59, 0
11, 532800, Note_on_c, 10, 62, 118
11, 532860, Note_on_c, 10, 62, 0
11, 532860, Note_on_c, 10, 60, 119
11, 532920, Note_on_c, 10, 60, 0
11, 532920, Note_on_c, 10, 62, 119
11, 532980, Note_on_c, 10, 62, 0
11, 532980, Note_on_c, 10, 60, 119
11, 533040, Note_on_c, 10, 60, 0
11, 533160, Note_on_c, 10, 62, 119
11, 533244, Note_on_c, 10, 62, 0
11, 533280, Note_on_c, 10, 64, 120
11, 533664, Note_on_c, 10, 64, 0
11, 534000, Note_on_c, 10, 69, 122
11, 534120, Note_on_c, 10, 69, 0
11, 534240, Note_on_c, 10, 62, 122
11, 534360, Note_on_c, 10, 62, 0
11, 534480, Note_on_c, 10, 65, 123
11, 534600, Note_on_c, 10, 65, 0
11, 534720, Note_on_c, 10, 55, 123
11, 534804, Note_on_c, 10, 55, 0
11, 534840, Note_on_c, 10, 57, 124
11, 534924, Note_on_c, 10, 57, 0
11, 534960, Note_on_c, 10, 55, 124
11, 535044, Note_on_c, 10, 55, 0
11, 535080, Note_on_c, 10, 53, 124
11, 535164, Note_on_c, 10, 53, 0
11, 535200, Note_on_c, 10, 52, 125
11, 535284, Note_on_c, 10, 52, 0
11, 535320, Note_on_c, 10, 53, 125
11, 535404, Note_on_c, 10, 53, 0
11, 535440, Note_on_c, 10, 52, 125
11, 535524, Note_on_c, 10, 52, 0
11, 535560, Note_on_c, 10, 50, 126
11, 535644, Note_on_c, 10, 50, 0
11, 535680, Note_on_c, 10, 48, 126
11, 535800, Note_on_c, 10, 48, 0
11, 535920, Note_on_c, 10, 41, 127
11, 536040, Note_on_c, 10, 41, 0
11, 536160, Note_on_c, 10, 53, 127
11, 536280, Note_on_c, 10, 53, 0
11, 536400, Note_on_c, 10, 53, 127
11, 536520, Note_on_c, 10, 53, 0
11, 536640, Note_on_c, 10, 53, 127
11, 536760, Note_on_c, 10, 53, 0
11, 536880, Note_on_c, 10, 53, 127
11, 537000, Note_on_c, 10, 53, 0
11, 537120, Note_on_c, 10, 53, 127
11, 537240, Note_on_c, 10, 53, 0
11, 537360, Note_on_c, 10, 53, 127
11, 537480, Note_on_c, 10, 53, 0
11, 537600, Note_on_c, 10, 55, 127
11, 537720, Note_on_c, 10, 55, 0
11, 537840, Note_on_c, 10, 55, 127
11, 537960, Note_on_c, 10, 55, 0
11, 538080, Note_on_c, 10, 43, 127
11, 538200, Note_on_c, 10, 43, 0
11, 538320, Note_on_c, 10, 43, 127
11, 538440, Note_on_c, 10, 43, 0
11, 538560, Note_on_c, 10, 48, 127
11, 538680, Note_on_c, 10, 48, 0
11, 538800, Note_on_c, 10, 41, 127
11, 538920, Note_on_c, 10, 41, 0
11, 539040, Note_on_c, 10, 53, 127
11, 539160, Note_on_c, 10, 53, 0
11, 539280, Note_on_c, 10, 53, 127
11, 539400, Note_on_c, 10, 53, 0
11, 539520, Note_on_c, 10, 53, 127
11, 539640, Note_on_c, 10, 53, 0
11, 539760, Note_on_c, 10, 53, 127
11, 539880, Note_on_c, 10, 53, 0
11, 540000, Note_on_c, 10, 53, 127
11, 540120, Note_on_c, 10, 53, 0
11, 540240, Note_on_c, 10, 53, 127
11, 540360, Note_on_c, 10, 53, 0
11, 540480, Note_on_c, 10, 55, 127
11, 540600, Note_on_c, 10, 55, 0
11, 540720, Note_on_c, 10, 55, 127
11, 540840, Note_on_c, 10, 55, 0
11, 540960, Note_on_c, 10, 43, 127
11, 541080, Note_on_c, 10, 43, 0
11, 541200, Note_on_c, 10, 43, 127
11, 541320, Note_on_c, 10, 43, 0
11, 541440, Note_on_c, 10, 48, 127
11, 541680, Note_on_c, 10, 48, 0
11, 541920, Note_on_c, 10, 60, 127
11, 542145, Note_on_c, 10, 60, 0
11, 542280, Note_on_c, 10, 60, 127
11, 542400, Note_on_c, 10, 60, 0
11, 542400, Note_on_c, 10, 60, 127
11, 543048, Note_on_c, 10, 60, 0
11, 543120, Note_on_c, 10, 59, 127
11, 543204, Note_on_c, 10, 59, 0
11, 543240, Note_on_c, 10, 57, 127
11, 543324, Note_on_c, 10, 57, 0
11, 543360, Note_on_c, 10, 55, 127
11, 543444, Note_on_c, 10, 55, 0
11, 543480, Note_on_c, 10, 57, 127
11, 543564, Note_on_c, 10, 57, 0
11, 543600, Note_on_c, 10, 55, 127
11, 543684, Note_on_c, 10, 55, 0
11, 543720, Note_on_c, 10, 53, 127
11, 543804, Note_on_c, 10, 53, 0
11, 543840, Note_on_c, 10, 52, 127
11, 543924, Note_on_c, 10, 52, 0
11, 543960, Note_on_c, 10, 53, 127
11, 544044, Note_on_c, 10, 53, 0
11, 544080, Note_on_c, 10, 52, 127
11, 544164, Note_on_c, 10, 52, 0
11, 544200, Note_on_c, 10, 50, 127
11, 544284, Note_on_c, 10, 50, 0
11, 544320, Note_on_c, 10, 48, 127
11, 544404, Note_on_c, 10, 48, 0
11, 544440, Note_on_c, 10, 43, 127
11, 544524, Note_on_c, 10, 43, 0
11, 544560, Note_on_c, 10, 45, 127
11, 544644, Note_on_c, 10, 45, 0
11, 544680, Note_on_c, 10, 47, 127
11, 544764, Note_on_c, 10, 47, 0
11, 544800, Note_on_c, 10, 48, 127
11, 544884, Note_on_c, 10, 48, 0
11, 544920, Note_on_c, 10, 47, 127
11, 545004, Note_on_c, 10, 47, 0
11, 545040, Note_on_c, 10, 48, 127
11, 545124, Note_on_c, 10, 48, 0
11, 545160, Note_on_c, 10, 50, 127
11, 545244, Note_on_c, 10, 50, 0
11, 545280, Note_on_c, 10, 52, 127
11, 545364, Note_on_c, 10, 52, 0
11, 545400, Note_on_c, 10, 50, 127
11, 545484, Note_on_c, 10, 50, 0
11, 545520, Note_on_c, 10, 48, 127
11, 545604, Note_on_c, 10, 48, 0
11, 545640, Note_on_c, 10, 50, 127
11, 545724, Note_on_c, 10, 50, 0
11, 545760, Note_on_c, 10, 52, 127
11, 545844, Note_on_c, 10, 52, 0
11, 545880, Note_on_c, 10, 50, 127
11, 545964, Note_on_c, 10, 50, 0
11, 546000, Note_on_c, 10, 52, 127
11, 546084, Note_on_c, 10, 52, 0
11, 546120, Note_on_c, 10, 53, 127
11, 546204, Note_on_c, 10, 53, 0
11, 546240, Note_on_c, 10, 55, 127
11, 546324, Note_on_c, 10, 55, 0
11, 546360, Note_on_c, 10, 54, 127
11, 546444, Note_on_c, 10, 54, 0
11, 546480, Note_on_c, 10, 55, 127
11, 546564, Note_on_c, 10, 55, 0
11, 546600, Note_on_c, 10, 57, 127
11, 546684, Note_on_c, 10, 57, 0
11, 546720, Note_on_c, 10, 59, 127
11, 546804, Note_on_c, 10, 59, 0
11, 546840, Note_on_c, 10, 55, 127
11, 546924, Note_on_c, 10, 55, 0
11, 546960, Note_on_c, 10, 57, 127
11, 547044, Note_on_c, 10, 57, 0
11, 547080, Note_on_c, 10, 59, 127
11, 547164, Note_on_c, 10, 59, 0
11, 547200, Note_on_c, 10, 60, 127
11, 547440, Note_on_c, 10, 60, 0
11, 547680, Note_on_c, 10, 60, 127
11, 547905, Note_on_c, 10, 60, 0
11, 548040, Note_on_c, 10, 60, 127
11, 548160, Note_on_c, 10, 60, 0
11, 548160, Note_on_c, 10, 60, 127
11, 548880, Note_on_c, 10, 60, 0
11, 548880, Note_on_c, 10, 59, 127
11, 548964, Note_on_c, 10, 59, 0
11, 549000, Note_on_c, 10, 57, 127
11, 549084, Note_on_c, 10, 57, 0
11, 549120, Note_on_c, 10, 55, 127
11, 549204, Note_on_c, 10, 55, 0
11, 549240, Note_on_c, 10, 57, 127
11, 549324, Note_on_c, 10, 57, 0
11, 549360, Note_on_c, 10, 55, 127
11, 549444, Note_on_c, 10, 55, 0
11, 549480, Note_on_c, 10, 53, 127
11, 549564, Note_on_c, 10, 53, 0
11, 549600, Note_on_c, 10, 52, 127
11, 549684, Note_on_c, 10, 52, 0
11, 549720, Note_on_c, 10, 53, 127
11, 549804, Note_on_c, 10, 53, 0
11, 549840, Note_on_c, 10, 52, 127
11, 549924, Note_on_c, 10, 52, 0
11, 549960, Note_on_c, 10, 50, 127
11, 550044, Note_on_c, 10, 50, 0
11, 550080, Note_on_c, 10, 48, 127
11, 550200, Note_on_c, 10, 48, 0
11, 550320, Note_on_c, 10, 55, 127
11, 550440, Note_on_c, 10, 55, 0
11, 550560, Note_on_c, 10, 60, 127
11, 550680, Note_on_c, 10, 60, 0
11, 550800, Note_on_c, 10, 55, 127
11, 550920, Note_on_c, 10, 55, 0
11, 551040, Note_on_c, 10, 60, 127
11, 551160, Note_on_c, 10, 60, 0
11, 551280, Note_on_c, 10, 55, 127
11, 551400, Note_on_c, 10, 55, 0
11, 551520, Note_on_c, 10, 60, 127
11, 551640, Note_on_c, 10, 60, 0
11, 551760, Note_on_c, 10, 55, 127
11, 551880, Note_on_c, 10, 55, 0
11, 552000, Note_on_c, 10, 60, 127
11, 552480, Note_on_c, 10, 60, 0
11, 552960, Note_on_c, 10, 48, 127
11, 553344, Note_on_c, 10, 48, 0
11, 553440, Note_on_c, 10, 60, 127
11, 553824, Note_on_c, 10, 60, 0
11, 553920, Note_on_c, 10, 48, 127
11, 554513, Note_on_c, 10, 48, 0
11, 554880, Note_on_c, 10, 48, 127
11, 555288, Note_on_c, 10, 48, 0
11, 555360, Note_on_c, 10, 60, 127
11, 555768, Note_on_c, 10, 60, 0
11, 555840, Note_on_c, 10, 48, 127
11, 556524, Note_on_c, 10, 48, 0
11, 556524, End_track
12, 0, Start_track
12, 0, Title_t, "Bassi"
12, 0, Program_c, 11, 48
12, 0, Control_c, 11, 7, 110
12, 0, Control_c, 11, 10, 120
12, 3840, Note_on_c, 11, 41, 50
12, 4800, Note_on_c, 11, 41, 0
12, 4800, Note_on_c, 11, 40, 50
12, 5760, Note_on_c, 11, 40, 0
12, 5760, Note_on_c, 11, 38, 50
12, 6000, Note_on_c, 11, 38, 0
12, 6240, Note_on_c, 11, 36, 50
12, 6480, Note_on_c, 11, 36, 0
12, 6720, Note_on_c, 11, 31, 50
12, 6960, Note_on_c, 11, 31, 0
12, 8400, Note_on_c, 11, 36, 100
12, 8480, Note_on_c, 11, 36, 0
12, 8480, Note_on_c, 11, 35, 100
12, 8560, Note_on_c, 11, 35, 0
12, 8560, Note_on_c, 11, 33, 100
12, 8640, Note_on_c, 11, 33, 0
12, 8640, Note_on_c, 11, 31, 100
12, 9120, Note_on_c, 11, 31, 0
12, 9360, Note_on_c, 11, 50, 100
12, 9420, Note_on_c, 11, 50, 0
12, 9420, Note_on_c, 11, 48, 100
12, 9480, Note_on_c, 11, 48, 0
12, 9480, Note_on_c, 11, 47, 100
12, 9540, Note_on_c, 11, 47, 0
12, 9540, Note_on_c, 11, 45, 100
12, 9600, Note_on_c, 11, 45, 0
12, 9600, Note_on_c, 11, 43, 100
12, 10080, Note_on_c, 11, 43, 0
12, 10320, Note_on_c, 11, 43, 100
12, 10380, Note_on_c, 11, 43, 0
12, 10380, Note_on_c, 11, 41, 100
12, 10440, Note_on_c, 11, 41, 0
12, 10440, Note_on_c, 11, 40, 100
12, 10500, Note_on_c, 11, 40, 0
12, 10500, Note_on_c, 11, 38, 100
12, 10560, Note_on_c, 11, 38, 0
12, 10560, Note_on_c, 11, 36, 100
12, 11040, Note_on_c, 11, 36, 0
12, 11280, Note_on_c, 11, 36, 100
12, 11340, Note_on_c, 11, 36, 0
12, 11340, Note_on_c, 11, 35, 100
12, 11400, Note_on_c, 11, 35, 0
12, 11400, Note_on_c, 11, 33, 100
12, 11460, Note_on_c, 11, 33, 0
12, 11460, Note_on_c, 11, 31, 100
12, 11520, Note_on_c, 11, 31, 0
12, 11520, Note_on_c, 11, 29, 100
12, 11640, Note_on_c, 11, 29, 0
12, 11760, Note_on_c, 11, 41, 127
12, 11880, Note_on_c, 11, 41, 0
12, 12000, Note_on_c, 11, 41, 127
12, 12120, Note_on_c, 11, 41, 0
12, 12240, Note_on_c, 11, 41, 127
12, 12360, Note_on_c, 11, 41, 0
12, 12480, Note_on_c, 11, 41, 127
12, 12600, Note_on_c, 11, 41, 0
12, 12720, Note_on_c, 11, 41, 127
12, 12840, Note_on_c, 11, 41, 0
12, 12960, Note_on_c, 11, 41, 127
12, 13080, Note_on_c, 11, 41, 0
12, 13200, Note_on_c, 11, 41, 127
12, 13320, Note_on_c, 11, 41, 0
12, 13440, Note_on_c, 11, 43, 127
12, 13560, Note_on_c, 11, 43, 0
12, 13680, Note_on_c, 11, 43, 127
12, 13800, Note_on_c, 11, 43, 0
12, 13920, Note_on_c, 11, 31, 127
12, 14040, Note_on_c, 11, 31, 0
12, 14160, Note_on_c, 11, 31, 127
12, 14280, Note_on_c, 11, 31, 0
12, 14400, Note_on_c, 11, 36, 127
12, 14520, Note_on_c, 11, 36, 0
12, 14640, Note_on_c, 11, 29, 127
12, 14760, Note_on_c, 11, 29, 0
12, 14880, Note_on_c, 11, 41, 127
12, 15000, Note_on_c, 11, 41, 0
12, 15120, Note_on_c, 11, 41, 127
12, 15240, Note_on_c, 11, 41, 0
12, 15360, Note_on_c, 11, 41, 127
12, 15480, Note_on_c, 11, 41, 0
12, 15600, Note_on_c, 11, 41, 127
12, 15720, Note_on_c, 11, 41, 0
12, 15840, Note_on_c, 11, 41, 127
12, 15960, Note_on_c, 11, 41, 0
12, 16080, Note_on_c, 11, 41, 127
12, 16200, Note_on_c, 11, 41, 0
12, 16320, Note_on_c, 11, 43, 127
12, 16440, Note_on_c, 11, 43, 0
12, 16560, Note_on_c, 11, 43, 127
12, 16680, Note_on_c, 11, 43, 0
12, 16800, Note_on_c, 11, 31, 127
12, 16920, Note_on_c, 11, 31, 0
12, 17040, Note_on_c, 11, 31, 127
12, 17160, Note_on_c, 11, 31, 0
12, 17280, Note_on_c, 11, 36, 127
12, 17520, Note_on_c, 11, 36, 0
12, 17760, Note_on_c, 11, 48, 127
12, 17985, Note_on_c, 11, 48, 0
12, 18120, Note_on_c, 11, 48, 127
12, 18240, Note_on_c, 11, 48, 0
12, 18240, Note_on_c, 11, 48, 127
12, 18936, Note_on_c, 11, 48, 0
12, 18960, Note_on_c, 11, 47, 127
12, 19080, Note_on_c, 11, 47, 0
12, 19080, Note_on_c, 11, 45, 127
12, 19200, Note_on_c, 11, 45, 0
12, 19200, Note_on_c, 11, 43, 127
12, 19284, Note_on_c, 11, 43, 0
12, 19320, Note_on_c, 11, 45, 127
12, 19404, Note_on_c, 11, 45, 0
12, 19440, Note_on_c, 11, 43, 127
12, 19524, Note_on_c, 11, 43, 0
12, 19560, Note_on_c, 11, 41, 127
12, 19644, Note_on_c, 11, 41, 0
12, 19680, Note_on_c, 11, 40, 127
12, 19764, Note_on_c, 11, 40, 0
12, 19800, Note_on_c, 11, 41, 127
12, 19884, Note_on_c, 11, 41, 0
12, 19920, Note_on_c, 11, 40, 127
12, 20004, Note_on_c, 11, 40, 0
12, 20040, Note_on_c, 11, 38, 127
12, 20124, Note_on_c, 11, 38, 0
12, 20160, Note_on_c, 11, 36, 127
12, 20232, Note_on_c, 11, 36, 0
12, 20280, Note_on_c, 11, 31, 127
12, 20352, Note_on_c, 11, 31, 0
12, 20400, Note_on_c, 11, 33, 127
12, 20472, Note_on_c, 11, 33, 0
12, 20520, Note_on_c, 11, 35, 127
12, 20592, Note_on_c, 11, 35, 0
12, 20640, Note_on_c, 11, 36, 127
12, 20712, Note_on_c, 11, 36, 0
12, 20760, Note_on_c, 11, 35, 127
12, 20832, Note_on_c, 11, 35, 0
12, 20880, Note_on_c, 11, 36, 127
12, 20952, Note_on_c, 11, 36, 0
12, 21000, Note_on_c, 11, 38, 127
12, 21072, Note_on_c, 11, 38, 0
12, 21120, Note_on_c, 11, 40, 127
12, 21192, Note_on_c, 11, 40, 0
12, 21240, Note_on_c, 11, 38, 127
12, 21312, Note_on_c, 11, 38, 0
12, 21360, Note_on_c, 11, 36, 127
12, 21432, Note_on_c, 11, 36, 0
12, 21480, Note_on_c, 11, 38, 127
12, 21552, Note_on_c, 11, 38, 0
12, 21600, Note_on_c, 11, 40, 127
12, 21672, Note_on_c, 11, 40, 0
12, 21720, Note_on_c, 11, 38, 127
12, 21792, Note_on_c, 11, 38, 0
12, 21840, Note_on_c, 11, 40, 127
12, 21912, Note_on_c, 11, 40, 0
12, 21960, Note_on_c, 11, 41, 127
12, 22032, Note_on_c, 11, 41, 0
12, 22080, Note_on_c, 11, 43, 127
12, 22152, Note_on_c, 11, 43, 0
12, 22200, Note_on_c, 11, 42, 127
12, 22272, Note_on_c, 11, 42, 0
12, 22320, Note_on_c, 11, 43, 127
12, 22392, Note_on_c, 11, 43, 0
12, 22440, Note_on_c, 11, 45, 127
12, 22512, Note_on_c, 11, 45, 0
12, 22560, Note_on_c, 11, 47, 127
12, 22632, Note_on_c, 11, 47, 0
12, 22680, Note_on_c, 11, 43, 127
12, 22752, Note_on_c, 11, 43, 0
12, 22800, Note_on_c, 11, 45, 127
12, 22872, Note_on_c, 11, 45, 0
12, 22920, Note_on_c, 11, 47, 127
12, 22992, Note_on_c, 11, 47, 0
12, 23040, Note_on_c, 11, 48, 127
12, 23280, Note_on_c, 11, 48, 0
12, 23520, Note_on_c, 11, 48, 127
12, 23745, Note_on_c, 11, 48, 0
12, 23880, Note_on_c, 11, 48, 127
12, 24000, Note_on_c, 11, 48, 0
12, 24000, Note_on_c, 11, 48, 127
12, 24600, Note_on_c, 11, 48, 0
12, 24720, Note_on_c, 11, 47, 127
12, 24840, Note_on_c, 11, 47, 0
12, 24840, Note_on_c, 11, 45, 127
12, 24960, Note_on_c, 11, 45, 0
12, 24960, Note_on_c, 11, 43, 127
12, 25044, Note_on_c, 11, 43, 0
12, 25080, Note_on_c, 11, 45, 127
12, 25164, Note_on_c, 11, 45, 0
12, 25200, Note_on_c, 11, 43, 127
12, 25284, Note_on_c, 11, 43, 0
12, 25320, Note_on_c, 11, 41, 127
12, 25404, Note_on_c, 11, 41, 0
12, 25440, Note_on_c, 11, 40, 127
12, 25524, Note_on_c, 11, 40, 0
12, 25560, Note_on_c, 11, 41, 127
12, 25644, Note_on_c, 11, 41, 0
12, 25680, Note_on_c, 11, 40, 127
12, 25764, Note_on_c, 11, 40, 0
12, 25800, Note_on_c, 11, 38, 127
12, 25884, Note_on_c, 11, 38, 0
12, 25920, Note_on_c, 11, 36, 127
12, 26040, Note_on_c, 11, 36, 0
12, 26160, Note_on_c, 11, 43, 127
12, 26280, Note_on_c, 11, 43, 0
12, 26400, Note_on_c, 11, 48, 127
12, 26520, Note_on_c, 11, 48, 0
12, 26640, Note_on_c, 11, 43, 127
12, 26760, Note_on_c, 11, 43, 0
12, 26880, Note_on_c, 11, 48, 127
12, 27000, Note_on_c, 11, 48, 0
12, 27120, Note_on_c, 11, 43, 127
12, 27240, Note_on_c, 11, 43, 0
12, 27360, Note_on_c, 11, 48, 127
12, 27480, Note_on_c, 11, 48, 0
12, 27600, Note_on_c, 11, 43, 127
12, 27720, Note_on_c, 11, 43, 0
12, 27840, Note_on_c, 11, 48, 127
12, 27924, Note_on_c, 11, 48, 0
12, 27960, Note_on_c, 11, 47, 127
12, 28044, Note_on_c, 11, 47, 0
12, 28080, Note_on_c, 11, 45, 127
12, 28164, Note_on_c, 11, 45, 0
12, 28200, Note_on_c, 11, 43, 127
12, 28284, Note_on_c, 11, 43, 0
12, 28320, Note_on_c, 11, 48, 127
12, 28404, Note_on_c, 11, 48, 0
12, 28440, Note_on_c, 11, 47, 127
12, 28524, Note_on_c, 11, 47, 0
12, 28560, Note_on_c, 11, 45, 127
12, 28644, Note_on_c, 11, 45, 0
12, 28680, Note_on_c, 11, 43, 127
12, 28764, Note_on_c, 11, 43, 0
12, 28800, Note_on_c, 11, 48, 127
12, 28884, Note_on_c, 11, 48, 0
12, 28920, Note_on_c, 11, 47, 127
12, 29004, Note_on_c, 11, 47, 0
12, 29040, Note_on_c, 11, 45, 127
12, 29124, Note_on_c, 11, 45, 0
12, 29160, Note_on_c, 11, 43, 127
12, 29244, Note_on_c, 11, 43, 0
12, 29280, Note_on_c, 11, 41, 127
12, 29364, Note_on_c, 11, 41, 0
12, 29400, Note_on_c, 11, 40, 127
12, 29484, Note_on_c, 11, 40, 0
12, 29520, Note_on_c, 11, 38, 127
12, 29604, Note_on_c, 11, 38, 0
12, 29640, Note_on_c, 11, 36, 127
12, 29724, Note_on_c, 11, 36, 0
12, 29760, Note_on_c, 11, 31, 127
12, 29880, Note_on_c, 11, 31, 0
12, 30000, Note_on_c, 11, 43, 127
12, 30120, Note_on_c, 11, 43, 0
12, 30240, Note_on_c, 11, 43, 127
12, 30360, Note_on_c, 11, 43, 0
12, 30480, Note_on_c, 11, 43, 127
12, 30600, Note_on_c, 11, 43, 0
12, 30720, Note_on_c, 11, 43, 127
12, 30840, Note_on_c, 11, 43, 0
12, 30960, Note_on_c, 11, 43, 127
12, 31080, Note_on_c, 11, 43, 0
12, 31200, Note_on_c, 11, 43, 127
12, 31320, Note_on_c, 11, 43, 0
12, 31440, Note_on_c, 11, 43, 127
12, 31560, Note_on_c, 11, 43, 0
12, 31680, Note_on_c, 11, 43, 127
12, 31800, Note_on_c, 11, 43, 0
12, 31920, Note_on_c, 11, 43, 127
12, 32040, Note_on_c, 11, 43, 0
12, 32160, Note_on_c, 11, 43, 127
12, 32280, Note_on_c, 11, 43, 0
12, 32400, Note_on_c, 11, 43, 127
12, 32520, Note_on_c, 11, 43, 0
12, 32640, Note_on_c, 11, 43, 127
12, 33120, Note_on_c, 11, 43, 0
12, 47040, Note_on_c, 11, 36, 50
12, 48000, Note_on_c, 11, 36, 0
12, 48000, Note_on_c, 11, 38, 50
12, 48960, Note_on_c, 11, 38, 0
12, 48960, Note_on_c, 11, 41, 50
12, 49920, Note_on_c, 11, 41, 0
12, 49920, Note_on_c, 11, 40, 100
12, 50040, Note_on_c, 11, 40, 0
12, 50160, Note_on_c, 11, 48, 100
12, 50280, Note_on_c, 11, 48, 0
12, 50400, Note_on_c, 11, 45, 100
12, 50520, Note_on_c, 11, 45, 0
12, 50640, Note_on_c, 11, 43, 100
12, 50760, Note_on_c, 11, 43, 0
12, 50880, Note_on_c, 11, 41, 100
12, 51000, Note_on_c, 11, 41, 0
12, 51120, Note_on_c, 11, 40, 100
12, 51240, Note_on_c, 11, 40, 0
12, 51360, Note_on_c, 11, 38, 100
12, 51480, Note_on_c, 11, 38, 0
12, 51600, Note_on_c, 11, 36, 100
12, 51720, Note_on_c, 11, 36, 0
12, 51840, Note_on_c, 11, 35, 100
12, 51960, Note_on_c, 11, 35, 0
12, 52080, Note_on_c, 11, 31, 100
12, 52200, Note_on_c, 11, 31, 0
12, 52320, Note_on_c, 11, 33, 100
12, 52440, Note_on_c, 11, 33, 0
12, 52560, Note_on_c, 11, 35, 100
12, 52680, Note_on_c, 11, 35, 0
12, 52800, Note_on_c, 11, 36, 100
12, 53280, Note_on_c, 11, 36, 0
12, 54000, Note_on_c, 11, 42, 100
12, 54240, Note_on_c, 11, 42, 0
12, 54240, Note_on_c, 11, 43, 100
12, 54480, Note_on_c, 11, 43, 0
12, 54480, Note_on_c, 11, 45, 100
12, 54720, Note_on_c, 11, 45, 0
12, 54720, Note_on_c, 11, 48, 100
12, 54780, Note_on_c, 11, 48, 0
12, 54780, Note_on_c, 11, 47, 100
12, 54840, Note_on_c, 11, 47, 0
12, 54840, Note_on_c, 11, 48, 100
12, 54900, Note_on_c, 11, 48, 0
12, 54900, Note_on_c, 11, 47, 100
12, 54960, Note_on_c, 11, 47, 0
12, 55080, Note_on_c, 11, 48, 100
12, 55176, Note_on_c, 11, 48, 0
12, 55200, Note_on_c, 11, 50, 100
12, 55584, Note_on_c, 11, 50, 0
12, 55920, Note_on_c, 11, 40, 100
12, 56160, Note_on_c, 11, 40, 0
12, 56160, Note_on_c, 11, 42, 100
12, 56400, Note_on_c, 11, 42, 0
12, 56400, Note_on_c, 11, 43, 100
12, 56640, Note_on_c, 11, 43, 0
12, 56640, Note_on_c, 11, 47, 100
12, 56700, Note_on_c, 11, 47, 0
12, 56700, Note_on_c, 11, 45, 100
12, 56760, Note_on_c, 11, 45, 0
12, 56760, Note_on_c, 11, 47, 100
12, 56820, Note_on_c, 11, 47, 0
12, 56820, Note_on_c, 11, 45, 100
12, 56880, Note_on_c, 11, 45, 0
12, 57000, Note_on_c, 11, 47, 100
12, 57096, Note_on_c, 11, 47, 0
12, 57120, Note_on_c, 11, 48, 100
12, 57504, Note_on_c, 11, 48, 0
12, 57840, Note_on_c, 11, 38, 100
12, 58080, Note_on_c, 11, 38, 0
12, 58080, Note_on_c, 11, 40, 100
12, 58320, Note_on_c, 11, 40, 0
12, 58320, Note_on_c, 11, 42, 100
12, 58560, Note_on_c, 11, 42, 0
12, 58560, Note_on_c, 11, 45, 100
12, 58620, Note_on_c, 11, 45, 0
12, 58620, Note_on_c, 11, 43, 101
12, 58680, Note_on_c, 11, 43, 0
12, 58680, Note_on_c, 11, 45, 103
12, 58740, Note_on_c, 11, 45, 0
12, 58740, Note_on_c, 11, 43, 105
12, 58800, Note_on_c, 11, 43, 0
12, 58920, Note_on_c, 11, 45, 110
12, 59016, Note_on_c, 11, 45, 0
12, 59040, Note_on_c, 11, 47, 113
12, 59424, Note_on_c, 11, 47, 0
12, 59760, Note_on_c, 11, 40, 127
12, 59880, Note_on_c, 11, 40, 0
12, 60000, Note_on_c, 11, 52, 127
12, 60120, Note_on_c, 11, 52, 0
12, 60240, Note_on_c, 11, 40, 127
12, 60360, Note_on_c, 11, 40, 0
12, 60480, Note_on_c, 11, 38, 127
12, 60930, Note_on_c, 11, 38, 0
12, 61440, Note_on_c, 11, 50, 127
12, 61665, Note_on_c, 11, 50, 0
12, 61800, Note_on_c, 11, 50, 127
12, 61920, Note_on_c, 11, 50, 0
12, 61920, Note_on_c, 11, 50, 127
12, 62640, Note_on_c, 11, 50, 0
12, 62640, Note_on_c, 11, 49, 127
12, 62724, Note_on_c, 11, 49, 0
12, 62760, Note_on_c, 11, 47, 127
12, 62844, Note_on_c, 11, 47, 0
12, 62880, Note_on_c, 11, 45, 127
12, 62964, Note_on_c, 11, 45, 0
12, 63000, Note_on_c, 11, 47, 127
12, 63084, Note_on_c, 11, 47, 0
12, 63120, Note_on_c, 11, 45, 127
12, 63204, Note_on_c, 11, 45, 0
12, 63240, Note_on_c, 11, 43, 127
12, 63324, Note_on_c, 11, 43, 0
12, 63360, Note_on_c, 11, 42, 127
12, 63444, Note_on_c, 11, 42, 0
12, 63480, Note_on_c, 11, 43, 127
12, 63564, Note_on_c, 11, 43, 0
12, 63600, Note_on_c, 11, 42, 127
12, 63684, Note_on_c, 11, 42, 0
12, 63720, Note_on_c, 11, 40, 127
12, 63804, Note_on_c, 11, 40, 0
12, 63840, Note_on_c, 11, 38, 127
12, 64080, Note_on_c, 11, 38, 0
12, 64320, Note_on_c, 11, 50, 127
12, 64545, Note_on_c, 11, 50, 0
12, 64680, Note_on_c, 11, 50, 127
12, 64800, Note_on_c, 11, 50, 0
12, 64800, Note_on_c, 11, 50, 127
12, 65520, Note_on_c, 11, 50, 0
12, 65520, Note_on_c, 11, 49, 127
12, 65604, Note_on_c, 11, 49, 0
12, 65640, Note_on_c, 11, 47, 127
12, 65724, Note_on_c, 11, 47, 0
12, 65760, Note_on_c, 11, 45, 127
12, 65844, Note_on_c, 11, 45, 0
12, 65880, Note_on_c, 11, 47, 127
12, 65964, Note_on_c, 11, 47, 0
12, 66000, Note_on_c, 11, 45, 127
12, 66084, Note_on_c, 11, 45, 0
12, 66120, Note_on_c, 11, 43, 127
12, 66204, Note_on_c, 11, 43, 0
12, 66240, Note_on_c, 11, 42, 127
12, 66324, Note_on_c, 11, 42, 0
12, 66360, Note_on_c, 11, 43, 127
12, 66444, Note_on_c, 11, 43, 0
12, 66480, Note_on_c, 11, 42, 127
12, 66564, Note_on_c, 11, 42, 0
12, 66600, Note_on_c, 11, 40, 127
12, 66684, Note_on_c, 11, 40, 0
12, 66720, Note_on_c, 11, 38, 127
12, 66804, Note_on_c, 11, 38, 0
12, 66840, Note_on_c, 11, 40, 127
12, 66924, Note_on_c, 11, 40, 0
12, 66960, Note_on_c, 11, 42, 127
12, 67044, Note_on_c, 11, 42, 0
12, 67080, Note_on_c, 11, 43, 127
12, 67164, Note_on_c, 11, 43, 0
12, 67200, Note_on_c, 11, 45, 127
12, 67284, Note_on_c, 11, 45, 0
12, 67320, Note_on_c, 11, 47, 127
12, 67404, Note_on_c, 11, 47, 0
12, 67440, Note_on_c, 11, 45, 127
12, 67524, Note_on_c, 11, 45, 0
12, 67560, Note_on_c, 11, 43, 127
12, 67644, Note_on_c, 11, 43, 0
12, 67680, Note_on_c, 11, 42, 127
12, 67764, Note_on_c, 11, 42, 0
12, 67800, Note_on_c, 11, 43, 127
12, 67884, Note_on_c, 11, 43, 0
12, 67920, Note_on_c, 11, 45, 127
12, 68004, Note_on_c, 11, 45, 0
12, 68040, Note_on_c, 11, 43, 127
12, 68124, Note_on_c, 11, 43, 0
12, 68160, Note_on_c, 11, 42, 127
12, 68280, Note_on_c, 11, 42, 0
12, 68400, Note_on_c, 11, 48, 127
12, 68520, Note_on_c, 11, 48, 0
12, 68640, Note_on_c, 11, 45, 127
12, 68760, Note_on_c, 11, 45, 0
12, 68880, Note_on_c, 11, 42, 127
12, 69000, Note_on_c, 11, 42, 0
12, 69120, Note_on_c, 11, 38, 127
12, 69600, Note_on_c, 11, 38, 0
12, 70080, Note_on_c, 11, 31, 50
12, 70560, Note_on_c, 11, 31, 0
12, 71040, Note_on_c, 11, 40, 50
12, 71520, Note_on_c, 11, 40, 0
12, 72000, Note_on_c, 11, 33, 50
12, 72480, Note_on_c, 11, 33, 0
12, 72960, Note_on_c, 11, 38, 50
12, 73440, Note_on_c, 11, 38, 0
12, 73920, Note_on_c, 11, 43, 50
12, 74160, Note_on_c, 11, 43, 0
12, 74400, Note_on_c, 11, 35, 50
12, 74640, Note_on_c, 11, 35, 0
12, 74880, Note_on_c, 11, 36, 50
12, 75120, Note_on_c, 11, 36, 0
12, 75360, Note_on_c, 11, 37, 50
12, 75600, Note_on_c, 11, 37, 0
12, 75840, Note_on_c, 11, 38, 50
12, 76080, Note_on_c, 11, 38, 0
12, 76320, Note_on_c, 11, 30, 50
12, 76800, Note_on_c, 11, 30, 0
12, 76800, Note_on_c, 11, 31, 50
12, 77280, Note_on_c, 11, 31, 0
12, 77280, Note_on_c, 11, 32, 50
12, 77760, Note_on_c, 11, 32, 0
12, 77760, Note_on_c, 11, 33, 50
12, 78096, Note_on_c, 11, 33, 0
12, 78240, Note_on_c, 11, 36, 50
12, 78960, Note_on_c, 11, 36, 0
12, 78960, Note_on_c, 11, 33, 50
12, 79080, Note_on_c, 11, 33, 0
12, 79200, Note_on_c, 11, 38, 50
12, 79320, Note_on_c, 11, 38, 0
12, 79440, Note_on_c, 11, 36, 50
12, 79560, Note_on_c, 11, 36, 0
12, 79680, Note_on_c, 11, 35, 50
12, 80640, Note_on_c, 11, 35, 0
12, 80640, Note_on_c, 11, 36, 50
12, 81120, Note_on_c, 11, 36, 0
12, 81120, Note_on_c, 11, 37, 50
12, 81600, Note_on_c, 11, 37, 0
12, 81600, Note_on_c, 11, 38, 50
12, 83488, Note_on_c, 11, 38, 0
12, 83520, Note_on_c, 11, 38, 50
12, 85438, Note_on_c, 11, 38, 0
12, 85440, Note_on_c, 11, 38, 50
12, 87358, Note_on_c, 11, 38, 0
12, 87360, Note_on_c, 11, 38, 50
12, 89278, Note_on_c, 11, 38, 0
12, 89280, Note_on_c, 11, 31, 127
12, 89760, Note_on_c, 11, 31, 0
12, 90720, Note_on_c, 11, 48, 127
12, 91056, Note_on_c, 11, 48, 0
12, 91200, Note_on_c, 11, 45, 127
12, 91536, Note_on_c, 11, 45, 0
12, 91680, Note_on_c, 11, 50, 127
12, 92016, Note_on_c, 11, 50, 0
12, 92640, Note_on_c, 11, 52, 127
12, 92976, Note_on_c, 11, 52, 0
12, 93120, Note_on_c, 11, 48, 127
12, 93456, Note_on_c, 11, 48, 0
12, 93600, Note_on_c, 11, 54, 127
12, 93936, Note_on_c, 11, 54, 0
12, 94560, Note_on_c, 11, 43, 127
12, 94896, Note_on_c, 11, 43, 0
12, 95040, Note_on_c, 11, 40, 127
12, 95376, Note_on_c, 11, 40, 0
12, 95520, Note_on_c, 11, 45, 127
12, 96084, Note_on_c, 11, 45, 0
12, 96120, Note_on_c, 11, 43, 127
12, 96204, Note_on_c, 11, 43, 0
12, 96240, Note_on_c, 11, 42, 127
12, 96324, Note_on_c, 11, 42, 0
12, 96360, Note_on_c, 11, 40, 127
12, 96444, Note_on_c, 11, 40, 0
12, 96480, Note_on_c, 11, 42, 127
12, 96564, Note_on_c, 11, 42, 0
12, 96600, Note_on_c, 11, 40, 127
12, 96684, Note_on_c, 11, 40, 0
12, 96720, Note_on_c, 11, 38, 127
12, 96804, Note_on_c, 11, 38, 0
12, 96840, Note_on_c, 11, 36, 127
12, 96924, Note_on_c, 11, 36, 0
12, 96960, Note_on_c, 11, 35, 127
12, 97296, Note_on_c, 11, 35, 0
12, 97440, Note_on_c, 11, 43, 127
12, 97776, Note_on_c, 11, 43, 0
12, 98400, Note_on_c, 11, 52, 127
12, 98736, Note_on_c, 11, 52, 0
12, 98880, Note_on_c, 11, 48, 127
12, 99216, Note_on_c, 11, 48, 0
12, 99360, Note_on_c, 11, 54, 127
12, 99924, Note_on_c, 11, 54, 0
12, 99960, Note_on_c, 11, 52, 127
12, 100044, Note_on_c, 11, 52, 0
12, 100080, Note_on_c, 11, 51, 127
12, 100164, Note_on_c, 11, 51, 0
12, 100200, Note_on_c, 11, 49, 127
12, 100284, Note_on_c, 11, 49, 0
12, 100320, Note_on_c, 11, 51, 127
12, 100404, Note_on_c, 11, 51, 0
12, 100440, Note_on_c, 11, 49, 127
12, 100524, Note_on_c, 11, 49, 0
12, 100560, Note_on_c, 11, 47, 127
12, 100644, Note_on_c, 11, 47, 0
12, 100680, Note_on_c, 11, 45, 127
12, 100764, Note_on_c, 11, 45, 0
12, 100800, Note_on_c, 11, 43, 127
12, 101136, Note_on_c, 11, 43, 0
12, 101280, Note_on_c, 11, 52, 127
12, 101616, Note_on_c, 11, 52, 0
12, 102240, Note_on_c, 11, 48, 127
12, 102576, Note_on_c, 11, 48, 0
12, 102720, Note_on_c, 11, 45, 127
12, 103056, Note_on_c, 11, 45, 0
12, 103200, Note_on_c, 11, 50, 127
12, 103764, Note_on_c, 11, 50, 0
12, 103800, Note_on_c, 11, 48, 127
12, 103884, Note_on_c, 11, 48, 0
12, 103920, Note_on_c, 11, 47, 127
12, 104004, Note_on_c, 11, 47, 0
12, 104040, Note_on_c, 11, 45, 127
12, 104124, Note_on_c, 11, 45, 0
12, 104160, Note_on_c, 11, 47, 127
12, 104244, Note_on_c, 11, 47, 0
12, 104280, Note_on_c, 11, 45, 127
12, 104364, Note_on_c, 11, 45, 0
12, 104400, Note_on_c, 11, 43, 127
12, 104484, Note_on_c, 11, 43, 0
12, 104520, Note_on_c, 11, 41, 127
12, 104604, Note_on_c, 11, 41, 0
12, 104640, Note_on_c, 11, 40, 127
12, 104808, Note_on_c, 11, 40, 0
12, 104880, Note_on_c, 11, 48, 127
12, 104964, Note_on_c, 11, 48, 0
12, 105000, Note_on_c, 11, 47, 127
12, 105084, Note_on_c, 11, 47, 0
12, 105120, Note_on_c, 11, 48, 127
12, 105204, Note_on_c, 11, 48, 0
12, 105240, Note_on_c, 11, 47, 127
12, 105324, Note_on_c, 11, 47, 0
12, 105360, Note_on_c, 11, 45, 127
12, 105444, Note_on_c, 11, 45, 0
12, 105480, Note_on_c, 11, 43, 127
12, 105564, Note_on_c, 11, 43, 0
12, 105600, Note_on_c, 11, 48, 127
12, 105768, Note_on_c, 11, 48, 0
12, 105840, Note_on_c, 11, 52, 127
12, 105924, Note_on_c, 11, 52, 0
12, 105960, Note_on_c, 11, 50, 127
12, 106044, Note_on_c, 11, 50, 0
12, 106080, Note_on_c, 11, 52, 127
12, 106164, Note_on_c, 11, 52, 0
12, 106200, Note_on_c, 11, 50, 127
12, 106284, Note_on_c, 11, 50, 0
12, 106320, Note_on_c, 11, 48, 127
12, 106404, Note_on_c, 11, 48, 0
12, 106440, Note_on_c, 11, 47, 127
12, 106524, Note_on_c, 11, 47, 0
12, 106560, Note_on_c, 11, 52, 127
12, 106728, Note_on_c, 11, 52, 0
12, 106800, Note_on_c, 11, 48, 127
12, 106884, Note_on_c, 11, 48, 0
12, 106920, Note_on_c, 11, 47, 127
12, 107004, Note_on_c, 11, 47, 0
12, 107040, Note_on_c, 11, 48, 127
12, 107124, Note_on_c, 11, 48, 0
12, 107160, Note_on_c, 11, 47, 127
12, 107244, Note_on_c, 11, 47, 0
12, 107280, Note_on_c, 11, 45, 127
12, 107364, Note_on_c, 11, 45, 0
12, 107400, Note_on_c, 11, 43, 127
12, 107484, Note_on_c, 11, 43, 0
12, 107520, Note_on_c, 11, 48, 127
12, 107688, Note_on_c, 11, 48, 0
12, 107760, Note_on_c, 11, 45, 127
12, 107844, Note_on_c, 11, 45, 0
12, 107880, Note_on_c, 11, 43, 127
12, 107964, Note_on_c, 11, 43, 0
12, 108000, Note_on_c, 11, 45, 127
12, 108084, Note_on_c, 11, 45, 0
12, 108120, Note_on_c, 11, 43, 127
12, 108204, Note_on_c, 11, 43, 0
12, 108240, Note_on_c, 11, 42, 127
12, 108324, Note_on_c, 11, 42, 0
12, 108360, Note_on_c, 11, 40, 127
12, 108444, Note_on_c, 11, 40, 0
12, 108480, Note_on_c, 11, 42, 127
12, 108600, Note_on_c, 11, 42, 0
12, 108720, Note_on_c, 11, 38, 127
12, 108840, Note_on_c, 11, 38, 0
12, 108960, Note_on_c, 11, 40, 127
12, 109080, Note_on_c, 11, 40, 0
12, 109200, Note_on_c, 11, 42, 127
12, 109320, Note_on_c, 11, 42, 0
12, 109440, Note_on_c, 11, 43, 127
12, 109560, Note_on_c, 11, 43, 0
12, 109680, Note_on_c, 11, 43, 127
12, 109800, Note_on_c, 11, 43, 0
12, 109920, Note_on_c, 11, 43, 127
12, 110040, Note_on_c, 11, 43, 0
12, 110160, Note_on_c, 11, 43, 127
12, 110280, Note_on_c, 11, 43, 0
12, 110400, Note_on_c, 11, 43, 127
12, 110520, Note_on_c, 11, 43, 0
12, 110640, Note_on_c, 11, 43, 127
12, 110760, Note_on_c, 11, 43, 0
12, 110880, Note_on_c, 11, 43, 127
12, 111000, Note_on_c, 11, 43, 0
12, 111120, Note_on_c, 11, 31, 127
12, 111240, Note_on_c, 11, 31, 0
12, 111360, Note_on_c, 11, 40, 127
12, 111480, Note_on_c, 11, 40, 0
12, 111600, Note_on_c, 11, 40, 127
12, 111720, Note_on_c, 11, 40, 0
12, 111840, Note_on_c, 11, 40, 127
12, 111960, Note_on_c, 11, 40, 0
12, 112080, Note_on_c, 11, 40, 127
12, 112200, Note_on_c, 11, 40, 0
12, 112320, Note_on_c, 11, 40, 127
12, 112440, Note_on_c, 11, 40, 0
12, 112560, Note_on_c, 11, 40, 127
12, 112680, Note_on_c, 11, 40, 0
12, 112800, Note_on_c, 11, 40, 127
12, 112920, Note_on_c, 11, 40, 0
12, 113040, Note_on_c, 11, 28, 127
12, 113160, Note_on_c, 11, 28, 0
12, 113280, Note_on_c, 11, 47, 127
12, 113400, Note_on_c, 11, 47, 0
12, 113520, Note_on_c, 11, 47, 127
12, 113640, Note_on_c, 11, 47, 0
12, 113760, Note_on_c, 11, 47, 127
12, 113880, Note_on_c, 11, 47, 0
12, 114000, Note_on_c, 11, 47, 127
12, 114120, Note_on_c, 11, 47, 0
12, 114240, Note_on_c, 11, 47, 127
12, 114360, Note_on_c, 11, 47, 0
12, 114480, Note_on_c, 11, 47, 127
12, 114600, Note_on_c, 11, 47, 0
12, 114720, Note_on_c, 11, 47, 127
12, 114840, Note_on_c, 11, 47, 0
12, 114960, Note_on_c, 11, 35, 127
12, 115080, Note_on_c, 11, 35, 0
12, 115200, Note_on_c, 11, 36, 127
12, 115320, Note_on_c, 11, 36, 0
12, 115440, Note_on_c, 11, 36, 127
12, 115560, Note_on_c, 11, 36, 0
12, 115680, Note_on_c, 11, 36, 127
12, 115800, Note_on_c, 11, 36, 0
12, 115920, Note_on_c, 11, 36, 127
12, 116040, Note_on_c, 11, 36, 0
12, 116160, Note_on_c, 11, 38, 127
12, 116280, Note_on_c, 11, 38, 0
12, 116400, Note_on_c, 11, 38, 127
12, 116520, Note_on_c, 11, 38, 0
12, 116640, Note_on_c, 11, 38, 127
12, 116760, Note_on_c, 11, 38, 0
12, 116880, Note_on_c, 11, 38, 127
12, 117000, Note_on_c, 11, 38, 0
12, 117120, Note_on_c, 11, 31, 127
12, 117240, Note_on_c, 11, 31, 0
12, 117360, Note_on_c, 11, 47, 127
12, 117480, Note_on_c, 11, 47, 0
12, 117600, Note_on_c, 11, 47, 127
12, 117720, Note_on_c, 11, 47, 0
12, 117840, Note_on_c, 11, 47, 127
12, 117960, Note_on_c, 11, 47, 0
12, 118080, Note_on_c, 11, 47, 127
12, 118800, Note_on_c, 11, 47, 0
12, 118800, Note_on_c, 11, 45, 127
12, 118860, Note_on_c, 11, 45, 0
12, 118860, Note_on_c, 11, 43, 127
12, 118920, Note_on_c, 11, 43, 0
12, 118920, Note_on_c, 11, 42, 127
12, 118980, Note_on_c, 11, 42, 0
12, 118980, Note_on_c, 11, 40, 127
12, 119040, Note_on_c, 11, 40, 0
12, 119040, Note_on_c, 11, 38, 127
12, 119160, Note_on_c, 11, 38, 0
12, 119280, Note_on_c, 11, 50, 127
12, 119400, Note_on_c, 11, 50, 0
12, 119520, Note_on_c, 11, 50, 127
12, 119640, Note_on_c, 11, 50, 0
12, 119760, Note_on_c, 11, 50, 127
12, 119880, Note_on_c, 11, 50, 0
12, 120000, Note_on_c, 11, 50, 127
12, 120720, Note_on_c, 11, 50, 0
12, 120720, Note_on_c, 11, 47, 127
12, 120780, Note_on_c, 11, 47, 0
12, 120780, Note_on_c, 11, 45, 127
12, 120840, Note_on_c, 11, 45, 0
12, 120840, Note_on_c, 11, 43, 127
12, 120900, Note_on_c, 11, 43, 0
12, 120900, Note_on_c, 11, 42, 127
12, 120960, Note_on_c, 11, 42, 0
12, 120960, Note_on_c, 11, 39, 127
12, 121200, Note_on_c, 11, 39, 0
12, 121200, Note_on_c, 11, 51, 127
12, 121320, Note_on_c, 11, 51, 0
12, 121440, Note_on_c, 11, 51, 127
12, 121560, Note_on_c, 11, 51, 0
12, 121680, Note_on_c, 11, 51, 127
12, 121800, Note_on_c, 11, 51, 0
12, 121920, Note_on_c, 11, 51, 127
12, 122568, Note_on_c, 11, 51, 0
12, 122640, Note_on_c, 11, 53, 127
12, 122760, Note_on_c, 11, 53, 0
12, 122880, Note_on_c, 11, 51, 127
12, 123000, Note_on_c, 11, 51, 0
12, 123120, Note_on_c, 11, 53, 127
12, 123240, Note_on_c, 11, 53, 0
12, 123360, Note_on_c, 11, 51, 127
12, 123480, Note_on_c, 11, 51, 0
12, 123600, Note_on_c, 11, 53, 127
12, 123720, Note_on_c, 11, 53, 0
12, 123840, Note_on_c, 11, 52, 127
12, 124488, Note_on_c, 11, 52, 0
12, 124560, Note_on_c, 11, 53, 127
12, 124680, Note_on_c, 11, 53, 0
12, 124800, Note_on_c, 11, 52, 127
12, 124920, Note_on_c, 11, 52, 0
12, 125040, Note_on_c, 11, 53, 127
12, 125160, Note_on_c, 11, 53, 0
12, 125280, Note_on_c, 11, 52, 127
12, 125400, Note_on_c, 11, 52, 0
12, 125520, Note_on_c, 11, 53, 127
12, 125640, Note_on_c, 11, 53, 0
12, 125760, Note_on_c, 11, 52, 127
12, 125880, Note_on_c, 11, 52, 0
12, 126000, Note_on_c, 11, 40, 127
12, 126120, Note_on_c, 11, 40, 0
12, 126240, Note_on_c, 11, 42, 127
12, 126360, Note_on_c, 11, 42, 0
12, 126480, Note_on_c, 11, 54, 127
12, 126600, Note_on_c, 11, 54, 0
12, 126720, Note_on_c, 11, 55, 127
12, 126840, Note_on_c, 11, 55, 0
12, 126960, Note_on_c, 11, 51, 127
12, 127080, Note_on_c, 11, 51, 0
12, 127200, Note_on_c, 11, 52, 127
12, 127320, Note_on_c, 11, 52, 0
12, 127440, Note_on_c, 11, 47, 127
12, 127560, Note_on_c, 11, 47, 0
12, 127680, Note_on_c, 11, 48, 127
12, 127800, Note_on_c, 11, 48, 0
12, 127920, Note_on_c, 11, 45, 127
12, 128040, Note_on_c, 11, 45, 0
12, 128160, Note_on_c, 11, 50, 127
12, 128280, Note_on_c, 11, 50, 0
12, 128400, Note_on_c, 11, 38, 127
12, 128520, Note_on_c, 11, 38, 0
12, 128640, Note_on_c, 11, 43, 127
12, 128880, Note_on_c, 11, 43, 0
12, 129120, Note_on_c, 11, 43, 127
12, 129345, Note_on_c, 11, 43, 0
12, 129480, Note_on_c, 11, 43, 127
12, 129600, Note_on_c, 11, 43, 0
12, 129600, Note_on_c, 11, 43, 127
12, 130320, Note_on_c, 11, 43, 0
12, 130320, Note_on_c, 11, 42, 127
12, 130440, Note_on_c, 11, 42, 0
12, 130440, Note_on_c, 11, 40, 127
12, 130560, Note_on_c, 11, 40, 0
12, 130560, Note_on_c, 11, 38, 127
12, 130680, Note_on_c, 11, 38, 0
12, 130680, Note_on_c, 11, 40, 127
12, 130800, Note_on_c, 11, 40, 0
12, 130800, Note_on_c, 11, 38, 127
12, 130920, Note_on_c, 11, 38, 0
12, 130920, Note_on_c, 11, 36, 127
12, 131040, Note_on_c, 11, 36, 0
12, 131040, Note_on_c, 11, 35, 127
12, 131160, Note_on_c, 11, 35, 0
12, 131160, Note_on_c, 11, 36, 127
12, 131280, Note_on_c, 11, 36, 0
12, 131280, Note_on_c, 11, 35, 127
12, 131400, Note_on_c, 11, 35, 0
12, 131400, Note_on_c, 11, 33, 127
12, 131520, Note_on_c, 11, 33, 0
12, 131520, Note_on_c, 11, 31, 127
12, 131760, Note_on_c, 11, 31, 0
12, 132000, Note_on_c, 11, 47, 127
12, 132225, Note_on_c, 11, 47, 0
12, 132360, Note_on_c, 11, 47, 127
12, 132480, Note_on_c, 11, 47, 0
12, 132480, Note_on_c, 11, 47, 127
12, 133200, Note_on_c, 11, 47, 0
12, 133200, Note_on_c, 11, 45, 127
12, 133320, Note_on_c, 11, 45, 0
12, 133320, Note_on_c, 11, 43, 127
12, 133440, Note_on_c, 11, 43, 0
12, 133440, Note_on_c, 11, 42, 127
12, 133560, Note_on_c, 11, 42, 0
12, 133560, Note_on_c, 11, 43, 127
12, 133680, Note_on_c, 11, 43, 0
12, 133680, Note_on_c, 11, 42, 127
12, 133800, Note_on_c, 11, 42, 0
12, 133800, Note_on_c, 11, 40, 127
12, 133920, Note_on_c, 11, 40, 0
12, 133920, Note_on_c, 11, 38, 127
12, 134040, Note_on_c, 11, 38, 0
12, 134040, Note_on_c, 11, 40, 127
12, 134160, Note_on_c, 11, 40, 0
12, 134160, Note_on_c, 11, 38, 127
12, 134280, Note_on_c, 11, 38, 0
12, 134280, Note_on_c, 11, 36, 127
12, 134400, Note_on_c, 11, 36, 0
12, 134400, Note_on_c, 11, 35, 127
12, 134640, Note_on_c, 11, 35, 0
12, 134880, Note_on_c, 11, 50, 127
12, 135105, Note_on_c, 11, 50, 0
12, 135240, Note_on_c, 11, 50, 127
12, 135360, Note_on_c, 11, 50, 0
12, 135360, Note_on_c, 11, 50, 127
12, 136080, Note_on_c, 11, 50, 0
12, 136080, Note_on_c, 11, 48, 127
12, 136200, Note_on_c, 11, 48, 0
12, 136200, Note_on_c, 11, 47, 127
12, 136320, Note_on_c, 11, 47, 0
12, 136320, Note_on_c, 11, 45, 127
12, 136404, Note_on_c, 11, 45, 0
12, 136440, Note_on_c, 11, 47, 127
12, 136524, Note_on_c, 11, 47, 0
12, 136560, Note_on_c, 11, 45, 127
12, 136644, Note_on_c, 11, 45, 0
12, 136680, Note_on_c, 11, 43, 127
12, 136764, Note_on_c, 11, 43, 0
12, 136800, Note_on_c, 11, 42, 127
12, 136884, Note_on_c, 11, 42, 0
12, 136920, Note_on_c, 11, 43, 127
12, 137004, Note_on_c, 11, 43, 0
12, 137040, Note_on_c, 11, 42, 127
12, 137124, Note_on_c, 11, 42, 0
12, 137160, Note_on_c, 11, 40, 127
12, 137244, Note_on_c, 11, 40, 0
12, 137280, Note_on_c, 11, 38, 127
12, 137616, Note_on_c, 11, 38, 0
12, 137760, Note_on_c, 11, 42, 127
12, 138096, Note_on_c, 11, 42, 0
12, 138240, Note_on_c, 11, 43, 127
12, 138360, Note_on_c, 11, 43, 0
12, 138480, Note_on_c, 11, 42, 127
12, 138600, Note_on_c, 11, 42, 0
12, 138720, Note_on_c, 11, 40, 127
12, 138840, Note_on_c, 11, 40, 0
12, 138960, Note_on_c, 11, 39, 127
12, 139080, Note_on_c, 11, 39, 0
12, 139200, Note_on_c, 11, 40, 127
12, 139320, Note_on_c, 11, 40, 0
12, 139440, Note_on_c, 11, 38, 127
12, 139560, Note_on_c, 11, 38, 0
12, 139680, Note_on_c, 11, 36, 127
12, 139800, Note_on_c, 11, 36, 0
12, 139920, Note_on_c, 11, 35, 127
12, 140040, Note_on_c, 11, 35, 0
12, 140160, Note_on_c, 11, 36, 127
12, 140280, Note_on_c, 11, 36, 0
12, 140400, Note_on_c, 11, 37, 127
12, 140520, Note_on_c, 11, 37, 0
12, 140640, Note_on_c, 11, 38, 127
12, 141120, Note_on_c, 11, 38, 0
12, 141120, Note_on_c, 11, 43, 127
12, 141240, Note_on_c, 11, 43, 0
12, 141360, Note_on_c, 11, 42, 127
12, 141480, Note_on_c, 11, 42, 0
12, 141600, Note_on_c, 11, 40, 127
12, 141720, Note_on_c, 11, 40, 0
12, 141840, Note_on_c, 11, 39, 127
12, 141960, Note_on_c, 11, 39, 0
12, 142080, Note_on_c, 11, 40, 127
12, 142200, Note_on_c, 11, 40, 0
12, 142320, Note_on_c, 11, 38, 127
12, 142440, Note_on_c, 11, 38, 0
12, 142560, Note_on_c, 11, 36, 127
12, 142680, Note_on_c, 11, 36, 0
12, 142800, Note_on_c, 11, 35, 127
12, 142920, Note_on_c, 11, 35, 0
12, 143040, Note_on_c, 11, 36, 127
12, 143160, Note_on_c, 11, 36, 0
12, 143280, Note_on_c, 11, 37, 127
12, 143400, Note_on_c, 11, 37, 0
12, 143520, Note_on_c, 11, 38, 127
12, 143640, Note_on_c, 11, 38, 0
12, 143760, Note_on_c, 11, 26, 127
12, 143880, Note_on_c, 11, 26, 0
12, 144000, Note_on_c, 11, 31, 127
12, 144120, Note_on_c, 11, 31, 0
12, 144240, Note_on_c, 11, 43, 127
12, 144360, Note_on_c, 11, 43, 0
12, 144480, Note_on_c, 11, 43, 50
12, 144600, Note_on_c, 11, 43, 0
12, 144720, Note_on_c, 11, 43, 50
12, 144840, Note_on_c, 11, 43, 0
12, 144960, Note_on_c, 11, 43, 50
12, 145080, Note_on_c, 11, 43, 0
12, 145200, Note_on_c, 11, 43, 50
12, 145320, Note_on_c, 11, 43, 0
12, 145440, Note_on_c, 11, 43, 50
12, 145560, Note_on_c, 11, 43, 0
12, 145680, Note_on_c, 11, 43, 50
12, 145800, Note_on_c, 11, 43, 0
12, 145920, Note_on_c, 11, 43, 50
12, 146040, Note_on_c, 11, 43, 0
12, 146160, Note_on_c, 11, 43, 50
12, 146280, Note_on_c, 11, 43, 0
12, 146400, Note_on_c, 11, 43, 50
12, 146520, Note_on_c, 11, 43, 0
12, 146640, Note_on_c, 11, 43, 50
12, 146760, Note_on_c, 11, 43, 0
12, 146880, Note_on_c, 11, 43, 50
12, 147000, Note_on_c, 11, 43, 0
12, 147120, Note_on_c, 11, 31, 50
12, 147240, Note_on_c, 11, 31, 0
12, 147360, Note_on_c, 11, 31, 50
12, 147480, Note_on_c, 11, 31, 0
12, 147600, Note_on_c, 11, 31, 50
12, 147720, Note_on_c, 11, 31, 0
12, 147840, Note_on_c, 11, 31, 50
12, 147960, Note_on_c, 11, 31, 0
12, 148080, Note_on_c, 11, 31, 50
12, 148200, Note_on_c, 11, 31, 0
12, 148320, Note_on_c, 11, 31, 50
12, 148440, Note_on_c, 11, 31, 0
12, 148560, Note_on_c, 11, 31, 50
12, 148680, Note_on_c, 11, 31, 0
12, 148800, Note_on_c, 11, 31, 50
12, 148920, Note_on_c, 11, 31, 0
12, 149040, Note_on_c, 11, 31, 50
12, 149160, Note_on_c, 11, 31, 0
12, 149280, Note_on_c, 11, 31, 50
12, 149400, Note_on_c, 11, 31, 0
12, 149520, Note_on_c, 11, 31, 50
12, 149640, Note_on_c, 11, 31, 0
12, 149760, Note_on_c, 11, 31, 50
12, 150240, Note_on_c, 11, 31, 0
12, 154560, Note_on_c, 11, 41, 50
12, 155520, Note_on_c, 11, 41, 0
12, 155520, Note_on_c, 11, 40, 50
12, 156480, Note_on_c, 11, 40, 0
12, 156480, Note_on_c, 11, 38, 50
12, 156720, Note_on_c, 11, 38, 0
12, 156960, Note_on_c, 11, 36, 50
12, 157200, Note_on_c, 11, 36, 0
12, 157440, Note_on_c, 11, 31, 50
12, 157680, Note_on_c, 11, 31, 0
12, 159120, Note_on_c, 11, 36, 105
12, 159200, Note_on_c, 11, 36, 0
12, 159200, Note_on_c, 11, 35, 105
12, 159280, Note_on_c, 11, 35, 0
12, 159280, Note_on_c, 11, 33, 106
12, 159360, Note_on_c, 11, 33, 0
12, 159360, Note_on_c, 11, 31, 106
12, 159840, Note_on_c, 11, 31, 0
12, 160080, Note_on_c, 11, 50, 111
12, 160140, Note_on_c, 11, 50, 0
12, 160140, Note_on_c, 11, 48, 112
12, 160200, Note_on_c, 11, 48, 0
12, 160200, Note_on_c, 11, 47, 112
12, 160260, Note_on_c, 11, 47, 0
12, 160260, Note_on_c, 11, 45, 113
12, 160320, Note_on_c, 11, 45, 0
12, 160320, Note_on_c, 11, 43, 113
12, 160800, Note_on_c, 11, 43, 0
12, 161040, Note_on_c, 11, 43, 118
12, 161100, Note_on_c, 11, 43, 0
12, 161100, Note_on_c, 11, 41, 118
12, 161160, Note_on_c, 11, 41, 0
12, 161160, Note_on_c, 11, 40, 119
12, 161220, Note_on_c, 11, 40, 0
12, 161220, Note_on_c, 11, 38, 119
12, 161280, Note_on_c, 11, 38, 0
12, 161280, Note_on_c, 11, 36, 120
12, 161760, Note_on_c, 11, 36, 0
12, 162000, Note_on_c, 11, 36, 125
12, 162060, Note_on_c, 11, 36, 0
12, 162060, Note_on_c, 11, 35, 125
12, 162120, Note_on_c, 11, 35, 0
12, 162120, Note_on_c, 11, 33, 126
12, 162180, Note_on_c, 11, 33, 0
12, 162180, Note_on_c, 11, 31, 126
12, 162240, Note_on_c, 11, 31, 0
12, 162240, Note_on_c, 11, 29, 127
12, 162360, Note_on_c, 11, 29, 0
12, 162480, Note_on_c, 11, 41, 127
12, 162600, Note_on_c, 11, 41, 0
12, 162720, Note_on_c, 11, 41, 127
12, 162840, Note_on_c, 11, 41, 0
12, 162960, Note_on_c, 11, 41, 127
12, 163080, Note_on_c, 11, 41, 0
12, 163200, Note_on_c, 11, 41, 127
12, 163320, Note_on_c, 11, 41, 0
12, 163440, Note_on_c, 11, 41, 127
12, 163560, Note_on_c, 11, 41, 0
12, 163680, Note_on_c, 11, 41, 127
12, 163800, Note_on_c, 11, 41, 0
12, 163920, Note_on_c, 11, 41, 127
12, 164040, Note_on_c, 11, 41, 0
12, 164160, Note_on_c, 11, 43, 127
12, 164280, Note_on_c, 11, 43, 0
12, 164400, Note_on_c, 11, 43, 127
12, 164520, Note_on_c, 11, 43, 0
12, 164640, Note_on_c, 11, 31, 127
12, 164760, Note_on_c, 11, 31, 0
12, 164880, Note_on_c, 11, 31, 127
12, 165000, Note_on_c, 11, 31, 0
12, 165120, Note_on_c, 11, 36, 127
12, 165240, Note_on_c, 11, 36, 0
12, 165360, Note_on_c, 11, 29, 127
12, 165480, Note_on_c, 11, 29, 0
12, 165600, Note_on_c, 11, 41, 127
12, 165720, Note_on_c, 11, 41, 0
12, 165840, Note_on_c, 11, 41, 127
12, 165960, Note_on_c, 11, 41, 0
12, 166080, Note_on_c, 11, 41, 127
12, 166200, Note_on_c, 11, 41, 0
12, 166320, Note_on_c, 11, 41, 127
12, 166440, Note_on_c, 11, 41, 0
12, 166560, Note_on_c, 11, 41, 127
12, 166680, Note_on_c, 11, 41, 0
12, 166800, Note_on_c, 11, 41, 127
12, 166920, Note_on_c, 11, 41, 0
12, 167040, Note_on_c, 11, 43, 127
12, 167160, Note_on_c, 11, 43, 0
12, 167280, Note_on_c, 11, 43, 127
12, 167400, Note_on_c, 11, 43, 0
12, 167520, Note_on_c, 11, 31, 127
12, 167640, Note_on_c, 11, 31, 0
12, 167760, Note_on_c, 11, 31, 127
12, 167880, Note_on_c, 11, 31, 0
12, 168000, Note_on_c, 11, 36, 127
12, 168240, Note_on_c, 11, 36, 0
12, 168480, Note_on_c, 11, 48, 127
12, 168705, Note_on_c, 11, 48, 0
12, 168840, Note_on_c, 11, 48, 127
12, 168960, Note_on_c, 11, 48, 0
12, 168960, Note_on_c, 11, 48, 127
12, 169656, Note_on_c, 11, 48, 0
12, 169680, Note_on_c, 11, 47, 127
12, 169800, Note_on_c, 11, 47, 0
12, 169800, Note_on_c, 11, 45, 127
12, 169920, Note_on_c, 11, 45, 0
12, 169920, Note_on_c, 11, 43, 127
12, 170004, Note_on_c, 11, 43, 0
12, 170040, Note_on_c, 11, 45, 127
12, 170124, Note_on_c, 11, 45, 0
12, 170160, Note_on_c, 11, 43, 127
12, 170244, Note_on_c, 11, 43, 0
12, 170280, Note_on_c, 11, 41, 127
12, 170364, Note_on_c, 11, 41, 0
12, 170400, Note_on_c, 11, 40, 127
12, 170484, Note_on_c, 11, 40, 0
12, 170520, Note_on_c, 11, 41, 127
12, 170604, Note_on_c, 11, 41, 0
12, 170640, Note_on_c, 11, 40, 127
12, 170724, Note_on_c, 11, 40, 0
12, 170760, Note_on_c, 11, 38, 127
12, 170844, Note_on_c, 11, 38, 0
12, 170880, Note_on_c, 11, 36, 127
12, 170952, Note_on_c, 11, 36, 0
12, 171000, Note_on_c, 11, 31, 127
12, 171072, Note_on_c, 11, 31, 0
12, 171120, Note_on_c, 11, 33, 127
12, 171192, Note_on_c, 11, 33, 0
12, 171240, Note_on_c, 11, 35, 127
12, 171312, Note_on_c, 11, 35, 0
12, 171360, Note_on_c, 11, 36, 127
12, 171432, Note_on_c, 11, 36, 0
12, 171480, Note_on_c, 11, 35, 127
12, 171552, Note_on_c, 11, 35, 0
12, 171600, Note_on_c, 11, 36, 127
12, 171672, Note_on_c, 11, 36, 0
12, 171720, Note_on_c, 11, 38, 127
12, 171792, Note_on_c, 11, 38, 0
12, 171840, Note_on_c, 11, 40, 127
12, 171912, Note_on_c, 11, 40, 0
12, 171960, Note_on_c, 11, 38, 127
12, 172032, Note_on_c, 11, 38, 0
12, 172080, Note_on_c, 11, 36, 127
12, 172152, Note_on_c, 11, 36, 0
12, 172200, Note_on_c, 11, 38, 127
12, 172272, Note_on_c, 11, 38, 0
12, 172320, Note_on_c, 11, 40, 127
12, 172392, Note_on_c, 11, 40, 0
12, 172440, Note_on_c, 11, 38, 127
12, 172512, Note_on_c, 11, 38, 0
12, 172560, Note_on_c, 11, 40, 127
12, 172632, Note_on_c, 11, 40, 0
12, 172680, Note_on_c, 11, 41, 127
12, 172752, Note_on_c, 11, 41, 0
12, 172800, Note_on_c, 11, 43, 127
12, 172872, Note_on_c, 11, 43, 0
12, 172920, Note_on_c, 11, 42, 127
12, 172992, Note_on_c, 11, 42, 0
12, 173040, Note_on_c, 11, 43, 127
12, 173112, Note_on_c, 11, 43, 0
12, 173160, Note_on_c, 11, 45, 127
12, 173232, Note_on_c, 11, 45, 0
12, 173280, Note_on_c, 11, 47, 127
12, 173352, Note_on_c, 11, 47, 0
12, 173400, Note_on_c, 11, 43, 127
12, 173472, Note_on_c, 11, 43, 0
12, 173520, Note_on_c, 11, 45, 127
12, 173592, Note_on_c, 11, 45, 0
12, 173640, Note_on_c, 11, 47, 127
12, 173712, Note_on_c, 11, 47, 0
12, 173760, Note_on_c, 11, 48, 127
12, 174000, Note_on_c, 11, 48, 0
12, 174240, Note_on_c, 11, 48, 127
12, 174465, Note_on_c, 11, 48, 0
12, 174600, Note_on_c, 11, 48, 127
12, 174720, Note_on_c, 11, 48, 0
12, 174720, Note_on_c, 11, 48, 127
12, 175320, Note_on_c, 11, 48, 0
12, 175440, Note_on_c, 11, 47, 127
12, 175560, Note_on_c, 11, 47, 0
12, 175560, Note_on_c, 11, 45, 127
12, 175680, Note_on_c, 11, 45, 0
12, 175680, Note_on_c, 11, 43, 127
12, 175764, Note_on_c, 11, 43, 0
12, 175800, Note_on_c, 11, 45, 127
12, 175884, Note_on_c, 11, 45, 0
12, 175920, Note_on_c, 11, 43, 127
12, 176004, Note_on_c, 11, 43, 0
12, 176040, Note_on_c, 11, 41, 127
12, 176124, Note_on_c, 11, 41, 0
12, 176160, Note_on_c, 11, 40, 127
12, 176244, Note_on_c, 11, 40, 0
12, 176280, Note_on_c, 11, 41, 127
12, 176364, Note_on_c, 11, 41, 0
12, 176400, Note_on_c, 11, 40, 127
12, 176484, Note_on_c, 11, 40, 0
12, 176520, Note_on_c, 11, 38, 127
12, 176604, Note_on_c, 11, 38, 0
12, 176640, Note_on_c, 11, 36, 127
12, 176760, Note_on_c, 11, 36, 0
12, 176880, Note_on_c, 11, 43, 127
12, 177000, Note_on_c, 11, 43, 0
12, 177120, Note_on_c, 11, 48, 127
12, 177240, Note_on_c, 11, 48, 0
12, 177360, Note_on_c, 11, 43, 127
12, 177480, Note_on_c, 11, 43, 0
12, 177600, Note_on_c, 11, 48, 127
12, 177720, Note_on_c, 11, 48, 0
12, 177840, Note_on_c, 11, 43, 127
12, 177960, Note_on_c, 11, 43, 0
12, 178080, Note_on_c, 11, 48, 127
12, 178200, Note_on_c, 11, 48, 0
12, 178320, Note_on_c, 11, 43, 127
12, 178440, Note_on_c, 11, 43, 0
12, 178560, Note_on_c, 11, 48, 127
12, 178644, Note_on_c, 11, 48, 0
12, 178680, Note_on_c, 11, 47, 127
12, 178764, Note_on_c, 11, 47, 0
12, 178800, Note_on_c, 11, 45, 127
12, 178884, Note_on_c, 11, 45, 0
12, 178920, Note_on_c, 11, 43, 127
12, 179004, Note_on_c, 11, 43, 0
12, 179040, Note_on_c, 11, 48, 127
12, 179124, Note_on_c, 11, 48, 0
12, 179160, Note_on_c, 11, 47, 127
12, 179244, Note_on_c, 11, 47, 0
12, 179280, Note_on_c, 11, 45, 127
12, 179364, Note_on_c, 11, 45, 0
12, 179400, Note_on_c, 11, 43, 127
12, 179484, Note_on_c, 11, 43, 0
12, 179520, Note_on_c, 11, 48, 127
12, 179604, Note_on_c, 11, 48, 0
12, 179640, Note_on_c, 11, 47, 127
12, 179724, Note_on_c, 11, 47, 0
12, 179760, Note_on_c, 11, 45, 127
12, 179844, Note_on_c, 11, 45, 0
12, 179880, Note_on_c, 11, 43, 127
12, 179964, Note_on_c, 11, 43, 0
12, 180000, Note_on_c, 11, 41, 127
12, 180084, Note_on_c, 11, 41, 0
12, 180120, Note_on_c, 11, 40, 127
12, 180204, Note_on_c, 11, 40, 0
12, 180240, Note_on_c, 11, 38, 127
12, 180324, Note_on_c, 11, 38, 0
12, 180360, Note_on_c, 11, 36, 127
12, 180444, Note_on_c, 11, 36, 0
12, 180480, Note_on_c, 11, 31, 127
12, 180600, Note_on_c, 11, 31, 0
12, 180720, Note_on_c, 11, 43, 127
12, 180840, Note_on_c, 11, 43, 0
12, 180960, Note_on_c, 11, 43, 127
12, 181080, Note_on_c, 11, 43, 0
12, 181200, Note_on_c, 11, 43, 127
12, 181320, Note_on_c, 11, 43, 0
12, 181440, Note_on_c, 11, 43, 127
12, 181560, Note_on_c, 11, 43, 0
12, 181680, Note_on_c, 11, 43, 127
12, 181800, Note_on_c, 11, 43, 0
12, 181920, Note_on_c, 11, 43, 127
12, 182040, Note_on_c, 11, 43, 0
12, 182160, Note_on_c, 11, 43, 127
12, 182280, Note_on_c, 11, 43, 0
12, 182400, Note_on_c, 11, 43, 127
12, 182520, Note_on_c, 11, 43, 0
12, 182640, Note_on_c, 11, 43, 127
12, 182760, Note_on_c, 11, 43, 0
12, 182880, Note_on_c, 11, 43, 127
12, 183000, Note_on_c, 11, 43, 0
12, 183120, Note_on_c, 11, 43, 127
12, 183240, Note_on_c, 11, 43, 0
12, 183360, Note_on_c, 11, 43, 127
12, 183840, Note_on_c, 11, 43, 0
12, 197760, Note_on_c, 11, 36, 50
12, 198720, Note_on_c, 11, 36, 0
12, 198720, Note_on_c, 11, 38, 50
12, 199680, Note_on_c, 11, 38, 0
12, 199680, Note_on_c, 11, 41, 50
12, 200640, Note_on_c, 11, 41, 0
12, 200640, Note_on_c, 11, 40, 127
12, 200760, Note_on_c, 11, 40, 0
12, 200880, Note_on_c, 11, 48, 127
12, 201000, Note_on_c, 11, 48, 0
12, 201120, Note_on_c, 11, 45, 127
12, 201240, Note_on_c, 11, 45, 0
12, 201360, Note_on_c, 11, 43, 127
12, 201480, Note_on_c, 11, 43, 0
12, 201600, Note_on_c, 11, 41, 127
12, 201720, Note_on_c, 11, 41, 0
12, 201840, Note_on_c, 11, 40, 127
12, 201960, Note_on_c, 11, 40, 0
12, 202080, Note_on_c, 11, 38, 127
12, 202200, Note_on_c, 11, 38, 0
12, 202320, Note_on_c, 11, 36, 127
12, 202440, Note_on_c, 11, 36, 0
12, 202560, Note_on_c, 11, 35, 127
12, 202680, Note_on_c, 11, 35, 0
12, 202800, Note_on_c, 11, 31, 127
12, 202920, Note_on_c, 11, 31, 0
12, 203040, Note_on_c, 11, 33, 127
12, 203160, Note_on_c, 11, 33, 0
12, 203280, Note_on_c, 11, 35, 127
12, 203400, Note_on_c, 11, 35, 0
12, 203520, Note_on_c, 11, 36, 127
12, 204000, Note_on_c, 11, 36, 0
12, 204720, Note_on_c, 11, 42, 127
12, 204960, Note_on_c, 11, 42, 0
12, 204960, Note_on_c, 11, 43, 127
12, 205200, Note_on_c, 11, 43, 0
12, 205200, Note_on_c, 11, 45, 127
12, 205440, Note_on_c, 11, 45, 0
12, 205440, Note_on_c, 11, 48, 127
12, 205500, Note_on_c, 11, 48, 0
12, 205500, Note_on_c, 11, 47, 127
12, 205560, Note_on_c, 11, 47, 0
12, 205560, Note_on_c, 11, 48, 127
12, 205620, Note_on_c, 11, 48, 0
12, 205620, Note_on_c, 11, 47, 127
12, 205680, Note_on_c, 11, 47, 0
12, 205800, Note_on_c, 11, 48, 127
12, 205896, Note_on_c, 11, 48, 0
12, 205920, Note_on_c, 11, 50, 127
12, 206304, Note_on_c, 11, 50, 0
12, 206640, Note_on_c, 11, 40, 127
12, 206880, Note_on_c, 11, 40, 0
12, 206880, Note_on_c, 11, 42, 127
12, 207120, Note_on_c, 11, 42, 0
12, 207120, Note_on_c, 11, 43, 127
12, 207360, Note_on_c, 11, 43, 0
12, 207360, Note_on_c, 11, 47, 127
12, 207420, Note_on_c, 11, 47, 0
12, 207420, Note_on_c, 11, 45, 127
12, 207480, Note_on_c, 11, 45, 0
12, 207480, Note_on_c, 11, 47, 127
12, 207540, Note_on_c, 11, 47, 0
12, 207540, Note_on_c, 11, 45, 127
12, 207600, Note_on_c, 11, 45, 0
12, 207720, Note_on_c, 11, 47, 127
12, 207816, Note_on_c, 11, 47, 0
12, 207840, Note_on_c, 11, 48, 127
12, 208224, Note_on_c, 11, 48, 0
12, 208560, Note_on_c, 11, 38, 127
12, 208800, Note_on_c, 11, 38, 0
12, 208800, Note_on_c, 11, 40, 127
12, 209040, Note_on_c, 11, 40, 0
12, 209040, Note_on_c, 11, 42, 127
12, 209280, Note_on_c, 11, 42, 0
12, 209280, Note_on_c, 11, 45, 127
12, 209340, Note_on_c, 11, 45, 0
12, 209340, Note_on_c, 11, 43, 127
12, 209400, Note_on_c, 11, 43, 0
12, 209400, Note_on_c, 11, 45, 127
12, 209460, Note_on_c, 11, 45, 0
12, 209460, Note_on_c, 11, 43, 127
12, 209520, Note_on_c, 11, 43, 0
12, 209640, Note_on_c, 11, 45, 127
12, 209736, Note_on_c, 11, 45, 0
12, 209760, Note_on_c, 11, 47, 127
12, 210144, Note_on_c, 11, 47, 0
12, 210480, Note_on_c, 11, 40, 127
12, 210600, Note_on_c, 11, 40, 0
12, 210720, Note_on_c, 11, 52, 127
12, 210840, Note_on_c, 11, 52, 0
12, 210960, Note_on_c, 11, 40, 127
12, 211080, Note_on_c, 11, 40, 0
12, 211200, Note_on_c, 11, 38, 127
12, 211650, Note_on_c, 11, 38, 0
12, 212160, Note_on_c, 11, 50, 127
12, 212385, Note_on_c, 11, 50, 0
12, 212520, Note_on_c, 11, 50, 127
12, 212640, Note_on_c, 11, 50, 0
12, 212640, Note_on_c, 11, 50, 127
12, 213360, Note_on_c, 11, 50, 0
12, 213360, Note_on_c, 11, 49, 127
12, 213444, Note_on_c, 11, 49, 0
12, 213480, Note_on_c, 11, 47, 127
12, 213564, Note_on_c, 11, 47, 0
12, 213600, Note_on_c, 11, 45, 127
12, 213684, Note_on_c, 11, 45, 0
12, 213720, Note_on_c, 11, 47, 127
12, 213804, Note_on_c, 11, 47, 0
12, 213840, Note_on_c, 11, 45, 127
12, 213924, Note_on_c, 11, 45, 0
12, 213960, Note_on_c, 11, 43, 127
12, 214044, Note_on_c, 11, 43, 0
12, 214080, Note_on_c, 11, 42, 127
12, 214164, Note_on_c, 11, 42, 0
12, 214200, Note_on_c, 11, 43, 127
12, 214284, Note_on_c, 11, 43, 0
12, 214320, Note_on_c, 11, 42, 127
12, 214404, Note_on_c, 11, 42, 0
12, 214440, Note_on_c, 11, 40, 127
12, 214524, Note_on_c, 11, 40, 0
12, 214560, Note_on_c, 11, 38, 127
12, 214800, Note_on_c, 11, 38, 0
12, 215040, Note_on_c, 11, 50, 127
12, 215265, Note_on_c, 11, 50, 0
12, 215400, Note_on_c, 11, 50, 127
12, 215520, Note_on_c, 11, 50, 0
12, 215520, Note_on_c, 11, 50, 127
12, 216240, Note_on_c, 11, 50, 0
12, 216240, Note_on_c, 11, 49, 127
12, 216324, Note_on_c, 11, 49, 0
12, 216360, Note_on_c, 11, 47, 127
12, 216444, Note_on_c, 11, 47, 0
12, 216480, Note_on_c, 11, 45, 127
12, 216564, Note_on_c, 11, 45, 0
12, 216600, Note_on_c, 11, 47, 127
12, 216684, Note_on_c, 11, 47, 0
12, 216720, Note_on_c, 11, 45, 127
12, 216804, Note_on_c, 11, 45, 0
12, 216840, Note_on_c, 11, 43, 127
12, 216924, Note_on_c, 11, 43, 0
12, 216960, Note_on_c, 11, 42, 127
12, 217044, Note_on_c, 11, 42, 0
12, 217080, Note_on_c, 11, 43, 127
12, 217164, Note_on_c, 11, 43, 0
12, 217200, Note_on_c, 11, 42, 127
12, 217284, Note_on_c, 11, 42, 0
12, 217320, Note_on_c, 11, 40, 127
12, 217404, Note_on_c, 11, 40, 0
12, 217440, Note_on_c, 11, 38, 127
12, 217524, Note_on_c, 11, 38, 0
12, 217560, Note_on_c, 11, 40, 127
12, 217644, Note_on_c, 11, 40, 0
12, 217680, Note_on_c, 11, 42, 127
12, 217764, Note_on_c, 11, 42, 0
12, 217800, Note_on_c, 11, 43, 127
12, 217884, Note_on_c, 11, 43, 0
12, 217920, Note_on_c, 11, 45, 127
12, 218004, Note_on_c, 11, 45, 0
12, 218040, Note_on_c, 11, 47, 127
12, 218124, Note_on_c, 11, 47, 0
12, 218160, Note_on_c, 11, 45, 127
12, 218244, Note_on_c, 11, 45, 0
12, 218280, Note_on_c, 11, 43, 127
12, 218364, Note_on_c, 11, 43, 0
12, 218400, Note_on_c, 11, 42, 127
12, 218484, Note_on_c, 11, 42, 0
12, 218520, Note_on_c, 11, 43, 127
12, 218604, Note_on_c, 11, 43, 0
12, 218640, Note_on_c, 11, 45, 127
12, 218724, Note_on_c, 11, 45, 0
12, 218760, Note_on_c, 11, 43, 127
12, 218844, Note_on_c, 11, 43, 0
12, 218880, Note_on_c, 11, 42, 127
12, 219000, Note_on_c, 11, 42, 0
12, 219120, Note_on_c, 11, 48, 127
12, 219240, Note_on_c, 11, 48, 0
12, 219360, Note_on_c, 11, 45, 127
12, 219480, Note_on_c, 11, 45, 0
12, 219600, Note_on_c, 11, 42, 127
12, 219720, Note_on_c, 11, 42, 0
12, 219840, Note_on_c, 11, 38, 127
12, 220320, Note_on_c, 11, 38, 0
12, 220800, Note_on_c, 11, 31, 50
12, 221280, Note_on_c, 11, 31, 0
12, 221760, Note_on_c, 11, 40, 50
12, 222240, Note_on_c, 11, 40, 0
12, 222720, Note_on_c, 11, 33, 50
12, 223200, Note_on_c, 11, 33, 0
12, 223680, Note_on_c, 11, 38, 50
12, 224160, Note_on_c, 11, 38, 0
12, 224640, Note_on_c, 11, 43, 50
12, 224880, Note_on_c, 11, 43, 0
12, 225120, Note_on_c, 11, 35, 50
12, 225360, Note_on_c, 11, 35, 0
12, 225600, Note_on_c, 11, 36, 50
12, 225840, Note_on_c, 11, 36, 0
12, 226080, Note_on_c, 11, 37, 50
12, 226320, Note_on_c, 11, 37, 0
12, 226560, Note_on_c, 11, 38, 50
12, 226800, Note_on_c, 11, 38, 0
12, 227040, Note_on_c, 11, 30, 50
12, 227520, Note_on_c, 11, 30, 0
12, 227520, Note_on_c, 11, 31, 50
12, 228000, Note_on_c, 11, 31, 0
12, 228000, Note_on_c, 11, 32, 50
12, 228480, Note_on_c, 11, 32, 0
12, 228480, Note_on_c, 11, 33, 50
12, 228816, Note_on_c, 11, 33, 0
12, 228960, Note_on_c, 11, 36, 50
12, 229680, Note_on_c, 11, 36, 0
12, 229680, Note_on_c, 11, 33, 50
12, 229800, Note_on_c, 11, 33, 0
12, 229920, Note_on_c, 11, 38, 50
12, 230040, Note_on_c, 11, 38, 0
12, 230160, Note_on_c, 11, 36, 50
12, 230280, Note_on_c, 11, 36, 0
12, 230400, Note_on_c, 11, 35, 50
12, 231360, Note_on_c, 11, 35, 0
12, 231360, Note_on_c, 11, 36, 50
12, 231840, Note_on_c, 11, 36, 0
12, 231840, Note_on_c, 11, 37, 50
12, 232320, Note_on_c, 11, 37, 0
12, 232320, Note_on_c, 11, 38, 50
12, 234208, Note_on_c, 11, 38, 0
12, 234240, Note_on_c, 11, 38, 50
12, 236158, Note_on_c, 11, 38, 0
12, 236160, Note_on_c, 11, 38, 50
12, 238078, Note_on_c, 11, 38, 0
12, 238080, Note_on_c, 11, 38, 50
12, 239998, Note_on_c, 11, 38, 0
12, 240000, Note_on_c, 11, 31, 100
12, 240480, Note_on_c, 11, 31, 0
12, 241440, Note_on_c, 11, 48, 100
12, 241776, Note_on_c, 11, 48, 0
12, 241920, Note_on_c, 11, 45, 100
12, 242256, Note_on_c, 11, 45, 0
12, 242400, Note_on_c, 11, 50, 100
12, 242736, Note_on_c, 11, 50, 0
12, 243360, Note_on_c, 11, 52, 100
12, 243696, Note_on_c, 11, 52, 0
12, 243840, Note_on_c, 11, 48, 100
12, 244176, Note_on_c, 11, 48, 0
12, 244320, Note_on_c, 11, 54, 100
12, 244656, Note_on_c, 11, 54, 0
12, 245280, Note_on_c, 11, 43, 100
12, 245616, Note_on_c, 11, 43, 0
12, 245760, Note_on_c, 11, 40, 100
12, 246096, Note_on_c, 11, 40, 0
12, 246240, Note_on_c, 11, 45, 100
12, 246804, Note_on_c, 11, 45, 0
12, 246840, Note_on_c, 11, 43, 100
12, 246924, Note_on_c, 11, 43, 0
12, 246960, Note_on_c, 11, 42, 100
12, 247044, Note_on_c, 11, 42, 0
12, 247080, Note_on_c, 11, 40, 100
12, 247164, Note_on_c, 11, 40, 0
12, 247200, Note_on_c, 11, 42, 100
12, 247284, Note_on_c, 11, 42, 0
12, 247320, Note_on_c, 11, 40, 100
12, 247404, Note_on_c, 11, 40, 0
12, 247440, Note_on_c, 11, 38, 100
12, 247524, Note_on_c, 11, 38, 0
12, 247560, Note_on_c, 11, 36, 100
12, 247644, Note_on_c, 11, 36, 0
12, 247680, Note_on_c, 11, 35, 100
12, 248016, Note_on_c, 11, 35, 0
12, 248160, Note_on_c, 11, 43, 100
12, 248496, Note_on_c, 11, 43, 0
12, 249120, Note_on_c, 11, 52, 100
12, 249456, Note_on_c, 11, 52, 0
12, 249600, Note_on_c, 11, 48, 100
12, 249936, Note_on_c, 11, 48, 0
12, 250080, Note_on_c, 11, 54, 100
12, 250644, Note_on_c, 11, 54, 0
12, 250680, Note_on_c, 11, 52, 100
12, 250764, Note_on_c, 11, 52, 0
12, 250800, Note_on_c, 11, 51, 100
12, 250884, Note_on_c, 11, 51, 0
12, 250920, Note_on_c, 11, 49, 100
12, 251004, Note_on_c, 11, 49, 0
12, 251040, Note_on_c, 11, 51, 100
12, 251124, Note_on_c, 11, 51, 0
12, 251160, Note_on_c, 11, 49, 100
12, 251244, Note_on_c, 11, 49, 0
12, 251280, Note_on_c, 11, 47, 100
12, 251364, Note_on_c, 11, 47, 0
12, 251400, Note_on_c, 11, 45, 100
12, 251484, Note_on_c, 11, 45, 0
12, 251520, Note_on_c, 11, 43, 100
12, 251856, Note_on_c, 11, 43, 0
12, 252000, Note_on_c, 11, 52, 100
12, 252336, Note_on_c, 11, 52, 0
12, 252960, Note_on_c, 11, 48, 100
12, 253296, Note_on_c, 11, 48, 0
12, 253440, Note_on_c, 11, 45, 100
12, 253776, Note_on_c, 11, 45, 0
12, 253920, Note_on_c, 11, 50, 100
12, 254484, Note_on_c, 11, 50, 0
12, 254520, Note_on_c, 11, 48, 100
12, 254604, Note_on_c, 11, 48, 0
12, 254640, Note_on_c, 11, 47, 100
12, 254724, Note_on_c, 11, 47, 0
12, 254760, Note_on_c, 11, 45, 100
12, 254844, Note_on_c, 11, 45, 0
12, 254880, Note_on_c, 11, 47, 100
12, 254964, Note_on_c, 11, 47, 0
12, 255000, Note_on_c, 11, 45, 100
12, 255084, Note_on_c, 11, 45, 0
12, 255120, Note_on_c, 11, 43, 100
12, 255204, Note_on_c, 11, 43, 0
12, 255240, Note_on_c, 11, 41, 100
12, 255324, Note_on_c, 11, 41, 0
12, 255360, Note_on_c, 11, 40, 100
12, 255528, Note_on_c, 11, 40, 0
12, 255600, Note_on_c, 11, 48, 100
12, 255684, Note_on_c, 11, 48, 0
12, 255720, Note_on_c, 11, 47, 100
12, 255804, Note_on_c, 11, 47, 0
12, 255840, Note_on_c, 11, 48, 100
12, 255924, Note_on_c, 11, 48, 0
12, 255960, Note_on_c, 11, 47, 100
12, 256044, Note_on_c, 11, 47, 0
12, 256080, Note_on_c, 11, 45, 100
12, 256164, Note_on_c, 11, 45, 0
12, 256200, Note_on_c, 11, 43, 100
12, 256284, Note_on_c, 11, 43, 0
12, 256320, Note_on_c, 11, 48, 100
12, 256488, Note_on_c, 11, 48, 0
12, 256560, Note_on_c, 11, 52, 100
12, 256644, Note_on_c, 11, 52, 0
12, 256680, Note_on_c, 11, 50, 100
12, 256764, Note_on_c, 11, 50, 0
12, 256800, Note_on_c, 11, 52, 100
12, 256884, Note_on_c, 11, 52, 0
12, 256920, Note_on_c, 11, 50, 100
12, 257004, Note_on_c, 11, 50, 0
12, 257040, Note_on_c, 11, 48, 100
12, 257124, Note_on_c, 11, 48, 0
12, 257160, Note_on_c, 11, 47, 100
12, 257244, Note_on_c, 11, 47, 0
12, 257280, Note_on_c, 11, 52, 100
12, 257448, Note_on_c, 11, 52, 0
12, 257520, Note_on_c, 11, 48, 100
12, 257604, Note_on_c, 11, 48, 0
12, 257640, Note_on_c, 11, 47, 100
12, 257724, Note_on_c, 11, 47, 0
12, 257760, Note_on_c, 11, 48, 100
12, 257844, Note_on_c, 11, 48, 0
12, 257880, Note_on_c, 11, 47, 100
12, 257964, Note_on_c, 11, 47, 0
12, 258000, Note_on_c, 11, 45, 100
12, 258084, Note_on_c, 11, 45, 0
12, 258120, Note_on_c, 11, 43, 100
12, 258204, Note_on_c, 11, 43, 0
12, 258240, Note_on_c, 11, 48, 100
12, 258408, Note_on_c, 11, 48, 0
12, 258480, Note_on_c, 11, 45, 100
12, 258564, Note_on_c, 11, 45, 0
12, 258600, Note_on_c, 11, 43, 100
12, 258684, Note_on_c, 11, 43, 0
12, 258720, Note_on_c, 11, 45, 100
12, 258804, Note_on_c, 11, 45, 0
12, 258840, Note_on_c, 11, 43, 100
12, 258924, Note_on_c, 11, 43, 0
12, 258960, Note_on_c, 11, 42, 100
12, 259044, Note_on_c, 11, 42, 0
12, 259080, Note_on_c, 11, 40, 100
12, 259164, Note_on_c, 11, 40, 0
12, 259200, Note_on_c, 11, 42, 100
12, 259320, Note_on_c, 11, 42, 0
12, 259440, Note_on_c, 11, 38, 100
12, 259560, Note_on_c, 11, 38, 0
12, 259680, Note_on_c, 11, 40, 100
12, 259800, Note_on_c, 11, 40, 0
12, 259920, Note_on_c, 11, 42, 100
12, 260040, Note_on_c, 11, 42, 0
12, 260160, Note_on_c, 11, 43, 100
12, 260280, Note_on_c, 11, 43, 0
12, 260400, Note_on_c, 11, 43, 100
12, 260520, Note_on_c, 11, 43, 0
12, 260640, Note_on_c, 11, 43, 100
12, 260760, Note_on_c, 11, 43, 0
12, 260880, Note_on_c, 11, 43, 100
12, 261000, Note_on_c, 11, 43, 0
12, 261120, Note_on_c, 11, 43, 100
12, 261240, Note_on_c, 11, 43, 0
12, 261360, Note_on_c, 11, 43, 100
12, 261480, Note_on_c, 11, 43, 0
12, 261600, Note_on_c, 11, 43, 100
12, 261720, Note_on_c, 11, 43, 0
12, 261840, Note_on_c, 11, 31, 100
12, 261960, Note_on_c, 11, 31, 0
12, 262080, Note_on_c, 11, 40, 100
12, 262200, Note_on_c, 11, 40, 0
12, 262320, Note_on_c, 11, 40, 100
12, 262440, Note_on_c, 11, 40, 0
12, 262560, Note_on_c, 11, 40, 100
12, 262680, Note_on_c, 11, 40, 0
12, 262800, Note_on_c, 11, 40, 100
12, 262920, Note_on_c, 11, 40, 0
12, 263040, Note_on_c, 11, 40, 100
12, 263160, Note_on_c, 11, 40, 0
12, 263280, Note_on_c, 11, 40, 100
12, 263400, Note_on_c, 11, 40, 0
12, 263520, Note_on_c, 11, 40, 100
12, 263640, Note_on_c, 11, 40, 0
12, 263760, Note_on_c, 11, 28, 100
12, 263880, Note_on_c, 11, 28, 0
12, 264000, Note_on_c, 11, 47, 100
12, 264120, Note_on_c, 11, 47, 0
12, 264240, Note_on_c, 11, 47, 100
12, 264360, Note_on_c, 11, 47, 0
12, 264480, Note_on_c, 11, 47, 100
12, 264600, Note_on_c, 11, 47, 0
12, 264720, Note_on_c, 11, 47, 100
12, 264840, Note_on_c, 11, 47, 0
12, 264960, Note_on_c, 11, 47, 100
12, 265080, Note_on_c, 11, 47, 0
12, 265200, Note_on_c, 11, 47, 100
12, 265320, Note_on_c, 11, 47, 0
12, 265440, Note_on_c, 11, 47, 100
12, 265560, Note_on_c, 11, 47, 0
12, 265680, Note_on_c, 11, 35, 100
12, 265800, Note_on_c, 11, 35, 0
12, 265920, Note_on_c, 11, 36, 100
12, 266040, Note_on_c, 11, 36, 0
12, 266160, Note_on_c, 11, 36, 100
12, 266280, Note_on_c, 11, 36, 0
12, 266400, Note_on_c, 11, 36, 100
12, 266520, Note_on_c, 11, 36, 0
12, 266640, Note_on_c, 11, 36, 100
12, 266760, Note_on_c, 11, 36, 0
12, 266880, Note_on_c, 11, 38, 100
12, 267000, Note_on_c, 11, 38, 0
12, 267120, Note_on_c, 11, 38, 100
12, 267240, Note_on_c, 11, 38, 0
12, 267360, Note_on_c, 11, 38, 100
12, 267480, Note_on_c, 11, 38, 0
12, 267600, Note_on_c, 11, 38, 100
12, 267720, Note_on_c, 11, 38, 0
12, 267840, Note_on_c, 11, 31, 100
12, 267960, Note_on_c, 11, 31, 0
12, 268080, Note_on_c, 11, 47, 100
12, 268200, Note_on_c, 11, 47, 0
12, 268320, Note_on_c, 11, 47, 100
12, 268440, Note_on_c, 11, 47, 0
12, 268560, Note_on_c, 11, 47, 100
12, 268680, Note_on_c, 11, 47, 0
12, 268800, Note_on_c, 11, 47, 100
12, 269520, Note_on_c, 11, 47, 0
12, 269520, Note_on_c, 11, 45, 100
12, 269580, Note_on_c, 11, 45, 0
12, 269580, Note_on_c, 11, 43, 100
12, 269640, Note_on_c, 11, 43, 0
12, 269640, Note_on_c, 11, 42, 100
12, 269700, Note_on_c, 11, 42, 0
12, 269700, Note_on_c, 11, 40, 100
12, 269760, Note_on_c, 11, 40, 0
12, 269760, Note_on_c, 11, 38, 100
12, 269880, Note_on_c, 11, 38, 0
12, 270000, Note_on_c, 11, 50, 100
12, 270120, Note_on_c, 11, 50, 0
12, 270240, Note_on_c, 11, 50, 100
12, 270360, Note_on_c, 11, 50, 0
12, 270480, Note_on_c, 11, 50, 100
12, 270600, Note_on_c, 11, 50, 0
12, 270720, Note_on_c, 11, 50, 100
12, 271440, Note_on_c, 11, 50, 0
12, 271440, Note_on_c, 11, 47, 100
12, 271500, Note_on_c, 11, 47, 0
12, 271500, Note_on_c, 11, 45, 100
12, 271560, Note_on_c, 11, 45, 0
12, 271560, Note_on_c, 11, 43, 100
12, 271620, Note_on_c, 11, 43, 0
12, 271620, Note_on_c, 11, 42, 100
12, 271680, Note_on_c, 11, 42, 0
12, 271680, Note_on_c, 11, 39, 100
12, 271920, Note_on_c, 11, 39, 0
12, 271920, Note_on_c, 11, 51, 100
12, 272040, Note_on_c, 11, 51, 0
12, 272160, Note_on_c, 11, 51, 100
12, 272280, Note_on_c, 11, 51, 0
12, 272400, Note_on_c, 11, 51, 100
12, 272520, Note_on_c, 11, 51, 0
12, 272640, Note_on_c, 11, 51, 100
12, 273288, Note_on_c, 11, 51, 0
12, 273360, Note_on_c, 11, 53, 100
12, 273480, Note_on_c, 11, 53, 0
12, 273600, Note_on_c, 11, 51, 100
12, 273720, Note_on_c, 11, 51, 0
12, 273840, Note_on_c, 11, 53, 100
12, 273960, Note_on_c, 11, 53, 0
12, 274080, Note_on_c, 11, 51, 100
12, 274200, Note_on_c, 11, 51, 0
12, 274320, Note_on_c, 11, 53, 100
12, 274440, Note_on_c, 11, 53, 0
12, 274560, Note_on_c, 11, 52, 100
12, 275208, Note_on_c, 11, 52, 0
12, 275280, Note_on_c, 11, 53, 100
12, 275400, Note_on_c, 11, 53, 0
12, 275520, Note_on_c, 11, 52, 100
12, 275640, Note_on_c, 11, 52, 0
12, 275760, Note_on_c, 11, 53, 100
12, 275880, Note_on_c, 11, 53, 0
12, 276000, Note_on_c, 11, 52, 100
12, 276120, Note_on_c, 11, 52, 0
12, 276240, Note_on_c, 11, 53, 100
12, 276360, Note_on_c, 11, 53, 0
12, 276480, Note_on_c, 11, 52, 100
12, 276600, Note_on_c, 11, 52, 0
12, 276720, Note_on_c, 11, 40, 100
12, 276840, Note_on_c, 11, 40, 0
12, 276960, Note_on_c, 11, 42, 100
12, 277080, Note_on_c, 11, 42, 0
12, 277200, Note_on_c, 11, 54, 100
12, 277320, Note_on_c, 11, 54, 0
12, 277440, Note_on_c, 11, 55, 100
12, 277560, Note_on_c, 11, 55, 0
12, 277680, Note_on_c, 11, 51, 100
12, 277800, Note_on_c, 11, 51, 0
12, 277920, Note_on_c, 11, 52, 100
12, 278040, Note_on_c, 11, 52, 0
12, 278160, Note_on_c, 11, 47, 100
12, 278280, Note_on_c, 11, 47, 0
12, 278400, Note_on_c, 11, 48, 100
12, 278520, Note_on_c, 11, 48, 0
12, 278640, Note_on_c, 11, 45, 100
12, 278760, Note_on_c, 11, 45, 0
12, 278880, Note_on_c, 11, 50, 100
12, 279000, Note_on_c, 11, 50, 0
12, 279120, Note_on_c, 11, 38, 100
12, 279240, Note_on_c, 11, 38, 0
12, 279360, Note_on_c, 11, 43, 100
12, 279600, Note_on_c, 11, 43, 0
12, 279840, Note_on_c, 11, 43, 100
12, 280065, Note_on_c, 11, 43, 0
12, 280200, Note_on_c, 11, 43, 100
12, 280320, Note_on_c, 11, 43, 0
12, 280320, Note_on_c, 11, 43, 100
12, 281040, Note_on_c, 11, 43, 0
12, 281040, Note_on_c, 11, 42, 100
12, 281160, Note_on_c, 11, 42, 0
12, 281160, Note_on_c, 11, 40, 100
12, 281280, Note_on_c, 11, 40, 0
12, 281280, Note_on_c, 11, 38, 100
12, 281400, Note_on_c, 11, 38, 0
12, 281400, Note_on_c, 11, 40, 100
12, 281520, Note_on_c, 11, 40, 0
12, 281520, Note_on_c, 11, 38, 100
12, 281640, Note_on_c, 11, 38, 0
12, 281640, Note_on_c, 11, 36, 100
12, 281760, Note_on_c, 11, 36, 0
12, 281760, Note_on_c, 11, 35, 100
12, 281880, Note_on_c, 11, 35, 0
12, 281880, Note_on_c, 11, 36, 100
12, 282000, Note_on_c, 11, 36, 0
12, 282000, Note_on_c, 11, 35, 100
12, 282120, Note_on_c, 11, 35, 0
12, 282120, Note_on_c, 11, 33, 100
12, 282240, Note_on_c, 11, 33, 0
12, 282240, Note_on_c, 11, 31, 100
12, 282480, Note_on_c, 11, 31, 0
12, 282720, Note_on_c, 11, 47, 100
12, 282945, Note_on_c, 11, 47, 0
12, 283080, Note_on_c, 11, 47, 100
12, 283200, Note_on_c, 11, 47, 0
12, 283200, Note_on_c, 11, 47, 100
12, 283920, Note_on_c, 11, 47, 0
12, 283920, Note_on_c, 11, 45, 100
12, 284040, Note_on_c, 11, 45, 0
12, 284040, Note_on_c, 11, 43, 100
12, 284160, Note_on_c, 11, 43, 0
12, 284160, Note_on_c, 11, 42, 100
12, 284280, Note_on_c, 11, 42, 0
12, 284280, Note_on_c, 11, 43, 100
12, 284400, Note_on_c, 11, 43, 0
12, 284400, Note_on_c, 11, 42, 100
12, 284520, Note_on_c, 11, 42, 0
12, 284520, Note_on_c, 11, 40, 100
12, 284640, Note_on_c, 11, 40, 0
12, 284640, Note_on_c, 11, 38, 100
12, 284760, Note_on_c, 11, 38, 0
12, 284760, Note_on_c, 11, 40, 100
12, 284880, Note_on_c, 11, 40, 0
12, 284880, Note_on_c, 11, 38, 100
12, 285000, Note_on_c, 11, 38, 0
12, 285000, Note_on_c, 11, 36, 100
12, 285120, Note_on_c, 11, 36, 0
12, 285120, Note_on_c, 11, 35, 100
12, 285360, Note_on_c, 11, 35, 0
12, 285600, Note_on_c, 11, 50, 100
12, 285825, Note_on_c, 11, 50, 0
12, 285960, Note_on_c, 11, 50, 100
12, 286080, Note_on_c, 11, 50, 0
12, 286080, Note_on_c, 11, 50, 100
12, 286800, Note_on_c, 11, 50, 0
12, 286800, Note_on_c, 11, 48, 100
12, 286920, Note_on_c, 11, 48, 0
12, 286920, Note_on_c, 11, 47, 100
12, 287040, Note_on_c, 11, 47, 0
12, 287040, Note_on_c, 11, 45, 100
12, 287124, Note_on_c, 11, 45, 0
12, 287160, Note_on_c, 11, 47, 100
12, 287244, Note_on_c, 11, 47, 0
12, 287280, Note_on_c, 11, 45, 100
12, 287364, Note_on_c, 11, 45, 0
12, 287400, Note_on_c, 11, 43, 100
12, 287484, Note_on_c, 11, 43, 0
12, 287520, Note_on_c, 11, 42, 100
12, 287604, Note_on_c, 11, 42, 0
12, 287640, Note_on_c, 11, 43, 100
12, 287724, Note_on_c, 11, 43, 0
12, 287760, Note_on_c, 11, 42, 100
12, 287844, Note_on_c, 11, 42, 0
12, 287880, Note_on_c, 11, 40, 100
12, 287964, Note_on_c, 11, 40, 0
12, 288000, Note_on_c, 11, 38, 100
12, 288336, Note_on_c, 11, 38, 0
12, 288480, Note_on_c, 11, 42, 100
12, 288816, Note_on_c, 11, 42, 0
12, 288960, Note_on_c, 11, 43, 100
12, 289080, Note_on_c, 11, 43, 0
12, 289200, Note_on_c, 11, 42, 100
12, 289320, Note_on_c, 11, 42, 0
12, 289440, Note_on_c, 11, 40, 100
12, 289560, Note_on_c, 11, 40, 0
12, 289680, Note_on_c, 11, 39, 100
12, 289800, Note_on_c, 11, 39, 0
12, 289920, Note_on_c, 11, 40, 100
12, 290040, Note_on_c, 11, 40, 0
12, 290160, Note_on_c, 11, 38, 100
12, 290280, Note_on_c, 11, 38, 0
12, 290400, Note_on_c, 11, 36, 100
12, 290520, Note_on_c, 11, 36, 0
12, 290640, Note_on_c, 11, 35, 100
12, 290760, Note_on_c, 11, 35, 0
12, 290880, Note_on_c, 11, 36, 100
12, 291000, Note_on_c, 11, 36, 0
12, 291120, Note_on_c, 11, 37, 100
12, 291240, Note_on_c, 11, 37, 0
12, 291360, Note_on_c, 11, 38, 100
12, 291840, Note_on_c, 11, 38, 0
12, 291840, Note_on_c, 11, 43, 100
12, 291960, Note_on_c, 11, 43, 0
12, 292080, Note_on_c, 11, 42, 100
12, 292200, Note_on_c, 11, 42, 0
12, 292320, Note_on_c, 11, 40, 100
12, 292440, Note_on_c, 11, 40, 0
12, 292560, Note_on_c, 11, 39, 100
12, 292680, Note_on_c, 11, 39, 0
12, 292800, Note_on_c, 11, 40, 100
12, 292920, Note_on_c, 11, 40, 0
12, 293040, Note_on_c, 11, 38, 100
12, 293160, Note_on_c, 11, 38, 0
12, 293280, Note_on_c, 11, 36, 100
12, 293400, Note_on_c, 11, 36, 0
12, 293520, Note_on_c, 11, 35, 100
12, 293640, Note_on_c, 11, 35, 0
12, 293760, Note_on_c, 11, 36, 100
12, 293880, Note_on_c, 11, 36, 0
12, 294000, Note_on_c, 11, 37, 100
12, 294120, Note_on_c, 11, 37, 0
12, 294240, Note_on_c, 11, 38, 100
12, 294360, Note_on_c, 11, 38, 0
12, 294480, Note_on_c, 11, 26, 100
12, 294600, Note_on_c, 11, 26, 0
12, 294720, Note_on_c, 11, 31, 100
12, 294840, Note_on_c, 11, 31, 0
12, 294960, Note_on_c, 11, 43, 50
12, 295080, Note_on_c, 11, 43, 0
12, 295200, Note_on_c, 11, 43, 50
12, 295320, Note_on_c, 11, 43, 0
12, 295440, Note_on_c, 11, 43, 50
12, 295560, Note_on_c, 11, 43, 0
12, 295680, Note_on_c, 11, 43, 50
12, 295800, Note_on_c, 11, 43, 0
12, 295920, Note_on_c, 11, 43, 50
12, 296040, Note_on_c, 11, 43, 0
12, 296160, Note_on_c, 11, 43, 50
12, 296280, Note_on_c, 11, 43, 0
12, 296400, Note_on_c, 11, 43, 50
12, 296520, Note_on_c, 11, 43, 0
12, 296640, Note_on_c, 11, 43, 50
12, 296760, Note_on_c, 11, 43, 0
12, 296880, Note_on_c, 11, 43, 50
12, 297000, Note_on_c, 11, 43, 0
12, 297120, Note_on_c, 11, 43, 50
12, 297240, Note_on_c, 11, 43, 0
12, 297360, Note_on_c, 11, 43, 50
12, 297480, Note_on_c, 11, 43, 0
12, 297600, Note_on_c, 11, 43, 50
12, 297720, Note_on_c, 11, 43, 0
12, 297840, Note_on_c, 11, 31, 50
12, 297960, Note_on_c, 11, 31, 0
12, 298080, Note_on_c, 11, 31, 50
12, 298200, Note_on_c, 11, 31, 0
12, 298320, Note_on_c, 11, 31, 50
12, 298440, Note_on_c, 11, 31, 0
12, 298560, Note_on_c, 11, 31, 50
12, 298680, Note_on_c, 11, 31, 0
12, 298800, Note_on_c, 11, 31, 50
12, 298920, Note_on_c, 11, 31, 0
12, 299040, Note_on_c, 11, 31, 50
12, 299160, Note_on_c, 11, 31, 0
12, 299280, Note_on_c, 11, 31, 50
12, 299400, Note_on_c, 11, 31, 0
12, 299520, Note_on_c, 11, 31, 50
12, 299640, Note_on_c, 11, 31, 0
12, 299760, Note_on_c, 11, 31, 50
12, 299880, Note_on_c, 11, 31, 0
12, 300000, Note_on_c, 11, 31, 50
12, 300120, Note_on_c, 11, 31, 0
12, 300240, Note_on_c, 11, 31, 50
12, 300360, Note_on_c, 11, 31, 0
12, 300480, Note_on_c, 11, 31, 50
12, 300960, Note_on_c, 11, 31, 0
12, 301440, Note_on_c, 11, 31, 50
12, 301560, Note_on_c, 11, 31, 0
12, 301680, Note_on_c, 11, 43, 50
12, 301800, Note_on_c, 11, 43, 0
12, 301920, Note_on_c, 11, 43, 50
12, 302040, Note_on_c, 11, 43, 0
12, 302160, Note_on_c, 11, 43, 50
12, 302280, Note_on_c, 11, 43, 0
12, 302400, Note_on_c, 11, 43, 50
12, 302520, Note_on_c, 11, 43, 0
12, 302640, Note_on_c, 11, 43, 50
12, 302760, Note_on_c, 11, 43, 0
12, 302880, Note_on_c, 11, 43, 50
12, 303000, Note_on_c, 11, 43, 0
12, 303120, Note_on_c, 11, 43, 50
12, 303240, Note_on_c, 11, 43, 0
12, 303360, Note_on_c, 11, 43, 50
12, 303480, Note_on_c, 11, 43, 0
12, 303600, Note_on_c, 11, 43, 50
12, 303720, Note_on_c, 11, 43, 0
12, 303840, Note_on_c, 11, 43, 50
12, 303960, Note_on_c, 11, 43, 0
12, 304080, Note_on_c, 11, 43, 50
12, 304200, Note_on_c, 11, 43, 0
12, 304320, Note_on_c, 11, 43, 50
12, 304440, Note_on_c, 11, 43, 0
12, 304560, Note_on_c, 11, 43, 50
12, 304680, Note_on_c, 11, 43, 0
12, 304800, Note_on_c, 11, 43, 50
12, 304920, Note_on_c, 11, 43, 0
12, 305040, Note_on_c, 11, 43, 50
12, 305160, Note_on_c, 11, 43, 0
12, 305280, Note_on_c, 11, 44, 50
12, 306240, Note_on_c, 11, 44, 0
12, 306240, Note_on_c, 11, 42, 50
12, 307200, Note_on_c, 11, 42, 0
12, 307200, Note_on_c, 11, 43, 50
12, 307320, Note_on_c, 11, 43, 0
12, 307440, Note_on_c, 11, 43, 50
12, 307560, Note_on_c, 11, 43, 0
12, 307680, Note_on_c, 11, 43, 50
12, 307800, Note_on_c, 11, 43, 0
12, 307920, Note_on_c, 11, 43, 50
12, 308040, Note_on_c, 11, 43, 0
12, 308160, Note_on_c, 11, 41, 50
12, 308280, Note_on_c, 11, 41, 0
12, 308400, Note_on_c, 11, 41, 50
12, 308520, Note_on_c, 11, 41, 0
12, 308640, Note_on_c, 11, 41, 50
12, 308760, Note_on_c, 11, 41, 0
12, 308880, Note_on_c, 11, 41, 50
12, 309000, Note_on_c, 11, 41, 0
12, 309120, Note_on_c, 11, 40, 50
12, 312238, Note_on_c, 11, 40, 0
12, 312240, Note_on_c, 11, 40, 50
12, 312360, Note_on_c, 11, 40, 0
12, 312480, Note_on_c, 11, 40, 50
12, 312600, Note_on_c, 11, 40, 0
12, 312720, Note_on_c, 11, 40, 50
12, 312840, Note_on_c, 11, 40, 0
12, 312960, Note_on_c, 11, 41, 50
12, 314878, Note_on_c, 11, 41, 0
12, 314880, Note_on_c, 11, 40, 50
12, 315120, Note_on_c, 11, 40, 0
12, 315360, Note_on_c, 11, 45, 127
12, 315585, Note_on_c, 11, 45, 0
12, 315720, Note_on_c, 11, 45, 127
12, 315840, Note_on_c, 11, 45, 0
12, 315840, Note_on_c, 11, 45, 127
12, 316560, Note_on_c, 11, 45, 0
12, 316560, Note_on_c, 11, 43, 127
12, 316644, Note_on_c, 11, 43, 0
12, 316680, Note_on_c, 11, 41, 127
12, 316764, Note_on_c, 11, 41, 0
12, 316800, Note_on_c, 11, 40, 127
12, 316884, Note_on_c, 11, 40, 0
12, 316920, Note_on_c, 11, 41, 127
12, 317004, Note_on_c, 11, 41, 0
12, 317040, Note_on_c, 11, 40, 127
12, 317124, Note_on_c, 11, 40, 0
12, 317160, Note_on_c, 11, 38, 127
12, 317244, Note_on_c, 11, 38, 0
12, 317280, Note_on_c, 11, 37, 127
12, 317520, Note_on_c, 11, 37, 0
12, 317520, Note_on_c, 11, 40, 127
12, 317760, Note_on_c, 11, 40, 0
12, 317760, Note_on_c, 11, 33, 127
12, 318240, Note_on_c, 11, 33, 0
12, 318720, Note_on_c, 11, 50, 127
12, 318945, Note_on_c, 11, 50, 0
12, 319080, Note_on_c, 11, 50, 127
12, 319200, Note_on_c, 11, 50, 0
12, 319200, Note_on_c, 11, 50, 127
12, 319920, Note_on_c, 11, 50, 0
12, 319920, Note_on_c, 11, 48, 127
12, 320004, Note_on_c, 11, 48, 0
12, 320040, Note_on_c, 11, 47, 127
12, 320124, Note_on_c, 11, 47, 0
12, 320160, Note_on_c, 11, 45, 127
12, 320244, Note_on_c, 11, 45, 0
12, 320280, Note_on_c, 11, 47, 127
12, 320364, Note_on_c, 11, 47, 0
12, 320400, Note_on_c, 11, 45, 127
12, 320484, Note_on_c, 11, 45, 0
12, 320520, Note_on_c, 11, 43, 127
12, 320604, Note_on_c, 11, 43, 0
12, 320640, Note_on_c, 11, 42, 127
12, 320880, Note_on_c, 11, 42, 0
12, 320880, Note_on_c, 11, 45, 127
12, 321120, Note_on_c, 11, 45, 0
12, 321120, Note_on_c, 11, 38, 127
12, 321600, Note_on_c, 11, 38, 0
12, 322080, Note_on_c, 11, 43, 127
12, 322305, Note_on_c, 11, 43, 0
12, 322440, Note_on_c, 11, 43, 127
12, 322560, Note_on_c, 11, 43, 0
12, 322560, Note_on_c, 11, 43, 127
12, 323280, Note_on_c, 11, 43, 0
12, 323280, Note_on_c, 11, 41, 127
12, 323364, Note_on_c, 11, 41, 0
12, 323400, Note_on_c, 11, 40, 127
12, 323484, Note_on_c, 11, 40, 0
12, 323520, Note_on_c, 11, 38, 127
12, 323604, Note_on_c, 11, 38, 0
12, 323640, Note_on_c, 11, 40, 127
12, 323724, Note_on_c, 11, 40, 0
12, 323760, Note_on_c, 11, 38, 127
12, 323844, Note_on_c, 11, 38, 0
12, 323880, Note_on_c, 11, 36, 127
12, 323964, Note_on_c, 11, 36, 0
12, 324000, Note_on_c, 11, 35, 127
12, 324240, Note_on_c, 11, 35, 0
12, 324240, Note_on_c, 11, 38, 127
12, 324480, Note_on_c, 11, 38, 0
12, 324480, Note_on_c, 11, 31, 127
12, 324960, Note_on_c, 11, 31, 0
12, 325440, Note_on_c, 11, 48, 127
12, 325665, Note_on_c, 11, 48, 0
12, 325800, Note_on_c, 11, 48, 127
12, 325920, Note_on_c, 11, 48, 0
12, 325920, Note_on_c, 11, 48, 127
12, 326640, Note_on_c, 11, 48, 0
12, 326640, Note_on_c, 11, 46, 127
12, 326724, Note_on_c, 11, 46, 0
12, 326760, Note_on_c, 11, 45, 127
12, 326844, Note_on_c, 11, 45, 0
12, 326880, Note_on_c, 11, 43, 127
12, 326964, Note_on_c, 11, 43, 0
12, 327000, Note_on_c, 11, 45, 127
12, 327084, Note_on_c, 11, 45, 0
12, 327120, Note_on_c, 11, 43, 127
12, 327204, Note_on_c, 11, 43, 0
12, 327240, Note_on_c, 11, 41, 127
12, 327324, Note_on_c, 11, 41, 0
12, 327360, Note_on_c, 11, 40, 127
12, 327600, Note_on_c, 11, 40, 0
12, 327600, Note_on_c, 11, 43, 127
12, 327840, Note_on_c, 11, 43, 0
12, 327840, Note_on_c, 11, 36, 127
12, 328320, Note_on_c, 11, 36, 0
12, 328800, Note_on_c, 11, 41, 127
12, 329025, Note_on_c, 11, 41, 0
12, 329160, Note_on_c, 11, 41, 127
12, 329280, Note_on_c, 11, 41, 0
12, 329280, Note_on_c, 11, 41, 127
12, 329856, Note_on_c, 11, 41, 0
12, 330000, Note_on_c, 11, 43, 127
12, 330120, Note_on_c, 11, 43, 0
12, 330120, Note_on_c, 11, 45, 127
12, 330204, Note_on_c, 11, 45, 0
12, 330240, Note_on_c, 11, 46, 127
12, 330324, Note_on_c, 11, 46, 0
12, 330360, Note_on_c, 11, 45, 127
12, 330444, Note_on_c, 11, 45, 0
12, 330480, Note_on_c, 11, 46, 127
12, 330564, Note_on_c, 11, 46, 0
12, 330600, Note_on_c, 11, 48, 127
12, 330684, Note_on_c, 11, 48, 0
12, 330720, Note_on_c, 11, 50, 127
12, 330804, Note_on_c, 11, 50, 0
12, 330840, Note_on_c, 11, 48, 127
12, 330924, Note_on_c, 11, 48, 0
12, 330960, Note_on_c, 11, 50, 127
12, 331044, Note_on_c, 11, 50, 0
12, 331080, Note_on_c, 11, 52, 127
12, 331164, Note_on_c, 11, 52, 0
12, 331200, Note_on_c, 11, 53, 127
12, 331680, Note_on_c, 11, 53, 0
12, 334080, Note_on_c, 11, 48, 100
12, 334305, Note_on_c, 11, 48, 0
12, 334440, Note_on_c, 11, 48, 100
12, 334560, Note_on_c, 11, 48, 0
12, 334560, Note_on_c, 11, 48, 100
12, 335280, Note_on_c, 11, 48, 0
12, 335280, Note_on_c, 11, 46, 100
12, 335364, Note_on_c, 11, 46, 0
12, 335400, Note_on_c, 11, 44, 100
12, 335484, Note_on_c, 11, 44, 0
12, 335520, Note_on_c, 11, 43, 100
12, 335604, Note_on_c, 11, 43, 0
12, 335640, Note_on_c, 11, 45, 100
12, 335724, Note_on_c, 11, 45, 0
12, 335760, Note_on_c, 11, 43, 100
12, 335844, Note_on_c, 11, 43, 0
12, 335880, Note_on_c, 11, 41, 100
12, 335964, Note_on_c, 11, 41, 0
12, 336000, Note_on_c, 11, 39, 100
12, 336084, Note_on_c, 11, 39, 0
12, 336120, Note_on_c, 11, 41, 100
12, 336204, Note_on_c, 11, 41, 0
12, 336240, Note_on_c, 11, 39, 100
12, 336324, Note_on_c, 11, 39, 0
12, 336360, Note_on_c, 11, 38, 100
12, 336444, Note_on_c, 11, 38, 0
12, 336480, Note_on_c, 11, 36, 100
12, 336960, Note_on_c, 11, 36, 0
12, 338400, Note_on_c, 11, 43, 83
12, 338625, Note_on_c, 11, 43, 0
12, 338760, Note_on_c, 11, 43, 83
12, 338880, Note_on_c, 11, 43, 0
12, 338880, Note_on_c, 11, 43, 83
12, 339600, Note_on_c, 11, 43, 0
12, 339600, Note_on_c, 11, 45, 83
12, 339684, Note_on_c, 11, 45, 0
12, 339720, Note_on_c, 11, 46, 83
12, 339804, Note_on_c, 11, 46, 0
12, 339840, Note_on_c, 11, 48, 83
12, 339924, Note_on_c, 11, 48, 0
12, 339960, Note_on_c, 11, 46, 83
12, 340044, Note_on_c, 11, 46, 0
12, 340080, Note_on_c, 11, 48, 83
12, 340164, Note_on_c, 11, 48, 0
12, 340200, Note_on_c, 11, 50, 83
12, 340284, Note_on_c, 11, 50, 0
12, 340320, Note_on_c, 11, 52, 83
12, 340404, Note_on_c, 11, 52, 0
12, 340440, Note_on_c, 11, 50, 83
12, 340524, Note_on_c, 11, 50, 0
12, 340560, Note_on_c, 11, 52, 83
12, 340644, Note_on_c, 11, 52, 0
12, 340680, Note_on_c, 11, 54, 83
12, 340764, Note_on_c, 11, 54, 0
12, 340800, Note_on_c, 11, 55, 83
12, 341280, Note_on_c, 11, 55, 0
12, 343680, Note_on_c, 11, 50, 83
12, 343905, Note_on_c, 11, 50, 0
12, 344040, Note_on_c, 11, 50, 83
12, 344160, Note_on_c, 11, 50, 0
12, 344160, Note_on_c, 11, 50, 83
12, 344880, Note_on_c, 11, 50, 0
12, 344880, Note_on_c, 11, 48, 83
12, 344964, Note_on_c, 11, 48, 0
12, 345000, Note_on_c, 11, 46, 83
12, 345084, Note_on_c, 11, 46, 0
12, 345120, Note_on_c, 11, 45, 83
12, 345204, Note_on_c, 11, 45, 0
12, 345240, Note_on_c, 11, 46, 83
12, 345324, Note_on_c, 11, 46, 0
12, 345360, Note_on_c, 11, 45, 83
12, 345444, Note_on_c, 11, 45, 0
12, 345480, Note_on_c, 11, 43, 83
12, 345564, Note_on_c, 11, 43, 0
12, 345600, Note_on_c, 11, 41, 83
12, 345684, Note_on_c, 11, 41, 0
12, 345720, Note_on_c, 11, 43, 83
12, 345804, Note_on_c, 11, 43, 0
12, 345840, Note_on_c, 11, 41, 83
12, 345924, Note_on_c, 11, 41, 0
12, 345960, Note_on_c, 11, 40, 83
12, 346044, Note_on_c, 11, 40, 0
12, 346080, Note_on_c, 11, 38, 83
12, 346560, Note_on_c, 11, 38, 0
12, 351360, Note_on_c, 11, 35, 127
12, 351480, Note_on_c, 11, 35, 0
12, 351600, Note_on_c, 11, 47, 127
12, 351720, Note_on_c, 11, 47, 0
12, 351840, Note_on_c, 11, 47, 127
12, 351960, Note_on_c, 11, 47, 0
12, 352080, Note_on_c, 11, 47, 127
12, 352200, Note_on_c, 11, 47, 0
12, 352320, Note_on_c, 11, 47, 127
12, 352440, Note_on_c, 11, 47, 0
12, 352560, Note_on_c, 11, 47, 127
12, 352680, Note_on_c, 11, 47, 0
12, 352800, Note_on_c, 11, 47, 127
12, 352920, Note_on_c, 11, 47, 0
12, 353040, Note_on_c, 11, 47, 127
12, 353160, Note_on_c, 11, 47, 0
12, 353280, Note_on_c, 11, 47, 127
12, 353400, Note_on_c, 11, 47, 0
12, 353520, Note_on_c, 11, 47, 127
12, 353640, Note_on_c, 11, 47, 0
12, 353760, Note_on_c, 11, 47, 127
12, 353880, Note_on_c, 11, 47, 0
12, 354000, Note_on_c, 11, 47, 127
12, 354120, Note_on_c, 11, 47, 0
12, 354240, Note_on_c, 11, 47, 127
12, 354480, Note_on_c, 11, 47, 0
12, 354720, Note_on_c, 11, 47, 127
12, 354945, Note_on_c, 11, 47, 0
12, 355080, Note_on_c, 11, 47, 127
12, 355200, Note_on_c, 11, 47, 0
12, 355200, Note_on_c, 11, 47, 127
12, 355920, Note_on_c, 11, 47, 0
12, 355920, Note_on_c, 11, 45, 127
12, 356004, Note_on_c, 11, 45, 0
12, 356040, Note_on_c, 11, 43, 127
12, 356124, Note_on_c, 11, 43, 0
12, 356160, Note_on_c, 11, 42, 127
12, 356244, Note_on_c, 11, 42, 0
12, 356280, Note_on_c, 11, 43, 127
12, 356364, Note_on_c, 11, 43, 0
12, 356400, Note_on_c, 11, 42, 127
12, 356484, Note_on_c, 11, 42, 0
12, 356520, Note_on_c, 11, 40, 127
12, 356604, Note_on_c, 11, 40, 0
12, 356640, Note_on_c, 11, 39, 127
12, 356724, Note_on_c, 11, 39, 0
12, 356760, Note_on_c, 11, 40, 127
12, 356844, Note_on_c, 11, 40, 0
12, 356880, Note_on_c, 11, 39, 127
12, 356964, Note_on_c, 11, 39, 0
12, 357000, Note_on_c, 11, 37, 127
12, 357084, Note_on_c, 11, 37, 0
12, 357120, Note_on_c, 11, 35, 127
12, 357360, Note_on_c, 11, 35, 0
12, 357600, Note_on_c, 11, 35, 127
12, 357825, Note_on_c, 11, 35, 0
12, 357960, Note_on_c, 11, 35, 127
12, 358080, Note_on_c, 11, 35, 0
12, 358080, Note_on_c, 11, 35, 127
12, 358728, Note_on_c, 11, 35, 0
12, 358800, Note_on_c, 11, 37, 127
12, 358884, Note_on_c, 11, 37, 0
12, 358920, Note_on_c, 11, 39, 127
12, 359004, Note_on_c, 11, 39, 0
12, 359040, Note_on_c, 11, 40, 127
12, 359124, Note_on_c, 11, 40, 0
12, 359160, Note_on_c, 11, 39, 127
12, 359244, Note_on_c, 11, 39, 0
12, 359280, Note_on_c, 11, 40, 127
12, 359364, Note_on_c, 11, 40, 0
12, 359400, Note_on_c, 11, 42, 127
12, 359484, Note_on_c, 11, 42, 0
12, 359520, Note_on_c, 11, 43, 127
12, 359604, Note_on_c, 11, 43, 0
12, 359640, Note_on_c, 11, 42, 127
12, 359724, Note_on_c, 11, 42, 0
12, 359760, Note_on_c, 11, 43, 127
12, 359844, Note_on_c, 11, 43, 0
12, 359880, Note_on_c, 11, 45, 127
12, 359964, Note_on_c, 11, 45, 0
12, 360000, Note_on_c, 11, 47, 50
12, 360960, Note_on_c, 11, 47, 0
12, 360960, Note_on_c, 11, 46, 50
12, 361920, Note_on_c, 11, 46, 0
12, 361920, Note_on_c, 11, 45, 50
12, 362880, Note_on_c, 11, 45, 0
12, 362880, Note_on_c, 11, 44, 50
12, 363840, Note_on_c, 11, 43, 50
12, 363888, Note_on_c, 11, 44, 0
12, 364800, Note_on_c, 11, 43, 0
12, 364800, Note_on_c, 11, 31, 50
12, 365760, Note_on_c, 11, 31, 0
12, 367680, Note_on_c, 11, 43, 50
12, 368640, Note_on_c, 11, 43, 0
12, 368640, Note_on_c, 11, 45, 50
12, 369600, Note_on_c, 11, 45, 0
12, 369600, Note_on_c, 11, 41, 50
12, 370560, Note_on_c, 11, 41, 0
12, 370560, Note_on_c, 11, 40, 50
12, 371520, Note_on_c, 11, 40, 0
12, 371520, Note_on_c, 11, 38, 50
12, 371760, Note_on_c, 11, 38, 0
12, 372000, Note_on_c, 11, 36, 50
12, 372240, Note_on_c, 11, 36, 0
12, 372480, Note_on_c, 11, 31, 50
12, 372960, Note_on_c, 11, 31, 0
12, 374280, Note_on_c, 11, 36, 127
12, 374318, Note_on_c, 11, 36, 0
12, 374320, Note_on_c, 11, 35, 127
12, 374358, Note_on_c, 11, 35, 0
12, 374360, Note_on_c, 11, 33, 127
12, 374398, Note_on_c, 11, 33, 0
12, 374400, Note_on_c, 11, 31, 127
12, 374880, Note_on_c, 11, 31, 0
12, 375120, Note_on_c, 11, 43, 127
12, 375180, Note_on_c, 11, 43, 0
12, 375180, Note_on_c, 11, 45, 127
12, 375240, Note_on_c, 11, 45, 0
12, 375240, Note_on_c, 11, 47, 127
12, 375300, Note_on_c, 11, 47, 0
12, 375300, Note_on_c, 11, 48, 127
12, 375360, Note_on_c, 11, 48, 0
12, 375360, Note_on_c, 11, 50, 127
12, 375840, Note_on_c, 11, 50, 0
12, 376080, Note_on_c, 11, 43, 127
12, 376140, Note_on_c, 11, 43, 0
12, 376140, Note_on_c, 11, 41, 127
12, 376200, Note_on_c, 11, 41, 0
12, 376200, Note_on_c, 11, 40, 127
12, 376260, Note_on_c, 11, 40, 0
12, 376260, Note_on_c, 11, 38, 127
12, 376320, Note_on_c, 11, 38, 0
12, 376320, Note_on_c, 11, 37, 127
12, 376800, Note_on_c, 11, 37, 0
12, 377160, Note_on_c, 11, 45, 127
12, 377198, Note_on_c, 11, 45, 0
12, 377200, Note_on_c, 11, 47, 127
12, 377238, Note_on_c, 11, 47, 0
12, 377240, Note_on_c, 11, 49, 127
12, 377278, Note_on_c, 11, 49, 0
12, 377280, Note_on_c, 11, 50, 127
12, 377760, Note_on_c, 11, 50, 0
12, 378120, Note_on_c, 11, 38, 127
12, 378158, Note_on_c, 11, 38, 0
12, 378160, Note_on_c, 11, 36, 127
12, 378198, Note_on_c, 11, 36, 0
12, 378200, Note_on_c, 11, 34, 127
12, 378238, Note_on_c, 11, 34, 0
12, 378240, Note_on_c, 11, 33, 127
12, 378720, Note_on_c, 11, 33, 0
12, 378960, Note_on_c, 11, 45, 127
12, 379020, Note_on_c, 11, 45, 0
12, 379020, Note_on_c, 11, 47, 127
12, 379080, Note_on_c, 11, 47, 0
12, 379080, Note_on_c, 11, 49, 127
12, 379140, Note_on_c, 11, 49, 0
12, 379140, Note_on_c, 11, 50, 127
12, 379200, Note_on_c, 11, 50, 0
12, 379200, Note_on_c, 11, 52, 127
12, 379680, Note_on_c, 11, 52, 0
12, 379920, Note_on_c, 11, 45, 127
12, 379980, Note_on_c, 11, 45, 0
12, 379980, Note_on_c, 11, 43, 127
12, 380040, Note_on_c, 11, 43, 0
12, 380040, Note_on_c, 11, 42, 127
12, 380100, Note_on_c, 11, 42, 0
12, 380100, Note_on_c, 11, 40, 127
12, 380160, Note_on_c, 11, 40, 0
12, 380160, Note_on_c, 11, 39, 127
12, 380640, Note_on_c, 11, 39, 0
12, 381000, Note_on_c, 11, 47, 127
12, 381038, Note_on_c, 11, 47, 0
12, 381040, Note_on_c, 11, 49, 127
12, 381078, Note_on_c, 11, 49, 0
12, 381080, Note_on_c, 11, 51, 127
12, 381118, Note_on_c, 11, 51, 0
12, 381120, Note_on_c, 11, 52, 127
12, 381600, Note_on_c, 11, 52, 0
12, 383040, Note_on_c, 11, 41, 127
12, 384000, Note_on_c, 11, 41, 0
12, 384000, Note_on_c, 11, 40, 127
12, 384960, Note_on_c, 11, 40, 0
12, 384960, Note_on_c, 11, 46, 127
12, 385920, Note_on_c, 11, 46, 0
12, 385920, Note_on_c, 11, 45, 127
12, 386880, Note_on_c, 11, 45, 0
12, 386880, Note_on_c, 11, 39, 127
12, 387840, Note_on_c, 11, 39, 0
12, 387840, Note_on_c, 11, 38, 127
12, 388800, Note_on_c, 11, 38, 0
12, 388800, Note_on_c, 11, 44, 127
12, 389760, Note_on_c, 11, 44, 0
12, 389760, Note_on_c, 11, 43, 127
12, 390720, Note_on_c, 11, 43, 0
12, 390720, Note_on_c, 11, 37, 127
12, 391680, Note_on_c, 11, 37, 0
12, 391680, Note_on_c, 11, 36, 127
12, 392640, Note_on_c, 11, 36, 0
12, 392880, Note_on_c, 11, 36, 127
12, 393000, Note_on_c, 11, 36, 0
12, 393120, Note_on_c, 11, 38, 127
12, 393240, Note_on_c, 11, 38, 0
12, 393360, Note_on_c, 11, 40, 127
12, 393480, Note_on_c, 11, 40, 0
12, 393600, Note_on_c, 11, 43, 127
12, 393660, Note_on_c, 11, 43, 0
12, 393660, Note_on_c, 11, 41, 127
12, 393720, Note_on_c, 11, 41, 0
12, 393720, Note_on_c, 11, 43, 127
12, 393780, Note_on_c, 11, 43, 0
12, 393780, Note_on_c, 11, 41, 127
12, 393840, Note_on_c, 11, 41, 0
12, 393960, Note_on_c, 11, 43, 127
12, 394020, Note_on_c, 11, 43, 0
12, 394080, Note_on_c, 11, 45, 127
12, 394464, Note_on_c, 11, 45, 0
12, 394800, Note_on_c, 11, 47, 127
12, 394920, Note_on_c, 11, 47, 0
12, 395040, Note_on_c, 11, 48, 127
12, 395160, Note_on_c, 11, 48, 0
12, 395280, Note_on_c, 11, 50, 127
12, 395400, Note_on_c, 11, 50, 0
12, 395520, Note_on_c, 11, 53, 127
12, 395580, Note_on_c, 11, 53, 0
12, 395580, Note_on_c, 11, 52, 127
12, 395640, Note_on_c, 11, 52, 0
12, 395640, Note_on_c, 11, 53, 127
12, 395700, Note_on_c, 11, 53, 0
12, 395700, Note_on_c, 11, 52, 127
12, 395760, Note_on_c, 11, 52, 0
12, 395880, Note_on_c, 11, 53, 127
12, 395940, Note_on_c, 11, 53, 0
12, 396000, Note_on_c, 11, 55, 127
12, 396384, Note_on_c, 11, 55, 0
12, 396720, Note_on_c, 11, 45, 127
12, 396840, Note_on_c, 11, 45, 0
12, 396960, Note_on_c, 11, 47, 127
12, 397080, Note_on_c, 11, 47, 0
12, 397200, Note_on_c, 11, 48, 127
12, 397320, Note_on_c, 11, 48, 0
12, 397440, Note_on_c, 11, 52, 127
12, 397500, Note_on_c, 11, 52, 0
12, 397500, Note_on_c, 11, 50, 127
12, 397560, Note_on_c, 11, 50, 0
12, 397560, Note_on_c, 11, 52, 127
12, 397620, Note_on_c, 11, 52, 0
12, 397620, Note_on_c, 11, 50, 127
12, 397680, Note_on_c, 11, 50, 0
12, 397800, Note_on_c, 11, 52, 127
12, 397860, Note_on_c, 11, 52, 0
12, 397920, Note_on_c, 11, 53, 127
12, 398304, Note_on_c, 11, 53, 0
12, 398640, Note_on_c, 11, 43, 127
12, 398760, Note_on_c, 11, 43, 0
12, 398880, Note_on_c, 11, 45, 127
12, 399000, Note_on_c, 11, 45, 0
12, 399120, Note_on_c, 11, 47, 127
12, 399240, Note_on_c, 11, 47, 0
12, 399360, Note_on_c, 11, 50, 127
12, 399420, Note_on_c, 11, 50, 0
12, 399420, Note_on_c, 11, 48, 127
12, 399480, Note_on_c, 11, 48, 0
12, 399480, Note_on_c, 11, 50, 127
12, 399540, Note_on_c, 11, 50, 0
12, 399540, Note_on_c, 11, 48, 127
12, 399600, Note_on_c, 11, 48, 0
12, 399720, Note_on_c, 11, 50, 127
12, 399780, Note_on_c, 11, 50, 0
12, 399840, Note_on_c, 11, 52, 127
12, 400224, Note_on_c, 11, 52, 0
12, 400560, Note_on_c, 11, 33, 127
12, 400680, Note_on_c, 11, 33, 0
12, 400800, Note_on_c, 11, 45, 127
12, 400920, Note_on_c, 11, 45, 0
12, 401040, Note_on_c, 11, 33, 127
12, 401160, Note_on_c, 11, 33, 0
12, 401280, Note_on_c, 11, 31, 127
12, 401760, Note_on_c, 11, 31, 0
12, 402240, Note_on_c, 11, 43, 127
12, 402465, Note_on_c, 11, 43, 0
12, 402600, Note_on_c, 11, 43, 127
12, 402720, Note_on_c, 11, 43, 0
12, 402720, Note_on_c, 11, 43, 127
12, 403440, Note_on_c, 11, 43, 0
12, 403440, Note_on_c, 11, 42, 127
12, 403524, Note_on_c, 11, 42, 0
12, 403560, Note_on_c, 11, 40, 127
12, 403644, Note_on_c, 11, 40, 0
12, 403680, Note_on_c, 11, 38, 127
12, 403764, Note_on_c, 11, 38, 0
12, 403800, Note_on_c, 11, 40, 127
12, 403884, Note_on_c, 11, 40, 0
12, 403920, Note_on_c, 11, 38, 127
12, 404004, Note_on_c, 11, 38, 0
12, 404040, Note_on_c, 11, 36, 127
12, 404124, Note_on_c, 11, 36, 0
12, 404160, Note_on_c, 11, 35, 127
12, 404244, Note_on_c, 11, 35, 0
12, 404280, Note_on_c, 11, 36, 127
12, 404364, Note_on_c, 11, 36, 0
12, 404400, Note_on_c, 11, 35, 127
12, 404484, Note_on_c, 11, 35, 0
12, 404520, Note_on_c, 11, 33, 127
12, 404604, Note_on_c, 11, 33, 0
12, 404640, Note_on_c, 11, 31, 127
12, 404880, Note_on_c, 11, 31, 0
12, 405120, Note_on_c, 11, 55, 127
12, 405345, Note_on_c, 11, 55, 0
12, 405480, Note_on_c, 11, 55, 127
12, 405600, Note_on_c, 11, 55, 0
12, 405600, Note_on_c, 11, 55, 127
12, 406248, Note_on_c, 11, 55, 0
12, 406320, Note_on_c, 11, 54, 127
12, 406404, Note_on_c, 11, 54, 0
12, 406440, Note_on_c, 11, 52, 127
12, 406524, Note_on_c, 11, 52, 0
12, 406560, Note_on_c, 11, 50, 127
12, 406644, Note_on_c, 11, 50, 0
12, 406680, Note_on_c, 11, 52, 127
12, 406764, Note_on_c, 11, 52, 0
12, 406800, Note_on_c, 11, 50, 127
12, 406884, Note_on_c, 11, 50, 0
12, 406920, Note_on_c, 11, 48, 127
12, 407004, Note_on_c, 11, 48, 0
12, 407040, Note_on_c, 11, 47, 127
12, 407124, Note_on_c, 11, 47, 0
12, 407160, Note_on_c, 11, 48, 127
12, 407244, Note_on_c, 11, 48, 0
12, 407280, Note_on_c, 11, 47, 127
12, 407364, Note_on_c, 11, 47, 0
12, 407400, Note_on_c, 11, 45, 127
12, 407484, Note_on_c, 11, 45, 0
12, 407520, Note_on_c, 11, 43, 127
12, 407604, Note_on_c, 11, 43, 0
12, 407640, Note_on_c, 11, 45, 127
12, 407724, Note_on_c, 11, 45, 0
12, 407760, Note_on_c, 11, 47, 127
12, 407844, Note_on_c, 11, 47, 0
12, 407880, Note_on_c, 11, 48, 127
12, 407964, Note_on_c, 11, 48, 0
12, 408000, Note_on_c, 11, 50, 127
12, 408084, Note_on_c, 11, 50, 0
12, 408120, Note_on_c, 11, 52, 127
12, 408204, Note_on_c, 11, 52, 0
12, 408240, Note_on_c, 11, 50, 127
12, 408324, Note_on_c, 11, 50, 0
12, 408360, Note_on_c, 11, 48, 127
12, 408444, Note_on_c, 11, 48, 0
12, 408480, Note_on_c, 11, 47, 127
12, 408564, Note_on_c, 11, 47, 0
12, 408600, Note_on_c, 11, 48, 127
12, 408684, Note_on_c, 11, 48, 0
12, 408720, Note_on_c, 11, 50, 127
12, 408804, Note_on_c, 11, 50, 0
12, 408840, Note_on_c, 11, 48, 127
12, 408924, Note_on_c, 11, 48, 0
12, 408960, Note_on_c, 11, 50, 127
12, 409080, Note_on_c, 11, 50, 0
12, 409200, Note_on_c, 11, 53, 127
12, 409320, Note_on_c, 11, 53, 0
12, 409440, Note_on_c, 11, 50, 127
12, 409560, Note_on_c, 11, 50, 0
12, 409680, Note_on_c, 11, 47, 127
12, 409800, Note_on_c, 11, 47, 0
12, 409920, Note_on_c, 11, 43, 127
12, 410400, Note_on_c, 11, 43, 0
12, 410880, Note_on_c, 11, 36, 50
12, 411360, Note_on_c, 11, 36, 0
12, 411840, Note_on_c, 11, 45, 50
12, 412320, Note_on_c, 11, 45, 0
12, 412800, Note_on_c, 11, 38, 50
12, 413280, Note_on_c, 11, 38, 0
12, 413760, Note_on_c, 11, 43, 50
12, 414240, Note_on_c, 11, 43, 0
12, 414720, Note_on_c, 11, 48, 50
12, 414960, Note_on_c, 11, 48, 0
12, 415200, Note_on_c, 11, 40, 50
12, 415440, Note_on_c, 11, 40, 0
12, 415680, Note_on_c, 11, 41, 50
12, 415920, Note_on_c, 11, 41, 0
12, 416160, Note_on_c, 11, 42, 50
12, 416400, Note_on_c, 11, 42, 0
12, 416640, Note_on_c, 11, 43, 50
12, 416880, Note_on_c, 11, 43, 0
12, 417120, Note_on_c, 11, 35, 50
12, 417600, Note_on_c, 11, 35, 0
12, 417600, Note_on_c, 11, 36, 50
12, 418080, Note_on_c, 11, 36, 0
12, 418080, Note_on_c, 11, 37, 50
12, 418560, Note_on_c, 11, 37, 0
12, 418560, Note_on_c, 11, 38, 50
12, 418800, Note_on_c, 11, 38, 0
12, 419040, Note_on_c, 11, 41, 50
12, 419640, Note_on_c, 11, 41, 0
12, 419760, Note_on_c, 11, 38, 50
12, 419880, Note_on_c, 11, 38, 0
12, 420000, Note_on_c, 11, 43, 50
12, 420120, Note_on_c, 11, 43, 0
12, 420240, Note_on_c, 11, 41, 50
12, 420360, Note_on_c, 11, 41, 0
12, 420480, Note_on_c, 11, 40, 50
12, 421440, Note_on_c, 11, 40, 0
12, 421440, Note_on_c, 11, 41, 50
12, 421920, Note_on_c, 11, 41, 0
12, 421920, Note_on_c, 11, 42, 50
12, 422400, Note_on_c, 11, 42, 0
12, 422400, Note_on_c, 11, 43, 50
12, 424318, Note_on_c, 11, 43, 0
12, 424320, Note_on_c, 11, 43, 50
12, 426238, Note_on_c, 11, 43, 0
12, 426240, Note_on_c, 11, 43, 50
12, 428158, Note_on_c, 11, 43, 0
12, 428160, Note_on_c, 11, 43, 50
12, 430078, Note_on_c, 11, 43, 0
12, 430080, Note_on_c, 11, 36, 50
12, 430560, Note_on_c, 11, 36, 0
12, 431520, Note_on_c, 11, 41, 127
12, 431856, Note_on_c, 11, 41, 0
12, 432000, Note_on_c, 11, 38, 127
12, 432336, Note_on_c, 11, 38, 0
12, 432480, Note_on_c, 11, 43, 127
12, 432816, Note_on_c, 11, 43, 0
12, 433440, Note_on_c, 11, 45, 127
12, 433800, Note_on_c, 11, 45, 0
12, 433920, Note_on_c, 11, 41, 127
12, 434280, Note_on_c, 11, 41, 0
12, 434400, Note_on_c, 11, 47, 127
12, 434760, Note_on_c, 11, 47, 0
12, 435360, Note_on_c, 11, 48, 127
12, 435720, Note_on_c, 11, 48, 0
12, 435840, Note_on_c, 11, 45, 127
12, 436200, Note_on_c, 11, 45, 0
12, 436320, Note_on_c, 11, 50, 127
12, 436884, Note_on_c, 11, 50, 0
12, 436920, Note_on_c, 11, 48, 127
12, 437004, Note_on_c, 11, 48, 0
12, 437040, Note_on_c, 11, 47, 127
12, 437124, Note_on_c, 11, 47, 0
12, 437160, Note_on_c, 11, 45, 127
12, 437244, Note_on_c, 11, 45, 0
12, 437280, Note_on_c, 11, 47, 127
12, 437364, Note_on_c, 11, 47, 0
12, 437400, Note_on_c, 11, 45, 127
12, 437484, Note_on_c, 11, 45, 0
12, 437520, Note_on_c, 11, 43, 127
12, 437604, Note_on_c, 11, 43, 0
12, 437640, Note_on_c, 11, 41, 127
12, 437724, Note_on_c, 11, 41, 0
12, 437760, Note_on_c, 11, 40, 127
12, 438120, Note_on_c, 11, 40, 0
12, 438240, Note_on_c, 11, 48, 127
12, 438600, Note_on_c, 11, 48, 0
12, 439200, Note_on_c, 11, 45, 127
12, 439680, Note_on_c, 11, 45, 0
12, 439680, Note_on_c, 11, 41, 127
12, 440160, Note_on_c, 11, 41, 0
12, 440160, Note_on_c, 11, 47, 127
12, 440724, Note_on_c, 11, 47, 0
12, 440760, Note_on_c, 11, 45, 127
12, 440844, Note_on_c, 11, 45, 0
12, 440880, Note_on_c, 11, 44, 127
12, 440964, Note_on_c, 11, 44, 0
12, 441000, Note_on_c, 11, 42, 127
12, 441084, Note_on_c, 11, 42, 0
12, 441120, Note_on_c, 11, 44, 127
12, 441204, Note_on_c, 11, 44, 0
12, 441240, Note_on_c, 11, 42, 127
12, 441324, Note_on_c, 11, 42, 0
12, 441360, Note_on_c, 11, 40, 127
12, 441444, Note_on_c, 11, 40, 0
12, 441480, Note_on_c, 11, 38, 127
12, 441564, Note_on_c, 11, 38, 0
12, 441600, Note_on_c, 11, 36, 127
12, 442080, Note_on_c, 11, 36, 0
12, 442080, Note_on_c, 11, 45, 127
12, 442416, Note_on_c, 11, 45, 0
12, 443040, Note_on_c, 11, 53, 127
12, 443376, Note_on_c, 11, 53, 0
12, 443520, Note_on_c, 11, 50, 127
12, 443856, Note_on_c, 11, 50, 0
12, 444000, Note_on_c, 11, 55, 127
12, 444564, Note_on_c, 11, 55, 0
12, 444600, Note_on_c, 11, 53, 127
12, 444684, Note_on_c, 11, 53, 0
12, 444720, Note_on_c, 11, 52, 127
12, 444804, Note_on_c, 11, 52, 0
12, 444840, Note_on_c, 11, 50, 127
12, 444924, Note_on_c, 11, 50, 0
12, 444960, Note_on_c, 11, 52, 127
12, 445044, Note_on_c, 11, 52, 0
12, 445080, Note_on_c, 11, 50, 127
12, 445164, Note_on_c, 11, 50, 0
12, 445200, Note_on_c, 11, 48, 127
12, 445284, Note_on_c, 11, 48, 0
12, 445320, Note_on_c, 11, 46, 127
12, 445404, Note_on_c, 11, 46, 0
12, 445440, Note_on_c, 11, 45, 127
12, 445608, Note_on_c, 11, 45, 0
12, 445680, Note_on_c, 11, 53, 127
12, 445764, Note_on_c, 11, 53, 0
12, 445800, Note_on_c, 11, 52, 127
12, 445884, Note_on_c, 11, 52, 0
12, 445920, Note_on_c, 11, 53, 127
12, 446004, Note_on_c, 11, 53, 0
12, 446040, Note_on_c, 11, 52, 127
12, 446124, Note_on_c, 11, 52, 0
12, 446160, Note_on_c, 11, 50, 127
12, 446244, Note_on_c, 11, 50, 0
12, 446280, Note_on_c, 11, 48, 127
12, 446364, Note_on_c, 11, 48, 0
12, 446400, Note_on_c, 11, 53, 127
12, 446568, Note_on_c, 11, 53, 0
12, 446640, Note_on_c, 11, 45, 127
12, 446724, Note_on_c, 11, 45, 0
12, 446760, Note_on_c, 11, 43, 127
12, 446844, Note_on_c, 11, 43, 0
12, 446880, Note_on_c, 11, 45, 127
12, 446964, Note_on_c, 11, 45, 0
12, 447000, Note_on_c, 11, 43, 127
12, 447084, Note_on_c, 11, 43, 0
12, 447120, Note_on_c, 11, 41, 127
12, 447204, Note_on_c, 11, 41, 0
12, 447240, Note_on_c, 11, 40, 127
12, 447324, Note_on_c, 11, 40, 0
12, 447360, Note_on_c, 11, 45, 127
12, 447528, Note_on_c, 11, 45, 0
12, 447600, Note_on_c, 11, 41, 127
12, 447684, Note_on_c, 11, 41, 0
12, 447720, Note_on_c, 11, 40, 127
12, 447804, Note_on_c, 11, 40, 0
12, 447840, Note_on_c, 11, 41, 127
12, 447924, Note_on_c, 11, 41, 0
12, 447960, Note_on_c, 11, 40, 127
12, 448044, Note_on_c, 11, 40, 0
12, 448080, Note_on_c, 11, 38, 127
12, 448164, Note_on_c, 11, 38, 0
12, 448200, Note_on_c, 11, 36, 127
12, 448284, Note_on_c, 11, 36, 0
12, 448320, Note_on_c, 11, 41, 127
12, 448488, Note_on_c, 11, 41, 0
12, 448560, Note_on_c, 11, 50, 127
12, 448644, Note_on_c, 11, 50, 0
12, 448680, Note_on_c, 11, 48, 127
12, 448764, Note_on_c, 11, 48, 0
12, 448800, Note_on_c, 11, 50, 127
12, 448884, Note_on_c, 11, 50, 0
12, 448920, Note_on_c, 11, 48, 127
12, 449004, Note_on_c, 11, 48, 0
12, 449040, Note_on_c, 11, 47, 127
12, 449124, Note_on_c, 11, 47, 0
12, 449160, Note_on_c, 11, 45, 127
12, 449244, Note_on_c, 11, 45, 0
12, 449280, Note_on_c, 11, 47, 127
12, 449400, Note_on_c, 11, 47, 0
12, 449520, Note_on_c, 11, 43, 127
12, 449640, Note_on_c, 11, 43, 0
12, 449760, Note_on_c, 11, 45, 127
12, 449880, Note_on_c, 11, 45, 0
12, 450000, Note_on_c, 11, 47, 127
12, 450120, Note_on_c, 11, 47, 0
12, 450240, Note_on_c, 11, 48, 127
12, 450360, Note_on_c, 11, 48, 0
12, 450480, Note_on_c, 11, 48, 127
12, 450600, Note_on_c, 11, 48, 0
12, 450720, Note_on_c, 11, 48, 127
12, 450840, Note_on_c, 11, 48, 0
12, 450960, Note_on_c, 11, 48, 127
12, 451080, Note_on_c, 11, 48, 0
12, 451200, Note_on_c, 11, 48, 127
12, 451320, Note_on_c, 11, 48, 0
12, 451440, Note_on_c, 11, 48, 127
12, 451560, Note_on_c, 11, 48, 0
12, 451680, Note_on_c, 11, 48, 127
12, 451800, Note_on_c, 11, 48, 0
12, 451920, Note_on_c, 11, 36, 127
12, 452040, Note_on_c, 11, 36, 0
12, 452160, Note_on_c, 11, 40, 127
12, 452280, Note_on_c, 11, 40, 0
12, 452400, Note_on_c, 11, 40, 127
12, 452520, Note_on_c, 11, 40, 0
12, 452640, Note_on_c, 11, 40, 127
12, 452760, Note_on_c, 11, 40, 0
12, 452880, Note_on_c, 11, 40, 127
12, 453000, Note_on_c, 11, 40, 0
12, 453120, Note_on_c, 11, 40, 127
12, 453240, Note_on_c, 11, 40, 0
12, 453360, Note_on_c, 11, 40, 127
12, 453480, Note_on_c, 11, 40, 0
12, 453600, Note_on_c, 11, 40, 127
12, 453720, Note_on_c, 11, 40, 0
12, 453840, Note_on_c, 11, 34, 127
12, 453960, Note_on_c, 11, 34, 0
12, 454080, Note_on_c, 11, 33, 127
12, 454200, Note_on_c, 11, 33, 0
12, 454320, Note_on_c, 11, 45, 127
12, 454440, Note_on_c, 11, 45, 0
12, 454560, Note_on_c, 11, 45, 127
12, 454680, Note_on_c, 11, 45, 0
12, 454800, Note_on_c, 11, 45, 127
12, 454920, Note_on_c, 11, 45, 0
12, 455040, Note_on_c, 11, 45, 127
12, 455160, Note_on_c, 11, 45, 0
12, 455280, Note_on_c, 11, 45, 127
12, 455400, Note_on_c, 11, 45, 0
12, 455520, Note_on_c, 11, 45, 127
12, 455640, Note_on_c, 11, 45, 0
12, 455760, Note_on_c, 11, 45, 127
12, 455880, Note_on_c, 11, 45, 0
12, 456000, Note_on_c, 11, 43, 127
12, 456120, Note_on_c, 11, 43, 0
12, 456240, Note_on_c, 11, 43, 127
12, 456360, Note_on_c, 11, 43, 0
12, 456480, Note_on_c, 11, 43, 127
12, 456600, Note_on_c, 11, 43, 0
12, 456720, Note_on_c, 11, 43, 127
12, 456840, Note_on_c, 11, 43, 0
12, 456960, Note_on_c, 11, 31, 127
12, 457080, Note_on_c, 11, 31, 0
12, 457200, Note_on_c, 11, 31, 127
12, 457320, Note_on_c, 11, 31, 0
12, 457440, Note_on_c, 11, 31, 127
12, 457560, Note_on_c, 11, 31, 0
12, 457680, Note_on_c, 11, 31, 127
12, 457800, Note_on_c, 11, 31, 0
12, 457920, Note_on_c, 11, 36, 127
12, 458040, Note_on_c, 11, 36, 0
12, 458160, Note_on_c, 11, 48, 127
12, 458280, Note_on_c, 11, 48, 0
12, 458400, Note_on_c, 11, 48, 127
12, 458520, Note_on_c, 11, 48, 0
12, 458640, Note_on_c, 11, 48, 127
12, 458760, Note_on_c, 11, 48, 0
12, 458880, Note_on_c, 11, 48, 127
12, 459600, Note_on_c, 11, 48, 0
12, 459600, Note_on_c, 11, 47, 127
12, 459660, Note_on_c, 11, 47, 0
12, 459660, Note_on_c, 11, 45, 127
12, 459720, Note_on_c, 11, 45, 0
12, 459720, Note_on_c, 11, 43, 127
12, 459780, Note_on_c, 11, 43, 0
12, 459780, Note_on_c, 11, 41, 127
12, 459840, Note_on_c, 11, 41, 0
12, 459840, Note_on_c, 11, 40, 127
12, 459960, Note_on_c, 11, 40, 0
12, 460080, Note_on_c, 11, 52, 127
12, 460200, Note_on_c, 11, 52, 0
12, 460320, Note_on_c, 11, 52, 127
12, 460440, Note_on_c, 11, 52, 0
12, 460560, Note_on_c, 11, 52, 127
12, 460680, Note_on_c, 11, 52, 0
12, 460800, Note_on_c, 11, 52, 127
12, 461520, Note_on_c, 11, 52, 0
12, 461520, Note_on_c, 11, 52, 127
12, 461580, Note_on_c, 11, 52, 0
12, 461580, Note_on_c, 11, 50, 127
12, 461640, Note_on_c, 11, 50, 0
12, 461640, Note_on_c, 11, 48, 127
12, 461700, Note_on_c, 11, 48, 0
12, 461700, Note_on_c, 11, 46, 127
12, 461760, Note_on_c, 11, 46, 0
12, 461760, Note_on_c, 11, 44, 127
12, 461880, Note_on_c, 11, 44, 0
12, 462000, Note_on_c, 11, 32, 127
12, 462120, Note_on_c, 11, 32, 0
12, 462240, Note_on_c, 11, 44, 127
12, 462360, Note_on_c, 11, 44, 0
12, 462480, Note_on_c, 11, 44, 127
12, 462600, Note_on_c, 11, 44, 0
12, 462720, Note_on_c, 11, 44, 127
12, 463440, Note_on_c, 11, 44, 0
12, 463440, Note_on_c, 11, 43, 127
12, 463560, Note_on_c, 11, 43, 0
12, 463680, Note_on_c, 11, 44, 127
12, 463800, Note_on_c, 11, 44, 0
12, 463920, Note_on_c, 11, 43, 127
12, 464040, Note_on_c, 11, 43, 0
12, 464160, Note_on_c, 11, 44, 127
12, 464280, Note_on_c, 11, 44, 0
12, 464400, Note_on_c, 11, 43, 127
12, 464520, Note_on_c, 11, 43, 0
12, 464640, Note_on_c, 11, 44, 127
12, 464760, Note_on_c, 11, 44, 0
12, 464880, Note_on_c, 11, 32, 127
12, 465120, Note_on_c, 11, 32, 0
12, 465120, Note_on_c, 11, 44, 127
12, 465240, Note_on_c, 11, 44, 0
12, 465360, Note_on_c, 11, 44, 127
12, 465480, Note_on_c, 11, 44, 0
12, 465600, Note_on_c, 11, 44, 127
12, 465720, Note_on_c, 11, 44, 0
12, 465840, Note_on_c, 11, 44, 127
12, 465960, Note_on_c, 11, 44, 0
12, 466080, Note_on_c, 11, 44, 127
12, 466200, Note_on_c, 11, 44, 0
12, 466320, Note_on_c, 11, 44, 127
12, 466440, Note_on_c, 11, 44, 0
12, 466560, Note_on_c, 11, 44, 127
12, 466680, Note_on_c, 11, 44, 0
12, 466800, Note_on_c, 11, 32, 127
12, 466920, Note_on_c, 11, 32, 0
12, 467040, Note_on_c, 11, 44, 127
12, 467160, Note_on_c, 11, 44, 0
12, 467280, Note_on_c, 11, 44, 127
12, 467400, Note_on_c, 11, 44, 0
12, 467520, Note_on_c, 11, 44, 127
12, 467640, Note_on_c, 11, 44, 0
12, 467760, Note_on_c, 11, 44, 127
12, 467880, Note_on_c, 11, 44, 0
12, 468000, Note_on_c, 11, 44, 127
12, 468120, Note_on_c, 11, 44, 0
12, 468240, Note_on_c, 11, 44, 127
12, 468360, Note_on_c, 11, 44, 0
12, 468480, Note_on_c, 11, 43, 127
12, 468600, Note_on_c, 11, 43, 0
12, 468720, Note_on_c, 11, 43, 127
12, 468840, Note_on_c, 11, 43, 0
12, 468960, Note_on_c, 11, 43, 127
12, 469080, Note_on_c, 11, 43, 0
12, 469200, Note_on_c, 11, 43, 127
12, 469320, Note_on_c, 11, 43, 0
12, 469440, Note_on_c, 11, 31, 127
12, 469560, Note_on_c, 11, 31, 0
12, 469680, Note_on_c, 11, 31, 127
12, 469800, Note_on_c, 11, 31, 0
12, 469920, Note_on_c, 11, 31, 127
12, 470040, Note_on_c, 11, 31, 0
12, 470160, Note_on_c, 11, 31, 127
12, 470280, Note_on_c, 11, 31, 0
12, 470400, Note_on_c, 11, 36, 127
12, 470640, Note_on_c, 11, 36, 0
12, 470880, Note_on_c, 11, 48, 127
12, 471105, Note_on_c, 11, 48, 0
12, 471240, Note_on_c, 11, 48, 127
12, 471360, Note_on_c, 11, 48, 0
12, 471360, Note_on_c, 11, 48, 127
12, 472080, Note_on_c, 11, 48, 0
12, 472080, Note_on_c, 11, 47, 127
12, 472200, Note_on_c, 11, 47, 0
12, 472200, Note_on_c, 11, 45, 127
12, 472320, Note_on_c, 11, 45, 0
12, 472320, Note_on_c, 11, 43, 127
12, 472440, Note_on_c, 11, 43, 0
12, 472440, Note_on_c, 11, 45, 127
12, 472560, Note_on_c, 11, 45, 0
12, 472560, Note_on_c, 11, 43, 127
12, 472680, Note_on_c, 11, 43, 0
12, 472680, Note_on_c, 11, 41, 127
12, 472800, Note_on_c, 11, 41, 0
12, 472800, Note_on_c, 11, 40, 127
12, 472920, Note_on_c, 11, 40, 0
12, 472920, Note_on_c, 11, 41, 127
12, 473040, Note_on_c, 11, 41, 0
12, 473040, Note_on_c, 11, 40, 127
12, 473160, Note_on_c, 11, 40, 0
12, 473160, Note_on_c, 11, 38, 127
12, 473280, Note_on_c, 11, 38, 0
12, 473280, Note_on_c, 11, 36, 127
12, 473616, Note_on_c, 11, 36, 0
12, 473760, Note_on_c, 11, 52, 127
12, 473928, Note_on_c, 11, 52, 0
12, 474120, Note_on_c, 11, 52, 127
12, 474204, Note_on_c, 11, 52, 0
12, 474240, Note_on_c, 11, 52, 127
12, 474888, Note_on_c, 11, 52, 0
12, 474960, Note_on_c, 11, 50, 127
12, 475044, Note_on_c, 11, 50, 0
12, 475080, Note_on_c, 11, 48, 127
12, 475164, Note_on_c, 11, 48, 0
12, 475200, Note_on_c, 11, 47, 127
12, 475284, Note_on_c, 11, 47, 0
12, 475320, Note_on_c, 11, 48, 127
12, 475404, Note_on_c, 11, 48, 0
12, 475440, Note_on_c, 11, 47, 127
12, 475524, Note_on_c, 11, 47, 0
12, 475560, Note_on_c, 11, 45, 127
12, 475644, Note_on_c, 11, 45, 0
12, 475680, Note_on_c, 11, 43, 127
12, 475764, Note_on_c, 11, 43, 0
12, 475800, Note_on_c, 11, 45, 127
12, 475884, Note_on_c, 11, 45, 0
12, 475920, Note_on_c, 11, 43, 127
12, 476004, Note_on_c, 11, 43, 0
12, 476040, Note_on_c, 11, 41, 127
12, 476124, Note_on_c, 11, 41, 0
12, 476160, Note_on_c, 11, 40, 127
12, 476496, Note_on_c, 11, 40, 0
12, 476640, Note_on_c, 11, 55, 127
12, 476808, Note_on_c, 11, 55, 0
12, 477000, Note_on_c, 11, 55, 127
12, 477084, Note_on_c, 11, 55, 0
12, 477120, Note_on_c, 11, 55, 127
12, 477768, Note_on_c, 11, 55, 0
12, 477840, Note_on_c, 11, 53, 127
12, 477924, Note_on_c, 11, 53, 0
12, 477960, Note_on_c, 11, 52, 127
12, 478044, Note_on_c, 11, 52, 0
12, 478080, Note_on_c, 11, 50, 127
12, 478164, Note_on_c, 11, 50, 0
12, 478200, Note_on_c, 11, 52, 127
12, 478284, Note_on_c, 11, 52, 0
12, 478320, Note_on_c, 11, 50, 127
12, 478404, Note_on_c, 11, 50, 0
12, 478440, Note_on_c, 11, 48, 127
12, 478524, Note_on_c, 11, 48, 0
12, 478560, Note_on_c, 11, 47, 127
12, 478644, Note_on_c, 11, 47, 0
12, 478680, Note_on_c, 11, 48, 127
12, 478764, Note_on_c, 11, 48, 0
12, 478800, Note_on_c, 11, 47, 127
12, 478884, Note_on_c, 11, 47, 0
12, 478920, Note_on_c, 11, 45, 127
12, 479004, Note_on_c, 11, 45, 0
12, 479040, Note_on_c, 11, 43, 127
12, 479376, Note_on_c, 11, 43, 0
12, 479520, Note_on_c, 11, 47, 89
12, 479856, Note_on_c, 11, 47, 0
12, 480000, Note_on_c, 11, 48, 50
12, 480120, Note_on_c, 11, 48, 0
12, 480240, Note_on_c, 11, 47, 53
12, 480360, Note_on_c, 11, 47, 0
12, 480480, Note_on_c, 11, 45, 56
12, 480600, Note_on_c, 11, 45, 0
12, 480720, Note_on_c, 11, 44, 59
12, 480840, Note_on_c, 11, 44, 0
12, 480960, Note_on_c, 11, 45, 62
12, 481080, Note_on_c, 11, 45, 0
12, 481200, Note_on_c, 11, 43, 66
12, 481320, Note_on_c, 11, 43, 0
12, 481440, Note_on_c, 11, 41, 69
12, 481560, Note_on_c, 11, 41, 0
12, 481680, Note_on_c, 11, 40, 72
12, 481800, Note_on_c, 11, 40, 0
12, 481920, Note_on_c, 11, 41, 75
12, 482040, Note_on_c, 11, 41, 0
12, 482160, Note_on_c, 11, 42, 78
12, 482280, Note_on_c, 11, 42, 0
12, 482400, Note_on_c, 11, 43, 82
12, 482640, Note_on_c, 11, 43, 0
12, 482880, Note_on_c, 11, 48, 88
12, 483000, Note_on_c, 11, 48, 0
12, 483120, Note_on_c, 11, 47, 91
12, 483240, Note_on_c, 11, 47, 0
12, 483360, Note_on_c, 11, 45, 94
12, 483480, Note_on_c, 11, 45, 0
12, 483600, Note_on_c, 11, 44, 98
12, 483720, Note_on_c, 11, 44, 0
12, 483840, Note_on_c, 11, 45, 101
12, 483960, Note_on_c, 11, 45, 0
12, 484080, Note_on_c, 11, 43, 104
12, 484200, Note_on_c, 11, 43, 0
12, 484320, Note_on_c, 11, 41, 107
12, 484440, Note_on_c, 11, 41, 0
12, 484560, Note_on_c, 11, 40, 110
12, 484680, Note_on_c, 11, 40, 0
12, 484800, Note_on_c, 11, 41, 114
12, 484920, Note_on_c, 11, 41, 0
12, 485040, Note_on_c, 11, 42, 117
12, 485160, Note_on_c, 11, 42, 0
12, 485280, Note_on_c, 11, 43, 120
12, 485400, Note_on_c, 11, 43, 0
12, 485520, Note_on_c, 11, 31, 123
12, 485640, Note_on_c, 11, 31, 0
12, 485760, Note_on_c, 11, 36, 127
12, 485880, Note_on_c, 11, 36, 0
12, 486000, Note_on_c, 11, 48, 50
12, 486120, Note_on_c, 11, 48, 0
12, 486240, Note_on_c, 11, 48, 50
12, 486360, Note_on_c, 11, 48, 0
12, 486480, Note_on_c, 11, 48, 50
12, 486600, Note_on_c, 11, 48, 0
12, 486720, Note_on_c, 11, 48, 50
12, 486840, Note_on_c, 11, 48, 0
12, 486960, Note_on_c, 11, 48, 50
12, 487080, Note_on_c, 11, 48, 0
12, 487200, Note_on_c, 11, 48, 50
12, 487320, Note_on_c, 11, 48, 0
12, 487440, Note_on_c, 11, 48, 50
12, 487560, Note_on_c, 11, 48, 0
12, 487680, Note_on_c, 11, 48, 50
12, 487800, Note_on_c, 11, 48, 0
12, 487920, Note_on_c, 11, 48, 50
12, 488040, Note_on_c, 11, 48, 0
12, 488160, Note_on_c, 11, 48, 50
12, 488280, Note_on_c, 11, 48, 0
12, 488400, Note_on_c, 11, 48, 50
12, 488520, Note_on_c, 11, 48, 0
12, 488640, Note_on_c, 11, 48, 50
12, 489120, Note_on_c, 11, 48, 0
12, 489600, Note_on_c, 11, 36, 50
12, 490080, Note_on_c, 11, 36, 0
12, 490560, Note_on_c, 11, 31, 50
12, 491040, Note_on_c, 11, 31, 0
12, 491520, Note_on_c, 11, 36, 50
12, 491904, Note_on_c, 11, 36, 0
12, 492000, Note_on_c, 11, 46, 127
12, 492225, Note_on_c, 11, 46, 0
12, 492360, Note_on_c, 11, 46, 127
12, 492456, Note_on_c, 11, 46, 0
12, 492480, Note_on_c, 11, 46, 127
12, 493152, Note_on_c, 11, 46, 0
12, 493200, Note_on_c, 11, 46, 127
12, 493272, Note_on_c, 11, 46, 0
12, 493320, Note_on_c, 11, 45, 127
12, 493392, Note_on_c, 11, 45, 0
12, 493440, Note_on_c, 11, 43, 127
12, 493512, Note_on_c, 11, 43, 0
12, 493560, Note_on_c, 11, 45, 127
12, 493632, Note_on_c, 11, 45, 0
12, 493680, Note_on_c, 11, 43, 127
12, 493752, Note_on_c, 11, 43, 0
12, 493800, Note_on_c, 11, 41, 127
12, 493872, Note_on_c, 11, 41, 0
12, 493920, Note_on_c, 11, 40, 127
12, 493992, Note_on_c, 11, 40, 0
12, 494040, Note_on_c, 11, 41, 127
12, 494112, Note_on_c, 11, 41, 0
12, 494160, Note_on_c, 11, 40, 127
12, 494232, Note_on_c, 11, 40, 0
12, 494280, Note_on_c, 11, 38, 127
12, 494352, Note_on_c, 11, 38, 0
12, 494400, Note_on_c, 11, 36, 127
12, 494880, Note_on_c, 11, 36, 0
12, 517920, Note_on_c, 11, 48, 80
12, 518256, Note_on_c, 11, 48, 0
12, 518400, Note_on_c, 11, 47, 82
12, 518736, Note_on_c, 11, 47, 0
12, 518880, Note_on_c, 11, 52, 83
12, 519444, Note_on_c, 11, 52, 0
12, 519480, Note_on_c, 11, 50, 84
12, 519564, Note_on_c, 11, 50, 0
12, 519600, Note_on_c, 11, 48, 85
12, 519684, Note_on_c, 11, 48, 0
12, 519720, Note_on_c, 11, 47, 85
12, 519804, Note_on_c, 11, 47, 0
12, 519840, Note_on_c, 11, 48, 85
12, 519924, Note_on_c, 11, 48, 0
12, 519960, Note_on_c, 11, 47, 86
12, 520044, Note_on_c, 11, 47, 0
12, 520080, Note_on_c, 11, 45, 86
12, 520164, Note_on_c, 11, 45, 0
12, 520200, Note_on_c, 11, 43, 86
12, 520284, Note_on_c, 11, 43, 0
12, 520320, Note_on_c, 11, 42, 86
12, 520656, Note_on_c, 11, 42, 0
12, 520800, Note_on_c, 11, 50, 88
12, 521136, Note_on_c, 11, 50, 0
12, 522240, Note_on_c, 11, 36, 91
12, 523200, Note_on_c, 11, 36, 0
12, 523200, Note_on_c, 11, 38, 94
12, 524160, Note_on_c, 11, 38, 0
12, 524160, Note_on_c, 11, 41, 96
12, 525120, Note_on_c, 11, 41, 0
12, 525120, Note_on_c, 11, 40, 99
12, 526080, Note_on_c, 11, 40, 0
12, 526320, Note_on_c, 11, 43, 102
12, 526440, Note_on_c, 11, 43, 0
12, 526560, Note_on_c, 11, 45, 102
12, 526680, Note_on_c, 11, 45, 0
12, 526800, Note_on_c, 11, 47, 103
12, 526920, Note_on_c, 11, 47, 0
12, 527040, Note_on_c, 11, 50, 104
12, 527088, Note_on_c, 11, 50, 0
12, 527100, Note_on_c, 11, 48, 104
12, 527148, Note_on_c, 11, 48, 0
12, 527160, Note_on_c, 11, 50, 104
12, 527208, Note_on_c, 11, 50, 0
12, 527220, Note_on_c, 11, 48, 104
12, 527268, Note_on_c, 11, 48, 0
12, 527400, Note_on_c, 11, 50, 105
12, 527520, Note_on_c, 11, 50, 0
12, 527520, Note_on_c, 11, 52, 105
12, 528000, Note_on_c, 11, 52, 0
12, 528240, Note_on_c, 11, 38, 107
12, 528360, Note_on_c, 11, 38, 0
12, 528480, Note_on_c, 11, 40, 107
12, 528600, Note_on_c, 11, 40, 0
12, 528720, Note_on_c, 11, 42, 108
12, 528840, Note_on_c, 11, 42, 0
12, 528960, Note_on_c, 11, 45, 109
12, 529008, Note_on_c, 11, 45, 0
12, 529020, Note_on_c, 11, 43, 109
12, 529068, Note_on_c, 11, 43, 0
12, 529080, Note_on_c, 11, 45, 109
12, 529128, Note_on_c, 11, 45, 0
12, 529140, Note_on_c, 11, 43, 109
12, 529188, Note_on_c, 11, 43, 0
12, 529320, Note_on_c, 11, 45, 110
12, 529440, Note_on_c, 11, 45, 0
12, 529440, Note_on_c, 11, 47, 110
12, 529920, Note_on_c, 11, 47, 0
12, 531120, Note_on_c, 11, 45, 114
12, 531240, Note_on_c, 11, 45, 0
12, 531360, Note_on_c, 11, 38, 115
12, 531480, Note_on_c, 11, 38, 0
12, 531600, Note_on_c, 11, 41, 115
12, 531720, Note_on_c, 11, 41, 0
12, 531840, Note_on_c, 11, 31, 116
12, 531960, Note_on_c, 11, 31, 0
12, 532080, Note_on_c, 11, 47, 117
12, 532200, Note_on_c, 11, 47, 0
12, 532320, Note_on_c, 11, 48, 117
12, 532440, Note_on_c, 11, 48, 0
12, 532560, Note_on_c, 11, 50, 118
12, 532680, Note_on_c, 11, 50, 0
12, 532800, Note_on_c, 11, 52, 118
12, 533184, Note_on_c, 11, 52, 0
12, 533280, Note_on_c, 11, 48, 120
12, 533472, Note_on_c, 11, 48, 0
12, 533640, Note_on_c, 11, 48, 121
12, 533736, Note_on_c, 11, 48, 0
12, 533760, Note_on_c, 11, 48, 121
12, 534336, Note_on_c, 11, 48, 0
12, 534480, Note_on_c, 11, 47, 123
12, 534540, Note_on_c, 11, 47, 0
12, 534600, Note_on_c, 11, 45, 123
12, 534660, Note_on_c, 11, 45, 0
12, 534720, Note_on_c, 11, 43, 123
12, 534804, Note_on_c, 11, 43, 0
12, 534840, Note_on_c, 11, 45, 124
12, 534924, Note_on_c, 11, 45, 0
12, 534960, Note_on_c, 11, 43, 124
12, 535044, Note_on_c, 11, 43, 0
12, 535080, Note_on_c, 11, 41, 124
12, 535164, Note_on_c, 11, 41, 0
12, 535200, Note_on_c, 11, 40, 125
12, 535284, Note_on_c, 11, 40, 0
12, 535320, Note_on_c, 11, 41, 125
12, 535404, Note_on_c, 11, 41, 0
12, 535440, Note_on_c, 11, 40, 125
12, 535524, Note_on_c, 11, 40, 0
12, 535560, Note_on_c, 11, 38, 126
12, 535644, Note_on_c, 11, 38, 0
12, 535680, Note_on_c, 11, 36, 126
12, 535800, Note_on_c, 11, 36, 0
12, 535920, Note_on_c, 11, 29, 127
12, 536040, Note_on_c, 11, 29, 0
12, 536160, Note_on_c, 11, 41, 127
12, 536280, Note_on_c, 11, 41, 0
12, 536400, Note_on_c, 11, 41, 127
12, 536520, Note_on_c, 11, 41, 0
12, 536640, Note_on_c, 11, 41, 127
12, 536760, Note_on_c, 11, 41, 0
12, 536880, Note_on_c, 11, 41, 127
12, 537000, Note_on_c, 11, 41, 0
12, 537120, Note_on_c, 11, 41, 127
12, 537240, Note_on_c, 11, 41, 0
12, 537360, Note_on_c, 11, 41, 127
12, 537480, Note_on_c, 11, 41, 0
12, 537600, Note_on_c, 11, 43, 127
12, 537720, Note_on_c, 11, 43, 0
12, 537840, Note_on_c, 11, 43, 127
12, 537960, Note_on_c, 11, 43, 0
12, 538080, Note_on_c, 11, 31, 127
12, 538200, Note_on_c, 11, 31, 0
12, 538320, Note_on_c, 11, 31, 127
12, 538440, Note_on_c, 11, 31, 0
12, 538560, Note_on_c, 11, 36, 127
12, 538680, Note_on_c, 11, 36, 0
12, 538800, Note_on_c, 11, 29, 127
12, 538920, Note_on_c, 11, 29, 0
12, 539040, Note_on_c, 11, 41, 127
12, 539160, Note_on_c, 11, 41, 0
12, 539280, Note_on_c, 11, 41, 127
12, 539400, Note_on_c, 11, 41, 0
12, 539520, Note_on_c, 11, 41, 127
12, 539640, Note_on_c, 11, 41, 0
12, 539760, Note_on_c, 11, 41, 127
12, 539880, Note_on_c, 11, 41, 0
12, 540000, Note_on_c, 11, 41, 127
12, 540120, Note_on_c, 11, 41, 0
12, 540240, Note_on_c, 11, 41, 127
12, 540360, Note_on_c, 11, 41, 0
12, 540480, Note_on_c, 11, 43, 127
12, 540600, Note_on_c, 11, 43, 0
12, 540720, Note_on_c, 11, 43, 127
12, 540840, Note_on_c, 11, 43, 0
12, 540960, Note_on_c, 11, 31, 127
12, 541080, Note_on_c, 11, 31, 0
12, 541200, Note_on_c, 11, 31, 127
12, 541320, Note_on_c, 11, 31, 0
12, 541440, Note_on_c, 11, 36, 127
12, 541680, Note_on_c, 11, 36, 0
12, 541920, Note_on_c, 11, 48, 127
12, 542145, Note_on_c, 11, 48, 0
12, 542280, Note_on_c, 11, 48, 127
12, 542400, Note_on_c, 11, 48, 0
12, 542400, Note_on_c, 11, 48, 127
12, 543048, Note_on_c, 11, 48, 0
12, 543120, Note_on_c, 11, 47, 127
12, 543204, Note_on_c, 11, 47, 0
12, 543240, Note_on_c, 11, 45, 127
12, 543324, Note_on_c, 11, 45, 0
12, 543360, Note_on_c, 11, 43, 127
12, 543444, Note_on_c, 11, 43, 0
12, 543480, Note_on_c, 11, 45, 127
12, 543564, Note_on_c, 11, 45, 0
12, 543600, Note_on_c, 11, 43, 127
12, 543684, Note_on_c, 11, 43, 0
12, 543720, Note_on_c, 11, 41, 127
12, 543804, Note_on_c, 11, 41, 0
12, 543840, Note_on_c, 11, 40, 127
12, 543924, Note_on_c, 11, 40, 0
12, 543960, Note_on_c, 11, 41, 127
12, 544044, Note_on_c, 11, 41, 0
12, 544080, Note_on_c, 11, 40, 127
12, 544164, Note_on_c, 11, 40, 0
12, 544200, Note_on_c, 11, 38, 127
12, 544284, Note_on_c, 11, 38, 0
12, 544320, Note_on_c, 11, 36, 127
12, 544404, Note_on_c, 11, 36, 0
12, 544440, Note_on_c, 11, 31, 127
12, 544524, Note_on_c, 11, 31, 0
12, 544560, Note_on_c, 11, 33, 127
12, 544644, Note_on_c, 11, 33, 0
12, 544680, Note_on_c, 11, 35, 127
12, 544764, Note_on_c, 11, 35, 0
12, 544800, Note_on_c, 11, 36, 127
12, 544884, Note_on_c, 11, 36, 0
12, 544920, Note_on_c, 11, 35, 127
12, 545004, Note_on_c, 11, 35, 0
12, 545040, Note_on_c, 11, 36, 127
12, 545124, Note_on_c, 11, 36, 0
12, 545160, Note_on_c, 11, 38, 127
12, 545244, Note_on_c, 11, 38, 0
12, 545280, Note_on_c, 11, 40, 127
12, 545364, Note_on_c, 11, 40, 0
12, 545400, Note_on_c, 11, 38, 127
12, 545484, Note_on_c, 11, 38, 0
12, 545520, Note_on_c, 11, 36, 127
12, 545604, Note_on_c, 11, 36, 0
12, 545640, Note_on_c, 11, 38, 127
12, 545724, Note_on_c, 11, 38, 0
12, 545760, Note_on_c, 11, 40, 127
12, 545844, Note_on_c, 11, 40, 0
12, 545880, Note_on_c, 11, 38, 127
12, 545964, Note_on_c, 11, 38, 0
12, 546000, Note_on_c, 11, 40, 127
12, 546084, Note_on_c, 11, 40, 0
12, 546120, Note_on_c, 11, 41, 127
12, 546204, Note_on_c, 11, 41, 0
12, 546240, Note_on_c, 11, 43, 127
12, 546324, Note_on_c, 11, 43, 0
12, 546360, Note_on_c, 11, 42, 127
12, 546444, Note_on_c, 11, 42, 0
12, 546480, Note_on_c, 11, 43, 127
12, 546564, Note_on_c, 11, 43, 0
12, 546600, Note_on_c, 11, 45, 127
12, 546684, Note_on_c, 11, 45, 0
12, 546720, Note_on_c, 11, 47, 127
12, 546804, Note_on_c, 11, 47, 0
12, 546840, Note_on_c, 11, 43, 127
12, 546924, Note_on_c, 11, 43, 0
12, 546960, Note_on_c, 11, 45, 127
12, 547044, Note_on_c, 11, 45, 0
12, 547080, Note_on_c, 11, 47, 127
12, 547164, Note_on_c, 11, 47, 0
12, 547200, Note_on_c, 11, 48, 127
12, 547440, Note_on_c, 11, 48, 0
12, 547680, Note_on_c, 11, 48, 127
12, 547905, Note_on_c, 11, 48, 0
12, 548040, Note_on_c, 11, 48, 127
12, 548160, Note_on_c, 11, 48, 0
12, 548160, Note_on_c, 11, 48, 127
12, 548880, Note_on_c, 11, 48, 0
12, 548880, Note_on_c, 11, 47, 127
12, 548964, Note_on_c, 11, 47, 0
12, 549000, Note_on_c, 11, 45, 127
12, 549084, Note_on_c, 11, 45, 0
12, 549120, Note_on_c, 11, 43, 127
12, 549204, Note_on_c, 11, 43, 0
12, 549240, Note_on_c, 11, 45, 127
12, 549324, Note_on_c, 11, 45, 0
12, 549360, Note_on_c, 11, 43, 127
12, 549444, Note_on_c, 11, 43, 0
12, 549480, Note_on_c, 11, 41, 127
12, 549564, Note_on_c, 11, 41, 0
12, 549600, Note_on_c, 11, 40, 127
12, 549684, Note_on_c, 11, 40, 0
12, 549720, Note_on_c, 11, 41, 127
12, 549804, Note_on_c, 11, 41, 0
12, 549840, Note_on_c, 11, 40, 127
12, 549924, Note_on_c, 11, 40, 0
12, 549960, Note_on_c, 11, 38, 127
12, 550044, Note_on_c, 11, 38, 0
12, 550080, Note_on_c, 11, 36, 127
12, 550200, Note_on_c, 11, 36, 0
12, 550320, Note_on_c, 11, 43, 127
12, 550440, Note_on_c, 11, 43, 0
12, 550560, Note_on_c, 11, 48, 127
12, 550680, Note_on_c, 11, 48, 0
12, 550800, Note_on_c, 11, 43, 127
12, 550920, Note_on_c, 11, 43, 0
12, 551040, Note_on_c, 11, 48, 127
12, 551160, Note_on_c, 11, 48, 0
12, 551280, Note_on_c, 11, 43, 127
12, 551400, Note_on_c, 11, 43, 0
12, 551520, Note_on_c, 11, 48, 127
12, 551640, Note_on_c, 11, 48, 0
12, 551760, Note_on_c, 11, 43, 127
12, 551880, Note_on_c, 11, 43, 0
12, 552000, Note_on_c, 11, 48, 127
12, 552480, Note_on_c, 11, 48, 0
12, 552960, Note_on_c, 11, 36, 127
12, 553344, Note_on_c, 11, 36, 0
12, 553440, Note_on_c, 11, 48, 127
12, 553824, Note_on_c, 11, 48, 0
12, 553920, Note_on_c, 11, 36, 127
12, 554513, Note_on_c, 11, 36, 0
12, 554880, Note_on_c, 11, 36, 127
12, 555288, Note_on_c, 11, 36, 0
12, 555360, Note_on_c, 11, 48, 127
12, 555768, Note_on_c, 11, 48, 0
12, 555840, Note_on_c, 11, 36, 127
12, 556524, Note_on_c, 11, 36, 0
12, 556524, End_track
0, 0, End_of_file