0, 0, Header, 1, 13, 120
1, 0, Start_track
1, 0, Title_t, "Adagio and fugue for strings Kv 546"
1, 0, Copyright_t, "Copyright \251 2000 by J.F. Lucarelli - j-f.lucarelli@infonie.be  --  http://perso.infonie.fr/espace-midi"
1, 0, Text_t, "W.A. Mozart (1756-1791)"
1, 0, Text_t, "Partition compl\350te - dur\351e : 00:08:25\012"
1, 0, Text_t, "D\351but du travail : 10 janvier 1998\012"
1, 0, Text_t, "Fin de la premi\350re version : 20 janvier 1998\012"
1, 0, Text_t, "Version 1.0 : 10 septembre 1998\012"
1, 0, Text_t, "Version 2.0 : 19 juin 2000 : r\351vision compl\350te\012"
1, 0, Text_t, "Dur\351e d'\351dition et d'audition : 14 h\012"
1, 0, Text_t, "-----\012"
1, 0, Text_t, "Full score - length : 00:08:25\012"
1, 0, Text_t, "Beginning of writing : 10 january 1998\012"
1, 0, Text_t, "End of first version : 20 january 1998\012"
1, 0, Text_t, "Version 1.0 : 10 september 1998\012"
1, 0, Text_t, "Version 2.0 : 19 june 2000 : full revision\012"
1, 0, Text_t, "Editing and audition time : 14 h\012"
1, 0, Time_signature, 3, 2, 24, 8
1, 0, Key_signature, -3, "major"
1, 0, Tempo, 500000
1, 360, Tempo, 1578947
1, 420, Tempo, 1445783
1, 480, Tempo, 1578947
1, 540, Tempo, 1445783
1, 600, Tempo, 1578947
1, 660, Tempo, 1445783
1, 720, Tempo, 1578947
1, 780, Tempo, 1445783
1, 840, Tempo, 1578947
1, 900, Tempo, 1445783
1, 960, Tempo, 1578947
1, 1020, Tempo, 1445783
1, 1080, Tempo, 1578947
1, 1140, Tempo, 1445783
1, 1200, Tempo, 1578947
1, 1260, Tempo, 1445783
1, 1320, Tempo, 1578947
1, 1380, Tempo, 1445783
1, 1440, Tempo, 1666667
1, 1500, Tempo, 1538462
1, 1560, Tempo, 1666667
1, 1800, Tempo, 1578947
1, 1860, Tempo, 1445783
1, 1920, Tempo, 1578947
1, 1980, Tempo, 1445783
1, 2040, Tempo, 1578947
1, 2100, Tempo, 1445783
1, 2160, Tempo, 1578947
1, 2220, Tempo, 1445783
1, 2280, Tempo, 1578947
1, 2340, Tempo, 1445783
1, 2400, Tempo, 1578947
1, 2460, Tempo, 1445783
1, 2520, Tempo, 1578947
1, 2580, Tempo, 1445783
1, 2640, Tempo, 1578947
1, 2700, Tempo, 1445783
1, 2760, Tempo, 1578947
1, 2820, Tempo, 1445783
1, 2880, Tempo, 1666667
1, 2940, Tempo, 1538462
1, 3000, Tempo, 1666667
1, 3240, Tempo, 1578947
1, 3300, Tempo, 1445783
1, 3360, Tempo, 1578947
1, 3420, Tempo, 1445783
1, 3480, Tempo, 1578947
1, 3540, Tempo, 1445783
1, 3600, Tempo, 1578947
1, 3660, Tempo, 1445783
1, 3720, Tempo, 1578947
1, 3780, Tempo, 1445783
1, 3840, Tempo, 1578947
1, 3900, Tempo, 1445783
1, 3960, Tempo, 1578947
1, 4020, Tempo, 1445783
1, 4080, Tempo, 1578947
1, 4140, Tempo, 1445783
1, 4200, Tempo, 1578947
1, 4260, Tempo, 1445783
1, 4320, Tempo, 1666667
1, 4380, Tempo, 1538462
1, 4440, Tempo, 1666667
1, 4680, Tempo, 1578947
1, 4740, Tempo, 1445783
1, 4800, Tempo, 1578947
1, 4860, Tempo, 1445783
1, 4920, Tempo, 1578947
1, 4980, Tempo, 1445783
1, 5040, Tempo, 1578947
1, 5100, Tempo, 1445783
1, 5160, Tempo, 1578947
1, 5220, Tempo, 1445783
1, 5280, Tempo, 1578947
1, 5340, Tempo, 1445783
1, 5400, Tempo, 1578947
1, 5460, Tempo, 1445783
1, 5520, Tempo, 1578947
1, 5580, Tempo, 1445783
1, 5640, Tempo, 1578947
1, 5700, Tempo, 1445783
1, 5760, Tempo, 1666667
1, 5820, Tempo, 1445783
1, 5880, Tempo, 1578947
1, 5940, Tempo, 1445783
1, 6000, Tempo, 1578947
1, 6060, Tempo, 1445783
1, 6120, Tempo, 1578947
1, 6180, Tempo, 1445783
1, 6240, Tempo, 1578947
1, 6300, Tempo, 1445783
1, 6360, Tempo, 1578947
1, 6420, Tempo, 1445783
1, 6480, Tempo, 1578947
1, 6540, Tempo, 1445783
1, 6600, Tempo, 1578947
1, 6660, Tempo, 1445783
1, 6720, Tempo, 1578947
1, 6780, Tempo, 1445783
1, 6840, Tempo, 1578947
1, 6900, Tempo, 1445783
1, 6960, Tempo, 1578947
1, 7020, Tempo, 1445783
1, 7080, Tempo, 1578947
1, 7140, Tempo, 1445783
1, 7200, Tempo, 1578947
1, 7260, Tempo, 1445783
1, 7320, Tempo, 1578947
1, 7380, Tempo, 1445783
1, 7440, Tempo, 1578947
1, 7500, Tempo, 1445783
1, 7560, Tempo, 1578947
1, 7620, Tempo, 1445783
1, 7680, Tempo, 1578947
1, 7740, Tempo, 1445783
1, 7800, Tempo, 1578947
1, 7860, Tempo, 1445783
1, 7920, Tempo, 1578947
1, 7980, Tempo, 1445783
1, 8040, Tempo, 1578947
1, 8100, Tempo, 1445783
1, 8160, Tempo, 1578947
1, 8220, Tempo, 1445783
1, 8280, Tempo, 1666667
1, 8340, Tempo, 1538462
1, 8400, Tempo, 1666667
1, 8640, Tempo, 1578947
1, 8700, Tempo, 1445783
1, 8760, Tempo, 1578947
1, 8820, Tempo, 1445783
1, 8880, Tempo, 1578947
1, 8940, Tempo, 1445783
1, 9000, Tempo, 1578947
1, 9060, Tempo, 1445783
1, 9120, Tempo, 1578947
1, 9180, Tempo, 1445783
1, 9240, Tempo, 1578947
1, 9300, Tempo, 1445783
1, 9360, Tempo, 1578947
1, 9420, Tempo, 1445783
1, 9480, Tempo, 1578947
1, 9540, Tempo, 1445783
1, 9600, Tempo, 1578947
1, 9660, Tempo, 1445783
1, 9720, Tempo, 1666667
1, 9780, Tempo, 1538462
1, 9840, Tempo, 1666667
1, 10080, Tempo, 1578947
1, 10140, Tempo, 1445783
1, 10200, Tempo, 1578947
1, 10260, Tempo, 1445783
1, 10320, Tempo, 1578947
1, 10380, Tempo, 1445783
1, 10440, Tempo, 1578947
1, 10500, Tempo, 1445783
1, 10560, Tempo, 1578947
1, 10620, Tempo, 1445783
1, 10680, Tempo, 1578947
1, 10740, Tempo, 1445783
1, 10800, Tempo, 1578947
1, 10860, Tempo, 1445783
1, 10920, Tempo, 1578947
1, 10980, Tempo, 1445783
1, 11040, Tempo, 1578947
1, 11100, Tempo, 1445783
1, 11160, Tempo, 1666667
1, 11220, Tempo, 1445783
1, 11280, Tempo, 1578947
1, 11340, Tempo, 1445783
1, 11400, Tempo, 1578947
1, 11460, Tempo, 1445783
1, 11520, Tempo, 1578947
1, 11580, Tempo, 1445783
1, 11640, Tempo, 1578947
1, 11700, Tempo, 1445783
1, 11760, Tempo, 1578947
1, 11820, Tempo, 1445783
1, 11880, Tempo, 1578947
1, 11940, Tempo, 1445783
1, 12000, Tempo, 1578947
1, 12060, Tempo, 1445783
1, 12120, Tempo, 1578947
1, 12180, Tempo, 1445783
1, 12240, Tempo, 1666667
1, 12300, Tempo, 1538462
1, 12360, Tempo, 1666667
1, 12480, Tempo, 1578947
1, 12600, Tempo, 1578947
1, 12660, Tempo, 1445783
1, 12720, Tempo, 1578947
1, 12780, Tempo, 1445783
1, 12840, Tempo, 1578947
1, 12900, Tempo, 1445783
1, 12960, Tempo, 1578947
1, 13020, Tempo, 1445783
1, 13080, Tempo, 1578947
1, 13140, Tempo, 1445783
1, 13200, Tempo, 1578947
1, 13260, Tempo, 1445783
1, 13320, Tempo, 1578947
1, 13380, Tempo, 1445783
1, 13440, Tempo, 1578947
1, 13500, Tempo, 1445783
1, 13560, Tempo, 1578947
1, 13620, Tempo, 1445783
1, 13680, Tempo, 1666667
1, 13740, Tempo, 1538462
1, 13800, Tempo, 1666667
1, 14040, Tempo, 1578947
1, 14100, Tempo, 1445783
1, 14160, Tempo, 1578947
1, 14220, Tempo, 1445783
1, 14280, Tempo, 1578947
1, 14340, Tempo, 1445783
1, 14400, Tempo, 1578947
1, 14460, Tempo, 1445783
1, 14520, Tempo, 1578947
1, 14580, Tempo, 1445783
1, 14640, Tempo, 1578947
1, 14700, Tempo, 1445783
1, 14760, Tempo, 1578947
1, 14820, Tempo, 1445783
1, 14880, Tempo, 1578947
1, 14940, Tempo, 1445783
1, 15000, Tempo, 1578947
1, 15060, Tempo, 1445783
1, 15120, Tempo, 1666667
1, 15180, Tempo, 1445783
1, 15240, Tempo, 1578947
1, 15300, Tempo, 1445783
1, 15360, Tempo, 1578947
1, 15420, Tempo, 1445783
1, 15480, Tempo, 1578947
1, 15540, Tempo, 1445783
1, 15600, Tempo, 1578947
1, 15660, Tempo, 1445783
1, 15720, Tempo, 1578947
1, 15780, Tempo, 1445783
1, 15840, Tempo, 1578947
1, 15900, Tempo, 1445783
1, 15960, Tempo, 1578947
1, 16020, Tempo, 1445783
1, 16080, Tempo, 1578947
1, 16140, Tempo, 1445783
1, 16200, Tempo, 1578947
1, 16260, Tempo, 1445783
1, 16320, Tempo, 1578947
1, 16380, Tempo, 1445783
1, 16440, Tempo, 1578947
1, 16500, Tempo, 1445783
1, 16560, Tempo, 1578947
1, 16620, Tempo, 1445783
1, 16680, Tempo, 1578947
1, 16740, Tempo, 1445783
1, 16800, Tempo, 1578947
1, 16860, Tempo, 1445783
1, 16920, Tempo, 1578947
1, 16980, Tempo, 1445783
1, 17040, Tempo, 1578947
1, 17100, Tempo, 1445783
1, 17160, Tempo, 1578947
1, 17220, Tempo, 1445783
1, 17280, Tempo, 1578947
1, 17340, Tempo, 1445783
1, 17400, Tempo, 1578947
1, 17460, Tempo, 1445783
1, 17520, Tempo, 1578947
1, 17580, Tempo, 1445783
1, 17640, Tempo, 1578947
1, 17700, Tempo, 1445783
1, 17760, Tempo, 1578947
1, 17820, Tempo, 1445783
1, 17880, Tempo, 1578947
1, 17940, Tempo, 1445783
1, 18000, Tempo, 1578947
1, 18060, Tempo, 1445783
1, 18120, Tempo, 1578947
1, 18180, Tempo, 1445783
1, 18240, Tempo, 1621622
1, 18360, Tempo, 1666667
1, 18480, Tempo, 1714286
1, 18600, Tempo, 1935484
1, 18690, Tempo, 2264151
1, 18720, Tempo, 2105263
1, 19080, Time_signature, 4, 2, 24, 8
1, 19080, Tempo, 566038
1, 19200, Tempo, 526316
1, 19320, Tempo, 555556
1, 19440, Tempo, 526316
1, 19560, Tempo, 566038
1, 19680, Tempo, 526316
1, 19800, Tempo, 555556
1, 19920, Tempo, 526316
1, 20040, Tempo, 566038
1, 20160, Tempo, 526316
1, 20280, Tempo, 555556
1, 20400, Tempo, 526316
1, 20520, Tempo, 566038
1, 20640, Tempo, 526316
1, 20760, Tempo, 555556
1, 20880, Tempo, 526316
1, 21000, Tempo, 566038
1, 21120, Tempo, 526316
1, 21240, Tempo, 555556
1, 21360, Tempo, 526316
1, 21480, Tempo, 566038
1, 21600, Tempo, 526316
1, 21720, Tempo, 555556
1, 21840, Tempo, 526316
1, 21960, Tempo, 566038
1, 22080, Tempo, 526316
1, 22200, Tempo, 555556
1, 22320, Tempo, 526316
1, 22440, Tempo, 566038
1, 22560, Tempo, 526316
1, 22680, Tempo, 555556
1, 22800, Tempo, 526316
1, 22920, Tempo, 566038
1, 23040, Tempo, 526316
1, 23160, Tempo, 555556
1, 23280, Tempo, 526316
1, 23400, Tempo, 566038
1, 23520, Tempo, 526316
1, 23640, Tempo, 555556
1, 23760, Tempo, 526316
1, 23880, Tempo, 566038
1, 24000, Tempo, 526316
1, 24120, Tempo, 555556
1, 24240, Tempo, 526316
1, 24360, Tempo, 566038
1, 24480, Tempo, 526316
1, 24600, Tempo, 555556
1, 24720, Tempo, 526316
1, 24840, Tempo, 566038
1, 24960, Tempo, 526316
1, 25080, Tempo, 555556
1, 25200, Tempo, 526316
1, 25320, Tempo, 566038
1, 25440, Tempo, 526316
1, 25560, Tempo, 555556
1, 25680, Tempo, 526316
1, 25800, Tempo, 566038
1, 25920, Tempo, 526316
1, 26040, Tempo, 555556
1, 26160, Tempo, 526316
1, 26280, Tempo, 566038
1, 26400, Tempo, 526316
1, 26520, Tempo, 555556
1, 26640, Tempo, 526316
1, 26760, Tempo, 566038
1, 26880, Tempo, 526316
1, 27000, Tempo, 555556
1, 27120, Tempo, 526316
1, 27240, Tempo, 566038
1, 27360, Tempo, 526316
1, 27480, Tempo, 555556
1, 27600, Tempo, 526316
1, 27720, Tempo, 566038
1, 27840, Tempo, 526316
1, 27960, Tempo, 555556
1, 28080, Tempo, 526316
1, 28200, Tempo, 566038
1, 28320, Tempo, 526316
1, 28440, Tempo, 555556
1, 28560, Tempo, 526316
1, 28680, Tempo, 566038
1, 28800, Tempo, 526316
1, 28920, Tempo, 555556
1, 29040, Tempo, 526316
1, 29160, Tempo, 566038
1, 29280, Tempo, 526316
1, 29400, Tempo, 555556
1, 29520, Tempo, 526316
1, 29640, Tempo, 566038
1, 29760, Tempo, 526316
1, 29880, Tempo, 555556
1, 30000, Tempo, 526316
1, 30120, Tempo, 566038
1, 30240, Tempo, 526316
1, 30360, Tempo, 555556
1, 30480, Tempo, 526316
1, 30600, Tempo, 566038
1, 30720, Tempo, 526316
1, 30840, Tempo, 555556
1, 30960, Tempo, 526316
1, 31080, Tempo, 566038
1, 31200, Tempo, 526316
1, 31320, Tempo, 555556
1, 31440, Tempo, 526316
1, 31560, Tempo, 566038
1, 31680, Tempo, 526316
1, 31800, Tempo, 555556
1, 31920, Tempo, 526316
1, 32040, Tempo, 566038
1, 32160, Tempo, 526316
1, 32280, Tempo, 555556
1, 32400, Tempo, 526316
1, 32520, Tempo, 566038
1, 32640, Tempo, 526316
1, 32760, Tempo, 555556
1, 32880, Tempo, 526316
1, 33000, Tempo, 566038
1, 33120, Tempo, 526316
1, 33240, Tempo, 555556
1, 33360, Tempo, 526316
1, 33480, Tempo, 566038
1, 33600, Tempo, 526316
1, 33720, Tempo, 555556
1, 33840, Tempo, 526316
1, 33960, Tempo, 566038
1, 34080, Tempo, 526316
1, 34200, Tempo, 555556
1, 34320, Tempo, 526316
1, 34440, Tempo, 566038
1, 34560, Tempo, 526316
1, 34680, Tempo, 555556
1, 34800, Tempo, 526316
1, 34920, Tempo, 566038
1, 35040, Tempo, 526316
1, 35160, Tempo, 555556
1, 35280, Tempo, 526316
1, 35400, Tempo, 566038
1, 35520, Tempo, 526316
1, 35640, Tempo, 555556
1, 35760, Tempo, 526316
1, 35880, Tempo, 566038
1, 36000, Tempo, 526316
1, 36120, Tempo, 555556
1, 36240, Tempo, 526316
1, 36360, Tempo, 566038
1, 36480, Tempo, 526316
1, 36600, Tempo, 555556
1, 36720, Tempo, 526316
1, 36840, Tempo, 566038
1, 36960, Tempo, 526316
1, 37080, Tempo, 555556
1, 37200, Tempo, 526316
1, 37320, Tempo, 566038
1, 37440, Tempo, 526316
1, 37560, Tempo, 555556
1, 37680, Tempo, 526316
1, 37800, Tempo, 566038
1, 37920, Tempo, 526316
1, 38040, Tempo, 555556
1, 38160, Tempo, 526316
1, 38280, Tempo, 566038
1, 38400, Tempo, 526316
1, 38520, Tempo, 555556
1, 38640, Tempo, 526316
1, 38760, Tempo, 566038
1, 38880, Tempo, 526316
1, 39000, Tempo, 555556
1, 39120, Tempo, 526316
1, 39240, Tempo, 566038
1, 39360, Tempo, 526316
1, 39480, Tempo, 555556
1, 39600, Tempo, 526316
1, 39720, Tempo, 566038
1, 39840, Tempo, 526316
1, 39960, Tempo, 555556
1, 40080, Tempo, 526316
1, 40200, Tempo, 566038
1, 40320, Tempo, 526316
1, 40440, Tempo, 555556
1, 40560, Tempo, 526316
1, 40680, Tempo, 566038
1, 40800, Tempo, 526316
1, 40920, Tempo, 555556
1, 41040, Tempo, 526316
1, 41160, Tempo, 566038
1, 41280, Tempo, 526316
1, 41400, Tempo, 555556
1, 41520, Tempo, 526316
1, 41640, Tempo, 566038
1, 41760, Tempo, 526316
1, 41880, Tempo, 555556
1, 42000, Tempo, 526316
1, 42120, Tempo, 566038
1, 42240, Tempo, 526316
1, 42360, Tempo, 555556
1, 42480, Tempo, 526316
1, 42600, Tempo, 566038
1, 42720, Tempo, 526316
1, 42840, Tempo, 555556
1, 42960, Tempo, 526316
1, 43080, Tempo, 566038
1, 43200, Tempo, 526316
1, 43320, Tempo, 555556
1, 43440, Tempo, 526316
1, 43560, Tempo, 566038
1, 43680, Tempo, 526316
1, 43800, Tempo, 555556
1, 43920, Tempo, 526316
1, 44040, Tempo, 566038
1, 44160, Tempo, 526316
1, 44280, Tempo, 555556
1, 44400, Tempo, 526316
1, 44520, Tempo, 566038
1, 44640, Tempo, 526316
1, 44760, Tempo, 555556
1, 44880, Tempo, 526316
1, 45000, Tempo, 566038
1, 45120, Tempo, 526316
1, 45240, Tempo, 555556
1, 45360, Tempo, 526316
1, 45480, Tempo, 566038
1, 45600, Tempo, 526316
1, 45720, Tempo, 555556
1, 45840, Tempo, 526316
1, 45960, Tempo, 566038
1, 46080, Tempo, 526316
1, 46200, Tempo, 555556
1, 46320, Tempo, 526316
1, 46440, Tempo, 566038
1, 46560, Tempo, 526316
1, 46680, Tempo, 555556
1, 46800, Tempo, 526316
1, 46920, Tempo, 566038
1, 47040, Tempo, 526316
1, 47160, Tempo, 555556
1, 47280, Tempo, 526316
1, 47400, Tempo, 566038
1, 47520, Tempo, 526316
1, 47640, Tempo, 555556
1, 47760, Tempo, 526316
1, 47880, Tempo, 566038
1, 48000, Tempo, 526316
1, 48120, Tempo, 555556
1, 48240, Tempo, 526316
1, 48360, Tempo, 566038
1, 48480, Tempo, 526316
1, 48600, Tempo, 555556
1, 48720, Tempo, 526316
1, 48840, Tempo, 566038
1, 48960, Tempo, 526316
1, 49080, Tempo, 555556
1, 49200, Tempo, 526316
1, 49320, Tempo, 566038
1, 49440, Tempo, 526316
1, 49560, Tempo, 555556
1, 49680, Tempo, 526316
1, 49800, Tempo, 566038
1, 49920, Tempo, 526316
1, 50040, Tempo, 555556
1, 50160, Tempo, 526316
1, 50280, Tempo, 566038
1, 50400, Tempo, 526316
1, 50520, Tempo, 555556
1, 50640, Tempo, 526316
1, 50760, Tempo, 566038
1, 50880, Tempo, 526316
1, 51000, Tempo, 555556
1, 51120, Tempo, 526316
1, 51240, Tempo, 566038
1, 51360, Tempo, 526316
1, 51480, Tempo, 555556
1, 51600, Tempo, 526316
1, 51720, Tempo, 566038
1, 51840, Tempo, 526316
1, 51960, Tempo, 555556
1, 52080, Tempo, 526316
1, 52200, Tempo, 566038
1, 52320, Tempo, 526316
1, 52440, Tempo, 555556
1, 52560, Tempo, 526316
1, 52680, Tempo, 566038
1, 52800, Tempo, 526316
1, 52920, Tempo, 555556
1, 53040, Tempo, 526316
1, 53160, Tempo, 566038
1, 53280, Tempo, 526316
1, 53400, Tempo, 555556
1, 53520, Tempo, 526316
1, 53640, Tempo, 566038
1, 53760, Tempo, 526316
1, 53880, Tempo, 555556
1, 54000, Tempo, 526316
1, 54120, Tempo, 566038
1, 54240, Tempo, 526316
1, 54360, Tempo, 555556
1, 54480, Tempo, 526316
1, 54600, Tempo, 566038
1, 54720, Tempo, 526316
1, 54840, Tempo, 555556
1, 54960, Tempo, 526316
1, 55080, Tempo, 566038
1, 55200, Tempo, 526316
1, 55320, Tempo, 555556
1, 55440, Tempo, 526316
1, 55560, Tempo, 566038
1, 55680, Tempo, 526316
1, 55800, Tempo, 555556
1, 55920, Tempo, 526316
1, 56040, Tempo, 566038
1, 56160, Tempo, 526316
1, 56280, Tempo, 555556
1, 56400, Tempo, 526316
1, 56520, Tempo, 566038
1, 56640, Tempo, 526316
1, 56760, Tempo, 555556
1, 56880, Tempo, 526316
1, 57000, Tempo, 566038
1, 57120, Tempo, 526316
1, 57240, Tempo, 555556
1, 57360, Tempo, 526316
1, 57480, Tempo, 566038
1, 57600, Tempo, 526316
1, 57720, Tempo, 555556
1, 57840, Tempo, 526316
1, 57960, Tempo, 566038
1, 58080, Tempo, 526316
1, 58200, Tempo, 555556
1, 58320, Tempo, 526316
1, 58440, Tempo, 566038
1, 58560, Tempo, 526316
1, 58680, Tempo, 555556
1, 58800, Tempo, 526316
1, 58920, Tempo, 566038
1, 59040, Tempo, 526316
1, 59160, Tempo, 555556
1, 59280, Tempo, 526316
1, 59400, Tempo, 566038
1, 59520, Tempo, 526316
1, 59640, Tempo, 555556
1, 59760, Tempo, 526316
1, 59880, Tempo, 566038
1, 60000, Tempo, 526316
1, 60120, Tempo, 555556
1, 60240, Tempo, 526316
1, 60360, Tempo, 566038
1, 60480, Tempo, 526316
1, 60600, Tempo, 555556
1, 60720, Tempo, 526316
1, 60840, Tempo, 566038
1, 60960, Tempo, 526316
1, 61080, Tempo, 555556
1, 61200, Tempo, 526316
1, 61320, Tempo, 566038
1, 61440, Tempo, 526316
1, 61560, Tempo, 555556
1, 61680, Tempo, 526316
1, 61800, Tempo, 566038
1, 61920, Tempo, 526316
1, 62040, Tempo, 555556
1, 62160, Tempo, 526316
1, 62280, Tempo, 566038
1, 62400, Tempo, 526316
1, 62520, Tempo, 555556
1, 62640, Tempo, 526316
1, 62760, Tempo, 566038
1, 62880, Tempo, 526316
1, 63000, Tempo, 555556
1, 63120, Tempo, 526316
1, 63240, Tempo, 566038
1, 63360, Tempo, 526316
1, 63480, Tempo, 555556
1, 63600, Tempo, 526316
1, 63720, Tempo, 566038
1, 63840, Tempo, 526316
1, 63960, Tempo, 555556
1, 64080, Tempo, 526316
1, 64200, Tempo, 566038
1, 64320, Tempo, 526316
1, 64440, Tempo, 555556
1, 64560, Tempo, 526316
1, 64680, Tempo, 566038
1, 64800, Tempo, 526316
1, 64920, Tempo, 555556
1, 65040, Tempo, 526316
1, 65160, Tempo, 566038
1, 65280, Tempo, 526316
1, 65400, Tempo, 555556
1, 65520, Tempo, 526316
1, 65640, Tempo, 566038
1, 65760, Tempo, 526316
1, 65880, Tempo, 555556
1, 66000, Tempo, 526316
1, 66120, Tempo, 566038
1, 66240, Tempo, 526316
1, 66360, Tempo, 555556
1, 66480, Tempo, 526316
1, 66600, Tempo, 566038
1, 66720, Tempo, 526316
1, 66840, Tempo, 555556
1, 66960, Tempo, 526316
1, 67080, Tempo, 566038
1, 67200, Tempo, 526316
1, 67320, Tempo, 555556
1, 67440, Tempo, 526316
1, 67560, Tempo, 566038
1, 67680, Tempo, 526316
1, 67800, Tempo, 555556
1, 67920, Tempo, 526316
1, 67980, Tempo, 674157
1, 68040, Tempo, 566038
1, 68160, Tempo, 526316
1, 68280, Tempo, 555556
1, 68400, Tempo, 526316
1, 68520, Tempo, 566038
1, 68640, Tempo, 526316
1, 68760, Tempo, 555556
1, 68880, Tempo, 526316
1, 69000, Tempo, 566038
1, 69120, Tempo, 526316
1, 69240, Tempo, 555556
1, 69360, Tempo, 526316
1, 69480, Tempo, 566038
1, 69600, Tempo, 526316
1, 69720, Tempo, 555556
1, 69840, Tempo, 526316
1, 69960, Tempo, 566038
1, 70080, Tempo, 526316
1, 70200, Tempo, 555556
1, 70320, Tempo, 526316
1, 70440, Tempo, 566038
1, 70560, Tempo, 526316
1, 70680, Tempo, 555556
1, 70800, Tempo, 526316
1, 70920, Tempo, 566038
1, 71040, Tempo, 526316
1, 71160, Tempo, 555556
1, 71280, Tempo, 526316
1, 71400, Tempo, 566038
1, 71520, Tempo, 526316
1, 71640, Tempo, 555556
1, 71760, Tempo, 526316
1, 71880, Tempo, 566038
1, 72000, Tempo, 526316
1, 72120, Tempo, 555556
1, 72240, Tempo, 526316
1, 72360, Tempo, 566038
1, 72480, Tempo, 526316
1, 72600, Tempo, 555556
1, 72720, Tempo, 526316
1, 72840, Tempo, 566038
1, 72960, Tempo, 526316
1, 73080, Tempo, 555556
1, 73200, Tempo, 526316
1, 73320, Tempo, 566038
1, 73440, Tempo, 526316
1, 73560, Tempo, 555556
1, 73680, Tempo, 526316
1, 73800, Tempo, 566038
1, 73920, Tempo, 526316
1, 74040, Tempo, 555556
1, 74160, Tempo, 526316
1, 74280, Tempo, 566038
1, 74400, Tempo, 526316
1, 74520, Tempo, 555556
1, 74640, Tempo, 526316
1, 74760, Tempo, 566038
1, 74880, Tempo, 526316
1, 75000, Tempo, 555556
1, 75120, Tempo, 615385
1, 75240, Tempo, 714286
1, 75360, Tempo, 1263158
1, 75420, Tempo, 827586
1, 75480, Tempo, 1016949
1, 75600, Tempo, 1212121
1, 75720, Tempo, 1818182
1, 75960, Tempo, 600000
1, 75960, End_track
2, 0, Start_track
2, 0, MIDI_port, 0
2, 0, Title_t, "1st Violin"
2, 0, Program_c, 0, 48
2, 0, Control_c, 0, 121, 0
2, 5, Program_c, 0, 48
2, 10, Pitch_bend_c, 0, 8442
2, 15, Control_c, 0, 10, 10
2, 20, Control_c, 0, 11, 127
2, 25, Control_c, 0, 91, 80
2, 30, Control_c, 0, 93, 0
2, 35, Control_c, 0, 7, 127
2, 450, Note_on_c, 0, 67, 100
2, 474, Note_on_c, 0, 67, 0
2, 480, Note_on_c, 0, 75, 100
2, 680, Note_on_c, 0, 75, 0
2, 690, Note_on_c, 0, 74, 100
2, 714, Note_on_c, 0, 74, 0
2, 720, Note_on_c, 0, 72, 100
2, 805, Note_on_c, 0, 72, 0
2, 810, Note_on_c, 0, 67, 100
2, 834, Note_on_c, 0, 67, 0
2, 840, Note_on_c, 0, 79, 100
2, 1040, Note_on_c, 0, 79, 0
2, 1050, Note_on_c, 0, 77, 100
2, 1074, Note_on_c, 0, 77, 0
2, 1080, Note_on_c, 0, 75, 100
2, 1165, Note_on_c, 0, 75, 0
2, 1170, Note_on_c, 0, 72, 100
2, 1194, Note_on_c, 0, 72, 0
2, 1200, Note_on_c, 0, 84, 100
2, 1400, Note_on_c, 0, 84, 0
2, 1410, Note_on_c, 0, 82, 100
2, 1434, Note_on_c, 0, 82, 0
2, 1440, Note_on_c, 0, 80, 100
2, 1530, Note_on_c, 0, 80, 0
2, 1560, Note_on_c, 0, 79, 100
2, 1650, Note_on_c, 0, 79, 0
2, 1800, Control_c, 0, 11, 70
2, 1800, Note_on_c, 0, 61, 40
2, 1803, Control_c, 0, 11, 73
2, 1806, Control_c, 0, 11, 76
2, 1809, Control_c, 0, 11, 79
2, 1812, Control_c, 0, 11, 82
2, 1815, Control_c, 0, 11, 85
2, 1818, Control_c, 0, 11, 88
2, 1822, Control_c, 0, 11, 91
2, 1825, Control_c, 0, 11, 94
2, 1828, Control_c, 0, 11, 97
2, 1831, Control_c, 0, 11, 100
2, 1834, Control_c, 0, 11, 103
2, 1837, Control_c, 0, 11, 106
2, 1841, Control_c, 0, 11, 109
2, 1844, Control_c, 0, 11, 112
2, 1847, Control_c, 0, 11, 115
2, 1850, Control_c, 0, 11, 118
2, 1853, Control_c, 0, 11, 121
2, 1856, Control_c, 0, 11, 124
2, 1860, Control_c, 0, 11, 127
2, 1890, Note_on_c, 0, 61, 0
2, 1890, Note_on_c, 0, 60, 40
2, 1915, Note_on_c, 0, 60, 0
2, 1920, Note_on_c, 0, 61, 40
2, 2010, Note_on_c, 0, 61, 0
2, 2010, Note_on_c, 0, 60, 40
2, 2035, Note_on_c, 0, 60, 0
2, 2040, Note_on_c, 0, 61, 40
2, 2130, Note_on_c, 0, 61, 0
2, 2130, Note_on_c, 0, 60, 40
2, 2155, Note_on_c, 0, 60, 0
2, 2160, Note_on_c, 0, 61, 40
2, 2280, Note_on_c, 0, 61, 0
2, 2280, Note_on_c, 0, 65, 40
2, 2400, Note_on_c, 0, 65, 0
2, 2400, Note_on_c, 0, 68, 40
2, 2515, Note_on_c, 0, 68, 0
2, 2520, Note_on_c, 0, 59, 40
2, 2640, Note_on_c, 0, 59, 0
2, 2640, Note_on_c, 0, 60, 40
2, 2760, Note_on_c, 0, 60, 0
2, 2760, Note_on_c, 0, 62, 40
2, 2875, Note_on_c, 0, 62, 0
2, 2880, Note_on_c, 0, 65, 40
2, 2940, Note_on_c, 0, 65, 0
2, 2940, Note_on_c, 0, 65, 40
2, 2947, Note_on_c, 0, 65, 0
2, 2947, Note_on_c, 0, 63, 40
2, 2954, Note_on_c, 0, 63, 0
2, 2955, Note_on_c, 0, 65, 40
2, 2962, Note_on_c, 0, 65, 0
2, 2962, Note_on_c, 0, 63, 40
2, 2969, Note_on_c, 0, 63, 0
2, 2970, Note_on_c, 0, 65, 40
2, 2977, Note_on_c, 0, 65, 0
2, 2977, Note_on_c, 0, 63, 40
2, 2984, Note_on_c, 0, 63, 0
2, 2985, Note_on_c, 0, 65, 40
2, 2992, Note_on_c, 0, 65, 0
2, 2992, Note_on_c, 0, 63, 40
2, 2999, Note_on_c, 0, 63, 0
2, 3000, Note_on_c, 0, 62, 40
2, 3120, Note_on_c, 0, 62, 0
2, 3240, Note_on_c, 0, 67, 100
2, 3240, Note_on_c, 0, 75, 100
2, 3240, Note_on_c, 0, 84, 100
2, 3360, Note_on_c, 0, 84, 0
2, 3360, Note_on_c, 0, 75, 0
2, 3360, Note_on_c, 0, 67, 0
2, 3450, Note_on_c, 0, 67, 100
2, 3474, Note_on_c, 0, 67, 0
2, 3480, Note_on_c, 0, 57, 100
2, 3565, Note_on_c, 0, 57, 0
2, 3570, Note_on_c, 0, 59, 100
2, 3594, Note_on_c, 0, 59, 0
2, 3600, Note_on_c, 0, 60, 100
2, 3720, Note_on_c, 0, 60, 0
2, 3810, Note_on_c, 0, 67, 100
2, 3834, Note_on_c, 0, 67, 0
2, 3840, Note_on_c, 0, 69, 100
2, 3925, Note_on_c, 0, 69, 0
2, 3930, Note_on_c, 0, 71, 100
2, 3954, Note_on_c, 0, 71, 0
2, 3960, Note_on_c, 0, 72, 100
2, 4080, Note_on_c, 0, 72, 0
2, 4170, Note_on_c, 0, 72, 100
2, 4194, Note_on_c, 0, 72, 0
2, 4200, Note_on_c, 0, 74, 100
2, 4285, Note_on_c, 0, 74, 0
2, 4290, Note_on_c, 0, 76, 100
2, 4314, Note_on_c, 0, 76, 0
2, 4320, Note_on_c, 0, 77, 100
2, 4410, Note_on_c, 0, 77, 0
2, 4440, Note_on_c, 0, 82, 100
2, 4530, Note_on_c, 0, 82, 0
2, 5040, Control_c, 0, 11, 70
2, 5040, Note_on_c, 0, 80, 40
2, 5043, Control_c, 0, 11, 73
2, 5046, Control_c, 0, 11, 76
2, 5049, Control_c, 0, 11, 79
2, 5052, Control_c, 0, 11, 82
2, 5055, Control_c, 0, 11, 85
2, 5058, Control_c, 0, 11, 88
2, 5062, Control_c, 0, 11, 91
2, 5065, Control_c, 0, 11, 94
2, 5068, Control_c, 0, 11, 97
2, 5071, Control_c, 0, 11, 100
2, 5074, Control_c, 0, 11, 103
2, 5077, Control_c, 0, 11, 106
2, 5081, Control_c, 0, 11, 109
2, 5084, Control_c, 0, 11, 112
2, 5087, Control_c, 0, 11, 115
2, 5090, Control_c, 0, 11, 118
2, 5093, Note_on_c, 0, 80, 0
2, 5093, Control_c, 0, 11, 121
2, 5096, Control_c, 0, 11, 124
2, 5100, Control_c, 0, 11, 127
2, 5100, Note_on_c, 0, 80, 40
2, 5153, Note_on_c, 0, 80, 0
2, 5160, Note_on_c, 0, 80, 40
2, 5213, Note_on_c, 0, 80, 0
2, 5220, Note_on_c, 0, 80, 40
2, 5273, Note_on_c, 0, 80, 0
2, 5280, Note_on_c, 0, 80, 40
2, 5333, Note_on_c, 0, 80, 0
2, 5340, Note_on_c, 0, 80, 40
2, 5393, Note_on_c, 0, 80, 0
2, 5400, Note_on_c, 0, 78, 40
2, 5490, Note_on_c, 0, 78, 0
2, 5490, Note_on_c, 0, 77, 40
2, 5520, Note_on_c, 0, 77, 0
2, 5520, Note_on_c, 0, 78, 40
2, 5610, Note_on_c, 0, 78, 0
2, 5610, Note_on_c, 0, 77, 40
2, 5640, Note_on_c, 0, 77, 0
2, 5640, Note_on_c, 0, 78, 40
2, 5730, Note_on_c, 0, 78, 0
2, 5730, Note_on_c, 0, 77, 40
2, 5755, Note_on_c, 0, 77, 0
2, 5760, Note_on_c, 0, 78, 40
2, 5905, Note_on_c, 0, 78, 0
2, 5910, Note_on_c, 0, 77, 40
2, 5935, Note_on_c, 0, 77, 0
2, 5940, Note_on_c, 0, 75, 40
2, 5970, Note_on_c, 0, 75, 0
2, 5970, Note_on_c, 0, 73, 40
2, 6000, Note_on_c, 0, 73, 0
2, 6000, Note_on_c, 0, 72, 40
2, 6030, Note_on_c, 0, 72, 0
2, 6030, Note_on_c, 0, 70, 40
2, 6060, Note_on_c, 0, 70, 0
2, 6060, Note_on_c, 0, 68, 40
2, 6090, Note_on_c, 0, 68, 0
2, 6090, Note_on_c, 0, 66, 40
2, 6115, Note_on_c, 0, 66, 0
2, 6120, Note_on_c, 0, 66, 40
2, 6360, Note_on_c, 0, 66, 0
2, 6360, Note_on_c, 0, 65, 40
2, 6480, Note_on_c, 0, 65, 0
2, 6480, Note_on_c, 0, 65, 40
2, 6570, Note_on_c, 0, 65, 0
2, 6570, Note_on_c, 0, 66, 40
2, 6600, Note_on_c, 0, 66, 0
2, 6600, Note_on_c, 0, 65, 41
2, 6690, Note_on_c, 0, 65, 0
2, 6690, Note_on_c, 0, 66, 42
2, 6720, Note_on_c, 0, 66, 0
2, 6720, Note_on_c, 0, 65, 42
2, 6810, Note_on_c, 0, 65, 0
2, 6810, Note_on_c, 0, 68, 43
2, 6835, Note_on_c, 0, 68, 0
2, 6840, Note_on_c, 0, 68, 43
2, 7080, Note_on_c, 0, 68, 0
2, 7080, Note_on_c, 0, 67, 46
2, 7195, Note_on_c, 0, 67, 0
2, 7200, Note_on_c, 0, 67, 47
2, 7290, Note_on_c, 0, 67, 0
2, 7290, Note_on_c, 0, 68, 48
2, 7320, Note_on_c, 0, 68, 0
2, 7320, Note_on_c, 0, 67, 48
2, 7410, Note_on_c, 0, 67, 0
2, 7410, Note_on_c, 0, 68, 49
2, 7440, Note_on_c, 0, 68, 0
2, 7440, Note_on_c, 0, 67, 50
2, 7530, Note_on_c, 0, 67, 0
2, 7530, Note_on_c, 0, 70, 50
2, 7555, Note_on_c, 0, 70, 0
2, 7560, Note_on_c, 0, 70, 51
2, 7800, Note_on_c, 0, 70, 0
2, 7800, Note_on_c, 0, 69, 53
2, 7915, Note_on_c, 0, 69, 0
2, 7920, Note_on_c, 0, 69, 55
2, 7980, Note_on_c, 0, 69, 0
2, 7980, Note_on_c, 0, 72, 55
2, 8035, Note_on_c, 0, 72, 0
2, 8040, Note_on_c, 0, 72, 56
2, 8190, Note_on_c, 0, 72, 0
2, 8190, Note_on_c, 0, 70, 52
2, 8220, Note_on_c, 0, 70, 0
2, 8220, Note_on_c, 0, 69, 51
2, 8250, Note_on_c, 0, 69, 0
2, 8250, Note_on_c, 0, 70, 50
2, 8275, Note_on_c, 0, 70, 0
2, 8280, Note_on_c, 0, 74, 49
2, 8370, Note_on_c, 0, 74, 0
2, 8370, Note_on_c, 0, 70, 46
2, 8400, Note_on_c, 0, 70, 0
2, 8400, Note_on_c, 0, 69, 45
2, 8520, Note_on_c, 0, 69, 0
2, 8730, Note_on_c, 0, 62, 100
2, 8754, Note_on_c, 0, 62, 0
2, 8760, Note_on_c, 0, 70, 100
2, 8960, Note_on_c, 0, 70, 0
2, 8970, Note_on_c, 0, 69, 100
2, 8994, Note_on_c, 0, 69, 0
2, 9000, Note_on_c, 0, 67, 100
2, 9085, Note_on_c, 0, 67, 0
2, 9090, Note_on_c, 0, 62, 100
2, 9114, Note_on_c, 0, 62, 0
2, 9120, Note_on_c, 0, 74, 100
2, 9320, Note_on_c, 0, 74, 0
2, 9330, Note_on_c, 0, 72, 100
2, 9354, Note_on_c, 0, 72, 0
2, 9360, Note_on_c, 0, 70, 100
2, 9445, Note_on_c, 0, 70, 0
2, 9450, Note_on_c, 0, 67, 100
2, 9474, Note_on_c, 0, 67, 0
2, 9480, Note_on_c, 0, 79, 100
2, 9680, Note_on_c, 0, 79, 0
2, 9690, Note_on_c, 0, 77, 100
2, 9714, Note_on_c, 0, 77, 0
2, 9720, Note_on_c, 0, 75, 100
2, 9810, Note_on_c, 0, 75, 0
2, 9840, Note_on_c, 0, 74, 100
2, 9930, Note_on_c, 0, 74, 0
2, 10800, Control_c, 0, 11, 70
2, 10800, Note_on_c, 0, 84, 40
2, 10803, Control_c, 0, 11, 73
2, 10806, Control_c, 0, 11, 76
2, 10809, Control_c, 0, 11, 79
2, 10812, Control_c, 0, 11, 82
2, 10815, Control_c, 0, 11, 85
2, 10818, Control_c, 0, 11, 88
2, 10822, Control_c, 0, 11, 91
2, 10825, Control_c, 0, 11, 94
2, 10828, Control_c, 0, 11, 97
2, 10831, Control_c, 0, 11, 100
2, 10834, Control_c, 0, 11, 103
2, 10837, Control_c, 0, 11, 106
2, 10841, Control_c, 0, 11, 109
2, 10844, Control_c, 0, 11, 112
2, 10847, Control_c, 0, 11, 115
2, 10850, Control_c, 0, 11, 118
2, 10853, Control_c, 0, 11, 121
2, 10856, Control_c, 0, 11, 124
2, 10860, Control_c, 0, 11, 127
2, 10890, Note_on_c, 0, 84, 0
2, 10890, Note_on_c, 0, 83, 40
2, 10920, Note_on_c, 0, 83, 0
2, 10920, Note_on_c, 0, 84, 40
2, 11010, Note_on_c, 0, 84, 0
2, 11010, Note_on_c, 0, 83, 40
2, 11040, Note_on_c, 0, 83, 0
2, 11040, Note_on_c, 0, 84, 40
2, 11130, Note_on_c, 0, 84, 0
2, 11130, Note_on_c, 0, 83, 40
2, 11160, Note_on_c, 0, 83, 0
2, 11160, Note_on_c, 0, 84, 40
2, 11665, Note_on_c, 0, 84, 0
2, 11670, Note_on_c, 0, 82, 40
2, 11700, Note_on_c, 0, 82, 0
2, 11700, Note_on_c, 0, 81, 40
2, 11730, Note_on_c, 0, 81, 0
2, 11730, Note_on_c, 0, 79, 40
2, 11760, Note_on_c, 0, 79, 0
2, 11760, Note_on_c, 0, 78, 40
2, 11790, Note_on_c, 0, 78, 0
2, 11790, Note_on_c, 0, 75, 40
2, 11820, Note_on_c, 0, 75, 0
2, 11820, Note_on_c, 0, 74, 40
2, 11850, Note_on_c, 0, 74, 0
2, 11850, Note_on_c, 0, 72, 40
2, 11880, Note_on_c, 0, 72, 0
2, 11880, Note_on_c, 0, 71, 40
2, 11970, Note_on_c, 0, 71, 0
2, 11970, Note_on_c, 0, 74, 40
2, 12000, Note_on_c, 0, 74, 0
2, 12000, Note_on_c, 0, 77, 40
2, 12120, Note_on_c, 0, 77, 0
2, 12120, Note_on_c, 0, 75, 40
2, 12240, Note_on_c, 0, 75, 0
2, 12240, Note_on_c, 0, 79, 40
2, 12330, Note_on_c, 0, 79, 0
2, 12330, Note_on_c, 0, 75, 40
2, 12360, Note_on_c, 0, 75, 0
2, 12360, Note_on_c, 0, 74, 40
2, 12442, Note_on_c, 0, 74, 0
2, 12450, Note_on_c, 0, 67, 85
2, 12474, Note_on_c, 0, 67, 0
2, 12480, Note_on_c, 0, 69, 88
2, 12565, Note_on_c, 0, 69, 0
2, 12570, Note_on_c, 0, 71, 97
2, 12594, Note_on_c, 0, 71, 0
2, 12600, Note_on_c, 0, 55, 100
2, 12600, Note_on_c, 0, 63, 100
2, 12600, Note_on_c, 0, 72, 100
2, 12720, Note_on_c, 0, 72, 0
2, 12720, Note_on_c, 0, 63, 0
2, 12720, Note_on_c, 0, 55, 0
2, 12810, Note_on_c, 0, 67, 100
2, 12834, Note_on_c, 0, 67, 0
2, 12840, Note_on_c, 0, 57, 100
2, 12925, Note_on_c, 0, 57, 0
2, 12930, Note_on_c, 0, 59, 100
2, 12954, Note_on_c, 0, 59, 0
2, 12960, Note_on_c, 0, 60, 100
2, 13070, Note_on_c, 0, 60, 0
2, 13170, Note_on_c, 0, 67, 100
2, 13194, Note_on_c, 0, 67, 0
2, 13200, Note_on_c, 0, 69, 100
2, 13285, Note_on_c, 0, 69, 0
2, 13290, Note_on_c, 0, 71, 100
2, 13314, Note_on_c, 0, 71, 0
2, 13320, Note_on_c, 0, 72, 100
2, 13430, Note_on_c, 0, 72, 0
2, 13530, Note_on_c, 0, 72, 100
2, 13554, Note_on_c, 0, 72, 0
2, 13560, Note_on_c, 0, 74, 100
2, 13645, Note_on_c, 0, 74, 0
2, 13650, Note_on_c, 0, 76, 100
2, 13674, Note_on_c, 0, 76, 0
2, 13680, Note_on_c, 0, 77, 100
2, 13770, Note_on_c, 0, 77, 0
2, 13800, Note_on_c, 0, 82, 100
2, 13890, Note_on_c, 0, 82, 0
2, 14760, Control_c, 0, 11, 70
2, 14760, Note_on_c, 0, 85, 40
2, 14763, Control_c, 0, 11, 73
2, 14766, Control_c, 0, 11, 76
2, 14769, Control_c, 0, 11, 79
2, 14772, Control_c, 0, 11, 82
2, 14775, Control_c, 0, 11, 85
2, 14778, Control_c, 0, 11, 88
2, 14782, Control_c, 0, 11, 91
2, 14785, Control_c, 0, 11, 94
2, 14788, Control_c, 0, 11, 97
2, 14791, Control_c, 0, 11, 100
2, 14794, Control_c, 0, 11, 103
2, 14797, Control_c, 0, 11, 106
2, 14801, Control_c, 0, 11, 109
2, 14804, Control_c, 0, 11, 112
2, 14807, Control_c, 0, 11, 115
2, 14810, Control_c, 0, 11, 118
2, 14813, Control_c, 0, 11, 121
2, 14816, Control_c, 0, 11, 124
2, 14820, Control_c, 0, 11, 127
2, 14850, Note_on_c, 0, 85, 0
2, 14850, Note_on_c, 0, 84, 40
2, 14880, Note_on_c, 0, 84, 0
2, 14880, Note_on_c, 0, 85, 40
2, 14970, Note_on_c, 0, 85, 0
2, 14970, Note_on_c, 0, 84, 40
2, 15000, Note_on_c, 0, 84, 0
2, 15000, Note_on_c, 0, 85, 40
2, 15090, Note_on_c, 0, 85, 0
2, 15090, Note_on_c, 0, 84, 40
2, 15115, Note_on_c, 0, 84, 0
2, 15120, Note_on_c, 0, 85, 40
2, 15240, Note_on_c, 0, 85, 0
2, 15240, Note_on_c, 0, 83, 40
2, 15600, Note_on_c, 0, 83, 0
2, 15600, Note_on_c, 0, 81, 40
2, 15955, Note_on_c, 0, 81, 0
2, 15960, Note_on_c, 0, 79, 40
2, 16320, Note_on_c, 0, 79, 0
2, 16320, Note_on_c, 0, 77, 40
2, 16440, Note_on_c, 0, 77, 0
2, 16440, Note_on_c, 0, 76, 40
2, 16555, Note_on_c, 0, 76, 0
2, 16560, Note_on_c, 0, 75, 40
2, 16680, Note_on_c, 0, 75, 0
2, 16680, Note_on_c, 0, 74, 40
2, 16800, Note_on_c, 0, 74, 0
2, 16800, Note_on_c, 0, 72, 40
2, 16920, Note_on_c, 0, 72, 0
2, 16920, Note_on_c, 0, 71, 40
2, 17040, Note_on_c, 0, 71, 0
2, 17400, Control_c, 0, 11, 70
2, 17400, Note_on_c, 0, 81, 40
2, 17403, Control_c, 0, 11, 73
2, 17406, Control_c, 0, 11, 76
2, 17409, Control_c, 0, 11, 79
2, 17412, Control_c, 0, 11, 82
2, 17415, Control_c, 0, 11, 85
2, 17418, Control_c, 0, 11, 88
2, 17422, Control_c, 0, 11, 91
2, 17425, Control_c, 0, 11, 94
2, 17428, Control_c, 0, 11, 97
2, 17431, Control_c, 0, 11, 100
2, 17434, Control_c, 0, 11, 103
2, 17437, Control_c, 0, 11, 106
2, 17441, Control_c, 0, 11, 109
2, 17444, Control_c, 0, 11, 112
2, 17447, Control_c, 0, 11, 115
2, 17450, Control_c, 0, 11, 118
2, 17453, Control_c, 0, 11, 121
2, 17456, Control_c, 0, 11, 124
2, 17460, Control_c, 0, 11, 127
2, 17520, Note_on_c, 0, 81, 0
2, 17520, Note_on_c, 0, 75, 40
2, 17610, Note_on_c, 0, 75, 0
2, 17610, Note_on_c, 0, 74, 40
2, 17635, Note_on_c, 0, 74, 0
2, 17640, Note_on_c, 0, 74, 40
2, 17760, Note_on_c, 0, 74, 0
2, 18120, Control_c, 0, 11, 70
2, 18120, Note_on_c, 0, 75, 40
2, 18123, Control_c, 0, 11, 73
2, 18126, Control_c, 0, 11, 76
2, 18129, Control_c, 0, 11, 79
2, 18132, Control_c, 0, 11, 82
2, 18135, Control_c, 0, 11, 85
2, 18138, Control_c, 0, 11, 88
2, 18142, Control_c, 0, 11, 91
2, 18145, Control_c, 0, 11, 94
2, 18148, Control_c, 0, 11, 97
2, 18151, Control_c, 0, 11, 100
2, 18154, Control_c, 0, 11, 103
2, 18157, Control_c, 0, 11, 106
2, 18161, Control_c, 0, 11, 109
2, 18164, Control_c, 0, 11, 112
2, 18167, Control_c, 0, 11, 115
2, 18170, Control_c, 0, 11, 118
2, 18173, Control_c, 0, 11, 121
2, 18176, Control_c, 0, 11, 124
2, 18180, Control_c, 0, 11, 127
2, 18240, Note_on_c, 0, 75, 0
2, 18240, Note_on_c, 0, 66, 38
2, 18330, Note_on_c, 0, 66, 0
2, 18330, Note_on_c, 0, 67, 37
2, 18355, Note_on_c, 0, 67, 0
2, 18360, Note_on_c, 0, 67, 36
2, 18450, Note_on_c, 0, 67, 0
2, 18450, Note_on_c, 0, 66, 35
2, 18480, Note_on_c, 0, 66, 0
2, 18480, Note_on_c, 0, 67, 34
2, 18570, Note_on_c, 0, 67, 0
2, 18570, Note_on_c, 0, 66, 33
2, 18600, Note_on_c, 0, 66, 0
2, 18600, Note_on_c, 0, 67, 32
2, 18690, Note_on_c, 0, 67, 0
2, 18690, Note_on_c, 0, 66, 31
2, 18715, Note_on_c, 0, 66, 0
2, 18720, Note_on_c, 0, 67, 30
2, 18900, Control_c, 0, 11, 127
2, 18901, Control_c, 0, 11, 125
2, 18902, Control_c, 0, 11, 124
2, 18903, Control_c, 0, 11, 123
2, 18904, Control_c, 0, 11, 122
2, 18905, Control_c, 0, 11, 121
2, 18906, Control_c, 0, 11, 120
2, 18907, Control_c, 0, 11, 119
2, 18908, Control_c, 0, 11, 118
2, 18909, Control_c, 0, 11, 117
2, 18910, Control_c, 0, 11, 116
2, 18911, Control_c, 0, 11, 115
2, 18912, Control_c, 0, 11, 114
2, 18913, Control_c, 0, 11, 113
2, 18914, Control_c, 0, 11, 112
2, 18915, Control_c, 0, 11, 110
2, 18916, Control_c, 0, 11, 109
2, 18917, Control_c, 0, 11, 108
2, 18918, Control_c, 0, 11, 107
2, 18919, Control_c, 0, 11, 106
2, 18920, Control_c, 0, 11, 105
2, 18921, Control_c, 0, 11, 104
2, 18922, Control_c, 0, 11, 103
2, 18923, Control_c, 0, 11, 102
2, 18924, Control_c, 0, 11, 101
2, 18925, Control_c, 0, 11, 100
2, 18926, Control_c, 0, 11, 99
2, 18927, Control_c, 0, 11, 98
2, 18928, Control_c, 0, 11, 97
2, 18929, Control_c, 0, 11, 96
2, 18930, Control_c, 0, 11, 94
2, 18931, Control_c, 0, 11, 93
2, 18932, Control_c, 0, 11, 92
2, 18933, Control_c, 0, 11, 91
2, 18934, Control_c, 0, 11, 90
2, 18935, Control_c, 0, 11, 89
2, 18936, Control_c, 0, 11, 88
2, 18937, Control_c, 0, 11, 87
2, 18938, Control_c, 0, 11, 86
2, 18939, Control_c, 0, 11, 85
2, 18940, Control_c, 0, 11, 84
2, 18941, Control_c, 0, 11, 83
2, 18942, Control_c, 0, 11, 82
2, 18943, Control_c, 0, 11, 81
2, 18944, Control_c, 0, 11, 80
2, 18945, Control_c, 0, 11, 78
2, 18946, Control_c, 0, 11, 77
2, 18947, Control_c, 0, 11, 76
2, 18948, Control_c, 0, 11, 75
2, 18949, Control_c, 0, 11, 74
2, 18950, Control_c, 0, 11, 73
2, 18951, Control_c, 0, 11, 72
2, 18952, Control_c, 0, 11, 71
2, 18953, Control_c, 0, 11, 70
2, 18954, Control_c, 0, 11, 69
2, 18955, Control_c, 0, 11, 68
2, 18956, Control_c, 0, 11, 67
2, 18957, Control_c, 0, 11, 66
2, 18958, Control_c, 0, 11, 65
2, 18959, Control_c, 0, 11, 64
2, 18960, Note_on_c, 0, 67, 0
2, 23400, Control_c, 0, 11, 127
2, 23400, Note_on_c, 0, 72, 85
2, 23490, Note_on_c, 0, 72, 0
2, 23520, Note_on_c, 0, 72, 85
2, 23610, Note_on_c, 0, 72, 0
2, 23640, Note_on_c, 0, 67, 85
2, 23730, Note_on_c, 0, 67, 0
2, 23760, Note_on_c, 0, 69, 85
2, 23790, Note_on_c, 0, 69, 0
2, 23790, Note_on_c, 0, 71, 85
2, 23820, Note_on_c, 0, 71, 0
2, 23820, Note_on_c, 0, 72, 85
2, 23850, Note_on_c, 0, 72, 0
2, 23850, Note_on_c, 0, 74, 85
2, 23880, Note_on_c, 0, 74, 0
2, 23880, Note_on_c, 0, 75, 85
2, 23970, Note_on_c, 0, 75, 0
2, 24000, Note_on_c, 0, 75, 85
2, 24090, Note_on_c, 0, 75, 0
2, 24120, Note_on_c, 0, 66, 85
2, 24210, Note_on_c, 0, 66, 0
2, 24300, Note_on_c, 0, 75, 85
2, 24345, Note_on_c, 0, 75, 0
2, 24360, Note_on_c, 0, 73, 85
2, 24420, Note_on_c, 0, 73, 0
2, 24420, Note_on_c, 0, 74, 85
2, 24480, Note_on_c, 0, 74, 0
2, 24540, Note_on_c, 0, 72, 85
2, 24600, Note_on_c, 0, 72, 0
2, 24600, Note_on_c, 0, 69, 85
2, 24660, Note_on_c, 0, 69, 0
2, 24660, Note_on_c, 0, 70, 85
2, 24720, Note_on_c, 0, 70, 0
2, 24720, Note_on_c, 0, 68, 85
2, 24780, Note_on_c, 0, 68, 0
2, 24780, Note_on_c, 0, 69, 85
2, 24835, Note_on_c, 0, 69, 0
2, 24840, Note_on_c, 0, 66, 85
2, 24900, Note_on_c, 0, 66, 0
2, 24900, Note_on_c, 0, 67, 85
2, 24960, Note_on_c, 0, 67, 0
2, 24960, Note_on_c, 0, 65, 85
2, 25015, Note_on_c, 0, 65, 0
2, 25020, Note_on_c, 0, 77, 85
2, 25140, Note_on_c, 0, 77, 0
2, 25140, Note_on_c, 0, 76, 85
2, 25195, Note_on_c, 0, 76, 0
2, 25200, Note_on_c, 0, 75, 85
2, 25315, Note_on_c, 0, 75, 0
2, 25320, Note_on_c, 0, 75, 85
2, 25335, Note_on_c, 0, 75, 0
2, 25335, Note_on_c, 0, 74, 85
2, 25350, Note_on_c, 0, 74, 0
2, 25350, Note_on_c, 0, 75, 85
2, 25365, Note_on_c, 0, 75, 0
2, 25365, Note_on_c, 0, 74, 85
2, 25380, Note_on_c, 0, 74, 0
2, 25380, Note_on_c, 0, 75, 85
2, 25395, Note_on_c, 0, 75, 0
2, 25395, Note_on_c, 0, 74, 85
2, 25410, Note_on_c, 0, 74, 0
2, 25410, Note_on_c, 0, 75, 85
2, 25425, Note_on_c, 0, 75, 0
2, 25425, Note_on_c, 0, 74, 85
2, 25440, Note_on_c, 0, 74, 0
2, 25440, Note_on_c, 0, 75, 85
2, 25455, Note_on_c, 0, 75, 0
2, 25455, Note_on_c, 0, 74, 85
2, 25470, Note_on_c, 0, 74, 0
2, 25470, Note_on_c, 0, 75, 85
2, 25485, Note_on_c, 0, 75, 0
2, 25485, Note_on_c, 0, 74, 85
2, 25500, Note_on_c, 0, 74, 0
2, 25500, Note_on_c, 0, 72, 85
2, 25530, Note_on_c, 0, 72, 0
2, 25530, Note_on_c, 0, 74, 85
2, 25560, Note_on_c, 0, 74, 0
2, 25560, Note_on_c, 0, 75, 85
2, 25650, Note_on_c, 0, 75, 0
2, 25680, Note_on_c, 0, 72, 85
2, 25770, Note_on_c, 0, 72, 0
2, 25860, Note_on_c, 0, 77, 85
2, 25905, Note_on_c, 0, 77, 0
2, 25920, Note_on_c, 0, 77, 85
2, 25965, Note_on_c, 0, 77, 0
2, 25980, Note_on_c, 0, 77, 85
2, 26025, Note_on_c, 0, 77, 0
2, 26040, Note_on_c, 0, 79, 85
2, 26055, Note_on_c, 0, 79, 0
2, 26055, Note_on_c, 0, 77, 85
2, 26070, Note_on_c, 0, 77, 0
2, 26070, Note_on_c, 0, 79, 85
2, 26085, Note_on_c, 0, 79, 0
2, 26085, Note_on_c, 0, 77, 85
2, 26100, Note_on_c, 0, 77, 0
2, 26100, Note_on_c, 0, 79, 85
2, 26115, Note_on_c, 0, 79, 0
2, 26115, Note_on_c, 0, 77, 85
2, 26130, Note_on_c, 0, 77, 0
2, 26130, Note_on_c, 0, 79, 85
2, 26145, Note_on_c, 0, 79, 0
2, 26145, Note_on_c, 0, 77, 85
2, 26160, Note_on_c, 0, 77, 0
2, 26160, Note_on_c, 0, 79, 85
2, 26175, Note_on_c, 0, 79, 0
2, 26175, Note_on_c, 0, 77, 85
2, 26190, Note_on_c, 0, 77, 0
2, 26190, Note_on_c, 0, 79, 85
2, 26205, Note_on_c, 0, 79, 0
2, 26205, Note_on_c, 0, 77, 85
2, 26220, Note_on_c, 0, 77, 0
2, 26220, Note_on_c, 0, 76, 85
2, 26250, Note_on_c, 0, 76, 0
2, 26250, Note_on_c, 0, 77, 85
2, 26280, Note_on_c, 0, 77, 0
2, 26280, Note_on_c, 0, 75, 85
2, 26460, Note_on_c, 0, 75, 0
2, 26460, Note_on_c, 0, 74, 85
2, 26580, Note_on_c, 0, 74, 0
2, 26580, Note_on_c, 0, 72, 85
2, 26700, Note_on_c, 0, 72, 0
2, 26700, Note_on_c, 0, 71, 85
2, 26760, Note_on_c, 0, 71, 0
2, 26760, Note_on_c, 0, 72, 85
2, 26815, Note_on_c, 0, 72, 0
2, 26820, Note_on_c, 0, 72, 85
2, 26845, Note_on_c, 0, 72, 0
2, 26850, Note_on_c, 0, 74, 85
2, 26875, Note_on_c, 0, 74, 0
2, 26880, Note_on_c, 0, 75, 85
2, 26935, Note_on_c, 0, 75, 0
2, 26940, Note_on_c, 0, 67, 85
2, 26995, Note_on_c, 0, 67, 0
2, 27000, Note_on_c, 0, 70, 85
2, 27015, Note_on_c, 0, 70, 0
2, 27015, Note_on_c, 0, 68, 85
2, 27030, Note_on_c, 0, 68, 0
2, 27030, Note_on_c, 0, 70, 85
2, 27045, Note_on_c, 0, 70, 0
2, 27045, Note_on_c, 0, 68, 85
2, 27060, Note_on_c, 0, 68, 0
2, 27060, Note_on_c, 0, 70, 85
2, 27075, Note_on_c, 0, 70, 0
2, 27075, Note_on_c, 0, 68, 85
2, 27090, Note_on_c, 0, 68, 0
2, 27090, Note_on_c, 0, 70, 85
2, 27105, Note_on_c, 0, 70, 0
2, 27105, Note_on_c, 0, 68, 85
2, 27120, Note_on_c, 0, 68, 0
2, 27120, Note_on_c, 0, 70, 85
2, 27135, Note_on_c, 0, 70, 0
2, 27135, Note_on_c, 0, 68, 85
2, 27150, Note_on_c, 0, 68, 0
2, 27150, Note_on_c, 0, 70, 85
2, 27165, Note_on_c, 0, 70, 0
2, 27165, Note_on_c, 0, 68, 85
2, 27180, Note_on_c, 0, 68, 0
2, 27180, Note_on_c, 0, 67, 85
2, 27210, Note_on_c, 0, 67, 0
2, 27210, Note_on_c, 0, 68, 85
2, 27235, Note_on_c, 0, 68, 0
2, 27240, Note_on_c, 0, 58, 85
2, 27295, Note_on_c, 0, 58, 0
2, 27300, Note_on_c, 0, 74, 85
2, 27325, Note_on_c, 0, 74, 0
2, 27330, Note_on_c, 0, 75, 85
2, 27355, Note_on_c, 0, 75, 0
2, 27360, Note_on_c, 0, 77, 85
2, 27415, Note_on_c, 0, 77, 0
2, 27420, Note_on_c, 0, 68, 85
2, 27475, Note_on_c, 0, 68, 0
2, 27480, Note_on_c, 0, 68, 85
2, 27495, Note_on_c, 0, 68, 0
2, 27495, Note_on_c, 0, 67, 85
2, 27510, Note_on_c, 0, 67, 0
2, 27510, Note_on_c, 0, 68, 85
2, 27525, Note_on_c, 0, 68, 0
2, 27525, Note_on_c, 0, 67, 85
2, 27540, Note_on_c, 0, 67, 0
2, 27540, Note_on_c, 0, 68, 85
2, 27555, Note_on_c, 0, 68, 0
2, 27555, Note_on_c, 0, 67, 85
2, 27570, Note_on_c, 0, 67, 0
2, 27570, Note_on_c, 0, 68, 85
2, 27585, Note_on_c, 0, 68, 0
2, 27585, Note_on_c, 0, 67, 85
2, 27600, Note_on_c, 0, 67, 0
2, 27600, Note_on_c, 0, 68, 85
2, 27615, Note_on_c, 0, 68, 0
2, 27615, Note_on_c, 0, 67, 85
2, 27630, Note_on_c, 0, 67, 0
2, 27630, Note_on_c, 0, 68, 85
2, 27645, Note_on_c, 0, 68, 0
2, 27645, Note_on_c, 0, 67, 85
2, 27660, Note_on_c, 0, 67, 0
2, 27660, Note_on_c, 0, 65, 85
2, 27690, Note_on_c, 0, 65, 0
2, 27690, Note_on_c, 0, 67, 85
2, 27715, Note_on_c, 0, 67, 0
2, 27720, Note_on_c, 0, 60, 85
2, 27775, Note_on_c, 0, 60, 0
2, 27780, Note_on_c, 0, 65, 85
2, 27805, Note_on_c, 0, 65, 0
2, 27810, Note_on_c, 0, 68, 85
2, 27835, Note_on_c, 0, 68, 0
2, 27840, Note_on_c, 0, 72, 85
2, 27895, Note_on_c, 0, 72, 0
2, 27900, Note_on_c, 0, 63, 85
2, 27955, Note_on_c, 0, 63, 0
2, 27960, Note_on_c, 0, 62, 85
2, 28015, Note_on_c, 0, 62, 0
2, 28020, Note_on_c, 0, 72, 85
2, 28080, Note_on_c, 0, 72, 0
2, 28080, Note_on_c, 0, 70, 85
2, 28140, Note_on_c, 0, 70, 0
2, 28140, Note_on_c, 0, 68, 85
2, 28195, Note_on_c, 0, 68, 0
2, 28200, Note_on_c, 0, 67, 85
2, 28255, Note_on_c, 0, 67, 0
2, 28260, Note_on_c, 0, 79, 85
2, 28320, Note_on_c, 0, 79, 0
2, 28320, Note_on_c, 0, 77, 85
2, 28380, Note_on_c, 0, 77, 0
2, 28380, Note_on_c, 0, 75, 85
2, 28440, Note_on_c, 0, 75, 0
2, 28440, Note_on_c, 0, 74, 85
2, 28500, Note_on_c, 0, 74, 0
2, 28500, Note_on_c, 0, 72, 85
2, 28560, Note_on_c, 0, 72, 0
2, 28560, Note_on_c, 0, 70, 85
2, 28620, Note_on_c, 0, 70, 0
2, 28620, Note_on_c, 0, 69, 85
2, 28675, Note_on_c, 0, 69, 0
2, 28680, Note_on_c, 0, 77, 85
2, 28740, Note_on_c, 0, 77, 0
2, 28740, Note_on_c, 0, 74, 85
2, 28770, Note_on_c, 0, 74, 0
2, 28770, Note_on_c, 0, 70, 85
2, 28795, Note_on_c, 0, 70, 0
2, 28800, Note_on_c, 0, 68, 85
2, 28980, Note_on_c, 0, 68, 0
2, 28980, Note_on_c, 0, 67, 85
2, 29040, Note_on_c, 0, 67, 0
2, 29040, Note_on_c, 0, 79, 85
2, 29100, Note_on_c, 0, 79, 0
2, 29100, Note_on_c, 0, 77, 85
2, 29145, Note_on_c, 0, 77, 0
2, 29160, Note_on_c, 0, 77, 85
2, 29220, Note_on_c, 0, 77, 0
2, 29220, Note_on_c, 0, 75, 85
2, 29340, Note_on_c, 0, 75, 0
2, 29340, Note_on_c, 0, 73, 85
2, 29400, Note_on_c, 0, 73, 0
2, 29400, Note_on_c, 0, 84, 85
2, 29400, Note_on_c, 0, 72, 85
2, 29490, Note_on_c, 0, 72, 0
2, 29490, Note_on_c, 0, 84, 0
2, 29520, Note_on_c, 0, 84, 85
2, 29610, Note_on_c, 0, 84, 0
2, 29640, Note_on_c, 0, 77, 86
2, 29730, Note_on_c, 0, 77, 0
2, 29760, Note_on_c, 0, 79, 86
2, 29790, Note_on_c, 0, 79, 0
2, 29790, Note_on_c, 0, 81, 86
2, 29820, Note_on_c, 0, 81, 0
2, 29820, Note_on_c, 0, 82, 87
2, 29850, Note_on_c, 0, 82, 0
2, 29850, Note_on_c, 0, 84, 87
2, 29880, Note_on_c, 0, 84, 0
2, 29880, Note_on_c, 0, 85, 87
2, 29970, Note_on_c, 0, 85, 0
2, 30000, Note_on_c, 0, 85, 87
2, 30090, Note_on_c, 0, 85, 0
2, 30120, Note_on_c, 0, 76, 88
2, 30210, Note_on_c, 0, 76, 0
2, 30300, Note_on_c, 0, 85, 89
2, 30360, Note_on_c, 0, 85, 0
2, 30360, Note_on_c, 0, 83, 89
2, 30420, Note_on_c, 0, 83, 0
2, 30420, Note_on_c, 0, 84, 90
2, 30480, Note_on_c, 0, 84, 0
2, 30540, Note_on_c, 0, 82, 90
2, 30585, Note_on_c, 0, 82, 0
2, 30600, Note_on_c, 0, 79, 90
2, 30660, Note_on_c, 0, 79, 0
2, 30660, Note_on_c, 0, 80, 91
2, 30720, Note_on_c, 0, 80, 0
2, 30720, Note_on_c, 0, 78, 91
2, 30780, Note_on_c, 0, 78, 0
2, 30780, Note_on_c, 0, 79, 91
2, 30840, Note_on_c, 0, 79, 0
2, 30840, Note_on_c, 0, 77, 92
2, 30900, Note_on_c, 0, 77, 0
2, 30900, Note_on_c, 0, 78, 92
2, 30960, Note_on_c, 0, 78, 0
2, 31020, Note_on_c, 0, 66, 92
2, 31080, Note_on_c, 0, 66, 0
2, 31080, Note_on_c, 0, 72, 93
2, 31140, Note_on_c, 0, 72, 0
2, 31140, Note_on_c, 0, 70, 93
2, 31200, Note_on_c, 0, 70, 0
2, 31380, Note_on_c, 0, 67, 94
2, 31440, Note_on_c, 0, 67, 0
2, 31440, Note_on_c, 0, 69, 95
2, 31500, Note_on_c, 0, 69, 0
2, 31500, Note_on_c, 0, 70, 95
2, 31555, Note_on_c, 0, 70, 0
2, 31560, Note_on_c, 0, 71, 95
2, 31620, Note_on_c, 0, 71, 0
2, 31620, Note_on_c, 0, 72, 95
2, 31680, Note_on_c, 0, 72, 0
2, 31740, Note_on_c, 0, 78, 96
2, 31800, Note_on_c, 0, 78, 0
2, 31800, Note_on_c, 0, 79, 96
2, 31920, Note_on_c, 0, 79, 0
2, 31980, Note_on_c, 0, 66, 97
2, 32040, Note_on_c, 0, 66, 0
2, 32040, Note_on_c, 0, 72, 97
2, 32100, Note_on_c, 0, 72, 0
2, 32100, Note_on_c, 0, 70, 98
2, 32155, Note_on_c, 0, 70, 0
2, 32160, Note_on_c, 0, 79, 98
2, 32220, Note_on_c, 0, 79, 0
2, 32220, Note_on_c, 0, 82, 98
2, 32275, Note_on_c, 0, 82, 0
2, 32280, Note_on_c, 0, 82, 99
2, 32400, Note_on_c, 0, 82, 0
2, 32400, Note_on_c, 0, 72, 99
2, 32460, Note_on_c, 0, 72, 0
2, 32580, Note_on_c, 0, 72, 100
2, 32640, Note_on_c, 0, 72, 0
2, 32640, Note_on_c, 0, 77, 98
2, 32700, Note_on_c, 0, 77, 0
2, 32700, Note_on_c, 0, 80, 96
2, 32755, Note_on_c, 0, 80, 0
2, 32760, Note_on_c, 0, 80, 94
2, 32880, Note_on_c, 0, 80, 0
2, 32880, Note_on_c, 0, 70, 90
2, 32940, Note_on_c, 0, 70, 0
2, 32940, Note_on_c, 0, 77, 88
2, 33055, Note_on_c, 0, 77, 0
2, 33060, Note_on_c, 0, 75, 83
2, 33180, Note_on_c, 0, 75, 0
2, 33180, Note_on_c, 0, 73, 79
2, 33300, Note_on_c, 0, 73, 0
2, 33300, Note_on_c, 0, 72, 75
2, 33420, Note_on_c, 0, 72, 0
2, 33420, Note_on_c, 0, 70, 70
2, 33535, Note_on_c, 0, 70, 0
2, 33540, Note_on_c, 0, 68, 70
2, 33660, Note_on_c, 0, 68, 0
2, 33660, Note_on_c, 0, 73, 70
2, 33780, Note_on_c, 0, 73, 0
2, 33780, Note_on_c, 0, 72, 70
2, 33895, Note_on_c, 0, 72, 0
2, 33900, Note_on_c, 0, 70, 70
2, 34020, Note_on_c, 0, 70, 0
2, 34020, Note_on_c, 0, 69, 70
2, 34140, Note_on_c, 0, 69, 0
2, 34140, Note_on_c, 0, 75, 70
2, 34260, Note_on_c, 0, 75, 0
2, 34260, Note_on_c, 0, 73, 72
2, 34380, Note_on_c, 0, 73, 0
2, 34380, Note_on_c, 0, 72, 74
2, 34500, Note_on_c, 0, 72, 0
2, 34500, Note_on_c, 0, 65, 76
2, 34560, Note_on_c, 0, 65, 0
2, 34560, Note_on_c, 0, 70, 77
2, 34680, Note_on_c, 0, 70, 0
2, 35640, Note_on_c, 0, 72, 100
2, 35730, Note_on_c, 0, 72, 0
2, 35760, Note_on_c, 0, 72, 100
2, 35850, Note_on_c, 0, 72, 0
2, 35880, Note_on_c, 0, 79, 100
2, 35970, Note_on_c, 0, 79, 0
2, 36000, Note_on_c, 0, 77, 100
2, 36030, Note_on_c, 0, 77, 0
2, 36030, Note_on_c, 0, 75, 100
2, 36060, Note_on_c, 0, 75, 0
2, 36060, Note_on_c, 0, 74, 100
2, 36090, Note_on_c, 0, 74, 0
2, 36090, Note_on_c, 0, 72, 100
2, 36120, Note_on_c, 0, 72, 0
2, 36120, Note_on_c, 0, 71, 100
2, 36210, Note_on_c, 0, 71, 0
2, 36240, Note_on_c, 0, 71, 100
2, 36330, Note_on_c, 0, 71, 0
2, 36360, Note_on_c, 0, 80, 100
2, 36450, Note_on_c, 0, 80, 0
2, 36540, Note_on_c, 0, 71, 100
2, 36600, Note_on_c, 0, 71, 0
2, 36600, Note_on_c, 0, 74, 100
2, 36660, Note_on_c, 0, 74, 0
2, 36660, Note_on_c, 0, 72, 100
2, 36720, Note_on_c, 0, 72, 0
2, 36780, Note_on_c, 0, 74, 100
2, 36840, Note_on_c, 0, 74, 0
2, 36840, Note_on_c, 0, 77, 100
2, 36900, Note_on_c, 0, 77, 0
2, 36900, Note_on_c, 0, 75, 100
2, 36960, Note_on_c, 0, 75, 0
2, 36960, Note_on_c, 0, 79, 100
2, 37020, Note_on_c, 0, 79, 0
2, 37020, Note_on_c, 0, 77, 100
2, 37080, Note_on_c, 0, 77, 0
2, 37080, Note_on_c, 0, 80, 100
2, 37140, Note_on_c, 0, 80, 0
2, 37140, Note_on_c, 0, 79, 100
2, 37200, Note_on_c, 0, 79, 0
2, 37260, Note_on_c, 0, 80, 100
2, 37320, Note_on_c, 0, 80, 0
2, 37320, Note_on_c, 0, 72, 85
2, 37380, Note_on_c, 0, 72, 0
2, 37380, Note_on_c, 0, 71, 85
2, 37440, Note_on_c, 0, 71, 0
2, 37620, Note_on_c, 0, 67, 70
2, 37680, Note_on_c, 0, 67, 0
2, 37680, Note_on_c, 0, 73, 70
2, 37740, Note_on_c, 0, 73, 0
2, 37740, Note_on_c, 0, 74, 70
2, 37800, Note_on_c, 0, 74, 0
2, 37860, Note_on_c, 0, 69, 70
2, 37920, Note_on_c, 0, 69, 0
2, 37920, Note_on_c, 0, 74, 70
2, 37980, Note_on_c, 0, 74, 0
2, 37980, Note_on_c, 0, 75, 70
2, 38040, Note_on_c, 0, 75, 0
2, 38100, Note_on_c, 0, 69, 70
2, 38160, Note_on_c, 0, 69, 0
2, 38160, Note_on_c, 0, 74, 70
2, 38220, Note_on_c, 0, 74, 0
2, 38220, Note_on_c, 0, 72, 70
2, 38280, Note_on_c, 0, 72, 0
2, 38340, Note_on_c, 0, 63, 70
2, 38400, Note_on_c, 0, 63, 0
2, 38400, Control_c, 0, 11, 85
2, 38400, Note_on_c, 0, 67, 70
2, 38441, Control_c, 0, 11, 86
2, 38460, Note_on_c, 0, 67, 0
2, 38460, Note_on_c, 0, 66, 70
2, 38483, Control_c, 0, 11, 87
2, 38520, Note_on_c, 0, 66, 0
2, 38525, Control_c, 0, 11, 88
2, 38567, Control_c, 0, 11, 89
2, 38580, Note_on_c, 0, 67, 70
2, 38609, Control_c, 0, 11, 90
2, 38640, Note_on_c, 0, 67, 0
2, 38640, Note_on_c, 0, 70, 70
2, 38651, Control_c, 0, 11, 91
2, 38693, Control_c, 0, 11, 92
2, 38700, Note_on_c, 0, 70, 0
2, 38700, Note_on_c, 0, 69, 70
2, 38735, Control_c, 0, 11, 93
2, 38760, Note_on_c, 0, 69, 0
2, 38760, Note_on_c, 0, 67, 70
2, 38777, Control_c, 0, 11, 94
2, 38819, Control_c, 0, 11, 95
2, 38820, Note_on_c, 0, 67, 0
2, 38820, Note_on_c, 0, 65, 71
2, 38861, Control_c, 0, 11, 96
2, 38880, Note_on_c, 0, 65, 0
2, 38880, Note_on_c, 0, 68, 72
2, 38903, Control_c, 0, 11, 97
2, 38940, Note_on_c, 0, 68, 0
2, 38940, Note_on_c, 0, 67, 73
2, 38945, Control_c, 0, 11, 98
2, 38987, Control_c, 0, 11, 99
2, 39000, Note_on_c, 0, 67, 0
2, 39000, Note_on_c, 0, 70, 75
2, 39029, Control_c, 0, 11, 100
2, 39060, Note_on_c, 0, 70, 0
2, 39060, Note_on_c, 0, 68, 76
2, 39071, Control_c, 0, 11, 101
2, 39113, Control_c, 0, 11, 102
2, 39120, Note_on_c, 0, 68, 0
2, 39120, Note_on_c, 0, 72, 77
2, 39155, Control_c, 0, 11, 103
2, 39180, Note_on_c, 0, 72, 0
2, 39180, Note_on_c, 0, 70, 78
2, 39197, Control_c, 0, 11, 104
2, 39235, Note_on_c, 0, 70, 0
2, 39239, Control_c, 0, 11, 105
2, 39240, Note_on_c, 0, 73, 80
2, 39300, Note_on_c, 0, 73, 0
2, 39300, Note_on_c, 0, 72, 81
2, 39360, Note_on_c, 0, 72, 0
2, 39360, Note_on_c, 0, 75, 82
2, 39420, Note_on_c, 0, 75, 0
2, 39420, Note_on_c, 0, 73, 83
2, 39480, Note_on_c, 0, 73, 0
2, 39480, Note_on_c, 0, 67, 85
2, 39540, Note_on_c, 0, 67, 0
2, 39540, Note_on_c, 0, 68, 83
2, 39600, Note_on_c, 0, 68, 0
2, 40200, Note_on_c, 0, 80, 60
2, 40290, Note_on_c, 0, 80, 0
2, 40320, Note_on_c, 0, 80, 62
2, 40410, Note_on_c, 0, 80, 0
2, 40440, Note_on_c, 0, 73, 65
2, 40530, Note_on_c, 0, 73, 0
2, 40560, Note_on_c, 0, 75, 67
2, 40590, Note_on_c, 0, 75, 0
2, 40590, Note_on_c, 0, 77, 68
2, 40620, Note_on_c, 0, 77, 0
2, 40620, Note_on_c, 0, 78, 68
2, 40650, Note_on_c, 0, 78, 0
2, 40650, Note_on_c, 0, 80, 69
2, 40680, Note_on_c, 0, 80, 0
2, 40680, Note_on_c, 0, 82, 70
2, 40770, Note_on_c, 0, 82, 0
2, 40800, Note_on_c, 0, 82, 72
2, 40890, Note_on_c, 0, 82, 0
2, 40920, Note_on_c, 0, 72, 75
2, 41010, Note_on_c, 0, 72, 0
2, 41040, Note_on_c, 0, 73, 77
2, 41070, Note_on_c, 0, 73, 0
2, 41070, Note_on_c, 0, 75, 78
2, 41100, Note_on_c, 0, 75, 0
2, 41100, Note_on_c, 0, 77, 78
2, 41130, Note_on_c, 0, 77, 0
2, 41130, Note_on_c, 0, 78, 79
2, 41160, Note_on_c, 0, 78, 0
2, 41160, Note_on_c, 0, 80, 80
2, 41250, Note_on_c, 0, 80, 0
2, 41280, Note_on_c, 0, 80, 82
2, 41370, Note_on_c, 0, 80, 0
2, 41400, Note_on_c, 0, 70, 85
2, 41490, Note_on_c, 0, 70, 0
2, 41520, Note_on_c, 0, 72, 87
2, 41550, Note_on_c, 0, 72, 0
2, 41550, Note_on_c, 0, 74, 88
2, 41580, Note_on_c, 0, 74, 0
2, 41580, Note_on_c, 0, 75, 88
2, 41610, Note_on_c, 0, 75, 0
2, 41610, Note_on_c, 0, 77, 89
2, 41640, Note_on_c, 0, 77, 0
2, 41640, Note_on_c, 0, 78, 90
2, 41700, Note_on_c, 0, 78, 0
2, 41700, Note_on_c, 0, 70, 90
2, 41760, Note_on_c, 0, 70, 0
2, 41760, Note_on_c, 0, 82, 100
2, 41940, Note_on_c, 0, 82, 0
2, 41940, Note_on_c, 0, 83, 100
2, 41970, Note_on_c, 0, 83, 0
2, 41970, Note_on_c, 0, 82, 100
2, 42000, Note_on_c, 0, 82, 0
2, 42000, Note_on_c, 0, 80, 100
2, 42175, Note_on_c, 0, 80, 0
2, 42180, Note_on_c, 0, 68, 95
2, 42240, Note_on_c, 0, 68, 0
2, 42240, Note_on_c, 0, 80, 93
2, 42415, Note_on_c, 0, 80, 0
2, 42420, Note_on_c, 0, 82, 88
2, 42450, Note_on_c, 0, 82, 0
2, 42450, Note_on_c, 0, 80, 87
2, 42480, Note_on_c, 0, 80, 0
2, 42480, Note_on_c, 0, 78, 86
2, 42655, Note_on_c, 0, 78, 0
2, 42660, Note_on_c, 0, 66, 80
2, 42720, Note_on_c, 0, 66, 0
2, 42720, Note_on_c, 0, 78, 79
2, 42900, Note_on_c, 0, 78, 0
2, 42900, Note_on_c, 0, 80, 73
2, 42930, Note_on_c, 0, 80, 0
2, 42930, Note_on_c, 0, 78, 72
2, 42960, Note_on_c, 0, 78, 0
2, 42960, Note_on_c, 0, 77, 71
2, 43135, Note_on_c, 0, 77, 0
2, 43140, Note_on_c, 0, 65, 66
2, 43200, Note_on_c, 0, 65, 0
2, 43200, Note_on_c, 0, 77, 60
2, 43375, Note_on_c, 0, 77, 0
2, 43380, Note_on_c, 0, 75, 70
2, 43440, Note_on_c, 0, 75, 0
2, 43440, Note_on_c, 0, 75, 73
2, 43455, Note_on_c, 0, 75, 0
2, 43455, Note_on_c, 0, 74, 74
2, 43470, Note_on_c, 0, 74, 0
2, 43470, Note_on_c, 0, 75, 75
2, 43485, Note_on_c, 0, 75, 0
2, 43485, Note_on_c, 0, 74, 75
2, 43500, Note_on_c, 0, 74, 0
2, 43500, Note_on_c, 0, 75, 76
2, 43515, Note_on_c, 0, 75, 0
2, 43515, Note_on_c, 0, 74, 77
2, 43530, Note_on_c, 0, 74, 0
2, 43530, Note_on_c, 0, 72, 78
2, 43545, Note_on_c, 0, 72, 0
2, 43545, Note_on_c, 0, 74, 79
2, 43560, Note_on_c, 0, 74, 0
2, 43560, Note_on_c, 0, 72, 80
2, 43680, Note_on_c, 0, 72, 0
2, 44040, Note_on_c, 0, 67, 100
2, 44130, Note_on_c, 0, 67, 0
2, 44160, Note_on_c, 0, 67, 100
2, 44250, Note_on_c, 0, 67, 0
2, 44280, Note_on_c, 0, 74, 100
2, 44370, Note_on_c, 0, 74, 0
2, 44400, Note_on_c, 0, 72, 100
2, 44430, Note_on_c, 0, 72, 0
2, 44430, Note_on_c, 0, 70, 100
2, 44460, Note_on_c, 0, 70, 0
2, 44460, Note_on_c, 0, 69, 100
2, 44490, Note_on_c, 0, 69, 0
2, 44490, Note_on_c, 0, 67, 100
2, 44520, Note_on_c, 0, 67, 0
2, 44520, Note_on_c, 0, 66, 100
2, 44610, Note_on_c, 0, 66, 0
2, 44640, Note_on_c, 0, 66, 100
2, 44730, Note_on_c, 0, 66, 0
2, 44760, Note_on_c, 0, 75, 100
2, 44850, Note_on_c, 0, 75, 0
2, 44940, Note_on_c, 0, 66, 85
2, 45000, Note_on_c, 0, 66, 0
2, 45000, Note_on_c, 0, 69, 85
2, 45060, Note_on_c, 0, 69, 0
2, 45060, Note_on_c, 0, 67, 85
2, 45120, Note_on_c, 0, 67, 0
2, 45180, Note_on_c, 0, 69, 86
2, 45240, Note_on_c, 0, 69, 0
2, 45240, Note_on_c, 0, 72, 86
2, 45300, Note_on_c, 0, 72, 0
2, 45300, Note_on_c, 0, 70, 87
2, 45360, Note_on_c, 0, 70, 0
2, 45360, Note_on_c, 0, 72, 87
2, 45420, Note_on_c, 0, 72, 0
2, 45420, Note_on_c, 0, 71, 88
2, 45480, Note_on_c, 0, 71, 0
2, 45480, Note_on_c, 0, 74, 88
2, 45540, Note_on_c, 0, 74, 0
2, 45540, Note_on_c, 0, 72, 89
2, 45600, Note_on_c, 0, 72, 0
2, 45660, Note_on_c, 0, 74, 89
2, 45720, Note_on_c, 0, 74, 0
2, 45720, Note_on_c, 0, 77, 90
2, 45780, Note_on_c, 0, 77, 0
2, 45780, Note_on_c, 0, 75, 90
2, 45840, Note_on_c, 0, 75, 0
2, 45840, Note_on_c, 0, 77, 91
2, 45900, Note_on_c, 0, 77, 0
2, 45900, Note_on_c, 0, 76, 91
2, 45960, Note_on_c, 0, 76, 0
2, 45960, Note_on_c, 0, 79, 92
2, 46020, Note_on_c, 0, 79, 0
2, 46020, Note_on_c, 0, 77, 92
2, 46080, Note_on_c, 0, 77, 0
2, 46080, Note_on_c, 0, 80, 93
2, 46140, Note_on_c, 0, 80, 0
2, 46140, Note_on_c, 0, 79, 93
2, 46200, Note_on_c, 0, 79, 0
2, 46200, Note_on_c, 0, 82, 93
2, 46260, Note_on_c, 0, 82, 0
2, 46260, Note_on_c, 0, 80, 94
2, 46320, Note_on_c, 0, 80, 0
2, 46500, Note_on_c, 0, 82, 96
2, 46545, Note_on_c, 0, 82, 0
2, 46560, Note_on_c, 0, 82, 96
2, 46605, Note_on_c, 0, 82, 0
2, 46620, Note_on_c, 0, 82, 97
2, 46665, Note_on_c, 0, 82, 0
2, 46680, Note_on_c, 0, 84, 97
2, 46695, Note_on_c, 0, 84, 0
2, 46695, Note_on_c, 0, 82, 97
2, 46710, Note_on_c, 0, 82, 0
2, 46710, Note_on_c, 0, 84, 97
2, 46725, Note_on_c, 0, 84, 0
2, 46725, Note_on_c, 0, 82, 97
2, 46740, Note_on_c, 0, 82, 0
2, 46740, Note_on_c, 0, 84, 97
2, 46755, Note_on_c, 0, 84, 0
2, 46755, Note_on_c, 0, 82, 98
2, 46770, Note_on_c, 0, 82, 0
2, 46770, Note_on_c, 0, 84, 98
2, 46785, Note_on_c, 0, 84, 0
2, 46785, Note_on_c, 0, 82, 98
2, 46800, Note_on_c, 0, 82, 0
2, 46800, Note_on_c, 0, 84, 98
2, 46815, Note_on_c, 0, 84, 0
2, 46815, Note_on_c, 0, 82, 98
2, 46830, Note_on_c, 0, 82, 0
2, 46830, Note_on_c, 0, 84, 98
2, 46845, Note_on_c, 0, 84, 0
2, 46845, Note_on_c, 0, 82, 98
2, 46860, Note_on_c, 0, 82, 0
2, 46860, Note_on_c, 0, 80, 98
2, 46890, Note_on_c, 0, 80, 0
2, 46890, Note_on_c, 0, 82, 99
2, 46920, Note_on_c, 0, 82, 0
2, 46920, Note_on_c, 0, 79, 99
2, 47040, Note_on_c, 0, 79, 0
2, 47400, Note_on_c, 0, 84, 102
2, 47490, Note_on_c, 0, 84, 0
2, 47520, Note_on_c, 0, 84, 103
2, 47610, Note_on_c, 0, 84, 0
2, 47640, Note_on_c, 0, 77, 104
2, 47700, Note_on_c, 0, 77, 0
2, 47730, Note_on_c, 0, 79, 105
2, 47760, Note_on_c, 0, 79, 0
2, 47760, Note_on_c, 0, 81, 105
2, 47790, Note_on_c, 0, 81, 0
2, 47790, Note_on_c, 0, 82, 105
2, 47820, Note_on_c, 0, 82, 0
2, 47820, Note_on_c, 0, 84, 105
2, 47850, Note_on_c, 0, 84, 0
2, 47850, Note_on_c, 0, 86, 106
2, 47880, Note_on_c, 0, 86, 0
2, 47880, Note_on_c, 0, 87, 106
2, 47970, Note_on_c, 0, 87, 0
2, 48000, Note_on_c, 0, 87, 107
2, 48090, Note_on_c, 0, 87, 0
2, 48120, Note_on_c, 0, 78, 108
2, 48210, Note_on_c, 0, 78, 0
2, 48360, Note_on_c, 0, 81, 110
2, 48450, Note_on_c, 0, 81, 0
2, 48450, Note_on_c, 0, 79, 110
2, 48480, Note_on_c, 0, 79, 0
2, 48480, Note_on_c, 0, 78, 110
2, 48510, Note_on_c, 0, 78, 0
2, 48510, Note_on_c, 0, 75, 110
2, 48540, Note_on_c, 0, 75, 0
2, 48540, Note_on_c, 0, 74, 109
2, 48570, Note_on_c, 0, 74, 0
2, 48570, Note_on_c, 0, 72, 109
2, 48600, Note_on_c, 0, 72, 0
2, 48600, Note_on_c, 0, 71, 109
2, 48720, Note_on_c, 0, 71, 0
2, 49080, Note_on_c, 0, 71, 103
2, 49110, Note_on_c, 0, 71, 0
2, 49110, Note_on_c, 0, 72, 103
2, 49140, Note_on_c, 0, 72, 0
2, 49140, Note_on_c, 0, 74, 103
2, 49170, Note_on_c, 0, 74, 0
2, 49170, Note_on_c, 0, 75, 102
2, 49200, Note_on_c, 0, 75, 0
2, 49200, Note_on_c, 0, 77, 102
2, 49230, Note_on_c, 0, 77, 0
2, 49230, Note_on_c, 0, 79, 102
2, 49260, Note_on_c, 0, 79, 0
2, 49260, Note_on_c, 0, 81, 101
2, 49290, Note_on_c, 0, 81, 0
2, 49290, Note_on_c, 0, 83, 101
2, 49320, Note_on_c, 0, 83, 0
2, 49320, Note_on_c, 0, 84, 100
2, 49440, Note_on_c, 0, 84, 0
2, 49860, Note_on_c, 0, 84, 100
2, 49905, Note_on_c, 0, 84, 0
2, 49920, Note_on_c, 0, 84, 100
2, 49965, Note_on_c, 0, 84, 0
2, 49980, Note_on_c, 0, 84, 100
2, 50025, Note_on_c, 0, 84, 0
2, 50040, Note_on_c, 0, 86, 100
2, 50055, Note_on_c, 0, 86, 0
2, 50055, Note_on_c, 0, 84, 100
2, 50070, Note_on_c, 0, 84, 0
2, 50070, Note_on_c, 0, 86, 100
2, 50085, Note_on_c, 0, 86, 0
2, 50085, Note_on_c, 0, 84, 100
2, 50100, Note_on_c, 0, 84, 0
2, 50100, Note_on_c, 0, 86, 100
2, 50115, Note_on_c, 0, 86, 0
2, 50115, Note_on_c, 0, 84, 100
2, 50130, Note_on_c, 0, 84, 0
2, 50130, Note_on_c, 0, 86, 100
2, 50145, Note_on_c, 0, 86, 0
2, 50145, Note_on_c, 0, 84, 100
2, 50160, Note_on_c, 0, 84, 0
2, 50160, Note_on_c, 0, 86, 100
2, 50175, Note_on_c, 0, 86, 0
2, 50175, Note_on_c, 0, 84, 100
2, 50190, Note_on_c, 0, 84, 0
2, 50190, Note_on_c, 0, 86, 100
2, 50205, Note_on_c, 0, 86, 0
2, 50205, Note_on_c, 0, 84, 100
2, 50220, Note_on_c, 0, 84, 0
2, 50220, Note_on_c, 0, 83, 100
2, 50250, Note_on_c, 0, 83, 0
2, 50250, Note_on_c, 0, 84, 100
2, 50280, Note_on_c, 0, 84, 0
2, 50280, Note_on_c, 0, 72, 100
2, 50370, Note_on_c, 0, 72, 0
2, 50940, Note_on_c, 0, 80, 87
2, 51000, Note_on_c, 0, 80, 0
2, 51000, Note_on_c, 0, 78, 88
2, 51060, Note_on_c, 0, 78, 0
2, 51060, Note_on_c, 0, 79, 88
2, 51120, Note_on_c, 0, 79, 0
2, 51120, Note_on_c, 0, 76, 89
2, 51180, Note_on_c, 0, 76, 0
2, 51180, Note_on_c, 0, 77, 90
2, 51235, Note_on_c, 0, 77, 0
2, 51240, Note_on_c, 0, 74, 91
2, 51300, Note_on_c, 0, 74, 0
2, 51300, Note_on_c, 0, 75, 92
2, 51360, Note_on_c, 0, 75, 0
2, 51420, Note_on_c, 0, 73, 94
2, 51480, Note_on_c, 0, 73, 0
2, 51480, Note_on_c, 0, 71, 95
2, 51540, Note_on_c, 0, 71, 0
2, 51540, Note_on_c, 0, 72, 96
2, 51600, Note_on_c, 0, 72, 0
2, 51600, Note_on_c, 0, 69, 96
2, 51660, Note_on_c, 0, 69, 0
2, 51660, Note_on_c, 0, 70, 97
2, 51715, Note_on_c, 0, 70, 0
2, 51720, Note_on_c, 0, 68, 98
2, 51780, Note_on_c, 0, 68, 0
2, 51780, Note_on_c, 0, 69, 99
2, 51840, Note_on_c, 0, 69, 0
2, 51900, Note_on_c, 0, 75, 101
2, 51960, Note_on_c, 0, 75, 0
2, 51960, Note_on_c, 0, 73, 102
2, 52020, Note_on_c, 0, 73, 0
2, 52020, Note_on_c, 0, 74, 103
2, 52080, Note_on_c, 0, 74, 0
2, 52080, Note_on_c, 0, 71, 104
2, 52140, Note_on_c, 0, 71, 0
2, 52140, Note_on_c, 0, 72, 104
2, 52195, Note_on_c, 0, 72, 0
2, 52200, Note_on_c, 0, 70, 105
2, 52260, Note_on_c, 0, 70, 0
2, 52260, Note_on_c, 0, 71, 106
2, 52320, Note_on_c, 0, 71, 0
2, 52740, Note_on_c, 0, 72, 113
2, 52800, Note_on_c, 0, 72, 0
2, 52800, Note_on_c, 0, 74, 114
2, 52860, Note_on_c, 0, 74, 0
2, 52860, Note_on_c, 0, 76, 115
2, 52915, Note_on_c, 0, 76, 0
2, 52920, Note_on_c, 0, 79, 116
2, 52935, Note_on_c, 0, 79, 0
2, 52935, Note_on_c, 0, 77, 116
2, 52950, Note_on_c, 0, 77, 0
2, 52950, Note_on_c, 0, 79, 116
2, 52965, Note_on_c, 0, 79, 0
2, 52965, Note_on_c, 0, 77, 117
2, 52980, Note_on_c, 0, 77, 0
2, 52980, Note_on_c, 0, 79, 117
2, 52995, Note_on_c, 0, 79, 0
2, 52995, Note_on_c, 0, 77, 117
2, 53010, Note_on_c, 0, 77, 0
2, 53010, Note_on_c, 0, 76, 117
2, 53025, Note_on_c, 0, 76, 0
2, 53025, Note_on_c, 0, 77, 118
2, 53035, Note_on_c, 0, 77, 0
2, 53040, Note_on_c, 0, 79, 118
2, 53055, Note_on_c, 0, 79, 0
2, 53055, Note_on_c, 0, 78, 118
2, 53070, Note_on_c, 0, 78, 0
2, 53070, Note_on_c, 0, 79, 118
2, 53085, Note_on_c, 0, 79, 0
2, 53085, Note_on_c, 0, 78, 118
2, 53100, Note_on_c, 0, 78, 0
2, 53100, Note_on_c, 0, 79, 119
2, 53115, Note_on_c, 0, 79, 0
2, 53115, Note_on_c, 0, 78, 119
2, 53130, Note_on_c, 0, 78, 0
2, 53130, Note_on_c, 0, 76, 119
2, 53145, Note_on_c, 0, 76, 0
2, 53145, Note_on_c, 0, 77, 119
2, 53155, Note_on_c, 0, 77, 0
2, 53160, Note_on_c, 0, 79, 120
2, 53280, Note_on_c, 0, 79, 0
2, 53640, Note_on_c, 0, 79, 120
2, 53730, Note_on_c, 0, 79, 0
2, 53760, Note_on_c, 0, 79, 120
2, 53850, Note_on_c, 0, 79, 0
2, 53880, Note_on_c, 0, 72, 120
2, 53970, Note_on_c, 0, 72, 0
2, 54000, Note_on_c, 0, 74, 120
2, 54030, Note_on_c, 0, 74, 0
2, 54030, Note_on_c, 0, 75, 120
2, 54060, Note_on_c, 0, 75, 0
2, 54060, Note_on_c, 0, 77, 120
2, 54090, Note_on_c, 0, 77, 0
2, 54090, Note_on_c, 0, 79, 120
2, 54120, Note_on_c, 0, 79, 0
2, 54120, Note_on_c, 0, 80, 120
2, 54210, Note_on_c, 0, 80, 0
2, 54240, Note_on_c, 0, 80, 120
2, 54330, Note_on_c, 0, 80, 0
2, 54360, Note_on_c, 0, 71, 120
2, 54450, Note_on_c, 0, 71, 0
2, 54540, Note_on_c, 0, 80, 120
2, 54600, Note_on_c, 0, 80, 0
2, 54600, Note_on_c, 0, 78, 120
2, 54660, Note_on_c, 0, 78, 0
2, 54660, Note_on_c, 0, 79, 120
2, 54720, Note_on_c, 0, 79, 0
2, 54780, Note_on_c, 0, 77, 120
2, 54840, Note_on_c, 0, 77, 0
2, 54840, Note_on_c, 0, 74, 118
2, 54900, Note_on_c, 0, 74, 0
2, 54900, Note_on_c, 0, 75, 116
2, 54960, Note_on_c, 0, 75, 0
2, 54960, Note_on_c, 0, 73, 114
2, 55020, Note_on_c, 0, 73, 0
2, 55020, Note_on_c, 0, 74, 111
2, 55075, Note_on_c, 0, 74, 0
2, 55080, Note_on_c, 0, 71, 109
2, 55140, Note_on_c, 0, 71, 0
2, 55140, Note_on_c, 0, 72, 107
2, 55200, Note_on_c, 0, 72, 0
2, 55200, Note_on_c, 0, 72, 104
2, 55380, Note_on_c, 0, 72, 0
2, 55380, Note_on_c, 0, 73, 97
2, 55440, Note_on_c, 0, 73, 0
2, 55440, Note_on_c, 0, 72, 95
2, 55500, Note_on_c, 0, 72, 0
2, 55500, Note_on_c, 0, 70, 93
2, 55555, Note_on_c, 0, 70, 0
2, 55560, Note_on_c, 0, 68, 90
2, 55675, Note_on_c, 0, 68, 0
2, 55680, Note_on_c, 0, 80, 90
2, 55860, Note_on_c, 0, 80, 0
2, 55860, Note_on_c, 0, 79, 92
2, 55890, Note_on_c, 0, 79, 0
2, 55890, Note_on_c, 0, 77, 92
2, 55920, Note_on_c, 0, 77, 0
2, 55920, Note_on_c, 0, 76, 92
2, 55950, Note_on_c, 0, 76, 0
2, 55950, Note_on_c, 0, 77, 93
2, 55980, Note_on_c, 0, 77, 0
2, 55980, Note_on_c, 0, 79, 93
2, 56010, Note_on_c, 0, 79, 0
2, 56010, Note_on_c, 0, 80, 93
2, 56040, Note_on_c, 0, 80, 0
2, 56040, Note_on_c, 0, 82, 94
2, 56095, Note_on_c, 0, 82, 0
2, 56100, Note_on_c, 0, 82, 94
2, 56145, Note_on_c, 0, 82, 0
2, 56160, Note_on_c, 0, 82, 95
2, 56205, Note_on_c, 0, 82, 0
2, 56220, Note_on_c, 0, 82, 96
2, 56265, Note_on_c, 0, 82, 0
2, 56280, Note_on_c, 0, 84, 96
2, 56295, Note_on_c, 0, 84, 0
2, 56295, Note_on_c, 0, 82, 97
2, 56310, Note_on_c, 0, 82, 0
2, 56310, Note_on_c, 0, 84, 97
2, 56325, Note_on_c, 0, 84, 0
2, 56325, Note_on_c, 0, 82, 97
2, 56340, Note_on_c, 0, 82, 0
2, 56340, Note_on_c, 0, 84, 97
2, 56355, Note_on_c, 0, 84, 0
2, 56355, Note_on_c, 0, 82, 97
2, 56370, Note_on_c, 0, 82, 0
2, 56370, Note_on_c, 0, 84, 98
2, 56385, Note_on_c, 0, 84, 0
2, 56385, Note_on_c, 0, 82, 98
2, 56400, Note_on_c, 0, 82, 0
2, 56400, Note_on_c, 0, 84, 98
2, 56415, Note_on_c, 0, 84, 0
2, 56415, Note_on_c, 0, 82, 98
2, 56430, Note_on_c, 0, 82, 0
2, 56430, Note_on_c, 0, 84, 98
2, 56445, Note_on_c, 0, 84, 0
2, 56445, Note_on_c, 0, 82, 98
2, 56460, Note_on_c, 0, 82, 0
2, 56460, Note_on_c, 0, 80, 99
2, 56490, Note_on_c, 0, 80, 0
2, 56490, Note_on_c, 0, 82, 99
2, 56520, Note_on_c, 0, 82, 0
2, 56520, Note_on_c, 0, 84, 99
2, 56610, Note_on_c, 0, 84, 0
2, 56640, Note_on_c, 0, 84, 101
2, 56730, Note_on_c, 0, 84, 0
2, 56760, Note_on_c, 0, 77, 102
2, 56850, Note_on_c, 0, 77, 0
2, 56880, Note_on_c, 0, 79, 103
2, 56910, Note_on_c, 0, 79, 0
2, 56910, Note_on_c, 0, 80, 104
2, 56940, Note_on_c, 0, 80, 0
2, 56940, Note_on_c, 0, 82, 104
2, 56970, Note_on_c, 0, 82, 0
2, 56970, Note_on_c, 0, 84, 105
2, 57000, Note_on_c, 0, 84, 0
2, 57000, Note_on_c, 0, 85, 105
2, 57090, Note_on_c, 0, 85, 0
2, 57120, Note_on_c, 0, 85, 106
2, 57210, Note_on_c, 0, 85, 0
2, 57240, Note_on_c, 0, 75, 108
2, 57330, Note_on_c, 0, 75, 0
2, 57420, Note_on_c, 0, 85, 110
2, 57480, Note_on_c, 0, 85, 0
2, 57480, Note_on_c, 0, 83, 110
2, 57540, Note_on_c, 0, 83, 0
2, 57540, Note_on_c, 0, 84, 111
2, 57600, Note_on_c, 0, 84, 0
2, 57660, Note_on_c, 0, 87, 113
2, 57720, Note_on_c, 0, 87, 0
2, 57720, Note_on_c, 0, 85, 113
2, 57780, Note_on_c, 0, 85, 0
2, 57780, Note_on_c, 0, 86, 114
2, 57840, Note_on_c, 0, 86, 0
2, 57900, Note_on_c, 0, 89, 115
2, 57960, Note_on_c, 0, 89, 0
2, 57960, Note_on_c, 0, 86, 116
2, 58020, Note_on_c, 0, 86, 0
2, 58020, Note_on_c, 0, 87, 117
2, 58080, Note_on_c, 0, 87, 0
2, 58140, Note_on_c, 0, 82, 118
2, 58200, Note_on_c, 0, 82, 0
2, 58200, Note_on_c, 0, 70, 119
2, 58260, Note_on_c, 0, 70, 0
2, 58260, Note_on_c, 0, 69, 120
2, 58320, Note_on_c, 0, 69, 0
2, 59640, Note_on_c, 0, 79, 100
2, 59730, Note_on_c, 0, 79, 0
2, 59760, Note_on_c, 0, 79, 102
2, 59850, Note_on_c, 0, 79, 0
2, 59880, Note_on_c, 0, 86, 105
2, 59970, Note_on_c, 0, 86, 0
2, 60000, Note_on_c, 0, 84, 105
2, 60030, Note_on_c, 0, 84, 0
2, 60030, Note_on_c, 0, 82, 105
2, 60060, Note_on_c, 0, 82, 0
2, 60060, Note_on_c, 0, 81, 105
2, 60090, Note_on_c, 0, 81, 0
2, 60090, Note_on_c, 0, 79, 105
2, 60120, Note_on_c, 0, 79, 0
2, 60120, Note_on_c, 0, 78, 105
2, 60210, Note_on_c, 0, 78, 0
2, 60240, Note_on_c, 0, 78, 105
2, 60330, Note_on_c, 0, 78, 0
2, 60360, Note_on_c, 0, 87, 105
2, 60450, Note_on_c, 0, 87, 0
2, 60540, Note_on_c, 0, 78, 105
2, 60600, Note_on_c, 0, 78, 0
2, 60600, Note_on_c, 0, 81, 105
2, 60660, Note_on_c, 0, 81, 0
2, 60660, Note_on_c, 0, 79, 105
2, 60720, Note_on_c, 0, 79, 0
2, 60780, Note_on_c, 0, 79, 105
2, 60900, Note_on_c, 0, 79, 0
2, 60900, Note_on_c, 0, 80, 105
2, 60960, Note_on_c, 0, 80, 0
2, 61020, Note_on_c, 0, 77, 105
2, 61080, Note_on_c, 0, 77, 0
2, 61080, Note_on_c, 0, 72, 105
2, 61140, Note_on_c, 0, 72, 0
2, 61140, Note_on_c, 0, 71, 105
2, 61200, Note_on_c, 0, 71, 0
2, 61260, Note_on_c, 0, 74, 105
2, 61320, Note_on_c, 0, 74, 0
2, 61320, Note_on_c, 0, 71, 105
2, 61380, Note_on_c, 0, 71, 0
2, 61380, Note_on_c, 0, 72, 105
2, 61440, Note_on_c, 0, 72, 0
2, 61440, Note_on_c, 0, 75, 105
2, 61500, Note_on_c, 0, 75, 0
2, 61500, Note_on_c, 0, 74, 105
2, 61560, Note_on_c, 0, 74, 0
2, 61620, Note_on_c, 0, 75, 105
2, 61680, Note_on_c, 0, 75, 0
2, 61680, Note_on_c, 0, 79, 105
2, 61740, Note_on_c, 0, 79, 0
2, 61740, Note_on_c, 0, 77, 105
2, 61800, Note_on_c, 0, 77, 0
2, 61860, Note_on_c, 0, 77, 105
2, 61920, Note_on_c, 0, 77, 0
2, 61920, Note_on_c, 0, 80, 105
2, 61980, Note_on_c, 0, 80, 0
2, 61980, Note_on_c, 0, 79, 105
2, 62095, Note_on_c, 0, 79, 0
2, 62100, Note_on_c, 0, 77, 95
2, 62120, Note_on_c, 0, 77, 0
2, 62130, Note_on_c, 0, 75, 93
2, 62150, Note_on_c, 0, 75, 0
2, 62160, Note_on_c, 0, 74, 90
2, 62205, Note_on_c, 0, 74, 0
2, 62220, Note_on_c, 0, 72, 85
2, 62265, Note_on_c, 0, 72, 0
2, 62280, Note_on_c, 0, 71, 80
2, 62400, Note_on_c, 0, 71, 0
2, 63000, Note_on_c, 0, 74, 100
2, 63090, Note_on_c, 0, 74, 0
2, 63120, Note_on_c, 0, 74, 100
2, 63210, Note_on_c, 0, 74, 0
2, 63240, Note_on_c, 0, 67, 100
2, 63330, Note_on_c, 0, 67, 0
2, 63360, Note_on_c, 0, 69, 100
2, 63390, Note_on_c, 0, 69, 0
2, 63390, Note_on_c, 0, 71, 100
2, 63420, Note_on_c, 0, 71, 0
2, 63420, Note_on_c, 0, 72, 100
2, 63450, Note_on_c, 0, 72, 0
2, 63450, Note_on_c, 0, 74, 100
2, 63480, Note_on_c, 0, 74, 0
2, 63480, Note_on_c, 0, 75, 100
2, 63570, Note_on_c, 0, 75, 0
2, 63600, Note_on_c, 0, 75, 100
2, 63690, Note_on_c, 0, 75, 0
2, 63720, Note_on_c, 0, 66, 100
2, 63810, Note_on_c, 0, 66, 0
2, 63900, Note_on_c, 0, 75, 100
2, 63960, Note_on_c, 0, 75, 0
2, 63960, Note_on_c, 0, 73, 100
2, 64020, Note_on_c, 0, 73, 0
2, 64020, Note_on_c, 0, 74, 100
2, 64080, Note_on_c, 0, 74, 0
2, 64080, Note_on_c, 0, 71, 100
2, 64140, Note_on_c, 0, 71, 0
2, 64140, Note_on_c, 0, 72, 100
2, 64200, Note_on_c, 0, 72, 0
2, 64200, Note_on_c, 0, 69, 100
2, 64260, Note_on_c, 0, 69, 0
2, 64260, Note_on_c, 0, 71, 100
2, 64320, Note_on_c, 0, 71, 0
2, 64380, Note_on_c, 0, 80, 100
2, 64440, Note_on_c, 0, 80, 0
2, 64440, Note_on_c, 0, 78, 100
2, 64500, Note_on_c, 0, 78, 0
2, 64500, Note_on_c, 0, 79, 100
2, 64560, Note_on_c, 0, 79, 0
2, 64560, Note_on_c, 0, 76, 100
2, 64620, Note_on_c, 0, 76, 0
2, 64620, Note_on_c, 0, 77, 100
2, 64680, Note_on_c, 0, 77, 0
2, 64680, Note_on_c, 0, 74, 100
2, 64740, Note_on_c, 0, 74, 0
2, 64740, Note_on_c, 0, 75, 100
2, 64800, Note_on_c, 0, 75, 0
2, 65400, Note_on_c, 0, 65, 100
2, 65490, Note_on_c, 0, 65, 0
2, 65520, Note_on_c, 0, 65, 100
2, 65610, Note_on_c, 0, 65, 0
2, 65640, Note_on_c, 0, 72, 100
2, 65730, Note_on_c, 0, 72, 0
2, 65760, Note_on_c, 0, 70, 100
2, 65790, Note_on_c, 0, 70, 0
2, 65790, Note_on_c, 0, 68, 100
2, 65820, Note_on_c, 0, 68, 0
2, 65820, Note_on_c, 0, 67, 100
2, 65850, Note_on_c, 0, 67, 0
2, 65850, Note_on_c, 0, 65, 100
2, 65880, Note_on_c, 0, 65, 0
2, 65880, Note_on_c, 0, 64, 100
2, 65970, Note_on_c, 0, 64, 0
2, 66000, Note_on_c, 0, 64, 100
2, 66090, Note_on_c, 0, 64, 0
2, 66120, Note_on_c, 0, 73, 100
2, 66210, Note_on_c, 0, 73, 0
2, 66420, Note_on_c, 0, 70, 100
2, 66440, Note_on_c, 0, 70, 0
2, 66450, Note_on_c, 0, 72, 100
2, 66470, Note_on_c, 0, 72, 0
2, 66480, Note_on_c, 0, 73, 100
2, 66500, Note_on_c, 0, 73, 0
2, 66510, Note_on_c, 0, 72, 100
2, 66530, Note_on_c, 0, 72, 0
2, 66540, Note_on_c, 0, 70, 100
2, 66560, Note_on_c, 0, 70, 0
2, 66570, Note_on_c, 0, 68, 100
2, 66590, Note_on_c, 0, 68, 0
2, 66600, Note_on_c, 0, 67, 100
2, 66645, Note_on_c, 0, 67, 0
2, 66660, Note_on_c, 0, 67, 100
2, 66680, Note_on_c, 0, 67, 0
2, 66690, Note_on_c, 0, 68, 100
2, 66710, Note_on_c, 0, 68, 0
2, 66720, Note_on_c, 0, 70, 100
2, 66740, Note_on_c, 0, 70, 0
2, 66750, Note_on_c, 0, 68, 100
2, 66770, Note_on_c, 0, 68, 0
2, 66780, Note_on_c, 0, 67, 100
2, 66800, Note_on_c, 0, 67, 0
2, 66810, Note_on_c, 0, 65, 100
2, 66830, Note_on_c, 0, 65, 0
2, 66840, Note_on_c, 0, 64, 100
2, 66885, Note_on_c, 0, 64, 0
2, 66900, Note_on_c, 0, 76, 100
2, 66945, Note_on_c, 0, 76, 0
2, 66960, Note_on_c, 0, 76, 100
2, 67005, Note_on_c, 0, 76, 0
2, 67020, Note_on_c, 0, 76, 100
2, 67065, Note_on_c, 0, 76, 0
2, 67380, Note_on_c, 0, 69, 100
2, 67440, Note_on_c, 0, 69, 0
2, 67440, Note_on_c, 0, 72, 100
2, 67500, Note_on_c, 0, 72, 0
2, 67500, Note_on_c, 0, 69, 100
2, 67560, Note_on_c, 0, 69, 0
2, 67620, Note_on_c, 0, 74, 100
2, 67640, Note_on_c, 0, 74, 0
2, 67650, Note_on_c, 0, 75, 100
2, 67670, Note_on_c, 0, 75, 0
2, 67680, Note_on_c, 0, 77, 100
2, 67700, Note_on_c, 0, 77, 0
2, 67710, Note_on_c, 0, 75, 100
2, 67730, Note_on_c, 0, 75, 0
2, 67740, Note_on_c, 0, 74, 100
2, 67760, Note_on_c, 0, 74, 0
2, 67770, Note_on_c, 0, 72, 100
2, 67790, Note_on_c, 0, 72, 0
2, 67800, Note_on_c, 0, 71, 100
2, 67845, Note_on_c, 0, 71, 0
2, 67860, Note_on_c, 0, 83, 100
2, 67920, Note_on_c, 0, 83, 0
2, 67920, Note_on_c, 0, 86, 100
2, 67980, Note_on_c, 0, 86, 0
2, 67980, Note_on_c, 0, 83, 100
2, 68035, Note_on_c, 0, 83, 0
2, 68520, Note_on_c, 0, 77, 100
2, 68610, Note_on_c, 0, 77, 0
2, 68640, Note_on_c, 0, 77, 100
2, 68730, Note_on_c, 0, 77, 0
2, 68760, Note_on_c, 0, 71, 100
2, 68850, Note_on_c, 0, 71, 0
2, 68880, Note_on_c, 0, 72, 100
2, 68910, Note_on_c, 0, 72, 0
2, 68910, Note_on_c, 0, 74, 100
2, 68940, Note_on_c, 0, 74, 0
2, 68940, Note_on_c, 0, 75, 100
2, 68970, Note_on_c, 0, 75, 0
2, 68970, Note_on_c, 0, 77, 100
2, 69000, Note_on_c, 0, 77, 0
2, 69000, Note_on_c, 0, 79, 100
2, 69045, Note_on_c, 0, 79, 0
2, 69060, Note_on_c, 0, 67, 100
2, 69105, Note_on_c, 0, 67, 0
2, 69120, Note_on_c, 0, 79, 100
2, 69300, Note_on_c, 0, 79, 0
2, 69300, Note_on_c, 0, 78, 100
2, 69420, Note_on_c, 0, 78, 0
2, 69420, Note_on_c, 0, 77, 100
2, 69480, Note_on_c, 0, 77, 0
2, 69480, Note_on_c, 0, 86, 100
2, 69540, Note_on_c, 0, 86, 0
2, 69540, Note_on_c, 0, 77, 100
2, 69585, Note_on_c, 0, 77, 0
2, 69600, Note_on_c, 0, 76, 100
2, 69645, Note_on_c, 0, 76, 0
2, 69660, Note_on_c, 0, 84, 100
2, 69705, Note_on_c, 0, 84, 0
2, 69720, Note_on_c, 0, 75, 100
2, 69750, Note_on_c, 0, 75, 0
2, 69750, Note_on_c, 0, 84, 100
2, 69775, Note_on_c, 0, 84, 0
2, 69780, Note_on_c, 0, 84, 100
2, 69805, Note_on_c, 0, 84, 0
2, 69810, Note_on_c, 0, 84, 100
2, 69835, Note_on_c, 0, 84, 0
2, 69840, Note_on_c, 0, 74, 100
2, 69870, Note_on_c, 0, 74, 0
2, 69870, Note_on_c, 0, 83, 100
2, 69895, Note_on_c, 0, 83, 0
2, 69900, Note_on_c, 0, 83, 100
2, 69925, Note_on_c, 0, 83, 0
2, 69930, Note_on_c, 0, 83, 100
2, 69955, Note_on_c, 0, 83, 0
2, 69960, Note_on_c, 0, 79, 100
2, 69990, Note_on_c, 0, 79, 0
2, 69990, Note_on_c, 0, 87, 100
2, 70015, Note_on_c, 0, 87, 0
2, 70020, Note_on_c, 0, 87, 100
2, 70045, Note_on_c, 0, 87, 0
2, 70050, Note_on_c, 0, 87, 100
2, 70075, Note_on_c, 0, 87, 0
2, 70080, Note_on_c, 0, 79, 100
2, 70110, Note_on_c, 0, 79, 0
2, 70110, Note_on_c, 0, 87, 100
2, 70135, Note_on_c, 0, 87, 0
2, 70140, Note_on_c, 0, 87, 100
2, 70165, Note_on_c, 0, 87, 0
2, 70170, Note_on_c, 0, 87, 100
2, 70195, Note_on_c, 0, 87, 0
2, 70200, Note_on_c, 0, 78, 100
2, 70230, Note_on_c, 0, 78, 0
2, 70230, Note_on_c, 0, 87, 100
2, 70255, Note_on_c, 0, 87, 0
2, 70260, Note_on_c, 0, 87, 100
2, 70285, Note_on_c, 0, 87, 0
2, 70290, Note_on_c, 0, 87, 100
2, 70315, Note_on_c, 0, 87, 0
2, 70320, Note_on_c, 0, 78, 100
2, 70350, Note_on_c, 0, 78, 0
2, 70350, Note_on_c, 0, 87, 100
2, 70375, Note_on_c, 0, 87, 0
2, 70380, Note_on_c, 0, 87, 100
2, 70405, Note_on_c, 0, 87, 0
2, 70410, Note_on_c, 0, 87, 100
2, 70435, Note_on_c, 0, 87, 0
2, 70440, Note_on_c, 0, 77, 100
2, 70470, Note_on_c, 0, 77, 0
2, 70470, Note_on_c, 0, 86, 100
2, 70495, Note_on_c, 0, 86, 0
2, 70500, Note_on_c, 0, 86, 100
2, 70525, Note_on_c, 0, 86, 0
2, 70530, Note_on_c, 0, 86, 100
2, 70555, Note_on_c, 0, 86, 0
2, 70560, Note_on_c, 0, 77, 100
2, 70590, Note_on_c, 0, 77, 0
2, 70590, Note_on_c, 0, 86, 100
2, 70615, Note_on_c, 0, 86, 0
2, 70620, Note_on_c, 0, 86, 100
2, 70645, Note_on_c, 0, 86, 0
2, 70650, Note_on_c, 0, 86, 100
2, 70675, Note_on_c, 0, 86, 0
2, 70680, Note_on_c, 0, 75, 100
2, 70710, Note_on_c, 0, 75, 0
2, 70710, Note_on_c, 0, 86, 100
2, 70735, Note_on_c, 0, 86, 0
2, 70740, Note_on_c, 0, 75, 100
2, 70770, Note_on_c, 0, 75, 0
2, 70770, Note_on_c, 0, 84, 100
2, 70795, Note_on_c, 0, 84, 0
2, 70800, Note_on_c, 0, 74, 100
2, 70830, Note_on_c, 0, 74, 0
2, 70830, Note_on_c, 0, 84, 100
2, 70855, Note_on_c, 0, 84, 0
2, 70860, Note_on_c, 0, 74, 100
2, 70890, Note_on_c, 0, 74, 0
2, 70890, Note_on_c, 0, 83, 100
2, 70915, Note_on_c, 0, 83, 0
2, 70920, Note_on_c, 0, 72, 100
2, 70950, Note_on_c, 0, 72, 0
2, 70950, Note_on_c, 0, 84, 100
2, 70975, Note_on_c, 0, 84, 0
2, 70980, Note_on_c, 0, 84, 100
2, 71005, Note_on_c, 0, 84, 0
2, 71010, Note_on_c, 0, 84, 100
2, 71035, Note_on_c, 0, 84, 0
2, 71040, Note_on_c, 0, 72, 100
2, 71070, Note_on_c, 0, 72, 0
2, 71070, Note_on_c, 0, 80, 100
2, 71095, Note_on_c, 0, 80, 0
2, 71100, Note_on_c, 0, 80, 100
2, 71125, Note_on_c, 0, 80, 0
2, 71130, Note_on_c, 0, 80, 100
2, 71155, Note_on_c, 0, 80, 0
2, 71160, Note_on_c, 0, 67, 100
2, 71190, Note_on_c, 0, 67, 0
2, 71190, Note_on_c, 0, 75, 100
2, 71215, Note_on_c, 0, 75, 0
2, 71220, Note_on_c, 0, 75, 100
2, 71245, Note_on_c, 0, 75, 0
2, 71250, Note_on_c, 0, 75, 100
2, 71275, Note_on_c, 0, 75, 0
2, 71280, Note_on_c, 0, 67, 100
2, 71310, Note_on_c, 0, 67, 0
2, 71310, Note_on_c, 0, 74, 100
2, 71335, Note_on_c, 0, 74, 0
2, 71340, Note_on_c, 0, 74, 100
2, 71365, Note_on_c, 0, 74, 0
2, 71370, Note_on_c, 0, 74, 100
2, 71395, Note_on_c, 0, 74, 0
2, 71400, Note_on_c, 0, 72, 100
2, 71490, Note_on_c, 0, 72, 0
2, 71520, Note_on_c, 0, 72, 100
2, 71610, Note_on_c, 0, 72, 0
2, 71640, Note_on_c, 0, 79, 100
2, 71730, Note_on_c, 0, 79, 0
2, 71760, Note_on_c, 0, 77, 100
2, 71790, Note_on_c, 0, 77, 0
2, 71790, Note_on_c, 0, 75, 100
2, 71820, Note_on_c, 0, 75, 0
2, 71820, Note_on_c, 0, 74, 100
2, 71850, Note_on_c, 0, 74, 0
2, 71850, Note_on_c, 0, 72, 100
2, 71880, Note_on_c, 0, 72, 0
2, 71880, Note_on_c, 0, 71, 100
2, 71970, Note_on_c, 0, 71, 0
2, 72000, Note_on_c, 0, 71, 100
2, 72090, Note_on_c, 0, 71, 0
2, 72120, Note_on_c, 0, 80, 100
2, 72210, Note_on_c, 0, 80, 0
2, 72300, Note_on_c, 0, 71, 100
2, 72360, Note_on_c, 0, 71, 0
2, 72360, Note_on_c, 0, 74, 100
2, 72420, Note_on_c, 0, 74, 0
2, 72420, Note_on_c, 0, 72, 100
2, 72480, Note_on_c, 0, 72, 0
2, 72540, Note_on_c, 0, 74, 100
2, 72600, Note_on_c, 0, 74, 0
2, 72600, Note_on_c, 0, 77, 100
2, 72660, Note_on_c, 0, 77, 0
2, 72660, Note_on_c, 0, 75, 100
2, 72720, Note_on_c, 0, 75, 0
2, 72720, Note_on_c, 0, 77, 100
2, 72780, Note_on_c, 0, 77, 0
2, 72780, Note_on_c, 0, 76, 100
2, 72835, Note_on_c, 0, 76, 0
2, 72840, Note_on_c, 0, 79, 100
2, 72900, Note_on_c, 0, 79, 0
2, 72900, Note_on_c, 0, 77, 100
2, 72960, Note_on_c, 0, 77, 0
2, 72960, Note_on_c, 0, 79, 100
2, 73020, Note_on_c, 0, 79, 0
2, 73020, Note_on_c, 0, 78, 100
2, 73080, Note_on_c, 0, 78, 0
2, 73080, Note_on_c, 0, 80, 100
2, 73140, Note_on_c, 0, 80, 0
2, 73140, Note_on_c, 0, 79, 100
2, 73200, Note_on_c, 0, 79, 0
2, 73260, Note_on_c, 0, 71, 100
2, 73320, Note_on_c, 0, 71, 0
2, 73320, Note_on_c, 0, 74, 100
2, 73380, Note_on_c, 0, 74, 0
2, 73380, Note_on_c, 0, 72, 100
2, 73440, Note_on_c, 0, 72, 0
2, 73500, Note_on_c, 0, 74, 100
2, 73560, Note_on_c, 0, 74, 0
2, 73560, Note_on_c, 0, 77, 100
2, 73620, Note_on_c, 0, 77, 0
2, 73620, Note_on_c, 0, 75, 100
2, 73680, Note_on_c, 0, 75, 0
2, 73680, Note_on_c, 0, 77, 100
2, 73740, Note_on_c, 0, 77, 0
2, 73740, Note_on_c, 0, 76, 100
2, 73795, Note_on_c, 0, 76, 0
2, 73800, Note_on_c, 0, 79, 100
2, 73860, Note_on_c, 0, 79, 0
2, 73860, Note_on_c, 0, 77, 100
2, 73920, Note_on_c, 0, 77, 0
2, 73920, Note_on_c, 0, 79, 100
2, 73980, Note_on_c, 0, 79, 0
2, 73980, Note_on_c, 0, 78, 100
2, 74040, Note_on_c, 0, 78, 0
2, 74040, Note_on_c, 0, 80, 100
2, 74100, Note_on_c, 0, 80, 0
2, 74100, Note_on_c, 0, 79, 100
2, 74160, Note_on_c, 0, 79, 0
2, 74220, Note_on_c, 0, 71, 100
2, 74280, Note_on_c, 0, 71, 0
2, 74280, Note_on_c, 0, 74, 100
2, 74340, Note_on_c, 0, 74, 0
2, 74340, Note_on_c, 0, 72, 100
2, 74400, Note_on_c, 0, 72, 0
2, 74520, Note_on_c, 0, 72, 100
2, 74610, Note_on_c, 0, 72, 0
2, 74640, Note_on_c, 0, 72, 100
2, 74730, Note_on_c, 0, 72, 0
2, 74760, Note_on_c, 0, 79, 100
2, 74850, Note_on_c, 0, 79, 0
2, 74880, Note_on_c, 0, 77, 100
2, 74910, Note_on_c, 0, 77, 0
2, 74910, Note_on_c, 0, 75, 100
2, 74940, Note_on_c, 0, 75, 0
2, 74940, Note_on_c, 0, 74, 100
2, 74970, Note_on_c, 0, 74, 0
2, 74970, Note_on_c, 0, 72, 100
2, 75000, Note_on_c, 0, 72, 0
2, 75000, Note_on_c, 0, 71, 100
2, 75090, Note_on_c, 0, 71, 0
2, 75120, Note_on_c, 0, 71, 100
2, 75210, Note_on_c, 0, 71, 0
2, 75240, Note_on_c, 0, 62, 100
2, 75240, Note_on_c, 0, 71, 100
2, 75240, Note_on_c, 0, 80, 100
2, 75360, Note_on_c, 0, 80, 0
2, 75360, Note_on_c, 0, 71, 0
2, 75360, Note_on_c, 0, 62, 0
2, 75450, Note_on_c, 0, 77, 110
2, 75475, Note_on_c, 0, 77, 0
2, 75480, Note_on_c, 0, 75, 111
2, 75565, Note_on_c, 0, 75, 0
2, 75600, Note_on_c, 0, 74, 115
2, 75690, Note_on_c, 0, 74, 0
2, 75720, Note_on_c, 0, 72, 110
2, 75720, Note_on_c, 0, 63, 110
2, 75720, Note_on_c, 0, 55, 110
2, 75840, Note_on_c, 0, 55, 0
2, 75840, Note_on_c, 0, 63, 0
2, 75840, Note_on_c, 0, 72, 0
2, 76200, Control_c, 0, 121, 0
2, 76200, End_track
3, 0, Start_track
3, 0, MIDI_port, 0
3, 0, Title_t, "2nd Violin"
3, 0, Program_c, 1, 48
3, 2, Control_c, 1, 121, 0
3, 7, Program_c, 1, 48
3, 12, Pitch_bend_c, 1, 7942
3, 17, Control_c, 1, 10, 90
3, 22, Control_c, 1, 11, 127
3, 27, Control_c, 1, 91, 80
3, 32, Control_c, 1, 93, 0
3, 37, Control_c, 1, 7, 127
3, 452, Note_on_c, 1, 63, 100
3, 476, Note_on_c, 1, 63, 0
3, 482, Note_on_c, 1, 72, 100
3, 682, Note_on_c, 1, 72, 0
3, 692, Note_on_c, 1, 71, 100
3, 716, Note_on_c, 1, 71, 0
3, 722, Note_on_c, 1, 72, 100
3, 807, Note_on_c, 1, 72, 0
3, 812, Note_on_c, 1, 60, 100
3, 836, Note_on_c, 1, 60, 0
3, 842, Note_on_c, 1, 75, 100
3, 1042, Note_on_c, 1, 75, 0
3, 1052, Note_on_c, 1, 74, 100
3, 1076, Note_on_c, 1, 74, 0
3, 1082, Note_on_c, 1, 72, 100
3, 1167, Note_on_c, 1, 72, 0
3, 1172, Note_on_c, 1, 67, 100
3, 1196, Note_on_c, 1, 67, 0
3, 1202, Note_on_c, 1, 75, 100
3, 1402, Note_on_c, 1, 75, 0
3, 1412, Note_on_c, 1, 79, 100
3, 1436, Note_on_c, 1, 79, 0
3, 1442, Note_on_c, 1, 77, 100
3, 1532, Note_on_c, 1, 77, 0
3, 1562, Note_on_c, 1, 75, 100
3, 1652, Note_on_c, 1, 75, 0
3, 2162, Control_c, 1, 11, 70
3, 2162, Note_on_c, 1, 56, 40
3, 2165, Control_c, 1, 11, 73
3, 2168, Control_c, 1, 11, 76
3, 2171, Control_c, 1, 11, 79
3, 2174, Control_c, 1, 11, 82
3, 2177, Control_c, 1, 11, 85
3, 2180, Control_c, 1, 11, 88
3, 2184, Control_c, 1, 11, 91
3, 2187, Control_c, 1, 11, 94
3, 2190, Control_c, 1, 11, 97
3, 2193, Control_c, 1, 11, 100
3, 2196, Control_c, 1, 11, 103
3, 2199, Control_c, 1, 11, 106
3, 2203, Control_c, 1, 11, 109
3, 2206, Control_c, 1, 11, 112
3, 2209, Control_c, 1, 11, 115
3, 2212, Control_c, 1, 11, 118
3, 2215, Note_on_c, 1, 56, 0
3, 2215, Control_c, 1, 11, 121
3, 2218, Control_c, 1, 11, 124
3, 2222, Control_c, 1, 11, 127
3, 2222, Note_on_c, 1, 56, 40
3, 2275, Note_on_c, 1, 56, 0
3, 2282, Note_on_c, 1, 56, 40
3, 2335, Note_on_c, 1, 56, 0
3, 2342, Note_on_c, 1, 56, 40
3, 2395, Note_on_c, 1, 56, 0
3, 2402, Note_on_c, 1, 56, 40
3, 2455, Note_on_c, 1, 56, 0
3, 2462, Note_on_c, 1, 56, 40
3, 2515, Note_on_c, 1, 56, 0
3, 2522, Note_on_c, 1, 55, 40
3, 2822, Note_on_c, 1, 55, 0
3, 2822, Note_on_c, 1, 59, 40
3, 2882, Note_on_c, 1, 59, 0
3, 2882, Note_on_c, 1, 62, 40
3, 2942, Note_on_c, 1, 62, 0
3, 2942, Note_on_c, 1, 60, 40
3, 3002, Note_on_c, 1, 60, 0
3, 3002, Note_on_c, 1, 59, 40
3, 3122, Note_on_c, 1, 59, 0
3, 3242, Note_on_c, 1, 63, 100
3, 3242, Note_on_c, 1, 72, 100
3, 3242, Note_on_c, 1, 79, 100
3, 3362, Note_on_c, 1, 79, 0
3, 3362, Note_on_c, 1, 72, 0
3, 3362, Note_on_c, 1, 63, 0
3, 3452, Note_on_c, 1, 55, 100
3, 3476, Note_on_c, 1, 55, 0
3, 3482, Note_on_c, 1, 55, 100
3, 3567, Note_on_c, 1, 55, 0
3, 3572, Note_on_c, 1, 55, 100
3, 3596, Note_on_c, 1, 55, 0
3, 3602, Note_on_c, 1, 55, 100
3, 3722, Note_on_c, 1, 55, 0
3, 3812, Note_on_c, 1, 62, 100
3, 3836, Note_on_c, 1, 62, 0
3, 3842, Note_on_c, 1, 63, 100
3, 3927, Note_on_c, 1, 63, 0
3, 3932, Note_on_c, 1, 62, 100
3, 3956, Note_on_c, 1, 62, 0
3, 3962, Note_on_c, 1, 60, 100
3, 4082, Note_on_c, 1, 60, 0
3, 4172, Note_on_c, 1, 64, 100
3, 4196, Note_on_c, 1, 64, 0
3, 4202, Note_on_c, 1, 65, 100
3, 4287, Note_on_c, 1, 65, 0
3, 4292, Note_on_c, 1, 61, 100
3, 4316, Note_on_c, 1, 61, 0
3, 4322, Note_on_c, 1, 60, 100
3, 4412, Note_on_c, 1, 60, 0
3, 4442, Note_on_c, 1, 76, 100
3, 4532, Note_on_c, 1, 76, 0
3, 5042, Control_c, 1, 11, 70
3, 5042, Note_on_c, 1, 73, 40
3, 5045, Control_c, 1, 11, 73
3, 5048, Control_c, 1, 11, 76
3, 5051, Control_c, 1, 11, 79
3, 5054, Control_c, 1, 11, 82
3, 5057, Control_c, 1, 11, 85
3, 5060, Control_c, 1, 11, 88
3, 5064, Control_c, 1, 11, 91
3, 5067, Control_c, 1, 11, 94
3, 5070, Control_c, 1, 11, 97
3, 5073, Control_c, 1, 11, 100
3, 5076, Control_c, 1, 11, 103
3, 5079, Control_c, 1, 11, 106
3, 5083, Control_c, 1, 11, 109
3, 5086, Control_c, 1, 11, 112
3, 5089, Control_c, 1, 11, 115
3, 5092, Control_c, 1, 11, 118
3, 5095, Note_on_c, 1, 73, 0
3, 5095, Control_c, 1, 11, 121
3, 5098, Control_c, 1, 11, 124
3, 5102, Control_c, 1, 11, 127
3, 5102, Note_on_c, 1, 73, 40
3, 5155, Note_on_c, 1, 73, 0
3, 5162, Note_on_c, 1, 73, 40
3, 5215, Note_on_c, 1, 73, 0
3, 5222, Note_on_c, 1, 73, 40
3, 5275, Note_on_c, 1, 73, 0
3, 5282, Note_on_c, 1, 73, 40
3, 5335, Note_on_c, 1, 73, 0
3, 5342, Note_on_c, 1, 73, 40
3, 5395, Note_on_c, 1, 73, 0
3, 5402, Note_on_c, 1, 73, 40
3, 5762, Note_on_c, 1, 73, 0
3, 5762, Note_on_c, 1, 72, 40
3, 5882, Note_on_c, 1, 72, 0
3, 5882, Note_on_c, 1, 60, 40
3, 6122, Note_on_c, 1, 60, 0
3, 6122, Note_on_c, 1, 63, 40
3, 6452, Note_on_c, 1, 63, 0
3, 6452, Note_on_c, 1, 60, 40
3, 6477, Note_on_c, 1, 60, 0
3, 6482, Note_on_c, 1, 57, 40
3, 6722, Note_on_c, 1, 57, 0
3, 6722, Note_on_c, 1, 58, 42
3, 6812, Note_on_c, 1, 58, 0
3, 6812, Note_on_c, 1, 65, 43
3, 6837, Note_on_c, 1, 65, 0
3, 6842, Note_on_c, 1, 65, 43
3, 7172, Note_on_c, 1, 65, 0
3, 7172, Note_on_c, 1, 62, 47
3, 7197, Note_on_c, 1, 62, 0
3, 7202, Note_on_c, 1, 59, 47
3, 7442, Note_on_c, 1, 59, 0
3, 7442, Note_on_c, 1, 60, 50
3, 7532, Note_on_c, 1, 60, 0
3, 7532, Note_on_c, 1, 67, 50
3, 7557, Note_on_c, 1, 67, 0
3, 7562, Note_on_c, 1, 67, 51
3, 7892, Note_on_c, 1, 67, 0
3, 7892, Note_on_c, 1, 64, 54
3, 7922, Note_on_c, 1, 64, 0
3, 7922, Note_on_c, 1, 62, 55
3, 7982, Note_on_c, 1, 62, 0
3, 7982, Note_on_c, 1, 69, 55
3, 8037, Note_on_c, 1, 69, 0
3, 8042, Note_on_c, 1, 69, 56
3, 8192, Note_on_c, 1, 69, 0
3, 8192, Note_on_c, 1, 67, 52
3, 8222, Note_on_c, 1, 67, 0
3, 8222, Note_on_c, 1, 66, 51
3, 8252, Note_on_c, 1, 66, 0
3, 8252, Note_on_c, 1, 67, 50
3, 8277, Note_on_c, 1, 67, 0
3, 8282, Note_on_c, 1, 70, 49
3, 8372, Note_on_c, 1, 70, 0
3, 8372, Note_on_c, 1, 67, 46
3, 8402, Note_on_c, 1, 67, 0
3, 8402, Note_on_c, 1, 66, 45
3, 8522, Note_on_c, 1, 66, 0
3, 8732, Note_on_c, 1, 58, 100
3, 8756, Note_on_c, 1, 58, 0
3, 8762, Note_on_c, 1, 67, 100
3, 8962, Note_on_c, 1, 67, 0
3, 8972, Note_on_c, 1, 66, 100
3, 8996, Note_on_c, 1, 66, 0
3, 9002, Note_on_c, 1, 67, 100
3, 9087, Note_on_c, 1, 67, 0
3, 9092, Note_on_c, 1, 55, 100
3, 9116, Note_on_c, 1, 55, 0
3, 9122, Note_on_c, 1, 70, 100
3, 9322, Note_on_c, 1, 70, 0
3, 9332, Note_on_c, 1, 69, 100
3, 9356, Note_on_c, 1, 69, 0
3, 9362, Note_on_c, 1, 67, 100
3, 9447, Note_on_c, 1, 67, 0
3, 9452, Note_on_c, 1, 62, 100
3, 9476, Note_on_c, 1, 62, 0
3, 9482, Note_on_c, 1, 70, 100
3, 9682, Note_on_c, 1, 70, 0
3, 9692, Note_on_c, 1, 74, 100
3, 9716, Note_on_c, 1, 74, 0
3, 9722, Note_on_c, 1, 72, 100
3, 9812, Note_on_c, 1, 72, 0
3, 9842, Note_on_c, 1, 70, 100
3, 9932, Note_on_c, 1, 70, 0
3, 10442, Control_c, 1, 11, 70
3, 10442, Note_on_c, 1, 66, 40
3, 10445, Control_c, 1, 11, 73
3, 10448, Control_c, 1, 11, 76
3, 10451, Control_c, 1, 11, 79
3, 10454, Control_c, 1, 11, 82
3, 10457, Control_c, 1, 11, 85
3, 10460, Control_c, 1, 11, 88
3, 10464, Control_c, 1, 11, 91
3, 10467, Control_c, 1, 11, 94
3, 10470, Control_c, 1, 11, 97
3, 10473, Control_c, 1, 11, 100
3, 10476, Control_c, 1, 11, 103
3, 10479, Control_c, 1, 11, 106
3, 10483, Control_c, 1, 11, 109
3, 10486, Control_c, 1, 11, 112
3, 10489, Control_c, 1, 11, 115
3, 10492, Control_c, 1, 11, 118
3, 10495, Control_c, 1, 11, 121
3, 10498, Control_c, 1, 11, 124
3, 10502, Control_c, 1, 11, 127
3, 10532, Note_on_c, 1, 66, 0
3, 10532, Note_on_c, 1, 65, 40
3, 10557, Note_on_c, 1, 65, 0
3, 10562, Note_on_c, 1, 66, 40
3, 10652, Note_on_c, 1, 66, 0
3, 10652, Note_on_c, 1, 65, 40
3, 10677, Note_on_c, 1, 65, 0
3, 10682, Note_on_c, 1, 66, 40
3, 10767, Note_on_c, 1, 66, 0
3, 10772, Note_on_c, 1, 65, 40
3, 10797, Note_on_c, 1, 65, 0
3, 10802, Note_on_c, 1, 66, 40
3, 11162, Note_on_c, 1, 66, 0
3, 11162, Note_on_c, 1, 66, 40
3, 11882, Note_on_c, 1, 66, 0
3, 11882, Note_on_c, 1, 65, 40
3, 11972, Note_on_c, 1, 65, 0
3, 11972, Note_on_c, 1, 71, 40
3, 12002, Note_on_c, 1, 71, 0
3, 12002, Note_on_c, 1, 74, 40
3, 12122, Note_on_c, 1, 74, 0
3, 12122, Note_on_c, 1, 72, 40
3, 12242, Note_on_c, 1, 72, 0
3, 12242, Note_on_c, 1, 75, 40
3, 12332, Note_on_c, 1, 75, 0
3, 12332, Note_on_c, 1, 72, 40
3, 12362, Note_on_c, 1, 72, 0
3, 12362, Note_on_c, 1, 71, 40
3, 12444, Note_on_c, 1, 71, 0
3, 12452, Note_on_c, 1, 59, 85
3, 12476, Note_on_c, 1, 59, 0
3, 12482, Note_on_c, 1, 60, 88
3, 12567, Note_on_c, 1, 60, 0
3, 12572, Note_on_c, 1, 62, 97
3, 12596, Note_on_c, 1, 62, 0
3, 12602, Note_on_c, 1, 60, 100
3, 12722, Note_on_c, 1, 60, 0
3, 12812, Note_on_c, 1, 55, 100
3, 12836, Note_on_c, 1, 55, 0
3, 12842, Note_on_c, 1, 55, 100
3, 12927, Note_on_c, 1, 55, 0
3, 12932, Note_on_c, 1, 55, 100
3, 12956, Note_on_c, 1, 55, 0
3, 12962, Note_on_c, 1, 55, 100
3, 13072, Note_on_c, 1, 55, 0
3, 13172, Note_on_c, 1, 62, 100
3, 13196, Note_on_c, 1, 62, 0
3, 13202, Note_on_c, 1, 63, 100
3, 13287, Note_on_c, 1, 63, 0
3, 13292, Note_on_c, 1, 62, 100
3, 13316, Note_on_c, 1, 62, 0
3, 13322, Note_on_c, 1, 60, 100
3, 13432, Note_on_c, 1, 60, 0
3, 13532, Note_on_c, 1, 64, 100
3, 13556, Note_on_c, 1, 64, 0
3, 13562, Note_on_c, 1, 65, 100
3, 13647, Note_on_c, 1, 65, 0
3, 13652, Note_on_c, 1, 61, 100
3, 13676, Note_on_c, 1, 61, 0
3, 13682, Note_on_c, 1, 60, 100
3, 13772, Note_on_c, 1, 60, 0
3, 13802, Note_on_c, 1, 76, 100
3, 13892, Note_on_c, 1, 76, 0
3, 14402, Control_c, 1, 11, 70
3, 14402, Note_on_c, 1, 68, 40
3, 14405, Control_c, 1, 11, 73
3, 14408, Control_c, 1, 11, 76
3, 14411, Control_c, 1, 11, 79
3, 14414, Control_c, 1, 11, 82
3, 14417, Control_c, 1, 11, 85
3, 14420, Control_c, 1, 11, 88
3, 14424, Control_c, 1, 11, 91
3, 14427, Control_c, 1, 11, 94
3, 14430, Control_c, 1, 11, 97
3, 14433, Control_c, 1, 11, 100
3, 14436, Control_c, 1, 11, 103
3, 14439, Control_c, 1, 11, 106
3, 14443, Control_c, 1, 11, 109
3, 14446, Control_c, 1, 11, 112
3, 14449, Control_c, 1, 11, 115
3, 14452, Control_c, 1, 11, 118
3, 14455, Control_c, 1, 11, 121
3, 14458, Control_c, 1, 11, 124
3, 14462, Control_c, 1, 11, 127
3, 14492, Note_on_c, 1, 68, 0
3, 14492, Note_on_c, 1, 67, 40
3, 14522, Note_on_c, 1, 67, 0
3, 14522, Note_on_c, 1, 68, 40
3, 14612, Note_on_c, 1, 68, 0
3, 14612, Note_on_c, 1, 67, 40
3, 14642, Note_on_c, 1, 67, 0
3, 14642, Note_on_c, 1, 68, 40
3, 14732, Note_on_c, 1, 68, 0
3, 14732, Note_on_c, 1, 67, 40
3, 14757, Note_on_c, 1, 67, 0
3, 14762, Note_on_c, 1, 68, 40
3, 14815, Note_on_c, 1, 68, 0
3, 14822, Note_on_c, 1, 68, 40
3, 14875, Note_on_c, 1, 68, 0
3, 14882, Note_on_c, 1, 68, 40
3, 14935, Note_on_c, 1, 68, 0
3, 14942, Note_on_c, 1, 68, 40
3, 14995, Note_on_c, 1, 68, 0
3, 15002, Note_on_c, 1, 68, 40
3, 15055, Note_on_c, 1, 68, 0
3, 15062, Note_on_c, 1, 68, 40
3, 15115, Note_on_c, 1, 68, 0
3, 15122, Note_on_c, 1, 68, 40
3, 15332, Note_on_c, 1, 68, 0
3, 15332, Note_on_c, 1, 64, 40
3, 15357, Note_on_c, 1, 64, 0
3, 15362, Note_on_c, 1, 65, 40
3, 15452, Note_on_c, 1, 65, 0
3, 15452, Note_on_c, 1, 62, 40
3, 15477, Note_on_c, 1, 62, 0
3, 15482, Note_on_c, 1, 64, 40
3, 15572, Note_on_c, 1, 64, 0
3, 15572, Note_on_c, 1, 63, 40
3, 15602, Note_on_c, 1, 63, 0
3, 15602, Note_on_c, 1, 64, 40
3, 15692, Note_on_c, 1, 64, 0
3, 15692, Note_on_c, 1, 63, 40
3, 15722, Note_on_c, 1, 63, 0
3, 15722, Note_on_c, 1, 64, 40
3, 15812, Note_on_c, 1, 64, 0
3, 15812, Note_on_c, 1, 60, 40
3, 15837, Note_on_c, 1, 60, 0
3, 15842, Note_on_c, 1, 61, 40
3, 15932, Note_on_c, 1, 61, 0
3, 15932, Note_on_c, 1, 60, 40
3, 15962, Note_on_c, 1, 60, 0
3, 15962, Note_on_c, 1, 61, 40
3, 16052, Note_on_c, 1, 61, 0
3, 16052, Note_on_c, 1, 60, 40
3, 16082, Note_on_c, 1, 60, 0
3, 16082, Note_on_c, 1, 61, 40
3, 16172, Note_on_c, 1, 61, 0
3, 16172, Note_on_c, 1, 58, 40
3, 16197, Note_on_c, 1, 58, 0
3, 16202, Note_on_c, 1, 64, 40
3, 16322, Note_on_c, 1, 64, 0
3, 16322, Note_on_c, 1, 65, 40
3, 16442, Note_on_c, 1, 65, 0
3, 16442, Note_on_c, 1, 67, 40
3, 16557, Note_on_c, 1, 67, 0
3, 16562, Note_on_c, 1, 68, 40
3, 16682, Note_on_c, 1, 68, 0
3, 16682, Note_on_c, 1, 69, 40
3, 16922, Note_on_c, 1, 69, 0
3, 16922, Note_on_c, 1, 67, 40
3, 16975, Note_on_c, 1, 67, 0
3, 16982, Note_on_c, 1, 62, 40
3, 17035, Note_on_c, 1, 62, 0
3, 17042, Note_on_c, 1, 62, 40
3, 17095, Note_on_c, 1, 62, 0
3, 17102, Note_on_c, 1, 62, 40
3, 17155, Note_on_c, 1, 62, 0
3, 17162, Note_on_c, 1, 62, 40
3, 17215, Note_on_c, 1, 62, 0
3, 17222, Note_on_c, 1, 62, 40
3, 17275, Note_on_c, 1, 62, 0
3, 17282, Note_on_c, 1, 62, 40
3, 17335, Note_on_c, 1, 62, 0
3, 17342, Note_on_c, 1, 62, 40
3, 17395, Note_on_c, 1, 62, 0
3, 17402, Note_on_c, 1, 62, 40
3, 17455, Note_on_c, 1, 62, 0
3, 17462, Note_on_c, 1, 62, 40
3, 17515, Note_on_c, 1, 62, 0
3, 17522, Note_on_c, 1, 69, 40
3, 17575, Note_on_c, 1, 69, 0
3, 17582, Note_on_c, 1, 69, 40
3, 17635, Note_on_c, 1, 69, 0
3, 17642, Note_on_c, 1, 67, 40
3, 17695, Note_on_c, 1, 67, 0
3, 17702, Note_on_c, 1, 62, 40
3, 17755, Note_on_c, 1, 62, 0
3, 17762, Note_on_c, 1, 62, 40
3, 17815, Note_on_c, 1, 62, 0
3, 17822, Note_on_c, 1, 62, 40
3, 17875, Note_on_c, 1, 62, 0
3, 17882, Note_on_c, 1, 62, 40
3, 17935, Note_on_c, 1, 62, 0
3, 17942, Note_on_c, 1, 62, 40
3, 17995, Note_on_c, 1, 62, 0
3, 18002, Note_on_c, 1, 60, 40
3, 18055, Note_on_c, 1, 60, 0
3, 18062, Note_on_c, 1, 60, 40
3, 18115, Note_on_c, 1, 60, 0
3, 18122, Note_on_c, 1, 60, 40
3, 18175, Note_on_c, 1, 60, 0
3, 18182, Note_on_c, 1, 60, 39
3, 18235, Note_on_c, 1, 60, 0
3, 18242, Note_on_c, 1, 63, 38
3, 18295, Note_on_c, 1, 63, 0
3, 18302, Note_on_c, 1, 63, 37
3, 18355, Note_on_c, 1, 63, 0
3, 18362, Note_on_c, 1, 63, 36
3, 18482, Note_on_c, 1, 63, 0
3, 18482, Note_on_c, 1, 62, 34
3, 18602, Note_on_c, 1, 62, 0
3, 18602, Note_on_c, 1, 60, 32
3, 18717, Note_on_c, 1, 60, 0
3, 18722, Note_on_c, 1, 62, 30
3, 18902, Control_c, 1, 11, 127
3, 18903, Control_c, 1, 11, 125
3, 18904, Control_c, 1, 11, 124
3, 18905, Control_c, 1, 11, 123
3, 18906, Control_c, 1, 11, 122
3, 18907, Control_c, 1, 11, 121
3, 18908, Control_c, 1, 11, 120
3, 18909, Control_c, 1, 11, 119
3, 18910, Control_c, 1, 11, 118
3, 18911, Control_c, 1, 11, 117
3, 18912, Control_c, 1, 11, 116
3, 18913, Control_c, 1, 11, 115
3, 18914, Control_c, 1, 11, 114
3, 18915, Control_c, 1, 11, 113
3, 18916, Control_c, 1, 11, 112
3, 18917, Control_c, 1, 11, 110
3, 18918, Control_c, 1, 11, 109
3, 18919, Control_c, 1, 11, 108
3, 18920, Control_c, 1, 11, 107
3, 18921, Control_c, 1, 11, 106
3, 18922, Control_c, 1, 11, 105
3, 18923, Control_c, 1, 11, 104
3, 18924, Control_c, 1, 11, 103
3, 18925, Control_c, 1, 11, 102
3, 18926, Control_c, 1, 11, 101
3, 18927, Control_c, 1, 11, 100
3, 18928, Control_c, 1, 11, 99
3, 18929, Control_c, 1, 11, 98
3, 18930, Control_c, 1, 11, 97
3, 18931, Control_c, 1, 11, 96
3, 18932, Control_c, 1, 11, 94
3, 18933, Control_c, 1, 11, 93
3, 18934, Control_c, 1, 11, 92
3, 18935, Control_c, 1, 11, 91
3, 18936, Control_c, 1, 11, 90
3, 18937, Control_c, 1, 11, 89
3, 18938, Control_c, 1, 11, 88
3, 18939, Control_c, 1, 11, 87
3, 18940, Control_c, 1, 11, 86
3, 18941, Control_c, 1, 11, 85
3, 18942, Control_c, 1, 11, 84
3, 18943, Control_c, 1, 11, 83
3, 18944, Control_c, 1, 11, 82
3, 18945, Control_c, 1, 11, 81
3, 18946, Control_c, 1, 11, 80
3, 18947, Control_c, 1, 11, 78
3, 18948, Control_c, 1, 11, 77
3, 18949, Control_c, 1, 11, 76
3, 18950, Control_c, 1, 11, 75
3, 18951, Control_c, 1, 11, 74
3, 18952, Control_c, 1, 11, 73
3, 18953, Control_c, 1, 11, 72
3, 18954, Control_c, 1, 11, 71
3, 18955, Control_c, 1, 11, 70
3, 18956, Control_c, 1, 11, 69
3, 18957, Control_c, 1, 11, 68
3, 18958, Control_c, 1, 11, 67
3, 18959, Control_c, 1, 11, 66
3, 18960, Control_c, 1, 11, 65
3, 18961, Control_c, 1, 11, 64
3, 18962, Note_on_c, 1, 62, 0
3, 21962, Control_c, 1, 11, 127
3, 21962, Note_on_c, 1, 67, 85
3, 22052, Note_on_c, 1, 67, 0
3, 22082, Note_on_c, 1, 67, 85
3, 22172, Note_on_c, 1, 67, 0
3, 22202, Note_on_c, 1, 60, 85
3, 22292, Note_on_c, 1, 60, 0
3, 22322, Note_on_c, 1, 62, 85
3, 22352, Note_on_c, 1, 62, 0
3, 22352, Note_on_c, 1, 63, 85
3, 22382, Note_on_c, 1, 63, 0
3, 22382, Note_on_c, 1, 65, 85
3, 22412, Note_on_c, 1, 65, 0
3, 22412, Note_on_c, 1, 67, 85
3, 22442, Note_on_c, 1, 67, 0
3, 22442, Note_on_c, 1, 68, 85
3, 22532, Note_on_c, 1, 68, 0
3, 22562, Note_on_c, 1, 68, 85
3, 22652, Note_on_c, 1, 68, 0
3, 22682, Note_on_c, 1, 59, 85
3, 22772, Note_on_c, 1, 59, 0
3, 22862, Note_on_c, 1, 68, 85
3, 22907, Note_on_c, 1, 68, 0
3, 22922, Note_on_c, 1, 66, 85
3, 22982, Note_on_c, 1, 66, 0
3, 22982, Note_on_c, 1, 67, 85
3, 23042, Note_on_c, 1, 67, 0
3, 23102, Note_on_c, 1, 65, 85
3, 23147, Note_on_c, 1, 65, 0
3, 23162, Note_on_c, 1, 62, 85
3, 23222, Note_on_c, 1, 62, 0
3, 23222, Note_on_c, 1, 63, 85
3, 23282, Note_on_c, 1, 63, 0
3, 23282, Note_on_c, 1, 61, 85
3, 23342, Note_on_c, 1, 61, 0
3, 23342, Note_on_c, 1, 62, 85
3, 23402, Note_on_c, 1, 62, 0
3, 23402, Note_on_c, 1, 59, 85
3, 23462, Note_on_c, 1, 59, 0
3, 23462, Note_on_c, 1, 60, 85
3, 23522, Note_on_c, 1, 60, 0
3, 23582, Note_on_c, 1, 60, 85
3, 23607, Note_on_c, 1, 60, 0
3, 23612, Note_on_c, 1, 62, 85
3, 23637, Note_on_c, 1, 62, 0
3, 23642, Note_on_c, 1, 63, 85
3, 23732, Note_on_c, 1, 63, 0
3, 23762, Note_on_c, 1, 60, 85
3, 23852, Note_on_c, 1, 60, 0
3, 23942, Note_on_c, 1, 60, 85
3, 23987, Note_on_c, 1, 60, 0
3, 24002, Note_on_c, 1, 60, 85
3, 24047, Note_on_c, 1, 60, 0
3, 24062, Note_on_c, 1, 60, 85
3, 24107, Note_on_c, 1, 60, 0
3, 24122, Note_on_c, 1, 62, 85
3, 24137, Note_on_c, 1, 62, 0
3, 24137, Note_on_c, 1, 60, 85
3, 24152, Note_on_c, 1, 60, 0
3, 24152, Note_on_c, 1, 62, 85
3, 24167, Note_on_c, 1, 62, 0
3, 24167, Note_on_c, 1, 60, 85
3, 24182, Note_on_c, 1, 60, 0
3, 24182, Note_on_c, 1, 62, 85
3, 24197, Note_on_c, 1, 62, 0
3, 24197, Note_on_c, 1, 60, 85
3, 24212, Note_on_c, 1, 60, 0
3, 24212, Note_on_c, 1, 62, 85
3, 24227, Note_on_c, 1, 62, 0
3, 24227, Note_on_c, 1, 60, 85
3, 24242, Note_on_c, 1, 60, 0
3, 24242, Note_on_c, 1, 62, 85
3, 24257, Note_on_c, 1, 62, 0
3, 24257, Note_on_c, 1, 60, 85
3, 24272, Note_on_c, 1, 60, 0
3, 24272, Note_on_c, 1, 62, 85
3, 24287, Note_on_c, 1, 62, 0
3, 24287, Note_on_c, 1, 60, 85
3, 24302, Note_on_c, 1, 60, 0
3, 24302, Note_on_c, 1, 59, 85
3, 24332, Note_on_c, 1, 59, 0
3, 24332, Note_on_c, 1, 60, 85
3, 24357, Note_on_c, 1, 60, 0
3, 24362, Note_on_c, 1, 58, 85
3, 24482, Note_on_c, 1, 58, 0
3, 24482, Note_on_c, 1, 57, 85
3, 24602, Note_on_c, 1, 57, 0
3, 24602, Note_on_c, 1, 55, 85
3, 24662, Note_on_c, 1, 55, 0
3, 24662, Note_on_c, 1, 67, 85
3, 24782, Note_on_c, 1, 67, 0
3, 24782, Note_on_c, 1, 65, 85
3, 24902, Note_on_c, 1, 65, 0
3, 24902, Note_on_c, 1, 63, 85
3, 25022, Note_on_c, 1, 63, 0
3, 25022, Note_on_c, 1, 62, 85
3, 25082, Note_on_c, 1, 62, 0
3, 25082, Note_on_c, 1, 67, 85
3, 25262, Note_on_c, 1, 67, 0
3, 25262, Note_on_c, 1, 66, 85
3, 25322, Note_on_c, 1, 66, 0
3, 25322, Note_on_c, 1, 67, 85
3, 25622, Note_on_c, 1, 67, 0
3, 25622, Note_on_c, 1, 67, 85
3, 25647, Note_on_c, 1, 67, 0
3, 25652, Note_on_c, 1, 66, 85
3, 25677, Note_on_c, 1, 66, 0
3, 25682, Note_on_c, 1, 63, 85
3, 25737, Note_on_c, 1, 63, 0
3, 25742, Note_on_c, 1, 62, 85
3, 25797, Note_on_c, 1, 62, 0
3, 25802, Note_on_c, 1, 60, 85
3, 25922, Note_on_c, 1, 60, 0
3, 25982, Note_on_c, 1, 68, 85
3, 26102, Note_on_c, 1, 68, 0
3, 26102, Note_on_c, 1, 67, 85
3, 26127, Note_on_c, 1, 67, 0
3, 26132, Note_on_c, 1, 66, 85
3, 26157, Note_on_c, 1, 66, 0
3, 26162, Note_on_c, 1, 67, 85
3, 26217, Note_on_c, 1, 67, 0
3, 26222, Note_on_c, 1, 71, 85
3, 26277, Note_on_c, 1, 71, 0
3, 26282, Note_on_c, 1, 72, 85
3, 26372, Note_on_c, 1, 72, 0
3, 26372, Note_on_c, 1, 70, 85
3, 26402, Note_on_c, 1, 70, 0
3, 26402, Note_on_c, 1, 68, 85
3, 26517, Note_on_c, 1, 68, 0
3, 26522, Note_on_c, 1, 67, 85
3, 26637, Note_on_c, 1, 67, 0
3, 26642, Note_on_c, 1, 65, 85
3, 26757, Note_on_c, 1, 65, 0
3, 26762, Note_on_c, 1, 63, 85
3, 26882, Note_on_c, 1, 63, 0
3, 26942, Note_on_c, 1, 60, 85
3, 26997, Note_on_c, 1, 60, 0
3, 27002, Note_on_c, 1, 72, 85
3, 27026, Note_on_c, 1, 72, 0
3, 27032, Note_on_c, 1, 70, 85
3, 27056, Note_on_c, 1, 70, 0
3, 27062, Note_on_c, 1, 68, 85
3, 27086, Note_on_c, 1, 68, 0
3, 27092, Note_on_c, 1, 67, 85
3, 27116, Note_on_c, 1, 67, 0
3, 27122, Note_on_c, 1, 65, 85
3, 27146, Note_on_c, 1, 65, 0
3, 27152, Note_on_c, 1, 63, 85
3, 27176, Note_on_c, 1, 63, 0
3, 27182, Note_on_c, 1, 62, 85
3, 27206, Note_on_c, 1, 62, 0
3, 27212, Note_on_c, 1, 60, 85
3, 27236, Note_on_c, 1, 60, 0
3, 27242, Note_on_c, 1, 77, 85
3, 27266, Note_on_c, 1, 77, 0
3, 27272, Note_on_c, 1, 75, 85
3, 27296, Note_on_c, 1, 75, 0
3, 27302, Note_on_c, 1, 74, 85
3, 27326, Note_on_c, 1, 74, 0
3, 27332, Note_on_c, 1, 72, 85
3, 27356, Note_on_c, 1, 72, 0
3, 27362, Note_on_c, 1, 70, 85
3, 27386, Note_on_c, 1, 70, 0
3, 27392, Note_on_c, 1, 68, 85
3, 27416, Note_on_c, 1, 68, 0
3, 27422, Note_on_c, 1, 67, 85
3, 27446, Note_on_c, 1, 67, 0
3, 27452, Note_on_c, 1, 65, 85
3, 27476, Note_on_c, 1, 65, 0
3, 27482, Note_on_c, 1, 67, 85
3, 27506, Note_on_c, 1, 67, 0
3, 27512, Note_on_c, 1, 65, 85
3, 27536, Note_on_c, 1, 65, 0
3, 27542, Note_on_c, 1, 63, 85
3, 27566, Note_on_c, 1, 63, 0
3, 27572, Note_on_c, 1, 62, 85
3, 27596, Note_on_c, 1, 62, 0
3, 27602, Note_on_c, 1, 60, 85
3, 27626, Note_on_c, 1, 60, 0
3, 27632, Note_on_c, 1, 58, 85
3, 27656, Note_on_c, 1, 58, 0
3, 27662, Note_on_c, 1, 56, 85
3, 27686, Note_on_c, 1, 56, 0
3, 27692, Note_on_c, 1, 55, 85
3, 27716, Note_on_c, 1, 55, 0
3, 27722, Note_on_c, 1, 60, 85
3, 27777, Note_on_c, 1, 60, 0
3, 27782, Note_on_c, 1, 56, 85
3, 27807, Note_on_c, 1, 56, 0
3, 27812, Note_on_c, 1, 60, 85
3, 27837, Note_on_c, 1, 60, 0
3, 27842, Note_on_c, 1, 65, 85
3, 27897, Note_on_c, 1, 65, 0
3, 27902, Note_on_c, 1, 60, 85
3, 27957, Note_on_c, 1, 60, 0
3, 27962, Note_on_c, 1, 58, 85
3, 28017, Note_on_c, 1, 58, 0
3, 28022, Note_on_c, 1, 68, 85
3, 28082, Note_on_c, 1, 68, 0
3, 28082, Note_on_c, 1, 67, 85
3, 28142, Note_on_c, 1, 67, 0
3, 28142, Note_on_c, 1, 65, 85
3, 28197, Note_on_c, 1, 65, 0
3, 28202, Note_on_c, 1, 63, 85
3, 28257, Note_on_c, 1, 63, 0
3, 28262, Note_on_c, 1, 70, 85
3, 28322, Note_on_c, 1, 70, 0
3, 28322, Note_on_c, 1, 68, 85
3, 28382, Note_on_c, 1, 68, 0
3, 28382, Note_on_c, 1, 67, 85
3, 28442, Note_on_c, 1, 67, 0
3, 28442, Note_on_c, 1, 65, 85
3, 28502, Note_on_c, 1, 65, 0
3, 28502, Note_on_c, 1, 63, 85
3, 28562, Note_on_c, 1, 63, 0
3, 28562, Note_on_c, 1, 62, 85
3, 28622, Note_on_c, 1, 62, 0
3, 28622, Note_on_c, 1, 63, 85
3, 28677, Note_on_c, 1, 63, 0
3, 28682, Note_on_c, 1, 68, 85
3, 28742, Note_on_c, 1, 68, 0
3, 28742, Note_on_c, 1, 65, 85
3, 28802, Note_on_c, 1, 65, 0
3, 28862, Note_on_c, 1, 63, 85
3, 28922, Note_on_c, 1, 63, 0
3, 28922, Note_on_c, 1, 61, 85
3, 28982, Note_on_c, 1, 61, 0
3, 28982, Note_on_c, 1, 62, 85
3, 29042, Note_on_c, 1, 62, 0
3, 29102, Note_on_c, 1, 72, 85
3, 29162, Note_on_c, 1, 72, 0
3, 29162, Note_on_c, 1, 69, 85
3, 29222, Note_on_c, 1, 69, 0
3, 29222, Note_on_c, 1, 70, 85
3, 29282, Note_on_c, 1, 70, 0
3, 29282, Note_on_c, 1, 67, 85
3, 29342, Note_on_c, 1, 67, 0
3, 29342, Note_on_c, 1, 68, 85
3, 29402, Note_on_c, 1, 68, 0
3, 29402, Note_on_c, 1, 67, 85
3, 29462, Note_on_c, 1, 67, 0
3, 29462, Note_on_c, 1, 64, 85
3, 29522, Note_on_c, 1, 64, 0
3, 29522, Note_on_c, 1, 65, 85
3, 29582, Note_on_c, 1, 65, 0
3, 29582, Note_on_c, 1, 67, 85
3, 29642, Note_on_c, 1, 67, 0
3, 29642, Note_on_c, 1, 68, 86
3, 29702, Note_on_c, 1, 68, 0
3, 29702, Note_on_c, 1, 69, 86
3, 29762, Note_on_c, 1, 69, 0
3, 29762, Note_on_c, 1, 70, 86
3, 29822, Note_on_c, 1, 70, 0
3, 29822, Note_on_c, 1, 63, 87
3, 29882, Note_on_c, 1, 63, 0
3, 29882, Note_on_c, 1, 61, 87
3, 29942, Note_on_c, 1, 61, 0
3, 29942, Note_on_c, 1, 70, 87
3, 29987, Note_on_c, 1, 70, 0
3, 30002, Note_on_c, 1, 70, 87
3, 30047, Note_on_c, 1, 70, 0
3, 30062, Note_on_c, 1, 70, 88
3, 30107, Note_on_c, 1, 70, 0
3, 30122, Note_on_c, 1, 72, 88
3, 30137, Note_on_c, 1, 72, 0
3, 30137, Note_on_c, 1, 70, 88
3, 30152, Note_on_c, 1, 70, 0
3, 30152, Note_on_c, 1, 72, 88
3, 30167, Note_on_c, 1, 72, 0
3, 30167, Note_on_c, 1, 70, 88
3, 30182, Note_on_c, 1, 70, 0
3, 30182, Note_on_c, 1, 72, 88
3, 30197, Note_on_c, 1, 72, 0
3, 30197, Note_on_c, 1, 70, 88
3, 30212, Note_on_c, 1, 70, 0
3, 30212, Note_on_c, 1, 72, 88
3, 30227, Note_on_c, 1, 72, 0
3, 30227, Note_on_c, 1, 70, 89
3, 30242, Note_on_c, 1, 70, 0
3, 30242, Note_on_c, 1, 72, 89
3, 30257, Note_on_c, 1, 72, 0
3, 30257, Note_on_c, 1, 70, 89
3, 30272, Note_on_c, 1, 70, 0
3, 30272, Note_on_c, 1, 72, 89
3, 30287, Note_on_c, 1, 72, 0
3, 30287, Note_on_c, 1, 70, 89
3, 30302, Note_on_c, 1, 70, 0
3, 30302, Note_on_c, 1, 69, 89
3, 30332, Note_on_c, 1, 69, 0
3, 30332, Note_on_c, 1, 70, 89
3, 30362, Note_on_c, 1, 70, 0
3, 30362, Note_on_c, 1, 67, 89
3, 30422, Note_on_c, 1, 67, 0
3, 30422, Note_on_c, 1, 68, 90
3, 30482, Note_on_c, 1, 68, 0
3, 30482, Note_on_c, 1, 75, 90
3, 30542, Note_on_c, 1, 75, 0
3, 30542, Note_on_c, 1, 74, 90
3, 30602, Note_on_c, 1, 74, 0
3, 30602, Note_on_c, 1, 73, 90
3, 30662, Note_on_c, 1, 73, 0
3, 30662, Note_on_c, 1, 72, 91
3, 30722, Note_on_c, 1, 72, 0
3, 30842, Note_on_c, 1, 74, 92
3, 30932, Note_on_c, 1, 74, 0
3, 30962, Note_on_c, 1, 74, 92
3, 31052, Note_on_c, 1, 74, 0
3, 31082, Note_on_c, 1, 67, 93
3, 31172, Note_on_c, 1, 67, 0
3, 31202, Note_on_c, 1, 69, 93
3, 31232, Note_on_c, 1, 69, 0
3, 31232, Note_on_c, 1, 70, 93
3, 31262, Note_on_c, 1, 70, 0
3, 31262, Note_on_c, 1, 72, 94
3, 31292, Note_on_c, 1, 72, 0
3, 31292, Note_on_c, 1, 74, 94
3, 31322, Note_on_c, 1, 74, 0
3, 31322, Note_on_c, 1, 75, 94
3, 31412, Note_on_c, 1, 75, 0
3, 31442, Note_on_c, 1, 75, 95
3, 31532, Note_on_c, 1, 75, 0
3, 31562, Note_on_c, 1, 66, 95
3, 31682, Note_on_c, 1, 66, 0
3, 31742, Note_on_c, 1, 75, 96
3, 31802, Note_on_c, 1, 75, 0
3, 31802, Note_on_c, 1, 73, 96
3, 31862, Note_on_c, 1, 73, 0
3, 31862, Note_on_c, 1, 74, 97
3, 31922, Note_on_c, 1, 74, 0
3, 31922, Note_on_c, 1, 71, 97
3, 31982, Note_on_c, 1, 71, 0
3, 31982, Note_on_c, 1, 72, 97
3, 32042, Note_on_c, 1, 72, 0
3, 32042, Note_on_c, 1, 69, 97
3, 32102, Note_on_c, 1, 69, 0
3, 32102, Note_on_c, 1, 70, 98
3, 32162, Note_on_c, 1, 70, 0
3, 32222, Note_on_c, 1, 73, 98
3, 32282, Note_on_c, 1, 73, 0
3, 32282, Note_on_c, 1, 71, 99
3, 32342, Note_on_c, 1, 71, 0
3, 32342, Note_on_c, 1, 72, 100
3, 32402, Note_on_c, 1, 72, 0
3, 32402, Note_on_c, 1, 68, 97
3, 32462, Note_on_c, 1, 68, 0
3, 32462, Note_on_c, 1, 70, 94
3, 32522, Note_on_c, 1, 70, 0
3, 32522, Note_on_c, 1, 67, 91
3, 32582, Note_on_c, 1, 67, 0
3, 32582, Note_on_c, 1, 68, 88
3, 32642, Note_on_c, 1, 68, 0
3, 32702, Note_on_c, 1, 71, 82
3, 32762, Note_on_c, 1, 71, 0
3, 32762, Note_on_c, 1, 69, 79
3, 32822, Note_on_c, 1, 69, 0
3, 32822, Note_on_c, 1, 70, 76
3, 32882, Note_on_c, 1, 70, 0
3, 32882, Note_on_c, 1, 67, 73
3, 32942, Note_on_c, 1, 67, 0
3, 32942, Note_on_c, 1, 68, 70
3, 32997, Note_on_c, 1, 68, 0
3, 33002, Note_on_c, 1, 66, 100
3, 33062, Note_on_c, 1, 66, 0
3, 33062, Note_on_c, 1, 67, 100
3, 33122, Note_on_c, 1, 67, 0
3, 33482, Note_on_c, 1, 61, 70
3, 33527, Note_on_c, 1, 61, 0
3, 33542, Note_on_c, 1, 61, 70
3, 33587, Note_on_c, 1, 61, 0
3, 33602, Note_on_c, 1, 61, 70
3, 33647, Note_on_c, 1, 61, 0
3, 33662, Note_on_c, 1, 63, 70
3, 33677, Note_on_c, 1, 63, 0
3, 33677, Note_on_c, 1, 61, 70
3, 33692, Note_on_c, 1, 61, 0
3, 33692, Note_on_c, 1, 63, 70
3, 33707, Note_on_c, 1, 63, 0
3, 33707, Note_on_c, 1, 61, 70
3, 33722, Note_on_c, 1, 61, 0
3, 33722, Note_on_c, 1, 63, 70
3, 33737, Note_on_c, 1, 63, 0
3, 33737, Note_on_c, 1, 61, 70
3, 33752, Note_on_c, 1, 61, 0
3, 33752, Note_on_c, 1, 63, 70
3, 33767, Note_on_c, 1, 63, 0
3, 33767, Note_on_c, 1, 61, 70
3, 33782, Note_on_c, 1, 61, 0
3, 33782, Note_on_c, 1, 63, 70
3, 33797, Note_on_c, 1, 63, 0
3, 33797, Note_on_c, 1, 61, 70
3, 33812, Note_on_c, 1, 61, 0
3, 33812, Note_on_c, 1, 63, 70
3, 33827, Note_on_c, 1, 63, 0
3, 33827, Note_on_c, 1, 61, 70
3, 33842, Note_on_c, 1, 61, 0
3, 33842, Note_on_c, 1, 63, 70
3, 33857, Note_on_c, 1, 63, 0
3, 33857, Note_on_c, 1, 61, 70
3, 33872, Note_on_c, 1, 61, 0
3, 33872, Note_on_c, 1, 63, 70
3, 33887, Note_on_c, 1, 63, 0
3, 33887, Note_on_c, 1, 61, 70
3, 33902, Note_on_c, 1, 61, 0
3, 33902, Note_on_c, 1, 60, 70
3, 33932, Note_on_c, 1, 60, 0
3, 33932, Note_on_c, 1, 61, 70
3, 33962, Note_on_c, 1, 61, 0
3, 33962, Note_on_c, 1, 60, 70
3, 34007, Note_on_c, 1, 60, 0
3, 34022, Note_on_c, 1, 63, 70
3, 34067, Note_on_c, 1, 63, 0
3, 34082, Note_on_c, 1, 63, 70
3, 34127, Note_on_c, 1, 63, 0
3, 34142, Note_on_c, 1, 63, 70
3, 34187, Note_on_c, 1, 63, 0
3, 34202, Note_on_c, 1, 65, 71
3, 34217, Note_on_c, 1, 65, 0
3, 34217, Note_on_c, 1, 63, 71
3, 34232, Note_on_c, 1, 63, 0
3, 34232, Note_on_c, 1, 65, 71
3, 34247, Note_on_c, 1, 65, 0
3, 34247, Note_on_c, 1, 63, 71
3, 34262, Note_on_c, 1, 63, 0
3, 34262, Note_on_c, 1, 65, 72
3, 34277, Note_on_c, 1, 65, 0
3, 34277, Note_on_c, 1, 63, 72
3, 34292, Note_on_c, 1, 63, 0
3, 34292, Note_on_c, 1, 65, 72
3, 34307, Note_on_c, 1, 65, 0
3, 34307, Note_on_c, 1, 63, 72
3, 34322, Note_on_c, 1, 63, 0
3, 34322, Note_on_c, 1, 65, 73
3, 34337, Note_on_c, 1, 65, 0
3, 34337, Note_on_c, 1, 63, 73
3, 34352, Note_on_c, 1, 63, 0
3, 34352, Note_on_c, 1, 65, 73
3, 34367, Note_on_c, 1, 65, 0
3, 34367, Note_on_c, 1, 63, 73
3, 34382, Note_on_c, 1, 63, 0
3, 34382, Note_on_c, 1, 61, 74
3, 34412, Note_on_c, 1, 61, 0
3, 34412, Note_on_c, 1, 63, 74
3, 34442, Note_on_c, 1, 63, 0
3, 34442, Note_on_c, 1, 61, 75
3, 34502, Note_on_c, 1, 61, 0
3, 34502, Note_on_c, 1, 61, 76
3, 34622, Note_on_c, 1, 61, 0
3, 34622, Note_on_c, 1, 60, 78
3, 34742, Note_on_c, 1, 60, 0
3, 34742, Note_on_c, 1, 58, 80
3, 34862, Note_on_c, 1, 58, 0
3, 34862, Note_on_c, 1, 63, 82
3, 34982, Note_on_c, 1, 63, 0
3, 34982, Note_on_c, 1, 62, 84
3, 35102, Note_on_c, 1, 62, 0
3, 35102, Note_on_c, 1, 60, 86
3, 35222, Note_on_c, 1, 60, 0
3, 35222, Note_on_c, 1, 59, 88
3, 35342, Note_on_c, 1, 59, 0
3, 35342, Note_on_c, 1, 65, 90
3, 35462, Note_on_c, 1, 65, 0
3, 35462, Note_on_c, 1, 63, 92
3, 35582, Note_on_c, 1, 63, 0
3, 35582, Note_on_c, 1, 62, 94
3, 35642, Note_on_c, 1, 62, 0
3, 35642, Note_on_c, 1, 67, 100
3, 35702, Note_on_c, 1, 67, 0
3, 35702, Note_on_c, 1, 68, 100
3, 35762, Note_on_c, 1, 68, 0
3, 35762, Note_on_c, 1, 67, 100
3, 35822, Note_on_c, 1, 67, 0
3, 35822, Note_on_c, 1, 65, 100
3, 35882, Note_on_c, 1, 65, 0
3, 35882, Note_on_c, 1, 63, 100
3, 35927, Note_on_c, 1, 63, 0
3, 35942, Note_on_c, 1, 62, 100
3, 35987, Note_on_c, 1, 62, 0
3, 36002, Note_on_c, 1, 60, 100
3, 36062, Note_on_c, 1, 60, 0
3, 36062, Note_on_c, 1, 59, 100
3, 36092, Note_on_c, 1, 59, 0
3, 36092, Note_on_c, 1, 60, 100
3, 36122, Note_on_c, 1, 60, 0
3, 36122, Note_on_c, 1, 62, 100
3, 36242, Note_on_c, 1, 62, 0
3, 36362, Note_on_c, 1, 62, 100
3, 36477, Note_on_c, 1, 62, 0
3, 36482, Note_on_c, 1, 62, 100
3, 36657, Note_on_c, 1, 62, 0
3, 36662, Note_on_c, 1, 62, 100
3, 36722, Note_on_c, 1, 62, 0
3, 36722, Note_on_c, 1, 67, 100
3, 36782, Note_on_c, 1, 67, 0
3, 36782, Note_on_c, 1, 65, 100
3, 36842, Note_on_c, 1, 65, 0
3, 36842, Note_on_c, 1, 71, 100
3, 36902, Note_on_c, 1, 71, 0
3, 36902, Note_on_c, 1, 72, 100
3, 36962, Note_on_c, 1, 72, 0
3, 37562, Note_on_c, 1, 67, 70
3, 37652, Note_on_c, 1, 67, 0
3, 37682, Note_on_c, 1, 67, 70
3, 37772, Note_on_c, 1, 67, 0
3, 37802, Note_on_c, 1, 74, 70
3, 37892, Note_on_c, 1, 74, 0
3, 37922, Note_on_c, 1, 72, 70
3, 37952, Note_on_c, 1, 72, 0
3, 37952, Note_on_c, 1, 70, 70
3, 37982, Note_on_c, 1, 70, 0
3, 37982, Note_on_c, 1, 69, 70
3, 38012, Note_on_c, 1, 69, 0
3, 38012, Note_on_c, 1, 67, 70
3, 38042, Note_on_c, 1, 67, 0
3, 38042, Note_on_c, 1, 66, 70
3, 38132, Note_on_c, 1, 66, 0
3, 38162, Note_on_c, 1, 66, 70
3, 38252, Note_on_c, 1, 66, 0
3, 38282, Note_on_c, 1, 75, 70
3, 38372, Note_on_c, 1, 75, 0
3, 38402, Control_c, 1, 11, 85
3, 38443, Control_c, 1, 11, 86
3, 38462, Note_on_c, 1, 66, 70
3, 38485, Control_c, 1, 11, 87
3, 38522, Note_on_c, 1, 66, 0
3, 38522, Note_on_c, 1, 69, 70
3, 38527, Control_c, 1, 11, 88
3, 38569, Control_c, 1, 11, 89
3, 38582, Note_on_c, 1, 69, 0
3, 38582, Note_on_c, 1, 67, 70
3, 38611, Control_c, 1, 11, 90
3, 38642, Note_on_c, 1, 67, 0
3, 38653, Control_c, 1, 11, 91
3, 38695, Control_c, 1, 11, 92
3, 38702, Note_on_c, 1, 69, 70
3, 38737, Control_c, 1, 11, 93
3, 38762, Note_on_c, 1, 69, 0
3, 38762, Note_on_c, 1, 72, 70
3, 38779, Control_c, 1, 11, 94
3, 38821, Control_c, 1, 11, 95
3, 38822, Note_on_c, 1, 72, 0
3, 38822, Note_on_c, 1, 71, 71
3, 38863, Control_c, 1, 11, 96
3, 38882, Note_on_c, 1, 71, 0
3, 38882, Note_on_c, 1, 74, 72
3, 38905, Control_c, 1, 11, 97
3, 38942, Note_on_c, 1, 74, 0
3, 38942, Note_on_c, 1, 72, 73
3, 38947, Control_c, 1, 11, 98
3, 38989, Control_c, 1, 11, 99
3, 39002, Note_on_c, 1, 72, 0
3, 39002, Note_on_c, 1, 75, 75
3, 39031, Control_c, 1, 11, 100
3, 39062, Note_on_c, 1, 75, 0
3, 39062, Note_on_c, 1, 74, 76
3, 39073, Control_c, 1, 11, 101
3, 39115, Control_c, 1, 11, 102
3, 39122, Note_on_c, 1, 74, 0
3, 39122, Note_on_c, 1, 77, 77
3, 39157, Control_c, 1, 11, 103
3, 39182, Note_on_c, 1, 77, 0
3, 39182, Note_on_c, 1, 76, 78
3, 39199, Control_c, 1, 11, 104
3, 39237, Note_on_c, 1, 76, 0
3, 39241, Control_c, 1, 11, 105
3, 39242, Note_on_c, 1, 79, 80
3, 39302, Note_on_c, 1, 79, 0
3, 39302, Note_on_c, 1, 77, 81
3, 39362, Note_on_c, 1, 77, 0
3, 39362, Note_on_c, 1, 78, 82
3, 39512, Note_on_c, 1, 78, 0
3, 39512, Note_on_c, 1, 77, 77
3, 39542, Note_on_c, 1, 77, 0
3, 39542, Note_on_c, 1, 75, 76
3, 39572, Note_on_c, 1, 75, 0
3, 39572, Note_on_c, 1, 73, 75
3, 39602, Note_on_c, 1, 73, 0
3, 39602, Note_on_c, 1, 72, 74
3, 39632, Note_on_c, 1, 72, 0
3, 39632, Note_on_c, 1, 70, 73
3, 39662, Note_on_c, 1, 70, 0
3, 39662, Note_on_c, 1, 68, 72
3, 39692, Note_on_c, 1, 68, 0
3, 39692, Note_on_c, 1, 66, 71
3, 39722, Note_on_c, 1, 66, 0
3, 39722, Note_on_c, 1, 65, 70
3, 39902, Note_on_c, 1, 65, 0
3, 39902, Note_on_c, 1, 66, 64
3, 39962, Note_on_c, 1, 66, 0
3, 39962, Note_on_c, 1, 63, 62
3, 40262, Note_on_c, 1, 63, 0
3, 40262, Note_on_c, 1, 56, 61
3, 40322, Note_on_c, 1, 56, 0
3, 40322, Note_on_c, 1, 61, 62
3, 40502, Note_on_c, 1, 61, 0
3, 40502, Note_on_c, 1, 68, 66
3, 40562, Note_on_c, 1, 68, 0
3, 40562, Note_on_c, 1, 66, 67
3, 40622, Note_on_c, 1, 66, 0
3, 40622, Note_on_c, 1, 65, 68
3, 40682, Note_on_c, 1, 65, 0
3, 40682, Note_on_c, 1, 63, 70
3, 40742, Note_on_c, 1, 63, 0
3, 40742, Note_on_c, 1, 65, 71
3, 40802, Note_on_c, 1, 65, 0
3, 40802, Note_on_c, 1, 66, 72
3, 40982, Note_on_c, 1, 66, 0
3, 40982, Note_on_c, 1, 70, 76
3, 41042, Note_on_c, 1, 70, 0
3, 41042, Note_on_c, 1, 68, 77
3, 41102, Note_on_c, 1, 68, 0
3, 41102, Note_on_c, 1, 66, 78
3, 41162, Note_on_c, 1, 66, 0
3, 41162, Note_on_c, 1, 65, 80
3, 41222, Note_on_c, 1, 65, 0
3, 41222, Note_on_c, 1, 63, 81
3, 41282, Note_on_c, 1, 63, 0
3, 41282, Note_on_c, 1, 62, 82
3, 41342, Note_on_c, 1, 62, 0
3, 41342, Note_on_c, 1, 58, 83
3, 41402, Note_on_c, 1, 58, 0
3, 41402, Note_on_c, 1, 70, 85
3, 41492, Note_on_c, 1, 70, 0
3, 41522, Note_on_c, 1, 70, 87
3, 41612, Note_on_c, 1, 70, 0
3, 41642, Note_on_c, 1, 63, 90
3, 41732, Note_on_c, 1, 63, 0
3, 41762, Note_on_c, 1, 65, 100
3, 41792, Note_on_c, 1, 65, 0
3, 41792, Note_on_c, 1, 66, 100
3, 41822, Note_on_c, 1, 66, 0
3, 41822, Note_on_c, 1, 68, 100
3, 41852, Note_on_c, 1, 68, 0
3, 41852, Note_on_c, 1, 70, 100
3, 41882, Note_on_c, 1, 70, 0
3, 41882, Note_on_c, 1, 71, 100
3, 41972, Note_on_c, 1, 71, 0
3, 42002, Note_on_c, 1, 71, 100
3, 42092, Note_on_c, 1, 71, 0
3, 42122, Note_on_c, 1, 61, 97
3, 42212, Note_on_c, 1, 61, 0
3, 42242, Note_on_c, 1, 63, 93
3, 42272, Note_on_c, 1, 63, 0
3, 42272, Note_on_c, 1, 65, 92
3, 42302, Note_on_c, 1, 65, 0
3, 42302, Note_on_c, 1, 66, 91
3, 42332, Note_on_c, 1, 66, 0
3, 42332, Note_on_c, 1, 68, 90
3, 42362, Note_on_c, 1, 68, 0
3, 42362, Note_on_c, 1, 70, 90
3, 42452, Note_on_c, 1, 70, 0
3, 42482, Note_on_c, 1, 70, 86
3, 42572, Note_on_c, 1, 70, 0
3, 42602, Note_on_c, 1, 60, 82
3, 42692, Note_on_c, 1, 60, 0
3, 42722, Note_on_c, 1, 61, 79
3, 42752, Note_on_c, 1, 61, 0
3, 42752, Note_on_c, 1, 63, 78
3, 42782, Note_on_c, 1, 63, 0
3, 42782, Note_on_c, 1, 65, 77
3, 42812, Note_on_c, 1, 65, 0
3, 42812, Note_on_c, 1, 66, 76
3, 42842, Note_on_c, 1, 66, 0
3, 42842, Note_on_c, 1, 68, 75
3, 42932, Note_on_c, 1, 68, 0
3, 42962, Note_on_c, 1, 68, 71
3, 43052, Note_on_c, 1, 68, 0
3, 43082, Note_on_c, 1, 59, 68
3, 43172, Note_on_c, 1, 59, 0
3, 43202, Note_on_c, 1, 60, 60
3, 43232, Note_on_c, 1, 60, 0
3, 43232, Note_on_c, 1, 62, 61
3, 43262, Note_on_c, 1, 62, 0
3, 43262, Note_on_c, 1, 63, 63
3, 43292, Note_on_c, 1, 63, 0
3, 43292, Note_on_c, 1, 65, 65
3, 43322, Note_on_c, 1, 65, 0
3, 43322, Note_on_c, 1, 67, 66
3, 43562, Note_on_c, 1, 67, 0
3, 43562, Note_on_c, 1, 63, 80
3, 43682, Note_on_c, 1, 63, 0
3, 43742, Note_on_c, 1, 60, 100
3, 43802, Note_on_c, 1, 60, 0
3, 43802, Note_on_c, 1, 74, 100
3, 43817, Note_on_c, 1, 74, 0
3, 43817, Note_on_c, 1, 72, 100
3, 43832, Note_on_c, 1, 72, 0
3, 43832, Note_on_c, 1, 74, 100
3, 43847, Note_on_c, 1, 74, 0
3, 43847, Note_on_c, 1, 72, 100
3, 43862, Note_on_c, 1, 72, 0
3, 43862, Note_on_c, 1, 74, 100
3, 43877, Note_on_c, 1, 74, 0
3, 43877, Note_on_c, 1, 72, 100
3, 43892, Note_on_c, 1, 72, 0
3, 43892, Note_on_c, 1, 74, 100
3, 43907, Note_on_c, 1, 74, 0
3, 43907, Note_on_c, 1, 72, 100
3, 43922, Note_on_c, 1, 72, 0
3, 43922, Note_on_c, 1, 74, 100
3, 43937, Note_on_c, 1, 74, 0
3, 43937, Note_on_c, 1, 72, 100
3, 43952, Note_on_c, 1, 72, 0
3, 43952, Note_on_c, 1, 74, 100
3, 43967, Note_on_c, 1, 74, 0
3, 43967, Note_on_c, 1, 72, 100
3, 43982, Note_on_c, 1, 72, 0
3, 43982, Note_on_c, 1, 71, 100
3, 44012, Note_on_c, 1, 71, 0
3, 44012, Note_on_c, 1, 72, 100
3, 44042, Note_on_c, 1, 72, 0
3, 44042, Note_on_c, 1, 74, 100
3, 44072, Note_on_c, 1, 74, 0
3, 44072, Note_on_c, 1, 72, 100
3, 44102, Note_on_c, 1, 72, 0
3, 44102, Note_on_c, 1, 71, 100
3, 44132, Note_on_c, 1, 71, 0
3, 44132, Note_on_c, 1, 69, 100
3, 44162, Note_on_c, 1, 69, 0
3, 44162, Note_on_c, 1, 67, 100
3, 44282, Note_on_c, 1, 67, 0
3, 45962, Note_on_c, 1, 72, 92
3, 46052, Note_on_c, 1, 72, 0
3, 46082, Note_on_c, 1, 72, 93
3, 46172, Note_on_c, 1, 72, 0
3, 46202, Note_on_c, 1, 65, 93
3, 46292, Note_on_c, 1, 65, 0
3, 46322, Note_on_c, 1, 67, 94
3, 46352, Note_on_c, 1, 67, 0
3, 46352, Note_on_c, 1, 68, 95
3, 46382, Note_on_c, 1, 68, 0
3, 46382, Note_on_c, 1, 70, 95
3, 46412, Note_on_c, 1, 70, 0
3, 46412, Note_on_c, 1, 72, 95
3, 46442, Note_on_c, 1, 72, 0
3, 46442, Note_on_c, 1, 73, 95
3, 46532, Note_on_c, 1, 73, 0
3, 46562, Note_on_c, 1, 73, 96
3, 46652, Note_on_c, 1, 73, 0
3, 46682, Note_on_c, 1, 64, 97
3, 46772, Note_on_c, 1, 64, 0
3, 46862, Note_on_c, 1, 73, 98
3, 46922, Note_on_c, 1, 73, 0
3, 46922, Note_on_c, 1, 71, 99
3, 46982, Note_on_c, 1, 71, 0
3, 46982, Note_on_c, 1, 72, 99
3, 47042, Note_on_c, 1, 72, 0
3, 47102, Note_on_c, 1, 70, 100
3, 47162, Note_on_c, 1, 70, 0
3, 47162, Note_on_c, 1, 67, 101
3, 47222, Note_on_c, 1, 67, 0
3, 47222, Note_on_c, 1, 68, 101
3, 47282, Note_on_c, 1, 68, 0
3, 47282, Note_on_c, 1, 66, 101
3, 47342, Note_on_c, 1, 66, 0
3, 47342, Note_on_c, 1, 67, 102
3, 47397, Note_on_c, 1, 67, 0
3, 47402, Note_on_c, 1, 64, 102
3, 47462, Note_on_c, 1, 64, 0
3, 47462, Note_on_c, 1, 65, 103
3, 47522, Note_on_c, 1, 65, 0
3, 47642, Note_on_c, 1, 72, 104
3, 47732, Note_on_c, 1, 72, 0
3, 47762, Note_on_c, 1, 72, 105
3, 47852, Note_on_c, 1, 72, 0
3, 47882, Note_on_c, 1, 66, 106
3, 47972, Note_on_c, 1, 66, 0
3, 47972, Note_on_c, 1, 67, 107
3, 48002, Note_on_c, 1, 67, 0
3, 48002, Note_on_c, 1, 69, 107
3, 48032, Note_on_c, 1, 69, 0
3, 48032, Note_on_c, 1, 70, 107
3, 48062, Note_on_c, 1, 70, 0
3, 48062, Note_on_c, 1, 72, 107
3, 48092, Note_on_c, 1, 72, 0
3, 48092, Note_on_c, 1, 74, 107
3, 48122, Note_on_c, 1, 74, 0
3, 48122, Note_on_c, 1, 75, 108
3, 48212, Note_on_c, 1, 75, 0
3, 48242, Note_on_c, 1, 75, 109
3, 48332, Note_on_c, 1, 75, 0
3, 48362, Note_on_c, 1, 66, 110
3, 48452, Note_on_c, 1, 66, 0
3, 49082, Note_on_c, 1, 62, 103
3, 49112, Note_on_c, 1, 62, 0
3, 49112, Note_on_c, 1, 63, 103
3, 49142, Note_on_c, 1, 63, 0
3, 49142, Note_on_c, 1, 65, 103
3, 49172, Note_on_c, 1, 65, 0
3, 49172, Note_on_c, 1, 67, 102
3, 49202, Note_on_c, 1, 67, 0
3, 49202, Note_on_c, 1, 69, 102
3, 49232, Note_on_c, 1, 69, 0
3, 49232, Note_on_c, 1, 71, 102
3, 49262, Note_on_c, 1, 71, 0
3, 49262, Note_on_c, 1, 72, 101
3, 49292, Note_on_c, 1, 72, 0
3, 49292, Note_on_c, 1, 74, 101
3, 49322, Note_on_c, 1, 74, 0
3, 49322, Note_on_c, 1, 75, 100
3, 49382, Note_on_c, 1, 75, 0
3, 49382, Note_on_c, 1, 79, 100
3, 49427, Note_on_c, 1, 79, 0
3, 49442, Note_on_c, 1, 79, 100
3, 49487, Note_on_c, 1, 79, 0
3, 49502, Note_on_c, 1, 79, 100
3, 49547, Note_on_c, 1, 79, 0
3, 49562, Note_on_c, 1, 80, 100
3, 49577, Note_on_c, 1, 80, 0
3, 49577, Note_on_c, 1, 79, 100
3, 49592, Note_on_c, 1, 79, 0
3, 49592, Note_on_c, 1, 80, 100
3, 49607, Note_on_c, 1, 80, 0
3, 49607, Note_on_c, 1, 79, 100
3, 49622, Note_on_c, 1, 79, 0
3, 49622, Note_on_c, 1, 80, 100
3, 49637, Note_on_c, 1, 80, 0
3, 49637, Note_on_c, 1, 79, 100
3, 49652, Note_on_c, 1, 79, 0
3, 49652, Note_on_c, 1, 80, 100
3, 49667, Note_on_c, 1, 80, 0
3, 49667, Note_on_c, 1, 79, 100
3, 49682, Note_on_c, 1, 79, 0
3, 49682, Note_on_c, 1, 80, 100
3, 49697, Note_on_c, 1, 80, 0
3, 49697, Note_on_c, 1, 79, 100
3, 49712, Note_on_c, 1, 79, 0
3, 49712, Note_on_c, 1, 80, 100
3, 49727, Note_on_c, 1, 80, 0
3, 49727, Note_on_c, 1, 79, 100
3, 49742, Note_on_c, 1, 79, 0
3, 49742, Note_on_c, 1, 78, 100
3, 49772, Note_on_c, 1, 78, 0
3, 49772, Note_on_c, 1, 79, 100
3, 49802, Note_on_c, 1, 79, 0
3, 49802, Note_on_c, 1, 67, 100
3, 49892, Note_on_c, 1, 67, 0
3, 49922, Note_on_c, 1, 64, 100
3, 50042, Note_on_c, 1, 64, 0
3, 50042, Note_on_c, 1, 65, 100
3, 50162, Note_on_c, 1, 65, 0
3, 50162, Note_on_c, 1, 70, 100
3, 50282, Note_on_c, 1, 70, 0
3, 50282, Note_on_c, 1, 68, 100
3, 50402, Note_on_c, 1, 68, 0
3, 50462, Note_on_c, 1, 75, 80
3, 50522, Note_on_c, 1, 75, 0
3, 50522, Note_on_c, 1, 73, 80
3, 50582, Note_on_c, 1, 73, 0
3, 50582, Note_on_c, 1, 74, 81
3, 50642, Note_on_c, 1, 74, 0
3, 50642, Note_on_c, 1, 71, 82
3, 50702, Note_on_c, 1, 71, 0
3, 50702, Note_on_c, 1, 72, 83
3, 50757, Note_on_c, 1, 72, 0
3, 50762, Note_on_c, 1, 69, 84
3, 50822, Note_on_c, 1, 69, 0
3, 50822, Note_on_c, 1, 70, 85
3, 50877, Note_on_c, 1, 70, 0
3, 50882, Note_on_c, 1, 62, 86
3, 51002, Note_on_c, 1, 62, 0
3, 51002, Note_on_c, 1, 63, 88
3, 51122, Note_on_c, 1, 63, 0
3, 51122, Note_on_c, 1, 68, 89
3, 51242, Note_on_c, 1, 68, 0
3, 51242, Note_on_c, 1, 67, 91
3, 51362, Note_on_c, 1, 67, 0
3, 51362, Note_on_c, 1, 63, 93
3, 51542, Note_on_c, 1, 63, 0
3, 51542, Note_on_c, 1, 63, 96
3, 51587, Note_on_c, 1, 63, 0
3, 51602, Note_on_c, 1, 63, 96
3, 51662, Note_on_c, 1, 63, 0
3, 51662, Note_on_c, 1, 64, 97
3, 51722, Note_on_c, 1, 64, 0
3, 51722, Note_on_c, 1, 67, 98
3, 51737, Note_on_c, 1, 67, 0
3, 51737, Note_on_c, 1, 65, 98
3, 51752, Note_on_c, 1, 65, 0
3, 51752, Note_on_c, 1, 67, 99
3, 51767, Note_on_c, 1, 67, 0
3, 51767, Note_on_c, 1, 65, 99
3, 51782, Note_on_c, 1, 65, 0
3, 51782, Note_on_c, 1, 67, 99
3, 51797, Note_on_c, 1, 67, 0
3, 51797, Note_on_c, 1, 65, 99
3, 51812, Note_on_c, 1, 65, 0
3, 51812, Note_on_c, 1, 67, 100
3, 51827, Note_on_c, 1, 67, 0
3, 51827, Note_on_c, 1, 65, 100
3, 51842, Note_on_c, 1, 65, 0
3, 51842, Note_on_c, 1, 67, 100
3, 51857, Note_on_c, 1, 67, 0
3, 51857, Note_on_c, 1, 65, 100
3, 51872, Note_on_c, 1, 65, 0
3, 51872, Note_on_c, 1, 67, 100
3, 51887, Note_on_c, 1, 67, 0
3, 51887, Note_on_c, 1, 65, 101
3, 51902, Note_on_c, 1, 65, 0
3, 51902, Note_on_c, 1, 64, 101
3, 51932, Note_on_c, 1, 64, 0
3, 51932, Note_on_c, 1, 65, 101
3, 51962, Note_on_c, 1, 65, 0
3, 51962, Note_on_c, 1, 65, 102
3, 52007, Note_on_c, 1, 65, 0
3, 52022, Note_on_c, 1, 65, 103
3, 52067, Note_on_c, 1, 65, 0
3, 52082, Note_on_c, 1, 65, 104
3, 52142, Note_on_c, 1, 65, 0
3, 52142, Note_on_c, 1, 66, 104
3, 52202, Note_on_c, 1, 66, 0
3, 52202, Note_on_c, 1, 68, 105
3, 52217, Note_on_c, 1, 68, 0
3, 52217, Note_on_c, 1, 67, 106
3, 52232, Note_on_c, 1, 67, 0
3, 52232, Note_on_c, 1, 68, 106
3, 52247, Note_on_c, 1, 68, 0
3, 52247, Note_on_c, 1, 67, 106
3, 52262, Note_on_c, 1, 67, 0
3, 52262, Note_on_c, 1, 68, 106
3, 52277, Note_on_c, 1, 68, 0
3, 52277, Note_on_c, 1, 67, 106
3, 52292, Note_on_c, 1, 67, 0
3, 52292, Note_on_c, 1, 68, 107
3, 52307, Note_on_c, 1, 68, 0
3, 52307, Note_on_c, 1, 67, 107
3, 52322, Note_on_c, 1, 67, 0
3, 52322, Note_on_c, 1, 68, 107
3, 52337, Note_on_c, 1, 68, 0
3, 52337, Note_on_c, 1, 67, 107
3, 52352, Note_on_c, 1, 67, 0
3, 52352, Note_on_c, 1, 68, 108
3, 52367, Note_on_c, 1, 68, 0
3, 52367, Note_on_c, 1, 67, 108
3, 52382, Note_on_c, 1, 67, 0
3, 52382, Note_on_c, 1, 66, 108
3, 52412, Note_on_c, 1, 66, 0
3, 52412, Note_on_c, 1, 67, 108
3, 52442, Note_on_c, 1, 67, 0
3, 52442, Note_on_c, 1, 67, 109
3, 52487, Note_on_c, 1, 67, 0
3, 52502, Note_on_c, 1, 67, 110
3, 52547, Note_on_c, 1, 67, 0
3, 52562, Note_on_c, 1, 67, 111
3, 52607, Note_on_c, 1, 67, 0
3, 52622, Note_on_c, 1, 67, 112
3, 52667, Note_on_c, 1, 67, 0
3, 52682, Note_on_c, 1, 68, 112
3, 52697, Note_on_c, 1, 68, 0
3, 52697, Note_on_c, 1, 67, 113
3, 52712, Note_on_c, 1, 67, 0
3, 52712, Note_on_c, 1, 68, 113
3, 52727, Note_on_c, 1, 68, 0
3, 52727, Note_on_c, 1, 67, 113
3, 52742, Note_on_c, 1, 67, 0
3, 52742, Note_on_c, 1, 68, 113
3, 52757, Note_on_c, 1, 68, 0
3, 52757, Note_on_c, 1, 67, 114
3, 52772, Note_on_c, 1, 67, 0
3, 52772, Note_on_c, 1, 68, 114
3, 52787, Note_on_c, 1, 68, 0
3, 52787, Note_on_c, 1, 67, 114
3, 52802, Note_on_c, 1, 67, 0
3, 52802, Note_on_c, 1, 68, 114
3, 52817, Note_on_c, 1, 68, 0
3, 52817, Note_on_c, 1, 67, 114
3, 52832, Note_on_c, 1, 67, 0
3, 52832, Note_on_c, 1, 68, 115
3, 52847, Note_on_c, 1, 68, 0
3, 52847, Note_on_c, 1, 67, 115
3, 52862, Note_on_c, 1, 67, 0
3, 52862, Note_on_c, 1, 65, 115
3, 52892, Note_on_c, 1, 65, 0
3, 52892, Note_on_c, 1, 67, 116
3, 52922, Note_on_c, 1, 67, 0
3, 52922, Note_on_c, 1, 60, 116
3, 52982, Note_on_c, 1, 60, 0
3, 52982, Note_on_c, 1, 75, 117
3, 53042, Note_on_c, 1, 75, 0
3, 53042, Note_on_c, 1, 74, 118
3, 53102, Note_on_c, 1, 74, 0
3, 53102, Note_on_c, 1, 72, 119
3, 53162, Note_on_c, 1, 72, 0
3, 53162, Note_on_c, 1, 71, 120
3, 53282, Note_on_c, 1, 71, 0
3, 53642, Note_on_c, 1, 60, 120
3, 53732, Note_on_c, 1, 60, 0
3, 53762, Note_on_c, 1, 60, 120
3, 53852, Note_on_c, 1, 60, 0
3, 53882, Note_on_c, 1, 67, 120
3, 53972, Note_on_c, 1, 67, 0
3, 54002, Note_on_c, 1, 65, 120
3, 54032, Note_on_c, 1, 65, 0
3, 54032, Note_on_c, 1, 63, 120
3, 54062, Note_on_c, 1, 63, 0
3, 54062, Note_on_c, 1, 62, 120
3, 54092, Note_on_c, 1, 62, 0
3, 54092, Note_on_c, 1, 60, 120
3, 54122, Note_on_c, 1, 60, 0
3, 54122, Note_on_c, 1, 59, 120
3, 54212, Note_on_c, 1, 59, 0
3, 54242, Note_on_c, 1, 59, 120
3, 54332, Note_on_c, 1, 59, 0
3, 54362, Note_on_c, 1, 68, 120
3, 54452, Note_on_c, 1, 68, 0
3, 54542, Note_on_c, 1, 59, 120
3, 54602, Note_on_c, 1, 59, 0
3, 54602, Note_on_c, 1, 62, 120
3, 54662, Note_on_c, 1, 62, 0
3, 54662, Note_on_c, 1, 60, 120
3, 54722, Note_on_c, 1, 60, 0
3, 54782, Note_on_c, 1, 62, 120
3, 54842, Note_on_c, 1, 62, 0
3, 54842, Note_on_c, 1, 65, 118
3, 54902, Note_on_c, 1, 65, 0
3, 54902, Note_on_c, 1, 63, 116
3, 54962, Note_on_c, 1, 63, 0
3, 54962, Note_on_c, 1, 67, 114
3, 55022, Note_on_c, 1, 67, 0
3, 55022, Note_on_c, 1, 65, 111
3, 55077, Note_on_c, 1, 65, 0
3, 55082, Note_on_c, 1, 68, 109
3, 55142, Note_on_c, 1, 68, 0
3, 55142, Note_on_c, 1, 67, 107
3, 55202, Note_on_c, 1, 67, 0
3, 55202, Note_on_c, 1, 70, 104
3, 55262, Note_on_c, 1, 70, 0
3, 55262, Note_on_c, 1, 68, 102
3, 55322, Note_on_c, 1, 68, 0
3, 55322, Note_on_c, 1, 67, 100
3, 55442, Note_on_c, 1, 67, 0
3, 55442, Note_on_c, 1, 64, 95
3, 55557, Note_on_c, 1, 64, 0
3, 55562, Note_on_c, 1, 65, 90
3, 55652, Note_on_c, 1, 65, 0
3, 55682, Note_on_c, 1, 68, 90
3, 55862, Note_on_c, 1, 68, 0
3, 55862, Note_on_c, 1, 70, 92
3, 55892, Note_on_c, 1, 70, 0
3, 55892, Note_on_c, 1, 72, 92
3, 55922, Note_on_c, 1, 72, 0
3, 55922, Note_on_c, 1, 73, 92
3, 55952, Note_on_c, 1, 73, 0
3, 55952, Note_on_c, 1, 72, 93
3, 55982, Note_on_c, 1, 72, 0
3, 55982, Note_on_c, 1, 70, 93
3, 56012, Note_on_c, 1, 70, 0
3, 56012, Note_on_c, 1, 68, 93
3, 56042, Note_on_c, 1, 68, 0
3, 56042, Note_on_c, 1, 67, 94
3, 56097, Note_on_c, 1, 67, 0
3, 56102, Note_on_c, 1, 67, 94
3, 56147, Note_on_c, 1, 67, 0
3, 56162, Note_on_c, 1, 67, 95
3, 56207, Note_on_c, 1, 67, 0
3, 56222, Note_on_c, 1, 67, 96
3, 56267, Note_on_c, 1, 67, 0
3, 56282, Note_on_c, 1, 68, 96
3, 56297, Note_on_c, 1, 68, 0
3, 56297, Note_on_c, 1, 67, 97
3, 56312, Note_on_c, 1, 67, 0
3, 56312, Note_on_c, 1, 68, 97
3, 56327, Note_on_c, 1, 68, 0
3, 56327, Note_on_c, 1, 67, 97
3, 56342, Note_on_c, 1, 67, 0
3, 56342, Note_on_c, 1, 68, 97
3, 56357, Note_on_c, 1, 68, 0
3, 56357, Note_on_c, 1, 67, 97
3, 56372, Note_on_c, 1, 67, 0
3, 56372, Note_on_c, 1, 68, 98
3, 56387, Note_on_c, 1, 68, 0
3, 56387, Note_on_c, 1, 67, 98
3, 56402, Note_on_c, 1, 67, 0
3, 56402, Note_on_c, 1, 68, 98
3, 56417, Note_on_c, 1, 68, 0
3, 56417, Note_on_c, 1, 67, 98
3, 56432, Note_on_c, 1, 67, 0
3, 56432, Note_on_c, 1, 68, 98
3, 56447, Note_on_c, 1, 68, 0
3, 56447, Note_on_c, 1, 67, 98
3, 56462, Note_on_c, 1, 67, 0
3, 56462, Note_on_c, 1, 65, 99
3, 56492, Note_on_c, 1, 65, 0
3, 56492, Note_on_c, 1, 67, 99
3, 56522, Note_on_c, 1, 67, 0
3, 56522, Note_on_c, 1, 65, 99
3, 56612, Note_on_c, 1, 65, 0
3, 56642, Note_on_c, 1, 65, 101
3, 56732, Note_on_c, 1, 65, 0
3, 56762, Note_on_c, 1, 72, 102
3, 56852, Note_on_c, 1, 72, 0
3, 56882, Note_on_c, 1, 70, 103
3, 56912, Note_on_c, 1, 70, 0
3, 56912, Note_on_c, 1, 68, 104
3, 56942, Note_on_c, 1, 68, 0
3, 56942, Note_on_c, 1, 67, 104
3, 56972, Note_on_c, 1, 67, 0
3, 56972, Note_on_c, 1, 65, 105
3, 57002, Note_on_c, 1, 65, 0
3, 57002, Note_on_c, 1, 63, 105
3, 57092, Note_on_c, 1, 63, 0
3, 57122, Note_on_c, 1, 63, 106
3, 57212, Note_on_c, 1, 63, 0
3, 57242, Note_on_c, 1, 73, 108
3, 57332, Note_on_c, 1, 73, 0
3, 57422, Note_on_c, 1, 63, 110
3, 57482, Note_on_c, 1, 63, 0
3, 57482, Note_on_c, 1, 66, 110
3, 57542, Note_on_c, 1, 66, 0
3, 57542, Note_on_c, 1, 65, 111
3, 57602, Note_on_c, 1, 65, 0
3, 57662, Note_on_c, 1, 65, 113
3, 57722, Note_on_c, 1, 65, 0
3, 57722, Note_on_c, 1, 68, 113
3, 57782, Note_on_c, 1, 68, 0
3, 57782, Note_on_c, 1, 67, 114
3, 57842, Note_on_c, 1, 67, 0
3, 57902, Note_on_c, 1, 67, 115
3, 57962, Note_on_c, 1, 67, 0
3, 57962, Note_on_c, 1, 70, 116
3, 58022, Note_on_c, 1, 70, 0
3, 58022, Note_on_c, 1, 69, 117
3, 58082, Note_on_c, 1, 69, 0
3, 58142, Note_on_c, 1, 79, 118
3, 58202, Note_on_c, 1, 79, 0
3, 58202, Note_on_c, 1, 67, 119
3, 58262, Note_on_c, 1, 67, 0
3, 58262, Note_on_c, 1, 66, 120
3, 58322, Note_on_c, 1, 66, 0
3, 58442, Note_on_c, 1, 74, 80
3, 58532, Note_on_c, 1, 74, 0
3, 58562, Note_on_c, 1, 74, 82
3, 58652, Note_on_c, 1, 74, 0
3, 58682, Note_on_c, 1, 67, 84
3, 58772, Note_on_c, 1, 67, 0
3, 58802, Note_on_c, 1, 69, 86
3, 58832, Note_on_c, 1, 69, 0
3, 58832, Note_on_c, 1, 70, 86
3, 58862, Note_on_c, 1, 70, 0
3, 58862, Note_on_c, 1, 72, 87
3, 58892, Note_on_c, 1, 72, 0
3, 58892, Note_on_c, 1, 74, 87
3, 58922, Note_on_c, 1, 74, 0
3, 58922, Note_on_c, 1, 75, 88
3, 59012, Note_on_c, 1, 75, 0
3, 59042, Note_on_c, 1, 75, 90
3, 59132, Note_on_c, 1, 75, 0
3, 59162, Note_on_c, 1, 66, 92
3, 59252, Note_on_c, 1, 66, 0
3, 59342, Note_on_c, 1, 75, 95
3, 59402, Note_on_c, 1, 75, 0
3, 59402, Note_on_c, 1, 73, 96
3, 59462, Note_on_c, 1, 73, 0
3, 59462, Note_on_c, 1, 74, 97
3, 59522, Note_on_c, 1, 74, 0
3, 59582, Note_on_c, 1, 72, 99
3, 59642, Note_on_c, 1, 72, 0
3, 59642, Note_on_c, 1, 69, 100
3, 59702, Note_on_c, 1, 69, 0
3, 59702, Note_on_c, 1, 70, 101
3, 59762, Note_on_c, 1, 70, 0
3, 59762, Note_on_c, 1, 72, 102
3, 59822, Note_on_c, 1, 72, 0
3, 59822, Note_on_c, 1, 73, 103
3, 59882, Note_on_c, 1, 73, 0
3, 59882, Note_on_c, 1, 74, 105
3, 60002, Note_on_c, 1, 74, 0
3, 60002, Note_on_c, 1, 75, 105
3, 60032, Note_on_c, 1, 75, 0
3, 60032, Note_on_c, 1, 74, 105
3, 60062, Note_on_c, 1, 74, 0
3, 60062, Note_on_c, 1, 72, 105
3, 60092, Note_on_c, 1, 72, 0
3, 60092, Note_on_c, 1, 70, 105
3, 60122, Note_on_c, 1, 70, 0
3, 60122, Note_on_c, 1, 69, 105
3, 60212, Note_on_c, 1, 69, 0
3, 60242, Note_on_c, 1, 69, 105
3, 60422, Note_on_c, 1, 69, 0
3, 60422, Note_on_c, 1, 69, 105
3, 60482, Note_on_c, 1, 69, 0
3, 60482, Note_on_c, 1, 75, 105
3, 60542, Note_on_c, 1, 75, 0
3, 60542, Note_on_c, 1, 74, 105
3, 60602, Note_on_c, 1, 74, 0
3, 60662, Note_on_c, 1, 67, 105
3, 60722, Note_on_c, 1, 67, 0
3, 60722, Note_on_c, 1, 71, 105
3, 60782, Note_on_c, 1, 71, 0
3, 60782, Note_on_c, 1, 72, 105
3, 60842, Note_on_c, 1, 72, 0
3, 60842, Note_on_c, 1, 75, 105
3, 60902, Note_on_c, 1, 75, 0
3, 60902, Note_on_c, 1, 74, 105
3, 60962, Note_on_c, 1, 74, 0
3, 61022, Note_on_c, 1, 68, 105
3, 61082, Note_on_c, 1, 68, 0
3, 61082, Note_on_c, 1, 63, 105
3, 61142, Note_on_c, 1, 63, 0
3, 61142, Note_on_c, 1, 62, 105
3, 61202, Note_on_c, 1, 62, 0
3, 61202, Note_on_c, 1, 68, 105
3, 61292, Note_on_c, 1, 68, 0
3, 61322, Note_on_c, 1, 67, 105
3, 61412, Note_on_c, 1, 67, 0
3, 61502, Note_on_c, 1, 65, 105
3, 61562, Note_on_c, 1, 65, 0
3, 61562, Note_on_c, 1, 68, 105
3, 61622, Note_on_c, 1, 68, 0
3, 61622, Note_on_c, 1, 67, 105
3, 61682, Note_on_c, 1, 67, 0
3, 61742, Note_on_c, 1, 68, 105
3, 61802, Note_on_c, 1, 68, 0
3, 61802, Note_on_c, 1, 72, 105
3, 61862, Note_on_c, 1, 72, 0
3, 61862, Note_on_c, 1, 71, 105
3, 61982, Note_on_c, 1, 71, 0
3, 61982, Note_on_c, 1, 77, 105
3, 62042, Note_on_c, 1, 77, 0
3, 62042, Note_on_c, 1, 75, 100
3, 62102, Note_on_c, 1, 75, 0
3, 62102, Note_on_c, 1, 67, 95
3, 62147, Note_on_c, 1, 67, 0
3, 62162, Note_on_c, 1, 68, 90
3, 62252, Note_on_c, 1, 68, 0
3, 62282, Note_on_c, 1, 62, 80
3, 62372, Note_on_c, 1, 62, 0
3, 62522, Note_on_c, 1, 67, 100
3, 62612, Note_on_c, 1, 67, 0
3, 62642, Note_on_c, 1, 67, 100
3, 62732, Note_on_c, 1, 67, 0
3, 62762, Note_on_c, 1, 60, 100
3, 62852, Note_on_c, 1, 60, 0
3, 62882, Note_on_c, 1, 62, 100
3, 62912, Note_on_c, 1, 62, 0
3, 62912, Note_on_c, 1, 63, 100
3, 62942, Note_on_c, 1, 63, 0
3, 62942, Note_on_c, 1, 65, 100
3, 62972, Note_on_c, 1, 65, 0
3, 62972, Note_on_c, 1, 67, 100
3, 63002, Note_on_c, 1, 67, 0
3, 63002, Note_on_c, 1, 68, 100
3, 63092, Note_on_c, 1, 68, 0
3, 63122, Note_on_c, 1, 68, 100
3, 63212, Note_on_c, 1, 68, 0
3, 63242, Note_on_c, 1, 59, 100
3, 63332, Note_on_c, 1, 59, 0
3, 63422, Note_on_c, 1, 68, 100
3, 63482, Note_on_c, 1, 68, 0
3, 63482, Note_on_c, 1, 66, 100
3, 63542, Note_on_c, 1, 66, 0
3, 63542, Note_on_c, 1, 67, 100
3, 63602, Note_on_c, 1, 67, 0
3, 63602, Note_on_c, 1, 64, 100
3, 63662, Note_on_c, 1, 64, 0
3, 63662, Note_on_c, 1, 65, 100
3, 63722, Note_on_c, 1, 65, 0
3, 63722, Note_on_c, 1, 57, 100
3, 63842, Note_on_c, 1, 57, 0
3, 64262, Note_on_c, 1, 67, 100
3, 64307, Note_on_c, 1, 67, 0
3, 64322, Note_on_c, 1, 67, 100
3, 64367, Note_on_c, 1, 67, 0
3, 64382, Note_on_c, 1, 67, 100
3, 64427, Note_on_c, 1, 67, 0
3, 64442, Note_on_c, 1, 68, 100
3, 64457, Note_on_c, 1, 68, 0
3, 64457, Note_on_c, 1, 67, 100
3, 64472, Note_on_c, 1, 67, 0
3, 64472, Note_on_c, 1, 68, 100
3, 64487, Note_on_c, 1, 68, 0
3, 64487, Note_on_c, 1, 67, 100
3, 64502, Note_on_c, 1, 67, 0
3, 64502, Note_on_c, 1, 68, 100
3, 64517, Note_on_c, 1, 68, 0
3, 64517, Note_on_c, 1, 67, 100
3, 64532, Note_on_c, 1, 67, 0
3, 64532, Note_on_c, 1, 68, 100
3, 64547, Note_on_c, 1, 68, 0
3, 64547, Note_on_c, 1, 67, 100
3, 64562, Note_on_c, 1, 67, 0
3, 64562, Note_on_c, 1, 68, 100
3, 64577, Note_on_c, 1, 68, 0
3, 64577, Note_on_c, 1, 67, 100
3, 64592, Note_on_c, 1, 67, 0
3, 64592, Note_on_c, 1, 68, 100
3, 64607, Note_on_c, 1, 68, 0
3, 64607, Note_on_c, 1, 67, 100
3, 64622, Note_on_c, 1, 67, 0
3, 64622, Note_on_c, 1, 66, 100
3, 64652, Note_on_c, 1, 66, 0
3, 64652, Note_on_c, 1, 67, 100
3, 64682, Note_on_c, 1, 67, 0
3, 64682, Note_on_c, 1, 60, 80
3, 64772, Note_on_c, 1, 60, 0
3, 64802, Note_on_c, 1, 60, 82
3, 64892, Note_on_c, 1, 60, 0
3, 64922, Note_on_c, 1, 67, 85
3, 65012, Note_on_c, 1, 67, 0
3, 65042, Note_on_c, 1, 65, 87
3, 65072, Note_on_c, 1, 65, 0
3, 65072, Note_on_c, 1, 63, 88
3, 65102, Note_on_c, 1, 63, 0
3, 65102, Note_on_c, 1, 62, 88
3, 65132, Note_on_c, 1, 62, 0
3, 65132, Note_on_c, 1, 60, 89
3, 65162, Note_on_c, 1, 60, 0
3, 65162, Note_on_c, 1, 59, 90
3, 65252, Note_on_c, 1, 59, 0
3, 65282, Note_on_c, 1, 59, 92
3, 65372, Note_on_c, 1, 59, 0
3, 65402, Note_on_c, 1, 68, 95
3, 65492, Note_on_c, 1, 68, 0
3, 65582, Note_on_c, 1, 59, 100
3, 65642, Note_on_c, 1, 59, 0
3, 65642, Note_on_c, 1, 61, 100
3, 65702, Note_on_c, 1, 61, 0
3, 65702, Note_on_c, 1, 60, 100
3, 65762, Note_on_c, 1, 60, 0
3, 65762, Note_on_c, 1, 72, 100
3, 65942, Note_on_c, 1, 72, 0
3, 65942, Note_on_c, 1, 70, 100
3, 65962, Note_on_c, 1, 70, 0
3, 65972, Note_on_c, 1, 72, 100
3, 65992, Note_on_c, 1, 72, 0
3, 66002, Note_on_c, 1, 73, 100
3, 66022, Note_on_c, 1, 73, 0
3, 66032, Note_on_c, 1, 72, 100
3, 66052, Note_on_c, 1, 72, 0
3, 66062, Note_on_c, 1, 70, 100
3, 66082, Note_on_c, 1, 70, 0
3, 66092, Note_on_c, 1, 68, 100
3, 66112, Note_on_c, 1, 68, 0
3, 66122, Note_on_c, 1, 67, 100
3, 66167, Note_on_c, 1, 67, 0
3, 66182, Note_on_c, 1, 67, 100
3, 66202, Note_on_c, 1, 67, 0
3, 66212, Note_on_c, 1, 68, 100
3, 66232, Note_on_c, 1, 68, 0
3, 66242, Note_on_c, 1, 70, 100
3, 66262, Note_on_c, 1, 70, 0
3, 66272, Note_on_c, 1, 68, 100
3, 66292, Note_on_c, 1, 68, 0
3, 66302, Note_on_c, 1, 67, 100
3, 66322, Note_on_c, 1, 67, 0
3, 66332, Note_on_c, 1, 65, 100
3, 66352, Note_on_c, 1, 65, 0
3, 66362, Note_on_c, 1, 64, 100
3, 66452, Note_on_c, 1, 64, 0
3, 66482, Note_on_c, 1, 64, 100
3, 66572, Note_on_c, 1, 64, 0
3, 66602, Note_on_c, 1, 73, 100
3, 66692, Note_on_c, 1, 73, 0
3, 66902, Note_on_c, 1, 67, 100
3, 66962, Note_on_c, 1, 67, 0
3, 66962, Note_on_c, 1, 70, 100
3, 67022, Note_on_c, 1, 70, 0
3, 67022, Note_on_c, 1, 67, 100
3, 67082, Note_on_c, 1, 67, 0
3, 67142, Note_on_c, 1, 69, 100
3, 67162, Note_on_c, 1, 69, 0
3, 67172, Note_on_c, 1, 70, 100
3, 67192, Note_on_c, 1, 70, 0
3, 67202, Note_on_c, 1, 72, 100
3, 67222, Note_on_c, 1, 72, 0
3, 67232, Note_on_c, 1, 70, 100
3, 67252, Note_on_c, 1, 70, 0
3, 67262, Note_on_c, 1, 69, 100
3, 67282, Note_on_c, 1, 69, 0
3, 67292, Note_on_c, 1, 67, 100
3, 67312, Note_on_c, 1, 67, 0
3, 67322, Note_on_c, 1, 66, 100
3, 67367, Note_on_c, 1, 66, 0
3, 67382, Note_on_c, 1, 78, 100
3, 67427, Note_on_c, 1, 78, 0
3, 67442, Note_on_c, 1, 78, 100
3, 67487, Note_on_c, 1, 78, 0
3, 67502, Note_on_c, 1, 78, 100
3, 67547, Note_on_c, 1, 78, 0
3, 67622, Note_on_c, 1, 65, 100
3, 67642, Note_on_c, 1, 65, 0
3, 67652, Note_on_c, 1, 67, 100
3, 67672, Note_on_c, 1, 67, 0
3, 67682, Note_on_c, 1, 68, 100
3, 67702, Note_on_c, 1, 68, 0
3, 67712, Note_on_c, 1, 67, 100
3, 67732, Note_on_c, 1, 67, 0
3, 67742, Note_on_c, 1, 65, 100
3, 67762, Note_on_c, 1, 65, 0
3, 67772, Note_on_c, 1, 63, 100
3, 67792, Note_on_c, 1, 63, 0
3, 67802, Note_on_c, 1, 62, 100
3, 67847, Note_on_c, 1, 62, 0
3, 67862, Note_on_c, 1, 65, 100
3, 67922, Note_on_c, 1, 65, 0
3, 67922, Note_on_c, 1, 68, 100
3, 67982, Note_on_c, 1, 68, 0
3, 67982, Note_on_c, 1, 65, 100
3, 68037, Note_on_c, 1, 65, 0
3, 68042, Note_on_c, 1, 67, 100
3, 68132, Note_on_c, 1, 67, 0
3, 68162, Note_on_c, 1, 67, 100
3, 68252, Note_on_c, 1, 67, 0
3, 68282, Note_on_c, 1, 60, 100
3, 68372, Note_on_c, 1, 60, 0
3, 68402, Note_on_c, 1, 62, 100
3, 68432, Note_on_c, 1, 62, 0
3, 68432, Note_on_c, 1, 63, 100
3, 68462, Note_on_c, 1, 63, 0
3, 68462, Note_on_c, 1, 65, 100
3, 68492, Note_on_c, 1, 65, 0
3, 68492, Note_on_c, 1, 67, 100
3, 68522, Note_on_c, 1, 67, 0
3, 68522, Note_on_c, 1, 68, 100
3, 68567, Note_on_c, 1, 68, 0
3, 68582, Note_on_c, 1, 65, 100
3, 68627, Note_on_c, 1, 65, 0
3, 68642, Note_on_c, 1, 65, 100
3, 68687, Note_on_c, 1, 65, 0
3, 68702, Note_on_c, 1, 65, 100
3, 68747, Note_on_c, 1, 65, 0
3, 68762, Note_on_c, 1, 67, 100
3, 68777, Note_on_c, 1, 67, 0
3, 68777, Note_on_c, 1, 65, 100
3, 68792, Note_on_c, 1, 65, 0
3, 68792, Note_on_c, 1, 67, 100
3, 68807, Note_on_c, 1, 67, 0
3, 68807, Note_on_c, 1, 65, 100
3, 68822, Note_on_c, 1, 65, 0
3, 68822, Note_on_c, 1, 67, 100
3, 68837, Note_on_c, 1, 67, 0
3, 68837, Note_on_c, 1, 65, 100
3, 68852, Note_on_c, 1, 65, 0
3, 68852, Note_on_c, 1, 67, 100
3, 68867, Note_on_c, 1, 67, 0
3, 68867, Note_on_c, 1, 65, 100
3, 68882, Note_on_c, 1, 65, 0
3, 68882, Note_on_c, 1, 67, 100
3, 68897, Note_on_c, 1, 67, 0
3, 68897, Note_on_c, 1, 65, 100
3, 68912, Note_on_c, 1, 65, 0
3, 68912, Note_on_c, 1, 67, 100
3, 68927, Note_on_c, 1, 67, 0
3, 68927, Note_on_c, 1, 65, 100
3, 68942, Note_on_c, 1, 65, 0
3, 68942, Note_on_c, 1, 67, 100
3, 68972, Note_on_c, 1, 67, 0
3, 68972, Note_on_c, 1, 65, 100
3, 69002, Note_on_c, 1, 65, 0
3, 69002, Note_on_c, 1, 64, 100
3, 69122, Note_on_c, 1, 64, 0
3, 69122, Note_on_c, 1, 63, 100
3, 69302, Note_on_c, 1, 63, 0
3, 69302, Note_on_c, 1, 75, 100
3, 69422, Note_on_c, 1, 75, 0
3, 69422, Note_on_c, 1, 74, 100
3, 69452, Note_on_c, 1, 74, 0
3, 69452, Note_on_c, 1, 72, 100
3, 69482, Note_on_c, 1, 72, 0
3, 69482, Note_on_c, 1, 77, 100
3, 69527, Note_on_c, 1, 77, 0
3, 69542, Note_on_c, 1, 74, 100
3, 69587, Note_on_c, 1, 74, 0
3, 69602, Note_on_c, 1, 72, 100
3, 69647, Note_on_c, 1, 72, 0
3, 69662, Note_on_c, 1, 76, 100
3, 69707, Note_on_c, 1, 76, 0
3, 69722, Note_on_c, 1, 72, 100
3, 69752, Note_on_c, 1, 72, 0
3, 69752, Note_on_c, 1, 75, 100
3, 69777, Note_on_c, 1, 75, 0
3, 69782, Note_on_c, 1, 75, 100
3, 69807, Note_on_c, 1, 75, 0
3, 69812, Note_on_c, 1, 75, 100
3, 69837, Note_on_c, 1, 75, 0
3, 69842, Note_on_c, 1, 71, 100
3, 69872, Note_on_c, 1, 71, 0
3, 69872, Note_on_c, 1, 74, 100
3, 69897, Note_on_c, 1, 74, 0
3, 69902, Note_on_c, 1, 74, 100
3, 69927, Note_on_c, 1, 74, 0
3, 69932, Note_on_c, 1, 74, 100
3, 69957, Note_on_c, 1, 74, 0
3, 69962, Note_on_c, 1, 75, 100
3, 69992, Note_on_c, 1, 75, 0
3, 69992, Note_on_c, 1, 84, 100
3, 70017, Note_on_c, 1, 84, 0
3, 70022, Note_on_c, 1, 84, 100
3, 70047, Note_on_c, 1, 84, 0
3, 70052, Note_on_c, 1, 84, 100
3, 70077, Note_on_c, 1, 84, 0
3, 70082, Note_on_c, 1, 75, 100
3, 70112, Note_on_c, 1, 75, 0
3, 70112, Note_on_c, 1, 84, 100
3, 70137, Note_on_c, 1, 84, 0
3, 70142, Note_on_c, 1, 84, 100
3, 70167, Note_on_c, 1, 84, 0
3, 70172, Note_on_c, 1, 84, 100
3, 70197, Note_on_c, 1, 84, 0
3, 70202, Note_on_c, 1, 75, 100
3, 70232, Note_on_c, 1, 75, 0
3, 70232, Note_on_c, 1, 78, 100
3, 70257, Note_on_c, 1, 78, 0
3, 70262, Note_on_c, 1, 78, 100
3, 70287, Note_on_c, 1, 78, 0
3, 70292, Note_on_c, 1, 78, 100
3, 70317, Note_on_c, 1, 78, 0
3, 70322, Note_on_c, 1, 75, 100
3, 70352, Note_on_c, 1, 75, 0
3, 70352, Note_on_c, 1, 78, 100
3, 70377, Note_on_c, 1, 78, 0
3, 70382, Note_on_c, 1, 78, 100
3, 70407, Note_on_c, 1, 78, 0
3, 70412, Note_on_c, 1, 78, 100
3, 70437, Note_on_c, 1, 78, 0
3, 70442, Note_on_c, 1, 74, 100
3, 70472, Note_on_c, 1, 74, 0
3, 70472, Note_on_c, 1, 77, 100
3, 70497, Note_on_c, 1, 77, 0
3, 70502, Note_on_c, 1, 77, 100
3, 70527, Note_on_c, 1, 77, 0
3, 70532, Note_on_c, 1, 77, 100
3, 70557, Note_on_c, 1, 77, 0
3, 70562, Note_on_c, 1, 74, 100
3, 70592, Note_on_c, 1, 74, 0
3, 70592, Note_on_c, 1, 83, 100
3, 70617, Note_on_c, 1, 83, 0
3, 70622, Note_on_c, 1, 83, 100
3, 70647, Note_on_c, 1, 83, 0
3, 70652, Note_on_c, 1, 83, 100
3, 70677, Note_on_c, 1, 83, 0
3, 70682, Note_on_c, 1, 74, 100
3, 70712, Note_on_c, 1, 74, 0
3, 70712, Note_on_c, 1, 75, 100
3, 70737, Note_on_c, 1, 75, 0
3, 70742, Note_on_c, 1, 72, 100
3, 70772, Note_on_c, 1, 72, 0
3, 70772, Note_on_c, 1, 75, 100
3, 70797, Note_on_c, 1, 75, 0
3, 70802, Note_on_c, 1, 72, 100
3, 70832, Note_on_c, 1, 72, 0
3, 70832, Note_on_c, 1, 74, 100
3, 70857, Note_on_c, 1, 74, 0
3, 70862, Note_on_c, 1, 71, 100
3, 70892, Note_on_c, 1, 71, 0
3, 70892, Note_on_c, 1, 72, 100
3, 70917, Note_on_c, 1, 72, 0
3, 70922, Note_on_c, 1, 67, 100
3, 70952, Note_on_c, 1, 67, 0
3, 70952, Note_on_c, 1, 79, 100
3, 70977, Note_on_c, 1, 79, 0
3, 70982, Note_on_c, 1, 79, 100
3, 71007, Note_on_c, 1, 79, 0
3, 71012, Note_on_c, 1, 79, 100
3, 71037, Note_on_c, 1, 79, 0
3, 71042, Note_on_c, 1, 68, 100
3, 71072, Note_on_c, 1, 68, 0
3, 71072, Note_on_c, 1, 72, 100
3, 71097, Note_on_c, 1, 72, 0
3, 71102, Note_on_c, 1, 72, 100
3, 71127, Note_on_c, 1, 72, 0
3, 71132, Note_on_c, 1, 72, 100
3, 71157, Note_on_c, 1, 72, 0
3, 71162, Note_on_c, 1, 63, 100
3, 71192, Note_on_c, 1, 63, 0
3, 71192, Note_on_c, 1, 72, 100
3, 71217, Note_on_c, 1, 72, 0
3, 71222, Note_on_c, 1, 72, 100
3, 71247, Note_on_c, 1, 72, 0
3, 71252, Note_on_c, 1, 72, 100
3, 71277, Note_on_c, 1, 72, 0
3, 71282, Note_on_c, 1, 59, 100
3, 71312, Note_on_c, 1, 59, 0
3, 71312, Note_on_c, 1, 71, 100
3, 71337, Note_on_c, 1, 71, 0
3, 71342, Note_on_c, 1, 71, 100
3, 71367, Note_on_c, 1, 71, 0
3, 71372, Note_on_c, 1, 71, 100
3, 71397, Note_on_c, 1, 71, 0
3, 71402, Note_on_c, 1, 72, 100
3, 71522, Note_on_c, 1, 72, 0
3, 71642, Note_on_c, 1, 60, 100
3, 71732, Note_on_c, 1, 60, 0
3, 71762, Note_on_c, 1, 60, 100
3, 71852, Note_on_c, 1, 60, 0
3, 71882, Note_on_c, 1, 67, 100
3, 71972, Note_on_c, 1, 67, 0
3, 72002, Note_on_c, 1, 65, 100
3, 72032, Note_on_c, 1, 65, 0
3, 72032, Note_on_c, 1, 63, 100
3, 72062, Note_on_c, 1, 63, 0
3, 72062, Note_on_c, 1, 62, 100
3, 72092, Note_on_c, 1, 62, 0
3, 72092, Note_on_c, 1, 60, 100
3, 72122, Note_on_c, 1, 60, 0
3, 72122, Note_on_c, 1, 59, 100
3, 72212, Note_on_c, 1, 59, 0
3, 72242, Note_on_c, 1, 59, 100
3, 72332, Note_on_c, 1, 59, 0
3, 72362, Note_on_c, 1, 62, 100
3, 72422, Note_on_c, 1, 62, 0
3, 72422, Note_on_c, 1, 60, 100
3, 72482, Note_on_c, 1, 60, 0
3, 72542, Note_on_c, 1, 62, 100
3, 72602, Note_on_c, 1, 62, 0
3, 72602, Note_on_c, 1, 65, 100
3, 72662, Note_on_c, 1, 65, 0
3, 72662, Note_on_c, 1, 63, 100
3, 72722, Note_on_c, 1, 63, 0
3, 72722, Note_on_c, 1, 65, 100
3, 72782, Note_on_c, 1, 65, 0
3, 72782, Note_on_c, 1, 64, 100
3, 72837, Note_on_c, 1, 64, 0
3, 72842, Note_on_c, 1, 67, 100
3, 72902, Note_on_c, 1, 67, 0
3, 72902, Note_on_c, 1, 65, 100
3, 72962, Note_on_c, 1, 65, 0
3, 72962, Note_on_c, 1, 67, 100
3, 73022, Note_on_c, 1, 67, 0
3, 73022, Note_on_c, 1, 66, 100
3, 73082, Note_on_c, 1, 66, 0
3, 73082, Note_on_c, 1, 68, 100
3, 73142, Note_on_c, 1, 68, 0
3, 73142, Note_on_c, 1, 67, 100
3, 73202, Note_on_c, 1, 67, 0
3, 73262, Note_on_c, 1, 59, 100
3, 73322, Note_on_c, 1, 59, 0
3, 73322, Note_on_c, 1, 62, 100
3, 73382, Note_on_c, 1, 62, 0
3, 73382, Note_on_c, 1, 60, 100
3, 73442, Note_on_c, 1, 60, 0
3, 73502, Note_on_c, 1, 62, 100
3, 73562, Note_on_c, 1, 62, 0
3, 73562, Note_on_c, 1, 65, 100
3, 73622, Note_on_c, 1, 65, 0
3, 73622, Note_on_c, 1, 63, 100
3, 73682, Note_on_c, 1, 63, 0
3, 73682, Note_on_c, 1, 65, 100
3, 73742, Note_on_c, 1, 65, 0
3, 73742, Note_on_c, 1, 64, 100
3, 73797, Note_on_c, 1, 64, 0
3, 73802, Note_on_c, 1, 67, 100
3, 73862, Note_on_c, 1, 67, 0
3, 73862, Note_on_c, 1, 65, 100
3, 73922, Note_on_c, 1, 65, 0
3, 73922, Note_on_c, 1, 67, 100
3, 73982, Note_on_c, 1, 67, 0
3, 73982, Note_on_c, 1, 66, 100
3, 74042, Note_on_c, 1, 66, 0
3, 74042, Note_on_c, 1, 68, 100
3, 74102, Note_on_c, 1, 68, 0
3, 74102, Note_on_c, 1, 67, 100
3, 74162, Note_on_c, 1, 67, 0
3, 74222, Note_on_c, 1, 59, 100
3, 74282, Note_on_c, 1, 59, 0
3, 74282, Note_on_c, 1, 62, 100
3, 74342, Note_on_c, 1, 62, 0
3, 74342, Note_on_c, 1, 60, 100
3, 74402, Note_on_c, 1, 60, 0
3, 74522, Note_on_c, 1, 60, 100
3, 74612, Note_on_c, 1, 60, 0
3, 74642, Note_on_c, 1, 60, 100
3, 74732, Note_on_c, 1, 60, 0
3, 74762, Note_on_c, 1, 67, 100
3, 74852, Note_on_c, 1, 67, 0
3, 74882, Note_on_c, 1, 65, 100
3, 74912, Note_on_c, 1, 65, 0
3, 74912, Note_on_c, 1, 63, 100
3, 74942, Note_on_c, 1, 63, 0
3, 74942, Note_on_c, 1, 62, 100
3, 74972, Note_on_c, 1, 62, 0
3, 74972, Note_on_c, 1, 60, 100
3, 75002, Note_on_c, 1, 60, 0
3, 75002, Note_on_c, 1, 59, 100
3, 75092, Note_on_c, 1, 59, 0
3, 75122, Note_on_c, 1, 59, 100
3, 75212, Note_on_c, 1, 59, 0
3, 75242, Note_on_c, 1, 56, 100
3, 75242, Note_on_c, 1, 65, 100
3, 75242, Note_on_c, 1, 74, 100
3, 75362, Note_on_c, 1, 74, 0
3, 75362, Note_on_c, 1, 65, 0
3, 75362, Note_on_c, 1, 56, 0
3, 75452, Note_on_c, 1, 74, 110
3, 75477, Note_on_c, 1, 74, 0
3, 75482, Note_on_c, 1, 72, 111
3, 75567, Note_on_c, 1, 72, 0
3, 75602, Note_on_c, 1, 55, 115
3, 75602, Note_on_c, 1, 62, 115
3, 75602, Note_on_c, 1, 71, 115
3, 75692, Note_on_c, 1, 71, 0
3, 75692, Note_on_c, 1, 62, 0
3, 75692, Note_on_c, 1, 55, 0
3, 75722, Note_on_c, 1, 72, 110
3, 75722, Note_on_c, 1, 63, 110
3, 75722, Note_on_c, 1, 55, 110
3, 75842, Note_on_c, 1, 55, 0
3, 75842, Note_on_c, 1, 63, 0
3, 75842, Note_on_c, 1, 72, 0
3, 76202, Control_c, 1, 121, 0
3, 76202, End_track
4, 0, Start_track
4, 0, MIDI_port, 0
4, 0, Title_t, "Viola"
4, 0, Program_c, 2, 48
4, 3, Control_c, 2, 121, 0
4, 8, Program_c, 2, 48
4, 13, Pitch_bend_c, 2, 8442
4, 18, Control_c, 2, 10, 30
4, 23, Control_c, 2, 11, 127
4, 28, Control_c, 2, 91, 80
4, 33, Control_c, 2, 93, 0
4, 38, Control_c, 2, 7, 127
4, 453, Note_on_c, 2, 60, 100
4, 477, Note_on_c, 2, 60, 0
4, 483, Note_on_c, 2, 67, 100
4, 810, Note_on_c, 2, 67, 0
4, 813, Note_on_c, 2, 63, 100
4, 837, Note_on_c, 2, 63, 0
4, 843, Note_on_c, 2, 60, 100
4, 1043, Note_on_c, 2, 60, 0
4, 1053, Note_on_c, 2, 55, 100
4, 1077, Note_on_c, 2, 55, 0
4, 1083, Note_on_c, 2, 67, 100
4, 1168, Note_on_c, 2, 67, 0
4, 1173, Note_on_c, 2, 63, 100
4, 1197, Note_on_c, 2, 63, 0
4, 1203, Note_on_c, 2, 67, 100
4, 1403, Note_on_c, 2, 67, 0
4, 1413, Note_on_c, 2, 60, 100
4, 1437, Note_on_c, 2, 60, 0
4, 1443, Note_on_c, 2, 72, 100
4, 1533, Note_on_c, 2, 72, 0
4, 1563, Note_on_c, 2, 72, 100
4, 1653, Note_on_c, 2, 72, 0
4, 2163, Control_c, 2, 11, 70
4, 2163, Note_on_c, 2, 53, 40
4, 2166, Control_c, 2, 11, 73
4, 2169, Control_c, 2, 11, 76
4, 2172, Control_c, 2, 11, 79
4, 2175, Control_c, 2, 11, 82
4, 2178, Control_c, 2, 11, 85
4, 2181, Control_c, 2, 11, 88
4, 2185, Control_c, 2, 11, 91
4, 2188, Control_c, 2, 11, 94
4, 2191, Control_c, 2, 11, 97
4, 2194, Control_c, 2, 11, 100
4, 2197, Control_c, 2, 11, 103
4, 2200, Control_c, 2, 11, 106
4, 2204, Control_c, 2, 11, 109
4, 2207, Control_c, 2, 11, 112
4, 2210, Control_c, 2, 11, 115
4, 2213, Control_c, 2, 11, 118
4, 2216, Note_on_c, 2, 53, 0
4, 2216, Control_c, 2, 11, 121
4, 2219, Control_c, 2, 11, 124
4, 2223, Control_c, 2, 11, 127
4, 2223, Note_on_c, 2, 53, 40
4, 2276, Note_on_c, 2, 53, 0
4, 2283, Note_on_c, 2, 53, 40
4, 2336, Note_on_c, 2, 53, 0
4, 2343, Note_on_c, 2, 53, 40
4, 2396, Note_on_c, 2, 53, 0
4, 2403, Note_on_c, 2, 53, 40
4, 2456, Note_on_c, 2, 53, 0
4, 2463, Note_on_c, 2, 53, 40
4, 2516, Note_on_c, 2, 53, 0
4, 2523, Note_on_c, 2, 50, 40
4, 2643, Note_on_c, 2, 50, 0
4, 2643, Note_on_c, 2, 51, 40
4, 2763, Note_on_c, 2, 51, 0
4, 2763, Note_on_c, 2, 55, 40
4, 2943, Note_on_c, 2, 55, 0
4, 2943, Note_on_c, 2, 57, 40
4, 3003, Note_on_c, 2, 57, 0
4, 3003, Note_on_c, 2, 50, 40
4, 3123, Note_on_c, 2, 50, 0
4, 3243, Note_on_c, 2, 48, 100
4, 3243, Note_on_c, 2, 60, 100
4, 3363, Note_on_c, 2, 60, 0
4, 3363, Note_on_c, 2, 48, 0
4, 3453, Note_on_c, 2, 48, 100
4, 3477, Note_on_c, 2, 48, 0
4, 3483, Note_on_c, 2, 55, 100
4, 3568, Note_on_c, 2, 55, 0
4, 3573, Note_on_c, 2, 53, 100
4, 3597, Note_on_c, 2, 53, 0
4, 3603, Note_on_c, 2, 51, 100
4, 3723, Note_on_c, 2, 51, 0
4, 3813, Note_on_c, 2, 59, 100
4, 3837, Note_on_c, 2, 59, 0
4, 3843, Note_on_c, 2, 60, 100
4, 3928, Note_on_c, 2, 60, 0
4, 3933, Note_on_c, 2, 67, 100
4, 3957, Note_on_c, 2, 67, 0
4, 3963, Note_on_c, 2, 67, 100
4, 4083, Note_on_c, 2, 67, 0
4, 4173, Note_on_c, 2, 67, 100
4, 4197, Note_on_c, 2, 67, 0
4, 4203, Note_on_c, 2, 68, 100
4, 4288, Note_on_c, 2, 68, 0
4, 4293, Note_on_c, 2, 67, 100
4, 4317, Note_on_c, 2, 67, 0
4, 4323, Note_on_c, 2, 65, 100
4, 4413, Note_on_c, 2, 65, 0
4, 4443, Note_on_c, 2, 72, 100
4, 4533, Note_on_c, 2, 72, 0
4, 5043, Control_c, 2, 11, 70
4, 5043, Note_on_c, 2, 65, 40
4, 5046, Control_c, 2, 11, 73
4, 5049, Control_c, 2, 11, 76
4, 5052, Control_c, 2, 11, 79
4, 5055, Control_c, 2, 11, 82
4, 5058, Control_c, 2, 11, 85
4, 5061, Control_c, 2, 11, 88
4, 5065, Control_c, 2, 11, 91
4, 5068, Control_c, 2, 11, 94
4, 5071, Control_c, 2, 11, 97
4, 5074, Control_c, 2, 11, 100
4, 5077, Control_c, 2, 11, 103
4, 5080, Control_c, 2, 11, 106
4, 5084, Control_c, 2, 11, 109
4, 5087, Control_c, 2, 11, 112
4, 5090, Control_c, 2, 11, 115
4, 5093, Control_c, 2, 11, 118
4, 5096, Note_on_c, 2, 65, 0
4, 5096, Control_c, 2, 11, 121
4, 5099, Control_c, 2, 11, 124
4, 5103, Control_c, 2, 11, 127
4, 5103, Note_on_c, 2, 65, 40
4, 5156, Note_on_c, 2, 65, 0
4, 5163, Note_on_c, 2, 65, 40
4, 5216, Note_on_c, 2, 65, 0
4, 5223, Note_on_c, 2, 65, 40
4, 5276, Note_on_c, 2, 65, 0
4, 5283, Note_on_c, 2, 65, 40
4, 5336, Note_on_c, 2, 65, 0
4, 5343, Note_on_c, 2, 65, 40
4, 5396, Note_on_c, 2, 65, 0
4, 5403, Note_on_c, 2, 70, 40
4, 5763, Note_on_c, 2, 70, 0
4, 5763, Note_on_c, 2, 68, 40
4, 5883, Note_on_c, 2, 68, 0
4, 5883, Note_on_c, 2, 63, 40
4, 6003, Note_on_c, 2, 63, 0
4, 6003, Note_on_c, 2, 51, 40
4, 6123, Note_on_c, 2, 51, 0
4, 6123, Note_on_c, 2, 48, 40
4, 6213, Note_on_c, 2, 48, 0
4, 6213, Note_on_c, 2, 49, 40
4, 6243, Note_on_c, 2, 49, 0
4, 6243, Note_on_c, 2, 48, 40
4, 6333, Note_on_c, 2, 48, 0
4, 6333, Note_on_c, 2, 49, 40
4, 6363, Note_on_c, 2, 49, 0
4, 6363, Note_on_c, 2, 48, 40
4, 6453, Note_on_c, 2, 48, 0
4, 6453, Note_on_c, 2, 51, 40
4, 6478, Note_on_c, 2, 51, 0
4, 6483, Note_on_c, 2, 51, 40
4, 6723, Note_on_c, 2, 51, 0
4, 6723, Note_on_c, 2, 50, 42
4, 6843, Note_on_c, 2, 50, 0
4, 6843, Note_on_c, 2, 50, 43
4, 6933, Note_on_c, 2, 50, 0
4, 6933, Note_on_c, 2, 51, 44
4, 6963, Note_on_c, 2, 51, 0
4, 6963, Note_on_c, 2, 50, 45
4, 7053, Note_on_c, 2, 50, 0
4, 7053, Note_on_c, 2, 51, 45
4, 7083, Note_on_c, 2, 51, 0
4, 7083, Note_on_c, 2, 50, 46
4, 7173, Note_on_c, 2, 50, 0
4, 7173, Note_on_c, 2, 53, 47
4, 7198, Note_on_c, 2, 53, 0
4, 7203, Note_on_c, 2, 53, 47
4, 7443, Note_on_c, 2, 53, 0
4, 7443, Note_on_c, 2, 52, 50
4, 7563, Note_on_c, 2, 52, 0
4, 7563, Note_on_c, 2, 52, 51
4, 7653, Note_on_c, 2, 52, 0
4, 7653, Note_on_c, 2, 53, 52
4, 7683, Note_on_c, 2, 53, 0
4, 7683, Note_on_c, 2, 52, 52
4, 7773, Note_on_c, 2, 52, 0
4, 7773, Note_on_c, 2, 53, 53
4, 7803, Note_on_c, 2, 53, 0
4, 7803, Note_on_c, 2, 52, 53
4, 7893, Note_on_c, 2, 52, 0
4, 7893, Note_on_c, 2, 53, 54
4, 7923, Note_on_c, 2, 53, 0
4, 7923, Note_on_c, 2, 54, 55
4, 8163, Note_on_c, 2, 54, 0
4, 8163, Note_on_c, 2, 55, 53
4, 8343, Note_on_c, 2, 55, 0
4, 8343, Note_on_c, 2, 58, 50
4, 8403, Note_on_c, 2, 58, 0
4, 8403, Note_on_c, 2, 62, 45
4, 8523, Note_on_c, 2, 62, 0
4, 8733, Note_on_c, 2, 55, 100
4, 8757, Note_on_c, 2, 55, 0
4, 8763, Note_on_c, 2, 62, 100
4, 9090, Note_on_c, 2, 62, 0
4, 9093, Note_on_c, 2, 58, 100
4, 9117, Note_on_c, 2, 58, 0
4, 9123, Note_on_c, 2, 55, 100
4, 9323, Note_on_c, 2, 55, 0
4, 9333, Note_on_c, 2, 50, 100
4, 9357, Note_on_c, 2, 50, 0
4, 9363, Note_on_c, 2, 62, 100
4, 9448, Note_on_c, 2, 62, 0
4, 9453, Note_on_c, 2, 58, 100
4, 9477, Note_on_c, 2, 58, 0
4, 9483, Note_on_c, 2, 62, 100
4, 9683, Note_on_c, 2, 62, 0
4, 9693, Note_on_c, 2, 55, 100
4, 9717, Note_on_c, 2, 55, 0
4, 9723, Note_on_c, 2, 67, 100
4, 9813, Note_on_c, 2, 67, 0
4, 9843, Note_on_c, 2, 67, 100
4, 9933, Note_on_c, 2, 67, 0
4, 10083, Control_c, 2, 11, 70
4, 10083, Note_on_c, 2, 56, 40
4, 10086, Control_c, 2, 11, 73
4, 10089, Control_c, 2, 11, 76
4, 10092, Control_c, 2, 11, 79
4, 10095, Control_c, 2, 11, 82
4, 10098, Control_c, 2, 11, 85
4, 10101, Control_c, 2, 11, 88
4, 10105, Control_c, 2, 11, 91
4, 10108, Control_c, 2, 11, 94
4, 10111, Control_c, 2, 11, 97
4, 10114, Control_c, 2, 11, 100
4, 10117, Control_c, 2, 11, 103
4, 10120, Control_c, 2, 11, 106
4, 10124, Control_c, 2, 11, 109
4, 10127, Control_c, 2, 11, 112
4, 10130, Control_c, 2, 11, 115
4, 10133, Control_c, 2, 11, 118
4, 10136, Control_c, 2, 11, 121
4, 10139, Control_c, 2, 11, 124
4, 10143, Control_c, 2, 11, 127
4, 10173, Note_on_c, 2, 56, 0
4, 10173, Note_on_c, 2, 55, 40
4, 10198, Note_on_c, 2, 55, 0
4, 10203, Note_on_c, 2, 56, 40
4, 10293, Note_on_c, 2, 56, 0
4, 10293, Note_on_c, 2, 55, 40
4, 10318, Note_on_c, 2, 55, 0
4, 10323, Note_on_c, 2, 56, 40
4, 10413, Note_on_c, 2, 56, 0
4, 10413, Note_on_c, 2, 55, 40
4, 10438, Note_on_c, 2, 55, 0
4, 10443, Note_on_c, 2, 56, 40
4, 10803, Note_on_c, 2, 56, 0
4, 10803, Note_on_c, 2, 57, 40
4, 11763, Note_on_c, 2, 57, 0
4, 11763, Note_on_c, 2, 62, 40
4, 12003, Note_on_c, 2, 62, 0
4, 12003, Note_on_c, 2, 59, 40
4, 12123, Note_on_c, 2, 59, 0
4, 12123, Note_on_c, 2, 60, 40
4, 12183, Note_on_c, 2, 60, 0
4, 12183, Note_on_c, 2, 57, 40
4, 12243, Note_on_c, 2, 57, 0
4, 12243, Note_on_c, 2, 55, 40
4, 12363, Note_on_c, 2, 55, 0
4, 12453, Note_on_c, 2, 62, 85
4, 12477, Note_on_c, 2, 62, 0
4, 12483, Note_on_c, 2, 63, 88
4, 12568, Note_on_c, 2, 63, 0
4, 12573, Note_on_c, 2, 65, 97
4, 12597, Note_on_c, 2, 65, 0
4, 12603, Note_on_c, 2, 63, 100
4, 12723, Note_on_c, 2, 63, 0
4, 12813, Note_on_c, 2, 48, 100
4, 12837, Note_on_c, 2, 48, 0
4, 12843, Note_on_c, 2, 55, 100
4, 12928, Note_on_c, 2, 55, 0
4, 12933, Note_on_c, 2, 53, 100
4, 12957, Note_on_c, 2, 53, 0
4, 12963, Note_on_c, 2, 51, 100
4, 13073, Note_on_c, 2, 51, 0
4, 13173, Note_on_c, 2, 59, 100
4, 13197, Note_on_c, 2, 59, 0
4, 13203, Note_on_c, 2, 60, 100
4, 13288, Note_on_c, 2, 60, 0
4, 13293, Note_on_c, 2, 67, 100
4, 13317, Note_on_c, 2, 67, 0
4, 13323, Note_on_c, 2, 67, 100
4, 13433, Note_on_c, 2, 67, 0
4, 13533, Note_on_c, 2, 67, 100
4, 13557, Note_on_c, 2, 67, 0
4, 13563, Note_on_c, 2, 68, 100
4, 13648, Note_on_c, 2, 68, 0
4, 13653, Note_on_c, 2, 67, 100
4, 13677, Note_on_c, 2, 67, 0
4, 13683, Note_on_c, 2, 65, 100
4, 13773, Note_on_c, 2, 65, 0
4, 13803, Note_on_c, 2, 72, 100
4, 13893, Note_on_c, 2, 72, 0
4, 15123, Note_on_c, 2, 62, 40
4, 15213, Note_on_c, 2, 62, 0
4, 15213, Note_on_c, 2, 61, 40
4, 15243, Note_on_c, 2, 61, 0
4, 15243, Note_on_c, 2, 62, 40
4, 15333, Note_on_c, 2, 62, 0
4, 15333, Note_on_c, 2, 61, 40
4, 15363, Note_on_c, 2, 61, 0
4, 15363, Note_on_c, 2, 62, 40
4, 15453, Note_on_c, 2, 62, 0
4, 15453, Note_on_c, 2, 59, 40
4, 15478, Note_on_c, 2, 59, 0
4, 15483, Note_on_c, 2, 60, 40
4, 15573, Note_on_c, 2, 60, 0
4, 15573, Note_on_c, 2, 59, 40
4, 15603, Note_on_c, 2, 59, 0
4, 15603, Note_on_c, 2, 60, 40
4, 15693, Note_on_c, 2, 60, 0
4, 15693, Note_on_c, 2, 59, 40
4, 15723, Note_on_c, 2, 59, 0
4, 15723, Note_on_c, 2, 60, 40
4, 15813, Note_on_c, 2, 60, 0
4, 15813, Note_on_c, 2, 57, 40
4, 15838, Note_on_c, 2, 57, 0
4, 15843, Note_on_c, 2, 58, 40
4, 15933, Note_on_c, 2, 58, 0
4, 15933, Note_on_c, 2, 57, 40
4, 15963, Note_on_c, 2, 57, 0
4, 15963, Note_on_c, 2, 58, 40
4, 16053, Note_on_c, 2, 58, 0
4, 16053, Note_on_c, 2, 57, 40
4, 16083, Note_on_c, 2, 57, 0
4, 16083, Note_on_c, 2, 58, 40
4, 16173, Note_on_c, 2, 58, 0
4, 16173, Note_on_c, 2, 55, 40
4, 16198, Note_on_c, 2, 55, 0
4, 16203, Note_on_c, 2, 60, 40
4, 16293, Note_on_c, 2, 60, 0
4, 16293, Note_on_c, 2, 59, 40
4, 16323, Note_on_c, 2, 59, 0
4, 16323, Note_on_c, 2, 60, 40
4, 16413, Note_on_c, 2, 60, 0
4, 16413, Note_on_c, 2, 59, 40
4, 16443, Note_on_c, 2, 59, 0
4, 16443, Note_on_c, 2, 60, 40
4, 16533, Note_on_c, 2, 60, 0
4, 16533, Note_on_c, 2, 59, 40
4, 16563, Note_on_c, 2, 59, 0
4, 16563, Note_on_c, 2, 60, 40
4, 16653, Note_on_c, 2, 60, 0
4, 16653, Note_on_c, 2, 59, 40
4, 16683, Note_on_c, 2, 59, 0
4, 16683, Note_on_c, 2, 60, 40
4, 16773, Note_on_c, 2, 60, 0
4, 16773, Note_on_c, 2, 60, 40
4, 16803, Note_on_c, 2, 60, 0
4, 16803, Note_on_c, 2, 62, 40
4, 16893, Note_on_c, 2, 62, 0
4, 16893, Note_on_c, 2, 63, 40
4, 16923, Note_on_c, 2, 63, 0
4, 16923, Note_on_c, 2, 62, 40
4, 16976, Note_on_c, 2, 62, 0
4, 16983, Note_on_c, 2, 59, 40
4, 17036, Note_on_c, 2, 59, 0
4, 17043, Note_on_c, 2, 59, 40
4, 17096, Note_on_c, 2, 59, 0
4, 17103, Note_on_c, 2, 59, 40
4, 17156, Note_on_c, 2, 59, 0
4, 17163, Note_on_c, 2, 59, 40
4, 17216, Note_on_c, 2, 59, 0
4, 17223, Note_on_c, 2, 59, 40
4, 17276, Note_on_c, 2, 59, 0
4, 17283, Note_on_c, 2, 60, 40
4, 17336, Note_on_c, 2, 60, 0
4, 17343, Note_on_c, 2, 60, 40
4, 17396, Note_on_c, 2, 60, 0
4, 17403, Note_on_c, 2, 60, 40
4, 17456, Note_on_c, 2, 60, 0
4, 17463, Note_on_c, 2, 60, 40
4, 17516, Note_on_c, 2, 60, 0
4, 17523, Note_on_c, 2, 60, 40
4, 17576, Note_on_c, 2, 60, 0
4, 17583, Note_on_c, 2, 60, 40
4, 17636, Note_on_c, 2, 60, 0
4, 17643, Note_on_c, 2, 59, 40
4, 17696, Note_on_c, 2, 59, 0
4, 17703, Note_on_c, 2, 59, 40
4, 17756, Note_on_c, 2, 59, 0
4, 17763, Note_on_c, 2, 59, 40
4, 17816, Note_on_c, 2, 59, 0
4, 17823, Note_on_c, 2, 59, 40
4, 17876, Note_on_c, 2, 59, 0
4, 17883, Note_on_c, 2, 59, 40
4, 17936, Note_on_c, 2, 59, 0
4, 17943, Note_on_c, 2, 59, 40
4, 17996, Note_on_c, 2, 59, 0
4, 18003, Note_on_c, 2, 54, 40
4, 18056, Note_on_c, 2, 54, 0
4, 18063, Note_on_c, 2, 54, 40
4, 18116, Note_on_c, 2, 54, 0
4, 18123, Note_on_c, 2, 54, 40
4, 18176, Note_on_c, 2, 54, 0
4, 18183, Note_on_c, 2, 54, 39
4, 18236, Note_on_c, 2, 54, 0
4, 18243, Note_on_c, 2, 60, 38
4, 18296, Note_on_c, 2, 60, 0
4, 18303, Note_on_c, 2, 60, 37
4, 18356, Note_on_c, 2, 60, 0
4, 18363, Note_on_c, 2, 60, 36
4, 18483, Note_on_c, 2, 60, 0
4, 18483, Note_on_c, 2, 59, 34
4, 18603, Note_on_c, 2, 59, 0
4, 18603, Note_on_c, 2, 57, 32
4, 18718, Note_on_c, 2, 57, 0
4, 18723, Note_on_c, 2, 59, 30
4, 18903, Control_c, 2, 11, 127
4, 18904, Control_c, 2, 11, 125
4, 18905, Control_c, 2, 11, 124
4, 18906, Control_c, 2, 11, 123
4, 18907, Control_c, 2, 11, 122
4, 18908, Control_c, 2, 11, 121
4, 18909, Control_c, 2, 11, 120
4, 18910, Control_c, 2, 11, 119
4, 18911, Control_c, 2, 11, 118
4, 18912, Control_c, 2, 11, 117
4, 18913, Control_c, 2, 11, 116
4, 18914, Control_c, 2, 11, 115
4, 18915, Control_c, 2, 11, 114
4, 18916, Control_c, 2, 11, 113
4, 18917, Control_c, 2, 11, 112
4, 18918, Control_c, 2, 11, 110
4, 18919, Control_c, 2, 11, 109
4, 18920, Control_c, 2, 11, 108
4, 18921, Control_c, 2, 11, 107
4, 18922, Control_c, 2, 11, 106
4, 18923, Control_c, 2, 11, 105
4, 18924, Control_c, 2, 11, 104
4, 18925, Control_c, 2, 11, 103
4, 18926, Control_c, 2, 11, 102
4, 18927, Control_c, 2, 11, 101
4, 18928, Control_c, 2, 11, 100
4, 18929, Control_c, 2, 11, 99
4, 18930, Control_c, 2, 11, 98
4, 18931, Control_c, 2, 11, 97
4, 18932, Control_c, 2, 11, 96
4, 18933, Control_c, 2, 11, 94
4, 18934, Control_c, 2, 11, 93
4, 18935, Control_c, 2, 11, 92
4, 18936, Control_c, 2, 11, 91
4, 18937, Control_c, 2, 11, 90
4, 18938, Control_c, 2, 11, 89
4, 18939, Control_c, 2, 11, 88
4, 18940, Control_c, 2, 11, 87
4, 18941, Control_c, 2, 11, 86
4, 18942, Control_c, 2, 11, 85
4, 18943, Control_c, 2, 11, 84
4, 18944, Control_c, 2, 11, 83
4, 18945, Control_c, 2, 11, 82
4, 18946, Control_c, 2, 11, 81
4, 18947, Control_c, 2, 11, 80
4, 18948, Control_c, 2, 11, 78
4, 18949, Control_c, 2, 11, 77
4, 18950, Control_c, 2, 11, 76
4, 18951, Control_c, 2, 11, 75
4, 18952, Control_c, 2, 11, 74
4, 18953, Control_c, 2, 11, 73
4, 18954, Control_c, 2, 11, 72
4, 18955, Control_c, 2, 11, 71
4, 18956, Control_c, 2, 11, 70
4, 18957, Control_c, 2, 11, 69
4, 18958, Control_c, 2, 11, 68
4, 18959, Control_c, 2, 11, 67
4, 18960, Control_c, 2, 11, 66
4, 18961, Control_c, 2, 11, 65
4, 18962, Control_c, 2, 11, 64
4, 18963, Note_on_c, 2, 59, 0
4, 20523, Control_c, 2, 11, 127
4, 20523, Note_on_c, 2, 60, 85
4, 20613, Note_on_c, 2, 60, 0
4, 20643, Note_on_c, 2, 60, 85
4, 20733, Note_on_c, 2, 60, 0
4, 20763, Note_on_c, 2, 55, 85
4, 20853, Note_on_c, 2, 55, 0
4, 20883, Note_on_c, 2, 57, 85
4, 20913, Note_on_c, 2, 57, 0
4, 20913, Note_on_c, 2, 59, 85
4, 20943, Note_on_c, 2, 59, 0
4, 20943, Note_on_c, 2, 60, 85
4, 20973, Note_on_c, 2, 60, 0
4, 20973, Note_on_c, 2, 62, 85
4, 21003, Note_on_c, 2, 62, 0
4, 21003, Note_on_c, 2, 63, 85
4, 21093, Note_on_c, 2, 63, 0
4, 21123, Note_on_c, 2, 63, 85
4, 21213, Note_on_c, 2, 63, 0
4, 21243, Note_on_c, 2, 54, 85
4, 21333, Note_on_c, 2, 54, 0
4, 21423, Note_on_c, 2, 63, 85
4, 21468, Note_on_c, 2, 63, 0
4, 21483, Note_on_c, 2, 61, 85
4, 21543, Note_on_c, 2, 61, 0
4, 21543, Note_on_c, 2, 62, 85
4, 21603, Note_on_c, 2, 62, 0
4, 21663, Note_on_c, 2, 60, 85
4, 21723, Note_on_c, 2, 60, 0
4, 21723, Note_on_c, 2, 57, 85
4, 21783, Note_on_c, 2, 57, 0
4, 21783, Note_on_c, 2, 58, 85
4, 21843, Note_on_c, 2, 58, 0
4, 21843, Note_on_c, 2, 56, 85
4, 21903, Note_on_c, 2, 56, 0
4, 21903, Note_on_c, 2, 57, 85
4, 21958, Note_on_c, 2, 57, 0
4, 21963, Note_on_c, 2, 54, 85
4, 22023, Note_on_c, 2, 54, 0
4, 22023, Note_on_c, 2, 55, 85
4, 22083, Note_on_c, 2, 55, 0
4, 22143, Note_on_c, 2, 53, 85
4, 22168, Note_on_c, 2, 53, 0
4, 22173, Note_on_c, 2, 55, 85
4, 22198, Note_on_c, 2, 55, 0
4, 22203, Note_on_c, 2, 56, 85
4, 22293, Note_on_c, 2, 56, 0
4, 22323, Note_on_c, 2, 53, 85
4, 22413, Note_on_c, 2, 53, 0
4, 22503, Note_on_c, 2, 65, 85
4, 22548, Note_on_c, 2, 65, 0
4, 22563, Note_on_c, 2, 65, 85
4, 22608, Note_on_c, 2, 65, 0
4, 22623, Note_on_c, 2, 65, 85
4, 22668, Note_on_c, 2, 65, 0
4, 22683, Note_on_c, 2, 67, 85
4, 22698, Note_on_c, 2, 67, 0
4, 22698, Note_on_c, 2, 65, 85
4, 22713, Note_on_c, 2, 65, 0
4, 22713, Note_on_c, 2, 67, 85
4, 22728, Note_on_c, 2, 67, 0
4, 22728, Note_on_c, 2, 65, 85
4, 22743, Note_on_c, 2, 65, 0
4, 22743, Note_on_c, 2, 67, 85
4, 22758, Note_on_c, 2, 67, 0
4, 22758, Note_on_c, 2, 65, 85
4, 22773, Note_on_c, 2, 65, 0
4, 22773, Note_on_c, 2, 67, 85
4, 22788, Note_on_c, 2, 67, 0
4, 22788, Note_on_c, 2, 65, 85
4, 22803, Note_on_c, 2, 65, 0
4, 22803, Note_on_c, 2, 67, 85
4, 22818, Note_on_c, 2, 67, 0
4, 22818, Note_on_c, 2, 65, 85
4, 22833, Note_on_c, 2, 65, 0
4, 22833, Note_on_c, 2, 67, 85
4, 22848, Note_on_c, 2, 67, 0
4, 22848, Note_on_c, 2, 65, 85
4, 22863, Note_on_c, 2, 65, 0
4, 22863, Note_on_c, 2, 64, 85
4, 22893, Note_on_c, 2, 64, 0
4, 22893, Note_on_c, 2, 65, 85
4, 22918, Note_on_c, 2, 65, 0
4, 22923, Note_on_c, 2, 63, 85
4, 23038, Note_on_c, 2, 63, 0
4, 23043, Note_on_c, 2, 62, 85
4, 23218, Note_on_c, 2, 62, 0
4, 23223, Note_on_c, 2, 60, 85
4, 23338, Note_on_c, 2, 60, 0
4, 23343, Note_on_c, 2, 59, 85
4, 23398, Note_on_c, 2, 59, 0
4, 23403, Note_on_c, 2, 67, 85
4, 23518, Note_on_c, 2, 67, 0
4, 23523, Note_on_c, 2, 63, 85
4, 23638, Note_on_c, 2, 63, 0
4, 23703, Note_on_c, 2, 60, 85
4, 23728, Note_on_c, 2, 60, 0
4, 23733, Note_on_c, 2, 58, 85
4, 23758, Note_on_c, 2, 58, 0
4, 23763, Note_on_c, 2, 57, 85
4, 23818, Note_on_c, 2, 57, 0
4, 23823, Note_on_c, 2, 55, 85
4, 23878, Note_on_c, 2, 55, 0
4, 23883, Note_on_c, 2, 54, 85
4, 23973, Note_on_c, 2, 54, 0
4, 24003, Note_on_c, 2, 57, 85
4, 24093, Note_on_c, 2, 57, 0
4, 24123, Note_on_c, 2, 62, 85
4, 24213, Note_on_c, 2, 62, 0
4, 24423, Note_on_c, 2, 62, 85
4, 24483, Note_on_c, 2, 62, 0
4, 24483, Note_on_c, 2, 64, 85
4, 24543, Note_on_c, 2, 64, 0
4, 24543, Note_on_c, 2, 66, 85
4, 24603, Note_on_c, 2, 66, 0
4, 24603, Note_on_c, 2, 67, 85
4, 24663, Note_on_c, 2, 67, 0
4, 24663, Note_on_c, 2, 63, 85
4, 24723, Note_on_c, 2, 63, 0
4, 24723, Note_on_c, 2, 60, 85
4, 24783, Note_on_c, 2, 60, 0
4, 24783, Note_on_c, 2, 62, 85
4, 24838, Note_on_c, 2, 62, 0
4, 24843, Note_on_c, 2, 63, 85
4, 24903, Note_on_c, 2, 63, 0
4, 24903, Note_on_c, 2, 60, 85
4, 24963, Note_on_c, 2, 60, 0
4, 24963, Note_on_c, 2, 57, 85
4, 25018, Note_on_c, 2, 57, 0
4, 25023, Note_on_c, 2, 59, 85
4, 25083, Note_on_c, 2, 59, 0
4, 25083, Note_on_c, 2, 60, 85
4, 25128, Note_on_c, 2, 60, 0
4, 25143, Note_on_c, 2, 55, 85
4, 25188, Note_on_c, 2, 55, 0
4, 25203, Note_on_c, 2, 60, 85
4, 25438, Note_on_c, 2, 60, 0
4, 25443, Note_on_c, 2, 59, 85
4, 25503, Note_on_c, 2, 59, 0
4, 25503, Note_on_c, 2, 57, 85
4, 25533, Note_on_c, 2, 57, 0
4, 25533, Note_on_c, 2, 59, 85
4, 25563, Note_on_c, 2, 59, 0
4, 25563, Note_on_c, 2, 60, 85
4, 25683, Note_on_c, 2, 60, 0
4, 25743, Note_on_c, 2, 67, 85
4, 25863, Note_on_c, 2, 67, 0
4, 25863, Note_on_c, 2, 65, 85
4, 25888, Note_on_c, 2, 65, 0
4, 25893, Note_on_c, 2, 63, 85
4, 25918, Note_on_c, 2, 63, 0
4, 25923, Note_on_c, 2, 61, 85
4, 25978, Note_on_c, 2, 61, 0
4, 25983, Note_on_c, 2, 60, 85
4, 26038, Note_on_c, 2, 60, 0
4, 26043, Note_on_c, 2, 63, 85
4, 26058, Note_on_c, 2, 63, 0
4, 26058, Note_on_c, 2, 62, 85
4, 26073, Note_on_c, 2, 62, 0
4, 26073, Note_on_c, 2, 63, 85
4, 26088, Note_on_c, 2, 63, 0
4, 26088, Note_on_c, 2, 62, 85
4, 26103, Note_on_c, 2, 62, 0
4, 26103, Note_on_c, 2, 63, 85
4, 26118, Note_on_c, 2, 63, 0
4, 26118, Note_on_c, 2, 62, 85
4, 26133, Note_on_c, 2, 62, 0
4, 26133, Note_on_c, 2, 63, 85
4, 26148, Note_on_c, 2, 63, 0
4, 26148, Note_on_c, 2, 62, 85
4, 26163, Note_on_c, 2, 62, 0
4, 26163, Note_on_c, 2, 63, 85
4, 26178, Note_on_c, 2, 63, 0
4, 26178, Note_on_c, 2, 62, 85
4, 26193, Note_on_c, 2, 62, 0
4, 26193, Note_on_c, 2, 63, 85
4, 26208, Note_on_c, 2, 63, 0
4, 26208, Note_on_c, 2, 62, 85
4, 26223, Note_on_c, 2, 62, 0
4, 26223, Note_on_c, 2, 60, 85
4, 26253, Note_on_c, 2, 60, 0
4, 26253, Note_on_c, 2, 62, 85
4, 26283, Note_on_c, 2, 62, 0
4, 26283, Note_on_c, 2, 60, 85
4, 26328, Note_on_c, 2, 60, 0
4, 26343, Note_on_c, 2, 60, 85
4, 26388, Note_on_c, 2, 60, 0
4, 26403, Note_on_c, 2, 65, 85
4, 26458, Note_on_c, 2, 65, 0
4, 26463, Note_on_c, 2, 59, 85
4, 26493, Note_on_c, 2, 59, 0
4, 26493, Note_on_c, 2, 62, 85
4, 26523, Note_on_c, 2, 62, 0
4, 26523, Note_on_c, 2, 63, 85
4, 26578, Note_on_c, 2, 63, 0
4, 26583, Note_on_c, 2, 57, 85
4, 26613, Note_on_c, 2, 57, 0
4, 26613, Note_on_c, 2, 60, 85
4, 26643, Note_on_c, 2, 60, 0
4, 26643, Note_on_c, 2, 53, 85
4, 26698, Note_on_c, 2, 53, 0
4, 26703, Note_on_c, 2, 56, 85
4, 26733, Note_on_c, 2, 56, 0
4, 26733, Note_on_c, 2, 55, 85
4, 26763, Note_on_c, 2, 55, 0
4, 26763, Note_on_c, 2, 55, 85
4, 26818, Note_on_c, 2, 55, 0
4, 26823, Note_on_c, 2, 63, 85
4, 26848, Note_on_c, 2, 63, 0
4, 26853, Note_on_c, 2, 65, 85
4, 26878, Note_on_c, 2, 65, 0
4, 26883, Note_on_c, 2, 67, 85
4, 26938, Note_on_c, 2, 67, 0
4, 26943, Note_on_c, 2, 63, 85
4, 26998, Note_on_c, 2, 63, 0
4, 27003, Note_on_c, 2, 65, 85
4, 27058, Note_on_c, 2, 65, 0
4, 27063, Note_on_c, 2, 56, 85
4, 27088, Note_on_c, 2, 56, 0
4, 27093, Note_on_c, 2, 58, 85
4, 27118, Note_on_c, 2, 58, 0
4, 27123, Note_on_c, 2, 60, 85
4, 27178, Note_on_c, 2, 60, 0
4, 27183, Note_on_c, 2, 51, 85
4, 27238, Note_on_c, 2, 51, 0
4, 27243, Note_on_c, 2, 50, 85
4, 27298, Note_on_c, 2, 50, 0
4, 27303, Note_on_c, 2, 65, 85
4, 27328, Note_on_c, 2, 65, 0
4, 27333, Note_on_c, 2, 67, 85
4, 27358, Note_on_c, 2, 67, 0
4, 27363, Note_on_c, 2, 68, 85
4, 27418, Note_on_c, 2, 68, 0
4, 27423, Note_on_c, 2, 62, 85
4, 27478, Note_on_c, 2, 62, 0
4, 27483, Note_on_c, 2, 63, 85
4, 27538, Note_on_c, 2, 63, 0
4, 27543, Note_on_c, 2, 51, 85
4, 27568, Note_on_c, 2, 51, 0
4, 27573, Note_on_c, 2, 53, 85
4, 27598, Note_on_c, 2, 53, 0
4, 27603, Note_on_c, 2, 55, 85
4, 27658, Note_on_c, 2, 55, 0
4, 27663, Note_on_c, 2, 58, 85
4, 27718, Note_on_c, 2, 58, 0
4, 27723, Note_on_c, 2, 53, 85
4, 27843, Note_on_c, 2, 53, 0
4, 27963, Note_on_c, 2, 58, 85
4, 28053, Note_on_c, 2, 58, 0
4, 28083, Note_on_c, 2, 58, 85
4, 28173, Note_on_c, 2, 58, 0
4, 28203, Note_on_c, 2, 51, 85
4, 28293, Note_on_c, 2, 51, 0
4, 28323, Note_on_c, 2, 53, 85
4, 28353, Note_on_c, 2, 53, 0
4, 28353, Note_on_c, 2, 55, 85
4, 28383, Note_on_c, 2, 55, 0
4, 28383, Note_on_c, 2, 56, 85
4, 28413, Note_on_c, 2, 56, 0
4, 28413, Note_on_c, 2, 58, 85
4, 28443, Note_on_c, 2, 58, 0
4, 28443, Note_on_c, 2, 60, 85
4, 28533, Note_on_c, 2, 60, 0
4, 28563, Note_on_c, 2, 60, 85
4, 28653, Note_on_c, 2, 60, 0
4, 28683, Note_on_c, 2, 50, 85
4, 28803, Note_on_c, 2, 50, 0
4, 28863, Note_on_c, 2, 60, 85
4, 28923, Note_on_c, 2, 60, 0
4, 28923, Note_on_c, 2, 57, 85
4, 28983, Note_on_c, 2, 57, 0
4, 28983, Note_on_c, 2, 58, 85
4, 29043, Note_on_c, 2, 58, 0
4, 29103, Note_on_c, 2, 56, 85
4, 29163, Note_on_c, 2, 56, 0
4, 29163, Note_on_c, 2, 54, 85
4, 29223, Note_on_c, 2, 54, 0
4, 29223, Note_on_c, 2, 55, 85
4, 29283, Note_on_c, 2, 55, 0
4, 29283, Note_on_c, 2, 52, 85
4, 29343, Note_on_c, 2, 52, 0
4, 29343, Note_on_c, 2, 54, 85
4, 29403, Note_on_c, 2, 54, 0
4, 29403, Note_on_c, 2, 51, 85
4, 29463, Note_on_c, 2, 51, 0
4, 29463, Note_on_c, 2, 60, 85
4, 29523, Note_on_c, 2, 60, 0
4, 29523, Note_on_c, 2, 62, 85
4, 29583, Note_on_c, 2, 62, 0
4, 29583, Note_on_c, 2, 64, 85
4, 29643, Note_on_c, 2, 64, 0
4, 29643, Note_on_c, 2, 65, 86
4, 29703, Note_on_c, 2, 65, 0
4, 29703, Note_on_c, 2, 60, 86
4, 29763, Note_on_c, 2, 60, 0
4, 29763, Note_on_c, 2, 61, 86
4, 29823, Note_on_c, 2, 61, 0
4, 29823, Note_on_c, 2, 57, 87
4, 29883, Note_on_c, 2, 57, 0
4, 29883, Note_on_c, 2, 58, 87
4, 29943, Note_on_c, 2, 58, 0
4, 29943, Note_on_c, 2, 65, 87
4, 30003, Note_on_c, 2, 65, 0
4, 30003, Note_on_c, 2, 64, 87
4, 30063, Note_on_c, 2, 64, 0
4, 30063, Note_on_c, 2, 65, 88
4, 30123, Note_on_c, 2, 65, 0
4, 30123, Note_on_c, 2, 67, 88
4, 30238, Note_on_c, 2, 67, 0
4, 30243, Note_on_c, 2, 64, 89
4, 30358, Note_on_c, 2, 64, 0
4, 30363, Note_on_c, 2, 65, 89
4, 30478, Note_on_c, 2, 65, 0
4, 30543, Note_on_c, 2, 55, 90
4, 30603, Note_on_c, 2, 55, 0
4, 30603, Note_on_c, 2, 64, 90
4, 30663, Note_on_c, 2, 64, 0
4, 30663, Note_on_c, 2, 65, 91
4, 30723, Note_on_c, 2, 65, 0
4, 30783, Note_on_c, 2, 60, 91
4, 30903, Note_on_c, 2, 60, 0
4, 30903, Note_on_c, 2, 58, 92
4, 30948, Note_on_c, 2, 58, 0
4, 30948, Note_on_c, 2, 57, 92
4, 30963, Note_on_c, 2, 57, 0
4, 30963, Note_on_c, 2, 58, 92
4, 31023, Note_on_c, 2, 58, 0
4, 31023, Note_on_c, 2, 56, 92
4, 31083, Note_on_c, 2, 56, 0
4, 31083, Note_on_c, 2, 63, 93
4, 31143, Note_on_c, 2, 63, 0
4, 31143, Note_on_c, 2, 62, 93
4, 31203, Note_on_c, 2, 62, 0
4, 31263, Note_on_c, 2, 60, 94
4, 31323, Note_on_c, 2, 60, 0
4, 31323, Note_on_c, 2, 57, 94
4, 31383, Note_on_c, 2, 57, 0
4, 31383, Note_on_c, 2, 58, 94
4, 31443, Note_on_c, 2, 58, 0
4, 31443, Note_on_c, 2, 54, 95
4, 31503, Note_on_c, 2, 54, 0
4, 31503, Note_on_c, 2, 55, 95
4, 31563, Note_on_c, 2, 55, 0
4, 31563, Note_on_c, 2, 56, 95
4, 31623, Note_on_c, 2, 56, 0
4, 31623, Note_on_c, 2, 57, 95
4, 31683, Note_on_c, 2, 57, 0
4, 31743, Note_on_c, 2, 60, 96
4, 31803, Note_on_c, 2, 60, 0
4, 31803, Note_on_c, 2, 56, 96
4, 31863, Note_on_c, 2, 56, 0
4, 31863, Note_on_c, 2, 58, 97
4, 31923, Note_on_c, 2, 58, 0
4, 31983, Note_on_c, 2, 63, 97
4, 32043, Note_on_c, 2, 63, 0
4, 32043, Note_on_c, 2, 62, 97
4, 32158, Note_on_c, 2, 62, 0
4, 32163, Note_on_c, 2, 61, 98
4, 32223, Note_on_c, 2, 61, 0
4, 32223, Note_on_c, 2, 58, 98
4, 32283, Note_on_c, 2, 58, 0
4, 32283, Note_on_c, 2, 55, 99
4, 32403, Note_on_c, 2, 55, 0
4, 32463, Note_on_c, 2, 67, 94
4, 32523, Note_on_c, 2, 67, 0
4, 32523, Note_on_c, 2, 64, 91
4, 32583, Note_on_c, 2, 64, 0
4, 32583, Note_on_c, 2, 65, 88
4, 32643, Note_on_c, 2, 65, 0
4, 32643, Note_on_c, 2, 62, 85
4, 32703, Note_on_c, 2, 62, 0
4, 32703, Note_on_c, 2, 63, 82
4, 32763, Note_on_c, 2, 63, 0
4, 32763, Note_on_c, 2, 61, 79
4, 32823, Note_on_c, 2, 61, 0
4, 32823, Note_on_c, 2, 62, 76
4, 32883, Note_on_c, 2, 62, 0
4, 34203, Note_on_c, 2, 65, 71
4, 34293, Note_on_c, 2, 65, 0
4, 34323, Note_on_c, 2, 65, 73
4, 34413, Note_on_c, 2, 65, 0
4, 34443, Note_on_c, 2, 58, 75
4, 34533, Note_on_c, 2, 58, 0
4, 34563, Note_on_c, 2, 60, 77
4, 34593, Note_on_c, 2, 60, 0
4, 34593, Note_on_c, 2, 61, 77
4, 34623, Note_on_c, 2, 61, 0
4, 34623, Note_on_c, 2, 63, 78
4, 34653, Note_on_c, 2, 63, 0
4, 34653, Note_on_c, 2, 65, 78
4, 34683, Note_on_c, 2, 65, 0
4, 34683, Note_on_c, 2, 66, 79
4, 34773, Note_on_c, 2, 66, 0
4, 34803, Note_on_c, 2, 67, 81
4, 34893, Note_on_c, 2, 67, 0
4, 34923, Note_on_c, 2, 57, 83
4, 35043, Note_on_c, 2, 57, 0
4, 35163, Note_on_c, 2, 68, 87
4, 35253, Note_on_c, 2, 68, 0
4, 35283, Note_on_c, 2, 68, 89
4, 35373, Note_on_c, 2, 68, 0
4, 35403, Note_on_c, 2, 59, 91
4, 35523, Note_on_c, 2, 59, 0
4, 35883, Note_on_c, 2, 60, 100
4, 35973, Note_on_c, 2, 60, 0
4, 36003, Note_on_c, 2, 60, 100
4, 36093, Note_on_c, 2, 60, 0
4, 36123, Note_on_c, 2, 67, 100
4, 36213, Note_on_c, 2, 67, 0
4, 36243, Note_on_c, 2, 65, 100
4, 36273, Note_on_c, 2, 65, 0
4, 36273, Note_on_c, 2, 63, 100
4, 36303, Note_on_c, 2, 63, 0
4, 36303, Note_on_c, 2, 62, 100
4, 36333, Note_on_c, 2, 62, 0
4, 36333, Note_on_c, 2, 60, 100
4, 36363, Note_on_c, 2, 60, 0
4, 36363, Note_on_c, 2, 59, 100
4, 36453, Note_on_c, 2, 59, 0
4, 36483, Note_on_c, 2, 59, 100
4, 36573, Note_on_c, 2, 59, 0
4, 36603, Note_on_c, 2, 68, 100
4, 36693, Note_on_c, 2, 68, 0
4, 36783, Note_on_c, 2, 59, 100
4, 36843, Note_on_c, 2, 59, 0
4, 36843, Note_on_c, 2, 62, 100
4, 36903, Note_on_c, 2, 62, 0
4, 36903, Note_on_c, 2, 60, 100
4, 36963, Note_on_c, 2, 60, 0
4, 37023, Note_on_c, 2, 62, 100
4, 37083, Note_on_c, 2, 62, 0
4, 37083, Note_on_c, 2, 65, 100
4, 37143, Note_on_c, 2, 65, 0
4, 37143, Note_on_c, 2, 63, 100
4, 37203, Note_on_c, 2, 63, 0
4, 37203, Note_on_c, 2, 67, 100
4, 37263, Note_on_c, 2, 67, 0
4, 37263, Note_on_c, 2, 65, 100
4, 37323, Note_on_c, 2, 65, 0
4, 37323, Note_on_c, 2, 68, 85
4, 37383, Note_on_c, 2, 68, 0
4, 37383, Note_on_c, 2, 67, 85
4, 37443, Note_on_c, 2, 67, 0
4, 37503, Note_on_c, 2, 68, 70
4, 37563, Note_on_c, 2, 68, 0
4, 37563, Note_on_c, 2, 60, 70
4, 37623, Note_on_c, 2, 60, 0
4, 37623, Note_on_c, 2, 59, 70
4, 37683, Note_on_c, 2, 59, 0
4, 37743, Note_on_c, 2, 58, 70
4, 37863, Note_on_c, 2, 58, 0
4, 37863, Note_on_c, 2, 57, 70
4, 37923, Note_on_c, 2, 57, 0
4, 37983, Note_on_c, 2, 57, 70
4, 38043, Note_on_c, 2, 57, 0
4, 38043, Note_on_c, 2, 62, 70
4, 38103, Note_on_c, 2, 62, 0
4, 38103, Note_on_c, 2, 60, 70
4, 38163, Note_on_c, 2, 60, 0
4, 38223, Note_on_c, 2, 57, 70
4, 38283, Note_on_c, 2, 57, 0
4, 38283, Note_on_c, 2, 60, 70
4, 38343, Note_on_c, 2, 60, 0
4, 38343, Note_on_c, 2, 58, 70
4, 38403, Note_on_c, 2, 58, 0
4, 38403, Control_c, 2, 11, 85
4, 38444, Control_c, 2, 11, 86
4, 38463, Note_on_c, 2, 60, 70
4, 38486, Control_c, 2, 11, 87
4, 38523, Note_on_c, 2, 60, 0
4, 38523, Note_on_c, 2, 63, 70
4, 38528, Control_c, 2, 11, 88
4, 38570, Control_c, 2, 11, 89
4, 38583, Note_on_c, 2, 63, 0
4, 38583, Note_on_c, 2, 62, 70
4, 38612, Control_c, 2, 11, 90
4, 38643, Note_on_c, 2, 62, 0
4, 38643, Note_on_c, 2, 65, 70
4, 38654, Control_c, 2, 11, 91
4, 38696, Control_c, 2, 11, 92
4, 38703, Note_on_c, 2, 65, 0
4, 38703, Note_on_c, 2, 63, 70
4, 38738, Control_c, 2, 11, 93
4, 38763, Note_on_c, 2, 63, 0
4, 38780, Control_c, 2, 11, 94
4, 38822, Control_c, 2, 11, 95
4, 38823, Note_on_c, 2, 50, 71
4, 38864, Control_c, 2, 11, 96
4, 38883, Note_on_c, 2, 50, 0
4, 38883, Note_on_c, 2, 53, 72
4, 38906, Control_c, 2, 11, 97
4, 38943, Note_on_c, 2, 53, 0
4, 38943, Note_on_c, 2, 51, 73
4, 38948, Control_c, 2, 11, 98
4, 38990, Control_c, 2, 11, 99
4, 39003, Note_on_c, 2, 51, 0
4, 39003, Note_on_c, 2, 55, 75
4, 39032, Control_c, 2, 11, 100
4, 39063, Note_on_c, 2, 55, 0
4, 39063, Note_on_c, 2, 53, 76
4, 39074, Control_c, 2, 11, 101
4, 39116, Control_c, 2, 11, 102
4, 39123, Note_on_c, 2, 53, 0
4, 39123, Note_on_c, 2, 56, 77
4, 39158, Control_c, 2, 11, 103
4, 39183, Note_on_c, 2, 56, 0
4, 39183, Note_on_c, 2, 55, 78
4, 39200, Control_c, 2, 11, 104
4, 39238, Note_on_c, 2, 55, 0
4, 39242, Control_c, 2, 11, 105
4, 39243, Note_on_c, 2, 58, 80
4, 39303, Note_on_c, 2, 58, 0
4, 39303, Note_on_c, 2, 56, 81
4, 39363, Note_on_c, 2, 56, 0
4, 39363, Note_on_c, 2, 60, 82
4, 39423, Note_on_c, 2, 60, 0
4, 39423, Note_on_c, 2, 58, 80
4, 39483, Note_on_c, 2, 58, 0
4, 39483, Note_on_c, 2, 61, 78
4, 39543, Note_on_c, 2, 61, 0
4, 39543, Note_on_c, 2, 60, 76
4, 39603, Note_on_c, 2, 60, 0
4, 39603, Note_on_c, 2, 63, 74
4, 39783, Note_on_c, 2, 63, 0
4, 39783, Note_on_c, 2, 56, 68
4, 39843, Note_on_c, 2, 56, 0
4, 39843, Note_on_c, 2, 61, 66
4, 40023, Note_on_c, 2, 61, 0
4, 40023, Note_on_c, 2, 58, 60
4, 40083, Note_on_c, 2, 58, 0
4, 40083, Note_on_c, 2, 60, 65
4, 40143, Note_on_c, 2, 60, 0
4, 40143, Note_on_c, 2, 56, 63
4, 40203, Note_on_c, 2, 56, 0
4, 40203, Note_on_c, 2, 65, 60
4, 40503, Note_on_c, 2, 65, 0
4, 40503, Note_on_c, 2, 65, 66
4, 40563, Note_on_c, 2, 65, 0
4, 40563, Note_on_c, 2, 63, 67
4, 40623, Note_on_c, 2, 63, 0
4, 40623, Note_on_c, 2, 61, 68
4, 40683, Note_on_c, 2, 61, 0
4, 40683, Note_on_c, 2, 60, 70
4, 40743, Note_on_c, 2, 60, 0
4, 40743, Note_on_c, 2, 61, 71
4, 40803, Note_on_c, 2, 61, 0
4, 40803, Note_on_c, 2, 63, 72
4, 40983, Note_on_c, 2, 63, 0
4, 40983, Note_on_c, 2, 66, 76
4, 41043, Note_on_c, 2, 66, 0
4, 41043, Note_on_c, 2, 65, 77
4, 41103, Note_on_c, 2, 65, 0
4, 41103, Note_on_c, 2, 63, 78
4, 41163, Note_on_c, 2, 63, 0
4, 41163, Note_on_c, 2, 62, 80
4, 41223, Note_on_c, 2, 62, 0
4, 41223, Note_on_c, 2, 63, 81
4, 41283, Note_on_c, 2, 63, 0
4, 41283, Note_on_c, 2, 65, 82
4, 41463, Note_on_c, 2, 65, 0
4, 41463, Note_on_c, 2, 63, 86
4, 41583, Note_on_c, 2, 63, 0
4, 41583, Note_on_c, 2, 62, 88
4, 41643, Note_on_c, 2, 62, 0
4, 41643, Note_on_c, 2, 63, 90
4, 41733, Note_on_c, 2, 63, 0
4, 41763, Note_on_c, 2, 63, 100
4, 41853, Note_on_c, 2, 63, 0
4, 41883, Note_on_c, 2, 56, 100
4, 41973, Note_on_c, 2, 56, 0
4, 42003, Note_on_c, 2, 58, 100
4, 42033, Note_on_c, 2, 58, 0
4, 42033, Note_on_c, 2, 59, 100
4, 42063, Note_on_c, 2, 59, 0
4, 42063, Note_on_c, 2, 61, 99
4, 42093, Note_on_c, 2, 61, 0
4, 42093, Note_on_c, 2, 63, 98
4, 42123, Note_on_c, 2, 63, 0
4, 42123, Note_on_c, 2, 65, 97
4, 42213, Note_on_c, 2, 65, 0
4, 42243, Note_on_c, 2, 65, 93
4, 42333, Note_on_c, 2, 65, 0
4, 42363, Note_on_c, 2, 54, 90
4, 42453, Note_on_c, 2, 54, 0
4, 42483, Note_on_c, 2, 56, 86
4, 42513, Note_on_c, 2, 56, 0
4, 42513, Note_on_c, 2, 58, 85
4, 42543, Note_on_c, 2, 58, 0
4, 42543, Note_on_c, 2, 59, 84
4, 42573, Note_on_c, 2, 59, 0
4, 42573, Note_on_c, 2, 61, 83
4, 42603, Note_on_c, 2, 61, 0
4, 42603, Note_on_c, 2, 63, 82
4, 42693, Note_on_c, 2, 63, 0
4, 42723, Note_on_c, 2, 63, 79
4, 42813, Note_on_c, 2, 63, 0
4, 42843, Note_on_c, 2, 53, 75
4, 42933, Note_on_c, 2, 53, 0
4, 42963, Note_on_c, 2, 55, 71
4, 42993, Note_on_c, 2, 55, 0
4, 42993, Note_on_c, 2, 56, 70
4, 43023, Note_on_c, 2, 56, 0
4, 43023, Note_on_c, 2, 58, 70
4, 43053, Note_on_c, 2, 58, 0
4, 43053, Note_on_c, 2, 60, 69
4, 43083, Note_on_c, 2, 60, 0
4, 43083, Note_on_c, 2, 62, 68
4, 43263, Note_on_c, 2, 62, 0
4, 43263, Note_on_c, 2, 60, 66
4, 43323, Note_on_c, 2, 60, 0
4, 43323, Note_on_c, 2, 59, 73
4, 43383, Note_on_c, 2, 59, 0
4, 43383, Note_on_c, 2, 60, 80
4, 43503, Note_on_c, 2, 60, 0
4, 43503, Note_on_c, 2, 59, 93
4, 43563, Note_on_c, 2, 59, 0
4, 43563, Note_on_c, 2, 60, 100
4, 43608, Note_on_c, 2, 60, 0
4, 43623, Note_on_c, 2, 55, 100
4, 43668, Note_on_c, 2, 55, 0
4, 43683, Note_on_c, 2, 67, 100
4, 43863, Note_on_c, 2, 67, 0
4, 43863, Note_on_c, 2, 65, 100
4, 43893, Note_on_c, 2, 65, 0
4, 43893, Note_on_c, 2, 63, 100
4, 43923, Note_on_c, 2, 63, 0
4, 43923, Note_on_c, 2, 65, 100
4, 44103, Note_on_c, 2, 65, 0
4, 44103, Note_on_c, 2, 62, 100
4, 44163, Note_on_c, 2, 62, 0
4, 44163, Note_on_c, 2, 59, 100
4, 44283, Note_on_c, 2, 59, 0
4, 44283, Note_on_c, 2, 58, 100
4, 44343, Note_on_c, 2, 58, 0
4, 44343, Note_on_c, 2, 55, 100
4, 44403, Note_on_c, 2, 55, 0
4, 44403, Note_on_c, 2, 62, 100
4, 44583, Note_on_c, 2, 62, 0
4, 44583, Note_on_c, 2, 60, 100
4, 44643, Note_on_c, 2, 60, 0
4, 44643, Note_on_c, 2, 57, 100
4, 44703, Note_on_c, 2, 57, 0
4, 44703, Note_on_c, 2, 58, 100
4, 44763, Note_on_c, 2, 58, 0
4, 44763, Note_on_c, 2, 55, 100
4, 44823, Note_on_c, 2, 55, 0
4, 44823, Note_on_c, 2, 54, 100
4, 44883, Note_on_c, 2, 54, 0
4, 44883, Note_on_c, 2, 63, 100
4, 45003, Note_on_c, 2, 63, 0
4, 45003, Note_on_c, 2, 62, 85
4, 45063, Note_on_c, 2, 62, 0
4, 45063, Note_on_c, 2, 62, 85
4, 45108, Note_on_c, 2, 62, 0
4, 45123, Note_on_c, 2, 62, 85
4, 45168, Note_on_c, 2, 62, 0
4, 45183, Note_on_c, 2, 62, 86
4, 45228, Note_on_c, 2, 62, 0
4, 45243, Note_on_c, 2, 63, 86
4, 45258, Note_on_c, 2, 63, 0
4, 45258, Note_on_c, 2, 62, 86
4, 45273, Note_on_c, 2, 62, 0
4, 45273, Note_on_c, 2, 63, 87
4, 45288, Note_on_c, 2, 63, 0
4, 45288, Note_on_c, 2, 62, 87
4, 45303, Note_on_c, 2, 62, 0
4, 45303, Note_on_c, 2, 63, 87
4, 45318, Note_on_c, 2, 63, 0
4, 45318, Note_on_c, 2, 62, 87
4, 45333, Note_on_c, 2, 62, 0
4, 45333, Note_on_c, 2, 63, 87
4, 45348, Note_on_c, 2, 63, 0
4, 45348, Note_on_c, 2, 62, 87
4, 45363, Note_on_c, 2, 62, 0
4, 45363, Note_on_c, 2, 63, 87
4, 45378, Note_on_c, 2, 63, 0
4, 45378, Note_on_c, 2, 62, 87
4, 45393, Note_on_c, 2, 62, 0
4, 45393, Note_on_c, 2, 63, 87
4, 45408, Note_on_c, 2, 63, 0
4, 45408, Note_on_c, 2, 62, 88
4, 45423, Note_on_c, 2, 62, 0
4, 45423, Note_on_c, 2, 60, 88
4, 45453, Note_on_c, 2, 60, 0
4, 45453, Note_on_c, 2, 62, 88
4, 45483, Note_on_c, 2, 62, 0
4, 45483, Note_on_c, 2, 55, 88
4, 45543, Note_on_c, 2, 55, 0
4, 45543, Note_on_c, 2, 63, 89
4, 45603, Note_on_c, 2, 63, 0
4, 45603, Note_on_c, 2, 60, 89
4, 45663, Note_on_c, 2, 60, 0
4, 45663, Note_on_c, 2, 59, 89
4, 45723, Note_on_c, 2, 59, 0
4, 45723, Note_on_c, 2, 62, 90
4, 45783, Note_on_c, 2, 62, 0
4, 45783, Note_on_c, 2, 60, 90
4, 45903, Note_on_c, 2, 60, 0
4, 45903, Note_on_c, 2, 61, 91
4, 45963, Note_on_c, 2, 61, 0
4, 45963, Note_on_c, 2, 60, 92
4, 46083, Note_on_c, 2, 60, 0
4, 46443, Note_on_c, 2, 53, 95
4, 46533, Note_on_c, 2, 53, 0
4, 46563, Note_on_c, 2, 53, 96
4, 46653, Note_on_c, 2, 53, 0
4, 46683, Note_on_c, 2, 60, 97
4, 46773, Note_on_c, 2, 60, 0
4, 46803, Note_on_c, 2, 58, 98
4, 46833, Note_on_c, 2, 58, 0
4, 46833, Note_on_c, 2, 56, 98
4, 46863, Note_on_c, 2, 56, 0
4, 46863, Note_on_c, 2, 55, 98
4, 46893, Note_on_c, 2, 55, 0
4, 46893, Note_on_c, 2, 53, 99
4, 46923, Note_on_c, 2, 53, 0
4, 46923, Note_on_c, 2, 52, 99
4, 47013, Note_on_c, 2, 52, 0
4, 47043, Note_on_c, 2, 52, 100
4, 47133, Note_on_c, 2, 52, 0
4, 47163, Note_on_c, 2, 61, 101
4, 47253, Note_on_c, 2, 61, 0
4, 47343, Note_on_c, 2, 52, 102
4, 47398, Note_on_c, 2, 52, 0
4, 47403, Note_on_c, 2, 55, 102
4, 47463, Note_on_c, 2, 55, 0
4, 47463, Note_on_c, 2, 53, 103
4, 47523, Note_on_c, 2, 53, 0
4, 47583, Note_on_c, 2, 55, 104
4, 47643, Note_on_c, 2, 55, 0
4, 47643, Note_on_c, 2, 58, 104
4, 47703, Note_on_c, 2, 58, 0
4, 47703, Note_on_c, 2, 56, 105
4, 47763, Note_on_c, 2, 56, 0
4, 47763, Note_on_c, 2, 60, 105
4, 47823, Note_on_c, 2, 60, 0
4, 47823, Note_on_c, 2, 58, 105
4, 47883, Note_on_c, 2, 58, 0
4, 47883, Note_on_c, 2, 62, 106
4, 47943, Note_on_c, 2, 62, 0
4, 47943, Note_on_c, 2, 60, 106
4, 48003, Note_on_c, 2, 60, 0
4, 48363, Note_on_c, 2, 62, 110
4, 48453, Note_on_c, 2, 62, 0
4, 48483, Note_on_c, 2, 62, 110
4, 48573, Note_on_c, 2, 62, 0
4, 48603, Note_on_c, 2, 55, 109
4, 48633, Note_on_c, 2, 55, 0
4, 48633, Note_on_c, 2, 57, 108
4, 48663, Note_on_c, 2, 57, 0
4, 48663, Note_on_c, 2, 59, 108
4, 48693, Note_on_c, 2, 59, 0
4, 48693, Note_on_c, 2, 60, 108
4, 48723, Note_on_c, 2, 60, 0
4, 48723, Note_on_c, 2, 62, 107
4, 48753, Note_on_c, 2, 62, 0
4, 48753, Note_on_c, 2, 63, 107
4, 48783, Note_on_c, 2, 63, 0
4, 48783, Note_on_c, 2, 65, 107
4, 48813, Note_on_c, 2, 65, 0
4, 48813, Note_on_c, 2, 67, 106
4, 48843, Note_on_c, 2, 67, 0
4, 48843, Note_on_c, 2, 68, 106
4, 48933, Note_on_c, 2, 68, 0
4, 48963, Note_on_c, 2, 68, 105
4, 49053, Note_on_c, 2, 68, 0
4, 49083, Note_on_c, 2, 59, 103
4, 49173, Note_on_c, 2, 59, 0
4, 49263, Note_on_c, 2, 68, 101
4, 49323, Note_on_c, 2, 68, 0
4, 49323, Note_on_c, 2, 66, 100
4, 49383, Note_on_c, 2, 66, 0
4, 49383, Note_on_c, 2, 67, 100
4, 49443, Note_on_c, 2, 67, 0
4, 49503, Note_on_c, 2, 65, 100
4, 49563, Note_on_c, 2, 65, 0
4, 49563, Note_on_c, 2, 62, 100
4, 49623, Note_on_c, 2, 62, 0
4, 49623, Note_on_c, 2, 63, 100
4, 49683, Note_on_c, 2, 63, 0
4, 49683, Note_on_c, 2, 61, 100
4, 49743, Note_on_c, 2, 61, 0
4, 49743, Note_on_c, 2, 62, 100
4, 49803, Note_on_c, 2, 62, 0
4, 49803, Note_on_c, 2, 59, 100
4, 49863, Note_on_c, 2, 59, 0
4, 49863, Note_on_c, 2, 60, 100
4, 49923, Note_on_c, 2, 60, 0
4, 50403, Note_on_c, 2, 57, 87
4, 50523, Note_on_c, 2, 57, 0
4, 50523, Note_on_c, 2, 58, 80
4, 50643, Note_on_c, 2, 58, 0
4, 50643, Note_on_c, 2, 63, 82
4, 50763, Note_on_c, 2, 63, 0
4, 50763, Note_on_c, 2, 62, 84
4, 50823, Note_on_c, 2, 62, 0
4, 50823, Note_on_c, 2, 58, 85
4, 50868, Note_on_c, 2, 58, 0
4, 50883, Note_on_c, 2, 58, 86
4, 50928, Note_on_c, 2, 58, 0
4, 50943, Note_on_c, 2, 58, 87
4, 50988, Note_on_c, 2, 58, 0
4, 51003, Note_on_c, 2, 60, 88
4, 51018, Note_on_c, 2, 60, 0
4, 51018, Note_on_c, 2, 58, 88
4, 51033, Note_on_c, 2, 58, 0
4, 51033, Note_on_c, 2, 60, 88
4, 51048, Note_on_c, 2, 60, 0
4, 51048, Note_on_c, 2, 58, 88
4, 51063, Note_on_c, 2, 58, 0
4, 51063, Note_on_c, 2, 60, 88
4, 51078, Note_on_c, 2, 60, 0
4, 51078, Note_on_c, 2, 58, 89
4, 51093, Note_on_c, 2, 58, 0
4, 51093, Note_on_c, 2, 60, 89
4, 51108, Note_on_c, 2, 60, 0
4, 51108, Note_on_c, 2, 58, 89
4, 51123, Note_on_c, 2, 58, 0
4, 51123, Note_on_c, 2, 60, 89
4, 51138, Note_on_c, 2, 60, 0
4, 51138, Note_on_c, 2, 58, 90
4, 51153, Note_on_c, 2, 58, 0
4, 51153, Note_on_c, 2, 60, 90
4, 51168, Note_on_c, 2, 60, 0
4, 51168, Note_on_c, 2, 58, 90
4, 51183, Note_on_c, 2, 58, 0
4, 51183, Note_on_c, 2, 56, 90
4, 51213, Note_on_c, 2, 56, 0
4, 51213, Note_on_c, 2, 58, 91
4, 51243, Note_on_c, 2, 58, 0
4, 51243, Note_on_c, 2, 51, 91
4, 51363, Note_on_c, 2, 51, 0
4, 51363, Note_on_c, 2, 57, 93
4, 51423, Note_on_c, 2, 57, 0
4, 51423, Note_on_c, 2, 58, 94
4, 51483, Note_on_c, 2, 58, 0
4, 51483, Note_on_c, 2, 55, 95
4, 51543, Note_on_c, 2, 55, 0
4, 51543, Note_on_c, 2, 56, 96
4, 51603, Note_on_c, 2, 56, 0
4, 51663, Note_on_c, 2, 58, 97
4, 51723, Note_on_c, 2, 58, 0
4, 51723, Note_on_c, 2, 59, 98
4, 51783, Note_on_c, 2, 59, 0
4, 51783, Note_on_c, 2, 60, 99
4, 51843, Note_on_c, 2, 60, 0
4, 51843, Note_on_c, 2, 59, 100
4, 51903, Note_on_c, 2, 59, 0
4, 51903, Note_on_c, 2, 60, 101
4, 51963, Note_on_c, 2, 60, 0
4, 51963, Note_on_c, 2, 57, 102
4, 52023, Note_on_c, 2, 57, 0
4, 52023, Note_on_c, 2, 58, 103
4, 52083, Note_on_c, 2, 58, 0
4, 52143, Note_on_c, 2, 60, 104
4, 52203, Note_on_c, 2, 60, 0
4, 52203, Note_on_c, 2, 61, 105
4, 52263, Note_on_c, 2, 61, 0
4, 52263, Note_on_c, 2, 62, 106
4, 52323, Note_on_c, 2, 62, 0
4, 52383, Note_on_c, 2, 65, 108
4, 52443, Note_on_c, 2, 65, 0
4, 52443, Note_on_c, 2, 62, 109
4, 52503, Note_on_c, 2, 62, 0
4, 52503, Note_on_c, 2, 63, 110
4, 52563, Note_on_c, 2, 63, 0
4, 52563, Note_on_c, 2, 61, 111
4, 52623, Note_on_c, 2, 61, 0
4, 52623, Note_on_c, 2, 62, 112
4, 52683, Note_on_c, 2, 62, 0
4, 52683, Note_on_c, 2, 59, 112
4, 52743, Note_on_c, 2, 59, 0
4, 52743, Note_on_c, 2, 60, 113
4, 52863, Note_on_c, 2, 60, 0
4, 52863, Note_on_c, 2, 58, 115
4, 52923, Note_on_c, 2, 58, 0
4, 52923, Note_on_c, 2, 57, 116
4, 52983, Note_on_c, 2, 57, 0
4, 52983, Note_on_c, 2, 60, 117
4, 53043, Note_on_c, 2, 60, 0
4, 53043, Note_on_c, 2, 59, 118
4, 53103, Note_on_c, 2, 59, 0
4, 53103, Note_on_c, 2, 60, 119
4, 53163, Note_on_c, 2, 60, 0
4, 53163, Note_on_c, 2, 60, 120
4, 53208, Note_on_c, 2, 60, 0
4, 53223, Note_on_c, 2, 55, 100
4, 53283, Note_on_c, 2, 55, 0
4, 53283, Note_on_c, 2, 57, 102
4, 53343, Note_on_c, 2, 57, 0
4, 53343, Note_on_c, 2, 59, 105
4, 53398, Note_on_c, 2, 59, 0
4, 53403, Note_on_c, 2, 62, 108
4, 53418, Note_on_c, 2, 62, 0
4, 53418, Note_on_c, 2, 60, 109
4, 53433, Note_on_c, 2, 60, 0
4, 53433, Note_on_c, 2, 62, 110
4, 53448, Note_on_c, 2, 62, 0
4, 53448, Note_on_c, 2, 60, 110
4, 53463, Note_on_c, 2, 60, 0
4, 53463, Note_on_c, 2, 62, 111
4, 53478, Note_on_c, 2, 62, 0
4, 53478, Note_on_c, 2, 60, 112
4, 53493, Note_on_c, 2, 60, 0
4, 53493, Note_on_c, 2, 59, 112
4, 53508, Note_on_c, 2, 59, 0
4, 53508, Note_on_c, 2, 60, 113
4, 53518, Note_on_c, 2, 60, 0
4, 53523, Note_on_c, 2, 63, 114
4, 53538, Note_on_c, 2, 63, 0
4, 53538, Note_on_c, 2, 62, 115
4, 53553, Note_on_c, 2, 62, 0
4, 53553, Note_on_c, 2, 63, 115
4, 53568, Note_on_c, 2, 63, 0
4, 53568, Note_on_c, 2, 62, 116
4, 53583, Note_on_c, 2, 62, 0
4, 53583, Note_on_c, 2, 63, 117
4, 53598, Note_on_c, 2, 63, 0
4, 53598, Note_on_c, 2, 62, 117
4, 53613, Note_on_c, 2, 62, 0
4, 53613, Note_on_c, 2, 60, 118
4, 53628, Note_on_c, 2, 60, 0
4, 53628, Note_on_c, 2, 62, 119
4, 53638, Note_on_c, 2, 62, 0
4, 53643, Note_on_c, 2, 63, 120
4, 53763, Note_on_c, 2, 63, 0
4, 53883, Note_on_c, 2, 55, 120
4, 54003, Note_on_c, 2, 55, 0
4, 54183, Note_on_c, 2, 62, 120
4, 54228, Note_on_c, 2, 62, 0
4, 54243, Note_on_c, 2, 62, 120
4, 54288, Note_on_c, 2, 62, 0
4, 54303, Note_on_c, 2, 62, 120
4, 54348, Note_on_c, 2, 62, 0
4, 54363, Note_on_c, 2, 63, 120
4, 54378, Note_on_c, 2, 63, 0
4, 54378, Note_on_c, 2, 62, 120
4, 54393, Note_on_c, 2, 62, 0
4, 54393, Note_on_c, 2, 63, 120
4, 54408, Note_on_c, 2, 63, 0
4, 54408, Note_on_c, 2, 62, 120
4, 54423, Note_on_c, 2, 62, 0
4, 54423, Note_on_c, 2, 63, 120
4, 54438, Note_on_c, 2, 63, 0
4, 54438, Note_on_c, 2, 62, 120
4, 54453, Note_on_c, 2, 62, 0
4, 54453, Note_on_c, 2, 63, 120
4, 54468, Note_on_c, 2, 63, 0
4, 54468, Note_on_c, 2, 62, 120
4, 54483, Note_on_c, 2, 62, 0
4, 54483, Note_on_c, 2, 63, 120
4, 54498, Note_on_c, 2, 63, 0
4, 54498, Note_on_c, 2, 62, 120
4, 54513, Note_on_c, 2, 62, 0
4, 54513, Note_on_c, 2, 63, 120
4, 54528, Note_on_c, 2, 63, 0
4, 54528, Note_on_c, 2, 62, 120
4, 54543, Note_on_c, 2, 62, 0
4, 54543, Note_on_c, 2, 60, 120
4, 54573, Note_on_c, 2, 60, 0
4, 54573, Note_on_c, 2, 62, 120
4, 54603, Note_on_c, 2, 62, 0
4, 54603, Note_on_c, 2, 55, 120
4, 54648, Note_on_c, 2, 55, 0
4, 54663, Note_on_c, 2, 55, 120
4, 54723, Note_on_c, 2, 55, 0
4, 54723, Note_on_c, 2, 57, 120
4, 54783, Note_on_c, 2, 57, 0
4, 54783, Note_on_c, 2, 59, 120
4, 54843, Note_on_c, 2, 59, 0
4, 54843, Note_on_c, 2, 62, 118
4, 54903, Note_on_c, 2, 62, 0
4, 54903, Note_on_c, 2, 60, 116
4, 54963, Note_on_c, 2, 60, 0
4, 54963, Note_on_c, 2, 63, 114
4, 55023, Note_on_c, 2, 63, 0
4, 55023, Note_on_c, 2, 62, 111
4, 55078, Note_on_c, 2, 62, 0
4, 55083, Note_on_c, 2, 65, 109
4, 55143, Note_on_c, 2, 65, 0
4, 55143, Note_on_c, 2, 64, 107
4, 55203, Note_on_c, 2, 64, 0
4, 55203, Note_on_c, 2, 67, 104
4, 55263, Note_on_c, 2, 67, 0
4, 55263, Note_on_c, 2, 65, 102
4, 55323, Note_on_c, 2, 65, 0
4, 55323, Note_on_c, 2, 63, 100
4, 55443, Note_on_c, 2, 63, 0
4, 55563, Note_on_c, 2, 60, 90
4, 55653, Note_on_c, 2, 60, 0
4, 55683, Note_on_c, 2, 60, 90
4, 55773, Note_on_c, 2, 60, 0
4, 55803, Note_on_c, 2, 53, 91
4, 55893, Note_on_c, 2, 53, 0
4, 55923, Note_on_c, 2, 55, 92
4, 55953, Note_on_c, 2, 55, 0
4, 55953, Note_on_c, 2, 56, 93
4, 55983, Note_on_c, 2, 56, 0
4, 55983, Note_on_c, 2, 58, 93
4, 56013, Note_on_c, 2, 58, 0
4, 56013, Note_on_c, 2, 60, 93
4, 56043, Note_on_c, 2, 60, 0
4, 56043, Note_on_c, 2, 61, 94
4, 56163, Note_on_c, 2, 61, 0
4, 56163, Note_on_c, 2, 61, 95
4, 56253, Note_on_c, 2, 61, 0
4, 56283, Note_on_c, 2, 52, 96
4, 56373, Note_on_c, 2, 52, 0
4, 56643, Note_on_c, 2, 56, 101
4, 56823, Note_on_c, 2, 56, 0
4, 56823, Note_on_c, 2, 53, 103
4, 56883, Note_on_c, 2, 53, 0
4, 56883, Note_on_c, 2, 61, 103
4, 56913, Note_on_c, 2, 61, 0
4, 56913, Note_on_c, 2, 60, 104
4, 56943, Note_on_c, 2, 60, 0
4, 56943, Note_on_c, 2, 58, 104
4, 56973, Note_on_c, 2, 58, 0
4, 56973, Note_on_c, 2, 56, 105
4, 57003, Note_on_c, 2, 56, 0
4, 57003, Note_on_c, 2, 58, 105
4, 57048, Note_on_c, 2, 58, 0
4, 57063, Note_on_c, 2, 58, 106
4, 57108, Note_on_c, 2, 58, 0
4, 57123, Note_on_c, 2, 58, 106
4, 57168, Note_on_c, 2, 58, 0
4, 57183, Note_on_c, 2, 58, 107
4, 57228, Note_on_c, 2, 58, 0
4, 57243, Note_on_c, 2, 60, 108
4, 57258, Note_on_c, 2, 60, 0
4, 57258, Note_on_c, 2, 58, 108
4, 57273, Note_on_c, 2, 58, 0
4, 57273, Note_on_c, 2, 60, 108
4, 57288, Note_on_c, 2, 60, 0
4, 57288, Note_on_c, 2, 58, 108
4, 57303, Note_on_c, 2, 58, 0
4, 57303, Note_on_c, 2, 60, 108
4, 57318, Note_on_c, 2, 60, 0
4, 57318, Note_on_c, 2, 58, 109
4, 57333, Note_on_c, 2, 58, 0
4, 57333, Note_on_c, 2, 60, 109
4, 57348, Note_on_c, 2, 60, 0
4, 57348, Note_on_c, 2, 58, 109
4, 57363, Note_on_c, 2, 58, 0
4, 57363, Note_on_c, 2, 60, 109
4, 57378, Note_on_c, 2, 60, 0
4, 57378, Note_on_c, 2, 58, 109
4, 57393, Note_on_c, 2, 58, 0
4, 57393, Note_on_c, 2, 60, 109
4, 57408, Note_on_c, 2, 60, 0
4, 57408, Note_on_c, 2, 58, 110
4, 57423, Note_on_c, 2, 58, 0
4, 57423, Note_on_c, 2, 56, 110
4, 57453, Note_on_c, 2, 56, 0
4, 57453, Note_on_c, 2, 58, 110
4, 57483, Note_on_c, 2, 58, 0
4, 57483, Note_on_c, 2, 60, 110
4, 57543, Note_on_c, 2, 60, 0
4, 57543, Note_on_c, 2, 60, 111
4, 57588, Note_on_c, 2, 60, 0
4, 57603, Note_on_c, 2, 62, 100
4, 57618, Note_on_c, 2, 62, 0
4, 57618, Note_on_c, 2, 60, 112
4, 57633, Note_on_c, 2, 60, 0
4, 57633, Note_on_c, 2, 62, 112
4, 57648, Note_on_c, 2, 62, 0
4, 57648, Note_on_c, 2, 60, 112
4, 57663, Note_on_c, 2, 60, 0
4, 57663, Note_on_c, 2, 62, 113
4, 57678, Note_on_c, 2, 62, 0
4, 57678, Note_on_c, 2, 60, 113
4, 57693, Note_on_c, 2, 60, 0
4, 57693, Note_on_c, 2, 59, 113
4, 57708, Note_on_c, 2, 59, 0
4, 57708, Note_on_c, 2, 60, 113
4, 57723, Note_on_c, 2, 60, 0
4, 57723, Note_on_c, 2, 62, 113
4, 57783, Note_on_c, 2, 62, 0
4, 57783, Note_on_c, 2, 62, 114
4, 57828, Note_on_c, 2, 62, 0
4, 57843, Note_on_c, 2, 63, 115
4, 57858, Note_on_c, 2, 63, 0
4, 57858, Note_on_c, 2, 62, 115
4, 57873, Note_on_c, 2, 62, 0
4, 57873, Note_on_c, 2, 63, 115
4, 57888, Note_on_c, 2, 63, 0
4, 57888, Note_on_c, 2, 62, 115
4, 57903, Note_on_c, 2, 62, 0
4, 57903, Note_on_c, 2, 63, 115
4, 57918, Note_on_c, 2, 63, 0
4, 57918, Note_on_c, 2, 62, 115
4, 57933, Note_on_c, 2, 62, 0
4, 57933, Note_on_c, 2, 60, 116
4, 57948, Note_on_c, 2, 60, 0
4, 57948, Note_on_c, 2, 62, 116
4, 57963, Note_on_c, 2, 62, 0
4, 57963, Note_on_c, 2, 65, 116
4, 57978, Note_on_c, 2, 65, 0
4, 57978, Note_on_c, 2, 63, 116
4, 57993, Note_on_c, 2, 63, 0
4, 57993, Note_on_c, 2, 65, 116
4, 58008, Note_on_c, 2, 65, 0
4, 58008, Note_on_c, 2, 63, 117
4, 58023, Note_on_c, 2, 63, 0
4, 58023, Note_on_c, 2, 65, 117
4, 58038, Note_on_c, 2, 65, 0
4, 58038, Note_on_c, 2, 63, 117
4, 58053, Note_on_c, 2, 63, 0
4, 58053, Note_on_c, 2, 62, 117
4, 58068, Note_on_c, 2, 62, 0
4, 58068, Note_on_c, 2, 63, 117
4, 58083, Note_on_c, 2, 63, 0
4, 58083, Note_on_c, 2, 65, 117
4, 58098, Note_on_c, 2, 65, 0
4, 58098, Note_on_c, 2, 64, 118
4, 58113, Note_on_c, 2, 64, 0
4, 58113, Note_on_c, 2, 65, 118
4, 58128, Note_on_c, 2, 65, 0
4, 58128, Note_on_c, 2, 64, 118
4, 58143, Note_on_c, 2, 64, 0
4, 58143, Note_on_c, 2, 65, 118
4, 58158, Note_on_c, 2, 65, 0
4, 58158, Note_on_c, 2, 64, 118
4, 58173, Note_on_c, 2, 64, 0
4, 58173, Note_on_c, 2, 62, 118
4, 58188, Note_on_c, 2, 62, 0
4, 58188, Note_on_c, 2, 63, 119
4, 58203, Note_on_c, 2, 63, 0
4, 58203, Note_on_c, 2, 62, 80
4, 58293, Note_on_c, 2, 62, 0
4, 58323, Note_on_c, 2, 62, 80
4, 58413, Note_on_c, 2, 62, 0
4, 58443, Note_on_c, 2, 55, 80
4, 58533, Note_on_c, 2, 55, 0
4, 58563, Note_on_c, 2, 57, 82
4, 58593, Note_on_c, 2, 57, 0
4, 58593, Note_on_c, 2, 58, 82
4, 58623, Note_on_c, 2, 58, 0
4, 58623, Note_on_c, 2, 60, 83
4, 58653, Note_on_c, 2, 60, 0
4, 58653, Note_on_c, 2, 62, 83
4, 58683, Note_on_c, 2, 62, 0
4, 58683, Note_on_c, 2, 63, 84
4, 58773, Note_on_c, 2, 63, 0
4, 58803, Note_on_c, 2, 63, 86
4, 58893, Note_on_c, 2, 63, 0
4, 58923, Note_on_c, 2, 54, 88
4, 59013, Note_on_c, 2, 54, 0
4, 59103, Note_on_c, 2, 63, 91
4, 59163, Note_on_c, 2, 63, 0
4, 59163, Note_on_c, 2, 61, 92
4, 59223, Note_on_c, 2, 61, 0
4, 59223, Note_on_c, 2, 62, 93
4, 59283, Note_on_c, 2, 62, 0
4, 59343, Note_on_c, 2, 60, 95
4, 59403, Note_on_c, 2, 60, 0
4, 59403, Note_on_c, 2, 57, 96
4, 59463, Note_on_c, 2, 57, 0
4, 59463, Note_on_c, 2, 58, 97
4, 59523, Note_on_c, 2, 58, 0
4, 59583, Note_on_c, 2, 57, 99
4, 59643, Note_on_c, 2, 57, 0
4, 59643, Note_on_c, 2, 54, 100
4, 59703, Note_on_c, 2, 54, 0
4, 59703, Note_on_c, 2, 55, 101
4, 59823, Note_on_c, 2, 55, 0
4, 59823, Note_on_c, 2, 57, 103
4, 59883, Note_on_c, 2, 57, 0
4, 59883, Note_on_c, 2, 58, 105
4, 59943, Note_on_c, 2, 58, 0
4, 59943, Note_on_c, 2, 57, 105
4, 60003, Note_on_c, 2, 57, 0
4, 60183, Note_on_c, 2, 62, 105
4, 60243, Note_on_c, 2, 62, 0
4, 60243, Note_on_c, 2, 60, 105
4, 60273, Note_on_c, 2, 60, 0
4, 60273, Note_on_c, 2, 58, 105
4, 60303, Note_on_c, 2, 58, 0
4, 60303, Note_on_c, 2, 57, 105
4, 60333, Note_on_c, 2, 57, 0
4, 60333, Note_on_c, 2, 55, 105
4, 60363, Note_on_c, 2, 55, 0
4, 60363, Note_on_c, 2, 55, 105
4, 60423, Note_on_c, 2, 55, 0
4, 60423, Note_on_c, 2, 54, 105
4, 60483, Note_on_c, 2, 54, 0
4, 60543, Note_on_c, 2, 57, 105
4, 60603, Note_on_c, 2, 57, 0
4, 60603, Note_on_c, 2, 60, 105
4, 60663, Note_on_c, 2, 60, 0
4, 60663, Note_on_c, 2, 58, 105
4, 60723, Note_on_c, 2, 58, 0
4, 60903, Note_on_c, 2, 65, 105
4, 60948, Note_on_c, 2, 65, 0
4, 60963, Note_on_c, 2, 65, 105
4, 61008, Note_on_c, 2, 65, 0
4, 61023, Note_on_c, 2, 65, 105
4, 61068, Note_on_c, 2, 65, 0
4, 61083, Note_on_c, 2, 67, 105
4, 61098, Note_on_c, 2, 67, 0
4, 61098, Note_on_c, 2, 65, 105
4, 61113, Note_on_c, 2, 65, 0
4, 61113, Note_on_c, 2, 67, 105
4, 61128, Note_on_c, 2, 67, 0
4, 61128, Note_on_c, 2, 65, 105
4, 61143, Note_on_c, 2, 65, 0
4, 61143, Note_on_c, 2, 67, 105
4, 61158, Note_on_c, 2, 67, 0
4, 61158, Note_on_c, 2, 65, 105
4, 61173, Note_on_c, 2, 65, 0
4, 61173, Note_on_c, 2, 67, 105
4, 61188, Note_on_c, 2, 67, 0
4, 61188, Note_on_c, 2, 65, 105
4, 61203, Note_on_c, 2, 65, 0
4, 61203, Note_on_c, 2, 67, 105
4, 61218, Note_on_c, 2, 67, 0
4, 61218, Note_on_c, 2, 65, 105
4, 61233, Note_on_c, 2, 65, 0
4, 61233, Note_on_c, 2, 67, 105
4, 61248, Note_on_c, 2, 67, 0
4, 61248, Note_on_c, 2, 65, 105
4, 61263, Note_on_c, 2, 65, 0
4, 61263, Note_on_c, 2, 63, 105
4, 61293, Note_on_c, 2, 63, 0
4, 61293, Note_on_c, 2, 65, 105
4, 61323, Note_on_c, 2, 65, 0
4, 61323, Note_on_c, 2, 65, 105
4, 61383, Note_on_c, 2, 65, 0
4, 61383, Note_on_c, 2, 63, 105
4, 61443, Note_on_c, 2, 63, 0
4, 61443, Note_on_c, 2, 60, 105
4, 61503, Note_on_c, 2, 60, 0
4, 61503, Note_on_c, 2, 59, 105
4, 61563, Note_on_c, 2, 59, 0
4, 61623, Note_on_c, 2, 60, 105
4, 61683, Note_on_c, 2, 60, 0
4, 61683, Note_on_c, 2, 63, 105
4, 61743, Note_on_c, 2, 63, 0
4, 61743, Note_on_c, 2, 62, 105
4, 61803, Note_on_c, 2, 62, 0
4, 61863, Note_on_c, 2, 62, 105
4, 61923, Note_on_c, 2, 62, 0
4, 61923, Note_on_c, 2, 65, 105
4, 61983, Note_on_c, 2, 65, 0
4, 61983, Note_on_c, 2, 59, 105
4, 62043, Note_on_c, 2, 59, 0
4, 62043, Note_on_c, 2, 60, 100
4, 62133, Note_on_c, 2, 60, 0
4, 62163, Note_on_c, 2, 53, 90
4, 62253, Note_on_c, 2, 53, 0
4, 62283, Note_on_c, 2, 55, 80
4, 62363, Note_on_c, 2, 55, 0
4, 63243, Note_on_c, 2, 62, 100
4, 63333, Note_on_c, 2, 62, 0
4, 63363, Note_on_c, 2, 62, 100
4, 63453, Note_on_c, 2, 62, 0
4, 63483, Note_on_c, 2, 55, 100
4, 63573, Note_on_c, 2, 55, 0
4, 63603, Note_on_c, 2, 57, 100
4, 63633, Note_on_c, 2, 57, 0
4, 63633, Note_on_c, 2, 59, 100
4, 63663, Note_on_c, 2, 59, 0
4, 63663, Note_on_c, 2, 60, 100
4, 63693, Note_on_c, 2, 60, 0
4, 63693, Note_on_c, 2, 62, 100
4, 63723, Note_on_c, 2, 62, 0
4, 63723, Note_on_c, 2, 63, 100
4, 63813, Note_on_c, 2, 63, 0
4, 63843, Note_on_c, 2, 63, 100
4, 63933, Note_on_c, 2, 63, 0
4, 63963, Note_on_c, 2, 54, 100
4, 64053, Note_on_c, 2, 54, 0
4, 64143, Note_on_c, 2, 63, 100
4, 64203, Note_on_c, 2, 63, 0
4, 64203, Note_on_c, 2, 61, 100
4, 64263, Note_on_c, 2, 61, 0
4, 64263, Note_on_c, 2, 62, 100
4, 64323, Note_on_c, 2, 62, 0
4, 64323, Note_on_c, 2, 59, 100
4, 64383, Note_on_c, 2, 59, 0
4, 64383, Note_on_c, 2, 60, 100
4, 64443, Note_on_c, 2, 60, 0
4, 64443, Note_on_c, 2, 58, 100
4, 64503, Note_on_c, 2, 58, 0
4, 64503, Note_on_c, 2, 59, 100
4, 64563, Note_on_c, 2, 59, 0
4, 65643, Note_on_c, 2, 53, 100
4, 65733, Note_on_c, 2, 53, 0
4, 65763, Note_on_c, 2, 53, 100
4, 65853, Note_on_c, 2, 53, 0
4, 65883, Note_on_c, 2, 60, 100
4, 65973, Note_on_c, 2, 60, 0
4, 66003, Note_on_c, 2, 58, 100
4, 66033, Note_on_c, 2, 58, 0
4, 66033, Note_on_c, 2, 56, 100
4, 66063, Note_on_c, 2, 56, 0
4, 66063, Note_on_c, 2, 55, 100
4, 66093, Note_on_c, 2, 55, 0
4, 66093, Note_on_c, 2, 53, 100
4, 66123, Note_on_c, 2, 53, 0
4, 66123, Note_on_c, 2, 52, 100
4, 66213, Note_on_c, 2, 52, 0
4, 66243, Note_on_c, 2, 52, 100
4, 66333, Note_on_c, 2, 52, 0
4, 66363, Note_on_c, 2, 61, 100
4, 66453, Note_on_c, 2, 61, 0
4, 66663, Note_on_c, 2, 58, 100
4, 66683, Note_on_c, 2, 58, 0
4, 66693, Note_on_c, 2, 60, 100
4, 66713, Note_on_c, 2, 60, 0
4, 66723, Note_on_c, 2, 61, 100
4, 66743, Note_on_c, 2, 61, 0
4, 66753, Note_on_c, 2, 60, 100
4, 66773, Note_on_c, 2, 60, 0
4, 66783, Note_on_c, 2, 58, 100
4, 66803, Note_on_c, 2, 58, 0
4, 66813, Note_on_c, 2, 56, 100
4, 66833, Note_on_c, 2, 56, 0
4, 66843, Note_on_c, 2, 55, 100
4, 66888, Note_on_c, 2, 55, 0
4, 66903, Note_on_c, 2, 58, 100
4, 66963, Note_on_c, 2, 58, 0
4, 66963, Note_on_c, 2, 61, 100
4, 67023, Note_on_c, 2, 61, 0
4, 67023, Note_on_c, 2, 58, 100
4, 67083, Note_on_c, 2, 58, 0
4, 67143, Note_on_c, 2, 60, 100
4, 67163, Note_on_c, 2, 60, 0
4, 67173, Note_on_c, 2, 62, 100
4, 67193, Note_on_c, 2, 62, 0
4, 67203, Note_on_c, 2, 63, 100
4, 67223, Note_on_c, 2, 63, 0
4, 67233, Note_on_c, 2, 62, 100
4, 67253, Note_on_c, 2, 62, 0
4, 67263, Note_on_c, 2, 60, 100
4, 67283, Note_on_c, 2, 60, 0
4, 67293, Note_on_c, 2, 58, 100
4, 67313, Note_on_c, 2, 58, 0
4, 67323, Note_on_c, 2, 57, 100
4, 67368, Note_on_c, 2, 57, 0
4, 67383, Note_on_c, 2, 60, 100
4, 67443, Note_on_c, 2, 60, 0
4, 67443, Note_on_c, 2, 63, 100
4, 67503, Note_on_c, 2, 63, 0
4, 67503, Note_on_c, 2, 60, 100
4, 67563, Note_on_c, 2, 60, 0
4, 67863, Note_on_c, 2, 62, 100
4, 67923, Note_on_c, 2, 62, 0
4, 67923, Note_on_c, 2, 65, 100
4, 67983, Note_on_c, 2, 65, 0
4, 67983, Note_on_c, 2, 62, 100
4, 68038, Note_on_c, 2, 62, 0
4, 68283, Note_on_c, 2, 60, 100
4, 68373, Note_on_c, 2, 60, 0
4, 68403, Note_on_c, 2, 60, 100
4, 68493, Note_on_c, 2, 60, 0
4, 68523, Note_on_c, 2, 53, 100
4, 68613, Note_on_c, 2, 53, 0
4, 68643, Note_on_c, 2, 55, 100
4, 68673, Note_on_c, 2, 55, 0
4, 68673, Note_on_c, 2, 56, 100
4, 68703, Note_on_c, 2, 56, 0
4, 68703, Note_on_c, 2, 58, 100
4, 68733, Note_on_c, 2, 58, 0
4, 68733, Note_on_c, 2, 60, 100
4, 68763, Note_on_c, 2, 60, 0
4, 68763, Note_on_c, 2, 62, 100
4, 68853, Note_on_c, 2, 62, 0
4, 68883, Note_on_c, 2, 62, 100
4, 69063, Note_on_c, 2, 62, 0
4, 69063, Note_on_c, 2, 60, 100
4, 69108, Note_on_c, 2, 60, 0
4, 69123, Note_on_c, 2, 60, 100
4, 69168, Note_on_c, 2, 60, 0
4, 69183, Note_on_c, 2, 60, 100
4, 69228, Note_on_c, 2, 60, 0
4, 69243, Note_on_c, 2, 62, 100
4, 69258, Note_on_c, 2, 62, 0
4, 69258, Note_on_c, 2, 60, 100
4, 69273, Note_on_c, 2, 60, 0
4, 69273, Note_on_c, 2, 62, 100
4, 69288, Note_on_c, 2, 62, 0
4, 69288, Note_on_c, 2, 60, 100
4, 69303, Note_on_c, 2, 60, 0
4, 69303, Note_on_c, 2, 62, 100
4, 69318, Note_on_c, 2, 62, 0
4, 69318, Note_on_c, 2, 60, 100
4, 69333, Note_on_c, 2, 60, 0
4, 69333, Note_on_c, 2, 62, 100
4, 69348, Note_on_c, 2, 62, 0
4, 69348, Note_on_c, 2, 60, 100
4, 69363, Note_on_c, 2, 60, 0
4, 69363, Note_on_c, 2, 62, 100
4, 69378, Note_on_c, 2, 62, 0
4, 69378, Note_on_c, 2, 60, 100
4, 69393, Note_on_c, 2, 60, 0
4, 69393, Note_on_c, 2, 62, 100
4, 69408, Note_on_c, 2, 62, 0
4, 69408, Note_on_c, 2, 60, 100
4, 69423, Note_on_c, 2, 60, 0
4, 69423, Note_on_c, 2, 59, 100
4, 69453, Note_on_c, 2, 59, 0
4, 69453, Note_on_c, 2, 60, 100
4, 69483, Note_on_c, 2, 60, 0
4, 69483, Note_on_c, 2, 55, 100
4, 69723, Note_on_c, 2, 55, 0
4, 69963, Note_on_c, 2, 67, 100
4, 70053, Note_on_c, 2, 67, 0
4, 70083, Note_on_c, 2, 67, 100
4, 70173, Note_on_c, 2, 67, 0
4, 70203, Note_on_c, 2, 60, 100
4, 70293, Note_on_c, 2, 60, 0
4, 70323, Note_on_c, 2, 62, 100
4, 70353, Note_on_c, 2, 62, 0
4, 70353, Note_on_c, 2, 63, 100
4, 70383, Note_on_c, 2, 63, 0
4, 70383, Note_on_c, 2, 66, 100
4, 70413, Note_on_c, 2, 66, 0
4, 70413, Note_on_c, 2, 67, 100
4, 70443, Note_on_c, 2, 67, 0
4, 70443, Note_on_c, 2, 68, 100
4, 70533, Note_on_c, 2, 68, 0
4, 70563, Note_on_c, 2, 68, 100
4, 70653, Note_on_c, 2, 68, 0
4, 70683, Note_on_c, 2, 66, 100
4, 70743, Note_on_c, 2, 66, 0
4, 70743, Note_on_c, 2, 67, 100
4, 70803, Note_on_c, 2, 67, 0
4, 70803, Note_on_c, 2, 64, 100
4, 70863, Note_on_c, 2, 64, 0
4, 70863, Note_on_c, 2, 65, 100
4, 70918, Note_on_c, 2, 65, 0
4, 70923, Note_on_c, 2, 62, 100
4, 70983, Note_on_c, 2, 62, 0
4, 70983, Note_on_c, 2, 63, 100
4, 71043, Note_on_c, 2, 63, 0
4, 71043, Note_on_c, 2, 65, 100
4, 71088, Note_on_c, 2, 65, 0
4, 71103, Note_on_c, 2, 62, 100
4, 71148, Note_on_c, 2, 62, 0
4, 71163, Note_on_c, 2, 67, 100
4, 71283, Note_on_c, 2, 67, 0
4, 71283, Note_on_c, 2, 55, 100
4, 71403, Note_on_c, 2, 55, 0
4, 71403, Note_on_c, 2, 55, 100
4, 71433, Note_on_c, 2, 55, 0
4, 71433, Note_on_c, 2, 63, 100
4, 71458, Note_on_c, 2, 63, 0
4, 71463, Note_on_c, 2, 63, 100
4, 71488, Note_on_c, 2, 63, 0
4, 71493, Note_on_c, 2, 63, 100
4, 71518, Note_on_c, 2, 63, 0
4, 71523, Note_on_c, 2, 55, 100
4, 71553, Note_on_c, 2, 55, 0
4, 71553, Note_on_c, 2, 63, 100
4, 71578, Note_on_c, 2, 63, 0
4, 71583, Note_on_c, 2, 63, 100
4, 71608, Note_on_c, 2, 63, 0
4, 71613, Note_on_c, 2, 63, 100
4, 71638, Note_on_c, 2, 63, 0
4, 71643, Note_on_c, 2, 55, 100
4, 71673, Note_on_c, 2, 55, 0
4, 71673, Note_on_c, 2, 63, 100
4, 71698, Note_on_c, 2, 63, 0
4, 71703, Note_on_c, 2, 63, 100
4, 71728, Note_on_c, 2, 63, 0
4, 71733, Note_on_c, 2, 63, 100
4, 71758, Note_on_c, 2, 63, 0
4, 71763, Note_on_c, 2, 55, 100
4, 71793, Note_on_c, 2, 55, 0
4, 71793, Note_on_c, 2, 63, 100
4, 71818, Note_on_c, 2, 63, 0
4, 71823, Note_on_c, 2, 63, 100
4, 71848, Note_on_c, 2, 63, 0
4, 71853, Note_on_c, 2, 63, 100
4, 71878, Note_on_c, 2, 63, 0
4, 71883, Note_on_c, 2, 55, 100
4, 71913, Note_on_c, 2, 55, 0
4, 71913, Note_on_c, 2, 65, 100
4, 71938, Note_on_c, 2, 65, 0
4, 71943, Note_on_c, 2, 65, 100
4, 71968, Note_on_c, 2, 65, 0
4, 71973, Note_on_c, 2, 65, 100
4, 71998, Note_on_c, 2, 65, 0
4, 72003, Note_on_c, 2, 55, 100
4, 72033, Note_on_c, 2, 55, 0
4, 72033, Note_on_c, 2, 65, 100
4, 72058, Note_on_c, 2, 65, 0
4, 72063, Note_on_c, 2, 65, 100
4, 72088, Note_on_c, 2, 65, 0
4, 72093, Note_on_c, 2, 65, 100
4, 72118, Note_on_c, 2, 65, 0
4, 72123, Note_on_c, 2, 62, 100
4, 72153, Note_on_c, 2, 62, 0
4, 72153, Note_on_c, 2, 65, 100
4, 72178, Note_on_c, 2, 65, 0
4, 72183, Note_on_c, 2, 65, 100
4, 72208, Note_on_c, 2, 65, 0
4, 72213, Note_on_c, 2, 65, 100
4, 72238, Note_on_c, 2, 65, 0
4, 72243, Note_on_c, 2, 59, 100
4, 72273, Note_on_c, 2, 59, 0
4, 72273, Note_on_c, 2, 68, 100
4, 72298, Note_on_c, 2, 68, 0
4, 72303, Note_on_c, 2, 68, 100
4, 72328, Note_on_c, 2, 68, 0
4, 72333, Note_on_c, 2, 68, 100
4, 72358, Note_on_c, 2, 68, 0
4, 72363, Note_on_c, 2, 67, 100
4, 72408, Note_on_c, 2, 67, 0
4, 72423, Note_on_c, 2, 55, 100
4, 72483, Note_on_c, 2, 55, 0
4, 72483, Note_on_c, 2, 56, 100
4, 72603, Note_on_c, 2, 56, 0
4, 72603, Note_on_c, 2, 55, 100
4, 72723, Note_on_c, 2, 55, 0
4, 72723, Note_on_c, 2, 58, 100
4, 72838, Note_on_c, 2, 58, 0
4, 72843, Note_on_c, 2, 60, 100
4, 73198, Note_on_c, 2, 60, 0
4, 73203, Note_on_c, 2, 55, 100
4, 73443, Note_on_c, 2, 55, 0
4, 73443, Note_on_c, 2, 56, 100
4, 73563, Note_on_c, 2, 56, 0
4, 73563, Note_on_c, 2, 55, 100
4, 73683, Note_on_c, 2, 55, 0
4, 73683, Note_on_c, 2, 58, 100
4, 73798, Note_on_c, 2, 58, 0
4, 73803, Note_on_c, 2, 60, 100
4, 74158, Note_on_c, 2, 60, 0
4, 74163, Note_on_c, 2, 55, 100
4, 74283, Note_on_c, 2, 55, 0
4, 74283, Note_on_c, 2, 51, 100
4, 74373, Note_on_c, 2, 51, 0
4, 74373, Note_on_c, 2, 60, 100
4, 74403, Note_on_c, 2, 60, 0
4, 74403, Note_on_c, 2, 62, 100
4, 74433, Note_on_c, 2, 62, 0
4, 74433, Note_on_c, 2, 63, 100
4, 74463, Note_on_c, 2, 63, 0
4, 74463, Note_on_c, 2, 65, 100
4, 74493, Note_on_c, 2, 65, 0
4, 74493, Note_on_c, 2, 67, 100
4, 74523, Note_on_c, 2, 67, 0
4, 74523, Note_on_c, 2, 68, 100
4, 74613, Note_on_c, 2, 68, 0
4, 74643, Note_on_c, 2, 68, 100
4, 74733, Note_on_c, 2, 68, 0
4, 74763, Note_on_c, 2, 59, 100
4, 74853, Note_on_c, 2, 59, 0
4, 74943, Note_on_c, 2, 68, 100
4, 75003, Note_on_c, 2, 68, 0
4, 75003, Note_on_c, 2, 66, 100
4, 75063, Note_on_c, 2, 66, 0
4, 75063, Note_on_c, 2, 67, 100
4, 75123, Note_on_c, 2, 67, 0
4, 75183, Note_on_c, 2, 67, 100
4, 75243, Note_on_c, 2, 67, 0
4, 75243, Note_on_c, 2, 64, 100
4, 75303, Note_on_c, 2, 64, 0
4, 75303, Note_on_c, 2, 65, 100
4, 75363, Note_on_c, 2, 65, 0
4, 75453, Note_on_c, 2, 68, 110
4, 75478, Note_on_c, 2, 68, 0
4, 75483, Note_on_c, 2, 67, 111
4, 75568, Note_on_c, 2, 67, 0
4, 75603, Note_on_c, 2, 55, 115
4, 75603, Note_on_c, 2, 65, 115
4, 75693, Note_on_c, 2, 65, 0
4, 75693, Note_on_c, 2, 55, 0
4, 75723, Note_on_c, 2, 63, 110
4, 75723, Note_on_c, 2, 55, 110
4, 75723, Note_on_c, 2, 48, 110
4, 75843, Note_on_c, 2, 48, 0
4, 75843, Note_on_c, 2, 55, 0
4, 75843, Note_on_c, 2, 63, 0
4, 76203, Control_c, 2, 121, 0
4, 76203, End_track
5, 0, Start_track
5, 0, MIDI_port, 0
5, 0, Title_t, "Cello"
5, 0, Program_c, 3, 48
5, 5, Control_c, 3, 121, 0
5, 10, Program_c, 3, 48
5, 15, Pitch_bend_c, 3, 7942
5, 20, Control_c, 3, 10, 110
5, 25, Control_c, 3, 11, 127
5, 30, Control_c, 3, 91, 80
5, 35, Control_c, 3, 93, 0
5, 40, Control_c, 3, 7, 127
5, 365, Note_on_c, 3, 36, 100
5, 485, Note_on_c, 3, 36, 0
5, 575, Note_on_c, 3, 48, 100
5, 599, Note_on_c, 3, 48, 0
5, 605, Note_on_c, 3, 55, 100
5, 690, Note_on_c, 3, 55, 0
5, 695, Note_on_c, 3, 53, 100
5, 719, Note_on_c, 3, 53, 0
5, 725, Note_on_c, 3, 51, 100
5, 845, Note_on_c, 3, 51, 0
5, 935, Note_on_c, 3, 51, 100
5, 965, Note_on_c, 3, 51, 0
5, 965, Note_on_c, 3, 43, 100
5, 1050, Note_on_c, 3, 43, 0
5, 1055, Note_on_c, 3, 47, 100
5, 1079, Note_on_c, 3, 47, 0
5, 1085, Note_on_c, 3, 48, 100
5, 1205, Note_on_c, 3, 48, 0
5, 1295, Note_on_c, 3, 55, 100
5, 1319, Note_on_c, 3, 55, 0
5, 1325, Note_on_c, 3, 48, 100
5, 1410, Note_on_c, 3, 48, 0
5, 1415, Note_on_c, 3, 52, 100
5, 1439, Note_on_c, 3, 52, 0
5, 1445, Note_on_c, 3, 53, 100
5, 1535, Note_on_c, 3, 53, 0
5, 1565, Note_on_c, 3, 48, 100
5, 1655, Note_on_c, 3, 48, 0
5, 2165, Control_c, 3, 11, 70
5, 2165, Note_on_c, 3, 41, 40
5, 2168, Control_c, 3, 11, 73
5, 2171, Control_c, 3, 11, 76
5, 2174, Control_c, 3, 11, 79
5, 2177, Control_c, 3, 11, 82
5, 2180, Control_c, 3, 11, 85
5, 2183, Control_c, 3, 11, 88
5, 2187, Control_c, 3, 11, 91
5, 2190, Control_c, 3, 11, 94
5, 2193, Control_c, 3, 11, 97
5, 2196, Control_c, 3, 11, 100
5, 2199, Control_c, 3, 11, 103
5, 2202, Control_c, 3, 11, 106
5, 2206, Control_c, 3, 11, 109
5, 2209, Control_c, 3, 11, 112
5, 2212, Control_c, 3, 11, 115
5, 2215, Control_c, 3, 11, 118
5, 2218, Note_on_c, 3, 41, 0
5, 2218, Control_c, 3, 11, 121
5, 2221, Control_c, 3, 11, 124
5, 2225, Control_c, 3, 11, 127
5, 2225, Note_on_c, 3, 41, 40
5, 2278, Note_on_c, 3, 41, 0
5, 2285, Note_on_c, 3, 41, 40
5, 2338, Note_on_c, 3, 41, 0
5, 2345, Note_on_c, 3, 41, 40
5, 2398, Note_on_c, 3, 41, 0
5, 2405, Note_on_c, 3, 41, 40
5, 2458, Note_on_c, 3, 41, 0
5, 2465, Note_on_c, 3, 41, 40
5, 2518, Note_on_c, 3, 41, 0
5, 2525, Note_on_c, 3, 41, 40
5, 2578, Note_on_c, 3, 41, 0
5, 2585, Note_on_c, 3, 41, 40
5, 2638, Note_on_c, 3, 41, 0
5, 2645, Note_on_c, 3, 39, 40
5, 2698, Note_on_c, 3, 39, 0
5, 2705, Note_on_c, 3, 39, 40
5, 2758, Note_on_c, 3, 39, 0
5, 2765, Note_on_c, 3, 47, 40
5, 2818, Note_on_c, 3, 47, 0
5, 2825, Note_on_c, 3, 47, 40
5, 2878, Note_on_c, 3, 47, 0
5, 2885, Note_on_c, 3, 48, 40
5, 2945, Note_on_c, 3, 48, 0
5, 2945, Note_on_c, 3, 42, 40
5, 3005, Note_on_c, 3, 42, 0
5, 3005, Note_on_c, 3, 43, 40
5, 3125, Note_on_c, 3, 43, 0
5, 3335, Note_on_c, 3, 43, 100
5, 3359, Note_on_c, 3, 43, 0
5, 3365, Note_on_c, 3, 51, 100
5, 3565, Note_on_c, 3, 51, 0
5, 3575, Note_on_c, 3, 50, 100
5, 3599, Note_on_c, 3, 50, 0
5, 3605, Note_on_c, 3, 48, 100
5, 3690, Note_on_c, 3, 48, 0
5, 3695, Note_on_c, 3, 43, 100
5, 3719, Note_on_c, 3, 43, 0
5, 3725, Note_on_c, 3, 55, 100
5, 3925, Note_on_c, 3, 55, 0
5, 3935, Note_on_c, 3, 53, 100
5, 3959, Note_on_c, 3, 53, 0
5, 3965, Note_on_c, 3, 51, 100
5, 4050, Note_on_c, 3, 51, 0
5, 4055, Note_on_c, 3, 48, 100
5, 4079, Note_on_c, 3, 48, 0
5, 4085, Note_on_c, 3, 60, 100
5, 4285, Note_on_c, 3, 60, 0
5, 4295, Note_on_c, 3, 58, 100
5, 4319, Note_on_c, 3, 58, 0
5, 4325, Note_on_c, 3, 56, 100
5, 4415, Note_on_c, 3, 56, 0
5, 4445, Note_on_c, 3, 55, 100
5, 4535, Note_on_c, 3, 55, 0
5, 4685, Control_c, 3, 11, 70
5, 4685, Note_on_c, 3, 41, 40
5, 4688, Control_c, 3, 11, 73
5, 4691, Control_c, 3, 11, 76
5, 4694, Control_c, 3, 11, 79
5, 4697, Control_c, 3, 11, 82
5, 4700, Control_c, 3, 11, 85
5, 4703, Control_c, 3, 11, 88
5, 4707, Control_c, 3, 11, 91
5, 4710, Control_c, 3, 11, 94
5, 4713, Control_c, 3, 11, 97
5, 4716, Control_c, 3, 11, 100
5, 4719, Control_c, 3, 11, 103
5, 4722, Control_c, 3, 11, 106
5, 4726, Control_c, 3, 11, 109
5, 4729, Control_c, 3, 11, 112
5, 4732, Control_c, 3, 11, 115
5, 4735, Control_c, 3, 11, 118
5, 4738, Control_c, 3, 11, 121
5, 4741, Control_c, 3, 11, 124
5, 4745, Control_c, 3, 11, 127
5, 4775, Note_on_c, 3, 41, 0
5, 4775, Note_on_c, 3, 40, 40
5, 4800, Note_on_c, 3, 40, 0
5, 4805, Note_on_c, 3, 41, 40
5, 4895, Note_on_c, 3, 41, 0
5, 4895, Note_on_c, 3, 40, 40
5, 4920, Note_on_c, 3, 40, 0
5, 4925, Note_on_c, 3, 41, 40
5, 5015, Note_on_c, 3, 41, 0
5, 5015, Note_on_c, 3, 40, 40
5, 5040, Note_on_c, 3, 40, 0
5, 5045, Note_on_c, 3, 41, 40
5, 5165, Note_on_c, 3, 41, 0
5, 5165, Note_on_c, 3, 44, 40
5, 5285, Note_on_c, 3, 44, 0
5, 5285, Note_on_c, 3, 49, 40
5, 5405, Note_on_c, 3, 49, 0
5, 5405, Note_on_c, 3, 39, 40
5, 5458, Note_on_c, 3, 39, 0
5, 5465, Note_on_c, 3, 39, 40
5, 5518, Note_on_c, 3, 39, 0
5, 5525, Note_on_c, 3, 39, 40
5, 5578, Note_on_c, 3, 39, 0
5, 5585, Note_on_c, 3, 39, 40
5, 5638, Note_on_c, 3, 39, 0
5, 5645, Note_on_c, 3, 39, 40
5, 5698, Note_on_c, 3, 39, 0
5, 5705, Note_on_c, 3, 39, 40
5, 5758, Note_on_c, 3, 39, 0
5, 5765, Note_on_c, 3, 44, 40
5, 5818, Note_on_c, 3, 44, 0
5, 5825, Note_on_c, 3, 44, 40
5, 5878, Note_on_c, 3, 44, 0
5, 5885, Note_on_c, 3, 44, 40
5, 5938, Note_on_c, 3, 44, 0
5, 5945, Note_on_c, 3, 44, 40
5, 5998, Note_on_c, 3, 44, 0
5, 6005, Note_on_c, 3, 44, 40
5, 6058, Note_on_c, 3, 44, 0
5, 6065, Note_on_c, 3, 44, 40
5, 6118, Note_on_c, 3, 44, 0
5, 6125, Note_on_c, 3, 45, 40
5, 6178, Note_on_c, 3, 45, 0
5, 6185, Note_on_c, 3, 45, 40
5, 6238, Note_on_c, 3, 45, 0
5, 6245, Note_on_c, 3, 45, 40
5, 6298, Note_on_c, 3, 45, 0
5, 6305, Note_on_c, 3, 45, 40
5, 6358, Note_on_c, 3, 45, 0
5, 6365, Note_on_c, 3, 45, 40
5, 6418, Note_on_c, 3, 45, 0
5, 6425, Note_on_c, 3, 45, 40
5, 6478, Note_on_c, 3, 45, 0
5, 6485, Note_on_c, 3, 46, 40
5, 6538, Note_on_c, 3, 46, 0
5, 6545, Note_on_c, 3, 46, 40
5, 6598, Note_on_c, 3, 46, 0
5, 6605, Note_on_c, 3, 46, 41
5, 6658, Note_on_c, 3, 46, 0
5, 6665, Note_on_c, 3, 46, 41
5, 6718, Note_on_c, 3, 46, 0
5, 6725, Note_on_c, 3, 46, 42
5, 6778, Note_on_c, 3, 46, 0
5, 6785, Note_on_c, 3, 46, 43
5, 6838, Note_on_c, 3, 46, 0
5, 6845, Note_on_c, 3, 47, 43
5, 6898, Note_on_c, 3, 47, 0
5, 6905, Note_on_c, 3, 47, 44
5, 6958, Note_on_c, 3, 47, 0
5, 6965, Note_on_c, 3, 47, 45
5, 7018, Note_on_c, 3, 47, 0
5, 7025, Note_on_c, 3, 47, 45
5, 7078, Note_on_c, 3, 47, 0
5, 7085, Note_on_c, 3, 47, 46
5, 7138, Note_on_c, 3, 47, 0
5, 7145, Note_on_c, 3, 47, 46
5, 7198, Note_on_c, 3, 47, 0
5, 7205, Note_on_c, 3, 48, 47
5, 7258, Note_on_c, 3, 48, 0
5, 7265, Note_on_c, 3, 48, 48
5, 7318, Note_on_c, 3, 48, 0
5, 7325, Note_on_c, 3, 48, 48
5, 7378, Note_on_c, 3, 48, 0
5, 7385, Note_on_c, 3, 48, 49
5, 7438, Note_on_c, 3, 48, 0
5, 7445, Note_on_c, 3, 48, 50
5, 7498, Note_on_c, 3, 48, 0
5, 7505, Note_on_c, 3, 48, 50
5, 7558, Note_on_c, 3, 48, 0
5, 7565, Note_on_c, 3, 49, 51
5, 7618, Note_on_c, 3, 49, 0
5, 7625, Note_on_c, 3, 49, 51
5, 7678, Note_on_c, 3, 49, 0
5, 7685, Note_on_c, 3, 49, 52
5, 7738, Note_on_c, 3, 49, 0
5, 7745, Note_on_c, 3, 49, 53
5, 7798, Note_on_c, 3, 49, 0
5, 7805, Note_on_c, 3, 49, 53
5, 7858, Note_on_c, 3, 49, 0
5, 7865, Note_on_c, 3, 49, 54
5, 7918, Note_on_c, 3, 49, 0
5, 7925, Note_on_c, 3, 50, 55
5, 7978, Note_on_c, 3, 50, 0
5, 7985, Note_on_c, 3, 50, 55
5, 8038, Note_on_c, 3, 50, 0
5, 8045, Note_on_c, 3, 51, 56
5, 8098, Note_on_c, 3, 51, 0
5, 8105, Note_on_c, 3, 51, 56
5, 8158, Note_on_c, 3, 51, 0
5, 8165, Note_on_c, 3, 49, 57
5, 8218, Note_on_c, 3, 49, 0
5, 8225, Note_on_c, 3, 49, 58
5, 8278, Note_on_c, 3, 49, 0
5, 8285, Note_on_c, 3, 50, 45
5, 8485, Note_on_c, 3, 50, 0
5, 8495, Note_on_c, 3, 48, 80
5, 8519, Note_on_c, 3, 48, 0
5, 8525, Note_on_c, 3, 46, 84
5, 8605, Note_on_c, 3, 46, 0
5, 8615, Note_on_c, 3, 45, 96
5, 8639, Note_on_c, 3, 45, 0
5, 8645, Note_on_c, 3, 43, 100
5, 8765, Note_on_c, 3, 43, 0
5, 8855, Note_on_c, 3, 43, 100
5, 8879, Note_on_c, 3, 43, 0
5, 8885, Note_on_c, 3, 50, 100
5, 8970, Note_on_c, 3, 50, 0
5, 8975, Note_on_c, 3, 48, 100
5, 8999, Note_on_c, 3, 48, 0
5, 9005, Note_on_c, 3, 46, 100
5, 9065, Note_on_c, 3, 46, 0
5, 9215, Note_on_c, 3, 46, 100
5, 9239, Note_on_c, 3, 46, 0
5, 9245, Note_on_c, 3, 38, 100
5, 9330, Note_on_c, 3, 38, 0
5, 9335, Note_on_c, 3, 42, 100
5, 9359, Note_on_c, 3, 42, 0
5, 9365, Note_on_c, 3, 43, 100
5, 9485, Note_on_c, 3, 43, 0
5, 9575, Note_on_c, 3, 50, 100
5, 9599, Note_on_c, 3, 50, 0
5, 9605, Note_on_c, 3, 43, 100
5, 9690, Note_on_c, 3, 43, 0
5, 9695, Note_on_c, 3, 47, 100
5, 9719, Note_on_c, 3, 47, 0
5, 9725, Note_on_c, 3, 48, 100
5, 9815, Note_on_c, 3, 48, 0
5, 9845, Note_on_c, 3, 43, 100
5, 9935, Note_on_c, 3, 43, 0
5, 11165, Note_on_c, 3, 38, 40
5, 11255, Note_on_c, 3, 38, 0
5, 11255, Note_on_c, 3, 37, 40
5, 11285, Note_on_c, 3, 37, 0
5, 11285, Note_on_c, 3, 38, 40
5, 11375, Note_on_c, 3, 38, 0
5, 11375, Note_on_c, 3, 37, 40
5, 11405, Note_on_c, 3, 37, 0
5, 11405, Note_on_c, 3, 38, 40
5, 11495, Note_on_c, 3, 38, 0
5, 11495, Note_on_c, 3, 37, 40
5, 11525, Note_on_c, 3, 37, 0
5, 11525, Note_on_c, 3, 38, 40
5, 11578, Note_on_c, 3, 38, 0
5, 11585, Note_on_c, 3, 38, 40
5, 11638, Note_on_c, 3, 38, 0
5, 11645, Note_on_c, 3, 38, 40
5, 11698, Note_on_c, 3, 38, 0
5, 11705, Note_on_c, 3, 38, 40
5, 11758, Note_on_c, 3, 38, 0
5, 11765, Note_on_c, 3, 38, 40
5, 11818, Note_on_c, 3, 38, 0
5, 11825, Note_on_c, 3, 38, 40
5, 11878, Note_on_c, 3, 38, 0
5, 11885, Note_on_c, 3, 43, 40
5, 11938, Note_on_c, 3, 43, 0
5, 11945, Note_on_c, 3, 43, 40
5, 11998, Note_on_c, 3, 43, 0
5, 12005, Note_on_c, 3, 44, 40
5, 12058, Note_on_c, 3, 44, 0
5, 12065, Note_on_c, 3, 44, 40
5, 12118, Note_on_c, 3, 44, 0
5, 12125, Note_on_c, 3, 42, 40
5, 12178, Note_on_c, 3, 42, 0
5, 12185, Note_on_c, 3, 42, 40
5, 12238, Note_on_c, 3, 42, 0
5, 12245, Note_on_c, 3, 43, 40
5, 12365, Note_on_c, 3, 43, 0
5, 12695, Note_on_c, 3, 43, 100
5, 12719, Note_on_c, 3, 43, 0
5, 12725, Note_on_c, 3, 55, 100
5, 12925, Note_on_c, 3, 55, 0
5, 12935, Note_on_c, 3, 53, 100
5, 12959, Note_on_c, 3, 53, 0
5, 12965, Note_on_c, 3, 51, 100
5, 13047, Note_on_c, 3, 51, 0
5, 13055, Note_on_c, 3, 43, 100
5, 13079, Note_on_c, 3, 43, 0
5, 13085, Note_on_c, 3, 55, 100
5, 13285, Note_on_c, 3, 55, 0
5, 13295, Note_on_c, 3, 53, 100
5, 13319, Note_on_c, 3, 53, 0
5, 13325, Note_on_c, 3, 51, 100
5, 13407, Note_on_c, 3, 51, 0
5, 13415, Note_on_c, 3, 48, 100
5, 13439, Note_on_c, 3, 48, 0
5, 13445, Note_on_c, 3, 60, 100
5, 13645, Note_on_c, 3, 60, 0
5, 13655, Note_on_c, 3, 58, 100
5, 13679, Note_on_c, 3, 58, 0
5, 13685, Note_on_c, 3, 56, 100
5, 13775, Note_on_c, 3, 56, 0
5, 13805, Note_on_c, 3, 55, 100
5, 13895, Note_on_c, 3, 55, 0
5, 14045, Control_c, 3, 11, 70
5, 14045, Note_on_c, 3, 41, 40
5, 14048, Control_c, 3, 11, 73
5, 14051, Control_c, 3, 11, 76
5, 14054, Control_c, 3, 11, 79
5, 14057, Control_c, 3, 11, 82
5, 14060, Control_c, 3, 11, 85
5, 14063, Control_c, 3, 11, 88
5, 14067, Control_c, 3, 11, 91
5, 14070, Control_c, 3, 11, 94
5, 14073, Control_c, 3, 11, 97
5, 14076, Control_c, 3, 11, 100
5, 14079, Control_c, 3, 11, 103
5, 14082, Control_c, 3, 11, 106
5, 14086, Control_c, 3, 11, 109
5, 14089, Control_c, 3, 11, 112
5, 14092, Control_c, 3, 11, 115
5, 14095, Control_c, 3, 11, 118
5, 14098, Control_c, 3, 11, 121
5, 14101, Control_c, 3, 11, 124
5, 14105, Control_c, 3, 11, 127
5, 14135, Note_on_c, 3, 41, 0
5, 14135, Note_on_c, 3, 40, 40
5, 14165, Note_on_c, 3, 40, 0
5, 14165, Note_on_c, 3, 41, 40
5, 14255, Note_on_c, 3, 41, 0
5, 14255, Note_on_c, 3, 40, 40
5, 14285, Note_on_c, 3, 40, 0
5, 14285, Note_on_c, 3, 41, 40
5, 14375, Note_on_c, 3, 41, 0
5, 14375, Note_on_c, 3, 40, 40
5, 14400, Note_on_c, 3, 40, 0
5, 14405, Note_on_c, 3, 41, 40
5, 14458, Note_on_c, 3, 41, 0
5, 14465, Note_on_c, 3, 41, 40
5, 14518, Note_on_c, 3, 41, 0
5, 14525, Note_on_c, 3, 41, 40
5, 14578, Note_on_c, 3, 41, 0
5, 14585, Note_on_c, 3, 41, 40
5, 14638, Note_on_c, 3, 41, 0
5, 14645, Note_on_c, 3, 41, 40
5, 14698, Note_on_c, 3, 41, 0
5, 14705, Note_on_c, 3, 41, 40
5, 14758, Note_on_c, 3, 41, 0
5, 14765, Note_on_c, 3, 40, 40
5, 14818, Note_on_c, 3, 40, 0
5, 14825, Note_on_c, 3, 40, 40
5, 14878, Note_on_c, 3, 40, 0
5, 14885, Note_on_c, 3, 40, 40
5, 14938, Note_on_c, 3, 40, 0
5, 14945, Note_on_c, 3, 40, 40
5, 14998, Note_on_c, 3, 40, 0
5, 15005, Note_on_c, 3, 40, 40
5, 15058, Note_on_c, 3, 40, 0
5, 15065, Note_on_c, 3, 40, 40
5, 15118, Note_on_c, 3, 40, 0
5, 15125, Note_on_c, 3, 40, 40
5, 15178, Note_on_c, 3, 40, 0
5, 15185, Note_on_c, 3, 40, 40
5, 15238, Note_on_c, 3, 40, 0
5, 15245, Note_on_c, 3, 40, 40
5, 15298, Note_on_c, 3, 40, 0
5, 15305, Note_on_c, 3, 40, 40
5, 15358, Note_on_c, 3, 40, 0
5, 15365, Note_on_c, 3, 40, 40
5, 15418, Note_on_c, 3, 40, 0
5, 15425, Note_on_c, 3, 40, 40
5, 15478, Note_on_c, 3, 40, 0
5, 15485, Note_on_c, 3, 40, 40
5, 15538, Note_on_c, 3, 40, 0
5, 15545, Note_on_c, 3, 40, 40
5, 15598, Note_on_c, 3, 40, 0
5, 15605, Note_on_c, 3, 40, 40
5, 15658, Note_on_c, 3, 40, 0
5, 15665, Note_on_c, 3, 40, 40
5, 15718, Note_on_c, 3, 40, 0
5, 15725, Note_on_c, 3, 40, 40
5, 15778, Note_on_c, 3, 40, 0
5, 15785, Note_on_c, 3, 40, 40
5, 15838, Note_on_c, 3, 40, 0
5, 15845, Note_on_c, 3, 40, 40
5, 15898, Note_on_c, 3, 40, 0
5, 15905, Note_on_c, 3, 40, 40
5, 15958, Note_on_c, 3, 40, 0
5, 15965, Note_on_c, 3, 40, 40
5, 16018, Note_on_c, 3, 40, 0
5, 16025, Note_on_c, 3, 40, 40
5, 16078, Note_on_c, 3, 40, 0
5, 16085, Note_on_c, 3, 40, 40
5, 16138, Note_on_c, 3, 40, 0
5, 16145, Note_on_c, 3, 46, 40
5, 16198, Note_on_c, 3, 46, 0
5, 16205, Note_on_c, 3, 45, 40
5, 16258, Note_on_c, 3, 45, 0
5, 16265, Note_on_c, 3, 45, 40
5, 16318, Note_on_c, 3, 45, 0
5, 16325, Note_on_c, 3, 44, 40
5, 16378, Note_on_c, 3, 44, 0
5, 16385, Note_on_c, 3, 44, 40
5, 16438, Note_on_c, 3, 44, 0
5, 16445, Note_on_c, 3, 43, 40
5, 16498, Note_on_c, 3, 43, 0
5, 16505, Note_on_c, 3, 43, 40
5, 16558, Note_on_c, 3, 43, 0
5, 16565, Note_on_c, 3, 41, 40
5, 16618, Note_on_c, 3, 41, 0
5, 16625, Note_on_c, 3, 41, 40
5, 16678, Note_on_c, 3, 41, 0
5, 16685, Note_on_c, 3, 42, 40
5, 16738, Note_on_c, 3, 42, 0
5, 16745, Note_on_c, 3, 42, 40
5, 16798, Note_on_c, 3, 42, 0
5, 16805, Note_on_c, 3, 42, 40
5, 16858, Note_on_c, 3, 42, 0
5, 16865, Note_on_c, 3, 42, 40
5, 16918, Note_on_c, 3, 42, 0
5, 16925, Note_on_c, 3, 43, 40
5, 17015, Note_on_c, 3, 43, 0
5, 17015, Note_on_c, 3, 44, 40
5, 17045, Note_on_c, 3, 44, 0
5, 17045, Note_on_c, 3, 43, 40
5, 17135, Note_on_c, 3, 43, 0
5, 17135, Note_on_c, 3, 44, 40
5, 17165, Note_on_c, 3, 44, 0
5, 17165, Note_on_c, 3, 43, 40
5, 17250, Note_on_c, 3, 43, 0
5, 17255, Note_on_c, 3, 44, 40
5, 17280, Note_on_c, 3, 44, 0
5, 17285, Note_on_c, 3, 42, 40
5, 17338, Note_on_c, 3, 42, 0
5, 17345, Note_on_c, 3, 42, 40
5, 17398, Note_on_c, 3, 42, 0
5, 17405, Note_on_c, 3, 42, 40
5, 17458, Note_on_c, 3, 42, 0
5, 17465, Note_on_c, 3, 42, 40
5, 17518, Note_on_c, 3, 42, 0
5, 17525, Note_on_c, 3, 42, 40
5, 17578, Note_on_c, 3, 42, 0
5, 17585, Note_on_c, 3, 42, 40
5, 17638, Note_on_c, 3, 42, 0
5, 17645, Note_on_c, 3, 43, 40
5, 17735, Note_on_c, 3, 43, 0
5, 17735, Note_on_c, 3, 42, 40
5, 17765, Note_on_c, 3, 42, 0
5, 17765, Note_on_c, 3, 43, 40
5, 17855, Note_on_c, 3, 43, 0
5, 17855, Note_on_c, 3, 42, 40
5, 17885, Note_on_c, 3, 42, 0
5, 17885, Note_on_c, 3, 43, 40
5, 17970, Note_on_c, 3, 43, 0
5, 17975, Note_on_c, 3, 43, 40
5, 18005, Note_on_c, 3, 43, 0
5, 18005, Note_on_c, 3, 44, 40
5, 18058, Note_on_c, 3, 44, 0
5, 18065, Note_on_c, 3, 44, 40
5, 18118, Note_on_c, 3, 44, 0
5, 18125, Note_on_c, 3, 44, 40
5, 18178, Note_on_c, 3, 44, 0
5, 18185, Note_on_c, 3, 44, 39
5, 18238, Note_on_c, 3, 44, 0
5, 18245, Note_on_c, 3, 44, 38
5, 18298, Note_on_c, 3, 44, 0
5, 18305, Note_on_c, 3, 44, 37
5, 18358, Note_on_c, 3, 44, 0
5, 18365, Note_on_c, 3, 43, 36
5, 18720, Note_on_c, 3, 43, 0
5, 18725, Note_on_c, 3, 43, 30
5, 18905, Control_c, 3, 11, 127
5, 18906, Control_c, 3, 11, 125
5, 18907, Control_c, 3, 11, 124
5, 18908, Control_c, 3, 11, 123
5, 18909, Control_c, 3, 11, 122
5, 18910, Control_c, 3, 11, 121
5, 18911, Control_c, 3, 11, 120
5, 18912, Control_c, 3, 11, 119
5, 18913, Control_c, 3, 11, 118
5, 18914, Control_c, 3, 11, 117
5, 18915, Control_c, 3, 11, 116
5, 18916, Control_c, 3, 11, 115
5, 18917, Control_c, 3, 11, 114
5, 18918, Control_c, 3, 11, 113
5, 18919, Control_c, 3, 11, 112
5, 18920, Control_c, 3, 11, 110
5, 18921, Control_c, 3, 11, 109
5, 18922, Control_c, 3, 11, 108
5, 18923, Control_c, 3, 11, 107
5, 18924, Control_c, 3, 11, 106
5, 18925, Control_c, 3, 11, 105
5, 18926, Control_c, 3, 11, 104
5, 18927, Control_c, 3, 11, 103
5, 18928, Control_c, 3, 11, 102
5, 18929, Control_c, 3, 11, 101
5, 18930, Control_c, 3, 11, 100
5, 18931, Control_c, 3, 11, 99
5, 18932, Control_c, 3, 11, 98
5, 18933, Control_c, 3, 11, 97
5, 18934, Control_c, 3, 11, 96
5, 18935, Control_c, 3, 11, 94
5, 18936, Control_c, 3, 11, 93
5, 18937, Control_c, 3, 11, 92
5, 18938, Control_c, 3, 11, 91
5, 18939, Control_c, 3, 11, 90
5, 18940, Control_c, 3, 11, 89
5, 18941, Control_c, 3, 11, 88
5, 18942, Control_c, 3, 11, 87
5, 18943, Control_c, 3, 11, 86
5, 18944, Control_c, 3, 11, 85
5, 18945, Control_c, 3, 11, 84
5, 18946, Control_c, 3, 11, 83
5, 18947, Control_c, 3, 11, 82
5, 18948, Control_c, 3, 11, 81
5, 18949, Control_c, 3, 11, 80
5, 18950, Control_c, 3, 11, 78
5, 18951, Control_c, 3, 11, 77
5, 18952, Control_c, 3, 11, 76
5, 18953, Control_c, 3, 11, 75
5, 18954, Control_c, 3, 11, 74
5, 18955, Control_c, 3, 11, 73
5, 18956, Control_c, 3, 11, 72
5, 18957, Control_c, 3, 11, 71
5, 18958, Control_c, 3, 11, 70
5, 18959, Control_c, 3, 11, 69
5, 18960, Control_c, 3, 11, 68
5, 18961, Control_c, 3, 11, 67
5, 18962, Control_c, 3, 11, 66
5, 18963, Control_c, 3, 11, 65
5, 18964, Control_c, 3, 11, 64
5, 18965, Note_on_c, 3, 43, 0
5, 19085, Control_c, 3, 11, 127
5, 19085, Note_on_c, 3, 43, 85
5, 19085, Note_on_c, 3, 55, 85
5, 19175, Note_on_c, 3, 55, 0
5, 19175, Note_on_c, 3, 43, 0
5, 19205, Note_on_c, 3, 43, 85
5, 19205, Note_on_c, 3, 55, 85
5, 19295, Note_on_c, 3, 55, 0
5, 19295, Note_on_c, 3, 43, 0
5, 19325, Note_on_c, 3, 36, 85
5, 19325, Note_on_c, 3, 48, 85
5, 19415, Note_on_c, 3, 48, 0
5, 19415, Note_on_c, 3, 36, 0
5, 19445, Note_on_c, 3, 50, 85
5, 19475, Note_on_c, 3, 50, 0
5, 19475, Note_on_c, 3, 51, 85
5, 19505, Note_on_c, 3, 51, 0
5, 19505, Note_on_c, 3, 53, 85
5, 19535, Note_on_c, 3, 53, 0
5, 19535, Note_on_c, 3, 55, 85
5, 19565, Note_on_c, 3, 55, 0
5, 19565, Note_on_c, 3, 56, 85
5, 19655, Note_on_c, 3, 56, 0
5, 19685, Note_on_c, 3, 56, 85
5, 19775, Note_on_c, 3, 56, 0
5, 19805, Note_on_c, 3, 47, 85
5, 19895, Note_on_c, 3, 47, 0
5, 19985, Note_on_c, 3, 56, 85
5, 20045, Note_on_c, 3, 56, 0
5, 20045, Note_on_c, 3, 54, 85
5, 20105, Note_on_c, 3, 54, 0
5, 20105, Note_on_c, 3, 55, 85
5, 20165, Note_on_c, 3, 55, 0
5, 20225, Note_on_c, 3, 53, 85
5, 20285, Note_on_c, 3, 53, 0
5, 20285, Note_on_c, 3, 50, 85
5, 20345, Note_on_c, 3, 50, 0
5, 20345, Note_on_c, 3, 51, 85
5, 20405, Note_on_c, 3, 51, 0
5, 20405, Note_on_c, 3, 49, 85
5, 20465, Note_on_c, 3, 49, 0
5, 20465, Note_on_c, 3, 50, 85
5, 20525, Note_on_c, 3, 50, 0
5, 20525, Note_on_c, 3, 47, 85
5, 20585, Note_on_c, 3, 47, 0
5, 20585, Note_on_c, 3, 48, 85
5, 20645, Note_on_c, 3, 48, 0
5, 20705, Note_on_c, 3, 36, 85
5, 20728, Note_on_c, 3, 36, 0
5, 20735, Note_on_c, 3, 38, 85
5, 20758, Note_on_c, 3, 38, 0
5, 20765, Note_on_c, 3, 39, 85
5, 20855, Note_on_c, 3, 39, 0
5, 20885, Note_on_c, 3, 36, 85
5, 20975, Note_on_c, 3, 36, 0
5, 21065, Note_on_c, 3, 48, 85
5, 21110, Note_on_c, 3, 48, 0
5, 21125, Note_on_c, 3, 48, 85
5, 21170, Note_on_c, 3, 48, 0
5, 21185, Note_on_c, 3, 48, 85
5, 21230, Note_on_c, 3, 48, 0
5, 21245, Note_on_c, 3, 50, 85
5, 21260, Note_on_c, 3, 50, 0
5, 21260, Note_on_c, 3, 48, 85
5, 21275, Note_on_c, 3, 48, 0
5, 21275, Note_on_c, 3, 50, 85
5, 21290, Note_on_c, 3, 50, 0
5, 21290, Note_on_c, 3, 48, 85
5, 21305, Note_on_c, 3, 48, 0
5, 21305, Note_on_c, 3, 50, 85
5, 21320, Note_on_c, 3, 50, 0
5, 21320, Note_on_c, 3, 48, 85
5, 21335, Note_on_c, 3, 48, 0
5, 21335, Note_on_c, 3, 50, 85
5, 21350, Note_on_c, 3, 50, 0
5, 21350, Note_on_c, 3, 48, 85
5, 21365, Note_on_c, 3, 48, 0
5, 21365, Note_on_c, 3, 50, 85
5, 21380, Note_on_c, 3, 50, 0
5, 21380, Note_on_c, 3, 48, 85
5, 21395, Note_on_c, 3, 48, 0
5, 21395, Note_on_c, 3, 50, 85
5, 21410, Note_on_c, 3, 50, 0
5, 21410, Note_on_c, 3, 48, 85
5, 21425, Note_on_c, 3, 48, 0
5, 21425, Note_on_c, 3, 47, 85
5, 21455, Note_on_c, 3, 47, 0
5, 21455, Note_on_c, 3, 48, 85
5, 21485, Note_on_c, 3, 48, 0
5, 21485, Note_on_c, 3, 46, 85
5, 21605, Note_on_c, 3, 46, 0
5, 21605, Note_on_c, 3, 45, 85
5, 21725, Note_on_c, 3, 45, 0
5, 21725, Note_on_c, 3, 43, 85
5, 21845, Note_on_c, 3, 43, 0
5, 21845, Note_on_c, 3, 41, 85
5, 22025, Note_on_c, 3, 41, 0
5, 22025, Note_on_c, 3, 40, 85
5, 22050, Note_on_c, 3, 40, 0
5, 22055, Note_on_c, 3, 38, 85
5, 22080, Note_on_c, 3, 38, 0
5, 22085, Note_on_c, 3, 39, 85
5, 22130, Note_on_c, 3, 39, 0
5, 22145, Note_on_c, 3, 36, 85
5, 22190, Note_on_c, 3, 36, 0
5, 22265, Note_on_c, 3, 53, 85
5, 22288, Note_on_c, 3, 53, 0
5, 22295, Note_on_c, 3, 51, 85
5, 22318, Note_on_c, 3, 51, 0
5, 22325, Note_on_c, 3, 50, 85
5, 22370, Note_on_c, 3, 50, 0
5, 22385, Note_on_c, 3, 48, 85
5, 22430, Note_on_c, 3, 48, 0
5, 22445, Note_on_c, 3, 47, 85
5, 22535, Note_on_c, 3, 47, 0
5, 22565, Note_on_c, 3, 50, 85
5, 22655, Note_on_c, 3, 50, 0
5, 22685, Note_on_c, 3, 55, 85
5, 22775, Note_on_c, 3, 55, 0
5, 22985, Note_on_c, 3, 43, 85
5, 23045, Note_on_c, 3, 43, 0
5, 23045, Note_on_c, 3, 45, 85
5, 23105, Note_on_c, 3, 45, 0
5, 23105, Note_on_c, 3, 47, 85
5, 23165, Note_on_c, 3, 47, 0
5, 23165, Note_on_c, 3, 48, 85
5, 23225, Note_on_c, 3, 48, 0
5, 23225, Note_on_c, 3, 44, 85
5, 23285, Note_on_c, 3, 44, 0
5, 23285, Note_on_c, 3, 41, 85
5, 23345, Note_on_c, 3, 41, 0
5, 23345, Note_on_c, 3, 43, 85
5, 23400, Note_on_c, 3, 43, 0
5, 23405, Note_on_c, 3, 39, 85
5, 23520, Note_on_c, 3, 39, 0
5, 23525, Note_on_c, 3, 36, 85
5, 23640, Note_on_c, 3, 36, 0
5, 23945, Note_on_c, 3, 45, 85
5, 23970, Note_on_c, 3, 45, 0
5, 23975, Note_on_c, 3, 43, 85
5, 24000, Note_on_c, 3, 43, 0
5, 24005, Note_on_c, 3, 42, 85
5, 24060, Note_on_c, 3, 42, 0
5, 24065, Note_on_c, 3, 39, 85
5, 24120, Note_on_c, 3, 39, 0
5, 24125, Note_on_c, 3, 38, 85
5, 24180, Note_on_c, 3, 38, 0
5, 24185, Note_on_c, 3, 50, 85
5, 24240, Note_on_c, 3, 50, 0
5, 24245, Note_on_c, 3, 52, 85
5, 24300, Note_on_c, 3, 52, 0
5, 24305, Note_on_c, 3, 54, 85
5, 24360, Note_on_c, 3, 54, 0
5, 24365, Note_on_c, 3, 55, 85
5, 24485, Note_on_c, 3, 55, 0
5, 25325, Note_on_c, 3, 43, 85
5, 25325, Note_on_c, 3, 55, 85
5, 25415, Note_on_c, 3, 55, 0
5, 25415, Note_on_c, 3, 43, 0
5, 25445, Note_on_c, 3, 43, 85
5, 25445, Note_on_c, 3, 55, 85
5, 25535, Note_on_c, 3, 55, 0
5, 25535, Note_on_c, 3, 43, 0
5, 25565, Note_on_c, 3, 36, 85
5, 25565, Note_on_c, 3, 48, 85
5, 25655, Note_on_c, 3, 48, 0
5, 25655, Note_on_c, 3, 36, 0
5, 25685, Note_on_c, 3, 50, 85
5, 25715, Note_on_c, 3, 50, 0
5, 25715, Note_on_c, 3, 51, 85
5, 25745, Note_on_c, 3, 51, 0
5, 25745, Note_on_c, 3, 53, 85
5, 25775, Note_on_c, 3, 53, 0
5, 25775, Note_on_c, 3, 55, 85
5, 25805, Note_on_c, 3, 55, 0
5, 25805, Note_on_c, 3, 56, 85
5, 25895, Note_on_c, 3, 56, 0
5, 25925, Note_on_c, 3, 56, 85
5, 26015, Note_on_c, 3, 56, 0
5, 26045, Note_on_c, 3, 47, 85
5, 26135, Note_on_c, 3, 47, 0
5, 26225, Note_on_c, 3, 56, 85
5, 26270, Note_on_c, 3, 56, 0
5, 26285, Note_on_c, 3, 54, 85
5, 26345, Note_on_c, 3, 54, 0
5, 26345, Note_on_c, 3, 55, 85
5, 26405, Note_on_c, 3, 55, 0
5, 26465, Note_on_c, 3, 53, 85
5, 26510, Note_on_c, 3, 53, 0
5, 26525, Note_on_c, 3, 50, 85
5, 26585, Note_on_c, 3, 50, 0
5, 26585, Note_on_c, 3, 51, 85
5, 26645, Note_on_c, 3, 51, 0
5, 26645, Note_on_c, 3, 49, 85
5, 26705, Note_on_c, 3, 49, 0
5, 26705, Note_on_c, 3, 50, 85
5, 26760, Note_on_c, 3, 50, 0
5, 26765, Note_on_c, 3, 48, 85
5, 26885, Note_on_c, 3, 48, 0
5, 27065, Note_on_c, 3, 53, 85
5, 27090, Note_on_c, 3, 53, 0
5, 27095, Note_on_c, 3, 55, 85
5, 27120, Note_on_c, 3, 55, 0
5, 27125, Note_on_c, 3, 56, 85
5, 27180, Note_on_c, 3, 56, 0
5, 27185, Note_on_c, 3, 48, 85
5, 27240, Note_on_c, 3, 48, 0
5, 27245, Note_on_c, 3, 48, 85
5, 27260, Note_on_c, 3, 48, 0
5, 27260, Note_on_c, 3, 46, 85
5, 27275, Note_on_c, 3, 46, 0
5, 27275, Note_on_c, 3, 48, 85
5, 27290, Note_on_c, 3, 48, 0
5, 27290, Note_on_c, 3, 46, 85
5, 27305, Note_on_c, 3, 46, 0
5, 27305, Note_on_c, 3, 48, 85
5, 27320, Note_on_c, 3, 48, 0
5, 27320, Note_on_c, 3, 46, 85
5, 27335, Note_on_c, 3, 46, 0
5, 27335, Note_on_c, 3, 48, 85
5, 27350, Note_on_c, 3, 48, 0
5, 27350, Note_on_c, 3, 46, 85
5, 27365, Note_on_c, 3, 46, 0
5, 27365, Note_on_c, 3, 48, 85
5, 27380, Note_on_c, 3, 48, 0
5, 27380, Note_on_c, 3, 46, 85
5, 27395, Note_on_c, 3, 46, 0
5, 27395, Note_on_c, 3, 48, 85
5, 27410, Note_on_c, 3, 48, 0
5, 27410, Note_on_c, 3, 46, 85
5, 27425, Note_on_c, 3, 46, 0
5, 27425, Note_on_c, 3, 45, 85
5, 27455, Note_on_c, 3, 45, 0
5, 27455, Note_on_c, 3, 46, 85
5, 27485, Note_on_c, 3, 46, 0
5, 27485, Note_on_c, 3, 39, 85
5, 27530, Note_on_c, 3, 39, 0
5, 27545, Note_on_c, 3, 48, 85
5, 27570, Note_on_c, 3, 48, 0
5, 27575, Note_on_c, 3, 50, 85
5, 27600, Note_on_c, 3, 50, 0
5, 27605, Note_on_c, 3, 51, 85
5, 27660, Note_on_c, 3, 51, 0
5, 27665, Note_on_c, 3, 43, 85
5, 27720, Note_on_c, 3, 43, 0
5, 27725, Note_on_c, 3, 46, 85
5, 27740, Note_on_c, 3, 46, 0
5, 27740, Note_on_c, 3, 44, 85
5, 27755, Note_on_c, 3, 44, 0
5, 27755, Note_on_c, 3, 46, 85
5, 27770, Note_on_c, 3, 46, 0
5, 27770, Note_on_c, 3, 44, 85
5, 27785, Note_on_c, 3, 44, 0
5, 27785, Note_on_c, 3, 46, 85
5, 27800, Note_on_c, 3, 46, 0
5, 27800, Note_on_c, 3, 44, 85
5, 27815, Note_on_c, 3, 44, 0
5, 27815, Note_on_c, 3, 43, 85
5, 27830, Note_on_c, 3, 43, 0
5, 27830, Note_on_c, 3, 44, 85
5, 27845, Note_on_c, 3, 44, 0
5, 27845, Note_on_c, 3, 46, 85
5, 27860, Note_on_c, 3, 46, 0
5, 27860, Note_on_c, 3, 45, 85
5, 27875, Note_on_c, 3, 45, 0
5, 27875, Note_on_c, 3, 46, 85
5, 27890, Note_on_c, 3, 46, 0
5, 27890, Note_on_c, 3, 45, 85
5, 27905, Note_on_c, 3, 45, 0
5, 27905, Note_on_c, 3, 46, 85
5, 27920, Note_on_c, 3, 46, 0
5, 27920, Note_on_c, 3, 45, 85
5, 27935, Note_on_c, 3, 45, 0
5, 27935, Note_on_c, 3, 43, 85
5, 27950, Note_on_c, 3, 43, 0
5, 27950, Note_on_c, 3, 44, 85
5, 27965, Note_on_c, 3, 44, 0
5, 27965, Note_on_c, 3, 46, 85
5, 28195, Note_on_c, 3, 46, 0
5, 28205, Note_on_c, 3, 46, 85
5, 28675, Note_on_c, 3, 46, 0
5, 28685, Note_on_c, 3, 46, 85
5, 28915, Note_on_c, 3, 46, 0
5, 28925, Note_on_c, 3, 46, 85
5, 29155, Note_on_c, 3, 46, 0
5, 29165, Note_on_c, 3, 46, 85
5, 29275, Note_on_c, 3, 46, 0
5, 29285, Note_on_c, 3, 46, 85
5, 29465, Note_on_c, 3, 46, 0
5, 29465, Note_on_c, 3, 58, 85
5, 29525, Note_on_c, 3, 58, 0
5, 29525, Note_on_c, 3, 56, 85
5, 29585, Note_on_c, 3, 56, 0
5, 29585, Note_on_c, 3, 55, 85
5, 29645, Note_on_c, 3, 55, 0
5, 29645, Note_on_c, 3, 53, 86
5, 29705, Note_on_c, 3, 53, 0
5, 29705, Note_on_c, 3, 51, 86
5, 29765, Note_on_c, 3, 51, 0
5, 29765, Note_on_c, 3, 49, 86
5, 29825, Note_on_c, 3, 49, 0
5, 29825, Note_on_c, 3, 48, 87
5, 29885, Note_on_c, 3, 48, 0
5, 29885, Note_on_c, 3, 46, 87
5, 29945, Note_on_c, 3, 46, 0
5, 29945, Note_on_c, 3, 44, 87
5, 30005, Note_on_c, 3, 44, 0
5, 30005, Note_on_c, 3, 43, 87
5, 30065, Note_on_c, 3, 43, 0
5, 30065, Note_on_c, 3, 46, 88
5, 30125, Note_on_c, 3, 46, 0
5, 30125, Note_on_c, 3, 36, 88
5, 30170, Note_on_c, 3, 36, 0
5, 30185, Note_on_c, 3, 61, 88
5, 30245, Note_on_c, 3, 61, 0
5, 30245, Note_on_c, 3, 59, 89
5, 30305, Note_on_c, 3, 59, 0
5, 30305, Note_on_c, 3, 60, 89
5, 30365, Note_on_c, 3, 60, 0
5, 30425, Note_on_c, 3, 56, 90
5, 30485, Note_on_c, 3, 56, 0
5, 30485, Note_on_c, 3, 54, 90
5, 30545, Note_on_c, 3, 54, 0
5, 30545, Note_on_c, 3, 55, 90
5, 30605, Note_on_c, 3, 55, 0
5, 30665, Note_on_c, 3, 53, 91
5, 30725, Note_on_c, 3, 53, 0
5, 30725, Note_on_c, 3, 50, 91
5, 30785, Note_on_c, 3, 50, 0
5, 30785, Note_on_c, 3, 51, 91
5, 30845, Note_on_c, 3, 51, 0
5, 30845, Note_on_c, 3, 49, 92
5, 30905, Note_on_c, 3, 49, 0
5, 30905, Note_on_c, 3, 50, 92
5, 30965, Note_on_c, 3, 50, 0
5, 31025, Note_on_c, 3, 48, 92
5, 31085, Note_on_c, 3, 48, 0
5, 31085, Note_on_c, 3, 45, 93
5, 31145, Note_on_c, 3, 45, 0
5, 31145, Note_on_c, 3, 46, 93
5, 31205, Note_on_c, 3, 46, 0
5, 31205, Note_on_c, 3, 44, 93
5, 31265, Note_on_c, 3, 44, 0
5, 31265, Note_on_c, 3, 45, 94
5, 31325, Note_on_c, 3, 45, 0
5, 31325, Note_on_c, 3, 42, 94
5, 31385, Note_on_c, 3, 42, 0
5, 31385, Note_on_c, 3, 43, 94
5, 31445, Note_on_c, 3, 43, 0
5, 31625, Note_on_c, 3, 51, 95
5, 31685, Note_on_c, 3, 51, 0
5, 31685, Note_on_c, 3, 49, 96
5, 31745, Note_on_c, 3, 49, 0
5, 31745, Note_on_c, 3, 50, 96
5, 31805, Note_on_c, 3, 50, 0
5, 31865, Note_on_c, 3, 58, 97
5, 31925, Note_on_c, 3, 58, 0
5, 31925, Note_on_c, 3, 55, 97
5, 31985, Note_on_c, 3, 55, 0
5, 31985, Note_on_c, 3, 56, 97
5, 32045, Note_on_c, 3, 56, 0
5, 32045, Note_on_c, 3, 54, 97
5, 32105, Note_on_c, 3, 54, 0
5, 32105, Note_on_c, 3, 55, 98
5, 32165, Note_on_c, 3, 55, 0
5, 32165, Note_on_c, 3, 52, 98
5, 32225, Note_on_c, 3, 52, 0
5, 32225, Note_on_c, 3, 53, 98
5, 32285, Note_on_c, 3, 53, 0
5, 32285, Note_on_c, 3, 51, 99
5, 32345, Note_on_c, 3, 51, 0
5, 32345, Note_on_c, 3, 52, 99
5, 32405, Note_on_c, 3, 52, 0
5, 33005, Note_on_c, 3, 51, 85
5, 33095, Note_on_c, 3, 51, 0
5, 33125, Note_on_c, 3, 51, 81
5, 33215, Note_on_c, 3, 51, 0
5, 33245, Note_on_c, 3, 44, 77
5, 33335, Note_on_c, 3, 44, 0
5, 33365, Note_on_c, 3, 46, 73
5, 33395, Note_on_c, 3, 46, 0
5, 33395, Note_on_c, 3, 48, 72
5, 33425, Note_on_c, 3, 48, 0
5, 33425, Note_on_c, 3, 49, 71
5, 33455, Note_on_c, 3, 49, 0
5, 33455, Note_on_c, 3, 51, 70
5, 33485, Note_on_c, 3, 51, 0
5, 33485, Note_on_c, 3, 53, 70
5, 33575, Note_on_c, 3, 53, 0
5, 33605, Note_on_c, 3, 53, 70
5, 33695, Note_on_c, 3, 53, 0
5, 33725, Note_on_c, 3, 43, 70
5, 33815, Note_on_c, 3, 43, 0
5, 33965, Note_on_c, 3, 54, 70
5, 34055, Note_on_c, 3, 54, 0
5, 34085, Note_on_c, 3, 54, 70
5, 34175, Note_on_c, 3, 54, 0
5, 34205, Note_on_c, 3, 45, 71
5, 34295, Note_on_c, 3, 45, 0
5, 34745, Note_on_c, 3, 51, 80
5, 34790, Note_on_c, 3, 51, 0
5, 34805, Note_on_c, 3, 51, 81
5, 34850, Note_on_c, 3, 51, 0
5, 34865, Note_on_c, 3, 51, 82
5, 34910, Note_on_c, 3, 51, 0
5, 34925, Note_on_c, 3, 53, 83
5, 34940, Note_on_c, 3, 53, 0
5, 34940, Note_on_c, 3, 51, 83
5, 34955, Note_on_c, 3, 51, 0
5, 34955, Note_on_c, 3, 53, 83
5, 34970, Note_on_c, 3, 53, 0
5, 34970, Note_on_c, 3, 51, 84
5, 34985, Note_on_c, 3, 51, 0
5, 34985, Note_on_c, 3, 53, 84
5, 35000, Note_on_c, 3, 53, 0
5, 35000, Note_on_c, 3, 51, 84
5, 35015, Note_on_c, 3, 51, 0
5, 35015, Note_on_c, 3, 53, 84
5, 35030, Note_on_c, 3, 53, 0
5, 35030, Note_on_c, 3, 51, 85
5, 35045, Note_on_c, 3, 51, 0
5, 35045, Note_on_c, 3, 53, 85
5, 35060, Note_on_c, 3, 53, 0
5, 35060, Note_on_c, 3, 51, 85
5, 35075, Note_on_c, 3, 51, 0
5, 35075, Note_on_c, 3, 53, 85
5, 35090, Note_on_c, 3, 53, 0
5, 35090, Note_on_c, 3, 51, 86
5, 35105, Note_on_c, 3, 51, 0
5, 35105, Note_on_c, 3, 50, 86
5, 35135, Note_on_c, 3, 50, 0
5, 35135, Note_on_c, 3, 51, 86
5, 35165, Note_on_c, 3, 51, 0
5, 35165, Note_on_c, 3, 50, 87
5, 35210, Note_on_c, 3, 50, 0
5, 35225, Note_on_c, 3, 53, 88
5, 35270, Note_on_c, 3, 53, 0
5, 35285, Note_on_c, 3, 53, 89
5, 35330, Note_on_c, 3, 53, 0
5, 35345, Note_on_c, 3, 53, 90
5, 35390, Note_on_c, 3, 53, 0
5, 35405, Note_on_c, 3, 55, 91
5, 35420, Note_on_c, 3, 55, 0
5, 35420, Note_on_c, 3, 53, 91
5, 35435, Note_on_c, 3, 53, 0
5, 35435, Note_on_c, 3, 55, 91
5, 35450, Note_on_c, 3, 55, 0
5, 35450, Note_on_c, 3, 53, 92
5, 35465, Note_on_c, 3, 53, 0
5, 35465, Note_on_c, 3, 55, 92
5, 35480, Note_on_c, 3, 55, 0
5, 35480, Note_on_c, 3, 53, 92
5, 35495, Note_on_c, 3, 53, 0
5, 35495, Note_on_c, 3, 55, 92
5, 35510, Note_on_c, 3, 55, 0
5, 35510, Note_on_c, 3, 53, 93
5, 35525, Note_on_c, 3, 53, 0
5, 35525, Note_on_c, 3, 55, 93
5, 35540, Note_on_c, 3, 55, 0
5, 35540, Note_on_c, 3, 53, 93
5, 35555, Note_on_c, 3, 53, 0
5, 35555, Note_on_c, 3, 55, 93
5, 35570, Note_on_c, 3, 55, 0
5, 35570, Note_on_c, 3, 53, 94
5, 35585, Note_on_c, 3, 53, 0
5, 35585, Note_on_c, 3, 51, 94
5, 35615, Note_on_c, 3, 51, 0
5, 35615, Note_on_c, 3, 53, 95
5, 35645, Note_on_c, 3, 53, 0
5, 35645, Note_on_c, 3, 51, 100
5, 35705, Note_on_c, 3, 51, 0
5, 35705, Note_on_c, 3, 53, 100
5, 35765, Note_on_c, 3, 53, 0
5, 35765, Note_on_c, 3, 51, 100
5, 35825, Note_on_c, 3, 51, 0
5, 35825, Note_on_c, 3, 50, 100
5, 35885, Note_on_c, 3, 50, 0
5, 35885, Note_on_c, 3, 48, 100
5, 35930, Note_on_c, 3, 48, 0
5, 35945, Note_on_c, 3, 46, 100
5, 35990, Note_on_c, 3, 46, 0
5, 36005, Note_on_c, 3, 44, 100
5, 36125, Note_on_c, 3, 44, 0
5, 36125, Note_on_c, 3, 43, 100
5, 36245, Note_on_c, 3, 43, 0
5, 36365, Note_on_c, 3, 41, 100
5, 36480, Note_on_c, 3, 41, 0
5, 36485, Note_on_c, 3, 41, 100
5, 36660, Note_on_c, 3, 41, 0
5, 36665, Note_on_c, 3, 53, 100
5, 36725, Note_on_c, 3, 53, 0
5, 36725, Note_on_c, 3, 51, 100
5, 36785, Note_on_c, 3, 51, 0
5, 36785, Note_on_c, 3, 50, 100
5, 36845, Note_on_c, 3, 50, 0
5, 36845, Note_on_c, 3, 48, 100
5, 36965, Note_on_c, 3, 48, 0
5, 37325, Note_on_c, 3, 43, 85
5, 37415, Note_on_c, 3, 43, 0
5, 37445, Note_on_c, 3, 43, 78
5, 37535, Note_on_c, 3, 43, 0
5, 37565, Note_on_c, 3, 50, 70
5, 37655, Note_on_c, 3, 50, 0
5, 37685, Note_on_c, 3, 48, 70
5, 37715, Note_on_c, 3, 48, 0
5, 37715, Note_on_c, 3, 46, 70
5, 37745, Note_on_c, 3, 46, 0
5, 37745, Note_on_c, 3, 45, 70
5, 37775, Note_on_c, 3, 45, 0
5, 37775, Note_on_c, 3, 43, 70
5, 37805, Note_on_c, 3, 43, 0
5, 37805, Note_on_c, 3, 42, 70
5, 37895, Note_on_c, 3, 42, 0
5, 37925, Note_on_c, 3, 42, 70
5, 38015, Note_on_c, 3, 42, 0
5, 38045, Note_on_c, 3, 51, 70
5, 38135, Note_on_c, 3, 51, 0
5, 38225, Note_on_c, 3, 42, 70
5, 38285, Note_on_c, 3, 42, 0
5, 38285, Note_on_c, 3, 45, 70
5, 38345, Note_on_c, 3, 45, 0
5, 38345, Note_on_c, 3, 43, 70
5, 38405, Note_on_c, 3, 43, 0
5, 38405, Control_c, 3, 11, 85
5, 38446, Control_c, 3, 11, 86
5, 38465, Note_on_c, 3, 45, 70
5, 38488, Control_c, 3, 11, 87
5, 38525, Note_on_c, 3, 45, 0
5, 38525, Note_on_c, 3, 48, 70
5, 38530, Control_c, 3, 11, 88
5, 38572, Control_c, 3, 11, 89
5, 38585, Note_on_c, 3, 48, 0
5, 38585, Note_on_c, 3, 46, 70
5, 38614, Control_c, 3, 11, 90
5, 38645, Note_on_c, 3, 46, 0
5, 38645, Note_on_c, 3, 50, 70
5, 38656, Control_c, 3, 11, 91
5, 38698, Control_c, 3, 11, 92
5, 38705, Note_on_c, 3, 50, 0
5, 38705, Note_on_c, 3, 48, 70
5, 38740, Control_c, 3, 11, 93
5, 38765, Note_on_c, 3, 48, 0
5, 38765, Note_on_c, 3, 51, 70
5, 38782, Control_c, 3, 11, 94
5, 38824, Control_c, 3, 11, 95
5, 38825, Note_on_c, 3, 51, 0
5, 38825, Note_on_c, 3, 50, 70
5, 38866, Control_c, 3, 11, 96
5, 38885, Note_on_c, 3, 50, 0
5, 38908, Control_c, 3, 11, 97
5, 38950, Control_c, 3, 11, 98
5, 38992, Control_c, 3, 11, 99
5, 39034, Control_c, 3, 11, 100
5, 39076, Control_c, 3, 11, 101
5, 39118, Control_c, 3, 11, 102
5, 39160, Control_c, 3, 11, 103
5, 39202, Control_c, 3, 11, 104
5, 39244, Control_c, 3, 11, 105
5, 39965, Note_on_c, 3, 56, 60
5, 40055, Note_on_c, 3, 56, 0
5, 40085, Note_on_c, 3, 56, 60
5, 40175, Note_on_c, 3, 56, 0
5, 40205, Note_on_c, 3, 49, 60
5, 40295, Note_on_c, 3, 49, 0
5, 40325, Note_on_c, 3, 51, 62
5, 40355, Note_on_c, 3, 51, 0
5, 40355, Note_on_c, 3, 53, 63
5, 40385, Note_on_c, 3, 53, 0
5, 40385, Note_on_c, 3, 54, 63
5, 40415, Note_on_c, 3, 54, 0
5, 40415, Note_on_c, 3, 56, 64
5, 40445, Note_on_c, 3, 56, 0
5, 40445, Note_on_c, 3, 58, 65
5, 40535, Note_on_c, 3, 58, 0
5, 40565, Note_on_c, 3, 58, 67
5, 40655, Note_on_c, 3, 58, 0
5, 40685, Note_on_c, 3, 48, 70
5, 40775, Note_on_c, 3, 48, 0
5, 40805, Note_on_c, 3, 49, 72
5, 40835, Note_on_c, 3, 49, 0
5, 40835, Note_on_c, 3, 51, 73
5, 40865, Note_on_c, 3, 51, 0
5, 40865, Note_on_c, 3, 53, 73
5, 40895, Note_on_c, 3, 53, 0
5, 40895, Note_on_c, 3, 54, 74
5, 40925, Note_on_c, 3, 54, 0
5, 40925, Note_on_c, 3, 56, 75
5, 41015, Note_on_c, 3, 56, 0
5, 41045, Note_on_c, 3, 56, 77
5, 41135, Note_on_c, 3, 56, 0
5, 41165, Note_on_c, 3, 46, 80
5, 41255, Note_on_c, 3, 46, 0
5, 41285, Note_on_c, 3, 48, 82
5, 41315, Note_on_c, 3, 48, 0
5, 41315, Note_on_c, 3, 50, 83
5, 41345, Note_on_c, 3, 50, 0
5, 41345, Note_on_c, 3, 51, 83
5, 41375, Note_on_c, 3, 51, 0
5, 41375, Note_on_c, 3, 53, 84
5, 41405, Note_on_c, 3, 53, 0
5, 41405, Note_on_c, 3, 54, 85
5, 41525, Note_on_c, 3, 54, 0
5, 41525, Note_on_c, 3, 53, 87
5, 41645, Note_on_c, 3, 53, 0
5, 41645, Note_on_c, 3, 51, 90
5, 41735, Note_on_c, 3, 51, 0
5, 43325, Note_on_c, 3, 43, 80
5, 43325, Note_on_c, 3, 55, 80
5, 43415, Note_on_c, 3, 55, 0
5, 43415, Note_on_c, 3, 43, 0
5, 43445, Note_on_c, 3, 43, 90
5, 43445, Note_on_c, 3, 55, 90
5, 43535, Note_on_c, 3, 55, 0
5, 43535, Note_on_c, 3, 43, 0
5, 43565, Note_on_c, 3, 36, 100
5, 43565, Note_on_c, 3, 48, 100
5, 43655, Note_on_c, 3, 48, 0
5, 43655, Note_on_c, 3, 36, 0
5, 43685, Note_on_c, 3, 50, 100
5, 43715, Note_on_c, 3, 50, 0
5, 43715, Note_on_c, 3, 51, 100
5, 43745, Note_on_c, 3, 51, 0
5, 43745, Note_on_c, 3, 53, 100
5, 43775, Note_on_c, 3, 53, 0
5, 43775, Note_on_c, 3, 55, 100
5, 43805, Note_on_c, 3, 55, 0
5, 43805, Note_on_c, 3, 56, 100
5, 43895, Note_on_c, 3, 56, 0
5, 43925, Note_on_c, 3, 56, 100
5, 44015, Note_on_c, 3, 56, 0
5, 44045, Note_on_c, 3, 47, 100
5, 44165, Note_on_c, 3, 47, 0
5, 44225, Note_on_c, 3, 56, 100
5, 44285, Note_on_c, 3, 56, 0
5, 44285, Note_on_c, 3, 54, 100
5, 44345, Note_on_c, 3, 54, 0
5, 44345, Note_on_c, 3, 55, 100
5, 44405, Note_on_c, 3, 55, 0
5, 44465, Note_on_c, 3, 53, 100
5, 44525, Note_on_c, 3, 53, 0
5, 44525, Note_on_c, 3, 50, 100
5, 44585, Note_on_c, 3, 50, 0
5, 44585, Note_on_c, 3, 51, 100
5, 44645, Note_on_c, 3, 51, 0
5, 44645, Note_on_c, 3, 49, 100
5, 44705, Note_on_c, 3, 49, 0
5, 44705, Note_on_c, 3, 50, 100
5, 44765, Note_on_c, 3, 50, 0
5, 44765, Note_on_c, 3, 47, 100
5, 44825, Note_on_c, 3, 47, 0
5, 44825, Note_on_c, 3, 48, 100
5, 44885, Note_on_c, 3, 48, 0
5, 44885, Note_on_c, 3, 36, 100
5, 44945, Note_on_c, 3, 36, 0
5, 44945, Note_on_c, 3, 48, 100
5, 45005, Note_on_c, 3, 48, 0
5, 45005, Note_on_c, 3, 46, 85
5, 45095, Note_on_c, 3, 46, 0
5, 45125, Note_on_c, 3, 42, 85
5, 45215, Note_on_c, 3, 42, 0
5, 45245, Note_on_c, 3, 43, 86
5, 45335, Note_on_c, 3, 43, 0
5, 45365, Note_on_c, 3, 41, 87
5, 45455, Note_on_c, 3, 41, 0
5, 45485, Note_on_c, 3, 39, 88
5, 45530, Note_on_c, 3, 39, 0
5, 45545, Note_on_c, 3, 55, 89
5, 45590, Note_on_c, 3, 55, 0
5, 45605, Note_on_c, 3, 55, 89
5, 45650, Note_on_c, 3, 55, 0
5, 45665, Note_on_c, 3, 55, 89
5, 45710, Note_on_c, 3, 55, 0
5, 45725, Note_on_c, 3, 56, 90
5, 45740, Note_on_c, 3, 56, 0
5, 45740, Note_on_c, 3, 55, 90
5, 45755, Note_on_c, 3, 55, 0
5, 45755, Note_on_c, 3, 56, 90
5, 45770, Note_on_c, 3, 56, 0
5, 45770, Note_on_c, 3, 55, 90
5, 45785, Note_on_c, 3, 55, 0
5, 45785, Note_on_c, 3, 56, 90
5, 45800, Note_on_c, 3, 56, 0
5, 45800, Note_on_c, 3, 55, 90
5, 45815, Note_on_c, 3, 55, 0
5, 45815, Note_on_c, 3, 56, 91
5, 45830, Note_on_c, 3, 56, 0
5, 45830, Note_on_c, 3, 55, 91
5, 45845, Note_on_c, 3, 55, 0
5, 45845, Note_on_c, 3, 56, 91
5, 45860, Note_on_c, 3, 56, 0
5, 45860, Note_on_c, 3, 55, 91
5, 45875, Note_on_c, 3, 55, 0
5, 45875, Note_on_c, 3, 56, 91
5, 45890, Note_on_c, 3, 56, 0
5, 45890, Note_on_c, 3, 55, 91
5, 45905, Note_on_c, 3, 55, 0
5, 45905, Note_on_c, 3, 53, 91
5, 45935, Note_on_c, 3, 53, 0
5, 45935, Note_on_c, 3, 55, 91
5, 45965, Note_on_c, 3, 55, 0
5, 45965, Note_on_c, 3, 56, 92
5, 46085, Note_on_c, 3, 56, 0
5, 46085, Note_on_c, 3, 52, 93
5, 46205, Note_on_c, 3, 52, 0
5, 46205, Note_on_c, 3, 53, 93
5, 46355, Note_on_c, 3, 53, 0
5, 46355, Note_on_c, 3, 51, 95
5, 46385, Note_on_c, 3, 51, 0
5, 46385, Note_on_c, 3, 49, 95
5, 46415, Note_on_c, 3, 49, 0
5, 46415, Note_on_c, 3, 48, 95
5, 46445, Note_on_c, 3, 48, 0
5, 46445, Note_on_c, 3, 46, 95
5, 46565, Note_on_c, 3, 46, 0
5, 46985, Note_on_c, 3, 46, 99
5, 47030, Note_on_c, 3, 46, 0
5, 47045, Note_on_c, 3, 46, 100
5, 47090, Note_on_c, 3, 46, 0
5, 47105, Note_on_c, 3, 46, 100
5, 47150, Note_on_c, 3, 46, 0
5, 47165, Note_on_c, 3, 48, 101
5, 47180, Note_on_c, 3, 48, 0
5, 47180, Note_on_c, 3, 46, 101
5, 47195, Note_on_c, 3, 46, 0
5, 47195, Note_on_c, 3, 48, 101
5, 47210, Note_on_c, 3, 48, 0
5, 47210, Note_on_c, 3, 46, 101
5, 47225, Note_on_c, 3, 46, 0
5, 47225, Note_on_c, 3, 48, 101
5, 47240, Note_on_c, 3, 48, 0
5, 47240, Note_on_c, 3, 46, 101
5, 47255, Note_on_c, 3, 46, 0
5, 47255, Note_on_c, 3, 48, 101
5, 47270, Note_on_c, 3, 48, 0
5, 47270, Note_on_c, 3, 46, 101
5, 47285, Note_on_c, 3, 46, 0
5, 47285, Note_on_c, 3, 48, 101
5, 47300, Note_on_c, 3, 48, 0
5, 47300, Note_on_c, 3, 46, 102
5, 47315, Note_on_c, 3, 46, 0
5, 47315, Note_on_c, 3, 48, 102
5, 47330, Note_on_c, 3, 48, 0
5, 47330, Note_on_c, 3, 46, 102
5, 47345, Note_on_c, 3, 46, 0
5, 47345, Note_on_c, 3, 45, 102
5, 47375, Note_on_c, 3, 45, 0
5, 47375, Note_on_c, 3, 46, 102
5, 47405, Note_on_c, 3, 46, 0
5, 47405, Note_on_c, 3, 44, 102
5, 47525, Note_on_c, 3, 44, 0
5, 47525, Note_on_c, 3, 40, 103
5, 47645, Note_on_c, 3, 40, 0
5, 47645, Note_on_c, 3, 41, 104
5, 47765, Note_on_c, 3, 41, 0
5, 47765, Note_on_c, 3, 39, 105
5, 47885, Note_on_c, 3, 39, 0
5, 47885, Note_on_c, 3, 38, 106
5, 48005, Note_on_c, 3, 38, 0
5, 48125, Note_on_c, 3, 60, 108
5, 48185, Note_on_c, 3, 60, 0
5, 48215, Note_on_c, 3, 58, 108
5, 48245, Note_on_c, 3, 58, 0
5, 48245, Note_on_c, 3, 57, 109
5, 48275, Note_on_c, 3, 57, 0
5, 48275, Note_on_c, 3, 55, 109
5, 48305, Note_on_c, 3, 55, 0
5, 48305, Note_on_c, 3, 54, 109
5, 48335, Note_on_c, 3, 54, 0
5, 48335, Note_on_c, 3, 52, 109
5, 48365, Note_on_c, 3, 52, 0
5, 48365, Note_on_c, 3, 50, 110
5, 48485, Note_on_c, 3, 50, 0
5, 48605, Note_on_c, 3, 43, 109
5, 48605, Note_on_c, 3, 55, 109
5, 48695, Note_on_c, 3, 55, 0
5, 48695, Note_on_c, 3, 43, 0
5, 48725, Note_on_c, 3, 55, 107
5, 48815, Note_on_c, 3, 55, 0
5, 48845, Note_on_c, 3, 47, 106
5, 48905, Note_on_c, 3, 47, 0
5, 48935, Note_on_c, 3, 48, 105
5, 48965, Note_on_c, 3, 48, 0
5, 48965, Note_on_c, 3, 50, 105
5, 48995, Note_on_c, 3, 50, 0
5, 48995, Note_on_c, 3, 51, 104
5, 49025, Note_on_c, 3, 51, 0
5, 49025, Note_on_c, 3, 53, 104
5, 49055, Note_on_c, 3, 53, 0
5, 49055, Note_on_c, 3, 55, 104
5, 49085, Note_on_c, 3, 55, 0
5, 49085, Note_on_c, 3, 56, 103
5, 49205, Note_on_c, 3, 56, 0
5, 49205, Note_on_c, 3, 55, 102
5, 49265, Note_on_c, 3, 55, 0
5, 49265, Note_on_c, 3, 53, 101
5, 49325, Note_on_c, 3, 53, 0
5, 49325, Note_on_c, 3, 51, 100
5, 49445, Note_on_c, 3, 51, 0
5, 49445, Note_on_c, 3, 47, 100
5, 49565, Note_on_c, 3, 47, 0
5, 49565, Note_on_c, 3, 48, 100
5, 49685, Note_on_c, 3, 48, 0
5, 49685, Note_on_c, 3, 41, 100
5, 49805, Note_on_c, 3, 41, 0
5, 49805, Note_on_c, 3, 39, 100
5, 49925, Note_on_c, 3, 39, 0
5, 49985, Note_on_c, 3, 58, 100
5, 50045, Note_on_c, 3, 58, 0
5, 50045, Note_on_c, 3, 55, 100
5, 50105, Note_on_c, 3, 55, 0
5, 50105, Note_on_c, 3, 56, 100
5, 50165, Note_on_c, 3, 56, 0
5, 50165, Note_on_c, 3, 54, 100
5, 50225, Note_on_c, 3, 54, 0
5, 50225, Note_on_c, 3, 55, 100
5, 50285, Note_on_c, 3, 55, 0
5, 50285, Note_on_c, 3, 52, 100
5, 50345, Note_on_c, 3, 52, 0
5, 50345, Note_on_c, 3, 53, 94
5, 50390, Note_on_c, 3, 53, 0
5, 50405, Note_on_c, 3, 53, 87
5, 50450, Note_on_c, 3, 53, 0
5, 50465, Note_on_c, 3, 53, 80
5, 50510, Note_on_c, 3, 53, 0
5, 50525, Note_on_c, 3, 55, 80
5, 50540, Note_on_c, 3, 55, 0
5, 50540, Note_on_c, 3, 53, 81
5, 50555, Note_on_c, 3, 53, 0
5, 50555, Note_on_c, 3, 55, 81
5, 50570, Note_on_c, 3, 55, 0
5, 50570, Note_on_c, 3, 53, 81
5, 50585, Note_on_c, 3, 53, 0
5, 50585, Note_on_c, 3, 55, 81
5, 50600, Note_on_c, 3, 55, 0
5, 50600, Note_on_c, 3, 53, 82
5, 50615, Note_on_c, 3, 53, 0
5, 50615, Note_on_c, 3, 55, 82
5, 50630, Note_on_c, 3, 55, 0
5, 50630, Note_on_c, 3, 53, 82
5, 50645, Note_on_c, 3, 53, 0
5, 50645, Note_on_c, 3, 55, 82
5, 50660, Note_on_c, 3, 55, 0
5, 50660, Note_on_c, 3, 53, 82
5, 50675, Note_on_c, 3, 53, 0
5, 50675, Note_on_c, 3, 55, 83
5, 50690, Note_on_c, 3, 55, 0
5, 50690, Note_on_c, 3, 53, 83
5, 50705, Note_on_c, 3, 53, 0
5, 50705, Note_on_c, 3, 51, 83
5, 50735, Note_on_c, 3, 51, 0
5, 50735, Note_on_c, 3, 53, 84
5, 50765, Note_on_c, 3, 53, 0
5, 50765, Note_on_c, 3, 46, 84
5, 50885, Note_on_c, 3, 46, 0
5, 51305, Note_on_c, 3, 43, 92
5, 51350, Note_on_c, 3, 43, 0
5, 51365, Note_on_c, 3, 43, 93
5, 51410, Note_on_c, 3, 43, 0
5, 51425, Note_on_c, 3, 43, 94
5, 51470, Note_on_c, 3, 43, 0
5, 51485, Note_on_c, 3, 46, 95
5, 51500, Note_on_c, 3, 46, 0
5, 51500, Note_on_c, 3, 44, 95
5, 51515, Note_on_c, 3, 44, 0
5, 51515, Note_on_c, 3, 46, 95
5, 51530, Note_on_c, 3, 46, 0
5, 51530, Note_on_c, 3, 44, 95
5, 51545, Note_on_c, 3, 44, 0
5, 51545, Note_on_c, 3, 46, 96
5, 51560, Note_on_c, 3, 46, 0
5, 51560, Note_on_c, 3, 44, 96
5, 51575, Note_on_c, 3, 44, 0
5, 51575, Note_on_c, 3, 43, 96
5, 51590, Note_on_c, 3, 43, 0
5, 51590, Note_on_c, 3, 44, 96
5, 51605, Note_on_c, 3, 44, 0
5, 51605, Note_on_c, 3, 44, 96
5, 51620, Note_on_c, 3, 44, 0
5, 51620, Note_on_c, 3, 42, 97
5, 51635, Note_on_c, 3, 42, 0
5, 51635, Note_on_c, 3, 44, 97
5, 51650, Note_on_c, 3, 44, 0
5, 51650, Note_on_c, 3, 42, 97
5, 51665, Note_on_c, 3, 42, 0
5, 51665, Note_on_c, 3, 44, 97
5, 51680, Note_on_c, 3, 44, 0
5, 51680, Note_on_c, 3, 42, 98
5, 51695, Note_on_c, 3, 42, 0
5, 51695, Note_on_c, 3, 41, 98
5, 51710, Note_on_c, 3, 41, 0
5, 51710, Note_on_c, 3, 43, 98
5, 51725, Note_on_c, 3, 43, 0
5, 51725, Note_on_c, 3, 41, 98
5, 51770, Note_on_c, 3, 41, 0
5, 51785, Note_on_c, 3, 41, 99
5, 51830, Note_on_c, 3, 41, 0
5, 51845, Note_on_c, 3, 45, 100
5, 51890, Note_on_c, 3, 45, 0
5, 51905, Note_on_c, 3, 45, 101
5, 51950, Note_on_c, 3, 45, 0
5, 51965, Note_on_c, 3, 48, 102
5, 51980, Note_on_c, 3, 48, 0
5, 51980, Note_on_c, 3, 46, 102
5, 51995, Note_on_c, 3, 46, 0
5, 51995, Note_on_c, 3, 48, 102
5, 52010, Note_on_c, 3, 48, 0
5, 52010, Note_on_c, 3, 46, 102
5, 52025, Note_on_c, 3, 46, 0
5, 52025, Note_on_c, 3, 48, 103
5, 52040, Note_on_c, 3, 48, 0
5, 52040, Note_on_c, 3, 46, 103
5, 52055, Note_on_c, 3, 46, 0
5, 52055, Note_on_c, 3, 44, 103
5, 52070, Note_on_c, 3, 44, 0
5, 52070, Note_on_c, 3, 46, 103
5, 52085, Note_on_c, 3, 46, 0
5, 52085, Note_on_c, 3, 46, 104
5, 52100, Note_on_c, 3, 46, 0
5, 52100, Note_on_c, 3, 44, 104
5, 52115, Note_on_c, 3, 44, 0
5, 52115, Note_on_c, 3, 46, 104
5, 52130, Note_on_c, 3, 46, 0
5, 52130, Note_on_c, 3, 44, 104
5, 52145, Note_on_c, 3, 44, 0
5, 52145, Note_on_c, 3, 46, 104
5, 52160, Note_on_c, 3, 46, 0
5, 52160, Note_on_c, 3, 44, 105
5, 52175, Note_on_c, 3, 44, 0
5, 52175, Note_on_c, 3, 43, 105
5, 52190, Note_on_c, 3, 43, 0
5, 52190, Note_on_c, 3, 44, 105
5, 52205, Note_on_c, 3, 44, 0
5, 52205, Note_on_c, 3, 43, 105
5, 52250, Note_on_c, 3, 43, 0
5, 52265, Note_on_c, 3, 43, 106
5, 52310, Note_on_c, 3, 43, 0
5, 52325, Note_on_c, 3, 47, 107
5, 52370, Note_on_c, 3, 47, 0
5, 52385, Note_on_c, 3, 47, 108
5, 52430, Note_on_c, 3, 47, 0
5, 52445, Note_on_c, 3, 50, 109
5, 52460, Note_on_c, 3, 50, 0
5, 52460, Note_on_c, 3, 48, 109
5, 52475, Note_on_c, 3, 48, 0
5, 52475, Note_on_c, 3, 50, 109
5, 52490, Note_on_c, 3, 50, 0
5, 52490, Note_on_c, 3, 48, 110
5, 52505, Note_on_c, 3, 48, 0
5, 52505, Note_on_c, 3, 50, 110
5, 52520, Note_on_c, 3, 50, 0
5, 52520, Note_on_c, 3, 48, 110
5, 52535, Note_on_c, 3, 48, 0
5, 52535, Note_on_c, 3, 47, 110
5, 52550, Note_on_c, 3, 47, 0
5, 52550, Note_on_c, 3, 48, 110
5, 52565, Note_on_c, 3, 48, 0
5, 52565, Note_on_c, 3, 48, 111
5, 52580, Note_on_c, 3, 48, 0
5, 52580, Note_on_c, 3, 46, 111
5, 52595, Note_on_c, 3, 46, 0
5, 52595, Note_on_c, 3, 48, 111
5, 52610, Note_on_c, 3, 48, 0
5, 52610, Note_on_c, 3, 46, 111
5, 52625, Note_on_c, 3, 46, 0
5, 52625, Note_on_c, 3, 48, 112
5, 52640, Note_on_c, 3, 48, 0
5, 52640, Note_on_c, 3, 46, 112
5, 52655, Note_on_c, 3, 46, 0
5, 52655, Note_on_c, 3, 45, 112
5, 52670, Note_on_c, 3, 45, 0
5, 52670, Note_on_c, 3, 46, 112
5, 52685, Note_on_c, 3, 46, 0
5, 52685, Note_on_c, 3, 45, 112
5, 53045, Note_on_c, 3, 45, 0
5, 53045, Note_on_c, 3, 44, 118
5, 53165, Note_on_c, 3, 44, 0
5, 53165, Note_on_c, 3, 43, 120
5, 53210, Note_on_c, 3, 43, 0
5, 53225, Note_on_c, 3, 55, 100
5, 53285, Note_on_c, 3, 55, 0
5, 53285, Note_on_c, 3, 53, 102
5, 53345, Note_on_c, 3, 53, 0
5, 53345, Note_on_c, 3, 50, 105
5, 53400, Note_on_c, 3, 50, 0
5, 53405, Note_on_c, 3, 53, 108
5, 53420, Note_on_c, 3, 53, 0
5, 53420, Note_on_c, 3, 51, 109
5, 53435, Note_on_c, 3, 51, 0
5, 53435, Note_on_c, 3, 53, 110
5, 53450, Note_on_c, 3, 53, 0
5, 53450, Note_on_c, 3, 51, 110
5, 53465, Note_on_c, 3, 51, 0
5, 53465, Note_on_c, 3, 53, 111
5, 53480, Note_on_c, 3, 53, 0
5, 53480, Note_on_c, 3, 51, 112
5, 53495, Note_on_c, 3, 51, 0
5, 53495, Note_on_c, 3, 50, 112
5, 53510, Note_on_c, 3, 50, 0
5, 53510, Note_on_c, 3, 48, 113
5, 53520, Note_on_c, 3, 48, 0
5, 53525, Note_on_c, 3, 48, 114
5, 53540, Note_on_c, 3, 48, 0
5, 53540, Note_on_c, 3, 47, 115
5, 53555, Note_on_c, 3, 47, 0
5, 53555, Note_on_c, 3, 48, 115
5, 53570, Note_on_c, 3, 48, 0
5, 53570, Note_on_c, 3, 47, 116
5, 53585, Note_on_c, 3, 47, 0
5, 53585, Note_on_c, 3, 48, 117
5, 53600, Note_on_c, 3, 48, 0
5, 53600, Note_on_c, 3, 47, 117
5, 53615, Note_on_c, 3, 47, 0
5, 53615, Note_on_c, 3, 45, 118
5, 53630, Note_on_c, 3, 45, 0
5, 53630, Note_on_c, 3, 43, 119
5, 53640, Note_on_c, 3, 43, 0
5, 53645, Note_on_c, 3, 48, 120
5, 53765, Note_on_c, 3, 48, 0
5, 53885, Note_on_c, 3, 51, 120
5, 54005, Note_on_c, 3, 51, 0
5, 54185, Note_on_c, 3, 53, 120
5, 54230, Note_on_c, 3, 53, 0
5, 54245, Note_on_c, 3, 53, 120
5, 54290, Note_on_c, 3, 53, 0
5, 54305, Note_on_c, 3, 53, 120
5, 54350, Note_on_c, 3, 53, 0
5, 54365, Note_on_c, 3, 55, 120
5, 54380, Note_on_c, 3, 55, 0
5, 54380, Note_on_c, 3, 53, 120
5, 54395, Note_on_c, 3, 53, 0
5, 54395, Note_on_c, 3, 55, 120
5, 54410, Note_on_c, 3, 55, 0
5, 54410, Note_on_c, 3, 53, 120
5, 54425, Note_on_c, 3, 53, 0
5, 54425, Note_on_c, 3, 55, 120
5, 54440, Note_on_c, 3, 55, 0
5, 54440, Note_on_c, 3, 53, 120
5, 54455, Note_on_c, 3, 53, 0
5, 54455, Note_on_c, 3, 55, 120
5, 54470, Note_on_c, 3, 55, 0
5, 54470, Note_on_c, 3, 53, 120
5, 54485, Note_on_c, 3, 53, 0
5, 54485, Note_on_c, 3, 55, 120
5, 54500, Note_on_c, 3, 55, 0
5, 54500, Note_on_c, 3, 53, 120
5, 54515, Note_on_c, 3, 53, 0
5, 54515, Note_on_c, 3, 55, 120
5, 54530, Note_on_c, 3, 55, 0
5, 54530, Note_on_c, 3, 53, 120
5, 54545, Note_on_c, 3, 53, 0
5, 54545, Note_on_c, 3, 51, 120
5, 54575, Note_on_c, 3, 51, 0
5, 54575, Note_on_c, 3, 53, 120
5, 54605, Note_on_c, 3, 53, 0
5, 54605, Note_on_c, 3, 51, 120
5, 54725, Note_on_c, 3, 51, 0
5, 55145, Note_on_c, 3, 48, 107
5, 55190, Note_on_c, 3, 48, 0
5, 55205, Note_on_c, 3, 48, 104
5, 55250, Note_on_c, 3, 48, 0
5, 55265, Note_on_c, 3, 48, 102
5, 55310, Note_on_c, 3, 48, 0
5, 55325, Note_on_c, 3, 50, 100
5, 55340, Note_on_c, 3, 50, 0
5, 55340, Note_on_c, 3, 48, 99
5, 55355, Note_on_c, 3, 48, 0
5, 55355, Note_on_c, 3, 50, 99
5, 55370, Note_on_c, 3, 50, 0
5, 55370, Note_on_c, 3, 48, 98
5, 55385, Note_on_c, 3, 48, 0
5, 55385, Note_on_c, 3, 50, 97
5, 55400, Note_on_c, 3, 50, 0
5, 55400, Note_on_c, 3, 48, 97
5, 55415, Note_on_c, 3, 48, 0
5, 55415, Note_on_c, 3, 50, 96
5, 55430, Note_on_c, 3, 50, 0
5, 55430, Note_on_c, 3, 48, 96
5, 55445, Note_on_c, 3, 48, 0
5, 55445, Note_on_c, 3, 50, 95
5, 55460, Note_on_c, 3, 50, 0
5, 55460, Note_on_c, 3, 48, 95
5, 55475, Note_on_c, 3, 48, 0
5, 55475, Note_on_c, 3, 50, 94
5, 55490, Note_on_c, 3, 50, 0
5, 55490, Note_on_c, 3, 48, 93
5, 55505, Note_on_c, 3, 48, 0
5, 55505, Note_on_c, 3, 46, 93
5, 55535, Note_on_c, 3, 46, 0
5, 55535, Note_on_c, 3, 48, 92
5, 55565, Note_on_c, 3, 48, 0
5, 55565, Note_on_c, 3, 41, 90
5, 55655, Note_on_c, 3, 41, 0
5, 55685, Note_on_c, 3, 41, 90
5, 55775, Note_on_c, 3, 41, 0
5, 55805, Note_on_c, 3, 48, 91
5, 55895, Note_on_c, 3, 48, 0
5, 55925, Note_on_c, 3, 46, 92
5, 55955, Note_on_c, 3, 46, 0
5, 55955, Note_on_c, 3, 44, 93
5, 55985, Note_on_c, 3, 44, 0
5, 55985, Note_on_c, 3, 43, 93
5, 56015, Note_on_c, 3, 43, 0
5, 56015, Note_on_c, 3, 41, 93
5, 56045, Note_on_c, 3, 41, 0
5, 56045, Note_on_c, 3, 40, 94
5, 56135, Note_on_c, 3, 40, 0
5, 56165, Note_on_c, 3, 40, 95
5, 56255, Note_on_c, 3, 40, 0
5, 56285, Note_on_c, 3, 49, 96
5, 56465, Note_on_c, 3, 49, 0
5, 56465, Note_on_c, 3, 48, 99
5, 56495, Note_on_c, 3, 48, 0
5, 56495, Note_on_c, 3, 46, 99
5, 56525, Note_on_c, 3, 46, 0
5, 56525, Note_on_c, 3, 44, 99
5, 56765, Note_on_c, 3, 44, 0
5, 56765, Note_on_c, 3, 49, 102
5, 57005, Note_on_c, 3, 49, 0
5, 57005, Note_on_c, 3, 43, 105
5, 57050, Note_on_c, 3, 43, 0
5, 57065, Note_on_c, 3, 43, 106
5, 57110, Note_on_c, 3, 43, 0
5, 57125, Note_on_c, 3, 43, 106
5, 57170, Note_on_c, 3, 43, 0
5, 57185, Note_on_c, 3, 43, 107
5, 57230, Note_on_c, 3, 43, 0
5, 57245, Note_on_c, 3, 44, 108
5, 57260, Note_on_c, 3, 44, 0
5, 57260, Note_on_c, 3, 43, 108
5, 57275, Note_on_c, 3, 43, 0
5, 57275, Note_on_c, 3, 44, 108
5, 57290, Note_on_c, 3, 44, 0
5, 57290, Note_on_c, 3, 43, 108
5, 57305, Note_on_c, 3, 43, 0
5, 57305, Note_on_c, 3, 44, 108
5, 57320, Note_on_c, 3, 44, 0
5, 57320, Note_on_c, 3, 43, 109
5, 57335, Note_on_c, 3, 43, 0
5, 57335, Note_on_c, 3, 44, 109
5, 57350, Note_on_c, 3, 44, 0
5, 57350, Note_on_c, 3, 43, 109
5, 57365, Note_on_c, 3, 43, 0
5, 57365, Note_on_c, 3, 44, 109
5, 57380, Note_on_c, 3, 44, 0
5, 57380, Note_on_c, 3, 43, 109
5, 57395, Note_on_c, 3, 43, 0
5, 57395, Note_on_c, 3, 44, 109
5, 57410, Note_on_c, 3, 44, 0
5, 57410, Note_on_c, 3, 43, 110
5, 57425, Note_on_c, 3, 43, 0
5, 57425, Note_on_c, 3, 41, 110
5, 57455, Note_on_c, 3, 41, 0
5, 57455, Note_on_c, 3, 43, 110
5, 57485, Note_on_c, 3, 43, 0
5, 57485, Note_on_c, 3, 44, 110
5, 57545, Note_on_c, 3, 44, 0
5, 57545, Note_on_c, 3, 44, 111
5, 57590, Note_on_c, 3, 44, 0
5, 57605, Note_on_c, 3, 46, 100
5, 57620, Note_on_c, 3, 46, 0
5, 57620, Note_on_c, 3, 45, 112
5, 57635, Note_on_c, 3, 45, 0
5, 57635, Note_on_c, 3, 46, 112
5, 57650, Note_on_c, 3, 46, 0
5, 57650, Note_on_c, 3, 45, 112
5, 57665, Note_on_c, 3, 45, 0
5, 57665, Note_on_c, 3, 46, 113
5, 57680, Note_on_c, 3, 46, 0
5, 57680, Note_on_c, 3, 45, 113
5, 57695, Note_on_c, 3, 45, 0
5, 57695, Note_on_c, 3, 43, 113
5, 57710, Note_on_c, 3, 43, 0
5, 57710, Note_on_c, 3, 45, 113
5, 57725, Note_on_c, 3, 45, 0
5, 57725, Note_on_c, 3, 46, 113
5, 57785, Note_on_c, 3, 46, 0
5, 57785, Note_on_c, 3, 46, 114
5, 57830, Note_on_c, 3, 46, 0
5, 57845, Note_on_c, 3, 48, 115
5, 57860, Note_on_c, 3, 48, 0
5, 57860, Note_on_c, 3, 47, 115
5, 57875, Note_on_c, 3, 47, 0
5, 57875, Note_on_c, 3, 48, 115
5, 57890, Note_on_c, 3, 48, 0
5, 57890, Note_on_c, 3, 47, 115
5, 57905, Note_on_c, 3, 47, 0
5, 57905, Note_on_c, 3, 48, 115
5, 57920, Note_on_c, 3, 48, 0
5, 57920, Note_on_c, 3, 47, 115
5, 57935, Note_on_c, 3, 47, 0
5, 57935, Note_on_c, 3, 45, 116
5, 57950, Note_on_c, 3, 45, 0
5, 57950, Note_on_c, 3, 46, 116
5, 57965, Note_on_c, 3, 46, 0
5, 57965, Note_on_c, 3, 50, 116
5, 57980, Note_on_c, 3, 50, 0
5, 57980, Note_on_c, 3, 48, 116
5, 57995, Note_on_c, 3, 48, 0
5, 57995, Note_on_c, 3, 50, 116
5, 58010, Note_on_c, 3, 50, 0
5, 58010, Note_on_c, 3, 48, 117
5, 58025, Note_on_c, 3, 48, 0
5, 58025, Note_on_c, 3, 50, 117
5, 58040, Note_on_c, 3, 50, 0
5, 58040, Note_on_c, 3, 48, 117
5, 58055, Note_on_c, 3, 48, 0
5, 58055, Note_on_c, 3, 47, 117
5, 58070, Note_on_c, 3, 47, 0
5, 58070, Note_on_c, 3, 48, 117
5, 58085, Note_on_c, 3, 48, 0
5, 58085, Note_on_c, 3, 50, 117
5, 58100, Note_on_c, 3, 50, 0
5, 58100, Note_on_c, 3, 49, 118
5, 58115, Note_on_c, 3, 49, 0
5, 58115, Note_on_c, 3, 50, 118
5, 58130, Note_on_c, 3, 50, 0
5, 58130, Note_on_c, 3, 49, 118
5, 58145, Note_on_c, 3, 49, 0
5, 58145, Note_on_c, 3, 50, 118
5, 58160, Note_on_c, 3, 50, 0
5, 58160, Note_on_c, 3, 49, 118
5, 58175, Note_on_c, 3, 49, 0
5, 58175, Note_on_c, 3, 47, 118
5, 58190, Note_on_c, 3, 47, 0
5, 58190, Note_on_c, 3, 49, 119
5, 58205, Note_on_c, 3, 49, 0
5, 58205, Note_on_c, 3, 50, 119
5, 58295, Note_on_c, 3, 50, 0
5, 59165, Note_on_c, 3, 50, 92
5, 59255, Note_on_c, 3, 50, 0
5, 59285, Note_on_c, 3, 50, 94
5, 59375, Note_on_c, 3, 50, 0
5, 59405, Note_on_c, 3, 43, 96
5, 59495, Note_on_c, 3, 43, 0
5, 59525, Note_on_c, 3, 45, 98
5, 59555, Note_on_c, 3, 45, 0
5, 59555, Note_on_c, 3, 46, 99
5, 59585, Note_on_c, 3, 46, 0
5, 59585, Note_on_c, 3, 48, 99
5, 59615, Note_on_c, 3, 48, 0
5, 59615, Note_on_c, 3, 50, 100
5, 59645, Note_on_c, 3, 50, 0
5, 59645, Note_on_c, 3, 51, 100
5, 59735, Note_on_c, 3, 51, 0
5, 59765, Note_on_c, 3, 51, 102
5, 59855, Note_on_c, 3, 51, 0
5, 59885, Note_on_c, 3, 42, 105
5, 59975, Note_on_c, 3, 42, 0
5, 60065, Note_on_c, 3, 51, 105
5, 60125, Note_on_c, 3, 51, 0
5, 60125, Note_on_c, 3, 49, 105
5, 60185, Note_on_c, 3, 49, 0
5, 60185, Note_on_c, 3, 50, 105
5, 60245, Note_on_c, 3, 50, 0
5, 60365, Note_on_c, 3, 48, 105
5, 60455, Note_on_c, 3, 48, 0
5, 60485, Note_on_c, 3, 48, 105
5, 60575, Note_on_c, 3, 48, 0
5, 60605, Note_on_c, 3, 55, 105
5, 60695, Note_on_c, 3, 55, 0
5, 60725, Note_on_c, 3, 53, 105
5, 60755, Note_on_c, 3, 53, 0
5, 60755, Note_on_c, 3, 51, 105
5, 60785, Note_on_c, 3, 51, 0
5, 60785, Note_on_c, 3, 50, 105
5, 60815, Note_on_c, 3, 50, 0
5, 60815, Note_on_c, 3, 48, 105
5, 60845, Note_on_c, 3, 48, 0
5, 60845, Note_on_c, 3, 47, 105
5, 60935, Note_on_c, 3, 47, 0
5, 60965, Note_on_c, 3, 47, 105
5, 61055, Note_on_c, 3, 47, 0
5, 61085, Note_on_c, 3, 56, 105
5, 61175, Note_on_c, 3, 56, 0
5, 61265, Note_on_c, 3, 47, 105
5, 61325, Note_on_c, 3, 47, 0
5, 61325, Note_on_c, 3, 50, 105
5, 61385, Note_on_c, 3, 50, 0
5, 61385, Note_on_c, 3, 48, 105
5, 61445, Note_on_c, 3, 48, 0
5, 61505, Note_on_c, 3, 50, 105
5, 61565, Note_on_c, 3, 50, 0
5, 61565, Note_on_c, 3, 53, 105
5, 61625, Note_on_c, 3, 53, 0
5, 61625, Note_on_c, 3, 51, 105
5, 61685, Note_on_c, 3, 51, 0
5, 61745, Note_on_c, 3, 53, 105
5, 61805, Note_on_c, 3, 53, 0
5, 61805, Note_on_c, 3, 56, 105
5, 61865, Note_on_c, 3, 56, 0
5, 61865, Note_on_c, 3, 55, 105
5, 61925, Note_on_c, 3, 55, 0
5, 62285, Note_on_c, 3, 43, 90
5, 62285, Note_on_c, 3, 55, 90
5, 62375, Note_on_c, 3, 55, 0
5, 62375, Note_on_c, 3, 43, 0
5, 62405, Note_on_c, 3, 43, 92
5, 62405, Note_on_c, 3, 55, 92
5, 62495, Note_on_c, 3, 55, 0
5, 62495, Note_on_c, 3, 43, 0
5, 62525, Note_on_c, 3, 36, 95
5, 62525, Note_on_c, 3, 48, 95
5, 62615, Note_on_c, 3, 48, 0
5, 62615, Note_on_c, 3, 36, 0
5, 62645, Note_on_c, 3, 50, 97
5, 62675, Note_on_c, 3, 50, 0
5, 62675, Note_on_c, 3, 51, 98
5, 62705, Note_on_c, 3, 51, 0
5, 62705, Note_on_c, 3, 53, 98
5, 62735, Note_on_c, 3, 53, 0
5, 62735, Note_on_c, 3, 55, 99
5, 62765, Note_on_c, 3, 55, 0
5, 62765, Note_on_c, 3, 56, 100
5, 62855, Note_on_c, 3, 56, 0
5, 62885, Note_on_c, 3, 56, 100
5, 62975, Note_on_c, 3, 56, 0
5, 63005, Note_on_c, 3, 47, 100
5, 63095, Note_on_c, 3, 47, 0
5, 63185, Note_on_c, 3, 56, 100
5, 63245, Note_on_c, 3, 56, 0
5, 63245, Note_on_c, 3, 54, 100
5, 63305, Note_on_c, 3, 54, 0
5, 63305, Note_on_c, 3, 55, 100
5, 63365, Note_on_c, 3, 55, 0
5, 63425, Note_on_c, 3, 53, 100
5, 63485, Note_on_c, 3, 53, 0
5, 63485, Note_on_c, 3, 50, 100
5, 63545, Note_on_c, 3, 50, 0
5, 63545, Note_on_c, 3, 51, 100
5, 63605, Note_on_c, 3, 51, 0
5, 63605, Note_on_c, 3, 49, 100
5, 63665, Note_on_c, 3, 49, 0
5, 63665, Note_on_c, 3, 50, 100
5, 63725, Note_on_c, 3, 50, 0
5, 63725, Note_on_c, 3, 47, 100
5, 63785, Note_on_c, 3, 47, 0
5, 63785, Note_on_c, 3, 48, 100
5, 63830, Note_on_c, 3, 48, 0
5, 63845, Note_on_c, 3, 48, 100
5, 63890, Note_on_c, 3, 48, 0
5, 63905, Note_on_c, 3, 48, 100
5, 63950, Note_on_c, 3, 48, 0
5, 63965, Note_on_c, 3, 51, 100
5, 63980, Note_on_c, 3, 51, 0
5, 63980, Note_on_c, 3, 50, 100
5, 63995, Note_on_c, 3, 50, 0
5, 63995, Note_on_c, 3, 51, 100
5, 64010, Note_on_c, 3, 51, 0
5, 64010, Note_on_c, 3, 50, 100
5, 64025, Note_on_c, 3, 50, 0
5, 64025, Note_on_c, 3, 51, 100
5, 64040, Note_on_c, 3, 51, 0
5, 64040, Note_on_c, 3, 50, 100
5, 64055, Note_on_c, 3, 50, 0
5, 64055, Note_on_c, 3, 51, 100
5, 64070, Note_on_c, 3, 51, 0
5, 64070, Note_on_c, 3, 50, 100
5, 64085, Note_on_c, 3, 50, 0
5, 64085, Note_on_c, 3, 51, 100
5, 64100, Note_on_c, 3, 51, 0
5, 64100, Note_on_c, 3, 50, 100
5, 64115, Note_on_c, 3, 50, 0
5, 64115, Note_on_c, 3, 51, 100
5, 64130, Note_on_c, 3, 51, 0
5, 64130, Note_on_c, 3, 50, 100
5, 64145, Note_on_c, 3, 50, 0
5, 64145, Note_on_c, 3, 49, 100
5, 64175, Note_on_c, 3, 49, 0
5, 64175, Note_on_c, 3, 50, 100
5, 64205, Note_on_c, 3, 50, 0
5, 64205, Note_on_c, 3, 43, 100
5, 64325, Note_on_c, 3, 43, 0
5, 64925, Note_on_c, 3, 36, 85
5, 64925, Note_on_c, 3, 48, 85
5, 65015, Note_on_c, 3, 48, 0
5, 65015, Note_on_c, 3, 36, 0
5, 65045, Note_on_c, 3, 36, 87
5, 65045, Note_on_c, 3, 48, 87
5, 65135, Note_on_c, 3, 48, 0
5, 65135, Note_on_c, 3, 36, 0
5, 65165, Note_on_c, 3, 43, 90
5, 65165, Note_on_c, 3, 55, 90
5, 65255, Note_on_c, 3, 55, 0
5, 65255, Note_on_c, 3, 43, 0
5, 65285, Note_on_c, 3, 53, 92
5, 65315, Note_on_c, 3, 53, 0
5, 65315, Note_on_c, 3, 51, 93
5, 65345, Note_on_c, 3, 51, 0
5, 65345, Note_on_c, 3, 50, 93
5, 65375, Note_on_c, 3, 50, 0
5, 65375, Note_on_c, 3, 48, 94
5, 65405, Note_on_c, 3, 48, 0
5, 65405, Note_on_c, 3, 47, 95
5, 65495, Note_on_c, 3, 47, 0
5, 65525, Note_on_c, 3, 47, 97
5, 65615, Note_on_c, 3, 47, 0
5, 65645, Note_on_c, 3, 56, 100
5, 65735, Note_on_c, 3, 56, 0
5, 65825, Note_on_c, 3, 47, 100
5, 65885, Note_on_c, 3, 47, 0
5, 65885, Note_on_c, 3, 49, 100
5, 65945, Note_on_c, 3, 49, 0
5, 65945, Note_on_c, 3, 48, 100
5, 66005, Note_on_c, 3, 48, 0
5, 66005, Note_on_c, 3, 48, 100
5, 66185, Note_on_c, 3, 48, 0
5, 66185, Note_on_c, 3, 46, 100
5, 66205, Note_on_c, 3, 46, 0
5, 66215, Note_on_c, 3, 48, 100
5, 66235, Note_on_c, 3, 48, 0
5, 66245, Note_on_c, 3, 49, 100
5, 66265, Note_on_c, 3, 49, 0
5, 66275, Note_on_c, 3, 48, 100
5, 66295, Note_on_c, 3, 48, 0
5, 66305, Note_on_c, 3, 46, 100
5, 66325, Note_on_c, 3, 46, 0
5, 66335, Note_on_c, 3, 44, 100
5, 66355, Note_on_c, 3, 44, 0
5, 66365, Note_on_c, 3, 43, 100
5, 66410, Note_on_c, 3, 43, 0
5, 66425, Note_on_c, 3, 43, 100
5, 66445, Note_on_c, 3, 43, 0
5, 66455, Note_on_c, 3, 44, 100
5, 66475, Note_on_c, 3, 44, 0
5, 66485, Note_on_c, 3, 46, 100
5, 66505, Note_on_c, 3, 46, 0
5, 66515, Note_on_c, 3, 44, 100
5, 66535, Note_on_c, 3, 44, 0
5, 66545, Note_on_c, 3, 43, 100
5, 66565, Note_on_c, 3, 43, 0
5, 66575, Note_on_c, 3, 41, 100
5, 66595, Note_on_c, 3, 41, 0
5, 66605, Note_on_c, 3, 40, 100
5, 66695, Note_on_c, 3, 40, 0
5, 66725, Note_on_c, 3, 40, 100
5, 66815, Note_on_c, 3, 40, 0
5, 66845, Note_on_c, 3, 49, 100
5, 66935, Note_on_c, 3, 49, 0
5, 67085, Note_on_c, 3, 42, 100
5, 67175, Note_on_c, 3, 42, 0
5, 67205, Note_on_c, 3, 42, 100
5, 67295, Note_on_c, 3, 42, 0
5, 67325, Note_on_c, 3, 51, 100
5, 67415, Note_on_c, 3, 51, 0
5, 67565, Note_on_c, 3, 47, 100
5, 67655, Note_on_c, 3, 47, 0
5, 67685, Note_on_c, 3, 47, 100
5, 67775, Note_on_c, 3, 47, 0
5, 67805, Note_on_c, 3, 56, 100
5, 67895, Note_on_c, 3, 56, 0
5, 68765, Note_on_c, 3, 55, 100
5, 68765, Note_on_c, 3, 43, 100
5, 68855, Note_on_c, 3, 43, 0
5, 68855, Note_on_c, 3, 55, 0
5, 68885, Note_on_c, 3, 55, 100
5, 68885, Note_on_c, 3, 43, 100
5, 68975, Note_on_c, 3, 43, 0
5, 68975, Note_on_c, 3, 55, 0
5, 69005, Note_on_c, 3, 36, 100
5, 69005, Note_on_c, 3, 48, 100
5, 69095, Note_on_c, 3, 48, 0
5, 69095, Note_on_c, 3, 36, 0
5, 69125, Note_on_c, 3, 50, 100
5, 69155, Note_on_c, 3, 50, 0
5, 69155, Note_on_c, 3, 51, 100
5, 69185, Note_on_c, 3, 51, 0
5, 69185, Note_on_c, 3, 53, 100
5, 69215, Note_on_c, 3, 53, 0
5, 69215, Note_on_c, 3, 55, 100
5, 69245, Note_on_c, 3, 55, 0
5, 69245, Note_on_c, 3, 56, 100
5, 69335, Note_on_c, 3, 56, 0
5, 69365, Note_on_c, 3, 56, 100
5, 69455, Note_on_c, 3, 56, 0
5, 69485, Note_on_c, 3, 47, 100
5, 69575, Note_on_c, 3, 47, 0
5, 69605, Note_on_c, 3, 48, 100
5, 69695, Note_on_c, 3, 48, 0
5, 69725, Note_on_c, 3, 55, 100
5, 69725, Note_on_c, 3, 43, 100
5, 69815, Note_on_c, 3, 43, 0
5, 69815, Note_on_c, 3, 55, 0
5, 69845, Note_on_c, 3, 55, 100
5, 69845, Note_on_c, 3, 43, 100
5, 69935, Note_on_c, 3, 43, 0
5, 69935, Note_on_c, 3, 55, 0
5, 69965, Note_on_c, 3, 36, 100
5, 69965, Note_on_c, 3, 48, 100
5, 70055, Note_on_c, 3, 48, 0
5, 70055, Note_on_c, 3, 36, 0
5, 70085, Note_on_c, 3, 50, 100
5, 70115, Note_on_c, 3, 50, 0
5, 70115, Note_on_c, 3, 51, 100
5, 70145, Note_on_c, 3, 51, 0
5, 70145, Note_on_c, 3, 53, 100
5, 70175, Note_on_c, 3, 53, 0
5, 70175, Note_on_c, 3, 55, 100
5, 70205, Note_on_c, 3, 55, 0
5, 70205, Note_on_c, 3, 56, 100
5, 70295, Note_on_c, 3, 56, 0
5, 70325, Note_on_c, 3, 56, 100
5, 70415, Note_on_c, 3, 56, 0
5, 70445, Note_on_c, 3, 47, 100
5, 70535, Note_on_c, 3, 47, 0
5, 70625, Note_on_c, 3, 56, 100
5, 70685, Note_on_c, 3, 56, 0
5, 70685, Note_on_c, 3, 54, 100
5, 70745, Note_on_c, 3, 54, 0
5, 70745, Note_on_c, 3, 55, 100
5, 70805, Note_on_c, 3, 55, 0
5, 70805, Note_on_c, 3, 52, 100
5, 70865, Note_on_c, 3, 52, 0
5, 70865, Note_on_c, 3, 53, 100
5, 70920, Note_on_c, 3, 53, 0
5, 70925, Note_on_c, 3, 50, 100
5, 70985, Note_on_c, 3, 50, 0
5, 70985, Note_on_c, 3, 51, 100
5, 71045, Note_on_c, 3, 51, 0
5, 71045, Note_on_c, 3, 53, 100
5, 71090, Note_on_c, 3, 53, 0
5, 71105, Note_on_c, 3, 50, 100
5, 71150, Note_on_c, 3, 50, 0
5, 71165, Note_on_c, 3, 55, 100
5, 71255, Note_on_c, 3, 55, 0
5, 71285, Note_on_c, 3, 43, 100
5, 71375, Note_on_c, 3, 43, 0
5, 71405, Note_on_c, 3, 36, 100
5, 71435, Note_on_c, 3, 36, 0
5, 71435, Note_on_c, 3, 48, 100
5, 71460, Note_on_c, 3, 48, 0
5, 71465, Note_on_c, 3, 48, 100
5, 71490, Note_on_c, 3, 48, 0
5, 71495, Note_on_c, 3, 48, 100
5, 71520, Note_on_c, 3, 48, 0
5, 71525, Note_on_c, 3, 36, 100
5, 71555, Note_on_c, 3, 36, 0
5, 71555, Note_on_c, 3, 48, 100
5, 71580, Note_on_c, 3, 48, 0
5, 71585, Note_on_c, 3, 48, 100
5, 71610, Note_on_c, 3, 48, 0
5, 71615, Note_on_c, 3, 48, 100
5, 71640, Note_on_c, 3, 48, 0
5, 71645, Note_on_c, 3, 36, 100
5, 71675, Note_on_c, 3, 36, 0
5, 71675, Note_on_c, 3, 48, 100
5, 71700, Note_on_c, 3, 48, 0
5, 71705, Note_on_c, 3, 48, 100
5, 71730, Note_on_c, 3, 48, 0
5, 71735, Note_on_c, 3, 48, 100
5, 71760, Note_on_c, 3, 48, 0
5, 71765, Note_on_c, 3, 36, 100
5, 71795, Note_on_c, 3, 36, 0
5, 71795, Note_on_c, 3, 48, 100
5, 71820, Note_on_c, 3, 48, 0
5, 71825, Note_on_c, 3, 48, 100
5, 71850, Note_on_c, 3, 48, 0
5, 71855, Note_on_c, 3, 48, 100
5, 71880, Note_on_c, 3, 48, 0
5, 71885, Note_on_c, 3, 38, 100
5, 71915, Note_on_c, 3, 38, 0
5, 71915, Note_on_c, 3, 50, 100
5, 71940, Note_on_c, 3, 50, 0
5, 71945, Note_on_c, 3, 50, 100
5, 71970, Note_on_c, 3, 50, 0
5, 71975, Note_on_c, 3, 50, 100
5, 72000, Note_on_c, 3, 50, 0
5, 72005, Note_on_c, 3, 38, 100
5, 72035, Note_on_c, 3, 38, 0
5, 72035, Note_on_c, 3, 50, 100
5, 72060, Note_on_c, 3, 50, 0
5, 72065, Note_on_c, 3, 50, 100
5, 72090, Note_on_c, 3, 50, 0
5, 72095, Note_on_c, 3, 50, 100
5, 72120, Note_on_c, 3, 50, 0
5, 72125, Note_on_c, 3, 38, 100
5, 72155, Note_on_c, 3, 38, 0
5, 72155, Note_on_c, 3, 50, 100
5, 72180, Note_on_c, 3, 50, 0
5, 72185, Note_on_c, 3, 50, 100
5, 72210, Note_on_c, 3, 50, 0
5, 72215, Note_on_c, 3, 50, 100
5, 72240, Note_on_c, 3, 50, 0
5, 72245, Note_on_c, 3, 38, 100
5, 72275, Note_on_c, 3, 38, 0
5, 72275, Note_on_c, 3, 50, 100
5, 72300, Note_on_c, 3, 50, 0
5, 72305, Note_on_c, 3, 50, 100
5, 72330, Note_on_c, 3, 50, 0
5, 72335, Note_on_c, 3, 50, 100
5, 72360, Note_on_c, 3, 50, 0
5, 72365, Note_on_c, 3, 39, 100
5, 72395, Note_on_c, 3, 39, 0
5, 72395, Note_on_c, 3, 48, 100
5, 72420, Note_on_c, 3, 48, 0
5, 72425, Note_on_c, 3, 48, 100
5, 72450, Note_on_c, 3, 48, 0
5, 72455, Note_on_c, 3, 48, 100
5, 72480, Note_on_c, 3, 48, 0
5, 72485, Note_on_c, 3, 41, 100
5, 72515, Note_on_c, 3, 41, 0
5, 72515, Note_on_c, 3, 48, 100
5, 72540, Note_on_c, 3, 48, 0
5, 72545, Note_on_c, 3, 48, 100
5, 72570, Note_on_c, 3, 48, 0
5, 72575, Note_on_c, 3, 48, 100
5, 72600, Note_on_c, 3, 48, 0
5, 72605, Note_on_c, 3, 43, 100
5, 72635, Note_on_c, 3, 43, 0
5, 72635, Note_on_c, 3, 48, 100
5, 72660, Note_on_c, 3, 48, 0
5, 72665, Note_on_c, 3, 48, 100
5, 72690, Note_on_c, 3, 48, 0
5, 72695, Note_on_c, 3, 48, 100
5, 72720, Note_on_c, 3, 48, 0
5, 72725, Note_on_c, 3, 43, 100
5, 72755, Note_on_c, 3, 43, 0
5, 72755, Note_on_c, 3, 49, 100
5, 72780, Note_on_c, 3, 49, 0
5, 72785, Note_on_c, 3, 49, 100
5, 72810, Note_on_c, 3, 49, 0
5, 72815, Note_on_c, 3, 49, 100
5, 72840, Note_on_c, 3, 49, 0
5, 72845, Note_on_c, 3, 44, 100
5, 72875, Note_on_c, 3, 44, 0
5, 72875, Note_on_c, 3, 48, 100
5, 72900, Note_on_c, 3, 48, 0
5, 72905, Note_on_c, 3, 48, 100
5, 72930, Note_on_c, 3, 48, 0
5, 72935, Note_on_c, 3, 48, 100
5, 72960, Note_on_c, 3, 48, 0
5, 72965, Note_on_c, 3, 45, 100
5, 72995, Note_on_c, 3, 45, 0
5, 72995, Note_on_c, 3, 50, 100
5, 73020, Note_on_c, 3, 50, 0
5, 73025, Note_on_c, 3, 50, 100
5, 73050, Note_on_c, 3, 50, 0
5, 73055, Note_on_c, 3, 50, 100
5, 73080, Note_on_c, 3, 50, 0
5, 73085, Note_on_c, 3, 43, 100
5, 73115, Note_on_c, 3, 43, 0
5, 73115, Note_on_c, 3, 51, 100
5, 73140, Note_on_c, 3, 51, 0
5, 73145, Note_on_c, 3, 51, 100
5, 73170, Note_on_c, 3, 51, 0
5, 73175, Note_on_c, 3, 51, 100
5, 73200, Note_on_c, 3, 51, 0
5, 73205, Note_on_c, 3, 43, 100
5, 73235, Note_on_c, 3, 43, 0
5, 73235, Note_on_c, 3, 53, 100
5, 73260, Note_on_c, 3, 53, 0
5, 73265, Note_on_c, 3, 53, 100
5, 73290, Note_on_c, 3, 53, 0
5, 73295, Note_on_c, 3, 53, 100
5, 73320, Note_on_c, 3, 53, 0
5, 73325, Note_on_c, 3, 39, 100
5, 73355, Note_on_c, 3, 39, 0
5, 73355, Note_on_c, 3, 48, 100
5, 73380, Note_on_c, 3, 48, 0
5, 73385, Note_on_c, 3, 48, 100
5, 73410, Note_on_c, 3, 48, 0
5, 73415, Note_on_c, 3, 48, 100
5, 73440, Note_on_c, 3, 48, 0
5, 73445, Note_on_c, 3, 41, 100
5, 73475, Note_on_c, 3, 41, 0
5, 73475, Note_on_c, 3, 48, 100
5, 73500, Note_on_c, 3, 48, 0
5, 73505, Note_on_c, 3, 48, 100
5, 73530, Note_on_c, 3, 48, 0
5, 73535, Note_on_c, 3, 48, 100
5, 73560, Note_on_c, 3, 48, 0
5, 73565, Note_on_c, 3, 43, 100
5, 73595, Note_on_c, 3, 43, 0
5, 73595, Note_on_c, 3, 48, 100
5, 73620, Note_on_c, 3, 48, 0
5, 73625, Note_on_c, 3, 48, 100
5, 73650, Note_on_c, 3, 48, 0
5, 73655, Note_on_c, 3, 48, 100
5, 73680, Note_on_c, 3, 48, 0
5, 73685, Note_on_c, 3, 43, 100
5, 73715, Note_on_c, 3, 43, 0
5, 73715, Note_on_c, 3, 49, 100
5, 73740, Note_on_c, 3, 49, 0
5, 73745, Note_on_c, 3, 49, 100
5, 73770, Note_on_c, 3, 49, 0
5, 73775, Note_on_c, 3, 49, 100
5, 73800, Note_on_c, 3, 49, 0
5, 73805, Note_on_c, 3, 44, 100
5, 73835, Note_on_c, 3, 44, 0
5, 73835, Note_on_c, 3, 48, 100
5, 73860, Note_on_c, 3, 48, 0
5, 73865, Note_on_c, 3, 48, 100
5, 73890, Note_on_c, 3, 48, 0
5, 73895, Note_on_c, 3, 48, 100
5, 73920, Note_on_c, 3, 48, 0
5, 73925, Note_on_c, 3, 45, 100
5, 73955, Note_on_c, 3, 45, 0
5, 73955, Note_on_c, 3, 50, 100
5, 73980, Note_on_c, 3, 50, 0
5, 73985, Note_on_c, 3, 50, 100
5, 74010, Note_on_c, 3, 50, 0
5, 74015, Note_on_c, 3, 50, 100
5, 74040, Note_on_c, 3, 50, 0
5, 74045, Note_on_c, 3, 43, 100
5, 74075, Note_on_c, 3, 43, 0
5, 74075, Note_on_c, 3, 51, 100
5, 74100, Note_on_c, 3, 51, 0
5, 74105, Note_on_c, 3, 51, 100
5, 74130, Note_on_c, 3, 51, 0
5, 74135, Note_on_c, 3, 51, 100
5, 74160, Note_on_c, 3, 51, 0
5, 74165, Note_on_c, 3, 43, 100
5, 74195, Note_on_c, 3, 43, 0
5, 74195, Note_on_c, 3, 50, 100
5, 74220, Note_on_c, 3, 50, 0
5, 74225, Note_on_c, 3, 50, 100
5, 74250, Note_on_c, 3, 50, 0
5, 74255, Note_on_c, 3, 50, 100
5, 74280, Note_on_c, 3, 50, 0
5, 74285, Note_on_c, 3, 36, 100
5, 74285, Note_on_c, 3, 48, 100
5, 74375, Note_on_c, 3, 48, 0
5, 74375, Note_on_c, 3, 36, 0
5, 74405, Note_on_c, 3, 50, 100
5, 74435, Note_on_c, 3, 50, 0
5, 74435, Note_on_c, 3, 51, 100
5, 74465, Note_on_c, 3, 51, 0
5, 74465, Note_on_c, 3, 53, 100
5, 74495, Note_on_c, 3, 53, 0
5, 74495, Note_on_c, 3, 55, 100
5, 74525, Note_on_c, 3, 55, 0
5, 74525, Note_on_c, 3, 56, 100
5, 74615, Note_on_c, 3, 56, 0
5, 74645, Note_on_c, 3, 56, 100
5, 74735, Note_on_c, 3, 56, 0
5, 74765, Note_on_c, 3, 47, 100
5, 74855, Note_on_c, 3, 47, 0
5, 74945, Note_on_c, 3, 56, 100
5, 75005, Note_on_c, 3, 56, 0
5, 75005, Note_on_c, 3, 54, 100
5, 75065, Note_on_c, 3, 54, 0
5, 75065, Note_on_c, 3, 55, 100
5, 75125, Note_on_c, 3, 55, 0
5, 75185, Note_on_c, 3, 55, 100
5, 75245, Note_on_c, 3, 55, 0
5, 75245, Note_on_c, 3, 52, 100
5, 75305, Note_on_c, 3, 52, 0
5, 75305, Note_on_c, 3, 53, 100
5, 75365, Note_on_c, 3, 53, 0
5, 75455, Note_on_c, 3, 53, 110
5, 75480, Note_on_c, 3, 53, 0
5, 75485, Note_on_c, 3, 55, 111
5, 75570, Note_on_c, 3, 55, 0
5, 75605, Note_on_c, 3, 43, 115
5, 75695, Note_on_c, 3, 43, 0
5, 75725, Note_on_c, 3, 36, 120
5, 75845, Note_on_c, 3, 36, 0
5, 76205, Control_c, 3, 121, 0
5, 76205, End_track
6, 0, Start_track
6, 0, MIDI_port, 0
6, 0, Title_t, "Basse"
6, 0, Program_c, 4, 48
6, 6, Control_c, 4, 121, 0
6, 11, Program_c, 4, 48
6, 16, Pitch_bend_c, 4, 8442
6, 21, Control_c, 4, 10, 125
6, 26, Control_c, 4, 11, 127
6, 31, Control_c, 4, 91, 80
6, 36, Control_c, 4, 93, 0
6, 41, Control_c, 4, 7, 127
6, 366, Note_on_c, 4, 24, 100
6, 486, Note_on_c, 4, 24, 0
6, 576, Note_on_c, 4, 36, 100
6, 600, Note_on_c, 4, 36, 0
6, 606, Note_on_c, 4, 43, 100
6, 691, Note_on_c, 4, 43, 0
6, 696, Note_on_c, 4, 41, 100
6, 720, Note_on_c, 4, 41, 0
6, 726, Note_on_c, 4, 39, 100
6, 846, Note_on_c, 4, 39, 0
6, 936, Note_on_c, 4, 39, 100
6, 966, Note_on_c, 4, 39, 0
6, 966, Note_on_c, 4, 31, 100
6, 1051, Note_on_c, 4, 31, 0
6, 1056, Note_on_c, 4, 35, 100
6, 1080, Note_on_c, 4, 35, 0
6, 1086, Note_on_c, 4, 36, 100
6, 1206, Note_on_c, 4, 36, 0
6, 1296, Note_on_c, 4, 43, 100
6, 1320, Note_on_c, 4, 43, 0
6, 1326, Note_on_c, 4, 36, 100
6, 1411, Note_on_c, 4, 36, 0
6, 1416, Note_on_c, 4, 40, 100
6, 1440, Note_on_c, 4, 40, 0
6, 1446, Note_on_c, 4, 41, 100
6, 1536, Note_on_c, 4, 41, 0
6, 1566, Note_on_c, 4, 36, 100
6, 1656, Note_on_c, 4, 36, 0
6, 2166, Control_c, 4, 11, 70
6, 2166, Note_on_c, 4, 29, 40
6, 2169, Control_c, 4, 11, 73
6, 2172, Control_c, 4, 11, 76
6, 2175, Control_c, 4, 11, 79
6, 2178, Control_c, 4, 11, 82
6, 2181, Control_c, 4, 11, 85
6, 2184, Control_c, 4, 11, 88
6, 2188, Control_c, 4, 11, 91
6, 2191, Control_c, 4, 11, 94
6, 2194, Control_c, 4, 11, 97
6, 2197, Control_c, 4, 11, 100
6, 2200, Control_c, 4, 11, 103
6, 2203, Control_c, 4, 11, 106
6, 2207, Control_c, 4, 11, 109
6, 2210, Control_c, 4, 11, 112
6, 2213, Control_c, 4, 11, 115
6, 2216, Control_c, 4, 11, 118
6, 2219, Note_on_c, 4, 29, 0
6, 2219, Control_c, 4, 11, 121
6, 2222, Control_c, 4, 11, 124
6, 2226, Control_c, 4, 11, 127
6, 2226, Note_on_c, 4, 29, 40
6, 2279, Note_on_c, 4, 29, 0
6, 2286, Note_on_c, 4, 29, 40
6, 2339, Note_on_c, 4, 29, 0
6, 2346, Note_on_c, 4, 29, 40
6, 2399, Note_on_c, 4, 29, 0
6, 2406, Note_on_c, 4, 29, 40
6, 2459, Note_on_c, 4, 29, 0
6, 2466, Note_on_c, 4, 29, 40
6, 2519, Note_on_c, 4, 29, 0
6, 2526, Note_on_c, 4, 29, 40
6, 2579, Note_on_c, 4, 29, 0
6, 2586, Note_on_c, 4, 29, 40
6, 2639, Note_on_c, 4, 29, 0
6, 2646, Note_on_c, 4, 27, 40
6, 2699, Note_on_c, 4, 27, 0
6, 2706, Note_on_c, 4, 27, 40
6, 2759, Note_on_c, 4, 27, 0
6, 2766, Note_on_c, 4, 35, 40
6, 2819, Note_on_c, 4, 35, 0
6, 2826, Note_on_c, 4, 35, 40
6, 2879, Note_on_c, 4, 35, 0
6, 2886, Note_on_c, 4, 36, 40
6, 2946, Note_on_c, 4, 36, 0
6, 2946, Note_on_c, 4, 30, 40
6, 3006, Note_on_c, 4, 30, 0
6, 3006, Note_on_c, 4, 31, 40
6, 3126, Note_on_c, 4, 31, 0
6, 3336, Note_on_c, 4, 31, 100
6, 3360, Note_on_c, 4, 31, 0
6, 3366, Note_on_c, 4, 39, 100
6, 3566, Note_on_c, 4, 39, 0
6, 3576, Note_on_c, 4, 38, 100
6, 3600, Note_on_c, 4, 38, 0
6, 3606, Note_on_c, 4, 36, 100
6, 3691, Note_on_c, 4, 36, 0
6, 3696, Note_on_c, 4, 31, 100
6, 3720, Note_on_c, 4, 31, 0
6, 3726, Note_on_c, 4, 43, 100
6, 3926, Note_on_c, 4, 43, 0
6, 3936, Note_on_c, 4, 41, 100
6, 3960, Note_on_c, 4, 41, 0
6, 3966, Note_on_c, 4, 39, 100
6, 4051, Note_on_c, 4, 39, 0
6, 4056, Note_on_c, 4, 36, 100
6, 4080, Note_on_c, 4, 36, 0
6, 4086, Note_on_c, 4, 48, 100
6, 4286, Note_on_c, 4, 48, 0
6, 4296, Note_on_c, 4, 46, 100
6, 4320, Note_on_c, 4, 46, 0
6, 4326, Note_on_c, 4, 44, 100
6, 4416, Note_on_c, 4, 44, 0
6, 4446, Note_on_c, 4, 43, 100
6, 4536, Note_on_c, 4, 43, 0
6, 4686, Control_c, 4, 11, 70
6, 4686, Note_on_c, 4, 29, 40
6, 4689, Control_c, 4, 11, 73
6, 4692, Control_c, 4, 11, 76
6, 4695, Control_c, 4, 11, 79
6, 4698, Control_c, 4, 11, 82
6, 4701, Control_c, 4, 11, 85
6, 4704, Control_c, 4, 11, 88
6, 4708, Control_c, 4, 11, 91
6, 4711, Control_c, 4, 11, 94
6, 4714, Control_c, 4, 11, 97
6, 4717, Control_c, 4, 11, 100
6, 4720, Control_c, 4, 11, 103
6, 4723, Control_c, 4, 11, 106
6, 4727, Control_c, 4, 11, 109
6, 4730, Control_c, 4, 11, 112
6, 4733, Control_c, 4, 11, 115
6, 4736, Control_c, 4, 11, 118
6, 4739, Control_c, 4, 11, 121
6, 4742, Control_c, 4, 11, 124
6, 4746, Control_c, 4, 11, 127
6, 4776, Note_on_c, 4, 29, 0
6, 4776, Note_on_c, 4, 28, 40
6, 4801, Note_on_c, 4, 28, 0
6, 4806, Note_on_c, 4, 29, 40
6, 4896, Note_on_c, 4, 29, 0
6, 4896, Note_on_c, 4, 28, 40
6, 4921, Note_on_c, 4, 28, 0
6, 4926, Note_on_c, 4, 29, 40
6, 5016, Note_on_c, 4, 29, 0
6, 5016, Note_on_c, 4, 28, 40
6, 5041, Note_on_c, 4, 28, 0
6, 5046, Note_on_c, 4, 29, 40
6, 5166, Note_on_c, 4, 29, 0
6, 5166, Note_on_c, 4, 32, 40
6, 5286, Note_on_c, 4, 32, 0
6, 5286, Note_on_c, 4, 37, 40
6, 5406, Note_on_c, 4, 37, 0
6, 5406, Note_on_c, 4, 27, 40
6, 5459, Note_on_c, 4, 27, 0
6, 5466, Note_on_c, 4, 27, 40
6, 5519, Note_on_c, 4, 27, 0
6, 5526, Note_on_c, 4, 27, 40
6, 5579, Note_on_c, 4, 27, 0
6, 5586, Note_on_c, 4, 27, 40
6, 5639, Note_on_c, 4, 27, 0
6, 5646, Note_on_c, 4, 27, 40
6, 5699, Note_on_c, 4, 27, 0
6, 5706, Note_on_c, 4, 27, 40
6, 5759, Note_on_c, 4, 27, 0
6, 5766, Note_on_c, 4, 32, 40
6, 5819, Note_on_c, 4, 32, 0
6, 5826, Note_on_c, 4, 32, 40
6, 5879, Note_on_c, 4, 32, 0
6, 5886, Note_on_c, 4, 32, 40
6, 5939, Note_on_c, 4, 32, 0
6, 5946, Note_on_c, 4, 32, 40
6, 5999, Note_on_c, 4, 32, 0
6, 6006, Note_on_c, 4, 32, 40
6, 6059, Note_on_c, 4, 32, 0
6, 6066, Note_on_c, 4, 32, 40
6, 6119, Note_on_c, 4, 32, 0
6, 6126, Note_on_c, 4, 33, 40
6, 6179, Note_on_c, 4, 33, 0
6, 6186, Note_on_c, 4, 33, 40
6, 6239, Note_on_c, 4, 33, 0
6, 6246, Note_on_c, 4, 33, 40
6, 6299, Note_on_c, 4, 33, 0
6, 6306, Note_on_c, 4, 33, 40
6, 6359, Note_on_c, 4, 33, 0
6, 6366, Note_on_c, 4, 33, 40
6, 6419, Note_on_c, 4, 33, 0
6, 6426, Note_on_c, 4, 33, 40
6, 6479, Note_on_c, 4, 33, 0
6, 6486, Note_on_c, 4, 34, 40
6, 6539, Note_on_c, 4, 34, 0
6, 6546, Note_on_c, 4, 34, 40
6, 6599, Note_on_c, 4, 34, 0
6, 6606, Note_on_c, 4, 34, 41
6, 6659, Note_on_c, 4, 34, 0
6, 6666, Note_on_c, 4, 34, 41
6, 6719, Note_on_c, 4, 34, 0
6, 6726, Note_on_c, 4, 34, 42
6, 6779, Note_on_c, 4, 34, 0
6, 6786, Note_on_c, 4, 34, 43
6, 6839, Note_on_c, 4, 34, 0
6, 6846, Note_on_c, 4, 35, 43
6, 6899, Note_on_c, 4, 35, 0
6, 6906, Note_on_c, 4, 35, 44
6, 6959, Note_on_c, 4, 35, 0
6, 6966, Note_on_c, 4, 35, 45
6, 7019, Note_on_c, 4, 35, 0
6, 7026, Note_on_c, 4, 35, 45
6, 7079, Note_on_c, 4, 35, 0
6, 7086, Note_on_c, 4, 35, 46
6, 7139, Note_on_c, 4, 35, 0
6, 7146, Note_on_c, 4, 35, 46
6, 7199, Note_on_c, 4, 35, 0
6, 7206, Note_on_c, 4, 36, 47
6, 7259, Note_on_c, 4, 36, 0
6, 7266, Note_on_c, 4, 36, 48
6, 7319, Note_on_c, 4, 36, 0
6, 7326, Note_on_c, 4, 36, 48
6, 7379, Note_on_c, 4, 36, 0
6, 7386, Note_on_c, 4, 36, 49
6, 7439, Note_on_c, 4, 36, 0
6, 7446, Note_on_c, 4, 36, 50
6, 7499, Note_on_c, 4, 36, 0
6, 7506, Note_on_c, 4, 36, 50
6, 7559, Note_on_c, 4, 36, 0
6, 7566, Note_on_c, 4, 37, 51
6, 7619, Note_on_c, 4, 37, 0
6, 7626, Note_on_c, 4, 37, 51
6, 7679, Note_on_c, 4, 37, 0
6, 7686, Note_on_c, 4, 37, 52
6, 7739, Note_on_c, 4, 37, 0
6, 7746, Note_on_c, 4, 37, 53
6, 7799, Note_on_c, 4, 37, 0
6, 7806, Note_on_c, 4, 37, 53
6, 7859, Note_on_c, 4, 37, 0
6, 7866, Note_on_c, 4, 37, 54
6, 7919, Note_on_c, 4, 37, 0
6, 7926, Note_on_c, 4, 38, 55
6, 7979, Note_on_c, 4, 38, 0
6, 7986, Note_on_c, 4, 38, 55
6, 8039, Note_on_c, 4, 38, 0
6, 8046, Note_on_c, 4, 39, 56
6, 8099, Note_on_c, 4, 39, 0
6, 8106, Note_on_c, 4, 39, 56
6, 8159, Note_on_c, 4, 39, 0
6, 8166, Note_on_c, 4, 37, 57
6, 8219, Note_on_c, 4, 37, 0
6, 8226, Note_on_c, 4, 37, 58
6, 8279, Note_on_c, 4, 37, 0
6, 8286, Note_on_c, 4, 38, 45
6, 8486, Note_on_c, 4, 38, 0
6, 8496, Note_on_c, 4, 36, 80
6, 8520, Note_on_c, 4, 36, 0
6, 8526, Note_on_c, 4, 34, 84
6, 8606, Note_on_c, 4, 34, 0
6, 8616, Note_on_c, 4, 33, 96
6, 8640, Note_on_c, 4, 33, 0
6, 8646, Note_on_c, 4, 31, 100
6, 8766, Note_on_c, 4, 31, 0
6, 8856, Note_on_c, 4, 31, 100
6, 8880, Note_on_c, 4, 31, 0
6, 8886, Note_on_c, 4, 38, 100
6, 8971, Note_on_c, 4, 38, 0
6, 8976, Note_on_c, 4, 36, 100
6, 9000, Note_on_c, 4, 36, 0
6, 9006, Note_on_c, 4, 34, 100
6, 9066, Note_on_c, 4, 34, 0
6, 9216, Note_on_c, 4, 34, 100
6, 9240, Note_on_c, 4, 34, 0
6, 9246, Note_on_c, 4, 26, 100
6, 9331, Note_on_c, 4, 26, 0
6, 9336, Note_on_c, 4, 30, 100
6, 9360, Note_on_c, 4, 30, 0
6, 9366, Note_on_c, 4, 31, 100
6, 9486, Note_on_c, 4, 31, 0
6, 9576, Note_on_c, 4, 38, 100
6, 9600, Note_on_c, 4, 38, 0
6, 9606, Note_on_c, 4, 31, 100
6, 9691, Note_on_c, 4, 31, 0
6, 9696, Note_on_c, 4, 35, 100
6, 9720, Note_on_c, 4, 35, 0
6, 9726, Note_on_c, 4, 36, 100
6, 9816, Note_on_c, 4, 36, 0
6, 9846, Note_on_c, 4, 31, 100
6, 9936, Note_on_c, 4, 31, 0
6, 11166, Note_on_c, 4, 26, 40
6, 11256, Note_on_c, 4, 26, 0
6, 11256, Note_on_c, 4, 25, 40
6, 11286, Note_on_c, 4, 25, 0
6, 11286, Note_on_c, 4, 26, 40
6, 11376, Note_on_c, 4, 26, 0
6, 11376, Note_on_c, 4, 25, 40
6, 11406, Note_on_c, 4, 25, 0
6, 11406, Note_on_c, 4, 26, 40
6, 11496, Note_on_c, 4, 26, 0
6, 11496, Note_on_c, 4, 25, 40
6, 11526, Note_on_c, 4, 25, 0
6, 11526, Note_on_c, 4, 26, 40
6, 11579, Note_on_c, 4, 26, 0
6, 11586, Note_on_c, 4, 26, 40
6, 11639, Note_on_c, 4, 26, 0
6, 11646, Note_on_c, 4, 26, 40
6, 11699, Note_on_c, 4, 26, 0
6, 11706, Note_on_c, 4, 26, 40
6, 11759, Note_on_c, 4, 26, 0
6, 11766, Note_on_c, 4, 26, 40
6, 11819, Note_on_c, 4, 26, 0
6, 11826, Note_on_c, 4, 26, 40
6, 11879, Note_on_c, 4, 26, 0
6, 11886, Note_on_c, 4, 31, 40
6, 11939, Note_on_c, 4, 31, 0
6, 11946, Note_on_c, 4, 31, 40
6, 11999, Note_on_c, 4, 31, 0
6, 12006, Note_on_c, 4, 32, 40
6, 12059, Note_on_c, 4, 32, 0
6, 12066, Note_on_c, 4, 32, 40
6, 12119, Note_on_c, 4, 32, 0
6, 12126, Note_on_c, 4, 30, 40
6, 12179, Note_on_c, 4, 30, 0
6, 12186, Note_on_c, 4, 30, 40
6, 12239, Note_on_c, 4, 30, 0
6, 12246, Note_on_c, 4, 31, 40
6, 12366, Note_on_c, 4, 31, 0
6, 12696, Note_on_c, 4, 31, 100
6, 12720, Note_on_c, 4, 31, 0
6, 12726, Note_on_c, 4, 43, 100
6, 12926, Note_on_c, 4, 43, 0
6, 12936, Note_on_c, 4, 41, 100
6, 12960, Note_on_c, 4, 41, 0
6, 12966, Note_on_c, 4, 39, 100
6, 13048, Note_on_c, 4, 39, 0
6, 13056, Note_on_c, 4, 31, 100
6, 13080, Note_on_c, 4, 31, 0
6, 13086, Note_on_c, 4, 43, 100
6, 13286, Note_on_c, 4, 43, 0
6, 13296, Note_on_c, 4, 41, 100
6, 13320, Note_on_c, 4, 41, 0
6, 13326, Note_on_c, 4, 39, 100
6, 13408, Note_on_c, 4, 39, 0
6, 13416, Note_on_c, 4, 36, 100
6, 13440, Note_on_c, 4, 36, 0
6, 13446, Note_on_c, 4, 48, 100
6, 13646, Note_on_c, 4, 48, 0
6, 13656, Note_on_c, 4, 46, 100
6, 13680, Note_on_c, 4, 46, 0
6, 13686, Note_on_c, 4, 44, 100
6, 13776, Note_on_c, 4, 44, 0
6, 13806, Note_on_c, 4, 43, 100
6, 13896, Note_on_c, 4, 43, 0
6, 14046, Control_c, 4, 11, 70
6, 14046, Note_on_c, 4, 29, 40
6, 14049, Control_c, 4, 11, 73
6, 14052, Control_c, 4, 11, 76
6, 14055, Control_c, 4, 11, 79
6, 14058, Control_c, 4, 11, 82
6, 14061, Control_c, 4, 11, 85
6, 14064, Control_c, 4, 11, 88
6, 14068, Control_c, 4, 11, 91
6, 14071, Control_c, 4, 11, 94
6, 14074, Control_c, 4, 11, 97
6, 14077, Control_c, 4, 11, 100
6, 14080, Control_c, 4, 11, 103
6, 14083, Control_c, 4, 11, 106
6, 14087, Control_c, 4, 11, 109
6, 14090, Control_c, 4, 11, 112
6, 14093, Control_c, 4, 11, 115
6, 14096, Control_c, 4, 11, 118
6, 14099, Control_c, 4, 11, 121
6, 14102, Control_c, 4, 11, 124
6, 14106, Control_c, 4, 11, 127
6, 14136, Note_on_c, 4, 29, 0
6, 14136, Note_on_c, 4, 28, 40
6, 14166, Note_on_c, 4, 28, 0
6, 14166, Note_on_c, 4, 29, 40
6, 14256, Note_on_c, 4, 29, 0
6, 14256, Note_on_c, 4, 28, 40
6, 14286, Note_on_c, 4, 28, 0
6, 14286, Note_on_c, 4, 29, 40
6, 14376, Note_on_c, 4, 29, 0
6, 14376, Note_on_c, 4, 28, 40
6, 14401, Note_on_c, 4, 28, 0
6, 14406, Note_on_c, 4, 29, 40
6, 14459, Note_on_c, 4, 29, 0
6, 14466, Note_on_c, 4, 29, 40
6, 14519, Note_on_c, 4, 29, 0
6, 14526, Note_on_c, 4, 29, 40
6, 14579, Note_on_c, 4, 29, 0
6, 14586, Note_on_c, 4, 29, 40
6, 14639, Note_on_c, 4, 29, 0
6, 14646, Note_on_c, 4, 29, 40
6, 14699, Note_on_c, 4, 29, 0
6, 14706, Note_on_c, 4, 29, 40
6, 14759, Note_on_c, 4, 29, 0
6, 14766, Note_on_c, 4, 28, 40
6, 14819, Note_on_c, 4, 28, 0
6, 14826, Note_on_c, 4, 28, 40
6, 14879, Note_on_c, 4, 28, 0
6, 14886, Note_on_c, 4, 28, 40
6, 14939, Note_on_c, 4, 28, 0
6, 14946, Note_on_c, 4, 28, 40
6, 14999, Note_on_c, 4, 28, 0
6, 15006, Note_on_c, 4, 28, 40
6, 15059, Note_on_c, 4, 28, 0
6, 15066, Note_on_c, 4, 28, 40
6, 15119, Note_on_c, 4, 28, 0
6, 15126, Note_on_c, 4, 28, 40
6, 15179, Note_on_c, 4, 28, 0
6, 15186, Note_on_c, 4, 28, 40
6, 15239, Note_on_c, 4, 28, 0
6, 15246, Note_on_c, 4, 28, 40
6, 15299, Note_on_c, 4, 28, 0
6, 15306, Note_on_c, 4, 28, 40
6, 15359, Note_on_c, 4, 28, 0
6, 15366, Note_on_c, 4, 28, 40
6, 15419, Note_on_c, 4, 28, 0
6, 15426, Note_on_c, 4, 28, 40
6, 15479, Note_on_c, 4, 28, 0
6, 15486, Note_on_c, 4, 28, 40
6, 15539, Note_on_c, 4, 28, 0
6, 15546, Note_on_c, 4, 28, 40
6, 15599, Note_on_c, 4, 28, 0
6, 15606, Note_on_c, 4, 28, 40
6, 15659, Note_on_c, 4, 28, 0
6, 15666, Note_on_c, 4, 28, 40
6, 15719, Note_on_c, 4, 28, 0
6, 15726, Note_on_c, 4, 28, 40
6, 15779, Note_on_c, 4, 28, 0
6, 15786, Note_on_c, 4, 28, 40
6, 15839, Note_on_c, 4, 28, 0
6, 15846, Note_on_c, 4, 28, 40
6, 15899, Note_on_c, 4, 28, 0
6, 15906, Note_on_c, 4, 28, 40
6, 15959, Note_on_c, 4, 28, 0
6, 15966, Note_on_c, 4, 28, 40
6, 16019, Note_on_c, 4, 28, 0
6, 16026, Note_on_c, 4, 28, 40
6, 16079, Note_on_c, 4, 28, 0
6, 16086, Note_on_c, 4, 28, 40
6, 16139, Note_on_c, 4, 28, 0
6, 16146, Note_on_c, 4, 34, 40
6, 16199, Note_on_c, 4, 34, 0
6, 16206, Note_on_c, 4, 33, 40
6, 16259, Note_on_c, 4, 33, 0
6, 16266, Note_on_c, 4, 33, 40
6, 16319, Note_on_c, 4, 33, 0
6, 16326, Note_on_c, 4, 32, 40
6, 16379, Note_on_c, 4, 32, 0
6, 16386, Note_on_c, 4, 32, 40
6, 16439, Note_on_c, 4, 32, 0
6, 16446, Note_on_c, 4, 31, 40
6, 16499, Note_on_c, 4, 31, 0
6, 16506, Note_on_c, 4, 31, 40
6, 16559, Note_on_c, 4, 31, 0
6, 16566, Note_on_c, 4, 29, 40
6, 16619, Note_on_c, 4, 29, 0
6, 16626, Note_on_c, 4, 29, 40
6, 16679, Note_on_c, 4, 29, 0
6, 16686, Note_on_c, 4, 30, 40
6, 16739, Note_on_c, 4, 30, 0
6, 16746, Note_on_c, 4, 30, 40
6, 16799, Note_on_c, 4, 30, 0
6, 16806, Note_on_c, 4, 30, 40
6, 16859, Note_on_c, 4, 30, 0
6, 16866, Note_on_c, 4, 30, 40
6, 16919, Note_on_c, 4, 30, 0
6, 16926, Note_on_c, 4, 31, 40
6, 17016, Note_on_c, 4, 31, 0
6, 17016, Note_on_c, 4, 32, 40
6, 17046, Note_on_c, 4, 32, 0
6, 17046, Note_on_c, 4, 31, 40
6, 17136, Note_on_c, 4, 31, 0
6, 17136, Note_on_c, 4, 32, 40
6, 17166, Note_on_c, 4, 32, 0
6, 17166, Note_on_c, 4, 31, 40
6, 17251, Note_on_c, 4, 31, 0
6, 17256, Note_on_c, 4, 32, 40
6, 17281, Note_on_c, 4, 32, 0
6, 17286, Note_on_c, 4, 30, 40
6, 17339, Note_on_c, 4, 30, 0
6, 17346, Note_on_c, 4, 30, 40
6, 17399, Note_on_c, 4, 30, 0
6, 17406, Note_on_c, 4, 30, 40
6, 17459, Note_on_c, 4, 30, 0
6, 17466, Note_on_c, 4, 30, 40
6, 17519, Note_on_c, 4, 30, 0
6, 17526, Note_on_c, 4, 30, 40
6, 17579, Note_on_c, 4, 30, 0
6, 17586, Note_on_c, 4, 30, 40
6, 17639, Note_on_c, 4, 30, 0
6, 17646, Note_on_c, 4, 31, 40
6, 17736, Note_on_c, 4, 31, 0
6, 17736, Note_on_c, 4, 30, 40
6, 17766, Note_on_c, 4, 30, 0
6, 17766, Note_on_c, 4, 31, 40
6, 17856, Note_on_c, 4, 31, 0
6, 17856, Note_on_c, 4, 30, 40
6, 17886, Note_on_c, 4, 30, 0
6, 17886, Note_on_c, 4, 31, 40
6, 17971, Note_on_c, 4, 31, 0
6, 17976, Note_on_c, 4, 31, 40
6, 18006, Note_on_c, 4, 31, 0
6, 18006, Note_on_c, 4, 32, 40
6, 18059, Note_on_c, 4, 32, 0
6, 18066, Note_on_c, 4, 32, 40
6, 18119, Note_on_c, 4, 32, 0
6, 18126, Note_on_c, 4, 32, 40
6, 18179, Note_on_c, 4, 32, 0
6, 18186, Note_on_c, 4, 32, 39
6, 18239, Note_on_c, 4, 32, 0
6, 18246, Note_on_c, 4, 32, 38
6, 18299, Note_on_c, 4, 32, 0
6, 18306, Note_on_c, 4, 32, 37
6, 18359, Note_on_c, 4, 32, 0
6, 18366, Note_on_c, 4, 31, 36
6, 18721, Note_on_c, 4, 31, 0
6, 18726, Note_on_c, 4, 31, 30
6, 18906, Control_c, 4, 11, 127
6, 18907, Control_c, 4, 11, 125
6, 18908, Control_c, 4, 11, 124
6, 18909, Control_c, 4, 11, 123
6, 18910, Control_c, 4, 11, 122
6, 18911, Control_c, 4, 11, 121
6, 18912, Control_c, 4, 11, 120
6, 18913, Control_c, 4, 11, 119
6, 18914, Control_c, 4, 11, 118
6, 18915, Control_c, 4, 11, 117
6, 18916, Control_c, 4, 11, 116
6, 18917, Control_c, 4, 11, 115
6, 18918, Control_c, 4, 11, 114
6, 18919, Control_c, 4, 11, 113
6, 18920, Control_c, 4, 11, 112
6, 18921, Control_c, 4, 11, 110
6, 18922, Control_c, 4, 11, 109
6, 18923, Control_c, 4, 11, 108
6, 18924, Control_c, 4, 11, 107
6, 18925, Control_c, 4, 11, 106
6, 18926, Control_c, 4, 11, 105
6, 18927, Control_c, 4, 11, 104
6, 18928, Control_c, 4, 11, 103
6, 18929, Control_c, 4, 11, 102
6, 18930, Control_c, 4, 11, 101
6, 18931, Control_c, 4, 11, 100
6, 18932, Control_c, 4, 11, 99
6, 18933, Control_c, 4, 11, 98
6, 18934, Control_c, 4, 11, 97
6, 18935, Control_c, 4, 11, 96
6, 18936, Control_c, 4, 11, 94
6, 18937, Control_c, 4, 11, 93
6, 18938, Control_c, 4, 11, 92
6, 18939, Control_c, 4, 11, 91
6, 18940, Control_c, 4, 11, 90
6, 18941, Control_c, 4, 11, 89
6, 18942, Control_c, 4, 11, 88
6, 18943, Control_c, 4, 11, 87
6, 18944, Control_c, 4, 11, 86
6, 18945, Control_c, 4, 11, 85
6, 18946, Control_c, 4, 11, 84
6, 18947, Control_c, 4, 11, 83
6, 18948, Control_c, 4, 11, 82
6, 18949, Control_c, 4, 11, 81
6, 18950, Control_c, 4, 11, 80
6, 18951, Control_c, 4, 11, 78
6, 18952, Control_c, 4, 11, 77
6, 18953, Control_c, 4, 11, 76
6, 18954, Control_c, 4, 11, 75
6, 18955, Control_c, 4, 11, 74
6, 18956, Control_c, 4, 11, 73
6, 18957, Control_c, 4, 11, 72
6, 18958, Control_c, 4, 11, 71
6, 18959, Control_c, 4, 11, 70
6, 18960, Control_c, 4, 11, 69
6, 18961, Control_c, 4, 11, 68
6, 18962, Control_c, 4, 11, 67
6, 18963, Control_c, 4, 11, 66
6, 18964, Control_c, 4, 11, 65
6, 18965, Control_c, 4, 11, 64
6, 18966, Note_on_c, 4, 31, 0
6, 19086, Control_c, 4, 11, 127
6, 19086, Note_on_c, 4, 31, 85
6, 19086, Note_on_c, 4, 43, 85
6, 19176, Note_on_c, 4, 43, 0
6, 19176, Note_on_c, 4, 31, 0
6, 19206, Note_on_c, 4, 31, 85
6, 19206, Note_on_c, 4, 43, 85
6, 19296, Note_on_c, 4, 43, 0
6, 19296, Note_on_c, 4, 31, 0
6, 19326, Note_on_c, 4, 24, 85
6, 19326, Note_on_c, 4, 36, 85
6, 19416, Note_on_c, 4, 36, 0
6, 19416, Note_on_c, 4, 24, 0
6, 19446, Note_on_c, 4, 38, 85
6, 19476, Note_on_c, 4, 38, 0
6, 19476, Note_on_c, 4, 39, 85
6, 19506, Note_on_c, 4, 39, 0
6, 19506, Note_on_c, 4, 41, 85
6, 19536, Note_on_c, 4, 41, 0
6, 19536, Note_on_c, 4, 43, 85
6, 19566, Note_on_c, 4, 43, 0
6, 19566, Note_on_c, 4, 44, 85
6, 19656, Note_on_c, 4, 44, 0
6, 19686, Note_on_c, 4, 44, 85
6, 19776, Note_on_c, 4, 44, 0
6, 19806, Note_on_c, 4, 35, 85
6, 19896, Note_on_c, 4, 35, 0
6, 19986, Note_on_c, 4, 44, 85
6, 20046, Note_on_c, 4, 44, 0
6, 20046, Note_on_c, 4, 42, 85
6, 20106, Note_on_c, 4, 42, 0
6, 20106, Note_on_c, 4, 43, 85
6, 20166, Note_on_c, 4, 43, 0
6, 20226, Note_on_c, 4, 41, 85
6, 20286, Note_on_c, 4, 41, 0
6, 20286, Note_on_c, 4, 38, 85
6, 20346, Note_on_c, 4, 38, 0
6, 20346, Note_on_c, 4, 39, 85
6, 20406, Note_on_c, 4, 39, 0
6, 20406, Note_on_c, 4, 37, 85
6, 20466, Note_on_c, 4, 37, 0
6, 20466, Note_on_c, 4, 38, 85
6, 20526, Note_on_c, 4, 38, 0
6, 20526, Note_on_c, 4, 35, 85
6, 20586, Note_on_c, 4, 35, 0
6, 20586, Note_on_c, 4, 36, 85
6, 20646, Note_on_c, 4, 36, 0
6, 20706, Note_on_c, 4, 24, 85
6, 20729, Note_on_c, 4, 24, 0
6, 20736, Note_on_c, 4, 26, 85
6, 20759, Note_on_c, 4, 26, 0
6, 20766, Note_on_c, 4, 27, 85
6, 20856, Note_on_c, 4, 27, 0
6, 20886, Note_on_c, 4, 24, 85
6, 20976, Note_on_c, 4, 24, 0
6, 21066, Note_on_c, 4, 36, 85
6, 21111, Note_on_c, 4, 36, 0
6, 21126, Note_on_c, 4, 36, 85
6, 21171, Note_on_c, 4, 36, 0
6, 21186, Note_on_c, 4, 36, 85
6, 21231, Note_on_c, 4, 36, 0
6, 21246, Note_on_c, 4, 38, 85
6, 21261, Note_on_c, 4, 38, 0
6, 21261, Note_on_c, 4, 36, 85
6, 21276, Note_on_c, 4, 36, 0
6, 21276, Note_on_c, 4, 38, 85
6, 21291, Note_on_c, 4, 38, 0
6, 21291, Note_on_c, 4, 36, 85
6, 21306, Note_on_c, 4, 36, 0
6, 21306, Note_on_c, 4, 38, 85
6, 21321, Note_on_c, 4, 38, 0
6, 21321, Note_on_c, 4, 36, 85
6, 21336, Note_on_c, 4, 36, 0
6, 21336, Note_on_c, 4, 38, 85
6, 21351, Note_on_c, 4, 38, 0
6, 21351, Note_on_c, 4, 36, 85
6, 21366, Note_on_c, 4, 36, 0
6, 21366, Note_on_c, 4, 38, 85
6, 21381, Note_on_c, 4, 38, 0
6, 21381, Note_on_c, 4, 36, 85
6, 21396, Note_on_c, 4, 36, 0
6, 21396, Note_on_c, 4, 38, 85
6, 21411, Note_on_c, 4, 38, 0
6, 21411, Note_on_c, 4, 36, 85
6, 21426, Note_on_c, 4, 36, 0
6, 21426, Note_on_c, 4, 35, 85
6, 21456, Note_on_c, 4, 35, 0
6, 21456, Note_on_c, 4, 36, 85
6, 21486, Note_on_c, 4, 36, 0
6, 21486, Note_on_c, 4, 34, 85
6, 21606, Note_on_c, 4, 34, 0
6, 21606, Note_on_c, 4, 33, 85
6, 21726, Note_on_c, 4, 33, 0
6, 21726, Note_on_c, 4, 31, 85
6, 21846, Note_on_c, 4, 31, 0
6, 21846, Note_on_c, 4, 29, 85
6, 22026, Note_on_c, 4, 29, 0
6, 22026, Note_on_c, 4, 28, 85
6, 22051, Note_on_c, 4, 28, 0
6, 22056, Note_on_c, 4, 26, 85
6, 22081, Note_on_c, 4, 26, 0
6, 22086, Note_on_c, 4, 27, 85
6, 22131, Note_on_c, 4, 27, 0
6, 22146, Note_on_c, 4, 24, 85
6, 22191, Note_on_c, 4, 24, 0
6, 22266, Note_on_c, 4, 41, 85
6, 22289, Note_on_c, 4, 41, 0
6, 22296, Note_on_c, 4, 39, 85
6, 22319, Note_on_c, 4, 39, 0
6, 22326, Note_on_c, 4, 38, 85
6, 22371, Note_on_c, 4, 38, 0
6, 22386, Note_on_c, 4, 36, 85
6, 22431, Note_on_c, 4, 36, 0
6, 22446, Note_on_c, 4, 35, 85
6, 22536, Note_on_c, 4, 35, 0
6, 22566, Note_on_c, 4, 38, 85
6, 22656, Note_on_c, 4, 38, 0
6, 22686, Note_on_c, 4, 43, 85
6, 22776, Note_on_c, 4, 43, 0
6, 22986, Note_on_c, 4, 31, 85
6, 23046, Note_on_c, 4, 31, 0
6, 23046, Note_on_c, 4, 33, 85
6, 23106, Note_on_c, 4, 33, 0
6, 23106, Note_on_c, 4, 35, 85
6, 23166, Note_on_c, 4, 35, 0
6, 23166, Note_on_c, 4, 36, 85
6, 23226, Note_on_c, 4, 36, 0
6, 23226, Note_on_c, 4, 32, 85
6, 23286, Note_on_c, 4, 32, 0
6, 23286, Note_on_c, 4, 29, 85
6, 23346, Note_on_c, 4, 29, 0
6, 23346, Note_on_c, 4, 31, 85
6, 23401, Note_on_c, 4, 31, 0
6, 23406, Note_on_c, 4, 27, 85
6, 23521, Note_on_c, 4, 27, 0
6, 23526, Note_on_c, 4, 24, 85
6, 23641, Note_on_c, 4, 24, 0
6, 23946, Note_on_c, 4, 33, 85
6, 23971, Note_on_c, 4, 33, 0
6, 23976, Note_on_c, 4, 31, 85
6, 24001, Note_on_c, 4, 31, 0
6, 24006, Note_on_c, 4, 30, 85
6, 24061, Note_on_c, 4, 30, 0
6, 24066, Note_on_c, 4, 27, 85
6, 24121, Note_on_c, 4, 27, 0
6, 24126, Note_on_c, 4, 26, 85
6, 24181, Note_on_c, 4, 26, 0
6, 24186, Note_on_c, 4, 38, 85
6, 24241, Note_on_c, 4, 38, 0
6, 24246, Note_on_c, 4, 40, 85
6, 24301, Note_on_c, 4, 40, 0
6, 24306, Note_on_c, 4, 42, 85
6, 24361, Note_on_c, 4, 42, 0
6, 24366, Note_on_c, 4, 43, 85
6, 24486, Note_on_c, 4, 43, 0
6, 25326, Note_on_c, 4, 31, 85
6, 25326, Note_on_c, 4, 43, 85
6, 25416, Note_on_c, 4, 43, 0
6, 25416, Note_on_c, 4, 31, 0
6, 25446, Note_on_c, 4, 31, 85
6, 25446, Note_on_c, 4, 43, 85
6, 25536, Note_on_c, 4, 43, 0
6, 25536, Note_on_c, 4, 31, 0
6, 25566, Note_on_c, 4, 24, 85
6, 25566, Note_on_c, 4, 36, 85
6, 25656, Note_on_c, 4, 36, 0
6, 25656, Note_on_c, 4, 24, 0
6, 25686, Note_on_c, 4, 38, 85
6, 25716, Note_on_c, 4, 38, 0
6, 25716, Note_on_c, 4, 39, 85
6, 25746, Note_on_c, 4, 39, 0
6, 25746, Note_on_c, 4, 41, 85
6, 25776, Note_on_c, 4, 41, 0
6, 25776, Note_on_c, 4, 43, 85
6, 25806, Note_on_c, 4, 43, 0
6, 25806, Note_on_c, 4, 44, 85
6, 25896, Note_on_c, 4, 44, 0
6, 25926, Note_on_c, 4, 44, 85
6, 26016, Note_on_c, 4, 44, 0
6, 26046, Note_on_c, 4, 35, 85
6, 26136, Note_on_c, 4, 35, 0
6, 26226, Note_on_c, 4, 44, 85
6, 26271, Note_on_c, 4, 44, 0
6, 26286, Note_on_c, 4, 42, 85
6, 26346, Note_on_c, 4, 42, 0
6, 26346, Note_on_c, 4, 43, 85
6, 26406, Note_on_c, 4, 43, 0
6, 26466, Note_on_c, 4, 41, 85
6, 26511, Note_on_c, 4, 41, 0
6, 26526, Note_on_c, 4, 38, 85
6, 26586, Note_on_c, 4, 38, 0
6, 26586, Note_on_c, 4, 39, 85
6, 26646, Note_on_c, 4, 39, 0
6, 26646, Note_on_c, 4, 37, 85
6, 26706, Note_on_c, 4, 37, 0
6, 26706, Note_on_c, 4, 38, 85
6, 26761, Note_on_c, 4, 38, 0
6, 26766, Note_on_c, 4, 36, 85
6, 26886, Note_on_c, 4, 36, 0
6, 27066, Note_on_c, 4, 41, 85
6, 27091, Note_on_c, 4, 41, 0
6, 27096, Note_on_c, 4, 43, 85
6, 27121, Note_on_c, 4, 43, 0
6, 27126, Note_on_c, 4, 44, 85
6, 27181, Note_on_c, 4, 44, 0
6, 27186, Note_on_c, 4, 36, 85
6, 27241, Note_on_c, 4, 36, 0
6, 27246, Note_on_c, 4, 36, 85
6, 27261, Note_on_c, 4, 36, 0
6, 27261, Note_on_c, 4, 34, 85
6, 27276, Note_on_c, 4, 34, 0
6, 27276, Note_on_c, 4, 36, 85
6, 27291, Note_on_c, 4, 36, 0
6, 27291, Note_on_c, 4, 34, 85
6, 27306, Note_on_c, 4, 34, 0
6, 27306, Note_on_c, 4, 36, 85
6, 27321, Note_on_c, 4, 36, 0
6, 27321, Note_on_c, 4, 34, 85
6, 27336, Note_on_c, 4, 34, 0
6, 27336, Note_on_c, 4, 36, 85
6, 27351, Note_on_c, 4, 36, 0
6, 27351, Note_on_c, 4, 34, 85
6, 27366, Note_on_c, 4, 34, 0
6, 27366, Note_on_c, 4, 36, 85
6, 27381, Note_on_c, 4, 36, 0
6, 27381, Note_on_c, 4, 34, 85
6, 27396, Note_on_c, 4, 34, 0
6, 27396, Note_on_c, 4, 36, 85
6, 27411, Note_on_c, 4, 36, 0
6, 27411, Note_on_c, 4, 34, 85
6, 27426, Note_on_c, 4, 34, 0
6, 27426, Note_on_c, 4, 33, 85
6, 27456, Note_on_c, 4, 33, 0
6, 27456, Note_on_c, 4, 34, 85
6, 27486, Note_on_c, 4, 34, 0
6, 27486, Note_on_c, 4, 27, 85
6, 27531, Note_on_c, 4, 27, 0
6, 27546, Note_on_c, 4, 36, 85
6, 27571, Note_on_c, 4, 36, 0
6, 27576, Note_on_c, 4, 38, 85
6, 27601, Note_on_c, 4, 38, 0
6, 27606, Note_on_c, 4, 39, 85
6, 27661, Note_on_c, 4, 39, 0
6, 27666, Note_on_c, 4, 31, 85
6, 27721, Note_on_c, 4, 31, 0
6, 27726, Note_on_c, 4, 34, 85
6, 27741, Note_on_c, 4, 34, 0
6, 27741, Note_on_c, 4, 32, 85
6, 27756, Note_on_c, 4, 32, 0
6, 27756, Note_on_c, 4, 34, 85
6, 27771, Note_on_c, 4, 34, 0
6, 27771, Note_on_c, 4, 32, 85
6, 27786, Note_on_c, 4, 32, 0
6, 27786, Note_on_c, 4, 34, 85
6, 27801, Note_on_c, 4, 34, 0
6, 27801, Note_on_c, 4, 32, 85
6, 27816, Note_on_c, 4, 32, 0
6, 27816, Note_on_c, 4, 31, 85
6, 27831, Note_on_c, 4, 31, 0
6, 27831, Note_on_c, 4, 32, 85
6, 27846, Note_on_c, 4, 32, 0
6, 27846, Note_on_c, 4, 34, 85
6, 27861, Note_on_c, 4, 34, 0
6, 27861, Note_on_c, 4, 33, 85
6, 27876, Note_on_c, 4, 33, 0
6, 27876, Note_on_c, 4, 34, 85
6, 27891, Note_on_c, 4, 34, 0
6, 27891, Note_on_c, 4, 33, 85
6, 27906, Note_on_c, 4, 33, 0
6, 27906, Note_on_c, 4, 34, 85
6, 27921, Note_on_c, 4, 34, 0
6, 27921, Note_on_c, 4, 33, 85
6, 27936, Note_on_c, 4, 33, 0
6, 27936, Note_on_c, 4, 31, 85
6, 27951, Note_on_c, 4, 31, 0
6, 27951, Note_on_c, 4, 32, 85
6, 27966, Note_on_c, 4, 32, 0
6, 27966, Note_on_c, 4, 34, 85
6, 28196, Note_on_c, 4, 34, 0
6, 28206, Note_on_c, 4, 34, 85
6, 28676, Note_on_c, 4, 34, 0
6, 28686, Note_on_c, 4, 34, 85
6, 28916, Note_on_c, 4, 34, 0
6, 28926, Note_on_c, 4, 34, 85
6, 29156, Note_on_c, 4, 34, 0
6, 29166, Note_on_c, 4, 34, 85
6, 29276, Note_on_c, 4, 34, 0
6, 29286, Note_on_c, 4, 34, 85
6, 29466, Note_on_c, 4, 34, 0
6, 29466, Note_on_c, 4, 46, 85
6, 29526, Note_on_c, 4, 46, 0
6, 29526, Note_on_c, 4, 44, 85
6, 29586, Note_on_c, 4, 44, 0
6, 29586, Note_on_c, 4, 43, 85
6, 29646, Note_on_c, 4, 43, 0
6, 29646, Note_on_c, 4, 41, 86
6, 29706, Note_on_c, 4, 41, 0
6, 29706, Note_on_c, 4, 39, 86
6, 29766, Note_on_c, 4, 39, 0
6, 29766, Note_on_c, 4, 37, 86
6, 29826, Note_on_c, 4, 37, 0
6, 29826, Note_on_c, 4, 36, 87
6, 29886, Note_on_c, 4, 36, 0
6, 29886, Note_on_c, 4, 34, 87
6, 29946, Note_on_c, 4, 34, 0
6, 29946, Note_on_c, 4, 32, 87
6, 30006, Note_on_c, 4, 32, 0
6, 30006, Note_on_c, 4, 31, 87
6, 30066, Note_on_c, 4, 31, 0
6, 30066, Note_on_c, 4, 34, 88
6, 30126, Note_on_c, 4, 34, 0
6, 30126, Note_on_c, 4, 24, 88
6, 30171, Note_on_c, 4, 24, 0
6, 30186, Note_on_c, 4, 49, 88
6, 30246, Note_on_c, 4, 49, 0
6, 30246, Note_on_c, 4, 47, 89
6, 30306, Note_on_c, 4, 47, 0
6, 30306, Note_on_c, 4, 48, 89
6, 30366, Note_on_c, 4, 48, 0
6, 30426, Note_on_c, 4, 44, 90
6, 30486, Note_on_c, 4, 44, 0
6, 30486, Note_on_c, 4, 42, 90
6, 30546, Note_on_c, 4, 42, 0
6, 30546, Note_on_c, 4, 43, 90
6, 30606, Note_on_c, 4, 43, 0
6, 30666, Note_on_c, 4, 41, 91
6, 30726, Note_on_c, 4, 41, 0
6, 30726, Note_on_c, 4, 38, 91
6, 30786, Note_on_c, 4, 38, 0
6, 30786, Note_on_c, 4, 39, 91
6, 30846, Note_on_c, 4, 39, 0
6, 30846, Note_on_c, 4, 37, 92
6, 30906, Note_on_c, 4, 37, 0
6, 30906, Note_on_c, 4, 38, 92
6, 30966, Note_on_c, 4, 38, 0
6, 31026, Note_on_c, 4, 36, 92
6, 31086, Note_on_c, 4, 36, 0
6, 31086, Note_on_c, 4, 33, 93
6, 31146, Note_on_c, 4, 33, 0
6, 31146, Note_on_c, 4, 34, 93
6, 31206, Note_on_c, 4, 34, 0
6, 31206, Note_on_c, 4, 32, 93
6, 31266, Note_on_c, 4, 32, 0
6, 31266, Note_on_c, 4, 33, 94
6, 31326, Note_on_c, 4, 33, 0
6, 31326, Note_on_c, 4, 30, 94
6, 31386, Note_on_c, 4, 30, 0
6, 31386, Note_on_c, 4, 31, 94
6, 31446, Note_on_c, 4, 31, 0
6, 31626, Note_on_c, 4, 39, 95
6, 31686, Note_on_c, 4, 39, 0
6, 31686, Note_on_c, 4, 37, 96
6, 31746, Note_on_c, 4, 37, 0
6, 31746, Note_on_c, 4, 38, 96
6, 31806, Note_on_c, 4, 38, 0
6, 31866, Note_on_c, 4, 46, 97
6, 31926, Note_on_c, 4, 46, 0
6, 31926, Note_on_c, 4, 43, 97
6, 31986, Note_on_c, 4, 43, 0
6, 31986, Note_on_c, 4, 44, 97
6, 32046, Note_on_c, 4, 44, 0
6, 32046, Note_on_c, 4, 42, 97
6, 32106, Note_on_c, 4, 42, 0
6, 32106, Note_on_c, 4, 43, 98
6, 32166, Note_on_c, 4, 43, 0
6, 32166, Note_on_c, 4, 40, 98
6, 32226, Note_on_c, 4, 40, 0
6, 32226, Note_on_c, 4, 41, 98
6, 32286, Note_on_c, 4, 41, 0
6, 32286, Note_on_c, 4, 39, 99
6, 32346, Note_on_c, 4, 39, 0
6, 32346, Note_on_c, 4, 40, 99
6, 32406, Note_on_c, 4, 40, 0
6, 33006, Note_on_c, 4, 39, 85
6, 33096, Note_on_c, 4, 39, 0
6, 33126, Note_on_c, 4, 39, 81
6, 33216, Note_on_c, 4, 39, 0
6, 33246, Note_on_c, 4, 32, 77
6, 33336, Note_on_c, 4, 32, 0
6, 33366, Note_on_c, 4, 34, 73
6, 33396, Note_on_c, 4, 34, 0
6, 33396, Note_on_c, 4, 36, 72
6, 33426, Note_on_c, 4, 36, 0
6, 33426, Note_on_c, 4, 37, 71
6, 33456, Note_on_c, 4, 37, 0
6, 33456, Note_on_c, 4, 39, 70
6, 33486, Note_on_c, 4, 39, 0
6, 33486, Note_on_c, 4, 41, 70
6, 33576, Note_on_c, 4, 41, 0
6, 33606, Note_on_c, 4, 41, 70
6, 33696, Note_on_c, 4, 41, 0
6, 33726, Note_on_c, 4, 31, 70
6, 33816, Note_on_c, 4, 31, 0
6, 33966, Note_on_c, 4, 42, 70
6, 34056, Note_on_c, 4, 42, 0
6, 34086, Note_on_c, 4, 42, 70
6, 34176, Note_on_c, 4, 42, 0
6, 34206, Note_on_c, 4, 33, 71
6, 34296, Note_on_c, 4, 33, 0
6, 34746, Note_on_c, 4, 39, 80
6, 34791, Note_on_c, 4, 39, 0
6, 34806, Note_on_c, 4, 39, 81
6, 34851, Note_on_c, 4, 39, 0
6, 34866, Note_on_c, 4, 39, 82
6, 34911, Note_on_c, 4, 39, 0
6, 34926, Note_on_c, 4, 41, 83
6, 34941, Note_on_c, 4, 41, 0
6, 34941, Note_on_c, 4, 39, 83
6, 34956, Note_on_c, 4, 39, 0
6, 34956, Note_on_c, 4, 41, 83
6, 34971, Note_on_c, 4, 41, 0
6, 34971, Note_on_c, 4, 39, 84
6, 34986, Note_on_c, 4, 39, 0
6, 34986, Note_on_c, 4, 41, 84
6, 35001, Note_on_c, 4, 41, 0
6, 35001, Note_on_c, 4, 39, 84
6, 35016, Note_on_c, 4, 39, 0
6, 35016, Note_on_c, 4, 41, 84
6, 35031, Note_on_c, 4, 41, 0
6, 35031, Note_on_c, 4, 39, 85
6, 35046, Note_on_c, 4, 39, 0
6, 35046, Note_on_c, 4, 41, 85
6, 35061, Note_on_c, 4, 41, 0
6, 35061, Note_on_c, 4, 39, 85
6, 35076, Note_on_c, 4, 39, 0
6, 35076, Note_on_c, 4, 41, 85
6, 35091, Note_on_c, 4, 41, 0
6, 35091, Note_on_c, 4, 39, 86
6, 35106, Note_on_c, 4, 39, 0
6, 35106, Note_on_c, 4, 38, 86
6, 35136, Note_on_c, 4, 38, 0
6, 35136, Note_on_c, 4, 39, 86
6, 35166, Note_on_c, 4, 39, 0
6, 35166, Note_on_c, 4, 38, 87
6, 35211, Note_on_c, 4, 38, 0
6, 35226, Note_on_c, 4, 41, 88
6, 35271, Note_on_c, 4, 41, 0
6, 35286, Note_on_c, 4, 41, 89
6, 35331, Note_on_c, 4, 41, 0
6, 35346, Note_on_c, 4, 41, 90
6, 35391, Note_on_c, 4, 41, 0
6, 35406, Note_on_c, 4, 43, 91
6, 35421, Note_on_c, 4, 43, 0
6, 35421, Note_on_c, 4, 41, 91
6, 35436, Note_on_c, 4, 41, 0
6, 35436, Note_on_c, 4, 43, 91
6, 35451, Note_on_c, 4, 43, 0
6, 35451, Note_on_c, 4, 41, 92
6, 35466, Note_on_c, 4, 41, 0
6, 35466, Note_on_c, 4, 43, 92
6, 35481, Note_on_c, 4, 43, 0
6, 35481, Note_on_c, 4, 41, 92
6, 35496, Note_on_c, 4, 41, 0
6, 35496, Note_on_c, 4, 43, 92
6, 35511, Note_on_c, 4, 43, 0
6, 35511, Note_on_c, 4, 41, 93
6, 35526, Note_on_c, 4, 41, 0
6, 35526, Note_on_c, 4, 43, 93
6, 35541, Note_on_c, 4, 43, 0
6, 35541, Note_on_c, 4, 41, 93
6, 35556, Note_on_c, 4, 41, 0
6, 35556, Note_on_c, 4, 43, 93
6, 35571, Note_on_c, 4, 43, 0
6, 35571, Note_on_c, 4, 41, 94
6, 35586, Note_on_c, 4, 41, 0
6, 35586, Note_on_c, 4, 39, 94
6, 35616, Note_on_c, 4, 39, 0
6, 35616, Note_on_c, 4, 41, 95
6, 35646, Note_on_c, 4, 41, 0
6, 35646, Note_on_c, 4, 39, 100
6, 35706, Note_on_c, 4, 39, 0
6, 35706, Note_on_c, 4, 41, 100
6, 35766, Note_on_c, 4, 41, 0
6, 35766, Note_on_c, 4, 39, 100
6, 35826, Note_on_c, 4, 39, 0
6, 35826, Note_on_c, 4, 38, 100
6, 35886, Note_on_c, 4, 38, 0
6, 35886, Note_on_c, 4, 36, 100
6, 35931, Note_on_c, 4, 36, 0
6, 35946, Note_on_c, 4, 34, 100
6, 35991, Note_on_c, 4, 34, 0
6, 36006, Note_on_c, 4, 32, 100
6, 36126, Note_on_c, 4, 32, 0
6, 36126, Note_on_c, 4, 31, 100
6, 36246, Note_on_c, 4, 31, 0
6, 36366, Note_on_c, 4, 29, 100
6, 36481, Note_on_c, 4, 29, 0
6, 36486, Note_on_c, 4, 29, 100
6, 36661, Note_on_c, 4, 29, 0
6, 36666, Note_on_c, 4, 41, 100
6, 36726, Note_on_c, 4, 41, 0
6, 36726, Note_on_c, 4, 39, 100
6, 36786, Note_on_c, 4, 39, 0
6, 36786, Note_on_c, 4, 38, 100
6, 36846, Note_on_c, 4, 38, 0
6, 36846, Note_on_c, 4, 36, 100
6, 36966, Note_on_c, 4, 36, 0
6, 37326, Note_on_c, 4, 31, 85
6, 37416, Note_on_c, 4, 31, 0
6, 37446, Note_on_c, 4, 31, 78
6, 37536, Note_on_c, 4, 31, 0
6, 37566, Note_on_c, 4, 38, 70
6, 37656, Note_on_c, 4, 38, 0
6, 37686, Note_on_c, 4, 36, 70
6, 37716, Note_on_c, 4, 36, 0
6, 37716, Note_on_c, 4, 34, 70
6, 37746, Note_on_c, 4, 34, 0
6, 37746, Note_on_c, 4, 33, 70
6, 37776, Note_on_c, 4, 33, 0
6, 37776, Note_on_c, 4, 31, 70
6, 37806, Note_on_c, 4, 31, 0
6, 37806, Note_on_c, 4, 30, 70
6, 37896, Note_on_c, 4, 30, 0
6, 37926, Note_on_c, 4, 30, 70
6, 38016, Note_on_c, 4, 30, 0
6, 38046, Note_on_c, 4, 39, 70
6, 38136, Note_on_c, 4, 39, 0
6, 38226, Note_on_c, 4, 30, 70
6, 38286, Note_on_c, 4, 30, 0
6, 38286, Note_on_c, 4, 33, 70
6, 38346, Note_on_c, 4, 33, 0
6, 38346, Note_on_c, 4, 31, 70
6, 38406, Note_on_c, 4, 31, 0
6, 38406, Control_c, 4, 11, 85
6, 38447, Control_c, 4, 11, 86
6, 38466, Note_on_c, 4, 33, 70
6, 38489, Control_c, 4, 11, 87
6, 38526, Note_on_c, 4, 33, 0
6, 38526, Note_on_c, 4, 36, 70
6, 38531, Control_c, 4, 11, 88
6, 38573, Control_c, 4, 11, 89
6, 38586, Note_on_c, 4, 36, 0
6, 38586, Note_on_c, 4, 34, 70
6, 38615, Control_c, 4, 11, 90
6, 38646, Note_on_c, 4, 34, 0
6, 38646, Note_on_c, 4, 38, 70
6, 38657, Control_c, 4, 11, 91
6, 38699, Control_c, 4, 11, 92
6, 38706, Note_on_c, 4, 38, 0
6, 38706, Note_on_c, 4, 36, 70
6, 38741, Control_c, 4, 11, 93
6, 38766, Note_on_c, 4, 36, 0
6, 38766, Note_on_c, 4, 39, 70
6, 38783, Control_c, 4, 11, 94
6, 38825, Control_c, 4, 11, 95
6, 38826, Note_on_c, 4, 39, 0
6, 38826, Note_on_c, 4, 38, 70
6, 38867, Control_c, 4, 11, 96
6, 38886, Note_on_c, 4, 38, 0
6, 38909, Control_c, 4, 11, 97
6, 38951, Control_c, 4, 11, 98
6, 38993, Control_c, 4, 11, 99
6, 39035, Control_c, 4, 11, 100
6, 39077, Control_c, 4, 11, 101
6, 39119, Control_c, 4, 11, 102
6, 39161, Control_c, 4, 11, 103
6, 39203, Control_c, 4, 11, 104
6, 39245, Control_c, 4, 11, 105
6, 39966, Note_on_c, 4, 44, 60
6, 40056, Note_on_c, 4, 44, 0
6, 40086, Note_on_c, 4, 44, 60
6, 40176, Note_on_c, 4, 44, 0
6, 40206, Note_on_c, 4, 37, 60
6, 40296, Note_on_c, 4, 37, 0
6, 40326, Note_on_c, 4, 39, 62
6, 40356, Note_on_c, 4, 39, 0
6, 40356, Note_on_c, 4, 41, 63
6, 40386, Note_on_c, 4, 41, 0
6, 40386, Note_on_c, 4, 42, 63
6, 40416, Note_on_c, 4, 42, 0
6, 40416, Note_on_c, 4, 44, 64
6, 40446, Note_on_c, 4, 44, 0
6, 40446, Note_on_c, 4, 46, 65
6, 40536, Note_on_c, 4, 46, 0
6, 40566, Note_on_c, 4, 46, 67
6, 40656, Note_on_c, 4, 46, 0
6, 40686, Note_on_c, 4, 36, 70
6, 40776, Note_on_c, 4, 36, 0
6, 40806, Note_on_c, 4, 37, 72
6, 40836, Note_on_c, 4, 37, 0
6, 40836, Note_on_c, 4, 39, 73
6, 40866, Note_on_c, 4, 39, 0
6, 40866, Note_on_c, 4, 41, 73
6, 40896, Note_on_c, 4, 41, 0
6, 40896, Note_on_c, 4, 42, 74
6, 40926, Note_on_c, 4, 42, 0
6, 40926, Note_on_c, 4, 44, 75
6, 41016, Note_on_c, 4, 44, 0
6, 41046, Note_on_c, 4, 44, 77
6, 41136, Note_on_c, 4, 44, 0
6, 41166, Note_on_c, 4, 34, 80
6, 41256, Note_on_c, 4, 34, 0
6, 41286, Note_on_c, 4, 36, 82
6, 41316, Note_on_c, 4, 36, 0
6, 41316, Note_on_c, 4, 38, 83
6, 41346, Note_on_c, 4, 38, 0
6, 41346, Note_on_c, 4, 39, 83
6, 41376, Note_on_c, 4, 39, 0
6, 41376, Note_on_c, 4, 41, 84
6, 41406, Note_on_c, 4, 41, 0
6, 41406, Note_on_c, 4, 42, 85
6, 41526, Note_on_c, 4, 42, 0
6, 41526, Note_on_c, 4, 41, 87
6, 41646, Note_on_c, 4, 41, 0
6, 41646, Note_on_c, 4, 39, 90
6, 41736, Note_on_c, 4, 39, 0
6, 43326, Note_on_c, 4, 31, 80
6, 43326, Note_on_c, 4, 43, 80
6, 43416, Note_on_c, 4, 43, 0
6, 43416, Note_on_c, 4, 31, 0
6, 43446, Note_on_c, 4, 31, 90
6, 43446, Note_on_c, 4, 43, 90
6, 43536, Note_on_c, 4, 43, 0
6, 43536, Note_on_c, 4, 31, 0
6, 43566, Note_on_c, 4, 24, 100
6, 43566, Note_on_c, 4, 36, 100
6, 43656, Note_on_c, 4, 36, 0
6, 43656, Note_on_c, 4, 24, 0
6, 43686, Note_on_c, 4, 38, 100
6, 43716, Note_on_c, 4, 38, 0
6, 43716, Note_on_c, 4, 39, 100
6, 43746, Note_on_c, 4, 39, 0
6, 43746, Note_on_c, 4, 41, 100
6, 43776, Note_on_c, 4, 41, 0
6, 43776, Note_on_c, 4, 43, 100
6, 43806, Note_on_c, 4, 43, 0
6, 43806, Note_on_c, 4, 44, 100
6, 43896, Note_on_c, 4, 44, 0
6, 43926, Note_on_c, 4, 44, 100
6, 44016, Note_on_c, 4, 44, 0
6, 44046, Note_on_c, 4, 35, 100
6, 44166, Note_on_c, 4, 35, 0
6, 44226, Note_on_c, 4, 44, 100
6, 44286, Note_on_c, 4, 44, 0
6, 44286, Note_on_c, 4, 42, 100
6, 44346, Note_on_c, 4, 42, 0
6, 44346, Note_on_c, 4, 43, 100
6, 44406, Note_on_c, 4, 43, 0
6, 44466, Note_on_c, 4, 41, 100
6, 44526, Note_on_c, 4, 41, 0
6, 44526, Note_on_c, 4, 38, 100
6, 44586, Note_on_c, 4, 38, 0
6, 44586, Note_on_c, 4, 39, 100
6, 44646, Note_on_c, 4, 39, 0
6, 44646, Note_on_c, 4, 37, 100
6, 44706, Note_on_c, 4, 37, 0
6, 44706, Note_on_c, 4, 38, 100
6, 44766, Note_on_c, 4, 38, 0
6, 44766, Note_on_c, 4, 35, 100
6, 44826, Note_on_c, 4, 35, 0
6, 44826, Note_on_c, 4, 36, 100
6, 44886, Note_on_c, 4, 36, 0
6, 44886, Note_on_c, 4, 24, 100
6, 44946, Note_on_c, 4, 24, 0
6, 44946, Note_on_c, 4, 36, 100
6, 45006, Note_on_c, 4, 36, 0
6, 45006, Note_on_c, 4, 34, 85
6, 45096, Note_on_c, 4, 34, 0
6, 45126, Note_on_c, 4, 30, 85
6, 45216, Note_on_c, 4, 30, 0
6, 45246, Note_on_c, 4, 31, 86
6, 45336, Note_on_c, 4, 31, 0
6, 45366, Note_on_c, 4, 29, 87
6, 45456, Note_on_c, 4, 29, 0
6, 45486, Note_on_c, 4, 27, 88
6, 45531, Note_on_c, 4, 27, 0
6, 45546, Note_on_c, 4, 43, 89
6, 45591, Note_on_c, 4, 43, 0
6, 45606, Note_on_c, 4, 43, 89
6, 45651, Note_on_c, 4, 43, 0
6, 45666, Note_on_c, 4, 43, 89
6, 45711, Note_on_c, 4, 43, 0
6, 45726, Note_on_c, 4, 44, 90
6, 45741, Note_on_c, 4, 44, 0
6, 45741, Note_on_c, 4, 43, 90
6, 45756, Note_on_c, 4, 43, 0
6, 45756, Note_on_c, 4, 44, 90
6, 45771, Note_on_c, 4, 44, 0
6, 45771, Note_on_c, 4, 43, 90
6, 45786, Note_on_c, 4, 43, 0
6, 45786, Note_on_c, 4, 44, 90
6, 45801, Note_on_c, 4, 44, 0
6, 45801, Note_on_c, 4, 43, 90
6, 45816, Note_on_c, 4, 43, 0
6, 45816, Note_on_c, 4, 44, 91
6, 45831, Note_on_c, 4, 44, 0
6, 45831, Note_on_c, 4, 43, 91
6, 45846, Note_on_c, 4, 43, 0
6, 45846, Note_on_c, 4, 44, 91
6, 45861, Note_on_c, 4, 44, 0
6, 45861, Note_on_c, 4, 43, 91
6, 45876, Note_on_c, 4, 43, 0
6, 45876, Note_on_c, 4, 44, 91
6, 45891, Note_on_c, 4, 44, 0
6, 45891, Note_on_c, 4, 43, 91
6, 45906, Note_on_c, 4, 43, 0
6, 45906, Note_on_c, 4, 41, 91
6, 45936, Note_on_c, 4, 41, 0
6, 45936, Note_on_c, 4, 43, 91
6, 45966, Note_on_c, 4, 43, 0
6, 45966, Note_on_c, 4, 44, 92
6, 46086, Note_on_c, 4, 44, 0
6, 46086, Note_on_c, 4, 40, 93
6, 46206, Note_on_c, 4, 40, 0
6, 46206, Note_on_c, 4, 41, 93
6, 46356, Note_on_c, 4, 41, 0
6, 46356, Note_on_c, 4, 39, 95
6, 46386, Note_on_c, 4, 39, 0
6, 46386, Note_on_c, 4, 37, 95
6, 46416, Note_on_c, 4, 37, 0
6, 46416, Note_on_c, 4, 36, 95
6, 46446, Note_on_c, 4, 36, 0
6, 46446, Note_on_c, 4, 34, 95
6, 46566, Note_on_c, 4, 34, 0
6, 46986, Note_on_c, 4, 34, 99
6, 47031, Note_on_c, 4, 34, 0
6, 47046, Note_on_c, 4, 34, 100
6, 47091, Note_on_c, 4, 34, 0
6, 47106, Note_on_c, 4, 34, 100
6, 47151, Note_on_c, 4, 34, 0
6, 47166, Note_on_c, 4, 36, 101
6, 47181, Note_on_c, 4, 36, 0
6, 47181, Note_on_c, 4, 34, 101
6, 47196, Note_on_c, 4, 34, 0
6, 47196, Note_on_c, 4, 36, 101
6, 47211, Note_on_c, 4, 36, 0
6, 47211, Note_on_c, 4, 34, 101
6, 47226, Note_on_c, 4, 34, 0
6, 47226, Note_on_c, 4, 36, 101
6, 47241, Note_on_c, 4, 36, 0
6, 47241, Note_on_c, 4, 34, 101
6, 47256, Note_on_c, 4, 34, 0
6, 47256, Note_on_c, 4, 36, 101
6, 47271, Note_on_c, 4, 36, 0
6, 47271, Note_on_c, 4, 34, 101
6, 47286, Note_on_c, 4, 34, 0
6, 47286, Note_on_c, 4, 36, 101
6, 47301, Note_on_c, 4, 36, 0
6, 47301, Note_on_c, 4, 34, 102
6, 47316, Note_on_c, 4, 34, 0
6, 47316, Note_on_c, 4, 36, 102
6, 47331, Note_on_c, 4, 36, 0
6, 47331, Note_on_c, 4, 34, 102
6, 47346, Note_on_c, 4, 34, 0
6, 47346, Note_on_c, 4, 33, 102
6, 47376, Note_on_c, 4, 33, 0
6, 47376, Note_on_c, 4, 34, 102
6, 47406, Note_on_c, 4, 34, 0
6, 47406, Note_on_c, 4, 32, 102
6, 47526, Note_on_c, 4, 32, 0
6, 47526, Note_on_c, 4, 28, 103
6, 47646, Note_on_c, 4, 28, 0
6, 47646, Note_on_c, 4, 29, 104
6, 47766, Note_on_c, 4, 29, 0
6, 47766, Note_on_c, 4, 27, 105
6, 47886, Note_on_c, 4, 27, 0
6, 47886, Note_on_c, 4, 26, 106
6, 48006, Note_on_c, 4, 26, 0
6, 48126, Note_on_c, 4, 48, 108
6, 48186, Note_on_c, 4, 48, 0
6, 48216, Note_on_c, 4, 46, 108
6, 48246, Note_on_c, 4, 46, 0
6, 48246, Note_on_c, 4, 45, 109
6, 48276, Note_on_c, 4, 45, 0
6, 48276, Note_on_c, 4, 43, 109
6, 48306, Note_on_c, 4, 43, 0
6, 48306, Note_on_c, 4, 42, 109
6, 48336, Note_on_c, 4, 42, 0
6, 48336, Note_on_c, 4, 40, 109
6, 48366, Note_on_c, 4, 40, 0
6, 48366, Note_on_c, 4, 38, 110
6, 48486, Note_on_c, 4, 38, 0
6, 48606, Note_on_c, 4, 31, 109
6, 48606, Note_on_c, 4, 43, 109
6, 48696, Note_on_c, 4, 43, 0
6, 48696, Note_on_c, 4, 31, 0
6, 48726, Note_on_c, 4, 43, 107
6, 48816, Note_on_c, 4, 43, 0
6, 48846, Note_on_c, 4, 35, 106
6, 48906, Note_on_c, 4, 35, 0
6, 48936, Note_on_c, 4, 36, 105
6, 48966, Note_on_c, 4, 36, 0
6, 48966, Note_on_c, 4, 38, 105
6, 48996, Note_on_c, 4, 38, 0
6, 48996, Note_on_c, 4, 39, 104
6, 49026, Note_on_c, 4, 39, 0
6, 49026, Note_on_c, 4, 41, 104
6, 49056, Note_on_c, 4, 41, 0
6, 49056, Note_on_c, 4, 43, 104
6, 49086, Note_on_c, 4, 43, 0
6, 49086, Note_on_c, 4, 44, 103
6, 49206, Note_on_c, 4, 44, 0
6, 49206, Note_on_c, 4, 43, 102
6, 49266, Note_on_c, 4, 43, 0
6, 49266, Note_on_c, 4, 41, 101
6, 49326, Note_on_c, 4, 41, 0
6, 49326, Note_on_c, 4, 39, 100
6, 49446, Note_on_c, 4, 39, 0
6, 49446, Note_on_c, 4, 35, 100
6, 49566, Note_on_c, 4, 35, 0
6, 49566, Note_on_c, 4, 36, 100
6, 49686, Note_on_c, 4, 36, 0
6, 49686, Note_on_c, 4, 29, 100
6, 49806, Note_on_c, 4, 29, 0
6, 49806, Note_on_c, 4, 27, 100
6, 49926, Note_on_c, 4, 27, 0
6, 49986, Note_on_c, 4, 46, 100
6, 50046, Note_on_c, 4, 46, 0
6, 50046, Note_on_c, 4, 43, 100
6, 50106, Note_on_c, 4, 43, 0
6, 50106, Note_on_c, 4, 44, 100
6, 50166, Note_on_c, 4, 44, 0
6, 50166, Note_on_c, 4, 42, 100
6, 50226, Note_on_c, 4, 42, 0
6, 50226, Note_on_c, 4, 43, 100
6, 50286, Note_on_c, 4, 43, 0
6, 50286, Note_on_c, 4, 40, 100
6, 50346, Note_on_c, 4, 40, 0
6, 50346, Note_on_c, 4, 41, 94
6, 50391, Note_on_c, 4, 41, 0
6, 50406, Note_on_c, 4, 41, 87
6, 50451, Note_on_c, 4, 41, 0
6, 50466, Note_on_c, 4, 41, 80
6, 50511, Note_on_c, 4, 41, 0
6, 50526, Note_on_c, 4, 43, 80
6, 50541, Note_on_c, 4, 43, 0
6, 50541, Note_on_c, 4, 41, 81
6, 50556, Note_on_c, 4, 41, 0
6, 50556, Note_on_c, 4, 43, 81
6, 50571, Note_on_c, 4, 43, 0
6, 50571, Note_on_c, 4, 41, 81
6, 50586, Note_on_c, 4, 41, 0
6, 50586, Note_on_c, 4, 43, 81
6, 50601, Note_on_c, 4, 43, 0
6, 50601, Note_on_c, 4, 41, 82
6, 50616, Note_on_c, 4, 41, 0
6, 50616, Note_on_c, 4, 43, 82
6, 50631, Note_on_c, 4, 43, 0
6, 50631, Note_on_c, 4, 41, 82
6, 50646, Note_on_c, 4, 41, 0
6, 50646, Note_on_c, 4, 43, 82
6, 50661, Note_on_c, 4, 43, 0
6, 50661, Note_on_c, 4, 41, 82
6, 50676, Note_on_c, 4, 41, 0
6, 50676, Note_on_c, 4, 43, 83
6, 50691, Note_on_c, 4, 43, 0
6, 50691, Note_on_c, 4, 41, 83
6, 50706, Note_on_c, 4, 41, 0
6, 50706, Note_on_c, 4, 39, 83
6, 50736, Note_on_c, 4, 39, 0
6, 50736, Note_on_c, 4, 41, 84
6, 50766, Note_on_c, 4, 41, 0
6, 50766, Note_on_c, 4, 34, 84
6, 50886, Note_on_c, 4, 34, 0
6, 51306, Note_on_c, 4, 31, 92
6, 51351, Note_on_c, 4, 31, 0
6, 51366, Note_on_c, 4, 31, 93
6, 51411, Note_on_c, 4, 31, 0
6, 51426, Note_on_c, 4, 31, 94
6, 51471, Note_on_c, 4, 31, 0
6, 51486, Note_on_c, 4, 34, 95
6, 51501, Note_on_c, 4, 34, 0
6, 51501, Note_on_c, 4, 32, 95
6, 51516, Note_on_c, 4, 32, 0
6, 51516, Note_on_c, 4, 34, 95
6, 51531, Note_on_c, 4, 34, 0
6, 51531, Note_on_c, 4, 32, 95
6, 51546, Note_on_c, 4, 32, 0
6, 51546, Note_on_c, 4, 34, 96
6, 51561, Note_on_c, 4, 34, 0
6, 51561, Note_on_c, 4, 32, 96
6, 51576, Note_on_c, 4, 32, 0
6, 51576, Note_on_c, 4, 31, 96
6, 51591, Note_on_c, 4, 31, 0
6, 51591, Note_on_c, 4, 32, 96
6, 51606, Note_on_c, 4, 32, 0
6, 51606, Note_on_c, 4, 32, 96
6, 51621, Note_on_c, 4, 32, 0
6, 51621, Note_on_c, 4, 30, 97
6, 51636, Note_on_c, 4, 30, 0
6, 51636, Note_on_c, 4, 32, 97
6, 51651, Note_on_c, 4, 32, 0
6, 51651, Note_on_c, 4, 30, 97
6, 51666, Note_on_c, 4, 30, 0
6, 51666, Note_on_c, 4, 32, 97
6, 51681, Note_on_c, 4, 32, 0
6, 51681, Note_on_c, 4, 30, 98
6, 51696, Note_on_c, 4, 30, 0
6, 51696, Note_on_c, 4, 29, 98
6, 51711, Note_on_c, 4, 29, 0
6, 51711, Note_on_c, 4, 31, 98
6, 51726, Note_on_c, 4, 31, 0
6, 51726, Note_on_c, 4, 29, 98
6, 51771, Note_on_c, 4, 29, 0
6, 51786, Note_on_c, 4, 29, 99
6, 51831, Note_on_c, 4, 29, 0
6, 51846, Note_on_c, 4, 33, 100
6, 51891, Note_on_c, 4, 33, 0
6, 51906, Note_on_c, 4, 33, 101
6, 51951, Note_on_c, 4, 33, 0
6, 51966, Note_on_c, 4, 36, 102
6, 51981, Note_on_c, 4, 36, 0
6, 51981, Note_on_c, 4, 34, 102
6, 51996, Note_on_c, 4, 34, 0
6, 51996, Note_on_c, 4, 36, 102
6, 52011, Note_on_c, 4, 36, 0
6, 52011, Note_on_c, 4, 34, 102
6, 52026, Note_on_c, 4, 34, 0
6, 52026, Note_on_c, 4, 36, 103
6, 52041, Note_on_c, 4, 36, 0
6, 52041, Note_on_c, 4, 34, 103
6, 52056, Note_on_c, 4, 34, 0
6, 52056, Note_on_c, 4, 32, 103
6, 52071, Note_on_c, 4, 32, 0
6, 52071, Note_on_c, 4, 34, 103
6, 52086, Note_on_c, 4, 34, 0
6, 52086, Note_on_c, 4, 34, 104
6, 52101, Note_on_c, 4, 34, 0
6, 52101, Note_on_c, 4, 32, 104
6, 52116, Note_on_c, 4, 32, 0
6, 52116, Note_on_c, 4, 34, 104
6, 52131, Note_on_c, 4, 34, 0
6, 52131, Note_on_c, 4, 32, 104
6, 52146, Note_on_c, 4, 32, 0
6, 52146, Note_on_c, 4, 34, 104
6, 52161, Note_on_c, 4, 34, 0
6, 52161, Note_on_c, 4, 32, 105
6, 52176, Note_on_c, 4, 32, 0
6, 52176, Note_on_c, 4, 31, 105
6, 52191, Note_on_c, 4, 31, 0
6, 52191, Note_on_c, 4, 32, 105
6, 52206, Note_on_c, 4, 32, 0
6, 52206, Note_on_c, 4, 31, 105
6, 52251, Note_on_c, 4, 31, 0
6, 52266, Note_on_c, 4, 31, 106
6, 52311, Note_on_c, 4, 31, 0
6, 52326, Note_on_c, 4, 35, 107
6, 52371, Note_on_c, 4, 35, 0
6, 52386, Note_on_c, 4, 35, 108
6, 52431, Note_on_c, 4, 35, 0
6, 52446, Note_on_c, 4, 38, 109
6, 52461, Note_on_c, 4, 38, 0
6, 52461, Note_on_c, 4, 36, 109
6, 52476, Note_on_c, 4, 36, 0
6, 52476, Note_on_c, 4, 38, 109
6, 52491, Note_on_c, 4, 38, 0
6, 52491, Note_on_c, 4, 36, 110
6, 52506, Note_on_c, 4, 36, 0
6, 52506, Note_on_c, 4, 38, 110
6, 52521, Note_on_c, 4, 38, 0
6, 52521, Note_on_c, 4, 36, 110
6, 52536, Note_on_c, 4, 36, 0
6, 52536, Note_on_c, 4, 35, 110
6, 52551, Note_on_c, 4, 35, 0
6, 52551, Note_on_c, 4, 36, 110
6, 52566, Note_on_c, 4, 36, 0
6, 52566, Note_on_c, 4, 36, 111
6, 52581, Note_on_c, 4, 36, 0
6, 52581, Note_on_c, 4, 34, 111
6, 52596, Note_on_c, 4, 34, 0
6, 52596, Note_on_c, 4, 36, 111
6, 52611, Note_on_c, 4, 36, 0
6, 52611, Note_on_c, 4, 34, 111
6, 52626, Note_on_c, 4, 34, 0
6, 52626, Note_on_c, 4, 36, 112
6, 52641, Note_on_c, 4, 36, 0
6, 52641, Note_on_c, 4, 34, 112
6, 52656, Note_on_c, 4, 34, 0
6, 52656, Note_on_c, 4, 33, 112
6, 52671, Note_on_c, 4, 33, 0
6, 52671, Note_on_c, 4, 34, 112
6, 52686, Note_on_c, 4, 34, 0
6, 52686, Note_on_c, 4, 33, 112
6, 53046, Note_on_c, 4, 33, 0
6, 53046, Note_on_c, 4, 32, 118
6, 53166, Note_on_c, 4, 32, 0
6, 53166, Note_on_c, 4, 31, 120
6, 53211, Note_on_c, 4, 31, 0
6, 53226, Note_on_c, 4, 43, 100
6, 53286, Note_on_c, 4, 43, 0
6, 53286, Note_on_c, 4, 41, 102
6, 53346, Note_on_c, 4, 41, 0
6, 53346, Note_on_c, 4, 38, 105
6, 53401, Note_on_c, 4, 38, 0
6, 53406, Note_on_c, 4, 41, 108
6, 53421, Note_on_c, 4, 41, 0
6, 53421, Note_on_c, 4, 39, 109
6, 53436, Note_on_c, 4, 39, 0
6, 53436, Note_on_c, 4, 41, 110
6, 53451, Note_on_c, 4, 41, 0
6, 53451, Note_on_c, 4, 39, 110
6, 53466, Note_on_c, 4, 39, 0
6, 53466, Note_on_c, 4, 41, 111
6, 53481, Note_on_c, 4, 41, 0
6, 53481, Note_on_c, 4, 39, 112
6, 53496, Note_on_c, 4, 39, 0
6, 53496, Note_on_c, 4, 38, 112
6, 53511, Note_on_c, 4, 38, 0
6, 53511, Note_on_c, 4, 36, 113
6, 53521, Note_on_c, 4, 36, 0
6, 53526, Note_on_c, 4, 36, 114
6, 53541, Note_on_c, 4, 36, 0
6, 53541, Note_on_c, 4, 35, 115
6, 53556, Note_on_c, 4, 35, 0
6, 53556, Note_on_c, 4, 36, 115
6, 53571, Note_on_c, 4, 36, 0
6, 53571, Note_on_c, 4, 35, 116
6, 53586, Note_on_c, 4, 35, 0
6, 53586, Note_on_c, 4, 36, 117
6, 53601, Note_on_c, 4, 36, 0
6, 53601, Note_on_c, 4, 35, 117
6, 53616, Note_on_c, 4, 35, 0
6, 53616, Note_on_c, 4, 33, 118
6, 53631, Note_on_c, 4, 33, 0
6, 53631, Note_on_c, 4, 31, 119
6, 53641, Note_on_c, 4, 31, 0
6, 53646, Note_on_c, 4, 36, 120
6, 53766, Note_on_c, 4, 36, 0
6, 53886, Note_on_c, 4, 39, 120
6, 54006, Note_on_c, 4, 39, 0
6, 54186, Note_on_c, 4, 41, 120
6, 54231, Note_on_c, 4, 41, 0
6, 54246, Note_on_c, 4, 41, 120
6, 54291, Note_on_c, 4, 41, 0
6, 54306, Note_on_c, 4, 41, 120
6, 54351, Note_on_c, 4, 41, 0
6, 54366, Note_on_c, 4, 43, 120
6, 54381, Note_on_c, 4, 43, 0
6, 54381, Note_on_c, 4, 41, 120
6, 54396, Note_on_c, 4, 41, 0
6, 54396, Note_on_c, 4, 43, 120
6, 54411, Note_on_c, 4, 43, 0
6, 54411, Note_on_c, 4, 41, 120
6, 54426, Note_on_c, 4, 41, 0
6, 54426, Note_on_c, 4, 43, 120
6, 54441, Note_on_c, 4, 43, 0
6, 54441, Note_on_c, 4, 41, 120
6, 54456, Note_on_c, 4, 41, 0
6, 54456, Note_on_c, 4, 43, 120
6, 54471, Note_on_c, 4, 43, 0
6, 54471, Note_on_c, 4, 41, 120
6, 54486, Note_on_c, 4, 41, 0
6, 54486, Note_on_c, 4, 43, 120
6, 54501, Note_on_c, 4, 43, 0
6, 54501, Note_on_c, 4, 41, 120
6, 54516, Note_on_c, 4, 41, 0
6, 54516, Note_on_c, 4, 43, 120
6, 54531, Note_on_c, 4, 43, 0
6, 54531, Note_on_c, 4, 41, 120
6, 54546, Note_on_c, 4, 41, 0
6, 54546, Note_on_c, 4, 39, 120
6, 54576, Note_on_c, 4, 39, 0
6, 54576, Note_on_c, 4, 41, 120
6, 54606, Note_on_c, 4, 41, 0
6, 54606, Note_on_c, 4, 39, 120
6, 54726, Note_on_c, 4, 39, 0
6, 55146, Note_on_c, 4, 36, 107
6, 55191, Note_on_c, 4, 36, 0
6, 55206, Note_on_c, 4, 36, 104
6, 55251, Note_on_c, 4, 36, 0
6, 55266, Note_on_c, 4, 36, 102
6, 55311, Note_on_c, 4, 36, 0
6, 55326, Note_on_c, 4, 38, 100
6, 55341, Note_on_c, 4, 38, 0
6, 55341, Note_on_c, 4, 36, 99
6, 55356, Note_on_c, 4, 36, 0
6, 55356, Note_on_c, 4, 38, 99
6, 55371, Note_on_c, 4, 38, 0
6, 55371, Note_on_c, 4, 36, 98
6, 55386, Note_on_c, 4, 36, 0
6, 55386, Note_on_c, 4, 38, 97
6, 55401, Note_on_c, 4, 38, 0
6, 55401, Note_on_c, 4, 36, 97
6, 55416, Note_on_c, 4, 36, 0
6, 55416, Note_on_c, 4, 38, 96
6, 55431, Note_on_c, 4, 38, 0
6, 55431, Note_on_c, 4, 36, 96
6, 55446, Note_on_c, 4, 36, 0
6, 55446, Note_on_c, 4, 38, 95
6, 55461, Note_on_c, 4, 38, 0
6, 55461, Note_on_c, 4, 36, 95
6, 55476, Note_on_c, 4, 36, 0
6, 55476, Note_on_c, 4, 38, 94
6, 55491, Note_on_c, 4, 38, 0
6, 55491, Note_on_c, 4, 36, 93
6, 55506, Note_on_c, 4, 36, 0
6, 55506, Note_on_c, 4, 34, 93
6, 55536, Note_on_c, 4, 34, 0
6, 55536, Note_on_c, 4, 36, 92
6, 55566, Note_on_c, 4, 36, 0
6, 55566, Note_on_c, 4, 29, 90
6, 55656, Note_on_c, 4, 29, 0
6, 55686, Note_on_c, 4, 29, 90
6, 55776, Note_on_c, 4, 29, 0
6, 55806, Note_on_c, 4, 36, 91
6, 55896, Note_on_c, 4, 36, 0
6, 55926, Note_on_c, 4, 34, 92
6, 55956, Note_on_c, 4, 34, 0
6, 55956, Note_on_c, 4, 32, 93
6, 55986, Note_on_c, 4, 32, 0
6, 55986, Note_on_c, 4, 31, 93
6, 56016, Note_on_c, 4, 31, 0
6, 56016, Note_on_c, 4, 29, 93
6, 56046, Note_on_c, 4, 29, 0
6, 56046, Note_on_c, 4, 28, 94
6, 56136, Note_on_c, 4, 28, 0
6, 56166, Note_on_c, 4, 28, 95
6, 56256, Note_on_c, 4, 28, 0
6, 56286, Note_on_c, 4, 37, 96
6, 56466, Note_on_c, 4, 37, 0
6, 56466, Note_on_c, 4, 36, 99
6, 56496, Note_on_c, 4, 36, 0
6, 56496, Note_on_c, 4, 34, 99
6, 56526, Note_on_c, 4, 34, 0
6, 56526, Note_on_c, 4, 32, 99
6, 56766, Note_on_c, 4, 32, 0
6, 56766, Note_on_c, 4, 37, 102
6, 57006, Note_on_c, 4, 37, 0
6, 57006, Note_on_c, 4, 31, 105
6, 57051, Note_on_c, 4, 31, 0
6, 57066, Note_on_c, 4, 31, 106
6, 57111, Note_on_c, 4, 31, 0
6, 57126, Note_on_c, 4, 31, 106
6, 57171, Note_on_c, 4, 31, 0
6, 57186, Note_on_c, 4, 31, 107
6, 57231, Note_on_c, 4, 31, 0
6, 57246, Note_on_c, 4, 32, 108
6, 57261, Note_on_c, 4, 32, 0
6, 57261, Note_on_c, 4, 31, 108
6, 57276, Note_on_c, 4, 31, 0
6, 57276, Note_on_c, 4, 32, 108
6, 57291, Note_on_c, 4, 32, 0
6, 57291, Note_on_c, 4, 31, 108
6, 57306, Note_on_c, 4, 31, 0
6, 57306, Note_on_c, 4, 32, 108
6, 57321, Note_on_c, 4, 32, 0
6, 57321, Note_on_c, 4, 31, 109
6, 57336, Note_on_c, 4, 31, 0
6, 57336, Note_on_c, 4, 32, 109
6, 57351, Note_on_c, 4, 32, 0
6, 57351, Note_on_c, 4, 31, 109
6, 57366, Note_on_c, 4, 31, 0
6, 57366, Note_on_c, 4, 32, 109
6, 57381, Note_on_c, 4, 32, 0
6, 57381, Note_on_c, 4, 31, 109
6, 57396, Note_on_c, 4, 31, 0
6, 57396, Note_on_c, 4, 32, 109
6, 57411, Note_on_c, 4, 32, 0
6, 57411, Note_on_c, 4, 31, 110
6, 57426, Note_on_c, 4, 31, 0
6, 57426, Note_on_c, 4, 29, 110
6, 57456, Note_on_c, 4, 29, 0
6, 57456, Note_on_c, 4, 31, 110
6, 57486, Note_on_c, 4, 31, 0
6, 57486, Note_on_c, 4, 32, 110
6, 57546, Note_on_c, 4, 32, 0
6, 57546, Note_on_c, 4, 32, 111
6, 57591, Note_on_c, 4, 32, 0
6, 57606, Note_on_c, 4, 34, 100
6, 57621, Note_on_c, 4, 34, 0
6, 57621, Note_on_c, 4, 33, 112
6, 57636, Note_on_c, 4, 33, 0
6, 57636, Note_on_c, 4, 34, 112
6, 57651, Note_on_c, 4, 34, 0
6, 57651, Note_on_c, 4, 33, 112
6, 57666, Note_on_c, 4, 33, 0
6, 57666, Note_on_c, 4, 34, 113
6, 57681, Note_on_c, 4, 34, 0
6, 57681, Note_on_c, 4, 33, 113
6, 57696, Note_on_c, 4, 33, 0
6, 57696, Note_on_c, 4, 31, 113
6, 57711, Note_on_c, 4, 31, 0
6, 57711, Note_on_c, 4, 33, 113
6, 57726, Note_on_c, 4, 33, 0
6, 57726, Note_on_c, 4, 34, 113
6, 57786, Note_on_c, 4, 34, 0
6, 57786, Note_on_c, 4, 34, 114
6, 57831, Note_on_c, 4, 34, 0
6, 57846, Note_on_c, 4, 36, 115
6, 57861, Note_on_c, 4, 36, 0
6, 57861, Note_on_c, 4, 35, 115
6, 57876, Note_on_c, 4, 35, 0
6, 57876, Note_on_c, 4, 36, 115
6, 57891, Note_on_c, 4, 36, 0
6, 57891, Note_on_c, 4, 35, 115
6, 57906, Note_on_c, 4, 35, 0
6, 57906, Note_on_c, 4, 36, 115
6, 57921, Note_on_c, 4, 36, 0
6, 57921, Note_on_c, 4, 35, 115
6, 57936, Note_on_c, 4, 35, 0
6, 57936, Note_on_c, 4, 33, 116
6, 57951, Note_on_c, 4, 33, 0
6, 57951, Note_on_c, 4, 34, 116
6, 57966, Note_on_c, 4, 34, 0
6, 57966, Note_on_c, 4, 38, 116
6, 57981, Note_on_c, 4, 38, 0
6, 57981, Note_on_c, 4, 36, 116
6, 57996, Note_on_c, 4, 36, 0
6, 57996, Note_on_c, 4, 38, 116
6, 58011, Note_on_c, 4, 38, 0
6, 58011, Note_on_c, 4, 36, 117
6, 58026, Note_on_c, 4, 36, 0
6, 58026, Note_on_c, 4, 38, 117
6, 58041, Note_on_c, 4, 38, 0
6, 58041, Note_on_c, 4, 36, 117
6, 58056, Note_on_c, 4, 36, 0
6, 58056, Note_on_c, 4, 35, 117
6, 58071, Note_on_c, 4, 35, 0
6, 58071, Note_on_c, 4, 36, 117
6, 58086, Note_on_c, 4, 36, 0
6, 58086, Note_on_c, 4, 38, 117
6, 58101, Note_on_c, 4, 38, 0
6, 58101, Note_on_c, 4, 37, 118
6, 58116, Note_on_c, 4, 37, 0
6, 58116, Note_on_c, 4, 38, 118
6, 58131, Note_on_c, 4, 38, 0
6, 58131, Note_on_c, 4, 37, 118
6, 58146, Note_on_c, 4, 37, 0
6, 58146, Note_on_c, 4, 38, 118
6, 58161, Note_on_c, 4, 38, 0
6, 58161, Note_on_c, 4, 37, 118
6, 58176, Note_on_c, 4, 37, 0
6, 58176, Note_on_c, 4, 35, 118
6, 58191, Note_on_c, 4, 35, 0
6, 58191, Note_on_c, 4, 37, 119
6, 58206, Note_on_c, 4, 37, 0
6, 58206, Note_on_c, 4, 38, 119
6, 58296, Note_on_c, 4, 38, 0
6, 59166, Note_on_c, 4, 38, 92
6, 59256, Note_on_c, 4, 38, 0
6, 59286, Note_on_c, 4, 38, 94
6, 59376, Note_on_c, 4, 38, 0
6, 59406, Note_on_c, 4, 31, 96
6, 59496, Note_on_c, 4, 31, 0
6, 59526, Note_on_c, 4, 33, 98
6, 59556, Note_on_c, 4, 33, 0
6, 59556, Note_on_c, 4, 34, 99
6, 59586, Note_on_c, 4, 34, 0
6, 59586, Note_on_c, 4, 36, 99
6, 59616, Note_on_c, 4, 36, 0
6, 59616, Note_on_c, 4, 38, 100
6, 59646, Note_on_c, 4, 38, 0
6, 59646, Note_on_c, 4, 39, 100
6, 59736, Note_on_c, 4, 39, 0
6, 59766, Note_on_c, 4, 39, 102
6, 59856, Note_on_c, 4, 39, 0
6, 59886, Note_on_c, 4, 30, 105
6, 59976, Note_on_c, 4, 30, 0
6, 60066, Note_on_c, 4, 39, 105
6, 60126, Note_on_c, 4, 39, 0
6, 60126, Note_on_c, 4, 37, 105
6, 60186, Note_on_c, 4, 37, 0
6, 60186, Note_on_c, 4, 38, 105
6, 60246, Note_on_c, 4, 38, 0
6, 60366, Note_on_c, 4, 36, 105
6, 60456, Note_on_c, 4, 36, 0
6, 60486, Note_on_c, 4, 36, 105
6, 60576, Note_on_c, 4, 36, 0
6, 60606, Note_on_c, 4, 43, 105
6, 60696, Note_on_c, 4, 43, 0
6, 60726, Note_on_c, 4, 41, 105
6, 60756, Note_on_c, 4, 41, 0
6, 60756, Note_on_c, 4, 39, 105
6, 60786, Note_on_c, 4, 39, 0
6, 60786, Note_on_c, 4, 38, 105
6, 60816, Note_on_c, 4, 38, 0
6, 60816, Note_on_c, 4, 36, 105
6, 60846, Note_on_c, 4, 36, 0
6, 60846, Note_on_c, 4, 35, 105
6, 60936, Note_on_c, 4, 35, 0
6, 60966, Note_on_c, 4, 35, 105
6, 61056, Note_on_c, 4, 35, 0
6, 61086, Note_on_c, 4, 44, 105
6, 61176, Note_on_c, 4, 44, 0
6, 61266, Note_on_c, 4, 35, 105
6, 61326, Note_on_c, 4, 35, 0
6, 61326, Note_on_c, 4, 38, 105
6, 61386, Note_on_c, 4, 38, 0
6, 61386, Note_on_c, 4, 36, 105
6, 61446, Note_on_c, 4, 36, 0
6, 61506, Note_on_c, 4, 38, 105
6, 61566, Note_on_c, 4, 38, 0
6, 61566, Note_on_c, 4, 41, 105
6, 61626, Note_on_c, 4, 41, 0
6, 61626, Note_on_c, 4, 39, 105
6, 61686, Note_on_c, 4, 39, 0
6, 61746, Note_on_c, 4, 41, 105
6, 61806, Note_on_c, 4, 41, 0
6, 61806, Note_on_c, 4, 44, 105
6, 61866, Note_on_c, 4, 44, 0
6, 61866, Note_on_c, 4, 43, 105
6, 61926, Note_on_c, 4, 43, 0
6, 62286, Note_on_c, 4, 31, 90
6, 62286, Note_on_c, 4, 43, 90
6, 62376, Note_on_c, 4, 43, 0
6, 62376, Note_on_c, 4, 31, 0
6, 62406, Note_on_c, 4, 31, 92
6, 62406, Note_on_c, 4, 43, 92
6, 62496, Note_on_c, 4, 43, 0
6, 62496, Note_on_c, 4, 31, 0
6, 62526, Note_on_c, 4, 24, 95
6, 62526, Note_on_c, 4, 36, 95
6, 62616, Note_on_c, 4, 36, 0
6, 62616, Note_on_c, 4, 24, 0
6, 62646, Note_on_c, 4, 38, 97
6, 62676, Note_on_c, 4, 38, 0
6, 62676, Note_on_c, 4, 39, 98
6, 62706, Note_on_c, 4, 39, 0
6, 62706, Note_on_c, 4, 41, 98
6, 62736, Note_on_c, 4, 41, 0
6, 62736, Note_on_c, 4, 43, 99
6, 62766, Note_on_c, 4, 43, 0
6, 62766, Note_on_c, 4, 44, 100
6, 62856, Note_on_c, 4, 44, 0
6, 62886, Note_on_c, 4, 44, 100
6, 62976, Note_on_c, 4, 44, 0
6, 63006, Note_on_c, 4, 35, 100
6, 63096, Note_on_c, 4, 35, 0
6, 63186, Note_on_c, 4, 44, 100
6, 63246, Note_on_c, 4, 44, 0
6, 63246, Note_on_c, 4, 42, 100
6, 63306, Note_on_c, 4, 42, 0
6, 63306, Note_on_c, 4, 43, 100
6, 63366, Note_on_c, 4, 43, 0
6, 63426, Note_on_c, 4, 41, 100
6, 63486, Note_on_c, 4, 41, 0
6, 63486, Note_on_c, 4, 38, 100
6, 63546, Note_on_c, 4, 38, 0
6, 63546, Note_on_c, 4, 39, 100
6, 63606, Note_on_c, 4, 39, 0
6, 63606, Note_on_c, 4, 37, 100
6, 63666, Note_on_c, 4, 37, 0
6, 63666, Note_on_c, 4, 38, 100
6, 63726, Note_on_c, 4, 38, 0
6, 63726, Note_on_c, 4, 35, 100
6, 63786, Note_on_c, 4, 35, 0
6, 63786, Note_on_c, 4, 36, 100
6, 63831, Note_on_c, 4, 36, 0
6, 63846, Note_on_c, 4, 36, 100
6, 63891, Note_on_c, 4, 36, 0
6, 63906, Note_on_c, 4, 36, 100
6, 63951, Note_on_c, 4, 36, 0
6, 63966, Note_on_c, 4, 39, 100
6, 63981, Note_on_c, 4, 39, 0
6, 63981, Note_on_c, 4, 38, 100
6, 63996, Note_on_c, 4, 38, 0
6, 63996, Note_on_c, 4, 39, 100
6, 64011, Note_on_c, 4, 39, 0
6, 64011, Note_on_c, 4, 38, 100
6, 64026, Note_on_c, 4, 38, 0
6, 64026, Note_on_c, 4, 39, 100
6, 64041, Note_on_c, 4, 39, 0
6, 64041, Note_on_c, 4, 38, 100
6, 64056, Note_on_c, 4, 38, 0
6, 64056, Note_on_c, 4, 39, 100
6, 64071, Note_on_c, 4, 39, 0
6, 64071, Note_on_c, 4, 38, 100
6, 64086, Note_on_c, 4, 38, 0
6, 64086, Note_on_c, 4, 39, 100
6, 64101, Note_on_c, 4, 39, 0
6, 64101, Note_on_c, 4, 38, 100
6, 64116, Note_on_c, 4, 38, 0
6, 64116, Note_on_c, 4, 39, 100
6, 64131, Note_on_c, 4, 39, 0
6, 64131, Note_on_c, 4, 38, 100
6, 64146, Note_on_c, 4, 38, 0
6, 64146, Note_on_c, 4, 37, 100
6, 64176, Note_on_c, 4, 37, 0
6, 64176, Note_on_c, 4, 38, 100
6, 64206, Note_on_c, 4, 38, 0
6, 64206, Note_on_c, 4, 31, 100
6, 64326, Note_on_c, 4, 31, 0
6, 64926, Note_on_c, 4, 24, 85
6, 64926, Note_on_c, 4, 36, 85
6, 65016, Note_on_c, 4, 36, 0
6, 65016, Note_on_c, 4, 24, 0
6, 65046, Note_on_c, 4, 24, 87
6, 65046, Note_on_c, 4, 36, 87
6, 65136, Note_on_c, 4, 36, 0
6, 65136, Note_on_c, 4, 24, 0
6, 65166, Note_on_c, 4, 31, 90
6, 65166, Note_on_c, 4, 43, 90
6, 65256, Note_on_c, 4, 43, 0
6, 65256, Note_on_c, 4, 31, 0
6, 65286, Note_on_c, 4, 41, 92
6, 65316, Note_on_c, 4, 41, 0
6, 65316, Note_on_c, 4, 39, 93
6, 65346, Note_on_c, 4, 39, 0
6, 65346, Note_on_c, 4, 38, 93
6, 65376, Note_on_c, 4, 38, 0
6, 65376, Note_on_c, 4, 36, 94
6, 65406, Note_on_c, 4, 36, 0
6, 65406, Note_on_c, 4, 35, 95
6, 65496, Note_on_c, 4, 35, 0
6, 65526, Note_on_c, 4, 35, 97
6, 65616, Note_on_c, 4, 35, 0
6, 65646, Note_on_c, 4, 44, 100
6, 65736, Note_on_c, 4, 44, 0
6, 65826, Note_on_c, 4, 35, 100
6, 65886, Note_on_c, 4, 35, 0
6, 65886, Note_on_c, 4, 37, 100
6, 65946, Note_on_c, 4, 37, 0
6, 65946, Note_on_c, 4, 36, 100
6, 66006, Note_on_c, 4, 36, 0
6, 66006, Note_on_c, 4, 36, 100
6, 66186, Note_on_c, 4, 36, 0
6, 66186, Note_on_c, 4, 34, 100
6, 66206, Note_on_c, 4, 34, 0
6, 66216, Note_on_c, 4, 36, 100
6, 66236, Note_on_c, 4, 36, 0
6, 66246, Note_on_c, 4, 37, 100
6, 66266, Note_on_c, 4, 37, 0
6, 66276, Note_on_c, 4, 36, 100
6, 66296, Note_on_c, 4, 36, 0
6, 66306, Note_on_c, 4, 34, 100
6, 66326, Note_on_c, 4, 34, 0
6, 66336, Note_on_c, 4, 32, 100
6, 66356, Note_on_c, 4, 32, 0
6, 66366, Note_on_c, 4, 31, 100
6, 66411, Note_on_c, 4, 31, 0
6, 66426, Note_on_c, 4, 31, 100
6, 66446, Note_on_c, 4, 31, 0
6, 66456, Note_on_c, 4, 32, 100
6, 66476, Note_on_c, 4, 32, 0
6, 66486, Note_on_c, 4, 34, 100
6, 66506, Note_on_c, 4, 34, 0
6, 66516, Note_on_c, 4, 32, 100
6, 66536, Note_on_c, 4, 32, 0
6, 66546, Note_on_c, 4, 31, 100
6, 66566, Note_on_c, 4, 31, 0
6, 66576, Note_on_c, 4, 29, 100
6, 66596, Note_on_c, 4, 29, 0
6, 66606, Note_on_c, 4, 28, 100
6, 66696, Note_on_c, 4, 28, 0
6, 66726, Note_on_c, 4, 28, 100
6, 66816, Note_on_c, 4, 28, 0
6, 66846, Note_on_c, 4, 37, 100
6, 66936, Note_on_c, 4, 37, 0
6, 67086, Note_on_c, 4, 30, 100
6, 67176, Note_on_c, 4, 30, 0
6, 67206, Note_on_c, 4, 30, 100
6, 67296, Note_on_c, 4, 30, 0
6, 67326, Note_on_c, 4, 39, 100
6, 67416, Note_on_c, 4, 39, 0
6, 67566, Note_on_c, 4, 35, 100
6, 67656, Note_on_c, 4, 35, 0
6, 67686, Note_on_c, 4, 35, 100
6, 67776, Note_on_c, 4, 35, 0
6, 67806, Note_on_c, 4, 44, 100
6, 67896, Note_on_c, 4, 44, 0
6, 68766, Note_on_c, 4, 43, 100
6, 68766, Note_on_c, 4, 31, 100
6, 68856, Note_on_c, 4, 31, 0
6, 68856, Note_on_c, 4, 43, 0
6, 68886, Note_on_c, 4, 43, 100
6, 68886, Note_on_c, 4, 31, 100
6, 68976, Note_on_c, 4, 31, 0
6, 68976, Note_on_c, 4, 43, 0
6, 69006, Note_on_c, 4, 24, 100
6, 69006, Note_on_c, 4, 36, 100
6, 69096, Note_on_c, 4, 36, 0
6, 69096, Note_on_c, 4, 24, 0
6, 69126, Note_on_c, 4, 38, 100
6, 69156, Note_on_c, 4, 38, 0
6, 69156, Note_on_c, 4, 39, 100
6, 69186, Note_on_c, 4, 39, 0
6, 69186, Note_on_c, 4, 41, 100
6, 69216, Note_on_c, 4, 41, 0
6, 69216, Note_on_c, 4, 43, 100
6, 69246, Note_on_c, 4, 43, 0
6, 69246, Note_on_c, 4, 44, 100
6, 69336, Note_on_c, 4, 44, 0
6, 69366, Note_on_c, 4, 44, 100
6, 69456, Note_on_c, 4, 44, 0
6, 69486, Note_on_c, 4, 35, 100
6, 69576, Note_on_c, 4, 35, 0
6, 69606, Note_on_c, 4, 36, 100
6, 69696, Note_on_c, 4, 36, 0
6, 69726, Note_on_c, 4, 43, 100
6, 69726, Note_on_c, 4, 31, 100
6, 69816, Note_on_c, 4, 31, 0
6, 69816, Note_on_c, 4, 43, 0
6, 69846, Note_on_c, 4, 43, 100
6, 69846, Note_on_c, 4, 31, 100
6, 69936, Note_on_c, 4, 31, 0
6, 69936, Note_on_c, 4, 43, 0
6, 69966, Note_on_c, 4, 24, 100
6, 69966, Note_on_c, 4, 36, 100
6, 70056, Note_on_c, 4, 36, 0
6, 70056, Note_on_c, 4, 24, 0
6, 70086, Note_on_c, 4, 38, 100
6, 70116, Note_on_c, 4, 38, 0
6, 70116, Note_on_c, 4, 39, 100
6, 70146, Note_on_c, 4, 39, 0
6, 70146, Note_on_c, 4, 41, 100
6, 70176, Note_on_c, 4, 41, 0
6, 70176, Note_on_c, 4, 43, 100
6, 70206, Note_on_c, 4, 43, 0
6, 70206, Note_on_c, 4, 44, 100
6, 70296, Note_on_c, 4, 44, 0
6, 70326, Note_on_c, 4, 44, 100
6, 70416, Note_on_c, 4, 44, 0
6, 70446, Note_on_c, 4, 35, 100
6, 70536, Note_on_c, 4, 35, 0
6, 70626, Note_on_c, 4, 44, 100
6, 70686, Note_on_c, 4, 44, 0
6, 70686, Note_on_c, 4, 42, 100
6, 70746, Note_on_c, 4, 42, 0
6, 70746, Note_on_c, 4, 43, 100
6, 70806, Note_on_c, 4, 43, 0
6, 70806, Note_on_c, 4, 40, 100
6, 70866, Note_on_c, 4, 40, 0
6, 70866, Note_on_c, 4, 41, 100
6, 70921, Note_on_c, 4, 41, 0
6, 70926, Note_on_c, 4, 38, 100
6, 70986, Note_on_c, 4, 38, 0
6, 70986, Note_on_c, 4, 39, 100
6, 71046, Note_on_c, 4, 39, 0
6, 71046, Note_on_c, 4, 41, 100
6, 71091, Note_on_c, 4, 41, 0
6, 71106, Note_on_c, 4, 38, 100
6, 71151, Note_on_c, 4, 38, 0
6, 71166, Note_on_c, 4, 43, 100
6, 71256, Note_on_c, 4, 43, 0
6, 71286, Note_on_c, 4, 31, 100
6, 71376, Note_on_c, 4, 31, 0
6, 71406, Note_on_c, 4, 36, 100
6, 71496, Note_on_c, 4, 36, 0
6, 71526, Note_on_c, 4, 36, 100
6, 71616, Note_on_c, 4, 36, 0
6, 71646, Note_on_c, 4, 36, 100
6, 71736, Note_on_c, 4, 36, 0
6, 71766, Note_on_c, 4, 36, 100
6, 71856, Note_on_c, 4, 36, 0
6, 71886, Note_on_c, 4, 38, 100
6, 71976, Note_on_c, 4, 38, 0
6, 72006, Note_on_c, 4, 38, 100
6, 72096, Note_on_c, 4, 38, 0
6, 72126, Note_on_c, 4, 38, 100
6, 72216, Note_on_c, 4, 38, 0
6, 72246, Note_on_c, 4, 38, 100
6, 72336, Note_on_c, 4, 38, 0
6, 72366, Note_on_c, 4, 39, 100
6, 72456, Note_on_c, 4, 39, 0
6, 72486, Note_on_c, 4, 41, 100
6, 72576, Note_on_c, 4, 41, 0
6, 72606, Note_on_c, 4, 43, 100
6, 72696, Note_on_c, 4, 43, 0
6, 72726, Note_on_c, 4, 46, 100
6, 72816, Note_on_c, 4, 46, 0
6, 72846, Note_on_c, 4, 44, 100
6, 72936, Note_on_c, 4, 44, 0
6, 72966, Note_on_c, 4, 45, 100
6, 73056, Note_on_c, 4, 45, 0
6, 73086, Note_on_c, 4, 43, 100
6, 73176, Note_on_c, 4, 43, 0
6, 73206, Note_on_c, 4, 43, 100
6, 73296, Note_on_c, 4, 43, 0
6, 73326, Note_on_c, 4, 39, 100
6, 73416, Note_on_c, 4, 39, 0
6, 73446, Note_on_c, 4, 41, 100
6, 73536, Note_on_c, 4, 41, 0
6, 73566, Note_on_c, 4, 43, 100
6, 73656, Note_on_c, 4, 43, 0
6, 73686, Note_on_c, 4, 46, 100
6, 73776, Note_on_c, 4, 46, 0
6, 73806, Note_on_c, 4, 44, 100
6, 73896, Note_on_c, 4, 44, 0
6, 73926, Note_on_c, 4, 45, 100
6, 74016, Note_on_c, 4, 45, 0
6, 74046, Note_on_c, 4, 43, 100
6, 74136, Note_on_c, 4, 43, 0
6, 74166, Note_on_c, 4, 43, 100
6, 74256, Note_on_c, 4, 43, 0
6, 74286, Note_on_c, 4, 24, 100
6, 74286, Note_on_c, 4, 36, 100
6, 74376, Note_on_c, 4, 36, 0
6, 74376, Note_on_c, 4, 24, 0
6, 74406, Note_on_c, 4, 38, 100
6, 74436, Note_on_c, 4, 38, 0
6, 74436, Note_on_c, 4, 39, 100
6, 74466, Note_on_c, 4, 39, 0
6, 74466, Note_on_c, 4, 41, 100
6, 74496, Note_on_c, 4, 41, 0
6, 74496, Note_on_c, 4, 43, 100
6, 74526, Note_on_c, 4, 43, 0
6, 74526, Note_on_c, 4, 44, 100
6, 74616, Note_on_c, 4, 44, 0
6, 74646, Note_on_c, 4, 44, 100
6, 74736, Note_on_c, 4, 44, 0
6, 74766, Note_on_c, 4, 35, 100
6, 74856, Note_on_c, 4, 35, 0
6, 74946, Note_on_c, 4, 44, 100
6, 75006, Note_on_c, 4, 44, 0
6, 75006, Note_on_c, 4, 42, 100
6, 75066, Note_on_c, 4, 42, 0
6, 75066, Note_on_c, 4, 43, 100
6, 75126, Note_on_c, 4, 43, 0
6, 75186, Note_on_c, 4, 43, 100
6, 75246, Note_on_c, 4, 43, 0
6, 75246, Note_on_c, 4, 40, 100
6, 75306, Note_on_c, 4, 40, 0
6, 75306, Note_on_c, 4, 41, 100
6, 75366, Note_on_c, 4, 41, 0
6, 75456, Note_on_c, 4, 41, 110
6, 75481, Note_on_c, 4, 41, 0
6, 75486, Note_on_c, 4, 43, 111
6, 75571, Note_on_c, 4, 43, 0
6, 75606, Note_on_c, 4, 31, 115
6, 75696, Note_on_c, 4, 31, 0
6, 75726, Note_on_c, 4, 24, 120
6, 75846, Note_on_c, 4, 24, 0
6, 76206, Control_c, 4, 121, 0
6, 76206, End_track
7, 0, Start_track
7, 0, MIDI_port, 0
7, 0, Title_t, "Adagio & Fugue for strings"
7, 0, End_track
8, 0, Start_track
8, 0, MIDI_port, 0
8, 0, Title_t, "KV 546 - W.A. Mozart"
8, 0, End_track
9, 0, Start_track
9, 0, MIDI_port, 0
9, 0, Title_t, "Sequ. by J.F.Lucarelli"
9, 0, End_track
10, 0, Start_track
10, 0, MIDI_port, 0
10, 0, Title_t, "j-f.lucarelli@infonie.be  --  http://perso.infonie.fr/espace-midi"
10, 0, End_track
11, 0, Start_track
11, 0, MIDI_port, 0
11, 0, Title_t, "Optimized for AWE 64 + 8 MB"
11, 0, End_track
12, 0, Start_track
12, 0, MIDI_port, 0
12, 0, Title_t, "\251 June 2000"
12, 0, End_track
13, 0, Start_track
13, 0, MIDI_port, 0
13, 0, Title_t, "Mozart : Adagio and fugue KV 546"
13, 0, End_track
0, 0, End_of_file