0, 0, Header, 1, 3, 192
1, 0, Start_track
1, 0, Tempo, 612192
1, 0, Time_signature, 3, 2, 24, 8
1, 0, Key_signature, 0, "major"
1, 51264, Tempo, 681776
1, 66240, Time_signature, 4, 2, 24, 8
1, 69312, Time_signature, 3, 2, 24, 8
1, 69456, Tempo, 612192
1, 75792, Tempo, 652164
1, 82560, Time_signature, 4, 2, 24, 8
1, 82704, Tempo, 681776
1, 87168, Time_signature, 3, 2, 24, 8
1, 87264, Tempo, 612192
1, 87264, End_track
2, 0, Start_track
2, 0, Title_t, "W. A. Mozart: Variations K.398"
2, 0, Channel_prefix, 0
2, 0, Control_c, 0, 7, 100
2, 0, Control_c, 0, 10, 64
2, 0, Program_c, 0, 0
2, 576, Note_on_c, 0, 69, 78
2, 576, Note_on_c, 0, 72, 78
2, 748, Note_off_c, 0, 72, 0
2, 748, Note_off_c, 0, 69, 0
2, 768, Note_on_c, 0, 69, 78
2, 768, Note_on_c, 0, 72, 78
2, 1027, Note_off_c, 0, 72, 0
2, 1027, Note_off_c, 0, 69, 0
2, 1056, Note_on_c, 0, 70, 78
2, 1056, Note_on_c, 0, 74, 78
2, 1142, Note_off_c, 0, 74, 0
2, 1142, Note_off_c, 0, 70, 0
2, 1152, Note_on_c, 0, 69, 26
2, 1152, Note_on_c, 0, 72, 26
2, 1173, Note_off_c, 0, 72, 0
2, 1173, Note_off_c, 0, 69, 0
2, 1176, Note_on_c, 0, 70, 26
2, 1176, Note_on_c, 0, 74, 26
2, 1197, Note_off_c, 0, 74, 0
2, 1197, Note_off_c, 0, 70, 0
2, 1200, Note_on_c, 0, 69, 26
2, 1200, Note_on_c, 0, 72, 26
2, 1221, Note_off_c, 0, 72, 0
2, 1221, Note_off_c, 0, 69, 0
2, 1224, Note_on_c, 0, 70, 26
2, 1224, Note_on_c, 0, 74, 26
2, 1245, Note_off_c, 0, 74, 0
2, 1245, Note_off_c, 0, 70, 0
2, 1248, Note_on_c, 0, 69, 26
2, 1248, Note_on_c, 0, 72, 26
2, 1269, Note_off_c, 0, 72, 0
2, 1269, Note_off_c, 0, 69, 0
2, 1272, Note_on_c, 0, 70, 26
2, 1272, Note_on_c, 0, 74, 26
2, 1293, Note_off_c, 0, 74, 0
2, 1293, Note_off_c, 0, 70, 0
2, 1296, Note_on_c, 0, 69, 26
2, 1296, Note_on_c, 0, 72, 26
2, 1317, Note_off_c, 0, 72, 0
2, 1317, Note_off_c, 0, 69, 0
2, 1320, Note_on_c, 0, 70, 26
2, 1320, Note_on_c, 0, 74, 26
2, 1341, Note_off_c, 0, 74, 0
2, 1341, Note_off_c, 0, 70, 0
2, 1344, Note_on_c, 0, 69, 26
2, 1344, Note_on_c, 0, 72, 26
2, 1365, Note_off_c, 0, 72, 0
2, 1365, Note_off_c, 0, 69, 0
2, 1368, Note_on_c, 0, 70, 26
2, 1368, Note_on_c, 0, 74, 26
2, 1389, Note_off_c, 0, 74, 0
2, 1389, Note_off_c, 0, 70, 0
2, 1392, Note_on_c, 0, 69, 26
2, 1392, Note_on_c, 0, 72, 26
2, 1413, Note_off_c, 0, 72, 0
2, 1413, Note_off_c, 0, 69, 0
2, 1416, Note_on_c, 0, 70, 26
2, 1416, Note_on_c, 0, 74, 26
2, 1437, Note_off_c, 0, 74, 0
2, 1437, Note_off_c, 0, 70, 0
2, 1440, Note_on_c, 0, 67, 78
2, 1440, Note_on_c, 0, 70, 78
2, 1526, Note_off_c, 0, 70, 0
2, 1526, Note_off_c, 0, 67, 0
2, 1536, Note_on_c, 0, 65, 78
2, 1536, Note_on_c, 0, 69, 78
2, 1708, Note_off_c, 0, 69, 0
2, 1708, Note_off_c, 0, 65, 0
2, 1728, Note_on_c, 0, 69, 78
2, 1728, Note_on_c, 0, 60, 78
2, 1900, Note_off_c, 0, 60, 0
2, 1900, Note_off_c, 0, 69, 0
2, 1920, Note_on_c, 0, 69, 78
2, 1920, Note_on_c, 0, 60, 78
2, 2179, Note_off_c, 0, 60, 0
2, 2179, Note_off_c, 0, 69, 0
2, 2208, Note_on_c, 0, 70, 78
2, 2208, Note_on_c, 0, 62, 78
2, 2294, Note_off_c, 0, 62, 0
2, 2294, Note_off_c, 0, 70, 0
2, 2304, Note_on_c, 0, 60, 26
2, 2304, Note_on_c, 0, 69, 26
2, 2325, Note_off_c, 0, 69, 0
2, 2325, Note_off_c, 0, 60, 0
2, 2328, Note_on_c, 0, 62, 26
2, 2328, Note_on_c, 0, 70, 26
2, 2349, Note_off_c, 0, 70, 0
2, 2349, Note_off_c, 0, 62, 0
2, 2352, Note_on_c, 0, 60, 26
2, 2352, Note_on_c, 0, 69, 26
2, 2373, Note_off_c, 0, 69, 0
2, 2373, Note_off_c, 0, 60, 0
2, 2376, Note_on_c, 0, 62, 26
2, 2376, Note_on_c, 0, 70, 26
2, 2397, Note_off_c, 0, 70, 0
2, 2397, Note_off_c, 0, 62, 0
2, 2400, Note_on_c, 0, 60, 26
2, 2400, Note_on_c, 0, 69, 26
2, 2421, Note_off_c, 0, 69, 0
2, 2421, Note_off_c, 0, 60, 0
2, 2424, Note_on_c, 0, 62, 26
2, 2424, Note_on_c, 0, 70, 26
2, 2445, Note_off_c, 0, 70, 0
2, 2445, Note_off_c, 0, 62, 0
2, 2448, Note_on_c, 0, 60, 26
2, 2448, Note_on_c, 0, 69, 26
2, 2469, Note_off_c, 0, 69, 0
2, 2469, Note_off_c, 0, 60, 0
2, 2472, Note_on_c, 0, 62, 26
2, 2472, Note_on_c, 0, 70, 26
2, 2493, Note_off_c, 0, 70, 0
2, 2493, Note_off_c, 0, 62, 0
2, 2496, Note_on_c, 0, 60, 26
2, 2496, Note_on_c, 0, 69, 26
2, 2517, Note_off_c, 0, 69, 0
2, 2517, Note_off_c, 0, 60, 0
2, 2520, Note_on_c, 0, 62, 26
2, 2520, Note_on_c, 0, 70, 26
2, 2541, Note_off_c, 0, 70, 0
2, 2541, Note_off_c, 0, 62, 0
2, 2544, Note_on_c, 0, 60, 26
2, 2544, Note_on_c, 0, 69, 26
2, 2565, Note_off_c, 0, 69, 0
2, 2565, Note_off_c, 0, 60, 0
2, 2568, Note_on_c, 0, 62, 26
2, 2568, Note_on_c, 0, 70, 26
2, 2589, Note_off_c, 0, 70, 0
2, 2589, Note_off_c, 0, 62, 0
2, 2592, Note_on_c, 0, 58, 78
2, 2592, Note_on_c, 0, 67, 78
2, 2678, Note_off_c, 0, 67, 0
2, 2678, Note_off_c, 0, 58, 0
2, 2688, Note_on_c, 0, 65, 78
2, 2688, Note_on_c, 0, 57, 78
2, 2860, Note_off_c, 0, 57, 0
2, 2860, Note_off_c, 0, 65, 0
2, 2880, Note_on_c, 0, 64, 78
2, 2880, Note_on_c, 0, 67, 78
2, 3052, Note_off_c, 0, 67, 0
2, 3052, Note_off_c, 0, 64, 0
2, 3072, Note_on_c, 0, 64, 78
2, 3072, Note_on_c, 0, 67, 78
2, 3244, Note_off_c, 0, 67, 0
2, 3244, Note_off_c, 0, 64, 0
2, 3264, Note_on_c, 0, 68, 78
2, 3264, Note_on_c, 0, 64, 78
2, 3436, Note_off_c, 0, 64, 0
2, 3436, Note_off_c, 0, 68, 0
2, 3456, Note_on_c, 0, 65, 78
2, 3456, Note_on_c, 0, 69, 78
2, 3744, Note_off_c, 0, 69, 0
2, 3744, Note_off_c, 0, 65, 0
2, 3744, Note_on_c, 0, 64, 78
2, 3744, Note_on_c, 0, 68, 78
2, 3840, Note_off_c, 0, 68, 0
2, 3840, Note_off_c, 0, 64, 0
2, 3840, Note_on_c, 0, 65, 78
2, 3840, Note_on_c, 0, 69, 78
2, 4032, Note_off_c, 0, 69, 0
2, 4032, Note_off_c, 0, 65, 0
2, 4032, Note_on_c, 0, 65, 78
2, 4032, Note_on_c, 0, 69, 78
2, 4204, Note_off_c, 0, 69, 0
2, 4204, Note_off_c, 0, 65, 0
2, 4224, Note_on_c, 0, 65, 78
2, 4224, Note_on_c, 0, 69, 78
2, 4396, Note_off_c, 0, 69, 0
2, 4396, Note_off_c, 0, 65, 0
2, 4416, Note_on_c, 0, 66, 78
2, 4416, Note_on_c, 0, 69, 78
2, 4588, Note_off_c, 0, 69, 0
2, 4588, Note_off_c, 0, 66, 0
2, 4608, Note_on_c, 0, 67, 78
2, 4608, Note_on_c, 0, 70, 78
2, 4896, Note_off_c, 0, 70, 0
2, 4896, Note_off_c, 0, 67, 0
2, 4896, Note_on_c, 0, 66, 78
2, 4896, Note_on_c, 0, 69, 78
2, 4992, Note_off_c, 0, 69, 0
2, 4992, Note_off_c, 0, 66, 0
2, 4992, Note_on_c, 0, 67, 78
2, 4992, Note_on_c, 0, 70, 78
2, 5184, Note_off_c, 0, 70, 0
2, 5184, Note_off_c, 0, 67, 0
2, 5184, Note_on_c, 0, 65, 78
2, 5184, Note_on_c, 0, 69, 78
2, 5328, Note_off_c, 0, 69, 0
2, 5328, Note_off_c, 0, 65, 0
2, 5328, Note_on_c, 0, 72, 78
2, 5371, Note_off_c, 0, 72, 0
2, 5376, Note_on_c, 0, 60, 78
2, 5376, Note_on_c, 0, 65, 78
2, 5419, Note_off_c, 0, 65, 0
2, 5419, Note_off_c, 0, 60, 0
2, 5472, Note_on_c, 0, 60, 78
2, 5472, Note_on_c, 0, 65, 78
2, 5515, Note_off_c, 0, 65, 0
2, 5515, Note_off_c, 0, 60, 0
2, 5568, Note_on_c, 0, 64, 78
2, 5568, Note_on_c, 0, 67, 78
2, 5611, Note_off_c, 0, 67, 0
2, 5611, Note_off_c, 0, 64, 0
2, 5664, Note_on_c, 0, 64, 78
2, 5664, Note_on_c, 0, 67, 78
2, 5707, Note_off_c, 0, 67, 0
2, 5707, Note_off_c, 0, 64, 0
2, 5760, Note_on_c, 0, 65, 78
2, 5760, Note_on_c, 0, 69, 78
2, 5904, Note_off_c, 0, 69, 0
2, 5904, Note_off_c, 0, 65, 0
2, 5904, Note_on_c, 0, 72, 78
2, 5947, Note_off_c, 0, 72, 0
2, 5952, Note_on_c, 0, 65, 78
2, 5952, Note_on_c, 0, 60, 78
2, 5995, Note_off_c, 0, 60, 0
2, 5995, Note_off_c, 0, 65, 0
2, 6048, Note_on_c, 0, 65, 78
2, 6048, Note_on_c, 0, 60, 78
2, 6091, Note_off_c, 0, 60, 0
2, 6091, Note_off_c, 0, 65, 0
2, 6144, Note_on_c, 0, 64, 78
2, 6144, Note_on_c, 0, 67, 78
2, 6187, Note_off_c, 0, 67, 0
2, 6187, Note_off_c, 0, 64, 0
2, 6240, Note_on_c, 0, 64, 77
2, 6240, Note_on_c, 0, 67, 77
2, 6283, Note_off_c, 0, 67, 0
2, 6283, Note_off_c, 0, 64, 0
2, 6336, Note_on_c, 0, 69, 78
2, 6480, Note_off_c, 0, 69, 0
2, 6480, Note_on_c, 0, 77, 78
2, 6523, Note_off_c, 0, 77, 0
2, 6528, Note_on_c, 0, 67, 78
2, 6672, Note_off_c, 0, 67, 0
2, 6672, Note_on_c, 0, 74, 78
2, 6715, Note_off_c, 0, 74, 0
2, 6720, Note_on_c, 0, 72, 78
2, 6864, Note_off_c, 0, 72, 0
2, 6864, Note_on_c, 0, 64, 78
2, 6907, Note_off_c, 0, 64, 0
2, 6912, Note_on_c, 0, 65, 78
2, 7084, Note_off_c, 0, 65, 0
2, 7200, Note_on_c, 0, 65, 60
2, 7286, Note_off_c, 0, 65, 0
2, 7296, Note_on_c, 0, 64, 60
2, 7296, Note_on_c, 0, 67, 60
2, 7382, Note_off_c, 0, 67, 0
2, 7382, Note_off_c, 0, 64, 0
2, 7392, Note_on_c, 0, 63, 60
2, 7392, Note_on_c, 0, 69, 60
2, 7478, Note_off_c, 0, 69, 0
2, 7478, Note_off_c, 0, 63, 0
2, 7488, Note_on_c, 0, 72, 60
2, 7512, Note_off_c, 0, 72, 0
2, 7512, Note_on_c, 0, 70, 60
2, 7584, Note_off_c, 0, 70, 0
2, 7584, Note_on_c, 0, 69, 60
2, 7680, Note_off_c, 0, 69, 0
2, 7680, Note_on_c, 0, 70, 60
2, 7776, Note_off_c, 0, 70, 0
2, 7776, Note_on_c, 0, 74, 60
2, 7872, Note_off_c, 0, 74, 0
2, 7872, Note_on_c, 0, 72, 60
2, 7968, Note_off_c, 0, 72, 0
2, 7968, Note_on_c, 0, 70, 60
2, 8064, Note_off_c, 0, 70, 0
2, 8064, Note_on_c, 0, 68, 60
2, 8160, Note_off_c, 0, 68, 0
2, 8160, Note_on_c, 0, 69, 60
2, 8256, Note_off_c, 0, 69, 0
2, 8352, Note_on_c, 0, 69, 60
2, 8448, Note_off_c, 0, 69, 0
2, 8448, Note_on_c, 0, 70, 60
2, 8544, Note_off_c, 0, 70, 0
2, 8544, Note_on_c, 0, 72, 60
2, 8640, Note_off_c, 0, 72, 0
2, 8640, Note_on_c, 0, 76, 60
2, 8664, Note_off_c, 0, 76, 0
2, 8664, Note_on_c, 0, 74, 60
2, 8736, Note_off_c, 0, 74, 0
2, 8736, Note_on_c, 0, 73, 60
2, 8832, Note_off_c, 0, 73, 0
2, 8832, Note_on_c, 0, 74, 60
2, 8928, Note_off_c, 0, 74, 0
2, 8928, Note_on_c, 0, 77, 60
2, 9024, Note_off_c, 0, 77, 0
2, 9024, Note_on_c, 0, 76, 60
2, 9120, Note_off_c, 0, 76, 0
2, 9120, Note_on_c, 0, 74, 60
2, 9216, Note_off_c, 0, 74, 0
2, 9216, Note_on_c, 0, 77, 60
2, 9360, Note_off_c, 0, 77, 0
2, 9360, Note_on_c, 0, 74, 60
2, 9408, Note_off_c, 0, 74, 0
2, 9408, Note_on_c, 0, 72, 60
2, 9580, Note_off_c, 0, 72, 0
2, 9792, Note_on_c, 0, 72, 78
2, 9792, Note_on_c, 0, 67, 78
2, 9792, Note_on_c, 0, 64, 78
2, 9936, Note_off_c, 0, 72, 0
2, 9936, Note_on_c, 0, 76, 78
2, 9964, Note_off_c, 0, 67, 0
2, 9964, Note_off_c, 0, 64, 0
2, 9979, Note_off_c, 0, 76, 0
2, 9984, Note_on_c, 0, 67, 78
2, 10027, Note_off_c, 0, 67, 0
2, 10080, Note_on_c, 0, 67, 78
2, 10123, Note_off_c, 0, 67, 0
2, 10272, Note_on_c, 0, 71, 78
2, 10272, Note_on_c, 0, 65, 78
2, 10358, Note_off_c, 0, 65, 0
2, 10358, Note_off_c, 0, 71, 0
2, 10368, Note_on_c, 0, 72, 78
2, 10368, Note_on_c, 0, 64, 78
2, 10512, Note_off_c, 0, 72, 0
2, 10512, Note_on_c, 0, 76, 78
2, 10540, Note_off_c, 0, 64, 0
2, 10555, Note_off_c, 0, 76, 0
2, 10560, Note_on_c, 0, 67, 78
2, 10603, Note_off_c, 0, 67, 0
2, 10656, Note_on_c, 0, 67, 78
2, 10699, Note_off_c, 0, 67, 0
2, 10848, Note_on_c, 0, 71, 78
2, 10848, Note_on_c, 0, 65, 78
2, 10934, Note_off_c, 0, 65, 0
2, 10934, Note_off_c, 0, 71, 0
2, 10944, Note_on_c, 0, 72, 78
2, 10944, Note_on_c, 0, 64, 78
2, 11040, Note_off_c, 0, 72, 0
2, 11040, Note_on_c, 0, 76, 78
2, 11088, Note_off_c, 0, 76, 0
2, 11088, Note_on_c, 0, 79, 78
2, 11116, Note_off_c, 0, 64, 0
2, 11136, Note_off_c, 0, 79, 0
2, 11136, Note_on_c, 0, 67, 78
2, 11179, Note_off_c, 0, 67, 0
2, 11232, Note_on_c, 0, 67, 78
2, 11275, Note_off_c, 0, 67, 0
2, 11424, Note_on_c, 0, 71, 78
2, 11424, Note_on_c, 0, 65, 78
2, 11467, Note_off_c, 0, 71, 0
2, 11510, Note_off_c, 0, 65, 0
2, 11520, Note_on_c, 0, 72, 78
2, 11520, Note_on_c, 0, 64, 78
2, 11779, Note_off_c, 0, 64, 0
2, 11779, Note_off_c, 0, 72, 0
2, 11808, Note_on_c, 0, 73, 55
2, 11856, Note_off_c, 0, 73, 0
2, 11904, Note_on_c, 0, 74, 55
2, 11952, Note_off_c, 0, 74, 0
2, 12000, Note_on_c, 0, 72, 55
2, 12048, Note_off_c, 0, 72, 0
2, 12096, Note_on_c, 0, 70, 55
2, 12144, Note_off_c, 0, 70, 0
2, 12192, Note_on_c, 0, 69, 55
2, 12240, Note_off_c, 0, 69, 0
2, 12288, Note_on_c, 0, 67, 55
2, 12336, Note_off_c, 0, 67, 0
2, 12384, Note_on_c, 0, 70, 55
2, 12432, Note_off_c, 0, 70, 0
2, 12480, Note_on_c, 0, 69, 55
2, 12528, Note_off_c, 0, 69, 0
2, 12576, Note_on_c, 0, 67, 55
2, 12624, Note_off_c, 0, 67, 0
2, 12672, Note_on_c, 0, 58, 55
2, 12672, Note_on_c, 0, 64, 55
2, 12768, Note_off_c, 0, 64, 0
2, 12768, Note_off_c, 0, 58, 0
2, 12768, Note_on_c, 0, 57, 55
2, 12768, Note_on_c, 0, 65, 55
2, 12854, Note_off_c, 0, 65, 0
2, 12854, Note_off_c, 0, 57, 0
2, 12864, Note_on_c, 0, 57, 55
2, 12864, Note_on_c, 0, 65, 55
2, 13056, Note_off_c, 0, 65, 0
2, 13056, Note_off_c, 0, 57, 0
2, 13248, Note_on_c, 0, 72, 78
2, 13296, Note_off_c, 0, 72, 0
2, 13296, Note_on_c, 0, 69, 78
2, 13344, Note_off_c, 0, 69, 0
2, 13344, Note_on_c, 0, 65, 78
2, 13392, Note_off_c, 0, 65, 0
2, 13392, Note_on_c, 0, 69, 78
2, 13440, Note_off_c, 0, 69, 0
2, 13440, Note_on_c, 0, 72, 78
2, 13488, Note_off_c, 0, 72, 0
2, 13488, Note_on_c, 0, 69, 78
2, 13536, Note_off_c, 0, 69, 0
2, 13536, Note_on_c, 0, 65, 78
2, 13584, Note_off_c, 0, 65, 0
2, 13584, Note_on_c, 0, 69, 78
2, 13632, Note_off_c, 0, 69, 0
2, 13632, Note_on_c, 0, 72, 78
2, 13680, Note_off_c, 0, 72, 0
2, 13680, Note_on_c, 0, 69, 78
2, 13728, Note_off_c, 0, 69, 0
2, 13728, Note_on_c, 0, 74, 78
2, 13776, Note_off_c, 0, 74, 0
2, 13776, Note_on_c, 0, 70, 78
2, 13824, Note_off_c, 0, 70, 0
2, 13824, Note_on_c, 0, 72, 78
2, 13872, Note_off_c, 0, 72, 0
2, 13872, Note_on_c, 0, 69, 78
2, 13920, Note_off_c, 0, 69, 0
2, 13920, Note_on_c, 0, 65, 78
2, 13968, Note_off_c, 0, 65, 0
2, 13968, Note_on_c, 0, 69, 78
2, 14016, Note_off_c, 0, 69, 0
2, 14016, Note_on_c, 0, 72, 78
2, 14064, Note_off_c, 0, 72, 0
2, 14064, Note_on_c, 0, 69, 78
2, 14112, Note_off_c, 0, 69, 0
2, 14112, Note_on_c, 0, 70, 78
2, 14160, Note_off_c, 0, 70, 0
2, 14160, Note_on_c, 0, 67, 78
2, 14208, Note_off_c, 0, 67, 0
2, 14208, Note_on_c, 0, 69, 78
2, 14256, Note_off_c, 0, 69, 0
2, 14256, Note_on_c, 0, 65, 80
2, 14304, Note_off_c, 0, 65, 0
2, 14304, Note_on_c, 0, 60, 78
2, 14352, Note_off_c, 0, 60, 0
2, 14352, Note_on_c, 0, 65, 78
2, 14400, Note_off_c, 0, 65, 0
2, 14400, Note_on_c, 0, 69, 78
2, 14448, Note_off_c, 0, 69, 0
2, 14448, Note_on_c, 0, 65, 78
2, 14496, Note_off_c, 0, 65, 0
2, 14496, Note_on_c, 0, 60, 78
2, 14544, Note_off_c, 0, 60, 0
2, 14544, Note_on_c, 0, 65, 78
2, 14592, Note_off_c, 0, 65, 0
2, 14592, Note_on_c, 0, 69, 78
2, 14640, Note_off_c, 0, 69, 0
2, 14640, Note_on_c, 0, 65, 78
2, 14688, Note_off_c, 0, 65, 0
2, 14688, Note_on_c, 0, 60, 78
2, 14736, Note_off_c, 0, 60, 0
2, 14736, Note_on_c, 0, 65, 78
2, 14784, Note_off_c, 0, 65, 0
2, 14784, Note_on_c, 0, 69, 78
2, 14832, Note_off_c, 0, 69, 0
2, 14832, Note_on_c, 0, 60, 78
2, 14880, Note_off_c, 0, 60, 0
2, 14880, Note_on_c, 0, 70, 78
2, 14928, Note_off_c, 0, 70, 0
2, 14928, Note_on_c, 0, 62, 78
2, 14976, Note_off_c, 0, 62, 0
2, 14976, Note_on_c, 0, 69, 78
2, 15024, Note_off_c, 0, 69, 0
2, 15024, Note_on_c, 0, 65, 78
2, 15072, Note_off_c, 0, 65, 0
2, 15072, Note_on_c, 0, 60, 78
2, 15120, Note_off_c, 0, 60, 0
2, 15120, Note_on_c, 0, 65, 78
2, 15168, Note_off_c, 0, 65, 0
2, 15168, Note_on_c, 0, 69, 78
2, 15216, Note_off_c, 0, 69, 0
2, 15216, Note_on_c, 0, 60, 78
2, 15264, Note_off_c, 0, 60, 0
2, 15264, Note_on_c, 0, 67, 78
2, 15312, Note_off_c, 0, 67, 0
2, 15312, Note_on_c, 0, 58, 78
2, 15360, Note_off_c, 0, 58, 0
2, 15360, Note_on_c, 0, 65, 78
2, 15408, Note_off_c, 0, 65, 0
2, 15408, Note_on_c, 0, 57, 78
2, 15456, Note_off_c, 0, 57, 0
2, 15456, Note_on_c, 0, 66, 78
2, 15504, Note_off_c, 0, 66, 0
2, 15504, Note_on_c, 0, 57, 78
2, 15552, Note_off_c, 0, 57, 0
2, 15552, Note_on_c, 0, 67, 78
2, 15600, Note_off_c, 0, 67, 0
2, 15600, Note_on_c, 0, 64, 78
2, 15648, Note_off_c, 0, 64, 0
2, 15648, Note_on_c, 0, 60, 78
2, 15696, Note_off_c, 0, 60, 0
2, 15696, Note_on_c, 0, 64, 78
2, 15744, Note_off_c, 0, 64, 0
2, 15744, Note_on_c, 0, 67, 78
2, 15792, Note_off_c, 0, 67, 0
2, 15792, Note_on_c, 0, 64, 78
2, 15840, Note_off_c, 0, 64, 0
2, 15840, Note_on_c, 0, 60, 78
2, 15888, Note_off_c, 0, 60, 0
2, 15888, Note_on_c, 0, 64, 78
2, 15936, Note_off_c, 0, 64, 0
2, 15936, Note_on_c, 0, 67, 78
2, 15984, Note_off_c, 0, 67, 0
2, 15984, Note_on_c, 0, 64, 78
2, 16032, Note_off_c, 0, 64, 0
2, 16032, Note_on_c, 0, 68, 78
2, 16080, Note_off_c, 0, 68, 0
2, 16080, Note_on_c, 0, 64, 78
2, 16128, Note_off_c, 0, 64, 0
2, 16128, Note_on_c, 0, 69, 78
2, 16176, Note_off_c, 0, 69, 0
2, 16176, Note_on_c, 0, 65, 78
2, 16224, Note_off_c, 0, 65, 0
2, 16224, Note_on_c, 0, 60, 78
2, 16272, Note_off_c, 0, 60, 0
2, 16272, Note_on_c, 0, 65, 78
2, 16320, Note_off_c, 0, 65, 0
2, 16320, Note_on_c, 0, 69, 78
2, 16368, Note_off_c, 0, 69, 0
2, 16368, Note_on_c, 0, 65, 78
2, 16416, Note_off_c, 0, 65, 0
2, 16416, Note_on_c, 0, 68, 78
2, 16464, Note_off_c, 0, 68, 0
2, 16464, Note_on_c, 0, 64, 78
2, 16512, Note_off_c, 0, 64, 0
2, 16512, Note_on_c, 0, 69, 78
2, 16560, Note_off_c, 0, 69, 0
2, 16560, Note_on_c, 0, 65, 78
2, 16608, Note_off_c, 0, 65, 0
2, 16608, Note_on_c, 0, 68, 78
2, 16656, Note_off_c, 0, 68, 0
2, 16656, Note_on_c, 0, 64, 78
2, 16704, Note_off_c, 0, 64, 0
2, 16704, Note_on_c, 0, 69, 78
2, 16752, Note_off_c, 0, 69, 0
2, 16752, Note_on_c, 0, 65, 78
2, 16800, Note_off_c, 0, 65, 0
2, 16800, Note_on_c, 0, 60, 78
2, 16848, Note_off_c, 0, 60, 0
2, 16848, Note_on_c, 0, 65, 78
2, 16896, Note_off_c, 0, 65, 0
2, 16896, Note_on_c, 0, 69, 78
2, 16944, Note_off_c, 0, 69, 0
2, 16944, Note_on_c, 0, 65, 78
2, 16992, Note_off_c, 0, 65, 0
2, 16992, Note_on_c, 0, 60, 78
2, 17040, Note_off_c, 0, 60, 0
2, 17040, Note_on_c, 0, 65, 78
2, 17088, Note_off_c, 0, 65, 0
2, 17088, Note_on_c, 0, 69, 78
2, 17136, Note_off_c, 0, 69, 0
2, 17136, Note_on_c, 0, 65, 78
2, 17184, Note_off_c, 0, 65, 0
2, 17184, Note_on_c, 0, 69, 78
2, 17232, Note_off_c, 0, 69, 0
2, 17232, Note_on_c, 0, 66, 78
2, 17280, Note_off_c, 0, 66, 0
2, 17280, Note_on_c, 0, 70, 78
2, 17328, Note_off_c, 0, 70, 0
2, 17328, Note_on_c, 0, 67, 78
2, 17376, Note_off_c, 0, 67, 0
2, 17376, Note_on_c, 0, 60, 78
2, 17424, Note_off_c, 0, 60, 0
2, 17424, Note_on_c, 0, 67, 78
2, 17472, Note_off_c, 0, 67, 0
2, 17472, Note_on_c, 0, 70, 78
2, 17520, Note_off_c, 0, 70, 0
2, 17520, Note_on_c, 0, 67, 78
2, 17568, Note_off_c, 0, 67, 0
2, 17568, Note_on_c, 0, 69, 78
2, 17616, Note_off_c, 0, 69, 0
2, 17616, Note_on_c, 0, 66, 78
2, 17664, Note_off_c, 0, 66, 0
2, 17664, Note_on_c, 0, 70, 78
2, 17712, Note_off_c, 0, 70, 0
2, 17712, Note_on_c, 0, 67, 78
2, 17760, Note_off_c, 0, 67, 0
2, 17760, Note_on_c, 0, 70, 78
2, 17808, Note_off_c, 0, 70, 0
2, 17808, Note_on_c, 0, 68, 78
2, 17856, Note_off_c, 0, 68, 0
2, 17856, Note_on_c, 0, 69, 78
2, 17904, Note_off_c, 0, 69, 0
2, 17904, Note_on_c, 0, 84, 96
2, 17952, Note_off_c, 0, 84, 0
2, 17952, Note_on_c, 0, 81, 96
2, 18000, Note_off_c, 0, 81, 0
2, 18000, Note_on_c, 0, 77, 96
2, 18048, Note_off_c, 0, 77, 0
2, 18048, Note_on_c, 0, 72, 78
2, 18096, Note_off_c, 0, 72, 0
2, 18096, Note_on_c, 0, 77, 78
2, 18144, Note_off_c, 0, 77, 0
2, 18144, Note_on_c, 0, 72, 78
2, 18192, Note_off_c, 0, 72, 0
2, 18192, Note_on_c, 0, 69, 78
2, 18240, Note_off_c, 0, 69, 0
2, 18240, Note_on_c, 0, 67, 78
2, 18288, Note_off_c, 0, 67, 0
2, 18288, Note_on_c, 0, 72, 78
2, 18336, Note_off_c, 0, 72, 0
2, 18336, Note_on_c, 0, 70, 78
2, 18384, Note_off_c, 0, 70, 0
2, 18384, Note_on_c, 0, 68, 78
2, 18432, Note_off_c, 0, 68, 0
2, 18432, Note_on_c, 0, 69, 78
2, 18480, Note_off_c, 0, 69, 0
2, 18480, Note_on_c, 0, 84, 96
2, 18528, Note_off_c, 0, 84, 0
2, 18528, Note_on_c, 0, 81, 96
2, 18576, Note_off_c, 0, 81, 0
2, 18576, Note_on_c, 0, 77, 96
2, 18624, Note_off_c, 0, 77, 0
2, 18624, Note_on_c, 0, 72, 78
2, 18672, Note_off_c, 0, 72, 0
2, 18672, Note_on_c, 0, 77, 78
2, 18720, Note_off_c, 0, 77, 0
2, 18720, Note_on_c, 0, 72, 78
2, 18768, Note_off_c, 0, 72, 0
2, 18768, Note_on_c, 0, 69, 78
2, 18816, Note_off_c, 0, 69, 0
2, 18816, Note_on_c, 0, 67, 78
2, 18864, Note_off_c, 0, 67, 0
2, 18864, Note_on_c, 0, 72, 78
2, 18912, Note_off_c, 0, 72, 0
2, 18912, Note_on_c, 0, 70, 78
2, 18960, Note_off_c, 0, 70, 0
2, 18960, Note_on_c, 0, 68, 78
2, 19008, Note_off_c, 0, 68, 0
2, 19008, Note_on_c, 0, 69, 96
2, 19056, Note_off_c, 0, 69, 0
2, 19056, Note_on_c, 0, 77, 96
2, 19104, Note_off_c, 0, 77, 0
2, 19104, Note_on_c, 0, 72, 96
2, 19152, Note_off_c, 0, 72, 0
2, 19152, Note_on_c, 0, 69, 96
2, 19200, Note_off_c, 0, 69, 0
2, 19200, Note_on_c, 0, 67, 96
2, 19248, Note_off_c, 0, 67, 0
2, 19248, Note_on_c, 0, 74, 96
2, 19296, Note_off_c, 0, 74, 0
2, 19296, Note_on_c, 0, 70, 78
2, 19344, Note_off_c, 0, 70, 0
2, 19344, Note_on_c, 0, 67, 78
2, 19392, Note_off_c, 0, 67, 0
2, 19392, Note_on_c, 0, 64, 78
2, 19440, Note_off_c, 0, 64, 0
2, 19440, Note_on_c, 0, 70, 78
2, 19488, Note_off_c, 0, 70, 0
2, 19488, Note_on_c, 0, 67, 78
2, 19536, Note_off_c, 0, 67, 0
2, 19536, Note_on_c, 0, 64, 78
2, 19584, Note_off_c, 0, 64, 0
2, 19584, Note_on_c, 0, 65, 96
2, 19776, Note_off_c, 0, 65, 0
2, 19824, Note_on_c, 0, 65, 78
2, 19872, Note_off_c, 0, 65, 0
2, 19872, Note_on_c, 0, 64, 78
2, 19920, Note_off_c, 0, 64, 0
2, 19920, Note_on_c, 0, 65, 78
2, 19968, Note_off_c, 0, 65, 0
2, 19968, Note_on_c, 0, 66, 78
2, 20016, Note_off_c, 0, 66, 0
2, 20016, Note_on_c, 0, 67, 78
2, 20064, Note_off_c, 0, 67, 0
2, 20064, Note_on_c, 0, 68, 78
2, 20112, Note_off_c, 0, 68, 0
2, 20112, Note_on_c, 0, 69, 78
2, 20160, Note_off_c, 0, 69, 0
2, 20160, Note_on_c, 0, 70, 78
2, 20208, Note_off_c, 0, 70, 0
2, 20208, Note_on_c, 0, 72, 78
2, 20256, Note_off_c, 0, 72, 0
2, 20256, Note_on_c, 0, 70, 78
2, 20304, Note_off_c, 0, 70, 0
2, 20304, Note_on_c, 0, 69, 78
2, 20352, Note_off_c, 0, 69, 0
2, 20352, Note_on_c, 0, 70, 78
2, 20400, Note_off_c, 0, 70, 0
2, 20400, Note_on_c, 0, 72, 78
2, 20448, Note_off_c, 0, 72, 0
2, 20448, Note_on_c, 0, 74, 78
2, 20496, Note_off_c, 0, 74, 0
2, 20496, Note_on_c, 0, 72, 78
2, 20544, Note_off_c, 0, 72, 0
2, 20544, Note_on_c, 0, 76, 78
2, 20592, Note_off_c, 0, 76, 0
2, 20592, Note_on_c, 0, 74, 78
2, 20640, Note_off_c, 0, 74, 0
2, 20640, Note_on_c, 0, 72, 78
2, 20688, Note_off_c, 0, 72, 0
2, 20688, Note_on_c, 0, 70, 78
2, 20736, Note_off_c, 0, 70, 0
2, 20736, Note_on_c, 0, 72, 78
2, 20784, Note_off_c, 0, 72, 0
2, 20784, Note_on_c, 0, 70, 78
2, 20832, Note_off_c, 0, 70, 0
2, 20832, Note_on_c, 0, 69, 78
2, 20880, Note_off_c, 0, 69, 0
2, 20880, Note_on_c, 0, 70, 78
2, 20928, Note_off_c, 0, 70, 0
2, 20928, Note_on_c, 0, 69, 78
2, 20952, Note_off_c, 0, 69, 0
2, 20976, Note_on_c, 0, 69, 78
2, 21024, Note_off_c, 0, 69, 0
2, 21024, Note_on_c, 0, 68, 78
2, 21072, Note_off_c, 0, 68, 0
2, 21072, Note_on_c, 0, 69, 78
2, 21120, Note_off_c, 0, 69, 0
2, 21120, Note_on_c, 0, 70, 78
2, 21168, Note_off_c, 0, 70, 0
2, 21168, Note_on_c, 0, 71, 78
2, 21216, Note_off_c, 0, 71, 0
2, 21216, Note_on_c, 0, 72, 78
2, 21264, Note_off_c, 0, 72, 0
2, 21264, Note_on_c, 0, 73, 78
2, 21312, Note_off_c, 0, 73, 0
2, 21312, Note_on_c, 0, 74, 78
2, 21360, Note_off_c, 0, 74, 0
2, 21360, Note_on_c, 0, 76, 78
2, 21408, Note_off_c, 0, 76, 0
2, 21408, Note_on_c, 0, 74, 78
2, 21456, Note_off_c, 0, 74, 0
2, 21456, Note_on_c, 0, 72, 78
2, 21504, Note_off_c, 0, 72, 0
2, 21504, Note_on_c, 0, 74, 78
2, 21552, Note_off_c, 0, 74, 0
2, 21552, Note_on_c, 0, 76, 78
2, 21600, Note_off_c, 0, 76, 0
2, 21600, Note_on_c, 0, 77, 78
2, 21648, Note_off_c, 0, 77, 0
2, 21648, Note_on_c, 0, 76, 78
2, 21696, Note_off_c, 0, 76, 0
2, 21696, Note_on_c, 0, 79, 78
2, 21744, Note_off_c, 0, 79, 0
2, 21744, Note_on_c, 0, 77, 78
2, 21792, Note_off_c, 0, 77, 0
2, 21792, Note_on_c, 0, 76, 78
2, 21840, Note_off_c, 0, 76, 0
2, 21840, Note_on_c, 0, 74, 78
2, 21888, Note_off_c, 0, 74, 0
2, 21888, Note_on_c, 0, 77, 78
2, 21936, Note_off_c, 0, 77, 0
2, 21936, Note_on_c, 0, 74, 78
2, 21984, Note_off_c, 0, 74, 0
2, 21984, Note_on_c, 0, 77, 78
2, 22032, Note_off_c, 0, 77, 0
2, 22032, Note_on_c, 0, 74, 78
2, 22080, Note_off_c, 0, 74, 0
2, 22080, Note_on_c, 0, 72, 78
2, 22272, Note_off_c, 0, 72, 0
2, 22464, Note_on_c, 0, 67, 96
2, 22464, Note_on_c, 0, 64, 96
2, 22464, Note_on_c, 0, 72, 96
2, 22608, Note_off_c, 0, 72, 0
2, 22608, Note_on_c, 0, 76, 78
2, 22656, Note_off_c, 0, 64, 0
2, 22656, Note_off_c, 0, 67, 0
2, 22656, Note_off_c, 0, 76, 0
2, 22656, Note_on_c, 0, 67, 78
2, 22704, Note_off_c, 0, 67, 0
2, 22752, Note_on_c, 0, 67, 78
2, 22800, Note_off_c, 0, 67, 0
2, 22944, Note_on_c, 0, 65, 78
2, 22944, Note_on_c, 0, 71, 78
2, 23040, Note_off_c, 0, 71, 0
2, 23040, Note_off_c, 0, 65, 0
2, 23040, Note_on_c, 0, 64, 96
2, 23040, Note_on_c, 0, 67, 96
2, 23040, Note_on_c, 0, 72, 96
2, 23184, Note_off_c, 0, 72, 0
2, 23184, Note_on_c, 0, 76, 78
2, 23232, Note_off_c, 0, 67, 0
2, 23232, Note_off_c, 0, 64, 0
2, 23232, Note_off_c, 0, 76, 0
2, 23232, Note_on_c, 0, 67, 78
2, 23280, Note_off_c, 0, 67, 0
2, 23328, Note_on_c, 0, 67, 78
2, 23376, Note_off_c, 0, 67, 0
2, 23520, Note_on_c, 0, 65, 78
2, 23520, Note_on_c, 0, 71, 78
2, 23616, Note_off_c, 0, 71, 0
2, 23616, Note_off_c, 0, 65, 0
2, 23616, Note_on_c, 0, 64, 96
2, 23616, Note_on_c, 0, 72, 96
2, 23744, Note_off_c, 0, 72, 0
2, 23744, Note_on_c, 0, 76, 78
2, 23776, Note_off_c, 0, 76, 64
2, 23776, Note_on_c, 0, 79, 78
2, 23808, Note_off_c, 0, 64, 0
2, 23808, Note_off_c, 0, 79, 0
2, 23808, Note_on_c, 0, 67, 78
2, 23856, Note_off_c, 0, 67, 0
2, 23904, Note_on_c, 0, 67, 78
2, 23952, Note_off_c, 0, 67, 0
2, 24096, Note_on_c, 0, 65, 78
2, 24096, Note_on_c, 0, 71, 78
2, 24192, Note_off_c, 0, 71, 0
2, 24192, Note_off_c, 0, 65, 0
2, 24192, Note_on_c, 0, 72, 96
2, 24192, Note_on_c, 0, 64, 96
2, 24480, Note_off_c, 0, 64, 0
2, 24480, Note_off_c, 0, 72, 0
2, 24528, Note_on_c, 0, 73, 65
2, 24552, Note_off_c, 0, 73, 0
2, 24624, Note_on_c, 0, 74, 65
2, 24648, Note_off_c, 0, 74, 0
2, 24720, Note_on_c, 0, 72, 65
2, 24744, Note_off_c, 0, 72, 0
2, 24816, Note_on_c, 0, 70, 65
2, 24840, Note_off_c, 0, 70, 0
2, 24912, Note_on_c, 0, 69, 65
2, 24936, Note_off_c, 0, 69, 0
2, 25008, Note_on_c, 0, 67, 65
2, 25032, Note_off_c, 0, 67, 0
2, 25104, Note_on_c, 0, 70, 65
2, 25128, Note_off_c, 0, 70, 0
2, 25200, Note_on_c, 0, 69, 65
2, 25224, Note_off_c, 0, 69, 0
2, 25296, Note_on_c, 0, 67, 65
2, 25320, Note_off_c, 0, 67, 0
2, 25344, Note_on_c, 0, 59, 65
2, 25344, Note_on_c, 0, 64, 65
2, 25440, Note_off_c, 0, 64, 0
2, 25440, Note_off_c, 0, 59, 0
2, 25440, Note_on_c, 0, 57, 65
2, 25440, Note_on_c, 0, 65, 65
2, 25536, Note_off_c, 0, 65, 0
2, 25536, Note_off_c, 0, 57, 0
2, 25536, Note_on_c, 0, 57, 65
2, 25536, Note_on_c, 0, 65, 65
2, 25728, Note_off_c, 0, 65, 0
2, 25728, Note_off_c, 0, 57, 0
2, 25968, Note_on_c, 0, 84, 96
2, 25968, Note_on_c, 0, 81, 96
2, 26011, Note_off_c, 0, 81, 0
2, 26011, Note_off_c, 0, 84, 0
2, 26064, Note_on_c, 0, 69, 96
2, 26064, Note_on_c, 0, 72, 96
2, 26107, Note_off_c, 0, 72, 0
2, 26107, Note_off_c, 0, 69, 0
2, 26160, Note_on_c, 0, 84, 96
2, 26160, Note_on_c, 0, 81, 96
2, 26203, Note_off_c, 0, 81, 0
2, 26203, Note_off_c, 0, 84, 0
2, 26256, Note_on_c, 0, 69, 96
2, 26256, Note_on_c, 0, 72, 96
2, 26299, Note_off_c, 0, 72, 0
2, 26299, Note_off_c, 0, 69, 0
2, 26352, Note_on_c, 0, 81, 96
2, 26352, Note_on_c, 0, 84, 96
2, 26395, Note_off_c, 0, 84, 0
2, 26395, Note_off_c, 0, 81, 0
2, 26448, Note_on_c, 0, 86, 96
2, 26448, Note_on_c, 0, 82, 96
2, 26491, Note_off_c, 0, 82, 0
2, 26491, Note_off_c, 0, 86, 0
2, 26544, Note_on_c, 0, 81, 96
2, 26544, Note_on_c, 0, 84, 96
2, 26587, Note_off_c, 0, 84, 0
2, 26587, Note_off_c, 0, 81, 0
2, 26640, Note_on_c, 0, 69, 96
2, 26640, Note_on_c, 0, 72, 96
2, 26683, Note_off_c, 0, 72, 0
2, 26683, Note_off_c, 0, 69, 0
2, 26736, Note_on_c, 0, 81, 96
2, 26736, Note_on_c, 0, 84, 96
2, 26779, Note_off_c, 0, 84, 0
2, 26779, Note_off_c, 0, 81, 0
2, 26832, Note_on_c, 0, 82, 96
2, 26832, Note_on_c, 0, 79, 96
2, 26875, Note_off_c, 0, 79, 0
2, 26875, Note_off_c, 0, 82, 0
2, 26928, Note_on_c, 0, 77, 96
2, 26928, Note_on_c, 0, 81, 96
2, 26971, Note_off_c, 0, 81, 0
2, 26971, Note_off_c, 0, 77, 0
2, 27024, Note_on_c, 0, 69, 96
2, 27024, Note_on_c, 0, 72, 96
2, 27067, Note_off_c, 0, 72, 0
2, 27067, Note_off_c, 0, 69, 0
2, 27120, Note_on_c, 0, 72, 96
2, 27120, Note_on_c, 0, 81, 96
2, 27163, Note_off_c, 0, 81, 0
2, 27163, Note_off_c, 0, 72, 0
2, 27216, Note_on_c, 0, 69, 96
2, 27216, Note_on_c, 0, 72, 96
2, 27259, Note_off_c, 0, 72, 0
2, 27259, Note_off_c, 0, 69, 0
2, 27312, Note_on_c, 0, 72, 96
2, 27312, Note_on_c, 0, 81, 96
2, 27355, Note_off_c, 0, 81, 0
2, 27355, Note_off_c, 0, 72, 0
2, 27408, Note_on_c, 0, 69, 96
2, 27408, Note_on_c, 0, 72, 96
2, 27451, Note_off_c, 0, 72, 0
2, 27451, Note_off_c, 0, 69, 0
2, 27504, Note_on_c, 0, 72, 96
2, 27504, Note_on_c, 0, 81, 96
2, 27547, Note_off_c, 0, 81, 0
2, 27547, Note_off_c, 0, 72, 0
2, 27600, Note_on_c, 0, 74, 96
2, 27600, Note_on_c, 0, 82, 96
2, 27643, Note_off_c, 0, 82, 0
2, 27643, Note_off_c, 0, 74, 0
2, 27696, Note_on_c, 0, 72, 96
2, 27696, Note_on_c, 0, 81, 96
2, 27739, Note_off_c, 0, 81, 0
2, 27739, Note_off_c, 0, 72, 0
2, 27792, Note_on_c, 0, 69, 96
2, 27792, Note_on_c, 0, 72, 96
2, 27835, Note_off_c, 0, 72, 0
2, 27835, Note_off_c, 0, 69, 0
2, 27888, Note_on_c, 0, 72, 96
2, 27888, Note_on_c, 0, 81, 96
2, 27931, Note_off_c, 0, 81, 0
2, 27931, Note_off_c, 0, 72, 0
2, 27984, Note_on_c, 0, 70, 96
2, 27984, Note_on_c, 0, 79, 96
2, 28027, Note_off_c, 0, 79, 0
2, 28027, Note_off_c, 0, 70, 0
2, 28080, Note_on_c, 0, 69, 96
2, 28080, Note_on_c, 0, 77, 96
2, 28123, Note_off_c, 0, 77, 0
2, 28123, Note_off_c, 0, 69, 0
2, 28176, Note_on_c, 0, 69, 96
2, 28176, Note_on_c, 0, 77, 96
2, 28219, Note_off_c, 0, 77, 0
2, 28219, Note_off_c, 0, 69, 0
2, 28272, Note_on_c, 0, 76, 96
2, 28272, Note_on_c, 0, 79, 96
2, 28315, Note_off_c, 0, 79, 0
2, 28315, Note_off_c, 0, 76, 0
2, 28368, Note_on_c, 0, 67, 96
2, 28368, Note_on_c, 0, 64, 96
2, 28411, Note_off_c, 0, 64, 0
2, 28411, Note_off_c, 0, 67, 0
2, 28464, Note_on_c, 0, 76, 96
2, 28464, Note_on_c, 0, 79, 96
2, 28507, Note_off_c, 0, 79, 0
2, 28507, Note_off_c, 0, 76, 0
2, 28560, Note_on_c, 0, 67, 96
2, 28560, Note_on_c, 0, 64, 96
2, 28603, Note_off_c, 0, 64, 0
2, 28603, Note_off_c, 0, 67, 0
2, 28656, Note_on_c, 0, 76, 96
2, 28656, Note_on_c, 0, 79, 96
2, 28699, Note_off_c, 0, 79, 0
2, 28699, Note_off_c, 0, 76, 0
2, 28752, Note_on_c, 0, 76, 96
2, 28752, Note_on_c, 0, 80, 96
2, 28795, Note_off_c, 0, 80, 0
2, 28795, Note_off_c, 0, 76, 0
2, 28848, Note_on_c, 0, 77, 96
2, 28848, Note_on_c, 0, 81, 96
2, 28891, Note_off_c, 0, 81, 0
2, 28891, Note_off_c, 0, 77, 0
2, 28944, Note_on_c, 0, 65, 96
2, 28944, Note_on_c, 0, 69, 96
2, 28987, Note_off_c, 0, 69, 0
2, 28987, Note_off_c, 0, 65, 0
2, 29040, Note_on_c, 0, 77, 96
2, 29040, Note_on_c, 0, 81, 96
2, 29083, Note_off_c, 0, 81, 0
2, 29083, Note_off_c, 0, 77, 0
2, 29136, Note_on_c, 0, 76, 96
2, 29136, Note_on_c, 0, 80, 96
2, 29179, Note_off_c, 0, 80, 0
2, 29179, Note_off_c, 0, 76, 0
2, 29232, Note_on_c, 0, 77, 96
2, 29232, Note_on_c, 0, 81, 96
2, 29275, Note_off_c, 0, 81, 0
2, 29275, Note_off_c, 0, 77, 0
2, 29328, Note_on_c, 0, 76, 96
2, 29328, Note_on_c, 0, 80, 96
2, 29371, Note_off_c, 0, 80, 0
2, 29371, Note_off_c, 0, 76, 0
2, 29424, Note_on_c, 0, 77, 96
2, 29424, Note_on_c, 0, 81, 96
2, 29467, Note_off_c, 0, 81, 0
2, 29467, Note_off_c, 0, 77, 0
2, 29520, Note_on_c, 0, 69, 96
2, 29520, Note_on_c, 0, 65, 96
2, 29563, Note_off_c, 0, 65, 0
2, 29563, Note_off_c, 0, 69, 0
2, 29616, Note_on_c, 0, 77, 96
2, 29616, Note_on_c, 0, 81, 96
2, 29659, Note_off_c, 0, 81, 0
2, 29659, Note_off_c, 0, 77, 0
2, 29712, Note_on_c, 0, 69, 96
2, 29712, Note_on_c, 0, 65, 96
2, 29755, Note_off_c, 0, 65, 0
2, 29755, Note_off_c, 0, 69, 0
2, 29808, Note_on_c, 0, 77, 96
2, 29808, Note_on_c, 0, 81, 96
2, 29851, Note_off_c, 0, 81, 0
2, 29851, Note_off_c, 0, 77, 0
2, 29904, Note_on_c, 0, 78, 96
2, 29904, Note_on_c, 0, 81, 96
2, 29947, Note_off_c, 0, 81, 0
2, 29947, Note_off_c, 0, 78, 0
2, 30000, Note_on_c, 0, 79, 96
2, 30000, Note_on_c, 0, 82, 96
2, 30043, Note_off_c, 0, 82, 0
2, 30043, Note_off_c, 0, 79, 0
2, 30096, Note_on_c, 0, 67, 96
2, 30096, Note_on_c, 0, 70, 96
2, 30139, Note_off_c, 0, 70, 0
2, 30139, Note_off_c, 0, 67, 0
2, 30192, Note_on_c, 0, 79, 96
2, 30192, Note_on_c, 0, 82, 96
2, 30235, Note_off_c, 0, 82, 0
2, 30235, Note_off_c, 0, 79, 0
2, 30288, Note_on_c, 0, 78, 96
2, 30288, Note_on_c, 0, 81, 96
2, 30331, Note_off_c, 0, 81, 0
2, 30331, Note_off_c, 0, 78, 0
2, 30384, Note_on_c, 0, 79, 96
2, 30384, Note_on_c, 0, 82, 96
2, 30427, Note_off_c, 0, 82, 0
2, 30427, Note_off_c, 0, 79, 0
2, 30480, Note_on_c, 0, 76, 96
2, 30480, Note_on_c, 0, 80, 96
2, 30523, Note_off_c, 0, 80, 0
2, 30523, Note_off_c, 0, 76, 0
2, 30576, Note_on_c, 0, 77, 96
2, 30576, Note_on_c, 0, 81, 96
2, 30619, Note_off_c, 0, 81, 0
2, 30619, Note_off_c, 0, 77, 0
2, 30672, Note_on_c, 0, 72, 96
2, 30672, Note_on_c, 0, 84, 96
2, 30715, Note_off_c, 0, 84, 0
2, 30715, Note_off_c, 0, 72, 0
2, 30768, Note_on_c, 0, 65, 96
2, 30768, Note_on_c, 0, 77, 96
2, 30811, Note_off_c, 0, 77, 0
2, 30811, Note_off_c, 0, 65, 0
2, 30864, Note_on_c, 0, 66, 96
2, 30864, Note_on_c, 0, 78, 96
2, 30907, Note_off_c, 0, 78, 0
2, 30907, Note_off_c, 0, 66, 0
2, 30960, Note_on_c, 0, 67, 96
2, 30960, Note_on_c, 0, 79, 96
2, 31003, Note_off_c, 0, 79, 0
2, 31003, Note_off_c, 0, 67, 0
2, 31056, Note_on_c, 0, 68, 96
2, 31056, Note_on_c, 0, 80, 96
2, 31099, Note_off_c, 0, 80, 0
2, 31099, Note_off_c, 0, 68, 0
2, 31152, Note_on_c, 0, 69, 96
2, 31152, Note_on_c, 0, 81, 96
2, 31195, Note_off_c, 0, 81, 0
2, 31195, Note_off_c, 0, 69, 0
2, 31248, Note_on_c, 0, 72, 96
2, 31248, Note_on_c, 0, 84, 96
2, 31291, Note_off_c, 0, 84, 0
2, 31291, Note_off_c, 0, 72, 0
2, 31344, Note_on_c, 0, 65, 96
2, 31344, Note_on_c, 0, 77, 96
2, 31387, Note_off_c, 0, 77, 0
2, 31387, Note_off_c, 0, 65, 0
2, 31440, Note_on_c, 0, 66, 96
2, 31440, Note_on_c, 0, 78, 96
2, 31483, Note_off_c, 0, 78, 0
2, 31483, Note_off_c, 0, 66, 0
2, 31536, Note_on_c, 0, 67, 96
2, 31536, Note_on_c, 0, 79, 96
2, 31579, Note_off_c, 0, 79, 0
2, 31579, Note_off_c, 0, 67, 0
2, 31632, Note_on_c, 0, 68, 96
2, 31632, Note_on_c, 0, 80, 96
2, 31675, Note_off_c, 0, 80, 0
2, 31675, Note_off_c, 0, 68, 0
2, 31728, Note_on_c, 0, 69, 96
2, 31728, Note_on_c, 0, 81, 96
2, 31771, Note_off_c, 0, 81, 0
2, 31771, Note_off_c, 0, 69, 0
2, 31824, Note_on_c, 0, 72, 96
2, 31824, Note_on_c, 0, 77, 96
2, 31867, Note_off_c, 0, 77, 0
2, 31867, Note_off_c, 0, 72, 0
2, 31920, Note_on_c, 0, 65, 96
2, 31920, Note_on_c, 0, 74, 96
2, 31963, Note_off_c, 0, 74, 0
2, 31963, Note_off_c, 0, 65, 0
2, 32016, Note_on_c, 0, 70, 96
2, 32016, Note_on_c, 0, 67, 96
2, 32059, Note_off_c, 0, 67, 0
2, 32059, Note_off_c, 0, 70, 0
2, 32112, Note_on_c, 0, 58, 96
2, 32112, Note_on_c, 0, 67, 96
2, 32155, Note_off_c, 0, 67, 0
2, 32155, Note_off_c, 0, 58, 0
2, 32208, Note_on_c, 0, 55, 96
2, 32208, Note_on_c, 0, 64, 96
2, 32251, Note_off_c, 0, 64, 0
2, 32251, Note_off_c, 0, 55, 0
2, 32256, Note_on_c, 0, 65, 96
2, 32256, Note_on_c, 0, 57, 96
2, 32428, Note_off_c, 0, 57, 0
2, 32428, Note_off_c, 0, 65, 0
2, 32512, Note_on_c, 0, 65, 70
2, 32576, Note_off_c, 0, 65, 0
2, 32576, Note_on_c, 0, 64, 70
2, 32640, Note_off_c, 0, 64, 0
2, 32640, Note_on_c, 0, 65, 70
2, 32704, Note_off_c, 0, 65, 0
2, 32704, Note_on_c, 0, 67, 70
2, 32768, Note_off_c, 0, 67, 0
2, 32768, Note_on_c, 0, 69, 70
2, 32832, Note_off_c, 0, 69, 0
2, 32832, Note_on_c, 0, 70, 70
2, 32896, Note_off_c, 0, 70, 0
2, 32896, Note_on_c, 0, 72, 70
2, 32960, Note_off_c, 0, 72, 0
2, 32960, Note_on_c, 0, 69, 70
2, 33024, Note_off_c, 0, 69, 0
2, 33024, Note_on_c, 0, 70, 70
2, 33088, Note_off_c, 0, 70, 0
2, 33088, Note_on_c, 0, 74, 70
2, 33152, Note_off_c, 0, 74, 0
2, 33152, Note_on_c, 0, 72, 70
2, 33216, Note_off_c, 0, 72, 0
2, 33216, Note_on_c, 0, 74, 70
2, 33280, Note_off_c, 0, 74, 0
2, 33280, Note_on_c, 0, 72, 70
2, 33344, Note_off_c, 0, 72, 0
2, 33344, Note_on_c, 0, 70, 70
2, 33408, Note_off_c, 0, 70, 0
2, 33408, Note_on_c, 0, 70, 70
2, 33472, Note_off_c, 0, 70, 0
2, 33472, Note_on_c, 0, 69, 70
2, 33536, Note_off_c, 0, 69, 0
2, 33536, Note_on_c, 0, 68, 70
2, 33600, Note_off_c, 0, 68, 0
2, 33600, Note_on_c, 0, 69, 70
2, 33632, Note_off_c, 0, 69, 0
2, 33664, Note_on_c, 0, 69, 70
2, 33728, Note_off_c, 0, 69, 0
2, 33728, Note_on_c, 0, 68, 70
2, 33792, Note_off_c, 0, 68, 0
2, 33792, Note_on_c, 0, 69, 70
2, 33856, Note_off_c, 0, 69, 0
2, 33856, Note_on_c, 0, 70, 70
2, 33920, Note_off_c, 0, 70, 0
2, 33920, Note_on_c, 0, 72, 70
2, 33984, Note_off_c, 0, 72, 0
2, 33984, Note_on_c, 0, 74, 70
2, 34048, Note_off_c, 0, 74, 0
2, 34048, Note_on_c, 0, 76, 70
2, 34112, Note_off_c, 0, 76, 0
2, 34112, Note_on_c, 0, 73, 70
2, 34176, Note_off_c, 0, 73, 0
2, 34176, Note_on_c, 0, 74, 70
2, 34240, Note_off_c, 0, 74, 0
2, 34240, Note_on_c, 0, 77, 70
2, 34304, Note_off_c, 0, 77, 0
2, 34304, Note_on_c, 0, 76, 70
2, 34368, Note_off_c, 0, 76, 0
2, 34368, Note_on_c, 0, 77, 70
2, 34432, Note_off_c, 0, 77, 0
2, 34432, Note_on_c, 0, 76, 70
2, 34496, Note_off_c, 0, 76, 0
2, 34496, Note_on_c, 0, 74, 70
2, 34553, Note_off_c, 0, 74, 0
2, 34560, Note_on_c, 0, 74, 70
2, 34624, Note_off_c, 0, 74, 0
2, 34624, Note_on_c, 0, 72, 70
2, 34688, Note_off_c, 0, 72, 0
2, 34688, Note_on_c, 0, 71, 70
2, 34752, Note_off_c, 0, 71, 0
2, 34752, Note_on_c, 0, 72, 70
2, 34924, Note_off_c, 0, 72, 0
2, 35136, Note_on_c, 0, 64, 101
2, 35136, Note_on_c, 0, 67, 101
2, 35136, Note_on_c, 0, 72, 101
2, 35280, Note_off_c, 0, 72, 0
2, 35280, Note_on_c, 0, 76, 101
2, 35308, Note_off_c, 0, 67, 0
2, 35308, Note_off_c, 0, 64, 0
2, 35323, Note_off_c, 0, 76, 0
2, 35328, Note_on_c, 0, 67, 101
2, 35371, Note_off_c, 0, 67, 0
2, 35424, Note_on_c, 0, 67, 101
2, 35467, Note_off_c, 0, 67, 0
2, 35616, Note_on_c, 0, 65, 101
2, 35616, Note_on_c, 0, 71, 101
2, 35702, Note_off_c, 0, 71, 0
2, 35702, Note_off_c, 0, 65, 0
2, 35712, Note_on_c, 0, 64, 101
2, 35712, Note_on_c, 0, 72, 101
2, 35856, Note_off_c, 0, 72, 0
2, 35856, Note_on_c, 0, 76, 101
2, 35884, Note_off_c, 0, 64, 0
2, 35899, Note_off_c, 0, 76, 0
2, 35904, Note_on_c, 0, 67, 101
2, 35947, Note_off_c, 0, 67, 0
2, 36000, Note_on_c, 0, 67, 101
2, 36043, Note_off_c, 0, 67, 0
2, 36192, Note_on_c, 0, 65, 101
2, 36192, Note_on_c, 0, 71, 101
2, 36278, Note_off_c, 0, 71, 0
2, 36278, Note_off_c, 0, 65, 0
2, 36288, Note_on_c, 0, 64, 101
2, 36288, Note_on_c, 0, 67, 101
2, 36288, Note_on_c, 0, 72, 101
2, 36432, Note_off_c, 0, 72, 0
2, 36432, Note_on_c, 0, 76, 101
2, 36460, Note_off_c, 0, 67, 0
2, 36460, Note_off_c, 0, 64, 0
2, 36475, Note_off_c, 0, 76, 0
2, 36480, Note_on_c, 0, 79, 101
2, 36523, Note_off_c, 0, 79, 0
2, 36576, Note_on_c, 0, 79, 101
2, 36619, Note_off_c, 0, 79, 0
2, 36768, Note_on_c, 0, 65, 101
2, 36768, Note_on_c, 0, 71, 101
2, 36854, Note_off_c, 0, 71, 0
2, 36854, Note_off_c, 0, 65, 0
2, 36864, Note_on_c, 0, 64, 101
2, 36864, Note_on_c, 0, 67, 101
2, 36864, Note_on_c, 0, 72, 101
2, 37036, Note_off_c, 0, 72, 0
2, 37036, Note_off_c, 0, 67, 0
2, 37036, Note_off_c, 0, 64, 0
2, 37056, Note_on_c, 0, 72, 70
2, 37104, Note_off_c, 0, 72, 0
2, 37104, Note_on_c, 0, 73, 70
2, 37152, Note_off_c, 0, 73, 0
2, 37152, Note_on_c, 0, 85, 70
2, 37200, Note_off_c, 0, 85, 0
2, 37200, Note_on_c, 0, 73, 70
2, 37248, Note_off_c, 0, 73, 0
2, 37248, Note_on_c, 0, 86, 70
2, 37296, Note_off_c, 0, 86, 0
2, 37296, Note_on_c, 0, 74, 70
2, 37344, Note_off_c, 0, 74, 0
2, 37344, Note_on_c, 0, 84, 70
2, 37392, Note_off_c, 0, 84, 0
2, 37392, Note_on_c, 0, 72, 70
2, 37440, Note_off_c, 0, 72, 0
2, 37440, Note_on_c, 0, 82, 70
2, 37488, Note_off_c, 0, 82, 0
2, 37488, Note_on_c, 0, 70, 70
2, 37536, Note_off_c, 0, 70, 0
2, 37536, Note_on_c, 0, 81, 70
2, 37584, Note_off_c, 0, 81, 0
2, 37584, Note_on_c, 0, 69, 70
2, 37632, Note_off_c, 0, 69, 0
2, 37632, Note_on_c, 0, 79, 70
2, 37680, Note_off_c, 0, 79, 0
2, 37680, Note_on_c, 0, 67, 70
2, 37728, Note_off_c, 0, 67, 0
2, 37728, Note_on_c, 0, 82, 70
2, 37776, Note_off_c, 0, 82, 0
2, 37776, Note_on_c, 0, 70, 70
2, 37824, Note_off_c, 0, 70, 0
2, 37824, Note_on_c, 0, 81, 70
2, 37872, Note_off_c, 0, 81, 0
2, 37872, Note_on_c, 0, 69, 70
2, 37920, Note_off_c, 0, 69, 0
2, 37920, Note_on_c, 0, 79, 70
2, 37968, Note_off_c, 0, 79, 0
2, 37968, Note_on_c, 0, 67, 70
2, 38011, Note_off_c, 0, 67, 0
2, 38016, Note_on_c, 0, 64, 70
2, 38016, Note_on_c, 0, 76, 70
2, 38112, Note_off_c, 0, 76, 0
2, 38112, Note_off_c, 0, 64, 0
2, 38112, Note_on_c, 0, 65, 70
2, 38112, Note_on_c, 0, 77, 70
2, 38198, Note_off_c, 0, 77, 0
2, 38198, Note_off_c, 0, 65, 0
2, 38208, Note_on_c, 0, 65, 70
2, 38208, Note_on_c, 0, 77, 70
2, 38380, Note_off_c, 0, 77, 0
2, 38380, Note_off_c, 0, 65, 0
2, 38592, Note_on_c, 0, 60, 85
2, 38608, Note_on_c, 0, 65, 85
2, 38624, Note_on_c, 0, 69, 85
2, 38640, Note_on_c, 0, 72, 85
2, 38764, Note_off_c, 0, 60, 0
2, 38766, Note_off_c, 0, 65, 0
2, 38768, Note_off_c, 0, 69, 0
2, 38769, Note_off_c, 0, 72, 0
2, 38784, Note_on_c, 0, 69, 85
2, 38784, Note_on_c, 0, 72, 85
2, 38976, Note_off_c, 0, 72, 0
2, 38976, Note_off_c, 0, 69, 0
2, 38976, Note_on_c, 0, 69, 85
2, 38976, Note_on_c, 0, 72, 85
2, 39105, Note_off_c, 0, 72, 0
2, 39105, Note_off_c, 0, 69, 0
2, 39120, Note_on_c, 0, 74, 85
2, 39120, Note_on_c, 0, 70, 85
2, 39163, Note_off_c, 0, 70, 0
2, 39163, Note_off_c, 0, 74, 0
2, 39168, Note_on_c, 0, 69, 85
2, 39168, Note_on_c, 0, 72, 85
2, 39360, Note_off_c, 0, 72, 0
2, 39360, Note_off_c, 0, 69, 0
2, 39360, Note_on_c, 0, 69, 85
2, 39360, Note_on_c, 0, 72, 85
2, 39489, Note_off_c, 0, 72, 0
2, 39489, Note_off_c, 0, 69, 0
2, 39504, Note_on_c, 0, 67, 85
2, 39504, Note_on_c, 0, 70, 85
2, 39547, Note_off_c, 0, 70, 0
2, 39547, Note_off_c, 0, 67, 0
2, 39552, Note_on_c, 0, 65, 85
2, 39552, Note_on_c, 0, 69, 85
2, 39724, Note_off_c, 0, 69, 0
2, 39724, Note_off_c, 0, 65, 0
2, 39744, Note_on_c, 0, 60, 85
2, 39744, Note_on_c, 0, 69, 85
2, 39916, Note_off_c, 0, 69, 0
2, 39916, Note_off_c, 0, 60, 0
2, 39936, Note_on_c, 0, 60, 85
2, 39936, Note_on_c, 0, 69, 85
2, 40128, Note_off_c, 0, 69, 0
2, 40128, Note_off_c, 0, 60, 0
2, 40128, Note_on_c, 0, 60, 85
2, 40128, Note_on_c, 0, 69, 85
2, 40257, Note_off_c, 0, 69, 0
2, 40257, Note_off_c, 0, 60, 0
2, 40272, Note_on_c, 0, 70, 85
2, 40272, Note_on_c, 0, 62, 85
2, 40315, Note_off_c, 0, 62, 0
2, 40315, Note_off_c, 0, 70, 0
2, 40320, Note_on_c, 0, 60, 85
2, 40320, Note_on_c, 0, 69, 85
2, 40512, Note_off_c, 0, 69, 0
2, 40512, Note_off_c, 0, 60, 0
2, 40512, Note_on_c, 0, 60, 85
2, 40512, Note_on_c, 0, 69, 85
2, 40641, Note_off_c, 0, 69, 0
2, 40641, Note_off_c, 0, 60, 0
2, 40656, Note_on_c, 0, 67, 85
2, 40656, Note_on_c, 0, 58, 85
2, 40699, Note_off_c, 0, 58, 0
2, 40699, Note_off_c, 0, 67, 0
2, 40704, Note_on_c, 0, 57, 85
2, 40704, Note_on_c, 0, 65, 85
2, 40876, Note_off_c, 0, 65, 0
2, 40876, Note_off_c, 0, 57, 0
2, 40896, Note_on_c, 0, 55, 85
2, 40912, Note_on_c, 0, 60, 85
2, 40928, Note_on_c, 0, 64, 85
2, 40944, Note_on_c, 0, 67, 85
2, 41068, Note_off_c, 0, 55, 0
2, 41070, Note_off_c, 0, 60, 0
2, 41072, Note_off_c, 0, 64, 0
2, 41073, Note_off_c, 0, 67, 0
2, 41088, Note_on_c, 0, 60, 85
2, 41088, Note_on_c, 0, 64, 85
2, 41088, Note_on_c, 0, 67, 85
2, 41260, Note_off_c, 0, 67, 0
2, 41260, Note_off_c, 0, 64, 0
2, 41260, Note_off_c, 0, 60, 0
2, 41280, Note_on_c, 0, 60, 85
2, 41280, Note_on_c, 0, 64, 85
2, 41280, Note_on_c, 0, 67, 85
2, 41452, Note_off_c, 0, 67, 0
2, 41452, Note_off_c, 0, 64, 0
2, 41452, Note_off_c, 0, 60, 0
2, 41472, Note_on_c, 0, 69, 85
2, 41472, Note_on_c, 0, 65, 85
2, 41472, Note_on_c, 0, 60, 85
2, 41664, Note_off_c, 0, 60, 0
2, 41664, Note_off_c, 0, 65, 0
2, 41664, Note_off_c, 0, 69, 0
2, 41664, Note_on_c, 0, 69, 85
2, 41664, Note_on_c, 0, 65, 85
2, 41793, Note_off_c, 0, 65, 0
2, 41793, Note_off_c, 0, 69, 0
2, 41808, Note_on_c, 0, 64, 85
2, 41808, Note_on_c, 0, 68, 85
2, 41851, Note_off_c, 0, 68, 0
2, 41851, Note_off_c, 0, 64, 0
2, 41856, Note_on_c, 0, 65, 85
2, 41856, Note_on_c, 0, 69, 85
2, 42028, Note_off_c, 0, 69, 0
2, 42028, Note_off_c, 0, 65, 0
2, 42048, Note_on_c, 0, 69, 85
2, 42048, Note_on_c, 0, 65, 85
2, 42048, Note_on_c, 0, 60, 85
2, 42220, Note_off_c, 0, 60, 0
2, 42220, Note_off_c, 0, 65, 0
2, 42220, Note_off_c, 0, 69, 0
2, 42240, Note_on_c, 0, 69, 85
2, 42240, Note_on_c, 0, 65, 85
2, 42240, Note_on_c, 0, 60, 85
2, 42412, Note_off_c, 0, 60, 0
2, 42412, Note_off_c, 0, 65, 0
2, 42412, Note_off_c, 0, 69, 0
2, 42432, Note_on_c, 0, 69, 85
2, 42432, Note_on_c, 0, 66, 85
2, 42432, Note_on_c, 0, 60, 85
2, 42604, Note_off_c, 0, 60, 0
2, 42604, Note_off_c, 0, 66, 0
2, 42604, Note_off_c, 0, 69, 0
2, 42624, Note_on_c, 0, 67, 85
2, 42624, Note_on_c, 0, 70, 85
2, 42624, Note_on_c, 0, 64, 85
2, 42624, Note_on_c, 0, 60, 85
2, 42816, Note_off_c, 0, 60, 0
2, 42816, Note_off_c, 0, 64, 0
2, 42816, Note_off_c, 0, 70, 0
2, 42816, Note_off_c, 0, 67, 0
2, 42816, Note_on_c, 0, 67, 86
2, 42816, Note_on_c, 0, 70, 86
2, 42945, Note_off_c, 0, 70, 0
2, 42945, Note_off_c, 0, 67, 0
2, 42960, Note_on_c, 0, 69, 86
2, 42960, Note_on_c, 0, 66, 86
2, 43003, Note_off_c, 0, 66, 0
2, 43003, Note_off_c, 0, 69, 0
2, 43008, Note_on_c, 0, 67, 86
2, 43008, Note_on_c, 0, 70, 86
2, 43180, Note_off_c, 0, 70, 0
2, 43180, Note_off_c, 0, 67, 0
2, 43200, Note_on_c, 0, 69, 86
2, 43200, Note_on_c, 0, 65, 86
2, 43344, Note_off_c, 0, 65, 0
2, 43344, Note_off_c, 0, 69, 0
2, 43344, Note_on_c, 0, 72, 86
2, 43387, Note_off_c, 0, 72, 0
2, 43392, Note_on_c, 0, 60, 86
2, 43392, Note_on_c, 0, 65, 86
2, 43435, Note_off_c, 0, 65, 0
2, 43435, Note_off_c, 0, 60, 0
2, 43488, Note_on_c, 0, 60, 86
2, 43488, Note_on_c, 0, 65, 86
2, 43531, Note_off_c, 0, 65, 0
2, 43531, Note_off_c, 0, 60, 0
2, 43584, Note_on_c, 0, 64, 86
2, 43584, Note_on_c, 0, 67, 86
2, 43627, Note_off_c, 0, 67, 0
2, 43627, Note_off_c, 0, 64, 0
2, 43680, Note_on_c, 0, 64, 86
2, 43680, Note_on_c, 0, 67, 86
2, 43723, Note_off_c, 0, 67, 0
2, 43723, Note_off_c, 0, 64, 0
2, 43776, Note_on_c, 0, 69, 85
2, 43776, Note_on_c, 0, 65, 85
2, 43920, Note_off_c, 0, 65, 0
2, 43920, Note_off_c, 0, 69, 0
2, 43920, Note_on_c, 0, 72, 85
2, 43963, Note_off_c, 0, 72, 0
2, 43968, Note_on_c, 0, 65, 85
2, 43968, Note_on_c, 0, 60, 85
2, 44011, Note_off_c, 0, 60, 0
2, 44011, Note_off_c, 0, 65, 0
2, 44064, Note_on_c, 0, 65, 85
2, 44064, Note_on_c, 0, 60, 85
2, 44107, Note_off_c, 0, 60, 0
2, 44107, Note_off_c, 0, 65, 0
2, 44160, Note_on_c, 0, 67, 85
2, 44160, Note_on_c, 0, 64, 85
2, 44203, Note_off_c, 0, 64, 0
2, 44203, Note_off_c, 0, 67, 0
2, 44256, Note_on_c, 0, 67, 85
2, 44256, Note_on_c, 0, 64, 85
2, 44299, Note_off_c, 0, 64, 0
2, 44299, Note_off_c, 0, 67, 0
2, 44352, Note_on_c, 0, 69, 85
2, 44400, Note_off_c, 0, 69, 0
2, 44400, Note_on_c, 0, 77, 85
2, 44448, Note_off_c, 0, 77, 0
2, 44448, Note_on_c, 0, 72, 85
2, 44496, Note_off_c, 0, 72, 0
2, 44496, Note_on_c, 0, 69, 85
2, 44544, Note_off_c, 0, 69, 0
2, 44544, Note_on_c, 0, 67, 85
2, 44592, Note_off_c, 0, 67, 0
2, 44592, Note_on_c, 0, 74, 85
2, 44640, Note_off_c, 0, 74, 0
2, 44640, Note_on_c, 0, 70, 85
2, 44688, Note_off_c, 0, 70, 0
2, 44688, Note_on_c, 0, 67, 85
2, 44736, Note_off_c, 0, 67, 0
2, 44736, Note_on_c, 0, 64, 85
2, 44784, Note_off_c, 0, 64, 0
2, 44784, Note_on_c, 0, 70, 85
2, 44832, Note_off_c, 0, 70, 0
2, 44832, Note_on_c, 0, 67, 85
2, 44880, Note_off_c, 0, 67, 0
2, 44880, Note_on_c, 0, 64, 85
2, 44928, Note_off_c, 0, 64, 0
2, 44928, Note_on_c, 0, 65, 85
2, 45014, Note_off_c, 0, 65, 0
2, 45024, Note_on_c, 0, 77, 85
2, 45216, Note_off_c, 0, 77, 0
2, 45216, Note_on_c, 0, 75, 85
2, 45312, Note_off_c, 0, 75, 0
2, 45312, Note_on_c, 0, 74, 85
2, 45408, Note_off_c, 0, 74, 0
2, 45408, Note_on_c, 0, 72, 85
2, 45494, Note_off_c, 0, 72, 0
2, 45504, Note_on_c, 0, 72, 85
2, 45600, Note_off_c, 0, 72, 0
2, 45600, Note_on_c, 0, 71, 85
2, 45696, Note_off_c, 0, 71, 0
2, 45696, Note_on_c, 0, 70, 85
2, 45739, Note_off_c, 0, 70, 0
2, 45792, Note_on_c, 0, 70, 85
2, 45835, Note_off_c, 0, 70, 0
2, 45888, Note_on_c, 0, 70, 85
2, 45931, Note_off_c, 0, 70, 0
2, 45984, Note_on_c, 0, 70, 85
2, 46027, Note_off_c, 0, 70, 0
2, 46080, Note_on_c, 0, 69, 85
2, 46166, Note_off_c, 0, 69, 0
2, 46176, Note_on_c, 0, 80, 85
2, 46197, Note_off_c, 0, 80, 0
2, 46200, Note_on_c, 0, 81, 85
2, 46368, Note_off_c, 0, 81, 0
2, 46368, Note_on_c, 0, 79, 84
2, 46464, Note_off_c, 0, 79, 0
2, 46464, Note_on_c, 0, 77, 85
2, 46560, Note_off_c, 0, 77, 0
2, 46560, Note_on_c, 0, 76, 85
2, 46646, Note_off_c, 0, 76, 0
2, 46656, Note_on_c, 0, 76, 85
2, 46752, Note_off_c, 0, 76, 0
2, 46752, Note_on_c, 0, 73, 85
2, 46848, Note_off_c, 0, 73, 0
2, 46848, Note_on_c, 0, 74, 85
2, 46896, Note_off_c, 0, 74, 0
2, 46896, Note_on_c, 0, 76, 85
2, 46944, Note_off_c, 0, 76, 0
2, 46944, Note_on_c, 0, 77, 85
2, 46992, Note_off_c, 0, 77, 0
2, 46992, Note_on_c, 0, 76, 85
2, 47040, Note_off_c, 0, 76, 0
2, 47040, Note_on_c, 0, 79, 85
2, 47088, Note_off_c, 0, 79, 0
2, 47088, Note_on_c, 0, 77, 85
2, 47136, Note_off_c, 0, 77, 0
2, 47136, Note_on_c, 0, 76, 85
2, 47184, Note_off_c, 0, 76, 0
2, 47184, Note_on_c, 0, 74, 85
2, 47232, Note_off_c, 0, 74, 0
2, 47232, Note_on_c, 0, 77, 85
2, 47376, Note_off_c, 0, 77, 0
2, 47376, Note_on_c, 0, 74, 85
2, 47424, Note_off_c, 0, 74, 0
2, 47424, Note_on_c, 0, 72, 85
2, 47596, Note_off_c, 0, 72, 0
2, 47856, Note_on_c, 0, 67, 85
2, 47880, Note_off_c, 0, 67, 0
2, 47880, Note_on_c, 0, 72, 85
2, 47904, Note_off_c, 0, 72, 0
2, 47904, Note_on_c, 0, 76, 90
2, 47928, Note_off_c, 0, 76, 0
2, 47928, Note_on_c, 0, 79, 90
2, 47952, Note_off_c, 0, 79, 0
2, 47952, Note_on_c, 0, 76, 90
2, 47976, Note_off_c, 0, 76, 0
2, 47976, Note_on_c, 0, 72, 85
2, 48000, Note_off_c, 0, 72, 0
2, 48000, Note_on_c, 0, 67, 85
2, 48096, Note_off_c, 0, 67, 0
2, 48096, Note_on_c, 0, 67, 85
2, 48268, Note_off_c, 0, 67, 0
2, 48288, Note_on_c, 0, 65, 85
2, 48288, Note_on_c, 0, 71, 85
2, 48374, Note_off_c, 0, 71, 0
2, 48374, Note_off_c, 0, 65, 0
2, 48432, Note_on_c, 0, 67, 85
2, 48456, Note_off_c, 0, 67, 0
2, 48456, Note_on_c, 0, 72, 85
2, 48480, Note_off_c, 0, 72, 0
2, 48480, Note_on_c, 0, 76, 90
2, 48504, Note_off_c, 0, 76, 0
2, 48504, Note_on_c, 0, 79, 90
2, 48528, Note_off_c, 0, 79, 0
2, 48528, Note_on_c, 0, 76, 90
2, 48552, Note_off_c, 0, 76, 0
2, 48552, Note_on_c, 0, 72, 85
2, 48576, Note_off_c, 0, 72, 0
2, 48576, Note_on_c, 0, 67, 85
2, 48672, Note_off_c, 0, 67, 0
2, 48672, Note_on_c, 0, 67, 85
2, 48844, Note_off_c, 0, 67, 0
2, 48864, Note_on_c, 0, 71, 85
2, 48864, Note_on_c, 0, 65, 85
2, 48950, Note_off_c, 0, 65, 0
2, 48950, Note_off_c, 0, 71, 0
2, 49008, Note_on_c, 0, 67, 85
2, 49032, Note_off_c, 0, 67, 0
2, 49032, Note_on_c, 0, 72, 85
2, 49056, Note_off_c, 0, 72, 0
2, 49056, Note_on_c, 0, 76, 90
2, 49080, Note_off_c, 0, 76, 0
2, 49080, Note_on_c, 0, 79, 90
2, 49104, Note_off_c, 0, 79, 0
2, 49104, Note_on_c, 0, 76, 90
2, 49128, Note_off_c, 0, 76, 0
2, 49128, Note_on_c, 0, 72, 85
2, 49152, Note_off_c, 0, 72, 0
2, 49152, Note_on_c, 0, 67, 85
2, 49248, Note_off_c, 0, 67, 0
2, 49248, Note_on_c, 0, 67, 85
2, 49420, Note_off_c, 0, 67, 0
2, 49440, Note_on_c, 0, 71, 85
2, 49440, Note_on_c, 0, 65, 85
2, 49526, Note_off_c, 0, 65, 0
2, 49526, Note_off_c, 0, 71, 0
2, 49536, Note_on_c, 0, 72, 85
2, 49536, Note_on_c, 0, 64, 85
2, 49795, Note_off_c, 0, 64, 0
2, 49795, Note_off_c, 0, 72, 0
2, 49824, Note_on_c, 0, 73, 85
2, 49910, Note_off_c, 0, 73, 0
2, 49920, Note_on_c, 0, 76, 65
2, 49968, Note_off_c, 0, 76, 0
2, 49968, Note_on_c, 0, 74, 65
2, 50011, Note_off_c, 0, 74, 0
2, 50016, Note_on_c, 0, 74, 65
2, 50064, Note_off_c, 0, 74, 0
2, 50064, Note_on_c, 0, 72, 65
2, 50107, Note_off_c, 0, 72, 0
2, 50112, Note_on_c, 0, 72, 65
2, 50160, Note_off_c, 0, 72, 0
2, 50160, Note_on_c, 0, 70, 65
2, 50203, Note_off_c, 0, 70, 0
2, 50208, Note_on_c, 0, 70, 65
2, 50256, Note_off_c, 0, 70, 0
2, 50256, Note_on_c, 0, 69, 65
2, 50299, Note_off_c, 0, 69, 0
2, 50304, Note_on_c, 0, 69, 65
2, 50352, Note_off_c, 0, 69, 0
2, 50352, Note_on_c, 0, 67, 65
2, 50395, Note_off_c, 0, 67, 0
2, 50400, Note_on_c, 0, 67, 65
2, 50448, Note_off_c, 0, 67, 0
2, 50448, Note_on_c, 0, 69, 65
2, 50491, Note_off_c, 0, 69, 0
2, 50496, Note_on_c, 0, 69, 65
2, 50544, Note_off_c, 0, 69, 0
2, 50544, Note_on_c, 0, 70, 65
2, 50587, Note_off_c, 0, 70, 0
2, 50592, Note_on_c, 0, 70, 65
2, 50640, Note_off_c, 0, 70, 0
2, 50640, Note_on_c, 0, 67, 65
2, 50683, Note_off_c, 0, 67, 0
2, 50688, Note_on_c, 0, 59, 65
2, 50688, Note_on_c, 0, 64, 65
2, 50784, Note_off_c, 0, 64, 0
2, 50784, Note_off_c, 0, 59, 0
2, 50784, Note_on_c, 0, 57, 65
2, 50784, Note_on_c, 0, 65, 65
2, 50870, Note_off_c, 0, 65, 0
2, 50870, Note_off_c, 0, 57, 0
2, 50880, Note_on_c, 0, 57, 65
2, 50880, Note_on_c, 0, 65, 65
2, 51072, Note_off_c, 0, 65, 0
2, 51072, Note_off_c, 0, 57, 0
2, 51360, Note_on_c, 0, 72, 45
2, 51456, Note_off_c, 0, 72, 0
2, 51456, Note_on_c, 0, 68, 45
2, 51552, Note_off_c, 0, 68, 0
2, 51552, Note_on_c, 0, 65, 45
2, 51724, Note_off_c, 0, 65, 0
2, 51744, Note_on_c, 0, 73, 45
2, 51840, Note_off_c, 0, 73, 0
2, 51840, Note_on_c, 0, 73, 45
2, 51926, Note_off_c, 0, 73, 0
2, 51936, Note_on_c, 0, 72, 45
2, 52108, Note_off_c, 0, 72, 0
2, 52128, Note_on_c, 0, 70, 45
2, 52300, Note_off_c, 0, 70, 0
2, 52320, Note_on_c, 0, 68, 45
2, 52406, Note_off_c, 0, 68, 0
2, 52512, Note_on_c, 0, 68, 45
2, 52608, Note_off_c, 0, 68, 0
2, 52608, Note_on_c, 0, 64, 45
2, 52704, Note_off_c, 0, 64, 0
2, 52704, Note_on_c, 0, 65, 45
2, 52876, Note_off_c, 0, 65, 0
2, 52896, Note_on_c, 0, 70, 45
2, 52992, Note_off_c, 0, 70, 0
2, 52992, Note_on_c, 0, 70, 45
2, 53078, Note_off_c, 0, 70, 0
2, 53088, Note_on_c, 0, 68, 45
2, 53260, Note_off_c, 0, 68, 0
2, 53280, Note_on_c, 0, 67, 45
2, 53452, Note_off_c, 0, 67, 0
2, 53472, Note_on_c, 0, 65, 45
2, 53558, Note_off_c, 0, 65, 0
2, 53664, Note_on_c, 0, 67, 45
2, 53760, Note_off_c, 0, 67, 0
2, 53760, Note_on_c, 0, 64, 45
2, 53856, Note_off_c, 0, 64, 0
2, 53856, Note_on_c, 0, 59, 45
2, 53952, Note_off_c, 0, 59, 0
2, 53952, Note_on_c, 0, 60, 45
2, 54038, Note_off_c, 0, 60, 0
2, 54048, Note_on_c, 0, 67, 45
2, 54048, Note_on_c, 0, 64, 45
2, 54134, Note_off_c, 0, 64, 0
2, 54134, Note_off_c, 0, 67, 0
2, 54144, Note_on_c, 0, 68, 45
2, 54144, Note_on_c, 0, 65, 45
2, 54403, Note_off_c, 0, 65, 0
2, 54403, Note_off_c, 0, 68, 0
2, 54432, Note_on_c, 0, 67, 45
2, 54432, Note_on_c, 0, 64, 45
2, 54528, Note_off_c, 0, 64, 0
2, 54528, Note_off_c, 0, 67, 0
2, 54528, Note_on_c, 0, 68, 45
2, 54528, Note_on_c, 0, 65, 45
2, 54624, Note_off_c, 0, 65, 0
2, 54624, Note_off_c, 0, 68, 0
2, 54624, Note_on_c, 0, 67, 45
2, 54624, Note_on_c, 0, 64, 45
2, 54710, Note_off_c, 0, 64, 0
2, 54710, Note_off_c, 0, 67, 0
2, 54816, Note_on_c, 0, 68, 45
2, 54912, Note_off_c, 0, 68, 0
2, 54912, Note_on_c, 0, 65, 45
2, 55008, Note_off_c, 0, 65, 0
2, 55008, Note_on_c, 0, 59, 45
2, 55104, Note_off_c, 0, 59, 0
2, 55104, Note_on_c, 0, 60, 45
2, 55190, Note_off_c, 0, 60, 0
2, 55200, Note_on_c, 0, 68, 45
2, 55200, Note_on_c, 0, 65, 45
2, 55286, Note_off_c, 0, 65, 0
2, 55286, Note_off_c, 0, 68, 0
2, 55296, Note_on_c, 0, 67, 45
2, 55296, Note_on_c, 0, 70, 45
2, 55555, Note_off_c, 0, 70, 0
2, 55555, Note_off_c, 0, 67, 0
2, 55584, Note_on_c, 0, 69, 45
2, 55584, Note_on_c, 0, 66, 45
2, 55680, Note_off_c, 0, 66, 0
2, 55680, Note_off_c, 0, 69, 0
2, 55680, Note_on_c, 0, 67, 45
2, 55680, Note_on_c, 0, 70, 45
2, 55776, Note_off_c, 0, 70, 0
2, 55776, Note_off_c, 0, 67, 0
2, 55776, Note_on_c, 0, 64, 45
2, 55776, Note_on_c, 0, 67, 45
2, 55862, Note_off_c, 0, 67, 0
2, 55862, Note_off_c, 0, 64, 0
2, 55872, Note_on_c, 0, 65, 45
2, 55872, Note_on_c, 0, 68, 45
2, 55968, Note_off_c, 0, 68, 0
2, 55968, Note_off_c, 0, 65, 0
2, 55968, Note_on_c, 0, 73, 45
2, 56054, Note_off_c, 0, 73, 0
2, 56064, Note_on_c, 0, 72, 45
2, 56160, Note_off_c, 0, 72, 0
2, 56160, Note_on_c, 0, 65, 45
2, 56246, Note_off_c, 0, 65, 0
2, 56256, Note_on_c, 0, 67, 45
2, 56256, Note_on_c, 0, 64, 45
2, 56304, Note_off_c, 0, 64, 0
2, 56304, Note_off_c, 0, 67, 0
2, 56352, Note_on_c, 0, 70, 45
2, 56352, Note_on_c, 0, 67, 45
2, 56438, Note_off_c, 0, 67, 0
2, 56438, Note_off_c, 0, 70, 0
2, 56448, Note_on_c, 0, 65, 45
2, 56448, Note_on_c, 0, 68, 45
2, 56544, Note_off_c, 0, 68, 0
2, 56544, Note_off_c, 0, 65, 0
2, 56544, Note_on_c, 0, 73, 45
2, 56630, Note_off_c, 0, 73, 0
2, 56640, Note_on_c, 0, 72, 45
2, 56736, Note_off_c, 0, 72, 0
2, 56736, Note_on_c, 0, 65, 45
2, 56822, Note_off_c, 0, 65, 0
2, 56832, Note_on_c, 0, 67, 45
2, 56832, Note_on_c, 0, 64, 45
2, 56928, Note_off_c, 0, 64, 0
2, 56928, Note_off_c, 0, 67, 0
2, 56928, Note_on_c, 0, 70, 45
2, 56928, Note_on_c, 0, 67, 45
2, 57014, Note_off_c, 0, 67, 0
2, 57014, Note_off_c, 0, 70, 0
2, 57024, Note_on_c, 0, 65, 45
2, 57024, Note_on_c, 0, 68, 45
2, 57120, Note_off_c, 0, 68, 0
2, 57120, Note_off_c, 0, 65, 0
2, 57120, Note_on_c, 0, 77, 45
2, 57206, Note_off_c, 0, 77, 0
2, 57216, Note_on_c, 0, 67, 45
2, 57312, Note_off_c, 0, 67, 0
2, 57312, Note_on_c, 0, 73, 45
2, 57398, Note_off_c, 0, 73, 0
2, 57408, Note_on_c, 0, 72, 45
2, 57504, Note_off_c, 0, 72, 0
2, 57504, Note_on_c, 0, 64, 45
2, 57590, Note_off_c, 0, 64, 0
2, 57600, Note_on_c, 0, 67, 45
2, 57696, Note_off_c, 0, 67, 0
2, 57696, Note_on_c, 0, 65, 45
2, 57782, Note_off_c, 0, 65, 0
2, 57888, Note_on_c, 0, 65, 45
2, 57984, Note_off_c, 0, 65, 0
2, 57984, Note_on_c, 0, 67, 45
2, 58080, Note_off_c, 0, 67, 0
2, 58080, Note_on_c, 0, 69, 45
2, 58176, Note_off_c, 0, 69, 0
2, 58176, Note_on_c, 0, 72, 45
2, 58272, Note_off_c, 0, 72, 0
2, 58272, Note_on_c, 0, 70, 45
2, 58464, Note_off_c, 0, 70, 0
2, 58464, Note_on_c, 0, 73, 45
2, 58560, Note_off_c, 0, 73, 0
2, 58560, Note_on_c, 0, 72, 45
2, 58656, Note_off_c, 0, 72, 0
2, 58656, Note_on_c, 0, 70, 45
2, 58752, Note_off_c, 0, 70, 0
2, 58752, Note_on_c, 0, 67, 45
2, 58848, Note_off_c, 0, 67, 0
2, 58848, Note_on_c, 0, 68, 45
2, 59020, Note_off_c, 0, 68, 0
2, 59040, Note_on_c, 0, 68, 45
2, 59136, Note_off_c, 0, 68, 0
2, 59136, Note_on_c, 0, 70, 45
2, 59232, Note_off_c, 0, 70, 0
2, 59232, Note_on_c, 0, 72, 45
2, 59328, Note_off_c, 0, 72, 0
2, 59328, Note_on_c, 0, 75, 45
2, 59424, Note_off_c, 0, 75, 0
2, 59424, Note_on_c, 0, 73, 45
2, 59616, Note_off_c, 0, 73, 0
2, 59616, Note_on_c, 0, 77, 45
2, 59712, Note_off_c, 0, 77, 0
2, 59712, Note_on_c, 0, 75, 45
2, 59808, Note_off_c, 0, 75, 0
2, 59808, Note_on_c, 0, 73, 45
2, 59904, Note_off_c, 0, 73, 0
2, 59904, Note_on_c, 0, 71, 45
2, 60000, Note_off_c, 0, 71, 0
2, 60000, Note_on_c, 0, 72, 45
2, 60172, Note_off_c, 0, 72, 0
2, 60192, Note_on_c, 0, 80, 45
2, 60288, Note_off_c, 0, 80, 0
2, 60288, Note_on_c, 0, 79, 45
2, 60384, Note_off_c, 0, 79, 0
2, 60384, Note_on_c, 0, 78, 45
2, 60480, Note_off_c, 0, 78, 0
2, 60480, Note_on_c, 0, 76, 45
2, 60528, Note_off_c, 0, 76, 0
2, 60528, Note_on_c, 0, 77, 45
2, 60576, Note_off_c, 0, 77, 0
2, 60576, Note_on_c, 0, 78, 45
2, 60624, Note_off_c, 0, 78, 0
2, 60624, Note_on_c, 0, 77, 45
2, 60672, Note_off_c, 0, 77, 0
2, 60672, Note_on_c, 0, 75, 45
2, 60720, Note_off_c, 0, 75, 0
2, 60720, Note_on_c, 0, 73, 45
2, 60768, Note_off_c, 0, 73, 0
2, 60768, Note_on_c, 0, 72, 45
2, 60816, Note_off_c, 0, 72, 0
2, 60816, Note_on_c, 0, 70, 45
2, 60864, Note_off_c, 0, 70, 0
2, 60864, Note_on_c, 0, 69, 45
2, 60912, Note_off_c, 0, 69, 0
2, 60912, Note_on_c, 0, 70, 45
2, 60960, Note_off_c, 0, 70, 0
2, 60960, Note_on_c, 0, 73, 45
2, 61008, Note_off_c, 0, 73, 0
2, 61008, Note_on_c, 0, 77, 45
2, 61056, Note_off_c, 0, 77, 0
2, 61056, Note_on_c, 0, 68, 45
2, 61200, Note_off_c, 0, 68, 0
2, 61200, Note_on_c, 0, 70, 45
2, 61224, Note_off_c, 0, 70, 0
2, 61224, Note_on_c, 0, 68, 45
2, 61248, Note_off_c, 0, 68, 0
2, 61248, Note_on_c, 0, 67, 45
2, 61291, Note_off_c, 0, 67, 0
2, 61296, Note_on_c, 0, 63, 45
2, 61344, Note_off_c, 0, 63, 0
2, 61344, Note_on_c, 0, 65, 45
2, 61392, Note_off_c, 0, 65, 0
2, 61392, Note_on_c, 0, 67, 45
2, 61440, Note_off_c, 0, 67, 0
2, 61440, Note_on_c, 0, 68, 45
2, 61488, Note_off_c, 0, 68, 0
2, 61488, Note_on_c, 0, 70, 45
2, 61536, Note_off_c, 0, 70, 0
2, 61536, Note_on_c, 0, 72, 45
2, 61584, Note_off_c, 0, 72, 0
2, 61584, Note_on_c, 0, 73, 45
2, 61632, Note_off_c, 0, 73, 0
2, 61632, Note_on_c, 0, 75, 65
2, 61718, Note_off_c, 0, 75, 0
2, 61728, Note_on_c, 0, 75, 65
2, 61728, Note_on_c, 0, 72, 65
2, 61900, Note_off_c, 0, 72, 0
2, 61900, Note_off_c, 0, 75, 0
2, 61920, Note_on_c, 0, 75, 65
2, 61920, Note_on_c, 0, 72, 65
2, 62092, Note_off_c, 0, 72, 0
2, 62092, Note_off_c, 0, 75, 0
2, 62112, Note_on_c, 0, 73, 65
2, 62112, Note_on_c, 0, 77, 65
2, 62208, Note_off_c, 0, 77, 0
2, 62208, Note_off_c, 0, 73, 0
2, 62208, Note_on_c, 0, 73, 65
2, 62208, Note_on_c, 0, 77, 65
2, 62294, Note_off_c, 0, 77, 0
2, 62294, Note_off_c, 0, 73, 0
2, 62304, Note_on_c, 0, 75, 65
2, 62304, Note_on_c, 0, 72, 65
2, 62476, Note_off_c, 0, 72, 0
2, 62476, Note_off_c, 0, 75, 0
2, 62496, Note_on_c, 0, 73, 65
2, 62496, Note_on_c, 0, 70, 65
2, 62668, Note_off_c, 0, 70, 0
2, 62668, Note_off_c, 0, 73, 0
2, 62688, Note_on_c, 0, 68, 65
2, 62688, Note_on_c, 0, 72, 65
2, 62784, Note_off_c, 0, 72, 0
2, 62784, Note_off_c, 0, 68, 0
2, 62784, Note_on_c, 0, 63, 65
2, 62784, Note_on_c, 0, 72, 65
2, 62870, Note_off_c, 0, 72, 0
2, 62870, Note_off_c, 0, 63, 0
2, 62880, Note_on_c, 0, 63, 65
2, 62880, Note_on_c, 0, 72, 65
2, 63052, Note_off_c, 0, 72, 0
2, 63052, Note_off_c, 0, 63, 0
2, 63072, Note_on_c, 0, 63, 65
2, 63072, Note_on_c, 0, 72, 65
2, 63244, Note_off_c, 0, 72, 0
2, 63244, Note_off_c, 0, 63, 0
2, 63264, Note_on_c, 0, 65, 64
2, 63264, Note_on_c, 0, 73, 64
2, 63360, Note_off_c, 0, 73, 0
2, 63360, Note_off_c, 0, 65, 0
2, 63360, Note_on_c, 0, 73, 64
2, 63360, Note_on_c, 0, 65, 64
2, 63446, Note_off_c, 0, 65, 0
2, 63446, Note_off_c, 0, 73, 0
2, 63456, Note_on_c, 0, 72, 64
2, 63456, Note_on_c, 0, 63, 64
2, 63628, Note_off_c, 0, 63, 0
2, 63628, Note_off_c, 0, 72, 0
2, 63648, Note_on_c, 0, 70, 64
2, 63648, Note_on_c, 0, 61, 64
2, 63820, Note_off_c, 0, 61, 0
2, 63820, Note_off_c, 0, 70, 0
2, 63840, Note_on_c, 0, 60, 64
2, 63840, Note_on_c, 0, 68, 64
2, 63926, Note_off_c, 0, 68, 0
2, 63926, Note_off_c, 0, 60, 0
2, 63936, Note_on_c, 0, 69, 64
2, 63936, Note_on_c, 0, 66, 64
2, 63936, Note_on_c, 0, 63, 64
2, 64022, Note_off_c, 0, 63, 0
2, 64022, Note_off_c, 0, 66, 0
2, 64022, Note_off_c, 0, 69, 0
2, 64032, Note_on_c, 0, 69, 64
2, 64032, Note_on_c, 0, 66, 64
2, 64032, Note_on_c, 0, 63, 64
2, 64204, Note_off_c, 0, 63, 0
2, 64204, Note_off_c, 0, 66, 0
2, 64204, Note_off_c, 0, 69, 0
2, 64224, Note_on_c, 0, 61, 64
2, 64224, Note_on_c, 0, 65, 64
2, 64224, Note_on_c, 0, 69, 64
2, 64396, Note_off_c, 0, 69, 0
2, 64396, Note_off_c, 0, 65, 0
2, 64396, Note_off_c, 0, 61, 0
2, 64416, Note_on_c, 0, 63, 64
2, 64416, Note_on_c, 0, 60, 64
2, 64416, Note_on_c, 0, 69, 64
2, 64502, Note_off_c, 0, 69, 0
2, 64502, Note_off_c, 0, 60, 0
2, 64502, Note_off_c, 0, 63, 0
2, 64512, Note_on_c, 0, 70, 55
2, 64560, Note_off_c, 0, 70, 0
2, 64560, Note_on_c, 0, 65, 55
2, 64608, Note_off_c, 0, 65, 0
2, 64608, Note_on_c, 0, 67, 55
2, 64656, Note_off_c, 0, 67, 0
2, 64656, Note_on_c, 0, 69, 55
2, 64704, Note_off_c, 0, 69, 0
2, 64704, Note_on_c, 0, 70, 55
2, 64752, Note_off_c, 0, 70, 0
2, 64752, Note_on_c, 0, 72, 55
2, 64800, Note_off_c, 0, 72, 0
2, 64800, Note_on_c, 0, 73, 55
2, 64848, Note_off_c, 0, 73, 0
2, 64848, Note_on_c, 0, 75, 55
2, 64896, Note_off_c, 0, 75, 0
2, 64896, Note_on_c, 0, 77, 55
2, 64944, Note_off_c, 0, 77, 0
2, 64944, Note_on_c, 0, 76, 55
2, 64992, Note_off_c, 0, 76, 0
2, 64992, Note_on_c, 0, 77, 55
2, 65040, Note_off_c, 0, 77, 0
2, 65040, Note_on_c, 0, 74, 55
2, 65083, Note_off_c, 0, 74, 0
2, 65088, Note_on_c, 0, 71, 65
2, 65088, Note_on_c, 0, 68, 65
2, 65088, Note_on_c, 0, 65, 65
2, 65174, Note_off_c, 0, 65, 0
2, 65174, Note_off_c, 0, 68, 0
2, 65174, Note_off_c, 0, 71, 0
2, 65184, Note_on_c, 0, 71, 65
2, 65184, Note_on_c, 0, 68, 65
2, 65184, Note_on_c, 0, 65, 65
2, 65356, Note_off_c, 0, 65, 0
2, 65356, Note_off_c, 0, 68, 0
2, 65356, Note_off_c, 0, 71, 0
2, 65376, Note_on_c, 0, 64, 65
2, 65376, Note_on_c, 0, 67, 65
2, 65376, Note_on_c, 0, 71, 65
2, 65548, Note_off_c, 0, 71, 0
2, 65548, Note_off_c, 0, 67, 0
2, 65548, Note_off_c, 0, 64, 0
2, 65568, Note_on_c, 0, 71, 65
2, 65568, Note_on_c, 0, 65, 65
2, 65568, Note_on_c, 0, 62, 65
2, 65654, Note_off_c, 0, 62, 0
2, 65654, Note_off_c, 0, 65, 0
2, 65654, Note_off_c, 0, 71, 0
2, 65664, Note_on_c, 0, 72, 55
2, 65712, Note_off_c, 0, 72, 0
2, 65712, Note_on_c, 0, 67, 55
2, 65760, Note_off_c, 0, 67, 0
2, 65760, Note_on_c, 0, 69, 55
2, 65808, Note_off_c, 0, 69, 0
2, 65808, Note_on_c, 0, 71, 55
2, 65856, Note_off_c, 0, 71, 0
2, 65856, Note_on_c, 0, 72, 55
2, 65904, Note_off_c, 0, 72, 0
2, 65904, Note_on_c, 0, 74, 55
2, 65952, Note_off_c, 0, 74, 0
2, 65952, Note_on_c, 0, 76, 55
2, 66000, Note_off_c, 0, 76, 0
2, 66000, Note_on_c, 0, 77, 55
2, 66048, Note_off_c, 0, 77, 0
2, 66048, Note_on_c, 0, 79, 55
2, 66096, Note_off_c, 0, 79, 0
2, 66096, Note_on_c, 0, 76, 55
2, 66144, Note_off_c, 0, 76, 0
2, 66144, Note_on_c, 0, 74, 55
2, 66192, Note_off_c, 0, 74, 0
2, 66192, Note_on_c, 0, 72, 55
2, 66240, Note_off_c, 0, 72, 0
2, 66240, Note_on_c, 0, 71, 65
2, 66412, Note_off_c, 0, 71, 0
2, 66432, Note_on_c, 0, 80, 64
2, 66691, Note_off_c, 0, 80, 0
2, 66720, Note_on_c, 0, 79, 55
2, 66768, Note_off_c, 0, 79, 0
2, 66768, Note_on_c, 0, 77, 55
2, 66811, Note_off_c, 0, 77, 0
2, 66816, Note_on_c, 0, 76, 55
2, 66864, Note_off_c, 0, 76, 0
2, 66864, Note_on_c, 0, 73, 55
2, 66907, Note_off_c, 0, 73, 0
2, 66912, Note_on_c, 0, 72, 55
2, 66960, Note_off_c, 0, 72, 0
2, 66960, Note_on_c, 0, 71, 55
2, 67003, Note_off_c, 0, 71, 0
2, 67008, Note_on_c, 0, 71, 55
2, 67056, Note_off_c, 0, 71, 0
2, 67056, Note_on_c, 0, 72, 55
2, 67104, Note_off_c, 0, 72, 0
2, 67104, Note_on_c, 0, 74, 55
2, 67152, Note_off_c, 0, 74, 0
2, 67152, Note_on_c, 0, 72, 32
2, 67173, Note_off_c, 0, 72, 0
2, 67176, Note_on_c, 0, 74, 32
2, 67197, Note_off_c, 0, 74, 0
2, 67200, Note_on_c, 0, 72, 32
2, 67221, Note_off_c, 0, 72, 0
2, 67224, Note_on_c, 0, 74, 32
2, 67245, Note_off_c, 0, 74, 0
2, 67248, Note_on_c, 0, 72, 32
2, 67269, Note_off_c, 0, 72, 0
2, 67272, Note_on_c, 0, 74, 32
2, 67293, Note_off_c, 0, 74, 0
2, 67296, Note_on_c, 0, 72, 32
2, 67317, Note_off_c, 0, 72, 0
2, 67320, Note_on_c, 0, 74, 32
2, 67341, Note_off_c, 0, 74, 0
2, 67344, Note_on_c, 0, 72, 32
2, 67365, Note_off_c, 0, 72, 0
2, 67368, Note_on_c, 0, 74, 32
2, 67389, Note_off_c, 0, 74, 0
2, 67392, Note_on_c, 0, 72, 32
2, 67413, Note_off_c, 0, 72, 0
2, 67416, Note_on_c, 0, 74, 32
2, 67437, Note_off_c, 0, 74, 0
2, 67440, Note_on_c, 0, 72, 32
2, 67461, Note_off_c, 0, 72, 0
2, 67464, Note_on_c, 0, 74, 32
2, 67485, Note_off_c, 0, 74, 0
2, 67488, Note_on_c, 0, 72, 32
2, 67509, Note_off_c, 0, 72, 0
2, 67512, Note_on_c, 0, 74, 32
2, 67533, Note_off_c, 0, 74, 0
2, 67536, Note_on_c, 0, 72, 32
2, 67557, Note_off_c, 0, 72, 0
2, 67560, Note_on_c, 0, 74, 32
2, 67581, Note_off_c, 0, 74, 0
2, 67584, Note_on_c, 0, 72, 32
2, 67605, Note_off_c, 0, 72, 0
2, 67608, Note_on_c, 0, 74, 32
2, 67629, Note_off_c, 0, 74, 0
2, 67632, Note_on_c, 0, 72, 32
2, 67653, Note_off_c, 0, 72, 0
2, 67656, Note_on_c, 0, 74, 32
2, 67677, Note_off_c, 0, 74, 0
2, 67680, Note_on_c, 0, 72, 32
2, 67701, Note_off_c, 0, 72, 0
2, 67704, Note_on_c, 0, 74, 32
2, 67725, Note_off_c, 0, 74, 0
2, 67728, Note_on_c, 0, 72, 32
2, 67749, Note_off_c, 0, 72, 0
2, 67752, Note_on_c, 0, 74, 32
2, 67773, Note_off_c, 0, 74, 0
2, 67776, Note_on_c, 0, 71, 55
2, 67797, Note_off_c, 0, 71, 0
2, 67800, Note_on_c, 0, 72, 55
2, 67920, Note_off_c, 0, 72, 0
2, 67920, Note_on_c, 0, 76, 55
2, 67968, Note_off_c, 0, 76, 0
2, 67968, Note_on_c, 0, 74, 55
2, 68016, Note_off_c, 0, 74, 0
2, 68016, Note_on_c, 0, 77, 55
2, 68064, Note_off_c, 0, 77, 0
2, 68064, Note_on_c, 0, 76, 55
2, 68112, Note_off_c, 0, 76, 0
2, 68112, Note_on_c, 0, 79, 55
2, 68160, Note_off_c, 0, 79, 0
2, 68160, Note_on_c, 0, 77, 55
2, 68184, Note_off_c, 0, 77, 0
2, 68184, Note_on_c, 0, 81, 55
2, 68208, Note_off_c, 0, 81, 0
2, 68208, Note_on_c, 0, 79, 55
2, 68232, Note_off_c, 0, 79, 0
2, 68232, Note_on_c, 0, 82, 55
2, 68256, Note_off_c, 0, 82, 0
2, 68256, Note_on_c, 0, 81, 55
2, 68280, Note_off_c, 0, 81, 0
2, 68280, Note_on_c, 0, 84, 55
2, 68304, Note_off_c, 0, 84, 0
2, 68304, Note_on_c, 0, 82, 65
2, 68606, Note_off_c, 0, 82, 0
2, 68640, Note_on_c, 0, 84, 55
2, 68664, Note_off_c, 0, 84, 0
2, 68664, Note_on_c, 0, 86, 55
2, 68688, Note_off_c, 0, 86, 0
2, 68688, Note_on_c, 0, 84, 55
2, 68784, Note_off_c, 0, 84, 0
2, 68784, Note_on_c, 0, 82, 55
2, 68827, Note_off_c, 0, 82, 0
2, 68880, Note_on_c, 0, 81, 55
2, 68976, Note_off_c, 0, 81, 0
2, 68976, Note_on_c, 0, 79, 55
2, 69019, Note_off_c, 0, 79, 0
2, 69072, Note_on_c, 0, 77, 55
2, 69216, Note_off_c, 0, 77, 0
2, 69216, Note_on_c, 0, 76, 55
2, 69264, Note_off_c, 0, 76, 0
2, 69264, Note_on_c, 0, 82, 55
2, 69408, Note_off_c, 0, 82, 0
2, 69408, Note_on_c, 0, 76, 55
2, 69451, Note_off_c, 0, 76, 0
2, 69456, Note_on_c, 0, 77, 32
2, 69480, Note_off_c, 0, 77, 0
2, 69480, Note_on_c, 0, 79, 32
2, 69504, Note_off_c, 0, 79, 0
2, 69504, Note_on_c, 0, 77, 32
2, 69528, Note_off_c, 0, 77, 0
2, 69528, Note_on_c, 0, 79, 32
2, 69552, Note_off_c, 0, 79, 0
2, 69552, Note_on_c, 0, 77, 32
2, 69576, Note_off_c, 0, 77, 0
2, 69576, Note_on_c, 0, 79, 32
2, 69600, Note_off_c, 0, 79, 0
2, 69600, Note_on_c, 0, 77, 32
2, 69624, Note_off_c, 0, 77, 0
2, 69624, Note_on_c, 0, 79, 32
2, 69648, Note_off_c, 0, 79, 0
2, 69648, Note_on_c, 0, 77, 32
2, 69672, Note_off_c, 0, 77, 0
2, 69672, Note_on_c, 0, 79, 32
2, 69696, Note_off_c, 0, 79, 0
2, 69696, Note_on_c, 0, 77, 32
2, 69720, Note_off_c, 0, 77, 0
2, 69720, Note_on_c, 0, 79, 32
2, 69744, Note_off_c, 0, 79, 0
2, 69744, Note_on_c, 0, 77, 32
2, 69768, Note_off_c, 0, 77, 0
2, 69768, Note_on_c, 0, 79, 32
2, 69792, Note_off_c, 0, 79, 0
2, 69792, Note_on_c, 0, 77, 32
2, 69816, Note_off_c, 0, 77, 0
2, 69816, Note_on_c, 0, 79, 32
2, 69840, Note_off_c, 0, 79, 0
2, 69840, Note_on_c, 0, 77, 32
2, 69864, Note_off_c, 0, 77, 0
2, 69864, Note_on_c, 0, 79, 32
2, 69888, Note_off_c, 0, 79, 0
2, 69888, Note_on_c, 0, 77, 32
2, 69912, Note_off_c, 0, 77, 0
2, 69912, Note_on_c, 0, 79, 32
2, 69936, Note_off_c, 0, 79, 0
2, 69936, Note_on_c, 0, 77, 32
2, 69960, Note_off_c, 0, 77, 0
2, 69960, Note_on_c, 0, 79, 32
2, 69984, Note_off_c, 0, 79, 0
2, 69984, Note_on_c, 0, 77, 32
2, 70008, Note_off_c, 0, 77, 0
2, 70008, Note_on_c, 0, 79, 32
2, 70032, Note_off_c, 0, 79, 0
2, 70032, Note_on_c, 0, 77, 32
2, 70056, Note_off_c, 0, 77, 0
2, 70056, Note_on_c, 0, 79, 32
2, 70080, Note_off_c, 0, 79, 0
2, 70080, Note_on_c, 0, 77, 32
2, 70104, Note_off_c, 0, 77, 0
2, 70104, Note_on_c, 0, 79, 32
2, 70128, Note_off_c, 0, 79, 0
2, 70128, Note_on_c, 0, 77, 32
2, 70152, Note_off_c, 0, 77, 0
2, 70152, Note_on_c, 0, 79, 32
2, 70176, Note_off_c, 0, 79, 0
2, 70176, Note_on_c, 0, 77, 32
2, 70200, Note_off_c, 0, 77, 0
2, 70200, Note_on_c, 0, 79, 32
2, 70224, Note_off_c, 0, 79, 0
2, 70224, Note_on_c, 0, 77, 32
2, 70248, Note_off_c, 0, 77, 0
2, 70248, Note_on_c, 0, 79, 32
2, 70272, Note_off_c, 0, 79, 0
2, 70272, Note_on_c, 0, 77, 32
2, 70296, Note_off_c, 0, 77, 0
2, 70296, Note_on_c, 0, 79, 32
2, 70320, Note_off_c, 0, 79, 0
2, 70320, Note_on_c, 0, 77, 32
2, 70344, Note_off_c, 0, 77, 0
2, 70344, Note_on_c, 0, 79, 32
2, 70368, Note_off_c, 0, 79, 0
2, 70368, Note_on_c, 0, 77, 32
2, 70392, Note_off_c, 0, 77, 0
2, 70392, Note_on_c, 0, 79, 32
2, 70416, Note_off_c, 0, 79, 0
2, 70416, Note_on_c, 0, 77, 32
2, 70440, Note_off_c, 0, 77, 0
2, 70440, Note_on_c, 0, 79, 32
2, 70464, Note_off_c, 0, 79, 0
2, 70464, Note_on_c, 0, 77, 32
2, 70488, Note_off_c, 0, 77, 0
2, 70488, Note_on_c, 0, 79, 32
2, 70512, Note_off_c, 0, 79, 0
2, 70512, Note_on_c, 0, 77, 32
2, 70536, Note_off_c, 0, 77, 0
2, 70536, Note_on_c, 0, 79, 32
2, 70560, Note_off_c, 0, 79, 0
2, 70560, Note_on_c, 0, 77, 32
2, 70584, Note_off_c, 0, 77, 0
2, 70584, Note_on_c, 0, 79, 32
2, 70608, Note_off_c, 0, 79, 0
2, 70608, Note_on_c, 0, 77, 32
2, 70632, Note_off_c, 0, 77, 0
2, 70632, Note_on_c, 0, 79, 32
2, 70656, Note_off_c, 0, 79, 0
2, 70656, Note_on_c, 0, 77, 32
2, 70680, Note_off_c, 0, 77, 0
2, 70680, Note_on_c, 0, 79, 32
2, 70704, Note_off_c, 0, 79, 0
2, 70704, Note_on_c, 0, 77, 32
2, 70728, Note_off_c, 0, 77, 0
2, 70728, Note_on_c, 0, 79, 32
2, 70752, Note_off_c, 0, 79, 0
2, 70752, Note_on_c, 0, 77, 32
2, 70776, Note_off_c, 0, 77, 0
2, 70776, Note_on_c, 0, 79, 32
2, 70800, Note_off_c, 0, 79, 0
2, 70800, Note_on_c, 0, 77, 32
2, 70824, Note_off_c, 0, 77, 0
2, 70824, Note_on_c, 0, 79, 32
2, 70848, Note_off_c, 0, 79, 0
2, 70848, Note_on_c, 0, 77, 32
2, 70872, Note_off_c, 0, 77, 0
2, 70872, Note_on_c, 0, 79, 32
2, 70896, Note_off_c, 0, 79, 0
2, 70896, Note_on_c, 0, 77, 32
2, 70920, Note_off_c, 0, 77, 0
2, 70920, Note_on_c, 0, 79, 32
2, 70944, Note_off_c, 0, 79, 0
2, 70944, Note_on_c, 0, 77, 32
2, 70968, Note_off_c, 0, 77, 0
2, 70968, Note_on_c, 0, 79, 32
2, 70992, Note_off_c, 0, 79, 0
2, 70992, Note_on_c, 0, 77, 32
2, 71016, Note_off_c, 0, 77, 0
2, 71016, Note_on_c, 0, 79, 32
2, 71040, Note_off_c, 0, 79, 0
2, 71040, Note_on_c, 0, 77, 32
2, 71064, Note_off_c, 0, 77, 0
2, 71064, Note_on_c, 0, 79, 32
2, 71088, Note_off_c, 0, 79, 0
2, 71088, Note_on_c, 0, 77, 32
2, 71112, Note_off_c, 0, 77, 0
2, 71112, Note_on_c, 0, 79, 32
2, 71136, Note_off_c, 0, 79, 0
2, 71136, Note_on_c, 0, 77, 32
2, 71160, Note_off_c, 0, 77, 0
2, 71160, Note_on_c, 0, 79, 32
2, 71184, Note_off_c, 0, 79, 0
2, 71184, Note_on_c, 0, 77, 32
2, 71208, Note_off_c, 0, 77, 0
2, 71208, Note_on_c, 0, 79, 32
2, 71232, Note_off_c, 0, 79, 0
2, 71232, Note_on_c, 0, 77, 32
2, 71256, Note_off_c, 0, 77, 0
2, 71256, Note_on_c, 0, 79, 32
2, 71280, Note_off_c, 0, 79, 0
2, 71280, Note_on_c, 0, 77, 32
2, 71304, Note_off_c, 0, 77, 0
2, 71304, Note_on_c, 0, 79, 32
2, 71328, Note_off_c, 0, 79, 0
2, 71328, Note_on_c, 0, 77, 32
2, 71352, Note_off_c, 0, 77, 0
2, 71352, Note_on_c, 0, 79, 32
2, 71376, Note_off_c, 0, 79, 0
2, 71376, Note_on_c, 0, 77, 32
2, 71400, Note_off_c, 0, 77, 0
2, 71400, Note_on_c, 0, 79, 32
2, 71424, Note_off_c, 0, 79, 0
2, 71424, Note_on_c, 0, 77, 32
2, 71448, Note_off_c, 0, 77, 0
2, 71448, Note_on_c, 0, 79, 32
2, 71472, Note_off_c, 0, 79, 0
2, 71472, Note_on_c, 0, 77, 32
2, 71496, Note_off_c, 0, 77, 0
2, 71496, Note_on_c, 0, 79, 32
2, 71520, Note_off_c, 0, 79, 0
2, 71520, Note_on_c, 0, 77, 32
2, 71544, Note_off_c, 0, 77, 0
2, 71544, Note_on_c, 0, 79, 32
2, 71568, Note_off_c, 0, 79, 0
2, 71568, Note_on_c, 0, 77, 32
2, 71592, Note_off_c, 0, 77, 0
2, 71592, Note_on_c, 0, 79, 32
2, 71616, Note_off_c, 0, 79, 0
2, 71616, Note_on_c, 0, 77, 32
2, 71640, Note_off_c, 0, 77, 0
2, 71640, Note_on_c, 0, 79, 32
2, 71664, Note_off_c, 0, 79, 0
2, 71664, Note_on_c, 0, 76, 32
2, 71712, Note_off_c, 0, 76, 0
2, 71712, Note_on_c, 0, 77, 32
2, 71760, Note_off_c, 0, 77, 0
2, 71760, Note_on_c, 0, 84, 32
2, 71784, Note_off_c, 0, 84, 0
2, 71784, Note_on_c, 0, 86, 32
2, 71808, Note_off_c, 0, 86, 0
2, 71808, Note_on_c, 0, 84, 32
2, 71832, Note_off_c, 0, 84, 0
2, 71832, Note_on_c, 0, 86, 32
2, 71856, Note_off_c, 0, 86, 0
2, 71856, Note_on_c, 0, 84, 32
2, 71880, Note_off_c, 0, 84, 0
2, 71880, Note_on_c, 0, 86, 32
2, 71904, Note_off_c, 0, 86, 0
2, 71904, Note_on_c, 0, 84, 32
2, 71928, Note_off_c, 0, 84, 0
2, 71928, Note_on_c, 0, 86, 32
2, 71952, Note_off_c, 0, 86, 0
2, 71952, Note_on_c, 0, 84, 32
2, 71976, Note_off_c, 0, 84, 0
2, 71976, Note_on_c, 0, 86, 32
2, 72000, Note_off_c, 0, 86, 0
2, 72000, Note_on_c, 0, 84, 32
2, 72024, Note_off_c, 0, 84, 0
2, 72024, Note_on_c, 0, 86, 32
2, 72048, Note_off_c, 0, 86, 0
2, 72048, Note_on_c, 0, 84, 32
2, 72072, Note_off_c, 0, 84, 0
2, 72072, Note_on_c, 0, 86, 32
2, 72096, Note_off_c, 0, 86, 0
2, 72096, Note_on_c, 0, 84, 32
2, 72120, Note_off_c, 0, 84, 0
2, 72120, Note_on_c, 0, 86, 32
2, 72144, Note_off_c, 0, 86, 0
2, 72144, Note_on_c, 0, 84, 32
2, 72168, Note_off_c, 0, 84, 0
2, 72168, Note_on_c, 0, 86, 32
2, 72192, Note_off_c, 0, 86, 0
2, 72192, Note_on_c, 0, 84, 32
2, 72216, Note_off_c, 0, 84, 0
2, 72216, Note_on_c, 0, 86, 32
2, 72240, Note_off_c, 0, 86, 0
2, 72240, Note_on_c, 0, 84, 32
2, 72264, Note_off_c, 0, 84, 0
2, 72264, Note_on_c, 0, 86, 32
2, 72288, Note_off_c, 0, 86, 0
2, 72288, Note_on_c, 0, 84, 32
2, 72312, Note_off_c, 0, 84, 0
2, 72312, Note_on_c, 0, 86, 32
2, 72336, Note_off_c, 0, 86, 0
2, 72336, Note_on_c, 0, 84, 32
2, 72360, Note_off_c, 0, 84, 0
2, 72360, Note_on_c, 0, 86, 32
2, 72384, Note_off_c, 0, 86, 0
2, 72384, Note_on_c, 0, 84, 32
2, 72408, Note_off_c, 0, 84, 0
2, 72408, Note_on_c, 0, 86, 32
2, 72432, Note_off_c, 0, 86, 0
2, 72432, Note_on_c, 0, 84, 32
2, 72456, Note_off_c, 0, 84, 0
2, 72456, Note_on_c, 0, 86, 32
2, 72480, Note_off_c, 0, 86, 0
2, 72480, Note_on_c, 0, 84, 32
2, 72504, Note_off_c, 0, 84, 0
2, 72504, Note_on_c, 0, 86, 32
2, 72528, Note_off_c, 0, 86, 0
2, 72528, Note_on_c, 0, 84, 32
2, 72552, Note_off_c, 0, 84, 0
2, 72552, Note_on_c, 0, 86, 32
2, 72576, Note_off_c, 0, 86, 0
2, 72576, Note_on_c, 0, 84, 32
2, 72600, Note_off_c, 0, 84, 0
2, 72600, Note_on_c, 0, 86, 32
2, 72624, Note_off_c, 0, 86, 0
2, 72624, Note_on_c, 0, 84, 32
2, 72648, Note_off_c, 0, 84, 0
2, 72648, Note_on_c, 0, 86, 32
2, 72672, Note_off_c, 0, 86, 0
2, 72672, Note_on_c, 0, 84, 32
2, 72696, Note_off_c, 0, 84, 0
2, 72696, Note_on_c, 0, 86, 32
2, 72720, Note_off_c, 0, 86, 0
2, 72720, Note_on_c, 0, 84, 32
2, 72744, Note_off_c, 0, 84, 0
2, 72744, Note_on_c, 0, 86, 32
2, 72768, Note_off_c, 0, 86, 0
2, 72768, Note_on_c, 0, 84, 32
2, 72792, Note_off_c, 0, 84, 0
2, 72792, Note_on_c, 0, 86, 32
2, 72816, Note_off_c, 0, 86, 0
2, 72816, Note_on_c, 0, 84, 32
2, 72840, Note_off_c, 0, 84, 0
2, 72840, Note_on_c, 0, 86, 32
2, 72864, Note_off_c, 0, 86, 0
2, 72864, Note_on_c, 0, 84, 32
2, 72888, Note_off_c, 0, 84, 0
2, 72888, Note_on_c, 0, 86, 32
2, 72912, Note_off_c, 0, 86, 0
2, 72912, Note_on_c, 0, 84, 32
2, 72936, Note_off_c, 0, 84, 0
2, 72936, Note_on_c, 0, 86, 32
2, 72960, Note_off_c, 0, 86, 0
2, 72960, Note_on_c, 0, 84, 32
2, 72984, Note_off_c, 0, 84, 0
2, 72984, Note_on_c, 0, 86, 32
2, 73008, Note_off_c, 0, 86, 0
2, 73008, Note_on_c, 0, 84, 32
2, 73032, Note_off_c, 0, 84, 0
2, 73032, Note_on_c, 0, 86, 32
2, 73056, Note_off_c, 0, 86, 0
2, 73056, Note_on_c, 0, 84, 32
2, 73080, Note_off_c, 0, 84, 0
2, 73080, Note_on_c, 0, 86, 32
2, 73104, Note_off_c, 0, 86, 0
2, 73104, Note_on_c, 0, 84, 32
2, 73128, Note_off_c, 0, 84, 0
2, 73128, Note_on_c, 0, 86, 32
2, 73152, Note_off_c, 0, 86, 0
2, 73152, Note_on_c, 0, 84, 32
2, 73176, Note_off_c, 0, 84, 0
2, 73176, Note_on_c, 0, 86, 32
2, 73200, Note_off_c, 0, 86, 0
2, 73200, Note_on_c, 0, 84, 32
2, 73224, Note_off_c, 0, 84, 0
2, 73224, Note_on_c, 0, 86, 32
2, 73248, Note_off_c, 0, 86, 0
2, 73248, Note_on_c, 0, 84, 32
2, 73272, Note_off_c, 0, 84, 0
2, 73272, Note_on_c, 0, 86, 32
2, 73296, Note_off_c, 0, 86, 0
2, 73296, Note_on_c, 0, 84, 32
2, 73320, Note_off_c, 0, 84, 0
2, 73320, Note_on_c, 0, 86, 32
2, 73344, Note_off_c, 0, 86, 0
2, 73344, Note_on_c, 0, 84, 32
2, 73368, Note_off_c, 0, 84, 0
2, 73368, Note_on_c, 0, 86, 32
2, 73392, Note_off_c, 0, 86, 0
2, 73392, Note_on_c, 0, 84, 32
2, 73416, Note_off_c, 0, 84, 0
2, 73416, Note_on_c, 0, 86, 32
2, 73440, Note_off_c, 0, 86, 0
2, 73440, Note_on_c, 0, 84, 32
2, 73464, Note_off_c, 0, 84, 0
2, 73464, Note_on_c, 0, 86, 32
2, 73488, Note_off_c, 0, 86, 0
2, 73488, Note_on_c, 0, 84, 32
2, 73512, Note_off_c, 0, 84, 0
2, 73512, Note_on_c, 0, 86, 32
2, 73536, Note_off_c, 0, 86, 0
2, 73536, Note_on_c, 0, 84, 32
2, 73560, Note_off_c, 0, 84, 0
2, 73560, Note_on_c, 0, 86, 32
2, 73584, Note_off_c, 0, 86, 0
2, 73584, Note_on_c, 0, 84, 32
2, 73608, Note_off_c, 0, 84, 0
2, 73608, Note_on_c, 0, 86, 32
2, 73632, Note_off_c, 0, 86, 0
2, 73632, Note_on_c, 0, 84, 32
2, 73656, Note_off_c, 0, 84, 0
2, 73656, Note_on_c, 0, 86, 32
2, 73680, Note_off_c, 0, 86, 0
2, 73680, Note_on_c, 0, 84, 32
2, 73704, Note_off_c, 0, 84, 0
2, 73704, Note_on_c, 0, 86, 32
2, 73728, Note_off_c, 0, 86, 0
2, 73728, Note_on_c, 0, 84, 32
2, 73752, Note_off_c, 0, 84, 0
2, 73752, Note_on_c, 0, 86, 32
2, 73776, Note_off_c, 0, 86, 0
2, 73776, Note_on_c, 0, 84, 32
2, 73800, Note_off_c, 0, 84, 0
2, 73800, Note_on_c, 0, 86, 32
2, 73824, Note_off_c, 0, 86, 0
2, 73824, Note_on_c, 0, 84, 32
2, 73848, Note_off_c, 0, 84, 0
2, 73848, Note_on_c, 0, 86, 32
2, 73872, Note_off_c, 0, 86, 0
2, 73872, Note_on_c, 0, 84, 32
2, 73896, Note_off_c, 0, 84, 0
2, 73896, Note_on_c, 0, 86, 32
2, 73920, Note_off_c, 0, 86, 0
2, 73920, Note_on_c, 0, 84, 32
2, 73944, Note_off_c, 0, 84, 0
2, 73944, Note_on_c, 0, 86, 32
2, 73968, Note_off_c, 0, 86, 0
2, 73968, Note_on_c, 0, 84, 32
2, 73992, Note_off_c, 0, 84, 0
2, 73992, Note_on_c, 0, 86, 32
2, 74016, Note_off_c, 0, 86, 0
2, 74016, Note_on_c, 0, 84, 32
2, 74040, Note_off_c, 0, 84, 0
2, 74040, Note_on_c, 0, 86, 32
2, 74064, Note_off_c, 0, 86, 0
2, 74064, Note_on_c, 0, 84, 32
2, 74088, Note_off_c, 0, 84, 0
2, 74088, Note_on_c, 0, 86, 32
2, 74112, Note_off_c, 0, 86, 0
2, 74112, Note_on_c, 0, 84, 32
2, 74136, Note_off_c, 0, 84, 0
2, 74136, Note_on_c, 0, 86, 32
2, 74160, Note_off_c, 0, 86, 0
2, 74160, Note_on_c, 0, 84, 32
2, 74184, Note_off_c, 0, 84, 0
2, 74184, Note_on_c, 0, 86, 32
2, 74208, Note_off_c, 0, 86, 0
2, 74208, Note_on_c, 0, 84, 32
2, 74232, Note_off_c, 0, 84, 0
2, 74232, Note_on_c, 0, 86, 32
2, 74256, Note_off_c, 0, 86, 0
2, 74256, Note_on_c, 0, 84, 32
2, 74280, Note_off_c, 0, 84, 0
2, 74280, Note_on_c, 0, 86, 32
2, 74304, Note_off_c, 0, 86, 0
2, 74304, Note_on_c, 0, 84, 32
2, 74328, Note_off_c, 0, 84, 0
2, 74328, Note_on_c, 0, 86, 32
2, 74352, Note_off_c, 0, 86, 0
2, 74352, Note_on_c, 0, 84, 32
2, 74376, Note_off_c, 0, 84, 0
2, 74376, Note_on_c, 0, 86, 32
2, 74400, Note_off_c, 0, 86, 0
2, 74400, Note_on_c, 0, 84, 32
2, 74424, Note_off_c, 0, 84, 0
2, 74424, Note_on_c, 0, 86, 32
2, 74448, Note_off_c, 0, 86, 0
2, 74448, Note_on_c, 0, 84, 32
2, 74472, Note_off_c, 0, 84, 0
2, 74472, Note_on_c, 0, 86, 32
2, 74496, Note_off_c, 0, 86, 0
2, 74496, Note_on_c, 0, 84, 32
2, 74520, Note_off_c, 0, 84, 0
2, 74520, Note_on_c, 0, 86, 32
2, 74544, Note_off_c, 0, 86, 0
2, 74544, Note_on_c, 0, 84, 32
2, 74568, Note_off_c, 0, 84, 0
2, 74568, Note_on_c, 0, 86, 32
2, 74592, Note_off_c, 0, 86, 0
2, 74592, Note_on_c, 0, 84, 32
2, 74616, Note_off_c, 0, 84, 0
2, 74616, Note_on_c, 0, 86, 32
2, 74640, Note_off_c, 0, 86, 0
2, 74640, Note_on_c, 0, 84, 32
2, 74664, Note_off_c, 0, 84, 0
2, 74664, Note_on_c, 0, 86, 32
2, 74688, Note_off_c, 0, 86, 0
2, 74688, Note_on_c, 0, 84, 32
2, 74712, Note_off_c, 0, 84, 0
2, 74712, Note_on_c, 0, 86, 32
2, 74736, Note_off_c, 0, 86, 0
2, 74736, Note_on_c, 0, 84, 32
2, 74760, Note_off_c, 0, 84, 0
2, 74760, Note_on_c, 0, 86, 32
2, 74784, Note_off_c, 0, 86, 0
2, 74784, Note_on_c, 0, 84, 32
2, 74808, Note_off_c, 0, 84, 0
2, 74808, Note_on_c, 0, 86, 32
2, 74832, Note_off_c, 0, 86, 0
2, 74832, Note_on_c, 0, 84, 32
2, 74856, Note_off_c, 0, 84, 0
2, 74856, Note_on_c, 0, 86, 32
2, 74880, Note_off_c, 0, 86, 0
2, 74880, Note_on_c, 0, 84, 32
2, 74904, Note_off_c, 0, 84, 0
2, 74904, Note_on_c, 0, 86, 32
2, 74928, Note_off_c, 0, 86, 0
2, 74928, Note_on_c, 0, 84, 32
2, 74952, Note_off_c, 0, 84, 0
2, 74952, Note_on_c, 0, 86, 32
2, 74976, Note_off_c, 0, 86, 0
2, 74976, Note_on_c, 0, 84, 32
2, 75000, Note_off_c, 0, 84, 0
2, 75000, Note_on_c, 0, 86, 32
2, 75024, Note_off_c, 0, 86, 0
2, 75024, Note_on_c, 0, 84, 32
2, 75048, Note_off_c, 0, 84, 0
2, 75048, Note_on_c, 0, 86, 32
2, 75072, Note_off_c, 0, 86, 0
2, 75072, Note_on_c, 0, 84, 32
2, 75096, Note_off_c, 0, 84, 0
2, 75096, Note_on_c, 0, 86, 32
2, 75120, Note_off_c, 0, 86, 0
2, 75120, Note_on_c, 0, 84, 32
2, 75144, Note_off_c, 0, 84, 0
2, 75144, Note_on_c, 0, 86, 36
2, 75168, Note_off_c, 0, 86, 0
2, 75168, Note_on_c, 0, 84, 36
2, 75189, Note_off_c, 0, 84, 0
2, 75192, Note_on_c, 0, 83, 41
2, 75213, Note_off_c, 0, 83, 0
2, 75216, Note_on_c, 0, 84, 45
2, 75240, Note_off_c, 0, 84, 0
2, 75240, Note_on_c, 0, 86, 55
2, 75264, Note_off_c, 0, 86, 0
2, 75264, Note_on_c, 0, 88, 62
2, 75288, Note_off_c, 0, 88, 0
2, 75288, Note_on_c, 0, 89, 64
2, 75312, Note_off_c, 0, 89, 0
2, 75312, Note_on_c, 0, 88, 67
2, 75336, Note_off_c, 0, 88, 0
2, 75336, Note_on_c, 0, 86, 67
2, 75360, Note_off_c, 0, 86, 0
2, 75360, Note_on_c, 0, 84, 62
2, 75384, Note_off_c, 0, 84, 0
2, 75384, Note_on_c, 0, 82, 55
2, 75408, Note_off_c, 0, 82, 0
2, 75408, Note_on_c, 0, 81, 50
2, 75432, Note_off_c, 0, 81, 0
2, 75432, Note_on_c, 0, 79, 49
2, 75456, Note_off_c, 0, 79, 0
2, 75456, Note_on_c, 0, 77, 47
2, 75480, Note_off_c, 0, 77, 0
2, 75480, Note_on_c, 0, 76, 44
2, 75504, Note_off_c, 0, 76, 0
2, 75504, Note_on_c, 0, 74, 41
2, 75528, Note_off_c, 0, 74, 0
2, 75528, Note_on_c, 0, 72, 37
2, 75552, Note_off_c, 0, 72, 0
2, 75552, Note_on_c, 0, 70, 36
2, 75576, Note_off_c, 0, 70, 0
2, 75576, Note_on_c, 0, 69, 36
2, 75600, Note_off_c, 0, 69, 0
2, 75600, Note_on_c, 0, 67, 36
2, 75624, Note_off_c, 0, 67, 0
2, 75624, Note_on_c, 0, 65, 36
2, 75648, Note_off_c, 0, 65, 0
2, 75648, Note_on_c, 0, 64, 39
2, 75672, Note_off_c, 0, 64, 0
2, 75672, Note_on_c, 0, 62, 41
2, 75696, Note_off_c, 0, 62, 0
2, 75696, Note_on_c, 0, 60, 44
2, 75720, Note_off_c, 0, 60, 0
2, 75720, Note_on_c, 0, 58, 54
2, 75744, Note_off_c, 0, 58, 0
2, 75744, Note_on_c, 0, 57, 57
2, 75768, Note_off_c, 0, 57, 0
2, 75768, Note_on_c, 0, 55, 67
2, 75789, Note_off_c, 0, 55, 0
2, 75792, Note_on_c, 0, 69, 96
2, 75792, Note_on_c, 0, 72, 96
2, 75964, Note_off_c, 0, 72, 0
2, 75964, Note_off_c, 0, 69, 0
2, 75984, Note_on_c, 0, 69, 96
2, 75984, Note_on_c, 0, 72, 96
2, 76243, Note_off_c, 0, 72, 0
2, 76243, Note_off_c, 0, 69, 0
2, 76272, Note_on_c, 0, 70, 96
2, 76272, Note_on_c, 0, 74, 96
2, 76358, Note_off_c, 0, 74, 0
2, 76358, Note_off_c, 0, 70, 0
2, 76368, Note_on_c, 0, 69, 96
2, 76368, Note_on_c, 0, 72, 96
2, 76627, Note_off_c, 0, 72, 0
2, 76627, Note_off_c, 0, 69, 0
2, 76656, Note_on_c, 0, 67, 96
2, 76656, Note_on_c, 0, 70, 96
2, 76742, Note_off_c, 0, 70, 0
2, 76742, Note_off_c, 0, 67, 0
2, 76752, Note_on_c, 0, 65, 96
2, 76752, Note_on_c, 0, 69, 96
2, 76924, Note_off_c, 0, 69, 0
2, 76924, Note_off_c, 0, 65, 0
2, 76944, Note_on_c, 0, 60, 96
2, 76944, Note_on_c, 0, 69, 96
2, 77116, Note_off_c, 0, 69, 0
2, 77116, Note_off_c, 0, 60, 0
2, 77136, Note_on_c, 0, 60, 96
2, 77136, Note_on_c, 0, 69, 96
2, 77395, Note_off_c, 0, 69, 0
2, 77395, Note_off_c, 0, 60, 0
2, 77424, Note_on_c, 0, 70, 96
2, 77424, Note_on_c, 0, 62, 96
2, 77510, Note_off_c, 0, 62, 0
2, 77510, Note_off_c, 0, 70, 0
2, 77520, Note_on_c, 0, 60, 96
2, 77520, Note_on_c, 0, 69, 96
2, 77779, Note_off_c, 0, 69, 0
2, 77779, Note_off_c, 0, 60, 0
2, 77808, Note_on_c, 0, 67, 96
2, 77808, Note_on_c, 0, 58, 96
2, 77894, Note_off_c, 0, 58, 0
2, 77894, Note_off_c, 0, 67, 0
2, 77904, Note_on_c, 0, 57, 96
2, 77904, Note_on_c, 0, 65, 96
2, 78076, Note_off_c, 0, 65, 0
2, 78076, Note_off_c, 0, 57, 0
2, 78096, Note_on_c, 0, 60, 96
2, 78096, Note_on_c, 0, 64, 96
2, 78096, Note_on_c, 0, 67, 96
2, 78268, Note_off_c, 0, 67, 0
2, 78268, Note_off_c, 0, 64, 0
2, 78268, Note_off_c, 0, 60, 0
2, 78288, Note_on_c, 0, 60, 96
2, 78288, Note_on_c, 0, 64, 96
2, 78288, Note_on_c, 0, 67, 96
2, 78460, Note_off_c, 0, 67, 0
2, 78460, Note_off_c, 0, 64, 0
2, 78460, Note_off_c, 0, 60, 0
2, 78480, Note_on_c, 0, 60, 96
2, 78480, Note_on_c, 0, 64, 96
2, 78480, Note_on_c, 0, 68, 96
2, 78652, Note_off_c, 0, 68, 0
2, 78652, Note_off_c, 0, 64, 0
2, 78652, Note_off_c, 0, 60, 0
2, 78672, Note_on_c, 0, 65, 96
2, 78672, Note_on_c, 0, 69, 96
2, 78960, Note_off_c, 0, 69, 0
2, 78960, Note_off_c, 0, 65, 0
2, 78960, Note_on_c, 0, 64, 96
2, 78960, Note_on_c, 0, 68, 96
2, 79056, Note_off_c, 0, 68, 0
2, 79056, Note_off_c, 0, 64, 0
2, 79056, Note_on_c, 0, 65, 96
2, 79056, Note_on_c, 0, 69, 96
2, 79228, Note_off_c, 0, 69, 0
2, 79228, Note_off_c, 0, 65, 0
2, 79248, Note_on_c, 0, 60, 96
2, 79248, Note_on_c, 0, 65, 96
2, 79248, Note_on_c, 0, 69, 96
2, 79420, Note_off_c, 0, 69, 0
2, 79420, Note_off_c, 0, 65, 0
2, 79420, Note_off_c, 0, 60, 0
2, 79440, Note_on_c, 0, 60, 96
2, 79440, Note_on_c, 0, 65, 96
2, 79440, Note_on_c, 0, 69, 96
2, 79612, Note_off_c, 0, 69, 0
2, 79612, Note_off_c, 0, 65, 0
2, 79612, Note_off_c, 0, 60, 0
2, 79632, Note_on_c, 0, 60, 96
2, 79632, Note_on_c, 0, 66, 96
2, 79632, Note_on_c, 0, 69, 96
2, 79804, Note_off_c, 0, 69, 0
2, 79804, Note_off_c, 0, 66, 0
2, 79804, Note_off_c, 0, 60, 0
2, 79824, Note_on_c, 0, 70, 96
2, 79824, Note_on_c, 0, 67, 96
2, 80112, Note_off_c, 0, 67, 0
2, 80112, Note_off_c, 0, 70, 0
2, 80112, Note_on_c, 0, 66, 96
2, 80112, Note_on_c, 0, 69, 96
2, 80208, Note_off_c, 0, 69, 0
2, 80208, Note_off_c, 0, 66, 0
2, 80208, Note_on_c, 0, 70, 96
2, 80208, Note_on_c, 0, 67, 96
2, 80380, Note_off_c, 0, 67, 0
2, 80380, Note_off_c, 0, 70, 0
2, 80400, Note_on_c, 0, 65, 96
2, 80400, Note_on_c, 0, 69, 96
2, 80544, Note_off_c, 0, 69, 0
2, 80544, Note_on_c, 0, 72, 96
2, 80572, Note_off_c, 0, 65, 0
2, 80587, Note_off_c, 0, 72, 0
2, 80592, Note_on_c, 0, 57, 96
2, 80592, Note_on_c, 0, 65, 96
2, 80635, Note_off_c, 0, 65, 0
2, 80635, Note_off_c, 0, 57, 0
2, 80688, Note_on_c, 0, 57, 96
2, 80688, Note_on_c, 0, 65, 96
2, 80731, Note_off_c, 0, 65, 0
2, 80731, Note_off_c, 0, 57, 0
2, 80784, Note_on_c, 0, 60, 96
2, 80784, Note_on_c, 0, 67, 96
2, 80827, Note_off_c, 0, 67, 0
2, 80827, Note_off_c, 0, 60, 0
2, 80880, Note_on_c, 0, 60, 96
2, 80880, Note_on_c, 0, 67, 96
2, 80923, Note_off_c, 0, 67, 0
2, 80923, Note_off_c, 0, 60, 0
2, 80976, Note_on_c, 0, 69, 96
2, 80976, Note_on_c, 0, 65, 96
2, 81120, Note_off_c, 0, 69, 0
2, 81120, Note_on_c, 0, 72, 96
2, 81148, Note_off_c, 0, 65, 0
2, 81163, Note_off_c, 0, 72, 0
2, 81168, Note_on_c, 0, 57, 96
2, 81168, Note_on_c, 0, 65, 96
2, 81211, Note_off_c, 0, 65, 0
2, 81211, Note_off_c, 0, 57, 0
2, 81264, Note_on_c, 0, 57, 96
2, 81264, Note_on_c, 0, 65, 96
2, 81307, Note_off_c, 0, 65, 0
2, 81307, Note_off_c, 0, 57, 0
2, 81360, Note_on_c, 0, 60, 96
2, 81360, Note_on_c, 0, 67, 96
2, 81403, Note_off_c, 0, 67, 0
2, 81403, Note_off_c, 0, 60, 0
2, 81456, Note_on_c, 0, 60, 96
2, 81456, Note_on_c, 0, 67, 96
2, 81499, Note_off_c, 0, 67, 0
2, 81499, Note_off_c, 0, 60, 0
2, 81552, Note_on_c, 0, 63, 96
2, 81552, Note_on_c, 0, 69, 96
2, 81696, Note_off_c, 0, 69, 0
2, 81696, Note_on_c, 0, 72, 96
2, 81724, Note_off_c, 0, 63, 0
2, 81739, Note_off_c, 0, 72, 0
2, 81744, Note_on_c, 0, 62, 96
2, 81744, Note_on_c, 0, 71, 96
2, 82089, Note_off_c, 0, 71, 0
2, 82089, Note_off_c, 0, 62, 0
2, 82128, Note_on_c, 0, 67, 96
2, 82128, Note_on_c, 0, 61, 96
2, 82272, Note_off_c, 0, 67, 0
2, 82272, Note_on_c, 0, 70, 96
2, 82300, Note_off_c, 0, 61, 0
2, 82315, Note_off_c, 0, 70, 0
2, 82320, Note_on_c, 0, 60, 96
2, 82320, Note_on_c, 0, 69, 96
2, 82665, Note_off_c, 0, 69, 0
2, 82665, Note_off_c, 0, 60, 0
2, 83904, Note_on_c, 0, 59, 45
2, 83952, Note_off_c, 0, 59, 0
2, 83952, Note_on_c, 0, 62, 45
2, 84000, Note_off_c, 0, 62, 0
2, 84000, Note_on_c, 0, 65, 45
2, 84048, Note_off_c, 0, 65, 0
2, 84048, Note_on_c, 0, 68, 45
2, 84096, Note_off_c, 0, 68, 0
2, 84096, Note_on_c, 0, 71, 45
2, 84144, Note_off_c, 0, 71, 0
2, 84144, Note_on_c, 0, 74, 45
2, 84192, Note_off_c, 0, 74, 0
2, 84192, Note_on_c, 0, 77, 45
2, 84240, Note_off_c, 0, 77, 0
2, 84240, Note_on_c, 0, 80, 45
2, 84288, Note_off_c, 0, 80, 0
2, 84288, Note_on_c, 0, 77, 45
2, 84336, Note_off_c, 0, 77, 0
2, 84336, Note_on_c, 0, 74, 45
2, 84384, Note_off_c, 0, 74, 0
2, 84384, Note_on_c, 0, 71, 45
2, 84432, Note_off_c, 0, 71, 0
2, 84432, Note_on_c, 0, 68, 45
2, 84480, Note_off_c, 0, 68, 0
2, 84480, Note_on_c, 0, 65, 45
2, 84528, Note_off_c, 0, 65, 0
2, 84528, Note_on_c, 0, 62, 44
2, 84576, Note_off_c, 0, 62, 0
2, 85608, Note_on_c, 0, 58, 45
2, 85629, Note_off_c, 0, 58, 0
2, 85632, Note_on_c, 0, 60, 45
2, 85653, Note_off_c, 0, 60, 0
2, 85656, Note_on_c, 0, 62, 45
2, 85677, Note_off_c, 0, 62, 0
2, 85680, Note_on_c, 0, 64, 45
2, 85701, Note_off_c, 0, 64, 0
2, 85704, Note_on_c, 0, 65, 45
2, 85725, Note_off_c, 0, 65, 0
2, 85728, Note_on_c, 0, 67, 45
2, 85749, Note_off_c, 0, 67, 0
2, 85752, Note_on_c, 0, 69, 45
2, 85773, Note_off_c, 0, 69, 0
2, 85776, Note_on_c, 0, 70, 45
2, 85797, Note_off_c, 0, 70, 0
2, 85800, Note_on_c, 0, 72, 45
2, 85821, Note_off_c, 0, 72, 0
2, 85824, Note_on_c, 0, 74, 45
2, 85845, Note_off_c, 0, 74, 0
2, 85848, Note_on_c, 0, 76, 45
2, 85869, Note_off_c, 0, 76, 0
2, 85872, Note_on_c, 0, 77, 45
2, 85893, Note_off_c, 0, 77, 0
2, 85896, Note_on_c, 0, 79, 45
2, 85917, Note_off_c, 0, 79, 0
2, 85920, Note_on_c, 0, 81, 45
2, 85941, Note_off_c, 0, 81, 0
2, 85944, Note_on_c, 0, 82, 45
2, 85965, Note_off_c, 0, 82, 0
2, 85968, Note_on_c, 0, 84, 45
2, 85989, Note_off_c, 0, 84, 0
2, 85992, Note_on_c, 0, 86, 45
2, 86013, Note_off_c, 0, 86, 0
2, 86016, Note_on_c, 0, 88, 45
2, 86037, Note_off_c, 0, 88, 0
2, 86040, Note_on_c, 0, 89, 45
2, 86061, Note_off_c, 0, 89, 0
2, 86088, Note_on_c, 0, 77, 45
2, 86109, Note_off_c, 0, 77, 0
2, 86112, Note_on_c, 0, 82, 45
2, 86256, Note_off_c, 0, 82, 0
2, 86256, Note_on_c, 0, 81, 45
2, 86272, Note_off_c, 0, 81, 0
2, 86272, Note_on_c, 0, 79, 45
2, 86288, Note_off_c, 0, 79, 0
2, 86288, Note_on_c, 0, 77, 45
2, 86304, Note_off_c, 0, 77, 0
2, 86304, Note_on_c, 0, 79, 32
2, 86328, Note_off_c, 0, 79, 0
2, 86328, Note_on_c, 0, 81, 32
2, 86352, Note_off_c, 0, 81, 0
2, 86352, Note_on_c, 0, 79, 32
2, 86373, Note_off_c, 0, 79, 0
2, 86376, Note_on_c, 0, 81, 32
2, 86400, Note_off_c, 0, 81, 0
2, 86400, Note_on_c, 0, 79, 32
2, 86421, Note_off_c, 0, 79, 0
2, 86424, Note_on_c, 0, 81, 32
2, 86448, Note_off_c, 0, 81, 0
2, 86448, Note_on_c, 0, 79, 32
2, 86469, Note_off_c, 0, 79, 0
2, 86472, Note_on_c, 0, 81, 32
2, 86496, Note_off_c, 0, 81, 0
2, 86496, Note_on_c, 0, 79, 32
2, 86517, Note_off_c, 0, 79, 0
2, 86520, Note_on_c, 0, 81, 32
2, 86544, Note_off_c, 0, 81, 0
2, 86544, Note_on_c, 0, 79, 32
2, 86565, Note_off_c, 0, 79, 0
2, 86568, Note_on_c, 0, 81, 32
2, 86592, Note_off_c, 0, 81, 0
2, 86592, Note_on_c, 0, 79, 32
2, 86613, Note_off_c, 0, 79, 0
2, 86616, Note_on_c, 0, 81, 32
2, 86637, Note_off_c, 0, 81, 0
2, 86640, Note_on_c, 0, 79, 32
2, 86661, Note_off_c, 0, 79, 0
2, 86664, Note_on_c, 0, 81, 32
2, 86685, Note_off_c, 0, 81, 0
2, 86688, Note_on_c, 0, 81, 32
2, 86709, Note_off_c, 0, 81, 0
2, 86712, Note_on_c, 0, 82, 32
2, 86733, Note_off_c, 0, 82, 0
2, 86736, Note_on_c, 0, 81, 32
2, 86757, Note_off_c, 0, 81, 0
2, 86760, Note_on_c, 0, 82, 32
2, 86781, Note_off_c, 0, 82, 0
2, 86784, Note_on_c, 0, 81, 32
2, 86805, Note_off_c, 0, 81, 0
2, 86808, Note_on_c, 0, 82, 32
2, 86829, Note_off_c, 0, 82, 0
2, 86832, Note_on_c, 0, 81, 32
2, 86853, Note_off_c, 0, 81, 0
2, 86856, Note_on_c, 0, 82, 32
2, 86877, Note_off_c, 0, 82, 0
2, 86880, Note_on_c, 0, 82, 32
2, 86901, Note_off_c, 0, 82, 0
2, 86904, Note_on_c, 0, 84, 32
2, 86925, Note_off_c, 0, 84, 0
2, 86928, Note_on_c, 0, 82, 32
2, 86949, Note_off_c, 0, 82, 0
2, 86952, Note_on_c, 0, 84, 32
2, 86973, Note_off_c, 0, 84, 0
2, 86976, Note_on_c, 0, 82, 32
2, 86997, Note_off_c, 0, 82, 0
2, 87000, Note_on_c, 0, 84, 32
2, 87021, Note_off_c, 0, 84, 0
2, 87024, Note_on_c, 0, 82, 32
2, 87045, Note_off_c, 0, 82, 0
2, 87048, Note_on_c, 0, 84, 32
2, 87069, Note_off_c, 0, 84, 0
2, 87072, Note_on_c, 0, 83, 32
2, 87093, Note_off_c, 0, 83, 0
2, 87096, Note_on_c, 0, 84, 32
2, 87117, Note_off_c, 0, 84, 0
2, 87120, Note_on_c, 0, 83, 32
2, 87141, Note_off_c, 0, 83, 0
2, 87144, Note_on_c, 0, 84, 32
2, 87165, Note_off_c, 0, 84, 0
2, 87168, Note_on_c, 0, 83, 32
2, 87189, Note_off_c, 0, 83, 0
2, 87192, Note_on_c, 0, 84, 55
2, 87213, Note_off_c, 0, 84, 0
2, 87216, Note_on_c, 0, 81, 55
2, 87237, Note_off_c, 0, 81, 0
2, 87240, Note_on_c, 0, 83, 55
2, 87261, Note_off_c, 0, 83, 0
2, 87264, Note_on_c, 0, 84, 55
2, 87296, Note_off_c, 0, 84, 0
2, 87296, Note_on_c, 0, 81, 55
2, 87328, Note_off_c, 0, 81, 0
2, 87328, Note_on_c, 0, 77, 55
2, 87360, Note_off_c, 0, 77, 0
2, 87360, Note_on_c, 0, 72, 55
2, 87392, Note_off_c, 0, 72, 0
2, 87392, Note_on_c, 0, 77, 55
2, 87424, Note_off_c, 0, 77, 0
2, 87424, Note_on_c, 0, 81, 55
2, 87456, Note_off_c, 0, 81, 0
2, 87456, Note_on_c, 0, 84, 55
2, 87488, Note_off_c, 0, 84, 0
2, 87488, Note_on_c, 0, 81, 55
2, 87520, Note_off_c, 0, 81, 0
2, 87520, Note_on_c, 0, 77, 55
2, 87552, Note_off_c, 0, 77, 0
2, 87552, Note_on_c, 0, 72, 55
2, 87584, Note_off_c, 0, 72, 0
2, 87584, Note_on_c, 0, 77, 55
2, 87616, Note_off_c, 0, 77, 0
2, 87616, Note_on_c, 0, 81, 55
2, 87648, Note_off_c, 0, 81, 0
2, 87648, Note_on_c, 0, 84, 55
2, 87680, Note_off_c, 0, 84, 0
2, 87680, Note_on_c, 0, 81, 55
2, 87712, Note_off_c, 0, 81, 0
2, 87712, Note_on_c, 0, 77, 55
2, 87744, Note_off_c, 0, 77, 0
2, 87744, Note_on_c, 0, 86, 55
2, 87776, Note_off_c, 0, 86, 0
2, 87776, Note_on_c, 0, 82, 55
2, 87808, Note_off_c, 0, 82, 0
2, 87808, Note_on_c, 0, 77, 55
2, 87840, Note_off_c, 0, 77, 0
2, 87840, Note_on_c, 0, 84, 55
2, 87872, Note_off_c, 0, 84, 0
2, 87872, Note_on_c, 0, 81, 55
2, 87904, Note_off_c, 0, 81, 0
2, 87904, Note_on_c, 0, 77, 55
2, 87936, Note_off_c, 0, 77, 0
2, 87936, Note_on_c, 0, 72, 54
2, 87968, Note_off_c, 0, 72, 0
2, 87968, Note_on_c, 0, 77, 55
2, 88000, Note_off_c, 0, 77, 0
2, 88000, Note_on_c, 0, 81, 55
2, 88032, Note_off_c, 0, 81, 0
2, 88032, Note_on_c, 0, 84, 55
2, 88064, Note_off_c, 0, 84, 0
2, 88064, Note_on_c, 0, 81, 55
2, 88096, Note_off_c, 0, 81, 0
2, 88096, Note_on_c, 0, 77, 55
2, 88128, Note_off_c, 0, 77, 0
2, 88128, Note_on_c, 0, 82, 55
2, 88160, Note_off_c, 0, 82, 0
2, 88160, Note_on_c, 0, 79, 55
2, 88192, Note_off_c, 0, 79, 0
2, 88192, Note_on_c, 0, 76, 55
2, 88224, Note_off_c, 0, 76, 0
2, 88224, Note_on_c, 0, 81, 55
2, 88256, Note_off_c, 0, 81, 0
2, 88256, Note_on_c, 0, 77, 55
2, 88288, Note_off_c, 0, 77, 0
2, 88288, Note_on_c, 0, 72, 55
2, 88320, Note_off_c, 0, 72, 0
2, 88320, Note_on_c, 0, 81, 55
2, 88352, Note_off_c, 0, 81, 0
2, 88352, Note_on_c, 0, 77, 55
2, 88384, Note_off_c, 0, 77, 0
2, 88384, Note_on_c, 0, 72, 55
2, 88416, Note_off_c, 0, 72, 0
2, 88416, Note_on_c, 0, 81, 55
2, 88448, Note_off_c, 0, 81, 0
2, 88448, Note_on_c, 0, 77, 55
2, 88480, Note_off_c, 0, 77, 0
2, 88480, Note_on_c, 0, 72, 55
2, 88512, Note_off_c, 0, 72, 0
2, 88512, Note_on_c, 0, 69, 55
2, 88544, Note_off_c, 0, 69, 0
2, 88544, Note_on_c, 0, 72, 55
2, 88576, Note_off_c, 0, 72, 0
2, 88576, Note_on_c, 0, 77, 55
2, 88608, Note_off_c, 0, 77, 0
2, 88608, Note_on_c, 0, 81, 55
2, 88640, Note_off_c, 0, 81, 0
2, 88640, Note_on_c, 0, 77, 55
2, 88672, Note_off_c, 0, 77, 0
2, 88672, Note_on_c, 0, 72, 55
2, 88704, Note_off_c, 0, 72, 0
2, 88704, Note_on_c, 0, 69, 55
2, 88736, Note_off_c, 0, 69, 0
2, 88736, Note_on_c, 0, 72, 55
2, 88768, Note_off_c, 0, 72, 0
2, 88768, Note_on_c, 0, 77, 55
2, 88800, Note_off_c, 0, 77, 0
2, 88800, Note_on_c, 0, 81, 55
2, 88832, Note_off_c, 0, 81, 0
2, 88832, Note_on_c, 0, 77, 55
2, 88864, Note_off_c, 0, 77, 0
2, 88864, Note_on_c, 0, 72, 55
2, 88896, Note_off_c, 0, 72, 0
2, 88896, Note_on_c, 0, 82, 55
2, 88928, Note_off_c, 0, 82, 0
2, 88928, Note_on_c, 0, 77, 55
2, 88960, Note_off_c, 0, 77, 0
2, 88960, Note_on_c, 0, 74, 55
2, 88992, Note_off_c, 0, 74, 0
2, 88992, Note_on_c, 0, 81, 55
2, 89024, Note_off_c, 0, 81, 0
2, 89024, Note_on_c, 0, 77, 55
2, 89056, Note_off_c, 0, 77, 0
2, 89056, Note_on_c, 0, 72, 55
2, 89088, Note_off_c, 0, 72, 0
2, 89088, Note_on_c, 0, 69, 55
2, 89120, Note_off_c, 0, 69, 0
2, 89120, Note_on_c, 0, 72, 55
2, 89152, Note_off_c, 0, 72, 0
2, 89152, Note_on_c, 0, 77, 55
2, 89184, Note_off_c, 0, 77, 0
2, 89184, Note_on_c, 0, 81, 55
2, 89216, Note_off_c, 0, 81, 0
2, 89216, Note_on_c, 0, 77, 55
2, 89248, Note_off_c, 0, 77, 0
2, 89248, Note_on_c, 0, 72, 55
2, 89280, Note_off_c, 0, 72, 0
2, 89280, Note_on_c, 0, 79, 55
2, 89312, Note_off_c, 0, 79, 0
2, 89312, Note_on_c, 0, 76, 55
2, 89344, Note_off_c, 0, 76, 0
2, 89344, Note_on_c, 0, 70, 55
2, 89376, Note_off_c, 0, 70, 0
2, 89376, Note_on_c, 0, 77, 55
2, 89408, Note_off_c, 0, 77, 0
2, 89408, Note_on_c, 0, 72, 55
2, 89440, Note_off_c, 0, 72, 0
2, 89440, Note_on_c, 0, 69, 55
2, 89472, Note_off_c, 0, 69, 0
2, 89472, Note_on_c, 0, 77, 55
2, 89504, Note_off_c, 0, 77, 0
2, 89504, Note_on_c, 0, 72, 55
2, 89536, Note_off_c, 0, 72, 0
2, 89536, Note_on_c, 0, 69, 55
2, 89568, Note_off_c, 0, 69, 0
2, 89568, Note_on_c, 0, 79, 55
2, 89600, Note_off_c, 0, 79, 0
2, 89600, Note_on_c, 0, 76, 55
2, 89632, Note_off_c, 0, 76, 0
2, 89632, Note_on_c, 0, 72, 55
2, 89664, Note_off_c, 0, 72, 0
2, 89664, Note_on_c, 0, 67, 55
2, 89696, Note_off_c, 0, 67, 0
2, 89696, Note_on_c, 0, 72, 55
2, 89728, Note_off_c, 0, 72, 0
2, 89728, Note_on_c, 0, 76, 55
2, 89760, Note_off_c, 0, 76, 0
2, 89760, Note_on_c, 0, 79, 55
2, 89792, Note_off_c, 0, 79, 0
2, 89792, Note_on_c, 0, 76, 55
2, 89824, Note_off_c, 0, 76, 0
2, 89824, Note_on_c, 0, 72, 55
2, 89856, Note_off_c, 0, 72, 0
2, 89856, Note_on_c, 0, 67, 55
2, 89888, Note_off_c, 0, 67, 0
2, 89888, Note_on_c, 0, 72, 55
2, 89920, Note_off_c, 0, 72, 0
2, 89920, Note_on_c, 0, 76, 55
2, 89952, Note_off_c, 0, 76, 0
2, 89952, Note_on_c, 0, 79, 55
2, 89984, Note_off_c, 0, 79, 0
2, 89984, Note_on_c, 0, 76, 55
2, 90016, Note_off_c, 0, 76, 0
2, 90016, Note_on_c, 0, 72, 55
2, 90048, Note_off_c, 0, 72, 0
2, 90048, Note_on_c, 0, 80, 55
2, 90080, Note_off_c, 0, 80, 0
2, 90080, Note_on_c, 0, 76, 55
2, 90112, Note_off_c, 0, 76, 0
2, 90112, Note_on_c, 0, 72, 55
2, 90144, Note_off_c, 0, 72, 0
2, 90144, Note_on_c, 0, 81, 55
2, 90176, Note_off_c, 0, 81, 0
2, 90176, Note_on_c, 0, 77, 55
2, 90208, Note_off_c, 0, 77, 0
2, 90208, Note_on_c, 0, 72, 55
2, 90240, Note_off_c, 0, 72, 0
2, 90240, Note_on_c, 0, 69, 55
2, 90272, Note_off_c, 0, 69, 0
2, 90272, Note_on_c, 0, 72, 55
2, 90304, Note_off_c, 0, 72, 0
2, 90304, Note_on_c, 0, 77, 55
2, 90336, Note_off_c, 0, 77, 0
2, 90336, Note_on_c, 0, 81, 55
2, 90368, Note_off_c, 0, 81, 0
2, 90368, Note_on_c, 0, 77, 55
2, 90400, Note_off_c, 0, 77, 0
2, 90400, Note_on_c, 0, 72, 55
2, 90432, Note_off_c, 0, 72, 0
2, 90432, Note_on_c, 0, 80, 55
2, 90464, Note_off_c, 0, 80, 0
2, 90464, Note_on_c, 0, 76, 55
2, 90496, Note_off_c, 0, 76, 0
2, 90496, Note_on_c, 0, 72, 55
2, 90528, Note_off_c, 0, 72, 0
2, 90528, Note_on_c, 0, 81, 55
2, 90560, Note_off_c, 0, 81, 0
2, 90560, Note_on_c, 0, 77, 55
2, 90592, Note_off_c, 0, 77, 0
2, 90592, Note_on_c, 0, 72, 55
2, 90624, Note_off_c, 0, 72, 0
2, 90624, Note_on_c, 0, 80, 55
2, 90656, Note_off_c, 0, 80, 0
2, 90656, Note_on_c, 0, 76, 55
2, 90688, Note_off_c, 0, 76, 0
2, 90688, Note_on_c, 0, 72, 55
2, 90720, Note_off_c, 0, 72, 0
2, 90720, Note_on_c, 0, 81, 55
2, 90752, Note_off_c, 0, 81, 0
2, 90752, Note_on_c, 0, 77, 55
2, 90784, Note_off_c, 0, 77, 0
2, 90784, Note_on_c, 0, 72, 55
2, 90816, Note_off_c, 0, 72, 0
2, 90816, Note_on_c, 0, 69, 55
2, 90848, Note_off_c, 0, 69, 0
2, 90848, Note_on_c, 0, 72, 55
2, 90880, Note_off_c, 0, 72, 0
2, 90880, Note_on_c, 0, 77, 55
2, 90912, Note_off_c, 0, 77, 0
2, 90912, Note_on_c, 0, 81, 55
2, 90944, Note_off_c, 0, 81, 0
2, 90944, Note_on_c, 0, 77, 55
2, 90976, Note_off_c, 0, 77, 0
2, 90976, Note_on_c, 0, 72, 55
2, 91008, Note_off_c, 0, 72, 0
2, 91008, Note_on_c, 0, 69, 55
2, 91040, Note_off_c, 0, 69, 0
2, 91040, Note_on_c, 0, 72, 55
2, 91072, Note_off_c, 0, 72, 0
2, 91072, Note_on_c, 0, 77, 55
2, 91104, Note_off_c, 0, 77, 0
2, 91104, Note_on_c, 0, 81, 55
2, 91136, Note_off_c, 0, 81, 0
2, 91136, Note_on_c, 0, 77, 55
2, 91168, Note_off_c, 0, 77, 0
2, 91168, Note_on_c, 0, 72, 55
2, 91200, Note_off_c, 0, 72, 0
2, 91200, Note_on_c, 0, 81, 55
2, 91232, Note_off_c, 0, 81, 0
2, 91232, Note_on_c, 0, 78, 55
2, 91264, Note_off_c, 0, 78, 0
2, 91264, Note_on_c, 0, 72, 55
2, 91296, Note_off_c, 0, 72, 0
2, 91296, Note_on_c, 0, 82, 55
2, 91328, Note_off_c, 0, 82, 0
2, 91328, Note_on_c, 0, 79, 55
2, 91360, Note_off_c, 0, 79, 0
2, 91360, Note_on_c, 0, 76, 55
2, 91392, Note_off_c, 0, 76, 0
2, 91392, Note_on_c, 0, 72, 55
2, 91424, Note_off_c, 0, 72, 0
2, 91424, Note_on_c, 0, 76, 55
2, 91456, Note_off_c, 0, 76, 0
2, 91456, Note_on_c, 0, 79, 55
2, 91488, Note_off_c, 0, 79, 0
2, 91488, Note_on_c, 0, 82, 55
2, 91520, Note_off_c, 0, 82, 0
2, 91520, Note_on_c, 0, 79, 55
2, 91552, Note_off_c, 0, 79, 0
2, 91552, Note_on_c, 0, 72, 55
2, 91584, Note_off_c, 0, 72, 0
2, 91584, Note_on_c, 0, 81, 55
2, 91616, Note_off_c, 0, 81, 0
2, 91616, Note_on_c, 0, 78, 55
2, 91648, Note_off_c, 0, 78, 0
2, 91648, Note_on_c, 0, 72, 55
2, 91680, Note_off_c, 0, 72, 0
2, 91680, Note_on_c, 0, 82, 55
2, 91712, Note_off_c, 0, 82, 0
2, 91712, Note_on_c, 0, 79, 55
2, 91744, Note_off_c, 0, 79, 0
2, 91744, Note_on_c, 0, 72, 55
2, 91776, Note_off_c, 0, 72, 0
2, 91776, Note_on_c, 0, 79, 55
2, 91808, Note_off_c, 0, 79, 0
2, 91808, Note_on_c, 0, 76, 55
2, 91840, Note_off_c, 0, 76, 0
2, 91840, Note_on_c, 0, 72, 55
2, 91872, Note_off_c, 0, 72, 0
2, 91872, Note_on_c, 0, 81, 55
2, 91904, Note_off_c, 0, 81, 0
2, 91904, Note_on_c, 0, 77, 55
2, 91936, Note_off_c, 0, 77, 0
2, 91936, Note_on_c, 0, 72, 55
2, 91968, Note_off_c, 0, 72, 0
2, 91968, Note_on_c, 0, 84, 55
2, 92000, Note_off_c, 0, 84, 0
2, 92000, Note_on_c, 0, 77, 55
2, 92032, Note_off_c, 0, 77, 0
2, 92032, Note_on_c, 0, 72, 55
2, 92064, Note_off_c, 0, 72, 0
2, 92064, Note_on_c, 0, 77, 55
2, 92096, Note_off_c, 0, 77, 0
2, 92096, Note_on_c, 0, 72, 55
2, 92128, Note_off_c, 0, 72, 0
2, 92128, Note_on_c, 0, 69, 55
2, 92160, Note_off_c, 0, 69, 0
2, 92160, Note_on_c, 0, 78, 55
2, 92192, Note_off_c, 0, 78, 0
2, 92192, Note_on_c, 0, 72, 55
2, 92224, Note_off_c, 0, 72, 0
2, 92224, Note_on_c, 0, 69, 55
2, 92256, Note_off_c, 0, 69, 0
2, 92256, Note_on_c, 0, 79, 55
2, 92288, Note_off_c, 0, 79, 0
2, 92288, Note_on_c, 0, 76, 55
2, 92320, Note_off_c, 0, 76, 0
2, 92320, Note_on_c, 0, 72, 55
2, 92352, Note_off_c, 0, 72, 0
2, 92352, Note_on_c, 0, 80, 55
2, 92384, Note_off_c, 0, 80, 0
2, 92384, Note_on_c, 0, 76, 55
2, 92416, Note_off_c, 0, 76, 0
2, 92416, Note_on_c, 0, 72, 55
2, 92448, Note_off_c, 0, 72, 0
2, 92448, Note_on_c, 0, 81, 55
2, 92480, Note_off_c, 0, 81, 0
2, 92480, Note_on_c, 0, 77, 55
2, 92512, Note_off_c, 0, 77, 0
2, 92512, Note_on_c, 0, 72, 55
2, 92544, Note_off_c, 0, 72, 0
2, 92544, Note_on_c, 0, 84, 55
2, 92576, Note_off_c, 0, 84, 0
2, 92576, Note_on_c, 0, 77, 55
2, 92608, Note_off_c, 0, 77, 0
2, 92608, Note_on_c, 0, 72, 55
2, 92640, Note_off_c, 0, 72, 0
2, 92640, Note_on_c, 0, 77, 55
2, 92672, Note_off_c, 0, 77, 0
2, 92672, Note_on_c, 0, 72, 55
2, 92704, Note_off_c, 0, 72, 0
2, 92704, Note_on_c, 0, 69, 55
2, 92736, Note_off_c, 0, 69, 0
2, 92736, Note_on_c, 0, 78, 55
2, 92768, Note_off_c, 0, 78, 0
2, 92768, Note_on_c, 0, 72, 55
2, 92800, Note_off_c, 0, 72, 0
2, 92800, Note_on_c, 0, 69, 55
2, 92832, Note_off_c, 0, 69, 0
2, 92832, Note_on_c, 0, 79, 55
2, 92864, Note_off_c, 0, 79, 0
2, 92864, Note_on_c, 0, 76, 55
2, 92896, Note_off_c, 0, 76, 0
2, 92896, Note_on_c, 0, 72, 55
2, 92928, Note_off_c, 0, 72, 0
2, 92928, Note_on_c, 0, 80, 55
2, 92960, Note_off_c, 0, 80, 0
2, 92960, Note_on_c, 0, 76, 55
2, 92992, Note_off_c, 0, 76, 0
2, 92992, Note_on_c, 0, 72, 55
2, 93024, Note_off_c, 0, 72, 0
2, 93024, Note_on_c, 0, 81, 55
2, 93056, Note_off_c, 0, 81, 0
2, 93056, Note_on_c, 0, 77, 55
2, 93088, Note_off_c, 0, 77, 0
2, 93088, Note_on_c, 0, 72, 55
2, 93120, Note_off_c, 0, 72, 0
2, 93120, Note_on_c, 0, 77, 55
2, 93152, Note_off_c, 0, 77, 0
2, 93152, Note_on_c, 0, 72, 55
2, 93184, Note_off_c, 0, 72, 0
2, 93184, Note_on_c, 0, 69, 55
2, 93216, Note_off_c, 0, 69, 0
2, 93216, Note_on_c, 0, 74, 55
2, 93248, Note_off_c, 0, 74, 0
2, 93248, Note_on_c, 0, 70, 55
2, 93280, Note_off_c, 0, 70, 0
2, 93280, Note_on_c, 0, 67, 55
2, 93312, Note_off_c, 0, 67, 0
2, 93312, Note_on_c, 0, 70, 55
2, 93344, Note_off_c, 0, 70, 0
2, 93344, Note_on_c, 0, 67, 55
2, 93376, Note_off_c, 0, 67, 0
2, 93376, Note_on_c, 0, 64, 55
2, 93408, Note_off_c, 0, 64, 0
2, 93408, Note_on_c, 0, 67, 55
2, 93440, Note_off_c, 0, 67, 0
2, 93440, Note_on_c, 0, 64, 55
2, 93472, Note_off_c, 0, 64, 0
2, 93472, Note_on_c, 0, 58, 55
2, 93504, Note_off_c, 0, 58, 0
2, 93504, Note_on_c, 0, 64, 55
2, 93536, Note_off_c, 0, 64, 0
2, 93536, Note_on_c, 0, 58, 55
2, 93568, Note_off_c, 0, 58, 0
2, 93568, Note_on_c, 0, 55, 55
2, 93600, Note_off_c, 0, 55, 0
2, 93600, Note_on_c, 0, 69, 55
2, 93632, Note_off_c, 0, 69, 0
2, 93632, Note_on_c, 0, 65, 55
2, 93664, Note_off_c, 0, 65, 0
2, 93664, Note_on_c, 0, 60, 55
2, 93696, Note_off_c, 0, 60, 0
2, 93696, Note_on_c, 0, 72, 55
2, 93728, Note_off_c, 0, 72, 0
2, 93728, Note_on_c, 0, 65, 55
2, 93760, Note_off_c, 0, 65, 0
2, 93760, Note_on_c, 0, 60, 55
2, 93792, Note_off_c, 0, 60, 0
2, 93792, Note_on_c, 0, 65, 55
2, 93824, Note_off_c, 0, 65, 0
2, 93824, Note_on_c, 0, 60, 55
2, 93856, Note_off_c, 0, 60, 0
2, 93856, Note_on_c, 0, 57, 55
2, 93888, Note_off_c, 0, 57, 0
2, 93888, Note_on_c, 0, 66, 55
2, 93920, Note_off_c, 0, 66, 0
2, 93920, Note_on_c, 0, 60, 55
2, 93952, Note_off_c, 0, 60, 0
2, 93952, Note_on_c, 0, 57, 55
2, 93984, Note_off_c, 0, 57, 0
2, 93984, Note_on_c, 0, 67, 55
2, 94016, Note_off_c, 0, 67, 0
2, 94016, Note_on_c, 0, 64, 55
2, 94048, Note_off_c, 0, 64, 0
2, 94048, Note_on_c, 0, 60, 55
2, 94080, Note_off_c, 0, 60, 0
2, 94080, Note_on_c, 0, 68, 55
2, 94112, Note_off_c, 0, 68, 0
2, 94112, Note_on_c, 0, 64, 55
2, 94144, Note_off_c, 0, 64, 0
2, 94144, Note_on_c, 0, 60, 55
2, 94176, Note_off_c, 0, 60, 0
2, 94176, Note_on_c, 0, 69, 55
2, 94208, Note_off_c, 0, 69, 0
2, 94208, Note_on_c, 0, 65, 55
2, 94240, Note_off_c, 0, 65, 0
2, 94240, Note_on_c, 0, 60, 55
2, 94272, Note_off_c, 0, 60, 0
2, 94272, Note_on_c, 0, 72, 55
2, 94304, Note_off_c, 0, 72, 0
2, 94304, Note_on_c, 0, 65, 55
2, 94336, Note_off_c, 0, 65, 0
2, 94336, Note_on_c, 0, 60, 55
2, 94368, Note_off_c, 0, 60, 0
2, 94368, Note_on_c, 0, 65, 55
2, 94400, Note_off_c, 0, 65, 0
2, 94400, Note_on_c, 0, 60, 55
2, 94432, Note_off_c, 0, 60, 0
2, 94432, Note_on_c, 0, 57, 55
2, 94464, Note_off_c, 0, 57, 0
2, 94464, Note_on_c, 0, 66, 55
2, 94496, Note_off_c, 0, 66, 0
2, 94496, Note_on_c, 0, 60, 55
2, 94528, Note_off_c, 0, 60, 0
2, 94528, Note_on_c, 0, 57, 55
2, 94560, Note_off_c, 0, 57, 0
2, 94560, Note_on_c, 0, 67, 55
2, 94592, Note_off_c, 0, 67, 0
2, 94592, Note_on_c, 0, 64, 55
2, 94624, Note_off_c, 0, 64, 0
2, 94624, Note_on_c, 0, 60, 55
2, 94656, Note_off_c, 0, 60, 0
2, 94656, Note_on_c, 0, 68, 55
2, 94688, Note_off_c, 0, 68, 0
2, 94688, Note_on_c, 0, 64, 55
2, 94720, Note_off_c, 0, 64, 0
2, 94720, Note_on_c, 0, 60, 55
2, 94752, Note_off_c, 0, 60, 0
2, 94752, Note_on_c, 0, 69, 55
2, 94784, Note_off_c, 0, 69, 0
2, 94784, Note_on_c, 0, 65, 55
2, 94816, Note_off_c, 0, 65, 0
2, 94816, Note_on_c, 0, 60, 55
2, 94848, Note_off_c, 0, 60, 0
2, 94848, Note_on_c, 0, 69, 55
2, 94880, Note_off_c, 0, 69, 0
2, 94880, Note_on_c, 0, 65, 55
2, 94912, Note_off_c, 0, 65, 0
2, 94912, Note_on_c, 0, 60, 55
2, 94944, Note_off_c, 0, 60, 0
2, 94944, Note_on_c, 0, 70, 55
2, 94976, Note_off_c, 0, 70, 0
2, 94976, Note_on_c, 0, 65, 55
2, 95008, Note_off_c, 0, 65, 0
2, 95008, Note_on_c, 0, 62, 55
2, 95040, Note_off_c, 0, 62, 0
2, 95040, Note_on_c, 0, 71, 55
2, 95072, Note_off_c, 0, 71, 0
2, 95072, Note_on_c, 0, 65, 55
2, 95104, Note_off_c, 0, 65, 0
2, 95104, Note_on_c, 0, 59, 55
2, 95136, Note_off_c, 0, 59, 0
2, 95136, Note_on_c, 0, 72, 55
2, 95168, Note_off_c, 0, 72, 0
2, 95168, Note_on_c, 0, 64, 55
2, 95200, Note_off_c, 0, 64, 0
2, 95200, Note_on_c, 0, 60, 55
2, 95232, Note_off_c, 0, 60, 0
2, 95232, Note_on_c, 0, 73, 55
2, 95264, Note_off_c, 0, 73, 0
2, 95264, Note_on_c, 0, 67, 55
2, 95296, Note_off_c, 0, 67, 0
2, 95296, Note_on_c, 0, 64, 55
2, 95328, Note_off_c, 0, 64, 0
2, 95328, Note_on_c, 0, 74, 55
2, 95360, Note_off_c, 0, 74, 0
2, 95360, Note_on_c, 0, 65, 55
2, 95392, Note_off_c, 0, 65, 0
2, 95392, Note_on_c, 0, 62, 55
2, 95424, Note_off_c, 0, 62, 0
2, 95424, Note_on_c, 0, 76, 55
2, 95456, Note_off_c, 0, 76, 0
2, 95456, Note_on_c, 0, 70, 55
2, 95488, Note_off_c, 0, 70, 0
2, 95488, Note_on_c, 0, 67, 55
2, 95520, Note_off_c, 0, 67, 0
2, 95520, Note_on_c, 0, 77, 55
2, 95552, Note_off_c, 0, 77, 0
2, 95552, Note_on_c, 0, 72, 55
2, 95584, Note_off_c, 0, 72, 0
2, 95584, Note_on_c, 0, 65, 55
2, 95616, Note_off_c, 0, 65, 0
2, 95616, Note_on_c, 0, 78, 55
2, 95648, Note_off_c, 0, 78, 0
2, 95648, Note_on_c, 0, 72, 55
2, 95680, Note_off_c, 0, 72, 0
2, 95680, Note_on_c, 0, 69, 55
2, 95712, Note_off_c, 0, 69, 0
2, 95712, Note_on_c, 0, 79, 55
2, 95744, Note_off_c, 0, 79, 0
2, 95744, Note_on_c, 0, 74, 55
2, 95776, Note_off_c, 0, 74, 0
2, 95776, Note_on_c, 0, 70, 55
2, 95808, Note_off_c, 0, 70, 0
2, 95808, Note_on_c, 0, 80, 55
2, 95840, Note_off_c, 0, 80, 0
2, 95840, Note_on_c, 0, 77, 55
2, 95872, Note_off_c, 0, 77, 0
2, 95872, Note_on_c, 0, 74, 55
2, 95904, Note_off_c, 0, 74, 0
2, 95904, Note_on_c, 0, 72, 96
2, 95904, Note_on_c, 0, 77, 96
2, 95904, Note_on_c, 0, 81, 96
2, 96288, Note_off_c, 0, 81, 0
2, 96288, Note_off_c, 0, 77, 0
2, 96288, Note_off_c, 0, 72, 0
2, 96384, Note_on_c, 0, 60, 45
2, 96470, Note_off_c, 0, 60, 0
2, 96480, Note_on_c, 0, 65, 45
2, 96566, Note_off_c, 0, 65, 0
2, 96576, Note_on_c, 0, 69, 45
2, 96672, Note_off_c, 0, 69, 0
2, 96672, Note_on_c, 0, 72, 45
2, 96768, Note_off_c, 0, 72, 0
2, 96768, Note_on_c, 0, 77, 45
2, 96864, Note_off_c, 0, 77, 0
2, 96864, Note_on_c, 0, 81, 45
2, 96960, Note_off_c, 0, 81, 0
2, 96960, Note_on_c, 0, 84, 45
2, 97056, Note_off_c, 0, 84, 0
2, 97056, Note_on_c, 0, 89, 45
2, 97248, Note_on_c, 0, 84, 45
2, 97272, Note_off_c, 0, 89, 0
2, 97296, Note_off_c, 0, 84, 0
2, 97296, Note_on_c, 0, 81, 45
2, 97344, Note_off_c, 0, 81, 0
2, 97344, Note_on_c, 0, 77, 45
2, 97392, Note_off_c, 0, 77, 0
2, 97392, Note_on_c, 0, 84, 45
2, 97440, Note_off_c, 0, 84, 0
2, 97440, Note_on_c, 0, 81, 45
2, 97488, Note_off_c, 0, 81, 0
2, 97488, Note_on_c, 0, 77, 45
2, 97536, Note_off_c, 0, 77, 0
2, 97536, Note_on_c, 0, 72, 45
2, 97584, Note_off_c, 0, 72, 0
2, 97584, Note_on_c, 0, 81, 45
2, 97632, Note_off_c, 0, 81, 0
2, 97632, Note_on_c, 0, 77, 45
2, 97680, Note_off_c, 0, 77, 0
2, 97680, Note_on_c, 0, 72, 45
2, 97728, Note_off_c, 0, 72, 0
2, 97728, Note_on_c, 0, 69, 45
2, 97776, Note_off_c, 0, 69, 0
2, 97776, Note_on_c, 0, 77, 45
2, 97824, Note_off_c, 0, 77, 0
2, 97824, Note_on_c, 0, 72, 45
2, 97872, Note_off_c, 0, 72, 0
2, 97872, Note_on_c, 0, 69, 45
2, 97920, Note_off_c, 0, 69, 0
2, 97920, Note_on_c, 0, 65, 45
2, 97968, Note_off_c, 0, 65, 0
2, 97968, Note_on_c, 0, 72, 45
2, 98016, Note_off_c, 0, 72, 0
2, 98016, Note_on_c, 0, 69, 45
2, 98064, Note_off_c, 0, 69, 0
2, 98064, Note_on_c, 0, 65, 45
2, 98112, Note_off_c, 0, 65, 0
2, 98112, Note_on_c, 0, 60, 45
2, 98160, Note_off_c, 0, 60, 0
2, 98160, Note_on_c, 0, 69, 45
2, 98208, Note_off_c, 0, 69, 0
2, 98208, Note_on_c, 0, 65, 45
2, 98256, Note_off_c, 0, 65, 0
2, 98256, Note_on_c, 0, 60, 45
2, 98304, Note_off_c, 0, 60, 0
2, 101232, Note_on_c, 0, 60, 45
2, 101280, Note_off_c, 0, 60, 0
2, 101280, Note_on_c, 0, 62, 45
2, 101328, Note_off_c, 0, 62, 0
2, 101328, Note_on_c, 0, 64, 45
2, 101376, Note_off_c, 0, 64, 0
2, 101376, Note_on_c, 0, 65, 45
2, 101424, Note_off_c, 0, 65, 0
2, 101424, Note_on_c, 0, 67, 45
2, 101472, Note_off_c, 0, 67, 0
2, 101472, Note_on_c, 0, 69, 45
2, 101520, Note_off_c, 0, 69, 0
2, 101520, Note_on_c, 0, 70, 45
2, 101568, Note_off_c, 0, 70, 0
2, 101568, Note_on_c, 0, 72, 45
2, 101616, Note_off_c, 0, 72, 0
2, 101616, Note_on_c, 0, 65, 45
2, 101664, Note_off_c, 0, 65, 0
2, 101664, Note_on_c, 0, 67, 45
2, 101712, Note_off_c, 0, 67, 0
2, 101712, Note_on_c, 0, 69, 45
2, 101760, Note_off_c, 0, 69, 0
2, 101760, Note_on_c, 0, 70, 45
2, 101808, Note_off_c, 0, 70, 0
2, 101808, Note_on_c, 0, 72, 45
2, 101856, Note_off_c, 0, 72, 0
2, 101856, Note_on_c, 0, 74, 45
2, 101904, Note_off_c, 0, 74, 0
2, 101904, Note_on_c, 0, 76, 45
2, 101952, Note_off_c, 0, 76, 0
2, 101952, Note_on_c, 0, 77, 45
2, 102000, Note_off_c, 0, 77, 0
2, 102000, Note_on_c, 0, 72, 45
2, 102048, Note_off_c, 0, 72, 0
2, 102048, Note_on_c, 0, 74, 45
2, 102096, Note_off_c, 0, 74, 0
2, 102096, Note_on_c, 0, 76, 45
2, 102144, Note_off_c, 0, 76, 0
2, 102144, Note_on_c, 0, 77, 45
2, 102192, Note_off_c, 0, 77, 0
2, 102192, Note_on_c, 0, 79, 45
2, 102240, Note_off_c, 0, 79, 0
2, 102240, Note_on_c, 0, 81, 45
2, 102288, Note_off_c, 0, 81, 0
2, 102288, Note_on_c, 0, 82, 45
2, 102336, Note_off_c, 0, 82, 0
2, 102336, Note_on_c, 0, 84, 45
2, 102384, Note_off_c, 0, 84, 0
2, 102384, Note_on_c, 0, 77, 45
2, 102432, Note_off_c, 0, 77, 0
2, 102432, Note_on_c, 0, 79, 45
2, 102480, Note_off_c, 0, 79, 0
2, 102480, Note_on_c, 0, 81, 45
2, 102528, Note_off_c, 0, 81, 0
2, 102528, Note_on_c, 0, 82, 45
2, 102576, Note_off_c, 0, 82, 0
2, 102576, Note_on_c, 0, 84, 45
2, 102624, Note_off_c, 0, 84, 0
2, 102624, Note_on_c, 0, 86, 45
2, 102672, Note_off_c, 0, 86, 0
2, 102672, Note_on_c, 0, 88, 45
2, 102720, Note_off_c, 0, 88, 0
2, 102720, Note_on_c, 0, 89, 45
2, 102806, Note_off_c, 0, 89, 0
2, 102864, Note_on_c, 0, 86, 45
2, 102912, Note_off_c, 0, 86, 0
2, 102912, Note_on_c, 0, 83, 45
2, 102976, Note_off_c, 0, 83, 0
2, 102976, Note_on_c, 0, 86, 45
2, 103040, Note_off_c, 0, 86, 0
2, 103040, Note_on_c, 0, 83, 45
2, 103104, Note_off_c, 0, 83, 0
2, 103104, Note_on_c, 0, 80, 45
2, 103168, Note_off_c, 0, 80, 0
2, 103168, Note_on_c, 0, 83, 45
2, 103232, Note_off_c, 0, 83, 0
2, 103232, Note_on_c, 0, 80, 45
2, 103296, Note_off_c, 0, 80, 0
2, 103296, Note_on_c, 0, 77, 45
2, 103360, Note_off_c, 0, 77, 0
2, 103360, Note_on_c, 0, 80, 45
2, 103424, Note_off_c, 0, 80, 0
2, 103424, Note_on_c, 0, 77, 45
2, 103488, Note_off_c, 0, 77, 0
2, 103488, Note_on_c, 0, 74, 45
2, 103552, Note_off_c, 0, 74, 0
2, 103552, Note_on_c, 0, 77, 45
2, 103616, Note_off_c, 0, 77, 0
2, 103616, Note_on_c, 0, 74, 45
2, 103680, Note_off_c, 0, 74, 0
2, 103680, Note_on_c, 0, 71, 45
2, 103744, Note_off_c, 0, 71, 0
2, 103744, Note_on_c, 0, 74, 45
2, 103808, Note_off_c, 0, 74, 0
2, 103808, Note_on_c, 0, 71, 45
2, 103872, Note_off_c, 0, 71, 0
2, 103872, Note_on_c, 0, 68, 45
2, 103936, Note_off_c, 0, 68, 0
2, 103936, Note_on_c, 0, 71, 45
2, 104000, Note_off_c, 0, 71, 0
2, 104000, Note_on_c, 0, 68, 45
2, 104064, Note_off_c, 0, 68, 0
2, 104064, Note_on_c, 0, 65, 45
2, 104128, Note_off_c, 0, 65, 0
2, 104128, Note_on_c, 0, 68, 45
2, 104192, Note_off_c, 0, 68, 0
2, 104192, Note_on_c, 0, 65, 45
2, 104256, Note_off_c, 0, 65, 0
2, 104256, Note_on_c, 0, 62, 45
2, 104320, Note_off_c, 0, 62, 0
2, 104320, Note_on_c, 0, 65, 45
2, 104384, Note_off_c, 0, 65, 0
2, 104384, Note_on_c, 0, 62, 44
2, 104448, Note_off_c, 0, 62, 0
2, 105984, Note_on_c, 0, 64, 45
2, 106041, Note_off_c, 0, 64, 0
2, 106048, Note_on_c, 0, 67, 45
2, 106105, Note_off_c, 0, 67, 0
2, 106112, Note_on_c, 0, 70, 45
2, 106169, Note_off_c, 0, 70, 0
2, 106176, Note_on_c, 0, 64, 45
2, 106240, Note_on_c, 0, 67, 45
2, 106262, Note_off_c, 0, 64, 0
2, 106297, Note_off_c, 0, 67, 0
2, 106304, Note_on_c, 0, 70, 45
2, 106361, Note_off_c, 0, 70, 0
2, 106368, Note_on_c, 0, 73, 45
2, 106425, Note_off_c, 0, 73, 0
2, 106432, Note_on_c, 0, 76, 45
2, 106489, Note_off_c, 0, 76, 0
2, 106496, Note_on_c, 0, 79, 45
2, 106553, Note_off_c, 0, 79, 0
2, 106560, Note_on_c, 0, 70, 45
2, 106624, Note_on_c, 0, 73, 45
2, 106646, Note_off_c, 0, 70, 0
2, 106681, Note_off_c, 0, 73, 0
2, 106688, Note_on_c, 0, 76, 45
2, 106745, Note_off_c, 0, 76, 0
2, 106752, Note_on_c, 0, 79, 45
2, 106809, Note_off_c, 0, 79, 0
2, 106816, Note_on_c, 0, 82, 45
2, 106873, Note_off_c, 0, 82, 0
2, 106880, Note_on_c, 0, 85, 45
2, 106937, Note_off_c, 0, 85, 0
2, 106944, Note_on_c, 0, 84, 45
2, 106944, Note_on_c, 0, 69, 45
2, 106987, Note_off_c, 0, 84, 0
2, 106992, Note_on_c, 0, 77, 45
2, 107035, Note_off_c, 0, 77, 0
2, 107040, Note_on_c, 0, 89, 45
2, 107083, Note_off_c, 0, 89, 0
2, 107088, Note_on_c, 0, 77, 45
2, 107116, Note_off_c, 0, 69, 0
2, 107131, Note_off_c, 0, 77, 0
2, 107136, Note_on_c, 0, 88, 45
2, 107179, Note_off_c, 0, 88, 0
2, 107184, Note_on_c, 0, 77, 45
2, 107227, Note_off_c, 0, 77, 0
2, 107232, Note_on_c, 0, 87, 45
2, 107275, Note_off_c, 0, 87, 0
2, 107280, Note_on_c, 0, 77, 45
2, 107323, Note_off_c, 0, 77, 0
2, 107328, Note_on_c, 0, 86, 45
2, 107371, Note_off_c, 0, 86, 0
2, 107376, Note_on_c, 0, 77, 45
2, 107419, Note_off_c, 0, 77, 0
2, 107424, Note_on_c, 0, 89, 45
2, 107467, Note_off_c, 0, 89, 0
2, 107472, Note_on_c, 0, 77, 45
2, 107515, Note_off_c, 0, 77, 0
2, 107520, Note_on_c, 0, 88, 45
2, 107563, Note_off_c, 0, 88, 0
2, 107568, Note_on_c, 0, 77, 45
2, 107611, Note_off_c, 0, 77, 0
2, 107616, Note_on_c, 0, 87, 45
2, 107659, Note_off_c, 0, 87, 0
2, 107664, Note_on_c, 0, 77, 45
2, 107707, Note_off_c, 0, 77, 0
2, 107712, Note_on_c, 0, 86, 45
2, 107755, Note_off_c, 0, 86, 0
2, 107760, Note_on_c, 0, 77, 45
2, 107803, Note_off_c, 0, 77, 0
2, 107808, Note_on_c, 0, 89, 45
2, 107851, Note_off_c, 0, 89, 0
2, 107856, Note_on_c, 0, 77, 45
2, 107899, Note_off_c, 0, 77, 0
2, 107904, Note_on_c, 0, 88, 45
2, 107947, Note_off_c, 0, 88, 0
2, 107952, Note_on_c, 0, 77, 45
2, 107995, Note_off_c, 0, 77, 0
2, 108000, Note_on_c, 0, 87, 45
2, 108043, Note_off_c, 0, 87, 0
2, 108048, Note_on_c, 0, 77, 45
2, 108091, Note_off_c, 0, 77, 0
2, 108096, Note_on_c, 0, 86, 45
2, 108139, Note_off_c, 0, 86, 0
2, 108144, Note_on_c, 0, 77, 45
2, 108187, Note_off_c, 0, 77, 0
2, 108192, Note_on_c, 0, 87, 45
2, 108235, Note_off_c, 0, 87, 0
2, 108240, Note_on_c, 0, 77, 45
2, 108283, Note_off_c, 0, 77, 0
2, 108288, Note_on_c, 0, 86, 45
2, 108331, Note_off_c, 0, 86, 0
2, 108336, Note_on_c, 0, 77, 45
2, 108379, Note_off_c, 0, 77, 0
2, 108384, Note_on_c, 0, 87, 45
2, 108427, Note_off_c, 0, 87, 0
2, 108432, Note_on_c, 0, 77, 45
2, 108475, Note_off_c, 0, 77, 0
2, 108480, Note_on_c, 0, 86, 45
2, 108528, Note_off_c, 0, 86, 0
2, 108528, Note_on_c, 0, 88, 32
2, 108552, Note_off_c, 0, 88, 0
2, 108552, Note_on_c, 0, 86, 32
2, 108576, Note_off_c, 0, 86, 0
2, 108576, Note_on_c, 0, 84, 32
2, 108600, Note_off_c, 0, 84, 0
2, 108600, Note_on_c, 0, 86, 32
2, 108624, Note_off_c, 0, 86, 0
2, 108624, Note_on_c, 0, 89, 32
2, 108667, Note_off_c, 0, 89, 0
2, 108672, Note_on_c, 0, 79, 45
2, 108720, Note_off_c, 0, 79, 0
2, 108720, Note_on_c, 0, 81, 32
2, 108744, Note_off_c, 0, 81, 0
2, 108744, Note_on_c, 0, 79, 32
2, 108768, Note_off_c, 0, 79, 0
2, 108768, Note_on_c, 0, 78, 32
2, 108792, Note_off_c, 0, 78, 0
2, 108792, Note_on_c, 0, 79, 32
2, 108816, Note_off_c, 0, 79, 0
2, 108816, Note_on_c, 0, 82, 32
2, 108859, Note_off_c, 0, 82, 0
2, 108864, Note_on_c, 0, 74, 45
2, 108912, Note_off_c, 0, 74, 0
2, 108912, Note_on_c, 0, 76, 32
2, 108936, Note_off_c, 0, 76, 0
2, 108936, Note_on_c, 0, 74, 32
2, 108960, Note_off_c, 0, 74, 0
2, 108960, Note_on_c, 0, 73, 32
2, 108984, Note_off_c, 0, 73, 0
2, 108984, Note_on_c, 0, 74, 32
2, 109008, Note_off_c, 0, 74, 0
2, 109008, Note_on_c, 0, 77, 32
2, 109051, Note_off_c, 0, 77, 0
2, 109056, Note_on_c, 0, 70, 45
2, 109104, Note_off_c, 0, 70, 0
2, 109104, Note_on_c, 0, 72, 32
2, 109128, Note_off_c, 0, 72, 0
2, 109128, Note_on_c, 0, 70, 32
2, 109152, Note_off_c, 0, 70, 0
2, 109152, Note_on_c, 0, 69, 32
2, 109176, Note_off_c, 0, 69, 0
2, 109176, Note_on_c, 0, 70, 32
2, 109200, Note_off_c, 0, 70, 0
2, 109200, Note_on_c, 0, 74, 32
2, 109243, Note_off_c, 0, 74, 0
2, 109248, Note_on_c, 0, 67, 45
2, 109296, Note_off_c, 0, 67, 0
2, 109296, Note_on_c, 0, 69, 32
2, 109320, Note_off_c, 0, 69, 0
2, 109320, Note_on_c, 0, 67, 32
2, 109344, Note_off_c, 0, 67, 0
2, 109344, Note_on_c, 0, 66, 32
2, 109368, Note_off_c, 0, 66, 0
2, 109368, Note_on_c, 0, 67, 32
2, 109392, Note_off_c, 0, 67, 0
2, 109392, Note_on_c, 0, 70, 32
2, 109435, Note_off_c, 0, 70, 0
2, 109440, Note_on_c, 0, 69, 45
2, 109824, Note_off_c, 0, 69, 0
2, 109824, Note_on_c, 0, 69, 45
2, 109872, Note_off_c, 0, 69, 0
2, 109872, Note_on_c, 0, 72, 45
2, 109920, Note_off_c, 0, 72, 0
2, 109920, Note_on_c, 0, 70, 45
2, 109968, Note_off_c, 0, 70, 0
2, 109968, Note_on_c, 0, 69, 45
2, 110016, Note_off_c, 0, 69, 0
2, 110016, Note_on_c, 0, 70, 45
2, 110064, Note_off_c, 0, 70, 0
2, 110064, Note_on_c, 0, 72, 45
2, 110112, Note_off_c, 0, 72, 0
2, 110112, Note_on_c, 0, 74, 45
2, 110160, Note_off_c, 0, 74, 0
2, 110160, Note_on_c, 0, 76, 45
2, 110208, Note_off_c, 0, 76, 0
2, 110208, Note_on_c, 0, 77, 45
2, 110256, Note_off_c, 0, 77, 0
2, 110256, Note_on_c, 0, 76, 45
2, 110304, Note_off_c, 0, 76, 0
2, 110304, Note_on_c, 0, 74, 45
2, 110352, Note_off_c, 0, 74, 0
2, 110352, Note_on_c, 0, 72, 45
2, 110400, Note_off_c, 0, 72, 0
2, 110400, Note_on_c, 0, 74, 45
2, 110448, Note_off_c, 0, 74, 0
2, 110448, Note_on_c, 0, 76, 45
2, 110496, Note_off_c, 0, 76, 0
2, 110496, Note_on_c, 0, 77, 45
2, 110544, Note_off_c, 0, 77, 0
2, 110544, Note_on_c, 0, 79, 45
2, 110592, Note_off_c, 0, 79, 0
2, 110592, Note_on_c, 0, 81, 45
2, 110640, Note_off_c, 0, 81, 0
2, 110640, Note_on_c, 0, 79, 45
2, 110688, Note_off_c, 0, 79, 0
2, 110688, Note_on_c, 0, 77, 45
2, 110736, Note_off_c, 0, 77, 0
2, 110736, Note_on_c, 0, 76, 45
2, 110784, Note_off_c, 0, 76, 0
2, 110784, Note_on_c, 0, 77, 45
2, 110832, Note_off_c, 0, 77, 0
2, 110832, Note_on_c, 0, 79, 45
2, 110880, Note_off_c, 0, 79, 0
2, 110880, Note_on_c, 0, 81, 45
2, 110928, Note_off_c, 0, 81, 0
2, 110928, Note_on_c, 0, 82, 45
2, 110976, Note_off_c, 0, 82, 0
2, 110976, Note_on_c, 0, 86, 45
2, 111024, Note_off_c, 0, 86, 0
2, 111024, Note_on_c, 0, 84, 45
2, 111072, Note_off_c, 0, 84, 0
2, 111072, Note_on_c, 0, 82, 45
2, 111120, Note_off_c, 0, 82, 0
2, 111120, Note_on_c, 0, 81, 45
2, 111168, Note_off_c, 0, 81, 0
2, 111168, Note_on_c, 0, 82, 45
2, 111216, Note_off_c, 0, 82, 0
2, 111216, Note_on_c, 0, 84, 45
2, 111264, Note_off_c, 0, 84, 0
2, 111264, Note_on_c, 0, 86, 45
2, 111312, Note_off_c, 0, 86, 0
2, 111312, Note_on_c, 0, 88, 45
2, 111360, Note_off_c, 0, 88, 0
2, 111360, Note_on_c, 0, 89, 45
2, 111532, Note_off_c, 0, 89, 0
2, 111648, Note_on_c, 0, 81, 45
2, 111744, Note_off_c, 0, 81, 0
2, 111744, Note_on_c, 0, 82, 45
2, 111840, Note_off_c, 0, 82, 0
2, 111840, Note_on_c, 0, 83, 45
2, 111936, Note_off_c, 0, 83, 0
2, 111936, Note_on_c, 0, 84, 45
2, 112032, Note_off_c, 0, 84, 0
2, 112032, Note_on_c, 0, 85, 45
2, 112128, Note_off_c, 0, 85, 0
2, 112128, Note_on_c, 0, 86, 45
2, 112224, Note_off_c, 0, 86, 0
2, 112224, Note_on_c, 0, 87, 45
2, 112320, Note_off_c, 0, 87, 0
2, 112320, Note_on_c, 0, 88, 45
2, 112416, Note_off_c, 0, 88, 0
2, 112416, Note_on_c, 0, 89, 45
2, 112502, Note_off_c, 0, 89, 0
2, 112560, Note_on_c, 0, 77, 45
2, 112603, Note_off_c, 0, 77, 0
2, 112608, Note_on_c, 0, 82, 45
2, 112752, Note_off_c, 0, 82, 0
2, 112752, Note_on_c, 0, 81, 45
2, 112768, Note_off_c, 0, 81, 0
2, 112768, Note_on_c, 0, 79, 45
2, 112784, Note_off_c, 0, 79, 0
2, 112784, Note_on_c, 0, 78, 45
2, 112800, Note_off_c, 0, 78, 0
2, 112800, Note_on_c, 0, 79, 45
2, 112848, Note_off_c, 0, 79, 0
2, 112848, Note_on_c, 0, 86, 45
2, 112896, Note_off_c, 0, 86, 0
2, 112896, Note_on_c, 0, 84, 45
2, 112944, Note_off_c, 0, 84, 0
2, 112944, Note_on_c, 0, 82, 45
2, 112992, Note_off_c, 0, 82, 0
2, 112992, Note_on_c, 0, 81, 45
2, 113040, Note_off_c, 0, 81, 0
2, 113040, Note_on_c, 0, 79, 45
2, 113088, Note_off_c, 0, 79, 0
2, 113088, Note_on_c, 0, 78, 45
2, 113136, Note_off_c, 0, 78, 0
2, 113136, Note_on_c, 0, 79, 45
2, 113184, Note_off_c, 0, 79, 0
2, 113184, Note_on_c, 0, 82, 45
2, 113280, Note_off_c, 0, 82, 0
2, 113280, Note_on_c, 0, 74, 45
2, 113366, Note_off_c, 0, 74, 0
2, 113376, Note_on_c, 0, 76, 45
2, 113397, Note_off_c, 0, 76, 0
2, 113400, Note_on_c, 0, 77, 45
2, 113421, Note_off_c, 0, 77, 0
2, 113424, Note_on_c, 0, 76, 45
2, 113445, Note_off_c, 0, 76, 0
2, 113448, Note_on_c, 0, 77, 45
2, 113469, Note_off_c, 0, 77, 0
2, 113472, Note_on_c, 0, 76, 45
2, 113493, Note_off_c, 0, 76, 0
2, 113496, Note_on_c, 0, 77, 45
2, 113517, Note_off_c, 0, 77, 0
2, 113520, Note_on_c, 0, 76, 45
2, 113541, Note_off_c, 0, 76, 0
2, 113544, Note_on_c, 0, 77, 45
2, 113565, Note_off_c, 0, 77, 0
2, 113568, Note_on_c, 0, 76, 45
2, 113589, Note_off_c, 0, 76, 0
2, 113592, Note_on_c, 0, 77, 45
2, 113613, Note_off_c, 0, 77, 0
2, 113616, Note_on_c, 0, 76, 45
2, 113637, Note_off_c, 0, 76, 0
2, 113640, Note_on_c, 0, 77, 45
2, 113661, Note_off_c, 0, 77, 0
2, 113664, Note_on_c, 0, 76, 45
2, 113685, Note_off_c, 0, 76, 0
2, 113688, Note_on_c, 0, 77, 45
2, 113709, Note_off_c, 0, 77, 0
2, 113712, Note_on_c, 0, 76, 45
2, 113733, Note_off_c, 0, 76, 0
2, 113736, Note_on_c, 0, 77, 45
2, 113757, Note_off_c, 0, 77, 0
2, 113760, Note_on_c, 0, 77, 50
2, 113781, Note_off_c, 0, 77, 0
2, 113784, Note_on_c, 0, 79, 50
2, 113805, Note_off_c, 0, 79, 0
2, 113808, Note_on_c, 0, 77, 50
2, 113829, Note_off_c, 0, 77, 0
2, 113832, Note_on_c, 0, 79, 50
2, 113853, Note_off_c, 0, 79, 0
2, 113856, Note_on_c, 0, 77, 50
2, 113877, Note_off_c, 0, 77, 0
2, 113880, Note_on_c, 0, 79, 50
2, 113901, Note_off_c, 0, 79, 0
2, 113904, Note_on_c, 0, 77, 50
2, 113925, Note_off_c, 0, 77, 0
2, 113928, Note_on_c, 0, 79, 50
2, 113949, Note_off_c, 0, 79, 0
2, 113952, Note_on_c, 0, 77, 50
2, 113973, Note_off_c, 0, 77, 0
2, 113976, Note_on_c, 0, 79, 50
2, 113997, Note_off_c, 0, 79, 0
2, 114000, Note_on_c, 0, 77, 50
2, 114021, Note_off_c, 0, 77, 0
2, 114024, Note_on_c, 0, 79, 50
2, 114045, Note_off_c, 0, 79, 0
2, 114048, Note_on_c, 0, 77, 50
2, 114069, Note_off_c, 0, 77, 0
2, 114072, Note_on_c, 0, 79, 50
2, 114093, Note_off_c, 0, 79, 0
2, 114096, Note_on_c, 0, 77, 50
2, 114117, Note_off_c, 0, 77, 0
2, 114120, Note_on_c, 0, 79, 50
2, 114141, Note_off_c, 0, 79, 0
2, 114144, Note_on_c, 0, 78, 55
2, 114165, Note_off_c, 0, 78, 0
2, 114168, Note_on_c, 0, 79, 55
2, 114189, Note_off_c, 0, 79, 0
2, 114192, Note_on_c, 0, 78, 55
2, 114213, Note_off_c, 0, 78, 0
2, 114216, Note_on_c, 0, 79, 55
2, 114237, Note_off_c, 0, 79, 0
2, 114240, Note_on_c, 0, 78, 55
2, 114261, Note_off_c, 0, 78, 0
2, 114264, Note_on_c, 0, 79, 55
2, 114285, Note_off_c, 0, 79, 0
2, 114288, Note_on_c, 0, 78, 55
2, 114309, Note_off_c, 0, 78, 0
2, 114312, Note_on_c, 0, 79, 55
2, 114333, Note_off_c, 0, 79, 0
2, 114336, Note_on_c, 0, 78, 55
2, 114357, Note_off_c, 0, 78, 0
2, 114360, Note_on_c, 0, 79, 55
2, 114381, Note_off_c, 0, 79, 0
2, 114384, Note_on_c, 0, 78, 55
2, 114405, Note_off_c, 0, 78, 0
2, 114408, Note_on_c, 0, 79, 55
2, 114429, Note_off_c, 0, 79, 0
2, 114432, Note_on_c, 0, 78, 55
2, 114453, Note_off_c, 0, 78, 0
2, 114456, Note_on_c, 0, 79, 55
2, 114477, Note_off_c, 0, 79, 0
2, 114480, Note_on_c, 0, 78, 55
2, 114501, Note_off_c, 0, 78, 0
2, 114504, Note_on_c, 0, 79, 55
2, 114525, Note_off_c, 0, 79, 0
2, 114528, Note_on_c, 0, 79, 60
2, 114549, Note_off_c, 0, 79, 0
2, 114552, Note_on_c, 0, 81, 60
2, 114573, Note_off_c, 0, 81, 0
2, 114576, Note_on_c, 0, 79, 60
2, 114597, Note_off_c, 0, 79, 0
2, 114600, Note_on_c, 0, 81, 60
2, 114621, Note_off_c, 0, 81, 0
2, 114624, Note_on_c, 0, 79, 60
2, 114645, Note_off_c, 0, 79, 0
2, 114648, Note_on_c, 0, 81, 60
2, 114669, Note_off_c, 0, 81, 0
2, 114672, Note_on_c, 0, 79, 60
2, 114693, Note_off_c, 0, 79, 0
2, 114696, Note_on_c, 0, 81, 60
2, 114717, Note_off_c, 0, 81, 0
2, 114720, Note_on_c, 0, 79, 60
2, 114741, Note_off_c, 0, 79, 0
2, 114744, Note_on_c, 0, 81, 60
2, 114765, Note_off_c, 0, 81, 0
2, 114768, Note_on_c, 0, 79, 60
2, 114789, Note_off_c, 0, 79, 0
2, 114792, Note_on_c, 0, 81, 60
2, 114813, Note_off_c, 0, 81, 0
2, 114816, Note_on_c, 0, 79, 60
2, 114837, Note_off_c, 0, 79, 0
2, 114840, Note_on_c, 0, 81, 60
2, 114861, Note_off_c, 0, 81, 0
2, 114864, Note_on_c, 0, 79, 60
2, 114885, Note_off_c, 0, 79, 0
2, 114888, Note_on_c, 0, 81, 60
2, 114909, Note_off_c, 0, 81, 0
2, 114912, Note_on_c, 0, 79, 60
2, 114933, Note_off_c, 0, 79, 64
2, 114936, Note_on_c, 0, 81, 60
2, 114957, Note_off_c, 0, 81, 64
2, 114960, Note_on_c, 0, 82, 65
2, 114981, Note_off_c, 0, 82, 64
2, 114984, Note_on_c, 0, 81, 55
2, 115005, Note_off_c, 0, 81, 0
2, 115008, Note_on_c, 0, 79, 44
2, 115032, Note_off_c, 0, 79, 0
2, 115032, Note_on_c, 0, 77, 37
2, 115056, Note_off_c, 0, 77, 0
2, 115056, Note_on_c, 0, 76, 32
2, 115080, Note_off_c, 0, 76, 0
2, 115080, Note_on_c, 0, 74, 29
2, 115104, Note_off_c, 0, 74, 0
2, 115104, Note_on_c, 0, 72, 29
2, 115128, Note_off_c, 0, 72, 0
2, 115128, Note_on_c, 0, 70, 24
2, 115152, Note_off_c, 0, 70, 0
2, 115152, Note_on_c, 0, 69, 24
2, 115176, Note_off_c, 0, 69, 0
2, 115176, Note_on_c, 0, 67, 24
2, 115200, Note_off_c, 0, 67, 0
2, 115200, Note_on_c, 0, 65, 24
2, 115224, Note_off_c, 0, 65, 0
2, 115224, Note_on_c, 0, 67, 24
2, 115248, Note_off_c, 0, 67, 0
2, 115248, Note_on_c, 0, 69, 24
2, 115272, Note_off_c, 0, 69, 0
2, 115272, Note_on_c, 0, 67, 24
2, 115296, Note_off_c, 0, 67, 0
2, 115296, Note_on_c, 0, 69, 24
2, 115320, Note_off_c, 0, 69, 0
2, 115320, Note_on_c, 0, 67, 24
2, 115344, Note_off_c, 0, 67, 0
2, 115344, Note_on_c, 0, 69, 24
2, 115368, Note_off_c, 0, 69, 0
2, 115368, Note_on_c, 0, 67, 24
2, 115392, Note_off_c, 0, 67, 0
2, 115392, Note_on_c, 0, 69, 24
2, 115416, Note_off_c, 0, 69, 0
2, 115416, Note_on_c, 0, 67, 24
2, 115440, Note_off_c, 0, 67, 0
2, 115440, Note_on_c, 0, 69, 24
2, 115464, Note_off_c, 0, 69, 0
2, 115464, Note_on_c, 0, 67, 24
2, 115488, Note_off_c, 0, 67, 0
2, 115488, Note_on_c, 0, 69, 24
2, 115512, Note_off_c, 0, 69, 0
2, 115512, Note_on_c, 0, 67, 24
2, 115536, Note_off_c, 0, 67, 0
2, 115536, Note_on_c, 0, 69, 24
2, 115560, Note_off_c, 0, 69, 0
2, 115560, Note_on_c, 0, 67, 24
2, 115584, Note_off_c, 0, 67, 0
2, 115584, Note_on_c, 0, 69, 24
2, 115608, Note_off_c, 0, 69, 0
2, 115608, Note_on_c, 0, 67, 24
2, 115632, Note_off_c, 0, 67, 0
2, 115632, Note_on_c, 0, 69, 24
2, 115656, Note_off_c, 0, 69, 0
2, 115656, Note_on_c, 0, 67, 24
2, 115680, Note_off_c, 0, 67, 0
2, 115680, Note_on_c, 0, 69, 24
2, 115704, Note_off_c, 0, 69, 0
2, 115704, Note_on_c, 0, 67, 24
2, 115728, Note_off_c, 0, 67, 0
2, 115728, Note_on_c, 0, 69, 24
2, 115752, Note_off_c, 0, 69, 0
2, 115752, Note_on_c, 0, 67, 24
2, 115776, Note_off_c, 0, 67, 0
2, 115776, Note_on_c, 0, 69, 24
2, 115800, Note_off_c, 0, 69, 0
2, 115800, Note_on_c, 0, 67, 24
2, 115824, Note_off_c, 0, 67, 0
2, 115824, Note_on_c, 0, 69, 24
2, 115848, Note_off_c, 0, 69, 0
2, 115848, Note_on_c, 0, 67, 24
2, 115872, Note_off_c, 0, 67, 0
2, 115872, Note_on_c, 0, 69, 24
2, 115896, Note_off_c, 0, 69, 0
2, 115896, Note_on_c, 0, 67, 24
2, 115920, Note_off_c, 0, 67, 0
2, 115920, Note_on_c, 0, 69, 24
2, 115944, Note_off_c, 0, 69, 0
2, 115944, Note_on_c, 0, 67, 24
2, 115968, Note_off_c, 0, 67, 0
2, 115968, Note_on_c, 0, 69, 24
2, 115992, Note_off_c, 0, 69, 0
2, 115992, Note_on_c, 0, 67, 24
2, 116016, Note_off_c, 0, 67, 0
2, 116016, Note_on_c, 0, 69, 24
2, 116040, Note_off_c, 0, 69, 0
2, 116040, Note_on_c, 0, 67, 24
2, 116064, Note_off_c, 0, 67, 0
2, 116064, Note_on_c, 0, 69, 24
2, 116088, Note_off_c, 0, 69, 0
2, 116088, Note_on_c, 0, 67, 24
2, 116112, Note_off_c, 0, 67, 0
2, 116112, Note_on_c, 0, 69, 24
2, 116136, Note_off_c, 0, 69, 0
2, 116136, Note_on_c, 0, 67, 24
2, 116160, Note_off_c, 0, 67, 0
2, 116160, Note_on_c, 0, 69, 24
2, 116184, Note_off_c, 0, 69, 0
2, 116184, Note_on_c, 0, 67, 24
2, 116208, Note_off_c, 0, 67, 0
2, 116208, Note_on_c, 0, 69, 24
2, 116232, Note_off_c, 0, 69, 0
2, 116232, Note_on_c, 0, 67, 24
2, 116256, Note_off_c, 0, 67, 0
2, 116256, Note_on_c, 0, 69, 24
2, 116280, Note_off_c, 0, 69, 0
2, 116280, Note_on_c, 0, 67, 24
2, 116304, Note_off_c, 0, 67, 0
2, 116304, Note_on_c, 0, 69, 24
2, 116328, Note_off_c, 0, 69, 0
2, 116328, Note_on_c, 0, 67, 24
2, 116352, Note_off_c, 0, 67, 0
2, 116352, Note_on_c, 0, 69, 24
2, 116376, Note_off_c, 0, 69, 0
2, 116376, Note_on_c, 0, 67, 24
2, 116400, Note_off_c, 0, 67, 0
2, 116400, Note_on_c, 0, 69, 24
2, 116424, Note_off_c, 0, 69, 0
2, 116424, Note_on_c, 0, 67, 24
2, 116448, Note_off_c, 0, 67, 0
2, 116448, Note_on_c, 0, 69, 24
2, 116472, Note_off_c, 0, 69, 0
2, 116472, Note_on_c, 0, 67, 24
2, 116496, Note_off_c, 0, 67, 0
2, 116496, Note_on_c, 0, 69, 24
2, 116520, Note_off_c, 0, 69, 0
2, 116520, Note_on_c, 0, 67, 24
2, 116544, Note_off_c, 0, 67, 0
2, 116544, Note_on_c, 0, 69, 24
2, 116568, Note_off_c, 0, 69, 0
2, 116568, Note_on_c, 0, 67, 24
2, 116592, Note_off_c, 0, 67, 0
2, 116592, Note_on_c, 0, 69, 24
2, 116616, Note_off_c, 0, 69, 0
2, 116616, Note_on_c, 0, 67, 24
2, 116640, Note_off_c, 0, 67, 0
2, 116640, Note_on_c, 0, 69, 24
2, 116664, Note_off_c, 0, 69, 0
2, 116664, Note_on_c, 0, 67, 24
2, 116688, Note_off_c, 0, 67, 0
2, 116688, Note_on_c, 0, 69, 24
2, 116712, Note_off_c, 0, 69, 0
2, 116712, Note_on_c, 0, 67, 24
2, 116736, Note_off_c, 0, 67, 0
2, 116736, Note_on_c, 0, 69, 24
2, 116760, Note_off_c, 0, 69, 0
2, 116760, Note_on_c, 0, 67, 24
2, 116784, Note_off_c, 0, 67, 0
2, 116784, Note_on_c, 0, 69, 24
2, 116808, Note_off_c, 0, 69, 0
2, 116808, Note_on_c, 0, 67, 24
2, 116832, Note_off_c, 0, 67, 0
2, 116832, Note_on_c, 0, 65, 24
2, 116875, Note_off_c, 0, 65, 0
2, 116880, Note_on_c, 0, 67, 24
2, 116923, Note_off_c, 0, 67, 0
2, 116928, Note_on_c, 0, 65, 45
2, 116928, Note_on_c, 0, 69, 45
2, 117072, Note_off_c, 0, 69, 0
2, 117072, Note_on_c, 0, 72, 45
2, 117100, Note_off_c, 0, 65, 0
2, 117115, Note_off_c, 0, 72, 0
2, 117120, Note_on_c, 0, 60, 45
2, 117120, Note_on_c, 0, 65, 45
2, 117163, Note_off_c, 0, 65, 0
2, 117163, Note_off_c, 0, 60, 0
2, 117216, Note_on_c, 0, 60, 45
2, 117216, Note_on_c, 0, 65, 45
2, 117259, Note_off_c, 0, 65, 0
2, 117259, Note_off_c, 0, 60, 0
2, 117312, Note_on_c, 0, 64, 45
2, 117312, Note_on_c, 0, 67, 45
2, 117355, Note_off_c, 0, 67, 0
2, 117355, Note_off_c, 0, 64, 0
2, 117408, Note_on_c, 0, 64, 45
2, 117408, Note_on_c, 0, 67, 45
2, 117451, Note_off_c, 0, 67, 0
2, 117451, Note_off_c, 0, 64, 0
2, 117504, Note_on_c, 0, 69, 45
2, 117504, Note_on_c, 0, 65, 45
2, 117648, Note_off_c, 0, 69, 0
2, 117648, Note_on_c, 0, 72, 45
2, 117676, Note_off_c, 0, 65, 0
2, 117691, Note_off_c, 0, 72, 0
2, 117696, Note_on_c, 0, 65, 45
2, 117696, Note_on_c, 0, 60, 45
2, 117739, Note_off_c, 0, 60, 0
2, 117739, Note_off_c, 0, 65, 0
2, 117792, Note_on_c, 0, 65, 45
2, 117792, Note_on_c, 0, 60, 45
2, 117835, Note_off_c, 0, 60, 0
2, 117835, Note_off_c, 0, 65, 0
2, 117888, Note_on_c, 0, 67, 45
2, 117888, Note_on_c, 0, 64, 45
2, 117931, Note_off_c, 0, 64, 0
2, 117931, Note_off_c, 0, 67, 0
2, 117984, Note_on_c, 0, 67, 45
2, 117984, Note_on_c, 0, 64, 45
2, 118027, Note_off_c, 0, 64, 0
2, 118027, Note_off_c, 0, 67, 0
2, 118080, Note_on_c, 0, 65, 45
2, 118080, Note_on_c, 0, 69, 45
2, 118224, Note_off_c, 0, 69, 0
2, 118224, Note_on_c, 0, 77, 45
2, 118252, Note_off_c, 0, 65, 0
2, 118267, Note_off_c, 0, 77, 0
2, 118272, Note_on_c, 0, 65, 45
2, 118272, Note_on_c, 0, 67, 45
2, 118416, Note_off_c, 0, 67, 0
2, 118416, Note_on_c, 0, 74, 45
2, 118444, Note_off_c, 0, 65, 0
2, 118459, Note_off_c, 0, 74, 0
2, 118464, Note_on_c, 0, 64, 45
2, 118464, Note_on_c, 0, 72, 45
2, 118608, Note_off_c, 0, 72, 0
2, 118608, Note_on_c, 0, 70, 45
2, 118636, Note_off_c, 0, 64, 0
2, 118651, Note_off_c, 0, 70, 0
2, 118656, Note_on_c, 0, 64, 45
2, 118656, Note_on_c, 0, 70, 45
2, 119040, Note_off_c, 0, 70, 0
2, 119040, Note_off_c, 0, 64, 0
2, 119040, Note_on_c, 0, 65, 44
2, 119040, Note_on_c, 0, 69, 44
2, 119212, Note_off_c, 0, 69, 0
2, 119212, Note_off_c, 0, 65, 0
2, 119232, Note_on_c, 0, 81, 44
2, 119280, Note_off_c, 0, 81, 0
2, 119280, Note_on_c, 0, 82, 44
2, 119328, Note_off_c, 0, 82, 0
2, 119328, Note_on_c, 0, 83, 44
2, 119376, Note_off_c, 0, 83, 0
2, 119376, Note_on_c, 0, 84, 44
2, 119424, Note_off_c, 0, 84, 0
2, 119424, Note_on_c, 0, 77, 44
2, 119467, Note_off_c, 0, 77, 0
2, 119520, Note_on_c, 0, 77, 44
2, 119563, Note_off_c, 0, 77, 0
2, 119616, Note_on_c, 0, 79, 44
2, 119659, Note_off_c, 0, 79, 0
2, 119712, Note_on_c, 0, 79, 44
2, 119755, Note_off_c, 0, 79, 0
2, 119808, Note_on_c, 0, 81, 44
2, 119856, Note_off_c, 0, 81, 0
2, 119856, Note_on_c, 0, 82, 44
2, 119904, Note_off_c, 0, 82, 0
2, 119904, Note_on_c, 0, 83, 44
2, 119952, Note_off_c, 0, 83, 0
2, 119952, Note_on_c, 0, 84, 44
2, 120000, Note_off_c, 0, 84, 0
2, 120000, Note_on_c, 0, 77, 44
2, 120043, Note_off_c, 0, 77, 0
2, 120096, Note_on_c, 0, 77, 44
2, 120139, Note_off_c, 0, 77, 0
2, 120192, Note_on_c, 0, 79, 44
2, 120235, Note_off_c, 0, 79, 0
2, 120288, Note_on_c, 0, 79, 44
2, 120331, Note_off_c, 0, 79, 0
2, 120384, Note_on_c, 0, 81, 44
2, 120528, Note_off_c, 0, 81, 0
2, 120528, Note_on_c, 0, 89, 44
2, 120576, Note_off_c, 0, 89, 0
2, 120576, Note_on_c, 0, 79, 44
2, 120720, Note_off_c, 0, 79, 0
2, 120720, Note_on_c, 0, 86, 44
2, 120768, Note_off_c, 0, 86, 0
2, 120768, Note_on_c, 0, 84, 44
2, 120912, Note_off_c, 0, 84, 0
2, 120912, Note_on_c, 0, 76, 44
2, 120960, Note_off_c, 0, 76, 0
2, 120960, Note_on_c, 0, 77, 44
2, 121176, Note_off_c, 0, 77, 0
2, 121536, Note_on_c, 0, 69, 34
2, 121680, Note_off_c, 0, 69, 0
2, 121680, Note_on_c, 0, 77, 34
2, 121728, Note_off_c, 0, 77, 0
2, 121728, Note_on_c, 0, 67, 34
2, 121872, Note_off_c, 0, 67, 0
2, 121872, Note_on_c, 0, 74, 34
2, 121920, Note_off_c, 0, 74, 0
2, 121920, Note_on_c, 0, 72, 34
2, 122064, Note_off_c, 0, 72, 0
2, 122064, Note_on_c, 0, 64, 34
2, 122112, Note_off_c, 0, 64, 0
2, 122112, Note_on_c, 0, 65, 34
2, 122352, Note_off_c, 0, 65, 0
2, 122688, Note_on_c, 0, 57, 22
2, 122736, Note_off_c, 0, 57, 0
2, 122736, Note_on_c, 0, 65, 22
2, 122865, Note_off_c, 0, 65, 0
2, 122880, Note_on_c, 0, 55, 22
2, 122928, Note_off_c, 0, 55, 0
2, 122928, Note_on_c, 0, 62, 22
2, 123057, Note_off_c, 0, 62, 0
2, 123072, Note_on_c, 0, 60, 22
2, 123120, Note_off_c, 0, 60, 0
2, 123120, Note_on_c, 0, 52, 22
2, 123249, Note_off_c, 0, 52, 0
2, 123264, Note_on_c, 0, 53, 22
2, 123504, Note_off_c, 0, 53, 0
2, 123840, Note_on_c, 0, 45, 22
2, 123888, Note_off_c, 0, 45, 0
2, 123888, Note_on_c, 0, 53, 22
2, 124017, Note_off_c, 0, 53, 0
2, 124032, Note_on_c, 0, 43, 22
2, 124080, Note_off_c, 0, 43, 0
2, 124080, Note_on_c, 0, 50, 22
2, 124209, Note_off_c, 0, 50, 0
2, 124224, Note_on_c, 0, 48, 22
2, 124272, Note_off_c, 0, 48, 0
2, 124272, Note_on_c, 0, 40, 22
2, 124401, Note_off_c, 0, 40, 0
2, 124416, Note_on_c, 0, 57, 11
2, 124464, Note_off_c, 0, 57, 0
2, 124464, Note_on_c, 0, 63, 11
2, 124593, Note_off_c, 0, 63, 0
2, 124608, Note_on_c, 0, 62, 11
2, 124656, Note_off_c, 0, 62, 0
2, 124656, Note_on_c, 0, 58, 11
2, 124785, Note_off_c, 0, 58, 0
2, 124800, Note_on_c, 0, 57, 11
2, 124848, Note_off_c, 0, 57, 0
2, 124848, Note_on_c, 0, 61, 11
2, 124977, Note_off_c, 0, 61, 0
2, 124992, Note_on_c, 0, 62, 11
2, 125040, Note_off_c, 0, 62, 0
2, 125040, Note_on_c, 0, 58, 11
2, 125169, Note_off_c, 0, 58, 0
2, 125184, Note_on_c, 0, 57, 6
2, 125232, Note_off_c, 0, 57, 0
2, 125232, Note_on_c, 0, 60, 6
2, 125361, Note_off_c, 0, 60, 0
2, 125376, Note_on_c, 0, 59, 6
2, 125424, Note_off_c, 0, 59, 0
2, 125424, Note_on_c, 0, 56, 6
2, 125553, Note_off_c, 0, 56, 0
2, 125568, Note_on_c, 0, 57, 6
2, 125616, Note_off_c, 0, 57, 0
2, 125616, Note_on_c, 0, 60, 6
2, 125745, Note_off_c, 0, 60, 0
2, 125760, Note_on_c, 0, 58, 6
2, 125808, Note_off_c, 0, 58, 0
2, 125808, Note_on_c, 0, 55, 6
2, 125937, Note_off_c, 0, 55, 0
2, 125952, Note_on_c, 0, 53, 6
2, 126000, Note_off_c, 0, 53, 0
2, 126000, Note_on_c, 0, 57, 6
2, 126129, Note_off_c, 0, 57, 0
2, 126144, Note_on_c, 0, 52, 1
2, 126168, Note_off_c, 0, 52, 0
2, 126168, Note_on_c, 0, 55, 1
2, 126192, Note_off_c, 0, 55, 0
2, 126192, Note_on_c, 0, 58, 1
2, 126321, Note_off_c, 0, 58, 0
2, 126336, Note_on_c, 0, 55, 1
2, 126336, Note_on_c, 0, 58, 1
2, 126508, Note_off_c, 0, 58, 0
2, 126508, Note_off_c, 0, 55, 0
2, 126528, Note_on_c, 0, 58, 1
2, 126528, Note_on_c, 0, 55, 1
2, 126700, Note_off_c, 0, 55, 0
2, 126700, Note_off_c, 0, 58, 0
2, 126720, Note_on_c, 0, 58, 1
2, 126720, Note_on_c, 0, 55, 1
2, 126720, Note_on_c, 0, 52, 1
2, 127296, Note_off_c, 0, 52, 0
2, 127296, Note_off_c, 0, 55, 0
2, 127296, Note_off_c, 0, 58, 0
2, 127296, Note_on_c, 0, 57, 1
2, 127296, Note_on_c, 0, 53, 1
2, 127641, Note_off_c, 0, 53, 0
2, 127641, Note_off_c, 0, 57, 0
2, 127641, End_track
3, 0, Start_track
3, 0, Title_t, "Seq.: M. J. Rudzinski (mjr55@aol.com)"
3, 0, Channel_prefix, 1
3, 0, Control_c, 1, 7, 100
3, 0, Control_c, 1, 10, 64
3, 0, Program_c, 1, 0
3, 576, Note_on_c, 1, 41, 78
3, 662, Note_off_c, 1, 41, 0
3, 672, Note_on_c, 1, 53, 78
3, 758, Note_off_c, 1, 53, 0
3, 768, Note_on_c, 1, 53, 78
3, 854, Note_off_c, 1, 53, 0
3, 864, Note_on_c, 1, 53, 78
3, 950, Note_off_c, 1, 53, 0
3, 960, Note_on_c, 1, 53, 78
3, 1046, Note_off_c, 1, 53, 0
3, 1056, Note_on_c, 1, 53, 78
3, 1142, Note_off_c, 1, 53, 0
3, 1152, Note_on_c, 1, 53, 78
3, 1238, Note_off_c, 1, 53, 0
3, 1248, Note_on_c, 1, 53, 78
3, 1334, Note_off_c, 1, 53, 0
3, 1344, Note_on_c, 1, 53, 78
3, 1430, Note_off_c, 1, 53, 0
3, 1440, Note_on_c, 1, 53, 78
3, 1526, Note_off_c, 1, 53, 0
3, 1536, Note_on_c, 1, 53, 78
3, 1622, Note_off_c, 1, 53, 0
3, 1632, Note_on_c, 1, 53, 78
3, 1718, Note_off_c, 1, 53, 0
3, 1728, Note_on_c, 1, 41, 78
3, 1814, Note_off_c, 1, 41, 0
3, 1824, Note_on_c, 1, 53, 78
3, 1910, Note_off_c, 1, 53, 0
3, 1920, Note_on_c, 1, 53, 78
3, 2006, Note_off_c, 1, 53, 0
3, 2016, Note_on_c, 1, 53, 78
3, 2102, Note_off_c, 1, 53, 0
3, 2112, Note_on_c, 1, 53, 78
3, 2198, Note_off_c, 1, 53, 0
3, 2208, Note_on_c, 1, 53, 78
3, 2294, Note_off_c, 1, 53, 0
3, 2304, Note_on_c, 1, 53, 78
3, 2390, Note_off_c, 1, 53, 0
3, 2400, Note_on_c, 1, 53, 78
3, 2486, Note_off_c, 1, 53, 0
3, 2496, Note_on_c, 1, 53, 78
3, 2582, Note_off_c, 1, 53, 0
3, 2592, Note_on_c, 1, 53, 78
3, 2678, Note_off_c, 1, 53, 0
3, 2688, Note_on_c, 1, 53, 78
3, 2774, Note_off_c, 1, 53, 0
3, 2784, Note_on_c, 1, 53, 78
3, 2870, Note_off_c, 1, 53, 0
3, 2880, Note_on_c, 1, 36, 78
3, 2966, Note_off_c, 1, 36, 0
3, 2976, Note_on_c, 1, 48, 78
3, 3062, Note_off_c, 1, 48, 0
3, 3072, Note_on_c, 1, 48, 78
3, 3158, Note_off_c, 1, 48, 0
3, 3168, Note_on_c, 1, 48, 78
3, 3254, Note_off_c, 1, 48, 0
3, 3264, Note_on_c, 1, 48, 78
3, 3350, Note_off_c, 1, 48, 0
3, 3360, Note_on_c, 1, 48, 78
3, 3446, Note_off_c, 1, 48, 0
3, 3456, Note_on_c, 1, 48, 78
3, 3542, Note_off_c, 1, 48, 0
3, 3552, Note_on_c, 1, 48, 78
3, 3638, Note_off_c, 1, 48, 0
3, 3648, Note_on_c, 1, 48, 78
3, 3734, Note_off_c, 1, 48, 0
3, 3744, Note_on_c, 1, 48, 78
3, 3830, Note_off_c, 1, 48, 0
3, 3840, Note_on_c, 1, 48, 78
3, 3926, Note_off_c, 1, 48, 0
3, 3936, Note_on_c, 1, 48, 78
3, 4022, Note_off_c, 1, 48, 0
3, 4032, Note_on_c, 1, 36, 78
3, 4118, Note_off_c, 1, 36, 0
3, 4128, Note_on_c, 1, 48, 78
3, 4214, Note_off_c, 1, 48, 0
3, 4224, Note_on_c, 1, 48, 78
3, 4310, Note_off_c, 1, 48, 0
3, 4320, Note_on_c, 1, 48, 78
3, 4406, Note_off_c, 1, 48, 0
3, 4416, Note_on_c, 1, 48, 78
3, 4502, Note_off_c, 1, 48, 0
3, 4512, Note_on_c, 1, 48, 78
3, 4598, Note_off_c, 1, 48, 0
3, 4608, Note_on_c, 1, 48, 78
3, 4694, Note_off_c, 1, 48, 0
3, 4704, Note_on_c, 1, 48, 78
3, 4790, Note_off_c, 1, 48, 0
3, 4800, Note_on_c, 1, 48, 78
3, 4886, Note_off_c, 1, 48, 0
3, 4896, Note_on_c, 1, 48, 78
3, 4982, Note_off_c, 1, 48, 0
3, 4992, Note_on_c, 1, 48, 78
3, 5078, Note_off_c, 1, 48, 0
3, 5088, Note_on_c, 1, 48, 78
3, 5174, Note_off_c, 1, 48, 0
3, 5184, Note_on_c, 1, 53, 78
3, 5356, Note_off_c, 1, 53, 0
3, 5376, Note_on_c, 1, 45, 78
3, 5376, Note_on_c, 1, 53, 78
3, 5419, Note_off_c, 1, 53, 0
3, 5419, Note_off_c, 1, 45, 0
3, 5472, Note_on_c, 1, 45, 78
3, 5472, Note_on_c, 1, 53, 78
3, 5515, Note_off_c, 1, 53, 0
3, 5515, Note_off_c, 1, 45, 0
3, 5568, Note_on_c, 1, 48, 78
3, 5568, Note_on_c, 1, 55, 78
3, 5611, Note_off_c, 1, 55, 0
3, 5611, Note_off_c, 1, 48, 0
3, 5664, Note_on_c, 1, 48, 78
3, 5664, Note_on_c, 1, 55, 78
3, 5707, Note_off_c, 1, 55, 0
3, 5707, Note_off_c, 1, 48, 0
3, 5760, Note_on_c, 1, 57, 78
3, 5760, Note_on_c, 1, 53, 78
3, 5932, Note_off_c, 1, 53, 0
3, 5932, Note_off_c, 1, 57, 0
3, 5952, Note_on_c, 1, 45, 78
3, 5952, Note_on_c, 1, 53, 78
3, 5995, Note_off_c, 1, 53, 0
3, 5995, Note_off_c, 1, 45, 0
3, 6048, Note_on_c, 1, 45, 78
3, 6048, Note_on_c, 1, 53, 78
3, 6091, Note_off_c, 1, 53, 0
3, 6091, Note_off_c, 1, 45, 0
3, 6144, Note_on_c, 1, 48, 78
3, 6144, Note_on_c, 1, 55, 78
3, 6187, Note_off_c, 1, 55, 0
3, 6187, Note_off_c, 1, 48, 0
3, 6240, Note_on_c, 1, 48, 78
3, 6240, Note_on_c, 1, 55, 78
3, 6283, Note_off_c, 1, 55, 0
3, 6283, Note_off_c, 1, 48, 0
3, 6336, Note_on_c, 1, 53, 78
3, 6336, Note_on_c, 1, 57, 78
3, 6508, Note_off_c, 1, 57, 0
3, 6508, Note_off_c, 1, 53, 0
3, 6528, Note_on_c, 1, 46, 78
3, 6700, Note_off_c, 1, 46, 0
3, 6720, Note_on_c, 1, 48, 78
3, 6892, Note_off_c, 1, 48, 0
3, 6912, Note_on_c, 1, 41, 78
3, 7084, Note_off_c, 1, 41, 0
3, 7104, Note_on_c, 1, 53, 60
3, 7276, Note_off_c, 1, 53, 0
3, 7488, Note_on_c, 1, 62, 60
3, 7488, Note_on_c, 1, 53, 60
3, 7872, Note_off_c, 1, 62, 0
3, 7872, Note_on_c, 1, 64, 60
3, 8044, Note_off_c, 1, 64, 0
3, 8064, Note_off_c, 1, 53, 0
3, 8064, Note_on_c, 1, 53, 60
3, 8064, Note_on_c, 1, 65, 60
3, 8236, Note_off_c, 1, 65, 0
3, 8236, Note_off_c, 1, 53, 0
3, 8256, Note_on_c, 1, 53, 60
3, 8299, Note_off_c, 1, 53, 0
3, 8352, Note_on_c, 1, 53, 60
3, 8448, Note_off_c, 1, 53, 0
3, 8448, Note_on_c, 1, 55, 60
3, 8544, Note_off_c, 1, 55, 0
3, 8544, Note_on_c, 1, 57, 60
3, 8630, Note_off_c, 1, 57, 0
3, 8640, Note_on_c, 1, 58, 60
3, 8640, Note_on_c, 1, 53, 60
3, 8726, Note_off_c, 1, 58, 0
3, 8736, Note_on_c, 1, 57, 60
3, 8822, Note_off_c, 1, 57, 0
3, 8832, Note_on_c, 1, 58, 60
3, 8918, Note_off_c, 1, 58, 0
3, 8928, Note_on_c, 1, 62, 60
3, 9014, Note_off_c, 1, 62, 0
3, 9024, Note_on_c, 1, 60, 60
3, 9110, Note_off_c, 1, 60, 0
3, 9120, Note_on_c, 1, 58, 60
3, 9206, Note_off_c, 1, 58, 0
3, 9216, Note_off_c, 1, 53, 0
3, 9216, Note_on_c, 1, 53, 60
3, 9216, Note_on_c, 1, 62, 60
3, 9345, Note_off_c, 1, 62, 0
3, 9360, Note_on_c, 1, 58, 60
3, 9388, Note_off_c, 1, 53, 0
3, 9403, Note_off_c, 1, 58, 0
3, 9408, Note_on_c, 1, 53, 60
3, 9408, Note_on_c, 1, 57, 60
3, 9580, Note_off_c, 1, 57, 0
3, 9580, Note_off_c, 1, 53, 0
3, 9792, Note_on_c, 1, 48, 78
3, 9792, Note_on_c, 1, 36, 78
3, 9964, Note_off_c, 1, 36, 0
3, 9964, Note_off_c, 1, 48, 0
3, 9984, Note_on_c, 1, 52, 78
3, 9984, Note_on_c, 1, 40, 78
3, 10156, Note_off_c, 1, 40, 0
3, 10156, Note_off_c, 1, 52, 0
3, 10176, Note_on_c, 1, 55, 78
3, 10176, Note_on_c, 1, 43, 78
3, 10348, Note_off_c, 1, 43, 0
3, 10348, Note_off_c, 1, 55, 0
3, 10368, Note_on_c, 1, 60, 78
3, 10368, Note_on_c, 1, 48, 78
3, 10540, Note_off_c, 1, 48, 0
3, 10540, Note_off_c, 1, 60, 0
3, 10560, Note_on_c, 1, 52, 78
3, 10560, Note_on_c, 1, 40, 78
3, 10732, Note_off_c, 1, 40, 0
3, 10732, Note_off_c, 1, 52, 0
3, 10752, Note_on_c, 1, 55, 78
3, 10752, Note_on_c, 1, 43, 78
3, 10924, Note_off_c, 1, 43, 0
3, 10924, Note_off_c, 1, 55, 0
3, 10944, Note_on_c, 1, 60, 78
3, 10944, Note_on_c, 1, 48, 78
3, 11116, Note_off_c, 1, 48, 0
3, 11116, Note_off_c, 1, 60, 0
3, 11136, Note_on_c, 1, 52, 78
3, 11136, Note_on_c, 1, 40, 78
3, 11308, Note_off_c, 1, 40, 0
3, 11308, Note_off_c, 1, 52, 0
3, 11328, Note_on_c, 1, 55, 78
3, 11328, Note_on_c, 1, 43, 78
3, 11500, Note_off_c, 1, 43, 0
3, 11500, Note_off_c, 1, 55, 0
3, 11520, Note_on_c, 1, 36, 78
3, 11520, Note_on_c, 1, 48, 78
3, 11779, Note_off_c, 1, 48, 0
3, 11779, Note_off_c, 1, 36, 0
3, 11808, Note_on_c, 1, 57, 55
3, 11856, Note_off_c, 1, 57, 0
3, 11904, Note_on_c, 1, 58, 55
3, 11952, Note_off_c, 1, 58, 0
3, 12000, Note_on_c, 1, 57, 55
3, 12048, Note_off_c, 1, 57, 0
3, 12096, Note_on_c, 1, 55, 55
3, 12144, Note_off_c, 1, 55, 0
3, 12192, Note_on_c, 1, 53, 55
3, 12240, Note_off_c, 1, 53, 0
3, 12288, Note_on_c, 1, 52, 55
3, 12336, Note_off_c, 1, 52, 0
3, 12384, Note_on_c, 1, 55, 55
3, 12432, Note_off_c, 1, 55, 0
3, 12480, Note_on_c, 1, 53, 55
3, 12528, Note_off_c, 1, 53, 0
3, 12576, Note_on_c, 1, 52, 55
3, 12624, Note_off_c, 1, 52, 0
3, 12672, Note_on_c, 1, 53, 55
3, 12844, Note_off_c, 1, 53, 0
3, 12864, Note_on_c, 1, 41, 55
3, 13056, Note_off_c, 1, 41, 0
3, 13248, Note_on_c, 1, 53, 77
3, 13440, Note_off_c, 1, 53, 0
3, 13440, Note_on_c, 1, 41, 78
3, 13632, Note_off_c, 1, 41, 0
3, 13728, Note_on_c, 1, 53, 78
3, 13824, Note_off_c, 1, 53, 0
3, 13824, Note_on_c, 1, 53, 78
3, 14016, Note_off_c, 1, 53, 0
3, 14016, Note_on_c, 1, 41, 78
3, 14208, Note_off_c, 1, 41, 0
3, 14400, Note_on_c, 1, 53, 78
3, 14592, Note_off_c, 1, 53, 0
3, 14592, Note_on_c, 1, 41, 78
3, 14784, Note_off_c, 1, 41, 0
3, 14880, Note_on_c, 1, 53, 78
3, 14976, Note_off_c, 1, 53, 0
3, 14976, Note_on_c, 1, 53, 78
3, 15168, Note_off_c, 1, 53, 0
3, 15168, Note_on_c, 1, 41, 78
3, 15360, Note_off_c, 1, 41, 0
3, 15552, Note_on_c, 1, 48, 78
3, 15744, Note_off_c, 1, 48, 0
3, 15744, Note_on_c, 1, 36, 78
3, 15936, Note_off_c, 1, 36, 0
3, 16032, Note_on_c, 1, 48, 78
3, 16128, Note_off_c, 1, 48, 0
3, 16128, Note_on_c, 1, 48, 78
3, 16320, Note_off_c, 1, 48, 0
3, 16320, Note_on_c, 1, 36, 78
3, 16512, Note_off_c, 1, 36, 0
3, 16704, Note_on_c, 1, 48, 78
3, 16896, Note_off_c, 1, 48, 0
3, 16896, Note_on_c, 1, 36, 78
3, 17088, Note_off_c, 1, 36, 0
3, 17184, Note_on_c, 1, 48, 78
3, 17280, Note_off_c, 1, 48, 0
3, 17280, Note_on_c, 1, 48, 78
3, 17472, Note_off_c, 1, 48, 0
3, 17472, Note_on_c, 1, 36, 78
3, 17664, Note_off_c, 1, 36, 0
3, 17856, Note_on_c, 1, 41, 78
3, 17856, Note_on_c, 1, 53, 78
3, 17952, Note_off_c, 1, 53, 0
3, 17952, Note_off_c, 1, 41, 0
3, 18048, Note_on_c, 1, 45, 78
3, 18048, Note_on_c, 1, 57, 78
3, 18144, Note_off_c, 1, 57, 0
3, 18144, Note_off_c, 1, 45, 0
3, 18240, Note_on_c, 1, 48, 78
3, 18240, Note_on_c, 1, 60, 78
3, 18336, Note_off_c, 1, 60, 0
3, 18336, Note_off_c, 1, 48, 0
3, 18432, Note_on_c, 1, 41, 78
3, 18432, Note_on_c, 1, 53, 78
3, 18528, Note_off_c, 1, 53, 0
3, 18528, Note_off_c, 1, 41, 0
3, 18624, Note_on_c, 1, 45, 78
3, 18624, Note_on_c, 1, 57, 78
3, 18720, Note_off_c, 1, 57, 0
3, 18720, Note_off_c, 1, 45, 0
3, 18816, Note_on_c, 1, 48, 78
3, 18816, Note_on_c, 1, 60, 78
3, 18912, Note_off_c, 1, 60, 0
3, 18912, Note_off_c, 1, 48, 0
3, 19008, Note_on_c, 1, 41, 78
3, 19008, Note_on_c, 1, 53, 78
3, 19200, Note_off_c, 1, 53, 0
3, 19200, Note_off_c, 1, 41, 0
3, 19200, Note_on_c, 1, 55, 78
3, 19200, Note_on_c, 1, 46, 78
3, 19392, Note_off_c, 1, 46, 0
3, 19392, Note_off_c, 1, 55, 0
3, 19392, Note_on_c, 1, 58, 78
3, 19392, Note_on_c, 1, 48, 78
3, 19584, Note_off_c, 1, 48, 0
3, 19584, Note_off_c, 1, 58, 0
3, 19584, Note_on_c, 1, 53, 78
3, 19584, Note_on_c, 1, 57, 78
3, 19776, Note_off_c, 1, 57, 0
3, 19776, Note_off_c, 1, 53, 0
3, 19776, Note_on_c, 1, 41, 78
3, 19968, Note_off_c, 1, 41, 0
3, 19968, Note_on_c, 1, 63, 78
3, 19968, Note_on_c, 1, 53, 78
3, 20160, Note_off_c, 1, 53, 0
3, 20160, Note_off_c, 1, 63, 0
3, 20160, Note_on_c, 1, 62, 78
3, 20160, Note_on_c, 1, 53, 78
3, 20544, Note_off_c, 1, 62, 0
3, 20544, Note_on_c, 1, 64, 78
3, 20736, Note_off_c, 1, 53, 0
3, 20736, Note_off_c, 1, 64, 0
3, 20736, Note_on_c, 1, 65, 78
3, 20928, Note_off_c, 1, 65, 0
3, 20976, Note_on_c, 1, 53, 78
3, 21024, Note_off_c, 1, 53, 0
3, 21024, Note_on_c, 1, 52, 78
3, 21072, Note_off_c, 1, 52, 0
3, 21072, Note_on_c, 1, 53, 78
3, 21120, Note_off_c, 1, 53, 0
3, 21120, Note_on_c, 1, 54, 78
3, 21168, Note_off_c, 1, 54, 0
3, 21168, Note_on_c, 1, 55, 78
3, 21216, Note_off_c, 1, 55, 0
3, 21216, Note_on_c, 1, 56, 78
3, 21264, Note_off_c, 1, 56, 0
3, 21264, Note_on_c, 1, 57, 78
3, 21312, Note_off_c, 1, 57, 0
3, 21312, Note_on_c, 1, 58, 78
3, 21360, Note_off_c, 1, 58, 0
3, 21360, Note_on_c, 1, 60, 78
3, 21408, Note_off_c, 1, 60, 0
3, 21408, Note_on_c, 1, 58, 78
3, 21456, Note_off_c, 1, 58, 0
3, 21456, Note_on_c, 1, 57, 78
3, 21504, Note_off_c, 1, 57, 0
3, 21504, Note_on_c, 1, 58, 78
3, 21552, Note_off_c, 1, 58, 0
3, 21552, Note_on_c, 1, 60, 78
3, 21600, Note_off_c, 1, 60, 0
3, 21600, Note_on_c, 1, 62, 78
3, 21648, Note_off_c, 1, 62, 0
3, 21648, Note_on_c, 1, 60, 78
3, 21696, Note_off_c, 1, 60, 0
3, 21696, Note_on_c, 1, 64, 78
3, 21744, Note_off_c, 1, 64, 0
3, 21744, Note_on_c, 1, 62, 78
3, 21792, Note_off_c, 1, 62, 0
3, 21792, Note_on_c, 1, 60, 78
3, 21840, Note_off_c, 1, 60, 0
3, 21840, Note_on_c, 1, 58, 78
3, 21888, Note_off_c, 1, 58, 0
3, 21888, Note_on_c, 1, 62, 78
3, 21888, Note_on_c, 1, 53, 78
3, 21936, Note_off_c, 1, 62, 0
3, 21936, Note_on_c, 1, 58, 78
3, 21984, Note_off_c, 1, 58, 0
3, 21984, Note_on_c, 1, 62, 78
3, 22032, Note_off_c, 1, 62, 0
3, 22032, Note_on_c, 1, 58, 78
3, 22080, Note_off_c, 1, 58, 0
3, 22080, Note_on_c, 1, 57, 78
3, 22272, Note_off_c, 1, 53, 0
3, 22272, Note_off_c, 1, 57, 0
3, 22464, Note_on_c, 1, 36, 78
3, 22488, Note_off_c, 1, 36, 0
3, 22512, Note_on_c, 1, 48, 78
3, 22560, Note_off_c, 1, 48, 0
3, 22560, Note_on_c, 1, 47, 78
3, 22608, Note_off_c, 1, 47, 0
3, 22608, Note_on_c, 1, 48, 78
3, 22656, Note_off_c, 1, 48, 0
3, 22656, Note_on_c, 1, 40, 78
3, 22680, Note_off_c, 1, 40, 0
3, 22704, Note_on_c, 1, 52, 78
3, 22752, Note_off_c, 1, 52, 0
3, 22752, Note_on_c, 1, 51, 78
3, 22800, Note_off_c, 1, 51, 0
3, 22800, Note_on_c, 1, 52, 78
3, 22848, Note_off_c, 1, 52, 0
3, 22848, Note_on_c, 1, 43, 78
3, 22872, Note_off_c, 1, 43, 0
3, 22896, Note_on_c, 1, 55, 78
3, 22944, Note_off_c, 1, 55, 0
3, 22944, Note_on_c, 1, 54, 78
3, 22992, Note_off_c, 1, 54, 0
3, 22992, Note_on_c, 1, 55, 78
3, 23040, Note_off_c, 1, 55, 0
3, 23040, Note_on_c, 1, 48, 78
3, 23064, Note_off_c, 1, 48, 0
3, 23088, Note_on_c, 1, 60, 78
3, 23136, Note_off_c, 1, 60, 0
3, 23136, Note_on_c, 1, 59, 78
3, 23184, Note_off_c, 1, 59, 0
3, 23184, Note_on_c, 1, 60, 78
3, 23232, Note_off_c, 1, 60, 0
3, 23232, Note_on_c, 1, 52, 78
3, 23280, Note_off_c, 1, 52, 0
3, 23280, Note_on_c, 1, 64, 78
3, 23328, Note_off_c, 1, 64, 0
3, 23328, Note_on_c, 1, 63, 78
3, 23376, Note_off_c, 1, 63, 0
3, 23376, Note_on_c, 1, 64, 78
3, 23424, Note_off_c, 1, 64, 0
3, 23424, Note_on_c, 1, 43, 78
3, 23448, Note_off_c, 1, 43, 0
3, 23472, Note_on_c, 1, 55, 78
3, 23520, Note_off_c, 1, 55, 0
3, 23520, Note_on_c, 1, 54, 78
3, 23568, Note_off_c, 1, 54, 0
3, 23568, Note_on_c, 1, 55, 78
3, 23616, Note_off_c, 1, 55, 0
3, 23616, Note_on_c, 1, 48, 78
3, 23640, Note_off_c, 1, 48, 0
3, 23664, Note_on_c, 1, 60, 78
3, 23712, Note_off_c, 1, 60, 0
3, 23712, Note_on_c, 1, 59, 78
3, 23760, Note_off_c, 1, 59, 0
3, 23760, Note_on_c, 1, 60, 78
3, 23808, Note_off_c, 1, 60, 0
3, 23808, Note_on_c, 1, 40, 78
3, 23832, Note_off_c, 1, 40, 0
3, 23856, Note_on_c, 1, 52, 78
3, 23904, Note_off_c, 1, 52, 0
3, 23904, Note_on_c, 1, 51, 78
3, 23952, Note_off_c, 1, 51, 0
3, 23952, Note_on_c, 1, 52, 78
3, 24000, Note_off_c, 1, 52, 0
3, 24000, Note_on_c, 1, 43, 78
3, 24024, Note_off_c, 1, 43, 0
3, 24048, Note_on_c, 1, 55, 78
3, 24096, Note_off_c, 1, 55, 0
3, 24096, Note_on_c, 1, 54, 78
3, 24144, Note_off_c, 1, 54, 0
3, 24144, Note_on_c, 1, 55, 78
3, 24192, Note_off_c, 1, 55, 0
3, 24192, Note_on_c, 1, 36, 78
3, 24192, Note_on_c, 1, 48, 78
3, 24480, Note_off_c, 1, 48, 0
3, 24480, Note_off_c, 1, 36, 0
3, 24480, Note_on_c, 1, 57, 60
3, 24528, Note_off_c, 1, 57, 0
3, 24576, Note_on_c, 1, 58, 60
3, 24624, Note_off_c, 1, 58, 0
3, 24672, Note_on_c, 1, 57, 60
3, 24720, Note_off_c, 1, 57, 0
3, 24768, Note_on_c, 1, 55, 60
3, 24816, Note_off_c, 1, 55, 0
3, 24864, Note_on_c, 1, 53, 60
3, 24912, Note_off_c, 1, 53, 0
3, 24960, Note_on_c, 1, 52, 60
3, 25008, Note_off_c, 1, 52, 0
3, 25056, Note_on_c, 1, 55, 60
3, 25104, Note_off_c, 1, 55, 0
3, 25152, Note_on_c, 1, 53, 60
3, 25200, Note_off_c, 1, 53, 0
3, 25248, Note_on_c, 1, 52, 60
3, 25296, Note_off_c, 1, 52, 0
3, 25344, Note_on_c, 1, 53, 60
3, 25536, Note_off_c, 1, 53, 0
3, 25536, Note_on_c, 1, 41, 60
3, 25728, Note_off_c, 1, 41, 0
3, 25920, Note_on_c, 1, 53, 78
3, 25920, Note_on_c, 1, 41, 78
3, 25963, Note_off_c, 1, 41, 0
3, 25963, Note_off_c, 1, 53, 0
3, 26016, Note_on_c, 1, 65, 78
3, 26059, Note_off_c, 1, 65, 0
3, 26112, Note_on_c, 1, 53, 78
3, 26112, Note_on_c, 1, 41, 78
3, 26155, Note_off_c, 1, 41, 0
3, 26155, Note_off_c, 1, 53, 0
3, 26208, Note_on_c, 1, 65, 78
3, 26251, Note_off_c, 1, 65, 0
3, 26304, Note_on_c, 1, 65, 78
3, 26347, Note_off_c, 1, 65, 0
3, 26400, Note_on_c, 1, 65, 78
3, 26443, Note_off_c, 1, 65, 0
3, 26496, Note_on_c, 1, 53, 78
3, 26496, Note_on_c, 1, 41, 78
3, 26539, Note_off_c, 1, 41, 0
3, 26539, Note_off_c, 1, 53, 0
3, 26592, Note_on_c, 1, 65, 78
3, 26635, Note_off_c, 1, 65, 0
3, 26688, Note_on_c, 1, 65, 78
3, 26731, Note_off_c, 1, 65, 0
3, 26784, Note_on_c, 1, 65, 78
3, 26827, Note_off_c, 1, 65, 0
3, 26880, Note_on_c, 1, 65, 78
3, 26923, Note_off_c, 1, 65, 0
3, 26976, Note_on_c, 1, 65, 78
3, 27019, Note_off_c, 1, 65, 0
3, 27072, Note_on_c, 1, 41, 78
3, 27072, Note_on_c, 1, 53, 78
3, 27115, Note_off_c, 1, 53, 0
3, 27115, Note_off_c, 1, 41, 0
3, 27168, Note_on_c, 1, 65, 78
3, 27211, Note_off_c, 1, 65, 0
3, 27264, Note_on_c, 1, 41, 78
3, 27264, Note_on_c, 1, 53, 78
3, 27307, Note_off_c, 1, 53, 0
3, 27307, Note_off_c, 1, 41, 0
3, 27360, Note_on_c, 1, 65, 78
3, 27403, Note_off_c, 1, 65, 0
3, 27456, Note_on_c, 1, 65, 78
3, 27499, Note_off_c, 1, 65, 0
3, 27552, Note_on_c, 1, 65, 78
3, 27595, Note_off_c, 1, 65, 0
3, 27648, Note_on_c, 1, 41, 78
3, 27648, Note_on_c, 1, 53, 78
3, 27691, Note_off_c, 1, 53, 0
3, 27691, Note_off_c, 1, 41, 0
3, 27744, Note_on_c, 1, 65, 78
3, 27787, Note_off_c, 1, 65, 0
3, 27840, Note_on_c, 1, 65, 78
3, 27883, Note_off_c, 1, 65, 0
3, 27936, Note_on_c, 1, 65, 78
3, 27979, Note_off_c, 1, 65, 0
3, 28032, Note_on_c, 1, 65, 78
3, 28075, Note_off_c, 1, 65, 0
3, 28128, Note_on_c, 1, 65, 78
3, 28171, Note_off_c, 1, 65, 0
3, 28224, Note_on_c, 1, 48, 78
3, 28224, Note_on_c, 1, 36, 78
3, 28267, Note_off_c, 1, 36, 0
3, 28267, Note_off_c, 1, 48, 0
3, 28320, Note_on_c, 1, 60, 78
3, 28363, Note_off_c, 1, 60, 0
3, 28416, Note_on_c, 1, 48, 78
3, 28416, Note_on_c, 1, 36, 78
3, 28459, Note_off_c, 1, 36, 0
3, 28459, Note_off_c, 1, 48, 0
3, 28512, Note_on_c, 1, 60, 78
3, 28555, Note_off_c, 1, 60, 0
3, 28608, Note_on_c, 1, 60, 78
3, 28651, Note_off_c, 1, 60, 0
3, 28704, Note_on_c, 1, 60, 78
3, 28747, Note_off_c, 1, 60, 0
3, 28800, Note_on_c, 1, 48, 78
3, 28800, Note_on_c, 1, 36, 78
3, 28843, Note_off_c, 1, 36, 0
3, 28843, Note_off_c, 1, 48, 0
3, 28896, Note_on_c, 1, 60, 78
3, 28939, Note_off_c, 1, 60, 0
3, 28992, Note_on_c, 1, 60, 78
3, 29035, Note_off_c, 1, 60, 0
3, 29088, Note_on_c, 1, 60, 78
3, 29131, Note_off_c, 1, 60, 0
3, 29184, Note_on_c, 1, 60, 78
3, 29227, Note_off_c, 1, 60, 0
3, 29280, Note_on_c, 1, 60, 78
3, 29323, Note_off_c, 1, 60, 0
3, 29376, Note_on_c, 1, 36, 78
3, 29376, Note_on_c, 1, 48, 78
3, 29419, Note_off_c, 1, 48, 0
3, 29419, Note_off_c, 1, 36, 0
3, 29472, Note_on_c, 1, 60, 78
3, 29515, Note_off_c, 1, 60, 0
3, 29568, Note_on_c, 1, 36, 78
3, 29568, Note_on_c, 1, 48, 78
3, 29611, Note_off_c, 1, 48, 0
3, 29611, Note_off_c, 1, 36, 0
3, 29664, Note_on_c, 1, 60, 78
3, 29707, Note_off_c, 1, 60, 0
3, 29760, Note_on_c, 1, 60, 78
3, 29803, Note_off_c, 1, 60, 0
3, 29856, Note_on_c, 1, 60, 78
3, 29899, Note_off_c, 1, 60, 0
3, 29952, Note_on_c, 1, 36, 78
3, 29952, Note_on_c, 1, 48, 78
3, 29995, Note_off_c, 1, 48, 0
3, 29995, Note_off_c, 1, 36, 0
3, 30048, Note_on_c, 1, 60, 78
3, 30091, Note_off_c, 1, 60, 0
3, 30144, Note_on_c, 1, 60, 78
3, 30187, Note_off_c, 1, 60, 0
3, 30240, Note_on_c, 1, 60, 78
3, 30283, Note_off_c, 1, 60, 0
3, 30336, Note_on_c, 1, 60, 78
3, 30379, Note_off_c, 1, 60, 0
3, 30432, Note_on_c, 1, 60, 78
3, 30475, Note_off_c, 1, 60, 0
3, 30528, Note_on_c, 1, 41, 78
3, 30571, Note_off_c, 1, 41, 0
3, 30624, Note_on_c, 1, 53, 78
3, 30667, Note_off_c, 1, 53, 0
3, 30720, Note_on_c, 1, 45, 78
3, 30763, Note_off_c, 1, 45, 0
3, 30816, Note_on_c, 1, 57, 78
3, 30859, Note_off_c, 1, 57, 0
3, 30912, Note_on_c, 1, 48, 78
3, 30955, Note_off_c, 1, 48, 0
3, 31008, Note_on_c, 1, 60, 78
3, 31051, Note_off_c, 1, 60, 0
3, 31104, Note_on_c, 1, 41, 78
3, 31147, Note_off_c, 1, 41, 0
3, 31200, Note_on_c, 1, 53, 78
3, 31243, Note_off_c, 1, 53, 0
3, 31296, Note_on_c, 1, 45, 78
3, 31339, Note_off_c, 1, 45, 0
3, 31392, Note_on_c, 1, 57, 78
3, 31435, Note_off_c, 1, 57, 0
3, 31488, Note_on_c, 1, 48, 78
3, 31531, Note_off_c, 1, 48, 0
3, 31584, Note_on_c, 1, 60, 78
3, 31627, Note_off_c, 1, 60, 0
3, 31680, Note_on_c, 1, 53, 78
3, 31680, Note_on_c, 1, 41, 78
3, 31723, Note_off_c, 1, 41, 0
3, 31723, Note_off_c, 1, 53, 0
3, 31776, Note_on_c, 1, 45, 78
3, 31819, Note_off_c, 1, 45, 0
3, 31872, Note_on_c, 1, 46, 78
3, 31915, Note_off_c, 1, 46, 0
3, 31968, Note_on_c, 1, 43, 78
3, 32011, Note_off_c, 1, 43, 0
3, 32064, Note_on_c, 1, 48, 78
3, 32107, Note_off_c, 1, 48, 0
3, 32160, Note_on_c, 1, 36, 78
3, 32203, Note_off_c, 1, 36, 0
3, 32304, Note_on_c, 1, 41, 50
3, 32352, Note_off_c, 1, 41, 0
3, 32352, Note_on_c, 1, 45, 50
3, 32400, Note_off_c, 1, 45, 0
3, 32400, Note_on_c, 1, 48, 50
3, 32448, Note_off_c, 1, 48, 0
3, 32448, Note_on_c, 1, 53, 50
3, 32640, Note_on_c, 1, 63, 50
3, 32793, Note_off_c, 1, 53, 0
3, 32812, Note_off_c, 1, 63, 0
3, 32832, Note_on_c, 1, 62, 50
3, 32832, Note_on_c, 1, 53, 50
3, 33216, Note_off_c, 1, 62, 0
3, 33216, Note_on_c, 1, 64, 49
3, 33350, Note_off_c, 1, 53, 0
3, 33388, Note_off_c, 1, 64, 0
3, 33408, Note_on_c, 1, 65, 49
3, 33408, Note_on_c, 1, 53, 49
3, 33580, Note_off_c, 1, 53, 0
3, 33580, Note_off_c, 1, 65, 0
3, 33664, Note_on_c, 1, 53, 70
3, 33728, Note_off_c, 1, 53, 0
3, 33728, Note_on_c, 1, 52, 70
3, 33792, Note_off_c, 1, 52, 0
3, 33792, Note_on_c, 1, 53, 70
3, 33856, Note_off_c, 1, 53, 0
3, 33856, Note_on_c, 1, 55, 70
3, 33920, Note_off_c, 1, 55, 0
3, 33920, Note_on_c, 1, 57, 70
3, 33984, Note_off_c, 1, 57, 0
3, 33984, Note_on_c, 1, 58, 70
3, 34048, Note_off_c, 1, 58, 0
3, 34048, Note_on_c, 1, 60, 70
3, 34112, Note_off_c, 1, 60, 0
3, 34112, Note_on_c, 1, 57, 70
3, 34176, Note_off_c, 1, 57, 0
3, 34176, Note_on_c, 1, 58, 70
3, 34240, Note_off_c, 1, 58, 0
3, 34240, Note_on_c, 1, 62, 70
3, 34304, Note_off_c, 1, 62, 0
3, 34304, Note_on_c, 1, 61, 70
3, 34368, Note_off_c, 1, 61, 0
3, 34368, Note_on_c, 1, 62, 70
3, 34432, Note_off_c, 1, 62, 0
3, 34432, Note_on_c, 1, 61, 70
3, 34496, Note_off_c, 1, 61, 0
3, 34496, Note_on_c, 1, 58, 70
3, 34553, Note_off_c, 1, 58, 0
3, 34560, Note_on_c, 1, 53, 70
3, 34560, Note_on_c, 1, 58, 70
3, 34624, Note_off_c, 1, 58, 0
3, 34624, Note_on_c, 1, 57, 70
3, 34688, Note_off_c, 1, 57, 0
3, 34688, Note_on_c, 1, 56, 70
3, 34752, Note_off_c, 1, 56, 0
3, 34752, Note_on_c, 1, 57, 70
3, 34905, Note_off_c, 1, 53, 0
3, 34924, Note_off_c, 1, 57, 0
3, 35136, Note_on_c, 1, 36, 70
3, 35164, Note_off_c, 1, 36, 0
3, 35200, Note_on_c, 1, 47, 1
3, 35264, Note_off_c, 1, 47, 0
3, 35264, Note_on_c, 1, 48, 1
3, 35321, Note_off_c, 1, 48, 0
3, 35328, Note_on_c, 1, 40, 1
3, 35356, Note_off_c, 1, 40, 0
3, 35392, Note_on_c, 1, 51, 1
3, 35456, Note_off_c, 1, 51, 0
3, 35456, Note_on_c, 1, 52, 1
3, 35513, Note_off_c, 1, 52, 0
3, 35520, Note_on_c, 1, 43, 1
3, 35548, Note_off_c, 1, 43, 0
3, 35584, Note_on_c, 1, 54, 1
3, 35648, Note_off_c, 1, 54, 0
3, 35648, Note_on_c, 1, 55, 1
3, 35705, Note_off_c, 1, 55, 0
3, 35712, Note_on_c, 1, 48, 70
3, 35740, Note_off_c, 1, 48, 0
3, 35776, Note_on_c, 1, 59, 1
3, 35840, Note_off_c, 1, 59, 0
3, 35840, Note_on_c, 1, 60, 1
3, 35897, Note_off_c, 1, 60, 0
3, 35904, Note_on_c, 1, 52, 1
3, 35932, Note_off_c, 1, 52, 0
3, 35968, Note_on_c, 1, 63, 1
3, 36032, Note_off_c, 1, 63, 0
3, 36032, Note_on_c, 1, 64, 1
3, 36089, Note_off_c, 1, 64, 0
3, 36096, Note_on_c, 1, 43, 1
3, 36124, Note_off_c, 1, 43, 0
3, 36160, Note_on_c, 1, 54, 1
3, 36224, Note_off_c, 1, 54, 0
3, 36224, Note_on_c, 1, 55, 1
3, 36281, Note_off_c, 1, 55, 0
3, 36288, Note_on_c, 1, 48, 70
3, 36316, Note_off_c, 1, 48, 0
3, 36352, Note_on_c, 1, 59, 1
3, 36416, Note_off_c, 1, 59, 0
3, 36416, Note_on_c, 1, 60, 1
3, 36473, Note_off_c, 1, 60, 0
3, 36480, Note_on_c, 1, 40, 1
3, 36508, Note_off_c, 1, 40, 0
3, 36544, Note_on_c, 1, 51, 1
3, 36608, Note_off_c, 1, 51, 0
3, 36608, Note_on_c, 1, 52, 1
3, 36665, Note_off_c, 1, 52, 0
3, 36672, Note_on_c, 1, 43, 1
3, 36700, Note_off_c, 1, 43, 0
3, 36736, Note_on_c, 1, 54, 1
3, 36800, Note_off_c, 1, 54, 0
3, 36800, Note_on_c, 1, 55, 1
3, 36857, Note_off_c, 1, 55, 0
3, 36864, Note_on_c, 1, 48, 68
3, 36864, Note_on_c, 1, 36, 68
3, 37036, Note_off_c, 1, 36, 0
3, 37036, Note_off_c, 1, 48, 0
3, 37152, Note_on_c, 1, 57, 68
3, 37248, Note_off_c, 1, 57, 0
3, 37248, Note_on_c, 1, 58, 68
3, 37344, Note_off_c, 1, 58, 0
3, 37344, Note_on_c, 1, 57, 68
3, 37430, Note_off_c, 1, 57, 0
3, 37440, Note_on_c, 1, 55, 68
3, 37440, Note_on_c, 1, 48, 68
3, 37536, Note_off_c, 1, 55, 0
3, 37536, Note_on_c, 1, 53, 68
3, 37632, Note_off_c, 1, 53, 0
3, 37632, Note_on_c, 1, 52, 68
3, 37728, Note_off_c, 1, 52, 0
3, 37728, Note_on_c, 1, 55, 68
3, 37824, Note_off_c, 1, 55, 0
3, 37824, Note_on_c, 1, 53, 68
3, 37920, Note_off_c, 1, 53, 0
3, 37920, Note_on_c, 1, 52, 68
3, 37958, Note_off_c, 1, 48, 0
3, 38006, Note_off_c, 1, 52, 0
3, 38016, Note_on_c, 1, 53, 68
3, 38016, Note_on_c, 1, 58, 68
3, 38112, Note_off_c, 1, 58, 0
3, 38112, Note_on_c, 1, 57, 68
3, 38188, Note_off_c, 1, 53, 0
3, 38198, Note_off_c, 1, 57, 0
3, 38208, Note_on_c, 1, 53, 68
3, 38208, Note_on_c, 1, 57, 68
3, 38380, Note_off_c, 1, 57, 0
3, 38380, Note_off_c, 1, 53, 0
3, 38592, Note_on_c, 1, 41, 78
3, 38640, Note_off_c, 1, 41, 0
3, 38640, Note_on_c, 1, 53, 78
3, 38688, Note_off_c, 1, 53, 0
3, 38688, Note_on_c, 1, 57, 78
3, 38736, Note_off_c, 1, 57, 0
3, 38736, Note_on_c, 1, 53, 78
3, 38784, Note_off_c, 1, 53, 0
3, 38784, Note_on_c, 1, 48, 78
3, 38832, Note_off_c, 1, 48, 0
3, 38832, Note_on_c, 1, 53, 78
3, 38880, Note_off_c, 1, 53, 0
3, 38880, Note_on_c, 1, 45, 78
3, 38928, Note_off_c, 1, 45, 0
3, 38928, Note_on_c, 1, 48, 78
3, 38976, Note_off_c, 1, 48, 0
3, 38976, Note_on_c, 1, 41, 78
3, 39024, Note_off_c, 1, 41, 0
3, 39024, Note_on_c, 1, 45, 78
3, 39072, Note_off_c, 1, 45, 0
3, 39072, Note_on_c, 1, 48, 78
3, 39120, Note_off_c, 1, 48, 0
3, 39120, Note_on_c, 1, 53, 78
3, 39168, Note_off_c, 1, 53, 0
3, 39168, Note_on_c, 1, 41, 78
3, 39216, Note_off_c, 1, 41, 0
3, 39216, Note_on_c, 1, 53, 78
3, 39264, Note_off_c, 1, 53, 0
3, 39264, Note_on_c, 1, 57, 78
3, 39312, Note_off_c, 1, 57, 0
3, 39312, Note_on_c, 1, 53, 78
3, 39360, Note_off_c, 1, 53, 0
3, 39360, Note_on_c, 1, 48, 78
3, 39408, Note_off_c, 1, 48, 0
3, 39408, Note_on_c, 1, 53, 78
3, 39456, Note_off_c, 1, 53, 0
3, 39456, Note_on_c, 1, 45, 78
3, 39504, Note_off_c, 1, 45, 0
3, 39504, Note_on_c, 1, 48, 78
3, 39552, Note_off_c, 1, 48, 0
3, 39552, Note_on_c, 1, 41, 78
3, 39600, Note_off_c, 1, 41, 0
3, 39600, Note_on_c, 1, 45, 78
3, 39648, Note_off_c, 1, 45, 0
3, 39648, Note_on_c, 1, 48, 78
3, 39696, Note_off_c, 1, 48, 0
3, 39696, Note_on_c, 1, 53, 78
3, 39744, Note_off_c, 1, 53, 0
3, 39744, Note_on_c, 1, 41, 78
3, 39792, Note_off_c, 1, 41, 0
3, 39792, Note_on_c, 1, 53, 78
3, 39840, Note_off_c, 1, 53, 0
3, 39840, Note_on_c, 1, 57, 78
3, 39888, Note_off_c, 1, 57, 0
3, 39888, Note_on_c, 1, 53, 78
3, 39936, Note_off_c, 1, 53, 0
3, 39936, Note_on_c, 1, 48, 78
3, 39984, Note_off_c, 1, 48, 0
3, 39984, Note_on_c, 1, 53, 78
3, 40032, Note_off_c, 1, 53, 0
3, 40032, Note_on_c, 1, 45, 78
3, 40080, Note_off_c, 1, 45, 0
3, 40080, Note_on_c, 1, 48, 78
3, 40128, Note_off_c, 1, 48, 0
3, 40128, Note_on_c, 1, 41, 78
3, 40176, Note_off_c, 1, 41, 0
3, 40176, Note_on_c, 1, 45, 78
3, 40224, Note_off_c, 1, 45, 0
3, 40224, Note_on_c, 1, 48, 78
3, 40272, Note_off_c, 1, 48, 0
3, 40272, Note_on_c, 1, 53, 78
3, 40320, Note_off_c, 1, 53, 0
3, 40320, Note_on_c, 1, 41, 78
3, 40368, Note_off_c, 1, 41, 0
3, 40368, Note_on_c, 1, 53, 78
3, 40416, Note_off_c, 1, 53, 0
3, 40416, Note_on_c, 1, 57, 78
3, 40464, Note_off_c, 1, 57, 0
3, 40464, Note_on_c, 1, 53, 78
3, 40512, Note_off_c, 1, 53, 0
3, 40512, Note_on_c, 1, 48, 78
3, 40560, Note_off_c, 1, 48, 0
3, 40560, Note_on_c, 1, 53, 78
3, 40608, Note_off_c, 1, 53, 0
3, 40608, Note_on_c, 1, 45, 78
3, 40656, Note_off_c, 1, 45, 0
3, 40656, Note_on_c, 1, 48, 78
3, 40704, Note_off_c, 1, 48, 0
3, 40704, Note_on_c, 1, 41, 78
3, 40752, Note_off_c, 1, 41, 0
3, 40752, Note_on_c, 1, 45, 78
3, 40800, Note_off_c, 1, 45, 0
3, 40800, Note_on_c, 1, 48, 78
3, 40848, Note_off_c, 1, 48, 0
3, 40848, Note_on_c, 1, 53, 78
3, 40896, Note_off_c, 1, 53, 0
3, 40896, Note_on_c, 1, 36, 78
3, 40944, Note_off_c, 1, 36, 0
3, 40944, Note_on_c, 1, 48, 78
3, 40992, Note_off_c, 1, 48, 0
3, 40992, Note_on_c, 1, 52, 78
3, 41040, Note_off_c, 1, 52, 0
3, 41040, Note_on_c, 1, 48, 78
3, 41088, Note_off_c, 1, 48, 0
3, 41088, Note_on_c, 1, 43, 78
3, 41136, Note_off_c, 1, 43, 0
3, 41136, Note_on_c, 1, 48, 78
3, 41184, Note_off_c, 1, 48, 0
3, 41184, Note_on_c, 1, 40, 78
3, 41232, Note_off_c, 1, 40, 0
3, 41232, Note_on_c, 1, 43, 78
3, 41280, Note_off_c, 1, 43, 0
3, 41280, Note_on_c, 1, 36, 78
3, 41328, Note_off_c, 1, 36, 0
3, 41328, Note_on_c, 1, 40, 78
3, 41376, Note_off_c, 1, 40, 0
3, 41376, Note_on_c, 1, 43, 78
3, 41424, Note_off_c, 1, 43, 0
3, 41424, Note_on_c, 1, 48, 78
3, 41472, Note_off_c, 1, 48, 0
3, 41472, Note_on_c, 1, 36, 78
3, 41520, Note_off_c, 1, 36, 0
3, 41520, Note_on_c, 1, 48, 78
3, 41568, Note_off_c, 1, 48, 0
3, 41568, Note_on_c, 1, 53, 78
3, 41616, Note_off_c, 1, 53, 0
3, 41616, Note_on_c, 1, 48, 78
3, 41664, Note_off_c, 1, 48, 0
3, 41664, Note_on_c, 1, 45, 78
3, 41712, Note_off_c, 1, 45, 0
3, 41712, Note_on_c, 1, 48, 78
3, 41760, Note_off_c, 1, 48, 0
3, 41760, Note_on_c, 1, 41, 78
3, 41808, Note_off_c, 1, 41, 0
3, 41808, Note_on_c, 1, 45, 78
3, 41856, Note_off_c, 1, 45, 0
3, 41856, Note_on_c, 1, 36, 78
3, 41904, Note_off_c, 1, 36, 0
3, 41904, Note_on_c, 1, 41, 78
3, 41952, Note_off_c, 1, 41, 0
3, 41952, Note_on_c, 1, 45, 78
3, 42000, Note_off_c, 1, 45, 0
3, 42000, Note_on_c, 1, 48, 78
3, 42048, Note_off_c, 1, 48, 0
3, 42048, Note_on_c, 1, 36, 78
3, 42096, Note_off_c, 1, 36, 0
3, 42096, Note_on_c, 1, 48, 78
3, 42144, Note_off_c, 1, 48, 0
3, 42144, Note_on_c, 1, 53, 78
3, 42192, Note_off_c, 1, 53, 0
3, 42192, Note_on_c, 1, 48, 78
3, 42240, Note_off_c, 1, 48, 0
3, 42240, Note_on_c, 1, 45, 78
3, 42288, Note_off_c, 1, 45, 0
3, 42288, Note_on_c, 1, 48, 78
3, 42336, Note_off_c, 1, 48, 0
3, 42336, Note_on_c, 1, 41, 78
3, 42384, Note_off_c, 1, 41, 0
3, 42384, Note_on_c, 1, 45, 78
3, 42432, Note_off_c, 1, 45, 0
3, 42432, Note_on_c, 1, 36, 78
3, 42480, Note_off_c, 1, 36, 0
3, 42480, Note_on_c, 1, 42, 78
3, 42528, Note_off_c, 1, 42, 0
3, 42528, Note_on_c, 1, 45, 78
3, 42576, Note_off_c, 1, 45, 0
3, 42576, Note_on_c, 1, 48, 78
3, 42624, Note_off_c, 1, 48, 0
3, 42624, Note_on_c, 1, 36, 78
3, 42672, Note_off_c, 1, 36, 0
3, 42672, Note_on_c, 1, 48, 78
3, 42720, Note_off_c, 1, 48, 0
3, 42720, Note_on_c, 1, 52, 78
3, 42768, Note_off_c, 1, 52, 0
3, 42768, Note_on_c, 1, 48, 78
3, 42816, Note_off_c, 1, 48, 0
3, 42816, Note_on_c, 1, 43, 78
3, 42864, Note_off_c, 1, 43, 0
3, 42864, Note_on_c, 1, 48, 78
3, 42912, Note_off_c, 1, 48, 0
3, 42912, Note_on_c, 1, 40, 78
3, 42960, Note_off_c, 1, 40, 0
3, 42960, Note_on_c, 1, 43, 78
3, 43008, Note_off_c, 1, 43, 0
3, 43008, Note_on_c, 1, 36, 78
3, 43056, Note_off_c, 1, 36, 0
3, 43056, Note_on_c, 1, 40, 78
3, 43104, Note_off_c, 1, 40, 0
3, 43104, Note_on_c, 1, 43, 78
3, 43152, Note_off_c, 1, 43, 0
3, 43152, Note_on_c, 1, 48, 78
3, 43200, Note_off_c, 1, 48, 0
3, 43200, Note_on_c, 1, 29, 78
3, 43248, Note_off_c, 1, 29, 0
3, 43248, Note_on_c, 1, 33, 78
3, 43296, Note_off_c, 1, 33, 0
3, 43296, Note_on_c, 1, 36, 78
3, 43344, Note_off_c, 1, 36, 0
3, 43344, Note_on_c, 1, 41, 78
3, 43392, Note_off_c, 1, 41, 0
3, 43392, Note_on_c, 1, 33, 78
3, 43440, Note_off_c, 1, 33, 0
3, 43440, Note_on_c, 1, 36, 78
3, 43488, Note_off_c, 1, 36, 0
3, 43488, Note_on_c, 1, 41, 78
3, 43536, Note_off_c, 1, 41, 0
3, 43536, Note_on_c, 1, 45, 78
3, 43584, Note_off_c, 1, 45, 0
3, 43584, Note_on_c, 1, 36, 78
3, 43632, Note_off_c, 1, 36, 0
3, 43632, Note_on_c, 1, 40, 78
3, 43680, Note_off_c, 1, 40, 0
3, 43680, Note_on_c, 1, 43, 78
3, 43728, Note_off_c, 1, 43, 0
3, 43728, Note_on_c, 1, 48, 78
3, 43776, Note_off_c, 1, 48, 0
3, 43776, Note_on_c, 1, 41, 78
3, 43824, Note_off_c, 1, 41, 0
3, 43824, Note_on_c, 1, 45, 78
3, 43872, Note_off_c, 1, 45, 0
3, 43872, Note_on_c, 1, 48, 78
3, 43920, Note_off_c, 1, 48, 0
3, 43920, Note_on_c, 1, 53, 78
3, 43968, Note_off_c, 1, 53, 0
3, 43968, Note_on_c, 1, 45, 78
3, 44016, Note_off_c, 1, 45, 0
3, 44016, Note_on_c, 1, 48, 78
3, 44064, Note_off_c, 1, 48, 0
3, 44064, Note_on_c, 1, 53, 78
3, 44112, Note_off_c, 1, 53, 0
3, 44112, Note_on_c, 1, 57, 78
3, 44160, Note_off_c, 1, 57, 0
3, 44160, Note_on_c, 1, 48, 78
3, 44208, Note_off_c, 1, 48, 0
3, 44208, Note_on_c, 1, 52, 78
3, 44256, Note_off_c, 1, 52, 0
3, 44256, Note_on_c, 1, 55, 78
3, 44304, Note_off_c, 1, 55, 0
3, 44304, Note_on_c, 1, 60, 78
3, 44352, Note_off_c, 1, 60, 0
3, 44352, Note_on_c, 1, 53, 78
3, 44544, Note_off_c, 1, 53, 0
3, 44544, Note_on_c, 1, 46, 55
3, 44544, Note_on_c, 1, 55, 55
3, 44736, Note_off_c, 1, 55, 0
3, 44736, Note_off_c, 1, 46, 0
3, 44736, Note_on_c, 1, 58, 55
3, 44736, Note_on_c, 1, 48, 55
3, 44928, Note_off_c, 1, 48, 0
3, 44928, Note_off_c, 1, 58, 0
3, 44928, Note_on_c, 1, 57, 54
3, 44928, Note_on_c, 1, 53, 54
3, 45120, Note_off_c, 1, 57, 0
3, 45120, Note_on_c, 1, 60, 54
3, 45312, Note_off_c, 1, 60, 0
3, 45312, Note_on_c, 1, 63, 54
3, 45504, Note_off_c, 1, 53, 0
3, 45504, Note_off_c, 1, 63, 0
3, 45504, Note_on_c, 1, 62, 54
3, 45504, Note_on_c, 1, 53, 54
3, 45888, Note_off_c, 1, 62, 0
3, 45888, Note_on_c, 1, 64, 54
3, 46080, Note_off_c, 1, 53, 0
3, 46080, Note_off_c, 1, 64, 0
3, 46080, Note_on_c, 1, 53, 54
3, 46080, Note_on_c, 1, 65, 54
3, 46176, Note_off_c, 1, 65, 0
3, 46176, Note_off_c, 1, 53, 0
3, 46176, Note_on_c, 1, 65, 54
3, 46368, Note_off_c, 1, 65, 0
3, 46368, Note_on_c, 1, 64, 54
3, 46464, Note_off_c, 1, 64, 0
3, 46464, Note_on_c, 1, 62, 54
3, 46560, Note_off_c, 1, 62, 0
3, 46560, Note_on_c, 1, 60, 54
3, 46656, Note_off_c, 1, 60, 0
3, 46656, Note_on_c, 1, 60, 54
3, 46752, Note_off_c, 1, 60, 0
3, 46752, Note_on_c, 1, 57, 54
3, 46848, Note_off_c, 1, 57, 0
3, 46848, Note_on_c, 1, 58, 54
3, 46896, Note_off_c, 1, 58, 0
3, 46896, Note_on_c, 1, 60, 54
3, 46944, Note_off_c, 1, 60, 0
3, 46944, Note_on_c, 1, 62, 54
3, 46992, Note_off_c, 1, 62, 0
3, 46992, Note_on_c, 1, 60, 54
3, 47040, Note_off_c, 1, 60, 0
3, 47040, Note_on_c, 1, 64, 54
3, 47088, Note_off_c, 1, 64, 0
3, 47088, Note_on_c, 1, 62, 54
3, 47136, Note_off_c, 1, 62, 0
3, 47136, Note_on_c, 1, 60, 54
3, 47184, Note_off_c, 1, 60, 0
3, 47184, Note_on_c, 1, 58, 54
3, 47232, Note_off_c, 1, 58, 0
3, 47232, Note_on_c, 1, 62, 54
3, 47232, Note_on_c, 1, 53, 54
3, 47376, Note_off_c, 1, 62, 0
3, 47376, Note_on_c, 1, 58, 54
3, 47424, Note_off_c, 1, 58, 0
3, 47424, Note_on_c, 1, 57, 54
3, 47616, Note_off_c, 1, 53, 0
3, 47616, Note_off_c, 1, 57, 0
3, 47808, Note_on_c, 1, 48, 78
3, 47808, Note_on_c, 1, 36, 78
3, 48000, Note_off_c, 1, 36, 0
3, 48000, Note_off_c, 1, 48, 0
3, 48000, Note_on_c, 1, 52, 78
3, 48000, Note_on_c, 1, 40, 78
3, 48192, Note_off_c, 1, 40, 0
3, 48192, Note_off_c, 1, 52, 0
3, 48192, Note_on_c, 1, 55, 78
3, 48192, Note_on_c, 1, 43, 78
3, 48384, Note_off_c, 1, 43, 0
3, 48384, Note_off_c, 1, 55, 0
3, 48384, Note_on_c, 1, 48, 78
3, 48384, Note_on_c, 1, 36, 78
3, 48576, Note_off_c, 1, 36, 0
3, 48576, Note_off_c, 1, 48, 0
3, 48576, Note_on_c, 1, 52, 78
3, 48576, Note_on_c, 1, 40, 78
3, 48768, Note_off_c, 1, 40, 0
3, 48768, Note_off_c, 1, 52, 0
3, 48768, Note_on_c, 1, 55, 78
3, 48768, Note_on_c, 1, 43, 78
3, 48960, Note_off_c, 1, 43, 0
3, 48960, Note_off_c, 1, 55, 0
3, 48960, Note_on_c, 1, 48, 78
3, 48960, Note_on_c, 1, 36, 78
3, 49152, Note_off_c, 1, 36, 0
3, 49152, Note_off_c, 1, 48, 0
3, 49152, Note_on_c, 1, 52, 78
3, 49152, Note_on_c, 1, 40, 78
3, 49344, Note_off_c, 1, 40, 0
3, 49344, Note_off_c, 1, 52, 0
3, 49344, Note_on_c, 1, 55, 78
3, 49344, Note_on_c, 1, 43, 78
3, 49536, Note_off_c, 1, 43, 0
3, 49536, Note_off_c, 1, 55, 0
3, 49536, Note_on_c, 1, 60, 78
3, 49536, Note_on_c, 1, 48, 78
3, 49824, Note_off_c, 1, 48, 0
3, 49824, Note_off_c, 1, 60, 0
3, 49824, Note_on_c, 1, 57, 55
3, 49920, Note_off_c, 1, 57, 0
3, 49920, Note_on_c, 1, 58, 55
3, 50016, Note_off_c, 1, 58, 0
3, 50016, Note_on_c, 1, 57, 55
3, 50112, Note_off_c, 1, 57, 0
3, 50112, Note_on_c, 1, 55, 55
3, 50112, Note_on_c, 1, 48, 55
3, 50208, Note_off_c, 1, 55, 0
3, 50208, Note_on_c, 1, 53, 55
3, 50304, Note_off_c, 1, 53, 0
3, 50304, Note_on_c, 1, 52, 55
3, 50400, Note_off_c, 1, 52, 0
3, 50400, Note_on_c, 1, 53, 55
3, 50496, Note_off_c, 1, 53, 0
3, 50496, Note_on_c, 1, 55, 55
3, 50592, Note_off_c, 1, 55, 0
3, 50592, Note_on_c, 1, 52, 55
3, 50688, Note_off_c, 1, 48, 0
3, 50688, Note_off_c, 1, 52, 0
3, 50688, Note_on_c, 1, 53, 55
3, 50880, Note_off_c, 1, 53, 0
3, 50880, Note_on_c, 1, 41, 55
3, 51072, Note_off_c, 1, 41, 0
3, 51264, Note_on_c, 1, 53, 39
3, 51456, Note_on_c, 1, 56, 39
3, 51628, Note_off_c, 1, 56, 0
3, 51648, Note_on_c, 1, 58, 39
3, 51782, Note_off_c, 1, 53, 0
3, 51820, Note_off_c, 1, 58, 0
3, 51840, Note_on_c, 1, 56, 39
3, 51840, Note_on_c, 1, 53, 39
3, 52012, Note_off_c, 1, 56, 0
3, 52032, Note_on_c, 1, 55, 39
3, 52204, Note_off_c, 1, 55, 0
3, 52224, Note_on_c, 1, 53, 39
3, 52358, Note_off_c, 1, 53, 0
3, 52396, Note_off_c, 1, 53, 0
3, 52416, Note_on_c, 1, 53, 39
3, 52608, Note_on_c, 1, 60, 39
3, 52780, Note_off_c, 1, 60, 0
3, 52800, Note_on_c, 1, 61, 39
3, 52934, Note_off_c, 1, 53, 0
3, 52972, Note_off_c, 1, 61, 0
3, 52992, Note_on_c, 1, 60, 39
3, 52992, Note_on_c, 1, 53, 39
3, 53164, Note_off_c, 1, 60, 0
3, 53184, Note_on_c, 1, 58, 39
3, 53356, Note_off_c, 1, 58, 0
3, 53376, Note_on_c, 1, 56, 39
3, 53510, Note_off_c, 1, 53, 0
3, 53548, Note_off_c, 1, 56, 0
3, 53568, Note_on_c, 1, 36, 39
3, 53568, Note_on_c, 1, 48, 39
3, 53740, Note_off_c, 1, 48, 0
3, 53740, Note_off_c, 1, 36, 0
3, 53856, Note_on_c, 1, 47, 39
3, 53952, Note_off_c, 1, 47, 0
3, 53952, Note_on_c, 1, 48, 39
3, 54124, Note_off_c, 1, 48, 0
3, 54240, Note_on_c, 1, 48, 39
3, 54326, Note_off_c, 1, 48, 0
3, 54336, Note_on_c, 1, 60, 39
3, 54681, Note_off_c, 1, 60, 0
3, 54720, Note_on_c, 1, 48, 39
3, 54720, Note_on_c, 1, 36, 39
3, 54892, Note_off_c, 1, 36, 0
3, 54892, Note_off_c, 1, 48, 0
3, 55008, Note_on_c, 1, 47, 39
3, 55104, Note_off_c, 1, 47, 0
3, 55104, Note_on_c, 1, 48, 39
3, 55276, Note_off_c, 1, 48, 0
3, 55392, Note_on_c, 1, 48, 39
3, 55478, Note_off_c, 1, 48, 0
3, 55488, Note_on_c, 1, 60, 39
3, 55833, Note_off_c, 1, 60, 0
3, 55872, Note_on_c, 1, 53, 39
3, 56044, Note_off_c, 1, 53, 0
3, 56064, Note_on_c, 1, 56, 39
3, 56236, Note_off_c, 1, 56, 0
3, 56256, Note_on_c, 1, 60, 39
3, 56428, Note_off_c, 1, 60, 0
3, 56448, Note_on_c, 1, 53, 39
3, 56620, Note_off_c, 1, 53, 0
3, 56640, Note_on_c, 1, 44, 39
3, 56812, Note_off_c, 1, 44, 0
3, 56832, Note_on_c, 1, 48, 39
3, 57004, Note_off_c, 1, 48, 0
3, 57024, Note_on_c, 1, 53, 39
3, 57196, Note_off_c, 1, 53, 0
3, 57216, Note_on_c, 1, 46, 39
3, 57388, Note_off_c, 1, 46, 0
3, 57408, Note_on_c, 1, 58, 39
3, 57408, Note_on_c, 1, 48, 39
3, 57580, Note_off_c, 1, 48, 0
3, 57580, Note_off_c, 1, 58, 0
3, 57600, Note_on_c, 1, 53, 39
3, 57600, Note_on_c, 1, 56, 39
3, 57772, Note_off_c, 1, 56, 0
3, 57772, Note_off_c, 1, 53, 0
3, 57792, Note_on_c, 1, 41, 39
3, 57964, Note_off_c, 1, 41, 0
3, 57984, Note_on_c, 1, 63, 39
3, 57984, Note_on_c, 1, 53, 39
3, 58156, Note_off_c, 1, 53, 0
3, 58156, Note_off_c, 1, 63, 0
3, 58176, Note_on_c, 1, 61, 39
3, 58176, Note_on_c, 1, 53, 39
3, 58348, Note_off_c, 1, 53, 0
3, 58348, Note_off_c, 1, 61, 0
3, 58368, Note_on_c, 1, 53, 39
3, 58368, Note_on_c, 1, 64, 39
3, 58713, Note_off_c, 1, 64, 0
3, 58713, Note_off_c, 1, 53, 0
3, 58752, Note_on_c, 1, 65, 39
3, 58752, Note_on_c, 1, 53, 39
3, 58924, Note_off_c, 1, 53, 0
3, 58924, Note_off_c, 1, 65, 0
3, 58944, Note_on_c, 1, 53, 39
3, 59116, Note_off_c, 1, 53, 0
3, 59520, Note_on_c, 1, 56, 39
3, 59520, Note_on_c, 1, 53, 39
3, 59692, Note_off_c, 1, 53, 0
3, 59692, Note_off_c, 1, 56, 0
3, 59712, Note_on_c, 1, 58, 39
3, 59712, Note_on_c, 1, 55, 39
3, 59884, Note_off_c, 1, 55, 0
3, 59884, Note_off_c, 1, 58, 0
3, 60096, Note_on_c, 1, 63, 39
3, 60096, Note_on_c, 1, 56, 39
3, 60268, Note_off_c, 1, 56, 0
3, 60268, Note_off_c, 1, 63, 0
3, 60288, Note_on_c, 1, 56, 39
3, 60288, Note_on_c, 1, 48, 39
3, 60460, Note_off_c, 1, 48, 0
3, 60460, Note_off_c, 1, 56, 0
3, 60480, Note_on_c, 1, 49, 39
3, 60480, Note_on_c, 1, 56, 39
3, 60652, Note_off_c, 1, 56, 0
3, 60672, Note_on_c, 1, 53, 39
3, 60844, Note_off_c, 1, 53, 0
3, 60864, Note_on_c, 1, 61, 39
3, 60998, Note_off_c, 1, 49, 0
3, 61036, Note_off_c, 1, 61, 0
3, 61056, Note_on_c, 1, 52, 39
3, 61056, Note_on_c, 1, 60, 39
3, 61248, Note_off_c, 1, 60, 0
3, 61248, Note_on_c, 1, 58, 39
3, 61401, Note_off_c, 1, 52, 0
3, 61420, Note_off_c, 1, 58, 0
3, 61632, Note_on_c, 1, 44, 50
3, 61718, Note_off_c, 1, 44, 0
3, 61728, Note_on_c, 1, 56, 50
3, 61814, Note_off_c, 1, 56, 0
3, 61824, Note_on_c, 1, 56, 50
3, 61910, Note_off_c, 1, 56, 0
3, 61920, Note_on_c, 1, 56, 50
3, 62006, Note_off_c, 1, 56, 0
3, 62016, Note_on_c, 1, 56, 50
3, 62102, Note_off_c, 1, 56, 0
3, 62112, Note_on_c, 1, 56, 50
3, 62198, Note_off_c, 1, 56, 0
3, 62208, Note_on_c, 1, 56, 50
3, 62294, Note_off_c, 1, 56, 0
3, 62304, Note_on_c, 1, 56, 50
3, 62390, Note_off_c, 1, 56, 0
3, 62400, Note_on_c, 1, 56, 50
3, 62486, Note_off_c, 1, 56, 0
3, 62496, Note_on_c, 1, 56, 50
3, 62582, Note_off_c, 1, 56, 0
3, 62592, Note_on_c, 1, 56, 50
3, 62678, Note_off_c, 1, 56, 0
3, 62688, Note_on_c, 1, 56, 50
3, 62774, Note_off_c, 1, 56, 0
3, 62784, Note_on_c, 1, 44, 50
3, 62870, Note_off_c, 1, 44, 0
3, 62880, Note_on_c, 1, 56, 50
3, 62966, Note_off_c, 1, 56, 0
3, 62976, Note_on_c, 1, 56, 50
3, 63062, Note_off_c, 1, 56, 0
3, 63072, Note_on_c, 1, 56, 50
3, 63158, Note_off_c, 1, 56, 0
3, 63168, Note_on_c, 1, 56, 50
3, 63254, Note_off_c, 1, 56, 0
3, 63264, Note_on_c, 1, 56, 50
3, 63350, Note_off_c, 1, 56, 0
3, 63360, Note_on_c, 1, 56, 50
3, 63446, Note_off_c, 1, 56, 0
3, 63456, Note_on_c, 1, 56, 50
3, 63542, Note_off_c, 1, 56, 0
3, 63552, Note_on_c, 1, 56, 50
3, 63638, Note_off_c, 1, 56, 0
3, 63648, Note_on_c, 1, 56, 50
3, 63734, Note_off_c, 1, 56, 0
3, 63744, Note_on_c, 1, 56, 50
3, 63830, Note_off_c, 1, 56, 0
3, 63840, Note_on_c, 1, 56, 50
3, 63926, Note_off_c, 1, 56, 0
3, 63936, Note_on_c, 1, 41, 50
3, 64022, Note_off_c, 1, 41, 0
3, 64032, Note_on_c, 1, 53, 50
3, 64118, Note_off_c, 1, 53, 0
3, 64128, Note_on_c, 1, 53, 50
3, 64214, Note_off_c, 1, 53, 0
3, 64224, Note_on_c, 1, 53, 50
3, 64310, Note_off_c, 1, 53, 0
3, 64320, Note_on_c, 1, 53, 50
3, 64406, Note_off_c, 1, 53, 0
3, 64416, Note_on_c, 1, 53, 50
3, 64502, Note_off_c, 1, 53, 0
3, 64512, Note_on_c, 1, 61, 50
3, 64512, Note_on_c, 1, 58, 50
3, 64684, Note_off_c, 1, 58, 0
3, 64684, Note_off_c, 1, 61, 0
3, 65088, Note_on_c, 1, 43, 50
3, 65174, Note_off_c, 1, 43, 0
3, 65184, Note_on_c, 1, 55, 50
3, 65270, Note_off_c, 1, 55, 0
3, 65280, Note_on_c, 1, 55, 50
3, 65366, Note_off_c, 1, 55, 0
3, 65376, Note_on_c, 1, 55, 50
3, 65462, Note_off_c, 1, 55, 0
3, 65472, Note_on_c, 1, 55, 50
3, 65558, Note_off_c, 1, 55, 0
3, 65568, Note_on_c, 1, 55, 50
3, 65654, Note_off_c, 1, 55, 0
3, 65664, Note_on_c, 1, 64, 50
3, 65664, Note_on_c, 1, 60, 50
3, 65836, Note_off_c, 1, 60, 0
3, 65836, Note_off_c, 1, 64, 0
3, 66240, Note_on_c, 1, 65, 50
3, 66240, Note_on_c, 1, 61, 50
3, 66931, Note_off_c, 1, 61, 0
3, 66931, Note_off_c, 1, 65, 0
3, 67008, Note_on_c, 1, 64, 50
3, 67008, Note_on_c, 1, 60, 50
3, 67699, Note_off_c, 1, 60, 0
3, 67699, Note_off_c, 1, 64, 0
3, 68304, Note_on_c, 1, 60, 50
3, 68304, Note_on_c, 1, 64, 50
3, 68304, Note_on_c, 1, 67, 50
3, 68304, Note_on_c, 1, 70, 50
3, 68606, Note_off_c, 1, 70, 0
3, 68606, Note_off_c, 1, 67, 0
3, 68606, Note_off_c, 1, 64, 0
3, 68606, Note_off_c, 1, 60, 0
3, 69456, Note_on_c, 1, 69, 60
3, 69456, Note_on_c, 1, 72, 60
3, 69628, Note_off_c, 1, 72, 0
3, 69628, Note_off_c, 1, 69, 0
3, 69648, Note_on_c, 1, 69, 60
3, 69648, Note_on_c, 1, 72, 60
3, 69907, Note_off_c, 1, 72, 0
3, 69907, Note_off_c, 1, 69, 0
3, 69936, Note_on_c, 1, 70, 60
3, 69936, Note_on_c, 1, 74, 60
3, 70022, Note_off_c, 1, 74, 0
3, 70022, Note_off_c, 1, 70, 0
3, 70032, Note_on_c, 1, 69, 60
3, 70032, Note_on_c, 1, 72, 60
3, 70291, Note_off_c, 1, 72, 0
3, 70291, Note_off_c, 1, 69, 0
3, 70320, Note_on_c, 1, 67, 60
3, 70320, Note_on_c, 1, 70, 60
3, 70406, Note_off_c, 1, 70, 0
3, 70406, Note_off_c, 1, 67, 0
3, 70416, Note_on_c, 1, 65, 60
3, 70416, Note_on_c, 1, 69, 60
3, 70588, Note_off_c, 1, 69, 0
3, 70588, Note_off_c, 1, 65, 0
3, 70608, Note_on_c, 1, 60, 60
3, 70608, Note_on_c, 1, 69, 60
3, 70780, Note_off_c, 1, 69, 0
3, 70780, Note_off_c, 1, 60, 0
3, 70800, Note_on_c, 1, 60, 60
3, 70800, Note_on_c, 1, 69, 60
3, 71059, Note_off_c, 1, 69, 0
3, 71059, Note_off_c, 1, 60, 0
3, 71088, Note_on_c, 1, 62, 60
3, 71088, Note_on_c, 1, 70, 60
3, 71174, Note_off_c, 1, 70, 0
3, 71174, Note_off_c, 1, 62, 0
3, 71184, Note_on_c, 1, 60, 60
3, 71184, Note_on_c, 1, 69, 60
3, 71443, Note_off_c, 1, 69, 0
3, 71443, Note_off_c, 1, 60, 0
3, 71472, Note_on_c, 1, 58, 60
3, 71472, Note_on_c, 1, 67, 60
3, 71558, Note_off_c, 1, 67, 0
3, 71558, Note_off_c, 1, 58, 0
3, 71568, Note_on_c, 1, 57, 60
3, 71568, Note_on_c, 1, 65, 60
3, 71740, Note_off_c, 1, 65, 0
3, 71740, Note_off_c, 1, 57, 0
3, 71760, Note_on_c, 1, 60, 60
3, 71760, Note_on_c, 1, 64, 60
3, 71760, Note_on_c, 1, 67, 60
3, 71932, Note_off_c, 1, 67, 0
3, 71932, Note_off_c, 1, 64, 0
3, 71932, Note_off_c, 1, 60, 0
3, 71952, Note_on_c, 1, 60, 60
3, 71952, Note_on_c, 1, 64, 60
3, 71952, Note_on_c, 1, 67, 60
3, 72124, Note_off_c, 1, 67, 0
3, 72124, Note_off_c, 1, 64, 0
3, 72124, Note_off_c, 1, 60, 0
3, 72144, Note_on_c, 1, 60, 60
3, 72144, Note_on_c, 1, 64, 60
3, 72144, Note_on_c, 1, 67, 60
3, 72316, Note_off_c, 1, 67, 0
3, 72316, Note_off_c, 1, 64, 0
3, 72316, Note_off_c, 1, 60, 0
3, 72336, Note_on_c, 1, 69, 60
3, 72336, Note_on_c, 1, 65, 60
3, 72624, Note_off_c, 1, 65, 0
3, 72624, Note_off_c, 1, 69, 0
3, 72624, Note_on_c, 1, 68, 60
3, 72624, Note_on_c, 1, 64, 60
3, 72720, Note_off_c, 1, 64, 0
3, 72720, Note_off_c, 1, 68, 0
3, 72720, Note_on_c, 1, 69, 60
3, 72720, Note_on_c, 1, 65, 60
3, 72892, Note_off_c, 1, 65, 0
3, 72892, Note_off_c, 1, 69, 0
3, 72912, Note_on_c, 1, 60, 60
3, 72912, Note_on_c, 1, 65, 60
3, 72912, Note_on_c, 1, 69, 60
3, 73084, Note_off_c, 1, 69, 0
3, 73084, Note_off_c, 1, 65, 0
3, 73084, Note_off_c, 1, 60, 0
3, 73104, Note_on_c, 1, 60, 60
3, 73104, Note_on_c, 1, 65, 60
3, 73104, Note_on_c, 1, 69, 60
3, 73276, Note_off_c, 1, 69, 0
3, 73276, Note_off_c, 1, 65, 0
3, 73276, Note_off_c, 1, 60, 0
3, 73296, Note_on_c, 1, 60, 60
3, 73296, Note_on_c, 1, 66, 60
3, 73296, Note_on_c, 1, 69, 60
3, 73468, Note_off_c, 1, 69, 0
3, 73468, Note_off_c, 1, 66, 0
3, 73468, Note_off_c, 1, 60, 0
3, 73488, Note_on_c, 1, 67, 60
3, 73488, Note_on_c, 1, 70, 60
3, 73776, Note_off_c, 1, 70, 0
3, 73776, Note_off_c, 1, 67, 0
3, 73776, Note_on_c, 1, 66, 60
3, 73776, Note_on_c, 1, 69, 60
3, 73872, Note_off_c, 1, 69, 0
3, 73872, Note_off_c, 1, 66, 0
3, 73872, Note_on_c, 1, 67, 60
3, 73872, Note_on_c, 1, 70, 60
3, 74044, Note_off_c, 1, 70, 0
3, 74044, Note_off_c, 1, 67, 0
3, 74064, Note_on_c, 1, 65, 60
3, 74064, Note_on_c, 1, 69, 60
3, 74208, Note_off_c, 1, 69, 0
3, 74208, Note_on_c, 1, 72, 60
3, 74236, Note_off_c, 1, 65, 0
3, 74251, Note_off_c, 1, 72, 0
3, 74256, Note_on_c, 1, 57, 60
3, 74256, Note_on_c, 1, 65, 60
3, 74299, Note_off_c, 1, 65, 0
3, 74299, Note_off_c, 1, 57, 0
3, 74352, Note_on_c, 1, 57, 60
3, 74352, Note_on_c, 1, 65, 60
3, 74395, Note_off_c, 1, 65, 0
3, 74395, Note_off_c, 1, 57, 0
3, 74448, Note_on_c, 1, 60, 60
3, 74448, Note_on_c, 1, 67, 60
3, 74491, Note_off_c, 1, 67, 0
3, 74491, Note_off_c, 1, 60, 0
3, 74544, Note_on_c, 1, 60, 60
3, 74544, Note_on_c, 1, 67, 60
3, 74587, Note_off_c, 1, 67, 0
3, 74587, Note_off_c, 1, 60, 0
3, 74640, Note_on_c, 1, 69, 60
3, 74640, Note_on_c, 1, 65, 60
3, 74784, Note_off_c, 1, 69, 0
3, 74784, Note_on_c, 1, 72, 60
3, 74812, Note_off_c, 1, 65, 0
3, 74827, Note_off_c, 1, 72, 0
3, 74832, Note_on_c, 1, 57, 60
3, 74832, Note_on_c, 1, 65, 60
3, 74875, Note_off_c, 1, 65, 0
3, 74875, Note_off_c, 1, 57, 0
3, 74928, Note_on_c, 1, 57, 60
3, 74928, Note_on_c, 1, 65, 60
3, 74971, Note_off_c, 1, 65, 0
3, 74971, Note_off_c, 1, 57, 0
3, 75024, Note_on_c, 1, 60, 60
3, 75024, Note_on_c, 1, 67, 60
3, 75067, Note_off_c, 1, 67, 0
3, 75067, Note_off_c, 1, 60, 0
3, 75120, Note_on_c, 1, 60, 60
3, 75120, Note_on_c, 1, 67, 60
3, 75163, Note_off_c, 1, 67, 0
3, 75163, Note_off_c, 1, 60, 0
3, 75216, Note_on_c, 1, 65, 60
3, 75216, Note_on_c, 1, 69, 60
3, 75388, Note_off_c, 1, 69, 0
3, 75388, Note_off_c, 1, 65, 0
3, 75408, Note_on_c, 1, 55, 60
3, 75408, Note_on_c, 1, 48, 60
3, 75580, Note_off_c, 1, 48, 0
3, 75580, Note_off_c, 1, 55, 0
3, 75600, Note_on_c, 1, 52, 60
3, 75600, Note_on_c, 1, 48, 60
3, 75772, Note_off_c, 1, 48, 0
3, 75772, Note_off_c, 1, 52, 0
3, 75792, Note_on_c, 1, 53, 50
3, 75816, Note_off_c, 1, 53, 0
3, 75816, Note_on_c, 1, 55, 50
3, 75840, Note_off_c, 1, 55, 0
3, 75840, Note_on_c, 1, 53, 50
3, 75864, Note_off_c, 1, 53, 0
3, 75864, Note_on_c, 1, 55, 50
3, 75888, Note_off_c, 1, 55, 0
3, 75888, Note_on_c, 1, 53, 50
3, 75912, Note_off_c, 1, 53, 0
3, 75912, Note_on_c, 1, 55, 50
3, 75936, Note_off_c, 1, 55, 0
3, 75936, Note_on_c, 1, 53, 50
3, 75960, Note_off_c, 1, 53, 0
3, 75960, Note_on_c, 1, 55, 50
3, 75984, Note_off_c, 1, 55, 0
3, 75984, Note_on_c, 1, 53, 50
3, 76008, Note_off_c, 1, 53, 0
3, 76008, Note_on_c, 1, 55, 50
3, 76032, Note_off_c, 1, 55, 0
3, 76032, Note_on_c, 1, 53, 50
3, 76056, Note_off_c, 1, 53, 0
3, 76056, Note_on_c, 1, 55, 50
3, 76080, Note_off_c, 1, 55, 0
3, 76080, Note_on_c, 1, 53, 50
3, 76104, Note_off_c, 1, 53, 0
3, 76104, Note_on_c, 1, 55, 50
3, 76128, Note_off_c, 1, 55, 0
3, 76128, Note_on_c, 1, 53, 50
3, 76152, Note_off_c, 1, 53, 0
3, 76152, Note_on_c, 1, 55, 50
3, 76176, Note_off_c, 1, 55, 0
3, 76176, Note_on_c, 1, 53, 50
3, 76200, Note_off_c, 1, 53, 0
3, 76200, Note_on_c, 1, 55, 50
3, 76224, Note_off_c, 1, 55, 0
3, 76224, Note_on_c, 1, 53, 50
3, 76248, Note_off_c, 1, 53, 0
3, 76248, Note_on_c, 1, 55, 50
3, 76272, Note_off_c, 1, 55, 0
3, 76272, Note_on_c, 1, 53, 50
3, 76296, Note_off_c, 1, 53, 0
3, 76296, Note_on_c, 1, 55, 50
3, 76320, Note_off_c, 1, 55, 0
3, 76320, Note_on_c, 1, 53, 50
3, 76344, Note_off_c, 1, 53, 0
3, 76344, Note_on_c, 1, 55, 50
3, 76368, Note_off_c, 1, 55, 0
3, 76368, Note_on_c, 1, 53, 50
3, 76392, Note_off_c, 1, 53, 0
3, 76392, Note_on_c, 1, 55, 50
3, 76416, Note_off_c, 1, 55, 0
3, 76416, Note_on_c, 1, 53, 50
3, 76440, Note_off_c, 1, 53, 0
3, 76440, Note_on_c, 1, 55, 50
3, 76464, Note_off_c, 1, 55, 0
3, 76464, Note_on_c, 1, 53, 50
3, 76488, Note_off_c, 1, 53, 0
3, 76488, Note_on_c, 1, 55, 50
3, 76512, Note_off_c, 1, 55, 0
3, 76512, Note_on_c, 1, 53, 50
3, 76536, Note_off_c, 1, 53, 0
3, 76536, Note_on_c, 1, 55, 50
3, 76560, Note_off_c, 1, 55, 0
3, 76560, Note_on_c, 1, 53, 50
3, 76584, Note_off_c, 1, 53, 0
3, 76584, Note_on_c, 1, 55, 50
3, 76608, Note_off_c, 1, 55, 0
3, 76608, Note_on_c, 1, 53, 50
3, 76632, Note_off_c, 1, 53, 0
3, 76632, Note_on_c, 1, 55, 50
3, 76656, Note_off_c, 1, 55, 0
3, 76656, Note_on_c, 1, 53, 50
3, 76680, Note_off_c, 1, 53, 0
3, 76680, Note_on_c, 1, 55, 50
3, 76704, Note_off_c, 1, 55, 0
3, 76704, Note_on_c, 1, 53, 50
3, 76728, Note_off_c, 1, 53, 0
3, 76728, Note_on_c, 1, 55, 50
3, 76752, Note_off_c, 1, 55, 0
3, 76752, Note_on_c, 1, 53, 50
3, 76776, Note_off_c, 1, 53, 0
3, 76776, Note_on_c, 1, 55, 50
3, 76800, Note_off_c, 1, 55, 0
3, 76800, Note_on_c, 1, 53, 50
3, 76824, Note_off_c, 1, 53, 0
3, 76824, Note_on_c, 1, 55, 50
3, 76848, Note_off_c, 1, 55, 0
3, 76848, Note_on_c, 1, 53, 50
3, 76872, Note_off_c, 1, 53, 0
3, 76872, Note_on_c, 1, 55, 50
3, 76896, Note_off_c, 1, 55, 0
3, 76896, Note_on_c, 1, 53, 50
3, 76920, Note_off_c, 1, 53, 0
3, 76920, Note_on_c, 1, 55, 49
3, 76944, Note_off_c, 1, 55, 0
3, 76944, Note_on_c, 1, 53, 50
3, 76968, Note_off_c, 1, 53, 0
3, 76968, Note_on_c, 1, 55, 50
3, 76992, Note_off_c, 1, 55, 0
3, 76992, Note_on_c, 1, 53, 50
3, 77016, Note_off_c, 1, 53, 0
3, 77016, Note_on_c, 1, 55, 50
3, 77040, Note_off_c, 1, 55, 0
3, 77040, Note_on_c, 1, 53, 50
3, 77064, Note_off_c, 1, 53, 0
3, 77064, Note_on_c, 1, 55, 50
3, 77088, Note_off_c, 1, 55, 0
3, 77088, Note_on_c, 1, 53, 50
3, 77112, Note_off_c, 1, 53, 0
3, 77112, Note_on_c, 1, 55, 50
3, 77136, Note_off_c, 1, 55, 0
3, 77136, Note_on_c, 1, 53, 50
3, 77160, Note_off_c, 1, 53, 0
3, 77160, Note_on_c, 1, 55, 50
3, 77184, Note_off_c, 1, 55, 0
3, 77184, Note_on_c, 1, 53, 50
3, 77208, Note_off_c, 1, 53, 0
3, 77208, Note_on_c, 1, 55, 50
3, 77232, Note_off_c, 1, 55, 0
3, 77232, Note_on_c, 1, 53, 50
3, 77256, Note_off_c, 1, 53, 0
3, 77256, Note_on_c, 1, 55, 50
3, 77280, Note_off_c, 1, 55, 0
3, 77280, Note_on_c, 1, 53, 50
3, 77304, Note_off_c, 1, 53, 0
3, 77304, Note_on_c, 1, 55, 50
3, 77328, Note_off_c, 1, 55, 0
3, 77328, Note_on_c, 1, 53, 50
3, 77352, Note_off_c, 1, 53, 0
3, 77352, Note_on_c, 1, 55, 50
3, 77376, Note_off_c, 1, 55, 0
3, 77376, Note_on_c, 1, 53, 50
3, 77400, Note_off_c, 1, 53, 0
3, 77400, Note_on_c, 1, 55, 50
3, 77424, Note_off_c, 1, 55, 0
3, 77424, Note_on_c, 1, 53, 50
3, 77448, Note_off_c, 1, 53, 0
3, 77448, Note_on_c, 1, 55, 50
3, 77472, Note_off_c, 1, 55, 0
3, 77472, Note_on_c, 1, 53, 50
3, 77496, Note_off_c, 1, 53, 0
3, 77496, Note_on_c, 1, 55, 50
3, 77520, Note_off_c, 1, 55, 0
3, 77520, Note_on_c, 1, 53, 50
3, 77544, Note_off_c, 1, 53, 0
3, 77544, Note_on_c, 1, 55, 50
3, 77568, Note_off_c, 1, 55, 0
3, 77568, Note_on_c, 1, 53, 50
3, 77592, Note_off_c, 1, 53, 0
3, 77592, Note_on_c, 1, 55, 50
3, 77616, Note_off_c, 1, 55, 0
3, 77616, Note_on_c, 1, 53, 50
3, 77640, Note_off_c, 1, 53, 0
3, 77640, Note_on_c, 1, 55, 50
3, 77664, Note_off_c, 1, 55, 0
3, 77664, Note_on_c, 1, 53, 49
3, 77688, Note_off_c, 1, 53, 0
3, 77688, Note_on_c, 1, 55, 50
3, 77712, Note_off_c, 1, 55, 0
3, 77712, Note_on_c, 1, 53, 50
3, 77736, Note_off_c, 1, 53, 0
3, 77736, Note_on_c, 1, 55, 50
3, 77760, Note_off_c, 1, 55, 0
3, 77760, Note_on_c, 1, 53, 50
3, 77784, Note_off_c, 1, 53, 0
3, 77784, Note_on_c, 1, 55, 50
3, 77808, Note_off_c, 1, 55, 0
3, 77808, Note_on_c, 1, 53, 50
3, 77832, Note_off_c, 1, 53, 0
3, 77832, Note_on_c, 1, 55, 50
3, 77856, Note_off_c, 1, 55, 0
3, 77856, Note_on_c, 1, 53, 50
3, 77880, Note_off_c, 1, 53, 0
3, 77880, Note_on_c, 1, 55, 50
3, 77904, Note_off_c, 1, 55, 0
3, 77904, Note_on_c, 1, 53, 50
3, 77928, Note_off_c, 1, 53, 0
3, 77928, Note_on_c, 1, 55, 50
3, 77952, Note_off_c, 1, 55, 0
3, 77952, Note_on_c, 1, 53, 50
3, 77976, Note_off_c, 1, 53, 0
3, 77976, Note_on_c, 1, 55, 50
3, 78000, Note_off_c, 1, 55, 0
3, 78000, Note_on_c, 1, 53, 50
3, 78024, Note_off_c, 1, 53, 0
3, 78024, Note_on_c, 1, 55, 50
3, 78048, Note_off_c, 1, 55, 0
3, 78048, Note_on_c, 1, 53, 50
3, 78072, Note_off_c, 1, 53, 0
3, 78072, Note_on_c, 1, 55, 50
3, 78096, Note_off_c, 1, 55, 0
3, 78096, Note_on_c, 1, 48, 50
3, 78120, Note_off_c, 1, 48, 0
3, 78120, Note_on_c, 1, 50, 50
3, 78144, Note_off_c, 1, 50, 0
3, 78144, Note_on_c, 1, 48, 50
3, 78168, Note_off_c, 1, 48, 0
3, 78168, Note_on_c, 1, 50, 50
3, 78192, Note_off_c, 1, 50, 0
3, 78192, Note_on_c, 1, 48, 50
3, 78216, Note_off_c, 1, 48, 0
3, 78216, Note_on_c, 1, 50, 50
3, 78240, Note_off_c, 1, 50, 0
3, 78240, Note_on_c, 1, 48, 50
3, 78264, Note_off_c, 1, 48, 0
3, 78264, Note_on_c, 1, 50, 50
3, 78288, Note_off_c, 1, 50, 0
3, 78288, Note_on_c, 1, 48, 50
3, 78312, Note_off_c, 1, 48, 0
3, 78312, Note_on_c, 1, 50, 50
3, 78336, Note_off_c, 1, 50, 0
3, 78336, Note_on_c, 1, 48, 50
3, 78360, Note_off_c, 1, 48, 0
3, 78360, Note_on_c, 1, 50, 50
3, 78384, Note_off_c, 1, 50, 0
3, 78384, Note_on_c, 1, 48, 50
3, 78408, Note_off_c, 1, 48, 0
3, 78408, Note_on_c, 1, 50, 50
3, 78432, Note_off_c, 1, 50, 0
3, 78432, Note_on_c, 1, 48, 50
3, 78456, Note_off_c, 1, 48, 0
3, 78456, Note_on_c, 1, 50, 50
3, 78480, Note_off_c, 1, 50, 0
3, 78480, Note_on_c, 1, 48, 50
3, 78504, Note_off_c, 1, 48, 0
3, 78504, Note_on_c, 1, 50, 50
3, 78528, Note_off_c, 1, 50, 0
3, 78528, Note_on_c, 1, 48, 50
3, 78552, Note_off_c, 1, 48, 0
3, 78552, Note_on_c, 1, 50, 50
3, 78576, Note_off_c, 1, 50, 0
3, 78576, Note_on_c, 1, 48, 50
3, 78600, Note_off_c, 1, 48, 0
3, 78600, Note_on_c, 1, 50, 50
3, 78624, Note_off_c, 1, 50, 0
3, 78624, Note_on_c, 1, 48, 50
3, 78648, Note_off_c, 1, 48, 0
3, 78648, Note_on_c, 1, 50, 50
3, 78672, Note_off_c, 1, 50, 0
3, 78672, Note_on_c, 1, 48, 50
3, 78696, Note_off_c, 1, 48, 0
3, 78696, Note_on_c, 1, 50, 50
3, 78720, Note_off_c, 1, 50, 0
3, 78720, Note_on_c, 1, 48, 50
3, 78744, Note_off_c, 1, 48, 0
3, 78744, Note_on_c, 1, 50, 50
3, 78768, Note_off_c, 1, 50, 0
3, 78768, Note_on_c, 1, 48, 50
3, 78792, Note_off_c, 1, 48, 0
3, 78792, Note_on_c, 1, 50, 50
3, 78816, Note_off_c, 1, 50, 0
3, 78816, Note_on_c, 1, 48, 50
3, 78840, Note_off_c, 1, 48, 0
3, 78840, Note_on_c, 1, 50, 50
3, 78864, Note_off_c, 1, 50, 0
3, 78864, Note_on_c, 1, 48, 50
3, 78888, Note_off_c, 1, 48, 0
3, 78888, Note_on_c, 1, 50, 50
3, 78912, Note_off_c, 1, 50, 0
3, 78912, Note_on_c, 1, 48, 50
3, 78936, Note_off_c, 1, 48, 0
3, 78936, Note_on_c, 1, 50, 50
3, 78960, Note_off_c, 1, 50, 0
3, 78960, Note_on_c, 1, 48, 50
3, 78984, Note_off_c, 1, 48, 0
3, 78984, Note_on_c, 1, 50, 50
3, 79008, Note_off_c, 1, 50, 0
3, 79008, Note_on_c, 1, 48, 50
3, 79032, Note_off_c, 1, 48, 0
3, 79032, Note_on_c, 1, 50, 50
3, 79056, Note_off_c, 1, 50, 0
3, 79056, Note_on_c, 1, 48, 50
3, 79080, Note_off_c, 1, 48, 0
3, 79080, Note_on_c, 1, 50, 50
3, 79104, Note_off_c, 1, 50, 0
3, 79104, Note_on_c, 1, 48, 50
3, 79128, Note_off_c, 1, 48, 0
3, 79128, Note_on_c, 1, 50, 50
3, 79152, Note_off_c, 1, 50, 0
3, 79152, Note_on_c, 1, 48, 50
3, 79176, Note_off_c, 1, 48, 0
3, 79176, Note_on_c, 1, 50, 50
3, 79200, Note_off_c, 1, 50, 0
3, 79200, Note_on_c, 1, 48, 50
3, 79224, Note_off_c, 1, 48, 0
3, 79224, Note_on_c, 1, 50, 50
3, 79248, Note_off_c, 1, 50, 0
3, 79248, Note_on_c, 1, 48, 50
3, 79272, Note_off_c, 1, 48, 0
3, 79272, Note_on_c, 1, 50, 50
3, 79296, Note_off_c, 1, 50, 0
3, 79296, Note_on_c, 1, 48, 50
3, 79320, Note_off_c, 1, 48, 0
3, 79320, Note_on_c, 1, 50, 50
3, 79344, Note_off_c, 1, 50, 0
3, 79344, Note_on_c, 1, 48, 50
3, 79368, Note_off_c, 1, 48, 0
3, 79368, Note_on_c, 1, 50, 50
3, 79392, Note_off_c, 1, 50, 0
3, 79392, Note_on_c, 1, 48, 50
3, 79416, Note_off_c, 1, 48, 0
3, 79416, Note_on_c, 1, 50, 50
3, 79440, Note_off_c, 1, 50, 0
3, 79440, Note_on_c, 1, 48, 50
3, 79464, Note_off_c, 1, 48, 0
3, 79464, Note_on_c, 1, 50, 50
3, 79488, Note_off_c, 1, 50, 0
3, 79488, Note_on_c, 1, 48, 50
3, 79512, Note_off_c, 1, 48, 0
3, 79512, Note_on_c, 1, 50, 50
3, 79536, Note_off_c, 1, 50, 0
3, 79536, Note_on_c, 1, 48, 50
3, 79560, Note_off_c, 1, 48, 0
3, 79560, Note_on_c, 1, 50, 50
3, 79584, Note_off_c, 1, 50, 0
3, 79584, Note_on_c, 1, 48, 50
3, 79608, Note_off_c, 1, 48, 0
3, 79608, Note_on_c, 1, 50, 50
3, 79632, Note_off_c, 1, 50, 0
3, 79632, Note_on_c, 1, 48, 50
3, 79656, Note_off_c, 1, 48, 0
3, 79656, Note_on_c, 1, 50, 50
3, 79680, Note_off_c, 1, 50, 0
3, 79680, Note_on_c, 1, 48, 50
3, 79704, Note_off_c, 1, 48, 0
3, 79704, Note_on_c, 1, 50, 50
3, 79728, Note_off_c, 1, 50, 0
3, 79728, Note_on_c, 1, 48, 50
3, 79752, Note_off_c, 1, 48, 0
3, 79752, Note_on_c, 1, 50, 50
3, 79776, Note_off_c, 1, 50, 0
3, 79776, Note_on_c, 1, 48, 50
3, 79800, Note_off_c, 1, 48, 0
3, 79800, Note_on_c, 1, 50, 50
3, 79824, Note_off_c, 1, 50, 0
3, 79824, Note_on_c, 1, 48, 50
3, 79848, Note_off_c, 1, 48, 0
3, 79848, Note_on_c, 1, 50, 50
3, 79872, Note_off_c, 1, 50, 0
3, 79872, Note_on_c, 1, 48, 50
3, 79896, Note_off_c, 1, 48, 0
3, 79896, Note_on_c, 1, 50, 50
3, 79920, Note_off_c, 1, 50, 0
3, 79920, Note_on_c, 1, 48, 50
3, 79944, Note_off_c, 1, 48, 0
3, 79944, Note_on_c, 1, 50, 50
3, 79968, Note_off_c, 1, 50, 0
3, 79968, Note_on_c, 1, 48, 50
3, 79992, Note_off_c, 1, 48, 0
3, 79992, Note_on_c, 1, 50, 50
3, 80016, Note_off_c, 1, 50, 0
3, 80016, Note_on_c, 1, 48, 50
3, 80040, Note_off_c, 1, 48, 0
3, 80040, Note_on_c, 1, 50, 50
3, 80064, Note_off_c, 1, 50, 0
3, 80064, Note_on_c, 1, 48, 50
3, 80088, Note_off_c, 1, 48, 0
3, 80088, Note_on_c, 1, 50, 50
3, 80112, Note_off_c, 1, 50, 0
3, 80112, Note_on_c, 1, 48, 50
3, 80136, Note_off_c, 1, 48, 0
3, 80136, Note_on_c, 1, 50, 50
3, 80160, Note_off_c, 1, 50, 0
3, 80160, Note_on_c, 1, 48, 50
3, 80184, Note_off_c, 1, 48, 0
3, 80184, Note_on_c, 1, 50, 50
3, 80208, Note_off_c, 1, 50, 0
3, 80208, Note_on_c, 1, 48, 50
3, 80232, Note_off_c, 1, 48, 0
3, 80232, Note_on_c, 1, 50, 50
3, 80256, Note_off_c, 1, 50, 0
3, 80256, Note_on_c, 1, 48, 50
3, 80280, Note_off_c, 1, 48, 0
3, 80280, Note_on_c, 1, 50, 50
3, 80304, Note_off_c, 1, 50, 0
3, 80304, Note_on_c, 1, 47, 50
3, 80352, Note_off_c, 1, 47, 0
3, 80352, Note_on_c, 1, 48, 50
3, 80400, Note_off_c, 1, 48, 0
3, 80400, Note_on_c, 1, 41, 50
3, 80424, Note_off_c, 1, 41, 0
3, 80424, Note_on_c, 1, 43, 50
3, 80448, Note_off_c, 1, 43, 0
3, 80448, Note_on_c, 1, 41, 50
3, 80472, Note_off_c, 1, 41, 0
3, 80472, Note_on_c, 1, 43, 50
3, 80496, Note_off_c, 1, 43, 0
3, 80496, Note_on_c, 1, 41, 50
3, 80520, Note_off_c, 1, 41, 0
3, 80520, Note_on_c, 1, 43, 50
3, 80544, Note_off_c, 1, 43, 0
3, 80544, Note_on_c, 1, 41, 50
3, 80568, Note_off_c, 1, 41, 0
3, 80568, Note_on_c, 1, 43, 50
3, 80592, Note_off_c, 1, 43, 0
3, 80592, Note_on_c, 1, 41, 50
3, 80616, Note_off_c, 1, 41, 0
3, 80616, Note_on_c, 1, 43, 50
3, 80640, Note_off_c, 1, 43, 0
3, 80640, Note_on_c, 1, 41, 50
3, 80664, Note_off_c, 1, 41, 0
3, 80664, Note_on_c, 1, 43, 50
3, 80688, Note_off_c, 1, 43, 0
3, 80688, Note_on_c, 1, 41, 50
3, 80712, Note_off_c, 1, 41, 0
3, 80712, Note_on_c, 1, 43, 50
3, 80736, Note_off_c, 1, 43, 0
3, 80736, Note_on_c, 1, 41, 50
3, 80760, Note_off_c, 1, 41, 0
3, 80760, Note_on_c, 1, 43, 50
3, 80784, Note_off_c, 1, 43, 0
3, 80784, Note_on_c, 1, 41, 50
3, 80808, Note_off_c, 1, 41, 0
3, 80808, Note_on_c, 1, 43, 50
3, 80832, Note_off_c, 1, 43, 0
3, 80832, Note_on_c, 1, 41, 50
3, 80856, Note_off_c, 1, 41, 0
3, 80856, Note_on_c, 1, 43, 50
3, 80880, Note_off_c, 1, 43, 0
3, 80880, Note_on_c, 1, 41, 50
3, 80904, Note_off_c, 1, 41, 0
3, 80904, Note_on_c, 1, 43, 50
3, 80928, Note_off_c, 1, 43, 0
3, 80928, Note_on_c, 1, 41, 50
3, 80952, Note_off_c, 1, 41, 0
3, 80952, Note_on_c, 1, 43, 50
3, 80976, Note_off_c, 1, 43, 0
3, 80976, Note_on_c, 1, 41, 50
3, 81000, Note_off_c, 1, 41, 0
3, 81000, Note_on_c, 1, 43, 50
3, 81024, Note_off_c, 1, 43, 0
3, 81024, Note_on_c, 1, 41, 50
3, 81048, Note_off_c, 1, 41, 0
3, 81048, Note_on_c, 1, 43, 50
3, 81072, Note_off_c, 1, 43, 0
3, 81072, Note_on_c, 1, 41, 50
3, 81096, Note_off_c, 1, 41, 0
3, 81096, Note_on_c, 1, 43, 50
3, 81120, Note_off_c, 1, 43, 0
3, 81120, Note_on_c, 1, 41, 50
3, 81144, Note_off_c, 1, 41, 0
3, 81144, Note_on_c, 1, 43, 50
3, 81168, Note_off_c, 1, 43, 0
3, 81168, Note_on_c, 1, 41, 50
3, 81192, Note_off_c, 1, 41, 0
3, 81192, Note_on_c, 1, 43, 50
3, 81216, Note_off_c, 1, 43, 0
3, 81216, Note_on_c, 1, 41, 50
3, 81240, Note_off_c, 1, 41, 0
3, 81240, Note_on_c, 1, 43, 50
3, 81264, Note_off_c, 1, 43, 0
3, 81264, Note_on_c, 1, 41, 50
3, 81288, Note_off_c, 1, 41, 0
3, 81288, Note_on_c, 1, 43, 50
3, 81312, Note_off_c, 1, 43, 0
3, 81312, Note_on_c, 1, 41, 50
3, 81336, Note_off_c, 1, 41, 0
3, 81336, Note_on_c, 1, 43, 50
3, 81360, Note_off_c, 1, 43, 0
3, 81360, Note_on_c, 1, 41, 50
3, 81384, Note_off_c, 1, 41, 0
3, 81384, Note_on_c, 1, 43, 50
3, 81408, Note_off_c, 1, 43, 0
3, 81408, Note_on_c, 1, 41, 50
3, 81432, Note_off_c, 1, 41, 0
3, 81432, Note_on_c, 1, 43, 50
3, 81456, Note_off_c, 1, 43, 0
3, 81456, Note_on_c, 1, 41, 50
3, 81480, Note_off_c, 1, 41, 0
3, 81480, Note_on_c, 1, 43, 50
3, 81504, Note_off_c, 1, 43, 0
3, 81504, Note_on_c, 1, 41, 50
3, 81528, Note_off_c, 1, 41, 0
3, 81528, Note_on_c, 1, 43, 50
3, 81552, Note_off_c, 1, 43, 0
3, 81552, Note_on_c, 1, 42, 50
3, 81576, Note_off_c, 1, 42, 0
3, 81576, Note_on_c, 1, 43, 50
3, 81600, Note_off_c, 1, 43, 0
3, 81600, Note_on_c, 1, 42, 50
3, 81624, Note_off_c, 1, 42, 0
3, 81624, Note_on_c, 1, 43, 50
3, 81648, Note_off_c, 1, 43, 0
3, 81648, Note_on_c, 1, 42, 50
3, 81672, Note_off_c, 1, 42, 0
3, 81672, Note_on_c, 1, 43, 50
3, 81696, Note_off_c, 1, 43, 0
3, 81696, Note_on_c, 1, 42, 50
3, 81720, Note_off_c, 1, 42, 0
3, 81720, Note_on_c, 1, 43, 50
3, 81744, Note_off_c, 1, 43, 0
3, 81744, Note_on_c, 1, 43, 50
3, 81768, Note_off_c, 1, 43, 0
3, 81768, Note_on_c, 1, 45, 50
3, 81792, Note_off_c, 1, 45, 0
3, 81792, Note_on_c, 1, 43, 50
3, 81816, Note_off_c, 1, 43, 0
3, 81816, Note_on_c, 1, 45, 50
3, 81840, Note_off_c, 1, 45, 0
3, 81840, Note_on_c, 1, 43, 50
3, 81864, Note_off_c, 1, 43, 0
3, 81864, Note_on_c, 1, 45, 50
3, 81888, Note_off_c, 1, 45, 0
3, 81888, Note_on_c, 1, 43, 50
3, 81912, Note_off_c, 1, 43, 0
3, 81912, Note_on_c, 1, 45, 50
3, 81936, Note_off_c, 1, 45, 0
3, 81936, Note_on_c, 1, 43, 50
3, 81960, Note_off_c, 1, 43, 0
3, 81960, Note_on_c, 1, 45, 50
3, 81984, Note_off_c, 1, 45, 0
3, 81984, Note_on_c, 1, 43, 50
3, 82008, Note_off_c, 1, 43, 0
3, 82008, Note_on_c, 1, 45, 50
3, 82032, Note_off_c, 1, 45, 0
3, 82032, Note_on_c, 1, 42, 50
3, 82080, Note_off_c, 1, 42, 0
3, 82080, Note_on_c, 1, 43, 50
3, 82128, Note_off_c, 1, 43, 0
3, 82128, Note_on_c, 1, 40, 50
3, 82152, Note_off_c, 1, 40, 0
3, 82152, Note_on_c, 1, 41, 50
3, 82176, Note_off_c, 1, 41, 0
3, 82176, Note_on_c, 1, 40, 50
3, 82200, Note_off_c, 1, 40, 0
3, 82200, Note_on_c, 1, 41, 50
3, 82224, Note_off_c, 1, 41, 0
3, 82224, Note_on_c, 1, 40, 50
3, 82248, Note_off_c, 1, 40, 0
3, 82248, Note_on_c, 1, 41, 50
3, 82272, Note_off_c, 1, 41, 0
3, 82272, Note_on_c, 1, 40, 50
3, 82296, Note_off_c, 1, 40, 0
3, 82296, Note_on_c, 1, 41, 50
3, 82320, Note_off_c, 1, 41, 0
3, 82320, Note_on_c, 1, 41, 50
3, 82344, Note_off_c, 1, 41, 0
3, 82344, Note_on_c, 1, 43, 50
3, 82368, Note_off_c, 1, 43, 0
3, 82368, Note_on_c, 1, 41, 50
3, 82392, Note_off_c, 1, 41, 0
3, 82392, Note_on_c, 1, 43, 50
3, 82416, Note_off_c, 1, 43, 0
3, 82416, Note_on_c, 1, 41, 50
3, 82440, Note_off_c, 1, 41, 0
3, 82440, Note_on_c, 1, 43, 50
3, 82464, Note_off_c, 1, 43, 0
3, 82464, Note_on_c, 1, 41, 50
3, 82488, Note_off_c, 1, 41, 0
3, 82488, Note_on_c, 1, 43, 50
3, 82512, Note_off_c, 1, 43, 0
3, 82512, Note_on_c, 1, 41, 50
3, 82536, Note_off_c, 1, 41, 0
3, 82536, Note_on_c, 1, 43, 50
3, 82560, Note_off_c, 1, 43, 0
3, 82560, Note_on_c, 1, 41, 50
3, 82584, Note_off_c, 1, 41, 0
3, 82584, Note_on_c, 1, 43, 50
3, 82608, Note_off_c, 1, 43, 0
3, 82608, Note_on_c, 1, 40, 50
3, 82656, Note_off_c, 1, 40, 0
3, 82656, Note_on_c, 1, 41, 50
3, 82704, Note_off_c, 1, 41, 0
3, 82704, Note_on_c, 1, 35, 65
3, 83088, Note_off_c, 1, 35, 0
3, 83088, Note_on_c, 1, 38, 45
3, 83280, Note_off_c, 1, 38, 0
3, 83280, Note_on_c, 1, 41, 45
3, 83472, Note_off_c, 1, 41, 0
3, 83472, Note_on_c, 1, 44, 45
3, 83568, Note_off_c, 1, 44, 0
3, 83568, Note_on_c, 1, 47, 45
3, 83664, Note_off_c, 1, 47, 0
3, 83664, Note_on_c, 1, 50, 45
3, 83760, Note_off_c, 1, 50, 0
3, 83760, Note_on_c, 1, 53, 45
3, 83856, Note_off_c, 1, 53, 0
3, 83856, Note_on_c, 1, 56, 45
3, 83904, Note_off_c, 1, 56, 0
3, 84576, Note_on_c, 1, 59, 45
3, 84624, Note_off_c, 1, 59, 0
3, 84624, Note_on_c, 1, 56, 45
3, 84672, Note_off_c, 1, 56, 0
3, 84672, Note_on_c, 1, 53, 45
3, 84720, Note_off_c, 1, 53, 0
3, 84720, Note_on_c, 1, 50, 45
3, 84768, Note_off_c, 1, 50, 0
3, 84768, Note_on_c, 1, 47, 45
3, 84816, Note_off_c, 1, 47, 0
3, 84816, Note_on_c, 1, 36, 45
3, 84816, Note_on_c, 1, 48, 45
3, 85161, Note_off_c, 1, 48, 0
3, 85161, Note_off_c, 1, 36, 0
3, 85200, Note_on_c, 1, 48, 45
3, 85248, Note_off_c, 1, 48, 0
3, 85248, Note_on_c, 1, 52, 45
3, 85296, Note_off_c, 1, 52, 0
3, 85296, Note_on_c, 1, 50, 45
3, 85344, Note_off_c, 1, 50, 0
3, 85344, Note_on_c, 1, 48, 45
3, 85392, Note_off_c, 1, 48, 0
3, 85392, Note_on_c, 1, 50, 45
3, 85440, Note_off_c, 1, 50, 0
3, 85440, Note_on_c, 1, 52, 45
3, 85488, Note_off_c, 1, 52, 0
3, 85488, Note_on_c, 1, 53, 45
3, 85536, Note_off_c, 1, 53, 0
3, 85536, Note_on_c, 1, 55, 45
3, 85584, Note_off_c, 1, 55, 0
3, 85584, Note_on_c, 1, 57, 45
3, 85608, Note_off_c, 1, 57, 0
3, 86304, Note_on_c, 1, 64, 45
3, 86304, Note_on_c, 1, 60, 45
3, 86304, Note_on_c, 1, 70, 45
3, 87168, Note_off_c, 1, 70, 0
3, 87168, Note_off_c, 1, 60, 0
3, 87168, Note_off_c, 1, 64, 0
3, 87264, Note_on_c, 1, 53, 50
3, 87296, Note_off_c, 1, 53, 0
3, 87296, Note_on_c, 1, 57, 50
3, 87328, Note_off_c, 1, 57, 0
3, 87328, Note_on_c, 1, 60, 50
3, 87360, Note_off_c, 1, 60, 0
3, 87360, Note_on_c, 1, 65, 50
3, 87392, Note_off_c, 1, 65, 0
3, 87392, Note_on_c, 1, 60, 50
3, 87424, Note_off_c, 1, 60, 0
3, 87424, Note_on_c, 1, 57, 50
3, 87456, Note_off_c, 1, 57, 0
3, 87456, Note_on_c, 1, 53, 50
3, 87488, Note_off_c, 1, 53, 0
3, 87488, Note_on_c, 1, 57, 50
3, 87520, Note_off_c, 1, 57, 0
3, 87520, Note_on_c, 1, 60, 50
3, 87552, Note_off_c, 1, 60, 0
3, 87552, Note_on_c, 1, 65, 50
3, 87584, Note_off_c, 1, 65, 0
3, 87584, Note_on_c, 1, 60, 50
3, 87616, Note_off_c, 1, 60, 0
3, 87616, Note_on_c, 1, 57, 50
3, 87648, Note_off_c, 1, 57, 0
3, 87648, Note_on_c, 1, 53, 50
3, 87680, Note_off_c, 1, 53, 0
3, 87680, Note_on_c, 1, 57, 50
3, 87712, Note_off_c, 1, 57, 0
3, 87712, Note_on_c, 1, 60, 50
3, 87744, Note_off_c, 1, 60, 0
3, 87744, Note_on_c, 1, 53, 50
3, 87776, Note_off_c, 1, 53, 0
3, 87776, Note_on_c, 1, 58, 50
3, 87808, Note_off_c, 1, 58, 0
3, 87808, Note_on_c, 1, 62, 50
3, 87840, Note_off_c, 1, 62, 0
3, 87840, Note_on_c, 1, 53, 50
3, 87872, Note_off_c, 1, 53, 0
3, 87872, Note_on_c, 1, 57, 50
3, 87904, Note_off_c, 1, 57, 0
3, 87904, Note_on_c, 1, 60, 50
3, 87936, Note_off_c, 1, 60, 0
3, 87936, Note_on_c, 1, 65, 50
3, 87968, Note_off_c, 1, 65, 0
3, 87968, Note_on_c, 1, 60, 50
3, 88000, Note_off_c, 1, 60, 0
3, 88000, Note_on_c, 1, 57, 50
3, 88032, Note_off_c, 1, 57, 0
3, 88032, Note_on_c, 1, 53, 50
3, 88064, Note_off_c, 1, 53, 0
3, 88064, Note_on_c, 1, 57, 50
3, 88096, Note_off_c, 1, 57, 0
3, 88096, Note_on_c, 1, 60, 50
3, 88128, Note_off_c, 1, 60, 0
3, 88128, Note_on_c, 1, 53, 50
3, 88160, Note_off_c, 1, 53, 0
3, 88160, Note_on_c, 1, 55, 50
3, 88192, Note_off_c, 1, 55, 0
3, 88192, Note_on_c, 1, 58, 50
3, 88224, Note_off_c, 1, 58, 0
3, 88224, Note_on_c, 1, 53, 50
3, 88256, Note_off_c, 1, 53, 0
3, 88256, Note_on_c, 1, 57, 50
3, 88288, Note_off_c, 1, 57, 0
3, 88288, Note_on_c, 1, 60, 50
3, 88320, Note_off_c, 1, 60, 0
3, 88320, Note_on_c, 1, 53, 50
3, 88352, Note_off_c, 1, 53, 0
3, 88352, Note_on_c, 1, 57, 50
3, 88384, Note_off_c, 1, 57, 0
3, 88384, Note_on_c, 1, 60, 50
3, 88416, Note_off_c, 1, 60, 0
3, 88416, Note_on_c, 1, 53, 50
3, 88448, Note_off_c, 1, 53, 0
3, 88448, Note_on_c, 1, 57, 50
3, 88480, Note_off_c, 1, 57, 0
3, 88480, Note_on_c, 1, 60, 50
3, 88512, Note_off_c, 1, 60, 0
3, 88512, Note_on_c, 1, 65, 50
3, 88544, Note_off_c, 1, 65, 0
3, 88544, Note_on_c, 1, 60, 50
3, 88576, Note_off_c, 1, 60, 0
3, 88576, Note_on_c, 1, 57, 50
3, 88608, Note_off_c, 1, 57, 0
3, 88608, Note_on_c, 1, 53, 50
3, 88640, Note_off_c, 1, 53, 0
3, 88640, Note_on_c, 1, 57, 50
3, 88672, Note_off_c, 1, 57, 0
3, 88672, Note_on_c, 1, 60, 50
3, 88704, Note_off_c, 1, 60, 0
3, 88704, Note_on_c, 1, 65, 50
3, 88736, Note_off_c, 1, 65, 0
3, 88736, Note_on_c, 1, 60, 50
3, 88768, Note_off_c, 1, 60, 0
3, 88768, Note_on_c, 1, 57, 50
3, 88800, Note_off_c, 1, 57, 0
3, 88800, Note_on_c, 1, 53, 50
3, 88832, Note_off_c, 1, 53, 0
3, 88832, Note_on_c, 1, 57, 50
3, 88864, Note_off_c, 1, 57, 0
3, 88864, Note_on_c, 1, 60, 50
3, 88896, Note_off_c, 1, 60, 0
3, 88896, Note_on_c, 1, 53, 50
3, 88928, Note_off_c, 1, 53, 0
3, 88928, Note_on_c, 1, 58, 50
3, 88960, Note_off_c, 1, 58, 0
3, 88960, Note_on_c, 1, 62, 50
3, 88992, Note_off_c, 1, 62, 0
3, 88992, Note_on_c, 1, 53, 50
3, 89024, Note_off_c, 1, 53, 0
3, 89024, Note_on_c, 1, 57, 50
3, 89056, Note_off_c, 1, 57, 0
3, 89056, Note_on_c, 1, 60, 50
3, 89088, Note_off_c, 1, 60, 0
3, 89088, Note_on_c, 1, 65, 50
3, 89120, Note_off_c, 1, 65, 0
3, 89120, Note_on_c, 1, 60, 50
3, 89152, Note_off_c, 1, 60, 0
3, 89152, Note_on_c, 1, 57, 50
3, 89184, Note_off_c, 1, 57, 0
3, 89184, Note_on_c, 1, 53, 50
3, 89216, Note_off_c, 1, 53, 0
3, 89216, Note_on_c, 1, 57, 50
3, 89248, Note_off_c, 1, 57, 0
3, 89248, Note_on_c, 1, 60, 50
3, 89280, Note_off_c, 1, 60, 0
3, 89280, Note_on_c, 1, 53, 50
3, 89312, Note_off_c, 1, 53, 0
3, 89312, Note_on_c, 1, 55, 50
3, 89344, Note_off_c, 1, 55, 0
3, 89344, Note_on_c, 1, 58, 50
3, 89376, Note_off_c, 1, 58, 0
3, 89376, Note_on_c, 1, 53, 50
3, 89408, Note_off_c, 1, 53, 0
3, 89408, Note_on_c, 1, 57, 50
3, 89440, Note_off_c, 1, 57, 0
3, 89440, Note_on_c, 1, 60, 50
3, 89472, Note_off_c, 1, 60, 0
3, 89472, Note_on_c, 1, 53, 50
3, 89504, Note_off_c, 1, 53, 0
3, 89504, Note_on_c, 1, 57, 50
3, 89536, Note_off_c, 1, 57, 0
3, 89536, Note_on_c, 1, 60, 50
3, 89568, Note_off_c, 1, 60, 0
3, 89568, Note_on_c, 1, 48, 50
3, 89600, Note_off_c, 1, 48, 0
3, 89600, Note_on_c, 1, 52, 50
3, 89632, Note_off_c, 1, 52, 0
3, 89632, Note_on_c, 1, 55, 50
3, 89664, Note_off_c, 1, 55, 0
3, 89664, Note_on_c, 1, 60, 50
3, 89696, Note_off_c, 1, 60, 0
3, 89696, Note_on_c, 1, 55, 50
3, 89728, Note_off_c, 1, 55, 0
3, 89728, Note_on_c, 1, 52, 50
3, 89760, Note_off_c, 1, 52, 0
3, 89760, Note_on_c, 1, 48, 50
3, 89792, Note_off_c, 1, 48, 0
3, 89792, Note_on_c, 1, 52, 50
3, 89824, Note_off_c, 1, 52, 0
3, 89824, Note_on_c, 1, 55, 50
3, 89856, Note_off_c, 1, 55, 0
3, 89856, Note_on_c, 1, 60, 50
3, 89888, Note_off_c, 1, 60, 0
3, 89888, Note_on_c, 1, 55, 50
3, 89920, Note_off_c, 1, 55, 0
3, 89920, Note_on_c, 1, 52, 50
3, 89952, Note_off_c, 1, 52, 0
3, 89952, Note_on_c, 1, 48, 50
3, 89984, Note_off_c, 1, 48, 0
3, 89984, Note_on_c, 1, 52, 50
3, 90016, Note_off_c, 1, 52, 0
3, 90016, Note_on_c, 1, 55, 50
3, 90048, Note_off_c, 1, 55, 0
3, 90048, Note_on_c, 1, 48, 50
3, 90080, Note_off_c, 1, 48, 0
3, 90080, Note_on_c, 1, 52, 50
3, 90112, Note_off_c, 1, 52, 0
3, 90112, Note_on_c, 1, 56, 50
3, 90144, Note_off_c, 1, 56, 0
3, 90144, Note_on_c, 1, 48, 50
3, 90176, Note_off_c, 1, 48, 0
3, 90176, Note_on_c, 1, 53, 50
3, 90208, Note_off_c, 1, 53, 0
3, 90208, Note_on_c, 1, 57, 50
3, 90240, Note_off_c, 1, 57, 0
3, 90240, Note_on_c, 1, 60, 50
3, 90272, Note_off_c, 1, 60, 0
3, 90272, Note_on_c, 1, 57, 50
3, 90304, Note_off_c, 1, 57, 0
3, 90304, Note_on_c, 1, 53, 50
3, 90336, Note_off_c, 1, 53, 0
3, 90336, Note_on_c, 1, 48, 50
3, 90368, Note_off_c, 1, 48, 0
3, 90368, Note_on_c, 1, 53, 50
3, 90400, Note_off_c, 1, 53, 0
3, 90400, Note_on_c, 1, 57, 50
3, 90432, Note_off_c, 1, 57, 0
3, 90432, Note_on_c, 1, 48, 50
3, 90464, Note_off_c, 1, 48, 0
3, 90464, Note_on_c, 1, 52, 50
3, 90496, Note_off_c, 1, 52, 0
3, 90496, Note_on_c, 1, 56, 50
3, 90528, Note_off_c, 1, 56, 0
3, 90528, Note_on_c, 1, 48, 50
3, 90560, Note_off_c, 1, 48, 0
3, 90560, Note_on_c, 1, 53, 50
3, 90592, Note_off_c, 1, 53, 0
3, 90592, Note_on_c, 1, 57, 50
3, 90624, Note_off_c, 1, 57, 0
3, 90624, Note_on_c, 1, 48, 50
3, 90656, Note_off_c, 1, 48, 0
3, 90656, Note_on_c, 1, 52, 50
3, 90688, Note_off_c, 1, 52, 0
3, 90688, Note_on_c, 1, 56, 50
3, 90720, Note_off_c, 1, 56, 0
3, 90720, Note_on_c, 1, 48, 50
3, 90752, Note_off_c, 1, 48, 0
3, 90752, Note_on_c, 1, 53, 50
3, 90784, Note_off_c, 1, 53, 0
3, 90784, Note_on_c, 1, 57, 50
3, 90816, Note_off_c, 1, 57, 0
3, 90816, Note_on_c, 1, 60, 50
3, 90848, Note_off_c, 1, 60, 0
3, 90848, Note_on_c, 1, 57, 50
3, 90880, Note_off_c, 1, 57, 0
3, 90880, Note_on_c, 1, 53, 50
3, 90912, Note_off_c, 1, 53, 0
3, 90912, Note_on_c, 1, 48, 50
3, 90944, Note_off_c, 1, 48, 0
3, 90944, Note_on_c, 1, 53, 50
3, 90976, Note_off_c, 1, 53, 0
3, 90976, Note_on_c, 1, 57, 50
3, 91008, Note_off_c, 1, 57, 0
3, 91008, Note_on_c, 1, 60, 50
3, 91040, Note_off_c, 1, 60, 0
3, 91040, Note_on_c, 1, 57, 50
3, 91072, Note_off_c, 1, 57, 0
3, 91072, Note_on_c, 1, 53, 50
3, 91104, Note_off_c, 1, 53, 0
3, 91104, Note_on_c, 1, 48, 50
3, 91136, Note_off_c, 1, 48, 0
3, 91136, Note_on_c, 1, 53, 50
3, 91168, Note_off_c, 1, 53, 0
3, 91168, Note_on_c, 1, 57, 50
3, 91200, Note_off_c, 1, 57, 0
3, 91200, Note_on_c, 1, 48, 50
3, 91232, Note_off_c, 1, 48, 0
3, 91232, Note_on_c, 1, 54, 50
3, 91264, Note_off_c, 1, 54, 0
3, 91264, Note_on_c, 1, 57, 50
3, 91296, Note_off_c, 1, 57, 0
3, 91296, Note_on_c, 1, 48, 50
3, 91328, Note_off_c, 1, 48, 0
3, 91328, Note_on_c, 1, 55, 50
3, 91360, Note_off_c, 1, 55, 0
3, 91360, Note_on_c, 1, 58, 50
3, 91392, Note_off_c, 1, 58, 0
3, 91392, Note_on_c, 1, 60, 50
3, 91424, Note_off_c, 1, 60, 0
3, 91424, Note_on_c, 1, 58, 50
3, 91456, Note_off_c, 1, 58, 0
3, 91456, Note_on_c, 1, 55, 50
3, 91488, Note_off_c, 1, 55, 0
3, 91488, Note_on_c, 1, 48, 50
3, 91520, Note_off_c, 1, 48, 0
3, 91520, Note_on_c, 1, 55, 50
3, 91552, Note_off_c, 1, 55, 0
3, 91552, Note_on_c, 1, 58, 50
3, 91584, Note_off_c, 1, 58, 0
3, 91584, Note_on_c, 1, 48, 50
3, 91616, Note_off_c, 1, 48, 0
3, 91616, Note_on_c, 1, 54, 50
3, 91648, Note_off_c, 1, 54, 0
3, 91648, Note_on_c, 1, 57, 50
3, 91680, Note_off_c, 1, 57, 0
3, 91680, Note_on_c, 1, 48, 50
3, 91712, Note_off_c, 1, 48, 0
3, 91712, Note_on_c, 1, 55, 50
3, 91744, Note_off_c, 1, 55, 0
3, 91744, Note_on_c, 1, 58, 50
3, 91776, Note_off_c, 1, 58, 0
3, 91776, Note_on_c, 1, 48, 50
3, 91808, Note_off_c, 1, 48, 0
3, 91808, Note_on_c, 1, 52, 50
3, 91840, Note_off_c, 1, 52, 0
3, 91840, Note_on_c, 1, 55, 50
3, 91872, Note_off_c, 1, 55, 0
3, 91872, Note_on_c, 1, 53, 50
3, 91904, Note_off_c, 1, 53, 0
3, 91904, Note_on_c, 1, 57, 50
3, 91936, Note_off_c, 1, 57, 0
3, 91936, Note_on_c, 1, 60, 50
3, 91968, Note_off_c, 1, 60, 0
3, 91968, Note_on_c, 1, 48, 50
3, 92000, Note_off_c, 1, 48, 0
3, 92000, Note_on_c, 1, 53, 50
3, 92032, Note_off_c, 1, 53, 0
3, 92032, Note_on_c, 1, 57, 50
3, 92064, Note_off_c, 1, 57, 0
3, 92064, Note_on_c, 1, 45, 50
3, 92096, Note_off_c, 1, 45, 0
3, 92096, Note_on_c, 1, 48, 50
3, 92128, Note_off_c, 1, 48, 0
3, 92128, Note_on_c, 1, 53, 50
3, 92160, Note_off_c, 1, 53, 0
3, 92160, Note_on_c, 1, 45, 50
3, 92192, Note_off_c, 1, 45, 0
3, 92192, Note_on_c, 1, 48, 50
3, 92224, Note_off_c, 1, 48, 0
3, 92224, Note_on_c, 1, 54, 50
3, 92256, Note_off_c, 1, 54, 0
3, 92256, Note_on_c, 1, 48, 50
3, 92288, Note_off_c, 1, 48, 0
3, 92288, Note_on_c, 1, 52, 50
3, 92320, Note_off_c, 1, 52, 0
3, 92320, Note_on_c, 1, 55, 50
3, 92352, Note_off_c, 1, 55, 0
3, 92352, Note_on_c, 1, 48, 50
3, 92384, Note_off_c, 1, 48, 0
3, 92384, Note_on_c, 1, 52, 50
3, 92416, Note_off_c, 1, 52, 0
3, 92416, Note_on_c, 1, 56, 50
3, 92448, Note_off_c, 1, 56, 0
3, 92448, Note_on_c, 1, 53, 50
3, 92480, Note_off_c, 1, 53, 0
3, 92480, Note_on_c, 1, 57, 50
3, 92512, Note_off_c, 1, 57, 0
3, 92512, Note_on_c, 1, 60, 50
3, 92544, Note_off_c, 1, 60, 0
3, 92544, Note_on_c, 1, 48, 50
3, 92576, Note_off_c, 1, 48, 0
3, 92576, Note_on_c, 1, 53, 50
3, 92608, Note_off_c, 1, 53, 0
3, 92608, Note_on_c, 1, 57, 50
3, 92640, Note_off_c, 1, 57, 0
3, 92640, Note_on_c, 1, 45, 50
3, 92672, Note_off_c, 1, 45, 0
3, 92672, Note_on_c, 1, 48, 50
3, 92704, Note_off_c, 1, 48, 0
3, 92704, Note_on_c, 1, 53, 50
3, 92736, Note_off_c, 1, 53, 0
3, 92736, Note_on_c, 1, 45, 50
3, 92768, Note_off_c, 1, 45, 0
3, 92768, Note_on_c, 1, 48, 50
3, 92800, Note_off_c, 1, 48, 0
3, 92800, Note_on_c, 1, 54, 50
3, 92832, Note_off_c, 1, 54, 0
3, 92832, Note_on_c, 1, 48, 50
3, 92864, Note_off_c, 1, 48, 0
3, 92864, Note_on_c, 1, 52, 50
3, 92896, Note_off_c, 1, 52, 0
3, 92896, Note_on_c, 1, 55, 50
3, 92928, Note_off_c, 1, 55, 0
3, 92928, Note_on_c, 1, 48, 50
3, 92960, Note_off_c, 1, 48, 0
3, 92960, Note_on_c, 1, 52, 50
3, 92992, Note_off_c, 1, 52, 0
3, 92992, Note_on_c, 1, 56, 50
3, 93024, Note_off_c, 1, 56, 0
3, 93024, Note_on_c, 1, 53, 50
3, 93056, Note_off_c, 1, 53, 0
3, 93056, Note_on_c, 1, 57, 50
3, 93088, Note_off_c, 1, 57, 0
3, 93088, Note_on_c, 1, 60, 50
3, 93120, Note_off_c, 1, 60, 0
3, 93120, Note_on_c, 1, 45, 50
3, 93152, Note_off_c, 1, 45, 0
3, 93152, Note_on_c, 1, 48, 50
3, 93184, Note_off_c, 1, 48, 0
3, 93184, Note_on_c, 1, 53, 50
3, 93216, Note_off_c, 1, 53, 0
3, 93216, Note_on_c, 1, 46, 50
3, 93248, Note_off_c, 1, 46, 0
3, 93248, Note_on_c, 1, 50, 50
3, 93280, Note_off_c, 1, 50, 0
3, 93280, Note_on_c, 1, 55, 50
3, 93312, Note_off_c, 1, 55, 0
3, 93312, Note_on_c, 1, 43, 50
3, 93344, Note_off_c, 1, 43, 0
3, 93344, Note_on_c, 1, 46, 50
3, 93376, Note_off_c, 1, 46, 0
3, 93376, Note_on_c, 1, 50, 50
3, 93408, Note_off_c, 1, 50, 0
3, 93408, Note_on_c, 1, 48, 50
3, 93440, Note_off_c, 1, 48, 0
3, 93440, Note_on_c, 1, 52, 50
3, 93472, Note_off_c, 1, 52, 0
3, 93472, Note_on_c, 1, 55, 50
3, 93504, Note_off_c, 1, 55, 0
3, 93504, Note_on_c, 1, 36, 50
3, 93536, Note_off_c, 1, 36, 0
3, 93536, Note_on_c, 1, 43, 50
3, 93568, Note_off_c, 1, 43, 0
3, 93568, Note_on_c, 1, 48, 50
3, 93600, Note_off_c, 1, 48, 0
3, 93600, Note_on_c, 1, 41, 50
3, 93632, Note_off_c, 1, 41, 0
3, 93632, Note_on_c, 1, 45, 50
3, 93664, Note_off_c, 1, 45, 0
3, 93664, Note_on_c, 1, 48, 50
3, 93696, Note_off_c, 1, 48, 0
3, 93696, Note_on_c, 1, 36, 50
3, 93728, Note_off_c, 1, 36, 0
3, 93728, Note_on_c, 1, 41, 50
3, 93760, Note_off_c, 1, 41, 0
3, 93760, Note_on_c, 1, 45, 50
3, 93792, Note_off_c, 1, 45, 0
3, 93792, Note_on_c, 1, 33, 50
3, 93824, Note_off_c, 1, 33, 0
3, 93824, Note_on_c, 1, 36, 50
3, 93856, Note_off_c, 1, 36, 0
3, 93856, Note_on_c, 1, 41, 50
3, 93888, Note_off_c, 1, 41, 0
3, 93888, Note_on_c, 1, 33, 50
3, 93920, Note_off_c, 1, 33, 0
3, 93920, Note_on_c, 1, 36, 50
3, 93952, Note_off_c, 1, 36, 0
3, 93952, Note_on_c, 1, 42, 50
3, 93984, Note_off_c, 1, 42, 0
3, 93984, Note_on_c, 1, 36, 50
3, 94016, Note_off_c, 1, 36, 0
3, 94016, Note_on_c, 1, 40, 50
3, 94048, Note_off_c, 1, 40, 0
3, 94048, Note_on_c, 1, 43, 50
3, 94080, Note_off_c, 1, 43, 0
3, 94080, Note_on_c, 1, 36, 50
3, 94112, Note_off_c, 1, 36, 0
3, 94112, Note_on_c, 1, 40, 50
3, 94144, Note_off_c, 1, 40, 0
3, 94144, Note_on_c, 1, 44, 50
3, 94176, Note_off_c, 1, 44, 0
3, 94176, Note_on_c, 1, 41, 50
3, 94208, Note_off_c, 1, 41, 0
3, 94208, Note_on_c, 1, 45, 50
3, 94240, Note_off_c, 1, 45, 0
3, 94240, Note_on_c, 1, 48, 50
3, 94272, Note_off_c, 1, 48, 0
3, 94272, Note_on_c, 1, 36, 50
3, 94304, Note_off_c, 1, 36, 0
3, 94304, Note_on_c, 1, 41, 50
3, 94336, Note_off_c, 1, 41, 0
3, 94336, Note_on_c, 1, 45, 50
3, 94368, Note_off_c, 1, 45, 0
3, 94368, Note_on_c, 1, 33, 50
3, 94400, Note_off_c, 1, 33, 0
3, 94400, Note_on_c, 1, 36, 50
3, 94432, Note_off_c, 1, 36, 0
3, 94432, Note_on_c, 1, 41, 50
3, 94464, Note_off_c, 1, 41, 0
3, 94464, Note_on_c, 1, 33, 50
3, 94496, Note_off_c, 1, 33, 0
3, 94496, Note_on_c, 1, 36, 50
3, 94528, Note_off_c, 1, 36, 0
3, 94528, Note_on_c, 1, 42, 50
3, 94560, Note_off_c, 1, 42, 0
3, 94560, Note_on_c, 1, 36, 50
3, 94592, Note_off_c, 1, 36, 0
3, 94592, Note_on_c, 1, 40, 50
3, 94624, Note_off_c, 1, 40, 0
3, 94624, Note_on_c, 1, 43, 50
3, 94656, Note_off_c, 1, 43, 0
3, 94656, Note_on_c, 1, 36, 50
3, 94688, Note_off_c, 1, 36, 0
3, 94688, Note_on_c, 1, 40, 50
3, 94720, Note_off_c, 1, 40, 0
3, 94720, Note_on_c, 1, 44, 50
3, 94752, Note_off_c, 1, 44, 0
3, 94752, Note_on_c, 1, 41, 50
3, 94784, Note_off_c, 1, 41, 0
3, 94784, Note_on_c, 1, 45, 50
3, 94816, Note_off_c, 1, 45, 0
3, 94816, Note_on_c, 1, 48, 50
3, 94848, Note_off_c, 1, 48, 0
3, 94848, Note_on_c, 1, 39, 50
3, 94880, Note_off_c, 1, 39, 0
3, 94880, Note_on_c, 1, 41, 50
3, 94912, Note_off_c, 1, 41, 0
3, 94912, Note_on_c, 1, 48, 50
3, 94944, Note_off_c, 1, 48, 0
3, 94944, Note_on_c, 1, 38, 50
3, 94976, Note_off_c, 1, 38, 0
3, 94976, Note_on_c, 1, 41, 50
3, 95008, Note_off_c, 1, 41, 0
3, 95008, Note_on_c, 1, 46, 50
3, 95040, Note_off_c, 1, 46, 0
3, 95040, Note_on_c, 1, 37, 50
3, 95072, Note_off_c, 1, 37, 0
3, 95072, Note_on_c, 1, 41, 50
3, 95104, Note_off_c, 1, 41, 0
3, 95104, Note_on_c, 1, 47, 50
3, 95136, Note_off_c, 1, 47, 0
3, 95136, Note_on_c, 1, 36, 50
3, 95168, Note_off_c, 1, 36, 0
3, 95168, Note_on_c, 1, 40, 50
3, 95200, Note_off_c, 1, 40, 0
3, 95200, Note_on_c, 1, 48, 50
3, 95232, Note_off_c, 1, 48, 0
3, 95232, Note_on_c, 1, 45, 50
3, 95264, Note_off_c, 1, 45, 0
3, 95264, Note_on_c, 1, 52, 50
3, 95296, Note_off_c, 1, 52, 0
3, 95296, Note_on_c, 1, 55, 50
3, 95328, Note_off_c, 1, 55, 0
3, 95328, Note_on_c, 1, 46, 50
3, 95360, Note_off_c, 1, 46, 0
3, 95360, Note_on_c, 1, 50, 50
3, 95392, Note_off_c, 1, 50, 0
3, 95392, Note_on_c, 1, 53, 50
3, 95424, Note_off_c, 1, 53, 0
3, 95424, Note_on_c, 1, 43, 50
3, 95456, Note_off_c, 1, 43, 0
3, 95456, Note_on_c, 1, 46, 50
3, 95488, Note_off_c, 1, 46, 0
3, 95488, Note_on_c, 1, 52, 50
3, 95520, Note_off_c, 1, 52, 0
3, 95520, Note_on_c, 1, 45, 50
3, 95552, Note_off_c, 1, 45, 0
3, 95552, Note_on_c, 1, 48, 50
3, 95584, Note_off_c, 1, 48, 0
3, 95584, Note_on_c, 1, 53, 50
3, 95616, Note_off_c, 1, 53, 0
3, 95616, Note_on_c, 1, 45, 50
3, 95648, Note_off_c, 1, 45, 0
3, 95648, Note_on_c, 1, 48, 50
3, 95680, Note_off_c, 1, 48, 0
3, 95680, Note_on_c, 1, 51, 50
3, 95712, Note_off_c, 1, 51, 0
3, 95712, Note_on_c, 1, 46, 50
3, 95744, Note_off_c, 1, 46, 0
3, 95744, Note_on_c, 1, 50, 50
3, 95776, Note_off_c, 1, 50, 0
3, 95776, Note_on_c, 1, 55, 50
3, 95808, Note_off_c, 1, 55, 0
3, 95808, Note_on_c, 1, 47, 50
3, 95840, Note_off_c, 1, 47, 0
3, 95840, Note_on_c, 1, 50, 50
3, 95872, Note_off_c, 1, 50, 0
3, 95872, Note_on_c, 1, 53, 50
3, 95904, Note_off_c, 1, 53, 0
3, 95904, Note_on_c, 1, 36, 78
3, 95904, Note_on_c, 1, 48, 78
3, 96288, Note_off_c, 1, 48, 0
3, 96288, Note_off_c, 1, 36, 0
3, 98304, Note_on_c, 1, 57, 45
3, 98352, Note_off_c, 1, 57, 0
3, 98352, Note_on_c, 1, 65, 45
3, 98400, Note_off_c, 1, 65, 0
3, 98400, Note_on_c, 1, 60, 45
3, 98448, Note_off_c, 1, 60, 0
3, 98448, Note_on_c, 1, 57, 45
3, 98496, Note_off_c, 1, 57, 0
3, 98496, Note_on_c, 1, 53, 45
3, 98544, Note_off_c, 1, 53, 0
3, 98544, Note_on_c, 1, 60, 45
3, 98592, Note_off_c, 1, 60, 0
3, 98592, Note_on_c, 1, 57, 45
3, 98640, Note_off_c, 1, 57, 0
3, 98640, Note_on_c, 1, 53, 45
3, 98688, Note_off_c, 1, 53, 0
3, 98688, Note_on_c, 1, 48, 45
3, 98736, Note_off_c, 1, 48, 0
3, 98736, Note_on_c, 1, 57, 45
3, 98784, Note_off_c, 1, 57, 0
3, 98784, Note_on_c, 1, 53, 45
3, 98832, Note_off_c, 1, 53, 0
3, 98832, Note_on_c, 1, 48, 45
3, 98880, Note_off_c, 1, 48, 0
3, 98880, Note_on_c, 1, 45, 45
3, 98928, Note_off_c, 1, 45, 0
3, 98928, Note_on_c, 1, 53, 45
3, 98976, Note_off_c, 1, 53, 0
3, 98976, Note_on_c, 1, 48, 45
3, 99024, Note_off_c, 1, 48, 0
3, 99024, Note_on_c, 1, 45, 45
3, 99072, Note_off_c, 1, 45, 0
3, 99072, Note_on_c, 1, 41, 45
3, 99120, Note_off_c, 1, 41, 0
3, 99120, Note_on_c, 1, 48, 45
3, 99168, Note_off_c, 1, 48, 0
3, 99168, Note_on_c, 1, 45, 45
3, 99216, Note_off_c, 1, 45, 0
3, 99216, Note_on_c, 1, 41, 45
3, 99264, Note_off_c, 1, 41, 0
3, 99264, Note_on_c, 1, 36, 45
3, 99609, Note_off_c, 1, 36, 0
3, 99648, Note_on_c, 1, 36, 45
3, 99734, Note_off_c, 1, 36, 0
3, 99744, Note_on_c, 1, 38, 45
3, 99792, Note_off_c, 1, 38, 0
3, 99792, Note_on_c, 1, 40, 45
3, 99840, Note_off_c, 1, 40, 0
3, 99840, Note_on_c, 1, 41, 45
3, 99888, Note_off_c, 1, 41, 0
3, 99888, Note_on_c, 1, 43, 45
3, 99936, Note_off_c, 1, 43, 0
3, 99936, Note_on_c, 1, 45, 45
3, 99984, Note_off_c, 1, 45, 0
3, 99984, Note_on_c, 1, 46, 45
3, 100032, Note_off_c, 1, 46, 0
3, 100032, Note_on_c, 1, 48, 45
3, 100080, Note_off_c, 1, 48, 0
3, 100080, Note_on_c, 1, 41, 45
3, 100128, Note_off_c, 1, 41, 0
3, 100128, Note_on_c, 1, 43, 45
3, 100176, Note_off_c, 1, 43, 0
3, 100176, Note_on_c, 1, 45, 45
3, 100224, Note_off_c, 1, 45, 0
3, 100224, Note_on_c, 1, 46, 45
3, 100272, Note_off_c, 1, 46, 0
3, 100272, Note_on_c, 1, 48, 45
3, 100320, Note_off_c, 1, 48, 0
3, 100320, Note_on_c, 1, 50, 45
3, 100368, Note_off_c, 1, 50, 0
3, 100368, Note_on_c, 1, 52, 45
3, 100416, Note_off_c, 1, 52, 0
3, 100416, Note_on_c, 1, 53, 45
3, 100464, Note_off_c, 1, 53, 0
3, 100464, Note_on_c, 1, 48, 45
3, 100512, Note_off_c, 1, 48, 0
3, 100512, Note_on_c, 1, 50, 45
3, 100560, Note_off_c, 1, 50, 0
3, 100560, Note_on_c, 1, 52, 45
3, 100608, Note_off_c, 1, 52, 0
3, 100608, Note_on_c, 1, 53, 45
3, 100656, Note_off_c, 1, 53, 0
3, 100656, Note_on_c, 1, 55, 45
3, 100704, Note_off_c, 1, 55, 0
3, 100704, Note_on_c, 1, 57, 45
3, 100752, Note_off_c, 1, 57, 0
3, 100752, Note_on_c, 1, 58, 45
3, 100800, Note_off_c, 1, 58, 0
3, 100800, Note_on_c, 1, 60, 45
3, 100848, Note_off_c, 1, 60, 0
3, 100848, Note_on_c, 1, 53, 45
3, 100896, Note_off_c, 1, 53, 0
3, 100896, Note_on_c, 1, 55, 45
3, 100944, Note_off_c, 1, 55, 0
3, 100944, Note_on_c, 1, 57, 45
3, 100992, Note_off_c, 1, 57, 0
3, 100992, Note_on_c, 1, 58, 45
3, 101040, Note_off_c, 1, 58, 0
3, 101040, Note_on_c, 1, 60, 45
3, 101088, Note_off_c, 1, 60, 0
3, 101088, Note_on_c, 1, 62, 45
3, 101136, Note_off_c, 1, 62, 0
3, 101136, Note_on_c, 1, 64, 45
3, 101184, Note_off_c, 1, 64, 0
3, 101184, Note_on_c, 1, 65, 45
3, 101232, Note_off_c, 1, 65, 0
3, 102720, Note_on_c, 1, 47, 55
3, 102720, Note_on_c, 1, 50, 55
3, 102720, Note_on_c, 1, 56, 55
3, 102720, Note_on_c, 1, 53, 55
3, 103056, Note_off_c, 1, 53, 0
3, 103056, Note_off_c, 1, 56, 0
3, 103056, Note_off_c, 1, 50, 0
3, 103056, Note_off_c, 1, 47, 0
3, 104448, Note_on_c, 1, 59, 45
3, 104512, Note_off_c, 1, 59, 0
3, 104512, Note_on_c, 1, 62, 45
3, 104576, Note_off_c, 1, 62, 0
3, 104576, Note_on_c, 1, 59, 45
3, 104640, Note_off_c, 1, 59, 0
3, 104640, Note_on_c, 1, 56, 45
3, 104704, Note_off_c, 1, 56, 0
3, 104704, Note_on_c, 1, 59, 45
3, 104768, Note_off_c, 1, 59, 0
3, 104768, Note_on_c, 1, 56, 45
3, 104832, Note_off_c, 1, 56, 0
3, 104832, Note_on_c, 1, 53, 45
3, 104896, Note_on_c, 1, 56, 45
3, 104918, Note_off_c, 1, 53, 0
3, 104953, Note_off_c, 1, 56, 0
3, 104960, Note_on_c, 1, 53, 45
3, 105017, Note_off_c, 1, 53, 0
3, 105024, Note_on_c, 1, 50, 45
3, 105088, Note_on_c, 1, 53, 45
3, 105110, Note_off_c, 1, 50, 0
3, 105145, Note_off_c, 1, 53, 0
3, 105152, Note_on_c, 1, 50, 45
3, 105209, Note_off_c, 1, 50, 0
3, 105216, Note_on_c, 1, 47, 45
3, 105280, Note_on_c, 1, 50, 45
3, 105302, Note_off_c, 1, 47, 0
3, 105337, Note_off_c, 1, 50, 0
3, 105344, Note_on_c, 1, 47, 45
3, 105401, Note_off_c, 1, 47, 0
3, 105408, Note_on_c, 1, 46, 45
3, 105472, Note_on_c, 1, 49, 45
3, 105494, Note_off_c, 1, 46, 0
3, 105529, Note_off_c, 1, 49, 0
3, 105536, Note_on_c, 1, 52, 45
3, 105593, Note_off_c, 1, 52, 0
3, 105600, Note_on_c, 1, 55, 45
3, 105657, Note_off_c, 1, 55, 0
3, 105664, Note_on_c, 1, 58, 45
3, 105721, Note_off_c, 1, 58, 0
3, 105728, Note_on_c, 1, 61, 45
3, 105785, Note_off_c, 1, 61, 0
3, 105792, Note_on_c, 1, 55, 45
3, 105856, Note_on_c, 1, 58, 45
3, 105878, Note_off_c, 1, 55, 0
3, 105913, Note_off_c, 1, 58, 0
3, 105920, Note_on_c, 1, 61, 45
3, 105977, Note_off_c, 1, 61, 0
3, 107232, Note_on_c, 1, 57, 45
3, 107328, Note_off_c, 1, 57, 0
3, 107328, Note_on_c, 1, 58, 45
3, 107500, Note_off_c, 1, 58, 0
3, 107616, Note_on_c, 1, 57, 45
3, 107712, Note_off_c, 1, 57, 0
3, 107712, Note_on_c, 1, 58, 45
3, 107884, Note_off_c, 1, 58, 0
3, 108000, Note_on_c, 1, 45, 45
3, 108000, Note_on_c, 1, 57, 45
3, 108086, Note_off_c, 1, 57, 0
3, 108086, Note_off_c, 1, 45, 0
3, 108096, Note_on_c, 1, 46, 45
3, 108096, Note_on_c, 1, 58, 45
3, 108182, Note_off_c, 1, 58, 0
3, 108182, Note_off_c, 1, 46, 0
3, 108192, Note_on_c, 1, 45, 45
3, 108192, Note_on_c, 1, 57, 45
3, 108278, Note_off_c, 1, 57, 0
3, 108278, Note_off_c, 1, 45, 0
3, 108288, Note_on_c, 1, 46, 45
3, 108288, Note_on_c, 1, 58, 45
3, 108374, Note_off_c, 1, 58, 0
3, 108374, Note_off_c, 1, 46, 0
3, 108384, Note_on_c, 1, 45, 45
3, 108384, Note_on_c, 1, 57, 45
3, 108470, Note_off_c, 1, 57, 0
3, 108470, Note_off_c, 1, 45, 0
3, 108480, Note_on_c, 1, 46, 45
3, 108480, Note_on_c, 1, 58, 45
3, 108652, Note_off_c, 1, 58, 0
3, 108652, Note_off_c, 1, 46, 0
3, 108672, Note_on_c, 1, 46, 45
3, 108672, Note_on_c, 1, 50, 45
3, 108672, Note_on_c, 1, 53, 45
3, 108672, Note_on_c, 1, 55, 45
3, 109416, Note_off_c, 1, 55, 0
3, 109416, Note_off_c, 1, 53, 0
3, 109416, Note_off_c, 1, 50, 0
3, 109416, Note_off_c, 1, 46, 0
3, 109440, Note_on_c, 1, 48, 47
3, 109440, Note_on_c, 1, 53, 47
3, 109440, Note_on_c, 1, 57, 47
3, 109824, Note_off_c, 1, 57, 0
3, 109824, Note_off_c, 1, 53, 0
3, 109824, Note_off_c, 1, 48, 0
3, 113376, Note_on_c, 1, 70, 45
3, 113376, Note_on_c, 1, 60, 45
3, 113721, Note_off_c, 1, 60, 0
3, 113721, Note_off_c, 1, 70, 0
3, 113760, Note_on_c, 1, 69, 45
3, 113760, Note_on_c, 1, 60, 45
3, 114105, Note_off_c, 1, 60, 0
3, 114105, Note_off_c, 1, 69, 0
3, 114144, Note_on_c, 1, 63, 45
3, 114144, Note_on_c, 1, 60, 45
3, 114489, Note_off_c, 1, 60, 0
3, 114489, Note_off_c, 1, 63, 0
3, 114528, Note_on_c, 1, 60, 45
3, 114528, Note_on_c, 1, 64, 45
3, 114873, Note_off_c, 1, 64, 0
3, 114873, Note_off_c, 1, 60, 0
3, 115968, Note_on_c, 1, 48, 45
3, 115968, Note_on_c, 1, 52, 45
3, 115968, Note_on_c, 1, 58, 45
3, 116832, Note_off_c, 1, 58, 0
3, 116832, Note_off_c, 1, 52, 0
3, 116832, Note_off_c, 1, 48, 0
3, 116928, Note_on_c, 1, 41, 45
3, 117014, Note_off_c, 1, 41, 0
3, 117024, Note_on_c, 1, 53, 45
3, 117110, Note_off_c, 1, 53, 0
3, 117120, Note_on_c, 1, 45, 45
3, 117206, Note_off_c, 1, 45, 0
3, 117216, Note_on_c, 1, 57, 45
3, 117302, Note_off_c, 1, 57, 0
3, 117312, Note_on_c, 1, 48, 45
3, 117398, Note_off_c, 1, 48, 0
3, 117408, Note_on_c, 1, 60, 45
3, 117494, Note_off_c, 1, 60, 0
3, 117504, Note_on_c, 1, 41, 45
3, 117590, Note_off_c, 1, 41, 0
3, 117600, Note_on_c, 1, 53, 45
3, 117686, Note_off_c, 1, 53, 0
3, 117696, Note_on_c, 1, 45, 45
3, 117782, Note_off_c, 1, 45, 0
3, 117792, Note_on_c, 1, 57, 45
3, 117878, Note_off_c, 1, 57, 0
3, 117888, Note_on_c, 1, 48, 45
3, 117974, Note_off_c, 1, 48, 0
3, 117984, Note_on_c, 1, 60, 45
3, 118070, Note_off_c, 1, 60, 0
3, 118080, Note_on_c, 1, 53, 45
3, 118252, Note_off_c, 1, 53, 0
3, 118272, Note_on_c, 1, 58, 45
3, 118272, Note_on_c, 1, 46, 45
3, 118444, Note_off_c, 1, 46, 0
3, 118444, Note_off_c, 1, 58, 0
3, 118464, Note_on_c, 1, 60, 45
3, 118464, Note_on_c, 1, 48, 45
3, 118636, Note_off_c, 1, 48, 0
3, 118636, Note_off_c, 1, 60, 0
3, 118656, Note_on_c, 1, 62, 45
3, 118656, Note_on_c, 1, 50, 45
3, 119001, Note_off_c, 1, 50, 0
3, 119001, Note_off_c, 1, 62, 0
3, 119232, Note_on_c, 1, 53, 45
3, 119318, Note_off_c, 1, 53, 0
3, 119328, Note_on_c, 1, 65, 45
3, 119414, Note_off_c, 1, 65, 0
3, 119424, Note_on_c, 1, 57, 45
3, 119510, Note_off_c, 1, 57, 0
3, 119520, Note_on_c, 1, 69, 45
3, 119606, Note_off_c, 1, 69, 0
3, 119616, Note_on_c, 1, 60, 45
3, 119702, Note_off_c, 1, 60, 0
3, 119712, Note_on_c, 1, 72, 45
3, 119798, Note_off_c, 1, 72, 0
3, 119808, Note_on_c, 1, 53, 45
3, 119894, Note_off_c, 1, 53, 0
3, 119904, Note_on_c, 1, 65, 45
3, 119990, Note_off_c, 1, 65, 0
3, 120000, Note_on_c, 1, 57, 45
3, 120086, Note_off_c, 1, 57, 0
3, 120096, Note_on_c, 1, 69, 45
3, 120182, Note_off_c, 1, 69, 0
3, 120192, Note_on_c, 1, 60, 45
3, 120278, Note_off_c, 1, 60, 0
3, 120288, Note_on_c, 1, 72, 45
3, 120374, Note_off_c, 1, 72, 0
3, 120384, Note_on_c, 1, 65, 45
3, 120384, Note_on_c, 1, 77, 45
3, 120556, Note_off_c, 1, 77, 0
3, 120556, Note_off_c, 1, 65, 0
3, 120576, Note_on_c, 1, 58, 45
3, 120576, Note_on_c, 1, 67, 45
3, 120748, Note_off_c, 1, 67, 0
3, 120748, Note_off_c, 1, 58, 0
3, 120768, Note_on_c, 1, 70, 45
3, 120768, Note_on_c, 1, 60, 45
3, 120940, Note_off_c, 1, 60, 0
3, 120940, Note_off_c, 1, 70, 0
3, 120960, Note_on_c, 1, 69, 45
3, 120960, Note_on_c, 1, 65, 45
3, 121200, Note_off_c, 1, 65, 0
3, 121200, Note_off_c, 1, 69, 0
3, 121536, Note_on_c, 1, 45, 22
3, 121536, Note_on_c, 1, 57, 22
3, 121708, Note_off_c, 1, 57, 0
3, 121708, Note_off_c, 1, 45, 0
3, 121728, Note_on_c, 1, 46, 22
3, 121728, Note_on_c, 1, 55, 22
3, 121900, Note_off_c, 1, 55, 0
3, 121900, Note_off_c, 1, 46, 0
3, 121920, Note_on_c, 1, 58, 22
3, 121920, Note_on_c, 1, 48, 22
3, 122092, Note_off_c, 1, 48, 0
3, 122092, Note_off_c, 1, 58, 0
3, 122112, Note_on_c, 1, 57, 22
3, 122112, Note_on_c, 1, 53, 22
3, 122352, Note_off_c, 1, 53, 0
3, 122352, Note_off_c, 1, 57, 0
3, 122688, Note_on_c, 1, 50, 22
3, 122860, Note_off_c, 1, 50, 0
3, 122880, Note_on_c, 1, 46, 22
3, 123052, Note_off_c, 1, 46, 0
3, 123072, Note_on_c, 1, 48, 24
3, 123244, Note_off_c, 1, 48, 0
3, 123264, Note_on_c, 1, 41, 24
3, 123552, Note_off_c, 1, 41, 0
3, 123840, Note_on_c, 1, 38, 11
3, 124012, Note_off_c, 1, 38, 0
3, 124032, Note_on_c, 1, 34, 11
3, 124204, Note_off_c, 1, 34, 0
3, 124224, Note_on_c, 1, 36, 9
3, 124396, Note_off_c, 1, 36, 0
3, 124416, Note_on_c, 1, 29, 1
3, 124416, Note_on_c, 1, 41, 1
3, 124934, Note_off_c, 1, 41, 0
3, 124934, Note_off_c, 1, 29, 0
3, 124992, Note_on_c, 1, 29, 1
3, 124992, Note_on_c, 1, 41, 1
3, 125510, Note_off_c, 1, 41, 0
3, 125510, Note_off_c, 1, 29, 0
3, 125568, Note_on_c, 1, 29, 1
3, 125568, Note_on_c, 1, 41, 1
3, 126086, Note_off_c, 1, 41, 0
3, 126086, Note_off_c, 1, 29, 0
3, 126336, Note_on_c, 1, 48, 1
3, 126336, Note_on_c, 1, 36, 1
3, 126508, Note_off_c, 1, 36, 0
3, 126508, Note_off_c, 1, 48, 0
3, 126528, Note_on_c, 1, 48, 1
3, 126528, Note_on_c, 1, 36, 1
3, 126700, Note_off_c, 1, 36, 0
3, 126700, Note_off_c, 1, 48, 0
3, 126720, Note_on_c, 1, 41, 1
3, 126720, Note_on_c, 1, 29, 1
3, 127296, Note_off_c, 1, 29, 0
3, 127296, Note_off_c, 1, 41, 0
3, 127296, Note_on_c, 1, 29, 1
3, 127296, Note_on_c, 1, 41, 1
3, 127641, Note_off_c, 1, 29, 0
3, 127680, Note_off_c, 1, 41, 0
3, 127680, End_track
0, 0, End_of_file