0, 0, Header, 1, 3, 192
1, 0, Start_track
1, 0, Title_t, "Sonatina III  Menuetto"
1, 0, Text_t, "By W. A. Mozart"
1, 0, Copyright_t, "Copyright \251 <Year> by <Name>"
1, 0, Copyright_t, "All Rights Reserved"
1, 0, Text_t, "Generated by NoteWorthy Composer"
1, 0, Tempo, 545454
1, 0, Key_signature, 2, "major"
1, 0, Time_signature, 3, 2, 24, 8
1, 6336, Tempo, 545454
1, 57600, Tempo, 545454
1, 57600, End_track
2, 0, Start_track
2, 0, MIDI_port, 0
2, 0, Title_t, "Right Hand"
2, 0, Program_c, 0, 0
2, 0, Control_c, 0, 7, 127
2, 0, Control_c, 0, 10, 64
2, 0, Note_on_c, 0, 69, 92
2, 48, Note_on_c, 0, 69, 0
2, 192, Note_on_c, 0, 66, 92
2, 192, Note_on_c, 0, 74, 92
2, 384, Note_on_c, 0, 66, 0
2, 384, Note_on_c, 0, 74, 0
2, 384, Note_on_c, 0, 78, 92
2, 544, Note_on_c, 0, 78, 0
2, 576, Note_on_c, 0, 69, 92
2, 576, Note_on_c, 0, 74, 92
2, 624, Note_on_c, 0, 69, 0
2, 624, Note_on_c, 0, 74, 0
2, 768, Note_on_c, 0, 76, 92
2, 768, Note_on_c, 0, 81, 92
2, 816, Note_on_c, 0, 76, 0
2, 816, Note_on_c, 0, 81, 0
2, 960, Note_on_c, 0, 79, 92
2, 960, Note_on_c, 0, 81, 92
2, 1008, Note_on_c, 0, 79, 0
2, 1008, Note_on_c, 0, 81, 0
2, 1152, Note_on_c, 0, 76, 92
2, 1152, Note_on_c, 0, 81, 92
2, 1200, Note_on_c, 0, 76, 0
2, 1200, Note_on_c, 0, 81, 0
2, 1344, Note_on_c, 0, 78, 92
2, 1344, Note_on_c, 0, 81, 92
2, 1536, Note_on_c, 0, 78, 0
2, 1536, Note_on_c, 0, 81, 0
2, 1536, Note_on_c, 0, 74, 92
2, 1536, Note_on_c, 0, 83, 92
2, 1696, Note_on_c, 0, 74, 0
2, 1696, Note_on_c, 0, 83, 0
2, 1728, Note_on_c, 0, 71, 92
2, 1728, Note_on_c, 0, 80, 92
2, 1776, Note_on_c, 0, 71, 0
2, 1776, Note_on_c, 0, 80, 0
2, 1920, Note_on_c, 0, 76, 92
2, 1920, Note_on_c, 0, 81, 92
2, 2112, Note_on_c, 0, 76, 0
2, 2112, Note_on_c, 0, 81, 0
2, 2112, Note_on_c, 0, 73, 92
2, 2272, Note_on_c, 0, 73, 0
2, 2304, Note_on_c, 0, 69, 45
2, 2400, Note_on_c, 0, 69, 0
2, 2400, Note_on_c, 0, 71, 45
2, 2494, Note_on_c, 0, 71, 0
2, 2496, Note_on_c, 0, 73, 45
2, 2544, Note_on_c, 0, 73, 0
2, 2688, Note_on_c, 0, 69, 45
2, 2784, Note_on_c, 0, 69, 0
2, 2784, Note_on_c, 0, 71, 45
2, 2880, Note_on_c, 0, 71, 0
2, 2880, Note_on_c, 0, 73, 45
2, 2976, Note_on_c, 0, 73, 0
2, 2976, Note_on_c, 0, 74, 45
2, 3070, Note_on_c, 0, 74, 0
2, 3072, Note_on_c, 0, 76, 45
2, 3120, Note_on_c, 0, 76, 0
2, 3264, Note_on_c, 0, 73, 52
2, 3360, Note_on_c, 0, 73, 0
2, 3360, Note_on_c, 0, 74, 56
2, 3456, Note_on_c, 0, 74, 0
2, 3456, Note_on_c, 0, 76, 60
2, 3552, Note_on_c, 0, 76, 0
2, 3552, Note_on_c, 0, 78, 64
2, 3646, Note_on_c, 0, 78, 0
2, 3648, Note_on_c, 0, 79, 68
2, 3696, Note_on_c, 0, 79, 0
2, 3840, Note_on_c, 0, 76, 76
2, 3936, Note_on_c, 0, 76, 0
2, 3936, Note_on_c, 0, 78, 80
2, 4032, Note_on_c, 0, 78, 0
2, 4032, Note_on_c, 0, 79, 84
2, 4128, Note_on_c, 0, 79, 0
2, 4128, Note_on_c, 0, 81, 88
2, 4222, Note_on_c, 0, 81, 0
2, 4224, Note_on_c, 0, 83, 92
2, 4752, Note_on_c, 0, 83, 0
2, 4800, Note_on_c, 0, 81, 92
2, 4992, Note_on_c, 0, 81, 0
2, 4992, Note_on_c, 0, 79, 92
2, 5184, Note_on_c, 0, 79, 0
2, 5184, Note_on_c, 0, 78, 92
2, 5344, Note_on_c, 0, 78, 0
2, 5376, Note_on_c, 0, 76, 92
2, 5568, Note_on_c, 0, 76, 0
2, 5568, Note_on_c, 0, 79, 92
2, 5728, Note_on_c, 0, 79, 0
2, 5760, Note_on_c, 0, 67, 92
2, 5760, Note_on_c, 0, 73, 92
2, 5808, Note_on_c, 0, 67, 0
2, 5808, Note_on_c, 0, 73, 0
2, 5952, Note_on_c, 0, 66, 92
2, 5952, Note_on_c, 0, 74, 92
2, 6112, Note_on_c, 0, 66, 0
2, 6112, Note_on_c, 0, 74, 0
2, 6336, Note_on_c, 0, 69, 92
2, 6384, Note_on_c, 0, 69, 0
2, 6528, Note_on_c, 0, 66, 92
2, 6528, Note_on_c, 0, 74, 92
2, 6720, Note_on_c, 0, 66, 0
2, 6720, Note_on_c, 0, 74, 0
2, 6720, Note_on_c, 0, 78, 92
2, 6880, Note_on_c, 0, 78, 0
2, 6912, Note_on_c, 0, 69, 92
2, 6912, Note_on_c, 0, 74, 92
2, 6960, Note_on_c, 0, 69, 0
2, 6960, Note_on_c, 0, 74, 0
2, 7104, Note_on_c, 0, 76, 92
2, 7104, Note_on_c, 0, 81, 92
2, 7152, Note_on_c, 0, 76, 0
2, 7152, Note_on_c, 0, 81, 0
2, 7296, Note_on_c, 0, 79, 92
2, 7296, Note_on_c, 0, 81, 92
2, 7344, Note_on_c, 0, 79, 0
2, 7344, Note_on_c, 0, 81, 0
2, 7488, Note_on_c, 0, 76, 92
2, 7488, Note_on_c, 0, 81, 92
2, 7536, Note_on_c, 0, 76, 0
2, 7536, Note_on_c, 0, 81, 0
2, 7680, Note_on_c, 0, 78, 92
2, 7680, Note_on_c, 0, 81, 92
2, 7872, Note_on_c, 0, 78, 0
2, 7872, Note_on_c, 0, 81, 0
2, 7872, Note_on_c, 0, 74, 92
2, 7872, Note_on_c, 0, 83, 92
2, 8032, Note_on_c, 0, 74, 0
2, 8032, Note_on_c, 0, 83, 0
2, 8064, Note_on_c, 0, 71, 92
2, 8064, Note_on_c, 0, 80, 92
2, 8112, Note_on_c, 0, 71, 0
2, 8112, Note_on_c, 0, 80, 0
2, 8256, Note_on_c, 0, 76, 92
2, 8256, Note_on_c, 0, 81, 92
2, 8448, Note_on_c, 0, 76, 0
2, 8448, Note_on_c, 0, 81, 0
2, 8448, Note_on_c, 0, 73, 92
2, 8608, Note_on_c, 0, 73, 0
2, 8640, Note_on_c, 0, 69, 45
2, 8736, Note_on_c, 0, 69, 0
2, 8736, Note_on_c, 0, 71, 45
2, 8830, Note_on_c, 0, 71, 0
2, 8832, Note_on_c, 0, 73, 45
2, 8880, Note_on_c, 0, 73, 0
2, 9024, Note_on_c, 0, 69, 45
2, 9120, Note_on_c, 0, 69, 0
2, 9120, Note_on_c, 0, 71, 45
2, 9216, Note_on_c, 0, 71, 0
2, 9216, Note_on_c, 0, 73, 45
2, 9312, Note_on_c, 0, 73, 0
2, 9312, Note_on_c, 0, 74, 45
2, 9406, Note_on_c, 0, 74, 0
2, 9408, Note_on_c, 0, 76, 45
2, 9456, Note_on_c, 0, 76, 0
2, 9600, Note_on_c, 0, 73, 52
2, 9696, Note_on_c, 0, 73, 0
2, 9696, Note_on_c, 0, 74, 56
2, 9792, Note_on_c, 0, 74, 0
2, 9792, Note_on_c, 0, 76, 60
2, 9888, Note_on_c, 0, 76, 0
2, 9888, Note_on_c, 0, 78, 64
2, 9982, Note_on_c, 0, 78, 0
2, 9984, Note_on_c, 0, 79, 68
2, 10032, Note_on_c, 0, 79, 0
2, 10176, Note_on_c, 0, 76, 76
2, 10272, Note_on_c, 0, 76, 0
2, 10272, Note_on_c, 0, 78, 80
2, 10368, Note_on_c, 0, 78, 0
2, 10368, Note_on_c, 0, 79, 84
2, 10464, Note_on_c, 0, 79, 0
2, 10464, Note_on_c, 0, 81, 88
2, 10558, Note_on_c, 0, 81, 0
2, 10560, Note_on_c, 0, 83, 92
2, 11088, Note_on_c, 0, 83, 0
2, 11136, Note_on_c, 0, 81, 92
2, 11328, Note_on_c, 0, 81, 0
2, 11328, Note_on_c, 0, 79, 92
2, 11520, Note_on_c, 0, 79, 0
2, 11520, Note_on_c, 0, 78, 92
2, 11680, Note_on_c, 0, 78, 0
2, 11712, Note_on_c, 0, 76, 92
2, 11904, Note_on_c, 0, 76, 0
2, 11904, Note_on_c, 0, 79, 92
2, 12064, Note_on_c, 0, 79, 0
2, 12096, Note_on_c, 0, 67, 92
2, 12096, Note_on_c, 0, 73, 92
2, 12144, Note_on_c, 0, 67, 0
2, 12144, Note_on_c, 0, 73, 0
2, 12288, Note_on_c, 0, 66, 92
2, 12288, Note_on_c, 0, 74, 92
2, 12448, Note_on_c, 0, 66, 0
2, 12448, Note_on_c, 0, 74, 0
2, 13248, Note_on_c, 0, 73, 92
2, 13248, Note_on_c, 0, 82, 92
2, 13296, Note_on_c, 0, 73, 0
2, 13296, Note_on_c, 0, 82, 0
2, 13440, Note_on_c, 0, 74, 92
2, 13440, Note_on_c, 0, 83, 92
2, 13632, Note_on_c, 0, 74, 0
2, 13632, Note_on_c, 0, 83, 0
2, 13632, Note_on_c, 0, 78, 92
2, 13632, Note_on_c, 0, 86, 92
2, 13792, Note_on_c, 0, 78, 0
2, 13792, Note_on_c, 0, 86, 0
2, 14400, Note_on_c, 0, 71, 92
2, 14400, Note_on_c, 0, 80, 92
2, 14448, Note_on_c, 0, 71, 0
2, 14448, Note_on_c, 0, 80, 0
2, 14592, Note_on_c, 0, 73, 92
2, 14592, Note_on_c, 0, 81, 92
2, 14784, Note_on_c, 0, 73, 0
2, 14784, Note_on_c, 0, 81, 0
2, 14784, Note_on_c, 0, 76, 92
2, 14784, Note_on_c, 0, 85, 92
2, 14944, Note_on_c, 0, 76, 0
2, 14944, Note_on_c, 0, 85, 0
2, 14976, Note_on_c, 0, 81, 45
2, 15024, Note_on_c, 0, 81, 0
2, 15168, Note_on_c, 0, 88, 45
2, 15360, Note_on_c, 0, 88, 0
2, 15360, Note_on_c, 0, 85, 45
2, 15552, Note_on_c, 0, 85, 0
2, 15552, Note_on_c, 0, 81, 45
2, 15712, Note_on_c, 0, 81, 0
2, 15744, Note_on_c, 0, 80, 45
2, 15936, Note_on_c, 0, 80, 0
2, 15936, Note_on_c, 0, 78, 45
2, 16096, Note_on_c, 0, 78, 0
2, 16128, Note_on_c, 0, 83, 45
2, 16128, Note_on_c, 0, 86, 45
2, 16512, Note_on_c, 0, 83, 0
2, 16512, Note_on_c, 0, 86, 0
2, 16512, Note_on_c, 0, 81, 45
2, 16512, Note_on_c, 0, 85, 45
2, 16672, Note_on_c, 0, 81, 0
2, 16672, Note_on_c, 0, 85, 0
2, 16704, Note_on_c, 0, 80, 45
2, 16704, Note_on_c, 0, 83, 45
2, 16864, Note_on_c, 0, 83, 0
2, 16896, Note_on_c, 0, 84, 45
2, 17088, Note_on_c, 0, 80, 0
2, 17088, Note_on_c, 0, 84, 0
2, 17088, Note_on_c, 0, 81, 45
2, 17088, Note_on_c, 0, 85, 45
2, 17248, Note_on_c, 0, 81, 0
2, 17248, Note_on_c, 0, 85, 0
2, 17280, Note_on_c, 0, 81, 45
2, 17328, Note_on_c, 0, 81, 0
2, 17472, Note_on_c, 0, 76, 45
2, 17472, Note_on_c, 0, 88, 45
2, 17664, Note_on_c, 0, 76, 0
2, 17664, Note_on_c, 0, 88, 0
2, 17664, Note_on_c, 0, 85, 45
2, 17856, Note_on_c, 0, 85, 0
2, 17856, Note_on_c, 0, 81, 45
2, 18016, Note_on_c, 0, 81, 0
2, 18048, Note_on_c, 0, 76, 45
2, 18048, Note_on_c, 0, 80, 45
2, 18240, Note_on_c, 0, 76, 0
2, 18240, Note_on_c, 0, 80, 0
2, 18240, Note_on_c, 0, 74, 45
2, 18240, Note_on_c, 0, 78, 45
2, 18400, Note_on_c, 0, 74, 0
2, 18400, Note_on_c, 0, 78, 0
2, 18432, Note_on_c, 0, 78, 45
2, 18432, Note_on_c, 0, 86, 45
2, 18816, Note_on_c, 0, 78, 0
2, 18816, Note_on_c, 0, 86, 0
2, 18816, Note_on_c, 0, 83, 45
2, 19008, Note_on_c, 0, 83, 0
2, 19008, Note_on_c, 0, 80, 45
2, 19168, Note_on_c, 0, 80, 0
2, 19200, Note_on_c, 0, 83, 45
2, 19224, Note_on_c, 0, 83, 0
2, 19224, Note_on_c, 0, 81, 45
2, 19248, Note_on_c, 0, 81, 0
2, 19248, Note_on_c, 0, 83, 45
2, 19272, Note_on_c, 0, 83, 0
2, 19272, Note_on_c, 0, 81, 45
2, 19296, Note_on_c, 0, 81, 0
2, 19296, Note_on_c, 0, 83, 45
2, 19320, Note_on_c, 0, 83, 0
2, 19320, Note_on_c, 0, 81, 45
2, 19344, Note_on_c, 0, 81, 0
2, 19344, Note_on_c, 0, 83, 45
2, 19368, Note_on_c, 0, 83, 0
2, 19368, Note_on_c, 0, 81, 45
2, 19392, Note_on_c, 0, 81, 0
2, 19392, Note_on_c, 0, 83, 45
2, 19416, Note_on_c, 0, 83, 0
2, 19416, Note_on_c, 0, 81, 45
2, 19440, Note_on_c, 0, 81, 0
2, 19440, Note_on_c, 0, 83, 45
2, 19464, Note_on_c, 0, 83, 0
2, 19464, Note_on_c, 0, 81, 45
2, 19488, Note_on_c, 0, 81, 0
2, 19488, Note_on_c, 0, 83, 45
2, 19512, Note_on_c, 0, 83, 0
2, 19512, Note_on_c, 0, 81, 45
2, 19536, Note_on_c, 0, 81, 0
2, 19536, Note_on_c, 0, 83, 45
2, 19560, Note_on_c, 0, 83, 0
2, 19560, Note_on_c, 0, 81, 45
2, 19584, Note_on_c, 0, 81, 0
2, 19584, Note_on_c, 0, 83, 45
2, 19608, Note_on_c, 0, 83, 0
2, 19608, Note_on_c, 0, 81, 45
2, 19632, Note_on_c, 0, 81, 0
2, 19632, Note_on_c, 0, 83, 45
2, 19656, Note_on_c, 0, 83, 0
2, 19656, Note_on_c, 0, 81, 45
2, 19680, Note_on_c, 0, 81, 0
2, 19680, Note_on_c, 0, 83, 45
2, 19704, Note_on_c, 0, 83, 0
2, 19704, Note_on_c, 0, 81, 45
2, 19728, Note_on_c, 0, 81, 0
2, 19728, Note_on_c, 0, 83, 45
2, 19752, Note_on_c, 0, 83, 0
2, 19752, Note_on_c, 0, 81, 45
2, 19776, Note_on_c, 0, 81, 0
2, 19776, Note_on_c, 0, 83, 45
2, 19800, Note_on_c, 0, 83, 0
2, 19800, Note_on_c, 0, 81, 45
2, 19824, Note_on_c, 0, 81, 0
2, 19824, Note_on_c, 0, 83, 45
2, 19848, Note_on_c, 0, 83, 0
2, 19848, Note_on_c, 0, 81, 45
2, 19872, Note_on_c, 0, 81, 0
2, 19872, Note_on_c, 0, 83, 45
2, 19896, Note_on_c, 0, 83, 0
2, 19896, Note_on_c, 0, 81, 45
2, 19920, Note_on_c, 0, 81, 0
2, 19920, Note_on_c, 0, 83, 45
2, 19944, Note_on_c, 0, 83, 0
2, 19944, Note_on_c, 0, 81, 45
2, 19968, Note_on_c, 0, 81, 0
2, 19968, Note_on_c, 0, 83, 45
2, 19992, Note_on_c, 0, 83, 0
2, 19992, Note_on_c, 0, 81, 45
2, 20016, Note_on_c, 0, 81, 0
2, 20016, Note_on_c, 0, 83, 45
2, 20040, Note_on_c, 0, 83, 0
2, 20040, Note_on_c, 0, 81, 45
2, 20064, Note_on_c, 0, 81, 0
2, 20064, Note_on_c, 0, 83, 45
2, 20088, Note_on_c, 0, 83, 0
2, 20088, Note_on_c, 0, 81, 45
2, 20112, Note_on_c, 0, 81, 0
2, 20112, Note_on_c, 0, 83, 45
2, 20136, Note_on_c, 0, 83, 0
2, 20136, Note_on_c, 0, 81, 45
2, 20160, Note_on_c, 0, 81, 0
2, 20160, Note_on_c, 0, 83, 45
2, 20184, Note_on_c, 0, 83, 0
2, 20184, Note_on_c, 0, 81, 45
2, 20208, Note_on_c, 0, 81, 0
2, 20208, Note_on_c, 0, 83, 45
2, 20232, Note_on_c, 0, 83, 0
2, 20232, Note_on_c, 0, 81, 45
2, 20256, Note_on_c, 0, 81, 0
2, 20256, Note_on_c, 0, 83, 45
2, 20280, Note_on_c, 0, 83, 0
2, 20280, Note_on_c, 0, 81, 45
2, 20304, Note_on_c, 0, 81, 0
2, 20304, Note_on_c, 0, 83, 45
2, 20328, Note_on_c, 0, 83, 0
2, 20328, Note_on_c, 0, 81, 45
2, 20352, Note_on_c, 0, 81, 0
2, 20352, Note_on_c, 0, 83, 45
2, 20376, Note_on_c, 0, 83, 0
2, 20376, Note_on_c, 0, 81, 45
2, 20400, Note_on_c, 0, 81, 0
2, 20400, Note_on_c, 0, 83, 45
2, 20424, Note_on_c, 0, 83, 0
2, 20424, Note_on_c, 0, 81, 45
2, 20448, Note_on_c, 0, 81, 0
2, 20448, Note_on_c, 0, 83, 45
2, 20472, Note_on_c, 0, 83, 0
2, 20472, Note_on_c, 0, 81, 45
2, 20496, Note_on_c, 0, 81, 0
2, 20496, Note_on_c, 0, 83, 45
2, 20520, Note_on_c, 0, 83, 0
2, 20520, Note_on_c, 0, 81, 45
2, 20544, Note_on_c, 0, 81, 0
2, 20544, Note_on_c, 0, 83, 45
2, 20568, Note_on_c, 0, 83, 0
2, 20568, Note_on_c, 0, 81, 45
2, 20592, Note_on_c, 0, 81, 0
2, 20592, Note_on_c, 0, 83, 45
2, 20616, Note_on_c, 0, 83, 0
2, 20616, Note_on_c, 0, 81, 45
2, 20640, Note_on_c, 0, 81, 0
2, 20640, Note_on_c, 0, 83, 45
2, 20664, Note_on_c, 0, 83, 0
2, 20664, Note_on_c, 0, 81, 45
2, 20688, Note_on_c, 0, 81, 0
2, 20688, Note_on_c, 0, 83, 45
2, 20712, Note_on_c, 0, 83, 0
2, 20712, Note_on_c, 0, 81, 45
2, 20736, Note_on_c, 0, 81, 0
2, 20736, Note_on_c, 0, 83, 45
2, 20760, Note_on_c, 0, 83, 0
2, 20760, Note_on_c, 0, 81, 45
2, 20784, Note_on_c, 0, 81, 0
2, 20784, Note_on_c, 0, 83, 45
2, 20808, Note_on_c, 0, 83, 0
2, 20808, Note_on_c, 0, 81, 46
2, 20832, Note_on_c, 0, 81, 0
2, 20832, Note_on_c, 0, 83, 47
2, 20856, Note_on_c, 0, 83, 0
2, 20856, Note_on_c, 0, 81, 48
2, 20880, Note_on_c, 0, 81, 0
2, 20880, Note_on_c, 0, 83, 49
2, 20904, Note_on_c, 0, 83, 0
2, 20904, Note_on_c, 0, 81, 50
2, 20928, Note_on_c, 0, 81, 0
2, 20928, Note_on_c, 0, 83, 51
2, 20952, Note_on_c, 0, 83, 0
2, 20952, Note_on_c, 0, 81, 52
2, 20976, Note_on_c, 0, 81, 0
2, 20976, Note_on_c, 0, 83, 53
2, 21000, Note_on_c, 0, 83, 0
2, 21000, Note_on_c, 0, 81, 54
2, 21024, Note_on_c, 0, 81, 0
2, 21024, Note_on_c, 0, 83, 55
2, 21048, Note_on_c, 0, 83, 0
2, 21048, Note_on_c, 0, 81, 56
2, 21072, Note_on_c, 0, 81, 0
2, 21072, Note_on_c, 0, 83, 57
2, 21096, Note_on_c, 0, 83, 0
2, 21096, Note_on_c, 0, 81, 58
2, 21120, Note_on_c, 0, 81, 0
2, 21120, Note_on_c, 0, 83, 59
2, 21144, Note_on_c, 0, 83, 0
2, 21144, Note_on_c, 0, 81, 60
2, 21168, Note_on_c, 0, 81, 0
2, 21168, Note_on_c, 0, 83, 61
2, 21192, Note_on_c, 0, 83, 0
2, 21192, Note_on_c, 0, 81, 62
2, 21216, Note_on_c, 0, 81, 0
2, 21216, Note_on_c, 0, 83, 63
2, 21240, Note_on_c, 0, 83, 0
2, 21240, Note_on_c, 0, 81, 64
2, 21264, Note_on_c, 0, 81, 0
2, 21264, Note_on_c, 0, 83, 65
2, 21288, Note_on_c, 0, 83, 0
2, 21288, Note_on_c, 0, 81, 66
2, 21312, Note_on_c, 0, 81, 0
2, 21312, Note_on_c, 0, 83, 67
2, 21336, Note_on_c, 0, 83, 0
2, 21336, Note_on_c, 0, 81, 68
2, 21360, Note_on_c, 0, 81, 0
2, 21360, Note_on_c, 0, 83, 69
2, 21384, Note_on_c, 0, 83, 0
2, 21384, Note_on_c, 0, 81, 70
2, 21408, Note_on_c, 0, 81, 0
2, 21408, Note_on_c, 0, 83, 71
2, 21432, Note_on_c, 0, 83, 0
2, 21432, Note_on_c, 0, 81, 72
2, 21456, Note_on_c, 0, 81, 0
2, 21456, Note_on_c, 0, 83, 73
2, 21480, Note_on_c, 0, 83, 0
2, 21480, Note_on_c, 0, 81, 74
2, 21504, Note_on_c, 0, 81, 0
2, 21504, Note_on_c, 0, 83, 75
2, 21528, Note_on_c, 0, 83, 0
2, 21528, Note_on_c, 0, 81, 76
2, 21552, Note_on_c, 0, 81, 0
2, 21552, Note_on_c, 0, 83, 77
2, 21576, Note_on_c, 0, 83, 0
2, 21576, Note_on_c, 0, 81, 78
2, 21600, Note_on_c, 0, 81, 0
2, 21600, Note_on_c, 0, 83, 79
2, 21624, Note_on_c, 0, 83, 0
2, 21624, Note_on_c, 0, 81, 80
2, 21648, Note_on_c, 0, 81, 0
2, 21648, Note_on_c, 0, 83, 81
2, 21672, Note_on_c, 0, 83, 0
2, 21672, Note_on_c, 0, 81, 82
2, 21696, Note_on_c, 0, 81, 0
2, 21696, Note_on_c, 0, 83, 83
2, 21728, Note_on_c, 0, 83, 0
2, 21728, Note_on_c, 0, 81, 84
2, 21760, Note_on_c, 0, 81, 0
2, 21760, Note_on_c, 0, 80, 85
2, 21792, Note_on_c, 0, 80, 0
2, 21792, Note_on_c, 0, 81, 86
2, 21886, Note_on_c, 0, 81, 0
2, 21888, Note_on_c, 0, 69, 92
2, 21936, Note_on_c, 0, 69, 0
2, 22080, Note_on_c, 0, 66, 92
2, 22080, Note_on_c, 0, 74, 92
2, 22272, Note_on_c, 0, 66, 0
2, 22272, Note_on_c, 0, 74, 0
2, 22272, Note_on_c, 0, 78, 92
2, 22432, Note_on_c, 0, 78, 0
2, 22464, Note_on_c, 0, 69, 92
2, 22464, Note_on_c, 0, 74, 92
2, 22512, Note_on_c, 0, 69, 0
2, 22512, Note_on_c, 0, 74, 0
2, 22656, Note_on_c, 0, 76, 92
2, 22656, Note_on_c, 0, 81, 92
2, 22704, Note_on_c, 0, 76, 0
2, 22704, Note_on_c, 0, 81, 0
2, 22848, Note_on_c, 0, 79, 92
2, 22848, Note_on_c, 0, 81, 92
2, 22896, Note_on_c, 0, 79, 0
2, 22896, Note_on_c, 0, 81, 0
2, 23040, Note_on_c, 0, 76, 92
2, 23040, Note_on_c, 0, 81, 92
2, 23088, Note_on_c, 0, 76, 0
2, 23088, Note_on_c, 0, 81, 0
2, 23232, Note_on_c, 0, 78, 92
2, 23232, Note_on_c, 0, 81, 92
2, 23424, Note_on_c, 0, 78, 0
2, 23424, Note_on_c, 0, 81, 0
2, 23424, Note_on_c, 0, 74, 92
2, 23424, Note_on_c, 0, 83, 92
2, 23584, Note_on_c, 0, 74, 0
2, 23584, Note_on_c, 0, 83, 0
2, 23616, Note_on_c, 0, 71, 92
2, 23616, Note_on_c, 0, 80, 92
2, 23664, Note_on_c, 0, 71, 0
2, 23664, Note_on_c, 0, 80, 0
2, 23808, Note_on_c, 0, 76, 92
2, 23808, Note_on_c, 0, 81, 92
2, 24000, Note_on_c, 0, 76, 0
2, 24000, Note_on_c, 0, 81, 0
2, 24000, Note_on_c, 0, 73, 92
2, 24160, Note_on_c, 0, 73, 0
2, 24192, Note_on_c, 0, 69, 45
2, 24288, Note_on_c, 0, 69, 0
2, 24288, Note_on_c, 0, 71, 45
2, 24382, Note_on_c, 0, 71, 0
2, 24384, Note_on_c, 0, 73, 45
2, 24432, Note_on_c, 0, 73, 0
2, 24576, Note_on_c, 0, 69, 45
2, 24672, Note_on_c, 0, 69, 0
2, 24672, Note_on_c, 0, 71, 45
2, 24768, Note_on_c, 0, 71, 0
2, 24768, Note_on_c, 0, 73, 45
2, 24864, Note_on_c, 0, 73, 0
2, 24864, Note_on_c, 0, 74, 45
2, 24958, Note_on_c, 0, 74, 0
2, 24960, Note_on_c, 0, 76, 45
2, 25008, Note_on_c, 0, 76, 0
2, 25152, Note_on_c, 0, 73, 52
2, 25248, Note_on_c, 0, 73, 0
2, 25248, Note_on_c, 0, 74, 56
2, 25344, Note_on_c, 0, 74, 0
2, 25344, Note_on_c, 0, 76, 60
2, 25440, Note_on_c, 0, 76, 0
2, 25440, Note_on_c, 0, 78, 64
2, 25534, Note_on_c, 0, 78, 0
2, 25536, Note_on_c, 0, 79, 68
2, 25584, Note_on_c, 0, 79, 0
2, 25728, Note_on_c, 0, 76, 76
2, 25824, Note_on_c, 0, 76, 0
2, 25824, Note_on_c, 0, 78, 80
2, 25920, Note_on_c, 0, 78, 0
2, 25920, Note_on_c, 0, 79, 84
2, 26016, Note_on_c, 0, 79, 0
2, 26016, Note_on_c, 0, 81, 88
2, 26110, Note_on_c, 0, 81, 0
2, 26112, Note_on_c, 0, 83, 92
2, 26640, Note_on_c, 0, 83, 0
2, 26688, Note_on_c, 0, 81, 92
2, 26880, Note_on_c, 0, 81, 0
2, 26880, Note_on_c, 0, 79, 92
2, 27072, Note_on_c, 0, 79, 0
2, 27072, Note_on_c, 0, 78, 92
2, 27232, Note_on_c, 0, 78, 0
2, 27264, Note_on_c, 0, 76, 92
2, 27456, Note_on_c, 0, 76, 0
2, 27456, Note_on_c, 0, 79, 92
2, 27616, Note_on_c, 0, 79, 0
2, 27648, Note_on_c, 0, 67, 92
2, 27648, Note_on_c, 0, 73, 92
2, 27696, Note_on_c, 0, 67, 0
2, 27696, Note_on_c, 0, 73, 0
2, 27840, Note_on_c, 0, 66, 92
2, 27840, Note_on_c, 0, 74, 92
2, 28000, Note_on_c, 0, 66, 0
2, 28000, Note_on_c, 0, 74, 0
2, 28800, Note_on_c, 0, 73, 92
2, 28800, Note_on_c, 0, 82, 92
2, 28848, Note_on_c, 0, 73, 0
2, 28848, Note_on_c, 0, 82, 0
2, 28992, Note_on_c, 0, 74, 92
2, 28992, Note_on_c, 0, 83, 92
2, 29184, Note_on_c, 0, 74, 0
2, 29184, Note_on_c, 0, 83, 0
2, 29184, Note_on_c, 0, 78, 92
2, 29184, Note_on_c, 0, 86, 92
2, 29344, Note_on_c, 0, 78, 0
2, 29344, Note_on_c, 0, 86, 0
2, 29952, Note_on_c, 0, 71, 92
2, 29952, Note_on_c, 0, 80, 92
2, 30000, Note_on_c, 0, 71, 0
2, 30000, Note_on_c, 0, 80, 0
2, 30144, Note_on_c, 0, 73, 92
2, 30144, Note_on_c, 0, 81, 92
2, 30336, Note_on_c, 0, 73, 0
2, 30336, Note_on_c, 0, 81, 0
2, 30336, Note_on_c, 0, 76, 92
2, 30336, Note_on_c, 0, 85, 92
2, 30496, Note_on_c, 0, 76, 0
2, 30496, Note_on_c, 0, 85, 0
2, 30528, Note_on_c, 0, 81, 45
2, 30576, Note_on_c, 0, 81, 0
2, 30720, Note_on_c, 0, 88, 45
2, 30912, Note_on_c, 0, 88, 0
2, 30912, Note_on_c, 0, 85, 45
2, 31104, Note_on_c, 0, 85, 0
2, 31104, Note_on_c, 0, 81, 45
2, 31264, Note_on_c, 0, 81, 0
2, 31296, Note_on_c, 0, 80, 45
2, 31488, Note_on_c, 0, 80, 0
2, 31488, Note_on_c, 0, 78, 45
2, 31648, Note_on_c, 0, 78, 0
2, 31680, Note_on_c, 0, 83, 45
2, 31680, Note_on_c, 0, 86, 45
2, 32064, Note_on_c, 0, 83, 0
2, 32064, Note_on_c, 0, 86, 0
2, 32064, Note_on_c, 0, 81, 45
2, 32064, Note_on_c, 0, 85, 45
2, 32224, Note_on_c, 0, 81, 0
2, 32224, Note_on_c, 0, 85, 0
2, 32256, Note_on_c, 0, 80, 45
2, 32256, Note_on_c, 0, 83, 45
2, 32416, Note_on_c, 0, 83, 0
2, 32448, Note_on_c, 0, 84, 45
2, 32640, Note_on_c, 0, 80, 0
2, 32640, Note_on_c, 0, 84, 0
2, 32640, Note_on_c, 0, 81, 45
2, 32640, Note_on_c, 0, 85, 45
2, 32800, Note_on_c, 0, 81, 0
2, 32800, Note_on_c, 0, 85, 0
2, 32832, Note_on_c, 0, 81, 45
2, 32880, Note_on_c, 0, 81, 0
2, 33024, Note_on_c, 0, 76, 45
2, 33024, Note_on_c, 0, 88, 45
2, 33216, Note_on_c, 0, 76, 0
2, 33216, Note_on_c, 0, 88, 0
2, 33216, Note_on_c, 0, 85, 45
2, 33408, Note_on_c, 0, 85, 0
2, 33408, Note_on_c, 0, 81, 45
2, 33568, Note_on_c, 0, 81, 0
2, 33600, Note_on_c, 0, 76, 45
2, 33600, Note_on_c, 0, 80, 45
2, 33792, Note_on_c, 0, 76, 0
2, 33792, Note_on_c, 0, 80, 0
2, 33792, Note_on_c, 0, 74, 45
2, 33792, Note_on_c, 0, 78, 45
2, 33952, Note_on_c, 0, 74, 0
2, 33952, Note_on_c, 0, 78, 0
2, 33984, Note_on_c, 0, 78, 45
2, 33984, Note_on_c, 0, 86, 45
2, 34368, Note_on_c, 0, 78, 0
2, 34368, Note_on_c, 0, 86, 0
2, 34368, Note_on_c, 0, 83, 45
2, 34560, Note_on_c, 0, 83, 0
2, 34560, Note_on_c, 0, 80, 45
2, 34720, Note_on_c, 0, 80, 0
2, 34752, Note_on_c, 0, 83, 45
2, 34776, Note_on_c, 0, 83, 0
2, 34776, Note_on_c, 0, 81, 45
2, 34800, Note_on_c, 0, 81, 0
2, 34800, Note_on_c, 0, 83, 45
2, 34824, Note_on_c, 0, 83, 0
2, 34824, Note_on_c, 0, 81, 45
2, 34848, Note_on_c, 0, 81, 0
2, 34848, Note_on_c, 0, 83, 45
2, 34872, Note_on_c, 0, 83, 0
2, 34872, Note_on_c, 0, 81, 45
2, 34896, Note_on_c, 0, 81, 0
2, 34896, Note_on_c, 0, 83, 45
2, 34920, Note_on_c, 0, 83, 0
2, 34920, Note_on_c, 0, 81, 45
2, 34944, Note_on_c, 0, 81, 0
2, 34944, Note_on_c, 0, 83, 45
2, 34968, Note_on_c, 0, 83, 0
2, 34968, Note_on_c, 0, 81, 45
2, 34992, Note_on_c, 0, 81, 0
2, 34992, Note_on_c, 0, 83, 45
2, 35016, Note_on_c, 0, 83, 0
2, 35016, Note_on_c, 0, 81, 45
2, 35040, Note_on_c, 0, 81, 0
2, 35040, Note_on_c, 0, 83, 45
2, 35064, Note_on_c, 0, 83, 0
2, 35064, Note_on_c, 0, 81, 45
2, 35088, Note_on_c, 0, 81, 0
2, 35088, Note_on_c, 0, 83, 45
2, 35112, Note_on_c, 0, 83, 0
2, 35112, Note_on_c, 0, 81, 45
2, 35136, Note_on_c, 0, 81, 0
2, 35136, Note_on_c, 0, 83, 45
2, 35160, Note_on_c, 0, 83, 0
2, 35160, Note_on_c, 0, 81, 45
2, 35184, Note_on_c, 0, 81, 0
2, 35184, Note_on_c, 0, 83, 45
2, 35208, Note_on_c, 0, 83, 0
2, 35208, Note_on_c, 0, 81, 45
2, 35232, Note_on_c, 0, 81, 0
2, 35232, Note_on_c, 0, 83, 45
2, 35256, Note_on_c, 0, 83, 0
2, 35256, Note_on_c, 0, 81, 45
2, 35280, Note_on_c, 0, 81, 0
2, 35280, Note_on_c, 0, 83, 45
2, 35304, Note_on_c, 0, 83, 0
2, 35304, Note_on_c, 0, 81, 45
2, 35328, Note_on_c, 0, 81, 0
2, 35328, Note_on_c, 0, 83, 45
2, 35352, Note_on_c, 0, 83, 0
2, 35352, Note_on_c, 0, 81, 45
2, 35376, Note_on_c, 0, 81, 0
2, 35376, Note_on_c, 0, 83, 45
2, 35400, Note_on_c, 0, 83, 0
2, 35400, Note_on_c, 0, 81, 45
2, 35424, Note_on_c, 0, 81, 0
2, 35424, Note_on_c, 0, 83, 45
2, 35448, Note_on_c, 0, 83, 0
2, 35448, Note_on_c, 0, 81, 45
2, 35472, Note_on_c, 0, 81, 0
2, 35472, Note_on_c, 0, 83, 45
2, 35496, Note_on_c, 0, 83, 0
2, 35496, Note_on_c, 0, 81, 45
2, 35520, Note_on_c, 0, 81, 0
2, 35520, Note_on_c, 0, 83, 45
2, 35544, Note_on_c, 0, 83, 0
2, 35544, Note_on_c, 0, 81, 45
2, 35568, Note_on_c, 0, 81, 0
2, 35568, Note_on_c, 0, 83, 45
2, 35592, Note_on_c, 0, 83, 0
2, 35592, Note_on_c, 0, 81, 45
2, 35616, Note_on_c, 0, 81, 0
2, 35616, Note_on_c, 0, 83, 45
2, 35640, Note_on_c, 0, 83, 0
2, 35640, Note_on_c, 0, 81, 45
2, 35664, Note_on_c, 0, 81, 0
2, 35664, Note_on_c, 0, 83, 45
2, 35688, Note_on_c, 0, 83, 0
2, 35688, Note_on_c, 0, 81, 45
2, 35712, Note_on_c, 0, 81, 0
2, 35712, Note_on_c, 0, 83, 45
2, 35736, Note_on_c, 0, 83, 0
2, 35736, Note_on_c, 0, 81, 45
2, 35760, Note_on_c, 0, 81, 0
2, 35760, Note_on_c, 0, 83, 45
2, 35784, Note_on_c, 0, 83, 0
2, 35784, Note_on_c, 0, 81, 45
2, 35808, Note_on_c, 0, 81, 0
2, 35808, Note_on_c, 0, 83, 45
2, 35832, Note_on_c, 0, 83, 0
2, 35832, Note_on_c, 0, 81, 45
2, 35856, Note_on_c, 0, 81, 0
2, 35856, Note_on_c, 0, 83, 45
2, 35880, Note_on_c, 0, 83, 0
2, 35880, Note_on_c, 0, 81, 45
2, 35904, Note_on_c, 0, 81, 0
2, 35904, Note_on_c, 0, 83, 45
2, 35928, Note_on_c, 0, 83, 0
2, 35928, Note_on_c, 0, 81, 45
2, 35952, Note_on_c, 0, 81, 0
2, 35952, Note_on_c, 0, 83, 45
2, 35976, Note_on_c, 0, 83, 0
2, 35976, Note_on_c, 0, 81, 45
2, 36000, Note_on_c, 0, 81, 0
2, 36000, Note_on_c, 0, 83, 45
2, 36024, Note_on_c, 0, 83, 0
2, 36024, Note_on_c, 0, 81, 45
2, 36048, Note_on_c, 0, 81, 0
2, 36048, Note_on_c, 0, 83, 45
2, 36072, Note_on_c, 0, 83, 0
2, 36072, Note_on_c, 0, 81, 45
2, 36096, Note_on_c, 0, 81, 0
2, 36096, Note_on_c, 0, 83, 45
2, 36120, Note_on_c, 0, 83, 0
2, 36120, Note_on_c, 0, 81, 45
2, 36144, Note_on_c, 0, 81, 0
2, 36144, Note_on_c, 0, 83, 45
2, 36168, Note_on_c, 0, 83, 0
2, 36168, Note_on_c, 0, 81, 45
2, 36192, Note_on_c, 0, 81, 0
2, 36192, Note_on_c, 0, 83, 45
2, 36216, Note_on_c, 0, 83, 0
2, 36216, Note_on_c, 0, 81, 45
2, 36240, Note_on_c, 0, 81, 0
2, 36240, Note_on_c, 0, 83, 45
2, 36264, Note_on_c, 0, 83, 0
2, 36264, Note_on_c, 0, 81, 45
2, 36288, Note_on_c, 0, 81, 0
2, 36288, Note_on_c, 0, 83, 45
2, 36312, Note_on_c, 0, 83, 0
2, 36312, Note_on_c, 0, 81, 45
2, 36336, Note_on_c, 0, 81, 0
2, 36336, Note_on_c, 0, 83, 45
2, 36360, Note_on_c, 0, 83, 0
2, 36360, Note_on_c, 0, 81, 46
2, 36384, Note_on_c, 0, 81, 0
2, 36384, Note_on_c, 0, 83, 47
2, 36408, Note_on_c, 0, 83, 0
2, 36408, Note_on_c, 0, 81, 48
2, 36432, Note_on_c, 0, 81, 0
2, 36432, Note_on_c, 0, 83, 49
2, 36456, Note_on_c, 0, 83, 0
2, 36456, Note_on_c, 0, 81, 50
2, 36480, Note_on_c, 0, 81, 0
2, 36480, Note_on_c, 0, 83, 51
2, 36504, Note_on_c, 0, 83, 0
2, 36504, Note_on_c, 0, 81, 52
2, 36528, Note_on_c, 0, 81, 0
2, 36528, Note_on_c, 0, 83, 53
2, 36552, Note_on_c, 0, 83, 0
2, 36552, Note_on_c, 0, 81, 54
2, 36576, Note_on_c, 0, 81, 0
2, 36576, Note_on_c, 0, 83, 55
2, 36600, Note_on_c, 0, 83, 0
2, 36600, Note_on_c, 0, 81, 56
2, 36624, Note_on_c, 0, 81, 0
2, 36624, Note_on_c, 0, 83, 57
2, 36648, Note_on_c, 0, 83, 0
2, 36648, Note_on_c, 0, 81, 58
2, 36672, Note_on_c, 0, 81, 0
2, 36672, Note_on_c, 0, 83, 59
2, 36696, Note_on_c, 0, 83, 0
2, 36696, Note_on_c, 0, 81, 60
2, 36720, Note_on_c, 0, 81, 0
2, 36720, Note_on_c, 0, 83, 61
2, 36744, Note_on_c, 0, 83, 0
2, 36744, Note_on_c, 0, 81, 62
2, 36768, Note_on_c, 0, 81, 0
2, 36768, Note_on_c, 0, 83, 63
2, 36792, Note_on_c, 0, 83, 0
2, 36792, Note_on_c, 0, 81, 64
2, 36816, Note_on_c, 0, 81, 0
2, 36816, Note_on_c, 0, 83, 65
2, 36840, Note_on_c, 0, 83, 0
2, 36840, Note_on_c, 0, 81, 66
2, 36864, Note_on_c, 0, 81, 0
2, 36864, Note_on_c, 0, 83, 67
2, 36888, Note_on_c, 0, 83, 0
2, 36888, Note_on_c, 0, 81, 68
2, 36912, Note_on_c, 0, 81, 0
2, 36912, Note_on_c, 0, 83, 69
2, 36936, Note_on_c, 0, 83, 0
2, 36936, Note_on_c, 0, 81, 70
2, 36960, Note_on_c, 0, 81, 0
2, 36960, Note_on_c, 0, 83, 71
2, 36984, Note_on_c, 0, 83, 0
2, 36984, Note_on_c, 0, 81, 72
2, 37008, Note_on_c, 0, 81, 0
2, 37008, Note_on_c, 0, 83, 73
2, 37032, Note_on_c, 0, 83, 0
2, 37032, Note_on_c, 0, 81, 74
2, 37056, Note_on_c, 0, 81, 0
2, 37056, Note_on_c, 0, 83, 75
2, 37080, Note_on_c, 0, 83, 0
2, 37080, Note_on_c, 0, 81, 76
2, 37104, Note_on_c, 0, 81, 0
2, 37104, Note_on_c, 0, 83, 77
2, 37128, Note_on_c, 0, 83, 0
2, 37128, Note_on_c, 0, 81, 78
2, 37152, Note_on_c, 0, 81, 0
2, 37152, Note_on_c, 0, 83, 79
2, 37176, Note_on_c, 0, 83, 0
2, 37176, Note_on_c, 0, 81, 80
2, 37200, Note_on_c, 0, 81, 0
2, 37200, Note_on_c, 0, 83, 81
2, 37224, Note_on_c, 0, 83, 0
2, 37224, Note_on_c, 0, 81, 82
2, 37248, Note_on_c, 0, 81, 0
2, 37248, Note_on_c, 0, 83, 83
2, 37280, Note_on_c, 0, 83, 0
2, 37280, Note_on_c, 0, 81, 84
2, 37312, Note_on_c, 0, 81, 0
2, 37312, Note_on_c, 0, 80, 85
2, 37344, Note_on_c, 0, 80, 0
2, 37344, Note_on_c, 0, 81, 86
2, 37438, Note_on_c, 0, 81, 0
2, 37440, Note_on_c, 0, 69, 92
2, 37488, Note_on_c, 0, 69, 0
2, 37632, Note_on_c, 0, 66, 92
2, 37632, Note_on_c, 0, 74, 92
2, 37824, Note_on_c, 0, 66, 0
2, 37824, Note_on_c, 0, 74, 0
2, 37824, Note_on_c, 0, 78, 92
2, 37984, Note_on_c, 0, 78, 0
2, 38016, Note_on_c, 0, 69, 92
2, 38016, Note_on_c, 0, 74, 92
2, 38064, Note_on_c, 0, 69, 0
2, 38064, Note_on_c, 0, 74, 0
2, 38208, Note_on_c, 0, 76, 92
2, 38208, Note_on_c, 0, 81, 92
2, 38256, Note_on_c, 0, 76, 0
2, 38256, Note_on_c, 0, 81, 0
2, 38400, Note_on_c, 0, 79, 92
2, 38400, Note_on_c, 0, 81, 92
2, 38448, Note_on_c, 0, 79, 0
2, 38448, Note_on_c, 0, 81, 0
2, 38592, Note_on_c, 0, 76, 92
2, 38592, Note_on_c, 0, 81, 92
2, 38640, Note_on_c, 0, 76, 0
2, 38640, Note_on_c, 0, 81, 0
2, 38784, Note_on_c, 0, 78, 92
2, 38784, Note_on_c, 0, 81, 92
2, 38976, Note_on_c, 0, 78, 0
2, 38976, Note_on_c, 0, 81, 0
2, 38976, Note_on_c, 0, 74, 92
2, 38976, Note_on_c, 0, 83, 92
2, 39136, Note_on_c, 0, 74, 0
2, 39136, Note_on_c, 0, 83, 0
2, 39168, Note_on_c, 0, 71, 92
2, 39168, Note_on_c, 0, 80, 92
2, 39216, Note_on_c, 0, 71, 0
2, 39216, Note_on_c, 0, 80, 0
2, 39360, Note_on_c, 0, 76, 92
2, 39360, Note_on_c, 0, 81, 92
2, 39552, Note_on_c, 0, 76, 0
2, 39552, Note_on_c, 0, 81, 0
2, 39552, Note_on_c, 0, 73, 92
2, 39712, Note_on_c, 0, 73, 0
2, 39744, Note_on_c, 0, 69, 45
2, 39840, Note_on_c, 0, 69, 0
2, 39840, Note_on_c, 0, 71, 45
2, 39934, Note_on_c, 0, 71, 0
2, 39936, Note_on_c, 0, 73, 45
2, 39984, Note_on_c, 0, 73, 0
2, 40128, Note_on_c, 0, 69, 45
2, 40224, Note_on_c, 0, 69, 0
2, 40224, Note_on_c, 0, 71, 45
2, 40320, Note_on_c, 0, 71, 0
2, 40320, Note_on_c, 0, 73, 45
2, 40416, Note_on_c, 0, 73, 0
2, 40416, Note_on_c, 0, 74, 45
2, 40510, Note_on_c, 0, 74, 0
2, 40512, Note_on_c, 0, 76, 45
2, 40560, Note_on_c, 0, 76, 0
2, 40704, Note_on_c, 0, 73, 52
2, 40800, Note_on_c, 0, 73, 0
2, 40800, Note_on_c, 0, 74, 56
2, 40896, Note_on_c, 0, 74, 0
2, 40896, Note_on_c, 0, 76, 60
2, 40992, Note_on_c, 0, 76, 0
2, 40992, Note_on_c, 0, 78, 64
2, 41086, Note_on_c, 0, 78, 0
2, 41088, Note_on_c, 0, 79, 68
2, 41136, Note_on_c, 0, 79, 0
2, 41280, Note_on_c, 0, 76, 76
2, 41376, Note_on_c, 0, 76, 0
2, 41376, Note_on_c, 0, 78, 80
2, 41472, Note_on_c, 0, 78, 0
2, 41472, Note_on_c, 0, 79, 84
2, 41568, Note_on_c, 0, 79, 0
2, 41568, Note_on_c, 0, 81, 88
2, 41662, Note_on_c, 0, 81, 0
2, 41664, Note_on_c, 0, 83, 92
2, 42192, Note_on_c, 0, 83, 0
2, 42240, Note_on_c, 0, 81, 92
2, 42432, Note_on_c, 0, 81, 0
2, 42432, Note_on_c, 0, 79, 92
2, 42624, Note_on_c, 0, 79, 0
2, 42624, Note_on_c, 0, 78, 92
2, 42784, Note_on_c, 0, 78, 0
2, 42816, Note_on_c, 0, 76, 92
2, 43008, Note_on_c, 0, 76, 0
2, 43008, Note_on_c, 0, 79, 92
2, 43168, Note_on_c, 0, 79, 0
2, 43200, Note_on_c, 0, 67, 92
2, 43200, Note_on_c, 0, 73, 92
2, 43248, Note_on_c, 0, 67, 0
2, 43248, Note_on_c, 0, 73, 0
2, 43392, Note_on_c, 0, 66, 92
2, 43392, Note_on_c, 0, 74, 92
2, 43552, Note_on_c, 0, 66, 0
2, 43552, Note_on_c, 0, 74, 0
2, 43776, Note_on_c, 0, 86, 45
2, 44160, Note_on_c, 0, 86, 0
2, 44160, Note_on_c, 0, 85, 45
2, 44320, Note_on_c, 0, 85, 0
2, 44352, Note_on_c, 0, 86, 45
2, 44400, Note_on_c, 0, 86, 0
2, 44544, Note_on_c, 0, 81, 45
2, 44928, Note_on_c, 0, 81, 0
2, 44928, Note_on_c, 0, 78, 45
2, 45088, Note_on_c, 0, 78, 0
2, 45120, Note_on_c, 0, 81, 45
2, 45216, Note_on_c, 0, 81, 0
2, 45216, Note_on_c, 0, 79, 45
2, 45310, Note_on_c, 0, 79, 0
2, 45312, Note_on_c, 0, 79, 45
2, 45408, Note_on_c, 0, 79, 0
2, 45408, Note_on_c, 0, 78, 45
2, 45504, Note_on_c, 0, 78, 0
2, 45504, Note_on_c, 0, 79, 45
2, 45600, Note_on_c, 0, 79, 0
2, 45600, Note_on_c, 0, 83, 45
2, 45694, Note_on_c, 0, 83, 0
2, 45696, Note_on_c, 0, 81, 45
2, 46032, Note_on_c, 0, 81, 0
2, 46080, Note_on_c, 0, 86, 45
2, 46464, Note_on_c, 0, 86, 0
2, 46464, Note_on_c, 0, 85, 45
2, 46624, Note_on_c, 0, 85, 0
2, 46656, Note_on_c, 0, 86, 45
2, 46704, Note_on_c, 0, 86, 0
2, 46848, Note_on_c, 0, 81, 45
2, 47232, Note_on_c, 0, 81, 0
2, 47232, Note_on_c, 0, 78, 45
2, 47392, Note_on_c, 0, 78, 0
2, 47424, Note_on_c, 0, 81, 45
2, 47520, Note_on_c, 0, 81, 0
2, 47520, Note_on_c, 0, 79, 45
2, 47614, Note_on_c, 0, 79, 0
2, 47616, Note_on_c, 0, 79, 45
2, 47712, Note_on_c, 0, 79, 0
2, 47712, Note_on_c, 0, 78, 45
2, 47808, Note_on_c, 0, 78, 0
2, 47808, Note_on_c, 0, 79, 45
2, 47904, Note_on_c, 0, 79, 0
2, 47904, Note_on_c, 0, 76, 45
2, 47998, Note_on_c, 0, 76, 0
2, 48000, Note_on_c, 0, 74, 45
2, 48336, Note_on_c, 0, 74, 0
2, 48384, Note_on_c, 0, 86, 45
2, 48768, Note_on_c, 0, 86, 0
2, 48768, Note_on_c, 0, 85, 45
2, 48928, Note_on_c, 0, 85, 0
2, 48960, Note_on_c, 0, 86, 45
2, 49008, Note_on_c, 0, 86, 0
2, 49152, Note_on_c, 0, 81, 45
2, 49536, Note_on_c, 0, 81, 0
2, 49536, Note_on_c, 0, 78, 45
2, 49696, Note_on_c, 0, 78, 0
2, 49728, Note_on_c, 0, 81, 45
2, 49824, Note_on_c, 0, 81, 0
2, 49824, Note_on_c, 0, 79, 45
2, 49918, Note_on_c, 0, 79, 0
2, 49920, Note_on_c, 0, 79, 45
2, 50016, Note_on_c, 0, 79, 0
2, 50016, Note_on_c, 0, 78, 45
2, 50112, Note_on_c, 0, 78, 0
2, 50112, Note_on_c, 0, 79, 45
2, 50208, Note_on_c, 0, 79, 0
2, 50208, Note_on_c, 0, 83, 45
2, 50302, Note_on_c, 0, 83, 0
2, 50304, Note_on_c, 0, 81, 45
2, 50640, Note_on_c, 0, 81, 0
2, 50688, Note_on_c, 0, 86, 45
2, 51072, Note_on_c, 0, 86, 0
2, 51072, Note_on_c, 0, 85, 45
2, 51232, Note_on_c, 0, 85, 0
2, 51264, Note_on_c, 0, 86, 45
2, 51312, Note_on_c, 0, 86, 0
2, 51456, Note_on_c, 0, 81, 45
2, 51840, Note_on_c, 0, 81, 0
2, 51840, Note_on_c, 0, 78, 45
2, 52000, Note_on_c, 0, 78, 0
2, 52032, Note_on_c, 0, 81, 45
2, 52128, Note_on_c, 0, 81, 0
2, 52128, Note_on_c, 0, 79, 45
2, 52222, Note_on_c, 0, 79, 0
2, 52224, Note_on_c, 0, 79, 45
2, 52320, Note_on_c, 0, 79, 0
2, 52320, Note_on_c, 0, 78, 45
2, 52416, Note_on_c, 0, 78, 0
2, 52416, Note_on_c, 0, 79, 45
2, 52512, Note_on_c, 0, 79, 0
2, 52512, Note_on_c, 0, 76, 45
2, 52606, Note_on_c, 0, 76, 0
2, 52608, Note_on_c, 0, 74, 45
2, 52944, Note_on_c, 0, 74, 0
2, 52992, Note_on_c, 0, 74, 92
2, 53040, Note_on_c, 0, 74, 0
2, 53184, Note_on_c, 0, 79, 92
2, 53280, Note_on_c, 0, 79, 0
2, 53280, Note_on_c, 0, 78, 92
2, 53376, Note_on_c, 0, 78, 0
2, 53376, Note_on_c, 0, 79, 92
2, 53472, Note_on_c, 0, 79, 0
2, 53472, Note_on_c, 0, 81, 92
2, 53568, Note_on_c, 0, 81, 0
2, 53568, Note_on_c, 0, 83, 92
2, 53664, Note_on_c, 0, 83, 0
2, 53664, Note_on_c, 0, 81, 92
2, 53758, Note_on_c, 0, 81, 0
2, 53760, Note_on_c, 0, 79, 92
2, 53856, Note_on_c, 0, 79, 0
2, 53856, Note_on_c, 0, 78, 92
2, 53952, Note_on_c, 0, 78, 0
2, 53952, Note_on_c, 0, 79, 92
2, 54048, Note_on_c, 0, 79, 0
2, 54048, Note_on_c, 0, 81, 92
2, 54144, Note_on_c, 0, 81, 0
2, 54144, Note_on_c, 0, 83, 92
2, 54240, Note_on_c, 0, 83, 0
2, 54240, Note_on_c, 0, 81, 92
2, 54334, Note_on_c, 0, 81, 0
2, 54336, Note_on_c, 0, 79, 92
2, 54432, Note_on_c, 0, 79, 0
2, 54432, Note_on_c, 0, 78, 92
2, 54528, Note_on_c, 0, 78, 0
2, 54528, Note_on_c, 0, 79, 92
2, 54624, Note_on_c, 0, 79, 0
2, 54624, Note_on_c, 0, 81, 92
2, 54720, Note_on_c, 0, 81, 0
2, 54720, Note_on_c, 0, 83, 92
2, 54816, Note_on_c, 0, 83, 0
2, 54816, Note_on_c, 0, 81, 92
2, 54910, Note_on_c, 0, 81, 0
2, 54912, Note_on_c, 0, 79, 92
2, 55072, Note_on_c, 0, 79, 0
2, 55488, Note_on_c, 0, 74, 45
2, 55488, Note_on_c, 0, 83, 45
2, 55536, Note_on_c, 0, 74, 0
2, 55536, Note_on_c, 0, 83, 0
2, 55680, Note_on_c, 0, 74, 45
2, 55680, Note_on_c, 0, 83, 45
2, 55728, Note_on_c, 0, 74, 0
2, 55728, Note_on_c, 0, 83, 0
2, 55872, Note_on_c, 0, 74, 45
2, 55872, Note_on_c, 0, 83, 45
2, 55920, Note_on_c, 0, 74, 0
2, 55920, Note_on_c, 0, 83, 0
2, 56064, Note_on_c, 0, 78, 45
2, 56064, Note_on_c, 0, 81, 45
2, 56400, Note_on_c, 0, 78, 0
2, 56400, Note_on_c, 0, 81, 0
2, 56448, Note_on_c, 0, 78, 45
2, 56544, Note_on_c, 0, 78, 0
2, 56544, Note_on_c, 0, 74, 45
2, 56638, Note_on_c, 0, 74, 0
2, 56640, Note_on_c, 0, 73, 45
2, 56688, Note_on_c, 0, 73, 0
2, 56832, Note_on_c, 0, 73, 45
2, 56880, Note_on_c, 0, 73, 0
2, 57024, Note_on_c, 0, 73, 45
2, 57072, Note_on_c, 0, 73, 0
2, 57216, Note_on_c, 0, 74, 45
2, 57376, Note_on_c, 0, 74, 0
2, 57600, Note_on_c, 0, 69, 92
2, 57648, Note_on_c, 0, 69, 0
2, 57792, Note_on_c, 0, 66, 92
2, 57792, Note_on_c, 0, 74, 92
2, 57984, Note_on_c, 0, 66, 0
2, 57984, Note_on_c, 0, 74, 0
2, 57984, Note_on_c, 0, 78, 92
2, 58144, Note_on_c, 0, 78, 0
2, 58176, Note_on_c, 0, 69, 92
2, 58176, Note_on_c, 0, 74, 92
2, 58224, Note_on_c, 0, 69, 0
2, 58224, Note_on_c, 0, 74, 0
2, 58368, Note_on_c, 0, 76, 92
2, 58368, Note_on_c, 0, 81, 92
2, 58416, Note_on_c, 0, 76, 0
2, 58416, Note_on_c, 0, 81, 0
2, 58560, Note_on_c, 0, 79, 92
2, 58560, Note_on_c, 0, 81, 92
2, 58608, Note_on_c, 0, 79, 0
2, 58608, Note_on_c, 0, 81, 0
2, 58752, Note_on_c, 0, 76, 92
2, 58752, Note_on_c, 0, 81, 92
2, 58800, Note_on_c, 0, 76, 0
2, 58800, Note_on_c, 0, 81, 0
2, 58944, Note_on_c, 0, 78, 92
2, 58944, Note_on_c, 0, 81, 92
2, 59136, Note_on_c, 0, 78, 0
2, 59136, Note_on_c, 0, 81, 0
2, 59136, Note_on_c, 0, 74, 92
2, 59136, Note_on_c, 0, 83, 92
2, 59296, Note_on_c, 0, 74, 0
2, 59296, Note_on_c, 0, 83, 0
2, 59328, Note_on_c, 0, 71, 92
2, 59328, Note_on_c, 0, 80, 92
2, 59376, Note_on_c, 0, 71, 0
2, 59376, Note_on_c, 0, 80, 0
2, 59520, Note_on_c, 0, 76, 92
2, 59520, Note_on_c, 0, 81, 92
2, 59712, Note_on_c, 0, 76, 0
2, 59712, Note_on_c, 0, 81, 0
2, 59712, Note_on_c, 0, 73, 92
2, 59872, Note_on_c, 0, 73, 0
2, 59904, Note_on_c, 0, 69, 45
2, 60000, Note_on_c, 0, 69, 0
2, 60000, Note_on_c, 0, 71, 45
2, 60094, Note_on_c, 0, 71, 0
2, 60096, Note_on_c, 0, 73, 45
2, 60144, Note_on_c, 0, 73, 0
2, 60288, Note_on_c, 0, 69, 45
2, 60384, Note_on_c, 0, 69, 0
2, 60384, Note_on_c, 0, 71, 45
2, 60480, Note_on_c, 0, 71, 0
2, 60480, Note_on_c, 0, 73, 45
2, 60576, Note_on_c, 0, 73, 0
2, 60576, Note_on_c, 0, 74, 45
2, 60670, Note_on_c, 0, 74, 0
2, 60672, Note_on_c, 0, 76, 45
2, 60720, Note_on_c, 0, 76, 0
2, 60864, Note_on_c, 0, 73, 52
2, 60960, Note_on_c, 0, 73, 0
2, 60960, Note_on_c, 0, 74, 56
2, 61056, Note_on_c, 0, 74, 0
2, 61056, Note_on_c, 0, 76, 60
2, 61152, Note_on_c, 0, 76, 0
2, 61152, Note_on_c, 0, 78, 64
2, 61246, Note_on_c, 0, 78, 0
2, 61248, Note_on_c, 0, 79, 68
2, 61296, Note_on_c, 0, 79, 0
2, 61440, Note_on_c, 0, 76, 76
2, 61536, Note_on_c, 0, 76, 0
2, 61536, Note_on_c, 0, 78, 80
2, 61632, Note_on_c, 0, 78, 0
2, 61632, Note_on_c, 0, 79, 84
2, 61728, Note_on_c, 0, 79, 0
2, 61728, Note_on_c, 0, 81, 88
2, 61822, Note_on_c, 0, 81, 0
2, 61824, Note_on_c, 0, 83, 92
2, 62352, Note_on_c, 0, 83, 0
2, 62400, Note_on_c, 0, 81, 92
2, 62592, Note_on_c, 0, 81, 0
2, 62592, Note_on_c, 0, 79, 92
2, 62784, Note_on_c, 0, 79, 0
2, 62784, Note_on_c, 0, 78, 92
2, 62944, Note_on_c, 0, 78, 0
2, 62976, Note_on_c, 0, 76, 92
2, 63168, Note_on_c, 0, 76, 0
2, 63168, Note_on_c, 0, 79, 92
2, 63328, Note_on_c, 0, 79, 0
2, 63360, Note_on_c, 0, 67, 92
2, 63360, Note_on_c, 0, 73, 92
2, 63408, Note_on_c, 0, 67, 0
2, 63408, Note_on_c, 0, 73, 0
2, 63552, Note_on_c, 0, 66, 92
2, 63552, Note_on_c, 0, 74, 92
2, 63712, Note_on_c, 0, 66, 0
2, 63712, Note_on_c, 0, 74, 0
2, 64512, Note_on_c, 0, 73, 92
2, 64512, Note_on_c, 0, 82, 92
2, 64560, Note_on_c, 0, 73, 0
2, 64560, Note_on_c, 0, 82, 0
2, 64704, Note_on_c, 0, 74, 92
2, 64704, Note_on_c, 0, 83, 92
2, 64896, Note_on_c, 0, 74, 0
2, 64896, Note_on_c, 0, 83, 0
2, 64896, Note_on_c, 0, 78, 92
2, 64896, Note_on_c, 0, 86, 92
2, 65056, Note_on_c, 0, 78, 0
2, 65056, Note_on_c, 0, 86, 0
2, 65664, Note_on_c, 0, 71, 92
2, 65664, Note_on_c, 0, 80, 92
2, 65712, Note_on_c, 0, 71, 0
2, 65712, Note_on_c, 0, 80, 0
2, 65856, Note_on_c, 0, 73, 92
2, 65856, Note_on_c, 0, 81, 92
2, 66048, Note_on_c, 0, 73, 0
2, 66048, Note_on_c, 0, 81, 0
2, 66048, Note_on_c, 0, 76, 92
2, 66048, Note_on_c, 0, 85, 92
2, 66208, Note_on_c, 0, 76, 0
2, 66208, Note_on_c, 0, 85, 0
2, 66240, Note_on_c, 0, 81, 45
2, 66288, Note_on_c, 0, 81, 0
2, 66432, Note_on_c, 0, 88, 45
2, 66624, Note_on_c, 0, 88, 0
2, 66624, Note_on_c, 0, 85, 45
2, 66816, Note_on_c, 0, 85, 0
2, 66816, Note_on_c, 0, 81, 45
2, 66976, Note_on_c, 0, 81, 0
2, 67008, Note_on_c, 0, 80, 45
2, 67200, Note_on_c, 0, 80, 0
2, 67200, Note_on_c, 0, 78, 45
2, 67360, Note_on_c, 0, 78, 0
2, 67392, Note_on_c, 0, 83, 45
2, 67392, Note_on_c, 0, 86, 45
2, 67776, Note_on_c, 0, 83, 0
2, 67776, Note_on_c, 0, 86, 0
2, 67776, Note_on_c, 0, 81, 45
2, 67776, Note_on_c, 0, 85, 45
2, 67936, Note_on_c, 0, 81, 0
2, 67936, Note_on_c, 0, 85, 0
2, 67968, Note_on_c, 0, 80, 45
2, 67968, Note_on_c, 0, 83, 45
2, 68128, Note_on_c, 0, 83, 0
2, 68160, Note_on_c, 0, 84, 45
2, 68352, Note_on_c, 0, 80, 0
2, 68352, Note_on_c, 0, 84, 0
2, 68352, Note_on_c, 0, 81, 45
2, 68352, Note_on_c, 0, 85, 45
2, 68512, Note_on_c, 0, 81, 0
2, 68512, Note_on_c, 0, 85, 0
2, 68544, Note_on_c, 0, 81, 45
2, 68592, Note_on_c, 0, 81, 0
2, 68736, Note_on_c, 0, 76, 45
2, 68736, Note_on_c, 0, 88, 45
2, 68928, Note_on_c, 0, 76, 0
2, 68928, Note_on_c, 0, 88, 0
2, 68928, Note_on_c, 0, 85, 45
2, 69120, Note_on_c, 0, 85, 0
2, 69120, Note_on_c, 0, 81, 45
2, 69280, Note_on_c, 0, 81, 0
2, 69312, Note_on_c, 0, 76, 45
2, 69312, Note_on_c, 0, 80, 45
2, 69504, Note_on_c, 0, 76, 0
2, 69504, Note_on_c, 0, 80, 0
2, 69504, Note_on_c, 0, 74, 45
2, 69504, Note_on_c, 0, 78, 45
2, 69664, Note_on_c, 0, 74, 0
2, 69664, Note_on_c, 0, 78, 0
2, 69696, Note_on_c, 0, 78, 45
2, 69696, Note_on_c, 0, 86, 45
2, 70080, Note_on_c, 0, 78, 0
2, 70080, Note_on_c, 0, 86, 0
2, 70080, Note_on_c, 0, 83, 45
2, 70272, Note_on_c, 0, 83, 0
2, 70272, Note_on_c, 0, 80, 45
2, 70432, Note_on_c, 0, 80, 0
2, 70464, Note_on_c, 0, 83, 45
2, 70488, Note_on_c, 0, 83, 0
2, 70488, Note_on_c, 0, 81, 45
2, 70512, Note_on_c, 0, 81, 0
2, 70512, Note_on_c, 0, 83, 45
2, 70536, Note_on_c, 0, 83, 0
2, 70536, Note_on_c, 0, 81, 45
2, 70560, Note_on_c, 0, 81, 0
2, 70560, Note_on_c, 0, 83, 45
2, 70584, Note_on_c, 0, 83, 0
2, 70584, Note_on_c, 0, 81, 45
2, 70608, Note_on_c, 0, 81, 0
2, 70608, Note_on_c, 0, 83, 45
2, 70632, Note_on_c, 0, 83, 0
2, 70632, Note_on_c, 0, 81, 45
2, 70656, Note_on_c, 0, 81, 0
2, 70656, Note_on_c, 0, 83, 45
2, 70680, Note_on_c, 0, 83, 0
2, 70680, Note_on_c, 0, 81, 45
2, 70704, Note_on_c, 0, 81, 0
2, 70704, Note_on_c, 0, 83, 45
2, 70728, Note_on_c, 0, 83, 0
2, 70728, Note_on_c, 0, 81, 45
2, 70752, Note_on_c, 0, 81, 0
2, 70752, Note_on_c, 0, 83, 45
2, 70776, Note_on_c, 0, 83, 0
2, 70776, Note_on_c, 0, 81, 45
2, 70800, Note_on_c, 0, 81, 0
2, 70800, Note_on_c, 0, 83, 45
2, 70824, Note_on_c, 0, 83, 0
2, 70824, Note_on_c, 0, 81, 45
2, 70848, Note_on_c, 0, 81, 0
2, 70848, Note_on_c, 0, 83, 45
2, 70872, Note_on_c, 0, 83, 0
2, 70872, Note_on_c, 0, 81, 45
2, 70896, Note_on_c, 0, 81, 0
2, 70896, Note_on_c, 0, 83, 45
2, 70920, Note_on_c, 0, 83, 0
2, 70920, Note_on_c, 0, 81, 45
2, 70944, Note_on_c, 0, 81, 0
2, 70944, Note_on_c, 0, 83, 45
2, 70968, Note_on_c, 0, 83, 0
2, 70968, Note_on_c, 0, 81, 45
2, 70992, Note_on_c, 0, 81, 0
2, 70992, Note_on_c, 0, 83, 45
2, 71016, Note_on_c, 0, 83, 0
2, 71016, Note_on_c, 0, 81, 45
2, 71040, Note_on_c, 0, 81, 0
2, 71040, Note_on_c, 0, 83, 45
2, 71064, Note_on_c, 0, 83, 0
2, 71064, Note_on_c, 0, 81, 45
2, 71088, Note_on_c, 0, 81, 0
2, 71088, Note_on_c, 0, 83, 45
2, 71112, Note_on_c, 0, 83, 0
2, 71112, Note_on_c, 0, 81, 45
2, 71136, Note_on_c, 0, 81, 0
2, 71136, Note_on_c, 0, 83, 45
2, 71160, Note_on_c, 0, 83, 0
2, 71160, Note_on_c, 0, 81, 45
2, 71184, Note_on_c, 0, 81, 0
2, 71184, Note_on_c, 0, 83, 45
2, 71208, Note_on_c, 0, 83, 0
2, 71208, Note_on_c, 0, 81, 45
2, 71232, Note_on_c, 0, 81, 0
2, 71232, Note_on_c, 0, 83, 45
2, 71256, Note_on_c, 0, 83, 0
2, 71256, Note_on_c, 0, 81, 45
2, 71280, Note_on_c, 0, 81, 0
2, 71280, Note_on_c, 0, 83, 45
2, 71304, Note_on_c, 0, 83, 0
2, 71304, Note_on_c, 0, 81, 45
2, 71328, Note_on_c, 0, 81, 0
2, 71328, Note_on_c, 0, 83, 45
2, 71352, Note_on_c, 0, 83, 0
2, 71352, Note_on_c, 0, 81, 45
2, 71376, Note_on_c, 0, 81, 0
2, 71376, Note_on_c, 0, 83, 45
2, 71400, Note_on_c, 0, 83, 0
2, 71400, Note_on_c, 0, 81, 45
2, 71424, Note_on_c, 0, 81, 0
2, 71424, Note_on_c, 0, 83, 45
2, 71448, Note_on_c, 0, 83, 0
2, 71448, Note_on_c, 0, 81, 45
2, 71472, Note_on_c, 0, 81, 0
2, 71472, Note_on_c, 0, 83, 45
2, 71496, Note_on_c, 0, 83, 0
2, 71496, Note_on_c, 0, 81, 45
2, 71520, Note_on_c, 0, 81, 0
2, 71520, Note_on_c, 0, 83, 45
2, 71544, Note_on_c, 0, 83, 0
2, 71544, Note_on_c, 0, 81, 45
2, 71568, Note_on_c, 0, 81, 0
2, 71568, Note_on_c, 0, 83, 45
2, 71592, Note_on_c, 0, 83, 0
2, 71592, Note_on_c, 0, 81, 45
2, 71616, Note_on_c, 0, 81, 0
2, 71616, Note_on_c, 0, 83, 45
2, 71640, Note_on_c, 0, 83, 0
2, 71640, Note_on_c, 0, 81, 45
2, 71664, Note_on_c, 0, 81, 0
2, 71664, Note_on_c, 0, 83, 45
2, 71688, Note_on_c, 0, 83, 0
2, 71688, Note_on_c, 0, 81, 45
2, 71712, Note_on_c, 0, 81, 0
2, 71712, Note_on_c, 0, 83, 45
2, 71736, Note_on_c, 0, 83, 0
2, 71736, Note_on_c, 0, 81, 45
2, 71760, Note_on_c, 0, 81, 0
2, 71760, Note_on_c, 0, 83, 45
2, 71784, Note_on_c, 0, 83, 0
2, 71784, Note_on_c, 0, 81, 45
2, 71808, Note_on_c, 0, 81, 0
2, 71808, Note_on_c, 0, 83, 45
2, 71832, Note_on_c, 0, 83, 0
2, 71832, Note_on_c, 0, 81, 45
2, 71856, Note_on_c, 0, 81, 0
2, 71856, Note_on_c, 0, 83, 45
2, 71880, Note_on_c, 0, 83, 0
2, 71880, Note_on_c, 0, 81, 45
2, 71904, Note_on_c, 0, 81, 0
2, 71904, Note_on_c, 0, 83, 45
2, 71928, Note_on_c, 0, 83, 0
2, 71928, Note_on_c, 0, 81, 45
2, 71952, Note_on_c, 0, 81, 0
2, 71952, Note_on_c, 0, 83, 45
2, 71976, Note_on_c, 0, 83, 0
2, 71976, Note_on_c, 0, 81, 45
2, 72000, Note_on_c, 0, 81, 0
2, 72000, Note_on_c, 0, 83, 45
2, 72024, Note_on_c, 0, 83, 0
2, 72024, Note_on_c, 0, 81, 45
2, 72048, Note_on_c, 0, 81, 0
2, 72048, Note_on_c, 0, 83, 45
2, 72072, Note_on_c, 0, 83, 0
2, 72072, Note_on_c, 0, 81, 46
2, 72096, Note_on_c, 0, 81, 0
2, 72096, Note_on_c, 0, 83, 47
2, 72120, Note_on_c, 0, 83, 0
2, 72120, Note_on_c, 0, 81, 48
2, 72144, Note_on_c, 0, 81, 0
2, 72144, Note_on_c, 0, 83, 49
2, 72168, Note_on_c, 0, 83, 0
2, 72168, Note_on_c, 0, 81, 50
2, 72192, Note_on_c, 0, 81, 0
2, 72192, Note_on_c, 0, 83, 51
2, 72216, Note_on_c, 0, 83, 0
2, 72216, Note_on_c, 0, 81, 52
2, 72240, Note_on_c, 0, 81, 0
2, 72240, Note_on_c, 0, 83, 53
2, 72264, Note_on_c, 0, 83, 0
2, 72264, Note_on_c, 0, 81, 54
2, 72288, Note_on_c, 0, 81, 0
2, 72288, Note_on_c, 0, 83, 55
2, 72312, Note_on_c, 0, 83, 0
2, 72312, Note_on_c, 0, 81, 56
2, 72336, Note_on_c, 0, 81, 0
2, 72336, Note_on_c, 0, 83, 57
2, 72360, Note_on_c, 0, 83, 0
2, 72360, Note_on_c, 0, 81, 58
2, 72384, Note_on_c, 0, 81, 0
2, 72384, Note_on_c, 0, 83, 59
2, 72408, Note_on_c, 0, 83, 0
2, 72408, Note_on_c, 0, 81, 60
2, 72432, Note_on_c, 0, 81, 0
2, 72432, Note_on_c, 0, 83, 61
2, 72456, Note_on_c, 0, 83, 0
2, 72456, Note_on_c, 0, 81, 62
2, 72480, Note_on_c, 0, 81, 0
2, 72480, Note_on_c, 0, 83, 63
2, 72504, Note_on_c, 0, 83, 0
2, 72504, Note_on_c, 0, 81, 64
2, 72528, Note_on_c, 0, 81, 0
2, 72528, Note_on_c, 0, 83, 65
2, 72552, Note_on_c, 0, 83, 0
2, 72552, Note_on_c, 0, 81, 66
2, 72576, Note_on_c, 0, 81, 0
2, 72576, Note_on_c, 0, 83, 67
2, 72600, Note_on_c, 0, 83, 0
2, 72600, Note_on_c, 0, 81, 68
2, 72624, Note_on_c, 0, 81, 0
2, 72624, Note_on_c, 0, 83, 69
2, 72648, Note_on_c, 0, 83, 0
2, 72648, Note_on_c, 0, 81, 70
2, 72672, Note_on_c, 0, 81, 0
2, 72672, Note_on_c, 0, 83, 71
2, 72696, Note_on_c, 0, 83, 0
2, 72696, Note_on_c, 0, 81, 72
2, 72720, Note_on_c, 0, 81, 0
2, 72720, Note_on_c, 0, 83, 73
2, 72744, Note_on_c, 0, 83, 0
2, 72744, Note_on_c, 0, 81, 74
2, 72768, Note_on_c, 0, 81, 0
2, 72768, Note_on_c, 0, 83, 75
2, 72792, Note_on_c, 0, 83, 0
2, 72792, Note_on_c, 0, 81, 76
2, 72816, Note_on_c, 0, 81, 0
2, 72816, Note_on_c, 0, 83, 77
2, 72840, Note_on_c, 0, 83, 0
2, 72840, Note_on_c, 0, 81, 78
2, 72864, Note_on_c, 0, 81, 0
2, 72864, Note_on_c, 0, 83, 79
2, 72888, Note_on_c, 0, 83, 0
2, 72888, Note_on_c, 0, 81, 80
2, 72912, Note_on_c, 0, 81, 0
2, 72912, Note_on_c, 0, 83, 81
2, 72936, Note_on_c, 0, 83, 0
2, 72936, Note_on_c, 0, 81, 82
2, 72960, Note_on_c, 0, 81, 0
2, 72960, Note_on_c, 0, 83, 83
2, 72992, Note_on_c, 0, 83, 0
2, 72992, Note_on_c, 0, 81, 84
2, 73024, Note_on_c, 0, 81, 0
2, 73024, Note_on_c, 0, 80, 85
2, 73056, Note_on_c, 0, 80, 0
2, 73056, Note_on_c, 0, 81, 86
2, 73150, Note_on_c, 0, 81, 0
2, 73152, Note_on_c, 0, 69, 92
2, 73200, Note_on_c, 0, 69, 0
2, 73344, Note_on_c, 0, 66, 92
2, 73344, Note_on_c, 0, 74, 92
2, 73536, Note_on_c, 0, 66, 0
2, 73536, Note_on_c, 0, 74, 0
2, 73536, Note_on_c, 0, 78, 92
2, 73696, Note_on_c, 0, 78, 0
2, 73728, Note_on_c, 0, 69, 92
2, 73728, Note_on_c, 0, 74, 92
2, 73776, Note_on_c, 0, 69, 0
2, 73776, Note_on_c, 0, 74, 0
2, 73920, Note_on_c, 0, 76, 92
2, 73920, Note_on_c, 0, 81, 92
2, 73968, Note_on_c, 0, 76, 0
2, 73968, Note_on_c, 0, 81, 0
2, 74112, Note_on_c, 0, 79, 92
2, 74112, Note_on_c, 0, 81, 92
2, 74160, Note_on_c, 0, 79, 0
2, 74160, Note_on_c, 0, 81, 0
2, 74304, Note_on_c, 0, 76, 92
2, 74304, Note_on_c, 0, 81, 92
2, 74352, Note_on_c, 0, 76, 0
2, 74352, Note_on_c, 0, 81, 0
2, 74496, Note_on_c, 0, 78, 92
2, 74496, Note_on_c, 0, 81, 92
2, 74688, Note_on_c, 0, 78, 0
2, 74688, Note_on_c, 0, 81, 0
2, 74688, Note_on_c, 0, 74, 92
2, 74688, Note_on_c, 0, 83, 92
2, 74848, Note_on_c, 0, 74, 0
2, 74848, Note_on_c, 0, 83, 0
2, 74880, Note_on_c, 0, 71, 92
2, 74880, Note_on_c, 0, 80, 92
2, 74928, Note_on_c, 0, 71, 0
2, 74928, Note_on_c, 0, 80, 0
2, 75072, Note_on_c, 0, 76, 92
2, 75072, Note_on_c, 0, 81, 92
2, 75264, Note_on_c, 0, 76, 0
2, 75264, Note_on_c, 0, 81, 0
2, 75264, Note_on_c, 0, 73, 92
2, 75424, Note_on_c, 0, 73, 0
2, 75456, Note_on_c, 0, 69, 45
2, 75552, Note_on_c, 0, 69, 0
2, 75552, Note_on_c, 0, 71, 45
2, 75646, Note_on_c, 0, 71, 0
2, 75648, Note_on_c, 0, 73, 45
2, 75696, Note_on_c, 0, 73, 0
2, 75840, Note_on_c, 0, 69, 45
2, 75936, Note_on_c, 0, 69, 0
2, 75936, Note_on_c, 0, 71, 45
2, 76032, Note_on_c, 0, 71, 0
2, 76032, Note_on_c, 0, 73, 45
2, 76128, Note_on_c, 0, 73, 0
2, 76128, Note_on_c, 0, 74, 45
2, 76222, Note_on_c, 0, 74, 0
2, 76224, Note_on_c, 0, 76, 45
2, 76272, Note_on_c, 0, 76, 0
2, 76416, Note_on_c, 0, 73, 52
2, 76512, Note_on_c, 0, 73, 0
2, 76512, Note_on_c, 0, 74, 56
2, 76608, Note_on_c, 0, 74, 0
2, 76608, Note_on_c, 0, 76, 60
2, 76704, Note_on_c, 0, 76, 0
2, 76704, Note_on_c, 0, 78, 64
2, 76798, Note_on_c, 0, 78, 0
2, 76800, Note_on_c, 0, 79, 68
2, 76848, Note_on_c, 0, 79, 0
2, 76992, Note_on_c, 0, 76, 76
2, 77088, Note_on_c, 0, 76, 0
2, 77088, Note_on_c, 0, 78, 80
2, 77184, Note_on_c, 0, 78, 0
2, 77184, Note_on_c, 0, 79, 84
2, 77280, Note_on_c, 0, 79, 0
2, 77280, Note_on_c, 0, 81, 88
2, 77374, Note_on_c, 0, 81, 0
2, 77376, Note_on_c, 0, 83, 92
2, 77904, Note_on_c, 0, 83, 0
2, 77952, Note_on_c, 0, 81, 92
2, 78144, Note_on_c, 0, 81, 0
2, 78144, Note_on_c, 0, 79, 92
2, 78336, Note_on_c, 0, 79, 0
2, 78336, Note_on_c, 0, 78, 92
2, 78496, Note_on_c, 0, 78, 0
2, 78528, Note_on_c, 0, 76, 92
2, 78720, Note_on_c, 0, 76, 0
2, 78720, Note_on_c, 0, 79, 92
2, 78880, Note_on_c, 0, 79, 0
2, 78912, Note_on_c, 0, 67, 92
2, 78912, Note_on_c, 0, 73, 92
2, 78960, Note_on_c, 0, 67, 0
2, 78960, Note_on_c, 0, 73, 0
2, 79104, Note_on_c, 0, 66, 92
2, 79104, Note_on_c, 0, 74, 92
2, 79264, Note_on_c, 0, 66, 0
2, 79264, Note_on_c, 0, 74, 0
2, 79264, End_track
3, 0, Start_track
3, 0, MIDI_port, 0
3, 0, Title_t, "Left Hand"
3, 0, Program_c, 1, 0
3, 0, Control_c, 1, 7, 127
3, 0, Control_c, 1, 10, 64
3, 0, Note_on_c, 1, 57, 92
3, 48, Note_on_c, 1, 57, 0
3, 192, Note_on_c, 1, 50, 92
3, 352, Note_on_c, 1, 50, 0
3, 576, Note_on_c, 1, 66, 92
3, 624, Note_on_c, 1, 66, 0
3, 768, Note_on_c, 1, 61, 92
3, 960, Note_on_c, 1, 61, 0
3, 960, Note_on_c, 1, 64, 92
3, 1120, Note_on_c, 1, 64, 0
3, 1152, Note_on_c, 1, 61, 92
3, 1200, Note_on_c, 1, 61, 0
3, 1344, Note_on_c, 1, 62, 92
3, 1536, Note_on_c, 1, 62, 0
3, 1536, Note_on_c, 1, 59, 92
3, 1696, Note_on_c, 1, 59, 0
3, 1728, Note_on_c, 1, 64, 92
3, 1776, Note_on_c, 1, 64, 0
3, 1920, Note_on_c, 1, 61, 92
3, 2112, Note_on_c, 1, 61, 0
3, 2112, Note_on_c, 1, 57, 92
3, 2272, Note_on_c, 1, 57, 0
3, 2880, Note_on_c, 1, 69, 45
3, 2976, Note_on_c, 1, 69, 0
3, 2976, Note_on_c, 1, 71, 45
3, 3070, Note_on_c, 1, 71, 0
3, 3072, Note_on_c, 1, 73, 45
3, 3120, Note_on_c, 1, 73, 0
3, 3264, Note_on_c, 1, 69, 52
3, 3360, Note_on_c, 1, 69, 0
3, 3360, Note_on_c, 1, 71, 56
3, 3456, Note_on_c, 1, 71, 0
3, 3456, Note_on_c, 1, 73, 60
3, 3552, Note_on_c, 1, 73, 0
3, 3552, Note_on_c, 1, 74, 64
3, 3646, Note_on_c, 1, 74, 0
3, 3648, Note_on_c, 1, 76, 68
3, 3696, Note_on_c, 1, 76, 0
3, 3840, Note_on_c, 1, 73, 76
3, 3936, Note_on_c, 1, 73, 0
3, 3936, Note_on_c, 1, 74, 80
3, 4032, Note_on_c, 1, 74, 0
3, 4032, Note_on_c, 1, 76, 84
3, 4128, Note_on_c, 1, 76, 0
3, 4128, Note_on_c, 1, 78, 88
3, 4222, Note_on_c, 1, 78, 0
3, 4224, Note_on_c, 1, 73, 92
3, 4224, Note_on_c, 1, 79, 92
3, 4752, Note_on_c, 1, 73, 0
3, 4752, Note_on_c, 1, 79, 0
3, 4800, Note_on_c, 1, 62, 92
3, 4800, Note_on_c, 1, 66, 92
3, 4992, Note_on_c, 1, 62, 0
3, 4992, Note_on_c, 1, 66, 0
3, 4992, Note_on_c, 1, 64, 92
3, 4992, Note_on_c, 1, 67, 92
3, 5184, Note_on_c, 1, 64, 0
3, 5184, Note_on_c, 1, 67, 0
3, 5184, Note_on_c, 1, 66, 92
3, 5184, Note_on_c, 1, 69, 92
3, 5344, Note_on_c, 1, 66, 0
3, 5344, Note_on_c, 1, 69, 0
3, 5376, Note_on_c, 1, 67, 92
3, 5376, Note_on_c, 1, 71, 92
3, 5536, Note_on_c, 1, 67, 0
3, 5536, Note_on_c, 1, 71, 0
3, 5760, Note_on_c, 1, 57, 92
3, 5808, Note_on_c, 1, 57, 0
3, 5952, Note_on_c, 1, 50, 92
3, 6112, Note_on_c, 1, 50, 0
3, 6144, Note_on_c, 1, 62, 92
3, 6304, Note_on_c, 1, 62, 0
3, 6336, Note_on_c, 1, 57, 92
3, 6384, Note_on_c, 1, 57, 0
3, 6528, Note_on_c, 1, 50, 92
3, 6688, Note_on_c, 1, 50, 0
3, 6912, Note_on_c, 1, 66, 92
3, 6960, Note_on_c, 1, 66, 0
3, 7104, Note_on_c, 1, 61, 92
3, 7296, Note_on_c, 1, 61, 0
3, 7296, Note_on_c, 1, 64, 92
3, 7456, Note_on_c, 1, 64, 0
3, 7488, Note_on_c, 1, 61, 92
3, 7536, Note_on_c, 1, 61, 0
3, 7680, Note_on_c, 1, 62, 92
3, 7872, Note_on_c, 1, 62, 0
3, 7872, Note_on_c, 1, 59, 92
3, 8032, Note_on_c, 1, 59, 0
3, 8064, Note_on_c, 1, 64, 92
3, 8112, Note_on_c, 1, 64, 0
3, 8256, Note_on_c, 1, 61, 92
3, 8448, Note_on_c, 1, 61, 0
3, 8448, Note_on_c, 1, 57, 92
3, 8608, Note_on_c, 1, 57, 0
3, 9216, Note_on_c, 1, 69, 45
3, 9312, Note_on_c, 1, 69, 0
3, 9312, Note_on_c, 1, 71, 45
3, 9406, Note_on_c, 1, 71, 0
3, 9408, Note_on_c, 1, 73, 45
3, 9456, Note_on_c, 1, 73, 0
3, 9600, Note_on_c, 1, 69, 52
3, 9696, Note_on_c, 1, 69, 0
3, 9696, Note_on_c, 1, 71, 56
3, 9792, Note_on_c, 1, 71, 0
3, 9792, Note_on_c, 1, 73, 60
3, 9888, Note_on_c, 1, 73, 0
3, 9888, Note_on_c, 1, 74, 64
3, 9982, Note_on_c, 1, 74, 0
3, 9984, Note_on_c, 1, 76, 68
3, 10032, Note_on_c, 1, 76, 0
3, 10176, Note_on_c, 1, 73, 76
3, 10272, Note_on_c, 1, 73, 0
3, 10272, Note_on_c, 1, 74, 80
3, 10368, Note_on_c, 1, 74, 0
3, 10368, Note_on_c, 1, 76, 84
3, 10464, Note_on_c, 1, 76, 0
3, 10464, Note_on_c, 1, 78, 88
3, 10558, Note_on_c, 1, 78, 0
3, 10560, Note_on_c, 1, 73, 92
3, 10560, Note_on_c, 1, 79, 92
3, 11088, Note_on_c, 1, 73, 0
3, 11088, Note_on_c, 1, 79, 0
3, 11136, Note_on_c, 1, 62, 92
3, 11136, Note_on_c, 1, 66, 92
3, 11328, Note_on_c, 1, 62, 0
3, 11328, Note_on_c, 1, 66, 0
3, 11328, Note_on_c, 1, 64, 92
3, 11328, Note_on_c, 1, 67, 92
3, 11520, Note_on_c, 1, 64, 0
3, 11520, Note_on_c, 1, 67, 0
3, 11520, Note_on_c, 1, 66, 92
3, 11520, Note_on_c, 1, 69, 92
3, 11680, Note_on_c, 1, 66, 0
3, 11680, Note_on_c, 1, 69, 0
3, 11712, Note_on_c, 1, 67, 92
3, 11712, Note_on_c, 1, 71, 92
3, 11872, Note_on_c, 1, 67, 0
3, 11872, Note_on_c, 1, 71, 0
3, 12096, Note_on_c, 1, 57, 92
3, 12144, Note_on_c, 1, 57, 0
3, 12288, Note_on_c, 1, 50, 92
3, 12448, Note_on_c, 1, 50, 0
3, 12480, Note_on_c, 1, 62, 92
3, 12640, Note_on_c, 1, 62, 0
3, 12672, Note_on_c, 1, 54, 92
3, 12720, Note_on_c, 1, 54, 0
3, 12864, Note_on_c, 1, 59, 92
3, 13056, Note_on_c, 1, 59, 0
3, 13056, Note_on_c, 1, 62, 92
3, 13216, Note_on_c, 1, 62, 0
3, 13248, Note_on_c, 1, 66, 92
3, 13296, Note_on_c, 1, 66, 0
3, 13440, Note_on_c, 1, 62, 92
3, 13488, Note_on_c, 1, 62, 0
3, 13632, Note_on_c, 1, 59, 92
3, 13680, Note_on_c, 1, 59, 0
3, 13824, Note_on_c, 1, 52, 92
3, 13872, Note_on_c, 1, 52, 0
3, 14016, Note_on_c, 1, 57, 92
3, 14208, Note_on_c, 1, 57, 0
3, 14208, Note_on_c, 1, 61, 92
3, 14368, Note_on_c, 1, 61, 0
3, 14400, Note_on_c, 1, 64, 92
3, 14448, Note_on_c, 1, 64, 0
3, 14592, Note_on_c, 1, 61, 92
3, 14640, Note_on_c, 1, 61, 0
3, 14784, Note_on_c, 1, 57, 92
3, 14832, Note_on_c, 1, 57, 0
3, 15168, Note_on_c, 1, 61, 45
3, 15168, Note_on_c, 1, 64, 45
3, 15744, Note_on_c, 1, 61, 0
3, 15744, Note_on_c, 1, 64, 0
3, 15744, Note_on_c, 1, 62, 45
3, 16320, Note_on_c, 1, 62, 0
3, 16320, Note_on_c, 1, 64, 45
3, 16848, Note_on_c, 1, 64, 0
3, 16896, Note_on_c, 1, 57, 45
3, 17472, Note_on_c, 1, 57, 0
3, 17472, Note_on_c, 1, 49, 45
3, 18048, Note_on_c, 1, 49, 0
3, 18048, Note_on_c, 1, 50, 45
3, 18624, Note_on_c, 1, 50, 0
3, 18624, Note_on_c, 1, 52, 45
3, 18960, Note_on_c, 1, 52, 0
3, 19008, Note_on_c, 1, 52, 45
3, 19008, Note_on_c, 1, 59, 45
3, 19200, Note_on_c, 1, 52, 0
3, 19200, Note_on_c, 1, 59, 0
3, 19200, Note_on_c, 1, 57, 45
3, 19200, Note_on_c, 1, 61, 45
3, 19360, Note_on_c, 1, 57, 0
3, 19360, Note_on_c, 1, 61, 0
3, 19584, Note_on_c, 1, 49, 45
3, 19744, Note_on_c, 1, 49, 0
3, 19776, Note_on_c, 1, 52, 45
3, 19968, Note_on_c, 1, 52, 0
3, 19968, Note_on_c, 1, 57, 68
3, 20160, Note_on_c, 1, 57, 0
3, 20160, Note_on_c, 1, 61, 92
3, 20320, Note_on_c, 1, 61, 0
3, 20352, Note_on_c, 1, 64, 92
3, 20544, Note_on_c, 1, 64, 0
3, 20544, Note_on_c, 1, 61, 76
3, 20704, Note_on_c, 1, 61, 0
3, 20736, Note_on_c, 1, 49, 60
3, 20736, Note_on_c, 1, 52, 60
3, 20784, Note_on_c, 1, 49, 0
3, 20784, Note_on_c, 1, 52, 0
3, 20928, Note_on_c, 1, 52, 60
3, 20928, Note_on_c, 1, 57, 60
3, 21120, Note_on_c, 1, 52, 0
3, 21120, Note_on_c, 1, 57, 0
3, 21120, Note_on_c, 1, 57, 84
3, 21120, Note_on_c, 1, 61, 84
3, 21312, Note_on_c, 1, 57, 0
3, 21312, Note_on_c, 1, 61, 0
3, 21312, Note_on_c, 1, 61, 108
3, 21312, Note_on_c, 1, 64, 108
3, 21472, Note_on_c, 1, 61, 0
3, 21472, Note_on_c, 1, 64, 0
3, 21504, Note_on_c, 1, 64, 108
3, 21504, Note_on_c, 1, 67, 108
3, 21696, Note_on_c, 1, 64, 0
3, 21696, Note_on_c, 1, 67, 0
3, 21696, Note_on_c, 1, 61, 100
3, 21696, Note_on_c, 1, 64, 100
3, 21856, Note_on_c, 1, 61, 0
3, 21856, Note_on_c, 1, 64, 0
3, 21888, Note_on_c, 1, 57, 92
3, 21936, Note_on_c, 1, 57, 0
3, 22080, Note_on_c, 1, 50, 92
3, 22240, Note_on_c, 1, 50, 0
3, 22464, Note_on_c, 1, 66, 92
3, 22512, Note_on_c, 1, 66, 0
3, 22656, Note_on_c, 1, 61, 92
3, 22848, Note_on_c, 1, 61, 0
3, 22848, Note_on_c, 1, 64, 92
3, 23008, Note_on_c, 1, 64, 0
3, 23040, Note_on_c, 1, 61, 92
3, 23088, Note_on_c, 1, 61, 0
3, 23232, Note_on_c, 1, 62, 92
3, 23424, Note_on_c, 1, 62, 0
3, 23424, Note_on_c, 1, 59, 92
3, 23584, Note_on_c, 1, 59, 0
3, 23616, Note_on_c, 1, 64, 92
3, 23664, Note_on_c, 1, 64, 0
3, 23808, Note_on_c, 1, 61, 92
3, 24000, Note_on_c, 1, 61, 0
3, 24000, Note_on_c, 1, 57, 92
3, 24160, Note_on_c, 1, 57, 0
3, 24768, Note_on_c, 1, 69, 45
3, 24864, Note_on_c, 1, 69, 0
3, 24864, Note_on_c, 1, 71, 45
3, 24958, Note_on_c, 1, 71, 0
3, 24960, Note_on_c, 1, 73, 45
3, 25008, Note_on_c, 1, 73, 0
3, 25152, Note_on_c, 1, 69, 52
3, 25248, Note_on_c, 1, 69, 0
3, 25248, Note_on_c, 1, 71, 56
3, 25344, Note_on_c, 1, 71, 0
3, 25344, Note_on_c, 1, 73, 60
3, 25440, Note_on_c, 1, 73, 0
3, 25440, Note_on_c, 1, 74, 64
3, 25534, Note_on_c, 1, 74, 0
3, 25536, Note_on_c, 1, 76, 68
3, 25584, Note_on_c, 1, 76, 0
3, 25728, Note_on_c, 1, 73, 76
3, 25824, Note_on_c, 1, 73, 0
3, 25824, Note_on_c, 1, 74, 80
3, 25920, Note_on_c, 1, 74, 0
3, 25920, Note_on_c, 1, 76, 84
3, 26016, Note_on_c, 1, 76, 0
3, 26016, Note_on_c, 1, 78, 88
3, 26110, Note_on_c, 1, 78, 0
3, 26112, Note_on_c, 1, 73, 92
3, 26112, Note_on_c, 1, 79, 92
3, 26640, Note_on_c, 1, 73, 0
3, 26640, Note_on_c, 1, 79, 0
3, 26688, Note_on_c, 1, 62, 92
3, 26688, Note_on_c, 1, 66, 92
3, 26880, Note_on_c, 1, 62, 0
3, 26880, Note_on_c, 1, 66, 0
3, 26880, Note_on_c, 1, 64, 92
3, 26880, Note_on_c, 1, 67, 92
3, 27072, Note_on_c, 1, 64, 0
3, 27072, Note_on_c, 1, 67, 0
3, 27072, Note_on_c, 1, 66, 92
3, 27072, Note_on_c, 1, 69, 92
3, 27232, Note_on_c, 1, 66, 0
3, 27232, Note_on_c, 1, 69, 0
3, 27264, Note_on_c, 1, 67, 92
3, 27264, Note_on_c, 1, 71, 92
3, 27424, Note_on_c, 1, 67, 0
3, 27424, Note_on_c, 1, 71, 0
3, 27648, Note_on_c, 1, 57, 92
3, 27696, Note_on_c, 1, 57, 0
3, 27840, Note_on_c, 1, 50, 92
3, 28000, Note_on_c, 1, 50, 0
3, 28032, Note_on_c, 1, 62, 92
3, 28192, Note_on_c, 1, 62, 0
3, 28224, Note_on_c, 1, 54, 92
3, 28272, Note_on_c, 1, 54, 0
3, 28416, Note_on_c, 1, 59, 92
3, 28608, Note_on_c, 1, 59, 0
3, 28608, Note_on_c, 1, 62, 92
3, 28768, Note_on_c, 1, 62, 0
3, 28800, Note_on_c, 1, 66, 92
3, 28848, Note_on_c, 1, 66, 0
3, 28992, Note_on_c, 1, 62, 92
3, 29040, Note_on_c, 1, 62, 0
3, 29184, Note_on_c, 1, 59, 92
3, 29232, Note_on_c, 1, 59, 0
3, 29376, Note_on_c, 1, 52, 92
3, 29424, Note_on_c, 1, 52, 0
3, 29568, Note_on_c, 1, 57, 92
3, 29760, Note_on_c, 1, 57, 0
3, 29760, Note_on_c, 1, 61, 92
3, 29920, Note_on_c, 1, 61, 0
3, 29952, Note_on_c, 1, 64, 92
3, 30000, Note_on_c, 1, 64, 0
3, 30144, Note_on_c, 1, 61, 92
3, 30192, Note_on_c, 1, 61, 0
3, 30336, Note_on_c, 1, 57, 92
3, 30384, Note_on_c, 1, 57, 0
3, 30720, Note_on_c, 1, 61, 45
3, 30720, Note_on_c, 1, 64, 45
3, 31296, Note_on_c, 1, 61, 0
3, 31296, Note_on_c, 1, 64, 0
3, 31296, Note_on_c, 1, 62, 45
3, 31872, Note_on_c, 1, 62, 0
3, 31872, Note_on_c, 1, 64, 45
3, 32400, Note_on_c, 1, 64, 0
3, 32448, Note_on_c, 1, 57, 45
3, 33024, Note_on_c, 1, 57, 0
3, 33024, Note_on_c, 1, 49, 45
3, 33600, Note_on_c, 1, 49, 0
3, 33600, Note_on_c, 1, 50, 45
3, 34176, Note_on_c, 1, 50, 0
3, 34176, Note_on_c, 1, 52, 45
3, 34512, Note_on_c, 1, 52, 0
3, 34560, Note_on_c, 1, 52, 45
3, 34560, Note_on_c, 1, 59, 45
3, 34752, Note_on_c, 1, 52, 0
3, 34752, Note_on_c, 1, 59, 0
3, 34752, Note_on_c, 1, 57, 45
3, 34752, Note_on_c, 1, 61, 45
3, 34912, Note_on_c, 1, 57, 0
3, 34912, Note_on_c, 1, 61, 0
3, 35136, Note_on_c, 1, 49, 45
3, 35296, Note_on_c, 1, 49, 0
3, 35328, Note_on_c, 1, 52, 45
3, 35520, Note_on_c, 1, 52, 0
3, 35520, Note_on_c, 1, 57, 68
3, 35712, Note_on_c, 1, 57, 0
3, 35712, Note_on_c, 1, 61, 92
3, 35872, Note_on_c, 1, 61, 0
3, 35904, Note_on_c, 1, 64, 92
3, 36096, Note_on_c, 1, 64, 0
3, 36096, Note_on_c, 1, 61, 76
3, 36256, Note_on_c, 1, 61, 0
3, 36288, Note_on_c, 1, 49, 60
3, 36288, Note_on_c, 1, 52, 60
3, 36336, Note_on_c, 1, 49, 0
3, 36336, Note_on_c, 1, 52, 0
3, 36480, Note_on_c, 1, 52, 60
3, 36480, Note_on_c, 1, 57, 60
3, 36672, Note_on_c, 1, 52, 0
3, 36672, Note_on_c, 1, 57, 0
3, 36672, Note_on_c, 1, 57, 84
3, 36672, Note_on_c, 1, 61, 84
3, 36864, Note_on_c, 1, 57, 0
3, 36864, Note_on_c, 1, 61, 0
3, 36864, Note_on_c, 1, 61, 108
3, 36864, Note_on_c, 1, 64, 108
3, 37024, Note_on_c, 1, 61, 0
3, 37024, Note_on_c, 1, 64, 0
3, 37056, Note_on_c, 1, 64, 108
3, 37056, Note_on_c, 1, 67, 108
3, 37248, Note_on_c, 1, 64, 0
3, 37248, Note_on_c, 1, 67, 0
3, 37248, Note_on_c, 1, 61, 100
3, 37248, Note_on_c, 1, 64, 100
3, 37408, Note_on_c, 1, 61, 0
3, 37408, Note_on_c, 1, 64, 0
3, 37440, Note_on_c, 1, 57, 92
3, 37488, Note_on_c, 1, 57, 0
3, 37632, Note_on_c, 1, 50, 92
3, 37792, Note_on_c, 1, 50, 0
3, 38016, Note_on_c, 1, 66, 92
3, 38064, Note_on_c, 1, 66, 0
3, 38208, Note_on_c, 1, 61, 92
3, 38400, Note_on_c, 1, 61, 0
3, 38400, Note_on_c, 1, 64, 92
3, 38560, Note_on_c, 1, 64, 0
3, 38592, Note_on_c, 1, 61, 92
3, 38640, Note_on_c, 1, 61, 0
3, 38784, Note_on_c, 1, 62, 92
3, 38976, Note_on_c, 1, 62, 0
3, 38976, Note_on_c, 1, 59, 92
3, 39136, Note_on_c, 1, 59, 0
3, 39168, Note_on_c, 1, 64, 92
3, 39216, Note_on_c, 1, 64, 0
3, 39360, Note_on_c, 1, 61, 92
3, 39552, Note_on_c, 1, 61, 0
3, 39552, Note_on_c, 1, 57, 92
3, 39712, Note_on_c, 1, 57, 0
3, 40320, Note_on_c, 1, 69, 45
3, 40416, Note_on_c, 1, 69, 0
3, 40416, Note_on_c, 1, 71, 45
3, 40510, Note_on_c, 1, 71, 0
3, 40512, Note_on_c, 1, 73, 45
3, 40560, Note_on_c, 1, 73, 0
3, 40704, Note_on_c, 1, 69, 52
3, 40800, Note_on_c, 1, 69, 0
3, 40800, Note_on_c, 1, 71, 56
3, 40896, Note_on_c, 1, 71, 0
3, 40896, Note_on_c, 1, 73, 60
3, 40992, Note_on_c, 1, 73, 0
3, 40992, Note_on_c, 1, 74, 64
3, 41086, Note_on_c, 1, 74, 0
3, 41088, Note_on_c, 1, 76, 68
3, 41136, Note_on_c, 1, 76, 0
3, 41280, Note_on_c, 1, 73, 76
3, 41376, Note_on_c, 1, 73, 0
3, 41376, Note_on_c, 1, 74, 80
3, 41472, Note_on_c, 1, 74, 0
3, 41472, Note_on_c, 1, 76, 84
3, 41568, Note_on_c, 1, 76, 0
3, 41568, Note_on_c, 1, 78, 88
3, 41662, Note_on_c, 1, 78, 0
3, 41664, Note_on_c, 1, 73, 92
3, 41664, Note_on_c, 1, 79, 92
3, 42192, Note_on_c, 1, 73, 0
3, 42192, Note_on_c, 1, 79, 0
3, 42240, Note_on_c, 1, 62, 92
3, 42240, Note_on_c, 1, 66, 92
3, 42432, Note_on_c, 1, 62, 0
3, 42432, Note_on_c, 1, 66, 0
3, 42432, Note_on_c, 1, 64, 92
3, 42432, Note_on_c, 1, 67, 92
3, 42624, Note_on_c, 1, 64, 0
3, 42624, Note_on_c, 1, 67, 0
3, 42624, Note_on_c, 1, 66, 92
3, 42624, Note_on_c, 1, 69, 92
3, 42784, Note_on_c, 1, 66, 0
3, 42784, Note_on_c, 1, 69, 0
3, 42816, Note_on_c, 1, 67, 92
3, 42816, Note_on_c, 1, 71, 92
3, 42976, Note_on_c, 1, 67, 0
3, 42976, Note_on_c, 1, 71, 0
3, 43200, Note_on_c, 1, 57, 92
3, 43248, Note_on_c, 1, 57, 0
3, 43392, Note_on_c, 1, 50, 92
3, 43552, Note_on_c, 1, 50, 0
3, 43584, Note_on_c, 1, 62, 92
3, 43744, Note_on_c, 1, 62, 0
3, 43776, Note_on_c, 1, 57, 45
3, 43776, Note_on_c, 1, 57, 45
3, 43870, Note_on_c, 1, 57, 0
3, 43872, Note_on_c, 1, 62, 45
3, 43936, Note_on_c, 1, 57, 0
3, 43966, Note_on_c, 1, 62, 0
3, 43968, Note_on_c, 1, 57, 45
3, 43968, Note_on_c, 1, 57, 45
3, 44062, Note_on_c, 1, 57, 0
3, 44064, Note_on_c, 1, 64, 45
3, 44158, Note_on_c, 1, 64, 0
3, 44160, Note_on_c, 1, 67, 45
3, 44254, Note_on_c, 1, 67, 0
3, 44256, Note_on_c, 1, 64, 45
3, 44350, Note_on_c, 1, 64, 0
3, 44352, Note_on_c, 1, 57, 45
3, 44446, Note_on_c, 1, 57, 0
3, 44448, Note_on_c, 1, 64, 45
3, 44496, Note_on_c, 1, 57, 0
3, 44542, Note_on_c, 1, 64, 0
3, 44544, Note_on_c, 1, 57, 45
3, 44544, Note_on_c, 1, 57, 45
3, 44638, Note_on_c, 1, 57, 0
3, 44640, Note_on_c, 1, 62, 45
3, 44734, Note_on_c, 1, 62, 0
3, 44736, Note_on_c, 1, 66, 45
3, 44830, Note_on_c, 1, 66, 0
3, 44832, Note_on_c, 1, 62, 45
3, 44926, Note_on_c, 1, 62, 0
3, 44928, Note_on_c, 1, 57, 45
3, 45022, Note_on_c, 1, 57, 0
3, 45024, Note_on_c, 1, 62, 45
3, 45072, Note_on_c, 1, 57, 0
3, 45118, Note_on_c, 1, 62, 0
3, 45120, Note_on_c, 1, 57, 45
3, 45120, Note_on_c, 1, 57, 45
3, 45214, Note_on_c, 1, 57, 0
3, 45216, Note_on_c, 1, 61, 45
3, 45310, Note_on_c, 1, 61, 0
3, 45312, Note_on_c, 1, 64, 45
3, 45406, Note_on_c, 1, 64, 0
3, 45408, Note_on_c, 1, 61, 45
3, 45502, Note_on_c, 1, 61, 0
3, 45504, Note_on_c, 1, 57, 45
3, 45598, Note_on_c, 1, 57, 0
3, 45600, Note_on_c, 1, 61, 45
3, 45648, Note_on_c, 1, 57, 0
3, 45694, Note_on_c, 1, 61, 0
3, 45696, Note_on_c, 1, 57, 45
3, 45696, Note_on_c, 1, 57, 45
3, 45790, Note_on_c, 1, 57, 0
3, 45792, Note_on_c, 1, 62, 45
3, 45886, Note_on_c, 1, 62, 0
3, 45888, Note_on_c, 1, 66, 45
3, 45982, Note_on_c, 1, 66, 0
3, 45984, Note_on_c, 1, 62, 45
3, 46078, Note_on_c, 1, 62, 0
3, 46080, Note_on_c, 1, 57, 45
3, 46174, Note_on_c, 1, 57, 0
3, 46176, Note_on_c, 1, 62, 45
3, 46224, Note_on_c, 1, 57, 0
3, 46270, Note_on_c, 1, 62, 0
3, 46272, Note_on_c, 1, 57, 45
3, 46272, Note_on_c, 1, 57, 45
3, 46366, Note_on_c, 1, 57, 0
3, 46368, Note_on_c, 1, 64, 45
3, 46462, Note_on_c, 1, 64, 0
3, 46464, Note_on_c, 1, 67, 45
3, 46558, Note_on_c, 1, 67, 0
3, 46560, Note_on_c, 1, 64, 45
3, 46654, Note_on_c, 1, 64, 0
3, 46656, Note_on_c, 1, 57, 45
3, 46750, Note_on_c, 1, 57, 0
3, 46752, Note_on_c, 1, 64, 45
3, 46800, Note_on_c, 1, 57, 0
3, 46846, Note_on_c, 1, 64, 0
3, 46848, Note_on_c, 1, 57, 45
3, 46848, Note_on_c, 1, 57, 45
3, 46942, Note_on_c, 1, 57, 0
3, 46944, Note_on_c, 1, 62, 45
3, 47038, Note_on_c, 1, 62, 0
3, 47040, Note_on_c, 1, 66, 45
3, 47134, Note_on_c, 1, 66, 0
3, 47136, Note_on_c, 1, 62, 45
3, 47230, Note_on_c, 1, 62, 0
3, 47232, Note_on_c, 1, 57, 45
3, 47326, Note_on_c, 1, 57, 0
3, 47328, Note_on_c, 1, 62, 45
3, 47376, Note_on_c, 1, 57, 0
3, 47422, Note_on_c, 1, 62, 0
3, 47424, Note_on_c, 1, 57, 45
3, 47424, Note_on_c, 1, 57, 45
3, 47518, Note_on_c, 1, 57, 0
3, 47520, Note_on_c, 1, 64, 45
3, 47614, Note_on_c, 1, 64, 0
3, 47616, Note_on_c, 1, 67, 45
3, 47710, Note_on_c, 1, 67, 0
3, 47712, Note_on_c, 1, 64, 45
3, 47806, Note_on_c, 1, 64, 0
3, 47808, Note_on_c, 1, 57, 45
3, 47902, Note_on_c, 1, 57, 0
3, 47904, Note_on_c, 1, 61, 45
3, 47952, Note_on_c, 1, 57, 0
3, 47998, Note_on_c, 1, 61, 0
3, 48000, Note_on_c, 1, 57, 45
3, 48000, Note_on_c, 1, 57, 45
3, 48094, Note_on_c, 1, 57, 0
3, 48096, Note_on_c, 1, 62, 45
3, 48190, Note_on_c, 1, 62, 0
3, 48192, Note_on_c, 1, 66, 45
3, 48286, Note_on_c, 1, 66, 0
3, 48288, Note_on_c, 1, 62, 45
3, 48336, Note_on_c, 1, 57, 0
3, 48382, Note_on_c, 1, 62, 0
3, 48384, Note_on_c, 1, 57, 45
3, 48384, Note_on_c, 1, 57, 45
3, 48478, Note_on_c, 1, 57, 0
3, 48480, Note_on_c, 1, 62, 45
3, 48544, Note_on_c, 1, 57, 0
3, 48574, Note_on_c, 1, 62, 0
3, 48576, Note_on_c, 1, 57, 45
3, 48576, Note_on_c, 1, 57, 45
3, 48670, Note_on_c, 1, 57, 0
3, 48672, Note_on_c, 1, 64, 45
3, 48766, Note_on_c, 1, 64, 0
3, 48768, Note_on_c, 1, 67, 45
3, 48862, Note_on_c, 1, 67, 0
3, 48864, Note_on_c, 1, 64, 45
3, 48958, Note_on_c, 1, 64, 0
3, 48960, Note_on_c, 1, 57, 45
3, 49054, Note_on_c, 1, 57, 0
3, 49056, Note_on_c, 1, 64, 45
3, 49104, Note_on_c, 1, 57, 0
3, 49150, Note_on_c, 1, 64, 0
3, 49152, Note_on_c, 1, 57, 45
3, 49152, Note_on_c, 1, 57, 45
3, 49246, Note_on_c, 1, 57, 0
3, 49248, Note_on_c, 1, 62, 45
3, 49342, Note_on_c, 1, 62, 0
3, 49344, Note_on_c, 1, 66, 45
3, 49438, Note_on_c, 1, 66, 0
3, 49440, Note_on_c, 1, 62, 45
3, 49534, Note_on_c, 1, 62, 0
3, 49536, Note_on_c, 1, 57, 45
3, 49630, Note_on_c, 1, 57, 0
3, 49632, Note_on_c, 1, 62, 45
3, 49680, Note_on_c, 1, 57, 0
3, 49726, Note_on_c, 1, 62, 0
3, 49728, Note_on_c, 1, 57, 45
3, 49728, Note_on_c, 1, 57, 45
3, 49822, Note_on_c, 1, 57, 0
3, 49824, Note_on_c, 1, 61, 45
3, 49918, Note_on_c, 1, 61, 0
3, 49920, Note_on_c, 1, 64, 45
3, 50014, Note_on_c, 1, 64, 0
3, 50016, Note_on_c, 1, 61, 45
3, 50110, Note_on_c, 1, 61, 0
3, 50112, Note_on_c, 1, 57, 45
3, 50206, Note_on_c, 1, 57, 0
3, 50208, Note_on_c, 1, 61, 45
3, 50256, Note_on_c, 1, 57, 0
3, 50302, Note_on_c, 1, 61, 0
3, 50304, Note_on_c, 1, 57, 45
3, 50304, Note_on_c, 1, 57, 45
3, 50398, Note_on_c, 1, 57, 0
3, 50400, Note_on_c, 1, 62, 45
3, 50494, Note_on_c, 1, 62, 0
3, 50496, Note_on_c, 1, 66, 45
3, 50590, Note_on_c, 1, 66, 0
3, 50592, Note_on_c, 1, 62, 45
3, 50686, Note_on_c, 1, 62, 0
3, 50688, Note_on_c, 1, 57, 45
3, 50782, Note_on_c, 1, 57, 0
3, 50784, Note_on_c, 1, 62, 45
3, 50832, Note_on_c, 1, 57, 0
3, 50878, Note_on_c, 1, 62, 0
3, 50880, Note_on_c, 1, 57, 45
3, 50880, Note_on_c, 1, 57, 45
3, 50974, Note_on_c, 1, 57, 0
3, 50976, Note_on_c, 1, 64, 45
3, 51070, Note_on_c, 1, 64, 0
3, 51072, Note_on_c, 1, 67, 45
3, 51166, Note_on_c, 1, 67, 0
3, 51168, Note_on_c, 1, 64, 45
3, 51262, Note_on_c, 1, 64, 0
3, 51264, Note_on_c, 1, 57, 45
3, 51358, Note_on_c, 1, 57, 0
3, 51360, Note_on_c, 1, 64, 45
3, 51408, Note_on_c, 1, 57, 0
3, 51454, Note_on_c, 1, 64, 0
3, 51456, Note_on_c, 1, 57, 45
3, 51456, Note_on_c, 1, 57, 45
3, 51550, Note_on_c, 1, 57, 0
3, 51552, Note_on_c, 1, 62, 45
3, 51646, Note_on_c, 1, 62, 0
3, 51648, Note_on_c, 1, 66, 45
3, 51742, Note_on_c, 1, 66, 0
3, 51744, Note_on_c, 1, 62, 45
3, 51838, Note_on_c, 1, 62, 0
3, 51840, Note_on_c, 1, 57, 45
3, 51934, Note_on_c, 1, 57, 0
3, 51936, Note_on_c, 1, 62, 45
3, 51984, Note_on_c, 1, 57, 0
3, 52030, Note_on_c, 1, 62, 0
3, 52032, Note_on_c, 1, 57, 45
3, 52032, Note_on_c, 1, 57, 45
3, 52126, Note_on_c, 1, 57, 0
3, 52128, Note_on_c, 1, 64, 45
3, 52222, Note_on_c, 1, 64, 0
3, 52224, Note_on_c, 1, 67, 45
3, 52318, Note_on_c, 1, 67, 0
3, 52320, Note_on_c, 1, 64, 45
3, 52414, Note_on_c, 1, 64, 0
3, 52416, Note_on_c, 1, 57, 45
3, 52510, Note_on_c, 1, 57, 0
3, 52512, Note_on_c, 1, 61, 45
3, 52560, Note_on_c, 1, 57, 0
3, 52606, Note_on_c, 1, 61, 0
3, 52608, Note_on_c, 1, 62, 45
3, 52608, Note_on_c, 1, 66, 45
3, 52944, Note_on_c, 1, 62, 0
3, 52944, Note_on_c, 1, 66, 0
3, 52992, Note_on_c, 1, 50, 92
3, 52992, Note_on_c, 1, 60, 92
3, 53040, Note_on_c, 1, 50, 0
3, 53040, Note_on_c, 1, 60, 0
3, 53184, Note_on_c, 1, 55, 92
3, 53184, Note_on_c, 1, 59, 92
3, 53376, Note_on_c, 1, 55, 0
3, 53376, Note_on_c, 1, 62, 92
3, 53520, Note_on_c, 1, 59, 0
3, 53568, Note_on_c, 1, 62, 0
3, 53568, Note_on_c, 1, 50, 92
3, 53568, Note_on_c, 1, 60, 92
3, 53728, Note_on_c, 1, 50, 0
3, 53728, Note_on_c, 1, 60, 0
3, 53760, Note_on_c, 1, 55, 92
3, 53760, Note_on_c, 1, 59, 92
3, 53952, Note_on_c, 1, 55, 0
3, 53952, Note_on_c, 1, 62, 92
3, 54096, Note_on_c, 1, 59, 0
3, 54144, Note_on_c, 1, 62, 0
3, 54144, Note_on_c, 1, 50, 92
3, 54144, Note_on_c, 1, 60, 92
3, 54304, Note_on_c, 1, 50, 0
3, 54304, Note_on_c, 1, 60, 0
3, 54336, Note_on_c, 1, 55, 92
3, 54336, Note_on_c, 1, 59, 92
3, 54528, Note_on_c, 1, 55, 0
3, 54528, Note_on_c, 1, 62, 92
3, 54672, Note_on_c, 1, 59, 0
3, 54720, Note_on_c, 1, 62, 0
3, 54720, Note_on_c, 1, 50, 92
3, 54720, Note_on_c, 1, 60, 92
3, 54880, Note_on_c, 1, 50, 0
3, 54880, Note_on_c, 1, 60, 0
3, 54912, Note_on_c, 1, 55, 92
3, 54912, Note_on_c, 1, 59, 92
3, 55072, Note_on_c, 1, 55, 0
3, 55072, Note_on_c, 1, 59, 0
3, 55488, Note_on_c, 1, 55, 45
3, 55536, Note_on_c, 1, 55, 0
3, 55680, Note_on_c, 1, 55, 45
3, 55728, Note_on_c, 1, 55, 0
3, 55872, Note_on_c, 1, 55, 45
3, 55920, Note_on_c, 1, 55, 0
3, 56064, Note_on_c, 1, 57, 45
3, 56400, Note_on_c, 1, 57, 0
3, 56640, Note_on_c, 1, 57, 45
3, 56640, Note_on_c, 1, 64, 45
3, 56736, Note_on_c, 1, 57, 0
3, 56736, Note_on_c, 1, 64, 0
3, 56736, Note_on_c, 1, 67, 45
3, 56832, Note_on_c, 1, 67, 0
3, 56832, Note_on_c, 1, 57, 45
3, 56832, Note_on_c, 1, 64, 45
3, 56928, Note_on_c, 1, 57, 0
3, 56928, Note_on_c, 1, 64, 0
3, 56928, Note_on_c, 1, 67, 45
3, 57024, Note_on_c, 1, 67, 0
3, 57024, Note_on_c, 1, 57, 45
3, 57024, Note_on_c, 1, 64, 45
3, 57120, Note_on_c, 1, 57, 0
3, 57120, Note_on_c, 1, 64, 0
3, 57120, Note_on_c, 1, 67, 45
3, 57214, Note_on_c, 1, 67, 0
3, 57216, Note_on_c, 1, 62, 45
3, 57216, Note_on_c, 1, 66, 45
3, 57376, Note_on_c, 1, 62, 0
3, 57376, Note_on_c, 1, 66, 0
3, 57600, Note_on_c, 1, 57, 92
3, 57648, Note_on_c, 1, 57, 0
3, 57792, Note_on_c, 1, 50, 92
3, 57952, Note_on_c, 1, 50, 0
3, 58176, Note_on_c, 1, 66, 92
3, 58224, Note_on_c, 1, 66, 0
3, 58368, Note_on_c, 1, 61, 92
3, 58560, Note_on_c, 1, 61, 0
3, 58560, Note_on_c, 1, 64, 92
3, 58720, Note_on_c, 1, 64, 0
3, 58752, Note_on_c, 1, 61, 92
3, 58800, Note_on_c, 1, 61, 0
3, 58944, Note_on_c, 1, 62, 92
3, 59136, Note_on_c, 1, 62, 0
3, 59136, Note_on_c, 1, 59, 92
3, 59296, Note_on_c, 1, 59, 0
3, 59328, Note_on_c, 1, 64, 92
3, 59376, Note_on_c, 1, 64, 0
3, 59520, Note_on_c, 1, 61, 92
3, 59712, Note_on_c, 1, 61, 0
3, 59712, Note_on_c, 1, 57, 92
3, 59872, Note_on_c, 1, 57, 0
3, 60480, Note_on_c, 1, 69, 45
3, 60576, Note_on_c, 1, 69, 0
3, 60576, Note_on_c, 1, 71, 45
3, 60670, Note_on_c, 1, 71, 0
3, 60672, Note_on_c, 1, 73, 45
3, 60720, Note_on_c, 1, 73, 0
3, 60864, Note_on_c, 1, 69, 52
3, 60960, Note_on_c, 1, 69, 0
3, 60960, Note_on_c, 1, 71, 56
3, 61056, Note_on_c, 1, 71, 0
3, 61056, Note_on_c, 1, 73, 60
3, 61152, Note_on_c, 1, 73, 0
3, 61152, Note_on_c, 1, 74, 64
3, 61246, Note_on_c, 1, 74, 0
3, 61248, Note_on_c, 1, 76, 68
3, 61296, Note_on_c, 1, 76, 0
3, 61440, Note_on_c, 1, 73, 76
3, 61536, Note_on_c, 1, 73, 0
3, 61536, Note_on_c, 1, 74, 80
3, 61632, Note_on_c, 1, 74, 0
3, 61632, Note_on_c, 1, 76, 84
3, 61728, Note_on_c, 1, 76, 0
3, 61728, Note_on_c, 1, 78, 88
3, 61822, Note_on_c, 1, 78, 0
3, 61824, Note_on_c, 1, 73, 92
3, 61824, Note_on_c, 1, 79, 92
3, 62352, Note_on_c, 1, 73, 0
3, 62352, Note_on_c, 1, 79, 0
3, 62400, Note_on_c, 1, 62, 92
3, 62400, Note_on_c, 1, 66, 92
3, 62592, Note_on_c, 1, 62, 0
3, 62592, Note_on_c, 1, 66, 0
3, 62592, Note_on_c, 1, 64, 92
3, 62592, Note_on_c, 1, 67, 92
3, 62784, Note_on_c, 1, 64, 0
3, 62784, Note_on_c, 1, 67, 0
3, 62784, Note_on_c, 1, 66, 92
3, 62784, Note_on_c, 1, 69, 92
3, 62944, Note_on_c, 1, 66, 0
3, 62944, Note_on_c, 1, 69, 0
3, 62976, Note_on_c, 1, 67, 92
3, 62976, Note_on_c, 1, 71, 92
3, 63136, Note_on_c, 1, 67, 0
3, 63136, Note_on_c, 1, 71, 0
3, 63360, Note_on_c, 1, 57, 92
3, 63408, Note_on_c, 1, 57, 0
3, 63552, Note_on_c, 1, 50, 92
3, 63712, Note_on_c, 1, 50, 0
3, 63744, Note_on_c, 1, 62, 92
3, 63904, Note_on_c, 1, 62, 0
3, 63936, Note_on_c, 1, 54, 92
3, 63984, Note_on_c, 1, 54, 0
3, 64128, Note_on_c, 1, 59, 92
3, 64320, Note_on_c, 1, 59, 0
3, 64320, Note_on_c, 1, 62, 92
3, 64480, Note_on_c, 1, 62, 0
3, 64512, Note_on_c, 1, 66, 92
3, 64560, Note_on_c, 1, 66, 0
3, 64704, Note_on_c, 1, 62, 92
3, 64752, Note_on_c, 1, 62, 0
3, 64896, Note_on_c, 1, 59, 92
3, 64944, Note_on_c, 1, 59, 0
3, 65088, Note_on_c, 1, 52, 92
3, 65136, Note_on_c, 1, 52, 0
3, 65280, Note_on_c, 1, 57, 92
3, 65472, Note_on_c, 1, 57, 0
3, 65472, Note_on_c, 1, 61, 92
3, 65632, Note_on_c, 1, 61, 0
3, 65664, Note_on_c, 1, 64, 92
3, 65712, Note_on_c, 1, 64, 0
3, 65856, Note_on_c, 1, 61, 92
3, 65904, Note_on_c, 1, 61, 0
3, 66048, Note_on_c, 1, 57, 92
3, 66096, Note_on_c, 1, 57, 0
3, 66432, Note_on_c, 1, 61, 45
3, 66432, Note_on_c, 1, 64, 45
3, 67008, Note_on_c, 1, 61, 0
3, 67008, Note_on_c, 1, 64, 0
3, 67008, Note_on_c, 1, 62, 45
3, 67584, Note_on_c, 1, 62, 0
3, 67584, Note_on_c, 1, 64, 45
3, 68112, Note_on_c, 1, 64, 0
3, 68160, Note_on_c, 1, 57, 45
3, 68736, Note_on_c, 1, 57, 0
3, 68736, Note_on_c, 1, 49, 45
3, 69312, Note_on_c, 1, 49, 0
3, 69312, Note_on_c, 1, 50, 45
3, 69888, Note_on_c, 1, 50, 0
3, 69888, Note_on_c, 1, 52, 45
3, 70224, Note_on_c, 1, 52, 0
3, 70272, Note_on_c, 1, 52, 45
3, 70272, Note_on_c, 1, 59, 45
3, 70464, Note_on_c, 1, 52, 0
3, 70464, Note_on_c, 1, 59, 0
3, 70464, Note_on_c, 1, 57, 45
3, 70464, Note_on_c, 1, 61, 45
3, 70624, Note_on_c, 1, 57, 0
3, 70624, Note_on_c, 1, 61, 0
3, 70848, Note_on_c, 1, 49, 45
3, 71008, Note_on_c, 1, 49, 0
3, 71040, Note_on_c, 1, 52, 45
3, 71232, Note_on_c, 1, 52, 0
3, 71232, Note_on_c, 1, 57, 68
3, 71424, Note_on_c, 1, 57, 0
3, 71424, Note_on_c, 1, 61, 92
3, 71584, Note_on_c, 1, 61, 0
3, 71616, Note_on_c, 1, 64, 92
3, 71808, Note_on_c, 1, 64, 0
3, 71808, Note_on_c, 1, 61, 76
3, 71968, Note_on_c, 1, 61, 0
3, 72000, Note_on_c, 1, 49, 60
3, 72000, Note_on_c, 1, 52, 60
3, 72048, Note_on_c, 1, 49, 0
3, 72048, Note_on_c, 1, 52, 0
3, 72192, Note_on_c, 1, 52, 60
3, 72192, Note_on_c, 1, 57, 60
3, 72384, Note_on_c, 1, 52, 0
3, 72384, Note_on_c, 1, 57, 0
3, 72384, Note_on_c, 1, 57, 84
3, 72384, Note_on_c, 1, 61, 84
3, 72576, Note_on_c, 1, 57, 0
3, 72576, Note_on_c, 1, 61, 0
3, 72576, Note_on_c, 1, 61, 108
3, 72576, Note_on_c, 1, 64, 108
3, 72736, Note_on_c, 1, 61, 0
3, 72736, Note_on_c, 1, 64, 0
3, 72768, Note_on_c, 1, 64, 108
3, 72768, Note_on_c, 1, 67, 108
3, 72960, Note_on_c, 1, 64, 0
3, 72960, Note_on_c, 1, 67, 0
3, 72960, Note_on_c, 1, 61, 100
3, 72960, Note_on_c, 1, 64, 100
3, 73120, Note_on_c, 1, 61, 0
3, 73120, Note_on_c, 1, 64, 0
3, 73152, Note_on_c, 1, 57, 92
3, 73200, Note_on_c, 1, 57, 0
3, 73344, Note_on_c, 1, 50, 92
3, 73504, Note_on_c, 1, 50, 0
3, 73728, Note_on_c, 1, 66, 92
3, 73776, Note_on_c, 1, 66, 0
3, 73920, Note_on_c, 1, 61, 92
3, 74112, Note_on_c, 1, 61, 0
3, 74112, Note_on_c, 1, 64, 92
3, 74272, Note_on_c, 1, 64, 0
3, 74304, Note_on_c, 1, 61, 92
3, 74352, Note_on_c, 1, 61, 0
3, 74496, Note_on_c, 1, 62, 92
3, 74688, Note_on_c, 1, 62, 0
3, 74688, Note_on_c, 1, 59, 92
3, 74848, Note_on_c, 1, 59, 0
3, 74880, Note_on_c, 1, 64, 92
3, 74928, Note_on_c, 1, 64, 0
3, 75072, Note_on_c, 1, 61, 92
3, 75264, Note_on_c, 1, 61, 0
3, 75264, Note_on_c, 1, 57, 92
3, 75424, Note_on_c, 1, 57, 0
3, 76032, Note_on_c, 1, 69, 45
3, 76128, Note_on_c, 1, 69, 0
3, 76128, Note_on_c, 1, 71, 45
3, 76222, Note_on_c, 1, 71, 0
3, 76224, Note_on_c, 1, 73, 45
3, 76272, Note_on_c, 1, 73, 0
3, 76416, Note_on_c, 1, 69, 52
3, 76512, Note_on_c, 1, 69, 0
3, 76512, Note_on_c, 1, 71, 56
3, 76608, Note_on_c, 1, 71, 0
3, 76608, Note_on_c, 1, 73, 60
3, 76704, Note_on_c, 1, 73, 0
3, 76704, Note_on_c, 1, 74, 64
3, 76798, Note_on_c, 1, 74, 0
3, 76800, Note_on_c, 1, 76, 68
3, 76848, Note_on_c, 1, 76, 0
3, 76992, Note_on_c, 1, 73, 76
3, 77088, Note_on_c, 1, 73, 0
3, 77088, Note_on_c, 1, 74, 80
3, 77184, Note_on_c, 1, 74, 0
3, 77184, Note_on_c, 1, 76, 84
3, 77280, Note_on_c, 1, 76, 0
3, 77280, Note_on_c, 1, 78, 88
3, 77374, Note_on_c, 1, 78, 0
3, 77376, Note_on_c, 1, 73, 92
3, 77376, Note_on_c, 1, 79, 92
3, 77904, Note_on_c, 1, 73, 0
3, 77904, Note_on_c, 1, 79, 0
3, 77952, Note_on_c, 1, 62, 92
3, 77952, Note_on_c, 1, 66, 92
3, 78144, Note_on_c, 1, 62, 0
3, 78144, Note_on_c, 1, 66, 0
3, 78144, Note_on_c, 1, 64, 92
3, 78144, Note_on_c, 1, 67, 92
3, 78336, Note_on_c, 1, 64, 0
3, 78336, Note_on_c, 1, 67, 0
3, 78336, Note_on_c, 1, 66, 92
3, 78336, Note_on_c, 1, 69, 92
3, 78496, Note_on_c, 1, 66, 0
3, 78496, Note_on_c, 1, 69, 0
3, 78528, Note_on_c, 1, 67, 92
3, 78528, Note_on_c, 1, 71, 92
3, 78688, Note_on_c, 1, 67, 0
3, 78688, Note_on_c, 1, 71, 0
3, 78912, Note_on_c, 1, 57, 92
3, 78960, Note_on_c, 1, 57, 0
3, 79104, Note_on_c, 1, 50, 92
3, 79264, Note_on_c, 1, 50, 0
3, 79296, Note_on_c, 1, 62, 92
3, 79456, Note_on_c, 1, 62, 0
3, 79456, End_track
0, 0, End_of_file