0, 0, Header, 1, 10, 480
1, 0, Start_track
1, 0, Time_signature, 4, 2, 48, 8
1, 0, Tempo, 218182
1, 132480, Tempo, 238095
1, 133440, Tempo, 243902
1, 134400, Tempo, 262009
1, 136320, Tempo, 227273
1, 193920, Tempo, 218182
1, 209280, Tempo, 223048
1, 218880, Tempo, 218182
1, 236160, Tempo, 238095
1, 237120, Tempo, 257511
1, 238080, Tempo, 238095
1, 240000, Tempo, 218182
1, 370560, Tempo, 238095
1, 371520, Tempo, 243902
1, 372480, Tempo, 262009
1, 374400, Tempo, 227273
1, 432000, Tempo, 218182
1, 447360, Tempo, 223048
1, 456960, Tempo, 218182
1, 474240, Tempo, 238095
1, 475200, Tempo, 257511
1, 476160, Tempo, 237154
1, 478080, Tempo, 223048
1, 491520, Tempo, 244898
1, 492480, Tempo, 254237
1, 493440, Tempo, 233463
1, 497280, Tempo, 218182
1, 593280, Tempo, 223048
1, 594240, Tempo, 228137
1, 595200, Tempo, 231660
1, 596160, Tempo, 237154
1, 597120, Tempo, 254237
1, 599040, Tempo, 226415
1, 600960, Tempo, 223048
1, 604800, Tempo, 218182
1, 624960, Tempo, 223048
1, 625920, Tempo, 233463
1, 629760, Tempo, 218182
1, 708480, Tempo, 237154
1, 709440, Tempo, 244898
1, 710400, Tempo, 262009
1, 712320, Tempo, 226415
1, 769920, Tempo, 218182
1, 785280, Tempo, 223048
1, 794880, Tempo, 216606
1, 827520, Tempo, 254237
1, 828480, Tempo, 285714
1, 829440, Tempo, 271493
1, 831360, Tempo, 216606
1, 833280, Tempo, 487805
1, 833280, End_track
2, 0, Start_track
2, 0, Sequencer_specific, 04, 43, 00, 01, 00
2, 0, Program_c, 0, 73
2, 0, Control_c, 0, 7, 90
2, 0, Control_c, 0, 10, 56
2, 0, Control_c, 0, 91, 80
2, 5280, Note_on_c, 0, 85, 105
2, 5568, Note_on_c, 0, 85, 0
2, 5760, Note_on_c, 0, 86, 105
2, 6048, Note_on_c, 0, 86, 0
2, 6240, Note_on_c, 0, 85, 105
2, 6528, Note_on_c, 0, 85, 0
2, 6720, Note_on_c, 0, 86, 105
2, 7008, Note_on_c, 0, 86, 0
2, 7200, Note_on_c, 0, 85, 105
2, 7488, Note_on_c, 0, 85, 0
2, 7680, Note_on_c, 0, 86, 105
2, 8448, Note_on_c, 0, 86, 0
2, 12960, Note_on_c, 0, 86, 105
2, 13248, Note_on_c, 0, 86, 0
2, 13440, Note_on_c, 0, 86, 105
2, 13728, Note_on_c, 0, 86, 0
2, 13920, Note_on_c, 0, 86, 105
2, 14208, Note_on_c, 0, 86, 0
2, 14400, Note_on_c, 0, 86, 105
2, 14688, Note_on_c, 0, 86, 0
2, 14880, Note_on_c, 0, 86, 105
2, 15168, Note_on_c, 0, 86, 0
2, 15360, Note_on_c, 0, 86, 105
2, 16128, Note_on_c, 0, 86, 0
2, 20640, Note_on_c, 0, 85, 105
2, 20928, Note_on_c, 0, 85, 0
2, 21120, Note_on_c, 0, 86, 105
2, 21408, Note_on_c, 0, 86, 0
2, 21600, Note_on_c, 0, 85, 105
2, 21888, Note_on_c, 0, 85, 0
2, 22080, Note_on_c, 0, 86, 105
2, 22368, Note_on_c, 0, 86, 0
2, 22560, Note_on_c, 0, 85, 105
2, 22848, Note_on_c, 0, 85, 0
2, 23040, Note_on_c, 0, 86, 105
2, 23808, Note_on_c, 0, 86, 0
2, 28320, Note_on_c, 0, 86, 105
2, 28608, Note_on_c, 0, 86, 0
2, 28800, Note_on_c, 0, 86, 105
2, 29088, Note_on_c, 0, 86, 0
2, 29280, Note_on_c, 0, 86, 105
2, 29568, Note_on_c, 0, 86, 0
2, 29760, Note_on_c, 0, 86, 105
2, 30048, Note_on_c, 0, 86, 0
2, 30240, Note_on_c, 0, 86, 105
2, 30528, Note_on_c, 0, 86, 0
2, 30720, Note_on_c, 0, 86, 105
2, 31488, Note_on_c, 0, 86, 0
2, 32160, Note_on_c, 0, 86, 105
2, 32448, Note_on_c, 0, 86, 0
2, 32640, Note_on_c, 0, 86, 105
2, 33408, Note_on_c, 0, 86, 0
2, 36000, Note_on_c, 0, 86, 105
2, 36288, Note_on_c, 0, 86, 0
2, 36480, Note_on_c, 0, 86, 105
2, 37248, Note_on_c, 0, 86, 0
2, 43680, Note_on_c, 0, 86, 105
2, 43968, Note_on_c, 0, 86, 0
2, 44160, Note_on_c, 0, 86, 105
2, 44448, Note_on_c, 0, 86, 0
2, 44640, Note_on_c, 0, 86, 105
2, 44928, Note_on_c, 0, 86, 0
2, 45120, Note_on_c, 0, 86, 105
2, 45408, Note_on_c, 0, 86, 0
2, 45600, Note_on_c, 0, 86, 105
2, 45888, Note_on_c, 0, 86, 0
2, 46080, Note_on_c, 0, 86, 105
2, 46848, Note_on_c, 0, 86, 0
2, 47520, Note_on_c, 0, 86, 105
2, 47808, Note_on_c, 0, 86, 0
2, 48000, Note_on_c, 0, 86, 105
2, 48768, Note_on_c, 0, 86, 0
2, 51360, Note_on_c, 0, 86, 105
2, 51648, Note_on_c, 0, 86, 0
2, 51840, Note_on_c, 0, 86, 105
2, 52608, Note_on_c, 0, 86, 0
2, 59040, Note_on_c, 0, 86, 105
2, 59328, Note_on_c, 0, 86, 0
2, 59520, Note_on_c, 0, 86, 105
2, 59808, Note_on_c, 0, 86, 0
2, 60000, Note_on_c, 0, 86, 105
2, 60288, Note_on_c, 0, 86, 0
2, 60480, Note_on_c, 0, 86, 105
2, 60768, Note_on_c, 0, 86, 0
2, 60960, Note_on_c, 0, 86, 105
2, 61248, Note_on_c, 0, 86, 0
2, 61440, Note_on_c, 0, 86, 105
2, 62208, Note_on_c, 0, 86, 0
2, 63360, Note_on_c, 0, 84, 105
2, 63648, Note_on_c, 0, 84, 0
2, 63840, Note_on_c, 0, 83, 105
2, 64128, Note_on_c, 0, 83, 0
2, 64320, Note_on_c, 0, 84, 105
2, 64608, Note_on_c, 0, 84, 0
2, 64800, Note_on_c, 0, 83, 105
2, 65088, Note_on_c, 0, 83, 0
2, 65280, Note_on_c, 0, 84, 105
2, 66048, Note_on_c, 0, 84, 0
2, 67200, Note_on_c, 0, 81, 105
2, 67488, Note_on_c, 0, 81, 0
2, 67680, Note_on_c, 0, 81, 105
2, 68544, Note_on_c, 0, 81, 0
2, 68640, Note_on_c, 0, 81, 105
2, 68928, Note_on_c, 0, 81, 0
2, 69120, Note_on_c, 0, 81, 105
2, 69888, Note_on_c, 0, 81, 0
2, 71040, Note_on_c, 0, 86, 105
2, 72576, Note_on_c, 0, 86, 0
2, 72960, Note_on_c, 0, 84, 105
2, 73152, Note_on_c, 0, 84, 0
2, 73200, Note_on_c, 0, 82, 105
2, 73392, Note_on_c, 0, 82, 0
2, 73440, Note_on_c, 0, 81, 105
2, 73632, Note_on_c, 0, 81, 0
2, 73680, Note_on_c, 0, 79, 105
2, 73872, Note_on_c, 0, 79, 0
2, 73920, Note_on_c, 0, 78, 105
2, 74304, Note_on_c, 0, 78, 0
2, 74880, Note_on_c, 0, 86, 105
2, 76416, Note_on_c, 0, 86, 0
2, 76800, Note_on_c, 0, 84, 105
2, 76992, Note_on_c, 0, 84, 0
2, 77040, Note_on_c, 0, 82, 105
2, 77232, Note_on_c, 0, 82, 0
2, 77280, Note_on_c, 0, 81, 105
2, 77472, Note_on_c, 0, 81, 0
2, 77520, Note_on_c, 0, 79, 105
2, 77712, Note_on_c, 0, 79, 0
2, 77760, Note_on_c, 0, 78, 105
2, 78144, Note_on_c, 0, 78, 0
2, 78720, Note_on_c, 0, 86, 105
2, 80256, Note_on_c, 0, 86, 0
2, 80640, Note_on_c, 0, 87, 105
2, 82176, Note_on_c, 0, 87, 0
2, 82560, Note_on_c, 0, 84, 105
2, 84096, Note_on_c, 0, 84, 0
2, 84480, Note_on_c, 0, 86, 105
2, 86016, Note_on_c, 0, 86, 0
2, 88320, Note_on_c, 0, 87, 105
2, 88512, Note_on_c, 0, 87, 0
2, 88560, Note_on_c, 0, 89, 105
2, 88752, Note_on_c, 0, 89, 0
2, 88800, Note_on_c, 0, 91, 105
2, 88992, Note_on_c, 0, 91, 0
2, 89040, Note_on_c, 0, 89, 105
2, 89232, Note_on_c, 0, 89, 0
2, 89280, Note_on_c, 0, 87, 105
2, 89472, Note_on_c, 0, 87, 0
2, 89520, Note_on_c, 0, 86, 105
2, 89712, Note_on_c, 0, 86, 0
2, 89760, Note_on_c, 0, 84, 105
2, 89952, Note_on_c, 0, 84, 0
2, 90000, Note_on_c, 0, 82, 105
2, 90192, Note_on_c, 0, 82, 0
2, 90240, Note_on_c, 0, 81, 105
2, 90432, Note_on_c, 0, 81, 0
2, 90480, Note_on_c, 0, 82, 105
2, 90672, Note_on_c, 0, 82, 0
2, 90720, Note_on_c, 0, 84, 105
2, 90912, Note_on_c, 0, 84, 0
2, 90960, Note_on_c, 0, 82, 105
2, 91152, Note_on_c, 0, 82, 0
2, 91200, Note_on_c, 0, 81, 105
2, 91392, Note_on_c, 0, 81, 0
2, 91440, Note_on_c, 0, 79, 105
2, 91632, Note_on_c, 0, 79, 0
2, 91680, Note_on_c, 0, 77, 105
2, 91872, Note_on_c, 0, 77, 0
2, 91920, Note_on_c, 0, 76, 105
2, 92112, Note_on_c, 0, 76, 0
2, 92160, Note_on_c, 0, 77, 105
2, 92928, Note_on_c, 0, 77, 0
2, 94080, Note_on_c, 0, 86, 105
2, 94368, Note_on_c, 0, 86, 0
2, 94560, Note_on_c, 0, 87, 105
2, 94848, Note_on_c, 0, 87, 0
2, 95040, Note_on_c, 0, 86, 105
2, 95328, Note_on_c, 0, 86, 0
2, 95520, Note_on_c, 0, 87, 105
2, 95808, Note_on_c, 0, 87, 0
2, 96000, Note_on_c, 0, 86, 105
2, 96768, Note_on_c, 0, 86, 0
2, 97920, Note_on_c, 0, 82, 105
2, 98208, Note_on_c, 0, 82, 0
2, 98400, Note_on_c, 0, 84, 105
2, 98688, Note_on_c, 0, 84, 0
2, 98880, Note_on_c, 0, 82, 105
2, 99168, Note_on_c, 0, 82, 0
2, 99360, Note_on_c, 0, 84, 105
2, 99648, Note_on_c, 0, 84, 0
2, 99840, Note_on_c, 0, 82, 105
2, 100608, Note_on_c, 0, 82, 0
2, 101760, Note_on_c, 0, 84, 105
2, 102048, Note_on_c, 0, 84, 0
2, 102240, Note_on_c, 0, 86, 105
2, 102528, Note_on_c, 0, 86, 0
2, 102720, Note_on_c, 0, 84, 105
2, 103008, Note_on_c, 0, 84, 0
2, 103200, Note_on_c, 0, 86, 105
2, 103488, Note_on_c, 0, 86, 0
2, 103680, Note_on_c, 0, 84, 105
2, 104448, Note_on_c, 0, 84, 0
2, 105600, Note_on_c, 0, 89, 105
2, 105888, Note_on_c, 0, 89, 0
2, 106080, Note_on_c, 0, 90, 105
2, 106368, Note_on_c, 0, 90, 0
2, 106560, Note_on_c, 0, 89, 105
2, 106848, Note_on_c, 0, 89, 0
2, 107040, Note_on_c, 0, 90, 105
2, 107328, Note_on_c, 0, 90, 0
2, 107520, Note_on_c, 0, 89, 105
2, 108288, Note_on_c, 0, 89, 0
2, 109440, Note_on_c, 0, 77, 105
2, 110976, Note_on_c, 0, 77, 0
2, 111360, Note_on_c, 0, 78, 105
2, 112896, Note_on_c, 0, 78, 0
2, 113280, Note_on_c, 0, 79, 105
2, 114816, Note_on_c, 0, 79, 0
2, 115200, Note_on_c, 0, 86, 105
2, 116736, Note_on_c, 0, 86, 0
2, 117120, Note_on_c, 0, 87, 105
2, 118656, Note_on_c, 0, 87, 0
2, 119040, Note_on_c, 0, 83, 105
2, 120576, Note_on_c, 0, 83, 0
2, 120960, Note_on_c, 0, 84, 105
2, 121728, Note_on_c, 0, 84, 0
2, 121920, Note_on_c, 0, 83, 105
2, 122688, Note_on_c, 0, 83, 0
2, 122880, Note_on_c, 0, 84, 105
2, 123648, Note_on_c, 0, 84, 0
2, 123840, Note_on_c, 0, 82, 105
2, 124608, Note_on_c, 0, 82, 0
2, 124800, Note_on_c, 0, 81, 105
2, 126336, Note_on_c, 0, 81, 0
2, 126720, Note_on_c, 0, 79, 105
2, 128256, Note_on_c, 0, 79, 0
2, 128640, Note_on_c, 0, 84, 105
2, 130176, Note_on_c, 0, 84, 0
2, 130560, Note_on_c, 0, 88, 105
2, 132096, Note_on_c, 0, 88, 0
2, 132480, Note_on_c, 0, 89, 105
2, 132864, Note_on_c, 0, 89, 0
2, 133440, Note_on_c, 0, 89, 105
2, 133824, Note_on_c, 0, 89, 0
2, 134400, Note_on_c, 0, 77, 92
2, 135168, Note_on_c, 0, 77, 0
2, 184320, Note_on_c, 0, 89, 70
2, 187200, Note_on_c, 0, 89, 0
2, 187200, Note_on_c, 0, 88, 70
2, 188160, Note_on_c, 0, 88, 0
2, 188160, Note_on_c, 0, 87, 70
2, 189120, Note_on_c, 0, 87, 0
2, 189120, Note_on_c, 0, 86, 70
2, 189888, Note_on_c, 0, 86, 0
2, 190080, Note_on_c, 0, 87, 70
2, 192000, Note_on_c, 0, 87, 0
2, 192000, Note_on_c, 0, 86, 70
2, 192720, Note_on_c, 0, 86, 0
2, 192960, Note_on_c, 0, 84, 70
2, 193680, Note_on_c, 0, 84, 0
2, 193920, Note_on_c, 0, 82, 92
2, 194688, Note_on_c, 0, 82, 0
2, 195840, Note_on_c, 0, 86, 105
2, 196128, Note_on_c, 0, 86, 0
2, 196320, Note_on_c, 0, 84, 105
2, 196608, Note_on_c, 0, 84, 0
2, 196800, Note_on_c, 0, 86, 105
2, 197088, Note_on_c, 0, 86, 0
2, 197280, Note_on_c, 0, 84, 105
2, 197568, Note_on_c, 0, 84, 0
2, 197760, Note_on_c, 0, 86, 105
2, 198528, Note_on_c, 0, 86, 0
2, 199680, Note_on_c, 0, 86, 105
2, 199968, Note_on_c, 0, 86, 0
2, 200160, Note_on_c, 0, 84, 105
2, 200448, Note_on_c, 0, 84, 0
2, 200640, Note_on_c, 0, 86, 105
2, 200928, Note_on_c, 0, 86, 0
2, 201120, Note_on_c, 0, 84, 105
2, 201408, Note_on_c, 0, 84, 0
2, 201600, Note_on_c, 0, 86, 105
2, 202368, Note_on_c, 0, 86, 0
2, 203520, Note_on_c, 0, 86, 105
2, 203808, Note_on_c, 0, 86, 0
2, 204000, Note_on_c, 0, 84, 105
2, 204288, Note_on_c, 0, 84, 0
2, 204480, Note_on_c, 0, 86, 105
2, 204768, Note_on_c, 0, 86, 0
2, 204960, Note_on_c, 0, 84, 105
2, 205248, Note_on_c, 0, 84, 0
2, 205440, Note_on_c, 0, 89, 105
2, 206208, Note_on_c, 0, 89, 0
2, 206400, Note_on_c, 0, 87, 105
2, 207168, Note_on_c, 0, 87, 0
2, 207360, Note_on_c, 0, 86, 105
2, 208128, Note_on_c, 0, 86, 0
2, 208320, Note_on_c, 0, 84, 105
2, 209088, Note_on_c, 0, 84, 0
2, 209280, Note_on_c, 0, 82, 92
2, 209664, Note_on_c, 0, 82, 0
2, 218880, Note_on_c, 0, 86, 105
2, 219168, Note_on_c, 0, 86, 0
2, 219360, Note_on_c, 0, 84, 105
2, 219648, Note_on_c, 0, 84, 0
2, 219840, Note_on_c, 0, 86, 105
2, 220128, Note_on_c, 0, 86, 0
2, 220320, Note_on_c, 0, 84, 105
2, 220608, Note_on_c, 0, 84, 0
2, 220800, Note_on_c, 0, 89, 105
2, 221568, Note_on_c, 0, 89, 0
2, 221760, Note_on_c, 0, 87, 105
2, 222528, Note_on_c, 0, 87, 0
2, 222720, Note_on_c, 0, 86, 105
2, 223488, Note_on_c, 0, 86, 0
2, 223680, Note_on_c, 0, 84, 105
2, 224448, Note_on_c, 0, 84, 0
2, 224640, Note_on_c, 0, 82, 105
2, 225408, Note_on_c, 0, 82, 0
2, 226080, Note_on_c, 0, 82, 105
2, 226368, Note_on_c, 0, 82, 0
2, 226560, Note_on_c, 0, 81, 105
2, 226848, Note_on_c, 0, 81, 0
2, 227040, Note_on_c, 0, 77, 105
2, 227328, Note_on_c, 0, 77, 0
2, 227520, Note_on_c, 0, 89, 105
2, 227808, Note_on_c, 0, 89, 0
2, 228000, Note_on_c, 0, 89, 105
2, 228288, Note_on_c, 0, 89, 0
2, 228480, Note_on_c, 0, 86, 105
2, 229632, Note_on_c, 0, 86, 0
2, 229920, Note_on_c, 0, 82, 105
2, 230208, Note_on_c, 0, 82, 0
2, 230400, Note_on_c, 0, 81, 105
2, 230688, Note_on_c, 0, 81, 0
2, 230880, Note_on_c, 0, 77, 105
2, 231168, Note_on_c, 0, 77, 0
2, 231360, Note_on_c, 0, 89, 105
2, 231648, Note_on_c, 0, 89, 0
2, 231840, Note_on_c, 0, 89, 105
2, 232128, Note_on_c, 0, 89, 0
2, 232320, Note_on_c, 0, 86, 105
2, 233472, Note_on_c, 0, 86, 0
2, 233760, Note_on_c, 0, 82, 105
2, 234048, Note_on_c, 0, 82, 0
2, 234240, Note_on_c, 0, 81, 105
2, 234528, Note_on_c, 0, 81, 0
2, 234720, Note_on_c, 0, 77, 105
2, 235008, Note_on_c, 0, 77, 0
2, 235200, Note_on_c, 0, 89, 105
2, 235488, Note_on_c, 0, 89, 0
2, 235680, Note_on_c, 0, 89, 105
2, 235968, Note_on_c, 0, 89, 0
2, 236160, Note_on_c, 0, 82, 105
2, 236544, Note_on_c, 0, 82, 0
2, 237120, Note_on_c, 0, 86, 105
2, 237504, Note_on_c, 0, 86, 0
2, 238080, Note_on_c, 0, 82, 105
2, 238848, Note_on_c, 0, 82, 0
2, 243360, Note_on_c, 0, 85, 105
2, 243648, Note_on_c, 0, 85, 0
2, 243840, Note_on_c, 0, 86, 105
2, 244128, Note_on_c, 0, 86, 0
2, 244320, Note_on_c, 0, 85, 105
2, 244608, Note_on_c, 0, 85, 0
2, 244800, Note_on_c, 0, 86, 105
2, 245088, Note_on_c, 0, 86, 0
2, 245280, Note_on_c, 0, 85, 105
2, 245568, Note_on_c, 0, 85, 0
2, 245760, Note_on_c, 0, 86, 105
2, 246528, Note_on_c, 0, 86, 0
2, 251040, Note_on_c, 0, 86, 105
2, 251328, Note_on_c, 0, 86, 0
2, 251520, Note_on_c, 0, 86, 105
2, 251808, Note_on_c, 0, 86, 0
2, 252000, Note_on_c, 0, 86, 105
2, 252288, Note_on_c, 0, 86, 0
2, 252480, Note_on_c, 0, 86, 105
2, 252768, Note_on_c, 0, 86, 0
2, 252960, Note_on_c, 0, 86, 105
2, 253248, Note_on_c, 0, 86, 0
2, 253440, Note_on_c, 0, 86, 105
2, 254208, Note_on_c, 0, 86, 0
2, 258720, Note_on_c, 0, 85, 105
2, 259008, Note_on_c, 0, 85, 0
2, 259200, Note_on_c, 0, 86, 105
2, 259488, Note_on_c, 0, 86, 0
2, 259680, Note_on_c, 0, 85, 105
2, 259968, Note_on_c, 0, 85, 0
2, 260160, Note_on_c, 0, 86, 105
2, 260448, Note_on_c, 0, 86, 0
2, 260640, Note_on_c, 0, 85, 105
2, 260928, Note_on_c, 0, 85, 0
2, 261120, Note_on_c, 0, 86, 105
2, 261888, Note_on_c, 0, 86, 0
2, 266400, Note_on_c, 0, 86, 105
2, 266688, Note_on_c, 0, 86, 0
2, 266880, Note_on_c, 0, 86, 105
2, 267168, Note_on_c, 0, 86, 0
2, 267360, Note_on_c, 0, 86, 105
2, 267648, Note_on_c, 0, 86, 0
2, 267840, Note_on_c, 0, 86, 105
2, 268128, Note_on_c, 0, 86, 0
2, 268320, Note_on_c, 0, 86, 105
2, 268608, Note_on_c, 0, 86, 0
2, 268800, Note_on_c, 0, 86, 105
2, 269568, Note_on_c, 0, 86, 0
2, 270240, Note_on_c, 0, 86, 105
2, 270528, Note_on_c, 0, 86, 0
2, 270720, Note_on_c, 0, 86, 105
2, 271488, Note_on_c, 0, 86, 0
2, 274080, Note_on_c, 0, 86, 105
2, 274368, Note_on_c, 0, 86, 0
2, 274560, Note_on_c, 0, 86, 105
2, 275328, Note_on_c, 0, 86, 0
2, 281760, Note_on_c, 0, 86, 105
2, 282048, Note_on_c, 0, 86, 0
2, 282240, Note_on_c, 0, 86, 105
2, 282528, Note_on_c, 0, 86, 0
2, 282720, Note_on_c, 0, 86, 105
2, 283008, Note_on_c, 0, 86, 0
2, 283200, Note_on_c, 0, 86, 105
2, 283488, Note_on_c, 0, 86, 0
2, 283680, Note_on_c, 0, 86, 105
2, 283968, Note_on_c, 0, 86, 0
2, 284160, Note_on_c, 0, 86, 105
2, 284928, Note_on_c, 0, 86, 0
2, 285600, Note_on_c, 0, 86, 105
2, 285888, Note_on_c, 0, 86, 0
2, 286080, Note_on_c, 0, 86, 105
2, 286848, Note_on_c, 0, 86, 0
2, 289440, Note_on_c, 0, 86, 105
2, 289728, Note_on_c, 0, 86, 0
2, 289920, Note_on_c, 0, 86, 105
2, 290688, Note_on_c, 0, 86, 0
2, 297120, Note_on_c, 0, 86, 105
2, 297408, Note_on_c, 0, 86, 0
2, 297600, Note_on_c, 0, 86, 105
2, 297888, Note_on_c, 0, 86, 0
2, 298080, Note_on_c, 0, 86, 105
2, 298368, Note_on_c, 0, 86, 0
2, 298560, Note_on_c, 0, 86, 105
2, 298848, Note_on_c, 0, 86, 0
2, 299040, Note_on_c, 0, 86, 105
2, 299328, Note_on_c, 0, 86, 0
2, 299520, Note_on_c, 0, 86, 105
2, 300288, Note_on_c, 0, 86, 0
2, 301440, Note_on_c, 0, 84, 105
2, 301728, Note_on_c, 0, 84, 0
2, 301920, Note_on_c, 0, 83, 105
2, 302208, Note_on_c, 0, 83, 0
2, 302400, Note_on_c, 0, 84, 105
2, 302688, Note_on_c, 0, 84, 0
2, 302880, Note_on_c, 0, 83, 105
2, 303168, Note_on_c, 0, 83, 0
2, 303360, Note_on_c, 0, 84, 105
2, 304128, Note_on_c, 0, 84, 0
2, 305280, Note_on_c, 0, 81, 105
2, 305568, Note_on_c, 0, 81, 0
2, 305760, Note_on_c, 0, 81, 105
2, 306624, Note_on_c, 0, 81, 0
2, 306720, Note_on_c, 0, 81, 105
2, 307008, Note_on_c, 0, 81, 0
2, 307200, Note_on_c, 0, 81, 105
2, 307968, Note_on_c, 0, 81, 0
2, 309120, Note_on_c, 0, 86, 105
2, 310656, Note_on_c, 0, 86, 0
2, 311040, Note_on_c, 0, 84, 105
2, 311232, Note_on_c, 0, 84, 0
2, 311280, Note_on_c, 0, 82, 105
2, 311472, Note_on_c, 0, 82, 0
2, 311520, Note_on_c, 0, 81, 105
2, 311712, Note_on_c, 0, 81, 0
2, 311760, Note_on_c, 0, 79, 105
2, 311952, Note_on_c, 0, 79, 0
2, 312000, Note_on_c, 0, 78, 105
2, 312384, Note_on_c, 0, 78, 0
2, 312960, Note_on_c, 0, 86, 105
2, 314496, Note_on_c, 0, 86, 0
2, 314880, Note_on_c, 0, 84, 105
2, 315072, Note_on_c, 0, 84, 0
2, 315120, Note_on_c, 0, 82, 105
2, 315312, Note_on_c, 0, 82, 0
2, 315360, Note_on_c, 0, 81, 105
2, 315552, Note_on_c, 0, 81, 0
2, 315600, Note_on_c, 0, 79, 105
2, 315792, Note_on_c, 0, 79, 0
2, 315840, Note_on_c, 0, 78, 105
2, 316224, Note_on_c, 0, 78, 0
2, 316800, Note_on_c, 0, 86, 105
2, 318336, Note_on_c, 0, 86, 0
2, 318720, Note_on_c, 0, 87, 105
2, 320256, Note_on_c, 0, 87, 0
2, 320640, Note_on_c, 0, 84, 105
2, 322176, Note_on_c, 0, 84, 0
2, 322560, Note_on_c, 0, 86, 105
2, 324096, Note_on_c, 0, 86, 0
2, 326400, Note_on_c, 0, 87, 105
2, 326592, Note_on_c, 0, 87, 0
2, 326640, Note_on_c, 0, 89, 105
2, 326832, Note_on_c, 0, 89, 0
2, 326880, Note_on_c, 0, 91, 105
2, 327072, Note_on_c, 0, 91, 0
2, 327120, Note_on_c, 0, 89, 105
2, 327312, Note_on_c, 0, 89, 0
2, 327360, Note_on_c, 0, 87, 105
2, 327552, Note_on_c, 0, 87, 0
2, 327600, Note_on_c, 0, 86, 105
2, 327792, Note_on_c, 0, 86, 0
2, 327840, Note_on_c, 0, 84, 105
2, 328032, Note_on_c, 0, 84, 0
2, 328080, Note_on_c, 0, 82, 105
2, 328272, Note_on_c, 0, 82, 0
2, 328320, Note_on_c, 0, 81, 105
2, 328512, Note_on_c, 0, 81, 0
2, 328560, Note_on_c, 0, 82, 105
2, 328752, Note_on_c, 0, 82, 0
2, 328800, Note_on_c, 0, 84, 105
2, 328992, Note_on_c, 0, 84, 0
2, 329040, Note_on_c, 0, 82, 105
2, 329232, Note_on_c, 0, 82, 0
2, 329280, Note_on_c, 0, 81, 105
2, 329472, Note_on_c, 0, 81, 0
2, 329520, Note_on_c, 0, 79, 105
2, 329712, Note_on_c, 0, 79, 0
2, 329760, Note_on_c, 0, 77, 105
2, 329952, Note_on_c, 0, 77, 0
2, 330000, Note_on_c, 0, 76, 105
2, 330192, Note_on_c, 0, 76, 0
2, 330240, Note_on_c, 0, 77, 105
2, 331008, Note_on_c, 0, 77, 0
2, 332160, Note_on_c, 0, 86, 105
2, 332448, Note_on_c, 0, 86, 0
2, 332640, Note_on_c, 0, 87, 105
2, 332928, Note_on_c, 0, 87, 0
2, 333120, Note_on_c, 0, 86, 105
2, 333408, Note_on_c, 0, 86, 0
2, 333600, Note_on_c, 0, 87, 105
2, 333888, Note_on_c, 0, 87, 0
2, 334080, Note_on_c, 0, 86, 105
2, 334848, Note_on_c, 0, 86, 0
2, 336000, Note_on_c, 0, 82, 105
2, 336288, Note_on_c, 0, 82, 0
2, 336480, Note_on_c, 0, 84, 105
2, 336768, Note_on_c, 0, 84, 0
2, 336960, Note_on_c, 0, 82, 105
2, 337248, Note_on_c, 0, 82, 0
2, 337440, Note_on_c, 0, 84, 105
2, 337728, Note_on_c, 0, 84, 0
2, 337920, Note_on_c, 0, 82, 105
2, 338688, Note_on_c, 0, 82, 0
2, 339840, Note_on_c, 0, 84, 105
2, 340128, Note_on_c, 0, 84, 0
2, 340320, Note_on_c, 0, 86, 105
2, 340608, Note_on_c, 0, 86, 0
2, 340800, Note_on_c, 0, 84, 105
2, 341088, Note_on_c, 0, 84, 0
2, 341280, Note_on_c, 0, 86, 105
2, 341568, Note_on_c, 0, 86, 0
2, 341760, Note_on_c, 0, 84, 105
2, 342528, Note_on_c, 0, 84, 0
2, 343680, Note_on_c, 0, 89, 105
2, 343968, Note_on_c, 0, 89, 0
2, 344160, Note_on_c, 0, 90, 105
2, 344448, Note_on_c, 0, 90, 0
2, 344640, Note_on_c, 0, 89, 105
2, 344928, Note_on_c, 0, 89, 0
2, 345120, Note_on_c, 0, 90, 105
2, 345408, Note_on_c, 0, 90, 0
2, 345600, Note_on_c, 0, 89, 105
2, 346368, Note_on_c, 0, 89, 0
2, 347520, Note_on_c, 0, 77, 105
2, 349056, Note_on_c, 0, 77, 0
2, 349440, Note_on_c, 0, 78, 105
2, 350976, Note_on_c, 0, 78, 0
2, 351360, Note_on_c, 0, 79, 105
2, 352896, Note_on_c, 0, 79, 0
2, 353280, Note_on_c, 0, 86, 105
2, 354816, Note_on_c, 0, 86, 0
2, 355200, Note_on_c, 0, 87, 105
2, 356736, Note_on_c, 0, 87, 0
2, 357120, Note_on_c, 0, 83, 105
2, 358656, Note_on_c, 0, 83, 0
2, 359040, Note_on_c, 0, 84, 105
2, 359808, Note_on_c, 0, 84, 0
2, 360000, Note_on_c, 0, 83, 105
2, 360768, Note_on_c, 0, 83, 0
2, 360960, Note_on_c, 0, 84, 105
2, 361728, Note_on_c, 0, 84, 0
2, 361920, Note_on_c, 0, 82, 105
2, 362688, Note_on_c, 0, 82, 0
2, 362880, Note_on_c, 0, 81, 105
2, 364416, Note_on_c, 0, 81, 0
2, 364800, Note_on_c, 0, 79, 105
2, 366336, Note_on_c, 0, 79, 0
2, 366720, Note_on_c, 0, 84, 105
2, 368256, Note_on_c, 0, 84, 0
2, 368640, Note_on_c, 0, 88, 105
2, 370176, Note_on_c, 0, 88, 0
2, 370560, Note_on_c, 0, 89, 105
2, 370944, Note_on_c, 0, 89, 0
2, 371520, Note_on_c, 0, 89, 105
2, 371904, Note_on_c, 0, 89, 0
2, 372480, Note_on_c, 0, 77, 92
2, 373248, Note_on_c, 0, 77, 0
2, 422400, Note_on_c, 0, 89, 70
2, 425280, Note_on_c, 0, 89, 0
2, 425280, Note_on_c, 0, 88, 70
2, 426240, Note_on_c, 0, 88, 0
2, 426240, Note_on_c, 0, 87, 70
2, 427200, Note_on_c, 0, 87, 0
2, 427200, Note_on_c, 0, 86, 70
2, 427968, Note_on_c, 0, 86, 0
2, 428160, Note_on_c, 0, 87, 70
2, 430080, Note_on_c, 0, 87, 0
2, 430080, Note_on_c, 0, 86, 70
2, 430800, Note_on_c, 0, 86, 0
2, 431040, Note_on_c, 0, 84, 70
2, 431760, Note_on_c, 0, 84, 0
2, 432000, Note_on_c, 0, 82, 92
2, 432768, Note_on_c, 0, 82, 0
2, 433920, Note_on_c, 0, 86, 105
2, 434208, Note_on_c, 0, 86, 0
2, 434400, Note_on_c, 0, 84, 105
2, 434688, Note_on_c, 0, 84, 0
2, 434880, Note_on_c, 0, 86, 105
2, 435168, Note_on_c, 0, 86, 0
2, 435360, Note_on_c, 0, 84, 105
2, 435648, Note_on_c, 0, 84, 0
2, 435840, Note_on_c, 0, 86, 105
2, 436608, Note_on_c, 0, 86, 0
2, 437760, Note_on_c, 0, 86, 105
2, 438048, Note_on_c, 0, 86, 0
2, 438240, Note_on_c, 0, 84, 105
2, 438528, Note_on_c, 0, 84, 0
2, 438720, Note_on_c, 0, 86, 105
2, 439008, Note_on_c, 0, 86, 0
2, 439200, Note_on_c, 0, 84, 105
2, 439488, Note_on_c, 0, 84, 0
2, 439680, Note_on_c, 0, 86, 105
2, 440448, Note_on_c, 0, 86, 0
2, 441600, Note_on_c, 0, 86, 105
2, 441888, Note_on_c, 0, 86, 0
2, 442080, Note_on_c, 0, 84, 105
2, 442368, Note_on_c, 0, 84, 0
2, 442560, Note_on_c, 0, 86, 105
2, 442848, Note_on_c, 0, 86, 0
2, 443040, Note_on_c, 0, 84, 105
2, 443328, Note_on_c, 0, 84, 0
2, 443520, Note_on_c, 0, 89, 105
2, 444288, Note_on_c, 0, 89, 0
2, 444480, Note_on_c, 0, 87, 105
2, 445248, Note_on_c, 0, 87, 0
2, 445440, Note_on_c, 0, 86, 105
2, 446208, Note_on_c, 0, 86, 0
2, 446400, Note_on_c, 0, 84, 105
2, 447168, Note_on_c, 0, 84, 0
2, 447360, Note_on_c, 0, 82, 92
2, 447744, Note_on_c, 0, 82, 0
2, 456960, Note_on_c, 0, 86, 105
2, 457248, Note_on_c, 0, 86, 0
2, 457440, Note_on_c, 0, 84, 105
2, 457728, Note_on_c, 0, 84, 0
2, 457920, Note_on_c, 0, 86, 105
2, 458208, Note_on_c, 0, 86, 0
2, 458400, Note_on_c, 0, 84, 105
2, 458688, Note_on_c, 0, 84, 0
2, 458880, Note_on_c, 0, 89, 105
2, 459648, Note_on_c, 0, 89, 0
2, 459840, Note_on_c, 0, 87, 105
2, 460608, Note_on_c, 0, 87, 0
2, 460800, Note_on_c, 0, 86, 105
2, 461568, Note_on_c, 0, 86, 0
2, 461760, Note_on_c, 0, 84, 105
2, 462528, Note_on_c, 0, 84, 0
2, 462720, Note_on_c, 0, 82, 105
2, 463488, Note_on_c, 0, 82, 0
2, 464160, Note_on_c, 0, 82, 105
2, 464448, Note_on_c, 0, 82, 0
2, 464640, Note_on_c, 0, 81, 105
2, 464928, Note_on_c, 0, 81, 0
2, 465120, Note_on_c, 0, 77, 105
2, 465408, Note_on_c, 0, 77, 0
2, 465600, Note_on_c, 0, 89, 105
2, 465888, Note_on_c, 0, 89, 0
2, 466080, Note_on_c, 0, 89, 105
2, 466368, Note_on_c, 0, 89, 0
2, 466560, Note_on_c, 0, 86, 105
2, 467712, Note_on_c, 0, 86, 0
2, 468000, Note_on_c, 0, 82, 105
2, 468288, Note_on_c, 0, 82, 0
2, 468480, Note_on_c, 0, 81, 105
2, 468768, Note_on_c, 0, 81, 0
2, 468960, Note_on_c, 0, 77, 105
2, 469248, Note_on_c, 0, 77, 0
2, 469440, Note_on_c, 0, 89, 105
2, 469728, Note_on_c, 0, 89, 0
2, 469920, Note_on_c, 0, 89, 105
2, 470208, Note_on_c, 0, 89, 0
2, 470400, Note_on_c, 0, 86, 105
2, 471552, Note_on_c, 0, 86, 0
2, 471840, Note_on_c, 0, 82, 105
2, 472128, Note_on_c, 0, 82, 0
2, 472320, Note_on_c, 0, 81, 105
2, 472608, Note_on_c, 0, 81, 0
2, 472800, Note_on_c, 0, 77, 105
2, 473088, Note_on_c, 0, 77, 0
2, 473280, Note_on_c, 0, 89, 105
2, 473568, Note_on_c, 0, 89, 0
2, 473760, Note_on_c, 0, 89, 105
2, 474048, Note_on_c, 0, 89, 0
2, 474240, Note_on_c, 0, 82, 105
2, 474624, Note_on_c, 0, 82, 0
2, 475200, Note_on_c, 0, 86, 105
2, 475584, Note_on_c, 0, 86, 0
2, 476160, Note_on_c, 0, 82, 92
2, 476928, Note_on_c, 0, 82, 0
2, 477600, Note_on_c, 0, 70, 112
2, 478080, Note_on_c, 0, 70, 0
2, 478080, Note_on_c, 0, 74, 105
2, 478368, Note_on_c, 0, 74, 0
2, 478560, Note_on_c, 0, 77, 105
2, 478848, Note_on_c, 0, 77, 0
2, 479040, Note_on_c, 0, 81, 105
2, 479328, Note_on_c, 0, 81, 0
2, 479520, Note_on_c, 0, 82, 105
2, 479808, Note_on_c, 0, 82, 0
2, 480000, Note_on_c, 0, 85, 105
2, 480960, Note_on_c, 0, 85, 0
2, 480960, Note_on_c, 0, 84, 105
2, 481248, Note_on_c, 0, 84, 0
2, 481440, Note_on_c, 0, 76, 105
2, 481728, Note_on_c, 0, 76, 0
2, 481920, Note_on_c, 0, 80, 105
2, 482256, Note_on_c, 0, 80, 0
2, 482880, Note_on_c, 0, 71, 105
2, 483216, Note_on_c, 0, 71, 0
2, 485520, Note_on_c, 0, 83, 105
2, 485600, Note_on_c, 0, 83, 0
2, 485600, Note_on_c, 0, 84, 105
2, 485680, Note_on_c, 0, 84, 0
2, 485680, Note_on_c, 0, 86, 105
2, 485760, Note_on_c, 0, 86, 0
2, 485760, Note_on_c, 0, 87, 105
2, 486096, Note_on_c, 0, 87, 0
2, 486720, Note_on_c, 0, 78, 105
2, 487056, Note_on_c, 0, 78, 0
2, 487680, Note_on_c, 0, 82, 105
2, 488016, Note_on_c, 0, 82, 0
2, 489600, Note_on_c, 0, 73, 105
2, 489936, Note_on_c, 0, 73, 0
2, 491520, Note_on_c, 0, 89, 105
2, 491856, Note_on_c, 0, 89, 0
2, 492480, Note_on_c, 0, 80, 105
2, 492816, Note_on_c, 0, 80, 0
2, 500640, Note_on_c, 0, 73, 80
2, 501120, Note_on_c, 0, 73, 0
2, 501120, Note_on_c, 0, 74, 80
2, 501408, Note_on_c, 0, 74, 0
2, 501600, Note_on_c, 0, 77, 80
2, 501888, Note_on_c, 0, 77, 0
2, 502080, Note_on_c, 0, 81, 80
2, 502368, Note_on_c, 0, 81, 0
2, 502560, Note_on_c, 0, 86, 80
2, 502848, Note_on_c, 0, 86, 0
2, 503040, Note_on_c, 0, 89, 80
2, 504000, Note_on_c, 0, 89, 0
2, 504000, Note_on_c, 0, 88, 80
2, 504288, Note_on_c, 0, 88, 0
2, 504480, Note_on_c, 0, 86, 80
2, 504768, Note_on_c, 0, 86, 0
2, 504960, Note_on_c, 0, 85, 58
2, 505248, Note_on_c, 0, 85, 0
2, 516000, Note_on_c, 0, 71, 58
2, 516480, Note_on_c, 0, 71, 0
2, 516480, Note_on_c, 0, 72, 70
2, 516768, Note_on_c, 0, 72, 0
2, 516960, Note_on_c, 0, 76, 70
2, 517248, Note_on_c, 0, 76, 0
2, 517440, Note_on_c, 0, 79, 70
2, 517728, Note_on_c, 0, 79, 0
2, 517920, Note_on_c, 0, 82, 70
2, 518208, Note_on_c, 0, 82, 0
2, 518400, Note_on_c, 0, 85, 70
2, 519360, Note_on_c, 0, 85, 0
2, 519360, Note_on_c, 0, 84, 70
2, 519648, Note_on_c, 0, 84, 0
2, 519840, Note_on_c, 0, 82, 70
2, 520128, Note_on_c, 0, 82, 0
2, 520320, Note_on_c, 0, 80, 70
2, 520608, Note_on_c, 0, 80, 0
2, 547200, Note_on_c, 0, 84, 92
2, 548736, Note_on_c, 0, 84, 0
2, 549120, Note_on_c, 0, 78, 92
2, 550656, Note_on_c, 0, 78, 0
2, 551040, Note_on_c, 0, 79, 92
2, 551808, Note_on_c, 0, 79, 0
2, 554880, Note_on_c, 0, 86, 105
2, 556416, Note_on_c, 0, 86, 0
2, 556800, Note_on_c, 0, 80, 105
2, 558336, Note_on_c, 0, 80, 0
2, 558720, Note_on_c, 0, 81, 105
2, 559488, Note_on_c, 0, 81, 0
2, 562560, Note_on_c, 0, 88, 105
2, 564096, Note_on_c, 0, 88, 0
2, 564480, Note_on_c, 0, 82, 105
2, 566016, Note_on_c, 0, 82, 0
2, 566400, Note_on_c, 0, 83, 105
2, 567168, Note_on_c, 0, 83, 0
2, 570240, Note_on_c, 0, 90, 105
2, 571776, Note_on_c, 0, 90, 0
2, 572160, Note_on_c, 0, 91, 105
2, 573312, Note_on_c, 0, 91, 0
2, 573600, Note_on_c, 0, 67, 125
2, 574080, Note_on_c, 0, 67, 0
2, 574080, Note_on_c, 0, 68, 105
2, 574368, Note_on_c, 0, 68, 0
2, 574560, Note_on_c, 0, 68, 105
2, 574848, Note_on_c, 0, 68, 0
2, 575040, Note_on_c, 0, 72, 105
2, 575328, Note_on_c, 0, 72, 0
2, 575520, Note_on_c, 0, 75, 105
2, 575808, Note_on_c, 0, 75, 0
2, 576000, Note_on_c, 0, 78, 105
2, 576960, Note_on_c, 0, 78, 0
2, 576960, Note_on_c, 0, 76, 105
2, 577248, Note_on_c, 0, 76, 0
2, 577440, Note_on_c, 0, 75, 105
2, 577728, Note_on_c, 0, 75, 0
2, 577920, Note_on_c, 0, 76, 105
2, 578688, Note_on_c, 0, 76, 0
2, 581280, Note_on_c, 0, 68, 125
2, 582048, Note_on_c, 0, 68, 0
2, 582240, Note_on_c, 0, 72, 105
2, 582528, Note_on_c, 0, 72, 0
2, 582720, Note_on_c, 0, 75, 105
2, 583008, Note_on_c, 0, 75, 0
2, 583200, Note_on_c, 0, 78, 105
2, 583488, Note_on_c, 0, 78, 0
2, 583680, Note_on_c, 0, 84, 105
2, 584640, Note_on_c, 0, 84, 0
2, 584640, Note_on_c, 0, 85, 105
2, 584928, Note_on_c, 0, 85, 0
2, 585120, Note_on_c, 0, 87, 105
2, 585408, Note_on_c, 0, 87, 0
2, 585600, Note_on_c, 0, 88, 92
2, 586368, Note_on_c, 0, 88, 0
2, 587520, Note_on_c, 0, 85, 105
2, 588480, Note_on_c, 0, 85, 0
2, 588480, Note_on_c, 0, 84, 105
2, 588768, Note_on_c, 0, 84, 0
2, 588960, Note_on_c, 0, 85, 105
2, 589248, Note_on_c, 0, 85, 0
2, 589440, Note_on_c, 0, 87, 105
2, 590016, Note_on_c, 0, 87, 0
2, 590400, Note_on_c, 0, 88, 105
2, 592320, Note_on_c, 0, 88, 0
2, 592320, Note_on_c, 0, 87, 105
2, 592992, Note_on_c, 0, 87, 0
2, 593280, Note_on_c, 0, 88, 105
2, 593664, Note_on_c, 0, 88, 0
2, 594240, Note_on_c, 0, 85, 105
2, 594624, Note_on_c, 0, 85, 0
2, 595200, Note_on_c, 0, 85, 105
2, 595584, Note_on_c, 0, 85, 0
2, 596160, Note_on_c, 0, 84, 105
2, 596544, Note_on_c, 0, 84, 0
2, 597120, Note_on_c, 0, 85, 105
2, 597504, Note_on_c, 0, 85, 0
2, 604800, Note_on_c, 0, 80, 105
2, 605184, Note_on_c, 0, 80, 0
2, 605760, Note_on_c, 0, 81, 105
2, 606144, Note_on_c, 0, 81, 0
2, 606720, Note_on_c, 0, 83, 105
2, 607488, Note_on_c, 0, 83, 0
2, 608160, Note_on_c, 0, 73, 105
2, 608640, Note_on_c, 0, 73, 0
2, 608640, Note_on_c, 0, 78, 105
2, 608928, Note_on_c, 0, 78, 0
2, 609120, Note_on_c, 0, 82, 105
2, 609408, Note_on_c, 0, 82, 0
2, 609600, Note_on_c, 0, 83, 105
2, 609888, Note_on_c, 0, 83, 0
2, 610080, Note_on_c, 0, 86, 105
2, 610368, Note_on_c, 0, 86, 0
2, 610560, Note_on_c, 0, 91, 105
2, 611520, Note_on_c, 0, 91, 0
2, 611520, Note_on_c, 0, 90, 105
2, 611904, Note_on_c, 0, 90, 0
2, 612480, Note_on_c, 0, 78, 105
2, 612864, Note_on_c, 0, 78, 0
2, 613440, Note_on_c, 0, 79, 105
2, 613824, Note_on_c, 0, 79, 0
2, 614400, Note_on_c, 0, 81, 105
2, 615168, Note_on_c, 0, 81, 0
2, 615840, Note_on_c, 0, 71, 105
2, 616320, Note_on_c, 0, 71, 0
2, 616320, Note_on_c, 0, 76, 105
2, 616608, Note_on_c, 0, 76, 0
2, 616800, Note_on_c, 0, 80, 105
2, 617088, Note_on_c, 0, 80, 0
2, 617280, Note_on_c, 0, 81, 105
2, 617568, Note_on_c, 0, 81, 0
2, 617760, Note_on_c, 0, 84, 105
2, 618048, Note_on_c, 0, 84, 0
2, 618240, Note_on_c, 0, 89, 105
2, 619200, Note_on_c, 0, 89, 0
2, 619200, Note_on_c, 0, 88, 105
2, 619584, Note_on_c, 0, 88, 0
2, 620160, Note_on_c, 0, 76, 105
2, 620544, Note_on_c, 0, 76, 0
2, 621120, Note_on_c, 0, 77, 105
2, 621504, Note_on_c, 0, 77, 0
2, 622080, Note_on_c, 0, 79, 105
2, 622848, Note_on_c, 0, 79, 0
2, 623520, Note_on_c, 0, 69, 105
2, 624000, Note_on_c, 0, 69, 0
2, 624000, Note_on_c, 0, 74, 105
2, 624288, Note_on_c, 0, 74, 0
2, 624480, Note_on_c, 0, 78, 105
2, 624768, Note_on_c, 0, 78, 0
2, 624960, Note_on_c, 0, 79, 105
2, 625248, Note_on_c, 0, 79, 0
2, 625440, Note_on_c, 0, 82, 105
2, 625728, Note_on_c, 0, 82, 0
2, 625920, Note_on_c, 0, 87, 112
2, 627360, Note_on_c, 0, 87, 0
2, 627360, Note_on_c, 0, 86, 105
2, 627744, Note_on_c, 0, 86, 0
2, 627840, Note_on_c, 0, 87, 112
2, 629280, Note_on_c, 0, 87, 0
2, 629280, Note_on_c, 0, 86, 105
2, 629664, Note_on_c, 0, 86, 0
2, 629760, Note_on_c, 0, 84, 105
2, 630048, Note_on_c, 0, 84, 0
2, 630240, Note_on_c, 0, 82, 105
2, 630528, Note_on_c, 0, 82, 0
2, 630720, Note_on_c, 0, 81, 105
2, 631008, Note_on_c, 0, 81, 0
2, 631200, Note_on_c, 0, 79, 105
2, 631488, Note_on_c, 0, 79, 0
2, 631680, Note_on_c, 0, 78, 105
2, 632064, Note_on_c, 0, 78, 0
2, 638880, Note_on_c, 0, 85, 105
2, 639168, Note_on_c, 0, 85, 0
2, 639360, Note_on_c, 0, 86, 105
2, 639648, Note_on_c, 0, 86, 0
2, 639840, Note_on_c, 0, 85, 105
2, 640128, Note_on_c, 0, 85, 0
2, 640320, Note_on_c, 0, 86, 105
2, 640608, Note_on_c, 0, 86, 0
2, 640800, Note_on_c, 0, 85, 105
2, 641088, Note_on_c, 0, 85, 0
2, 641280, Note_on_c, 0, 86, 105
2, 642048, Note_on_c, 0, 86, 0
2, 646560, Note_on_c, 0, 86, 105
2, 646848, Note_on_c, 0, 86, 0
2, 647040, Note_on_c, 0, 86, 105
2, 647328, Note_on_c, 0, 86, 0
2, 647520, Note_on_c, 0, 86, 105
2, 647808, Note_on_c, 0, 86, 0
2, 648000, Note_on_c, 0, 86, 105
2, 648288, Note_on_c, 0, 86, 0
2, 648480, Note_on_c, 0, 86, 105
2, 648768, Note_on_c, 0, 86, 0
2, 648960, Note_on_c, 0, 86, 105
2, 649728, Note_on_c, 0, 86, 0
2, 650400, Note_on_c, 0, 86, 105
2, 650688, Note_on_c, 0, 86, 0
2, 650880, Note_on_c, 0, 86, 105
2, 651648, Note_on_c, 0, 86, 0
2, 654240, Note_on_c, 0, 86, 105
2, 654528, Note_on_c, 0, 86, 0
2, 654720, Note_on_c, 0, 86, 105
2, 655488, Note_on_c, 0, 86, 0
2, 661920, Note_on_c, 0, 86, 105
2, 662208, Note_on_c, 0, 86, 0
2, 662400, Note_on_c, 0, 86, 105
2, 662688, Note_on_c, 0, 86, 0
2, 662880, Note_on_c, 0, 86, 105
2, 663168, Note_on_c, 0, 86, 0
2, 663360, Note_on_c, 0, 86, 105
2, 663648, Note_on_c, 0, 86, 0
2, 663840, Note_on_c, 0, 86, 105
2, 664128, Note_on_c, 0, 86, 0
2, 664320, Note_on_c, 0, 86, 105
2, 665088, Note_on_c, 0, 86, 0
2, 666240, Note_on_c, 0, 84, 105
2, 666528, Note_on_c, 0, 84, 0
2, 666720, Note_on_c, 0, 83, 105
2, 667008, Note_on_c, 0, 83, 0
2, 667200, Note_on_c, 0, 84, 105
2, 667488, Note_on_c, 0, 84, 0
2, 667680, Note_on_c, 0, 83, 105
2, 667968, Note_on_c, 0, 83, 0
2, 668160, Note_on_c, 0, 84, 105
2, 668928, Note_on_c, 0, 84, 0
2, 670080, Note_on_c, 0, 89, 105
2, 670368, Note_on_c, 0, 89, 0
2, 670560, Note_on_c, 0, 87, 105
2, 670848, Note_on_c, 0, 87, 0
2, 671040, Note_on_c, 0, 89, 105
2, 671328, Note_on_c, 0, 89, 0
2, 671520, Note_on_c, 0, 87, 105
2, 671808, Note_on_c, 0, 87, 0
2, 672000, Note_on_c, 0, 89, 105
2, 672768, Note_on_c, 0, 89, 0
2, 673920, Note_on_c, 0, 86, 105
2, 674208, Note_on_c, 0, 86, 0
2, 674400, Note_on_c, 0, 86, 105
2, 674688, Note_on_c, 0, 86, 0
2, 674880, Note_on_c, 0, 86, 105
2, 675168, Note_on_c, 0, 86, 0
2, 675360, Note_on_c, 0, 86, 105
2, 675648, Note_on_c, 0, 86, 0
2, 675840, Note_on_c, 0, 86, 105
2, 676608, Note_on_c, 0, 86, 0
2, 677760, Note_on_c, 0, 87, 105
2, 678048, Note_on_c, 0, 87, 0
2, 678240, Note_on_c, 0, 89, 105
2, 678528, Note_on_c, 0, 89, 0
2, 678720, Note_on_c, 0, 87, 105
2, 679008, Note_on_c, 0, 87, 0
2, 679200, Note_on_c, 0, 89, 105
2, 679488, Note_on_c, 0, 89, 0
2, 679680, Note_on_c, 0, 87, 105
2, 680448, Note_on_c, 0, 87, 0
2, 681600, Note_on_c, 0, 87, 105
2, 681888, Note_on_c, 0, 87, 0
2, 682080, Note_on_c, 0, 87, 105
2, 682368, Note_on_c, 0, 87, 0
2, 682560, Note_on_c, 0, 87, 105
2, 682848, Note_on_c, 0, 87, 0
2, 683040, Note_on_c, 0, 87, 105
2, 683328, Note_on_c, 0, 87, 0
2, 683520, Note_on_c, 0, 87, 105
2, 684288, Note_on_c, 0, 87, 0
2, 685440, Note_on_c, 0, 86, 105
2, 685728, Note_on_c, 0, 86, 0
2, 685920, Note_on_c, 0, 87, 105
2, 686208, Note_on_c, 0, 87, 0
2, 686400, Note_on_c, 0, 86, 105
2, 686688, Note_on_c, 0, 86, 0
2, 686880, Note_on_c, 0, 87, 105
2, 687168, Note_on_c, 0, 87, 0
2, 687360, Note_on_c, 0, 86, 105
2, 688128, Note_on_c, 0, 86, 0
2, 689280, Note_on_c, 0, 86, 105
2, 689568, Note_on_c, 0, 86, 0
2, 689760, Note_on_c, 0, 86, 105
2, 690048, Note_on_c, 0, 86, 0
2, 690240, Note_on_c, 0, 86, 105
2, 690528, Note_on_c, 0, 86, 0
2, 690720, Note_on_c, 0, 86, 105
2, 691008, Note_on_c, 0, 86, 0
2, 691200, Note_on_c, 0, 86, 105
2, 691968, Note_on_c, 0, 86, 0
2, 693120, Note_on_c, 0, 82, 105
2, 693408, Note_on_c, 0, 82, 0
2, 693600, Note_on_c, 0, 82, 105
2, 693888, Note_on_c, 0, 82, 0
2, 694080, Note_on_c, 0, 82, 105
2, 694368, Note_on_c, 0, 82, 0
2, 694560, Note_on_c, 0, 82, 105
2, 694848, Note_on_c, 0, 82, 0
2, 695040, Note_on_c, 0, 82, 105
2, 695808, Note_on_c, 0, 82, 0
2, 700800, Note_on_c, 0, 81, 105
2, 702336, Note_on_c, 0, 81, 0
2, 702720, Note_on_c, 0, 85, 105
2, 704256, Note_on_c, 0, 85, 0
2, 704640, Note_on_c, 0, 86, 105
2, 706176, Note_on_c, 0, 86, 0
2, 706560, Note_on_c, 0, 91, 105
2, 708096, Note_on_c, 0, 91, 0
2, 708480, Note_on_c, 0, 90, 105
2, 708864, Note_on_c, 0, 90, 0
2, 709440, Note_on_c, 0, 90, 105
2, 709824, Note_on_c, 0, 90, 0
2, 710400, Note_on_c, 0, 74, 105
2, 711168, Note_on_c, 0, 74, 0
2, 743040, Note_on_c, 0, 86, 70
2, 745728, Note_on_c, 0, 86, 0
2, 745920, Note_on_c, 0, 86, 70
2, 747360, Note_on_c, 0, 86, 0
2, 747360, Note_on_c, 0, 79, 70
2, 747840, Note_on_c, 0, 79, 0
2, 747840, Note_on_c, 0, 84, 70
2, 749760, Note_on_c, 0, 84, 0
2, 749760, Note_on_c, 0, 82, 70
2, 750720, Note_on_c, 0, 82, 0
2, 750720, Note_on_c, 0, 80, 70
2, 751104, Note_on_c, 0, 80, 0
2, 751200, Note_on_c, 0, 68, 70
2, 751680, Note_on_c, 0, 68, 0
2, 751680, Note_on_c, 0, 72, 70
2, 752160, Note_on_c, 0, 72, 0
2, 752160, Note_on_c, 0, 75, 70
2, 752640, Note_on_c, 0, 75, 0
2, 752640, Note_on_c, 0, 80, 70
2, 753120, Note_on_c, 0, 80, 0
2, 753120, Note_on_c, 0, 84, 70
2, 753600, Note_on_c, 0, 84, 0
2, 753600, Note_on_c, 0, 87, 70
2, 753912, Note_on_c, 0, 87, 0
2, 754080, Note_on_c, 0, 87, 70
2, 754392, Note_on_c, 0, 87, 0
2, 754560, Note_on_c, 0, 79, 70
2, 756480, Note_on_c, 0, 79, 0
2, 756480, Note_on_c, 0, 78, 58
2, 756864, Note_on_c, 0, 78, 0
2, 756960, Note_on_c, 0, 85, 70
2, 757440, Note_on_c, 0, 85, 0
2, 757440, Note_on_c, 0, 86, 70
2, 757920, Note_on_c, 0, 86, 0
2, 757920, Note_on_c, 0, 85, 70
2, 758304, Note_on_c, 0, 85, 0
2, 758400, Note_on_c, 0, 86, 70
2, 760224, Note_on_c, 0, 86, 0
2, 760320, Note_on_c, 0, 85, 70
2, 760440, Note_on_c, 0, 85, 0
2, 760440, Note_on_c, 0, 86, 70
2, 761112, Note_on_c, 0, 86, 0
2, 761280, Note_on_c, 0, 85, 70
2, 761400, Note_on_c, 0, 85, 0
2, 761400, Note_on_c, 0, 86, 70
2, 762072, Note_on_c, 0, 86, 0
2, 762240, Note_on_c, 0, 86, 70
2, 762720, Note_on_c, 0, 86, 0
2, 762720, Note_on_c, 0, 85, 70
2, 763200, Note_on_c, 0, 85, 0
2, 763200, Note_on_c, 0, 86, 70
2, 763680, Note_on_c, 0, 86, 0
2, 763680, Note_on_c, 0, 85, 70
2, 764160, Note_on_c, 0, 85, 0
2, 764160, Note_on_c, 0, 84, 70
2, 764640, Note_on_c, 0, 84, 0
2, 764640, Note_on_c, 0, 83, 70
2, 765120, Note_on_c, 0, 83, 0
2, 765120, Note_on_c, 0, 84, 70
2, 765600, Note_on_c, 0, 84, 0
2, 765600, Note_on_c, 0, 82, 70
2, 765984, Note_on_c, 0, 82, 0
2, 766080, Note_on_c, 0, 81, 70
2, 767520, Note_on_c, 0, 81, 0
2, 767520, Note_on_c, 0, 84, 70
2, 767760, Note_on_c, 0, 84, 0
2, 767760, Note_on_c, 0, 87, 70
2, 767952, Note_on_c, 0, 87, 0
2, 768000, Note_on_c, 0, 79, 70
2, 768720, Note_on_c, 0, 79, 0
2, 768960, Note_on_c, 0, 78, 70
2, 769680, Note_on_c, 0, 78, 0
2, 769920, Note_on_c, 0, 79, 80
2, 770688, Note_on_c, 0, 79, 0
2, 771840, Note_on_c, 0, 82, 105
2, 772128, Note_on_c, 0, 82, 0
2, 772320, Note_on_c, 0, 81, 105
2, 772608, Note_on_c, 0, 81, 0
2, 772800, Note_on_c, 0, 82, 105
2, 773088, Note_on_c, 0, 82, 0
2, 773280, Note_on_c, 0, 81, 105
2, 773568, Note_on_c, 0, 81, 0
2, 773760, Note_on_c, 0, 82, 105
2, 774528, Note_on_c, 0, 82, 0
2, 775680, Note_on_c, 0, 82, 105
2, 775968, Note_on_c, 0, 82, 0
2, 776160, Note_on_c, 0, 81, 105
2, 776448, Note_on_c, 0, 81, 0
2, 776640, Note_on_c, 0, 82, 105
2, 776928, Note_on_c, 0, 82, 0
2, 777120, Note_on_c, 0, 81, 105
2, 777408, Note_on_c, 0, 81, 0
2, 777600, Note_on_c, 0, 82, 105
2, 778368, Note_on_c, 0, 82, 0
2, 779520, Note_on_c, 0, 91, 105
2, 779808, Note_on_c, 0, 91, 0
2, 780000, Note_on_c, 0, 90, 105
2, 780288, Note_on_c, 0, 90, 0
2, 780480, Note_on_c, 0, 91, 105
2, 780768, Note_on_c, 0, 91, 0
2, 780960, Note_on_c, 0, 90, 105
2, 781248, Note_on_c, 0, 90, 0
2, 781440, Note_on_c, 0, 91, 105
2, 782208, Note_on_c, 0, 91, 0
2, 782400, Note_on_c, 0, 87, 105
2, 783168, Note_on_c, 0, 87, 0
2, 783360, Note_on_c, 0, 86, 105
2, 784128, Note_on_c, 0, 86, 0
2, 784320, Note_on_c, 0, 81, 105
2, 785088, Note_on_c, 0, 81, 0
2, 785280, Note_on_c, 0, 79, 92
2, 785664, Note_on_c, 0, 79, 0
2, 794880, Note_on_c, 0, 82, 105
2, 795216, Note_on_c, 0, 82, 0
2, 795360, Note_on_c, 0, 81, 105
2, 795696, Note_on_c, 0, 81, 0
2, 795840, Note_on_c, 0, 82, 105
2, 796176, Note_on_c, 0, 82, 0
2, 796320, Note_on_c, 0, 81, 105
2, 796656, Note_on_c, 0, 81, 0
2, 796800, Note_on_c, 0, 82, 105
2, 797136, Note_on_c, 0, 82, 0
2, 797280, Note_on_c, 0, 81, 105
2, 797616, Note_on_c, 0, 81, 0
2, 797760, Note_on_c, 0, 82, 105
2, 798096, Note_on_c, 0, 82, 0
2, 798240, Note_on_c, 0, 81, 105
2, 798576, Note_on_c, 0, 81, 0
2, 798720, Note_on_c, 0, 82, 105
2, 799056, Note_on_c, 0, 82, 0
2, 799200, Note_on_c, 0, 81, 105
2, 799536, Note_on_c, 0, 81, 0
2, 799680, Note_on_c, 0, 82, 105
2, 800016, Note_on_c, 0, 82, 0
2, 800160, Note_on_c, 0, 81, 105
2, 800496, Note_on_c, 0, 81, 0
2, 800640, Note_on_c, 0, 79, 105
2, 802464, Note_on_c, 0, 79, 0
2, 802560, Note_on_c, 0, 75, 116
2, 802728, Note_on_c, 0, 75, 0
2, 802800, Note_on_c, 0, 77, 116
2, 802968, Note_on_c, 0, 77, 0
2, 803040, Note_on_c, 0, 79, 116
2, 803208, Note_on_c, 0, 79, 0
2, 803280, Note_on_c, 0, 81, 116
2, 803448, Note_on_c, 0, 81, 0
2, 803520, Note_on_c, 0, 83, 116
2, 803688, Note_on_c, 0, 83, 0
2, 803760, Note_on_c, 0, 84, 116
2, 803928, Note_on_c, 0, 84, 0
2, 804000, Note_on_c, 0, 86, 116
2, 804168, Note_on_c, 0, 86, 0
2, 804240, Note_on_c, 0, 87, 116
2, 804408, Note_on_c, 0, 87, 0
2, 804480, Note_on_c, 0, 78, 116
2, 805248, Note_on_c, 0, 78, 0
2, 805440, Note_on_c, 0, 79, 116
2, 806208, Note_on_c, 0, 79, 0
2, 806400, Note_on_c, 0, 84, 116
2, 807168, Note_on_c, 0, 84, 0
2, 807360, Note_on_c, 0, 81, 116
2, 808128, Note_on_c, 0, 81, 0
2, 808320, Note_on_c, 0, 79, 116
2, 810144, Note_on_c, 0, 79, 0
2, 810240, Note_on_c, 0, 75, 116
2, 810408, Note_on_c, 0, 75, 0
2, 810480, Note_on_c, 0, 77, 116
2, 810648, Note_on_c, 0, 77, 0
2, 810720, Note_on_c, 0, 79, 116
2, 810888, Note_on_c, 0, 79, 0
2, 810960, Note_on_c, 0, 81, 116
2, 811128, Note_on_c, 0, 81, 0
2, 811200, Note_on_c, 0, 83, 116
2, 811368, Note_on_c, 0, 83, 0
2, 811440, Note_on_c, 0, 84, 116
2, 811608, Note_on_c, 0, 84, 0
2, 811680, Note_on_c, 0, 86, 116
2, 811848, Note_on_c, 0, 86, 0
2, 811920, Note_on_c, 0, 87, 116
2, 812088, Note_on_c, 0, 87, 0
2, 812160, Note_on_c, 0, 78, 116
2, 812928, Note_on_c, 0, 78, 0
2, 813120, Note_on_c, 0, 79, 116
2, 813888, Note_on_c, 0, 79, 0
2, 814080, Note_on_c, 0, 81, 116
2, 814848, Note_on_c, 0, 81, 0
2, 815040, Note_on_c, 0, 90, 116
2, 815808, Note_on_c, 0, 90, 0
2, 816000, Note_on_c, 0, 91, 116
2, 816768, Note_on_c, 0, 91, 0
2, 817440, Note_on_c, 0, 79, 116
2, 817776, Note_on_c, 0, 79, 0
2, 817920, Note_on_c, 0, 78, 116
2, 818256, Note_on_c, 0, 78, 0
2, 818400, Note_on_c, 0, 74, 116
2, 818736, Note_on_c, 0, 74, 0
2, 818880, Note_on_c, 0, 86, 116
2, 819216, Note_on_c, 0, 86, 0
2, 819360, Note_on_c, 0, 86, 116
2, 819696, Note_on_c, 0, 86, 0
2, 819840, Note_on_c, 0, 82, 116
2, 820992, Note_on_c, 0, 82, 0
2, 821280, Note_on_c, 0, 79, 116
2, 821616, Note_on_c, 0, 79, 0
2, 821760, Note_on_c, 0, 78, 116
2, 822096, Note_on_c, 0, 78, 0
2, 822240, Note_on_c, 0, 74, 116
2, 822576, Note_on_c, 0, 74, 0
2, 822720, Note_on_c, 0, 86, 116
2, 823056, Note_on_c, 0, 86, 0
2, 823200, Note_on_c, 0, 86, 116
2, 823536, Note_on_c, 0, 86, 0
2, 823680, Note_on_c, 0, 82, 116
2, 824832, Note_on_c, 0, 82, 0
2, 825120, Note_on_c, 0, 79, 116
2, 825456, Note_on_c, 0, 79, 0
2, 825600, Note_on_c, 0, 78, 116
2, 825936, Note_on_c, 0, 78, 0
2, 826080, Note_on_c, 0, 74, 116
2, 826416, Note_on_c, 0, 74, 0
2, 826560, Note_on_c, 0, 86, 116
2, 826896, Note_on_c, 0, 86, 0
2, 827040, Note_on_c, 0, 86, 116
2, 827376, Note_on_c, 0, 86, 0
2, 827520, Note_on_c, 0, 79, 116
2, 827904, Note_on_c, 0, 79, 0
2, 828480, Note_on_c, 0, 91, 116
2, 828864, Note_on_c, 0, 91, 0
2, 829440, Note_on_c, 0, 79, 116
2, 830400, Note_on_c, 0, 79, 0
2, 830400, End_track
3, 0, Start_track
3, 0, Sequencer_specific, 04, 43, 00, 01, 00
3, 0, Program_c, 1, 68
3, 0, Control_c, 1, 7, 90
3, 0, Control_c, 1, 10, 64
3, 0, Control_c, 1, 91, 80
3, 5280, Note_on_c, 1, 76, 105
3, 5280, Note_on_c, 1, 81, 105
3, 5568, Note_on_c, 1, 81, 0
3, 5568, Note_on_c, 1, 76, 0
3, 5760, Note_on_c, 1, 81, 105
3, 5760, Note_on_c, 1, 74, 105
3, 6048, Note_on_c, 1, 74, 0
3, 6048, Note_on_c, 1, 81, 0
3, 6240, Note_on_c, 1, 81, 105
3, 6240, Note_on_c, 1, 76, 105
3, 6528, Note_on_c, 1, 76, 0
3, 6528, Note_on_c, 1, 81, 0
3, 6720, Note_on_c, 1, 81, 105
3, 6720, Note_on_c, 1, 74, 105
3, 7008, Note_on_c, 1, 74, 0
3, 7008, Note_on_c, 1, 81, 0
3, 7200, Note_on_c, 1, 76, 105
3, 7200, Note_on_c, 1, 81, 105
3, 7488, Note_on_c, 1, 81, 0
3, 7488, Note_on_c, 1, 76, 0
3, 7680, Note_on_c, 1, 81, 105
3, 7680, Note_on_c, 1, 74, 105
3, 8448, Note_on_c, 1, 74, 0
3, 8448, Note_on_c, 1, 81, 0
3, 12960, Note_on_c, 1, 78, 105
3, 12960, Note_on_c, 1, 84, 105
3, 13248, Note_on_c, 1, 84, 0
3, 13248, Note_on_c, 1, 78, 0
3, 13440, Note_on_c, 1, 79, 105
3, 13440, Note_on_c, 1, 82, 105
3, 13728, Note_on_c, 1, 82, 0
3, 13728, Note_on_c, 1, 79, 0
3, 13920, Note_on_c, 1, 84, 105
3, 13920, Note_on_c, 1, 78, 105
3, 14208, Note_on_c, 1, 78, 0
3, 14208, Note_on_c, 1, 84, 0
3, 14400, Note_on_c, 1, 82, 105
3, 14400, Note_on_c, 1, 79, 105
3, 14688, Note_on_c, 1, 79, 0
3, 14688, Note_on_c, 1, 82, 0
3, 14880, Note_on_c, 1, 78, 105
3, 14880, Note_on_c, 1, 84, 105
3, 15168, Note_on_c, 1, 84, 0
3, 15168, Note_on_c, 1, 78, 0
3, 15360, Note_on_c, 1, 82, 105
3, 15360, Note_on_c, 1, 79, 105
3, 16128, Note_on_c, 1, 79, 0
3, 16128, Note_on_c, 1, 82, 0
3, 20640, Note_on_c, 1, 76, 105
3, 20640, Note_on_c, 1, 81, 105
3, 20928, Note_on_c, 1, 81, 0
3, 20928, Note_on_c, 1, 76, 0
3, 21120, Note_on_c, 1, 74, 105
3, 21120, Note_on_c, 1, 81, 105
3, 21408, Note_on_c, 1, 81, 0
3, 21408, Note_on_c, 1, 74, 0
3, 21600, Note_on_c, 1, 81, 105
3, 21600, Note_on_c, 1, 76, 105
3, 21888, Note_on_c, 1, 76, 0
3, 21888, Note_on_c, 1, 81, 0
3, 22080, Note_on_c, 1, 81, 105
3, 22080, Note_on_c, 1, 74, 105
3, 22368, Note_on_c, 1, 74, 0
3, 22368, Note_on_c, 1, 81, 0
3, 22560, Note_on_c, 1, 76, 105
3, 22560, Note_on_c, 1, 81, 105
3, 22848, Note_on_c, 1, 81, 0
3, 22848, Note_on_c, 1, 76, 0
3, 23040, Note_on_c, 1, 81, 105
3, 23040, Note_on_c, 1, 74, 105
3, 23808, Note_on_c, 1, 74, 0
3, 23808, Note_on_c, 1, 81, 0
3, 28320, Note_on_c, 1, 78, 105
3, 28320, Note_on_c, 1, 84, 105
3, 28608, Note_on_c, 1, 84, 0
3, 28608, Note_on_c, 1, 78, 0
3, 28800, Note_on_c, 1, 82, 105
3, 28800, Note_on_c, 1, 79, 105
3, 29088, Note_on_c, 1, 79, 0
3, 29088, Note_on_c, 1, 82, 0
3, 29280, Note_on_c, 1, 78, 105
3, 29280, Note_on_c, 1, 84, 105
3, 29568, Note_on_c, 1, 84, 0
3, 29568, Note_on_c, 1, 78, 0
3, 29760, Note_on_c, 1, 82, 105
3, 29760, Note_on_c, 1, 79, 105
3, 30048, Note_on_c, 1, 79, 0
3, 30048, Note_on_c, 1, 82, 0
3, 30240, Note_on_c, 1, 78, 105
3, 30240, Note_on_c, 1, 84, 105
3, 30528, Note_on_c, 1, 84, 0
3, 30528, Note_on_c, 1, 78, 0
3, 30720, Note_on_c, 1, 79, 105
3, 30720, Note_on_c, 1, 82, 105
3, 31488, Note_on_c, 1, 82, 0
3, 31488, Note_on_c, 1, 79, 0
3, 32160, Note_on_c, 1, 74, 105
3, 32160, Note_on_c, 1, 62, 105
3, 32448, Note_on_c, 1, 62, 0
3, 32448, Note_on_c, 1, 74, 0
3, 32640, Note_on_c, 1, 62, 105
3, 32640, Note_on_c, 1, 74, 105
3, 33408, Note_on_c, 1, 74, 0
3, 33408, Note_on_c, 1, 62, 0
3, 36000, Note_on_c, 1, 74, 105
3, 36000, Note_on_c, 1, 62, 105
3, 36288, Note_on_c, 1, 62, 0
3, 36288, Note_on_c, 1, 74, 0
3, 36480, Note_on_c, 1, 62, 105
3, 36480, Note_on_c, 1, 74, 105
3, 37248, Note_on_c, 1, 74, 0
3, 37248, Note_on_c, 1, 62, 0
3, 43680, Note_on_c, 1, 78, 105
3, 43680, Note_on_c, 1, 84, 105
3, 43968, Note_on_c, 1, 84, 0
3, 43968, Note_on_c, 1, 78, 0
3, 44160, Note_on_c, 1, 82, 105
3, 44160, Note_on_c, 1, 79, 105
3, 44448, Note_on_c, 1, 79, 0
3, 44448, Note_on_c, 1, 82, 0
3, 44640, Note_on_c, 1, 84, 105
3, 44640, Note_on_c, 1, 78, 105
3, 44928, Note_on_c, 1, 78, 0
3, 44928, Note_on_c, 1, 84, 0
3, 45120, Note_on_c, 1, 79, 105
3, 45120, Note_on_c, 1, 82, 105
3, 45408, Note_on_c, 1, 82, 0
3, 45408, Note_on_c, 1, 79, 0
3, 45600, Note_on_c, 1, 84, 105
3, 45600, Note_on_c, 1, 78, 105
3, 45888, Note_on_c, 1, 78, 0
3, 45888, Note_on_c, 1, 84, 0
3, 46080, Note_on_c, 1, 79, 105
3, 46080, Note_on_c, 1, 82, 105
3, 46848, Note_on_c, 1, 82, 0
3, 46848, Note_on_c, 1, 79, 0
3, 47520, Note_on_c, 1, 74, 105
3, 47520, Note_on_c, 1, 62, 105
3, 47808, Note_on_c, 1, 62, 0
3, 47808, Note_on_c, 1, 74, 0
3, 48000, Note_on_c, 1, 74, 105
3, 48000, Note_on_c, 1, 62, 105
3, 48768, Note_on_c, 1, 62, 0
3, 48768, Note_on_c, 1, 74, 0
3, 51360, Note_on_c, 1, 74, 105
3, 51360, Note_on_c, 1, 62, 105
3, 51648, Note_on_c, 1, 62, 0
3, 51648, Note_on_c, 1, 74, 0
3, 51840, Note_on_c, 1, 74, 105
3, 51840, Note_on_c, 1, 62, 105
3, 52608, Note_on_c, 1, 62, 0
3, 52608, Note_on_c, 1, 74, 0
3, 59040, Note_on_c, 1, 78, 105
3, 59040, Note_on_c, 1, 84, 105
3, 59328, Note_on_c, 1, 84, 0
3, 59328, Note_on_c, 1, 78, 0
3, 59520, Note_on_c, 1, 79, 105
3, 59520, Note_on_c, 1, 82, 105
3, 59808, Note_on_c, 1, 82, 0
3, 59808, Note_on_c, 1, 79, 0
3, 60000, Note_on_c, 1, 84, 105
3, 60000, Note_on_c, 1, 78, 105
3, 60288, Note_on_c, 1, 78, 0
3, 60288, Note_on_c, 1, 84, 0
3, 60480, Note_on_c, 1, 79, 105
3, 60480, Note_on_c, 1, 82, 105
3, 60768, Note_on_c, 1, 82, 0
3, 60768, Note_on_c, 1, 79, 0
3, 60960, Note_on_c, 1, 84, 105
3, 60960, Note_on_c, 1, 78, 105
3, 61248, Note_on_c, 1, 78, 0
3, 61248, Note_on_c, 1, 84, 0
3, 61440, Note_on_c, 1, 82, 105
3, 61440, Note_on_c, 1, 79, 105
3, 62208, Note_on_c, 1, 79, 0
3, 62208, Note_on_c, 1, 82, 0
3, 63360, Note_on_c, 1, 75, 105
3, 63360, Note_on_c, 1, 79, 105
3, 63648, Note_on_c, 1, 79, 0
3, 63648, Note_on_c, 1, 75, 0
3, 63840, Note_on_c, 1, 80, 105
3, 63840, Note_on_c, 1, 74, 105
3, 64128, Note_on_c, 1, 74, 0
3, 64128, Note_on_c, 1, 80, 0
3, 64320, Note_on_c, 1, 79, 105
3, 64320, Note_on_c, 1, 75, 105
3, 64608, Note_on_c, 1, 75, 0
3, 64608, Note_on_c, 1, 79, 0
3, 64800, Note_on_c, 1, 80, 105
3, 64800, Note_on_c, 1, 74, 105
3, 65088, Note_on_c, 1, 74, 0
3, 65088, Note_on_c, 1, 80, 0
3, 65280, Note_on_c, 1, 79, 105
3, 65280, Note_on_c, 1, 75, 105
3, 66048, Note_on_c, 1, 75, 0
3, 66048, Note_on_c, 1, 79, 0
3, 67200, Note_on_c, 1, 74, 105
3, 67200, Note_on_c, 1, 78, 105
3, 67488, Note_on_c, 1, 78, 0
3, 67488, Note_on_c, 1, 74, 0
3, 67680, Note_on_c, 1, 76, 105
3, 67680, Note_on_c, 1, 79, 105
3, 67968, Note_on_c, 1, 79, 0
3, 67968, Note_on_c, 1, 76, 0
3, 68160, Note_on_c, 1, 74, 105
3, 68160, Note_on_c, 1, 78, 105
3, 68448, Note_on_c, 1, 78, 0
3, 68448, Note_on_c, 1, 74, 0
3, 68640, Note_on_c, 1, 76, 105
3, 68640, Note_on_c, 1, 79, 105
3, 68928, Note_on_c, 1, 79, 0
3, 68928, Note_on_c, 1, 76, 0
3, 69120, Note_on_c, 1, 74, 105
3, 69120, Note_on_c, 1, 78, 105
3, 69888, Note_on_c, 1, 78, 0
3, 69888, Note_on_c, 1, 74, 0
3, 71040, Note_on_c, 1, 62, 105
3, 71040, Note_on_c, 1, 74, 105
3, 72576, Note_on_c, 1, 74, 0
3, 72576, Note_on_c, 1, 62, 0
3, 72960, Note_on_c, 1, 72, 105
3, 72960, Note_on_c, 1, 75, 105
3, 73920, Note_on_c, 1, 75, 0
3, 73920, Note_on_c, 1, 72, 0
3, 73920, Note_on_c, 1, 72, 105
3, 73920, Note_on_c, 1, 74, 105
3, 74304, Note_on_c, 1, 74, 0
3, 74304, Note_on_c, 1, 72, 0
3, 74880, Note_on_c, 1, 62, 105
3, 74880, Note_on_c, 1, 74, 105
3, 76416, Note_on_c, 1, 74, 0
3, 76416, Note_on_c, 1, 62, 0
3, 76800, Note_on_c, 1, 72, 105
3, 76800, Note_on_c, 1, 75, 105
3, 77760, Note_on_c, 1, 75, 0
3, 77760, Note_on_c, 1, 72, 0
3, 77760, Note_on_c, 1, 72, 105
3, 77760, Note_on_c, 1, 74, 105
3, 78144, Note_on_c, 1, 74, 0
3, 78144, Note_on_c, 1, 72, 0
3, 78720, Note_on_c, 1, 74, 105
3, 78720, Note_on_c, 1, 70, 105
3, 80256, Note_on_c, 1, 70, 0
3, 80256, Note_on_c, 1, 74, 0
3, 80640, Note_on_c, 1, 75, 105
3, 80640, Note_on_c, 1, 72, 105
3, 82176, Note_on_c, 1, 72, 0
3, 82176, Note_on_c, 1, 75, 0
3, 82560, Note_on_c, 1, 72, 105
3, 82560, Note_on_c, 1, 69, 105
3, 84096, Note_on_c, 1, 69, 0
3, 84096, Note_on_c, 1, 72, 0
3, 84480, Note_on_c, 1, 74, 105
3, 84480, Note_on_c, 1, 70, 105
3, 86016, Note_on_c, 1, 70, 0
3, 86016, Note_on_c, 1, 74, 0
3, 86400, Note_on_c, 1, 79, 105
3, 86592, Note_on_c, 1, 79, 0
3, 86640, Note_on_c, 1, 81, 105
3, 86832, Note_on_c, 1, 81, 0
3, 86880, Note_on_c, 1, 82, 105
3, 87072, Note_on_c, 1, 82, 0
3, 87120, Note_on_c, 1, 81, 105
3, 87312, Note_on_c, 1, 81, 0
3, 87360, Note_on_c, 1, 79, 105
3, 87552, Note_on_c, 1, 79, 0
3, 87600, Note_on_c, 1, 77, 105
3, 87792, Note_on_c, 1, 77, 0
3, 87840, Note_on_c, 1, 75, 105
3, 88032, Note_on_c, 1, 75, 0
3, 88080, Note_on_c, 1, 74, 105
3, 88272, Note_on_c, 1, 74, 0
3, 88320, Note_on_c, 1, 75, 105
3, 88512, Note_on_c, 1, 75, 0
3, 88560, Note_on_c, 1, 77, 105
3, 88752, Note_on_c, 1, 77, 0
3, 88800, Note_on_c, 1, 79, 105
3, 88992, Note_on_c, 1, 79, 0
3, 89040, Note_on_c, 1, 77, 105
3, 89232, Note_on_c, 1, 77, 0
3, 89280, Note_on_c, 1, 75, 105
3, 89472, Note_on_c, 1, 75, 0
3, 89520, Note_on_c, 1, 74, 105
3, 89712, Note_on_c, 1, 74, 0
3, 89760, Note_on_c, 1, 72, 105
3, 89952, Note_on_c, 1, 72, 0
3, 90000, Note_on_c, 1, 70, 105
3, 90192, Note_on_c, 1, 70, 0
3, 90240, Note_on_c, 1, 69, 105
3, 90432, Note_on_c, 1, 69, 0
3, 90480, Note_on_c, 1, 70, 105
3, 90672, Note_on_c, 1, 70, 0
3, 90720, Note_on_c, 1, 72, 105
3, 90912, Note_on_c, 1, 72, 0
3, 90960, Note_on_c, 1, 70, 105
3, 91152, Note_on_c, 1, 70, 0
3, 91200, Note_on_c, 1, 69, 105
3, 91392, Note_on_c, 1, 69, 0
3, 91440, Note_on_c, 1, 67, 105
3, 91632, Note_on_c, 1, 67, 0
3, 91680, Note_on_c, 1, 65, 105
3, 91872, Note_on_c, 1, 65, 0
3, 91920, Note_on_c, 1, 64, 105
3, 92112, Note_on_c, 1, 64, 0
3, 92160, Note_on_c, 1, 65, 105
3, 92928, Note_on_c, 1, 65, 0
3, 94080, Note_on_c, 1, 70, 105
3, 94080, Note_on_c, 1, 74, 105
3, 94368, Note_on_c, 1, 74, 0
3, 94368, Note_on_c, 1, 70, 0
3, 94560, Note_on_c, 1, 75, 105
3, 94560, Note_on_c, 1, 72, 105
3, 94848, Note_on_c, 1, 72, 0
3, 94848, Note_on_c, 1, 75, 0
3, 95040, Note_on_c, 1, 74, 105
3, 95040, Note_on_c, 1, 70, 105
3, 95328, Note_on_c, 1, 70, 0
3, 95328, Note_on_c, 1, 74, 0
3, 95520, Note_on_c, 1, 72, 105
3, 95520, Note_on_c, 1, 75, 105
3, 95808, Note_on_c, 1, 75, 0
3, 95808, Note_on_c, 1, 72, 0
3, 96000, Note_on_c, 1, 70, 105
3, 96000, Note_on_c, 1, 74, 105
3, 96768, Note_on_c, 1, 74, 0
3, 96768, Note_on_c, 1, 70, 0
3, 97920, Note_on_c, 1, 67, 105
3, 97920, Note_on_c, 1, 70, 105
3, 98208, Note_on_c, 1, 70, 0
3, 98208, Note_on_c, 1, 67, 0
3, 98400, Note_on_c, 1, 69, 105
3, 98400, Note_on_c, 1, 72, 105
3, 98688, Note_on_c, 1, 72, 0
3, 98688, Note_on_c, 1, 69, 0
3, 98880, Note_on_c, 1, 70, 105
3, 98880, Note_on_c, 1, 67, 105
3, 99168, Note_on_c, 1, 67, 0
3, 99168, Note_on_c, 1, 70, 0
3, 99360, Note_on_c, 1, 69, 105
3, 99360, Note_on_c, 1, 72, 105
3, 99648, Note_on_c, 1, 72, 0
3, 99648, Note_on_c, 1, 69, 0
3, 99840, Note_on_c, 1, 67, 105
3, 99840, Note_on_c, 1, 70, 105
3, 100608, Note_on_c, 1, 70, 0
3, 100608, Note_on_c, 1, 67, 0
3, 101760, Note_on_c, 1, 75, 105
3, 101760, Note_on_c, 1, 79, 105
3, 102048, Note_on_c, 1, 79, 0
3, 102048, Note_on_c, 1, 75, 0
3, 102240, Note_on_c, 1, 80, 105
3, 102240, Note_on_c, 1, 77, 105
3, 102528, Note_on_c, 1, 77, 0
3, 102528, Note_on_c, 1, 80, 0
3, 102720, Note_on_c, 1, 79, 105
3, 102720, Note_on_c, 1, 75, 105
3, 103008, Note_on_c, 1, 75, 0
3, 103008, Note_on_c, 1, 79, 0
3, 103200, Note_on_c, 1, 77, 105
3, 103200, Note_on_c, 1, 80, 105
3, 103488, Note_on_c, 1, 80, 0
3, 103488, Note_on_c, 1, 77, 0
3, 103680, Note_on_c, 1, 75, 105
3, 103680, Note_on_c, 1, 79, 105
3, 104448, Note_on_c, 1, 79, 0
3, 104448, Note_on_c, 1, 75, 0
3, 105600, Note_on_c, 1, 77, 105
3, 105888, Note_on_c, 1, 77, 0
3, 106080, Note_on_c, 1, 79, 105
3, 106368, Note_on_c, 1, 79, 0
3, 106560, Note_on_c, 1, 77, 105
3, 106848, Note_on_c, 1, 77, 0
3, 107040, Note_on_c, 1, 79, 105
3, 107328, Note_on_c, 1, 79, 0
3, 107520, Note_on_c, 1, 77, 105
3, 108288, Note_on_c, 1, 77, 0
3, 109440, Note_on_c, 1, 77, 105
3, 109440, Note_on_c, 1, 65, 105
3, 110976, Note_on_c, 1, 65, 0
3, 110976, Note_on_c, 1, 77, 0
3, 111360, Note_on_c, 1, 66, 105
3, 111360, Note_on_c, 1, 78, 105
3, 112896, Note_on_c, 1, 78, 0
3, 112896, Note_on_c, 1, 66, 0
3, 113280, Note_on_c, 1, 79, 105
3, 113280, Note_on_c, 1, 67, 105
3, 114816, Note_on_c, 1, 67, 0
3, 114816, Note_on_c, 1, 79, 0
3, 115200, Note_on_c, 1, 74, 105
3, 116736, Note_on_c, 1, 74, 0
3, 117120, Note_on_c, 1, 75, 105
3, 118656, Note_on_c, 1, 75, 0
3, 119040, Note_on_c, 1, 71, 105
3, 120576, Note_on_c, 1, 71, 0
3, 120960, Note_on_c, 1, 72, 105
3, 121728, Note_on_c, 1, 72, 0
3, 121920, Note_on_c, 1, 77, 105
3, 121920, Note_on_c, 1, 68, 105
3, 122688, Note_on_c, 1, 68, 0
3, 122688, Note_on_c, 1, 77, 0
3, 122880, Note_on_c, 1, 79, 105
3, 122880, Note_on_c, 1, 67, 105
3, 123648, Note_on_c, 1, 67, 0
3, 123840, Note_on_c, 1, 72, 105
3, 124608, Note_on_c, 1, 72, 0
3, 124608, Note_on_c, 1, 79, 0
3, 124800, Note_on_c, 1, 77, 105
3, 124800, Note_on_c, 1, 72, 105
3, 126336, Note_on_c, 1, 72, 0
3, 126336, Note_on_c, 1, 77, 0
3, 126720, Note_on_c, 1, 76, 105
3, 126720, Note_on_c, 1, 70, 105
3, 128256, Note_on_c, 1, 70, 0
3, 128256, Note_on_c, 1, 76, 0
3, 128640, Note_on_c, 1, 77, 105
3, 128640, Note_on_c, 1, 69, 105
3, 130176, Note_on_c, 1, 69, 0
3, 130176, Note_on_c, 1, 77, 0
3, 130560, Note_on_c, 1, 79, 105
3, 130560, Note_on_c, 1, 82, 105
3, 132096, Note_on_c, 1, 82, 0
3, 132096, Note_on_c, 1, 79, 0
3, 132480, Note_on_c, 1, 77, 105
3, 132480, Note_on_c, 1, 81, 105
3, 132864, Note_on_c, 1, 81, 0
3, 132864, Note_on_c, 1, 77, 0
3, 133440, Note_on_c, 1, 81, 105
3, 133440, Note_on_c, 1, 72, 105
3, 133824, Note_on_c, 1, 72, 0
3, 133824, Note_on_c, 1, 81, 0
3, 134400, Note_on_c, 1, 69, 92
3, 134400, Note_on_c, 1, 72, 92
3, 135168, Note_on_c, 1, 72, 0
3, 135168, Note_on_c, 1, 69, 0
3, 163680, Note_on_c, 1, 65, 80
3, 164160, Note_on_c, 1, 65, 0
3, 164160, Note_on_c, 1, 70, 80
3, 164640, Note_on_c, 1, 70, 0
3, 164640, Note_on_c, 1, 72, 80
3, 165120, Note_on_c, 1, 72, 0
3, 165120, Note_on_c, 1, 74, 80
3, 165504, Note_on_c, 1, 74, 0
3, 165600, Note_on_c, 1, 70, 80
3, 166080, Note_on_c, 1, 70, 0
3, 166080, Note_on_c, 1, 74, 80
3, 166560, Note_on_c, 1, 74, 0
3, 166560, Note_on_c, 1, 75, 80
3, 166944, Note_on_c, 1, 75, 0
3, 167040, Note_on_c, 1, 77, 80
3, 168576, Note_on_c, 1, 77, 0
3, 168960, Note_on_c, 1, 76, 80
3, 169080, Note_on_c, 1, 76, 0
3, 169080, Note_on_c, 1, 77, 80
3, 169752, Note_on_c, 1, 77, 0
3, 169920, Note_on_c, 1, 76, 80
3, 170040, Note_on_c, 1, 76, 0
3, 170040, Note_on_c, 1, 77, 80
3, 170712, Note_on_c, 1, 77, 0
3, 170880, Note_on_c, 1, 82, 92
3, 171120, Note_on_c, 1, 82, 0
3, 171120, Note_on_c, 1, 81, 92
3, 171360, Note_on_c, 1, 81, 0
3, 171360, Note_on_c, 1, 79, 92
3, 171600, Note_on_c, 1, 79, 0
3, 171600, Note_on_c, 1, 77, 92
3, 171792, Note_on_c, 1, 77, 0
3, 171840, Note_on_c, 1, 75, 92
3, 173712, Note_on_c, 1, 75, 0
3, 173760, Note_on_c, 1, 74, 80
3, 174528, Note_on_c, 1, 74, 0
3, 174720, Note_on_c, 1, 72, 80
3, 175440, Note_on_c, 1, 72, 0
3, 175440, Note_on_c, 1, 74, 80
3, 175520, Note_on_c, 1, 74, 0
3, 175520, Note_on_c, 1, 72, 80
3, 175600, Note_on_c, 1, 72, 0
3, 175600, Note_on_c, 1, 71, 80
3, 175680, Note_on_c, 1, 71, 0
3, 175680, Note_on_c, 1, 72, 80
3, 176064, Note_on_c, 1, 72, 0
3, 176160, Note_on_c, 1, 74, 80
3, 176544, Note_on_c, 1, 74, 0
3, 176640, Note_on_c, 1, 75, 80
3, 177024, Note_on_c, 1, 75, 0
3, 177120, Note_on_c, 1, 75, 80
3, 177600, Note_on_c, 1, 75, 0
3, 177600, Note_on_c, 1, 77, 80
3, 178080, Note_on_c, 1, 77, 0
3, 178080, Note_on_c, 1, 79, 80
3, 178464, Note_on_c, 1, 79, 0
3, 178560, Note_on_c, 1, 74, 80
3, 180000, Note_on_c, 1, 74, 0
3, 180000, Note_on_c, 1, 75, 80
3, 180240, Note_on_c, 1, 75, 0
3, 180240, Note_on_c, 1, 74, 80
3, 180432, Note_on_c, 1, 74, 0
3, 180480, Note_on_c, 1, 72, 80
3, 180960, Note_on_c, 1, 72, 0
3, 180960, Note_on_c, 1, 74, 80
3, 181440, Note_on_c, 1, 74, 0
3, 181440, Note_on_c, 1, 75, 80
3, 181920, Note_on_c, 1, 75, 0
3, 181920, Note_on_c, 1, 76, 80
3, 182304, Note_on_c, 1, 76, 0
3, 182400, Note_on_c, 1, 77, 70
3, 182400, Note_on_c, 1, 74, 70
3, 183360, Note_on_c, 1, 74, 0
3, 183360, Note_on_c, 1, 73, 70
3, 184320, Note_on_c, 1, 73, 0
3, 184320, Note_on_c, 1, 72, 70
3, 185280, Note_on_c, 1, 72, 0
3, 185280, Note_on_c, 1, 71, 70
3, 186240, Note_on_c, 1, 71, 0
3, 186240, Note_on_c, 1, 70, 70
3, 187200, Note_on_c, 1, 77, 0
3, 187200, Note_on_c, 1, 76, 70
3, 188160, Note_on_c, 1, 76, 0
3, 188160, Note_on_c, 1, 75, 70
3, 189120, Note_on_c, 1, 75, 0
3, 189120, Note_on_c, 1, 70, 0
3, 189120, Note_on_c, 1, 74, 70
3, 189120, Note_on_c, 1, 71, 70
3, 189888, Note_on_c, 1, 71, 0
3, 189888, Note_on_c, 1, 74, 0
3, 190080, Note_on_c, 1, 75, 70
3, 190080, Note_on_c, 1, 72, 70
3, 191520, Note_on_c, 1, 72, 0
3, 191520, Note_on_c, 1, 75, 0
3, 191520, Note_on_c, 1, 77, 70
3, 191520, Note_on_c, 1, 74, 70
3, 191760, Note_on_c, 1, 74, 0
3, 191760, Note_on_c, 1, 77, 0
3, 191760, Note_on_c, 1, 79, 70
3, 191760, Note_on_c, 1, 75, 70
3, 191952, Note_on_c, 1, 75, 0
3, 191952, Note_on_c, 1, 79, 0
3, 192000, Note_on_c, 1, 70, 70
3, 192000, Note_on_c, 1, 74, 70
3, 192720, Note_on_c, 1, 74, 0
3, 192720, Note_on_c, 1, 70, 0
3, 192960, Note_on_c, 1, 69, 70
3, 192960, Note_on_c, 1, 72, 70
3, 193680, Note_on_c, 1, 72, 0
3, 193680, Note_on_c, 1, 69, 0
3, 193920, Note_on_c, 1, 70, 92
3, 194688, Note_on_c, 1, 70, 0
3, 195840, Note_on_c, 1, 74, 105
3, 195840, Note_on_c, 1, 82, 105
3, 196128, Note_on_c, 1, 82, 0
3, 196128, Note_on_c, 1, 74, 0
3, 196320, Note_on_c, 1, 81, 105
3, 196320, Note_on_c, 1, 72, 105
3, 196608, Note_on_c, 1, 72, 0
3, 196608, Note_on_c, 1, 81, 0
3, 196800, Note_on_c, 1, 82, 105
3, 196800, Note_on_c, 1, 74, 105
3, 197088, Note_on_c, 1, 74, 0
3, 197088, Note_on_c, 1, 82, 0
3, 197280, Note_on_c, 1, 81, 105
3, 197280, Note_on_c, 1, 72, 105
3, 197568, Note_on_c, 1, 72, 0
3, 197568, Note_on_c, 1, 81, 0
3, 197760, Note_on_c, 1, 74, 105
3, 197760, Note_on_c, 1, 82, 105
3, 198528, Note_on_c, 1, 82, 0
3, 198528, Note_on_c, 1, 74, 0
3, 199680, Note_on_c, 1, 74, 105
3, 199680, Note_on_c, 1, 82, 105
3, 199968, Note_on_c, 1, 82, 0
3, 199968, Note_on_c, 1, 74, 0
3, 200160, Note_on_c, 1, 81, 105
3, 200160, Note_on_c, 1, 72, 105
3, 200448, Note_on_c, 1, 72, 0
3, 200448, Note_on_c, 1, 81, 0
3, 200640, Note_on_c, 1, 82, 105
3, 200640, Note_on_c, 1, 74, 105
3, 200928, Note_on_c, 1, 74, 0
3, 200928, Note_on_c, 1, 82, 0
3, 201120, Note_on_c, 1, 81, 105
3, 201120, Note_on_c, 1, 72, 105
3, 201408, Note_on_c, 1, 72, 0
3, 201408, Note_on_c, 1, 81, 0
3, 201600, Note_on_c, 1, 82, 105
3, 201600, Note_on_c, 1, 74, 105
3, 202368, Note_on_c, 1, 74, 0
3, 202368, Note_on_c, 1, 82, 0
3, 203520, Note_on_c, 1, 74, 105
3, 203520, Note_on_c, 1, 82, 105
3, 203808, Note_on_c, 1, 82, 0
3, 203808, Note_on_c, 1, 74, 0
3, 204000, Note_on_c, 1, 81, 105
3, 204000, Note_on_c, 1, 72, 105
3, 204288, Note_on_c, 1, 72, 0
3, 204288, Note_on_c, 1, 81, 0
3, 204480, Note_on_c, 1, 82, 105
3, 204480, Note_on_c, 1, 74, 105
3, 204768, Note_on_c, 1, 74, 0
3, 204768, Note_on_c, 1, 82, 0
3, 204960, Note_on_c, 1, 81, 105
3, 204960, Note_on_c, 1, 72, 105
3, 205248, Note_on_c, 1, 72, 0
3, 205248, Note_on_c, 1, 81, 0
3, 205440, Note_on_c, 1, 82, 105
3, 205440, Note_on_c, 1, 74, 105
3, 206208, Note_on_c, 1, 74, 0
3, 206208, Note_on_c, 1, 82, 0
3, 206400, Note_on_c, 1, 79, 105
3, 206400, Note_on_c, 1, 84, 105
3, 207168, Note_on_c, 1, 84, 0
3, 207168, Note_on_c, 1, 79, 0
3, 207360, Note_on_c, 1, 77, 105
3, 207360, Note_on_c, 1, 82, 105
3, 208128, Note_on_c, 1, 82, 0
3, 208128, Note_on_c, 1, 77, 0
3, 208320, Note_on_c, 1, 75, 105
3, 208320, Note_on_c, 1, 81, 105
3, 209088, Note_on_c, 1, 81, 0
3, 209088, Note_on_c, 1, 75, 0
3, 209280, Note_on_c, 1, 74, 92
3, 209280, Note_on_c, 1, 82, 92
3, 209664, Note_on_c, 1, 82, 0
3, 209664, Note_on_c, 1, 74, 0
3, 218880, Note_on_c, 1, 74, 105
3, 218880, Note_on_c, 1, 82, 105
3, 219168, Note_on_c, 1, 82, 0
3, 219168, Note_on_c, 1, 74, 0
3, 219360, Note_on_c, 1, 72, 105
3, 219360, Note_on_c, 1, 81, 105
3, 219648, Note_on_c, 1, 81, 0
3, 219648, Note_on_c, 1, 72, 0
3, 219840, Note_on_c, 1, 82, 105
3, 219840, Note_on_c, 1, 74, 105
3, 220128, Note_on_c, 1, 74, 0
3, 220128, Note_on_c, 1, 82, 0
3, 220320, Note_on_c, 1, 72, 105
3, 220320, Note_on_c, 1, 81, 105
3, 220608, Note_on_c, 1, 81, 0
3, 220608, Note_on_c, 1, 72, 0
3, 220800, Note_on_c, 1, 82, 105
3, 220800, Note_on_c, 1, 74, 105
3, 221568, Note_on_c, 1, 74, 0
3, 221568, Note_on_c, 1, 82, 0
3, 221760, Note_on_c, 1, 84, 105
3, 221760, Note_on_c, 1, 79, 105
3, 222528, Note_on_c, 1, 79, 0
3, 222528, Note_on_c, 1, 84, 0
3, 222720, Note_on_c, 1, 82, 105
3, 222720, Note_on_c, 1, 77, 105
3, 223488, Note_on_c, 1, 77, 0
3, 223488, Note_on_c, 1, 82, 0
3, 223680, Note_on_c, 1, 81, 105
3, 223680, Note_on_c, 1, 75, 105
3, 224448, Note_on_c, 1, 75, 0
3, 224448, Note_on_c, 1, 81, 0
3, 224640, Note_on_c, 1, 82, 105
3, 224640, Note_on_c, 1, 74, 105
3, 224928, Note_on_c, 1, 74, 0
3, 225120, Note_on_c, 1, 70, 105
3, 225408, Note_on_c, 1, 70, 0
3, 225408, Note_on_c, 1, 82, 0
3, 225600, Note_on_c, 1, 77, 105
3, 225888, Note_on_c, 1, 77, 0
3, 226080, Note_on_c, 1, 77, 105
3, 226080, Note_on_c, 1, 74, 105
3, 226368, Note_on_c, 1, 74, 0
3, 226368, Note_on_c, 1, 77, 0
3, 226560, Note_on_c, 1, 77, 105
3, 226560, Note_on_c, 1, 72, 105
3, 226848, Note_on_c, 1, 72, 0
3, 227040, Note_on_c, 1, 69, 105
3, 227328, Note_on_c, 1, 69, 0
3, 227520, Note_on_c, 1, 81, 105
3, 227808, Note_on_c, 1, 81, 0
3, 227808, Note_on_c, 1, 77, 0
3, 228000, Note_on_c, 1, 81, 105
3, 228000, Note_on_c, 1, 77, 105
3, 228288, Note_on_c, 1, 77, 0
3, 228288, Note_on_c, 1, 81, 0
3, 228480, Note_on_c, 1, 74, 105
3, 228480, Note_on_c, 1, 82, 105
3, 228768, Note_on_c, 1, 74, 0
3, 228960, Note_on_c, 1, 70, 105
3, 229248, Note_on_c, 1, 70, 0
3, 229440, Note_on_c, 1, 77, 105
3, 229728, Note_on_c, 1, 77, 0
3, 229728, Note_on_c, 1, 82, 0
3, 229920, Note_on_c, 1, 77, 105
3, 229920, Note_on_c, 1, 74, 105
3, 230208, Note_on_c, 1, 74, 0
3, 230208, Note_on_c, 1, 77, 0
3, 230400, Note_on_c, 1, 77, 105
3, 230400, Note_on_c, 1, 72, 105
3, 230688, Note_on_c, 1, 72, 0
3, 230880, Note_on_c, 1, 69, 105
3, 231168, Note_on_c, 1, 69, 0
3, 231360, Note_on_c, 1, 81, 105
3, 231648, Note_on_c, 1, 81, 0
3, 231648, Note_on_c, 1, 77, 0
3, 231840, Note_on_c, 1, 81, 105
3, 231840, Note_on_c, 1, 77, 105
3, 232128, Note_on_c, 1, 77, 0
3, 232128, Note_on_c, 1, 81, 0
3, 232320, Note_on_c, 1, 82, 105
3, 232320, Note_on_c, 1, 74, 105
3, 232608, Note_on_c, 1, 74, 0
3, 232800, Note_on_c, 1, 70, 105
3, 233088, Note_on_c, 1, 70, 0
3, 233280, Note_on_c, 1, 77, 105
3, 233568, Note_on_c, 1, 77, 0
3, 233568, Note_on_c, 1, 82, 0
3, 233760, Note_on_c, 1, 74, 105
3, 233760, Note_on_c, 1, 77, 105
3, 234048, Note_on_c, 1, 77, 0
3, 234048, Note_on_c, 1, 74, 0
3, 234240, Note_on_c, 1, 77, 105
3, 234240, Note_on_c, 1, 72, 105
3, 234528, Note_on_c, 1, 72, 0
3, 234720, Note_on_c, 1, 69, 105
3, 235008, Note_on_c, 1, 69, 0
3, 235200, Note_on_c, 1, 81, 105
3, 235488, Note_on_c, 1, 81, 0
3, 235488, Note_on_c, 1, 77, 0
3, 235680, Note_on_c, 1, 81, 105
3, 235680, Note_on_c, 1, 77, 105
3, 235968, Note_on_c, 1, 77, 0
3, 235968, Note_on_c, 1, 81, 0
3, 236160, Note_on_c, 1, 82, 105
3, 236160, Note_on_c, 1, 74, 105
3, 236544, Note_on_c, 1, 74, 0
3, 236544, Note_on_c, 1, 82, 0
3, 237120, Note_on_c, 1, 74, 105
3, 237120, Note_on_c, 1, 77, 105
3, 237504, Note_on_c, 1, 77, 0
3, 237504, Note_on_c, 1, 74, 0
3, 238080, Note_on_c, 1, 74, 105
3, 238080, Note_on_c, 1, 70, 105
3, 238848, Note_on_c, 1, 70, 0
3, 238848, Note_on_c, 1, 74, 0
3, 243360, Note_on_c, 1, 76, 105
3, 243360, Note_on_c, 1, 81, 105
3, 243648, Note_on_c, 1, 81, 0
3, 243648, Note_on_c, 1, 76, 0
3, 243840, Note_on_c, 1, 81, 105
3, 243840, Note_on_c, 1, 74, 105
3, 244128, Note_on_c, 1, 74, 0
3, 244128, Note_on_c, 1, 81, 0
3, 244320, Note_on_c, 1, 81, 105
3, 244320, Note_on_c, 1, 76, 105
3, 244608, Note_on_c, 1, 76, 0
3, 244608, Note_on_c, 1, 81, 0
3, 244800, Note_on_c, 1, 81, 105
3, 244800, Note_on_c, 1, 74, 105
3, 245088, Note_on_c, 1, 74, 0
3, 245088, Note_on_c, 1, 81, 0
3, 245280, Note_on_c, 1, 76, 105
3, 245280, Note_on_c, 1, 81, 105
3, 245568, Note_on_c, 1, 81, 0
3, 245568, Note_on_c, 1, 76, 0
3, 245760, Note_on_c, 1, 81, 105
3, 245760, Note_on_c, 1, 74, 105
3, 246528, Note_on_c, 1, 74, 0
3, 246528, Note_on_c, 1, 81, 0
3, 251040, Note_on_c, 1, 78, 105
3, 251040, Note_on_c, 1, 84, 105
3, 251328, Note_on_c, 1, 84, 0
3, 251328, Note_on_c, 1, 78, 0
3, 251520, Note_on_c, 1, 79, 105
3, 251520, Note_on_c, 1, 82, 105
3, 251808, Note_on_c, 1, 82, 0
3, 251808, Note_on_c, 1, 79, 0
3, 252000, Note_on_c, 1, 84, 105
3, 252000, Note_on_c, 1, 78, 105
3, 252288, Note_on_c, 1, 78, 0
3, 252288, Note_on_c, 1, 84, 0
3, 252480, Note_on_c, 1, 82, 105
3, 252480, Note_on_c, 1, 79, 105
3, 252768, Note_on_c, 1, 79, 0
3, 252768, Note_on_c, 1, 82, 0
3, 252960, Note_on_c, 1, 78, 105
3, 252960, Note_on_c, 1, 84, 105
3, 253248, Note_on_c, 1, 84, 0
3, 253248, Note_on_c, 1, 78, 0
3, 253440, Note_on_c, 1, 82, 105
3, 253440, Note_on_c, 1, 79, 105
3, 254208, Note_on_c, 1, 79, 0
3, 254208, Note_on_c, 1, 82, 0
3, 258720, Note_on_c, 1, 76, 105
3, 258720, Note_on_c, 1, 81, 105
3, 259008, Note_on_c, 1, 81, 0
3, 259008, Note_on_c, 1, 76, 0
3, 259200, Note_on_c, 1, 74, 105
3, 259200, Note_on_c, 1, 81, 105
3, 259488, Note_on_c, 1, 81, 0
3, 259488, Note_on_c, 1, 74, 0
3, 259680, Note_on_c, 1, 81, 105
3, 259680, Note_on_c, 1, 76, 105
3, 259968, Note_on_c, 1, 76, 0
3, 259968, Note_on_c, 1, 81, 0
3, 260160, Note_on_c, 1, 81, 105
3, 260160, Note_on_c, 1, 74, 105
3, 260448, Note_on_c, 1, 74, 0
3, 260448, Note_on_c, 1, 81, 0
3, 260640, Note_on_c, 1, 76, 105
3, 260640, Note_on_c, 1, 81, 105
3, 260928, Note_on_c, 1, 81, 0
3, 260928, Note_on_c, 1, 76, 0
3, 261120, Note_on_c, 1, 81, 105
3, 261120, Note_on_c, 1, 74, 105
3, 261888, Note_on_c, 1, 74, 0
3, 261888, Note_on_c, 1, 81, 0
3, 266400, Note_on_c, 1, 78, 105
3, 266400, Note_on_c, 1, 84, 105
3, 266688, Note_on_c, 1, 84, 0
3, 266688, Note_on_c, 1, 78, 0
3, 266880, Note_on_c, 1, 82, 105
3, 266880, Note_on_c, 1, 79, 105
3, 267168, Note_on_c, 1, 79, 0
3, 267168, Note_on_c, 1, 82, 0
3, 267360, Note_on_c, 1, 78, 105
3, 267360, Note_on_c, 1, 84, 105
3, 267648, Note_on_c, 1, 84, 0
3, 267648, Note_on_c, 1, 78, 0
3, 267840, Note_on_c, 1, 82, 105
3, 267840, Note_on_c, 1, 79, 105
3, 268128, Note_on_c, 1, 79, 0
3, 268128, Note_on_c, 1, 82, 0
3, 268320, Note_on_c, 1, 78, 105
3, 268320, Note_on_c, 1, 84, 105
3, 268608, Note_on_c, 1, 84, 0
3, 268608, Note_on_c, 1, 78, 0
3, 268800, Note_on_c, 1, 79, 105
3, 268800, Note_on_c, 1, 82, 105
3, 269568, Note_on_c, 1, 82, 0
3, 269568, Note_on_c, 1, 79, 0
3, 270240, Note_on_c, 1, 74, 105
3, 270240, Note_on_c, 1, 62, 105
3, 270528, Note_on_c, 1, 62, 0
3, 270528, Note_on_c, 1, 74, 0
3, 270720, Note_on_c, 1, 62, 105
3, 270720, Note_on_c, 1, 74, 105
3, 271488, Note_on_c, 1, 74, 0
3, 271488, Note_on_c, 1, 62, 0
3, 274080, Note_on_c, 1, 74, 105
3, 274080, Note_on_c, 1, 62, 105
3, 274368, Note_on_c, 1, 62, 0
3, 274368, Note_on_c, 1, 74, 0
3, 274560, Note_on_c, 1, 62, 105
3, 274560, Note_on_c, 1, 74, 105
3, 275328, Note_on_c, 1, 74, 0
3, 275328, Note_on_c, 1, 62, 0
3, 281760, Note_on_c, 1, 78, 105
3, 281760, Note_on_c, 1, 84, 105
3, 282048, Note_on_c, 1, 84, 0
3, 282048, Note_on_c, 1, 78, 0
3, 282240, Note_on_c, 1, 82, 105
3, 282240, Note_on_c, 1, 79, 105
3, 282528, Note_on_c, 1, 79, 0
3, 282528, Note_on_c, 1, 82, 0
3, 282720, Note_on_c, 1, 84, 105
3, 282720, Note_on_c, 1, 78, 105
3, 283008, Note_on_c, 1, 78, 0
3, 283008, Note_on_c, 1, 84, 0
3, 283200, Note_on_c, 1, 79, 105
3, 283200, Note_on_c, 1, 82, 105
3, 283488, Note_on_c, 1, 82, 0
3, 283488, Note_on_c, 1, 79, 0
3, 283680, Note_on_c, 1, 84, 105
3, 283680, Note_on_c, 1, 78, 105
3, 283968, Note_on_c, 1, 78, 0
3, 283968, Note_on_c, 1, 84, 0
3, 284160, Note_on_c, 1, 79, 105
3, 284160, Note_on_c, 1, 82, 105
3, 284928, Note_on_c, 1, 82, 0
3, 284928, Note_on_c, 1, 79, 0
3, 285600, Note_on_c, 1, 74, 105
3, 285600, Note_on_c, 1, 62, 105
3, 285888, Note_on_c, 1, 62, 0
3, 285888, Note_on_c, 1, 74, 0
3, 286080, Note_on_c, 1, 74, 105
3, 286080, Note_on_c, 1, 62, 105
3, 286848, Note_on_c, 1, 62, 0
3, 286848, Note_on_c, 1, 74, 0
3, 289440, Note_on_c, 1, 74, 105
3, 289440, Note_on_c, 1, 62, 105
3, 289728, Note_on_c, 1, 62, 0
3, 289728, Note_on_c, 1, 74, 0
3, 289920, Note_on_c, 1, 74, 105
3, 289920, Note_on_c, 1, 62, 105
3, 290688, Note_on_c, 1, 62, 0
3, 290688, Note_on_c, 1, 74, 0
3, 297120, Note_on_c, 1, 78, 105
3, 297120, Note_on_c, 1, 84, 105
3, 297408, Note_on_c, 1, 84, 0
3, 297408, Note_on_c, 1, 78, 0
3, 297600, Note_on_c, 1, 79, 105
3, 297600, Note_on_c, 1, 82, 105
3, 297888, Note_on_c, 1, 82, 0
3, 297888, Note_on_c, 1, 79, 0
3, 298080, Note_on_c, 1, 84, 105
3, 298080, Note_on_c, 1, 78, 105
3, 298368, Note_on_c, 1, 78, 0
3, 298368, Note_on_c, 1, 84, 0
3, 298560, Note_on_c, 1, 79, 105
3, 298560, Note_on_c, 1, 82, 105
3, 298848, Note_on_c, 1, 82, 0
3, 298848, Note_on_c, 1, 79, 0
3, 299040, Note_on_c, 1, 84, 105
3, 299040, Note_on_c, 1, 78, 105
3, 299328, Note_on_c, 1, 78, 0
3, 299328, Note_on_c, 1, 84, 0
3, 299520, Note_on_c, 1, 82, 105
3, 299520, Note_on_c, 1, 79, 105
3, 300288, Note_on_c, 1, 79, 0
3, 300288, Note_on_c, 1, 82, 0
3, 301440, Note_on_c, 1, 75, 105
3, 301440, Note_on_c, 1, 79, 105
3, 301728, Note_on_c, 1, 79, 0
3, 301728, Note_on_c, 1, 75, 0
3, 301920, Note_on_c, 1, 80, 105
3, 301920, Note_on_c, 1, 74, 105
3, 302208, Note_on_c, 1, 74, 0
3, 302208, Note_on_c, 1, 80, 0
3, 302400, Note_on_c, 1, 79, 105
3, 302400, Note_on_c, 1, 75, 105
3, 302688, Note_on_c, 1, 75, 0
3, 302688, Note_on_c, 1, 79, 0
3, 302880, Note_on_c, 1, 80, 105
3, 302880, Note_on_c, 1, 74, 105
3, 303168, Note_on_c, 1, 74, 0
3, 303168, Note_on_c, 1, 80, 0
3, 303360, Note_on_c, 1, 79, 105
3, 303360, Note_on_c, 1, 75, 105
3, 304128, Note_on_c, 1, 75, 0
3, 304128, Note_on_c, 1, 79, 0
3, 305280, Note_on_c, 1, 74, 105
3, 305280, Note_on_c, 1, 78, 105
3, 305568, Note_on_c, 1, 78, 0
3, 305568, Note_on_c, 1, 74, 0
3, 305760, Note_on_c, 1, 76, 105
3, 305760, Note_on_c, 1, 79, 105
3, 306048, Note_on_c, 1, 79, 0
3, 306048, Note_on_c, 1, 76, 0
3, 306240, Note_on_c, 1, 74, 105
3, 306240, Note_on_c, 1, 78, 105
3, 306528, Note_on_c, 1, 78, 0
3, 306528, Note_on_c, 1, 74, 0
3, 306720, Note_on_c, 1, 76, 105
3, 306720, Note_on_c, 1, 79, 105
3, 307008, Note_on_c, 1, 79, 0
3, 307008, Note_on_c, 1, 76, 0
3, 307200, Note_on_c, 1, 74, 105
3, 307200, Note_on_c, 1, 78, 105
3, 307968, Note_on_c, 1, 78, 0
3, 307968, Note_on_c, 1, 74, 0
3, 309120, Note_on_c, 1, 62, 105
3, 309120, Note_on_c, 1, 74, 105
3, 310656, Note_on_c, 1, 74, 0
3, 310656, Note_on_c, 1, 62, 0
3, 311040, Note_on_c, 1, 72, 105
3, 311040, Note_on_c, 1, 75, 105
3, 312000, Note_on_c, 1, 75, 0
3, 312000, Note_on_c, 1, 72, 0
3, 312000, Note_on_c, 1, 72, 105
3, 312000, Note_on_c, 1, 74, 105
3, 312384, Note_on_c, 1, 74, 0
3, 312384, Note_on_c, 1, 72, 0
3, 312960, Note_on_c, 1, 62, 105
3, 312960, Note_on_c, 1, 74, 105
3, 314496, Note_on_c, 1, 74, 0
3, 314496, Note_on_c, 1, 62, 0
3, 314880, Note_on_c, 1, 72, 105
3, 314880, Note_on_c, 1, 75, 105
3, 315840, Note_on_c, 1, 75, 0
3, 315840, Note_on_c, 1, 72, 0
3, 315840, Note_on_c, 1, 72, 105
3, 315840, Note_on_c, 1, 74, 105
3, 316224, Note_on_c, 1, 74, 0
3, 316224, Note_on_c, 1, 72, 0
3, 316800, Note_on_c, 1, 74, 105
3, 316800, Note_on_c, 1, 70, 105
3, 318336, Note_on_c, 1, 70, 0
3, 318336, Note_on_c, 1, 74, 0
3, 318720, Note_on_c, 1, 75, 105
3, 318720, Note_on_c, 1, 72, 105
3, 320256, Note_on_c, 1, 72, 0
3, 320256, Note_on_c, 1, 75, 0
3, 320640, Note_on_c, 1, 72, 105
3, 320640, Note_on_c, 1, 69, 105
3, 322176, Note_on_c, 1, 69, 0
3, 322176, Note_on_c, 1, 72, 0
3, 322560, Note_on_c, 1, 74, 105
3, 322560, Note_on_c, 1, 70, 105
3, 324096, Note_on_c, 1, 70, 0
3, 324096, Note_on_c, 1, 74, 0
3, 324480, Note_on_c, 1, 79, 105
3, 324672, Note_on_c, 1, 79, 0
3, 324720, Note_on_c, 1, 81, 105
3, 324912, Note_on_c, 1, 81, 0
3, 324960, Note_on_c, 1, 82, 105
3, 325152, Note_on_c, 1, 82, 0
3, 325200, Note_on_c, 1, 81, 105
3, 325392, Note_on_c, 1, 81, 0
3, 325440, Note_on_c, 1, 79, 105
3, 325632, Note_on_c, 1, 79, 0
3, 325680, Note_on_c, 1, 77, 105
3, 325872, Note_on_c, 1, 77, 0
3, 325920, Note_on_c, 1, 75, 105
3, 326112, Note_on_c, 1, 75, 0
3, 326160, Note_on_c, 1, 74, 105
3, 326352, Note_on_c, 1, 74, 0
3, 326400, Note_on_c, 1, 75, 105
3, 326592, Note_on_c, 1, 75, 0
3, 326640, Note_on_c, 1, 77, 105
3, 326832, Note_on_c, 1, 77, 0
3, 326880, Note_on_c, 1, 79, 105
3, 327072, Note_on_c, 1, 79, 0
3, 327120, Note_on_c, 1, 77, 105
3, 327312, Note_on_c, 1, 77, 0
3, 327360, Note_on_c, 1, 75, 105
3, 327552, Note_on_c, 1, 75, 0
3, 327600, Note_on_c, 1, 74, 105
3, 327792, Note_on_c, 1, 74, 0
3, 327840, Note_on_c, 1, 72, 105
3, 328032, Note_on_c, 1, 72, 0
3, 328080, Note_on_c, 1, 70, 105
3, 328272, Note_on_c, 1, 70, 0
3, 328320, Note_on_c, 1, 69, 105
3, 328512, Note_on_c, 1, 69, 0
3, 328560, Note_on_c, 1, 70, 105
3, 328752, Note_on_c, 1, 70, 0
3, 328800, Note_on_c, 1, 72, 105
3, 328992, Note_on_c, 1, 72, 0
3, 329040, Note_on_c, 1, 70, 105
3, 329232, Note_on_c, 1, 70, 0
3, 329280, Note_on_c, 1, 69, 105
3, 329472, Note_on_c, 1, 69, 0
3, 329520, Note_on_c, 1, 67, 105
3, 329712, Note_on_c, 1, 67, 0
3, 329760, Note_on_c, 1, 65, 105
3, 329952, Note_on_c, 1, 65, 0
3, 330000, Note_on_c, 1, 64, 105
3, 330192, Note_on_c, 1, 64, 0
3, 330240, Note_on_c, 1, 65, 105
3, 331008, Note_on_c, 1, 65, 0
3, 332160, Note_on_c, 1, 70, 105
3, 332160, Note_on_c, 1, 74, 105
3, 332448, Note_on_c, 1, 74, 0
3, 332448, Note_on_c, 1, 70, 0
3, 332640, Note_on_c, 1, 75, 105
3, 332640, Note_on_c, 1, 72, 105
3, 332928, Note_on_c, 1, 72, 0
3, 332928, Note_on_c, 1, 75, 0
3, 333120, Note_on_c, 1, 74, 105
3, 333120, Note_on_c, 1, 70, 105
3, 333408, Note_on_c, 1, 70, 0
3, 333408, Note_on_c, 1, 74, 0
3, 333600, Note_on_c, 1, 72, 105
3, 333600, Note_on_c, 1, 75, 105
3, 333888, Note_on_c, 1, 75, 0
3, 333888, Note_on_c, 1, 72, 0
3, 334080, Note_on_c, 1, 70, 105
3, 334080, Note_on_c, 1, 74, 105
3, 334848, Note_on_c, 1, 74, 0
3, 334848, Note_on_c, 1, 70, 0
3, 336000, Note_on_c, 1, 67, 105
3, 336000, Note_on_c, 1, 70, 105
3, 336288, Note_on_c, 1, 70, 0
3, 336288, Note_on_c, 1, 67, 0
3, 336480, Note_on_c, 1, 69, 105
3, 336480, Note_on_c, 1, 72, 105
3, 336768, Note_on_c, 1, 72, 0
3, 336768, Note_on_c, 1, 69, 0
3, 336960, Note_on_c, 1, 70, 105
3, 336960, Note_on_c, 1, 67, 105
3, 337248, Note_on_c, 1, 67, 0
3, 337248, Note_on_c, 1, 70, 0
3, 337440, Note_on_c, 1, 69, 105
3, 337440, Note_on_c, 1, 72, 105
3, 337728, Note_on_c, 1, 72, 0
3, 337728, Note_on_c, 1, 69, 0
3, 337920, Note_on_c, 1, 67, 105
3, 337920, Note_on_c, 1, 70, 105
3, 338688, Note_on_c, 1, 70, 0
3, 338688, Note_on_c, 1, 67, 0
3, 339840, Note_on_c, 1, 75, 105
3, 339840, Note_on_c, 1, 79, 105
3, 340128, Note_on_c, 1, 79, 0
3, 340128, Note_on_c, 1, 75, 0
3, 340320, Note_on_c, 1, 80, 105
3, 340320, Note_on_c, 1, 77, 105
3, 340608, Note_on_c, 1, 77, 0
3, 340608, Note_on_c, 1, 80, 0
3, 340800, Note_on_c, 1, 79, 105
3, 340800, Note_on_c, 1, 75, 105
3, 341088, Note_on_c, 1, 75, 0
3, 341088, Note_on_c, 1, 79, 0
3, 341280, Note_on_c, 1, 77, 105
3, 341280, Note_on_c, 1, 80, 105
3, 341568, Note_on_c, 1, 80, 0
3, 341568, Note_on_c, 1, 77, 0
3, 341760, Note_on_c, 1, 75, 105
3, 341760, Note_on_c, 1, 79, 105
3, 342528, Note_on_c, 1, 79, 0
3, 342528, Note_on_c, 1, 75, 0
3, 343680, Note_on_c, 1, 77, 105
3, 343968, Note_on_c, 1, 77, 0
3, 344160, Note_on_c, 1, 79, 105
3, 344448, Note_on_c, 1, 79, 0
3, 344640, Note_on_c, 1, 77, 105
3, 344928, Note_on_c, 1, 77, 0
3, 345120, Note_on_c, 1, 79, 105
3, 345408, Note_on_c, 1, 79, 0
3, 345600, Note_on_c, 1, 77, 105
3, 346368, Note_on_c, 1, 77, 0
3, 347520, Note_on_c, 1, 77, 105
3, 347520, Note_on_c, 1, 65, 105
3, 349056, Note_on_c, 1, 65, 0
3, 349056, Note_on_c, 1, 77, 0
3, 349440, Note_on_c, 1, 66, 105
3, 349440, Note_on_c, 1, 78, 105
3, 350976, Note_on_c, 1, 78, 0
3, 350976, Note_on_c, 1, 66, 0
3, 351360, Note_on_c, 1, 79, 105
3, 351360, Note_on_c, 1, 67, 105
3, 352896, Note_on_c, 1, 67, 0
3, 352896, Note_on_c, 1, 79, 0
3, 353280, Note_on_c, 1, 74, 105
3, 354816, Note_on_c, 1, 74, 0
3, 355200, Note_on_c, 1, 75, 105
3, 356736, Note_on_c, 1, 75, 0
3, 357120, Note_on_c, 1, 71, 105
3, 358656, Note_on_c, 1, 71, 0
3, 359040, Note_on_c, 1, 72, 105
3, 359808, Note_on_c, 1, 72, 0
3, 360000, Note_on_c, 1, 77, 105
3, 360000, Note_on_c, 1, 68, 105
3, 360768, Note_on_c, 1, 68, 0
3, 360768, Note_on_c, 1, 77, 0
3, 360960, Note_on_c, 1, 79, 105
3, 360960, Note_on_c, 1, 67, 105
3, 361728, Note_on_c, 1, 67, 0
3, 361920, Note_on_c, 1, 72, 105
3, 362688, Note_on_c, 1, 72, 0
3, 362688, Note_on_c, 1, 79, 0
3, 362880, Note_on_c, 1, 77, 105
3, 362880, Note_on_c, 1, 72, 105
3, 364416, Note_on_c, 1, 72, 0
3, 364416, Note_on_c, 1, 77, 0
3, 364800, Note_on_c, 1, 76, 105
3, 364800, Note_on_c, 1, 70, 105
3, 366336, Note_on_c, 1, 70, 0
3, 366336, Note_on_c, 1, 76, 0
3, 366720, Note_on_c, 1, 77, 105
3, 366720, Note_on_c, 1, 69, 105
3, 368256, Note_on_c, 1, 69, 0
3, 368256, Note_on_c, 1, 77, 0
3, 368640, Note_on_c, 1, 79, 105
3, 368640, Note_on_c, 1, 82, 105
3, 370176, Note_on_c, 1, 82, 0
3, 370176, Note_on_c, 1, 79, 0
3, 370560, Note_on_c, 1, 77, 105
3, 370560, Note_on_c, 1, 81, 105
3, 370944, Note_on_c, 1, 81, 0
3, 370944, Note_on_c, 1, 77, 0
3, 371520, Note_on_c, 1, 81, 105
3, 371520, Note_on_c, 1, 72, 105
3, 371904, Note_on_c, 1, 72, 0
3, 371904, Note_on_c, 1, 81, 0
3, 372480, Note_on_c, 1, 69, 92
3, 372480, Note_on_c, 1, 72, 92
3, 373248, Note_on_c, 1, 72, 0
3, 373248, Note_on_c, 1, 69, 0
3, 401760, Note_on_c, 1, 65, 80
3, 402240, Note_on_c, 1, 65, 0
3, 402240, Note_on_c, 1, 70, 80
3, 402720, Note_on_c, 1, 70, 0
3, 402720, Note_on_c, 1, 72, 80
3, 403200, Note_on_c, 1, 72, 0
3, 403200, Note_on_c, 1, 74, 80
3, 403584, Note_on_c, 1, 74, 0
3, 403680, Note_on_c, 1, 70, 80
3, 404160, Note_on_c, 1, 70, 0
3, 404160, Note_on_c, 1, 74, 80
3, 404640, Note_on_c, 1, 74, 0
3, 404640, Note_on_c, 1, 75, 80
3, 405024, Note_on_c, 1, 75, 0
3, 405120, Note_on_c, 1, 77, 80
3, 406656, Note_on_c, 1, 77, 0
3, 407040, Note_on_c, 1, 76, 80
3, 407160, Note_on_c, 1, 76, 0
3, 407160, Note_on_c, 1, 77, 80
3, 407832, Note_on_c, 1, 77, 0
3, 408000, Note_on_c, 1, 76, 80
3, 408120, Note_on_c, 1, 76, 0
3, 408120, Note_on_c, 1, 77, 80
3, 408792, Note_on_c, 1, 77, 0
3, 408960, Note_on_c, 1, 82, 92
3, 409200, Note_on_c, 1, 82, 0
3, 409200, Note_on_c, 1, 81, 92
3, 409440, Note_on_c, 1, 81, 0
3, 409440, Note_on_c, 1, 79, 92
3, 409680, Note_on_c, 1, 79, 0
3, 409680, Note_on_c, 1, 77, 92
3, 409872, Note_on_c, 1, 77, 0
3, 409920, Note_on_c, 1, 75, 92
3, 411792, Note_on_c, 1, 75, 0
3, 411840, Note_on_c, 1, 74, 80
3, 412608, Note_on_c, 1, 74, 0
3, 412800, Note_on_c, 1, 72, 80
3, 413520, Note_on_c, 1, 72, 0
3, 413520, Note_on_c, 1, 74, 80
3, 413600, Note_on_c, 1, 74, 0
3, 413600, Note_on_c, 1, 72, 80
3, 413680, Note_on_c, 1, 72, 0
3, 413680, Note_on_c, 1, 71, 80
3, 413760, Note_on_c, 1, 71, 0
3, 413760, Note_on_c, 1, 72, 80
3, 414144, Note_on_c, 1, 72, 0
3, 414240, Note_on_c, 1, 74, 80
3, 414624, Note_on_c, 1, 74, 0
3, 414720, Note_on_c, 1, 75, 80
3, 415104, Note_on_c, 1, 75, 0
3, 415200, Note_on_c, 1, 75, 80
3, 415680, Note_on_c, 1, 75, 0
3, 415680, Note_on_c, 1, 77, 80
3, 416160, Note_on_c, 1, 77, 0
3, 416160, Note_on_c, 1, 79, 80
3, 416544, Note_on_c, 1, 79, 0
3, 416640, Note_on_c, 1, 74, 80
3, 418080, Note_on_c, 1, 74, 0
3, 418080, Note_on_c, 1, 75, 80
3, 418320, Note_on_c, 1, 75, 0
3, 418320, Note_on_c, 1, 74, 80
3, 418512, Note_on_c, 1, 74, 0
3, 418560, Note_on_c, 1, 72, 80
3, 419040, Note_on_c, 1, 72, 0
3, 419040, Note_on_c, 1, 74, 80
3, 419520, Note_on_c, 1, 74, 0
3, 419520, Note_on_c, 1, 75, 80
3, 420000, Note_on_c, 1, 75, 0
3, 420000, Note_on_c, 1, 76, 80
3, 420384, Note_on_c, 1, 76, 0
3, 420480, Note_on_c, 1, 77, 70
3, 420480, Note_on_c, 1, 74, 70
3, 421440, Note_on_c, 1, 74, 0
3, 421440, Note_on_c, 1, 73, 70
3, 422400, Note_on_c, 1, 73, 0
3, 422400, Note_on_c, 1, 72, 70
3, 423360, Note_on_c, 1, 72, 0
3, 423360, Note_on_c, 1, 71, 70
3, 424320, Note_on_c, 1, 71, 0
3, 424320, Note_on_c, 1, 70, 70
3, 425280, Note_on_c, 1, 77, 0
3, 425280, Note_on_c, 1, 76, 70
3, 426240, Note_on_c, 1, 76, 0
3, 426240, Note_on_c, 1, 75, 70
3, 427200, Note_on_c, 1, 75, 0
3, 427200, Note_on_c, 1, 70, 0
3, 427200, Note_on_c, 1, 74, 70
3, 427200, Note_on_c, 1, 71, 70
3, 427968, Note_on_c, 1, 71, 0
3, 427968, Note_on_c, 1, 74, 0
3, 428160, Note_on_c, 1, 75, 70
3, 428160, Note_on_c, 1, 72, 70
3, 429600, Note_on_c, 1, 72, 0
3, 429600, Note_on_c, 1, 75, 0
3, 429600, Note_on_c, 1, 77, 70
3, 429600, Note_on_c, 1, 74, 70
3, 429840, Note_on_c, 1, 74, 0
3, 429840, Note_on_c, 1, 77, 0
3, 429840, Note_on_c, 1, 79, 70
3, 429840, Note_on_c, 1, 75, 70
3, 430032, Note_on_c, 1, 75, 0
3, 430032, Note_on_c, 1, 79, 0
3, 430080, Note_on_c, 1, 70, 70
3, 430080, Note_on_c, 1, 74, 70
3, 430800, Note_on_c, 1, 74, 0
3, 430800, Note_on_c, 1, 70, 0
3, 431040, Note_on_c, 1, 69, 70
3, 431040, Note_on_c, 1, 72, 70
3, 431760, Note_on_c, 1, 72, 0
3, 431760, Note_on_c, 1, 69, 0
3, 432000, Note_on_c, 1, 70, 92
3, 432768, Note_on_c, 1, 70, 0
3, 433920, Note_on_c, 1, 74, 105
3, 433920, Note_on_c, 1, 82, 105
3, 434208, Note_on_c, 1, 82, 0
3, 434208, Note_on_c, 1, 74, 0
3, 434400, Note_on_c, 1, 81, 105
3, 434400, Note_on_c, 1, 72, 105
3, 434688, Note_on_c, 1, 72, 0
3, 434688, Note_on_c, 1, 81, 0
3, 434880, Note_on_c, 1, 82, 105
3, 434880, Note_on_c, 1, 74, 105
3, 435168, Note_on_c, 1, 74, 0
3, 435168, Note_on_c, 1, 82, 0
3, 435360, Note_on_c, 1, 81, 105
3, 435360, Note_on_c, 1, 72, 105
3, 435648, Note_on_c, 1, 72, 0
3, 435648, Note_on_c, 1, 81, 0
3, 435840, Note_on_c, 1, 74, 105
3, 435840, Note_on_c, 1, 82, 105
3, 436608, Note_on_c, 1, 82, 0
3, 436608, Note_on_c, 1, 74, 0
3, 437760, Note_on_c, 1, 74, 105
3, 437760, Note_on_c, 1, 82, 105
3, 438048, Note_on_c, 1, 82, 0
3, 438048, Note_on_c, 1, 74, 0
3, 438240, Note_on_c, 1, 81, 105
3, 438240, Note_on_c, 1, 72, 105
3, 438528, Note_on_c, 1, 72, 0
3, 438528, Note_on_c, 1, 81, 0
3, 438720, Note_on_c, 1, 82, 105
3, 438720, Note_on_c, 1, 74, 105
3, 439008, Note_on_c, 1, 74, 0
3, 439008, Note_on_c, 1, 82, 0
3, 439200, Note_on_c, 1, 81, 105
3, 439200, Note_on_c, 1, 72, 105
3, 439488, Note_on_c, 1, 72, 0
3, 439488, Note_on_c, 1, 81, 0
3, 439680, Note_on_c, 1, 82, 105
3, 439680, Note_on_c, 1, 74, 105
3, 440448, Note_on_c, 1, 74, 0
3, 440448, Note_on_c, 1, 82, 0
3, 441600, Note_on_c, 1, 74, 105
3, 441600, Note_on_c, 1, 82, 105
3, 441888, Note_on_c, 1, 82, 0
3, 441888, Note_on_c, 1, 74, 0
3, 442080, Note_on_c, 1, 81, 105
3, 442080, Note_on_c, 1, 72, 105
3, 442368, Note_on_c, 1, 72, 0
3, 442368, Note_on_c, 1, 81, 0
3, 442560, Note_on_c, 1, 82, 105
3, 442560, Note_on_c, 1, 74, 105
3, 442848, Note_on_c, 1, 74, 0
3, 442848, Note_on_c, 1, 82, 0
3, 443040, Note_on_c, 1, 81, 105
3, 443040, Note_on_c, 1, 72, 105
3, 443328, Note_on_c, 1, 72, 0
3, 443328, Note_on_c, 1, 81, 0
3, 443520, Note_on_c, 1, 82, 105
3, 443520, Note_on_c, 1, 74, 105
3, 444288, Note_on_c, 1, 74, 0
3, 444288, Note_on_c, 1, 82, 0
3, 444480, Note_on_c, 1, 79, 105
3, 444480, Note_on_c, 1, 84, 105
3, 445248, Note_on_c, 1, 84, 0
3, 445248, Note_on_c, 1, 79, 0
3, 445440, Note_on_c, 1, 77, 105
3, 445440, Note_on_c, 1, 82, 105
3, 446208, Note_on_c, 1, 82, 0
3, 446208, Note_on_c, 1, 77, 0
3, 446400, Note_on_c, 1, 75, 105
3, 446400, Note_on_c, 1, 81, 105
3, 447168, Note_on_c, 1, 81, 0
3, 447168, Note_on_c, 1, 75, 0
3, 447360, Note_on_c, 1, 74, 92
3, 447360, Note_on_c, 1, 82, 92
3, 447744, Note_on_c, 1, 82, 0
3, 447744, Note_on_c, 1, 74, 0
3, 456960, Note_on_c, 1, 74, 105
3, 456960, Note_on_c, 1, 82, 105
3, 457248, Note_on_c, 1, 82, 0
3, 457248, Note_on_c, 1, 74, 0
3, 457440, Note_on_c, 1, 72, 105
3, 457440, Note_on_c, 1, 81, 105
3, 457728, Note_on_c, 1, 81, 0
3, 457728, Note_on_c, 1, 72, 0
3, 457920, Note_on_c, 1, 82, 105
3, 457920, Note_on_c, 1, 74, 105
3, 458208, Note_on_c, 1, 74, 0
3, 458208, Note_on_c, 1, 82, 0
3, 458400, Note_on_c, 1, 72, 105
3, 458400, Note_on_c, 1, 81, 105
3, 458688, Note_on_c, 1, 81, 0
3, 458688, Note_on_c, 1, 72, 0
3, 458880, Note_on_c, 1, 82, 105
3, 458880, Note_on_c, 1, 74, 105
3, 459648, Note_on_c, 1, 74, 0
3, 459648, Note_on_c, 1, 82, 0
3, 459840, Note_on_c, 1, 84, 105
3, 459840, Note_on_c, 1, 79, 105
3, 460608, Note_on_c, 1, 79, 0
3, 460608, Note_on_c, 1, 84, 0
3, 460800, Note_on_c, 1, 82, 105
3, 460800, Note_on_c, 1, 77, 105
3, 461568, Note_on_c, 1, 77, 0
3, 461568, Note_on_c, 1, 82, 0
3, 461760, Note_on_c, 1, 81, 105
3, 461760, Note_on_c, 1, 75, 105
3, 462528, Note_on_c, 1, 75, 0
3, 462528, Note_on_c, 1, 81, 0
3, 462720, Note_on_c, 1, 82, 105
3, 462720, Note_on_c, 1, 74, 105
3, 463008, Note_on_c, 1, 74, 0
3, 463200, Note_on_c, 1, 70, 105
3, 463488, Note_on_c, 1, 70, 0
3, 463488, Note_on_c, 1, 82, 0
3, 463680, Note_on_c, 1, 77, 105
3, 463968, Note_on_c, 1, 77, 0
3, 464160, Note_on_c, 1, 77, 105
3, 464160, Note_on_c, 1, 74, 105
3, 464448, Note_on_c, 1, 74, 0
3, 464448, Note_on_c, 1, 77, 0
3, 464640, Note_on_c, 1, 77, 105
3, 464640, Note_on_c, 1, 72, 105
3, 464928, Note_on_c, 1, 72, 0
3, 465120, Note_on_c, 1, 69, 105
3, 465408, Note_on_c, 1, 69, 0
3, 465600, Note_on_c, 1, 81, 105
3, 465888, Note_on_c, 1, 81, 0
3, 465888, Note_on_c, 1, 77, 0
3, 466080, Note_on_c, 1, 81, 105
3, 466080, Note_on_c, 1, 77, 105
3, 466368, Note_on_c, 1, 77, 0
3, 466368, Note_on_c, 1, 81, 0
3, 466560, Note_on_c, 1, 74, 105
3, 466560, Note_on_c, 1, 82, 105
3, 466848, Note_on_c, 1, 74, 0
3, 467040, Note_on_c, 1, 70, 105
3, 467328, Note_on_c, 1, 70, 0
3, 467520, Note_on_c, 1, 77, 105
3, 467808, Note_on_c, 1, 77, 0
3, 467808, Note_on_c, 1, 82, 0
3, 468000, Note_on_c, 1, 77, 105
3, 468000, Note_on_c, 1, 74, 105
3, 468288, Note_on_c, 1, 74, 0
3, 468288, Note_on_c, 1, 77, 0
3, 468480, Note_on_c, 1, 77, 105
3, 468480, Note_on_c, 1, 72, 105
3, 468768, Note_on_c, 1, 72, 0
3, 468960, Note_on_c, 1, 69, 105
3, 469248, Note_on_c, 1, 69, 0
3, 469440, Note_on_c, 1, 81, 105
3, 469728, Note_on_c, 1, 81, 0
3, 469728, Note_on_c, 1, 77, 0
3, 469920, Note_on_c, 1, 81, 105
3, 469920, Note_on_c, 1, 77, 105
3, 470208, Note_on_c, 1, 77, 0
3, 470208, Note_on_c, 1, 81, 0
3, 470400, Note_on_c, 1, 82, 105
3, 470400, Note_on_c, 1, 74, 105
3, 470688, Note_on_c, 1, 74, 0
3, 470880, Note_on_c, 1, 70, 105
3, 471168, Note_on_c, 1, 70, 0
3, 471360, Note_on_c, 1, 77, 105
3, 471648, Note_on_c, 1, 77, 0
3, 471648, Note_on_c, 1, 82, 0
3, 471840, Note_on_c, 1, 74, 105
3, 471840, Note_on_c, 1, 77, 105
3, 472128, Note_on_c, 1, 77, 0
3, 472128, Note_on_c, 1, 74, 0
3, 472320, Note_on_c, 1, 77, 105
3, 472320, Note_on_c, 1, 72, 105
3, 472608, Note_on_c, 1, 72, 0
3, 472800, Note_on_c, 1, 69, 105
3, 473088, Note_on_c, 1, 69, 0
3, 473280, Note_on_c, 1, 81, 105
3, 473568, Note_on_c, 1, 81, 0
3, 473568, Note_on_c, 1, 77, 0
3, 473760, Note_on_c, 1, 81, 105
3, 473760, Note_on_c, 1, 77, 105
3, 474048, Note_on_c, 1, 77, 0
3, 474048, Note_on_c, 1, 81, 0
3, 474240, Note_on_c, 1, 82, 105
3, 474240, Note_on_c, 1, 74, 105
3, 474624, Note_on_c, 1, 74, 0
3, 474624, Note_on_c, 1, 82, 0
3, 475200, Note_on_c, 1, 74, 105
3, 475200, Note_on_c, 1, 77, 105
3, 475584, Note_on_c, 1, 77, 0
3, 475584, Note_on_c, 1, 74, 0
3, 476160, Note_on_c, 1, 70, 92
3, 476160, Note_on_c, 1, 74, 92
3, 476928, Note_on_c, 1, 74, 0
3, 476928, Note_on_c, 1, 70, 0
3, 477600, Note_on_c, 1, 70, 112
3, 478080, Note_on_c, 1, 70, 0
3, 478080, Note_on_c, 1, 74, 105
3, 478368, Note_on_c, 1, 74, 0
3, 478560, Note_on_c, 1, 77, 105
3, 478848, Note_on_c, 1, 77, 0
3, 479040, Note_on_c, 1, 81, 105
3, 479328, Note_on_c, 1, 81, 0
3, 479520, Note_on_c, 1, 82, 105
3, 479808, Note_on_c, 1, 82, 0
3, 480000, Note_on_c, 1, 85, 105
3, 480960, Note_on_c, 1, 85, 0
3, 480960, Note_on_c, 1, 84, 105
3, 481248, Note_on_c, 1, 84, 0
3, 481440, Note_on_c, 1, 76, 105
3, 481728, Note_on_c, 1, 76, 0
3, 481920, Note_on_c, 1, 80, 105
3, 482256, Note_on_c, 1, 80, 0
3, 482880, Note_on_c, 1, 71, 105
3, 483216, Note_on_c, 1, 71, 0
3, 485520, Note_on_c, 1, 71, 105
3, 485600, Note_on_c, 1, 71, 0
3, 485600, Note_on_c, 1, 72, 105
3, 485680, Note_on_c, 1, 72, 0
3, 485680, Note_on_c, 1, 74, 105
3, 485760, Note_on_c, 1, 74, 0
3, 485760, Note_on_c, 1, 75, 105
3, 486096, Note_on_c, 1, 75, 0
3, 486720, Note_on_c, 1, 66, 105
3, 487056, Note_on_c, 1, 66, 0
3, 487680, Note_on_c, 1, 82, 105
3, 487680, Note_on_c, 1, 70, 105
3, 488016, Note_on_c, 1, 70, 0
3, 488016, Note_on_c, 1, 82, 0
3, 489600, Note_on_c, 1, 73, 105
3, 489936, Note_on_c, 1, 73, 0
3, 491520, Note_on_c, 1, 77, 105
3, 491856, Note_on_c, 1, 77, 0
3, 492480, Note_on_c, 1, 68, 105
3, 492816, Note_on_c, 1, 68, 0
3, 493440, Note_on_c, 1, 74, 70
3, 493440, Note_on_c, 1, 77, 70
3, 495360, Note_on_c, 1, 77, 0
3, 495360, Note_on_c, 1, 74, 0
3, 495360, Note_on_c, 1, 76, 70
3, 495360, Note_on_c, 1, 73, 70
3, 496320, Note_on_c, 1, 73, 0
3, 496320, Note_on_c, 1, 76, 0
3, 496320, Note_on_c, 1, 74, 70
3, 496320, Note_on_c, 1, 71, 70
3, 497280, Note_on_c, 1, 71, 0
3, 497280, Note_on_c, 1, 74, 0
3, 497280, Note_on_c, 1, 73, 58
3, 497280, Note_on_c, 1, 69, 58
3, 497664, Note_on_c, 1, 69, 0
3, 497664, Note_on_c, 1, 73, 0
3, 547200, Note_on_c, 1, 72, 92
3, 547200, Note_on_c, 1, 84, 92
3, 548736, Note_on_c, 1, 84, 0
3, 548736, Note_on_c, 1, 72, 0
3, 549120, Note_on_c, 1, 66, 92
3, 549120, Note_on_c, 1, 78, 92
3, 550656, Note_on_c, 1, 78, 0
3, 550656, Note_on_c, 1, 66, 0
3, 551040, Note_on_c, 1, 67, 92
3, 551040, Note_on_c, 1, 79, 92
3, 551808, Note_on_c, 1, 79, 0
3, 552768, Note_on_c, 1, 67, 0
3, 552960, Note_on_c, 1, 61, 92
3, 554496, Note_on_c, 1, 61, 0
3, 554880, Note_on_c, 1, 62, 92
3, 554880, Note_on_c, 1, 74, 92
3, 556416, Note_on_c, 1, 74, 0
3, 556416, Note_on_c, 1, 62, 0
3, 556800, Note_on_c, 1, 68, 92
3, 556800, Note_on_c, 1, 80, 92
3, 558336, Note_on_c, 1, 80, 0
3, 558336, Note_on_c, 1, 68, 0
3, 558720, Note_on_c, 1, 81, 92
3, 558720, Note_on_c, 1, 69, 92
3, 559488, Note_on_c, 1, 81, 0
3, 560448, Note_on_c, 1, 69, 0
3, 560640, Note_on_c, 1, 63, 92
3, 562176, Note_on_c, 1, 63, 0
3, 562560, Note_on_c, 1, 76, 92
3, 562560, Note_on_c, 1, 64, 92
3, 564096, Note_on_c, 1, 64, 0
3, 564096, Note_on_c, 1, 76, 0
3, 564480, Note_on_c, 1, 82, 92
3, 564480, Note_on_c, 1, 70, 92
3, 566016, Note_on_c, 1, 70, 0
3, 566016, Note_on_c, 1, 82, 0
3, 566400, Note_on_c, 1, 83, 92
3, 566400, Note_on_c, 1, 71, 92
3, 567168, Note_on_c, 1, 83, 0
3, 568128, Note_on_c, 1, 71, 0
3, 568320, Note_on_c, 1, 65, 92
3, 569856, Note_on_c, 1, 65, 0
3, 570240, Note_on_c, 1, 78, 92
3, 570240, Note_on_c, 1, 66, 92
3, 571776, Note_on_c, 1, 66, 0
3, 571776, Note_on_c, 1, 78, 0
3, 572160, Note_on_c, 1, 79, 92
3, 572160, Note_on_c, 1, 67, 92
3, 573312, Note_on_c, 1, 67, 0
3, 573312, Note_on_c, 1, 79, 0
3, 573600, Note_on_c, 1, 67, 112
3, 574080, Note_on_c, 1, 67, 0
3, 574080, Note_on_c, 1, 68, 105
3, 574368, Note_on_c, 1, 68, 0
3, 574560, Note_on_c, 1, 68, 105
3, 574848, Note_on_c, 1, 68, 0
3, 575040, Note_on_c, 1, 72, 105
3, 575040, Note_on_c, 1, 68, 105
3, 575328, Note_on_c, 1, 68, 0
3, 575328, Note_on_c, 1, 72, 0
3, 575520, Note_on_c, 1, 75, 105
3, 575520, Note_on_c, 1, 72, 105
3, 575808, Note_on_c, 1, 72, 0
3, 575808, Note_on_c, 1, 75, 0
3, 576000, Note_on_c, 1, 75, 105
3, 576000, Note_on_c, 1, 78, 105
3, 576960, Note_on_c, 1, 78, 0
3, 576960, Note_on_c, 1, 75, 0
3, 576960, Note_on_c, 1, 76, 105
3, 576960, Note_on_c, 1, 73, 105
3, 577248, Note_on_c, 1, 73, 0
3, 577248, Note_on_c, 1, 76, 0
3, 577440, Note_on_c, 1, 75, 105
3, 577440, Note_on_c, 1, 72, 105
3, 577728, Note_on_c, 1, 72, 0
3, 577728, Note_on_c, 1, 75, 0
3, 577920, Note_on_c, 1, 73, 92
3, 577920, Note_on_c, 1, 76, 92
3, 578688, Note_on_c, 1, 76, 0
3, 578688, Note_on_c, 1, 73, 0
3, 581280, Note_on_c, 1, 68, 112
3, 582048, Note_on_c, 1, 68, 0
3, 582240, Note_on_c, 1, 72, 105
3, 582240, Note_on_c, 1, 68, 105
3, 582528, Note_on_c, 1, 68, 0
3, 582528, Note_on_c, 1, 72, 0
3, 582720, Note_on_c, 1, 72, 105
3, 582720, Note_on_c, 1, 75, 105
3, 583008, Note_on_c, 1, 75, 0
3, 583008, Note_on_c, 1, 72, 0
3, 583200, Note_on_c, 1, 78, 105
3, 583200, Note_on_c, 1, 75, 105
3, 583488, Note_on_c, 1, 75, 0
3, 583488, Note_on_c, 1, 78, 0
3, 583680, Note_on_c, 1, 81, 105
3, 583680, Note_on_c, 1, 78, 105
3, 584640, Note_on_c, 1, 78, 0
3, 584640, Note_on_c, 1, 81, 0
3, 584640, Note_on_c, 1, 80, 105
3, 584640, Note_on_c, 1, 76, 105
3, 584928, Note_on_c, 1, 76, 0
3, 584928, Note_on_c, 1, 80, 0
3, 585120, Note_on_c, 1, 75, 105
3, 585120, Note_on_c, 1, 78, 105
3, 585408, Note_on_c, 1, 78, 0
3, 585408, Note_on_c, 1, 75, 0
3, 585600, Note_on_c, 1, 73, 92
3, 585600, Note_on_c, 1, 76, 92
3, 586368, Note_on_c, 1, 76, 0
3, 586368, Note_on_c, 1, 73, 0
3, 587520, Note_on_c, 1, 73, 105
3, 588480, Note_on_c, 1, 73, 0
3, 588480, Note_on_c, 1, 72, 105
3, 588768, Note_on_c, 1, 72, 0
3, 588960, Note_on_c, 1, 73, 105
3, 589248, Note_on_c, 1, 73, 0
3, 589440, Note_on_c, 1, 75, 105
3, 590016, Note_on_c, 1, 75, 0
3, 590400, Note_on_c, 1, 76, 105
3, 592320, Note_on_c, 1, 76, 0
3, 592320, Note_on_c, 1, 75, 105
3, 592992, Note_on_c, 1, 75, 0
3, 593280, Note_on_c, 1, 75, 105
3, 593280, Note_on_c, 1, 76, 105
3, 593664, Note_on_c, 1, 76, 0
3, 593664, Note_on_c, 1, 75, 0
3, 594240, Note_on_c, 1, 76, 105
3, 594240, Note_on_c, 1, 73, 105
3, 594624, Note_on_c, 1, 73, 0
3, 594624, Note_on_c, 1, 76, 0
3, 595200, Note_on_c, 1, 73, 105
3, 595200, Note_on_c, 1, 75, 105
3, 595584, Note_on_c, 1, 75, 0
3, 595584, Note_on_c, 1, 73, 0
3, 596160, Note_on_c, 1, 72, 105
3, 596160, Note_on_c, 1, 75, 105
3, 596544, Note_on_c, 1, 75, 0
3, 596544, Note_on_c, 1, 72, 0
3, 597120, Note_on_c, 1, 73, 105
3, 597504, Note_on_c, 1, 73, 0
3, 600480, Note_on_c, 1, 66, 80
3, 600960, Note_on_c, 1, 66, 0
3, 600960, Note_on_c, 1, 68, 80
3, 601272, Note_on_c, 1, 68, 0
3, 601440, Note_on_c, 1, 73, 80
3, 601752, Note_on_c, 1, 73, 0
3, 601920, Note_on_c, 1, 76, 80
3, 602232, Note_on_c, 1, 76, 0
3, 602400, Note_on_c, 1, 80, 80
3, 602712, Note_on_c, 1, 80, 0
3, 602880, Note_on_c, 1, 81, 80
3, 603840, Note_on_c, 1, 81, 0
3, 603840, Note_on_c, 1, 80, 70
3, 604128, Note_on_c, 1, 80, 0
3, 604800, Note_on_c, 1, 73, 70
3, 604800, Note_on_c, 1, 77, 70
3, 605184, Note_on_c, 1, 77, 0
3, 605184, Note_on_c, 1, 73, 0
3, 605760, Note_on_c, 1, 73, 105
3, 605760, Note_on_c, 1, 78, 105
3, 606144, Note_on_c, 1, 78, 0
3, 606144, Note_on_c, 1, 73, 0
3, 606720, Note_on_c, 1, 83, 105
3, 606720, Note_on_c, 1, 80, 105
3, 607488, Note_on_c, 1, 80, 0
3, 607488, Note_on_c, 1, 83, 0
3, 608160, Note_on_c, 1, 73, 105
3, 608640, Note_on_c, 1, 73, 0
3, 608640, Note_on_c, 1, 66, 105
3, 608640, Note_on_c, 1, 78, 105
3, 608928, Note_on_c, 1, 78, 0
3, 608928, Note_on_c, 1, 66, 0
3, 609120, Note_on_c, 1, 70, 105
3, 609120, Note_on_c, 1, 82, 105
3, 609408, Note_on_c, 1, 82, 0
3, 609408, Note_on_c, 1, 70, 0
3, 609600, Note_on_c, 1, 71, 105
3, 609600, Note_on_c, 1, 83, 105
3, 609888, Note_on_c, 1, 83, 0
3, 609888, Note_on_c, 1, 71, 0
3, 610080, Note_on_c, 1, 74, 105
3, 610368, Note_on_c, 1, 74, 0
3, 610560, Note_on_c, 1, 79, 105
3, 611520, Note_on_c, 1, 79, 0
3, 611520, Note_on_c, 1, 78, 105
3, 611904, Note_on_c, 1, 78, 0
3, 612480, Note_on_c, 1, 75, 105
3, 612480, Note_on_c, 1, 71, 105
3, 612864, Note_on_c, 1, 71, 0
3, 612864, Note_on_c, 1, 75, 0
3, 613440, Note_on_c, 1, 71, 105
3, 613440, Note_on_c, 1, 76, 105
3, 613824, Note_on_c, 1, 76, 0
3, 613824, Note_on_c, 1, 71, 0
3, 614400, Note_on_c, 1, 78, 105
3, 614400, Note_on_c, 1, 81, 105
3, 615168, Note_on_c, 1, 81, 0
3, 615168, Note_on_c, 1, 78, 0
3, 615840, Note_on_c, 1, 71, 105
3, 616320, Note_on_c, 1, 71, 0
3, 616320, Note_on_c, 1, 76, 105
3, 616320, Note_on_c, 1, 64, 105
3, 616608, Note_on_c, 1, 64, 0
3, 616608, Note_on_c, 1, 76, 0
3, 616800, Note_on_c, 1, 80, 105
3, 616800, Note_on_c, 1, 68, 105
3, 617088, Note_on_c, 1, 68, 0
3, 617088, Note_on_c, 1, 80, 0
3, 617280, Note_on_c, 1, 69, 105
3, 617280, Note_on_c, 1, 81, 105
3, 617568, Note_on_c, 1, 81, 0
3, 617568, Note_on_c, 1, 69, 0
3, 617760, Note_on_c, 1, 72, 105
3, 618048, Note_on_c, 1, 72, 0
3, 618240, Note_on_c, 1, 77, 105
3, 619200, Note_on_c, 1, 77, 0
3, 619200, Note_on_c, 1, 76, 105
3, 619584, Note_on_c, 1, 76, 0
3, 620160, Note_on_c, 1, 69, 105
3, 620160, Note_on_c, 1, 73, 105
3, 620544, Note_on_c, 1, 73, 0
3, 620544, Note_on_c, 1, 69, 0
3, 621120, Note_on_c, 1, 74, 105
3, 621120, Note_on_c, 1, 69, 105
3, 621504, Note_on_c, 1, 69, 0
3, 621504, Note_on_c, 1, 74, 0
3, 622080, Note_on_c, 1, 79, 105
3, 622080, Note_on_c, 1, 76, 105
3, 622848, Note_on_c, 1, 76, 0
3, 622848, Note_on_c, 1, 79, 0
3, 623520, Note_on_c, 1, 69, 105
3, 624000, Note_on_c, 1, 69, 0
3, 624000, Note_on_c, 1, 62, 105
3, 624000, Note_on_c, 1, 74, 105
3, 624288, Note_on_c, 1, 74, 0
3, 624288, Note_on_c, 1, 62, 0
3, 624480, Note_on_c, 1, 78, 105
3, 624480, Note_on_c, 1, 66, 105
3, 624768, Note_on_c, 1, 66, 0
3, 624768, Note_on_c, 1, 78, 0
3, 624960, Note_on_c, 1, 79, 105
3, 624960, Note_on_c, 1, 67, 105
3, 625248, Note_on_c, 1, 67, 0
3, 625248, Note_on_c, 1, 79, 0
3, 625440, Note_on_c, 1, 82, 105
3, 625440, Note_on_c, 1, 70, 105
3, 625728, Note_on_c, 1, 70, 0
3, 625728, Note_on_c, 1, 82, 0
3, 625920, Note_on_c, 1, 75, 112
3, 627360, Note_on_c, 1, 75, 0
3, 627360, Note_on_c, 1, 74, 105
3, 627744, Note_on_c, 1, 74, 0
3, 627840, Note_on_c, 1, 75, 112
3, 629280, Note_on_c, 1, 75, 0
3, 629280, Note_on_c, 1, 74, 105
3, 629664, Note_on_c, 1, 74, 0
3, 629760, Note_on_c, 1, 72, 105
3, 630048, Note_on_c, 1, 72, 0
3, 630240, Note_on_c, 1, 70, 105
3, 630528, Note_on_c, 1, 70, 0
3, 630720, Note_on_c, 1, 69, 105
3, 631008, Note_on_c, 1, 69, 0
3, 631200, Note_on_c, 1, 67, 105
3, 631488, Note_on_c, 1, 67, 0
3, 631680, Note_on_c, 1, 66, 105
3, 632064, Note_on_c, 1, 66, 0
3, 638880, Note_on_c, 1, 76, 105
3, 638880, Note_on_c, 1, 81, 105
3, 639168, Note_on_c, 1, 81, 0
3, 639168, Note_on_c, 1, 76, 0
3, 639360, Note_on_c, 1, 81, 105
3, 639360, Note_on_c, 1, 74, 105
3, 639648, Note_on_c, 1, 74, 0
3, 639648, Note_on_c, 1, 81, 0
3, 639840, Note_on_c, 1, 81, 105
3, 639840, Note_on_c, 1, 76, 105
3, 640128, Note_on_c, 1, 76, 0
3, 640128, Note_on_c, 1, 81, 0
3, 640320, Note_on_c, 1, 74, 105
3, 640320, Note_on_c, 1, 81, 105
3, 640608, Note_on_c, 1, 81, 0
3, 640608, Note_on_c, 1, 74, 0
3, 640800, Note_on_c, 1, 76, 105
3, 640800, Note_on_c, 1, 81, 105
3, 641088, Note_on_c, 1, 81, 0
3, 641088, Note_on_c, 1, 76, 0
3, 641280, Note_on_c, 1, 74, 105
3, 641280, Note_on_c, 1, 81, 105
3, 642048, Note_on_c, 1, 81, 0
3, 642048, Note_on_c, 1, 74, 0
3, 646560, Note_on_c, 1, 78, 105
3, 646560, Note_on_c, 1, 84, 105
3, 646848, Note_on_c, 1, 84, 0
3, 646848, Note_on_c, 1, 78, 0
3, 647040, Note_on_c, 1, 82, 105
3, 647040, Note_on_c, 1, 79, 105
3, 647328, Note_on_c, 1, 79, 0
3, 647328, Note_on_c, 1, 82, 0
3, 647520, Note_on_c, 1, 78, 105
3, 647520, Note_on_c, 1, 84, 105
3, 647808, Note_on_c, 1, 84, 0
3, 647808, Note_on_c, 1, 78, 0
3, 648000, Note_on_c, 1, 79, 105
3, 648000, Note_on_c, 1, 82, 105
3, 648288, Note_on_c, 1, 82, 0
3, 648288, Note_on_c, 1, 79, 0
3, 648480, Note_on_c, 1, 84, 105
3, 648480, Note_on_c, 1, 78, 105
3, 648768, Note_on_c, 1, 78, 0
3, 648768, Note_on_c, 1, 84, 0
3, 648960, Note_on_c, 1, 82, 105
3, 648960, Note_on_c, 1, 79, 105
3, 649728, Note_on_c, 1, 79, 0
3, 649728, Note_on_c, 1, 82, 0
3, 650400, Note_on_c, 1, 74, 105
3, 650400, Note_on_c, 1, 62, 105
3, 650688, Note_on_c, 1, 62, 0
3, 650688, Note_on_c, 1, 74, 0
3, 650880, Note_on_c, 1, 62, 105
3, 650880, Note_on_c, 1, 74, 105
3, 651648, Note_on_c, 1, 74, 0
3, 651648, Note_on_c, 1, 62, 0
3, 654240, Note_on_c, 1, 62, 105
3, 654240, Note_on_c, 1, 74, 105
3, 654528, Note_on_c, 1, 74, 0
3, 654528, Note_on_c, 1, 62, 0
3, 654720, Note_on_c, 1, 62, 105
3, 654720, Note_on_c, 1, 74, 105
3, 655488, Note_on_c, 1, 74, 0
3, 655488, Note_on_c, 1, 62, 0
3, 661920, Note_on_c, 1, 78, 105
3, 661920, Note_on_c, 1, 84, 105
3, 662208, Note_on_c, 1, 84, 0
3, 662208, Note_on_c, 1, 78, 0
3, 662400, Note_on_c, 1, 79, 105
3, 662400, Note_on_c, 1, 82, 105
3, 662688, Note_on_c, 1, 82, 0
3, 662688, Note_on_c, 1, 79, 0
3, 662880, Note_on_c, 1, 78, 105
3, 662880, Note_on_c, 1, 84, 105
3, 663168, Note_on_c, 1, 84, 0
3, 663168, Note_on_c, 1, 78, 0
3, 663360, Note_on_c, 1, 79, 105
3, 663360, Note_on_c, 1, 82, 105
3, 663648, Note_on_c, 1, 82, 0
3, 663648, Note_on_c, 1, 79, 0
3, 663840, Note_on_c, 1, 84, 105
3, 663840, Note_on_c, 1, 78, 105
3, 664128, Note_on_c, 1, 78, 0
3, 664128, Note_on_c, 1, 84, 0
3, 664320, Note_on_c, 1, 79, 105
3, 664320, Note_on_c, 1, 82, 105
3, 665088, Note_on_c, 1, 82, 0
3, 665088, Note_on_c, 1, 79, 0
3, 666240, Note_on_c, 1, 75, 105
3, 666240, Note_on_c, 1, 79, 105
3, 666528, Note_on_c, 1, 79, 0
3, 666528, Note_on_c, 1, 75, 0
3, 666720, Note_on_c, 1, 80, 105
3, 666720, Note_on_c, 1, 74, 105
3, 667008, Note_on_c, 1, 74, 0
3, 667008, Note_on_c, 1, 80, 0
3, 667200, Note_on_c, 1, 79, 105
3, 667200, Note_on_c, 1, 75, 105
3, 667488, Note_on_c, 1, 75, 0
3, 667488, Note_on_c, 1, 79, 0
3, 667680, Note_on_c, 1, 80, 105
3, 667680, Note_on_c, 1, 74, 105
3, 667968, Note_on_c, 1, 74, 0
3, 667968, Note_on_c, 1, 80, 0
3, 668160, Note_on_c, 1, 75, 105
3, 668160, Note_on_c, 1, 79, 105
3, 668928, Note_on_c, 1, 79, 0
3, 668928, Note_on_c, 1, 75, 0
3, 670080, Note_on_c, 1, 83, 105
3, 670080, Note_on_c, 1, 80, 105
3, 670368, Note_on_c, 1, 80, 0
3, 670368, Note_on_c, 1, 83, 0
3, 670560, Note_on_c, 1, 79, 105
3, 670560, Note_on_c, 1, 84, 105
3, 670848, Note_on_c, 1, 84, 0
3, 670848, Note_on_c, 1, 79, 0
3, 671040, Note_on_c, 1, 83, 105
3, 671040, Note_on_c, 1, 80, 105
3, 671328, Note_on_c, 1, 80, 0
3, 671328, Note_on_c, 1, 83, 0
3, 671520, Note_on_c, 1, 84, 105
3, 671520, Note_on_c, 1, 79, 105
3, 671808, Note_on_c, 1, 79, 0
3, 671808, Note_on_c, 1, 84, 0
3, 672000, Note_on_c, 1, 83, 105
3, 672000, Note_on_c, 1, 80, 105
3, 672768, Note_on_c, 1, 80, 0
3, 672768, Note_on_c, 1, 83, 0
3, 673920, Note_on_c, 1, 83, 105
3, 673920, Note_on_c, 1, 79, 105
3, 674208, Note_on_c, 1, 79, 0
3, 674208, Note_on_c, 1, 83, 0
3, 674400, Note_on_c, 1, 84, 105
3, 674400, Note_on_c, 1, 81, 105
3, 674688, Note_on_c, 1, 81, 0
3, 674688, Note_on_c, 1, 84, 0
3, 674880, Note_on_c, 1, 83, 105
3, 674880, Note_on_c, 1, 79, 105
3, 675168, Note_on_c, 1, 79, 0
3, 675168, Note_on_c, 1, 83, 0
3, 675360, Note_on_c, 1, 84, 105
3, 675360, Note_on_c, 1, 81, 105
3, 675648, Note_on_c, 1, 81, 0
3, 675648, Note_on_c, 1, 84, 0
3, 675840, Note_on_c, 1, 79, 105
3, 675840, Note_on_c, 1, 83, 105
3, 676608, Note_on_c, 1, 83, 0
3, 676608, Note_on_c, 1, 79, 0
3, 677760, Note_on_c, 1, 72, 105
3, 677760, Note_on_c, 1, 75, 105
3, 678048, Note_on_c, 1, 75, 0
3, 678048, Note_on_c, 1, 72, 0
3, 678240, Note_on_c, 1, 74, 105
3, 678240, Note_on_c, 1, 77, 105
3, 678528, Note_on_c, 1, 77, 0
3, 678528, Note_on_c, 1, 74, 0
3, 678720, Note_on_c, 1, 72, 105
3, 678720, Note_on_c, 1, 75, 105
3, 679008, Note_on_c, 1, 75, 0
3, 679008, Note_on_c, 1, 72, 0
3, 679200, Note_on_c, 1, 74, 105
3, 679200, Note_on_c, 1, 77, 105
3, 679488, Note_on_c, 1, 77, 0
3, 679488, Note_on_c, 1, 74, 0
3, 679680, Note_on_c, 1, 72, 105
3, 679680, Note_on_c, 1, 75, 105
3, 680448, Note_on_c, 1, 75, 0
3, 680448, Note_on_c, 1, 72, 0
3, 681600, Note_on_c, 1, 63, 105
3, 681600, Note_on_c, 1, 75, 105
3, 681888, Note_on_c, 1, 75, 0
3, 681888, Note_on_c, 1, 63, 0
3, 682080, Note_on_c, 1, 63, 105
3, 682080, Note_on_c, 1, 75, 105
3, 682368, Note_on_c, 1, 75, 0
3, 682368, Note_on_c, 1, 63, 0
3, 682560, Note_on_c, 1, 75, 105
3, 682560, Note_on_c, 1, 63, 105
3, 682848, Note_on_c, 1, 63, 0
3, 682848, Note_on_c, 1, 75, 0
3, 683040, Note_on_c, 1, 75, 105
3, 683040, Note_on_c, 1, 63, 105
3, 683328, Note_on_c, 1, 63, 0
3, 683328, Note_on_c, 1, 75, 0
3, 683520, Note_on_c, 1, 63, 105
3, 683520, Note_on_c, 1, 75, 105
3, 684288, Note_on_c, 1, 75, 0
3, 684288, Note_on_c, 1, 63, 0
3, 685440, Note_on_c, 1, 84, 105
3, 685440, Note_on_c, 1, 74, 105
3, 685728, Note_on_c, 1, 74, 0
3, 685728, Note_on_c, 1, 84, 0
3, 685920, Note_on_c, 1, 84, 105
3, 685920, Note_on_c, 1, 75, 105
3, 686208, Note_on_c, 1, 75, 0
3, 686208, Note_on_c, 1, 84, 0
3, 686400, Note_on_c, 1, 84, 105
3, 686400, Note_on_c, 1, 74, 105
3, 686688, Note_on_c, 1, 74, 0
3, 686688, Note_on_c, 1, 84, 0
3, 686880, Note_on_c, 1, 75, 105
3, 686880, Note_on_c, 1, 84, 105
3, 687168, Note_on_c, 1, 84, 0
3, 687168, Note_on_c, 1, 75, 0
3, 687360, Note_on_c, 1, 84, 105
3, 687360, Note_on_c, 1, 74, 105
3, 688128, Note_on_c, 1, 74, 0
3, 688128, Note_on_c, 1, 84, 0
3, 689280, Note_on_c, 1, 74, 105
3, 689568, Note_on_c, 1, 74, 0
3, 689760, Note_on_c, 1, 74, 105
3, 690048, Note_on_c, 1, 74, 0
3, 690240, Note_on_c, 1, 74, 105
3, 690528, Note_on_c, 1, 74, 0
3, 690720, Note_on_c, 1, 74, 105
3, 691008, Note_on_c, 1, 74, 0
3, 691200, Note_on_c, 1, 74, 105
3, 691968, Note_on_c, 1, 74, 0
3, 693120, Note_on_c, 1, 70, 105
3, 693408, Note_on_c, 1, 70, 0
3, 693600, Note_on_c, 1, 70, 105
3, 693888, Note_on_c, 1, 70, 0
3, 694080, Note_on_c, 1, 70, 105
3, 694368, Note_on_c, 1, 70, 0
3, 694560, Note_on_c, 1, 70, 105
3, 694848, Note_on_c, 1, 70, 0
3, 695040, Note_on_c, 1, 74, 105
3, 695808, Note_on_c, 1, 74, 0
3, 700800, Note_on_c, 1, 78, 105
3, 700800, Note_on_c, 1, 74, 105
3, 702336, Note_on_c, 1, 74, 0
3, 702336, Note_on_c, 1, 78, 0
3, 702720, Note_on_c, 1, 79, 105
3, 702720, Note_on_c, 1, 76, 105
3, 704256, Note_on_c, 1, 76, 0
3, 704256, Note_on_c, 1, 79, 0
3, 704640, Note_on_c, 1, 81, 105
3, 704640, Note_on_c, 1, 78, 105
3, 706176, Note_on_c, 1, 78, 0
3, 706176, Note_on_c, 1, 81, 0
3, 706560, Note_on_c, 1, 85, 105
3, 706560, Note_on_c, 1, 76, 105
3, 708096, Note_on_c, 1, 76, 0
3, 708096, Note_on_c, 1, 85, 0
3, 708480, Note_on_c, 1, 74, 105
3, 708480, Note_on_c, 1, 86, 105
3, 708864, Note_on_c, 1, 86, 0
3, 708864, Note_on_c, 1, 74, 0
3, 709440, Note_on_c, 1, 78, 105
3, 709440, Note_on_c, 1, 81, 105
3, 709824, Note_on_c, 1, 81, 0
3, 709824, Note_on_c, 1, 78, 0
3, 710400, Note_on_c, 1, 69, 105
3, 710400, Note_on_c, 1, 66, 105
3, 711168, Note_on_c, 1, 66, 0
3, 711168, Note_on_c, 1, 69, 0
3, 739680, Note_on_c, 1, 66, 80
3, 740160, Note_on_c, 1, 66, 0
3, 740160, Note_on_c, 1, 67, 80
3, 740640, Note_on_c, 1, 67, 0
3, 740640, Note_on_c, 1, 66, 80
3, 740640, Note_on_c, 1, 69, 80
3, 741120, Note_on_c, 1, 69, 0
3, 741120, Note_on_c, 1, 66, 0
3, 741120, Note_on_c, 1, 67, 80
3, 741120, Note_on_c, 1, 70, 80
3, 741600, Note_on_c, 1, 70, 0
3, 741600, Note_on_c, 1, 71, 80
3, 742080, Note_on_c, 1, 71, 0
3, 742080, Note_on_c, 1, 72, 80
3, 742560, Note_on_c, 1, 72, 0
3, 742560, Note_on_c, 1, 73, 80
3, 743040, Note_on_c, 1, 73, 0
3, 743040, Note_on_c, 1, 67, 0
3, 743040, Note_on_c, 1, 67, 80
3, 743040, Note_on_c, 1, 74, 80
3, 745728, Note_on_c, 1, 74, 0
3, 745920, Note_on_c, 1, 74, 80
3, 747360, Note_on_c, 1, 74, 0
3, 747360, Note_on_c, 1, 79, 80
3, 747600, Note_on_c, 1, 79, 0
3, 747600, Note_on_c, 1, 76, 80
3, 747840, Note_on_c, 1, 76, 0
3, 747840, Note_on_c, 1, 72, 80
3, 748800, Note_on_c, 1, 67, 0
3, 748800, Note_on_c, 1, 66, 80
3, 749760, Note_on_c, 1, 66, 0
3, 749760, Note_on_c, 1, 72, 0
3, 749760, Note_on_c, 1, 70, 80
3, 749760, Note_on_c, 1, 67, 80
3, 750720, Note_on_c, 1, 67, 0
3, 750720, Note_on_c, 1, 70, 0
3, 750720, Note_on_c, 1, 68, 58
3, 751104, Note_on_c, 1, 68, 0
3, 754560, Note_on_c, 1, 67, 70
3, 754560, Note_on_c, 1, 70, 70
3, 756480, Note_on_c, 1, 70, 0
3, 756480, Note_on_c, 1, 67, 0
3, 756480, Note_on_c, 1, 66, 58
3, 756480, Note_on_c, 1, 69, 58
3, 756864, Note_on_c, 1, 69, 0
3, 756864, Note_on_c, 1, 66, 0
3, 756960, Note_on_c, 1, 73, 70
3, 757440, Note_on_c, 1, 73, 0
3, 757440, Note_on_c, 1, 74, 70
3, 757920, Note_on_c, 1, 74, 0
3, 757920, Note_on_c, 1, 73, 70
3, 758304, Note_on_c, 1, 73, 0
3, 758400, Note_on_c, 1, 74, 70
3, 760224, Note_on_c, 1, 74, 0
3, 760320, Note_on_c, 1, 73, 70
3, 760440, Note_on_c, 1, 73, 0
3, 760440, Note_on_c, 1, 74, 70
3, 761112, Note_on_c, 1, 74, 0
3, 761280, Note_on_c, 1, 73, 70
3, 761400, Note_on_c, 1, 73, 0
3, 761400, Note_on_c, 1, 74, 70
3, 762072, Note_on_c, 1, 74, 0
3, 762240, Note_on_c, 1, 74, 70
3, 762720, Note_on_c, 1, 74, 0
3, 762720, Note_on_c, 1, 73, 70
3, 763200, Note_on_c, 1, 73, 0
3, 763200, Note_on_c, 1, 74, 70
3, 763680, Note_on_c, 1, 74, 0
3, 763680, Note_on_c, 1, 73, 70
3, 764160, Note_on_c, 1, 73, 0
3, 764160, Note_on_c, 1, 72, 70
3, 764640, Note_on_c, 1, 72, 0
3, 764640, Note_on_c, 1, 71, 70
3, 765120, Note_on_c, 1, 71, 0
3, 765120, Note_on_c, 1, 72, 70
3, 765600, Note_on_c, 1, 72, 0
3, 765600, Note_on_c, 1, 70, 70
3, 765984, Note_on_c, 1, 70, 0
3, 766080, Note_on_c, 1, 69, 70
3, 767520, Note_on_c, 1, 69, 0
3, 767520, Note_on_c, 1, 72, 70
3, 767760, Note_on_c, 1, 72, 0
3, 767760, Note_on_c, 1, 75, 70
3, 767952, Note_on_c, 1, 75, 0
3, 768000, Note_on_c, 1, 70, 70
3, 768000, Note_on_c, 1, 67, 70
3, 768720, Note_on_c, 1, 67, 0
3, 768720, Note_on_c, 1, 70, 0
3, 768960, Note_on_c, 1, 66, 70
3, 768960, Note_on_c, 1, 69, 70
3, 769680, Note_on_c, 1, 69, 0
3, 769680, Note_on_c, 1, 66, 0
3, 769920, Note_on_c, 1, 67, 80
3, 770688, Note_on_c, 1, 67, 0
3, 771840, Note_on_c, 1, 79, 105
3, 772128, Note_on_c, 1, 79, 0
3, 772320, Note_on_c, 1, 78, 105
3, 772608, Note_on_c, 1, 78, 0
3, 772800, Note_on_c, 1, 79, 105
3, 773088, Note_on_c, 1, 79, 0
3, 773280, Note_on_c, 1, 78, 105
3, 773568, Note_on_c, 1, 78, 0
3, 773760, Note_on_c, 1, 79, 105
3, 774528, Note_on_c, 1, 79, 0
3, 775680, Note_on_c, 1, 79, 105
3, 775968, Note_on_c, 1, 79, 0
3, 776160, Note_on_c, 1, 78, 105
3, 776448, Note_on_c, 1, 78, 0
3, 776640, Note_on_c, 1, 79, 105
3, 776928, Note_on_c, 1, 79, 0
3, 777120, Note_on_c, 1, 78, 105
3, 777408, Note_on_c, 1, 78, 0
3, 777600, Note_on_c, 1, 79, 105
3, 778368, Note_on_c, 1, 79, 0
3, 779520, Note_on_c, 1, 79, 105
3, 779520, Note_on_c, 1, 82, 105
3, 779808, Note_on_c, 1, 82, 0
3, 779808, Note_on_c, 1, 79, 0
3, 780000, Note_on_c, 1, 81, 105
3, 780000, Note_on_c, 1, 78, 105
3, 780288, Note_on_c, 1, 78, 0
3, 780288, Note_on_c, 1, 81, 0
3, 780480, Note_on_c, 1, 82, 105
3, 780480, Note_on_c, 1, 79, 105
3, 780768, Note_on_c, 1, 79, 0
3, 780768, Note_on_c, 1, 82, 0
3, 780960, Note_on_c, 1, 78, 105
3, 780960, Note_on_c, 1, 81, 105
3, 781248, Note_on_c, 1, 81, 0
3, 781248, Note_on_c, 1, 78, 0
3, 781440, Note_on_c, 1, 86, 105
3, 781440, Note_on_c, 1, 79, 105
3, 782208, Note_on_c, 1, 86, 0
3, 782400, Note_on_c, 1, 84, 105
3, 783168, Note_on_c, 1, 84, 0
3, 783168, Note_on_c, 1, 79, 0
3, 783360, Note_on_c, 1, 79, 105
3, 783360, Note_on_c, 1, 82, 105
3, 784128, Note_on_c, 1, 82, 0
3, 784128, Note_on_c, 1, 79, 0
3, 784320, Note_on_c, 1, 78, 105
3, 784320, Note_on_c, 1, 72, 105
3, 785088, Note_on_c, 1, 72, 0
3, 785088, Note_on_c, 1, 78, 0
3, 785280, Note_on_c, 1, 79, 92
3, 785280, Note_on_c, 1, 70, 92
3, 785664, Note_on_c, 1, 70, 0
3, 785664, Note_on_c, 1, 79, 0
3, 794880, Note_on_c, 1, 79, 92
3, 794880, Note_on_c, 1, 70, 105
3, 795216, Note_on_c, 1, 70, 0
3, 795216, Note_on_c, 1, 79, 0
3, 795360, Note_on_c, 1, 69, 105
3, 795360, Note_on_c, 1, 78, 105
3, 795696, Note_on_c, 1, 78, 0
3, 795696, Note_on_c, 1, 69, 0
3, 795840, Note_on_c, 1, 79, 105
3, 795840, Note_on_c, 1, 70, 105
3, 796176, Note_on_c, 1, 70, 0
3, 796176, Note_on_c, 1, 79, 0
3, 796320, Note_on_c, 1, 69, 105
3, 796320, Note_on_c, 1, 78, 105
3, 796656, Note_on_c, 1, 78, 0
3, 796656, Note_on_c, 1, 69, 0
3, 796800, Note_on_c, 1, 70, 105
3, 796800, Note_on_c, 1, 79, 105
3, 797136, Note_on_c, 1, 79, 0
3, 797136, Note_on_c, 1, 70, 0
3, 797280, Note_on_c, 1, 78, 105
3, 797280, Note_on_c, 1, 69, 105
3, 797616, Note_on_c, 1, 69, 0
3, 797616, Note_on_c, 1, 78, 0
3, 797760, Note_on_c, 1, 70, 105
3, 797760, Note_on_c, 1, 79, 105
3, 798096, Note_on_c, 1, 79, 0
3, 798096, Note_on_c, 1, 70, 0
3, 798240, Note_on_c, 1, 78, 105
3, 798240, Note_on_c, 1, 69, 105
3, 798576, Note_on_c, 1, 69, 0
3, 798576, Note_on_c, 1, 78, 0
3, 798720, Note_on_c, 1, 70, 105
3, 798720, Note_on_c, 1, 79, 105
3, 799056, Note_on_c, 1, 79, 0
3, 799056, Note_on_c, 1, 70, 0
3, 799200, Note_on_c, 1, 78, 105
3, 799200, Note_on_c, 1, 69, 105
3, 799536, Note_on_c, 1, 69, 0
3, 799536, Note_on_c, 1, 78, 0
3, 799680, Note_on_c, 1, 70, 105
3, 799680, Note_on_c, 1, 79, 105
3, 800016, Note_on_c, 1, 79, 0
3, 800016, Note_on_c, 1, 70, 0
3, 800160, Note_on_c, 1, 78, 105
3, 800160, Note_on_c, 1, 69, 105
3, 800496, Note_on_c, 1, 69, 0
3, 800496, Note_on_c, 1, 78, 0
3, 800640, Note_on_c, 1, 77, 105
3, 800640, Note_on_c, 1, 74, 105
3, 802464, Note_on_c, 1, 74, 0
3, 802464, Note_on_c, 1, 77, 0
3, 802560, Note_on_c, 1, 75, 116
3, 802560, Note_on_c, 1, 72, 116
3, 802728, Note_on_c, 1, 72, 0
3, 802800, Note_on_c, 1, 74, 116
3, 802968, Note_on_c, 1, 74, 0
3, 803040, Note_on_c, 1, 75, 116
3, 803208, Note_on_c, 1, 75, 0
3, 803280, Note_on_c, 1, 77, 116
3, 803448, Note_on_c, 1, 77, 0
3, 803520, Note_on_c, 1, 79, 116
3, 803688, Note_on_c, 1, 79, 0
3, 803760, Note_on_c, 1, 81, 116
3, 803928, Note_on_c, 1, 81, 0
3, 804000, Note_on_c, 1, 83, 116
3, 804168, Note_on_c, 1, 83, 0
3, 804240, Note_on_c, 1, 84, 116
3, 804408, Note_on_c, 1, 84, 0
3, 804408, Note_on_c, 1, 75, 0
3, 804480, Note_on_c, 1, 66, 116
3, 804480, Note_on_c, 1, 78, 116
3, 805248, Note_on_c, 1, 78, 0
3, 805248, Note_on_c, 1, 66, 0
3, 805440, Note_on_c, 1, 79, 116
3, 805440, Note_on_c, 1, 67, 116
3, 806208, Note_on_c, 1, 67, 0
3, 806208, Note_on_c, 1, 79, 0
3, 806400, Note_on_c, 1, 72, 116
3, 806400, Note_on_c, 1, 81, 116
3, 807168, Note_on_c, 1, 81, 0
3, 807168, Note_on_c, 1, 72, 0
3, 807360, Note_on_c, 1, 69, 116
3, 807360, Note_on_c, 1, 78, 116
3, 808128, Note_on_c, 1, 78, 0
3, 808128, Note_on_c, 1, 69, 0
3, 808320, Note_on_c, 1, 74, 116
3, 808320, Note_on_c, 1, 77, 116
3, 810144, Note_on_c, 1, 77, 0
3, 810144, Note_on_c, 1, 74, 0
3, 810240, Note_on_c, 1, 72, 116
3, 810240, Note_on_c, 1, 75, 116
3, 810408, Note_on_c, 1, 72, 0
3, 810480, Note_on_c, 1, 74, 116
3, 810648, Note_on_c, 1, 74, 0
3, 810720, Note_on_c, 1, 75, 116
3, 810888, Note_on_c, 1, 75, 0
3, 810960, Note_on_c, 1, 77, 116
3, 811128, Note_on_c, 1, 77, 0
3, 811200, Note_on_c, 1, 79, 116
3, 811368, Note_on_c, 1, 79, 0
3, 811440, Note_on_c, 1, 81, 116
3, 811608, Note_on_c, 1, 81, 0
3, 811680, Note_on_c, 1, 83, 116
3, 811848, Note_on_c, 1, 83, 0
3, 811920, Note_on_c, 1, 84, 116
3, 812088, Note_on_c, 1, 84, 0
3, 812088, Note_on_c, 1, 75, 0
3, 812160, Note_on_c, 1, 66, 116
3, 812160, Note_on_c, 1, 78, 116
3, 812928, Note_on_c, 1, 78, 0
3, 812928, Note_on_c, 1, 66, 0
3, 813120, Note_on_c, 1, 79, 116
3, 813120, Note_on_c, 1, 67, 116
3, 813888, Note_on_c, 1, 67, 0
3, 813888, Note_on_c, 1, 79, 0
3, 814080, Note_on_c, 1, 84, 116
3, 814080, Note_on_c, 1, 72, 116
3, 814848, Note_on_c, 1, 72, 0
3, 814848, Note_on_c, 1, 84, 0
3, 815040, Note_on_c, 1, 81, 116
3, 815040, Note_on_c, 1, 78, 116
3, 815808, Note_on_c, 1, 78, 0
3, 815808, Note_on_c, 1, 81, 0
3, 816000, Note_on_c, 1, 79, 116
3, 816480, Note_on_c, 1, 67, 116
3, 816816, Note_on_c, 1, 67, 0
3, 816816, Note_on_c, 1, 79, 0
3, 816960, Note_on_c, 1, 74, 116
3, 817296, Note_on_c, 1, 74, 0
3, 817440, Note_on_c, 1, 74, 116
3, 817440, Note_on_c, 1, 70, 116
3, 817776, Note_on_c, 1, 70, 0
3, 817776, Note_on_c, 1, 74, 0
3, 817920, Note_on_c, 1, 74, 116
3, 817920, Note_on_c, 1, 69, 116
3, 818256, Note_on_c, 1, 69, 0
3, 818400, Note_on_c, 1, 66, 116
3, 818736, Note_on_c, 1, 66, 0
3, 818736, Note_on_c, 1, 74, 0
3, 818880, Note_on_c, 1, 78, 116
3, 819216, Note_on_c, 1, 78, 0
3, 819360, Note_on_c, 1, 78, 116
3, 819360, Note_on_c, 1, 74, 116
3, 819696, Note_on_c, 1, 74, 0
3, 819696, Note_on_c, 1, 78, 0
3, 819840, Note_on_c, 1, 70, 116
3, 819840, Note_on_c, 1, 79, 116
3, 820176, Note_on_c, 1, 70, 0
3, 820320, Note_on_c, 1, 67, 116
3, 820656, Note_on_c, 1, 67, 0
3, 820800, Note_on_c, 1, 74, 116
3, 821136, Note_on_c, 1, 74, 0
3, 821136, Note_on_c, 1, 79, 0
3, 821280, Note_on_c, 1, 74, 116
3, 821280, Note_on_c, 1, 70, 116
3, 821616, Note_on_c, 1, 70, 0
3, 821616, Note_on_c, 1, 74, 0
3, 821760, Note_on_c, 1, 69, 116
3, 821760, Note_on_c, 1, 74, 116
3, 822096, Note_on_c, 1, 69, 0
3, 822240, Note_on_c, 1, 66, 116
3, 822576, Note_on_c, 1, 66, 0
3, 822720, Note_on_c, 1, 78, 116
3, 823056, Note_on_c, 1, 78, 0
3, 823056, Note_on_c, 1, 74, 0
3, 823200, Note_on_c, 1, 78, 116
3, 823536, Note_on_c, 1, 78, 0
3, 823680, Note_on_c, 1, 79, 116
3, 823680, Note_on_c, 1, 70, 116
3, 824016, Note_on_c, 1, 70, 0
3, 824160, Note_on_c, 1, 67, 116
3, 824496, Note_on_c, 1, 67, 0
3, 824640, Note_on_c, 1, 74, 116
3, 824976, Note_on_c, 1, 74, 0
3, 824976, Note_on_c, 1, 79, 0
3, 825120, Note_on_c, 1, 70, 116
3, 825120, Note_on_c, 1, 74, 116
3, 825456, Note_on_c, 1, 74, 0
3, 825456, Note_on_c, 1, 70, 0
3, 825600, Note_on_c, 1, 69, 116
3, 825600, Note_on_c, 1, 74, 116
3, 825936, Note_on_c, 1, 69, 0
3, 826080, Note_on_c, 1, 66, 116
3, 826416, Note_on_c, 1, 66, 0
3, 826560, Note_on_c, 1, 78, 116
3, 826896, Note_on_c, 1, 78, 0
3, 826896, Note_on_c, 1, 74, 0
3, 827040, Note_on_c, 1, 78, 116
3, 827376, Note_on_c, 1, 78, 0
3, 827520, Note_on_c, 1, 70, 116
3, 827520, Note_on_c, 1, 79, 116
3, 827904, Note_on_c, 1, 79, 0
3, 827904, Note_on_c, 1, 70, 0
3, 828480, Note_on_c, 1, 74, 116
3, 828480, Note_on_c, 1, 82, 116
3, 828864, Note_on_c, 1, 82, 0
3, 828864, Note_on_c, 1, 74, 0
3, 829440, Note_on_c, 1, 70, 116
3, 829440, Note_on_c, 1, 79, 116
3, 830400, Note_on_c, 1, 79, 0
3, 830400, Note_on_c, 1, 70, 0
3, 830400, End_track
4, 0, Start_track
4, 0, Sequencer_specific, 04, 43, 00, 01, 00
4, 0, Program_c, 2, 70
4, 0, Control_c, 2, 7, 90
4, 0, Control_c, 2, 10, 72
4, 0, Control_c, 2, 91, 80
4, 1920, Note_on_c, 2, 55, 70
4, 2688, Note_on_c, 2, 55, 0
4, 3840, Note_on_c, 2, 55, 70
4, 4608, Note_on_c, 2, 55, 0
4, 5280, Note_on_c, 2, 55, 105
4, 5568, Note_on_c, 2, 55, 0
4, 5760, Note_on_c, 2, 54, 105
4, 6048, Note_on_c, 2, 54, 0
4, 6240, Note_on_c, 2, 55, 105
4, 6528, Note_on_c, 2, 55, 0
4, 6720, Note_on_c, 2, 54, 105
4, 7008, Note_on_c, 2, 54, 0
4, 7200, Note_on_c, 2, 55, 105
4, 7488, Note_on_c, 2, 55, 0
4, 7680, Note_on_c, 2, 54, 105
4, 8448, Note_on_c, 2, 54, 0
4, 9600, Note_on_c, 2, 48, 70
4, 10368, Note_on_c, 2, 48, 0
4, 11520, Note_on_c, 2, 50, 70
4, 12288, Note_on_c, 2, 50, 0
4, 12960, Note_on_c, 2, 50, 105
4, 13248, Note_on_c, 2, 50, 0
4, 13440, Note_on_c, 2, 55, 105
4, 13728, Note_on_c, 2, 55, 0
4, 13920, Note_on_c, 2, 50, 105
4, 14208, Note_on_c, 2, 50, 0
4, 14400, Note_on_c, 2, 55, 105
4, 14688, Note_on_c, 2, 55, 0
4, 14880, Note_on_c, 2, 50, 105
4, 15168, Note_on_c, 2, 50, 0
4, 15360, Note_on_c, 2, 55, 105
4, 16128, Note_on_c, 2, 55, 0
4, 17280, Note_on_c, 2, 55, 70
4, 18048, Note_on_c, 2, 55, 0
4, 19200, Note_on_c, 2, 55, 70
4, 19968, Note_on_c, 2, 55, 0
4, 20640, Note_on_c, 2, 55, 70
4, 20928, Note_on_c, 2, 55, 0
4, 21120, Note_on_c, 2, 54, 105
4, 21408, Note_on_c, 2, 54, 0
4, 21600, Note_on_c, 2, 55, 105
4, 21888, Note_on_c, 2, 55, 0
4, 22080, Note_on_c, 2, 54, 105
4, 22368, Note_on_c, 2, 54, 0
4, 22560, Note_on_c, 2, 55, 105
4, 22848, Note_on_c, 2, 55, 0
4, 23040, Note_on_c, 2, 54, 105
4, 23808, Note_on_c, 2, 54, 0
4, 24960, Note_on_c, 2, 48, 70
4, 25728, Note_on_c, 2, 48, 0
4, 26880, Note_on_c, 2, 50, 70
4, 27648, Note_on_c, 2, 50, 0
4, 28320, Note_on_c, 2, 50, 105
4, 28608, Note_on_c, 2, 50, 0
4, 28800, Note_on_c, 2, 55, 105
4, 29088, Note_on_c, 2, 55, 0
4, 29280, Note_on_c, 2, 50, 105
4, 29568, Note_on_c, 2, 50, 0
4, 29760, Note_on_c, 2, 55, 105
4, 30048, Note_on_c, 2, 55, 0
4, 30240, Note_on_c, 2, 50, 105
4, 30528, Note_on_c, 2, 50, 0
4, 30720, Note_on_c, 2, 55, 105
4, 31488, Note_on_c, 2, 55, 0
4, 32160, Note_on_c, 2, 62, 105
4, 32160, Note_on_c, 2, 50, 105
4, 32448, Note_on_c, 2, 50, 0
4, 32448, Note_on_c, 2, 62, 0
4, 32640, Note_on_c, 2, 50, 105
4, 32640, Note_on_c, 2, 62, 105
4, 33408, Note_on_c, 2, 62, 0
4, 33408, Note_on_c, 2, 50, 0
4, 36000, Note_on_c, 2, 62, 105
4, 36000, Note_on_c, 2, 50, 105
4, 36288, Note_on_c, 2, 50, 0
4, 36288, Note_on_c, 2, 62, 0
4, 36480, Note_on_c, 2, 50, 105
4, 36480, Note_on_c, 2, 62, 105
4, 37248, Note_on_c, 2, 62, 0
4, 37248, Note_on_c, 2, 50, 0
4, 40320, Note_on_c, 2, 48, 70
4, 41088, Note_on_c, 2, 48, 0
4, 42240, Note_on_c, 2, 50, 70
4, 43008, Note_on_c, 2, 50, 0
4, 43680, Note_on_c, 2, 50, 105
4, 43968, Note_on_c, 2, 50, 0
4, 44160, Note_on_c, 2, 55, 105
4, 44448, Note_on_c, 2, 55, 0
4, 44640, Note_on_c, 2, 50, 105
4, 44928, Note_on_c, 2, 50, 0
4, 45120, Note_on_c, 2, 55, 105
4, 45408, Note_on_c, 2, 55, 0
4, 45600, Note_on_c, 2, 50, 105
4, 45888, Note_on_c, 2, 50, 0
4, 46080, Note_on_c, 2, 55, 105
4, 46848, Note_on_c, 2, 55, 0
4, 47520, Note_on_c, 2, 50, 105
4, 47808, Note_on_c, 2, 50, 0
4, 48000, Note_on_c, 2, 62, 105
4, 48000, Note_on_c, 2, 50, 105
4, 48768, Note_on_c, 2, 50, 0
4, 48768, Note_on_c, 2, 62, 0
4, 51360, Note_on_c, 2, 62, 105
4, 51360, Note_on_c, 2, 50, 105
4, 51648, Note_on_c, 2, 50, 0
4, 51648, Note_on_c, 2, 62, 0
4, 51840, Note_on_c, 2, 62, 105
4, 51840, Note_on_c, 2, 50, 105
4, 52608, Note_on_c, 2, 50, 0
4, 52608, Note_on_c, 2, 62, 0
4, 55680, Note_on_c, 2, 48, 70
4, 56448, Note_on_c, 2, 48, 0
4, 57600, Note_on_c, 2, 50, 70
4, 58368, Note_on_c, 2, 50, 0
4, 59040, Note_on_c, 2, 50, 105
4, 59328, Note_on_c, 2, 50, 0
4, 59520, Note_on_c, 2, 55, 105
4, 59808, Note_on_c, 2, 55, 0
4, 60000, Note_on_c, 2, 50, 105
4, 60288, Note_on_c, 2, 50, 0
4, 60480, Note_on_c, 2, 55, 105
4, 60768, Note_on_c, 2, 55, 0
4, 60960, Note_on_c, 2, 50, 105
4, 61248, Note_on_c, 2, 50, 0
4, 61440, Note_on_c, 2, 55, 105
4, 62208, Note_on_c, 2, 55, 0
4, 63360, Note_on_c, 2, 51, 105
4, 63648, Note_on_c, 2, 51, 0
4, 63840, Note_on_c, 2, 53, 105
4, 64128, Note_on_c, 2, 53, 0
4, 64320, Note_on_c, 2, 51, 105
4, 64608, Note_on_c, 2, 51, 0
4, 64800, Note_on_c, 2, 53, 105
4, 65088, Note_on_c, 2, 53, 0
4, 65280, Note_on_c, 2, 51, 105
4, 66048, Note_on_c, 2, 51, 0
4, 67200, Note_on_c, 2, 50, 105
4, 67488, Note_on_c, 2, 50, 0
4, 67680, Note_on_c, 2, 49, 105
4, 67968, Note_on_c, 2, 49, 0
4, 68160, Note_on_c, 2, 50, 105
4, 68448, Note_on_c, 2, 50, 0
4, 68640, Note_on_c, 2, 49, 105
4, 68928, Note_on_c, 2, 49, 0
4, 69120, Note_on_c, 2, 50, 105
4, 69888, Note_on_c, 2, 50, 0
4, 70560, Note_on_c, 2, 42, 105
4, 70944, Note_on_c, 2, 42, 0
4, 71040, Note_on_c, 2, 43, 105
4, 71808, Note_on_c, 2, 43, 0
4, 72480, Note_on_c, 2, 46, 105
4, 72864, Note_on_c, 2, 46, 0
4, 72960, Note_on_c, 2, 45, 105
4, 73344, Note_on_c, 2, 45, 0
4, 73440, Note_on_c, 2, 48, 105
4, 73824, Note_on_c, 2, 48, 0
4, 73920, Note_on_c, 2, 50, 105
4, 74304, Note_on_c, 2, 50, 0
4, 74400, Note_on_c, 2, 54, 105
4, 74784, Note_on_c, 2, 54, 0
4, 74880, Note_on_c, 2, 55, 105
4, 75648, Note_on_c, 2, 55, 0
4, 76320, Note_on_c, 2, 58, 105
4, 76704, Note_on_c, 2, 58, 0
4, 76800, Note_on_c, 2, 57, 105
4, 77184, Note_on_c, 2, 57, 0
4, 77280, Note_on_c, 2, 60, 105
4, 77664, Note_on_c, 2, 60, 0
4, 77760, Note_on_c, 2, 62, 105
4, 78144, Note_on_c, 2, 62, 0
4, 78240, Note_on_c, 2, 54, 105
4, 78624, Note_on_c, 2, 54, 0
4, 78720, Note_on_c, 2, 55, 105
4, 79488, Note_on_c, 2, 55, 0
4, 80160, Note_on_c, 2, 53, 105
4, 80544, Note_on_c, 2, 53, 0
4, 80640, Note_on_c, 2, 51, 105
4, 81408, Note_on_c, 2, 51, 0
4, 82080, Note_on_c, 2, 48, 105
4, 82464, Note_on_c, 2, 48, 0
4, 82560, Note_on_c, 2, 53, 105
4, 83328, Note_on_c, 2, 53, 0
4, 84000, Note_on_c, 2, 51, 105
4, 84384, Note_on_c, 2, 51, 0
4, 84480, Note_on_c, 2, 50, 105
4, 85248, Note_on_c, 2, 50, 0
4, 85920, Note_on_c, 2, 46, 105
4, 86304, Note_on_c, 2, 46, 0
4, 86400, Note_on_c, 2, 51, 105
4, 87168, Note_on_c, 2, 51, 0
4, 87840, Note_on_c, 2, 53, 105
4, 88224, Note_on_c, 2, 53, 0
4, 88320, Note_on_c, 2, 55, 105
4, 89088, Note_on_c, 2, 55, 0
4, 89760, Note_on_c, 2, 52, 105
4, 90144, Note_on_c, 2, 52, 0
4, 90240, Note_on_c, 2, 53, 105
4, 91008, Note_on_c, 2, 53, 0
4, 91680, Note_on_c, 2, 55, 105
4, 92064, Note_on_c, 2, 55, 0
4, 92160, Note_on_c, 2, 57, 105
4, 92928, Note_on_c, 2, 57, 0
4, 94080, Note_on_c, 2, 62, 105
4, 94080, Note_on_c, 2, 58, 105
4, 94368, Note_on_c, 2, 58, 0
4, 94368, Note_on_c, 2, 62, 0
4, 94560, Note_on_c, 2, 60, 105
4, 94560, Note_on_c, 2, 63, 105
4, 94848, Note_on_c, 2, 63, 0
4, 94848, Note_on_c, 2, 60, 0
4, 95040, Note_on_c, 2, 62, 105
4, 95040, Note_on_c, 2, 58, 105
4, 95328, Note_on_c, 2, 58, 0
4, 95328, Note_on_c, 2, 62, 0
4, 95520, Note_on_c, 2, 63, 105
4, 95520, Note_on_c, 2, 60, 105
4, 95808, Note_on_c, 2, 60, 0
4, 95808, Note_on_c, 2, 63, 0
4, 96000, Note_on_c, 2, 62, 105
4, 96000, Note_on_c, 2, 58, 105
4, 96768, Note_on_c, 2, 58, 0
4, 96768, Note_on_c, 2, 62, 0
4, 97920, Note_on_c, 2, 58, 105
4, 97920, Note_on_c, 2, 55, 105
4, 98208, Note_on_c, 2, 55, 0
4, 98208, Note_on_c, 2, 58, 0
4, 98400, Note_on_c, 2, 57, 105
4, 98400, Note_on_c, 2, 60, 105
4, 98688, Note_on_c, 2, 60, 0
4, 98688, Note_on_c, 2, 57, 0
4, 98880, Note_on_c, 2, 58, 105
4, 98880, Note_on_c, 2, 55, 105
4, 99168, Note_on_c, 2, 55, 0
4, 99168, Note_on_c, 2, 58, 0
4, 99360, Note_on_c, 2, 60, 105
4, 99360, Note_on_c, 2, 57, 105
4, 99648, Note_on_c, 2, 57, 0
4, 99648, Note_on_c, 2, 60, 0
4, 99840, Note_on_c, 2, 58, 105
4, 99840, Note_on_c, 2, 55, 105
4, 100608, Note_on_c, 2, 55, 0
4, 100608, Note_on_c, 2, 58, 0
4, 101760, Note_on_c, 2, 60, 105
4, 101760, Note_on_c, 2, 55, 105
4, 102048, Note_on_c, 2, 55, 0
4, 102048, Note_on_c, 2, 60, 0
4, 102240, Note_on_c, 2, 59, 105
4, 102240, Note_on_c, 2, 56, 105
4, 102528, Note_on_c, 2, 56, 0
4, 102528, Note_on_c, 2, 59, 0
4, 102720, Note_on_c, 2, 55, 105
4, 102720, Note_on_c, 2, 60, 105
4, 103008, Note_on_c, 2, 60, 0
4, 103008, Note_on_c, 2, 55, 0
4, 103200, Note_on_c, 2, 59, 105
4, 103200, Note_on_c, 2, 56, 105
4, 103488, Note_on_c, 2, 56, 0
4, 103488, Note_on_c, 2, 59, 0
4, 103680, Note_on_c, 2, 55, 105
4, 103680, Note_on_c, 2, 60, 105
4, 104448, Note_on_c, 2, 60, 0
4, 104448, Note_on_c, 2, 55, 0
4, 105600, Note_on_c, 2, 65, 105
4, 105600, Note_on_c, 2, 53, 105
4, 105888, Note_on_c, 2, 53, 0
4, 105888, Note_on_c, 2, 65, 0
4, 106080, Note_on_c, 2, 54, 105
4, 106080, Note_on_c, 2, 66, 105
4, 106368, Note_on_c, 2, 66, 0
4, 106368, Note_on_c, 2, 54, 0
4, 106560, Note_on_c, 2, 53, 105
4, 106560, Note_on_c, 2, 65, 105
4, 106848, Note_on_c, 2, 65, 0
4, 106848, Note_on_c, 2, 53, 0
4, 107040, Note_on_c, 2, 66, 105
4, 107040, Note_on_c, 2, 54, 105
4, 107328, Note_on_c, 2, 54, 0
4, 107328, Note_on_c, 2, 66, 0
4, 107520, Note_on_c, 2, 65, 105
4, 107520, Note_on_c, 2, 45, 105
4, 108672, Note_on_c, 2, 45, 0
4, 108672, Note_on_c, 2, 65, 0
4, 109200, Note_on_c, 2, 57, 105
4, 109392, Note_on_c, 2, 57, 0
4, 109440, Note_on_c, 2, 58, 125
4, 109632, Note_on_c, 2, 58, 0
4, 109680, Note_on_c, 2, 57, 105
4, 109872, Note_on_c, 2, 57, 0
4, 109920, Note_on_c, 2, 55, 105
4, 110112, Note_on_c, 2, 55, 0
4, 110160, Note_on_c, 2, 53, 105
4, 110352, Note_on_c, 2, 53, 0
4, 110400, Note_on_c, 2, 51, 105
4, 110592, Note_on_c, 2, 51, 0
4, 110640, Note_on_c, 2, 50, 105
4, 110832, Note_on_c, 2, 50, 0
4, 110880, Note_on_c, 2, 48, 105
4, 111072, Note_on_c, 2, 48, 0
4, 111120, Note_on_c, 2, 46, 105
4, 111312, Note_on_c, 2, 46, 0
4, 111360, Note_on_c, 2, 45, 105
4, 112512, Note_on_c, 2, 45, 0
4, 113040, Note_on_c, 2, 57, 105
4, 113232, Note_on_c, 2, 57, 0
4, 113280, Note_on_c, 2, 55, 125
4, 113472, Note_on_c, 2, 55, 0
4, 113520, Note_on_c, 2, 53, 105
4, 113712, Note_on_c, 2, 53, 0
4, 113760, Note_on_c, 2, 51, 105
4, 113952, Note_on_c, 2, 51, 0
4, 114000, Note_on_c, 2, 50, 105
4, 114192, Note_on_c, 2, 50, 0
4, 114240, Note_on_c, 2, 48, 105
4, 114432, Note_on_c, 2, 48, 0
4, 114480, Note_on_c, 2, 46, 105
4, 114672, Note_on_c, 2, 46, 0
4, 114720, Note_on_c, 2, 45, 105
4, 114912, Note_on_c, 2, 45, 0
4, 114960, Note_on_c, 2, 43, 105
4, 115152, Note_on_c, 2, 43, 0
4, 115200, Note_on_c, 2, 41, 105
4, 116352, Note_on_c, 2, 41, 0
4, 116880, Note_on_c, 2, 65, 105
4, 117072, Note_on_c, 2, 65, 0
4, 117120, Note_on_c, 2, 63, 125
4, 117312, Note_on_c, 2, 63, 0
4, 117360, Note_on_c, 2, 62, 105
4, 117552, Note_on_c, 2, 62, 0
4, 117600, Note_on_c, 2, 60, 105
4, 117792, Note_on_c, 2, 60, 0
4, 117840, Note_on_c, 2, 58, 105
4, 118032, Note_on_c, 2, 58, 0
4, 118080, Note_on_c, 2, 56, 105
4, 118272, Note_on_c, 2, 56, 0
4, 118320, Note_on_c, 2, 55, 105
4, 118512, Note_on_c, 2, 55, 0
4, 118560, Note_on_c, 2, 53, 105
4, 118752, Note_on_c, 2, 53, 0
4, 118800, Note_on_c, 2, 51, 105
4, 118992, Note_on_c, 2, 51, 0
4, 119040, Note_on_c, 2, 50, 105
4, 119808, Note_on_c, 2, 50, 0
4, 120960, Note_on_c, 2, 48, 105
4, 121728, Note_on_c, 2, 48, 0
4, 121920, Note_on_c, 2, 50, 105
4, 122688, Note_on_c, 2, 50, 0
4, 122880, Note_on_c, 2, 51, 105
4, 123648, Note_on_c, 2, 51, 0
4, 123840, Note_on_c, 2, 52, 105
4, 124608, Note_on_c, 2, 52, 0
4, 124800, Note_on_c, 2, 53, 105
4, 125184, Note_on_c, 2, 53, 0
4, 125280, Note_on_c, 2, 53, 105
4, 125664, Note_on_c, 2, 53, 0
4, 125760, Note_on_c, 2, 53, 105
4, 126144, Note_on_c, 2, 53, 0
4, 126240, Note_on_c, 2, 53, 105
4, 126624, Note_on_c, 2, 53, 0
4, 126720, Note_on_c, 2, 53, 105
4, 127104, Note_on_c, 2, 53, 0
4, 127200, Note_on_c, 2, 53, 105
4, 127584, Note_on_c, 2, 53, 0
4, 127680, Note_on_c, 2, 53, 105
4, 128064, Note_on_c, 2, 53, 0
4, 128160, Note_on_c, 2, 53, 105
4, 128544, Note_on_c, 2, 53, 0
4, 128640, Note_on_c, 2, 53, 105
4, 129024, Note_on_c, 2, 53, 0
4, 129120, Note_on_c, 2, 53, 105
4, 129504, Note_on_c, 2, 53, 0
4, 129600, Note_on_c, 2, 53, 105
4, 129984, Note_on_c, 2, 53, 0
4, 130080, Note_on_c, 2, 53, 105
4, 130464, Note_on_c, 2, 53, 0
4, 130560, Note_on_c, 2, 53, 105
4, 130944, Note_on_c, 2, 53, 0
4, 131040, Note_on_c, 2, 53, 105
4, 131424, Note_on_c, 2, 53, 0
4, 131520, Note_on_c, 2, 53, 105
4, 131904, Note_on_c, 2, 53, 0
4, 132000, Note_on_c, 2, 53, 105
4, 132384, Note_on_c, 2, 53, 0
4, 132480, Note_on_c, 2, 53, 105
4, 132864, Note_on_c, 2, 53, 0
4, 133440, Note_on_c, 2, 53, 105
4, 133824, Note_on_c, 2, 53, 0
4, 134400, Note_on_c, 2, 41, 105
4, 135168, Note_on_c, 2, 41, 0
4, 165600, Note_on_c, 2, 53, 80
4, 166080, Note_on_c, 2, 53, 0
4, 166080, Note_on_c, 2, 58, 80
4, 166560, Note_on_c, 2, 58, 0
4, 166560, Note_on_c, 2, 60, 80
4, 166944, Note_on_c, 2, 60, 0
4, 167040, Note_on_c, 2, 62, 80
4, 168576, Note_on_c, 2, 62, 0
4, 168960, Note_on_c, 2, 60, 80
4, 170496, Note_on_c, 2, 60, 0
4, 170880, Note_on_c, 2, 58, 92
4, 171360, Note_on_c, 2, 58, 0
4, 171360, Note_on_c, 2, 60, 92
4, 171600, Note_on_c, 2, 60, 0
4, 171600, Note_on_c, 2, 62, 92
4, 171792, Note_on_c, 2, 62, 0
4, 171840, Note_on_c, 2, 63, 80
4, 173712, Note_on_c, 2, 63, 0
4, 173760, Note_on_c, 2, 62, 80
4, 174528, Note_on_c, 2, 62, 0
4, 174720, Note_on_c, 2, 55, 80
4, 176160, Note_on_c, 2, 55, 0
4, 176160, Note_on_c, 2, 59, 80
4, 176544, Note_on_c, 2, 59, 0
4, 176640, Note_on_c, 2, 60, 80
4, 177024, Note_on_c, 2, 60, 0
4, 177120, Note_on_c, 2, 60, 80
4, 177600, Note_on_c, 2, 60, 0
4, 177600, Note_on_c, 2, 62, 80
4, 178080, Note_on_c, 2, 62, 0
4, 178080, Note_on_c, 2, 63, 80
4, 178464, Note_on_c, 2, 63, 0
4, 178560, Note_on_c, 2, 58, 80
4, 180000, Note_on_c, 2, 58, 0
4, 180000, Note_on_c, 2, 60, 80
4, 180240, Note_on_c, 2, 60, 0
4, 180240, Note_on_c, 2, 58, 80
4, 180432, Note_on_c, 2, 58, 0
4, 180480, Note_on_c, 2, 57, 70
4, 180864, Note_on_c, 2, 57, 0
4, 184320, Note_on_c, 2, 65, 70
4, 186240, Note_on_c, 2, 58, 70
4, 187200, Note_on_c, 2, 65, 0
4, 187200, Note_on_c, 2, 64, 70
4, 188160, Note_on_c, 2, 64, 0
4, 188160, Note_on_c, 2, 63, 70
4, 189120, Note_on_c, 2, 63, 0
4, 189120, Note_on_c, 2, 58, 0
4, 189120, Note_on_c, 2, 59, 70
4, 189120, Note_on_c, 2, 62, 70
4, 189888, Note_on_c, 2, 62, 0
4, 189888, Note_on_c, 2, 59, 0
4, 190080, Note_on_c, 2, 60, 70
4, 190080, Note_on_c, 2, 63, 70
4, 192000, Note_on_c, 2, 63, 0
4, 192000, Note_on_c, 2, 60, 0
4, 192000, Note_on_c, 2, 58, 70
4, 192000, Note_on_c, 2, 62, 70
4, 192720, Note_on_c, 2, 62, 0
4, 192720, Note_on_c, 2, 58, 0
4, 192960, Note_on_c, 2, 60, 70
4, 192960, Note_on_c, 2, 57, 70
4, 193680, Note_on_c, 2, 57, 0
4, 193680, Note_on_c, 2, 60, 0
4, 193920, Note_on_c, 2, 58, 92
4, 194688, Note_on_c, 2, 58, 0
4, 195840, Note_on_c, 2, 58, 105
4, 195840, Note_on_c, 2, 62, 105
4, 196128, Note_on_c, 2, 62, 0
4, 196128, Note_on_c, 2, 58, 0
4, 196320, Note_on_c, 2, 60, 105
4, 196320, Note_on_c, 2, 57, 105
4, 196608, Note_on_c, 2, 57, 0
4, 196608, Note_on_c, 2, 60, 0
4, 196800, Note_on_c, 2, 62, 105
4, 196800, Note_on_c, 2, 58, 105
4, 197088, Note_on_c, 2, 58, 0
4, 197088, Note_on_c, 2, 62, 0
4, 197280, Note_on_c, 2, 60, 105
4, 197280, Note_on_c, 2, 57, 105
4, 197568, Note_on_c, 2, 57, 0
4, 197568, Note_on_c, 2, 60, 0
4, 197760, Note_on_c, 2, 62, 105
4, 197760, Note_on_c, 2, 58, 105
4, 198528, Note_on_c, 2, 58, 0
4, 198528, Note_on_c, 2, 62, 0
4, 199680, Note_on_c, 2, 58, 105
4, 199680, Note_on_c, 2, 62, 105
4, 199968, Note_on_c, 2, 62, 0
4, 199968, Note_on_c, 2, 58, 0
4, 200160, Note_on_c, 2, 60, 105
4, 200160, Note_on_c, 2, 57, 105
4, 200448, Note_on_c, 2, 57, 0
4, 200448, Note_on_c, 2, 60, 0
4, 200640, Note_on_c, 2, 58, 105
4, 200640, Note_on_c, 2, 62, 105
4, 200928, Note_on_c, 2, 62, 0
4, 200928, Note_on_c, 2, 58, 0
4, 201120, Note_on_c, 2, 60, 105
4, 201120, Note_on_c, 2, 57, 105
4, 201408, Note_on_c, 2, 57, 0
4, 201408, Note_on_c, 2, 60, 0
4, 201600, Note_on_c, 2, 58, 105
4, 201600, Note_on_c, 2, 62, 105
4, 202368, Note_on_c, 2, 62, 0
4, 202368, Note_on_c, 2, 58, 0
4, 203520, Note_on_c, 2, 58, 105
4, 203520, Note_on_c, 2, 62, 105
4, 203808, Note_on_c, 2, 62, 0
4, 203808, Note_on_c, 2, 58, 0
4, 204000, Note_on_c, 2, 60, 105
4, 204000, Note_on_c, 2, 57, 105
4, 204288, Note_on_c, 2, 57, 0
4, 204288, Note_on_c, 2, 60, 0
4, 204480, Note_on_c, 2, 58, 105
4, 204480, Note_on_c, 2, 62, 105
4, 204768, Note_on_c, 2, 62, 0
4, 204768, Note_on_c, 2, 58, 0
4, 204960, Note_on_c, 2, 60, 105
4, 204960, Note_on_c, 2, 57, 105
4, 205248, Note_on_c, 2, 57, 0
4, 205248, Note_on_c, 2, 60, 0
4, 205440, Note_on_c, 2, 58, 105
4, 205440, Note_on_c, 2, 62, 105
4, 206208, Note_on_c, 2, 62, 0
4, 206208, Note_on_c, 2, 58, 0
4, 206400, Note_on_c, 2, 67, 105
4, 206400, Note_on_c, 2, 63, 105
4, 207168, Note_on_c, 2, 63, 0
4, 207168, Note_on_c, 2, 67, 0
4, 207360, Note_on_c, 2, 62, 105
4, 207360, Note_on_c, 2, 65, 105
4, 208128, Note_on_c, 2, 65, 0
4, 208128, Note_on_c, 2, 62, 0
4, 208320, Note_on_c, 2, 60, 105
4, 208320, Note_on_c, 2, 63, 105
4, 209088, Note_on_c, 2, 63, 0
4, 209088, Note_on_c, 2, 60, 0
4, 209280, Note_on_c, 2, 58, 92
4, 209280, Note_on_c, 2, 62, 92
4, 209664, Note_on_c, 2, 62, 0
4, 209664, Note_on_c, 2, 58, 0
4, 218880, Note_on_c, 2, 62, 105
4, 218880, Note_on_c, 2, 58, 105
4, 219168, Note_on_c, 2, 58, 0
4, 219168, Note_on_c, 2, 62, 0
4, 219360, Note_on_c, 2, 60, 105
4, 219360, Note_on_c, 2, 57, 105
4, 219648, Note_on_c, 2, 57, 0
4, 219648, Note_on_c, 2, 60, 0
4, 219840, Note_on_c, 2, 58, 105
4, 219840, Note_on_c, 2, 62, 105
4, 220128, Note_on_c, 2, 62, 0
4, 220128, Note_on_c, 2, 58, 0
4, 220320, Note_on_c, 2, 60, 105
4, 220320, Note_on_c, 2, 57, 105
4, 220608, Note_on_c, 2, 57, 0
4, 220608, Note_on_c, 2, 60, 0
4, 220800, Note_on_c, 2, 62, 105
4, 220800, Note_on_c, 2, 58, 105
4, 221568, Note_on_c, 2, 58, 0
4, 221568, Note_on_c, 2, 62, 0
4, 221760, Note_on_c, 2, 67, 105
4, 221760, Note_on_c, 2, 63, 105
4, 222528, Note_on_c, 2, 63, 0
4, 222528, Note_on_c, 2, 67, 0
4, 222720, Note_on_c, 2, 65, 105
4, 222720, Note_on_c, 2, 62, 105
4, 223488, Note_on_c, 2, 62, 0
4, 223488, Note_on_c, 2, 65, 0
4, 223680, Note_on_c, 2, 63, 105
4, 223680, Note_on_c, 2, 60, 105
4, 224448, Note_on_c, 2, 60, 0
4, 224448, Note_on_c, 2, 63, 0
4, 224640, Note_on_c, 2, 58, 105
4, 224640, Note_on_c, 2, 62, 105
4, 225408, Note_on_c, 2, 62, 0
4, 225408, Note_on_c, 2, 58, 0
4, 226080, Note_on_c, 2, 58, 105
4, 226080, Note_on_c, 2, 62, 105
4, 226368, Note_on_c, 2, 62, 0
4, 226368, Note_on_c, 2, 58, 0
4, 226560, Note_on_c, 2, 55, 105
4, 226560, Note_on_c, 2, 60, 105
4, 226848, Note_on_c, 2, 60, 0
4, 226848, Note_on_c, 2, 55, 0
4, 227040, Note_on_c, 2, 53, 105
4, 227040, Note_on_c, 2, 57, 105
4, 227328, Note_on_c, 2, 57, 0
4, 227328, Note_on_c, 2, 53, 0
4, 227520, Note_on_c, 2, 57, 105
4, 227520, Note_on_c, 2, 65, 105
4, 227808, Note_on_c, 2, 65, 0
4, 227808, Note_on_c, 2, 57, 0
4, 228000, Note_on_c, 2, 57, 105
4, 228000, Note_on_c, 2, 65, 105
4, 228288, Note_on_c, 2, 65, 0
4, 228288, Note_on_c, 2, 57, 0
4, 228480, Note_on_c, 2, 58, 105
4, 228480, Note_on_c, 2, 62, 105
4, 229632, Note_on_c, 2, 62, 0
4, 229632, Note_on_c, 2, 58, 0
4, 229920, Note_on_c, 2, 58, 105
4, 229920, Note_on_c, 2, 62, 105
4, 230208, Note_on_c, 2, 62, 0
4, 230208, Note_on_c, 2, 58, 0
4, 230400, Note_on_c, 2, 55, 105
4, 230400, Note_on_c, 2, 60, 105
4, 230688, Note_on_c, 2, 60, 0
4, 230688, Note_on_c, 2, 55, 0
4, 230880, Note_on_c, 2, 57, 105
4, 230880, Note_on_c, 2, 53, 105
4, 231168, Note_on_c, 2, 53, 0
4, 231168, Note_on_c, 2, 57, 0
4, 231360, Note_on_c, 2, 65, 105
4, 231360, Note_on_c, 2, 57, 105
4, 231648, Note_on_c, 2, 57, 0
4, 231648, Note_on_c, 2, 65, 0
4, 231840, Note_on_c, 2, 57, 105
4, 231840, Note_on_c, 2, 65, 105
4, 232128, Note_on_c, 2, 65, 0
4, 232128, Note_on_c, 2, 57, 0
4, 232320, Note_on_c, 2, 62, 105
4, 232320, Note_on_c, 2, 58, 105
4, 233472, Note_on_c, 2, 58, 0
4, 233472, Note_on_c, 2, 62, 0
4, 233760, Note_on_c, 2, 62, 105
4, 233760, Note_on_c, 2, 58, 105
4, 234048, Note_on_c, 2, 58, 0
4, 234048, Note_on_c, 2, 62, 0
4, 234240, Note_on_c, 2, 55, 105
4, 234240, Note_on_c, 2, 60, 105
4, 234528, Note_on_c, 2, 60, 0
4, 234528, Note_on_c, 2, 55, 0
4, 234720, Note_on_c, 2, 57, 105
4, 234720, Note_on_c, 2, 53, 105
4, 235008, Note_on_c, 2, 53, 0
4, 235008, Note_on_c, 2, 57, 0
4, 235200, Note_on_c, 2, 65, 105
4, 235200, Note_on_c, 2, 57, 105
4, 235488, Note_on_c, 2, 57, 0
4, 235488, Note_on_c, 2, 65, 0
4, 235680, Note_on_c, 2, 57, 105
4, 235680, Note_on_c, 2, 65, 105
4, 235968, Note_on_c, 2, 65, 0
4, 235968, Note_on_c, 2, 57, 0
4, 236160, Note_on_c, 2, 62, 105
4, 236160, Note_on_c, 2, 58, 105
4, 236544, Note_on_c, 2, 58, 0
4, 236544, Note_on_c, 2, 62, 0
4, 237120, Note_on_c, 2, 58, 105
4, 237504, Note_on_c, 2, 58, 0
4, 238080, Note_on_c, 2, 46, 105
4, 238848, Note_on_c, 2, 46, 0
4, 240000, Note_on_c, 2, 55, 70
4, 240768, Note_on_c, 2, 55, 0
4, 241920, Note_on_c, 2, 55, 70
4, 242688, Note_on_c, 2, 55, 0
4, 243360, Note_on_c, 2, 55, 105
4, 243648, Note_on_c, 2, 55, 0
4, 243840, Note_on_c, 2, 54, 105
4, 244128, Note_on_c, 2, 54, 0
4, 244320, Note_on_c, 2, 55, 105
4, 244608, Note_on_c, 2, 55, 0
4, 244800, Note_on_c, 2, 54, 105
4, 245088, Note_on_c, 2, 54, 0
4, 245280, Note_on_c, 2, 55, 105
4, 245568, Note_on_c, 2, 55, 0
4, 245760, Note_on_c, 2, 54, 105
4, 246528, Note_on_c, 2, 54, 0
4, 247680, Note_on_c, 2, 48, 70
4, 248448, Note_on_c, 2, 48, 0
4, 249600, Note_on_c, 2, 50, 70
4, 250368, Note_on_c, 2, 50, 0
4, 251040, Note_on_c, 2, 50, 105
4, 251328, Note_on_c, 2, 50, 0
4, 251520, Note_on_c, 2, 55, 105
4, 251808, Note_on_c, 2, 55, 0
4, 252000, Note_on_c, 2, 50, 105
4, 252288, Note_on_c, 2, 50, 0
4, 252480, Note_on_c, 2, 55, 105
4, 252768, Note_on_c, 2, 55, 0
4, 252960, Note_on_c, 2, 50, 105
4, 253248, Note_on_c, 2, 50, 0
4, 253440, Note_on_c, 2, 55, 105
4, 254208, Note_on_c, 2, 55, 0
4, 255360, Note_on_c, 2, 55, 70
4, 256128, Note_on_c, 2, 55, 0
4, 257280, Note_on_c, 2, 55, 70
4, 258048, Note_on_c, 2, 55, 0
4, 258720, Note_on_c, 2, 55, 70
4, 259008, Note_on_c, 2, 55, 0
4, 259200, Note_on_c, 2, 54, 105
4, 259488, Note_on_c, 2, 54, 0
4, 259680, Note_on_c, 2, 55, 105
4, 259968, Note_on_c, 2, 55, 0
4, 260160, Note_on_c, 2, 54, 105
4, 260448, Note_on_c, 2, 54, 0
4, 260640, Note_on_c, 2, 55, 105
4, 260928, Note_on_c, 2, 55, 0
4, 261120, Note_on_c, 2, 54, 105
4, 261888, Note_on_c, 2, 54, 0
4, 263040, Note_on_c, 2, 48, 70
4, 263808, Note_on_c, 2, 48, 0
4, 264960, Note_on_c, 2, 50, 70
4, 265728, Note_on_c, 2, 50, 0
4, 266400, Note_on_c, 2, 50, 105
4, 266688, Note_on_c, 2, 50, 0
4, 266880, Note_on_c, 2, 55, 105
4, 267168, Note_on_c, 2, 55, 0
4, 267360, Note_on_c, 2, 50, 105
4, 267648, Note_on_c, 2, 50, 0
4, 267840, Note_on_c, 2, 55, 105
4, 268128, Note_on_c, 2, 55, 0
4, 268320, Note_on_c, 2, 50, 105
4, 268608, Note_on_c, 2, 50, 0
4, 268800, Note_on_c, 2, 55, 105
4, 269568, Note_on_c, 2, 55, 0
4, 270240, Note_on_c, 2, 62, 105
4, 270240, Note_on_c, 2, 50, 105
4, 270528, Note_on_c, 2, 50, 0
4, 270528, Note_on_c, 2, 62, 0
4, 270720, Note_on_c, 2, 50, 105
4, 270720, Note_on_c, 2, 62, 105
4, 271488, Note_on_c, 2, 62, 0
4, 271488, Note_on_c, 2, 50, 0
4, 274080, Note_on_c, 2, 62, 105
4, 274080, Note_on_c, 2, 50, 105
4, 274368, Note_on_c, 2, 50, 0
4, 274368, Note_on_c, 2, 62, 0
4, 274560, Note_on_c, 2, 50, 105
4, 274560, Note_on_c, 2, 62, 105
4, 275328, Note_on_c, 2, 62, 0
4, 275328, Note_on_c, 2, 50, 0
4, 278400, Note_on_c, 2, 48, 70
4, 279168, Note_on_c, 2, 48, 0
4, 280320, Note_on_c, 2, 50, 70
4, 281088, Note_on_c, 2, 50, 0
4, 281760, Note_on_c, 2, 50, 105
4, 282048, Note_on_c, 2, 50, 0
4, 282240, Note_on_c, 2, 55, 105
4, 282528, Note_on_c, 2, 55, 0
4, 282720, Note_on_c, 2, 50, 105
4, 283008, Note_on_c, 2, 50, 0
4, 283200, Note_on_c, 2, 55, 105
4, 283488, Note_on_c, 2, 55, 0
4, 283680, Note_on_c, 2, 50, 105
4, 283968, Note_on_c, 2, 50, 0
4, 284160, Note_on_c, 2, 55, 105
4, 284928, Note_on_c, 2, 55, 0
4, 285600, Note_on_c, 2, 50, 105
4, 285888, Note_on_c, 2, 50, 0
4, 286080, Note_on_c, 2, 62, 105
4, 286080, Note_on_c, 2, 50, 105
4, 286848, Note_on_c, 2, 50, 0
4, 286848, Note_on_c, 2, 62, 0
4, 289440, Note_on_c, 2, 62, 105
4, 289440, Note_on_c, 2, 50, 105
4, 289728, Note_on_c, 2, 50, 0
4, 289728, Note_on_c, 2, 62, 0
4, 289920, Note_on_c, 2, 62, 105
4, 289920, Note_on_c, 2, 50, 105
4, 290688, Note_on_c, 2, 50, 0
4, 290688, Note_on_c, 2, 62, 0
4, 293760, Note_on_c, 2, 48, 70
4, 294528, Note_on_c, 2, 48, 0
4, 295680, Note_on_c, 2, 50, 70
4, 296448, Note_on_c, 2, 50, 0
4, 297120, Note_on_c, 2, 50, 105
4, 297408, Note_on_c, 2, 50, 0
4, 297600, Note_on_c, 2, 55, 105
4, 297888, Note_on_c, 2, 55, 0
4, 298080, Note_on_c, 2, 50, 105
4, 298368, Note_on_c, 2, 50, 0
4, 298560, Note_on_c, 2, 55, 105
4, 298848, Note_on_c, 2, 55, 0
4, 299040, Note_on_c, 2, 50, 105
4, 299328, Note_on_c, 2, 50, 0
4, 299520, Note_on_c, 2, 55, 105
4, 300288, Note_on_c, 2, 55, 0
4, 301440, Note_on_c, 2, 51, 105
4, 301728, Note_on_c, 2, 51, 0
4, 301920, Note_on_c, 2, 53, 105
4, 302208, Note_on_c, 2, 53, 0
4, 302400, Note_on_c, 2, 51, 105
4, 302688, Note_on_c, 2, 51, 0
4, 302880, Note_on_c, 2, 53, 105
4, 303168, Note_on_c, 2, 53, 0
4, 303360, Note_on_c, 2, 51, 105
4, 304128, Note_on_c, 2, 51, 0
4, 305280, Note_on_c, 2, 50, 105
4, 305568, Note_on_c, 2, 50, 0
4, 305760, Note_on_c, 2, 49, 105
4, 306048, Note_on_c, 2, 49, 0
4, 306240, Note_on_c, 2, 50, 105
4, 306528, Note_on_c, 2, 50, 0
4, 306720, Note_on_c, 2, 49, 105
4, 307008, Note_on_c, 2, 49, 0
4, 307200, Note_on_c, 2, 50, 105
4, 307968, Note_on_c, 2, 50, 0
4, 308640, Note_on_c, 2, 42, 105
4, 309024, Note_on_c, 2, 42, 0
4, 309120, Note_on_c, 2, 43, 105
4, 309888, Note_on_c, 2, 43, 0
4, 310560, Note_on_c, 2, 46, 105
4, 310944, Note_on_c, 2, 46, 0
4, 311040, Note_on_c, 2, 45, 105
4, 311424, Note_on_c, 2, 45, 0
4, 311520, Note_on_c, 2, 48, 105
4, 311904, Note_on_c, 2, 48, 0
4, 312000, Note_on_c, 2, 50, 105
4, 312384, Note_on_c, 2, 50, 0
4, 312480, Note_on_c, 2, 54, 105
4, 312864, Note_on_c, 2, 54, 0
4, 312960, Note_on_c, 2, 55, 105
4, 313728, Note_on_c, 2, 55, 0
4, 314400, Note_on_c, 2, 58, 105
4, 314784, Note_on_c, 2, 58, 0
4, 314880, Note_on_c, 2, 57, 105
4, 315264, Note_on_c, 2, 57, 0
4, 315360, Note_on_c, 2, 60, 105
4, 315744, Note_on_c, 2, 60, 0
4, 315840, Note_on_c, 2, 62, 105
4, 316224, Note_on_c, 2, 62, 0
4, 316320, Note_on_c, 2, 54, 105
4, 316704, Note_on_c, 2, 54, 0
4, 316800, Note_on_c, 2, 55, 105
4, 317568, Note_on_c, 2, 55, 0
4, 318240, Note_on_c, 2, 53, 105
4, 318624, Note_on_c, 2, 53, 0
4, 318720, Note_on_c, 2, 51, 105
4, 319488, Note_on_c, 2, 51, 0
4, 320160, Note_on_c, 2, 48, 105
4, 320544, Note_on_c, 2, 48, 0
4, 320640, Note_on_c, 2, 53, 105
4, 321408, Note_on_c, 2, 53, 0
4, 322080, Note_on_c, 2, 51, 105
4, 322464, Note_on_c, 2, 51, 0
4, 322560, Note_on_c, 2, 50, 105
4, 323328, Note_on_c, 2, 50, 0
4, 324000, Note_on_c, 2, 46, 105
4, 324384, Note_on_c, 2, 46, 0
4, 324480, Note_on_c, 2, 51, 105
4, 325248, Note_on_c, 2, 51, 0
4, 325920, Note_on_c, 2, 53, 105
4, 326304, Note_on_c, 2, 53, 0
4, 326400, Note_on_c, 2, 55, 105
4, 327168, Note_on_c, 2, 55, 0
4, 327840, Note_on_c, 2, 52, 105
4, 328224, Note_on_c, 2, 52, 0
4, 328320, Note_on_c, 2, 53, 105
4, 329088, Note_on_c, 2, 53, 0
4, 329760, Note_on_c, 2, 55, 105
4, 330144, Note_on_c, 2, 55, 0
4, 330240, Note_on_c, 2, 57, 105
4, 331008, Note_on_c, 2, 57, 0
4, 332160, Note_on_c, 2, 62, 105
4, 332160, Note_on_c, 2, 58, 105
4, 332448, Note_on_c, 2, 58, 0
4, 332448, Note_on_c, 2, 62, 0
4, 332640, Note_on_c, 2, 60, 105
4, 332640, Note_on_c, 2, 63, 105
4, 332928, Note_on_c, 2, 63, 0
4, 332928, Note_on_c, 2, 60, 0
4, 333120, Note_on_c, 2, 62, 105
4, 333120, Note_on_c, 2, 58, 105
4, 333408, Note_on_c, 2, 58, 0
4, 333408, Note_on_c, 2, 62, 0
4, 333600, Note_on_c, 2, 63, 105
4, 333600, Note_on_c, 2, 60, 105
4, 333888, Note_on_c, 2, 60, 0
4, 333888, Note_on_c, 2, 63, 0
4, 334080, Note_on_c, 2, 62, 105
4, 334080, Note_on_c, 2, 58, 105
4, 334848, Note_on_c, 2, 58, 0
4, 334848, Note_on_c, 2, 62, 0
4, 336000, Note_on_c, 2, 58, 105
4, 336000, Note_on_c, 2, 55, 105
4, 336288, Note_on_c, 2, 55, 0
4, 336288, Note_on_c, 2, 58, 0
4, 336480, Note_on_c, 2, 57, 105
4, 336480, Note_on_c, 2, 60, 105
4, 336768, Note_on_c, 2, 60, 0
4, 336768, Note_on_c, 2, 57, 0
4, 336960, Note_on_c, 2, 58, 105
4, 336960, Note_on_c, 2, 55, 105
4, 337248, Note_on_c, 2, 55, 0
4, 337248, Note_on_c, 2, 58, 0
4, 337440, Note_on_c, 2, 60, 105
4, 337440, Note_on_c, 2, 57, 105
4, 337728, Note_on_c, 2, 57, 0
4, 337728, Note_on_c, 2, 60, 0
4, 337920, Note_on_c, 2, 58, 105
4, 337920, Note_on_c, 2, 55, 105
4, 338688, Note_on_c, 2, 55, 0
4, 338688, Note_on_c, 2, 58, 0
4, 339840, Note_on_c, 2, 60, 105
4, 339840, Note_on_c, 2, 55, 105
4, 340128, Note_on_c, 2, 55, 0
4, 340128, Note_on_c, 2, 60, 0
4, 340320, Note_on_c, 2, 59, 105
4, 340320, Note_on_c, 2, 56, 105
4, 340608, Note_on_c, 2, 56, 0
4, 340608, Note_on_c, 2, 59, 0
4, 340800, Note_on_c, 2, 55, 105
4, 340800, Note_on_c, 2, 60, 105
4, 341088, Note_on_c, 2, 60, 0
4, 341088, Note_on_c, 2, 55, 0
4, 341280, Note_on_c, 2, 59, 105
4, 341280, Note_on_c, 2, 56, 105
4, 341568, Note_on_c, 2, 56, 0
4, 341568, Note_on_c, 2, 59, 0
4, 341760, Note_on_c, 2, 55, 105
4, 341760, Note_on_c, 2, 60, 105
4, 342528, Note_on_c, 2, 60, 0
4, 342528, Note_on_c, 2, 55, 0
4, 343680, Note_on_c, 2, 65, 105
4, 343680, Note_on_c, 2, 53, 105
4, 343968, Note_on_c, 2, 53, 0
4, 343968, Note_on_c, 2, 65, 0
4, 344160, Note_on_c, 2, 54, 105
4, 344160, Note_on_c, 2, 66, 105
4, 344448, Note_on_c, 2, 66, 0
4, 344448, Note_on_c, 2, 54, 0
4, 344640, Note_on_c, 2, 53, 105
4, 344640, Note_on_c, 2, 65, 105
4, 344928, Note_on_c, 2, 65, 0
4, 344928, Note_on_c, 2, 53, 0
4, 345120, Note_on_c, 2, 66, 105
4, 345120, Note_on_c, 2, 54, 105
4, 345408, Note_on_c, 2, 54, 0
4, 345408, Note_on_c, 2, 66, 0
4, 345600, Note_on_c, 2, 65, 105
4, 345600, Note_on_c, 2, 45, 105
4, 346752, Note_on_c, 2, 45, 0
4, 346752, Note_on_c, 2, 65, 0
4, 347280, Note_on_c, 2, 57, 105
4, 347472, Note_on_c, 2, 57, 0
4, 347520, Note_on_c, 2, 58, 125
4, 347712, Note_on_c, 2, 58, 0
4, 347760, Note_on_c, 2, 57, 105
4, 347952, Note_on_c, 2, 57, 0
4, 348000, Note_on_c, 2, 55, 105
4, 348192, Note_on_c, 2, 55, 0
4, 348240, Note_on_c, 2, 53, 105
4, 348432, Note_on_c, 2, 53, 0
4, 348480, Note_on_c, 2, 51, 105
4, 348672, Note_on_c, 2, 51, 0
4, 348720, Note_on_c, 2, 50, 105
4, 348912, Note_on_c, 2, 50, 0
4, 348960, Note_on_c, 2, 48, 105
4, 349152, Note_on_c, 2, 48, 0
4, 349200, Note_on_c, 2, 46, 105
4, 349392, Note_on_c, 2, 46, 0
4, 349440, Note_on_c, 2, 45, 105
4, 350592, Note_on_c, 2, 45, 0
4, 351120, Note_on_c, 2, 57, 105
4, 351312, Note_on_c, 2, 57, 0
4, 351360, Note_on_c, 2, 55, 125
4, 351552, Note_on_c, 2, 55, 0
4, 351600, Note_on_c, 2, 53, 105
4, 351792, Note_on_c, 2, 53, 0
4, 351840, Note_on_c, 2, 51, 105
4, 352032, Note_on_c, 2, 51, 0
4, 352080, Note_on_c, 2, 50, 105
4, 352272, Note_on_c, 2, 50, 0
4, 352320, Note_on_c, 2, 48, 105
4, 352512, Note_on_c, 2, 48, 0
4, 352560, Note_on_c, 2, 46, 105
4, 352752, Note_on_c, 2, 46, 0
4, 352800, Note_on_c, 2, 45, 105
4, 352992, Note_on_c, 2, 45, 0
4, 353040, Note_on_c, 2, 43, 105
4, 353232, Note_on_c, 2, 43, 0
4, 353280, Note_on_c, 2, 41, 105
4, 354432, Note_on_c, 2, 41, 0
4, 354960, Note_on_c, 2, 65, 105
4, 355152, Note_on_c, 2, 65, 0
4, 355200, Note_on_c, 2, 63, 125
4, 355392, Note_on_c, 2, 63, 0
4, 355440, Note_on_c, 2, 62, 105
4, 355632, Note_on_c, 2, 62, 0
4, 355680, Note_on_c, 2, 60, 105
4, 355872, Note_on_c, 2, 60, 0
4, 355920, Note_on_c, 2, 58, 105
4, 356112, Note_on_c, 2, 58, 0
4, 356160, Note_on_c, 2, 56, 105
4, 356352, Note_on_c, 2, 56, 0
4, 356400, Note_on_c, 2, 55, 105
4, 356592, Note_on_c, 2, 55, 0
4, 356640, Note_on_c, 2, 53, 105
4, 356832, Note_on_c, 2, 53, 0
4, 356880, Note_on_c, 2, 51, 105
4, 357072, Note_on_c, 2, 51, 0
4, 357120, Note_on_c, 2, 50, 105
4, 357888, Note_on_c, 2, 50, 0
4, 359040, Note_on_c, 2, 48, 105
4, 359808, Note_on_c, 2, 48, 0
4, 360000, Note_on_c, 2, 50, 105
4, 360768, Note_on_c, 2, 50, 0
4, 360960, Note_on_c, 2, 51, 105
4, 361728, Note_on_c, 2, 51, 0
4, 361920, Note_on_c, 2, 52, 105
4, 362688, Note_on_c, 2, 52, 0
4, 362880, Note_on_c, 2, 53, 105
4, 363264, Note_on_c, 2, 53, 0
4, 363360, Note_on_c, 2, 53, 105
4, 363744, Note_on_c, 2, 53, 0
4, 363840, Note_on_c, 2, 53, 105
4, 364224, Note_on_c, 2, 53, 0
4, 364320, Note_on_c, 2, 53, 105
4, 364704, Note_on_c, 2, 53, 0
4, 364800, Note_on_c, 2, 53, 105
4, 365184, Note_on_c, 2, 53, 0
4, 365280, Note_on_c, 2, 53, 105
4, 365664, Note_on_c, 2, 53, 0
4, 365760, Note_on_c, 2, 53, 105
4, 366144, Note_on_c, 2, 53, 0
4, 366240, Note_on_c, 2, 53, 105
4, 366624, Note_on_c, 2, 53, 0
4, 366720, Note_on_c, 2, 53, 105
4, 367104, Note_on_c, 2, 53, 0
4, 367200, Note_on_c, 2, 53, 105
4, 367584, Note_on_c, 2, 53, 0
4, 367680, Note_on_c, 2, 53, 105
4, 368064, Note_on_c, 2, 53, 0
4, 368160, Note_on_c, 2, 53, 105
4, 368544, Note_on_c, 2, 53, 0
4, 368640, Note_on_c, 2, 53, 105
4, 369024, Note_on_c, 2, 53, 0
4, 369120, Note_on_c, 2, 53, 105
4, 369504, Note_on_c, 2, 53, 0
4, 369600, Note_on_c, 2, 53, 105
4, 369984, Note_on_c, 2, 53, 0
4, 370080, Note_on_c, 2, 53, 105
4, 370464, Note_on_c, 2, 53, 0
4, 370560, Note_on_c, 2, 53, 105
4, 370944, Note_on_c, 2, 53, 0
4, 371520, Note_on_c, 2, 53, 105
4, 371904, Note_on_c, 2, 53, 0
4, 372480, Note_on_c, 2, 41, 105
4, 373248, Note_on_c, 2, 41, 0
4, 403680, Note_on_c, 2, 53, 80
4, 404160, Note_on_c, 2, 53, 0
4, 404160, Note_on_c, 2, 58, 80
4, 404640, Note_on_c, 2, 58, 0
4, 404640, Note_on_c, 2, 60, 80
4, 405024, Note_on_c, 2, 60, 0
4, 405120, Note_on_c, 2, 62, 80
4, 406656, Note_on_c, 2, 62, 0
4, 407040, Note_on_c, 2, 60, 80
4, 408576, Note_on_c, 2, 60, 0
4, 408960, Note_on_c, 2, 58, 92
4, 409440, Note_on_c, 2, 58, 0
4, 409440, Note_on_c, 2, 60, 92
4, 409680, Note_on_c, 2, 60, 0
4, 409680, Note_on_c, 2, 62, 92
4, 409872, Note_on_c, 2, 62, 0
4, 409920, Note_on_c, 2, 63, 80
4, 411792, Note_on_c, 2, 63, 0
4, 411840, Note_on_c, 2, 62, 80
4, 412608, Note_on_c, 2, 62, 0
4, 412800, Note_on_c, 2, 55, 80
4, 414240, Note_on_c, 2, 55, 0
4, 414240, Note_on_c, 2, 59, 80
4, 414624, Note_on_c, 2, 59, 0
4, 414720, Note_on_c, 2, 60, 80
4, 415104, Note_on_c, 2, 60, 0
4, 415200, Note_on_c, 2, 60, 80
4, 415680, Note_on_c, 2, 60, 0
4, 415680, Note_on_c, 2, 62, 80
4, 416160, Note_on_c, 2, 62, 0
4, 416160, Note_on_c, 2, 63, 80
4, 416544, Note_on_c, 2, 63, 0
4, 416640, Note_on_c, 2, 58, 80
4, 418080, Note_on_c, 2, 58, 0
4, 418080, Note_on_c, 2, 60, 80
4, 418320, Note_on_c, 2, 60, 0
4, 418320, Note_on_c, 2, 58, 80
4, 418512, Note_on_c, 2, 58, 0
4, 418560, Note_on_c, 2, 57, 70
4, 418944, Note_on_c, 2, 57, 0
4, 422400, Note_on_c, 2, 65, 70
4, 424320, Note_on_c, 2, 58, 70
4, 425280, Note_on_c, 2, 65, 0
4, 425280, Note_on_c, 2, 64, 70
4, 426240, Note_on_c, 2, 64, 0
4, 426240, Note_on_c, 2, 63, 70
4, 427200, Note_on_c, 2, 63, 0
4, 427200, Note_on_c, 2, 58, 0
4, 427200, Note_on_c, 2, 59, 70
4, 427200, Note_on_c, 2, 62, 70
4, 427968, Note_on_c, 2, 62, 0
4, 427968, Note_on_c, 2, 59, 0
4, 428160, Note_on_c, 2, 60, 70
4, 428160, Note_on_c, 2, 63, 70
4, 430080, Note_on_c, 2, 63, 0
4, 430080, Note_on_c, 2, 60, 0
4, 430080, Note_on_c, 2, 58, 70
4, 430080, Note_on_c, 2, 62, 70
4, 430800, Note_on_c, 2, 62, 0
4, 430800, Note_on_c, 2, 58, 0
4, 431040, Note_on_c, 2, 60, 70
4, 431040, Note_on_c, 2, 57, 70
4, 431760, Note_on_c, 2, 57, 0
4, 431760, Note_on_c, 2, 60, 0
4, 432000, Note_on_c, 2, 58, 92
4, 432768, Note_on_c, 2, 58, 0
4, 433920, Note_on_c, 2, 58, 105
4, 433920, Note_on_c, 2, 62, 105
4, 434208, Note_on_c, 2, 62, 0
4, 434208, Note_on_c, 2, 58, 0
4, 434400, Note_on_c, 2, 60, 105
4, 434400, Note_on_c, 2, 57, 105
4, 434688, Note_on_c, 2, 57, 0
4, 434688, Note_on_c, 2, 60, 0
4, 434880, Note_on_c, 2, 62, 105
4, 434880, Note_on_c, 2, 58, 105
4, 435168, Note_on_c, 2, 58, 0
4, 435168, Note_on_c, 2, 62, 0
4, 435360, Note_on_c, 2, 60, 105
4, 435360, Note_on_c, 2, 57, 105
4, 435648, Note_on_c, 2, 57, 0
4, 435648, Note_on_c, 2, 60, 0
4, 435840, Note_on_c, 2, 62, 105
4, 435840, Note_on_c, 2, 58, 105
4, 436608, Note_on_c, 2, 58, 0
4, 436608, Note_on_c, 2, 62, 0
4, 437760, Note_on_c, 2, 58, 105
4, 437760, Note_on_c, 2, 62, 105
4, 438048, Note_on_c, 2, 62, 0
4, 438048, Note_on_c, 2, 58, 0
4, 438240, Note_on_c, 2, 60, 105
4, 438240, Note_on_c, 2, 57, 105
4, 438528, Note_on_c, 2, 57, 0
4, 438528, Note_on_c, 2, 60, 0
4, 438720, Note_on_c, 2, 58, 105
4, 438720, Note_on_c, 2, 62, 105
4, 439008, Note_on_c, 2, 62, 0
4, 439008, Note_on_c, 2, 58, 0
4, 439200, Note_on_c, 2, 60, 105
4, 439200, Note_on_c, 2, 57, 105
4, 439488, Note_on_c, 2, 57, 0
4, 439488, Note_on_c, 2, 60, 0
4, 439680, Note_on_c, 2, 58, 105
4, 439680, Note_on_c, 2, 62, 105
4, 440448, Note_on_c, 2, 62, 0
4, 440448, Note_on_c, 2, 58, 0
4, 441600, Note_on_c, 2, 58, 105
4, 441600, Note_on_c, 2, 62, 105
4, 441888, Note_on_c, 2, 62, 0
4, 441888, Note_on_c, 2, 58, 0
4, 442080, Note_on_c, 2, 60, 105
4, 442080, Note_on_c, 2, 57, 105
4, 442368, Note_on_c, 2, 57, 0
4, 442368, Note_on_c, 2, 60, 0
4, 442560, Note_on_c, 2, 58, 105
4, 442560, Note_on_c, 2, 62, 105
4, 442848, Note_on_c, 2, 62, 0
4, 442848, Note_on_c, 2, 58, 0
4, 443040, Note_on_c, 2, 60, 105
4, 443040, Note_on_c, 2, 57, 105
4, 443328, Note_on_c, 2, 57, 0
4, 443328, Note_on_c, 2, 60, 0
4, 443520, Note_on_c, 2, 58, 105
4, 443520, Note_on_c, 2, 62, 105
4, 444288, Note_on_c, 2, 62, 0
4, 444288, Note_on_c, 2, 58, 0
4, 444480, Note_on_c, 2, 67, 105
4, 444480, Note_on_c, 2, 63, 105
4, 445248, Note_on_c, 2, 63, 0
4, 445248, Note_on_c, 2, 67, 0
4, 445440, Note_on_c, 2, 62, 105
4, 445440, Note_on_c, 2, 65, 105
4, 446208, Note_on_c, 2, 65, 0
4, 446208, Note_on_c, 2, 62, 0
4, 446400, Note_on_c, 2, 60, 105
4, 446400, Note_on_c, 2, 63, 105
4, 447168, Note_on_c, 2, 63, 0
4, 447168, Note_on_c, 2, 60, 0
4, 447360, Note_on_c, 2, 58, 92
4, 447360, Note_on_c, 2, 62, 92
4, 447744, Note_on_c, 2, 62, 0
4, 447744, Note_on_c, 2, 58, 0
4, 456960, Note_on_c, 2, 62, 105
4, 456960, Note_on_c, 2, 58, 105
4, 457248, Note_on_c, 2, 58, 0
4, 457248, Note_on_c, 2, 62, 0
4, 457440, Note_on_c, 2, 60, 105
4, 457440, Note_on_c, 2, 57, 105
4, 457728, Note_on_c, 2, 57, 0
4, 457728, Note_on_c, 2, 60, 0
4, 457920, Note_on_c, 2, 58, 105
4, 457920, Note_on_c, 2, 62, 105
4, 458208, Note_on_c, 2, 62, 0
4, 458208, Note_on_c, 2, 58, 0
4, 458400, Note_on_c, 2, 60, 105
4, 458400, Note_on_c, 2, 57, 105
4, 458688, Note_on_c, 2, 57, 0
4, 458688, Note_on_c, 2, 60, 0
4, 458880, Note_on_c, 2, 62, 105
4, 458880, Note_on_c, 2, 58, 105
4, 459648, Note_on_c, 2, 58, 0
4, 459648, Note_on_c, 2, 62, 0
4, 459840, Note_on_c, 2, 67, 105
4, 459840, Note_on_c, 2, 63, 105
4, 460608, Note_on_c, 2, 63, 0
4, 460608, Note_on_c, 2, 67, 0
4, 460800, Note_on_c, 2, 65, 105
4, 460800, Note_on_c, 2, 62, 105
4, 461568, Note_on_c, 2, 62, 0
4, 461568, Note_on_c, 2, 65, 0
4, 461760, Note_on_c, 2, 63, 105
4, 461760, Note_on_c, 2, 60, 105
4, 462528, Note_on_c, 2, 60, 0
4, 462528, Note_on_c, 2, 63, 0
4, 462720, Note_on_c, 2, 58, 105
4, 462720, Note_on_c, 2, 62, 105
4, 463488, Note_on_c, 2, 62, 0
4, 463488, Note_on_c, 2, 58, 0
4, 464160, Note_on_c, 2, 58, 105
4, 464160, Note_on_c, 2, 62, 105
4, 464448, Note_on_c, 2, 62, 0
4, 464448, Note_on_c, 2, 58, 0
4, 464640, Note_on_c, 2, 55, 105
4, 464640, Note_on_c, 2, 60, 105
4, 464928, Note_on_c, 2, 60, 0
4, 464928, Note_on_c, 2, 55, 0
4, 465120, Note_on_c, 2, 53, 105
4, 465120, Note_on_c, 2, 57, 105
4, 465408, Note_on_c, 2, 57, 0
4, 465408, Note_on_c, 2, 53, 0
4, 465600, Note_on_c, 2, 57, 105
4, 465600, Note_on_c, 2, 65, 105
4, 465888, Note_on_c, 2, 65, 0
4, 465888, Note_on_c, 2, 57, 0
4, 466080, Note_on_c, 2, 57, 105
4, 466080, Note_on_c, 2, 65, 105
4, 466368, Note_on_c, 2, 65, 0
4, 466368, Note_on_c, 2, 57, 0
4, 466560, Note_on_c, 2, 58, 105
4, 466560, Note_on_c, 2, 62, 105
4, 467712, Note_on_c, 2, 62, 0
4, 467712, Note_on_c, 2, 58, 0
4, 468000, Note_on_c, 2, 58, 105
4, 468000, Note_on_c, 2, 62, 105
4, 468288, Note_on_c, 2, 62, 0
4, 468288, Note_on_c, 2, 58, 0
4, 468480, Note_on_c, 2, 55, 105
4, 468480, Note_on_c, 2, 60, 105
4, 468768, Note_on_c, 2, 60, 0
4, 468768, Note_on_c, 2, 55, 0
4, 468960, Note_on_c, 2, 57, 105
4, 468960, Note_on_c, 2, 53, 105
4, 469248, Note_on_c, 2, 53, 0
4, 469248, Note_on_c, 2, 57, 0
4, 469440, Note_on_c, 2, 65, 105
4, 469440, Note_on_c, 2, 57, 105
4, 469728, Note_on_c, 2, 57, 0
4, 469728, Note_on_c, 2, 65, 0
4, 469920, Note_on_c, 2, 57, 105
4, 469920, Note_on_c, 2, 65, 105
4, 470208, Note_on_c, 2, 65, 0
4, 470208, Note_on_c, 2, 57, 0
4, 470400, Note_on_c, 2, 62, 105
4, 470400, Note_on_c, 2, 58, 105
4, 471552, Note_on_c, 2, 58, 0
4, 471552, Note_on_c, 2, 62, 0
4, 471840, Note_on_c, 2, 62, 105
4, 471840, Note_on_c, 2, 58, 105
4, 472128, Note_on_c, 2, 58, 0
4, 472128, Note_on_c, 2, 62, 0
4, 472320, Note_on_c, 2, 55, 105
4, 472320, Note_on_c, 2, 60, 105
4, 472608, Note_on_c, 2, 60, 0
4, 472608, Note_on_c, 2, 55, 0
4, 472800, Note_on_c, 2, 57, 105
4, 472800, Note_on_c, 2, 53, 105
4, 473088, Note_on_c, 2, 53, 0
4, 473088, Note_on_c, 2, 57, 0
4, 473280, Note_on_c, 2, 65, 105
4, 473280, Note_on_c, 2, 57, 105
4, 473568, Note_on_c, 2, 57, 0
4, 473568, Note_on_c, 2, 65, 0
4, 473760, Note_on_c, 2, 57, 105
4, 473760, Note_on_c, 2, 65, 105
4, 474048, Note_on_c, 2, 65, 0
4, 474048, Note_on_c, 2, 57, 0
4, 474240, Note_on_c, 2, 62, 105
4, 474240, Note_on_c, 2, 58, 105
4, 474624, Note_on_c, 2, 58, 0
4, 474624, Note_on_c, 2, 62, 0
4, 475200, Note_on_c, 2, 58, 105
4, 475584, Note_on_c, 2, 58, 0
4, 476160, Note_on_c, 2, 46, 92
4, 476928, Note_on_c, 2, 46, 0
4, 477600, Note_on_c, 2, 46, 112
4, 478080, Note_on_c, 2, 46, 0
4, 478080, Note_on_c, 2, 50, 105
4, 478368, Note_on_c, 2, 50, 0
4, 478560, Note_on_c, 2, 53, 105
4, 478848, Note_on_c, 2, 53, 0
4, 479040, Note_on_c, 2, 57, 105
4, 479328, Note_on_c, 2, 57, 0
4, 479520, Note_on_c, 2, 58, 105
4, 479808, Note_on_c, 2, 58, 0
4, 480000, Note_on_c, 2, 61, 105
4, 480960, Note_on_c, 2, 61, 0
4, 480960, Note_on_c, 2, 60, 105
4, 481248, Note_on_c, 2, 60, 0
4, 481440, Note_on_c, 2, 52, 105
4, 481728, Note_on_c, 2, 52, 0
4, 481920, Note_on_c, 2, 56, 105
4, 482256, Note_on_c, 2, 56, 0
4, 482880, Note_on_c, 2, 47, 105
4, 483216, Note_on_c, 2, 47, 0
4, 485520, Note_on_c, 2, 59, 105
4, 485600, Note_on_c, 2, 59, 0
4, 485600, Note_on_c, 2, 60, 105
4, 485680, Note_on_c, 2, 60, 0
4, 485680, Note_on_c, 2, 62, 105
4, 485760, Note_on_c, 2, 62, 0
4, 485760, Note_on_c, 2, 63, 105
4, 486096, Note_on_c, 2, 63, 0
4, 486720, Note_on_c, 2, 54, 105
4, 487056, Note_on_c, 2, 54, 0
4, 487680, Note_on_c, 2, 58, 105
4, 488016, Note_on_c, 2, 58, 0
4, 489600, Note_on_c, 2, 49, 105
4, 489936, Note_on_c, 2, 49, 0
4, 491520, Note_on_c, 2, 65, 105
4, 491856, Note_on_c, 2, 65, 0
4, 492480, Note_on_c, 2, 56, 105
4, 492816, Note_on_c, 2, 56, 0
4, 493440, Note_on_c, 2, 65, 70
4, 493440, Note_on_c, 2, 62, 70
4, 495360, Note_on_c, 2, 62, 0
4, 495360, Note_on_c, 2, 65, 0
4, 495360, Note_on_c, 2, 61, 70
4, 495360, Note_on_c, 2, 64, 70
4, 496320, Note_on_c, 2, 64, 0
4, 496320, Note_on_c, 2, 61, 0
4, 496320, Note_on_c, 2, 59, 70
4, 496320, Note_on_c, 2, 62, 70
4, 497280, Note_on_c, 2, 62, 0
4, 497280, Note_on_c, 2, 59, 0
4, 497280, Note_on_c, 2, 57, 58
4, 497280, Note_on_c, 2, 61, 58
4, 497664, Note_on_c, 2, 61, 0
4, 497664, Note_on_c, 2, 57, 0
4, 508320, Note_on_c, 2, 49, 80
4, 508800, Note_on_c, 2, 49, 0
4, 508800, Note_on_c, 2, 50, 80
4, 509088, Note_on_c, 2, 50, 0
4, 509280, Note_on_c, 2, 54, 80
4, 509568, Note_on_c, 2, 54, 0
4, 509760, Note_on_c, 2, 57, 80
4, 510048, Note_on_c, 2, 57, 0
4, 510240, Note_on_c, 2, 60, 80
4, 510528, Note_on_c, 2, 60, 0
4, 510720, Note_on_c, 2, 63, 80
4, 511680, Note_on_c, 2, 63, 0
4, 511680, Note_on_c, 2, 62, 80
4, 511968, Note_on_c, 2, 62, 0
4, 512160, Note_on_c, 2, 60, 80
4, 512448, Note_on_c, 2, 60, 0
4, 512640, Note_on_c, 2, 59, 58
4, 512928, Note_on_c, 2, 59, 0
4, 516000, Note_on_c, 2, 47, 70
4, 516480, Note_on_c, 2, 47, 0
4, 516480, Note_on_c, 2, 48, 70
4, 516768, Note_on_c, 2, 48, 0
4, 516960, Note_on_c, 2, 52, 70
4, 517248, Note_on_c, 2, 52, 0
4, 517440, Note_on_c, 2, 55, 70
4, 517728, Note_on_c, 2, 55, 0
4, 517920, Note_on_c, 2, 58, 70
4, 518208, Note_on_c, 2, 58, 0
4, 518400, Note_on_c, 2, 61, 70
4, 519360, Note_on_c, 2, 61, 0
4, 519360, Note_on_c, 2, 60, 70
4, 519648, Note_on_c, 2, 60, 0
4, 519840, Note_on_c, 2, 58, 70
4, 520128, Note_on_c, 2, 58, 0
4, 520320, Note_on_c, 2, 56, 70
4, 520608, Note_on_c, 2, 56, 0
4, 551040, Note_on_c, 2, 55, 70
4, 551040, Note_on_c, 2, 67, 105
4, 552576, Note_on_c, 2, 67, 0
4, 552576, Note_on_c, 2, 55, 0
4, 552960, Note_on_c, 2, 49, 105
4, 552960, Note_on_c, 2, 61, 105
4, 554496, Note_on_c, 2, 61, 0
4, 554496, Note_on_c, 2, 49, 0
4, 554880, Note_on_c, 2, 62, 105
4, 554880, Note_on_c, 2, 50, 105
4, 555648, Note_on_c, 2, 50, 0
4, 555648, Note_on_c, 2, 62, 0
4, 558720, Note_on_c, 2, 57, 105
4, 560256, Note_on_c, 2, 57, 0
4, 560640, Note_on_c, 2, 63, 105
4, 560640, Note_on_c, 2, 51, 105
4, 562176, Note_on_c, 2, 51, 0
4, 562176, Note_on_c, 2, 63, 0
4, 562560, Note_on_c, 2, 52, 105
4, 562560, Note_on_c, 2, 64, 105
4, 563328, Note_on_c, 2, 64, 0
4, 563328, Note_on_c, 2, 52, 0
4, 566400, Note_on_c, 2, 47, 105
4, 566400, Note_on_c, 2, 59, 105
4, 567936, Note_on_c, 2, 59, 0
4, 567936, Note_on_c, 2, 47, 0
4, 568320, Note_on_c, 2, 41, 105
4, 568320, Note_on_c, 2, 53, 105
4, 569856, Note_on_c, 2, 53, 0
4, 569856, Note_on_c, 2, 41, 0
4, 570240, Note_on_c, 2, 54, 105
4, 570240, Note_on_c, 2, 42, 105
4, 571776, Note_on_c, 2, 42, 0
4, 571776, Note_on_c, 2, 54, 0
4, 572160, Note_on_c, 2, 43, 105
4, 572160, Note_on_c, 2, 55, 105
4, 573312, Note_on_c, 2, 55, 0
4, 573312, Note_on_c, 2, 43, 0
4, 573600, Note_on_c, 2, 55, 125
4, 574080, Note_on_c, 2, 55, 0
4, 574080, Note_on_c, 2, 56, 105
4, 574368, Note_on_c, 2, 56, 0
4, 574560, Note_on_c, 2, 56, 105
4, 574848, Note_on_c, 2, 56, 0
4, 575040, Note_on_c, 2, 56, 105
4, 575040, Note_on_c, 2, 60, 105
4, 575328, Note_on_c, 2, 60, 0
4, 575328, Note_on_c, 2, 56, 0
4, 575520, Note_on_c, 2, 60, 105
4, 575520, Note_on_c, 2, 63, 105
4, 575808, Note_on_c, 2, 63, 0
4, 575808, Note_on_c, 2, 60, 0
4, 576000, Note_on_c, 2, 60, 105
4, 576000, Note_on_c, 2, 63, 105
4, 576960, Note_on_c, 2, 63, 0
4, 576960, Note_on_c, 2, 60, 0
4, 576960, Note_on_c, 2, 64, 105
4, 576960, Note_on_c, 2, 61, 105
4, 577248, Note_on_c, 2, 61, 0
4, 577248, Note_on_c, 2, 64, 0
4, 577440, Note_on_c, 2, 60, 105
4, 577440, Note_on_c, 2, 63, 105
4, 577728, Note_on_c, 2, 63, 0
4, 577728, Note_on_c, 2, 60, 0
4, 577920, Note_on_c, 2, 61, 92
4, 577920, Note_on_c, 2, 64, 92
4, 578688, Note_on_c, 2, 64, 0
4, 578688, Note_on_c, 2, 61, 0
4, 581280, Note_on_c, 2, 56, 112
4, 581280, Note_on_c, 2, 44, 92
4, 582048, Note_on_c, 2, 44, 0
4, 582048, Note_on_c, 2, 56, 0
4, 582240, Note_on_c, 2, 48, 105
4, 582240, Note_on_c, 2, 44, 105
4, 582528, Note_on_c, 2, 44, 0
4, 582528, Note_on_c, 2, 48, 0
4, 582720, Note_on_c, 2, 48, 105
4, 582720, Note_on_c, 2, 51, 105
4, 583008, Note_on_c, 2, 51, 0
4, 583008, Note_on_c, 2, 48, 0
4, 583200, Note_on_c, 2, 54, 105
4, 583200, Note_on_c, 2, 51, 105
4, 583488, Note_on_c, 2, 51, 0
4, 583488, Note_on_c, 2, 54, 0
4, 583680, Note_on_c, 2, 54, 105
4, 583680, Note_on_c, 2, 57, 105
4, 584640, Note_on_c, 2, 57, 0
4, 584640, Note_on_c, 2, 54, 0
4, 584640, Note_on_c, 2, 56, 105
4, 584640, Note_on_c, 2, 52, 105
4, 584928, Note_on_c, 2, 52, 0
4, 584928, Note_on_c, 2, 56, 0
4, 585120, Note_on_c, 2, 54, 105
4, 585120, Note_on_c, 2, 51, 105
4, 585408, Note_on_c, 2, 51, 0
4, 585408, Note_on_c, 2, 54, 0
4, 585600, Note_on_c, 2, 49, 92
4, 585600, Note_on_c, 2, 52, 92
4, 586368, Note_on_c, 2, 52, 0
4, 586368, Note_on_c, 2, 49, 0
4, 587520, Note_on_c, 2, 64, 92
4, 587520, Note_on_c, 2, 68, 92
4, 588480, Note_on_c, 2, 68, 0
4, 588480, Note_on_c, 2, 64, 0
4, 588480, Note_on_c, 2, 63, 105
4, 588480, Note_on_c, 2, 66, 105
4, 588768, Note_on_c, 2, 66, 0
4, 588768, Note_on_c, 2, 63, 0
4, 588960, Note_on_c, 2, 61, 105
4, 588960, Note_on_c, 2, 64, 105
4, 589248, Note_on_c, 2, 64, 0
4, 589248, Note_on_c, 2, 61, 0
4, 589440, Note_on_c, 2, 60, 105
4, 589440, Note_on_c, 2, 63, 105
4, 590016, Note_on_c, 2, 63, 0
4, 590016, Note_on_c, 2, 60, 0
4, 590400, Note_on_c, 2, 64, 105
4, 590400, Note_on_c, 2, 61, 105
4, 590976, Note_on_c, 2, 61, 0
4, 590976, Note_on_c, 2, 64, 0
4, 591360, Note_on_c, 2, 58, 105
4, 591360, Note_on_c, 2, 61, 105
4, 591936, Note_on_c, 2, 61, 0
4, 591936, Note_on_c, 2, 58, 0
4, 592320, Note_on_c, 2, 60, 105
4, 592320, Note_on_c, 2, 63, 105
4, 592896, Note_on_c, 2, 63, 0
4, 592896, Note_on_c, 2, 60, 0
4, 593280, Note_on_c, 2, 63, 105
4, 593280, Note_on_c, 2, 64, 105
4, 593664, Note_on_c, 2, 64, 0
4, 593664, Note_on_c, 2, 63, 0
4, 594240, Note_on_c, 2, 64, 105
4, 594240, Note_on_c, 2, 61, 105
4, 594624, Note_on_c, 2, 61, 0
4, 594624, Note_on_c, 2, 64, 0
4, 595200, Note_on_c, 2, 61, 105
4, 595200, Note_on_c, 2, 63, 105
4, 595584, Note_on_c, 2, 63, 0
4, 595584, Note_on_c, 2, 61, 0
4, 596160, Note_on_c, 2, 60, 105
4, 596160, Note_on_c, 2, 63, 105
4, 596544, Note_on_c, 2, 63, 0
4, 596544, Note_on_c, 2, 60, 0
4, 597120, Note_on_c, 2, 61, 105
4, 597504, Note_on_c, 2, 61, 0
4, 600480, Note_on_c, 2, 42, 80
4, 600960, Note_on_c, 2, 42, 0
4, 600960, Note_on_c, 2, 44, 80
4, 601272, Note_on_c, 2, 44, 0
4, 601440, Note_on_c, 2, 49, 80
4, 601752, Note_on_c, 2, 49, 0
4, 601920, Note_on_c, 2, 52, 80
4, 602232, Note_on_c, 2, 52, 0
4, 602400, Note_on_c, 2, 56, 80
4, 602712, Note_on_c, 2, 56, 0
4, 602880, Note_on_c, 2, 57, 80
4, 603840, Note_on_c, 2, 57, 0
4, 603840, Note_on_c, 2, 56, 70
4, 604128, Note_on_c, 2, 56, 0
4, 604320, Note_on_c, 2, 44, 125
4, 604800, Note_on_c, 2, 44, 0
4, 604800, Note_on_c, 2, 49, 105
4, 605088, Note_on_c, 2, 49, 0
4, 605280, Note_on_c, 2, 53, 105
4, 605568, Note_on_c, 2, 53, 0
4, 605760, Note_on_c, 2, 54, 105
4, 606048, Note_on_c, 2, 54, 0
4, 606240, Note_on_c, 2, 57, 105
4, 606528, Note_on_c, 2, 57, 0
4, 606720, Note_on_c, 2, 62, 105
4, 607680, Note_on_c, 2, 62, 0
4, 607680, Note_on_c, 2, 61, 105
4, 608064, Note_on_c, 2, 61, 0
4, 608640, Note_on_c, 2, 66, 105
4, 608640, Note_on_c, 2, 61, 105
4, 609024, Note_on_c, 2, 61, 0
4, 609024, Note_on_c, 2, 66, 0
4, 609600, Note_on_c, 2, 62, 105
4, 609600, Note_on_c, 2, 66, 105
4, 609984, Note_on_c, 2, 66, 0
4, 609984, Note_on_c, 2, 62, 0
4, 610560, Note_on_c, 2, 58, 105
4, 610560, Note_on_c, 2, 61, 105
4, 611328, Note_on_c, 2, 61, 0
4, 611328, Note_on_c, 2, 58, 0
4, 612000, Note_on_c, 2, 42, 105
4, 612480, Note_on_c, 2, 42, 0
4, 612480, Note_on_c, 2, 47, 105
4, 612768, Note_on_c, 2, 47, 0
4, 612960, Note_on_c, 2, 51, 105
4, 613248, Note_on_c, 2, 51, 0
4, 613440, Note_on_c, 2, 52, 105
4, 613728, Note_on_c, 2, 52, 0
4, 613920, Note_on_c, 2, 55, 105
4, 614208, Note_on_c, 2, 55, 0
4, 614400, Note_on_c, 2, 60, 105
4, 615360, Note_on_c, 2, 60, 0
4, 615360, Note_on_c, 2, 59, 105
4, 615744, Note_on_c, 2, 59, 0
4, 616320, Note_on_c, 2, 59, 105
4, 616320, Note_on_c, 2, 64, 105
4, 616704, Note_on_c, 2, 64, 0
4, 616704, Note_on_c, 2, 59, 0
4, 617280, Note_on_c, 2, 60, 105
4, 617280, Note_on_c, 2, 64, 105
4, 617664, Note_on_c, 2, 64, 0
4, 617664, Note_on_c, 2, 60, 0
4, 618240, Note_on_c, 2, 56, 105
4, 618240, Note_on_c, 2, 59, 105
4, 619008, Note_on_c, 2, 59, 0
4, 619008, Note_on_c, 2, 56, 0
4, 619680, Note_on_c, 2, 40, 105
4, 620160, Note_on_c, 2, 40, 0
4, 620160, Note_on_c, 2, 45, 105
4, 620448, Note_on_c, 2, 45, 0
4, 620640, Note_on_c, 2, 49, 105
4, 620928, Note_on_c, 2, 49, 0
4, 621120, Note_on_c, 2, 50, 105
4, 621408, Note_on_c, 2, 50, 0
4, 621600, Note_on_c, 2, 53, 105
4, 621888, Note_on_c, 2, 53, 0
4, 622080, Note_on_c, 2, 58, 105
4, 623040, Note_on_c, 2, 58, 0
4, 623040, Note_on_c, 2, 57, 105
4, 623424, Note_on_c, 2, 57, 0
4, 624000, Note_on_c, 2, 60, 105
4, 624000, Note_on_c, 2, 57, 105
4, 624384, Note_on_c, 2, 57, 0
4, 624384, Note_on_c, 2, 60, 0
4, 624960, Note_on_c, 2, 55, 105
4, 624960, Note_on_c, 2, 58, 105
4, 625344, Note_on_c, 2, 58, 0
4, 625344, Note_on_c, 2, 55, 0
4, 625920, Note_on_c, 2, 60, 112
4, 625920, Note_on_c, 2, 57, 92
4, 627456, Note_on_c, 2, 57, 0
4, 627456, Note_on_c, 2, 60, 0
4, 627840, Note_on_c, 2, 60, 112
4, 627840, Note_on_c, 2, 57, 92
4, 629280, Note_on_c, 2, 57, 0
4, 629280, Note_on_c, 2, 60, 0
4, 629280, Note_on_c, 2, 62, 105
4, 629280, Note_on_c, 2, 58, 105
4, 629664, Note_on_c, 2, 58, 0
4, 629664, Note_on_c, 2, 62, 0
4, 629760, Note_on_c, 2, 57, 105
4, 629760, Note_on_c, 2, 54, 105
4, 630048, Note_on_c, 2, 54, 0
4, 630048, Note_on_c, 2, 57, 0
4, 630240, Note_on_c, 2, 55, 105
4, 630240, Note_on_c, 2, 58, 105
4, 630528, Note_on_c, 2, 58, 0
4, 630528, Note_on_c, 2, 55, 0
4, 630720, Note_on_c, 2, 60, 105
4, 630720, Note_on_c, 2, 57, 105
4, 631008, Note_on_c, 2, 57, 0
4, 631008, Note_on_c, 2, 60, 0
4, 631200, Note_on_c, 2, 58, 105
4, 631200, Note_on_c, 2, 62, 105
4, 631488, Note_on_c, 2, 62, 0
4, 631488, Note_on_c, 2, 58, 0
4, 631680, Note_on_c, 2, 63, 105
4, 631680, Note_on_c, 2, 60, 105
4, 632064, Note_on_c, 2, 60, 0
4, 632064, Note_on_c, 2, 63, 0
4, 635520, Note_on_c, 2, 55, 70
4, 636288, Note_on_c, 2, 55, 0
4, 637440, Note_on_c, 2, 55, 70
4, 638208, Note_on_c, 2, 55, 0
4, 638880, Note_on_c, 2, 55, 105
4, 639168, Note_on_c, 2, 55, 0
4, 639360, Note_on_c, 2, 54, 105
4, 639648, Note_on_c, 2, 54, 0
4, 639840, Note_on_c, 2, 55, 105
4, 640128, Note_on_c, 2, 55, 0
4, 640320, Note_on_c, 2, 54, 105
4, 640608, Note_on_c, 2, 54, 0
4, 640800, Note_on_c, 2, 55, 105
4, 641088, Note_on_c, 2, 55, 0
4, 641280, Note_on_c, 2, 54, 105
4, 642048, Note_on_c, 2, 54, 0
4, 643200, Note_on_c, 2, 48, 70
4, 643968, Note_on_c, 2, 48, 0
4, 645120, Note_on_c, 2, 50, 70
4, 645888, Note_on_c, 2, 50, 0
4, 646560, Note_on_c, 2, 50, 105
4, 646848, Note_on_c, 2, 50, 0
4, 647040, Note_on_c, 2, 55, 105
4, 647328, Note_on_c, 2, 55, 0
4, 647520, Note_on_c, 2, 50, 105
4, 647808, Note_on_c, 2, 50, 0
4, 648000, Note_on_c, 2, 55, 105
4, 648288, Note_on_c, 2, 55, 0
4, 648480, Note_on_c, 2, 50, 105
4, 648768, Note_on_c, 2, 50, 0
4, 648960, Note_on_c, 2, 55, 105
4, 649728, Note_on_c, 2, 55, 0
4, 650400, Note_on_c, 2, 62, 105
4, 650400, Note_on_c, 2, 50, 105
4, 650688, Note_on_c, 2, 50, 0
4, 650688, Note_on_c, 2, 62, 0
4, 650880, Note_on_c, 2, 50, 105
4, 650880, Note_on_c, 2, 62, 105
4, 651648, Note_on_c, 2, 62, 0
4, 651648, Note_on_c, 2, 50, 0
4, 654240, Note_on_c, 2, 62, 105
4, 654240, Note_on_c, 2, 50, 105
4, 654528, Note_on_c, 2, 50, 0
4, 654528, Note_on_c, 2, 62, 0
4, 654720, Note_on_c, 2, 62, 105
4, 654720, Note_on_c, 2, 50, 105
4, 655488, Note_on_c, 2, 50, 0
4, 655488, Note_on_c, 2, 62, 0
4, 658560, Note_on_c, 2, 48, 70
4, 659328, Note_on_c, 2, 48, 0
4, 660480, Note_on_c, 2, 50, 70
4, 661248, Note_on_c, 2, 50, 0
4, 661920, Note_on_c, 2, 50, 105
4, 662208, Note_on_c, 2, 50, 0
4, 662400, Note_on_c, 2, 55, 105
4, 662688, Note_on_c, 2, 55, 0
4, 662880, Note_on_c, 2, 50, 105
4, 663168, Note_on_c, 2, 50, 0
4, 663360, Note_on_c, 2, 55, 105
4, 663648, Note_on_c, 2, 55, 0
4, 663840, Note_on_c, 2, 50, 105
4, 664128, Note_on_c, 2, 50, 0
4, 664320, Note_on_c, 2, 55, 105
4, 665088, Note_on_c, 2, 55, 0
4, 666240, Note_on_c, 2, 51, 105
4, 666528, Note_on_c, 2, 51, 0
4, 666720, Note_on_c, 2, 53, 105
4, 667008, Note_on_c, 2, 53, 0
4, 667200, Note_on_c, 2, 51, 105
4, 667488, Note_on_c, 2, 51, 0
4, 667680, Note_on_c, 2, 53, 105
4, 667968, Note_on_c, 2, 53, 0
4, 668160, Note_on_c, 2, 51, 105
4, 668928, Note_on_c, 2, 51, 0
4, 670080, Note_on_c, 2, 50, 105
4, 670368, Note_on_c, 2, 50, 0
4, 670560, Note_on_c, 2, 51, 105
4, 670848, Note_on_c, 2, 51, 0
4, 671040, Note_on_c, 2, 50, 105
4, 671328, Note_on_c, 2, 50, 0
4, 671520, Note_on_c, 2, 51, 105
4, 671808, Note_on_c, 2, 51, 0
4, 672000, Note_on_c, 2, 50, 105
4, 672768, Note_on_c, 2, 50, 0
4, 673920, Note_on_c, 2, 43, 105
4, 674208, Note_on_c, 2, 43, 0
4, 674400, Note_on_c, 2, 42, 105
4, 674688, Note_on_c, 2, 42, 0
4, 674880, Note_on_c, 2, 43, 105
4, 675168, Note_on_c, 2, 43, 0
4, 675360, Note_on_c, 2, 42, 105
4, 675648, Note_on_c, 2, 42, 0
4, 675840, Note_on_c, 2, 43, 105
4, 676608, Note_on_c, 2, 43, 0
4, 677760, Note_on_c, 2, 63, 105
4, 677760, Note_on_c, 2, 60, 105
4, 678048, Note_on_c, 2, 60, 0
4, 678048, Note_on_c, 2, 63, 0
4, 678240, Note_on_c, 2, 65, 105
4, 678240, Note_on_c, 2, 62, 105
4, 678528, Note_on_c, 2, 62, 0
4, 678528, Note_on_c, 2, 65, 0
4, 678720, Note_on_c, 2, 60, 105
4, 678720, Note_on_c, 2, 63, 105
4, 679008, Note_on_c, 2, 63, 0
4, 679008, Note_on_c, 2, 60, 0
4, 679200, Note_on_c, 2, 65, 105
4, 679200, Note_on_c, 2, 62, 105
4, 679488, Note_on_c, 2, 62, 0
4, 679488, Note_on_c, 2, 65, 0
4, 679680, Note_on_c, 2, 63, 105
4, 679680, Note_on_c, 2, 60, 105
4, 680448, Note_on_c, 2, 60, 0
4, 680448, Note_on_c, 2, 63, 0
4, 681600, Note_on_c, 2, 60, 105
4, 681888, Note_on_c, 2, 60, 0
4, 682080, Note_on_c, 2, 62, 105
4, 682368, Note_on_c, 2, 62, 0
4, 682560, Note_on_c, 2, 60, 105
4, 682848, Note_on_c, 2, 60, 0
4, 683040, Note_on_c, 2, 62, 105
4, 683328, Note_on_c, 2, 62, 0
4, 683520, Note_on_c, 2, 60, 105
4, 684288, Note_on_c, 2, 60, 0
4, 685440, Note_on_c, 2, 57, 105
4, 685728, Note_on_c, 2, 57, 0
4, 685920, Note_on_c, 2, 58, 105
4, 686208, Note_on_c, 2, 58, 0
4, 686400, Note_on_c, 2, 57, 105
4, 686688, Note_on_c, 2, 57, 0
4, 686880, Note_on_c, 2, 58, 105
4, 687168, Note_on_c, 2, 58, 0
4, 687360, Note_on_c, 2, 57, 105
4, 688128, Note_on_c, 2, 57, 0
4, 689280, Note_on_c, 2, 55, 105
4, 689568, Note_on_c, 2, 55, 0
4, 689760, Note_on_c, 2, 54, 105
4, 690048, Note_on_c, 2, 54, 0
4, 690240, Note_on_c, 2, 55, 105
4, 690528, Note_on_c, 2, 55, 0
4, 690720, Note_on_c, 2, 54, 105
4, 691008, Note_on_c, 2, 54, 0
4, 691200, Note_on_c, 2, 55, 105
4, 691968, Note_on_c, 2, 55, 0
4, 692640, Note_on_c, 2, 62, 105
4, 692928, Note_on_c, 2, 62, 0
4, 693120, Note_on_c, 2, 63, 105
4, 693408, Note_on_c, 2, 63, 0
4, 693600, Note_on_c, 2, 62, 105
4, 693888, Note_on_c, 2, 62, 0
4, 694080, Note_on_c, 2, 63, 105
4, 694368, Note_on_c, 2, 63, 0
4, 694560, Note_on_c, 2, 62, 105
4, 694848, Note_on_c, 2, 62, 0
4, 695040, Note_on_c, 2, 63, 105
4, 695808, Note_on_c, 2, 63, 0
4, 696480, Note_on_c, 2, 59, 105
4, 696768, Note_on_c, 2, 59, 0
4, 696960, Note_on_c, 2, 60, 105
4, 697728, Note_on_c, 2, 60, 0
4, 698400, Note_on_c, 2, 55, 105
4, 698688, Note_on_c, 2, 55, 0
4, 698880, Note_on_c, 2, 51, 105
4, 699648, Note_on_c, 2, 51, 0
4, 700320, Note_on_c, 2, 49, 105
4, 700704, Note_on_c, 2, 49, 0
4, 700800, Note_on_c, 2, 50, 105
4, 701184, Note_on_c, 2, 50, 0
4, 701280, Note_on_c, 2, 50, 105
4, 701280, Note_on_c, 2, 62, 105
4, 701664, Note_on_c, 2, 62, 0
4, 701664, Note_on_c, 2, 50, 0
4, 701760, Note_on_c, 2, 50, 105
4, 701760, Note_on_c, 2, 62, 105
4, 702144, Note_on_c, 2, 62, 0
4, 702144, Note_on_c, 2, 50, 0
4, 702240, Note_on_c, 2, 62, 105
4, 702240, Note_on_c, 2, 50, 105
4, 702624, Note_on_c, 2, 50, 0
4, 702624, Note_on_c, 2, 62, 0
4, 702720, Note_on_c, 2, 62, 105
4, 702720, Note_on_c, 2, 50, 105
4, 703104, Note_on_c, 2, 50, 0
4, 703104, Note_on_c, 2, 62, 0
4, 703200, Note_on_c, 2, 50, 105
4, 703200, Note_on_c, 2, 62, 105
4, 703584, Note_on_c, 2, 62, 0
4, 703584, Note_on_c, 2, 50, 0
4, 703680, Note_on_c, 2, 50, 105
4, 703680, Note_on_c, 2, 62, 105
4, 704064, Note_on_c, 2, 62, 0
4, 704064, Note_on_c, 2, 50, 0
4, 704160, Note_on_c, 2, 62, 105
4, 704160, Note_on_c, 2, 50, 105
4, 704544, Note_on_c, 2, 50, 0
4, 704544, Note_on_c, 2, 62, 0
4, 704640, Note_on_c, 2, 50, 105
4, 704640, Note_on_c, 2, 62, 105
4, 705024, Note_on_c, 2, 62, 0
4, 705024, Note_on_c, 2, 50, 0
4, 705120, Note_on_c, 2, 38, 105
4, 705120, Note_on_c, 2, 50, 105
4, 705504, Note_on_c, 2, 50, 0
4, 705504, Note_on_c, 2, 38, 0
4, 705600, Note_on_c, 2, 38, 105
4, 705600, Note_on_c, 2, 50, 105
4, 705984, Note_on_c, 2, 50, 0
4, 705984, Note_on_c, 2, 38, 0
4, 706080, Note_on_c, 2, 50, 105
4, 706080, Note_on_c, 2, 38, 105
4, 706464, Note_on_c, 2, 38, 0
4, 706464, Note_on_c, 2, 50, 0
4, 706560, Note_on_c, 2, 38, 105
4, 706560, Note_on_c, 2, 50, 105
4, 706944, Note_on_c, 2, 50, 0
4, 706944, Note_on_c, 2, 38, 0
4, 707040, Note_on_c, 2, 38, 105
4, 707040, Note_on_c, 2, 50, 105
4, 707424, Note_on_c, 2, 50, 0
4, 707424, Note_on_c, 2, 38, 0
4, 707520, Note_on_c, 2, 38, 105
4, 707520, Note_on_c, 2, 50, 105
4, 707904, Note_on_c, 2, 50, 0
4, 707904, Note_on_c, 2, 38, 0
4, 708000, Note_on_c, 2, 38, 105
4, 708000, Note_on_c, 2, 50, 105
4, 708384, Note_on_c, 2, 50, 0
4, 708384, Note_on_c, 2, 38, 0
4, 708480, Note_on_c, 2, 38, 105
4, 708480, Note_on_c, 2, 50, 105
4, 708864, Note_on_c, 2, 50, 0
4, 708864, Note_on_c, 2, 38, 0
4, 709440, Note_on_c, 2, 62, 105
4, 709440, Note_on_c, 2, 50, 105
4, 709824, Note_on_c, 2, 50, 0
4, 709824, Note_on_c, 2, 62, 0
4, 710400, Note_on_c, 2, 38, 105
4, 710400, Note_on_c, 2, 50, 105
4, 711168, Note_on_c, 2, 50, 0
4, 711168, Note_on_c, 2, 38, 0
4, 741600, Note_on_c, 2, 65, 70
4, 742080, Note_on_c, 2, 65, 0
4, 742080, Note_on_c, 2, 64, 70
4, 742560, Note_on_c, 2, 64, 0
4, 742560, Note_on_c, 2, 57, 70
4, 742560, Note_on_c, 2, 63, 70
4, 743040, Note_on_c, 2, 63, 0
4, 743040, Note_on_c, 2, 57, 0
4, 743040, Note_on_c, 2, 58, 70
4, 743040, Note_on_c, 2, 62, 70
4, 743808, Note_on_c, 2, 62, 0
4, 743808, Note_on_c, 2, 58, 0
4, 744000, Note_on_c, 2, 55, 70
4, 744000, Note_on_c, 2, 67, 70
4, 744960, Note_on_c, 2, 67, 0
4, 744960, Note_on_c, 2, 55, 0
4, 744960, Note_on_c, 2, 57, 70
4, 744960, Note_on_c, 2, 66, 70
4, 745920, Note_on_c, 2, 66, 0
4, 745920, Note_on_c, 2, 57, 0
4, 745920, Note_on_c, 2, 65, 70
4, 745920, Note_on_c, 2, 59, 70
4, 746880, Note_on_c, 2, 59, 0
4, 746880, Note_on_c, 2, 65, 0
4, 746880, Note_on_c, 2, 64, 70
4, 746880, Note_on_c, 2, 60, 70
4, 747840, Note_on_c, 2, 60, 0
4, 747840, Note_on_c, 2, 64, 0
4, 747840, Note_on_c, 2, 55, 70
4, 747840, Note_on_c, 2, 63, 70
4, 748800, Note_on_c, 2, 55, 0
4, 748800, Note_on_c, 2, 57, 70
4, 749760, Note_on_c, 2, 57, 0
4, 749760, Note_on_c, 2, 63, 0
4, 749760, Note_on_c, 2, 58, 70
4, 749760, Note_on_c, 2, 62, 70
4, 750720, Note_on_c, 2, 62, 0
4, 750720, Note_on_c, 2, 58, 0
4, 750720, Note_on_c, 2, 60, 70
4, 750720, Note_on_c, 2, 63, 70
4, 751104, Note_on_c, 2, 63, 0
4, 751104, Note_on_c, 2, 60, 0
4, 751200, Note_on_c, 2, 44, 70
4, 751680, Note_on_c, 2, 44, 0
4, 751680, Note_on_c, 2, 48, 70
4, 752160, Note_on_c, 2, 48, 0
4, 752160, Note_on_c, 2, 51, 70
4, 752640, Note_on_c, 2, 51, 0
4, 752640, Note_on_c, 2, 56, 70
4, 753120, Note_on_c, 2, 56, 0
4, 753120, Note_on_c, 2, 60, 70
4, 753600, Note_on_c, 2, 60, 0
4, 753600, Note_on_c, 2, 63, 70
4, 753912, Note_on_c, 2, 63, 0
4, 754080, Note_on_c, 2, 63, 70
4, 754392, Note_on_c, 2, 63, 0
4, 754560, Note_on_c, 2, 58, 70
4, 754560, Note_on_c, 2, 55, 70
4, 756480, Note_on_c, 2, 55, 0
4, 756480, Note_on_c, 2, 58, 0
4, 756480, Note_on_c, 2, 54, 70
4, 756480, Note_on_c, 2, 57, 70
4, 756864, Note_on_c, 2, 57, 0
4, 756864, Note_on_c, 2, 54, 0
4, 756960, Note_on_c, 2, 61, 70
4, 757440, Note_on_c, 2, 61, 0
4, 757440, Note_on_c, 2, 62, 70
4, 757920, Note_on_c, 2, 62, 0
4, 757920, Note_on_c, 2, 61, 70
4, 758304, Note_on_c, 2, 61, 0
4, 758400, Note_on_c, 2, 62, 70
4, 760224, Note_on_c, 2, 62, 0
4, 760320, Note_on_c, 2, 61, 70
4, 760440, Note_on_c, 2, 61, 0
4, 760440, Note_on_c, 2, 62, 70
4, 761112, Note_on_c, 2, 62, 0
4, 761280, Note_on_c, 2, 61, 70
4, 761400, Note_on_c, 2, 61, 0
4, 761400, Note_on_c, 2, 62, 70
4, 762072, Note_on_c, 2, 62, 0
4, 762240, Note_on_c, 2, 62, 70
4, 762720, Note_on_c, 2, 62, 0
4, 762720, Note_on_c, 2, 61, 70
4, 763200, Note_on_c, 2, 61, 0
4, 763200, Note_on_c, 2, 62, 70
4, 763680, Note_on_c, 2, 62, 0
4, 763680, Note_on_c, 2, 61, 70
4, 764160, Note_on_c, 2, 61, 0
4, 764160, Note_on_c, 2, 60, 70
4, 764640, Note_on_c, 2, 60, 0
4, 764640, Note_on_c, 2, 59, 70
4, 765120, Note_on_c, 2, 59, 0
4, 765120, Note_on_c, 2, 60, 70
4, 765600, Note_on_c, 2, 60, 0
4, 765600, Note_on_c, 2, 58, 70
4, 765984, Note_on_c, 2, 58, 0
4, 766080, Note_on_c, 2, 57, 70
4, 767520, Note_on_c, 2, 57, 0
4, 767520, Note_on_c, 2, 60, 70
4, 767760, Note_on_c, 2, 60, 0
4, 767760, Note_on_c, 2, 63, 70
4, 767952, Note_on_c, 2, 63, 0
4, 768000, Note_on_c, 2, 55, 70
4, 768000, Note_on_c, 2, 46, 70
4, 768720, Note_on_c, 2, 46, 0
4, 768720, Note_on_c, 2, 55, 0
4, 768960, Note_on_c, 2, 45, 70
4, 768960, Note_on_c, 2, 54, 70
4, 769680, Note_on_c, 2, 54, 0
4, 769680, Note_on_c, 2, 45, 0
4, 769920, Note_on_c, 2, 55, 80
4, 769920, Note_on_c, 2, 43, 80
4, 770688, Note_on_c, 2, 43, 0
4, 770688, Note_on_c, 2, 55, 0
4, 771840, Note_on_c, 2, 58, 105
4, 771840, Note_on_c, 2, 67, 105
4, 772128, Note_on_c, 2, 67, 0
4, 772128, Note_on_c, 2, 58, 0
4, 772320, Note_on_c, 2, 66, 105
4, 772320, Note_on_c, 2, 57, 105
4, 772608, Note_on_c, 2, 57, 0
4, 772608, Note_on_c, 2, 66, 0
4, 772800, Note_on_c, 2, 58, 105
4, 772800, Note_on_c, 2, 67, 105
4, 773088, Note_on_c, 2, 67, 0
4, 773088, Note_on_c, 2, 58, 0
4, 773280, Note_on_c, 2, 57, 105
4, 773280, Note_on_c, 2, 66, 105
4, 773568, Note_on_c, 2, 66, 0
4, 773568, Note_on_c, 2, 57, 0
4, 773760, Note_on_c, 2, 58, 105
4, 773760, Note_on_c, 2, 67, 105
4, 774528, Note_on_c, 2, 67, 0
4, 774528, Note_on_c, 2, 58, 0
4, 775680, Note_on_c, 2, 58, 105
4, 775680, Note_on_c, 2, 67, 105
4, 775968, Note_on_c, 2, 67, 0
4, 775968, Note_on_c, 2, 58, 0
4, 776160, Note_on_c, 2, 57, 105
4, 776160, Note_on_c, 2, 66, 105
4, 776448, Note_on_c, 2, 66, 0
4, 776448, Note_on_c, 2, 57, 0
4, 776640, Note_on_c, 2, 67, 105
4, 776640, Note_on_c, 2, 58, 105
4, 776928, Note_on_c, 2, 58, 0
4, 776928, Note_on_c, 2, 67, 0
4, 777120, Note_on_c, 2, 57, 105
4, 777120, Note_on_c, 2, 66, 105
4, 777408, Note_on_c, 2, 66, 0
4, 777408, Note_on_c, 2, 57, 0
4, 777600, Note_on_c, 2, 58, 105
4, 777600, Note_on_c, 2, 67, 105
4, 778368, Note_on_c, 2, 67, 0
4, 778368, Note_on_c, 2, 58, 0
4, 779520, Note_on_c, 2, 58, 105
4, 779520, Note_on_c, 2, 67, 105
4, 779808, Note_on_c, 2, 67, 0
4, 779808, Note_on_c, 2, 58, 0
4, 780000, Note_on_c, 2, 66, 105
4, 780000, Note_on_c, 2, 57, 105
4, 780288, Note_on_c, 2, 57, 0
4, 780288, Note_on_c, 2, 66, 0
4, 780480, Note_on_c, 2, 58, 105
4, 780480, Note_on_c, 2, 67, 105
4, 780768, Note_on_c, 2, 67, 0
4, 780768, Note_on_c, 2, 58, 0
4, 780960, Note_on_c, 2, 57, 105
4, 780960, Note_on_c, 2, 66, 105
4, 781248, Note_on_c, 2, 66, 0
4, 781248, Note_on_c, 2, 57, 0
4, 781440, Note_on_c, 2, 67, 105
4, 781440, Note_on_c, 2, 62, 105
4, 782208, Note_on_c, 2, 62, 0
4, 782208, Note_on_c, 2, 67, 0
4, 782400, Note_on_c, 2, 60, 105
4, 782400, Note_on_c, 2, 63, 105
4, 783168, Note_on_c, 2, 63, 0
4, 783168, Note_on_c, 2, 60, 0
4, 783360, Note_on_c, 2, 55, 105
4, 783360, Note_on_c, 2, 58, 105
4, 784128, Note_on_c, 2, 58, 0
4, 784128, Note_on_c, 2, 55, 0
4, 784320, Note_on_c, 2, 57, 105
4, 784320, Note_on_c, 2, 54, 105
4, 785088, Note_on_c, 2, 54, 0
4, 785088, Note_on_c, 2, 57, 0
4, 785280, Note_on_c, 2, 55, 92
4, 785664, Note_on_c, 2, 55, 0
4, 794880, Note_on_c, 2, 58, 105
4, 794880, Note_on_c, 2, 67, 105
4, 795216, Note_on_c, 2, 67, 0
4, 795216, Note_on_c, 2, 58, 0
4, 795360, Note_on_c, 2, 66, 105
4, 795360, Note_on_c, 2, 57, 105
4, 795696, Note_on_c, 2, 57, 0
4, 795696, Note_on_c, 2, 66, 0
4, 795840, Note_on_c, 2, 67, 105
4, 795840, Note_on_c, 2, 58, 105
4, 796176, Note_on_c, 2, 58, 0
4, 796176, Note_on_c, 2, 67, 0
4, 796320, Note_on_c, 2, 66, 105
4, 796320, Note_on_c, 2, 57, 105
4, 796656, Note_on_c, 2, 57, 0
4, 796656, Note_on_c, 2, 66, 0
4, 796800, Note_on_c, 2, 67, 105
4, 796800, Note_on_c, 2, 58, 105
4, 797136, Note_on_c, 2, 58, 0
4, 797136, Note_on_c, 2, 67, 0
4, 797280, Note_on_c, 2, 66, 105
4, 797280, Note_on_c, 2, 57, 105
4, 797616, Note_on_c, 2, 57, 0
4, 797616, Note_on_c, 2, 66, 0
4, 797760, Note_on_c, 2, 67, 105
4, 797760, Note_on_c, 2, 58, 105
4, 798096, Note_on_c, 2, 58, 0
4, 798096, Note_on_c, 2, 67, 0
4, 798240, Note_on_c, 2, 57, 105
4, 798240, Note_on_c, 2, 66, 105
4, 798576, Note_on_c, 2, 66, 0
4, 798576, Note_on_c, 2, 57, 0
4, 798720, Note_on_c, 2, 67, 105
4, 798720, Note_on_c, 2, 58, 105
4, 799056, Note_on_c, 2, 58, 0
4, 799056, Note_on_c, 2, 67, 0
4, 799200, Note_on_c, 2, 66, 105
4, 799200, Note_on_c, 2, 57, 105
4, 799536, Note_on_c, 2, 57, 0
4, 799536, Note_on_c, 2, 66, 0
4, 799680, Note_on_c, 2, 67, 105
4, 799680, Note_on_c, 2, 58, 105
4, 800016, Note_on_c, 2, 58, 0
4, 800016, Note_on_c, 2, 67, 0
4, 800160, Note_on_c, 2, 57, 105
4, 800160, Note_on_c, 2, 66, 105
4, 800496, Note_on_c, 2, 66, 0
4, 800496, Note_on_c, 2, 57, 0
4, 800640, Note_on_c, 2, 67, 105
4, 800640, Note_on_c, 2, 62, 105
4, 802464, Note_on_c, 2, 62, 0
4, 802464, Note_on_c, 2, 67, 0
4, 802560, Note_on_c, 2, 51, 116
4, 802560, Note_on_c, 2, 48, 116
4, 802728, Note_on_c, 2, 48, 0
4, 802728, Note_on_c, 2, 51, 0
4, 802800, Note_on_c, 2, 53, 116
4, 802800, Note_on_c, 2, 50, 116
4, 802968, Note_on_c, 2, 50, 0
4, 802968, Note_on_c, 2, 53, 0
4, 803040, Note_on_c, 2, 55, 116
4, 803040, Note_on_c, 2, 51, 116
4, 803208, Note_on_c, 2, 51, 0
4, 803208, Note_on_c, 2, 55, 0
4, 803280, Note_on_c, 2, 57, 116
4, 803280, Note_on_c, 2, 53, 116
4, 803448, Note_on_c, 2, 53, 0
4, 803448, Note_on_c, 2, 57, 0
4, 803520, Note_on_c, 2, 59, 116
4, 803520, Note_on_c, 2, 55, 116
4, 803688, Note_on_c, 2, 55, 0
4, 803688, Note_on_c, 2, 59, 0
4, 803760, Note_on_c, 2, 57, 116
4, 803760, Note_on_c, 2, 60, 116
4, 803928, Note_on_c, 2, 60, 0
4, 803928, Note_on_c, 2, 57, 0
4, 804000, Note_on_c, 2, 59, 116
4, 804000, Note_on_c, 2, 62, 116
4, 804168, Note_on_c, 2, 62, 0
4, 804168, Note_on_c, 2, 59, 0
4, 804240, Note_on_c, 2, 63, 116
4, 804240, Note_on_c, 2, 60, 116
4, 804408, Note_on_c, 2, 60, 0
4, 804408, Note_on_c, 2, 63, 0
4, 804480, Note_on_c, 2, 54, 116
4, 805248, Note_on_c, 2, 54, 0
4, 805440, Note_on_c, 2, 55, 116
4, 806208, Note_on_c, 2, 55, 0
4, 806400, Note_on_c, 2, 57, 116
4, 806400, Note_on_c, 2, 60, 116
4, 807168, Note_on_c, 2, 60, 0
4, 807168, Note_on_c, 2, 57, 0
4, 807360, Note_on_c, 2, 54, 116
4, 807360, Note_on_c, 2, 57, 116
4, 808128, Note_on_c, 2, 57, 0
4, 808128, Note_on_c, 2, 54, 0
4, 808320, Note_on_c, 2, 62, 116
4, 808320, Note_on_c, 2, 67, 116
4, 810144, Note_on_c, 2, 67, 0
4, 810144, Note_on_c, 2, 62, 0
4, 810240, Note_on_c, 2, 48, 116
4, 810240, Note_on_c, 2, 51, 116
4, 810408, Note_on_c, 2, 51, 0
4, 810408, Note_on_c, 2, 48, 0
4, 810480, Note_on_c, 2, 50, 116
4, 810480, Note_on_c, 2, 53, 116
4, 810648, Note_on_c, 2, 53, 0
4, 810648, Note_on_c, 2, 50, 0
4, 810720, Note_on_c, 2, 55, 116
4, 810720, Note_on_c, 2, 51, 116
4, 810888, Note_on_c, 2, 51, 0
4, 810888, Note_on_c, 2, 55, 0
4, 810960, Note_on_c, 2, 53, 116
4, 810960, Note_on_c, 2, 57, 116
4, 811128, Note_on_c, 2, 57, 0
4, 811128, Note_on_c, 2, 53, 0
4, 811200, Note_on_c, 2, 59, 116
4, 811200, Note_on_c, 2, 55, 116
4, 811368, Note_on_c, 2, 55, 0
4, 811368, Note_on_c, 2, 59, 0
4, 811440, Note_on_c, 2, 57, 116
4, 811440, Note_on_c, 2, 60, 116
4, 811608, Note_on_c, 2, 60, 0
4, 811608, Note_on_c, 2, 57, 0
4, 811680, Note_on_c, 2, 59, 116
4, 811680, Note_on_c, 2, 62, 116
4, 811848, Note_on_c, 2, 62, 0
4, 811848, Note_on_c, 2, 59, 0
4, 811920, Note_on_c, 2, 63, 116
4, 811920, Note_on_c, 2, 60, 116
4, 812088, Note_on_c, 2, 60, 0
4, 812088, Note_on_c, 2, 63, 0
4, 812160, Note_on_c, 2, 54, 116
4, 812928, Note_on_c, 2, 54, 0
4, 813120, Note_on_c, 2, 55, 116
4, 813888, Note_on_c, 2, 55, 0
4, 814080, Note_on_c, 2, 57, 116
4, 814080, Note_on_c, 2, 60, 116
4, 814848, Note_on_c, 2, 60, 0
4, 814848, Note_on_c, 2, 57, 0
4, 815040, Note_on_c, 2, 57, 116
4, 815040, Note_on_c, 2, 54, 116
4, 815808, Note_on_c, 2, 54, 0
4, 815808, Note_on_c, 2, 57, 0
4, 816000, Note_on_c, 2, 55, 116
4, 816768, Note_on_c, 2, 55, 0
4, 817440, Note_on_c, 2, 58, 116
4, 817440, Note_on_c, 2, 55, 116
4, 817776, Note_on_c, 2, 55, 0
4, 817776, Note_on_c, 2, 58, 0
4, 817920, Note_on_c, 2, 54, 116
4, 817920, Note_on_c, 2, 57, 116
4, 818256, Note_on_c, 2, 57, 0
4, 818256, Note_on_c, 2, 54, 0
4, 818400, Note_on_c, 2, 54, 116
4, 818400, Note_on_c, 2, 50, 116
4, 818736, Note_on_c, 2, 50, 0
4, 818736, Note_on_c, 2, 54, 0
4, 818880, Note_on_c, 2, 62, 116
4, 818880, Note_on_c, 2, 54, 116
4, 819216, Note_on_c, 2, 54, 0
4, 819216, Note_on_c, 2, 62, 0
4, 819360, Note_on_c, 2, 62, 116
4, 819360, Note_on_c, 2, 54, 116
4, 819696, Note_on_c, 2, 54, 0
4, 819696, Note_on_c, 2, 62, 0
4, 819840, Note_on_c, 2, 55, 116
4, 819840, Note_on_c, 2, 58, 116
4, 820992, Note_on_c, 2, 58, 0
4, 820992, Note_on_c, 2, 55, 0
4, 821280, Note_on_c, 2, 55, 116
4, 821280, Note_on_c, 2, 58, 116
4, 821616, Note_on_c, 2, 58, 0
4, 821616, Note_on_c, 2, 55, 0
4, 821760, Note_on_c, 2, 54, 116
4, 821760, Note_on_c, 2, 57, 116
4, 822096, Note_on_c, 2, 57, 0
4, 822096, Note_on_c, 2, 54, 0
4, 822240, Note_on_c, 2, 50, 116
4, 822240, Note_on_c, 2, 54, 116
4, 822576, Note_on_c, 2, 54, 0
4, 822576, Note_on_c, 2, 50, 0
4, 822720, Note_on_c, 2, 62, 116
4, 822720, Note_on_c, 2, 54, 116
4, 823056, Note_on_c, 2, 54, 0
4, 823056, Note_on_c, 2, 62, 0
4, 823200, Note_on_c, 2, 62, 116
4, 823200, Note_on_c, 2, 54, 116
4, 823536, Note_on_c, 2, 54, 0
4, 823536, Note_on_c, 2, 62, 0
4, 823680, Note_on_c, 2, 55, 116
4, 823680, Note_on_c, 2, 58, 116
4, 824832, Note_on_c, 2, 58, 0
4, 824832, Note_on_c, 2, 55, 0
4, 825120, Note_on_c, 2, 55, 116
4, 825120, Note_on_c, 2, 58, 116
4, 825456, Note_on_c, 2, 58, 0
4, 825456, Note_on_c, 2, 55, 0
4, 825600, Note_on_c, 2, 54, 116
4, 825600, Note_on_c, 2, 57, 116
4, 825936, Note_on_c, 2, 57, 0
4, 825936, Note_on_c, 2, 54, 0
4, 826080, Note_on_c, 2, 54, 116
4, 826080, Note_on_c, 2, 50, 116
4, 826416, Note_on_c, 2, 50, 0
4, 826416, Note_on_c, 2, 54, 0
4, 826560, Note_on_c, 2, 62, 116
4, 826560, Note_on_c, 2, 54, 116
4, 826896, Note_on_c, 2, 54, 0
4, 826896, Note_on_c, 2, 62, 0
4, 827040, Note_on_c, 2, 54, 116
4, 827040, Note_on_c, 2, 62, 116
4, 827376, Note_on_c, 2, 62, 0
4, 827376, Note_on_c, 2, 54, 0
4, 827520, Note_on_c, 2, 55, 116
4, 827904, Note_on_c, 2, 55, 0
4, 828480, Note_on_c, 2, 55, 116
4, 828864, Note_on_c, 2, 55, 0
4, 829440, Note_on_c, 2, 43, 116
4, 830400, Note_on_c, 2, 43, 0
4, 830400, End_track
5, 0, Start_track
5, 0, Sequencer_specific, 04, 43, 00, 01, 00
5, 0, Program_c, 3, 60
5, 0, Control_c, 3, 7, 119
5, 0, Control_c, 3, 10, 36
5, 0, Control_c, 3, 91, 80
5, 5280, Note_on_c, 3, 69, 80
5, 5568, Note_on_c, 3, 69, 0
5, 5760, Note_on_c, 3, 62, 105
5, 5760, Note_on_c, 3, 69, 105
5, 6048, Note_on_c, 3, 69, 0
5, 6048, Note_on_c, 3, 62, 0
5, 6240, Note_on_c, 3, 69, 105
5, 6528, Note_on_c, 3, 69, 0
5, 6720, Note_on_c, 3, 69, 105
5, 6720, Note_on_c, 3, 62, 105
5, 7008, Note_on_c, 3, 62, 0
5, 7008, Note_on_c, 3, 69, 0
5, 7200, Note_on_c, 3, 69, 105
5, 7488, Note_on_c, 3, 69, 0
5, 7680, Note_on_c, 3, 69, 105
5, 7680, Note_on_c, 3, 62, 105
5, 8448, Note_on_c, 3, 62, 0
5, 8448, Note_on_c, 3, 69, 0
5, 12960, Note_on_c, 3, 62, 105
5, 12960, Note_on_c, 3, 72, 105
5, 13248, Note_on_c, 3, 72, 0
5, 13248, Note_on_c, 3, 62, 0
5, 13440, Note_on_c, 3, 62, 105
5, 13440, Note_on_c, 3, 70, 105
5, 13728, Note_on_c, 3, 70, 0
5, 13728, Note_on_c, 3, 62, 0
5, 13920, Note_on_c, 3, 72, 105
5, 13920, Note_on_c, 3, 62, 105
5, 14208, Note_on_c, 3, 62, 0
5, 14208, Note_on_c, 3, 72, 0
5, 14400, Note_on_c, 3, 62, 105
5, 14400, Note_on_c, 3, 70, 105
5, 14688, Note_on_c, 3, 70, 0
5, 14688, Note_on_c, 3, 62, 0
5, 14880, Note_on_c, 3, 62, 105
5, 14880, Note_on_c, 3, 72, 105
5, 15168, Note_on_c, 3, 72, 0
5, 15168, Note_on_c, 3, 62, 0
5, 15360, Note_on_c, 3, 70, 105
5, 15360, Note_on_c, 3, 62, 105
5, 16128, Note_on_c, 3, 62, 0
5, 16128, Note_on_c, 3, 70, 0
5, 20640, Note_on_c, 3, 69, 105
5, 20928, Note_on_c, 3, 69, 0
5, 21120, Note_on_c, 3, 69, 105
5, 21120, Note_on_c, 3, 62, 105
5, 21408, Note_on_c, 3, 62, 0
5, 21408, Note_on_c, 3, 69, 0
5, 21600, Note_on_c, 3, 69, 105
5, 21888, Note_on_c, 3, 69, 0
5, 22080, Note_on_c, 3, 69, 105
5, 22080, Note_on_c, 3, 62, 105
5, 22368, Note_on_c, 3, 62, 0
5, 22368, Note_on_c, 3, 69, 0
5, 22560, Note_on_c, 3, 69, 105
5, 22848, Note_on_c, 3, 69, 0
5, 23040, Note_on_c, 3, 69, 105
5, 23040, Note_on_c, 3, 62, 105
5, 23808, Note_on_c, 3, 62, 0
5, 23808, Note_on_c, 3, 69, 0
5, 28320, Note_on_c, 3, 62, 105
5, 28320, Note_on_c, 3, 72, 105
5, 28608, Note_on_c, 3, 72, 0
5, 28608, Note_on_c, 3, 62, 0
5, 28800, Note_on_c, 3, 62, 105
5, 28800, Note_on_c, 3, 70, 105
5, 29088, Note_on_c, 3, 70, 0
5, 29088, Note_on_c, 3, 62, 0
5, 29280, Note_on_c, 3, 72, 105
5, 29280, Note_on_c, 3, 62, 105
5, 29568, Note_on_c, 3, 62, 0
5, 29568, Note_on_c, 3, 72, 0
5, 29760, Note_on_c, 3, 62, 105
5, 29760, Note_on_c, 3, 70, 105
5, 30048, Note_on_c, 3, 70, 0
5, 30048, Note_on_c, 3, 62, 0
5, 30240, Note_on_c, 3, 62, 105
5, 30240, Note_on_c, 3, 72, 105
5, 30528, Note_on_c, 3, 72, 0
5, 30528, Note_on_c, 3, 62, 0
5, 30720, Note_on_c, 3, 62, 105
5, 30720, Note_on_c, 3, 70, 105
5, 31488, Note_on_c, 3, 70, 0
5, 31488, Note_on_c, 3, 62, 0
5, 32160, Note_on_c, 3, 50, 105
5, 32160, Note_on_c, 3, 62, 105
5, 32448, Note_on_c, 3, 62, 0
5, 32448, Note_on_c, 3, 50, 0
5, 32640, Note_on_c, 3, 62, 105
5, 32640, Note_on_c, 3, 50, 105
5, 33408, Note_on_c, 3, 50, 0
5, 33408, Note_on_c, 3, 62, 0
5, 36000, Note_on_c, 3, 62, 105
5, 36000, Note_on_c, 3, 50, 105
5, 36288, Note_on_c, 3, 50, 0
5, 36288, Note_on_c, 3, 62, 0
5, 36480, Note_on_c, 3, 62, 105
5, 36480, Note_on_c, 3, 50, 105
5, 37248, Note_on_c, 3, 50, 0
5, 37248, Note_on_c, 3, 62, 0
5, 43680, Note_on_c, 3, 72, 105
5, 43680, Note_on_c, 3, 62, 105
5, 43968, Note_on_c, 3, 62, 0
5, 43968, Note_on_c, 3, 72, 0
5, 44160, Note_on_c, 3, 62, 105
5, 44160, Note_on_c, 3, 70, 105
5, 44448, Note_on_c, 3, 70, 0
5, 44448, Note_on_c, 3, 62, 0
5, 44640, Note_on_c, 3, 62, 105
5, 44640, Note_on_c, 3, 72, 105
5, 44928, Note_on_c, 3, 72, 0
5, 44928, Note_on_c, 3, 62, 0
5, 45120, Note_on_c, 3, 70, 105
5, 45120, Note_on_c, 3, 62, 105
5, 45408, Note_on_c, 3, 62, 0
5, 45408, Note_on_c, 3, 70, 0
5, 45600, Note_on_c, 3, 72, 105
5, 45600, Note_on_c, 3, 62, 105
5, 45888, Note_on_c, 3, 62, 0
5, 45888, Note_on_c, 3, 72, 0
5, 46080, Note_on_c, 3, 70, 105
5, 46080, Note_on_c, 3, 62, 105
5, 46848, Note_on_c, 3, 62, 0
5, 46848, Note_on_c, 3, 70, 0
5, 47520, Note_on_c, 3, 50, 105
5, 47520, Note_on_c, 3, 62, 105
5, 47808, Note_on_c, 3, 62, 0
5, 47808, Note_on_c, 3, 50, 0
5, 48000, Note_on_c, 3, 50, 105
5, 48000, Note_on_c, 3, 62, 105
5, 48768, Note_on_c, 3, 62, 0
5, 48768, Note_on_c, 3, 50, 0
5, 51360, Note_on_c, 3, 62, 105
5, 51360, Note_on_c, 3, 50, 105
5, 51648, Note_on_c, 3, 50, 0
5, 51648, Note_on_c, 3, 62, 0
5, 51840, Note_on_c, 3, 50, 105
5, 51840, Note_on_c, 3, 62, 105
5, 52608, Note_on_c, 3, 62, 0
5, 52608, Note_on_c, 3, 50, 0
5, 59040, Note_on_c, 3, 72, 105
5, 59040, Note_on_c, 3, 62, 105
5, 59328, Note_on_c, 3, 62, 0
5, 59328, Note_on_c, 3, 72, 0
5, 59520, Note_on_c, 3, 62, 105
5, 59520, Note_on_c, 3, 70, 105
5, 59808, Note_on_c, 3, 70, 0
5, 59808, Note_on_c, 3, 62, 0
5, 60000, Note_on_c, 3, 62, 105
5, 60000, Note_on_c, 3, 72, 105
5, 60288, Note_on_c, 3, 72, 0
5, 60288, Note_on_c, 3, 62, 0
5, 60480, Note_on_c, 3, 70, 105
5, 60480, Note_on_c, 3, 62, 105
5, 60768, Note_on_c, 3, 62, 0
5, 60768, Note_on_c, 3, 70, 0
5, 60960, Note_on_c, 3, 72, 105
5, 60960, Note_on_c, 3, 62, 105
5, 61248, Note_on_c, 3, 62, 0
5, 61248, Note_on_c, 3, 72, 0
5, 61440, Note_on_c, 3, 62, 105
5, 61440, Note_on_c, 3, 70, 105
5, 62208, Note_on_c, 3, 70, 0
5, 62208, Note_on_c, 3, 62, 0
5, 63360, Note_on_c, 3, 67, 105
5, 63360, Note_on_c, 3, 72, 105
5, 63648, Note_on_c, 3, 72, 0
5, 63648, Note_on_c, 3, 67, 0
5, 63840, Note_on_c, 3, 65, 105
5, 63840, Note_on_c, 3, 74, 105
5, 64128, Note_on_c, 3, 74, 0
5, 64128, Note_on_c, 3, 65, 0
5, 64320, Note_on_c, 3, 72, 105
5, 64608, Note_on_c, 3, 72, 0
5, 64800, Note_on_c, 3, 65, 105
5, 64800, Note_on_c, 3, 74, 105
5, 65088, Note_on_c, 3, 74, 0
5, 65088, Note_on_c, 3, 65, 0
5, 65280, Note_on_c, 3, 72, 105
5, 65280, Note_on_c, 3, 67, 105
5, 66048, Note_on_c, 3, 67, 0
5, 66048, Note_on_c, 3, 72, 0
5, 67200, Note_on_c, 3, 69, 105
5, 67200, Note_on_c, 3, 62, 105
5, 67488, Note_on_c, 3, 62, 0
5, 67488, Note_on_c, 3, 69, 0
5, 67680, Note_on_c, 3, 69, 105
5, 67968, Note_on_c, 3, 69, 0
5, 68160, Note_on_c, 3, 69, 105
5, 68160, Note_on_c, 3, 62, 105
5, 68448, Note_on_c, 3, 62, 0
5, 68448, Note_on_c, 3, 69, 0
5, 68640, Note_on_c, 3, 69, 105
5, 68928, Note_on_c, 3, 69, 0
5, 69120, Note_on_c, 3, 62, 105
5, 69120, Note_on_c, 3, 69, 105
5, 69888, Note_on_c, 3, 69, 0
5, 69888, Note_on_c, 3, 62, 0
5, 71040, Note_on_c, 3, 67, 105
5, 71040, Note_on_c, 3, 58, 105
5, 72576, Note_on_c, 3, 58, 0
5, 72576, Note_on_c, 3, 67, 0
5, 73920, Note_on_c, 3, 69, 105
5, 73920, Note_on_c, 3, 62, 105
5, 74688, Note_on_c, 3, 62, 0
5, 74688, Note_on_c, 3, 69, 0
5, 74880, Note_on_c, 3, 67, 105
5, 74880, Note_on_c, 3, 58, 105
5, 76416, Note_on_c, 3, 58, 0
5, 76416, Note_on_c, 3, 67, 0
5, 77760, Note_on_c, 3, 62, 105
5, 77760, Note_on_c, 3, 69, 105
5, 78528, Note_on_c, 3, 69, 0
5, 78528, Note_on_c, 3, 62, 0
5, 78720, Note_on_c, 3, 58, 105
5, 78720, Note_on_c, 3, 67, 105
5, 80256, Note_on_c, 3, 67, 0
5, 80256, Note_on_c, 3, 58, 0
5, 80640, Note_on_c, 3, 55, 105
5, 82176, Note_on_c, 3, 55, 0
5, 82560, Note_on_c, 3, 65, 105
5, 84096, Note_on_c, 3, 65, 0
5, 84480, Note_on_c, 3, 58, 105
5, 86016, Note_on_c, 3, 58, 0
5, 94080, Note_on_c, 3, 65, 105
5, 94080, Note_on_c, 3, 62, 105
5, 94368, Note_on_c, 3, 62, 0
5, 94368, Note_on_c, 3, 65, 0
5, 94560, Note_on_c, 3, 65, 105
5, 94848, Note_on_c, 3, 65, 0
5, 95040, Note_on_c, 3, 62, 105
5, 95040, Note_on_c, 3, 65, 105
5, 95328, Note_on_c, 3, 65, 0
5, 95328, Note_on_c, 3, 62, 0
5, 95520, Note_on_c, 3, 65, 105
5, 95808, Note_on_c, 3, 65, 0
5, 96000, Note_on_c, 3, 62, 105
5, 96000, Note_on_c, 3, 65, 105
5, 96768, Note_on_c, 3, 65, 0
5, 96768, Note_on_c, 3, 62, 0
5, 97920, Note_on_c, 3, 58, 105
5, 97920, Note_on_c, 3, 67, 105
5, 98208, Note_on_c, 3, 67, 0
5, 98208, Note_on_c, 3, 58, 0
5, 98400, Note_on_c, 3, 62, 105
5, 98400, Note_on_c, 3, 69, 105
5, 98688, Note_on_c, 3, 69, 0
5, 98688, Note_on_c, 3, 62, 0
5, 98880, Note_on_c, 3, 67, 105
5, 98880, Note_on_c, 3, 58, 105
5, 99168, Note_on_c, 3, 58, 0
5, 99168, Note_on_c, 3, 67, 0
5, 99360, Note_on_c, 3, 69, 105
5, 99360, Note_on_c, 3, 62, 105
5, 99648, Note_on_c, 3, 62, 0
5, 99648, Note_on_c, 3, 69, 0
5, 99840, Note_on_c, 3, 58, 105
5, 99840, Note_on_c, 3, 67, 105
5, 100608, Note_on_c, 3, 67, 0
5, 100608, Note_on_c, 3, 58, 0
5, 101760, Note_on_c, 3, 72, 105
5, 101760, Note_on_c, 3, 67, 105
5, 102048, Note_on_c, 3, 67, 0
5, 102048, Note_on_c, 3, 72, 0
5, 102240, Note_on_c, 3, 74, 105
5, 102240, Note_on_c, 3, 65, 105
5, 102528, Note_on_c, 3, 65, 0
5, 102528, Note_on_c, 3, 74, 0
5, 102720, Note_on_c, 3, 67, 105
5, 102720, Note_on_c, 3, 72, 105
5, 103008, Note_on_c, 3, 72, 0
5, 103008, Note_on_c, 3, 67, 0
5, 103200, Note_on_c, 3, 74, 105
5, 103200, Note_on_c, 3, 65, 105
5, 103488, Note_on_c, 3, 65, 0
5, 103488, Note_on_c, 3, 74, 0
5, 103680, Note_on_c, 3, 72, 105
5, 103680, Note_on_c, 3, 67, 105
5, 104448, Note_on_c, 3, 67, 0
5, 104448, Note_on_c, 3, 72, 0
5, 105600, Note_on_c, 3, 60, 105
5, 105888, Note_on_c, 3, 60, 0
5, 106080, Note_on_c, 3, 60, 105
5, 106368, Note_on_c, 3, 60, 0
5, 106560, Note_on_c, 3, 60, 105
5, 106848, Note_on_c, 3, 60, 0
5, 107040, Note_on_c, 3, 60, 105
5, 107328, Note_on_c, 3, 60, 0
5, 107520, Note_on_c, 3, 72, 105
5, 108288, Note_on_c, 3, 72, 0
5, 109440, Note_on_c, 3, 65, 105
5, 109440, Note_on_c, 3, 62, 105
5, 110208, Note_on_c, 3, 62, 0
5, 110208, Note_on_c, 3, 65, 0
5, 110400, Note_on_c, 3, 62, 105
5, 110784, Note_on_c, 3, 62, 0
5, 110880, Note_on_c, 3, 62, 105
5, 111264, Note_on_c, 3, 62, 0
5, 111360, Note_on_c, 3, 72, 105
5, 111360, Note_on_c, 3, 62, 105
5, 112128, Note_on_c, 3, 62, 0
5, 112128, Note_on_c, 3, 72, 0
5, 113280, Note_on_c, 3, 58, 105
5, 113280, Note_on_c, 3, 62, 105
5, 114048, Note_on_c, 3, 62, 0
5, 114048, Note_on_c, 3, 58, 0
5, 114240, Note_on_c, 3, 58, 105
5, 114624, Note_on_c, 3, 58, 0
5, 114720, Note_on_c, 3, 58, 105
5, 115104, Note_on_c, 3, 58, 0
5, 115200, Note_on_c, 3, 58, 105
5, 115200, Note_on_c, 3, 62, 105
5, 115968, Note_on_c, 3, 62, 0
5, 115968, Note_on_c, 3, 58, 0
5, 117120, Note_on_c, 3, 70, 105
5, 117120, Note_on_c, 3, 67, 105
5, 117888, Note_on_c, 3, 67, 0
5, 117888, Note_on_c, 3, 70, 0
5, 118080, Note_on_c, 3, 55, 105
5, 118464, Note_on_c, 3, 55, 0
5, 118560, Note_on_c, 3, 55, 105
5, 118944, Note_on_c, 3, 55, 0
5, 119040, Note_on_c, 3, 67, 105
5, 119040, Note_on_c, 3, 74, 105
5, 119808, Note_on_c, 3, 74, 0
5, 119808, Note_on_c, 3, 67, 0
5, 124800, Note_on_c, 3, 65, 105
5, 126336, Note_on_c, 3, 65, 0
5, 126720, Note_on_c, 3, 65, 105
5, 128256, Note_on_c, 3, 65, 0
5, 128640, Note_on_c, 3, 65, 105
5, 129408, Note_on_c, 3, 65, 0
5, 129600, Note_on_c, 3, 65, 105
5, 129984, Note_on_c, 3, 65, 0
5, 130080, Note_on_c, 3, 65, 105
5, 130464, Note_on_c, 3, 65, 0
5, 130560, Note_on_c, 3, 65, 105
5, 131328, Note_on_c, 3, 65, 0
5, 131520, Note_on_c, 3, 65, 105
5, 131904, Note_on_c, 3, 65, 0
5, 132000, Note_on_c, 3, 65, 105
5, 132384, Note_on_c, 3, 65, 0
5, 132480, Note_on_c, 3, 65, 105
5, 132864, Note_on_c, 3, 65, 0
5, 133440, Note_on_c, 3, 65, 105
5, 133824, Note_on_c, 3, 65, 0
5, 134400, Note_on_c, 3, 65, 92
5, 135168, Note_on_c, 3, 65, 0
5, 182400, Note_on_c, 3, 58, 58
5, 183936, Note_on_c, 3, 58, 0
5, 184320, Note_on_c, 3, 53, 58
5, 185856, Note_on_c, 3, 53, 0
5, 186240, Note_on_c, 3, 46, 58
5, 188928, Note_on_c, 3, 46, 0
5, 195840, Note_on_c, 3, 65, 105
5, 196128, Note_on_c, 3, 65, 0
5, 196320, Note_on_c, 3, 65, 105
5, 196608, Note_on_c, 3, 65, 0
5, 196800, Note_on_c, 3, 65, 105
5, 197088, Note_on_c, 3, 65, 0
5, 197280, Note_on_c, 3, 65, 105
5, 197568, Note_on_c, 3, 65, 0
5, 197760, Note_on_c, 3, 65, 105
5, 198528, Note_on_c, 3, 65, 0
5, 199680, Note_on_c, 3, 65, 105
5, 199968, Note_on_c, 3, 65, 0
5, 200160, Note_on_c, 3, 65, 105
5, 200448, Note_on_c, 3, 65, 0
5, 200640, Note_on_c, 3, 65, 105
5, 200928, Note_on_c, 3, 65, 0
5, 201120, Note_on_c, 3, 65, 105
5, 201408, Note_on_c, 3, 65, 0
5, 201600, Note_on_c, 3, 65, 105
5, 202368, Note_on_c, 3, 65, 0
5, 203520, Note_on_c, 3, 65, 105
5, 203808, Note_on_c, 3, 65, 0
5, 204000, Note_on_c, 3, 65, 105
5, 204288, Note_on_c, 3, 65, 0
5, 204480, Note_on_c, 3, 65, 105
5, 204768, Note_on_c, 3, 65, 0
5, 204960, Note_on_c, 3, 65, 105
5, 205248, Note_on_c, 3, 65, 0
5, 205440, Note_on_c, 3, 70, 105
5, 205824, Note_on_c, 3, 70, 0
5, 206400, Note_on_c, 3, 58, 105
5, 206784, Note_on_c, 3, 58, 0
5, 207360, Note_on_c, 3, 65, 105
5, 207744, Note_on_c, 3, 65, 0
5, 208320, Note_on_c, 3, 65, 105
5, 208704, Note_on_c, 3, 65, 0
5, 209280, Note_on_c, 3, 58, 92
5, 209664, Note_on_c, 3, 58, 0
5, 218880, Note_on_c, 3, 65, 105
5, 219168, Note_on_c, 3, 65, 0
5, 219360, Note_on_c, 3, 65, 105
5, 219648, Note_on_c, 3, 65, 0
5, 219840, Note_on_c, 3, 65, 105
5, 220128, Note_on_c, 3, 65, 0
5, 220320, Note_on_c, 3, 65, 105
5, 220608, Note_on_c, 3, 65, 0
5, 220800, Note_on_c, 3, 70, 105
5, 221184, Note_on_c, 3, 70, 0
5, 221760, Note_on_c, 3, 58, 105
5, 222144, Note_on_c, 3, 58, 0
5, 222720, Note_on_c, 3, 65, 105
5, 223104, Note_on_c, 3, 65, 0
5, 223680, Note_on_c, 3, 65, 105
5, 224064, Note_on_c, 3, 65, 0
5, 224640, Note_on_c, 3, 62, 105
5, 225120, Note_on_c, 3, 58, 105
5, 225408, Note_on_c, 3, 58, 0
5, 225408, Note_on_c, 3, 62, 0
5, 225600, Note_on_c, 3, 65, 105
5, 225888, Note_on_c, 3, 65, 0
5, 226080, Note_on_c, 3, 65, 105
5, 226368, Note_on_c, 3, 65, 0
5, 226560, Note_on_c, 3, 65, 105
5, 227712, Note_on_c, 3, 65, 0
5, 228000, Note_on_c, 3, 65, 105
5, 228288, Note_on_c, 3, 65, 0
5, 228480, Note_on_c, 3, 62, 105
5, 228960, Note_on_c, 3, 58, 105
5, 229248, Note_on_c, 3, 58, 0
5, 229248, Note_on_c, 3, 62, 0
5, 229440, Note_on_c, 3, 65, 105
5, 229728, Note_on_c, 3, 65, 0
5, 229920, Note_on_c, 3, 65, 105
5, 230208, Note_on_c, 3, 65, 0
5, 230400, Note_on_c, 3, 65, 105
5, 231552, Note_on_c, 3, 65, 0
5, 231840, Note_on_c, 3, 65, 105
5, 232128, Note_on_c, 3, 65, 0
5, 232320, Note_on_c, 3, 62, 105
5, 232800, Note_on_c, 3, 58, 105
5, 233088, Note_on_c, 3, 58, 0
5, 233088, Note_on_c, 3, 62, 0
5, 233280, Note_on_c, 3, 65, 105
5, 233568, Note_on_c, 3, 65, 0
5, 233760, Note_on_c, 3, 65, 105
5, 234048, Note_on_c, 3, 65, 0
5, 234240, Note_on_c, 3, 65, 105
5, 235392, Note_on_c, 3, 65, 0
5, 235680, Note_on_c, 3, 65, 105
5, 235968, Note_on_c, 3, 65, 0
5, 236160, Note_on_c, 3, 62, 105
5, 236160, Note_on_c, 3, 58, 105
5, 236544, Note_on_c, 3, 58, 0
5, 236544, Note_on_c, 3, 62, 0
5, 237120, Note_on_c, 3, 62, 105
5, 237120, Note_on_c, 3, 65, 105
5, 237504, Note_on_c, 3, 65, 0
5, 237504, Note_on_c, 3, 62, 0
5, 238080, Note_on_c, 3, 58, 105
5, 238080, Note_on_c, 3, 62, 105
5, 238848, Note_on_c, 3, 62, 0
5, 238848, Note_on_c, 3, 58, 0
5, 243360, Note_on_c, 3, 69, 105
5, 243648, Note_on_c, 3, 69, 0
5, 243840, Note_on_c, 3, 62, 105
5, 243840, Note_on_c, 3, 69, 105
5, 244128, Note_on_c, 3, 69, 0
5, 244128, Note_on_c, 3, 62, 0
5, 244320, Note_on_c, 3, 69, 105
5, 244608, Note_on_c, 3, 69, 0
5, 244800, Note_on_c, 3, 69, 105
5, 244800, Note_on_c, 3, 62, 105
5, 245088, Note_on_c, 3, 62, 0
5, 245088, Note_on_c, 3, 69, 0
5, 245280, Note_on_c, 3, 69, 105
5, 245568, Note_on_c, 3, 69, 0
5, 245760, Note_on_c, 3, 69, 105
5, 245760, Note_on_c, 3, 62, 105
5, 246528, Note_on_c, 3, 62, 0
5, 246528, Note_on_c, 3, 69, 0
5, 251040, Note_on_c, 3, 62, 105
5, 251040, Note_on_c, 3, 72, 105
5, 251328, Note_on_c, 3, 72, 0
5, 251328, Note_on_c, 3, 62, 0
5, 251520, Note_on_c, 3, 62, 105
5, 251520, Note_on_c, 3, 70, 105
5, 251808, Note_on_c, 3, 70, 0
5, 251808, Note_on_c, 3, 62, 0
5, 252000, Note_on_c, 3, 72, 105
5, 252000, Note_on_c, 3, 62, 105
5, 252288, Note_on_c, 3, 62, 0
5, 252288, Note_on_c, 3, 72, 0
5, 252480, Note_on_c, 3, 62, 105
5, 252480, Note_on_c, 3, 70, 105
5, 252768, Note_on_c, 3, 70, 0
5, 252768, Note_on_c, 3, 62, 0
5, 252960, Note_on_c, 3, 62, 105
5, 252960, Note_on_c, 3, 72, 105
5, 253248, Note_on_c, 3, 72, 0
5, 253248, Note_on_c, 3, 62, 0
5, 253440, Note_on_c, 3, 70, 105
5, 253440, Note_on_c, 3, 62, 105
5, 254208, Note_on_c, 3, 62, 0
5, 254208, Note_on_c, 3, 70, 0
5, 258720, Note_on_c, 3, 69, 105
5, 259008, Note_on_c, 3, 69, 0
5, 259200, Note_on_c, 3, 69, 105
5, 259200, Note_on_c, 3, 62, 105
5, 259488, Note_on_c, 3, 62, 0
5, 259488, Note_on_c, 3, 69, 0
5, 259680, Note_on_c, 3, 69, 105
5, 259968, Note_on_c, 3, 69, 0
5, 260160, Note_on_c, 3, 69, 105
5, 260160, Note_on_c, 3, 62, 105
5, 260448, Note_on_c, 3, 62, 0
5, 260448, Note_on_c, 3, 69, 0
5, 260640, Note_on_c, 3, 69, 105
5, 260928, Note_on_c, 3, 69, 0
5, 261120, Note_on_c, 3, 69, 105
5, 261120, Note_on_c, 3, 62, 105
5, 261888, Note_on_c, 3, 62, 0
5, 261888, Note_on_c, 3, 69, 0
5, 266400, Note_on_c, 3, 62, 105
5, 266400, Note_on_c, 3, 72, 105
5, 266688, Note_on_c, 3, 72, 0
5, 266688, Note_on_c, 3, 62, 0
5, 266880, Note_on_c, 3, 62, 105
5, 266880, Note_on_c, 3, 70, 105
5, 267168, Note_on_c, 3, 70, 0
5, 267168, Note_on_c, 3, 62, 0
5, 267360, Note_on_c, 3, 72, 105
5, 267360, Note_on_c, 3, 62, 105
5, 267648, Note_on_c, 3, 62, 0
5, 267648, Note_on_c, 3, 72, 0
5, 267840, Note_on_c, 3, 62, 105
5, 267840, Note_on_c, 3, 70, 105
5, 268128, Note_on_c, 3, 70, 0
5, 268128, Note_on_c, 3, 62, 0
5, 268320, Note_on_c, 3, 62, 105
5, 268320, Note_on_c, 3, 72, 105
5, 268608, Note_on_c, 3, 72, 0
5, 268608, Note_on_c, 3, 62, 0
5, 268800, Note_on_c, 3, 62, 105
5, 268800, Note_on_c, 3, 70, 105
5, 269568, Note_on_c, 3, 70, 0
5, 269568, Note_on_c, 3, 62, 0
5, 270240, Note_on_c, 3, 50, 105
5, 270240, Note_on_c, 3, 62, 105
5, 270528, Note_on_c, 3, 62, 0
5, 270528, Note_on_c, 3, 50, 0
5, 270720, Note_on_c, 3, 62, 105
5, 270720, Note_on_c, 3, 50, 105
5, 271488, Note_on_c, 3, 50, 0
5, 271488, Note_on_c, 3, 62, 0
5, 274080, Note_on_c, 3, 62, 105
5, 274080, Note_on_c, 3, 50, 105
5, 274368, Note_on_c, 3, 50, 0
5, 274368, Note_on_c, 3, 62, 0
5, 274560, Note_on_c, 3, 62, 105
5, 274560, Note_on_c, 3, 50, 105
5, 275328, Note_on_c, 3, 50, 0
5, 275328, Note_on_c, 3, 62, 0
5, 281760, Note_on_c, 3, 72, 105
5, 281760, Note_on_c, 3, 62, 105
5, 282048, Note_on_c, 3, 62, 0
5, 282048, Note_on_c, 3, 72, 0
5, 282240, Note_on_c, 3, 62, 105
5, 282240, Note_on_c, 3, 70, 105
5, 282528, Note_on_c, 3, 70, 0
5, 282528, Note_on_c, 3, 62, 0
5, 282720, Note_on_c, 3, 62, 105
5, 282720, Note_on_c, 3, 72, 105
5, 283008, Note_on_c, 3, 72, 0
5, 283008, Note_on_c, 3, 62, 0
5, 283200, Note_on_c, 3, 70, 105
5, 283200, Note_on_c, 3, 62, 105
5, 283488, Note_on_c, 3, 62, 0
5, 283488, Note_on_c, 3, 70, 0
5, 283680, Note_on_c, 3, 72, 105
5, 283680, Note_on_c, 3, 62, 105
5, 283968, Note_on_c, 3, 62, 0
5, 283968, Note_on_c, 3, 72, 0
5, 284160, Note_on_c, 3, 70, 105
5, 284160, Note_on_c, 3, 62, 105
5, 284928, Note_on_c, 3, 62, 0
5, 284928, Note_on_c, 3, 70, 0
5, 285600, Note_on_c, 3, 50, 105
5, 285600, Note_on_c, 3, 62, 105
5, 285888, Note_on_c, 3, 62, 0
5, 285888, Note_on_c, 3, 50, 0
5, 286080, Note_on_c, 3, 50, 105
5, 286080, Note_on_c, 3, 62, 105
5, 286848, Note_on_c, 3, 62, 0
5, 286848, Note_on_c, 3, 50, 0
5, 289440, Note_on_c, 3, 62, 105
5, 289440, Note_on_c, 3, 50, 105
5, 289728, Note_on_c, 3, 50, 0
5, 289728, Note_on_c, 3, 62, 0
5, 289920, Note_on_c, 3, 50, 105
5, 289920, Note_on_c, 3, 62, 105
5, 290688, Note_on_c, 3, 62, 0
5, 290688, Note_on_c, 3, 50, 0
5, 297120, Note_on_c, 3, 72, 105
5, 297120, Note_on_c, 3, 62, 105
5, 297408, Note_on_c, 3, 62, 0
5, 297408, Note_on_c, 3, 72, 0
5, 297600, Note_on_c, 3, 62, 105
5, 297600, Note_on_c, 3, 70, 105
5, 297888, Note_on_c, 3, 70, 0
5, 297888, Note_on_c, 3, 62, 0
5, 298080, Note_on_c, 3, 62, 105
5, 298080, Note_on_c, 3, 72, 105
5, 298368, Note_on_c, 3, 72, 0
5, 298368, Note_on_c, 3, 62, 0
5, 298560, Note_on_c, 3, 70, 105
5, 298560, Note_on_c, 3, 62, 105
5, 298848, Note_on_c, 3, 62, 0
5, 298848, Note_on_c, 3, 70, 0
5, 299040, Note_on_c, 3, 72, 105
5, 299040, Note_on_c, 3, 62, 105
5, 299328, Note_on_c, 3, 62, 0
5, 299328, Note_on_c, 3, 72, 0
5, 299520, Note_on_c, 3, 62, 105
5, 299520, Note_on_c, 3, 70, 105
5, 300288, Note_on_c, 3, 70, 0
5, 300288, Note_on_c, 3, 62, 0
5, 301440, Note_on_c, 3, 67, 105
5, 301440, Note_on_c, 3, 72, 105
5, 301728, Note_on_c, 3, 72, 0
5, 301728, Note_on_c, 3, 67, 0
5, 301920, Note_on_c, 3, 65, 105
5, 301920, Note_on_c, 3, 74, 105
5, 302208, Note_on_c, 3, 74, 0
5, 302208, Note_on_c, 3, 65, 0
5, 302400, Note_on_c, 3, 72, 105
5, 302688, Note_on_c, 3, 72, 0
5, 302880, Note_on_c, 3, 65, 105
5, 302880, Note_on_c, 3, 74, 105
5, 303168, Note_on_c, 3, 74, 0
5, 303168, Note_on_c, 3, 65, 0
5, 303360, Note_on_c, 3, 72, 105
5, 303360, Note_on_c, 3, 67, 105
5, 304128, Note_on_c, 3, 67, 0
5, 304128, Note_on_c, 3, 72, 0
5, 305280, Note_on_c, 3, 69, 105
5, 305280, Note_on_c, 3, 62, 105
5, 305568, Note_on_c, 3, 62, 0
5, 305568, Note_on_c, 3, 69, 0
5, 305760, Note_on_c, 3, 69, 105
5, 306048, Note_on_c, 3, 69, 0
5, 306240, Note_on_c, 3, 69, 105
5, 306240, Note_on_c, 3, 62, 105
5, 306528, Note_on_c, 3, 62, 0
5, 306528, Note_on_c, 3, 69, 0
5, 306720, Note_on_c, 3, 69, 105
5, 307008, Note_on_c, 3, 69, 0
5, 307200, Note_on_c, 3, 62, 105
5, 307200, Note_on_c, 3, 69, 105
5, 307968, Note_on_c, 3, 69, 0
5, 307968, Note_on_c, 3, 62, 0
5, 309120, Note_on_c, 3, 67, 105
5, 309120, Note_on_c, 3, 58, 105
5, 310656, Note_on_c, 3, 58, 0
5, 310656, Note_on_c, 3, 67, 0
5, 312000, Note_on_c, 3, 69, 105
5, 312000, Note_on_c, 3, 62, 105
5, 312768, Note_on_c, 3, 62, 0
5, 312768, Note_on_c, 3, 69, 0
5, 312960, Note_on_c, 3, 67, 105
5, 312960, Note_on_c, 3, 58, 105
5, 314496, Note_on_c, 3, 58, 0
5, 314496, Note_on_c, 3, 67, 0
5, 315840, Note_on_c, 3, 62, 105
5, 315840, Note_on_c, 3, 69, 105
5, 316608, Note_on_c, 3, 69, 0
5, 316608, Note_on_c, 3, 62, 0
5, 316800, Note_on_c, 3, 58, 105
5, 316800, Note_on_c, 3, 67, 105
5, 318336, Note_on_c, 3, 67, 0
5, 318336, Note_on_c, 3, 58, 0
5, 318720, Note_on_c, 3, 55, 105
5, 320256, Note_on_c, 3, 55, 0
5, 320640, Note_on_c, 3, 65, 105
5, 322176, Note_on_c, 3, 65, 0
5, 322560, Note_on_c, 3, 58, 105
5, 324096, Note_on_c, 3, 58, 0
5, 332160, Note_on_c, 3, 65, 105
5, 332160, Note_on_c, 3, 62, 105
5, 332448, Note_on_c, 3, 62, 0
5, 332448, Note_on_c, 3, 65, 0
5, 332640, Note_on_c, 3, 65, 105
5, 332928, Note_on_c, 3, 65, 0
5, 333120, Note_on_c, 3, 62, 105
5, 333120, Note_on_c, 3, 65, 105
5, 333408, Note_on_c, 3, 65, 0
5, 333408, Note_on_c, 3, 62, 0
5, 333600, Note_on_c, 3, 65, 105
5, 333888, Note_on_c, 3, 65, 0
5, 334080, Note_on_c, 3, 62, 105
5, 334080, Note_on_c, 3, 65, 105
5, 334848, Note_on_c, 3, 65, 0
5, 334848, Note_on_c, 3, 62, 0
5, 336000, Note_on_c, 3, 58, 105
5, 336000, Note_on_c, 3, 67, 105
5, 336288, Note_on_c, 3, 67, 0
5, 336288, Note_on_c, 3, 58, 0
5, 336480, Note_on_c, 3, 62, 105
5, 336480, Note_on_c, 3, 69, 105
5, 336768, Note_on_c, 3, 69, 0
5, 336768, Note_on_c, 3, 62, 0
5, 336960, Note_on_c, 3, 67, 105
5, 336960, Note_on_c, 3, 58, 105
5, 337248, Note_on_c, 3, 58, 0
5, 337248, Note_on_c, 3, 67, 0
5, 337440, Note_on_c, 3, 69, 105
5, 337440, Note_on_c, 3, 62, 105
5, 337728, Note_on_c, 3, 62, 0
5, 337728, Note_on_c, 3, 69, 0
5, 337920, Note_on_c, 3, 58, 105
5, 337920, Note_on_c, 3, 67, 105
5, 338688, Note_on_c, 3, 67, 0
5, 338688, Note_on_c, 3, 58, 0
5, 339840, Note_on_c, 3, 72, 105
5, 339840, Note_on_c, 3, 67, 105
5, 340128, Note_on_c, 3, 67, 0
5, 340128, Note_on_c, 3, 72, 0
5, 340320, Note_on_c, 3, 74, 105
5, 340320, Note_on_c, 3, 65, 105
5, 340608, Note_on_c, 3, 65, 0
5, 340608, Note_on_c, 3, 74, 0
5, 340800, Note_on_c, 3, 67, 105
5, 340800, Note_on_c, 3, 72, 105
5, 341088, Note_on_c, 3, 72, 0
5, 341088, Note_on_c, 3, 67, 0
5, 341280, Note_on_c, 3, 74, 105
5, 341280, Note_on_c, 3, 65, 105
5, 341568, Note_on_c, 3, 65, 0
5, 341568, Note_on_c, 3, 74, 0
5, 341760, Note_on_c, 3, 72, 105
5, 341760, Note_on_c, 3, 67, 105
5, 342528, Note_on_c, 3, 67, 0
5, 342528, Note_on_c, 3, 72, 0
5, 343680, Note_on_c, 3, 60, 105
5, 343968, Note_on_c, 3, 60, 0
5, 344160, Note_on_c, 3, 60, 105
5, 344448, Note_on_c, 3, 60, 0
5, 344640, Note_on_c, 3, 60, 105
5, 344928, Note_on_c, 3, 60, 0
5, 345120, Note_on_c, 3, 60, 105
5, 345408, Note_on_c, 3, 60, 0
5, 345600, Note_on_c, 3, 72, 105
5, 346368, Note_on_c, 3, 72, 0
5, 347520, Note_on_c, 3, 65, 105
5, 347520, Note_on_c, 3, 62, 105
5, 348288, Note_on_c, 3, 62, 0
5, 348288, Note_on_c, 3, 65, 0
5, 348480, Note_on_c, 3, 62, 105
5, 348864, Note_on_c, 3, 62, 0
5, 348960, Note_on_c, 3, 62, 105
5, 349344, Note_on_c, 3, 62, 0
5, 349440, Note_on_c, 3, 72, 105
5, 349440, Note_on_c, 3, 62, 105
5, 350208, Note_on_c, 3, 62, 0
5, 350208, Note_on_c, 3, 72, 0
5, 351360, Note_on_c, 3, 58, 105
5, 351360, Note_on_c, 3, 62, 105
5, 352128, Note_on_c, 3, 62, 0
5, 352128, Note_on_c, 3, 58, 0
5, 352320, Note_on_c, 3, 58, 105
5, 352704, Note_on_c, 3, 58, 0
5, 352800, Note_on_c, 3, 58, 105
5, 353184, Note_on_c, 3, 58, 0
5, 353280, Note_on_c, 3, 58, 105
5, 353280, Note_on_c, 3, 62, 105
5, 354048, Note_on_c, 3, 62, 0
5, 354048, Note_on_c, 3, 58, 0
5, 355200, Note_on_c, 3, 70, 105
5, 355200, Note_on_c, 3, 67, 105
5, 355968, Note_on_c, 3, 67, 0
5, 355968, Note_on_c, 3, 70, 0
5, 356160, Note_on_c, 3, 55, 105
5, 356544, Note_on_c, 3, 55, 0
5, 356640, Note_on_c, 3, 55, 105
5, 357024, Note_on_c, 3, 55, 0
5, 357120, Note_on_c, 3, 67, 105
5, 357120, Note_on_c, 3, 74, 105
5, 357888, Note_on_c, 3, 74, 0
5, 357888, Note_on_c, 3, 67, 0
5, 362880, Note_on_c, 3, 65, 105
5, 364416, Note_on_c, 3, 65, 0
5, 364800, Note_on_c, 3, 65, 105
5, 366336, Note_on_c, 3, 65, 0
5, 366720, Note_on_c, 3, 65, 105
5, 367488, Note_on_c, 3, 65, 0
5, 367680, Note_on_c, 3, 65, 105
5, 368064, Note_on_c, 3, 65, 0
5, 368160, Note_on_c, 3, 65, 105
5, 368544, Note_on_c, 3, 65, 0
5, 368640, Note_on_c, 3, 65, 105
5, 369408, Note_on_c, 3, 65, 0
5, 369600, Note_on_c, 3, 65, 105
5, 369984, Note_on_c, 3, 65, 0
5, 370080, Note_on_c, 3, 65, 105
5, 370464, Note_on_c, 3, 65, 0
5, 370560, Note_on_c, 3, 65, 105
5, 370944, Note_on_c, 3, 65, 0
5, 371520, Note_on_c, 3, 65, 105
5, 371904, Note_on_c, 3, 65, 0
5, 372480, Note_on_c, 3, 65, 92
5, 373248, Note_on_c, 3, 65, 0
5, 420480, Note_on_c, 3, 58, 58
5, 422016, Note_on_c, 3, 58, 0
5, 422400, Note_on_c, 3, 53, 58
5, 423936, Note_on_c, 3, 53, 0
5, 424320, Note_on_c, 3, 46, 58
5, 427008, Note_on_c, 3, 46, 0
5, 433920, Note_on_c, 3, 65, 105
5, 434208, Note_on_c, 3, 65, 0
5, 434400, Note_on_c, 3, 65, 105
5, 434688, Note_on_c, 3, 65, 0
5, 434880, Note_on_c, 3, 65, 105
5, 435168, Note_on_c, 3, 65, 0
5, 435360, Note_on_c, 3, 65, 105
5, 435648, Note_on_c, 3, 65, 0
5, 435840, Note_on_c, 3, 65, 105
5, 436608, Note_on_c, 3, 65, 0
5, 437760, Note_on_c, 3, 65, 105
5, 438048, Note_on_c, 3, 65, 0
5, 438240, Note_on_c, 3, 65, 105
5, 438528, Note_on_c, 3, 65, 0
5, 438720, Note_on_c, 3, 65, 105
5, 439008, Note_on_c, 3, 65, 0
5, 439200, Note_on_c, 3, 65, 105
5, 439488, Note_on_c, 3, 65, 0
5, 439680, Note_on_c, 3, 65, 105
5, 440448, Note_on_c, 3, 65, 0
5, 441600, Note_on_c, 3, 65, 105
5, 441888, Note_on_c, 3, 65, 0
5, 442080, Note_on_c, 3, 65, 105
5, 442368, Note_on_c, 3, 65, 0
5, 442560, Note_on_c, 3, 65, 105
5, 442848, Note_on_c, 3, 65, 0
5, 443040, Note_on_c, 3, 65, 105
5, 443328, Note_on_c, 3, 65, 0
5, 443520, Note_on_c, 3, 70, 105
5, 443904, Note_on_c, 3, 70, 0
5, 444480, Note_on_c, 3, 58, 105
5, 444864, Note_on_c, 3, 58, 0
5, 445440, Note_on_c, 3, 65, 105
5, 445824, Note_on_c, 3, 65, 0
5, 446400, Note_on_c, 3, 65, 105
5, 446784, Note_on_c, 3, 65, 0
5, 447360, Note_on_c, 3, 58, 92
5, 447744, Note_on_c, 3, 58, 0
5, 456960, Note_on_c, 3, 65, 105
5, 457248, Note_on_c, 3, 65, 0
5, 457440, Note_on_c, 3, 65, 105
5, 457728, Note_on_c, 3, 65, 0
5, 457920, Note_on_c, 3, 65, 105
5, 458208, Note_on_c, 3, 65, 0
5, 458400, Note_on_c, 3, 65, 105
5, 458688, Note_on_c, 3, 65, 0
5, 458880, Note_on_c, 3, 70, 105
5, 459264, Note_on_c, 3, 70, 0
5, 459840, Note_on_c, 3, 58, 105
5, 460224, Note_on_c, 3, 58, 0
5, 460800, Note_on_c, 3, 65, 105
5, 461184, Note_on_c, 3, 65, 0
5, 461760, Note_on_c, 3, 65, 105
5, 462144, Note_on_c, 3, 65, 0
5, 462720, Note_on_c, 3, 62, 105
5, 463200, Note_on_c, 3, 58, 105
5, 463488, Note_on_c, 3, 58, 0
5, 463488, Note_on_c, 3, 62, 0
5, 463680, Note_on_c, 3, 65, 105
5, 463968, Note_on_c, 3, 65, 0
5, 464160, Note_on_c, 3, 65, 105
5, 464448, Note_on_c, 3, 65, 0
5, 464640, Note_on_c, 3, 65, 105
5, 465792, Note_on_c, 3, 65, 0
5, 466080, Note_on_c, 3, 65, 105
5, 466368, Note_on_c, 3, 65, 0
5, 466560, Note_on_c, 3, 62, 105
5, 467040, Note_on_c, 3, 58, 105
5, 467328, Note_on_c, 3, 58, 0
5, 467328, Note_on_c, 3, 62, 0
5, 467520, Note_on_c, 3, 65, 105
5, 467808, Note_on_c, 3, 65, 0
5, 468000, Note_on_c, 3, 65, 105
5, 468288, Note_on_c, 3, 65, 0
5, 468480, Note_on_c, 3, 65, 105
5, 469632, Note_on_c, 3, 65, 0
5, 469920, Note_on_c, 3, 65, 105
5, 470208, Note_on_c, 3, 65, 0
5, 470400, Note_on_c, 3, 62, 105
5, 470880, Note_on_c, 3, 58, 105
5, 471168, Note_on_c, 3, 58, 0
5, 471168, Note_on_c, 3, 62, 0
5, 471360, Note_on_c, 3, 65, 105
5, 471648, Note_on_c, 3, 65, 0
5, 471840, Note_on_c, 3, 65, 105
5, 472128, Note_on_c, 3, 65, 0
5, 472320, Note_on_c, 3, 65, 105
5, 473472, Note_on_c, 3, 65, 0
5, 473760, Note_on_c, 3, 65, 105
5, 474048, Note_on_c, 3, 65, 0
5, 474240, Note_on_c, 3, 62, 105
5, 474240, Note_on_c, 3, 58, 105
5, 474624, Note_on_c, 3, 58, 0
5, 474624, Note_on_c, 3, 62, 0
5, 475200, Note_on_c, 3, 62, 105
5, 475200, Note_on_c, 3, 65, 105
5, 475584, Note_on_c, 3, 65, 0
5, 475584, Note_on_c, 3, 62, 0
5, 476160, Note_on_c, 3, 58, 92
5, 476160, Note_on_c, 3, 62, 92
5, 476928, Note_on_c, 3, 62, 0
5, 476928, Note_on_c, 3, 58, 0
5, 520320, Note_on_c, 3, 65, 105
5, 523776, Note_on_c, 3, 65, 0
5, 524160, Note_on_c, 3, 72, 105
5, 524928, Note_on_c, 3, 72, 0
5, 528000, Note_on_c, 3, 65, 105
5, 529536, Note_on_c, 3, 65, 0
5, 529920, Note_on_c, 3, 70, 105
5, 531456, Note_on_c, 3, 70, 0
5, 535680, Note_on_c, 3, 70, 105
5, 536448, Note_on_c, 3, 70, 0
5, 536640, Note_on_c, 3, 58, 105
5, 536928, Note_on_c, 3, 58, 0
5, 537120, Note_on_c, 3, 58, 105
5, 537408, Note_on_c, 3, 58, 0
5, 537600, Note_on_c, 3, 58, 105
5, 539136, Note_on_c, 3, 58, 0
5, 539520, Note_on_c, 3, 67, 105
5, 541056, Note_on_c, 3, 67, 0
5, 541440, Note_on_c, 3, 72, 105
5, 542976, Note_on_c, 3, 72, 0
5, 543360, Note_on_c, 3, 65, 105
5, 544896, Note_on_c, 3, 65, 0
5, 545280, Note_on_c, 3, 67, 105
5, 545280, Note_on_c, 3, 74, 105
5, 546816, Note_on_c, 3, 74, 0
5, 546816, Note_on_c, 3, 67, 0
5, 547200, Note_on_c, 3, 72, 92
5, 547200, Note_on_c, 3, 67, 92
5, 547968, Note_on_c, 3, 67, 0
5, 547968, Note_on_c, 3, 72, 0
5, 549120, Note_on_c, 3, 69, 92
5, 549120, Note_on_c, 3, 72, 92
5, 549888, Note_on_c, 3, 72, 0
5, 549888, Note_on_c, 3, 69, 0
5, 625920, Note_on_c, 3, 72, 112
5, 625920, Note_on_c, 3, 69, 92
5, 627456, Note_on_c, 3, 69, 0
5, 627456, Note_on_c, 3, 72, 0
5, 627840, Note_on_c, 3, 72, 112
5, 627840, Note_on_c, 3, 69, 92
5, 628608, Note_on_c, 3, 69, 0
5, 628608, Note_on_c, 3, 72, 0
5, 631680, Note_on_c, 3, 72, 92
5, 631680, Note_on_c, 3, 69, 92
5, 632064, Note_on_c, 3, 69, 0
5, 632064, Note_on_c, 3, 72, 0
5, 638880, Note_on_c, 3, 69, 105
5, 639168, Note_on_c, 3, 69, 0
5, 639360, Note_on_c, 3, 69, 105
5, 639360, Note_on_c, 3, 62, 105
5, 639648, Note_on_c, 3, 62, 0
5, 639648, Note_on_c, 3, 69, 0
5, 639840, Note_on_c, 3, 69, 105
5, 640128, Note_on_c, 3, 69, 0
5, 640320, Note_on_c, 3, 62, 105
5, 640320, Note_on_c, 3, 69, 105
5, 640608, Note_on_c, 3, 69, 0
5, 640608, Note_on_c, 3, 62, 0
5, 640800, Note_on_c, 3, 69, 105
5, 641088, Note_on_c, 3, 69, 0
5, 641280, Note_on_c, 3, 69, 105
5, 641280, Note_on_c, 3, 62, 105
5, 642048, Note_on_c, 3, 62, 0
5, 642048, Note_on_c, 3, 69, 0
5, 646560, Note_on_c, 3, 72, 105
5, 646560, Note_on_c, 3, 62, 105
5, 646848, Note_on_c, 3, 62, 0
5, 646848, Note_on_c, 3, 72, 0
5, 647040, Note_on_c, 3, 70, 105
5, 647040, Note_on_c, 3, 62, 105
5, 647328, Note_on_c, 3, 62, 0
5, 647328, Note_on_c, 3, 70, 0
5, 647520, Note_on_c, 3, 72, 105
5, 647520, Note_on_c, 3, 62, 105
5, 647808, Note_on_c, 3, 62, 0
5, 647808, Note_on_c, 3, 72, 0
5, 648000, Note_on_c, 3, 62, 105
5, 648000, Note_on_c, 3, 70, 105
5, 648288, Note_on_c, 3, 70, 0
5, 648288, Note_on_c, 3, 62, 0
5, 648480, Note_on_c, 3, 62, 105
5, 648480, Note_on_c, 3, 72, 105
5, 648768, Note_on_c, 3, 72, 0
5, 648768, Note_on_c, 3, 62, 0
5, 648960, Note_on_c, 3, 62, 105
5, 648960, Note_on_c, 3, 70, 105
5, 649728, Note_on_c, 3, 70, 0
5, 649728, Note_on_c, 3, 62, 0
5, 650400, Note_on_c, 3, 50, 105
5, 650400, Note_on_c, 3, 62, 105
5, 650688, Note_on_c, 3, 62, 0
5, 650688, Note_on_c, 3, 50, 0
5, 650880, Note_on_c, 3, 50, 105
5, 650880, Note_on_c, 3, 62, 105
5, 651648, Note_on_c, 3, 62, 0
5, 651648, Note_on_c, 3, 50, 0
5, 654240, Note_on_c, 3, 62, 105
5, 654240, Note_on_c, 3, 50, 105
5, 654528, Note_on_c, 3, 50, 0
5, 654528, Note_on_c, 3, 62, 0
5, 654720, Note_on_c, 3, 62, 105
5, 654720, Note_on_c, 3, 50, 105
5, 655488, Note_on_c, 3, 50, 0
5, 655488, Note_on_c, 3, 62, 0
5, 661920, Note_on_c, 3, 72, 105
5, 661920, Note_on_c, 3, 62, 105
5, 662208, Note_on_c, 3, 62, 0
5, 662208, Note_on_c, 3, 72, 0
5, 662400, Note_on_c, 3, 70, 105
5, 662400, Note_on_c, 3, 62, 105
5, 662688, Note_on_c, 3, 62, 0
5, 662688, Note_on_c, 3, 70, 0
5, 662880, Note_on_c, 3, 62, 105
5, 662880, Note_on_c, 3, 72, 105
5, 663168, Note_on_c, 3, 72, 0
5, 663168, Note_on_c, 3, 62, 0
5, 663360, Note_on_c, 3, 62, 105
5, 663360, Note_on_c, 3, 70, 105
5, 663648, Note_on_c, 3, 70, 0
5, 663648, Note_on_c, 3, 62, 0
5, 663840, Note_on_c, 3, 72, 105
5, 663840, Note_on_c, 3, 62, 105
5, 664128, Note_on_c, 3, 62, 0
5, 664128, Note_on_c, 3, 72, 0
5, 664320, Note_on_c, 3, 62, 105
5, 664320, Note_on_c, 3, 70, 105
5, 665088, Note_on_c, 3, 70, 0
5, 665088, Note_on_c, 3, 62, 0
5, 666240, Note_on_c, 3, 67, 105
5, 666240, Note_on_c, 3, 72, 105
5, 666528, Note_on_c, 3, 72, 0
5, 666528, Note_on_c, 3, 67, 0
5, 666720, Note_on_c, 3, 74, 105
5, 666720, Note_on_c, 3, 65, 105
5, 667008, Note_on_c, 3, 65, 0
5, 667008, Note_on_c, 3, 74, 0
5, 667200, Note_on_c, 3, 67, 105
5, 667200, Note_on_c, 3, 72, 105
5, 667488, Note_on_c, 3, 72, 0
5, 667488, Note_on_c, 3, 67, 0
5, 667680, Note_on_c, 3, 65, 105
5, 667680, Note_on_c, 3, 74, 105
5, 667968, Note_on_c, 3, 74, 0
5, 667968, Note_on_c, 3, 65, 0
5, 668160, Note_on_c, 3, 72, 105
5, 668160, Note_on_c, 3, 67, 105
5, 668928, Note_on_c, 3, 67, 0
5, 668928, Note_on_c, 3, 72, 0
5, 670080, Note_on_c, 3, 65, 105
5, 670080, Note_on_c, 3, 62, 105
5, 670368, Note_on_c, 3, 62, 0
5, 670368, Note_on_c, 3, 65, 0
5, 670560, Note_on_c, 3, 72, 105
5, 670848, Note_on_c, 3, 72, 0
5, 671040, Note_on_c, 3, 65, 105
5, 671040, Note_on_c, 3, 62, 105
5, 671328, Note_on_c, 3, 62, 0
5, 671328, Note_on_c, 3, 65, 0
5, 671520, Note_on_c, 3, 72, 105
5, 671808, Note_on_c, 3, 72, 0
5, 672000, Note_on_c, 3, 65, 105
5, 672000, Note_on_c, 3, 62, 105
5, 672768, Note_on_c, 3, 62, 0
5, 672768, Note_on_c, 3, 65, 0
5, 673920, Note_on_c, 3, 67, 105
5, 673920, Note_on_c, 3, 62, 105
5, 674208, Note_on_c, 3, 62, 0
5, 674208, Note_on_c, 3, 67, 0
5, 674400, Note_on_c, 3, 62, 105
5, 674400, Note_on_c, 3, 69, 105
5, 674688, Note_on_c, 3, 69, 0
5, 674688, Note_on_c, 3, 62, 0
5, 674880, Note_on_c, 3, 67, 105
5, 674880, Note_on_c, 3, 62, 105
5, 675168, Note_on_c, 3, 62, 0
5, 675168, Note_on_c, 3, 67, 0
5, 675360, Note_on_c, 3, 69, 105
5, 675360, Note_on_c, 3, 62, 105
5, 675648, Note_on_c, 3, 62, 0
5, 675648, Note_on_c, 3, 69, 0
5, 675840, Note_on_c, 3, 62, 105
5, 675840, Note_on_c, 3, 67, 105
5, 676608, Note_on_c, 3, 67, 0
5, 676608, Note_on_c, 3, 62, 0
5, 677760, Note_on_c, 3, 72, 105
5, 677760, Note_on_c, 3, 67, 105
5, 678048, Note_on_c, 3, 67, 0
5, 678048, Note_on_c, 3, 72, 0
5, 678240, Note_on_c, 3, 67, 105
5, 678240, Note_on_c, 3, 74, 105
5, 678528, Note_on_c, 3, 74, 0
5, 678528, Note_on_c, 3, 67, 0
5, 678720, Note_on_c, 3, 72, 105
5, 678720, Note_on_c, 3, 67, 105
5, 679008, Note_on_c, 3, 67, 0
5, 679008, Note_on_c, 3, 72, 0
5, 679200, Note_on_c, 3, 67, 105
5, 679200, Note_on_c, 3, 74, 105
5, 679488, Note_on_c, 3, 74, 0
5, 679488, Note_on_c, 3, 67, 0
5, 679680, Note_on_c, 3, 72, 105
5, 679680, Note_on_c, 3, 67, 105
5, 680448, Note_on_c, 3, 67, 0
5, 680448, Note_on_c, 3, 72, 0
5, 681600, Note_on_c, 3, 72, 105
5, 681600, Note_on_c, 3, 69, 105
5, 681888, Note_on_c, 3, 69, 0
5, 681888, Note_on_c, 3, 72, 0
5, 682080, Note_on_c, 3, 70, 105
5, 682368, Note_on_c, 3, 70, 0
5, 682560, Note_on_c, 3, 69, 105
5, 682560, Note_on_c, 3, 72, 105
5, 682848, Note_on_c, 3, 72, 0
5, 682848, Note_on_c, 3, 69, 0
5, 683040, Note_on_c, 3, 70, 105
5, 683328, Note_on_c, 3, 70, 0
5, 683520, Note_on_c, 3, 69, 105
5, 683520, Note_on_c, 3, 72, 105
5, 684288, Note_on_c, 3, 72, 0
5, 684288, Note_on_c, 3, 69, 0
5, 685440, Note_on_c, 3, 72, 105
5, 685440, Note_on_c, 3, 62, 105
5, 685728, Note_on_c, 3, 62, 0
5, 685728, Note_on_c, 3, 72, 0
5, 685920, Note_on_c, 3, 72, 105
5, 686208, Note_on_c, 3, 72, 0
5, 686400, Note_on_c, 3, 62, 105
5, 686400, Note_on_c, 3, 72, 105
5, 686688, Note_on_c, 3, 72, 0
5, 686688, Note_on_c, 3, 62, 0
5, 686880, Note_on_c, 3, 72, 105
5, 687168, Note_on_c, 3, 72, 0
5, 687360, Note_on_c, 3, 62, 105
5, 687360, Note_on_c, 3, 72, 105
5, 688128, Note_on_c, 3, 72, 0
5, 688128, Note_on_c, 3, 62, 0
5, 689280, Note_on_c, 3, 67, 105
5, 689280, Note_on_c, 3, 74, 105
5, 689568, Note_on_c, 3, 74, 0
5, 689568, Note_on_c, 3, 67, 0
5, 689760, Note_on_c, 3, 74, 105
5, 689760, Note_on_c, 3, 62, 105
5, 690048, Note_on_c, 3, 62, 0
5, 690048, Note_on_c, 3, 74, 0
5, 690240, Note_on_c, 3, 74, 105
5, 690240, Note_on_c, 3, 67, 105
5, 690528, Note_on_c, 3, 67, 0
5, 690528, Note_on_c, 3, 74, 0
5, 690720, Note_on_c, 3, 74, 105
5, 690720, Note_on_c, 3, 62, 105
5, 691008, Note_on_c, 3, 62, 0
5, 691008, Note_on_c, 3, 74, 0
5, 691200, Note_on_c, 3, 67, 105
5, 691200, Note_on_c, 3, 74, 105
5, 691968, Note_on_c, 3, 74, 0
5, 691968, Note_on_c, 3, 67, 0
5, 693120, Note_on_c, 3, 67, 105
5, 693120, Note_on_c, 3, 70, 105
5, 693408, Note_on_c, 3, 70, 0
5, 693408, Note_on_c, 3, 67, 0
5, 693600, Note_on_c, 3, 58, 105
5, 693888, Note_on_c, 3, 58, 0
5, 694080, Note_on_c, 3, 67, 105
5, 694080, Note_on_c, 3, 70, 105
5, 694368, Note_on_c, 3, 70, 0
5, 694368, Note_on_c, 3, 67, 0
5, 694560, Note_on_c, 3, 58, 105
5, 694848, Note_on_c, 3, 58, 0
5, 695040, Note_on_c, 3, 70, 105
5, 695040, Note_on_c, 3, 67, 105
5, 695808, Note_on_c, 3, 67, 0
5, 695808, Note_on_c, 3, 70, 0
5, 696480, Note_on_c, 3, 67, 105
5, 696768, Note_on_c, 3, 67, 0
5, 696960, Note_on_c, 3, 67, 105
5, 697728, Note_on_c, 3, 67, 0
5, 698400, Note_on_c, 3, 55, 105
5, 698688, Note_on_c, 3, 55, 0
5, 698880, Note_on_c, 3, 55, 105
5, 699648, Note_on_c, 3, 55, 0
5, 700320, Note_on_c, 3, 69, 105
5, 700608, Note_on_c, 3, 69, 0
5, 700800, Note_on_c, 3, 62, 105
5, 700800, Note_on_c, 3, 69, 105
5, 701568, Note_on_c, 3, 69, 0
5, 702528, Note_on_c, 3, 62, 0
5, 702720, Note_on_c, 3, 62, 105
5, 703488, Note_on_c, 3, 62, 0
5, 703680, Note_on_c, 3, 62, 105
5, 704448, Note_on_c, 3, 62, 0
5, 704640, Note_on_c, 3, 50, 105
5, 704640, Note_on_c, 3, 62, 105
5, 705408, Note_on_c, 3, 62, 0
5, 705408, Note_on_c, 3, 50, 0
5, 705600, Note_on_c, 3, 62, 105
5, 705600, Note_on_c, 3, 50, 105
5, 705984, Note_on_c, 3, 50, 0
5, 705984, Note_on_c, 3, 62, 0
5, 706080, Note_on_c, 3, 50, 105
5, 706080, Note_on_c, 3, 62, 105
5, 706464, Note_on_c, 3, 62, 0
5, 706464, Note_on_c, 3, 50, 0
5, 706560, Note_on_c, 3, 50, 105
5, 706560, Note_on_c, 3, 62, 105
5, 706944, Note_on_c, 3, 62, 0
5, 706944, Note_on_c, 3, 50, 0
5, 707040, Note_on_c, 3, 62, 105
5, 707040, Note_on_c, 3, 50, 105
5, 707424, Note_on_c, 3, 50, 0
5, 707424, Note_on_c, 3, 62, 0
5, 707520, Note_on_c, 3, 50, 105
5, 707520, Note_on_c, 3, 62, 105
5, 707904, Note_on_c, 3, 62, 0
5, 707904, Note_on_c, 3, 50, 0
5, 708000, Note_on_c, 3, 62, 105
5, 708000, Note_on_c, 3, 50, 105
5, 708384, Note_on_c, 3, 50, 0
5, 708384, Note_on_c, 3, 62, 0
5, 708480, Note_on_c, 3, 62, 105
5, 708480, Note_on_c, 3, 50, 105
5, 708864, Note_on_c, 3, 50, 0
5, 708864, Note_on_c, 3, 62, 0
5, 709440, Note_on_c, 3, 62, 105
5, 709440, Note_on_c, 3, 50, 105
5, 709824, Note_on_c, 3, 50, 0
5, 709824, Note_on_c, 3, 62, 0
5, 710400, Note_on_c, 3, 50, 105
5, 710400, Note_on_c, 3, 62, 105
5, 711168, Note_on_c, 3, 62, 0
5, 711168, Note_on_c, 3, 50, 0
5, 743040, Note_on_c, 3, 55, 70
5, 743424, Note_on_c, 3, 55, 0
5, 743520, Note_on_c, 3, 55, 70
5, 743904, Note_on_c, 3, 55, 0
5, 744000, Note_on_c, 3, 55, 70
5, 744384, Note_on_c, 3, 55, 0
5, 744480, Note_on_c, 3, 55, 70
5, 744864, Note_on_c, 3, 55, 0
5, 744960, Note_on_c, 3, 55, 70
5, 745344, Note_on_c, 3, 55, 0
5, 745440, Note_on_c, 3, 55, 70
5, 745824, Note_on_c, 3, 55, 0
5, 745920, Note_on_c, 3, 55, 70
5, 746304, Note_on_c, 3, 55, 0
5, 746400, Note_on_c, 3, 55, 70
5, 746784, Note_on_c, 3, 55, 0
5, 746880, Note_on_c, 3, 55, 70
5, 747264, Note_on_c, 3, 55, 0
5, 747360, Note_on_c, 3, 43, 70
5, 747744, Note_on_c, 3, 43, 0
5, 747840, Note_on_c, 3, 43, 70
5, 748224, Note_on_c, 3, 43, 0
5, 748320, Note_on_c, 3, 43, 70
5, 748704, Note_on_c, 3, 43, 0
5, 748800, Note_on_c, 3, 43, 70
5, 749184, Note_on_c, 3, 43, 0
5, 749280, Note_on_c, 3, 43, 70
5, 749664, Note_on_c, 3, 43, 0
5, 749760, Note_on_c, 3, 43, 70
5, 750144, Note_on_c, 3, 43, 0
5, 750240, Note_on_c, 3, 43, 70
5, 750624, Note_on_c, 3, 43, 0
5, 758400, Note_on_c, 3, 62, 70
5, 760224, Note_on_c, 3, 62, 0
5, 760320, Note_on_c, 3, 50, 70
5, 762144, Note_on_c, 3, 50, 0
5, 762240, Note_on_c, 3, 55, 70
5, 764064, Note_on_c, 3, 55, 0
5, 764160, Note_on_c, 3, 43, 70
5, 765984, Note_on_c, 3, 43, 0
5, 771840, Note_on_c, 3, 62, 105
5, 771840, Note_on_c, 3, 74, 105
5, 772128, Note_on_c, 3, 74, 0
5, 772128, Note_on_c, 3, 62, 0
5, 772320, Note_on_c, 3, 62, 105
5, 772320, Note_on_c, 3, 74, 105
5, 772608, Note_on_c, 3, 74, 0
5, 772608, Note_on_c, 3, 62, 0
5, 772800, Note_on_c, 3, 74, 105
5, 772800, Note_on_c, 3, 62, 105
5, 773088, Note_on_c, 3, 62, 0
5, 773088, Note_on_c, 3, 74, 0
5, 773280, Note_on_c, 3, 74, 105
5, 773280, Note_on_c, 3, 62, 105
5, 773568, Note_on_c, 3, 62, 0
5, 773568, Note_on_c, 3, 74, 0
5, 773760, Note_on_c, 3, 62, 105
5, 773760, Note_on_c, 3, 74, 105
5, 774528, Note_on_c, 3, 74, 0
5, 774528, Note_on_c, 3, 62, 0
5, 775680, Note_on_c, 3, 62, 105
5, 775680, Note_on_c, 3, 74, 105
5, 775968, Note_on_c, 3, 74, 0
5, 775968, Note_on_c, 3, 62, 0
5, 776160, Note_on_c, 3, 62, 105
5, 776160, Note_on_c, 3, 74, 105
5, 776448, Note_on_c, 3, 74, 0
5, 776448, Note_on_c, 3, 62, 0
5, 776640, Note_on_c, 3, 74, 105
5, 776640, Note_on_c, 3, 62, 105
5, 776928, Note_on_c, 3, 62, 0
5, 776928, Note_on_c, 3, 74, 0
5, 777120, Note_on_c, 3, 74, 105
5, 777120, Note_on_c, 3, 62, 105
5, 777408, Note_on_c, 3, 62, 0
5, 777408, Note_on_c, 3, 74, 0
5, 777600, Note_on_c, 3, 62, 105
5, 777600, Note_on_c, 3, 74, 105
5, 778368, Note_on_c, 3, 74, 0
5, 778368, Note_on_c, 3, 62, 0
5, 779520, Note_on_c, 3, 62, 105
5, 779520, Note_on_c, 3, 74, 105
5, 779808, Note_on_c, 3, 74, 0
5, 779808, Note_on_c, 3, 62, 0
5, 780000, Note_on_c, 3, 74, 105
5, 780000, Note_on_c, 3, 62, 105
5, 780288, Note_on_c, 3, 62, 0
5, 780288, Note_on_c, 3, 74, 0
5, 780480, Note_on_c, 3, 62, 105
5, 780480, Note_on_c, 3, 74, 105
5, 780768, Note_on_c, 3, 74, 0
5, 780768, Note_on_c, 3, 62, 0
5, 780960, Note_on_c, 3, 74, 105
5, 780960, Note_on_c, 3, 62, 105
5, 781248, Note_on_c, 3, 62, 0
5, 781248, Note_on_c, 3, 74, 0
5, 781440, Note_on_c, 3, 74, 105
5, 782208, Note_on_c, 3, 74, 0
5, 782400, Note_on_c, 3, 72, 105
5, 783168, Note_on_c, 3, 72, 0
5, 783360, Note_on_c, 3, 70, 105
5, 784128, Note_on_c, 3, 70, 0
5, 784320, Note_on_c, 3, 62, 105
5, 785088, Note_on_c, 3, 62, 0
5, 785280, Note_on_c, 3, 62, 92
5, 785664, Note_on_c, 3, 62, 0
5, 794880, Note_on_c, 3, 62, 92
5, 794880, Note_on_c, 3, 50, 92
5, 795216, Note_on_c, 3, 50, 0
5, 795216, Note_on_c, 3, 62, 0
5, 795360, Note_on_c, 3, 50, 105
5, 795360, Note_on_c, 3, 62, 105
5, 795696, Note_on_c, 3, 62, 0
5, 795696, Note_on_c, 3, 50, 0
5, 795840, Note_on_c, 3, 62, 105
5, 795840, Note_on_c, 3, 50, 105
5, 796176, Note_on_c, 3, 50, 0
5, 796176, Note_on_c, 3, 62, 0
5, 796320, Note_on_c, 3, 50, 105
5, 796320, Note_on_c, 3, 62, 105
5, 796656, Note_on_c, 3, 62, 0
5, 796656, Note_on_c, 3, 50, 0
5, 796800, Note_on_c, 3, 62, 105
5, 796800, Note_on_c, 3, 50, 105
5, 797136, Note_on_c, 3, 50, 0
5, 797136, Note_on_c, 3, 62, 0
5, 797280, Note_on_c, 3, 62, 105
5, 797280, Note_on_c, 3, 50, 105
5, 797616, Note_on_c, 3, 50, 0
5, 797616, Note_on_c, 3, 62, 0
5, 797760, Note_on_c, 3, 62, 105
5, 797760, Note_on_c, 3, 50, 105
5, 798096, Note_on_c, 3, 50, 0
5, 798096, Note_on_c, 3, 62, 0
5, 798240, Note_on_c, 3, 50, 105
5, 798240, Note_on_c, 3, 62, 105
5, 798576, Note_on_c, 3, 62, 0
5, 798576, Note_on_c, 3, 50, 0
5, 798720, Note_on_c, 3, 62, 105
5, 798720, Note_on_c, 3, 50, 105
5, 799056, Note_on_c, 3, 50, 0
5, 799056, Note_on_c, 3, 62, 0
5, 799200, Note_on_c, 3, 62, 105
5, 799200, Note_on_c, 3, 50, 105
5, 799536, Note_on_c, 3, 50, 0
5, 799536, Note_on_c, 3, 62, 0
5, 799680, Note_on_c, 3, 62, 105
5, 799680, Note_on_c, 3, 50, 105
5, 800016, Note_on_c, 3, 50, 0
5, 800016, Note_on_c, 3, 62, 0
5, 800160, Note_on_c, 3, 50, 105
5, 800160, Note_on_c, 3, 62, 105
5, 800496, Note_on_c, 3, 62, 0
5, 800496, Note_on_c, 3, 50, 0
5, 800640, Note_on_c, 3, 65, 105
5, 800640, Note_on_c, 3, 55, 105
5, 802464, Note_on_c, 3, 55, 0
5, 802464, Note_on_c, 3, 65, 0
5, 804480, Note_on_c, 3, 62, 116
5, 804480, Note_on_c, 3, 69, 116
5, 805248, Note_on_c, 3, 69, 0
5, 805248, Note_on_c, 3, 62, 0
5, 805440, Note_on_c, 3, 58, 116
5, 805440, Note_on_c, 3, 67, 116
5, 806208, Note_on_c, 3, 67, 0
5, 806208, Note_on_c, 3, 58, 0
5, 807360, Note_on_c, 3, 50, 116
5, 807360, Note_on_c, 3, 62, 116
5, 808128, Note_on_c, 3, 62, 0
5, 808128, Note_on_c, 3, 50, 0
5, 808320, Note_on_c, 3, 65, 116
5, 808320, Note_on_c, 3, 55, 116
5, 810144, Note_on_c, 3, 55, 0
5, 810144, Note_on_c, 3, 65, 0
5, 812160, Note_on_c, 3, 69, 116
5, 812160, Note_on_c, 3, 62, 116
5, 812928, Note_on_c, 3, 62, 0
5, 812928, Note_on_c, 3, 69, 0
5, 813120, Note_on_c, 3, 58, 116
5, 813120, Note_on_c, 3, 67, 116
5, 813888, Note_on_c, 3, 67, 0
5, 813888, Note_on_c, 3, 58, 0
5, 815040, Note_on_c, 3, 62, 116
5, 815808, Note_on_c, 3, 62, 0
5, 816000, Note_on_c, 3, 58, 116
5, 816480, Note_on_c, 3, 55, 116
5, 816816, Note_on_c, 3, 55, 0
5, 816816, Note_on_c, 3, 58, 0
5, 816960, Note_on_c, 3, 62, 116
5, 817296, Note_on_c, 3, 62, 0
5, 817440, Note_on_c, 3, 62, 116
5, 817776, Note_on_c, 3, 62, 0
5, 817920, Note_on_c, 3, 62, 116
5, 819072, Note_on_c, 3, 62, 0
5, 819360, Note_on_c, 3, 62, 116
5, 819744, Note_on_c, 3, 62, 0
5, 819840, Note_on_c, 3, 58, 116
5, 820320, Note_on_c, 3, 55, 116
5, 820656, Note_on_c, 3, 55, 0
5, 820656, Note_on_c, 3, 58, 0
5, 820800, Note_on_c, 3, 62, 116
5, 821136, Note_on_c, 3, 62, 0
5, 821280, Note_on_c, 3, 62, 116
5, 821616, Note_on_c, 3, 62, 0
5, 821760, Note_on_c, 3, 62, 116
5, 822912, Note_on_c, 3, 62, 0
5, 823200, Note_on_c, 3, 62, 116
5, 823584, Note_on_c, 3, 62, 0
5, 823680, Note_on_c, 3, 58, 116
5, 824160, Note_on_c, 3, 55, 116
5, 824496, Note_on_c, 3, 55, 0
5, 824496, Note_on_c, 3, 58, 0
5, 824640, Note_on_c, 3, 62, 116
5, 824976, Note_on_c, 3, 62, 0
5, 825120, Note_on_c, 3, 62, 116
5, 825456, Note_on_c, 3, 62, 0
5, 825600, Note_on_c, 3, 62, 116
5, 826752, Note_on_c, 3, 62, 0
5, 827040, Note_on_c, 3, 62, 116
5, 827424, Note_on_c, 3, 62, 0
5, 827520, Note_on_c, 3, 58, 116
5, 827520, Note_on_c, 3, 55, 116
5, 827904, Note_on_c, 3, 55, 0
5, 827904, Note_on_c, 3, 58, 0
5, 828480, Note_on_c, 3, 58, 116
5, 828480, Note_on_c, 3, 62, 116
5, 828864, Note_on_c, 3, 62, 0
5, 828864, Note_on_c, 3, 58, 0
5, 829440, Note_on_c, 3, 55, 116
5, 829440, Note_on_c, 3, 58, 116
5, 830400, Note_on_c, 3, 58, 0
5, 830400, Note_on_c, 3, 55, 0
5, 830400, End_track
6, 0, Start_track
6, 0, Sequencer_specific, 04, 43, 00, 01, 00
6, 0, Program_c, 4, 48
6, 0, Control_c, 4, 7, 126
6, 0, Control_c, 4, 10, 28
6, 0, Control_c, 4, 91, 80
6, 1440, Note_on_c, 4, 62, 70
6, 1920, Note_on_c, 4, 62, 0
6, 1920, Note_on_c, 4, 67, 70
6, 2208, Note_on_c, 4, 67, 0
6, 2400, Note_on_c, 4, 70, 70
6, 2688, Note_on_c, 4, 70, 0
6, 2880, Note_on_c, 4, 74, 70
6, 3168, Note_on_c, 4, 74, 0
6, 3360, Note_on_c, 4, 79, 70
6, 3648, Note_on_c, 4, 79, 0
6, 3840, Note_on_c, 4, 82, 70
6, 4800, Note_on_c, 4, 82, 0
6, 4800, Note_on_c, 4, 81, 70
6, 5088, Note_on_c, 4, 81, 0
6, 5280, Note_on_c, 4, 73, 105
6, 5424, Note_on_c, 4, 73, 0
6, 5520, Note_on_c, 4, 76, 105
6, 5664, Note_on_c, 4, 76, 0
6, 5760, Note_on_c, 4, 74, 105
6, 6000, Note_on_c, 4, 74, 0
6, 6000, Note_on_c, 4, 78, 105
6, 6144, Note_on_c, 4, 78, 0
6, 6240, Note_on_c, 4, 76, 105
6, 6384, Note_on_c, 4, 76, 0
6, 6480, Note_on_c, 4, 73, 105
6, 6624, Note_on_c, 4, 73, 0
6, 6720, Note_on_c, 4, 74, 105
6, 6960, Note_on_c, 4, 74, 0
6, 6960, Note_on_c, 4, 78, 105
6, 7104, Note_on_c, 4, 78, 0
6, 7200, Note_on_c, 4, 76, 105
6, 7344, Note_on_c, 4, 76, 0
6, 7440, Note_on_c, 4, 73, 105
6, 7584, Note_on_c, 4, 73, 0
6, 7680, Note_on_c, 4, 74, 105
6, 8448, Note_on_c, 4, 74, 0
6, 9120, Note_on_c, 4, 74, 70
6, 9600, Note_on_c, 4, 74, 0
6, 9600, Note_on_c, 4, 75, 70
6, 9888, Note_on_c, 4, 75, 0
6, 10080, Note_on_c, 4, 78, 70
6, 10368, Note_on_c, 4, 78, 0
6, 10560, Note_on_c, 4, 81, 70
6, 10848, Note_on_c, 4, 81, 0
6, 11040, Note_on_c, 4, 84, 70
6, 11328, Note_on_c, 4, 84, 0
6, 11520, Note_on_c, 4, 87, 70
6, 12480, Note_on_c, 4, 87, 0
6, 12480, Note_on_c, 4, 86, 70
6, 12768, Note_on_c, 4, 86, 0
6, 12960, Note_on_c, 4, 78, 105
6, 13104, Note_on_c, 4, 78, 0
6, 13200, Note_on_c, 4, 81, 105
6, 13344, Note_on_c, 4, 81, 0
6, 13440, Note_on_c, 4, 79, 105
6, 13680, Note_on_c, 4, 79, 0
6, 13680, Note_on_c, 4, 82, 105
6, 13824, Note_on_c, 4, 82, 0
6, 13920, Note_on_c, 4, 81, 105
6, 14064, Note_on_c, 4, 81, 0
6, 14160, Note_on_c, 4, 78, 105
6, 14304, Note_on_c, 4, 78, 0
6, 14400, Note_on_c, 4, 79, 105
6, 14640, Note_on_c, 4, 79, 0
6, 14640, Note_on_c, 4, 82, 105
6, 14784, Note_on_c, 4, 82, 0
6, 14880, Note_on_c, 4, 81, 105
6, 15024, Note_on_c, 4, 81, 0
6, 15120, Note_on_c, 4, 78, 105
6, 15264, Note_on_c, 4, 78, 0
6, 15360, Note_on_c, 4, 79, 105
6, 16128, Note_on_c, 4, 79, 0
6, 16800, Note_on_c, 4, 62, 70
6, 17280, Note_on_c, 4, 62, 0
6, 17280, Note_on_c, 4, 67, 70
6, 17568, Note_on_c, 4, 67, 0
6, 17760, Note_on_c, 4, 70, 70
6, 18048, Note_on_c, 4, 70, 0
6, 18240, Note_on_c, 4, 74, 70
6, 18528, Note_on_c, 4, 74, 0
6, 18720, Note_on_c, 4, 79, 70
6, 19008, Note_on_c, 4, 79, 0
6, 19200, Note_on_c, 4, 82, 70
6, 20160, Note_on_c, 4, 82, 0
6, 20160, Note_on_c, 4, 81, 70
6, 20448, Note_on_c, 4, 81, 0
6, 20640, Note_on_c, 4, 73, 105
6, 20784, Note_on_c, 4, 73, 0
6, 20880, Note_on_c, 4, 76, 105
6, 21024, Note_on_c, 4, 76, 0
6, 21120, Note_on_c, 4, 74, 105
6, 21360, Note_on_c, 4, 74, 0
6, 21360, Note_on_c, 4, 78, 105
6, 21504, Note_on_c, 4, 78, 0
6, 21600, Note_on_c, 4, 76, 105
6, 21744, Note_on_c, 4, 76, 0
6, 21840, Note_on_c, 4, 73, 105
6, 21984, Note_on_c, 4, 73, 0
6, 22080, Note_on_c, 4, 74, 105
6, 22320, Note_on_c, 4, 74, 0
6, 22320, Note_on_c, 4, 78, 105
6, 22464, Note_on_c, 4, 78, 0
6, 22560, Note_on_c, 4, 76, 105
6, 22704, Note_on_c, 4, 76, 0
6, 22800, Note_on_c, 4, 73, 105
6, 22944, Note_on_c, 4, 73, 0
6, 23040, Note_on_c, 4, 74, 105
6, 23808, Note_on_c, 4, 74, 0
6, 24480, Note_on_c, 4, 74, 70
6, 24960, Note_on_c, 4, 74, 0
6, 24960, Note_on_c, 4, 75, 70
6, 25248, Note_on_c, 4, 75, 0
6, 25440, Note_on_c, 4, 78, 70
6, 25728, Note_on_c, 4, 78, 0
6, 25920, Note_on_c, 4, 81, 70
6, 26208, Note_on_c, 4, 81, 0
6, 26400, Note_on_c, 4, 84, 70
6, 26688, Note_on_c, 4, 84, 0
6, 26880, Note_on_c, 4, 87, 70
6, 27840, Note_on_c, 4, 87, 0
6, 27840, Note_on_c, 4, 86, 70
6, 28128, Note_on_c, 4, 86, 0
6, 28320, Note_on_c, 4, 78, 105
6, 28464, Note_on_c, 4, 78, 0
6, 28560, Note_on_c, 4, 81, 105
6, 28704, Note_on_c, 4, 81, 0
6, 28800, Note_on_c, 4, 79, 105
6, 29040, Note_on_c, 4, 79, 0
6, 29040, Note_on_c, 4, 82, 105
6, 29184, Note_on_c, 4, 82, 0
6, 29280, Note_on_c, 4, 81, 105
6, 29424, Note_on_c, 4, 81, 0
6, 29520, Note_on_c, 4, 78, 105
6, 29664, Note_on_c, 4, 78, 0
6, 29760, Note_on_c, 4, 79, 105
6, 30000, Note_on_c, 4, 79, 0
6, 30000, Note_on_c, 4, 82, 105
6, 30144, Note_on_c, 4, 82, 0
6, 30240, Note_on_c, 4, 81, 105
6, 30384, Note_on_c, 4, 81, 0
6, 30480, Note_on_c, 4, 78, 105
6, 30624, Note_on_c, 4, 78, 0
6, 30720, Note_on_c, 4, 79, 105
6, 31488, Note_on_c, 4, 79, 0
6, 32160, Note_on_c, 4, 86, 105
6, 32448, Note_on_c, 4, 86, 0
6, 32640, Note_on_c, 4, 86, 105
6, 33792, Note_on_c, 4, 86, 0
6, 34080, Note_on_c, 4, 74, 105
6, 34368, Note_on_c, 4, 74, 0
6, 34560, Note_on_c, 4, 77, 70
6, 34620, Note_on_c, 4, 77, 0
6, 34620, Note_on_c, 4, 75, 70
6, 34680, Note_on_c, 4, 75, 0
6, 34680, Note_on_c, 4, 77, 70
6, 34740, Note_on_c, 4, 77, 0
6, 34740, Note_on_c, 4, 75, 70
6, 34800, Note_on_c, 4, 75, 0
6, 34800, Note_on_c, 4, 77, 70
6, 34860, Note_on_c, 4, 77, 0
6, 34860, Note_on_c, 4, 75, 70
6, 34920, Note_on_c, 4, 75, 0
6, 34920, Note_on_c, 4, 77, 70
6, 34980, Note_on_c, 4, 77, 0
6, 34980, Note_on_c, 4, 75, 70
6, 35040, Note_on_c, 4, 75, 0
6, 35040, Note_on_c, 4, 74, 70
6, 35304, Note_on_c, 4, 74, 0
6, 35520, Note_on_c, 4, 74, 70
6, 35784, Note_on_c, 4, 74, 0
6, 36000, Note_on_c, 4, 86, 105
6, 36288, Note_on_c, 4, 86, 0
6, 36480, Note_on_c, 4, 86, 105
6, 37632, Note_on_c, 4, 86, 0
6, 37920, Note_on_c, 4, 74, 105
6, 38304, Note_on_c, 4, 74, 0
6, 38400, Note_on_c, 4, 77, 70
6, 38460, Note_on_c, 4, 77, 0
6, 38460, Note_on_c, 4, 75, 70
6, 38520, Note_on_c, 4, 75, 0
6, 38520, Note_on_c, 4, 77, 70
6, 38580, Note_on_c, 4, 77, 0
6, 38580, Note_on_c, 4, 75, 70
6, 38640, Note_on_c, 4, 75, 0
6, 38640, Note_on_c, 4, 77, 70
6, 38700, Note_on_c, 4, 77, 0
6, 38700, Note_on_c, 4, 75, 70
6, 38760, Note_on_c, 4, 75, 0
6, 38760, Note_on_c, 4, 77, 70
6, 38820, Note_on_c, 4, 77, 0
6, 38820, Note_on_c, 4, 75, 70
6, 38880, Note_on_c, 4, 75, 0
6, 38880, Note_on_c, 4, 74, 70
6, 39144, Note_on_c, 4, 74, 0
6, 39360, Note_on_c, 4, 74, 70
6, 39744, Note_on_c, 4, 74, 0
6, 39840, Note_on_c, 4, 74, 70
6, 40320, Note_on_c, 4, 74, 0
6, 40320, Note_on_c, 4, 75, 70
6, 40608, Note_on_c, 4, 75, 0
6, 40800, Note_on_c, 4, 78, 70
6, 41088, Note_on_c, 4, 78, 0
6, 41280, Note_on_c, 4, 81, 70
6, 41568, Note_on_c, 4, 81, 0
6, 41760, Note_on_c, 4, 84, 70
6, 42048, Note_on_c, 4, 84, 0
6, 42240, Note_on_c, 4, 87, 70
6, 43200, Note_on_c, 4, 87, 0
6, 43200, Note_on_c, 4, 86, 70
6, 43488, Note_on_c, 4, 86, 0
6, 43680, Note_on_c, 4, 78, 105
6, 43824, Note_on_c, 4, 78, 0
6, 43920, Note_on_c, 4, 81, 105
6, 44064, Note_on_c, 4, 81, 0
6, 44160, Note_on_c, 4, 79, 105
6, 44400, Note_on_c, 4, 79, 0
6, 44400, Note_on_c, 4, 82, 105
6, 44544, Note_on_c, 4, 82, 0
6, 44640, Note_on_c, 4, 81, 105
6, 44784, Note_on_c, 4, 81, 0
6, 44880, Note_on_c, 4, 78, 105
6, 45024, Note_on_c, 4, 78, 0
6, 45120, Note_on_c, 4, 79, 105
6, 45360, Note_on_c, 4, 79, 0
6, 45360, Note_on_c, 4, 82, 105
6, 45504, Note_on_c, 4, 82, 0
6, 45600, Note_on_c, 4, 81, 105
6, 45744, Note_on_c, 4, 81, 0
6, 45840, Note_on_c, 4, 78, 105
6, 45984, Note_on_c, 4, 78, 0
6, 46080, Note_on_c, 4, 79, 105
6, 46848, Note_on_c, 4, 79, 0
6, 47520, Note_on_c, 4, 86, 105
6, 47808, Note_on_c, 4, 86, 0
6, 48000, Note_on_c, 4, 86, 105
6, 49152, Note_on_c, 4, 86, 0
6, 49440, Note_on_c, 4, 74, 105
6, 49728, Note_on_c, 4, 74, 0
6, 49920, Note_on_c, 4, 77, 70
6, 49980, Note_on_c, 4, 77, 0
6, 49980, Note_on_c, 4, 75, 70
6, 50040, Note_on_c, 4, 75, 0
6, 50040, Note_on_c, 4, 77, 70
6, 50100, Note_on_c, 4, 77, 0
6, 50100, Note_on_c, 4, 75, 70
6, 50160, Note_on_c, 4, 75, 0
6, 50160, Note_on_c, 4, 77, 70
6, 50220, Note_on_c, 4, 77, 0
6, 50220, Note_on_c, 4, 75, 70
6, 50280, Note_on_c, 4, 75, 0
6, 50280, Note_on_c, 4, 77, 70
6, 50340, Note_on_c, 4, 77, 0
6, 50340, Note_on_c, 4, 75, 70
6, 50400, Note_on_c, 4, 75, 0
6, 50400, Note_on_c, 4, 74, 70
6, 50664, Note_on_c, 4, 74, 0
6, 50880, Note_on_c, 4, 74, 70
6, 51144, Note_on_c, 4, 74, 0
6, 51360, Note_on_c, 4, 86, 105
6, 51648, Note_on_c, 4, 86, 0
6, 51840, Note_on_c, 4, 86, 105
6, 52992, Note_on_c, 4, 86, 0
6, 53280, Note_on_c, 4, 74, 105
6, 53664, Note_on_c, 4, 74, 0
6, 53760, Note_on_c, 4, 77, 70
6, 53820, Note_on_c, 4, 77, 0
6, 53820, Note_on_c, 4, 75, 70
6, 53880, Note_on_c, 4, 75, 0
6, 53880, Note_on_c, 4, 77, 70
6, 53940, Note_on_c, 4, 77, 0
6, 53940, Note_on_c, 4, 75, 70
6, 54000, Note_on_c, 4, 75, 0
6, 54000, Note_on_c, 4, 77, 70
6, 54060, Note_on_c, 4, 77, 0
6, 54060, Note_on_c, 4, 75, 70
6, 54120, Note_on_c, 4, 75, 0
6, 54120, Note_on_c, 4, 77, 70
6, 54180, Note_on_c, 4, 77, 0
6, 54180, Note_on_c, 4, 75, 70
6, 54240, Note_on_c, 4, 75, 0
6, 54240, Note_on_c, 4, 74, 70
6, 54504, Note_on_c, 4, 74, 0
6, 54720, Note_on_c, 4, 74, 70
6, 55104, Note_on_c, 4, 74, 0
6, 55200, Note_on_c, 4, 74, 70
6, 55680, Note_on_c, 4, 74, 0
6, 55680, Note_on_c, 4, 75, 70
6, 55968, Note_on_c, 4, 75, 0
6, 56160, Note_on_c, 4, 78, 70
6, 56448, Note_on_c, 4, 78, 0
6, 56640, Note_on_c, 4, 81, 70
6, 56928, Note_on_c, 4, 81, 0
6, 57120, Note_on_c, 4, 84, 70
6, 57408, Note_on_c, 4, 84, 0
6, 57600, Note_on_c, 4, 87, 70
6, 58560, Note_on_c, 4, 87, 0
6, 58560, Note_on_c, 4, 86, 70
6, 58848, Note_on_c, 4, 86, 0
6, 59040, Note_on_c, 4, 78, 116
6, 59184, Note_on_c, 4, 78, 0
6, 59280, Note_on_c, 4, 81, 116
6, 59424, Note_on_c, 4, 81, 0
6, 59520, Note_on_c, 4, 79, 116
6, 59760, Note_on_c, 4, 79, 0
6, 59760, Note_on_c, 4, 82, 116
6, 59904, Note_on_c, 4, 82, 0
6, 60000, Note_on_c, 4, 81, 116
6, 60144, Note_on_c, 4, 81, 0
6, 60240, Note_on_c, 4, 78, 116
6, 60384, Note_on_c, 4, 78, 0
6, 60480, Note_on_c, 4, 79, 116
6, 60720, Note_on_c, 4, 79, 0
6, 60720, Note_on_c, 4, 82, 116
6, 60864, Note_on_c, 4, 82, 0
6, 60960, Note_on_c, 4, 81, 116
6, 61104, Note_on_c, 4, 81, 0
6, 61200, Note_on_c, 4, 78, 116
6, 61344, Note_on_c, 4, 78, 0
6, 61440, Note_on_c, 4, 79, 116
6, 61632, Note_on_c, 4, 79, 0
6, 61680, Note_on_c, 4, 74, 116
6, 61872, Note_on_c, 4, 74, 0
6, 61920, Note_on_c, 4, 82, 105
6, 62112, Note_on_c, 4, 82, 0
6, 62160, Note_on_c, 4, 81, 105
6, 62352, Note_on_c, 4, 81, 0
6, 62400, Note_on_c, 4, 79, 105
6, 62592, Note_on_c, 4, 79, 0
6, 62640, Note_on_c, 4, 77, 105
6, 62832, Note_on_c, 4, 77, 0
6, 62880, Note_on_c, 4, 75, 105
6, 63072, Note_on_c, 4, 75, 0
6, 63120, Note_on_c, 4, 74, 105
6, 63312, Note_on_c, 4, 74, 0
6, 63360, Note_on_c, 4, 72, 105
6, 63600, Note_on_c, 4, 72, 0
6, 63600, Note_on_c, 4, 75, 105
6, 63744, Note_on_c, 4, 75, 0
6, 63840, Note_on_c, 4, 74, 105
6, 63984, Note_on_c, 4, 74, 0
6, 64080, Note_on_c, 4, 71, 105
6, 64224, Note_on_c, 4, 71, 0
6, 64320, Note_on_c, 4, 72, 105
6, 64560, Note_on_c, 4, 72, 0
6, 64560, Note_on_c, 4, 75, 105
6, 64704, Note_on_c, 4, 75, 0
6, 64800, Note_on_c, 4, 74, 105
6, 64944, Note_on_c, 4, 74, 0
6, 65040, Note_on_c, 4, 71, 105
6, 65184, Note_on_c, 4, 71, 0
6, 65280, Note_on_c, 4, 72, 105
6, 65472, Note_on_c, 4, 72, 0
6, 65520, Note_on_c, 4, 67, 105
6, 65712, Note_on_c, 4, 67, 0
6, 65760, Note_on_c, 4, 75, 105
6, 65952, Note_on_c, 4, 75, 0
6, 66000, Note_on_c, 4, 74, 105
6, 66192, Note_on_c, 4, 74, 0
6, 66240, Note_on_c, 4, 72, 105
6, 66432, Note_on_c, 4, 72, 0
6, 66480, Note_on_c, 4, 70, 105
6, 66672, Note_on_c, 4, 70, 0
6, 66720, Note_on_c, 4, 69, 105
6, 66912, Note_on_c, 4, 69, 0
6, 66960, Note_on_c, 4, 67, 105
6, 67152, Note_on_c, 4, 67, 0
6, 67200, Note_on_c, 4, 66, 105
6, 67440, Note_on_c, 4, 66, 0
6, 67440, Note_on_c, 4, 69, 105
6, 67584, Note_on_c, 4, 69, 0
6, 67680, Note_on_c, 4, 67, 105
6, 67824, Note_on_c, 4, 67, 0
6, 67920, Note_on_c, 4, 64, 105
6, 68064, Note_on_c, 4, 64, 0
6, 68160, Note_on_c, 4, 66, 105
6, 68400, Note_on_c, 4, 66, 0
6, 68400, Note_on_c, 4, 69, 105
6, 68544, Note_on_c, 4, 69, 0
6, 68640, Note_on_c, 4, 67, 105
6, 68784, Note_on_c, 4, 67, 0
6, 68880, Note_on_c, 4, 64, 105
6, 69024, Note_on_c, 4, 64, 0
6, 69120, Note_on_c, 4, 66, 105
6, 69312, Note_on_c, 4, 66, 0
6, 69360, Note_on_c, 4, 62, 105
6, 69552, Note_on_c, 4, 62, 0
6, 69600, Note_on_c, 4, 69, 105
6, 69792, Note_on_c, 4, 69, 0
6, 69840, Note_on_c, 4, 67, 105
6, 70032, Note_on_c, 4, 67, 0
6, 70080, Note_on_c, 4, 66, 105
6, 70272, Note_on_c, 4, 66, 0
6, 70320, Note_on_c, 4, 63, 105
6, 70512, Note_on_c, 4, 63, 0
6, 70560, Note_on_c, 4, 62, 105
6, 70752, Note_on_c, 4, 62, 0
6, 70800, Note_on_c, 4, 60, 105
6, 70992, Note_on_c, 4, 60, 0
6, 71040, Note_on_c, 4, 58, 105
6, 71232, Note_on_c, 4, 58, 0
6, 71280, Note_on_c, 4, 62, 105
6, 71472, Note_on_c, 4, 62, 0
6, 71520, Note_on_c, 4, 67, 105
6, 71712, Note_on_c, 4, 67, 0
6, 71760, Note_on_c, 4, 70, 105
6, 71952, Note_on_c, 4, 70, 0
6, 72000, Note_on_c, 4, 74, 105
6, 72192, Note_on_c, 4, 74, 0
6, 72240, Note_on_c, 4, 74, 105
6, 72432, Note_on_c, 4, 74, 0
6, 72480, Note_on_c, 4, 74, 105
6, 72672, Note_on_c, 4, 74, 0
6, 72720, Note_on_c, 4, 74, 105
6, 72912, Note_on_c, 4, 74, 0
6, 72960, Note_on_c, 4, 72, 105
6, 73152, Note_on_c, 4, 72, 0
6, 73200, Note_on_c, 4, 70, 105
6, 73392, Note_on_c, 4, 70, 0
6, 73440, Note_on_c, 4, 69, 105
6, 73632, Note_on_c, 4, 69, 0
6, 73680, Note_on_c, 4, 67, 105
6, 73872, Note_on_c, 4, 67, 0
6, 73920, Note_on_c, 4, 66, 105
6, 74112, Note_on_c, 4, 66, 0
6, 74160, Note_on_c, 4, 63, 105
6, 74352, Note_on_c, 4, 63, 0
6, 74400, Note_on_c, 4, 62, 105
6, 74592, Note_on_c, 4, 62, 0
6, 74640, Note_on_c, 4, 60, 105
6, 74832, Note_on_c, 4, 60, 0
6, 74880, Note_on_c, 4, 58, 105
6, 75072, Note_on_c, 4, 58, 0
6, 75120, Note_on_c, 4, 62, 105
6, 75312, Note_on_c, 4, 62, 0
6, 75360, Note_on_c, 4, 67, 105
6, 75552, Note_on_c, 4, 67, 0
6, 75600, Note_on_c, 4, 70, 105
6, 75792, Note_on_c, 4, 70, 0
6, 75840, Note_on_c, 4, 74, 105
6, 76032, Note_on_c, 4, 74, 0
6, 76080, Note_on_c, 4, 74, 105
6, 76272, Note_on_c, 4, 74, 0
6, 76320, Note_on_c, 4, 74, 105
6, 76512, Note_on_c, 4, 74, 0
6, 76560, Note_on_c, 4, 74, 105
6, 76752, Note_on_c, 4, 74, 0
6, 76800, Note_on_c, 4, 72, 105
6, 76992, Note_on_c, 4, 72, 0
6, 77040, Note_on_c, 4, 70, 105
6, 77232, Note_on_c, 4, 70, 0
6, 77280, Note_on_c, 4, 69, 105
6, 77472, Note_on_c, 4, 69, 0
6, 77520, Note_on_c, 4, 67, 105
6, 77712, Note_on_c, 4, 67, 0
6, 77760, Note_on_c, 4, 66, 105
6, 77952, Note_on_c, 4, 66, 0
6, 78000, Note_on_c, 4, 75, 105
6, 78192, Note_on_c, 4, 75, 0
6, 78240, Note_on_c, 4, 74, 105
6, 78432, Note_on_c, 4, 74, 0
6, 78480, Note_on_c, 4, 72, 105
6, 78672, Note_on_c, 4, 72, 0
6, 78720, Note_on_c, 4, 70, 105
6, 78912, Note_on_c, 4, 70, 0
6, 78960, Note_on_c, 4, 74, 105
6, 79152, Note_on_c, 4, 74, 0
6, 79200, Note_on_c, 4, 79, 105
6, 79392, Note_on_c, 4, 79, 0
6, 79440, Note_on_c, 4, 82, 105
6, 79632, Note_on_c, 4, 82, 0
6, 79680, Note_on_c, 4, 86, 105
6, 79872, Note_on_c, 4, 86, 0
6, 79920, Note_on_c, 4, 86, 105
6, 80112, Note_on_c, 4, 86, 0
6, 80160, Note_on_c, 4, 86, 105
6, 80352, Note_on_c, 4, 86, 0
6, 80400, Note_on_c, 4, 86, 105
6, 80592, Note_on_c, 4, 86, 0
6, 80640, Note_on_c, 4, 72, 105
6, 80832, Note_on_c, 4, 72, 0
6, 80880, Note_on_c, 4, 75, 105
6, 81072, Note_on_c, 4, 75, 0
6, 81120, Note_on_c, 4, 79, 105
6, 81312, Note_on_c, 4, 79, 0
6, 81360, Note_on_c, 4, 84, 105
6, 81552, Note_on_c, 4, 84, 0
6, 81600, Note_on_c, 4, 87, 105
6, 81792, Note_on_c, 4, 87, 0
6, 81840, Note_on_c, 4, 87, 105
6, 82032, Note_on_c, 4, 87, 0
6, 82080, Note_on_c, 4, 87, 105
6, 82272, Note_on_c, 4, 87, 0
6, 82320, Note_on_c, 4, 87, 105
6, 82512, Note_on_c, 4, 87, 0
6, 82560, Note_on_c, 4, 69, 105
6, 82752, Note_on_c, 4, 69, 0
6, 82800, Note_on_c, 4, 72, 105
6, 82992, Note_on_c, 4, 72, 0
6, 83040, Note_on_c, 4, 77, 105
6, 83232, Note_on_c, 4, 77, 0
6, 83280, Note_on_c, 4, 81, 105
6, 83472, Note_on_c, 4, 81, 0
6, 83520, Note_on_c, 4, 84, 105
6, 83712, Note_on_c, 4, 84, 0
6, 83760, Note_on_c, 4, 84, 105
6, 83952, Note_on_c, 4, 84, 0
6, 84000, Note_on_c, 4, 84, 105
6, 84192, Note_on_c, 4, 84, 0
6, 84240, Note_on_c, 4, 84, 105
6, 84432, Note_on_c, 4, 84, 0
6, 84480, Note_on_c, 4, 70, 105
6, 84672, Note_on_c, 4, 70, 0
6, 84720, Note_on_c, 4, 74, 105
6, 84912, Note_on_c, 4, 74, 0
6, 84960, Note_on_c, 4, 77, 105
6, 85152, Note_on_c, 4, 77, 0
6, 85200, Note_on_c, 4, 82, 105
6, 85392, Note_on_c, 4, 82, 0
6, 85440, Note_on_c, 4, 86, 105
6, 85632, Note_on_c, 4, 86, 0
6, 85680, Note_on_c, 4, 86, 105
6, 85872, Note_on_c, 4, 86, 0
6, 85920, Note_on_c, 4, 86, 105
6, 86112, Note_on_c, 4, 86, 0
6, 86160, Note_on_c, 4, 86, 105
6, 86352, Note_on_c, 4, 86, 0
6, 86400, Note_on_c, 4, 79, 105
6, 86592, Note_on_c, 4, 79, 0
6, 86640, Note_on_c, 4, 81, 105
6, 86832, Note_on_c, 4, 81, 0
6, 86880, Note_on_c, 4, 82, 105
6, 87072, Note_on_c, 4, 82, 0
6, 87120, Note_on_c, 4, 81, 105
6, 87312, Note_on_c, 4, 81, 0
6, 87360, Note_on_c, 4, 79, 105
6, 87552, Note_on_c, 4, 79, 0
6, 87600, Note_on_c, 4, 77, 105
6, 87792, Note_on_c, 4, 77, 0
6, 87840, Note_on_c, 4, 75, 105
6, 88032, Note_on_c, 4, 75, 0
6, 88080, Note_on_c, 4, 74, 105
6, 88272, Note_on_c, 4, 74, 0
6, 88320, Note_on_c, 4, 75, 105
6, 88512, Note_on_c, 4, 75, 0
6, 88560, Note_on_c, 4, 77, 105
6, 88752, Note_on_c, 4, 77, 0
6, 88800, Note_on_c, 4, 79, 105
6, 88992, Note_on_c, 4, 79, 0
6, 89040, Note_on_c, 4, 77, 105
6, 89232, Note_on_c, 4, 77, 0
6, 89280, Note_on_c, 4, 75, 105
6, 89472, Note_on_c, 4, 75, 0
6, 89520, Note_on_c, 4, 74, 105
6, 89712, Note_on_c, 4, 74, 0
6, 89760, Note_on_c, 4, 72, 105
6, 89952, Note_on_c, 4, 72, 0
6, 90000, Note_on_c, 4, 70, 105
6, 90192, Note_on_c, 4, 70, 0
6, 90240, Note_on_c, 4, 69, 105
6, 90432, Note_on_c, 4, 69, 0
6, 90480, Note_on_c, 4, 70, 105
6, 90672, Note_on_c, 4, 70, 0
6, 90720, Note_on_c, 4, 72, 105
6, 90912, Note_on_c, 4, 72, 0
6, 90960, Note_on_c, 4, 70, 105
6, 91152, Note_on_c, 4, 70, 0
6, 91200, Note_on_c, 4, 69, 105
6, 91392, Note_on_c, 4, 69, 0
6, 91440, Note_on_c, 4, 67, 105
6, 91632, Note_on_c, 4, 67, 0
6, 91680, Note_on_c, 4, 65, 105
6, 91872, Note_on_c, 4, 65, 0
6, 91920, Note_on_c, 4, 64, 105
6, 92112, Note_on_c, 4, 64, 0
6, 92160, Note_on_c, 4, 65, 105
6, 92928, Note_on_c, 4, 65, 0
6, 94080, Note_on_c, 4, 77, 116
6, 94368, Note_on_c, 4, 77, 0
6, 94560, Note_on_c, 4, 77, 116
6, 94848, Note_on_c, 4, 77, 0
6, 95040, Note_on_c, 4, 77, 116
6, 95328, Note_on_c, 4, 77, 0
6, 95520, Note_on_c, 4, 77, 116
6, 95808, Note_on_c, 4, 77, 0
6, 96000, Note_on_c, 4, 77, 116
6, 96768, Note_on_c, 4, 77, 0
6, 97920, Note_on_c, 4, 86, 116
6, 98208, Note_on_c, 4, 86, 0
6, 98400, Note_on_c, 4, 86, 116
6, 98688, Note_on_c, 4, 86, 0
6, 98880, Note_on_c, 4, 86, 116
6, 99168, Note_on_c, 4, 86, 0
6, 99360, Note_on_c, 4, 86, 116
6, 99648, Note_on_c, 4, 86, 0
6, 99840, Note_on_c, 4, 86, 116
6, 100608, Note_on_c, 4, 86, 0
6, 101760, Note_on_c, 4, 84, 116
6, 102048, Note_on_c, 4, 84, 0
6, 102240, Note_on_c, 4, 83, 116
6, 102528, Note_on_c, 4, 83, 0
6, 102720, Note_on_c, 4, 84, 116
6, 103008, Note_on_c, 4, 84, 0
6, 103200, Note_on_c, 4, 83, 116
6, 103488, Note_on_c, 4, 83, 0
6, 103680, Note_on_c, 4, 84, 116
6, 104448, Note_on_c, 4, 84, 0
6, 105600, Note_on_c, 4, 87, 116
6, 105888, Note_on_c, 4, 87, 0
6, 106080, Note_on_c, 4, 87, 116
6, 106368, Note_on_c, 4, 87, 0
6, 106560, Note_on_c, 4, 87, 116
6, 106848, Note_on_c, 4, 87, 0
6, 107040, Note_on_c, 4, 87, 116
6, 107328, Note_on_c, 4, 87, 0
6, 107520, Note_on_c, 4, 87, 127
6, 107712, Note_on_c, 4, 87, 0
6, 107760, Note_on_c, 4, 86, 116
6, 107952, Note_on_c, 4, 86, 0
6, 108000, Note_on_c, 4, 84, 116
6, 108192, Note_on_c, 4, 84, 0
6, 108240, Note_on_c, 4, 82, 116
6, 108432, Note_on_c, 4, 82, 0
6, 108480, Note_on_c, 4, 81, 116
6, 108672, Note_on_c, 4, 81, 0
6, 108720, Note_on_c, 4, 79, 116
6, 108912, Note_on_c, 4, 79, 0
6, 108960, Note_on_c, 4, 77, 116
6, 109152, Note_on_c, 4, 77, 0
6, 109200, Note_on_c, 4, 75, 116
6, 109392, Note_on_c, 4, 75, 0
6, 109440, Note_on_c, 4, 74, 116
6, 110592, Note_on_c, 4, 74, 0
6, 111120, Note_on_c, 4, 86, 116
6, 111312, Note_on_c, 4, 86, 0
6, 111360, Note_on_c, 4, 84, 127
6, 111552, Note_on_c, 4, 84, 0
6, 111600, Note_on_c, 4, 82, 116
6, 111792, Note_on_c, 4, 82, 0
6, 111840, Note_on_c, 4, 81, 116
6, 112032, Note_on_c, 4, 81, 0
6, 112080, Note_on_c, 4, 79, 116
6, 112272, Note_on_c, 4, 79, 0
6, 112320, Note_on_c, 4, 78, 116
6, 112512, Note_on_c, 4, 78, 0
6, 112560, Note_on_c, 4, 75, 116
6, 112752, Note_on_c, 4, 75, 0
6, 112800, Note_on_c, 4, 74, 116
6, 112992, Note_on_c, 4, 74, 0
6, 113040, Note_on_c, 4, 72, 116
6, 113232, Note_on_c, 4, 72, 0
6, 113280, Note_on_c, 4, 70, 116
6, 114432, Note_on_c, 4, 70, 0
6, 114960, Note_on_c, 4, 82, 116
6, 115152, Note_on_c, 4, 82, 0
6, 115200, Note_on_c, 4, 80, 127
6, 115392, Note_on_c, 4, 80, 0
6, 115440, Note_on_c, 4, 79, 116
6, 115632, Note_on_c, 4, 79, 0
6, 115680, Note_on_c, 4, 77, 116
6, 115872, Note_on_c, 4, 77, 0
6, 115920, Note_on_c, 4, 75, 116
6, 116112, Note_on_c, 4, 75, 0
6, 116160, Note_on_c, 4, 74, 116
6, 116352, Note_on_c, 4, 74, 0
6, 116400, Note_on_c, 4, 72, 116
6, 116592, Note_on_c, 4, 72, 0
6, 116640, Note_on_c, 4, 70, 116
6, 116832, Note_on_c, 4, 70, 0
6, 116880, Note_on_c, 4, 68, 116
6, 117072, Note_on_c, 4, 68, 0
6, 117120, Note_on_c, 4, 67, 116
6, 118272, Note_on_c, 4, 67, 0
6, 118800, Note_on_c, 4, 79, 116
6, 118992, Note_on_c, 4, 79, 0
6, 119040, Note_on_c, 4, 77, 127
6, 119232, Note_on_c, 4, 77, 0
6, 119280, Note_on_c, 4, 75, 116
6, 119472, Note_on_c, 4, 75, 0
6, 119520, Note_on_c, 4, 74, 116
6, 119712, Note_on_c, 4, 74, 0
6, 119760, Note_on_c, 4, 72, 116
6, 119952, Note_on_c, 4, 72, 0
6, 120000, Note_on_c, 4, 71, 116
6, 120192, Note_on_c, 4, 71, 0
6, 120240, Note_on_c, 4, 68, 116
6, 120432, Note_on_c, 4, 68, 0
6, 120480, Note_on_c, 4, 67, 116
6, 120672, Note_on_c, 4, 67, 0
6, 120720, Note_on_c, 4, 65, 116
6, 120912, Note_on_c, 4, 65, 0
6, 120960, Note_on_c, 4, 63, 116
6, 121152, Note_on_c, 4, 63, 0
6, 121200, Note_on_c, 4, 65, 116
6, 121392, Note_on_c, 4, 65, 0
6, 121440, Note_on_c, 4, 67, 116
6, 121632, Note_on_c, 4, 67, 0
6, 121680, Note_on_c, 4, 63, 116
6, 121872, Note_on_c, 4, 63, 0
6, 121920, Note_on_c, 4, 62, 116
6, 122112, Note_on_c, 4, 62, 0
6, 122160, Note_on_c, 4, 63, 116
6, 122352, Note_on_c, 4, 63, 0
6, 122400, Note_on_c, 4, 65, 116
6, 122592, Note_on_c, 4, 65, 0
6, 122640, Note_on_c, 4, 62, 116
6, 122832, Note_on_c, 4, 62, 0
6, 122880, Note_on_c, 4, 60, 116
6, 123072, Note_on_c, 4, 60, 0
6, 123120, Note_on_c, 4, 62, 116
6, 123312, Note_on_c, 4, 62, 0
6, 123360, Note_on_c, 4, 63, 116
6, 123552, Note_on_c, 4, 63, 0
6, 123600, Note_on_c, 4, 60, 116
6, 123792, Note_on_c, 4, 60, 0
6, 123840, Note_on_c, 4, 58, 116
6, 124032, Note_on_c, 4, 58, 0
6, 124080, Note_on_c, 4, 60, 116
6, 124272, Note_on_c, 4, 60, 0
6, 124320, Note_on_c, 4, 62, 116
6, 124512, Note_on_c, 4, 62, 0
6, 124560, Note_on_c, 4, 58, 116
6, 124752, Note_on_c, 4, 58, 0
6, 124800, Note_on_c, 4, 57, 127
6, 124992, Note_on_c, 4, 57, 0
6, 125040, Note_on_c, 4, 60, 105
6, 125232, Note_on_c, 4, 60, 0
6, 125280, Note_on_c, 4, 65, 105
6, 125472, Note_on_c, 4, 65, 0
6, 125520, Note_on_c, 4, 69, 105
6, 125712, Note_on_c, 4, 69, 0
6, 125760, Note_on_c, 4, 72, 105
6, 125952, Note_on_c, 4, 72, 0
6, 126000, Note_on_c, 4, 72, 105
6, 126192, Note_on_c, 4, 72, 0
6, 126240, Note_on_c, 4, 72, 105
6, 126432, Note_on_c, 4, 72, 0
6, 126480, Note_on_c, 4, 72, 105
6, 126672, Note_on_c, 4, 72, 0
6, 126720, Note_on_c, 4, 55, 125
6, 126912, Note_on_c, 4, 55, 0
6, 126960, Note_on_c, 4, 58, 105
6, 127152, Note_on_c, 4, 58, 0
6, 127200, Note_on_c, 4, 64, 105
6, 127392, Note_on_c, 4, 64, 0
6, 127440, Note_on_c, 4, 67, 105
6, 127632, Note_on_c, 4, 67, 0
6, 127680, Note_on_c, 4, 70, 105
6, 127872, Note_on_c, 4, 70, 0
6, 127920, Note_on_c, 4, 70, 105
6, 128112, Note_on_c, 4, 70, 0
6, 128160, Note_on_c, 4, 70, 105
6, 128352, Note_on_c, 4, 70, 0
6, 128400, Note_on_c, 4, 70, 105
6, 128592, Note_on_c, 4, 70, 0
6, 128640, Note_on_c, 4, 69, 125
6, 128832, Note_on_c, 4, 69, 0
6, 128880, Note_on_c, 4, 72, 105
6, 129072, Note_on_c, 4, 72, 0
6, 129120, Note_on_c, 4, 77, 105
6, 129312, Note_on_c, 4, 77, 0
6, 129360, Note_on_c, 4, 81, 105
6, 129552, Note_on_c, 4, 81, 0
6, 129600, Note_on_c, 4, 84, 105
6, 129792, Note_on_c, 4, 84, 0
6, 129840, Note_on_c, 4, 84, 105
6, 130032, Note_on_c, 4, 84, 0
6, 130080, Note_on_c, 4, 84, 105
6, 130272, Note_on_c, 4, 84, 0
6, 130320, Note_on_c, 4, 84, 105
6, 130512, Note_on_c, 4, 84, 0
6, 130560, Note_on_c, 4, 67, 125
6, 130752, Note_on_c, 4, 67, 0
6, 130800, Note_on_c, 4, 70, 105
6, 130992, Note_on_c, 4, 70, 0
6, 131040, Note_on_c, 4, 76, 105
6, 131232, Note_on_c, 4, 76, 0
6, 131280, Note_on_c, 4, 79, 105
6, 131472, Note_on_c, 4, 79, 0
6, 131520, Note_on_c, 4, 82, 105
6, 131712, Note_on_c, 4, 82, 0
6, 131760, Note_on_c, 4, 82, 105
6, 131952, Note_on_c, 4, 82, 0
6, 132000, Note_on_c, 4, 82, 105
6, 132192, Note_on_c, 4, 82, 0
6, 132240, Note_on_c, 4, 82, 105
6, 132432, Note_on_c, 4, 82, 0
6, 132480, Note_on_c, 4, 81, 105
6, 132864, Note_on_c, 4, 81, 0
6, 133440, Note_on_c, 4, 77, 105
6, 133440, Note_on_c, 4, 69, 105
6, 133824, Note_on_c, 4, 69, 0
6, 133824, Note_on_c, 4, 77, 0
6, 134400, Note_on_c, 4, 57, 92
6, 134400, Note_on_c, 4, 65, 92
6, 135168, Note_on_c, 4, 65, 0
6, 135168, Note_on_c, 4, 57, 0
6, 135840, Note_on_c, 4, 77, 70
6, 136224, Note_on_c, 4, 77, 0
6, 136320, Note_on_c, 4, 77, 70
6, 138048, Note_on_c, 4, 77, 0
6, 138240, Note_on_c, 4, 76, 70
6, 138360, Note_on_c, 4, 76, 0
6, 138360, Note_on_c, 4, 77, 70
6, 139032, Note_on_c, 4, 77, 0
6, 139200, Note_on_c, 4, 76, 70
6, 139320, Note_on_c, 4, 76, 0
6, 139320, Note_on_c, 4, 77, 70
6, 139992, Note_on_c, 4, 77, 0
6, 140160, Note_on_c, 4, 82, 92
6, 140880, Note_on_c, 4, 82, 0
6, 140880, Note_on_c, 4, 79, 70
6, 141072, Note_on_c, 4, 79, 0
6, 141120, Note_on_c, 4, 75, 70
6, 143040, Note_on_c, 4, 75, 0
6, 143040, Note_on_c, 4, 74, 70
6, 144384, Note_on_c, 4, 74, 0
6, 144720, Note_on_c, 4, 71, 70
6, 144960, Note_on_c, 4, 71, 0
6, 144960, Note_on_c, 4, 72, 70
6, 145344, Note_on_c, 4, 72, 0
6, 145680, Note_on_c, 4, 74, 70
6, 145920, Note_on_c, 4, 74, 0
6, 145920, Note_on_c, 4, 75, 70
6, 146304, Note_on_c, 4, 75, 0
6, 146640, Note_on_c, 4, 77, 70
6, 146880, Note_on_c, 4, 77, 0
6, 146880, Note_on_c, 4, 78, 70
6, 147264, Note_on_c, 4, 78, 0
6, 147600, Note_on_c, 4, 79, 70
6, 147792, Note_on_c, 4, 79, 0
6, 147840, Note_on_c, 4, 70, 70
6, 149280, Note_on_c, 4, 70, 0
6, 149280, Note_on_c, 4, 74, 70
6, 149520, Note_on_c, 4, 74, 0
6, 149520, Note_on_c, 4, 72, 70
6, 149712, Note_on_c, 4, 72, 0
6, 149760, Note_on_c, 4, 72, 70
6, 150240, Note_on_c, 4, 72, 0
6, 150240, Note_on_c, 4, 74, 70
6, 150720, Note_on_c, 4, 74, 0
6, 150720, Note_on_c, 4, 75, 70
6, 151200, Note_on_c, 4, 75, 0
6, 151200, Note_on_c, 4, 76, 70
6, 151584, Note_on_c, 4, 76, 0
6, 151680, Note_on_c, 4, 77, 70
6, 153984, Note_on_c, 4, 77, 0
6, 154080, Note_on_c, 4, 78, 70
6, 154560, Note_on_c, 4, 78, 0
6, 154560, Note_on_c, 4, 79, 70
6, 155040, Note_on_c, 4, 79, 0
6, 155040, Note_on_c, 4, 81, 70
6, 155520, Note_on_c, 4, 81, 0
6, 155520, Note_on_c, 4, 82, 70
6, 156000, Note_on_c, 4, 82, 0
6, 156000, Note_on_c, 4, 81, 70
6, 156480, Note_on_c, 4, 81, 0
6, 156480, Note_on_c, 4, 79, 70
6, 156960, Note_on_c, 4, 79, 0
6, 156960, Note_on_c, 4, 78, 70
6, 157440, Note_on_c, 4, 78, 0
6, 157440, Note_on_c, 4, 77, 70
6, 157920, Note_on_c, 4, 77, 0
6, 157920, Note_on_c, 4, 76, 70
6, 158400, Note_on_c, 4, 76, 0
6, 158400, Note_on_c, 4, 75, 70
6, 158880, Note_on_c, 4, 75, 0
6, 158880, Note_on_c, 4, 74, 70
6, 159264, Note_on_c, 4, 74, 0
6, 159360, Note_on_c, 4, 71, 70
6, 159792, Note_on_c, 4, 71, 0
6, 159840, Note_on_c, 4, 72, 70
6, 160320, Note_on_c, 4, 72, 0
6, 160320, Note_on_c, 4, 75, 70
6, 160800, Note_on_c, 4, 75, 0
6, 160800, Note_on_c, 4, 79, 70
6, 161184, Note_on_c, 4, 79, 0
6, 161280, Note_on_c, 4, 70, 70
6, 162720, Note_on_c, 4, 70, 0
6, 162720, Note_on_c, 4, 74, 70
6, 162960, Note_on_c, 4, 74, 0
6, 162960, Note_on_c, 4, 72, 70
6, 163200, Note_on_c, 4, 72, 0
6, 163200, Note_on_c, 4, 70, 58
6, 163584, Note_on_c, 4, 70, 0
6, 171840, Note_on_c, 4, 75, 58
6, 172080, Note_on_c, 4, 75, 0
6, 172080, Note_on_c, 4, 74, 58
6, 172320, Note_on_c, 4, 74, 0
6, 172320, Note_on_c, 4, 72, 58
6, 172560, Note_on_c, 4, 72, 0
6, 172560, Note_on_c, 4, 70, 58
6, 172752, Note_on_c, 4, 70, 0
6, 172800, Note_on_c, 4, 69, 58
6, 173760, Note_on_c, 4, 69, 0
6, 173760, Note_on_c, 4, 70, 58
6, 174528, Note_on_c, 4, 70, 0
6, 182400, Note_on_c, 4, 65, 58
6, 187200, Note_on_c, 4, 65, 0
6, 187200, Note_on_c, 4, 64, 58
6, 188160, Note_on_c, 4, 64, 0
6, 188160, Note_on_c, 4, 63, 58
6, 189120, Note_on_c, 4, 63, 0
6, 189120, Note_on_c, 4, 62, 58
6, 189888, Note_on_c, 4, 62, 0
6, 190080, Note_on_c, 4, 63, 58
6, 191520, Note_on_c, 4, 63, 0
6, 191520, Note_on_c, 4, 65, 58
6, 191760, Note_on_c, 4, 65, 0
6, 191760, Note_on_c, 4, 67, 58
6, 191952, Note_on_c, 4, 67, 0
6, 192000, Note_on_c, 4, 62, 58
6, 192576, Note_on_c, 4, 62, 0
6, 192960, Note_on_c, 4, 60, 58
6, 193536, Note_on_c, 4, 60, 0
6, 193920, Note_on_c, 4, 58, 105
6, 194112, Note_on_c, 4, 58, 0
6, 194160, Note_on_c, 4, 77, 105
6, 194352, Note_on_c, 4, 77, 0
6, 194400, Note_on_c, 4, 77, 105
6, 194592, Note_on_c, 4, 77, 0
6, 194640, Note_on_c, 4, 77, 105
6, 194832, Note_on_c, 4, 77, 0
6, 194880, Note_on_c, 4, 77, 105
6, 195072, Note_on_c, 4, 77, 0
6, 195120, Note_on_c, 4, 77, 105
6, 195312, Note_on_c, 4, 77, 0
6, 195360, Note_on_c, 4, 77, 105
6, 195552, Note_on_c, 4, 77, 0
6, 195600, Note_on_c, 4, 77, 105
6, 195792, Note_on_c, 4, 77, 0
6, 195840, Note_on_c, 4, 82, 105
6, 196080, Note_on_c, 4, 82, 0
6, 196080, Note_on_c, 4, 86, 105
6, 196224, Note_on_c, 4, 86, 0
6, 196320, Note_on_c, 4, 84, 105
6, 196464, Note_on_c, 4, 84, 0
6, 196560, Note_on_c, 4, 81, 105
6, 196704, Note_on_c, 4, 81, 0
6, 196800, Note_on_c, 4, 82, 105
6, 197040, Note_on_c, 4, 82, 0
6, 197040, Note_on_c, 4, 86, 105
6, 197184, Note_on_c, 4, 86, 0
6, 197280, Note_on_c, 4, 84, 105
6, 197424, Note_on_c, 4, 84, 0
6, 197520, Note_on_c, 4, 81, 105
6, 197664, Note_on_c, 4, 81, 0
6, 197760, Note_on_c, 4, 82, 105
6, 197952, Note_on_c, 4, 82, 0
6, 198000, Note_on_c, 4, 77, 105
6, 198192, Note_on_c, 4, 77, 0
6, 198240, Note_on_c, 4, 77, 105
6, 198432, Note_on_c, 4, 77, 0
6, 198480, Note_on_c, 4, 77, 105
6, 198672, Note_on_c, 4, 77, 0
6, 198720, Note_on_c, 4, 77, 105
6, 198912, Note_on_c, 4, 77, 0
6, 198960, Note_on_c, 4, 77, 105
6, 199152, Note_on_c, 4, 77, 0
6, 199200, Note_on_c, 4, 77, 105
6, 199392, Note_on_c, 4, 77, 0
6, 199440, Note_on_c, 4, 77, 105
6, 199632, Note_on_c, 4, 77, 0
6, 199680, Note_on_c, 4, 82, 105
6, 199920, Note_on_c, 4, 82, 0
6, 199920, Note_on_c, 4, 86, 105
6, 200064, Note_on_c, 4, 86, 0
6, 200160, Note_on_c, 4, 84, 105
6, 200304, Note_on_c, 4, 84, 0
6, 200400, Note_on_c, 4, 81, 105
6, 200544, Note_on_c, 4, 81, 0
6, 200640, Note_on_c, 4, 82, 105
6, 200880, Note_on_c, 4, 82, 0
6, 200880, Note_on_c, 4, 86, 105
6, 201024, Note_on_c, 4, 86, 0
6, 201120, Note_on_c, 4, 84, 105
6, 201264, Note_on_c, 4, 84, 0
6, 201360, Note_on_c, 4, 81, 105
6, 201504, Note_on_c, 4, 81, 0
6, 201600, Note_on_c, 4, 82, 105
6, 201792, Note_on_c, 4, 82, 0
6, 201840, Note_on_c, 4, 77, 105
6, 202032, Note_on_c, 4, 77, 0
6, 202080, Note_on_c, 4, 77, 105
6, 202272, Note_on_c, 4, 77, 0
6, 202320, Note_on_c, 4, 77, 105
6, 202512, Note_on_c, 4, 77, 0
6, 202560, Note_on_c, 4, 77, 105
6, 202752, Note_on_c, 4, 77, 0
6, 202800, Note_on_c, 4, 77, 105
6, 202992, Note_on_c, 4, 77, 0
6, 203040, Note_on_c, 4, 77, 105
6, 203232, Note_on_c, 4, 77, 0
6, 203280, Note_on_c, 4, 77, 105
6, 203472, Note_on_c, 4, 77, 0
6, 203520, Note_on_c, 4, 82, 105
6, 203760, Note_on_c, 4, 82, 0
6, 203760, Note_on_c, 4, 86, 105
6, 203904, Note_on_c, 4, 86, 0
6, 204000, Note_on_c, 4, 84, 105
6, 204144, Note_on_c, 4, 84, 0
6, 204240, Note_on_c, 4, 81, 105
6, 204384, Note_on_c, 4, 81, 0
6, 204480, Note_on_c, 4, 82, 105
6, 204720, Note_on_c, 4, 82, 0
6, 204720, Note_on_c, 4, 86, 105
6, 204864, Note_on_c, 4, 86, 0
6, 204960, Note_on_c, 4, 84, 105
6, 205104, Note_on_c, 4, 84, 0
6, 205200, Note_on_c, 4, 81, 105
6, 205344, Note_on_c, 4, 81, 0
6, 205440, Note_on_c, 4, 82, 105
6, 205632, Note_on_c, 4, 82, 0
6, 205680, Note_on_c, 4, 77, 105
6, 205872, Note_on_c, 4, 77, 0
6, 205920, Note_on_c, 4, 77, 105
6, 206112, Note_on_c, 4, 77, 0
6, 206160, Note_on_c, 4, 77, 105
6, 206352, Note_on_c, 4, 77, 0
6, 206400, Note_on_c, 4, 79, 105
6, 206592, Note_on_c, 4, 79, 0
6, 206640, Note_on_c, 4, 75, 105
6, 206832, Note_on_c, 4, 75, 0
6, 206880, Note_on_c, 4, 75, 105
6, 207072, Note_on_c, 4, 75, 0
6, 207120, Note_on_c, 4, 75, 105
6, 207312, Note_on_c, 4, 75, 0
6, 207360, Note_on_c, 4, 74, 105
6, 207552, Note_on_c, 4, 74, 0
6, 207600, Note_on_c, 4, 70, 105
6, 207792, Note_on_c, 4, 70, 0
6, 207840, Note_on_c, 4, 70, 105
6, 208032, Note_on_c, 4, 70, 0
6, 208080, Note_on_c, 4, 70, 105
6, 208272, Note_on_c, 4, 70, 0
6, 208320, Note_on_c, 4, 77, 105
6, 208512, Note_on_c, 4, 77, 0
6, 208560, Note_on_c, 4, 69, 105
6, 208752, Note_on_c, 4, 69, 0
6, 208800, Note_on_c, 4, 69, 105
6, 208992, Note_on_c, 4, 69, 0
6, 209040, Note_on_c, 4, 69, 105
6, 209232, Note_on_c, 4, 69, 0
6, 209280, Note_on_c, 4, 70, 92
6, 209424, Note_on_c, 4, 70, 0
6, 209520, Note_on_c, 4, 65, 92
6, 209760, Note_on_c, 4, 65, 0
6, 209760, Note_on_c, 4, 64, 70
6, 210000, Note_on_c, 4, 64, 0
6, 210000, Note_on_c, 4, 65, 70
6, 210240, Note_on_c, 4, 65, 0
6, 210240, Note_on_c, 4, 64, 70
6, 210480, Note_on_c, 4, 64, 0
6, 210480, Note_on_c, 4, 65, 70
6, 210720, Note_on_c, 4, 65, 0
6, 210720, Note_on_c, 4, 67, 70
6, 210960, Note_on_c, 4, 67, 0
6, 210960, Note_on_c, 4, 65, 70
6, 211152, Note_on_c, 4, 65, 0
6, 211200, Note_on_c, 4, 70, 70
6, 211440, Note_on_c, 4, 70, 0
6, 211440, Note_on_c, 4, 74, 70
6, 211584, Note_on_c, 4, 74, 0
6, 211680, Note_on_c, 4, 72, 70
6, 211824, Note_on_c, 4, 72, 0
6, 211920, Note_on_c, 4, 69, 70
6, 212064, Note_on_c, 4, 69, 0
6, 212160, Note_on_c, 4, 70, 70
6, 212400, Note_on_c, 4, 70, 0
6, 212400, Note_on_c, 4, 74, 70
6, 212544, Note_on_c, 4, 74, 0
6, 212640, Note_on_c, 4, 72, 70
6, 212784, Note_on_c, 4, 72, 0
6, 212880, Note_on_c, 4, 69, 70
6, 213024, Note_on_c, 4, 69, 0
6, 213120, Note_on_c, 4, 70, 70
6, 213264, Note_on_c, 4, 70, 0
6, 213360, Note_on_c, 4, 77, 70
6, 213600, Note_on_c, 4, 77, 0
6, 213600, Note_on_c, 4, 76, 70
6, 213840, Note_on_c, 4, 76, 0
6, 213840, Note_on_c, 4, 77, 70
6, 214080, Note_on_c, 4, 77, 0
6, 214080, Note_on_c, 4, 76, 70
6, 214320, Note_on_c, 4, 76, 0
6, 214320, Note_on_c, 4, 77, 70
6, 214560, Note_on_c, 4, 77, 0
6, 214560, Note_on_c, 4, 79, 70
6, 214800, Note_on_c, 4, 79, 0
6, 214800, Note_on_c, 4, 77, 70
6, 214992, Note_on_c, 4, 77, 0
6, 215040, Note_on_c, 4, 70, 70
6, 215280, Note_on_c, 4, 70, 0
6, 215280, Note_on_c, 4, 74, 70
6, 215424, Note_on_c, 4, 74, 0
6, 215520, Note_on_c, 4, 72, 70
6, 215664, Note_on_c, 4, 72, 0
6, 215760, Note_on_c, 4, 69, 70
6, 215904, Note_on_c, 4, 69, 0
6, 216000, Note_on_c, 4, 70, 70
6, 216240, Note_on_c, 4, 70, 0
6, 216240, Note_on_c, 4, 74, 70
6, 216384, Note_on_c, 4, 74, 0
6, 216480, Note_on_c, 4, 72, 70
6, 216624, Note_on_c, 4, 72, 0
6, 216720, Note_on_c, 4, 69, 70
6, 216864, Note_on_c, 4, 69, 0
6, 216960, Note_on_c, 4, 70, 70
6, 217104, Note_on_c, 4, 70, 0
6, 217200, Note_on_c, 4, 65, 70
6, 217440, Note_on_c, 4, 65, 0
6, 217440, Note_on_c, 4, 64, 70
6, 217680, Note_on_c, 4, 64, 0
6, 217680, Note_on_c, 4, 65, 70
6, 217920, Note_on_c, 4, 65, 0
6, 217920, Note_on_c, 4, 64, 70
6, 218160, Note_on_c, 4, 64, 0
6, 218160, Note_on_c, 4, 65, 70
6, 218400, Note_on_c, 4, 65, 0
6, 218400, Note_on_c, 4, 67, 70
6, 218640, Note_on_c, 4, 67, 0
6, 218640, Note_on_c, 4, 65, 70
6, 218832, Note_on_c, 4, 65, 0
6, 218880, Note_on_c, 4, 77, 105
6, 219072, Note_on_c, 4, 77, 0
6, 219120, Note_on_c, 4, 77, 105
6, 219312, Note_on_c, 4, 77, 0
6, 219360, Note_on_c, 4, 77, 105
6, 219552, Note_on_c, 4, 77, 0
6, 219600, Note_on_c, 4, 77, 105
6, 219792, Note_on_c, 4, 77, 0
6, 219840, Note_on_c, 4, 77, 105
6, 220032, Note_on_c, 4, 77, 0
6, 220080, Note_on_c, 4, 77, 105
6, 220272, Note_on_c, 4, 77, 0
6, 220320, Note_on_c, 4, 77, 105
6, 220512, Note_on_c, 4, 77, 0
6, 220560, Note_on_c, 4, 77, 105
6, 220752, Note_on_c, 4, 77, 0
6, 220800, Note_on_c, 4, 77, 105
6, 220992, Note_on_c, 4, 77, 0
6, 221040, Note_on_c, 4, 82, 105
6, 221232, Note_on_c, 4, 82, 0
6, 221280, Note_on_c, 4, 82, 105
6, 221472, Note_on_c, 4, 82, 0
6, 221520, Note_on_c, 4, 82, 105
6, 221712, Note_on_c, 4, 82, 0
6, 221760, Note_on_c, 4, 72, 105
6, 221952, Note_on_c, 4, 72, 0
6, 222000, Note_on_c, 4, 79, 105
6, 222192, Note_on_c, 4, 79, 0
6, 222240, Note_on_c, 4, 79, 105
6, 222432, Note_on_c, 4, 79, 0
6, 222480, Note_on_c, 4, 79, 105
6, 222672, Note_on_c, 4, 79, 0
6, 222720, Note_on_c, 4, 77, 105
6, 222912, Note_on_c, 4, 77, 0
6, 222960, Note_on_c, 4, 74, 105
6, 223152, Note_on_c, 4, 74, 0
6, 223200, Note_on_c, 4, 74, 105
6, 223392, Note_on_c, 4, 74, 0
6, 223440, Note_on_c, 4, 74, 105
6, 223632, Note_on_c, 4, 74, 0
6, 223680, Note_on_c, 4, 77, 105
6, 223872, Note_on_c, 4, 77, 0
6, 223920, Note_on_c, 4, 69, 105
6, 224112, Note_on_c, 4, 69, 0
6, 224160, Note_on_c, 4, 69, 105
6, 224352, Note_on_c, 4, 69, 0
6, 224400, Note_on_c, 4, 69, 105
6, 224592, Note_on_c, 4, 69, 0
6, 224640, Note_on_c, 4, 70, 105
6, 225408, Note_on_c, 4, 70, 0
6, 226320, Note_on_c, 4, 82, 116
6, 226512, Note_on_c, 4, 82, 0
6, 226560, Note_on_c, 4, 81, 127
6, 226752, Note_on_c, 4, 81, 0
6, 226800, Note_on_c, 4, 84, 116
6, 226992, Note_on_c, 4, 84, 0
6, 227040, Note_on_c, 4, 87, 116
6, 227232, Note_on_c, 4, 87, 0
6, 227280, Note_on_c, 4, 84, 116
6, 227472, Note_on_c, 4, 84, 0
6, 227520, Note_on_c, 4, 87, 116
6, 227712, Note_on_c, 4, 87, 0
6, 227760, Note_on_c, 4, 84, 116
6, 227952, Note_on_c, 4, 84, 0
6, 228000, Note_on_c, 4, 81, 116
6, 228192, Note_on_c, 4, 81, 0
6, 228240, Note_on_c, 4, 84, 116
6, 228432, Note_on_c, 4, 84, 0
6, 228480, Note_on_c, 4, 82, 116
6, 229248, Note_on_c, 4, 82, 0
6, 229920, Note_on_c, 4, 82, 116
6, 230112, Note_on_c, 4, 82, 0
6, 230400, Note_on_c, 4, 81, 127
6, 230592, Note_on_c, 4, 81, 0
6, 230640, Note_on_c, 4, 84, 116
6, 230832, Note_on_c, 4, 84, 0
6, 230880, Note_on_c, 4, 87, 116
6, 231072, Note_on_c, 4, 87, 0
6, 231120, Note_on_c, 4, 84, 116
6, 231312, Note_on_c, 4, 84, 0
6, 231360, Note_on_c, 4, 87, 116
6, 231552, Note_on_c, 4, 87, 0
6, 231600, Note_on_c, 4, 84, 116
6, 231792, Note_on_c, 4, 84, 0
6, 231840, Note_on_c, 4, 81, 116
6, 232032, Note_on_c, 4, 81, 0
6, 232080, Note_on_c, 4, 84, 116
6, 232272, Note_on_c, 4, 84, 0
6, 232320, Note_on_c, 4, 82, 116
6, 233088, Note_on_c, 4, 82, 0
6, 233760, Note_on_c, 4, 82, 116
6, 233952, Note_on_c, 4, 82, 0
6, 234240, Note_on_c, 4, 81, 127
6, 234432, Note_on_c, 4, 81, 0
6, 234480, Note_on_c, 4, 84, 116
6, 234672, Note_on_c, 4, 84, 0
6, 234720, Note_on_c, 4, 87, 116
6, 234912, Note_on_c, 4, 87, 0
6, 234960, Note_on_c, 4, 84, 116
6, 235152, Note_on_c, 4, 84, 0
6, 235200, Note_on_c, 4, 87, 116
6, 235392, Note_on_c, 4, 87, 0
6, 235440, Note_on_c, 4, 84, 116
6, 235632, Note_on_c, 4, 84, 0
6, 235680, Note_on_c, 4, 81, 116
6, 235872, Note_on_c, 4, 81, 0
6, 235920, Note_on_c, 4, 84, 116
6, 236112, Note_on_c, 4, 84, 0
6, 236160, Note_on_c, 4, 82, 116
6, 236544, Note_on_c, 4, 82, 0
6, 237120, Note_on_c, 4, 62, 116
6, 237120, Note_on_c, 4, 70, 116
6, 237120, Note_on_c, 4, 82, 116
6, 237504, Note_on_c, 4, 82, 0
6, 237504, Note_on_c, 4, 70, 0
6, 237504, Note_on_c, 4, 62, 0
6, 238080, Note_on_c, 4, 58, 105
6, 238848, Note_on_c, 4, 58, 0
6, 239520, Note_on_c, 4, 62, 70
6, 239904, Note_on_c, 4, 62, 0
6, 240000, Note_on_c, 4, 67, 70
6, 240288, Note_on_c, 4, 67, 0
6, 240480, Note_on_c, 4, 70, 70
6, 240768, Note_on_c, 4, 70, 0
6, 240960, Note_on_c, 4, 74, 70
6, 241248, Note_on_c, 4, 74, 0
6, 241440, Note_on_c, 4, 79, 70
6, 241728, Note_on_c, 4, 79, 0
6, 241920, Note_on_c, 4, 82, 70
6, 242880, Note_on_c, 4, 82, 0
6, 242880, Note_on_c, 4, 81, 70
6, 243168, Note_on_c, 4, 81, 0
6, 243360, Note_on_c, 4, 73, 105
6, 243504, Note_on_c, 4, 73, 0
6, 243600, Note_on_c, 4, 76, 105
6, 243744, Note_on_c, 4, 76, 0
6, 243840, Note_on_c, 4, 74, 105
6, 244080, Note_on_c, 4, 74, 0
6, 244080, Note_on_c, 4, 78, 105
6, 244224, Note_on_c, 4, 78, 0
6, 244320, Note_on_c, 4, 76, 105
6, 244464, Note_on_c, 4, 76, 0
6, 244560, Note_on_c, 4, 73, 105
6, 244704, Note_on_c, 4, 73, 0
6, 244800, Note_on_c, 4, 74, 105
6, 245040, Note_on_c, 4, 74, 0
6, 245040, Note_on_c, 4, 78, 105
6, 245184, Note_on_c, 4, 78, 0
6, 245280, Note_on_c, 4, 76, 105
6, 245424, Note_on_c, 4, 76, 0
6, 245520, Note_on_c, 4, 73, 105
6, 245664, Note_on_c, 4, 73, 0
6, 245760, Note_on_c, 4, 74, 105
6, 246528, Note_on_c, 4, 74, 0
6, 247200, Note_on_c, 4, 74, 70
6, 247680, Note_on_c, 4, 74, 0
6, 247680, Note_on_c, 4, 75, 70
6, 247968, Note_on_c, 4, 75, 0
6, 248160, Note_on_c, 4, 78, 70
6, 248448, Note_on_c, 4, 78, 0
6, 248640, Note_on_c, 4, 81, 70
6, 248928, Note_on_c, 4, 81, 0
6, 249120, Note_on_c, 4, 84, 70
6, 249408, Note_on_c, 4, 84, 0
6, 249600, Note_on_c, 4, 87, 70
6, 250560, Note_on_c, 4, 87, 0
6, 250560, Note_on_c, 4, 86, 70
6, 250848, Note_on_c, 4, 86, 0
6, 251040, Note_on_c, 4, 78, 105
6, 251184, Note_on_c, 4, 78, 0
6, 251280, Note_on_c, 4, 81, 105
6, 251424, Note_on_c, 4, 81, 0
6, 251520, Note_on_c, 4, 79, 105
6, 251760, Note_on_c, 4, 79, 0
6, 251760, Note_on_c, 4, 82, 105
6, 251904, Note_on_c, 4, 82, 0
6, 252000, Note_on_c, 4, 81, 105
6, 252144, Note_on_c, 4, 81, 0
6, 252240, Note_on_c, 4, 78, 105
6, 252384, Note_on_c, 4, 78, 0
6, 252480, Note_on_c, 4, 79, 105
6, 252720, Note_on_c, 4, 79, 0
6, 252720, Note_on_c, 4, 82, 105
6, 252864, Note_on_c, 4, 82, 0
6, 252960, Note_on_c, 4, 81, 105
6, 253104, Note_on_c, 4, 81, 0
6, 253200, Note_on_c, 4, 78, 105
6, 253344, Note_on_c, 4, 78, 0
6, 253440, Note_on_c, 4, 79, 105
6, 254208, Note_on_c, 4, 79, 0
6, 254880, Note_on_c, 4, 62, 70
6, 255360, Note_on_c, 4, 62, 0
6, 255360, Note_on_c, 4, 67, 70
6, 255648, Note_on_c, 4, 67, 0
6, 255840, Note_on_c, 4, 70, 70
6, 256128, Note_on_c, 4, 70, 0
6, 256320, Note_on_c, 4, 74, 70
6, 256608, Note_on_c, 4, 74, 0
6, 256800, Note_on_c, 4, 79, 70
6, 257088, Note_on_c, 4, 79, 0
6, 257280, Note_on_c, 4, 82, 70
6, 258240, Note_on_c, 4, 82, 0
6, 258240, Note_on_c, 4, 81, 70
6, 258528, Note_on_c, 4, 81, 0
6, 258720, Note_on_c, 4, 73, 105
6, 258864, Note_on_c, 4, 73, 0
6, 258960, Note_on_c, 4, 76, 105
6, 259104, Note_on_c, 4, 76, 0
6, 259200, Note_on_c, 4, 74, 105
6, 259440, Note_on_c, 4, 74, 0
6, 259440, Note_on_c, 4, 78, 105
6, 259584, Note_on_c, 4, 78, 0
6, 259680, Note_on_c, 4, 76, 105
6, 259824, Note_on_c, 4, 76, 0
6, 259920, Note_on_c, 4, 73, 105
6, 260064, Note_on_c, 4, 73, 0
6, 260160, Note_on_c, 4, 74, 105
6, 260400, Note_on_c, 4, 74, 0
6, 260400, Note_on_c, 4, 78, 105
6, 260544, Note_on_c, 4, 78, 0
6, 260640, Note_on_c, 4, 76, 105
6, 260784, Note_on_c, 4, 76, 0
6, 260880, Note_on_c, 4, 73, 105
6, 261024, Note_on_c, 4, 73, 0
6, 261120, Note_on_c, 4, 74, 105
6, 261888, Note_on_c, 4, 74, 0
6, 262560, Note_on_c, 4, 74, 70
6, 263040, Note_on_c, 4, 74, 0
6, 263040, Note_on_c, 4, 75, 70
6, 263328, Note_on_c, 4, 75, 0
6, 263520, Note_on_c, 4, 78, 70
6, 263808, Note_on_c, 4, 78, 0
6, 264000, Note_on_c, 4, 81, 70
6, 264288, Note_on_c, 4, 81, 0
6, 264480, Note_on_c, 4, 84, 70
6, 264768, Note_on_c, 4, 84, 0
6, 264960, Note_on_c, 4, 87, 70
6, 265920, Note_on_c, 4, 87, 0
6, 265920, Note_on_c, 4, 86, 70
6, 266208, Note_on_c, 4, 86, 0
6, 266400, Note_on_c, 4, 78, 105
6, 266544, Note_on_c, 4, 78, 0
6, 266640, Note_on_c, 4, 81, 105
6, 266784, Note_on_c, 4, 81, 0
6, 266880, Note_on_c, 4, 79, 105
6, 267120, Note_on_c, 4, 79, 0
6, 267120, Note_on_c, 4, 82, 105
6, 267264, Note_on_c, 4, 82, 0
6, 267360, Note_on_c, 4, 81, 105
6, 267504, Note_on_c, 4, 81, 0
6, 267600, Note_on_c, 4, 78, 105
6, 267744, Note_on_c, 4, 78, 0
6, 267840, Note_on_c, 4, 79, 105
6, 268080, Note_on_c, 4, 79, 0
6, 268080, Note_on_c, 4, 82, 105
6, 268224, Note_on_c, 4, 82, 0
6, 268320, Note_on_c, 4, 81, 105
6, 268464, Note_on_c, 4, 81, 0
6, 268560, Note_on_c, 4, 78, 105
6, 268704, Note_on_c, 4, 78, 0
6, 268800, Note_on_c, 4, 79, 105
6, 269568, Note_on_c, 4, 79, 0
6, 270240, Note_on_c, 4, 86, 105
6, 270528, Note_on_c, 4, 86, 0
6, 270720, Note_on_c, 4, 86, 105
6, 271872, Note_on_c, 4, 86, 0
6, 272160, Note_on_c, 4, 74, 105
6, 272448, Note_on_c, 4, 74, 0
6, 272640, Note_on_c, 4, 77, 70
6, 272700, Note_on_c, 4, 77, 0
6, 272700, Note_on_c, 4, 75, 70
6, 272760, Note_on_c, 4, 75, 0
6, 272760, Note_on_c, 4, 77, 70
6, 272820, Note_on_c, 4, 77, 0
6, 272820, Note_on_c, 4, 75, 70
6, 272880, Note_on_c, 4, 75, 0
6, 272880, Note_on_c, 4, 77, 70
6, 272940, Note_on_c, 4, 77, 0
6, 272940, Note_on_c, 4, 75, 70
6, 273000, Note_on_c, 4, 75, 0
6, 273000, Note_on_c, 4, 77, 70
6, 273060, Note_on_c, 4, 77, 0
6, 273060, Note_on_c, 4, 75, 70
6, 273120, Note_on_c, 4, 75, 0
6, 273120, Note_on_c, 4, 74, 70
6, 273384, Note_on_c, 4, 74, 0
6, 273600, Note_on_c, 4, 74, 70
6, 273864, Note_on_c, 4, 74, 0
6, 274080, Note_on_c, 4, 86, 105
6, 274368, Note_on_c, 4, 86, 0
6, 274560, Note_on_c, 4, 86, 105
6, 275712, Note_on_c, 4, 86, 0
6, 276000, Note_on_c, 4, 74, 105
6, 276384, Note_on_c, 4, 74, 0
6, 276480, Note_on_c, 4, 77, 70
6, 276540, Note_on_c, 4, 77, 0
6, 276540, Note_on_c, 4, 75, 70
6, 276600, Note_on_c, 4, 75, 0
6, 276600, Note_on_c, 4, 77, 70
6, 276660, Note_on_c, 4, 77, 0
6, 276660, Note_on_c, 4, 75, 70
6, 276720, Note_on_c, 4, 75, 0
6, 276720, Note_on_c, 4, 77, 70
6, 276780, Note_on_c, 4, 77, 0
6, 276780, Note_on_c, 4, 75, 70
6, 276840, Note_on_c, 4, 75, 0
6, 276840, Note_on_c, 4, 77, 70
6, 276900, Note_on_c, 4, 77, 0
6, 276900, Note_on_c, 4, 75, 70
6, 276960, Note_on_c, 4, 75, 0
6, 276960, Note_on_c, 4, 74, 70
6, 277224, Note_on_c, 4, 74, 0
6, 277440, Note_on_c, 4, 74, 70
6, 277824, Note_on_c, 4, 74, 0
6, 277920, Note_on_c, 4, 74, 70
6, 278400, Note_on_c, 4, 74, 0
6, 278400, Note_on_c, 4, 75, 70
6, 278688, Note_on_c, 4, 75, 0
6, 278880, Note_on_c, 4, 78, 70
6, 279168, Note_on_c, 4, 78, 0
6, 279360, Note_on_c, 4, 81, 70
6, 279648, Note_on_c, 4, 81, 0
6, 279840, Note_on_c, 4, 84, 70
6, 280128, Note_on_c, 4, 84, 0
6, 280320, Note_on_c, 4, 87, 70
6, 281280, Note_on_c, 4, 87, 0
6, 281280, Note_on_c, 4, 86, 70
6, 281568, Note_on_c, 4, 86, 0
6, 281760, Note_on_c, 4, 78, 105
6, 281904, Note_on_c, 4, 78, 0
6, 282000, Note_on_c, 4, 81, 105
6, 282144, Note_on_c, 4, 81, 0
6, 282240, Note_on_c, 4, 79, 105
6, 282480, Note_on_c, 4, 79, 0
6, 282480, Note_on_c, 4, 82, 105
6, 282624, Note_on_c, 4, 82, 0
6, 282720, Note_on_c, 4, 81, 105
6, 282864, Note_on_c, 4, 81, 0
6, 282960, Note_on_c, 4, 78, 105
6, 283104, Note_on_c, 4, 78, 0
6, 283200, Note_on_c, 4, 79, 105
6, 283440, Note_on_c, 4, 79, 0
6, 283440, Note_on_c, 4, 82, 105
6, 283584, Note_on_c, 4, 82, 0
6, 283680, Note_on_c, 4, 81, 105
6, 283824, Note_on_c, 4, 81, 0
6, 283920, Note_on_c, 4, 78, 105
6, 284064, Note_on_c, 4, 78, 0
6, 284160, Note_on_c, 4, 79, 105
6, 284928, Note_on_c, 4, 79, 0
6, 285600, Note_on_c, 4, 86, 105
6, 285888, Note_on_c, 4, 86, 0
6, 286080, Note_on_c, 4, 86, 105
6, 287232, Note_on_c, 4, 86, 0
6, 287520, Note_on_c, 4, 74, 105
6, 287808, Note_on_c, 4, 74, 0
6, 288000, Note_on_c, 4, 77, 70
6, 288060, Note_on_c, 4, 77, 0
6, 288060, Note_on_c, 4, 75, 70
6, 288120, Note_on_c, 4, 75, 0
6, 288120, Note_on_c, 4, 77, 70
6, 288180, Note_on_c, 4, 77, 0
6, 288180, Note_on_c, 4, 75, 70
6, 288240, Note_on_c, 4, 75, 0
6, 288240, Note_on_c, 4, 77, 70
6, 288300, Note_on_c, 4, 77, 0
6, 288300, Note_on_c, 4, 75, 70
6, 288360, Note_on_c, 4, 75, 0
6, 288360, Note_on_c, 4, 77, 70
6, 288420, Note_on_c, 4, 77, 0
6, 288420, Note_on_c, 4, 75, 70
6, 288480, Note_on_c, 4, 75, 0
6, 288480, Note_on_c, 4, 74, 70
6, 288744, Note_on_c, 4, 74, 0
6, 288960, Note_on_c, 4, 74, 70
6, 289224, Note_on_c, 4, 74, 0
6, 289440, Note_on_c, 4, 86, 105
6, 289728, Note_on_c, 4, 86, 0
6, 289920, Note_on_c, 4, 86, 105
6, 291072, Note_on_c, 4, 86, 0
6, 291360, Note_on_c, 4, 74, 105
6, 291744, Note_on_c, 4, 74, 0
6, 291840, Note_on_c, 4, 77, 70
6, 291900, Note_on_c, 4, 77, 0
6, 291900, Note_on_c, 4, 75, 70
6, 291960, Note_on_c, 4, 75, 0
6, 291960, Note_on_c, 4, 77, 70
6, 292020, Note_on_c, 4, 77, 0
6, 292020, Note_on_c, 4, 75, 70
6, 292080, Note_on_c, 4, 75, 0
6, 292080, Note_on_c, 4, 77, 70
6, 292140, Note_on_c, 4, 77, 0
6, 292140, Note_on_c, 4, 75, 70
6, 292200, Note_on_c, 4, 75, 0
6, 292200, Note_on_c, 4, 77, 70
6, 292260, Note_on_c, 4, 77, 0
6, 292260, Note_on_c, 4, 75, 70
6, 292320, Note_on_c, 4, 75, 0
6, 292320, Note_on_c, 4, 74, 70
6, 292584, Note_on_c, 4, 74, 0
6, 292800, Note_on_c, 4, 74, 70
6, 293184, Note_on_c, 4, 74, 0
6, 293280, Note_on_c, 4, 74, 70
6, 293760, Note_on_c, 4, 74, 0
6, 293760, Note_on_c, 4, 75, 70
6, 294048, Note_on_c, 4, 75, 0
6, 294240, Note_on_c, 4, 78, 70
6, 294528, Note_on_c, 4, 78, 0
6, 294720, Note_on_c, 4, 81, 70
6, 295008, Note_on_c, 4, 81, 0
6, 295200, Note_on_c, 4, 84, 70
6, 295488, Note_on_c, 4, 84, 0
6, 295680, Note_on_c, 4, 87, 70
6, 296640, Note_on_c, 4, 87, 0
6, 296640, Note_on_c, 4, 86, 70
6, 296928, Note_on_c, 4, 86, 0
6, 297120, Note_on_c, 4, 78, 116
6, 297264, Note_on_c, 4, 78, 0
6, 297360, Note_on_c, 4, 81, 116
6, 297504, Note_on_c, 4, 81, 0
6, 297600, Note_on_c, 4, 79, 116
6, 297840, Note_on_c, 4, 79, 0
6, 297840, Note_on_c, 4, 82, 116
6, 297984, Note_on_c, 4, 82, 0
6, 298080, Note_on_c, 4, 81, 116
6, 298224, Note_on_c, 4, 81, 0
6, 298320, Note_on_c, 4, 78, 116
6, 298464, Note_on_c, 4, 78, 0
6, 298560, Note_on_c, 4, 79, 116
6, 298800, Note_on_c, 4, 79, 0
6, 298800, Note_on_c, 4, 82, 116
6, 298944, Note_on_c, 4, 82, 0
6, 299040, Note_on_c, 4, 81, 116
6, 299184, Note_on_c, 4, 81, 0
6, 299280, Note_on_c, 4, 78, 116
6, 299424, Note_on_c, 4, 78, 0
6, 299520, Note_on_c, 4, 79, 116
6, 299712, Note_on_c, 4, 79, 0
6, 299760, Note_on_c, 4, 74, 116
6, 299952, Note_on_c, 4, 74, 0
6, 300000, Note_on_c, 4, 82, 105
6, 300192, Note_on_c, 4, 82, 0
6, 300240, Note_on_c, 4, 81, 105
6, 300432, Note_on_c, 4, 81, 0
6, 300480, Note_on_c, 4, 79, 105
6, 300672, Note_on_c, 4, 79, 0
6, 300720, Note_on_c, 4, 77, 105
6, 300912, Note_on_c, 4, 77, 0
6, 300960, Note_on_c, 4, 75, 105
6, 301152, Note_on_c, 4, 75, 0
6, 301200, Note_on_c, 4, 74, 105
6, 301392, Note_on_c, 4, 74, 0
6, 301440, Note_on_c, 4, 72, 105
6, 301680, Note_on_c, 4, 72, 0
6, 301680, Note_on_c, 4, 75, 105
6, 301824, Note_on_c, 4, 75, 0
6, 301920, Note_on_c, 4, 74, 105
6, 302064, Note_on_c, 4, 74, 0
6, 302160, Note_on_c, 4, 71, 105
6, 302304, Note_on_c, 4, 71, 0
6, 302400, Note_on_c, 4, 72, 105
6, 302640, Note_on_c, 4, 72, 0
6, 302640, Note_on_c, 4, 75, 105
6, 302784, Note_on_c, 4, 75, 0
6, 302880, Note_on_c, 4, 74, 105
6, 303024, Note_on_c, 4, 74, 0
6, 303120, Note_on_c, 4, 71, 105
6, 303264, Note_on_c, 4, 71, 0
6, 303360, Note_on_c, 4, 72, 105
6, 303552, Note_on_c, 4, 72, 0
6, 303600, Note_on_c, 4, 67, 105
6, 303792, Note_on_c, 4, 67, 0
6, 303840, Note_on_c, 4, 75, 105
6, 304032, Note_on_c, 4, 75, 0
6, 304080, Note_on_c, 4, 74, 105
6, 304272, Note_on_c, 4, 74, 0
6, 304320, Note_on_c, 4, 72, 105
6, 304512, Note_on_c, 4, 72, 0
6, 304560, Note_on_c, 4, 70, 105
6, 304752, Note_on_c, 4, 70, 0
6, 304800, Note_on_c, 4, 69, 105
6, 304992, Note_on_c, 4, 69, 0
6, 305040, Note_on_c, 4, 67, 105
6, 305232, Note_on_c, 4, 67, 0
6, 305280, Note_on_c, 4, 66, 105
6, 305520, Note_on_c, 4, 66, 0
6, 305520, Note_on_c, 4, 69, 105
6, 305664, Note_on_c, 4, 69, 0
6, 305760, Note_on_c, 4, 67, 105
6, 305904, Note_on_c, 4, 67, 0
6, 306000, Note_on_c, 4, 64, 105
6, 306144, Note_on_c, 4, 64, 0
6, 306240, Note_on_c, 4, 66, 105
6, 306480, Note_on_c, 4, 66, 0
6, 306480, Note_on_c, 4, 69, 105
6, 306624, Note_on_c, 4, 69, 0
6, 306720, Note_on_c, 4, 67, 105
6, 306864, Note_on_c, 4, 67, 0
6, 306960, Note_on_c, 4, 64, 105
6, 307104, Note_on_c, 4, 64, 0
6, 307200, Note_on_c, 4, 66, 105
6, 307392, Note_on_c, 4, 66, 0
6, 307440, Note_on_c, 4, 62, 105
6, 307632, Note_on_c, 4, 62, 0
6, 307680, Note_on_c, 4, 69, 105
6, 307872, Note_on_c, 4, 69, 0
6, 307920, Note_on_c, 4, 67, 105
6, 308112, Note_on_c, 4, 67, 0
6, 308160, Note_on_c, 4, 66, 105
6, 308352, Note_on_c, 4, 66, 0
6, 308400, Note_on_c, 4, 63, 105
6, 308592, Note_on_c, 4, 63, 0
6, 308640, Note_on_c, 4, 62, 105
6, 308832, Note_on_c, 4, 62, 0
6, 308880, Note_on_c, 4, 60, 105
6, 309072, Note_on_c, 4, 60, 0
6, 309120, Note_on_c, 4, 58, 105
6, 309312, Note_on_c, 4, 58, 0
6, 309360, Note_on_c, 4, 62, 105
6, 309552, Note_on_c, 4, 62, 0
6, 309600, Note_on_c, 4, 67, 105
6, 309792, Note_on_c, 4, 67, 0
6, 309840, Note_on_c, 4, 70, 105
6, 310032, Note_on_c, 4, 70, 0
6, 310080, Note_on_c, 4, 74, 105
6, 310272, Note_on_c, 4, 74, 0
6, 310320, Note_on_c, 4, 74, 105
6, 310512, Note_on_c, 4, 74, 0
6, 310560, Note_on_c, 4, 74, 105
6, 310752, Note_on_c, 4, 74, 0
6, 310800, Note_on_c, 4, 74, 105
6, 310992, Note_on_c, 4, 74, 0
6, 311040, Note_on_c, 4, 72, 105
6, 311232, Note_on_c, 4, 72, 0
6, 311280, Note_on_c, 4, 70, 105
6, 311472, Note_on_c, 4, 70, 0
6, 311520, Note_on_c, 4, 69, 105
6, 311712, Note_on_c, 4, 69, 0
6, 311760, Note_on_c, 4, 67, 105
6, 311952, Note_on_c, 4, 67, 0
6, 312000, Note_on_c, 4, 66, 105
6, 312192, Note_on_c, 4, 66, 0
6, 312240, Note_on_c, 4, 63, 105
6, 312432, Note_on_c, 4, 63, 0
6, 312480, Note_on_c, 4, 62, 105
6, 312672, Note_on_c, 4, 62, 0
6, 312720, Note_on_c, 4, 60, 105
6, 312912, Note_on_c, 4, 60, 0
6, 312960, Note_on_c, 4, 58, 105
6, 313152, Note_on_c, 4, 58, 0
6, 313200, Note_on_c, 4, 62, 105
6, 313392, Note_on_c, 4, 62, 0
6, 313440, Note_on_c, 4, 67, 105
6, 313632, Note_on_c, 4, 67, 0
6, 313680, Note_on_c, 4, 70, 105
6, 313872, Note_on_c, 4, 70, 0
6, 313920, Note_on_c, 4, 74, 105
6, 314112, Note_on_c, 4, 74, 0
6, 314160, Note_on_c, 4, 74, 105
6, 314352, Note_on_c, 4, 74, 0
6, 314400, Note_on_c, 4, 74, 105
6, 314592, Note_on_c, 4, 74, 0
6, 314640, Note_on_c, 4, 74, 105
6, 314832, Note_on_c, 4, 74, 0
6, 314880, Note_on_c, 4, 72, 105
6, 315072, Note_on_c, 4, 72, 0
6, 315120, Note_on_c, 4, 70, 105
6, 315312, Note_on_c, 4, 70, 0
6, 315360, Note_on_c, 4, 69, 105
6, 315552, Note_on_c, 4, 69, 0
6, 315600, Note_on_c, 4, 67, 105
6, 315792, Note_on_c, 4, 67, 0
6, 315840, Note_on_c, 4, 66, 105
6, 316032, Note_on_c, 4, 66, 0
6, 316080, Note_on_c, 4, 75, 105
6, 316272, Note_on_c, 4, 75, 0
6, 316320, Note_on_c, 4, 74, 105
6, 316512, Note_on_c, 4, 74, 0
6, 316560, Note_on_c, 4, 72, 105
6, 316752, Note_on_c, 4, 72, 0
6, 316800, Note_on_c, 4, 70, 105
6, 316992, Note_on_c, 4, 70, 0
6, 317040, Note_on_c, 4, 74, 105
6, 317232, Note_on_c, 4, 74, 0
6, 317280, Note_on_c, 4, 79, 105
6, 317472, Note_on_c, 4, 79, 0
6, 317520, Note_on_c, 4, 82, 105
6, 317712, Note_on_c, 4, 82, 0
6, 317760, Note_on_c, 4, 86, 105
6, 317952, Note_on_c, 4, 86, 0
6, 318000, Note_on_c, 4, 86, 105
6, 318192, Note_on_c, 4, 86, 0
6, 318240, Note_on_c, 4, 86, 105
6, 318432, Note_on_c, 4, 86, 0
6, 318480, Note_on_c, 4, 86, 105
6, 318672, Note_on_c, 4, 86, 0
6, 318720, Note_on_c, 4, 72, 105
6, 318912, Note_on_c, 4, 72, 0
6, 318960, Note_on_c, 4, 75, 105
6, 319152, Note_on_c, 4, 75, 0
6, 319200, Note_on_c, 4, 79, 105
6, 319392, Note_on_c, 4, 79, 0
6, 319440, Note_on_c, 4, 84, 105
6, 319632, Note_on_c, 4, 84, 0
6, 319680, Note_on_c, 4, 87, 105
6, 319872, Note_on_c, 4, 87, 0
6, 319920, Note_on_c, 4, 87, 105
6, 320112, Note_on_c, 4, 87, 0
6, 320160, Note_on_c, 4, 87, 105
6, 320352, Note_on_c, 4, 87, 0
6, 320400, Note_on_c, 4, 87, 105
6, 320592, Note_on_c, 4, 87, 0
6, 320640, Note_on_c, 4, 69, 105
6, 320832, Note_on_c, 4, 69, 0
6, 320880, Note_on_c, 4, 72, 105
6, 321072, Note_on_c, 4, 72, 0
6, 321120, Note_on_c, 4, 77, 105
6, 321312, Note_on_c, 4, 77, 0
6, 321360, Note_on_c, 4, 81, 105
6, 321552, Note_on_c, 4, 81, 0
6, 321600, Note_on_c, 4, 84, 105
6, 321792, Note_on_c, 4, 84, 0
6, 321840, Note_on_c, 4, 84, 105
6, 322032, Note_on_c, 4, 84, 0
6, 322080, Note_on_c, 4, 84, 105
6, 322272, Note_on_c, 4, 84, 0
6, 322320, Note_on_c, 4, 84, 105
6, 322512, Note_on_c, 4, 84, 0
6, 322560, Note_on_c, 4, 70, 105
6, 322752, Note_on_c, 4, 70, 0
6, 322800, Note_on_c, 4, 74, 105
6, 322992, Note_on_c, 4, 74, 0
6, 323040, Note_on_c, 4, 77, 105
6, 323232, Note_on_c, 4, 77, 0
6, 323280, Note_on_c, 4, 82, 105
6, 323472, Note_on_c, 4, 82, 0
6, 323520, Note_on_c, 4, 86, 105
6, 323712, Note_on_c, 4, 86, 0
6, 323760, Note_on_c, 4, 86, 105
6, 323952, Note_on_c, 4, 86, 0
6, 324000, Note_on_c, 4, 86, 105
6, 324192, Note_on_c, 4, 86, 0
6, 324240, Note_on_c, 4, 86, 105
6, 324432, Note_on_c, 4, 86, 0
6, 324480, Note_on_c, 4, 79, 105
6, 324672, Note_on_c, 4, 79, 0
6, 324720, Note_on_c, 4, 81, 105
6, 324912, Note_on_c, 4, 81, 0
6, 324960, Note_on_c, 4, 82, 105
6, 325152, Note_on_c, 4, 82, 0
6, 325200, Note_on_c, 4, 81, 105
6, 325392, Note_on_c, 4, 81, 0
6, 325440, Note_on_c, 4, 79, 105
6, 325632, Note_on_c, 4, 79, 0
6, 325680, Note_on_c, 4, 77, 105
6, 325872, Note_on_c, 4, 77, 0
6, 325920, Note_on_c, 4, 75, 105
6, 326112, Note_on_c, 4, 75, 0
6, 326160, Note_on_c, 4, 74, 105
6, 326352, Note_on_c, 4, 74, 0
6, 326400, Note_on_c, 4, 75, 105
6, 326592, Note_on_c, 4, 75, 0
6, 326640, Note_on_c, 4, 77, 105
6, 326832, Note_on_c, 4, 77, 0
6, 326880, Note_on_c, 4, 79, 105
6, 327072, Note_on_c, 4, 79, 0
6, 327120, Note_on_c, 4, 77, 105
6, 327312, Note_on_c, 4, 77, 0
6, 327360, Note_on_c, 4, 75, 105
6, 327552, Note_on_c, 4, 75, 0
6, 327600, Note_on_c, 4, 74, 105
6, 327792, Note_on_c, 4, 74, 0
6, 327840, Note_on_c, 4, 72, 105
6, 328032, Note_on_c, 4, 72, 0
6, 328080, Note_on_c, 4, 70, 105
6, 328272, Note_on_c, 4, 70, 0
6, 328320, Note_on_c, 4, 69, 105
6, 328512, Note_on_c, 4, 69, 0
6, 328560, Note_on_c, 4, 70, 105
6, 328752, Note_on_c, 4, 70, 0
6, 328800, Note_on_c, 4, 72, 105
6, 328992, Note_on_c, 4, 72, 0
6, 329040, Note_on_c, 4, 70, 105
6, 329232, Note_on_c, 4, 70, 0
6, 329280, Note_on_c, 4, 69, 105
6, 329472, Note_on_c, 4, 69, 0
6, 329520, Note_on_c, 4, 67, 105
6, 329712, Note_on_c, 4, 67, 0
6, 329760, Note_on_c, 4, 65, 105
6, 329952, Note_on_c, 4, 65, 0
6, 330000, Note_on_c, 4, 64, 105
6, 330192, Note_on_c, 4, 64, 0
6, 330240, Note_on_c, 4, 65, 105
6, 331008, Note_on_c, 4, 65, 0
6, 332160, Note_on_c, 4, 77, 116
6, 332448, Note_on_c, 4, 77, 0
6, 332640, Note_on_c, 4, 77, 116
6, 332928, Note_on_c, 4, 77, 0
6, 333120, Note_on_c, 4, 77, 116
6, 333408, Note_on_c, 4, 77, 0
6, 333600, Note_on_c, 4, 77, 116
6, 333888, Note_on_c, 4, 77, 0
6, 334080, Note_on_c, 4, 77, 116
6, 334848, Note_on_c, 4, 77, 0
6, 336000, Note_on_c, 4, 86, 116
6, 336288, Note_on_c, 4, 86, 0
6, 336480, Note_on_c, 4, 86, 116
6, 336768, Note_on_c, 4, 86, 0
6, 336960, Note_on_c, 4, 86, 116
6, 337248, Note_on_c, 4, 86, 0
6, 337440, Note_on_c, 4, 86, 116
6, 337728, Note_on_c, 4, 86, 0
6, 337920, Note_on_c, 4, 86, 116
6, 338688, Note_on_c, 4, 86, 0
6, 339840, Note_on_c, 4, 84, 116
6, 340128, Note_on_c, 4, 84, 0
6, 340320, Note_on_c, 4, 83, 116
6, 340608, Note_on_c, 4, 83, 0
6, 340800, Note_on_c, 4, 84, 116
6, 341088, Note_on_c, 4, 84, 0
6, 341280, Note_on_c, 4, 83, 116
6, 341568, Note_on_c, 4, 83, 0
6, 341760, Note_on_c, 4, 84, 116
6, 342528, Note_on_c, 4, 84, 0
6, 343680, Note_on_c, 4, 87, 116
6, 343968, Note_on_c, 4, 87, 0
6, 344160, Note_on_c, 4, 87, 116
6, 344448, Note_on_c, 4, 87, 0
6, 344640, Note_on_c, 4, 87, 116
6, 344928, Note_on_c, 4, 87, 0
6, 345120, Note_on_c, 4, 87, 116
6, 345408, Note_on_c, 4, 87, 0
6, 345600, Note_on_c, 4, 87, 127
6, 345792, Note_on_c, 4, 87, 0
6, 345840, Note_on_c, 4, 86, 116
6, 346032, Note_on_c, 4, 86, 0
6, 346080, Note_on_c, 4, 84, 116
6, 346272, Note_on_c, 4, 84, 0
6, 346320, Note_on_c, 4, 82, 116
6, 346512, Note_on_c, 4, 82, 0
6, 346560, Note_on_c, 4, 81, 116
6, 346752, Note_on_c, 4, 81, 0
6, 346800, Note_on_c, 4, 79, 116
6, 346992, Note_on_c, 4, 79, 0
6, 347040, Note_on_c, 4, 77, 116
6, 347232, Note_on_c, 4, 77, 0
6, 347280, Note_on_c, 4, 75, 116
6, 347472, Note_on_c, 4, 75, 0
6, 347520, Note_on_c, 4, 74, 116
6, 348672, Note_on_c, 4, 74, 0
6, 349200, Note_on_c, 4, 86, 116
6, 349392, Note_on_c, 4, 86, 0
6, 349440, Note_on_c, 4, 84, 127
6, 349632, Note_on_c, 4, 84, 0
6, 349680, Note_on_c, 4, 82, 116
6, 349872, Note_on_c, 4, 82, 0
6, 349920, Note_on_c, 4, 81, 116
6, 350112, Note_on_c, 4, 81, 0
6, 350160, Note_on_c, 4, 79, 116
6, 350352, Note_on_c, 4, 79, 0
6, 350400, Note_on_c, 4, 78, 116
6, 350592, Note_on_c, 4, 78, 0
6, 350640, Note_on_c, 4, 75, 116
6, 350832, Note_on_c, 4, 75, 0
6, 350880, Note_on_c, 4, 74, 116
6, 351072, Note_on_c, 4, 74, 0
6, 351120, Note_on_c, 4, 72, 116
6, 351312, Note_on_c, 4, 72, 0
6, 351360, Note_on_c, 4, 70, 116
6, 352512, Note_on_c, 4, 70, 0
6, 353040, Note_on_c, 4, 82, 116
6, 353232, Note_on_c, 4, 82, 0
6, 353280, Note_on_c, 4, 80, 127
6, 353472, Note_on_c, 4, 80, 0
6, 353520, Note_on_c, 4, 79, 116
6, 353712, Note_on_c, 4, 79, 0
6, 353760, Note_on_c, 4, 77, 116
6, 353952, Note_on_c, 4, 77, 0
6, 354000, Note_on_c, 4, 75, 116
6, 354192, Note_on_c, 4, 75, 0
6, 354240, Note_on_c, 4, 74, 116
6, 354432, Note_on_c, 4, 74, 0
6, 354480, Note_on_c, 4, 72, 116
6, 354672, Note_on_c, 4, 72, 0
6, 354720, Note_on_c, 4, 70, 116
6, 354912, Note_on_c, 4, 70, 0
6, 354960, Note_on_c, 4, 68, 116
6, 355152, Note_on_c, 4, 68, 0
6, 355200, Note_on_c, 4, 67, 116
6, 356352, Note_on_c, 4, 67, 0
6, 356880, Note_on_c, 4, 79, 116
6, 357072, Note_on_c, 4, 79, 0
6, 357120, Note_on_c, 4, 77, 127
6, 357312, Note_on_c, 4, 77, 0
6, 357360, Note_on_c, 4, 75, 116
6, 357552, Note_on_c, 4, 75, 0
6, 357600, Note_on_c, 4, 74, 116
6, 357792, Note_on_c, 4, 74, 0
6, 357840, Note_on_c, 4, 72, 116
6, 358032, Note_on_c, 4, 72, 0
6, 358080, Note_on_c, 4, 71, 116
6, 358272, Note_on_c, 4, 71, 0
6, 358320, Note_on_c, 4, 68, 116
6, 358512, Note_on_c, 4, 68, 0
6, 358560, Note_on_c, 4, 67, 116
6, 358752, Note_on_c, 4, 67, 0
6, 358800, Note_on_c, 4, 65, 116
6, 358992, Note_on_c, 4, 65, 0
6, 359040, Note_on_c, 4, 63, 116
6, 359232, Note_on_c, 4, 63, 0
6, 359280, Note_on_c, 4, 65, 116
6, 359472, Note_on_c, 4, 65, 0
6, 359520, Note_on_c, 4, 67, 116
6, 359712, Note_on_c, 4, 67, 0
6, 359760, Note_on_c, 4, 63, 116
6, 359952, Note_on_c, 4, 63, 0
6, 360000, Note_on_c, 4, 62, 116
6, 360192, Note_on_c, 4, 62, 0
6, 360240, Note_on_c, 4, 63, 116
6, 360432, Note_on_c, 4, 63, 0
6, 360480, Note_on_c, 4, 65, 116
6, 360672, Note_on_c, 4, 65, 0
6, 360720, Note_on_c, 4, 62, 116
6, 360912, Note_on_c, 4, 62, 0
6, 360960, Note_on_c, 4, 60, 116
6, 361152, Note_on_c, 4, 60, 0
6, 361200, Note_on_c, 4, 62, 116
6, 361392, Note_on_c, 4, 62, 0
6, 361440, Note_on_c, 4, 63, 116
6, 361632, Note_on_c, 4, 63, 0
6, 361680, Note_on_c, 4, 60, 116
6, 361872, Note_on_c, 4, 60, 0
6, 361920, Note_on_c, 4, 58, 116
6, 362112, Note_on_c, 4, 58, 0
6, 362160, Note_on_c, 4, 60, 116
6, 362352, Note_on_c, 4, 60, 0
6, 362400, Note_on_c, 4, 62, 116
6, 362592, Note_on_c, 4, 62, 0
6, 362640, Note_on_c, 4, 58, 116
6, 362832, Note_on_c, 4, 58, 0
6, 362880, Note_on_c, 4, 57, 127
6, 363072, Note_on_c, 4, 57, 0
6, 363120, Note_on_c, 4, 60, 105
6, 363312, Note_on_c, 4, 60, 0
6, 363360, Note_on_c, 4, 65, 105
6, 363552, Note_on_c, 4, 65, 0
6, 363600, Note_on_c, 4, 69, 105
6, 363792, Note_on_c, 4, 69, 0
6, 363840, Note_on_c, 4, 72, 105
6, 364032, Note_on_c, 4, 72, 0
6, 364080, Note_on_c, 4, 72, 105
6, 364272, Note_on_c, 4, 72, 0
6, 364320, Note_on_c, 4, 72, 105
6, 364512, Note_on_c, 4, 72, 0
6, 364560, Note_on_c, 4, 72, 105
6, 364752, Note_on_c, 4, 72, 0
6, 364800, Note_on_c, 4, 55, 125
6, 364992, Note_on_c, 4, 55, 0
6, 365040, Note_on_c, 4, 58, 105
6, 365232, Note_on_c, 4, 58, 0
6, 365280, Note_on_c, 4, 64, 105
6, 365472, Note_on_c, 4, 64, 0
6, 365520, Note_on_c, 4, 67, 105
6, 365712, Note_on_c, 4, 67, 0
6, 365760, Note_on_c, 4, 70, 105
6, 365952, Note_on_c, 4, 70, 0
6, 366000, Note_on_c, 4, 70, 105
6, 366192, Note_on_c, 4, 70, 0
6, 366240, Note_on_c, 4, 70, 105
6, 366432, Note_on_c, 4, 70, 0
6, 366480, Note_on_c, 4, 70, 105
6, 366672, Note_on_c, 4, 70, 0
6, 366720, Note_on_c, 4, 69, 125
6, 366912, Note_on_c, 4, 69, 0
6, 366960, Note_on_c, 4, 72, 105
6, 367152, Note_on_c, 4, 72, 0
6, 367200, Note_on_c, 4, 77, 105
6, 367392, Note_on_c, 4, 77, 0
6, 367440, Note_on_c, 4, 81, 105
6, 367632, Note_on_c, 4, 81, 0
6, 367680, Note_on_c, 4, 84, 105
6, 367872, Note_on_c, 4, 84, 0
6, 367920, Note_on_c, 4, 84, 105
6, 368112, Note_on_c, 4, 84, 0
6, 368160, Note_on_c, 4, 84, 105
6, 368352, Note_on_c, 4, 84, 0
6, 368400, Note_on_c, 4, 84, 105
6, 368592, Note_on_c, 4, 84, 0
6, 368640, Note_on_c, 4, 67, 125
6, 368832, Note_on_c, 4, 67, 0
6, 368880, Note_on_c, 4, 70, 105
6, 369072, Note_on_c, 4, 70, 0
6, 369120, Note_on_c, 4, 76, 105
6, 369312, Note_on_c, 4, 76, 0
6, 369360, Note_on_c, 4, 79, 105
6, 369552, Note_on_c, 4, 79, 0
6, 369600, Note_on_c, 4, 82, 105
6, 369792, Note_on_c, 4, 82, 0
6, 369840, Note_on_c, 4, 82, 105
6, 370032, Note_on_c, 4, 82, 0
6, 370080, Note_on_c, 4, 82, 105
6, 370272, Note_on_c, 4, 82, 0
6, 370320, Note_on_c, 4, 82, 105
6, 370512, Note_on_c, 4, 82, 0
6, 370560, Note_on_c, 4, 81, 105
6, 370944, Note_on_c, 4, 81, 0
6, 371520, Note_on_c, 4, 77, 105
6, 371520, Note_on_c, 4, 69, 105
6, 371904, Note_on_c, 4, 69, 0
6, 371904, Note_on_c, 4, 77, 0
6, 372480, Note_on_c, 4, 57, 92
6, 372480, Note_on_c, 4, 65, 92
6, 373248, Note_on_c, 4, 65, 0
6, 373248, Note_on_c, 4, 57, 0
6, 373920, Note_on_c, 4, 77, 70
6, 374304, Note_on_c, 4, 77, 0
6, 374400, Note_on_c, 4, 77, 70
6, 376128, Note_on_c, 4, 77, 0
6, 376320, Note_on_c, 4, 76, 70
6, 376440, Note_on_c, 4, 76, 0
6, 376440, Note_on_c, 4, 77, 70
6, 377112, Note_on_c, 4, 77, 0
6, 377280, Note_on_c, 4, 76, 70
6, 377400, Note_on_c, 4, 76, 0
6, 377400, Note_on_c, 4, 77, 70
6, 378072, Note_on_c, 4, 77, 0
6, 378240, Note_on_c, 4, 82, 92
6, 378960, Note_on_c, 4, 82, 0
6, 378960, Note_on_c, 4, 79, 70
6, 379152, Note_on_c, 4, 79, 0
6, 379200, Note_on_c, 4, 75, 70
6, 381120, Note_on_c, 4, 75, 0
6, 381120, Note_on_c, 4, 74, 70
6, 382464, Note_on_c, 4, 74, 0
6, 382800, Note_on_c, 4, 71, 70
6, 383040, Note_on_c, 4, 71, 0
6, 383040, Note_on_c, 4, 72, 70
6, 383424, Note_on_c, 4, 72, 0
6, 383760, Note_on_c, 4, 74, 70
6, 384000, Note_on_c, 4, 74, 0
6, 384000, Note_on_c, 4, 75, 70
6, 384384, Note_on_c, 4, 75, 0
6, 384720, Note_on_c, 4, 77, 70
6, 384960, Note_on_c, 4, 77, 0
6, 384960, Note_on_c, 4, 78, 70
6, 385344, Note_on_c, 4, 78, 0
6, 385680, Note_on_c, 4, 79, 70
6, 385872, Note_on_c, 4, 79, 0
6, 385920, Note_on_c, 4, 70, 70
6, 387360, Note_on_c, 4, 70, 0
6, 387360, Note_on_c, 4, 74, 70
6, 387600, Note_on_c, 4, 74, 0
6, 387600, Note_on_c, 4, 72, 70
6, 387792, Note_on_c, 4, 72, 0
6, 387840, Note_on_c, 4, 72, 70
6, 388320, Note_on_c, 4, 72, 0
6, 388320, Note_on_c, 4, 74, 70
6, 388800, Note_on_c, 4, 74, 0
6, 388800, Note_on_c, 4, 75, 70
6, 389280, Note_on_c, 4, 75, 0
6, 389280, Note_on_c, 4, 76, 70
6, 389664, Note_on_c, 4, 76, 0
6, 389760, Note_on_c, 4, 77, 70
6, 392064, Note_on_c, 4, 77, 0
6, 392160, Note_on_c, 4, 78, 70
6, 392640, Note_on_c, 4, 78, 0
6, 392640, Note_on_c, 4, 79, 70
6, 393120, Note_on_c, 4, 79, 0
6, 393120, Note_on_c, 4, 81, 70
6, 393600, Note_on_c, 4, 81, 0
6, 393600, Note_on_c, 4, 82, 70
6, 394080, Note_on_c, 4, 82, 0
6, 394080, Note_on_c, 4, 81, 70
6, 394560, Note_on_c, 4, 81, 0
6, 394560, Note_on_c, 4, 79, 70
6, 395040, Note_on_c, 4, 79, 0
6, 395040, Note_on_c, 4, 78, 70
6, 395520, Note_on_c, 4, 78, 0
6, 395520, Note_on_c, 4, 77, 70
6, 396000, Note_on_c, 4, 77, 0
6, 396000, Note_on_c, 4, 76, 70
6, 396480, Note_on_c, 4, 76, 0
6, 396480, Note_on_c, 4, 75, 70
6, 396960, Note_on_c, 4, 75, 0
6, 396960, Note_on_c, 4, 74, 70
6, 397344, Note_on_c, 4, 74, 0
6, 397440, Note_on_c, 4, 71, 70
6, 397872, Note_on_c, 4, 71, 0
6, 397920, Note_on_c, 4, 72, 70
6, 398400, Note_on_c, 4, 72, 0
6, 398400, Note_on_c, 4, 75, 70
6, 398880, Note_on_c, 4, 75, 0
6, 398880, Note_on_c, 4, 79, 70
6, 399264, Note_on_c, 4, 79, 0
6, 399360, Note_on_c, 4, 70, 70
6, 400800, Note_on_c, 4, 70, 0
6, 400800, Note_on_c, 4, 74, 70
6, 401040, Note_on_c, 4, 74, 0
6, 401040, Note_on_c, 4, 72, 70
6, 401280, Note_on_c, 4, 72, 0
6, 401280, Note_on_c, 4, 70, 58
6, 401664, Note_on_c, 4, 70, 0
6, 409920, Note_on_c, 4, 75, 58
6, 410160, Note_on_c, 4, 75, 0
6, 410160, Note_on_c, 4, 74, 58
6, 410400, Note_on_c, 4, 74, 0
6, 410400, Note_on_c, 4, 72, 58
6, 410640, Note_on_c, 4, 72, 0
6, 410640, Note_on_c, 4, 70, 58
6, 410832, Note_on_c, 4, 70, 0
6, 410880, Note_on_c, 4, 69, 58
6, 411840, Note_on_c, 4, 69, 0
6, 411840, Note_on_c, 4, 70, 58
6, 412608, Note_on_c, 4, 70, 0
6, 420480, Note_on_c, 4, 65, 58
6, 425280, Note_on_c, 4, 65, 0
6, 425280, Note_on_c, 4, 64, 58
6, 426240, Note_on_c, 4, 64, 0
6, 426240, Note_on_c, 4, 63, 58
6, 427200, Note_on_c, 4, 63, 0
6, 427200, Note_on_c, 4, 62, 58
6, 427968, Note_on_c, 4, 62, 0
6, 428160, Note_on_c, 4, 63, 58
6, 429600, Note_on_c, 4, 63, 0
6, 429600, Note_on_c, 4, 65, 58
6, 429840, Note_on_c, 4, 65, 0
6, 429840, Note_on_c, 4, 67, 58
6, 430032, Note_on_c, 4, 67, 0
6, 430080, Note_on_c, 4, 62, 58
6, 430656, Note_on_c, 4, 62, 0
6, 431040, Note_on_c, 4, 60, 58
6, 431616, Note_on_c, 4, 60, 0
6, 432000, Note_on_c, 4, 58, 105
6, 432192, Note_on_c, 4, 58, 0
6, 432240, Note_on_c, 4, 77, 105
6, 432432, Note_on_c, 4, 77, 0
6, 432480, Note_on_c, 4, 77, 105
6, 432672, Note_on_c, 4, 77, 0
6, 432720, Note_on_c, 4, 77, 105
6, 432912, Note_on_c, 4, 77, 0
6, 432960, Note_on_c, 4, 77, 105
6, 433152, Note_on_c, 4, 77, 0
6, 433200, Note_on_c, 4, 77, 105
6, 433392, Note_on_c, 4, 77, 0
6, 433440, Note_on_c, 4, 77, 105
6, 433632, Note_on_c, 4, 77, 0
6, 433680, Note_on_c, 4, 77, 105
6, 433872, Note_on_c, 4, 77, 0
6, 433920, Note_on_c, 4, 82, 105
6, 434160, Note_on_c, 4, 82, 0
6, 434160, Note_on_c, 4, 86, 105
6, 434304, Note_on_c, 4, 86, 0
6, 434400, Note_on_c, 4, 84, 105
6, 434544, Note_on_c, 4, 84, 0
6, 434640, Note_on_c, 4, 81, 105
6, 434784, Note_on_c, 4, 81, 0
6, 434880, Note_on_c, 4, 82, 105
6, 435120, Note_on_c, 4, 82, 0
6, 435120, Note_on_c, 4, 86, 105
6, 435264, Note_on_c, 4, 86, 0
6, 435360, Note_on_c, 4, 84, 105
6, 435504, Note_on_c, 4, 84, 0
6, 435600, Note_on_c, 4, 81, 105
6, 435744, Note_on_c, 4, 81, 0
6, 435840, Note_on_c, 4, 82, 105
6, 436032, Note_on_c, 4, 82, 0
6, 436080, Note_on_c, 4, 77, 105
6, 436272, Note_on_c, 4, 77, 0
6, 436320, Note_on_c, 4, 77, 105
6, 436512, Note_on_c, 4, 77, 0
6, 436560, Note_on_c, 4, 77, 105
6, 436752, Note_on_c, 4, 77, 0
6, 436800, Note_on_c, 4, 77, 105
6, 436992, Note_on_c, 4, 77, 0
6, 437040, Note_on_c, 4, 77, 105
6, 437232, Note_on_c, 4, 77, 0
6, 437280, Note_on_c, 4, 77, 105
6, 437472, Note_on_c, 4, 77, 0
6, 437520, Note_on_c, 4, 77, 105
6, 437712, Note_on_c, 4, 77, 0
6, 437760, Note_on_c, 4, 82, 105
6, 438000, Note_on_c, 4, 82, 0
6, 438000, Note_on_c, 4, 86, 105
6, 438144, Note_on_c, 4, 86, 0
6, 438240, Note_on_c, 4, 84, 105
6, 438384, Note_on_c, 4, 84, 0
6, 438480, Note_on_c, 4, 81, 105
6, 438624, Note_on_c, 4, 81, 0
6, 438720, Note_on_c, 4, 82, 105
6, 438960, Note_on_c, 4, 82, 0
6, 438960, Note_on_c, 4, 86, 105
6, 439104, Note_on_c, 4, 86, 0
6, 439200, Note_on_c, 4, 84, 105
6, 439344, Note_on_c, 4, 84, 0
6, 439440, Note_on_c, 4, 81, 105
6, 439584, Note_on_c, 4, 81, 0
6, 439680, Note_on_c, 4, 82, 105
6, 439872, Note_on_c, 4, 82, 0
6, 439920, Note_on_c, 4, 77, 105
6, 440112, Note_on_c, 4, 77, 0
6, 440160, Note_on_c, 4, 77, 105
6, 440352, Note_on_c, 4, 77, 0
6, 440400, Note_on_c, 4, 77, 105
6, 440592, Note_on_c, 4, 77, 0
6, 440640, Note_on_c, 4, 77, 105
6, 440832, Note_on_c, 4, 77, 0
6, 440880, Note_on_c, 4, 77, 105
6, 441072, Note_on_c, 4, 77, 0
6, 441120, Note_on_c, 4, 77, 105
6, 441312, Note_on_c, 4, 77, 0
6, 441360, Note_on_c, 4, 77, 105
6, 441552, Note_on_c, 4, 77, 0
6, 441600, Note_on_c, 4, 82, 105
6, 441840, Note_on_c, 4, 82, 0
6, 441840, Note_on_c, 4, 86, 105
6, 441984, Note_on_c, 4, 86, 0
6, 442080, Note_on_c, 4, 84, 105
6, 442224, Note_on_c, 4, 84, 0
6, 442320, Note_on_c, 4, 81, 105
6, 442464, Note_on_c, 4, 81, 0
6, 442560, Note_on_c, 4, 82, 105
6, 442800, Note_on_c, 4, 82, 0
6, 442800, Note_on_c, 4, 86, 105
6, 442944, Note_on_c, 4, 86, 0
6, 443040, Note_on_c, 4, 84, 105
6, 443184, Note_on_c, 4, 84, 0
6, 443280, Note_on_c, 4, 81, 105
6, 443424, Note_on_c, 4, 81, 0
6, 443520, Note_on_c, 4, 82, 105
6, 443712, Note_on_c, 4, 82, 0
6, 443760, Note_on_c, 4, 77, 105
6, 443952, Note_on_c, 4, 77, 0
6, 444000, Note_on_c, 4, 77, 105
6, 444192, Note_on_c, 4, 77, 0
6, 444240, Note_on_c, 4, 77, 105
6, 444432, Note_on_c, 4, 77, 0
6, 444480, Note_on_c, 4, 79, 105
6, 444672, Note_on_c, 4, 79, 0
6, 444720, Note_on_c, 4, 75, 105
6, 444912, Note_on_c, 4, 75, 0
6, 444960, Note_on_c, 4, 75, 105
6, 445152, Note_on_c, 4, 75, 0
6, 445200, Note_on_c, 4, 75, 105
6, 445392, Note_on_c, 4, 75, 0
6, 445440, Note_on_c, 4, 74, 105
6, 445632, Note_on_c, 4, 74, 0
6, 445680, Note_on_c, 4, 70, 105
6, 445872, Note_on_c, 4, 70, 0
6, 445920, Note_on_c, 4, 70, 105
6, 446112, Note_on_c, 4, 70, 0
6, 446160, Note_on_c, 4, 70, 105
6, 446352, Note_on_c, 4, 70, 0
6, 446400, Note_on_c, 4, 77, 105
6, 446592, Note_on_c, 4, 77, 0
6, 446640, Note_on_c, 4, 69, 105
6, 446832, Note_on_c, 4, 69, 0
6, 446880, Note_on_c, 4, 69, 105
6, 447072, Note_on_c, 4, 69, 0
6, 447120, Note_on_c, 4, 69, 105
6, 447312, Note_on_c, 4, 69, 0
6, 447360, Note_on_c, 4, 70, 92
6, 447504, Note_on_c, 4, 70, 0
6, 447600, Note_on_c, 4, 65, 92
6, 447840, Note_on_c, 4, 65, 0
6, 447840, Note_on_c, 4, 64, 70
6, 448080, Note_on_c, 4, 64, 0
6, 448080, Note_on_c, 4, 65, 70
6, 448320, Note_on_c, 4, 65, 0
6, 448320, Note_on_c, 4, 64, 70
6, 448560, Note_on_c, 4, 64, 0
6, 448560, Note_on_c, 4, 65, 70
6, 448800, Note_on_c, 4, 65, 0
6, 448800, Note_on_c, 4, 67, 70
6, 449040, Note_on_c, 4, 67, 0
6, 449040, Note_on_c, 4, 65, 70
6, 449232, Note_on_c, 4, 65, 0
6, 449280, Note_on_c, 4, 70, 70
6, 449520, Note_on_c, 4, 70, 0
6, 449520, Note_on_c, 4, 74, 70
6, 449664, Note_on_c, 4, 74, 0
6, 449760, Note_on_c, 4, 72, 70
6, 449904, Note_on_c, 4, 72, 0
6, 450000, Note_on_c, 4, 69, 70
6, 450144, Note_on_c, 4, 69, 0
6, 450240, Note_on_c, 4, 70, 70
6, 450480, Note_on_c, 4, 70, 0
6, 450480, Note_on_c, 4, 74, 70
6, 450624, Note_on_c, 4, 74, 0
6, 450720, Note_on_c, 4, 72, 70
6, 450864, Note_on_c, 4, 72, 0
6, 450960, Note_on_c, 4, 69, 70
6, 451104, Note_on_c, 4, 69, 0
6, 451200, Note_on_c, 4, 70, 70
6, 451344, Note_on_c, 4, 70, 0
6, 451440, Note_on_c, 4, 77, 70
6, 451680, Note_on_c, 4, 77, 0
6, 451680, Note_on_c, 4, 76, 70
6, 451920, Note_on_c, 4, 76, 0
6, 451920, Note_on_c, 4, 77, 70
6, 452160, Note_on_c, 4, 77, 0
6, 452160, Note_on_c, 4, 76, 70
6, 452400, Note_on_c, 4, 76, 0
6, 452400, Note_on_c, 4, 77, 70
6, 452640, Note_on_c, 4, 77, 0
6, 452640, Note_on_c, 4, 79, 70
6, 452880, Note_on_c, 4, 79, 0
6, 452880, Note_on_c, 4, 77, 70
6, 453072, Note_on_c, 4, 77, 0
6, 453120, Note_on_c, 4, 70, 70
6, 453360, Note_on_c, 4, 70, 0
6, 453360, Note_on_c, 4, 74, 70
6, 453504, Note_on_c, 4, 74, 0
6, 453600, Note_on_c, 4, 72, 70
6, 453744, Note_on_c, 4, 72, 0
6, 453840, Note_on_c, 4, 69, 70
6, 453984, Note_on_c, 4, 69, 0
6, 454080, Note_on_c, 4, 70, 70
6, 454320, Note_on_c, 4, 70, 0
6, 454320, Note_on_c, 4, 74, 70
6, 454464, Note_on_c, 4, 74, 0
6, 454560, Note_on_c, 4, 72, 70
6, 454704, Note_on_c, 4, 72, 0
6, 454800, Note_on_c, 4, 69, 70
6, 454944, Note_on_c, 4, 69, 0
6, 455040, Note_on_c, 4, 70, 70
6, 455184, Note_on_c, 4, 70, 0
6, 455280, Note_on_c, 4, 65, 70
6, 455520, Note_on_c, 4, 65, 0
6, 455520, Note_on_c, 4, 64, 70
6, 455760, Note_on_c, 4, 64, 0
6, 455760, Note_on_c, 4, 65, 70
6, 456000, Note_on_c, 4, 65, 0
6, 456000, Note_on_c, 4, 64, 70
6, 456240, Note_on_c, 4, 64, 0
6, 456240, Note_on_c, 4, 65, 70
6, 456480, Note_on_c, 4, 65, 0
6, 456480, Note_on_c, 4, 67, 70
6, 456720, Note_on_c, 4, 67, 0
6, 456720, Note_on_c, 4, 65, 70
6, 456912, Note_on_c, 4, 65, 0
6, 456960, Note_on_c, 4, 77, 105
6, 457152, Note_on_c, 4, 77, 0
6, 457200, Note_on_c, 4, 77, 105
6, 457392, Note_on_c, 4, 77, 0
6, 457440, Note_on_c, 4, 77, 105
6, 457632, Note_on_c, 4, 77, 0
6, 457680, Note_on_c, 4, 77, 105
6, 457872, Note_on_c, 4, 77, 0
6, 457920, Note_on_c, 4, 77, 105
6, 458112, Note_on_c, 4, 77, 0
6, 458160, Note_on_c, 4, 77, 105
6, 458352, Note_on_c, 4, 77, 0
6, 458400, Note_on_c, 4, 77, 105
6, 458592, Note_on_c, 4, 77, 0
6, 458640, Note_on_c, 4, 77, 105
6, 458832, Note_on_c, 4, 77, 0
6, 458880, Note_on_c, 4, 77, 105
6, 459072, Note_on_c, 4, 77, 0
6, 459120, Note_on_c, 4, 82, 105
6, 459312, Note_on_c, 4, 82, 0
6, 459360, Note_on_c, 4, 82, 105
6, 459552, Note_on_c, 4, 82, 0
6, 459600, Note_on_c, 4, 82, 105
6, 459792, Note_on_c, 4, 82, 0
6, 459840, Note_on_c, 4, 72, 105
6, 460032, Note_on_c, 4, 72, 0
6, 460080, Note_on_c, 4, 79, 105
6, 460272, Note_on_c, 4, 79, 0
6, 460320, Note_on_c, 4, 79, 105
6, 460512, Note_on_c, 4, 79, 0
6, 460560, Note_on_c, 4, 79, 105
6, 460752, Note_on_c, 4, 79, 0
6, 460800, Note_on_c, 4, 77, 105
6, 460992, Note_on_c, 4, 77, 0
6, 461040, Note_on_c, 4, 74, 105
6, 461232, Note_on_c, 4, 74, 0
6, 461280, Note_on_c, 4, 74, 105
6, 461472, Note_on_c, 4, 74, 0
6, 461520, Note_on_c, 4, 74, 105
6, 461712, Note_on_c, 4, 74, 0
6, 461760, Note_on_c, 4, 77, 105
6, 461952, Note_on_c, 4, 77, 0
6, 462000, Note_on_c, 4, 69, 105
6, 462192, Note_on_c, 4, 69, 0
6, 462240, Note_on_c, 4, 69, 105
6, 462432, Note_on_c, 4, 69, 0
6, 462480, Note_on_c, 4, 69, 105
6, 462672, Note_on_c, 4, 69, 0
6, 462720, Note_on_c, 4, 70, 105
6, 463488, Note_on_c, 4, 70, 0
6, 464400, Note_on_c, 4, 82, 116
6, 464592, Note_on_c, 4, 82, 0
6, 464640, Note_on_c, 4, 81, 127
6, 464832, Note_on_c, 4, 81, 0
6, 464880, Note_on_c, 4, 84, 116
6, 465072, Note_on_c, 4, 84, 0
6, 465120, Note_on_c, 4, 87, 116
6, 465312, Note_on_c, 4, 87, 0
6, 465360, Note_on_c, 4, 84, 116
6, 465552, Note_on_c, 4, 84, 0
6, 465600, Note_on_c, 4, 87, 116
6, 465792, Note_on_c, 4, 87, 0
6, 465840, Note_on_c, 4, 84, 116
6, 466032, Note_on_c, 4, 84, 0
6, 466080, Note_on_c, 4, 81, 116
6, 466272, Note_on_c, 4, 81, 0
6, 466320, Note_on_c, 4, 84, 116
6, 466512, Note_on_c, 4, 84, 0
6, 466560, Note_on_c, 4, 82, 116
6, 467328, Note_on_c, 4, 82, 0
6, 468000, Note_on_c, 4, 82, 116
6, 468192, Note_on_c, 4, 82, 0
6, 468480, Note_on_c, 4, 81, 127
6, 468672, Note_on_c, 4, 81, 0
6, 468720, Note_on_c, 4, 84, 116
6, 468912, Note_on_c, 4, 84, 0
6, 468960, Note_on_c, 4, 87, 116
6, 469152, Note_on_c, 4, 87, 0
6, 469200, Note_on_c, 4, 84, 116
6, 469392, Note_on_c, 4, 84, 0
6, 469440, Note_on_c, 4, 87, 116
6, 469632, Note_on_c, 4, 87, 0
6, 469680, Note_on_c, 4, 84, 116
6, 469872, Note_on_c, 4, 84, 0
6, 469920, Note_on_c, 4, 81, 116
6, 470112, Note_on_c, 4, 81, 0
6, 470160, Note_on_c, 4, 84, 116
6, 470352, Note_on_c, 4, 84, 0
6, 470400, Note_on_c, 4, 82, 116
6, 471168, Note_on_c, 4, 82, 0
6, 471840, Note_on_c, 4, 82, 116
6, 472032, Note_on_c, 4, 82, 0
6, 472320, Note_on_c, 4, 81, 127
6, 472512, Note_on_c, 4, 81, 0
6, 472560, Note_on_c, 4, 84, 116
6, 472752, Note_on_c, 4, 84, 0
6, 472800, Note_on_c, 4, 87, 116
6, 472992, Note_on_c, 4, 87, 0
6, 473040, Note_on_c, 4, 84, 116
6, 473232, Note_on_c, 4, 84, 0
6, 473280, Note_on_c, 4, 87, 116
6, 473472, Note_on_c, 4, 87, 0
6, 473520, Note_on_c, 4, 84, 116
6, 473712, Note_on_c, 4, 84, 0
6, 473760, Note_on_c, 4, 81, 116
6, 473952, Note_on_c, 4, 81, 0
6, 474000, Note_on_c, 4, 84, 116
6, 474192, Note_on_c, 4, 84, 0
6, 474240, Note_on_c, 4, 82, 116
6, 474624, Note_on_c, 4, 82, 0
6, 475200, Note_on_c, 4, 62, 116
6, 475200, Note_on_c, 4, 70, 116
6, 475200, Note_on_c, 4, 82, 116
6, 475584, Note_on_c, 4, 82, 0
6, 475584, Note_on_c, 4, 70, 0
6, 475584, Note_on_c, 4, 62, 0
6, 476160, Note_on_c, 4, 58, 92
6, 476928, Note_on_c, 4, 58, 0
6, 477600, Note_on_c, 4, 70, 112
6, 478080, Note_on_c, 4, 70, 0
6, 478080, Note_on_c, 4, 74, 105
6, 478368, Note_on_c, 4, 74, 0
6, 478560, Note_on_c, 4, 77, 105
6, 478848, Note_on_c, 4, 77, 0
6, 479040, Note_on_c, 4, 81, 105
6, 479328, Note_on_c, 4, 81, 0
6, 479520, Note_on_c, 4, 82, 105
6, 479808, Note_on_c, 4, 82, 0
6, 480000, Note_on_c, 4, 85, 105
6, 480960, Note_on_c, 4, 85, 0
6, 480960, Note_on_c, 4, 84, 105
6, 481248, Note_on_c, 4, 84, 0
6, 481440, Note_on_c, 4, 76, 105
6, 481728, Note_on_c, 4, 76, 0
6, 481920, Note_on_c, 4, 80, 105
6, 482256, Note_on_c, 4, 80, 0
6, 482880, Note_on_c, 4, 71, 105
6, 483216, Note_on_c, 4, 71, 0
6, 485520, Note_on_c, 4, 71, 105
6, 485600, Note_on_c, 4, 71, 0
6, 485600, Note_on_c, 4, 72, 105
6, 485680, Note_on_c, 4, 72, 0
6, 485680, Note_on_c, 4, 74, 105
6, 485760, Note_on_c, 4, 74, 0
6, 485760, Note_on_c, 4, 75, 105
6, 486096, Note_on_c, 4, 75, 0
6, 486720, Note_on_c, 4, 66, 105
6, 487056, Note_on_c, 4, 66, 0
6, 487680, Note_on_c, 4, 70, 105
6, 488016, Note_on_c, 4, 70, 0
6, 489600, Note_on_c, 4, 61, 105
6, 489936, Note_on_c, 4, 61, 0
6, 491520, Note_on_c, 4, 65, 105
6, 491856, Note_on_c, 4, 65, 0
6, 492480, Note_on_c, 4, 56, 105
6, 492816, Note_on_c, 4, 56, 0
6, 496800, Note_on_c, 4, 68, 70
6, 497280, Note_on_c, 4, 68, 0
6, 497280, Note_on_c, 4, 69, 70
6, 497568, Note_on_c, 4, 69, 0
6, 497760, Note_on_c, 4, 73, 70
6, 498048, Note_on_c, 4, 73, 0
6, 498240, Note_on_c, 4, 76, 70
6, 498528, Note_on_c, 4, 76, 0
6, 498720, Note_on_c, 4, 79, 70
6, 499008, Note_on_c, 4, 79, 0
6, 499200, Note_on_c, 4, 82, 70
6, 500160, Note_on_c, 4, 82, 0
6, 500160, Note_on_c, 4, 81, 70
6, 500448, Note_on_c, 4, 81, 0
6, 500640, Note_on_c, 4, 79, 70
6, 500928, Note_on_c, 4, 79, 0
6, 501120, Note_on_c, 4, 77, 58
6, 501408, Note_on_c, 4, 77, 0
6, 504480, Note_on_c, 4, 68, 58
6, 504960, Note_on_c, 4, 68, 0
6, 504960, Note_on_c, 4, 69, 70
6, 505248, Note_on_c, 4, 69, 0
6, 505440, Note_on_c, 4, 73, 70
6, 505728, Note_on_c, 4, 73, 0
6, 505920, Note_on_c, 4, 76, 70
6, 506208, Note_on_c, 4, 76, 0
6, 506400, Note_on_c, 4, 79, 70
6, 506688, Note_on_c, 4, 79, 0
6, 506880, Note_on_c, 4, 82, 70
6, 507840, Note_on_c, 4, 82, 0
6, 507840, Note_on_c, 4, 81, 70
6, 508128, Note_on_c, 4, 81, 0
6, 508320, Note_on_c, 4, 79, 70
6, 508608, Note_on_c, 4, 79, 0
6, 508800, Note_on_c, 4, 78, 58
6, 509088, Note_on_c, 4, 78, 0
6, 512160, Note_on_c, 4, 66, 58
6, 512640, Note_on_c, 4, 66, 0
6, 512640, Note_on_c, 4, 67, 70
6, 512928, Note_on_c, 4, 67, 0
6, 513120, Note_on_c, 4, 71, 70
6, 513408, Note_on_c, 4, 71, 0
6, 513600, Note_on_c, 4, 74, 70
6, 513888, Note_on_c, 4, 74, 0
6, 514080, Note_on_c, 4, 77, 70
6, 514368, Note_on_c, 4, 77, 0
6, 514560, Note_on_c, 4, 80, 70
6, 515520, Note_on_c, 4, 80, 0
6, 515520, Note_on_c, 4, 79, 70
6, 515808, Note_on_c, 4, 79, 0
6, 516000, Note_on_c, 4, 77, 70
6, 516288, Note_on_c, 4, 77, 0
6, 516480, Note_on_c, 4, 76, 70
6, 516768, Note_on_c, 4, 76, 0
6, 518880, Note_on_c, 4, 64, 70
6, 519264, Note_on_c, 4, 64, 0
6, 519360, Note_on_c, 4, 64, 70
6, 519744, Note_on_c, 4, 64, 0
6, 519840, Note_on_c, 4, 64, 70
6, 520224, Note_on_c, 4, 64, 0
6, 520320, Note_on_c, 4, 65, 70
6, 521088, Note_on_c, 4, 65, 0
6, 521760, Note_on_c, 4, 68, 105
6, 522240, Note_on_c, 4, 68, 0
6, 522240, Note_on_c, 4, 71, 105
6, 522528, Note_on_c, 4, 71, 0
6, 522720, Note_on_c, 4, 74, 105
6, 523008, Note_on_c, 4, 74, 0
6, 523200, Note_on_c, 4, 77, 105
6, 523488, Note_on_c, 4, 77, 0
6, 523680, Note_on_c, 4, 83, 105
6, 523968, Note_on_c, 4, 83, 0
6, 524160, Note_on_c, 4, 84, 105
6, 524448, Note_on_c, 4, 84, 0
6, 524640, Note_on_c, 4, 79, 105
6, 524928, Note_on_c, 4, 79, 0
6, 525120, Note_on_c, 4, 82, 105
6, 526224, Note_on_c, 4, 82, 0
6, 526320, Note_on_c, 4, 80, 105
6, 526464, Note_on_c, 4, 80, 0
6, 526560, Note_on_c, 4, 79, 105
6, 526704, Note_on_c, 4, 79, 0
6, 526800, Note_on_c, 4, 77, 105
6, 526944, Note_on_c, 4, 77, 0
6, 527040, Note_on_c, 4, 76, 105
6, 527184, Note_on_c, 4, 76, 0
6, 527280, Note_on_c, 4, 73, 105
6, 527424, Note_on_c, 4, 73, 0
6, 527520, Note_on_c, 4, 72, 105
6, 527664, Note_on_c, 4, 72, 0
6, 527760, Note_on_c, 4, 70, 105
6, 527904, Note_on_c, 4, 70, 0
6, 528000, Note_on_c, 4, 68, 105
6, 528288, Note_on_c, 4, 68, 0
6, 528480, Note_on_c, 4, 72, 105
6, 528768, Note_on_c, 4, 72, 0
6, 528960, Note_on_c, 4, 80, 105
6, 530112, Note_on_c, 4, 80, 0
6, 530160, Note_on_c, 4, 79, 105
6, 530352, Note_on_c, 4, 79, 0
6, 530400, Note_on_c, 4, 77, 105
6, 530592, Note_on_c, 4, 77, 0
6, 530640, Note_on_c, 4, 75, 105
6, 530832, Note_on_c, 4, 75, 0
6, 530880, Note_on_c, 4, 74, 105
6, 531072, Note_on_c, 4, 74, 0
6, 531120, Note_on_c, 4, 72, 105
6, 531312, Note_on_c, 4, 72, 0
6, 531360, Note_on_c, 4, 70, 105
6, 531552, Note_on_c, 4, 70, 0
6, 531600, Note_on_c, 4, 68, 105
6, 531792, Note_on_c, 4, 68, 0
6, 531840, Note_on_c, 4, 67, 105
6, 533376, Note_on_c, 4, 67, 0
6, 534240, Note_on_c, 4, 70, 105
6, 534720, Note_on_c, 4, 70, 0
6, 534720, Note_on_c, 4, 82, 105
6, 535008, Note_on_c, 4, 82, 0
6, 535200, Note_on_c, 4, 84, 105
6, 535488, Note_on_c, 4, 84, 0
6, 535680, Note_on_c, 4, 77, 105
6, 536448, Note_on_c, 4, 77, 0
6, 537120, Note_on_c, 4, 80, 105
6, 537408, Note_on_c, 4, 80, 0
6, 537600, Note_on_c, 4, 74, 105
6, 538368, Note_on_c, 4, 74, 0
6, 539040, Note_on_c, 4, 77, 105
6, 539328, Note_on_c, 4, 77, 0
6, 539520, Note_on_c, 4, 75, 125
6, 539712, Note_on_c, 4, 75, 0
6, 539760, Note_on_c, 4, 79, 105
6, 539952, Note_on_c, 4, 79, 0
6, 540000, Note_on_c, 4, 82, 105
6, 540192, Note_on_c, 4, 82, 0
6, 540240, Note_on_c, 4, 80, 105
6, 540432, Note_on_c, 4, 80, 0
6, 540480, Note_on_c, 4, 79, 105
6, 540672, Note_on_c, 4, 79, 0
6, 540720, Note_on_c, 4, 77, 105
6, 540912, Note_on_c, 4, 77, 0
6, 540960, Note_on_c, 4, 75, 105
6, 541152, Note_on_c, 4, 75, 0
6, 541200, Note_on_c, 4, 74, 105
6, 541392, Note_on_c, 4, 74, 0
6, 541440, Note_on_c, 4, 72, 105
6, 542208, Note_on_c, 4, 72, 0
6, 542880, Note_on_c, 4, 75, 105
6, 543264, Note_on_c, 4, 75, 0
6, 543360, Note_on_c, 4, 74, 125
6, 543552, Note_on_c, 4, 74, 0
6, 543600, Note_on_c, 4, 77, 105
6, 543792, Note_on_c, 4, 77, 0
6, 543840, Note_on_c, 4, 80, 105
6, 544032, Note_on_c, 4, 80, 0
6, 544080, Note_on_c, 4, 79, 105
6, 544272, Note_on_c, 4, 79, 0
6, 544320, Note_on_c, 4, 77, 105
6, 544512, Note_on_c, 4, 77, 0
6, 544560, Note_on_c, 4, 75, 105
6, 544752, Note_on_c, 4, 75, 0
6, 544800, Note_on_c, 4, 74, 105
6, 544992, Note_on_c, 4, 74, 0
6, 545040, Note_on_c, 4, 72, 105
6, 545232, Note_on_c, 4, 72, 0
6, 545280, Note_on_c, 4, 71, 105
6, 546048, Note_on_c, 4, 71, 0
6, 546720, Note_on_c, 4, 67, 127
6, 547200, Note_on_c, 4, 67, 0
6, 547200, Note_on_c, 4, 72, 116
6, 547488, Note_on_c, 4, 72, 0
6, 547680, Note_on_c, 4, 75, 116
6, 547968, Note_on_c, 4, 75, 0
6, 548160, Note_on_c, 4, 79, 116
6, 548448, Note_on_c, 4, 79, 0
6, 548640, Note_on_c, 4, 84, 116
6, 548928, Note_on_c, 4, 84, 0
6, 549120, Note_on_c, 4, 87, 116
6, 550080, Note_on_c, 4, 87, 0
6, 550080, Note_on_c, 4, 86, 116
6, 550368, Note_on_c, 4, 86, 0
6, 550560, Note_on_c, 4, 84, 116
6, 550848, Note_on_c, 4, 84, 0
6, 551040, Note_on_c, 4, 82, 116
6, 551808, Note_on_c, 4, 82, 0
6, 554400, Note_on_c, 4, 69, 127
6, 554880, Note_on_c, 4, 69, 0
6, 554880, Note_on_c, 4, 74, 116
6, 555168, Note_on_c, 4, 74, 0
6, 555360, Note_on_c, 4, 77, 116
6, 555648, Note_on_c, 4, 77, 0
6, 555840, Note_on_c, 4, 81, 116
6, 556128, Note_on_c, 4, 81, 0
6, 556320, Note_on_c, 4, 86, 116
6, 556608, Note_on_c, 4, 86, 0
6, 556800, Note_on_c, 4, 89, 116
6, 557760, Note_on_c, 4, 89, 0
6, 557760, Note_on_c, 4, 88, 116
6, 558048, Note_on_c, 4, 88, 0
6, 558240, Note_on_c, 4, 86, 116
6, 558528, Note_on_c, 4, 86, 0
6, 558720, Note_on_c, 4, 84, 92
6, 559488, Note_on_c, 4, 84, 0
6, 562080, Note_on_c, 4, 59, 127
6, 562560, Note_on_c, 4, 59, 0
6, 562560, Note_on_c, 4, 64, 116
6, 562848, Note_on_c, 4, 64, 0
6, 563040, Note_on_c, 4, 67, 116
6, 563328, Note_on_c, 4, 67, 0
6, 563520, Note_on_c, 4, 71, 116
6, 563808, Note_on_c, 4, 71, 0
6, 564000, Note_on_c, 4, 76, 116
6, 564288, Note_on_c, 4, 76, 0
6, 564480, Note_on_c, 4, 79, 116
6, 565440, Note_on_c, 4, 79, 0
6, 565440, Note_on_c, 4, 78, 116
6, 565824, Note_on_c, 4, 78, 0
6, 565920, Note_on_c, 4, 76, 116
6, 566304, Note_on_c, 4, 76, 0
6, 566400, Note_on_c, 4, 74, 116
6, 567168, Note_on_c, 4, 74, 0
6, 569760, Note_on_c, 4, 68, 127
6, 570240, Note_on_c, 4, 68, 0
6, 570240, Note_on_c, 4, 73, 116
6, 570576, Note_on_c, 4, 73, 0
6, 570720, Note_on_c, 4, 78, 116
6, 571056, Note_on_c, 4, 78, 0
6, 571200, Note_on_c, 4, 82, 116
6, 571536, Note_on_c, 4, 82, 0
6, 571680, Note_on_c, 4, 85, 116
6, 572016, Note_on_c, 4, 85, 0
6, 572160, Note_on_c, 4, 88, 116
6, 572928, Note_on_c, 4, 88, 0
6, 573120, Note_on_c, 4, 79, 116
6, 573888, Note_on_c, 4, 79, 0
6, 574080, Note_on_c, 4, 80, 105
6, 574272, Note_on_c, 4, 80, 0
6, 574320, Note_on_c, 4, 80, 105
6, 574512, Note_on_c, 4, 80, 0
6, 574560, Note_on_c, 4, 80, 105
6, 574752, Note_on_c, 4, 80, 0
6, 574800, Note_on_c, 4, 80, 105
6, 574992, Note_on_c, 4, 80, 0
6, 575040, Note_on_c, 4, 80, 105
6, 575232, Note_on_c, 4, 80, 0
6, 575280, Note_on_c, 4, 80, 105
6, 575472, Note_on_c, 4, 80, 0
6, 575520, Note_on_c, 4, 80, 105
6, 575712, Note_on_c, 4, 80, 0
6, 575760, Note_on_c, 4, 80, 105
6, 575952, Note_on_c, 4, 80, 0
6, 576000, Note_on_c, 4, 80, 105
6, 576192, Note_on_c, 4, 80, 0
6, 576240, Note_on_c, 4, 80, 105
6, 576432, Note_on_c, 4, 80, 0
6, 576480, Note_on_c, 4, 80, 105
6, 576672, Note_on_c, 4, 80, 0
6, 576720, Note_on_c, 4, 80, 105
6, 576912, Note_on_c, 4, 80, 0
6, 576960, Note_on_c, 4, 80, 105
6, 577152, Note_on_c, 4, 80, 0
6, 577200, Note_on_c, 4, 80, 105
6, 577392, Note_on_c, 4, 80, 0
6, 577440, Note_on_c, 4, 80, 105
6, 577632, Note_on_c, 4, 80, 0
6, 577680, Note_on_c, 4, 80, 105
6, 577872, Note_on_c, 4, 80, 0
6, 577920, Note_on_c, 4, 80, 105
6, 578112, Note_on_c, 4, 80, 0
6, 578160, Note_on_c, 4, 80, 105
6, 578352, Note_on_c, 4, 80, 0
6, 578400, Note_on_c, 4, 80, 105
6, 578592, Note_on_c, 4, 80, 0
6, 578640, Note_on_c, 4, 80, 105
6, 578832, Note_on_c, 4, 80, 0
6, 578880, Note_on_c, 4, 80, 105
6, 579072, Note_on_c, 4, 80, 0
6, 579120, Note_on_c, 4, 80, 105
6, 579312, Note_on_c, 4, 80, 0
6, 579360, Note_on_c, 4, 80, 105
6, 579552, Note_on_c, 4, 80, 0
6, 579600, Note_on_c, 4, 80, 105
6, 579792, Note_on_c, 4, 80, 0
6, 579840, Note_on_c, 4, 80, 105
6, 580032, Note_on_c, 4, 80, 0
6, 580080, Note_on_c, 4, 80, 105
6, 580272, Note_on_c, 4, 80, 0
6, 580320, Note_on_c, 4, 80, 105
6, 580512, Note_on_c, 4, 80, 0
6, 580560, Note_on_c, 4, 80, 105
6, 580752, Note_on_c, 4, 80, 0
6, 580800, Note_on_c, 4, 80, 105
6, 580992, Note_on_c, 4, 80, 0
6, 581040, Note_on_c, 4, 80, 105
6, 581232, Note_on_c, 4, 80, 0
6, 581280, Note_on_c, 4, 80, 105
6, 581472, Note_on_c, 4, 80, 0
6, 581520, Note_on_c, 4, 80, 105
6, 581712, Note_on_c, 4, 80, 0
6, 581760, Note_on_c, 4, 80, 105
6, 581952, Note_on_c, 4, 80, 0
6, 582000, Note_on_c, 4, 80, 105
6, 582192, Note_on_c, 4, 80, 0
6, 582240, Note_on_c, 4, 80, 105
6, 582432, Note_on_c, 4, 80, 0
6, 582480, Note_on_c, 4, 80, 105
6, 582672, Note_on_c, 4, 80, 0
6, 582720, Note_on_c, 4, 80, 105
6, 582912, Note_on_c, 4, 80, 0
6, 582960, Note_on_c, 4, 80, 105
6, 583152, Note_on_c, 4, 80, 0
6, 583200, Note_on_c, 4, 80, 105
6, 583392, Note_on_c, 4, 80, 0
6, 583440, Note_on_c, 4, 80, 105
6, 583632, Note_on_c, 4, 80, 0
6, 583680, Note_on_c, 4, 80, 105
6, 583872, Note_on_c, 4, 80, 0
6, 583920, Note_on_c, 4, 80, 105
6, 584112, Note_on_c, 4, 80, 0
6, 584160, Note_on_c, 4, 80, 105
6, 584352, Note_on_c, 4, 80, 0
6, 584400, Note_on_c, 4, 80, 105
6, 584592, Note_on_c, 4, 80, 0
6, 584640, Note_on_c, 4, 80, 105
6, 584832, Note_on_c, 4, 80, 0
6, 584880, Note_on_c, 4, 80, 105
6, 585072, Note_on_c, 4, 80, 0
6, 585120, Note_on_c, 4, 80, 105
6, 585312, Note_on_c, 4, 80, 0
6, 585360, Note_on_c, 4, 80, 105
6, 585552, Note_on_c, 4, 80, 0
6, 585600, Note_on_c, 4, 80, 105
6, 585792, Note_on_c, 4, 80, 0
6, 585840, Note_on_c, 4, 80, 105
6, 586032, Note_on_c, 4, 80, 0
6, 586080, Note_on_c, 4, 80, 105
6, 586272, Note_on_c, 4, 80, 0
6, 586320, Note_on_c, 4, 80, 105
6, 586512, Note_on_c, 4, 80, 0
6, 586560, Note_on_c, 4, 80, 105
6, 586752, Note_on_c, 4, 80, 0
6, 586800, Note_on_c, 4, 80, 105
6, 586992, Note_on_c, 4, 80, 0
6, 587040, Note_on_c, 4, 80, 105
6, 587232, Note_on_c, 4, 80, 0
6, 587280, Note_on_c, 4, 80, 105
6, 587472, Note_on_c, 4, 80, 0
6, 587520, Note_on_c, 4, 81, 105
6, 587712, Note_on_c, 4, 81, 0
6, 587760, Note_on_c, 4, 81, 105
6, 587952, Note_on_c, 4, 81, 0
6, 588000, Note_on_c, 4, 81, 105
6, 588192, Note_on_c, 4, 81, 0
6, 588240, Note_on_c, 4, 81, 105
6, 588432, Note_on_c, 4, 81, 0
6, 588480, Note_on_c, 4, 81, 105
6, 588672, Note_on_c, 4, 81, 0
6, 588720, Note_on_c, 4, 81, 105
6, 588912, Note_on_c, 4, 81, 0
6, 588960, Note_on_c, 4, 81, 105
6, 589152, Note_on_c, 4, 81, 0
6, 589200, Note_on_c, 4, 81, 105
6, 589392, Note_on_c, 4, 81, 0
6, 589440, Note_on_c, 4, 80, 105
6, 589632, Note_on_c, 4, 80, 0
6, 589680, Note_on_c, 4, 80, 105
6, 589872, Note_on_c, 4, 80, 0
6, 589920, Note_on_c, 4, 80, 105
6, 590112, Note_on_c, 4, 80, 0
6, 590160, Note_on_c, 4, 80, 105
6, 590352, Note_on_c, 4, 80, 0
6, 590400, Note_on_c, 4, 80, 105
6, 590592, Note_on_c, 4, 80, 0
6, 590640, Note_on_c, 4, 80, 105
6, 590832, Note_on_c, 4, 80, 0
6, 590880, Note_on_c, 4, 80, 105
6, 591072, Note_on_c, 4, 80, 0
6, 591120, Note_on_c, 4, 80, 105
6, 591312, Note_on_c, 4, 80, 0
6, 591360, Note_on_c, 4, 78, 105
6, 591552, Note_on_c, 4, 78, 0
6, 591600, Note_on_c, 4, 78, 105
6, 591792, Note_on_c, 4, 78, 0
6, 591840, Note_on_c, 4, 78, 105
6, 592032, Note_on_c, 4, 78, 0
6, 592080, Note_on_c, 4, 78, 105
6, 592272, Note_on_c, 4, 78, 0
6, 592320, Note_on_c, 4, 78, 105
6, 592512, Note_on_c, 4, 78, 0
6, 592560, Note_on_c, 4, 78, 105
6, 592752, Note_on_c, 4, 78, 0
6, 592800, Note_on_c, 4, 78, 105
6, 592992, Note_on_c, 4, 78, 0
6, 593040, Note_on_c, 4, 78, 105
6, 593232, Note_on_c, 4, 78, 0
6, 593280, Note_on_c, 4, 76, 105
6, 593664, Note_on_c, 4, 76, 0
6, 594240, Note_on_c, 4, 85, 105
6, 594624, Note_on_c, 4, 85, 0
6, 595200, Note_on_c, 4, 75, 105
6, 595584, Note_on_c, 4, 75, 0
6, 596160, Note_on_c, 4, 84, 105
6, 596544, Note_on_c, 4, 84, 0
6, 597120, Note_on_c, 4, 85, 105
6, 597504, Note_on_c, 4, 85, 0
6, 599040, Note_on_c, 4, 66, 58
6, 600960, Note_on_c, 4, 66, 0
6, 600960, Note_on_c, 4, 63, 58
6, 602880, Note_on_c, 4, 63, 0
6, 602880, Note_on_c, 4, 63, 58
6, 604032, Note_on_c, 4, 63, 0
6, 604320, Note_on_c, 4, 68, 127
6, 604800, Note_on_c, 4, 68, 0
6, 604800, Note_on_c, 4, 73, 116
6, 605088, Note_on_c, 4, 73, 0
6, 605280, Note_on_c, 4, 77, 116
6, 605568, Note_on_c, 4, 77, 0
6, 605760, Note_on_c, 4, 78, 116
6, 606048, Note_on_c, 4, 78, 0
6, 606240, Note_on_c, 4, 81, 116
6, 606528, Note_on_c, 4, 81, 0
6, 606720, Note_on_c, 4, 86, 116
6, 607680, Note_on_c, 4, 86, 0
6, 607680, Note_on_c, 4, 85, 116
6, 607968, Note_on_c, 4, 85, 0
6, 608160, Note_on_c, 4, 83, 116
6, 608448, Note_on_c, 4, 83, 0
6, 608640, Note_on_c, 4, 82, 116
6, 609024, Note_on_c, 4, 82, 0
6, 609600, Note_on_c, 4, 86, 116
6, 609600, Note_on_c, 4, 78, 116
6, 609984, Note_on_c, 4, 78, 0
6, 609984, Note_on_c, 4, 86, 0
6, 610560, Note_on_c, 4, 61, 116
6, 610560, Note_on_c, 4, 70, 116
6, 611328, Note_on_c, 4, 70, 0
6, 611328, Note_on_c, 4, 61, 0
6, 612000, Note_on_c, 4, 66, 116
6, 612480, Note_on_c, 4, 66, 0
6, 612480, Note_on_c, 4, 71, 116
6, 612768, Note_on_c, 4, 71, 0
6, 612960, Note_on_c, 4, 75, 116
6, 613248, Note_on_c, 4, 75, 0
6, 613440, Note_on_c, 4, 76, 116
6, 613728, Note_on_c, 4, 76, 0
6, 613920, Note_on_c, 4, 79, 116
6, 614208, Note_on_c, 4, 79, 0
6, 614400, Note_on_c, 4, 84, 116
6, 615360, Note_on_c, 4, 84, 0
6, 615360, Note_on_c, 4, 83, 116
6, 615648, Note_on_c, 4, 83, 0
6, 615840, Note_on_c, 4, 81, 116
6, 616128, Note_on_c, 4, 81, 0
6, 616320, Note_on_c, 4, 80, 116
6, 616704, Note_on_c, 4, 80, 0
6, 617280, Note_on_c, 4, 76, 116
6, 617280, Note_on_c, 4, 84, 116
6, 617664, Note_on_c, 4, 84, 0
6, 617664, Note_on_c, 4, 76, 0
6, 618240, Note_on_c, 4, 59, 116
6, 618240, Note_on_c, 4, 68, 116
6, 619008, Note_on_c, 4, 68, 0
6, 619008, Note_on_c, 4, 59, 0
6, 619680, Note_on_c, 4, 64, 116
6, 620160, Note_on_c, 4, 64, 0
6, 620160, Note_on_c, 4, 69, 116
6, 620448, Note_on_c, 4, 69, 0
6, 620640, Note_on_c, 4, 73, 116
6, 620928, Note_on_c, 4, 73, 0
6, 621120, Note_on_c, 4, 74, 116
6, 621408, Note_on_c, 4, 74, 0
6, 621600, Note_on_c, 4, 77, 116
6, 621888, Note_on_c, 4, 77, 0
6, 622080, Note_on_c, 4, 82, 116
6, 623040, Note_on_c, 4, 82, 0
6, 623040, Note_on_c, 4, 81, 116
6, 623328, Note_on_c, 4, 81, 0
6, 623520, Note_on_c, 4, 79, 116
6, 623808, Note_on_c, 4, 79, 0
6, 624000, Note_on_c, 4, 78, 116
6, 624384, Note_on_c, 4, 78, 0
6, 624960, Note_on_c, 4, 82, 105
6, 624960, Note_on_c, 4, 67, 105
6, 624960, Note_on_c, 4, 74, 105
6, 625344, Note_on_c, 4, 74, 0
6, 625344, Note_on_c, 4, 67, 0
6, 625344, Note_on_c, 4, 82, 0
6, 625920, Note_on_c, 4, 57, 92
6, 625920, Note_on_c, 4, 66, 112
6, 627456, Note_on_c, 4, 66, 0
6, 627456, Note_on_c, 4, 57, 0
6, 627840, Note_on_c, 4, 57, 92
6, 627840, Note_on_c, 4, 66, 112
6, 628992, Note_on_c, 4, 66, 0
6, 628992, Note_on_c, 4, 57, 0
6, 629280, Note_on_c, 4, 67, 105
6, 629472, Note_on_c, 4, 67, 0
6, 629520, Note_on_c, 4, 67, 105
6, 629712, Note_on_c, 4, 67, 0
6, 629760, Note_on_c, 4, 69, 105
6, 629952, Note_on_c, 4, 69, 0
6, 630000, Note_on_c, 4, 69, 105
6, 630192, Note_on_c, 4, 69, 0
6, 630240, Note_on_c, 4, 70, 105
6, 630432, Note_on_c, 4, 70, 0
6, 630480, Note_on_c, 4, 70, 105
6, 630672, Note_on_c, 4, 70, 0
6, 630720, Note_on_c, 4, 72, 105
6, 630912, Note_on_c, 4, 72, 0
6, 630960, Note_on_c, 4, 72, 105
6, 631152, Note_on_c, 4, 72, 0
6, 631200, Note_on_c, 4, 74, 105
6, 631392, Note_on_c, 4, 74, 0
6, 631440, Note_on_c, 4, 74, 105
6, 631632, Note_on_c, 4, 74, 0
6, 631680, Note_on_c, 4, 75, 105
6, 632064, Note_on_c, 4, 75, 0
6, 635040, Note_on_c, 4, 62, 70
6, 635520, Note_on_c, 4, 62, 0
6, 635520, Note_on_c, 4, 67, 70
6, 635808, Note_on_c, 4, 67, 0
6, 636000, Note_on_c, 4, 70, 70
6, 636288, Note_on_c, 4, 70, 0
6, 636480, Note_on_c, 4, 74, 70
6, 636768, Note_on_c, 4, 74, 0
6, 636960, Note_on_c, 4, 79, 70
6, 637248, Note_on_c, 4, 79, 0
6, 637440, Note_on_c, 4, 82, 70
6, 638400, Note_on_c, 4, 82, 0
6, 638400, Note_on_c, 4, 81, 70
6, 638688, Note_on_c, 4, 81, 0
6, 638880, Note_on_c, 4, 73, 105
6, 639024, Note_on_c, 4, 73, 0
6, 639120, Note_on_c, 4, 76, 105
6, 639264, Note_on_c, 4, 76, 0
6, 639360, Note_on_c, 4, 74, 105
6, 639600, Note_on_c, 4, 74, 0
6, 639600, Note_on_c, 4, 78, 105
6, 639744, Note_on_c, 4, 78, 0
6, 639840, Note_on_c, 4, 76, 105
6, 639984, Note_on_c, 4, 76, 0
6, 640080, Note_on_c, 4, 73, 105
6, 640224, Note_on_c, 4, 73, 0
6, 640320, Note_on_c, 4, 74, 105
6, 640560, Note_on_c, 4, 74, 0
6, 640560, Note_on_c, 4, 78, 105
6, 640704, Note_on_c, 4, 78, 0
6, 640800, Note_on_c, 4, 76, 105
6, 640944, Note_on_c, 4, 76, 0
6, 641040, Note_on_c, 4, 73, 105
6, 641184, Note_on_c, 4, 73, 0
6, 641280, Note_on_c, 4, 74, 105
6, 642048, Note_on_c, 4, 74, 0
6, 642720, Note_on_c, 4, 74, 70
6, 643200, Note_on_c, 4, 74, 0
6, 643200, Note_on_c, 4, 75, 70
6, 643488, Note_on_c, 4, 75, 0
6, 643680, Note_on_c, 4, 78, 70
6, 643968, Note_on_c, 4, 78, 0
6, 644160, Note_on_c, 4, 81, 70
6, 644448, Note_on_c, 4, 81, 0
6, 644640, Note_on_c, 4, 84, 70
6, 644928, Note_on_c, 4, 84, 0
6, 645120, Note_on_c, 4, 87, 70
6, 646080, Note_on_c, 4, 87, 0
6, 646080, Note_on_c, 4, 86, 70
6, 646368, Note_on_c, 4, 86, 0
6, 646560, Note_on_c, 4, 78, 116
6, 646704, Note_on_c, 4, 78, 0
6, 646800, Note_on_c, 4, 81, 116
6, 646944, Note_on_c, 4, 81, 0
6, 647040, Note_on_c, 4, 79, 116
6, 647280, Note_on_c, 4, 79, 0
6, 647280, Note_on_c, 4, 82, 116
6, 647424, Note_on_c, 4, 82, 0
6, 647520, Note_on_c, 4, 81, 116
6, 647664, Note_on_c, 4, 81, 0
6, 647760, Note_on_c, 4, 78, 116
6, 647904, Note_on_c, 4, 78, 0
6, 648000, Note_on_c, 4, 79, 116
6, 648240, Note_on_c, 4, 79, 0
6, 648240, Note_on_c, 4, 82, 116
6, 648384, Note_on_c, 4, 82, 0
6, 648480, Note_on_c, 4, 81, 116
6, 648624, Note_on_c, 4, 81, 0
6, 648720, Note_on_c, 4, 78, 116
6, 648864, Note_on_c, 4, 78, 0
6, 648960, Note_on_c, 4, 79, 116
6, 649728, Note_on_c, 4, 79, 0
6, 650400, Note_on_c, 4, 86, 116
6, 650688, Note_on_c, 4, 86, 0
6, 650880, Note_on_c, 4, 86, 116
6, 652032, Note_on_c, 4, 86, 0
6, 652320, Note_on_c, 4, 74, 70
6, 652704, Note_on_c, 4, 74, 0
6, 652800, Note_on_c, 4, 77, 70
6, 652860, Note_on_c, 4, 77, 0
6, 652860, Note_on_c, 4, 75, 70
6, 652920, Note_on_c, 4, 75, 0
6, 652920, Note_on_c, 4, 77, 70
6, 652980, Note_on_c, 4, 77, 0
6, 652980, Note_on_c, 4, 75, 70
6, 653040, Note_on_c, 4, 75, 0
6, 653040, Note_on_c, 4, 77, 70
6, 653100, Note_on_c, 4, 77, 0
6, 653100, Note_on_c, 4, 75, 70
6, 653160, Note_on_c, 4, 75, 0
6, 653160, Note_on_c, 4, 77, 70
6, 653220, Note_on_c, 4, 77, 0
6, 653220, Note_on_c, 4, 75, 70
6, 653280, Note_on_c, 4, 75, 0
6, 653280, Note_on_c, 4, 74, 70
6, 653568, Note_on_c, 4, 74, 0
6, 653760, Note_on_c, 4, 74, 70
6, 654048, Note_on_c, 4, 74, 0
6, 654240, Note_on_c, 4, 86, 116
6, 654528, Note_on_c, 4, 86, 0
6, 654720, Note_on_c, 4, 86, 116
6, 655872, Note_on_c, 4, 86, 0
6, 656160, Note_on_c, 4, 74, 70
6, 656544, Note_on_c, 4, 74, 0
6, 656640, Note_on_c, 4, 77, 70
6, 656700, Note_on_c, 4, 77, 0
6, 656700, Note_on_c, 4, 75, 70
6, 656760, Note_on_c, 4, 75, 0
6, 656760, Note_on_c, 4, 77, 70
6, 656820, Note_on_c, 4, 77, 0
6, 656820, Note_on_c, 4, 75, 70
6, 656880, Note_on_c, 4, 75, 0
6, 656880, Note_on_c, 4, 77, 70
6, 656940, Note_on_c, 4, 77, 0
6, 656940, Note_on_c, 4, 75, 70
6, 657000, Note_on_c, 4, 75, 0
6, 657000, Note_on_c, 4, 77, 70
6, 657060, Note_on_c, 4, 77, 0
6, 657060, Note_on_c, 4, 75, 70
6, 657120, Note_on_c, 4, 75, 0
6, 657120, Note_on_c, 4, 74, 70
6, 657408, Note_on_c, 4, 74, 0
6, 657600, Note_on_c, 4, 74, 70
6, 657888, Note_on_c, 4, 74, 0
6, 658080, Note_on_c, 4, 74, 70
6, 658560, Note_on_c, 4, 74, 0
6, 658560, Note_on_c, 4, 75, 70
6, 658848, Note_on_c, 4, 75, 0
6, 659040, Note_on_c, 4, 78, 70
6, 659328, Note_on_c, 4, 78, 0
6, 659520, Note_on_c, 4, 81, 70
6, 659808, Note_on_c, 4, 81, 0
6, 660000, Note_on_c, 4, 84, 70
6, 660288, Note_on_c, 4, 84, 0
6, 660480, Note_on_c, 4, 87, 70
6, 661440, Note_on_c, 4, 87, 0
6, 661440, Note_on_c, 4, 86, 70
6, 661824, Note_on_c, 4, 86, 0
6, 661920, Note_on_c, 4, 78, 116
6, 662064, Note_on_c, 4, 78, 0
6, 662160, Note_on_c, 4, 81, 116
6, 662304, Note_on_c, 4, 81, 0
6, 662400, Note_on_c, 4, 79, 116
6, 662640, Note_on_c, 4, 79, 0
6, 662640, Note_on_c, 4, 82, 116
6, 662784, Note_on_c, 4, 82, 0
6, 662880, Note_on_c, 4, 81, 116
6, 663024, Note_on_c, 4, 81, 0
6, 663120, Note_on_c, 4, 78, 116
6, 663264, Note_on_c, 4, 78, 0
6, 663360, Note_on_c, 4, 79, 116
6, 663600, Note_on_c, 4, 79, 0
6, 663600, Note_on_c, 4, 82, 116
6, 663744, Note_on_c, 4, 82, 0
6, 663840, Note_on_c, 4, 81, 116
6, 663984, Note_on_c, 4, 81, 0
6, 664080, Note_on_c, 4, 78, 116
6, 664224, Note_on_c, 4, 78, 0
6, 664320, Note_on_c, 4, 79, 116
6, 664512, Note_on_c, 4, 79, 0
6, 664560, Note_on_c, 4, 74, 116
6, 664752, Note_on_c, 4, 74, 0
6, 664800, Note_on_c, 4, 82, 116
6, 664992, Note_on_c, 4, 82, 0
6, 665040, Note_on_c, 4, 81, 116
6, 665232, Note_on_c, 4, 81, 0
6, 665280, Note_on_c, 4, 79, 116
6, 665472, Note_on_c, 4, 79, 0
6, 665520, Note_on_c, 4, 77, 116
6, 665712, Note_on_c, 4, 77, 0
6, 665760, Note_on_c, 4, 75, 116
6, 665952, Note_on_c, 4, 75, 0
6, 666000, Note_on_c, 4, 74, 116
6, 666192, Note_on_c, 4, 74, 0
6, 666240, Note_on_c, 4, 72, 116
6, 666480, Note_on_c, 4, 72, 0
6, 666480, Note_on_c, 4, 75, 116
6, 666624, Note_on_c, 4, 75, 0
6, 666720, Note_on_c, 4, 74, 116
6, 666864, Note_on_c, 4, 74, 0
6, 666960, Note_on_c, 4, 71, 116
6, 667104, Note_on_c, 4, 71, 0
6, 667200, Note_on_c, 4, 72, 116
6, 667440, Note_on_c, 4, 72, 0
6, 667440, Note_on_c, 4, 75, 116
6, 667584, Note_on_c, 4, 75, 0
6, 667680, Note_on_c, 4, 74, 116
6, 667824, Note_on_c, 4, 74, 0
6, 667920, Note_on_c, 4, 71, 116
6, 668064, Note_on_c, 4, 71, 0
6, 668160, Note_on_c, 4, 72, 116
6, 668352, Note_on_c, 4, 72, 0
6, 668400, Note_on_c, 4, 67, 116
6, 668592, Note_on_c, 4, 67, 0
6, 668640, Note_on_c, 4, 75, 116
6, 668832, Note_on_c, 4, 75, 0
6, 668880, Note_on_c, 4, 74, 116
6, 669072, Note_on_c, 4, 74, 0
6, 669120, Note_on_c, 4, 72, 116
6, 669312, Note_on_c, 4, 72, 0
6, 669360, Note_on_c, 4, 70, 116
6, 669552, Note_on_c, 4, 70, 0
6, 669600, Note_on_c, 4, 69, 116
6, 669792, Note_on_c, 4, 69, 0
6, 669840, Note_on_c, 4, 67, 116
6, 670032, Note_on_c, 4, 67, 0
6, 670080, Note_on_c, 4, 65, 116
6, 670320, Note_on_c, 4, 65, 0
6, 670320, Note_on_c, 4, 68, 116
6, 670464, Note_on_c, 4, 68, 0
6, 670560, Note_on_c, 4, 67, 116
6, 670704, Note_on_c, 4, 67, 0
6, 670800, Note_on_c, 4, 63, 116
6, 670944, Note_on_c, 4, 63, 0
6, 671040, Note_on_c, 4, 65, 116
6, 671280, Note_on_c, 4, 65, 0
6, 671280, Note_on_c, 4, 68, 116
6, 671424, Note_on_c, 4, 68, 0
6, 671520, Note_on_c, 4, 67, 116
6, 671664, Note_on_c, 4, 67, 0
6, 671760, Note_on_c, 4, 63, 116
6, 671904, Note_on_c, 4, 63, 0
6, 672000, Note_on_c, 4, 65, 116
6, 672192, Note_on_c, 4, 65, 0
6, 672240, Note_on_c, 4, 62, 116
6, 672432, Note_on_c, 4, 62, 0
6, 672480, Note_on_c, 4, 68, 116
6, 672672, Note_on_c, 4, 68, 0
6, 672720, Note_on_c, 4, 67, 116
6, 672912, Note_on_c, 4, 67, 0
6, 672960, Note_on_c, 4, 65, 116
6, 673152, Note_on_c, 4, 65, 0
6, 673200, Note_on_c, 4, 63, 116
6, 673392, Note_on_c, 4, 63, 0
6, 673440, Note_on_c, 4, 62, 116
6, 673632, Note_on_c, 4, 62, 0
6, 673680, Note_on_c, 4, 60, 116
6, 673872, Note_on_c, 4, 60, 0
6, 673920, Note_on_c, 4, 59, 116
6, 674160, Note_on_c, 4, 59, 0
6, 674160, Note_on_c, 4, 62, 116
6, 674304, Note_on_c, 4, 62, 0
6, 674400, Note_on_c, 4, 60, 116
6, 674544, Note_on_c, 4, 60, 0
6, 674640, Note_on_c, 4, 57, 116
6, 674784, Note_on_c, 4, 57, 0
6, 674880, Note_on_c, 4, 59, 116
6, 675120, Note_on_c, 4, 59, 0
6, 675120, Note_on_c, 4, 62, 116
6, 675264, Note_on_c, 4, 62, 0
6, 675360, Note_on_c, 4, 60, 116
6, 675504, Note_on_c, 4, 60, 0
6, 675600, Note_on_c, 4, 57, 116
6, 675744, Note_on_c, 4, 57, 0
6, 675840, Note_on_c, 4, 59, 116
6, 676032, Note_on_c, 4, 59, 0
6, 676080, Note_on_c, 4, 62, 116
6, 676272, Note_on_c, 4, 62, 0
6, 676320, Note_on_c, 4, 67, 116
6, 676512, Note_on_c, 4, 67, 0
6, 676560, Note_on_c, 4, 71, 116
6, 676752, Note_on_c, 4, 71, 0
6, 676800, Note_on_c, 4, 74, 116
6, 676992, Note_on_c, 4, 74, 0
6, 677040, Note_on_c, 4, 71, 116
6, 677232, Note_on_c, 4, 71, 0
6, 677280, Note_on_c, 4, 67, 116
6, 677472, Note_on_c, 4, 67, 0
6, 677520, Note_on_c, 4, 65, 116
6, 677712, Note_on_c, 4, 65, 0
6, 677760, Note_on_c, 4, 63, 116
6, 678048, Note_on_c, 4, 63, 0
6, 678240, Note_on_c, 4, 79, 116
6, 678528, Note_on_c, 4, 79, 0
6, 678720, Note_on_c, 4, 79, 116
6, 679008, Note_on_c, 4, 79, 0
6, 679200, Note_on_c, 4, 79, 116
6, 679488, Note_on_c, 4, 79, 0
6, 679680, Note_on_c, 4, 79, 116
6, 680448, Note_on_c, 4, 79, 0
6, 681600, Note_on_c, 4, 78, 116
6, 681888, Note_on_c, 4, 78, 0
6, 682080, Note_on_c, 4, 79, 116
6, 682368, Note_on_c, 4, 79, 0
6, 682560, Note_on_c, 4, 78, 116
6, 682848, Note_on_c, 4, 78, 0
6, 683040, Note_on_c, 4, 79, 116
6, 683328, Note_on_c, 4, 79, 0
6, 683520, Note_on_c, 4, 78, 116
6, 684288, Note_on_c, 4, 78, 0
6, 685440, Note_on_c, 4, 74, 116
6, 685440, Note_on_c, 4, 84, 116
6, 685728, Note_on_c, 4, 84, 0
6, 685728, Note_on_c, 4, 74, 0
6, 685920, Note_on_c, 4, 75, 116
6, 685920, Note_on_c, 4, 84, 116
6, 686208, Note_on_c, 4, 84, 0
6, 686208, Note_on_c, 4, 75, 0
6, 686400, Note_on_c, 4, 74, 116
6, 686400, Note_on_c, 4, 84, 116
6, 686688, Note_on_c, 4, 84, 0
6, 686688, Note_on_c, 4, 74, 0
6, 686880, Note_on_c, 4, 75, 116
6, 686880, Note_on_c, 4, 84, 116
6, 687168, Note_on_c, 4, 84, 0
6, 687168, Note_on_c, 4, 75, 0
6, 687360, Note_on_c, 4, 74, 116
6, 687360, Note_on_c, 4, 84, 116
6, 688128, Note_on_c, 4, 84, 0
6, 688128, Note_on_c, 4, 74, 0
6, 689280, Note_on_c, 4, 82, 116
6, 689520, Note_on_c, 4, 82, 0
6, 689520, Note_on_c, 4, 84, 116
6, 689664, Note_on_c, 4, 84, 0
6, 689760, Note_on_c, 4, 81, 116
6, 689904, Note_on_c, 4, 81, 0
6, 690000, Note_on_c, 4, 84, 116
6, 690144, Note_on_c, 4, 84, 0
6, 690240, Note_on_c, 4, 82, 116
6, 690480, Note_on_c, 4, 82, 0
6, 690480, Note_on_c, 4, 84, 116
6, 690624, Note_on_c, 4, 84, 0
6, 690720, Note_on_c, 4, 81, 116
6, 690864, Note_on_c, 4, 81, 0
6, 690960, Note_on_c, 4, 84, 116
6, 691104, Note_on_c, 4, 84, 0
6, 691200, Note_on_c, 4, 82, 116
6, 691392, Note_on_c, 4, 82, 0
6, 691440, Note_on_c, 4, 84, 116
6, 691632, Note_on_c, 4, 84, 0
6, 691680, Note_on_c, 4, 86, 116
6, 691872, Note_on_c, 4, 86, 0
6, 691920, Note_on_c, 4, 84, 116
6, 692112, Note_on_c, 4, 84, 0
6, 692160, Note_on_c, 4, 82, 116
6, 692352, Note_on_c, 4, 82, 0
6, 692400, Note_on_c, 4, 81, 116
6, 692592, Note_on_c, 4, 81, 0
6, 692640, Note_on_c, 4, 79, 116
6, 692832, Note_on_c, 4, 79, 0
6, 692880, Note_on_c, 4, 78, 116
6, 693072, Note_on_c, 4, 78, 0
6, 693120, Note_on_c, 4, 79, 116
6, 693360, Note_on_c, 4, 79, 0
6, 693360, Note_on_c, 4, 81, 116
6, 693504, Note_on_c, 4, 81, 0
6, 693600, Note_on_c, 4, 78, 116
6, 693744, Note_on_c, 4, 78, 0
6, 693840, Note_on_c, 4, 81, 116
6, 693984, Note_on_c, 4, 81, 0
6, 694080, Note_on_c, 4, 79, 116
6, 694320, Note_on_c, 4, 79, 0
6, 694320, Note_on_c, 4, 81, 116
6, 694464, Note_on_c, 4, 81, 0
6, 694560, Note_on_c, 4, 78, 116
6, 694704, Note_on_c, 4, 78, 0
6, 694800, Note_on_c, 4, 81, 116
6, 694944, Note_on_c, 4, 81, 0
6, 695040, Note_on_c, 4, 79, 116
6, 695232, Note_on_c, 4, 79, 0
6, 695280, Note_on_c, 4, 81, 116
6, 695472, Note_on_c, 4, 81, 0
6, 695520, Note_on_c, 4, 82, 116
6, 695712, Note_on_c, 4, 82, 0
6, 695760, Note_on_c, 4, 81, 116
6, 695952, Note_on_c, 4, 81, 0
6, 696000, Note_on_c, 4, 79, 116
6, 696192, Note_on_c, 4, 79, 0
6, 696240, Note_on_c, 4, 77, 116
6, 696432, Note_on_c, 4, 77, 0
6, 696480, Note_on_c, 4, 75, 116
6, 696672, Note_on_c, 4, 75, 0
6, 696720, Note_on_c, 4, 74, 116
6, 696912, Note_on_c, 4, 74, 0
6, 696960, Note_on_c, 4, 75, 116
6, 697152, Note_on_c, 4, 75, 0
6, 697200, Note_on_c, 4, 77, 116
6, 697392, Note_on_c, 4, 77, 0
6, 697440, Note_on_c, 4, 79, 116
6, 697632, Note_on_c, 4, 79, 0
6, 697680, Note_on_c, 4, 77, 116
6, 697872, Note_on_c, 4, 77, 0
6, 697920, Note_on_c, 4, 75, 116
6, 698112, Note_on_c, 4, 75, 0
6, 698160, Note_on_c, 4, 74, 116
6, 698352, Note_on_c, 4, 74, 0
6, 698400, Note_on_c, 4, 72, 116
6, 698592, Note_on_c, 4, 72, 0
6, 698640, Note_on_c, 4, 71, 116
6, 698832, Note_on_c, 4, 71, 0
6, 698880, Note_on_c, 4, 72, 116
6, 699072, Note_on_c, 4, 72, 0
6, 699120, Note_on_c, 4, 74, 116
6, 699312, Note_on_c, 4, 74, 0
6, 699360, Note_on_c, 4, 75, 116
6, 699552, Note_on_c, 4, 75, 0
6, 699600, Note_on_c, 4, 74, 116
6, 699792, Note_on_c, 4, 74, 0
6, 699840, Note_on_c, 4, 72, 116
6, 700032, Note_on_c, 4, 72, 0
6, 700080, Note_on_c, 4, 70, 116
6, 700272, Note_on_c, 4, 70, 0
6, 700320, Note_on_c, 4, 69, 116
6, 700512, Note_on_c, 4, 69, 0
6, 700560, Note_on_c, 4, 67, 116
6, 700752, Note_on_c, 4, 67, 0
6, 700800, Note_on_c, 4, 66, 116
6, 700992, Note_on_c, 4, 66, 0
6, 701040, Note_on_c, 4, 69, 116
6, 701232, Note_on_c, 4, 69, 0
6, 701280, Note_on_c, 4, 74, 116
6, 701472, Note_on_c, 4, 74, 0
6, 701520, Note_on_c, 4, 78, 116
6, 701712, Note_on_c, 4, 78, 0
6, 701760, Note_on_c, 4, 81, 105
6, 701952, Note_on_c, 4, 81, 0
6, 702000, Note_on_c, 4, 81, 105
6, 702192, Note_on_c, 4, 81, 0
6, 702240, Note_on_c, 4, 81, 105
6, 702432, Note_on_c, 4, 81, 0
6, 702480, Note_on_c, 4, 81, 105
6, 702672, Note_on_c, 4, 81, 0
6, 702720, Note_on_c, 4, 64, 105
6, 702912, Note_on_c, 4, 64, 0
6, 702960, Note_on_c, 4, 67, 105
6, 703152, Note_on_c, 4, 67, 0
6, 703200, Note_on_c, 4, 73, 105
6, 703392, Note_on_c, 4, 73, 0
6, 703440, Note_on_c, 4, 76, 105
6, 703632, Note_on_c, 4, 76, 0
6, 703680, Note_on_c, 4, 79, 105
6, 703872, Note_on_c, 4, 79, 0
6, 703920, Note_on_c, 4, 79, 105
6, 704112, Note_on_c, 4, 79, 0
6, 704160, Note_on_c, 4, 79, 105
6, 704352, Note_on_c, 4, 79, 0
6, 704400, Note_on_c, 4, 79, 105
6, 704592, Note_on_c, 4, 79, 0
6, 704640, Note_on_c, 4, 66, 105
6, 704832, Note_on_c, 4, 66, 0
6, 704880, Note_on_c, 4, 69, 105
6, 705072, Note_on_c, 4, 69, 0
6, 705120, Note_on_c, 4, 74, 105
6, 705312, Note_on_c, 4, 74, 0
6, 705360, Note_on_c, 4, 78, 105
6, 705552, Note_on_c, 4, 78, 0
6, 705600, Note_on_c, 4, 81, 105
6, 705792, Note_on_c, 4, 81, 0
6, 705840, Note_on_c, 4, 81, 105
6, 706032, Note_on_c, 4, 81, 0
6, 706080, Note_on_c, 4, 81, 105
6, 706272, Note_on_c, 4, 81, 0
6, 706320, Note_on_c, 4, 81, 105
6, 706512, Note_on_c, 4, 81, 0
6, 706560, Note_on_c, 4, 69, 105
6, 706752, Note_on_c, 4, 69, 0
6, 706800, Note_on_c, 4, 73, 105
6, 706992, Note_on_c, 4, 73, 0
6, 707040, Note_on_c, 4, 76, 105
6, 707232, Note_on_c, 4, 76, 0
6, 707280, Note_on_c, 4, 79, 105
6, 707472, Note_on_c, 4, 79, 0
6, 707520, Note_on_c, 4, 85, 105
6, 707712, Note_on_c, 4, 85, 0
6, 707760, Note_on_c, 4, 85, 105
6, 707952, Note_on_c, 4, 85, 0
6, 708000, Note_on_c, 4, 85, 105
6, 708192, Note_on_c, 4, 85, 0
6, 708240, Note_on_c, 4, 85, 105
6, 708432, Note_on_c, 4, 85, 0
6, 708480, Note_on_c, 4, 86, 105
6, 708864, Note_on_c, 4, 86, 0
6, 709440, Note_on_c, 4, 62, 105
6, 709440, Note_on_c, 4, 69, 105
6, 709440, Note_on_c, 4, 86, 105
6, 709824, Note_on_c, 4, 86, 0
6, 709824, Note_on_c, 4, 69, 0
6, 709824, Note_on_c, 4, 62, 0
6, 710400, Note_on_c, 4, 62, 105
6, 711168, Note_on_c, 4, 62, 0
6, 711840, Note_on_c, 4, 74, 70
6, 712200, Note_on_c, 4, 74, 0
6, 712320, Note_on_c, 4, 74, 70
6, 713856, Note_on_c, 4, 74, 0
6, 714240, Note_on_c, 4, 73, 70
6, 714360, Note_on_c, 4, 73, 0
6, 714360, Note_on_c, 4, 74, 70
6, 715032, Note_on_c, 4, 74, 0
6, 715200, Note_on_c, 4, 73, 70
6, 715320, Note_on_c, 4, 73, 0
6, 715320, Note_on_c, 4, 74, 70
6, 715992, Note_on_c, 4, 74, 0
6, 716160, Note_on_c, 4, 79, 92
6, 716880, Note_on_c, 4, 79, 0
6, 716880, Note_on_c, 4, 75, 80
6, 717072, Note_on_c, 4, 75, 0
6, 717120, Note_on_c, 4, 72, 70
6, 718848, Note_on_c, 4, 72, 0
6, 719040, Note_on_c, 4, 70, 70
6, 720720, Note_on_c, 4, 70, 0
6, 720720, Note_on_c, 4, 69, 70
6, 720960, Note_on_c, 4, 69, 0
6, 720960, Note_on_c, 4, 72, 70
6, 721680, Note_on_c, 4, 72, 0
6, 721680, Note_on_c, 4, 70, 70
6, 721872, Note_on_c, 4, 70, 0
6, 721920, Note_on_c, 4, 74, 70
6, 722640, Note_on_c, 4, 74, 0
6, 722640, Note_on_c, 4, 72, 70
6, 722880, Note_on_c, 4, 72, 0
6, 722880, Note_on_c, 4, 70, 70
6, 723600, Note_on_c, 4, 70, 0
6, 723600, Note_on_c, 4, 69, 70
6, 723792, Note_on_c, 4, 69, 0
6, 723840, Note_on_c, 4, 67, 70
6, 725280, Note_on_c, 4, 67, 0
6, 725280, Note_on_c, 4, 69, 70
6, 725520, Note_on_c, 4, 69, 0
6, 725520, Note_on_c, 4, 67, 70
6, 725712, Note_on_c, 4, 67, 0
6, 725760, Note_on_c, 4, 66, 70
6, 726000, Note_on_c, 4, 66, 0
6, 726000, Note_on_c, 4, 67, 70
6, 726240, Note_on_c, 4, 67, 0
6, 726240, Note_on_c, 4, 68, 70
6, 726480, Note_on_c, 4, 68, 0
6, 726480, Note_on_c, 4, 69, 70
6, 726720, Note_on_c, 4, 69, 0
6, 726720, Note_on_c, 4, 70, 70
6, 726960, Note_on_c, 4, 70, 0
6, 726960, Note_on_c, 4, 71, 70
6, 727200, Note_on_c, 4, 71, 0
6, 727200, Note_on_c, 4, 72, 70
6, 727440, Note_on_c, 4, 72, 0
6, 727440, Note_on_c, 4, 73, 70
6, 727632, Note_on_c, 4, 73, 0
6, 727680, Note_on_c, 4, 74, 70
6, 729984, Note_on_c, 4, 74, 0
6, 730080, Note_on_c, 4, 74, 70
6, 730848, Note_on_c, 4, 74, 0
6, 731040, Note_on_c, 4, 74, 70
6, 731904, Note_on_c, 4, 74, 0
6, 732000, Note_on_c, 4, 73, 70
6, 732480, Note_on_c, 4, 73, 0
6, 732480, Note_on_c, 4, 79, 70
6, 732960, Note_on_c, 4, 79, 0
6, 732960, Note_on_c, 4, 72, 70
6, 733440, Note_on_c, 4, 72, 0
6, 733440, Note_on_c, 4, 79, 70
6, 733920, Note_on_c, 4, 79, 0
6, 733920, Note_on_c, 4, 71, 70
6, 734400, Note_on_c, 4, 71, 0
6, 734400, Note_on_c, 4, 79, 70
6, 734880, Note_on_c, 4, 79, 0
6, 734880, Note_on_c, 4, 70, 70
6, 735744, Note_on_c, 4, 70, 0
6, 735840, Note_on_c, 4, 69, 70
6, 736320, Note_on_c, 4, 69, 0
6, 736320, Note_on_c, 4, 72, 70
6, 736800, Note_on_c, 4, 72, 0
6, 736800, Note_on_c, 4, 75, 70
6, 737184, Note_on_c, 4, 75, 0
6, 737280, Note_on_c, 4, 67, 70
6, 738720, Note_on_c, 4, 67, 0
6, 738720, Note_on_c, 4, 70, 70
6, 738960, Note_on_c, 4, 70, 0
6, 738960, Note_on_c, 4, 69, 70
6, 739152, Note_on_c, 4, 69, 0
6, 739200, Note_on_c, 4, 67, 58
6, 739584, Note_on_c, 4, 67, 0
6, 762240, Note_on_c, 4, 79, 58
6, 763776, Note_on_c, 4, 79, 0
6, 764160, Note_on_c, 4, 78, 58
6, 764280, Note_on_c, 4, 78, 0
6, 764280, Note_on_c, 4, 79, 58
6, 764952, Note_on_c, 4, 79, 0
6, 765120, Note_on_c, 4, 78, 58
6, 765240, Note_on_c, 4, 78, 0
6, 765240, Note_on_c, 4, 79, 58
6, 765912, Note_on_c, 4, 79, 0
6, 766080, Note_on_c, 4, 75, 58
6, 766464, Note_on_c, 4, 75, 0
6, 767040, Note_on_c, 4, 72, 58
6, 767424, Note_on_c, 4, 72, 0
6, 768000, Note_on_c, 4, 70, 58
6, 768384, Note_on_c, 4, 70, 0
6, 768960, Note_on_c, 4, 69, 58
6, 769344, Note_on_c, 4, 69, 0
6, 769920, Note_on_c, 4, 67, 105
6, 770112, Note_on_c, 4, 67, 0
6, 770160, Note_on_c, 4, 74, 105
6, 770352, Note_on_c, 4, 74, 0
6, 770400, Note_on_c, 4, 74, 105
6, 770592, Note_on_c, 4, 74, 0
6, 770640, Note_on_c, 4, 74, 105
6, 770832, Note_on_c, 4, 74, 0
6, 770880, Note_on_c, 4, 74, 105
6, 771072, Note_on_c, 4, 74, 0
6, 771120, Note_on_c, 4, 74, 105
6, 771312, Note_on_c, 4, 74, 0
6, 771360, Note_on_c, 4, 74, 105
6, 771552, Note_on_c, 4, 74, 0
6, 771600, Note_on_c, 4, 74, 105
6, 771792, Note_on_c, 4, 74, 0
6, 771840, Note_on_c, 4, 79, 105
6, 772080, Note_on_c, 4, 79, 0
6, 772080, Note_on_c, 4, 82, 105
6, 772224, Note_on_c, 4, 82, 0
6, 772320, Note_on_c, 4, 81, 105
6, 772464, Note_on_c, 4, 81, 0
6, 772560, Note_on_c, 4, 78, 105
6, 772704, Note_on_c, 4, 78, 0
6, 772800, Note_on_c, 4, 79, 105
6, 773040, Note_on_c, 4, 79, 0
6, 773040, Note_on_c, 4, 82, 105
6, 773184, Note_on_c, 4, 82, 0
6, 773280, Note_on_c, 4, 81, 105
6, 773424, Note_on_c, 4, 81, 0
6, 773520, Note_on_c, 4, 78, 105
6, 773664, Note_on_c, 4, 78, 0
6, 773760, Note_on_c, 4, 79, 105
6, 773952, Note_on_c, 4, 79, 0
6, 774000, Note_on_c, 4, 74, 105
6, 774192, Note_on_c, 4, 74, 0
6, 774240, Note_on_c, 4, 74, 105
6, 774432, Note_on_c, 4, 74, 0
6, 774480, Note_on_c, 4, 74, 105
6, 774672, Note_on_c, 4, 74, 0
6, 774720, Note_on_c, 4, 74, 105
6, 774912, Note_on_c, 4, 74, 0
6, 774960, Note_on_c, 4, 74, 105
6, 775152, Note_on_c, 4, 74, 0
6, 775200, Note_on_c, 4, 74, 105
6, 775392, Note_on_c, 4, 74, 0
6, 775440, Note_on_c, 4, 74, 105
6, 775632, Note_on_c, 4, 74, 0
6, 775680, Note_on_c, 4, 79, 105
6, 775920, Note_on_c, 4, 79, 0
6, 775920, Note_on_c, 4, 82, 105
6, 776064, Note_on_c, 4, 82, 0
6, 776160, Note_on_c, 4, 81, 105
6, 776304, Note_on_c, 4, 81, 0
6, 776400, Note_on_c, 4, 78, 105
6, 776544, Note_on_c, 4, 78, 0
6, 776640, Note_on_c, 4, 79, 105
6, 776880, Note_on_c, 4, 79, 0
6, 776880, Note_on_c, 4, 82, 105
6, 777024, Note_on_c, 4, 82, 0
6, 777120, Note_on_c, 4, 81, 105
6, 777264, Note_on_c, 4, 81, 0
6, 777360, Note_on_c, 4, 78, 105
6, 777504, Note_on_c, 4, 78, 0
6, 777600, Note_on_c, 4, 79, 105
6, 777792, Note_on_c, 4, 79, 0
6, 777840, Note_on_c, 4, 86, 105
6, 778032, Note_on_c, 4, 86, 0
6, 778080, Note_on_c, 4, 86, 105
6, 778272, Note_on_c, 4, 86, 0
6, 778320, Note_on_c, 4, 86, 105
6, 778512, Note_on_c, 4, 86, 0
6, 778560, Note_on_c, 4, 86, 105
6, 778752, Note_on_c, 4, 86, 0
6, 778800, Note_on_c, 4, 86, 105
6, 778992, Note_on_c, 4, 86, 0
6, 779040, Note_on_c, 4, 86, 105
6, 779232, Note_on_c, 4, 86, 0
6, 779280, Note_on_c, 4, 86, 105
6, 779472, Note_on_c, 4, 86, 0
6, 779520, Note_on_c, 4, 79, 105
6, 779760, Note_on_c, 4, 79, 0
6, 779760, Note_on_c, 4, 82, 105
6, 779904, Note_on_c, 4, 82, 0
6, 780000, Note_on_c, 4, 81, 105
6, 780144, Note_on_c, 4, 81, 0
6, 780240, Note_on_c, 4, 78, 105
6, 780384, Note_on_c, 4, 78, 0
6, 780480, Note_on_c, 4, 79, 105
6, 780720, Note_on_c, 4, 79, 0
6, 780720, Note_on_c, 4, 82, 105
6, 780864, Note_on_c, 4, 82, 0
6, 780960, Note_on_c, 4, 81, 105
6, 781104, Note_on_c, 4, 81, 0
6, 781200, Note_on_c, 4, 78, 105
6, 781344, Note_on_c, 4, 78, 0
6, 781440, Note_on_c, 4, 79, 105
6, 781632, Note_on_c, 4, 79, 0
6, 781680, Note_on_c, 4, 74, 105
6, 781872, Note_on_c, 4, 74, 0
6, 781920, Note_on_c, 4, 74, 105
6, 782112, Note_on_c, 4, 74, 0
6, 782160, Note_on_c, 4, 74, 105
6, 782352, Note_on_c, 4, 74, 0
6, 782400, Note_on_c, 4, 75, 105
6, 782592, Note_on_c, 4, 75, 0
6, 782640, Note_on_c, 4, 72, 105
6, 782832, Note_on_c, 4, 72, 0
6, 782880, Note_on_c, 4, 72, 105
6, 783072, Note_on_c, 4, 72, 0
6, 783120, Note_on_c, 4, 72, 105
6, 783312, Note_on_c, 4, 72, 0
6, 783360, Note_on_c, 4, 74, 105
6, 783552, Note_on_c, 4, 74, 0
6, 783600, Note_on_c, 4, 67, 105
6, 783792, Note_on_c, 4, 67, 0
6, 783840, Note_on_c, 4, 67, 105
6, 784032, Note_on_c, 4, 67, 0
6, 784080, Note_on_c, 4, 67, 105
6, 784272, Note_on_c, 4, 67, 0
6, 784320, Note_on_c, 4, 74, 105
6, 784512, Note_on_c, 4, 74, 0
6, 784560, Note_on_c, 4, 66, 105
6, 784752, Note_on_c, 4, 66, 0
6, 784800, Note_on_c, 4, 66, 105
6, 784992, Note_on_c, 4, 66, 0
6, 785040, Note_on_c, 4, 66, 105
6, 785232, Note_on_c, 4, 66, 0
6, 785280, Note_on_c, 4, 67, 92
6, 785448, Note_on_c, 4, 67, 0
6, 785520, Note_on_c, 4, 62, 70
6, 785760, Note_on_c, 4, 62, 0
6, 785760, Note_on_c, 4, 61, 70
6, 786000, Note_on_c, 4, 61, 0
6, 786000, Note_on_c, 4, 62, 70
6, 786240, Note_on_c, 4, 62, 0
6, 786240, Note_on_c, 4, 61, 70
6, 786480, Note_on_c, 4, 61, 0
6, 786480, Note_on_c, 4, 62, 70
6, 786720, Note_on_c, 4, 62, 0
6, 786720, Note_on_c, 4, 63, 70
6, 786960, Note_on_c, 4, 63, 0
6, 786960, Note_on_c, 4, 62, 70
6, 787152, Note_on_c, 4, 62, 0
6, 787200, Note_on_c, 4, 67, 70
6, 787440, Note_on_c, 4, 67, 0
6, 787440, Note_on_c, 4, 70, 70
6, 787584, Note_on_c, 4, 70, 0
6, 787680, Note_on_c, 4, 69, 70
6, 787824, Note_on_c, 4, 69, 0
6, 787920, Note_on_c, 4, 66, 70
6, 788064, Note_on_c, 4, 66, 0
6, 788160, Note_on_c, 4, 67, 70
6, 788400, Note_on_c, 4, 67, 0
6, 788400, Note_on_c, 4, 70, 70
6, 788544, Note_on_c, 4, 70, 0
6, 788640, Note_on_c, 4, 69, 70
6, 788784, Note_on_c, 4, 69, 0
6, 788880, Note_on_c, 4, 66, 70
6, 789024, Note_on_c, 4, 66, 0
6, 789120, Note_on_c, 4, 67, 70
6, 789312, Note_on_c, 4, 67, 0
6, 789360, Note_on_c, 4, 74, 70
6, 789600, Note_on_c, 4, 74, 0
6, 789600, Note_on_c, 4, 73, 70
6, 789840, Note_on_c, 4, 73, 0
6, 789840, Note_on_c, 4, 74, 70
6, 790080, Note_on_c, 4, 74, 0
6, 790080, Note_on_c, 4, 73, 70
6, 790320, Note_on_c, 4, 73, 0
6, 790320, Note_on_c, 4, 74, 70
6, 790560, Note_on_c, 4, 74, 0
6, 790560, Note_on_c, 4, 75, 70
6, 790800, Note_on_c, 4, 75, 0
6, 790800, Note_on_c, 4, 74, 70
6, 790992, Note_on_c, 4, 74, 0
6, 791040, Note_on_c, 4, 67, 70
6, 791280, Note_on_c, 4, 67, 0
6, 791280, Note_on_c, 4, 70, 70
6, 791424, Note_on_c, 4, 70, 0
6, 791520, Note_on_c, 4, 69, 70
6, 791664, Note_on_c, 4, 69, 0
6, 791760, Note_on_c, 4, 66, 70
6, 791904, Note_on_c, 4, 66, 0
6, 792000, Note_on_c, 4, 67, 70
6, 792240, Note_on_c, 4, 67, 0
6, 792240, Note_on_c, 4, 70, 70
6, 792384, Note_on_c, 4, 70, 0
6, 792480, Note_on_c, 4, 69, 70
6, 792624, Note_on_c, 4, 69, 0
6, 792720, Note_on_c, 4, 66, 70
6, 792864, Note_on_c, 4, 66, 0
6, 792960, Note_on_c, 4, 67, 70
6, 793128, Note_on_c, 4, 67, 0
6, 793200, Note_on_c, 4, 62, 70
6, 793440, Note_on_c, 4, 62, 0
6, 793440, Note_on_c, 4, 61, 70
6, 793680, Note_on_c, 4, 61, 0
6, 793680, Note_on_c, 4, 62, 70
6, 793920, Note_on_c, 4, 62, 0
6, 793920, Note_on_c, 4, 61, 70
6, 794160, Note_on_c, 4, 61, 0
6, 794160, Note_on_c, 4, 62, 70
6, 794400, Note_on_c, 4, 62, 0
6, 794400, Note_on_c, 4, 63, 70
6, 794640, Note_on_c, 4, 63, 0
6, 794640, Note_on_c, 4, 62, 70
6, 794832, Note_on_c, 4, 62, 0
6, 794880, Note_on_c, 4, 74, 105
6, 795072, Note_on_c, 4, 74, 0
6, 795120, Note_on_c, 4, 74, 105
6, 795312, Note_on_c, 4, 74, 0
6, 795360, Note_on_c, 4, 74, 105
6, 795552, Note_on_c, 4, 74, 0
6, 795600, Note_on_c, 4, 74, 105
6, 795792, Note_on_c, 4, 74, 0
6, 795840, Note_on_c, 4, 74, 105
6, 796032, Note_on_c, 4, 74, 0
6, 796080, Note_on_c, 4, 74, 105
6, 796272, Note_on_c, 4, 74, 0
6, 796320, Note_on_c, 4, 74, 105
6, 796512, Note_on_c, 4, 74, 0
6, 796560, Note_on_c, 4, 74, 105
6, 796752, Note_on_c, 4, 74, 0
6, 796800, Note_on_c, 4, 79, 105
6, 797040, Note_on_c, 4, 79, 0
6, 797040, Note_on_c, 4, 82, 105
6, 797208, Note_on_c, 4, 82, 0
6, 797280, Note_on_c, 4, 81, 105
6, 797448, Note_on_c, 4, 81, 0
6, 797520, Note_on_c, 4, 78, 105
6, 797688, Note_on_c, 4, 78, 0
6, 797760, Note_on_c, 4, 79, 105
6, 798000, Note_on_c, 4, 79, 0
6, 798000, Note_on_c, 4, 82, 105
6, 798168, Note_on_c, 4, 82, 0
6, 798240, Note_on_c, 4, 81, 105
6, 798408, Note_on_c, 4, 81, 0
6, 798480, Note_on_c, 4, 78, 105
6, 798648, Note_on_c, 4, 78, 0
6, 798720, Note_on_c, 4, 86, 105
6, 798912, Note_on_c, 4, 86, 0
6, 798960, Note_on_c, 4, 86, 105
6, 799152, Note_on_c, 4, 86, 0
6, 799200, Note_on_c, 4, 86, 105
6, 799392, Note_on_c, 4, 86, 0
6, 799440, Note_on_c, 4, 86, 105
6, 799632, Note_on_c, 4, 86, 0
6, 799680, Note_on_c, 4, 86, 105
6, 799872, Note_on_c, 4, 86, 0
6, 799920, Note_on_c, 4, 86, 105
6, 800112, Note_on_c, 4, 86, 0
6, 800160, Note_on_c, 4, 86, 105
6, 800352, Note_on_c, 4, 86, 0
6, 800400, Note_on_c, 4, 86, 105
6, 800592, Note_on_c, 4, 86, 0
6, 800640, Note_on_c, 4, 86, 116
6, 800832, Note_on_c, 4, 86, 0
6, 800880, Note_on_c, 4, 86, 116
6, 801072, Note_on_c, 4, 86, 0
6, 801120, Note_on_c, 4, 86, 116
6, 801312, Note_on_c, 4, 86, 0
6, 801360, Note_on_c, 4, 86, 116
6, 801552, Note_on_c, 4, 86, 0
6, 801600, Note_on_c, 4, 86, 116
6, 801792, Note_on_c, 4, 86, 0
6, 801840, Note_on_c, 4, 86, 116
6, 802032, Note_on_c, 4, 86, 0
6, 802080, Note_on_c, 4, 86, 116
6, 802272, Note_on_c, 4, 86, 0
6, 802320, Note_on_c, 4, 86, 116
6, 802512, Note_on_c, 4, 86, 0
6, 802560, Note_on_c, 4, 86, 116
6, 802752, Note_on_c, 4, 86, 0
6, 802800, Note_on_c, 4, 86, 116
6, 802992, Note_on_c, 4, 86, 0
6, 803040, Note_on_c, 4, 86, 116
6, 803232, Note_on_c, 4, 86, 0
6, 803280, Note_on_c, 4, 86, 116
6, 803472, Note_on_c, 4, 86, 0
6, 803520, Note_on_c, 4, 84, 116
6, 803712, Note_on_c, 4, 84, 0
6, 803760, Note_on_c, 4, 84, 116
6, 803952, Note_on_c, 4, 84, 0
6, 804000, Note_on_c, 4, 84, 116
6, 804192, Note_on_c, 4, 84, 0
6, 804240, Note_on_c, 4, 84, 116
6, 804432, Note_on_c, 4, 84, 0
6, 804480, Note_on_c, 4, 84, 116
6, 804672, Note_on_c, 4, 84, 0
6, 804720, Note_on_c, 4, 84, 116
6, 804912, Note_on_c, 4, 84, 0
6, 804960, Note_on_c, 4, 84, 116
6, 805152, Note_on_c, 4, 84, 0
6, 805200, Note_on_c, 4, 84, 116
6, 805392, Note_on_c, 4, 84, 0
6, 805440, Note_on_c, 4, 82, 116
6, 805632, Note_on_c, 4, 82, 0
6, 805680, Note_on_c, 4, 82, 116
6, 805872, Note_on_c, 4, 82, 0
6, 805920, Note_on_c, 4, 82, 116
6, 806112, Note_on_c, 4, 82, 0
6, 806160, Note_on_c, 4, 82, 116
6, 806352, Note_on_c, 4, 82, 0
6, 806400, Note_on_c, 4, 81, 116
6, 806592, Note_on_c, 4, 81, 0
6, 806640, Note_on_c, 4, 81, 116
6, 806832, Note_on_c, 4, 81, 0
6, 806880, Note_on_c, 4, 81, 116
6, 807072, Note_on_c, 4, 81, 0
6, 807120, Note_on_c, 4, 81, 116
6, 807312, Note_on_c, 4, 81, 0
6, 807360, Note_on_c, 4, 78, 116
6, 807552, Note_on_c, 4, 78, 0
6, 807600, Note_on_c, 4, 78, 116
6, 807792, Note_on_c, 4, 78, 0
6, 807840, Note_on_c, 4, 78, 116
6, 808032, Note_on_c, 4, 78, 0
6, 808080, Note_on_c, 4, 78, 116
6, 808272, Note_on_c, 4, 78, 0
6, 808320, Note_on_c, 4, 86, 116
6, 808512, Note_on_c, 4, 86, 0
6, 808560, Note_on_c, 4, 86, 116
6, 808752, Note_on_c, 4, 86, 0
6, 808800, Note_on_c, 4, 86, 116
6, 808992, Note_on_c, 4, 86, 0
6, 809040, Note_on_c, 4, 86, 116
6, 809232, Note_on_c, 4, 86, 0
6, 809280, Note_on_c, 4, 86, 116
6, 809472, Note_on_c, 4, 86, 0
6, 809520, Note_on_c, 4, 86, 116
6, 809712, Note_on_c, 4, 86, 0
6, 809760, Note_on_c, 4, 86, 116
6, 809952, Note_on_c, 4, 86, 0
6, 810000, Note_on_c, 4, 86, 116
6, 810192, Note_on_c, 4, 86, 0
6, 810240, Note_on_c, 4, 86, 116
6, 810432, Note_on_c, 4, 86, 0
6, 810480, Note_on_c, 4, 86, 116
6, 810672, Note_on_c, 4, 86, 0
6, 810720, Note_on_c, 4, 86, 116
6, 810912, Note_on_c, 4, 86, 0
6, 810960, Note_on_c, 4, 86, 116
6, 811152, Note_on_c, 4, 86, 0
6, 811200, Note_on_c, 4, 84, 116
6, 811392, Note_on_c, 4, 84, 0
6, 811440, Note_on_c, 4, 84, 116
6, 811632, Note_on_c, 4, 84, 0
6, 811680, Note_on_c, 4, 84, 116
6, 811872, Note_on_c, 4, 84, 0
6, 811920, Note_on_c, 4, 84, 116
6, 812112, Note_on_c, 4, 84, 0
6, 812160, Note_on_c, 4, 84, 116
6, 812352, Note_on_c, 4, 84, 0
6, 812400, Note_on_c, 4, 84, 116
6, 812592, Note_on_c, 4, 84, 0
6, 812640, Note_on_c, 4, 84, 116
6, 812832, Note_on_c, 4, 84, 0
6, 812880, Note_on_c, 4, 84, 116
6, 813072, Note_on_c, 4, 84, 0
6, 813120, Note_on_c, 4, 82, 116
6, 813312, Note_on_c, 4, 82, 0
6, 813360, Note_on_c, 4, 82, 116
6, 813552, Note_on_c, 4, 82, 0
6, 813600, Note_on_c, 4, 82, 116
6, 813792, Note_on_c, 4, 82, 0
6, 813840, Note_on_c, 4, 82, 116
6, 814032, Note_on_c, 4, 82, 0
6, 814080, Note_on_c, 4, 84, 116
6, 814272, Note_on_c, 4, 84, 0
6, 814320, Note_on_c, 4, 84, 116
6, 814512, Note_on_c, 4, 84, 0
6, 814560, Note_on_c, 4, 84, 116
6, 814752, Note_on_c, 4, 84, 0
6, 814800, Note_on_c, 4, 84, 116
6, 814992, Note_on_c, 4, 84, 0
6, 815040, Note_on_c, 4, 81, 116
6, 815232, Note_on_c, 4, 81, 0
6, 815280, Note_on_c, 4, 81, 116
6, 815472, Note_on_c, 4, 81, 0
6, 815520, Note_on_c, 4, 81, 116
6, 815712, Note_on_c, 4, 81, 0
6, 815760, Note_on_c, 4, 81, 116
6, 815952, Note_on_c, 4, 81, 0
6, 816000, Note_on_c, 4, 79, 116
6, 816768, Note_on_c, 4, 79, 0
6, 817680, Note_on_c, 4, 79, 124
6, 817872, Note_on_c, 4, 79, 0
6, 817920, Note_on_c, 4, 78, 127
6, 818160, Note_on_c, 4, 78, 0
6, 818160, Note_on_c, 4, 81, 124
6, 818328, Note_on_c, 4, 81, 0
6, 818400, Note_on_c, 4, 84, 124
6, 818568, Note_on_c, 4, 84, 0
6, 818640, Note_on_c, 4, 81, 124
6, 818808, Note_on_c, 4, 81, 0
6, 818880, Note_on_c, 4, 84, 124
6, 819120, Note_on_c, 4, 84, 0
6, 819120, Note_on_c, 4, 81, 124
6, 819288, Note_on_c, 4, 81, 0
6, 819360, Note_on_c, 4, 78, 124
6, 819528, Note_on_c, 4, 78, 0
6, 819600, Note_on_c, 4, 81, 124
6, 819768, Note_on_c, 4, 81, 0
6, 819840, Note_on_c, 4, 79, 124
6, 820608, Note_on_c, 4, 79, 0
6, 821520, Note_on_c, 4, 79, 124
6, 821712, Note_on_c, 4, 79, 0
6, 821760, Note_on_c, 4, 78, 127
6, 822000, Note_on_c, 4, 78, 0
6, 822000, Note_on_c, 4, 81, 124
6, 822168, Note_on_c, 4, 81, 0
6, 822240, Note_on_c, 4, 84, 124
6, 822408, Note_on_c, 4, 84, 0
6, 822480, Note_on_c, 4, 81, 124
6, 822648, Note_on_c, 4, 81, 0
6, 822720, Note_on_c, 4, 84, 124
6, 822960, Note_on_c, 4, 84, 0
6, 822960, Note_on_c, 4, 81, 124
6, 823128, Note_on_c, 4, 81, 0
6, 823200, Note_on_c, 4, 78, 124
6, 823368, Note_on_c, 4, 78, 0
6, 823440, Note_on_c, 4, 81, 124
6, 823608, Note_on_c, 4, 81, 0
6, 823680, Note_on_c, 4, 79, 124
6, 824448, Note_on_c, 4, 79, 0
6, 825360, Note_on_c, 4, 79, 124
6, 825552, Note_on_c, 4, 79, 0
6, 825600, Note_on_c, 4, 78, 127
6, 825840, Note_on_c, 4, 78, 0
6, 825840, Note_on_c, 4, 81, 124
6, 826008, Note_on_c, 4, 81, 0
6, 826080, Note_on_c, 4, 84, 124
6, 826248, Note_on_c, 4, 84, 0
6, 826320, Note_on_c, 4, 81, 124
6, 826488, Note_on_c, 4, 81, 0
6, 826560, Note_on_c, 4, 84, 124
6, 826800, Note_on_c, 4, 84, 0
6, 826800, Note_on_c, 4, 81, 124
6, 826968, Note_on_c, 4, 81, 0
6, 827040, Note_on_c, 4, 78, 124
6, 827208, Note_on_c, 4, 78, 0
6, 827280, Note_on_c, 4, 81, 124
6, 827448, Note_on_c, 4, 81, 0
6, 827520, Note_on_c, 4, 79, 124
6, 827904, Note_on_c, 4, 79, 0
6, 828480, Note_on_c, 4, 74, 124
6, 828480, Note_on_c, 4, 82, 124
6, 828480, Note_on_c, 4, 67, 124
6, 828864, Note_on_c, 4, 67, 0
6, 828864, Note_on_c, 4, 82, 0
6, 828864, Note_on_c, 4, 74, 0
6, 829440, Note_on_c, 4, 67, 116
6, 829440, Note_on_c, 4, 55, 116
6, 830400, Note_on_c, 4, 55, 0
6, 830400, Note_on_c, 4, 67, 0
6, 830400, End_track
7, 0, Start_track
7, 0, Sequencer_specific, 04, 43, 00, 01, 00
7, 0, Program_c, 5, 48
7, 0, Control_c, 5, 7, 123
7, 0, Control_c, 5, 10, 40
7, 0, Control_c, 5, 91, 85
7, 2400, Note_on_c, 5, 67, 58
7, 2688, Note_on_c, 5, 67, 0
7, 2880, Note_on_c, 5, 67, 58
7, 3168, Note_on_c, 5, 67, 0
7, 3360, Note_on_c, 5, 67, 58
7, 3648, Note_on_c, 5, 67, 0
7, 4320, Note_on_c, 5, 64, 58
7, 4608, Note_on_c, 5, 64, 0
7, 4800, Note_on_c, 5, 64, 58
7, 5088, Note_on_c, 5, 64, 0
7, 5280, Note_on_c, 5, 73, 58
7, 5424, Note_on_c, 5, 73, 0
7, 5520, Note_on_c, 5, 76, 92
7, 5664, Note_on_c, 5, 76, 0
7, 5760, Note_on_c, 5, 74, 92
7, 6000, Note_on_c, 5, 74, 0
7, 6000, Note_on_c, 5, 78, 92
7, 6144, Note_on_c, 5, 78, 0
7, 6240, Note_on_c, 5, 76, 92
7, 6384, Note_on_c, 5, 76, 0
7, 6480, Note_on_c, 5, 73, 92
7, 6624, Note_on_c, 5, 73, 0
7, 6720, Note_on_c, 5, 74, 92
7, 6960, Note_on_c, 5, 74, 0
7, 6960, Note_on_c, 5, 78, 92
7, 7104, Note_on_c, 5, 78, 0
7, 7200, Note_on_c, 5, 76, 92
7, 7344, Note_on_c, 5, 76, 0
7, 7440, Note_on_c, 5, 73, 92
7, 7584, Note_on_c, 5, 73, 0
7, 7680, Note_on_c, 5, 74, 92
7, 8448, Note_on_c, 5, 74, 0
7, 10080, Note_on_c, 5, 63, 58
7, 10368, Note_on_c, 5, 63, 0
7, 10560, Note_on_c, 5, 63, 58
7, 10848, Note_on_c, 5, 63, 0
7, 11040, Note_on_c, 5, 63, 58
7, 11328, Note_on_c, 5, 63, 0
7, 12000, Note_on_c, 5, 66, 58
7, 12288, Note_on_c, 5, 66, 0
7, 12480, Note_on_c, 5, 66, 58
7, 12768, Note_on_c, 5, 66, 0
7, 12960, Note_on_c, 5, 69, 105
7, 13104, Note_on_c, 5, 69, 0
7, 13200, Note_on_c, 5, 72, 105
7, 13344, Note_on_c, 5, 72, 0
7, 13440, Note_on_c, 5, 70, 105
7, 13680, Note_on_c, 5, 70, 0
7, 13680, Note_on_c, 5, 74, 105
7, 13824, Note_on_c, 5, 74, 0
7, 13920, Note_on_c, 5, 72, 105
7, 14064, Note_on_c, 5, 72, 0
7, 14160, Note_on_c, 5, 69, 105
7, 14304, Note_on_c, 5, 69, 0
7, 14400, Note_on_c, 5, 70, 105
7, 14640, Note_on_c, 5, 70, 0
7, 14640, Note_on_c, 5, 74, 105
7, 14784, Note_on_c, 5, 74, 0
7, 14880, Note_on_c, 5, 72, 105
7, 15024, Note_on_c, 5, 72, 0
7, 15120, Note_on_c, 5, 69, 105
7, 15264, Note_on_c, 5, 69, 0
7, 15360, Note_on_c, 5, 70, 105
7, 16128, Note_on_c, 5, 70, 0
7, 17760, Note_on_c, 5, 67, 58
7, 18048, Note_on_c, 5, 67, 0
7, 18240, Note_on_c, 5, 67, 58
7, 18528, Note_on_c, 5, 67, 0
7, 18720, Note_on_c, 5, 67, 58
7, 19008, Note_on_c, 5, 67, 0
7, 19680, Note_on_c, 5, 64, 58
7, 19968, Note_on_c, 5, 64, 0
7, 20160, Note_on_c, 5, 64, 58
7, 20448, Note_on_c, 5, 64, 0
7, 20640, Note_on_c, 5, 73, 92
7, 20784, Note_on_c, 5, 73, 0
7, 20880, Note_on_c, 5, 76, 92
7, 21024, Note_on_c, 5, 76, 0
7, 21120, Note_on_c, 5, 74, 92
7, 21360, Note_on_c, 5, 74, 0
7, 21360, Note_on_c, 5, 78, 92
7, 21504, Note_on_c, 5, 78, 0
7, 21600, Note_on_c, 5, 76, 92
7, 21744, Note_on_c, 5, 76, 0
7, 21840, Note_on_c, 5, 73, 92
7, 21984, Note_on_c, 5, 73, 0
7, 22080, Note_on_c, 5, 74, 92
7, 22320, Note_on_c, 5, 74, 0
7, 22320, Note_on_c, 5, 78, 92
7, 22464, Note_on_c, 5, 78, 0
7, 22560, Note_on_c, 5, 76, 92
7, 22704, Note_on_c, 5, 76, 0
7, 22800, Note_on_c, 5, 73, 92
7, 22944, Note_on_c, 5, 73, 0
7, 23040, Note_on_c, 5, 74, 92
7, 23808, Note_on_c, 5, 74, 0
7, 25440, Note_on_c, 5, 63, 58
7, 25728, Note_on_c, 5, 63, 0
7, 25920, Note_on_c, 5, 63, 58
7, 26208, Note_on_c, 5, 63, 0
7, 26400, Note_on_c, 5, 63, 58
7, 26688, Note_on_c, 5, 63, 0
7, 27360, Note_on_c, 5, 66, 58
7, 27648, Note_on_c, 5, 66, 0
7, 27840, Note_on_c, 5, 66, 58
7, 28128, Note_on_c, 5, 66, 0
7, 28320, Note_on_c, 5, 69, 105
7, 28464, Note_on_c, 5, 69, 0
7, 28560, Note_on_c, 5, 72, 105
7, 28704, Note_on_c, 5, 72, 0
7, 28800, Note_on_c, 5, 70, 105
7, 29040, Note_on_c, 5, 70, 0
7, 29040, Note_on_c, 5, 74, 105
7, 29184, Note_on_c, 5, 74, 0
7, 29280, Note_on_c, 5, 72, 105
7, 29424, Note_on_c, 5, 72, 0
7, 29520, Note_on_c, 5, 69, 105
7, 29664, Note_on_c, 5, 69, 0
7, 29760, Note_on_c, 5, 70, 105
7, 30000, Note_on_c, 5, 70, 0
7, 30000, Note_on_c, 5, 74, 105
7, 30144, Note_on_c, 5, 74, 0
7, 30240, Note_on_c, 5, 72, 105
7, 30384, Note_on_c, 5, 72, 0
7, 30480, Note_on_c, 5, 69, 105
7, 30624, Note_on_c, 5, 69, 0
7, 30720, Note_on_c, 5, 70, 105
7, 31488, Note_on_c, 5, 70, 0
7, 32160, Note_on_c, 5, 74, 105
7, 32448, Note_on_c, 5, 74, 0
7, 32640, Note_on_c, 5, 74, 105
7, 32928, Note_on_c, 5, 74, 0
7, 33120, Note_on_c, 5, 69, 70
7, 33408, Note_on_c, 5, 69, 0
7, 33600, Note_on_c, 5, 69, 70
7, 33888, Note_on_c, 5, 69, 0
7, 34080, Note_on_c, 5, 69, 70
7, 34368, Note_on_c, 5, 69, 0
7, 34560, Note_on_c, 5, 70, 70
7, 35040, Note_on_c, 5, 70, 0
7, 35040, Note_on_c, 5, 69, 70
7, 35328, Note_on_c, 5, 69, 0
7, 35520, Note_on_c, 5, 69, 58
7, 35808, Note_on_c, 5, 69, 0
7, 36000, Note_on_c, 5, 74, 105
7, 36288, Note_on_c, 5, 74, 0
7, 36480, Note_on_c, 5, 74, 105
7, 36768, Note_on_c, 5, 74, 0
7, 36960, Note_on_c, 5, 69, 70
7, 37248, Note_on_c, 5, 69, 0
7, 37440, Note_on_c, 5, 69, 70
7, 37728, Note_on_c, 5, 69, 0
7, 37920, Note_on_c, 5, 69, 70
7, 38208, Note_on_c, 5, 69, 0
7, 38400, Note_on_c, 5, 70, 70
7, 38880, Note_on_c, 5, 70, 0
7, 38880, Note_on_c, 5, 69, 58
7, 39168, Note_on_c, 5, 69, 0
7, 39360, Note_on_c, 5, 69, 58
7, 39648, Note_on_c, 5, 69, 0
7, 40800, Note_on_c, 5, 63, 58
7, 41088, Note_on_c, 5, 63, 0
7, 41280, Note_on_c, 5, 63, 58
7, 41568, Note_on_c, 5, 63, 0
7, 41760, Note_on_c, 5, 63, 58
7, 42048, Note_on_c, 5, 63, 0
7, 42720, Note_on_c, 5, 66, 58
7, 43008, Note_on_c, 5, 66, 0
7, 43200, Note_on_c, 5, 66, 58
7, 43488, Note_on_c, 5, 66, 0
7, 43680, Note_on_c, 5, 69, 105
7, 43824, Note_on_c, 5, 69, 0
7, 43920, Note_on_c, 5, 72, 105
7, 44064, Note_on_c, 5, 72, 0
7, 44160, Note_on_c, 5, 70, 105
7, 44400, Note_on_c, 5, 70, 0
7, 44400, Note_on_c, 5, 74, 105
7, 44544, Note_on_c, 5, 74, 0
7, 44640, Note_on_c, 5, 72, 105
7, 44784, Note_on_c, 5, 72, 0
7, 44880, Note_on_c, 5, 69, 105
7, 45024, Note_on_c, 5, 69, 0
7, 45120, Note_on_c, 5, 70, 105
7, 45360, Note_on_c, 5, 70, 0
7, 45360, Note_on_c, 5, 74, 105
7, 45504, Note_on_c, 5, 74, 0
7, 45600, Note_on_c, 5, 72, 105
7, 45744, Note_on_c, 5, 72, 0
7, 45840, Note_on_c, 5, 69, 105
7, 45984, Note_on_c, 5, 69, 0
7, 46080, Note_on_c, 5, 70, 105
7, 46848, Note_on_c, 5, 70, 0
7, 47520, Note_on_c, 5, 74, 105
7, 47808, Note_on_c, 5, 74, 0
7, 48000, Note_on_c, 5, 74, 105
7, 48288, Note_on_c, 5, 74, 0
7, 48480, Note_on_c, 5, 69, 70
7, 48768, Note_on_c, 5, 69, 0
7, 48960, Note_on_c, 5, 69, 70
7, 49248, Note_on_c, 5, 69, 0
7, 49440, Note_on_c, 5, 69, 70
7, 49728, Note_on_c, 5, 69, 0
7, 49920, Note_on_c, 5, 70, 70
7, 50400, Note_on_c, 5, 70, 0
7, 50400, Note_on_c, 5, 69, 58
7, 50688, Note_on_c, 5, 69, 0
7, 50880, Note_on_c, 5, 69, 58
7, 51168, Note_on_c, 5, 69, 0
7, 51360, Note_on_c, 5, 74, 105
7, 51648, Note_on_c, 5, 74, 0
7, 51840, Note_on_c, 5, 74, 105
7, 52128, Note_on_c, 5, 74, 0
7, 52320, Note_on_c, 5, 69, 70
7, 52608, Note_on_c, 5, 69, 0
7, 52800, Note_on_c, 5, 69, 70
7, 53088, Note_on_c, 5, 69, 0
7, 53280, Note_on_c, 5, 69, 70
7, 53568, Note_on_c, 5, 69, 0
7, 53760, Note_on_c, 5, 70, 70
7, 54240, Note_on_c, 5, 70, 0
7, 54240, Note_on_c, 5, 69, 70
7, 54528, Note_on_c, 5, 69, 0
7, 54720, Note_on_c, 5, 69, 58
7, 55008, Note_on_c, 5, 69, 0
7, 56160, Note_on_c, 5, 63, 58
7, 56448, Note_on_c, 5, 63, 0
7, 56640, Note_on_c, 5, 63, 58
7, 56928, Note_on_c, 5, 63, 0
7, 57120, Note_on_c, 5, 63, 58
7, 57408, Note_on_c, 5, 63, 0
7, 58080, Note_on_c, 5, 66, 58
7, 58368, Note_on_c, 5, 66, 0
7, 58560, Note_on_c, 5, 66, 58
7, 58848, Note_on_c, 5, 66, 0
7, 59040, Note_on_c, 5, 69, 116
7, 59184, Note_on_c, 5, 69, 0
7, 59280, Note_on_c, 5, 72, 116
7, 59424, Note_on_c, 5, 72, 0
7, 59520, Note_on_c, 5, 70, 116
7, 59760, Note_on_c, 5, 70, 0
7, 59760, Note_on_c, 5, 74, 116
7, 59904, Note_on_c, 5, 74, 0
7, 60000, Note_on_c, 5, 72, 116
7, 60144, Note_on_c, 5, 72, 0
7, 60240, Note_on_c, 5, 69, 116
7, 60384, Note_on_c, 5, 69, 0
7, 60480, Note_on_c, 5, 70, 116
7, 60720, Note_on_c, 5, 70, 0
7, 60720, Note_on_c, 5, 74, 116
7, 60864, Note_on_c, 5, 74, 0
7, 60960, Note_on_c, 5, 72, 116
7, 61104, Note_on_c, 5, 72, 0
7, 61200, Note_on_c, 5, 69, 116
7, 61344, Note_on_c, 5, 69, 0
7, 61440, Note_on_c, 5, 70, 116
7, 61824, Note_on_c, 5, 70, 0
7, 61920, Note_on_c, 5, 82, 105
7, 62112, Note_on_c, 5, 82, 0
7, 62160, Note_on_c, 5, 81, 105
7, 62352, Note_on_c, 5, 81, 0
7, 62400, Note_on_c, 5, 79, 105
7, 62592, Note_on_c, 5, 79, 0
7, 62640, Note_on_c, 5, 77, 105
7, 62832, Note_on_c, 5, 77, 0
7, 62880, Note_on_c, 5, 75, 105
7, 63072, Note_on_c, 5, 75, 0
7, 63120, Note_on_c, 5, 74, 105
7, 63312, Note_on_c, 5, 74, 0
7, 63360, Note_on_c, 5, 72, 105
7, 63600, Note_on_c, 5, 72, 0
7, 63600, Note_on_c, 5, 75, 105
7, 63744, Note_on_c, 5, 75, 0
7, 63840, Note_on_c, 5, 74, 105
7, 63984, Note_on_c, 5, 74, 0
7, 64080, Note_on_c, 5, 71, 105
7, 64224, Note_on_c, 5, 71, 0
7, 64320, Note_on_c, 5, 72, 105
7, 64560, Note_on_c, 5, 72, 0
7, 64560, Note_on_c, 5, 75, 105
7, 64704, Note_on_c, 5, 75, 0
7, 64800, Note_on_c, 5, 74, 105
7, 64944, Note_on_c, 5, 74, 0
7, 65040, Note_on_c, 5, 71, 105
7, 65184, Note_on_c, 5, 71, 0
7, 65280, Note_on_c, 5, 72, 105
7, 65472, Note_on_c, 5, 72, 0
7, 65520, Note_on_c, 5, 67, 105
7, 65712, Note_on_c, 5, 67, 0
7, 65760, Note_on_c, 5, 75, 105
7, 65952, Note_on_c, 5, 75, 0
7, 66000, Note_on_c, 5, 74, 105
7, 66192, Note_on_c, 5, 74, 0
7, 66240, Note_on_c, 5, 72, 105
7, 66432, Note_on_c, 5, 72, 0
7, 66480, Note_on_c, 5, 70, 105
7, 66672, Note_on_c, 5, 70, 0
7, 66720, Note_on_c, 5, 69, 105
7, 66912, Note_on_c, 5, 69, 0
7, 66960, Note_on_c, 5, 67, 105
7, 67152, Note_on_c, 5, 67, 0
7, 67200, Note_on_c, 5, 66, 105
7, 67440, Note_on_c, 5, 66, 0
7, 67440, Note_on_c, 5, 69, 105
7, 67584, Note_on_c, 5, 69, 0
7, 67680, Note_on_c, 5, 67, 105
7, 67824, Note_on_c, 5, 67, 0
7, 67920, Note_on_c, 5, 64, 105
7, 68064, Note_on_c, 5, 64, 0
7, 68160, Note_on_c, 5, 66, 105
7, 68400, Note_on_c, 5, 66, 0
7, 68400, Note_on_c, 5, 69, 105
7, 68544, Note_on_c, 5, 69, 0
7, 68640, Note_on_c, 5, 67, 105
7, 68784, Note_on_c, 5, 67, 0
7, 68880, Note_on_c, 5, 64, 105
7, 69024, Note_on_c, 5, 64, 0
7, 69120, Note_on_c, 5, 66, 105
7, 69312, Note_on_c, 5, 66, 0
7, 69360, Note_on_c, 5, 62, 105
7, 69552, Note_on_c, 5, 62, 0
7, 69600, Note_on_c, 5, 69, 105
7, 69792, Note_on_c, 5, 69, 0
7, 69840, Note_on_c, 5, 67, 105
7, 70032, Note_on_c, 5, 67, 0
7, 70080, Note_on_c, 5, 66, 105
7, 70272, Note_on_c, 5, 66, 0
7, 70320, Note_on_c, 5, 63, 105
7, 70512, Note_on_c, 5, 63, 0
7, 70560, Note_on_c, 5, 62, 105
7, 70752, Note_on_c, 5, 62, 0
7, 70800, Note_on_c, 5, 60, 105
7, 70992, Note_on_c, 5, 60, 0
7, 71040, Note_on_c, 5, 58, 105
7, 71232, Note_on_c, 5, 58, 0
7, 71280, Note_on_c, 5, 62, 105
7, 71472, Note_on_c, 5, 62, 0
7, 71520, Note_on_c, 5, 67, 105
7, 71712, Note_on_c, 5, 67, 0
7, 71760, Note_on_c, 5, 70, 105
7, 71952, Note_on_c, 5, 70, 0
7, 72000, Note_on_c, 5, 74, 105
7, 72192, Note_on_c, 5, 74, 0
7, 72240, Note_on_c, 5, 74, 105
7, 72432, Note_on_c, 5, 74, 0
7, 72480, Note_on_c, 5, 74, 105
7, 72672, Note_on_c, 5, 74, 0
7, 72720, Note_on_c, 5, 74, 105
7, 72912, Note_on_c, 5, 74, 0
7, 72960, Note_on_c, 5, 72, 105
7, 73152, Note_on_c, 5, 72, 0
7, 73200, Note_on_c, 5, 70, 105
7, 73392, Note_on_c, 5, 70, 0
7, 73440, Note_on_c, 5, 69, 105
7, 73632, Note_on_c, 5, 69, 0
7, 73680, Note_on_c, 5, 67, 105
7, 73872, Note_on_c, 5, 67, 0
7, 73920, Note_on_c, 5, 66, 105
7, 74112, Note_on_c, 5, 66, 0
7, 74160, Note_on_c, 5, 63, 105
7, 74352, Note_on_c, 5, 63, 0
7, 74400, Note_on_c, 5, 62, 105
7, 74592, Note_on_c, 5, 62, 0
7, 74640, Note_on_c, 5, 60, 105
7, 74832, Note_on_c, 5, 60, 0
7, 74880, Note_on_c, 5, 58, 105
7, 75072, Note_on_c, 5, 58, 0
7, 75120, Note_on_c, 5, 62, 105
7, 75312, Note_on_c, 5, 62, 0
7, 75360, Note_on_c, 5, 67, 105
7, 75552, Note_on_c, 5, 67, 0
7, 75600, Note_on_c, 5, 70, 105
7, 75792, Note_on_c, 5, 70, 0
7, 75840, Note_on_c, 5, 74, 105
7, 76032, Note_on_c, 5, 74, 0
7, 76080, Note_on_c, 5, 74, 105
7, 76272, Note_on_c, 5, 74, 0
7, 76320, Note_on_c, 5, 74, 105
7, 76512, Note_on_c, 5, 74, 0
7, 76560, Note_on_c, 5, 74, 105
7, 76752, Note_on_c, 5, 74, 0
7, 76800, Note_on_c, 5, 72, 105
7, 76992, Note_on_c, 5, 72, 0
7, 77040, Note_on_c, 5, 70, 105
7, 77232, Note_on_c, 5, 70, 0
7, 77280, Note_on_c, 5, 69, 105
7, 77472, Note_on_c, 5, 69, 0
7, 77520, Note_on_c, 5, 67, 105
7, 77712, Note_on_c, 5, 67, 0
7, 77760, Note_on_c, 5, 66, 105
7, 77952, Note_on_c, 5, 66, 0
7, 78000, Note_on_c, 5, 75, 105
7, 78192, Note_on_c, 5, 75, 0
7, 78240, Note_on_c, 5, 74, 105
7, 78432, Note_on_c, 5, 74, 0
7, 78480, Note_on_c, 5, 72, 105
7, 78672, Note_on_c, 5, 72, 0
7, 78720, Note_on_c, 5, 70, 105
7, 78912, Note_on_c, 5, 70, 0
7, 78960, Note_on_c, 5, 74, 105
7, 79152, Note_on_c, 5, 74, 0
7, 79200, Note_on_c, 5, 79, 105
7, 79392, Note_on_c, 5, 79, 0
7, 79440, Note_on_c, 5, 82, 105
7, 79632, Note_on_c, 5, 82, 0
7, 79680, Note_on_c, 5, 86, 105
7, 79872, Note_on_c, 5, 86, 0
7, 79920, Note_on_c, 5, 86, 105
7, 80112, Note_on_c, 5, 86, 0
7, 80160, Note_on_c, 5, 86, 105
7, 80352, Note_on_c, 5, 86, 0
7, 80400, Note_on_c, 5, 86, 105
7, 80592, Note_on_c, 5, 86, 0
7, 80640, Note_on_c, 5, 72, 105
7, 80832, Note_on_c, 5, 72, 0
7, 80880, Note_on_c, 5, 75, 105
7, 81072, Note_on_c, 5, 75, 0
7, 81120, Note_on_c, 5, 79, 105
7, 81312, Note_on_c, 5, 79, 0
7, 81360, Note_on_c, 5, 84, 105
7, 81552, Note_on_c, 5, 84, 0
7, 81600, Note_on_c, 5, 87, 105
7, 81792, Note_on_c, 5, 87, 0
7, 81840, Note_on_c, 5, 87, 105
7, 82032, Note_on_c, 5, 87, 0
7, 82080, Note_on_c, 5, 87, 105
7, 82272, Note_on_c, 5, 87, 0
7, 82320, Note_on_c, 5, 87, 105
7, 82512, Note_on_c, 5, 87, 0
7, 82560, Note_on_c, 5, 69, 105
7, 82752, Note_on_c, 5, 69, 0
7, 82800, Note_on_c, 5, 72, 105
7, 82992, Note_on_c, 5, 72, 0
7, 83040, Note_on_c, 5, 77, 105
7, 83232, Note_on_c, 5, 77, 0
7, 83280, Note_on_c, 5, 81, 105
7, 83472, Note_on_c, 5, 81, 0
7, 83520, Note_on_c, 5, 84, 105
7, 83712, Note_on_c, 5, 84, 0
7, 83760, Note_on_c, 5, 84, 105
7, 83952, Note_on_c, 5, 84, 0
7, 84000, Note_on_c, 5, 84, 105
7, 84192, Note_on_c, 5, 84, 0
7, 84240, Note_on_c, 5, 84, 105
7, 84432, Note_on_c, 5, 84, 0
7, 84480, Note_on_c, 5, 70, 105
7, 84672, Note_on_c, 5, 70, 0
7, 84720, Note_on_c, 5, 74, 105
7, 84912, Note_on_c, 5, 74, 0
7, 84960, Note_on_c, 5, 77, 105
7, 85152, Note_on_c, 5, 77, 0
7, 85200, Note_on_c, 5, 82, 105
7, 85392, Note_on_c, 5, 82, 0
7, 85440, Note_on_c, 5, 86, 105
7, 85632, Note_on_c, 5, 86, 0
7, 85680, Note_on_c, 5, 86, 105
7, 85872, Note_on_c, 5, 86, 0
7, 85920, Note_on_c, 5, 86, 105
7, 86112, Note_on_c, 5, 86, 0
7, 86160, Note_on_c, 5, 86, 105
7, 86352, Note_on_c, 5, 86, 0
7, 86400, Note_on_c, 5, 79, 105
7, 86592, Note_on_c, 5, 79, 0
7, 86640, Note_on_c, 5, 81, 105
7, 86832, Note_on_c, 5, 81, 0
7, 86880, Note_on_c, 5, 82, 105
7, 87072, Note_on_c, 5, 82, 0
7, 87120, Note_on_c, 5, 81, 105
7, 87312, Note_on_c, 5, 81, 0
7, 87360, Note_on_c, 5, 79, 105
7, 87552, Note_on_c, 5, 79, 0
7, 87600, Note_on_c, 5, 77, 105
7, 87792, Note_on_c, 5, 77, 0
7, 87840, Note_on_c, 5, 75, 105
7, 88032, Note_on_c, 5, 75, 0
7, 88080, Note_on_c, 5, 74, 105
7, 88272, Note_on_c, 5, 74, 0
7, 88320, Note_on_c, 5, 75, 105
7, 88512, Note_on_c, 5, 75, 0
7, 88560, Note_on_c, 5, 77, 105
7, 88752, Note_on_c, 5, 77, 0
7, 88800, Note_on_c, 5, 79, 105
7, 88992, Note_on_c, 5, 79, 0
7, 89040, Note_on_c, 5, 77, 105
7, 89232, Note_on_c, 5, 77, 0
7, 89280, Note_on_c, 5, 75, 105
7, 89472, Note_on_c, 5, 75, 0
7, 89520, Note_on_c, 5, 74, 105
7, 89712, Note_on_c, 5, 74, 0
7, 89760, Note_on_c, 5, 72, 105
7, 89952, Note_on_c, 5, 72, 0
7, 90000, Note_on_c, 5, 70, 105
7, 90192, Note_on_c, 5, 70, 0
7, 90240, Note_on_c, 5, 69, 105
7, 90432, Note_on_c, 5, 69, 0
7, 90480, Note_on_c, 5, 70, 105
7, 90672, Note_on_c, 5, 70, 0
7, 90720, Note_on_c, 5, 72, 105
7, 90912, Note_on_c, 5, 72, 0
7, 90960, Note_on_c, 5, 70, 105
7, 91152, Note_on_c, 5, 70, 0
7, 91200, Note_on_c, 5, 69, 105
7, 91392, Note_on_c, 5, 69, 0
7, 91440, Note_on_c, 5, 67, 105
7, 91632, Note_on_c, 5, 67, 0
7, 91680, Note_on_c, 5, 65, 105
7, 91872, Note_on_c, 5, 65, 0
7, 91920, Note_on_c, 5, 64, 105
7, 92112, Note_on_c, 5, 64, 0
7, 92160, Note_on_c, 5, 65, 105
7, 92352, Note_on_c, 5, 65, 0
7, 92400, Note_on_c, 5, 67, 105
7, 92592, Note_on_c, 5, 67, 0
7, 92640, Note_on_c, 5, 65, 105
7, 92832, Note_on_c, 5, 65, 0
7, 92880, Note_on_c, 5, 67, 105
7, 93072, Note_on_c, 5, 67, 0
7, 93120, Note_on_c, 5, 65, 105
7, 93312, Note_on_c, 5, 65, 0
7, 93360, Note_on_c, 5, 63, 105
7, 93552, Note_on_c, 5, 63, 0
7, 93600, Note_on_c, 5, 62, 105
7, 93792, Note_on_c, 5, 62, 0
7, 93840, Note_on_c, 5, 60, 105
7, 94032, Note_on_c, 5, 60, 0
7, 94080, Note_on_c, 5, 65, 105
7, 94368, Note_on_c, 5, 65, 0
7, 94560, Note_on_c, 5, 65, 105
7, 94848, Note_on_c, 5, 65, 0
7, 95040, Note_on_c, 5, 65, 105
7, 95328, Note_on_c, 5, 65, 0
7, 95520, Note_on_c, 5, 65, 105
7, 95808, Note_on_c, 5, 65, 0
7, 96000, Note_on_c, 5, 65, 105
7, 96768, Note_on_c, 5, 65, 0
7, 97920, Note_on_c, 5, 74, 105
7, 98208, Note_on_c, 5, 74, 0
7, 98400, Note_on_c, 5, 74, 105
7, 98688, Note_on_c, 5, 74, 0
7, 98880, Note_on_c, 5, 74, 105
7, 99168, Note_on_c, 5, 74, 0
7, 99360, Note_on_c, 5, 74, 105
7, 99648, Note_on_c, 5, 74, 0
7, 99840, Note_on_c, 5, 74, 105
7, 100608, Note_on_c, 5, 74, 0
7, 101760, Note_on_c, 5, 72, 105
7, 102048, Note_on_c, 5, 72, 0
7, 102240, Note_on_c, 5, 71, 105
7, 102528, Note_on_c, 5, 71, 0
7, 102720, Note_on_c, 5, 72, 105
7, 103008, Note_on_c, 5, 72, 0
7, 103200, Note_on_c, 5, 71, 105
7, 103488, Note_on_c, 5, 71, 0
7, 103680, Note_on_c, 5, 72, 105
7, 104448, Note_on_c, 5, 72, 0
7, 105600, Note_on_c, 5, 75, 105
7, 105888, Note_on_c, 5, 75, 0
7, 106080, Note_on_c, 5, 75, 105
7, 106368, Note_on_c, 5, 75, 0
7, 106560, Note_on_c, 5, 75, 105
7, 106848, Note_on_c, 5, 75, 0
7, 107040, Note_on_c, 5, 75, 105
7, 107328, Note_on_c, 5, 75, 0
7, 107520, Note_on_c, 5, 75, 125
7, 107712, Note_on_c, 5, 75, 0
7, 107760, Note_on_c, 5, 74, 105
7, 107952, Note_on_c, 5, 74, 0
7, 108000, Note_on_c, 5, 72, 105
7, 108192, Note_on_c, 5, 72, 0
7, 108240, Note_on_c, 5, 70, 105
7, 108432, Note_on_c, 5, 70, 0
7, 108480, Note_on_c, 5, 69, 105
7, 108672, Note_on_c, 5, 69, 0
7, 108720, Note_on_c, 5, 67, 105
7, 108912, Note_on_c, 5, 67, 0
7, 108960, Note_on_c, 5, 65, 105
7, 109152, Note_on_c, 5, 65, 0
7, 109200, Note_on_c, 5, 63, 105
7, 109392, Note_on_c, 5, 63, 0
7, 109440, Note_on_c, 5, 62, 105
7, 110592, Note_on_c, 5, 62, 0
7, 111120, Note_on_c, 5, 74, 105
7, 111312, Note_on_c, 5, 74, 0
7, 111360, Note_on_c, 5, 72, 125
7, 111552, Note_on_c, 5, 72, 0
7, 111600, Note_on_c, 5, 70, 105
7, 111792, Note_on_c, 5, 70, 0
7, 111840, Note_on_c, 5, 69, 105
7, 112032, Note_on_c, 5, 69, 0
7, 112080, Note_on_c, 5, 67, 105
7, 112272, Note_on_c, 5, 67, 0
7, 112320, Note_on_c, 5, 66, 105
7, 112512, Note_on_c, 5, 66, 0
7, 112560, Note_on_c, 5, 63, 105
7, 112752, Note_on_c, 5, 63, 0
7, 112800, Note_on_c, 5, 62, 105
7, 112992, Note_on_c, 5, 62, 0
7, 113040, Note_on_c, 5, 60, 105
7, 113232, Note_on_c, 5, 60, 0
7, 113280, Note_on_c, 5, 58, 105
7, 114432, Note_on_c, 5, 58, 0
7, 114960, Note_on_c, 5, 70, 105
7, 115152, Note_on_c, 5, 70, 0
7, 115200, Note_on_c, 5, 68, 125
7, 115392, Note_on_c, 5, 68, 0
7, 115440, Note_on_c, 5, 67, 105
7, 115632, Note_on_c, 5, 67, 0
7, 115680, Note_on_c, 5, 65, 105
7, 115872, Note_on_c, 5, 65, 0
7, 115920, Note_on_c, 5, 63, 105
7, 116112, Note_on_c, 5, 63, 0
7, 116160, Note_on_c, 5, 62, 105
7, 116352, Note_on_c, 5, 62, 0
7, 116400, Note_on_c, 5, 60, 105
7, 116592, Note_on_c, 5, 60, 0
7, 116640, Note_on_c, 5, 58, 105
7, 116832, Note_on_c, 5, 58, 0
7, 116880, Note_on_c, 5, 56, 105
7, 117072, Note_on_c, 5, 56, 0
7, 117120, Note_on_c, 5, 55, 105
7, 118272, Note_on_c, 5, 55, 0
7, 118800, Note_on_c, 5, 79, 105
7, 118992, Note_on_c, 5, 79, 0
7, 119040, Note_on_c, 5, 77, 125
7, 119232, Note_on_c, 5, 77, 0
7, 119280, Note_on_c, 5, 75, 105
7, 119472, Note_on_c, 5, 75, 0
7, 119520, Note_on_c, 5, 74, 105
7, 119712, Note_on_c, 5, 74, 0
7, 119760, Note_on_c, 5, 72, 105
7, 119952, Note_on_c, 5, 72, 0
7, 120000, Note_on_c, 5, 71, 105
7, 120192, Note_on_c, 5, 71, 0
7, 120240, Note_on_c, 5, 68, 105
7, 120432, Note_on_c, 5, 68, 0
7, 120480, Note_on_c, 5, 67, 105
7, 120672, Note_on_c, 5, 67, 0
7, 120720, Note_on_c, 5, 65, 105
7, 120912, Note_on_c, 5, 65, 0
7, 120960, Note_on_c, 5, 63, 105
7, 121152, Note_on_c, 5, 63, 0
7, 121200, Note_on_c, 5, 65, 105
7, 121392, Note_on_c, 5, 65, 0
7, 121440, Note_on_c, 5, 67, 105
7, 121632, Note_on_c, 5, 67, 0
7, 121680, Note_on_c, 5, 63, 105
7, 121872, Note_on_c, 5, 63, 0
7, 121920, Note_on_c, 5, 62, 105
7, 122112, Note_on_c, 5, 62, 0
7, 122160, Note_on_c, 5, 63, 105
7, 122352, Note_on_c, 5, 63, 0
7, 122400, Note_on_c, 5, 65, 105
7, 122592, Note_on_c, 5, 65, 0
7, 122640, Note_on_c, 5, 62, 105
7, 122832, Note_on_c, 5, 62, 0
7, 122880, Note_on_c, 5, 60, 105
7, 123072, Note_on_c, 5, 60, 0
7, 123120, Note_on_c, 5, 62, 105
7, 123312, Note_on_c, 5, 62, 0
7, 123360, Note_on_c, 5, 63, 105
7, 123552, Note_on_c, 5, 63, 0
7, 123600, Note_on_c, 5, 60, 105
7, 123792, Note_on_c, 5, 60, 0
7, 123840, Note_on_c, 5, 58, 105
7, 124032, Note_on_c, 5, 58, 0
7, 124080, Note_on_c, 5, 60, 105
7, 124272, Note_on_c, 5, 60, 0
7, 124320, Note_on_c, 5, 62, 105
7, 124512, Note_on_c, 5, 62, 0
7, 124560, Note_on_c, 5, 58, 105
7, 124752, Note_on_c, 5, 58, 0
7, 124800, Note_on_c, 5, 57, 125
7, 124992, Note_on_c, 5, 57, 0
7, 125040, Note_on_c, 5, 60, 105
7, 125232, Note_on_c, 5, 60, 0
7, 125280, Note_on_c, 5, 65, 105
7, 125472, Note_on_c, 5, 65, 0
7, 125520, Note_on_c, 5, 69, 105
7, 125712, Note_on_c, 5, 69, 0
7, 125760, Note_on_c, 5, 72, 105
7, 125952, Note_on_c, 5, 72, 0
7, 126000, Note_on_c, 5, 72, 105
7, 126192, Note_on_c, 5, 72, 0
7, 126240, Note_on_c, 5, 72, 105
7, 126432, Note_on_c, 5, 72, 0
7, 126480, Note_on_c, 5, 72, 105
7, 126672, Note_on_c, 5, 72, 0
7, 126720, Note_on_c, 5, 55, 125
7, 126912, Note_on_c, 5, 55, 0
7, 126960, Note_on_c, 5, 58, 105
7, 127152, Note_on_c, 5, 58, 0
7, 127200, Note_on_c, 5, 64, 105
7, 127392, Note_on_c, 5, 64, 0
7, 127440, Note_on_c, 5, 67, 105
7, 127632, Note_on_c, 5, 67, 0
7, 127680, Note_on_c, 5, 70, 105
7, 127872, Note_on_c, 5, 70, 0
7, 127920, Note_on_c, 5, 70, 105
7, 128112, Note_on_c, 5, 70, 0
7, 128160, Note_on_c, 5, 70, 105
7, 128352, Note_on_c, 5, 70, 0
7, 128400, Note_on_c, 5, 70, 105
7, 128592, Note_on_c, 5, 70, 0
7, 128640, Note_on_c, 5, 69, 125
7, 128832, Note_on_c, 5, 69, 0
7, 128880, Note_on_c, 5, 72, 105
7, 129072, Note_on_c, 5, 72, 0
7, 129120, Note_on_c, 5, 77, 105
7, 129312, Note_on_c, 5, 77, 0
7, 129360, Note_on_c, 5, 81, 105
7, 129552, Note_on_c, 5, 81, 0
7, 129600, Note_on_c, 5, 84, 105
7, 129792, Note_on_c, 5, 84, 0
7, 129840, Note_on_c, 5, 84, 105
7, 130032, Note_on_c, 5, 84, 0
7, 130080, Note_on_c, 5, 84, 105
7, 130272, Note_on_c, 5, 84, 0
7, 130320, Note_on_c, 5, 84, 105
7, 130512, Note_on_c, 5, 84, 0
7, 130560, Note_on_c, 5, 67, 125
7, 130752, Note_on_c, 5, 67, 0
7, 130800, Note_on_c, 5, 70, 105
7, 130992, Note_on_c, 5, 70, 0
7, 131040, Note_on_c, 5, 76, 105
7, 131232, Note_on_c, 5, 76, 0
7, 131280, Note_on_c, 5, 79, 105
7, 131472, Note_on_c, 5, 79, 0
7, 131520, Note_on_c, 5, 82, 105
7, 131712, Note_on_c, 5, 82, 0
7, 131760, Note_on_c, 5, 82, 105
7, 131952, Note_on_c, 5, 82, 0
7, 132000, Note_on_c, 5, 82, 105
7, 132192, Note_on_c, 5, 82, 0
7, 132240, Note_on_c, 5, 82, 105
7, 132432, Note_on_c, 5, 82, 0
7, 132480, Note_on_c, 5, 81, 105
7, 132864, Note_on_c, 5, 81, 0
7, 133440, Note_on_c, 5, 69, 105
7, 133440, Note_on_c, 5, 77, 105
7, 133824, Note_on_c, 5, 77, 0
7, 133824, Note_on_c, 5, 69, 0
7, 134400, Note_on_c, 5, 57, 92
7, 134400, Note_on_c, 5, 65, 92
7, 135168, Note_on_c, 5, 65, 0
7, 135168, Note_on_c, 5, 57, 0
7, 136320, Note_on_c, 5, 74, 58
7, 136704, Note_on_c, 5, 74, 0
7, 136800, Note_on_c, 5, 74, 58
7, 137184, Note_on_c, 5, 74, 0
7, 137280, Note_on_c, 5, 74, 58
7, 137664, Note_on_c, 5, 74, 0
7, 137760, Note_on_c, 5, 74, 58
7, 138144, Note_on_c, 5, 74, 0
7, 138240, Note_on_c, 5, 72, 58
7, 138624, Note_on_c, 5, 72, 0
7, 138720, Note_on_c, 5, 72, 58
7, 139104, Note_on_c, 5, 72, 0
7, 139200, Note_on_c, 5, 72, 58
7, 139584, Note_on_c, 5, 72, 0
7, 139680, Note_on_c, 5, 72, 58
7, 140064, Note_on_c, 5, 72, 0
7, 140160, Note_on_c, 5, 70, 80
7, 141696, Note_on_c, 5, 70, 0
7, 142080, Note_on_c, 5, 70, 70
7, 143616, Note_on_c, 5, 70, 0
7, 144000, Note_on_c, 5, 67, 58
7, 146304, Note_on_c, 5, 67, 0
7, 147840, Note_on_c, 5, 62, 58
7, 149280, Note_on_c, 5, 62, 0
7, 149280, Note_on_c, 5, 58, 58
7, 149520, Note_on_c, 5, 58, 0
7, 149520, Note_on_c, 5, 57, 58
7, 149760, Note_on_c, 5, 57, 0
7, 149760, Note_on_c, 5, 57, 58
7, 150144, Note_on_c, 5, 57, 0
7, 151680, Note_on_c, 5, 74, 70
7, 152064, Note_on_c, 5, 74, 0
7, 152160, Note_on_c, 5, 74, 70
7, 152544, Note_on_c, 5, 74, 0
7, 152640, Note_on_c, 5, 74, 70
7, 153024, Note_on_c, 5, 74, 0
7, 153120, Note_on_c, 5, 74, 70
7, 153504, Note_on_c, 5, 74, 0
7, 153600, Note_on_c, 5, 72, 70
7, 153984, Note_on_c, 5, 72, 0
7, 154080, Note_on_c, 5, 72, 70
7, 154464, Note_on_c, 5, 72, 0
7, 154560, Note_on_c, 5, 72, 70
7, 154944, Note_on_c, 5, 72, 0
7, 155040, Note_on_c, 5, 72, 70
7, 155424, Note_on_c, 5, 72, 0
7, 155520, Note_on_c, 5, 70, 58
7, 159360, Note_on_c, 5, 70, 0
7, 159360, Note_on_c, 5, 67, 58
7, 159744, Note_on_c, 5, 67, 0
7, 161280, Note_on_c, 5, 62, 58
7, 162720, Note_on_c, 5, 62, 0
7, 162720, Note_on_c, 5, 65, 58
7, 162960, Note_on_c, 5, 65, 0
7, 162960, Note_on_c, 5, 63, 58
7, 163200, Note_on_c, 5, 63, 0
7, 163200, Note_on_c, 5, 62, 58
7, 163584, Note_on_c, 5, 62, 0
7, 171840, Note_on_c, 5, 63, 58
7, 172080, Note_on_c, 5, 63, 0
7, 172080, Note_on_c, 5, 62, 58
7, 172320, Note_on_c, 5, 62, 0
7, 172320, Note_on_c, 5, 60, 58
7, 172560, Note_on_c, 5, 60, 0
7, 172560, Note_on_c, 5, 58, 58
7, 172752, Note_on_c, 5, 58, 0
7, 172800, Note_on_c, 5, 57, 58
7, 173760, Note_on_c, 5, 57, 0
7, 173760, Note_on_c, 5, 58, 58
7, 174528, Note_on_c, 5, 58, 0
7, 182400, Note_on_c, 5, 62, 58
7, 183360, Note_on_c, 5, 62, 0
7, 183360, Note_on_c, 5, 61, 58
7, 184320, Note_on_c, 5, 61, 0
7, 184320, Note_on_c, 5, 60, 58
7, 185280, Note_on_c, 5, 60, 0
7, 185280, Note_on_c, 5, 59, 58
7, 186240, Note_on_c, 5, 59, 0
7, 186240, Note_on_c, 5, 58, 58
7, 189120, Note_on_c, 5, 58, 0
7, 189120, Note_on_c, 5, 59, 58
7, 189888, Note_on_c, 5, 59, 0
7, 190080, Note_on_c, 5, 60, 58
7, 191520, Note_on_c, 5, 60, 0
7, 191520, Note_on_c, 5, 62, 58
7, 191760, Note_on_c, 5, 62, 0
7, 191760, Note_on_c, 5, 63, 58
7, 191952, Note_on_c, 5, 63, 0
7, 192000, Note_on_c, 5, 58, 58
7, 192576, Note_on_c, 5, 58, 0
7, 192960, Note_on_c, 5, 57, 58
7, 193536, Note_on_c, 5, 57, 0
7, 193920, Note_on_c, 5, 58, 105
7, 194112, Note_on_c, 5, 58, 0
7, 194160, Note_on_c, 5, 77, 105
7, 194352, Note_on_c, 5, 77, 0
7, 194400, Note_on_c, 5, 77, 105
7, 194592, Note_on_c, 5, 77, 0
7, 194640, Note_on_c, 5, 77, 105
7, 194832, Note_on_c, 5, 77, 0
7, 194880, Note_on_c, 5, 77, 105
7, 195072, Note_on_c, 5, 77, 0
7, 195120, Note_on_c, 5, 77, 105
7, 195312, Note_on_c, 5, 77, 0
7, 195360, Note_on_c, 5, 77, 105
7, 195552, Note_on_c, 5, 77, 0
7, 195600, Note_on_c, 5, 77, 105
7, 195792, Note_on_c, 5, 77, 0
7, 195840, Note_on_c, 5, 82, 105
7, 196080, Note_on_c, 5, 82, 0
7, 196080, Note_on_c, 5, 86, 105
7, 196224, Note_on_c, 5, 86, 0
7, 196320, Note_on_c, 5, 84, 105
7, 196464, Note_on_c, 5, 84, 0
7, 196560, Note_on_c, 5, 81, 105
7, 196704, Note_on_c, 5, 81, 0
7, 196800, Note_on_c, 5, 82, 105
7, 197040, Note_on_c, 5, 82, 0
7, 197040, Note_on_c, 5, 86, 105
7, 197184, Note_on_c, 5, 86, 0
7, 197280, Note_on_c, 5, 84, 105
7, 197424, Note_on_c, 5, 84, 0
7, 197520, Note_on_c, 5, 81, 105
7, 197664, Note_on_c, 5, 81, 0
7, 197760, Note_on_c, 5, 82, 105
7, 197952, Note_on_c, 5, 82, 0
7, 198000, Note_on_c, 5, 77, 105
7, 198192, Note_on_c, 5, 77, 0
7, 198240, Note_on_c, 5, 77, 105
7, 198432, Note_on_c, 5, 77, 0
7, 198480, Note_on_c, 5, 77, 105
7, 198672, Note_on_c, 5, 77, 0
7, 198720, Note_on_c, 5, 77, 105
7, 198912, Note_on_c, 5, 77, 0
7, 198960, Note_on_c, 5, 77, 105
7, 199152, Note_on_c, 5, 77, 0
7, 199200, Note_on_c, 5, 77, 105
7, 199392, Note_on_c, 5, 77, 0
7, 199440, Note_on_c, 5, 77, 105
7, 199632, Note_on_c, 5, 77, 0
7, 199680, Note_on_c, 5, 82, 105
7, 199920, Note_on_c, 5, 82, 0
7, 199920, Note_on_c, 5, 86, 105
7, 200064, Note_on_c, 5, 86, 0
7, 200160, Note_on_c, 5, 84, 105
7, 200304, Note_on_c, 5, 84, 0
7, 200400, Note_on_c, 5, 81, 105
7, 200544, Note_on_c, 5, 81, 0
7, 200640, Note_on_c, 5, 82, 105
7, 200880, Note_on_c, 5, 82, 0
7, 200880, Note_on_c, 5, 86, 105
7, 201024, Note_on_c, 5, 86, 0
7, 201120, Note_on_c, 5, 84, 105
7, 201264, Note_on_c, 5, 84, 0
7, 201360, Note_on_c, 5, 81, 105
7, 201504, Note_on_c, 5, 81, 0
7, 201600, Note_on_c, 5, 82, 105
7, 201792, Note_on_c, 5, 82, 0
7, 201840, Note_on_c, 5, 77, 105
7, 202032, Note_on_c, 5, 77, 0
7, 202080, Note_on_c, 5, 77, 105
7, 202272, Note_on_c, 5, 77, 0
7, 202320, Note_on_c, 5, 77, 105
7, 202512, Note_on_c, 5, 77, 0
7, 202560, Note_on_c, 5, 77, 105
7, 202752, Note_on_c, 5, 77, 0
7, 202800, Note_on_c, 5, 77, 105
7, 202992, Note_on_c, 5, 77, 0
7, 203040, Note_on_c, 5, 77, 105
7, 203232, Note_on_c, 5, 77, 0
7, 203280, Note_on_c, 5, 77, 105
7, 203472, Note_on_c, 5, 77, 0
7, 203520, Note_on_c, 5, 82, 105
7, 203760, Note_on_c, 5, 82, 0
7, 203760, Note_on_c, 5, 86, 105
7, 203904, Note_on_c, 5, 86, 0
7, 204000, Note_on_c, 5, 84, 105
7, 204144, Note_on_c, 5, 84, 0
7, 204240, Note_on_c, 5, 81, 105
7, 204384, Note_on_c, 5, 81, 0
7, 204480, Note_on_c, 5, 82, 105
7, 204720, Note_on_c, 5, 82, 0
7, 204720, Note_on_c, 5, 86, 105
7, 204864, Note_on_c, 5, 86, 0
7, 204960, Note_on_c, 5, 84, 105
7, 205104, Note_on_c, 5, 84, 0
7, 205200, Note_on_c, 5, 81, 105
7, 205344, Note_on_c, 5, 81, 0
7, 205440, Note_on_c, 5, 82, 105
7, 205632, Note_on_c, 5, 82, 0
7, 205680, Note_on_c, 5, 77, 105
7, 205872, Note_on_c, 5, 77, 0
7, 205920, Note_on_c, 5, 77, 105
7, 206112, Note_on_c, 5, 77, 0
7, 206160, Note_on_c, 5, 77, 105
7, 206352, Note_on_c, 5, 77, 0
7, 206400, Note_on_c, 5, 79, 105
7, 206592, Note_on_c, 5, 79, 0
7, 206640, Note_on_c, 5, 75, 105
7, 206832, Note_on_c, 5, 75, 0
7, 206880, Note_on_c, 5, 75, 105
7, 207072, Note_on_c, 5, 75, 0
7, 207120, Note_on_c, 5, 75, 105
7, 207312, Note_on_c, 5, 75, 0
7, 207360, Note_on_c, 5, 74, 105
7, 207552, Note_on_c, 5, 74, 0
7, 207600, Note_on_c, 5, 70, 105
7, 207792, Note_on_c, 5, 70, 0
7, 207840, Note_on_c, 5, 70, 105
7, 208032, Note_on_c, 5, 70, 0
7, 208080, Note_on_c, 5, 70, 105
7, 208272, Note_on_c, 5, 70, 0
7, 208320, Note_on_c, 5, 77, 105
7, 208512, Note_on_c, 5, 77, 0
7, 208560, Note_on_c, 5, 69, 105
7, 208752, Note_on_c, 5, 69, 0
7, 208800, Note_on_c, 5, 69, 105
7, 208992, Note_on_c, 5, 69, 0
7, 209040, Note_on_c, 5, 69, 105
7, 209232, Note_on_c, 5, 69, 0
7, 209280, Note_on_c, 5, 70, 80
7, 209664, Note_on_c, 5, 70, 0
7, 211200, Note_on_c, 5, 58, 70
7, 211440, Note_on_c, 5, 58, 0
7, 211440, Note_on_c, 5, 62, 70
7, 211584, Note_on_c, 5, 62, 0
7, 211680, Note_on_c, 5, 60, 70
7, 211824, Note_on_c, 5, 60, 0
7, 211920, Note_on_c, 5, 57, 70
7, 212064, Note_on_c, 5, 57, 0
7, 212160, Note_on_c, 5, 58, 70
7, 212400, Note_on_c, 5, 58, 0
7, 212400, Note_on_c, 5, 62, 70
7, 212544, Note_on_c, 5, 62, 0
7, 212640, Note_on_c, 5, 60, 70
7, 212784, Note_on_c, 5, 60, 0
7, 212880, Note_on_c, 5, 57, 70
7, 213024, Note_on_c, 5, 57, 0
7, 213120, Note_on_c, 5, 58, 70
7, 213264, Note_on_c, 5, 58, 0
7, 213360, Note_on_c, 5, 65, 70
7, 213600, Note_on_c, 5, 65, 0
7, 213600, Note_on_c, 5, 64, 70
7, 213840, Note_on_c, 5, 64, 0
7, 213840, Note_on_c, 5, 65, 70
7, 214080, Note_on_c, 5, 65, 0
7, 214080, Note_on_c, 5, 64, 70
7, 214320, Note_on_c, 5, 64, 0
7, 214320, Note_on_c, 5, 65, 70
7, 214560, Note_on_c, 5, 65, 0
7, 214560, Note_on_c, 5, 67, 70
7, 214800, Note_on_c, 5, 67, 0
7, 214800, Note_on_c, 5, 65, 70
7, 214992, Note_on_c, 5, 65, 0
7, 215040, Note_on_c, 5, 58, 70
7, 215280, Note_on_c, 5, 58, 0
7, 215280, Note_on_c, 5, 62, 70
7, 215424, Note_on_c, 5, 62, 0
7, 215520, Note_on_c, 5, 60, 70
7, 215664, Note_on_c, 5, 60, 0
7, 215760, Note_on_c, 5, 57, 70
7, 215904, Note_on_c, 5, 57, 0
7, 216000, Note_on_c, 5, 58, 70
7, 216240, Note_on_c, 5, 58, 0
7, 216240, Note_on_c, 5, 62, 70
7, 216384, Note_on_c, 5, 62, 0
7, 216480, Note_on_c, 5, 60, 70
7, 216624, Note_on_c, 5, 60, 0
7, 216720, Note_on_c, 5, 57, 70
7, 216864, Note_on_c, 5, 57, 0
7, 216960, Note_on_c, 5, 58, 58
7, 217344, Note_on_c, 5, 58, 0
7, 218880, Note_on_c, 5, 70, 105
7, 219072, Note_on_c, 5, 70, 0
7, 219120, Note_on_c, 5, 74, 105
7, 219312, Note_on_c, 5, 74, 0
7, 219360, Note_on_c, 5, 72, 105
7, 219552, Note_on_c, 5, 72, 0
7, 219600, Note_on_c, 5, 69, 105
7, 219792, Note_on_c, 5, 69, 0
7, 219840, Note_on_c, 5, 70, 105
7, 220032, Note_on_c, 5, 70, 0
7, 220080, Note_on_c, 5, 74, 105
7, 220272, Note_on_c, 5, 74, 0
7, 220320, Note_on_c, 5, 72, 105
7, 220512, Note_on_c, 5, 72, 0
7, 220560, Note_on_c, 5, 69, 105
7, 220752, Note_on_c, 5, 69, 0
7, 220800, Note_on_c, 5, 77, 105
7, 220992, Note_on_c, 5, 77, 0
7, 221040, Note_on_c, 5, 82, 105
7, 221232, Note_on_c, 5, 82, 0
7, 221280, Note_on_c, 5, 82, 105
7, 221472, Note_on_c, 5, 82, 0
7, 221520, Note_on_c, 5, 82, 105
7, 221712, Note_on_c, 5, 82, 0
7, 221760, Note_on_c, 5, 72, 105
7, 221952, Note_on_c, 5, 72, 0
7, 222000, Note_on_c, 5, 79, 105
7, 222192, Note_on_c, 5, 79, 0
7, 222240, Note_on_c, 5, 79, 105
7, 222432, Note_on_c, 5, 79, 0
7, 222480, Note_on_c, 5, 79, 105
7, 222672, Note_on_c, 5, 79, 0
7, 222720, Note_on_c, 5, 77, 105
7, 222912, Note_on_c, 5, 77, 0
7, 222960, Note_on_c, 5, 74, 105
7, 223152, Note_on_c, 5, 74, 0
7, 223200, Note_on_c, 5, 74, 105
7, 223392, Note_on_c, 5, 74, 0
7, 223440, Note_on_c, 5, 74, 105
7, 223632, Note_on_c, 5, 74, 0
7, 223680, Note_on_c, 5, 77, 105
7, 223872, Note_on_c, 5, 77, 0
7, 223920, Note_on_c, 5, 69, 105
7, 224112, Note_on_c, 5, 69, 0
7, 224160, Note_on_c, 5, 69, 105
7, 224352, Note_on_c, 5, 69, 0
7, 224400, Note_on_c, 5, 69, 105
7, 224592, Note_on_c, 5, 69, 0
7, 224640, Note_on_c, 5, 70, 105
7, 225024, Note_on_c, 5, 70, 0
7, 225120, Note_on_c, 5, 65, 105
7, 225120, Note_on_c, 5, 74, 105
7, 225888, Note_on_c, 5, 74, 0
7, 225888, Note_on_c, 5, 65, 0
7, 226080, Note_on_c, 5, 74, 105
7, 226080, Note_on_c, 5, 65, 105
7, 226464, Note_on_c, 5, 65, 0
7, 226464, Note_on_c, 5, 74, 0
7, 226560, Note_on_c, 5, 65, 105
7, 226560, Note_on_c, 5, 75, 105
7, 226752, Note_on_c, 5, 75, 0
7, 226752, Note_on_c, 5, 65, 0
7, 226800, Note_on_c, 5, 75, 105
7, 226800, Note_on_c, 5, 65, 105
7, 226992, Note_on_c, 5, 65, 0
7, 226992, Note_on_c, 5, 75, 0
7, 227040, Note_on_c, 5, 75, 105
7, 227040, Note_on_c, 5, 65, 105
7, 227232, Note_on_c, 5, 65, 0
7, 227232, Note_on_c, 5, 75, 0
7, 227280, Note_on_c, 5, 65, 105
7, 227280, Note_on_c, 5, 75, 105
7, 227472, Note_on_c, 5, 75, 0
7, 227472, Note_on_c, 5, 65, 0
7, 227520, Note_on_c, 5, 65, 105
7, 227520, Note_on_c, 5, 75, 105
7, 227712, Note_on_c, 5, 75, 0
7, 227712, Note_on_c, 5, 65, 0
7, 227760, Note_on_c, 5, 65, 105
7, 227760, Note_on_c, 5, 75, 105
7, 227952, Note_on_c, 5, 75, 0
7, 227952, Note_on_c, 5, 65, 0
7, 228000, Note_on_c, 5, 65, 105
7, 228000, Note_on_c, 5, 75, 105
7, 228192, Note_on_c, 5, 75, 0
7, 228192, Note_on_c, 5, 65, 0
7, 228240, Note_on_c, 5, 65, 105
7, 228240, Note_on_c, 5, 75, 105
7, 228432, Note_on_c, 5, 75, 0
7, 228432, Note_on_c, 5, 65, 0
7, 228480, Note_on_c, 5, 74, 105
7, 228480, Note_on_c, 5, 65, 105
7, 228672, Note_on_c, 5, 65, 0
7, 228672, Note_on_c, 5, 74, 0
7, 228720, Note_on_c, 5, 74, 105
7, 228720, Note_on_c, 5, 65, 105
7, 228912, Note_on_c, 5, 65, 0
7, 228912, Note_on_c, 5, 74, 0
7, 228960, Note_on_c, 5, 65, 105
7, 228960, Note_on_c, 5, 74, 105
7, 229152, Note_on_c, 5, 74, 0
7, 229152, Note_on_c, 5, 65, 0
7, 229200, Note_on_c, 5, 74, 105
7, 229200, Note_on_c, 5, 65, 105
7, 229392, Note_on_c, 5, 65, 0
7, 229392, Note_on_c, 5, 74, 0
7, 229440, Note_on_c, 5, 65, 105
7, 229440, Note_on_c, 5, 74, 105
7, 229632, Note_on_c, 5, 74, 0
7, 229632, Note_on_c, 5, 65, 0
7, 229680, Note_on_c, 5, 65, 105
7, 229680, Note_on_c, 5, 74, 105
7, 229872, Note_on_c, 5, 74, 0
7, 229872, Note_on_c, 5, 65, 0
7, 229920, Note_on_c, 5, 74, 105
7, 229920, Note_on_c, 5, 65, 105
7, 230112, Note_on_c, 5, 65, 0
7, 230112, Note_on_c, 5, 74, 0
7, 230160, Note_on_c, 5, 65, 105
7, 230160, Note_on_c, 5, 74, 105
7, 230352, Note_on_c, 5, 74, 0
7, 230352, Note_on_c, 5, 65, 0
7, 230400, Note_on_c, 5, 75, 105
7, 230400, Note_on_c, 5, 65, 105
7, 230592, Note_on_c, 5, 65, 0
7, 230592, Note_on_c, 5, 75, 0
7, 230640, Note_on_c, 5, 65, 105
7, 230640, Note_on_c, 5, 75, 105
7, 230832, Note_on_c, 5, 75, 0
7, 230832, Note_on_c, 5, 65, 0
7, 230880, Note_on_c, 5, 75, 105
7, 230880, Note_on_c, 5, 65, 105
7, 231072, Note_on_c, 5, 65, 0
7, 231072, Note_on_c, 5, 75, 0
7, 231120, Note_on_c, 5, 75, 105
7, 231120, Note_on_c, 5, 65, 105
7, 231312, Note_on_c, 5, 65, 0
7, 231312, Note_on_c, 5, 75, 0
7, 231360, Note_on_c, 5, 75, 105
7, 231360, Note_on_c, 5, 65, 105
7, 231552, Note_on_c, 5, 65, 0
7, 231552, Note_on_c, 5, 75, 0
7, 231600, Note_on_c, 5, 65, 105
7, 231600, Note_on_c, 5, 75, 105
7, 231792, Note_on_c, 5, 75, 0
7, 231792, Note_on_c, 5, 65, 0
7, 231840, Note_on_c, 5, 65, 105
7, 231840, Note_on_c, 5, 75, 105
7, 232032, Note_on_c, 5, 75, 0
7, 232032, Note_on_c, 5, 65, 0
7, 232080, Note_on_c, 5, 75, 105
7, 232080, Note_on_c, 5, 65, 105
7, 232272, Note_on_c, 5, 65, 0
7, 232272, Note_on_c, 5, 75, 0
7, 232320, Note_on_c, 5, 65, 105
7, 232320, Note_on_c, 5, 74, 105
7, 232512, Note_on_c, 5, 74, 0
7, 232512, Note_on_c, 5, 65, 0
7, 232560, Note_on_c, 5, 74, 105
7, 232560, Note_on_c, 5, 65, 105
7, 232752, Note_on_c, 5, 65, 0
7, 232752, Note_on_c, 5, 74, 0
7, 232800, Note_on_c, 5, 74, 105
7, 232800, Note_on_c, 5, 65, 105
7, 232992, Note_on_c, 5, 65, 0
7, 232992, Note_on_c, 5, 74, 0
7, 233040, Note_on_c, 5, 65, 105
7, 233040, Note_on_c, 5, 74, 105
7, 233232, Note_on_c, 5, 74, 0
7, 233232, Note_on_c, 5, 65, 0
7, 233280, Note_on_c, 5, 65, 105
7, 233280, Note_on_c, 5, 74, 105
7, 233472, Note_on_c, 5, 74, 0
7, 233472, Note_on_c, 5, 65, 0
7, 233520, Note_on_c, 5, 74, 105
7, 233520, Note_on_c, 5, 65, 105
7, 233712, Note_on_c, 5, 65, 0
7, 233712, Note_on_c, 5, 74, 0
7, 233760, Note_on_c, 5, 65, 105
7, 233760, Note_on_c, 5, 74, 105
7, 233952, Note_on_c, 5, 74, 0
7, 233952, Note_on_c, 5, 65, 0
7, 234000, Note_on_c, 5, 65, 105
7, 234000, Note_on_c, 5, 74, 105
7, 234192, Note_on_c, 5, 74, 0
7, 234192, Note_on_c, 5, 65, 0
7, 234240, Note_on_c, 5, 75, 105
7, 234240, Note_on_c, 5, 65, 105
7, 234432, Note_on_c, 5, 65, 0
7, 234432, Note_on_c, 5, 75, 0
7, 234480, Note_on_c, 5, 65, 105
7, 234480, Note_on_c, 5, 75, 105
7, 234672, Note_on_c, 5, 75, 0
7, 234672, Note_on_c, 5, 65, 0
7, 234720, Note_on_c, 5, 65, 105
7, 234720, Note_on_c, 5, 75, 105
7, 234912, Note_on_c, 5, 75, 0
7, 234912, Note_on_c, 5, 65, 0
7, 234960, Note_on_c, 5, 65, 105
7, 234960, Note_on_c, 5, 75, 105
7, 235152, Note_on_c, 5, 75, 0
7, 235152, Note_on_c, 5, 65, 0
7, 235200, Note_on_c, 5, 75, 105
7, 235200, Note_on_c, 5, 65, 105
7, 235392, Note_on_c, 5, 65, 0
7, 235392, Note_on_c, 5, 75, 0
7, 235440, Note_on_c, 5, 75, 105
7, 235440, Note_on_c, 5, 65, 105
7, 235632, Note_on_c, 5, 65, 0
7, 235632, Note_on_c, 5, 75, 0
7, 235680, Note_on_c, 5, 75, 105
7, 235680, Note_on_c, 5, 65, 105
7, 235872, Note_on_c, 5, 65, 0
7, 235872, Note_on_c, 5, 75, 0
7, 235920, Note_on_c, 5, 75, 105
7, 235920, Note_on_c, 5, 65, 105
7, 236112, Note_on_c, 5, 65, 0
7, 236112, Note_on_c, 5, 75, 0
7, 236160, Note_on_c, 5, 74, 105
7, 236160, Note_on_c, 5, 65, 105
7, 236544, Note_on_c, 5, 65, 0
7, 236544, Note_on_c, 5, 74, 0
7, 237120, Note_on_c, 5, 82, 105
7, 237120, Note_on_c, 5, 70, 105
7, 237120, Note_on_c, 5, 62, 105
7, 237504, Note_on_c, 5, 62, 0
7, 237504, Note_on_c, 5, 70, 0
7, 237504, Note_on_c, 5, 82, 0
7, 238080, Note_on_c, 5, 58, 92
7, 238848, Note_on_c, 5, 58, 0
7, 240480, Note_on_c, 5, 67, 58
7, 240768, Note_on_c, 5, 67, 0
7, 240960, Note_on_c, 5, 67, 58
7, 241248, Note_on_c, 5, 67, 0
7, 241440, Note_on_c, 5, 67, 58
7, 241728, Note_on_c, 5, 67, 0
7, 242400, Note_on_c, 5, 64, 58
7, 242688, Note_on_c, 5, 64, 0
7, 242880, Note_on_c, 5, 64, 58
7, 243168, Note_on_c, 5, 64, 0
7, 243360, Note_on_c, 5, 73, 58
7, 243504, Note_on_c, 5, 73, 0
7, 243600, Note_on_c, 5, 76, 92
7, 243744, Note_on_c, 5, 76, 0
7, 243840, Note_on_c, 5, 74, 92
7, 244080, Note_on_c, 5, 74, 0
7, 244080, Note_on_c, 5, 78, 92
7, 244224, Note_on_c, 5, 78, 0
7, 244320, Note_on_c, 5, 76, 92
7, 244464, Note_on_c, 5, 76, 0
7, 244560, Note_on_c, 5, 73, 92
7, 244704, Note_on_c, 5, 73, 0
7, 244800, Note_on_c, 5, 74, 92
7, 245040, Note_on_c, 5, 74, 0
7, 245040, Note_on_c, 5, 78, 92
7, 245184, Note_on_c, 5, 78, 0
7, 245280, Note_on_c, 5, 76, 92
7, 245424, Note_on_c, 5, 76, 0
7, 245520, Note_on_c, 5, 73, 92
7, 245664, Note_on_c, 5, 73, 0
7, 245760, Note_on_c, 5, 74, 92
7, 246528, Note_on_c, 5, 74, 0
7, 248160, Note_on_c, 5, 63, 58
7, 248448, Note_on_c, 5, 63, 0
7, 248640, Note_on_c, 5, 63, 58
7, 248928, Note_on_c, 5, 63, 0
7, 249120, Note_on_c, 5, 63, 58
7, 249408, Note_on_c, 5, 63, 0
7, 250080, Note_on_c, 5, 66, 58
7, 250368, Note_on_c, 5, 66, 0
7, 250560, Note_on_c, 5, 66, 58
7, 250848, Note_on_c, 5, 66, 0
7, 251040, Note_on_c, 5, 69, 105
7, 251184, Note_on_c, 5, 69, 0
7, 251280, Note_on_c, 5, 72, 105
7, 251424, Note_on_c, 5, 72, 0
7, 251520, Note_on_c, 5, 70, 105
7, 251760, Note_on_c, 5, 70, 0
7, 251760, Note_on_c, 5, 74, 105
7, 251904, Note_on_c, 5, 74, 0
7, 252000, Note_on_c, 5, 72, 105
7, 252144, Note_on_c, 5, 72, 0
7, 252240, Note_on_c, 5, 69, 105
7, 252384, Note_on_c, 5, 69, 0
7, 252480, Note_on_c, 5, 70, 105
7, 252720, Note_on_c, 5, 70, 0
7, 252720, Note_on_c, 5, 74, 105
7, 252864, Note_on_c, 5, 74, 0
7, 252960, Note_on_c, 5, 72, 105
7, 253104, Note_on_c, 5, 72, 0
7, 253200, Note_on_c, 5, 69, 105
7, 253344, Note_on_c, 5, 69, 0
7, 253440, Note_on_c, 5, 70, 105
7, 254208, Note_on_c, 5, 70, 0
7, 255840, Note_on_c, 5, 67, 58
7, 256128, Note_on_c, 5, 67, 0
7, 256320, Note_on_c, 5, 67, 58
7, 256608, Note_on_c, 5, 67, 0
7, 256800, Note_on_c, 5, 67, 58
7, 257088, Note_on_c, 5, 67, 0
7, 257760, Note_on_c, 5, 64, 58
7, 258048, Note_on_c, 5, 64, 0
7, 258240, Note_on_c, 5, 64, 58
7, 258528, Note_on_c, 5, 64, 0
7, 258720, Note_on_c, 5, 73, 92
7, 258864, Note_on_c, 5, 73, 0
7, 258960, Note_on_c, 5, 76, 92
7, 259104, Note_on_c, 5, 76, 0
7, 259200, Note_on_c, 5, 74, 92
7, 259440, Note_on_c, 5, 74, 0
7, 259440, Note_on_c, 5, 78, 92
7, 259584, Note_on_c, 5, 78, 0
7, 259680, Note_on_c, 5, 76, 92
7, 259824, Note_on_c, 5, 76, 0
7, 259920, Note_on_c, 5, 73, 92
7, 260064, Note_on_c, 5, 73, 0
7, 260160, Note_on_c, 5, 74, 92
7, 260400, Note_on_c, 5, 74, 0
7, 260400, Note_on_c, 5, 78, 92
7, 260544, Note_on_c, 5, 78, 0
7, 260640, Note_on_c, 5, 76, 92
7, 260784, Note_on_c, 5, 76, 0
7, 260880, Note_on_c, 5, 73, 92
7, 261024, Note_on_c, 5, 73, 0
7, 261120, Note_on_c, 5, 74, 92
7, 261888, Note_on_c, 5, 74, 0
7, 263520, Note_on_c, 5, 63, 58
7, 263808, Note_on_c, 5, 63, 0
7, 264000, Note_on_c, 5, 63, 58
7, 264288, Note_on_c, 5, 63, 0
7, 264480, Note_on_c, 5, 63, 58
7, 264768, Note_on_c, 5, 63, 0
7, 265440, Note_on_c, 5, 66, 58
7, 265728, Note_on_c, 5, 66, 0
7, 265920, Note_on_c, 5, 66, 58
7, 266208, Note_on_c, 5, 66, 0
7, 266400, Note_on_c, 5, 69, 105
7, 266544, Note_on_c, 5, 69, 0
7, 266640, Note_on_c, 5, 72, 105
7, 266784, Note_on_c, 5, 72, 0
7, 266880, Note_on_c, 5, 70, 105
7, 267120, Note_on_c, 5, 70, 0
7, 267120, Note_on_c, 5, 74, 105
7, 267264, Note_on_c, 5, 74, 0
7, 267360, Note_on_c, 5, 72, 105
7, 267504, Note_on_c, 5, 72, 0
7, 267600, Note_on_c, 5, 69, 105
7, 267744, Note_on_c, 5, 69, 0
7, 267840, Note_on_c, 5, 70, 105
7, 268080, Note_on_c, 5, 70, 0
7, 268080, Note_on_c, 5, 74, 105
7, 268224, Note_on_c, 5, 74, 0
7, 268320, Note_on_c, 5, 72, 105
7, 268464, Note_on_c, 5, 72, 0
7, 268560, Note_on_c, 5, 69, 105
7, 268704, Note_on_c, 5, 69, 0
7, 268800, Note_on_c, 5, 70, 105
7, 269568, Note_on_c, 5, 70, 0
7, 270240, Note_on_c, 5, 74, 105
7, 270528, Note_on_c, 5, 74, 0
7, 270720, Note_on_c, 5, 74, 105
7, 271008, Note_on_c, 5, 74, 0
7, 271200, Note_on_c, 5, 69, 70
7, 271488, Note_on_c, 5, 69, 0
7, 271680, Note_on_c, 5, 69, 70
7, 271968, Note_on_c, 5, 69, 0
7, 272160, Note_on_c, 5, 69, 70
7, 272448, Note_on_c, 5, 69, 0
7, 272640, Note_on_c, 5, 70, 70
7, 273120, Note_on_c, 5, 70, 0
7, 273120, Note_on_c, 5, 69, 70
7, 273408, Note_on_c, 5, 69, 0
7, 273600, Note_on_c, 5, 69, 58
7, 273888, Note_on_c, 5, 69, 0
7, 274080, Note_on_c, 5, 74, 105
7, 274368, Note_on_c, 5, 74, 0
7, 274560, Note_on_c, 5, 74, 105
7, 274848, Note_on_c, 5, 74, 0
7, 275040, Note_on_c, 5, 69, 70
7, 275328, Note_on_c, 5, 69, 0
7, 275520, Note_on_c, 5, 69, 70
7, 275808, Note_on_c, 5, 69, 0
7, 276000, Note_on_c, 5, 69, 70
7, 276288, Note_on_c, 5, 69, 0
7, 276480, Note_on_c, 5, 70, 70
7, 276960, Note_on_c, 5, 70, 0
7, 276960, Note_on_c, 5, 69, 58
7, 277248, Note_on_c, 5, 69, 0
7, 277440, Note_on_c, 5, 69, 58
7, 277728, Note_on_c, 5, 69, 0
7, 278880, Note_on_c, 5, 63, 58
7, 279168, Note_on_c, 5, 63, 0
7, 279360, Note_on_c, 5, 63, 58
7, 279648, Note_on_c, 5, 63, 0
7, 279840, Note_on_c, 5, 63, 58
7, 280128, Note_on_c, 5, 63, 0
7, 280800, Note_on_c, 5, 66, 58
7, 281088, Note_on_c, 5, 66, 0
7, 281280, Note_on_c, 5, 66, 58
7, 281568, Note_on_c, 5, 66, 0
7, 281760, Note_on_c, 5, 69, 105
7, 281904, Note_on_c, 5, 69, 0
7, 282000, Note_on_c, 5, 72, 105
7, 282144, Note_on_c, 5, 72, 0
7, 282240, Note_on_c, 5, 70, 105
7, 282480, Note_on_c, 5, 70, 0
7, 282480, Note_on_c, 5, 74, 105
7, 282624, Note_on_c, 5, 74, 0
7, 282720, Note_on_c, 5, 72, 105
7, 282864, Note_on_c, 5, 72, 0
7, 282960, Note_on_c, 5, 69, 105
7, 283104, Note_on_c, 5, 69, 0
7, 283200, Note_on_c, 5, 70, 105
7, 283440, Note_on_c, 5, 70, 0
7, 283440, Note_on_c, 5, 74, 105
7, 283584, Note_on_c, 5, 74, 0
7, 283680, Note_on_c, 5, 72, 105
7, 283824, Note_on_c, 5, 72, 0
7, 283920, Note_on_c, 5, 69, 105
7, 284064, Note_on_c, 5, 69, 0
7, 284160, Note_on_c, 5, 70, 105
7, 284928, Note_on_c, 5, 70, 0
7, 285600, Note_on_c, 5, 74, 105
7, 285888, Note_on_c, 5, 74, 0
7, 286080, Note_on_c, 5, 74, 105
7, 286368, Note_on_c, 5, 74, 0
7, 286560, Note_on_c, 5, 69, 70
7, 286848, Note_on_c, 5, 69, 0
7, 287040, Note_on_c, 5, 69, 70
7, 287328, Note_on_c, 5, 69, 0
7, 287520, Note_on_c, 5, 69, 70
7, 287808, Note_on_c, 5, 69, 0
7, 288000, Note_on_c, 5, 70, 70
7, 288480, Note_on_c, 5, 70, 0
7, 288480, Note_on_c, 5, 69, 58
7, 288768, Note_on_c, 5, 69, 0
7, 288960, Note_on_c, 5, 69, 58
7, 289248, Note_on_c, 5, 69, 0
7, 289440, Note_on_c, 5, 74, 105
7, 289728, Note_on_c, 5, 74, 0
7, 289920, Note_on_c, 5, 74, 105
7, 290208, Note_on_c, 5, 74, 0
7, 290400, Note_on_c, 5, 69, 70
7, 290688, Note_on_c, 5, 69, 0
7, 290880, Note_on_c, 5, 69, 70
7, 291168, Note_on_c, 5, 69, 0
7, 291360, Note_on_c, 5, 69, 70
7, 291648, Note_on_c, 5, 69, 0
7, 291840, Note_on_c, 5, 70, 70
7, 292320, Note_on_c, 5, 70, 0
7, 292320, Note_on_c, 5, 69, 70
7, 292608, Note_on_c, 5, 69, 0
7, 292800, Note_on_c, 5, 69, 58
7, 293088, Note_on_c, 5, 69, 0
7, 294240, Note_on_c, 5, 63, 58
7, 294528, Note_on_c, 5, 63, 0
7, 294720, Note_on_c, 5, 63, 58
7, 295008, Note_on_c, 5, 63, 0
7, 295200, Note_on_c, 5, 63, 58
7, 295488, Note_on_c, 5, 63, 0
7, 296160, Note_on_c, 5, 66, 58
7, 296448, Note_on_c, 5, 66, 0
7, 296640, Note_on_c, 5, 66, 58
7, 296928, Note_on_c, 5, 66, 0
7, 297120, Note_on_c, 5, 69, 116
7, 297264, Note_on_c, 5, 69, 0
7, 297360, Note_on_c, 5, 72, 116
7, 297504, Note_on_c, 5, 72, 0
7, 297600, Note_on_c, 5, 70, 116
7, 297840, Note_on_c, 5, 70, 0
7, 297840, Note_on_c, 5, 74, 116
7, 297984, Note_on_c, 5, 74, 0
7, 298080, Note_on_c, 5, 72, 116
7, 298224, Note_on_c, 5, 72, 0
7, 298320, Note_on_c, 5, 69, 116
7, 298464, Note_on_c, 5, 69, 0
7, 298560, Note_on_c, 5, 70, 116
7, 298800, Note_on_c, 5, 70, 0
7, 298800, Note_on_c, 5, 74, 116
7, 298944, Note_on_c, 5, 74, 0
7, 299040, Note_on_c, 5, 72, 116
7, 299184, Note_on_c, 5, 72, 0
7, 299280, Note_on_c, 5, 69, 116
7, 299424, Note_on_c, 5, 69, 0
7, 299520, Note_on_c, 5, 70, 116
7, 299904, Note_on_c, 5, 70, 0
7, 300000, Note_on_c, 5, 82, 105
7, 300192, Note_on_c, 5, 82, 0
7, 300240, Note_on_c, 5, 81, 105
7, 300432, Note_on_c, 5, 81, 0
7, 300480, Note_on_c, 5, 79, 105
7, 300672, Note_on_c, 5, 79, 0
7, 300720, Note_on_c, 5, 77, 105
7, 300912, Note_on_c, 5, 77, 0
7, 300960, Note_on_c, 5, 75, 105
7, 301152, Note_on_c, 5, 75, 0
7, 301200, Note_on_c, 5, 74, 105
7, 301392, Note_on_c, 5, 74, 0
7, 301440, Note_on_c, 5, 72, 105
7, 301680, Note_on_c, 5, 72, 0
7, 301680, Note_on_c, 5, 75, 105
7, 301824, Note_on_c, 5, 75, 0
7, 301920, Note_on_c, 5, 74, 105
7, 302064, Note_on_c, 5, 74, 0
7, 302160, Note_on_c, 5, 71, 105
7, 302304, Note_on_c, 5, 71, 0
7, 302400, Note_on_c, 5, 72, 105
7, 302640, Note_on_c, 5, 72, 0
7, 302640, Note_on_c, 5, 75, 105
7, 302784, Note_on_c, 5, 75, 0
7, 302880, Note_on_c, 5, 74, 105
7, 303024, Note_on_c, 5, 74, 0
7, 303120, Note_on_c, 5, 71, 105
7, 303264, Note_on_c, 5, 71, 0
7, 303360, Note_on_c, 5, 72, 105
7, 303552, Note_on_c, 5, 72, 0
7, 303600, Note_on_c, 5, 67, 105
7, 303792, Note_on_c, 5, 67, 0
7, 303840, Note_on_c, 5, 75, 105
7, 304032, Note_on_c, 5, 75, 0
7, 304080, Note_on_c, 5, 74, 105
7, 304272, Note_on_c, 5, 74, 0
7, 304320, Note_on_c, 5, 72, 105
7, 304512, Note_on_c, 5, 72, 0
7, 304560, Note_on_c, 5, 70, 105
7, 304752, Note_on_c, 5, 70, 0
7, 304800, Note_on_c, 5, 69, 105
7, 304992, Note_on_c, 5, 69, 0
7, 305040, Note_on_c, 5, 67, 105
7, 305232, Note_on_c, 5, 67, 0
7, 305280, Note_on_c, 5, 66, 105
7, 305520, Note_on_c, 5, 66, 0
7, 305520, Note_on_c, 5, 69, 105
7, 305664, Note_on_c, 5, 69, 0
7, 305760, Note_on_c, 5, 67, 105
7, 305904, Note_on_c, 5, 67, 0
7, 306000, Note_on_c, 5, 64, 105
7, 306144, Note_on_c, 5, 64, 0
7, 306240, Note_on_c, 5, 66, 105
7, 306480, Note_on_c, 5, 66, 0
7, 306480, Note_on_c, 5, 69, 105
7, 306624, Note_on_c, 5, 69, 0
7, 306720, Note_on_c, 5, 67, 105
7, 306864, Note_on_c, 5, 67, 0
7, 306960, Note_on_c, 5, 64, 105
7, 307104, Note_on_c, 5, 64, 0
7, 307200, Note_on_c, 5, 66, 105
7, 307392, Note_on_c, 5, 66, 0
7, 307440, Note_on_c, 5, 62, 105
7, 307632, Note_on_c, 5, 62, 0
7, 307680, Note_on_c, 5, 69, 105
7, 307872, Note_on_c, 5, 69, 0
7, 307920, Note_on_c, 5, 67, 105
7, 308112, Note_on_c, 5, 67, 0
7, 308160, Note_on_c, 5, 66, 105
7, 308352, Note_on_c, 5, 66, 0
7, 308400, Note_on_c, 5, 63, 105
7, 308592, Note_on_c, 5, 63, 0
7, 308640, Note_on_c, 5, 62, 105
7, 308832, Note_on_c, 5, 62, 0
7, 308880, Note_on_c, 5, 60, 105
7, 309072, Note_on_c, 5, 60, 0
7, 309120, Note_on_c, 5, 58, 105
7, 309312, Note_on_c, 5, 58, 0
7, 309360, Note_on_c, 5, 62, 105
7, 309552, Note_on_c, 5, 62, 0
7, 309600, Note_on_c, 5, 67, 105
7, 309792, Note_on_c, 5, 67, 0
7, 309840, Note_on_c, 5, 70, 105
7, 310032, Note_on_c, 5, 70, 0
7, 310080, Note_on_c, 5, 74, 105
7, 310272, Note_on_c, 5, 74, 0
7, 310320, Note_on_c, 5, 74, 105
7, 310512, Note_on_c, 5, 74, 0
7, 310560, Note_on_c, 5, 74, 105
7, 310752, Note_on_c, 5, 74, 0
7, 310800, Note_on_c, 5, 74, 105
7, 310992, Note_on_c, 5, 74, 0
7, 311040, Note_on_c, 5, 72, 105
7, 311232, Note_on_c, 5, 72, 0
7, 311280, Note_on_c, 5, 70, 105
7, 311472, Note_on_c, 5, 70, 0
7, 311520, Note_on_c, 5, 69, 105
7, 311712, Note_on_c, 5, 69, 0
7, 311760, Note_on_c, 5, 67, 105
7, 311952, Note_on_c, 5, 67, 0
7, 312000, Note_on_c, 5, 66, 105
7, 312192, Note_on_c, 5, 66, 0
7, 312240, Note_on_c, 5, 63, 105
7, 312432, Note_on_c, 5, 63, 0
7, 312480, Note_on_c, 5, 62, 105
7, 312672, Note_on_c, 5, 62, 0
7, 312720, Note_on_c, 5, 60, 105
7, 312912, Note_on_c, 5, 60, 0
7, 312960, Note_on_c, 5, 58, 105
7, 313152, Note_on_c, 5, 58, 0
7, 313200, Note_on_c, 5, 62, 105
7, 313392, Note_on_c, 5, 62, 0
7, 313440, Note_on_c, 5, 67, 105
7, 313632, Note_on_c, 5, 67, 0
7, 313680, Note_on_c, 5, 70, 105
7, 313872, Note_on_c, 5, 70, 0
7, 313920, Note_on_c, 5, 74, 105
7, 314112, Note_on_c, 5, 74, 0
7, 314160, Note_on_c, 5, 74, 105
7, 314352, Note_on_c, 5, 74, 0
7, 314400, Note_on_c, 5, 74, 105
7, 314592, Note_on_c, 5, 74, 0
7, 314640, Note_on_c, 5, 74, 105
7, 314832, Note_on_c, 5, 74, 0
7, 314880, Note_on_c, 5, 72, 105
7, 315072, Note_on_c, 5, 72, 0
7, 315120, Note_on_c, 5, 70, 105
7, 315312, Note_on_c, 5, 70, 0
7, 315360, Note_on_c, 5, 69, 105
7, 315552, Note_on_c, 5, 69, 0
7, 315600, Note_on_c, 5, 67, 105
7, 315792, Note_on_c, 5, 67, 0
7, 315840, Note_on_c, 5, 66, 105
7, 316032, Note_on_c, 5, 66, 0
7, 316080, Note_on_c, 5, 75, 105
7, 316272, Note_on_c, 5, 75, 0
7, 316320, Note_on_c, 5, 74, 105
7, 316512, Note_on_c, 5, 74, 0
7, 316560, Note_on_c, 5, 72, 105
7, 316752, Note_on_c, 5, 72, 0
7, 316800, Note_on_c, 5, 70, 105
7, 316992, Note_on_c, 5, 70, 0
7, 317040, Note_on_c, 5, 74, 105
7, 317232, Note_on_c, 5, 74, 0
7, 317280, Note_on_c, 5, 79, 105
7, 317472, Note_on_c, 5, 79, 0
7, 317520, Note_on_c, 5, 82, 105
7, 317712, Note_on_c, 5, 82, 0
7, 317760, Note_on_c, 5, 86, 105
7, 317952, Note_on_c, 5, 86, 0
7, 318000, Note_on_c, 5, 86, 105
7, 318192, Note_on_c, 5, 86, 0
7, 318240, Note_on_c, 5, 86, 105
7, 318432, Note_on_c, 5, 86, 0
7, 318480, Note_on_c, 5, 86, 105
7, 318672, Note_on_c, 5, 86, 0
7, 318720, Note_on_c, 5, 72, 105
7, 318912, Note_on_c, 5, 72, 0
7, 318960, Note_on_c, 5, 75, 105
7, 319152, Note_on_c, 5, 75, 0
7, 319200, Note_on_c, 5, 79, 105
7, 319392, Note_on_c, 5, 79, 0
7, 319440, Note_on_c, 5, 84, 105
7, 319632, Note_on_c, 5, 84, 0
7, 319680, Note_on_c, 5, 87, 105
7, 319872, Note_on_c, 5, 87, 0
7, 319920, Note_on_c, 5, 87, 105
7, 320112, Note_on_c, 5, 87, 0
7, 320160, Note_on_c, 5, 87, 105
7, 320352, Note_on_c, 5, 87, 0
7, 320400, Note_on_c, 5, 87, 105
7, 320592, Note_on_c, 5, 87, 0
7, 320640, Note_on_c, 5, 69, 105
7, 320832, Note_on_c, 5, 69, 0
7, 320880, Note_on_c, 5, 72, 105
7, 321072, Note_on_c, 5, 72, 0
7, 321120, Note_on_c, 5, 77, 105
7, 321312, Note_on_c, 5, 77, 0
7, 321360, Note_on_c, 5, 81, 105
7, 321552, Note_on_c, 5, 81, 0
7, 321600, Note_on_c, 5, 84, 105
7, 321792, Note_on_c, 5, 84, 0
7, 321840, Note_on_c, 5, 84, 105
7, 322032, Note_on_c, 5, 84, 0
7, 322080, Note_on_c, 5, 84, 105
7, 322272, Note_on_c, 5, 84, 0
7, 322320, Note_on_c, 5, 84, 105
7, 322512, Note_on_c, 5, 84, 0
7, 322560, Note_on_c, 5, 70, 105
7, 322752, Note_on_c, 5, 70, 0
7, 322800, Note_on_c, 5, 74, 105
7, 322992, Note_on_c, 5, 74, 0
7, 323040, Note_on_c, 5, 77, 105
7, 323232, Note_on_c, 5, 77, 0
7, 323280, Note_on_c, 5, 82, 105
7, 323472, Note_on_c, 5, 82, 0
7, 323520, Note_on_c, 5, 86, 105
7, 323712, Note_on_c, 5, 86, 0
7, 323760, Note_on_c, 5, 86, 105
7, 323952, Note_on_c, 5, 86, 0
7, 324000, Note_on_c, 5, 86, 105
7, 324192, Note_on_c, 5, 86, 0
7, 324240, Note_on_c, 5, 86, 105
7, 324432, Note_on_c, 5, 86, 0
7, 324480, Note_on_c, 5, 79, 105
7, 324672, Note_on_c, 5, 79, 0
7, 324720, Note_on_c, 5, 81, 105
7, 324912, Note_on_c, 5, 81, 0
7, 324960, Note_on_c, 5, 82, 105
7, 325152, Note_on_c, 5, 82, 0
7, 325200, Note_on_c, 5, 81, 105
7, 325392, Note_on_c, 5, 81, 0
7, 325440, Note_on_c, 5, 79, 105
7, 325632, Note_on_c, 5, 79, 0
7, 325680, Note_on_c, 5, 77, 105
7, 325872, Note_on_c, 5, 77, 0
7, 325920, Note_on_c, 5, 75, 105
7, 326112, Note_on_c, 5, 75, 0
7, 326160, Note_on_c, 5, 74, 105
7, 326352, Note_on_c, 5, 74, 0
7, 326400, Note_on_c, 5, 75, 105
7, 326592, Note_on_c, 5, 75, 0
7, 326640, Note_on_c, 5, 77, 105
7, 326832, Note_on_c, 5, 77, 0
7, 326880, Note_on_c, 5, 79, 105
7, 327072, Note_on_c, 5, 79, 0
7, 327120, Note_on_c, 5, 77, 105
7, 327312, Note_on_c, 5, 77, 0
7, 327360, Note_on_c, 5, 75, 105
7, 327552, Note_on_c, 5, 75, 0
7, 327600, Note_on_c, 5, 74, 105
7, 327792, Note_on_c, 5, 74, 0
7, 327840, Note_on_c, 5, 72, 105
7, 328032, Note_on_c, 5, 72, 0
7, 328080, Note_on_c, 5, 70, 105
7, 328272, Note_on_c, 5, 70, 0
7, 328320, Note_on_c, 5, 69, 105
7, 328512, Note_on_c, 5, 69, 0
7, 328560, Note_on_c, 5, 70, 105
7, 328752, Note_on_c, 5, 70, 0
7, 328800, Note_on_c, 5, 72, 105
7, 328992, Note_on_c, 5, 72, 0
7, 329040, Note_on_c, 5, 70, 105
7, 329232, Note_on_c, 5, 70, 0
7, 329280, Note_on_c, 5, 69, 105
7, 329472, Note_on_c, 5, 69, 0
7, 329520, Note_on_c, 5, 67, 105
7, 329712, Note_on_c, 5, 67, 0
7, 329760, Note_on_c, 5, 65, 105
7, 329952, Note_on_c, 5, 65, 0
7, 330000, Note_on_c, 5, 64, 105
7, 330192, Note_on_c, 5, 64, 0
7, 330240, Note_on_c, 5, 65, 105
7, 330432, Note_on_c, 5, 65, 0
7, 330480, Note_on_c, 5, 67, 105
7, 330672, Note_on_c, 5, 67, 0
7, 330720, Note_on_c, 5, 65, 105
7, 330912, Note_on_c, 5, 65, 0
7, 330960, Note_on_c, 5, 67, 105
7, 331152, Note_on_c, 5, 67, 0
7, 331200, Note_on_c, 5, 65, 105
7, 331392, Note_on_c, 5, 65, 0
7, 331440, Note_on_c, 5, 63, 105
7, 331632, Note_on_c, 5, 63, 0
7, 331680, Note_on_c, 5, 62, 105
7, 331872, Note_on_c, 5, 62, 0
7, 331920, Note_on_c, 5, 60, 105
7, 332112, Note_on_c, 5, 60, 0
7, 332160, Note_on_c, 5, 65, 105
7, 332448, Note_on_c, 5, 65, 0
7, 332640, Note_on_c, 5, 65, 105
7, 332928, Note_on_c, 5, 65, 0
7, 333120, Note_on_c, 5, 65, 105
7, 333408, Note_on_c, 5, 65, 0
7, 333600, Note_on_c, 5, 65, 105
7, 333888, Note_on_c, 5, 65, 0
7, 334080, Note_on_c, 5, 65, 105
7, 334848, Note_on_c, 5, 65, 0
7, 336000, Note_on_c, 5, 74, 105
7, 336288, Note_on_c, 5, 74, 0
7, 336480, Note_on_c, 5, 74, 105
7, 336768, Note_on_c, 5, 74, 0
7, 336960, Note_on_c, 5, 74, 105
7, 337248, Note_on_c, 5, 74, 0
7, 337440, Note_on_c, 5, 74, 105
7, 337728, Note_on_c, 5, 74, 0
7, 337920, Note_on_c, 5, 74, 105
7, 338688, Note_on_c, 5, 74, 0
7, 339840, Note_on_c, 5, 72, 105
7, 340128, Note_on_c, 5, 72, 0
7, 340320, Note_on_c, 5, 71, 105
7, 340608, Note_on_c, 5, 71, 0
7, 340800, Note_on_c, 5, 72, 105
7, 341088, Note_on_c, 5, 72, 0
7, 341280, Note_on_c, 5, 71, 105
7, 341568, Note_on_c, 5, 71, 0
7, 341760, Note_on_c, 5, 72, 105
7, 342528, Note_on_c, 5, 72, 0
7, 343680, Note_on_c, 5, 75, 105
7, 343968, Note_on_c, 5, 75, 0
7, 344160, Note_on_c, 5, 75, 105
7, 344448, Note_on_c, 5, 75, 0
7, 344640, Note_on_c, 5, 75, 105
7, 344928, Note_on_c, 5, 75, 0
7, 345120, Note_on_c, 5, 75, 105
7, 345408, Note_on_c, 5, 75, 0
7, 345600, Note_on_c, 5, 75, 125
7, 345792, Note_on_c, 5, 75, 0
7, 345840, Note_on_c, 5, 74, 105
7, 346032, Note_on_c, 5, 74, 0
7, 346080, Note_on_c, 5, 72, 105
7, 346272, Note_on_c, 5, 72, 0
7, 346320, Note_on_c, 5, 70, 105
7, 346512, Note_on_c, 5, 70, 0
7, 346560, Note_on_c, 5, 69, 105
7, 346752, Note_on_c, 5, 69, 0
7, 346800, Note_on_c, 5, 67, 105
7, 346992, Note_on_c, 5, 67, 0
7, 347040, Note_on_c, 5, 65, 105
7, 347232, Note_on_c, 5, 65, 0
7, 347280, Note_on_c, 5, 63, 105
7, 347472, Note_on_c, 5, 63, 0
7, 347520, Note_on_c, 5, 62, 105
7, 348672, Note_on_c, 5, 62, 0
7, 349200, Note_on_c, 5, 74, 105
7, 349392, Note_on_c, 5, 74, 0
7, 349440, Note_on_c, 5, 72, 125
7, 349632, Note_on_c, 5, 72, 0
7, 349680, Note_on_c, 5, 70, 105
7, 349872, Note_on_c, 5, 70, 0
7, 349920, Note_on_c, 5, 69, 105
7, 350112, Note_on_c, 5, 69, 0
7, 350160, Note_on_c, 5, 67, 105
7, 350352, Note_on_c, 5, 67, 0
7, 350400, Note_on_c, 5, 66, 105
7, 350592, Note_on_c, 5, 66, 0
7, 350640, Note_on_c, 5, 63, 105
7, 350832, Note_on_c, 5, 63, 0
7, 350880, Note_on_c, 5, 62, 105
7, 351072, Note_on_c, 5, 62, 0
7, 351120, Note_on_c, 5, 60, 105
7, 351312, Note_on_c, 5, 60, 0
7, 351360, Note_on_c, 5, 58, 105
7, 352512, Note_on_c, 5, 58, 0
7, 353040, Note_on_c, 5, 70, 105
7, 353232, Note_on_c, 5, 70, 0
7, 353280, Note_on_c, 5, 68, 125
7, 353472, Note_on_c, 5, 68, 0
7, 353520, Note_on_c, 5, 67, 105
7, 353712, Note_on_c, 5, 67, 0
7, 353760, Note_on_c, 5, 65, 105
7, 353952, Note_on_c, 5, 65, 0
7, 354000, Note_on_c, 5, 63, 105
7, 354192, Note_on_c, 5, 63, 0
7, 354240, Note_on_c, 5, 62, 105
7, 354432, Note_on_c, 5, 62, 0
7, 354480, Note_on_c, 5, 60, 105
7, 354672, Note_on_c, 5, 60, 0
7, 354720, Note_on_c, 5, 58, 105
7, 354912, Note_on_c, 5, 58, 0
7, 354960, Note_on_c, 5, 56, 105
7, 355152, Note_on_c, 5, 56, 0
7, 355200, Note_on_c, 5, 55, 105
7, 356352, Note_on_c, 5, 55, 0
7, 356880, Note_on_c, 5, 79, 105
7, 357072, Note_on_c, 5, 79, 0
7, 357120, Note_on_c, 5, 77, 125
7, 357312, Note_on_c, 5, 77, 0
7, 357360, Note_on_c, 5, 75, 105
7, 357552, Note_on_c, 5, 75, 0
7, 357600, Note_on_c, 5, 74, 105
7, 357792, Note_on_c, 5, 74, 0
7, 357840, Note_on_c, 5, 72, 105
7, 358032, Note_on_c, 5, 72, 0
7, 358080, Note_on_c, 5, 71, 105
7, 358272, Note_on_c, 5, 71, 0
7, 358320, Note_on_c, 5, 68, 105
7, 358512, Note_on_c, 5, 68, 0
7, 358560, Note_on_c, 5, 67, 105
7, 358752, Note_on_c, 5, 67, 0
7, 358800, Note_on_c, 5, 65, 105
7, 358992, Note_on_c, 5, 65, 0
7, 359040, Note_on_c, 5, 63, 105
7, 359232, Note_on_c, 5, 63, 0
7, 359280, Note_on_c, 5, 65, 105
7, 359472, Note_on_c, 5, 65, 0
7, 359520, Note_on_c, 5, 67, 105
7, 359712, Note_on_c, 5, 67, 0
7, 359760, Note_on_c, 5, 63, 105
7, 359952, Note_on_c, 5, 63, 0
7, 360000, Note_on_c, 5, 62, 105
7, 360192, Note_on_c, 5, 62, 0
7, 360240, Note_on_c, 5, 63, 105
7, 360432, Note_on_c, 5, 63, 0
7, 360480, Note_on_c, 5, 65, 105
7, 360672, Note_on_c, 5, 65, 0
7, 360720, Note_on_c, 5, 62, 105
7, 360912, Note_on_c, 5, 62, 0
7, 360960, Note_on_c, 5, 60, 105
7, 361152, Note_on_c, 5, 60, 0
7, 361200, Note_on_c, 5, 62, 105
7, 361392, Note_on_c, 5, 62, 0
7, 361440, Note_on_c, 5, 63, 105
7, 361632, Note_on_c, 5, 63, 0
7, 361680, Note_on_c, 5, 60, 105
7, 361872, Note_on_c, 5, 60, 0
7, 361920, Note_on_c, 5, 58, 105
7, 362112, Note_on_c, 5, 58, 0
7, 362160, Note_on_c, 5, 60, 105
7, 362352, Note_on_c, 5, 60, 0
7, 362400, Note_on_c, 5, 62, 105
7, 362592, Note_on_c, 5, 62, 0
7, 362640, Note_on_c, 5, 58, 105
7, 362832, Note_on_c, 5, 58, 0
7, 362880, Note_on_c, 5, 57, 125
7, 363072, Note_on_c, 5, 57, 0
7, 363120, Note_on_c, 5, 60, 105
7, 363312, Note_on_c, 5, 60, 0
7, 363360, Note_on_c, 5, 65, 105
7, 363552, Note_on_c, 5, 65, 0
7, 363600, Note_on_c, 5, 69, 105
7, 363792, Note_on_c, 5, 69, 0
7, 363840, Note_on_c, 5, 72, 105
7, 364032, Note_on_c, 5, 72, 0
7, 364080, Note_on_c, 5, 72, 105
7, 364272, Note_on_c, 5, 72, 0
7, 364320, Note_on_c, 5, 72, 105
7, 364512, Note_on_c, 5, 72, 0
7, 364560, Note_on_c, 5, 72, 105
7, 364752, Note_on_c, 5, 72, 0
7, 364800, Note_on_c, 5, 55, 125
7, 364992, Note_on_c, 5, 55, 0
7, 365040, Note_on_c, 5, 58, 105
7, 365232, Note_on_c, 5, 58, 0
7, 365280, Note_on_c, 5, 64, 105
7, 365472, Note_on_c, 5, 64, 0
7, 365520, Note_on_c, 5, 67, 105
7, 365712, Note_on_c, 5, 67, 0
7, 365760, Note_on_c, 5, 70, 105
7, 365952, Note_on_c, 5, 70, 0
7, 366000, Note_on_c, 5, 70, 105
7, 366192, Note_on_c, 5, 70, 0
7, 366240, Note_on_c, 5, 70, 105
7, 366432, Note_on_c, 5, 70, 0
7, 366480, Note_on_c, 5, 70, 105
7, 366672, Note_on_c, 5, 70, 0
7, 366720, Note_on_c, 5, 69, 125
7, 366912, Note_on_c, 5, 69, 0
7, 366960, Note_on_c, 5, 72, 105
7, 367152, Note_on_c, 5, 72, 0
7, 367200, Note_on_c, 5, 77, 105
7, 367392, Note_on_c, 5, 77, 0
7, 367440, Note_on_c, 5, 81, 105
7, 367632, Note_on_c, 5, 81, 0
7, 367680, Note_on_c, 5, 84, 105
7, 367872, Note_on_c, 5, 84, 0
7, 367920, Note_on_c, 5, 84, 105
7, 368112, Note_on_c, 5, 84, 0
7, 368160, Note_on_c, 5, 84, 105
7, 368352, Note_on_c, 5, 84, 0
7, 368400, Note_on_c, 5, 84, 105
7, 368592, Note_on_c, 5, 84, 0
7, 368640, Note_on_c, 5, 67, 125
7, 368832, Note_on_c, 5, 67, 0
7, 368880, Note_on_c, 5, 70, 105
7, 369072, Note_on_c, 5, 70, 0
7, 369120, Note_on_c, 5, 76, 105
7, 369312, Note_on_c, 5, 76, 0
7, 369360, Note_on_c, 5, 79, 105
7, 369552, Note_on_c, 5, 79, 0
7, 369600, Note_on_c, 5, 82, 105
7, 369792, Note_on_c, 5, 82, 0
7, 369840, Note_on_c, 5, 82, 105
7, 370032, Note_on_c, 5, 82, 0
7, 370080, Note_on_c, 5, 82, 105
7, 370272, Note_on_c, 5, 82, 0
7, 370320, Note_on_c, 5, 82, 105
7, 370512, Note_on_c, 5, 82, 0
7, 370560, Note_on_c, 5, 81, 105
7, 370944, Note_on_c, 5, 81, 0
7, 371520, Note_on_c, 5, 69, 105
7, 371520, Note_on_c, 5, 77, 105
7, 371904, Note_on_c, 5, 77, 0
7, 371904, Note_on_c, 5, 69, 0
7, 372480, Note_on_c, 5, 57, 92
7, 372480, Note_on_c, 5, 65, 92
7, 373248, Note_on_c, 5, 65, 0
7, 373248, Note_on_c, 5, 57, 0
7, 374400, Note_on_c, 5, 74, 58
7, 374784, Note_on_c, 5, 74, 0
7, 374880, Note_on_c, 5, 74, 58
7, 375264, Note_on_c, 5, 74, 0
7, 375360, Note_on_c, 5, 74, 58
7, 375744, Note_on_c, 5, 74, 0
7, 375840, Note_on_c, 5, 74, 58
7, 376224, Note_on_c, 5, 74, 0
7, 376320, Note_on_c, 5, 72, 58
7, 376704, Note_on_c, 5, 72, 0
7, 376800, Note_on_c, 5, 72, 58
7, 377184, Note_on_c, 5, 72, 0
7, 377280, Note_on_c, 5, 72, 58
7, 377664, Note_on_c, 5, 72, 0
7, 377760, Note_on_c, 5, 72, 58
7, 378144, Note_on_c, 5, 72, 0
7, 378240, Note_on_c, 5, 70, 80
7, 379776, Note_on_c, 5, 70, 0
7, 380160, Note_on_c, 5, 70, 70
7, 381696, Note_on_c, 5, 70, 0
7, 382080, Note_on_c, 5, 67, 58
7, 384384, Note_on_c, 5, 67, 0
7, 385920, Note_on_c, 5, 62, 58
7, 387360, Note_on_c, 5, 62, 0
7, 387360, Note_on_c, 5, 58, 58
7, 387600, Note_on_c, 5, 58, 0
7, 387600, Note_on_c, 5, 57, 58
7, 387840, Note_on_c, 5, 57, 0
7, 387840, Note_on_c, 5, 57, 58
7, 388224, Note_on_c, 5, 57, 0
7, 389760, Note_on_c, 5, 74, 70
7, 390144, Note_on_c, 5, 74, 0
7, 390240, Note_on_c, 5, 74, 70
7, 390624, Note_on_c, 5, 74, 0
7, 390720, Note_on_c, 5, 74, 70
7, 391104, Note_on_c, 5, 74, 0
7, 391200, Note_on_c, 5, 74, 70
7, 391584, Note_on_c, 5, 74, 0
7, 391680, Note_on_c, 5, 72, 70
7, 392064, Note_on_c, 5, 72, 0
7, 392160, Note_on_c, 5, 72, 70
7, 392544, Note_on_c, 5, 72, 0
7, 392640, Note_on_c, 5, 72, 70
7, 393024, Note_on_c, 5, 72, 0
7, 393120, Note_on_c, 5, 72, 70
7, 393504, Note_on_c, 5, 72, 0
7, 393600, Note_on_c, 5, 70, 58
7, 397440, Note_on_c, 5, 70, 0
7, 397440, Note_on_c, 5, 67, 58
7, 397824, Note_on_c, 5, 67, 0
7, 399360, Note_on_c, 5, 62, 58
7, 400800, Note_on_c, 5, 62, 0
7, 400800, Note_on_c, 5, 65, 58
7, 401040, Note_on_c, 5, 65, 0
7, 401040, Note_on_c, 5, 63, 58
7, 401280, Note_on_c, 5, 63, 0
7, 401280, Note_on_c, 5, 62, 58
7, 401664, Note_on_c, 5, 62, 0
7, 409920, Note_on_c, 5, 63, 58
7, 410160, Note_on_c, 5, 63, 0
7, 410160, Note_on_c, 5, 62, 58
7, 410400, Note_on_c, 5, 62, 0
7, 410400, Note_on_c, 5, 60, 58
7, 410640, Note_on_c, 5, 60, 0
7, 410640, Note_on_c, 5, 58, 58
7, 410832, Note_on_c, 5, 58, 0
7, 410880, Note_on_c, 5, 57, 58
7, 411840, Note_on_c, 5, 57, 0
7, 411840, Note_on_c, 5, 58, 58
7, 412608, Note_on_c, 5, 58, 0
7, 420480, Note_on_c, 5, 62, 58
7, 421440, Note_on_c, 5, 62, 0
7, 421440, Note_on_c, 5, 61, 58
7, 422400, Note_on_c, 5, 61, 0
7, 422400, Note_on_c, 5, 60, 58
7, 423360, Note_on_c, 5, 60, 0
7, 423360, Note_on_c, 5, 59, 58
7, 424320, Note_on_c, 5, 59, 0
7, 424320, Note_on_c, 5, 58, 58
7, 427200, Note_on_c, 5, 58, 0
7, 427200, Note_on_c, 5, 59, 58
7, 427968, Note_on_c, 5, 59, 0
7, 428160, Note_on_c, 5, 60, 58
7, 429600, Note_on_c, 5, 60, 0
7, 429600, Note_on_c, 5, 62, 58
7, 429840, Note_on_c, 5, 62, 0
7, 429840, Note_on_c, 5, 63, 58
7, 430032, Note_on_c, 5, 63, 0
7, 430080, Note_on_c, 5, 58, 58
7, 430656, Note_on_c, 5, 58, 0
7, 431040, Note_on_c, 5, 57, 58
7, 431616, Note_on_c, 5, 57, 0
7, 432000, Note_on_c, 5, 58, 105
7, 432192, Note_on_c, 5, 58, 0
7, 432240, Note_on_c, 5, 77, 105
7, 432432, Note_on_c, 5, 77, 0
7, 432480, Note_on_c, 5, 77, 105
7, 432672, Note_on_c, 5, 77, 0
7, 432720, Note_on_c, 5, 77, 105
7, 432912, Note_on_c, 5, 77, 0
7, 432960, Note_on_c, 5, 77, 105
7, 433152, Note_on_c, 5, 77, 0
7, 433200, Note_on_c, 5, 77, 105
7, 433392, Note_on_c, 5, 77, 0
7, 433440, Note_on_c, 5, 77, 105
7, 433632, Note_on_c, 5, 77, 0
7, 433680, Note_on_c, 5, 77, 105
7, 433872, Note_on_c, 5, 77, 0
7, 433920, Note_on_c, 5, 82, 105
7, 434160, Note_on_c, 5, 82, 0
7, 434160, Note_on_c, 5, 86, 105
7, 434304, Note_on_c, 5, 86, 0
7, 434400, Note_on_c, 5, 84, 105
7, 434544, Note_on_c, 5, 84, 0
7, 434640, Note_on_c, 5, 81, 105
7, 434784, Note_on_c, 5, 81, 0
7, 434880, Note_on_c, 5, 82, 105
7, 435120, Note_on_c, 5, 82, 0
7, 435120, Note_on_c, 5, 86, 105
7, 435264, Note_on_c, 5, 86, 0
7, 435360, Note_on_c, 5, 84, 105
7, 435504, Note_on_c, 5, 84, 0
7, 435600, Note_on_c, 5, 81, 105
7, 435744, Note_on_c, 5, 81, 0
7, 435840, Note_on_c, 5, 82, 105
7, 436032, Note_on_c, 5, 82, 0
7, 436080, Note_on_c, 5, 77, 105
7, 436272, Note_on_c, 5, 77, 0
7, 436320, Note_on_c, 5, 77, 105
7, 436512, Note_on_c, 5, 77, 0
7, 436560, Note_on_c, 5, 77, 105
7, 436752, Note_on_c, 5, 77, 0
7, 436800, Note_on_c, 5, 77, 105
7, 436992, Note_on_c, 5, 77, 0
7, 437040, Note_on_c, 5, 77, 105
7, 437232, Note_on_c, 5, 77, 0
7, 437280, Note_on_c, 5, 77, 105
7, 437472, Note_on_c, 5, 77, 0
7, 437520, Note_on_c, 5, 77, 105
7, 437712, Note_on_c, 5, 77, 0
7, 437760, Note_on_c, 5, 82, 105
7, 438000, Note_on_c, 5, 82, 0
7, 438000, Note_on_c, 5, 86, 105
7, 438144, Note_on_c, 5, 86, 0
7, 438240, Note_on_c, 5, 84, 105
7, 438384, Note_on_c, 5, 84, 0
7, 438480, Note_on_c, 5, 81, 105
7, 438624, Note_on_c, 5, 81, 0
7, 438720, Note_on_c, 5, 82, 105
7, 438960, Note_on_c, 5, 82, 0
7, 438960, Note_on_c, 5, 86, 105
7, 439104, Note_on_c, 5, 86, 0
7, 439200, Note_on_c, 5, 84, 105
7, 439344, Note_on_c, 5, 84, 0
7, 439440, Note_on_c, 5, 81, 105
7, 439584, Note_on_c, 5, 81, 0
7, 439680, Note_on_c, 5, 82, 105
7, 439872, Note_on_c, 5, 82, 0
7, 439920, Note_on_c, 5, 77, 105
7, 440112, Note_on_c, 5, 77, 0
7, 440160, Note_on_c, 5, 77, 105
7, 440352, Note_on_c, 5, 77, 0
7, 440400, Note_on_c, 5, 77, 105
7, 440592, Note_on_c, 5, 77, 0
7, 440640, Note_on_c, 5, 77, 105
7, 440832, Note_on_c, 5, 77, 0
7, 440880, Note_on_c, 5, 77, 105
7, 441072, Note_on_c, 5, 77, 0
7, 441120, Note_on_c, 5, 77, 105
7, 441312, Note_on_c, 5, 77, 0
7, 441360, Note_on_c, 5, 77, 105
7, 441552, Note_on_c, 5, 77, 0
7, 441600, Note_on_c, 5, 82, 105
7, 441840, Note_on_c, 5, 82, 0
7, 441840, Note_on_c, 5, 86, 105
7, 441984, Note_on_c, 5, 86, 0
7, 442080, Note_on_c, 5, 84, 105
7, 442224, Note_on_c, 5, 84, 0
7, 442320, Note_on_c, 5, 81, 105
7, 442464, Note_on_c, 5, 81, 0
7, 442560, Note_on_c, 5, 82, 105
7, 442800, Note_on_c, 5, 82, 0
7, 442800, Note_on_c, 5, 86, 105
7, 442944, Note_on_c, 5, 86, 0
7, 443040, Note_on_c, 5, 84, 105
7, 443184, Note_on_c, 5, 84, 0
7, 443280, Note_on_c, 5, 81, 105
7, 443424, Note_on_c, 5, 81, 0
7, 443520, Note_on_c, 5, 82, 105
7, 443712, Note_on_c, 5, 82, 0
7, 443760, Note_on_c, 5, 77, 105
7, 443952, Note_on_c, 5, 77, 0
7, 444000, Note_on_c, 5, 77, 105
7, 444192, Note_on_c, 5, 77, 0
7, 444240, Note_on_c, 5, 77, 105
7, 444432, Note_on_c, 5, 77, 0
7, 444480, Note_on_c, 5, 79, 105
7, 444672, Note_on_c, 5, 79, 0
7, 444720, Note_on_c, 5, 75, 105
7, 444912, Note_on_c, 5, 75, 0
7, 444960, Note_on_c, 5, 75, 105
7, 445152, Note_on_c, 5, 75, 0
7, 445200, Note_on_c, 5, 75, 105
7, 445392, Note_on_c, 5, 75, 0
7, 445440, Note_on_c, 5, 74, 105
7, 445632, Note_on_c, 5, 74, 0
7, 445680, Note_on_c, 5, 70, 105
7, 445872, Note_on_c, 5, 70, 0
7, 445920, Note_on_c, 5, 70, 105
7, 446112, Note_on_c, 5, 70, 0
7, 446160, Note_on_c, 5, 70, 105
7, 446352, Note_on_c, 5, 70, 0
7, 446400, Note_on_c, 5, 77, 105
7, 446592, Note_on_c, 5, 77, 0
7, 446640, Note_on_c, 5, 69, 105
7, 446832, Note_on_c, 5, 69, 0
7, 446880, Note_on_c, 5, 69, 105
7, 447072, Note_on_c, 5, 69, 0
7, 447120, Note_on_c, 5, 69, 105
7, 447312, Note_on_c, 5, 69, 0
7, 447360, Note_on_c, 5, 70, 80
7, 447744, Note_on_c, 5, 70, 0
7, 449280, Note_on_c, 5, 58, 70
7, 449520, Note_on_c, 5, 58, 0
7, 449520, Note_on_c, 5, 62, 70
7, 449664, Note_on_c, 5, 62, 0
7, 449760, Note_on_c, 5, 60, 70
7, 449904, Note_on_c, 5, 60, 0
7, 450000, Note_on_c, 5, 57, 70
7, 450144, Note_on_c, 5, 57, 0
7, 450240, Note_on_c, 5, 58, 70
7, 450480, Note_on_c, 5, 58, 0
7, 450480, Note_on_c, 5, 62, 70
7, 450624, Note_on_c, 5, 62, 0
7, 450720, Note_on_c, 5, 60, 70
7, 450864, Note_on_c, 5, 60, 0
7, 450960, Note_on_c, 5, 57, 70
7, 451104, Note_on_c, 5, 57, 0
7, 451200, Note_on_c, 5, 58, 70
7, 451344, Note_on_c, 5, 58, 0
7, 451440, Note_on_c, 5, 65, 70
7, 451680, Note_on_c, 5, 65, 0
7, 451680, Note_on_c, 5, 64, 70
7, 451920, Note_on_c, 5, 64, 0
7, 451920, Note_on_c, 5, 65, 70
7, 452160, Note_on_c, 5, 65, 0
7, 452160, Note_on_c, 5, 64, 70
7, 452400, Note_on_c, 5, 64, 0
7, 452400, Note_on_c, 5, 65, 70
7, 452640, Note_on_c, 5, 65, 0
7, 452640, Note_on_c, 5, 67, 70
7, 452880, Note_on_c, 5, 67, 0
7, 452880, Note_on_c, 5, 65, 70
7, 453072, Note_on_c, 5, 65, 0
7, 453120, Note_on_c, 5, 58, 70
7, 453360, Note_on_c, 5, 58, 0
7, 453360, Note_on_c, 5, 62, 70
7, 453504, Note_on_c, 5, 62, 0
7, 453600, Note_on_c, 5, 60, 70
7, 453744, Note_on_c, 5, 60, 0
7, 453840, Note_on_c, 5, 57, 70
7, 453984, Note_on_c, 5, 57, 0
7, 454080, Note_on_c, 5, 58, 70
7, 454320, Note_on_c, 5, 58, 0
7, 454320, Note_on_c, 5, 62, 70
7, 454464, Note_on_c, 5, 62, 0
7, 454560, Note_on_c, 5, 60, 70
7, 454704, Note_on_c, 5, 60, 0
7, 454800, Note_on_c, 5, 57, 70
7, 454944, Note_on_c, 5, 57, 0
7, 455040, Note_on_c, 5, 58, 58
7, 455424, Note_on_c, 5, 58, 0
7, 456960, Note_on_c, 5, 70, 105
7, 457152, Note_on_c, 5, 70, 0
7, 457200, Note_on_c, 5, 74, 105
7, 457392, Note_on_c, 5, 74, 0
7, 457440, Note_on_c, 5, 72, 105
7, 457632, Note_on_c, 5, 72, 0
7, 457680, Note_on_c, 5, 69, 105
7, 457872, Note_on_c, 5, 69, 0
7, 457920, Note_on_c, 5, 70, 105
7, 458112, Note_on_c, 5, 70, 0
7, 458160, Note_on_c, 5, 74, 105
7, 458352, Note_on_c, 5, 74, 0
7, 458400, Note_on_c, 5, 72, 105
7, 458592, Note_on_c, 5, 72, 0
7, 458640, Note_on_c, 5, 69, 105
7, 458832, Note_on_c, 5, 69, 0
7, 458880, Note_on_c, 5, 77, 105
7, 459072, Note_on_c, 5, 77, 0
7, 459120, Note_on_c, 5, 82, 105
7, 459312, Note_on_c, 5, 82, 0
7, 459360, Note_on_c, 5, 82, 105
7, 459552, Note_on_c, 5, 82, 0
7, 459600, Note_on_c, 5, 82, 105
7, 459792, Note_on_c, 5, 82, 0
7, 459840, Note_on_c, 5, 72, 105
7, 460032, Note_on_c, 5, 72, 0
7, 460080, Note_on_c, 5, 79, 105
7, 460272, Note_on_c, 5, 79, 0
7, 460320, Note_on_c, 5, 79, 105
7, 460512, Note_on_c, 5, 79, 0
7, 460560, Note_on_c, 5, 79, 105
7, 460752, Note_on_c, 5, 79, 0
7, 460800, Note_on_c, 5, 77, 105
7, 460992, Note_on_c, 5, 77, 0
7, 461040, Note_on_c, 5, 74, 105
7, 461232, Note_on_c, 5, 74, 0
7, 461280, Note_on_c, 5, 74, 105
7, 461472, Note_on_c, 5, 74, 0
7, 461520, Note_on_c, 5, 74, 105
7, 461712, Note_on_c, 5, 74, 0
7, 461760, Note_on_c, 5, 77, 105
7, 461952, Note_on_c, 5, 77, 0
7, 462000, Note_on_c, 5, 69, 105
7, 462192, Note_on_c, 5, 69, 0
7, 462240, Note_on_c, 5, 69, 105
7, 462432, Note_on_c, 5, 69, 0
7, 462480, Note_on_c, 5, 69, 105
7, 462672, Note_on_c, 5, 69, 0
7, 462720, Note_on_c, 5, 70, 105
7, 463104, Note_on_c, 5, 70, 0
7, 463200, Note_on_c, 5, 65, 105
7, 463200, Note_on_c, 5, 74, 105
7, 463968, Note_on_c, 5, 74, 0
7, 463968, Note_on_c, 5, 65, 0
7, 464160, Note_on_c, 5, 74, 105
7, 464160, Note_on_c, 5, 65, 105
7, 464544, Note_on_c, 5, 65, 0
7, 464544, Note_on_c, 5, 74, 0
7, 464640, Note_on_c, 5, 65, 105
7, 464640, Note_on_c, 5, 75, 105
7, 464832, Note_on_c, 5, 75, 0
7, 464832, Note_on_c, 5, 65, 0
7, 464880, Note_on_c, 5, 75, 105
7, 464880, Note_on_c, 5, 65, 105
7, 465072, Note_on_c, 5, 65, 0
7, 465072, Note_on_c, 5, 75, 0
7, 465120, Note_on_c, 5, 75, 105
7, 465120, Note_on_c, 5, 65, 105
7, 465312, Note_on_c, 5, 65, 0
7, 465312, Note_on_c, 5, 75, 0
7, 465360, Note_on_c, 5, 65, 105
7, 465360, Note_on_c, 5, 75, 105
7, 465552, Note_on_c, 5, 75, 0
7, 465552, Note_on_c, 5, 65, 0
7, 465600, Note_on_c, 5, 65, 105
7, 465600, Note_on_c, 5, 75, 105
7, 465792, Note_on_c, 5, 75, 0
7, 465792, Note_on_c, 5, 65, 0
7, 465840, Note_on_c, 5, 65, 105
7, 465840, Note_on_c, 5, 75, 105
7, 466032, Note_on_c, 5, 75, 0
7, 466032, Note_on_c, 5, 65, 0
7, 466080, Note_on_c, 5, 65, 105
7, 466080, Note_on_c, 5, 75, 105
7, 466272, Note_on_c, 5, 75, 0
7, 466272, Note_on_c, 5, 65, 0
7, 466320, Note_on_c, 5, 65, 105
7, 466320, Note_on_c, 5, 75, 105
7, 466512, Note_on_c, 5, 75, 0
7, 466512, Note_on_c, 5, 65, 0
7, 466560, Note_on_c, 5, 74, 105
7, 466560, Note_on_c, 5, 65, 105
7, 466752, Note_on_c, 5, 65, 0
7, 466752, Note_on_c, 5, 74, 0
7, 466800, Note_on_c, 5, 74, 105
7, 466800, Note_on_c, 5, 65, 105
7, 466992, Note_on_c, 5, 65, 0
7, 466992, Note_on_c, 5, 74, 0
7, 467040, Note_on_c, 5, 65, 105
7, 467040, Note_on_c, 5, 74, 105
7, 467232, Note_on_c, 5, 74, 0
7, 467232, Note_on_c, 5, 65, 0
7, 467280, Note_on_c, 5, 74, 105
7, 467280, Note_on_c, 5, 65, 105
7, 467472, Note_on_c, 5, 65, 0
7, 467472, Note_on_c, 5, 74, 0
7, 467520, Note_on_c, 5, 65, 105
7, 467520, Note_on_c, 5, 74, 105
7, 467712, Note_on_c, 5, 74, 0
7, 467712, Note_on_c, 5, 65, 0
7, 467760, Note_on_c, 5, 65, 105
7, 467760, Note_on_c, 5, 74, 105
7, 467952, Note_on_c, 5, 74, 0
7, 467952, Note_on_c, 5, 65, 0
7, 468000, Note_on_c, 5, 74, 105
7, 468000, Note_on_c, 5, 65, 105
7, 468192, Note_on_c, 5, 65, 0
7, 468192, Note_on_c, 5, 74, 0
7, 468240, Note_on_c, 5, 65, 105
7, 468240, Note_on_c, 5, 74, 105
7, 468432, Note_on_c, 5, 74, 0
7, 468432, Note_on_c, 5, 65, 0
7, 468480, Note_on_c, 5, 75, 105
7, 468480, Note_on_c, 5, 65, 105
7, 468672, Note_on_c, 5, 65, 0
7, 468672, Note_on_c, 5, 75, 0
7, 468720, Note_on_c, 5, 65, 105
7, 468720, Note_on_c, 5, 75, 105
7, 468912, Note_on_c, 5, 75, 0
7, 468912, Note_on_c, 5, 65, 0
7, 468960, Note_on_c, 5, 75, 105
7, 468960, Note_on_c, 5, 65, 105
7, 469152, Note_on_c, 5, 65, 0
7, 469152, Note_on_c, 5, 75, 0
7, 469200, Note_on_c, 5, 75, 105
7, 469200, Note_on_c, 5, 65, 105
7, 469392, Note_on_c, 5, 65, 0
7, 469392, Note_on_c, 5, 75, 0
7, 469440, Note_on_c, 5, 75, 105
7, 469440, Note_on_c, 5, 65, 105
7, 469632, Note_on_c, 5, 65, 0
7, 469632, Note_on_c, 5, 75, 0
7, 469680, Note_on_c, 5, 65, 105
7, 469680, Note_on_c, 5, 75, 105
7, 469872, Note_on_c, 5, 75, 0
7, 469872, Note_on_c, 5, 65, 0
7, 469920, Note_on_c, 5, 65, 105
7, 469920, Note_on_c, 5, 75, 105
7, 470112, Note_on_c, 5, 75, 0
7, 470112, Note_on_c, 5, 65, 0
7, 470160, Note_on_c, 5, 75, 105
7, 470160, Note_on_c, 5, 65, 105
7, 470352, Note_on_c, 5, 65, 0
7, 470352, Note_on_c, 5, 75, 0
7, 470400, Note_on_c, 5, 65, 105
7, 470400, Note_on_c, 5, 74, 105
7, 470592, Note_on_c, 5, 74, 0
7, 470592, Note_on_c, 5, 65, 0
7, 470640, Note_on_c, 5, 74, 105
7, 470640, Note_on_c, 5, 65, 105
7, 470832, Note_on_c, 5, 65, 0
7, 470832, Note_on_c, 5, 74, 0
7, 470880, Note_on_c, 5, 74, 105
7, 470880, Note_on_c, 5, 65, 105
7, 471072, Note_on_c, 5, 65, 0
7, 471072, Note_on_c, 5, 74, 0
7, 471120, Note_on_c, 5, 65, 105
7, 471120, Note_on_c, 5, 74, 105
7, 471312, Note_on_c, 5, 74, 0
7, 471312, Note_on_c, 5, 65, 0
7, 471360, Note_on_c, 5, 65, 105
7, 471360, Note_on_c, 5, 74, 105
7, 471552, Note_on_c, 5, 74, 0
7, 471552, Note_on_c, 5, 65, 0
7, 471600, Note_on_c, 5, 74, 105
7, 471600, Note_on_c, 5, 65, 105
7, 471792, Note_on_c, 5, 65, 0
7, 471792, Note_on_c, 5, 74, 0
7, 471840, Note_on_c, 5, 65, 105
7, 471840, Note_on_c, 5, 74, 105
7, 472032, Note_on_c, 5, 74, 0
7, 472032, Note_on_c, 5, 65, 0
7, 472080, Note_on_c, 5, 65, 105
7, 472080, Note_on_c, 5, 74, 105
7, 472272, Note_on_c, 5, 74, 0
7, 472272, Note_on_c, 5, 65, 0
7, 472320, Note_on_c, 5, 75, 105
7, 472320, Note_on_c, 5, 65, 105
7, 472512, Note_on_c, 5, 65, 0
7, 472512, Note_on_c, 5, 75, 0
7, 472560, Note_on_c, 5, 65, 105
7, 472560, Note_on_c, 5, 75, 105
7, 472752, Note_on_c, 5, 75, 0
7, 472752, Note_on_c, 5, 65, 0
7, 472800, Note_on_c, 5, 65, 105
7, 472800, Note_on_c, 5, 75, 105
7, 472992, Note_on_c, 5, 75, 0
7, 472992, Note_on_c, 5, 65, 0
7, 473040, Note_on_c, 5, 65, 105
7, 473040, Note_on_c, 5, 75, 105
7, 473232, Note_on_c, 5, 75, 0
7, 473232, Note_on_c, 5, 65, 0
7, 473280, Note_on_c, 5, 75, 105
7, 473280, Note_on_c, 5, 65, 105
7, 473472, Note_on_c, 5, 65, 0
7, 473472, Note_on_c, 5, 75, 0
7, 473520, Note_on_c, 5, 75, 105
7, 473520, Note_on_c, 5, 65, 105
7, 473712, Note_on_c, 5, 65, 0
7, 473712, Note_on_c, 5, 75, 0
7, 473760, Note_on_c, 5, 75, 105
7, 473760, Note_on_c, 5, 65, 105
7, 473952, Note_on_c, 5, 65, 0
7, 473952, Note_on_c, 5, 75, 0
7, 474000, Note_on_c, 5, 75, 105
7, 474000, Note_on_c, 5, 65, 105
7, 474192, Note_on_c, 5, 65, 0
7, 474192, Note_on_c, 5, 75, 0
7, 474240, Note_on_c, 5, 74, 105
7, 474240, Note_on_c, 5, 65, 105
7, 474624, Note_on_c, 5, 65, 0
7, 474624, Note_on_c, 5, 74, 0
7, 475200, Note_on_c, 5, 82, 105
7, 475200, Note_on_c, 5, 70, 105
7, 475200, Note_on_c, 5, 62, 105
7, 475584, Note_on_c, 5, 62, 0
7, 475584, Note_on_c, 5, 70, 0
7, 475584, Note_on_c, 5, 82, 0
7, 476160, Note_on_c, 5, 58, 92
7, 476928, Note_on_c, 5, 58, 0
7, 477600, Note_on_c, 5, 70, 112
7, 478080, Note_on_c, 5, 70, 0
7, 478080, Note_on_c, 5, 74, 105
7, 478368, Note_on_c, 5, 74, 0
7, 478560, Note_on_c, 5, 77, 105
7, 478848, Note_on_c, 5, 77, 0
7, 479040, Note_on_c, 5, 81, 105
7, 479328, Note_on_c, 5, 81, 0
7, 479520, Note_on_c, 5, 82, 105
7, 479808, Note_on_c, 5, 82, 0
7, 480000, Note_on_c, 5, 85, 105
7, 480960, Note_on_c, 5, 85, 0
7, 480960, Note_on_c, 5, 84, 105
7, 481248, Note_on_c, 5, 84, 0
7, 481440, Note_on_c, 5, 76, 105
7, 481728, Note_on_c, 5, 76, 0
7, 481920, Note_on_c, 5, 80, 105
7, 482256, Note_on_c, 5, 80, 0
7, 482880, Note_on_c, 5, 71, 105
7, 483216, Note_on_c, 5, 71, 0
7, 485520, Note_on_c, 5, 71, 105
7, 485600, Note_on_c, 5, 71, 0
7, 485600, Note_on_c, 5, 72, 105
7, 485680, Note_on_c, 5, 72, 0
7, 485680, Note_on_c, 5, 74, 105
7, 485760, Note_on_c, 5, 74, 0
7, 485760, Note_on_c, 5, 75, 105
7, 486096, Note_on_c, 5, 75, 0
7, 486720, Note_on_c, 5, 66, 105
7, 487056, Note_on_c, 5, 66, 0
7, 487680, Note_on_c, 5, 70, 105
7, 488016, Note_on_c, 5, 70, 0
7, 489600, Note_on_c, 5, 61, 105
7, 489936, Note_on_c, 5, 61, 0
7, 491520, Note_on_c, 5, 65, 105
7, 491856, Note_on_c, 5, 65, 0
7, 492480, Note_on_c, 5, 56, 105
7, 492816, Note_on_c, 5, 56, 0
7, 497760, Note_on_c, 5, 64, 58
7, 497760, Note_on_c, 5, 61, 58
7, 498144, Note_on_c, 5, 61, 0
7, 498144, Note_on_c, 5, 64, 0
7, 498240, Note_on_c, 5, 64, 58
7, 498240, Note_on_c, 5, 61, 58
7, 498624, Note_on_c, 5, 61, 0
7, 498624, Note_on_c, 5, 64, 0
7, 498720, Note_on_c, 5, 64, 58
7, 498720, Note_on_c, 5, 61, 58
7, 499104, Note_on_c, 5, 61, 0
7, 499104, Note_on_c, 5, 64, 0
7, 499680, Note_on_c, 5, 64, 58
7, 499680, Note_on_c, 5, 61, 58
7, 500064, Note_on_c, 5, 61, 0
7, 500064, Note_on_c, 5, 64, 0
7, 500160, Note_on_c, 5, 61, 58
7, 500160, Note_on_c, 5, 64, 58
7, 500544, Note_on_c, 5, 64, 0
7, 500544, Note_on_c, 5, 61, 0
7, 500640, Note_on_c, 5, 64, 58
7, 500640, Note_on_c, 5, 61, 58
7, 501024, Note_on_c, 5, 61, 0
7, 501024, Note_on_c, 5, 64, 0
7, 501600, Note_on_c, 5, 65, 58
7, 501600, Note_on_c, 5, 62, 58
7, 501984, Note_on_c, 5, 62, 0
7, 501984, Note_on_c, 5, 65, 0
7, 502080, Note_on_c, 5, 62, 58
7, 502080, Note_on_c, 5, 65, 58
7, 502464, Note_on_c, 5, 65, 0
7, 502464, Note_on_c, 5, 62, 0
7, 502560, Note_on_c, 5, 65, 58
7, 502560, Note_on_c, 5, 62, 58
7, 502944, Note_on_c, 5, 62, 0
7, 502944, Note_on_c, 5, 65, 0
7, 503520, Note_on_c, 5, 65, 58
7, 503520, Note_on_c, 5, 62, 58
7, 503904, Note_on_c, 5, 62, 0
7, 503904, Note_on_c, 5, 65, 0
7, 504000, Note_on_c, 5, 62, 58
7, 504000, Note_on_c, 5, 65, 58
7, 504384, Note_on_c, 5, 65, 0
7, 504384, Note_on_c, 5, 62, 0
7, 504480, Note_on_c, 5, 65, 58
7, 504480, Note_on_c, 5, 62, 58
7, 504864, Note_on_c, 5, 62, 0
7, 504864, Note_on_c, 5, 65, 0
7, 505440, Note_on_c, 5, 64, 58
7, 505440, Note_on_c, 5, 61, 58
7, 505824, Note_on_c, 5, 61, 0
7, 505824, Note_on_c, 5, 64, 0
7, 505920, Note_on_c, 5, 61, 58
7, 505920, Note_on_c, 5, 64, 58
7, 506304, Note_on_c, 5, 64, 0
7, 506304, Note_on_c, 5, 61, 0
7, 506400, Note_on_c, 5, 64, 58
7, 506400, Note_on_c, 5, 61, 58
7, 506784, Note_on_c, 5, 61, 0
7, 506784, Note_on_c, 5, 64, 0
7, 507360, Note_on_c, 5, 61, 58
7, 507360, Note_on_c, 5, 64, 58
7, 507744, Note_on_c, 5, 64, 0
7, 507744, Note_on_c, 5, 61, 0
7, 507840, Note_on_c, 5, 61, 58
7, 507840, Note_on_c, 5, 64, 58
7, 508224, Note_on_c, 5, 64, 0
7, 508224, Note_on_c, 5, 61, 0
7, 508320, Note_on_c, 5, 64, 58
7, 508320, Note_on_c, 5, 61, 58
7, 508704, Note_on_c, 5, 61, 0
7, 508704, Note_on_c, 5, 64, 0
7, 509280, Note_on_c, 5, 57, 58
7, 509280, Note_on_c, 5, 66, 58
7, 509664, Note_on_c, 5, 66, 0
7, 509664, Note_on_c, 5, 57, 0
7, 509760, Note_on_c, 5, 66, 58
7, 509760, Note_on_c, 5, 57, 58
7, 510144, Note_on_c, 5, 57, 0
7, 510144, Note_on_c, 5, 66, 0
7, 510240, Note_on_c, 5, 66, 58
7, 510240, Note_on_c, 5, 57, 58
7, 510624, Note_on_c, 5, 57, 0
7, 510624, Note_on_c, 5, 66, 0
7, 511200, Note_on_c, 5, 57, 58
7, 511200, Note_on_c, 5, 66, 58
7, 511584, Note_on_c, 5, 66, 0
7, 511584, Note_on_c, 5, 57, 0
7, 511680, Note_on_c, 5, 66, 58
7, 511680, Note_on_c, 5, 57, 58
7, 512064, Note_on_c, 5, 57, 0
7, 512064, Note_on_c, 5, 66, 0
7, 512160, Note_on_c, 5, 57, 58
7, 512160, Note_on_c, 5, 66, 58
7, 512544, Note_on_c, 5, 66, 0
7, 512544, Note_on_c, 5, 57, 0
7, 513120, Note_on_c, 5, 55, 58
7, 513120, Note_on_c, 5, 65, 58
7, 513504, Note_on_c, 5, 65, 0
7, 513504, Note_on_c, 5, 55, 0
7, 513600, Note_on_c, 5, 65, 58
7, 513600, Note_on_c, 5, 55, 58
7, 513984, Note_on_c, 5, 55, 0
7, 513984, Note_on_c, 5, 65, 0
7, 514080, Note_on_c, 5, 65, 58
7, 514080, Note_on_c, 5, 55, 58
7, 514464, Note_on_c, 5, 55, 0
7, 514464, Note_on_c, 5, 65, 0
7, 515040, Note_on_c, 5, 65, 58
7, 515040, Note_on_c, 5, 55, 58
7, 515424, Note_on_c, 5, 55, 0
7, 515424, Note_on_c, 5, 65, 0
7, 515520, Note_on_c, 5, 65, 58
7, 515520, Note_on_c, 5, 55, 58
7, 515904, Note_on_c, 5, 55, 0
7, 515904, Note_on_c, 5, 65, 0
7, 516000, Note_on_c, 5, 65, 58
7, 516000, Note_on_c, 5, 55, 58
7, 516384, Note_on_c, 5, 55, 0
7, 516384, Note_on_c, 5, 65, 0
7, 516960, Note_on_c, 5, 55, 58
7, 516960, Note_on_c, 5, 64, 58
7, 517344, Note_on_c, 5, 64, 0
7, 517344, Note_on_c, 5, 55, 0
7, 517440, Note_on_c, 5, 64, 58
7, 517440, Note_on_c, 5, 55, 58
7, 517824, Note_on_c, 5, 55, 0
7, 517824, Note_on_c, 5, 64, 0
7, 517920, Note_on_c, 5, 55, 58
7, 517920, Note_on_c, 5, 64, 58
7, 518304, Note_on_c, 5, 64, 0
7, 518304, Note_on_c, 5, 55, 0
7, 518880, Note_on_c, 5, 58, 58
7, 519264, Note_on_c, 5, 58, 0
7, 519360, Note_on_c, 5, 58, 58
7, 519744, Note_on_c, 5, 58, 0
7, 519840, Note_on_c, 5, 55, 58
7, 520224, Note_on_c, 5, 55, 0
7, 520320, Note_on_c, 5, 56, 58
7, 521088, Note_on_c, 5, 56, 0
7, 531360, Note_on_c, 5, 58, 105
7, 531840, Note_on_c, 5, 58, 0
7, 531840, Note_on_c, 5, 63, 105
7, 532128, Note_on_c, 5, 63, 0
7, 532320, Note_on_c, 5, 67, 105
7, 532608, Note_on_c, 5, 67, 0
7, 532800, Note_on_c, 5, 70, 105
7, 533088, Note_on_c, 5, 70, 0
7, 533280, Note_on_c, 5, 75, 105
7, 533568, Note_on_c, 5, 75, 0
7, 533760, Note_on_c, 5, 79, 105
7, 534720, Note_on_c, 5, 79, 0
7, 534720, Note_on_c, 5, 77, 105
7, 535008, Note_on_c, 5, 77, 0
7, 535200, Note_on_c, 5, 75, 105
7, 535488, Note_on_c, 5, 75, 0
7, 535680, Note_on_c, 5, 74, 105
7, 536448, Note_on_c, 5, 74, 0
7, 537120, Note_on_c, 5, 77, 105
7, 537408, Note_on_c, 5, 77, 0
7, 537600, Note_on_c, 5, 70, 105
7, 538368, Note_on_c, 5, 70, 0
7, 539040, Note_on_c, 5, 74, 105
7, 539328, Note_on_c, 5, 74, 0
7, 539520, Note_on_c, 5, 75, 105
7, 539712, Note_on_c, 5, 75, 0
7, 539760, Note_on_c, 5, 79, 105
7, 539952, Note_on_c, 5, 79, 0
7, 540000, Note_on_c, 5, 82, 105
7, 540192, Note_on_c, 5, 82, 0
7, 540240, Note_on_c, 5, 80, 105
7, 540432, Note_on_c, 5, 80, 0
7, 540480, Note_on_c, 5, 79, 105
7, 540672, Note_on_c, 5, 79, 0
7, 540720, Note_on_c, 5, 77, 105
7, 540912, Note_on_c, 5, 77, 0
7, 540960, Note_on_c, 5, 75, 105
7, 541152, Note_on_c, 5, 75, 0
7, 541200, Note_on_c, 5, 74, 105
7, 541392, Note_on_c, 5, 74, 0
7, 541440, Note_on_c, 5, 72, 105
7, 542208, Note_on_c, 5, 72, 0
7, 542880, Note_on_c, 5, 75, 105
7, 543264, Note_on_c, 5, 75, 0
7, 543360, Note_on_c, 5, 74, 105
7, 543552, Note_on_c, 5, 74, 0
7, 543600, Note_on_c, 5, 77, 105
7, 543792, Note_on_c, 5, 77, 0
7, 543840, Note_on_c, 5, 80, 105
7, 544032, Note_on_c, 5, 80, 0
7, 544080, Note_on_c, 5, 79, 105
7, 544272, Note_on_c, 5, 79, 0
7, 544320, Note_on_c, 5, 77, 105
7, 544512, Note_on_c, 5, 77, 0
7, 544560, Note_on_c, 5, 75, 105
7, 544752, Note_on_c, 5, 75, 0
7, 544800, Note_on_c, 5, 74, 105
7, 544992, Note_on_c, 5, 74, 0
7, 545040, Note_on_c, 5, 72, 105
7, 545232, Note_on_c, 5, 72, 0
7, 545280, Note_on_c, 5, 71, 105
7, 546048, Note_on_c, 5, 71, 0
7, 548640, Note_on_c, 5, 63, 127
7, 549120, Note_on_c, 5, 63, 0
7, 549120, Note_on_c, 5, 66, 116
7, 549408, Note_on_c, 5, 66, 0
7, 549600, Note_on_c, 5, 69, 116
7, 549888, Note_on_c, 5, 69, 0
7, 550080, Note_on_c, 5, 74, 116
7, 550368, Note_on_c, 5, 74, 0
7, 550560, Note_on_c, 5, 78, 116
7, 550848, Note_on_c, 5, 78, 0
7, 551040, Note_on_c, 5, 79, 116
7, 551328, Note_on_c, 5, 79, 0
7, 551520, Note_on_c, 5, 62, 116
7, 551808, Note_on_c, 5, 62, 0
7, 552000, Note_on_c, 5, 67, 116
7, 553152, Note_on_c, 5, 67, 0
7, 553200, Note_on_c, 5, 65, 116
7, 553392, Note_on_c, 5, 65, 0
7, 553440, Note_on_c, 5, 64, 116
7, 553632, Note_on_c, 5, 64, 0
7, 553680, Note_on_c, 5, 62, 116
7, 553872, Note_on_c, 5, 62, 0
7, 553920, Note_on_c, 5, 61, 116
7, 554304, Note_on_c, 5, 61, 0
7, 554400, Note_on_c, 5, 64, 116
7, 554784, Note_on_c, 5, 64, 0
7, 554880, Note_on_c, 5, 62, 92
7, 555648, Note_on_c, 5, 62, 0
7, 556320, Note_on_c, 5, 65, 125
7, 556800, Note_on_c, 5, 65, 0
7, 556800, Note_on_c, 5, 68, 105
7, 557088, Note_on_c, 5, 68, 0
7, 557280, Note_on_c, 5, 71, 105
7, 557568, Note_on_c, 5, 71, 0
7, 557760, Note_on_c, 5, 76, 105
7, 558048, Note_on_c, 5, 76, 0
7, 558240, Note_on_c, 5, 80, 105
7, 558528, Note_on_c, 5, 80, 0
7, 558720, Note_on_c, 5, 81, 105
7, 559008, Note_on_c, 5, 81, 0
7, 559200, Note_on_c, 5, 64, 105
7, 559488, Note_on_c, 5, 64, 0
7, 559680, Note_on_c, 5, 69, 105
7, 560784, Note_on_c, 5, 69, 0
7, 560880, Note_on_c, 5, 67, 105
7, 561024, Note_on_c, 5, 67, 0
7, 561120, Note_on_c, 5, 66, 105
7, 561264, Note_on_c, 5, 66, 0
7, 561360, Note_on_c, 5, 64, 105
7, 561504, Note_on_c, 5, 64, 0
7, 561600, Note_on_c, 5, 63, 105
7, 561888, Note_on_c, 5, 63, 0
7, 562080, Note_on_c, 5, 66, 105
7, 562368, Note_on_c, 5, 66, 0
7, 562560, Note_on_c, 5, 64, 105
7, 562944, Note_on_c, 5, 64, 0
7, 563040, Note_on_c, 5, 71, 105
7, 563424, Note_on_c, 5, 71, 0
7, 563520, Note_on_c, 5, 76, 105
7, 564672, Note_on_c, 5, 76, 0
7, 564720, Note_on_c, 5, 74, 105
7, 564912, Note_on_c, 5, 74, 0
7, 564960, Note_on_c, 5, 73, 105
7, 565152, Note_on_c, 5, 73, 0
7, 565200, Note_on_c, 5, 71, 105
7, 565392, Note_on_c, 5, 71, 0
7, 565440, Note_on_c, 5, 70, 105
7, 565824, Note_on_c, 5, 70, 0
7, 565920, Note_on_c, 5, 73, 105
7, 566304, Note_on_c, 5, 73, 0
7, 566400, Note_on_c, 5, 71, 92
7, 567168, Note_on_c, 5, 71, 0
7, 567840, Note_on_c, 5, 62, 125
7, 568320, Note_on_c, 5, 62, 0
7, 568320, Note_on_c, 5, 65, 105
7, 568608, Note_on_c, 5, 65, 0
7, 568800, Note_on_c, 5, 68, 105
7, 569088, Note_on_c, 5, 68, 0
7, 569280, Note_on_c, 5, 73, 105
7, 569568, Note_on_c, 5, 73, 0
7, 569760, Note_on_c, 5, 77, 105
7, 570240, Note_on_c, 5, 77, 0
7, 570240, Note_on_c, 5, 78, 105
7, 570624, Note_on_c, 5, 78, 0
7, 570720, Note_on_c, 5, 61, 105
7, 571104, Note_on_c, 5, 61, 0
7, 571200, Note_on_c, 5, 66, 105
7, 571584, Note_on_c, 5, 66, 0
7, 571680, Note_on_c, 5, 70, 105
7, 572064, Note_on_c, 5, 70, 0
7, 572160, Note_on_c, 5, 73, 105
7, 572352, Note_on_c, 5, 73, 0
7, 572400, Note_on_c, 5, 72, 105
7, 572592, Note_on_c, 5, 72, 0
7, 572640, Note_on_c, 5, 73, 105
7, 572832, Note_on_c, 5, 73, 0
7, 572880, Note_on_c, 5, 75, 105
7, 573072, Note_on_c, 5, 75, 0
7, 573120, Note_on_c, 5, 76, 105
7, 573312, Note_on_c, 5, 76, 0
7, 573360, Note_on_c, 5, 75, 105
7, 573552, Note_on_c, 5, 75, 0
7, 573600, Note_on_c, 5, 76, 105
7, 573792, Note_on_c, 5, 76, 0
7, 573840, Note_on_c, 5, 73, 105
7, 574032, Note_on_c, 5, 73, 0
7, 574080, Note_on_c, 5, 72, 105
7, 574272, Note_on_c, 5, 72, 0
7, 574320, Note_on_c, 5, 68, 105
7, 574512, Note_on_c, 5, 68, 0
7, 574560, Note_on_c, 5, 68, 105
7, 574752, Note_on_c, 5, 68, 0
7, 574800, Note_on_c, 5, 68, 105
7, 574992, Note_on_c, 5, 68, 0
7, 575040, Note_on_c, 5, 68, 105
7, 575232, Note_on_c, 5, 68, 0
7, 575280, Note_on_c, 5, 68, 105
7, 575472, Note_on_c, 5, 68, 0
7, 575520, Note_on_c, 5, 68, 105
7, 575712, Note_on_c, 5, 68, 0
7, 575760, Note_on_c, 5, 68, 105
7, 575952, Note_on_c, 5, 68, 0
7, 576000, Note_on_c, 5, 68, 105
7, 576192, Note_on_c, 5, 68, 0
7, 576240, Note_on_c, 5, 68, 105
7, 576432, Note_on_c, 5, 68, 0
7, 576480, Note_on_c, 5, 68, 105
7, 576672, Note_on_c, 5, 68, 0
7, 576720, Note_on_c, 5, 68, 105
7, 576912, Note_on_c, 5, 68, 0
7, 576960, Note_on_c, 5, 68, 105
7, 577152, Note_on_c, 5, 68, 0
7, 577200, Note_on_c, 5, 68, 105
7, 577392, Note_on_c, 5, 68, 0
7, 577440, Note_on_c, 5, 68, 105
7, 577632, Note_on_c, 5, 68, 0
7, 577680, Note_on_c, 5, 68, 105
7, 577872, Note_on_c, 5, 68, 0
7, 577920, Note_on_c, 5, 68, 105
7, 578112, Note_on_c, 5, 68, 0
7, 578160, Note_on_c, 5, 68, 105
7, 578352, Note_on_c, 5, 68, 0
7, 578400, Note_on_c, 5, 68, 105
7, 578592, Note_on_c, 5, 68, 0
7, 578640, Note_on_c, 5, 68, 105
7, 578832, Note_on_c, 5, 68, 0
7, 578880, Note_on_c, 5, 68, 105
7, 579072, Note_on_c, 5, 68, 0
7, 579120, Note_on_c, 5, 68, 105
7, 579312, Note_on_c, 5, 68, 0
7, 579360, Note_on_c, 5, 68, 105
7, 579552, Note_on_c, 5, 68, 0
7, 579600, Note_on_c, 5, 68, 105
7, 579792, Note_on_c, 5, 68, 0
7, 579840, Note_on_c, 5, 68, 105
7, 580032, Note_on_c, 5, 68, 0
7, 580080, Note_on_c, 5, 68, 105
7, 580272, Note_on_c, 5, 68, 0
7, 580320, Note_on_c, 5, 68, 105
7, 580512, Note_on_c, 5, 68, 0
7, 580560, Note_on_c, 5, 68, 105
7, 580752, Note_on_c, 5, 68, 0
7, 580800, Note_on_c, 5, 68, 105
7, 580992, Note_on_c, 5, 68, 0
7, 581040, Note_on_c, 5, 68, 105
7, 581232, Note_on_c, 5, 68, 0
7, 581280, Note_on_c, 5, 68, 105
7, 581472, Note_on_c, 5, 68, 0
7, 581520, Note_on_c, 5, 68, 105
7, 581712, Note_on_c, 5, 68, 0
7, 581760, Note_on_c, 5, 68, 105
7, 581952, Note_on_c, 5, 68, 0
7, 582000, Note_on_c, 5, 68, 105
7, 582192, Note_on_c, 5, 68, 0
7, 582240, Note_on_c, 5, 68, 105
7, 582432, Note_on_c, 5, 68, 0
7, 582480, Note_on_c, 5, 68, 105
7, 582672, Note_on_c, 5, 68, 0
7, 582720, Note_on_c, 5, 68, 105
7, 582912, Note_on_c, 5, 68, 0
7, 582960, Note_on_c, 5, 68, 105
7, 583152, Note_on_c, 5, 68, 0
7, 583200, Note_on_c, 5, 68, 105
7, 583392, Note_on_c, 5, 68, 0
7, 583440, Note_on_c, 5, 68, 105
7, 583632, Note_on_c, 5, 68, 0
7, 583680, Note_on_c, 5, 68, 105
7, 583872, Note_on_c, 5, 68, 0
7, 583920, Note_on_c, 5, 68, 105
7, 584112, Note_on_c, 5, 68, 0
7, 584160, Note_on_c, 5, 68, 105
7, 584352, Note_on_c, 5, 68, 0
7, 584400, Note_on_c, 5, 68, 105
7, 584592, Note_on_c, 5, 68, 0
7, 584640, Note_on_c, 5, 68, 105
7, 584832, Note_on_c, 5, 68, 0
7, 584880, Note_on_c, 5, 68, 105
7, 585072, Note_on_c, 5, 68, 0
7, 585120, Note_on_c, 5, 68, 105
7, 585312, Note_on_c, 5, 68, 0
7, 585360, Note_on_c, 5, 68, 105
7, 585552, Note_on_c, 5, 68, 0
7, 585600, Note_on_c, 5, 68, 105
7, 585792, Note_on_c, 5, 68, 0
7, 585840, Note_on_c, 5, 68, 105
7, 586032, Note_on_c, 5, 68, 0
7, 586080, Note_on_c, 5, 68, 105
7, 586272, Note_on_c, 5, 68, 0
7, 586320, Note_on_c, 5, 68, 105
7, 586512, Note_on_c, 5, 68, 0
7, 586560, Note_on_c, 5, 68, 105
7, 586752, Note_on_c, 5, 68, 0
7, 586800, Note_on_c, 5, 68, 105
7, 586992, Note_on_c, 5, 68, 0
7, 587040, Note_on_c, 5, 68, 105
7, 587232, Note_on_c, 5, 68, 0
7, 587280, Note_on_c, 5, 68, 105
7, 587472, Note_on_c, 5, 68, 0
7, 587520, Note_on_c, 5, 69, 105
7, 587712, Note_on_c, 5, 69, 0
7, 587760, Note_on_c, 5, 69, 105
7, 587952, Note_on_c, 5, 69, 0
7, 588000, Note_on_c, 5, 69, 105
7, 588192, Note_on_c, 5, 69, 0
7, 588240, Note_on_c, 5, 69, 105
7, 588432, Note_on_c, 5, 69, 0
7, 588480, Note_on_c, 5, 69, 105
7, 588672, Note_on_c, 5, 69, 0
7, 588720, Note_on_c, 5, 69, 105
7, 588912, Note_on_c, 5, 69, 0
7, 588960, Note_on_c, 5, 69, 105
7, 589152, Note_on_c, 5, 69, 0
7, 589200, Note_on_c, 5, 69, 105
7, 589392, Note_on_c, 5, 69, 0
7, 589440, Note_on_c, 5, 68, 105
7, 589632, Note_on_c, 5, 68, 0
7, 589680, Note_on_c, 5, 68, 105
7, 589872, Note_on_c, 5, 68, 0
7, 589920, Note_on_c, 5, 68, 105
7, 590112, Note_on_c, 5, 68, 0
7, 590160, Note_on_c, 5, 68, 105
7, 590352, Note_on_c, 5, 68, 0
7, 590400, Note_on_c, 5, 68, 105
7, 590592, Note_on_c, 5, 68, 0
7, 590640, Note_on_c, 5, 68, 105
7, 590832, Note_on_c, 5, 68, 0
7, 590880, Note_on_c, 5, 68, 105
7, 591072, Note_on_c, 5, 68, 0
7, 591120, Note_on_c, 5, 68, 105
7, 591312, Note_on_c, 5, 68, 0
7, 591360, Note_on_c, 5, 66, 105
7, 591552, Note_on_c, 5, 66, 0
7, 591600, Note_on_c, 5, 66, 105
7, 591792, Note_on_c, 5, 66, 0
7, 591840, Note_on_c, 5, 66, 105
7, 592032, Note_on_c, 5, 66, 0
7, 592080, Note_on_c, 5, 66, 105
7, 592272, Note_on_c, 5, 66, 0
7, 592320, Note_on_c, 5, 66, 105
7, 592512, Note_on_c, 5, 66, 0
7, 592560, Note_on_c, 5, 66, 105
7, 592752, Note_on_c, 5, 66, 0
7, 592800, Note_on_c, 5, 66, 105
7, 592992, Note_on_c, 5, 66, 0
7, 593040, Note_on_c, 5, 66, 105
7, 593232, Note_on_c, 5, 66, 0
7, 593280, Note_on_c, 5, 64, 105
7, 593664, Note_on_c, 5, 64, 0
7, 594240, Note_on_c, 5, 73, 105
7, 594624, Note_on_c, 5, 73, 0
7, 595200, Note_on_c, 5, 63, 105
7, 595584, Note_on_c, 5, 63, 0
7, 596160, Note_on_c, 5, 72, 105
7, 596544, Note_on_c, 5, 72, 0
7, 597120, Note_on_c, 5, 73, 105
7, 597504, Note_on_c, 5, 73, 0
7, 599040, Note_on_c, 5, 63, 58
7, 600960, Note_on_c, 5, 63, 0
7, 600960, Note_on_c, 5, 61, 58
7, 602880, Note_on_c, 5, 61, 0
7, 602880, Note_on_c, 5, 60, 58
7, 604032, Note_on_c, 5, 60, 0
7, 604320, Note_on_c, 5, 56, 125
7, 604800, Note_on_c, 5, 56, 0
7, 604800, Note_on_c, 5, 61, 105
7, 605088, Note_on_c, 5, 61, 0
7, 605280, Note_on_c, 5, 65, 105
7, 605568, Note_on_c, 5, 65, 0
7, 605760, Note_on_c, 5, 66, 105
7, 606048, Note_on_c, 5, 66, 0
7, 606240, Note_on_c, 5, 69, 105
7, 606528, Note_on_c, 5, 69, 0
7, 606720, Note_on_c, 5, 74, 105
7, 607680, Note_on_c, 5, 74, 0
7, 607680, Note_on_c, 5, 73, 105
7, 607968, Note_on_c, 5, 73, 0
7, 608160, Note_on_c, 5, 71, 105
7, 608448, Note_on_c, 5, 71, 0
7, 608640, Note_on_c, 5, 70, 105
7, 609024, Note_on_c, 5, 70, 0
7, 609600, Note_on_c, 5, 74, 105
7, 609600, Note_on_c, 5, 66, 105
7, 609984, Note_on_c, 5, 66, 0
7, 609984, Note_on_c, 5, 74, 0
7, 610560, Note_on_c, 5, 70, 105
7, 610560, Note_on_c, 5, 61, 105
7, 611328, Note_on_c, 5, 61, 0
7, 611328, Note_on_c, 5, 70, 0
7, 612000, Note_on_c, 5, 66, 105
7, 612480, Note_on_c, 5, 66, 0
7, 612480, Note_on_c, 5, 59, 105
7, 612768, Note_on_c, 5, 59, 0
7, 612960, Note_on_c, 5, 63, 105
7, 613248, Note_on_c, 5, 63, 0
7, 613440, Note_on_c, 5, 64, 105
7, 613728, Note_on_c, 5, 64, 0
7, 613920, Note_on_c, 5, 67, 105
7, 614208, Note_on_c, 5, 67, 0
7, 614400, Note_on_c, 5, 72, 105
7, 615360, Note_on_c, 5, 72, 0
7, 615360, Note_on_c, 5, 71, 105
7, 615648, Note_on_c, 5, 71, 0
7, 615840, Note_on_c, 5, 69, 105
7, 616128, Note_on_c, 5, 69, 0
7, 616320, Note_on_c, 5, 68, 105
7, 616704, Note_on_c, 5, 68, 0
7, 617280, Note_on_c, 5, 84, 105
7, 617280, Note_on_c, 5, 76, 105
7, 617664, Note_on_c, 5, 76, 0
7, 617664, Note_on_c, 5, 84, 0
7, 618240, Note_on_c, 5, 59, 105
7, 618240, Note_on_c, 5, 68, 105
7, 619008, Note_on_c, 5, 68, 0
7, 619008, Note_on_c, 5, 59, 0
7, 619680, Note_on_c, 5, 64, 105
7, 620160, Note_on_c, 5, 64, 0
7, 620160, Note_on_c, 5, 57, 105
7, 620448, Note_on_c, 5, 57, 0
7, 620640, Note_on_c, 5, 61, 105
7, 620928, Note_on_c, 5, 61, 0
7, 621120, Note_on_c, 5, 62, 105
7, 621408, Note_on_c, 5, 62, 0
7, 621600, Note_on_c, 5, 65, 105
7, 621888, Note_on_c, 5, 65, 0
7, 622080, Note_on_c, 5, 70, 105
7, 623040, Note_on_c, 5, 70, 0
7, 623040, Note_on_c, 5, 69, 105
7, 623328, Note_on_c, 5, 69, 0
7, 623520, Note_on_c, 5, 67, 105
7, 623808, Note_on_c, 5, 67, 0
7, 624000, Note_on_c, 5, 66, 105
7, 624384, Note_on_c, 5, 66, 0
7, 624960, Note_on_c, 5, 82, 105
7, 624960, Note_on_c, 5, 74, 105
7, 624960, Note_on_c, 5, 67, 105
7, 625344, Note_on_c, 5, 67, 0
7, 625344, Note_on_c, 5, 74, 0
7, 625344, Note_on_c, 5, 82, 0
7, 625920, Note_on_c, 5, 57, 105
7, 625920, Note_on_c, 5, 66, 112
7, 627456, Note_on_c, 5, 66, 0
7, 627456, Note_on_c, 5, 57, 0
7, 627840, Note_on_c, 5, 57, 92
7, 627840, Note_on_c, 5, 66, 112
7, 628992, Note_on_c, 5, 66, 0
7, 628992, Note_on_c, 5, 57, 0
7, 629280, Note_on_c, 5, 67, 105
7, 629472, Note_on_c, 5, 67, 0
7, 629520, Note_on_c, 5, 67, 105
7, 629712, Note_on_c, 5, 67, 0
7, 629760, Note_on_c, 5, 66, 105
7, 629952, Note_on_c, 5, 66, 0
7, 630000, Note_on_c, 5, 66, 105
7, 630192, Note_on_c, 5, 66, 0
7, 630240, Note_on_c, 5, 67, 105
7, 630432, Note_on_c, 5, 67, 0
7, 630480, Note_on_c, 5, 67, 105
7, 630672, Note_on_c, 5, 67, 0
7, 630720, Note_on_c, 5, 69, 105
7, 630912, Note_on_c, 5, 69, 0
7, 630960, Note_on_c, 5, 69, 105
7, 631152, Note_on_c, 5, 69, 0
7, 631200, Note_on_c, 5, 70, 105
7, 631392, Note_on_c, 5, 70, 0
7, 631440, Note_on_c, 5, 70, 105
7, 631632, Note_on_c, 5, 70, 0
7, 631680, Note_on_c, 5, 72, 105
7, 632064, Note_on_c, 5, 72, 0
7, 636000, Note_on_c, 5, 67, 58
7, 636384, Note_on_c, 5, 67, 0
7, 636480, Note_on_c, 5, 67, 58
7, 636864, Note_on_c, 5, 67, 0
7, 636960, Note_on_c, 5, 67, 58
7, 637344, Note_on_c, 5, 67, 0
7, 637920, Note_on_c, 5, 64, 58
7, 638304, Note_on_c, 5, 64, 0
7, 638400, Note_on_c, 5, 64, 58
7, 638784, Note_on_c, 5, 64, 0
7, 638880, Note_on_c, 5, 73, 92
7, 639072, Note_on_c, 5, 73, 0
7, 639120, Note_on_c, 5, 76, 92
7, 639312, Note_on_c, 5, 76, 0
7, 639360, Note_on_c, 5, 74, 92
7, 639600, Note_on_c, 5, 74, 0
7, 639600, Note_on_c, 5, 78, 92
7, 639744, Note_on_c, 5, 78, 0
7, 639840, Note_on_c, 5, 76, 92
7, 639984, Note_on_c, 5, 76, 0
7, 640080, Note_on_c, 5, 73, 92
7, 640224, Note_on_c, 5, 73, 0
7, 640320, Note_on_c, 5, 74, 92
7, 640560, Note_on_c, 5, 74, 0
7, 640560, Note_on_c, 5, 78, 92
7, 640704, Note_on_c, 5, 78, 0
7, 640800, Note_on_c, 5, 76, 92
7, 640944, Note_on_c, 5, 76, 0
7, 641040, Note_on_c, 5, 73, 92
7, 641184, Note_on_c, 5, 73, 0
7, 641280, Note_on_c, 5, 74, 92
7, 642048, Note_on_c, 5, 74, 0
7, 643680, Note_on_c, 5, 63, 58
7, 644064, Note_on_c, 5, 63, 0
7, 644160, Note_on_c, 5, 63, 58
7, 644544, Note_on_c, 5, 63, 0
7, 644640, Note_on_c, 5, 63, 58
7, 645024, Note_on_c, 5, 63, 0
7, 645600, Note_on_c, 5, 66, 58
7, 645984, Note_on_c, 5, 66, 0
7, 646080, Note_on_c, 5, 66, 58
7, 646464, Note_on_c, 5, 66, 0
7, 646560, Note_on_c, 5, 69, 105
7, 646704, Note_on_c, 5, 69, 0
7, 646800, Note_on_c, 5, 72, 105
7, 646944, Note_on_c, 5, 72, 0
7, 647040, Note_on_c, 5, 70, 105
7, 647280, Note_on_c, 5, 70, 0
7, 647280, Note_on_c, 5, 74, 105
7, 647424, Note_on_c, 5, 74, 0
7, 647520, Note_on_c, 5, 72, 105
7, 647664, Note_on_c, 5, 72, 0
7, 647760, Note_on_c, 5, 69, 105
7, 647904, Note_on_c, 5, 69, 0
7, 648000, Note_on_c, 5, 70, 105
7, 648240, Note_on_c, 5, 70, 0
7, 648240, Note_on_c, 5, 74, 105
7, 648384, Note_on_c, 5, 74, 0
7, 648480, Note_on_c, 5, 72, 105
7, 648624, Note_on_c, 5, 72, 0
7, 648720, Note_on_c, 5, 69, 105
7, 648864, Note_on_c, 5, 69, 0
7, 648960, Note_on_c, 5, 70, 105
7, 649728, Note_on_c, 5, 70, 0
7, 650400, Note_on_c, 5, 74, 105
7, 650688, Note_on_c, 5, 74, 0
7, 650880, Note_on_c, 5, 74, 105
7, 651264, Note_on_c, 5, 74, 0
7, 651360, Note_on_c, 5, 69, 70
7, 651744, Note_on_c, 5, 69, 0
7, 651840, Note_on_c, 5, 69, 70
7, 652224, Note_on_c, 5, 69, 0
7, 652320, Note_on_c, 5, 69, 70
7, 652704, Note_on_c, 5, 69, 0
7, 652800, Note_on_c, 5, 70, 70
7, 653280, Note_on_c, 5, 70, 0
7, 653280, Note_on_c, 5, 69, 70
7, 653664, Note_on_c, 5, 69, 0
7, 653760, Note_on_c, 5, 69, 70
7, 654144, Note_on_c, 5, 69, 0
7, 654240, Note_on_c, 5, 74, 105
7, 654528, Note_on_c, 5, 74, 0
7, 654720, Note_on_c, 5, 74, 105
7, 655104, Note_on_c, 5, 74, 0
7, 655200, Note_on_c, 5, 69, 70
7, 655584, Note_on_c, 5, 69, 0
7, 655680, Note_on_c, 5, 69, 70
7, 656064, Note_on_c, 5, 69, 0
7, 656160, Note_on_c, 5, 69, 70
7, 656544, Note_on_c, 5, 69, 0
7, 656640, Note_on_c, 5, 70, 70
7, 657120, Note_on_c, 5, 70, 0
7, 657120, Note_on_c, 5, 69, 70
7, 657504, Note_on_c, 5, 69, 0
7, 657600, Note_on_c, 5, 69, 70
7, 657984, Note_on_c, 5, 69, 0
7, 659040, Note_on_c, 5, 63, 58
7, 659424, Note_on_c, 5, 63, 0
7, 659520, Note_on_c, 5, 63, 58
7, 659904, Note_on_c, 5, 63, 0
7, 660000, Note_on_c, 5, 63, 58
7, 660384, Note_on_c, 5, 63, 0
7, 660960, Note_on_c, 5, 66, 58
7, 661344, Note_on_c, 5, 66, 0
7, 661440, Note_on_c, 5, 66, 58
7, 661824, Note_on_c, 5, 66, 0
7, 661920, Note_on_c, 5, 69, 58
7, 662064, Note_on_c, 5, 69, 0
7, 662160, Note_on_c, 5, 72, 105
7, 662304, Note_on_c, 5, 72, 0
7, 662400, Note_on_c, 5, 70, 105
7, 662640, Note_on_c, 5, 70, 0
7, 662640, Note_on_c, 5, 74, 105
7, 662784, Note_on_c, 5, 74, 0
7, 662880, Note_on_c, 5, 72, 105
7, 663024, Note_on_c, 5, 72, 0
7, 663120, Note_on_c, 5, 69, 105
7, 663264, Note_on_c, 5, 69, 0
7, 663360, Note_on_c, 5, 70, 105
7, 663600, Note_on_c, 5, 70, 0
7, 663600, Note_on_c, 5, 74, 105
7, 663744, Note_on_c, 5, 74, 0
7, 663840, Note_on_c, 5, 72, 105
7, 663984, Note_on_c, 5, 72, 0
7, 664080, Note_on_c, 5, 69, 105
7, 664224, Note_on_c, 5, 69, 0
7, 664320, Note_on_c, 5, 70, 105
7, 664704, Note_on_c, 5, 70, 0
7, 664800, Note_on_c, 5, 82, 105
7, 664992, Note_on_c, 5, 82, 0
7, 665040, Note_on_c, 5, 81, 105
7, 665232, Note_on_c, 5, 81, 0
7, 665280, Note_on_c, 5, 79, 105
7, 665472, Note_on_c, 5, 79, 0
7, 665520, Note_on_c, 5, 77, 105
7, 665712, Note_on_c, 5, 77, 0
7, 665760, Note_on_c, 5, 75, 105
7, 665952, Note_on_c, 5, 75, 0
7, 666000, Note_on_c, 5, 74, 105
7, 666192, Note_on_c, 5, 74, 0
7, 666240, Note_on_c, 5, 72, 105
7, 666480, Note_on_c, 5, 72, 0
7, 666480, Note_on_c, 5, 75, 105
7, 666624, Note_on_c, 5, 75, 0
7, 666720, Note_on_c, 5, 74, 105
7, 666864, Note_on_c, 5, 74, 0
7, 666960, Note_on_c, 5, 71, 105
7, 667104, Note_on_c, 5, 71, 0
7, 667200, Note_on_c, 5, 72, 105
7, 667440, Note_on_c, 5, 72, 0
7, 667440, Note_on_c, 5, 75, 105
7, 667584, Note_on_c, 5, 75, 0
7, 667680, Note_on_c, 5, 74, 105
7, 667824, Note_on_c, 5, 74, 0
7, 667920, Note_on_c, 5, 71, 105
7, 668064, Note_on_c, 5, 71, 0
7, 668160, Note_on_c, 5, 72, 105
7, 668352, Note_on_c, 5, 72, 0
7, 668400, Note_on_c, 5, 67, 105
7, 668592, Note_on_c, 5, 67, 0
7, 668640, Note_on_c, 5, 75, 105
7, 668832, Note_on_c, 5, 75, 0
7, 668880, Note_on_c, 5, 74, 105
7, 669072, Note_on_c, 5, 74, 0
7, 669120, Note_on_c, 5, 72, 105
7, 669312, Note_on_c, 5, 72, 0
7, 669360, Note_on_c, 5, 70, 105
7, 669552, Note_on_c, 5, 70, 0
7, 669600, Note_on_c, 5, 69, 105
7, 669792, Note_on_c, 5, 69, 0
7, 669840, Note_on_c, 5, 67, 105
7, 670032, Note_on_c, 5, 67, 0
7, 670080, Note_on_c, 5, 65, 105
7, 670320, Note_on_c, 5, 65, 0
7, 670320, Note_on_c, 5, 68, 105
7, 670464, Note_on_c, 5, 68, 0
7, 670560, Note_on_c, 5, 67, 105
7, 670704, Note_on_c, 5, 67, 0
7, 670800, Note_on_c, 5, 63, 105
7, 670944, Note_on_c, 5, 63, 0
7, 671040, Note_on_c, 5, 65, 105
7, 671280, Note_on_c, 5, 65, 0
7, 671280, Note_on_c, 5, 68, 105
7, 671424, Note_on_c, 5, 68, 0
7, 671520, Note_on_c, 5, 67, 105
7, 671664, Note_on_c, 5, 67, 0
7, 671760, Note_on_c, 5, 63, 105
7, 671904, Note_on_c, 5, 63, 0
7, 672000, Note_on_c, 5, 65, 105
7, 672192, Note_on_c, 5, 65, 0
7, 672240, Note_on_c, 5, 62, 105
7, 672432, Note_on_c, 5, 62, 0
7, 672480, Note_on_c, 5, 68, 105
7, 672672, Note_on_c, 5, 68, 0
7, 672720, Note_on_c, 5, 67, 105
7, 672912, Note_on_c, 5, 67, 0
7, 672960, Note_on_c, 5, 65, 105
7, 673152, Note_on_c, 5, 65, 0
7, 673200, Note_on_c, 5, 63, 105
7, 673392, Note_on_c, 5, 63, 0
7, 673440, Note_on_c, 5, 62, 105
7, 673632, Note_on_c, 5, 62, 0
7, 673680, Note_on_c, 5, 60, 105
7, 673872, Note_on_c, 5, 60, 0
7, 673920, Note_on_c, 5, 59, 105
7, 674160, Note_on_c, 5, 59, 0
7, 674160, Note_on_c, 5, 62, 105
7, 674304, Note_on_c, 5, 62, 0
7, 674400, Note_on_c, 5, 60, 105
7, 674544, Note_on_c, 5, 60, 0
7, 674640, Note_on_c, 5, 57, 105
7, 674784, Note_on_c, 5, 57, 0
7, 674880, Note_on_c, 5, 59, 105
7, 675120, Note_on_c, 5, 59, 0
7, 675120, Note_on_c, 5, 62, 105
7, 675264, Note_on_c, 5, 62, 0
7, 675360, Note_on_c, 5, 60, 105
7, 675504, Note_on_c, 5, 60, 0
7, 675600, Note_on_c, 5, 57, 105
7, 675744, Note_on_c, 5, 57, 0
7, 675840, Note_on_c, 5, 59, 105
7, 676032, Note_on_c, 5, 59, 0
7, 676080, Note_on_c, 5, 62, 105
7, 676272, Note_on_c, 5, 62, 0
7, 676320, Note_on_c, 5, 67, 105
7, 676512, Note_on_c, 5, 67, 0
7, 676560, Note_on_c, 5, 71, 105
7, 676752, Note_on_c, 5, 71, 0
7, 676800, Note_on_c, 5, 74, 105
7, 676992, Note_on_c, 5, 74, 0
7, 677040, Note_on_c, 5, 71, 105
7, 677232, Note_on_c, 5, 71, 0
7, 677280, Note_on_c, 5, 67, 105
7, 677472, Note_on_c, 5, 67, 0
7, 677520, Note_on_c, 5, 65, 105
7, 677712, Note_on_c, 5, 65, 0
7, 677760, Note_on_c, 5, 63, 105
7, 678048, Note_on_c, 5, 63, 0
7, 678240, Note_on_c, 5, 67, 105
7, 678528, Note_on_c, 5, 67, 0
7, 678720, Note_on_c, 5, 67, 105
7, 679008, Note_on_c, 5, 67, 0
7, 679200, Note_on_c, 5, 67, 105
7, 679488, Note_on_c, 5, 67, 0
7, 679680, Note_on_c, 5, 67, 105
7, 680448, Note_on_c, 5, 67, 0
7, 681600, Note_on_c, 5, 66, 105
7, 681888, Note_on_c, 5, 66, 0
7, 682080, Note_on_c, 5, 67, 105
7, 682368, Note_on_c, 5, 67, 0
7, 682560, Note_on_c, 5, 66, 105
7, 682848, Note_on_c, 5, 66, 0
7, 683040, Note_on_c, 5, 67, 105
7, 683328, Note_on_c, 5, 67, 0
7, 683520, Note_on_c, 5, 66, 105
7, 684288, Note_on_c, 5, 66, 0
7, 685440, Note_on_c, 5, 62, 105
7, 685440, Note_on_c, 5, 72, 105
7, 685728, Note_on_c, 5, 72, 0
7, 685728, Note_on_c, 5, 62, 0
7, 685920, Note_on_c, 5, 72, 105
7, 685920, Note_on_c, 5, 63, 105
7, 686208, Note_on_c, 5, 63, 0
7, 686208, Note_on_c, 5, 72, 0
7, 686400, Note_on_c, 5, 72, 105
7, 686400, Note_on_c, 5, 62, 105
7, 686688, Note_on_c, 5, 62, 0
7, 686688, Note_on_c, 5, 72, 0
7, 686880, Note_on_c, 5, 72, 105
7, 686880, Note_on_c, 5, 63, 105
7, 687168, Note_on_c, 5, 63, 0
7, 687168, Note_on_c, 5, 72, 0
7, 687360, Note_on_c, 5, 72, 105
7, 687360, Note_on_c, 5, 62, 105
7, 688128, Note_on_c, 5, 62, 0
7, 688128, Note_on_c, 5, 72, 0
7, 689280, Note_on_c, 5, 70, 105
7, 689520, Note_on_c, 5, 70, 0
7, 689520, Note_on_c, 5, 72, 105
7, 689664, Note_on_c, 5, 72, 0
7, 689760, Note_on_c, 5, 69, 105
7, 689904, Note_on_c, 5, 69, 0
7, 690000, Note_on_c, 5, 72, 105
7, 690144, Note_on_c, 5, 72, 0
7, 690240, Note_on_c, 5, 70, 105
7, 690480, Note_on_c, 5, 70, 0
7, 690480, Note_on_c, 5, 72, 105
7, 690624, Note_on_c, 5, 72, 0
7, 690720, Note_on_c, 5, 69, 105
7, 690864, Note_on_c, 5, 69, 0
7, 690960, Note_on_c, 5, 72, 105
7, 691104, Note_on_c, 5, 72, 0
7, 691200, Note_on_c, 5, 70, 105
7, 691392, Note_on_c, 5, 70, 0
7, 691440, Note_on_c, 5, 72, 105
7, 691632, Note_on_c, 5, 72, 0
7, 691680, Note_on_c, 5, 74, 105
7, 691872, Note_on_c, 5, 74, 0
7, 691920, Note_on_c, 5, 72, 105
7, 692112, Note_on_c, 5, 72, 0
7, 692160, Note_on_c, 5, 70, 105
7, 692352, Note_on_c, 5, 70, 0
7, 692400, Note_on_c, 5, 69, 105
7, 692592, Note_on_c, 5, 69, 0
7, 692640, Note_on_c, 5, 67, 105
7, 692832, Note_on_c, 5, 67, 0
7, 692880, Note_on_c, 5, 66, 105
7, 693072, Note_on_c, 5, 66, 0
7, 693120, Note_on_c, 5, 67, 105
7, 693360, Note_on_c, 5, 67, 0
7, 693360, Note_on_c, 5, 69, 105
7, 693504, Note_on_c, 5, 69, 0
7, 693600, Note_on_c, 5, 66, 105
7, 693744, Note_on_c, 5, 66, 0
7, 693840, Note_on_c, 5, 69, 105
7, 693984, Note_on_c, 5, 69, 0
7, 694080, Note_on_c, 5, 67, 105
7, 694320, Note_on_c, 5, 67, 0
7, 694320, Note_on_c, 5, 69, 105
7, 694464, Note_on_c, 5, 69, 0
7, 694560, Note_on_c, 5, 66, 105
7, 694704, Note_on_c, 5, 66, 0
7, 694800, Note_on_c, 5, 69, 105
7, 694944, Note_on_c, 5, 69, 0
7, 695040, Note_on_c, 5, 67, 105
7, 695232, Note_on_c, 5, 67, 0
7, 695280, Note_on_c, 5, 69, 105
7, 695472, Note_on_c, 5, 69, 0
7, 695520, Note_on_c, 5, 70, 105
7, 695712, Note_on_c, 5, 70, 0
7, 695760, Note_on_c, 5, 69, 105
7, 695952, Note_on_c, 5, 69, 0
7, 696000, Note_on_c, 5, 67, 105
7, 696192, Note_on_c, 5, 67, 0
7, 696240, Note_on_c, 5, 65, 105
7, 696432, Note_on_c, 5, 65, 0
7, 696480, Note_on_c, 5, 63, 105
7, 696672, Note_on_c, 5, 63, 0
7, 696720, Note_on_c, 5, 62, 105
7, 696912, Note_on_c, 5, 62, 0
7, 696960, Note_on_c, 5, 63, 105
7, 697152, Note_on_c, 5, 63, 0
7, 697200, Note_on_c, 5, 65, 105
7, 697392, Note_on_c, 5, 65, 0
7, 697440, Note_on_c, 5, 67, 105
7, 697632, Note_on_c, 5, 67, 0
7, 697680, Note_on_c, 5, 65, 105
7, 697872, Note_on_c, 5, 65, 0
7, 697920, Note_on_c, 5, 63, 105
7, 698112, Note_on_c, 5, 63, 0
7, 698160, Note_on_c, 5, 62, 105
7, 698352, Note_on_c, 5, 62, 0
7, 698400, Note_on_c, 5, 60, 105
7, 698592, Note_on_c, 5, 60, 0
7, 698640, Note_on_c, 5, 59, 105
7, 698832, Note_on_c, 5, 59, 0
7, 698880, Note_on_c, 5, 60, 105
7, 699072, Note_on_c, 5, 60, 0
7, 699120, Note_on_c, 5, 62, 105
7, 699312, Note_on_c, 5, 62, 0
7, 699360, Note_on_c, 5, 63, 105
7, 699552, Note_on_c, 5, 63, 0
7, 699600, Note_on_c, 5, 62, 105
7, 699792, Note_on_c, 5, 62, 0
7, 699840, Note_on_c, 5, 60, 105
7, 700032, Note_on_c, 5, 60, 0
7, 700080, Note_on_c, 5, 58, 105
7, 700272, Note_on_c, 5, 58, 0
7, 700320, Note_on_c, 5, 57, 105
7, 700512, Note_on_c, 5, 57, 0
7, 700560, Note_on_c, 5, 55, 105
7, 700752, Note_on_c, 5, 55, 0
7, 700800, Note_on_c, 5, 62, 105
7, 700992, Note_on_c, 5, 62, 0
7, 701040, Note_on_c, 5, 66, 105
7, 701232, Note_on_c, 5, 66, 0
7, 701280, Note_on_c, 5, 74, 105
7, 701472, Note_on_c, 5, 74, 0
7, 701520, Note_on_c, 5, 78, 105
7, 701712, Note_on_c, 5, 78, 0
7, 701760, Note_on_c, 5, 81, 105
7, 701952, Note_on_c, 5, 81, 0
7, 702000, Note_on_c, 5, 81, 105
7, 702192, Note_on_c, 5, 81, 0
7, 702240, Note_on_c, 5, 81, 105
7, 702432, Note_on_c, 5, 81, 0
7, 702480, Note_on_c, 5, 81, 105
7, 702672, Note_on_c, 5, 81, 0
7, 702720, Note_on_c, 5, 64, 105
7, 702912, Note_on_c, 5, 64, 0
7, 702960, Note_on_c, 5, 67, 105
7, 703152, Note_on_c, 5, 67, 0
7, 703200, Note_on_c, 5, 73, 105
7, 703392, Note_on_c, 5, 73, 0
7, 703440, Note_on_c, 5, 76, 105
7, 703632, Note_on_c, 5, 76, 0
7, 703680, Note_on_c, 5, 79, 105
7, 703872, Note_on_c, 5, 79, 0
7, 703920, Note_on_c, 5, 79, 105
7, 704112, Note_on_c, 5, 79, 0
7, 704160, Note_on_c, 5, 79, 105
7, 704352, Note_on_c, 5, 79, 0
7, 704400, Note_on_c, 5, 79, 105
7, 704592, Note_on_c, 5, 79, 0
7, 704640, Note_on_c, 5, 66, 105
7, 704832, Note_on_c, 5, 66, 0
7, 704880, Note_on_c, 5, 69, 105
7, 705072, Note_on_c, 5, 69, 0
7, 705120, Note_on_c, 5, 74, 105
7, 705312, Note_on_c, 5, 74, 0
7, 705360, Note_on_c, 5, 78, 105
7, 705552, Note_on_c, 5, 78, 0
7, 705600, Note_on_c, 5, 81, 105
7, 705792, Note_on_c, 5, 81, 0
7, 705840, Note_on_c, 5, 81, 105
7, 706032, Note_on_c, 5, 81, 0
7, 706080, Note_on_c, 5, 81, 105
7, 706272, Note_on_c, 5, 81, 0
7, 706320, Note_on_c, 5, 81, 105
7, 706512, Note_on_c, 5, 81, 0
7, 706560, Note_on_c, 5, 69, 105
7, 706752, Note_on_c, 5, 69, 0
7, 706800, Note_on_c, 5, 73, 105
7, 706992, Note_on_c, 5, 73, 0
7, 707040, Note_on_c, 5, 76, 105
7, 707232, Note_on_c, 5, 76, 0
7, 707280, Note_on_c, 5, 79, 105
7, 707472, Note_on_c, 5, 79, 0
7, 707520, Note_on_c, 5, 85, 105
7, 707712, Note_on_c, 5, 85, 0
7, 707760, Note_on_c, 5, 85, 105
7, 707952, Note_on_c, 5, 85, 0
7, 708000, Note_on_c, 5, 85, 105
7, 708192, Note_on_c, 5, 85, 0
7, 708240, Note_on_c, 5, 85, 105
7, 708432, Note_on_c, 5, 85, 0
7, 708480, Note_on_c, 5, 86, 105
7, 708864, Note_on_c, 5, 86, 0
7, 709440, Note_on_c, 5, 86, 105
7, 709440, Note_on_c, 5, 69, 105
7, 709440, Note_on_c, 5, 62, 105
7, 709824, Note_on_c, 5, 62, 0
7, 709824, Note_on_c, 5, 69, 0
7, 709824, Note_on_c, 5, 86, 0
7, 710400, Note_on_c, 5, 62, 105
7, 711168, Note_on_c, 5, 62, 0
7, 712320, Note_on_c, 5, 70, 58
7, 712704, Note_on_c, 5, 70, 0
7, 712800, Note_on_c, 5, 70, 58
7, 713184, Note_on_c, 5, 70, 0
7, 713280, Note_on_c, 5, 70, 58
7, 713664, Note_on_c, 5, 70, 0
7, 713760, Note_on_c, 5, 70, 58
7, 714144, Note_on_c, 5, 70, 0
7, 714240, Note_on_c, 5, 69, 58
7, 714624, Note_on_c, 5, 69, 0
7, 714720, Note_on_c, 5, 69, 58
7, 715104, Note_on_c, 5, 69, 0
7, 715200, Note_on_c, 5, 69, 58
7, 715584, Note_on_c, 5, 69, 0
7, 715680, Note_on_c, 5, 69, 58
7, 716064, Note_on_c, 5, 69, 0
7, 716160, Note_on_c, 5, 67, 70
7, 719904, Note_on_c, 5, 67, 0
7, 720000, Note_on_c, 5, 63, 58
7, 722304, Note_on_c, 5, 63, 0
7, 723840, Note_on_c, 5, 58, 58
7, 725280, Note_on_c, 5, 58, 0
7, 725280, Note_on_c, 5, 60, 58
7, 725520, Note_on_c, 5, 60, 0
7, 725520, Note_on_c, 5, 58, 58
7, 725760, Note_on_c, 5, 58, 0
7, 725760, Note_on_c, 5, 57, 58
7, 726144, Note_on_c, 5, 57, 0
7, 727680, Note_on_c, 5, 58, 58
7, 728064, Note_on_c, 5, 58, 0
7, 728160, Note_on_c, 5, 58, 58
7, 728544, Note_on_c, 5, 58, 0
7, 728640, Note_on_c, 5, 70, 58
7, 729024, Note_on_c, 5, 70, 0
7, 729120, Note_on_c, 5, 70, 58
7, 729504, Note_on_c, 5, 70, 0
7, 729600, Note_on_c, 5, 69, 58
7, 729984, Note_on_c, 5, 69, 0
7, 730080, Note_on_c, 5, 69, 58
7, 730464, Note_on_c, 5, 69, 0
7, 730560, Note_on_c, 5, 68, 58
7, 730944, Note_on_c, 5, 68, 0
7, 731040, Note_on_c, 5, 68, 58
7, 731424, Note_on_c, 5, 68, 0
7, 731520, Note_on_c, 5, 67, 58
7, 735744, Note_on_c, 5, 67, 0
7, 737280, Note_on_c, 5, 58, 58
7, 738720, Note_on_c, 5, 58, 0
7, 738720, Note_on_c, 5, 62, 58
7, 738960, Note_on_c, 5, 62, 0
7, 738960, Note_on_c, 5, 60, 58
7, 739152, Note_on_c, 5, 60, 0
7, 739200, Note_on_c, 5, 58, 58
7, 739584, Note_on_c, 5, 58, 0
7, 762240, Note_on_c, 5, 67, 58
7, 763776, Note_on_c, 5, 67, 0
7, 764160, Note_on_c, 5, 66, 58
7, 764280, Note_on_c, 5, 66, 0
7, 764280, Note_on_c, 5, 67, 58
7, 764952, Note_on_c, 5, 67, 0
7, 765120, Note_on_c, 5, 66, 58
7, 765240, Note_on_c, 5, 66, 0
7, 765240, Note_on_c, 5, 67, 58
7, 765912, Note_on_c, 5, 67, 0
7, 766080, Note_on_c, 5, 72, 58
7, 766464, Note_on_c, 5, 72, 0
7, 767040, Note_on_c, 5, 69, 58
7, 767424, Note_on_c, 5, 69, 0
7, 768000, Note_on_c, 5, 67, 58
7, 768384, Note_on_c, 5, 67, 0
7, 768960, Note_on_c, 5, 66, 58
7, 769344, Note_on_c, 5, 66, 0
7, 769920, Note_on_c, 5, 67, 105
7, 770112, Note_on_c, 5, 67, 0
7, 770160, Note_on_c, 5, 74, 105
7, 770352, Note_on_c, 5, 74, 0
7, 770400, Note_on_c, 5, 74, 105
7, 770592, Note_on_c, 5, 74, 0
7, 770640, Note_on_c, 5, 74, 105
7, 770832, Note_on_c, 5, 74, 0
7, 770880, Note_on_c, 5, 74, 105
7, 771072, Note_on_c, 5, 74, 0
7, 771120, Note_on_c, 5, 74, 105
7, 771312, Note_on_c, 5, 74, 0
7, 771360, Note_on_c, 5, 74, 105
7, 771552, Note_on_c, 5, 74, 0
7, 771600, Note_on_c, 5, 74, 105
7, 771792, Note_on_c, 5, 74, 0
7, 771840, Note_on_c, 5, 79, 105
7, 772080, Note_on_c, 5, 79, 0
7, 772080, Note_on_c, 5, 82, 105
7, 772224, Note_on_c, 5, 82, 0
7, 772320, Note_on_c, 5, 81, 105
7, 772464, Note_on_c, 5, 81, 0
7, 772560, Note_on_c, 5, 78, 105
7, 772704, Note_on_c, 5, 78, 0
7, 772800, Note_on_c, 5, 79, 105
7, 773040, Note_on_c, 5, 79, 0
7, 773040, Note_on_c, 5, 82, 105
7, 773184, Note_on_c, 5, 82, 0
7, 773280, Note_on_c, 5, 81, 105
7, 773424, Note_on_c, 5, 81, 0
7, 773520, Note_on_c, 5, 78, 105
7, 773664, Note_on_c, 5, 78, 0
7, 773760, Note_on_c, 5, 79, 105
7, 773952, Note_on_c, 5, 79, 0
7, 774000, Note_on_c, 5, 74, 105
7, 774192, Note_on_c, 5, 74, 0
7, 774240, Note_on_c, 5, 74, 105
7, 774432, Note_on_c, 5, 74, 0
7, 774480, Note_on_c, 5, 74, 105
7, 774672, Note_on_c, 5, 74, 0
7, 774720, Note_on_c, 5, 74, 105
7, 774912, Note_on_c, 5, 74, 0
7, 774960, Note_on_c, 5, 74, 105
7, 775152, Note_on_c, 5, 74, 0
7, 775200, Note_on_c, 5, 74, 105
7, 775392, Note_on_c, 5, 74, 0
7, 775440, Note_on_c, 5, 74, 105
7, 775632, Note_on_c, 5, 74, 0
7, 775680, Note_on_c, 5, 79, 105
7, 775920, Note_on_c, 5, 79, 0
7, 775920, Note_on_c, 5, 82, 105
7, 776064, Note_on_c, 5, 82, 0
7, 776160, Note_on_c, 5, 81, 105
7, 776304, Note_on_c, 5, 81, 0
7, 776400, Note_on_c, 5, 78, 105
7, 776544, Note_on_c, 5, 78, 0
7, 776640, Note_on_c, 5, 79, 105
7, 776880, Note_on_c, 5, 79, 0
7, 776880, Note_on_c, 5, 82, 105
7, 777024, Note_on_c, 5, 82, 0
7, 777120, Note_on_c, 5, 81, 105
7, 777264, Note_on_c, 5, 81, 0
7, 777360, Note_on_c, 5, 78, 105
7, 777504, Note_on_c, 5, 78, 0
7, 777600, Note_on_c, 5, 79, 105
7, 777792, Note_on_c, 5, 79, 0
7, 777840, Note_on_c, 5, 86, 105
7, 778032, Note_on_c, 5, 86, 0
7, 778080, Note_on_c, 5, 86, 105
7, 778272, Note_on_c, 5, 86, 0
7, 778320, Note_on_c, 5, 86, 105
7, 778512, Note_on_c, 5, 86, 0
7, 778560, Note_on_c, 5, 86, 105
7, 778752, Note_on_c, 5, 86, 0
7, 778800, Note_on_c, 5, 86, 105
7, 778992, Note_on_c, 5, 86, 0
7, 779040, Note_on_c, 5, 86, 105
7, 779232, Note_on_c, 5, 86, 0
7, 779280, Note_on_c, 5, 86, 105
7, 779472, Note_on_c, 5, 86, 0
7, 779520, Note_on_c, 5, 79, 105
7, 779760, Note_on_c, 5, 79, 0
7, 779760, Note_on_c, 5, 82, 105
7, 779904, Note_on_c, 5, 82, 0
7, 780000, Note_on_c, 5, 81, 105
7, 780144, Note_on_c, 5, 81, 0
7, 780240, Note_on_c, 5, 78, 105
7, 780384, Note_on_c, 5, 78, 0
7, 780480, Note_on_c, 5, 79, 105
7, 780720, Note_on_c, 5, 79, 0
7, 780720, Note_on_c, 5, 82, 105
7, 780864, Note_on_c, 5, 82, 0
7, 780960, Note_on_c, 5, 81, 105
7, 781104, Note_on_c, 5, 81, 0
7, 781200, Note_on_c, 5, 78, 105
7, 781344, Note_on_c, 5, 78, 0
7, 781440, Note_on_c, 5, 79, 105
7, 781632, Note_on_c, 5, 79, 0
7, 781680, Note_on_c, 5, 74, 105
7, 781872, Note_on_c, 5, 74, 0
7, 781920, Note_on_c, 5, 74, 105
7, 782112, Note_on_c, 5, 74, 0
7, 782160, Note_on_c, 5, 74, 105
7, 782352, Note_on_c, 5, 74, 0
7, 782400, Note_on_c, 5, 75, 105
7, 782592, Note_on_c, 5, 75, 0
7, 782640, Note_on_c, 5, 72, 105
7, 782832, Note_on_c, 5, 72, 0
7, 782880, Note_on_c, 5, 72, 105
7, 783072, Note_on_c, 5, 72, 0
7, 783120, Note_on_c, 5, 72, 105
7, 783312, Note_on_c, 5, 72, 0
7, 783360, Note_on_c, 5, 74, 105
7, 783552, Note_on_c, 5, 74, 0
7, 783600, Note_on_c, 5, 67, 105
7, 783792, Note_on_c, 5, 67, 0
7, 783840, Note_on_c, 5, 67, 105
7, 784032, Note_on_c, 5, 67, 0
7, 784080, Note_on_c, 5, 67, 105
7, 784272, Note_on_c, 5, 67, 0
7, 784320, Note_on_c, 5, 74, 105
7, 784512, Note_on_c, 5, 74, 0
7, 784560, Note_on_c, 5, 66, 105
7, 784752, Note_on_c, 5, 66, 0
7, 784800, Note_on_c, 5, 66, 105
7, 784992, Note_on_c, 5, 66, 0
7, 785040, Note_on_c, 5, 66, 105
7, 785232, Note_on_c, 5, 66, 0
7, 785280, Note_on_c, 5, 67, 92
7, 785664, Note_on_c, 5, 67, 0
7, 787200, Note_on_c, 5, 62, 70
7, 787584, Note_on_c, 5, 62, 0
7, 787680, Note_on_c, 5, 62, 70
7, 788448, Note_on_c, 5, 62, 0
7, 788640, Note_on_c, 5, 62, 70
7, 789504, Note_on_c, 5, 62, 0
7, 791040, Note_on_c, 5, 62, 70
7, 791424, Note_on_c, 5, 62, 0
7, 791520, Note_on_c, 5, 62, 70
7, 792288, Note_on_c, 5, 62, 0
7, 792480, Note_on_c, 5, 62, 70
7, 793344, Note_on_c, 5, 62, 0
7, 794880, Note_on_c, 5, 67, 105
7, 795120, Note_on_c, 5, 67, 0
7, 795120, Note_on_c, 5, 70, 105
7, 795264, Note_on_c, 5, 70, 0
7, 795360, Note_on_c, 5, 69, 105
7, 795504, Note_on_c, 5, 69, 0
7, 795600, Note_on_c, 5, 66, 105
7, 795744, Note_on_c, 5, 66, 0
7, 795840, Note_on_c, 5, 67, 105
7, 796080, Note_on_c, 5, 67, 0
7, 796080, Note_on_c, 5, 70, 105
7, 796224, Note_on_c, 5, 70, 0
7, 796320, Note_on_c, 5, 69, 105
7, 796464, Note_on_c, 5, 69, 0
7, 796560, Note_on_c, 5, 66, 105
7, 796704, Note_on_c, 5, 66, 0
7, 796800, Note_on_c, 5, 74, 105
7, 796992, Note_on_c, 5, 74, 0
7, 797040, Note_on_c, 5, 74, 105
7, 797232, Note_on_c, 5, 74, 0
7, 797280, Note_on_c, 5, 74, 105
7, 797472, Note_on_c, 5, 74, 0
7, 797520, Note_on_c, 5, 74, 105
7, 797712, Note_on_c, 5, 74, 0
7, 797760, Note_on_c, 5, 74, 105
7, 797952, Note_on_c, 5, 74, 0
7, 798000, Note_on_c, 5, 74, 105
7, 798192, Note_on_c, 5, 74, 0
7, 798240, Note_on_c, 5, 74, 105
7, 798432, Note_on_c, 5, 74, 0
7, 798480, Note_on_c, 5, 74, 105
7, 798672, Note_on_c, 5, 74, 0
7, 798720, Note_on_c, 5, 79, 105
7, 798960, Note_on_c, 5, 79, 0
7, 798960, Note_on_c, 5, 82, 105
7, 799128, Note_on_c, 5, 82, 0
7, 799200, Note_on_c, 5, 81, 105
7, 799368, Note_on_c, 5, 81, 0
7, 799440, Note_on_c, 5, 78, 105
7, 799608, Note_on_c, 5, 78, 0
7, 799680, Note_on_c, 5, 79, 105
7, 799920, Note_on_c, 5, 79, 0
7, 799920, Note_on_c, 5, 82, 105
7, 800088, Note_on_c, 5, 82, 0
7, 800160, Note_on_c, 5, 81, 105
7, 800328, Note_on_c, 5, 81, 0
7, 800400, Note_on_c, 5, 78, 105
7, 800568, Note_on_c, 5, 78, 0
7, 800640, Note_on_c, 5, 77, 116
7, 800832, Note_on_c, 5, 77, 0
7, 800880, Note_on_c, 5, 77, 116
7, 801072, Note_on_c, 5, 77, 0
7, 801120, Note_on_c, 5, 77, 116
7, 801312, Note_on_c, 5, 77, 0
7, 801360, Note_on_c, 5, 77, 116
7, 801552, Note_on_c, 5, 77, 0
7, 801600, Note_on_c, 5, 77, 116
7, 801792, Note_on_c, 5, 77, 0
7, 801840, Note_on_c, 5, 77, 116
7, 802032, Note_on_c, 5, 77, 0
7, 802080, Note_on_c, 5, 77, 116
7, 802272, Note_on_c, 5, 77, 0
7, 802320, Note_on_c, 5, 77, 116
7, 802512, Note_on_c, 5, 77, 0
7, 802560, Note_on_c, 5, 75, 116
7, 802752, Note_on_c, 5, 75, 0
7, 802800, Note_on_c, 5, 75, 116
7, 802992, Note_on_c, 5, 75, 0
7, 803040, Note_on_c, 5, 75, 116
7, 803232, Note_on_c, 5, 75, 0
7, 803280, Note_on_c, 5, 75, 116
7, 803472, Note_on_c, 5, 75, 0
7, 803520, Note_on_c, 5, 75, 116
7, 803712, Note_on_c, 5, 75, 0
7, 803760, Note_on_c, 5, 75, 116
7, 803952, Note_on_c, 5, 75, 0
7, 804000, Note_on_c, 5, 75, 116
7, 804192, Note_on_c, 5, 75, 0
7, 804240, Note_on_c, 5, 75, 116
7, 804432, Note_on_c, 5, 75, 0
7, 804480, Note_on_c, 5, 74, 116
7, 804672, Note_on_c, 5, 74, 0
7, 804720, Note_on_c, 5, 74, 116
7, 804912, Note_on_c, 5, 74, 0
7, 804960, Note_on_c, 5, 74, 116
7, 805152, Note_on_c, 5, 74, 0
7, 805200, Note_on_c, 5, 74, 116
7, 805392, Note_on_c, 5, 74, 0
7, 805440, Note_on_c, 5, 79, 116
7, 805632, Note_on_c, 5, 79, 0
7, 805680, Note_on_c, 5, 79, 116
7, 805872, Note_on_c, 5, 79, 0
7, 805920, Note_on_c, 5, 79, 116
7, 806112, Note_on_c, 5, 79, 0
7, 806160, Note_on_c, 5, 79, 116
7, 806352, Note_on_c, 5, 79, 0
7, 806400, Note_on_c, 5, 72, 116
7, 806592, Note_on_c, 5, 72, 0
7, 806640, Note_on_c, 5, 72, 116
7, 806832, Note_on_c, 5, 72, 0
7, 806880, Note_on_c, 5, 72, 116
7, 807072, Note_on_c, 5, 72, 0
7, 807120, Note_on_c, 5, 72, 116
7, 807312, Note_on_c, 5, 72, 0
7, 807360, Note_on_c, 5, 69, 116
7, 807552, Note_on_c, 5, 69, 0
7, 807600, Note_on_c, 5, 69, 116
7, 807792, Note_on_c, 5, 69, 0
7, 807840, Note_on_c, 5, 69, 116
7, 808032, Note_on_c, 5, 69, 0
7, 808080, Note_on_c, 5, 69, 116
7, 808272, Note_on_c, 5, 69, 0
7, 808320, Note_on_c, 5, 77, 116
7, 808512, Note_on_c, 5, 77, 0
7, 808560, Note_on_c, 5, 77, 116
7, 808752, Note_on_c, 5, 77, 0
7, 808800, Note_on_c, 5, 77, 116
7, 808992, Note_on_c, 5, 77, 0
7, 809040, Note_on_c, 5, 77, 116
7, 809232, Note_on_c, 5, 77, 0
7, 809280, Note_on_c, 5, 77, 116
7, 809472, Note_on_c, 5, 77, 0
7, 809520, Note_on_c, 5, 77, 116
7, 809712, Note_on_c, 5, 77, 0
7, 809760, Note_on_c, 5, 77, 116
7, 809952, Note_on_c, 5, 77, 0
7, 810000, Note_on_c, 5, 77, 116
7, 810192, Note_on_c, 5, 77, 0
7, 810240, Note_on_c, 5, 75, 116
7, 810432, Note_on_c, 5, 75, 0
7, 810480, Note_on_c, 5, 75, 116
7, 810672, Note_on_c, 5, 75, 0
7, 810720, Note_on_c, 5, 75, 116
7, 810912, Note_on_c, 5, 75, 0
7, 810960, Note_on_c, 5, 75, 116
7, 811152, Note_on_c, 5, 75, 0
7, 811200, Note_on_c, 5, 75, 116
7, 811392, Note_on_c, 5, 75, 0
7, 811440, Note_on_c, 5, 75, 116
7, 811632, Note_on_c, 5, 75, 0
7, 811680, Note_on_c, 5, 75, 116
7, 811872, Note_on_c, 5, 75, 0
7, 811920, Note_on_c, 5, 75, 116
7, 812112, Note_on_c, 5, 75, 0
7, 812160, Note_on_c, 5, 74, 116
7, 812352, Note_on_c, 5, 74, 0
7, 812400, Note_on_c, 5, 74, 116
7, 812592, Note_on_c, 5, 74, 0
7, 812640, Note_on_c, 5, 74, 116
7, 812832, Note_on_c, 5, 74, 0
7, 812880, Note_on_c, 5, 74, 116
7, 813072, Note_on_c, 5, 74, 0
7, 813120, Note_on_c, 5, 79, 116
7, 813312, Note_on_c, 5, 79, 0
7, 813360, Note_on_c, 5, 79, 116
7, 813552, Note_on_c, 5, 79, 0
7, 813600, Note_on_c, 5, 79, 116
7, 813792, Note_on_c, 5, 79, 0
7, 813840, Note_on_c, 5, 79, 116
7, 814032, Note_on_c, 5, 79, 0
7, 814080, Note_on_c, 5, 81, 116
7, 814272, Note_on_c, 5, 81, 0
7, 814320, Note_on_c, 5, 81, 116
7, 814512, Note_on_c, 5, 81, 0
7, 814560, Note_on_c, 5, 81, 116
7, 814752, Note_on_c, 5, 81, 0
7, 814800, Note_on_c, 5, 81, 116
7, 814992, Note_on_c, 5, 81, 0
7, 815040, Note_on_c, 5, 78, 116
7, 815232, Note_on_c, 5, 78, 0
7, 815280, Note_on_c, 5, 78, 116
7, 815472, Note_on_c, 5, 78, 0
7, 815520, Note_on_c, 5, 78, 116
7, 815712, Note_on_c, 5, 78, 0
7, 815760, Note_on_c, 5, 78, 116
7, 815952, Note_on_c, 5, 78, 0
7, 816000, Note_on_c, 5, 79, 116
7, 816384, Note_on_c, 5, 79, 0
7, 816480, Note_on_c, 5, 62, 116
7, 816480, Note_on_c, 5, 70, 116
7, 817248, Note_on_c, 5, 70, 0
7, 817248, Note_on_c, 5, 62, 0
7, 817440, Note_on_c, 5, 62, 116
7, 817440, Note_on_c, 5, 70, 116
7, 817824, Note_on_c, 5, 70, 0
7, 817824, Note_on_c, 5, 62, 0
7, 817920, Note_on_c, 5, 62, 116
7, 817920, Note_on_c, 5, 72, 116
7, 818112, Note_on_c, 5, 72, 0
7, 818112, Note_on_c, 5, 62, 0
7, 818160, Note_on_c, 5, 72, 116
7, 818160, Note_on_c, 5, 62, 116
7, 818352, Note_on_c, 5, 62, 0
7, 818352, Note_on_c, 5, 72, 0
7, 818400, Note_on_c, 5, 72, 116
7, 818400, Note_on_c, 5, 62, 116
7, 818592, Note_on_c, 5, 62, 0
7, 818592, Note_on_c, 5, 72, 0
7, 818640, Note_on_c, 5, 62, 116
7, 818640, Note_on_c, 5, 72, 116
7, 818832, Note_on_c, 5, 72, 0
7, 818832, Note_on_c, 5, 62, 0
7, 818880, Note_on_c, 5, 62, 116
7, 818880, Note_on_c, 5, 72, 116
7, 819072, Note_on_c, 5, 72, 0
7, 819072, Note_on_c, 5, 62, 0
7, 819120, Note_on_c, 5, 62, 116
7, 819120, Note_on_c, 5, 72, 116
7, 819312, Note_on_c, 5, 72, 0
7, 819312, Note_on_c, 5, 62, 0
7, 819360, Note_on_c, 5, 62, 116
7, 819360, Note_on_c, 5, 72, 116
7, 819552, Note_on_c, 5, 72, 0
7, 819552, Note_on_c, 5, 62, 0
7, 819600, Note_on_c, 5, 62, 116
7, 819600, Note_on_c, 5, 72, 116
7, 819792, Note_on_c, 5, 72, 0
7, 819792, Note_on_c, 5, 62, 0
7, 819840, Note_on_c, 5, 62, 116
7, 819840, Note_on_c, 5, 70, 116
7, 820032, Note_on_c, 5, 70, 0
7, 820032, Note_on_c, 5, 62, 0
7, 820080, Note_on_c, 5, 70, 116
7, 820080, Note_on_c, 5, 62, 116
7, 820272, Note_on_c, 5, 62, 0
7, 820272, Note_on_c, 5, 70, 0
7, 820320, Note_on_c, 5, 70, 116
7, 820320, Note_on_c, 5, 62, 116
7, 820512, Note_on_c, 5, 62, 0
7, 820512, Note_on_c, 5, 70, 0
7, 820560, Note_on_c, 5, 62, 116
7, 820560, Note_on_c, 5, 70, 116
7, 820752, Note_on_c, 5, 70, 0
7, 820752, Note_on_c, 5, 62, 0
7, 820800, Note_on_c, 5, 70, 116
7, 820800, Note_on_c, 5, 62, 116
7, 820992, Note_on_c, 5, 62, 0
7, 820992, Note_on_c, 5, 70, 0
7, 821040, Note_on_c, 5, 70, 116
7, 821040, Note_on_c, 5, 62, 116
7, 821232, Note_on_c, 5, 62, 0
7, 821232, Note_on_c, 5, 70, 0
7, 821280, Note_on_c, 5, 62, 116
7, 821280, Note_on_c, 5, 70, 116
7, 821472, Note_on_c, 5, 70, 0
7, 821472, Note_on_c, 5, 62, 0
7, 821520, Note_on_c, 5, 62, 116
7, 821520, Note_on_c, 5, 70, 116
7, 821712, Note_on_c, 5, 70, 0
7, 821712, Note_on_c, 5, 62, 0
7, 821760, Note_on_c, 5, 72, 116
7, 821760, Note_on_c, 5, 62, 116
7, 821952, Note_on_c, 5, 62, 0
7, 821952, Note_on_c, 5, 72, 0
7, 822000, Note_on_c, 5, 62, 116
7, 822000, Note_on_c, 5, 72, 116
7, 822192, Note_on_c, 5, 72, 0
7, 822192, Note_on_c, 5, 62, 0
7, 822240, Note_on_c, 5, 62, 116
7, 822240, Note_on_c, 5, 72, 116
7, 822432, Note_on_c, 5, 72, 0
7, 822432, Note_on_c, 5, 62, 0
7, 822480, Note_on_c, 5, 62, 116
7, 822480, Note_on_c, 5, 72, 116
7, 822672, Note_on_c, 5, 72, 0
7, 822672, Note_on_c, 5, 62, 0
7, 822720, Note_on_c, 5, 72, 116
7, 822720, Note_on_c, 5, 62, 116
7, 822912, Note_on_c, 5, 62, 0
7, 822912, Note_on_c, 5, 72, 0
7, 822960, Note_on_c, 5, 72, 116
7, 822960, Note_on_c, 5, 62, 116
7, 823152, Note_on_c, 5, 62, 0
7, 823152, Note_on_c, 5, 72, 0
7, 823200, Note_on_c, 5, 62, 116
7, 823200, Note_on_c, 5, 72, 116
7, 823392, Note_on_c, 5, 72, 0
7, 823392, Note_on_c, 5, 62, 0
7, 823440, Note_on_c, 5, 72, 116
7, 823440, Note_on_c, 5, 62, 116
7, 823632, Note_on_c, 5, 62, 0
7, 823632, Note_on_c, 5, 72, 0
7, 823680, Note_on_c, 5, 62, 116
7, 823680, Note_on_c, 5, 70, 116
7, 823872, Note_on_c, 5, 70, 0
7, 823872, Note_on_c, 5, 62, 0
7, 823920, Note_on_c, 5, 62, 116
7, 823920, Note_on_c, 5, 70, 116
7, 824112, Note_on_c, 5, 70, 0
7, 824112, Note_on_c, 5, 62, 0
7, 824160, Note_on_c, 5, 62, 116
7, 824160, Note_on_c, 5, 70, 116
7, 824352, Note_on_c, 5, 70, 0
7, 824352, Note_on_c, 5, 62, 0
7, 824400, Note_on_c, 5, 70, 116
7, 824400, Note_on_c, 5, 62, 116
7, 824592, Note_on_c, 5, 62, 0
7, 824592, Note_on_c, 5, 70, 0
7, 824640, Note_on_c, 5, 70, 116
7, 824640, Note_on_c, 5, 62, 116
7, 824832, Note_on_c, 5, 62, 0
7, 824832, Note_on_c, 5, 70, 0
7, 824880, Note_on_c, 5, 62, 116
7, 824880, Note_on_c, 5, 70, 116
7, 825072, Note_on_c, 5, 70, 0
7, 825072, Note_on_c, 5, 62, 0
7, 825120, Note_on_c, 5, 70, 116
7, 825120, Note_on_c, 5, 62, 116
7, 825312, Note_on_c, 5, 62, 0
7, 825312, Note_on_c, 5, 70, 0
7, 825360, Note_on_c, 5, 70, 116
7, 825360, Note_on_c, 5, 62, 116
7, 825552, Note_on_c, 5, 62, 0
7, 825552, Note_on_c, 5, 70, 0
7, 825600, Note_on_c, 5, 62, 116
7, 825600, Note_on_c, 5, 72, 116
7, 825792, Note_on_c, 5, 72, 0
7, 825792, Note_on_c, 5, 62, 0
7, 825840, Note_on_c, 5, 72, 116
7, 825840, Note_on_c, 5, 62, 116
7, 826032, Note_on_c, 5, 62, 0
7, 826032, Note_on_c, 5, 72, 0
7, 826080, Note_on_c, 5, 62, 116
7, 826080, Note_on_c, 5, 72, 116
7, 826272, Note_on_c, 5, 72, 0
7, 826272, Note_on_c, 5, 62, 0
7, 826320, Note_on_c, 5, 62, 116
7, 826320, Note_on_c, 5, 72, 116
7, 826512, Note_on_c, 5, 72, 0
7, 826512, Note_on_c, 5, 62, 0
7, 826560, Note_on_c, 5, 62, 116
7, 826560, Note_on_c, 5, 72, 116
7, 826752, Note_on_c, 5, 72, 0
7, 826752, Note_on_c, 5, 62, 0
7, 826800, Note_on_c, 5, 72, 116
7, 826800, Note_on_c, 5, 62, 116
7, 826992, Note_on_c, 5, 62, 0
7, 826992, Note_on_c, 5, 72, 0
7, 827040, Note_on_c, 5, 62, 116
7, 827040, Note_on_c, 5, 72, 116
7, 827232, Note_on_c, 5, 72, 0
7, 827232, Note_on_c, 5, 62, 0
7, 827280, Note_on_c, 5, 62, 116
7, 827280, Note_on_c, 5, 72, 116
7, 827472, Note_on_c, 5, 72, 0
7, 827472, Note_on_c, 5, 62, 0
7, 827520, Note_on_c, 5, 62, 116
7, 827520, Note_on_c, 5, 70, 116
7, 827904, Note_on_c, 5, 70, 0
7, 827904, Note_on_c, 5, 62, 0
7, 828480, Note_on_c, 5, 62, 116
7, 828480, Note_on_c, 5, 79, 116
7, 828480, Note_on_c, 5, 70, 116
7, 828864, Note_on_c, 5, 70, 0
7, 828864, Note_on_c, 5, 79, 0
7, 828864, Note_on_c, 5, 62, 0
7, 829440, Note_on_c, 5, 55, 116
7, 829440, Note_on_c, 5, 67, 116
7, 830400, Note_on_c, 5, 67, 0
7, 830400, Note_on_c, 5, 55, 0
7, 830400, End_track
8, 0, Start_track
8, 0, Sequencer_specific, 04, 43, 00, 01, 00
8, 0, Program_c, 6, 48
8, 0, Control_c, 6, 7, 123
8, 0, Control_c, 6, 10, 98
8, 0, Control_c, 6, 91, 85
8, 2400, Note_on_c, 6, 58, 58
8, 2688, Note_on_c, 6, 58, 0
8, 2880, Note_on_c, 6, 58, 58
8, 3168, Note_on_c, 6, 58, 0
8, 3360, Note_on_c, 6, 58, 58
8, 3648, Note_on_c, 6, 58, 0
8, 4320, Note_on_c, 6, 61, 58
8, 4608, Note_on_c, 6, 61, 0
8, 4800, Note_on_c, 6, 61, 58
8, 5088, Note_on_c, 6, 61, 0
8, 5280, Note_on_c, 6, 69, 58
8, 6144, Note_on_c, 6, 69, 0
8, 6240, Note_on_c, 6, 69, 105
8, 7008, Note_on_c, 6, 69, 0
8, 7200, Note_on_c, 6, 69, 105
8, 7584, Note_on_c, 6, 69, 0
8, 7680, Note_on_c, 6, 69, 105
8, 8448, Note_on_c, 6, 69, 0
8, 10080, Note_on_c, 6, 60, 58
8, 10368, Note_on_c, 6, 60, 0
8, 10560, Note_on_c, 6, 60, 58
8, 10848, Note_on_c, 6, 60, 0
8, 11040, Note_on_c, 6, 60, 58
8, 11328, Note_on_c, 6, 60, 0
8, 12000, Note_on_c, 6, 60, 58
8, 12288, Note_on_c, 6, 60, 0
8, 12480, Note_on_c, 6, 60, 58
8, 12768, Note_on_c, 6, 60, 0
8, 12960, Note_on_c, 6, 62, 105
8, 13728, Note_on_c, 6, 62, 0
8, 13920, Note_on_c, 6, 62, 105
8, 14496, Note_on_c, 6, 62, 0
8, 14880, Note_on_c, 6, 62, 105
8, 15168, Note_on_c, 6, 62, 0
8, 15360, Note_on_c, 6, 62, 105
8, 16128, Note_on_c, 6, 62, 0
8, 17760, Note_on_c, 6, 58, 58
8, 18048, Note_on_c, 6, 58, 0
8, 18240, Note_on_c, 6, 58, 58
8, 18528, Note_on_c, 6, 58, 0
8, 18720, Note_on_c, 6, 58, 58
8, 19008, Note_on_c, 6, 58, 0
8, 19680, Note_on_c, 6, 61, 58
8, 19968, Note_on_c, 6, 61, 0
8, 20160, Note_on_c, 6, 61, 58
8, 20448, Note_on_c, 6, 61, 0
8, 20640, Note_on_c, 6, 69, 105
8, 21504, Note_on_c, 6, 69, 0
8, 21600, Note_on_c, 6, 69, 105
8, 22368, Note_on_c, 6, 69, 0
8, 22560, Note_on_c, 6, 69, 105
8, 22944, Note_on_c, 6, 69, 0
8, 23040, Note_on_c, 6, 69, 105
8, 23808, Note_on_c, 6, 69, 0
8, 25440, Note_on_c, 6, 60, 58
8, 25728, Note_on_c, 6, 60, 0
8, 25920, Note_on_c, 6, 60, 58
8, 26208, Note_on_c, 6, 60, 0
8, 26400, Note_on_c, 6, 60, 58
8, 26688, Note_on_c, 6, 60, 0
8, 27360, Note_on_c, 6, 60, 58
8, 27648, Note_on_c, 6, 60, 0
8, 27840, Note_on_c, 6, 60, 58
8, 28128, Note_on_c, 6, 60, 0
8, 28320, Note_on_c, 6, 62, 105
8, 29088, Note_on_c, 6, 62, 0
8, 29280, Note_on_c, 6, 62, 105
8, 29856, Note_on_c, 6, 62, 0
8, 30240, Note_on_c, 6, 62, 105
8, 30528, Note_on_c, 6, 62, 0
8, 30720, Note_on_c, 6, 62, 105
8, 31488, Note_on_c, 6, 62, 0
8, 32160, Note_on_c, 6, 62, 105
8, 32448, Note_on_c, 6, 62, 0
8, 32640, Note_on_c, 6, 62, 105
8, 32928, Note_on_c, 6, 62, 0
8, 33120, Note_on_c, 6, 66, 70
8, 33408, Note_on_c, 6, 66, 0
8, 33600, Note_on_c, 6, 66, 70
8, 33888, Note_on_c, 6, 66, 0
8, 34080, Note_on_c, 6, 66, 70
8, 34368, Note_on_c, 6, 66, 0
8, 34560, Note_on_c, 6, 67, 70
8, 35040, Note_on_c, 6, 67, 0
8, 35040, Note_on_c, 6, 66, 58
8, 35328, Note_on_c, 6, 66, 0
8, 35520, Note_on_c, 6, 66, 58
8, 35808, Note_on_c, 6, 66, 0
8, 36000, Note_on_c, 6, 62, 105
8, 36288, Note_on_c, 6, 62, 0
8, 36480, Note_on_c, 6, 62, 105
8, 36768, Note_on_c, 6, 62, 0
8, 36960, Note_on_c, 6, 66, 70
8, 37248, Note_on_c, 6, 66, 0
8, 37440, Note_on_c, 6, 66, 70
8, 37728, Note_on_c, 6, 66, 0
8, 37920, Note_on_c, 6, 66, 70
8, 38208, Note_on_c, 6, 66, 0
8, 38400, Note_on_c, 6, 67, 70
8, 38880, Note_on_c, 6, 67, 0
8, 38880, Note_on_c, 6, 66, 58
8, 39168, Note_on_c, 6, 66, 0
8, 39360, Note_on_c, 6, 66, 58
8, 39648, Note_on_c, 6, 66, 0
8, 40800, Note_on_c, 6, 60, 58
8, 41088, Note_on_c, 6, 60, 0
8, 41280, Note_on_c, 6, 60, 58
8, 41568, Note_on_c, 6, 60, 0
8, 41760, Note_on_c, 6, 60, 58
8, 42048, Note_on_c, 6, 60, 0
8, 42720, Note_on_c, 6, 60, 58
8, 43104, Note_on_c, 6, 60, 0
8, 43200, Note_on_c, 6, 60, 58
8, 43584, Note_on_c, 6, 60, 0
8, 43680, Note_on_c, 6, 62, 105
8, 44544, Note_on_c, 6, 62, 0
8, 44640, Note_on_c, 6, 62, 105
8, 45408, Note_on_c, 6, 62, 0
8, 45600, Note_on_c, 6, 62, 105
8, 45984, Note_on_c, 6, 62, 0
8, 46080, Note_on_c, 6, 62, 105
8, 46848, Note_on_c, 6, 62, 0
8, 47520, Note_on_c, 6, 62, 105
8, 47808, Note_on_c, 6, 62, 0
8, 48000, Note_on_c, 6, 62, 105
8, 48288, Note_on_c, 6, 62, 0
8, 48480, Note_on_c, 6, 66, 70
8, 48768, Note_on_c, 6, 66, 0
8, 48960, Note_on_c, 6, 66, 70
8, 49248, Note_on_c, 6, 66, 0
8, 49440, Note_on_c, 6, 66, 70
8, 49728, Note_on_c, 6, 66, 0
8, 49920, Note_on_c, 6, 67, 70
8, 50400, Note_on_c, 6, 67, 0
8, 50400, Note_on_c, 6, 66, 70
8, 50688, Note_on_c, 6, 66, 0
8, 50880, Note_on_c, 6, 66, 58
8, 51168, Note_on_c, 6, 66, 0
8, 51360, Note_on_c, 6, 62, 105
8, 51648, Note_on_c, 6, 62, 0
8, 51840, Note_on_c, 6, 62, 105
8, 52128, Note_on_c, 6, 62, 0
8, 52320, Note_on_c, 6, 66, 70
8, 52608, Note_on_c, 6, 66, 0
8, 52800, Note_on_c, 6, 66, 70
8, 53088, Note_on_c, 6, 66, 0
8, 53280, Note_on_c, 6, 66, 70
8, 53568, Note_on_c, 6, 66, 0
8, 53760, Note_on_c, 6, 67, 70
8, 54240, Note_on_c, 6, 67, 0
8, 54240, Note_on_c, 6, 66, 58
8, 54528, Note_on_c, 6, 66, 0
8, 54720, Note_on_c, 6, 66, 58
8, 55008, Note_on_c, 6, 66, 0
8, 56160, Note_on_c, 6, 60, 58
8, 56448, Note_on_c, 6, 60, 0
8, 56640, Note_on_c, 6, 60, 58
8, 56928, Note_on_c, 6, 60, 0
8, 57120, Note_on_c, 6, 60, 58
8, 57408, Note_on_c, 6, 60, 0
8, 58080, Note_on_c, 6, 60, 58
8, 58464, Note_on_c, 6, 60, 0
8, 58560, Note_on_c, 6, 60, 58
8, 58944, Note_on_c, 6, 60, 0
8, 59040, Note_on_c, 6, 62, 105
8, 59904, Note_on_c, 6, 62, 0
8, 60000, Note_on_c, 6, 62, 105
8, 60768, Note_on_c, 6, 62, 0
8, 60960, Note_on_c, 6, 62, 105
8, 61344, Note_on_c, 6, 62, 0
8, 61440, Note_on_c, 6, 62, 105
8, 62208, Note_on_c, 6, 62, 0
8, 63360, Note_on_c, 6, 67, 105
8, 63648, Note_on_c, 6, 67, 0
8, 63840, Note_on_c, 6, 68, 105
8, 64128, Note_on_c, 6, 68, 0
8, 64320, Note_on_c, 6, 67, 105
8, 64608, Note_on_c, 6, 67, 0
8, 64800, Note_on_c, 6, 68, 105
8, 65088, Note_on_c, 6, 68, 0
8, 65280, Note_on_c, 6, 67, 105
8, 66048, Note_on_c, 6, 67, 0
8, 67200, Note_on_c, 6, 57, 105
8, 67488, Note_on_c, 6, 57, 0
8, 67680, Note_on_c, 6, 57, 105
8, 68544, Note_on_c, 6, 57, 0
8, 68640, Note_on_c, 6, 57, 105
8, 68928, Note_on_c, 6, 57, 0
8, 69120, Note_on_c, 6, 57, 105
8, 69888, Note_on_c, 6, 57, 0
8, 70560, Note_on_c, 6, 57, 105
8, 70944, Note_on_c, 6, 57, 0
8, 71040, Note_on_c, 6, 50, 105
8, 71808, Note_on_c, 6, 50, 0
8, 72480, Note_on_c, 6, 55, 105
8, 73344, Note_on_c, 6, 55, 0
8, 73440, Note_on_c, 6, 63, 105
8, 73824, Note_on_c, 6, 63, 0
8, 73920, Note_on_c, 6, 57, 105
8, 74688, Note_on_c, 6, 57, 0
8, 74880, Note_on_c, 6, 50, 105
8, 75648, Note_on_c, 6, 50, 0
8, 76320, Note_on_c, 6, 67, 105
8, 77184, Note_on_c, 6, 67, 0
8, 77280, Note_on_c, 6, 63, 105
8, 77664, Note_on_c, 6, 63, 0
8, 77760, Note_on_c, 6, 57, 105
8, 78528, Note_on_c, 6, 57, 0
8, 78720, Note_on_c, 6, 62, 105
8, 79488, Note_on_c, 6, 62, 0
8, 80160, Note_on_c, 6, 58, 105
8, 80544, Note_on_c, 6, 58, 0
8, 80640, Note_on_c, 6, 67, 105
8, 81408, Note_on_c, 6, 67, 0
8, 82080, Note_on_c, 6, 67, 105
8, 82464, Note_on_c, 6, 67, 0
8, 82560, Note_on_c, 6, 60, 105
8, 83328, Note_on_c, 6, 60, 0
8, 84000, Note_on_c, 6, 57, 105
8, 84384, Note_on_c, 6, 57, 0
8, 84480, Note_on_c, 6, 65, 105
8, 85248, Note_on_c, 6, 65, 0
8, 85920, Note_on_c, 6, 65, 105
8, 86304, Note_on_c, 6, 65, 0
8, 86400, Note_on_c, 6, 58, 105
8, 87168, Note_on_c, 6, 58, 0
8, 87840, Note_on_c, 6, 58, 105
8, 88224, Note_on_c, 6, 58, 0
8, 88320, Note_on_c, 6, 70, 105
8, 89088, Note_on_c, 6, 70, 0
8, 89760, Note_on_c, 6, 67, 105
8, 90144, Note_on_c, 6, 67, 0
8, 90240, Note_on_c, 6, 60, 105
8, 91008, Note_on_c, 6, 60, 0
8, 91680, Note_on_c, 6, 60, 105
8, 92064, Note_on_c, 6, 60, 0
8, 92160, Note_on_c, 6, 60, 105
8, 92544, Note_on_c, 6, 60, 0
8, 92640, Note_on_c, 6, 65, 105
8, 92832, Note_on_c, 6, 65, 0
8, 92880, Note_on_c, 6, 67, 105
8, 93072, Note_on_c, 6, 67, 0
8, 93120, Note_on_c, 6, 65, 105
8, 93312, Note_on_c, 6, 65, 0
8, 93360, Note_on_c, 6, 63, 105
8, 93552, Note_on_c, 6, 63, 0
8, 93600, Note_on_c, 6, 62, 105
8, 93792, Note_on_c, 6, 62, 0
8, 93840, Note_on_c, 6, 60, 105
8, 94032, Note_on_c, 6, 60, 0
8, 94080, Note_on_c, 6, 62, 105
8, 94320, Note_on_c, 6, 62, 0
8, 94320, Note_on_c, 6, 65, 105
8, 94464, Note_on_c, 6, 65, 0
8, 94560, Note_on_c, 6, 63, 105
8, 94704, Note_on_c, 6, 63, 0
8, 94800, Note_on_c, 6, 60, 105
8, 94944, Note_on_c, 6, 60, 0
8, 95040, Note_on_c, 6, 62, 105
8, 95280, Note_on_c, 6, 62, 0
8, 95280, Note_on_c, 6, 65, 105
8, 95424, Note_on_c, 6, 65, 0
8, 95520, Note_on_c, 6, 63, 105
8, 95664, Note_on_c, 6, 63, 0
8, 95760, Note_on_c, 6, 60, 105
8, 95904, Note_on_c, 6, 60, 0
8, 96000, Note_on_c, 6, 62, 105
8, 96192, Note_on_c, 6, 62, 0
8, 96240, Note_on_c, 6, 63, 105
8, 96432, Note_on_c, 6, 63, 0
8, 96480, Note_on_c, 6, 65, 105
8, 96672, Note_on_c, 6, 65, 0
8, 96720, Note_on_c, 6, 63, 105
8, 96912, Note_on_c, 6, 63, 0
8, 96960, Note_on_c, 6, 62, 105
8, 97152, Note_on_c, 6, 62, 0
8, 97200, Note_on_c, 6, 60, 105
8, 97392, Note_on_c, 6, 60, 0
8, 97440, Note_on_c, 6, 58, 105
8, 97632, Note_on_c, 6, 58, 0
8, 97680, Note_on_c, 6, 57, 105
8, 97872, Note_on_c, 6, 57, 0
8, 97920, Note_on_c, 6, 58, 105
8, 98160, Note_on_c, 6, 58, 0
8, 98160, Note_on_c, 6, 62, 105
8, 98304, Note_on_c, 6, 62, 0
8, 98400, Note_on_c, 6, 60, 105
8, 98544, Note_on_c, 6, 60, 0
8, 98640, Note_on_c, 6, 57, 105
8, 98784, Note_on_c, 6, 57, 0
8, 98880, Note_on_c, 6, 58, 105
8, 99120, Note_on_c, 6, 58, 0
8, 99120, Note_on_c, 6, 62, 105
8, 99264, Note_on_c, 6, 62, 0
8, 99360, Note_on_c, 6, 60, 105
8, 99504, Note_on_c, 6, 60, 0
8, 99600, Note_on_c, 6, 57, 105
8, 99744, Note_on_c, 6, 57, 0
8, 99840, Note_on_c, 6, 58, 105
8, 100128, Note_on_c, 6, 58, 0
8, 100320, Note_on_c, 6, 74, 105
8, 100464, Note_on_c, 6, 74, 0
8, 100560, Note_on_c, 6, 72, 105
8, 100704, Note_on_c, 6, 72, 0
8, 100800, Note_on_c, 6, 70, 105
8, 100944, Note_on_c, 6, 70, 0
8, 101040, Note_on_c, 6, 69, 105
8, 101184, Note_on_c, 6, 69, 0
8, 101280, Note_on_c, 6, 67, 105
8, 101424, Note_on_c, 6, 67, 0
8, 101520, Note_on_c, 6, 65, 105
8, 101664, Note_on_c, 6, 65, 0
8, 101760, Note_on_c, 6, 67, 105
8, 102000, Note_on_c, 6, 67, 0
8, 102000, Note_on_c, 6, 63, 105
8, 102144, Note_on_c, 6, 63, 0
8, 102240, Note_on_c, 6, 68, 105
8, 102384, Note_on_c, 6, 68, 0
8, 102480, Note_on_c, 6, 65, 105
8, 102624, Note_on_c, 6, 65, 0
8, 102720, Note_on_c, 6, 67, 105
8, 102960, Note_on_c, 6, 67, 0
8, 102960, Note_on_c, 6, 63, 105
8, 103104, Note_on_c, 6, 63, 0
8, 103200, Note_on_c, 6, 68, 105
8, 103344, Note_on_c, 6, 68, 0
8, 103440, Note_on_c, 6, 65, 105
8, 103584, Note_on_c, 6, 65, 0
8, 103680, Note_on_c, 6, 67, 105
8, 103824, Note_on_c, 6, 67, 0
8, 103920, Note_on_c, 6, 65, 105
8, 104064, Note_on_c, 6, 65, 0
8, 104160, Note_on_c, 6, 63, 105
8, 104304, Note_on_c, 6, 63, 0
8, 104400, Note_on_c, 6, 62, 105
8, 104544, Note_on_c, 6, 62, 0
8, 104640, Note_on_c, 6, 60, 105
8, 104784, Note_on_c, 6, 60, 0
8, 104880, Note_on_c, 6, 58, 105
8, 105024, Note_on_c, 6, 58, 0
8, 105120, Note_on_c, 6, 57, 105
8, 105264, Note_on_c, 6, 57, 0
8, 105360, Note_on_c, 6, 58, 105
8, 105504, Note_on_c, 6, 58, 0
8, 105600, Note_on_c, 6, 60, 105
8, 105840, Note_on_c, 6, 60, 0
8, 105840, Note_on_c, 6, 58, 105
8, 105984, Note_on_c, 6, 58, 0
8, 106080, Note_on_c, 6, 57, 105
8, 106224, Note_on_c, 6, 57, 0
8, 106320, Note_on_c, 6, 58, 105
8, 106464, Note_on_c, 6, 58, 0
8, 106560, Note_on_c, 6, 60, 105
8, 106800, Note_on_c, 6, 60, 0
8, 106800, Note_on_c, 6, 58, 105
8, 106944, Note_on_c, 6, 58, 0
8, 107040, Note_on_c, 6, 57, 105
8, 107184, Note_on_c, 6, 57, 0
8, 107280, Note_on_c, 6, 58, 105
8, 107424, Note_on_c, 6, 58, 0
8, 107520, Note_on_c, 6, 60, 105
8, 108672, Note_on_c, 6, 60, 0
8, 109200, Note_on_c, 6, 69, 105
8, 109392, Note_on_c, 6, 69, 0
8, 109440, Note_on_c, 6, 70, 125
8, 109632, Note_on_c, 6, 70, 0
8, 109680, Note_on_c, 6, 69, 105
8, 109872, Note_on_c, 6, 69, 0
8, 109920, Note_on_c, 6, 67, 105
8, 110112, Note_on_c, 6, 67, 0
8, 110160, Note_on_c, 6, 65, 105
8, 110352, Note_on_c, 6, 65, 0
8, 110400, Note_on_c, 6, 63, 105
8, 110592, Note_on_c, 6, 63, 0
8, 110640, Note_on_c, 6, 62, 105
8, 110832, Note_on_c, 6, 62, 0
8, 110880, Note_on_c, 6, 60, 105
8, 111072, Note_on_c, 6, 60, 0
8, 111120, Note_on_c, 6, 58, 105
8, 111312, Note_on_c, 6, 58, 0
8, 111360, Note_on_c, 6, 57, 105
8, 112512, Note_on_c, 6, 57, 0
8, 113040, Note_on_c, 6, 69, 105
8, 113232, Note_on_c, 6, 69, 0
8, 113280, Note_on_c, 6, 67, 125
8, 113472, Note_on_c, 6, 67, 0
8, 113520, Note_on_c, 6, 65, 105
8, 113712, Note_on_c, 6, 65, 0
8, 113760, Note_on_c, 6, 63, 105
8, 113952, Note_on_c, 6, 63, 0
8, 114000, Note_on_c, 6, 62, 105
8, 114192, Note_on_c, 6, 62, 0
8, 114240, Note_on_c, 6, 60, 105
8, 114432, Note_on_c, 6, 60, 0
8, 114480, Note_on_c, 6, 58, 105
8, 114672, Note_on_c, 6, 58, 0
8, 114720, Note_on_c, 6, 57, 105
8, 114912, Note_on_c, 6, 57, 0
8, 114960, Note_on_c, 6, 55, 105
8, 115152, Note_on_c, 6, 55, 0
8, 115200, Note_on_c, 6, 53, 105
8, 116352, Note_on_c, 6, 53, 0
8, 116880, Note_on_c, 6, 65, 105
8, 117072, Note_on_c, 6, 65, 0
8, 117120, Note_on_c, 6, 63, 125
8, 117312, Note_on_c, 6, 63, 0
8, 117360, Note_on_c, 6, 62, 105
8, 117552, Note_on_c, 6, 62, 0
8, 117600, Note_on_c, 6, 60, 105
8, 117792, Note_on_c, 6, 60, 0
8, 117840, Note_on_c, 6, 58, 105
8, 118032, Note_on_c, 6, 58, 0
8, 118080, Note_on_c, 6, 56, 105
8, 118272, Note_on_c, 6, 56, 0
8, 118320, Note_on_c, 6, 55, 105
8, 118512, Note_on_c, 6, 55, 0
8, 118560, Note_on_c, 6, 53, 105
8, 118752, Note_on_c, 6, 53, 0
8, 118800, Note_on_c, 6, 51, 105
8, 118992, Note_on_c, 6, 51, 0
8, 119040, Note_on_c, 6, 50, 105
8, 119808, Note_on_c, 6, 50, 0
8, 120960, Note_on_c, 6, 51, 105
8, 121728, Note_on_c, 6, 51, 0
8, 121920, Note_on_c, 6, 53, 105
8, 122688, Note_on_c, 6, 53, 0
8, 122880, Note_on_c, 6, 55, 105
8, 124416, Note_on_c, 6, 55, 0
8, 124800, Note_on_c, 6, 48, 105
8, 125184, Note_on_c, 6, 48, 0
8, 125280, Note_on_c, 6, 65, 105
8, 125664, Note_on_c, 6, 65, 0
8, 125760, Note_on_c, 6, 65, 105
8, 126144, Note_on_c, 6, 65, 0
8, 126240, Note_on_c, 6, 65, 105
8, 126624, Note_on_c, 6, 65, 0
8, 126720, Note_on_c, 6, 65, 105
8, 127104, Note_on_c, 6, 65, 0
8, 127200, Note_on_c, 6, 65, 105
8, 127584, Note_on_c, 6, 65, 0
8, 127680, Note_on_c, 6, 65, 105
8, 128064, Note_on_c, 6, 65, 0
8, 128160, Note_on_c, 6, 65, 105
8, 128544, Note_on_c, 6, 65, 0
8, 128640, Note_on_c, 6, 65, 105
8, 129024, Note_on_c, 6, 65, 0
8, 129120, Note_on_c, 6, 65, 105
8, 129504, Note_on_c, 6, 65, 0
8, 129600, Note_on_c, 6, 65, 105
8, 129984, Note_on_c, 6, 65, 0
8, 130080, Note_on_c, 6, 65, 105
8, 130464, Note_on_c, 6, 65, 0
8, 130560, Note_on_c, 6, 65, 105
8, 130944, Note_on_c, 6, 65, 0
8, 131040, Note_on_c, 6, 65, 105
8, 131424, Note_on_c, 6, 65, 0
8, 131520, Note_on_c, 6, 65, 105
8, 131904, Note_on_c, 6, 65, 0
8, 132000, Note_on_c, 6, 65, 105
8, 132384, Note_on_c, 6, 65, 0
8, 132480, Note_on_c, 6, 65, 105
8, 132864, Note_on_c, 6, 65, 0
8, 133440, Note_on_c, 6, 65, 105
8, 133824, Note_on_c, 6, 65, 0
8, 134400, Note_on_c, 6, 53, 92
8, 135168, Note_on_c, 6, 53, 0
8, 136320, Note_on_c, 6, 70, 58
8, 136704, Note_on_c, 6, 70, 0
8, 136800, Note_on_c, 6, 70, 58
8, 137184, Note_on_c, 6, 70, 0
8, 137280, Note_on_c, 6, 70, 58
8, 137664, Note_on_c, 6, 70, 0
8, 137760, Note_on_c, 6, 70, 58
8, 138144, Note_on_c, 6, 70, 0
8, 138240, Note_on_c, 6, 69, 58
8, 138624, Note_on_c, 6, 69, 0
8, 138720, Note_on_c, 6, 69, 58
8, 139104, Note_on_c, 6, 69, 0
8, 139200, Note_on_c, 6, 69, 58
8, 139584, Note_on_c, 6, 69, 0
8, 139680, Note_on_c, 6, 69, 58
8, 140064, Note_on_c, 6, 69, 0
8, 140160, Note_on_c, 6, 67, 58
8, 140544, Note_on_c, 6, 67, 0
8, 140640, Note_on_c, 6, 67, 58
8, 141024, Note_on_c, 6, 67, 0
8, 141120, Note_on_c, 6, 67, 58
8, 141504, Note_on_c, 6, 67, 0
8, 141600, Note_on_c, 6, 67, 58
8, 141984, Note_on_c, 6, 67, 0
8, 142080, Note_on_c, 6, 65, 58
8, 142464, Note_on_c, 6, 65, 0
8, 142560, Note_on_c, 6, 65, 58
8, 142944, Note_on_c, 6, 65, 0
8, 143040, Note_on_c, 6, 65, 58
8, 143424, Note_on_c, 6, 65, 0
8, 143520, Note_on_c, 6, 65, 58
8, 143904, Note_on_c, 6, 65, 0
8, 144000, Note_on_c, 6, 63, 58
8, 146304, Note_on_c, 6, 63, 0
8, 147840, Note_on_c, 6, 53, 58
8, 148224, Note_on_c, 6, 53, 0
8, 148320, Note_on_c, 6, 53, 58
8, 148704, Note_on_c, 6, 53, 0
8, 148800, Note_on_c, 6, 53, 58
8, 149184, Note_on_c, 6, 53, 0
8, 149280, Note_on_c, 6, 53, 58
8, 149664, Note_on_c, 6, 53, 0
8, 149760, Note_on_c, 6, 53, 58
8, 150144, Note_on_c, 6, 53, 0
8, 151680, Note_on_c, 6, 70, 70
8, 152064, Note_on_c, 6, 70, 0
8, 152160, Note_on_c, 6, 70, 70
8, 152544, Note_on_c, 6, 70, 0
8, 152640, Note_on_c, 6, 70, 70
8, 153024, Note_on_c, 6, 70, 0
8, 153120, Note_on_c, 6, 70, 70
8, 153504, Note_on_c, 6, 70, 0
8, 153600, Note_on_c, 6, 69, 70
8, 153984, Note_on_c, 6, 69, 0
8, 154080, Note_on_c, 6, 69, 70
8, 154464, Note_on_c, 6, 69, 0
8, 154560, Note_on_c, 6, 69, 70
8, 154944, Note_on_c, 6, 69, 0
8, 155040, Note_on_c, 6, 69, 70
8, 155424, Note_on_c, 6, 69, 0
8, 155520, Note_on_c, 6, 67, 58
8, 158352, Note_on_c, 6, 67, 0
8, 158400, Note_on_c, 6, 65, 58
8, 159312, Note_on_c, 6, 65, 0
8, 159360, Note_on_c, 6, 63, 58
8, 159744, Note_on_c, 6, 63, 0
8, 161280, Note_on_c, 6, 53, 58
8, 163200, Note_on_c, 6, 53, 0
8, 163200, Note_on_c, 6, 58, 58
8, 163584, Note_on_c, 6, 58, 0
8, 182400, Note_on_c, 6, 53, 58
8, 186240, Note_on_c, 6, 53, 0
8, 186240, Note_on_c, 6, 55, 58
8, 187104, Note_on_c, 6, 55, 0
8, 187200, Note_on_c, 6, 55, 58
8, 187920, Note_on_c, 6, 55, 0
8, 187920, Note_on_c, 6, 57, 58
8, 188160, Note_on_c, 6, 57, 0
8, 188160, Note_on_c, 6, 58, 58
8, 189120, Note_on_c, 6, 58, 0
8, 189120, Note_on_c, 6, 56, 58
8, 189888, Note_on_c, 6, 56, 0
8, 190080, Note_on_c, 6, 55, 58
8, 191616, Note_on_c, 6, 55, 0
8, 192000, Note_on_c, 6, 53, 58
8, 192624, Note_on_c, 6, 53, 0
8, 192960, Note_on_c, 6, 51, 58
8, 193584, Note_on_c, 6, 51, 0
8, 193920, Note_on_c, 6, 50, 92
8, 194688, Note_on_c, 6, 50, 0
8, 195840, Note_on_c, 6, 62, 92
8, 196224, Note_on_c, 6, 62, 0
8, 196320, Note_on_c, 6, 63, 105
8, 196704, Note_on_c, 6, 63, 0
8, 196800, Note_on_c, 6, 62, 105
8, 197184, Note_on_c, 6, 62, 0
8, 197280, Note_on_c, 6, 63, 105
8, 197664, Note_on_c, 6, 63, 0
8, 197760, Note_on_c, 6, 62, 105
8, 198528, Note_on_c, 6, 62, 0
8, 199680, Note_on_c, 6, 62, 105
8, 200064, Note_on_c, 6, 62, 0
8, 200160, Note_on_c, 6, 63, 105
8, 200544, Note_on_c, 6, 63, 0
8, 200640, Note_on_c, 6, 62, 105
8, 201024, Note_on_c, 6, 62, 0
8, 201120, Note_on_c, 6, 63, 105
8, 201504, Note_on_c, 6, 63, 0
8, 201600, Note_on_c, 6, 62, 105
8, 202368, Note_on_c, 6, 62, 0
8, 203520, Note_on_c, 6, 62, 105
8, 203904, Note_on_c, 6, 62, 0
8, 204000, Note_on_c, 6, 63, 105
8, 204384, Note_on_c, 6, 63, 0
8, 204480, Note_on_c, 6, 62, 105
8, 204864, Note_on_c, 6, 62, 0
8, 204960, Note_on_c, 6, 63, 105
8, 205344, Note_on_c, 6, 63, 0
8, 205440, Note_on_c, 6, 62, 105
8, 205824, Note_on_c, 6, 62, 0
8, 206400, Note_on_c, 6, 63, 105
8, 206784, Note_on_c, 6, 63, 0
8, 207360, Note_on_c, 6, 65, 105
8, 207744, Note_on_c, 6, 65, 0
8, 208320, Note_on_c, 6, 53, 105
8, 208704, Note_on_c, 6, 53, 0
8, 209280, Note_on_c, 6, 58, 92
8, 209664, Note_on_c, 6, 58, 0
8, 211200, Note_on_c, 6, 53, 58
8, 211584, Note_on_c, 6, 53, 0
8, 211680, Note_on_c, 6, 53, 58
8, 212448, Note_on_c, 6, 53, 0
8, 212640, Note_on_c, 6, 53, 58
8, 213504, Note_on_c, 6, 53, 0
8, 215040, Note_on_c, 6, 53, 58
8, 215424, Note_on_c, 6, 53, 0
8, 215520, Note_on_c, 6, 53, 58
8, 216288, Note_on_c, 6, 53, 0
8, 216480, Note_on_c, 6, 53, 58
8, 217344, Note_on_c, 6, 53, 0
8, 218880, Note_on_c, 6, 62, 105
8, 219264, Note_on_c, 6, 62, 0
8, 219360, Note_on_c, 6, 63, 105
8, 219744, Note_on_c, 6, 63, 0
8, 219840, Note_on_c, 6, 62, 105
8, 220224, Note_on_c, 6, 62, 0
8, 220320, Note_on_c, 6, 63, 105
8, 220704, Note_on_c, 6, 63, 0
8, 220800, Note_on_c, 6, 62, 105
8, 221184, Note_on_c, 6, 62, 0
8, 221280, Note_on_c, 6, 62, 105
8, 221664, Note_on_c, 6, 62, 0
8, 221760, Note_on_c, 6, 63, 105
8, 222144, Note_on_c, 6, 63, 0
8, 222240, Note_on_c, 6, 63, 105
8, 222624, Note_on_c, 6, 63, 0
8, 222720, Note_on_c, 6, 65, 105
8, 223104, Note_on_c, 6, 65, 0
8, 223200, Note_on_c, 6, 65, 105
8, 223584, Note_on_c, 6, 65, 0
8, 223680, Note_on_c, 6, 53, 105
8, 224064, Note_on_c, 6, 53, 0
8, 224160, Note_on_c, 6, 53, 105
8, 224544, Note_on_c, 6, 53, 0
8, 224640, Note_on_c, 6, 58, 105
8, 225024, Note_on_c, 6, 58, 0
8, 225120, Note_on_c, 6, 70, 105
8, 225888, Note_on_c, 6, 70, 0
8, 226080, Note_on_c, 6, 70, 105
8, 226272, Note_on_c, 6, 70, 0
8, 226320, Note_on_c, 6, 70, 105
8, 226512, Note_on_c, 6, 70, 0
8, 226560, Note_on_c, 6, 72, 105
8, 226752, Note_on_c, 6, 72, 0
8, 226800, Note_on_c, 6, 72, 105
8, 226992, Note_on_c, 6, 72, 0
8, 227040, Note_on_c, 6, 72, 105
8, 227232, Note_on_c, 6, 72, 0
8, 227280, Note_on_c, 6, 72, 105
8, 227472, Note_on_c, 6, 72, 0
8, 227520, Note_on_c, 6, 72, 105
8, 227712, Note_on_c, 6, 72, 0
8, 227760, Note_on_c, 6, 72, 105
8, 227952, Note_on_c, 6, 72, 0
8, 228000, Note_on_c, 6, 72, 105
8, 228192, Note_on_c, 6, 72, 0
8, 228240, Note_on_c, 6, 72, 105
8, 228432, Note_on_c, 6, 72, 0
8, 228480, Note_on_c, 6, 70, 105
8, 228672, Note_on_c, 6, 70, 0
8, 228720, Note_on_c, 6, 70, 105
8, 228912, Note_on_c, 6, 70, 0
8, 228960, Note_on_c, 6, 70, 105
8, 229152, Note_on_c, 6, 70, 0
8, 229200, Note_on_c, 6, 70, 105
8, 229392, Note_on_c, 6, 70, 0
8, 229440, Note_on_c, 6, 70, 105
8, 229632, Note_on_c, 6, 70, 0
8, 229680, Note_on_c, 6, 70, 105
8, 229872, Note_on_c, 6, 70, 0
8, 229920, Note_on_c, 6, 70, 105
8, 230112, Note_on_c, 6, 70, 0
8, 230160, Note_on_c, 6, 70, 105
8, 230352, Note_on_c, 6, 70, 0
8, 230400, Note_on_c, 6, 72, 105
8, 230592, Note_on_c, 6, 72, 0
8, 230640, Note_on_c, 6, 72, 105
8, 230832, Note_on_c, 6, 72, 0
8, 230880, Note_on_c, 6, 72, 105
8, 231072, Note_on_c, 6, 72, 0
8, 231120, Note_on_c, 6, 72, 105
8, 231312, Note_on_c, 6, 72, 0
8, 231360, Note_on_c, 6, 72, 105
8, 231552, Note_on_c, 6, 72, 0
8, 231600, Note_on_c, 6, 72, 105
8, 231792, Note_on_c, 6, 72, 0
8, 231840, Note_on_c, 6, 72, 105
8, 232032, Note_on_c, 6, 72, 0
8, 232080, Note_on_c, 6, 72, 105
8, 232272, Note_on_c, 6, 72, 0
8, 232320, Note_on_c, 6, 70, 105
8, 232512, Note_on_c, 6, 70, 0
8, 232560, Note_on_c, 6, 70, 105
8, 232752, Note_on_c, 6, 70, 0
8, 232800, Note_on_c, 6, 70, 105
8, 232992, Note_on_c, 6, 70, 0
8, 233040, Note_on_c, 6, 70, 105
8, 233232, Note_on_c, 6, 70, 0
8, 233280, Note_on_c, 6, 70, 105
8, 233472, Note_on_c, 6, 70, 0
8, 233520, Note_on_c, 6, 70, 105
8, 233712, Note_on_c, 6, 70, 0
8, 233760, Note_on_c, 6, 70, 105
8, 233952, Note_on_c, 6, 70, 0
8, 234000, Note_on_c, 6, 70, 105
8, 234192, Note_on_c, 6, 70, 0
8, 234240, Note_on_c, 6, 72, 105
8, 234432, Note_on_c, 6, 72, 0
8, 234480, Note_on_c, 6, 72, 105
8, 234672, Note_on_c, 6, 72, 0
8, 234720, Note_on_c, 6, 72, 105
8, 234912, Note_on_c, 6, 72, 0
8, 234960, Note_on_c, 6, 72, 105
8, 235152, Note_on_c, 6, 72, 0
8, 235200, Note_on_c, 6, 72, 105
8, 235392, Note_on_c, 6, 72, 0
8, 235440, Note_on_c, 6, 72, 105
8, 235632, Note_on_c, 6, 72, 0
8, 235680, Note_on_c, 6, 72, 105
8, 235872, Note_on_c, 6, 72, 0
8, 235920, Note_on_c, 6, 72, 105
8, 236112, Note_on_c, 6, 72, 0
8, 236160, Note_on_c, 6, 70, 105
8, 236544, Note_on_c, 6, 70, 0
8, 237120, Note_on_c, 6, 70, 105
8, 237504, Note_on_c, 6, 70, 0
8, 238080, Note_on_c, 6, 58, 92
8, 238848, Note_on_c, 6, 58, 0
8, 240480, Note_on_c, 6, 58, 58
8, 240768, Note_on_c, 6, 58, 0
8, 240960, Note_on_c, 6, 58, 58
8, 241248, Note_on_c, 6, 58, 0
8, 241440, Note_on_c, 6, 58, 58
8, 241728, Note_on_c, 6, 58, 0
8, 242400, Note_on_c, 6, 61, 58
8, 242688, Note_on_c, 6, 61, 0
8, 242880, Note_on_c, 6, 61, 58
8, 243168, Note_on_c, 6, 61, 0
8, 243360, Note_on_c, 6, 69, 58
8, 244224, Note_on_c, 6, 69, 0
8, 244320, Note_on_c, 6, 69, 105
8, 245088, Note_on_c, 6, 69, 0
8, 245280, Note_on_c, 6, 69, 105
8, 245664, Note_on_c, 6, 69, 0
8, 245760, Note_on_c, 6, 69, 105
8, 246528, Note_on_c, 6, 69, 0
8, 248160, Note_on_c, 6, 60, 58
8, 248448, Note_on_c, 6, 60, 0
8, 248640, Note_on_c, 6, 60, 58
8, 248928, Note_on_c, 6, 60, 0
8, 249120, Note_on_c, 6, 60, 58
8, 249408, Note_on_c, 6, 60, 0
8, 250080, Note_on_c, 6, 60, 58
8, 250368, Note_on_c, 6, 60, 0
8, 250560, Note_on_c, 6, 60, 58
8, 250848, Note_on_c, 6, 60, 0
8, 251040, Note_on_c, 6, 62, 105
8, 251808, Note_on_c, 6, 62, 0
8, 252000, Note_on_c, 6, 62, 105
8, 252576, Note_on_c, 6, 62, 0
8, 252960, Note_on_c, 6, 62, 105
8, 253248, Note_on_c, 6, 62, 0
8, 253440, Note_on_c, 6, 62, 105
8, 254208, Note_on_c, 6, 62, 0
8, 255840, Note_on_c, 6, 58, 58
8, 256128, Note_on_c, 6, 58, 0
8, 256320, Note_on_c, 6, 58, 58
8, 256608, Note_on_c, 6, 58, 0
8, 256800, Note_on_c, 6, 58, 58
8, 257088, Note_on_c, 6, 58, 0
8, 257760, Note_on_c, 6, 61, 58
8, 258048, Note_on_c, 6, 61, 0
8, 258240, Note_on_c, 6, 61, 58
8, 258528, Note_on_c, 6, 61, 0
8, 258720, Note_on_c, 6, 69, 105
8, 259584, Note_on_c, 6, 69, 0
8, 259680, Note_on_c, 6, 69, 105
8, 260448, Note_on_c, 6, 69, 0
8, 260640, Note_on_c, 6, 69, 105
8, 261024, Note_on_c, 6, 69, 0
8, 261120, Note_on_c, 6, 69, 105
8, 261888, Note_on_c, 6, 69, 0
8, 263520, Note_on_c, 6, 60, 58
8, 263808, Note_on_c, 6, 60, 0
8, 264000, Note_on_c, 6, 60, 58
8, 264288, Note_on_c, 6, 60, 0
8, 264480, Note_on_c, 6, 60, 58
8, 264768, Note_on_c, 6, 60, 0
8, 265440, Note_on_c, 6, 60, 58
8, 265728, Note_on_c, 6, 60, 0
8, 265920, Note_on_c, 6, 60, 58
8, 266208, Note_on_c, 6, 60, 0
8, 266400, Note_on_c, 6, 62, 105
8, 267168, Note_on_c, 6, 62, 0
8, 267360, Note_on_c, 6, 62, 105
8, 267936, Note_on_c, 6, 62, 0
8, 268320, Note_on_c, 6, 62, 105
8, 268608, Note_on_c, 6, 62, 0
8, 268800, Note_on_c, 6, 62, 105
8, 269568, Note_on_c, 6, 62, 0
8, 270240, Note_on_c, 6, 62, 105
8, 270528, Note_on_c, 6, 62, 0
8, 270720, Note_on_c, 6, 62, 105
8, 271008, Note_on_c, 6, 62, 0
8, 271200, Note_on_c, 6, 66, 70
8, 271488, Note_on_c, 6, 66, 0
8, 271680, Note_on_c, 6, 66, 70
8, 271968, Note_on_c, 6, 66, 0
8, 272160, Note_on_c, 6, 66, 70
8, 272448, Note_on_c, 6, 66, 0
8, 272640, Note_on_c, 6, 67, 70
8, 273120, Note_on_c, 6, 67, 0
8, 273120, Note_on_c, 6, 66, 58
8, 273408, Note_on_c, 6, 66, 0
8, 273600, Note_on_c, 6, 66, 58
8, 273888, Note_on_c, 6, 66, 0
8, 274080, Note_on_c, 6, 62, 105
8, 274368, Note_on_c, 6, 62, 0
8, 274560, Note_on_c, 6, 62, 105
8, 274848, Note_on_c, 6, 62, 0
8, 275040, Note_on_c, 6, 66, 70
8, 275328, Note_on_c, 6, 66, 0
8, 275520, Note_on_c, 6, 66, 70
8, 275808, Note_on_c, 6, 66, 0
8, 276000, Note_on_c, 6, 66, 70
8, 276288, Note_on_c, 6, 66, 0
8, 276480, Note_on_c, 6, 67, 70
8, 276960, Note_on_c, 6, 67, 0
8, 276960, Note_on_c, 6, 66, 58
8, 277248, Note_on_c, 6, 66, 0
8, 277440, Note_on_c, 6, 66, 58
8, 277728, Note_on_c, 6, 66, 0
8, 278880, Note_on_c, 6, 60, 58
8, 279168, Note_on_c, 6, 60, 0
8, 279360, Note_on_c, 6, 60, 58
8, 279648, Note_on_c, 6, 60, 0
8, 279840, Note_on_c, 6, 60, 58
8, 280128, Note_on_c, 6, 60, 0
8, 280800, Note_on_c, 6, 60, 58
8, 281184, Note_on_c, 6, 60, 0
8, 281280, Note_on_c, 6, 60, 58
8, 281664, Note_on_c, 6, 60, 0
8, 281760, Note_on_c, 6, 62, 105
8, 282624, Note_on_c, 6, 62, 0
8, 282720, Note_on_c, 6, 62, 105
8, 283488, Note_on_c, 6, 62, 0
8, 283680, Note_on_c, 6, 62, 105
8, 284064, Note_on_c, 6, 62, 0
8, 284160, Note_on_c, 6, 62, 105
8, 284928, Note_on_c, 6, 62, 0
8, 285600, Note_on_c, 6, 62, 105
8, 285888, Note_on_c, 6, 62, 0
8, 286080, Note_on_c, 6, 62, 105
8, 286368, Note_on_c, 6, 62, 0
8, 286560, Note_on_c, 6, 66, 70
8, 286848, Note_on_c, 6, 66, 0
8, 287040, Note_on_c, 6, 66, 70
8, 287328, Note_on_c, 6, 66, 0
8, 287520, Note_on_c, 6, 66, 70
8, 287808, Note_on_c, 6, 66, 0
8, 288000, Note_on_c, 6, 67, 70
8, 288480, Note_on_c, 6, 67, 0
8, 288480, Note_on_c, 6, 66, 70
8, 288768, Note_on_c, 6, 66, 0
8, 288960, Note_on_c, 6, 66, 58
8, 289248, Note_on_c, 6, 66, 0
8, 289440, Note_on_c, 6, 62, 105
8, 289728, Note_on_c, 6, 62, 0
8, 289920, Note_on_c, 6, 62, 105
8, 290208, Note_on_c, 6, 62, 0
8, 290400, Note_on_c, 6, 66, 70
8, 290688, Note_on_c, 6, 66, 0
8, 290880, Note_on_c, 6, 66, 70
8, 291168, Note_on_c, 6, 66, 0
8, 291360, Note_on_c, 6, 66, 70
8, 291648, Note_on_c, 6, 66, 0
8, 291840, Note_on_c, 6, 67, 70
8, 292320, Note_on_c, 6, 67, 0
8, 292320, Note_on_c, 6, 66, 58
8, 292608, Note_on_c, 6, 66, 0
8, 292800, Note_on_c, 6, 66, 58
8, 293088, Note_on_c, 6, 66, 0
8, 294240, Note_on_c, 6, 60, 58
8, 294528, Note_on_c, 6, 60, 0
8, 294720, Note_on_c, 6, 60, 58
8, 295008, Note_on_c, 6, 60, 0
8, 295200, Note_on_c, 6, 60, 58
8, 295488, Note_on_c, 6, 60, 0
8, 296160, Note_on_c, 6, 60, 58
8, 296544, Note_on_c, 6, 60, 0
8, 296640, Note_on_c, 6, 60, 58
8, 297024, Note_on_c, 6, 60, 0
8, 297120, Note_on_c, 6, 62, 105
8, 297984, Note_on_c, 6, 62, 0
8, 298080, Note_on_c, 6, 62, 105
8, 298848, Note_on_c, 6, 62, 0
8, 299040, Note_on_c, 6, 62, 105
8, 299424, Note_on_c, 6, 62, 0
8, 299520, Note_on_c, 6, 62, 105
8, 300288, Note_on_c, 6, 62, 0
8, 301440, Note_on_c, 6, 67, 105
8, 301728, Note_on_c, 6, 67, 0
8, 301920, Note_on_c, 6, 68, 105
8, 302208, Note_on_c, 6, 68, 0
8, 302400, Note_on_c, 6, 67, 105
8, 302688, Note_on_c, 6, 67, 0
8, 302880, Note_on_c, 6, 68, 105
8, 303168, Note_on_c, 6, 68, 0
8, 303360, Note_on_c, 6, 67, 105
8, 304128, Note_on_c, 6, 67, 0
8, 305280, Note_on_c, 6, 57, 105
8, 305568, Note_on_c, 6, 57, 0
8, 305760, Note_on_c, 6, 57, 105
8, 306624, Note_on_c, 6, 57, 0
8, 306720, Note_on_c, 6, 57, 105
8, 307008, Note_on_c, 6, 57, 0
8, 307200, Note_on_c, 6, 57, 105
8, 307968, Note_on_c, 6, 57, 0
8, 308640, Note_on_c, 6, 57, 105
8, 309024, Note_on_c, 6, 57, 0
8, 309120, Note_on_c, 6, 50, 105
8, 309888, Note_on_c, 6, 50, 0
8, 310560, Note_on_c, 6, 55, 105
8, 311424, Note_on_c, 6, 55, 0
8, 311520, Note_on_c, 6, 63, 105
8, 311904, Note_on_c, 6, 63, 0
8, 312000, Note_on_c, 6, 57, 105
8, 312768, Note_on_c, 6, 57, 0
8, 312960, Note_on_c, 6, 50, 105
8, 313728, Note_on_c, 6, 50, 0
8, 314400, Note_on_c, 6, 67, 105
8, 315264, Note_on_c, 6, 67, 0
8, 315360, Note_on_c, 6, 63, 105
8, 315744, Note_on_c, 6, 63, 0
8, 315840, Note_on_c, 6, 57, 105
8, 316608, Note_on_c, 6, 57, 0
8, 316800, Note_on_c, 6, 62, 105
8, 317568, Note_on_c, 6, 62, 0
8, 318240, Note_on_c, 6, 58, 105
8, 318624, Note_on_c, 6, 58, 0
8, 318720, Note_on_c, 6, 67, 105
8, 319488, Note_on_c, 6, 67, 0
8, 320160, Note_on_c, 6, 67, 105
8, 320544, Note_on_c, 6, 67, 0
8, 320640, Note_on_c, 6, 60, 105
8, 321408, Note_on_c, 6, 60, 0
8, 322080, Note_on_c, 6, 57, 105
8, 322464, Note_on_c, 6, 57, 0
8, 322560, Note_on_c, 6, 65, 105
8, 323328, Note_on_c, 6, 65, 0
8, 324000, Note_on_c, 6, 65, 105
8, 324384, Note_on_c, 6, 65, 0
8, 324480, Note_on_c, 6, 58, 105
8, 325248, Note_on_c, 6, 58, 0
8, 325920, Note_on_c, 6, 58, 105
8, 326304, Note_on_c, 6, 58, 0
8, 326400, Note_on_c, 6, 70, 105
8, 327168, Note_on_c, 6, 70, 0
8, 327840, Note_on_c, 6, 67, 105
8, 328224, Note_on_c, 6, 67, 0
8, 328320, Note_on_c, 6, 60, 105
8, 329088, Note_on_c, 6, 60, 0
8, 329760, Note_on_c, 6, 60, 105
8, 330144, Note_on_c, 6, 60, 0
8, 330240, Note_on_c, 6, 60, 105
8, 330624, Note_on_c, 6, 60, 0
8, 330720, Note_on_c, 6, 65, 105
8, 330912, Note_on_c, 6, 65, 0
8, 330960, Note_on_c, 6, 67, 105
8, 331152, Note_on_c, 6, 67, 0
8, 331200, Note_on_c, 6, 65, 105
8, 331392, Note_on_c, 6, 65, 0
8, 331440, Note_on_c, 6, 63, 105
8, 331632, Note_on_c, 6, 63, 0
8, 331680, Note_on_c, 6, 62, 105
8, 331872, Note_on_c, 6, 62, 0
8, 331920, Note_on_c, 6, 60, 105
8, 332112, Note_on_c, 6, 60, 0
8, 332160, Note_on_c, 6, 62, 105
8, 332400, Note_on_c, 6, 62, 0
8, 332400, Note_on_c, 6, 65, 105
8, 332544, Note_on_c, 6, 65, 0
8, 332640, Note_on_c, 6, 63, 105
8, 332784, Note_on_c, 6, 63, 0
8, 332880, Note_on_c, 6, 60, 105
8, 333024, Note_on_c, 6, 60, 0
8, 333120, Note_on_c, 6, 62, 105
8, 333360, Note_on_c, 6, 62, 0
8, 333360, Note_on_c, 6, 65, 105
8, 333504, Note_on_c, 6, 65, 0
8, 333600, Note_on_c, 6, 63, 105
8, 333744, Note_on_c, 6, 63, 0
8, 333840, Note_on_c, 6, 60, 105
8, 333984, Note_on_c, 6, 60, 0
8, 334080, Note_on_c, 6, 62, 105
8, 334272, Note_on_c, 6, 62, 0
8, 334320, Note_on_c, 6, 63, 105
8, 334512, Note_on_c, 6, 63, 0
8, 334560, Note_on_c, 6, 65, 105
8, 334752, Note_on_c, 6, 65, 0
8, 334800, Note_on_c, 6, 63, 105
8, 334992, Note_on_c, 6, 63, 0
8, 335040, Note_on_c, 6, 62, 105
8, 335232, Note_on_c, 6, 62, 0
8, 335280, Note_on_c, 6, 60, 105
8, 335472, Note_on_c, 6, 60, 0
8, 335520, Note_on_c, 6, 58, 105
8, 335712, Note_on_c, 6, 58, 0
8, 335760, Note_on_c, 6, 57, 105
8, 335952, Note_on_c, 6, 57, 0
8, 336000, Note_on_c, 6, 58, 105
8, 336240, Note_on_c, 6, 58, 0
8, 336240, Note_on_c, 6, 62, 105
8, 336384, Note_on_c, 6, 62, 0
8, 336480, Note_on_c, 6, 60, 105
8, 336624, Note_on_c, 6, 60, 0
8, 336720, Note_on_c, 6, 57, 105
8, 336864, Note_on_c, 6, 57, 0
8, 336960, Note_on_c, 6, 58, 105
8, 337200, Note_on_c, 6, 58, 0
8, 337200, Note_on_c, 6, 62, 105
8, 337344, Note_on_c, 6, 62, 0
8, 337440, Note_on_c, 6, 60, 105
8, 337584, Note_on_c, 6, 60, 0
8, 337680, Note_on_c, 6, 57, 105
8, 337824, Note_on_c, 6, 57, 0
8, 337920, Note_on_c, 6, 58, 105
8, 338208, Note_on_c, 6, 58, 0
8, 338400, Note_on_c, 6, 74, 105
8, 338544, Note_on_c, 6, 74, 0
8, 338640, Note_on_c, 6, 72, 105
8, 338784, Note_on_c, 6, 72, 0
8, 338880, Note_on_c, 6, 70, 105
8, 339024, Note_on_c, 6, 70, 0
8, 339120, Note_on_c, 6, 69, 105
8, 339264, Note_on_c, 6, 69, 0
8, 339360, Note_on_c, 6, 67, 105
8, 339504, Note_on_c, 6, 67, 0
8, 339600, Note_on_c, 6, 65, 105
8, 339744, Note_on_c, 6, 65, 0
8, 339840, Note_on_c, 6, 67, 105
8, 340080, Note_on_c, 6, 67, 0
8, 340080, Note_on_c, 6, 63, 105
8, 340224, Note_on_c, 6, 63, 0
8, 340320, Note_on_c, 6, 68, 105
8, 340464, Note_on_c, 6, 68, 0
8, 340560, Note_on_c, 6, 65, 105
8, 340704, Note_on_c, 6, 65, 0
8, 340800, Note_on_c, 6, 67, 105
8, 341040, Note_on_c, 6, 67, 0
8, 341040, Note_on_c, 6, 63, 105
8, 341184, Note_on_c, 6, 63, 0
8, 341280, Note_on_c, 6, 68, 105
8, 341424, Note_on_c, 6, 68, 0
8, 341520, Note_on_c, 6, 65, 105
8, 341664, Note_on_c, 6, 65, 0
8, 341760, Note_on_c, 6, 67, 105
8, 341904, Note_on_c, 6, 67, 0
8, 342000, Note_on_c, 6, 65, 105
8, 342144, Note_on_c, 6, 65, 0
8, 342240, Note_on_c, 6, 63, 105
8, 342384, Note_on_c, 6, 63, 0
8, 342480, Note_on_c, 6, 62, 105
8, 342624, Note_on_c, 6, 62, 0
8, 342720, Note_on_c, 6, 60, 105
8, 342864, Note_on_c, 6, 60, 0
8, 342960, Note_on_c, 6, 58, 105
8, 343104, Note_on_c, 6, 58, 0
8, 343200, Note_on_c, 6, 57, 105
8, 343344, Note_on_c, 6, 57, 0
8, 343440, Note_on_c, 6, 58, 105
8, 343584, Note_on_c, 6, 58, 0
8, 343680, Note_on_c, 6, 60, 105
8, 343920, Note_on_c, 6, 60, 0
8, 343920, Note_on_c, 6, 58, 105
8, 344064, Note_on_c, 6, 58, 0
8, 344160, Note_on_c, 6, 57, 105
8, 344304, Note_on_c, 6, 57, 0
8, 344400, Note_on_c, 6, 58, 105
8, 344544, Note_on_c, 6, 58, 0
8, 344640, Note_on_c, 6, 60, 105
8, 344880, Note_on_c, 6, 60, 0
8, 344880, Note_on_c, 6, 58, 105
8, 345024, Note_on_c, 6, 58, 0
8, 345120, Note_on_c, 6, 57, 105
8, 345264, Note_on_c, 6, 57, 0
8, 345360, Note_on_c, 6, 58, 105
8, 345504, Note_on_c, 6, 58, 0
8, 345600, Note_on_c, 6, 60, 105
8, 346752, Note_on_c, 6, 60, 0
8, 347280, Note_on_c, 6, 69, 105
8, 347472, Note_on_c, 6, 69, 0
8, 347520, Note_on_c, 6, 70, 125
8, 347712, Note_on_c, 6, 70, 0
8, 347760, Note_on_c, 6, 69, 105
8, 347952, Note_on_c, 6, 69, 0
8, 348000, Note_on_c, 6, 67, 105
8, 348192, Note_on_c, 6, 67, 0
8, 348240, Note_on_c, 6, 65, 105
8, 348432, Note_on_c, 6, 65, 0
8, 348480, Note_on_c, 6, 63, 105
8, 348672, Note_on_c, 6, 63, 0
8, 348720, Note_on_c, 6, 62, 105
8, 348912, Note_on_c, 6, 62, 0
8, 348960, Note_on_c, 6, 60, 105
8, 349152, Note_on_c, 6, 60, 0
8, 349200, Note_on_c, 6, 58, 105
8, 349392, Note_on_c, 6, 58, 0
8, 349440, Note_on_c, 6, 57, 105
8, 350592, Note_on_c, 6, 57, 0
8, 351120, Note_on_c, 6, 69, 105
8, 351312, Note_on_c, 6, 69, 0
8, 351360, Note_on_c, 6, 67, 125
8, 351552, Note_on_c, 6, 67, 0
8, 351600, Note_on_c, 6, 65, 105
8, 351792, Note_on_c, 6, 65, 0
8, 351840, Note_on_c, 6, 63, 105
8, 352032, Note_on_c, 6, 63, 0
8, 352080, Note_on_c, 6, 62, 105
8, 352272, Note_on_c, 6, 62, 0
8, 352320, Note_on_c, 6, 60, 105
8, 352512, Note_on_c, 6, 60, 0
8, 352560, Note_on_c, 6, 58, 105
8, 352752, Note_on_c, 6, 58, 0
8, 352800, Note_on_c, 6, 57, 105
8, 352992, Note_on_c, 6, 57, 0
8, 353040, Note_on_c, 6, 55, 105
8, 353232, Note_on_c, 6, 55, 0
8, 353280, Note_on_c, 6, 53, 105
8, 354432, Note_on_c, 6, 53, 0
8, 354960, Note_on_c, 6, 65, 105
8, 355152, Note_on_c, 6, 65, 0
8, 355200, Note_on_c, 6, 63, 125
8, 355392, Note_on_c, 6, 63, 0
8, 355440, Note_on_c, 6, 62, 105
8, 355632, Note_on_c, 6, 62, 0
8, 355680, Note_on_c, 6, 60, 105
8, 355872, Note_on_c, 6, 60, 0
8, 355920, Note_on_c, 6, 58, 105
8, 356112, Note_on_c, 6, 58, 0
8, 356160, Note_on_c, 6, 56, 105
8, 356352, Note_on_c, 6, 56, 0
8, 356400, Note_on_c, 6, 55, 105
8, 356592, Note_on_c, 6, 55, 0
8, 356640, Note_on_c, 6, 53, 105
8, 356832, Note_on_c, 6, 53, 0
8, 356880, Note_on_c, 6, 51, 105
8, 357072, Note_on_c, 6, 51, 0
8, 357120, Note_on_c, 6, 50, 105
8, 357888, Note_on_c, 6, 50, 0
8, 359040, Note_on_c, 6, 51, 105
8, 359808, Note_on_c, 6, 51, 0
8, 360000, Note_on_c, 6, 53, 105
8, 360768, Note_on_c, 6, 53, 0
8, 360960, Note_on_c, 6, 55, 105
8, 362496, Note_on_c, 6, 55, 0
8, 362880, Note_on_c, 6, 48, 105
8, 363264, Note_on_c, 6, 48, 0
8, 363360, Note_on_c, 6, 65, 105
8, 363744, Note_on_c, 6, 65, 0
8, 363840, Note_on_c, 6, 65, 105
8, 364224, Note_on_c, 6, 65, 0
8, 364320, Note_on_c, 6, 65, 105
8, 364704, Note_on_c, 6, 65, 0
8, 364800, Note_on_c, 6, 65, 105
8, 365184, Note_on_c, 6, 65, 0
8, 365280, Note_on_c, 6, 65, 105
8, 365664, Note_on_c, 6, 65, 0
8, 365760, Note_on_c, 6, 65, 105
8, 366144, Note_on_c, 6, 65, 0
8, 366240, Note_on_c, 6, 65, 105
8, 366624, Note_on_c, 6, 65, 0
8, 366720, Note_on_c, 6, 65, 105
8, 367104, Note_on_c, 6, 65, 0
8, 367200, Note_on_c, 6, 65, 105
8, 367584, Note_on_c, 6, 65, 0
8, 367680, Note_on_c, 6, 65, 105
8, 368064, Note_on_c, 6, 65, 0
8, 368160, Note_on_c, 6, 65, 105
8, 368544, Note_on_c, 6, 65, 0
8, 368640, Note_on_c, 6, 65, 105
8, 369024, Note_on_c, 6, 65, 0
8, 369120, Note_on_c, 6, 65, 105
8, 369504, Note_on_c, 6, 65, 0
8, 369600, Note_on_c, 6, 65, 105
8, 369984, Note_on_c, 6, 65, 0
8, 370080, Note_on_c, 6, 65, 105
8, 370464, Note_on_c, 6, 65, 0
8, 370560, Note_on_c, 6, 65, 105
8, 370944, Note_on_c, 6, 65, 0
8, 371520, Note_on_c, 6, 65, 105
8, 371904, Note_on_c, 6, 65, 0
8, 372480, Note_on_c, 6, 53, 92
8, 373248, Note_on_c, 6, 53, 0
8, 374400, Note_on_c, 6, 70, 58
8, 374784, Note_on_c, 6, 70, 0
8, 374880, Note_on_c, 6, 70, 58
8, 375264, Note_on_c, 6, 70, 0
8, 375360, Note_on_c, 6, 70, 58
8, 375744, Note_on_c, 6, 70, 0
8, 375840, Note_on_c, 6, 70, 58
8, 376224, Note_on_c, 6, 70, 0
8, 376320, Note_on_c, 6, 69, 58
8, 376704, Note_on_c, 6, 69, 0
8, 376800, Note_on_c, 6, 69, 58
8, 377184, Note_on_c, 6, 69, 0
8, 377280, Note_on_c, 6, 69, 58
8, 377664, Note_on_c, 6, 69, 0
8, 377760, Note_on_c, 6, 69, 58
8, 378144, Note_on_c, 6, 69, 0
8, 378240, Note_on_c, 6, 67, 58
8, 378624, Note_on_c, 6, 67, 0
8, 378720, Note_on_c, 6, 67, 58
8, 379104, Note_on_c, 6, 67, 0
8, 379200, Note_on_c, 6, 67, 58
8, 379584, Note_on_c, 6, 67, 0
8, 379680, Note_on_c, 6, 67, 58
8, 380064, Note_on_c, 6, 67, 0
8, 380160, Note_on_c, 6, 65, 58
8, 380544, Note_on_c, 6, 65, 0
8, 380640, Note_on_c, 6, 65, 58
8, 381024, Note_on_c, 6, 65, 0
8, 381120, Note_on_c, 6, 65, 58
8, 381504, Note_on_c, 6, 65, 0
8, 381600, Note_on_c, 6, 65, 58
8, 381984, Note_on_c, 6, 65, 0
8, 382080, Note_on_c, 6, 63, 58
8, 384384, Note_on_c, 6, 63, 0
8, 385920, Note_on_c, 6, 53, 58
8, 386304, Note_on_c, 6, 53, 0
8, 386400, Note_on_c, 6, 53, 58
8, 386784, Note_on_c, 6, 53, 0
8, 386880, Note_on_c, 6, 53, 58
8, 387264, Note_on_c, 6, 53, 0
8, 387360, Note_on_c, 6, 53, 58
8, 387744, Note_on_c, 6, 53, 0
8, 387840, Note_on_c, 6, 53, 58
8, 388224, Note_on_c, 6, 53, 0
8, 389760, Note_on_c, 6, 70, 70
8, 390144, Note_on_c, 6, 70, 0
8, 390240, Note_on_c, 6, 70, 70
8, 390624, Note_on_c, 6, 70, 0
8, 390720, Note_on_c, 6, 70, 70
8, 391104, Note_on_c, 6, 70, 0
8, 391200, Note_on_c, 6, 70, 70
8, 391584, Note_on_c, 6, 70, 0
8, 391680, Note_on_c, 6, 69, 70
8, 392064, Note_on_c, 6, 69, 0
8, 392160, Note_on_c, 6, 69, 70
8, 392544, Note_on_c, 6, 69, 0
8, 392640, Note_on_c, 6, 69, 70
8, 393024, Note_on_c, 6, 69, 0
8, 393120, Note_on_c, 6, 69, 70
8, 393504, Note_on_c, 6, 69, 0
8, 393600, Note_on_c, 6, 67, 58
8, 396432, Note_on_c, 6, 67, 0
8, 396480, Note_on_c, 6, 65, 58
8, 397392, Note_on_c, 6, 65, 0
8, 397440, Note_on_c, 6, 63, 58
8, 397824, Note_on_c, 6, 63, 0
8, 399360, Note_on_c, 6, 53, 58
8, 401280, Note_on_c, 6, 53, 0
8, 401280, Note_on_c, 6, 58, 58
8, 401664, Note_on_c, 6, 58, 0
8, 420480, Note_on_c, 6, 53, 58
8, 424320, Note_on_c, 6, 53, 0
8, 424320, Note_on_c, 6, 55, 58
8, 425184, Note_on_c, 6, 55, 0
8, 425280, Note_on_c, 6, 55, 58
8, 426000, Note_on_c, 6, 55, 0
8, 426000, Note_on_c, 6, 57, 58
8, 426240, Note_on_c, 6, 57, 0
8, 426240, Note_on_c, 6, 58, 58
8, 427200, Note_on_c, 6, 58, 0
8, 427200, Note_on_c, 6, 56, 58
8, 427968, Note_on_c, 6, 56, 0
8, 428160, Note_on_c, 6, 55, 58
8, 429696, Note_on_c, 6, 55, 0
8, 430080, Note_on_c, 6, 53, 58
8, 430704, Note_on_c, 6, 53, 0
8, 431040, Note_on_c, 6, 51, 58
8, 431664, Note_on_c, 6, 51, 0
8, 432000, Note_on_c, 6, 50, 92
8, 432768, Note_on_c, 6, 50, 0
8, 433920, Note_on_c, 6, 62, 92
8, 434304, Note_on_c, 6, 62, 0
8, 434400, Note_on_c, 6, 63, 105
8, 434784, Note_on_c, 6, 63, 0
8, 434880, Note_on_c, 6, 62, 105
8, 435264, Note_on_c, 6, 62, 0
8, 435360, Note_on_c, 6, 63, 105
8, 435744, Note_on_c, 6, 63, 0
8, 435840, Note_on_c, 6, 62, 105
8, 436608, Note_on_c, 6, 62, 0
8, 437760, Note_on_c, 6, 62, 105
8, 438144, Note_on_c, 6, 62, 0
8, 438240, Note_on_c, 6, 63, 105
8, 438624, Note_on_c, 6, 63, 0
8, 438720, Note_on_c, 6, 62, 105
8, 439104, Note_on_c, 6, 62, 0
8, 439200, Note_on_c, 6, 63, 105
8, 439584, Note_on_c, 6, 63, 0
8, 439680, Note_on_c, 6, 62, 105
8, 440448, Note_on_c, 6, 62, 0
8, 441600, Note_on_c, 6, 62, 105
8, 441984, Note_on_c, 6, 62, 0
8, 442080, Note_on_c, 6, 63, 105
8, 442464, Note_on_c, 6, 63, 0
8, 442560, Note_on_c, 6, 62, 105
8, 442944, Note_on_c, 6, 62, 0
8, 443040, Note_on_c, 6, 63, 105
8, 443424, Note_on_c, 6, 63, 0
8, 443520, Note_on_c, 6, 62, 105
8, 443904, Note_on_c, 6, 62, 0
8, 444480, Note_on_c, 6, 63, 105
8, 444864, Note_on_c, 6, 63, 0
8, 445440, Note_on_c, 6, 65, 105
8, 445824, Note_on_c, 6, 65, 0
8, 446400, Note_on_c, 6, 53, 105
8, 446784, Note_on_c, 6, 53, 0
8, 447360, Note_on_c, 6, 58, 92
8, 447744, Note_on_c, 6, 58, 0
8, 449280, Note_on_c, 6, 53, 58
8, 449664, Note_on_c, 6, 53, 0
8, 449760, Note_on_c, 6, 53, 58
8, 450528, Note_on_c, 6, 53, 0
8, 450720, Note_on_c, 6, 53, 58
8, 451584, Note_on_c, 6, 53, 0
8, 453120, Note_on_c, 6, 53, 58
8, 453504, Note_on_c, 6, 53, 0
8, 453600, Note_on_c, 6, 53, 58
8, 454368, Note_on_c, 6, 53, 0
8, 454560, Note_on_c, 6, 53, 58
8, 455424, Note_on_c, 6, 53, 0
8, 456960, Note_on_c, 6, 62, 105
8, 457344, Note_on_c, 6, 62, 0
8, 457440, Note_on_c, 6, 63, 105
8, 457824, Note_on_c, 6, 63, 0
8, 457920, Note_on_c, 6, 62, 105
8, 458304, Note_on_c, 6, 62, 0
8, 458400, Note_on_c, 6, 63, 105
8, 458784, Note_on_c, 6, 63, 0
8, 458880, Note_on_c, 6, 62, 105
8, 459264, Note_on_c, 6, 62, 0
8, 459360, Note_on_c, 6, 62, 105
8, 459744, Note_on_c, 6, 62, 0
8, 459840, Note_on_c, 6, 63, 105
8, 460224, Note_on_c, 6, 63, 0
8, 460320, Note_on_c, 6, 63, 105
8, 460704, Note_on_c, 6, 63, 0
8, 460800, Note_on_c, 6, 65, 105
8, 461184, Note_on_c, 6, 65, 0
8, 461280, Note_on_c, 6, 65, 105
8, 461664, Note_on_c, 6, 65, 0
8, 461760, Note_on_c, 6, 53, 105
8, 462144, Note_on_c, 6, 53, 0
8, 462240, Note_on_c, 6, 53, 105
8, 462624, Note_on_c, 6, 53, 0
8, 462720, Note_on_c, 6, 58, 105
8, 463104, Note_on_c, 6, 58, 0
8, 463200, Note_on_c, 6, 70, 105
8, 463968, Note_on_c, 6, 70, 0
8, 464160, Note_on_c, 6, 70, 105
8, 464352, Note_on_c, 6, 70, 0
8, 464400, Note_on_c, 6, 70, 105
8, 464592, Note_on_c, 6, 70, 0
8, 464640, Note_on_c, 6, 72, 105
8, 464832, Note_on_c, 6, 72, 0
8, 464880, Note_on_c, 6, 72, 105
8, 465072, Note_on_c, 6, 72, 0
8, 465120, Note_on_c, 6, 72, 105
8, 465312, Note_on_c, 6, 72, 0
8, 465360, Note_on_c, 6, 72, 105
8, 465552, Note_on_c, 6, 72, 0
8, 465600, Note_on_c, 6, 72, 105
8, 465792, Note_on_c, 6, 72, 0
8, 465840, Note_on_c, 6, 72, 105
8, 466032, Note_on_c, 6, 72, 0
8, 466080, Note_on_c, 6, 72, 105
8, 466272, Note_on_c, 6, 72, 0
8, 466320, Note_on_c, 6, 72, 105
8, 466512, Note_on_c, 6, 72, 0
8, 466560, Note_on_c, 6, 70, 105
8, 466752, Note_on_c, 6, 70, 0
8, 466800, Note_on_c, 6, 70, 105
8, 466992, Note_on_c, 6, 70, 0
8, 467040, Note_on_c, 6, 70, 105
8, 467232, Note_on_c, 6, 70, 0
8, 467280, Note_on_c, 6, 70, 105
8, 467472, Note_on_c, 6, 70, 0
8, 467520, Note_on_c, 6, 70, 105
8, 467712, Note_on_c, 6, 70, 0
8, 467760, Note_on_c, 6, 70, 105
8, 467952, Note_on_c, 6, 70, 0
8, 468000, Note_on_c, 6, 70, 105
8, 468192, Note_on_c, 6, 70, 0
8, 468240, Note_on_c, 6, 70, 105
8, 468432, Note_on_c, 6, 70, 0
8, 468480, Note_on_c, 6, 72, 105
8, 468672, Note_on_c, 6, 72, 0
8, 468720, Note_on_c, 6, 72, 105
8, 468912, Note_on_c, 6, 72, 0
8, 468960, Note_on_c, 6, 72, 105
8, 469152, Note_on_c, 6, 72, 0
8, 469200, Note_on_c, 6, 72, 105
8, 469392, Note_on_c, 6, 72, 0
8, 469440, Note_on_c, 6, 72, 105
8, 469632, Note_on_c, 6, 72, 0
8, 469680, Note_on_c, 6, 72, 105
8, 469872, Note_on_c, 6, 72, 0
8, 469920, Note_on_c, 6, 72, 105
8, 470112, Note_on_c, 6, 72, 0
8, 470160, Note_on_c, 6, 72, 105
8, 470352, Note_on_c, 6, 72, 0
8, 470400, Note_on_c, 6, 70, 105
8, 470592, Note_on_c, 6, 70, 0
8, 470640, Note_on_c, 6, 70, 105
8, 470832, Note_on_c, 6, 70, 0
8, 470880, Note_on_c, 6, 70, 105
8, 471072, Note_on_c, 6, 70, 0
8, 471120, Note_on_c, 6, 70, 105
8, 471312, Note_on_c, 6, 70, 0
8, 471360, Note_on_c, 6, 70, 105
8, 471552, Note_on_c, 6, 70, 0
8, 471600, Note_on_c, 6, 70, 105
8, 471792, Note_on_c, 6, 70, 0
8, 471840, Note_on_c, 6, 70, 105
8, 472032, Note_on_c, 6, 70, 0
8, 472080, Note_on_c, 6, 70, 105
8, 472272, Note_on_c, 6, 70, 0
8, 472320, Note_on_c, 6, 72, 105
8, 472512, Note_on_c, 6, 72, 0
8, 472560, Note_on_c, 6, 72, 105
8, 472752, Note_on_c, 6, 72, 0
8, 472800, Note_on_c, 6, 72, 105
8, 472992, Note_on_c, 6, 72, 0
8, 473040, Note_on_c, 6, 72, 105
8, 473232, Note_on_c, 6, 72, 0
8, 473280, Note_on_c, 6, 72, 105
8, 473472, Note_on_c, 6, 72, 0
8, 473520, Note_on_c, 6, 72, 105
8, 473712, Note_on_c, 6, 72, 0
8, 473760, Note_on_c, 6, 72, 105
8, 473952, Note_on_c, 6, 72, 0
8, 474000, Note_on_c, 6, 72, 105
8, 474192, Note_on_c, 6, 72, 0
8, 474240, Note_on_c, 6, 70, 105
8, 474624, Note_on_c, 6, 70, 0
8, 475200, Note_on_c, 6, 70, 105
8, 475584, Note_on_c, 6, 70, 0
8, 476160, Note_on_c, 6, 58, 92
8, 476928, Note_on_c, 6, 58, 0
8, 477600, Note_on_c, 6, 58, 112
8, 478080, Note_on_c, 6, 58, 0
8, 478080, Note_on_c, 6, 62, 105
8, 478368, Note_on_c, 6, 62, 0
8, 478560, Note_on_c, 6, 65, 105
8, 478848, Note_on_c, 6, 65, 0
8, 479040, Note_on_c, 6, 69, 105
8, 479328, Note_on_c, 6, 69, 0
8, 479520, Note_on_c, 6, 70, 105
8, 479808, Note_on_c, 6, 70, 0
8, 480000, Note_on_c, 6, 73, 105
8, 480960, Note_on_c, 6, 73, 0
8, 480960, Note_on_c, 6, 72, 105
8, 481248, Note_on_c, 6, 72, 0
8, 481440, Note_on_c, 6, 64, 105
8, 481728, Note_on_c, 6, 64, 0
8, 481920, Note_on_c, 6, 68, 105
8, 482256, Note_on_c, 6, 68, 0
8, 482880, Note_on_c, 6, 59, 105
8, 483216, Note_on_c, 6, 59, 0
8, 485520, Note_on_c, 6, 71, 105
8, 485600, Note_on_c, 6, 71, 0
8, 485600, Note_on_c, 6, 72, 105
8, 485680, Note_on_c, 6, 72, 0
8, 485680, Note_on_c, 6, 74, 105
8, 485760, Note_on_c, 6, 74, 0
8, 485760, Note_on_c, 6, 75, 105
8, 486096, Note_on_c, 6, 75, 0
8, 486720, Note_on_c, 6, 66, 105
8, 487056, Note_on_c, 6, 66, 0
8, 487680, Note_on_c, 6, 70, 105
8, 488016, Note_on_c, 6, 70, 0
8, 489600, Note_on_c, 6, 61, 105
8, 489936, Note_on_c, 6, 61, 0
8, 491520, Note_on_c, 6, 65, 105
8, 491856, Note_on_c, 6, 65, 0
8, 492480, Note_on_c, 6, 56, 105
8, 492816, Note_on_c, 6, 56, 0
8, 497760, Note_on_c, 6, 57, 58
8, 498144, Note_on_c, 6, 57, 0
8, 498240, Note_on_c, 6, 57, 58
8, 498624, Note_on_c, 6, 57, 0
8, 498720, Note_on_c, 6, 57, 58
8, 499104, Note_on_c, 6, 57, 0
8, 499680, Note_on_c, 6, 57, 58
8, 500064, Note_on_c, 6, 57, 0
8, 500160, Note_on_c, 6, 57, 58
8, 500544, Note_on_c, 6, 57, 0
8, 500640, Note_on_c, 6, 57, 58
8, 501024, Note_on_c, 6, 57, 0
8, 501600, Note_on_c, 6, 57, 58
8, 501984, Note_on_c, 6, 57, 0
8, 502080, Note_on_c, 6, 57, 58
8, 502464, Note_on_c, 6, 57, 0
8, 502560, Note_on_c, 6, 57, 58
8, 502944, Note_on_c, 6, 57, 0
8, 503520, Note_on_c, 6, 57, 58
8, 503904, Note_on_c, 6, 57, 0
8, 504000, Note_on_c, 6, 57, 58
8, 504384, Note_on_c, 6, 57, 0
8, 504480, Note_on_c, 6, 57, 58
8, 504864, Note_on_c, 6, 57, 0
8, 505440, Note_on_c, 6, 57, 58
8, 505824, Note_on_c, 6, 57, 0
8, 505920, Note_on_c, 6, 57, 58
8, 506304, Note_on_c, 6, 57, 0
8, 506400, Note_on_c, 6, 57, 58
8, 506784, Note_on_c, 6, 57, 0
8, 507360, Note_on_c, 6, 57, 58
8, 507744, Note_on_c, 6, 57, 0
8, 507840, Note_on_c, 6, 57, 58
8, 508224, Note_on_c, 6, 57, 0
8, 508320, Note_on_c, 6, 57, 58
8, 508704, Note_on_c, 6, 57, 0
8, 509280, Note_on_c, 6, 60, 58
8, 509664, Note_on_c, 6, 60, 0
8, 509760, Note_on_c, 6, 60, 58
8, 510144, Note_on_c, 6, 60, 0
8, 510240, Note_on_c, 6, 60, 58
8, 510624, Note_on_c, 6, 60, 0
8, 511200, Note_on_c, 6, 60, 58
8, 511584, Note_on_c, 6, 60, 0
8, 511680, Note_on_c, 6, 60, 58
8, 512064, Note_on_c, 6, 60, 0
8, 512160, Note_on_c, 6, 60, 58
8, 512544, Note_on_c, 6, 60, 0
8, 513120, Note_on_c, 6, 59, 58
8, 513504, Note_on_c, 6, 59, 0
8, 513600, Note_on_c, 6, 59, 58
8, 513984, Note_on_c, 6, 59, 0
8, 514080, Note_on_c, 6, 59, 58
8, 514464, Note_on_c, 6, 59, 0
8, 515040, Note_on_c, 6, 59, 58
8, 515424, Note_on_c, 6, 59, 0
8, 515520, Note_on_c, 6, 59, 58
8, 515904, Note_on_c, 6, 59, 0
8, 516000, Note_on_c, 6, 59, 58
8, 516384, Note_on_c, 6, 59, 0
8, 516960, Note_on_c, 6, 58, 58
8, 517344, Note_on_c, 6, 58, 0
8, 517440, Note_on_c, 6, 58, 58
8, 517824, Note_on_c, 6, 58, 0
8, 517920, Note_on_c, 6, 58, 58
8, 518304, Note_on_c, 6, 58, 0
8, 519840, Note_on_c, 6, 48, 58
8, 520320, Note_on_c, 6, 48, 0
8, 520320, Note_on_c, 6, 53, 116
8, 520608, Note_on_c, 6, 53, 0
8, 520800, Note_on_c, 6, 56, 116
8, 521088, Note_on_c, 6, 56, 0
8, 521280, Note_on_c, 6, 60, 116
8, 521568, Note_on_c, 6, 60, 0
8, 521760, Note_on_c, 6, 65, 116
8, 522048, Note_on_c, 6, 65, 0
8, 522240, Note_on_c, 6, 68, 116
8, 523200, Note_on_c, 6, 68, 0
8, 523200, Note_on_c, 6, 67, 116
8, 523488, Note_on_c, 6, 67, 0
8, 523680, Note_on_c, 6, 65, 116
8, 523968, Note_on_c, 6, 65, 0
8, 524160, Note_on_c, 6, 64, 105
8, 524928, Note_on_c, 6, 64, 0
8, 525600, Note_on_c, 6, 61, 105
8, 525984, Note_on_c, 6, 61, 0
8, 526080, Note_on_c, 6, 60, 105
8, 526848, Note_on_c, 6, 60, 0
8, 527520, Note_on_c, 6, 64, 105
8, 527808, Note_on_c, 6, 64, 0
8, 528000, Note_on_c, 6, 65, 105
8, 528144, Note_on_c, 6, 65, 0
8, 528240, Note_on_c, 6, 67, 105
8, 528384, Note_on_c, 6, 67, 0
8, 528480, Note_on_c, 6, 68, 105
8, 528624, Note_on_c, 6, 68, 0
8, 528720, Note_on_c, 6, 67, 105
8, 528864, Note_on_c, 6, 67, 0
8, 528960, Note_on_c, 6, 65, 105
8, 529104, Note_on_c, 6, 65, 0
8, 529200, Note_on_c, 6, 67, 105
8, 529344, Note_on_c, 6, 67, 0
8, 529440, Note_on_c, 6, 63, 105
8, 529584, Note_on_c, 6, 63, 0
8, 529680, Note_on_c, 6, 65, 105
8, 529824, Note_on_c, 6, 65, 0
8, 529920, Note_on_c, 6, 62, 105
8, 531456, Note_on_c, 6, 62, 0
8, 531840, Note_on_c, 6, 63, 105
8, 532992, Note_on_c, 6, 63, 0
8, 533280, Note_on_c, 6, 58, 105
8, 533568, Note_on_c, 6, 58, 0
8, 533760, Note_on_c, 6, 55, 105
8, 534048, Note_on_c, 6, 55, 0
8, 534240, Note_on_c, 6, 51, 105
8, 534528, Note_on_c, 6, 51, 0
8, 535200, Note_on_c, 6, 65, 105
8, 535968, Note_on_c, 6, 65, 0
8, 536160, Note_on_c, 6, 68, 105
8, 536304, Note_on_c, 6, 68, 0
8, 536400, Note_on_c, 6, 67, 105
8, 536544, Note_on_c, 6, 67, 0
8, 536640, Note_on_c, 6, 65, 105
8, 536784, Note_on_c, 6, 65, 0
8, 536880, Note_on_c, 6, 63, 105
8, 537024, Note_on_c, 6, 63, 0
8, 537120, Note_on_c, 6, 62, 105
8, 537264, Note_on_c, 6, 62, 0
8, 537360, Note_on_c, 6, 63, 105
8, 537504, Note_on_c, 6, 63, 0
8, 537600, Note_on_c, 6, 65, 105
8, 537888, Note_on_c, 6, 65, 0
8, 538080, Note_on_c, 6, 58, 105
8, 538368, Note_on_c, 6, 58, 0
8, 538560, Note_on_c, 6, 70, 105
8, 539808, Note_on_c, 6, 70, 0
8, 540000, Note_on_c, 6, 67, 105
8, 540288, Note_on_c, 6, 67, 0
8, 540480, Note_on_c, 6, 63, 105
8, 540768, Note_on_c, 6, 63, 0
8, 540960, Note_on_c, 6, 67, 105
8, 541824, Note_on_c, 6, 67, 0
8, 541920, Note_on_c, 6, 68, 105
8, 542112, Note_on_c, 6, 68, 0
8, 542160, Note_on_c, 6, 70, 105
8, 542352, Note_on_c, 6, 70, 0
8, 542400, Note_on_c, 6, 68, 105
8, 543744, Note_on_c, 6, 68, 0
8, 543840, Note_on_c, 6, 65, 105
8, 544224, Note_on_c, 6, 65, 0
8, 544320, Note_on_c, 6, 62, 105
8, 544704, Note_on_c, 6, 62, 0
8, 544800, Note_on_c, 6, 65, 105
8, 545664, Note_on_c, 6, 65, 0
8, 545760, Note_on_c, 6, 67, 105
8, 545952, Note_on_c, 6, 67, 0
8, 546000, Note_on_c, 6, 68, 105
8, 546192, Note_on_c, 6, 68, 0
8, 546240, Note_on_c, 6, 67, 105
8, 546432, Note_on_c, 6, 67, 0
8, 546480, Note_on_c, 6, 65, 105
8, 546672, Note_on_c, 6, 65, 0
8, 546720, Note_on_c, 6, 63, 105
8, 546912, Note_on_c, 6, 63, 0
8, 546960, Note_on_c, 6, 62, 105
8, 547152, Note_on_c, 6, 62, 0
8, 547200, Note_on_c, 6, 60, 92
8, 547968, Note_on_c, 6, 60, 0
8, 550560, Note_on_c, 6, 50, 125
8, 551040, Note_on_c, 6, 50, 0
8, 551040, Note_on_c, 6, 55, 105
8, 551328, Note_on_c, 6, 55, 0
8, 551520, Note_on_c, 6, 58, 105
8, 551808, Note_on_c, 6, 58, 0
8, 552000, Note_on_c, 6, 62, 105
8, 552288, Note_on_c, 6, 62, 0
8, 552480, Note_on_c, 6, 67, 105
8, 552768, Note_on_c, 6, 67, 0
8, 552960, Note_on_c, 6, 70, 105
8, 553920, Note_on_c, 6, 70, 0
8, 553920, Note_on_c, 6, 69, 105
8, 554208, Note_on_c, 6, 69, 0
8, 554400, Note_on_c, 6, 67, 105
8, 554688, Note_on_c, 6, 67, 0
8, 554880, Note_on_c, 6, 65, 92
8, 555648, Note_on_c, 6, 65, 0
8, 558240, Note_on_c, 6, 52, 125
8, 558720, Note_on_c, 6, 52, 0
8, 558720, Note_on_c, 6, 57, 105
8, 559008, Note_on_c, 6, 57, 0
8, 559200, Note_on_c, 6, 60, 105
8, 559488, Note_on_c, 6, 60, 0
8, 559680, Note_on_c, 6, 64, 105
8, 559968, Note_on_c, 6, 64, 0
8, 560160, Note_on_c, 6, 69, 105
8, 560448, Note_on_c, 6, 69, 0
8, 560640, Note_on_c, 6, 72, 105
8, 561600, Note_on_c, 6, 72, 0
8, 561600, Note_on_c, 6, 71, 105
8, 561888, Note_on_c, 6, 71, 0
8, 562080, Note_on_c, 6, 69, 105
8, 562368, Note_on_c, 6, 69, 0
8, 562560, Note_on_c, 6, 67, 92
8, 563328, Note_on_c, 6, 67, 0
8, 564000, Note_on_c, 6, 55, 125
8, 564480, Note_on_c, 6, 55, 0
8, 564480, Note_on_c, 6, 58, 105
8, 564768, Note_on_c, 6, 58, 0
8, 564960, Note_on_c, 6, 61, 105
8, 565248, Note_on_c, 6, 61, 0
8, 565440, Note_on_c, 6, 66, 105
8, 565728, Note_on_c, 6, 66, 0
8, 565920, Note_on_c, 6, 70, 105
8, 566208, Note_on_c, 6, 70, 0
8, 566400, Note_on_c, 6, 71, 105
8, 566688, Note_on_c, 6, 71, 0
8, 566880, Note_on_c, 6, 66, 105
8, 567168, Note_on_c, 6, 66, 0
8, 567360, Note_on_c, 6, 71, 105
8, 568464, Note_on_c, 6, 71, 0
8, 568560, Note_on_c, 6, 69, 105
8, 568704, Note_on_c, 6, 69, 0
8, 568800, Note_on_c, 6, 68, 105
8, 568944, Note_on_c, 6, 68, 0
8, 569040, Note_on_c, 6, 66, 105
8, 569184, Note_on_c, 6, 66, 0
8, 569280, Note_on_c, 6, 65, 105
8, 569568, Note_on_c, 6, 65, 0
8, 569760, Note_on_c, 6, 68, 105
8, 570048, Note_on_c, 6, 68, 0
8, 570240, Note_on_c, 6, 66, 105
8, 571008, Note_on_c, 6, 66, 0
8, 571680, Note_on_c, 6, 66, 105
8, 572064, Note_on_c, 6, 66, 0
8, 572160, Note_on_c, 6, 67, 105
8, 572928, Note_on_c, 6, 67, 0
8, 573120, Note_on_c, 6, 61, 105
8, 573888, Note_on_c, 6, 61, 0
8, 574080, Note_on_c, 6, 63, 92
8, 574848, Note_on_c, 6, 63, 0
8, 577440, Note_on_c, 6, 56, 112
8, 577920, Note_on_c, 6, 56, 0
8, 577920, Note_on_c, 6, 52, 105
8, 578256, Note_on_c, 6, 52, 0
8, 578400, Note_on_c, 6, 56, 105
8, 578736, Note_on_c, 6, 56, 0
8, 578880, Note_on_c, 6, 61, 105
8, 579216, Note_on_c, 6, 61, 0
8, 579360, Note_on_c, 6, 64, 105
8, 579696, Note_on_c, 6, 64, 0
8, 579840, Note_on_c, 6, 68, 105
8, 580800, Note_on_c, 6, 68, 0
8, 580800, Note_on_c, 6, 66, 105
8, 581136, Note_on_c, 6, 66, 0
8, 581280, Note_on_c, 6, 64, 105
8, 581616, Note_on_c, 6, 64, 0
8, 581760, Note_on_c, 6, 63, 92
8, 582528, Note_on_c, 6, 63, 0
8, 585120, Note_on_c, 6, 56, 112
8, 585504, Note_on_c, 6, 56, 0
8, 585600, Note_on_c, 6, 52, 105
8, 585936, Note_on_c, 6, 52, 0
8, 586080, Note_on_c, 6, 56, 105
8, 586416, Note_on_c, 6, 56, 0
8, 586560, Note_on_c, 6, 61, 105
8, 586896, Note_on_c, 6, 61, 0
8, 587040, Note_on_c, 6, 64, 105
8, 587376, Note_on_c, 6, 64, 0
8, 587520, Note_on_c, 6, 68, 105
8, 588288, Note_on_c, 6, 68, 0
8, 588480, Note_on_c, 6, 66, 105
8, 588816, Note_on_c, 6, 66, 0
8, 588960, Note_on_c, 6, 64, 105
8, 589296, Note_on_c, 6, 64, 0
8, 589440, Note_on_c, 6, 66, 105
8, 590016, Note_on_c, 6, 66, 0
8, 590400, Note_on_c, 6, 64, 105
8, 590976, Note_on_c, 6, 64, 0
8, 591360, Note_on_c, 6, 61, 105
8, 591936, Note_on_c, 6, 61, 0
8, 592320, Note_on_c, 6, 63, 105
8, 592896, Note_on_c, 6, 63, 0
8, 593280, Note_on_c, 6, 68, 105
8, 593664, Note_on_c, 6, 68, 0
8, 594240, Note_on_c, 6, 69, 105
8, 594624, Note_on_c, 6, 69, 0
8, 595200, Note_on_c, 6, 69, 105
8, 595584, Note_on_c, 6, 69, 0
8, 596160, Note_on_c, 6, 66, 105
8, 596544, Note_on_c, 6, 66, 0
8, 597120, Note_on_c, 6, 64, 105
8, 597504, Note_on_c, 6, 64, 0
8, 599040, Note_on_c, 6, 57, 58
8, 600960, Note_on_c, 6, 57, 0
8, 600960, Note_on_c, 6, 56, 58
8, 602880, Note_on_c, 6, 56, 0
8, 602880, Note_on_c, 6, 54, 58
8, 604416, Note_on_c, 6, 54, 0
8, 604800, Note_on_c, 6, 53, 58
8, 605184, Note_on_c, 6, 53, 0
8, 605760, Note_on_c, 6, 61, 105
8, 606144, Note_on_c, 6, 61, 0
8, 606720, Note_on_c, 6, 68, 105
8, 607488, Note_on_c, 6, 68, 0
8, 608160, Note_on_c, 6, 49, 105
8, 608640, Note_on_c, 6, 49, 0
8, 608640, Note_on_c, 6, 54, 105
8, 608928, Note_on_c, 6, 54, 0
8, 609120, Note_on_c, 6, 58, 105
8, 609408, Note_on_c, 6, 58, 0
8, 609600, Note_on_c, 6, 59, 105
8, 609888, Note_on_c, 6, 59, 0
8, 610080, Note_on_c, 6, 62, 105
8, 610368, Note_on_c, 6, 62, 0
8, 610560, Note_on_c, 6, 67, 105
8, 611520, Note_on_c, 6, 67, 0
8, 611520, Note_on_c, 6, 66, 105
8, 611808, Note_on_c, 6, 66, 0
8, 612000, Note_on_c, 6, 64, 105
8, 612288, Note_on_c, 6, 64, 0
8, 612480, Note_on_c, 6, 63, 105
8, 612864, Note_on_c, 6, 63, 0
8, 613440, Note_on_c, 6, 59, 105
8, 613824, Note_on_c, 6, 59, 0
8, 614400, Note_on_c, 6, 66, 105
8, 615168, Note_on_c, 6, 66, 0
8, 615840, Note_on_c, 6, 59, 105
8, 616320, Note_on_c, 6, 59, 0
8, 616320, Note_on_c, 6, 52, 105
8, 616608, Note_on_c, 6, 52, 0
8, 616800, Note_on_c, 6, 56, 105
8, 617088, Note_on_c, 6, 56, 0
8, 617280, Note_on_c, 6, 57, 105
8, 617568, Note_on_c, 6, 57, 0
8, 617760, Note_on_c, 6, 60, 105
8, 618048, Note_on_c, 6, 60, 0
8, 618240, Note_on_c, 6, 65, 105
8, 619200, Note_on_c, 6, 65, 0
8, 619200, Note_on_c, 6, 64, 105
8, 619488, Note_on_c, 6, 64, 0
8, 619680, Note_on_c, 6, 62, 105
8, 619968, Note_on_c, 6, 62, 0
8, 620160, Note_on_c, 6, 61, 105
8, 620544, Note_on_c, 6, 61, 0
8, 621120, Note_on_c, 6, 57, 105
8, 621504, Note_on_c, 6, 57, 0
8, 622080, Note_on_c, 6, 64, 105
8, 622848, Note_on_c, 6, 64, 0
8, 623520, Note_on_c, 6, 57, 105
8, 624000, Note_on_c, 6, 57, 0
8, 624000, Note_on_c, 6, 50, 105
8, 624288, Note_on_c, 6, 50, 0
8, 624480, Note_on_c, 6, 54, 105
8, 624768, Note_on_c, 6, 54, 0
8, 624960, Note_on_c, 6, 55, 105
8, 625248, Note_on_c, 6, 55, 0
8, 625440, Note_on_c, 6, 58, 105
8, 625728, Note_on_c, 6, 58, 0
8, 625920, Note_on_c, 6, 60, 112
8, 627456, Note_on_c, 6, 60, 0
8, 627840, Note_on_c, 6, 60, 112
8, 628992, Note_on_c, 6, 60, 0
8, 629280, Note_on_c, 6, 58, 105
8, 629472, Note_on_c, 6, 58, 0
8, 629520, Note_on_c, 6, 58, 105
8, 629712, Note_on_c, 6, 58, 0
8, 629760, Note_on_c, 6, 63, 105
8, 629952, Note_on_c, 6, 63, 0
8, 630000, Note_on_c, 6, 63, 105
8, 630192, Note_on_c, 6, 63, 0
8, 630240, Note_on_c, 6, 62, 105
8, 630432, Note_on_c, 6, 62, 0
8, 630480, Note_on_c, 6, 62, 105
8, 630672, Note_on_c, 6, 62, 0
8, 630720, Note_on_c, 6, 60, 105
8, 630912, Note_on_c, 6, 60, 0
8, 630960, Note_on_c, 6, 60, 105
8, 631152, Note_on_c, 6, 60, 0
8, 631200, Note_on_c, 6, 58, 105
8, 631392, Note_on_c, 6, 58, 0
8, 631440, Note_on_c, 6, 58, 105
8, 631632, Note_on_c, 6, 58, 0
8, 631680, Note_on_c, 6, 57, 105
8, 632064, Note_on_c, 6, 57, 0
8, 636000, Note_on_c, 6, 58, 58
8, 636384, Note_on_c, 6, 58, 0
8, 636480, Note_on_c, 6, 58, 58
8, 636864, Note_on_c, 6, 58, 0
8, 636960, Note_on_c, 6, 58, 58
8, 637344, Note_on_c, 6, 58, 0
8, 637920, Note_on_c, 6, 61, 58
8, 638304, Note_on_c, 6, 61, 0
8, 638400, Note_on_c, 6, 61, 58
8, 638784, Note_on_c, 6, 61, 0
8, 638880, Note_on_c, 6, 69, 105
8, 639744, Note_on_c, 6, 69, 0
8, 639840, Note_on_c, 6, 69, 105
8, 640608, Note_on_c, 6, 69, 0
8, 640800, Note_on_c, 6, 69, 105
8, 641184, Note_on_c, 6, 69, 0
8, 641280, Note_on_c, 6, 69, 105
8, 642048, Note_on_c, 6, 69, 0
8, 643680, Note_on_c, 6, 60, 58
8, 644064, Note_on_c, 6, 60, 0
8, 644160, Note_on_c, 6, 60, 58
8, 644544, Note_on_c, 6, 60, 0
8, 644640, Note_on_c, 6, 60, 58
8, 645024, Note_on_c, 6, 60, 0
8, 645600, Note_on_c, 6, 60, 58
8, 645984, Note_on_c, 6, 60, 0
8, 646080, Note_on_c, 6, 60, 58
8, 646464, Note_on_c, 6, 60, 0
8, 646560, Note_on_c, 6, 62, 105
8, 647424, Note_on_c, 6, 62, 0
8, 647520, Note_on_c, 6, 62, 105
8, 648288, Note_on_c, 6, 62, 0
8, 648480, Note_on_c, 6, 62, 105
8, 648864, Note_on_c, 6, 62, 0
8, 648960, Note_on_c, 6, 62, 105
8, 649728, Note_on_c, 6, 62, 0
8, 650400, Note_on_c, 6, 62, 105
8, 650688, Note_on_c, 6, 62, 0
8, 650880, Note_on_c, 6, 62, 105
8, 651264, Note_on_c, 6, 62, 0
8, 651360, Note_on_c, 6, 66, 70
8, 651744, Note_on_c, 6, 66, 0
8, 651840, Note_on_c, 6, 66, 70
8, 652224, Note_on_c, 6, 66, 0
8, 652320, Note_on_c, 6, 66, 70
8, 652704, Note_on_c, 6, 66, 0
8, 652800, Note_on_c, 6, 67, 70
8, 653280, Note_on_c, 6, 67, 0
8, 653280, Note_on_c, 6, 66, 70
8, 653664, Note_on_c, 6, 66, 0
8, 653760, Note_on_c, 6, 66, 70
8, 654144, Note_on_c, 6, 66, 0
8, 654240, Note_on_c, 6, 62, 70
8, 654528, Note_on_c, 6, 62, 0
8, 654720, Note_on_c, 6, 62, 105
8, 655104, Note_on_c, 6, 62, 0
8, 655200, Note_on_c, 6, 66, 70
8, 655584, Note_on_c, 6, 66, 0
8, 655680, Note_on_c, 6, 66, 70
8, 656064, Note_on_c, 6, 66, 0
8, 656160, Note_on_c, 6, 66, 70
8, 656544, Note_on_c, 6, 66, 0
8, 656640, Note_on_c, 6, 67, 70
8, 657120, Note_on_c, 6, 67, 0
8, 657120, Note_on_c, 6, 66, 70
8, 657504, Note_on_c, 6, 66, 0
8, 657600, Note_on_c, 6, 66, 70
8, 657984, Note_on_c, 6, 66, 0
8, 659040, Note_on_c, 6, 60, 70
8, 659424, Note_on_c, 6, 60, 0
8, 659520, Note_on_c, 6, 60, 58
8, 659904, Note_on_c, 6, 60, 0
8, 660000, Note_on_c, 6, 60, 58
8, 660384, Note_on_c, 6, 60, 0
8, 660960, Note_on_c, 6, 60, 58
8, 661344, Note_on_c, 6, 60, 0
8, 661440, Note_on_c, 6, 60, 58
8, 661824, Note_on_c, 6, 60, 0
8, 661920, Note_on_c, 6, 62, 105
8, 662784, Note_on_c, 6, 62, 0
8, 662880, Note_on_c, 6, 62, 105
8, 663648, Note_on_c, 6, 62, 0
8, 663840, Note_on_c, 6, 62, 105
8, 664224, Note_on_c, 6, 62, 0
8, 664320, Note_on_c, 6, 62, 105
8, 665088, Note_on_c, 6, 62, 0
8, 666240, Note_on_c, 6, 67, 105
8, 666528, Note_on_c, 6, 67, 0
8, 666720, Note_on_c, 6, 68, 105
8, 667008, Note_on_c, 6, 68, 0
8, 667200, Note_on_c, 6, 67, 105
8, 667488, Note_on_c, 6, 67, 0
8, 667680, Note_on_c, 6, 68, 105
8, 667968, Note_on_c, 6, 68, 0
8, 668160, Note_on_c, 6, 67, 105
8, 668928, Note_on_c, 6, 67, 0
8, 670080, Note_on_c, 6, 59, 105
8, 670368, Note_on_c, 6, 59, 0
8, 670560, Note_on_c, 6, 60, 105
8, 670848, Note_on_c, 6, 60, 0
8, 671040, Note_on_c, 6, 59, 105
8, 671328, Note_on_c, 6, 59, 0
8, 671520, Note_on_c, 6, 60, 105
8, 671808, Note_on_c, 6, 60, 0
8, 672000, Note_on_c, 6, 59, 105
8, 672768, Note_on_c, 6, 59, 0
8, 673920, Note_on_c, 6, 50, 105
8, 674208, Note_on_c, 6, 50, 0
8, 674400, Note_on_c, 6, 50, 105
8, 674976, Note_on_c, 6, 50, 0
8, 675360, Note_on_c, 6, 50, 105
8, 675648, Note_on_c, 6, 50, 0
8, 675840, Note_on_c, 6, 50, 105
8, 676608, Note_on_c, 6, 50, 0
8, 677760, Note_on_c, 6, 63, 105
8, 678000, Note_on_c, 6, 63, 0
8, 678000, Note_on_c, 6, 67, 105
8, 678144, Note_on_c, 6, 67, 0
8, 678240, Note_on_c, 6, 65, 105
8, 678384, Note_on_c, 6, 65, 0
8, 678480, Note_on_c, 6, 62, 105
8, 678624, Note_on_c, 6, 62, 0
8, 678720, Note_on_c, 6, 63, 105
8, 678960, Note_on_c, 6, 63, 0
8, 678960, Note_on_c, 6, 67, 105
8, 679104, Note_on_c, 6, 67, 0
8, 679200, Note_on_c, 6, 65, 105
8, 679344, Note_on_c, 6, 65, 0
8, 679440, Note_on_c, 6, 62, 105
8, 679584, Note_on_c, 6, 62, 0
8, 679680, Note_on_c, 6, 63, 105
8, 679872, Note_on_c, 6, 63, 0
8, 679920, Note_on_c, 6, 60, 105
8, 680112, Note_on_c, 6, 60, 0
8, 680160, Note_on_c, 6, 63, 105
8, 680352, Note_on_c, 6, 63, 0
8, 680400, Note_on_c, 6, 65, 105
8, 680592, Note_on_c, 6, 65, 0
8, 680640, Note_on_c, 6, 67, 105
8, 680832, Note_on_c, 6, 67, 0
8, 680880, Note_on_c, 6, 65, 105
8, 681072, Note_on_c, 6, 65, 0
8, 681120, Note_on_c, 6, 63, 105
8, 681312, Note_on_c, 6, 63, 0
8, 681360, Note_on_c, 6, 62, 105
8, 681552, Note_on_c, 6, 62, 0
8, 681600, Note_on_c, 6, 60, 105
8, 681840, Note_on_c, 6, 60, 0
8, 681840, Note_on_c, 6, 63, 105
8, 681984, Note_on_c, 6, 63, 0
8, 682080, Note_on_c, 6, 62, 105
8, 682224, Note_on_c, 6, 62, 0
8, 682320, Note_on_c, 6, 63, 105
8, 682464, Note_on_c, 6, 63, 0
8, 682560, Note_on_c, 6, 60, 105
8, 682800, Note_on_c, 6, 60, 0
8, 682800, Note_on_c, 6, 63, 105
8, 682944, Note_on_c, 6, 63, 0
8, 683040, Note_on_c, 6, 62, 105
8, 683184, Note_on_c, 6, 62, 0
8, 683280, Note_on_c, 6, 63, 105
8, 683424, Note_on_c, 6, 63, 0
8, 683520, Note_on_c, 6, 60, 105
8, 683712, Note_on_c, 6, 60, 0
8, 683760, Note_on_c, 6, 57, 105
8, 683952, Note_on_c, 6, 57, 0
8, 684000, Note_on_c, 6, 60, 105
8, 684192, Note_on_c, 6, 60, 0
8, 684240, Note_on_c, 6, 62, 105
8, 684432, Note_on_c, 6, 62, 0
8, 684480, Note_on_c, 6, 63, 105
8, 684672, Note_on_c, 6, 63, 0
8, 684720, Note_on_c, 6, 62, 105
8, 684912, Note_on_c, 6, 62, 0
8, 684960, Note_on_c, 6, 60, 105
8, 685152, Note_on_c, 6, 60, 0
8, 685200, Note_on_c, 6, 58, 105
8, 685392, Note_on_c, 6, 58, 0
8, 685440, Note_on_c, 6, 57, 105
8, 685680, Note_on_c, 6, 57, 0
8, 685680, Note_on_c, 6, 60, 105
8, 685824, Note_on_c, 6, 60, 0
8, 685920, Note_on_c, 6, 58, 105
8, 686064, Note_on_c, 6, 58, 0
8, 686160, Note_on_c, 6, 60, 105
8, 686304, Note_on_c, 6, 60, 0
8, 686400, Note_on_c, 6, 57, 105
8, 686640, Note_on_c, 6, 57, 0
8, 686640, Note_on_c, 6, 60, 105
8, 686784, Note_on_c, 6, 60, 0
8, 686880, Note_on_c, 6, 58, 105
8, 687024, Note_on_c, 6, 58, 0
8, 687120, Note_on_c, 6, 60, 105
8, 687264, Note_on_c, 6, 60, 0
8, 687360, Note_on_c, 6, 57, 105
8, 687552, Note_on_c, 6, 57, 0
8, 687600, Note_on_c, 6, 58, 105
8, 687792, Note_on_c, 6, 58, 0
8, 687840, Note_on_c, 6, 60, 105
8, 688032, Note_on_c, 6, 60, 0
8, 688080, Note_on_c, 6, 58, 105
8, 688272, Note_on_c, 6, 58, 0
8, 688320, Note_on_c, 6, 57, 105
8, 688512, Note_on_c, 6, 57, 0
8, 688560, Note_on_c, 6, 54, 105
8, 688752, Note_on_c, 6, 54, 0
8, 688800, Note_on_c, 6, 55, 105
8, 688992, Note_on_c, 6, 55, 0
8, 689040, Note_on_c, 6, 57, 105
8, 689232, Note_on_c, 6, 57, 0
8, 689280, Note_on_c, 6, 50, 105
8, 689664, Note_on_c, 6, 50, 0
8, 689760, Note_on_c, 6, 62, 105
8, 690528, Note_on_c, 6, 62, 0
8, 690720, Note_on_c, 6, 62, 105
8, 691104, Note_on_c, 6, 62, 0
8, 691200, Note_on_c, 6, 62, 105
8, 691968, Note_on_c, 6, 62, 0
8, 693120, Note_on_c, 6, 58, 105
8, 693504, Note_on_c, 6, 58, 0
8, 693600, Note_on_c, 6, 58, 105
8, 694368, Note_on_c, 6, 58, 0
8, 694560, Note_on_c, 6, 58, 105
8, 694944, Note_on_c, 6, 58, 0
8, 695040, Note_on_c, 6, 58, 105
8, 695808, Note_on_c, 6, 58, 0
8, 696480, Note_on_c, 6, 55, 105
8, 696768, Note_on_c, 6, 55, 0
8, 696960, Note_on_c, 6, 55, 105
8, 697728, Note_on_c, 6, 55, 0
8, 698400, Note_on_c, 6, 62, 105
8, 698688, Note_on_c, 6, 62, 0
8, 698880, Note_on_c, 6, 67, 105
8, 699648, Note_on_c, 6, 67, 0
8, 700320, Note_on_c, 6, 64, 105
8, 700704, Note_on_c, 6, 64, 0
8, 700800, Note_on_c, 6, 57, 105
8, 701184, Note_on_c, 6, 57, 0
8, 701280, Note_on_c, 6, 62, 105
8, 701664, Note_on_c, 6, 62, 0
8, 701760, Note_on_c, 6, 62, 105
8, 702144, Note_on_c, 6, 62, 0
8, 702240, Note_on_c, 6, 62, 105
8, 702624, Note_on_c, 6, 62, 0
8, 702720, Note_on_c, 6, 62, 105
8, 703104, Note_on_c, 6, 62, 0
8, 703200, Note_on_c, 6, 62, 105
8, 703584, Note_on_c, 6, 62, 0
8, 703680, Note_on_c, 6, 62, 105
8, 704064, Note_on_c, 6, 62, 0
8, 704160, Note_on_c, 6, 62, 105
8, 704544, Note_on_c, 6, 62, 0
8, 704640, Note_on_c, 6, 62, 105
8, 705024, Note_on_c, 6, 62, 0
8, 705120, Note_on_c, 6, 62, 105
8, 705504, Note_on_c, 6, 62, 0
8, 705600, Note_on_c, 6, 62, 105
8, 705984, Note_on_c, 6, 62, 0
8, 706080, Note_on_c, 6, 62, 105
8, 706464, Note_on_c, 6, 62, 0
8, 706560, Note_on_c, 6, 62, 105
8, 706944, Note_on_c, 6, 62, 0
8, 707040, Note_on_c, 6, 62, 105
8, 707424, Note_on_c, 6, 62, 0
8, 707520, Note_on_c, 6, 62, 105
8, 707904, Note_on_c, 6, 62, 0
8, 708000, Note_on_c, 6, 62, 105
8, 708384, Note_on_c, 6, 62, 0
8, 708480, Note_on_c, 6, 62, 105
8, 708864, Note_on_c, 6, 62, 0
8, 709440, Note_on_c, 6, 62, 105
8, 709824, Note_on_c, 6, 62, 0
8, 710400, Note_on_c, 6, 50, 105
8, 711168, Note_on_c, 6, 50, 0
8, 712320, Note_on_c, 6, 67, 58
8, 712704, Note_on_c, 6, 67, 0
8, 712800, Note_on_c, 6, 67, 58
8, 713184, Note_on_c, 6, 67, 0
8, 713280, Note_on_c, 6, 67, 58
8, 713664, Note_on_c, 6, 67, 0
8, 713760, Note_on_c, 6, 67, 58
8, 714144, Note_on_c, 6, 67, 0
8, 714240, Note_on_c, 6, 65, 58
8, 714624, Note_on_c, 6, 65, 0
8, 714720, Note_on_c, 6, 65, 58
8, 715104, Note_on_c, 6, 65, 0
8, 715200, Note_on_c, 6, 65, 58
8, 715584, Note_on_c, 6, 65, 0
8, 715680, Note_on_c, 6, 65, 58
8, 716064, Note_on_c, 6, 65, 0
8, 716160, Note_on_c, 6, 63, 58
8, 716544, Note_on_c, 6, 63, 0
8, 716640, Note_on_c, 6, 63, 58
8, 717024, Note_on_c, 6, 63, 0
8, 717120, Note_on_c, 6, 63, 58
8, 717504, Note_on_c, 6, 63, 0
8, 717600, Note_on_c, 6, 63, 58
8, 717984, Note_on_c, 6, 63, 0
8, 718080, Note_on_c, 6, 62, 58
8, 718464, Note_on_c, 6, 62, 0
8, 718560, Note_on_c, 6, 62, 58
8, 718944, Note_on_c, 6, 62, 0
8, 719040, Note_on_c, 6, 62, 58
8, 719424, Note_on_c, 6, 62, 0
8, 719520, Note_on_c, 6, 62, 58
8, 719904, Note_on_c, 6, 62, 0
8, 720000, Note_on_c, 6, 60, 58
8, 722304, Note_on_c, 6, 60, 0
8, 723840, Note_on_c, 6, 50, 58
8, 724224, Note_on_c, 6, 50, 0
8, 724320, Note_on_c, 6, 50, 58
8, 724704, Note_on_c, 6, 50, 0
8, 724800, Note_on_c, 6, 50, 58
8, 725184, Note_on_c, 6, 50, 0
8, 725280, Note_on_c, 6, 50, 58
8, 725664, Note_on_c, 6, 50, 0
8, 725760, Note_on_c, 6, 50, 58
8, 726144, Note_on_c, 6, 50, 0
8, 727680, Note_on_c, 6, 55, 58
8, 728064, Note_on_c, 6, 55, 0
8, 728160, Note_on_c, 6, 55, 58
8, 728544, Note_on_c, 6, 55, 0
8, 728640, Note_on_c, 6, 67, 58
8, 729024, Note_on_c, 6, 67, 0
8, 729120, Note_on_c, 6, 67, 58
8, 729504, Note_on_c, 6, 67, 0
8, 729600, Note_on_c, 6, 66, 58
8, 729984, Note_on_c, 6, 66, 0
8, 730080, Note_on_c, 6, 66, 58
8, 730464, Note_on_c, 6, 66, 0
8, 730560, Note_on_c, 6, 65, 58
8, 730944, Note_on_c, 6, 65, 0
8, 731040, Note_on_c, 6, 65, 58
8, 731424, Note_on_c, 6, 65, 0
8, 731520, Note_on_c, 6, 64, 58
8, 733440, Note_on_c, 6, 64, 0
8, 733440, Note_on_c, 6, 63, 58
8, 734400, Note_on_c, 6, 63, 0
8, 734400, Note_on_c, 6, 62, 58
8, 735168, Note_on_c, 6, 62, 0
8, 735360, Note_on_c, 6, 60, 58
8, 735744, Note_on_c, 6, 60, 0
8, 737280, Note_on_c, 6, 50, 58
8, 739104, Note_on_c, 6, 50, 0
8, 739200, Note_on_c, 6, 55, 58
8, 739584, Note_on_c, 6, 55, 0
8, 758880, Note_on_c, 6, 58, 58
8, 759360, Note_on_c, 6, 58, 0
8, 759360, Note_on_c, 6, 60, 58
8, 759840, Note_on_c, 6, 60, 0
8, 759840, Note_on_c, 6, 58, 58
8, 760320, Note_on_c, 6, 58, 0
8, 760320, Note_on_c, 6, 57, 58
8, 760800, Note_on_c, 6, 57, 0
8, 760800, Note_on_c, 6, 56, 58
8, 761280, Note_on_c, 6, 56, 0
8, 761280, Note_on_c, 6, 58, 58
8, 761760, Note_on_c, 6, 58, 0
8, 761760, Note_on_c, 6, 56, 58
8, 762144, Note_on_c, 6, 56, 0
8, 762240, Note_on_c, 6, 55, 58
8, 763776, Note_on_c, 6, 55, 0
8, 764160, Note_on_c, 6, 54, 58
8, 764280, Note_on_c, 6, 54, 0
8, 764280, Note_on_c, 6, 55, 58
8, 764952, Note_on_c, 6, 55, 0
8, 765120, Note_on_c, 6, 54, 58
8, 765240, Note_on_c, 6, 54, 0
8, 765240, Note_on_c, 6, 55, 58
8, 765912, Note_on_c, 6, 55, 0
8, 766080, Note_on_c, 6, 60, 58
8, 766080, Note_on_c, 6, 63, 58
8, 766464, Note_on_c, 6, 63, 0
8, 766464, Note_on_c, 6, 60, 0
8, 767040, Note_on_c, 6, 60, 58
8, 767040, Note_on_c, 6, 57, 58
8, 767424, Note_on_c, 6, 57, 0
8, 767424, Note_on_c, 6, 60, 0
8, 768000, Note_on_c, 6, 55, 58
8, 768000, Note_on_c, 6, 58, 58
8, 768384, Note_on_c, 6, 58, 0
8, 768384, Note_on_c, 6, 55, 0
8, 768960, Note_on_c, 6, 54, 58
8, 768960, Note_on_c, 6, 57, 58
8, 769344, Note_on_c, 6, 57, 0
8, 769344, Note_on_c, 6, 54, 0
8, 769920, Note_on_c, 6, 55, 105
8, 770688, Note_on_c, 6, 55, 0
8, 771840, Note_on_c, 6, 58, 105
8, 772176, Note_on_c, 6, 58, 0
8, 772320, Note_on_c, 6, 60, 105
8, 772656, Note_on_c, 6, 60, 0
8, 772800, Note_on_c, 6, 58, 105
8, 773136, Note_on_c, 6, 58, 0
8, 773280, Note_on_c, 6, 60, 105
8, 773616, Note_on_c, 6, 60, 0
8, 773760, Note_on_c, 6, 58, 105
8, 774624, Note_on_c, 6, 58, 0
8, 775680, Note_on_c, 6, 58, 105
8, 776016, Note_on_c, 6, 58, 0
8, 776160, Note_on_c, 6, 60, 105
8, 776496, Note_on_c, 6, 60, 0
8, 776640, Note_on_c, 6, 58, 105
8, 776976, Note_on_c, 6, 58, 0
8, 777120, Note_on_c, 6, 60, 105
8, 777456, Note_on_c, 6, 60, 0
8, 777600, Note_on_c, 6, 58, 105
8, 778464, Note_on_c, 6, 58, 0
8, 779520, Note_on_c, 6, 58, 105
8, 779856, Note_on_c, 6, 58, 0
8, 780000, Note_on_c, 6, 60, 105
8, 780336, Note_on_c, 6, 60, 0
8, 780480, Note_on_c, 6, 58, 105
8, 780816, Note_on_c, 6, 58, 0
8, 780960, Note_on_c, 6, 60, 105
8, 781296, Note_on_c, 6, 60, 0
8, 781440, Note_on_c, 6, 58, 105
8, 781824, Note_on_c, 6, 58, 0
8, 782400, Note_on_c, 6, 60, 105
8, 782784, Note_on_c, 6, 60, 0
8, 783360, Note_on_c, 6, 62, 105
8, 783744, Note_on_c, 6, 62, 0
8, 784320, Note_on_c, 6, 50, 105
8, 784704, Note_on_c, 6, 50, 0
8, 785280, Note_on_c, 6, 55, 92
8, 785664, Note_on_c, 6, 55, 0
8, 787200, Note_on_c, 6, 55, 70
8, 787440, Note_on_c, 6, 55, 0
8, 787440, Note_on_c, 6, 58, 70
8, 787584, Note_on_c, 6, 58, 0
8, 787680, Note_on_c, 6, 57, 70
8, 787824, Note_on_c, 6, 57, 0
8, 787920, Note_on_c, 6, 54, 70
8, 788064, Note_on_c, 6, 54, 0
8, 788160, Note_on_c, 6, 55, 70
8, 788400, Note_on_c, 6, 55, 0
8, 788400, Note_on_c, 6, 58, 70
8, 788544, Note_on_c, 6, 58, 0
8, 788640, Note_on_c, 6, 57, 70
8, 788784, Note_on_c, 6, 57, 0
8, 788880, Note_on_c, 6, 54, 70
8, 789024, Note_on_c, 6, 54, 0
8, 789120, Note_on_c, 6, 55, 70
8, 789312, Note_on_c, 6, 55, 0
8, 789360, Note_on_c, 6, 62, 70
8, 789600, Note_on_c, 6, 62, 0
8, 789600, Note_on_c, 6, 61, 70
8, 789840, Note_on_c, 6, 61, 0
8, 789840, Note_on_c, 6, 62, 70
8, 790080, Note_on_c, 6, 62, 0
8, 790080, Note_on_c, 6, 61, 70
8, 790320, Note_on_c, 6, 61, 0
8, 790320, Note_on_c, 6, 62, 70
8, 790560, Note_on_c, 6, 62, 0
8, 790560, Note_on_c, 6, 63, 70
8, 790800, Note_on_c, 6, 63, 0
8, 790800, Note_on_c, 6, 62, 70
8, 790992, Note_on_c, 6, 62, 0
8, 791040, Note_on_c, 6, 55, 70
8, 791280, Note_on_c, 6, 55, 0
8, 791280, Note_on_c, 6, 58, 70
8, 791424, Note_on_c, 6, 58, 0
8, 791520, Note_on_c, 6, 57, 70
8, 791664, Note_on_c, 6, 57, 0
8, 791760, Note_on_c, 6, 54, 70
8, 791904, Note_on_c, 6, 54, 0
8, 792000, Note_on_c, 6, 55, 70
8, 792240, Note_on_c, 6, 55, 0
8, 792240, Note_on_c, 6, 58, 70
8, 792384, Note_on_c, 6, 58, 0
8, 792480, Note_on_c, 6, 57, 70
8, 792624, Note_on_c, 6, 57, 0
8, 792720, Note_on_c, 6, 54, 70
8, 792864, Note_on_c, 6, 54, 0
8, 792960, Note_on_c, 6, 55, 70
8, 793344, Note_on_c, 6, 55, 0
8, 794880, Note_on_c, 6, 58, 105
8, 795216, Note_on_c, 6, 58, 0
8, 795360, Note_on_c, 6, 60, 105
8, 795696, Note_on_c, 6, 60, 0
8, 795840, Note_on_c, 6, 58, 105
8, 796176, Note_on_c, 6, 58, 0
8, 796320, Note_on_c, 6, 60, 105
8, 796656, Note_on_c, 6, 60, 0
8, 796800, Note_on_c, 6, 58, 105
8, 797136, Note_on_c, 6, 58, 0
8, 797280, Note_on_c, 6, 60, 105
8, 797616, Note_on_c, 6, 60, 0
8, 797760, Note_on_c, 6, 58, 105
8, 798096, Note_on_c, 6, 58, 0
8, 798240, Note_on_c, 6, 60, 105
8, 798576, Note_on_c, 6, 60, 0
8, 798720, Note_on_c, 6, 58, 105
8, 799056, Note_on_c, 6, 58, 0
8, 799200, Note_on_c, 6, 60, 105
8, 799536, Note_on_c, 6, 60, 0
8, 799680, Note_on_c, 6, 58, 105
8, 800016, Note_on_c, 6, 58, 0
8, 800160, Note_on_c, 6, 60, 105
8, 800496, Note_on_c, 6, 60, 0
8, 800640, Note_on_c, 6, 59, 116
8, 800808, Note_on_c, 6, 59, 0
8, 800880, Note_on_c, 6, 60, 116
8, 801048, Note_on_c, 6, 60, 0
8, 801120, Note_on_c, 6, 62, 116
8, 801288, Note_on_c, 6, 62, 0
8, 801360, Note_on_c, 6, 63, 116
8, 801528, Note_on_c, 6, 63, 0
8, 801600, Note_on_c, 6, 65, 116
8, 801768, Note_on_c, 6, 65, 0
8, 801840, Note_on_c, 6, 67, 116
8, 802008, Note_on_c, 6, 67, 0
8, 802080, Note_on_c, 6, 69, 116
8, 802248, Note_on_c, 6, 69, 0
8, 802320, Note_on_c, 6, 71, 116
8, 802488, Note_on_c, 6, 71, 0
8, 802560, Note_on_c, 6, 72, 116
8, 804384, Note_on_c, 6, 72, 0
8, 804480, Note_on_c, 6, 62, 116
8, 805152, Note_on_c, 6, 62, 0
8, 805440, Note_on_c, 6, 63, 116
8, 806112, Note_on_c, 6, 63, 0
8, 806400, Note_on_c, 6, 60, 116
8, 807072, Note_on_c, 6, 60, 0
8, 807360, Note_on_c, 6, 62, 116
8, 808032, Note_on_c, 6, 62, 0
8, 808320, Note_on_c, 6, 59, 116
8, 808488, Note_on_c, 6, 59, 0
8, 808560, Note_on_c, 6, 60, 116
8, 808728, Note_on_c, 6, 60, 0
8, 808800, Note_on_c, 6, 62, 116
8, 808968, Note_on_c, 6, 62, 0
8, 809040, Note_on_c, 6, 63, 116
8, 809208, Note_on_c, 6, 63, 0
8, 809280, Note_on_c, 6, 65, 116
8, 809448, Note_on_c, 6, 65, 0
8, 809520, Note_on_c, 6, 67, 116
8, 809688, Note_on_c, 6, 67, 0
8, 809760, Note_on_c, 6, 69, 116
8, 809928, Note_on_c, 6, 69, 0
8, 810000, Note_on_c, 6, 71, 116
8, 810168, Note_on_c, 6, 71, 0
8, 810240, Note_on_c, 6, 72, 116
8, 812064, Note_on_c, 6, 72, 0
8, 812160, Note_on_c, 6, 62, 116
8, 812832, Note_on_c, 6, 62, 0
8, 813120, Note_on_c, 6, 63, 116
8, 813792, Note_on_c, 6, 63, 0
8, 814080, Note_on_c, 6, 60, 116
8, 814752, Note_on_c, 6, 60, 0
8, 815040, Note_on_c, 6, 62, 116
8, 815712, Note_on_c, 6, 62, 0
8, 816000, Note_on_c, 6, 55, 116
8, 816384, Note_on_c, 6, 55, 0
8, 816480, Note_on_c, 6, 67, 116
8, 817248, Note_on_c, 6, 67, 0
8, 817440, Note_on_c, 6, 67, 116
8, 817824, Note_on_c, 6, 67, 0
8, 817920, Note_on_c, 6, 69, 116
8, 818112, Note_on_c, 6, 69, 0
8, 818160, Note_on_c, 6, 69, 116
8, 818352, Note_on_c, 6, 69, 0
8, 818400, Note_on_c, 6, 69, 116
8, 818592, Note_on_c, 6, 69, 0
8, 818640, Note_on_c, 6, 69, 116
8, 818832, Note_on_c, 6, 69, 0
8, 818880, Note_on_c, 6, 69, 116
8, 819072, Note_on_c, 6, 69, 0
8, 819120, Note_on_c, 6, 69, 116
8, 819312, Note_on_c, 6, 69, 0
8, 819360, Note_on_c, 6, 69, 116
8, 819552, Note_on_c, 6, 69, 0
8, 819600, Note_on_c, 6, 69, 116
8, 819792, Note_on_c, 6, 69, 0
8, 819840, Note_on_c, 6, 67, 116
8, 820032, Note_on_c, 6, 67, 0
8, 820080, Note_on_c, 6, 67, 116
8, 820272, Note_on_c, 6, 67, 0
8, 820320, Note_on_c, 6, 67, 116
8, 820512, Note_on_c, 6, 67, 0
8, 820560, Note_on_c, 6, 67, 116
8, 820752, Note_on_c, 6, 67, 0
8, 820800, Note_on_c, 6, 67, 116
8, 820992, Note_on_c, 6, 67, 0
8, 821040, Note_on_c, 6, 67, 116
8, 821232, Note_on_c, 6, 67, 0
8, 821280, Note_on_c, 6, 67, 116
8, 821472, Note_on_c, 6, 67, 0
8, 821520, Note_on_c, 6, 67, 116
8, 821712, Note_on_c, 6, 67, 0
8, 821760, Note_on_c, 6, 69, 116
8, 821952, Note_on_c, 6, 69, 0
8, 822000, Note_on_c, 6, 69, 116
8, 822192, Note_on_c, 6, 69, 0
8, 822240, Note_on_c, 6, 69, 116
8, 822432, Note_on_c, 6, 69, 0
8, 822480, Note_on_c, 6, 69, 116
8, 822672, Note_on_c, 6, 69, 0
8, 822720, Note_on_c, 6, 69, 116
8, 822912, Note_on_c, 6, 69, 0
8, 822960, Note_on_c, 6, 69, 116
8, 823152, Note_on_c, 6, 69, 0
8, 823200, Note_on_c, 6, 69, 116
8, 823392, Note_on_c, 6, 69, 0
8, 823440, Note_on_c, 6, 69, 116
8, 823632, Note_on_c, 6, 69, 0
8, 823680, Note_on_c, 6, 67, 116
8, 823872, Note_on_c, 6, 67, 0
8, 823920, Note_on_c, 6, 67, 116
8, 824112, Note_on_c, 6, 67, 0
8, 824160, Note_on_c, 6, 67, 116
8, 824352, Note_on_c, 6, 67, 0
8, 824400, Note_on_c, 6, 67, 116
8, 824592, Note_on_c, 6, 67, 0
8, 824640, Note_on_c, 6, 67, 116
8, 824832, Note_on_c, 6, 67, 0
8, 824880, Note_on_c, 6, 67, 116
8, 825072, Note_on_c, 6, 67, 0
8, 825120, Note_on_c, 6, 67, 116
8, 825312, Note_on_c, 6, 67, 0
8, 825360, Note_on_c, 6, 67, 116
8, 825552, Note_on_c, 6, 67, 0
8, 825600, Note_on_c, 6, 69, 116
8, 825792, Note_on_c, 6, 69, 0
8, 825840, Note_on_c, 6, 69, 116
8, 826032, Note_on_c, 6, 69, 0
8, 826080, Note_on_c, 6, 69, 116
8, 826272, Note_on_c, 6, 69, 0
8, 826320, Note_on_c, 6, 69, 116
8, 826512, Note_on_c, 6, 69, 0
8, 826560, Note_on_c, 6, 69, 116
8, 826752, Note_on_c, 6, 69, 0
8, 826800, Note_on_c, 6, 69, 116
8, 826992, Note_on_c, 6, 69, 0
8, 827040, Note_on_c, 6, 69, 116
8, 827232, Note_on_c, 6, 69, 0
8, 827280, Note_on_c, 6, 69, 116
8, 827472, Note_on_c, 6, 69, 0
8, 827520, Note_on_c, 6, 67, 116
8, 827904, Note_on_c, 6, 67, 0
8, 828480, Note_on_c, 6, 67, 116
8, 828864, Note_on_c, 6, 67, 0
8, 829440, Note_on_c, 6, 55, 116
8, 830400, Note_on_c, 6, 55, 0
8, 830400, End_track
9, 0, Start_track
9, 0, Sequencer_specific, 04, 43, 00, 01, 00
9, 0, Program_c, 7, 48
9, 0, Control_c, 7, 7, 124
9, 0, Control_c, 7, 10, 84
9, 0, Control_c, 7, 91, 87
9, 1920, Note_on_c, 7, 55, 58
9, 2688, Note_on_c, 7, 55, 0
9, 3840, Note_on_c, 7, 55, 58
9, 4608, Note_on_c, 7, 55, 0
9, 5280, Note_on_c, 7, 55, 105
9, 5664, Note_on_c, 7, 55, 0
9, 5760, Note_on_c, 7, 54, 105
9, 6144, Note_on_c, 7, 54, 0
9, 6240, Note_on_c, 7, 55, 105
9, 6624, Note_on_c, 7, 55, 0
9, 6720, Note_on_c, 7, 54, 105
9, 7104, Note_on_c, 7, 54, 0
9, 7200, Note_on_c, 7, 55, 105
9, 7584, Note_on_c, 7, 55, 0
9, 7680, Note_on_c, 7, 54, 105
9, 8448, Note_on_c, 7, 54, 0
9, 9600, Note_on_c, 7, 48, 58
9, 10368, Note_on_c, 7, 48, 0
9, 11520, Note_on_c, 7, 50, 58
9, 12288, Note_on_c, 7, 50, 0
9, 12960, Note_on_c, 7, 50, 105
9, 13248, Note_on_c, 7, 50, 0
9, 13440, Note_on_c, 7, 55, 105
9, 13728, Note_on_c, 7, 55, 0
9, 13920, Note_on_c, 7, 50, 105
9, 14208, Note_on_c, 7, 50, 0
9, 14400, Note_on_c, 7, 55, 105
9, 14688, Note_on_c, 7, 55, 0
9, 14880, Note_on_c, 7, 50, 105
9, 15168, Note_on_c, 7, 50, 0
9, 15360, Note_on_c, 7, 55, 105
9, 16128, Note_on_c, 7, 55, 0
9, 17280, Note_on_c, 7, 55, 58
9, 18048, Note_on_c, 7, 55, 0
9, 19200, Note_on_c, 7, 55, 58
9, 19968, Note_on_c, 7, 55, 0
9, 20640, Note_on_c, 7, 55, 105
9, 21024, Note_on_c, 7, 55, 0
9, 21120, Note_on_c, 7, 54, 105
9, 21504, Note_on_c, 7, 54, 0
9, 21600, Note_on_c, 7, 55, 105
9, 21984, Note_on_c, 7, 55, 0
9, 22080, Note_on_c, 7, 54, 105
9, 22464, Note_on_c, 7, 54, 0
9, 22560, Note_on_c, 7, 55, 105
9, 22944, Note_on_c, 7, 55, 0
9, 23040, Note_on_c, 7, 54, 105
9, 23808, Note_on_c, 7, 54, 0
9, 24960, Note_on_c, 7, 48, 58
9, 25728, Note_on_c, 7, 48, 0
9, 26880, Note_on_c, 7, 50, 58
9, 27648, Note_on_c, 7, 50, 0
9, 28320, Note_on_c, 7, 50, 105
9, 28608, Note_on_c, 7, 50, 0
9, 28800, Note_on_c, 7, 55, 105
9, 29088, Note_on_c, 7, 55, 0
9, 29280, Note_on_c, 7, 50, 105
9, 29568, Note_on_c, 7, 50, 0
9, 29760, Note_on_c, 7, 55, 105
9, 30048, Note_on_c, 7, 55, 0
9, 30240, Note_on_c, 7, 50, 105
9, 30528, Note_on_c, 7, 50, 0
9, 30720, Note_on_c, 7, 55, 105
9, 31488, Note_on_c, 7, 55, 0
9, 32160, Note_on_c, 7, 50, 105
9, 32448, Note_on_c, 7, 50, 0
9, 32640, Note_on_c, 7, 50, 105
9, 32928, Note_on_c, 7, 50, 0
9, 33120, Note_on_c, 7, 62, 105
9, 33408, Note_on_c, 7, 62, 0
9, 33600, Note_on_c, 7, 62, 70
9, 33888, Note_on_c, 7, 62, 0
9, 34080, Note_on_c, 7, 62, 70
9, 34368, Note_on_c, 7, 62, 0
9, 34560, Note_on_c, 7, 62, 70
9, 35712, Note_on_c, 7, 62, 0
9, 36000, Note_on_c, 7, 50, 105
9, 36288, Note_on_c, 7, 50, 0
9, 36480, Note_on_c, 7, 50, 105
9, 36768, Note_on_c, 7, 50, 0
9, 36960, Note_on_c, 7, 62, 105
9, 37248, Note_on_c, 7, 62, 0
9, 37440, Note_on_c, 7, 62, 70
9, 37728, Note_on_c, 7, 62, 0
9, 37920, Note_on_c, 7, 62, 70
9, 38208, Note_on_c, 7, 62, 0
9, 38400, Note_on_c, 7, 62, 70
9, 39552, Note_on_c, 7, 62, 0
9, 40320, Note_on_c, 7, 48, 58
9, 41088, Note_on_c, 7, 48, 0
9, 42240, Note_on_c, 7, 50, 58
9, 43008, Note_on_c, 7, 50, 0
9, 43680, Note_on_c, 7, 50, 105
9, 43968, Note_on_c, 7, 50, 0
9, 44160, Note_on_c, 7, 55, 105
9, 44448, Note_on_c, 7, 55, 0
9, 44640, Note_on_c, 7, 50, 105
9, 44928, Note_on_c, 7, 50, 0
9, 45120, Note_on_c, 7, 55, 105
9, 45408, Note_on_c, 7, 55, 0
9, 45600, Note_on_c, 7, 50, 105
9, 45888, Note_on_c, 7, 50, 0
9, 46080, Note_on_c, 7, 55, 105
9, 46848, Note_on_c, 7, 55, 0
9, 47520, Note_on_c, 7, 50, 105
9, 47808, Note_on_c, 7, 50, 0
9, 48000, Note_on_c, 7, 50, 105
9, 48288, Note_on_c, 7, 50, 0
9, 48480, Note_on_c, 7, 62, 70
9, 48768, Note_on_c, 7, 62, 0
9, 48960, Note_on_c, 7, 62, 70
9, 49248, Note_on_c, 7, 62, 0
9, 49440, Note_on_c, 7, 62, 70
9, 49728, Note_on_c, 7, 62, 0
9, 49920, Note_on_c, 7, 62, 70
9, 51072, Note_on_c, 7, 62, 0
9, 51360, Note_on_c, 7, 50, 105
9, 51648, Note_on_c, 7, 50, 0
9, 51840, Note_on_c, 7, 50, 105
9, 52128, Note_on_c, 7, 50, 0
9, 52320, Note_on_c, 7, 62, 70
9, 52608, Note_on_c, 7, 62, 0
9, 52800, Note_on_c, 7, 62, 70
9, 53088, Note_on_c, 7, 62, 0
9, 53280, Note_on_c, 7, 62, 70
9, 53568, Note_on_c, 7, 62, 0
9, 53760, Note_on_c, 7, 62, 70
9, 54912, Note_on_c, 7, 62, 0
9, 55680, Note_on_c, 7, 48, 58
9, 56448, Note_on_c, 7, 48, 0
9, 57600, Note_on_c, 7, 50, 58
9, 58368, Note_on_c, 7, 50, 0
9, 59040, Note_on_c, 7, 50, 105
9, 59328, Note_on_c, 7, 50, 0
9, 59520, Note_on_c, 7, 55, 105
9, 59808, Note_on_c, 7, 55, 0
9, 60000, Note_on_c, 7, 50, 105
9, 60288, Note_on_c, 7, 50, 0
9, 60480, Note_on_c, 7, 55, 105
9, 60768, Note_on_c, 7, 55, 0
9, 60960, Note_on_c, 7, 50, 105
9, 61248, Note_on_c, 7, 50, 0
9, 61440, Note_on_c, 7, 55, 105
9, 62208, Note_on_c, 7, 55, 0
9, 63360, Note_on_c, 7, 51, 105
9, 63648, Note_on_c, 7, 51, 0
9, 63840, Note_on_c, 7, 53, 105
9, 64128, Note_on_c, 7, 53, 0
9, 64320, Note_on_c, 7, 51, 105
9, 64608, Note_on_c, 7, 51, 0
9, 64800, Note_on_c, 7, 53, 105
9, 65088, Note_on_c, 7, 53, 0
9, 65280, Note_on_c, 7, 51, 105
9, 66048, Note_on_c, 7, 51, 0
9, 67200, Note_on_c, 7, 50, 105
9, 67488, Note_on_c, 7, 50, 0
9, 67680, Note_on_c, 7, 49, 105
9, 67968, Note_on_c, 7, 49, 0
9, 68160, Note_on_c, 7, 50, 105
9, 68448, Note_on_c, 7, 50, 0
9, 68640, Note_on_c, 7, 49, 105
9, 68928, Note_on_c, 7, 49, 0
9, 69120, Note_on_c, 7, 50, 105
9, 69888, Note_on_c, 7, 50, 0
9, 70560, Note_on_c, 7, 42, 105
9, 70944, Note_on_c, 7, 42, 0
9, 71040, Note_on_c, 7, 43, 105
9, 71808, Note_on_c, 7, 43, 0
9, 72480, Note_on_c, 7, 46, 105
9, 72864, Note_on_c, 7, 46, 0
9, 72960, Note_on_c, 7, 45, 105
9, 73344, Note_on_c, 7, 45, 0
9, 73440, Note_on_c, 7, 48, 105
9, 73824, Note_on_c, 7, 48, 0
9, 73920, Note_on_c, 7, 50, 105
9, 74304, Note_on_c, 7, 50, 0
9, 74400, Note_on_c, 7, 54, 105
9, 74784, Note_on_c, 7, 54, 0
9, 74880, Note_on_c, 7, 55, 105
9, 75648, Note_on_c, 7, 55, 0
9, 76320, Note_on_c, 7, 58, 105
9, 76704, Note_on_c, 7, 58, 0
9, 76800, Note_on_c, 7, 57, 105
9, 77184, Note_on_c, 7, 57, 0
9, 77280, Note_on_c, 7, 60, 105
9, 77664, Note_on_c, 7, 60, 0
9, 77760, Note_on_c, 7, 62, 105
9, 78144, Note_on_c, 7, 62, 0
9, 78240, Note_on_c, 7, 54, 105
9, 78624, Note_on_c, 7, 54, 0
9, 78720, Note_on_c, 7, 55, 105
9, 79488, Note_on_c, 7, 55, 0
9, 80160, Note_on_c, 7, 53, 105
9, 80544, Note_on_c, 7, 53, 0
9, 80640, Note_on_c, 7, 51, 105
9, 81408, Note_on_c, 7, 51, 0
9, 82080, Note_on_c, 7, 48, 105
9, 82464, Note_on_c, 7, 48, 0
9, 82560, Note_on_c, 7, 53, 105
9, 83328, Note_on_c, 7, 53, 0
9, 84000, Note_on_c, 7, 51, 105
9, 84384, Note_on_c, 7, 51, 0
9, 84480, Note_on_c, 7, 50, 105
9, 85248, Note_on_c, 7, 50, 0
9, 85920, Note_on_c, 7, 46, 105
9, 86304, Note_on_c, 7, 46, 0
9, 86400, Note_on_c, 7, 51, 105
9, 87168, Note_on_c, 7, 51, 0
9, 87840, Note_on_c, 7, 53, 105
9, 88224, Note_on_c, 7, 53, 0
9, 88320, Note_on_c, 7, 55, 105
9, 89088, Note_on_c, 7, 55, 0
9, 89760, Note_on_c, 7, 52, 105
9, 90144, Note_on_c, 7, 52, 0
9, 90240, Note_on_c, 7, 53, 105
9, 91008, Note_on_c, 7, 53, 0
9, 91680, Note_on_c, 7, 55, 105
9, 92064, Note_on_c, 7, 55, 0
9, 92160, Note_on_c, 7, 57, 105
9, 92928, Note_on_c, 7, 57, 0
9, 94080, Note_on_c, 7, 58, 105
9, 94320, Note_on_c, 7, 58, 0
9, 94320, Note_on_c, 7, 62, 105
9, 94464, Note_on_c, 7, 62, 0
9, 94560, Note_on_c, 7, 60, 105
9, 94704, Note_on_c, 7, 60, 0
9, 94800, Note_on_c, 7, 57, 105
9, 94944, Note_on_c, 7, 57, 0
9, 95040, Note_on_c, 7, 58, 105
9, 95280, Note_on_c, 7, 58, 0
9, 95280, Note_on_c, 7, 62, 105
9, 95424, Note_on_c, 7, 62, 0
9, 95520, Note_on_c, 7, 60, 105
9, 95664, Note_on_c, 7, 60, 0
9, 95760, Note_on_c, 7, 57, 105
9, 95904, Note_on_c, 7, 57, 0
9, 96000, Note_on_c, 7, 58, 105
9, 96192, Note_on_c, 7, 58, 0
9, 96240, Note_on_c, 7, 60, 105
9, 96432, Note_on_c, 7, 60, 0
9, 96480, Note_on_c, 7, 62, 105
9, 96672, Note_on_c, 7, 62, 0
9, 96720, Note_on_c, 7, 60, 105
9, 96912, Note_on_c, 7, 60, 0
9, 96960, Note_on_c, 7, 58, 105
9, 97152, Note_on_c, 7, 58, 0
9, 97200, Note_on_c, 7, 57, 105
9, 97392, Note_on_c, 7, 57, 0
9, 97440, Note_on_c, 7, 55, 105
9, 97632, Note_on_c, 7, 55, 0
9, 97680, Note_on_c, 7, 54, 105
9, 97872, Note_on_c, 7, 54, 0
9, 97920, Note_on_c, 7, 55, 105
9, 98160, Note_on_c, 7, 55, 0
9, 98160, Note_on_c, 7, 58, 105
9, 98304, Note_on_c, 7, 58, 0
9, 98400, Note_on_c, 7, 57, 105
9, 98544, Note_on_c, 7, 57, 0
9, 98640, Note_on_c, 7, 54, 105
9, 98784, Note_on_c, 7, 54, 0
9, 98880, Note_on_c, 7, 55, 105
9, 99120, Note_on_c, 7, 55, 0
9, 99120, Note_on_c, 7, 58, 105
9, 99264, Note_on_c, 7, 58, 0
9, 99360, Note_on_c, 7, 57, 105
9, 99504, Note_on_c, 7, 57, 0
9, 99600, Note_on_c, 7, 54, 105
9, 99744, Note_on_c, 7, 54, 0
9, 99840, Note_on_c, 7, 55, 105
9, 99984, Note_on_c, 7, 55, 0
9, 100080, Note_on_c, 7, 57, 105
9, 100224, Note_on_c, 7, 57, 0
9, 100320, Note_on_c, 7, 58, 105
9, 100464, Note_on_c, 7, 58, 0
9, 100560, Note_on_c, 7, 57, 105
9, 100704, Note_on_c, 7, 57, 0
9, 100800, Note_on_c, 7, 55, 105
9, 100944, Note_on_c, 7, 55, 0
9, 101040, Note_on_c, 7, 53, 105
9, 101184, Note_on_c, 7, 53, 0
9, 101280, Note_on_c, 7, 51, 105
9, 101424, Note_on_c, 7, 51, 0
9, 101520, Note_on_c, 7, 50, 105
9, 101664, Note_on_c, 7, 50, 0
9, 101760, Note_on_c, 7, 51, 105
9, 102000, Note_on_c, 7, 51, 0
9, 102000, Note_on_c, 7, 55, 105
9, 102144, Note_on_c, 7, 55, 0
9, 102240, Note_on_c, 7, 53, 105
9, 102384, Note_on_c, 7, 53, 0
9, 102480, Note_on_c, 7, 50, 105
9, 102624, Note_on_c, 7, 50, 0
9, 102720, Note_on_c, 7, 51, 105
9, 102960, Note_on_c, 7, 51, 0
9, 102960, Note_on_c, 7, 55, 105
9, 103104, Note_on_c, 7, 55, 0
9, 103200, Note_on_c, 7, 53, 105
9, 103344, Note_on_c, 7, 53, 0
9, 103440, Note_on_c, 7, 50, 105
9, 103584, Note_on_c, 7, 50, 0
9, 103680, Note_on_c, 7, 51, 105
9, 103824, Note_on_c, 7, 51, 0
9, 103920, Note_on_c, 7, 53, 105
9, 104064, Note_on_c, 7, 53, 0
9, 104160, Note_on_c, 7, 55, 105
9, 104304, Note_on_c, 7, 55, 0
9, 104400, Note_on_c, 7, 53, 105
9, 104544, Note_on_c, 7, 53, 0
9, 104640, Note_on_c, 7, 51, 105
9, 104784, Note_on_c, 7, 51, 0
9, 104880, Note_on_c, 7, 50, 105
9, 105024, Note_on_c, 7, 50, 0
9, 105120, Note_on_c, 7, 48, 105
9, 105264, Note_on_c, 7, 48, 0
9, 105360, Note_on_c, 7, 46, 105
9, 105504, Note_on_c, 7, 46, 0
9, 105600, Note_on_c, 7, 45, 105
9, 105840, Note_on_c, 7, 45, 0
9, 105840, Note_on_c, 7, 46, 105
9, 105984, Note_on_c, 7, 46, 0
9, 106080, Note_on_c, 7, 48, 105
9, 106224, Note_on_c, 7, 48, 0
9, 106320, Note_on_c, 7, 46, 105
9, 106464, Note_on_c, 7, 46, 0
9, 106560, Note_on_c, 7, 45, 105
9, 106800, Note_on_c, 7, 45, 0
9, 106800, Note_on_c, 7, 46, 105
9, 106944, Note_on_c, 7, 46, 0
9, 107040, Note_on_c, 7, 48, 105
9, 107184, Note_on_c, 7, 48, 0
9, 107280, Note_on_c, 7, 46, 105
9, 107424, Note_on_c, 7, 46, 0
9, 107520, Note_on_c, 7, 45, 105
9, 108672, Note_on_c, 7, 45, 0
9, 109200, Note_on_c, 7, 57, 105
9, 109392, Note_on_c, 7, 57, 0
9, 109440, Note_on_c, 7, 58, 125
9, 109632, Note_on_c, 7, 58, 0
9, 109680, Note_on_c, 7, 57, 105
9, 109872, Note_on_c, 7, 57, 0
9, 109920, Note_on_c, 7, 55, 105
9, 110112, Note_on_c, 7, 55, 0
9, 110160, Note_on_c, 7, 53, 105
9, 110352, Note_on_c, 7, 53, 0
9, 110400, Note_on_c, 7, 51, 105
9, 110592, Note_on_c, 7, 51, 0
9, 110640, Note_on_c, 7, 50, 105
9, 110832, Note_on_c, 7, 50, 0
9, 110880, Note_on_c, 7, 48, 105
9, 111072, Note_on_c, 7, 48, 0
9, 111120, Note_on_c, 7, 46, 105
9, 111312, Note_on_c, 7, 46, 0
9, 111360, Note_on_c, 7, 45, 105
9, 112512, Note_on_c, 7, 45, 0
9, 113040, Note_on_c, 7, 57, 105
9, 113232, Note_on_c, 7, 57, 0
9, 113280, Note_on_c, 7, 55, 125
9, 113472, Note_on_c, 7, 55, 0
9, 113520, Note_on_c, 7, 53, 105
9, 113712, Note_on_c, 7, 53, 0
9, 113760, Note_on_c, 7, 51, 105
9, 113952, Note_on_c, 7, 51, 0
9, 114000, Note_on_c, 7, 50, 105
9, 114192, Note_on_c, 7, 50, 0
9, 114240, Note_on_c, 7, 48, 105
9, 114432, Note_on_c, 7, 48, 0
9, 114480, Note_on_c, 7, 46, 105
9, 114672, Note_on_c, 7, 46, 0
9, 114720, Note_on_c, 7, 45, 105
9, 114912, Note_on_c, 7, 45, 0
9, 114960, Note_on_c, 7, 43, 105
9, 115152, Note_on_c, 7, 43, 0
9, 115200, Note_on_c, 7, 41, 105
9, 116352, Note_on_c, 7, 41, 0
9, 116880, Note_on_c, 7, 65, 105
9, 117072, Note_on_c, 7, 65, 0
9, 117120, Note_on_c, 7, 63, 125
9, 117312, Note_on_c, 7, 63, 0
9, 117360, Note_on_c, 7, 62, 105
9, 117552, Note_on_c, 7, 62, 0
9, 117600, Note_on_c, 7, 60, 105
9, 117792, Note_on_c, 7, 60, 0
9, 117840, Note_on_c, 7, 58, 105
9, 118032, Note_on_c, 7, 58, 0
9, 118080, Note_on_c, 7, 56, 105
9, 118272, Note_on_c, 7, 56, 0
9, 118320, Note_on_c, 7, 55, 105
9, 118512, Note_on_c, 7, 55, 0
9, 118560, Note_on_c, 7, 53, 105
9, 118752, Note_on_c, 7, 53, 0
9, 118800, Note_on_c, 7, 51, 105
9, 118992, Note_on_c, 7, 51, 0
9, 119040, Note_on_c, 7, 50, 105
9, 119808, Note_on_c, 7, 50, 0
9, 120960, Note_on_c, 7, 48, 105
9, 121728, Note_on_c, 7, 48, 0
9, 121920, Note_on_c, 7, 50, 105
9, 122688, Note_on_c, 7, 50, 0
9, 122880, Note_on_c, 7, 51, 105
9, 123648, Note_on_c, 7, 51, 0
9, 123840, Note_on_c, 7, 52, 105
9, 124608, Note_on_c, 7, 52, 0
9, 124800, Note_on_c, 7, 53, 105
9, 125184, Note_on_c, 7, 53, 0
9, 125280, Note_on_c, 7, 53, 105
9, 125664, Note_on_c, 7, 53, 0
9, 125760, Note_on_c, 7, 53, 105
9, 126144, Note_on_c, 7, 53, 0
9, 126240, Note_on_c, 7, 53, 105
9, 126624, Note_on_c, 7, 53, 0
9, 126720, Note_on_c, 7, 53, 105
9, 127104, Note_on_c, 7, 53, 0
9, 127200, Note_on_c, 7, 53, 105
9, 127584, Note_on_c, 7, 53, 0
9, 127680, Note_on_c, 7, 53, 105
9, 128064, Note_on_c, 7, 53, 0
9, 128160, Note_on_c, 7, 53, 105
9, 128544, Note_on_c, 7, 53, 0
9, 128640, Note_on_c, 7, 53, 105
9, 129024, Note_on_c, 7, 53, 0
9, 129120, Note_on_c, 7, 53, 105
9, 129504, Note_on_c, 7, 53, 0
9, 129600, Note_on_c, 7, 53, 105
9, 129984, Note_on_c, 7, 53, 0
9, 130080, Note_on_c, 7, 53, 105
9, 130464, Note_on_c, 7, 53, 0
9, 130560, Note_on_c, 7, 53, 105
9, 130944, Note_on_c, 7, 53, 0
9, 131040, Note_on_c, 7, 53, 105
9, 131424, Note_on_c, 7, 53, 0
9, 131520, Note_on_c, 7, 53, 105
9, 131904, Note_on_c, 7, 53, 0
9, 132000, Note_on_c, 7, 53, 105
9, 132384, Note_on_c, 7, 53, 0
9, 132480, Note_on_c, 7, 53, 105
9, 132864, Note_on_c, 7, 53, 0
9, 133440, Note_on_c, 7, 53, 105
9, 133824, Note_on_c, 7, 53, 0
9, 134400, Note_on_c, 7, 41, 92
9, 135168, Note_on_c, 7, 41, 0
9, 167040, Note_on_c, 7, 58, 58
9, 167424, Note_on_c, 7, 58, 0
9, 167520, Note_on_c, 7, 58, 58
9, 167904, Note_on_c, 7, 58, 0
9, 168000, Note_on_c, 7, 58, 58
9, 168384, Note_on_c, 7, 58, 0
9, 168480, Note_on_c, 7, 58, 58
9, 168864, Note_on_c, 7, 58, 0
9, 168960, Note_on_c, 7, 57, 58
9, 169344, Note_on_c, 7, 57, 0
9, 169440, Note_on_c, 7, 57, 58
9, 169824, Note_on_c, 7, 57, 0
9, 169920, Note_on_c, 7, 57, 58
9, 170304, Note_on_c, 7, 57, 0
9, 170400, Note_on_c, 7, 57, 58
9, 170784, Note_on_c, 7, 57, 0
9, 170880, Note_on_c, 7, 55, 58
9, 172416, Note_on_c, 7, 55, 0
9, 172800, Note_on_c, 7, 54, 58
9, 173760, Note_on_c, 7, 54, 0
9, 173760, Note_on_c, 7, 55, 58
9, 174528, Note_on_c, 7, 55, 0
9, 174720, Note_on_c, 7, 51, 58
9, 175488, Note_on_c, 7, 51, 0
9, 177120, Note_on_c, 7, 51, 58
9, 177600, Note_on_c, 7, 51, 0
9, 177600, Note_on_c, 7, 50, 58
9, 178080, Note_on_c, 7, 50, 0
9, 178080, Note_on_c, 7, 48, 58
9, 178464, Note_on_c, 7, 48, 0
9, 178560, Note_on_c, 7, 53, 58
9, 179040, Note_on_c, 7, 53, 0
9, 179040, Note_on_c, 7, 52, 58
9, 179520, Note_on_c, 7, 52, 0
9, 179520, Note_on_c, 7, 53, 58
9, 180000, Note_on_c, 7, 53, 0
9, 180000, Note_on_c, 7, 52, 58
9, 180480, Note_on_c, 7, 52, 0
9, 180480, Note_on_c, 7, 53, 58
9, 180960, Note_on_c, 7, 53, 0
9, 182400, Note_on_c, 7, 46, 58
9, 182784, Note_on_c, 7, 46, 0
9, 182880, Note_on_c, 7, 46, 58
9, 183264, Note_on_c, 7, 46, 0
9, 183360, Note_on_c, 7, 58, 58
9, 183744, Note_on_c, 7, 58, 0
9, 183840, Note_on_c, 7, 58, 58
9, 184224, Note_on_c, 7, 58, 0
9, 184320, Note_on_c, 7, 57, 58
9, 184704, Note_on_c, 7, 57, 0
9, 184800, Note_on_c, 7, 57, 58
9, 185184, Note_on_c, 7, 57, 0
9, 185280, Note_on_c, 7, 56, 58
9, 185664, Note_on_c, 7, 56, 0
9, 185760, Note_on_c, 7, 56, 58
9, 186144, Note_on_c, 7, 56, 0
9, 186240, Note_on_c, 7, 55, 58
9, 186624, Note_on_c, 7, 55, 0
9, 186720, Note_on_c, 7, 55, 58
9, 187104, Note_on_c, 7, 55, 0
9, 187200, Note_on_c, 7, 55, 58
9, 187584, Note_on_c, 7, 55, 0
9, 187680, Note_on_c, 7, 55, 58
9, 188064, Note_on_c, 7, 55, 0
9, 188160, Note_on_c, 7, 54, 58
9, 188544, Note_on_c, 7, 54, 0
9, 188640, Note_on_c, 7, 54, 58
9, 189024, Note_on_c, 7, 54, 0
9, 189120, Note_on_c, 7, 53, 58
9, 189504, Note_on_c, 7, 53, 0
9, 189600, Note_on_c, 7, 53, 58
9, 189984, Note_on_c, 7, 53, 0
9, 190080, Note_on_c, 7, 51, 58
9, 190464, Note_on_c, 7, 51, 0
9, 190560, Note_on_c, 7, 51, 58
9, 190944, Note_on_c, 7, 51, 0
9, 191040, Note_on_c, 7, 51, 58
9, 191424, Note_on_c, 7, 51, 0
9, 191520, Note_on_c, 7, 51, 58
9, 191904, Note_on_c, 7, 51, 0
9, 192000, Note_on_c, 7, 53, 58
9, 192384, Note_on_c, 7, 53, 0
9, 192480, Note_on_c, 7, 53, 58
9, 192864, Note_on_c, 7, 53, 0
9, 192960, Note_on_c, 7, 41, 58
9, 193344, Note_on_c, 7, 41, 0
9, 193440, Note_on_c, 7, 41, 58
9, 193824, Note_on_c, 7, 41, 0
9, 193920, Note_on_c, 7, 46, 105
9, 194688, Note_on_c, 7, 46, 0
9, 195840, Note_on_c, 7, 62, 105
9, 196224, Note_on_c, 7, 62, 0
9, 196320, Note_on_c, 7, 63, 105
9, 196704, Note_on_c, 7, 63, 0
9, 196800, Note_on_c, 7, 62, 105
9, 197184, Note_on_c, 7, 62, 0
9, 197280, Note_on_c, 7, 63, 105
9, 197664, Note_on_c, 7, 63, 0
9, 197760, Note_on_c, 7, 62, 105
9, 198528, Note_on_c, 7, 62, 0
9, 199680, Note_on_c, 7, 62, 105
9, 200064, Note_on_c, 7, 62, 0
9, 200160, Note_on_c, 7, 63, 105
9, 200544, Note_on_c, 7, 63, 0
9, 200640, Note_on_c, 7, 62, 105
9, 201024, Note_on_c, 7, 62, 0
9, 201120, Note_on_c, 7, 63, 105
9, 201504, Note_on_c, 7, 63, 0
9, 201600, Note_on_c, 7, 62, 105
9, 202368, Note_on_c, 7, 62, 0
9, 203520, Note_on_c, 7, 62, 105
9, 203904, Note_on_c, 7, 62, 0
9, 204000, Note_on_c, 7, 63, 105
9, 204384, Note_on_c, 7, 63, 0
9, 204480, Note_on_c, 7, 62, 105
9, 204864, Note_on_c, 7, 62, 0
9, 204960, Note_on_c, 7, 63, 105
9, 205344, Note_on_c, 7, 63, 0
9, 205440, Note_on_c, 7, 62, 105
9, 205824, Note_on_c, 7, 62, 0
9, 206400, Note_on_c, 7, 63, 105
9, 206784, Note_on_c, 7, 63, 0
9, 207360, Note_on_c, 7, 65, 105
9, 207744, Note_on_c, 7, 65, 0
9, 208320, Note_on_c, 7, 53, 105
9, 208704, Note_on_c, 7, 53, 0
9, 209280, Note_on_c, 7, 58, 105
9, 209664, Note_on_c, 7, 58, 0
9, 211200, Note_on_c, 7, 50, 58
9, 211584, Note_on_c, 7, 50, 0
9, 211680, Note_on_c, 7, 51, 58
9, 212064, Note_on_c, 7, 51, 0
9, 212160, Note_on_c, 7, 50, 58
9, 212544, Note_on_c, 7, 50, 0
9, 212640, Note_on_c, 7, 51, 58
9, 213024, Note_on_c, 7, 51, 0
9, 213120, Note_on_c, 7, 50, 58
9, 213504, Note_on_c, 7, 50, 0
9, 215040, Note_on_c, 7, 50, 58
9, 215424, Note_on_c, 7, 50, 0
9, 215520, Note_on_c, 7, 51, 58
9, 215904, Note_on_c, 7, 51, 0
9, 216000, Note_on_c, 7, 50, 58
9, 216384, Note_on_c, 7, 50, 0
9, 216480, Note_on_c, 7, 51, 58
9, 216864, Note_on_c, 7, 51, 0
9, 216960, Note_on_c, 7, 50, 58
9, 217344, Note_on_c, 7, 50, 0
9, 218880, Note_on_c, 7, 62, 105
9, 219264, Note_on_c, 7, 62, 0
9, 219360, Note_on_c, 7, 63, 105
9, 219744, Note_on_c, 7, 63, 0
9, 219840, Note_on_c, 7, 62, 105
9, 220224, Note_on_c, 7, 62, 0
9, 220320, Note_on_c, 7, 63, 105
9, 220704, Note_on_c, 7, 63, 0
9, 220800, Note_on_c, 7, 62, 105
9, 221184, Note_on_c, 7, 62, 0
9, 221280, Note_on_c, 7, 62, 105
9, 221664, Note_on_c, 7, 62, 0
9, 221760, Note_on_c, 7, 63, 105
9, 222144, Note_on_c, 7, 63, 0
9, 222240, Note_on_c, 7, 63, 105
9, 222624, Note_on_c, 7, 63, 0
9, 222720, Note_on_c, 7, 65, 105
9, 223104, Note_on_c, 7, 65, 0
9, 223200, Note_on_c, 7, 65, 105
9, 223584, Note_on_c, 7, 65, 0
9, 223680, Note_on_c, 7, 53, 105
9, 224064, Note_on_c, 7, 53, 0
9, 224160, Note_on_c, 7, 53, 105
9, 224544, Note_on_c, 7, 53, 0
9, 224640, Note_on_c, 7, 46, 125
9, 224820, Note_on_c, 7, 46, 0
9, 224880, Note_on_c, 7, 48, 105
9, 225060, Note_on_c, 7, 48, 0
9, 225120, Note_on_c, 7, 50, 105
9, 225300, Note_on_c, 7, 50, 0
9, 225360, Note_on_c, 7, 51, 105
9, 225540, Note_on_c, 7, 51, 0
9, 225600, Note_on_c, 7, 53, 105
9, 225780, Note_on_c, 7, 53, 0
9, 225840, Note_on_c, 7, 55, 105
9, 226020, Note_on_c, 7, 55, 0
9, 226080, Note_on_c, 7, 57, 105
9, 226260, Note_on_c, 7, 57, 0
9, 226320, Note_on_c, 7, 58, 105
9, 226500, Note_on_c, 7, 58, 0
9, 226560, Note_on_c, 7, 53, 105
9, 227328, Note_on_c, 7, 53, 0
9, 228240, Note_on_c, 7, 41, 105
9, 228420, Note_on_c, 7, 41, 0
9, 228480, Note_on_c, 7, 46, 125
9, 228660, Note_on_c, 7, 46, 0
9, 228720, Note_on_c, 7, 48, 105
9, 228900, Note_on_c, 7, 48, 0
9, 228960, Note_on_c, 7, 50, 105
9, 229140, Note_on_c, 7, 50, 0
9, 229200, Note_on_c, 7, 51, 105
9, 229380, Note_on_c, 7, 51, 0
9, 229440, Note_on_c, 7, 53, 105
9, 229620, Note_on_c, 7, 53, 0
9, 229680, Note_on_c, 7, 55, 105
9, 229860, Note_on_c, 7, 55, 0
9, 229920, Note_on_c, 7, 57, 105
9, 230100, Note_on_c, 7, 57, 0
9, 230160, Note_on_c, 7, 58, 105
9, 230340, Note_on_c, 7, 58, 0
9, 230400, Note_on_c, 7, 53, 105
9, 231168, Note_on_c, 7, 53, 0
9, 232080, Note_on_c, 7, 41, 105
9, 232260, Note_on_c, 7, 41, 0
9, 232320, Note_on_c, 7, 46, 125
9, 232500, Note_on_c, 7, 46, 0
9, 232560, Note_on_c, 7, 48, 105
9, 232740, Note_on_c, 7, 48, 0
9, 232800, Note_on_c, 7, 50, 105
9, 232980, Note_on_c, 7, 50, 0
9, 233040, Note_on_c, 7, 51, 105
9, 233220, Note_on_c, 7, 51, 0
9, 233280, Note_on_c, 7, 53, 105
9, 233460, Note_on_c, 7, 53, 0
9, 233520, Note_on_c, 7, 55, 105
9, 233700, Note_on_c, 7, 55, 0
9, 233760, Note_on_c, 7, 57, 105
9, 233940, Note_on_c, 7, 57, 0
9, 234000, Note_on_c, 7, 58, 105
9, 234180, Note_on_c, 7, 58, 0
9, 234240, Note_on_c, 7, 53, 105
9, 235008, Note_on_c, 7, 53, 0
9, 235920, Note_on_c, 7, 41, 105
9, 236112, Note_on_c, 7, 41, 0
9, 236160, Note_on_c, 7, 46, 105
9, 236544, Note_on_c, 7, 46, 0
9, 237120, Note_on_c, 7, 58, 105
9, 237504, Note_on_c, 7, 58, 0
9, 238080, Note_on_c, 7, 46, 105
9, 238848, Note_on_c, 7, 46, 0
9, 240000, Note_on_c, 7, 55, 58
9, 240768, Note_on_c, 7, 55, 0
9, 241920, Note_on_c, 7, 55, 58
9, 242688, Note_on_c, 7, 55, 0
9, 243360, Note_on_c, 7, 55, 105
9, 243744, Note_on_c, 7, 55, 0
9, 243840, Note_on_c, 7, 54, 105
9, 244224, Note_on_c, 7, 54, 0
9, 244320, Note_on_c, 7, 55, 105
9, 244704, Note_on_c, 7, 55, 0
9, 244800, Note_on_c, 7, 54, 105
9, 245184, Note_on_c, 7, 54, 0
9, 245280, Note_on_c, 7, 55, 105
9, 245664, Note_on_c, 7, 55, 0
9, 245760, Note_on_c, 7, 54, 105
9, 246528, Note_on_c, 7, 54, 0
9, 247680, Note_on_c, 7, 48, 58
9, 248448, Note_on_c, 7, 48, 0
9, 249600, Note_on_c, 7, 50, 58
9, 250368, Note_on_c, 7, 50, 0
9, 251040, Note_on_c, 7, 50, 105
9, 251328, Note_on_c, 7, 50, 0
9, 251520, Note_on_c, 7, 55, 105
9, 251808, Note_on_c, 7, 55, 0
9, 252000, Note_on_c, 7, 50, 105
9, 252288, Note_on_c, 7, 50, 0
9, 252480, Note_on_c, 7, 55, 105
9, 252768, Note_on_c, 7, 55, 0
9, 252960, Note_on_c, 7, 50, 105
9, 253248, Note_on_c, 7, 50, 0
9, 253440, Note_on_c, 7, 55, 105
9, 254208, Note_on_c, 7, 55, 0
9, 255360, Note_on_c, 7, 55, 58
9, 256128, Note_on_c, 7, 55, 0
9, 257280, Note_on_c, 7, 55, 58
9, 258048, Note_on_c, 7, 55, 0
9, 258720, Note_on_c, 7, 55, 105
9, 259104, Note_on_c, 7, 55, 0
9, 259200, Note_on_c, 7, 54, 105
9, 259584, Note_on_c, 7, 54, 0
9, 259680, Note_on_c, 7, 55, 105
9, 260064, Note_on_c, 7, 55, 0
9, 260160, Note_on_c, 7, 54, 105
9, 260544, Note_on_c, 7, 54, 0
9, 260640, Note_on_c, 7, 55, 105
9, 261024, Note_on_c, 7, 55, 0
9, 261120, Note_on_c, 7, 54, 105
9, 261888, Note_on_c, 7, 54, 0
9, 263040, Note_on_c, 7, 48, 58
9, 263808, Note_on_c, 7, 48, 0
9, 264960, Note_on_c, 7, 50, 58
9, 265728, Note_on_c, 7, 50, 0
9, 266400, Note_on_c, 7, 50, 105
9, 266688, Note_on_c, 7, 50, 0
9, 266880, Note_on_c, 7, 55, 105
9, 267168, Note_on_c, 7, 55, 0
9, 267360, Note_on_c, 7, 50, 105
9, 267648, Note_on_c, 7, 50, 0
9, 267840, Note_on_c, 7, 55, 105
9, 268128, Note_on_c, 7, 55, 0
9, 268320, Note_on_c, 7, 50, 105
9, 268608, Note_on_c, 7, 50, 0
9, 268800, Note_on_c, 7, 55, 105
9, 269568, Note_on_c, 7, 55, 0
9, 270240, Note_on_c, 7, 50, 105
9, 270528, Note_on_c, 7, 50, 0
9, 270720, Note_on_c, 7, 50, 105
9, 271008, Note_on_c, 7, 50, 0
9, 271200, Note_on_c, 7, 62, 105
9, 271488, Note_on_c, 7, 62, 0
9, 271680, Note_on_c, 7, 62, 70
9, 271968, Note_on_c, 7, 62, 0
9, 272160, Note_on_c, 7, 62, 70
9, 272448, Note_on_c, 7, 62, 0
9, 272640, Note_on_c, 7, 62, 70
9, 273792, Note_on_c, 7, 62, 0
9, 274080, Note_on_c, 7, 50, 105
9, 274368, Note_on_c, 7, 50, 0
9, 274560, Note_on_c, 7, 50, 105
9, 274848, Note_on_c, 7, 50, 0
9, 275040, Note_on_c, 7, 62, 105
9, 275328, Note_on_c, 7, 62, 0
9, 275520, Note_on_c, 7, 62, 70
9, 275808, Note_on_c, 7, 62, 0
9, 276000, Note_on_c, 7, 62, 70
9, 276288, Note_on_c, 7, 62, 0
9, 276480, Note_on_c, 7, 62, 70
9, 277632, Note_on_c, 7, 62, 0
9, 278400, Note_on_c, 7, 48, 58
9, 279168, Note_on_c, 7, 48, 0
9, 280320, Note_on_c, 7, 50, 58
9, 281088, Note_on_c, 7, 50, 0
9, 281760, Note_on_c, 7, 50, 105
9, 282048, Note_on_c, 7, 50, 0
9, 282240, Note_on_c, 7, 55, 105
9, 282528, Note_on_c, 7, 55, 0
9, 282720, Note_on_c, 7, 50, 105
9, 283008, Note_on_c, 7, 50, 0
9, 283200, Note_on_c, 7, 55, 105
9, 283488, Note_on_c, 7, 55, 0
9, 283680, Note_on_c, 7, 50, 105
9, 283968, Note_on_c, 7, 50, 0
9, 284160, Note_on_c, 7, 55, 105
9, 284928, Note_on_c, 7, 55, 0
9, 285600, Note_on_c, 7, 50, 105
9, 285888, Note_on_c, 7, 50, 0
9, 286080, Note_on_c, 7, 50, 105
9, 286368, Note_on_c, 7, 50, 0
9, 286560, Note_on_c, 7, 62, 70
9, 286848, Note_on_c, 7, 62, 0
9, 287040, Note_on_c, 7, 62, 70
9, 287328, Note_on_c, 7, 62, 0
9, 287520, Note_on_c, 7, 62, 70
9, 287808, Note_on_c, 7, 62, 0
9, 288000, Note_on_c, 7, 62, 70
9, 289152, Note_on_c, 7, 62, 0
9, 289440, Note_on_c, 7, 50, 105
9, 289728, Note_on_c, 7, 50, 0
9, 289920, Note_on_c, 7, 50, 105
9, 290208, Note_on_c, 7, 50, 0
9, 290400, Note_on_c, 7, 62, 70
9, 290688, Note_on_c, 7, 62, 0
9, 290880, Note_on_c, 7, 62, 70
9, 291168, Note_on_c, 7, 62, 0
9, 291360, Note_on_c, 7, 62, 70
9, 291648, Note_on_c, 7, 62, 0
9, 291840, Note_on_c, 7, 62, 70
9, 292992, Note_on_c, 7, 62, 0
9, 293760, Note_on_c, 7, 48, 58
9, 294528, Note_on_c, 7, 48, 0
9, 295680, Note_on_c, 7, 50, 58
9, 296448, Note_on_c, 7, 50, 0
9, 297120, Note_on_c, 7, 50, 105
9, 297408, Note_on_c, 7, 50, 0
9, 297600, Note_on_c, 7, 55, 105
9, 297888, Note_on_c, 7, 55, 0
9, 298080, Note_on_c, 7, 50, 105
9, 298368, Note_on_c, 7, 50, 0
9, 298560, Note_on_c, 7, 55, 105
9, 298848, Note_on_c, 7, 55, 0
9, 299040, Note_on_c, 7, 50, 105
9, 299328, Note_on_c, 7, 50, 0
9, 299520, Note_on_c, 7, 55, 105
9, 300288, Note_on_c, 7, 55, 0
9, 301440, Note_on_c, 7, 51, 105
9, 301728, Note_on_c, 7, 51, 0
9, 301920, Note_on_c, 7, 53, 105
9, 302208, Note_on_c, 7, 53, 0
9, 302400, Note_on_c, 7, 51, 105
9, 302688, Note_on_c, 7, 51, 0
9, 302880, Note_on_c, 7, 53, 105
9, 303168, Note_on_c, 7, 53, 0
9, 303360, Note_on_c, 7, 51, 105
9, 304128, Note_on_c, 7, 51, 0
9, 305280, Note_on_c, 7, 50, 105
9, 305568, Note_on_c, 7, 50, 0
9, 305760, Note_on_c, 7, 49, 105
9, 306048, Note_on_c, 7, 49, 0
9, 306240, Note_on_c, 7, 50, 105
9, 306528, Note_on_c, 7, 50, 0
9, 306720, Note_on_c, 7, 49, 105
9, 307008, Note_on_c, 7, 49, 0
9, 307200, Note_on_c, 7, 50, 105
9, 307968, Note_on_c, 7, 50, 0
9, 308640, Note_on_c, 7, 42, 105
9, 309024, Note_on_c, 7, 42, 0
9, 309120, Note_on_c, 7, 43, 105
9, 309888, Note_on_c, 7, 43, 0
9, 310560, Note_on_c, 7, 46, 105
9, 310944, Note_on_c, 7, 46, 0
9, 311040, Note_on_c, 7, 45, 105
9, 311424, Note_on_c, 7, 45, 0
9, 311520, Note_on_c, 7, 48, 105
9, 311904, Note_on_c, 7, 48, 0
9, 312000, Note_on_c, 7, 50, 105
9, 312384, Note_on_c, 7, 50, 0
9, 312480, Note_on_c, 7, 54, 105
9, 312864, Note_on_c, 7, 54, 0
9, 312960, Note_on_c, 7, 55, 105
9, 313728, Note_on_c, 7, 55, 0
9, 314400, Note_on_c, 7, 58, 105
9, 314784, Note_on_c, 7, 58, 0
9, 314880, Note_on_c, 7, 57, 105
9, 315264, Note_on_c, 7, 57, 0
9, 315360, Note_on_c, 7, 60, 105
9, 315744, Note_on_c, 7, 60, 0
9, 315840, Note_on_c, 7, 62, 105
9, 316224, Note_on_c, 7, 62, 0
9, 316320, Note_on_c, 7, 54, 105
9, 316704, Note_on_c, 7, 54, 0
9, 316800, Note_on_c, 7, 55, 105
9, 317568, Note_on_c, 7, 55, 0
9, 318240, Note_on_c, 7, 53, 105
9, 318624, Note_on_c, 7, 53, 0
9, 318720, Note_on_c, 7, 51, 105
9, 319488, Note_on_c, 7, 51, 0
9, 320160, Note_on_c, 7, 48, 105
9, 320544, Note_on_c, 7, 48, 0
9, 320640, Note_on_c, 7, 53, 105
9, 321408, Note_on_c, 7, 53, 0
9, 322080, Note_on_c, 7, 51, 105
9, 322464, Note_on_c, 7, 51, 0
9, 322560, Note_on_c, 7, 50, 105
9, 323328, Note_on_c, 7, 50, 0
9, 324000, Note_on_c, 7, 46, 105
9, 324384, Note_on_c, 7, 46, 0
9, 324480, Note_on_c, 7, 51, 105
9, 325248, Note_on_c, 7, 51, 0
9, 325920, Note_on_c, 7, 53, 105
9, 326304, Note_on_c, 7, 53, 0
9, 326400, Note_on_c, 7, 55, 105
9, 327168, Note_on_c, 7, 55, 0
9, 327840, Note_on_c, 7, 52, 105
9, 328224, Note_on_c, 7, 52, 0
9, 328320, Note_on_c, 7, 53, 105
9, 329088, Note_on_c, 7, 53, 0
9, 329760, Note_on_c, 7, 55, 105
9, 330144, Note_on_c, 7, 55, 0
9, 330240, Note_on_c, 7, 57, 105
9, 331008, Note_on_c, 7, 57, 0
9, 332160, Note_on_c, 7, 58, 105
9, 332400, Note_on_c, 7, 58, 0
9, 332400, Note_on_c, 7, 62, 105
9, 332544, Note_on_c, 7, 62, 0
9, 332640, Note_on_c, 7, 60, 105
9, 332784, Note_on_c, 7, 60, 0
9, 332880, Note_on_c, 7, 57, 105
9, 333024, Note_on_c, 7, 57, 0
9, 333120, Note_on_c, 7, 58, 105
9, 333360, Note_on_c, 7, 58, 0
9, 333360, Note_on_c, 7, 62, 105
9, 333504, Note_on_c, 7, 62, 0
9, 333600, Note_on_c, 7, 60, 105
9, 333744, Note_on_c, 7, 60, 0
9, 333840, Note_on_c, 7, 57, 105
9, 333984, Note_on_c, 7, 57, 0
9, 334080, Note_on_c, 7, 58, 105
9, 334272, Note_on_c, 7, 58, 0
9, 334320, Note_on_c, 7, 60, 105
9, 334512, Note_on_c, 7, 60, 0
9, 334560, Note_on_c, 7, 62, 105
9, 334752, Note_on_c, 7, 62, 0
9, 334800, Note_on_c, 7, 60, 105
9, 334992, Note_on_c, 7, 60, 0
9, 335040, Note_on_c, 7, 58, 105
9, 335232, Note_on_c, 7, 58, 0
9, 335280, Note_on_c, 7, 57, 105
9, 335472, Note_on_c, 7, 57, 0
9, 335520, Note_on_c, 7, 55, 105
9, 335712, Note_on_c, 7, 55, 0
9, 335760, Note_on_c, 7, 54, 105
9, 335952, Note_on_c, 7, 54, 0
9, 336000, Note_on_c, 7, 55, 105
9, 336240, Note_on_c, 7, 55, 0
9, 336240, Note_on_c, 7, 58, 105
9, 336384, Note_on_c, 7, 58, 0
9, 336480, Note_on_c, 7, 57, 105
9, 336624, Note_on_c, 7, 57, 0
9, 336720, Note_on_c, 7, 54, 105
9, 336864, Note_on_c, 7, 54, 0
9, 336960, Note_on_c, 7, 55, 105
9, 337200, Note_on_c, 7, 55, 0
9, 337200, Note_on_c, 7, 58, 105
9, 337344, Note_on_c, 7, 58, 0
9, 337440, Note_on_c, 7, 57, 105
9, 337584, Note_on_c, 7, 57, 0
9, 337680, Note_on_c, 7, 54, 105
9, 337824, Note_on_c, 7, 54, 0
9, 337920, Note_on_c, 7, 55, 105
9, 338064, Note_on_c, 7, 55, 0
9, 338160, Note_on_c, 7, 57, 105
9, 338304, Note_on_c, 7, 57, 0
9, 338400, Note_on_c, 7, 58, 105
9, 338544, Note_on_c, 7, 58, 0
9, 338640, Note_on_c, 7, 57, 105
9, 338784, Note_on_c, 7, 57, 0
9, 338880, Note_on_c, 7, 55, 105
9, 339024, Note_on_c, 7, 55, 0
9, 339120, Note_on_c, 7, 53, 105
9, 339264, Note_on_c, 7, 53, 0
9, 339360, Note_on_c, 7, 51, 105
9, 339504, Note_on_c, 7, 51, 0
9, 339600, Note_on_c, 7, 50, 105
9, 339744, Note_on_c, 7, 50, 0
9, 339840, Note_on_c, 7, 51, 105
9, 340080, Note_on_c, 7, 51, 0
9, 340080, Note_on_c, 7, 55, 105
9, 340224, Note_on_c, 7, 55, 0
9, 340320, Note_on_c, 7, 53, 105
9, 340464, Note_on_c, 7, 53, 0
9, 340560, Note_on_c, 7, 50, 105
9, 340704, Note_on_c, 7, 50, 0
9, 340800, Note_on_c, 7, 51, 105
9, 341040, Note_on_c, 7, 51, 0
9, 341040, Note_on_c, 7, 55, 105
9, 341184, Note_on_c, 7, 55, 0
9, 341280, Note_on_c, 7, 53, 105
9, 341424, Note_on_c, 7, 53, 0
9, 341520, Note_on_c, 7, 50, 105
9, 341664, Note_on_c, 7, 50, 0
9, 341760, Note_on_c, 7, 51, 105
9, 341904, Note_on_c, 7, 51, 0
9, 342000, Note_on_c, 7, 53, 105
9, 342144, Note_on_c, 7, 53, 0
9, 342240, Note_on_c, 7, 55, 105
9, 342384, Note_on_c, 7, 55, 0
9, 342480, Note_on_c, 7, 53, 105
9, 342624, Note_on_c, 7, 53, 0
9, 342720, Note_on_c, 7, 51, 105
9, 342864, Note_on_c, 7, 51, 0
9, 342960, Note_on_c, 7, 50, 105
9, 343104, Note_on_c, 7, 50, 0
9, 343200, Note_on_c, 7, 48, 105
9, 343344, Note_on_c, 7, 48, 0
9, 343440, Note_on_c, 7, 46, 105
9, 343584, Note_on_c, 7, 46, 0
9, 343680, Note_on_c, 7, 45, 105
9, 343920, Note_on_c, 7, 45, 0
9, 343920, Note_on_c, 7, 46, 105
9, 344064, Note_on_c, 7, 46, 0
9, 344160, Note_on_c, 7, 48, 105
9, 344304, Note_on_c, 7, 48, 0
9, 344400, Note_on_c, 7, 46, 105
9, 344544, Note_on_c, 7, 46, 0
9, 344640, Note_on_c, 7, 45, 105
9, 344880, Note_on_c, 7, 45, 0
9, 344880, Note_on_c, 7, 46, 105
9, 345024, Note_on_c, 7, 46, 0
9, 345120, Note_on_c, 7, 48, 105
9, 345264, Note_on_c, 7, 48, 0
9, 345360, Note_on_c, 7, 46, 105
9, 345504, Note_on_c, 7, 46, 0
9, 345600, Note_on_c, 7, 45, 105
9, 346752, Note_on_c, 7, 45, 0
9, 347280, Note_on_c, 7, 57, 105
9, 347472, Note_on_c, 7, 57, 0
9, 347520, Note_on_c, 7, 58, 125
9, 347712, Note_on_c, 7, 58, 0
9, 347760, Note_on_c, 7, 57, 105
9, 347952, Note_on_c, 7, 57, 0
9, 348000, Note_on_c, 7, 55, 105
9, 348192, Note_on_c, 7, 55, 0
9, 348240, Note_on_c, 7, 53, 105
9, 348432, Note_on_c, 7, 53, 0
9, 348480, Note_on_c, 7, 51, 105
9, 348672, Note_on_c, 7, 51, 0
9, 348720, Note_on_c, 7, 50, 105
9, 348912, Note_on_c, 7, 50, 0
9, 348960, Note_on_c, 7, 48, 105
9, 349152, Note_on_c, 7, 48, 0
9, 349200, Note_on_c, 7, 46, 105
9, 349392, Note_on_c, 7, 46, 0
9, 349440, Note_on_c, 7, 45, 105
9, 350592, Note_on_c, 7, 45, 0
9, 351120, Note_on_c, 7, 57, 105
9, 351312, Note_on_c, 7, 57, 0
9, 351360, Note_on_c, 7, 55, 125
9, 351552, Note_on_c, 7, 55, 0
9, 351600, Note_on_c, 7, 53, 105
9, 351792, Note_on_c, 7, 53, 0
9, 351840, Note_on_c, 7, 51, 105
9, 352032, Note_on_c, 7, 51, 0
9, 352080, Note_on_c, 7, 50, 105
9, 352272, Note_on_c, 7, 50, 0
9, 352320, Note_on_c, 7, 48, 105
9, 352512, Note_on_c, 7, 48, 0
9, 352560, Note_on_c, 7, 46, 105
9, 352752, Note_on_c, 7, 46, 0
9, 352800, Note_on_c, 7, 45, 105
9, 352992, Note_on_c, 7, 45, 0
9, 353040, Note_on_c, 7, 43, 105
9, 353232, Note_on_c, 7, 43, 0
9, 353280, Note_on_c, 7, 41, 105
9, 354432, Note_on_c, 7, 41, 0
9, 354960, Note_on_c, 7, 65, 105
9, 355152, Note_on_c, 7, 65, 0
9, 355200, Note_on_c, 7, 63, 125
9, 355392, Note_on_c, 7, 63, 0
9, 355440, Note_on_c, 7, 62, 105
9, 355632, Note_on_c, 7, 62, 0
9, 355680, Note_on_c, 7, 60, 105
9, 355872, Note_on_c, 7, 60, 0
9, 355920, Note_on_c, 7, 58, 105
9, 356112, Note_on_c, 7, 58, 0
9, 356160, Note_on_c, 7, 56, 105
9, 356352, Note_on_c, 7, 56, 0
9, 356400, Note_on_c, 7, 55, 105
9, 356592, Note_on_c, 7, 55, 0
9, 356640, Note_on_c, 7, 53, 105
9, 356832, Note_on_c, 7, 53, 0
9, 356880, Note_on_c, 7, 51, 105
9, 357072, Note_on_c, 7, 51, 0
9, 357120, Note_on_c, 7, 50, 105
9, 357888, Note_on_c, 7, 50, 0
9, 359040, Note_on_c, 7, 48, 105
9, 359808, Note_on_c, 7, 48, 0
9, 360000, Note_on_c, 7, 50, 105
9, 360768, Note_on_c, 7, 50, 0
9, 360960, Note_on_c, 7, 51, 105
9, 361728, Note_on_c, 7, 51, 0
9, 361920, Note_on_c, 7, 52, 105
9, 362688, Note_on_c, 7, 52, 0
9, 362880, Note_on_c, 7, 53, 105
9, 363264, Note_on_c, 7, 53, 0
9, 363360, Note_on_c, 7, 53, 105
9, 363744, Note_on_c, 7, 53, 0
9, 363840, Note_on_c, 7, 53, 105
9, 364224, Note_on_c, 7, 53, 0
9, 364320, Note_on_c, 7, 53, 105
9, 364704, Note_on_c, 7, 53, 0
9, 364800, Note_on_c, 7, 53, 105
9, 365184, Note_on_c, 7, 53, 0
9, 365280, Note_on_c, 7, 53, 105
9, 365664, Note_on_c, 7, 53, 0
9, 365760, Note_on_c, 7, 53, 105
9, 366144, Note_on_c, 7, 53, 0
9, 366240, Note_on_c, 7, 53, 105
9, 366624, Note_on_c, 7, 53, 0
9, 366720, Note_on_c, 7, 53, 105
9, 367104, Note_on_c, 7, 53, 0
9, 367200, Note_on_c, 7, 53, 105
9, 367584, Note_on_c, 7, 53, 0
9, 367680, Note_on_c, 7, 53, 105
9, 368064, Note_on_c, 7, 53, 0
9, 368160, Note_on_c, 7, 53, 105
9, 368544, Note_on_c, 7, 53, 0
9, 368640, Note_on_c, 7, 53, 105
9, 369024, Note_on_c, 7, 53, 0
9, 369120, Note_on_c, 7, 53, 105
9, 369504, Note_on_c, 7, 53, 0
9, 369600, Note_on_c, 7, 53, 105
9, 369984, Note_on_c, 7, 53, 0
9, 370080, Note_on_c, 7, 53, 105
9, 370464, Note_on_c, 7, 53, 0
9, 370560, Note_on_c, 7, 53, 105
9, 370944, Note_on_c, 7, 53, 0
9, 371520, Note_on_c, 7, 53, 105
9, 371904, Note_on_c, 7, 53, 0
9, 372480, Note_on_c, 7, 41, 92
9, 373248, Note_on_c, 7, 41, 0
9, 405120, Note_on_c, 7, 58, 58
9, 405504, Note_on_c, 7, 58, 0
9, 405600, Note_on_c, 7, 58, 58
9, 405984, Note_on_c, 7, 58, 0
9, 406080, Note_on_c, 7, 58, 58
9, 406464, Note_on_c, 7, 58, 0
9, 406560, Note_on_c, 7, 58, 58
9, 406944, Note_on_c, 7, 58, 0
9, 407040, Note_on_c, 7, 57, 58
9, 407424, Note_on_c, 7, 57, 0
9, 407520, Note_on_c, 7, 57, 58
9, 407904, Note_on_c, 7, 57, 0
9, 408000, Note_on_c, 7, 57, 58
9, 408384, Note_on_c, 7, 57, 0
9, 408480, Note_on_c, 7, 57, 58
9, 408864, Note_on_c, 7, 57, 0
9, 408960, Note_on_c, 7, 55, 58
9, 410496, Note_on_c, 7, 55, 0
9, 410880, Note_on_c, 7, 54, 58
9, 411840, Note_on_c, 7, 54, 0
9, 411840, Note_on_c, 7, 55, 58
9, 412608, Note_on_c, 7, 55, 0
9, 412800, Note_on_c, 7, 51, 58
9, 413568, Note_on_c, 7, 51, 0
9, 415200, Note_on_c, 7, 51, 58
9, 415680, Note_on_c, 7, 51, 0
9, 415680, Note_on_c, 7, 50, 58
9, 416160, Note_on_c, 7, 50, 0
9, 416160, Note_on_c, 7, 48, 58
9, 416544, Note_on_c, 7, 48, 0
9, 416640, Note_on_c, 7, 53, 58
9, 417120, Note_on_c, 7, 53, 0
9, 417120, Note_on_c, 7, 52, 58
9, 417600, Note_on_c, 7, 52, 0
9, 417600, Note_on_c, 7, 53, 58
9, 418080, Note_on_c, 7, 53, 0
9, 418080, Note_on_c, 7, 52, 58
9, 418560, Note_on_c, 7, 52, 0
9, 418560, Note_on_c, 7, 53, 58
9, 419040, Note_on_c, 7, 53, 0
9, 420480, Note_on_c, 7, 46, 58
9, 420864, Note_on_c, 7, 46, 0
9, 420960, Note_on_c, 7, 46, 58
9, 421344, Note_on_c, 7, 46, 0
9, 421440, Note_on_c, 7, 58, 58
9, 421824, Note_on_c, 7, 58, 0
9, 421920, Note_on_c, 7, 58, 58
9, 422304, Note_on_c, 7, 58, 0
9, 422400, Note_on_c, 7, 57, 58
9, 422784, Note_on_c, 7, 57, 0
9, 422880, Note_on_c, 7, 57, 58
9, 423264, Note_on_c, 7, 57, 0
9, 423360, Note_on_c, 7, 56, 58
9, 423744, Note_on_c, 7, 56, 0
9, 423840, Note_on_c, 7, 56, 58
9, 424224, Note_on_c, 7, 56, 0
9, 424320, Note_on_c, 7, 55, 58
9, 424704, Note_on_c, 7, 55, 0
9, 424800, Note_on_c, 7, 55, 58
9, 425184, Note_on_c, 7, 55, 0
9, 425280, Note_on_c, 7, 55, 58
9, 425664, Note_on_c, 7, 55, 0
9, 425760, Note_on_c, 7, 55, 58
9, 426144, Note_on_c, 7, 55, 0
9, 426240, Note_on_c, 7, 54, 58
9, 426624, Note_on_c, 7, 54, 0
9, 426720, Note_on_c, 7, 54, 58
9, 427104, Note_on_c, 7, 54, 0
9, 427200, Note_on_c, 7, 53, 58
9, 427584, Note_on_c, 7, 53, 0
9, 427680, Note_on_c, 7, 53, 58
9, 428064, Note_on_c, 7, 53, 0
9, 428160, Note_on_c, 7, 51, 58
9, 428544, Note_on_c, 7, 51, 0
9, 428640, Note_on_c, 7, 51, 58
9, 429024, Note_on_c, 7, 51, 0
9, 429120, Note_on_c, 7, 51, 58
9, 429504, Note_on_c, 7, 51, 0
9, 429600, Note_on_c, 7, 51, 58
9, 429984, Note_on_c, 7, 51, 0
9, 430080, Note_on_c, 7, 53, 58
9, 430464, Note_on_c, 7, 53, 0
9, 430560, Note_on_c, 7, 53, 58
9, 430944, Note_on_c, 7, 53, 0
9, 431040, Note_on_c, 7, 41, 58
9, 431424, Note_on_c, 7, 41, 0
9, 431520, Note_on_c, 7, 41, 58
9, 431904, Note_on_c, 7, 41, 0
9, 432000, Note_on_c, 7, 46, 105
9, 432768, Note_on_c, 7, 46, 0
9, 433920, Note_on_c, 7, 62, 105
9, 434304, Note_on_c, 7, 62, 0
9, 434400, Note_on_c, 7, 63, 105
9, 434784, Note_on_c, 7, 63, 0
9, 434880, Note_on_c, 7, 62, 105
9, 435264, Note_on_c, 7, 62, 0
9, 435360, Note_on_c, 7, 63, 105
9, 435744, Note_on_c, 7, 63, 0
9, 435840, Note_on_c, 7, 62, 105
9, 436608, Note_on_c, 7, 62, 0
9, 437760, Note_on_c, 7, 62, 105
9, 438144, Note_on_c, 7, 62, 0
9, 438240, Note_on_c, 7, 63, 105
9, 438624, Note_on_c, 7, 63, 0
9, 438720, Note_on_c, 7, 62, 105
9, 439104, Note_on_c, 7, 62, 0
9, 439200, Note_on_c, 7, 63, 105
9, 439584, Note_on_c, 7, 63, 0
9, 439680, Note_on_c, 7, 62, 105
9, 440448, Note_on_c, 7, 62, 0
9, 441600, Note_on_c, 7, 62, 105
9, 441984, Note_on_c, 7, 62, 0
9, 442080, Note_on_c, 7, 63, 105
9, 442464, Note_on_c, 7, 63, 0
9, 442560, Note_on_c, 7, 62, 105
9, 442944, Note_on_c, 7, 62, 0
9, 443040, Note_on_c, 7, 63, 105
9, 443424, Note_on_c, 7, 63, 0
9, 443520, Note_on_c, 7, 62, 105
9, 443904, Note_on_c, 7, 62, 0
9, 444480, Note_on_c, 7, 63, 105
9, 444864, Note_on_c, 7, 63, 0
9, 445440, Note_on_c, 7, 65, 105
9, 445824, Note_on_c, 7, 65, 0
9, 446400, Note_on_c, 7, 53, 105
9, 446784, Note_on_c, 7, 53, 0
9, 447360, Note_on_c, 7, 58, 105
9, 447744, Note_on_c, 7, 58, 0
9, 449280, Note_on_c, 7, 50, 58
9, 449664, Note_on_c, 7, 50, 0
9, 449760, Note_on_c, 7, 51, 58
9, 450144, Note_on_c, 7, 51, 0
9, 450240, Note_on_c, 7, 50, 58
9, 450624, Note_on_c, 7, 50, 0
9, 450720, Note_on_c, 7, 51, 58
9, 451104, Note_on_c, 7, 51, 0
9, 451200, Note_on_c, 7, 50, 58
9, 451584, Note_on_c, 7, 50, 0
9, 453120, Note_on_c, 7, 50, 58
9, 453504, Note_on_c, 7, 50, 0
9, 453600, Note_on_c, 7, 51, 58
9, 453984, Note_on_c, 7, 51, 0
9, 454080, Note_on_c, 7, 50, 58
9, 454464, Note_on_c, 7, 50, 0
9, 454560, Note_on_c, 7, 51, 58
9, 454944, Note_on_c, 7, 51, 0
9, 455040, Note_on_c, 7, 50, 58
9, 455424, Note_on_c, 7, 50, 0
9, 456960, Note_on_c, 7, 62, 105
9, 457344, Note_on_c, 7, 62, 0
9, 457440, Note_on_c, 7, 63, 105
9, 457824, Note_on_c, 7, 63, 0
9, 457920, Note_on_c, 7, 62, 105
9, 458304, Note_on_c, 7, 62, 0
9, 458400, Note_on_c, 7, 63, 105
9, 458784, Note_on_c, 7, 63, 0
9, 458880, Note_on_c, 7, 62, 105
9, 459264, Note_on_c, 7, 62, 0
9, 459360, Note_on_c, 7, 62, 105
9, 459744, Note_on_c, 7, 62, 0
9, 459840, Note_on_c, 7, 63, 105
9, 460224, Note_on_c, 7, 63, 0
9, 460320, Note_on_c, 7, 63, 105
9, 460704, Note_on_c, 7, 63, 0
9, 460800, Note_on_c, 7, 65, 105
9, 461184, Note_on_c, 7, 65, 0
9, 461280, Note_on_c, 7, 65, 105
9, 461664, Note_on_c, 7, 65, 0
9, 461760, Note_on_c, 7, 53, 105
9, 462144, Note_on_c, 7, 53, 0
9, 462240, Note_on_c, 7, 53, 105
9, 462624, Note_on_c, 7, 53, 0
9, 462720, Note_on_c, 7, 46, 125
9, 462900, Note_on_c, 7, 46, 0
9, 462960, Note_on_c, 7, 48, 105
9, 463140, Note_on_c, 7, 48, 0
9, 463200, Note_on_c, 7, 50, 105
9, 463380, Note_on_c, 7, 50, 0
9, 463440, Note_on_c, 7, 51, 105
9, 463620, Note_on_c, 7, 51, 0
9, 463680, Note_on_c, 7, 53, 105
9, 463860, Note_on_c, 7, 53, 0
9, 463920, Note_on_c, 7, 55, 105
9, 464100, Note_on_c, 7, 55, 0
9, 464160, Note_on_c, 7, 57, 105
9, 464340, Note_on_c, 7, 57, 0
9, 464400, Note_on_c, 7, 58, 105
9, 464580, Note_on_c, 7, 58, 0
9, 464640, Note_on_c, 7, 53, 105
9, 465408, Note_on_c, 7, 53, 0
9, 466320, Note_on_c, 7, 41, 105
9, 466500, Note_on_c, 7, 41, 0
9, 466560, Note_on_c, 7, 46, 125
9, 466740, Note_on_c, 7, 46, 0
9, 466800, Note_on_c, 7, 48, 105
9, 466980, Note_on_c, 7, 48, 0
9, 467040, Note_on_c, 7, 50, 105
9, 467220, Note_on_c, 7, 50, 0
9, 467280, Note_on_c, 7, 51, 105
9, 467460, Note_on_c, 7, 51, 0
9, 467520, Note_on_c, 7, 53, 105
9, 467700, Note_on_c, 7, 53, 0
9, 467760, Note_on_c, 7, 55, 105
9, 467940, Note_on_c, 7, 55, 0
9, 468000, Note_on_c, 7, 57, 105
9, 468180, Note_on_c, 7, 57, 0
9, 468240, Note_on_c, 7, 58, 105
9, 468420, Note_on_c, 7, 58, 0
9, 468480, Note_on_c, 7, 53, 105
9, 469248, Note_on_c, 7, 53, 0
9, 470160, Note_on_c, 7, 41, 105
9, 470340, Note_on_c, 7, 41, 0
9, 470400, Note_on_c, 7, 46, 125
9, 470580, Note_on_c, 7, 46, 0
9, 470640, Note_on_c, 7, 48, 105
9, 470820, Note_on_c, 7, 48, 0
9, 470880, Note_on_c, 7, 50, 105
9, 471060, Note_on_c, 7, 50, 0
9, 471120, Note_on_c, 7, 51, 105
9, 471300, Note_on_c, 7, 51, 0
9, 471360, Note_on_c, 7, 53, 105
9, 471540, Note_on_c, 7, 53, 0
9, 471600, Note_on_c, 7, 55, 105
9, 471780, Note_on_c, 7, 55, 0
9, 471840, Note_on_c, 7, 57, 105
9, 472020, Note_on_c, 7, 57, 0
9, 472080, Note_on_c, 7, 58, 105
9, 472260, Note_on_c, 7, 58, 0
9, 472320, Note_on_c, 7, 53, 105
9, 473088, Note_on_c, 7, 53, 0
9, 474000, Note_on_c, 7, 41, 105
9, 474192, Note_on_c, 7, 41, 0
9, 474240, Note_on_c, 7, 46, 105
9, 474624, Note_on_c, 7, 46, 0
9, 475200, Note_on_c, 7, 58, 105
9, 475584, Note_on_c, 7, 58, 0
9, 476160, Note_on_c, 7, 46, 92
9, 476928, Note_on_c, 7, 46, 0
9, 477600, Note_on_c, 7, 46, 112
9, 478080, Note_on_c, 7, 46, 0
9, 478080, Note_on_c, 7, 50, 105
9, 478368, Note_on_c, 7, 50, 0
9, 478560, Note_on_c, 7, 53, 105
9, 478848, Note_on_c, 7, 53, 0
9, 479040, Note_on_c, 7, 57, 105
9, 479328, Note_on_c, 7, 57, 0
9, 479520, Note_on_c, 7, 58, 105
9, 479808, Note_on_c, 7, 58, 0
9, 480000, Note_on_c, 7, 61, 105
9, 480960, Note_on_c, 7, 61, 0
9, 480960, Note_on_c, 7, 60, 105
9, 481248, Note_on_c, 7, 60, 0
9, 481440, Note_on_c, 7, 52, 105
9, 481728, Note_on_c, 7, 52, 0
9, 481920, Note_on_c, 7, 56, 105
9, 482256, Note_on_c, 7, 56, 0
9, 482880, Note_on_c, 7, 47, 105
9, 483216, Note_on_c, 7, 47, 0
9, 485520, Note_on_c, 7, 59, 105
9, 485600, Note_on_c, 7, 59, 0
9, 485600, Note_on_c, 7, 60, 105
9, 485680, Note_on_c, 7, 60, 0
9, 485680, Note_on_c, 7, 62, 105
9, 485760, Note_on_c, 7, 62, 0
9, 485760, Note_on_c, 7, 63, 105
9, 486096, Note_on_c, 7, 63, 0
9, 486720, Note_on_c, 7, 54, 105
9, 487056, Note_on_c, 7, 54, 0
9, 487680, Note_on_c, 7, 58, 105
9, 488016, Note_on_c, 7, 58, 0
9, 489600, Note_on_c, 7, 49, 105
9, 489936, Note_on_c, 7, 49, 0
9, 491520, Note_on_c, 7, 53, 105
9, 491856, Note_on_c, 7, 53, 0
9, 492480, Note_on_c, 7, 44, 105
9, 492816, Note_on_c, 7, 44, 0
9, 497280, Note_on_c, 7, 45, 58
9, 497664, Note_on_c, 7, 45, 0
9, 499200, Note_on_c, 7, 57, 58
9, 499584, Note_on_c, 7, 57, 0
9, 501120, Note_on_c, 7, 45, 58
9, 501504, Note_on_c, 7, 45, 0
9, 503040, Note_on_c, 7, 57, 58
9, 503424, Note_on_c, 7, 57, 0
9, 504960, Note_on_c, 7, 45, 58
9, 505344, Note_on_c, 7, 45, 0
9, 506880, Note_on_c, 7, 57, 58
9, 507264, Note_on_c, 7, 57, 0
9, 508800, Note_on_c, 7, 38, 58
9, 509184, Note_on_c, 7, 38, 0
9, 510720, Note_on_c, 7, 50, 58
9, 511104, Note_on_c, 7, 50, 0
9, 512640, Note_on_c, 7, 43, 58
9, 513024, Note_on_c, 7, 43, 0
9, 514560, Note_on_c, 7, 55, 70
9, 514944, Note_on_c, 7, 55, 0
9, 516480, Note_on_c, 7, 36, 70
9, 516864, Note_on_c, 7, 36, 0
9, 518400, Note_on_c, 7, 48, 70
9, 518784, Note_on_c, 7, 48, 0
9, 533280, Note_on_c, 7, 43, 70
9, 533760, Note_on_c, 7, 43, 0
9, 533760, Note_on_c, 7, 46, 105
9, 534048, Note_on_c, 7, 46, 0
9, 534240, Note_on_c, 7, 51, 105
9, 534528, Note_on_c, 7, 51, 0
9, 534720, Note_on_c, 7, 55, 105
9, 535008, Note_on_c, 7, 55, 0
9, 535200, Note_on_c, 7, 57, 105
9, 535488, Note_on_c, 7, 57, 0
9, 535680, Note_on_c, 7, 58, 105
9, 535968, Note_on_c, 7, 58, 0
9, 536160, Note_on_c, 7, 53, 105
9, 536448, Note_on_c, 7, 53, 0
9, 536640, Note_on_c, 7, 56, 105
9, 537768, Note_on_c, 7, 56, 0
9, 537840, Note_on_c, 7, 55, 105
9, 538008, Note_on_c, 7, 55, 0
9, 538080, Note_on_c, 7, 53, 105
9, 538248, Note_on_c, 7, 53, 0
9, 538320, Note_on_c, 7, 51, 105
9, 538488, Note_on_c, 7, 51, 0
9, 538560, Note_on_c, 7, 50, 105
9, 538728, Note_on_c, 7, 50, 0
9, 538800, Note_on_c, 7, 48, 105
9, 538968, Note_on_c, 7, 48, 0
9, 539040, Note_on_c, 7, 46, 105
9, 539208, Note_on_c, 7, 46, 0
9, 539280, Note_on_c, 7, 44, 105
9, 539448, Note_on_c, 7, 44, 0
9, 539520, Note_on_c, 7, 43, 105
9, 540288, Note_on_c, 7, 43, 0
9, 540960, Note_on_c, 7, 58, 105
9, 541344, Note_on_c, 7, 58, 0
9, 541440, Note_on_c, 7, 56, 125
9, 541632, Note_on_c, 7, 56, 0
9, 541680, Note_on_c, 7, 60, 105
9, 541872, Note_on_c, 7, 60, 0
9, 541920, Note_on_c, 7, 63, 105
9, 542112, Note_on_c, 7, 63, 0
9, 542160, Note_on_c, 7, 62, 105
9, 542352, Note_on_c, 7, 62, 0
9, 542400, Note_on_c, 7, 60, 105
9, 542592, Note_on_c, 7, 60, 0
9, 542640, Note_on_c, 7, 58, 105
9, 542832, Note_on_c, 7, 58, 0
9, 542880, Note_on_c, 7, 56, 105
9, 543072, Note_on_c, 7, 56, 0
9, 543120, Note_on_c, 7, 55, 105
9, 543312, Note_on_c, 7, 55, 0
9, 543360, Note_on_c, 7, 53, 105
9, 544128, Note_on_c, 7, 53, 0
9, 544800, Note_on_c, 7, 56, 105
9, 545184, Note_on_c, 7, 56, 0
9, 545280, Note_on_c, 7, 55, 125
9, 545472, Note_on_c, 7, 55, 0
9, 545520, Note_on_c, 7, 59, 105
9, 545712, Note_on_c, 7, 59, 0
9, 545760, Note_on_c, 7, 62, 105
9, 545952, Note_on_c, 7, 62, 0
9, 546000, Note_on_c, 7, 60, 105
9, 546192, Note_on_c, 7, 60, 0
9, 546240, Note_on_c, 7, 59, 105
9, 546432, Note_on_c, 7, 59, 0
9, 546480, Note_on_c, 7, 56, 105
9, 546672, Note_on_c, 7, 56, 0
9, 546720, Note_on_c, 7, 55, 105
9, 546912, Note_on_c, 7, 55, 0
9, 546960, Note_on_c, 7, 53, 105
9, 547152, Note_on_c, 7, 53, 0
9, 547200, Note_on_c, 7, 51, 92
9, 547968, Note_on_c, 7, 51, 0
9, 552480, Note_on_c, 7, 46, 112
9, 552864, Note_on_c, 7, 46, 0
9, 552960, Note_on_c, 7, 49, 105
9, 553344, Note_on_c, 7, 49, 0
9, 553440, Note_on_c, 7, 52, 105
9, 553824, Note_on_c, 7, 52, 0
9, 553920, Note_on_c, 7, 57, 105
9, 554304, Note_on_c, 7, 57, 0
9, 554400, Note_on_c, 7, 61, 105
9, 554784, Note_on_c, 7, 61, 0
9, 554880, Note_on_c, 7, 62, 92
9, 555648, Note_on_c, 7, 62, 0
9, 560160, Note_on_c, 7, 48, 125
9, 560640, Note_on_c, 7, 48, 0
9, 560640, Note_on_c, 7, 51, 105
9, 560928, Note_on_c, 7, 51, 0
9, 561120, Note_on_c, 7, 54, 105
9, 561408, Note_on_c, 7, 54, 0
9, 561600, Note_on_c, 7, 59, 105
9, 561888, Note_on_c, 7, 59, 0
9, 562080, Note_on_c, 7, 63, 105
9, 562368, Note_on_c, 7, 63, 0
9, 562560, Note_on_c, 7, 64, 92
9, 563328, Note_on_c, 7, 64, 0
9, 565920, Note_on_c, 7, 42, 125
9, 566400, Note_on_c, 7, 42, 0
9, 566400, Note_on_c, 7, 47, 105
9, 566688, Note_on_c, 7, 47, 0
9, 566880, Note_on_c, 7, 50, 105
9, 567168, Note_on_c, 7, 50, 0
9, 567360, Note_on_c, 7, 54, 105
9, 567648, Note_on_c, 7, 54, 0
9, 567840, Note_on_c, 7, 59, 105
9, 568128, Note_on_c, 7, 59, 0
9, 568320, Note_on_c, 7, 62, 105
9, 569280, Note_on_c, 7, 62, 0
9, 569280, Note_on_c, 7, 61, 105
9, 569568, Note_on_c, 7, 61, 0
9, 569760, Note_on_c, 7, 59, 105
9, 570048, Note_on_c, 7, 59, 0
9, 570240, Note_on_c, 7, 58, 105
9, 571008, Note_on_c, 7, 58, 0
9, 571680, Note_on_c, 7, 46, 125
9, 572160, Note_on_c, 7, 46, 0
9, 572160, Note_on_c, 7, 45, 105
9, 572544, Note_on_c, 7, 45, 0
9, 572640, Note_on_c, 7, 52, 105
9, 573024, Note_on_c, 7, 52, 0
9, 573120, Note_on_c, 7, 57, 105
9, 573504, Note_on_c, 7, 57, 0
9, 573600, Note_on_c, 7, 45, 105
9, 573984, Note_on_c, 7, 45, 0
9, 574080, Note_on_c, 7, 44, 92
9, 574848, Note_on_c, 7, 44, 0
9, 577440, Note_on_c, 7, 44, 112
9, 577920, Note_on_c, 7, 44, 0
9, 577920, Note_on_c, 7, 49, 105
9, 578256, Note_on_c, 7, 49, 0
9, 578400, Note_on_c, 7, 52, 105
9, 578736, Note_on_c, 7, 52, 0
9, 578880, Note_on_c, 7, 56, 105
9, 579216, Note_on_c, 7, 56, 0
9, 579360, Note_on_c, 7, 61, 105
9, 579696, Note_on_c, 7, 61, 0
9, 579840, Note_on_c, 7, 64, 105
9, 580800, Note_on_c, 7, 64, 0
9, 580800, Note_on_c, 7, 63, 105
9, 581136, Note_on_c, 7, 63, 0
9, 581280, Note_on_c, 7, 61, 105
9, 581616, Note_on_c, 7, 61, 0
9, 581760, Note_on_c, 7, 60, 92
9, 582528, Note_on_c, 7, 60, 0
9, 585120, Note_on_c, 7, 44, 112
9, 585504, Note_on_c, 7, 44, 0
9, 585600, Note_on_c, 7, 49, 105
9, 585936, Note_on_c, 7, 49, 0
9, 586080, Note_on_c, 7, 52, 105
9, 586416, Note_on_c, 7, 52, 0
9, 586560, Note_on_c, 7, 56, 105
9, 586896, Note_on_c, 7, 56, 0
9, 587040, Note_on_c, 7, 61, 105
9, 587376, Note_on_c, 7, 61, 0
9, 587520, Note_on_c, 7, 64, 105
9, 588288, Note_on_c, 7, 64, 0
9, 588480, Note_on_c, 7, 63, 105
9, 588816, Note_on_c, 7, 63, 0
9, 588960, Note_on_c, 7, 61, 105
9, 589296, Note_on_c, 7, 61, 0
9, 589440, Note_on_c, 7, 60, 105
9, 590016, Note_on_c, 7, 60, 0
9, 590400, Note_on_c, 7, 61, 105
9, 590976, Note_on_c, 7, 61, 0
9, 591360, Note_on_c, 7, 58, 105
9, 591936, Note_on_c, 7, 58, 0
9, 592320, Note_on_c, 7, 60, 105
9, 592896, Note_on_c, 7, 60, 0
9, 593280, Note_on_c, 7, 61, 105
9, 593664, Note_on_c, 7, 61, 0
9, 594240, Note_on_c, 7, 57, 105
9, 594624, Note_on_c, 7, 57, 0
9, 595200, Note_on_c, 7, 54, 105
9, 595584, Note_on_c, 7, 54, 0
9, 596160, Note_on_c, 7, 56, 105
9, 596544, Note_on_c, 7, 56, 0
9, 597120, Note_on_c, 7, 57, 105
9, 597504, Note_on_c, 7, 57, 0
9, 599040, Note_on_c, 7, 54, 58
9, 600960, Note_on_c, 7, 54, 0
9, 600960, Note_on_c, 7, 56, 58
9, 602880, Note_on_c, 7, 56, 0
9, 602880, Note_on_c, 7, 44, 58
9, 604416, Note_on_c, 7, 44, 0
9, 604800, Note_on_c, 7, 61, 58
9, 605184, Note_on_c, 7, 61, 0
9, 605760, Note_on_c, 7, 57, 105
9, 606144, Note_on_c, 7, 57, 0
9, 606720, Note_on_c, 7, 53, 105
9, 607488, Note_on_c, 7, 53, 0
9, 608160, Note_on_c, 7, 49, 105
9, 608640, Note_on_c, 7, 49, 0
9, 608640, Note_on_c, 7, 54, 105
9, 608928, Note_on_c, 7, 54, 0
9, 609120, Note_on_c, 7, 58, 105
9, 609408, Note_on_c, 7, 58, 0
9, 609600, Note_on_c, 7, 59, 105
9, 609888, Note_on_c, 7, 59, 0
9, 610080, Note_on_c, 7, 62, 105
9, 610368, Note_on_c, 7, 62, 0
9, 610560, Note_on_c, 7, 67, 105
9, 611520, Note_on_c, 7, 67, 0
9, 611520, Note_on_c, 7, 66, 105
9, 611808, Note_on_c, 7, 66, 0
9, 612000, Note_on_c, 7, 64, 105
9, 612288, Note_on_c, 7, 64, 0
9, 612480, Note_on_c, 7, 63, 105
9, 612864, Note_on_c, 7, 63, 0
9, 613440, Note_on_c, 7, 55, 105
9, 613824, Note_on_c, 7, 55, 0
9, 614400, Note_on_c, 7, 51, 105
9, 615168, Note_on_c, 7, 51, 0
9, 615840, Note_on_c, 7, 47, 105
9, 616320, Note_on_c, 7, 47, 0
9, 616320, Note_on_c, 7, 52, 105
9, 616608, Note_on_c, 7, 52, 0
9, 616800, Note_on_c, 7, 56, 105
9, 617088, Note_on_c, 7, 56, 0
9, 617280, Note_on_c, 7, 57, 105
9, 617568, Note_on_c, 7, 57, 0
9, 617760, Note_on_c, 7, 60, 105
9, 618048, Note_on_c, 7, 60, 0
9, 618240, Note_on_c, 7, 65, 105
9, 619200, Note_on_c, 7, 65, 0
9, 619200, Note_on_c, 7, 64, 105
9, 619488, Note_on_c, 7, 64, 0
9, 619680, Note_on_c, 7, 62, 105
9, 619968, Note_on_c, 7, 62, 0
9, 620160, Note_on_c, 7, 61, 105
9, 620544, Note_on_c, 7, 61, 0
9, 621120, Note_on_c, 7, 53, 105
9, 621504, Note_on_c, 7, 53, 0
9, 622080, Note_on_c, 7, 49, 105
9, 622848, Note_on_c, 7, 49, 0
9, 623520, Note_on_c, 7, 45, 105
9, 624000, Note_on_c, 7, 45, 0
9, 624000, Note_on_c, 7, 50, 105
9, 624288, Note_on_c, 7, 50, 0
9, 624480, Note_on_c, 7, 54, 105
9, 624768, Note_on_c, 7, 54, 0
9, 624960, Note_on_c, 7, 55, 105
9, 625248, Note_on_c, 7, 55, 0
9, 625440, Note_on_c, 7, 58, 105
9, 625728, Note_on_c, 7, 58, 0
9, 625920, Note_on_c, 7, 63, 112
9, 627360, Note_on_c, 7, 63, 0
9, 627360, Note_on_c, 7, 62, 105
9, 627744, Note_on_c, 7, 62, 0
9, 627840, Note_on_c, 7, 63, 112
9, 629280, Note_on_c, 7, 63, 0
9, 629280, Note_on_c, 7, 62, 105
9, 629664, Note_on_c, 7, 62, 0
9, 629760, Note_on_c, 7, 60, 105
9, 630048, Note_on_c, 7, 60, 0
9, 630240, Note_on_c, 7, 58, 105
9, 630528, Note_on_c, 7, 58, 0
9, 630720, Note_on_c, 7, 57, 105
9, 631008, Note_on_c, 7, 57, 0
9, 631200, Note_on_c, 7, 55, 105
9, 631488, Note_on_c, 7, 55, 0
9, 631680, Note_on_c, 7, 54, 105
9, 632064, Note_on_c, 7, 54, 0
9, 635520, Note_on_c, 7, 55, 58
9, 636288, Note_on_c, 7, 55, 0
9, 637440, Note_on_c, 7, 55, 58
9, 638208, Note_on_c, 7, 55, 0
9, 638880, Note_on_c, 7, 55, 105
9, 639168, Note_on_c, 7, 55, 0
9, 639360, Note_on_c, 7, 54, 105
9, 639648, Note_on_c, 7, 54, 0
9, 639840, Note_on_c, 7, 55, 105
9, 640128, Note_on_c, 7, 55, 0
9, 640320, Note_on_c, 7, 54, 105
9, 640608, Note_on_c, 7, 54, 0
9, 640800, Note_on_c, 7, 55, 105
9, 641088, Note_on_c, 7, 55, 0
9, 641280, Note_on_c, 7, 54, 105
9, 642048, Note_on_c, 7, 54, 0
9, 643200, Note_on_c, 7, 48, 58
9, 643968, Note_on_c, 7, 48, 0
9, 645120, Note_on_c, 7, 50, 58
9, 645888, Note_on_c, 7, 50, 0
9, 646560, Note_on_c, 7, 50, 105
9, 646848, Note_on_c, 7, 50, 0
9, 647040, Note_on_c, 7, 55, 105
9, 647328, Note_on_c, 7, 55, 0
9, 647520, Note_on_c, 7, 50, 105
9, 647808, Note_on_c, 7, 50, 0
9, 648000, Note_on_c, 7, 55, 105
9, 648288, Note_on_c, 7, 55, 0
9, 648480, Note_on_c, 7, 50, 105
9, 648768, Note_on_c, 7, 50, 0
9, 648960, Note_on_c, 7, 55, 105
9, 649728, Note_on_c, 7, 55, 0
9, 650400, Note_on_c, 7, 50, 105
9, 650688, Note_on_c, 7, 50, 0
9, 650880, Note_on_c, 7, 50, 105
9, 651264, Note_on_c, 7, 50, 0
9, 651360, Note_on_c, 7, 62, 70
9, 651744, Note_on_c, 7, 62, 0
9, 651840, Note_on_c, 7, 62, 70
9, 652224, Note_on_c, 7, 62, 0
9, 652320, Note_on_c, 7, 62, 70
9, 652704, Note_on_c, 7, 62, 0
9, 652800, Note_on_c, 7, 62, 70
9, 653952, Note_on_c, 7, 62, 0
9, 654240, Note_on_c, 7, 50, 70
9, 654528, Note_on_c, 7, 50, 0
9, 654720, Note_on_c, 7, 50, 105
9, 655104, Note_on_c, 7, 50, 0
9, 655200, Note_on_c, 7, 62, 70
9, 655584, Note_on_c, 7, 62, 0
9, 655680, Note_on_c, 7, 62, 70
9, 656064, Note_on_c, 7, 62, 0
9, 656160, Note_on_c, 7, 62, 70
9, 656544, Note_on_c, 7, 62, 0
9, 656640, Note_on_c, 7, 62, 70
9, 657792, Note_on_c, 7, 62, 0
9, 658560, Note_on_c, 7, 48, 58
9, 659328, Note_on_c, 7, 48, 0
9, 660480, Note_on_c, 7, 50, 58
9, 661248, Note_on_c, 7, 50, 0
9, 661920, Note_on_c, 7, 50, 105
9, 662208, Note_on_c, 7, 50, 0
9, 662400, Note_on_c, 7, 55, 105
9, 662688, Note_on_c, 7, 55, 0
9, 662880, Note_on_c, 7, 50, 105
9, 663168, Note_on_c, 7, 50, 0
9, 663360, Note_on_c, 7, 55, 105
9, 663648, Note_on_c, 7, 55, 0
9, 663840, Note_on_c, 7, 50, 105
9, 664128, Note_on_c, 7, 50, 0
9, 664320, Note_on_c, 7, 55, 105
9, 665088, Note_on_c, 7, 55, 0
9, 666240, Note_on_c, 7, 51, 105
9, 666528, Note_on_c, 7, 51, 0
9, 666720, Note_on_c, 7, 53, 105
9, 667008, Note_on_c, 7, 53, 0
9, 667200, Note_on_c, 7, 51, 105
9, 667488, Note_on_c, 7, 51, 0
9, 667680, Note_on_c, 7, 53, 105
9, 667968, Note_on_c, 7, 53, 0
9, 668160, Note_on_c, 7, 51, 105
9, 668928, Note_on_c, 7, 51, 0
9, 670080, Note_on_c, 7, 50, 105
9, 670368, Note_on_c, 7, 50, 0
9, 670560, Note_on_c, 7, 51, 105
9, 670848, Note_on_c, 7, 51, 0
9, 671040, Note_on_c, 7, 50, 105
9, 671328, Note_on_c, 7, 50, 0
9, 671520, Note_on_c, 7, 51, 105
9, 671808, Note_on_c, 7, 51, 0
9, 672000, Note_on_c, 7, 50, 105
9, 672768, Note_on_c, 7, 50, 0
9, 673920, Note_on_c, 7, 43, 105
9, 674208, Note_on_c, 7, 43, 0
9, 674400, Note_on_c, 7, 42, 105
9, 674688, Note_on_c, 7, 42, 0
9, 674880, Note_on_c, 7, 43, 105
9, 675168, Note_on_c, 7, 43, 0
9, 675360, Note_on_c, 7, 42, 105
9, 675648, Note_on_c, 7, 42, 0
9, 675840, Note_on_c, 7, 43, 105
9, 676608, Note_on_c, 7, 43, 0
9, 677760, Note_on_c, 7, 60, 105
9, 678000, Note_on_c, 7, 60, 0
9, 678000, Note_on_c, 7, 63, 105
9, 678144, Note_on_c, 7, 63, 0
9, 678240, Note_on_c, 7, 62, 105
9, 678384, Note_on_c, 7, 62, 0
9, 678480, Note_on_c, 7, 59, 105
9, 678624, Note_on_c, 7, 59, 0
9, 678720, Note_on_c, 7, 60, 105
9, 678960, Note_on_c, 7, 60, 0
9, 678960, Note_on_c, 7, 63, 105
9, 679104, Note_on_c, 7, 63, 0
9, 679200, Note_on_c, 7, 62, 105
9, 679344, Note_on_c, 7, 62, 0
9, 679440, Note_on_c, 7, 59, 105
9, 679584, Note_on_c, 7, 59, 0
9, 679680, Note_on_c, 7, 60, 105
9, 679872, Note_on_c, 7, 60, 0
9, 679920, Note_on_c, 7, 63, 105
9, 680112, Note_on_c, 7, 63, 0
9, 680160, Note_on_c, 7, 67, 105
9, 680352, Note_on_c, 7, 67, 0
9, 680400, Note_on_c, 7, 65, 105
9, 680592, Note_on_c, 7, 65, 0
9, 680640, Note_on_c, 7, 63, 105
9, 680832, Note_on_c, 7, 63, 0
9, 680880, Note_on_c, 7, 62, 105
9, 681072, Note_on_c, 7, 62, 0
9, 681120, Note_on_c, 7, 60, 105
9, 681312, Note_on_c, 7, 60, 0
9, 681360, Note_on_c, 7, 58, 105
9, 681552, Note_on_c, 7, 58, 0
9, 681600, Note_on_c, 7, 57, 105
9, 681840, Note_on_c, 7, 57, 0
9, 681840, Note_on_c, 7, 60, 105
9, 681984, Note_on_c, 7, 60, 0
9, 682080, Note_on_c, 7, 58, 105
9, 682224, Note_on_c, 7, 58, 0
9, 682320, Note_on_c, 7, 60, 105
9, 682464, Note_on_c, 7, 60, 0
9, 682560, Note_on_c, 7, 57, 105
9, 682800, Note_on_c, 7, 57, 0
9, 682800, Note_on_c, 7, 60, 105
9, 682944, Note_on_c, 7, 60, 0
9, 683040, Note_on_c, 7, 58, 105
9, 683184, Note_on_c, 7, 58, 0
9, 683280, Note_on_c, 7, 60, 105
9, 683424, Note_on_c, 7, 60, 0
9, 683520, Note_on_c, 7, 57, 105
9, 683712, Note_on_c, 7, 57, 0
9, 683760, Note_on_c, 7, 60, 105
9, 683952, Note_on_c, 7, 60, 0
9, 684000, Note_on_c, 7, 63, 105
9, 684192, Note_on_c, 7, 63, 0
9, 684240, Note_on_c, 7, 62, 105
9, 684432, Note_on_c, 7, 62, 0
9, 684480, Note_on_c, 7, 60, 105
9, 684672, Note_on_c, 7, 60, 0
9, 684720, Note_on_c, 7, 58, 105
9, 684912, Note_on_c, 7, 58, 0
9, 684960, Note_on_c, 7, 57, 105
9, 685152, Note_on_c, 7, 57, 0
9, 685200, Note_on_c, 7, 55, 105
9, 685392, Note_on_c, 7, 55, 0
9, 685440, Note_on_c, 7, 54, 105
9, 685680, Note_on_c, 7, 54, 0
9, 685680, Note_on_c, 7, 57, 105
9, 685824, Note_on_c, 7, 57, 0
9, 685920, Note_on_c, 7, 55, 105
9, 686064, Note_on_c, 7, 55, 0
9, 686160, Note_on_c, 7, 57, 105
9, 686304, Note_on_c, 7, 57, 0
9, 686400, Note_on_c, 7, 54, 105
9, 686640, Note_on_c, 7, 54, 0
9, 686640, Note_on_c, 7, 57, 105
9, 686784, Note_on_c, 7, 57, 0
9, 686880, Note_on_c, 7, 55, 105
9, 687024, Note_on_c, 7, 55, 0
9, 687120, Note_on_c, 7, 57, 105
9, 687264, Note_on_c, 7, 57, 0
9, 687360, Note_on_c, 7, 54, 105
9, 687552, Note_on_c, 7, 54, 0
9, 687600, Note_on_c, 7, 55, 105
9, 687792, Note_on_c, 7, 55, 0
9, 687840, Note_on_c, 7, 57, 105
9, 688032, Note_on_c, 7, 57, 0
9, 688080, Note_on_c, 7, 55, 105
9, 688272, Note_on_c, 7, 55, 0
9, 688320, Note_on_c, 7, 54, 105
9, 688512, Note_on_c, 7, 54, 0
9, 688560, Note_on_c, 7, 50, 105
9, 688752, Note_on_c, 7, 50, 0
9, 688800, Note_on_c, 7, 52, 105
9, 688992, Note_on_c, 7, 52, 0
9, 689040, Note_on_c, 7, 54, 105
9, 689232, Note_on_c, 7, 54, 0
9, 689280, Note_on_c, 7, 55, 105
9, 689568, Note_on_c, 7, 55, 0
9, 689760, Note_on_c, 7, 54, 105
9, 690048, Note_on_c, 7, 54, 0
9, 690240, Note_on_c, 7, 55, 105
9, 690528, Note_on_c, 7, 55, 0
9, 690720, Note_on_c, 7, 54, 105
9, 691008, Note_on_c, 7, 54, 0
9, 691200, Note_on_c, 7, 55, 105
9, 691968, Note_on_c, 7, 55, 0
9, 692640, Note_on_c, 7, 62, 105
9, 692928, Note_on_c, 7, 62, 0
9, 693120, Note_on_c, 7, 63, 105
9, 693408, Note_on_c, 7, 63, 0
9, 693600, Note_on_c, 7, 62, 105
9, 693888, Note_on_c, 7, 62, 0
9, 694080, Note_on_c, 7, 63, 105
9, 694368, Note_on_c, 7, 63, 0
9, 694560, Note_on_c, 7, 62, 105
9, 694848, Note_on_c, 7, 62, 0
9, 695040, Note_on_c, 7, 63, 105
9, 695808, Note_on_c, 7, 63, 0
9, 696480, Note_on_c, 7, 59, 105
9, 696768, Note_on_c, 7, 59, 0
9, 696960, Note_on_c, 7, 60, 105
9, 697728, Note_on_c, 7, 60, 0
9, 698400, Note_on_c, 7, 55, 105
9, 698688, Note_on_c, 7, 55, 0
9, 698880, Note_on_c, 7, 51, 105
9, 699648, Note_on_c, 7, 51, 0
9, 700320, Note_on_c, 7, 49, 105
9, 700704, Note_on_c, 7, 49, 0
9, 700800, Note_on_c, 7, 50, 105
9, 701184, Note_on_c, 7, 50, 0
9, 701280, Note_on_c, 7, 62, 105
9, 701664, Note_on_c, 7, 62, 0
9, 701760, Note_on_c, 7, 62, 105
9, 702144, Note_on_c, 7, 62, 0
9, 702240, Note_on_c, 7, 62, 105
9, 702624, Note_on_c, 7, 62, 0
9, 702720, Note_on_c, 7, 62, 105
9, 703104, Note_on_c, 7, 62, 0
9, 703200, Note_on_c, 7, 62, 105
9, 703584, Note_on_c, 7, 62, 0
9, 703680, Note_on_c, 7, 62, 105
9, 704064, Note_on_c, 7, 62, 0
9, 704160, Note_on_c, 7, 62, 105
9, 704544, Note_on_c, 7, 62, 0
9, 704640, Note_on_c, 7, 62, 105
9, 705024, Note_on_c, 7, 62, 0
9, 705120, Note_on_c, 7, 62, 105
9, 705504, Note_on_c, 7, 62, 0
9, 705600, Note_on_c, 7, 62, 105
9, 705984, Note_on_c, 7, 62, 0
9, 706080, Note_on_c, 7, 62, 105
9, 706464, Note_on_c, 7, 62, 0
9, 706560, Note_on_c, 7, 62, 105
9, 706944, Note_on_c, 7, 62, 0
9, 707040, Note_on_c, 7, 62, 105
9, 707424, Note_on_c, 7, 62, 0
9, 707520, Note_on_c, 7, 62, 105
9, 707904, Note_on_c, 7, 62, 0
9, 708000, Note_on_c, 7, 62, 105
9, 708384, Note_on_c, 7, 62, 0
9, 708480, Note_on_c, 7, 62, 105
9, 708864, Note_on_c, 7, 62, 0
9, 709440, Note_on_c, 7, 62, 105
9, 709824, Note_on_c, 7, 62, 0
9, 710400, Note_on_c, 7, 50, 105
9, 711168, Note_on_c, 7, 50, 0
9, 743040, Note_on_c, 7, 43, 58
9, 750624, Note_on_c, 7, 43, 0
9, 750720, Note_on_c, 7, 48, 58
9, 751104, Note_on_c, 7, 48, 0
9, 754560, Note_on_c, 7, 50, 58
9, 755040, Note_on_c, 7, 50, 0
9, 755040, Note_on_c, 7, 49, 58
9, 755520, Note_on_c, 7, 49, 0
9, 755520, Note_on_c, 7, 50, 58
9, 756000, Note_on_c, 7, 50, 0
9, 756000, Note_on_c, 7, 49, 58
9, 756480, Note_on_c, 7, 49, 0
9, 756480, Note_on_c, 7, 50, 58
9, 756864, Note_on_c, 7, 50, 0
9, 758880, Note_on_c, 7, 55, 58
9, 759360, Note_on_c, 7, 55, 0
9, 759360, Note_on_c, 7, 57, 58
9, 759840, Note_on_c, 7, 57, 0
9, 759840, Note_on_c, 7, 55, 58
9, 760320, Note_on_c, 7, 55, 0
9, 760320, Note_on_c, 7, 54, 58
9, 760800, Note_on_c, 7, 54, 0
9, 760800, Note_on_c, 7, 53, 58
9, 761280, Note_on_c, 7, 53, 0
9, 761280, Note_on_c, 7, 55, 58
9, 761760, Note_on_c, 7, 55, 0
9, 761760, Note_on_c, 7, 53, 58
9, 762144, Note_on_c, 7, 53, 0
9, 762240, Note_on_c, 7, 52, 58
9, 764160, Note_on_c, 7, 52, 0
9, 764160, Note_on_c, 7, 51, 58
9, 765120, Note_on_c, 7, 51, 0
9, 765120, Note_on_c, 7, 50, 58
9, 765888, Note_on_c, 7, 50, 0
9, 766080, Note_on_c, 7, 48, 58
9, 766464, Note_on_c, 7, 48, 0
9, 766560, Note_on_c, 7, 48, 58
9, 766944, Note_on_c, 7, 48, 0
9, 767040, Note_on_c, 7, 48, 58
9, 767424, Note_on_c, 7, 48, 0
9, 767520, Note_on_c, 7, 48, 58
9, 767904, Note_on_c, 7, 48, 0
9, 768000, Note_on_c, 7, 50, 58
9, 768384, Note_on_c, 7, 50, 0
9, 768480, Note_on_c, 7, 50, 58
9, 768864, Note_on_c, 7, 50, 0
9, 768960, Note_on_c, 7, 50, 58
9, 769344, Note_on_c, 7, 50, 0
9, 769440, Note_on_c, 7, 50, 58
9, 769824, Note_on_c, 7, 50, 0
9, 769920, Note_on_c, 7, 43, 105
9, 770688, Note_on_c, 7, 43, 0
9, 771840, Note_on_c, 7, 58, 105
9, 772176, Note_on_c, 7, 58, 0
9, 772320, Note_on_c, 7, 60, 105
9, 772656, Note_on_c, 7, 60, 0
9, 772800, Note_on_c, 7, 58, 105
9, 773136, Note_on_c, 7, 58, 0
9, 773280, Note_on_c, 7, 60, 105
9, 773616, Note_on_c, 7, 60, 0
9, 773760, Note_on_c, 7, 58, 105
9, 774624, Note_on_c, 7, 58, 0
9, 775680, Note_on_c, 7, 58, 105
9, 776016, Note_on_c, 7, 58, 0
9, 776160, Note_on_c, 7, 60, 105
9, 776496, Note_on_c, 7, 60, 0
9, 776640, Note_on_c, 7, 58, 105
9, 776976, Note_on_c, 7, 58, 0
9, 777120, Note_on_c, 7, 60, 105
9, 777456, Note_on_c, 7, 60, 0
9, 777600, Note_on_c, 7, 58, 105
9, 778464, Note_on_c, 7, 58, 0
9, 779520, Note_on_c, 7, 58, 105
9, 779856, Note_on_c, 7, 58, 0
9, 780000, Note_on_c, 7, 60, 105
9, 780336, Note_on_c, 7, 60, 0
9, 780480, Note_on_c, 7, 58, 105
9, 780816, Note_on_c, 7, 58, 0
9, 780960, Note_on_c, 7, 60, 105
9, 781296, Note_on_c, 7, 60, 0
9, 781440, Note_on_c, 7, 58, 105
9, 781824, Note_on_c, 7, 58, 0
9, 782400, Note_on_c, 7, 60, 105
9, 782784, Note_on_c, 7, 60, 0
9, 783360, Note_on_c, 7, 62, 105
9, 783744, Note_on_c, 7, 62, 0
9, 784320, Note_on_c, 7, 50, 105
9, 784704, Note_on_c, 7, 50, 0
9, 785280, Note_on_c, 7, 55, 92
9, 785664, Note_on_c, 7, 55, 0
9, 787200, Note_on_c, 7, 46, 58
9, 787584, Note_on_c, 7, 46, 0
9, 787680, Note_on_c, 7, 48, 58
9, 788064, Note_on_c, 7, 48, 0
9, 788160, Note_on_c, 7, 46, 58
9, 788544, Note_on_c, 7, 46, 0
9, 788640, Note_on_c, 7, 48, 58
9, 789024, Note_on_c, 7, 48, 0
9, 789120, Note_on_c, 7, 46, 58
9, 789504, Note_on_c, 7, 46, 0
9, 791040, Note_on_c, 7, 46, 58
9, 791424, Note_on_c, 7, 46, 0
9, 791520, Note_on_c, 7, 48, 58
9, 791904, Note_on_c, 7, 48, 0
9, 792000, Note_on_c, 7, 46, 58
9, 792384, Note_on_c, 7, 46, 0
9, 792480, Note_on_c, 7, 48, 58
9, 792864, Note_on_c, 7, 48, 0
9, 792960, Note_on_c, 7, 46, 58
9, 793344, Note_on_c, 7, 46, 0
9, 794880, Note_on_c, 7, 46, 105
9, 795216, Note_on_c, 7, 46, 0
9, 795360, Note_on_c, 7, 48, 105
9, 795696, Note_on_c, 7, 48, 0
9, 795840, Note_on_c, 7, 46, 105
9, 796176, Note_on_c, 7, 46, 0
9, 796320, Note_on_c, 7, 48, 105
9, 796656, Note_on_c, 7, 48, 0
9, 796800, Note_on_c, 7, 46, 105
9, 797136, Note_on_c, 7, 46, 0
9, 797280, Note_on_c, 7, 48, 105
9, 797616, Note_on_c, 7, 48, 0
9, 797760, Note_on_c, 7, 46, 105
9, 798096, Note_on_c, 7, 46, 0
9, 798240, Note_on_c, 7, 48, 105
9, 798576, Note_on_c, 7, 48, 0
9, 798720, Note_on_c, 7, 46, 105
9, 799056, Note_on_c, 7, 46, 0
9, 799200, Note_on_c, 7, 48, 105
9, 799536, Note_on_c, 7, 48, 0
9, 799680, Note_on_c, 7, 46, 105
9, 800016, Note_on_c, 7, 46, 0
9, 800160, Note_on_c, 7, 48, 105
9, 800496, Note_on_c, 7, 48, 0
9, 800640, Note_on_c, 7, 47, 116
9, 800808, Note_on_c, 7, 47, 0
9, 800880, Note_on_c, 7, 48, 116
9, 801048, Note_on_c, 7, 48, 0
9, 801120, Note_on_c, 7, 50, 116
9, 801288, Note_on_c, 7, 50, 0
9, 801360, Note_on_c, 7, 51, 116
9, 801528, Note_on_c, 7, 51, 0
9, 801600, Note_on_c, 7, 53, 116
9, 801768, Note_on_c, 7, 53, 0
9, 801840, Note_on_c, 7, 55, 116
9, 802008, Note_on_c, 7, 55, 0
9, 802080, Note_on_c, 7, 57, 116
9, 802248, Note_on_c, 7, 57, 0
9, 802320, Note_on_c, 7, 59, 116
9, 802488, Note_on_c, 7, 59, 0
9, 802560, Note_on_c, 7, 60, 116
9, 804384, Note_on_c, 7, 60, 0
9, 804480, Note_on_c, 7, 50, 116
9, 805152, Note_on_c, 7, 50, 0
9, 805440, Note_on_c, 7, 51, 116
9, 806112, Note_on_c, 7, 51, 0
9, 806400, Note_on_c, 7, 48, 116
9, 807072, Note_on_c, 7, 48, 0
9, 807360, Note_on_c, 7, 50, 116
9, 808032, Note_on_c, 7, 50, 0
9, 808320, Note_on_c, 7, 47, 116
9, 808488, Note_on_c, 7, 47, 0
9, 808560, Note_on_c, 7, 48, 116
9, 808728, Note_on_c, 7, 48, 0
9, 808800, Note_on_c, 7, 50, 116
9, 808968, Note_on_c, 7, 50, 0
9, 809040, Note_on_c, 7, 51, 116
9, 809208, Note_on_c, 7, 51, 0
9, 809280, Note_on_c, 7, 53, 116
9, 809448, Note_on_c, 7, 53, 0
9, 809520, Note_on_c, 7, 55, 116
9, 809688, Note_on_c, 7, 55, 0
9, 809760, Note_on_c, 7, 57, 116
9, 809928, Note_on_c, 7, 57, 0
9, 810000, Note_on_c, 7, 59, 116
9, 810168, Note_on_c, 7, 59, 0
9, 810240, Note_on_c, 7, 60, 116
9, 812064, Note_on_c, 7, 60, 0
9, 812160, Note_on_c, 7, 50, 116
9, 812832, Note_on_c, 7, 50, 0
9, 813120, Note_on_c, 7, 51, 116
9, 813792, Note_on_c, 7, 51, 0
9, 814080, Note_on_c, 7, 48, 116
9, 814752, Note_on_c, 7, 48, 0
9, 815040, Note_on_c, 7, 50, 116
9, 815712, Note_on_c, 7, 50, 0
9, 816000, Note_on_c, 7, 43, 127
9, 816168, Note_on_c, 7, 43, 0
9, 816240, Note_on_c, 7, 45, 116
9, 816408, Note_on_c, 7, 45, 0
9, 816480, Note_on_c, 7, 46, 116
9, 816648, Note_on_c, 7, 46, 0
9, 816720, Note_on_c, 7, 48, 116
9, 816888, Note_on_c, 7, 48, 0
9, 816960, Note_on_c, 7, 50, 116
9, 817128, Note_on_c, 7, 50, 0
9, 817200, Note_on_c, 7, 52, 116
9, 817368, Note_on_c, 7, 52, 0
9, 817440, Note_on_c, 7, 54, 116
9, 817608, Note_on_c, 7, 54, 0
9, 817680, Note_on_c, 7, 55, 116
9, 817848, Note_on_c, 7, 55, 0
9, 817920, Note_on_c, 7, 50, 116
9, 818688, Note_on_c, 7, 50, 0
9, 819600, Note_on_c, 7, 38, 116
9, 819792, Note_on_c, 7, 38, 0
9, 819840, Note_on_c, 7, 43, 127
9, 820008, Note_on_c, 7, 43, 0
9, 820080, Note_on_c, 7, 45, 116
9, 820248, Note_on_c, 7, 45, 0
9, 820320, Note_on_c, 7, 46, 116
9, 820488, Note_on_c, 7, 46, 0
9, 820560, Note_on_c, 7, 48, 116
9, 820728, Note_on_c, 7, 48, 0
9, 820800, Note_on_c, 7, 50, 116
9, 820968, Note_on_c, 7, 50, 0
9, 821040, Note_on_c, 7, 52, 116
9, 821208, Note_on_c, 7, 52, 0
9, 821280, Note_on_c, 7, 54, 116
9, 821448, Note_on_c, 7, 54, 0
9, 821520, Note_on_c, 7, 55, 116
9, 821688, Note_on_c, 7, 55, 0
9, 821760, Note_on_c, 7, 50, 116
9, 822528, Note_on_c, 7, 50, 0
9, 823440, Note_on_c, 7, 38, 116
9, 823632, Note_on_c, 7, 38, 0
9, 823680, Note_on_c, 7, 43, 127
9, 823848, Note_on_c, 7, 43, 0
9, 823920, Note_on_c, 7, 45, 116
9, 824088, Note_on_c, 7, 45, 0
9, 824160, Note_on_c, 7, 46, 116
9, 824328, Note_on_c, 7, 46, 0
9, 824400, Note_on_c, 7, 48, 116
9, 824568, Note_on_c, 7, 48, 0
9, 824640, Note_on_c, 7, 50, 116
9, 824808, Note_on_c, 7, 50, 0
9, 824880, Note_on_c, 7, 52, 116
9, 825048, Note_on_c, 7, 52, 0
9, 825120, Note_on_c, 7, 54, 116
9, 825288, Note_on_c, 7, 54, 0
9, 825360, Note_on_c, 7, 55, 116
9, 825528, Note_on_c, 7, 55, 0
9, 825600, Note_on_c, 7, 50, 116
9, 826368, Note_on_c, 7, 50, 0
9, 827280, Note_on_c, 7, 38, 116
9, 827472, Note_on_c, 7, 38, 0
9, 827520, Note_on_c, 7, 43, 116
9, 827904, Note_on_c, 7, 43, 0
9, 828480, Note_on_c, 7, 55, 116
9, 828864, Note_on_c, 7, 55, 0
9, 829440, Note_on_c, 7, 43, 116
9, 830400, Note_on_c, 7, 43, 0
9, 830400, End_track
10, 0, Start_track
10, 0, Sequencer_specific, 04, 43, 00, 01, 00
10, 0, Program_c, 8, 43
10, 0, Control_c, 8, 7, 99
10, 0, Control_c, 8, 10, 94
10, 0, Control_c, 8, 91, 98
10, 1920, Note_on_c, 8, 43, 58
10, 2688, Note_on_c, 8, 43, 0
10, 3840, Note_on_c, 8, 43, 58
10, 4608, Note_on_c, 8, 43, 0
10, 5280, Note_on_c, 8, 43, 105
10, 5664, Note_on_c, 8, 43, 0
10, 5760, Note_on_c, 8, 42, 105
10, 6144, Note_on_c, 8, 42, 0
10, 6240, Note_on_c, 8, 43, 105
10, 6624, Note_on_c, 8, 43, 0
10, 6720, Note_on_c, 8, 42, 105
10, 7104, Note_on_c, 8, 42, 0
10, 7200, Note_on_c, 8, 43, 105
10, 7584, Note_on_c, 8, 43, 0
10, 7680, Note_on_c, 8, 42, 105
10, 8448, Note_on_c, 8, 42, 0
10, 9600, Note_on_c, 8, 36, 58
10, 10368, Note_on_c, 8, 36, 0
10, 11520, Note_on_c, 8, 38, 58
10, 12288, Note_on_c, 8, 38, 0
10, 12960, Note_on_c, 8, 38, 105
10, 13248, Note_on_c, 8, 38, 0
10, 13440, Note_on_c, 8, 43, 105
10, 13728, Note_on_c, 8, 43, 0
10, 13920, Note_on_c, 8, 38, 105
10, 14208, Note_on_c, 8, 38, 0
10, 14400, Note_on_c, 8, 43, 105
10, 14688, Note_on_c, 8, 43, 0
10, 14880, Note_on_c, 8, 38, 105
10, 15168, Note_on_c, 8, 38, 0
10, 15360, Note_on_c, 8, 43, 105
10, 16128, Note_on_c, 8, 43, 0
10, 17280, Note_on_c, 8, 43, 58
10, 18048, Note_on_c, 8, 43, 0
10, 19200, Note_on_c, 8, 43, 58
10, 19968, Note_on_c, 8, 43, 0
10, 20640, Note_on_c, 8, 43, 105
10, 21024, Note_on_c, 8, 43, 0
10, 21120, Note_on_c, 8, 42, 105
10, 21504, Note_on_c, 8, 42, 0
10, 21600, Note_on_c, 8, 43, 105
10, 21984, Note_on_c, 8, 43, 0
10, 22080, Note_on_c, 8, 42, 105
10, 22464, Note_on_c, 8, 42, 0
10, 22560, Note_on_c, 8, 43, 105
10, 22944, Note_on_c, 8, 43, 0
10, 23040, Note_on_c, 8, 42, 105
10, 23808, Note_on_c, 8, 42, 0
10, 24960, Note_on_c, 8, 36, 58
10, 25728, Note_on_c, 8, 36, 0
10, 26880, Note_on_c, 8, 38, 58
10, 27648, Note_on_c, 8, 38, 0
10, 28320, Note_on_c, 8, 38, 105
10, 28608, Note_on_c, 8, 38, 0
10, 28800, Note_on_c, 8, 43, 105
10, 29088, Note_on_c, 8, 43, 0
10, 29280, Note_on_c, 8, 38, 105
10, 29568, Note_on_c, 8, 38, 0
10, 29760, Note_on_c, 8, 43, 105
10, 30048, Note_on_c, 8, 43, 0
10, 30240, Note_on_c, 8, 38, 105
10, 30528, Note_on_c, 8, 38, 0
10, 30720, Note_on_c, 8, 43, 105
10, 31488, Note_on_c, 8, 43, 0
10, 32160, Note_on_c, 8, 38, 105
10, 32448, Note_on_c, 8, 38, 0
10, 32640, Note_on_c, 8, 38, 105
10, 33408, Note_on_c, 8, 38, 0
10, 36000, Note_on_c, 8, 38, 105
10, 36288, Note_on_c, 8, 38, 0
10, 36480, Note_on_c, 8, 38, 105
10, 37248, Note_on_c, 8, 38, 0
10, 40320, Note_on_c, 8, 36, 58
10, 41088, Note_on_c, 8, 36, 0
10, 42240, Note_on_c, 8, 38, 58
10, 43008, Note_on_c, 8, 38, 0
10, 43680, Note_on_c, 8, 38, 105
10, 43968, Note_on_c, 8, 38, 0
10, 44160, Note_on_c, 8, 43, 105
10, 44448, Note_on_c, 8, 43, 0
10, 44640, Note_on_c, 8, 38, 105
10, 44928, Note_on_c, 8, 38, 0
10, 45120, Note_on_c, 8, 43, 105
10, 45408, Note_on_c, 8, 43, 0
10, 45600, Note_on_c, 8, 38, 105
10, 45888, Note_on_c, 8, 38, 0
10, 46080, Note_on_c, 8, 43, 105
10, 46848, Note_on_c, 8, 43, 0
10, 47520, Note_on_c, 8, 38, 105
10, 47808, Note_on_c, 8, 38, 0
10, 48000, Note_on_c, 8, 38, 105
10, 48768, Note_on_c, 8, 38, 0
10, 51360, Note_on_c, 8, 38, 105
10, 51648, Note_on_c, 8, 38, 0
10, 51840, Note_on_c, 8, 38, 105
10, 52608, Note_on_c, 8, 38, 0
10, 55680, Note_on_c, 8, 36, 58
10, 56448, Note_on_c, 8, 36, 0
10, 57600, Note_on_c, 8, 38, 58
10, 58368, Note_on_c, 8, 38, 0
10, 59040, Note_on_c, 8, 38, 105
10, 59328, Note_on_c, 8, 38, 0
10, 59520, Note_on_c, 8, 43, 105
10, 59808, Note_on_c, 8, 43, 0
10, 60000, Note_on_c, 8, 38, 105
10, 60288, Note_on_c, 8, 38, 0
10, 60480, Note_on_c, 8, 43, 105
10, 60768, Note_on_c, 8, 43, 0
10, 60960, Note_on_c, 8, 38, 105
10, 61248, Note_on_c, 8, 38, 0
10, 61440, Note_on_c, 8, 43, 105
10, 62208, Note_on_c, 8, 43, 0
10, 63360, Note_on_c, 8, 39, 105
10, 63648, Note_on_c, 8, 39, 0
10, 63840, Note_on_c, 8, 41, 105
10, 64128, Note_on_c, 8, 41, 0
10, 64320, Note_on_c, 8, 39, 105
10, 64608, Note_on_c, 8, 39, 0
10, 64800, Note_on_c, 8, 41, 105
10, 65088, Note_on_c, 8, 41, 0
10, 65280, Note_on_c, 8, 39, 105
10, 66048, Note_on_c, 8, 39, 0
10, 67200, Note_on_c, 8, 38, 105
10, 67488, Note_on_c, 8, 38, 0
10, 67680, Note_on_c, 8, 37, 105
10, 67968, Note_on_c, 8, 37, 0
10, 68160, Note_on_c, 8, 38, 105
10, 68448, Note_on_c, 8, 38, 0
10, 68640, Note_on_c, 8, 37, 105
10, 68928, Note_on_c, 8, 37, 0
10, 69120, Note_on_c, 8, 38, 105
10, 69888, Note_on_c, 8, 38, 0
10, 70560, Note_on_c, 8, 30, 105
10, 70944, Note_on_c, 8, 30, 0
10, 71040, Note_on_c, 8, 31, 105
10, 71808, Note_on_c, 8, 31, 0
10, 72480, Note_on_c, 8, 34, 105
10, 72864, Note_on_c, 8, 34, 0
10, 72960, Note_on_c, 8, 33, 105
10, 73344, Note_on_c, 8, 33, 0
10, 73440, Note_on_c, 8, 36, 105
10, 73824, Note_on_c, 8, 36, 0
10, 73920, Note_on_c, 8, 38, 105
10, 74304, Note_on_c, 8, 38, 0
10, 74400, Note_on_c, 8, 42, 105
10, 74784, Note_on_c, 8, 42, 0
10, 74880, Note_on_c, 8, 43, 105
10, 75648, Note_on_c, 8, 43, 0
10, 76320, Note_on_c, 8, 46, 105
10, 76704, Note_on_c, 8, 46, 0
10, 76800, Note_on_c, 8, 45, 105
10, 77184, Note_on_c, 8, 45, 0
10, 77280, Note_on_c, 8, 48, 105
10, 77664, Note_on_c, 8, 48, 0
10, 77760, Note_on_c, 8, 50, 105
10, 78144, Note_on_c, 8, 50, 0
10, 78240, Note_on_c, 8, 42, 105
10, 78624, Note_on_c, 8, 42, 0
10, 78720, Note_on_c, 8, 43, 105
10, 79488, Note_on_c, 8, 43, 0
10, 80160, Note_on_c, 8, 41, 105
10, 80544, Note_on_c, 8, 41, 0
10, 80640, Note_on_c, 8, 39, 105
10, 81408, Note_on_c, 8, 39, 0
10, 82080, Note_on_c, 8, 36, 105
10, 82464, Note_on_c, 8, 36, 0
10, 82560, Note_on_c, 8, 41, 105
10, 83328, Note_on_c, 8, 41, 0
10, 84000, Note_on_c, 8, 39, 105
10, 84384, Note_on_c, 8, 39, 0
10, 84480, Note_on_c, 8, 38, 105
10, 85248, Note_on_c, 8, 38, 0
10, 85920, Note_on_c, 8, 34, 105
10, 86304, Note_on_c, 8, 34, 0
10, 86400, Note_on_c, 8, 39, 105
10, 87168, Note_on_c, 8, 39, 0
10, 87840, Note_on_c, 8, 41, 105
10, 88224, Note_on_c, 8, 41, 0
10, 88320, Note_on_c, 8, 43, 105
10, 89088, Note_on_c, 8, 43, 0
10, 89760, Note_on_c, 8, 40, 105
10, 90144, Note_on_c, 8, 40, 0
10, 90240, Note_on_c, 8, 41, 105
10, 91008, Note_on_c, 8, 41, 0
10, 91680, Note_on_c, 8, 43, 105
10, 92064, Note_on_c, 8, 43, 0
10, 92160, Note_on_c, 8, 45, 105
10, 92928, Note_on_c, 8, 45, 0
10, 94080, Note_on_c, 8, 46, 105
10, 94320, Note_on_c, 8, 46, 0
10, 94320, Note_on_c, 8, 50, 105
10, 94464, Note_on_c, 8, 50, 0
10, 94560, Note_on_c, 8, 48, 105
10, 94704, Note_on_c, 8, 48, 0
10, 94800, Note_on_c, 8, 45, 105
10, 94944, Note_on_c, 8, 45, 0
10, 95040, Note_on_c, 8, 46, 105
10, 95280, Note_on_c, 8, 46, 0
10, 95280, Note_on_c, 8, 50, 105
10, 95424, Note_on_c, 8, 50, 0
10, 95520, Note_on_c, 8, 48, 105
10, 95664, Note_on_c, 8, 48, 0
10, 95760, Note_on_c, 8, 45, 105
10, 95904, Note_on_c, 8, 45, 0
10, 96000, Note_on_c, 8, 46, 105
10, 96192, Note_on_c, 8, 46, 0
10, 96240, Note_on_c, 8, 48, 105
10, 96432, Note_on_c, 8, 48, 0
10, 96480, Note_on_c, 8, 50, 105
10, 96672, Note_on_c, 8, 50, 0
10, 96720, Note_on_c, 8, 48, 105
10, 96912, Note_on_c, 8, 48, 0
10, 96960, Note_on_c, 8, 46, 105
10, 97152, Note_on_c, 8, 46, 0
10, 97200, Note_on_c, 8, 45, 105
10, 97392, Note_on_c, 8, 45, 0
10, 97440, Note_on_c, 8, 43, 105
10, 97632, Note_on_c, 8, 43, 0
10, 97680, Note_on_c, 8, 42, 105
10, 97872, Note_on_c, 8, 42, 0
10, 97920, Note_on_c, 8, 43, 105
10, 98160, Note_on_c, 8, 43, 0
10, 98160, Note_on_c, 8, 46, 105
10, 98304, Note_on_c, 8, 46, 0
10, 98400, Note_on_c, 8, 45, 105
10, 98544, Note_on_c, 8, 45, 0
10, 98640, Note_on_c, 8, 42, 105
10, 98784, Note_on_c, 8, 42, 0
10, 98880, Note_on_c, 8, 43, 105
10, 99120, Note_on_c, 8, 43, 0
10, 99120, Note_on_c, 8, 46, 105
10, 99264, Note_on_c, 8, 46, 0
10, 99360, Note_on_c, 8, 45, 105
10, 99504, Note_on_c, 8, 45, 0
10, 99600, Note_on_c, 8, 42, 105
10, 99744, Note_on_c, 8, 42, 0
10, 99840, Note_on_c, 8, 43, 105
10, 99984, Note_on_c, 8, 43, 0
10, 100080, Note_on_c, 8, 45, 105
10, 100224, Note_on_c, 8, 45, 0
10, 100320, Note_on_c, 8, 46, 105
10, 100464, Note_on_c, 8, 46, 0
10, 100560, Note_on_c, 8, 45, 105
10, 100704, Note_on_c, 8, 45, 0
10, 100800, Note_on_c, 8, 43, 105
10, 100944, Note_on_c, 8, 43, 0
10, 101040, Note_on_c, 8, 41, 105
10, 101184, Note_on_c, 8, 41, 0
10, 101280, Note_on_c, 8, 39, 105
10, 101424, Note_on_c, 8, 39, 0
10, 101520, Note_on_c, 8, 38, 105
10, 101664, Note_on_c, 8, 38, 0
10, 101760, Note_on_c, 8, 39, 105
10, 102000, Note_on_c, 8, 39, 0
10, 102000, Note_on_c, 8, 43, 105
10, 102144, Note_on_c, 8, 43, 0
10, 102240, Note_on_c, 8, 41, 105
10, 102384, Note_on_c, 8, 41, 0
10, 102480, Note_on_c, 8, 38, 105
10, 102624, Note_on_c, 8, 38, 0
10, 102720, Note_on_c, 8, 39, 105
10, 102960, Note_on_c, 8, 39, 0
10, 102960, Note_on_c, 8, 43, 105
10, 103104, Note_on_c, 8, 43, 0
10, 103200, Note_on_c, 8, 41, 105
10, 103344, Note_on_c, 8, 41, 0
10, 103440, Note_on_c, 8, 38, 105
10, 103584, Note_on_c, 8, 38, 0
10, 103680, Note_on_c, 8, 39, 105
10, 103824, Note_on_c, 8, 39, 0
10, 103920, Note_on_c, 8, 41, 105
10, 104064, Note_on_c, 8, 41, 0
10, 104160, Note_on_c, 8, 43, 105
10, 104304, Note_on_c, 8, 43, 0
10, 104400, Note_on_c, 8, 41, 105
10, 104544, Note_on_c, 8, 41, 0
10, 104640, Note_on_c, 8, 39, 105
10, 104784, Note_on_c, 8, 39, 0
10, 104880, Note_on_c, 8, 38, 105
10, 105024, Note_on_c, 8, 38, 0
10, 105120, Note_on_c, 8, 36, 105
10, 105264, Note_on_c, 8, 36, 0
10, 105360, Note_on_c, 8, 34, 105
10, 105504, Note_on_c, 8, 34, 0
10, 105600, Note_on_c, 8, 33, 105
10, 105840, Note_on_c, 8, 33, 0
10, 105840, Note_on_c, 8, 34, 105
10, 105984, Note_on_c, 8, 34, 0
10, 106080, Note_on_c, 8, 36, 105
10, 106224, Note_on_c, 8, 36, 0
10, 106320, Note_on_c, 8, 34, 105
10, 106464, Note_on_c, 8, 34, 0
10, 106560, Note_on_c, 8, 33, 105
10, 106800, Note_on_c, 8, 33, 0
10, 106800, Note_on_c, 8, 34, 105
10, 106944, Note_on_c, 8, 34, 0
10, 107040, Note_on_c, 8, 36, 105
10, 107184, Note_on_c, 8, 36, 0
10, 107280, Note_on_c, 8, 34, 105
10, 107424, Note_on_c, 8, 34, 0
10, 107520, Note_on_c, 8, 33, 105
10, 108672, Note_on_c, 8, 33, 0
10, 109200, Note_on_c, 8, 45, 105
10, 109392, Note_on_c, 8, 45, 0
10, 109440, Note_on_c, 8, 46, 125
10, 109632, Note_on_c, 8, 46, 0
10, 109680, Note_on_c, 8, 45, 105
10, 109872, Note_on_c, 8, 45, 0
10, 109920, Note_on_c, 8, 43, 105
10, 110112, Note_on_c, 8, 43, 0
10, 110160, Note_on_c, 8, 41, 105
10, 110352, Note_on_c, 8, 41, 0
10, 110400, Note_on_c, 8, 39, 105
10, 110592, Note_on_c, 8, 39, 0
10, 110640, Note_on_c, 8, 38, 105
10, 110832, Note_on_c, 8, 38, 0
10, 110880, Note_on_c, 8, 36, 105
10, 111072, Note_on_c, 8, 36, 0
10, 111120, Note_on_c, 8, 34, 105
10, 111312, Note_on_c, 8, 34, 0
10, 111360, Note_on_c, 8, 33, 105
10, 112512, Note_on_c, 8, 33, 0
10, 113040, Note_on_c, 8, 45, 105
10, 113232, Note_on_c, 8, 45, 0
10, 113280, Note_on_c, 8, 43, 125
10, 113472, Note_on_c, 8, 43, 0
10, 113520, Note_on_c, 8, 41, 105
10, 113712, Note_on_c, 8, 41, 0
10, 113760, Note_on_c, 8, 39, 105
10, 113952, Note_on_c, 8, 39, 0
10, 114000, Note_on_c, 8, 38, 105
10, 114192, Note_on_c, 8, 38, 0
10, 114240, Note_on_c, 8, 36, 105
10, 114432, Note_on_c, 8, 36, 0
10, 114480, Note_on_c, 8, 34, 105
10, 114672, Note_on_c, 8, 34, 0
10, 114720, Note_on_c, 8, 33, 105
10, 114912, Note_on_c, 8, 33, 0
10, 114960, Note_on_c, 8, 31, 105
10, 115152, Note_on_c, 8, 31, 0
10, 115200, Note_on_c, 8, 29, 105
10, 116352, Note_on_c, 8, 29, 0
10, 116880, Note_on_c, 8, 53, 105
10, 117072, Note_on_c, 8, 53, 0
10, 117120, Note_on_c, 8, 51, 125
10, 117312, Note_on_c, 8, 51, 0
10, 117360, Note_on_c, 8, 50, 105
10, 117552, Note_on_c, 8, 50, 0
10, 117600, Note_on_c, 8, 48, 105
10, 117792, Note_on_c, 8, 48, 0
10, 117840, Note_on_c, 8, 46, 105
10, 118032, Note_on_c, 8, 46, 0
10, 118080, Note_on_c, 8, 44, 105
10, 118272, Note_on_c, 8, 44, 0
10, 118320, Note_on_c, 8, 43, 105
10, 118512, Note_on_c, 8, 43, 0
10, 118560, Note_on_c, 8, 41, 105
10, 118752, Note_on_c, 8, 41, 0
10, 118800, Note_on_c, 8, 39, 105
10, 118992, Note_on_c, 8, 39, 0
10, 119040, Note_on_c, 8, 38, 105
10, 119808, Note_on_c, 8, 38, 0
10, 120960, Note_on_c, 8, 36, 105
10, 121728, Note_on_c, 8, 36, 0
10, 121920, Note_on_c, 8, 38, 105
10, 122688, Note_on_c, 8, 38, 0
10, 122880, Note_on_c, 8, 39, 105
10, 123648, Note_on_c, 8, 39, 0
10, 123840, Note_on_c, 8, 40, 105
10, 124608, Note_on_c, 8, 40, 0
10, 124800, Note_on_c, 8, 41, 105
10, 125184, Note_on_c, 8, 41, 0
10, 125280, Note_on_c, 8, 41, 105
10, 125664, Note_on_c, 8, 41, 0
10, 125760, Note_on_c, 8, 41, 105
10, 126144, Note_on_c, 8, 41, 0
10, 126240, Note_on_c, 8, 41, 105
10, 126624, Note_on_c, 8, 41, 0
10, 126720, Note_on_c, 8, 41, 105
10, 127104, Note_on_c, 8, 41, 0
10, 127200, Note_on_c, 8, 41, 105
10, 127584, Note_on_c, 8, 41, 0
10, 127680, Note_on_c, 8, 41, 105
10, 128064, Note_on_c, 8, 41, 0
10, 128160, Note_on_c, 8, 41, 105
10, 128544, Note_on_c, 8, 41, 0
10, 128640, Note_on_c, 8, 41, 105
10, 129024, Note_on_c, 8, 41, 0
10, 129120, Note_on_c, 8, 41, 105
10, 129504, Note_on_c, 8, 41, 0
10, 129600, Note_on_c, 8, 41, 105
10, 129984, Note_on_c, 8, 41, 0
10, 130080, Note_on_c, 8, 41, 105
10, 130464, Note_on_c, 8, 41, 0
10, 130560, Note_on_c, 8, 41, 105
10, 130944, Note_on_c, 8, 41, 0
10, 131040, Note_on_c, 8, 41, 105
10, 131424, Note_on_c, 8, 41, 0
10, 131520, Note_on_c, 8, 41, 105
10, 131904, Note_on_c, 8, 41, 0
10, 132000, Note_on_c, 8, 41, 105
10, 132384, Note_on_c, 8, 41, 0
10, 132480, Note_on_c, 8, 41, 105
10, 132864, Note_on_c, 8, 41, 0
10, 133440, Note_on_c, 8, 41, 105
10, 133824, Note_on_c, 8, 41, 0
10, 134400, Note_on_c, 8, 29, 92
10, 135168, Note_on_c, 8, 29, 0
10, 167040, Note_on_c, 8, 46, 58
10, 167424, Note_on_c, 8, 46, 0
10, 167520, Note_on_c, 8, 46, 58
10, 167904, Note_on_c, 8, 46, 0
10, 168000, Note_on_c, 8, 46, 58
10, 168384, Note_on_c, 8, 46, 0
10, 168480, Note_on_c, 8, 46, 58
10, 168864, Note_on_c, 8, 46, 0
10, 168960, Note_on_c, 8, 45, 58
10, 169344, Note_on_c, 8, 45, 0
10, 169440, Note_on_c, 8, 45, 58
10, 169824, Note_on_c, 8, 45, 0
10, 169920, Note_on_c, 8, 45, 58
10, 170304, Note_on_c, 8, 45, 0
10, 170400, Note_on_c, 8, 45, 58
10, 170784, Note_on_c, 8, 45, 0
10, 170880, Note_on_c, 8, 43, 58
10, 172416, Note_on_c, 8, 43, 0
10, 172800, Note_on_c, 8, 42, 58
10, 173760, Note_on_c, 8, 42, 0
10, 173760, Note_on_c, 8, 43, 58
10, 174528, Note_on_c, 8, 43, 0
10, 174720, Note_on_c, 8, 39, 58
10, 175488, Note_on_c, 8, 39, 0
10, 177120, Note_on_c, 8, 39, 58
10, 177600, Note_on_c, 8, 39, 0
10, 177600, Note_on_c, 8, 38, 58
10, 178080, Note_on_c, 8, 38, 0
10, 178080, Note_on_c, 8, 36, 58
10, 178464, Note_on_c, 8, 36, 0
10, 178560, Note_on_c, 8, 41, 58
10, 179040, Note_on_c, 8, 41, 0
10, 179040, Note_on_c, 8, 40, 58
10, 179520, Note_on_c, 8, 40, 0
10, 179520, Note_on_c, 8, 41, 58
10, 180000, Note_on_c, 8, 41, 0
10, 180000, Note_on_c, 8, 40, 58
10, 180480, Note_on_c, 8, 40, 0
10, 180480, Note_on_c, 8, 41, 58
10, 180960, Note_on_c, 8, 41, 0
10, 182400, Note_on_c, 8, 34, 58
10, 182784, Note_on_c, 8, 34, 0
10, 182880, Note_on_c, 8, 34, 58
10, 183264, Note_on_c, 8, 34, 0
10, 183360, Note_on_c, 8, 46, 58
10, 183744, Note_on_c, 8, 46, 0
10, 183840, Note_on_c, 8, 46, 58
10, 184224, Note_on_c, 8, 46, 0
10, 184320, Note_on_c, 8, 45, 58
10, 184704, Note_on_c, 8, 45, 0
10, 184800, Note_on_c, 8, 45, 58
10, 185184, Note_on_c, 8, 45, 0
10, 185280, Note_on_c, 8, 44, 58
10, 185664, Note_on_c, 8, 44, 0
10, 185760, Note_on_c, 8, 44, 58
10, 186144, Note_on_c, 8, 44, 0
10, 186240, Note_on_c, 8, 43, 58
10, 186624, Note_on_c, 8, 43, 0
10, 186720, Note_on_c, 8, 43, 58
10, 187104, Note_on_c, 8, 43, 0
10, 187200, Note_on_c, 8, 43, 58
10, 187584, Note_on_c, 8, 43, 0
10, 187680, Note_on_c, 8, 43, 58
10, 188064, Note_on_c, 8, 43, 0
10, 188160, Note_on_c, 8, 42, 58
10, 188544, Note_on_c, 8, 42, 0
10, 188640, Note_on_c, 8, 42, 58
10, 189024, Note_on_c, 8, 42, 0
10, 189120, Note_on_c, 8, 41, 58
10, 189504, Note_on_c, 8, 41, 0
10, 189600, Note_on_c, 8, 41, 58
10, 189984, Note_on_c, 8, 41, 0
10, 190080, Note_on_c, 8, 39, 58
10, 190464, Note_on_c, 8, 39, 0
10, 190560, Note_on_c, 8, 39, 58
10, 190944, Note_on_c, 8, 39, 0
10, 191040, Note_on_c, 8, 39, 58
10, 191424, Note_on_c, 8, 39, 0
10, 191520, Note_on_c, 8, 39, 58
10, 191904, Note_on_c, 8, 39, 0
10, 192000, Note_on_c, 8, 41, 58
10, 192384, Note_on_c, 8, 41, 0
10, 192480, Note_on_c, 8, 41, 58
10, 192864, Note_on_c, 8, 41, 0
10, 192960, Note_on_c, 8, 29, 58
10, 193344, Note_on_c, 8, 29, 0
10, 193440, Note_on_c, 8, 29, 58
10, 193824, Note_on_c, 8, 29, 0
10, 193920, Note_on_c, 8, 34, 105
10, 194688, Note_on_c, 8, 34, 0
10, 195840, Note_on_c, 8, 50, 105
10, 196224, Note_on_c, 8, 50, 0
10, 196320, Note_on_c, 8, 51, 105
10, 196704, Note_on_c, 8, 51, 0
10, 196800, Note_on_c, 8, 50, 105
10, 197184, Note_on_c, 8, 50, 0
10, 197280, Note_on_c, 8, 51, 105
10, 197664, Note_on_c, 8, 51, 0
10, 197760, Note_on_c, 8, 50, 105
10, 198528, Note_on_c, 8, 50, 0
10, 199680, Note_on_c, 8, 50, 105
10, 200064, Note_on_c, 8, 50, 0
10, 200160, Note_on_c, 8, 51, 105
10, 200544, Note_on_c, 8, 51, 0
10, 200640, Note_on_c, 8, 50, 105
10, 201024, Note_on_c, 8, 50, 0
10, 201120, Note_on_c, 8, 51, 105
10, 201504, Note_on_c, 8, 51, 0
10, 201600, Note_on_c, 8, 50, 105
10, 202368, Note_on_c, 8, 50, 0
10, 203520, Note_on_c, 8, 50, 105
10, 203904, Note_on_c, 8, 50, 0
10, 204000, Note_on_c, 8, 51, 105
10, 204384, Note_on_c, 8, 51, 0
10, 204480, Note_on_c, 8, 50, 105
10, 204864, Note_on_c, 8, 50, 0
10, 204960, Note_on_c, 8, 51, 105
10, 205344, Note_on_c, 8, 51, 0
10, 205440, Note_on_c, 8, 50, 105
10, 205824, Note_on_c, 8, 50, 0
10, 206400, Note_on_c, 8, 51, 105
10, 206784, Note_on_c, 8, 51, 0
10, 207360, Note_on_c, 8, 53, 105
10, 207744, Note_on_c, 8, 53, 0
10, 208320, Note_on_c, 8, 41, 105
10, 208704, Note_on_c, 8, 41, 0
10, 209280, Note_on_c, 8, 46, 92
10, 209664, Note_on_c, 8, 46, 0
10, 211200, Note_on_c, 8, 38, 58
10, 211584, Note_on_c, 8, 38, 0
10, 211680, Note_on_c, 8, 39, 58
10, 212064, Note_on_c, 8, 39, 0
10, 212160, Note_on_c, 8, 38, 58
10, 212544, Note_on_c, 8, 38, 0
10, 212640, Note_on_c, 8, 39, 58
10, 213024, Note_on_c, 8, 39, 0
10, 213120, Note_on_c, 8, 38, 58
10, 213504, Note_on_c, 8, 38, 0
10, 215040, Note_on_c, 8, 38, 58
10, 215424, Note_on_c, 8, 38, 0
10, 215520, Note_on_c, 8, 39, 58
10, 215904, Note_on_c, 8, 39, 0
10, 216000, Note_on_c, 8, 38, 58
10, 216384, Note_on_c, 8, 38, 0
10, 216480, Note_on_c, 8, 39, 58
10, 216864, Note_on_c, 8, 39, 0
10, 216960, Note_on_c, 8, 38, 58
10, 217344, Note_on_c, 8, 38, 0
10, 218880, Note_on_c, 8, 50, 105
10, 219264, Note_on_c, 8, 50, 0
10, 219360, Note_on_c, 8, 51, 105
10, 219744, Note_on_c, 8, 51, 0
10, 219840, Note_on_c, 8, 50, 105
10, 220224, Note_on_c, 8, 50, 0
10, 220320, Note_on_c, 8, 51, 105
10, 220704, Note_on_c, 8, 51, 0
10, 220800, Note_on_c, 8, 50, 105
10, 221184, Note_on_c, 8, 50, 0
10, 221280, Note_on_c, 8, 50, 105
10, 221664, Note_on_c, 8, 50, 0
10, 221760, Note_on_c, 8, 51, 105
10, 222144, Note_on_c, 8, 51, 0
10, 222240, Note_on_c, 8, 51, 105
10, 222624, Note_on_c, 8, 51, 0
10, 222720, Note_on_c, 8, 53, 105
10, 223104, Note_on_c, 8, 53, 0
10, 223200, Note_on_c, 8, 53, 105
10, 223584, Note_on_c, 8, 53, 0
10, 223680, Note_on_c, 8, 41, 105
10, 224064, Note_on_c, 8, 41, 0
10, 224160, Note_on_c, 8, 41, 105
10, 224544, Note_on_c, 8, 41, 0
10, 224640, Note_on_c, 8, 34, 125
10, 224820, Note_on_c, 8, 34, 0
10, 224880, Note_on_c, 8, 36, 105
10, 225060, Note_on_c, 8, 36, 0
10, 225120, Note_on_c, 8, 38, 105
10, 225300, Note_on_c, 8, 38, 0
10, 225360, Note_on_c, 8, 39, 105
10, 225540, Note_on_c, 8, 39, 0
10, 225600, Note_on_c, 8, 41, 105
10, 225780, Note_on_c, 8, 41, 0
10, 225840, Note_on_c, 8, 43, 105
10, 226020, Note_on_c, 8, 43, 0
10, 226080, Note_on_c, 8, 45, 105
10, 226260, Note_on_c, 8, 45, 0
10, 226320, Note_on_c, 8, 46, 105
10, 226500, Note_on_c, 8, 46, 0
10, 226560, Note_on_c, 8, 41, 105
10, 227328, Note_on_c, 8, 41, 0
10, 228240, Note_on_c, 8, 29, 105
10, 228420, Note_on_c, 8, 29, 0
10, 228480, Note_on_c, 8, 34, 125
10, 228660, Note_on_c, 8, 34, 0
10, 228720, Note_on_c, 8, 36, 105
10, 228900, Note_on_c, 8, 36, 0
10, 228960, Note_on_c, 8, 38, 105
10, 229140, Note_on_c, 8, 38, 0
10, 229200, Note_on_c, 8, 39, 105
10, 229380, Note_on_c, 8, 39, 0
10, 229440, Note_on_c, 8, 41, 105
10, 229620, Note_on_c, 8, 41, 0
10, 229680, Note_on_c, 8, 43, 105
10, 229860, Note_on_c, 8, 43, 0
10, 229920, Note_on_c, 8, 45, 105
10, 230100, Note_on_c, 8, 45, 0
10, 230160, Note_on_c, 8, 46, 105
10, 230340, Note_on_c, 8, 46, 0
10, 230400, Note_on_c, 8, 41, 105
10, 231168, Note_on_c, 8, 41, 0
10, 232080, Note_on_c, 8, 29, 105
10, 232260, Note_on_c, 8, 29, 0
10, 232320, Note_on_c, 8, 34, 125
10, 232500, Note_on_c, 8, 34, 0
10, 232560, Note_on_c, 8, 36, 105
10, 232740, Note_on_c, 8, 36, 0
10, 232800, Note_on_c, 8, 38, 105
10, 232980, Note_on_c, 8, 38, 0
10, 233040, Note_on_c, 8, 39, 105
10, 233220, Note_on_c, 8, 39, 0
10, 233280, Note_on_c, 8, 41, 105
10, 233460, Note_on_c, 8, 41, 0
10, 233520, Note_on_c, 8, 43, 105
10, 233700, Note_on_c, 8, 43, 0
10, 233760, Note_on_c, 8, 45, 105
10, 233940, Note_on_c, 8, 45, 0
10, 234000, Note_on_c, 8, 46, 105
10, 234180, Note_on_c, 8, 46, 0
10, 234240, Note_on_c, 8, 41, 105
10, 235008, Note_on_c, 8, 41, 0
10, 235920, Note_on_c, 8, 29, 105
10, 236112, Note_on_c, 8, 29, 0
10, 236160, Note_on_c, 8, 34, 105
10, 236544, Note_on_c, 8, 34, 0
10, 237120, Note_on_c, 8, 46, 105
10, 237504, Note_on_c, 8, 46, 0
10, 238080, Note_on_c, 8, 34, 105
10, 238848, Note_on_c, 8, 34, 0
10, 240000, Note_on_c, 8, 43, 58
10, 240768, Note_on_c, 8, 43, 0
10, 241920, Note_on_c, 8, 43, 58
10, 242688, Note_on_c, 8, 43, 0
10, 243360, Note_on_c, 8, 43, 105
10, 243744, Note_on_c, 8, 43, 0
10, 243840, Note_on_c, 8, 42, 105
10, 244224, Note_on_c, 8, 42, 0
10, 244320, Note_on_c, 8, 43, 105
10, 244704, Note_on_c, 8, 43, 0
10, 244800, Note_on_c, 8, 42, 105
10, 245184, Note_on_c, 8, 42, 0
10, 245280, Note_on_c, 8, 43, 105
10, 245664, Note_on_c, 8, 43, 0
10, 245760, Note_on_c, 8, 42, 105
10, 246528, Note_on_c, 8, 42, 0
10, 247680, Note_on_c, 8, 36, 58
10, 248448, Note_on_c, 8, 36, 0
10, 249600, Note_on_c, 8, 38, 58
10, 250368, Note_on_c, 8, 38, 0
10, 251040, Note_on_c, 8, 38, 105
10, 251328, Note_on_c, 8, 38, 0
10, 251520, Note_on_c, 8, 43, 105
10, 251808, Note_on_c, 8, 43, 0
10, 252000, Note_on_c, 8, 38, 105
10, 252288, Note_on_c, 8, 38, 0
10, 252480, Note_on_c, 8, 43, 105
10, 252768, Note_on_c, 8, 43, 0
10, 252960, Note_on_c, 8, 38, 105
10, 253248, Note_on_c, 8, 38, 0
10, 253440, Note_on_c, 8, 43, 105
10, 254208, Note_on_c, 8, 43, 0
10, 255360, Note_on_c, 8, 43, 58
10, 256128, Note_on_c, 8, 43, 0
10, 257280, Note_on_c, 8, 43, 58
10, 258048, Note_on_c, 8, 43, 0
10, 258720, Note_on_c, 8, 43, 105
10, 259104, Note_on_c, 8, 43, 0
10, 259200, Note_on_c, 8, 42, 105
10, 259584, Note_on_c, 8, 42, 0
10, 259680, Note_on_c, 8, 43, 105
10, 260064, Note_on_c, 8, 43, 0
10, 260160, Note_on_c, 8, 42, 105
10, 260544, Note_on_c, 8, 42, 0
10, 260640, Note_on_c, 8, 43, 105
10, 261024, Note_on_c, 8, 43, 0
10, 261120, Note_on_c, 8, 42, 105
10, 261888, Note_on_c, 8, 42, 0
10, 263040, Note_on_c, 8, 36, 58
10, 263808, Note_on_c, 8, 36, 0
10, 264960, Note_on_c, 8, 38, 58
10, 265728, Note_on_c, 8, 38, 0
10, 266400, Note_on_c, 8, 38, 105
10, 266688, Note_on_c, 8, 38, 0
10, 266880, Note_on_c, 8, 43, 105
10, 267168, Note_on_c, 8, 43, 0
10, 267360, Note_on_c, 8, 38, 105
10, 267648, Note_on_c, 8, 38, 0
10, 267840, Note_on_c, 8, 43, 105
10, 268128, Note_on_c, 8, 43, 0
10, 268320, Note_on_c, 8, 38, 105
10, 268608, Note_on_c, 8, 38, 0
10, 268800, Note_on_c, 8, 43, 105
10, 269568, Note_on_c, 8, 43, 0
10, 270240, Note_on_c, 8, 38, 105
10, 270528, Note_on_c, 8, 38, 0
10, 270720, Note_on_c, 8, 38, 105
10, 271488, Note_on_c, 8, 38, 0
10, 274080, Note_on_c, 8, 38, 105
10, 274368, Note_on_c, 8, 38, 0
10, 274560, Note_on_c, 8, 38, 105
10, 275328, Note_on_c, 8, 38, 0
10, 278400, Note_on_c, 8, 36, 58
10, 279168, Note_on_c, 8, 36, 0
10, 280320, Note_on_c, 8, 38, 58
10, 281088, Note_on_c, 8, 38, 0
10, 281760, Note_on_c, 8, 38, 105
10, 282048, Note_on_c, 8, 38, 0
10, 282240, Note_on_c, 8, 43, 105
10, 282528, Note_on_c, 8, 43, 0
10, 282720, Note_on_c, 8, 38, 105
10, 283008, Note_on_c, 8, 38, 0
10, 283200, Note_on_c, 8, 43, 105
10, 283488, Note_on_c, 8, 43, 0
10, 283680, Note_on_c, 8, 38, 105
10, 283968, Note_on_c, 8, 38, 0
10, 284160, Note_on_c, 8, 43, 105
10, 284928, Note_on_c, 8, 43, 0
10, 285600, Note_on_c, 8, 38, 105
10, 285888, Note_on_c, 8, 38, 0
10, 286080, Note_on_c, 8, 38, 105
10, 286848, Note_on_c, 8, 38, 0
10, 289440, Note_on_c, 8, 38, 105
10, 289728, Note_on_c, 8, 38, 0
10, 289920, Note_on_c, 8, 38, 105
10, 290688, Note_on_c, 8, 38, 0
10, 293760, Note_on_c, 8, 36, 58
10, 294528, Note_on_c, 8, 36, 0
10, 295680, Note_on_c, 8, 38, 58
10, 296448, Note_on_c, 8, 38, 0
10, 297120, Note_on_c, 8, 38, 105
10, 297408, Note_on_c, 8, 38, 0
10, 297600, Note_on_c, 8, 43, 105
10, 297888, Note_on_c, 8, 43, 0
10, 298080, Note_on_c, 8, 38, 105
10, 298368, Note_on_c, 8, 38, 0
10, 298560, Note_on_c, 8, 43, 105
10, 298848, Note_on_c, 8, 43, 0
10, 299040, Note_on_c, 8, 38, 105
10, 299328, Note_on_c, 8, 38, 0
10, 299520, Note_on_c, 8, 43, 105
10, 300288, Note_on_c, 8, 43, 0
10, 301440, Note_on_c, 8, 39, 105
10, 301728, Note_on_c, 8, 39, 0
10, 301920, Note_on_c, 8, 41, 105
10, 302208, Note_on_c, 8, 41, 0
10, 302400, Note_on_c, 8, 39, 105
10, 302688, Note_on_c, 8, 39, 0
10, 302880, Note_on_c, 8, 41, 105
10, 303168, Note_on_c, 8, 41, 0
10, 303360, Note_on_c, 8, 39, 105
10, 304128, Note_on_c, 8, 39, 0
10, 305280, Note_on_c, 8, 38, 105
10, 305568, Note_on_c, 8, 38, 0
10, 305760, Note_on_c, 8, 37, 105
10, 306048, Note_on_c, 8, 37, 0
10, 306240, Note_on_c, 8, 38, 105
10, 306528, Note_on_c, 8, 38, 0
10, 306720, Note_on_c, 8, 37, 105
10, 307008, Note_on_c, 8, 37, 0
10, 307200, Note_on_c, 8, 38, 105
10, 307968, Note_on_c, 8, 38, 0
10, 308640, Note_on_c, 8, 30, 105
10, 309024, Note_on_c, 8, 30, 0
10, 309120, Note_on_c, 8, 31, 105
10, 309888, Note_on_c, 8, 31, 0
10, 310560, Note_on_c, 8, 34, 105
10, 310944, Note_on_c, 8, 34, 0
10, 311040, Note_on_c, 8, 33, 105
10, 311424, Note_on_c, 8, 33, 0
10, 311520, Note_on_c, 8, 36, 105
10, 311904, Note_on_c, 8, 36, 0
10, 312000, Note_on_c, 8, 38, 105
10, 312384, Note_on_c, 8, 38, 0
10, 312480, Note_on_c, 8, 42, 105
10, 312864, Note_on_c, 8, 42, 0
10, 312960, Note_on_c, 8, 43, 105
10, 313728, Note_on_c, 8, 43, 0
10, 314400, Note_on_c, 8, 46, 105
10, 314784, Note_on_c, 8, 46, 0
10, 314880, Note_on_c, 8, 45, 105
10, 315264, Note_on_c, 8, 45, 0
10, 315360, Note_on_c, 8, 48, 105
10, 315744, Note_on_c, 8, 48, 0
10, 315840, Note_on_c, 8, 50, 105
10, 316224, Note_on_c, 8, 50, 0
10, 316320, Note_on_c, 8, 42, 105
10, 316704, Note_on_c, 8, 42, 0
10, 316800, Note_on_c, 8, 43, 105
10, 317568, Note_on_c, 8, 43, 0
10, 318240, Note_on_c, 8, 41, 105
10, 318624, Note_on_c, 8, 41, 0
10, 318720, Note_on_c, 8, 39, 105
10, 319488, Note_on_c, 8, 39, 0
10, 320160, Note_on_c, 8, 36, 105
10, 320544, Note_on_c, 8, 36, 0
10, 320640, Note_on_c, 8, 41, 105
10, 321408, Note_on_c, 8, 41, 0
10, 322080, Note_on_c, 8, 39, 105
10, 322464, Note_on_c, 8, 39, 0
10, 322560, Note_on_c, 8, 38, 105
10, 323328, Note_on_c, 8, 38, 0
10, 324000, Note_on_c, 8, 34, 105
10, 324384, Note_on_c, 8, 34, 0
10, 324480, Note_on_c, 8, 39, 105
10, 325248, Note_on_c, 8, 39, 0
10, 325920, Note_on_c, 8, 41, 105
10, 326304, Note_on_c, 8, 41, 0
10, 326400, Note_on_c, 8, 43, 105
10, 327168, Note_on_c, 8, 43, 0
10, 327840, Note_on_c, 8, 40, 105
10, 328224, Note_on_c, 8, 40, 0
10, 328320, Note_on_c, 8, 41, 105
10, 329088, Note_on_c, 8, 41, 0
10, 329760, Note_on_c, 8, 43, 105
10, 330144, Note_on_c, 8, 43, 0
10, 330240, Note_on_c, 8, 45, 105
10, 331008, Note_on_c, 8, 45, 0
10, 332160, Note_on_c, 8, 46, 105
10, 332400, Note_on_c, 8, 46, 0
10, 332400, Note_on_c, 8, 50, 105
10, 332544, Note_on_c, 8, 50, 0
10, 332640, Note_on_c, 8, 48, 105
10, 332784, Note_on_c, 8, 48, 0
10, 332880, Note_on_c, 8, 45, 105
10, 333024, Note_on_c, 8, 45, 0
10, 333120, Note_on_c, 8, 46, 105
10, 333360, Note_on_c, 8, 46, 0
10, 333360, Note_on_c, 8, 50, 105
10, 333504, Note_on_c, 8, 50, 0
10, 333600, Note_on_c, 8, 48, 105
10, 333744, Note_on_c, 8, 48, 0
10, 333840, Note_on_c, 8, 45, 105
10, 333984, Note_on_c, 8, 45, 0
10, 334080, Note_on_c, 8, 46, 105
10, 334272, Note_on_c, 8, 46, 0
10, 334320, Note_on_c, 8, 48, 105
10, 334512, Note_on_c, 8, 48, 0
10, 334560, Note_on_c, 8, 50, 105
10, 334752, Note_on_c, 8, 50, 0
10, 334800, Note_on_c, 8, 48, 105
10, 334992, Note_on_c, 8, 48, 0
10, 335040, Note_on_c, 8, 46, 105
10, 335232, Note_on_c, 8, 46, 0
10, 335280, Note_on_c, 8, 45, 105
10, 335472, Note_on_c, 8, 45, 0
10, 335520, Note_on_c, 8, 43, 105
10, 335712, Note_on_c, 8, 43, 0
10, 335760, Note_on_c, 8, 42, 105
10, 335952, Note_on_c, 8, 42, 0
10, 336000, Note_on_c, 8, 43, 105
10, 336240, Note_on_c, 8, 43, 0
10, 336240, Note_on_c, 8, 46, 105
10, 336384, Note_on_c, 8, 46, 0
10, 336480, Note_on_c, 8, 45, 105
10, 336624, Note_on_c, 8, 45, 0
10, 336720, Note_on_c, 8, 42, 105
10, 336864, Note_on_c, 8, 42, 0
10, 336960, Note_on_c, 8, 43, 105
10, 337200, Note_on_c, 8, 43, 0
10, 337200, Note_on_c, 8, 46, 105
10, 337344, Note_on_c, 8, 46, 0
10, 337440, Note_on_c, 8, 45, 105
10, 337584, Note_on_c, 8, 45, 0
10, 337680, Note_on_c, 8, 42, 105
10, 337824, Note_on_c, 8, 42, 0
10, 337920, Note_on_c, 8, 43, 105
10, 338064, Note_on_c, 8, 43, 0
10, 338160, Note_on_c, 8, 45, 105
10, 338304, Note_on_c, 8, 45, 0
10, 338400, Note_on_c, 8, 46, 105
10, 338544, Note_on_c, 8, 46, 0
10, 338640, Note_on_c, 8, 45, 105
10, 338784, Note_on_c, 8, 45, 0
10, 338880, Note_on_c, 8, 43, 105
10, 339024, Note_on_c, 8, 43, 0
10, 339120, Note_on_c, 8, 41, 105
10, 339264, Note_on_c, 8, 41, 0
10, 339360, Note_on_c, 8, 39, 105
10, 339504, Note_on_c, 8, 39, 0
10, 339600, Note_on_c, 8, 38, 105
10, 339744, Note_on_c, 8, 38, 0
10, 339840, Note_on_c, 8, 39, 105
10, 340080, Note_on_c, 8, 39, 0
10, 340080, Note_on_c, 8, 43, 105
10, 340224, Note_on_c, 8, 43, 0
10, 340320, Note_on_c, 8, 41, 105
10, 340464, Note_on_c, 8, 41, 0
10, 340560, Note_on_c, 8, 38, 105
10, 340704, Note_on_c, 8, 38, 0
10, 340800, Note_on_c, 8, 39, 105
10, 341040, Note_on_c, 8, 39, 0
10, 341040, Note_on_c, 8, 43, 105
10, 341184, Note_on_c, 8, 43, 0
10, 341280, Note_on_c, 8, 41, 105
10, 341424, Note_on_c, 8, 41, 0
10, 341520, Note_on_c, 8, 38, 105
10, 341664, Note_on_c, 8, 38, 0
10, 341760, Note_on_c, 8, 39, 105
10, 341904, Note_on_c, 8, 39, 0
10, 342000, Note_on_c, 8, 41, 105
10, 342144, Note_on_c, 8, 41, 0
10, 342240, Note_on_c, 8, 43, 105
10, 342384, Note_on_c, 8, 43, 0
10, 342480, Note_on_c, 8, 41, 105
10, 342624, Note_on_c, 8, 41, 0
10, 342720, Note_on_c, 8, 39, 105
10, 342864, Note_on_c, 8, 39, 0
10, 342960, Note_on_c, 8, 38, 105
10, 343104, Note_on_c, 8, 38, 0
10, 343200, Note_on_c, 8, 36, 105
10, 343344, Note_on_c, 8, 36, 0
10, 343440, Note_on_c, 8, 34, 105
10, 343584, Note_on_c, 8, 34, 0
10, 343680, Note_on_c, 8, 33, 105
10, 343920, Note_on_c, 8, 33, 0
10, 343920, Note_on_c, 8, 34, 105
10, 344064, Note_on_c, 8, 34, 0
10, 344160, Note_on_c, 8, 36, 105
10, 344304, Note_on_c, 8, 36, 0
10, 344400, Note_on_c, 8, 34, 105
10, 344544, Note_on_c, 8, 34, 0
10, 344640, Note_on_c, 8, 33, 105
10, 344880, Note_on_c, 8, 33, 0
10, 344880, Note_on_c, 8, 34, 105
10, 345024, Note_on_c, 8, 34, 0
10, 345120, Note_on_c, 8, 36, 105
10, 345264, Note_on_c, 8, 36, 0
10, 345360, Note_on_c, 8, 34, 105
10, 345504, Note_on_c, 8, 34, 0
10, 345600, Note_on_c, 8, 33, 105
10, 346752, Note_on_c, 8, 33, 0
10, 347280, Note_on_c, 8, 45, 105
10, 347472, Note_on_c, 8, 45, 0
10, 347520, Note_on_c, 8, 46, 125
10, 347712, Note_on_c, 8, 46, 0
10, 347760, Note_on_c, 8, 45, 105
10, 347952, Note_on_c, 8, 45, 0
10, 348000, Note_on_c, 8, 43, 105
10, 348192, Note_on_c, 8, 43, 0
10, 348240, Note_on_c, 8, 41, 105
10, 348432, Note_on_c, 8, 41, 0
10, 348480, Note_on_c, 8, 39, 105
10, 348672, Note_on_c, 8, 39, 0
10, 348720, Note_on_c, 8, 38, 105
10, 348912, Note_on_c, 8, 38, 0
10, 348960, Note_on_c, 8, 36, 105
10, 349152, Note_on_c, 8, 36, 0
10, 349200, Note_on_c, 8, 34, 105
10, 349392, Note_on_c, 8, 34, 0
10, 349440, Note_on_c, 8, 33, 105
10, 350592, Note_on_c, 8, 33, 0
10, 351120, Note_on_c, 8, 45, 105
10, 351312, Note_on_c, 8, 45, 0
10, 351360, Note_on_c, 8, 43, 125
10, 351552, Note_on_c, 8, 43, 0
10, 351600, Note_on_c, 8, 41, 105
10, 351792, Note_on_c, 8, 41, 0
10, 351840, Note_on_c, 8, 39, 105
10, 352032, Note_on_c, 8, 39, 0
10, 352080, Note_on_c, 8, 38, 105
10, 352272, Note_on_c, 8, 38, 0
10, 352320, Note_on_c, 8, 36, 105
10, 352512, Note_on_c, 8, 36, 0
10, 352560, Note_on_c, 8, 34, 105
10, 352752, Note_on_c, 8, 34, 0
10, 352800, Note_on_c, 8, 33, 105
10, 352992, Note_on_c, 8, 33, 0
10, 353040, Note_on_c, 8, 31, 105
10, 353232, Note_on_c, 8, 31, 0
10, 353280, Note_on_c, 8, 29, 105
10, 354432, Note_on_c, 8, 29, 0
10, 354960, Note_on_c, 8, 53, 105
10, 355152, Note_on_c, 8, 53, 0
10, 355200, Note_on_c, 8, 51, 125
10, 355392, Note_on_c, 8, 51, 0
10, 355440, Note_on_c, 8, 50, 105
10, 355632, Note_on_c, 8, 50, 0
10, 355680, Note_on_c, 8, 48, 105
10, 355872, Note_on_c, 8, 48, 0
10, 355920, Note_on_c, 8, 46, 105
10, 356112, Note_on_c, 8, 46, 0
10, 356160, Note_on_c, 8, 44, 105
10, 356352, Note_on_c, 8, 44, 0
10, 356400, Note_on_c, 8, 43, 105
10, 356592, Note_on_c, 8, 43, 0
10, 356640, Note_on_c, 8, 41, 105
10, 356832, Note_on_c, 8, 41, 0
10, 356880, Note_on_c, 8, 39, 105
10, 357072, Note_on_c, 8, 39, 0
10, 357120, Note_on_c, 8, 38, 105
10, 357888, Note_on_c, 8, 38, 0
10, 359040, Note_on_c, 8, 36, 105
10, 359808, Note_on_c, 8, 36, 0
10, 360000, Note_on_c, 8, 38, 105
10, 360768, Note_on_c, 8, 38, 0
10, 360960, Note_on_c, 8, 39, 105
10, 361728, Note_on_c, 8, 39, 0
10, 361920, Note_on_c, 8, 40, 105
10, 362688, Note_on_c, 8, 40, 0
10, 362880, Note_on_c, 8, 41, 105
10, 363264, Note_on_c, 8, 41, 0
10, 363360, Note_on_c, 8, 41, 105
10, 363744, Note_on_c, 8, 41, 0
10, 363840, Note_on_c, 8, 41, 105
10, 364224, Note_on_c, 8, 41, 0
10, 364320, Note_on_c, 8, 41, 105
10, 364704, Note_on_c, 8, 41, 0
10, 364800, Note_on_c, 8, 41, 105
10, 365184, Note_on_c, 8, 41, 0
10, 365280, Note_on_c, 8, 41, 105
10, 365664, Note_on_c, 8, 41, 0
10, 365760, Note_on_c, 8, 41, 105
10, 366144, Note_on_c, 8, 41, 0
10, 366240, Note_on_c, 8, 41, 105
10, 366624, Note_on_c, 8, 41, 0
10, 366720, Note_on_c, 8, 41, 105
10, 367104, Note_on_c, 8, 41, 0
10, 367200, Note_on_c, 8, 41, 105
10, 367584, Note_on_c, 8, 41, 0
10, 367680, Note_on_c, 8, 41, 105
10, 368064, Note_on_c, 8, 41, 0
10, 368160, Note_on_c, 8, 41, 105
10, 368544, Note_on_c, 8, 41, 0
10, 368640, Note_on_c, 8, 41, 105
10, 369024, Note_on_c, 8, 41, 0
10, 369120, Note_on_c, 8, 41, 105
10, 369504, Note_on_c, 8, 41, 0
10, 369600, Note_on_c, 8, 41, 105
10, 369984, Note_on_c, 8, 41, 0
10, 370080, Note_on_c, 8, 41, 105
10, 370464, Note_on_c, 8, 41, 0
10, 370560, Note_on_c, 8, 41, 105
10, 370944, Note_on_c, 8, 41, 0
10, 371520, Note_on_c, 8, 41, 105
10, 371904, Note_on_c, 8, 41, 0
10, 372480, Note_on_c, 8, 29, 92
10, 373248, Note_on_c, 8, 29, 0
10, 405120, Note_on_c, 8, 46, 58
10, 405504, Note_on_c, 8, 46, 0
10, 405600, Note_on_c, 8, 46, 58
10, 405984, Note_on_c, 8, 46, 0
10, 406080, Note_on_c, 8, 46, 58
10, 406464, Note_on_c, 8, 46, 0
10, 406560, Note_on_c, 8, 46, 58
10, 406944, Note_on_c, 8, 46, 0
10, 407040, Note_on_c, 8, 45, 58
10, 407424, Note_on_c, 8, 45, 0
10, 407520, Note_on_c, 8, 45, 58
10, 407904, Note_on_c, 8, 45, 0
10, 408000, Note_on_c, 8, 45, 58
10, 408384, Note_on_c, 8, 45, 0
10, 408480, Note_on_c, 8, 45, 58
10, 408864, Note_on_c, 8, 45, 0
10, 408960, Note_on_c, 8, 43, 58
10, 410496, Note_on_c, 8, 43, 0
10, 410880, Note_on_c, 8, 42, 58
10, 411840, Note_on_c, 8, 42, 0
10, 411840, Note_on_c, 8, 43, 58
10, 412608, Note_on_c, 8, 43, 0
10, 412800, Note_on_c, 8, 39, 58
10, 413568, Note_on_c, 8, 39, 0
10, 415200, Note_on_c, 8, 39, 58
10, 415680, Note_on_c, 8, 39, 0
10, 415680, Note_on_c, 8, 38, 58
10, 416160, Note_on_c, 8, 38, 0
10, 416160, Note_on_c, 8, 36, 58
10, 416544, Note_on_c, 8, 36, 0
10, 416640, Note_on_c, 8, 41, 58
10, 417120, Note_on_c, 8, 41, 0
10, 417120, Note_on_c, 8, 40, 58
10, 417600, Note_on_c, 8, 40, 0
10, 417600, Note_on_c, 8, 41, 58
10, 418080, Note_on_c, 8, 41, 0
10, 418080, Note_on_c, 8, 40, 58
10, 418560, Note_on_c, 8, 40, 0
10, 418560, Note_on_c, 8, 41, 58
10, 419040, Note_on_c, 8, 41, 0
10, 420480, Note_on_c, 8, 34, 58
10, 420864, Note_on_c, 8, 34, 0
10, 420960, Note_on_c, 8, 34, 58
10, 421344, Note_on_c, 8, 34, 0
10, 421440, Note_on_c, 8, 46, 58
10, 421824, Note_on_c, 8, 46, 0
10, 421920, Note_on_c, 8, 46, 58
10, 422304, Note_on_c, 8, 46, 0
10, 422400, Note_on_c, 8, 45, 58
10, 422784, Note_on_c, 8, 45, 0
10, 422880, Note_on_c, 8, 45, 58
10, 423264, Note_on_c, 8, 45, 0
10, 423360, Note_on_c, 8, 44, 58
10, 423744, Note_on_c, 8, 44, 0
10, 423840, Note_on_c, 8, 44, 58
10, 424224, Note_on_c, 8, 44, 0
10, 424320, Note_on_c, 8, 43, 58
10, 424704, Note_on_c, 8, 43, 0
10, 424800, Note_on_c, 8, 43, 58
10, 425184, Note_on_c, 8, 43, 0
10, 425280, Note_on_c, 8, 43, 58
10, 425664, Note_on_c, 8, 43, 0
10, 425760, Note_on_c, 8, 43, 58
10, 426144, Note_on_c, 8, 43, 0
10, 426240, Note_on_c, 8, 42, 58
10, 426624, Note_on_c, 8, 42, 0
10, 426720, Note_on_c, 8, 42, 58
10, 427104, Note_on_c, 8, 42, 0
10, 427200, Note_on_c, 8, 41, 58
10, 427584, Note_on_c, 8, 41, 0
10, 427680, Note_on_c, 8, 41, 58
10, 428064, Note_on_c, 8, 41, 0
10, 428160, Note_on_c, 8, 39, 58
10, 428544, Note_on_c, 8, 39, 0
10, 428640, Note_on_c, 8, 39, 58
10, 429024, Note_on_c, 8, 39, 0
10, 429120, Note_on_c, 8, 39, 58
10, 429504, Note_on_c, 8, 39, 0
10, 429600, Note_on_c, 8, 39, 58
10, 429984, Note_on_c, 8, 39, 0
10, 430080, Note_on_c, 8, 41, 58
10, 430464, Note_on_c, 8, 41, 0
10, 430560, Note_on_c, 8, 41, 58
10, 430944, Note_on_c, 8, 41, 0
10, 431040, Note_on_c, 8, 29, 58
10, 431424, Note_on_c, 8, 29, 0
10, 431520, Note_on_c, 8, 29, 58
10, 431904, Note_on_c, 8, 29, 0
10, 432000, Note_on_c, 8, 34, 105
10, 432768, Note_on_c, 8, 34, 0
10, 433920, Note_on_c, 8, 50, 105
10, 434304, Note_on_c, 8, 50, 0
10, 434400, Note_on_c, 8, 51, 105
10, 434784, Note_on_c, 8, 51, 0
10, 434880, Note_on_c, 8, 50, 105
10, 435264, Note_on_c, 8, 50, 0
10, 435360, Note_on_c, 8, 51, 105
10, 435744, Note_on_c, 8, 51, 0
10, 435840, Note_on_c, 8, 50, 105
10, 436608, Note_on_c, 8, 50, 0
10, 437760, Note_on_c, 8, 50, 105
10, 438144, Note_on_c, 8, 50, 0
10, 438240, Note_on_c, 8, 51, 105
10, 438624, Note_on_c, 8, 51, 0
10, 438720, Note_on_c, 8, 50, 105
10, 439104, Note_on_c, 8, 50, 0
10, 439200, Note_on_c, 8, 51, 105
10, 439584, Note_on_c, 8, 51, 0
10, 439680, Note_on_c, 8, 50, 105
10, 440448, Note_on_c, 8, 50, 0
10, 441600, Note_on_c, 8, 50, 105
10, 441984, Note_on_c, 8, 50, 0
10, 442080, Note_on_c, 8, 51, 105
10, 442464, Note_on_c, 8, 51, 0
10, 442560, Note_on_c, 8, 50, 105
10, 442944, Note_on_c, 8, 50, 0
10, 443040, Note_on_c, 8, 51, 105
10, 443424, Note_on_c, 8, 51, 0
10, 443520, Note_on_c, 8, 50, 105
10, 443904, Note_on_c, 8, 50, 0
10, 444480, Note_on_c, 8, 51, 105
10, 444864, Note_on_c, 8, 51, 0
10, 445440, Note_on_c, 8, 53, 105
10, 445824, Note_on_c, 8, 53, 0
10, 446400, Note_on_c, 8, 41, 105
10, 446784, Note_on_c, 8, 41, 0
10, 447360, Note_on_c, 8, 46, 92
10, 447744, Note_on_c, 8, 46, 0
10, 449280, Note_on_c, 8, 38, 58
10, 449664, Note_on_c, 8, 38, 0
10, 449760, Note_on_c, 8, 39, 58
10, 450144, Note_on_c, 8, 39, 0
10, 450240, Note_on_c, 8, 38, 58
10, 450624, Note_on_c, 8, 38, 0
10, 450720, Note_on_c, 8, 39, 58
10, 451104, Note_on_c, 8, 39, 0
10, 451200, Note_on_c, 8, 38, 58
10, 451584, Note_on_c, 8, 38, 0
10, 453120, Note_on_c, 8, 38, 58
10, 453504, Note_on_c, 8, 38, 0
10, 453600, Note_on_c, 8, 39, 58
10, 453984, Note_on_c, 8, 39, 0
10, 454080, Note_on_c, 8, 38, 58
10, 454464, Note_on_c, 8, 38, 0
10, 454560, Note_on_c, 8, 39, 58
10, 454944, Note_on_c, 8, 39, 0
10, 455040, Note_on_c, 8, 38, 58
10, 455424, Note_on_c, 8, 38, 0
10, 456960, Note_on_c, 8, 50, 105
10, 457344, Note_on_c, 8, 50, 0
10, 457440, Note_on_c, 8, 51, 105
10, 457824, Note_on_c, 8, 51, 0
10, 457920, Note_on_c, 8, 50, 105
10, 458304, Note_on_c, 8, 50, 0
10, 458400, Note_on_c, 8, 51, 105
10, 458784, Note_on_c, 8, 51, 0
10, 458880, Note_on_c, 8, 50, 105
10, 459264, Note_on_c, 8, 50, 0
10, 459360, Note_on_c, 8, 50, 105
10, 459744, Note_on_c, 8, 50, 0
10, 459840, Note_on_c, 8, 51, 105
10, 460224, Note_on_c, 8, 51, 0
10, 460320, Note_on_c, 8, 51, 105
10, 460704, Note_on_c, 8, 51, 0
10, 460800, Note_on_c, 8, 53, 105
10, 461184, Note_on_c, 8, 53, 0
10, 461280, Note_on_c, 8, 53, 105
10, 461664, Note_on_c, 8, 53, 0
10, 461760, Note_on_c, 8, 41, 105
10, 462144, Note_on_c, 8, 41, 0
10, 462240, Note_on_c, 8, 41, 105
10, 462624, Note_on_c, 8, 41, 0
10, 462720, Note_on_c, 8, 34, 125
10, 462900, Note_on_c, 8, 34, 0
10, 462960, Note_on_c, 8, 36, 105
10, 463140, Note_on_c, 8, 36, 0
10, 463200, Note_on_c, 8, 38, 105
10, 463380, Note_on_c, 8, 38, 0
10, 463440, Note_on_c, 8, 39, 105
10, 463620, Note_on_c, 8, 39, 0
10, 463680, Note_on_c, 8, 41, 105
10, 463860, Note_on_c, 8, 41, 0
10, 463920, Note_on_c, 8, 43, 105
10, 464100, Note_on_c, 8, 43, 0
10, 464160, Note_on_c, 8, 45, 105
10, 464340, Note_on_c, 8, 45, 0
10, 464400, Note_on_c, 8, 46, 105
10, 464580, Note_on_c, 8, 46, 0
10, 464640, Note_on_c, 8, 41, 105
10, 465408, Note_on_c, 8, 41, 0
10, 466320, Note_on_c, 8, 29, 105
10, 466500, Note_on_c, 8, 29, 0
10, 466560, Note_on_c, 8, 34, 125
10, 466740, Note_on_c, 8, 34, 0
10, 466800, Note_on_c, 8, 36, 105
10, 466980, Note_on_c, 8, 36, 0
10, 467040, Note_on_c, 8, 38, 105
10, 467220, Note_on_c, 8, 38, 0
10, 467280, Note_on_c, 8, 39, 105
10, 467460, Note_on_c, 8, 39, 0
10, 467520, Note_on_c, 8, 41, 105
10, 467700, Note_on_c, 8, 41, 0
10, 467760, Note_on_c, 8, 43, 105
10, 467940, Note_on_c, 8, 43, 0
10, 468000, Note_on_c, 8, 45, 105
10, 468180, Note_on_c, 8, 45, 0
10, 468240, Note_on_c, 8, 46, 105
10, 468420, Note_on_c, 8, 46, 0
10, 468480, Note_on_c, 8, 41, 105
10, 469248, Note_on_c, 8, 41, 0
10, 470160, Note_on_c, 8, 29, 105
10, 470340, Note_on_c, 8, 29, 0
10, 470400, Note_on_c, 8, 34, 125
10, 470580, Note_on_c, 8, 34, 0
10, 470640, Note_on_c, 8, 36, 105
10, 470820, Note_on_c, 8, 36, 0
10, 470880, Note_on_c, 8, 38, 105
10, 471060, Note_on_c, 8, 38, 0
10, 471120, Note_on_c, 8, 39, 105
10, 471300, Note_on_c, 8, 39, 0
10, 471360, Note_on_c, 8, 41, 105
10, 471540, Note_on_c, 8, 41, 0
10, 471600, Note_on_c, 8, 43, 105
10, 471780, Note_on_c, 8, 43, 0
10, 471840, Note_on_c, 8, 45, 105
10, 472020, Note_on_c, 8, 45, 0
10, 472080, Note_on_c, 8, 46, 105
10, 472260, Note_on_c, 8, 46, 0
10, 472320, Note_on_c, 8, 41, 105
10, 473088, Note_on_c, 8, 41, 0
10, 474000, Note_on_c, 8, 29, 105
10, 474192, Note_on_c, 8, 29, 0
10, 474240, Note_on_c, 8, 34, 105
10, 474624, Note_on_c, 8, 34, 0
10, 475200, Note_on_c, 8, 46, 105
10, 475584, Note_on_c, 8, 46, 0
10, 476160, Note_on_c, 8, 34, 92
10, 476928, Note_on_c, 8, 34, 0
10, 477600, Note_on_c, 8, 34, 125
10, 478080, Note_on_c, 8, 34, 0
10, 478080, Note_on_c, 8, 38, 105
10, 478368, Note_on_c, 8, 38, 0
10, 478560, Note_on_c, 8, 41, 105
10, 478848, Note_on_c, 8, 41, 0
10, 479040, Note_on_c, 8, 45, 105
10, 479328, Note_on_c, 8, 45, 0
10, 479520, Note_on_c, 8, 46, 105
10, 479808, Note_on_c, 8, 46, 0
10, 480000, Note_on_c, 8, 49, 105
10, 480960, Note_on_c, 8, 49, 0
10, 480960, Note_on_c, 8, 48, 105
10, 481248, Note_on_c, 8, 48, 0
10, 481440, Note_on_c, 8, 40, 105
10, 481728, Note_on_c, 8, 40, 0
10, 481920, Note_on_c, 8, 44, 105
10, 482256, Note_on_c, 8, 44, 0
10, 482880, Note_on_c, 8, 35, 105
10, 483216, Note_on_c, 8, 35, 0
10, 485520, Note_on_c, 8, 47, 105
10, 485600, Note_on_c, 8, 47, 0
10, 485600, Note_on_c, 8, 48, 105
10, 485680, Note_on_c, 8, 48, 0
10, 485680, Note_on_c, 8, 50, 105
10, 485760, Note_on_c, 8, 50, 0
10, 485760, Note_on_c, 8, 51, 105
10, 486096, Note_on_c, 8, 51, 0
10, 486720, Note_on_c, 8, 42, 105
10, 487056, Note_on_c, 8, 42, 0
10, 487680, Note_on_c, 8, 46, 105
10, 488016, Note_on_c, 8, 46, 0
10, 489600, Note_on_c, 8, 37, 105
10, 489936, Note_on_c, 8, 37, 0
10, 491520, Note_on_c, 8, 41, 105
10, 491856, Note_on_c, 8, 41, 0
10, 492480, Note_on_c, 8, 32, 105
10, 492816, Note_on_c, 8, 32, 0
10, 497280, Note_on_c, 8, 33, 58
10, 497664, Note_on_c, 8, 33, 0
10, 499200, Note_on_c, 8, 45, 58
10, 499584, Note_on_c, 8, 45, 0
10, 501120, Note_on_c, 8, 33, 58
10, 501504, Note_on_c, 8, 33, 0
10, 503040, Note_on_c, 8, 45, 58
10, 503424, Note_on_c, 8, 45, 0
10, 504960, Note_on_c, 8, 33, 58
10, 505344, Note_on_c, 8, 33, 0
10, 506880, Note_on_c, 8, 45, 58
10, 507264, Note_on_c, 8, 45, 0
10, 508800, Note_on_c, 8, 38, 58
10, 509184, Note_on_c, 8, 38, 0
10, 510720, Note_on_c, 8, 38, 58
10, 511104, Note_on_c, 8, 38, 0
10, 512640, Note_on_c, 8, 31, 58
10, 513024, Note_on_c, 8, 31, 0
10, 514560, Note_on_c, 8, 43, 70
10, 514944, Note_on_c, 8, 43, 0
10, 516480, Note_on_c, 8, 36, 70
10, 516864, Note_on_c, 8, 36, 0
10, 518400, Note_on_c, 8, 36, 70
10, 518784, Note_on_c, 8, 36, 0
10, 533280, Note_on_c, 8, 31, 105
10, 533760, Note_on_c, 8, 31, 0
10, 533760, Note_on_c, 8, 34, 105
10, 534048, Note_on_c, 8, 34, 0
10, 534240, Note_on_c, 8, 39, 105
10, 534528, Note_on_c, 8, 39, 0
10, 534720, Note_on_c, 8, 43, 105
10, 535008, Note_on_c, 8, 43, 0
10, 535200, Note_on_c, 8, 45, 105
10, 535488, Note_on_c, 8, 45, 0
10, 535680, Note_on_c, 8, 46, 105
10, 535968, Note_on_c, 8, 46, 0
10, 536160, Note_on_c, 8, 41, 105
10, 536448, Note_on_c, 8, 41, 0
10, 536640, Note_on_c, 8, 44, 105
10, 537768, Note_on_c, 8, 44, 0
10, 537840, Note_on_c, 8, 43, 105
10, 538008, Note_on_c, 8, 43, 0
10, 538080, Note_on_c, 8, 41, 105
10, 538248, Note_on_c, 8, 41, 0
10, 538320, Note_on_c, 8, 39, 105
10, 538488, Note_on_c, 8, 39, 0
10, 538560, Note_on_c, 8, 38, 105
10, 538728, Note_on_c, 8, 38, 0
10, 538800, Note_on_c, 8, 36, 105
10, 538968, Note_on_c, 8, 36, 0
10, 539040, Note_on_c, 8, 34, 105
10, 539208, Note_on_c, 8, 34, 0
10, 539280, Note_on_c, 8, 32, 105
10, 539448, Note_on_c, 8, 32, 0
10, 539520, Note_on_c, 8, 31, 105
10, 540288, Note_on_c, 8, 31, 0
10, 540960, Note_on_c, 8, 46, 105
10, 541344, Note_on_c, 8, 46, 0
10, 541440, Note_on_c, 8, 44, 125
10, 541632, Note_on_c, 8, 44, 0
10, 541680, Note_on_c, 8, 48, 105
10, 541872, Note_on_c, 8, 48, 0
10, 541920, Note_on_c, 8, 51, 105
10, 542112, Note_on_c, 8, 51, 0
10, 542160, Note_on_c, 8, 50, 105
10, 542352, Note_on_c, 8, 50, 0
10, 542400, Note_on_c, 8, 48, 105
10, 542592, Note_on_c, 8, 48, 0
10, 542640, Note_on_c, 8, 46, 105
10, 542832, Note_on_c, 8, 46, 0
10, 542880, Note_on_c, 8, 44, 105
10, 543072, Note_on_c, 8, 44, 0
10, 543120, Note_on_c, 8, 43, 105
10, 543312, Note_on_c, 8, 43, 0
10, 543360, Note_on_c, 8, 41, 105
10, 544128, Note_on_c, 8, 41, 0
10, 544800, Note_on_c, 8, 44, 105
10, 545184, Note_on_c, 8, 44, 0
10, 545280, Note_on_c, 8, 43, 125
10, 545472, Note_on_c, 8, 43, 0
10, 545520, Note_on_c, 8, 47, 105
10, 545712, Note_on_c, 8, 47, 0
10, 545760, Note_on_c, 8, 50, 105
10, 545952, Note_on_c, 8, 50, 0
10, 546000, Note_on_c, 8, 48, 105
10, 546192, Note_on_c, 8, 48, 0
10, 546240, Note_on_c, 8, 47, 105
10, 546432, Note_on_c, 8, 47, 0
10, 546480, Note_on_c, 8, 44, 105
10, 546672, Note_on_c, 8, 44, 0
10, 546720, Note_on_c, 8, 43, 105
10, 546912, Note_on_c, 8, 43, 0
10, 546960, Note_on_c, 8, 41, 105
10, 547152, Note_on_c, 8, 41, 0
10, 547200, Note_on_c, 8, 39, 92
10, 547968, Note_on_c, 8, 39, 0
10, 552480, Note_on_c, 8, 34, 125
10, 552864, Note_on_c, 8, 34, 0
10, 552960, Note_on_c, 8, 37, 105
10, 553344, Note_on_c, 8, 37, 0
10, 553440, Note_on_c, 8, 40, 105
10, 553824, Note_on_c, 8, 40, 0
10, 553920, Note_on_c, 8, 45, 105
10, 554304, Note_on_c, 8, 45, 0
10, 554400, Note_on_c, 8, 49, 105
10, 554784, Note_on_c, 8, 49, 0
10, 554880, Note_on_c, 8, 50, 92
10, 555648, Note_on_c, 8, 50, 0
10, 560160, Note_on_c, 8, 36, 125
10, 560640, Note_on_c, 8, 36, 0
10, 560640, Note_on_c, 8, 39, 105
10, 560928, Note_on_c, 8, 39, 0
10, 561120, Note_on_c, 8, 42, 105
10, 561408, Note_on_c, 8, 42, 0
10, 561600, Note_on_c, 8, 47, 105
10, 561888, Note_on_c, 8, 47, 0
10, 562080, Note_on_c, 8, 51, 105
10, 562368, Note_on_c, 8, 51, 0
10, 562560, Note_on_c, 8, 52, 92
10, 563328, Note_on_c, 8, 52, 0
10, 565920, Note_on_c, 8, 32, 125
10, 566400, Note_on_c, 8, 32, 0
10, 566400, Note_on_c, 8, 35, 105
10, 566736, Note_on_c, 8, 35, 0
10, 566880, Note_on_c, 8, 38, 105
10, 567216, Note_on_c, 8, 38, 0
10, 567360, Note_on_c, 8, 42, 105
10, 567696, Note_on_c, 8, 42, 0
10, 567840, Note_on_c, 8, 47, 105
10, 568176, Note_on_c, 8, 47, 0
10, 568320, Note_on_c, 8, 50, 105
10, 569280, Note_on_c, 8, 50, 0
10, 569280, Note_on_c, 8, 49, 105
10, 569616, Note_on_c, 8, 49, 0
10, 569760, Note_on_c, 8, 47, 105
10, 570096, Note_on_c, 8, 47, 0
10, 570240, Note_on_c, 8, 46, 105
10, 571008, Note_on_c, 8, 46, 0
10, 571680, Note_on_c, 8, 34, 125
10, 572160, Note_on_c, 8, 34, 0
10, 572160, Note_on_c, 8, 33, 105
10, 572544, Note_on_c, 8, 33, 0
10, 572640, Note_on_c, 8, 40, 105
10, 573024, Note_on_c, 8, 40, 0
10, 573120, Note_on_c, 8, 45, 105
10, 573504, Note_on_c, 8, 45, 0
10, 573600, Note_on_c, 8, 33, 105
10, 573984, Note_on_c, 8, 33, 0
10, 574080, Note_on_c, 8, 32, 92
10, 574848, Note_on_c, 8, 32, 0
10, 577440, Note_on_c, 8, 32, 112
10, 577920, Note_on_c, 8, 32, 0
10, 577920, Note_on_c, 8, 37, 105
10, 578256, Note_on_c, 8, 37, 0
10, 578400, Note_on_c, 8, 40, 105
10, 578736, Note_on_c, 8, 40, 0
10, 578880, Note_on_c, 8, 44, 105
10, 579216, Note_on_c, 8, 44, 0
10, 579360, Note_on_c, 8, 49, 105
10, 579696, Note_on_c, 8, 49, 0
10, 579840, Note_on_c, 8, 52, 105
10, 580800, Note_on_c, 8, 52, 0
10, 580800, Note_on_c, 8, 51, 105
10, 581136, Note_on_c, 8, 51, 0
10, 581280, Note_on_c, 8, 49, 105
10, 581616, Note_on_c, 8, 49, 0
10, 581760, Note_on_c, 8, 48, 92
10, 582528, Note_on_c, 8, 48, 0
10, 585120, Note_on_c, 8, 32, 112
10, 585504, Note_on_c, 8, 32, 0
10, 585600, Note_on_c, 8, 37, 105
10, 585936, Note_on_c, 8, 37, 0
10, 586080, Note_on_c, 8, 40, 105
10, 586416, Note_on_c, 8, 40, 0
10, 586560, Note_on_c, 8, 44, 105
10, 586896, Note_on_c, 8, 44, 0
10, 587040, Note_on_c, 8, 49, 105
10, 587376, Note_on_c, 8, 49, 0
10, 587520, Note_on_c, 8, 52, 105
10, 588288, Note_on_c, 8, 52, 0
10, 588480, Note_on_c, 8, 51, 105
10, 588816, Note_on_c, 8, 51, 0
10, 588960, Note_on_c, 8, 49, 105
10, 589296, Note_on_c, 8, 49, 0
10, 589440, Note_on_c, 8, 48, 105
10, 590016, Note_on_c, 8, 48, 0
10, 590400, Note_on_c, 8, 49, 105
10, 590976, Note_on_c, 8, 49, 0
10, 591360, Note_on_c, 8, 46, 105
10, 591936, Note_on_c, 8, 46, 0
10, 592320, Note_on_c, 8, 48, 105
10, 592896, Note_on_c, 8, 48, 0
10, 593280, Note_on_c, 8, 49, 105
10, 593664, Note_on_c, 8, 49, 0
10, 594240, Note_on_c, 8, 45, 105
10, 594624, Note_on_c, 8, 45, 0
10, 595200, Note_on_c, 8, 42, 105
10, 595584, Note_on_c, 8, 42, 0
10, 596160, Note_on_c, 8, 44, 105
10, 596544, Note_on_c, 8, 44, 0
10, 597120, Note_on_c, 8, 45, 105
10, 597504, Note_on_c, 8, 45, 0
10, 604800, Note_on_c, 8, 49, 105
10, 605184, Note_on_c, 8, 49, 0
10, 605760, Note_on_c, 8, 45, 105
10, 606144, Note_on_c, 8, 45, 0
10, 606720, Note_on_c, 8, 41, 105
10, 607488, Note_on_c, 8, 41, 0
10, 608160, Note_on_c, 8, 37, 105
10, 608640, Note_on_c, 8, 37, 0
10, 608640, Note_on_c, 8, 42, 105
10, 608928, Note_on_c, 8, 42, 0
10, 609120, Note_on_c, 8, 46, 105
10, 609408, Note_on_c, 8, 46, 0
10, 609600, Note_on_c, 8, 47, 105
10, 609888, Note_on_c, 8, 47, 0
10, 610080, Note_on_c, 8, 50, 105
10, 610368, Note_on_c, 8, 50, 0
10, 610560, Note_on_c, 8, 55, 105
10, 611520, Note_on_c, 8, 55, 0
10, 611520, Note_on_c, 8, 54, 105
10, 611808, Note_on_c, 8, 54, 0
10, 612000, Note_on_c, 8, 52, 105
10, 612288, Note_on_c, 8, 52, 0
10, 612480, Note_on_c, 8, 51, 105
10, 612864, Note_on_c, 8, 51, 0
10, 613440, Note_on_c, 8, 43, 105
10, 613824, Note_on_c, 8, 43, 0
10, 614400, Note_on_c, 8, 39, 105
10, 615168, Note_on_c, 8, 39, 0
10, 615840, Note_on_c, 8, 35, 105
10, 616320, Note_on_c, 8, 35, 0
10, 616320, Note_on_c, 8, 40, 105
10, 616608, Note_on_c, 8, 40, 0
10, 616800, Note_on_c, 8, 44, 105
10, 617088, Note_on_c, 8, 44, 0
10, 617280, Note_on_c, 8, 45, 105
10, 617568, Note_on_c, 8, 45, 0
10, 617760, Note_on_c, 8, 48, 105
10, 618048, Note_on_c, 8, 48, 0
10, 618240, Note_on_c, 8, 53, 105
10, 619200, Note_on_c, 8, 53, 0
10, 619200, Note_on_c, 8, 52, 105
10, 619488, Note_on_c, 8, 52, 0
10, 619680, Note_on_c, 8, 50, 105
10, 619968, Note_on_c, 8, 50, 0
10, 620160, Note_on_c, 8, 49, 105
10, 620544, Note_on_c, 8, 49, 0
10, 621120, Note_on_c, 8, 41, 105
10, 621504, Note_on_c, 8, 41, 0
10, 622080, Note_on_c, 8, 37, 105
10, 622848, Note_on_c, 8, 37, 0
10, 623520, Note_on_c, 8, 34, 105
10, 624000, Note_on_c, 8, 34, 0
10, 624000, Note_on_c, 8, 38, 105
10, 624288, Note_on_c, 8, 38, 0
10, 624480, Note_on_c, 8, 42, 105
10, 624768, Note_on_c, 8, 42, 0
10, 624960, Note_on_c, 8, 43, 105
10, 625248, Note_on_c, 8, 43, 0
10, 625440, Note_on_c, 8, 46, 105
10, 625728, Note_on_c, 8, 46, 0
10, 625920, Note_on_c, 8, 51, 112
10, 627360, Note_on_c, 8, 51, 0
10, 627360, Note_on_c, 8, 50, 105
10, 627744, Note_on_c, 8, 50, 0
10, 627840, Note_on_c, 8, 51, 112
10, 629280, Note_on_c, 8, 51, 0
10, 629280, Note_on_c, 8, 50, 92
10, 629664, Note_on_c, 8, 50, 0
10, 629760, Note_on_c, 8, 48, 105
10, 630048, Note_on_c, 8, 48, 0
10, 630240, Note_on_c, 8, 46, 105
10, 630528, Note_on_c, 8, 46, 0
10, 630720, Note_on_c, 8, 45, 105
10, 631008, Note_on_c, 8, 45, 0
10, 631200, Note_on_c, 8, 43, 105
10, 631488, Note_on_c, 8, 43, 0
10, 631680, Note_on_c, 8, 42, 105
10, 632064, Note_on_c, 8, 42, 0
10, 635520, Note_on_c, 8, 43, 58
10, 636288, Note_on_c, 8, 43, 0
10, 637440, Note_on_c, 8, 43, 58
10, 638208, Note_on_c, 8, 43, 0
10, 638880, Note_on_c, 8, 43, 105
10, 639168, Note_on_c, 8, 43, 0
10, 639360, Note_on_c, 8, 42, 105
10, 639648, Note_on_c, 8, 42, 0
10, 639840, Note_on_c, 8, 43, 105
10, 640128, Note_on_c, 8, 43, 0
10, 640320, Note_on_c, 8, 42, 105
10, 640608, Note_on_c, 8, 42, 0
10, 640800, Note_on_c, 8, 43, 105
10, 641088, Note_on_c, 8, 43, 0
10, 641280, Note_on_c, 8, 42, 105
10, 642048, Note_on_c, 8, 42, 0
10, 643200, Note_on_c, 8, 36, 58
10, 643968, Note_on_c, 8, 36, 0
10, 645120, Note_on_c, 8, 38, 58
10, 645888, Note_on_c, 8, 38, 0
10, 646560, Note_on_c, 8, 38, 105
10, 646848, Note_on_c, 8, 38, 0
10, 647040, Note_on_c, 8, 43, 105
10, 647328, Note_on_c, 8, 43, 0
10, 647520, Note_on_c, 8, 38, 105
10, 647808, Note_on_c, 8, 38, 0
10, 648000, Note_on_c, 8, 43, 105
10, 648288, Note_on_c, 8, 43, 0
10, 648480, Note_on_c, 8, 38, 105
10, 648768, Note_on_c, 8, 38, 0
10, 648960, Note_on_c, 8, 43, 105
10, 649728, Note_on_c, 8, 43, 0
10, 650400, Note_on_c, 8, 38, 105
10, 650688, Note_on_c, 8, 38, 0
10, 650880, Note_on_c, 8, 38, 105
10, 651648, Note_on_c, 8, 38, 0
10, 654240, Note_on_c, 8, 38, 105
10, 654528, Note_on_c, 8, 38, 0
10, 654720, Note_on_c, 8, 38, 105
10, 655488, Note_on_c, 8, 38, 0
10, 658560, Note_on_c, 8, 36, 58
10, 659328, Note_on_c, 8, 36, 0
10, 660480, Note_on_c, 8, 38, 58
10, 661248, Note_on_c, 8, 38, 0
10, 661920, Note_on_c, 8, 38, 105
10, 662208, Note_on_c, 8, 38, 0
10, 662400, Note_on_c, 8, 43, 105
10, 662688, Note_on_c, 8, 43, 0
10, 662880, Note_on_c, 8, 38, 105
10, 663168, Note_on_c, 8, 38, 0
10, 663360, Note_on_c, 8, 43, 105
10, 663648, Note_on_c, 8, 43, 0
10, 663840, Note_on_c, 8, 38, 105
10, 664128, Note_on_c, 8, 38, 0
10, 664320, Note_on_c, 8, 43, 105
10, 665088, Note_on_c, 8, 43, 0
10, 666240, Note_on_c, 8, 39, 105
10, 666528, Note_on_c, 8, 39, 0
10, 666720, Note_on_c, 8, 41, 105
10, 667008, Note_on_c, 8, 41, 0
10, 667200, Note_on_c, 8, 39, 105
10, 667488, Note_on_c, 8, 39, 0
10, 667680, Note_on_c, 8, 41, 105
10, 667968, Note_on_c, 8, 41, 0
10, 668160, Note_on_c, 8, 39, 105
10, 668928, Note_on_c, 8, 39, 0
10, 670080, Note_on_c, 8, 38, 105
10, 670368, Note_on_c, 8, 38, 0
10, 670560, Note_on_c, 8, 39, 105
10, 670848, Note_on_c, 8, 39, 0
10, 671040, Note_on_c, 8, 38, 105
10, 671328, Note_on_c, 8, 38, 0
10, 671520, Note_on_c, 8, 39, 105
10, 671808, Note_on_c, 8, 39, 0
10, 672000, Note_on_c, 8, 38, 105
10, 672768, Note_on_c, 8, 38, 0
10, 673920, Note_on_c, 8, 31, 105
10, 674208, Note_on_c, 8, 31, 0
10, 674400, Note_on_c, 8, 30, 105
10, 674688, Note_on_c, 8, 30, 0
10, 674880, Note_on_c, 8, 31, 105
10, 675168, Note_on_c, 8, 31, 0
10, 675360, Note_on_c, 8, 30, 105
10, 675648, Note_on_c, 8, 30, 0
10, 675840, Note_on_c, 8, 31, 105
10, 676608, Note_on_c, 8, 31, 0
10, 677760, Note_on_c, 8, 48, 105
10, 678000, Note_on_c, 8, 48, 0
10, 678000, Note_on_c, 8, 51, 105
10, 678144, Note_on_c, 8, 51, 0
10, 678240, Note_on_c, 8, 50, 105
10, 678384, Note_on_c, 8, 50, 0
10, 678480, Note_on_c, 8, 47, 105
10, 678624, Note_on_c, 8, 47, 0
10, 678720, Note_on_c, 8, 48, 105
10, 678960, Note_on_c, 8, 48, 0
10, 678960, Note_on_c, 8, 51, 105
10, 679104, Note_on_c, 8, 51, 0
10, 679200, Note_on_c, 8, 50, 105
10, 679344, Note_on_c, 8, 50, 0
10, 679440, Note_on_c, 8, 47, 105
10, 679584, Note_on_c, 8, 47, 0
10, 679680, Note_on_c, 8, 48, 105
10, 679872, Note_on_c, 8, 48, 0
10, 679920, Note_on_c, 8, 51, 105
10, 680112, Note_on_c, 8, 51, 0
10, 680160, Note_on_c, 8, 55, 105
10, 680352, Note_on_c, 8, 55, 0
10, 680400, Note_on_c, 8, 53, 105
10, 680592, Note_on_c, 8, 53, 0
10, 680640, Note_on_c, 8, 51, 105
10, 680832, Note_on_c, 8, 51, 0
10, 680880, Note_on_c, 8, 50, 105
10, 681072, Note_on_c, 8, 50, 0
10, 681120, Note_on_c, 8, 48, 105
10, 681312, Note_on_c, 8, 48, 0
10, 681360, Note_on_c, 8, 46, 105
10, 681552, Note_on_c, 8, 46, 0
10, 681600, Note_on_c, 8, 45, 105
10, 681840, Note_on_c, 8, 45, 0
10, 681840, Note_on_c, 8, 48, 105
10, 681984, Note_on_c, 8, 48, 0
10, 682080, Note_on_c, 8, 46, 105
10, 682224, Note_on_c, 8, 46, 0
10, 682320, Note_on_c, 8, 48, 105
10, 682464, Note_on_c, 8, 48, 0
10, 682560, Note_on_c, 8, 45, 105
10, 682800, Note_on_c, 8, 45, 0
10, 682800, Note_on_c, 8, 48, 105
10, 682944, Note_on_c, 8, 48, 0
10, 683040, Note_on_c, 8, 46, 105
10, 683184, Note_on_c, 8, 46, 0
10, 683280, Note_on_c, 8, 48, 105
10, 683424, Note_on_c, 8, 48, 0
10, 683520, Note_on_c, 8, 45, 105
10, 683712, Note_on_c, 8, 45, 0
10, 683760, Note_on_c, 8, 48, 105
10, 683952, Note_on_c, 8, 48, 0
10, 684000, Note_on_c, 8, 51, 105
10, 684192, Note_on_c, 8, 51, 0
10, 684240, Note_on_c, 8, 50, 105
10, 684432, Note_on_c, 8, 50, 0
10, 684480, Note_on_c, 8, 48, 105
10, 684672, Note_on_c, 8, 48, 0
10, 684720, Note_on_c, 8, 46, 105
10, 684912, Note_on_c, 8, 46, 0
10, 684960, Note_on_c, 8, 45, 105
10, 685152, Note_on_c, 8, 45, 0
10, 685200, Note_on_c, 8, 43, 105
10, 685392, Note_on_c, 8, 43, 0
10, 685440, Note_on_c, 8, 42, 105
10, 685680, Note_on_c, 8, 42, 0
10, 685680, Note_on_c, 8, 45, 105
10, 685824, Note_on_c, 8, 45, 0
10, 685920, Note_on_c, 8, 43, 105
10, 686064, Note_on_c, 8, 43, 0
10, 686160, Note_on_c, 8, 45, 105
10, 686304, Note_on_c, 8, 45, 0
10, 686400, Note_on_c, 8, 42, 105
10, 686640, Note_on_c, 8, 42, 0
10, 686640, Note_on_c, 8, 45, 105
10, 686784, Note_on_c, 8, 45, 0
10, 686880, Note_on_c, 8, 43, 105
10, 687024, Note_on_c, 8, 43, 0
10, 687120, Note_on_c, 8, 45, 105
10, 687264, Note_on_c, 8, 45, 0
10, 687360, Note_on_c, 8, 42, 105
10, 687552, Note_on_c, 8, 42, 0
10, 687600, Note_on_c, 8, 43, 105
10, 687792, Note_on_c, 8, 43, 0
10, 687840, Note_on_c, 8, 45, 105
10, 688032, Note_on_c, 8, 45, 0
10, 688080, Note_on_c, 8, 43, 105
10, 688272, Note_on_c, 8, 43, 0
10, 688320, Note_on_c, 8, 42, 105
10, 688512, Note_on_c, 8, 42, 0
10, 688560, Note_on_c, 8, 38, 105
10, 688752, Note_on_c, 8, 38, 0
10, 688800, Note_on_c, 8, 40, 105
10, 688992, Note_on_c, 8, 40, 0
10, 689040, Note_on_c, 8, 42, 105
10, 689232, Note_on_c, 8, 42, 0
10, 689280, Note_on_c, 8, 43, 105
10, 689568, Note_on_c, 8, 43, 0
10, 689760, Note_on_c, 8, 42, 105
10, 690048, Note_on_c, 8, 42, 0
10, 690240, Note_on_c, 8, 43, 105
10, 690528, Note_on_c, 8, 43, 0
10, 690720, Note_on_c, 8, 42, 105
10, 691008, Note_on_c, 8, 42, 0
10, 691200, Note_on_c, 8, 43, 105
10, 691968, Note_on_c, 8, 43, 0
10, 692640, Note_on_c, 8, 50, 105
10, 692928, Note_on_c, 8, 50, 0
10, 693120, Note_on_c, 8, 51, 105
10, 693408, Note_on_c, 8, 51, 0
10, 693600, Note_on_c, 8, 50, 105
10, 693888, Note_on_c, 8, 50, 0
10, 694080, Note_on_c, 8, 51, 105
10, 694368, Note_on_c, 8, 51, 0
10, 694560, Note_on_c, 8, 50, 105
10, 694848, Note_on_c, 8, 50, 0
10, 695040, Note_on_c, 8, 51, 105
10, 695808, Note_on_c, 8, 51, 0
10, 696480, Note_on_c, 8, 47, 105
10, 696768, Note_on_c, 8, 47, 0
10, 696960, Note_on_c, 8, 48, 105
10, 697728, Note_on_c, 8, 48, 0
10, 698400, Note_on_c, 8, 41, 105
10, 698688, Note_on_c, 8, 41, 0
10, 698880, Note_on_c, 8, 39, 105
10, 699648, Note_on_c, 8, 39, 0
10, 700320, Note_on_c, 8, 37, 105
10, 700704, Note_on_c, 8, 37, 0
10, 700800, Note_on_c, 8, 38, 105
10, 701184, Note_on_c, 8, 38, 0
10, 701280, Note_on_c, 8, 50, 105
10, 701664, Note_on_c, 8, 50, 0
10, 701760, Note_on_c, 8, 50, 105
10, 702144, Note_on_c, 8, 50, 0
10, 702240, Note_on_c, 8, 50, 105
10, 702624, Note_on_c, 8, 50, 0
10, 702720, Note_on_c, 8, 50, 105
10, 703104, Note_on_c, 8, 50, 0
10, 703200, Note_on_c, 8, 50, 105
10, 703584, Note_on_c, 8, 50, 0
10, 703680, Note_on_c, 8, 50, 105
10, 704064, Note_on_c, 8, 50, 0
10, 704160, Note_on_c, 8, 50, 105
10, 704544, Note_on_c, 8, 50, 0
10, 704640, Note_on_c, 8, 50, 105
10, 705024, Note_on_c, 8, 50, 0
10, 705120, Note_on_c, 8, 50, 105
10, 705504, Note_on_c, 8, 50, 0
10, 705600, Note_on_c, 8, 50, 105
10, 705984, Note_on_c, 8, 50, 0
10, 706080, Note_on_c, 8, 50, 105
10, 706464, Note_on_c, 8, 50, 0
10, 706560, Note_on_c, 8, 50, 105
10, 706944, Note_on_c, 8, 50, 0
10, 707040, Note_on_c, 8, 50, 105
10, 707424, Note_on_c, 8, 50, 0
10, 707520, Note_on_c, 8, 50, 105
10, 707904, Note_on_c, 8, 50, 0
10, 708000, Note_on_c, 8, 50, 105
10, 708384, Note_on_c, 8, 50, 0
10, 708480, Note_on_c, 8, 50, 105
10, 708864, Note_on_c, 8, 50, 0
10, 709440, Note_on_c, 8, 50, 105
10, 709824, Note_on_c, 8, 50, 0
10, 710400, Note_on_c, 8, 38, 105
10, 711168, Note_on_c, 8, 38, 0
10, 743040, Note_on_c, 8, 31, 58
10, 750624, Note_on_c, 8, 31, 0
10, 750720, Note_on_c, 8, 36, 58
10, 751104, Note_on_c, 8, 36, 0
10, 754560, Note_on_c, 8, 38, 58
10, 755040, Note_on_c, 8, 38, 0
10, 755040, Note_on_c, 8, 37, 58
10, 755520, Note_on_c, 8, 37, 0
10, 755520, Note_on_c, 8, 38, 58
10, 756000, Note_on_c, 8, 38, 0
10, 756000, Note_on_c, 8, 37, 58
10, 756480, Note_on_c, 8, 37, 0
10, 756480, Note_on_c, 8, 38, 58
10, 756864, Note_on_c, 8, 38, 0
10, 758880, Note_on_c, 8, 43, 58
10, 759360, Note_on_c, 8, 43, 0
10, 759360, Note_on_c, 8, 45, 58
10, 759840, Note_on_c, 8, 45, 0
10, 759840, Note_on_c, 8, 43, 58
10, 760320, Note_on_c, 8, 43, 0
10, 760320, Note_on_c, 8, 42, 58
10, 760800, Note_on_c, 8, 42, 0
10, 760800, Note_on_c, 8, 41, 58
10, 761280, Note_on_c, 8, 41, 0
10, 761280, Note_on_c, 8, 43, 58
10, 761760, Note_on_c, 8, 43, 0
10, 761760, Note_on_c, 8, 41, 58
10, 762144, Note_on_c, 8, 41, 0
10, 762240, Note_on_c, 8, 40, 58
10, 764160, Note_on_c, 8, 40, 0
10, 764160, Note_on_c, 8, 39, 58
10, 765120, Note_on_c, 8, 39, 0
10, 765120, Note_on_c, 8, 38, 58
10, 765888, Note_on_c, 8, 38, 0
10, 766080, Note_on_c, 8, 36, 58
10, 766464, Note_on_c, 8, 36, 0
10, 766560, Note_on_c, 8, 36, 58
10, 766944, Note_on_c, 8, 36, 0
10, 767040, Note_on_c, 8, 36, 58
10, 767424, Note_on_c, 8, 36, 0
10, 767520, Note_on_c, 8, 36, 58
10, 767904, Note_on_c, 8, 36, 0
10, 768000, Note_on_c, 8, 38, 58
10, 768384, Note_on_c, 8, 38, 0
10, 768480, Note_on_c, 8, 38, 58
10, 768864, Note_on_c, 8, 38, 0
10, 768960, Note_on_c, 8, 38, 58
10, 769344, Note_on_c, 8, 38, 0
10, 769440, Note_on_c, 8, 38, 58
10, 769824, Note_on_c, 8, 38, 0
10, 769920, Note_on_c, 8, 31, 105
10, 770688, Note_on_c, 8, 31, 0
10, 771840, Note_on_c, 8, 46, 105
10, 772176, Note_on_c, 8, 46, 0
10, 772320, Note_on_c, 8, 48, 105
10, 772656, Note_on_c, 8, 48, 0
10, 772800, Note_on_c, 8, 46, 105
10, 773136, Note_on_c, 8, 46, 0
10, 773280, Note_on_c, 8, 48, 105
10, 773616, Note_on_c, 8, 48, 0
10, 773760, Note_on_c, 8, 46, 105
10, 774624, Note_on_c, 8, 46, 0
10, 775680, Note_on_c, 8, 46, 105
10, 776016, Note_on_c, 8, 46, 0
10, 776160, Note_on_c, 8, 48, 105
10, 776496, Note_on_c, 8, 48, 0
10, 776640, Note_on_c, 8, 46, 105
10, 776976, Note_on_c, 8, 46, 0
10, 777120, Note_on_c, 8, 48, 105
10, 777456, Note_on_c, 8, 48, 0
10, 777600, Note_on_c, 8, 46, 105
10, 778464, Note_on_c, 8, 46, 0
10, 779520, Note_on_c, 8, 46, 105
10, 779856, Note_on_c, 8, 46, 0
10, 780000, Note_on_c, 8, 48, 105
10, 780336, Note_on_c, 8, 48, 0
10, 780480, Note_on_c, 8, 46, 105
10, 780816, Note_on_c, 8, 46, 0
10, 780960, Note_on_c, 8, 48, 105
10, 781296, Note_on_c, 8, 48, 0
10, 781440, Note_on_c, 8, 46, 105
10, 781824, Note_on_c, 8, 46, 0
10, 782400, Note_on_c, 8, 48, 105
10, 782784, Note_on_c, 8, 48, 0
10, 783360, Note_on_c, 8, 50, 105
10, 783744, Note_on_c, 8, 50, 0
10, 784320, Note_on_c, 8, 38, 105
10, 784704, Note_on_c, 8, 38, 0
10, 785280, Note_on_c, 8, 43, 92
10, 785664, Note_on_c, 8, 43, 0
10, 787200, Note_on_c, 8, 34, 58
10, 787584, Note_on_c, 8, 34, 0
10, 787680, Note_on_c, 8, 36, 58
10, 788064, Note_on_c, 8, 36, 0
10, 788160, Note_on_c, 8, 34, 58
10, 788544, Note_on_c, 8, 34, 0
10, 788640, Note_on_c, 8, 36, 58
10, 789024, Note_on_c, 8, 36, 0
10, 789120, Note_on_c, 8, 34, 58
10, 789504, Note_on_c, 8, 34, 0
10, 791040, Note_on_c, 8, 34, 58
10, 791424, Note_on_c, 8, 34, 0
10, 791520, Note_on_c, 8, 36, 58
10, 791904, Note_on_c, 8, 36, 0
10, 792000, Note_on_c, 8, 34, 58
10, 792384, Note_on_c, 8, 34, 0
10, 792480, Note_on_c, 8, 36, 58
10, 792864, Note_on_c, 8, 36, 0
10, 792960, Note_on_c, 8, 34, 58
10, 793344, Note_on_c, 8, 34, 0
10, 794880, Note_on_c, 8, 34, 105
10, 795216, Note_on_c, 8, 34, 0
10, 795360, Note_on_c, 8, 36, 105
10, 795696, Note_on_c, 8, 36, 0
10, 795840, Note_on_c, 8, 34, 105
10, 796176, Note_on_c, 8, 34, 0
10, 796320, Note_on_c, 8, 36, 105
10, 796656, Note_on_c, 8, 36, 0
10, 796800, Note_on_c, 8, 34, 105
10, 797136, Note_on_c, 8, 34, 0
10, 797280, Note_on_c, 8, 36, 105
10, 797616, Note_on_c, 8, 36, 0
10, 797760, Note_on_c, 8, 34, 105
10, 798096, Note_on_c, 8, 34, 0
10, 798240, Note_on_c, 8, 36, 105
10, 798576, Note_on_c, 8, 36, 0
10, 798720, Note_on_c, 8, 34, 105
10, 799056, Note_on_c, 8, 34, 0
10, 799200, Note_on_c, 8, 36, 105
10, 799536, Note_on_c, 8, 36, 0
10, 799680, Note_on_c, 8, 34, 105
10, 800016, Note_on_c, 8, 34, 0
10, 800160, Note_on_c, 8, 36, 105
10, 800496, Note_on_c, 8, 36, 0
10, 800640, Note_on_c, 8, 35, 116
10, 800808, Note_on_c, 8, 35, 0
10, 800880, Note_on_c, 8, 36, 116
10, 801048, Note_on_c, 8, 36, 0
10, 801120, Note_on_c, 8, 38, 116
10, 801288, Note_on_c, 8, 38, 0
10, 801360, Note_on_c, 8, 39, 116
10, 801528, Note_on_c, 8, 39, 0
10, 801600, Note_on_c, 8, 41, 116
10, 801768, Note_on_c, 8, 41, 0
10, 801840, Note_on_c, 8, 43, 116
10, 802008, Note_on_c, 8, 43, 0
10, 802080, Note_on_c, 8, 45, 116
10, 802248, Note_on_c, 8, 45, 0
10, 802320, Note_on_c, 8, 47, 116
10, 802488, Note_on_c, 8, 47, 0
10, 802560, Note_on_c, 8, 48, 116
10, 804384, Note_on_c, 8, 48, 0
10, 804480, Note_on_c, 8, 38, 116
10, 805152, Note_on_c, 8, 38, 0
10, 805440, Note_on_c, 8, 39, 116
10, 806112, Note_on_c, 8, 39, 0
10, 806400, Note_on_c, 8, 36, 116
10, 807072, Note_on_c, 8, 36, 0
10, 807360, Note_on_c, 8, 38, 116
10, 808032, Note_on_c, 8, 38, 0
10, 808320, Note_on_c, 8, 35, 116
10, 808488, Note_on_c, 8, 35, 0
10, 808560, Note_on_c, 8, 36, 116
10, 808728, Note_on_c, 8, 36, 0
10, 808800, Note_on_c, 8, 38, 116
10, 808968, Note_on_c, 8, 38, 0
10, 809040, Note_on_c, 8, 39, 116
10, 809208, Note_on_c, 8, 39, 0
10, 809280, Note_on_c, 8, 41, 116
10, 809448, Note_on_c, 8, 41, 0
10, 809520, Note_on_c, 8, 43, 116
10, 809688, Note_on_c, 8, 43, 0
10, 809760, Note_on_c, 8, 45, 116
10, 809928, Note_on_c, 8, 45, 0
10, 810000, Note_on_c, 8, 47, 116
10, 810168, Note_on_c, 8, 47, 0
10, 810240, Note_on_c, 8, 48, 116
10, 812064, Note_on_c, 8, 48, 0
10, 812160, Note_on_c, 8, 38, 116
10, 812832, Note_on_c, 8, 38, 0
10, 813120, Note_on_c, 8, 39, 116
10, 813792, Note_on_c, 8, 39, 0
10, 814080, Note_on_c, 8, 36, 116
10, 814752, Note_on_c, 8, 36, 0
10, 815040, Note_on_c, 8, 38, 116
10, 815712, Note_on_c, 8, 38, 0
10, 816000, Note_on_c, 8, 31, 127
10, 816168, Note_on_c, 8, 31, 0
10, 816240, Note_on_c, 8, 33, 116
10, 816408, Note_on_c, 8, 33, 0
10, 816480, Note_on_c, 8, 34, 116
10, 816648, Note_on_c, 8, 34, 0
10, 816720, Note_on_c, 8, 36, 116
10, 816888, Note_on_c, 8, 36, 0
10, 816960, Note_on_c, 8, 38, 116
10, 817128, Note_on_c, 8, 38, 0
10, 817200, Note_on_c, 8, 40, 116
10, 817368, Note_on_c, 8, 40, 0
10, 817440, Note_on_c, 8, 42, 116
10, 817608, Note_on_c, 8, 42, 0
10, 817680, Note_on_c, 8, 43, 116
10, 817848, Note_on_c, 8, 43, 0
10, 817920, Note_on_c, 8, 38, 116
10, 818688, Note_on_c, 8, 38, 0
10, 819600, Note_on_c, 8, 26, 116
10, 819792, Note_on_c, 8, 26, 0
10, 819840, Note_on_c, 8, 31, 127
10, 820008, Note_on_c, 8, 31, 0
10, 820080, Note_on_c, 8, 33, 116
10, 820248, Note_on_c, 8, 33, 0
10, 820320, Note_on_c, 8, 34, 116
10, 820488, Note_on_c, 8, 34, 0
10, 820560, Note_on_c, 8, 36, 116
10, 820728, Note_on_c, 8, 36, 0
10, 820800, Note_on_c, 8, 38, 116
10, 820968, Note_on_c, 8, 38, 0
10, 821040, Note_on_c, 8, 40, 116
10, 821208, Note_on_c, 8, 40, 0
10, 821280, Note_on_c, 8, 42, 116
10, 821448, Note_on_c, 8, 42, 0
10, 821520, Note_on_c, 8, 43, 116
10, 821688, Note_on_c, 8, 43, 0
10, 821760, Note_on_c, 8, 38, 116
10, 822528, Note_on_c, 8, 38, 0
10, 823440, Note_on_c, 8, 26, 116
10, 823632, Note_on_c, 8, 26, 0
10, 823680, Note_on_c, 8, 31, 127
10, 823848, Note_on_c, 8, 31, 0
10, 823920, Note_on_c, 8, 33, 116
10, 824088, Note_on_c, 8, 33, 0
10, 824160, Note_on_c, 8, 34, 116
10, 824328, Note_on_c, 8, 34, 0
10, 824400, Note_on_c, 8, 36, 116
10, 824568, Note_on_c, 8, 36, 0
10, 824640, Note_on_c, 8, 38, 116
10, 824808, Note_on_c, 8, 38, 0
10, 824880, Note_on_c, 8, 40, 116
10, 825048, Note_on_c, 8, 40, 0
10, 825120, Note_on_c, 8, 42, 116
10, 825288, Note_on_c, 8, 42, 0
10, 825360, Note_on_c, 8, 43, 116
10, 825528, Note_on_c, 8, 43, 0
10, 825600, Note_on_c, 8, 38, 116
10, 826368, Note_on_c, 8, 38, 0
10, 827280, Note_on_c, 8, 26, 116
10, 827472, Note_on_c, 8, 26, 0
10, 827520, Note_on_c, 8, 31, 116
10, 827904, Note_on_c, 8, 31, 0
10, 828480, Note_on_c, 8, 43, 116
10, 828864, Note_on_c, 8, 43, 0
10, 829440, Note_on_c, 8, 31, 116
10, 830400, Note_on_c, 8, 31, 0
10, 833280, Note_on_c, 8, 17, 1
10, 834048, Note_on_c, 8, 17, 0
10, 834048, End_track
0, 0, End_of_file