0, 0, Header, 1, 15, 120
1, 0, Start_track
1, 0, Key_signature, -3, "major"
1, 0, System_exclusive, 0A, 41, 10, 42, 12, 40, 00, 7F, 00, 41, F7
1, 0, System_exclusive, 0A, 41, 10, 42, 12, 40, 01, 30, 03, 0C, F7
1, 0, System_exclusive, 26, 41, 10, 45, 12, 10, 00, 00, 43, 6F, 70, 79, 72, 69, 67, 68, 74, 20, 31, 39, 39, 39, 2C, 20, 4A, 20, 43, 20, 57, 61, 68, 6C, 73, 74, 72, 6F, 6D, 61, F7
1, 0, Time_signature, 4, 2, 24, 8
1, 0, Tempo, 300000
1, 480, Tempo, 1000000
1, 7320, Tempo, 1200000
1, 7440, Tempo, 1500000
1, 7650, Tempo, 6000000
1, 7680, Tempo, 1000000
1, 17220, Tempo, 1200000
1, 17460, Tempo, 1500000
1, 17760, Tempo, 1200000
1, 17880, Tempo, 1000000
1, 18480, Tempo, 1176471
1, 18600, Tempo, 1333333
1, 18720, Tempo, 1000000
1, 35280, Tempo, 2000000
1, 35490, Tempo, 6000000
1, 35520, Tempo, 1000000
1, 42480, Tempo, 1052632
1, 42600, Tempo, 1200000
1, 42660, Tempo, 1428571
1, 42720, Tempo, 1333333
1, 42720, End_track
2, 0, Start_track
2, 0, MIDI_port, 0
2, 0, Title_t, "Piano rh"
2, 20, Control_c, 0, 121, 0
2, 21, Control_c, 0, 11, 127
2, 21, Control_c, 0, 7, 127
2, 22, Control_c, 0, 93, 10
2, 22, Control_c, 0, 91, 79
2, 25, Control_c, 0, 10, 74
2, 26, Pitch_bend_c, 0, 8192
2, 27, Control_c, 0, 0, 0
2, 28, Control_c, 0, 32, 0
2, 29, Program_c, 0, 0
2, 480, Note_on_c, 0, 70, 45
2, 591, Note_on_c, 0, 70, 0
2, 603, Note_on_c, 0, 70, 50
2, 674, Note_on_c, 0, 70, 0
2, 687, Note_on_c, 0, 70, 54
2, 710, Note_on_c, 0, 70, 0
2, 720, Note_on_c, 0, 70, 56
2, 777, Note_on_c, 0, 75, 45
2, 784, Note_on_c, 0, 70, 0
2, 802, Note_on_c, 0, 75, 0
2, 840, Note_on_c, 0, 75, 45
2, 957, Note_on_c, 0, 75, 0
2, 960, Note_on_c, 0, 79, 49
2, 960, Note_on_c, 0, 70, 40
2, 1006, Note_on_c, 0, 70, 0
2, 1018, Note_on_c, 0, 68, 42
2, 1018, Note_on_c, 0, 74, 52
2, 1025, Note_on_c, 0, 79, 0
2, 1062, Note_on_c, 0, 68, 0
2, 1074, Note_on_c, 0, 74, 0
2, 1080, Note_on_c, 0, 70, 45
2, 1080, Note_on_c, 0, 75, 55
2, 1135, Note_on_c, 0, 77, 59
2, 1137, Note_on_c, 0, 72, 48
2, 1139, Note_on_c, 0, 75, 0
2, 1172, Note_on_c, 0, 72, 0
2, 1177, Note_on_c, 0, 77, 0
2, 1193, Note_on_c, 0, 70, 0
2, 1200, Note_on_c, 0, 67, 45
2, 1200, Note_on_c, 0, 70, 55
2, 1259, Note_on_c, 0, 65, 45
2, 1262, Note_on_c, 0, 67, 0
2, 1287, Note_on_c, 0, 63, 38
2, 1289, Note_on_c, 0, 65, 0
2, 1321, Note_on_c, 0, 65, 29
2, 1322, Note_on_c, 0, 63, 0
2, 1408, Note_on_c, 0, 70, 0
2, 1413, Note_on_c, 0, 65, 0
2, 1438, Note_on_c, 0, 79, 55
2, 1551, Note_on_c, 0, 79, 0
2, 1560, Note_on_c, 0, 79, 55
2, 1633, Note_on_c, 0, 79, 0
2, 1649, Note_on_c, 0, 79, 55
2, 1684, Note_on_c, 0, 82, 69
2, 1688, Note_on_c, 0, 79, 0
2, 1771, Note_on_c, 0, 79, 55
2, 1776, Note_on_c, 0, 82, 0
2, 1800, Note_on_c, 0, 75, 45
2, 1807, Note_on_c, 0, 79, 0
2, 1865, Note_on_c, 0, 75, 0
2, 1920, Note_on_c, 0, 62, 42
2, 1953, Note_on_c, 0, 62, 0
2, 1980, Note_on_c, 0, 62, 40
2, 2020, Note_on_c, 0, 62, 0
2, 2040, Note_on_c, 0, 62, 39
2, 2075, Note_on_c, 0, 62, 0
2, 2100, Note_on_c, 0, 62, 37
2, 2139, Note_on_c, 0, 62, 0
2, 2160, Note_on_c, 0, 63, 35
2, 2270, Note_on_c, 0, 63, 0
2, 4320, Note_on_c, 0, 77, 35
2, 4439, Note_on_c, 0, 77, 0
2, 4440, Note_on_c, 0, 77, 45
2, 4499, Note_on_c, 0, 77, 0
2, 4500, Note_on_c, 0, 77, 50
2, 4559, Note_on_c, 0, 77, 0
2, 4560, Note_on_c, 0, 79, 55
2, 4679, Note_on_c, 0, 79, 0
2, 4680, Note_on_c, 0, 75, 35
2, 4779, Note_on_c, 0, 75, 0
2, 4800, Note_on_c, 0, 79, 42
2, 4919, Note_on_c, 0, 79, 0
2, 4920, Note_on_c, 0, 79, 49
2, 4979, Note_on_c, 0, 79, 0
2, 4980, Note_on_c, 0, 79, 54
2, 5039, Note_on_c, 0, 79, 0
2, 5040, Note_on_c, 0, 80, 57
2, 5159, Note_on_c, 0, 80, 0
2, 5160, Note_on_c, 0, 77, 41
2, 5279, Note_on_c, 0, 77, 0
2, 5280, Note_on_c, 0, 80, 55
2, 5399, Note_on_c, 0, 80, 0
2, 5400, Note_on_c, 0, 80, 55
2, 5459, Note_on_c, 0, 80, 0
2, 5460, Note_on_c, 0, 80, 45
2, 5519, Note_on_c, 0, 80, 0
2, 5520, Note_on_c, 0, 79, 55
2, 5639, Note_on_c, 0, 79, 0
2, 5640, Note_on_c, 0, 84, 62
2, 5699, Note_on_c, 0, 84, 0
2, 5700, Note_on_c, 0, 82, 53
2, 5759, Note_on_c, 0, 82, 0
2, 5760, Note_on_c, 0, 82, 59
2, 5819, Note_on_c, 0, 82, 0
2, 5820, Note_on_c, 0, 81, 53
2, 5879, Note_on_c, 0, 81, 0
2, 5880, Note_on_c, 0, 79, 50
2, 5939, Note_on_c, 0, 79, 0
2, 5940, Note_on_c, 0, 81, 47
2, 5999, Note_on_c, 0, 81, 0
2, 6000, Note_on_c, 0, 82, 49
2, 6119, Note_on_c, 0, 82, 0
2, 6240, Note_on_c, 0, 77, 55
2, 6299, Note_on_c, 0, 77, 0
2, 6300, Note_on_c, 0, 87, 65
2, 6419, Note_on_c, 0, 87, 0
2, 6420, Note_on_c, 0, 81, 55
2, 6479, Note_on_c, 0, 81, 0
2, 6480, Note_on_c, 0, 82, 45
2, 6599, Note_on_c, 0, 82, 0
2, 6720, Note_on_c, 0, 77, 55
2, 6779, Note_on_c, 0, 77, 0
2, 6780, Note_on_c, 0, 87, 65
2, 6899, Note_on_c, 0, 87, 0
2, 6900, Note_on_c, 0, 81, 55
2, 6959, Note_on_c, 0, 81, 0
2, 6960, Note_on_c, 0, 82, 55
2, 7079, Note_on_c, 0, 82, 0
2, 7200, Note_on_c, 0, 81, 60
2, 7319, Note_on_c, 0, 81, 0
2, 7440, Note_on_c, 0, 80, 65
2, 7440, Note_on_c, 0, 74, 45
2, 7679, Note_on_c, 0, 74, 0
2, 7679, Note_on_c, 0, 80, 0
2, 7680, Note_on_c, 0, 70, 45
2, 7791, Note_on_c, 0, 70, 0
2, 7803, Note_on_c, 0, 70, 50
2, 7874, Note_on_c, 0, 70, 0
2, 7887, Note_on_c, 0, 70, 54
2, 7910, Note_on_c, 0, 70, 0
2, 7920, Note_on_c, 0, 70, 56
2, 7977, Note_on_c, 0, 75, 45
2, 7984, Note_on_c, 0, 70, 0
2, 8002, Note_on_c, 0, 75, 0
2, 8040, Note_on_c, 0, 75, 45
2, 8157, Note_on_c, 0, 75, 0
2, 8160, Note_on_c, 0, 79, 49
2, 8160, Note_on_c, 0, 70, 40
2, 8206, Note_on_c, 0, 70, 0
2, 8218, Note_on_c, 0, 68, 42
2, 8218, Note_on_c, 0, 74, 52
2, 8225, Note_on_c, 0, 79, 0
2, 8262, Note_on_c, 0, 68, 0
2, 8274, Note_on_c, 0, 74, 0
2, 8280, Note_on_c, 0, 70, 45
2, 8280, Note_on_c, 0, 75, 55
2, 8335, Note_on_c, 0, 77, 59
2, 8337, Note_on_c, 0, 72, 48
2, 8339, Note_on_c, 0, 75, 0
2, 8372, Note_on_c, 0, 72, 0
2, 8377, Note_on_c, 0, 77, 0
2, 8393, Note_on_c, 0, 70, 0
2, 8400, Note_on_c, 0, 65, 45
2, 8400, Note_on_c, 0, 70, 55
2, 8618, Note_on_c, 0, 70, 0
2, 8625, Note_on_c, 0, 65, 0
2, 8638, Note_on_c, 0, 79, 55
2, 8751, Note_on_c, 0, 79, 0
2, 8760, Note_on_c, 0, 79, 55
2, 8833, Note_on_c, 0, 79, 0
2, 8849, Note_on_c, 0, 79, 55
2, 8884, Note_on_c, 0, 82, 69
2, 8888, Note_on_c, 0, 79, 0
2, 8971, Note_on_c, 0, 79, 55
2, 8976, Note_on_c, 0, 82, 0
2, 9000, Note_on_c, 0, 75, 45
2, 9007, Note_on_c, 0, 79, 0
2, 9065, Note_on_c, 0, 75, 0
2, 9120, Note_on_c, 0, 62, 42
2, 9153, Note_on_c, 0, 62, 0
2, 9180, Note_on_c, 0, 62, 40
2, 9220, Note_on_c, 0, 62, 0
2, 9240, Note_on_c, 0, 62, 39
2, 9275, Note_on_c, 0, 62, 0
2, 9300, Note_on_c, 0, 62, 37
2, 9339, Note_on_c, 0, 62, 0
2, 9360, Note_on_c, 0, 63, 35
2, 9470, Note_on_c, 0, 63, 0
2, 11300, Note_on_c, 0, 67, 35
2, 11319, Note_on_c, 0, 67, 0
2, 11320, Note_on_c, 0, 69, 37
2, 11339, Note_on_c, 0, 69, 0
2, 11340, Note_on_c, 0, 70, 39
2, 11359, Note_on_c, 0, 70, 0
2, 11360, Note_on_c, 0, 71, 41
2, 11379, Note_on_c, 0, 71, 0
2, 11380, Note_on_c, 0, 72, 43
2, 11399, Note_on_c, 0, 72, 0
2, 11400, Note_on_c, 0, 73, 45
2, 11419, Note_on_c, 0, 73, 0
2, 11420, Note_on_c, 0, 74, 47
2, 11439, Note_on_c, 0, 74, 0
2, 11440, Note_on_c, 0, 75, 49
2, 11459, Note_on_c, 0, 75, 0
2, 11460, Note_on_c, 0, 76, 51
2, 11479, Note_on_c, 0, 76, 0
2, 11480, Note_on_c, 0, 77, 53
2, 11499, Note_on_c, 0, 77, 0
2, 11500, Note_on_c, 0, 78, 55
2, 11519, Note_on_c, 0, 78, 0
2, 11520, Note_on_c, 0, 79, 55
2, 11669, Note_on_c, 0, 79, 0
2, 11670, Note_on_c, 0, 77, 44
2, 11684, Note_on_c, 0, 77, 0
2, 11685, Note_on_c, 0, 75, 47
2, 11699, Note_on_c, 0, 75, 0
2, 11700, Note_on_c, 0, 77, 51
2, 11714, Note_on_c, 0, 77, 0
2, 11715, Note_on_c, 0, 75, 55
2, 11729, Note_on_c, 0, 75, 0
2, 11730, Note_on_c, 0, 74, 58
2, 11744, Note_on_c, 0, 74, 0
2, 11745, Note_on_c, 0, 72, 62
2, 11759, Note_on_c, 0, 72, 0
2, 11760, Note_on_c, 0, 71, 55
2, 11774, Note_on_c, 0, 71, 0
2, 11775, Note_on_c, 0, 74, 58
2, 11789, Note_on_c, 0, 74, 0
2, 11790, Note_on_c, 0, 77, 62
2, 11804, Note_on_c, 0, 77, 0
2, 11805, Note_on_c, 0, 80, 56
2, 11819, Note_on_c, 0, 80, 0
2, 11820, Note_on_c, 0, 80, 55
2, 11909, Note_on_c, 0, 80, 0
2, 11910, Note_on_c, 0, 79, 55
2, 11969, Note_on_c, 0, 79, 0
2, 11970, Note_on_c, 0, 77, 55
2, 11999, Note_on_c, 0, 77, 0
2, 12000, Note_on_c, 0, 75, 55
2, 12024, Note_on_c, 0, 75, 0
2, 12030, Note_on_c, 0, 77, 45
2, 12040, Note_on_c, 0, 75, 45
2, 12044, Note_on_c, 0, 77, 0
2, 12050, Note_on_c, 0, 74, 45
2, 12054, Note_on_c, 0, 75, 0
2, 12060, Note_on_c, 0, 75, 55
2, 12064, Note_on_c, 0, 74, 0
2, 12089, Note_on_c, 0, 75, 0
2, 12090, Note_on_c, 0, 77, 55
2, 12104, Note_on_c, 0, 77, 0
2, 12105, Note_on_c, 0, 79, 65
2, 12119, Note_on_c, 0, 79, 0
2, 12120, Note_on_c, 0, 79, 65
2, 12149, Note_on_c, 0, 79, 0
2, 12150, Note_on_c, 0, 77, 55
2, 12164, Note_on_c, 0, 77, 0
2, 12180, Note_on_c, 0, 77, 65
2, 12209, Note_on_c, 0, 77, 0
2, 12210, Note_on_c, 0, 75, 55
2, 12239, Note_on_c, 0, 75, 0
2, 12240, Note_on_c, 0, 77, 55
2, 12254, Note_on_c, 0, 77, 0
2, 12255, Note_on_c, 0, 75, 53
2, 12269, Note_on_c, 0, 75, 0
2, 12270, Note_on_c, 0, 74, 50
2, 12284, Note_on_c, 0, 74, 0
2, 12285, Note_on_c, 0, 75, 47
2, 12300, Note_on_c, 0, 74, 44
2, 12314, Note_on_c, 0, 75, 0
2, 12374, Note_on_c, 0, 74, 0
2, 12390, Note_on_c, 0, 74, 44
2, 12419, Note_on_c, 0, 74, 0
2, 12420, Note_on_c, 0, 79, 47
2, 12449, Note_on_c, 0, 79, 0
2, 12450, Note_on_c, 0, 74, 51
2, 12479, Note_on_c, 0, 74, 0
2, 12480, Note_on_c, 0, 75, 55
2, 12614, Note_on_c, 0, 75, 0
2, 12615, Note_on_c, 0, 78, 44
2, 12630, Note_on_c, 0, 81, 49
2, 12634, Note_on_c, 0, 78, 0
2, 12644, Note_on_c, 0, 81, 0
2, 12645, Note_on_c, 0, 84, 55
2, 12659, Note_on_c, 0, 84, 0
2, 12660, Note_on_c, 0, 87, 60
2, 12675, Note_on_c, 0, 84, 66
2, 12679, Note_on_c, 0, 87, 0
2, 12689, Note_on_c, 0, 84, 0
2, 12690, Note_on_c, 0, 81, 55
2, 12704, Note_on_c, 0, 81, 0
2, 12705, Note_on_c, 0, 75, 55
2, 12719, Note_on_c, 0, 75, 0
2, 12720, Note_on_c, 0, 74, 55
2, 12839, Note_on_c, 0, 74, 0
2, 12855, Note_on_c, 0, 79, 44
2, 12869, Note_on_c, 0, 79, 0
2, 12870, Note_on_c, 0, 82, 51
2, 12884, Note_on_c, 0, 82, 0
2, 12885, Note_on_c, 0, 79, 58
2, 12899, Note_on_c, 0, 79, 0
2, 12900, Note_on_c, 0, 86, 66
2, 12914, Note_on_c, 0, 86, 0
2, 12915, Note_on_c, 0, 82, 55
2, 12929, Note_on_c, 0, 82, 0
2, 12930, Note_on_c, 0, 79, 55
2, 12944, Note_on_c, 0, 79, 0
2, 12945, Note_on_c, 0, 74, 55
2, 12960, Note_on_c, 0, 75, 65
2, 12974, Note_on_c, 0, 74, 0
2, 12989, Note_on_c, 0, 75, 0
2, 12990, Note_on_c, 0, 79, 55
2, 13019, Note_on_c, 0, 79, 0
2, 13020, Note_on_c, 0, 75, 55
2, 13049, Note_on_c, 0, 75, 0
2, 13050, Note_on_c, 0, 72, 55
2, 13079, Note_on_c, 0, 72, 0
2, 13080, Note_on_c, 0, 70, 65
2, 13109, Note_on_c, 0, 70, 0
2, 13110, Note_on_c, 0, 74, 55
2, 13154, Note_on_c, 0, 74, 0
2, 13170, Note_on_c, 0, 66, 45
2, 13199, Note_on_c, 0, 66, 0
2, 13200, Note_on_c, 0, 69, 55
2, 13319, Note_on_c, 0, 69, 0
2, 13320, Note_on_c, 0, 67, 45
2, 13379, Note_on_c, 0, 67, 0
2, 15360, Note_on_c, 0, 63, 54
2, 15499, Note_on_c, 0, 63, 0
2, 15500, Note_on_c, 0, 67, 56
2, 15520, Note_on_c, 0, 70, 58
2, 15539, Note_on_c, 0, 70, 0
2, 15539, Note_on_c, 0, 67, 0
2, 15540, Note_on_c, 0, 75, 60
2, 15559, Note_on_c, 0, 75, 0
2, 15560, Note_on_c, 0, 79, 62
2, 15579, Note_on_c, 0, 79, 0
2, 15580, Note_on_c, 0, 82, 64
2, 15599, Note_on_c, 0, 82, 0
2, 15600, Note_on_c, 0, 82, 66
2, 15679, Note_on_c, 0, 82, 0
2, 15690, Note_on_c, 0, 80, 44
2, 15704, Note_on_c, 0, 80, 0
2, 15705, Note_on_c, 0, 79, 39
2, 15719, Note_on_c, 0, 79, 0
2, 15720, Note_on_c, 0, 77, 34
2, 15779, Note_on_c, 0, 77, 0
2, 15840, Note_on_c, 0, 60, 52
2, 15979, Note_on_c, 0, 60, 0
2, 15980, Note_on_c, 0, 63, 50
2, 15999, Note_on_c, 0, 63, 0
2, 16000, Note_on_c, 0, 67, 51
2, 16019, Note_on_c, 0, 67, 0
2, 16020, Note_on_c, 0, 72, 52
2, 16039, Note_on_c, 0, 72, 0
2, 16040, Note_on_c, 0, 75, 53
2, 16059, Note_on_c, 0, 75, 0
2, 16060, Note_on_c, 0, 79, 54
2, 16079, Note_on_c, 0, 79, 0
2, 16080, Note_on_c, 0, 79, 56
2, 16170, Note_on_c, 0, 77, 44
2, 16179, Note_on_c, 0, 79, 0
2, 16184, Note_on_c, 0, 77, 0
2, 16185, Note_on_c, 0, 75, 39
2, 16199, Note_on_c, 0, 75, 0
2, 16200, Note_on_c, 0, 74, 34
2, 16244, Note_on_c, 0, 74, 0
2, 16320, Note_on_c, 0, 68, 44
2, 16439, Note_on_c, 0, 68, 0
2, 16455, Note_on_c, 0, 71, 51
2, 16469, Note_on_c, 0, 71, 0
2, 16470, Note_on_c, 0, 74, 52
2, 16484, Note_on_c, 0, 74, 0
2, 16485, Note_on_c, 0, 77, 52
2, 16499, Note_on_c, 0, 77, 0
2, 16500, Note_on_c, 0, 80, 53
2, 16514, Note_on_c, 0, 80, 0
2, 16515, Note_on_c, 0, 83, 54
2, 16529, Note_on_c, 0, 83, 0
2, 16530, Note_on_c, 0, 86, 55
2, 16544, Note_on_c, 0, 86, 0
2, 16545, Note_on_c, 0, 89, 56
2, 16559, Note_on_c, 0, 89, 0
2, 16560, Note_on_c, 0, 87, 54
2, 16679, Note_on_c, 0, 87, 0
2, 16695, Note_on_c, 0, 84, 44
2, 16709, Note_on_c, 0, 84, 0
2, 16710, Note_on_c, 0, 81, 45
2, 16724, Note_on_c, 0, 81, 0
2, 16725, Note_on_c, 0, 78, 47
2, 16739, Note_on_c, 0, 78, 0
2, 16740, Note_on_c, 0, 75, 49
2, 16754, Note_on_c, 0, 75, 0
2, 16755, Note_on_c, 0, 72, 50
2, 16769, Note_on_c, 0, 72, 0
2, 16770, Note_on_c, 0, 69, 52
2, 16784, Note_on_c, 0, 69, 0
2, 16785, Note_on_c, 0, 66, 54
2, 16799, Note_on_c, 0, 66, 0
2, 16800, Note_on_c, 0, 67, 56
2, 16829, Note_on_c, 0, 67, 0
2, 16830, Note_on_c, 0, 72, 44
2, 16859, Note_on_c, 0, 72, 0
2, 16860, Note_on_c, 0, 75, 44
2, 16889, Note_on_c, 0, 75, 0
2, 16890, Note_on_c, 0, 79, 44
2, 16919, Note_on_c, 0, 79, 0
2, 16950, Note_on_c, 0, 77, 44
2, 16979, Note_on_c, 0, 77, 0
2, 17010, Note_on_c, 0, 74, 44
2, 17039, Note_on_c, 0, 74, 0
2, 17040, Note_on_c, 0, 74, 48
2, 17159, Note_on_c, 0, 74, 0
2, 17160, Note_on_c, 0, 72, 29
2, 17219, Note_on_c, 0, 72, 0
2, 17240, Note_on_c, 0, 74, 35
2, 17249, Note_on_c, 0, 74, 0
2, 17250, Note_on_c, 0, 72, 38
2, 17259, Note_on_c, 0, 72, 0
2, 17260, Note_on_c, 0, 71, 42
2, 17269, Note_on_c, 0, 71, 0
2, 17270, Note_on_c, 0, 72, 45
2, 17279, Note_on_c, 0, 72, 0
2, 17280, Note_on_c, 0, 75, 55
2, 17399, Note_on_c, 0, 75, 0
2, 17400, Note_on_c, 0, 74, 34
2, 17459, Note_on_c, 0, 74, 0
2, 17480, Note_on_c, 0, 79, 35
2, 17489, Note_on_c, 0, 79, 0
2, 17490, Note_on_c, 0, 77, 41
2, 17499, Note_on_c, 0, 77, 0
2, 17500, Note_on_c, 0, 76, 48
2, 17509, Note_on_c, 0, 76, 0
2, 17510, Note_on_c, 0, 77, 55
2, 17519, Note_on_c, 0, 77, 0
2, 17520, Note_on_c, 0, 82, 54
2, 17639, Note_on_c, 0, 82, 0
2, 17640, Note_on_c, 0, 80, 24
2, 17699, Note_on_c, 0, 80, 0
2, 17770, Note_on_c, 0, 80, 44
2, 17784, Note_on_c, 0, 80, 0
2, 17790, Note_on_c, 0, 84, 50
2, 17804, Note_on_c, 0, 84, 0
2, 17805, Note_on_c, 0, 82, 57
2, 17819, Note_on_c, 0, 82, 0
2, 17820, Note_on_c, 0, 80, 64
2, 17834, Note_on_c, 0, 80, 0
2, 17835, Note_on_c, 0, 79, 64
2, 17849, Note_on_c, 0, 79, 0
2, 17850, Note_on_c, 0, 77, 64
2, 17864, Note_on_c, 0, 77, 0
2, 17865, Note_on_c, 0, 76, 63
2, 17879, Note_on_c, 0, 76, 0
2, 17880, Note_on_c, 0, 79, 62
2, 17894, Note_on_c, 0, 79, 0
2, 17895, Note_on_c, 0, 77, 61
2, 17909, Note_on_c, 0, 77, 0
2, 17910, Note_on_c, 0, 80, 61
2, 17924, Note_on_c, 0, 80, 0
2, 17925, Note_on_c, 0, 79, 60
2, 17939, Note_on_c, 0, 79, 0
2, 17940, Note_on_c, 0, 77, 59
2, 17954, Note_on_c, 0, 77, 0
2, 17955, Note_on_c, 0, 75, 58
2, 17969, Note_on_c, 0, 75, 0
2, 17970, Note_on_c, 0, 74, 58
2, 17984, Note_on_c, 0, 74, 0
2, 17985, Note_on_c, 0, 72, 57
2, 17999, Note_on_c, 0, 72, 0
2, 18000, Note_on_c, 0, 75, 56
2, 18014, Note_on_c, 0, 75, 0
2, 18015, Note_on_c, 0, 74, 55
2, 18029, Note_on_c, 0, 74, 0
2, 18030, Note_on_c, 0, 77, 55
2, 18044, Note_on_c, 0, 77, 0
2, 18045, Note_on_c, 0, 75, 54
2, 18059, Note_on_c, 0, 75, 0
2, 18060, Note_on_c, 0, 74, 53
2, 18074, Note_on_c, 0, 74, 0
2, 18075, Note_on_c, 0, 72, 53
2, 18089, Note_on_c, 0, 72, 0
2, 18090, Note_on_c, 0, 70, 52
2, 18104, Note_on_c, 0, 70, 0
2, 18105, Note_on_c, 0, 69, 51
2, 18119, Note_on_c, 0, 69, 0
2, 18120, Note_on_c, 0, 70, 50
2, 18134, Note_on_c, 0, 70, 0
2, 18135, Note_on_c, 0, 71, 50
2, 18149, Note_on_c, 0, 71, 0
2, 18150, Note_on_c, 0, 72, 49
2, 18164, Note_on_c, 0, 72, 0
2, 18165, Note_on_c, 0, 70, 48
2, 18179, Note_on_c, 0, 70, 0
2, 18180, Note_on_c, 0, 68, 47
2, 18194, Note_on_c, 0, 68, 0
2, 18195, Note_on_c, 0, 67, 47
2, 18209, Note_on_c, 0, 67, 0
2, 18210, Note_on_c, 0, 65, 46
2, 18224, Note_on_c, 0, 65, 0
2, 18225, Note_on_c, 0, 63, 45
2, 18239, Note_on_c, 0, 63, 0
2, 18240, Note_on_c, 0, 62, 44
2, 18269, Note_on_c, 0, 62, 0
2, 18270, Note_on_c, 0, 63, 43
2, 18299, Note_on_c, 0, 63, 0
2, 18300, Note_on_c, 0, 64, 42
2, 18329, Note_on_c, 0, 64, 0
2, 18330, Note_on_c, 0, 65, 41
2, 18359, Note_on_c, 0, 65, 0
2, 18360, Note_on_c, 0, 66, 42
2, 18389, Note_on_c, 0, 66, 0
2, 18390, Note_on_c, 0, 67, 43
2, 18419, Note_on_c, 0, 67, 0
2, 18420, Note_on_c, 0, 68, 47
2, 18449, Note_on_c, 0, 68, 0
2, 18450, Note_on_c, 0, 69, 51
2, 18479, Note_on_c, 0, 69, 0
2, 18480, Note_on_c, 0, 72, 52
2, 18509, Note_on_c, 0, 72, 0
2, 18510, Note_on_c, 0, 70, 44
2, 18539, Note_on_c, 0, 70, 0
2, 18540, Note_on_c, 0, 69, 43
2, 18569, Note_on_c, 0, 69, 0
2, 18570, Note_on_c, 0, 70, 41
2, 18599, Note_on_c, 0, 70, 0
2, 18600, Note_on_c, 0, 69, 39
2, 18629, Note_on_c, 0, 69, 0
2, 18630, Note_on_c, 0, 70, 38
2, 18659, Note_on_c, 0, 70, 0
2, 18660, Note_on_c, 0, 72, 39
2, 18689, Note_on_c, 0, 72, 0
2, 18690, Note_on_c, 0, 70, 40
2, 18719, Note_on_c, 0, 70, 0
2, 18720, Note_on_c, 0, 70, 45
2, 18831, Note_on_c, 0, 70, 0
2, 18843, Note_on_c, 0, 70, 50
2, 18914, Note_on_c, 0, 70, 0
2, 18927, Note_on_c, 0, 70, 54
2, 18950, Note_on_c, 0, 70, 0
2, 18960, Note_on_c, 0, 70, 56
2, 19017, Note_on_c, 0, 75, 45
2, 19024, Note_on_c, 0, 70, 0
2, 19072, Note_on_c, 0, 75, 0
2, 19080, Note_on_c, 0, 75, 39
2, 19197, Note_on_c, 0, 75, 0
2, 19200, Note_on_c, 0, 79, 49
2, 19200, Note_on_c, 0, 70, 40
2, 19246, Note_on_c, 0, 70, 0
2, 19258, Note_on_c, 0, 68, 42
2, 19258, Note_on_c, 0, 74, 52
2, 19265, Note_on_c, 0, 79, 0
2, 19302, Note_on_c, 0, 68, 0
2, 19314, Note_on_c, 0, 74, 0
2, 19320, Note_on_c, 0, 70, 45
2, 19320, Note_on_c, 0, 75, 55
2, 19375, Note_on_c, 0, 77, 59
2, 19377, Note_on_c, 0, 72, 48
2, 19379, Note_on_c, 0, 75, 0
2, 19412, Note_on_c, 0, 72, 0
2, 19417, Note_on_c, 0, 77, 0
2, 19433, Note_on_c, 0, 70, 0
2, 19440, Note_on_c, 0, 67, 45
2, 19440, Note_on_c, 0, 70, 55
2, 19499, Note_on_c, 0, 65, 45
2, 19502, Note_on_c, 0, 67, 0
2, 19527, Note_on_c, 0, 63, 38
2, 19529, Note_on_c, 0, 65, 0
2, 19561, Note_on_c, 0, 65, 29
2, 19562, Note_on_c, 0, 63, 0
2, 19648, Note_on_c, 0, 70, 0
2, 19653, Note_on_c, 0, 65, 0
2, 19678, Note_on_c, 0, 79, 55
2, 19791, Note_on_c, 0, 79, 0
2, 19800, Note_on_c, 0, 79, 55
2, 19873, Note_on_c, 0, 79, 0
2, 19889, Note_on_c, 0, 79, 55
2, 19924, Note_on_c, 0, 82, 69
2, 19928, Note_on_c, 0, 79, 0
2, 20011, Note_on_c, 0, 79, 55
2, 20016, Note_on_c, 0, 82, 0
2, 20040, Note_on_c, 0, 75, 45
2, 20047, Note_on_c, 0, 79, 0
2, 20105, Note_on_c, 0, 75, 0
2, 20160, Note_on_c, 0, 62, 42
2, 20193, Note_on_c, 0, 62, 0
2, 20220, Note_on_c, 0, 62, 40
2, 20260, Note_on_c, 0, 62, 0
2, 20280, Note_on_c, 0, 62, 39
2, 20315, Note_on_c, 0, 62, 0
2, 20340, Note_on_c, 0, 62, 37
2, 20379, Note_on_c, 0, 62, 0
2, 20400, Note_on_c, 0, 63, 35
2, 20510, Note_on_c, 0, 63, 0
2, 22440, Note_on_c, 0, 75, 55
2, 22469, Note_on_c, 0, 75, 0
2, 22470, Note_on_c, 0, 73, 53
2, 22484, Note_on_c, 0, 73, 0
2, 22500, Note_on_c, 0, 73, 50
2, 22529, Note_on_c, 0, 73, 0
2, 22530, Note_on_c, 0, 72, 47
2, 22544, Note_on_c, 0, 72, 0
2, 22560, Note_on_c, 0, 72, 44
2, 22664, Note_on_c, 0, 72, 0
2, 22680, Note_on_c, 0, 77, 55
2, 22709, Note_on_c, 0, 77, 0
2, 22710, Note_on_c, 0, 75, 53
2, 22724, Note_on_c, 0, 75, 0
2, 22740, Note_on_c, 0, 75, 50
2, 22769, Note_on_c, 0, 75, 0
2, 22770, Note_on_c, 0, 73, 47
2, 22784, Note_on_c, 0, 73, 0
2, 22800, Note_on_c, 0, 73, 44
2, 22904, Note_on_c, 0, 73, 0
2, 22920, Note_on_c, 0, 73, 55
2, 22949, Note_on_c, 0, 73, 0
2, 22950, Note_on_c, 0, 72, 53
2, 22979, Note_on_c, 0, 72, 0
2, 22980, Note_on_c, 0, 75, 50
2, 23009, Note_on_c, 0, 75, 0
2, 23010, Note_on_c, 0, 73, 47
2, 23024, Note_on_c, 0, 73, 0
2, 23040, Note_on_c, 0, 73, 44
2, 23069, Note_on_c, 0, 73, 0
2, 23070, Note_on_c, 0, 85, 64
2, 23130, Note_on_c, 0, 82, 52
2, 23144, Note_on_c, 0, 85, 0
2, 23189, Note_on_c, 0, 82, 0
2, 23190, Note_on_c, 0, 79, 52
2, 23204, Note_on_c, 0, 79, 0
2, 23250, Note_on_c, 0, 73, 52
2, 23279, Note_on_c, 0, 73, 0
2, 23280, Note_on_c, 0, 71, 62
2, 23309, Note_on_c, 0, 71, 0
2, 23310, Note_on_c, 0, 72, 52
2, 23324, Note_on_c, 0, 72, 0
2, 23340, Note_on_c, 0, 72, 40
2, 23384, Note_on_c, 0, 72, 0
2, 23430, Note_on_c, 0, 70, 52
2, 23449, Note_on_c, 0, 70, 0
2, 23460, Note_on_c, 0, 82, 64
2, 23534, Note_on_c, 0, 82, 0
2, 23535, Note_on_c, 0, 84, 62
2, 23549, Note_on_c, 0, 84, 0
2, 23550, Note_on_c, 0, 82, 61
2, 23564, Note_on_c, 0, 82, 0
2, 23565, Note_on_c, 0, 80, 59
2, 23579, Note_on_c, 0, 80, 0
2, 23580, Note_on_c, 0, 79, 57
2, 23594, Note_on_c, 0, 79, 0
2, 23595, Note_on_c, 0, 77, 56
2, 23609, Note_on_c, 0, 77, 0
2, 23610, Note_on_c, 0, 75, 54
2, 23624, Note_on_c, 0, 75, 0
2, 23625, Note_on_c, 0, 74, 52
2, 23639, Note_on_c, 0, 74, 0
2, 23670, Note_on_c, 0, 70, 52
2, 23689, Note_on_c, 0, 70, 0
2, 23700, Note_on_c, 0, 82, 64
2, 23774, Note_on_c, 0, 82, 0
2, 23775, Note_on_c, 0, 84, 62
2, 23789, Note_on_c, 0, 84, 0
2, 23790, Note_on_c, 0, 82, 61
2, 23804, Note_on_c, 0, 82, 0
2, 23805, Note_on_c, 0, 80, 60
2, 23819, Note_on_c, 0, 80, 0
2, 23820, Note_on_c, 0, 79, 58
2, 23834, Note_on_c, 0, 79, 0
2, 23835, Note_on_c, 0, 77, 57
2, 23849, Note_on_c, 0, 77, 0
2, 23850, Note_on_c, 0, 75, 55
2, 23864, Note_on_c, 0, 75, 0
2, 23865, Note_on_c, 0, 74, 54
2, 23879, Note_on_c, 0, 74, 0
2, 23880, Note_on_c, 0, 75, 52
2, 23899, Note_on_c, 0, 75, 0
2, 23910, Note_on_c, 0, 77, 52
2, 23939, Note_on_c, 0, 77, 0
2, 23940, Note_on_c, 0, 79, 55
2, 23969, Note_on_c, 0, 79, 0
2, 23970, Note_on_c, 0, 80, 58
2, 23999, Note_on_c, 0, 80, 0
2, 24000, Note_on_c, 0, 82, 62
2, 24029, Note_on_c, 0, 82, 0
2, 24030, Note_on_c, 0, 79, 52
2, 24044, Note_on_c, 0, 79, 0
2, 24060, Note_on_c, 0, 77, 62
2, 24089, Note_on_c, 0, 77, 0
2, 24090, Note_on_c, 0, 80, 52
2, 24104, Note_on_c, 0, 80, 0
2, 24120, Note_on_c, 0, 79, 62
2, 24149, Note_on_c, 0, 79, 0
2, 24150, Note_on_c, 0, 75, 52
2, 24164, Note_on_c, 0, 75, 0
2, 24180, Note_on_c, 0, 74, 52
2, 24209, Note_on_c, 0, 74, 0
2, 24210, Note_on_c, 0, 77, 42
2, 24224, Note_on_c, 0, 77, 0
2, 24240, Note_on_c, 0, 75, 42
2, 24299, Note_on_c, 0, 75, 0
2, 26280, Note_on_c, 0, 75, 55
2, 26309, Note_on_c, 0, 75, 0
2, 26310, Note_on_c, 0, 73, 55
2, 26324, Note_on_c, 0, 73, 0
2, 26340, Note_on_c, 0, 73, 55
2, 26369, Note_on_c, 0, 73, 0
2, 26370, Note_on_c, 0, 72, 55
2, 26384, Note_on_c, 0, 72, 0
2, 26400, Note_on_c, 0, 72, 55
2, 26489, Note_on_c, 0, 72, 0
2, 26520, Note_on_c, 0, 78, 55
2, 26549, Note_on_c, 0, 78, 0
2, 26550, Note_on_c, 0, 77, 55
2, 26564, Note_on_c, 0, 77, 0
2, 26580, Note_on_c, 0, 77, 55
2, 26609, Note_on_c, 0, 77, 0
2, 26610, Note_on_c, 0, 75, 55
2, 26624, Note_on_c, 0, 75, 0
2, 26640, Note_on_c, 0, 75, 55
2, 26669, Note_on_c, 0, 75, 0
2, 26670, Note_on_c, 0, 74, 55
2, 26699, Note_on_c, 0, 74, 0
2, 26700, Note_on_c, 0, 73, 55
2, 26789, Note_on_c, 0, 73, 0
2, 26790, Note_on_c, 0, 75, 55
2, 26819, Note_on_c, 0, 75, 0
2, 26820, Note_on_c, 0, 77, 55
2, 26849, Note_on_c, 0, 77, 0
2, 26850, Note_on_c, 0, 79, 55
2, 26880, Note_on_c, 0, 80, 55
2, 26894, Note_on_c, 0, 79, 0
2, 26909, Note_on_c, 0, 80, 0
2, 26910, Note_on_c, 0, 82, 55
2, 26939, Note_on_c, 0, 82, 0
2, 26940, Note_on_c, 0, 84, 55
2, 26969, Note_on_c, 0, 84, 0
2, 26970, Note_on_c, 0, 80, 55
2, 26999, Note_on_c, 0, 80, 0
2, 27000, Note_on_c, 0, 79, 55
2, 27029, Note_on_c, 0, 79, 0
2, 27030, Note_on_c, 0, 77, 55
2, 27059, Note_on_c, 0, 77, 0
2, 27060, Note_on_c, 0, 75, 55
2, 27089, Note_on_c, 0, 75, 0
2, 27090, Note_on_c, 0, 73, 55
2, 27120, Note_on_c, 0, 72, 55
2, 27134, Note_on_c, 0, 73, 0
2, 27180, Note_on_c, 0, 70, 55
2, 27194, Note_on_c, 0, 72, 0
2, 27224, Note_on_c, 0, 70, 0
2, 27270, Note_on_c, 0, 63, 55
2, 27299, Note_on_c, 0, 63, 0
2, 27300, Note_on_c, 0, 75, 55
2, 27374, Note_on_c, 0, 75, 0
2, 27375, Note_on_c, 0, 77, 55
2, 27389, Note_on_c, 0, 77, 0
2, 27390, Note_on_c, 0, 75, 55
2, 27404, Note_on_c, 0, 75, 0
2, 27405, Note_on_c, 0, 73, 55
2, 27419, Note_on_c, 0, 73, 0
2, 27420, Note_on_c, 0, 72, 55
2, 27434, Note_on_c, 0, 72, 0
2, 27435, Note_on_c, 0, 70, 55
2, 27449, Note_on_c, 0, 70, 0
2, 27450, Note_on_c, 0, 68, 55
2, 27464, Note_on_c, 0, 68, 0
2, 27465, Note_on_c, 0, 67, 55
2, 27479, Note_on_c, 0, 67, 0
2, 27510, Note_on_c, 0, 75, 55
2, 27539, Note_on_c, 0, 75, 0
2, 27540, Note_on_c, 0, 87, 55
2, 27614, Note_on_c, 0, 87, 0
2, 27615, Note_on_c, 0, 89, 55
2, 27629, Note_on_c, 0, 89, 0
2, 27630, Note_on_c, 0, 87, 55
2, 27644, Note_on_c, 0, 87, 0
2, 27645, Note_on_c, 0, 85, 55
2, 27659, Note_on_c, 0, 85, 0
2, 27660, Note_on_c, 0, 84, 55
2, 27674, Note_on_c, 0, 84, 0
2, 27675, Note_on_c, 0, 82, 55
2, 27689, Note_on_c, 0, 82, 0
2, 27690, Note_on_c, 0, 80, 55
2, 27704, Note_on_c, 0, 80, 0
2, 27705, Note_on_c, 0, 79, 55
2, 27719, Note_on_c, 0, 79, 0
2, 27720, Note_on_c, 0, 87, 55
2, 27750, Note_on_c, 0, 84, 55
2, 27764, Note_on_c, 0, 87, 0
2, 27779, Note_on_c, 0, 84, 0
2, 27780, Note_on_c, 0, 82, 55
2, 27809, Note_on_c, 0, 82, 0
2, 27810, Note_on_c, 0, 81, 55
2, 27839, Note_on_c, 0, 81, 0
2, 27840, Note_on_c, 0, 82, 55
2, 27929, Note_on_c, 0, 82, 0
2, 27930, Note_on_c, 0, 89, 55
2, 27944, Note_on_c, 0, 89, 0
2, 27960, Note_on_c, 0, 87, 55
2, 27989, Note_on_c, 0, 87, 0
2, 27990, Note_on_c, 0, 84, 55
2, 28004, Note_on_c, 0, 84, 0
2, 28020, Note_on_c, 0, 85, 55
2, 28049, Note_on_c, 0, 85, 0
2, 28050, Note_on_c, 0, 82, 55
2, 28064, Note_on_c, 0, 82, 0
2, 28080, Note_on_c, 0, 80, 55
2, 28139, Note_on_c, 0, 80, 0
2, 30240, Note_on_c, 0, 70, 45
2, 30351, Note_on_c, 0, 70, 0
2, 30363, Note_on_c, 0, 70, 50
2, 30434, Note_on_c, 0, 70, 0
2, 30447, Note_on_c, 0, 70, 54
2, 30470, Note_on_c, 0, 70, 0
2, 30480, Note_on_c, 0, 70, 56
2, 30537, Note_on_c, 0, 75, 45
2, 30544, Note_on_c, 0, 70, 0
2, 30562, Note_on_c, 0, 75, 0
2, 30600, Note_on_c, 0, 75, 45
2, 30717, Note_on_c, 0, 75, 0
2, 30720, Note_on_c, 0, 79, 49
2, 30778, Note_on_c, 0, 68, 42
2, 30778, Note_on_c, 0, 74, 52
2, 30785, Note_on_c, 0, 79, 0
2, 30822, Note_on_c, 0, 68, 0
2, 30834, Note_on_c, 0, 74, 0
2, 30840, Note_on_c, 0, 70, 45
2, 30840, Note_on_c, 0, 75, 55
2, 30895, Note_on_c, 0, 77, 59
2, 30897, Note_on_c, 0, 72, 48
2, 30899, Note_on_c, 0, 75, 0
2, 30932, Note_on_c, 0, 72, 0
2, 30937, Note_on_c, 0, 77, 0
2, 30953, Note_on_c, 0, 70, 0
2, 30960, Note_on_c, 0, 67, 45
2, 30960, Note_on_c, 0, 70, 55
2, 31019, Note_on_c, 0, 65, 45
2, 31022, Note_on_c, 0, 67, 0
2, 31047, Note_on_c, 0, 63, 38
2, 31049, Note_on_c, 0, 65, 0
2, 31081, Note_on_c, 0, 65, 29
2, 31082, Note_on_c, 0, 63, 0
2, 31168, Note_on_c, 0, 70, 0
2, 31173, Note_on_c, 0, 65, 0
2, 31198, Note_on_c, 0, 79, 55
2, 31311, Note_on_c, 0, 79, 0
2, 31320, Note_on_c, 0, 79, 55
2, 31393, Note_on_c, 0, 79, 0
2, 31409, Note_on_c, 0, 79, 55
2, 31444, Note_on_c, 0, 82, 69
2, 31448, Note_on_c, 0, 79, 0
2, 31531, Note_on_c, 0, 79, 52
2, 31536, Note_on_c, 0, 82, 0
2, 31560, Note_on_c, 0, 75, 38
2, 31567, Note_on_c, 0, 79, 0
2, 31625, Note_on_c, 0, 75, 0
2, 31680, Note_on_c, 0, 62, 42
2, 31713, Note_on_c, 0, 62, 0
2, 31740, Note_on_c, 0, 62, 40
2, 31780, Note_on_c, 0, 62, 0
2, 31800, Note_on_c, 0, 62, 39
2, 31835, Note_on_c, 0, 62, 0
2, 31860, Note_on_c, 0, 62, 37
2, 31899, Note_on_c, 0, 62, 0
2, 31920, Note_on_c, 0, 63, 35
2, 32030, Note_on_c, 0, 63, 0
2, 32160, Note_on_c, 0, 77, 35
2, 32279, Note_on_c, 0, 77, 0
2, 32280, Note_on_c, 0, 77, 45
2, 32339, Note_on_c, 0, 77, 0
2, 32340, Note_on_c, 0, 77, 50
2, 32399, Note_on_c, 0, 77, 0
2, 32400, Note_on_c, 0, 79, 55
2, 32519, Note_on_c, 0, 79, 0
2, 32520, Note_on_c, 0, 75, 35
2, 32619, Note_on_c, 0, 75, 0
2, 32640, Note_on_c, 0, 79, 42
2, 32759, Note_on_c, 0, 79, 0
2, 32760, Note_on_c, 0, 79, 49
2, 32819, Note_on_c, 0, 79, 0
2, 32820, Note_on_c, 0, 79, 54
2, 32879, Note_on_c, 0, 79, 0
2, 32880, Note_on_c, 0, 80, 57
2, 32999, Note_on_c, 0, 80, 0
2, 33000, Note_on_c, 0, 77, 41
2, 33119, Note_on_c, 0, 77, 0
2, 33120, Note_on_c, 0, 80, 55
2, 33239, Note_on_c, 0, 80, 0
2, 33240, Note_on_c, 0, 80, 55
2, 33299, Note_on_c, 0, 80, 0
2, 33300, Note_on_c, 0, 80, 45
2, 33359, Note_on_c, 0, 80, 0
2, 33360, Note_on_c, 0, 79, 55
2, 33479, Note_on_c, 0, 79, 0
2, 33480, Note_on_c, 0, 84, 62
2, 33539, Note_on_c, 0, 84, 0
2, 33540, Note_on_c, 0, 82, 53
2, 33599, Note_on_c, 0, 82, 0
2, 33600, Note_on_c, 0, 82, 59
2, 33659, Note_on_c, 0, 82, 0
2, 33660, Note_on_c, 0, 81, 53
2, 33719, Note_on_c, 0, 81, 0
2, 33720, Note_on_c, 0, 79, 50
2, 33779, Note_on_c, 0, 79, 0
2, 33780, Note_on_c, 0, 81, 47
2, 33839, Note_on_c, 0, 81, 0
2, 33840, Note_on_c, 0, 82, 49
2, 33959, Note_on_c, 0, 82, 0
2, 34080, Note_on_c, 0, 77, 55
2, 34139, Note_on_c, 0, 77, 0
2, 34140, Note_on_c, 0, 87, 65
2, 34259, Note_on_c, 0, 87, 0
2, 34260, Note_on_c, 0, 81, 55
2, 34319, Note_on_c, 0, 81, 0
2, 34320, Note_on_c, 0, 82, 45
2, 34439, Note_on_c, 0, 82, 0
2, 34560, Note_on_c, 0, 77, 55
2, 34619, Note_on_c, 0, 77, 0
2, 34620, Note_on_c, 0, 87, 65
2, 34739, Note_on_c, 0, 87, 0
2, 34740, Note_on_c, 0, 81, 55
2, 34799, Note_on_c, 0, 81, 0
2, 34800, Note_on_c, 0, 82, 55
2, 34919, Note_on_c, 0, 82, 0
2, 35040, Note_on_c, 0, 81, 60
2, 35159, Note_on_c, 0, 81, 0
2, 35280, Note_on_c, 0, 80, 65
2, 35280, Note_on_c, 0, 74, 45
2, 35519, Note_on_c, 0, 74, 0
2, 35519, Note_on_c, 0, 80, 0
2, 35520, Note_on_c, 0, 70, 45
2, 35631, Note_on_c, 0, 70, 0
2, 35643, Note_on_c, 0, 70, 50
2, 35714, Note_on_c, 0, 70, 0
2, 35727, Note_on_c, 0, 70, 54
2, 35750, Note_on_c, 0, 70, 0
2, 35760, Note_on_c, 0, 70, 56
2, 35817, Note_on_c, 0, 75, 45
2, 35824, Note_on_c, 0, 70, 0
2, 35842, Note_on_c, 0, 75, 0
2, 35880, Note_on_c, 0, 75, 45
2, 35997, Note_on_c, 0, 75, 0
2, 36000, Note_on_c, 0, 79, 49
2, 36058, Note_on_c, 0, 68, 42
2, 36058, Note_on_c, 0, 74, 52
2, 36065, Note_on_c, 0, 79, 0
2, 36102, Note_on_c, 0, 68, 0
2, 36114, Note_on_c, 0, 74, 0
2, 36120, Note_on_c, 0, 70, 45
2, 36120, Note_on_c, 0, 75, 55
2, 36179, Note_on_c, 0, 75, 0
2, 36179, Note_on_c, 0, 77, 59
2, 36179, Note_on_c, 0, 72, 48
2, 36214, Note_on_c, 0, 72, 0
2, 36221, Note_on_c, 0, 77, 0
2, 36233, Note_on_c, 0, 70, 0
2, 36240, Note_on_c, 0, 67, 45
2, 36240, Note_on_c, 0, 70, 55
2, 36300, Note_on_c, 0, 65, 45
2, 36302, Note_on_c, 0, 67, 0
2, 36329, Note_on_c, 0, 63, 38
2, 36330, Note_on_c, 0, 65, 0
2, 36360, Note_on_c, 0, 65, 29
2, 36364, Note_on_c, 0, 63, 0
2, 36448, Note_on_c, 0, 70, 0
2, 36452, Note_on_c, 0, 65, 0
2, 36480, Note_on_c, 0, 79, 55
2, 36593, Note_on_c, 0, 79, 0
2, 36600, Note_on_c, 0, 79, 55
2, 36673, Note_on_c, 0, 79, 0
2, 36689, Note_on_c, 0, 79, 55
2, 36724, Note_on_c, 0, 82, 69
2, 36728, Note_on_c, 0, 79, 0
2, 36811, Note_on_c, 0, 79, 52
2, 36816, Note_on_c, 0, 82, 0
2, 36840, Note_on_c, 0, 75, 38
2, 36847, Note_on_c, 0, 79, 0
2, 36905, Note_on_c, 0, 75, 0
2, 36960, Note_on_c, 0, 62, 42
2, 36993, Note_on_c, 0, 62, 0
2, 37020, Note_on_c, 0, 62, 40
2, 37060, Note_on_c, 0, 62, 0
2, 37080, Note_on_c, 0, 62, 39
2, 37115, Note_on_c, 0, 62, 0
2, 37140, Note_on_c, 0, 62, 37
2, 37179, Note_on_c, 0, 62, 0
2, 37200, Note_on_c, 0, 63, 35
2, 37310, Note_on_c, 0, 63, 0
2, 38400, Note_on_c, 0, 75, 43
2, 38459, Note_on_c, 0, 75, 0
2, 38460, Note_on_c, 0, 82, 45
2, 38579, Note_on_c, 0, 82, 0
2, 38580, Note_on_c, 0, 80, 50
2, 38624, Note_on_c, 0, 80, 0
2, 38625, Note_on_c, 0, 79, 51
2, 38639, Note_on_c, 0, 79, 0
2, 38640, Note_on_c, 0, 77, 52
2, 38699, Note_on_c, 0, 77, 0
2, 38700, Note_on_c, 0, 87, 54
2, 38819, Note_on_c, 0, 87, 0
2, 38820, Note_on_c, 0, 86, 59
2, 38864, Note_on_c, 0, 86, 0
2, 38865, Note_on_c, 0, 84, 61
2, 38879, Note_on_c, 0, 84, 0
2, 38880, Note_on_c, 0, 82, 52
2, 38924, Note_on_c, 0, 82, 0
2, 38925, Note_on_c, 0, 79, 44
2, 38939, Note_on_c, 0, 79, 0
2, 38940, Note_on_c, 0, 82, 44
2, 39059, Note_on_c, 0, 82, 0
2, 39060, Note_on_c, 0, 80, 39
2, 39104, Note_on_c, 0, 80, 0
2, 39105, Note_on_c, 0, 77, 34
2, 39119, Note_on_c, 0, 77, 0
2, 39120, Note_on_c, 0, 75, 34
2, 39239, Note_on_c, 0, 75, 0
2, 39615, Note_on_c, 0, 63, 33
2, 39629, Note_on_c, 0, 63, 0
2, 39630, Note_on_c, 0, 65, 34
2, 39644, Note_on_c, 0, 65, 0
2, 39645, Note_on_c, 0, 67, 36
2, 39659, Note_on_c, 0, 67, 0
2, 39660, Note_on_c, 0, 68, 37
2, 39674, Note_on_c, 0, 68, 0
2, 39675, Note_on_c, 0, 70, 39
2, 39689, Note_on_c, 0, 70, 0
2, 39690, Note_on_c, 0, 72, 40
2, 39704, Note_on_c, 0, 72, 0
2, 39705, Note_on_c, 0, 74, 42
2, 39719, Note_on_c, 0, 74, 0
2, 39720, Note_on_c, 0, 75, 44
2, 39734, Note_on_c, 0, 75, 0
2, 39735, Note_on_c, 0, 77, 45
2, 39749, Note_on_c, 0, 77, 0
2, 39750, Note_on_c, 0, 79, 47
2, 39764, Note_on_c, 0, 79, 0
2, 39765, Note_on_c, 0, 80, 48
2, 39779, Note_on_c, 0, 80, 0
2, 39780, Note_on_c, 0, 82, 50
2, 39794, Note_on_c, 0, 82, 0
2, 39795, Note_on_c, 0, 84, 51
2, 39809, Note_on_c, 0, 84, 0
2, 39810, Note_on_c, 0, 86, 47
2, 39824, Note_on_c, 0, 86, 0
2, 39825, Note_on_c, 0, 87, 41
2, 39839, Note_on_c, 0, 87, 0
2, 40095, Note_on_c, 0, 63, 33
2, 40109, Note_on_c, 0, 63, 0
2, 40110, Note_on_c, 0, 65, 34
2, 40124, Note_on_c, 0, 65, 0
2, 40125, Note_on_c, 0, 67, 36
2, 40139, Note_on_c, 0, 67, 0
2, 40140, Note_on_c, 0, 68, 37
2, 40154, Note_on_c, 0, 68, 0
2, 40155, Note_on_c, 0, 70, 39
2, 40169, Note_on_c, 0, 70, 0
2, 40170, Note_on_c, 0, 72, 40
2, 40184, Note_on_c, 0, 72, 0
2, 40185, Note_on_c, 0, 74, 42
2, 40199, Note_on_c, 0, 74, 0
2, 40200, Note_on_c, 0, 75, 44
2, 40214, Note_on_c, 0, 75, 0
2, 40215, Note_on_c, 0, 77, 45
2, 40229, Note_on_c, 0, 77, 0
2, 40230, Note_on_c, 0, 79, 46
2, 40244, Note_on_c, 0, 79, 0
2, 40245, Note_on_c, 0, 80, 46
2, 40259, Note_on_c, 0, 80, 0
2, 40260, Note_on_c, 0, 82, 47
2, 40274, Note_on_c, 0, 82, 0
2, 40275, Note_on_c, 0, 84, 47
2, 40289, Note_on_c, 0, 84, 0
2, 40290, Note_on_c, 0, 86, 43
2, 40304, Note_on_c, 0, 86, 0
2, 40305, Note_on_c, 0, 87, 36
2, 40319, Note_on_c, 0, 87, 0
2, 40320, Note_on_c, 0, 75, 43
2, 40379, Note_on_c, 0, 75, 0
2, 40380, Note_on_c, 0, 82, 45
2, 40499, Note_on_c, 0, 82, 0
2, 40500, Note_on_c, 0, 80, 50
2, 40544, Note_on_c, 0, 80, 0
2, 40545, Note_on_c, 0, 79, 51
2, 40559, Note_on_c, 0, 79, 0
2, 40560, Note_on_c, 0, 77, 52
2, 40619, Note_on_c, 0, 77, 0
2, 40620, Note_on_c, 0, 87, 54
2, 40739, Note_on_c, 0, 87, 0
2, 40740, Note_on_c, 0, 86, 59
2, 40784, Note_on_c, 0, 86, 0
2, 40785, Note_on_c, 0, 84, 61
2, 40799, Note_on_c, 0, 84, 0
2, 40800, Note_on_c, 0, 82, 52
2, 40844, Note_on_c, 0, 82, 0
2, 40845, Note_on_c, 0, 79, 44
2, 40859, Note_on_c, 0, 79, 0
2, 40860, Note_on_c, 0, 82, 44
2, 40979, Note_on_c, 0, 82, 0
2, 40980, Note_on_c, 0, 80, 39
2, 41024, Note_on_c, 0, 80, 0
2, 41025, Note_on_c, 0, 77, 34
2, 41039, Note_on_c, 0, 77, 0
2, 41040, Note_on_c, 0, 75, 34
2, 41159, Note_on_c, 0, 75, 0
2, 41190, Note_on_c, 0, 75, 52
2, 41204, Note_on_c, 0, 75, 0
2, 41220, Note_on_c, 0, 77, 58
2, 41234, Note_on_c, 0, 77, 0
2, 41250, Note_on_c, 0, 79, 66
2, 41264, Note_on_c, 0, 79, 0
2, 41280, Note_on_c, 0, 76, 52
2, 41339, Note_on_c, 0, 76, 0
2, 41340, Note_on_c, 0, 77, 40
2, 41459, Note_on_c, 0, 77, 0
2, 41460, Note_on_c, 0, 79, 52
2, 41489, Note_on_c, 0, 79, 0
2, 41490, Note_on_c, 0, 80, 52
2, 41504, Note_on_c, 0, 80, 0
2, 41520, Note_on_c, 0, 78, 52
2, 41580, Note_on_c, 0, 79, 40
2, 41594, Note_on_c, 0, 78, 0
2, 41654, Note_on_c, 0, 79, 0
2, 41670, Note_on_c, 0, 75, 50
2, 41684, Note_on_c, 0, 75, 0
2, 41700, Note_on_c, 0, 77, 52
2, 41714, Note_on_c, 0, 77, 0
2, 41730, Note_on_c, 0, 79, 56
2, 41744, Note_on_c, 0, 79, 0
2, 41760, Note_on_c, 0, 76, 60
2, 41804, Note_on_c, 0, 76, 0
2, 41805, Note_on_c, 0, 77, 64
2, 41819, Note_on_c, 0, 77, 0
2, 41820, Note_on_c, 0, 84, 55
2, 41939, Note_on_c, 0, 84, 0
2, 41940, Note_on_c, 0, 82, 52
2, 41985, Note_on_c, 0, 80, 52
2, 41999, Note_on_c, 0, 80, 0
2, 41999, Note_on_c, 0, 82, 0
2, 42000, Note_on_c, 0, 78, 52
2, 42059, Note_on_c, 0, 78, 0
2, 42060, Note_on_c, 0, 79, 45
2, 42114, Note_on_c, 0, 79, 0
2, 42180, Note_on_c, 0, 87, 62
2, 42299, Note_on_c, 0, 87, 0
2, 42300, Note_on_c, 0, 77, 48
2, 42419, Note_on_c, 0, 77, 0
2, 42420, Note_on_c, 0, 82, 45
2, 42479, Note_on_c, 0, 82, 0
2, 42480, Note_on_c, 0, 75, 52
2, 42494, Note_on_c, 0, 75, 0
2, 42510, Note_on_c, 0, 63, 49
2, 42524, Note_on_c, 0, 63, 0
2, 42540, Note_on_c, 0, 67, 45
2, 42554, Note_on_c, 0, 67, 0
2, 42570, Note_on_c, 0, 70, 42
2, 42584, Note_on_c, 0, 70, 0
2, 42600, Note_on_c, 0, 74, 38
2, 42614, Note_on_c, 0, 74, 0
2, 42630, Note_on_c, 0, 75, 34
2, 42644, Note_on_c, 0, 75, 0
2, 42660, Note_on_c, 0, 79, 31
2, 42674, Note_on_c, 0, 79, 0
2, 42690, Note_on_c, 0, 82, 27
2, 42704, Note_on_c, 0, 82, 0
2, 42720, Note_on_c, 0, 87, 40
2, 42839, Note_on_c, 0, 87, 0
2, 42839, End_track
3, 0, Start_track
3, 0, MIDI_port, 0
3, 0, Title_t, "Piano lh"
3, 20, Control_c, 1, 121, 0
3, 21, Control_c, 1, 11, 127
3, 21, Control_c, 1, 7, 127
3, 22, Control_c, 1, 93, 10
3, 22, Control_c, 1, 91, 79
3, 25, Control_c, 1, 10, 74
3, 26, Pitch_bend_c, 1, 8192
3, 27, Control_c, 1, 0, 0
3, 28, Control_c, 1, 32, 0
3, 29, Program_c, 1, 0
3, 480, Note_on_c, 1, 51, 33
3, 480, Note_on_c, 1, 55, 33
3, 539, Note_on_c, 1, 55, 0
3, 540, Note_on_c, 1, 58, 33
3, 599, Note_on_c, 1, 58, 0
3, 599, Note_on_c, 1, 51, 0
3, 600, Note_on_c, 1, 51, 33
3, 600, Note_on_c, 1, 55, 33
3, 659, Note_on_c, 1, 55, 0
3, 660, Note_on_c, 1, 58, 33
3, 719, Note_on_c, 1, 58, 0
3, 719, Note_on_c, 1, 51, 0
3, 720, Note_on_c, 1, 51, 33
3, 720, Note_on_c, 1, 55, 33
3, 779, Note_on_c, 1, 55, 0
3, 780, Note_on_c, 1, 58, 33
3, 839, Note_on_c, 1, 58, 0
3, 839, Note_on_c, 1, 51, 0
3, 840, Note_on_c, 1, 51, 33
3, 840, Note_on_c, 1, 55, 33
3, 899, Note_on_c, 1, 55, 0
3, 900, Note_on_c, 1, 58, 33
3, 939, Note_on_c, 1, 58, 0
3, 959, Note_on_c, 1, 51, 0
3, 960, Note_on_c, 1, 51, 30
3, 1019, Note_on_c, 1, 51, 0
3, 1020, Note_on_c, 1, 53, 31
3, 1079, Note_on_c, 1, 53, 0
3, 1080, Note_on_c, 1, 55, 34
3, 1139, Note_on_c, 1, 55, 0
3, 1140, Note_on_c, 1, 56, 36
3, 1140, Note_on_c, 1, 63, 36
3, 1199, Note_on_c, 1, 56, 0
3, 1200, Note_on_c, 1, 58, 38
3, 1259, Note_on_c, 1, 63, 0
3, 1260, Note_on_c, 1, 62, 33
3, 1289, Note_on_c, 1, 62, 0
3, 1290, Note_on_c, 1, 60, 30
3, 1319, Note_on_c, 1, 60, 0
3, 1320, Note_on_c, 1, 62, 27
3, 1379, Note_on_c, 1, 62, 0
3, 1379, Note_on_c, 1, 58, 0
3, 1440, Note_on_c, 1, 55, 33
3, 1440, Note_on_c, 1, 58, 33
3, 1440, Note_on_c, 1, 51, 33
3, 1499, Note_on_c, 1, 58, 0
3, 1500, Note_on_c, 1, 63, 33
3, 1559, Note_on_c, 1, 63, 0
3, 1559, Note_on_c, 1, 51, 0
3, 1559, Note_on_c, 1, 55, 0
3, 1560, Note_on_c, 1, 51, 33
3, 1560, Note_on_c, 1, 55, 33
3, 1560, Note_on_c, 1, 58, 33
3, 1619, Note_on_c, 1, 58, 0
3, 1620, Note_on_c, 1, 63, 33
3, 1679, Note_on_c, 1, 63, 0
3, 1679, Note_on_c, 1, 55, 0
3, 1679, Note_on_c, 1, 51, 0
3, 1680, Note_on_c, 1, 58, 33
3, 1680, Note_on_c, 1, 51, 33
3, 1680, Note_on_c, 1, 55, 33
3, 1739, Note_on_c, 1, 58, 0
3, 1740, Note_on_c, 1, 63, 33
3, 1799, Note_on_c, 1, 63, 0
3, 1799, Note_on_c, 1, 55, 0
3, 1799, Note_on_c, 1, 51, 0
3, 1800, Note_on_c, 1, 58, 33
3, 1800, Note_on_c, 1, 51, 33
3, 1800, Note_on_c, 1, 55, 33
3, 1859, Note_on_c, 1, 58, 0
3, 1860, Note_on_c, 1, 63, 33
3, 1899, Note_on_c, 1, 63, 0
3, 1919, Note_on_c, 1, 55, 0
3, 1919, Note_on_c, 1, 51, 0
3, 1920, Note_on_c, 1, 46, 29
3, 1920, Note_on_c, 1, 56, 29
3, 1920, Note_on_c, 1, 53, 29
3, 1969, Note_on_c, 1, 53, 0
3, 1969, Note_on_c, 1, 56, 0
3, 1969, Note_on_c, 1, 46, 0
3, 1980, Note_on_c, 1, 56, 28
3, 1980, Note_on_c, 1, 46, 28
3, 1980, Note_on_c, 1, 53, 28
3, 2029, Note_on_c, 1, 53, 0
3, 2029, Note_on_c, 1, 46, 0
3, 2029, Note_on_c, 1, 56, 0
3, 2040, Note_on_c, 1, 56, 27
3, 2040, Note_on_c, 1, 46, 27
3, 2040, Note_on_c, 1, 53, 27
3, 2089, Note_on_c, 1, 53, 0
3, 2089, Note_on_c, 1, 46, 0
3, 2089, Note_on_c, 1, 56, 0
3, 2100, Note_on_c, 1, 56, 27
3, 2100, Note_on_c, 1, 46, 27
3, 2100, Note_on_c, 1, 53, 27
3, 2149, Note_on_c, 1, 53, 0
3, 2149, Note_on_c, 1, 46, 0
3, 2149, Note_on_c, 1, 56, 0
3, 2160, Note_on_c, 1, 51, 26
3, 2160, Note_on_c, 1, 55, 26
3, 2279, Note_on_c, 1, 55, 0
3, 2279, Note_on_c, 1, 51, 0
3, 4320, Note_on_c, 1, 46, 24
3, 4439, Note_on_c, 1, 46, 0
3, 4560, Note_on_c, 1, 46, 24
3, 4679, Note_on_c, 1, 46, 0
3, 4800, Note_on_c, 1, 46, 24
3, 4919, Note_on_c, 1, 46, 0
3, 5040, Note_on_c, 1, 46, 24
3, 5159, Note_on_c, 1, 46, 0
3, 5280, Note_on_c, 1, 46, 24
3, 5399, Note_on_c, 1, 46, 0
3, 5520, Note_on_c, 1, 51, 34
3, 5639, Note_on_c, 1, 51, 0
3, 5760, Note_on_c, 1, 75, 45
3, 5760, Note_on_c, 1, 65, 35
3, 5760, Note_on_c, 1, 72, 35
3, 5999, Note_on_c, 1, 72, 0
3, 5999, Note_on_c, 1, 65, 0
3, 5999, Note_on_c, 1, 75, 0
3, 6000, Note_on_c, 1, 70, 35
3, 6000, Note_on_c, 1, 74, 35
3, 6119, Note_on_c, 1, 74, 0
3, 6119, Note_on_c, 1, 70, 0
3, 6240, Note_on_c, 1, 75, 45
3, 6240, Note_on_c, 1, 65, 35
3, 6240, Note_on_c, 1, 72, 35
3, 6359, Note_on_c, 1, 72, 0
3, 6359, Note_on_c, 1, 65, 0
3, 6359, Note_on_c, 1, 75, 0
3, 6480, Note_on_c, 1, 70, 24
3, 6480, Note_on_c, 1, 74, 35
3, 6599, Note_on_c, 1, 74, 0
3, 6599, Note_on_c, 1, 70, 0
3, 6720, Note_on_c, 1, 75, 55
3, 6720, Note_on_c, 1, 72, 45
3, 6720, Note_on_c, 1, 65, 45
3, 6839, Note_on_c, 1, 65, 0
3, 6839, Note_on_c, 1, 72, 0
3, 6839, Note_on_c, 1, 75, 0
3, 6960, Note_on_c, 1, 58, 44
3, 6960, Note_on_c, 1, 62, 44
3, 7079, Note_on_c, 1, 62, 0
3, 7079, Note_on_c, 1, 58, 0
3, 7200, Note_on_c, 1, 58, 49
3, 7200, Note_on_c, 1, 60, 49
3, 7200, Note_on_c, 1, 63, 49
3, 7319, Note_on_c, 1, 63, 0
3, 7319, Note_on_c, 1, 60, 0
3, 7319, Note_on_c, 1, 58, 0
3, 7440, Note_on_c, 1, 58, 55
3, 7440, Note_on_c, 1, 62, 55
3, 7440, Note_on_c, 1, 65, 55
3, 7679, Note_on_c, 1, 65, 0
3, 7679, Note_on_c, 1, 62, 0
3, 7679, Note_on_c, 1, 58, 0
3, 7680, Note_on_c, 1, 51, 33
3, 7680, Note_on_c, 1, 55, 33
3, 7739, Note_on_c, 1, 55, 0
3, 7740, Note_on_c, 1, 58, 33
3, 7799, Note_on_c, 1, 58, 0
3, 7799, Note_on_c, 1, 51, 0
3, 7800, Note_on_c, 1, 51, 33
3, 7800, Note_on_c, 1, 55, 33
3, 7859, Note_on_c, 1, 55, 0
3, 7860, Note_on_c, 1, 58, 33
3, 7919, Note_on_c, 1, 58, 0
3, 7919, Note_on_c, 1, 51, 0
3, 7920, Note_on_c, 1, 51, 33
3, 7920, Note_on_c, 1, 55, 33
3, 7979, Note_on_c, 1, 55, 0
3, 7980, Note_on_c, 1, 58, 33
3, 8039, Note_on_c, 1, 58, 0
3, 8039, Note_on_c, 1, 51, 0
3, 8040, Note_on_c, 1, 51, 33
3, 8040, Note_on_c, 1, 55, 33
3, 8099, Note_on_c, 1, 55, 0
3, 8100, Note_on_c, 1, 58, 33
3, 8139, Note_on_c, 1, 58, 0
3, 8159, Note_on_c, 1, 51, 0
3, 8160, Note_on_c, 1, 51, 30
3, 8219, Note_on_c, 1, 51, 0
3, 8220, Note_on_c, 1, 53, 31
3, 8279, Note_on_c, 1, 53, 0
3, 8280, Note_on_c, 1, 55, 34
3, 8339, Note_on_c, 1, 55, 0
3, 8340, Note_on_c, 1, 57, 36
3, 8340, Note_on_c, 1, 63, 36
3, 8399, Note_on_c, 1, 57, 0
3, 8400, Note_on_c, 1, 58, 38
3, 8459, Note_on_c, 1, 63, 0
3, 8460, Note_on_c, 1, 62, 33
3, 8489, Note_on_c, 1, 62, 0
3, 8490, Note_on_c, 1, 60, 30
3, 8519, Note_on_c, 1, 60, 0
3, 8520, Note_on_c, 1, 62, 27
3, 8579, Note_on_c, 1, 62, 0
3, 8579, Note_on_c, 1, 58, 0
3, 8640, Note_on_c, 1, 55, 33
3, 8640, Note_on_c, 1, 58, 33
3, 8640, Note_on_c, 1, 51, 33
3, 8699, Note_on_c, 1, 58, 0
3, 8700, Note_on_c, 1, 63, 33
3, 8759, Note_on_c, 1, 63, 0
3, 8759, Note_on_c, 1, 51, 0
3, 8759, Note_on_c, 1, 55, 0
3, 8760, Note_on_c, 1, 51, 33
3, 8760, Note_on_c, 1, 55, 33
3, 8760, Note_on_c, 1, 58, 33
3, 8819, Note_on_c, 1, 58, 0
3, 8820, Note_on_c, 1, 63, 33
3, 8879, Note_on_c, 1, 63, 0
3, 8879, Note_on_c, 1, 55, 0
3, 8879, Note_on_c, 1, 51, 0
3, 8880, Note_on_c, 1, 58, 33
3, 8880, Note_on_c, 1, 51, 33
3, 8880, Note_on_c, 1, 55, 33
3, 8939, Note_on_c, 1, 58, 0
3, 8940, Note_on_c, 1, 63, 33
3, 8999, Note_on_c, 1, 63, 0
3, 8999, Note_on_c, 1, 55, 0
3, 8999, Note_on_c, 1, 51, 0
3, 9000, Note_on_c, 1, 58, 33
3, 9000, Note_on_c, 1, 51, 33
3, 9000, Note_on_c, 1, 55, 33
3, 9059, Note_on_c, 1, 58, 0
3, 9060, Note_on_c, 1, 63, 33
3, 9099, Note_on_c, 1, 63, 0
3, 9119, Note_on_c, 1, 55, 0
3, 9119, Note_on_c, 1, 51, 0
3, 9120, Note_on_c, 1, 46, 29
3, 9120, Note_on_c, 1, 56, 29
3, 9120, Note_on_c, 1, 53, 29
3, 9169, Note_on_c, 1, 53, 0
3, 9169, Note_on_c, 1, 56, 0
3, 9169, Note_on_c, 1, 46, 0
3, 9180, Note_on_c, 1, 56, 28
3, 9180, Note_on_c, 1, 46, 28
3, 9180, Note_on_c, 1, 53, 28
3, 9229, Note_on_c, 1, 53, 0
3, 9229, Note_on_c, 1, 46, 0
3, 9229, Note_on_c, 1, 56, 0
3, 9240, Note_on_c, 1, 56, 27
3, 9240, Note_on_c, 1, 46, 27
3, 9240, Note_on_c, 1, 53, 27
3, 9289, Note_on_c, 1, 53, 0
3, 9289, Note_on_c, 1, 46, 0
3, 9289, Note_on_c, 1, 56, 0
3, 9300, Note_on_c, 1, 56, 27
3, 9300, Note_on_c, 1, 46, 27
3, 9300, Note_on_c, 1, 53, 27
3, 9349, Note_on_c, 1, 53, 0
3, 9349, Note_on_c, 1, 46, 0
3, 9349, Note_on_c, 1, 56, 0
3, 9360, Note_on_c, 1, 51, 26
3, 9360, Note_on_c, 1, 55, 26
3, 9479, Note_on_c, 1, 55, 0
3, 9479, Note_on_c, 1, 51, 0
3, 11520, Note_on_c, 1, 60, 33
3, 11549, Note_on_c, 1, 60, 0
3, 11550, Note_on_c, 1, 63, 33
3, 11579, Note_on_c, 1, 63, 0
3, 11580, Note_on_c, 1, 67, 33
3, 11609, Note_on_c, 1, 67, 0
3, 11610, Note_on_c, 1, 63, 33
3, 11639, Note_on_c, 1, 63, 0
3, 11640, Note_on_c, 1, 60, 33
3, 11669, Note_on_c, 1, 60, 0
3, 11670, Note_on_c, 1, 63, 33
3, 11699, Note_on_c, 1, 63, 0
3, 11700, Note_on_c, 1, 67, 33
3, 11729, Note_on_c, 1, 67, 0
3, 11730, Note_on_c, 1, 63, 33
3, 11759, Note_on_c, 1, 63, 0
3, 11760, Note_on_c, 1, 60, 33
3, 11789, Note_on_c, 1, 60, 0
3, 11790, Note_on_c, 1, 62, 33
3, 11819, Note_on_c, 1, 62, 0
3, 11820, Note_on_c, 1, 65, 33
3, 11849, Note_on_c, 1, 65, 0
3, 11850, Note_on_c, 1, 62, 33
3, 11879, Note_on_c, 1, 62, 0
3, 11880, Note_on_c, 1, 59, 33
3, 11909, Note_on_c, 1, 59, 0
3, 11910, Note_on_c, 1, 62, 33
3, 11939, Note_on_c, 1, 62, 0
3, 11940, Note_on_c, 1, 67, 33
3, 11969, Note_on_c, 1, 67, 0
3, 11970, Note_on_c, 1, 62, 33
3, 11999, Note_on_c, 1, 62, 0
3, 12000, Note_on_c, 1, 60, 45
3, 12119, Note_on_c, 1, 60, 0
3, 12120, Note_on_c, 1, 53, 50
3, 12179, Note_on_c, 1, 53, 0
3, 12180, Note_on_c, 1, 54, 55
3, 12239, Note_on_c, 1, 54, 0
3, 12240, Note_on_c, 1, 55, 40
3, 12299, Note_on_c, 1, 55, 0
3, 12300, Note_on_c, 1, 43, 35
3, 12359, Note_on_c, 1, 43, 0
3, 12480, Note_on_c, 1, 48, 45
3, 12599, Note_on_c, 1, 48, 0
3, 12720, Note_on_c, 1, 46, 40
3, 12839, Note_on_c, 1, 46, 0
3, 12960, Note_on_c, 1, 48, 45
3, 13019, Note_on_c, 1, 48, 0
3, 13020, Note_on_c, 1, 48, 55
3, 13079, Note_on_c, 1, 48, 0
3, 13080, Note_on_c, 1, 50, 55
3, 13139, Note_on_c, 1, 50, 0
3, 13140, Note_on_c, 1, 50, 45
3, 13199, Note_on_c, 1, 50, 0
3, 13200, Note_on_c, 1, 55, 45
3, 13259, Note_on_c, 1, 55, 0
3, 13260, Note_on_c, 1, 50, 40
3, 13319, Note_on_c, 1, 50, 0
3, 13320, Note_on_c, 1, 43, 35
3, 13379, Note_on_c, 1, 43, 0
3, 15360, Note_on_c, 1, 51, 33
3, 15389, Note_on_c, 1, 51, 0
3, 15390, Note_on_c, 1, 58, 33
3, 15419, Note_on_c, 1, 58, 0
3, 15420, Note_on_c, 1, 55, 33
3, 15449, Note_on_c, 1, 55, 0
3, 15450, Note_on_c, 1, 58, 33
3, 15479, Note_on_c, 1, 58, 0
3, 15480, Note_on_c, 1, 51, 33
3, 15480, Note_on_c, 1, 58, 33
3, 15509, Note_on_c, 1, 58, 0
3, 15509, Note_on_c, 1, 51, 0
3, 15510, Note_on_c, 1, 58, 33
3, 15539, Note_on_c, 1, 58, 0
3, 15540, Note_on_c, 1, 55, 33
3, 15569, Note_on_c, 1, 55, 0
3, 15570, Note_on_c, 1, 58, 33
3, 15599, Note_on_c, 1, 58, 0
3, 15600, Note_on_c, 1, 46, 33
3, 15719, Note_on_c, 1, 46, 0
3, 15840, Note_on_c, 1, 48, 33
3, 15869, Note_on_c, 1, 48, 0
3, 15870, Note_on_c, 1, 55, 33
3, 15899, Note_on_c, 1, 55, 0
3, 15900, Note_on_c, 1, 51, 33
3, 15929, Note_on_c, 1, 51, 0
3, 15930, Note_on_c, 1, 55, 33
3, 15959, Note_on_c, 1, 55, 0
3, 15960, Note_on_c, 1, 48, 33
3, 15989, Note_on_c, 1, 48, 0
3, 15990, Note_on_c, 1, 55, 33
3, 16019, Note_on_c, 1, 55, 0
3, 16020, Note_on_c, 1, 51, 33
3, 16049, Note_on_c, 1, 51, 0
3, 16050, Note_on_c, 1, 55, 33
3, 16079, Note_on_c, 1, 55, 0
3, 16080, Note_on_c, 1, 43, 33
3, 16199, Note_on_c, 1, 43, 0
3, 16320, Note_on_c, 1, 53, 33
3, 16439, Note_on_c, 1, 53, 0
3, 16560, Note_on_c, 1, 54, 33
3, 16679, Note_on_c, 1, 54, 0
3, 16800, Note_on_c, 1, 55, 33
3, 16919, Note_on_c, 1, 55, 0
3, 16920, Note_on_c, 1, 43, 33
3, 16979, Note_on_c, 1, 43, 0
3, 16980, Note_on_c, 1, 55, 33
3, 17039, Note_on_c, 1, 55, 0
3, 17040, Note_on_c, 1, 48, 33
3, 17089, Note_on_c, 1, 48, 0
3, 17100, Note_on_c, 1, 43, 28
3, 17149, Note_on_c, 1, 43, 0
3, 17160, Note_on_c, 1, 36, 26
3, 17209, Note_on_c, 1, 36, 0
3, 17280, Note_on_c, 1, 66, 43
3, 17280, Note_on_c, 1, 57, 33
3, 17399, Note_on_c, 1, 57, 0
3, 17399, Note_on_c, 1, 66, 0
3, 17400, Note_on_c, 1, 58, 29
3, 17400, Note_on_c, 1, 65, 29
3, 17459, Note_on_c, 1, 65, 0
3, 17459, Note_on_c, 1, 58, 0
3, 17520, Note_on_c, 1, 70, 39
3, 17520, Note_on_c, 1, 62, 29
3, 17520, Note_on_c, 1, 65, 29
3, 17699, Note_on_c, 1, 65, 0
3, 17699, Note_on_c, 1, 62, 0
3, 17699, Note_on_c, 1, 70, 0
3, 18240, Note_on_c, 1, 56, 44
3, 18240, Note_on_c, 1, 46, 34
3, 18240, Note_on_c, 1, 50, 34
3, 18240, Note_on_c, 1, 53, 34
3, 18719, Note_on_c, 1, 53, 0
3, 18719, Note_on_c, 1, 56, 0
3, 18719, Note_on_c, 1, 46, 0
3, 18719, Note_on_c, 1, 50, 0
3, 18720, Note_on_c, 1, 51, 33
3, 18720, Note_on_c, 1, 55, 33
3, 18779, Note_on_c, 1, 55, 0
3, 18780, Note_on_c, 1, 58, 33
3, 18839, Note_on_c, 1, 58, 0
3, 18839, Note_on_c, 1, 51, 0
3, 18840, Note_on_c, 1, 51, 33
3, 18840, Note_on_c, 1, 55, 33
3, 18899, Note_on_c, 1, 55, 0
3, 18900, Note_on_c, 1, 58, 33
3, 18959, Note_on_c, 1, 58, 0
3, 18959, Note_on_c, 1, 51, 0
3, 18960, Note_on_c, 1, 51, 33
3, 18960, Note_on_c, 1, 55, 33
3, 19019, Note_on_c, 1, 55, 0
3, 19020, Note_on_c, 1, 58, 29
3, 19079, Note_on_c, 1, 58, 0
3, 19079, Note_on_c, 1, 51, 0
3, 19080, Note_on_c, 1, 51, 28
3, 19080, Note_on_c, 1, 55, 28
3, 19139, Note_on_c, 1, 55, 0
3, 19140, Note_on_c, 1, 58, 26
3, 19179, Note_on_c, 1, 58, 0
3, 19199, Note_on_c, 1, 51, 0
3, 19200, Note_on_c, 1, 51, 30
3, 19259, Note_on_c, 1, 51, 0
3, 19260, Note_on_c, 1, 53, 31
3, 19319, Note_on_c, 1, 53, 0
3, 19320, Note_on_c, 1, 55, 34
3, 19379, Note_on_c, 1, 55, 0
3, 19380, Note_on_c, 1, 57, 36
3, 19380, Note_on_c, 1, 63, 36
3, 19439, Note_on_c, 1, 57, 0
3, 19440, Note_on_c, 1, 58, 38
3, 19499, Note_on_c, 1, 63, 0
3, 19500, Note_on_c, 1, 62, 33
3, 19529, Note_on_c, 1, 62, 0
3, 19530, Note_on_c, 1, 60, 30
3, 19559, Note_on_c, 1, 60, 0
3, 19560, Note_on_c, 1, 62, 27
3, 19619, Note_on_c, 1, 62, 0
3, 19619, Note_on_c, 1, 58, 0
3, 19680, Note_on_c, 1, 55, 33
3, 19680, Note_on_c, 1, 58, 33
3, 19680, Note_on_c, 1, 51, 33
3, 19739, Note_on_c, 1, 58, 0
3, 19740, Note_on_c, 1, 63, 33
3, 19799, Note_on_c, 1, 63, 0
3, 19799, Note_on_c, 1, 51, 0
3, 19799, Note_on_c, 1, 55, 0
3, 19800, Note_on_c, 1, 51, 33
3, 19800, Note_on_c, 1, 55, 33
3, 19800, Note_on_c, 1, 58, 33
3, 19859, Note_on_c, 1, 58, 0
3, 19860, Note_on_c, 1, 63, 33
3, 19919, Note_on_c, 1, 63, 0
3, 19919, Note_on_c, 1, 55, 0
3, 19919, Note_on_c, 1, 51, 0
3, 19920, Note_on_c, 1, 58, 33
3, 19920, Note_on_c, 1, 51, 33
3, 19920, Note_on_c, 1, 55, 33
3, 19979, Note_on_c, 1, 58, 0
3, 19980, Note_on_c, 1, 63, 33
3, 20039, Note_on_c, 1, 63, 0
3, 20039, Note_on_c, 1, 55, 0
3, 20039, Note_on_c, 1, 51, 0
3, 20040, Note_on_c, 1, 58, 33
3, 20040, Note_on_c, 1, 51, 33
3, 20040, Note_on_c, 1, 55, 33
3, 20099, Note_on_c, 1, 58, 0
3, 20100, Note_on_c, 1, 63, 33
3, 20139, Note_on_c, 1, 63, 0
3, 20159, Note_on_c, 1, 55, 0
3, 20159, Note_on_c, 1, 51, 0
3, 20160, Note_on_c, 1, 46, 29
3, 20160, Note_on_c, 1, 56, 29
3, 20160, Note_on_c, 1, 53, 29
3, 20219, Note_on_c, 1, 53, 0
3, 20219, Note_on_c, 1, 56, 0
3, 20219, Note_on_c, 1, 46, 0
3, 20220, Note_on_c, 1, 56, 28
3, 20220, Note_on_c, 1, 46, 28
3, 20220, Note_on_c, 1, 53, 28
3, 20279, Note_on_c, 1, 53, 0
3, 20279, Note_on_c, 1, 46, 0
3, 20279, Note_on_c, 1, 56, 0
3, 20280, Note_on_c, 1, 56, 27
3, 20280, Note_on_c, 1, 46, 27
3, 20280, Note_on_c, 1, 53, 27
3, 20339, Note_on_c, 1, 53, 0
3, 20339, Note_on_c, 1, 46, 0
3, 20339, Note_on_c, 1, 56, 0
3, 20340, Note_on_c, 1, 56, 27
3, 20340, Note_on_c, 1, 46, 27
3, 20340, Note_on_c, 1, 53, 27
3, 20399, Note_on_c, 1, 53, 0
3, 20399, Note_on_c, 1, 46, 0
3, 20399, Note_on_c, 1, 56, 0
3, 20400, Note_on_c, 1, 51, 26
3, 20400, Note_on_c, 1, 55, 26
3, 20519, Note_on_c, 1, 55, 0
3, 20519, Note_on_c, 1, 51, 0
3, 22560, Note_on_c, 1, 44, 33
3, 22590, Note_on_c, 1, 56, 33
3, 22599, Note_on_c, 1, 44, 0
3, 22609, Note_on_c, 1, 56, 0
3, 22620, Note_on_c, 1, 56, 33
3, 22639, Note_on_c, 1, 56, 0
3, 22650, Note_on_c, 1, 56, 33
3, 22669, Note_on_c, 1, 56, 0
3, 22680, Note_on_c, 1, 56, 33
3, 22699, Note_on_c, 1, 56, 0
3, 22710, Note_on_c, 1, 56, 33
3, 22729, Note_on_c, 1, 56, 0
3, 22740, Note_on_c, 1, 56, 33
3, 22759, Note_on_c, 1, 56, 0
3, 22770, Note_on_c, 1, 56, 33
3, 22789, Note_on_c, 1, 56, 0
3, 22800, Note_on_c, 1, 44, 33
3, 22830, Note_on_c, 1, 56, 33
3, 22839, Note_on_c, 1, 44, 0
3, 22849, Note_on_c, 1, 56, 0
3, 22860, Note_on_c, 1, 56, 33
3, 22879, Note_on_c, 1, 56, 0
3, 22890, Note_on_c, 1, 56, 33
3, 22909, Note_on_c, 1, 56, 0
3, 22920, Note_on_c, 1, 56, 33
3, 22939, Note_on_c, 1, 56, 0
3, 22950, Note_on_c, 1, 56, 33
3, 22969, Note_on_c, 1, 56, 0
3, 22980, Note_on_c, 1, 56, 33
3, 22999, Note_on_c, 1, 56, 0
3, 23010, Note_on_c, 1, 56, 33
3, 23029, Note_on_c, 1, 56, 0
3, 23040, Note_on_c, 1, 43, 33
3, 23099, Note_on_c, 1, 43, 0
3, 23160, Note_on_c, 1, 39, 33
3, 23219, Note_on_c, 1, 39, 0
3, 23280, Note_on_c, 1, 44, 33
3, 23399, Note_on_c, 1, 44, 0
3, 23520, Note_on_c, 1, 58, 44
3, 23520, Note_on_c, 1, 68, 54
3, 23520, Note_on_c, 1, 65, 34
3, 23639, Note_on_c, 1, 65, 0
3, 23639, Note_on_c, 1, 68, 0
3, 23639, Note_on_c, 1, 58, 0
3, 23640, Note_on_c, 1, 67, 44
3, 23640, Note_on_c, 1, 63, 34
3, 23699, Note_on_c, 1, 63, 0
3, 23699, Note_on_c, 1, 67, 0
3, 23760, Note_on_c, 1, 68, 54
3, 23760, Note_on_c, 1, 58, 44
3, 23760, Note_on_c, 1, 65, 34
3, 23879, Note_on_c, 1, 65, 0
3, 23879, Note_on_c, 1, 58, 0
3, 23879, Note_on_c, 1, 68, 0
3, 23880, Note_on_c, 1, 63, 34
3, 23880, Note_on_c, 1, 67, 44
3, 23909, Note_on_c, 1, 67, 0
3, 23909, Note_on_c, 1, 63, 0
3, 23910, Note_on_c, 1, 68, 44
3, 23939, Note_on_c, 1, 68, 0
3, 23940, Note_on_c, 1, 67, 44
3, 23969, Note_on_c, 1, 67, 0
3, 23970, Note_on_c, 1, 65, 44
3, 23999, Note_on_c, 1, 65, 0
3, 24000, Note_on_c, 1, 63, 45
3, 24029, Note_on_c, 1, 63, 0
3, 24060, Note_on_c, 1, 56, 34
3, 24089, Note_on_c, 1, 56, 0
3, 24120, Note_on_c, 1, 58, 34
3, 24149, Note_on_c, 1, 58, 0
3, 24180, Note_on_c, 1, 46, 34
3, 24209, Note_on_c, 1, 46, 0
3, 24240, Note_on_c, 1, 51, 29
3, 24299, Note_on_c, 1, 51, 0
3, 24300, Note_on_c, 1, 39, 24
3, 24329, Note_on_c, 1, 39, 0
3, 26400, Note_on_c, 1, 41, 35
3, 26430, Note_on_c, 1, 53, 35
3, 26449, Note_on_c, 1, 53, 0
3, 26449, Note_on_c, 1, 41, 0
3, 26460, Note_on_c, 1, 53, 36
3, 26479, Note_on_c, 1, 53, 0
3, 26490, Note_on_c, 1, 53, 37
3, 26509, Note_on_c, 1, 53, 0
3, 26520, Note_on_c, 1, 45, 38
3, 26550, Note_on_c, 1, 57, 39
3, 26569, Note_on_c, 1, 57, 0
3, 26569, Note_on_c, 1, 45, 0
3, 26580, Note_on_c, 1, 57, 40
3, 26599, Note_on_c, 1, 57, 0
3, 26610, Note_on_c, 1, 57, 41
3, 26629, Note_on_c, 1, 57, 0
3, 26640, Note_on_c, 1, 46, 42
3, 26670, Note_on_c, 1, 58, 43
3, 26689, Note_on_c, 1, 58, 0
3, 26689, Note_on_c, 1, 46, 0
3, 26700, Note_on_c, 1, 58, 44
3, 26719, Note_on_c, 1, 58, 0
3, 26730, Note_on_c, 1, 56, 45
3, 26759, Note_on_c, 1, 56, 0
3, 26760, Note_on_c, 1, 55, 44
3, 26819, Note_on_c, 1, 55, 0
3, 26820, Note_on_c, 1, 49, 40
3, 26869, Note_on_c, 1, 49, 0
3, 26880, Note_on_c, 1, 48, 34
3, 26999, Note_on_c, 1, 48, 0
3, 27000, Note_on_c, 1, 49, 35
3, 27029, Note_on_c, 1, 49, 0
3, 27030, Note_on_c, 1, 46, 40
3, 27059, Note_on_c, 1, 46, 0
3, 27060, Note_on_c, 1, 48, 45
3, 27089, Note_on_c, 1, 48, 0
3, 27090, Note_on_c, 1, 49, 50
3, 27119, Note_on_c, 1, 49, 0
3, 27120, Note_on_c, 1, 51, 45
3, 27179, Note_on_c, 1, 51, 0
3, 27180, Note_on_c, 1, 39, 34
3, 27209, Note_on_c, 1, 39, 0
3, 27360, Note_on_c, 1, 51, 44
3, 27360, Note_on_c, 1, 61, 54
3, 27360, Note_on_c, 1, 58, 44
3, 27479, Note_on_c, 1, 58, 0
3, 27479, Note_on_c, 1, 61, 0
3, 27480, Note_on_c, 1, 56, 34
3, 27480, Note_on_c, 1, 60, 44
3, 27539, Note_on_c, 1, 60, 0
3, 27539, Note_on_c, 1, 56, 0
3, 27539, Note_on_c, 1, 51, 0
3, 27600, Note_on_c, 1, 73, 54
3, 27600, Note_on_c, 1, 63, 44
3, 27600, Note_on_c, 1, 70, 44
3, 27719, Note_on_c, 1, 70, 0
3, 27719, Note_on_c, 1, 63, 0
3, 27719, Note_on_c, 1, 73, 0
3, 27720, Note_on_c, 1, 66, 44
3, 27720, Note_on_c, 1, 72, 54
3, 27720, Note_on_c, 1, 63, 44
3, 27720, Note_on_c, 1, 69, 44
3, 27839, Note_on_c, 1, 69, 0
3, 27839, Note_on_c, 1, 66, 0
3, 27839, Note_on_c, 1, 72, 0
3, 27839, Note_on_c, 1, 63, 0
3, 27840, Note_on_c, 1, 70, 44
3, 27840, Note_on_c, 1, 65, 34
3, 27840, Note_on_c, 1, 61, 34
3, 27899, Note_on_c, 1, 61, 0
3, 27899, Note_on_c, 1, 65, 0
3, 27899, Note_on_c, 1, 70, 0
3, 27900, Note_on_c, 1, 49, 33
3, 27959, Note_on_c, 1, 49, 0
3, 27960, Note_on_c, 1, 51, 33
3, 28019, Note_on_c, 1, 51, 0
3, 28020, Note_on_c, 1, 51, 33
3, 28079, Note_on_c, 1, 51, 0
3, 28080, Note_on_c, 1, 44, 33
3, 28119, Note_on_c, 1, 44, 0
3, 28140, Note_on_c, 1, 56, 28
3, 28179, Note_on_c, 1, 56, 0
3, 30240, Note_on_c, 1, 51, 33
3, 30240, Note_on_c, 1, 55, 33
3, 30299, Note_on_c, 1, 55, 0
3, 30300, Note_on_c, 1, 58, 33
3, 30359, Note_on_c, 1, 58, 0
3, 30359, Note_on_c, 1, 51, 0
3, 30360, Note_on_c, 1, 51, 33
3, 30360, Note_on_c, 1, 55, 33
3, 30419, Note_on_c, 1, 55, 0
3, 30420, Note_on_c, 1, 58, 33
3, 30479, Note_on_c, 1, 58, 0
3, 30479, Note_on_c, 1, 51, 0
3, 30480, Note_on_c, 1, 51, 33
3, 30480, Note_on_c, 1, 55, 33
3, 30539, Note_on_c, 1, 55, 0
3, 30540, Note_on_c, 1, 58, 33
3, 30599, Note_on_c, 1, 58, 0
3, 30599, Note_on_c, 1, 51, 0
3, 30600, Note_on_c, 1, 51, 33
3, 30600, Note_on_c, 1, 55, 33
3, 30659, Note_on_c, 1, 55, 0
3, 30660, Note_on_c, 1, 58, 33
3, 30699, Note_on_c, 1, 58, 0
3, 30719, Note_on_c, 1, 51, 0
3, 30720, Note_on_c, 1, 51, 30
3, 30779, Note_on_c, 1, 51, 0
3, 30780, Note_on_c, 1, 58, 41
3, 30780, Note_on_c, 1, 53, 31
3, 30839, Note_on_c, 1, 53, 0
3, 30840, Note_on_c, 1, 55, 34
3, 30899, Note_on_c, 1, 55, 0
3, 30899, Note_on_c, 1, 58, 0
3, 30900, Note_on_c, 1, 57, 36
3, 30900, Note_on_c, 1, 63, 36
3, 30949, Note_on_c, 1, 63, 0
3, 30959, Note_on_c, 1, 57, 0
3, 30960, Note_on_c, 1, 63, 46
3, 30960, Note_on_c, 1, 58, 38
3, 31009, Note_on_c, 1, 63, 0
3, 31020, Note_on_c, 1, 62, 33
3, 31049, Note_on_c, 1, 62, 0
3, 31050, Note_on_c, 1, 60, 30
3, 31079, Note_on_c, 1, 60, 0
3, 31080, Note_on_c, 1, 62, 27
3, 31139, Note_on_c, 1, 62, 0
3, 31139, Note_on_c, 1, 58, 0
3, 31200, Note_on_c, 1, 55, 33
3, 31200, Note_on_c, 1, 58, 33
3, 31200, Note_on_c, 1, 51, 33
3, 31259, Note_on_c, 1, 58, 0
3, 31260, Note_on_c, 1, 63, 33
3, 31319, Note_on_c, 1, 63, 0
3, 31319, Note_on_c, 1, 51, 0
3, 31319, Note_on_c, 1, 55, 0
3, 31320, Note_on_c, 1, 51, 33
3, 31320, Note_on_c, 1, 55, 33
3, 31320, Note_on_c, 1, 58, 33
3, 31379, Note_on_c, 1, 58, 0
3, 31380, Note_on_c, 1, 63, 33
3, 31439, Note_on_c, 1, 63, 0
3, 31439, Note_on_c, 1, 55, 0
3, 31439, Note_on_c, 1, 51, 0
3, 31440, Note_on_c, 1, 58, 33
3, 31440, Note_on_c, 1, 51, 33
3, 31440, Note_on_c, 1, 55, 33
3, 31499, Note_on_c, 1, 58, 0
3, 31500, Note_on_c, 1, 63, 33
3, 31559, Note_on_c, 1, 63, 0
3, 31559, Note_on_c, 1, 55, 0
3, 31559, Note_on_c, 1, 51, 0
3, 31560, Note_on_c, 1, 58, 33
3, 31560, Note_on_c, 1, 51, 33
3, 31560, Note_on_c, 1, 55, 33
3, 31619, Note_on_c, 1, 58, 0
3, 31620, Note_on_c, 1, 63, 33
3, 31659, Note_on_c, 1, 63, 0
3, 31679, Note_on_c, 1, 55, 0
3, 31679, Note_on_c, 1, 51, 0
3, 31680, Note_on_c, 1, 46, 29
3, 31680, Note_on_c, 1, 56, 29
3, 31680, Note_on_c, 1, 53, 29
3, 31729, Note_on_c, 1, 53, 0
3, 31729, Note_on_c, 1, 56, 0
3, 31729, Note_on_c, 1, 46, 0
3, 31740, Note_on_c, 1, 56, 28
3, 31740, Note_on_c, 1, 46, 28
3, 31740, Note_on_c, 1, 53, 28
3, 31789, Note_on_c, 1, 53, 0
3, 31789, Note_on_c, 1, 46, 0
3, 31789, Note_on_c, 1, 56, 0
3, 31800, Note_on_c, 1, 56, 27
3, 31800, Note_on_c, 1, 46, 27
3, 31800, Note_on_c, 1, 53, 27
3, 31849, Note_on_c, 1, 53, 0
3, 31849, Note_on_c, 1, 46, 0
3, 31849, Note_on_c, 1, 56, 0
3, 31860, Note_on_c, 1, 56, 27
3, 31860, Note_on_c, 1, 46, 27
3, 31860, Note_on_c, 1, 53, 27
3, 31909, Note_on_c, 1, 53, 0
3, 31909, Note_on_c, 1, 46, 0
3, 31909, Note_on_c, 1, 56, 0
3, 31920, Note_on_c, 1, 51, 26
3, 31920, Note_on_c, 1, 55, 26
3, 32039, Note_on_c, 1, 55, 0
3, 32039, Note_on_c, 1, 51, 0
3, 32160, Note_on_c, 1, 46, 24
3, 32279, Note_on_c, 1, 46, 0
3, 32400, Note_on_c, 1, 46, 24
3, 32519, Note_on_c, 1, 46, 0
3, 32640, Note_on_c, 1, 46, 24
3, 32759, Note_on_c, 1, 46, 0
3, 32880, Note_on_c, 1, 46, 24
3, 32999, Note_on_c, 1, 46, 0
3, 33120, Note_on_c, 1, 46, 24
3, 33239, Note_on_c, 1, 46, 0
3, 33360, Note_on_c, 1, 51, 34
3, 33479, Note_on_c, 1, 51, 0
3, 33600, Note_on_c, 1, 75, 45
3, 33600, Note_on_c, 1, 65, 35
3, 33600, Note_on_c, 1, 72, 35
3, 33839, Note_on_c, 1, 72, 0
3, 33839, Note_on_c, 1, 65, 0
3, 33839, Note_on_c, 1, 75, 0
3, 33840, Note_on_c, 1, 70, 35
3, 33840, Note_on_c, 1, 74, 35
3, 33959, Note_on_c, 1, 74, 0
3, 33959, Note_on_c, 1, 70, 0
3, 34080, Note_on_c, 1, 75, 45
3, 34080, Note_on_c, 1, 65, 35
3, 34080, Note_on_c, 1, 72, 35
3, 34199, Note_on_c, 1, 72, 0
3, 34199, Note_on_c, 1, 65, 0
3, 34199, Note_on_c, 1, 75, 0
3, 34320, Note_on_c, 1, 70, 24
3, 34320, Note_on_c, 1, 74, 35
3, 34439, Note_on_c, 1, 74, 0
3, 34439, Note_on_c, 1, 70, 0
3, 34560, Note_on_c, 1, 75, 55
3, 34560, Note_on_c, 1, 72, 45
3, 34560, Note_on_c, 1, 65, 45
3, 34679, Note_on_c, 1, 65, 0
3, 34679, Note_on_c, 1, 72, 0
3, 34679, Note_on_c, 1, 75, 0
3, 34800, Note_on_c, 1, 58, 44
3, 34800, Note_on_c, 1, 62, 44
3, 34919, Note_on_c, 1, 62, 0
3, 34919, Note_on_c, 1, 58, 0
3, 35040, Note_on_c, 1, 58, 49
3, 35040, Note_on_c, 1, 60, 49
3, 35040, Note_on_c, 1, 63, 49
3, 35159, Note_on_c, 1, 63, 0
3, 35159, Note_on_c, 1, 60, 0
3, 35159, Note_on_c, 1, 58, 0
3, 35280, Note_on_c, 1, 58, 55
3, 35280, Note_on_c, 1, 62, 55
3, 35280, Note_on_c, 1, 65, 55
3, 35519, Note_on_c, 1, 65, 0
3, 35519, Note_on_c, 1, 62, 0
3, 35519, Note_on_c, 1, 58, 0
3, 35520, Note_on_c, 1, 51, 33
3, 35520, Note_on_c, 1, 55, 33
3, 35579, Note_on_c, 1, 55, 0
3, 35580, Note_on_c, 1, 58, 33
3, 35639, Note_on_c, 1, 58, 0
3, 35639, Note_on_c, 1, 51, 0
3, 35640, Note_on_c, 1, 51, 33
3, 35640, Note_on_c, 1, 55, 33
3, 35699, Note_on_c, 1, 55, 0
3, 35700, Note_on_c, 1, 58, 33
3, 35759, Note_on_c, 1, 58, 0
3, 35759, Note_on_c, 1, 51, 0
3, 35760, Note_on_c, 1, 51, 33
3, 35760, Note_on_c, 1, 55, 33
3, 35819, Note_on_c, 1, 55, 0
3, 35820, Note_on_c, 1, 58, 33
3, 35879, Note_on_c, 1, 58, 0
3, 35879, Note_on_c, 1, 51, 0
3, 35880, Note_on_c, 1, 51, 33
3, 35880, Note_on_c, 1, 55, 33
3, 35939, Note_on_c, 1, 55, 0
3, 35940, Note_on_c, 1, 58, 33
3, 35979, Note_on_c, 1, 58, 0
3, 35999, Note_on_c, 1, 51, 0
3, 36000, Note_on_c, 1, 51, 30
3, 36059, Note_on_c, 1, 51, 0
3, 36060, Note_on_c, 1, 58, 41
3, 36060, Note_on_c, 1, 53, 31
3, 36119, Note_on_c, 1, 53, 0
3, 36120, Note_on_c, 1, 55, 34
3, 36179, Note_on_c, 1, 55, 0
3, 36179, Note_on_c, 1, 58, 0
3, 36180, Note_on_c, 1, 57, 36
3, 36180, Note_on_c, 1, 63, 36
3, 36229, Note_on_c, 1, 63, 0
3, 36239, Note_on_c, 1, 57, 0
3, 36240, Note_on_c, 1, 63, 46
3, 36240, Note_on_c, 1, 58, 38
3, 36289, Note_on_c, 1, 63, 0
3, 36300, Note_on_c, 1, 62, 33
3, 36329, Note_on_c, 1, 62, 0
3, 36330, Note_on_c, 1, 60, 30
3, 36359, Note_on_c, 1, 60, 0
3, 36360, Note_on_c, 1, 62, 27
3, 36419, Note_on_c, 1, 62, 0
3, 36419, Note_on_c, 1, 58, 0
3, 36480, Note_on_c, 1, 55, 33
3, 36480, Note_on_c, 1, 58, 33
3, 36480, Note_on_c, 1, 51, 33
3, 36539, Note_on_c, 1, 58, 0
3, 36540, Note_on_c, 1, 63, 33
3, 36599, Note_on_c, 1, 63, 0
3, 36599, Note_on_c, 1, 51, 0
3, 36599, Note_on_c, 1, 55, 0
3, 36600, Note_on_c, 1, 51, 33
3, 36600, Note_on_c, 1, 55, 33
3, 36600, Note_on_c, 1, 58, 33
3, 36659, Note_on_c, 1, 58, 0
3, 36660, Note_on_c, 1, 63, 33
3, 36719, Note_on_c, 1, 63, 0
3, 36719, Note_on_c, 1, 55, 0
3, 36719, Note_on_c, 1, 51, 0
3, 36720, Note_on_c, 1, 58, 33
3, 36720, Note_on_c, 1, 51, 33
3, 36720, Note_on_c, 1, 55, 33
3, 36779, Note_on_c, 1, 58, 0
3, 36780, Note_on_c, 1, 63, 33
3, 36839, Note_on_c, 1, 63, 0
3, 36839, Note_on_c, 1, 55, 0
3, 36839, Note_on_c, 1, 51, 0
3, 36840, Note_on_c, 1, 58, 33
3, 36840, Note_on_c, 1, 51, 33
3, 36840, Note_on_c, 1, 55, 33
3, 36899, Note_on_c, 1, 58, 0
3, 36900, Note_on_c, 1, 63, 33
3, 36939, Note_on_c, 1, 63, 0
3, 36959, Note_on_c, 1, 55, 0
3, 36959, Note_on_c, 1, 51, 0
3, 36960, Note_on_c, 1, 46, 29
3, 36960, Note_on_c, 1, 56, 29
3, 36960, Note_on_c, 1, 53, 29
3, 37009, Note_on_c, 1, 53, 0
3, 37009, Note_on_c, 1, 56, 0
3, 37009, Note_on_c, 1, 46, 0
3, 37020, Note_on_c, 1, 56, 28
3, 37020, Note_on_c, 1, 46, 28
3, 37020, Note_on_c, 1, 53, 28
3, 37069, Note_on_c, 1, 53, 0
3, 37069, Note_on_c, 1, 46, 0
3, 37069, Note_on_c, 1, 56, 0
3, 37080, Note_on_c, 1, 56, 27
3, 37080, Note_on_c, 1, 46, 27
3, 37080, Note_on_c, 1, 53, 27
3, 37129, Note_on_c, 1, 53, 0
3, 37129, Note_on_c, 1, 46, 0
3, 37129, Note_on_c, 1, 56, 0
3, 37140, Note_on_c, 1, 56, 27
3, 37140, Note_on_c, 1, 46, 27
3, 37140, Note_on_c, 1, 53, 27
3, 37189, Note_on_c, 1, 53, 0
3, 37189, Note_on_c, 1, 46, 0
3, 37189, Note_on_c, 1, 56, 0
3, 37200, Note_on_c, 1, 51, 26
3, 37200, Note_on_c, 1, 55, 26
3, 37319, Note_on_c, 1, 55, 0
3, 37319, Note_on_c, 1, 51, 0
3, 38400, Note_on_c, 1, 55, 27
3, 38459, Note_on_c, 1, 55, 0
3, 38520, Note_on_c, 1, 55, 30
3, 38579, Note_on_c, 1, 55, 0
3, 38640, Note_on_c, 1, 56, 32
3, 38699, Note_on_c, 1, 56, 0
3, 38760, Note_on_c, 1, 56, 35
3, 38819, Note_on_c, 1, 56, 0
3, 38880, Note_on_c, 1, 58, 42
3, 38939, Note_on_c, 1, 58, 0
3, 39000, Note_on_c, 1, 46, 32
3, 39059, Note_on_c, 1, 46, 0
3, 39120, Note_on_c, 1, 51, 22
3, 39179, Note_on_c, 1, 51, 0
3, 39240, Note_on_c, 1, 51, 32
3, 39299, Note_on_c, 1, 51, 0
3, 39360, Note_on_c, 1, 51, 32
3, 39419, Note_on_c, 1, 51, 0
3, 39600, Note_on_c, 1, 51, 32
3, 39659, Note_on_c, 1, 51, 0
3, 39840, Note_on_c, 1, 51, 32
3, 39899, Note_on_c, 1, 51, 0
3, 40080, Note_on_c, 1, 51, 32
3, 40139, Note_on_c, 1, 51, 0
3, 40320, Note_on_c, 1, 55, 32
3, 40379, Note_on_c, 1, 55, 0
3, 40440, Note_on_c, 1, 55, 32
3, 40499, Note_on_c, 1, 55, 0
3, 40560, Note_on_c, 1, 56, 35
3, 40619, Note_on_c, 1, 56, 0
3, 40680, Note_on_c, 1, 57, 39
3, 40739, Note_on_c, 1, 57, 0
3, 40800, Note_on_c, 1, 58, 42
3, 40859, Note_on_c, 1, 58, 0
3, 40920, Note_on_c, 1, 46, 32
3, 40979, Note_on_c, 1, 46, 0
3, 41040, Note_on_c, 1, 51, 32
3, 41099, Note_on_c, 1, 51, 0
3, 41160, Note_on_c, 1, 63, 32
3, 41160, Note_on_c, 1, 67, 42
3, 41160, Note_on_c, 1, 60, 32
3, 41219, Note_on_c, 1, 60, 0
3, 41219, Note_on_c, 1, 67, 0
3, 41219, Note_on_c, 1, 63, 0
3, 41280, Note_on_c, 1, 63, 32
3, 41280, Note_on_c, 1, 60, 32
3, 41280, Note_on_c, 1, 65, 42
3, 41339, Note_on_c, 1, 65, 0
3, 41339, Note_on_c, 1, 60, 0
3, 41339, Note_on_c, 1, 63, 0
3, 41400, Note_on_c, 1, 58, 32
3, 41400, Note_on_c, 1, 62, 32
3, 41400, Note_on_c, 1, 65, 42
3, 41459, Note_on_c, 1, 65, 0
3, 41459, Note_on_c, 1, 62, 0
3, 41459, Note_on_c, 1, 58, 0
3, 41520, Note_on_c, 1, 58, 32
3, 41520, Note_on_c, 1, 63, 32
3, 41520, Note_on_c, 1, 67, 42
3, 41579, Note_on_c, 1, 67, 0
3, 41579, Note_on_c, 1, 63, 0
3, 41579, Note_on_c, 1, 58, 0
3, 41640, Note_on_c, 1, 60, 32
3, 41640, Note_on_c, 1, 67, 42
3, 41640, Note_on_c, 1, 63, 32
3, 41699, Note_on_c, 1, 63, 0
3, 41699, Note_on_c, 1, 67, 0
3, 41699, Note_on_c, 1, 60, 0
3, 41760, Note_on_c, 1, 60, 32
3, 41760, Note_on_c, 1, 63, 32
3, 41760, Note_on_c, 1, 65, 42
3, 41819, Note_on_c, 1, 65, 0
3, 41819, Note_on_c, 1, 63, 0
3, 41819, Note_on_c, 1, 60, 0
3, 41880, Note_on_c, 1, 58, 32
3, 41880, Note_on_c, 1, 62, 32
3, 41880, Note_on_c, 1, 65, 42
3, 41939, Note_on_c, 1, 65, 0
3, 41939, Note_on_c, 1, 62, 0
3, 41939, Note_on_c, 1, 58, 0
3, 42000, Note_on_c, 1, 58, 32
3, 42000, Note_on_c, 1, 63, 32
3, 42000, Note_on_c, 1, 67, 42
3, 42059, Note_on_c, 1, 67, 0
3, 42059, Note_on_c, 1, 63, 0
3, 42059, Note_on_c, 1, 58, 0
3, 42120, Note_on_c, 1, 60, 32
3, 42120, Note_on_c, 1, 63, 32
3, 42120, Note_on_c, 1, 67, 42
3, 42179, Note_on_c, 1, 67, 0
3, 42179, Note_on_c, 1, 63, 0
3, 42179, Note_on_c, 1, 60, 0
3, 42240, Note_on_c, 1, 60, 32
3, 42240, Note_on_c, 1, 63, 32
3, 42240, Note_on_c, 1, 65, 42
3, 42299, Note_on_c, 1, 65, 0
3, 42299, Note_on_c, 1, 63, 0
3, 42299, Note_on_c, 1, 60, 0
3, 42360, Note_on_c, 1, 68, 42
3, 42360, Note_on_c, 1, 58, 32
3, 42360, Note_on_c, 1, 62, 32
3, 42419, Note_on_c, 1, 62, 0
3, 42419, Note_on_c, 1, 58, 0
3, 42419, Note_on_c, 1, 68, 0
3, 42480, Note_on_c, 1, 51, 32
3, 42480, Note_on_c, 1, 55, 42
3, 42539, Note_on_c, 1, 55, 0
3, 42539, Note_on_c, 1, 51, 0
3, 42600, Note_on_c, 1, 51, 32
3, 42600, Note_on_c, 1, 58, 42
3, 42600, Note_on_c, 1, 55, 32
3, 42659, Note_on_c, 1, 55, 0
3, 42659, Note_on_c, 1, 58, 0
3, 42659, Note_on_c, 1, 51, 0
3, 42720, Note_on_c, 1, 51, 22
3, 42720, Note_on_c, 1, 58, 32
3, 42720, Note_on_c, 1, 55, 22
3, 42839, Note_on_c, 1, 55, 0
3, 42839, Note_on_c, 1, 58, 0
3, 42839, Note_on_c, 1, 51, 0
3, 42839, End_track
4, 0, Start_track
4, 0, MIDI_port, 0
4, 0, Title_t, "Flutes"
4, 20, Control_c, 2, 121, 0
4, 21, Control_c, 2, 11, 127
4, 21, Control_c, 2, 7, 127
4, 22, Control_c, 2, 93, 10
4, 22, Control_c, 2, 91, 89
4, 25, Control_c, 2, 10, 64
4, 26, Pitch_bend_c, 2, 8192
4, 27, Control_c, 2, 0, 0
4, 28, Control_c, 2, 32, 0
4, 29, Program_c, 2, 73
4, 2400, Note_on_c, 2, 82, 44
4, 2879, Note_on_c, 2, 82, 0
4, 3360, Note_on_c, 2, 87, 55
4, 3839, Note_on_c, 2, 87, 0
4, 3840, Note_on_c, 2, 82, 35
4, 3893, Note_on_c, 2, 82, 0
4, 3900, Note_on_c, 2, 82, 35
4, 3953, Note_on_c, 2, 82, 0
4, 3960, Note_on_c, 2, 82, 35
4, 4013, Note_on_c, 2, 82, 0
4, 4020, Note_on_c, 2, 82, 35
4, 4073, Note_on_c, 2, 82, 0
4, 4080, Note_on_c, 2, 75, 25
4, 4133, Note_on_c, 2, 75, 0
4, 9120, Note_on_c, 2, 82, 25
4, 9163, Note_on_c, 2, 82, 0
4, 9180, Note_on_c, 2, 82, 25
4, 9223, Note_on_c, 2, 82, 0
4, 9240, Note_on_c, 2, 82, 25
4, 9283, Note_on_c, 2, 82, 0
4, 9300, Note_on_c, 2, 82, 25
4, 9343, Note_on_c, 2, 82, 0
4, 9360, Note_on_c, 2, 75, 20
4, 9479, Note_on_c, 2, 75, 0
4, 10455, Note_on_c, 2, 67, 35
4, 10469, Note_on_c, 2, 67, 0
4, 10470, Note_on_c, 2, 71, 36
4, 10484, Note_on_c, 2, 71, 0
4, 10485, Note_on_c, 2, 74, 37
4, 10499, Note_on_c, 2, 74, 0
4, 10500, Note_on_c, 2, 79, 39
4, 10514, Note_on_c, 2, 79, 0
4, 10515, Note_on_c, 2, 83, 40
4, 10529, Note_on_c, 2, 83, 0
4, 10530, Note_on_c, 2, 86, 42
4, 10544, Note_on_c, 2, 86, 0
4, 10545, Note_on_c, 2, 79, 43
4, 10559, Note_on_c, 2, 79, 0
4, 10560, Note_on_c, 2, 87, 35
4, 10695, Note_on_c, 2, 84, 35
4, 10709, Note_on_c, 2, 84, 0
4, 10709, Note_on_c, 2, 87, 0
4, 10710, Note_on_c, 2, 81, 36
4, 10724, Note_on_c, 2, 81, 0
4, 10725, Note_on_c, 2, 78, 37
4, 10739, Note_on_c, 2, 78, 0
4, 10740, Note_on_c, 2, 75, 39
4, 10754, Note_on_c, 2, 75, 0
4, 10755, Note_on_c, 2, 72, 40
4, 10769, Note_on_c, 2, 72, 0
4, 10770, Note_on_c, 2, 69, 42
4, 10784, Note_on_c, 2, 69, 0
4, 10785, Note_on_c, 2, 66, 43
4, 10799, Note_on_c, 2, 66, 0
4, 10800, Note_on_c, 2, 86, 35
4, 10919, Note_on_c, 2, 86, 0
4, 10935, Note_on_c, 2, 82, 33
4, 10949, Note_on_c, 2, 82, 0
4, 10950, Note_on_c, 2, 79, 33
4, 10964, Note_on_c, 2, 79, 0
4, 10965, Note_on_c, 2, 74, 33
4, 10979, Note_on_c, 2, 74, 0
4, 10980, Note_on_c, 2, 79, 33
4, 10994, Note_on_c, 2, 79, 0
4, 10995, Note_on_c, 2, 74, 33
4, 11009, Note_on_c, 2, 74, 0
4, 11010, Note_on_c, 2, 70, 33
4, 11024, Note_on_c, 2, 70, 0
4, 11025, Note_on_c, 2, 67, 33
4, 11039, Note_on_c, 2, 67, 0
4, 11070, Note_on_c, 2, 81, 33
4, 11099, Note_on_c, 2, 81, 0
4, 11100, Note_on_c, 2, 84, 33
4, 11129, Note_on_c, 2, 84, 0
4, 11130, Note_on_c, 2, 81, 33
4, 11159, Note_on_c, 2, 81, 0
4, 11190, Note_on_c, 2, 79, 33
4, 11219, Note_on_c, 2, 79, 0
4, 11250, Note_on_c, 2, 78, 28
4, 11279, Note_on_c, 2, 78, 0
4, 11280, Note_on_c, 2, 79, 25
4, 11399, Note_on_c, 2, 79, 0
4, 13815, Note_on_c, 2, 80, 44
4, 13829, Note_on_c, 2, 80, 0
4, 13830, Note_on_c, 2, 79, 43
4, 13844, Note_on_c, 2, 79, 0
4, 13845, Note_on_c, 2, 77, 41
4, 13859, Note_on_c, 2, 77, 0
4, 13860, Note_on_c, 2, 75, 39
4, 13874, Note_on_c, 2, 75, 0
4, 13875, Note_on_c, 2, 74, 37
4, 13889, Note_on_c, 2, 74, 0
4, 13890, Note_on_c, 2, 79, 35
4, 13904, Note_on_c, 2, 79, 0
4, 13905, Note_on_c, 2, 77, 33
4, 13919, Note_on_c, 2, 77, 0
4, 13920, Note_on_c, 2, 75, 31
4, 14039, Note_on_c, 2, 75, 0
4, 14295, Note_on_c, 2, 67, 25
4, 14309, Note_on_c, 2, 67, 0
4, 14310, Note_on_c, 2, 71, 26
4, 14324, Note_on_c, 2, 71, 0
4, 14325, Note_on_c, 2, 74, 27
4, 14339, Note_on_c, 2, 74, 0
4, 14340, Note_on_c, 2, 79, 29
4, 14354, Note_on_c, 2, 79, 0
4, 14355, Note_on_c, 2, 83, 30
4, 14369, Note_on_c, 2, 83, 0
4, 14370, Note_on_c, 2, 86, 32
4, 14384, Note_on_c, 2, 86, 0
4, 14385, Note_on_c, 2, 79, 33
4, 14399, Note_on_c, 2, 79, 0
4, 14400, Note_on_c, 2, 89, 44
4, 14519, Note_on_c, 2, 89, 0
4, 14535, Note_on_c, 2, 86, 37
4, 14549, Note_on_c, 2, 86, 0
4, 14550, Note_on_c, 2, 83, 36
4, 14564, Note_on_c, 2, 83, 0
4, 14565, Note_on_c, 2, 80, 36
4, 14579, Note_on_c, 2, 80, 0
4, 14580, Note_on_c, 2, 77, 35
4, 14594, Note_on_c, 2, 77, 0
4, 14595, Note_on_c, 2, 74, 34
4, 14604, Note_on_c, 2, 74, 0
4, 14610, Note_on_c, 2, 74, 33
4, 14624, Note_on_c, 2, 74, 0
4, 14625, Note_on_c, 2, 71, 32
4, 14634, Note_on_c, 2, 71, 0
4, 14640, Note_on_c, 2, 87, 44
4, 14759, Note_on_c, 2, 87, 0
4, 14775, Note_on_c, 2, 84, 37
4, 14789, Note_on_c, 2, 84, 0
4, 14790, Note_on_c, 2, 81, 36
4, 14804, Note_on_c, 2, 81, 0
4, 14805, Note_on_c, 2, 78, 36
4, 14819, Note_on_c, 2, 78, 0
4, 14820, Note_on_c, 2, 75, 35
4, 14834, Note_on_c, 2, 75, 0
4, 14835, Note_on_c, 2, 72, 34
4, 14849, Note_on_c, 2, 72, 0
4, 14850, Note_on_c, 2, 69, 33
4, 14864, Note_on_c, 2, 69, 0
4, 14865, Note_on_c, 2, 66, 32
4, 14879, Note_on_c, 2, 66, 0
4, 14880, Note_on_c, 2, 67, 33
4, 15059, Note_on_c, 2, 67, 0
4, 15060, Note_on_c, 2, 83, 33
4, 15099, Note_on_c, 2, 83, 0
4, 15120, Note_on_c, 2, 83, 33
4, 15239, Note_on_c, 2, 83, 0
4, 15240, Note_on_c, 2, 84, 23
4, 15299, Note_on_c, 2, 84, 0
4, 18479, Control_c, 2, 11, 46
4, 18480, Note_on_c, 2, 86, 33
4, 18481, Control_c, 2, 11, 47
4, 18487, Control_c, 2, 11, 48
4, 18493, Control_c, 2, 11, 49
4, 18499, Control_c, 2, 11, 50
4, 18505, Control_c, 2, 11, 51
4, 18511, Control_c, 2, 11, 52
4, 18517, Control_c, 2, 11, 53
4, 18523, Control_c, 2, 11, 54
4, 18529, Control_c, 2, 11, 55
4, 18535, Control_c, 2, 11, 56
4, 18541, Control_c, 2, 11, 58
4, 18547, Control_c, 2, 11, 60
4, 18553, Control_c, 2, 11, 62
4, 18559, Control_c, 2, 11, 64
4, 18565, Control_c, 2, 11, 66
4, 18571, Control_c, 2, 11, 68
4, 18577, Control_c, 2, 11, 70
4, 18583, Control_c, 2, 11, 72
4, 18589, Control_c, 2, 11, 74
4, 18595, Control_c, 2, 11, 76
4, 18601, Control_c, 2, 11, 79
4, 18607, Control_c, 2, 11, 82
4, 18613, Control_c, 2, 11, 85
4, 18619, Control_c, 2, 11, 88
4, 18625, Control_c, 2, 11, 91
4, 18631, Control_c, 2, 11, 94
4, 18637, Control_c, 2, 11, 97
4, 18643, Control_c, 2, 11, 100
4, 18649, Control_c, 2, 11, 103
4, 18655, Control_c, 2, 11, 106
4, 18661, Control_c, 2, 11, 110
4, 18667, Control_c, 2, 11, 114
4, 18673, Control_c, 2, 11, 118
4, 18679, Control_c, 2, 11, 122
4, 18685, Control_c, 2, 11, 126
4, 18719, Note_on_c, 2, 86, 0
4, 18719, Control_c, 2, 11, 127
4, 18720, Note_on_c, 2, 87, 23
4, 18839, Note_on_c, 2, 87, 0
4, 20160, Note_on_c, 2, 82, 23
4, 20199, Note_on_c, 2, 82, 0
4, 20220, Note_on_c, 2, 82, 26
4, 20259, Note_on_c, 2, 82, 0
4, 20280, Note_on_c, 2, 82, 28
4, 20319, Note_on_c, 2, 82, 0
4, 20340, Note_on_c, 2, 82, 21
4, 20379, Note_on_c, 2, 82, 0
4, 20400, Note_on_c, 2, 87, 33
4, 20499, Note_on_c, 2, 87, 0
4, 21540, Note_on_c, 2, 70, 43
4, 21569, Note_on_c, 2, 70, 0
4, 21600, Note_on_c, 2, 82, 43
4, 21779, Note_on_c, 2, 82, 0
4, 21780, Note_on_c, 2, 70, 43
4, 21809, Note_on_c, 2, 70, 0
4, 21840, Note_on_c, 2, 82, 43
4, 22139, Note_on_c, 2, 82, 0
4, 22140, Note_on_c, 2, 84, 33
4, 22169, Note_on_c, 2, 84, 0
4, 22200, Note_on_c, 2, 82, 38
4, 22229, Note_on_c, 2, 82, 0
4, 22230, Note_on_c, 2, 87, 39
4, 22259, Note_on_c, 2, 87, 0
4, 22260, Note_on_c, 2, 86, 40
4, 22289, Note_on_c, 2, 86, 0
4, 22290, Note_on_c, 2, 89, 42
4, 22309, Note_on_c, 2, 89, 0
4, 22320, Note_on_c, 2, 87, 33
4, 22379, Note_on_c, 2, 87, 0
4, 25440, Note_on_c, 2, 85, 35
4, 25469, Note_on_c, 2, 85, 0
4, 25470, Note_on_c, 2, 82, 32
4, 25499, Note_on_c, 2, 82, 0
4, 25500, Note_on_c, 2, 80, 29
4, 25529, Note_on_c, 2, 80, 0
4, 25530, Note_on_c, 2, 79, 25
4, 25564, Note_on_c, 2, 79, 0
4, 25680, Note_on_c, 2, 85, 30
4, 25709, Note_on_c, 2, 85, 0
4, 25710, Note_on_c, 2, 82, 33
4, 25739, Note_on_c, 2, 82, 0
4, 25740, Note_on_c, 2, 80, 33
4, 25769, Note_on_c, 2, 80, 0
4, 25770, Note_on_c, 2, 79, 33
4, 25789, Note_on_c, 2, 79, 0
4, 25800, Note_on_c, 2, 87, 34
4, 25830, Note_on_c, 2, 84, 35
4, 25844, Note_on_c, 2, 87, 0
4, 25859, Note_on_c, 2, 84, 0
4, 25860, Note_on_c, 2, 82, 37
4, 25889, Note_on_c, 2, 82, 0
4, 25890, Note_on_c, 2, 81, 39
4, 25909, Note_on_c, 2, 81, 0
4, 25920, Note_on_c, 2, 82, 45
4, 25979, Note_on_c, 2, 82, 0
4, 26010, Note_on_c, 2, 89, 32
4, 26024, Note_on_c, 2, 89, 0
4, 26040, Note_on_c, 2, 87, 30
4, 26069, Note_on_c, 2, 87, 0
4, 26070, Note_on_c, 2, 84, 29
4, 26084, Note_on_c, 2, 84, 0
4, 26100, Note_on_c, 2, 85, 28
4, 26129, Note_on_c, 2, 85, 0
4, 26130, Note_on_c, 2, 82, 27
4, 26144, Note_on_c, 2, 82, 0
4, 26160, Note_on_c, 2, 80, 25
4, 26219, Note_on_c, 2, 80, 0
4, 29400, Note_on_c, 2, 89, 43
4, 29429, Note_on_c, 2, 89, 0
4, 29430, Note_on_c, 2, 88, 43
4, 29449, Note_on_c, 2, 88, 0
4, 29460, Note_on_c, 2, 88, 39
4, 29489, Note_on_c, 2, 88, 0
4, 29490, Note_on_c, 2, 89, 33
4, 29509, Note_on_c, 2, 89, 0
4, 29640, Note_on_c, 2, 87, 43
4, 29669, Note_on_c, 2, 87, 0
4, 29670, Note_on_c, 2, 86, 43
4, 29689, Note_on_c, 2, 86, 0
4, 29700, Note_on_c, 2, 86, 39
4, 29729, Note_on_c, 2, 86, 0
4, 29730, Note_on_c, 2, 87, 33
4, 29749, Note_on_c, 2, 87, 0
4, 29910, Note_on_c, 2, 87, 43
4, 29929, Note_on_c, 2, 87, 0
4, 29940, Note_on_c, 2, 87, 42
4, 29969, Note_on_c, 2, 87, 0
4, 29970, Note_on_c, 2, 86, 41
4, 29989, Note_on_c, 2, 86, 0
4, 30000, Note_on_c, 2, 86, 39
4, 30029, Note_on_c, 2, 86, 0
4, 30030, Note_on_c, 2, 84, 38
4, 30049, Note_on_c, 2, 84, 0
4, 30060, Note_on_c, 2, 84, 37
4, 30089, Note_on_c, 2, 84, 0
4, 30090, Note_on_c, 2, 82, 35
4, 30109, Note_on_c, 2, 82, 0
4, 30120, Note_on_c, 2, 82, 34
4, 30149, Note_on_c, 2, 82, 0
4, 30150, Note_on_c, 2, 86, 33
4, 30169, Note_on_c, 2, 86, 0
4, 30180, Note_on_c, 2, 86, 31
4, 30209, Note_on_c, 2, 86, 0
4, 30210, Note_on_c, 2, 87, 30
4, 30229, Note_on_c, 2, 87, 0
4, 30240, Note_on_c, 2, 87, 25
4, 30299, Note_on_c, 2, 87, 0
4, 36000, Note_on_c, 2, 91, 37
4, 36059, Note_on_c, 2, 91, 0
4, 36060, Note_on_c, 2, 86, 40
4, 36119, Note_on_c, 2, 86, 0
4, 36120, Note_on_c, 2, 87, 46
4, 36179, Note_on_c, 2, 87, 0
4, 36180, Note_on_c, 2, 89, 39
4, 36239, Note_on_c, 2, 89, 0
4, 36240, Note_on_c, 2, 82, 33
4, 36479, Note_on_c, 2, 82, 0
4, 36960, Note_on_c, 2, 82, 46
4, 36999, Note_on_c, 2, 82, 0
4, 37020, Note_on_c, 2, 82, 43
4, 37059, Note_on_c, 2, 82, 0
4, 37080, Note_on_c, 2, 82, 40
4, 37119, Note_on_c, 2, 82, 0
4, 37140, Note_on_c, 2, 82, 36
4, 37179, Note_on_c, 2, 82, 0
4, 37200, Note_on_c, 2, 87, 33
4, 37319, Note_on_c, 2, 87, 0
4, 37695, Note_on_c, 2, 63, 22
4, 37709, Note_on_c, 2, 63, 0
4, 37710, Note_on_c, 2, 65, 22
4, 37724, Note_on_c, 2, 65, 0
4, 37725, Note_on_c, 2, 67, 23
4, 37739, Note_on_c, 2, 67, 0
4, 37740, Note_on_c, 2, 68, 24
4, 37754, Note_on_c, 2, 68, 0
4, 37755, Note_on_c, 2, 70, 24
4, 37769, Note_on_c, 2, 70, 0
4, 37770, Note_on_c, 2, 72, 25
4, 37784, Note_on_c, 2, 72, 0
4, 37785, Note_on_c, 2, 74, 26
4, 37799, Note_on_c, 2, 74, 0
4, 37800, Note_on_c, 2, 75, 27
4, 37814, Note_on_c, 2, 75, 0
4, 37815, Note_on_c, 2, 77, 27
4, 37829, Note_on_c, 2, 77, 0
4, 37830, Note_on_c, 2, 79, 28
4, 37844, Note_on_c, 2, 79, 0
4, 37845, Note_on_c, 2, 80, 29
4, 37859, Note_on_c, 2, 80, 0
4, 37860, Note_on_c, 2, 82, 30
4, 37874, Note_on_c, 2, 82, 0
4, 37875, Note_on_c, 2, 84, 30
4, 37889, Note_on_c, 2, 84, 0
4, 37890, Note_on_c, 2, 86, 31
4, 37904, Note_on_c, 2, 86, 0
4, 37905, Note_on_c, 2, 87, 32
4, 37919, Note_on_c, 2, 87, 0
4, 38175, Note_on_c, 2, 63, 22
4, 38189, Note_on_c, 2, 63, 0
4, 38190, Note_on_c, 2, 65, 22
4, 38204, Note_on_c, 2, 65, 0
4, 38205, Note_on_c, 2, 67, 23
4, 38219, Note_on_c, 2, 67, 0
4, 38220, Note_on_c, 2, 68, 24
4, 38234, Note_on_c, 2, 68, 0
4, 38235, Note_on_c, 2, 70, 24
4, 38249, Note_on_c, 2, 70, 0
4, 38250, Note_on_c, 2, 72, 25
4, 38264, Note_on_c, 2, 72, 0
4, 38265, Note_on_c, 2, 74, 26
4, 38279, Note_on_c, 2, 74, 0
4, 38280, Note_on_c, 2, 75, 27
4, 38294, Note_on_c, 2, 75, 0
4, 38295, Note_on_c, 2, 77, 27
4, 38309, Note_on_c, 2, 77, 0
4, 38310, Note_on_c, 2, 79, 28
4, 38324, Note_on_c, 2, 79, 0
4, 38325, Note_on_c, 2, 80, 29
4, 38339, Note_on_c, 2, 80, 0
4, 38340, Note_on_c, 2, 82, 30
4, 38354, Note_on_c, 2, 82, 0
4, 38355, Note_on_c, 2, 84, 30
4, 38369, Note_on_c, 2, 84, 0
4, 38370, Note_on_c, 2, 86, 31
4, 38384, Note_on_c, 2, 86, 0
4, 38385, Note_on_c, 2, 87, 32
4, 38399, Note_on_c, 2, 87, 0
4, 39360, Note_on_c, 2, 87, 27
4, 39509, Note_on_c, 2, 87, 0
4, 39510, Note_on_c, 2, 86, 24
4, 39524, Note_on_c, 2, 86, 0
4, 39540, Note_on_c, 2, 86, 23
4, 39569, Note_on_c, 2, 86, 0
4, 39570, Note_on_c, 2, 84, 22
4, 39599, Note_on_c, 2, 84, 0
4, 39600, Note_on_c, 2, 82, 21
4, 39714, Note_on_c, 2, 82, 0
4, 39840, Note_on_c, 2, 87, 27
4, 39989, Note_on_c, 2, 87, 0
4, 39990, Note_on_c, 2, 86, 24
4, 40004, Note_on_c, 2, 86, 0
4, 40020, Note_on_c, 2, 86, 23
4, 40049, Note_on_c, 2, 86, 0
4, 40050, Note_on_c, 2, 84, 22
4, 40079, Note_on_c, 2, 84, 0
4, 40080, Note_on_c, 2, 82, 21
4, 40194, Note_on_c, 2, 82, 0
4, 41580, Note_on_c, 2, 79, 33
4, 41639, Note_on_c, 2, 79, 0
4, 41640, Note_on_c, 2, 87, 33
4, 41669, Note_on_c, 2, 87, 0
4, 41700, Note_on_c, 2, 87, 23
4, 41719, Note_on_c, 2, 87, 0
4, 42060, Note_on_c, 2, 79, 33
4, 42119, Note_on_c, 2, 79, 0
4, 42120, Note_on_c, 2, 87, 33
4, 42149, Note_on_c, 2, 87, 0
4, 42180, Note_on_c, 2, 87, 23
4, 42199, Note_on_c, 2, 87, 0
4, 42239, Control_c, 2, 11, 66
4, 42240, Note_on_c, 2, 87, 43
4, 42359, Note_on_c, 2, 87, 0
4, 42360, Note_on_c, 2, 86, 43
4, 42361, Control_c, 2, 11, 67
4, 42364, Control_c, 2, 11, 68
4, 42367, Control_c, 2, 11, 69
4, 42370, Control_c, 2, 11, 70
4, 42373, Control_c, 2, 11, 71
4, 42376, Control_c, 2, 11, 72
4, 42379, Control_c, 2, 11, 73
4, 42382, Control_c, 2, 11, 74
4, 42385, Control_c, 2, 11, 75
4, 42388, Control_c, 2, 11, 76
4, 42391, Control_c, 2, 11, 77
4, 42394, Control_c, 2, 11, 78
4, 42397, Control_c, 2, 11, 80
4, 42400, Control_c, 2, 11, 82
4, 42403, Control_c, 2, 11, 84
4, 42406, Control_c, 2, 11, 86
4, 42409, Control_c, 2, 11, 88
4, 42412, Control_c, 2, 11, 90
4, 42415, Control_c, 2, 11, 92
4, 42418, Control_c, 2, 11, 94
4, 42421, Control_c, 2, 11, 96
4, 42424, Control_c, 2, 11, 98
4, 42427, Control_c, 2, 11, 100
4, 42430, Control_c, 2, 11, 103
4, 42433, Control_c, 2, 11, 106
4, 42436, Control_c, 2, 11, 109
4, 42439, Control_c, 2, 11, 112
4, 42442, Control_c, 2, 11, 115
4, 42445, Control_c, 2, 11, 118
4, 42448, Control_c, 2, 11, 121
4, 42451, Control_c, 2, 11, 124
4, 42454, Control_c, 2, 11, 127
4, 42459, Note_on_c, 2, 86, 0
4, 42479, Control_c, 2, 11, 127
4, 42480, Note_on_c, 2, 87, 30
4, 42509, Note_on_c, 2, 87, 0
4, 42600, Note_on_c, 2, 87, 23
4, 42629, Note_on_c, 2, 87, 0
4, 42720, Note_on_c, 2, 87, 21
4, 42799, Note_on_c, 2, 87, 0
4, 42799, End_track
5, 0, Start_track
5, 0, MIDI_port, 0
5, 0, Title_t, "Oboes"
5, 20, Control_c, 3, 121, 0
5, 21, Control_c, 3, 11, 127
5, 21, Control_c, 3, 7, 127
5, 22, Control_c, 3, 93, 10
5, 22, Control_c, 3, 91, 79
5, 25, Control_c, 3, 10, 54
5, 26, Pitch_bend_c, 3, 8192
5, 27, Control_c, 3, 0, 0
5, 28, Control_c, 3, 32, 0
5, 29, Program_c, 3, 68
5, 2400, Note_on_c, 3, 70, 44
5, 2400, Note_on_c, 3, 67, 34
5, 2879, Note_on_c, 3, 67, 0
5, 2879, Note_on_c, 3, 70, 0
5, 2880, Note_on_c, 3, 79, 44
5, 2939, Note_on_c, 3, 79, 0
5, 2940, Note_on_c, 3, 74, 42
5, 2999, Note_on_c, 3, 74, 0
5, 3000, Note_on_c, 3, 75, 39
5, 3059, Note_on_c, 3, 75, 0
5, 3060, Note_on_c, 3, 77, 34
5, 3119, Note_on_c, 3, 77, 0
5, 3120, Note_on_c, 3, 70, 31
5, 3329, Note_on_c, 3, 70, 0
5, 3360, Note_on_c, 3, 75, 33
5, 3360, Note_on_c, 3, 79, 43
5, 3839, Note_on_c, 3, 79, 0
5, 3839, Note_on_c, 3, 75, 0
5, 3840, Note_on_c, 3, 68, 25
5, 3840, Note_on_c, 3, 74, 25
5, 3893, Note_on_c, 3, 74, 0
5, 3893, Note_on_c, 3, 68, 0
5, 3900, Note_on_c, 3, 68, 25
5, 3900, Note_on_c, 3, 74, 25
5, 3953, Note_on_c, 3, 74, 0
5, 3953, Note_on_c, 3, 68, 0
5, 3960, Note_on_c, 3, 74, 24
5, 3960, Note_on_c, 3, 68, 24
5, 4013, Note_on_c, 3, 68, 0
5, 4013, Note_on_c, 3, 74, 0
5, 4020, Note_on_c, 3, 68, 23
5, 4020, Note_on_c, 3, 74, 23
5, 4073, Note_on_c, 3, 74, 0
5, 4073, Note_on_c, 3, 68, 0
5, 4080, Note_on_c, 3, 75, 22
5, 4080, Note_on_c, 3, 67, 22
5, 4187, Note_on_c, 3, 67, 0
5, 4187, Note_on_c, 3, 75, 0
5, 5999, Control_c, 3, 11, 46
5, 6000, Note_on_c, 3, 77, 38
5, 6001, Control_c, 3, 11, 47
5, 6007, Control_c, 3, 11, 48
5, 6013, Control_c, 3, 11, 49
5, 6019, Control_c, 3, 11, 50
5, 6025, Control_c, 3, 11, 51
5, 6031, Control_c, 3, 11, 52
5, 6037, Control_c, 3, 11, 53
5, 6043, Control_c, 3, 11, 54
5, 6049, Control_c, 3, 11, 55
5, 6055, Control_c, 3, 11, 56
5, 6061, Control_c, 3, 11, 58
5, 6067, Control_c, 3, 11, 60
5, 6073, Control_c, 3, 11, 62
5, 6079, Control_c, 3, 11, 64
5, 6085, Control_c, 3, 11, 66
5, 6091, Control_c, 3, 11, 68
5, 6097, Control_c, 3, 11, 70
5, 6103, Control_c, 3, 11, 72
5, 6109, Control_c, 3, 11, 74
5, 6115, Control_c, 3, 11, 76
5, 6121, Control_c, 3, 11, 79
5, 6127, Control_c, 3, 11, 82
5, 6133, Control_c, 3, 11, 85
5, 6139, Control_c, 3, 11, 88
5, 6145, Control_c, 3, 11, 91
5, 6151, Control_c, 3, 11, 94
5, 6157, Control_c, 3, 11, 97
5, 6163, Control_c, 3, 11, 100
5, 6169, Control_c, 3, 11, 103
5, 6175, Control_c, 3, 11, 106
5, 6181, Control_c, 3, 11, 110
5, 6187, Control_c, 3, 11, 114
5, 6193, Control_c, 3, 11, 118
5, 6199, Control_c, 3, 11, 122
5, 6205, Control_c, 3, 11, 126
5, 6959, Note_on_c, 3, 77, 0
5, 6960, Note_on_c, 3, 82, 33
5, 6960, Note_on_c, 3, 74, 23
5, 7199, Note_on_c, 3, 74, 0
5, 7199, Note_on_c, 3, 82, 0
5, 7200, Note_on_c, 3, 75, 23
5, 7200, Note_on_c, 3, 81, 33
5, 7439, Note_on_c, 3, 81, 0
5, 7439, Note_on_c, 3, 75, 0
5, 7440, Note_on_c, 3, 80, 38
5, 7440, Note_on_c, 3, 77, 29
5, 7559, Note_on_c, 3, 77, 0
5, 7559, Note_on_c, 3, 80, 0
5, 9600, Note_on_c, 3, 75, 33
5, 9600, Note_on_c, 3, 79, 44
5, 9719, Note_on_c, 3, 79, 0
5, 9719, Note_on_c, 3, 75, 0
5, 9750, Note_on_c, 3, 75, 33
5, 9750, Note_on_c, 3, 79, 44
5, 9779, Note_on_c, 3, 79, 0
5, 9779, Note_on_c, 3, 75, 0
5, 9780, Note_on_c, 3, 74, 33
5, 9780, Note_on_c, 3, 78, 44
5, 9809, Note_on_c, 3, 78, 0
5, 9809, Note_on_c, 3, 74, 0
5, 9810, Note_on_c, 3, 75, 33
5, 9810, Note_on_c, 3, 79, 44
5, 9839, Note_on_c, 3, 79, 0
5, 9839, Note_on_c, 3, 75, 0
5, 9840, Note_on_c, 3, 77, 33
5, 9840, Note_on_c, 3, 80, 44
5, 9959, Note_on_c, 3, 80, 0
5, 9959, Note_on_c, 3, 77, 0
5, 9990, Note_on_c, 3, 77, 33
5, 9990, Note_on_c, 3, 80, 44
5, 10019, Note_on_c, 3, 80, 0
5, 10019, Note_on_c, 3, 77, 0
5, 10020, Note_on_c, 3, 75, 33
5, 10020, Note_on_c, 3, 79, 44
5, 10049, Note_on_c, 3, 79, 0
5, 10049, Note_on_c, 3, 75, 0
5, 10050, Note_on_c, 3, 74, 29
5, 10050, Note_on_c, 3, 77, 34
5, 10079, Note_on_c, 3, 77, 0
5, 10079, Note_on_c, 3, 74, 0
5, 10110, Note_on_c, 3, 72, 33
5, 10110, Note_on_c, 3, 75, 44
5, 10139, Note_on_c, 3, 75, 0
5, 10139, Note_on_c, 3, 72, 0
5, 10140, Note_on_c, 3, 74, 33
5, 10140, Note_on_c, 3, 77, 44
5, 10169, Note_on_c, 3, 77, 0
5, 10169, Note_on_c, 3, 74, 0
5, 10170, Note_on_c, 3, 75, 28
5, 10170, Note_on_c, 3, 79, 34
5, 10189, Note_on_c, 3, 79, 0
5, 10189, Note_on_c, 3, 75, 0
5, 10200, Note_on_c, 3, 75, 33
5, 10200, Note_on_c, 3, 79, 44
5, 10229, Note_on_c, 3, 79, 0
5, 10229, Note_on_c, 3, 75, 0
5, 10230, Note_on_c, 3, 74, 33
5, 10230, Note_on_c, 3, 77, 44
5, 10249, Note_on_c, 3, 77, 0
5, 10249, Note_on_c, 3, 74, 0
5, 10260, Note_on_c, 3, 74, 33
5, 10260, Note_on_c, 3, 77, 44
5, 10289, Note_on_c, 3, 77, 0
5, 10289, Note_on_c, 3, 74, 0
5, 10290, Note_on_c, 3, 72, 33
5, 10290, Note_on_c, 3, 75, 44
5, 10309, Note_on_c, 3, 75, 0
5, 10309, Note_on_c, 3, 72, 0
5, 10320, Note_on_c, 3, 72, 30
5, 10320, Note_on_c, 3, 75, 37
5, 10379, Note_on_c, 3, 75, 0
5, 10379, Note_on_c, 3, 72, 0
5, 10380, Note_on_c, 3, 71, 23
5, 10380, Note_on_c, 3, 74, 26
5, 10439, Note_on_c, 3, 74, 0
5, 10439, Note_on_c, 3, 71, 0
5, 10559, Control_c, 3, 11, 66
5, 10560, Note_on_c, 3, 66, 33
5, 10560, Note_on_c, 3, 69, 44
5, 10561, Control_c, 3, 11, 67
5, 10566, Control_c, 3, 11, 68
5, 10571, Control_c, 3, 11, 69
5, 10576, Control_c, 3, 11, 70
5, 10581, Control_c, 3, 11, 71
5, 10586, Control_c, 3, 11, 72
5, 10591, Control_c, 3, 11, 73
5, 10596, Control_c, 3, 11, 74
5, 10601, Control_c, 3, 11, 75
5, 10606, Control_c, 3, 11, 76
5, 10611, Control_c, 3, 11, 77
5, 10616, Control_c, 3, 11, 78
5, 10621, Control_c, 3, 11, 80
5, 10626, Control_c, 3, 11, 82
5, 10631, Control_c, 3, 11, 84
5, 10636, Control_c, 3, 11, 86
5, 10641, Control_c, 3, 11, 88
5, 10646, Control_c, 3, 11, 90
5, 10651, Control_c, 3, 11, 92
5, 10656, Control_c, 3, 11, 94
5, 10661, Control_c, 3, 11, 96
5, 10666, Control_c, 3, 11, 98
5, 10671, Control_c, 3, 11, 100
5, 10676, Control_c, 3, 11, 103
5, 10681, Control_c, 3, 11, 106
5, 10686, Control_c, 3, 11, 109
5, 10691, Control_c, 3, 11, 112
5, 10696, Control_c, 3, 11, 115
5, 10701, Control_c, 3, 11, 118
5, 10706, Control_c, 3, 11, 121
5, 10709, Note_on_c, 3, 69, 0
5, 10709, Note_on_c, 3, 66, 0
5, 10709, Control_c, 3, 11, 124
5, 10709, Control_c, 3, 11, 127
5, 10710, Note_on_c, 3, 69, 33
5, 10710, Note_on_c, 3, 72, 44
5, 10729, Note_on_c, 3, 72, 0
5, 10729, Note_on_c, 3, 69, 0
5, 10740, Note_on_c, 3, 69, 33
5, 10740, Note_on_c, 3, 72, 44
5, 10769, Note_on_c, 3, 72, 0
5, 10769, Note_on_c, 3, 69, 0
5, 10770, Note_on_c, 3, 75, 34
5, 10770, Note_on_c, 3, 72, 27
5, 10789, Note_on_c, 3, 72, 0
5, 10789, Note_on_c, 3, 75, 0
5, 10799, Control_c, 3, 11, 86
5, 10800, Note_on_c, 3, 67, 33
5, 10800, Note_on_c, 3, 70, 34
5, 10801, Control_c, 3, 11, 87
5, 10807, Control_c, 3, 11, 88
5, 10813, Control_c, 3, 11, 89
5, 10819, Control_c, 3, 11, 90
5, 10825, Control_c, 3, 11, 91
5, 10831, Control_c, 3, 11, 92
5, 10837, Control_c, 3, 11, 93
5, 10843, Control_c, 3, 11, 94
5, 10849, Control_c, 3, 11, 95
5, 10855, Control_c, 3, 11, 96
5, 10861, Control_c, 3, 11, 97
5, 10867, Control_c, 3, 11, 98
5, 10873, Control_c, 3, 11, 99
5, 10879, Control_c, 3, 11, 101
5, 10885, Control_c, 3, 11, 103
5, 10891, Control_c, 3, 11, 105
5, 10897, Control_c, 3, 11, 107
5, 10903, Control_c, 3, 11, 109
5, 10909, Control_c, 3, 11, 111
5, 10915, Control_c, 3, 11, 113
5, 10921, Control_c, 3, 11, 115
5, 10927, Control_c, 3, 11, 117
5, 10933, Control_c, 3, 11, 119
5, 10939, Control_c, 3, 11, 121
5, 10945, Control_c, 3, 11, 123
5, 10949, Note_on_c, 3, 70, 0
5, 10949, Note_on_c, 3, 67, 0
5, 10949, Control_c, 3, 11, 127
5, 10949, Control_c, 3, 11, 127
5, 10950, Note_on_c, 3, 74, 39
5, 10950, Note_on_c, 3, 70, 33
5, 10969, Note_on_c, 3, 70, 0
5, 10969, Note_on_c, 3, 74, 0
5, 10980, Note_on_c, 3, 74, 44
5, 10980, Note_on_c, 3, 70, 33
5, 11009, Note_on_c, 3, 70, 0
5, 11009, Note_on_c, 3, 74, 0
5, 11010, Note_on_c, 3, 79, 38
5, 11010, Note_on_c, 3, 74, 28
5, 11029, Note_on_c, 3, 74, 0
5, 11029, Note_on_c, 3, 79, 0
5, 11070, Note_on_c, 3, 72, 35
5, 11070, Note_on_c, 3, 69, 26
5, 11099, Note_on_c, 3, 69, 0
5, 11099, Note_on_c, 3, 72, 0
5, 11100, Note_on_c, 3, 72, 26
5, 11100, Note_on_c, 3, 75, 35
5, 11129, Note_on_c, 3, 75, 0
5, 11129, Note_on_c, 3, 72, 0
5, 11130, Note_on_c, 3, 69, 22
5, 11130, Note_on_c, 3, 72, 27
5, 11159, Note_on_c, 3, 72, 0
5, 11159, Note_on_c, 3, 69, 0
5, 11190, Note_on_c, 3, 67, 19
5, 11190, Note_on_c, 3, 70, 24
5, 11219, Note_on_c, 3, 70, 0
5, 11219, Note_on_c, 3, 67, 0
5, 11250, Note_on_c, 3, 66, 18
5, 11250, Note_on_c, 3, 69, 21
5, 11279, Note_on_c, 3, 69, 0
5, 11279, Note_on_c, 3, 66, 0
5, 11280, Note_on_c, 3, 67, 19
5, 11399, Note_on_c, 3, 67, 0
5, 13439, Control_c, 3, 11, 66
5, 13440, Note_on_c, 3, 79, 43
5, 13440, Note_on_c, 3, 75, 35
5, 13441, Control_c, 3, 11, 67
5, 13445, Control_c, 3, 11, 68
5, 13449, Control_c, 3, 11, 69
5, 13453, Control_c, 3, 11, 70
5, 13457, Control_c, 3, 11, 71
5, 13461, Control_c, 3, 11, 72
5, 13465, Control_c, 3, 11, 73
5, 13469, Control_c, 3, 11, 74
5, 13473, Control_c, 3, 11, 75
5, 13477, Control_c, 3, 11, 76
5, 13481, Control_c, 3, 11, 77
5, 13485, Control_c, 3, 11, 78
5, 13489, Control_c, 3, 11, 80
5, 13493, Control_c, 3, 11, 82
5, 13497, Control_c, 3, 11, 84
5, 13501, Control_c, 3, 11, 86
5, 13505, Control_c, 3, 11, 88
5, 13509, Control_c, 3, 11, 90
5, 13513, Control_c, 3, 11, 92
5, 13517, Control_c, 3, 11, 94
5, 13521, Control_c, 3, 11, 96
5, 13525, Control_c, 3, 11, 98
5, 13529, Control_c, 3, 11, 100
5, 13533, Control_c, 3, 11, 103
5, 13537, Control_c, 3, 11, 106
5, 13541, Control_c, 3, 11, 109
5, 13545, Control_c, 3, 11, 112
5, 13549, Control_c, 3, 11, 115
5, 13553, Control_c, 3, 11, 118
5, 13557, Control_c, 3, 11, 121
5, 13561, Control_c, 3, 11, 124
5, 13565, Control_c, 3, 11, 127
5, 13589, Note_on_c, 3, 75, 0
5, 13589, Note_on_c, 3, 79, 0
5, 13589, Control_c, 3, 11, 127
5, 13589, Control_c, 3, 11, 127
5, 13590, Note_on_c, 3, 80, 42
5, 13590, Note_on_c, 3, 77, 31
5, 13619, Note_on_c, 3, 77, 0
5, 13619, Note_on_c, 3, 80, 0
5, 13620, Note_on_c, 3, 81, 44
5, 13620, Note_on_c, 3, 78, 33
5, 13649, Note_on_c, 3, 78, 0
5, 13649, Note_on_c, 3, 81, 0
5, 13650, Note_on_c, 3, 82, 41
5, 13650, Note_on_c, 3, 79, 29
5, 13671, Note_on_c, 3, 79, 0
5, 13671, Note_on_c, 3, 82, 0
5, 13680, Note_on_c, 3, 82, 46
5, 13680, Note_on_c, 3, 79, 34
5, 13769, Note_on_c, 3, 79, 0
5, 13769, Note_on_c, 3, 82, 0
5, 13770, Note_on_c, 3, 77, 30
5, 13770, Note_on_c, 3, 80, 39
5, 13785, Note_on_c, 3, 79, 31
5, 13785, Note_on_c, 3, 75, 23
5, 13789, Note_on_c, 3, 80, 0
5, 13789, Note_on_c, 3, 77, 0
5, 13800, Note_on_c, 3, 77, 23
5, 13800, Note_on_c, 3, 74, 21
5, 13804, Note_on_c, 3, 79, 0
5, 13804, Note_on_c, 3, 75, 0
5, 13849, Note_on_c, 3, 77, 0
5, 13849, Note_on_c, 3, 74, 0
5, 13919, Control_c, 3, 11, 46
5, 13920, Note_on_c, 3, 75, 54
5, 13920, Note_on_c, 3, 72, 43
5, 13921, Control_c, 3, 11, 47
5, 13925, Control_c, 3, 11, 48
5, 13929, Control_c, 3, 11, 49
5, 13933, Control_c, 3, 11, 50
5, 13937, Control_c, 3, 11, 51
5, 13941, Control_c, 3, 11, 52
5, 13945, Control_c, 3, 11, 53
5, 13949, Control_c, 3, 11, 54
5, 13953, Control_c, 3, 11, 55
5, 13957, Control_c, 3, 11, 56
5, 13961, Control_c, 3, 11, 58
5, 13965, Control_c, 3, 11, 60
5, 13969, Control_c, 3, 11, 62
5, 13973, Control_c, 3, 11, 64
5, 13977, Control_c, 3, 11, 66
5, 13981, Control_c, 3, 11, 68
5, 13985, Control_c, 3, 11, 70
5, 13989, Control_c, 3, 11, 72
5, 13993, Control_c, 3, 11, 74
5, 13997, Control_c, 3, 11, 76
5, 14001, Control_c, 3, 11, 79
5, 14005, Control_c, 3, 11, 82
5, 14009, Control_c, 3, 11, 85
5, 14013, Control_c, 3, 11, 88
5, 14017, Control_c, 3, 11, 91
5, 14021, Control_c, 3, 11, 94
5, 14025, Control_c, 3, 11, 97
5, 14029, Control_c, 3, 11, 100
5, 14033, Control_c, 3, 11, 103
5, 14037, Control_c, 3, 11, 106
5, 14041, Control_c, 3, 11, 110
5, 14045, Control_c, 3, 11, 114
5, 14049, Control_c, 3, 11, 118
5, 14053, Control_c, 3, 11, 122
5, 14057, Control_c, 3, 11, 126
5, 14069, Note_on_c, 3, 72, 0
5, 14069, Note_on_c, 3, 75, 0
5, 14069, Control_c, 3, 11, 127
5, 14069, Control_c, 3, 11, 127
5, 14070, Note_on_c, 3, 74, 26
5, 14070, Note_on_c, 3, 77, 35
5, 14099, Note_on_c, 3, 77, 0
5, 14099, Note_on_c, 3, 74, 0
5, 14100, Note_on_c, 3, 78, 38
5, 14100, Note_on_c, 3, 74, 28
5, 14124, Note_on_c, 3, 74, 0
5, 14129, Note_on_c, 3, 78, 0
5, 14130, Note_on_c, 3, 79, 41
5, 14130, Note_on_c, 3, 75, 30
5, 14144, Note_on_c, 3, 75, 0
5, 14144, Note_on_c, 3, 79, 0
5, 14160, Note_on_c, 3, 75, 33
5, 14160, Note_on_c, 3, 79, 44
5, 14249, Note_on_c, 3, 79, 0
5, 14249, Note_on_c, 3, 75, 0
5, 14250, Note_on_c, 3, 74, 33
5, 14250, Note_on_c, 3, 77, 44
5, 14265, Note_on_c, 3, 72, 24
5, 14265, Note_on_c, 3, 75, 29
5, 14269, Note_on_c, 3, 77, 0
5, 14269, Note_on_c, 3, 74, 0
5, 14280, Note_on_c, 3, 71, 19
5, 14280, Note_on_c, 3, 74, 24
5, 14284, Note_on_c, 3, 72, 0
5, 14284, Note_on_c, 3, 75, 0
5, 14339, Note_on_c, 3, 71, 0
5, 14339, Note_on_c, 3, 74, 0
5, 14400, Note_on_c, 3, 80, 33
5, 14400, Note_on_c, 3, 71, 23
5, 14549, Note_on_c, 3, 71, 0
5, 14549, Note_on_c, 3, 80, 0
5, 14550, Note_on_c, 3, 74, 23
5, 14550, Note_on_c, 3, 77, 33
5, 14569, Note_on_c, 3, 77, 0
5, 14569, Note_on_c, 3, 74, 0
5, 14580, Note_on_c, 3, 74, 23
5, 14580, Note_on_c, 3, 83, 33
5, 14599, Note_on_c, 3, 83, 0
5, 14599, Note_on_c, 3, 74, 0
5, 14610, Note_on_c, 3, 74, 23
5, 14610, Note_on_c, 3, 83, 33
5, 14629, Note_on_c, 3, 83, 0
5, 14629, Note_on_c, 3, 74, 0
5, 14640, Note_on_c, 3, 72, 23
5, 14640, Note_on_c, 3, 75, 33
5, 14789, Note_on_c, 3, 75, 0
5, 14789, Note_on_c, 3, 72, 0
5, 14790, Note_on_c, 3, 69, 23
5, 14790, Note_on_c, 3, 72, 33
5, 14809, Note_on_c, 3, 72, 0
5, 14809, Note_on_c, 3, 69, 0
5, 14820, Note_on_c, 3, 75, 23
5, 14820, Note_on_c, 3, 84, 33
5, 14839, Note_on_c, 3, 84, 0
5, 14839, Note_on_c, 3, 75, 0
5, 14850, Note_on_c, 3, 75, 23
5, 14850, Note_on_c, 3, 84, 33
5, 14869, Note_on_c, 3, 84, 0
5, 14869, Note_on_c, 3, 75, 0
5, 14910, Note_on_c, 3, 75, 33
5, 14910, Note_on_c, 3, 72, 23
5, 14939, Note_on_c, 3, 72, 0
5, 14939, Note_on_c, 3, 75, 0
5, 14940, Note_on_c, 3, 77, 33
5, 14940, Note_on_c, 3, 74, 23
5, 14969, Note_on_c, 3, 74, 0
5, 14969, Note_on_c, 3, 77, 0
5, 14970, Note_on_c, 3, 75, 23
5, 14970, Note_on_c, 3, 79, 28
5, 14989, Note_on_c, 3, 79, 0
5, 14989, Note_on_c, 3, 75, 0
5, 15030, Note_on_c, 3, 77, 33
5, 15030, Note_on_c, 3, 74, 23
5, 15059, Note_on_c, 3, 74, 0
5, 15059, Note_on_c, 3, 77, 0
5, 15090, Note_on_c, 3, 71, 23
5, 15090, Note_on_c, 3, 74, 33
5, 15109, Note_on_c, 3, 74, 0
5, 15109, Note_on_c, 3, 71, 0
5, 15120, Note_on_c, 3, 71, 23
5, 15120, Note_on_c, 3, 74, 28
5, 15239, Note_on_c, 3, 74, 0
5, 15239, Note_on_c, 3, 71, 0
5, 15240, Note_on_c, 3, 72, 18
5, 15299, Note_on_c, 3, 72, 0
5, 18239, Control_c, 3, 11, 66
5, 18240, Note_on_c, 3, 77, 20
5, 18240, Note_on_c, 3, 80, 21
5, 18241, Control_c, 3, 11, 67
5, 18256, Control_c, 3, 11, 68
5, 18271, Control_c, 3, 11, 69
5, 18286, Control_c, 3, 11, 70
5, 18301, Control_c, 3, 11, 71
5, 18316, Control_c, 3, 11, 72
5, 18331, Control_c, 3, 11, 73
5, 18346, Control_c, 3, 11, 74
5, 18361, Control_c, 3, 11, 75
5, 18376, Control_c, 3, 11, 76
5, 18391, Control_c, 3, 11, 77
5, 18406, Control_c, 3, 11, 78
5, 18421, Control_c, 3, 11, 80
5, 18436, Control_c, 3, 11, 82
5, 18451, Control_c, 3, 11, 84
5, 18466, Control_c, 3, 11, 86
5, 18481, Control_c, 3, 11, 88
5, 18496, Control_c, 3, 11, 90
5, 18511, Control_c, 3, 11, 92
5, 18526, Control_c, 3, 11, 94
5, 18541, Control_c, 3, 11, 96
5, 18556, Control_c, 3, 11, 98
5, 18571, Control_c, 3, 11, 100
5, 18586, Control_c, 3, 11, 103
5, 18601, Control_c, 3, 11, 106
5, 18616, Control_c, 3, 11, 109
5, 18631, Control_c, 3, 11, 112
5, 18646, Control_c, 3, 11, 115
5, 18661, Control_c, 3, 11, 118
5, 18676, Control_c, 3, 11, 121
5, 18691, Control_c, 3, 11, 124
5, 18706, Control_c, 3, 11, 127
5, 18719, Note_on_c, 3, 80, 0
5, 18719, Note_on_c, 3, 77, 0
5, 18719, Control_c, 3, 11, 127
5, 18719, Control_c, 3, 11, 127
5, 18720, Note_on_c, 3, 75, 19
5, 18720, Note_on_c, 3, 79, 19
5, 18839, Note_on_c, 3, 79, 0
5, 18839, Note_on_c, 3, 75, 0
5, 19200, Note_on_c, 3, 79, 44
5, 19259, Note_on_c, 3, 79, 0
5, 19260, Note_on_c, 3, 74, 42
5, 19319, Note_on_c, 3, 74, 0
5, 19320, Note_on_c, 3, 75, 39
5, 19379, Note_on_c, 3, 75, 0
5, 19380, Note_on_c, 3, 77, 29
5, 19439, Note_on_c, 3, 77, 0
5, 19440, Note_on_c, 3, 70, 23
5, 19629, Note_on_c, 3, 70, 0
5, 20160, Note_on_c, 3, 68, 21
5, 20160, Note_on_c, 3, 74, 21
5, 20199, Note_on_c, 3, 74, 0
5, 20199, Note_on_c, 3, 68, 0
5, 20220, Note_on_c, 3, 68, 21
5, 20220, Note_on_c, 3, 74, 21
5, 20259, Note_on_c, 3, 74, 0
5, 20259, Note_on_c, 3, 68, 0
5, 20280, Note_on_c, 3, 68, 21
5, 20280, Note_on_c, 3, 74, 21
5, 20319, Note_on_c, 3, 74, 0
5, 20319, Note_on_c, 3, 68, 0
5, 20340, Note_on_c, 3, 74, 21
5, 20340, Note_on_c, 3, 68, 21
5, 20379, Note_on_c, 3, 68, 0
5, 20379, Note_on_c, 3, 74, 0
5, 20400, Note_on_c, 3, 75, 23
5, 20400, Note_on_c, 3, 67, 23
5, 20499, Note_on_c, 3, 67, 0
5, 20499, Note_on_c, 3, 75, 0
5, 20640, Note_on_c, 3, 56, 28
5, 20879, Note_on_c, 3, 56, 0
5, 29160, Note_on_c, 3, 74, 43
5, 29160, Note_on_c, 3, 82, 55
5, 29189, Note_on_c, 3, 82, 0
5, 29189, Note_on_c, 3, 74, 0
5, 29190, Note_on_c, 3, 81, 46
5, 29190, Note_on_c, 3, 73, 35
5, 29209, Note_on_c, 3, 73, 0
5, 29209, Note_on_c, 3, 81, 0
5, 29220, Note_on_c, 3, 81, 47
5, 29220, Note_on_c, 3, 73, 36
5, 29249, Note_on_c, 3, 73, 0
5, 29249, Note_on_c, 3, 81, 0
5, 29250, Note_on_c, 3, 82, 42
5, 29250, Note_on_c, 3, 74, 33
5, 29269, Note_on_c, 3, 74, 0
5, 29269, Note_on_c, 3, 82, 0
5, 29400, Note_on_c, 3, 84, 55
5, 29400, Note_on_c, 3, 80, 43
5, 29429, Note_on_c, 3, 80, 0
5, 29429, Note_on_c, 3, 84, 0
5, 29430, Note_on_c, 3, 79, 34
5, 29430, Note_on_c, 3, 82, 44
5, 29449, Note_on_c, 3, 82, 0
5, 29449, Note_on_c, 3, 79, 0
5, 29460, Note_on_c, 3, 82, 43
5, 29460, Note_on_c, 3, 79, 33
5, 29489, Note_on_c, 3, 79, 0
5, 29490, Note_on_c, 3, 77, 28
5, 29490, Note_on_c, 3, 80, 36
5, 29504, Note_on_c, 3, 82, 0
5, 29509, Note_on_c, 3, 80, 0
5, 29509, Note_on_c, 3, 77, 0
5, 29640, Note_on_c, 3, 79, 43
5, 29640, Note_on_c, 3, 82, 55
5, 29669, Note_on_c, 3, 82, 0
5, 29669, Note_on_c, 3, 79, 0
5, 29670, Note_on_c, 3, 77, 39
5, 29670, Note_on_c, 3, 80, 49
5, 29689, Note_on_c, 3, 80, 0
5, 29689, Note_on_c, 3, 77, 0
5, 29700, Note_on_c, 3, 80, 53
5, 29700, Note_on_c, 3, 77, 41
5, 29729, Note_on_c, 3, 77, 0
5, 29729, Note_on_c, 3, 80, 0
5, 29730, Note_on_c, 3, 75, 36
5, 29730, Note_on_c, 3, 79, 47
5, 29749, Note_on_c, 3, 79, 0
5, 29749, Note_on_c, 3, 75, 0
5, 29760, Note_on_c, 3, 80, 51
5, 29760, Note_on_c, 3, 77, 39
5, 29789, Note_on_c, 3, 77, 0
5, 29789, Note_on_c, 3, 80, 0
5, 29790, Note_on_c, 3, 75, 37
5, 29790, Note_on_c, 3, 79, 45
5, 29809, Note_on_c, 3, 79, 0
5, 29809, Note_on_c, 3, 75, 0
5, 29820, Note_on_c, 3, 79, 48
5, 29820, Note_on_c, 3, 75, 38
5, 29849, Note_on_c, 3, 75, 0
5, 29849, Note_on_c, 3, 79, 0
5, 29850, Note_on_c, 3, 74, 34
5, 29850, Note_on_c, 3, 77, 43
5, 29869, Note_on_c, 3, 77, 0
5, 29869, Note_on_c, 3, 74, 0
5, 29880, Note_on_c, 3, 77, 47
5, 29880, Note_on_c, 3, 74, 36
5, 29909, Note_on_c, 3, 74, 0
5, 29909, Note_on_c, 3, 77, 0
5, 29910, Note_on_c, 3, 75, 36
5, 29910, Note_on_c, 3, 72, 31
5, 29929, Note_on_c, 3, 72, 0
5, 29929, Note_on_c, 3, 75, 0
5, 29940, Note_on_c, 3, 75, 40
5, 29940, Note_on_c, 3, 72, 31
5, 29969, Note_on_c, 3, 72, 0
5, 29969, Note_on_c, 3, 75, 0
5, 29970, Note_on_c, 3, 74, 34
5, 29970, Note_on_c, 3, 70, 30
5, 29989, Note_on_c, 3, 70, 0
5, 29989, Note_on_c, 3, 74, 0
5, 30000, Note_on_c, 3, 74, 37
5, 30000, Note_on_c, 3, 70, 29
5, 30029, Note_on_c, 3, 70, 0
5, 30029, Note_on_c, 3, 74, 0
5, 30030, Note_on_c, 3, 84, 39
5, 30030, Note_on_c, 3, 80, 34
5, 30049, Note_on_c, 3, 80, 0
5, 30049, Note_on_c, 3, 84, 0
5, 30060, Note_on_c, 3, 84, 41
5, 30060, Note_on_c, 3, 80, 32
5, 30089, Note_on_c, 3, 80, 0
5, 30089, Note_on_c, 3, 84, 0
5, 30090, Note_on_c, 3, 82, 40
5, 30090, Note_on_c, 3, 79, 31
5, 30109, Note_on_c, 3, 79, 0
5, 30109, Note_on_c, 3, 82, 0
5, 30120, Note_on_c, 3, 82, 34
5, 30120, Note_on_c, 3, 79, 29
5, 30149, Note_on_c, 3, 79, 0
5, 30149, Note_on_c, 3, 82, 0
5, 30150, Note_on_c, 3, 77, 27
5, 30150, Note_on_c, 3, 80, 36
5, 30169, Note_on_c, 3, 80, 0
5, 30169, Note_on_c, 3, 77, 0
5, 30180, Note_on_c, 3, 77, 26
5, 30180, Note_on_c, 3, 80, 33
5, 30209, Note_on_c, 3, 80, 0
5, 30209, Note_on_c, 3, 77, 0
5, 30210, Note_on_c, 3, 75, 22
5, 30210, Note_on_c, 3, 79, 28
5, 30229, Note_on_c, 3, 79, 0
5, 30229, Note_on_c, 3, 75, 0
5, 30240, Note_on_c, 3, 79, 22
5, 30240, Note_on_c, 3, 75, 19
5, 30299, Note_on_c, 3, 75, 0
5, 30299, Note_on_c, 3, 79, 0
5, 33839, Control_c, 3, 11, 46
5, 33840, Note_on_c, 3, 77, 38
5, 33841, Control_c, 3, 11, 47
5, 33847, Control_c, 3, 11, 48
5, 33853, Control_c, 3, 11, 49
5, 33859, Control_c, 3, 11, 50
5, 33865, Control_c, 3, 11, 51
5, 33871, Control_c, 3, 11, 52
5, 33877, Control_c, 3, 11, 53
5, 33883, Control_c, 3, 11, 54
5, 33889, Control_c, 3, 11, 55
5, 33895, Control_c, 3, 11, 56
5, 33901, Control_c, 3, 11, 58
5, 33907, Control_c, 3, 11, 60
5, 33913, Control_c, 3, 11, 62
5, 33919, Control_c, 3, 11, 64
5, 33925, Control_c, 3, 11, 66
5, 33931, Control_c, 3, 11, 68
5, 33937, Control_c, 3, 11, 70
5, 33943, Control_c, 3, 11, 72
5, 33949, Control_c, 3, 11, 74
5, 33955, Control_c, 3, 11, 76
5, 33961, Control_c, 3, 11, 79
5, 33967, Control_c, 3, 11, 82
5, 33973, Control_c, 3, 11, 85
5, 33979, Control_c, 3, 11, 88
5, 33985, Control_c, 3, 11, 91
5, 33991, Control_c, 3, 11, 94
5, 33997, Control_c, 3, 11, 97
5, 34003, Control_c, 3, 11, 100
5, 34009, Control_c, 3, 11, 103
5, 34015, Control_c, 3, 11, 106
5, 34021, Control_c, 3, 11, 110
5, 34027, Control_c, 3, 11, 114
5, 34033, Control_c, 3, 11, 118
5, 34039, Control_c, 3, 11, 122
5, 34045, Control_c, 3, 11, 126
5, 34799, Note_on_c, 3, 77, 0
5, 34800, Note_on_c, 3, 82, 33
5, 34800, Note_on_c, 3, 74, 23
5, 35039, Note_on_c, 3, 74, 0
5, 35039, Note_on_c, 3, 82, 0
5, 35040, Note_on_c, 3, 75, 23
5, 35040, Note_on_c, 3, 81, 33
5, 35279, Note_on_c, 3, 81, 0
5, 35279, Note_on_c, 3, 75, 0
5, 35280, Note_on_c, 3, 80, 38
5, 35280, Note_on_c, 3, 77, 29
5, 35399, Note_on_c, 3, 77, 0
5, 35399, Note_on_c, 3, 80, 0
5, 35520, Note_on_c, 3, 70, 33
5, 35634, Note_on_c, 3, 70, 0
5, 35640, Note_on_c, 3, 70, 30
5, 35724, Note_on_c, 3, 70, 0
5, 35730, Note_on_c, 3, 70, 28
5, 35754, Note_on_c, 3, 70, 0
5, 35760, Note_on_c, 3, 70, 27
5, 35819, Note_on_c, 3, 70, 0
5, 35820, Note_on_c, 3, 75, 26
5, 35864, Note_on_c, 3, 75, 0
5, 35880, Note_on_c, 3, 75, 34
5, 35984, Note_on_c, 3, 75, 0
5, 36000, Note_on_c, 3, 79, 25
5, 36059, Note_on_c, 3, 79, 0
5, 36060, Note_on_c, 3, 74, 25
5, 36119, Note_on_c, 3, 74, 0
5, 36120, Note_on_c, 3, 75, 24
5, 36179, Note_on_c, 3, 75, 0
5, 36180, Note_on_c, 3, 77, 23
5, 36239, Note_on_c, 3, 77, 0
5, 36240, Note_on_c, 3, 70, 22
5, 36449, Note_on_c, 3, 70, 0
5, 36480, Note_on_c, 3, 75, 33
5, 36480, Note_on_c, 3, 79, 43
5, 36594, Note_on_c, 3, 79, 0
5, 36594, Note_on_c, 3, 75, 0
5, 36600, Note_on_c, 3, 75, 33
5, 36600, Note_on_c, 3, 79, 43
5, 36684, Note_on_c, 3, 75, 0
5, 36689, Note_on_c, 3, 79, 0
5, 36690, Note_on_c, 3, 79, 43
5, 36690, Note_on_c, 3, 75, 38
5, 36714, Note_on_c, 3, 75, 0
5, 36714, Note_on_c, 3, 79, 0
5, 36720, Note_on_c, 3, 82, 48
5, 36720, Note_on_c, 3, 79, 33
5, 36804, Note_on_c, 3, 79, 0
5, 36804, Note_on_c, 3, 82, 0
5, 36810, Note_on_c, 3, 75, 31
5, 36810, Note_on_c, 3, 79, 40
5, 36834, Note_on_c, 3, 75, 0
5, 36839, Note_on_c, 3, 79, 0
5, 36840, Note_on_c, 3, 70, 25
5, 36840, Note_on_c, 3, 75, 38
5, 36934, Note_on_c, 3, 70, 0
5, 36939, Note_on_c, 3, 75, 0
5, 36960, Note_on_c, 3, 68, 22
5, 36960, Note_on_c, 3, 74, 22
5, 36999, Note_on_c, 3, 74, 0
5, 37004, Note_on_c, 3, 68, 0
5, 37020, Note_on_c, 3, 68, 22
5, 37020, Note_on_c, 3, 74, 22
5, 37064, Note_on_c, 3, 74, 0
5, 37064, Note_on_c, 3, 68, 0
5, 37080, Note_on_c, 3, 68, 22
5, 37080, Note_on_c, 3, 74, 22
5, 37124, Note_on_c, 3, 74, 0
5, 37124, Note_on_c, 3, 68, 0
5, 37140, Note_on_c, 3, 68, 22
5, 37140, Note_on_c, 3, 74, 22
5, 37184, Note_on_c, 3, 74, 0
5, 37184, Note_on_c, 3, 68, 0
5, 37200, Note_on_c, 3, 67, 22
5, 37200, Note_on_c, 3, 75, 22
5, 37314, Note_on_c, 3, 75, 0
5, 37314, Note_on_c, 3, 67, 0
5, 37710, Note_on_c, 3, 79, 21
5, 37710, Note_on_c, 3, 82, 28
5, 37740, Note_on_c, 3, 77, 21
5, 37740, Note_on_c, 3, 80, 28
5, 37742, Note_on_c, 3, 82, 0
5, 37742, Note_on_c, 3, 79, 0
5, 37770, Note_on_c, 3, 75, 21
5, 37770, Note_on_c, 3, 79, 27
5, 37772, Note_on_c, 3, 77, 0
5, 37772, Note_on_c, 3, 80, 0
5, 37800, Note_on_c, 3, 74, 20
5, 37800, Note_on_c, 3, 77, 27
5, 37802, Note_on_c, 3, 75, 0
5, 37802, Note_on_c, 3, 79, 0
5, 37830, Note_on_c, 3, 75, 27
5, 37832, Note_on_c, 3, 74, 0
5, 37832, Note_on_c, 3, 77, 0
5, 37860, Note_on_c, 3, 68, 20
5, 37860, Note_on_c, 3, 74, 26
5, 37862, Note_on_c, 3, 75, 0
5, 37890, Note_on_c, 3, 67, 19
5, 37890, Note_on_c, 3, 75, 22
5, 37892, Note_on_c, 3, 74, 0
5, 37892, Note_on_c, 3, 68, 0
5, 37922, Note_on_c, 3, 67, 0
5, 37922, Note_on_c, 3, 75, 0
5, 38190, Note_on_c, 3, 79, 25
5, 38190, Note_on_c, 3, 82, 33
5, 38220, Note_on_c, 3, 77, 24
5, 38220, Note_on_c, 3, 80, 32
5, 38222, Note_on_c, 3, 82, 0
5, 38222, Note_on_c, 3, 79, 0
5, 38250, Note_on_c, 3, 75, 23
5, 38250, Note_on_c, 3, 79, 30
5, 38252, Note_on_c, 3, 77, 0
5, 38252, Note_on_c, 3, 80, 0
5, 38280, Note_on_c, 3, 74, 22
5, 38280, Note_on_c, 3, 77, 29
5, 38282, Note_on_c, 3, 75, 0
5, 38282, Note_on_c, 3, 79, 0
5, 38310, Note_on_c, 3, 75, 28
5, 38312, Note_on_c, 3, 74, 0
5, 38312, Note_on_c, 3, 77, 0
5, 38340, Note_on_c, 3, 68, 20
5, 38340, Note_on_c, 3, 74, 24
5, 38342, Note_on_c, 3, 75, 0
5, 38370, Note_on_c, 3, 67, 19
5, 38370, Note_on_c, 3, 75, 20
5, 38372, Note_on_c, 3, 74, 0
5, 38372, Note_on_c, 3, 68, 0
5, 38402, Note_on_c, 3, 67, 0
5, 38402, Note_on_c, 3, 75, 0
5, 41580, Note_on_c, 3, 75, 33
5, 41580, Note_on_c, 3, 67, 23
5, 41639, Note_on_c, 3, 67, 0
5, 41639, Note_on_c, 3, 75, 0
5, 41640, Note_on_c, 3, 75, 23
5, 41640, Note_on_c, 3, 79, 33
5, 41669, Note_on_c, 3, 79, 0
5, 41669, Note_on_c, 3, 75, 0
5, 41700, Note_on_c, 3, 79, 23
5, 41700, Note_on_c, 3, 75, 23
5, 41719, Note_on_c, 3, 75, 0
5, 41719, Note_on_c, 3, 79, 0
5, 42060, Note_on_c, 3, 67, 23
5, 42060, Note_on_c, 3, 75, 33
5, 42119, Note_on_c, 3, 75, 0
5, 42119, Note_on_c, 3, 67, 0
5, 42120, Note_on_c, 3, 75, 23
5, 42120, Note_on_c, 3, 79, 33
5, 42149, Note_on_c, 3, 79, 0
5, 42149, Note_on_c, 3, 75, 0
5, 42180, Note_on_c, 3, 79, 23
5, 42180, Note_on_c, 3, 75, 23
5, 42199, Note_on_c, 3, 75, 0
5, 42199, Note_on_c, 3, 79, 0
5, 42239, Control_c, 3, 11, 66
5, 42240, Note_on_c, 3, 75, 33
5, 42240, Note_on_c, 3, 77, 43
5, 42241, Control_c, 3, 11, 67
5, 42246, Control_c, 3, 11, 68
5, 42251, Control_c, 3, 11, 69
5, 42256, Control_c, 3, 11, 70
5, 42261, Control_c, 3, 11, 71
5, 42266, Control_c, 3, 11, 72
5, 42271, Control_c, 3, 11, 73
5, 42276, Control_c, 3, 11, 74
5, 42281, Control_c, 3, 11, 75
5, 42286, Control_c, 3, 11, 76
5, 42291, Control_c, 3, 11, 77
5, 42296, Control_c, 3, 11, 78
5, 42301, Control_c, 3, 11, 80
5, 42306, Control_c, 3, 11, 82
5, 42311, Control_c, 3, 11, 84
5, 42316, Control_c, 3, 11, 86
5, 42321, Control_c, 3, 11, 88
5, 42326, Control_c, 3, 11, 90
5, 42331, Control_c, 3, 11, 92
5, 42336, Control_c, 3, 11, 94
5, 42341, Control_c, 3, 11, 96
5, 42346, Control_c, 3, 11, 98
5, 42351, Control_c, 3, 11, 100
5, 42356, Control_c, 3, 11, 103
5, 42359, Note_on_c, 3, 75, 0
5, 42360, Note_on_c, 3, 74, 28
5, 42361, Control_c, 3, 11, 106
5, 42366, Control_c, 3, 11, 109
5, 42371, Control_c, 3, 11, 112
5, 42376, Control_c, 3, 11, 115
5, 42381, Control_c, 3, 11, 118
5, 42386, Control_c, 3, 11, 121
5, 42391, Control_c, 3, 11, 124
5, 42396, Control_c, 3, 11, 125
5, 42419, Note_on_c, 3, 74, 0
5, 42419, Note_on_c, 3, 77, 0
5, 42419, Control_c, 3, 11, 127
5, 42420, Note_on_c, 3, 80, 33
5, 42420, Note_on_c, 3, 77, 23
5, 42479, Note_on_c, 3, 77, 0
5, 42479, Note_on_c, 3, 80, 0
5, 42480, Note_on_c, 3, 75, 23
5, 42480, Note_on_c, 3, 79, 29
5, 42509, Note_on_c, 3, 79, 0
5, 42509, Note_on_c, 3, 75, 0
5, 42600, Note_on_c, 3, 75, 21
5, 42600, Note_on_c, 3, 79, 24
5, 42629, Note_on_c, 3, 79, 0
5, 42629, Note_on_c, 3, 75, 0
5, 42720, Note_on_c, 3, 75, 19
5, 42720, Note_on_c, 3, 79, 19
5, 42799, Note_on_c, 3, 79, 0
5, 42799, Note_on_c, 3, 75, 0
5, 42799, End_track
6, 0, Start_track
6, 0, MIDI_port, 0
6, 0, Title_t, "Clarinet"
6, 20, Control_c, 4, 121, 0
6, 21, Control_c, 4, 11, 127
6, 21, Control_c, 4, 7, 127
6, 22, Control_c, 4, 93, 10
6, 22, Control_c, 4, 91, 79
6, 25, Control_c, 4, 10, 54
6, 26, Pitch_bend_c, 4, 8192
6, 27, Control_c, 4, 0, 0
6, 28, Control_c, 4, 32, 0
6, 29, Program_c, 4, 71
6, 2880, Note_on_c, 4, 70, 32
6, 2880, Note_on_c, 4, 67, 22
6, 2939, Note_on_c, 4, 67, 0
6, 2939, Note_on_c, 4, 70, 0
6, 2940, Note_on_c, 4, 68, 32
6, 2940, Note_on_c, 4, 65, 22
6, 2999, Note_on_c, 4, 65, 0
6, 2999, Note_on_c, 4, 68, 0
6, 3000, Note_on_c, 4, 63, 22
6, 3000, Note_on_c, 4, 67, 32
6, 3059, Note_on_c, 4, 67, 0
6, 3060, Note_on_c, 4, 68, 32
6, 3119, Note_on_c, 4, 68, 0
6, 3120, Note_on_c, 4, 67, 32
6, 3179, Note_on_c, 4, 67, 0
6, 3179, Note_on_c, 4, 63, 0
6, 3180, Note_on_c, 4, 62, 22
6, 3180, Note_on_c, 4, 65, 31
6, 3209, Note_on_c, 4, 65, 0
6, 3209, Note_on_c, 4, 62, 0
6, 3210, Note_on_c, 4, 63, 32
6, 3210, Note_on_c, 4, 60, 22
6, 3239, Note_on_c, 4, 60, 0
6, 3239, Note_on_c, 4, 63, 0
6, 3240, Note_on_c, 4, 65, 24
6, 3240, Note_on_c, 4, 62, 22
6, 3339, Note_on_c, 4, 62, 0
6, 3339, Note_on_c, 4, 65, 0
6, 3360, Note_on_c, 4, 70, 45
6, 3360, Note_on_c, 4, 67, 45
6, 3839, Note_on_c, 4, 67, 0
6, 3839, Note_on_c, 4, 70, 0
6, 3840, Note_on_c, 4, 62, 23
6, 3840, Note_on_c, 4, 65, 23
6, 3893, Note_on_c, 4, 65, 0
6, 3893, Note_on_c, 4, 62, 0
6, 3900, Note_on_c, 4, 65, 23
6, 3900, Note_on_c, 4, 62, 23
6, 3953, Note_on_c, 4, 62, 0
6, 3953, Note_on_c, 4, 65, 0
6, 3960, Note_on_c, 4, 65, 23
6, 3960, Note_on_c, 4, 62, 23
6, 4013, Note_on_c, 4, 62, 0
6, 4013, Note_on_c, 4, 65, 0
6, 4020, Note_on_c, 4, 65, 23
6, 4020, Note_on_c, 4, 62, 23
6, 4073, Note_on_c, 4, 62, 0
6, 4073, Note_on_c, 4, 65, 0
6, 4080, Note_on_c, 4, 63, 25
6, 4153, Note_on_c, 4, 63, 0
6, 6300, Note_on_c, 4, 75, 38
6, 6359, Note_on_c, 4, 75, 0
6, 6360, Note_on_c, 4, 72, 33
6, 6419, Note_on_c, 4, 72, 0
6, 6420, Note_on_c, 4, 69, 28
6, 6479, Note_on_c, 4, 69, 0
6, 6480, Note_on_c, 4, 70, 33
6, 6540, Note_on_c, 4, 74, 33
6, 6569, Note_on_c, 4, 70, 0
6, 6599, Note_on_c, 4, 74, 0
6, 6600, Note_on_c, 4, 77, 23
6, 6659, Note_on_c, 4, 77, 0
6, 6780, Note_on_c, 4, 75, 44
6, 6839, Note_on_c, 4, 75, 0
6, 6840, Note_on_c, 4, 74, 40
6, 6869, Note_on_c, 4, 74, 0
6, 6870, Note_on_c, 4, 72, 38
6, 6899, Note_on_c, 4, 72, 0
6, 6900, Note_on_c, 4, 70, 36
6, 6929, Note_on_c, 4, 70, 0
6, 6930, Note_on_c, 4, 69, 34
6, 6960, Note_on_c, 4, 70, 35
6, 6989, Note_on_c, 4, 69, 0
6, 7199, Note_on_c, 4, 70, 0
6, 7200, Note_on_c, 4, 72, 36
6, 7439, Note_on_c, 4, 72, 0
6, 7440, Note_on_c, 4, 74, 41
6, 7559, Note_on_c, 4, 74, 0
6, 8160, Note_on_c, 4, 79, 33
6, 8160, Note_on_c, 4, 70, 23
6, 8219, Note_on_c, 4, 70, 0
6, 8219, Note_on_c, 4, 79, 0
6, 8220, Note_on_c, 4, 68, 23
6, 8220, Note_on_c, 4, 74, 33
6, 8279, Note_on_c, 4, 74, 0
6, 8279, Note_on_c, 4, 68, 0
6, 8280, Note_on_c, 4, 70, 23
6, 8280, Note_on_c, 4, 75, 33
6, 8339, Note_on_c, 4, 75, 0
6, 8339, Note_on_c, 4, 70, 0
6, 8340, Note_on_c, 4, 77, 33
6, 8340, Note_on_c, 4, 72, 23
6, 8399, Note_on_c, 4, 72, 0
6, 8399, Note_on_c, 4, 77, 0
6, 8400, Note_on_c, 4, 65, 23
6, 8400, Note_on_c, 4, 70, 33
6, 8579, Note_on_c, 4, 70, 0
6, 8579, Note_on_c, 4, 65, 0
6, 9120, Note_on_c, 4, 68, 25
6, 9120, Note_on_c, 4, 74, 25
6, 9163, Note_on_c, 4, 74, 0
6, 9163, Note_on_c, 4, 68, 0
6, 9180, Note_on_c, 4, 68, 25
6, 9180, Note_on_c, 4, 74, 25
6, 9223, Note_on_c, 4, 74, 0
6, 9223, Note_on_c, 4, 68, 0
6, 9240, Note_on_c, 4, 68, 25
6, 9240, Note_on_c, 4, 74, 25
6, 9283, Note_on_c, 4, 74, 0
6, 9283, Note_on_c, 4, 68, 0
6, 9300, Note_on_c, 4, 74, 25
6, 9300, Note_on_c, 4, 68, 25
6, 9343, Note_on_c, 4, 68, 0
6, 9343, Note_on_c, 4, 74, 0
6, 9360, Note_on_c, 4, 75, 25
6, 9360, Note_on_c, 4, 67, 25
6, 9479, Note_on_c, 4, 67, 0
6, 9479, Note_on_c, 4, 75, 0
6, 18240, Note_on_c, 4, 68, 21
6, 18240, Note_on_c, 4, 74, 21
6, 18719, Note_on_c, 4, 74, 0
6, 18719, Note_on_c, 4, 68, 0
6, 18720, Note_on_c, 4, 75, 19
6, 18720, Note_on_c, 4, 70, 19
6, 18839, Note_on_c, 4, 70, 0
6, 18839, Note_on_c, 4, 75, 0
6, 19200, Note_on_c, 4, 70, 32
6, 19200, Note_on_c, 4, 67, 22
6, 19259, Note_on_c, 4, 67, 0
6, 19259, Note_on_c, 4, 70, 0
6, 19260, Note_on_c, 4, 68, 32
6, 19260, Note_on_c, 4, 65, 22
6, 19319, Note_on_c, 4, 65, 0
6, 19319, Note_on_c, 4, 68, 0
6, 19320, Note_on_c, 4, 63, 22
6, 19320, Note_on_c, 4, 67, 32
6, 19379, Note_on_c, 4, 67, 0
6, 19380, Note_on_c, 4, 72, 32
6, 19439, Note_on_c, 4, 72, 0
6, 19440, Note_on_c, 4, 67, 32
6, 19499, Note_on_c, 4, 67, 0
6, 19499, Note_on_c, 4, 63, 0
6, 19500, Note_on_c, 4, 62, 22
6, 19500, Note_on_c, 4, 65, 31
6, 19530, Note_on_c, 4, 63, 32
6, 19530, Note_on_c, 4, 60, 22
6, 19532, Note_on_c, 4, 65, 0
6, 19532, Note_on_c, 4, 62, 0
6, 19560, Note_on_c, 4, 65, 21
6, 19560, Note_on_c, 4, 62, 20
6, 19562, Note_on_c, 4, 63, 0
6, 19562, Note_on_c, 4, 60, 0
6, 19659, Note_on_c, 4, 65, 0
6, 19659, Note_on_c, 4, 62, 0
6, 20520, Note_on_c, 4, 75, 43
6, 20520, Note_on_c, 4, 72, 33
6, 20549, Note_on_c, 4, 72, 0
6, 20549, Note_on_c, 4, 75, 0
6, 20550, Note_on_c, 4, 70, 33
6, 20550, Note_on_c, 4, 73, 43
6, 20564, Note_on_c, 4, 73, 0
6, 20564, Note_on_c, 4, 70, 0
6, 20580, Note_on_c, 4, 73, 43
6, 20580, Note_on_c, 4, 70, 33
6, 20609, Note_on_c, 4, 70, 0
6, 20609, Note_on_c, 4, 73, 0
6, 20610, Note_on_c, 4, 68, 33
6, 20610, Note_on_c, 4, 72, 43
6, 20624, Note_on_c, 4, 72, 0
6, 20624, Note_on_c, 4, 68, 0
6, 20640, Note_on_c, 4, 72, 43
6, 20640, Note_on_c, 4, 68, 33
6, 20704, Note_on_c, 4, 68, 0
6, 20704, Note_on_c, 4, 72, 0
6, 20760, Note_on_c, 4, 73, 33
6, 20760, Note_on_c, 4, 77, 43
6, 20789, Note_on_c, 4, 77, 0
6, 20789, Note_on_c, 4, 73, 0
6, 20790, Note_on_c, 4, 72, 33
6, 20790, Note_on_c, 4, 75, 43
6, 20804, Note_on_c, 4, 75, 0
6, 20804, Note_on_c, 4, 72, 0
6, 20820, Note_on_c, 4, 72, 33
6, 20820, Note_on_c, 4, 75, 43
6, 20849, Note_on_c, 4, 75, 0
6, 20849, Note_on_c, 4, 72, 0
6, 20850, Note_on_c, 4, 70, 33
6, 20850, Note_on_c, 4, 73, 43
6, 20864, Note_on_c, 4, 73, 0
6, 20864, Note_on_c, 4, 70, 0
6, 20880, Note_on_c, 4, 70, 33
6, 20880, Note_on_c, 4, 73, 43
6, 20944, Note_on_c, 4, 73, 0
6, 20944, Note_on_c, 4, 70, 0
6, 21000, Note_on_c, 4, 70, 33
6, 21000, Note_on_c, 4, 73, 43
6, 21029, Note_on_c, 4, 73, 0
6, 21029, Note_on_c, 4, 70, 0
6, 21030, Note_on_c, 4, 69, 33
6, 21030, Note_on_c, 4, 72, 43
6, 21049, Note_on_c, 4, 72, 0
6, 21049, Note_on_c, 4, 69, 0
6, 21060, Note_on_c, 4, 72, 33
6, 21060, Note_on_c, 4, 75, 43
6, 21089, Note_on_c, 4, 75, 0
6, 21089, Note_on_c, 4, 72, 0
6, 21090, Note_on_c, 4, 70, 33
6, 21090, Note_on_c, 4, 73, 43
6, 21109, Note_on_c, 4, 73, 0
6, 21109, Note_on_c, 4, 70, 0
6, 21120, Note_on_c, 4, 73, 33
6, 21120, Note_on_c, 4, 82, 43
6, 21149, Note_on_c, 4, 82, 0
6, 21149, Note_on_c, 4, 73, 0
6, 21180, Note_on_c, 4, 70, 33
6, 21180, Note_on_c, 4, 73, 43
6, 21264, Note_on_c, 4, 73, 0
6, 21269, Note_on_c, 4, 70, 0
6, 21270, Note_on_c, 4, 77, 43
6, 21270, Note_on_c, 4, 73, 33
6, 21299, Note_on_c, 4, 73, 0
6, 21299, Note_on_c, 4, 77, 0
6, 21300, Note_on_c, 4, 72, 33
6, 21300, Note_on_c, 4, 75, 43
6, 21329, Note_on_c, 4, 75, 0
6, 21329, Note_on_c, 4, 72, 0
6, 21330, Note_on_c, 4, 70, 33
6, 21330, Note_on_c, 4, 73, 43
6, 21359, Note_on_c, 4, 73, 0
6, 21359, Note_on_c, 4, 70, 0
6, 21360, Note_on_c, 4, 67, 33
6, 21360, Note_on_c, 4, 71, 43
6, 21389, Note_on_c, 4, 71, 0
6, 21390, Note_on_c, 4, 68, 33
6, 21390, Note_on_c, 4, 72, 43
6, 21394, Note_on_c, 4, 67, 0
6, 21404, Note_on_c, 4, 72, 0
6, 21404, Note_on_c, 4, 68, 0
6, 21420, Note_on_c, 4, 72, 43
6, 21420, Note_on_c, 4, 68, 33
6, 21474, Note_on_c, 4, 68, 0
6, 21479, Note_on_c, 4, 72, 0
6, 21480, Note_on_c, 4, 70, 33
6, 21509, Note_on_c, 4, 70, 0
6, 21510, Note_on_c, 4, 72, 33
6, 21539, Note_on_c, 4, 72, 0
6, 21540, Note_on_c, 4, 74, 33
6, 21569, Note_on_c, 4, 74, 0
6, 21570, Note_on_c, 4, 75, 33
6, 21599, Note_on_c, 4, 75, 0
6, 21600, Note_on_c, 4, 74, 33
6, 21600, Note_on_c, 4, 80, 43
6, 21629, Note_on_c, 4, 80, 0
6, 21630, Note_on_c, 4, 77, 33
6, 21659, Note_on_c, 4, 77, 0
6, 21660, Note_on_c, 4, 75, 33
6, 21689, Note_on_c, 4, 75, 0
6, 21689, Note_on_c, 4, 74, 0
6, 21690, Note_on_c, 4, 74, 33
6, 21719, Note_on_c, 4, 74, 0
6, 21720, Note_on_c, 4, 70, 33
6, 21749, Note_on_c, 4, 70, 0
6, 21750, Note_on_c, 4, 72, 33
6, 21779, Note_on_c, 4, 72, 0
6, 21780, Note_on_c, 4, 74, 33
6, 21809, Note_on_c, 4, 74, 0
6, 21810, Note_on_c, 4, 75, 33
6, 21839, Note_on_c, 4, 75, 0
6, 21840, Note_on_c, 4, 74, 33
6, 21840, Note_on_c, 4, 80, 43
6, 21869, Note_on_c, 4, 80, 0
6, 21870, Note_on_c, 4, 77, 33
6, 21899, Note_on_c, 4, 77, 0
6, 21899, Note_on_c, 4, 74, 0
6, 21900, Note_on_c, 4, 75, 33
6, 21929, Note_on_c, 4, 75, 0
6, 21930, Note_on_c, 4, 74, 33
6, 21959, Note_on_c, 4, 74, 0
6, 21960, Note_on_c, 4, 75, 43
6, 21960, Note_on_c, 4, 70, 33
6, 21979, Note_on_c, 4, 70, 0
6, 21979, Note_on_c, 4, 75, 0
6, 21990, Note_on_c, 4, 77, 43
6, 21990, Note_on_c, 4, 74, 33
6, 22019, Note_on_c, 4, 74, 0
6, 22019, Note_on_c, 4, 77, 0
6, 22020, Note_on_c, 4, 79, 43
6, 22020, Note_on_c, 4, 75, 33
6, 22049, Note_on_c, 4, 75, 0
6, 22049, Note_on_c, 4, 79, 0
6, 22050, Note_on_c, 4, 80, 43
6, 22050, Note_on_c, 4, 77, 33
6, 22074, Note_on_c, 4, 77, 0
6, 22074, Note_on_c, 4, 80, 0
6, 22080, Note_on_c, 4, 82, 43
6, 22080, Note_on_c, 4, 79, 33
6, 22109, Note_on_c, 4, 79, 0
6, 22109, Note_on_c, 4, 82, 0
6, 22110, Note_on_c, 4, 75, 33
6, 22110, Note_on_c, 4, 79, 43
6, 22124, Note_on_c, 4, 79, 0
6, 22124, Note_on_c, 4, 75, 0
6, 22140, Note_on_c, 4, 72, 33
6, 22140, Note_on_c, 4, 77, 43
6, 22169, Note_on_c, 4, 77, 0
6, 22170, Note_on_c, 4, 80, 43
6, 22184, Note_on_c, 4, 80, 0
6, 22184, Note_on_c, 4, 72, 0
6, 22200, Note_on_c, 4, 70, 33
6, 22200, Note_on_c, 4, 79, 43
6, 22229, Note_on_c, 4, 79, 0
6, 22229, Note_on_c, 4, 70, 0
6, 22230, Note_on_c, 4, 67, 33
6, 22230, Note_on_c, 4, 75, 43
6, 22244, Note_on_c, 4, 75, 0
6, 22244, Note_on_c, 4, 67, 0
6, 22260, Note_on_c, 4, 65, 33
6, 22260, Note_on_c, 4, 74, 43
6, 22289, Note_on_c, 4, 74, 0
6, 22289, Note_on_c, 4, 65, 0
6, 22290, Note_on_c, 4, 68, 33
6, 22290, Note_on_c, 4, 77, 43
6, 22304, Note_on_c, 4, 77, 0
6, 22304, Note_on_c, 4, 68, 0
6, 22320, Note_on_c, 4, 67, 33
6, 22320, Note_on_c, 4, 75, 43
6, 22379, Note_on_c, 4, 75, 0
6, 22379, Note_on_c, 4, 67, 0
6, 24360, Note_on_c, 4, 72, 36
6, 24360, Note_on_c, 4, 75, 48
6, 24390, Note_on_c, 4, 70, 34
6, 24390, Note_on_c, 4, 73, 46
6, 24392, Note_on_c, 4, 75, 0
6, 24392, Note_on_c, 4, 72, 0
6, 24404, Note_on_c, 4, 70, 0
6, 24404, Note_on_c, 4, 73, 0
6, 24420, Note_on_c, 4, 70, 33
6, 24420, Note_on_c, 4, 73, 44
6, 24450, Note_on_c, 4, 72, 42
6, 24450, Note_on_c, 4, 69, 32
6, 24452, Note_on_c, 4, 73, 0
6, 24452, Note_on_c, 4, 70, 0
6, 24464, Note_on_c, 4, 72, 0
6, 24464, Note_on_c, 4, 69, 0
6, 24480, Note_on_c, 4, 72, 40
6, 24480, Note_on_c, 4, 69, 30
6, 24549, Note_on_c, 4, 69, 0
6, 24549, Note_on_c, 4, 72, 0
6, 24600, Note_on_c, 4, 72, 39
6, 24600, Note_on_c, 4, 78, 52
6, 24630, Note_on_c, 4, 77, 49
6, 24632, Note_on_c, 4, 78, 0
6, 24649, Note_on_c, 4, 77, 0
6, 24660, Note_on_c, 4, 77, 46
6, 24690, Note_on_c, 4, 75, 43
6, 24692, Note_on_c, 4, 77, 0
6, 24709, Note_on_c, 4, 75, 0
6, 24719, Note_on_c, 4, 72, 0
6, 24720, Note_on_c, 4, 75, 40
6, 24720, Note_on_c, 4, 72, 30
6, 24750, Note_on_c, 4, 74, 38
6, 24750, Note_on_c, 4, 70, 28
6, 24752, Note_on_c, 4, 72, 0
6, 24752, Note_on_c, 4, 75, 0
6, 24780, Note_on_c, 4, 73, 35
6, 24780, Note_on_c, 4, 70, 26
6, 24782, Note_on_c, 4, 70, 0
6, 24782, Note_on_c, 4, 74, 0
6, 24869, Note_on_c, 4, 73, 0
6, 24869, Note_on_c, 4, 70, 0
6, 24870, Note_on_c, 4, 72, 26
6, 24870, Note_on_c, 4, 75, 35
6, 24900, Note_on_c, 4, 77, 36
6, 24900, Note_on_c, 4, 73, 26
6, 24902, Note_on_c, 4, 75, 0
6, 24902, Note_on_c, 4, 72, 0
6, 24930, Note_on_c, 4, 79, 38
6, 24930, Note_on_c, 4, 70, 27
6, 24932, Note_on_c, 4, 77, 0
6, 24932, Note_on_c, 4, 73, 0
6, 24960, Note_on_c, 4, 80, 40
6, 24960, Note_on_c, 4, 72, 30
6, 24962, Note_on_c, 4, 79, 0
6, 24962, Note_on_c, 4, 70, 0
6, 24990, Note_on_c, 4, 82, 43
6, 24992, Note_on_c, 4, 80, 0
6, 25020, Note_on_c, 4, 84, 47
6, 25022, Note_on_c, 4, 82, 0
6, 25050, Note_on_c, 4, 80, 51
6, 25052, Note_on_c, 4, 84, 0
6, 25080, Note_on_c, 4, 79, 44
6, 25082, Note_on_c, 4, 80, 0
6, 25109, Note_on_c, 4, 72, 0
6, 25110, Note_on_c, 4, 73, 33
6, 25110, Note_on_c, 4, 77, 44
6, 25112, Note_on_c, 4, 79, 0
6, 25140, Note_on_c, 4, 72, 31
6, 25140, Note_on_c, 4, 75, 42
6, 25142, Note_on_c, 4, 77, 0
6, 25142, Note_on_c, 4, 73, 0
6, 25170, Note_on_c, 4, 70, 30
6, 25170, Note_on_c, 4, 73, 40
6, 25172, Note_on_c, 4, 72, 0
6, 25172, Note_on_c, 4, 75, 0
6, 25200, Note_on_c, 4, 68, 28
6, 25200, Note_on_c, 4, 72, 38
6, 25202, Note_on_c, 4, 70, 0
6, 25202, Note_on_c, 4, 73, 0
6, 25260, Note_on_c, 4, 70, 22
6, 25260, Note_on_c, 4, 67, 25
6, 25264, Note_on_c, 4, 68, 0
6, 25264, Note_on_c, 4, 72, 0
6, 25304, Note_on_c, 4, 70, 0
6, 25304, Note_on_c, 4, 67, 0
6, 25320, Note_on_c, 4, 75, 44
6, 25349, Note_on_c, 4, 75, 0
6, 25350, Note_on_c, 4, 72, 44
6, 25379, Note_on_c, 4, 72, 0
6, 25380, Note_on_c, 4, 70, 43
6, 25409, Note_on_c, 4, 70, 0
6, 25410, Note_on_c, 4, 68, 42
6, 25439, Note_on_c, 4, 68, 0
6, 25440, Note_on_c, 4, 67, 31
6, 25440, Note_on_c, 4, 73, 39
6, 25469, Note_on_c, 4, 73, 0
6, 25470, Note_on_c, 4, 70, 30
6, 25484, Note_on_c, 4, 67, 0
6, 25499, Note_on_c, 4, 70, 0
6, 25500, Note_on_c, 4, 68, 29
6, 25529, Note_on_c, 4, 68, 0
6, 25530, Note_on_c, 4, 67, 28
6, 25559, Note_on_c, 4, 67, 0
6, 25560, Note_on_c, 4, 68, 33
6, 25560, Note_on_c, 4, 75, 44
6, 25589, Note_on_c, 4, 75, 0
6, 25590, Note_on_c, 4, 72, 42
6, 25609, Note_on_c, 4, 68, 0
6, 25619, Note_on_c, 4, 72, 0
6, 25620, Note_on_c, 4, 70, 41
6, 25649, Note_on_c, 4, 70, 0
6, 25650, Note_on_c, 4, 68, 40
6, 25679, Note_on_c, 4, 68, 0
6, 25680, Note_on_c, 4, 67, 29
6, 25680, Note_on_c, 4, 73, 37
6, 25709, Note_on_c, 4, 73, 0
6, 25710, Note_on_c, 4, 70, 28
6, 25729, Note_on_c, 4, 67, 0
6, 25739, Note_on_c, 4, 70, 0
6, 25740, Note_on_c, 4, 68, 27
6, 25769, Note_on_c, 4, 68, 0
6, 25770, Note_on_c, 4, 67, 25
6, 25799, Note_on_c, 4, 67, 0
6, 25800, Note_on_c, 4, 66, 33
6, 25800, Note_on_c, 4, 75, 44
6, 25829, Note_on_c, 4, 75, 0
6, 25830, Note_on_c, 4, 72, 45
6, 25859, Note_on_c, 4, 72, 0
6, 25860, Note_on_c, 4, 70, 47
6, 25889, Note_on_c, 4, 70, 0
6, 25890, Note_on_c, 4, 69, 49
6, 25914, Note_on_c, 4, 66, 0
6, 25919, Note_on_c, 4, 69, 0
6, 25920, Note_on_c, 4, 70, 51
6, 25920, Note_on_c, 4, 65, 38
6, 25949, Note_on_c, 4, 65, 0
6, 25949, Note_on_c, 4, 70, 0
6, 25950, Note_on_c, 4, 80, 53
6, 25950, Note_on_c, 4, 77, 40
6, 25979, Note_on_c, 4, 77, 0
6, 25979, Note_on_c, 4, 80, 0
6, 25980, Note_on_c, 4, 75, 39
6, 25980, Note_on_c, 4, 79, 52
6, 26009, Note_on_c, 4, 79, 0
6, 26009, Note_on_c, 4, 75, 0
6, 26010, Note_on_c, 4, 73, 36
6, 26010, Note_on_c, 4, 77, 48
6, 26039, Note_on_c, 4, 77, 0
6, 26039, Note_on_c, 4, 73, 0
6, 26040, Note_on_c, 4, 72, 33
6, 26040, Note_on_c, 4, 75, 44
6, 26069, Note_on_c, 4, 75, 0
6, 26069, Note_on_c, 4, 72, 0
6, 26070, Note_on_c, 4, 68, 30
6, 26070, Note_on_c, 4, 72, 40
6, 26094, Note_on_c, 4, 72, 0
6, 26094, Note_on_c, 4, 68, 0
6, 26100, Note_on_c, 4, 70, 33
6, 26100, Note_on_c, 4, 73, 44
6, 26129, Note_on_c, 4, 73, 0
6, 26129, Note_on_c, 4, 70, 0
6, 26130, Note_on_c, 4, 70, 40
6, 26130, Note_on_c, 4, 67, 30
6, 26154, Note_on_c, 4, 67, 0
6, 26154, Note_on_c, 4, 70, 0
6, 26160, Note_on_c, 4, 68, 28
6, 26219, Note_on_c, 4, 68, 0
6, 29040, Note_on_c, 4, 70, 25
6, 29280, Note_on_c, 4, 72, 29
6, 29399, Note_on_c, 4, 70, 0
6, 29400, Note_on_c, 4, 68, 31
6, 29519, Note_on_c, 4, 72, 0
6, 29520, Note_on_c, 4, 70, 33
6, 29639, Note_on_c, 4, 68, 0
6, 29640, Note_on_c, 4, 67, 35
6, 29739, Note_on_c, 4, 70, 0
6, 29749, Note_on_c, 4, 67, 0
6, 29760, Note_on_c, 4, 68, 34
6, 29760, Note_on_c, 4, 65, 34
6, 29789, Note_on_c, 4, 65, 0
6, 29789, Note_on_c, 4, 68, 0
6, 29790, Note_on_c, 4, 67, 35
6, 29790, Note_on_c, 4, 63, 35
6, 29809, Note_on_c, 4, 63, 0
6, 29809, Note_on_c, 4, 67, 0
6, 29820, Note_on_c, 4, 67, 36
6, 29820, Note_on_c, 4, 63, 36
6, 29849, Note_on_c, 4, 63, 0
6, 29849, Note_on_c, 4, 67, 0
6, 29850, Note_on_c, 4, 62, 37
6, 29850, Note_on_c, 4, 65, 37
6, 29869, Note_on_c, 4, 65, 0
6, 29869, Note_on_c, 4, 62, 0
6, 29880, Note_on_c, 4, 65, 38
6, 29880, Note_on_c, 4, 62, 38
6, 29909, Note_on_c, 4, 62, 0
6, 29909, Note_on_c, 4, 65, 0
6, 29910, Note_on_c, 4, 75, 44
6, 29910, Note_on_c, 4, 72, 44
6, 29929, Note_on_c, 4, 72, 0
6, 29929, Note_on_c, 4, 75, 0
6, 29940, Note_on_c, 4, 75, 42
6, 29940, Note_on_c, 4, 72, 42
6, 29969, Note_on_c, 4, 72, 0
6, 29969, Note_on_c, 4, 75, 0
6, 29970, Note_on_c, 4, 70, 40
6, 29970, Note_on_c, 4, 74, 40
6, 29989, Note_on_c, 4, 74, 0
6, 29989, Note_on_c, 4, 70, 0
6, 30000, Note_on_c, 4, 74, 38
6, 30000, Note_on_c, 4, 70, 38
6, 30029, Note_on_c, 4, 70, 0
6, 30029, Note_on_c, 4, 74, 0
6, 30030, Note_on_c, 4, 68, 36
6, 30030, Note_on_c, 4, 72, 36
6, 30049, Note_on_c, 4, 72, 0
6, 30049, Note_on_c, 4, 68, 0
6, 30060, Note_on_c, 4, 68, 34
6, 30060, Note_on_c, 4, 72, 34
6, 30089, Note_on_c, 4, 72, 0
6, 30089, Note_on_c, 4, 68, 0
6, 30090, Note_on_c, 4, 70, 32
6, 30090, Note_on_c, 4, 67, 32
6, 30109, Note_on_c, 4, 67, 0
6, 30109, Note_on_c, 4, 70, 0
6, 30120, Note_on_c, 4, 70, 30
6, 30120, Note_on_c, 4, 67, 30
6, 30149, Note_on_c, 4, 67, 0
6, 30149, Note_on_c, 4, 70, 0
6, 30150, Note_on_c, 4, 65, 28
6, 30150, Note_on_c, 4, 68, 28
6, 30169, Note_on_c, 4, 68, 0
6, 30169, Note_on_c, 4, 65, 0
6, 30180, Note_on_c, 4, 68, 26
6, 30180, Note_on_c, 4, 65, 26
6, 30209, Note_on_c, 4, 65, 0
6, 30209, Note_on_c, 4, 68, 0
6, 30210, Note_on_c, 4, 63, 24
6, 30210, Note_on_c, 4, 67, 24
6, 30229, Note_on_c, 4, 67, 0
6, 30229, Note_on_c, 4, 63, 0
6, 30240, Note_on_c, 4, 67, 22
6, 30240, Note_on_c, 4, 63, 22
6, 30299, Note_on_c, 4, 63, 0
6, 30299, Note_on_c, 4, 67, 0
6, 34140, Note_on_c, 4, 75, 38
6, 34199, Note_on_c, 4, 75, 0
6, 34200, Note_on_c, 4, 72, 33
6, 34259, Note_on_c, 4, 72, 0
6, 34260, Note_on_c, 4, 69, 28
6, 34319, Note_on_c, 4, 69, 0
6, 34320, Note_on_c, 4, 70, 33
6, 34380, Note_on_c, 4, 74, 33
6, 34409, Note_on_c, 4, 70, 0
6, 34439, Note_on_c, 4, 74, 0
6, 34440, Note_on_c, 4, 77, 23
6, 34499, Note_on_c, 4, 77, 0
6, 34620, Note_on_c, 4, 75, 44
6, 34679, Note_on_c, 4, 75, 0
6, 34680, Note_on_c, 4, 74, 40
6, 34709, Note_on_c, 4, 74, 0
6, 34710, Note_on_c, 4, 72, 38
6, 34739, Note_on_c, 4, 72, 0
6, 34740, Note_on_c, 4, 70, 36
6, 34769, Note_on_c, 4, 70, 0
6, 34770, Note_on_c, 4, 69, 34
6, 34800, Note_on_c, 4, 70, 35
6, 34829, Note_on_c, 4, 69, 0
6, 35039, Note_on_c, 4, 70, 0
6, 35040, Note_on_c, 4, 72, 36
6, 35279, Note_on_c, 4, 72, 0
6, 35280, Note_on_c, 4, 74, 41
6, 35399, Note_on_c, 4, 74, 0
6, 35520, Note_on_c, 4, 63, 24
6, 35520, Note_on_c, 4, 55, 24
6, 35579, Note_on_c, 4, 55, 0
6, 35579, Note_on_c, 4, 63, 0
6, 35580, Note_on_c, 4, 58, 24
6, 35580, Note_on_c, 4, 67, 24
6, 35639, Note_on_c, 4, 67, 0
6, 35639, Note_on_c, 4, 58, 0
6, 35640, Note_on_c, 4, 63, 24
6, 35640, Note_on_c, 4, 55, 24
6, 35699, Note_on_c, 4, 55, 0
6, 35699, Note_on_c, 4, 63, 0
6, 35700, Note_on_c, 4, 58, 24
6, 35700, Note_on_c, 4, 67, 24
6, 35759, Note_on_c, 4, 67, 0
6, 35759, Note_on_c, 4, 58, 0
6, 35760, Note_on_c, 4, 63, 24
6, 35760, Note_on_c, 4, 55, 24
6, 35819, Note_on_c, 4, 55, 0
6, 35819, Note_on_c, 4, 63, 0
6, 35820, Note_on_c, 4, 58, 24
6, 35820, Note_on_c, 4, 67, 24
6, 35879, Note_on_c, 4, 67, 0
6, 35879, Note_on_c, 4, 58, 0
6, 35880, Note_on_c, 4, 63, 24
6, 35880, Note_on_c, 4, 55, 24
6, 35939, Note_on_c, 4, 55, 0
6, 35939, Note_on_c, 4, 63, 0
6, 35940, Note_on_c, 4, 58, 24
6, 35940, Note_on_c, 4, 67, 24
6, 35969, Note_on_c, 4, 67, 0
6, 35969, Note_on_c, 4, 58, 0
6, 36000, Note_on_c, 4, 67, 28
6, 36000, Note_on_c, 4, 70, 28
6, 36059, Note_on_c, 4, 67, 0
6, 36060, Note_on_c, 4, 68, 30
6, 36119, Note_on_c, 4, 68, 0
6, 36120, Note_on_c, 4, 67, 33
6, 36179, Note_on_c, 4, 67, 0
6, 36179, Note_on_c, 4, 70, 0
6, 36180, Note_on_c, 4, 63, 35
6, 36180, Note_on_c, 4, 72, 35
6, 36239, Note_on_c, 4, 72, 0
6, 36240, Note_on_c, 4, 67, 38
6, 36279, Note_on_c, 4, 63, 0
6, 36299, Note_on_c, 4, 67, 0
6, 36300, Note_on_c, 4, 62, 33
6, 36300, Note_on_c, 4, 65, 33
6, 36329, Note_on_c, 4, 65, 0
6, 36329, Note_on_c, 4, 62, 0
6, 36330, Note_on_c, 4, 60, 28
6, 36330, Note_on_c, 4, 63, 28
6, 36359, Note_on_c, 4, 63, 0
6, 36359, Note_on_c, 4, 60, 0
6, 36360, Note_on_c, 4, 62, 23
6, 36360, Note_on_c, 4, 65, 23
6, 36449, Note_on_c, 4, 65, 0
6, 36449, Note_on_c, 4, 62, 0
6, 36480, Note_on_c, 4, 63, 23
6, 36480, Note_on_c, 4, 55, 23
6, 36539, Note_on_c, 4, 55, 0
6, 36539, Note_on_c, 4, 63, 0
6, 36540, Note_on_c, 4, 58, 23
6, 36540, Note_on_c, 4, 67, 23
6, 36599, Note_on_c, 4, 67, 0
6, 36599, Note_on_c, 4, 58, 0
6, 36600, Note_on_c, 4, 63, 23
6, 36600, Note_on_c, 4, 55, 23
6, 36659, Note_on_c, 4, 55, 0
6, 36659, Note_on_c, 4, 63, 0
6, 36660, Note_on_c, 4, 58, 23
6, 36660, Note_on_c, 4, 67, 23
6, 36719, Note_on_c, 4, 67, 0
6, 36719, Note_on_c, 4, 58, 0
6, 36720, Note_on_c, 4, 55, 23
6, 36720, Note_on_c, 4, 63, 23
6, 36779, Note_on_c, 4, 63, 0
6, 36779, Note_on_c, 4, 55, 0
6, 36780, Note_on_c, 4, 58, 23
6, 36780, Note_on_c, 4, 67, 23
6, 36839, Note_on_c, 4, 67, 0
6, 36839, Note_on_c, 4, 58, 0
6, 36840, Note_on_c, 4, 63, 23
6, 36840, Note_on_c, 4, 55, 23
6, 36899, Note_on_c, 4, 55, 0
6, 36899, Note_on_c, 4, 63, 0
6, 36900, Note_on_c, 4, 58, 23
6, 36900, Note_on_c, 4, 67, 23
6, 36929, Note_on_c, 4, 58, 0
6, 36959, Note_on_c, 4, 67, 0
6, 36960, Note_on_c, 4, 62, 33
6, 36960, Note_on_c, 4, 65, 33
6, 36999, Note_on_c, 4, 65, 0
6, 36999, Note_on_c, 4, 62, 0
6, 37020, Note_on_c, 4, 62, 31
6, 37020, Note_on_c, 4, 65, 31
6, 37059, Note_on_c, 4, 65, 0
6, 37059, Note_on_c, 4, 62, 0
6, 37080, Note_on_c, 4, 65, 28
6, 37080, Note_on_c, 4, 62, 28
6, 37119, Note_on_c, 4, 62, 0
6, 37119, Note_on_c, 4, 65, 0
6, 37140, Note_on_c, 4, 62, 26
6, 37140, Note_on_c, 4, 65, 26
6, 37179, Note_on_c, 4, 65, 0
6, 37179, Note_on_c, 4, 62, 0
6, 37200, Note_on_c, 4, 63, 23
6, 37319, Note_on_c, 4, 63, 0
6, 37440, Note_on_c, 4, 75, 34
6, 37440, Note_on_c, 4, 72, 26
6, 37589, Note_on_c, 4, 72, 0
6, 37589, Note_on_c, 4, 75, 0
6, 37590, Note_on_c, 4, 70, 24
6, 37590, Note_on_c, 4, 74, 31
6, 37609, Note_on_c, 4, 74, 0
6, 37609, Note_on_c, 4, 70, 0
6, 37620, Note_on_c, 4, 70, 23
6, 37620, Note_on_c, 4, 74, 31
6, 37649, Note_on_c, 4, 74, 0
6, 37649, Note_on_c, 4, 70, 0
6, 37650, Note_on_c, 4, 68, 23
6, 37650, Note_on_c, 4, 72, 30
6, 37679, Note_on_c, 4, 72, 0
6, 37679, Note_on_c, 4, 68, 0
6, 37680, Note_on_c, 4, 70, 30
6, 37680, Note_on_c, 4, 67, 23
6, 37799, Note_on_c, 4, 67, 0
6, 37799, Note_on_c, 4, 70, 0
6, 37920, Note_on_c, 4, 75, 34
6, 37920, Note_on_c, 4, 72, 26
6, 38069, Note_on_c, 4, 72, 0
6, 38069, Note_on_c, 4, 75, 0
6, 38070, Note_on_c, 4, 70, 23
6, 38070, Note_on_c, 4, 74, 30
6, 38089, Note_on_c, 4, 74, 0
6, 38089, Note_on_c, 4, 70, 0
6, 38100, Note_on_c, 4, 70, 23
6, 38100, Note_on_c, 4, 74, 30
6, 38129, Note_on_c, 4, 74, 0
6, 38129, Note_on_c, 4, 70, 0
6, 38130, Note_on_c, 4, 68, 22
6, 38130, Note_on_c, 4, 72, 29
6, 38159, Note_on_c, 4, 72, 0
6, 38159, Note_on_c, 4, 68, 0
6, 38160, Note_on_c, 4, 67, 22
6, 38160, Note_on_c, 4, 70, 28
6, 38279, Note_on_c, 4, 70, 0
6, 38279, Note_on_c, 4, 67, 0
6, 39120, Note_on_c, 4, 75, 31
6, 39240, Note_on_c, 4, 74, 23
6, 39299, Note_on_c, 4, 74, 0
6, 39300, Note_on_c, 4, 73, 26
6, 39359, Note_on_c, 4, 73, 0
6, 39360, Note_on_c, 4, 72, 26
6, 39509, Note_on_c, 4, 72, 0
6, 39509, Note_on_c, 4, 75, 0
6, 39510, Note_on_c, 4, 70, 24
6, 39510, Note_on_c, 4, 74, 31
6, 39529, Note_on_c, 4, 74, 0
6, 39529, Note_on_c, 4, 70, 0
6, 39540, Note_on_c, 4, 70, 23
6, 39540, Note_on_c, 4, 74, 31
6, 39569, Note_on_c, 4, 74, 0
6, 39569, Note_on_c, 4, 70, 0
6, 39570, Note_on_c, 4, 68, 23
6, 39570, Note_on_c, 4, 72, 30
6, 39599, Note_on_c, 4, 72, 0
6, 39599, Note_on_c, 4, 68, 0
6, 39600, Note_on_c, 4, 70, 30
6, 39600, Note_on_c, 4, 67, 23
6, 39719, Note_on_c, 4, 67, 0
6, 39719, Note_on_c, 4, 70, 0
6, 39840, Note_on_c, 4, 75, 34
6, 39840, Note_on_c, 4, 72, 26
6, 39989, Note_on_c, 4, 72, 0
6, 39989, Note_on_c, 4, 75, 0
6, 39990, Note_on_c, 4, 70, 23
6, 39990, Note_on_c, 4, 74, 30
6, 40009, Note_on_c, 4, 74, 0
6, 40009, Note_on_c, 4, 70, 0
6, 40020, Note_on_c, 4, 70, 23
6, 40020, Note_on_c, 4, 74, 30
6, 40049, Note_on_c, 4, 74, 0
6, 40049, Note_on_c, 4, 70, 0
6, 40050, Note_on_c, 4, 68, 22
6, 40050, Note_on_c, 4, 72, 29
6, 40079, Note_on_c, 4, 72, 0
6, 40079, Note_on_c, 4, 68, 0
6, 40080, Note_on_c, 4, 67, 22
6, 40080, Note_on_c, 4, 70, 28
6, 40199, Note_on_c, 4, 70, 0
6, 40199, Note_on_c, 4, 67, 0
6, 41039, Control_c, 4, 11, 66
6, 41040, Note_on_c, 4, 79, 33
6, 41040, Note_on_c, 4, 75, 23
6, 41041, Control_c, 4, 11, 67
6, 41048, Control_c, 4, 11, 68
6, 41055, Control_c, 4, 11, 69
6, 41062, Control_c, 4, 11, 70
6, 41069, Control_c, 4, 11, 71
6, 41076, Control_c, 4, 11, 72
6, 41083, Control_c, 4, 11, 73
6, 41090, Control_c, 4, 11, 74
6, 41097, Control_c, 4, 11, 75
6, 41104, Control_c, 4, 11, 76
6, 41111, Control_c, 4, 11, 77
6, 41118, Control_c, 4, 11, 78
6, 41125, Control_c, 4, 11, 80
6, 41132, Control_c, 4, 11, 82
6, 41139, Control_c, 4, 11, 84
6, 41146, Control_c, 4, 11, 86
6, 41153, Control_c, 4, 11, 88
6, 41160, Control_c, 4, 11, 90
6, 41167, Control_c, 4, 11, 92
6, 41174, Control_c, 4, 11, 94
6, 41181, Control_c, 4, 11, 96
6, 41188, Control_c, 4, 11, 98
6, 41195, Control_c, 4, 11, 100
6, 41202, Control_c, 4, 11, 103
6, 41209, Control_c, 4, 11, 106
6, 41216, Control_c, 4, 11, 109
6, 41223, Control_c, 4, 11, 112
6, 41230, Control_c, 4, 11, 115
6, 41237, Control_c, 4, 11, 118
6, 41244, Control_c, 4, 11, 121
6, 41251, Control_c, 4, 11, 124
6, 41258, Control_c, 4, 11, 127
6, 41279, Note_on_c, 4, 79, 0
6, 41279, Control_c, 4, 11, 127
6, 41280, Note_on_c, 4, 77, 21
6, 41399, Note_on_c, 4, 75, 0
6, 41400, Note_on_c, 4, 74, 23
6, 41459, Note_on_c, 4, 74, 0
6, 41460, Note_on_c, 4, 70, 18
6, 41519, Note_on_c, 4, 70, 0
6, 41519, Note_on_c, 4, 77, 0
6, 41519, Control_c, 4, 11, 66
6, 41520, Note_on_c, 4, 75, 27
6, 41520, Note_on_c, 4, 79, 37
6, 41521, Control_c, 4, 11, 67
6, 41528, Control_c, 4, 11, 68
6, 41535, Control_c, 4, 11, 69
6, 41542, Control_c, 4, 11, 70
6, 41549, Control_c, 4, 11, 71
6, 41556, Control_c, 4, 11, 72
6, 41563, Control_c, 4, 11, 73
6, 41570, Control_c, 4, 11, 74
6, 41577, Control_c, 4, 11, 75
6, 41584, Control_c, 4, 11, 76
6, 41591, Control_c, 4, 11, 77
6, 41598, Control_c, 4, 11, 78
6, 41605, Control_c, 4, 11, 80
6, 41612, Control_c, 4, 11, 82
6, 41619, Control_c, 4, 11, 84
6, 41626, Control_c, 4, 11, 86
6, 41633, Control_c, 4, 11, 88
6, 41640, Control_c, 4, 11, 90
6, 41647, Control_c, 4, 11, 92
6, 41654, Control_c, 4, 11, 94
6, 41661, Control_c, 4, 11, 96
6, 41668, Control_c, 4, 11, 98
6, 41675, Control_c, 4, 11, 100
6, 41682, Control_c, 4, 11, 103
6, 41689, Control_c, 4, 11, 106
6, 41696, Control_c, 4, 11, 109
6, 41703, Control_c, 4, 11, 112
6, 41710, Control_c, 4, 11, 115
6, 41717, Control_c, 4, 11, 118
6, 41724, Control_c, 4, 11, 121
6, 41731, Control_c, 4, 11, 124
6, 41738, Control_c, 4, 11, 127
6, 41759, Note_on_c, 4, 79, 0
6, 41759, Control_c, 4, 11, 127
6, 41760, Note_on_c, 4, 77, 23
6, 41879, Note_on_c, 4, 75, 0
6, 41880, Note_on_c, 4, 74, 23
6, 41939, Note_on_c, 4, 74, 0
6, 41940, Note_on_c, 4, 70, 23
6, 41999, Note_on_c, 4, 70, 0
6, 41999, Note_on_c, 4, 77, 0
6, 42000, Note_on_c, 4, 75, 23
6, 42000, Note_on_c, 4, 79, 28
6, 42109, Note_on_c, 4, 79, 0
6, 42109, Note_on_c, 4, 75, 0
6, 42120, Note_on_c, 4, 67, 23
6, 42120, Note_on_c, 4, 75, 29
6, 42239, Note_on_c, 4, 67, 0
6, 42240, Note_on_c, 4, 65, 23
6, 42360, Note_on_c, 4, 74, 24
6, 42389, Note_on_c, 4, 75, 0
6, 42419, Note_on_c, 4, 65, 0
6, 42420, Note_on_c, 4, 68, 23
6, 42479, Note_on_c, 4, 68, 0
6, 42479, Note_on_c, 4, 74, 0
6, 42480, Note_on_c, 4, 67, 23
6, 42480, Note_on_c, 4, 75, 26
6, 42519, Note_on_c, 4, 75, 0
6, 42519, Note_on_c, 4, 67, 0
6, 42600, Note_on_c, 4, 70, 27
6, 42600, Note_on_c, 4, 67, 21
6, 42639, Note_on_c, 4, 67, 0
6, 42639, Note_on_c, 4, 70, 0
6, 42720, Note_on_c, 4, 67, 21
6, 42720, Note_on_c, 4, 70, 24
6, 42799, Note_on_c, 4, 70, 0
6, 42799, Note_on_c, 4, 67, 0
6, 42799, End_track
7, 0, Start_track
7, 0, MIDI_port, 0
7, 0, Title_t, "Bassoons"
7, 20, Control_c, 5, 121, 0
7, 21, Control_c, 5, 11, 127
7, 21, Control_c, 5, 7, 127
7, 22, Control_c, 5, 93, 10
7, 22, Control_c, 5, 91, 79
7, 25, Control_c, 5, 10, 64
7, 26, Pitch_bend_c, 5, 8192
7, 27, Control_c, 5, 0, 0
7, 28, Control_c, 5, 32, 0
7, 29, Program_c, 5, 70
7, 2400, Note_on_c, 5, 58, 44
7, 2400, Note_on_c, 5, 55, 44
7, 2879, Note_on_c, 5, 55, 0
7, 2879, Note_on_c, 5, 58, 0
7, 2880, Note_on_c, 5, 63, 35
7, 2939, Note_on_c, 5, 63, 0
7, 2940, Note_on_c, 5, 59, 34
7, 2999, Note_on_c, 5, 59, 0
7, 3000, Note_on_c, 5, 60, 32
7, 3059, Note_on_c, 5, 60, 0
7, 3060, Note_on_c, 5, 56, 30
7, 3119, Note_on_c, 5, 56, 0
7, 3120, Note_on_c, 5, 58, 29
7, 3239, Note_on_c, 5, 58, 0
7, 3240, Note_on_c, 5, 46, 25
7, 3329, Note_on_c, 5, 46, 0
7, 3360, Note_on_c, 5, 58, 33
7, 3360, Note_on_c, 5, 55, 33
7, 3839, Note_on_c, 5, 55, 0
7, 3839, Note_on_c, 5, 58, 0
7, 3840, Note_on_c, 5, 56, 22
7, 3840, Note_on_c, 5, 53, 22
7, 3893, Note_on_c, 5, 53, 0
7, 3893, Note_on_c, 5, 56, 0
7, 3900, Note_on_c, 5, 53, 22
7, 3900, Note_on_c, 5, 56, 22
7, 3953, Note_on_c, 5, 56, 0
7, 3953, Note_on_c, 5, 53, 0
7, 3960, Note_on_c, 5, 53, 21
7, 3960, Note_on_c, 5, 56, 21
7, 4013, Note_on_c, 5, 56, 0
7, 4013, Note_on_c, 5, 53, 0
7, 4020, Note_on_c, 5, 56, 20
7, 4020, Note_on_c, 5, 53, 20
7, 4073, Note_on_c, 5, 53, 0
7, 4073, Note_on_c, 5, 56, 0
7, 4080, Note_on_c, 5, 51, 19
7, 4080, Note_on_c, 5, 55, 19
7, 4169, Note_on_c, 5, 55, 0
7, 4169, Note_on_c, 5, 51, 0
7, 6060, Note_on_c, 5, 65, 33
7, 6119, Note_on_c, 5, 65, 0
7, 6120, Note_on_c, 5, 62, 33
7, 6180, Note_on_c, 5, 58, 33
7, 6209, Note_on_c, 5, 62, 0
7, 6239, Note_on_c, 5, 58, 0
7, 6240, Note_on_c, 5, 57, 33
7, 6299, Note_on_c, 5, 57, 0
7, 6300, Note_on_c, 5, 60, 29
7, 6359, Note_on_c, 5, 60, 0
7, 6360, Note_on_c, 5, 63, 26
7, 6419, Note_on_c, 5, 63, 0
7, 6540, Note_on_c, 5, 65, 33
7, 6599, Note_on_c, 5, 65, 0
7, 6600, Note_on_c, 5, 63, 33
7, 6629, Note_on_c, 5, 63, 0
7, 6630, Note_on_c, 5, 62, 33
7, 6659, Note_on_c, 5, 62, 0
7, 6660, Note_on_c, 5, 60, 33
7, 6689, Note_on_c, 5, 60, 0
7, 6690, Note_on_c, 5, 58, 33
7, 6719, Note_on_c, 5, 58, 0
7, 6720, Note_on_c, 5, 57, 33
7, 6779, Note_on_c, 5, 57, 0
7, 6780, Note_on_c, 5, 60, 33
7, 6839, Note_on_c, 5, 60, 0
7, 6840, Note_on_c, 5, 63, 26
7, 6899, Note_on_c, 5, 63, 0
7, 7020, Note_on_c, 5, 65, 35
7, 7079, Note_on_c, 5, 65, 0
7, 7080, Note_on_c, 5, 62, 33
7, 7139, Note_on_c, 5, 62, 0
7, 7140, Note_on_c, 5, 58, 29
7, 7199, Note_on_c, 5, 58, 0
7, 7260, Note_on_c, 5, 66, 43
7, 7319, Note_on_c, 5, 66, 0
7, 7320, Note_on_c, 5, 63, 38
7, 7379, Note_on_c, 5, 63, 0
7, 7380, Note_on_c, 5, 60, 33
7, 7409, Note_on_c, 5, 60, 0
7, 7440, Note_on_c, 5, 62, 38
7, 7440, Note_on_c, 5, 65, 38
7, 7559, Note_on_c, 5, 65, 0
7, 7559, Note_on_c, 5, 62, 0
7, 8160, Note_on_c, 5, 51, 18
7, 8160, Note_on_c, 5, 58, 28
7, 8219, Note_on_c, 5, 51, 0
7, 8220, Note_on_c, 5, 53, 18
7, 8279, Note_on_c, 5, 53, 0
7, 8280, Note_on_c, 5, 55, 22
7, 8339, Note_on_c, 5, 55, 0
7, 8339, Note_on_c, 5, 58, 0
7, 8340, Note_on_c, 5, 57, 26
7, 8340, Note_on_c, 5, 63, 33
7, 8399, Note_on_c, 5, 57, 0
7, 8400, Note_on_c, 5, 58, 18
7, 8459, Note_on_c, 5, 63, 0
7, 8460, Note_on_c, 5, 62, 26
7, 8489, Note_on_c, 5, 62, 0
7, 8490, Note_on_c, 5, 60, 22
7, 8519, Note_on_c, 5, 60, 0
7, 8520, Note_on_c, 5, 62, 20
7, 8579, Note_on_c, 5, 58, 0
7, 8599, Note_on_c, 5, 62, 0
7, 9630, Note_on_c, 5, 48, 25
7, 9659, Note_on_c, 5, 48, 0
7, 9660, Note_on_c, 5, 51, 28
7, 9689, Note_on_c, 5, 51, 0
7, 9690, Note_on_c, 5, 55, 31
7, 9719, Note_on_c, 5, 55, 0
7, 9720, Note_on_c, 5, 60, 25
7, 9839, Note_on_c, 5, 60, 0
7, 9870, Note_on_c, 5, 60, 25
7, 9899, Note_on_c, 5, 60, 0
7, 9900, Note_on_c, 5, 61, 28
7, 9929, Note_on_c, 5, 61, 0
7, 9930, Note_on_c, 5, 60, 31
7, 9959, Note_on_c, 5, 60, 0
7, 9960, Note_on_c, 5, 59, 25
7, 10079, Note_on_c, 5, 59, 0
7, 10079, Control_c, 5, 11, 66
7, 10080, Note_on_c, 5, 60, 43
7, 10081, Control_c, 5, 11, 67
7, 10084, Control_c, 5, 11, 68
7, 10087, Control_c, 5, 11, 69
7, 10090, Control_c, 5, 11, 70
7, 10093, Control_c, 5, 11, 71
7, 10096, Control_c, 5, 11, 72
7, 10099, Control_c, 5, 11, 73
7, 10102, Control_c, 5, 11, 74
7, 10105, Control_c, 5, 11, 75
7, 10108, Control_c, 5, 11, 76
7, 10111, Control_c, 5, 11, 77
7, 10114, Control_c, 5, 11, 78
7, 10117, Control_c, 5, 11, 80
7, 10120, Control_c, 5, 11, 82
7, 10123, Control_c, 5, 11, 84
7, 10126, Control_c, 5, 11, 86
7, 10129, Control_c, 5, 11, 88
7, 10132, Control_c, 5, 11, 90
7, 10135, Control_c, 5, 11, 92
7, 10138, Control_c, 5, 11, 94
7, 10141, Control_c, 5, 11, 96
7, 10144, Control_c, 5, 11, 98
7, 10147, Control_c, 5, 11, 100
7, 10150, Control_c, 5, 11, 103
7, 10153, Control_c, 5, 11, 106
7, 10156, Control_c, 5, 11, 109
7, 10159, Control_c, 5, 11, 112
7, 10162, Control_c, 5, 11, 115
7, 10165, Control_c, 5, 11, 118
7, 10168, Control_c, 5, 11, 121
7, 10171, Control_c, 5, 11, 124
7, 10174, Control_c, 5, 11, 127
7, 10199, Note_on_c, 5, 60, 0
7, 10199, Control_c, 5, 11, 127
7, 10200, Note_on_c, 5, 53, 33
7, 10259, Note_on_c, 5, 53, 0
7, 10260, Note_on_c, 5, 54, 38
7, 10319, Note_on_c, 5, 54, 0
7, 10350, Note_on_c, 5, 54, 42
7, 10379, Note_on_c, 5, 54, 0
7, 10380, Note_on_c, 5, 55, 40
7, 10409, Note_on_c, 5, 55, 0
7, 10410, Note_on_c, 5, 54, 38
7, 10439, Note_on_c, 5, 54, 0
7, 10440, Note_on_c, 5, 55, 36
7, 10479, Note_on_c, 5, 55, 0
7, 10500, Note_on_c, 5, 43, 33
7, 10539, Note_on_c, 5, 43, 0
7, 10575, Note_on_c, 5, 48, 25
7, 10589, Note_on_c, 5, 48, 0
7, 10590, Note_on_c, 5, 54, 26
7, 10604, Note_on_c, 5, 54, 0
7, 10605, Note_on_c, 5, 57, 27
7, 10619, Note_on_c, 5, 57, 0
7, 10620, Note_on_c, 5, 60, 29
7, 10634, Note_on_c, 5, 60, 0
7, 10635, Note_on_c, 5, 57, 30
7, 10649, Note_on_c, 5, 57, 0
7, 10650, Note_on_c, 5, 54, 32
7, 10664, Note_on_c, 5, 54, 0
7, 10665, Note_on_c, 5, 48, 33
7, 10679, Note_on_c, 5, 48, 0
7, 10680, Note_on_c, 5, 60, 35
7, 10799, Note_on_c, 5, 60, 0
7, 10815, Note_on_c, 5, 46, 33
7, 10829, Note_on_c, 5, 46, 0
7, 10830, Note_on_c, 5, 50, 33
7, 10844, Note_on_c, 5, 50, 0
7, 10845, Note_on_c, 5, 55, 33
7, 10859, Note_on_c, 5, 55, 0
7, 10860, Note_on_c, 5, 58, 33
7, 10874, Note_on_c, 5, 58, 0
7, 10875, Note_on_c, 5, 55, 33
7, 10889, Note_on_c, 5, 55, 0
7, 10890, Note_on_c, 5, 50, 33
7, 10904, Note_on_c, 5, 50, 0
7, 10905, Note_on_c, 5, 46, 33
7, 10919, Note_on_c, 5, 46, 0
7, 10920, Note_on_c, 5, 58, 30
7, 11039, Note_on_c, 5, 58, 0
7, 11040, Note_on_c, 5, 48, 33
7, 11040, Note_on_c, 5, 63, 33
7, 11159, Note_on_c, 5, 63, 0
7, 11159, Note_on_c, 5, 48, 0
7, 11160, Note_on_c, 5, 50, 33
7, 11160, Note_on_c, 5, 62, 33
7, 11219, Note_on_c, 5, 62, 0
7, 11219, Note_on_c, 5, 50, 0
7, 11220, Note_on_c, 5, 50, 24
7, 11220, Note_on_c, 5, 60, 29
7, 11279, Note_on_c, 5, 60, 0
7, 11279, Note_on_c, 5, 50, 0
7, 11280, Note_on_c, 5, 58, 23
7, 11280, Note_on_c, 5, 55, 23
7, 11399, Note_on_c, 5, 55, 0
7, 11399, Note_on_c, 5, 58, 0
7, 13470, Note_on_c, 5, 51, 33
7, 13484, Note_on_c, 5, 51, 0
7, 13500, Note_on_c, 5, 51, 33
7, 13514, Note_on_c, 5, 51, 0
7, 13530, Note_on_c, 5, 51, 33
7, 13544, Note_on_c, 5, 51, 0
7, 13560, Note_on_c, 5, 51, 32
7, 13634, Note_on_c, 5, 51, 0
7, 13710, Note_on_c, 5, 58, 31
7, 13724, Note_on_c, 5, 58, 0
7, 13740, Note_on_c, 5, 46, 31
7, 13754, Note_on_c, 5, 46, 0
7, 13770, Note_on_c, 5, 58, 30
7, 13784, Note_on_c, 5, 58, 0
7, 13800, Note_on_c, 5, 46, 30
7, 13860, Note_on_c, 5, 47, 22
7, 13869, Note_on_c, 5, 46, 0
7, 13919, Note_on_c, 5, 47, 0
7, 13950, Note_on_c, 5, 48, 29
7, 13964, Note_on_c, 5, 48, 0
7, 13980, Note_on_c, 5, 48, 28
7, 13994, Note_on_c, 5, 48, 0
7, 14010, Note_on_c, 5, 48, 28
7, 14024, Note_on_c, 5, 48, 0
7, 14040, Note_on_c, 5, 48, 28
7, 14119, Note_on_c, 5, 48, 0
7, 14190, Note_on_c, 5, 55, 26
7, 14204, Note_on_c, 5, 55, 0
7, 14220, Note_on_c, 5, 43, 26
7, 14234, Note_on_c, 5, 43, 0
7, 14250, Note_on_c, 5, 55, 26
7, 14264, Note_on_c, 5, 55, 0
7, 14280, Note_on_c, 5, 43, 25
7, 14359, Note_on_c, 5, 43, 0
7, 14415, Note_on_c, 5, 41, 25
7, 14429, Note_on_c, 5, 41, 0
7, 14430, Note_on_c, 5, 47, 26
7, 14444, Note_on_c, 5, 47, 0
7, 14445, Note_on_c, 5, 50, 28
7, 14459, Note_on_c, 5, 50, 0
7, 14460, Note_on_c, 5, 53, 30
7, 14474, Note_on_c, 5, 53, 0
7, 14475, Note_on_c, 5, 56, 31
7, 14489, Note_on_c, 5, 56, 0
7, 14490, Note_on_c, 5, 59, 33
7, 14504, Note_on_c, 5, 59, 0
7, 14505, Note_on_c, 5, 62, 35
7, 14519, Note_on_c, 5, 62, 0
7, 14520, Note_on_c, 5, 53, 33
7, 14639, Note_on_c, 5, 53, 0
7, 14655, Note_on_c, 5, 42, 28
7, 14669, Note_on_c, 5, 42, 0
7, 14670, Note_on_c, 5, 45, 29
7, 14684, Note_on_c, 5, 45, 0
7, 14685, Note_on_c, 5, 48, 31
7, 14699, Note_on_c, 5, 48, 0
7, 14700, Note_on_c, 5, 54, 33
7, 14714, Note_on_c, 5, 54, 0
7, 14715, Note_on_c, 5, 57, 34
7, 14729, Note_on_c, 5, 57, 0
7, 14730, Note_on_c, 5, 60, 36
7, 14744, Note_on_c, 5, 60, 0
7, 14745, Note_on_c, 5, 63, 38
7, 14759, Note_on_c, 5, 63, 0
7, 14760, Note_on_c, 5, 54, 33
7, 14879, Note_on_c, 5, 54, 0
7, 14880, Note_on_c, 5, 55, 33
7, 14940, Note_on_c, 5, 67, 33
7, 14999, Note_on_c, 5, 55, 0
7, 15000, Note_on_c, 5, 43, 33
7, 15059, Note_on_c, 5, 67, 0
7, 15060, Note_on_c, 5, 65, 33
7, 15109, Note_on_c, 5, 65, 0
7, 15119, Note_on_c, 5, 43, 0
7, 15120, Note_on_c, 5, 48, 33
7, 15120, Note_on_c, 5, 65, 33
7, 15159, Note_on_c, 5, 48, 0
7, 15180, Note_on_c, 5, 43, 28
7, 15219, Note_on_c, 5, 43, 0
7, 15239, Note_on_c, 5, 65, 0
7, 15240, Note_on_c, 5, 63, 22
7, 15240, Note_on_c, 5, 36, 23
7, 15279, Note_on_c, 5, 36, 0
7, 15299, Note_on_c, 5, 63, 0
7, 18240, Note_on_c, 5, 62, 21
7, 18240, Note_on_c, 5, 65, 21
7, 18719, Note_on_c, 5, 65, 0
7, 18719, Note_on_c, 5, 62, 0
7, 18720, Note_on_c, 5, 63, 20
7, 18720, Note_on_c, 5, 67, 20
7, 18839, Note_on_c, 5, 67, 0
7, 18839, Note_on_c, 5, 63, 0
7, 19200, Note_on_c, 5, 63, 35
7, 19259, Note_on_c, 5, 63, 0
7, 19260, Note_on_c, 5, 59, 34
7, 19319, Note_on_c, 5, 59, 0
7, 19320, Note_on_c, 5, 60, 32
7, 19379, Note_on_c, 5, 60, 0
7, 19380, Note_on_c, 5, 57, 28
7, 19439, Note_on_c, 5, 57, 0
7, 19440, Note_on_c, 5, 58, 25
7, 19559, Note_on_c, 5, 58, 0
7, 19560, Note_on_c, 5, 46, 20
7, 19649, Note_on_c, 5, 46, 0
7, 20640, Note_on_c, 5, 44, 33
7, 20659, Note_on_c, 5, 44, 0
7, 20670, Note_on_c, 5, 56, 33
7, 20689, Note_on_c, 5, 56, 0
7, 20700, Note_on_c, 5, 56, 33
7, 20719, Note_on_c, 5, 56, 0
7, 20730, Note_on_c, 5, 56, 33
7, 20749, Note_on_c, 5, 56, 0
7, 20760, Note_on_c, 5, 56, 33
7, 20779, Note_on_c, 5, 56, 0
7, 20790, Note_on_c, 5, 56, 33
7, 20809, Note_on_c, 5, 56, 0
7, 20820, Note_on_c, 5, 56, 33
7, 20839, Note_on_c, 5, 56, 0
7, 20850, Note_on_c, 5, 56, 33
7, 20869, Note_on_c, 5, 56, 0
7, 20880, Note_on_c, 5, 65, 33
7, 20880, Note_on_c, 5, 44, 33
7, 20899, Note_on_c, 5, 44, 0
7, 20910, Note_on_c, 5, 56, 33
7, 20929, Note_on_c, 5, 56, 0
7, 20940, Note_on_c, 5, 56, 33
7, 20959, Note_on_c, 5, 56, 0
7, 20970, Note_on_c, 5, 56, 33
7, 20989, Note_on_c, 5, 56, 0
7, 20999, Note_on_c, 5, 65, 0
7, 21000, Note_on_c, 5, 64, 33
7, 21000, Note_on_c, 5, 56, 33
7, 21019, Note_on_c, 5, 56, 0
7, 21030, Note_on_c, 5, 56, 33
7, 21049, Note_on_c, 5, 56, 0
7, 21060, Note_on_c, 5, 56, 33
7, 21079, Note_on_c, 5, 56, 0
7, 21090, Note_on_c, 5, 56, 33
7, 21109, Note_on_c, 5, 56, 0
7, 21119, Note_on_c, 5, 64, 0
7, 21120, Note_on_c, 5, 63, 33
7, 21120, Note_on_c, 5, 43, 33
7, 21139, Note_on_c, 5, 43, 0
7, 21150, Note_on_c, 5, 55, 33
7, 21169, Note_on_c, 5, 55, 0
7, 21180, Note_on_c, 5, 55, 33
7, 21199, Note_on_c, 5, 55, 0
7, 21210, Note_on_c, 5, 55, 33
7, 21229, Note_on_c, 5, 55, 0
7, 21239, Note_on_c, 5, 63, 0
7, 21240, Note_on_c, 5, 55, 33
7, 21240, Note_on_c, 5, 39, 33
7, 21259, Note_on_c, 5, 39, 0
7, 21270, Note_on_c, 5, 51, 33
7, 21289, Note_on_c, 5, 51, 0
7, 21300, Note_on_c, 5, 51, 33
7, 21319, Note_on_c, 5, 51, 0
7, 21330, Note_on_c, 5, 51, 33
7, 21349, Note_on_c, 5, 51, 0
7, 21359, Note_on_c, 5, 55, 0
7, 21360, Note_on_c, 5, 56, 33
7, 21360, Note_on_c, 5, 44, 33
7, 21389, Note_on_c, 5, 44, 0
7, 21399, Note_on_c, 5, 56, 0
7, 21420, Note_on_c, 5, 44, 33
7, 21449, Note_on_c, 5, 44, 0
7, 21540, Note_on_c, 5, 51, 33
7, 21599, Note_on_c, 5, 51, 0
7, 21600, Note_on_c, 5, 53, 33
7, 21630, Note_on_c, 5, 62, 33
7, 21659, Note_on_c, 5, 62, 0
7, 21659, Note_on_c, 5, 53, 0
7, 21660, Note_on_c, 5, 63, 33
7, 21660, Note_on_c, 5, 46, 33
7, 21689, Note_on_c, 5, 63, 0
7, 21690, Note_on_c, 5, 65, 33
7, 21699, Note_on_c, 5, 46, 0
7, 21719, Note_on_c, 5, 65, 0
7, 21720, Note_on_c, 5, 63, 33
7, 21779, Note_on_c, 5, 63, 0
7, 21780, Note_on_c, 5, 58, 33
7, 21780, Note_on_c, 5, 51, 33
7, 21809, Note_on_c, 5, 58, 0
7, 21839, Note_on_c, 5, 51, 0
7, 21840, Note_on_c, 5, 53, 33
7, 21870, Note_on_c, 5, 62, 33
7, 21899, Note_on_c, 5, 62, 0
7, 21899, Note_on_c, 5, 53, 0
7, 21900, Note_on_c, 5, 63, 33
7, 21900, Note_on_c, 5, 46, 33
7, 21929, Note_on_c, 5, 63, 0
7, 21930, Note_on_c, 5, 65, 33
7, 21939, Note_on_c, 5, 46, 0
7, 21959, Note_on_c, 5, 65, 0
7, 21960, Note_on_c, 5, 63, 33
7, 21960, Note_on_c, 5, 51, 33
7, 21989, Note_on_c, 5, 51, 0
7, 21989, Note_on_c, 5, 63, 0
7, 21990, Note_on_c, 5, 62, 33
7, 21990, Note_on_c, 5, 56, 33
7, 22019, Note_on_c, 5, 56, 0
7, 22019, Note_on_c, 5, 62, 0
7, 22020, Note_on_c, 5, 63, 33
7, 22020, Note_on_c, 5, 55, 33
7, 22049, Note_on_c, 5, 55, 0
7, 22049, Note_on_c, 5, 63, 0
7, 22050, Note_on_c, 5, 58, 33
7, 22050, Note_on_c, 5, 53, 33
7, 22079, Note_on_c, 5, 53, 0
7, 22079, Note_on_c, 5, 58, 0
7, 22080, Note_on_c, 5, 58, 33
7, 22080, Note_on_c, 5, 51, 33
7, 22109, Note_on_c, 5, 51, 0
7, 22109, Note_on_c, 5, 58, 0
7, 22140, Note_on_c, 5, 56, 33
7, 22140, Note_on_c, 5, 44, 33
7, 22169, Note_on_c, 5, 44, 0
7, 22169, Note_on_c, 5, 56, 0
7, 22200, Note_on_c, 5, 58, 33
7, 22200, Note_on_c, 5, 46, 33
7, 22229, Note_on_c, 5, 46, 0
7, 22229, Note_on_c, 5, 58, 0
7, 22260, Note_on_c, 5, 46, 33
7, 22289, Note_on_c, 5, 46, 0
7, 22320, Note_on_c, 5, 51, 33
7, 22359, Note_on_c, 5, 51, 0
7, 22380, Note_on_c, 5, 39, 23
7, 22419, Note_on_c, 5, 39, 0
7, 24480, Note_on_c, 5, 66, 34
7, 24480, Note_on_c, 5, 41, 34
7, 24509, Note_on_c, 5, 41, 0
7, 24509, Note_on_c, 5, 66, 0
7, 24510, Note_on_c, 5, 65, 35
7, 24510, Note_on_c, 5, 53, 35
7, 24529, Note_on_c, 5, 53, 0
7, 24529, Note_on_c, 5, 65, 0
7, 24540, Note_on_c, 5, 65, 36
7, 24540, Note_on_c, 5, 53, 36
7, 24559, Note_on_c, 5, 53, 0
7, 24569, Note_on_c, 5, 65, 0
7, 24570, Note_on_c, 5, 63, 37
7, 24570, Note_on_c, 5, 53, 37
7, 24589, Note_on_c, 5, 53, 0
7, 24589, Note_on_c, 5, 63, 0
7, 24600, Note_on_c, 5, 63, 37
7, 24600, Note_on_c, 5, 45, 37
7, 24629, Note_on_c, 5, 45, 0
7, 24629, Note_on_c, 5, 63, 0
7, 24630, Note_on_c, 5, 57, 38
7, 24630, Note_on_c, 5, 65, 38
7, 24649, Note_on_c, 5, 65, 0
7, 24649, Note_on_c, 5, 57, 0
7, 24660, Note_on_c, 5, 57, 39
7, 24660, Note_on_c, 5, 65, 39
7, 24679, Note_on_c, 5, 57, 0
7, 24689, Note_on_c, 5, 65, 0
7, 24690, Note_on_c, 5, 57, 39
7, 24690, Note_on_c, 5, 66, 39
7, 24709, Note_on_c, 5, 66, 0
7, 24709, Note_on_c, 5, 57, 0
7, 24720, Note_on_c, 5, 58, 40
7, 24720, Note_on_c, 5, 65, 40
7, 24750, Note_on_c, 5, 46, 41
7, 24759, Note_on_c, 5, 58, 0
7, 24769, Note_on_c, 5, 46, 0
7, 24780, Note_on_c, 5, 58, 42
7, 24799, Note_on_c, 5, 58, 0
7, 24809, Note_on_c, 5, 65, 0
7, 24810, Note_on_c, 5, 56, 33
7, 24810, Note_on_c, 5, 64, 33
7, 24829, Note_on_c, 5, 56, 0
7, 24839, Note_on_c, 5, 64, 0
7, 24840, Note_on_c, 5, 55, 33
7, 24840, Note_on_c, 5, 63, 23
7, 24900, Note_on_c, 5, 49, 30
7, 24909, Note_on_c, 5, 55, 0
7, 24959, Note_on_c, 5, 49, 0
7, 24960, Note_on_c, 5, 48, 24
7, 25019, Note_on_c, 5, 63, 0
7, 25020, Note_on_c, 5, 56, 33
7, 25049, Note_on_c, 5, 48, 0
7, 25080, Note_on_c, 5, 49, 33
7, 25109, Note_on_c, 5, 49, 0
7, 25109, Note_on_c, 5, 56, 0
7, 25110, Note_on_c, 5, 46, 29
7, 25110, Note_on_c, 5, 61, 29
7, 25139, Note_on_c, 5, 61, 0
7, 25139, Note_on_c, 5, 46, 0
7, 25140, Note_on_c, 5, 48, 32
7, 25140, Note_on_c, 5, 63, 32
7, 25169, Note_on_c, 5, 63, 0
7, 25169, Note_on_c, 5, 48, 0
7, 25170, Note_on_c, 5, 49, 35
7, 25170, Note_on_c, 5, 65, 35
7, 25199, Note_on_c, 5, 49, 0
7, 25200, Note_on_c, 5, 63, 38
7, 25200, Note_on_c, 5, 51, 38
7, 25209, Note_on_c, 5, 65, 0
7, 25259, Note_on_c, 5, 51, 0
7, 25259, Note_on_c, 5, 63, 0
7, 25260, Note_on_c, 5, 51, 33
7, 25289, Note_on_c, 5, 51, 0
7, 25320, Note_on_c, 5, 60, 33
7, 25349, Note_on_c, 5, 60, 0
7, 25350, Note_on_c, 5, 63, 32
7, 25379, Note_on_c, 5, 63, 0
7, 25380, Note_on_c, 5, 61, 31
7, 25380, Note_on_c, 5, 56, 31
7, 25409, Note_on_c, 5, 61, 0
7, 25410, Note_on_c, 5, 60, 30
7, 25439, Note_on_c, 5, 60, 0
7, 25439, Note_on_c, 5, 56, 0
7, 25440, Note_on_c, 5, 58, 28
7, 25469, Note_on_c, 5, 58, 0
7, 25470, Note_on_c, 5, 61, 27
7, 25499, Note_on_c, 5, 61, 0
7, 25500, Note_on_c, 5, 51, 26
7, 25500, Note_on_c, 5, 60, 26
7, 25529, Note_on_c, 5, 60, 0
7, 25530, Note_on_c, 5, 58, 24
7, 25549, Note_on_c, 5, 51, 0
7, 25559, Note_on_c, 5, 58, 0
7, 25560, Note_on_c, 5, 60, 33
7, 25589, Note_on_c, 5, 60, 0
7, 25590, Note_on_c, 5, 63, 32
7, 25619, Note_on_c, 5, 63, 0
7, 25620, Note_on_c, 5, 61, 31
7, 25620, Note_on_c, 5, 56, 31
7, 25649, Note_on_c, 5, 61, 0
7, 25650, Note_on_c, 5, 60, 30
7, 25679, Note_on_c, 5, 60, 0
7, 25679, Note_on_c, 5, 56, 0
7, 25680, Note_on_c, 5, 58, 28
7, 25709, Note_on_c, 5, 58, 0
7, 25710, Note_on_c, 5, 61, 27
7, 25739, Note_on_c, 5, 61, 0
7, 25740, Note_on_c, 5, 60, 26
7, 25740, Note_on_c, 5, 51, 26
7, 25769, Note_on_c, 5, 60, 0
7, 25770, Note_on_c, 5, 58, 24
7, 25799, Note_on_c, 5, 58, 0
7, 25799, Note_on_c, 5, 51, 0
7, 25800, Note_on_c, 5, 57, 33
7, 25800, Note_on_c, 5, 48, 33
7, 25859, Note_on_c, 5, 57, 0
7, 25860, Note_on_c, 5, 58, 35
7, 25889, Note_on_c, 5, 58, 0
7, 25890, Note_on_c, 5, 60, 36
7, 25919, Note_on_c, 5, 60, 0
7, 25920, Note_on_c, 5, 53, 38
7, 25920, Note_on_c, 5, 49, 38
7, 25929, Note_on_c, 5, 48, 0
7, 26019, Note_on_c, 5, 53, 0
7, 26029, Note_on_c, 5, 49, 0
7, 26040, Note_on_c, 5, 56, 33
7, 26040, Note_on_c, 5, 51, 33
7, 26069, Note_on_c, 5, 51, 0
7, 26069, Note_on_c, 5, 56, 0
7, 26070, Note_on_c, 5, 60, 32
7, 26089, Note_on_c, 5, 60, 0
7, 26100, Note_on_c, 5, 58, 28
7, 26100, Note_on_c, 5, 51, 30
7, 26129, Note_on_c, 5, 51, 0
7, 26129, Note_on_c, 5, 58, 0
7, 26130, Note_on_c, 5, 61, 24
7, 26149, Note_on_c, 5, 61, 0
7, 26160, Note_on_c, 5, 60, 27
7, 26160, Note_on_c, 5, 44, 24
7, 26209, Note_on_c, 5, 44, 0
7, 26219, Note_on_c, 5, 60, 0
7, 26220, Note_on_c, 5, 56, 23
7, 26269, Note_on_c, 5, 56, 0
7, 29040, Note_on_c, 5, 58, 43
7, 29040, Note_on_c, 5, 50, 43
7, 29069, Note_on_c, 5, 50, 0
7, 29069, Note_on_c, 5, 58, 0
7, 29070, Note_on_c, 5, 49, 33
7, 29070, Note_on_c, 5, 57, 43
7, 29089, Note_on_c, 5, 57, 0
7, 29089, Note_on_c, 5, 49, 0
7, 29100, Note_on_c, 5, 49, 33
7, 29100, Note_on_c, 5, 57, 43
7, 29129, Note_on_c, 5, 57, 0
7, 29129, Note_on_c, 5, 49, 0
7, 29130, Note_on_c, 5, 58, 33
7, 29130, Note_on_c, 5, 50, 33
7, 29149, Note_on_c, 5, 50, 0
7, 29149, Note_on_c, 5, 58, 0
7, 29280, Note_on_c, 5, 67, 43
7, 29280, Note_on_c, 5, 64, 43
7, 29309, Note_on_c, 5, 64, 0
7, 29309, Note_on_c, 5, 67, 0
7, 29310, Note_on_c, 5, 63, 33
7, 29310, Note_on_c, 5, 66, 43
7, 29329, Note_on_c, 5, 66, 0
7, 29329, Note_on_c, 5, 63, 0
7, 29340, Note_on_c, 5, 63, 33
7, 29340, Note_on_c, 5, 66, 43
7, 29369, Note_on_c, 5, 66, 0
7, 29369, Note_on_c, 5, 63, 0
7, 29370, Note_on_c, 5, 64, 33
7, 29370, Note_on_c, 5, 67, 33
7, 29389, Note_on_c, 5, 67, 0
7, 29389, Note_on_c, 5, 64, 0
7, 29520, Note_on_c, 5, 65, 43
7, 29520, Note_on_c, 5, 62, 43
7, 29549, Note_on_c, 5, 62, 0
7, 29549, Note_on_c, 5, 65, 0
7, 29550, Note_on_c, 5, 61, 33
7, 29550, Note_on_c, 5, 64, 43
7, 29569, Note_on_c, 5, 64, 0
7, 29569, Note_on_c, 5, 61, 0
7, 29580, Note_on_c, 5, 64, 43
7, 29580, Note_on_c, 5, 61, 33
7, 29609, Note_on_c, 5, 61, 0
7, 29609, Note_on_c, 5, 64, 0
7, 29610, Note_on_c, 5, 62, 33
7, 29610, Note_on_c, 5, 65, 43
7, 29629, Note_on_c, 5, 65, 0
7, 29629, Note_on_c, 5, 62, 0
7, 29910, Note_on_c, 5, 63, 38
7, 29910, Note_on_c, 5, 60, 28
7, 29929, Note_on_c, 5, 60, 0
7, 29929, Note_on_c, 5, 63, 0
7, 29940, Note_on_c, 5, 63, 42
7, 29940, Note_on_c, 5, 60, 32
7, 29969, Note_on_c, 5, 60, 0
7, 29969, Note_on_c, 5, 63, 0
7, 29970, Note_on_c, 5, 58, 32
7, 29970, Note_on_c, 5, 62, 42
7, 29989, Note_on_c, 5, 62, 0
7, 29989, Note_on_c, 5, 58, 0
7, 30000, Note_on_c, 5, 62, 41
7, 30000, Note_on_c, 5, 58, 31
7, 30029, Note_on_c, 5, 58, 0
7, 30029, Note_on_c, 5, 62, 0
7, 30030, Note_on_c, 5, 60, 40
7, 30030, Note_on_c, 5, 56, 31
7, 30049, Note_on_c, 5, 56, 0
7, 30049, Note_on_c, 5, 60, 0
7, 30060, Note_on_c, 5, 60, 40
7, 30060, Note_on_c, 5, 56, 31
7, 30089, Note_on_c, 5, 56, 0
7, 30089, Note_on_c, 5, 60, 0
7, 30090, Note_on_c, 5, 58, 39
7, 30090, Note_on_c, 5, 55, 30
7, 30109, Note_on_c, 5, 55, 0
7, 30109, Note_on_c, 5, 58, 0
7, 30120, Note_on_c, 5, 58, 39
7, 30120, Note_on_c, 5, 55, 30
7, 30149, Note_on_c, 5, 55, 0
7, 30149, Note_on_c, 5, 58, 0
7, 30150, Note_on_c, 5, 56, 38
7, 30150, Note_on_c, 5, 53, 29
7, 30169, Note_on_c, 5, 53, 0
7, 30169, Note_on_c, 5, 56, 0
7, 30180, Note_on_c, 5, 56, 37
7, 30180, Note_on_c, 5, 53, 37
7, 30209, Note_on_c, 5, 53, 0
7, 30209, Note_on_c, 5, 56, 0
7, 30210, Note_on_c, 5, 51, 28
7, 30210, Note_on_c, 5, 55, 33
7, 30229, Note_on_c, 5, 55, 0
7, 30229, Note_on_c, 5, 51, 0
7, 30240, Note_on_c, 5, 51, 24
7, 30240, Note_on_c, 5, 55, 28
7, 30299, Note_on_c, 5, 55, 0
7, 30299, Note_on_c, 5, 51, 0
7, 33900, Note_on_c, 5, 65, 33
7, 33959, Note_on_c, 5, 65, 0
7, 33960, Note_on_c, 5, 62, 33
7, 34020, Note_on_c, 5, 58, 33
7, 34049, Note_on_c, 5, 62, 0
7, 34079, Note_on_c, 5, 58, 0
7, 34080, Note_on_c, 5, 57, 33
7, 34139, Note_on_c, 5, 57, 0
7, 34140, Note_on_c, 5, 60, 29
7, 34199, Note_on_c, 5, 60, 0
7, 34200, Note_on_c, 5, 63, 26
7, 34259, Note_on_c, 5, 63, 0
7, 34380, Note_on_c, 5, 65, 33
7, 34439, Note_on_c, 5, 65, 0
7, 34440, Note_on_c, 5, 63, 33
7, 34469, Note_on_c, 5, 63, 0
7, 34470, Note_on_c, 5, 62, 33
7, 34499, Note_on_c, 5, 62, 0
7, 34500, Note_on_c, 5, 60, 33
7, 34529, Note_on_c, 5, 60, 0
7, 34530, Note_on_c, 5, 58, 33
7, 34559, Note_on_c, 5, 58, 0
7, 34560, Note_on_c, 5, 57, 33
7, 34619, Note_on_c, 5, 57, 0
7, 34620, Note_on_c, 5, 60, 33
7, 34679, Note_on_c, 5, 60, 0
7, 34680, Note_on_c, 5, 63, 26
7, 34739, Note_on_c, 5, 63, 0
7, 34860, Note_on_c, 5, 65, 35
7, 34919, Note_on_c, 5, 65, 0
7, 34920, Note_on_c, 5, 62, 33
7, 34979, Note_on_c, 5, 62, 0
7, 34980, Note_on_c, 5, 58, 29
7, 35039, Note_on_c, 5, 58, 0
7, 35100, Note_on_c, 5, 66, 43
7, 35159, Note_on_c, 5, 66, 0
7, 35160, Note_on_c, 5, 63, 38
7, 35219, Note_on_c, 5, 63, 0
7, 35220, Note_on_c, 5, 60, 33
7, 35249, Note_on_c, 5, 60, 0
7, 35280, Note_on_c, 5, 62, 38
7, 35280, Note_on_c, 5, 65, 38
7, 35399, Note_on_c, 5, 65, 0
7, 35399, Note_on_c, 5, 62, 0
7, 35520, Note_on_c, 5, 51, 32
7, 35520, Note_on_c, 5, 58, 32
7, 35609, Note_on_c, 5, 58, 0
7, 35609, Note_on_c, 5, 51, 0
7, 35640, Note_on_c, 5, 51, 32
7, 35640, Note_on_c, 5, 58, 32
7, 35729, Note_on_c, 5, 58, 0
7, 35729, Note_on_c, 5, 51, 0
7, 35760, Note_on_c, 5, 51, 32
7, 35760, Note_on_c, 5, 58, 32
7, 35849, Note_on_c, 5, 58, 0
7, 35849, Note_on_c, 5, 51, 0
7, 35880, Note_on_c, 5, 51, 32
7, 35880, Note_on_c, 5, 58, 32
7, 35969, Note_on_c, 5, 58, 0
7, 35969, Note_on_c, 5, 51, 0
7, 36000, Note_on_c, 5, 51, 32
7, 36059, Note_on_c, 5, 51, 0
7, 36060, Note_on_c, 5, 53, 32
7, 36119, Note_on_c, 5, 53, 0
7, 36120, Note_on_c, 5, 55, 32
7, 36179, Note_on_c, 5, 55, 0
7, 36180, Note_on_c, 5, 57, 32
7, 36239, Note_on_c, 5, 57, 0
7, 36240, Note_on_c, 5, 58, 32
7, 36359, Note_on_c, 5, 58, 0
7, 36360, Note_on_c, 5, 46, 32
7, 36449, Note_on_c, 5, 46, 0
7, 36480, Note_on_c, 5, 51, 32
7, 36480, Note_on_c, 5, 58, 32
7, 36569, Note_on_c, 5, 58, 0
7, 36569, Note_on_c, 5, 51, 0
7, 36600, Note_on_c, 5, 58, 32
7, 36600, Note_on_c, 5, 51, 32
7, 36689, Note_on_c, 5, 51, 0
7, 36689, Note_on_c, 5, 58, 0
7, 36720, Note_on_c, 5, 51, 32
7, 36720, Note_on_c, 5, 58, 32
7, 36809, Note_on_c, 5, 58, 0
7, 36809, Note_on_c, 5, 51, 0
7, 36840, Note_on_c, 5, 51, 32
7, 36840, Note_on_c, 5, 58, 32
7, 36929, Note_on_c, 5, 58, 0
7, 36929, Note_on_c, 5, 51, 0
7, 36960, Note_on_c, 5, 56, 29
7, 36960, Note_on_c, 5, 53, 29
7, 36989, Note_on_c, 5, 56, 0
7, 36999, Note_on_c, 5, 53, 0
7, 37020, Note_on_c, 5, 53, 28
7, 37020, Note_on_c, 5, 56, 28
7, 37059, Note_on_c, 5, 56, 0
7, 37059, Note_on_c, 5, 53, 0
7, 37080, Note_on_c, 5, 56, 26
7, 37080, Note_on_c, 5, 53, 26
7, 37119, Note_on_c, 5, 53, 0
7, 37119, Note_on_c, 5, 56, 0
7, 37140, Note_on_c, 5, 56, 25
7, 37140, Note_on_c, 5, 53, 25
7, 37179, Note_on_c, 5, 53, 0
7, 37179, Note_on_c, 5, 56, 0
7, 37200, Note_on_c, 5, 51, 23
7, 37200, Note_on_c, 5, 55, 23
7, 37319, Note_on_c, 5, 55, 0
7, 37319, Note_on_c, 5, 51, 0
7, 37440, Note_on_c, 5, 56, 33
7, 37440, Note_on_c, 5, 60, 43
7, 37589, Note_on_c, 5, 60, 0
7, 37589, Note_on_c, 5, 56, 0
7, 37590, Note_on_c, 5, 58, 18
7, 37590, Note_on_c, 5, 62, 25
7, 37604, Note_on_c, 5, 62, 0
7, 37604, Note_on_c, 5, 58, 0
7, 37620, Note_on_c, 5, 58, 17
7, 37620, Note_on_c, 5, 62, 24
7, 37649, Note_on_c, 5, 62, 0
7, 37649, Note_on_c, 5, 58, 0
7, 37650, Note_on_c, 5, 63, 23
7, 37650, Note_on_c, 5, 60, 17
7, 37674, Note_on_c, 5, 60, 0
7, 37674, Note_on_c, 5, 63, 0
7, 37680, Note_on_c, 5, 58, 17
7, 37680, Note_on_c, 5, 55, 13
7, 37799, Note_on_c, 5, 55, 0
7, 37799, Note_on_c, 5, 58, 0
7, 37920, Note_on_c, 5, 56, 22
7, 37920, Note_on_c, 5, 60, 29
7, 38069, Note_on_c, 5, 60, 0
7, 38069, Note_on_c, 5, 56, 0
7, 38070, Note_on_c, 5, 58, 18
7, 38070, Note_on_c, 5, 62, 25
7, 38084, Note_on_c, 5, 62, 0
7, 38084, Note_on_c, 5, 58, 0
7, 38100, Note_on_c, 5, 58, 17
7, 38100, Note_on_c, 5, 62, 24
7, 38129, Note_on_c, 5, 62, 0
7, 38129, Note_on_c, 5, 58, 0
7, 38130, Note_on_c, 5, 63, 23
7, 38130, Note_on_c, 5, 60, 17
7, 38154, Note_on_c, 5, 60, 0
7, 38154, Note_on_c, 5, 63, 0
7, 38160, Note_on_c, 5, 58, 17
7, 38160, Note_on_c, 5, 55, 13
7, 38279, Note_on_c, 5, 55, 0
7, 38279, Note_on_c, 5, 58, 0
7, 39150, Note_on_c, 5, 51, 20
7, 39179, Note_on_c, 5, 51, 0
7, 39180, Note_on_c, 5, 53, 22
7, 39180, Note_on_c, 5, 50, 14
7, 39209, Note_on_c, 5, 50, 0
7, 39209, Note_on_c, 5, 53, 0
7, 39210, Note_on_c, 5, 51, 16
7, 39210, Note_on_c, 5, 55, 23
7, 39239, Note_on_c, 5, 55, 0
7, 39239, Note_on_c, 5, 51, 0
7, 39240, Note_on_c, 5, 53, 17
7, 39240, Note_on_c, 5, 56, 24
7, 39269, Note_on_c, 5, 56, 0
7, 39269, Note_on_c, 5, 53, 0
7, 39270, Note_on_c, 5, 54, 18
7, 39270, Note_on_c, 5, 57, 26
7, 39299, Note_on_c, 5, 57, 0
7, 39299, Note_on_c, 5, 54, 0
7, 39300, Note_on_c, 5, 55, 20
7, 39300, Note_on_c, 5, 58, 27
7, 39329, Note_on_c, 5, 58, 0
7, 39330, Note_on_c, 5, 59, 28
7, 39359, Note_on_c, 5, 59, 0
7, 39359, Note_on_c, 5, 55, 0
7, 39360, Note_on_c, 5, 56, 23
7, 39360, Note_on_c, 5, 60, 30
7, 39509, Note_on_c, 5, 60, 0
7, 39509, Note_on_c, 5, 56, 0
7, 39510, Note_on_c, 5, 58, 18
7, 39510, Note_on_c, 5, 62, 25
7, 39524, Note_on_c, 5, 62, 0
7, 39524, Note_on_c, 5, 58, 0
7, 39540, Note_on_c, 5, 62, 24
7, 39540, Note_on_c, 5, 58, 17
7, 39569, Note_on_c, 5, 58, 0
7, 39569, Note_on_c, 5, 62, 0
7, 39570, Note_on_c, 5, 63, 23
7, 39570, Note_on_c, 5, 60, 17
7, 39594, Note_on_c, 5, 60, 0
7, 39594, Note_on_c, 5, 63, 0
7, 39600, Note_on_c, 5, 58, 22
7, 39600, Note_on_c, 5, 55, 17
7, 39714, Note_on_c, 5, 55, 0
7, 39719, Note_on_c, 5, 58, 0
7, 39840, Note_on_c, 5, 56, 18
7, 39840, Note_on_c, 5, 60, 22
7, 39989, Note_on_c, 5, 60, 0
7, 39989, Note_on_c, 5, 56, 0
7, 39990, Note_on_c, 5, 58, 18
7, 39990, Note_on_c, 5, 62, 25
7, 40004, Note_on_c, 5, 62, 0
7, 40004, Note_on_c, 5, 58, 0
7, 40020, Note_on_c, 5, 58, 17
7, 40020, Note_on_c, 5, 62, 24
7, 40049, Note_on_c, 5, 62, 0
7, 40049, Note_on_c, 5, 58, 0
7, 40050, Note_on_c, 5, 63, 23
7, 40050, Note_on_c, 5, 60, 17
7, 40074, Note_on_c, 5, 60, 0
7, 40074, Note_on_c, 5, 63, 0
7, 40080, Note_on_c, 5, 55, 14
7, 40080, Note_on_c, 5, 58, 17
7, 40199, Note_on_c, 5, 58, 0
7, 40199, Note_on_c, 5, 55, 0
7, 41040, Note_on_c, 5, 51, 22
7, 41059, Note_on_c, 5, 51, 0
7, 41070, Note_on_c, 5, 58, 22
7, 41089, Note_on_c, 5, 58, 0
7, 41100, Note_on_c, 5, 55, 22
7, 41119, Note_on_c, 5, 55, 0
7, 41130, Note_on_c, 5, 51, 22
7, 41149, Note_on_c, 5, 51, 0
7, 41160, Note_on_c, 5, 48, 22
7, 41179, Note_on_c, 5, 48, 0
7, 41190, Note_on_c, 5, 55, 22
7, 41209, Note_on_c, 5, 55, 0
7, 41220, Note_on_c, 5, 51, 22
7, 41239, Note_on_c, 5, 51, 0
7, 41250, Note_on_c, 5, 48, 22
7, 41269, Note_on_c, 5, 48, 0
7, 41280, Note_on_c, 5, 44, 22
7, 41299, Note_on_c, 5, 44, 0
7, 41310, Note_on_c, 5, 51, 22
7, 41329, Note_on_c, 5, 51, 0
7, 41340, Note_on_c, 5, 48, 22
7, 41359, Note_on_c, 5, 48, 0
7, 41370, Note_on_c, 5, 44, 22
7, 41389, Note_on_c, 5, 44, 0
7, 41400, Note_on_c, 5, 46, 22
7, 41419, Note_on_c, 5, 46, 0
7, 41430, Note_on_c, 5, 53, 22
7, 41449, Note_on_c, 5, 53, 0
7, 41460, Note_on_c, 5, 50, 22
7, 41479, Note_on_c, 5, 50, 0
7, 41490, Note_on_c, 5, 46, 22
7, 41509, Note_on_c, 5, 46, 0
7, 41520, Note_on_c, 5, 51, 22
7, 41539, Note_on_c, 5, 51, 0
7, 41550, Note_on_c, 5, 58, 22
7, 41569, Note_on_c, 5, 58, 0
7, 41580, Note_on_c, 5, 55, 22
7, 41599, Note_on_c, 5, 55, 0
7, 41610, Note_on_c, 5, 51, 22
7, 41629, Note_on_c, 5, 51, 0
7, 41640, Note_on_c, 5, 48, 22
7, 41659, Note_on_c, 5, 48, 0
7, 41670, Note_on_c, 5, 55, 22
7, 41689, Note_on_c, 5, 55, 0
7, 41700, Note_on_c, 5, 51, 22
7, 41719, Note_on_c, 5, 51, 0
7, 41730, Note_on_c, 5, 48, 22
7, 41749, Note_on_c, 5, 48, 0
7, 41760, Note_on_c, 5, 44, 22
7, 41779, Note_on_c, 5, 44, 0
7, 41790, Note_on_c, 5, 51, 22
7, 41809, Note_on_c, 5, 51, 0
7, 41820, Note_on_c, 5, 48, 22
7, 41839, Note_on_c, 5, 48, 0
7, 41850, Note_on_c, 5, 44, 22
7, 41869, Note_on_c, 5, 44, 0
7, 41880, Note_on_c, 5, 46, 22
7, 41899, Note_on_c, 5, 46, 0
7, 41910, Note_on_c, 5, 53, 22
7, 41929, Note_on_c, 5, 53, 0
7, 41940, Note_on_c, 5, 50, 22
7, 41959, Note_on_c, 5, 50, 0
7, 41970, Note_on_c, 5, 46, 22
7, 41989, Note_on_c, 5, 46, 0
7, 42000, Note_on_c, 5, 51, 22
7, 42019, Note_on_c, 5, 51, 0
7, 42030, Note_on_c, 5, 58, 22
7, 42049, Note_on_c, 5, 58, 0
7, 42060, Note_on_c, 5, 55, 22
7, 42079, Note_on_c, 5, 55, 0
7, 42090, Note_on_c, 5, 51, 22
7, 42109, Note_on_c, 5, 51, 0
7, 42120, Note_on_c, 5, 48, 22
7, 42139, Note_on_c, 5, 48, 0
7, 42150, Note_on_c, 5, 55, 22
7, 42169, Note_on_c, 5, 55, 0
7, 42180, Note_on_c, 5, 51, 22
7, 42199, Note_on_c, 5, 51, 0
7, 42210, Note_on_c, 5, 48, 22
7, 42229, Note_on_c, 5, 48, 0
7, 42240, Note_on_c, 5, 44, 22
7, 42259, Note_on_c, 5, 44, 0
7, 42270, Note_on_c, 5, 51, 22
7, 42289, Note_on_c, 5, 51, 0
7, 42300, Note_on_c, 5, 48, 22
7, 42319, Note_on_c, 5, 48, 0
7, 42330, Note_on_c, 5, 44, 22
7, 42349, Note_on_c, 5, 44, 0
7, 42360, Note_on_c, 5, 46, 22
7, 42379, Note_on_c, 5, 46, 0
7, 42390, Note_on_c, 5, 53, 22
7, 42409, Note_on_c, 5, 53, 0
7, 42420, Note_on_c, 5, 50, 22
7, 42439, Note_on_c, 5, 50, 0
7, 42450, Note_on_c, 5, 46, 22
7, 42469, Note_on_c, 5, 46, 0
7, 42480, Note_on_c, 5, 51, 22
7, 42499, Note_on_c, 5, 51, 0
7, 42510, Note_on_c, 5, 58, 22
7, 42529, Note_on_c, 5, 58, 0
7, 42540, Note_on_c, 5, 55, 22
7, 42559, Note_on_c, 5, 55, 0
7, 42570, Note_on_c, 5, 51, 22
7, 42589, Note_on_c, 5, 51, 0
7, 42600, Note_on_c, 5, 46, 22
7, 42619, Note_on_c, 5, 46, 0
7, 42630, Note_on_c, 5, 51, 22
7, 42649, Note_on_c, 5, 51, 0
7, 42660, Note_on_c, 5, 46, 22
7, 42679, Note_on_c, 5, 46, 0
7, 42690, Note_on_c, 5, 43, 22
7, 42709, Note_on_c, 5, 43, 0
7, 42720, Note_on_c, 5, 39, 18
7, 42799, Note_on_c, 5, 39, 0
7, 42799, End_track
8, 0, Start_track
8, 0, MIDI_port, 0
8, 0, Title_t, "Horn I"
8, 20, Control_c, 6, 121, 0
8, 21, Control_c, 6, 11, 127
8, 21, Control_c, 6, 7, 127
8, 22, Control_c, 6, 93, 10
8, 22, Control_c, 6, 91, 79
8, 25, Control_c, 6, 10, 54
8, 26, Pitch_bend_c, 6, 8192
8, 27, Control_c, 6, 0, 1
8, 28, Control_c, 6, 32, 0
8, 29, Program_c, 6, 60
8, 2400, Note_on_c, 6, 51, 45
8, 2400, Note_on_c, 6, 63, 55
8, 2879, Note_on_c, 6, 63, 0
8, 2879, Note_on_c, 6, 51, 0
8, 3360, Note_on_c, 6, 51, 45
8, 3360, Note_on_c, 6, 63, 55
8, 3839, Note_on_c, 6, 63, 0
8, 3839, Note_on_c, 6, 51, 0
8, 3840, Note_on_c, 6, 46, 24
8, 3840, Note_on_c, 6, 58, 24
8, 3893, Note_on_c, 6, 58, 0
8, 3893, Note_on_c, 6, 46, 0
8, 3900, Note_on_c, 6, 46, 24
8, 3900, Note_on_c, 6, 58, 24
8, 3953, Note_on_c, 6, 58, 0
8, 3953, Note_on_c, 6, 46, 0
8, 3960, Note_on_c, 6, 58, 23
8, 3960, Note_on_c, 6, 46, 23
8, 4013, Note_on_c, 6, 46, 0
8, 4013, Note_on_c, 6, 58, 0
8, 4020, Note_on_c, 6, 46, 22
8, 4020, Note_on_c, 6, 58, 22
8, 4073, Note_on_c, 6, 58, 0
8, 4073, Note_on_c, 6, 46, 0
8, 4080, Note_on_c, 6, 51, 21
8, 4080, Note_on_c, 6, 58, 21
8, 4169, Note_on_c, 6, 58, 0
8, 4169, Note_on_c, 6, 51, 0
8, 9120, Note_on_c, 6, 46, 20
8, 9120, Note_on_c, 6, 58, 25
8, 9163, Note_on_c, 6, 58, 0
8, 9163, Note_on_c, 6, 46, 0
8, 9180, Note_on_c, 6, 46, 20
8, 9180, Note_on_c, 6, 58, 25
8, 9223, Note_on_c, 6, 58, 0
8, 9223, Note_on_c, 6, 46, 0
8, 9240, Note_on_c, 6, 46, 20
8, 9240, Note_on_c, 6, 58, 25
8, 9283, Note_on_c, 6, 58, 0
8, 9283, Note_on_c, 6, 46, 0
8, 9300, Note_on_c, 6, 46, 20
8, 9300, Note_on_c, 6, 58, 25
8, 9343, Note_on_c, 6, 58, 0
8, 9343, Note_on_c, 6, 46, 0
8, 9360, Note_on_c, 6, 58, 22
8, 9360, Note_on_c, 6, 51, 22
8, 9479, Note_on_c, 6, 51, 0
8, 9479, Note_on_c, 6, 58, 0
8, 18240, Note_on_c, 6, 58, 19
8, 18240, Note_on_c, 6, 46, 22
8, 18719, Note_on_c, 6, 46, 0
8, 18720, Note_on_c, 6, 51, 20
8, 18819, Note_on_c, 6, 58, 0
8, 18839, Note_on_c, 6, 51, 0
8, 20160, Note_on_c, 6, 46, 21
8, 20160, Note_on_c, 6, 58, 21
8, 20199, Note_on_c, 6, 58, 0
8, 20199, Note_on_c, 6, 46, 0
8, 20220, Note_on_c, 6, 46, 21
8, 20220, Note_on_c, 6, 58, 21
8, 20259, Note_on_c, 6, 58, 0
8, 20259, Note_on_c, 6, 46, 0
8, 20280, Note_on_c, 6, 46, 21
8, 20280, Note_on_c, 6, 58, 21
8, 20319, Note_on_c, 6, 58, 0
8, 20319, Note_on_c, 6, 46, 0
8, 20340, Note_on_c, 6, 46, 21
8, 20340, Note_on_c, 6, 58, 21
8, 20379, Note_on_c, 6, 58, 0
8, 20379, Note_on_c, 6, 46, 0
8, 20400, Note_on_c, 6, 58, 19
8, 20400, Note_on_c, 6, 51, 19
8, 20499, Note_on_c, 6, 51, 0
8, 20499, Note_on_c, 6, 58, 0
8, 21480, Note_on_c, 6, 67, 44
8, 21480, Note_on_c, 6, 46, 33
8, 21499, Note_on_c, 6, 46, 0
8, 21510, Note_on_c, 6, 58, 33
8, 21529, Note_on_c, 6, 58, 0
8, 21540, Note_on_c, 6, 58, 33
8, 21559, Note_on_c, 6, 58, 0
8, 21570, Note_on_c, 6, 58, 33
8, 21589, Note_on_c, 6, 58, 0
8, 21599, Note_on_c, 6, 67, 0
8, 21600, Note_on_c, 6, 68, 44
8, 21600, Note_on_c, 6, 46, 33
8, 21619, Note_on_c, 6, 46, 0
8, 21630, Note_on_c, 6, 58, 33
8, 21649, Note_on_c, 6, 58, 0
8, 21660, Note_on_c, 6, 58, 33
8, 21679, Note_on_c, 6, 58, 0
8, 21690, Note_on_c, 6, 58, 33
8, 21709, Note_on_c, 6, 58, 0
8, 21719, Note_on_c, 6, 68, 0
8, 21720, Note_on_c, 6, 67, 44
8, 21720, Note_on_c, 6, 46, 33
8, 21739, Note_on_c, 6, 46, 0
8, 21750, Note_on_c, 6, 58, 33
8, 21769, Note_on_c, 6, 58, 0
8, 21780, Note_on_c, 6, 58, 33
8, 21799, Note_on_c, 6, 58, 0
8, 21810, Note_on_c, 6, 58, 33
8, 21829, Note_on_c, 6, 58, 0
8, 21839, Note_on_c, 6, 67, 0
8, 21840, Note_on_c, 6, 68, 44
8, 21840, Note_on_c, 6, 46, 33
8, 21859, Note_on_c, 6, 46, 0
8, 21870, Note_on_c, 6, 58, 33
8, 21889, Note_on_c, 6, 58, 0
8, 21900, Note_on_c, 6, 58, 33
8, 21919, Note_on_c, 6, 58, 0
8, 21930, Note_on_c, 6, 58, 33
8, 21949, Note_on_c, 6, 58, 0
8, 21959, Note_on_c, 6, 68, 0
8, 21960, Note_on_c, 6, 67, 44
8, 21960, Note_on_c, 6, 58, 33
8, 21979, Note_on_c, 6, 58, 0
8, 21989, Note_on_c, 6, 67, 0
8, 21990, Note_on_c, 6, 65, 44
8, 21990, Note_on_c, 6, 58, 33
8, 22009, Note_on_c, 6, 58, 0
8, 22019, Note_on_c, 6, 65, 0
8, 22020, Note_on_c, 6, 67, 44
8, 22020, Note_on_c, 6, 63, 33
8, 22049, Note_on_c, 6, 63, 0
8, 22049, Note_on_c, 6, 67, 0
8, 22050, Note_on_c, 6, 68, 44
8, 22050, Note_on_c, 6, 65, 33
8, 22079, Note_on_c, 6, 65, 0
8, 22079, Note_on_c, 6, 68, 0
8, 22080, Note_on_c, 6, 70, 44
8, 22080, Note_on_c, 6, 67, 33
8, 22109, Note_on_c, 6, 67, 0
8, 22109, Note_on_c, 6, 70, 0
8, 22140, Note_on_c, 6, 68, 44
8, 22140, Note_on_c, 6, 65, 33
8, 22169, Note_on_c, 6, 65, 0
8, 22169, Note_on_c, 6, 68, 0
8, 22200, Note_on_c, 6, 67, 44
8, 22200, Note_on_c, 6, 63, 33
8, 22229, Note_on_c, 6, 63, 0
8, 22229, Note_on_c, 6, 67, 0
8, 22260, Note_on_c, 6, 65, 44
8, 22260, Note_on_c, 6, 58, 33
8, 22289, Note_on_c, 6, 58, 0
8, 22289, Note_on_c, 6, 65, 0
8, 22320, Note_on_c, 6, 63, 44
8, 22320, Note_on_c, 6, 55, 33
8, 22369, Note_on_c, 6, 55, 0
8, 22379, Note_on_c, 6, 63, 0
8, 25230, Note_on_c, 6, 51, 33
8, 25230, Note_on_c, 6, 63, 43
8, 25244, Note_on_c, 6, 63, 0
8, 25244, Note_on_c, 6, 51, 0
8, 25260, Note_on_c, 6, 51, 33
8, 25260, Note_on_c, 6, 63, 43
8, 25274, Note_on_c, 6, 63, 0
8, 25274, Note_on_c, 6, 51, 0
8, 25290, Note_on_c, 6, 51, 33
8, 25290, Note_on_c, 6, 63, 43
8, 25304, Note_on_c, 6, 63, 0
8, 25304, Note_on_c, 6, 51, 0
8, 25320, Note_on_c, 6, 51, 29
8, 25320, Note_on_c, 6, 63, 30
8, 25449, Note_on_c, 6, 63, 0
8, 25449, Note_on_c, 6, 51, 0
8, 25470, Note_on_c, 6, 51, 33
8, 25470, Note_on_c, 6, 63, 43
8, 25484, Note_on_c, 6, 63, 0
8, 25484, Note_on_c, 6, 51, 0
8, 25500, Note_on_c, 6, 51, 33
8, 25500, Note_on_c, 6, 63, 43
8, 25514, Note_on_c, 6, 63, 0
8, 25514, Note_on_c, 6, 51, 0
8, 25530, Note_on_c, 6, 51, 33
8, 25530, Note_on_c, 6, 63, 43
8, 25544, Note_on_c, 6, 63, 0
8, 25544, Note_on_c, 6, 51, 0
8, 25560, Note_on_c, 6, 51, 28
8, 25560, Note_on_c, 6, 63, 28
8, 25694, Note_on_c, 6, 63, 0
8, 25694, Note_on_c, 6, 51, 0
8, 25710, Note_on_c, 6, 51, 33
8, 25710, Note_on_c, 6, 63, 43
8, 25724, Note_on_c, 6, 63, 0
8, 25724, Note_on_c, 6, 51, 0
8, 25740, Note_on_c, 6, 51, 33
8, 25740, Note_on_c, 6, 63, 43
8, 25754, Note_on_c, 6, 63, 0
8, 25754, Note_on_c, 6, 51, 0
8, 25770, Note_on_c, 6, 51, 33
8, 25770, Note_on_c, 6, 63, 43
8, 25784, Note_on_c, 6, 63, 0
8, 25784, Note_on_c, 6, 51, 0
8, 25800, Note_on_c, 6, 63, 33
8, 25800, Note_on_c, 6, 51, 33
8, 25914, Note_on_c, 6, 63, 0
8, 25919, Note_on_c, 6, 51, 0
8, 26040, Note_on_c, 6, 51, 27
8, 26040, Note_on_c, 6, 63, 31
8, 26069, Note_on_c, 6, 63, 0
8, 26069, Note_on_c, 6, 51, 0
8, 26100, Note_on_c, 6, 51, 26
8, 26100, Note_on_c, 6, 63, 27
8, 26129, Note_on_c, 6, 63, 0
8, 26129, Note_on_c, 6, 51, 0
8, 26160, Note_on_c, 6, 51, 20
8, 26160, Note_on_c, 6, 63, 25
8, 26204, Note_on_c, 6, 63, 0
8, 26204, Note_on_c, 6, 51, 0
8, 29040, Note_on_c, 6, 46, 33
8, 29040, Note_on_c, 6, 58, 33
8, 29759, Note_on_c, 6, 58, 0
8, 29759, Note_on_c, 6, 46, 0
8, 29760, Note_on_c, 6, 46, 23
8, 29760, Note_on_c, 6, 58, 33
8, 30239, Note_on_c, 6, 46, 0
8, 30240, Note_on_c, 6, 51, 23
8, 30359, Note_on_c, 6, 51, 0
8, 30359, Note_on_c, 6, 58, 0
8, 35520, Note_on_c, 6, 51, 33
8, 35520, Note_on_c, 6, 63, 33
8, 35999, Note_on_c, 6, 63, 0
8, 35999, Note_on_c, 6, 51, 0
8, 36480, Note_on_c, 6, 51, 33
8, 36480, Note_on_c, 6, 63, 33
8, 36959, Note_on_c, 6, 63, 0
8, 36959, Note_on_c, 6, 51, 0
8, 36960, Note_on_c, 6, 58, 23
8, 36989, Note_on_c, 6, 58, 0
8, 37020, Note_on_c, 6, 58, 23
8, 37049, Note_on_c, 6, 58, 0
8, 37080, Note_on_c, 6, 58, 23
8, 37109, Note_on_c, 6, 58, 0
8, 37140, Note_on_c, 6, 58, 23
8, 37169, Note_on_c, 6, 58, 0
8, 37200, Note_on_c, 6, 58, 23
8, 37229, Note_on_c, 6, 58, 0
8, 37770, Note_on_c, 6, 58, 32
8, 37799, Note_on_c, 6, 58, 0
8, 37800, Note_on_c, 6, 56, 30
8, 37829, Note_on_c, 6, 56, 0
8, 37830, Note_on_c, 6, 55, 27
8, 37859, Note_on_c, 6, 55, 0
8, 37860, Note_on_c, 6, 53, 24
8, 37889, Note_on_c, 6, 53, 0
8, 37890, Note_on_c, 6, 51, 21
8, 37919, Note_on_c, 6, 51, 0
8, 38250, Note_on_c, 6, 58, 32
8, 38279, Note_on_c, 6, 58, 0
8, 38280, Note_on_c, 6, 56, 30
8, 38309, Note_on_c, 6, 56, 0
8, 38310, Note_on_c, 6, 55, 27
8, 38339, Note_on_c, 6, 55, 0
8, 38340, Note_on_c, 6, 53, 24
8, 38369, Note_on_c, 6, 53, 0
8, 38370, Note_on_c, 6, 51, 21
8, 38399, Note_on_c, 6, 51, 0
8, 39690, Note_on_c, 6, 58, 32
8, 39719, Note_on_c, 6, 58, 0
8, 39720, Note_on_c, 6, 56, 30
8, 39749, Note_on_c, 6, 56, 0
8, 39750, Note_on_c, 6, 55, 27
8, 39779, Note_on_c, 6, 55, 0
8, 39780, Note_on_c, 6, 53, 24
8, 39809, Note_on_c, 6, 53, 0
8, 39810, Note_on_c, 6, 51, 21
8, 39839, Note_on_c, 6, 51, 0
8, 40170, Note_on_c, 6, 58, 32
8, 40199, Note_on_c, 6, 58, 0
8, 40200, Note_on_c, 6, 56, 30
8, 40229, Note_on_c, 6, 56, 0
8, 40230, Note_on_c, 6, 55, 27
8, 40259, Note_on_c, 6, 55, 0
8, 40260, Note_on_c, 6, 53, 24
8, 40289, Note_on_c, 6, 53, 0
8, 40290, Note_on_c, 6, 51, 21
8, 40319, Note_on_c, 6, 51, 0
8, 41040, Note_on_c, 6, 55, 22
8, 41279, Note_on_c, 6, 55, 0
8, 41280, Note_on_c, 6, 53, 22
8, 41519, Note_on_c, 6, 53, 0
8, 41520, Note_on_c, 6, 55, 22
8, 41759, Note_on_c, 6, 55, 0
8, 41760, Note_on_c, 6, 53, 22
8, 41999, Note_on_c, 6, 53, 0
8, 42000, Note_on_c, 6, 55, 22
8, 42119, Note_on_c, 6, 55, 0
8, 42120, Note_on_c, 6, 51, 22
8, 42359, Note_on_c, 6, 51, 0
8, 42360, Note_on_c, 6, 46, 22
8, 42419, Note_on_c, 6, 46, 0
8, 42480, Note_on_c, 6, 46, 19
8, 42519, Note_on_c, 6, 46, 0
8, 42600, Note_on_c, 6, 46, 19
8, 42639, Note_on_c, 6, 46, 0
8, 42720, Note_on_c, 6, 46, 22
8, 42799, Note_on_c, 6, 46, 0
8, 42799, End_track
9, 0, Start_track
9, 0, MIDI_port, 0
9, 0, Title_t, "Horn II"
9, 20, Control_c, 7, 121, 0
9, 21, Control_c, 7, 11, 127
9, 21, Control_c, 7, 7, 127
9, 22, Control_c, 7, 93, 10
9, 22, Control_c, 7, 91, 79
9, 25, Control_c, 7, 10, 54
9, 26, Pitch_bend_c, 7, 8192
9, 27, Control_c, 7, 0, 1
9, 28, Control_c, 7, 32, 0
9, 29, Program_c, 7, 60
9, 37200, Note_on_c, 7, 39, 17
9, 37219, Note_on_c, 7, 39, 0
9, 37230, Note_on_c, 7, 51, 17
9, 37249, Note_on_c, 7, 51, 0
9, 37260, Note_on_c, 7, 51, 17
9, 37279, Note_on_c, 7, 51, 0
9, 37290, Note_on_c, 7, 51, 17
9, 37309, Note_on_c, 7, 51, 0
9, 37320, Note_on_c, 7, 39, 17
9, 37339, Note_on_c, 7, 39, 0
9, 37350, Note_on_c, 7, 51, 17
9, 37369, Note_on_c, 7, 51, 0
9, 37380, Note_on_c, 7, 51, 17
9, 37399, Note_on_c, 7, 51, 0
9, 37410, Note_on_c, 7, 51, 17
9, 37429, Note_on_c, 7, 51, 0
9, 37440, Note_on_c, 7, 39, 17
9, 37459, Note_on_c, 7, 39, 0
9, 37470, Note_on_c, 7, 51, 17
9, 37489, Note_on_c, 7, 51, 0
9, 37500, Note_on_c, 7, 51, 17
9, 37519, Note_on_c, 7, 51, 0
9, 37530, Note_on_c, 7, 51, 17
9, 37549, Note_on_c, 7, 51, 0
9, 37560, Note_on_c, 7, 39, 17
9, 37579, Note_on_c, 7, 39, 0
9, 37590, Note_on_c, 7, 51, 17
9, 37609, Note_on_c, 7, 51, 0
9, 37620, Note_on_c, 7, 51, 17
9, 37639, Note_on_c, 7, 51, 0
9, 37650, Note_on_c, 7, 51, 17
9, 37669, Note_on_c, 7, 51, 0
9, 37680, Note_on_c, 7, 39, 17
9, 37699, Note_on_c, 7, 39, 0
9, 37710, Note_on_c, 7, 51, 17
9, 37729, Note_on_c, 7, 51, 0
9, 37740, Note_on_c, 7, 51, 17
9, 37759, Note_on_c, 7, 51, 0
9, 37770, Note_on_c, 7, 51, 17
9, 37789, Note_on_c, 7, 51, 0
9, 37800, Note_on_c, 7, 39, 17
9, 37819, Note_on_c, 7, 39, 0
9, 37830, Note_on_c, 7, 51, 17
9, 37849, Note_on_c, 7, 51, 0
9, 37860, Note_on_c, 7, 51, 17
9, 37879, Note_on_c, 7, 51, 0
9, 37890, Note_on_c, 7, 51, 17
9, 37909, Note_on_c, 7, 51, 0
9, 37920, Note_on_c, 7, 39, 17
9, 37939, Note_on_c, 7, 39, 0
9, 37950, Note_on_c, 7, 51, 17
9, 37969, Note_on_c, 7, 51, 0
9, 37980, Note_on_c, 7, 51, 17
9, 37999, Note_on_c, 7, 51, 0
9, 38010, Note_on_c, 7, 51, 17
9, 38029, Note_on_c, 7, 51, 0
9, 38040, Note_on_c, 7, 39, 17
9, 38059, Note_on_c, 7, 39, 0
9, 38070, Note_on_c, 7, 51, 17
9, 38089, Note_on_c, 7, 51, 0
9, 38100, Note_on_c, 7, 51, 17
9, 38119, Note_on_c, 7, 51, 0
9, 38130, Note_on_c, 7, 51, 17
9, 38149, Note_on_c, 7, 51, 0
9, 38160, Note_on_c, 7, 39, 17
9, 38179, Note_on_c, 7, 39, 0
9, 38190, Note_on_c, 7, 51, 17
9, 38209, Note_on_c, 7, 51, 0
9, 38220, Note_on_c, 7, 51, 17
9, 38239, Note_on_c, 7, 51, 0
9, 38250, Note_on_c, 7, 51, 17
9, 38269, Note_on_c, 7, 51, 0
9, 38280, Note_on_c, 7, 39, 17
9, 38299, Note_on_c, 7, 39, 0
9, 38310, Note_on_c, 7, 51, 17
9, 38329, Note_on_c, 7, 51, 0
9, 38340, Note_on_c, 7, 51, 17
9, 38359, Note_on_c, 7, 51, 0
9, 38370, Note_on_c, 7, 51, 17
9, 38389, Note_on_c, 7, 51, 0
9, 39150, Note_on_c, 7, 51, 17
9, 39169, Note_on_c, 7, 51, 0
9, 39180, Note_on_c, 7, 51, 17
9, 39199, Note_on_c, 7, 51, 0
9, 39210, Note_on_c, 7, 51, 17
9, 39229, Note_on_c, 7, 51, 0
9, 39240, Note_on_c, 7, 39, 17
9, 39259, Note_on_c, 7, 39, 0
9, 39270, Note_on_c, 7, 51, 17
9, 39289, Note_on_c, 7, 51, 0
9, 39300, Note_on_c, 7, 51, 17
9, 39319, Note_on_c, 7, 51, 0
9, 39330, Note_on_c, 7, 51, 17
9, 39349, Note_on_c, 7, 51, 0
9, 39360, Note_on_c, 7, 39, 17
9, 39379, Note_on_c, 7, 39, 0
9, 39390, Note_on_c, 7, 51, 17
9, 39409, Note_on_c, 7, 51, 0
9, 39420, Note_on_c, 7, 51, 17
9, 39439, Note_on_c, 7, 51, 0
9, 39450, Note_on_c, 7, 51, 17
9, 39469, Note_on_c, 7, 51, 0
9, 39480, Note_on_c, 7, 39, 17
9, 39499, Note_on_c, 7, 39, 0
9, 39510, Note_on_c, 7, 51, 17
9, 39529, Note_on_c, 7, 51, 0
9, 39540, Note_on_c, 7, 51, 17
9, 39559, Note_on_c, 7, 51, 0
9, 39570, Note_on_c, 7, 51, 17
9, 39589, Note_on_c, 7, 51, 0
9, 39600, Note_on_c, 7, 39, 17
9, 39619, Note_on_c, 7, 39, 0
9, 39630, Note_on_c, 7, 51, 17
9, 39649, Note_on_c, 7, 51, 0
9, 39660, Note_on_c, 7, 51, 17
9, 39679, Note_on_c, 7, 51, 0
9, 39690, Note_on_c, 7, 51, 17
9, 39709, Note_on_c, 7, 51, 0
9, 39720, Note_on_c, 7, 39, 17
9, 39739, Note_on_c, 7, 39, 0
9, 39750, Note_on_c, 7, 51, 17
9, 39769, Note_on_c, 7, 51, 0
9, 39780, Note_on_c, 7, 51, 17
9, 39799, Note_on_c, 7, 51, 0
9, 39810, Note_on_c, 7, 51, 17
9, 39829, Note_on_c, 7, 51, 0
9, 39840, Note_on_c, 7, 39, 17
9, 39859, Note_on_c, 7, 39, 0
9, 39870, Note_on_c, 7, 51, 17
9, 39889, Note_on_c, 7, 51, 0
9, 39900, Note_on_c, 7, 51, 17
9, 39919, Note_on_c, 7, 51, 0
9, 39930, Note_on_c, 7, 51, 17
9, 39949, Note_on_c, 7, 51, 0
9, 39960, Note_on_c, 7, 39, 17
9, 39979, Note_on_c, 7, 39, 0
9, 39990, Note_on_c, 7, 51, 17
9, 40009, Note_on_c, 7, 51, 0
9, 40020, Note_on_c, 7, 51, 17
9, 40039, Note_on_c, 7, 51, 0
9, 40050, Note_on_c, 7, 51, 17
9, 40069, Note_on_c, 7, 51, 0
9, 40080, Note_on_c, 7, 39, 17
9, 40099, Note_on_c, 7, 39, 0
9, 40110, Note_on_c, 7, 51, 17
9, 40129, Note_on_c, 7, 51, 0
9, 40140, Note_on_c, 7, 51, 17
9, 40159, Note_on_c, 7, 51, 0
9, 40170, Note_on_c, 7, 51, 17
9, 40189, Note_on_c, 7, 51, 0
9, 40200, Note_on_c, 7, 39, 17
9, 40219, Note_on_c, 7, 39, 0
9, 40230, Note_on_c, 7, 51, 17
9, 40249, Note_on_c, 7, 51, 0
9, 40260, Note_on_c, 7, 51, 17
9, 40279, Note_on_c, 7, 51, 0
9, 40290, Note_on_c, 7, 51, 17
9, 40309, Note_on_c, 7, 51, 0
9, 41040, Note_on_c, 7, 63, 22
9, 41399, Note_on_c, 7, 63, 0
9, 41400, Note_on_c, 7, 58, 22
9, 41639, Note_on_c, 7, 58, 0
9, 41640, Note_on_c, 7, 63, 22
9, 41879, Note_on_c, 7, 63, 0
9, 41880, Note_on_c, 7, 58, 22
9, 42119, Note_on_c, 7, 58, 0
9, 42120, Note_on_c, 7, 51, 22
9, 42359, Note_on_c, 7, 51, 0
9, 42360, Note_on_c, 7, 46, 22
9, 42419, Note_on_c, 7, 46, 0
9, 42480, Note_on_c, 7, 51, 25
9, 42519, Note_on_c, 7, 51, 0
9, 42600, Note_on_c, 7, 51, 25
9, 42639, Note_on_c, 7, 51, 0
9, 42720, Note_on_c, 7, 51, 22
9, 42799, Note_on_c, 7, 51, 0
9, 42799, End_track
10, 0, Start_track
10, 0, MIDI_port, 0
10, 0, Title_t, "Timpani"
10, 20, Control_c, 9, 121, 0
10, 21, Control_c, 9, 11, 127
10, 21, Control_c, 9, 7, 127
10, 22, Control_c, 9, 93, 0
10, 22, Control_c, 9, 91, 127
10, 25, Control_c, 9, 10, 44
10, 26, Pitch_bend_c, 9, 8192
10, 27, Control_c, 9, 0, 0
10, 28, Control_c, 9, 32, 0
10, 29, Program_c, 9, 48
10, 29, End_track
11, 0, Start_track
11, 0, MIDI_port, 0
11, 0, Title_t, "Violin I"
11, 20, Control_c, 8, 121, 0
11, 21, Control_c, 8, 11, 127
11, 21, Control_c, 8, 7, 127
11, 22, Control_c, 8, 93, 10
11, 22, Control_c, 8, 91, 79
11, 25, Control_c, 8, 10, 44
11, 26, Pitch_bend_c, 8, 8192
11, 27, Control_c, 8, 0, 16
11, 28, Control_c, 8, 32, 0
11, 29, Program_c, 8, 48
11, 2400, Note_on_c, 8, 70, 49
11, 2499, Note_on_c, 8, 70, 0
11, 2520, Note_on_c, 8, 70, 55
11, 2589, Note_on_c, 8, 70, 0
11, 2610, Note_on_c, 8, 70, 60
11, 2629, Note_on_c, 8, 70, 0
11, 2640, Note_on_c, 8, 70, 60
11, 2699, Note_on_c, 8, 70, 0
11, 2700, Note_on_c, 8, 75, 50
11, 2739, Note_on_c, 8, 75, 0
11, 2760, Note_on_c, 8, 75, 49
11, 2879, Note_on_c, 8, 75, 0
11, 3360, Note_on_c, 8, 79, 60
11, 3479, Note_on_c, 8, 79, 0
11, 3480, Note_on_c, 8, 79, 57
11, 3559, Note_on_c, 8, 79, 0
11, 3570, Note_on_c, 8, 79, 53
11, 3599, Note_on_c, 8, 79, 0
11, 3600, Note_on_c, 8, 82, 63
11, 3689, Note_on_c, 8, 82, 0
11, 3690, Note_on_c, 8, 79, 55
11, 3719, Note_on_c, 8, 79, 0
11, 3720, Note_on_c, 8, 75, 48
11, 3779, Note_on_c, 8, 75, 0
11, 4380, Note_on_c, 8, 65, 28
11, 4394, Note_on_c, 8, 65, 0
11, 4440, Note_on_c, 8, 65, 25
11, 4454, Note_on_c, 8, 65, 0
11, 4500, Note_on_c, 8, 65, 22
11, 4514, Note_on_c, 8, 65, 0
11, 4620, Note_on_c, 8, 67, 28
11, 4634, Note_on_c, 8, 67, 0
11, 4680, Note_on_c, 8, 67, 25
11, 4694, Note_on_c, 8, 67, 0
11, 4740, Note_on_c, 8, 67, 22
11, 4754, Note_on_c, 8, 67, 0
11, 4860, Note_on_c, 8, 67, 28
11, 4874, Note_on_c, 8, 67, 0
11, 4920, Note_on_c, 8, 67, 25
11, 4934, Note_on_c, 8, 67, 0
11, 4980, Note_on_c, 8, 67, 22
11, 4994, Note_on_c, 8, 67, 0
11, 5100, Note_on_c, 8, 68, 28
11, 5114, Note_on_c, 8, 68, 0
11, 5160, Note_on_c, 8, 68, 25
11, 5174, Note_on_c, 8, 68, 0
11, 5220, Note_on_c, 8, 68, 25
11, 5234, Note_on_c, 8, 68, 0
11, 5340, Note_on_c, 8, 68, 28
11, 5354, Note_on_c, 8, 68, 0
11, 5400, Note_on_c, 8, 68, 25
11, 5414, Note_on_c, 8, 68, 0
11, 5460, Note_on_c, 8, 68, 25
11, 5474, Note_on_c, 8, 68, 0
11, 5580, Note_on_c, 8, 67, 28
11, 5639, Note_on_c, 8, 67, 0
11, 5640, Note_on_c, 8, 72, 25
11, 5654, Note_on_c, 8, 72, 0
11, 5700, Note_on_c, 8, 72, 23
11, 5714, Note_on_c, 8, 72, 0
11, 5820, Note_on_c, 8, 72, 28
11, 5834, Note_on_c, 8, 72, 0
11, 5880, Note_on_c, 8, 72, 25
11, 5894, Note_on_c, 8, 72, 0
11, 5940, Note_on_c, 8, 72, 25
11, 5954, Note_on_c, 8, 72, 0
11, 6000, Note_on_c, 8, 70, 22
11, 6079, Note_on_c, 8, 70, 0
11, 6120, Note_on_c, 8, 65, 25
11, 6199, Note_on_c, 8, 65, 0
11, 6360, Note_on_c, 8, 65, 25
11, 6439, Note_on_c, 8, 65, 0
11, 6600, Note_on_c, 8, 65, 25
11, 6679, Note_on_c, 8, 65, 0
11, 6840, Note_on_c, 8, 65, 25
11, 6919, Note_on_c, 8, 65, 0
11, 7080, Note_on_c, 8, 70, 35
11, 7179, Note_on_c, 8, 70, 0
11, 7320, Note_on_c, 8, 69, 45
11, 7419, Note_on_c, 8, 69, 0
11, 7440, Note_on_c, 8, 68, 49
11, 7639, Note_on_c, 8, 68, 0
11, 11392, Control_c, 8, 73, 54
11, 11394, Control_c, 8, 74, 74
11, 11396, Control_c, 8, 0, 0
11, 11398, Control_c, 8, 32, 0
11, 11400, Program_c, 8, 49
11, 11520, Note_on_c, 8, 72, 27
11, 11759, Note_on_c, 8, 72, 0
11, 11760, Note_on_c, 8, 71, 27
11, 11839, Note_on_c, 8, 71, 0
11, 11850, Note_on_c, 8, 72, 27
11, 11879, Note_on_c, 8, 72, 0
11, 11880, Note_on_c, 8, 74, 27
11, 11999, Note_on_c, 8, 74, 0
11, 12000, Note_on_c, 8, 72, 27
11, 12039, Note_on_c, 8, 72, 0
11, 12060, Note_on_c, 8, 67, 27
11, 12119, Note_on_c, 8, 67, 0
11, 12120, Note_on_c, 8, 65, 27
11, 12179, Note_on_c, 8, 65, 0
11, 12180, Note_on_c, 8, 63, 27
11, 12239, Note_on_c, 8, 63, 0
11, 12240, Note_on_c, 8, 63, 27
11, 12299, Note_on_c, 8, 63, 0
11, 12300, Note_on_c, 8, 62, 27
11, 12349, Note_on_c, 8, 62, 0
11, 12360, Note_on_c, 8, 62, 23
11, 12409, Note_on_c, 8, 62, 0
11, 12510, Note_on_c, 8, 75, 37
11, 12529, Note_on_c, 8, 75, 0
11, 12540, Note_on_c, 8, 75, 37
11, 12559, Note_on_c, 8, 75, 0
11, 12570, Note_on_c, 8, 75, 37
11, 12589, Note_on_c, 8, 75, 0
11, 12600, Note_on_c, 8, 75, 27
11, 12719, Note_on_c, 8, 75, 0
11, 12750, Note_on_c, 8, 74, 37
11, 12769, Note_on_c, 8, 74, 0
11, 12780, Note_on_c, 8, 74, 37
11, 12799, Note_on_c, 8, 74, 0
11, 12810, Note_on_c, 8, 74, 37
11, 12829, Note_on_c, 8, 74, 0
11, 12840, Note_on_c, 8, 74, 27
11, 12959, Note_on_c, 8, 74, 0
11, 12990, Note_on_c, 8, 75, 27
11, 13009, Note_on_c, 8, 75, 0
11, 13050, Note_on_c, 8, 72, 27
11, 13069, Note_on_c, 8, 72, 0
11, 13110, Note_on_c, 8, 70, 27
11, 13129, Note_on_c, 8, 70, 0
11, 13170, Note_on_c, 8, 69, 27
11, 13189, Note_on_c, 8, 69, 0
11, 13200, Note_on_c, 8, 69, 27
11, 13319, Note_on_c, 8, 69, 0
11, 15360, Note_on_c, 8, 67, 35
11, 15719, Note_on_c, 8, 67, 0
11, 15720, Note_on_c, 8, 65, 35
11, 15749, Note_on_c, 8, 65, 0
11, 15750, Note_on_c, 8, 68, 35
11, 15779, Note_on_c, 8, 68, 0
11, 15780, Note_on_c, 8, 67, 35
11, 15809, Note_on_c, 8, 67, 0
11, 15810, Note_on_c, 8, 65, 35
11, 15839, Note_on_c, 8, 65, 0
11, 15840, Note_on_c, 8, 63, 31
11, 16199, Note_on_c, 8, 63, 0
11, 16200, Note_on_c, 8, 62, 31
11, 16229, Note_on_c, 8, 62, 0
11, 16230, Note_on_c, 8, 67, 31
11, 16259, Note_on_c, 8, 67, 0
11, 16260, Note_on_c, 8, 66, 31
11, 16289, Note_on_c, 8, 66, 0
11, 16290, Note_on_c, 8, 67, 31
11, 16319, Note_on_c, 8, 67, 0
11, 16320, Control_c, 8, 73, 44
11, 16350, Note_on_c, 8, 68, 34
11, 16369, Note_on_c, 8, 68, 0
11, 16380, Note_on_c, 8, 68, 34
11, 16399, Note_on_c, 8, 68, 0
11, 16410, Note_on_c, 8, 68, 35
11, 16429, Note_on_c, 8, 68, 0
11, 16440, Note_on_c, 8, 68, 35
11, 16559, Note_on_c, 8, 68, 0
11, 16590, Note_on_c, 8, 69, 38
11, 16609, Note_on_c, 8, 69, 0
11, 16620, Note_on_c, 8, 69, 38
11, 16639, Note_on_c, 8, 69, 0
11, 16650, Note_on_c, 8, 69, 38
11, 16669, Note_on_c, 8, 69, 0
11, 16680, Note_on_c, 8, 69, 39
11, 16799, Note_on_c, 8, 69, 0
11, 16830, Note_on_c, 8, 67, 37
11, 16849, Note_on_c, 8, 67, 0
11, 16890, Note_on_c, 8, 63, 37
11, 16909, Note_on_c, 8, 63, 0
11, 16950, Note_on_c, 8, 65, 37
11, 16969, Note_on_c, 8, 65, 0
11, 17010, Note_on_c, 8, 62, 37
11, 17029, Note_on_c, 8, 62, 0
11, 17040, Note_on_c, 8, 62, 37
11, 17159, Note_on_c, 8, 62, 0
11, 17160, Note_on_c, 8, 60, 27
11, 17219, Note_on_c, 8, 60, 0
11, 22310, Control_c, 8, 7, 94
11, 22312, Control_c, 8, 74, 64
11, 22314, Control_c, 8, 73, 64
11, 22316, Control_c, 8, 0, 1
11, 22318, Control_c, 8, 32, 0
11, 22320, Program_c, 8, 48
11, 22440, Note_on_c, 8, 63, 35
11, 22469, Note_on_c, 8, 63, 0
11, 22470, Note_on_c, 8, 61, 35
11, 22489, Note_on_c, 8, 61, 0
11, 22500, Note_on_c, 8, 61, 35
11, 22529, Note_on_c, 8, 61, 0
11, 22530, Note_on_c, 8, 60, 35
11, 22549, Note_on_c, 8, 60, 0
11, 22560, Note_on_c, 8, 60, 35
11, 22649, Note_on_c, 8, 60, 0
11, 22680, Note_on_c, 8, 65, 35
11, 22709, Note_on_c, 8, 65, 0
11, 22710, Note_on_c, 8, 63, 35
11, 22729, Note_on_c, 8, 63, 0
11, 22740, Note_on_c, 8, 63, 35
11, 22769, Note_on_c, 8, 63, 0
11, 22770, Note_on_c, 8, 61, 35
11, 22789, Note_on_c, 8, 61, 0
11, 22800, Note_on_c, 8, 61, 35
11, 23279, Note_on_c, 8, 61, 0
11, 23280, Note_on_c, 8, 59, 35
11, 23309, Note_on_c, 8, 59, 0
11, 23310, Note_on_c, 8, 60, 35
11, 23329, Note_on_c, 8, 60, 0
11, 23340, Note_on_c, 8, 60, 35
11, 23399, Note_on_c, 8, 60, 0
11, 23520, Note_on_c, 8, 68, 44
11, 23549, Note_on_c, 8, 68, 0
11, 23550, Note_on_c, 8, 65, 44
11, 23579, Note_on_c, 8, 65, 0
11, 23580, Note_on_c, 8, 63, 44
11, 23609, Note_on_c, 8, 63, 0
11, 23610, Note_on_c, 8, 62, 44
11, 23639, Note_on_c, 8, 62, 0
11, 23760, Note_on_c, 8, 68, 44
11, 23789, Note_on_c, 8, 68, 0
11, 23790, Note_on_c, 8, 65, 44
11, 23819, Note_on_c, 8, 65, 0
11, 23820, Note_on_c, 8, 63, 44
11, 23849, Note_on_c, 8, 63, 0
11, 23850, Note_on_c, 8, 62, 44
11, 23879, Note_on_c, 8, 62, 0
11, 23880, Note_on_c, 8, 63, 44
11, 23909, Note_on_c, 8, 63, 0
11, 23910, Note_on_c, 8, 65, 46
11, 23939, Note_on_c, 8, 65, 0
11, 23940, Note_on_c, 8, 67, 46
11, 23969, Note_on_c, 8, 67, 0
11, 23970, Note_on_c, 8, 68, 46
11, 23999, Note_on_c, 8, 68, 0
11, 24000, Note_on_c, 8, 70, 40
11, 24059, Note_on_c, 8, 70, 0
11, 24060, Note_on_c, 8, 68, 36
11, 24119, Note_on_c, 8, 68, 0
11, 24120, Note_on_c, 8, 67, 35
11, 24179, Note_on_c, 8, 67, 0
11, 24180, Note_on_c, 8, 65, 33
11, 24239, Note_on_c, 8, 65, 0
11, 24240, Note_on_c, 8, 63, 28
11, 24299, Note_on_c, 8, 63, 0
11, 26280, Note_on_c, 8, 63, 55
11, 26309, Note_on_c, 8, 63, 0
11, 26310, Note_on_c, 8, 61, 55
11, 26324, Note_on_c, 8, 61, 0
11, 26340, Note_on_c, 8, 61, 55
11, 26369, Note_on_c, 8, 61, 0
11, 26370, Note_on_c, 8, 60, 55
11, 26384, Note_on_c, 8, 60, 0
11, 26400, Note_on_c, 8, 60, 55
11, 26489, Note_on_c, 8, 60, 0
11, 26520, Note_on_c, 8, 66, 55
11, 26549, Note_on_c, 8, 66, 0
11, 26550, Note_on_c, 8, 65, 55
11, 26564, Note_on_c, 8, 65, 0
11, 26580, Note_on_c, 8, 65, 55
11, 26609, Note_on_c, 8, 65, 0
11, 26610, Note_on_c, 8, 63, 55
11, 26624, Note_on_c, 8, 63, 0
11, 26640, Note_on_c, 8, 63, 55
11, 26669, Note_on_c, 8, 63, 0
11, 26670, Note_on_c, 8, 62, 55
11, 26699, Note_on_c, 8, 62, 0
11, 26700, Note_on_c, 8, 61, 55
11, 26789, Note_on_c, 8, 61, 0
11, 26790, Note_on_c, 8, 63, 55
11, 26819, Note_on_c, 8, 63, 0
11, 26820, Note_on_c, 8, 65, 55
11, 26849, Note_on_c, 8, 65, 0
11, 26850, Note_on_c, 8, 67, 55
11, 26879, Note_on_c, 8, 67, 0
11, 26880, Note_on_c, 8, 68, 55
11, 26909, Note_on_c, 8, 68, 0
11, 26910, Note_on_c, 8, 70, 55
11, 26939, Note_on_c, 8, 70, 0
11, 26940, Note_on_c, 8, 72, 55
11, 26969, Note_on_c, 8, 72, 0
11, 26970, Note_on_c, 8, 68, 55
11, 26999, Note_on_c, 8, 68, 0
11, 27000, Note_on_c, 8, 67, 55
11, 27029, Note_on_c, 8, 67, 0
11, 27030, Note_on_c, 8, 65, 55
11, 27059, Note_on_c, 8, 65, 0
11, 27060, Note_on_c, 8, 63, 55
11, 27089, Note_on_c, 8, 63, 0
11, 27090, Note_on_c, 8, 61, 49
11, 27119, Note_on_c, 8, 61, 0
11, 27120, Note_on_c, 8, 60, 44
11, 27179, Note_on_c, 8, 60, 0
11, 27180, Note_on_c, 8, 58, 39
11, 27224, Note_on_c, 8, 58, 0
11, 27360, Note_on_c, 8, 73, 55
11, 27389, Note_on_c, 8, 73, 0
11, 27390, Note_on_c, 8, 70, 55
11, 27419, Note_on_c, 8, 70, 0
11, 27420, Note_on_c, 8, 68, 55
11, 27449, Note_on_c, 8, 68, 0
11, 27450, Note_on_c, 8, 67, 55
11, 27479, Note_on_c, 8, 67, 0
11, 27600, Note_on_c, 8, 73, 55
11, 27629, Note_on_c, 8, 73, 0
11, 27630, Note_on_c, 8, 70, 55
11, 27659, Note_on_c, 8, 70, 0
11, 27660, Note_on_c, 8, 68, 55
11, 27689, Note_on_c, 8, 68, 0
11, 27690, Note_on_c, 8, 67, 55
11, 27719, Note_on_c, 8, 67, 0
11, 27720, Note_on_c, 8, 75, 55
11, 27749, Note_on_c, 8, 75, 0
11, 27750, Note_on_c, 8, 72, 55
11, 27779, Note_on_c, 8, 72, 0
11, 27780, Note_on_c, 8, 70, 55
11, 27809, Note_on_c, 8, 70, 0
11, 27810, Note_on_c, 8, 69, 55
11, 27839, Note_on_c, 8, 69, 0
11, 27840, Note_on_c, 8, 70, 55
11, 27869, Note_on_c, 8, 70, 0
11, 27870, Note_on_c, 8, 80, 55
11, 27899, Note_on_c, 8, 80, 0
11, 27900, Note_on_c, 8, 79, 55
11, 27929, Note_on_c, 8, 79, 0
11, 27930, Note_on_c, 8, 77, 55
11, 27959, Note_on_c, 8, 77, 0
11, 27960, Note_on_c, 8, 75, 55
11, 27989, Note_on_c, 8, 75, 0
11, 27990, Note_on_c, 8, 72, 55
11, 28009, Note_on_c, 8, 72, 0
11, 28020, Note_on_c, 8, 73, 55
11, 28049, Note_on_c, 8, 73, 0
11, 28050, Note_on_c, 8, 70, 48
11, 28069, Note_on_c, 8, 70, 0
11, 28080, Note_on_c, 8, 68, 42
11, 28139, Note_on_c, 8, 68, 0
11, 28200, Note_on_c, 8, 72, 44
11, 28229, Note_on_c, 8, 72, 0
11, 28230, Note_on_c, 8, 70, 46
11, 28249, Note_on_c, 8, 70, 0
11, 28260, Note_on_c, 8, 70, 48
11, 28289, Note_on_c, 8, 70, 0
11, 28290, Note_on_c, 8, 68, 51
11, 28314, Note_on_c, 8, 68, 0
11, 28320, Note_on_c, 8, 67, 53
11, 28424, Note_on_c, 8, 67, 0
11, 28440, Note_on_c, 8, 72, 55
11, 28469, Note_on_c, 8, 72, 0
11, 28470, Note_on_c, 8, 70, 52
11, 28499, Note_on_c, 8, 70, 0
11, 28500, Note_on_c, 8, 68, 48
11, 28529, Note_on_c, 8, 68, 0
11, 28530, Note_on_c, 8, 67, 46
11, 28559, Note_on_c, 8, 67, 0
11, 28560, Note_on_c, 8, 65, 42
11, 28654, Note_on_c, 8, 65, 0
11, 28680, Note_on_c, 8, 70, 55
11, 28709, Note_on_c, 8, 70, 0
11, 28710, Note_on_c, 8, 68, 55
11, 28734, Note_on_c, 8, 68, 0
11, 28740, Note_on_c, 8, 68, 55
11, 28769, Note_on_c, 8, 68, 0
11, 28770, Note_on_c, 8, 66, 55
11, 28794, Note_on_c, 8, 66, 0
11, 28800, Note_on_c, 8, 66, 55
11, 28829, Note_on_c, 8, 66, 0
11, 28830, Note_on_c, 8, 65, 53
11, 28854, Note_on_c, 8, 65, 0
11, 28860, Note_on_c, 8, 65, 52
11, 28889, Note_on_c, 8, 65, 0
11, 28890, Note_on_c, 8, 63, 50
11, 28919, Note_on_c, 8, 63, 0
11, 28920, Note_on_c, 8, 63, 48
11, 28949, Note_on_c, 8, 63, 0
11, 28950, Note_on_c, 8, 66, 47
11, 28974, Note_on_c, 8, 66, 0
11, 28980, Note_on_c, 8, 65, 46
11, 29009, Note_on_c, 8, 65, 0
11, 29010, Note_on_c, 8, 63, 44
11, 29034, Note_on_c, 8, 63, 0
11, 29040, Note_on_c, 8, 62, 42
11, 29069, Note_on_c, 8, 62, 0
11, 29160, Note_on_c, 8, 70, 44
11, 29189, Note_on_c, 8, 70, 0
11, 29280, Note_on_c, 8, 72, 44
11, 29309, Note_on_c, 8, 72, 0
11, 29400, Note_on_c, 8, 80, 46
11, 29429, Note_on_c, 8, 80, 0
11, 29520, Note_on_c, 8, 70, 47
11, 29549, Note_on_c, 8, 70, 0
11, 29640, Note_on_c, 8, 79, 48
11, 29669, Note_on_c, 8, 79, 0
11, 29760, Note_on_c, 8, 62, 49
11, 29820, Note_on_c, 8, 63, 50
11, 29824, Note_on_c, 8, 62, 0
11, 29879, Note_on_c, 8, 63, 0
11, 29880, Note_on_c, 8, 65, 51
11, 29939, Note_on_c, 8, 65, 0
11, 29940, Note_on_c, 8, 67, 51
11, 29984, Note_on_c, 8, 67, 0
11, 29985, Note_on_c, 8, 69, 52
11, 29999, Note_on_c, 8, 69, 0
11, 30000, Note_on_c, 8, 70, 52
11, 30060, Note_on_c, 8, 72, 48
11, 30064, Note_on_c, 8, 70, 0
11, 30119, Note_on_c, 8, 72, 0
11, 30120, Note_on_c, 8, 74, 41
11, 30179, Note_on_c, 8, 74, 0
11, 30180, Note_on_c, 8, 70, 38
11, 30239, Note_on_c, 8, 70, 0
11, 30240, Note_on_c, 8, 75, 32
11, 30299, Note_on_c, 8, 75, 0
11, 32220, Note_on_c, 8, 65, 33
11, 32234, Note_on_c, 8, 65, 0
11, 32280, Note_on_c, 8, 65, 30
11, 32294, Note_on_c, 8, 65, 0
11, 32340, Note_on_c, 8, 65, 26
11, 32354, Note_on_c, 8, 65, 0
11, 32460, Note_on_c, 8, 67, 33
11, 32474, Note_on_c, 8, 67, 0
11, 32520, Note_on_c, 8, 67, 30
11, 32534, Note_on_c, 8, 67, 0
11, 32580, Note_on_c, 8, 67, 26
11, 32594, Note_on_c, 8, 67, 0
11, 32700, Note_on_c, 8, 67, 33
11, 32714, Note_on_c, 8, 67, 0
11, 32760, Note_on_c, 8, 67, 30
11, 32774, Note_on_c, 8, 67, 0
11, 32820, Note_on_c, 8, 67, 26
11, 32834, Note_on_c, 8, 67, 0
11, 32940, Note_on_c, 8, 68, 33
11, 32954, Note_on_c, 8, 68, 0
11, 33000, Note_on_c, 8, 68, 30
11, 33014, Note_on_c, 8, 68, 0
11, 33060, Note_on_c, 8, 68, 30
11, 33074, Note_on_c, 8, 68, 0
11, 33180, Note_on_c, 8, 68, 33
11, 33194, Note_on_c, 8, 68, 0
11, 33240, Note_on_c, 8, 68, 30
11, 33254, Note_on_c, 8, 68, 0
11, 33300, Note_on_c, 8, 68, 30
11, 33314, Note_on_c, 8, 68, 0
11, 33420, Note_on_c, 8, 67, 33
11, 33479, Note_on_c, 8, 67, 0
11, 33480, Note_on_c, 8, 72, 30
11, 33494, Note_on_c, 8, 72, 0
11, 33540, Note_on_c, 8, 72, 27
11, 33554, Note_on_c, 8, 72, 0
11, 33660, Note_on_c, 8, 72, 33
11, 33674, Note_on_c, 8, 72, 0
11, 33720, Note_on_c, 8, 72, 30
11, 33734, Note_on_c, 8, 72, 0
11, 33780, Note_on_c, 8, 72, 30
11, 33794, Note_on_c, 8, 72, 0
11, 33840, Note_on_c, 8, 70, 26
11, 33919, Note_on_c, 8, 70, 0
11, 33960, Note_on_c, 8, 65, 30
11, 34039, Note_on_c, 8, 65, 0
11, 34200, Note_on_c, 8, 65, 30
11, 34279, Note_on_c, 8, 65, 0
11, 34440, Note_on_c, 8, 65, 30
11, 34519, Note_on_c, 8, 65, 0
11, 34680, Note_on_c, 8, 65, 30
11, 34759, Note_on_c, 8, 65, 0
11, 34920, Note_on_c, 8, 70, 42
11, 35019, Note_on_c, 8, 70, 0
11, 35160, Note_on_c, 8, 69, 54
11, 35259, Note_on_c, 8, 69, 0
11, 35280, Note_on_c, 8, 68, 58
11, 35479, Note_on_c, 8, 68, 0
11, 36975, Control_c, 8, 0, 0
11, 36979, Control_c, 8, 32, 0
11, 36990, Program_c, 8, 49
11, 37440, Note_on_c, 8, 72, 44
11, 37479, Note_on_c, 8, 72, 0
11, 37560, Note_on_c, 8, 60, 44
11, 37599, Note_on_c, 8, 60, 0
11, 37680, Note_on_c, 8, 58, 44
11, 37739, Note_on_c, 8, 58, 0
11, 37920, Note_on_c, 8, 72, 44
11, 37959, Note_on_c, 8, 72, 0
11, 38040, Note_on_c, 8, 60, 44
11, 38079, Note_on_c, 8, 60, 0
11, 38160, Note_on_c, 8, 58, 44
11, 38219, Note_on_c, 8, 58, 0
11, 38460, Note_on_c, 8, 63, 44
11, 38513, Note_on_c, 8, 63, 0
11, 38580, Note_on_c, 8, 63, 44
11, 38633, Note_on_c, 8, 63, 0
11, 38700, Note_on_c, 8, 63, 44
11, 38753, Note_on_c, 8, 63, 0
11, 38820, Note_on_c, 8, 63, 44
11, 38873, Note_on_c, 8, 63, 0
11, 38940, Note_on_c, 8, 63, 44
11, 38993, Note_on_c, 8, 63, 0
11, 39060, Note_on_c, 8, 62, 44
11, 39113, Note_on_c, 8, 62, 0
11, 39120, Note_on_c, 8, 63, 44
11, 39179, Note_on_c, 8, 63, 0
11, 39360, Note_on_c, 8, 72, 44
11, 39399, Note_on_c, 8, 72, 0
11, 39480, Note_on_c, 8, 60, 44
11, 39519, Note_on_c, 8, 60, 0
11, 39600, Note_on_c, 8, 58, 44
11, 39659, Note_on_c, 8, 58, 0
11, 39840, Note_on_c, 8, 72, 44
11, 39879, Note_on_c, 8, 72, 0
11, 39960, Note_on_c, 8, 60, 44
11, 39999, Note_on_c, 8, 60, 0
11, 40080, Note_on_c, 8, 58, 44
11, 40139, Note_on_c, 8, 58, 0
11, 40380, Note_on_c, 8, 63, 44
11, 40428, Note_on_c, 8, 63, 0
11, 40500, Note_on_c, 8, 63, 44
11, 40548, Note_on_c, 8, 63, 0
11, 40620, Note_on_c, 8, 63, 44
11, 40668, Note_on_c, 8, 63, 0
11, 40740, Note_on_c, 8, 63, 44
11, 40788, Note_on_c, 8, 63, 0
11, 40860, Note_on_c, 8, 63, 44
11, 40908, Note_on_c, 8, 63, 0
11, 40980, Note_on_c, 8, 62, 44
11, 41028, Note_on_c, 8, 62, 0
11, 41040, Note_on_c, 8, 63, 44
11, 41059, Note_on_c, 8, 63, 0
11, 41100, Note_on_c, 8, 67, 44
11, 41119, Note_on_c, 8, 67, 0
11, 41160, Note_on_c, 8, 60, 44
11, 41179, Note_on_c, 8, 60, 0
11, 41220, Note_on_c, 8, 63, 44
11, 41239, Note_on_c, 8, 63, 0
11, 41280, Note_on_c, 8, 56, 44
11, 41299, Note_on_c, 8, 56, 0
11, 41340, Note_on_c, 8, 60, 44
11, 41359, Note_on_c, 8, 60, 0
11, 41400, Note_on_c, 8, 58, 44
11, 41419, Note_on_c, 8, 58, 0
11, 41460, Note_on_c, 8, 62, 44
11, 41479, Note_on_c, 8, 62, 0
11, 41520, Note_on_c, 8, 63, 44
11, 41539, Note_on_c, 8, 63, 0
11, 41580, Note_on_c, 8, 67, 44
11, 41599, Note_on_c, 8, 67, 0
11, 41640, Note_on_c, 8, 60, 44
11, 41659, Note_on_c, 8, 60, 0
11, 41700, Note_on_c, 8, 63, 44
11, 41719, Note_on_c, 8, 63, 0
11, 41760, Note_on_c, 8, 56, 44
11, 41779, Note_on_c, 8, 56, 0
11, 41820, Note_on_c, 8, 60, 44
11, 41839, Note_on_c, 8, 60, 0
11, 41880, Note_on_c, 8, 58, 44
11, 41899, Note_on_c, 8, 58, 0
11, 41940, Note_on_c, 8, 62, 44
11, 41959, Note_on_c, 8, 62, 0
11, 42000, Note_on_c, 8, 63, 44
11, 42019, Note_on_c, 8, 63, 0
11, 42060, Note_on_c, 8, 67, 44
11, 42079, Note_on_c, 8, 67, 0
11, 42120, Note_on_c, 8, 60, 44
11, 42139, Note_on_c, 8, 60, 0
11, 42180, Note_on_c, 8, 63, 44
11, 42199, Note_on_c, 8, 63, 0
11, 42240, Note_on_c, 8, 56, 44
11, 42259, Note_on_c, 8, 56, 0
11, 42300, Note_on_c, 8, 60, 44
11, 42319, Note_on_c, 8, 60, 0
11, 42360, Note_on_c, 8, 58, 44
11, 42379, Note_on_c, 8, 58, 0
11, 42420, Note_on_c, 8, 58, 44
11, 42439, Note_on_c, 8, 58, 0
11, 42480, Note_on_c, 8, 63, 44
11, 42499, Note_on_c, 8, 63, 0
11, 42540, Note_on_c, 8, 67, 44
11, 42559, Note_on_c, 8, 67, 0
11, 42600, Note_on_c, 8, 70, 44
11, 42619, Note_on_c, 8, 70, 0
11, 42660, Note_on_c, 8, 67, 44
11, 42679, Note_on_c, 8, 67, 0
11, 42720, Note_on_c, 8, 63, 44
11, 42799, Note_on_c, 8, 63, 0
11, 42799, End_track
12, 0, Start_track
12, 0, MIDI_port, 0
12, 0, Title_t, "Violin II"
12, 20, Control_c, 10, 121, 0
12, 21, Control_c, 10, 11, 127
12, 21, Control_c, 10, 7, 127
12, 22, Control_c, 10, 93, 10
12, 22, Control_c, 10, 91, 79
12, 25, Control_c, 10, 10, 54
12, 26, Pitch_bend_c, 10, 8192
12, 27, Control_c, 10, 0, 1
12, 28, Control_c, 10, 32, 0
12, 29, Program_c, 10, 48
12, 2400, Note_on_c, 10, 67, 26
12, 2459, Note_on_c, 10, 67, 0
12, 2460, Note_on_c, 10, 63, 26
12, 2519, Note_on_c, 10, 63, 0
12, 2520, Note_on_c, 10, 67, 26
12, 2579, Note_on_c, 10, 67, 0
12, 2580, Note_on_c, 10, 63, 26
12, 2639, Note_on_c, 10, 63, 0
12, 2640, Note_on_c, 10, 67, 26
12, 2699, Note_on_c, 10, 67, 0
12, 2700, Note_on_c, 10, 63, 26
12, 2759, Note_on_c, 10, 63, 0
12, 2760, Note_on_c, 10, 67, 26
12, 2819, Note_on_c, 10, 67, 0
12, 2820, Note_on_c, 10, 63, 26
12, 2879, Note_on_c, 10, 63, 0
12, 3360, Note_on_c, 10, 67, 26
12, 3419, Note_on_c, 10, 67, 0
12, 3420, Note_on_c, 10, 70, 26
12, 3479, Note_on_c, 10, 70, 0
12, 3480, Note_on_c, 10, 67, 26
12, 3539, Note_on_c, 10, 67, 0
12, 3540, Note_on_c, 10, 70, 26
12, 3599, Note_on_c, 10, 70, 0
12, 3600, Note_on_c, 10, 67, 26
12, 3659, Note_on_c, 10, 67, 0
12, 3660, Note_on_c, 10, 70, 26
12, 3719, Note_on_c, 10, 70, 0
12, 3720, Note_on_c, 10, 67, 26
12, 3779, Note_on_c, 10, 67, 0
12, 3780, Note_on_c, 10, 70, 26
12, 3819, Note_on_c, 10, 70, 0
12, 4380, Note_on_c, 10, 62, 25
12, 4394, Note_on_c, 10, 62, 0
12, 4440, Note_on_c, 10, 62, 22
12, 4454, Note_on_c, 10, 62, 0
12, 4500, Note_on_c, 10, 62, 22
12, 4514, Note_on_c, 10, 62, 0
12, 4620, Note_on_c, 10, 63, 25
12, 4634, Note_on_c, 10, 63, 0
12, 4680, Note_on_c, 10, 63, 22
12, 4694, Note_on_c, 10, 63, 0
12, 4740, Note_on_c, 10, 63, 22
12, 4754, Note_on_c, 10, 63, 0
12, 4860, Note_on_c, 10, 63, 25
12, 4874, Note_on_c, 10, 63, 0
12, 4920, Note_on_c, 10, 63, 22
12, 4979, Note_on_c, 10, 63, 0
12, 4980, Note_on_c, 10, 64, 22
12, 4994, Note_on_c, 10, 64, 0
12, 5100, Note_on_c, 10, 65, 25
12, 5114, Note_on_c, 10, 65, 0
12, 5160, Note_on_c, 10, 65, 22
12, 5174, Note_on_c, 10, 65, 0
12, 5220, Note_on_c, 10, 65, 22
12, 5234, Note_on_c, 10, 65, 0
12, 5340, Note_on_c, 10, 62, 25
12, 5340, Note_on_c, 10, 65, 25
12, 5354, Note_on_c, 10, 65, 0
12, 5354, Note_on_c, 10, 62, 0
12, 5400, Note_on_c, 10, 62, 22
12, 5400, Note_on_c, 10, 65, 22
12, 5414, Note_on_c, 10, 65, 0
12, 5414, Note_on_c, 10, 62, 0
12, 5460, Note_on_c, 10, 62, 22
12, 5460, Note_on_c, 10, 65, 22
12, 5474, Note_on_c, 10, 65, 0
12, 5474, Note_on_c, 10, 62, 0
12, 5580, Note_on_c, 10, 63, 25
12, 5639, Note_on_c, 10, 63, 0
12, 5640, Note_on_c, 10, 67, 22
12, 5654, Note_on_c, 10, 67, 0
12, 5700, Note_on_c, 10, 67, 22
12, 5714, Note_on_c, 10, 67, 0
12, 5820, Note_on_c, 10, 65, 25
12, 5834, Note_on_c, 10, 65, 0
12, 5880, Note_on_c, 10, 65, 22
12, 5894, Note_on_c, 10, 65, 0
12, 5940, Note_on_c, 10, 65, 22
12, 5954, Note_on_c, 10, 65, 0
12, 6000, Note_on_c, 10, 65, 22
12, 6079, Note_on_c, 10, 65, 0
12, 6120, Note_on_c, 10, 62, 22
12, 6199, Note_on_c, 10, 62, 0
12, 6360, Note_on_c, 10, 63, 22
12, 6439, Note_on_c, 10, 63, 0
12, 6600, Note_on_c, 10, 62, 22
12, 6679, Note_on_c, 10, 62, 0
12, 6840, Note_on_c, 10, 63, 22
12, 6919, Note_on_c, 10, 63, 0
12, 7080, Note_on_c, 10, 62, 22
12, 7179, Note_on_c, 10, 62, 0
12, 7320, Note_on_c, 10, 63, 31
12, 7419, Note_on_c, 10, 63, 0
12, 7440, Note_on_c, 10, 65, 40
12, 7639, Note_on_c, 10, 65, 0
12, 11392, Control_c, 10, 73, 54
12, 11400, Control_c, 10, 74, 74
12, 11402, Control_c, 10, 0, 0
12, 11404, Control_c, 10, 32, 0
12, 11406, Program_c, 10, 49
12, 11520, Note_on_c, 10, 67, 23
12, 11759, Note_on_c, 10, 67, 0
12, 11760, Note_on_c, 10, 68, 23
12, 11879, Note_on_c, 10, 68, 0
12, 11880, Note_on_c, 10, 67, 23
12, 12059, Note_on_c, 10, 67, 0
12, 12060, Note_on_c, 10, 63, 23
12, 12119, Note_on_c, 10, 63, 0
12, 12120, Note_on_c, 10, 62, 23
12, 12179, Note_on_c, 10, 62, 0
12, 12180, Note_on_c, 10, 60, 23
12, 12229, Note_on_c, 10, 60, 0
12, 12240, Note_on_c, 10, 60, 23
12, 12299, Note_on_c, 10, 60, 0
12, 12300, Note_on_c, 10, 59, 23
12, 12349, Note_on_c, 10, 59, 0
12, 12360, Note_on_c, 10, 59, 21
12, 12409, Note_on_c, 10, 59, 0
12, 12510, Note_on_c, 10, 66, 23
12, 12529, Note_on_c, 10, 66, 0
12, 12540, Note_on_c, 10, 66, 23
12, 12559, Note_on_c, 10, 66, 0
12, 12570, Note_on_c, 10, 66, 23
12, 12589, Note_on_c, 10, 66, 0
12, 12600, Note_on_c, 10, 66, 23
12, 12719, Note_on_c, 10, 66, 0
12, 12750, Note_on_c, 10, 67, 23
12, 12769, Note_on_c, 10, 67, 0
12, 12780, Note_on_c, 10, 67, 23
12, 12799, Note_on_c, 10, 67, 0
12, 12810, Note_on_c, 10, 67, 23
12, 12829, Note_on_c, 10, 67, 0
12, 12840, Note_on_c, 10, 67, 23
12, 12959, Note_on_c, 10, 67, 0
12, 12990, Note_on_c, 10, 67, 23
12, 13009, Note_on_c, 10, 67, 0
12, 13050, Note_on_c, 10, 69, 23
12, 13069, Note_on_c, 10, 69, 0
12, 13110, Note_on_c, 10, 67, 23
12, 13129, Note_on_c, 10, 67, 0
12, 13170, Note_on_c, 10, 66, 23
12, 13189, Note_on_c, 10, 66, 0
12, 13200, Note_on_c, 10, 66, 23
12, 13319, Note_on_c, 10, 66, 0
12, 13320, Note_on_c, 10, 67, 21
12, 13379, Note_on_c, 10, 67, 0
12, 15360, Note_on_c, 10, 63, 26
12, 15719, Note_on_c, 10, 63, 0
12, 15720, Note_on_c, 10, 62, 26
12, 15749, Note_on_c, 10, 62, 0
12, 15750, Note_on_c, 10, 65, 26
12, 15779, Note_on_c, 10, 65, 0
12, 15780, Note_on_c, 10, 63, 26
12, 15809, Note_on_c, 10, 63, 0
12, 15810, Note_on_c, 10, 62, 26
12, 15839, Note_on_c, 10, 62, 0
12, 15840, Note_on_c, 10, 60, 23
12, 16199, Note_on_c, 10, 60, 0
12, 16200, Note_on_c, 10, 59, 23
12, 16229, Note_on_c, 10, 59, 0
12, 16230, Note_on_c, 10, 62, 23
12, 16259, Note_on_c, 10, 62, 0
12, 16260, Note_on_c, 10, 63, 23
12, 16289, Note_on_c, 10, 63, 0
12, 16290, Note_on_c, 10, 62, 23
12, 16319, Note_on_c, 10, 62, 0
12, 16320, Control_c, 10, 73, 54
12, 16350, Note_on_c, 10, 59, 25
12, 16369, Note_on_c, 10, 59, 0
12, 16380, Note_on_c, 10, 59, 25
12, 16399, Note_on_c, 10, 59, 0
12, 16410, Note_on_c, 10, 59, 25
12, 16429, Note_on_c, 10, 59, 0
12, 16440, Note_on_c, 10, 59, 26
12, 16559, Note_on_c, 10, 59, 0
12, 16590, Note_on_c, 10, 60, 28
12, 16609, Note_on_c, 10, 60, 0
12, 16620, Note_on_c, 10, 60, 28
12, 16639, Note_on_c, 10, 60, 0
12, 16650, Note_on_c, 10, 60, 28
12, 16669, Note_on_c, 10, 60, 0
12, 16680, Note_on_c, 10, 60, 29
12, 16799, Note_on_c, 10, 60, 0
12, 16830, Note_on_c, 10, 60, 27
12, 16849, Note_on_c, 10, 60, 0
12, 16890, Note_on_c, 10, 60, 27
12, 16909, Note_on_c, 10, 60, 0
12, 16950, Note_on_c, 10, 62, 27
12, 16969, Note_on_c, 10, 62, 0
12, 17010, Note_on_c, 10, 59, 27
12, 17029, Note_on_c, 10, 59, 0
12, 17040, Note_on_c, 10, 59, 27
12, 17159, Note_on_c, 10, 59, 0
12, 22310, Control_c, 10, 7, 94
12, 22312, Control_c, 10, 74, 64
12, 22314, Control_c, 10, 73, 64
12, 22316, Control_c, 10, 0, 1
12, 22318, Control_c, 10, 32, 0
12, 22320, Program_c, 10, 48
12, 22440, Note_on_c, 10, 60, 25
12, 22469, Note_on_c, 10, 60, 0
12, 22470, Note_on_c, 10, 58, 25
12, 22489, Note_on_c, 10, 58, 0
12, 22500, Note_on_c, 10, 58, 25
12, 22529, Note_on_c, 10, 58, 0
12, 22530, Note_on_c, 10, 56, 25
12, 22549, Note_on_c, 10, 56, 0
12, 22560, Note_on_c, 10, 56, 25
12, 22619, Note_on_c, 10, 56, 0
12, 22680, Note_on_c, 10, 61, 25
12, 22709, Note_on_c, 10, 61, 0
12, 22710, Note_on_c, 10, 60, 25
12, 22729, Note_on_c, 10, 60, 0
12, 22740, Note_on_c, 10, 60, 25
12, 22769, Note_on_c, 10, 60, 0
12, 22770, Note_on_c, 10, 58, 25
12, 22789, Note_on_c, 10, 58, 0
12, 22800, Note_on_c, 10, 58, 25
12, 23279, Note_on_c, 10, 58, 0
12, 23280, Note_on_c, 10, 55, 25
12, 23309, Note_on_c, 10, 55, 0
12, 23310, Note_on_c, 10, 56, 25
12, 23339, Note_on_c, 10, 56, 0
12, 23340, Note_on_c, 10, 56, 25
12, 23399, Note_on_c, 10, 56, 0
12, 23400, Note_on_c, 10, 58, 33
12, 23429, Note_on_c, 10, 58, 0
12, 23430, Note_on_c, 10, 60, 33
12, 23459, Note_on_c, 10, 60, 0
12, 23460, Note_on_c, 10, 62, 33
12, 23489, Note_on_c, 10, 62, 0
12, 23490, Note_on_c, 10, 63, 33
12, 23519, Note_on_c, 10, 63, 0
12, 23520, Note_on_c, 10, 62, 25
12, 23579, Note_on_c, 10, 62, 0
12, 23640, Note_on_c, 10, 58, 33
12, 23669, Note_on_c, 10, 58, 0
12, 23670, Note_on_c, 10, 60, 33
12, 23699, Note_on_c, 10, 60, 0
12, 23700, Note_on_c, 10, 62, 33
12, 23729, Note_on_c, 10, 62, 0
12, 23730, Note_on_c, 10, 63, 33
12, 23759, Note_on_c, 10, 63, 0
12, 23760, Note_on_c, 10, 62, 25
12, 23819, Note_on_c, 10, 62, 0
12, 23880, Note_on_c, 10, 58, 25
12, 23909, Note_on_c, 10, 58, 0
12, 23910, Note_on_c, 10, 62, 30
12, 23939, Note_on_c, 10, 62, 0
12, 23940, Note_on_c, 10, 63, 30
12, 23969, Note_on_c, 10, 63, 0
12, 23970, Note_on_c, 10, 65, 30
12, 23999, Note_on_c, 10, 65, 0
12, 24000, Note_on_c, 10, 67, 26
12, 24059, Note_on_c, 10, 67, 0
12, 24060, Note_on_c, 10, 65, 26
12, 24119, Note_on_c, 10, 65, 0
12, 24120, Note_on_c, 10, 63, 26
12, 24179, Note_on_c, 10, 63, 0
12, 24180, Note_on_c, 10, 62, 26
12, 24239, Note_on_c, 10, 62, 0
12, 26280, Note_on_c, 10, 60, 44
12, 26309, Note_on_c, 10, 60, 0
12, 26310, Note_on_c, 10, 58, 44
12, 26324, Note_on_c, 10, 58, 0
12, 26340, Note_on_c, 10, 58, 44
12, 26369, Note_on_c, 10, 58, 0
12, 26370, Note_on_c, 10, 57, 44
12, 26384, Note_on_c, 10, 57, 0
12, 26400, Note_on_c, 10, 57, 44
12, 26489, Note_on_c, 10, 57, 0
12, 26520, Note_on_c, 10, 60, 44
12, 26669, Note_on_c, 10, 60, 0
12, 26670, Note_on_c, 10, 58, 44
12, 26684, Note_on_c, 10, 58, 0
12, 26700, Note_on_c, 10, 58, 44
12, 26789, Note_on_c, 10, 58, 0
12, 26790, Note_on_c, 10, 60, 44
12, 26819, Note_on_c, 10, 60, 0
12, 26820, Note_on_c, 10, 61, 44
12, 26849, Note_on_c, 10, 61, 0
12, 26850, Note_on_c, 10, 58, 44
12, 26879, Note_on_c, 10, 58, 0
12, 26880, Note_on_c, 10, 63, 44
12, 26999, Note_on_c, 10, 63, 0
12, 27030, Note_on_c, 10, 61, 44
12, 27059, Note_on_c, 10, 61, 0
12, 27060, Note_on_c, 10, 60, 44
12, 27089, Note_on_c, 10, 60, 0
12, 27090, Note_on_c, 10, 58, 39
12, 27119, Note_on_c, 10, 58, 0
12, 27120, Note_on_c, 10, 56, 35
12, 27179, Note_on_c, 10, 56, 0
12, 27180, Note_on_c, 10, 55, 29
12, 27224, Note_on_c, 10, 55, 0
12, 27240, Note_on_c, 10, 63, 44
12, 27269, Note_on_c, 10, 63, 0
12, 27270, Note_on_c, 10, 60, 44
12, 27299, Note_on_c, 10, 60, 0
12, 27300, Note_on_c, 10, 58, 44
12, 27329, Note_on_c, 10, 58, 0
12, 27330, Note_on_c, 10, 56, 44
12, 27359, Note_on_c, 10, 56, 0
12, 27360, Note_on_c, 10, 55, 44
12, 27464, Note_on_c, 10, 55, 0
12, 27480, Note_on_c, 10, 63, 44
12, 27509, Note_on_c, 10, 63, 0
12, 27510, Note_on_c, 10, 60, 44
12, 27539, Note_on_c, 10, 60, 0
12, 27540, Note_on_c, 10, 58, 44
12, 27569, Note_on_c, 10, 58, 0
12, 27570, Note_on_c, 10, 56, 44
12, 27599, Note_on_c, 10, 56, 0
12, 27600, Note_on_c, 10, 55, 44
12, 27689, Note_on_c, 10, 55, 0
12, 27720, Note_on_c, 10, 57, 44
12, 27749, Note_on_c, 10, 57, 0
12, 27750, Note_on_c, 10, 66, 44
12, 27779, Note_on_c, 10, 66, 0
12, 27810, Note_on_c, 10, 66, 44
12, 27839, Note_on_c, 10, 66, 0
12, 27840, Note_on_c, 10, 65, 44
12, 27869, Note_on_c, 10, 65, 0
12, 27870, Note_on_c, 10, 77, 44
12, 27899, Note_on_c, 10, 77, 0
12, 27900, Note_on_c, 10, 75, 44
12, 27929, Note_on_c, 10, 75, 0
12, 27930, Note_on_c, 10, 73, 44
12, 27959, Note_on_c, 10, 73, 0
12, 27960, Note_on_c, 10, 72, 44
12, 27989, Note_on_c, 10, 72, 0
12, 27990, Note_on_c, 10, 68, 44
12, 28009, Note_on_c, 10, 68, 0
12, 28020, Note_on_c, 10, 70, 44
12, 28049, Note_on_c, 10, 70, 0
12, 28050, Note_on_c, 10, 67, 39
12, 28069, Note_on_c, 10, 67, 0
12, 28200, Note_on_c, 10, 68, 27
12, 28229, Note_on_c, 10, 68, 0
12, 28230, Note_on_c, 10, 67, 28
12, 28249, Note_on_c, 10, 67, 0
12, 28260, Note_on_c, 10, 67, 29
12, 28289, Note_on_c, 10, 67, 0
12, 28290, Note_on_c, 10, 65, 31
12, 28314, Note_on_c, 10, 65, 0
12, 28320, Note_on_c, 10, 64, 32
12, 28424, Note_on_c, 10, 64, 0
12, 28440, Note_on_c, 10, 68, 34
12, 28469, Note_on_c, 10, 68, 0
12, 28470, Note_on_c, 10, 67, 32
12, 28499, Note_on_c, 10, 67, 0
12, 28500, Note_on_c, 10, 65, 30
12, 28529, Note_on_c, 10, 65, 0
12, 28530, Note_on_c, 10, 63, 28
12, 28559, Note_on_c, 10, 63, 0
12, 28560, Note_on_c, 10, 62, 26
12, 28649, Note_on_c, 10, 62, 0
12, 28680, Note_on_c, 10, 63, 44
12, 28709, Note_on_c, 10, 63, 0
12, 28710, Note_on_c, 10, 62, 44
12, 28734, Note_on_c, 10, 62, 0
12, 28740, Note_on_c, 10, 62, 44
12, 28769, Note_on_c, 10, 62, 0
12, 28770, Note_on_c, 10, 63, 44
12, 28794, Note_on_c, 10, 63, 0
12, 28800, Note_on_c, 10, 63, 44
12, 28829, Note_on_c, 10, 63, 0
12, 28830, Note_on_c, 10, 58, 43
12, 28854, Note_on_c, 10, 58, 0
12, 28860, Note_on_c, 10, 58, 41
12, 28979, Note_on_c, 10, 58, 0
12, 28980, Note_on_c, 10, 57, 36
12, 29039, Note_on_c, 10, 57, 0
12, 29040, Note_on_c, 10, 58, 34
12, 29069, Note_on_c, 10, 58, 0
12, 29160, Note_on_c, 10, 65, 35
12, 29189, Note_on_c, 10, 65, 0
12, 29280, Note_on_c, 10, 67, 35
12, 29309, Note_on_c, 10, 67, 0
12, 29400, Note_on_c, 10, 72, 36
12, 29429, Note_on_c, 10, 72, 0
12, 29520, Note_on_c, 10, 65, 37
12, 29549, Note_on_c, 10, 65, 0
12, 29640, Note_on_c, 10, 70, 38
12, 29669, Note_on_c, 10, 70, 0
12, 32220, Note_on_c, 10, 62, 30
12, 32234, Note_on_c, 10, 62, 0
12, 32280, Note_on_c, 10, 62, 26
12, 32294, Note_on_c, 10, 62, 0
12, 32340, Note_on_c, 10, 62, 26
12, 32354, Note_on_c, 10, 62, 0
12, 32460, Note_on_c, 10, 63, 30
12, 32474, Note_on_c, 10, 63, 0
12, 32520, Note_on_c, 10, 63, 26
12, 32534, Note_on_c, 10, 63, 0
12, 32580, Note_on_c, 10, 63, 26
12, 32594, Note_on_c, 10, 63, 0
12, 32700, Note_on_c, 10, 63, 30
12, 32714, Note_on_c, 10, 63, 0
12, 32760, Note_on_c, 10, 63, 26
12, 32819, Note_on_c, 10, 63, 0
12, 32820, Note_on_c, 10, 64, 26
12, 32834, Note_on_c, 10, 64, 0
12, 32940, Note_on_c, 10, 65, 30
12, 32954, Note_on_c, 10, 65, 0
12, 33000, Note_on_c, 10, 65, 26
12, 33014, Note_on_c, 10, 65, 0
12, 33060, Note_on_c, 10, 65, 26
12, 33074, Note_on_c, 10, 65, 0
12, 33180, Note_on_c, 10, 62, 30
12, 33180, Note_on_c, 10, 65, 30
12, 33194, Note_on_c, 10, 65, 0
12, 33194, Note_on_c, 10, 62, 0
12, 33240, Note_on_c, 10, 62, 26
12, 33240, Note_on_c, 10, 65, 26
12, 33254, Note_on_c, 10, 65, 0
12, 33254, Note_on_c, 10, 62, 0
12, 33300, Note_on_c, 10, 62, 26
12, 33300, Note_on_c, 10, 65, 26
12, 33314, Note_on_c, 10, 65, 0
12, 33314, Note_on_c, 10, 62, 0
12, 33420, Note_on_c, 10, 63, 30
12, 33479, Note_on_c, 10, 63, 0
12, 33480, Note_on_c, 10, 67, 26
12, 33494, Note_on_c, 10, 67, 0
12, 33540, Note_on_c, 10, 67, 26
12, 33554, Note_on_c, 10, 67, 0
12, 33660, Note_on_c, 10, 65, 30
12, 33674, Note_on_c, 10, 65, 0
12, 33720, Note_on_c, 10, 65, 26
12, 33734, Note_on_c, 10, 65, 0
12, 33780, Note_on_c, 10, 65, 26
12, 33794, Note_on_c, 10, 65, 0
12, 33840, Note_on_c, 10, 65, 26
12, 33919, Note_on_c, 10, 65, 0
12, 33960, Note_on_c, 10, 62, 26
12, 34039, Note_on_c, 10, 62, 0
12, 34200, Note_on_c, 10, 63, 26
12, 34279, Note_on_c, 10, 63, 0
12, 34440, Note_on_c, 10, 62, 26
12, 34519, Note_on_c, 10, 62, 0
12, 34680, Note_on_c, 10, 63, 26
12, 34759, Note_on_c, 10, 63, 0
12, 34920, Note_on_c, 10, 62, 26
12, 35019, Note_on_c, 10, 62, 0
12, 35160, Note_on_c, 10, 63, 37
12, 35259, Note_on_c, 10, 63, 0
12, 35280, Note_on_c, 10, 65, 48
12, 35479, Note_on_c, 10, 65, 0
12, 36975, Control_c, 10, 0, 0
12, 36979, Control_c, 10, 32, 0
12, 36990, Program_c, 10, 49
12, 37440, Note_on_c, 10, 68, 33
12, 37479, Note_on_c, 10, 68, 0
12, 37560, Note_on_c, 10, 56, 33
12, 37599, Note_on_c, 10, 56, 0
12, 37680, Note_on_c, 10, 55, 33
12, 37739, Note_on_c, 10, 55, 0
12, 37920, Note_on_c, 10, 68, 33
12, 37959, Note_on_c, 10, 68, 0
12, 38040, Note_on_c, 10, 56, 33
12, 38079, Note_on_c, 10, 56, 0
12, 38160, Note_on_c, 10, 55, 33
12, 38219, Note_on_c, 10, 55, 0
12, 38460, Note_on_c, 10, 58, 33
12, 38513, Note_on_c, 10, 58, 0
12, 38580, Note_on_c, 10, 58, 33
12, 38633, Note_on_c, 10, 58, 0
12, 38700, Note_on_c, 10, 60, 33
12, 38753, Note_on_c, 10, 60, 0
12, 38820, Note_on_c, 10, 60, 33
12, 38873, Note_on_c, 10, 60, 0
12, 38940, Note_on_c, 10, 58, 33
12, 38993, Note_on_c, 10, 58, 0
12, 39060, Note_on_c, 10, 58, 33
12, 39113, Note_on_c, 10, 58, 0
12, 39120, Note_on_c, 10, 58, 33
12, 39179, Note_on_c, 10, 58, 0
12, 39360, Note_on_c, 10, 68, 33
12, 39399, Note_on_c, 10, 68, 0
12, 39480, Note_on_c, 10, 56, 33
12, 39519, Note_on_c, 10, 56, 0
12, 39600, Note_on_c, 10, 55, 33
12, 39659, Note_on_c, 10, 55, 0
12, 39840, Note_on_c, 10, 68, 33
12, 39879, Note_on_c, 10, 68, 0
12, 39960, Note_on_c, 10, 56, 33
12, 39999, Note_on_c, 10, 56, 0
12, 40080, Note_on_c, 10, 55, 33
12, 40139, Note_on_c, 10, 55, 0
12, 40380, Note_on_c, 10, 58, 33
12, 40428, Note_on_c, 10, 58, 0
12, 40500, Note_on_c, 10, 58, 33
12, 40548, Note_on_c, 10, 58, 0
12, 40620, Note_on_c, 10, 60, 33
12, 40668, Note_on_c, 10, 60, 0
12, 40740, Note_on_c, 10, 60, 33
12, 40788, Note_on_c, 10, 60, 0
12, 40860, Note_on_c, 10, 58, 33
12, 40908, Note_on_c, 10, 58, 0
12, 40980, Note_on_c, 10, 58, 33
12, 41028, Note_on_c, 10, 58, 0
12, 41028, End_track
13, 0, Start_track
13, 0, MIDI_port, 0
13, 0, Title_t, "Viola"
13, 20, Control_c, 11, 121, 0
13, 21, Control_c, 11, 11, 127
13, 21, Control_c, 11, 7, 127
13, 22, Control_c, 11, 93, 10
13, 22, Control_c, 11, 91, 79
13, 25, Control_c, 11, 10, 64
13, 26, Pitch_bend_c, 11, 8192
13, 27, Control_c, 11, 0, 1
13, 28, Control_c, 11, 32, 0
13, 29, Program_c, 11, 48
13, 2400, Note_on_c, 11, 55, 26
13, 2459, Note_on_c, 11, 55, 0
13, 2460, Note_on_c, 11, 51, 26
13, 2519, Note_on_c, 11, 51, 0
13, 2520, Note_on_c, 11, 55, 26
13, 2579, Note_on_c, 11, 55, 0
13, 2580, Note_on_c, 11, 51, 26
13, 2639, Note_on_c, 11, 51, 0
13, 2640, Note_on_c, 11, 55, 26
13, 2699, Note_on_c, 11, 55, 0
13, 2700, Note_on_c, 11, 51, 26
13, 2759, Note_on_c, 11, 51, 0
13, 2760, Note_on_c, 11, 55, 26
13, 2819, Note_on_c, 11, 55, 0
13, 2820, Note_on_c, 11, 51, 26
13, 2879, Note_on_c, 11, 51, 0
13, 3360, Note_on_c, 11, 55, 26
13, 3419, Note_on_c, 11, 55, 0
13, 3420, Note_on_c, 11, 58, 26
13, 3479, Note_on_c, 11, 58, 0
13, 3480, Note_on_c, 11, 55, 26
13, 3539, Note_on_c, 11, 55, 0
13, 3540, Note_on_c, 11, 58, 26
13, 3599, Note_on_c, 11, 58, 0
13, 3600, Note_on_c, 11, 55, 26
13, 3659, Note_on_c, 11, 55, 0
13, 3660, Note_on_c, 11, 58, 26
13, 3719, Note_on_c, 11, 58, 0
13, 3720, Note_on_c, 11, 55, 26
13, 3779, Note_on_c, 11, 55, 0
13, 3780, Note_on_c, 11, 58, 26
13, 3819, Note_on_c, 11, 58, 0
13, 4380, Note_on_c, 11, 58, 25
13, 4394, Note_on_c, 11, 58, 0
13, 4440, Note_on_c, 11, 58, 22
13, 4454, Note_on_c, 11, 58, 0
13, 4500, Note_on_c, 11, 58, 22
13, 4514, Note_on_c, 11, 58, 0
13, 4620, Note_on_c, 11, 58, 25
13, 4634, Note_on_c, 11, 58, 0
13, 4680, Note_on_c, 11, 58, 22
13, 4694, Note_on_c, 11, 58, 0
13, 4740, Note_on_c, 11, 58, 22
13, 4754, Note_on_c, 11, 58, 0
13, 4860, Note_on_c, 11, 58, 25
13, 4874, Note_on_c, 11, 58, 0
13, 4920, Note_on_c, 11, 58, 22
13, 4934, Note_on_c, 11, 58, 0
13, 4980, Note_on_c, 11, 58, 22
13, 4994, Note_on_c, 11, 58, 0
13, 5100, Note_on_c, 11, 58, 25
13, 5114, Note_on_c, 11, 58, 0
13, 5160, Note_on_c, 11, 58, 22
13, 5174, Note_on_c, 11, 58, 0
13, 5220, Note_on_c, 11, 58, 22
13, 5234, Note_on_c, 11, 58, 0
13, 5340, Note_on_c, 11, 58, 22
13, 5354, Note_on_c, 11, 58, 0
13, 5400, Note_on_c, 11, 58, 22
13, 5414, Note_on_c, 11, 58, 0
13, 5460, Note_on_c, 11, 58, 22
13, 5474, Note_on_c, 11, 58, 0
13, 5580, Note_on_c, 11, 58, 25
13, 5639, Note_on_c, 11, 58, 0
13, 5640, Note_on_c, 11, 63, 22
13, 5654, Note_on_c, 11, 63, 0
13, 5700, Note_on_c, 11, 63, 22
13, 5714, Note_on_c, 11, 63, 0
13, 5820, Note_on_c, 11, 63, 25
13, 5834, Note_on_c, 11, 63, 0
13, 5880, Note_on_c, 11, 63, 22
13, 5894, Note_on_c, 11, 63, 0
13, 5940, Note_on_c, 11, 63, 22
13, 5954, Note_on_c, 11, 63, 0
13, 6000, Note_on_c, 11, 62, 22
13, 6079, Note_on_c, 11, 62, 0
13, 6120, Note_on_c, 11, 58, 22
13, 6199, Note_on_c, 11, 58, 0
13, 6360, Note_on_c, 11, 60, 22
13, 6439, Note_on_c, 11, 60, 0
13, 6600, Note_on_c, 11, 58, 22
13, 6679, Note_on_c, 11, 58, 0
13, 6840, Note_on_c, 11, 60, 22
13, 6919, Note_on_c, 11, 60, 0
13, 7080, Note_on_c, 11, 58, 22
13, 7179, Note_on_c, 11, 58, 0
13, 7320, Note_on_c, 11, 60, 30
13, 7419, Note_on_c, 11, 60, 0
13, 7440, Note_on_c, 11, 62, 40
13, 7639, Note_on_c, 11, 62, 0
13, 11392, Control_c, 11, 73, 54
13, 11400, Control_c, 11, 74, 74
13, 11402, Control_c, 11, 0, 0
13, 11404, Control_c, 11, 32, 0
13, 11406, Program_c, 11, 49
13, 11520, Note_on_c, 11, 63, 23
13, 11759, Note_on_c, 11, 63, 0
13, 11760, Note_on_c, 11, 65, 23
13, 11879, Note_on_c, 11, 65, 0
13, 11880, Note_on_c, 11, 62, 23
13, 11999, Note_on_c, 11, 62, 0
13, 12000, Note_on_c, 11, 63, 23
13, 12059, Note_on_c, 11, 63, 0
13, 12060, Note_on_c, 11, 55, 23
13, 12119, Note_on_c, 11, 55, 0
13, 12120, Note_on_c, 11, 56, 23
13, 12179, Note_on_c, 11, 56, 0
13, 12180, Note_on_c, 11, 57, 23
13, 12239, Note_on_c, 11, 57, 0
13, 12240, Note_on_c, 11, 55, 23
13, 12299, Note_on_c, 11, 55, 0
13, 12300, Note_on_c, 11, 55, 23
13, 12349, Note_on_c, 11, 55, 0
13, 12360, Note_on_c, 11, 55, 21
13, 12409, Note_on_c, 11, 55, 0
13, 12510, Note_on_c, 11, 57, 23
13, 12529, Note_on_c, 11, 57, 0
13, 12540, Note_on_c, 11, 57, 23
13, 12559, Note_on_c, 11, 57, 0
13, 12570, Note_on_c, 11, 57, 23
13, 12589, Note_on_c, 11, 57, 0
13, 12600, Note_on_c, 11, 57, 23
13, 12719, Note_on_c, 11, 57, 0
13, 12750, Note_on_c, 11, 58, 23
13, 12769, Note_on_c, 11, 58, 0
13, 12780, Note_on_c, 11, 58, 23
13, 12799, Note_on_c, 11, 58, 0
13, 12810, Note_on_c, 11, 58, 23
13, 12829, Note_on_c, 11, 58, 0
13, 12840, Note_on_c, 11, 58, 23
13, 12959, Note_on_c, 11, 58, 0
13, 12990, Note_on_c, 11, 57, 23
13, 13009, Note_on_c, 11, 57, 0
13, 13050, Note_on_c, 11, 63, 23
13, 13069, Note_on_c, 11, 63, 0
13, 13110, Note_on_c, 11, 62, 23
13, 13129, Note_on_c, 11, 62, 0
13, 13170, Note_on_c, 11, 60, 23
13, 13189, Note_on_c, 11, 60, 0
13, 13200, Note_on_c, 11, 60, 23
13, 13319, Note_on_c, 11, 60, 0
13, 13320, Note_on_c, 11, 58, 21
13, 13379, Note_on_c, 11, 58, 0
13, 15360, Note_on_c, 11, 58, 26
13, 15779, Note_on_c, 11, 58, 0
13, 15780, Note_on_c, 11, 55, 26
13, 15839, Note_on_c, 11, 55, 0
13, 15840, Note_on_c, 11, 55, 23
13, 16230, Note_on_c, 11, 59, 23
13, 16259, Note_on_c, 11, 59, 0
13, 16259, Note_on_c, 11, 55, 0
13, 16260, Note_on_c, 11, 60, 23
13, 16289, Note_on_c, 11, 60, 0
13, 16290, Note_on_c, 11, 59, 23
13, 16319, Note_on_c, 11, 59, 0
13, 16320, Control_c, 11, 73, 54
13, 16350, Note_on_c, 11, 50, 25
13, 16369, Note_on_c, 11, 50, 0
13, 16380, Note_on_c, 11, 50, 25
13, 16399, Note_on_c, 11, 50, 0
13, 16410, Note_on_c, 11, 50, 25
13, 16429, Note_on_c, 11, 50, 0
13, 16440, Note_on_c, 11, 50, 26
13, 16559, Note_on_c, 11, 50, 0
13, 16590, Note_on_c, 11, 51, 28
13, 16609, Note_on_c, 11, 51, 0
13, 16620, Note_on_c, 11, 51, 28
13, 16639, Note_on_c, 11, 51, 0
13, 16650, Note_on_c, 11, 51, 28
13, 16669, Note_on_c, 11, 51, 0
13, 16680, Note_on_c, 11, 51, 29
13, 16799, Note_on_c, 11, 51, 0
13, 16830, Note_on_c, 11, 51, 27
13, 16849, Note_on_c, 11, 51, 0
13, 16890, Note_on_c, 11, 55, 27
13, 16909, Note_on_c, 11, 55, 0
13, 16950, Note_on_c, 11, 55, 27
13, 16969, Note_on_c, 11, 55, 0
13, 17010, Note_on_c, 11, 53, 27
13, 17029, Note_on_c, 11, 53, 0
13, 17040, Note_on_c, 11, 53, 27
13, 17159, Note_on_c, 11, 53, 0
13, 17160, Note_on_c, 11, 51, 24
13, 17219, Note_on_c, 11, 51, 0
13, 22310, Control_c, 11, 7, 94
13, 22312, Control_c, 11, 74, 64
13, 22314, Control_c, 11, 73, 64
13, 22316, Control_c, 11, 0, 1
13, 22318, Control_c, 11, 32, 0
13, 22320, Program_c, 11, 48
13, 22560, Note_on_c, 11, 51, 26
13, 22679, Note_on_c, 11, 51, 0
13, 22680, Note_on_c, 11, 56, 26
13, 22799, Note_on_c, 11, 56, 0
13, 22800, Note_on_c, 11, 53, 26
13, 22919, Note_on_c, 11, 53, 0
13, 22920, Note_on_c, 11, 52, 26
13, 23039, Note_on_c, 11, 52, 0
13, 23040, Note_on_c, 11, 51, 26
13, 23279, Note_on_c, 11, 51, 0
13, 23400, Note_on_c, 11, 55, 26
13, 23519, Note_on_c, 11, 55, 0
13, 23520, Note_on_c, 11, 56, 26
13, 23639, Note_on_c, 11, 56, 0
13, 23640, Note_on_c, 11, 55, 26
13, 23759, Note_on_c, 11, 55, 0
13, 23760, Note_on_c, 11, 56, 26
13, 23879, Note_on_c, 11, 56, 0
13, 23880, Note_on_c, 11, 55, 26
13, 23909, Note_on_c, 11, 55, 0
13, 23910, Note_on_c, 11, 58, 31
13, 23969, Note_on_c, 11, 58, 0
13, 23970, Note_on_c, 11, 58, 31
13, 23999, Note_on_c, 11, 58, 0
13, 24000, Note_on_c, 11, 58, 27
13, 24059, Note_on_c, 11, 58, 0
13, 24060, Note_on_c, 11, 60, 27
13, 24119, Note_on_c, 11, 60, 0
13, 24120, Note_on_c, 11, 58, 27
13, 24179, Note_on_c, 11, 58, 0
13, 24180, Note_on_c, 11, 56, 22
13, 24239, Note_on_c, 11, 56, 0
13, 24240, Note_on_c, 11, 55, 19
13, 24299, Note_on_c, 11, 55, 0
13, 26400, Note_on_c, 11, 51, 44
13, 26519, Note_on_c, 11, 51, 0
13, 26520, Note_on_c, 11, 48, 44
13, 26579, Note_on_c, 11, 48, 0
13, 26580, Note_on_c, 11, 53, 44
13, 26639, Note_on_c, 11, 53, 0
13, 26640, Note_on_c, 11, 53, 44
13, 26729, Note_on_c, 11, 53, 0
13, 26730, Note_on_c, 11, 52, 44
13, 26759, Note_on_c, 11, 52, 0
13, 26760, Note_on_c, 11, 51, 44
13, 26939, Note_on_c, 11, 51, 0
13, 26940, Note_on_c, 11, 56, 44
13, 27029, Note_on_c, 11, 56, 0
13, 27030, Note_on_c, 11, 49, 44
13, 27059, Note_on_c, 11, 49, 0
13, 27060, Note_on_c, 11, 51, 44
13, 27089, Note_on_c, 11, 51, 0
13, 27090, Note_on_c, 11, 53, 39
13, 27119, Note_on_c, 11, 53, 0
13, 27120, Note_on_c, 11, 51, 35
13, 27209, Note_on_c, 11, 51, 0
13, 27210, Note_on_c, 11, 49, 34
13, 27239, Note_on_c, 11, 49, 0
13, 27240, Note_on_c, 11, 48, 44
13, 27359, Note_on_c, 11, 48, 0
13, 27360, Note_on_c, 11, 49, 44
13, 27479, Note_on_c, 11, 49, 0
13, 27480, Note_on_c, 11, 48, 44
13, 27599, Note_on_c, 11, 48, 0
13, 27600, Note_on_c, 11, 49, 44
13, 27719, Note_on_c, 11, 49, 0
13, 27720, Note_on_c, 11, 51, 44
13, 27749, Note_on_c, 11, 51, 0
13, 27750, Note_on_c, 11, 57, 44
13, 27779, Note_on_c, 11, 57, 0
13, 27780, Note_on_c, 11, 58, 44
13, 27809, Note_on_c, 11, 58, 0
13, 27810, Note_on_c, 11, 60, 44
13, 27839, Note_on_c, 11, 60, 0
13, 27840, Note_on_c, 11, 53, 44
13, 27959, Note_on_c, 11, 53, 0
13, 27960, Note_on_c, 11, 56, 44
13, 27989, Note_on_c, 11, 56, 0
13, 27990, Note_on_c, 11, 60, 44
13, 28014, Note_on_c, 11, 60, 0
13, 28020, Note_on_c, 11, 58, 44
13, 28049, Note_on_c, 11, 58, 0
13, 28050, Note_on_c, 11, 61, 39
13, 28074, Note_on_c, 11, 61, 0
13, 28080, Note_on_c, 11, 60, 34
13, 28124, Note_on_c, 11, 60, 0
13, 28320, Note_on_c, 11, 58, 42
13, 28349, Note_on_c, 11, 58, 0
13, 28410, Note_on_c, 11, 61, 44
13, 28434, Note_on_c, 11, 61, 0
13, 28440, Note_on_c, 11, 60, 34
13, 28529, Note_on_c, 11, 60, 0
13, 28560, Note_on_c, 11, 56, 34
13, 28589, Note_on_c, 11, 56, 0
13, 28650, Note_on_c, 11, 59, 44
13, 28674, Note_on_c, 11, 59, 0
13, 28680, Note_on_c, 11, 58, 44
13, 28734, Note_on_c, 11, 58, 0
13, 28740, Note_on_c, 11, 58, 44
13, 28794, Note_on_c, 11, 58, 0
13, 28800, Note_on_c, 11, 58, 44
13, 28829, Note_on_c, 11, 58, 0
13, 28830, Note_on_c, 11, 53, 43
13, 28854, Note_on_c, 11, 53, 0
13, 28860, Note_on_c, 11, 53, 41
13, 28889, Note_on_c, 11, 53, 0
13, 28890, Note_on_c, 11, 54, 40
13, 28914, Note_on_c, 11, 54, 0
13, 28920, Note_on_c, 11, 54, 39
13, 28979, Note_on_c, 11, 54, 0
13, 28980, Note_on_c, 11, 51, 36
13, 29039, Note_on_c, 11, 51, 0
13, 29040, Note_on_c, 11, 53, 34
13, 29069, Note_on_c, 11, 53, 0
13, 29160, Note_on_c, 11, 62, 35
13, 29189, Note_on_c, 11, 62, 0
13, 29280, Note_on_c, 11, 64, 35
13, 29309, Note_on_c, 11, 64, 0
13, 29400, Note_on_c, 11, 65, 36
13, 29429, Note_on_c, 11, 65, 0
13, 29520, Note_on_c, 11, 62, 37
13, 29549, Note_on_c, 11, 62, 0
13, 29640, Note_on_c, 11, 63, 38
13, 29669, Note_on_c, 11, 63, 0
13, 29760, Note_on_c, 11, 50, 39
13, 29819, Note_on_c, 11, 50, 0
13, 29820, Note_on_c, 11, 51, 40
13, 29879, Note_on_c, 11, 51, 0
13, 29880, Note_on_c, 11, 53, 40
13, 29939, Note_on_c, 11, 53, 0
13, 29940, Note_on_c, 11, 55, 41
13, 29984, Note_on_c, 11, 55, 0
13, 29985, Note_on_c, 11, 57, 41
13, 29999, Note_on_c, 11, 57, 0
13, 30000, Note_on_c, 11, 58, 41
13, 30059, Note_on_c, 11, 58, 0
13, 30060, Note_on_c, 11, 60, 42
13, 30119, Note_on_c, 11, 60, 0
13, 30120, Note_on_c, 11, 62, 37
13, 30179, Note_on_c, 11, 62, 0
13, 30180, Note_on_c, 11, 58, 33
13, 30239, Note_on_c, 11, 58, 0
13, 30240, Note_on_c, 11, 63, 30
13, 30299, Note_on_c, 11, 63, 0
13, 32220, Note_on_c, 11, 58, 30
13, 32234, Note_on_c, 11, 58, 0
13, 32280, Note_on_c, 11, 58, 26
13, 32294, Note_on_c, 11, 58, 0
13, 32340, Note_on_c, 11, 58, 26
13, 32354, Note_on_c, 11, 58, 0
13, 32460, Note_on_c, 11, 58, 30
13, 32474, Note_on_c, 11, 58, 0
13, 32520, Note_on_c, 11, 58, 26
13, 32534, Note_on_c, 11, 58, 0
13, 32580, Note_on_c, 11, 58, 26
13, 32594, Note_on_c, 11, 58, 0
13, 32700, Note_on_c, 11, 58, 30
13, 32714, Note_on_c, 11, 58, 0
13, 32760, Note_on_c, 11, 58, 26
13, 32774, Note_on_c, 11, 58, 0
13, 32820, Note_on_c, 11, 58, 26
13, 32834, Note_on_c, 11, 58, 0
13, 32940, Note_on_c, 11, 58, 30
13, 32954, Note_on_c, 11, 58, 0
13, 33000, Note_on_c, 11, 58, 26
13, 33014, Note_on_c, 11, 58, 0
13, 33060, Note_on_c, 11, 58, 26
13, 33074, Note_on_c, 11, 58, 0
13, 33180, Note_on_c, 11, 58, 26
13, 33194, Note_on_c, 11, 58, 0
13, 33240, Note_on_c, 11, 58, 26
13, 33254, Note_on_c, 11, 58, 0
13, 33300, Note_on_c, 11, 58, 26
13, 33314, Note_on_c, 11, 58, 0
13, 33420, Note_on_c, 11, 58, 30
13, 33479, Note_on_c, 11, 58, 0
13, 33480, Note_on_c, 11, 63, 26
13, 33494, Note_on_c, 11, 63, 0
13, 33540, Note_on_c, 11, 63, 26
13, 33554, Note_on_c, 11, 63, 0
13, 33660, Note_on_c, 11, 63, 30
13, 33674, Note_on_c, 11, 63, 0
13, 33720, Note_on_c, 11, 63, 26
13, 33734, Note_on_c, 11, 63, 0
13, 33780, Note_on_c, 11, 63, 26
13, 33794, Note_on_c, 11, 63, 0
13, 33840, Note_on_c, 11, 62, 26
13, 33919, Note_on_c, 11, 62, 0
13, 33960, Note_on_c, 11, 58, 26
13, 34039, Note_on_c, 11, 58, 0
13, 34200, Note_on_c, 11, 60, 26
13, 34279, Note_on_c, 11, 60, 0
13, 34440, Note_on_c, 11, 58, 26
13, 34519, Note_on_c, 11, 58, 0
13, 34680, Note_on_c, 11, 60, 26
13, 34759, Note_on_c, 11, 60, 0
13, 34920, Note_on_c, 11, 58, 26
13, 35019, Note_on_c, 11, 58, 0
13, 35160, Note_on_c, 11, 60, 36
13, 35259, Note_on_c, 11, 60, 0
13, 35280, Note_on_c, 11, 62, 48
13, 35479, Note_on_c, 11, 62, 0
13, 36975, Control_c, 11, 0, 0
13, 36979, Control_c, 11, 32, 0
13, 36990, Program_c, 11, 49
13, 37440, Note_on_c, 11, 63, 33
13, 37479, Note_on_c, 11, 63, 0
13, 37560, Note_on_c, 11, 63, 33
13, 37599, Note_on_c, 11, 63, 0
13, 37680, Note_on_c, 11, 51, 33
13, 37739, Note_on_c, 11, 51, 0
13, 37920, Note_on_c, 11, 63, 33
13, 37959, Note_on_c, 11, 63, 0
13, 38040, Note_on_c, 11, 63, 33
13, 38079, Note_on_c, 11, 63, 0
13, 38160, Note_on_c, 11, 51, 33
13, 38219, Note_on_c, 11, 51, 0
13, 38460, Note_on_c, 11, 55, 33
13, 38513, Note_on_c, 11, 55, 0
13, 38580, Note_on_c, 11, 55, 33
13, 38633, Note_on_c, 11, 55, 0
13, 38700, Note_on_c, 11, 53, 33
13, 38753, Note_on_c, 11, 53, 0
13, 38820, Note_on_c, 11, 53, 33
13, 38873, Note_on_c, 11, 53, 0
13, 38940, Note_on_c, 11, 55, 33
13, 38993, Note_on_c, 11, 55, 0
13, 39060, Note_on_c, 11, 56, 33
13, 39113, Note_on_c, 11, 56, 0
13, 39120, Note_on_c, 11, 55, 33
13, 39179, Note_on_c, 11, 55, 0
13, 39360, Note_on_c, 11, 63, 33
13, 39399, Note_on_c, 11, 63, 0
13, 39480, Note_on_c, 11, 63, 33
13, 39519, Note_on_c, 11, 63, 0
13, 39600, Note_on_c, 11, 51, 33
13, 39659, Note_on_c, 11, 51, 0
13, 39840, Note_on_c, 11, 63, 33
13, 39879, Note_on_c, 11, 63, 0
13, 39960, Note_on_c, 11, 63, 33
13, 39999, Note_on_c, 11, 63, 0
13, 40080, Note_on_c, 11, 51, 33
13, 40139, Note_on_c, 11, 51, 0
13, 40380, Note_on_c, 11, 55, 33
13, 40428, Note_on_c, 11, 55, 0
13, 40500, Note_on_c, 11, 55, 33
13, 40548, Note_on_c, 11, 55, 0
13, 40620, Note_on_c, 11, 53, 33
13, 40668, Note_on_c, 11, 53, 0
13, 40740, Note_on_c, 11, 53, 33
13, 40788, Note_on_c, 11, 53, 0
13, 40860, Note_on_c, 11, 55, 33
13, 40908, Note_on_c, 11, 55, 0
13, 40980, Note_on_c, 11, 56, 33
13, 41028, Note_on_c, 11, 56, 0
13, 41028, End_track
14, 0, Start_track
14, 0, MIDI_port, 0
14, 0, Title_t, "Violincello"
14, 20, Control_c, 12, 121, 0
14, 21, Control_c, 12, 11, 127
14, 21, Control_c, 12, 7, 127
14, 22, Control_c, 12, 93, 10
14, 22, Control_c, 12, 91, 69
14, 25, Control_c, 12, 10, 64
14, 26, Pitch_bend_c, 12, 8192
14, 32, Control_c, 12, 0, 1
14, 34, Control_c, 12, 32, 0
14, 36, Program_c, 12, 48
14, 2400, Note_on_c, 12, 51, 33
14, 2519, Note_on_c, 12, 51, 0
14, 2520, Note_on_c, 12, 51, 33
14, 2639, Note_on_c, 12, 51, 0
14, 2640, Note_on_c, 12, 51, 33
14, 2759, Note_on_c, 12, 51, 0
14, 2760, Note_on_c, 12, 51, 33
14, 2879, Note_on_c, 12, 51, 0
14, 3360, Note_on_c, 12, 51, 33
14, 3479, Note_on_c, 12, 51, 0
14, 3480, Note_on_c, 12, 51, 33
14, 3599, Note_on_c, 12, 51, 0
14, 3600, Note_on_c, 12, 51, 33
14, 3719, Note_on_c, 12, 51, 0
14, 3720, Note_on_c, 12, 51, 33
14, 3819, Note_on_c, 12, 51, 0
14, 4320, Note_on_c, 12, 46, 22
14, 4379, Note_on_c, 12, 46, 0
14, 4560, Note_on_c, 12, 46, 22
14, 4619, Note_on_c, 12, 46, 0
14, 4800, Note_on_c, 12, 46, 22
14, 4859, Note_on_c, 12, 46, 0
14, 5040, Note_on_c, 12, 46, 22
14, 5099, Note_on_c, 12, 46, 0
14, 5280, Note_on_c, 12, 46, 22
14, 5339, Note_on_c, 12, 46, 0
14, 5520, Note_on_c, 12, 51, 22
14, 5579, Note_on_c, 12, 51, 0
14, 5760, Note_on_c, 12, 53, 22
14, 5819, Note_on_c, 12, 53, 0
14, 6000, Note_on_c, 12, 58, 22
14, 6059, Note_on_c, 12, 58, 0
14, 6240, Note_on_c, 12, 53, 22
14, 6299, Note_on_c, 12, 53, 0
14, 6480, Note_on_c, 12, 58, 22
14, 6539, Note_on_c, 12, 58, 0
14, 6720, Note_on_c, 12, 53, 22
14, 6779, Note_on_c, 12, 53, 0
14, 6960, Note_on_c, 12, 46, 22
14, 7019, Note_on_c, 12, 46, 0
14, 7200, Note_on_c, 12, 46, 28
14, 7259, Note_on_c, 12, 46, 0
14, 7440, Note_on_c, 12, 46, 38
14, 7639, Note_on_c, 12, 46, 0
14, 11392, Control_c, 12, 73, 54
14, 11400, Control_c, 12, 74, 74
14, 11402, Control_c, 12, 0, 0
14, 11404, Control_c, 12, 32, 0
14, 11406, Program_c, 12, 49
14, 11520, Note_on_c, 12, 60, 27
14, 11879, Note_on_c, 12, 60, 0
14, 11880, Note_on_c, 12, 59, 32
14, 11984, Note_on_c, 12, 59, 0
14, 12000, Note_on_c, 12, 60, 27
14, 12119, Note_on_c, 12, 60, 0
14, 12120, Note_on_c, 12, 53, 27
14, 12179, Note_on_c, 12, 53, 0
14, 12180, Note_on_c, 12, 54, 27
14, 12239, Note_on_c, 12, 54, 0
14, 12240, Note_on_c, 12, 55, 27
14, 12299, Note_on_c, 12, 55, 0
14, 12300, Note_on_c, 12, 43, 27
14, 12349, Note_on_c, 12, 43, 0
14, 12360, Note_on_c, 12, 43, 25
14, 12409, Note_on_c, 12, 43, 0
14, 12480, Note_on_c, 12, 48, 37
14, 12614, Note_on_c, 12, 48, 0
14, 12630, Note_on_c, 12, 48, 40
14, 12649, Note_on_c, 12, 48, 0
14, 12660, Note_on_c, 12, 48, 44
14, 12679, Note_on_c, 12, 48, 0
14, 12690, Note_on_c, 12, 48, 50
14, 12709, Note_on_c, 12, 48, 0
14, 12720, Note_on_c, 12, 46, 27
14, 12839, Note_on_c, 12, 46, 0
14, 12870, Note_on_c, 12, 46, 40
14, 12889, Note_on_c, 12, 46, 0
14, 12900, Note_on_c, 12, 46, 43
14, 12919, Note_on_c, 12, 46, 0
14, 12930, Note_on_c, 12, 46, 47
14, 12949, Note_on_c, 12, 46, 0
14, 12960, Note_on_c, 12, 48, 40
14, 12979, Note_on_c, 12, 48, 0
14, 13020, Note_on_c, 12, 48, 27
14, 13039, Note_on_c, 12, 48, 0
14, 13080, Note_on_c, 12, 50, 39
14, 13099, Note_on_c, 12, 50, 0
14, 13140, Note_on_c, 12, 50, 27
14, 13159, Note_on_c, 12, 50, 0
14, 13200, Note_on_c, 12, 55, 27
14, 13254, Note_on_c, 12, 55, 0
14, 13260, Note_on_c, 12, 50, 27
14, 13319, Note_on_c, 12, 50, 0
14, 13320, Note_on_c, 12, 43, 25
14, 13374, Note_on_c, 12, 43, 0
14, 15360, Note_on_c, 12, 51, 26
14, 15419, Note_on_c, 12, 51, 0
14, 15480, Note_on_c, 12, 51, 26
14, 15539, Note_on_c, 12, 51, 0
14, 15600, Note_on_c, 12, 58, 26
14, 15659, Note_on_c, 12, 58, 0
14, 15720, Note_on_c, 12, 46, 26
14, 15779, Note_on_c, 12, 46, 0
14, 15780, Note_on_c, 12, 47, 26
14, 15839, Note_on_c, 12, 47, 0
14, 15840, Note_on_c, 12, 48, 23
14, 15899, Note_on_c, 12, 48, 0
14, 15960, Note_on_c, 12, 48, 23
14, 16019, Note_on_c, 12, 48, 0
14, 16080, Note_on_c, 12, 55, 23
14, 16139, Note_on_c, 12, 55, 0
14, 16200, Note_on_c, 12, 43, 23
14, 16259, Note_on_c, 12, 43, 0
14, 16320, Note_on_c, 12, 53, 25
14, 16469, Note_on_c, 12, 53, 0
14, 16470, Note_on_c, 12, 53, 26
14, 16489, Note_on_c, 12, 53, 0
14, 16500, Note_on_c, 12, 53, 27
14, 16519, Note_on_c, 12, 53, 0
14, 16530, Note_on_c, 12, 53, 27
14, 16549, Note_on_c, 12, 53, 0
14, 16560, Note_on_c, 12, 54, 27
14, 16709, Note_on_c, 12, 54, 0
14, 16710, Note_on_c, 12, 54, 29
14, 16729, Note_on_c, 12, 54, 0
14, 16740, Note_on_c, 12, 54, 29
14, 16759, Note_on_c, 12, 54, 0
14, 16770, Note_on_c, 12, 54, 30
14, 16789, Note_on_c, 12, 54, 0
14, 16800, Note_on_c, 12, 55, 27
14, 16829, Note_on_c, 12, 55, 0
14, 16860, Note_on_c, 12, 55, 27
14, 16889, Note_on_c, 12, 55, 0
14, 16920, Note_on_c, 12, 43, 27
14, 16949, Note_on_c, 12, 43, 0
14, 16980, Note_on_c, 12, 43, 27
14, 17009, Note_on_c, 12, 43, 0
14, 17040, Note_on_c, 12, 48, 27
14, 17069, Note_on_c, 12, 48, 0
14, 17100, Note_on_c, 12, 43, 27
14, 17129, Note_on_c, 12, 43, 0
14, 17160, Note_on_c, 12, 48, 24
14, 17219, Note_on_c, 12, 48, 0
14, 22310, Control_c, 12, 7, 94
14, 22312, Control_c, 12, 74, 64
14, 22314, Control_c, 12, 73, 64
14, 22316, Control_c, 12, 0, 1
14, 22318, Control_c, 12, 32, 0
14, 22320, Program_c, 12, 48
14, 22560, Note_on_c, 12, 44, 26
14, 22579, Note_on_c, 12, 44, 0
14, 22590, Note_on_c, 12, 56, 26
14, 22609, Note_on_c, 12, 56, 0
14, 22620, Note_on_c, 12, 56, 26
14, 22639, Note_on_c, 12, 56, 0
14, 22650, Note_on_c, 12, 56, 26
14, 22669, Note_on_c, 12, 56, 0
14, 22680, Note_on_c, 12, 56, 26
14, 22699, Note_on_c, 12, 56, 0
14, 22710, Note_on_c, 12, 56, 26
14, 22729, Note_on_c, 12, 56, 0
14, 22740, Note_on_c, 12, 56, 26
14, 22759, Note_on_c, 12, 56, 0
14, 22770, Note_on_c, 12, 56, 26
14, 22789, Note_on_c, 12, 56, 0
14, 22800, Note_on_c, 12, 44, 26
14, 22819, Note_on_c, 12, 44, 0
14, 22830, Note_on_c, 12, 56, 26
14, 22849, Note_on_c, 12, 56, 0
14, 22860, Note_on_c, 12, 56, 26
14, 22879, Note_on_c, 12, 56, 0
14, 22890, Note_on_c, 12, 56, 26
14, 22909, Note_on_c, 12, 56, 0
14, 22920, Note_on_c, 12, 56, 26
14, 22939, Note_on_c, 12, 56, 0
14, 22950, Note_on_c, 12, 56, 26
14, 22969, Note_on_c, 12, 56, 0
14, 22980, Note_on_c, 12, 56, 26
14, 22999, Note_on_c, 12, 56, 0
14, 23010, Note_on_c, 12, 56, 26
14, 23029, Note_on_c, 12, 56, 0
14, 23040, Note_on_c, 12, 43, 26
14, 23059, Note_on_c, 12, 43, 0
14, 23070, Note_on_c, 12, 55, 26
14, 23089, Note_on_c, 12, 55, 0
14, 23100, Note_on_c, 12, 55, 26
14, 23119, Note_on_c, 12, 55, 0
14, 23130, Note_on_c, 12, 55, 26
14, 23149, Note_on_c, 12, 55, 0
14, 23160, Note_on_c, 12, 39, 26
14, 23179, Note_on_c, 12, 39, 0
14, 23190, Note_on_c, 12, 51, 26
14, 23209, Note_on_c, 12, 51, 0
14, 23220, Note_on_c, 12, 51, 26
14, 23239, Note_on_c, 12, 51, 0
14, 23250, Note_on_c, 12, 51, 26
14, 23269, Note_on_c, 12, 51, 0
14, 23280, Note_on_c, 12, 44, 26
14, 23339, Note_on_c, 12, 44, 0
14, 23340, Note_on_c, 12, 44, 26
14, 23399, Note_on_c, 12, 44, 0
14, 23460, Note_on_c, 12, 51, 26
14, 23519, Note_on_c, 12, 51, 0
14, 23520, Note_on_c, 12, 53, 26
14, 23579, Note_on_c, 12, 53, 0
14, 23580, Note_on_c, 12, 46, 26
14, 23639, Note_on_c, 12, 46, 0
14, 23700, Note_on_c, 12, 51, 26
14, 23759, Note_on_c, 12, 51, 0
14, 23760, Note_on_c, 12, 53, 26
14, 23819, Note_on_c, 12, 53, 0
14, 23820, Note_on_c, 12, 46, 26
14, 23879, Note_on_c, 12, 46, 0
14, 23880, Note_on_c, 12, 51, 26
14, 23909, Note_on_c, 12, 51, 0
14, 23910, Note_on_c, 12, 56, 31
14, 23939, Note_on_c, 12, 56, 0
14, 23940, Note_on_c, 12, 55, 31
14, 23969, Note_on_c, 12, 55, 0
14, 23970, Note_on_c, 12, 53, 31
14, 23999, Note_on_c, 12, 53, 0
14, 24000, Note_on_c, 12, 51, 27
14, 24059, Note_on_c, 12, 51, 0
14, 24060, Note_on_c, 12, 56, 27
14, 24119, Note_on_c, 12, 56, 0
14, 24120, Note_on_c, 12, 58, 27
14, 24179, Note_on_c, 12, 58, 0
14, 24180, Note_on_c, 12, 46, 27
14, 24239, Note_on_c, 12, 46, 0
14, 24240, Note_on_c, 12, 51, 27
14, 24299, Note_on_c, 12, 51, 0
14, 24300, Note_on_c, 12, 39, 20
14, 24359, Note_on_c, 12, 39, 0
14, 26400, Note_on_c, 12, 41, 44
14, 26429, Note_on_c, 12, 41, 0
14, 26430, Note_on_c, 12, 53, 44
14, 26449, Note_on_c, 12, 53, 0
14, 26460, Note_on_c, 12, 53, 44
14, 26479, Note_on_c, 12, 53, 0
14, 26490, Note_on_c, 12, 53, 44
14, 26509, Note_on_c, 12, 53, 0
14, 26520, Note_on_c, 12, 45, 44
14, 26549, Note_on_c, 12, 45, 0
14, 26550, Note_on_c, 12, 57, 44
14, 26569, Note_on_c, 12, 57, 0
14, 26580, Note_on_c, 12, 57, 44
14, 26599, Note_on_c, 12, 57, 0
14, 26610, Note_on_c, 12, 57, 44
14, 26629, Note_on_c, 12, 57, 0
14, 26640, Note_on_c, 12, 46, 44
14, 26669, Note_on_c, 12, 46, 0
14, 26670, Note_on_c, 12, 58, 44
14, 26689, Note_on_c, 12, 58, 0
14, 26700, Note_on_c, 12, 58, 44
14, 26719, Note_on_c, 12, 58, 0
14, 26730, Note_on_c, 12, 56, 44
14, 26749, Note_on_c, 12, 56, 0
14, 26760, Note_on_c, 12, 55, 44
14, 26819, Note_on_c, 12, 55, 0
14, 26820, Note_on_c, 12, 49, 44
14, 26879, Note_on_c, 12, 49, 0
14, 26880, Note_on_c, 12, 48, 44
14, 26979, Note_on_c, 12, 48, 0
14, 27000, Note_on_c, 12, 49, 44
14, 27029, Note_on_c, 12, 49, 0
14, 27030, Note_on_c, 12, 46, 44
14, 27059, Note_on_c, 12, 46, 0
14, 27060, Note_on_c, 12, 48, 44
14, 27089, Note_on_c, 12, 48, 0
14, 27090, Note_on_c, 12, 49, 44
14, 27119, Note_on_c, 12, 49, 0
14, 27180, Note_on_c, 12, 39, 44
14, 27219, Note_on_c, 12, 39, 0
14, 27300, Note_on_c, 12, 44, 44
14, 27359, Note_on_c, 12, 44, 0
14, 27360, Note_on_c, 12, 46, 44
14, 27419, Note_on_c, 12, 46, 0
14, 27420, Note_on_c, 12, 39, 44
14, 27459, Note_on_c, 12, 39, 0
14, 27540, Note_on_c, 12, 44, 44
14, 27599, Note_on_c, 12, 44, 0
14, 27600, Note_on_c, 12, 46, 44
14, 27659, Note_on_c, 12, 46, 0
14, 27660, Note_on_c, 12, 39, 44
14, 27699, Note_on_c, 12, 39, 0
14, 27720, Note_on_c, 12, 48, 44
14, 27839, Note_on_c, 12, 48, 0
14, 27840, Note_on_c, 12, 49, 44
14, 27889, Note_on_c, 12, 49, 0
14, 27900, Note_on_c, 12, 49, 44
14, 27949, Note_on_c, 12, 49, 0
14, 27960, Note_on_c, 12, 51, 44
14, 28009, Note_on_c, 12, 51, 0
14, 28020, Note_on_c, 12, 51, 44
14, 28069, Note_on_c, 12, 51, 0
14, 28080, Note_on_c, 12, 44, 44
14, 28119, Note_on_c, 12, 44, 0
14, 28140, Note_on_c, 12, 56, 44
14, 28179, Note_on_c, 12, 56, 0
14, 28320, Note_on_c, 12, 61, 44
14, 28349, Note_on_c, 12, 61, 0
14, 28350, Note_on_c, 12, 60, 44
14, 28374, Note_on_c, 12, 60, 0
14, 28380, Note_on_c, 12, 60, 44
14, 28409, Note_on_c, 12, 60, 0
14, 28410, Note_on_c, 12, 58, 44
14, 28434, Note_on_c, 12, 58, 0
14, 28440, Note_on_c, 12, 56, 44
14, 28539, Note_on_c, 12, 56, 0
14, 28560, Note_on_c, 12, 59, 44
14, 28589, Note_on_c, 12, 59, 0
14, 28590, Note_on_c, 12, 58, 44
14, 28614, Note_on_c, 12, 58, 0
14, 28620, Note_on_c, 12, 58, 44
14, 28649, Note_on_c, 12, 58, 0
14, 28650, Note_on_c, 12, 56, 44
14, 28674, Note_on_c, 12, 56, 0
14, 28680, Note_on_c, 12, 54, 44
14, 28709, Note_on_c, 12, 54, 0
14, 28710, Note_on_c, 12, 53, 44
14, 28734, Note_on_c, 12, 53, 0
14, 28740, Note_on_c, 12, 53, 44
14, 28769, Note_on_c, 12, 53, 0
14, 28770, Note_on_c, 12, 51, 44
14, 28794, Note_on_c, 12, 51, 0
14, 28800, Note_on_c, 12, 51, 44
14, 28829, Note_on_c, 12, 51, 0
14, 28830, Note_on_c, 12, 49, 44
14, 28854, Note_on_c, 12, 49, 0
14, 28860, Note_on_c, 12, 49, 44
14, 28889, Note_on_c, 12, 49, 0
14, 28890, Note_on_c, 12, 47, 44
14, 28915, Note_on_c, 12, 47, 0
14, 28920, Note_on_c, 12, 47, 44
14, 29039, Note_on_c, 12, 47, 0
14, 29040, Note_on_c, 12, 46, 34
14, 30239, Note_on_c, 12, 46, 0
14, 30240, Note_on_c, 12, 51, 34
14, 30299, Note_on_c, 12, 51, 0
14, 32160, Note_on_c, 12, 46, 26
14, 32219, Note_on_c, 12, 46, 0
14, 32400, Note_on_c, 12, 46, 26
14, 32459, Note_on_c, 12, 46, 0
14, 32640, Note_on_c, 12, 46, 26
14, 32699, Note_on_c, 12, 46, 0
14, 32880, Note_on_c, 12, 46, 26
14, 32939, Note_on_c, 12, 46, 0
14, 33120, Note_on_c, 12, 46, 26
14, 33179, Note_on_c, 12, 46, 0
14, 33360, Note_on_c, 12, 51, 26
14, 33419, Note_on_c, 12, 51, 0
14, 33600, Note_on_c, 12, 53, 26
14, 33659, Note_on_c, 12, 53, 0
14, 33840, Note_on_c, 12, 58, 26
14, 33899, Note_on_c, 12, 58, 0
14, 34080, Note_on_c, 12, 53, 26
14, 34139, Note_on_c, 12, 53, 0
14, 34320, Note_on_c, 12, 58, 26
14, 34379, Note_on_c, 12, 58, 0
14, 34560, Note_on_c, 12, 53, 26
14, 34619, Note_on_c, 12, 53, 0
14, 34800, Note_on_c, 12, 46, 26
14, 34859, Note_on_c, 12, 46, 0
14, 35040, Note_on_c, 12, 46, 33
14, 35099, Note_on_c, 12, 46, 0
14, 35280, Note_on_c, 12, 46, 45
14, 35479, Note_on_c, 12, 46, 0
14, 36975, Control_c, 12, 0, 0
14, 36979, Control_c, 12, 32, 0
14, 36990, Program_c, 12, 49
14, 37200, Note_on_c, 12, 51, 33
14, 37239, Note_on_c, 12, 51, 0
14, 37320, Note_on_c, 12, 51, 33
14, 37359, Note_on_c, 12, 51, 0
14, 37440, Note_on_c, 12, 51, 33
14, 37479, Note_on_c, 12, 51, 0
14, 37560, Note_on_c, 12, 51, 33
14, 37599, Note_on_c, 12, 51, 0
14, 37680, Note_on_c, 12, 51, 33
14, 37719, Note_on_c, 12, 51, 0
14, 37800, Note_on_c, 12, 51, 33
14, 37839, Note_on_c, 12, 51, 0
14, 37920, Note_on_c, 12, 51, 33
14, 37959, Note_on_c, 12, 51, 0
14, 38040, Note_on_c, 12, 51, 33
14, 38079, Note_on_c, 12, 51, 0
14, 38160, Note_on_c, 12, 51, 33
14, 38199, Note_on_c, 12, 51, 0
14, 38280, Note_on_c, 12, 51, 33
14, 38319, Note_on_c, 12, 51, 0
14, 38400, Note_on_c, 12, 55, 33
14, 38439, Note_on_c, 12, 55, 0
14, 38520, Note_on_c, 12, 55, 33
14, 38559, Note_on_c, 12, 55, 0
14, 38640, Note_on_c, 12, 56, 33
14, 38679, Note_on_c, 12, 56, 0
14, 38760, Note_on_c, 12, 56, 33
14, 38799, Note_on_c, 12, 56, 0
14, 38880, Note_on_c, 12, 58, 33
14, 38919, Note_on_c, 12, 58, 0
14, 39000, Note_on_c, 12, 46, 33
14, 39039, Note_on_c, 12, 46, 0
14, 39120, Note_on_c, 12, 51, 33
14, 39159, Note_on_c, 12, 51, 0
14, 39240, Note_on_c, 12, 51, 33
14, 39279, Note_on_c, 12, 51, 0
14, 39360, Note_on_c, 12, 51, 33
14, 39399, Note_on_c, 12, 51, 0
14, 39480, Note_on_c, 12, 51, 33
14, 39519, Note_on_c, 12, 51, 0
14, 39600, Note_on_c, 12, 51, 33
14, 39639, Note_on_c, 12, 51, 0
14, 39720, Note_on_c, 12, 51, 33
14, 39759, Note_on_c, 12, 51, 0
14, 39840, Note_on_c, 12, 51, 33
14, 39879, Note_on_c, 12, 51, 0
14, 39960, Note_on_c, 12, 51, 33
14, 39999, Note_on_c, 12, 51, 0
14, 40080, Note_on_c, 12, 51, 33
14, 40119, Note_on_c, 12, 51, 0
14, 40200, Note_on_c, 12, 51, 33
14, 40239, Note_on_c, 12, 51, 0
14, 40320, Note_on_c, 12, 55, 33
14, 40359, Note_on_c, 12, 55, 0
14, 40440, Note_on_c, 12, 55, 33
14, 40479, Note_on_c, 12, 55, 0
14, 40560, Note_on_c, 12, 56, 33
14, 40599, Note_on_c, 12, 56, 0
14, 40680, Note_on_c, 12, 57, 33
14, 40719, Note_on_c, 12, 57, 0
14, 40800, Note_on_c, 12, 58, 33
14, 40839, Note_on_c, 12, 58, 0
14, 40920, Note_on_c, 12, 46, 33
14, 40959, Note_on_c, 12, 46, 0
14, 41040, Note_on_c, 12, 51, 33
14, 41059, Note_on_c, 12, 51, 0
14, 41100, Note_on_c, 12, 55, 33
14, 41119, Note_on_c, 12, 55, 0
14, 41160, Note_on_c, 12, 48, 33
14, 41179, Note_on_c, 12, 48, 0
14, 41220, Note_on_c, 12, 51, 33
14, 41239, Note_on_c, 12, 51, 0
14, 41280, Note_on_c, 12, 44, 33
14, 41299, Note_on_c, 12, 44, 0
14, 41340, Note_on_c, 12, 48, 33
14, 41359, Note_on_c, 12, 48, 0
14, 41400, Note_on_c, 12, 46, 33
14, 41419, Note_on_c, 12, 46, 0
14, 41460, Note_on_c, 12, 50, 33
14, 41479, Note_on_c, 12, 50, 0
14, 41520, Note_on_c, 12, 51, 33
14, 41539, Note_on_c, 12, 51, 0
14, 41580, Note_on_c, 12, 55, 33
14, 41599, Note_on_c, 12, 55, 0
14, 41640, Note_on_c, 12, 48, 33
14, 41659, Note_on_c, 12, 48, 0
14, 41700, Note_on_c, 12, 51, 33
14, 41719, Note_on_c, 12, 51, 0
14, 41760, Note_on_c, 12, 44, 33
14, 41779, Note_on_c, 12, 44, 0
14, 41820, Note_on_c, 12, 48, 33
14, 41839, Note_on_c, 12, 48, 0
14, 41880, Note_on_c, 12, 46, 33
14, 41899, Note_on_c, 12, 46, 0
14, 41940, Note_on_c, 12, 50, 33
14, 41959, Note_on_c, 12, 50, 0
14, 42000, Note_on_c, 12, 51, 33
14, 42019, Note_on_c, 12, 51, 0
14, 42060, Note_on_c, 12, 55, 33
14, 42079, Note_on_c, 12, 55, 0
14, 42120, Note_on_c, 12, 48, 33
14, 42139, Note_on_c, 12, 48, 0
14, 42180, Note_on_c, 12, 51, 33
14, 42199, Note_on_c, 12, 51, 0
14, 42240, Note_on_c, 12, 44, 33
14, 42259, Note_on_c, 12, 44, 0
14, 42300, Note_on_c, 12, 48, 33
14, 42319, Note_on_c, 12, 48, 0
14, 42360, Note_on_c, 12, 46, 33
14, 42379, Note_on_c, 12, 46, 0
14, 42420, Note_on_c, 12, 46, 33
14, 42439, Note_on_c, 12, 46, 0
14, 42480, Note_on_c, 12, 51, 33
14, 42499, Note_on_c, 12, 51, 0
14, 42540, Note_on_c, 12, 55, 33
14, 42559, Note_on_c, 12, 55, 0
14, 42600, Note_on_c, 12, 58, 33
14, 42619, Note_on_c, 12, 58, 0
14, 42660, Note_on_c, 12, 55, 33
14, 42679, Note_on_c, 12, 55, 0
14, 42720, Note_on_c, 12, 51, 33
14, 42799, Note_on_c, 12, 51, 0
14, 42799, End_track
15, 0, Start_track
15, 0, MIDI_port, 0
15, 0, Title_t, "Contrabass"
15, 20, Control_c, 13, 121, 0
15, 21, Control_c, 13, 11, 127
15, 21, Control_c, 13, 7, 127
15, 22, Control_c, 13, 93, 10
15, 22, Control_c, 13, 91, 79
15, 25, Control_c, 13, 10, 74
15, 26, Pitch_bend_c, 13, 8192
15, 27, Control_c, 13, 0, 1
15, 28, Control_c, 13, 32, 0
15, 29, Program_c, 13, 48
15, 2400, Note_on_c, 13, 39, 33
15, 2519, Note_on_c, 13, 39, 0
15, 2520, Note_on_c, 13, 39, 33
15, 2639, Note_on_c, 13, 39, 0
15, 2640, Note_on_c, 13, 39, 33
15, 2759, Note_on_c, 13, 39, 0
15, 2760, Note_on_c, 13, 39, 33
15, 2879, Note_on_c, 13, 39, 0
15, 3360, Note_on_c, 13, 39, 33
15, 3479, Note_on_c, 13, 39, 0
15, 3480, Note_on_c, 13, 39, 33
15, 3599, Note_on_c, 13, 39, 0
15, 3600, Note_on_c, 13, 39, 33
15, 3719, Note_on_c, 13, 39, 0
15, 3720, Note_on_c, 13, 39, 33
15, 3819, Note_on_c, 13, 39, 0
15, 4320, Note_on_c, 13, 34, 22
15, 4379, Note_on_c, 13, 34, 0
15, 4560, Note_on_c, 13, 34, 22
15, 4619, Note_on_c, 13, 34, 0
15, 4800, Note_on_c, 13, 34, 22
15, 4859, Note_on_c, 13, 34, 0
15, 5040, Note_on_c, 13, 34, 22
15, 5099, Note_on_c, 13, 34, 0
15, 5280, Note_on_c, 13, 34, 22
15, 5339, Note_on_c, 13, 34, 0
15, 5520, Note_on_c, 13, 39, 22
15, 5579, Note_on_c, 13, 39, 0
15, 5760, Note_on_c, 13, 41, 22
15, 5819, Note_on_c, 13, 41, 0
15, 6000, Note_on_c, 13, 46, 22
15, 6059, Note_on_c, 13, 46, 0
15, 6240, Note_on_c, 13, 41, 22
15, 6299, Note_on_c, 13, 41, 0
15, 6480, Note_on_c, 13, 46, 22
15, 6539, Note_on_c, 13, 46, 0
15, 6720, Note_on_c, 13, 41, 22
15, 6779, Note_on_c, 13, 41, 0
15, 6960, Note_on_c, 13, 34, 22
15, 7019, Note_on_c, 13, 34, 0
15, 7200, Note_on_c, 13, 34, 28
15, 7259, Note_on_c, 13, 34, 0
15, 7440, Note_on_c, 13, 34, 38
15, 7639, Note_on_c, 13, 34, 0
15, 11392, Control_c, 13, 73, 54
15, 11400, Control_c, 13, 74, 74
15, 11402, Control_c, 13, 0, 0
15, 11404, Control_c, 13, 32, 0
15, 11406, Program_c, 13, 49
15, 11520, Note_on_c, 13, 48, 27
15, 11879, Note_on_c, 13, 48, 0
15, 11880, Note_on_c, 13, 47, 32
15, 11984, Note_on_c, 13, 47, 0
15, 12000, Note_on_c, 13, 48, 27
15, 12119, Note_on_c, 13, 48, 0
15, 12120, Note_on_c, 13, 41, 27
15, 12179, Note_on_c, 13, 41, 0
15, 12180, Note_on_c, 13, 42, 27
15, 12239, Note_on_c, 13, 42, 0
15, 12240, Note_on_c, 13, 43, 27
15, 12299, Note_on_c, 13, 43, 0
15, 12300, Note_on_c, 13, 31, 27
15, 12349, Note_on_c, 13, 31, 0
15, 12360, Note_on_c, 13, 31, 25
15, 12409, Note_on_c, 13, 31, 0
15, 12480, Note_on_c, 13, 36, 37
15, 12614, Note_on_c, 13, 36, 0
15, 12630, Note_on_c, 13, 36, 40
15, 12649, Note_on_c, 13, 36, 0
15, 12660, Note_on_c, 13, 36, 44
15, 12679, Note_on_c, 13, 36, 0
15, 12690, Note_on_c, 13, 36, 50
15, 12709, Note_on_c, 13, 36, 0
15, 12720, Note_on_c, 13, 34, 27
15, 12839, Note_on_c, 13, 34, 0
15, 12870, Note_on_c, 13, 34, 40
15, 12889, Note_on_c, 13, 34, 0
15, 12900, Note_on_c, 13, 34, 43
15, 12919, Note_on_c, 13, 34, 0
15, 12930, Note_on_c, 13, 34, 47
15, 12949, Note_on_c, 13, 34, 0
15, 12960, Note_on_c, 13, 36, 40
15, 12979, Note_on_c, 13, 36, 0
15, 13020, Note_on_c, 13, 36, 27
15, 13039, Note_on_c, 13, 36, 0
15, 13080, Note_on_c, 13, 38, 39
15, 13099, Note_on_c, 13, 38, 0
15, 13140, Note_on_c, 13, 38, 27
15, 13159, Note_on_c, 13, 38, 0
15, 13200, Note_on_c, 13, 43, 27
15, 13254, Note_on_c, 13, 43, 0
15, 13260, Note_on_c, 13, 38, 27
15, 13319, Note_on_c, 13, 38, 0
15, 13320, Note_on_c, 13, 31, 25
15, 13374, Note_on_c, 13, 31, 0
15, 15360, Note_on_c, 13, 39, 26
15, 15419, Note_on_c, 13, 39, 0
15, 15480, Note_on_c, 13, 39, 26
15, 15539, Note_on_c, 13, 39, 0
15, 15600, Note_on_c, 13, 46, 26
15, 15659, Note_on_c, 13, 46, 0
15, 15720, Note_on_c, 13, 34, 26
15, 15779, Note_on_c, 13, 34, 0
15, 15780, Note_on_c, 13, 35, 26
15, 15839, Note_on_c, 13, 35, 0
15, 15840, Note_on_c, 13, 36, 23
15, 15899, Note_on_c, 13, 36, 0
15, 15960, Note_on_c, 13, 36, 23
15, 16019, Note_on_c, 13, 36, 0
15, 16080, Note_on_c, 13, 43, 23
15, 16139, Note_on_c, 13, 43, 0
15, 16200, Note_on_c, 13, 31, 23
15, 16259, Note_on_c, 13, 31, 0
15, 16320, Note_on_c, 13, 41, 25
15, 16469, Note_on_c, 13, 41, 0
15, 16470, Note_on_c, 13, 41, 26
15, 16489, Note_on_c, 13, 41, 0
15, 16500, Note_on_c, 13, 41, 27
15, 16519, Note_on_c, 13, 41, 0
15, 16530, Note_on_c, 13, 41, 27
15, 16549, Note_on_c, 13, 41, 0
15, 16560, Note_on_c, 13, 42, 27
15, 16709, Note_on_c, 13, 42, 0
15, 16710, Note_on_c, 13, 42, 29
15, 16729, Note_on_c, 13, 42, 0
15, 16740, Note_on_c, 13, 42, 29
15, 16759, Note_on_c, 13, 42, 0
15, 16770, Note_on_c, 13, 42, 30
15, 16789, Note_on_c, 13, 42, 0
15, 16800, Note_on_c, 13, 43, 27
15, 16829, Note_on_c, 13, 43, 0
15, 16860, Note_on_c, 13, 43, 27
15, 16889, Note_on_c, 13, 43, 0
15, 16920, Note_on_c, 13, 31, 27
15, 16949, Note_on_c, 13, 31, 0
15, 16980, Note_on_c, 13, 31, 27
15, 17009, Note_on_c, 13, 31, 0
15, 17040, Note_on_c, 13, 36, 27
15, 17069, Note_on_c, 13, 36, 0
15, 17100, Note_on_c, 13, 31, 27
15, 17129, Note_on_c, 13, 31, 0
15, 17160, Note_on_c, 13, 36, 24
15, 17219, Note_on_c, 13, 36, 0
15, 22310, Control_c, 13, 7, 94
15, 22312, Control_c, 13, 74, 64
15, 22314, Control_c, 13, 73, 64
15, 22316, Control_c, 13, 0, 1
15, 22318, Control_c, 13, 32, 0
15, 22320, Program_c, 13, 48
15, 22560, Note_on_c, 13, 32, 26
15, 22579, Note_on_c, 13, 32, 0
15, 22590, Note_on_c, 13, 44, 26
15, 22609, Note_on_c, 13, 44, 0
15, 22620, Note_on_c, 13, 44, 26
15, 22639, Note_on_c, 13, 44, 0
15, 22650, Note_on_c, 13, 44, 26
15, 22669, Note_on_c, 13, 44, 0
15, 22680, Note_on_c, 13, 44, 26
15, 22699, Note_on_c, 13, 44, 0
15, 22710, Note_on_c, 13, 44, 26
15, 22729, Note_on_c, 13, 44, 0
15, 22740, Note_on_c, 13, 44, 26
15, 22759, Note_on_c, 13, 44, 0
15, 22770, Note_on_c, 13, 44, 26
15, 22789, Note_on_c, 13, 44, 0
15, 22800, Note_on_c, 13, 32, 26
15, 22819, Note_on_c, 13, 32, 0
15, 22830, Note_on_c, 13, 44, 26
15, 22849, Note_on_c, 13, 44, 0
15, 22860, Note_on_c, 13, 44, 26
15, 22879, Note_on_c, 13, 44, 0
15, 22890, Note_on_c, 13, 44, 26
15, 22909, Note_on_c, 13, 44, 0
15, 22920, Note_on_c, 13, 44, 26
15, 22939, Note_on_c, 13, 44, 0
15, 22950, Note_on_c, 13, 44, 26
15, 22969, Note_on_c, 13, 44, 0
15, 22980, Note_on_c, 13, 44, 26
15, 22999, Note_on_c, 13, 44, 0
15, 23010, Note_on_c, 13, 44, 26
15, 23029, Note_on_c, 13, 44, 0
15, 23040, Note_on_c, 13, 31, 26
15, 23059, Note_on_c, 13, 31, 0
15, 23070, Note_on_c, 13, 43, 26
15, 23089, Note_on_c, 13, 43, 0
15, 23100, Note_on_c, 13, 43, 26
15, 23119, Note_on_c, 13, 43, 0
15, 23130, Note_on_c, 13, 43, 26
15, 23149, Note_on_c, 13, 43, 0
15, 23160, Note_on_c, 13, 27, 26
15, 23179, Note_on_c, 13, 27, 0
15, 23190, Note_on_c, 13, 39, 26
15, 23209, Note_on_c, 13, 39, 0
15, 23220, Note_on_c, 13, 39, 26
15, 23239, Note_on_c, 13, 39, 0
15, 23250, Note_on_c, 13, 39, 26
15, 23269, Note_on_c, 13, 39, 0
15, 23280, Note_on_c, 13, 32, 26
15, 23339, Note_on_c, 13, 32, 0
15, 23340, Note_on_c, 13, 32, 26
15, 23399, Note_on_c, 13, 32, 0
15, 23460, Note_on_c, 13, 39, 26
15, 23519, Note_on_c, 13, 39, 0
15, 23520, Note_on_c, 13, 41, 26
15, 23579, Note_on_c, 13, 41, 0
15, 23580, Note_on_c, 13, 34, 26
15, 23639, Note_on_c, 13, 34, 0
15, 23700, Note_on_c, 13, 39, 26
15, 23759, Note_on_c, 13, 39, 0
15, 23760, Note_on_c, 13, 41, 26
15, 23819, Note_on_c, 13, 41, 0
15, 23820, Note_on_c, 13, 34, 26
15, 23879, Note_on_c, 13, 34, 0
15, 23880, Note_on_c, 13, 39, 26
15, 23909, Note_on_c, 13, 39, 0
15, 23910, Note_on_c, 13, 44, 31
15, 23939, Note_on_c, 13, 44, 0
15, 23940, Note_on_c, 13, 43, 31
15, 23969, Note_on_c, 13, 43, 0
15, 23970, Note_on_c, 13, 41, 31
15, 23999, Note_on_c, 13, 41, 0
15, 24000, Note_on_c, 13, 39, 27
15, 24059, Note_on_c, 13, 39, 0
15, 24060, Note_on_c, 13, 44, 27
15, 24119, Note_on_c, 13, 44, 0
15, 24120, Note_on_c, 13, 46, 27
15, 24179, Note_on_c, 13, 46, 0
15, 24180, Note_on_c, 13, 34, 27
15, 24239, Note_on_c, 13, 34, 0
15, 24240, Note_on_c, 13, 39, 27
15, 24299, Note_on_c, 13, 39, 0
15, 26400, Note_on_c, 13, 29, 44
15, 26429, Note_on_c, 13, 29, 0
15, 26430, Note_on_c, 13, 41, 44
15, 26449, Note_on_c, 13, 41, 0
15, 26460, Note_on_c, 13, 41, 44
15, 26479, Note_on_c, 13, 41, 0
15, 26490, Note_on_c, 13, 41, 44
15, 26509, Note_on_c, 13, 41, 0
15, 26520, Note_on_c, 13, 33, 44
15, 26549, Note_on_c, 13, 33, 0
15, 26550, Note_on_c, 13, 45, 44
15, 26569, Note_on_c, 13, 45, 0
15, 26580, Note_on_c, 13, 45, 44
15, 26599, Note_on_c, 13, 45, 0
15, 26610, Note_on_c, 13, 45, 44
15, 26629, Note_on_c, 13, 45, 0
15, 26640, Note_on_c, 13, 34, 44
15, 26669, Note_on_c, 13, 34, 0
15, 26670, Note_on_c, 13, 46, 44
15, 26689, Note_on_c, 13, 46, 0
15, 26700, Note_on_c, 13, 46, 44
15, 26719, Note_on_c, 13, 46, 0
15, 26730, Note_on_c, 13, 44, 44
15, 26749, Note_on_c, 13, 44, 0
15, 26760, Note_on_c, 13, 43, 44
15, 26819, Note_on_c, 13, 43, 0
15, 26820, Note_on_c, 13, 37, 44
15, 26879, Note_on_c, 13, 37, 0
15, 26880, Note_on_c, 13, 36, 44
15, 26979, Note_on_c, 13, 36, 0
15, 27000, Note_on_c, 13, 37, 44
15, 27029, Note_on_c, 13, 37, 0
15, 27030, Note_on_c, 13, 34, 44
15, 27059, Note_on_c, 13, 34, 0
15, 27060, Note_on_c, 13, 36, 44
15, 27089, Note_on_c, 13, 36, 0
15, 27090, Note_on_c, 13, 37, 44
15, 27119, Note_on_c, 13, 37, 0
15, 27120, Note_on_c, 13, 39, 44
15, 27159, Note_on_c, 13, 39, 0
15, 27180, Note_on_c, 13, 27, 44
15, 27219, Note_on_c, 13, 27, 0
15, 27300, Note_on_c, 13, 32, 44
15, 27359, Note_on_c, 13, 32, 0
15, 27360, Note_on_c, 13, 34, 44
15, 27419, Note_on_c, 13, 34, 0
15, 27420, Note_on_c, 13, 27, 44
15, 27459, Note_on_c, 13, 27, 0
15, 27540, Note_on_c, 13, 32, 44
15, 27599, Note_on_c, 13, 32, 0
15, 27600, Note_on_c, 13, 34, 44
15, 27659, Note_on_c, 13, 34, 0
15, 27660, Note_on_c, 13, 27, 44
15, 27699, Note_on_c, 13, 27, 0
15, 27720, Note_on_c, 13, 36, 44
15, 27839, Note_on_c, 13, 36, 0
15, 27840, Note_on_c, 13, 37, 44
15, 27889, Note_on_c, 13, 37, 0
15, 27900, Note_on_c, 13, 37, 44
15, 27949, Note_on_c, 13, 37, 0
15, 27960, Note_on_c, 13, 39, 44
15, 28009, Note_on_c, 13, 39, 0
15, 28020, Note_on_c, 13, 39, 44
15, 28069, Note_on_c, 13, 39, 0
15, 28080, Note_on_c, 13, 32, 44
15, 28119, Note_on_c, 13, 32, 0
15, 28140, Note_on_c, 13, 44, 44
15, 28179, Note_on_c, 13, 44, 0
15, 28320, Note_on_c, 13, 49, 44
15, 28349, Note_on_c, 13, 49, 0
15, 28350, Note_on_c, 13, 48, 44
15, 28374, Note_on_c, 13, 48, 0
15, 28380, Note_on_c, 13, 48, 44
15, 28409, Note_on_c, 13, 48, 0
15, 28410, Note_on_c, 13, 46, 44
15, 28434, Note_on_c, 13, 46, 0
15, 28440, Note_on_c, 13, 44, 44
15, 28539, Note_on_c, 13, 44, 0
15, 28560, Note_on_c, 13, 47, 44
15, 28589, Note_on_c, 13, 47, 0
15, 28590, Note_on_c, 13, 46, 44
15, 28614, Note_on_c, 13, 46, 0
15, 28620, Note_on_c, 13, 46, 44
15, 28649, Note_on_c, 13, 46, 0
15, 28650, Note_on_c, 13, 44, 44
15, 28674, Note_on_c, 13, 44, 0
15, 28680, Note_on_c, 13, 42, 44
15, 28709, Note_on_c, 13, 42, 0
15, 28710, Note_on_c, 13, 41, 44
15, 28734, Note_on_c, 13, 41, 0
15, 28740, Note_on_c, 13, 41, 44
15, 28769, Note_on_c, 13, 41, 0
15, 28770, Note_on_c, 13, 39, 44
15, 28794, Note_on_c, 13, 39, 0
15, 28800, Note_on_c, 13, 39, 44
15, 28829, Note_on_c, 13, 39, 0
15, 28830, Note_on_c, 13, 37, 44
15, 28854, Note_on_c, 13, 37, 0
15, 28860, Note_on_c, 13, 37, 44
15, 28889, Note_on_c, 13, 37, 0
15, 28890, Note_on_c, 13, 35, 44
15, 28915, Note_on_c, 13, 35, 0
15, 28920, Note_on_c, 13, 35, 44
15, 29039, Note_on_c, 13, 35, 0
15, 29040, Note_on_c, 13, 34, 34
15, 30239, Note_on_c, 13, 34, 0
15, 30240, Note_on_c, 13, 39, 34
15, 30299, Note_on_c, 13, 39, 0
15, 32160, Note_on_c, 13, 34, 26
15, 32219, Note_on_c, 13, 34, 0
15, 32400, Note_on_c, 13, 34, 26
15, 32459, Note_on_c, 13, 34, 0
15, 32640, Note_on_c, 13, 34, 26
15, 32699, Note_on_c, 13, 34, 0
15, 32880, Note_on_c, 13, 34, 26
15, 32939, Note_on_c, 13, 34, 0
15, 33120, Note_on_c, 13, 34, 26
15, 33179, Note_on_c, 13, 34, 0
15, 33360, Note_on_c, 13, 39, 26
15, 33419, Note_on_c, 13, 39, 0
15, 33600, Note_on_c, 13, 41, 26
15, 33659, Note_on_c, 13, 41, 0
15, 33840, Note_on_c, 13, 46, 26
15, 33899, Note_on_c, 13, 46, 0
15, 34080, Note_on_c, 13, 41, 26
15, 34139, Note_on_c, 13, 41, 0
15, 34320, Note_on_c, 13, 46, 26
15, 34379, Note_on_c, 13, 46, 0
15, 34560, Note_on_c, 13, 41, 26
15, 34619, Note_on_c, 13, 41, 0
15, 34800, Note_on_c, 13, 34, 26
15, 34859, Note_on_c, 13, 34, 0
15, 35040, Note_on_c, 13, 34, 33
15, 35099, Note_on_c, 13, 34, 0
15, 35280, Note_on_c, 13, 34, 45
15, 35479, Note_on_c, 13, 34, 0
15, 36975, Control_c, 13, 0, 0
15, 36979, Control_c, 13, 32, 0
15, 36990, Program_c, 13, 49
15, 37200, Note_on_c, 13, 39, 33
15, 37239, Note_on_c, 13, 39, 0
15, 37320, Note_on_c, 13, 39, 33
15, 37359, Note_on_c, 13, 39, 0
15, 37440, Note_on_c, 13, 39, 33
15, 37479, Note_on_c, 13, 39, 0
15, 37560, Note_on_c, 13, 39, 33
15, 37599, Note_on_c, 13, 39, 0
15, 37680, Note_on_c, 13, 39, 33
15, 37719, Note_on_c, 13, 39, 0
15, 37800, Note_on_c, 13, 39, 33
15, 37839, Note_on_c, 13, 39, 0
15, 37920, Note_on_c, 13, 39, 33
15, 37959, Note_on_c, 13, 39, 0
15, 38040, Note_on_c, 13, 39, 33
15, 38079, Note_on_c, 13, 39, 0
15, 38160, Note_on_c, 13, 39, 33
15, 38199, Note_on_c, 13, 39, 0
15, 38280, Note_on_c, 13, 39, 33
15, 38319, Note_on_c, 13, 39, 0
15, 38400, Note_on_c, 13, 43, 33
15, 38439, Note_on_c, 13, 43, 0
15, 38520, Note_on_c, 13, 43, 33
15, 38559, Note_on_c, 13, 43, 0
15, 38640, Note_on_c, 13, 44, 33
15, 38679, Note_on_c, 13, 44, 0
15, 38760, Note_on_c, 13, 44, 33
15, 38799, Note_on_c, 13, 44, 0
15, 38880, Note_on_c, 13, 46, 33
15, 38919, Note_on_c, 13, 46, 0
15, 39000, Note_on_c, 13, 34, 33
15, 39039, Note_on_c, 13, 34, 0
15, 39120, Note_on_c, 13, 39, 33
15, 39159, Note_on_c, 13, 39, 0
15, 39240, Note_on_c, 13, 39, 33
15, 39279, Note_on_c, 13, 39, 0
15, 39360, Note_on_c, 13, 39, 33
15, 39399, Note_on_c, 13, 39, 0
15, 39480, Note_on_c, 13, 39, 33
15, 39519, Note_on_c, 13, 39, 0
15, 39600, Note_on_c, 13, 39, 33
15, 39639, Note_on_c, 13, 39, 0
15, 39720, Note_on_c, 13, 39, 33
15, 39759, Note_on_c, 13, 39, 0
15, 39840, Note_on_c, 13, 39, 33
15, 39879, Note_on_c, 13, 39, 0
15, 39960, Note_on_c, 13, 39, 33
15, 39999, Note_on_c, 13, 39, 0
15, 40080, Note_on_c, 13, 39, 33
15, 40119, Note_on_c, 13, 39, 0
15, 40200, Note_on_c, 13, 39, 33
15, 40239, Note_on_c, 13, 39, 0
15, 40320, Note_on_c, 13, 43, 33
15, 40359, Note_on_c, 13, 43, 0
15, 40440, Note_on_c, 13, 43, 33
15, 40479, Note_on_c, 13, 43, 0
15, 40560, Note_on_c, 13, 44, 33
15, 40599, Note_on_c, 13, 44, 0
15, 40680, Note_on_c, 13, 45, 33
15, 40719, Note_on_c, 13, 45, 0
15, 40800, Note_on_c, 13, 46, 33
15, 40839, Note_on_c, 13, 46, 0
15, 40920, Note_on_c, 13, 34, 33
15, 40959, Note_on_c, 13, 34, 0
15, 41040, Note_on_c, 13, 39, 33
15, 41059, Note_on_c, 13, 39, 0
15, 41100, Note_on_c, 13, 43, 33
15, 41119, Note_on_c, 13, 43, 0
15, 41160, Note_on_c, 13, 36, 33
15, 41179, Note_on_c, 13, 36, 0
15, 41220, Note_on_c, 13, 39, 33
15, 41239, Note_on_c, 13, 39, 0
15, 41280, Note_on_c, 13, 32, 33
15, 41299, Note_on_c, 13, 32, 0
15, 41340, Note_on_c, 13, 36, 33
15, 41359, Note_on_c, 13, 36, 0
15, 41400, Note_on_c, 13, 34, 33
15, 41419, Note_on_c, 13, 34, 0
15, 41460, Note_on_c, 13, 38, 33
15, 41479, Note_on_c, 13, 38, 0
15, 41520, Note_on_c, 13, 39, 33
15, 41539, Note_on_c, 13, 39, 0
15, 41580, Note_on_c, 13, 43, 33
15, 41599, Note_on_c, 13, 43, 0
15, 41640, Note_on_c, 13, 36, 33
15, 41659, Note_on_c, 13, 36, 0
15, 41700, Note_on_c, 13, 39, 33
15, 41719, Note_on_c, 13, 39, 0
15, 41760, Note_on_c, 13, 32, 33
15, 41779, Note_on_c, 13, 32, 0
15, 41820, Note_on_c, 13, 36, 33
15, 41839, Note_on_c, 13, 36, 0
15, 41880, Note_on_c, 13, 34, 33
15, 41899, Note_on_c, 13, 34, 0
15, 41940, Note_on_c, 13, 38, 33
15, 41959, Note_on_c, 13, 38, 0
15, 42000, Note_on_c, 13, 39, 33
15, 42019, Note_on_c, 13, 39, 0
15, 42060, Note_on_c, 13, 43, 33
15, 42079, Note_on_c, 13, 43, 0
15, 42120, Note_on_c, 13, 36, 33
15, 42139, Note_on_c, 13, 36, 0
15, 42180, Note_on_c, 13, 39, 33
15, 42199, Note_on_c, 13, 39, 0
15, 42240, Note_on_c, 13, 32, 33
15, 42259, Note_on_c, 13, 32, 0
15, 42300, Note_on_c, 13, 36, 33
15, 42319, Note_on_c, 13, 36, 0
15, 42360, Note_on_c, 13, 34, 33
15, 42379, Note_on_c, 13, 34, 0
15, 42420, Note_on_c, 13, 34, 33
15, 42439, Note_on_c, 13, 34, 0
15, 42480, Note_on_c, 13, 39, 33
15, 42499, Note_on_c, 13, 39, 0
15, 42540, Note_on_c, 13, 43, 33
15, 42559, Note_on_c, 13, 43, 0
15, 42600, Note_on_c, 13, 46, 33
15, 42619, Note_on_c, 13, 46, 0
15, 42660, Note_on_c, 13, 43, 33
15, 42679, Note_on_c, 13, 43, 0
15, 42720, Note_on_c, 13, 39, 33
15, 42799, Note_on_c, 13, 39, 0
15, 42799, End_track
0, 0, End_of_file