0, 0, Header, 1, 6, 480
1, 0, Start_track
1, 0, MIDI_port, 0
1, 0, System_exclusive, 05, 7E, 7F, 09, 01, F7
1, 0, MIDI_port, 0
1, 0, Time_signature, 4, 2, 24, 8
1, 0, Key_signature, 2, "major"
1, 0, Tempo, 1666667
1, 240, Tempo, 1621622
1, 472, Tempo, 1578947
1, 732, Tempo, 1621622
1, 952, Tempo, 1714286
1, 1192, Tempo, 1666667
1, 1440, Tempo, 1666667
1, 1664, Tempo, 1621622
1, 1928, Tempo, 1666667
1, 2144, Tempo, 1621622
1, 2400, Tempo, 1666667
1, 2652, Tempo, 1666667
1, 2880, Tempo, 1578947
1, 3144, Tempo, 1621622
1, 3352, Tempo, 1666667
1, 3584, Tempo, 1666667
1, 3832, Tempo, 1764706
1, 4072, Tempo, 1714286
1, 4328, Tempo, 1714286
1, 4544, Tempo, 1666667
1, 4792, Tempo, 1621622
1, 5052, Tempo, 1621622
1, 5264, Tempo, 1666667
1, 5520, Tempo, 1621622
1, 5760, Tempo, 1578947
1, 6000, Tempo, 1666667
1, 6248, Tempo, 1621622
1, 6480, Tempo, 1666667
1, 6720, Tempo, 1714286
1, 6972, Tempo, 1666667
1, 7208, Tempo, 1666667
1, 7452, Tempo, 1666667
1, 7680, Tempo, 1578947
1, 7904, Tempo, 1621622
1, 8152, Tempo, 1621622
1, 8372, Tempo, 1666667
1, 8632, Tempo, 1714286
1, 8864, Tempo, 1621622
1, 9112, Tempo, 1666667
1, 9360, Tempo, 1666667
1, 9592, Tempo, 1621622
1, 9824, Tempo, 1621622
1, 10072, Tempo, 1578947
1, 10304, Tempo, 1621622
1, 10552, Tempo, 1666667
1, 10784, Tempo, 1666667
1, 11024, Tempo, 1621622
1, 11276, Tempo, 1621622
1, 11520, Tempo, 1714286
1, 11768, Tempo, 1666667
1, 11992, Tempo, 1666667
1, 12236, Tempo, 1621622
1, 12464, Tempo, 1578947
1, 12716, Tempo, 1621622
1, 12952, Tempo, 1621622
1, 13208, Tempo, 1578947
1, 13440, Tempo, 1666667
1, 13648, Tempo, 1621622
1, 13920, Tempo, 1578947
1, 14156, Tempo, 1666667
1, 14392, Tempo, 1714286
1, 14596, Tempo, 1621622
1, 14872, Tempo, 1666667
1, 15104, Tempo, 1621622
1, 15360, Tempo, 1666667
1, 15584, Tempo, 1666667
1, 15840, Tempo, 1621622
1, 16104, Tempo, 1621622
1, 16320, Tempo, 1578947
1, 16544, Tempo, 1578947
1, 16808, Tempo, 1666667
1, 17048, Tempo, 1621622
1, 17272, Tempo, 1621622
1, 17504, Tempo, 1666667
1, 17752, Tempo, 1714286
1, 17968, Tempo, 1666667
1, 18248, Tempo, 1666667
1, 18464, Tempo, 1578947
1, 18712, Tempo, 1621622
1, 18944, Tempo, 1578947
1, 19208, Tempo, 1621622
1, 19448, Tempo, 1621622
1, 19672, Tempo, 1578947
1, 19912, Tempo, 1666667
1, 20152, Tempo, 1621622
1, 20380, Tempo, 1621622
1, 20632, Tempo, 1666667
1, 20872, Tempo, 1621622
1, 21112, Tempo, 1666667
1, 21352, Tempo, 1714286
1, 21808, Tempo, 1666667
1, 22060, Tempo, 1666667
1, 22312, Tempo, 1578947
1, 22560, Tempo, 1621622
1, 22820, Tempo, 1666667
1, 23040, Tempo, 1621622
1, 23248, Tempo, 1714286
1, 23512, Tempo, 1666667
1, 23740, Tempo, 1621622
1, 24000, Tempo, 1578947
1, 24232, Tempo, 1666667
1, 24480, Tempo, 1621622
1, 24700, Tempo, 1578947
1, 24944, Tempo, 1621622
1, 25180, Tempo, 1666667
1, 25432, Tempo, 1714286
1, 25660, Tempo, 1666667
1, 25912, Tempo, 1666667
1, 26152, Tempo, 1621622
1, 26408, Tempo, 1666667
1, 26660, Tempo, 1621622
1, 26864, Tempo, 1621622
1, 27112, Tempo, 1714286
1, 27360, Tempo, 1666667
1, 27640, Tempo, 2752294
1, 27832, Tempo, 1869159
1, 27928, Tempo, 1759531
1, 28088, Tempo, 1666667
1, 28320, Tempo, 1666667
1, 28568, Tempo, 1621622
1, 28808, Tempo, 1621622
1, 29016, Tempo, 1666667
1, 29280, Tempo, 1666667
1, 29536, Tempo, 1621622
1, 29752, Tempo, 1578947
1, 29992, Tempo, 1666667
1, 30240, Tempo, 1621622
1, 30452, Tempo, 1578947
1, 30720, Tempo, 1578947
1, 30952, Tempo, 1621622
1, 31192, Tempo, 1666667
1, 31416, Tempo, 1666667
1, 31656, Tempo, 1621622
1, 31896, Tempo, 1666667
1, 32168, Tempo, 1714286
1, 32352, Tempo, 1621622
1, 32632, Tempo, 1666667
1, 32856, Tempo, 1578947
1, 33112, Tempo, 1666667
1, 33352, Tempo, 1621622
1, 33592, Tempo, 1578947
1, 33816, Tempo, 1578947
1, 34072, Tempo, 1621622
1, 34312, Tempo, 1621622
1, 34552, Tempo, 1578947
1, 34792, Tempo, 1666667
1, 35040, Tempo, 1666667
1, 35284, Tempo, 1666667
1, 35520, Tempo, 1621622
1, 35724, Tempo, 1621622
1, 35992, Tempo, 1714286
1, 36204, Tempo, 1621622
1, 36460, Tempo, 1621622
1, 36480, Tempo, 1666667
1, 36720, Tempo, 1621622
1, 36952, Tempo, 1578947
1, 37212, Tempo, 1621622
1, 37432, Tempo, 1714286
1, 37672, Tempo, 1666667
1, 37920, Tempo, 1666667
1, 38144, Tempo, 1621622
1, 38408, Tempo, 1666667
1, 38624, Tempo, 1621622
1, 38880, Tempo, 1666667
1, 39132, Tempo, 1666667
1, 39360, Tempo, 1578947
1, 39624, Tempo, 1621622
1, 39832, Tempo, 1666667
1, 40116, Tempo, 2290076
1, 40312, Tempo, 1764706
1, 40552, Tempo, 1714286
1, 40808, Tempo, 1714286
1, 41024, Tempo, 1666667
1, 41272, Tempo, 1621622
1, 41532, Tempo, 1621622
1, 41744, Tempo, 1666667
1, 42000, Tempo, 1621622
1, 42240, Tempo, 1578947
1, 42480, Tempo, 1666667
1, 42728, Tempo, 1621622
1, 42960, Tempo, 1666667
1, 43200, Tempo, 1714286
1, 43452, Tempo, 1666667
1, 43688, Tempo, 1666667
1, 43932, Tempo, 1666667
1, 44160, Tempo, 1578947
1, 44384, Tempo, 1621622
1, 44632, Tempo, 1621622
1, 44852, Tempo, 1666667
1, 45112, Tempo, 1714286
1, 45344, Tempo, 1621622
1, 45592, Tempo, 1666667
1, 45840, Tempo, 1666667
1, 46072, Tempo, 1621622
1, 46304, Tempo, 1621622
1, 46552, Tempo, 1578947
1, 46784, Tempo, 1621622
1, 47032, Tempo, 1666667
1, 47264, Tempo, 1666667
1, 47504, Tempo, 1621622
1, 47756, Tempo, 1621622
1, 48000, Tempo, 1714286
1, 48248, Tempo, 1666667
1, 48472, Tempo, 1666667
1, 48716, Tempo, 1621622
1, 48944, Tempo, 1578947
1, 49196, Tempo, 1621622
1, 49432, Tempo, 1621622
1, 49688, Tempo, 1578947
1, 49920, Tempo, 1666667
1, 50128, Tempo, 1621622
1, 50400, Tempo, 1578947
1, 50636, Tempo, 1666667
1, 50872, Tempo, 1714286
1, 51076, Tempo, 1621622
1, 51352, Tempo, 1666667
1, 51584, Tempo, 1621622
1, 51840, Tempo, 1666667
1, 52064, Tempo, 1666667
1, 52320, Tempo, 1621622
1, 52584, Tempo, 1621622
1, 52800, Tempo, 1578947
1, 53024, Tempo, 1578947
1, 53288, Tempo, 1666667
1, 53528, Tempo, 1621622
1, 53752, Tempo, 1621622
1, 53984, Tempo, 1666667
1, 54232, Tempo, 1714286
1, 54448, Tempo, 1666667
1, 54728, Tempo, 1666667
1, 54944, Tempo, 1578947
1, 55192, Tempo, 1621622
1, 55424, Tempo, 1578947
1, 55688, Tempo, 1621622
1, 55928, Tempo, 1621622
1, 56152, Tempo, 1578947
1, 56392, Tempo, 1666667
1, 56632, Tempo, 1621622
1, 56860, Tempo, 1621622
1, 57112, Tempo, 1666667
1, 57352, Tempo, 1621622
1, 57592, Tempo, 1666667
1, 57832, Tempo, 1714286
1, 58072, Tempo, 1764706
1, 58288, Tempo, 1666667
1, 58540, Tempo, 1666667
1, 58792, Tempo, 1578947
1, 59040, Tempo, 1621622
1, 59300, Tempo, 1666667
1, 59520, Tempo, 1621622
1, 59728, Tempo, 1714286
1, 59992, Tempo, 1666667
1, 60220, Tempo, 1621622
1, 60480, Tempo, 1578947
1, 60712, Tempo, 1666667
1, 60960, Tempo, 1621622
1, 61180, Tempo, 1578947
1, 61424, Tempo, 1621622
1, 61660, Tempo, 1666667
1, 61912, Tempo, 1612903
1, 62152, Tempo, 1666667
1, 62400, Tempo, 1570681
1, 62632, Tempo, 1621622
1, 62888, Tempo, 1666667
1, 63140, Tempo, 1621622
1, 63344, Tempo, 1621622
1, 63592, Tempo, 1714286
1, 63840, Tempo, 1666667
1, 64328, Tempo, 1578947
1, 64568, Tempo, 1666667
1, 65048, Tempo, 1621622
1, 65288, Tempo, 1621622
1, 65496, Tempo, 1666667
1, 66016, Tempo, 1621622
1, 66232, Tempo, 1578947
1, 66472, Tempo, 1666667
1, 66720, Tempo, 1621622
1, 66932, Tempo, 1578947
1, 67432, Tempo, 1621622
1, 67672, Tempo, 1666667
1, 67938, Tempo, 2739726
1, 68154, Tempo, 1875000
1, 68250, Tempo, 1754386
1, 68376, Tempo, 1666667
1, 68648, Tempo, 1714286
1, 68832, Tempo, 1621622
1, 69112, Tempo, 1666667
1, 69336, Tempo, 1578947
1, 69592, Tempo, 1666667
1, 69832, Tempo, 1621622
1, 70072, Tempo, 1578947
1, 70296, Tempo, 1578947
1, 70552, Tempo, 1621622
1, 70792, Tempo, 1621622
1, 71032, Tempo, 1578947
1, 71272, Tempo, 1666667
1, 71520, Tempo, 1666667
1, 71764, Tempo, 1666667
1, 72000, Tempo, 1621622
1, 72204, Tempo, 1621622
1, 72472, Tempo, 1714286
1, 72684, Tempo, 1621622
1, 72940, Tempo, 1621622
1, 72960, Tempo, 1666667
1, 73200, Tempo, 1621622
1, 73432, Tempo, 1578947
1, 73692, Tempo, 1621622
1, 73912, Tempo, 1714286
1, 74152, Tempo, 1666667
1, 74400, Tempo, 1666667
1, 74624, Tempo, 1621622
1, 74888, Tempo, 1666667
1, 75104, Tempo, 1621622
1, 75360, Tempo, 1666667
1, 75612, Tempo, 1666667
1, 75840, Tempo, 1578947
1, 76104, Tempo, 1621622
1, 76312, Tempo, 1666667
1, 76544, Tempo, 1666667
1, 76792, Tempo, 1764706
1, 77032, Tempo, 1714286
1, 77288, Tempo, 1714286
1, 77504, Tempo, 1666667
1, 77752, Tempo, 1621622
1, 78012, Tempo, 1621622
1, 78224, Tempo, 1666667
1, 78480, Tempo, 1621622
1, 78720, Tempo, 1578947
1, 78960, Tempo, 1666667
1, 79208, Tempo, 1621622
1, 79440, Tempo, 1666667
1, 79680, Tempo, 1714286
1, 79932, Tempo, 1666667
1, 80412, Tempo, 3000000
1, 80644, Tempo, 1875000
1, 80740, Tempo, 1719198
1, 80864, Tempo, 1621622
1, 81112, Tempo, 1621622
1, 81332, Tempo, 1666667
1, 81592, Tempo, 1714286
1, 81824, Tempo, 1621622
1, 82072, Tempo, 1666667
1, 82320, Tempo, 1666667
1, 82552, Tempo, 1621622
1, 82784, Tempo, 1621622
1, 83032, Tempo, 1578947
1, 83264, Tempo, 1621622
1, 83512, Tempo, 1666667
1, 83744, Tempo, 1666667
1, 83984, Tempo, 1621622
1, 84236, Tempo, 1621622
1, 84480, Tempo, 1714286
1, 84728, Tempo, 1666667
1, 84952, Tempo, 1666667
1, 85196, Tempo, 1621622
1, 85424, Tempo, 1578947
1, 85676, Tempo, 1621622
1, 85912, Tempo, 1621622
1, 86168, Tempo, 1578947
1, 86400, Tempo, 1666667
1, 86608, Tempo, 1621622
1, 86880, Tempo, 1578947
1, 87116, Tempo, 1666667
1, 87352, Tempo, 1714286
1, 87556, Tempo, 1621622
1, 87832, Tempo, 1666667
1, 88064, Tempo, 1621622
1, 88320, Tempo, 1666667
1, 88544, Tempo, 1666667
1, 88800, Tempo, 1621622
1, 89064, Tempo, 1621622
1, 89280, Tempo, 1578947
1, 89504, Tempo, 1578947
1, 89768, Tempo, 1666667
1, 90008, Tempo, 1621622
1, 90232, Tempo, 1621622
1, 90464, Tempo, 1666667
1, 90712, Tempo, 1714286
1, 90928, Tempo, 1666667
1, 91208, Tempo, 1666667
1, 91424, Tempo, 1578947
1, 91672, Tempo, 1621622
1, 91904, Tempo, 1578947
1, 92168, Tempo, 1621622
1, 92408, Tempo, 1621622
1, 92632, Tempo, 1578947
1, 92872, Tempo, 1666667
1, 93112, Tempo, 1621622
1, 93340, Tempo, 1621622
1, 93592, Tempo, 1666667
1, 93832, Tempo, 1621622
1, 94072, Tempo, 1666667
1, 94312, Tempo, 1714286
1, 94552, Tempo, 1764706
1, 94768, Tempo, 1666667
1, 95020, Tempo, 1666667
1, 95272, Tempo, 1578947
1, 95520, Tempo, 1621622
1, 95780, Tempo, 1666667
1, 96000, Tempo, 1621622
1, 96208, Tempo, 1714286
1, 96472, Tempo, 1666667
1, 96700, Tempo, 1621622
1, 96960, Tempo, 1578947
1, 97192, Tempo, 1666667
1, 97440, Tempo, 1621622
1, 97660, Tempo, 2727273
1, 97904, Tempo, 1621622
1, 98140, Tempo, 1666667
1, 98392, Tempo, 1714286
1, 98620, Tempo, 1666667
1, 98872, Tempo, 1666667
1, 99112, Tempo, 1621622
1, 99368, Tempo, 1666667
1, 99620, Tempo, 1621622
1, 99824, Tempo, 1621622
1, 100072, Tempo, 1714286
1, 100320, Tempo, 1666667
1, 100544, Tempo, 1666667
1, 100808, Tempo, 1578947
1, 101048, Tempo, 1666667
1, 101280, Tempo, 1666667
1, 101528, Tempo, 2068966
1, 101768, Tempo, 1621622
1, 101976, Tempo, 1666667
1, 102240, Tempo, 1666667
1, 102496, Tempo, 1621622
1, 102712, Tempo, 1578947
1, 102952, Tempo, 1666667
1, 103200, Tempo, 1621622
1, 103412, Tempo, 1578947
1, 103680, Tempo, 1578947
1, 103912, Tempo, 1621622
1, 104152, Tempo, 1666667
1, 104376, Tempo, 1666667
1, 104616, Tempo, 1621622
1, 104856, Tempo, 1666667
1, 105128, Tempo, 1714286
1, 105312, Tempo, 3333333
1, 105592, Tempo, 1666667
1, 105816, Tempo, 1578947
1, 106072, Tempo, 1666667
1, 106312, Tempo, 1621622
1, 106552, Tempo, 1578947
1, 106776, Tempo, 1578947
1, 107032, Tempo, 1621622
1, 107272, Tempo, 1621622
1, 107512, Tempo, 1578947
1, 107752, Tempo, 1666667
1, 108000, Tempo, 1666667
1, 108244, Tempo, 1666667
1, 108480, Tempo, 1621622
1, 108684, Tempo, 1621622
1, 108952, Tempo, 1714286
1, 109164, Tempo, 1621622
1, 109420, Tempo, 1621622
1, 109440, Tempo, 1666667
1, 109680, Tempo, 1621622
1, 109912, Tempo, 1578947
1, 110172, Tempo, 1621622
1, 110392, Tempo, 1714286
1, 110632, Tempo, 1666667
1, 110880, Tempo, 1666667
1, 111104, Tempo, 1621622
1, 111368, Tempo, 1666667
1, 111584, Tempo, 1621622
1, 111840, Tempo, 1666667
1, 112092, Tempo, 1666667
1, 112320, Tempo, 1578947
1, 112584, Tempo, 1621622
1, 112792, Tempo, 1666667
1, 113024, Tempo, 1666667
1, 113272, Tempo, 1764706
1, 113512, Tempo, 1714286
1, 113768, Tempo, 1714286
1, 113984, Tempo, 1666667
1, 114232, Tempo, 1621622
1, 114492, Tempo, 1621622
1, 114704, Tempo, 1666667
1, 114960, Tempo, 1621622
1, 115200, Tempo, 1578947
1, 115440, Tempo, 1666667
1, 115688, Tempo, 1621622
1, 115920, Tempo, 1666667
1, 116160, Tempo, 1714286
1, 116412, Tempo, 1666667
1, 116648, Tempo, 1666667
1, 116892, Tempo, 1666667
1, 117120, Tempo, 1578947
1, 117344, Tempo, 1621622
1, 117592, Tempo, 1621622
1, 117812, Tempo, 1666667
1, 118072, Tempo, 1714286
1, 118304, Tempo, 1621622
1, 118552, Tempo, 1666667
1, 118800, Tempo, 1666667
1, 119032, Tempo, 1621622
1, 119264, Tempo, 1621622
1, 119512, Tempo, 1578947
1, 119744, Tempo, 1621622
1, 119992, Tempo, 1666667
1, 120224, Tempo, 1666667
1, 120464, Tempo, 1621622
1, 120716, Tempo, 1621622
1, 120960, Tempo, 1714286
1, 121208, Tempo, 1666667
1, 121432, Tempo, 1666667
1, 121676, Tempo, 1621622
1, 121904, Tempo, 1578947
1, 122156, Tempo, 1621622
1, 122392, Tempo, 1621622
1, 122648, Tempo, 1578947
1, 122880, Tempo, 1666667
1, 123088, Tempo, 1621622
1, 123360, Tempo, 1578947
1, 123596, Tempo, 1666667
1, 123832, Tempo, 1714286
1, 124036, Tempo, 1621622
1, 124312, Tempo, 1666667
1, 124544, Tempo, 1621622
1, 124800, Tempo, 1666667
1, 125024, Tempo, 1666667
1, 125280, Tempo, 1621622
1, 125544, Tempo, 2000000
1, 125760, Tempo, 1714286
1, 125984, Tempo, 1666667
1, 126248, Tempo, 1666667
1, 126488, Tempo, 1621622
1, 126712, Tempo, 1621622
1, 126944, Tempo, 1666667
1, 127192, Tempo, 1714286
1, 127408, Tempo, 1666667
1, 127688, Tempo, 1666667
1, 127904, Tempo, 1578947
1, 128152, Tempo, 1621622
1, 128384, Tempo, 1578947
1, 128648, Tempo, 1621622
1, 128888, Tempo, 1621622
1, 129112, Tempo, 1578947
1, 129352, Tempo, 1666667
1, 129592, Tempo, 1621622
1, 129820, Tempo, 1621622
1, 130072, Tempo, 1666667
1, 130312, Tempo, 1621622
1, 130552, Tempo, 1666667
1, 130792, Tempo, 1714286
1, 131032, Tempo, 1764706
1, 131248, Tempo, 1666667
1, 131500, Tempo, 1666667
1, 131752, Tempo, 1578947
1, 132000, Tempo, 1621622
1, 132260, Tempo, 1666667
1, 132480, Tempo, 1621622
1, 132688, Tempo, 1714286
1, 132952, Tempo, 1666667
1, 133180, Tempo, 1621622
1, 133440, Tempo, 1578947
1, 133672, Tempo, 1666667
1, 133920, Tempo, 1621622
1, 134140, Tempo, 1578947
1, 134384, Tempo, 1621622
1, 134620, Tempo, 1666667
1, 134872, Tempo, 1714286
1, 135100, Tempo, 1666667
1, 135352, Tempo, 1666667
1, 135592, Tempo, 1621622
1, 135848, Tempo, 1666667
1, 136100, Tempo, 1621622
1, 136304, Tempo, 1621622
1, 136552, Tempo, 1714286
1, 136800, Tempo, 1666667
1, 137024, Tempo, 2222222
1, 137288, Tempo, 1578947
1, 137528, Tempo, 1666667
1, 137760, Tempo, 1666667
1, 138008, Tempo, 2142857
1, 138248, Tempo, 1621622
1, 138456, Tempo, 1666667
1, 138720, Tempo, 1666667
1, 138976, Tempo, 1621622
1, 139192, Tempo, 1578947
1, 139432, Tempo, 1666667
1, 139680, Tempo, 1621622
1, 139892, Tempo, 1578947
1, 140160, Tempo, 1578947
1, 140392, Tempo, 1621622
1, 140632, Tempo, 1666667
1, 140856, Tempo, 1666667
1, 141096, Tempo, 1621622
1, 141336, Tempo, 1666667
1, 141608, Tempo, 1714286
1, 141792, Tempo, 1621622
1, 142072, Tempo, 1666667
1, 142296, Tempo, 1578947
1, 142552, Tempo, 1666667
1, 142792, Tempo, 1621622
1, 143032, Tempo, 1578947
1, 143256, Tempo, 1578947
1, 143512, Tempo, 1621622
1, 143752, Tempo, 1621622
1, 143992, Tempo, 1578947
1, 144232, Tempo, 1666667
1, 144478, Tempo, 1621622
1, 144718, Tempo, 1583113
1, 144750, Tempo, 1566580
1, 144960, Tempo, 1621622
1, 145164, Tempo, 1621622
1, 145432, Tempo, 1666667
1, 145644, Tempo, 1621622
1, 145900, Tempo, 1621622
1, 145920, Tempo, 1666667
1, 146160, Tempo, 1621622
1, 146392, Tempo, 1578947
1, 146652, Tempo, 2222222
1, 146872, Tempo, 1714286
1, 147112, Tempo, 1666667
1, 147360, Tempo, 1666667
1, 147584, Tempo, 1621622
1, 147848, Tempo, 1666667
1, 148064, Tempo, 1621622
1, 148320, Tempo, 1666667
1, 148572, Tempo, 1666667
1, 148800, Tempo, 1578947
1, 149064, Tempo, 1621622
1, 149272, Tempo, 1666667
1, 149504, Tempo, 1666667
1, 149752, Tempo, 1764706
1, 149992, Tempo, 1714286
1, 150248, Tempo, 1714286
1, 150464, Tempo, 1666667
1, 150712, Tempo, 1621622
1, 150972, Tempo, 1621622
1, 151184, Tempo, 1666667
1, 151440, Tempo, 1621622
1, 151680, Tempo, 1578947
1, 151920, Tempo, 1666667
1, 152168, Tempo, 1621622
1, 152400, Tempo, 1666667
1, 152640, Tempo, 1714286
1, 152892, Tempo, 1666667
1, 153112, Tempo, 1608579
1, 153336, Tempo, 1657459
1, 153600, Tempo, 1714286
1, 153824, Tempo, 1666667
1, 154072, Tempo, 1764706
1, 154292, Tempo, 1714286
1, 154552, Tempo, 1818182
1, 154784, Tempo, 1764706
1, 155032, Tempo, 1818182
1, 155256, Tempo, 2127660
1, 155512, Tempo, 1714286
1, 155992, Tempo, 1621622
1, 156224, Tempo, 1666667
1, 156472, Tempo, 1714286
1, 156704, Tempo, 1666667
1, 156944, Tempo, 1621622
1, 157440, Tempo, 1714286
1, 157688, Tempo, 1666667
1, 158156, Tempo, 1621622
1, 158384, Tempo, 1578947
1, 158636, Tempo, 1621622
1, 159128, Tempo, 2222222
1, 159360, Tempo, 1666667
1, 159568, Tempo, 1621622
1, 159840, Tempo, 1578947
1, 160076, Tempo, 1666667
1, 160312, Tempo, 1714286
1, 160516, Tempo, 1621622
1, 160792, Tempo, 1666667
1, 161024, Tempo, 1621622
1, 161280, Tempo, 1666667
1, 161760, Tempo, 1621622
1, 162240, Tempo, 1578947
1, 162728, Tempo, 1666667
1, 162968, Tempo, 2000000
1, 163192, Tempo, 1621622
1, 163424, Tempo, 1666667
1, 163672, Tempo, 1714286
1, 163888, Tempo, 1666667
1, 164168, Tempo, 1666667
1, 164384, Tempo, 1578947
1, 164632, Tempo, 1621622
1, 164864, Tempo, 1578947
1, 165128, Tempo, 1621622
1, 165368, Tempo, 1621622
1, 165592, Tempo, 1578947
1, 165832, Tempo, 1666667
1, 166072, Tempo, 1621622
1, 166300, Tempo, 1621622
1, 166552, Tempo, 1666667
1, 166792, Tempo, 2500000
1, 167032, Tempo, 1666667
1, 167272, Tempo, 1714286
1, 167512, Tempo, 1764706
1, 167728, Tempo, 1666667
1, 167980, Tempo, 1666667
1, 168232, Tempo, 1578947
1, 168480, Tempo, 1621622
1, 168740, Tempo, 1666667
1, 168960, Tempo, 1621622
1, 169168, Tempo, 1714286
1, 169432, Tempo, 1666667
1, 169660, Tempo, 1621622
1, 169920, Tempo, 1578947
1, 170152, Tempo, 1666667
1, 170400, Tempo, 1621622
1, 170620, Tempo, 1578947
1, 170864, Tempo, 1621622
1, 171100, Tempo, 1666667
1, 171352, Tempo, 1714286
1, 171580, Tempo, 1666667
1, 171832, Tempo, 1666667
1, 172072, Tempo, 1621622
1, 172328, Tempo, 1666667
1, 172580, Tempo, 1621622
1, 172784, Tempo, 1621622
1, 173032, Tempo, 1714286
1, 173280, Tempo, 1666667
1, 173504, Tempo, 1666667
1, 173768, Tempo, 1578947
1, 174008, Tempo, 1666667
1, 174240, Tempo, 1666667
1, 174488, Tempo, 1621622
1, 174728, Tempo, 1621622
1, 174936, Tempo, 1666667
1, 175200, Tempo, 1666667
1, 175456, Tempo, 1621622
1, 175672, Tempo, 1578947
1, 175912, Tempo, 1666667
1, 176160, Tempo, 1621622
1, 176372, Tempo, 1578947
1, 176640, Tempo, 1578947
1, 176872, Tempo, 1621622
1, 177112, Tempo, 1666667
1, 177358, Tempo, 1566580
1, 177576, Tempo, 1621622
1, 177816, Tempo, 1666667
1, 178088, Tempo, 1714286
1, 178272, Tempo, 1621622
1, 178552, Tempo, 1666667
1, 178776, Tempo, 1578947
1, 179032, Tempo, 1666667
1, 179272, Tempo, 1621622
1, 179512, Tempo, 1578947
1, 179736, Tempo, 1578947
1, 179992, Tempo, 1621622
1, 180232, Tempo, 1621622
1, 180472, Tempo, 1578947
1, 180712, Tempo, 1666667
1, 180960, Tempo, 1666667
1, 181204, Tempo, 1666667
1, 181440, Tempo, 1621622
1, 181644, Tempo, 1621622
1, 181912, Tempo, 1714286
1, 182124, Tempo, 1621622
1, 182380, Tempo, 1621622
1, 182400, Tempo, 1666667
1, 182640, Tempo, 1621622
1, 182872, Tempo, 1578947
1, 183132, Tempo, 2307692
1, 183352, Tempo, 1764706
1, 183592, Tempo, 1666667
1, 183840, Tempo, 1714286
1, 184064, Tempo, 1666667
1, 184328, Tempo, 1714286
1, 184544, Tempo, 1621622
1, 184800, Tempo, 1714286
1, 185052, Tempo, 1666667
1, 185280, Tempo, 1714286
1, 185544, Tempo, 1621622
1, 185752, Tempo, 1714286
1, 185984, Tempo, 1666667
1, 186232, Tempo, 1764706
1, 186472, Tempo, 1714286
1, 186728, Tempo, 1714286
1, 186944, Tempo, 1666667
1, 187192, Tempo, 1621622
1, 187452, Tempo, 1621622
1, 187664, Tempo, 1666667
1, 187920, Tempo, 1621622
1, 188160, Tempo, 1578947
1, 188400, Tempo, 1666667
1, 188648, Tempo, 1621622
1, 188880, Tempo, 1666667
1, 189120, Tempo, 1714286
1, 189372, Tempo, 1666667
1, 189608, Tempo, 1666667
1, 189852, Tempo, 1666667
1, 190080, Tempo, 1578947
1, 190304, Tempo, 1621622
1, 190552, Tempo, 1621622
1, 190772, Tempo, 1666667
1, 191032, Tempo, 1714286
1, 191264, Tempo, 1621622
1, 191512, Tempo, 1666667
1, 191760, Tempo, 1666667
1, 191992, Tempo, 1621622
1, 192224, Tempo, 1621622
1, 192472, Tempo, 1578947
1, 192704, Tempo, 1621622
1, 192952, Tempo, 1666667
1, 193184, Tempo, 1666667
1, 193424, Tempo, 1621622
1, 193676, Tempo, 1621622
1, 193920, Tempo, 1714286
1, 194168, Tempo, 1666667
1, 194392, Tempo, 1666667
1, 194636, Tempo, 1818182
1, 194864, Tempo, 1578947
1, 195116, Tempo, 1621622
1, 195352, Tempo, 1621622
1, 195608, Tempo, 2307692
1, 195840, Tempo, 1666667
1, 196048, Tempo, 1621622
1, 196320, Tempo, 1578947
1, 196556, Tempo, 3000000
1, 196792, Tempo, 1714286
1, 196996, Tempo, 1621622
1, 197272, Tempo, 1666667
1, 197504, Tempo, 1621622
1, 197760, Tempo, 1666667
1, 197984, Tempo, 1714286
1, 198240, Tempo, 1621622
1, 198504, Tempo, 1666667
1, 198720, Tempo, 1714286
1, 198944, Tempo, 1621622
1, 199208, Tempo, 1666667
1, 199448, Tempo, 1621622
1, 199672, Tempo, 1714286
1, 199904, Tempo, 1666667
1, 200152, Tempo, 1714286
1, 200368, Tempo, 1666667
1, 200648, Tempo, 1764706
1, 200864, Tempo, 1714286
1, 201112, Tempo, 1666667
1, 201344, Tempo, 1714286
1, 201608, Tempo, 1666667
1, 201848, Tempo, 1764706
1, 202072, Tempo, 1714286
1, 202312, Tempo, 1666667
1, 202552, Tempo, 1714286
1, 202780, Tempo, 1621622
1, 203032, Tempo, 1666667
1, 203272, Tempo, 1621622
1, 203512, Tempo, 1764706
1, 203752, Tempo, 1714286
1, 203992, Tempo, 1666667
1, 204208, Tempo, 1621622
1, 204460, Tempo, 1666667
1, 204712, Tempo, 1578947
1, 204960, Tempo, 1621622
1, 205220, Tempo, 1666667
1, 205440, Tempo, 1621622
1, 205648, Tempo, 1875000
1, 205912, Tempo, 2000000
1, 206140, Tempo, 2307692
1, 206232, Tempo, 2135231
1, 206400, Tempo, 2500000
1, 206400, End_track
2, 0, Start_track
2, 0, MIDI_port, 0
2, 0, Title_t, "Piano-Treble"
2, 0, Program_c, 0, 0
2, 0, Note_on_c, 0, 71, 77
2, 480, Note_on_c, 0, 66, 77
2, 500, Note_on_c, 0, 71, 0
2, 720, Note_on_c, 0, 74, 77
2, 732, Note_on_c, 0, 66, 0
2, 928, Note_on_c, 0, 74, 0
2, 960, Note_on_c, 0, 74, 100
2, 960, Note_on_c, 0, 68, 100
2, 1440, Note_on_c, 0, 73, 82
2, 1452, Note_on_c, 0, 74, 0
2, 1680, Note_on_c, 0, 71, 82
2, 1692, Note_on_c, 0, 73, 0
2, 1884, Note_on_c, 0, 68, 0
2, 1888, Note_on_c, 0, 71, 0
2, 1920, Note_on_c, 0, 66, 102
2, 1920, Note_on_c, 0, 71, 102
2, 2340, Note_on_c, 0, 71, 0
2, 2340, Note_on_c, 0, 66, 0
2, 2400, Note_on_c, 0, 70, 82
2, 2580, Note_on_c, 0, 76, 82
2, 2590, Note_on_c, 0, 70, 0
2, 2632, Note_on_c, 0, 76, 0
2, 2640, Note_on_c, 0, 73, 82
2, 2820, Note_on_c, 0, 70, 82
2, 2832, Note_on_c, 0, 73, 0
2, 2872, Note_on_c, 0, 70, 0
2, 2880, Note_on_c, 0, 73, 82
2, 3000, Note_on_c, 0, 71, 82
2, 3012, Note_on_c, 0, 73, 0
2, 3092, Note_on_c, 0, 71, 0
2, 3120, Note_on_c, 0, 74, 82
2, 3240, Note_on_c, 0, 73, 82
2, 3252, Note_on_c, 0, 74, 0
2, 3333, Note_on_c, 0, 73, 0
2, 3360, Note_on_c, 0, 76, 82
2, 3480, Note_on_c, 0, 74, 82
2, 3494, Note_on_c, 0, 76, 0
2, 3571, Note_on_c, 0, 74, 0
2, 4080, Note_on_c, 0, 71, 97
2, 4080, Note_on_c, 0, 83, 97
2, 4560, Note_on_c, 0, 70, 103
2, 4560, Note_on_c, 0, 82, 103
2, 4581, Note_on_c, 0, 71, 0
2, 4582, Note_on_c, 0, 83, 0
2, 4800, Note_on_c, 0, 70, 0
2, 4804, Note_on_c, 0, 82, 0
2, 5040, Note_on_c, 0, 79, 80
2, 5220, Note_on_c, 0, 81, 82
2, 5232, Note_on_c, 0, 79, 0
2, 5280, Note_on_c, 0, 79, 85
2, 5289, Note_on_c, 0, 81, 0
2, 5520, Note_on_c, 0, 78, 81
2, 5536, Note_on_c, 0, 79, 0
2, 5760, Note_on_c, 0, 78, 0
2, 6000, Note_on_c, 0, 67, 101
2, 6000, Note_on_c, 0, 79, 101
2, 6480, Note_on_c, 0, 66, 97
2, 6480, Note_on_c, 0, 78, 97
2, 6501, Note_on_c, 0, 79, 0
2, 6501, Note_on_c, 0, 67, 0
2, 6720, Note_on_c, 0, 66, 0
2, 6720, Note_on_c, 0, 78, 0
2, 6960, Note_on_c, 0, 76, 77
2, 7140, Note_on_c, 0, 78, 81
2, 7152, Note_on_c, 0, 76, 0
2, 7200, Note_on_c, 0, 76, 83
2, 7212, Note_on_c, 0, 78, 0
2, 7440, Note_on_c, 0, 75, 82
2, 7456, Note_on_c, 0, 76, 0
2, 7648, Note_on_c, 0, 75, 0
2, 7680, Note_on_c, 0, 76, 82
2, 7800, Note_on_c, 0, 83, 82
2, 7811, Note_on_c, 0, 76, 0
2, 7920, Note_on_c, 0, 81, 82
2, 7933, Note_on_c, 0, 83, 0
2, 7980, Note_on_c, 0, 79, 82
2, 7991, Note_on_c, 0, 81, 0
2, 8040, Note_on_c, 0, 78, 82
2, 8051, Note_on_c, 0, 79, 0
2, 8100, Note_on_c, 0, 76, 82
2, 8112, Note_on_c, 0, 78, 0
2, 8140, Note_on_c, 0, 76, 0
2, 8160, Note_on_c, 0, 76, 94
2, 8400, Note_on_c, 0, 75, 88
2, 8416, Note_on_c, 0, 76, 0
2, 8608, Note_on_c, 0, 75, 0
2, 8640, Note_on_c, 0, 76, 82
2, 8760, Note_on_c, 0, 83, 82
2, 8772, Note_on_c, 0, 76, 0
2, 8880, Note_on_c, 0, 84, 82
2, 8892, Note_on_c, 0, 83, 0
2, 8940, Note_on_c, 0, 83, 82
2, 8949, Note_on_c, 0, 84, 0
2, 9000, Note_on_c, 0, 81, 82
2, 9011, Note_on_c, 0, 83, 0
2, 9060, Note_on_c, 0, 79, 82
2, 9071, Note_on_c, 0, 81, 0
2, 9108, Note_on_c, 0, 79, 0
2, 9120, Note_on_c, 0, 78, 98
2, 9360, Note_on_c, 0, 77, 91
2, 9372, Note_on_c, 0, 78, 0
2, 9568, Note_on_c, 0, 77, 0
2, 9600, Note_on_c, 0, 78, 82
2, 9780, Note_on_c, 0, 73, 82
2, 9783, Note_on_c, 0, 78, 0
2, 9832, Note_on_c, 0, 73, 0
2, 9840, Note_on_c, 0, 73, 82
2, 9840, Note_on_c, 0, 76, 82
2, 10320, Note_on_c, 0, 71, 82
2, 10320, Note_on_c, 0, 74, 82
2, 10336, Note_on_c, 0, 76, 0
2, 10336, Note_on_c, 0, 73, 0
2, 10528, Note_on_c, 0, 71, 0
2, 10528, Note_on_c, 0, 74, 0
2, 10560, Note_on_c, 0, 74, 91
2, 10560, Note_on_c, 0, 78, 91
2, 10920, Note_on_c, 0, 73, 76
2, 10920, Note_on_c, 0, 76, 76
2, 10931, Note_on_c, 0, 78, 0
2, 10934, Note_on_c, 0, 74, 0
2, 10980, Note_on_c, 0, 71, 72
2, 10980, Note_on_c, 0, 74, 72
2, 10991, Note_on_c, 0, 76, 0
2, 10992, Note_on_c, 0, 73, 0
2, 11040, Note_on_c, 0, 70, 70
2, 11040, Note_on_c, 0, 73, 70
2, 11051, Note_on_c, 0, 71, 0
2, 11052, Note_on_c, 0, 74, 0
2, 11220, Note_on_c, 0, 70, 0
2, 11220, Note_on_c, 0, 73, 0
2, 12480, Note_on_c, 0, 77, 96
2, 12480, Note_on_c, 0, 68, 96
2, 12960, Note_on_c, 0, 76, 82
2, 12976, Note_on_c, 0, 77, 0
2, 13200, Note_on_c, 0, 74, 82
2, 13216, Note_on_c, 0, 76, 0
2, 13404, Note_on_c, 0, 68, 0
2, 13408, Note_on_c, 0, 74, 0
2, 13440, Note_on_c, 0, 68, 79
2, 13440, Note_on_c, 0, 74, 79
2, 13560, Note_on_c, 0, 69, 74
2, 13560, Note_on_c, 0, 73, 74
2, 13572, Note_on_c, 0, 74, 0
2, 13572, Note_on_c, 0, 68, 0
2, 13664, Note_on_c, 0, 69, 0
2, 13664, Note_on_c, 0, 73, 0
2, 13800, Note_on_c, 0, 67, 73
2, 13800, Note_on_c, 0, 71, 73
2, 13904, Note_on_c, 0, 71, 0
2, 13904, Note_on_c, 0, 67, 0
2, 14040, Note_on_c, 0, 66, 77
2, 14040, Note_on_c, 0, 69, 77
2, 14144, Note_on_c, 0, 69, 0
2, 14144, Note_on_c, 0, 66, 0
2, 14280, Note_on_c, 0, 64, 79
2, 14280, Note_on_c, 0, 67, 79
2, 14384, Note_on_c, 0, 67, 0
2, 14384, Note_on_c, 0, 64, 0
2, 14400, Note_on_c, 0, 66, 77
2, 14400, Note_on_c, 0, 69, 77
2, 14460, Note_on_c, 0, 64, 81
2, 14460, Note_on_c, 0, 67, 81
2, 14476, Note_on_c, 0, 69, 0
2, 14476, Note_on_c, 0, 66, 0
2, 14520, Note_on_c, 0, 62, 79
2, 14520, Note_on_c, 0, 66, 79
2, 14536, Note_on_c, 0, 64, 0
2, 14536, Note_on_c, 0, 67, 0
2, 14580, Note_on_c, 0, 64, 82
2, 14580, Note_on_c, 0, 67, 82
2, 14584, Note_on_c, 0, 66, 0
2, 14596, Note_on_c, 0, 62, 0
2, 14640, Note_on_c, 0, 62, 80
2, 14640, Note_on_c, 0, 66, 80
2, 14652, Note_on_c, 0, 67, 0
2, 14656, Note_on_c, 0, 64, 0
2, 14744, Note_on_c, 0, 62, 0
2, 14744, Note_on_c, 0, 66, 0
2, 15600, Note_on_c, 0, 61, 107
2, 15600, Note_on_c, 0, 73, 107
2, 16080, Note_on_c, 0, 62, 85
2, 16080, Note_on_c, 0, 74, 85
2, 16092, Note_on_c, 0, 73, 0
2, 16096, Note_on_c, 0, 61, 0
2, 16288, Note_on_c, 0, 62, 0
2, 16288, Note_on_c, 0, 74, 0
2, 16560, Note_on_c, 0, 73, 106
2, 16560, Note_on_c, 0, 85, 106
2, 17020, Note_on_c, 0, 85, 0
2, 17024, Note_on_c, 0, 73, 0
2, 17040, Note_on_c, 0, 74, 75
2, 17040, Note_on_c, 0, 86, 75
2, 17160, Note_on_c, 0, 83, 75
2, 17176, Note_on_c, 0, 86, 0
2, 17280, Note_on_c, 0, 74, 0
2, 17280, Note_on_c, 0, 81, 76
2, 17296, Note_on_c, 0, 83, 0
2, 17520, Note_on_c, 0, 80, 76
2, 17536, Note_on_c, 0, 81, 0
2, 17728, Note_on_c, 0, 80, 0
2, 17760, Note_on_c, 0, 79, 76
2, 18000, Note_on_c, 0, 78, 80
2, 18016, Note_on_c, 0, 79, 0
2, 18060, Note_on_c, 0, 79, 81
2, 18073, Note_on_c, 0, 78, 0
2, 18120, Note_on_c, 0, 80, 78
2, 18130, Note_on_c, 0, 79, 0
2, 18180, Note_on_c, 0, 81, 73
2, 18192, Note_on_c, 0, 80, 0
2, 18228, Note_on_c, 0, 81, 0
2, 18240, Note_on_c, 0, 81, 77
2, 18600, Note_on_c, 0, 78, 81
2, 18612, Note_on_c, 0, 81, 0
2, 18696, Note_on_c, 0, 78, 0
2, 18720, Note_on_c, 0, 76, 73
2, 18910, Note_on_c, 0, 76, 0
2, 19200, Note_on_c, 0, 66, 95
2, 19200, Note_on_c, 0, 69, 95
2, 19304, Note_on_c, 0, 69, 0
2, 19304, Note_on_c, 0, 66, 0
2, 19320, Note_on_c, 0, 66, 98
2, 19320, Note_on_c, 0, 69, 98
2, 19424, Note_on_c, 0, 69, 0
2, 19424, Note_on_c, 0, 66, 0
2, 19440, Note_on_c, 0, 66, 97
2, 19440, Note_on_c, 0, 69, 97
2, 19544, Note_on_c, 0, 69, 0
2, 19544, Note_on_c, 0, 66, 0
2, 19560, Note_on_c, 0, 66, 99
2, 19560, Note_on_c, 0, 69, 99
2, 19664, Note_on_c, 0, 69, 0
2, 19664, Note_on_c, 0, 66, 0
2, 19680, Note_on_c, 0, 66, 90
2, 19680, Note_on_c, 0, 69, 90
2, 19784, Note_on_c, 0, 69, 0
2, 19784, Note_on_c, 0, 66, 0
2, 19800, Note_on_c, 0, 66, 94
2, 19800, Note_on_c, 0, 69, 94
2, 19904, Note_on_c, 0, 69, 0
2, 19904, Note_on_c, 0, 66, 0
2, 19920, Note_on_c, 0, 66, 88
2, 19920, Note_on_c, 0, 69, 88
2, 20024, Note_on_c, 0, 69, 0
2, 20024, Note_on_c, 0, 66, 0
2, 20040, Note_on_c, 0, 66, 83
2, 20040, Note_on_c, 0, 69, 83
2, 20144, Note_on_c, 0, 69, 0
2, 20144, Note_on_c, 0, 66, 0
2, 20160, Note_on_c, 0, 66, 70
2, 20160, Note_on_c, 0, 69, 70
2, 20264, Note_on_c, 0, 69, 0
2, 20264, Note_on_c, 0, 66, 0
2, 20280, Note_on_c, 0, 66, 76
2, 20280, Note_on_c, 0, 69, 76
2, 20384, Note_on_c, 0, 69, 0
2, 20384, Note_on_c, 0, 66, 0
2, 20400, Note_on_c, 0, 66, 76
2, 20400, Note_on_c, 0, 69, 76
2, 20504, Note_on_c, 0, 69, 0
2, 20504, Note_on_c, 0, 66, 0
2, 20520, Note_on_c, 0, 66, 76
2, 20520, Note_on_c, 0, 69, 76
2, 20624, Note_on_c, 0, 69, 0
2, 20624, Note_on_c, 0, 66, 0
2, 20640, Note_on_c, 0, 67, 73
2, 20640, Note_on_c, 0, 69, 73
2, 20744, Note_on_c, 0, 69, 0
2, 20744, Note_on_c, 0, 67, 0
2, 20760, Note_on_c, 0, 67, 73
2, 20760, Note_on_c, 0, 69, 73
2, 20864, Note_on_c, 0, 69, 0
2, 20864, Note_on_c, 0, 67, 0
2, 20880, Note_on_c, 0, 67, 75
2, 20880, Note_on_c, 0, 69, 75
2, 20984, Note_on_c, 0, 69, 0
2, 20984, Note_on_c, 0, 67, 0
2, 21000, Note_on_c, 0, 67, 75
2, 21000, Note_on_c, 0, 69, 75
2, 21104, Note_on_c, 0, 69, 0
2, 21104, Note_on_c, 0, 67, 0
2, 21120, Note_on_c, 0, 61, 96
2, 21120, Note_on_c, 0, 67, 96
2, 21120, Note_on_c, 0, 69, 96
2, 21224, Note_on_c, 0, 69, 0
2, 21224, Note_on_c, 0, 67, 0
2, 21224, Note_on_c, 0, 61, 0
2, 21240, Note_on_c, 0, 61, 94
2, 21240, Note_on_c, 0, 67, 94
2, 21240, Note_on_c, 0, 69, 94
2, 21344, Note_on_c, 0, 69, 0
2, 21344, Note_on_c, 0, 67, 0
2, 21344, Note_on_c, 0, 61, 0
2, 21360, Note_on_c, 0, 61, 94
2, 21360, Note_on_c, 0, 67, 94
2, 21360, Note_on_c, 0, 69, 94
2, 21464, Note_on_c, 0, 69, 0
2, 21464, Note_on_c, 0, 67, 0
2, 21464, Note_on_c, 0, 61, 0
2, 21480, Note_on_c, 0, 61, 95
2, 21480, Note_on_c, 0, 67, 95
2, 21480, Note_on_c, 0, 69, 95
2, 21584, Note_on_c, 0, 69, 0
2, 21584, Note_on_c, 0, 67, 0
2, 21584, Note_on_c, 0, 61, 0
2, 21600, Note_on_c, 0, 61, 95
2, 21600, Note_on_c, 0, 67, 95
2, 21600, Note_on_c, 0, 69, 95
2, 21704, Note_on_c, 0, 69, 0
2, 21704, Note_on_c, 0, 67, 0
2, 21704, Note_on_c, 0, 61, 0
2, 21720, Note_on_c, 0, 61, 94
2, 21720, Note_on_c, 0, 67, 94
2, 21720, Note_on_c, 0, 69, 94
2, 21824, Note_on_c, 0, 69, 0
2, 21824, Note_on_c, 0, 67, 0
2, 21824, Note_on_c, 0, 61, 0
2, 21840, Note_on_c, 0, 61, 93
2, 21840, Note_on_c, 0, 67, 93
2, 21840, Note_on_c, 0, 69, 93
2, 21944, Note_on_c, 0, 69, 0
2, 21944, Note_on_c, 0, 67, 0
2, 21944, Note_on_c, 0, 61, 0
2, 21960, Note_on_c, 0, 61, 90
2, 21960, Note_on_c, 0, 67, 90
2, 21960, Note_on_c, 0, 69, 90
2, 22064, Note_on_c, 0, 69, 0
2, 22064, Note_on_c, 0, 67, 0
2, 22064, Note_on_c, 0, 61, 0
2, 22080, Note_on_c, 0, 61, 70
2, 22080, Note_on_c, 0, 67, 70
2, 22080, Note_on_c, 0, 69, 70
2, 22184, Note_on_c, 0, 69, 0
2, 22184, Note_on_c, 0, 67, 0
2, 22184, Note_on_c, 0, 61, 0
2, 22200, Note_on_c, 0, 61, 76
2, 22200, Note_on_c, 0, 67, 76
2, 22200, Note_on_c, 0, 69, 76
2, 22304, Note_on_c, 0, 69, 0
2, 22304, Note_on_c, 0, 67, 0
2, 22304, Note_on_c, 0, 61, 0
2, 22320, Note_on_c, 0, 61, 70
2, 22320, Note_on_c, 0, 67, 70
2, 22320, Note_on_c, 0, 69, 70
2, 22424, Note_on_c, 0, 69, 0
2, 22424, Note_on_c, 0, 67, 0
2, 22424, Note_on_c, 0, 61, 0
2, 22440, Note_on_c, 0, 61, 73
2, 22440, Note_on_c, 0, 67, 73
2, 22440, Note_on_c, 0, 69, 73
2, 22544, Note_on_c, 0, 69, 0
2, 22544, Note_on_c, 0, 67, 0
2, 22544, Note_on_c, 0, 61, 0
2, 22560, Note_on_c, 0, 62, 73
2, 22560, Note_on_c, 0, 66, 73
2, 22560, Note_on_c, 0, 69, 73
2, 22664, Note_on_c, 0, 69, 0
2, 22664, Note_on_c, 0, 66, 0
2, 22664, Note_on_c, 0, 62, 0
2, 22680, Note_on_c, 0, 62, 73
2, 22680, Note_on_c, 0, 69, 73
2, 22784, Note_on_c, 0, 69, 0
2, 22784, Note_on_c, 0, 62, 0
2, 22800, Note_on_c, 0, 62, 77
2, 22800, Note_on_c, 0, 69, 77
2, 22904, Note_on_c, 0, 69, 0
2, 22904, Note_on_c, 0, 62, 0
2, 22920, Note_on_c, 0, 63, 77
2, 22920, Note_on_c, 0, 69, 77
2, 23024, Note_on_c, 0, 69, 0
2, 23024, Note_on_c, 0, 63, 0
2, 23040, Note_on_c, 0, 64, 77
2, 23040, Note_on_c, 0, 69, 77
2, 23144, Note_on_c, 0, 69, 0
2, 23144, Note_on_c, 0, 64, 0
2, 23160, Note_on_c, 0, 64, 76
2, 23160, Note_on_c, 0, 69, 76
2, 23264, Note_on_c, 0, 69, 0
2, 23264, Note_on_c, 0, 64, 0
2, 23280, Note_on_c, 0, 64, 79
2, 23280, Note_on_c, 0, 69, 79
2, 23384, Note_on_c, 0, 69, 0
2, 23384, Note_on_c, 0, 64, 0
2, 23400, Note_on_c, 0, 65, 79
2, 23400, Note_on_c, 0, 69, 79
2, 23504, Note_on_c, 0, 69, 0
2, 23504, Note_on_c, 0, 65, 0
2, 23520, Note_on_c, 0, 66, 81
2, 23520, Note_on_c, 0, 69, 81
2, 23624, Note_on_c, 0, 69, 0
2, 23624, Note_on_c, 0, 66, 0
2, 23640, Note_on_c, 0, 66, 81
2, 23640, Note_on_c, 0, 69, 81
2, 23744, Note_on_c, 0, 69, 0
2, 23744, Note_on_c, 0, 66, 0
2, 23760, Note_on_c, 0, 66, 78
2, 23760, Note_on_c, 0, 69, 78
2, 23864, Note_on_c, 0, 69, 0
2, 23864, Note_on_c, 0, 66, 0
2, 23880, Note_on_c, 0, 66, 76
2, 23880, Note_on_c, 0, 69, 76
2, 23984, Note_on_c, 0, 69, 0
2, 23984, Note_on_c, 0, 66, 0
2, 24000, Note_on_c, 0, 65, 76
2, 24000, Note_on_c, 0, 69, 76
2, 24104, Note_on_c, 0, 69, 0
2, 24104, Note_on_c, 0, 65, 0
2, 24120, Note_on_c, 0, 64, 76
2, 24120, Note_on_c, 0, 69, 76
2, 24224, Note_on_c, 0, 69, 0
2, 24224, Note_on_c, 0, 64, 0
2, 24240, Note_on_c, 0, 63, 73
2, 24240, Note_on_c, 0, 69, 73
2, 24344, Note_on_c, 0, 69, 0
2, 24344, Note_on_c, 0, 63, 0
2, 24360, Note_on_c, 0, 62, 71
2, 24360, Note_on_c, 0, 69, 71
2, 24464, Note_on_c, 0, 69, 0
2, 24464, Note_on_c, 0, 62, 0
2, 24480, Note_on_c, 0, 61, 70
2, 24480, Note_on_c, 0, 69, 70
2, 24584, Note_on_c, 0, 69, 0
2, 24584, Note_on_c, 0, 61, 0
2, 24600, Note_on_c, 0, 81, 72
2, 24704, Note_on_c, 0, 81, 0
2, 24720, Note_on_c, 0, 81, 72
2, 24824, Note_on_c, 0, 81, 0
2, 24840, Note_on_c, 0, 81, 72
2, 24944, Note_on_c, 0, 81, 0
2, 24960, Note_on_c, 0, 81, 73
2, 25064, Note_on_c, 0, 81, 0
2, 25080, Note_on_c, 0, 81, 76
2, 25184, Note_on_c, 0, 81, 0
2, 25200, Note_on_c, 0, 81, 76
2, 25304, Note_on_c, 0, 81, 0
2, 25320, Note_on_c, 0, 81, 76
2, 25424, Note_on_c, 0, 81, 0
2, 25440, Note_on_c, 0, 81, 74
2, 25544, Note_on_c, 0, 81, 0
2, 25560, Note_on_c, 0, 81, 73
2, 25664, Note_on_c, 0, 81, 0
2, 25680, Note_on_c, 0, 81, 73
2, 25784, Note_on_c, 0, 81, 0
2, 25800, Note_on_c, 0, 81, 74
2, 25904, Note_on_c, 0, 81, 0
2, 25920, Note_on_c, 0, 81, 76
2, 25920, Note_on_c, 0, 83, 76
2, 26024, Note_on_c, 0, 83, 0
2, 26024, Note_on_c, 0, 81, 0
2, 26040, Note_on_c, 0, 81, 79
2, 26040, Note_on_c, 0, 85, 79
2, 26144, Note_on_c, 0, 85, 0
2, 26144, Note_on_c, 0, 81, 0
2, 26160, Note_on_c, 0, 81, 79
2, 26160, Note_on_c, 0, 86, 79
2, 26264, Note_on_c, 0, 86, 0
2, 26264, Note_on_c, 0, 81, 0
2, 26280, Note_on_c, 0, 81, 75
2, 26280, Note_on_c, 0, 87, 75
2, 26384, Note_on_c, 0, 87, 0
2, 26384, Note_on_c, 0, 81, 0
2, 26400, Note_on_c, 0, 79, 79
2, 26400, Note_on_c, 0, 82, 79
2, 26400, Note_on_c, 0, 88, 79
2, 26608, Note_on_c, 0, 88, 0
2, 26608, Note_on_c, 0, 82, 0
2, 26608, Note_on_c, 0, 79, 0
2, 26850, Note_on_c, 0, 70, 97
2, 26865, Note_on_c, 0, 76, 100
2, 26880, Note_on_c, 0, 79, 103
2, 27090, Note_on_c, 0, 79, 0
2, 27090, Note_on_c, 0, 76, 0
2, 27090, Note_on_c, 0, 70, 0
2, 27090, Note_on_c, 0, 73, 102
2, 27105, Note_on_c, 0, 79, 103
2, 27120, Note_on_c, 0, 82, 104
2, 27330, Note_on_c, 0, 82, 0
2, 27330, Note_on_c, 0, 79, 0
2, 27330, Note_on_c, 0, 73, 0
2, 27330, Note_on_c, 0, 64, 97
2, 27345, Note_on_c, 0, 69, 100
2, 27360, Note_on_c, 0, 73, 102
2, 27570, Note_on_c, 0, 73, 0
2, 27570, Note_on_c, 0, 69, 0
2, 27570, Note_on_c, 0, 64, 0
2, 27840, Note_on_c, 0, 74, 69
2, 28080, Note_on_c, 0, 81, 73
2, 28096, Note_on_c, 0, 74, 0
2, 28560, Note_on_c, 0, 79, 82
2, 28572, Note_on_c, 0, 81, 0
2, 28680, Note_on_c, 0, 78, 76
2, 28692, Note_on_c, 0, 79, 0
2, 28784, Note_on_c, 0, 78, 0
2, 28800, Note_on_c, 0, 76, 74
2, 29040, Note_on_c, 0, 79, 76
2, 29056, Note_on_c, 0, 76, 0
2, 29520, Note_on_c, 0, 78, 81
2, 29536, Note_on_c, 0, 79, 0
2, 29640, Note_on_c, 0, 76, 74
2, 29652, Note_on_c, 0, 78, 0
2, 29744, Note_on_c, 0, 76, 0
2, 29760, Note_on_c, 0, 74, 72
2, 30120, Note_on_c, 0, 76, 79
2, 30132, Note_on_c, 0, 74, 0
2, 30180, Note_on_c, 0, 74, 77
2, 30192, Note_on_c, 0, 76, 0
2, 30240, Note_on_c, 0, 73, 77
2, 30252, Note_on_c, 0, 74, 0
2, 30300, Note_on_c, 0, 74, 77
2, 30312, Note_on_c, 0, 73, 0
2, 30360, Note_on_c, 0, 76, 79
2, 30372, Note_on_c, 0, 74, 0
2, 30420, Note_on_c, 0, 78, 82
2, 30432, Note_on_c, 0, 76, 0
2, 30480, Note_on_c, 0, 79, 85
2, 30492, Note_on_c, 0, 78, 0
2, 30540, Note_on_c, 0, 81, 85
2, 30552, Note_on_c, 0, 79, 0
2, 30600, Note_on_c, 0, 83, 88
2, 30612, Note_on_c, 0, 81, 0
2, 30660, Note_on_c, 0, 81, 88
2, 30672, Note_on_c, 0, 83, 0
2, 30712, Note_on_c, 0, 81, 0
2, 30720, Note_on_c, 0, 79, 82
2, 31080, Note_on_c, 0, 81, 80
2, 31096, Note_on_c, 0, 79, 0
2, 31140, Note_on_c, 0, 79, 76
2, 31152, Note_on_c, 0, 81, 0
2, 31200, Note_on_c, 0, 78, 72
2, 31212, Note_on_c, 0, 79, 0
2, 31408, Note_on_c, 0, 78, 0
2, 31680, Note_on_c, 0, 62, 80
2, 31784, Note_on_c, 0, 62, 0
2, 31800, Note_on_c, 0, 64, 76
2, 31852, Note_on_c, 0, 64, 0
2, 31860, Note_on_c, 0, 66, 76
2, 31912, Note_on_c, 0, 66, 0
2, 31920, Note_on_c, 0, 67, 76
2, 31972, Note_on_c, 0, 67, 0
2, 31980, Note_on_c, 0, 69, 76
2, 32032, Note_on_c, 0, 69, 0
2, 32040, Note_on_c, 0, 71, 76
2, 32092, Note_on_c, 0, 71, 0
2, 32100, Note_on_c, 0, 73, 76
2, 32152, Note_on_c, 0, 73, 0
2, 32160, Note_on_c, 0, 74, 76
2, 32212, Note_on_c, 0, 74, 0
2, 32220, Note_on_c, 0, 76, 76
2, 32272, Note_on_c, 0, 76, 0
2, 32280, Note_on_c, 0, 78, 76
2, 32332, Note_on_c, 0, 78, 0
2, 32340, Note_on_c, 0, 79, 76
2, 32392, Note_on_c, 0, 79, 0
2, 32400, Note_on_c, 0, 81, 76
2, 32452, Note_on_c, 0, 81, 0
2, 32460, Note_on_c, 0, 83, 76
2, 32512, Note_on_c, 0, 83, 0
2, 32520, Note_on_c, 0, 85, 76
2, 32572, Note_on_c, 0, 85, 0
2, 32580, Note_on_c, 0, 86, 74
2, 32632, Note_on_c, 0, 86, 0
2, 32640, Note_on_c, 0, 85, 73
2, 32692, Note_on_c, 0, 85, 0
2, 32700, Note_on_c, 0, 83, 73
2, 32752, Note_on_c, 0, 83, 0
2, 32760, Note_on_c, 0, 82, 73
2, 32812, Note_on_c, 0, 82, 0
2, 32820, Note_on_c, 0, 83, 73
2, 32872, Note_on_c, 0, 83, 0
2, 32880, Note_on_c, 0, 81, 75
2, 32932, Note_on_c, 0, 81, 0
2, 32940, Note_on_c, 0, 79, 76
2, 32992, Note_on_c, 0, 79, 0
2, 33000, Note_on_c, 0, 78, 77
2, 33052, Note_on_c, 0, 78, 0
2, 33060, Note_on_c, 0, 79, 77
2, 33112, Note_on_c, 0, 79, 0
2, 33120, Note_on_c, 0, 78, 77
2, 33172, Note_on_c, 0, 78, 0
2, 33180, Note_on_c, 0, 76, 77
2, 33232, Note_on_c, 0, 76, 0
2, 33240, Note_on_c, 0, 75, 77
2, 33292, Note_on_c, 0, 75, 0
2, 33300, Note_on_c, 0, 76, 77
2, 33352, Note_on_c, 0, 76, 0
2, 33360, Note_on_c, 0, 78, 76
2, 33412, Note_on_c, 0, 78, 0
2, 33420, Note_on_c, 0, 76, 74
2, 33472, Note_on_c, 0, 76, 0
2, 33480, Note_on_c, 0, 79, 73
2, 33532, Note_on_c, 0, 79, 0
2, 33540, Note_on_c, 0, 76, 73
2, 33592, Note_on_c, 0, 76, 0
2, 33600, Note_on_c, 0, 81, 73
2, 33780, Note_on_c, 0, 78, 82
2, 33795, Note_on_c, 0, 81, 0
2, 33832, Note_on_c, 0, 78, 0
2, 33840, Note_on_c, 0, 74, 76
2, 34320, Note_on_c, 0, 73, 79
2, 34320, Note_on_c, 0, 78, 79
2, 34336, Note_on_c, 0, 74, 0
2, 34440, Note_on_c, 0, 76, 78
2, 34456, Note_on_c, 0, 78, 0
2, 34544, Note_on_c, 0, 76, 0
2, 34544, Note_on_c, 0, 73, 0
2, 34560, Note_on_c, 0, 74, 73
2, 34980, Note_on_c, 0, 74, 0
2, 35520, Note_on_c, 0, 73, 82
2, 36000, Note_on_c, 0, 69, 87
2, 36014, Note_on_c, 0, 73, 0
2, 36240, Note_on_c, 0, 85, 77
2, 36256, Note_on_c, 0, 69, 0
2, 36448, Note_on_c, 0, 85, 0
2, 36480, Note_on_c, 0, 86, 68
2, 36500, Note_on_c, 0, 86, 0
2, 36540, Note_on_c, 0, 81, 68
2, 36600, Note_on_c, 0, 80, 68
2, 36612, Note_on_c, 0, 81, 0
2, 36660, Note_on_c, 0, 83, 68
2, 36672, Note_on_c, 0, 80, 0
2, 36720, Note_on_c, 0, 81, 68
2, 36732, Note_on_c, 0, 83, 0
2, 36780, Note_on_c, 0, 78, 68
2, 36792, Note_on_c, 0, 81, 0
2, 36840, Note_on_c, 0, 76, 68
2, 36852, Note_on_c, 0, 78, 0
2, 36900, Note_on_c, 0, 79, 68
2, 36912, Note_on_c, 0, 76, 0
2, 36960, Note_on_c, 0, 78, 68
2, 36972, Note_on_c, 0, 79, 0
2, 37020, Note_on_c, 0, 74, 68
2, 37032, Note_on_c, 0, 78, 0
2, 37080, Note_on_c, 0, 73, 68
2, 37092, Note_on_c, 0, 74, 0
2, 37140, Note_on_c, 0, 76, 68
2, 37152, Note_on_c, 0, 73, 0
2, 37192, Note_on_c, 0, 76, 0
2, 37200, Note_on_c, 0, 74, 68
2, 37252, Note_on_c, 0, 74, 0
2, 37260, Note_on_c, 0, 69, 68
2, 37312, Note_on_c, 0, 69, 0
2, 37320, Note_on_c, 0, 68, 68
2, 37372, Note_on_c, 0, 68, 0
2, 37380, Note_on_c, 0, 71, 69
2, 37432, Note_on_c, 0, 71, 0
2, 37440, Note_on_c, 0, 69, 72
2, 37500, Note_on_c, 0, 71, 76
2, 37512, Note_on_c, 0, 69, 0
2, 37560, Note_on_c, 0, 69, 74
2, 37572, Note_on_c, 0, 71, 0
2, 37620, Note_on_c, 0, 68, 72
2, 37632, Note_on_c, 0, 69, 0
2, 37672, Note_on_c, 0, 68, 0
2, 37680, Note_on_c, 0, 69, 73
2, 37700, Note_on_c, 0, 69, 0
2, 37740, Note_on_c, 0, 70, 73
2, 37760, Note_on_c, 0, 70, 0
2, 37800, Note_on_c, 0, 71, 71
2, 37820, Note_on_c, 0, 71, 0
2, 37860, Note_on_c, 0, 72, 71
2, 37880, Note_on_c, 0, 72, 0
2, 37920, Note_on_c, 0, 73, 67
2, 37940, Note_on_c, 0, 73, 0
2, 37980, Note_on_c, 0, 74, 67
2, 38000, Note_on_c, 0, 74, 0
2, 38040, Note_on_c, 0, 76, 68
2, 38060, Note_on_c, 0, 76, 0
2, 38100, Note_on_c, 0, 78, 70
2, 38120, Note_on_c, 0, 78, 0
2, 38160, Note_on_c, 0, 79, 70
2, 38180, Note_on_c, 0, 79, 0
2, 38220, Note_on_c, 0, 81, 70
2, 38240, Note_on_c, 0, 81, 0
2, 38280, Note_on_c, 0, 83, 70
2, 38300, Note_on_c, 0, 83, 0
2, 38340, Note_on_c, 0, 85, 70
2, 38360, Note_on_c, 0, 85, 0
2, 38400, Note_on_c, 0, 85, 79
2, 38880, Note_on_c, 0, 86, 73
2, 38896, Note_on_c, 0, 85, 0
2, 39088, Note_on_c, 0, 86, 0
2, 39360, Note_on_c, 0, 67, 97
2, 39360, Note_on_c, 0, 73, 97
2, 39360, Note_on_c, 0, 76, 97
2, 39568, Note_on_c, 0, 76, 0
2, 39568, Note_on_c, 0, 73, 0
2, 39568, Note_on_c, 0, 67, 0
2, 39600, Note_on_c, 0, 73, 100
2, 39600, Note_on_c, 0, 76, 100
2, 39600, Note_on_c, 0, 79, 100
2, 39808, Note_on_c, 0, 79, 0
2, 39808, Note_on_c, 0, 76, 0
2, 39808, Note_on_c, 0, 73, 0
2, 39840, Note_on_c, 0, 61, 93
2, 39840, Note_on_c, 0, 64, 93
2, 39840, Note_on_c, 0, 66, 93
2, 40048, Note_on_c, 0, 66, 0
2, 40048, Note_on_c, 0, 64, 0
2, 40048, Note_on_c, 0, 61, 0
2, 40320, Note_on_c, 0, 71, 77
2, 40800, Note_on_c, 0, 66, 77
2, 40820, Note_on_c, 0, 71, 0
2, 41040, Note_on_c, 0, 74, 77
2, 41052, Note_on_c, 0, 66, 0
2, 41248, Note_on_c, 0, 74, 0
2, 41280, Note_on_c, 0, 74, 100
2, 41280, Note_on_c, 0, 68, 100
2, 41760, Note_on_c, 0, 73, 82
2, 41772, Note_on_c, 0, 74, 0
2, 42000, Note_on_c, 0, 71, 82
2, 42012, Note_on_c, 0, 73, 0
2, 42204, Note_on_c, 0, 68, 0
2, 42208, Note_on_c, 0, 71, 0
2, 42240, Note_on_c, 0, 66, 97
2, 42240, Note_on_c, 0, 71, 97
2, 42660, Note_on_c, 0, 71, 0
2, 42660, Note_on_c, 0, 66, 0
2, 42720, Note_on_c, 0, 70, 82
2, 42900, Note_on_c, 0, 76, 82
2, 42910, Note_on_c, 0, 70, 0
2, 42952, Note_on_c, 0, 76, 0
2, 42960, Note_on_c, 0, 73, 82
2, 43140, Note_on_c, 0, 70, 82
2, 43152, Note_on_c, 0, 73, 0
2, 43192, Note_on_c, 0, 70, 0
2, 43200, Note_on_c, 0, 73, 82
2, 43320, Note_on_c, 0, 71, 82
2, 43332, Note_on_c, 0, 73, 0
2, 43412, Note_on_c, 0, 71, 0
2, 43440, Note_on_c, 0, 74, 82
2, 43560, Note_on_c, 0, 73, 82
2, 43572, Note_on_c, 0, 74, 0
2, 43653, Note_on_c, 0, 73, 0
2, 43680, Note_on_c, 0, 76, 82
2, 43800, Note_on_c, 0, 74, 82
2, 43814, Note_on_c, 0, 76, 0
2, 43891, Note_on_c, 0, 74, 0
2, 44400, Note_on_c, 0, 71, 97
2, 44400, Note_on_c, 0, 83, 97
2, 44880, Note_on_c, 0, 70, 103
2, 44880, Note_on_c, 0, 82, 103
2, 44901, Note_on_c, 0, 71, 0
2, 44902, Note_on_c, 0, 83, 0
2, 45120, Note_on_c, 0, 70, 0
2, 45124, Note_on_c, 0, 82, 0
2, 45360, Note_on_c, 0, 79, 80
2, 45540, Note_on_c, 0, 81, 82
2, 45552, Note_on_c, 0, 79, 0
2, 45600, Note_on_c, 0, 79, 85
2, 45609, Note_on_c, 0, 81, 0
2, 45840, Note_on_c, 0, 78, 81
2, 45856, Note_on_c, 0, 79, 0
2, 46080, Note_on_c, 0, 78, 0
2, 46320, Note_on_c, 0, 67, 101
2, 46320, Note_on_c, 0, 79, 101
2, 46800, Note_on_c, 0, 66, 97
2, 46800, Note_on_c, 0, 78, 97
2, 46821, Note_on_c, 0, 79, 0
2, 46821, Note_on_c, 0, 67, 0
2, 47040, Note_on_c, 0, 66, 0
2, 47040, Note_on_c, 0, 78, 0
2, 47280, Note_on_c, 0, 76, 77
2, 47460, Note_on_c, 0, 78, 81
2, 47472, Note_on_c, 0, 76, 0
2, 47520, Note_on_c, 0, 76, 83
2, 47532, Note_on_c, 0, 78, 0
2, 47760, Note_on_c, 0, 75, 82
2, 47776, Note_on_c, 0, 76, 0
2, 47968, Note_on_c, 0, 75, 0
2, 48000, Note_on_c, 0, 76, 82
2, 48120, Note_on_c, 0, 83, 82
2, 48131, Note_on_c, 0, 76, 0
2, 48240, Note_on_c, 0, 81, 82
2, 48253, Note_on_c, 0, 83, 0
2, 48300, Note_on_c, 0, 79, 82
2, 48311, Note_on_c, 0, 81, 0
2, 48360, Note_on_c, 0, 78, 82
2, 48371, Note_on_c, 0, 79, 0
2, 48420, Note_on_c, 0, 76, 82
2, 48432, Note_on_c, 0, 78, 0
2, 48460, Note_on_c, 0, 76, 0
2, 48480, Note_on_c, 0, 76, 94
2, 48720, Note_on_c, 0, 75, 88
2, 48736, Note_on_c, 0, 76, 0
2, 48928, Note_on_c, 0, 75, 0
2, 48960, Note_on_c, 0, 76, 82
2, 49080, Note_on_c, 0, 83, 82
2, 49092, Note_on_c, 0, 76, 0
2, 49200, Note_on_c, 0, 84, 82
2, 49212, Note_on_c, 0, 83, 0
2, 49260, Note_on_c, 0, 83, 82
2, 49269, Note_on_c, 0, 84, 0
2, 49320, Note_on_c, 0, 81, 82
2, 49331, Note_on_c, 0, 83, 0
2, 49380, Note_on_c, 0, 79, 82
2, 49391, Note_on_c, 0, 81, 0
2, 49428, Note_on_c, 0, 79, 0
2, 49440, Note_on_c, 0, 78, 98
2, 49680, Note_on_c, 0, 77, 91
2, 49692, Note_on_c, 0, 78, 0
2, 49888, Note_on_c, 0, 77, 0
2, 49920, Note_on_c, 0, 78, 82
2, 50100, Note_on_c, 0, 73, 82
2, 50103, Note_on_c, 0, 78, 0
2, 50152, Note_on_c, 0, 73, 0
2, 50160, Note_on_c, 0, 73, 82
2, 50160, Note_on_c, 0, 76, 82
2, 50640, Note_on_c, 0, 71, 82
2, 50640, Note_on_c, 0, 74, 82
2, 50656, Note_on_c, 0, 76, 0
2, 50656, Note_on_c, 0, 73, 0
2, 50848, Note_on_c, 0, 71, 0
2, 50848, Note_on_c, 0, 74, 0
2, 50880, Note_on_c, 0, 74, 91
2, 50880, Note_on_c, 0, 78, 91
2, 51240, Note_on_c, 0, 73, 76
2, 51240, Note_on_c, 0, 76, 76
2, 51251, Note_on_c, 0, 78, 0
2, 51254, Note_on_c, 0, 74, 0
2, 51300, Note_on_c, 0, 71, 72
2, 51300, Note_on_c, 0, 74, 72
2, 51311, Note_on_c, 0, 76, 0
2, 51312, Note_on_c, 0, 73, 0
2, 51360, Note_on_c, 0, 70, 70
2, 51360, Note_on_c, 0, 73, 70
2, 51371, Note_on_c, 0, 71, 0
2, 51372, Note_on_c, 0, 74, 0
2, 51540, Note_on_c, 0, 70, 0
2, 51540, Note_on_c, 0, 73, 0
2, 52800, Note_on_c, 0, 77, 96
2, 52800, Note_on_c, 0, 68, 96
2, 53280, Note_on_c, 0, 76, 82
2, 53296, Note_on_c, 0, 77, 0
2, 53520, Note_on_c, 0, 74, 82
2, 53536, Note_on_c, 0, 76, 0
2, 53724, Note_on_c, 0, 68, 0
2, 53728, Note_on_c, 0, 74, 0
2, 53760, Note_on_c, 0, 68, 79
2, 53760, Note_on_c, 0, 74, 79
2, 53880, Note_on_c, 0, 69, 74
2, 53880, Note_on_c, 0, 73, 74
2, 53892, Note_on_c, 0, 74, 0
2, 53892, Note_on_c, 0, 68, 0
2, 53984, Note_on_c, 0, 69, 0
2, 53984, Note_on_c, 0, 73, 0
2, 54120, Note_on_c, 0, 67, 73
2, 54120, Note_on_c, 0, 71, 73
2, 54224, Note_on_c, 0, 71, 0
2, 54224, Note_on_c, 0, 67, 0
2, 54360, Note_on_c, 0, 66, 77
2, 54360, Note_on_c, 0, 69, 77
2, 54464, Note_on_c, 0, 69, 0
2, 54464, Note_on_c, 0, 66, 0
2, 54600, Note_on_c, 0, 64, 79
2, 54600, Note_on_c, 0, 67, 79
2, 54704, Note_on_c, 0, 67, 0
2, 54704, Note_on_c, 0, 64, 0
2, 54720, Note_on_c, 0, 66, 77
2, 54720, Note_on_c, 0, 69, 77
2, 54780, Note_on_c, 0, 64, 81
2, 54780, Note_on_c, 0, 67, 81
2, 54796, Note_on_c, 0, 69, 0
2, 54796, Note_on_c, 0, 66, 0
2, 54840, Note_on_c, 0, 62, 79
2, 54840, Note_on_c, 0, 66, 79
2, 54856, Note_on_c, 0, 64, 0
2, 54856, Note_on_c, 0, 67, 0
2, 54900, Note_on_c, 0, 64, 82
2, 54900, Note_on_c, 0, 67, 82
2, 54904, Note_on_c, 0, 66, 0
2, 54916, Note_on_c, 0, 62, 0
2, 54960, Note_on_c, 0, 62, 80
2, 54960, Note_on_c, 0, 66, 80
2, 54972, Note_on_c, 0, 67, 0
2, 54976, Note_on_c, 0, 64, 0
2, 55064, Note_on_c, 0, 62, 0
2, 55064, Note_on_c, 0, 66, 0
2, 55920, Note_on_c, 0, 61, 107
2, 55920, Note_on_c, 0, 73, 107
2, 56400, Note_on_c, 0, 62, 85
2, 56400, Note_on_c, 0, 74, 85
2, 56412, Note_on_c, 0, 73, 0
2, 56416, Note_on_c, 0, 61, 0
2, 56608, Note_on_c, 0, 62, 0
2, 56608, Note_on_c, 0, 74, 0
2, 56880, Note_on_c, 0, 73, 106
2, 56880, Note_on_c, 0, 85, 106
2, 57340, Note_on_c, 0, 85, 0
2, 57344, Note_on_c, 0, 73, 0
2, 57360, Note_on_c, 0, 74, 75
2, 57360, Note_on_c, 0, 86, 75
2, 57480, Note_on_c, 0, 83, 75
2, 57496, Note_on_c, 0, 86, 0
2, 57600, Note_on_c, 0, 74, 0
2, 57600, Note_on_c, 0, 81, 76
2, 57616, Note_on_c, 0, 83, 0
2, 57840, Note_on_c, 0, 80, 76
2, 57856, Note_on_c, 0, 81, 0
2, 58048, Note_on_c, 0, 80, 0
2, 58080, Note_on_c, 0, 79, 76
2, 58320, Note_on_c, 0, 78, 80
2, 58336, Note_on_c, 0, 79, 0
2, 58380, Note_on_c, 0, 79, 81
2, 58393, Note_on_c, 0, 78, 0
2, 58440, Note_on_c, 0, 80, 78
2, 58450, Note_on_c, 0, 79, 0
2, 58500, Note_on_c, 0, 81, 73
2, 58512, Note_on_c, 0, 80, 0
2, 58548, Note_on_c, 0, 81, 0
2, 58560, Note_on_c, 0, 81, 77
2, 58920, Note_on_c, 0, 78, 81
2, 58932, Note_on_c, 0, 81, 0
2, 59016, Note_on_c, 0, 78, 0
2, 59040, Note_on_c, 0, 76, 73
2, 59230, Note_on_c, 0, 76, 0
2, 59520, Note_on_c, 0, 66, 95
2, 59520, Note_on_c, 0, 69, 95
2, 59624, Note_on_c, 0, 69, 0
2, 59624, Note_on_c, 0, 66, 0
2, 59640, Note_on_c, 0, 66, 98
2, 59640, Note_on_c, 0, 69, 98
2, 59744, Note_on_c, 0, 69, 0
2, 59744, Note_on_c, 0, 66, 0
2, 59760, Note_on_c, 0, 66, 97
2, 59760, Note_on_c, 0, 69, 97
2, 59864, Note_on_c, 0, 69, 0
2, 59864, Note_on_c, 0, 66, 0
2, 59880, Note_on_c, 0, 66, 99
2, 59880, Note_on_c, 0, 69, 99
2, 59984, Note_on_c, 0, 69, 0
2, 59984, Note_on_c, 0, 66, 0
2, 60000, Note_on_c, 0, 66, 90
2, 60000, Note_on_c, 0, 69, 90
2, 60104, Note_on_c, 0, 69, 0
2, 60104, Note_on_c, 0, 66, 0
2, 60120, Note_on_c, 0, 66, 94
2, 60120, Note_on_c, 0, 69, 94
2, 60224, Note_on_c, 0, 69, 0
2, 60224, Note_on_c, 0, 66, 0
2, 60240, Note_on_c, 0, 66, 88
2, 60240, Note_on_c, 0, 69, 88
2, 60344, Note_on_c, 0, 69, 0
2, 60344, Note_on_c, 0, 66, 0
2, 60360, Note_on_c, 0, 66, 83
2, 60360, Note_on_c, 0, 69, 83
2, 60464, Note_on_c, 0, 69, 0
2, 60464, Note_on_c, 0, 66, 0
2, 60480, Note_on_c, 0, 66, 70
2, 60480, Note_on_c, 0, 69, 70
2, 60584, Note_on_c, 0, 69, 0
2, 60584, Note_on_c, 0, 66, 0
2, 60600, Note_on_c, 0, 66, 76
2, 60600, Note_on_c, 0, 69, 76
2, 60704, Note_on_c, 0, 69, 0
2, 60704, Note_on_c, 0, 66, 0
2, 60720, Note_on_c, 0, 66, 76
2, 60720, Note_on_c, 0, 69, 76
2, 60824, Note_on_c, 0, 69, 0
2, 60824, Note_on_c, 0, 66, 0
2, 60840, Note_on_c, 0, 66, 76
2, 60840, Note_on_c, 0, 69, 76
2, 60944, Note_on_c, 0, 69, 0
2, 60944, Note_on_c, 0, 66, 0
2, 60960, Note_on_c, 0, 67, 73
2, 60960, Note_on_c, 0, 69, 73
2, 61064, Note_on_c, 0, 69, 0
2, 61064, Note_on_c, 0, 67, 0
2, 61080, Note_on_c, 0, 67, 73
2, 61080, Note_on_c, 0, 69, 73
2, 61184, Note_on_c, 0, 69, 0
2, 61184, Note_on_c, 0, 67, 0
2, 61200, Note_on_c, 0, 67, 75
2, 61200, Note_on_c, 0, 69, 75
2, 61304, Note_on_c, 0, 69, 0
2, 61304, Note_on_c, 0, 67, 0
2, 61320, Note_on_c, 0, 67, 75
2, 61320, Note_on_c, 0, 69, 75
2, 61424, Note_on_c, 0, 69, 0
2, 61424, Note_on_c, 0, 67, 0
2, 61440, Note_on_c, 0, 61, 96
2, 61440, Note_on_c, 0, 67, 96
2, 61440, Note_on_c, 0, 69, 96
2, 61544, Note_on_c, 0, 69, 0
2, 61544, Note_on_c, 0, 67, 0
2, 61544, Note_on_c, 0, 61, 0
2, 61560, Note_on_c, 0, 61, 94
2, 61560, Note_on_c, 0, 67, 94
2, 61560, Note_on_c, 0, 69, 94
2, 61664, Note_on_c, 0, 69, 0
2, 61664, Note_on_c, 0, 67, 0
2, 61664, Note_on_c, 0, 61, 0
2, 61680, Note_on_c, 0, 61, 94
2, 61680, Note_on_c, 0, 67, 94
2, 61680, Note_on_c, 0, 69, 94
2, 61784, Note_on_c, 0, 69, 0
2, 61784, Note_on_c, 0, 67, 0
2, 61784, Note_on_c, 0, 61, 0
2, 61800, Note_on_c, 0, 61, 95
2, 61800, Note_on_c, 0, 67, 95
2, 61800, Note_on_c, 0, 69, 95
2, 61904, Note_on_c, 0, 69, 0
2, 61904, Note_on_c, 0, 67, 0
2, 61904, Note_on_c, 0, 61, 0
2, 61920, Note_on_c, 0, 61, 95
2, 61920, Note_on_c, 0, 67, 95
2, 61920, Note_on_c, 0, 69, 95
2, 62024, Note_on_c, 0, 69, 0
2, 62024, Note_on_c, 0, 67, 0
2, 62024, Note_on_c, 0, 61, 0
2, 62040, Note_on_c, 0, 61, 94
2, 62040, Note_on_c, 0, 67, 94
2, 62040, Note_on_c, 0, 69, 94
2, 62144, Note_on_c, 0, 69, 0
2, 62144, Note_on_c, 0, 67, 0
2, 62144, Note_on_c, 0, 61, 0
2, 62160, Note_on_c, 0, 61, 93
2, 62160, Note_on_c, 0, 67, 93
2, 62160, Note_on_c, 0, 69, 93
2, 62264, Note_on_c, 0, 69, 0
2, 62264, Note_on_c, 0, 67, 0
2, 62264, Note_on_c, 0, 61, 0
2, 62280, Note_on_c, 0, 61, 90
2, 62280, Note_on_c, 0, 67, 90
2, 62280, Note_on_c, 0, 69, 90
2, 62384, Note_on_c, 0, 69, 0
2, 62384, Note_on_c, 0, 67, 0
2, 62384, Note_on_c, 0, 61, 0
2, 62400, Note_on_c, 0, 61, 70
2, 62400, Note_on_c, 0, 67, 70
2, 62400, Note_on_c, 0, 69, 70
2, 62504, Note_on_c, 0, 69, 0
2, 62504, Note_on_c, 0, 67, 0
2, 62504, Note_on_c, 0, 61, 0
2, 62520, Note_on_c, 0, 61, 76
2, 62520, Note_on_c, 0, 67, 76
2, 62520, Note_on_c, 0, 69, 76
2, 62624, Note_on_c, 0, 69, 0
2, 62624, Note_on_c, 0, 67, 0
2, 62624, Note_on_c, 0, 61, 0
2, 62640, Note_on_c, 0, 61, 70
2, 62640, Note_on_c, 0, 67, 70
2, 62640, Note_on_c, 0, 69, 70
2, 62744, Note_on_c, 0, 69, 0
2, 62744, Note_on_c, 0, 67, 0
2, 62744, Note_on_c, 0, 61, 0
2, 62760, Note_on_c, 0, 61, 73
2, 62760, Note_on_c, 0, 67, 73
2, 62760, Note_on_c, 0, 69, 73
2, 62864, Note_on_c, 0, 69, 0
2, 62864, Note_on_c, 0, 67, 0
2, 62864, Note_on_c, 0, 61, 0
2, 62880, Note_on_c, 0, 62, 73
2, 62880, Note_on_c, 0, 66, 73
2, 62880, Note_on_c, 0, 69, 73
2, 62984, Note_on_c, 0, 69, 0
2, 62984, Note_on_c, 0, 66, 0
2, 62984, Note_on_c, 0, 62, 0
2, 63000, Note_on_c, 0, 62, 73
2, 63000, Note_on_c, 0, 69, 73
2, 63104, Note_on_c, 0, 69, 0
2, 63104, Note_on_c, 0, 62, 0
2, 63120, Note_on_c, 0, 62, 77
2, 63120, Note_on_c, 0, 69, 77
2, 63224, Note_on_c, 0, 69, 0
2, 63224, Note_on_c, 0, 62, 0
2, 63240, Note_on_c, 0, 63, 77
2, 63240, Note_on_c, 0, 69, 77
2, 63344, Note_on_c, 0, 69, 0
2, 63344, Note_on_c, 0, 63, 0
2, 63360, Note_on_c, 0, 64, 77
2, 63360, Note_on_c, 0, 69, 77
2, 63464, Note_on_c, 0, 69, 0
2, 63464, Note_on_c, 0, 64, 0
2, 63480, Note_on_c, 0, 64, 76
2, 63480, Note_on_c, 0, 69, 76
2, 63584, Note_on_c, 0, 69, 0
2, 63584, Note_on_c, 0, 64, 0
2, 63600, Note_on_c, 0, 64, 79
2, 63600, Note_on_c, 0, 69, 79
2, 63704, Note_on_c, 0, 69, 0
2, 63704, Note_on_c, 0, 64, 0
2, 63720, Note_on_c, 0, 65, 79
2, 63720, Note_on_c, 0, 69, 79
2, 63824, Note_on_c, 0, 69, 0
2, 63824, Note_on_c, 0, 65, 0
2, 63840, Note_on_c, 0, 66, 81
2, 63840, Note_on_c, 0, 69, 81
2, 63944, Note_on_c, 0, 69, 0
2, 63944, Note_on_c, 0, 66, 0
2, 63960, Note_on_c, 0, 66, 81
2, 63960, Note_on_c, 0, 69, 81
2, 64064, Note_on_c, 0, 69, 0
2, 64064, Note_on_c, 0, 66, 0
2, 64080, Note_on_c, 0, 66, 78
2, 64080, Note_on_c, 0, 69, 78
2, 64184, Note_on_c, 0, 69, 0
2, 64184, Note_on_c, 0, 66, 0
2, 64200, Note_on_c, 0, 66, 76
2, 64200, Note_on_c, 0, 69, 76
2, 64304, Note_on_c, 0, 69, 0
2, 64304, Note_on_c, 0, 66, 0
2, 64320, Note_on_c, 0, 65, 76
2, 64320, Note_on_c, 0, 69, 76
2, 64424, Note_on_c, 0, 69, 0
2, 64424, Note_on_c, 0, 65, 0
2, 64440, Note_on_c, 0, 64, 76
2, 64440, Note_on_c, 0, 69, 76
2, 64544, Note_on_c, 0, 69, 0
2, 64544, Note_on_c, 0, 64, 0
2, 64560, Note_on_c, 0, 63, 73
2, 64560, Note_on_c, 0, 69, 73
2, 64664, Note_on_c, 0, 69, 0
2, 64664, Note_on_c, 0, 63, 0
2, 64680, Note_on_c, 0, 62, 71
2, 64680, Note_on_c, 0, 69, 71
2, 64784, Note_on_c, 0, 69, 0
2, 64784, Note_on_c, 0, 62, 0
2, 64800, Note_on_c, 0, 61, 70
2, 64800, Note_on_c, 0, 69, 70
2, 64904, Note_on_c, 0, 69, 0
2, 64904, Note_on_c, 0, 61, 0
2, 64920, Note_on_c, 0, 81, 72
2, 65024, Note_on_c, 0, 81, 0
2, 65040, Note_on_c, 0, 81, 72
2, 65144, Note_on_c, 0, 81, 0
2, 65160, Note_on_c, 0, 81, 72
2, 65264, Note_on_c, 0, 81, 0
2, 65280, Note_on_c, 0, 81, 73
2, 65384, Note_on_c, 0, 81, 0
2, 65400, Note_on_c, 0, 81, 76
2, 65504, Note_on_c, 0, 81, 0
2, 65520, Note_on_c, 0, 81, 76
2, 65624, Note_on_c, 0, 81, 0
2, 65640, Note_on_c, 0, 81, 76
2, 65744, Note_on_c, 0, 81, 0
2, 65760, Note_on_c, 0, 81, 74
2, 65864, Note_on_c, 0, 81, 0
2, 65880, Note_on_c, 0, 81, 73
2, 65984, Note_on_c, 0, 81, 0
2, 66000, Note_on_c, 0, 81, 73
2, 66104, Note_on_c, 0, 81, 0
2, 66120, Note_on_c, 0, 81, 74
2, 66224, Note_on_c, 0, 81, 0
2, 66240, Note_on_c, 0, 81, 76
2, 66240, Note_on_c, 0, 83, 76
2, 66344, Note_on_c, 0, 83, 0
2, 66344, Note_on_c, 0, 81, 0
2, 66360, Note_on_c, 0, 81, 79
2, 66360, Note_on_c, 0, 85, 79
2, 66464, Note_on_c, 0, 85, 0
2, 66464, Note_on_c, 0, 81, 0
2, 66480, Note_on_c, 0, 81, 79
2, 66480, Note_on_c, 0, 86, 79
2, 66584, Note_on_c, 0, 86, 0
2, 66584, Note_on_c, 0, 81, 0
2, 66600, Note_on_c, 0, 81, 75
2, 66600, Note_on_c, 0, 87, 75
2, 66704, Note_on_c, 0, 87, 0
2, 66704, Note_on_c, 0, 81, 0
2, 66720, Note_on_c, 0, 79, 79
2, 66720, Note_on_c, 0, 82, 79
2, 66720, Note_on_c, 0, 88, 79
2, 66928, Note_on_c, 0, 88, 0
2, 66928, Note_on_c, 0, 82, 0
2, 66928, Note_on_c, 0, 79, 0
2, 67170, Note_on_c, 0, 70, 97
2, 67185, Note_on_c, 0, 76, 100
2, 67200, Note_on_c, 0, 79, 103
2, 67410, Note_on_c, 0, 79, 0
2, 67410, Note_on_c, 0, 76, 0
2, 67410, Note_on_c, 0, 70, 0
2, 67410, Note_on_c, 0, 73, 102
2, 67425, Note_on_c, 0, 79, 103
2, 67440, Note_on_c, 0, 82, 104
2, 67650, Note_on_c, 0, 82, 0
2, 67650, Note_on_c, 0, 79, 0
2, 67650, Note_on_c, 0, 73, 0
2, 67650, Note_on_c, 0, 64, 97
2, 67665, Note_on_c, 0, 69, 100
2, 67680, Note_on_c, 0, 73, 102
2, 67890, Note_on_c, 0, 73, 0
2, 67890, Note_on_c, 0, 69, 0
2, 67890, Note_on_c, 0, 64, 0
2, 68160, Note_on_c, 0, 74, 69
2, 68400, Note_on_c, 0, 81, 73
2, 68416, Note_on_c, 0, 74, 0
2, 68880, Note_on_c, 0, 79, 82
2, 68892, Note_on_c, 0, 81, 0
2, 69000, Note_on_c, 0, 78, 76
2, 69012, Note_on_c, 0, 79, 0
2, 69104, Note_on_c, 0, 78, 0
2, 69120, Note_on_c, 0, 76, 74
2, 69360, Note_on_c, 0, 79, 76
2, 69376, Note_on_c, 0, 76, 0
2, 69840, Note_on_c, 0, 78, 81
2, 69856, Note_on_c, 0, 79, 0
2, 69960, Note_on_c, 0, 76, 74
2, 69972, Note_on_c, 0, 78, 0
2, 70064, Note_on_c, 0, 76, 0
2, 70080, Note_on_c, 0, 74, 72
2, 70440, Note_on_c, 0, 76, 79
2, 70452, Note_on_c, 0, 74, 0
2, 70500, Note_on_c, 0, 74, 77
2, 70512, Note_on_c, 0, 76, 0
2, 70560, Note_on_c, 0, 73, 77
2, 70572, Note_on_c, 0, 74, 0
2, 70620, Note_on_c, 0, 74, 77
2, 70632, Note_on_c, 0, 73, 0
2, 70680, Note_on_c, 0, 76, 79
2, 70692, Note_on_c, 0, 74, 0
2, 70740, Note_on_c, 0, 78, 82
2, 70752, Note_on_c, 0, 76, 0
2, 70800, Note_on_c, 0, 79, 85
2, 70812, Note_on_c, 0, 78, 0
2, 70860, Note_on_c, 0, 81, 85
2, 70872, Note_on_c, 0, 79, 0
2, 70920, Note_on_c, 0, 83, 88
2, 70932, Note_on_c, 0, 81, 0
2, 70980, Note_on_c, 0, 81, 88
2, 70992, Note_on_c, 0, 83, 0
2, 71032, Note_on_c, 0, 81, 0
2, 71040, Note_on_c, 0, 79, 82
2, 71400, Note_on_c, 0, 81, 80
2, 71416, Note_on_c, 0, 79, 0
2, 71460, Note_on_c, 0, 79, 76
2, 71472, Note_on_c, 0, 81, 0
2, 71520, Note_on_c, 0, 78, 72
2, 71532, Note_on_c, 0, 79, 0
2, 71728, Note_on_c, 0, 78, 0
2, 72000, Note_on_c, 0, 62, 75
2, 72104, Note_on_c, 0, 62, 0
2, 72120, Note_on_c, 0, 64, 76
2, 72172, Note_on_c, 0, 64, 0
2, 72180, Note_on_c, 0, 66, 76
2, 72232, Note_on_c, 0, 66, 0
2, 72240, Note_on_c, 0, 67, 76
2, 72292, Note_on_c, 0, 67, 0
2, 72300, Note_on_c, 0, 69, 76
2, 72352, Note_on_c, 0, 69, 0
2, 72360, Note_on_c, 0, 71, 76
2, 72412, Note_on_c, 0, 71, 0
2, 72420, Note_on_c, 0, 73, 76
2, 72472, Note_on_c, 0, 73, 0
2, 72480, Note_on_c, 0, 74, 76
2, 72532, Note_on_c, 0, 74, 0
2, 72540, Note_on_c, 0, 76, 76
2, 72592, Note_on_c, 0, 76, 0
2, 72600, Note_on_c, 0, 78, 76
2, 72652, Note_on_c, 0, 78, 0
2, 72660, Note_on_c, 0, 79, 76
2, 72712, Note_on_c, 0, 79, 0
2, 72720, Note_on_c, 0, 81, 76
2, 72772, Note_on_c, 0, 81, 0
2, 72780, Note_on_c, 0, 83, 76
2, 72832, Note_on_c, 0, 83, 0
2, 72840, Note_on_c, 0, 85, 76
2, 72892, Note_on_c, 0, 85, 0
2, 72900, Note_on_c, 0, 86, 74
2, 72952, Note_on_c, 0, 86, 0
2, 72960, Note_on_c, 0, 85, 73
2, 73012, Note_on_c, 0, 85, 0
2, 73020, Note_on_c, 0, 83, 73
2, 73072, Note_on_c, 0, 83, 0
2, 73080, Note_on_c, 0, 82, 73
2, 73132, Note_on_c, 0, 82, 0
2, 73140, Note_on_c, 0, 83, 73
2, 73192, Note_on_c, 0, 83, 0
2, 73200, Note_on_c, 0, 81, 75
2, 73252, Note_on_c, 0, 81, 0
2, 73260, Note_on_c, 0, 79, 76
2, 73312, Note_on_c, 0, 79, 0
2, 73320, Note_on_c, 0, 78, 77
2, 73372, Note_on_c, 0, 78, 0
2, 73380, Note_on_c, 0, 79, 77
2, 73432, Note_on_c, 0, 79, 0
2, 73440, Note_on_c, 0, 78, 77
2, 73492, Note_on_c, 0, 78, 0
2, 73500, Note_on_c, 0, 76, 77
2, 73552, Note_on_c, 0, 76, 0
2, 73560, Note_on_c, 0, 75, 77
2, 73612, Note_on_c, 0, 75, 0
2, 73620, Note_on_c, 0, 76, 77
2, 73672, Note_on_c, 0, 76, 0
2, 73680, Note_on_c, 0, 78, 76
2, 73732, Note_on_c, 0, 78, 0
2, 73740, Note_on_c, 0, 76, 74
2, 73792, Note_on_c, 0, 76, 0
2, 73800, Note_on_c, 0, 79, 73
2, 73852, Note_on_c, 0, 79, 0
2, 73860, Note_on_c, 0, 76, 73
2, 73912, Note_on_c, 0, 76, 0
2, 73920, Note_on_c, 0, 81, 73
2, 74100, Note_on_c, 0, 78, 82
2, 74115, Note_on_c, 0, 81, 0
2, 74152, Note_on_c, 0, 78, 0
2, 74160, Note_on_c, 0, 74, 76
2, 74640, Note_on_c, 0, 73, 79
2, 74640, Note_on_c, 0, 78, 79
2, 74656, Note_on_c, 0, 74, 0
2, 74760, Note_on_c, 0, 76, 78
2, 74776, Note_on_c, 0, 78, 0
2, 74864, Note_on_c, 0, 76, 0
2, 74864, Note_on_c, 0, 73, 0
2, 74880, Note_on_c, 0, 74, 73
2, 75300, Note_on_c, 0, 74, 0
2, 75840, Note_on_c, 0, 73, 82
2, 76320, Note_on_c, 0, 69, 87
2, 76334, Note_on_c, 0, 73, 0
2, 76560, Note_on_c, 0, 85, 77
2, 76576, Note_on_c, 0, 69, 0
2, 76768, Note_on_c, 0, 85, 0
2, 76800, Note_on_c, 0, 86, 68
2, 76820, Note_on_c, 0, 86, 0
2, 76860, Note_on_c, 0, 81, 68
2, 76920, Note_on_c, 0, 80, 68
2, 76932, Note_on_c, 0, 81, 0
2, 76980, Note_on_c, 0, 83, 68
2, 76992, Note_on_c, 0, 80, 0
2, 77040, Note_on_c, 0, 81, 68
2, 77052, Note_on_c, 0, 83, 0
2, 77100, Note_on_c, 0, 78, 68
2, 77112, Note_on_c, 0, 81, 0
2, 77160, Note_on_c, 0, 76, 68
2, 77172, Note_on_c, 0, 78, 0
2, 77220, Note_on_c, 0, 79, 68
2, 77232, Note_on_c, 0, 76, 0
2, 77280, Note_on_c, 0, 78, 68
2, 77292, Note_on_c, 0, 79, 0
2, 77340, Note_on_c, 0, 74, 68
2, 77352, Note_on_c, 0, 78, 0
2, 77400, Note_on_c, 0, 73, 68
2, 77412, Note_on_c, 0, 74, 0
2, 77460, Note_on_c, 0, 76, 68
2, 77472, Note_on_c, 0, 73, 0
2, 77512, Note_on_c, 0, 76, 0
2, 77520, Note_on_c, 0, 74, 68
2, 77572, Note_on_c, 0, 74, 0
2, 77580, Note_on_c, 0, 69, 68
2, 77632, Note_on_c, 0, 69, 0
2, 77640, Note_on_c, 0, 68, 68
2, 77692, Note_on_c, 0, 68, 0
2, 77700, Note_on_c, 0, 71, 69
2, 77752, Note_on_c, 0, 71, 0
2, 77760, Note_on_c, 0, 69, 72
2, 77820, Note_on_c, 0, 71, 76
2, 77832, Note_on_c, 0, 69, 0
2, 77880, Note_on_c, 0, 69, 74
2, 77892, Note_on_c, 0, 71, 0
2, 77940, Note_on_c, 0, 68, 72
2, 77952, Note_on_c, 0, 69, 0
2, 77992, Note_on_c, 0, 68, 0
2, 78000, Note_on_c, 0, 69, 73
2, 78020, Note_on_c, 0, 69, 0
2, 78060, Note_on_c, 0, 70, 73
2, 78080, Note_on_c, 0, 70, 0
2, 78120, Note_on_c, 0, 71, 71
2, 78140, Note_on_c, 0, 71, 0
2, 78180, Note_on_c, 0, 72, 71
2, 78200, Note_on_c, 0, 72, 0
2, 78240, Note_on_c, 0, 73, 67
2, 78260, Note_on_c, 0, 73, 0
2, 78300, Note_on_c, 0, 74, 67
2, 78320, Note_on_c, 0, 74, 0
2, 78360, Note_on_c, 0, 76, 68
2, 78380, Note_on_c, 0, 76, 0
2, 78420, Note_on_c, 0, 78, 70
2, 78440, Note_on_c, 0, 78, 0
2, 78480, Note_on_c, 0, 79, 70
2, 78500, Note_on_c, 0, 79, 0
2, 78540, Note_on_c, 0, 81, 70
2, 78560, Note_on_c, 0, 81, 0
2, 78600, Note_on_c, 0, 83, 70
2, 78620, Note_on_c, 0, 83, 0
2, 78660, Note_on_c, 0, 85, 70
2, 78680, Note_on_c, 0, 85, 0
2, 78720, Note_on_c, 0, 85, 78
2, 79200, Note_on_c, 0, 86, 67
2, 79216, Note_on_c, 0, 85, 0
2, 79408, Note_on_c, 0, 86, 0
2, 79680, Note_on_c, 0, 64, 94
2, 79680, Note_on_c, 0, 69, 94
2, 79680, Note_on_c, 0, 72, 94
2, 79888, Note_on_c, 0, 72, 0
2, 79888, Note_on_c, 0, 69, 0
2, 79888, Note_on_c, 0, 64, 0
2, 79920, Note_on_c, 0, 69, 100
2, 79920, Note_on_c, 0, 72, 100
2, 79920, Note_on_c, 0, 76, 100
2, 80128, Note_on_c, 0, 76, 0
2, 80128, Note_on_c, 0, 72, 0
2, 80128, Note_on_c, 0, 69, 0
2, 80160, Note_on_c, 0, 57, 91
2, 80160, Note_on_c, 0, 60, 91
2, 80160, Note_on_c, 0, 62, 91
2, 80368, Note_on_c, 0, 62, 0
2, 80368, Note_on_c, 0, 60, 0
2, 80368, Note_on_c, 0, 57, 0
2, 80640, Note_on_c, 0, 67, 75
2, 81120, Note_on_c, 0, 62, 82
2, 81132, Note_on_c, 0, 67, 0
2, 81360, Note_on_c, 0, 71, 78
2, 81372, Note_on_c, 0, 62, 0
2, 81568, Note_on_c, 0, 71, 0
2, 81600, Note_on_c, 0, 71, 92
2, 81600, Note_on_c, 0, 64, 92
2, 82080, Note_on_c, 0, 69, 79
2, 82092, Note_on_c, 0, 71, 0
2, 82320, Note_on_c, 0, 67, 78
2, 82332, Note_on_c, 0, 69, 0
2, 82528, Note_on_c, 0, 67, 0
2, 82528, Note_on_c, 0, 64, 0
2, 82560, Note_on_c, 0, 62, 82
2, 82560, Note_on_c, 0, 67, 82
2, 82980, Note_on_c, 0, 67, 0
2, 82980, Note_on_c, 0, 62, 0
2, 83040, Note_on_c, 0, 66, 82
2, 83220, Note_on_c, 0, 72, 82
2, 83232, Note_on_c, 0, 66, 0
2, 83272, Note_on_c, 0, 72, 0
2, 83280, Note_on_c, 0, 69, 82
2, 83460, Note_on_c, 0, 66, 82
2, 83468, Note_on_c, 0, 69, 0
2, 83512, Note_on_c, 0, 66, 0
2, 83520, Note_on_c, 0, 69, 82
2, 83640, Note_on_c, 0, 67, 82
2, 83652, Note_on_c, 0, 69, 0
2, 83744, Note_on_c, 0, 67, 0
2, 83760, Note_on_c, 0, 71, 82
2, 83880, Note_on_c, 0, 69, 82
2, 83896, Note_on_c, 0, 71, 0
2, 83984, Note_on_c, 0, 69, 0
2, 84000, Note_on_c, 0, 72, 82
2, 84120, Note_on_c, 0, 71, 82
2, 84132, Note_on_c, 0, 72, 0
2, 84224, Note_on_c, 0, 71, 0
2, 84480, Note_on_c, 0, 79, 103
2, 84900, Note_on_c, 0, 74, 100
2, 84912, Note_on_c, 0, 79, 0
2, 84928, Note_on_c, 0, 71, 97
2, 84940, Note_on_c, 0, 74, 0
2, 84960, Note_on_c, 0, 67, 94
2, 84970, Note_on_c, 0, 71, 0
2, 85168, Note_on_c, 0, 67, 0
2, 85440, Note_on_c, 0, 44, 77
2, 85920, Note_on_c, 0, 45, 72
2, 85932, Note_on_c, 0, 44, 0
2, 86128, Note_on_c, 0, 45, 0
2, 86400, Note_on_c, 0, 84, 107
2, 86820, Note_on_c, 0, 81, 112
2, 86836, Note_on_c, 0, 84, 0
2, 86848, Note_on_c, 0, 78, 109
2, 86862, Note_on_c, 0, 81, 0
2, 86880, Note_on_c, 0, 72, 104
2, 86891, Note_on_c, 0, 78, 0
2, 87088, Note_on_c, 0, 72, 0
2, 87360, Note_on_c, 0, 40, 83
2, 87780, Note_on_c, 0, 40, 0
2, 87840, Note_on_c, 0, 39, 81
2, 88048, Note_on_c, 0, 39, 0
2, 88320, Note_on_c, 0, 38, 82
2, 88740, Note_on_c, 0, 38, 0
2, 88800, Note_on_c, 0, 37, 80
2, 89008, Note_on_c, 0, 37, 0
2, 89280, Note_on_c, 0, 66, 73
2, 89760, Note_on_c, 0, 61, 75
2, 89776, Note_on_c, 0, 66, 0
2, 90000, Note_on_c, 0, 69, 75
2, 90020, Note_on_c, 0, 61, 0
2, 90208, Note_on_c, 0, 69, 0
2, 90240, Note_on_c, 0, 69, 99
2, 90240, Note_on_c, 0, 63, 99
2, 90720, Note_on_c, 0, 68, 82
2, 90736, Note_on_c, 0, 69, 0
2, 90960, Note_on_c, 0, 66, 82
2, 90976, Note_on_c, 0, 68, 0
2, 91168, Note_on_c, 0, 66, 0
2, 91168, Note_on_c, 0, 63, 0
2, 91200, Note_on_c, 0, 61, 97
2, 91200, Note_on_c, 0, 66, 97
2, 91620, Note_on_c, 0, 66, 0
2, 91620, Note_on_c, 0, 61, 0
2, 91680, Note_on_c, 0, 65, 87
2, 91860, Note_on_c, 0, 71, 73
2, 91876, Note_on_c, 0, 65, 0
2, 91912, Note_on_c, 0, 71, 0
2, 91920, Note_on_c, 0, 68, 82
2, 92100, Note_on_c, 0, 65, 76
2, 92116, Note_on_c, 0, 68, 0
2, 92152, Note_on_c, 0, 65, 0
2, 92160, Note_on_c, 0, 68, 82
2, 92280, Note_on_c, 0, 66, 76
2, 92296, Note_on_c, 0, 68, 0
2, 92384, Note_on_c, 0, 66, 0
2, 92400, Note_on_c, 0, 69, 82
2, 92504, Note_on_c, 0, 69, 0
2, 92520, Note_on_c, 0, 68, 76
2, 92624, Note_on_c, 0, 68, 0
2, 92640, Note_on_c, 0, 71, 82
2, 92744, Note_on_c, 0, 71, 0
2, 92760, Note_on_c, 0, 69, 72
2, 92864, Note_on_c, 0, 69, 0
2, 93120, Note_on_c, 0, 78, 104
2, 93540, Note_on_c, 0, 73, 106
2, 93544, Note_on_c, 0, 78, 0
2, 93568, Note_on_c, 0, 69, 104
2, 93582, Note_on_c, 0, 73, 0
2, 93600, Note_on_c, 0, 66, 101
2, 93611, Note_on_c, 0, 69, 0
2, 93808, Note_on_c, 0, 66, 0
2, 94080, Note_on_c, 0, 43, 76
2, 94560, Note_on_c, 0, 44, 82
2, 94576, Note_on_c, 0, 43, 0
2, 94800, Note_on_c, 0, 44, 0
2, 95040, Note_on_c, 0, 83, 106
2, 95460, Note_on_c, 0, 80, 107
2, 95480, Note_on_c, 0, 83, 0
2, 95484, Note_on_c, 0, 80, 0
2, 95488, Note_on_c, 0, 77, 105
2, 95516, Note_on_c, 0, 77, 0
2, 95520, Note_on_c, 0, 71, 103
2, 95728, Note_on_c, 0, 71, 0
2, 96000, Note_on_c, 0, 40, 76
2, 96480, Note_on_c, 0, 39, 72
2, 96496, Note_on_c, 0, 40, 0
2, 96720, Note_on_c, 0, 39, 0
2, 96960, Note_on_c, 0, 39, 82
2, 97440, Note_on_c, 0, 38, 76
2, 97452, Note_on_c, 0, 39, 0
2, 97688, Note_on_c, 0, 38, 0
2, 98880, Note_on_c, 0, 64, 82
2, 98880, Note_on_c, 0, 73, 82
2, 98880, Note_on_c, 0, 67, 82
2, 99340, Note_on_c, 0, 67, 0
2, 99360, Note_on_c, 0, 69, 82
2, 99568, Note_on_c, 0, 69, 0
2, 99600, Note_on_c, 0, 70, 82
2, 99780, Note_on_c, 0, 64, 0
2, 99800, Note_on_c, 0, 73, 0
2, 99808, Note_on_c, 0, 70, 0
2, 99840, Note_on_c, 0, 63, 96
2, 99840, Note_on_c, 0, 69, 96
2, 99840, Note_on_c, 0, 72, 96
2, 100320, Note_on_c, 0, 62, 88
2, 100340, Note_on_c, 0, 63, 0
2, 100528, Note_on_c, 0, 69, 0
2, 100528, Note_on_c, 0, 72, 0
2, 100528, Note_on_c, 0, 62, 0
2, 100800, Note_on_c, 0, 62, 76
2, 100800, Note_on_c, 0, 65, 76
2, 100800, Note_on_c, 0, 71, 76
2, 101008, Note_on_c, 0, 71, 0
2, 101008, Note_on_c, 0, 65, 0
2, 101008, Note_on_c, 0, 62, 0
2, 101040, Note_on_c, 0, 62, 76
2, 101040, Note_on_c, 0, 65, 76
2, 101040, Note_on_c, 0, 69, 76
2, 101248, Note_on_c, 0, 69, 0
2, 101248, Note_on_c, 0, 65, 0
2, 101248, Note_on_c, 0, 62, 0
2, 101280, Note_on_c, 0, 62, 69
2, 101280, Note_on_c, 0, 64, 69
2, 101280, Note_on_c, 0, 68, 69
2, 101488, Note_on_c, 0, 68, 0
2, 101488, Note_on_c, 0, 64, 0
2, 101488, Note_on_c, 0, 62, 0
2, 102720, Note_on_c, 0, 66, 99
2, 102720, Note_on_c, 0, 69, 99
2, 102720, Note_on_c, 0, 75, 99
2, 103380, Note_on_c, 0, 75, 0
2, 103380, Note_on_c, 0, 69, 0
2, 103380, Note_on_c, 0, 66, 0
2, 103440, Note_on_c, 0, 74, 82
2, 103440, Note_on_c, 0, 78, 82
2, 103440, Note_on_c, 0, 84, 82
2, 103648, Note_on_c, 0, 84, 0
2, 103648, Note_on_c, 0, 78, 0
2, 103648, Note_on_c, 0, 74, 0
2, 103680, Note_on_c, 0, 74, 98
2, 103680, Note_on_c, 0, 77, 98
2, 103680, Note_on_c, 0, 84, 98
2, 104160, Note_on_c, 0, 83, 97
2, 104176, Note_on_c, 0, 84, 0
2, 104368, Note_on_c, 0, 74, 0
2, 104368, Note_on_c, 0, 77, 0
2, 104368, Note_on_c, 0, 83, 0
2, 104640, Note_on_c, 0, 67, 77
2, 104640, Note_on_c, 0, 73, 77
2, 104640, Note_on_c, 0, 76, 77
2, 104848, Note_on_c, 0, 76, 0
2, 104848, Note_on_c, 0, 73, 0
2, 104848, Note_on_c, 0, 67, 0
2, 104880, Note_on_c, 0, 66, 77
2, 104880, Note_on_c, 0, 71, 77
2, 104880, Note_on_c, 0, 74, 77
2, 105088, Note_on_c, 0, 74, 0
2, 105088, Note_on_c, 0, 71, 0
2, 105088, Note_on_c, 0, 66, 0
2, 105120, Note_on_c, 0, 64, 76
2, 105120, Note_on_c, 0, 66, 76
2, 105120, Note_on_c, 0, 70, 76
2, 105328, Note_on_c, 0, 70, 0
2, 105328, Note_on_c, 0, 66, 0
2, 105328, Note_on_c, 0, 64, 0
2, 105600, Note_on_c, 0, 71, 76
2, 106080, Note_on_c, 0, 66, 73
2, 106092, Note_on_c, 0, 71, 0
2, 106320, Note_on_c, 0, 74, 76
2, 106332, Note_on_c, 0, 66, 0
2, 106528, Note_on_c, 0, 74, 0
2, 106560, Note_on_c, 0, 74, 101
2, 106560, Note_on_c, 0, 68, 101
2, 107040, Note_on_c, 0, 73, 75
2, 107056, Note_on_c, 0, 74, 0
2, 107280, Note_on_c, 0, 71, 72
2, 107296, Note_on_c, 0, 73, 0
2, 107488, Note_on_c, 0, 71, 0
2, 107492, Note_on_c, 0, 68, 0
2, 107520, Note_on_c, 0, 66, 104
2, 107520, Note_on_c, 0, 71, 104
2, 107940, Note_on_c, 0, 71, 0
2, 107940, Note_on_c, 0, 66, 0
2, 108000, Note_on_c, 0, 70, 74
2, 108180, Note_on_c, 0, 76, 76
2, 108193, Note_on_c, 0, 70, 0
2, 108231, Note_on_c, 0, 76, 0
2, 108240, Note_on_c, 0, 73, 74
2, 108420, Note_on_c, 0, 70, 71
2, 108432, Note_on_c, 0, 73, 0
2, 108472, Note_on_c, 0, 70, 0
2, 108480, Note_on_c, 0, 73, 76
2, 108600, Note_on_c, 0, 71, 70
2, 108616, Note_on_c, 0, 73, 0
2, 108704, Note_on_c, 0, 71, 0
2, 108720, Note_on_c, 0, 74, 76
2, 108840, Note_on_c, 0, 73, 71
2, 108856, Note_on_c, 0, 74, 0
2, 108944, Note_on_c, 0, 73, 0
2, 108960, Note_on_c, 0, 76, 78
2, 109080, Note_on_c, 0, 74, 69
2, 109096, Note_on_c, 0, 76, 0
2, 109184, Note_on_c, 0, 74, 0
2, 109680, Note_on_c, 0, 71, 102
2, 109680, Note_on_c, 0, 83, 102
2, 110160, Note_on_c, 0, 70, 98
2, 110160, Note_on_c, 0, 82, 98
2, 110176, Note_on_c, 0, 83, 0
2, 110176, Note_on_c, 0, 71, 0
2, 110368, Note_on_c, 0, 70, 0
2, 110368, Note_on_c, 0, 82, 0
2, 110640, Note_on_c, 0, 79, 75
2, 110820, Note_on_c, 0, 81, 77
2, 110830, Note_on_c, 0, 79, 0
2, 110880, Note_on_c, 0, 79, 74
2, 110892, Note_on_c, 0, 81, 0
2, 111120, Note_on_c, 0, 78, 69
2, 111132, Note_on_c, 0, 79, 0
2, 111328, Note_on_c, 0, 78, 0
2, 111600, Note_on_c, 0, 67, 101
2, 111600, Note_on_c, 0, 79, 101
2, 112080, Note_on_c, 0, 66, 91
2, 112080, Note_on_c, 0, 78, 91
2, 112092, Note_on_c, 0, 79, 0
2, 112096, Note_on_c, 0, 67, 0
2, 112288, Note_on_c, 0, 66, 0
2, 112288, Note_on_c, 0, 78, 0
2, 112560, Note_on_c, 0, 76, 75
2, 112740, Note_on_c, 0, 78, 78
2, 112750, Note_on_c, 0, 76, 0
2, 112800, Note_on_c, 0, 76, 73
2, 112812, Note_on_c, 0, 78, 0
2, 113040, Note_on_c, 0, 75, 69
2, 113052, Note_on_c, 0, 76, 0
2, 113248, Note_on_c, 0, 75, 0
2, 113280, Note_on_c, 0, 76, 82
2, 113400, Note_on_c, 0, 83, 82
2, 113413, Note_on_c, 0, 76, 0
2, 113520, Note_on_c, 0, 81, 82
2, 113532, Note_on_c, 0, 83, 0
2, 113572, Note_on_c, 0, 81, 0
2, 113580, Note_on_c, 0, 79, 82
2, 113632, Note_on_c, 0, 79, 0
2, 113640, Note_on_c, 0, 78, 82
2, 113692, Note_on_c, 0, 78, 0
2, 113700, Note_on_c, 0, 76, 82
2, 113752, Note_on_c, 0, 76, 0
2, 113760, Note_on_c, 0, 76, 96
2, 114000, Note_on_c, 0, 75, 88
2, 114016, Note_on_c, 0, 76, 0
2, 114208, Note_on_c, 0, 75, 0
2, 114240, Note_on_c, 0, 76, 76
2, 114344, Note_on_c, 0, 76, 0
2, 114360, Note_on_c, 0, 83, 80
2, 114464, Note_on_c, 0, 83, 0
2, 114480, Note_on_c, 0, 84, 78
2, 114540, Note_on_c, 0, 83, 77
2, 114550, Note_on_c, 0, 84, 0
2, 114600, Note_on_c, 0, 81, 76
2, 114610, Note_on_c, 0, 83, 0
2, 114660, Note_on_c, 0, 79, 75
2, 114670, Note_on_c, 0, 81, 0
2, 114720, Note_on_c, 0, 78, 88
2, 114730, Note_on_c, 0, 79, 0
2, 114960, Note_on_c, 0, 77, 82
2, 114976, Note_on_c, 0, 78, 0
2, 115168, Note_on_c, 0, 77, 0
2, 115200, Note_on_c, 0, 78, 73
2, 115369, Note_on_c, 0, 78, 0
2, 115380, Note_on_c, 0, 73, 71
2, 115432, Note_on_c, 0, 73, 0
2, 115440, Note_on_c, 0, 73, 76
2, 115440, Note_on_c, 0, 76, 76
2, 115920, Note_on_c, 0, 71, 74
2, 115920, Note_on_c, 0, 74, 74
2, 115933, Note_on_c, 0, 76, 0
2, 115935, Note_on_c, 0, 73, 0
2, 116128, Note_on_c, 0, 71, 0
2, 116128, Note_on_c, 0, 74, 0
2, 116160, Note_on_c, 0, 74, 88
2, 116160, Note_on_c, 0, 78, 88
2, 116520, Note_on_c, 0, 73, 75
2, 116520, Note_on_c, 0, 76, 75
2, 116534, Note_on_c, 0, 74, 0
2, 116536, Note_on_c, 0, 78, 0
2, 116580, Note_on_c, 0, 71, 79
2, 116580, Note_on_c, 0, 74, 79
2, 116592, Note_on_c, 0, 76, 0
2, 116593, Note_on_c, 0, 73, 0
2, 116640, Note_on_c, 0, 70, 67
2, 116640, Note_on_c, 0, 73, 67
2, 116653, Note_on_c, 0, 74, 0
2, 116654, Note_on_c, 0, 71, 0
2, 116848, Note_on_c, 0, 70, 0
2, 116848, Note_on_c, 0, 73, 0
2, 117120, Note_on_c, 0, 62, 94
2, 117120, Note_on_c, 0, 66, 94
2, 117224, Note_on_c, 0, 66, 0
2, 117224, Note_on_c, 0, 62, 0
2, 117240, Note_on_c, 0, 62, 94
2, 117240, Note_on_c, 0, 66, 94
2, 117344, Note_on_c, 0, 66, 0
2, 117344, Note_on_c, 0, 62, 0
2, 117360, Note_on_c, 0, 62, 94
2, 117360, Note_on_c, 0, 66, 94
2, 117464, Note_on_c, 0, 66, 0
2, 117464, Note_on_c, 0, 62, 0
2, 117480, Note_on_c, 0, 62, 93
2, 117480, Note_on_c, 0, 66, 93
2, 117584, Note_on_c, 0, 66, 0
2, 117584, Note_on_c, 0, 62, 0
2, 117600, Note_on_c, 0, 62, 93
2, 117600, Note_on_c, 0, 66, 93
2, 117704, Note_on_c, 0, 66, 0
2, 117704, Note_on_c, 0, 62, 0
2, 117720, Note_on_c, 0, 62, 90
2, 117720, Note_on_c, 0, 66, 90
2, 117824, Note_on_c, 0, 66, 0
2, 117824, Note_on_c, 0, 62, 0
2, 117840, Note_on_c, 0, 62, 90
2, 117840, Note_on_c, 0, 66, 90
2, 117944, Note_on_c, 0, 66, 0
2, 117944, Note_on_c, 0, 62, 0
2, 117960, Note_on_c, 0, 62, 89
2, 117960, Note_on_c, 0, 66, 89
2, 118064, Note_on_c, 0, 66, 0
2, 118064, Note_on_c, 0, 62, 0
2, 118080, Note_on_c, 0, 63, 74
2, 118080, Note_on_c, 0, 66, 74
2, 118184, Note_on_c, 0, 66, 0
2, 118184, Note_on_c, 0, 63, 0
2, 118200, Note_on_c, 0, 63, 75
2, 118200, Note_on_c, 0, 66, 75
2, 118304, Note_on_c, 0, 66, 0
2, 118304, Note_on_c, 0, 63, 0
2, 118320, Note_on_c, 0, 63, 75
2, 118320, Note_on_c, 0, 66, 75
2, 118424, Note_on_c, 0, 66, 0
2, 118424, Note_on_c, 0, 63, 0
2, 118440, Note_on_c, 0, 63, 75
2, 118440, Note_on_c, 0, 66, 75
2, 118544, Note_on_c, 0, 66, 0
2, 118544, Note_on_c, 0, 63, 0
2, 118560, Note_on_c, 0, 64, 75
2, 118560, Note_on_c, 0, 66, 75
2, 118664, Note_on_c, 0, 66, 0
2, 118664, Note_on_c, 0, 64, 0
2, 118680, Note_on_c, 0, 64, 73
2, 118680, Note_on_c, 0, 66, 73
2, 118784, Note_on_c, 0, 66, 0
2, 118784, Note_on_c, 0, 64, 0
2, 118800, Note_on_c, 0, 64, 73
2, 118800, Note_on_c, 0, 66, 73
2, 118904, Note_on_c, 0, 66, 0
2, 118904, Note_on_c, 0, 64, 0
2, 118920, Note_on_c, 0, 64, 73
2, 118920, Note_on_c, 0, 66, 73
2, 119024, Note_on_c, 0, 66, 0
2, 119024, Note_on_c, 0, 64, 0
2, 119040, Note_on_c, 0, 58, 93
2, 119040, Note_on_c, 0, 64, 93
2, 119040, Note_on_c, 0, 66, 93
2, 119144, Note_on_c, 0, 66, 0
2, 119144, Note_on_c, 0, 64, 0
2, 119144, Note_on_c, 0, 58, 0
2, 119160, Note_on_c, 0, 58, 93
2, 119160, Note_on_c, 0, 64, 93
2, 119160, Note_on_c, 0, 66, 93
2, 119264, Note_on_c, 0, 66, 0
2, 119264, Note_on_c, 0, 64, 0
2, 119264, Note_on_c, 0, 58, 0
2, 119280, Note_on_c, 0, 58, 93
2, 119280, Note_on_c, 0, 64, 93
2, 119280, Note_on_c, 0, 66, 93
2, 119384, Note_on_c, 0, 66, 0
2, 119384, Note_on_c, 0, 64, 0
2, 119384, Note_on_c, 0, 58, 0
2, 119400, Note_on_c, 0, 58, 93
2, 119400, Note_on_c, 0, 64, 93
2, 119400, Note_on_c, 0, 66, 93
2, 119504, Note_on_c, 0, 66, 0
2, 119504, Note_on_c, 0, 64, 0
2, 119504, Note_on_c, 0, 58, 0
2, 119520, Note_on_c, 0, 58, 93
2, 119520, Note_on_c, 0, 64, 93
2, 119520, Note_on_c, 0, 66, 93
2, 119624, Note_on_c, 0, 66, 0
2, 119624, Note_on_c, 0, 64, 0
2, 119624, Note_on_c, 0, 58, 0
2, 119640, Note_on_c, 0, 58, 91
2, 119640, Note_on_c, 0, 64, 91
2, 119640, Note_on_c, 0, 66, 91
2, 119744, Note_on_c, 0, 66, 0
2, 119744, Note_on_c, 0, 64, 0
2, 119744, Note_on_c, 0, 58, 0
2, 119760, Note_on_c, 0, 58, 86
2, 119760, Note_on_c, 0, 64, 86
2, 119760, Note_on_c, 0, 66, 86
2, 119864, Note_on_c, 0, 66, 0
2, 119864, Note_on_c, 0, 64, 0
2, 119864, Note_on_c, 0, 58, 0
2, 119880, Note_on_c, 0, 58, 85
2, 119880, Note_on_c, 0, 64, 85
2, 119880, Note_on_c, 0, 66, 85
2, 119984, Note_on_c, 0, 66, 0
2, 119984, Note_on_c, 0, 64, 0
2, 119984, Note_on_c, 0, 58, 0
2, 120000, Note_on_c, 0, 58, 76
2, 120000, Note_on_c, 0, 64, 76
2, 120000, Note_on_c, 0, 66, 76
2, 120104, Note_on_c, 0, 66, 0
2, 120104, Note_on_c, 0, 64, 0
2, 120104, Note_on_c, 0, 58, 0
2, 120120, Note_on_c, 0, 58, 74
2, 120120, Note_on_c, 0, 64, 74
2, 120120, Note_on_c, 0, 66, 74
2, 120224, Note_on_c, 0, 66, 0
2, 120224, Note_on_c, 0, 64, 0
2, 120224, Note_on_c, 0, 58, 0
2, 120240, Note_on_c, 0, 58, 73
2, 120240, Note_on_c, 0, 64, 73
2, 120240, Note_on_c, 0, 66, 73
2, 120344, Note_on_c, 0, 66, 0
2, 120344, Note_on_c, 0, 64, 0
2, 120344, Note_on_c, 0, 58, 0
2, 120360, Note_on_c, 0, 58, 73
2, 120360, Note_on_c, 0, 64, 73
2, 120360, Note_on_c, 0, 66, 73
2, 120464, Note_on_c, 0, 66, 0
2, 120464, Note_on_c, 0, 64, 0
2, 120464, Note_on_c, 0, 58, 0
2, 120480, Note_on_c, 0, 59, 73
2, 120480, Note_on_c, 0, 62, 73
2, 120480, Note_on_c, 0, 66, 73
2, 120584, Note_on_c, 0, 66, 0
2, 120584, Note_on_c, 0, 62, 0
2, 120584, Note_on_c, 0, 59, 0
2, 120600, Note_on_c, 0, 59, 74
2, 120600, Note_on_c, 0, 66, 74
2, 120704, Note_on_c, 0, 66, 0
2, 120704, Note_on_c, 0, 59, 0
2, 120720, Note_on_c, 0, 59, 78
2, 120720, Note_on_c, 0, 66, 78
2, 120824, Note_on_c, 0, 66, 0
2, 120824, Note_on_c, 0, 59, 0
2, 120840, Note_on_c, 0, 60, 78
2, 120840, Note_on_c, 0, 66, 78
2, 120944, Note_on_c, 0, 66, 0
2, 120944, Note_on_c, 0, 60, 0
2, 120960, Note_on_c, 0, 61, 78
2, 120960, Note_on_c, 0, 66, 78
2, 121064, Note_on_c, 0, 66, 0
2, 121064, Note_on_c, 0, 61, 0
2, 121080, Note_on_c, 0, 61, 78
2, 121080, Note_on_c, 0, 66, 78
2, 121184, Note_on_c, 0, 66, 0
2, 121184, Note_on_c, 0, 61, 0
2, 121200, Note_on_c, 0, 61, 77
2, 121200, Note_on_c, 0, 66, 77
2, 121304, Note_on_c, 0, 66, 0
2, 121304, Note_on_c, 0, 61, 0
2, 121320, Note_on_c, 0, 61, 77
2, 121320, Note_on_c, 0, 66, 77
2, 121424, Note_on_c, 0, 66, 0
2, 121424, Note_on_c, 0, 61, 0
2, 121440, Note_on_c, 0, 62, 77
2, 121440, Note_on_c, 0, 66, 77
2, 121544, Note_on_c, 0, 66, 0
2, 121544, Note_on_c, 0, 62, 0
2, 121560, Note_on_c, 0, 62, 77
2, 121560, Note_on_c, 0, 66, 77
2, 121664, Note_on_c, 0, 66, 0
2, 121664, Note_on_c, 0, 62, 0
2, 121680, Note_on_c, 0, 62, 77
2, 121680, Note_on_c, 0, 66, 77
2, 121784, Note_on_c, 0, 66, 0
2, 121784, Note_on_c, 0, 62, 0
2, 121800, Note_on_c, 0, 62, 77
2, 121800, Note_on_c, 0, 66, 77
2, 121904, Note_on_c, 0, 66, 0
2, 121904, Note_on_c, 0, 62, 0
2, 121920, Note_on_c, 0, 61, 77
2, 121920, Note_on_c, 0, 66, 77
2, 122024, Note_on_c, 0, 66, 0
2, 122024, Note_on_c, 0, 61, 0
2, 122040, Note_on_c, 0, 61, 77
2, 122040, Note_on_c, 0, 66, 77
2, 122144, Note_on_c, 0, 66, 0
2, 122144, Note_on_c, 0, 61, 0
2, 122160, Note_on_c, 0, 59, 77
2, 122160, Note_on_c, 0, 66, 77
2, 122264, Note_on_c, 0, 66, 0
2, 122264, Note_on_c, 0, 59, 0
2, 122280, Note_on_c, 0, 59, 77
2, 122280, Note_on_c, 0, 66, 77
2, 122384, Note_on_c, 0, 66, 0
2, 122384, Note_on_c, 0, 59, 0
2, 122400, Note_on_c, 0, 58, 77
2, 122400, Note_on_c, 0, 66, 77
2, 122504, Note_on_c, 0, 66, 0
2, 122504, Note_on_c, 0, 58, 0
2, 122520, Note_on_c, 0, 78, 77
2, 122624, Note_on_c, 0, 78, 0
2, 122640, Note_on_c, 0, 78, 77
2, 122744, Note_on_c, 0, 78, 0
2, 122760, Note_on_c, 0, 78, 77
2, 122864, Note_on_c, 0, 78, 0
2, 122880, Note_on_c, 0, 78, 77
2, 122984, Note_on_c, 0, 78, 0
2, 123000, Note_on_c, 0, 78, 77
2, 123104, Note_on_c, 0, 78, 0
2, 123120, Note_on_c, 0, 78, 77
2, 123224, Note_on_c, 0, 78, 0
2, 123240, Note_on_c, 0, 78, 77
2, 123344, Note_on_c, 0, 78, 0
2, 123360, Note_on_c, 0, 78, 76
2, 123464, Note_on_c, 0, 78, 0
2, 123480, Note_on_c, 0, 78, 75
2, 123584, Note_on_c, 0, 78, 0
2, 123600, Note_on_c, 0, 78, 74
2, 123704, Note_on_c, 0, 78, 0
2, 123720, Note_on_c, 0, 78, 73
2, 123824, Note_on_c, 0, 78, 0
2, 123840, Note_on_c, 0, 78, 70
2, 123840, Note_on_c, 0, 80, 70
2, 123944, Note_on_c, 0, 80, 0
2, 123944, Note_on_c, 0, 78, 0
2, 123960, Note_on_c, 0, 78, 70
2, 123960, Note_on_c, 0, 82, 70
2, 124064, Note_on_c, 0, 82, 0
2, 124064, Note_on_c, 0, 78, 0
2, 124080, Note_on_c, 0, 78, 70
2, 124080, Note_on_c, 0, 83, 70
2, 124184, Note_on_c, 0, 83, 0
2, 124184, Note_on_c, 0, 78, 0
2, 124200, Note_on_c, 0, 78, 70
2, 124200, Note_on_c, 0, 84, 70
2, 124304, Note_on_c, 0, 84, 0
2, 124304, Note_on_c, 0, 78, 0
2, 124320, Note_on_c, 0, 76, 70
2, 124320, Note_on_c, 0, 79, 70
2, 124320, Note_on_c, 0, 85, 70
2, 124528, Note_on_c, 0, 85, 0
2, 124528, Note_on_c, 0, 79, 0
2, 124528, Note_on_c, 0, 76, 0
2, 124770, Note_on_c, 0, 67, 105
2, 124785, Note_on_c, 0, 73, 106
2, 124800, Note_on_c, 0, 76, 109
2, 125000, Note_on_c, 0, 76, 0
2, 125010, Note_on_c, 0, 70, 105
2, 125025, Note_on_c, 0, 76, 107
2, 125040, Note_on_c, 0, 73, 0
2, 125040, Note_on_c, 0, 79, 109
2, 125058, Note_on_c, 0, 67, 0
2, 125250, Note_on_c, 0, 61, 100
2, 125260, Note_on_c, 0, 70, 0
2, 125265, Note_on_c, 0, 66, 100
2, 125280, Note_on_c, 0, 70, 102
2, 125284, Note_on_c, 0, 79, 0
2, 125292, Note_on_c, 0, 76, 0
2, 125538, Note_on_c, 0, 61, 0
2, 125538, Note_on_c, 0, 66, 0
2, 125538, Note_on_c, 0, 70, 0
2, 125760, Note_on_c, 0, 71, 79
2, 126000, Note_on_c, 0, 78, 86
2, 126020, Note_on_c, 0, 71, 0
2, 126480, Note_on_c, 0, 76, 81
2, 126500, Note_on_c, 0, 78, 0
2, 126600, Note_on_c, 0, 74, 79
2, 126620, Note_on_c, 0, 76, 0
2, 126704, Note_on_c, 0, 74, 0
2, 126720, Note_on_c, 0, 73, 76
2, 126960, Note_on_c, 0, 79, 86
2, 126980, Note_on_c, 0, 73, 0
2, 127440, Note_on_c, 0, 76, 79
2, 127460, Note_on_c, 0, 79, 0
2, 127560, Note_on_c, 0, 73, 79
2, 127580, Note_on_c, 0, 76, 0
2, 127664, Note_on_c, 0, 73, 0
2, 127680, Note_on_c, 0, 77, 73
2, 127740, Note_on_c, 0, 78, 79
2, 127752, Note_on_c, 0, 77, 0
2, 127800, Note_on_c, 0, 79, 81
2, 127812, Note_on_c, 0, 78, 0
2, 127860, Note_on_c, 0, 78, 81
2, 127872, Note_on_c, 0, 79, 0
2, 127920, Note_on_c, 0, 76, 81
2, 127932, Note_on_c, 0, 78, 0
2, 127980, Note_on_c, 0, 74, 79
2, 127992, Note_on_c, 0, 76, 0
2, 128040, Note_on_c, 0, 73, 78
2, 128052, Note_on_c, 0, 74, 0
2, 128100, Note_on_c, 0, 71, 73
2, 128112, Note_on_c, 0, 73, 0
2, 128160, Note_on_c, 0, 70, 79
2, 128172, Note_on_c, 0, 71, 0
2, 128220, Note_on_c, 0, 71, 70
2, 128232, Note_on_c, 0, 70, 0
2, 128280, Note_on_c, 0, 73, 70
2, 128292, Note_on_c, 0, 71, 0
2, 128340, Note_on_c, 0, 74, 70
2, 128352, Note_on_c, 0, 73, 0
2, 128400, Note_on_c, 0, 76, 70
2, 128412, Note_on_c, 0, 74, 0
2, 128460, Note_on_c, 0, 78, 72
2, 128472, Note_on_c, 0, 76, 0
2, 128520, Note_on_c, 0, 79, 75
2, 128532, Note_on_c, 0, 78, 0
2, 128580, Note_on_c, 0, 78, 79
2, 128592, Note_on_c, 0, 79, 0
2, 128632, Note_on_c, 0, 78, 0
2, 128640, Note_on_c, 0, 76, 79
2, 129000, Note_on_c, 0, 78, 83
2, 129012, Note_on_c, 0, 76, 0
2, 129060, Note_on_c, 0, 76, 88
2, 129072, Note_on_c, 0, 78, 0
2, 129120, Note_on_c, 0, 74, 86
2, 129132, Note_on_c, 0, 76, 0
2, 129328, Note_on_c, 0, 74, 0
2, 129600, Note_on_c, 0, 59, 91
2, 129704, Note_on_c, 0, 59, 0
2, 129720, Note_on_c, 0, 61, 75
2, 129772, Note_on_c, 0, 61, 0
2, 129780, Note_on_c, 0, 62, 76
2, 129832, Note_on_c, 0, 62, 0
2, 129840, Note_on_c, 0, 64, 78
2, 129892, Note_on_c, 0, 64, 0
2, 129900, Note_on_c, 0, 66, 79
2, 129952, Note_on_c, 0, 66, 0
2, 129960, Note_on_c, 0, 68, 81
2, 130012, Note_on_c, 0, 68, 0
2, 130020, Note_on_c, 0, 70, 83
2, 130072, Note_on_c, 0, 70, 0
2, 130080, Note_on_c, 0, 71, 84
2, 130132, Note_on_c, 0, 71, 0
2, 130140, Note_on_c, 0, 73, 85
2, 130192, Note_on_c, 0, 73, 0
2, 130200, Note_on_c, 0, 74, 86
2, 130252, Note_on_c, 0, 74, 0
2, 130260, Note_on_c, 0, 76, 86
2, 130312, Note_on_c, 0, 76, 0
2, 130320, Note_on_c, 0, 78, 86
2, 130372, Note_on_c, 0, 78, 0
2, 130380, Note_on_c, 0, 80, 86
2, 130432, Note_on_c, 0, 80, 0
2, 130440, Note_on_c, 0, 82, 86
2, 130492, Note_on_c, 0, 82, 0
2, 130500, Note_on_c, 0, 83, 86
2, 130552, Note_on_c, 0, 83, 0
2, 130560, Note_on_c, 0, 60, 78
2, 130628, Note_on_c, 0, 60, 0
2, 130636, Note_on_c, 0, 64, 75
2, 130708, Note_on_c, 0, 64, 0
2, 130716, Note_on_c, 0, 67, 76
2, 130788, Note_on_c, 0, 67, 0
2, 130800, Note_on_c, 0, 72, 80
2, 130868, Note_on_c, 0, 72, 0
2, 130876, Note_on_c, 0, 76, 81
2, 130948, Note_on_c, 0, 76, 0
2, 130956, Note_on_c, 0, 79, 83
2, 131028, Note_on_c, 0, 79, 0
2, 131040, Note_on_c, 0, 84, 85
2, 131116, Note_on_c, 0, 76, 85
2, 131135, Note_on_c, 0, 84, 0
2, 131196, Note_on_c, 0, 79, 85
2, 131216, Note_on_c, 0, 76, 0
2, 131280, Note_on_c, 0, 72, 82
2, 131296, Note_on_c, 0, 79, 0
2, 131356, Note_on_c, 0, 76, 79
2, 131375, Note_on_c, 0, 72, 0
2, 131436, Note_on_c, 0, 67, 76
2, 131456, Note_on_c, 0, 76, 0
2, 131508, Note_on_c, 0, 67, 0
2, 131520, Note_on_c, 0, 78, 81
2, 131700, Note_on_c, 0, 74, 78
2, 131724, Note_on_c, 0, 78, 0
2, 131752, Note_on_c, 0, 74, 0
2, 131760, Note_on_c, 0, 71, 78
2, 132240, Note_on_c, 0, 70, 75
2, 132240, Note_on_c, 0, 74, 75
2, 132260, Note_on_c, 0, 71, 0
2, 132360, Note_on_c, 0, 73, 82
2, 132384, Note_on_c, 0, 74, 0
2, 132464, Note_on_c, 0, 73, 0
2, 132464, Note_on_c, 0, 70, 0
2, 132480, Note_on_c, 0, 71, 72
2, 132900, Note_on_c, 0, 71, 0
2, 133440, Note_on_c, 0, 70, 78
2, 133920, Note_on_c, 0, 66, 85
2, 133944, Note_on_c, 0, 70, 0
2, 134160, Note_on_c, 0, 82, 82
2, 134180, Note_on_c, 0, 66, 0
2, 134368, Note_on_c, 0, 82, 0
2, 134400, Note_on_c, 0, 83, 82
2, 134420, Note_on_c, 0, 83, 0
2, 134460, Note_on_c, 0, 78, 81
2, 134520, Note_on_c, 0, 77, 79
2, 134532, Note_on_c, 0, 78, 0
2, 134580, Note_on_c, 0, 79, 76
2, 134592, Note_on_c, 0, 77, 0
2, 134640, Note_on_c, 0, 78, 76
2, 134652, Note_on_c, 0, 79, 0
2, 134700, Note_on_c, 0, 74, 76
2, 134712, Note_on_c, 0, 78, 0
2, 134760, Note_on_c, 0, 73, 76
2, 134772, Note_on_c, 0, 74, 0
2, 134820, Note_on_c, 0, 76, 74
2, 134832, Note_on_c, 0, 73, 0
2, 134880, Note_on_c, 0, 74, 74
2, 134892, Note_on_c, 0, 76, 0
2, 134940, Note_on_c, 0, 71, 74
2, 134952, Note_on_c, 0, 74, 0
2, 135000, Note_on_c, 0, 70, 74
2, 135012, Note_on_c, 0, 71, 0
2, 135060, Note_on_c, 0, 73, 74
2, 135072, Note_on_c, 0, 70, 0
2, 135120, Note_on_c, 0, 71, 73
2, 135132, Note_on_c, 0, 73, 0
2, 135180, Note_on_c, 0, 66, 73
2, 135192, Note_on_c, 0, 71, 0
2, 135240, Note_on_c, 0, 65, 71
2, 135252, Note_on_c, 0, 66, 0
2, 135300, Note_on_c, 0, 67, 70
2, 135312, Note_on_c, 0, 65, 0
2, 135352, Note_on_c, 0, 67, 0
2, 135360, Note_on_c, 0, 66, 70
2, 135420, Note_on_c, 0, 67, 71
2, 135432, Note_on_c, 0, 66, 0
2, 135480, Note_on_c, 0, 66, 73
2, 135492, Note_on_c, 0, 67, 0
2, 135540, Note_on_c, 0, 65, 75
2, 135552, Note_on_c, 0, 66, 0
2, 135600, Note_on_c, 0, 66, 75
2, 135612, Note_on_c, 0, 65, 0
2, 135660, Note_on_c, 0, 67, 76
2, 135672, Note_on_c, 0, 66, 0
2, 135720, Note_on_c, 0, 68, 77
2, 135732, Note_on_c, 0, 67, 0
2, 135780, Note_on_c, 0, 69, 78
2, 135792, Note_on_c, 0, 68, 0
2, 135832, Note_on_c, 0, 69, 0
2, 135840, Note_on_c, 0, 70, 78
2, 135860, Note_on_c, 0, 70, 0
2, 135900, Note_on_c, 0, 71, 80
2, 135920, Note_on_c, 0, 71, 0
2, 135960, Note_on_c, 0, 73, 82
2, 135980, Note_on_c, 0, 73, 0
2, 136020, Note_on_c, 0, 74, 84
2, 136040, Note_on_c, 0, 74, 0
2, 136080, Note_on_c, 0, 76, 85
2, 136100, Note_on_c, 0, 76, 0
2, 136140, Note_on_c, 0, 78, 86
2, 136160, Note_on_c, 0, 78, 0
2, 136200, Note_on_c, 0, 79, 86
2, 136220, Note_on_c, 0, 79, 0
2, 136260, Note_on_c, 0, 82, 86
2, 136280, Note_on_c, 0, 82, 0
2, 136320, Note_on_c, 0, 82, 82
2, 136800, Note_on_c, 0, 83, 73
2, 136824, Note_on_c, 0, 82, 0
2, 137008, Note_on_c, 0, 83, 0
2, 137280, Note_on_c, 0, 76, 105
2, 137280, Note_on_c, 0, 81, 105
2, 137280, Note_on_c, 0, 84, 105
2, 137488, Note_on_c, 0, 84, 0
2, 137488, Note_on_c, 0, 81, 0
2, 137488, Note_on_c, 0, 76, 0
2, 137520, Note_on_c, 0, 81, 110
2, 137520, Note_on_c, 0, 84, 110
2, 137520, Note_on_c, 0, 88, 110
2, 137728, Note_on_c, 0, 88, 0
2, 137728, Note_on_c, 0, 84, 0
2, 137728, Note_on_c, 0, 81, 0
2, 137760, Note_on_c, 0, 57, 105
2, 137760, Note_on_c, 0, 60, 105
2, 137760, Note_on_c, 0, 62, 105
2, 137968, Note_on_c, 0, 62, 0
2, 137968, Note_on_c, 0, 60, 0
2, 137968, Note_on_c, 0, 57, 0
2, 138240, Note_on_c, 0, 67, 75
2, 138720, Note_on_c, 0, 62, 82
2, 138732, Note_on_c, 0, 67, 0
2, 138960, Note_on_c, 0, 71, 78
2, 138972, Note_on_c, 0, 62, 0
2, 139168, Note_on_c, 0, 71, 0
2, 139200, Note_on_c, 0, 71, 100
2, 139200, Note_on_c, 0, 64, 100
2, 139680, Note_on_c, 0, 69, 79
2, 139692, Note_on_c, 0, 71, 0
2, 139920, Note_on_c, 0, 67, 78
2, 139932, Note_on_c, 0, 69, 0
2, 140128, Note_on_c, 0, 67, 0
2, 140128, Note_on_c, 0, 64, 0
2, 140160, Note_on_c, 0, 62, 82
2, 140160, Note_on_c, 0, 67, 82
2, 140580, Note_on_c, 0, 67, 0
2, 140580, Note_on_c, 0, 62, 0
2, 140640, Note_on_c, 0, 66, 82
2, 140820, Note_on_c, 0, 72, 82
2, 140832, Note_on_c, 0, 66, 0
2, 140872, Note_on_c, 0, 72, 0
2, 140880, Note_on_c, 0, 69, 87
2, 141060, Note_on_c, 0, 66, 78
2, 141068, Note_on_c, 0, 69, 0
2, 141112, Note_on_c, 0, 66, 0
2, 141120, Note_on_c, 0, 69, 91
2, 141240, Note_on_c, 0, 67, 82
2, 141252, Note_on_c, 0, 69, 0
2, 141344, Note_on_c, 0, 67, 0
2, 141360, Note_on_c, 0, 71, 86
2, 141480, Note_on_c, 0, 69, 76
2, 141496, Note_on_c, 0, 71, 0
2, 141584, Note_on_c, 0, 69, 0
2, 141600, Note_on_c, 0, 72, 86
2, 141720, Note_on_c, 0, 71, 76
2, 141732, Note_on_c, 0, 72, 0
2, 141824, Note_on_c, 0, 71, 0
2, 142080, Note_on_c, 0, 79, 103
2, 142500, Note_on_c, 0, 74, 100
2, 142512, Note_on_c, 0, 79, 0
2, 142528, Note_on_c, 0, 71, 97
2, 142540, Note_on_c, 0, 74, 0
2, 142560, Note_on_c, 0, 67, 94
2, 142570, Note_on_c, 0, 71, 0
2, 142768, Note_on_c, 0, 67, 0
2, 143040, Note_on_c, 0, 44, 80
2, 143520, Note_on_c, 0, 45, 76
2, 143532, Note_on_c, 0, 44, 0
2, 143764, Note_on_c, 0, 45, 0
2, 144000, Note_on_c, 0, 84, 107
2, 144420, Note_on_c, 0, 81, 112
2, 144436, Note_on_c, 0, 84, 0
2, 144448, Note_on_c, 0, 78, 109
2, 144462, Note_on_c, 0, 81, 0
2, 144480, Note_on_c, 0, 72, 104
2, 144491, Note_on_c, 0, 78, 0
2, 144688, Note_on_c, 0, 72, 0
2, 144960, Note_on_c, 0, 40, 80
2, 145440, Note_on_c, 0, 39, 84
2, 145452, Note_on_c, 0, 40, 0
2, 145688, Note_on_c, 0, 39, 0
2, 145920, Note_on_c, 0, 38, 85
2, 146400, Note_on_c, 0, 37, 79
2, 146424, Note_on_c, 0, 38, 0
2, 146644, Note_on_c, 0, 37, 0
2, 146880, Note_on_c, 0, 66, 73
2, 147360, Note_on_c, 0, 61, 75
2, 147376, Note_on_c, 0, 66, 0
2, 147600, Note_on_c, 0, 69, 75
2, 147620, Note_on_c, 0, 61, 0
2, 147808, Note_on_c, 0, 69, 0
2, 147840, Note_on_c, 0, 69, 99
2, 147840, Note_on_c, 0, 63, 99
2, 148320, Note_on_c, 0, 68, 82
2, 148336, Note_on_c, 0, 69, 0
2, 148560, Note_on_c, 0, 66, 82
2, 148576, Note_on_c, 0, 68, 0
2, 148768, Note_on_c, 0, 66, 0
2, 148768, Note_on_c, 0, 63, 0
2, 148800, Note_on_c, 0, 61, 97
2, 148800, Note_on_c, 0, 66, 97
2, 149220, Note_on_c, 0, 66, 0
2, 149220, Note_on_c, 0, 61, 0
2, 149280, Note_on_c, 0, 65, 87
2, 149460, Note_on_c, 0, 71, 73
2, 149476, Note_on_c, 0, 65, 0
2, 149512, Note_on_c, 0, 71, 0
2, 149520, Note_on_c, 0, 68, 82
2, 149700, Note_on_c, 0, 65, 76
2, 149716, Note_on_c, 0, 68, 0
2, 149752, Note_on_c, 0, 65, 0
2, 149760, Note_on_c, 0, 68, 82
2, 149880, Note_on_c, 0, 66, 76
2, 149896, Note_on_c, 0, 68, 0
2, 149984, Note_on_c, 0, 66, 0
2, 150000, Note_on_c, 0, 69, 82
2, 150104, Note_on_c, 0, 69, 0
2, 150120, Note_on_c, 0, 68, 76
2, 150224, Note_on_c, 0, 68, 0
2, 150240, Note_on_c, 0, 71, 82
2, 150344, Note_on_c, 0, 71, 0
2, 150360, Note_on_c, 0, 69, 72
2, 150464, Note_on_c, 0, 69, 0
2, 150720, Note_on_c, 0, 78, 104
2, 151140, Note_on_c, 0, 73, 106
2, 151144, Note_on_c, 0, 78, 0
2, 151168, Note_on_c, 0, 69, 104
2, 151182, Note_on_c, 0, 73, 0
2, 151200, Note_on_c, 0, 66, 101
2, 151211, Note_on_c, 0, 69, 0
2, 151408, Note_on_c, 0, 66, 0
2, 151680, Note_on_c, 0, 43, 76
2, 152160, Note_on_c, 0, 44, 82
2, 152176, Note_on_c, 0, 43, 0
2, 152400, Note_on_c, 0, 44, 0
2, 152640, Note_on_c, 0, 83, 106
2, 153060, Note_on_c, 0, 80, 107
2, 153080, Note_on_c, 0, 83, 0
2, 153084, Note_on_c, 0, 80, 0
2, 153088, Note_on_c, 0, 77, 105
2, 153116, Note_on_c, 0, 77, 0
2, 153120, Note_on_c, 0, 71, 103
2, 153328, Note_on_c, 0, 71, 0
2, 153600, Note_on_c, 0, 40, 80
2, 154080, Note_on_c, 0, 39, 76
2, 154096, Note_on_c, 0, 40, 0
2, 154320, Note_on_c, 0, 39, 0
2, 154560, Note_on_c, 0, 39, 82
2, 155040, Note_on_c, 0, 38, 80
2, 155052, Note_on_c, 0, 39, 0
2, 155280, Note_on_c, 0, 38, 0
2, 156480, Note_on_c, 0, 64, 82
2, 156480, Note_on_c, 0, 73, 82
2, 156480, Note_on_c, 0, 67, 82
2, 156940, Note_on_c, 0, 67, 0
2, 156960, Note_on_c, 0, 69, 82
2, 157168, Note_on_c, 0, 69, 0
2, 157200, Note_on_c, 0, 70, 82
2, 157380, Note_on_c, 0, 64, 0
2, 157400, Note_on_c, 0, 73, 0
2, 157408, Note_on_c, 0, 70, 0
2, 157440, Note_on_c, 0, 63, 96
2, 157440, Note_on_c, 0, 69, 96
2, 157440, Note_on_c, 0, 72, 96
2, 157920, Note_on_c, 0, 62, 88
2, 157940, Note_on_c, 0, 63, 0
2, 158128, Note_on_c, 0, 69, 0
2, 158128, Note_on_c, 0, 72, 0
2, 158128, Note_on_c, 0, 62, 0
2, 158400, Note_on_c, 0, 62, 76
2, 158400, Note_on_c, 0, 65, 76
2, 158400, Note_on_c, 0, 71, 76
2, 158608, Note_on_c, 0, 71, 0
2, 158608, Note_on_c, 0, 65, 0
2, 158608, Note_on_c, 0, 62, 0
2, 158640, Note_on_c, 0, 62, 76
2, 158640, Note_on_c, 0, 65, 76
2, 158640, Note_on_c, 0, 69, 76
2, 158848, Note_on_c, 0, 69, 0
2, 158848, Note_on_c, 0, 65, 0
2, 158848, Note_on_c, 0, 62, 0
2, 158880, Note_on_c, 0, 62, 69
2, 158880, Note_on_c, 0, 64, 69
2, 158880, Note_on_c, 0, 68, 69
2, 159088, Note_on_c, 0, 68, 0
2, 159088, Note_on_c, 0, 64, 0
2, 159088, Note_on_c, 0, 62, 0
2, 160320, Note_on_c, 0, 66, 97
2, 160320, Note_on_c, 0, 69, 97
2, 160320, Note_on_c, 0, 75, 97
2, 160980, Note_on_c, 0, 75, 0
2, 160980, Note_on_c, 0, 69, 0
2, 160980, Note_on_c, 0, 66, 0
2, 161040, Note_on_c, 0, 74, 82
2, 161040, Note_on_c, 0, 78, 82
2, 161040, Note_on_c, 0, 84, 82
2, 161248, Note_on_c, 0, 84, 0
2, 161248, Note_on_c, 0, 78, 0
2, 161248, Note_on_c, 0, 74, 0
2, 161280, Note_on_c, 0, 74, 100
2, 161280, Note_on_c, 0, 77, 100
2, 161280, Note_on_c, 0, 84, 100
2, 161760, Note_on_c, 0, 83, 90
2, 161776, Note_on_c, 0, 84, 0
2, 161968, Note_on_c, 0, 74, 0
2, 161968, Note_on_c, 0, 77, 0
2, 161968, Note_on_c, 0, 83, 0
2, 162240, Note_on_c, 0, 67, 77
2, 162240, Note_on_c, 0, 73, 77
2, 162240, Note_on_c, 0, 76, 77
2, 162448, Note_on_c, 0, 76, 0
2, 162448, Note_on_c, 0, 73, 0
2, 162448, Note_on_c, 0, 67, 0
2, 162480, Note_on_c, 0, 66, 77
2, 162480, Note_on_c, 0, 71, 77
2, 162480, Note_on_c, 0, 74, 77
2, 162688, Note_on_c, 0, 74, 0
2, 162688, Note_on_c, 0, 71, 0
2, 162688, Note_on_c, 0, 66, 0
2, 162720, Note_on_c, 0, 64, 76
2, 162720, Note_on_c, 0, 66, 76
2, 162720, Note_on_c, 0, 70, 76
2, 162928, Note_on_c, 0, 70, 0
2, 162928, Note_on_c, 0, 66, 0
2, 162928, Note_on_c, 0, 64, 0
2, 163200, Note_on_c, 0, 71, 76
2, 163680, Note_on_c, 0, 66, 73
2, 163692, Note_on_c, 0, 71, 0
2, 163920, Note_on_c, 0, 74, 76
2, 163932, Note_on_c, 0, 66, 0
2, 164128, Note_on_c, 0, 74, 0
2, 164160, Note_on_c, 0, 74, 101
2, 164160, Note_on_c, 0, 68, 101
2, 164640, Note_on_c, 0, 73, 75
2, 164656, Note_on_c, 0, 74, 0
2, 164880, Note_on_c, 0, 71, 72
2, 164896, Note_on_c, 0, 73, 0
2, 165088, Note_on_c, 0, 71, 0
2, 165092, Note_on_c, 0, 68, 0
2, 165120, Note_on_c, 0, 66, 99
2, 165120, Note_on_c, 0, 71, 99
2, 165540, Note_on_c, 0, 71, 0
2, 165540, Note_on_c, 0, 66, 0
2, 165600, Note_on_c, 0, 70, 74
2, 165780, Note_on_c, 0, 76, 76
2, 165793, Note_on_c, 0, 70, 0
2, 165831, Note_on_c, 0, 76, 0
2, 165840, Note_on_c, 0, 73, 74
2, 166020, Note_on_c, 0, 70, 71
2, 166032, Note_on_c, 0, 73, 0
2, 166072, Note_on_c, 0, 70, 0
2, 166080, Note_on_c, 0, 73, 76
2, 166200, Note_on_c, 0, 71, 70
2, 166216, Note_on_c, 0, 73, 0
2, 166304, Note_on_c, 0, 71, 0
2, 166320, Note_on_c, 0, 74, 76
2, 166440, Note_on_c, 0, 73, 71
2, 166456, Note_on_c, 0, 74, 0
2, 166544, Note_on_c, 0, 73, 0
2, 166560, Note_on_c, 0, 76, 78
2, 166680, Note_on_c, 0, 74, 69
2, 166696, Note_on_c, 0, 76, 0
2, 166784, Note_on_c, 0, 74, 0
2, 167280, Note_on_c, 0, 71, 102
2, 167280, Note_on_c, 0, 83, 102
2, 167760, Note_on_c, 0, 70, 98
2, 167760, Note_on_c, 0, 82, 98
2, 167776, Note_on_c, 0, 83, 0
2, 167776, Note_on_c, 0, 71, 0
2, 168000, Note_on_c, 0, 70, 0
2, 168004, Note_on_c, 0, 82, 0
2, 168240, Note_on_c, 0, 79, 75
2, 168420, Note_on_c, 0, 81, 77
2, 168430, Note_on_c, 0, 79, 0
2, 168480, Note_on_c, 0, 79, 74
2, 168492, Note_on_c, 0, 81, 0
2, 168720, Note_on_c, 0, 78, 69
2, 168732, Note_on_c, 0, 79, 0
2, 168928, Note_on_c, 0, 78, 0
2, 169200, Note_on_c, 0, 67, 101
2, 169200, Note_on_c, 0, 79, 101
2, 169680, Note_on_c, 0, 66, 91
2, 169680, Note_on_c, 0, 78, 91
2, 169692, Note_on_c, 0, 79, 0
2, 169696, Note_on_c, 0, 67, 0
2, 169920, Note_on_c, 0, 66, 0
2, 169924, Note_on_c, 0, 78, 0
2, 170160, Note_on_c, 0, 76, 75
2, 170340, Note_on_c, 0, 78, 78
2, 170350, Note_on_c, 0, 76, 0
2, 170400, Note_on_c, 0, 76, 73
2, 170412, Note_on_c, 0, 78, 0
2, 170640, Note_on_c, 0, 75, 69
2, 170652, Note_on_c, 0, 76, 0
2, 170848, Note_on_c, 0, 75, 0
2, 170880, Note_on_c, 0, 76, 82
2, 171000, Note_on_c, 0, 83, 82
2, 171013, Note_on_c, 0, 76, 0
2, 171120, Note_on_c, 0, 81, 82
2, 171132, Note_on_c, 0, 83, 0
2, 171172, Note_on_c, 0, 81, 0
2, 171180, Note_on_c, 0, 79, 82
2, 171232, Note_on_c, 0, 79, 0
2, 171240, Note_on_c, 0, 78, 82
2, 171292, Note_on_c, 0, 78, 0
2, 171300, Note_on_c, 0, 76, 82
2, 171352, Note_on_c, 0, 76, 0
2, 171360, Note_on_c, 0, 76, 96
2, 171600, Note_on_c, 0, 75, 88
2, 171616, Note_on_c, 0, 76, 0
2, 171808, Note_on_c, 0, 75, 0
2, 171840, Note_on_c, 0, 76, 76
2, 171944, Note_on_c, 0, 76, 0
2, 171960, Note_on_c, 0, 83, 80
2, 172064, Note_on_c, 0, 83, 0
2, 172080, Note_on_c, 0, 84, 78
2, 172140, Note_on_c, 0, 83, 77
2, 172150, Note_on_c, 0, 84, 0
2, 172200, Note_on_c, 0, 81, 76
2, 172210, Note_on_c, 0, 83, 0
2, 172260, Note_on_c, 0, 79, 75
2, 172270, Note_on_c, 0, 81, 0
2, 172320, Note_on_c, 0, 78, 88
2, 172330, Note_on_c, 0, 79, 0
2, 172560, Note_on_c, 0, 77, 82
2, 172576, Note_on_c, 0, 78, 0
2, 172768, Note_on_c, 0, 77, 0
2, 172800, Note_on_c, 0, 78, 73
2, 172969, Note_on_c, 0, 78, 0
2, 172980, Note_on_c, 0, 73, 71
2, 173032, Note_on_c, 0, 73, 0
2, 173040, Note_on_c, 0, 73, 76
2, 173040, Note_on_c, 0, 76, 76
2, 173520, Note_on_c, 0, 71, 74
2, 173520, Note_on_c, 0, 74, 74
2, 173533, Note_on_c, 0, 76, 0
2, 173535, Note_on_c, 0, 73, 0
2, 173728, Note_on_c, 0, 71, 0
2, 173728, Note_on_c, 0, 74, 0
2, 173760, Note_on_c, 0, 74, 88
2, 173760, Note_on_c, 0, 78, 88
2, 174120, Note_on_c, 0, 73, 75
2, 174120, Note_on_c, 0, 76, 75
2, 174134, Note_on_c, 0, 74, 0
2, 174136, Note_on_c, 0, 78, 0
2, 174180, Note_on_c, 0, 71, 79
2, 174180, Note_on_c, 0, 74, 79
2, 174192, Note_on_c, 0, 76, 0
2, 174193, Note_on_c, 0, 73, 0
2, 174240, Note_on_c, 0, 70, 67
2, 174240, Note_on_c, 0, 73, 67
2, 174253, Note_on_c, 0, 74, 0
2, 174254, Note_on_c, 0, 71, 0
2, 174448, Note_on_c, 0, 70, 0
2, 174448, Note_on_c, 0, 73, 0
2, 174720, Note_on_c, 0, 62, 94
2, 174720, Note_on_c, 0, 66, 94
2, 174824, Note_on_c, 0, 66, 0
2, 174824, Note_on_c, 0, 62, 0
2, 174840, Note_on_c, 0, 62, 95
2, 174840, Note_on_c, 0, 66, 95
2, 174944, Note_on_c, 0, 66, 0
2, 174944, Note_on_c, 0, 62, 0
2, 174960, Note_on_c, 0, 62, 95
2, 174960, Note_on_c, 0, 66, 95
2, 175064, Note_on_c, 0, 66, 0
2, 175064, Note_on_c, 0, 62, 0
2, 175080, Note_on_c, 0, 62, 95
2, 175080, Note_on_c, 0, 66, 95
2, 175184, Note_on_c, 0, 66, 0
2, 175184, Note_on_c, 0, 62, 0
2, 175200, Note_on_c, 0, 62, 95
2, 175200, Note_on_c, 0, 66, 95
2, 175304, Note_on_c, 0, 66, 0
2, 175304, Note_on_c, 0, 62, 0
2, 175320, Note_on_c, 0, 62, 95
2, 175320, Note_on_c, 0, 66, 95
2, 175424, Note_on_c, 0, 66, 0
2, 175424, Note_on_c, 0, 62, 0
2, 175440, Note_on_c, 0, 62, 95
2, 175440, Note_on_c, 0, 66, 95
2, 175544, Note_on_c, 0, 66, 0
2, 175544, Note_on_c, 0, 62, 0
2, 175560, Note_on_c, 0, 62, 96
2, 175560, Note_on_c, 0, 66, 96
2, 175664, Note_on_c, 0, 66, 0
2, 175664, Note_on_c, 0, 62, 0
2, 175680, Note_on_c, 0, 63, 82
2, 175680, Note_on_c, 0, 66, 82
2, 175784, Note_on_c, 0, 66, 0
2, 175784, Note_on_c, 0, 63, 0
2, 175800, Note_on_c, 0, 63, 75
2, 175800, Note_on_c, 0, 66, 75
2, 175904, Note_on_c, 0, 66, 0
2, 175904, Note_on_c, 0, 63, 0
2, 175920, Note_on_c, 0, 63, 75
2, 175920, Note_on_c, 0, 66, 75
2, 176024, Note_on_c, 0, 66, 0
2, 176024, Note_on_c, 0, 63, 0
2, 176040, Note_on_c, 0, 63, 75
2, 176040, Note_on_c, 0, 66, 75
2, 176144, Note_on_c, 0, 66, 0
2, 176144, Note_on_c, 0, 63, 0
2, 176160, Note_on_c, 0, 64, 75
2, 176160, Note_on_c, 0, 66, 75
2, 176264, Note_on_c, 0, 66, 0
2, 176264, Note_on_c, 0, 64, 0
2, 176280, Note_on_c, 0, 64, 73
2, 176280, Note_on_c, 0, 66, 73
2, 176384, Note_on_c, 0, 66, 0
2, 176384, Note_on_c, 0, 64, 0
2, 176400, Note_on_c, 0, 64, 73
2, 176400, Note_on_c, 0, 66, 73
2, 176504, Note_on_c, 0, 66, 0
2, 176504, Note_on_c, 0, 64, 0
2, 176520, Note_on_c, 0, 64, 73
2, 176520, Note_on_c, 0, 66, 73
2, 176624, Note_on_c, 0, 66, 0
2, 176624, Note_on_c, 0, 64, 0
2, 176640, Note_on_c, 0, 58, 93
2, 176640, Note_on_c, 0, 64, 93
2, 176640, Note_on_c, 0, 66, 93
2, 176744, Note_on_c, 0, 66, 0
2, 176744, Note_on_c, 0, 64, 0
2, 176744, Note_on_c, 0, 58, 0
2, 176760, Note_on_c, 0, 58, 93
2, 176760, Note_on_c, 0, 64, 93
2, 176760, Note_on_c, 0, 66, 93
2, 176864, Note_on_c, 0, 66, 0
2, 176864, Note_on_c, 0, 64, 0
2, 176864, Note_on_c, 0, 58, 0
2, 176880, Note_on_c, 0, 58, 93
2, 176880, Note_on_c, 0, 64, 93
2, 176880, Note_on_c, 0, 66, 93
2, 176984, Note_on_c, 0, 66, 0
2, 176984, Note_on_c, 0, 64, 0
2, 176984, Note_on_c, 0, 58, 0
2, 177000, Note_on_c, 0, 58, 93
2, 177000, Note_on_c, 0, 64, 93
2, 177000, Note_on_c, 0, 66, 93
2, 177104, Note_on_c, 0, 66, 0
2, 177104, Note_on_c, 0, 64, 0
2, 177104, Note_on_c, 0, 58, 0
2, 177120, Note_on_c, 0, 58, 93
2, 177120, Note_on_c, 0, 64, 93
2, 177120, Note_on_c, 0, 66, 93
2, 177224, Note_on_c, 0, 66, 0
2, 177224, Note_on_c, 0, 64, 0
2, 177224, Note_on_c, 0, 58, 0
2, 177240, Note_on_c, 0, 58, 93
2, 177240, Note_on_c, 0, 64, 93
2, 177240, Note_on_c, 0, 66, 93
2, 177344, Note_on_c, 0, 66, 0
2, 177344, Note_on_c, 0, 64, 0
2, 177344, Note_on_c, 0, 58, 0
2, 177360, Note_on_c, 0, 58, 93
2, 177360, Note_on_c, 0, 64, 93
2, 177360, Note_on_c, 0, 66, 93
2, 177464, Note_on_c, 0, 66, 0
2, 177464, Note_on_c, 0, 64, 0
2, 177464, Note_on_c, 0, 58, 0
2, 177480, Note_on_c, 0, 58, 95
2, 177480, Note_on_c, 0, 64, 95
2, 177480, Note_on_c, 0, 66, 95
2, 177584, Note_on_c, 0, 66, 0
2, 177584, Note_on_c, 0, 64, 0
2, 177584, Note_on_c, 0, 58, 0
2, 177600, Note_on_c, 0, 58, 75
2, 177600, Note_on_c, 0, 64, 75
2, 177600, Note_on_c, 0, 66, 75
2, 177704, Note_on_c, 0, 66, 0
2, 177704, Note_on_c, 0, 64, 0
2, 177704, Note_on_c, 0, 58, 0
2, 177720, Note_on_c, 0, 58, 74
2, 177720, Note_on_c, 0, 64, 74
2, 177720, Note_on_c, 0, 66, 74
2, 177824, Note_on_c, 0, 66, 0
2, 177824, Note_on_c, 0, 64, 0
2, 177824, Note_on_c, 0, 58, 0
2, 177840, Note_on_c, 0, 58, 73
2, 177840, Note_on_c, 0, 64, 73
2, 177840, Note_on_c, 0, 66, 73
2, 177944, Note_on_c, 0, 66, 0
2, 177944, Note_on_c, 0, 64, 0
2, 177944, Note_on_c, 0, 58, 0
2, 177960, Note_on_c, 0, 58, 73
2, 177960, Note_on_c, 0, 64, 73
2, 177960, Note_on_c, 0, 66, 73
2, 178064, Note_on_c, 0, 66, 0
2, 178064, Note_on_c, 0, 64, 0
2, 178064, Note_on_c, 0, 58, 0
2, 178080, Note_on_c, 0, 59, 73
2, 178080, Note_on_c, 0, 62, 73
2, 178080, Note_on_c, 0, 66, 73
2, 178184, Note_on_c, 0, 66, 0
2, 178184, Note_on_c, 0, 62, 0
2, 178184, Note_on_c, 0, 59, 0
2, 178200, Note_on_c, 0, 59, 74
2, 178200, Note_on_c, 0, 66, 74
2, 178304, Note_on_c, 0, 66, 0
2, 178304, Note_on_c, 0, 59, 0
2, 178320, Note_on_c, 0, 59, 78
2, 178320, Note_on_c, 0, 66, 78
2, 178424, Note_on_c, 0, 66, 0
2, 178424, Note_on_c, 0, 59, 0
2, 178440, Note_on_c, 0, 60, 78
2, 178440, Note_on_c, 0, 66, 78
2, 178544, Note_on_c, 0, 66, 0
2, 178544, Note_on_c, 0, 60, 0
2, 178560, Note_on_c, 0, 61, 78
2, 178560, Note_on_c, 0, 66, 78
2, 178664, Note_on_c, 0, 66, 0
2, 178664, Note_on_c, 0, 61, 0
2, 178680, Note_on_c, 0, 61, 78
2, 178680, Note_on_c, 0, 66, 78
2, 178784, Note_on_c, 0, 66, 0
2, 178784, Note_on_c, 0, 61, 0
2, 178800, Note_on_c, 0, 61, 77
2, 178800, Note_on_c, 0, 66, 77
2, 178904, Note_on_c, 0, 66, 0
2, 178904, Note_on_c, 0, 61, 0
2, 178920, Note_on_c, 0, 61, 77
2, 178920, Note_on_c, 0, 66, 77
2, 179024, Note_on_c, 0, 66, 0
2, 179024, Note_on_c, 0, 61, 0
2, 179040, Note_on_c, 0, 62, 77
2, 179040, Note_on_c, 0, 66, 77
2, 179144, Note_on_c, 0, 66, 0
2, 179144, Note_on_c, 0, 62, 0
2, 179160, Note_on_c, 0, 62, 77
2, 179160, Note_on_c, 0, 66, 77
2, 179264, Note_on_c, 0, 66, 0
2, 179264, Note_on_c, 0, 62, 0
2, 179280, Note_on_c, 0, 62, 77
2, 179280, Note_on_c, 0, 66, 77
2, 179384, Note_on_c, 0, 66, 0
2, 179384, Note_on_c, 0, 62, 0
2, 179400, Note_on_c, 0, 62, 77
2, 179400, Note_on_c, 0, 66, 77
2, 179504, Note_on_c, 0, 66, 0
2, 179504, Note_on_c, 0, 62, 0
2, 179520, Note_on_c, 0, 61, 77
2, 179520, Note_on_c, 0, 66, 77
2, 179624, Note_on_c, 0, 66, 0
2, 179624, Note_on_c, 0, 61, 0
2, 179640, Note_on_c, 0, 61, 77
2, 179640, Note_on_c, 0, 66, 77
2, 179744, Note_on_c, 0, 66, 0
2, 179744, Note_on_c, 0, 61, 0
2, 179760, Note_on_c, 0, 59, 77
2, 179760, Note_on_c, 0, 66, 77
2, 179864, Note_on_c, 0, 66, 0
2, 179864, Note_on_c, 0, 59, 0
2, 179880, Note_on_c, 0, 59, 77
2, 179880, Note_on_c, 0, 66, 77
2, 179984, Note_on_c, 0, 66, 0
2, 179984, Note_on_c, 0, 59, 0
2, 180000, Note_on_c, 0, 58, 77
2, 180000, Note_on_c, 0, 66, 77
2, 180104, Note_on_c, 0, 66, 0
2, 180104, Note_on_c, 0, 58, 0
2, 180120, Note_on_c, 0, 78, 77
2, 180224, Note_on_c, 0, 78, 0
2, 180240, Note_on_c, 0, 78, 77
2, 180344, Note_on_c, 0, 78, 0
2, 180360, Note_on_c, 0, 78, 77
2, 180464, Note_on_c, 0, 78, 0
2, 180480, Note_on_c, 0, 78, 77
2, 180584, Note_on_c, 0, 78, 0
2, 180600, Note_on_c, 0, 78, 77
2, 180704, Note_on_c, 0, 78, 0
2, 180720, Note_on_c, 0, 78, 77
2, 180824, Note_on_c, 0, 78, 0
2, 180840, Note_on_c, 0, 78, 77
2, 180944, Note_on_c, 0, 78, 0
2, 180960, Note_on_c, 0, 78, 76
2, 181064, Note_on_c, 0, 78, 0
2, 181080, Note_on_c, 0, 78, 75
2, 181184, Note_on_c, 0, 78, 0
2, 181200, Note_on_c, 0, 78, 74
2, 181304, Note_on_c, 0, 78, 0
2, 181320, Note_on_c, 0, 78, 73
2, 181424, Note_on_c, 0, 78, 0
2, 181440, Note_on_c, 0, 78, 70
2, 181440, Note_on_c, 0, 80, 70
2, 181544, Note_on_c, 0, 80, 0
2, 181544, Note_on_c, 0, 78, 0
2, 181560, Note_on_c, 0, 78, 70
2, 181560, Note_on_c, 0, 82, 70
2, 181664, Note_on_c, 0, 82, 0
2, 181664, Note_on_c, 0, 78, 0
2, 181680, Note_on_c, 0, 78, 70
2, 181680, Note_on_c, 0, 83, 70
2, 181784, Note_on_c, 0, 83, 0
2, 181784, Note_on_c, 0, 78, 0
2, 181800, Note_on_c, 0, 78, 70
2, 181800, Note_on_c, 0, 84, 70
2, 181904, Note_on_c, 0, 84, 0
2, 181904, Note_on_c, 0, 78, 0
2, 181920, Note_on_c, 0, 76, 70
2, 181920, Note_on_c, 0, 79, 70
2, 181920, Note_on_c, 0, 85, 70
2, 182128, Note_on_c, 0, 85, 0
2, 182128, Note_on_c, 0, 79, 0
2, 182128, Note_on_c, 0, 76, 0
2, 182370, Note_on_c, 0, 67, 105
2, 182385, Note_on_c, 0, 73, 106
2, 182400, Note_on_c, 0, 76, 109
2, 182600, Note_on_c, 0, 76, 0
2, 182610, Note_on_c, 0, 70, 105
2, 182625, Note_on_c, 0, 76, 107
2, 182640, Note_on_c, 0, 73, 0
2, 182640, Note_on_c, 0, 79, 109
2, 182658, Note_on_c, 0, 67, 0
2, 182850, Note_on_c, 0, 61, 100
2, 182860, Note_on_c, 0, 70, 0
2, 182865, Note_on_c, 0, 66, 100
2, 182880, Note_on_c, 0, 70, 102
2, 182884, Note_on_c, 0, 79, 0
2, 182892, Note_on_c, 0, 76, 0
2, 183138, Note_on_c, 0, 61, 0
2, 183138, Note_on_c, 0, 66, 0
2, 183138, Note_on_c, 0, 70, 0
2, 183360, Note_on_c, 0, 71, 79
2, 183600, Note_on_c, 0, 78, 86
2, 183620, Note_on_c, 0, 71, 0
2, 184080, Note_on_c, 0, 76, 81
2, 184100, Note_on_c, 0, 78, 0
2, 184200, Note_on_c, 0, 74, 79
2, 184220, Note_on_c, 0, 76, 0
2, 184304, Note_on_c, 0, 74, 0
2, 184320, Note_on_c, 0, 73, 76
2, 184560, Note_on_c, 0, 79, 86
2, 184580, Note_on_c, 0, 73, 0
2, 185040, Note_on_c, 0, 76, 79
2, 185060, Note_on_c, 0, 79, 0
2, 185160, Note_on_c, 0, 73, 79
2, 185180, Note_on_c, 0, 76, 0
2, 185264, Note_on_c, 0, 73, 0
2, 185280, Note_on_c, 0, 77, 73
2, 185340, Note_on_c, 0, 78, 79
2, 185352, Note_on_c, 0, 77, 0
2, 185400, Note_on_c, 0, 79, 81
2, 185412, Note_on_c, 0, 78, 0
2, 185460, Note_on_c, 0, 78, 81
2, 185472, Note_on_c, 0, 79, 0
2, 185520, Note_on_c, 0, 76, 81
2, 185532, Note_on_c, 0, 78, 0
2, 185580, Note_on_c, 0, 74, 79
2, 185592, Note_on_c, 0, 76, 0
2, 185640, Note_on_c, 0, 73, 78
2, 185652, Note_on_c, 0, 74, 0
2, 185700, Note_on_c, 0, 71, 73
2, 185712, Note_on_c, 0, 73, 0
2, 185760, Note_on_c, 0, 70, 79
2, 185772, Note_on_c, 0, 71, 0
2, 185820, Note_on_c, 0, 71, 70
2, 185832, Note_on_c, 0, 70, 0
2, 185880, Note_on_c, 0, 73, 70
2, 185892, Note_on_c, 0, 71, 0
2, 185940, Note_on_c, 0, 74, 70
2, 185952, Note_on_c, 0, 73, 0
2, 186000, Note_on_c, 0, 76, 70
2, 186012, Note_on_c, 0, 74, 0
2, 186060, Note_on_c, 0, 78, 72
2, 186072, Note_on_c, 0, 76, 0
2, 186120, Note_on_c, 0, 79, 75
2, 186132, Note_on_c, 0, 78, 0
2, 186180, Note_on_c, 0, 78, 79
2, 186192, Note_on_c, 0, 79, 0
2, 186232, Note_on_c, 0, 78, 0
2, 186240, Note_on_c, 0, 76, 79
2, 186600, Note_on_c, 0, 78, 83
2, 186612, Note_on_c, 0, 76, 0
2, 186660, Note_on_c, 0, 76, 88
2, 186672, Note_on_c, 0, 78, 0
2, 186720, Note_on_c, 0, 74, 86
2, 186732, Note_on_c, 0, 76, 0
2, 186928, Note_on_c, 0, 74, 0
2, 187200, Note_on_c, 0, 59, 91
2, 187304, Note_on_c, 0, 59, 0
2, 187320, Note_on_c, 0, 61, 75
2, 187372, Note_on_c, 0, 61, 0
2, 187380, Note_on_c, 0, 62, 76
2, 187432, Note_on_c, 0, 62, 0
2, 187440, Note_on_c, 0, 64, 78
2, 187492, Note_on_c, 0, 64, 0
2, 187500, Note_on_c, 0, 66, 79
2, 187552, Note_on_c, 0, 66, 0
2, 187560, Note_on_c, 0, 68, 81
2, 187612, Note_on_c, 0, 68, 0
2, 187620, Note_on_c, 0, 70, 83
2, 187672, Note_on_c, 0, 70, 0
2, 187680, Note_on_c, 0, 71, 84
2, 187732, Note_on_c, 0, 71, 0
2, 187740, Note_on_c, 0, 73, 85
2, 187792, Note_on_c, 0, 73, 0
2, 187800, Note_on_c, 0, 74, 86
2, 187852, Note_on_c, 0, 74, 0
2, 187860, Note_on_c, 0, 76, 86
2, 187912, Note_on_c, 0, 76, 0
2, 187920, Note_on_c, 0, 78, 86
2, 187972, Note_on_c, 0, 78, 0
2, 187980, Note_on_c, 0, 80, 86
2, 188032, Note_on_c, 0, 80, 0
2, 188040, Note_on_c, 0, 82, 86
2, 188092, Note_on_c, 0, 82, 0
2, 188100, Note_on_c, 0, 83, 86
2, 188152, Note_on_c, 0, 83, 0
2, 188160, Note_on_c, 0, 60, 78
2, 188228, Note_on_c, 0, 60, 0
2, 188236, Note_on_c, 0, 64, 75
2, 188308, Note_on_c, 0, 64, 0
2, 188316, Note_on_c, 0, 67, 76
2, 188388, Note_on_c, 0, 67, 0
2, 188400, Note_on_c, 0, 72, 80
2, 188468, Note_on_c, 0, 72, 0
2, 188476, Note_on_c, 0, 76, 81
2, 188548, Note_on_c, 0, 76, 0
2, 188556, Note_on_c, 0, 79, 83
2, 188628, Note_on_c, 0, 79, 0
2, 188640, Note_on_c, 0, 84, 85
2, 188716, Note_on_c, 0, 76, 85
2, 188735, Note_on_c, 0, 84, 0
2, 188796, Note_on_c, 0, 79, 85
2, 188816, Note_on_c, 0, 76, 0
2, 188880, Note_on_c, 0, 72, 82
2, 188896, Note_on_c, 0, 79, 0
2, 188956, Note_on_c, 0, 76, 79
2, 188975, Note_on_c, 0, 72, 0
2, 189036, Note_on_c, 0, 67, 76
2, 189056, Note_on_c, 0, 76, 0
2, 189108, Note_on_c, 0, 67, 0
2, 189120, Note_on_c, 0, 78, 81
2, 189300, Note_on_c, 0, 74, 78
2, 189324, Note_on_c, 0, 78, 0
2, 189352, Note_on_c, 0, 74, 0
2, 189360, Note_on_c, 0, 71, 78
2, 189840, Note_on_c, 0, 70, 75
2, 189840, Note_on_c, 0, 74, 75
2, 189860, Note_on_c, 0, 71, 0
2, 189960, Note_on_c, 0, 73, 82
2, 189984, Note_on_c, 0, 74, 0
2, 190064, Note_on_c, 0, 73, 0
2, 190064, Note_on_c, 0, 70, 0
2, 190080, Note_on_c, 0, 71, 72
2, 190500, Note_on_c, 0, 71, 0
2, 191040, Note_on_c, 0, 70, 78
2, 191520, Note_on_c, 0, 66, 85
2, 191544, Note_on_c, 0, 70, 0
2, 191760, Note_on_c, 0, 82, 82
2, 191780, Note_on_c, 0, 66, 0
2, 191968, Note_on_c, 0, 82, 0
2, 192000, Note_on_c, 0, 83, 82
2, 192020, Note_on_c, 0, 83, 0
2, 192060, Note_on_c, 0, 78, 81
2, 192120, Note_on_c, 0, 77, 79
2, 192132, Note_on_c, 0, 78, 0
2, 192180, Note_on_c, 0, 79, 76
2, 192192, Note_on_c, 0, 77, 0
2, 192240, Note_on_c, 0, 78, 76
2, 192252, Note_on_c, 0, 79, 0
2, 192300, Note_on_c, 0, 74, 76
2, 192312, Note_on_c, 0, 78, 0
2, 192360, Note_on_c, 0, 73, 76
2, 192372, Note_on_c, 0, 74, 0
2, 192420, Note_on_c, 0, 76, 74
2, 192432, Note_on_c, 0, 73, 0
2, 192480, Note_on_c, 0, 74, 74
2, 192492, Note_on_c, 0, 76, 0
2, 192540, Note_on_c, 0, 71, 74
2, 192552, Note_on_c, 0, 74, 0
2, 192600, Note_on_c, 0, 70, 74
2, 192612, Note_on_c, 0, 71, 0
2, 192660, Note_on_c, 0, 73, 74
2, 192672, Note_on_c, 0, 70, 0
2, 192720, Note_on_c, 0, 71, 73
2, 192732, Note_on_c, 0, 73, 0
2, 192780, Note_on_c, 0, 66, 73
2, 192792, Note_on_c, 0, 71, 0
2, 192840, Note_on_c, 0, 65, 71
2, 192852, Note_on_c, 0, 66, 0
2, 192900, Note_on_c, 0, 67, 70
2, 192912, Note_on_c, 0, 65, 0
2, 192952, Note_on_c, 0, 67, 0
2, 192960, Note_on_c, 0, 66, 70
2, 193020, Note_on_c, 0, 67, 71
2, 193032, Note_on_c, 0, 66, 0
2, 193080, Note_on_c, 0, 66, 73
2, 193092, Note_on_c, 0, 67, 0
2, 193140, Note_on_c, 0, 65, 75
2, 193152, Note_on_c, 0, 66, 0
2, 193200, Note_on_c, 0, 66, 75
2, 193212, Note_on_c, 0, 65, 0
2, 193260, Note_on_c, 0, 67, 76
2, 193272, Note_on_c, 0, 66, 0
2, 193320, Note_on_c, 0, 68, 77
2, 193332, Note_on_c, 0, 67, 0
2, 193380, Note_on_c, 0, 69, 78
2, 193392, Note_on_c, 0, 68, 0
2, 193432, Note_on_c, 0, 69, 0
2, 193440, Note_on_c, 0, 70, 78
2, 193460, Note_on_c, 0, 70, 0
2, 193500, Note_on_c, 0, 71, 80
2, 193520, Note_on_c, 0, 71, 0
2, 193560, Note_on_c, 0, 73, 82
2, 193580, Note_on_c, 0, 73, 0
2, 193620, Note_on_c, 0, 74, 84
2, 193640, Note_on_c, 0, 74, 0
2, 193680, Note_on_c, 0, 76, 85
2, 193700, Note_on_c, 0, 76, 0
2, 193740, Note_on_c, 0, 78, 86
2, 193760, Note_on_c, 0, 78, 0
2, 193800, Note_on_c, 0, 79, 86
2, 193820, Note_on_c, 0, 79, 0
2, 193860, Note_on_c, 0, 82, 86
2, 193880, Note_on_c, 0, 82, 0
2, 193920, Note_on_c, 0, 82, 85
2, 194400, Note_on_c, 0, 83, 76
2, 194420, Note_on_c, 0, 82, 0
2, 194608, Note_on_c, 0, 83, 0
2, 194880, Note_on_c, 0, 83, 88
2, 195360, Note_on_c, 0, 84, 76
2, 195388, Note_on_c, 0, 83, 0
2, 195568, Note_on_c, 0, 84, 0
2, 195840, Note_on_c, 0, 83, 82
2, 196320, Note_on_c, 0, 86, 72
2, 196340, Note_on_c, 0, 83, 0
2, 196528, Note_on_c, 0, 86, 0
2, 196920, Note_on_c, 0, 83, 70
2, 197040, Note_on_c, 0, 82, 70
2, 197065, Note_on_c, 0, 83, 0
2, 197160, Note_on_c, 0, 81, 70
2, 197185, Note_on_c, 0, 82, 0
2, 197280, Note_on_c, 0, 80, 70
2, 197305, Note_on_c, 0, 81, 0
2, 197400, Note_on_c, 0, 79, 73
2, 197425, Note_on_c, 0, 80, 0
2, 197520, Note_on_c, 0, 78, 73
2, 197545, Note_on_c, 0, 79, 0
2, 197640, Note_on_c, 0, 77, 73
2, 197665, Note_on_c, 0, 78, 0
2, 197760, Note_on_c, 0, 78, 72
2, 197785, Note_on_c, 0, 77, 0
2, 198840, Note_on_c, 0, 86, 78
2, 198856, Note_on_c, 0, 78, 0
2, 198944, Note_on_c, 0, 86, 0
2, 198960, Note_on_c, 0, 85, 74
2, 198988, Note_on_c, 0, 85, 0
2, 199036, Note_on_c, 0, 84, 72
2, 199068, Note_on_c, 0, 84, 0
2, 199116, Note_on_c, 0, 83, 72
2, 199148, Note_on_c, 0, 83, 0
2, 199200, Note_on_c, 0, 82, 73
2, 199228, Note_on_c, 0, 82, 0
2, 199276, Note_on_c, 0, 81, 73
2, 199308, Note_on_c, 0, 81, 0
2, 199356, Note_on_c, 0, 80, 73
2, 199388, Note_on_c, 0, 80, 0
2, 199440, Note_on_c, 0, 79, 73
2, 199468, Note_on_c, 0, 79, 0
2, 199516, Note_on_c, 0, 78, 73
2, 199548, Note_on_c, 0, 78, 0
2, 199596, Note_on_c, 0, 77, 73
2, 199628, Note_on_c, 0, 77, 0
2, 199680, Note_on_c, 0, 78, 73
2, 200700, Note_on_c, 0, 74, 74
2, 200712, Note_on_c, 0, 78, 0
2, 200760, Note_on_c, 0, 86, 77
2, 200772, Note_on_c, 0, 74, 0
2, 200820, Note_on_c, 0, 74, 77
2, 200832, Note_on_c, 0, 86, 0
2, 200880, Note_on_c, 0, 85, 77
2, 200892, Note_on_c, 0, 74, 0
2, 200940, Note_on_c, 0, 73, 75
2, 200952, Note_on_c, 0, 85, 0
2, 201000, Note_on_c, 0, 84, 71
2, 201012, Note_on_c, 0, 73, 0
2, 201060, Note_on_c, 0, 72, 71
2, 201072, Note_on_c, 0, 84, 0
2, 201112, Note_on_c, 0, 72, 0
2, 201120, Note_on_c, 0, 83, 71
2, 201156, Note_on_c, 0, 71, 71
2, 201164, Note_on_c, 0, 83, 0
2, 201196, Note_on_c, 0, 82, 73
2, 201206, Note_on_c, 0, 71, 0
2, 201236, Note_on_c, 0, 70, 74
2, 201246, Note_on_c, 0, 82, 0
2, 201276, Note_on_c, 0, 81, 75
2, 201286, Note_on_c, 0, 70, 0
2, 201316, Note_on_c, 0, 69, 75
2, 201326, Note_on_c, 0, 81, 0
2, 201352, Note_on_c, 0, 69, 0
2, 201360, Note_on_c, 0, 80, 75
2, 201420, Note_on_c, 0, 68, 75
2, 201432, Note_on_c, 0, 80, 0
2, 201480, Note_on_c, 0, 79, 75
2, 201492, Note_on_c, 0, 68, 0
2, 201540, Note_on_c, 0, 67, 75
2, 201552, Note_on_c, 0, 79, 0
2, 201592, Note_on_c, 0, 67, 0
2, 201600, Note_on_c, 0, 66, 71
2, 201600, Note_on_c, 0, 78, 71
2, 201808, Note_on_c, 0, 78, 0
2, 201808, Note_on_c, 0, 66, 0
2, 201840, Note_on_c, 0, 66, 72
2, 201840, Note_on_c, 0, 78, 72
2, 202048, Note_on_c, 0, 78, 0
2, 202048, Note_on_c, 0, 66, 0
2, 202080, Note_on_c, 0, 66, 72
2, 202080, Note_on_c, 0, 78, 72
2, 202288, Note_on_c, 0, 78, 0
2, 202288, Note_on_c, 0, 66, 0
2, 202320, Note_on_c, 0, 66, 72
2, 202320, Note_on_c, 0, 78, 72
2, 202528, Note_on_c, 0, 78, 0
2, 202528, Note_on_c, 0, 66, 0
2, 202560, Note_on_c, 0, 75, 74
2, 202680, Note_on_c, 0, 71, 75
2, 202705, Note_on_c, 0, 75, 0
2, 202800, Note_on_c, 0, 66, 76
2, 202825, Note_on_c, 0, 71, 0
2, 202920, Note_on_c, 0, 78, 70
2, 202945, Note_on_c, 0, 66, 0
2, 203024, Note_on_c, 0, 78, 0
2, 203040, Note_on_c, 0, 76, 70
2, 203160, Note_on_c, 0, 68, 78
2, 203280, Note_on_c, 0, 73, 72
2, 203296, Note_on_c, 0, 68, 0
2, 203400, Note_on_c, 0, 70, 72
2, 203416, Note_on_c, 0, 73, 0
2, 203460, Note_on_c, 0, 76, 0
2, 203504, Note_on_c, 0, 70, 0
2, 203520, Note_on_c, 0, 75, 75
2, 203520, Note_on_c, 0, 66, 75
2, 203640, Note_on_c, 0, 71, 75
2, 203656, Note_on_c, 0, 75, 0
2, 203760, Note_on_c, 0, 66, 75
2, 203776, Note_on_c, 0, 71, 0
2, 203880, Note_on_c, 0, 78, 72
2, 203896, Note_on_c, 0, 66, 0
2, 203972, Note_on_c, 0, 66, 0
2, 203984, Note_on_c, 0, 78, 0
2, 204000, Note_on_c, 0, 76, 72
2, 204120, Note_on_c, 0, 68, 72
2, 204240, Note_on_c, 0, 73, 73
2, 204256, Note_on_c, 0, 68, 0
2, 204360, Note_on_c, 0, 70, 75
2, 204376, Note_on_c, 0, 73, 0
2, 204420, Note_on_c, 0, 76, 0
2, 204464, Note_on_c, 0, 70, 0
2, 204480, Note_on_c, 0, 66, 73
2, 204480, Note_on_c, 0, 75, 73
2, 204584, Note_on_c, 0, 75, 0
2, 204584, Note_on_c, 0, 66, 0
2, 204600, Note_on_c, 0, 70, 76
2, 204600, Note_on_c, 0, 76, 76
2, 204720, Note_on_c, 0, 71, 79
2, 204720, Note_on_c, 0, 75, 79
2, 204745, Note_on_c, 0, 76, 0
2, 204745, Note_on_c, 0, 70, 0
2, 204840, Note_on_c, 0, 70, 76
2, 204840, Note_on_c, 0, 76, 76
2, 204865, Note_on_c, 0, 71, 0
2, 204865, Note_on_c, 0, 75, 0
2, 204960, Note_on_c, 0, 71, 73
2, 204960, Note_on_c, 0, 75, 73
2, 204985, Note_on_c, 0, 70, 0
2, 204985, Note_on_c, 0, 76, 0
2, 205080, Note_on_c, 0, 70, 72
2, 205080, Note_on_c, 0, 76, 72
2, 205105, Note_on_c, 0, 71, 0
2, 205105, Note_on_c, 0, 75, 0
2, 205200, Note_on_c, 0, 71, 68
2, 205200, Note_on_c, 0, 75, 68
2, 205225, Note_on_c, 0, 70, 0
2, 205225, Note_on_c, 0, 76, 0
2, 205320, Note_on_c, 0, 70, 68
2, 205320, Note_on_c, 0, 76, 68
2, 205345, Note_on_c, 0, 71, 0
2, 205345, Note_on_c, 0, 75, 0
2, 205440, Note_on_c, 0, 71, 66
2, 205440, Note_on_c, 0, 75, 66
2, 205465, Note_on_c, 0, 70, 0
2, 205465, Note_on_c, 0, 76, 0
2, 205648, Note_on_c, 0, 71, 0
2, 205648, Note_on_c, 0, 75, 0
2, 205800, Note_on_c, 0, 58, 67
2, 205800, Note_on_c, 0, 64, 67
2, 205800, Note_on_c, 0, 66, 67
2, 205904, Note_on_c, 0, 66, 0
2, 205904, Note_on_c, 0, 64, 0
2, 205904, Note_on_c, 0, 58, 0
2, 205920, Note_on_c, 0, 59, 62
2, 205920, Note_on_c, 0, 63, 62
2, 205920, Note_on_c, 0, 66, 62
2, 206128, Note_on_c, 0, 66, 0
2, 206128, Note_on_c, 0, 63, 0
2, 206128, Note_on_c, 0, 59, 0
2, 206280, Note_on_c, 0, 46, 65
2, 206280, Note_on_c, 0, 52, 65
2, 206280, Note_on_c, 0, 54, 65
2, 206384, Note_on_c, 0, 54, 0
2, 206384, Note_on_c, 0, 52, 0
2, 206384, Note_on_c, 0, 46, 0
2, 206400, Note_on_c, 0, 47, 64
2, 206400, Note_on_c, 0, 51, 64
2, 206400, Note_on_c, 0, 54, 64
2, 206608, Note_on_c, 0, 54, 0
2, 206608, Note_on_c, 0, 51, 0
2, 206608, Note_on_c, 0, 47, 0
2, 206608, End_track
3, 0, Start_track
3, 0, MIDI_port, 0
3, 0, Title_t, "Piano-Bass"
3, 0, Program_c, 1, 0
3, 960, Note_on_c, 1, 59, 97
3, 960, Note_on_c, 1, 53, 97
3, 1440, Note_on_c, 1, 61, 82
3, 1456, Note_on_c, 1, 59, 0
3, 1680, Note_on_c, 1, 62, 82
3, 1692, Note_on_c, 1, 61, 0
3, 1888, Note_on_c, 1, 62, 0
3, 1912, Note_on_c, 1, 53, 0
3, 1920, Note_on_c, 1, 62, 97
3, 1920, Note_on_c, 1, 54, 97
3, 2384, Note_on_c, 1, 62, 0
3, 2400, Note_on_c, 1, 61, 82
3, 2632, Note_on_c, 1, 54, 0
3, 2636, Note_on_c, 1, 61, 0
3, 2640, Note_on_c, 1, 67, 82
3, 2640, Note_on_c, 1, 64, 82
3, 2860, Note_on_c, 1, 64, 0
3, 2868, Note_on_c, 1, 67, 0
3, 2880, Note_on_c, 1, 66, 82
3, 2880, Note_on_c, 1, 62, 82
3, 3096, Note_on_c, 1, 66, 0
3, 3100, Note_on_c, 1, 62, 0
3, 3120, Note_on_c, 1, 66, 82
3, 3120, Note_on_c, 1, 58, 82
3, 3340, Note_on_c, 1, 58, 0
3, 3344, Note_on_c, 1, 66, 0
3, 3360, Note_on_c, 1, 66, 82
3, 3360, Note_on_c, 1, 59, 82
3, 3568, Note_on_c, 1, 59, 0
3, 3568, Note_on_c, 1, 66, 0
3, 3840, Note_on_c, 1, 62, 94
3, 3840, Note_on_c, 1, 66, 94
3, 3944, Note_on_c, 1, 66, 0
3, 3944, Note_on_c, 1, 62, 0
3, 3960, Note_on_c, 1, 62, 96
3, 3960, Note_on_c, 1, 66, 96
3, 4064, Note_on_c, 1, 66, 0
3, 4064, Note_on_c, 1, 62, 0
3, 4080, Note_on_c, 1, 62, 100
3, 4080, Note_on_c, 1, 66, 100
3, 4184, Note_on_c, 1, 66, 0
3, 4184, Note_on_c, 1, 62, 0
3, 4200, Note_on_c, 1, 62, 100
3, 4200, Note_on_c, 1, 66, 100
3, 4304, Note_on_c, 1, 66, 0
3, 4304, Note_on_c, 1, 62, 0
3, 4320, Note_on_c, 1, 61, 91
3, 4320, Note_on_c, 1, 64, 91
3, 4424, Note_on_c, 1, 64, 0
3, 4424, Note_on_c, 1, 61, 0
3, 4440, Note_on_c, 1, 61, 94
3, 4440, Note_on_c, 1, 64, 94
3, 4544, Note_on_c, 1, 64, 0
3, 4544, Note_on_c, 1, 61, 0
3, 4560, Note_on_c, 1, 61, 97
3, 4560, Note_on_c, 1, 64, 97
3, 4664, Note_on_c, 1, 64, 0
3, 4664, Note_on_c, 1, 61, 0
3, 4680, Note_on_c, 1, 61, 100
3, 4680, Note_on_c, 1, 64, 100
3, 4784, Note_on_c, 1, 64, 0
3, 4784, Note_on_c, 1, 61, 0
3, 4800, Note_on_c, 1, 59, 76
3, 4800, Note_on_c, 1, 62, 76
3, 4904, Note_on_c, 1, 62, 0
3, 4904, Note_on_c, 1, 59, 0
3, 4920, Note_on_c, 1, 59, 82
3, 4920, Note_on_c, 1, 62, 82
3, 5024, Note_on_c, 1, 62, 0
3, 5024, Note_on_c, 1, 59, 0
3, 5040, Note_on_c, 1, 59, 82
3, 5040, Note_on_c, 1, 62, 82
3, 5144, Note_on_c, 1, 62, 0
3, 5144, Note_on_c, 1, 59, 0
3, 5160, Note_on_c, 1, 59, 82
3, 5160, Note_on_c, 1, 62, 82
3, 5264, Note_on_c, 1, 62, 0
3, 5264, Note_on_c, 1, 59, 0
3, 5280, Note_on_c, 1, 58, 79
3, 5280, Note_on_c, 1, 61, 79
3, 5384, Note_on_c, 1, 61, 0
3, 5384, Note_on_c, 1, 58, 0
3, 5400, Note_on_c, 1, 58, 82
3, 5400, Note_on_c, 1, 61, 82
3, 5504, Note_on_c, 1, 61, 0
3, 5504, Note_on_c, 1, 58, 0
3, 5520, Note_on_c, 1, 58, 82
3, 5520, Note_on_c, 1, 61, 82
3, 5624, Note_on_c, 1, 61, 0
3, 5624, Note_on_c, 1, 58, 0
3, 5640, Note_on_c, 1, 58, 82
3, 5640, Note_on_c, 1, 61, 82
3, 5744, Note_on_c, 1, 61, 0
3, 5744, Note_on_c, 1, 58, 0
3, 5760, Note_on_c, 1, 59, 93
3, 5760, Note_on_c, 1, 62, 93
3, 5864, Note_on_c, 1, 62, 0
3, 5864, Note_on_c, 1, 59, 0
3, 5880, Note_on_c, 1, 59, 96
3, 5880, Note_on_c, 1, 62, 96
3, 5984, Note_on_c, 1, 62, 0
3, 5984, Note_on_c, 1, 59, 0
3, 6000, Note_on_c, 1, 59, 102
3, 6000, Note_on_c, 1, 62, 102
3, 6104, Note_on_c, 1, 62, 0
3, 6104, Note_on_c, 1, 59, 0
3, 6120, Note_on_c, 1, 59, 102
3, 6120, Note_on_c, 1, 62, 102
3, 6224, Note_on_c, 1, 62, 0
3, 6224, Note_on_c, 1, 59, 0
3, 6240, Note_on_c, 1, 57, 91
3, 6240, Note_on_c, 1, 61, 91
3, 6344, Note_on_c, 1, 61, 0
3, 6344, Note_on_c, 1, 57, 0
3, 6360, Note_on_c, 1, 57, 95
3, 6360, Note_on_c, 1, 61, 95
3, 6464, Note_on_c, 1, 61, 0
3, 6464, Note_on_c, 1, 57, 0
3, 6480, Note_on_c, 1, 57, 101
3, 6480, Note_on_c, 1, 61, 101
3, 6584, Note_on_c, 1, 61, 0
3, 6584, Note_on_c, 1, 57, 0
3, 6600, Note_on_c, 1, 57, 97
3, 6600, Note_on_c, 1, 61, 97
3, 6704, Note_on_c, 1, 61, 0
3, 6704, Note_on_c, 1, 57, 0
3, 6720, Note_on_c, 1, 55, 77
3, 6720, Note_on_c, 1, 59, 77
3, 6824, Note_on_c, 1, 59, 0
3, 6824, Note_on_c, 1, 55, 0
3, 6840, Note_on_c, 1, 55, 82
3, 6840, Note_on_c, 1, 59, 82
3, 6944, Note_on_c, 1, 59, 0
3, 6944, Note_on_c, 1, 55, 0
3, 6960, Note_on_c, 1, 55, 82
3, 6960, Note_on_c, 1, 59, 82
3, 7064, Note_on_c, 1, 59, 0
3, 7064, Note_on_c, 1, 55, 0
3, 7080, Note_on_c, 1, 55, 82
3, 7080, Note_on_c, 1, 59, 82
3, 7184, Note_on_c, 1, 59, 0
3, 7184, Note_on_c, 1, 55, 0
3, 7200, Note_on_c, 1, 57, 73
3, 7200, Note_on_c, 1, 54, 73
3, 7320, Note_on_c, 1, 59, 81
3, 7332, Note_on_c, 1, 57, 0
3, 7440, Note_on_c, 1, 60, 83
3, 7452, Note_on_c, 1, 59, 0
3, 7560, Note_on_c, 1, 59, 78
3, 7571, Note_on_c, 1, 60, 0
3, 7656, Note_on_c, 1, 54, 0
3, 7664, Note_on_c, 1, 59, 0
3, 7680, Note_on_c, 1, 59, 73
3, 7680, Note_on_c, 1, 55, 73
3, 8148, Note_on_c, 1, 55, 0
3, 8148, Note_on_c, 1, 59, 0
3, 8160, Note_on_c, 1, 57, 87
3, 8160, Note_on_c, 1, 54, 87
3, 8280, Note_on_c, 1, 59, 88
3, 8296, Note_on_c, 1, 57, 0
3, 8400, Note_on_c, 1, 60, 90
3, 8416, Note_on_c, 1, 59, 0
3, 8520, Note_on_c, 1, 59, 84
3, 8536, Note_on_c, 1, 60, 0
3, 8616, Note_on_c, 1, 54, 0
3, 8624, Note_on_c, 1, 59, 0
3, 8640, Note_on_c, 1, 59, 73
3, 8640, Note_on_c, 1, 55, 73
3, 9092, Note_on_c, 1, 55, 0
3, 9092, Note_on_c, 1, 59, 0
3, 9120, Note_on_c, 1, 59, 91
3, 9120, Note_on_c, 1, 56, 91
3, 9240, Note_on_c, 1, 61, 91
3, 9252, Note_on_c, 1, 59, 0
3, 9360, Note_on_c, 1, 62, 91
3, 9368, Note_on_c, 1, 61, 0
3, 9480, Note_on_c, 1, 61, 81
3, 9492, Note_on_c, 1, 62, 0
3, 9540, Note_on_c, 1, 56, 0
3, 9584, Note_on_c, 1, 61, 0
3, 9600, Note_on_c, 1, 61, 74
3, 9600, Note_on_c, 1, 58, 74
3, 9808, Note_on_c, 1, 61, 0
3, 9840, Note_on_c, 1, 67, 76
3, 10064, Note_on_c, 1, 58, 0
3, 10080, Note_on_c, 1, 66, 82
3, 10080, Note_on_c, 1, 59, 82
3, 10096, Note_on_c, 1, 67, 0
3, 10320, Note_on_c, 1, 65, 82
3, 10332, Note_on_c, 1, 66, 0
3, 10528, Note_on_c, 1, 65, 0
3, 10528, Note_on_c, 1, 59, 0
3, 10560, Note_on_c, 1, 66, 91
3, 10560, Note_on_c, 1, 54, 91
3, 11040, Note_on_c, 1, 54, 0
3, 11040, Note_on_c, 1, 66, 0
3, 11520, Note_on_c, 1, 47, 76
3, 12000, Note_on_c, 1, 42, 74
3, 12016, Note_on_c, 1, 47, 0
3, 12240, Note_on_c, 1, 50, 77
3, 12252, Note_on_c, 1, 42, 0
3, 12448, Note_on_c, 1, 50, 0
3, 12480, Note_on_c, 1, 50, 102
3, 12960, Note_on_c, 1, 49, 85
3, 12972, Note_on_c, 1, 50, 0
3, 13200, Note_on_c, 1, 47, 77
3, 13212, Note_on_c, 1, 49, 0
3, 13408, Note_on_c, 1, 47, 0
3, 13440, Note_on_c, 1, 45, 73
3, 13648, Note_on_c, 1, 45, 0
3, 13680, Note_on_c, 1, 45, 76
3, 13888, Note_on_c, 1, 45, 0
3, 13920, Note_on_c, 1, 47, 76
3, 14128, Note_on_c, 1, 47, 0
3, 14160, Note_on_c, 1, 49, 76
3, 14368, Note_on_c, 1, 49, 0
3, 14400, Note_on_c, 1, 50, 82
3, 14608, Note_on_c, 1, 50, 0
3, 14760, Note_on_c, 1, 62, 82
3, 14880, Note_on_c, 1, 61, 91
3, 14896, Note_on_c, 1, 62, 0
3, 15000, Note_on_c, 1, 62, 86
3, 15012, Note_on_c, 1, 61, 0
3, 15120, Note_on_c, 1, 57, 85
3, 15132, Note_on_c, 1, 62, 0
3, 15240, Note_on_c, 1, 54, 78
3, 15252, Note_on_c, 1, 57, 0
3, 15344, Note_on_c, 1, 54, 0
3, 15360, Note_on_c, 1, 55, 94
3, 15360, Note_on_c, 1, 58, 94
3, 15464, Note_on_c, 1, 58, 0
3, 15464, Note_on_c, 1, 55, 0
3, 15480, Note_on_c, 1, 55, 97
3, 15480, Note_on_c, 1, 58, 97
3, 15584, Note_on_c, 1, 58, 0
3, 15584, Note_on_c, 1, 55, 0
3, 15600, Note_on_c, 1, 55, 100
3, 15600, Note_on_c, 1, 58, 100
3, 15704, Note_on_c, 1, 58, 0
3, 15704, Note_on_c, 1, 55, 0
3, 15720, Note_on_c, 1, 55, 91
3, 15720, Note_on_c, 1, 58, 91
3, 15824, Note_on_c, 1, 58, 0
3, 15824, Note_on_c, 1, 55, 0
3, 15840, Note_on_c, 1, 54, 77
3, 15840, Note_on_c, 1, 57, 77
3, 15944, Note_on_c, 1, 57, 0
3, 15944, Note_on_c, 1, 54, 0
3, 15960, Note_on_c, 1, 54, 82
3, 15960, Note_on_c, 1, 57, 82
3, 16064, Note_on_c, 1, 57, 0
3, 16064, Note_on_c, 1, 54, 0
3, 16080, Note_on_c, 1, 54, 82
3, 16080, Note_on_c, 1, 57, 82
3, 16184, Note_on_c, 1, 57, 0
3, 16184, Note_on_c, 1, 54, 0
3, 16200, Note_on_c, 1, 54, 82
3, 16200, Note_on_c, 1, 57, 82
3, 16304, Note_on_c, 1, 57, 0
3, 16304, Note_on_c, 1, 54, 0
3, 16320, Note_on_c, 1, 55, 95
3, 16320, Note_on_c, 1, 64, 95
3, 16424, Note_on_c, 1, 64, 0
3, 16424, Note_on_c, 1, 55, 0
3, 16440, Note_on_c, 1, 55, 96
3, 16440, Note_on_c, 1, 64, 96
3, 16544, Note_on_c, 1, 64, 0
3, 16544, Note_on_c, 1, 55, 0
3, 16560, Note_on_c, 1, 55, 102
3, 16560, Note_on_c, 1, 64, 102
3, 16664, Note_on_c, 1, 64, 0
3, 16664, Note_on_c, 1, 55, 0
3, 16680, Note_on_c, 1, 55, 94
3, 16680, Note_on_c, 1, 64, 94
3, 16784, Note_on_c, 1, 64, 0
3, 16784, Note_on_c, 1, 55, 0
3, 16800, Note_on_c, 1, 56, 75
3, 16800, Note_on_c, 1, 65, 75
3, 16904, Note_on_c, 1, 65, 0
3, 16904, Note_on_c, 1, 56, 0
3, 16920, Note_on_c, 1, 56, 82
3, 16920, Note_on_c, 1, 65, 82
3, 17024, Note_on_c, 1, 65, 0
3, 17024, Note_on_c, 1, 56, 0
3, 17040, Note_on_c, 1, 56, 85
3, 17040, Note_on_c, 1, 65, 85
3, 17144, Note_on_c, 1, 65, 0
3, 17144, Note_on_c, 1, 56, 0
3, 17160, Note_on_c, 1, 56, 86
3, 17160, Note_on_c, 1, 62, 86
3, 17264, Note_on_c, 1, 62, 0
3, 17264, Note_on_c, 1, 56, 0
3, 17280, Note_on_c, 1, 57, 82
3, 17280, Note_on_c, 1, 61, 82
3, 17384, Note_on_c, 1, 61, 0
3, 17384, Note_on_c, 1, 57, 0
3, 17400, Note_on_c, 1, 57, 76
3, 17400, Note_on_c, 1, 61, 76
3, 17504, Note_on_c, 1, 61, 0
3, 17504, Note_on_c, 1, 57, 0
3, 17520, Note_on_c, 1, 59, 75
3, 17520, Note_on_c, 1, 62, 75
3, 17624, Note_on_c, 1, 62, 0
3, 17624, Note_on_c, 1, 59, 0
3, 17640, Note_on_c, 1, 59, 73
3, 17640, Note_on_c, 1, 62, 73
3, 17744, Note_on_c, 1, 62, 0
3, 17744, Note_on_c, 1, 59, 0
3, 17760, Note_on_c, 1, 61, 73
3, 17760, Note_on_c, 1, 64, 73
3, 17864, Note_on_c, 1, 64, 0
3, 17864, Note_on_c, 1, 61, 0
3, 17880, Note_on_c, 1, 61, 76
3, 17880, Note_on_c, 1, 64, 76
3, 17984, Note_on_c, 1, 64, 0
3, 17984, Note_on_c, 1, 61, 0
3, 18000, Note_on_c, 1, 62, 81
3, 18000, Note_on_c, 1, 69, 81
3, 18104, Note_on_c, 1, 69, 0
3, 18104, Note_on_c, 1, 62, 0
3, 18120, Note_on_c, 1, 62, 83
3, 18120, Note_on_c, 1, 66, 83
3, 18224, Note_on_c, 1, 66, 0
3, 18224, Note_on_c, 1, 62, 0
3, 18240, Note_on_c, 1, 66, 79
3, 18240, Note_on_c, 1, 57, 79
3, 18552, Note_on_c, 1, 66, 0
3, 18600, Note_on_c, 1, 62, 78
3, 18660, Note_on_c, 1, 57, 0
3, 18704, Note_on_c, 1, 62, 0
3, 18720, Note_on_c, 1, 61, 68
3, 18720, Note_on_c, 1, 57, 68
3, 18928, Note_on_c, 1, 57, 0
3, 18928, Note_on_c, 1, 61, 0
3, 19200, Note_on_c, 1, 38, 110
3, 19620, Note_on_c, 1, 42, 103
3, 19636, Note_on_c, 1, 38, 0
3, 19648, Note_on_c, 1, 45, 106
3, 19662, Note_on_c, 1, 42, 0
3, 19680, Note_on_c, 1, 50, 112
3, 19696, Note_on_c, 1, 45, 0
3, 19918, Note_on_c, 1, 50, 0
3, 20160, Note_on_c, 1, 75, 90
3, 20640, Note_on_c, 1, 76, 79
3, 20656, Note_on_c, 1, 75, 0
3, 20879, Note_on_c, 1, 76, 0
3, 21120, Note_on_c, 1, 33, 111
3, 21540, Note_on_c, 1, 37, 104
3, 21564, Note_on_c, 1, 33, 0
3, 21568, Note_on_c, 1, 40, 109
3, 21582, Note_on_c, 1, 37, 0
3, 21600, Note_on_c, 1, 45, 118
3, 21611, Note_on_c, 1, 40, 0
3, 21842, Note_on_c, 1, 45, 0
3, 22080, Note_on_c, 1, 77, 88
3, 22560, Note_on_c, 1, 78, 76
3, 22572, Note_on_c, 1, 77, 0
3, 22799, Note_on_c, 1, 78, 0
3, 22980, Note_on_c, 1, 78, 83
3, 23040, Note_on_c, 1, 79, 85
3, 23053, Note_on_c, 1, 78, 0
3, 23248, Note_on_c, 1, 79, 0
3, 23460, Note_on_c, 1, 80, 77
3, 23520, Note_on_c, 1, 81, 82
3, 23532, Note_on_c, 1, 80, 0
3, 23728, Note_on_c, 1, 81, 0
3, 23940, Note_on_c, 1, 81, 79
3, 24000, Note_on_c, 1, 80, 85
3, 24012, Note_on_c, 1, 81, 0
3, 24104, Note_on_c, 1, 80, 0
3, 24180, Note_on_c, 1, 79, 75
3, 24240, Note_on_c, 1, 78, 81
3, 24253, Note_on_c, 1, 79, 0
3, 24344, Note_on_c, 1, 78, 0
3, 24420, Note_on_c, 1, 77, 75
3, 24480, Note_on_c, 1, 76, 79
3, 24493, Note_on_c, 1, 77, 0
3, 24688, Note_on_c, 1, 76, 0
3, 24900, Note_on_c, 1, 63, 79
3, 24900, Note_on_c, 1, 66, 79
3, 24960, Note_on_c, 1, 64, 84
3, 24960, Note_on_c, 1, 67, 84
3, 24972, Note_on_c, 1, 66, 0
3, 24972, Note_on_c, 1, 63, 0
3, 25168, Note_on_c, 1, 64, 0
3, 25168, Note_on_c, 1, 67, 0
3, 25380, Note_on_c, 1, 65, 82
3, 25380, Note_on_c, 1, 68, 82
3, 25440, Note_on_c, 1, 66, 85
3, 25440, Note_on_c, 1, 69, 85
3, 25452, Note_on_c, 1, 68, 0
3, 25452, Note_on_c, 1, 65, 0
3, 25648, Note_on_c, 1, 66, 0
3, 25648, Note_on_c, 1, 69, 0
3, 25860, Note_on_c, 1, 66, 86
3, 25860, Note_on_c, 1, 69, 86
3, 25920, Note_on_c, 1, 65, 90
3, 25920, Note_on_c, 1, 68, 90
3, 25931, Note_on_c, 1, 69, 0
3, 25932, Note_on_c, 1, 66, 0
3, 26024, Note_on_c, 1, 65, 0
3, 26024, Note_on_c, 1, 68, 0
3, 26100, Note_on_c, 1, 64, 89
3, 26100, Note_on_c, 1, 67, 89
3, 26160, Note_on_c, 1, 62, 86
3, 26160, Note_on_c, 1, 66, 86
3, 26172, Note_on_c, 1, 67, 0
3, 26172, Note_on_c, 1, 64, 0
3, 26264, Note_on_c, 1, 62, 0
3, 26264, Note_on_c, 1, 66, 0
3, 26340, Note_on_c, 1, 62, 83
3, 26340, Note_on_c, 1, 65, 83
3, 26400, Note_on_c, 1, 61, 79
3, 26400, Note_on_c, 1, 64, 79
3, 26411, Note_on_c, 1, 65, 0
3, 26412, Note_on_c, 1, 62, 0
3, 26608, Note_on_c, 1, 61, 0
3, 26608, Note_on_c, 1, 64, 0
3, 26880, Note_on_c, 1, 37, 100
3, 26880, Note_on_c, 1, 49, 100
3, 27088, Note_on_c, 1, 49, 0
3, 27088, Note_on_c, 1, 37, 0
3, 27120, Note_on_c, 1, 40, 108
3, 27120, Note_on_c, 1, 52, 108
3, 27328, Note_on_c, 1, 52, 0
3, 27328, Note_on_c, 1, 40, 0
3, 27360, Note_on_c, 1, 43, 100
3, 27360, Note_on_c, 1, 55, 100
3, 27568, Note_on_c, 1, 55, 0
3, 27568, Note_on_c, 1, 43, 0
3, 27840, Note_on_c, 1, 57, 71
3, 27840, Note_on_c, 1, 54, 71
3, 27944, Note_on_c, 1, 57, 0
3, 27960, Note_on_c, 1, 62, 73
3, 28064, Note_on_c, 1, 62, 0
3, 28080, Note_on_c, 1, 57, 73
3, 28184, Note_on_c, 1, 57, 0
3, 28200, Note_on_c, 1, 62, 73
3, 28296, Note_on_c, 1, 54, 0
3, 28304, Note_on_c, 1, 62, 0
3, 28320, Note_on_c, 1, 57, 68
3, 28320, Note_on_c, 1, 54, 68
3, 28424, Note_on_c, 1, 57, 0
3, 28440, Note_on_c, 1, 62, 73
3, 28544, Note_on_c, 1, 62, 0
3, 28560, Note_on_c, 1, 57, 73
3, 28664, Note_on_c, 1, 57, 0
3, 28680, Note_on_c, 1, 62, 73
3, 28784, Note_on_c, 1, 62, 0
3, 28784, Note_on_c, 1, 54, 0
3, 28800, Note_on_c, 1, 59, 68
3, 28800, Note_on_c, 1, 55, 68
3, 28904, Note_on_c, 1, 59, 0
3, 28920, Note_on_c, 1, 62, 73
3, 29024, Note_on_c, 1, 62, 0
3, 29040, Note_on_c, 1, 59, 70
3, 29144, Note_on_c, 1, 59, 0
3, 29160, Note_on_c, 1, 62, 76
3, 29256, Note_on_c, 1, 55, 0
3, 29264, Note_on_c, 1, 62, 0
3, 29280, Note_on_c, 1, 59, 70
3, 29280, Note_on_c, 1, 55, 70
3, 29384, Note_on_c, 1, 59, 0
3, 29400, Note_on_c, 1, 62, 76
3, 29504, Note_on_c, 1, 62, 0
3, 29520, Note_on_c, 1, 59, 76
3, 29624, Note_on_c, 1, 59, 0
3, 29640, Note_on_c, 1, 64, 76
3, 29744, Note_on_c, 1, 64, 0
3, 29748, Note_on_c, 1, 55, 0
3, 29760, Note_on_c, 1, 62, 69
3, 29760, Note_on_c, 1, 57, 69
3, 29864, Note_on_c, 1, 62, 0
3, 29880, Note_on_c, 1, 66, 76
3, 29984, Note_on_c, 1, 66, 0
3, 30000, Note_on_c, 1, 62, 76
3, 30104, Note_on_c, 1, 62, 0
3, 30120, Note_on_c, 1, 66, 73
3, 30180, Note_on_c, 1, 57, 0
3, 30224, Note_on_c, 1, 66, 0
3, 30240, Note_on_c, 1, 64, 70
3, 30240, Note_on_c, 1, 57, 70
3, 30344, Note_on_c, 1, 64, 0
3, 30360, Note_on_c, 1, 67, 72
3, 30464, Note_on_c, 1, 67, 0
3, 30480, Note_on_c, 1, 64, 76
3, 30584, Note_on_c, 1, 64, 0
3, 30600, Note_on_c, 1, 67, 76
3, 30660, Note_on_c, 1, 57, 0
3, 30704, Note_on_c, 1, 67, 0
3, 30720, Note_on_c, 1, 61, 70
3, 30720, Note_on_c, 1, 58, 70
3, 30824, Note_on_c, 1, 61, 0
3, 30840, Note_on_c, 1, 64, 74
3, 30944, Note_on_c, 1, 64, 0
3, 30960, Note_on_c, 1, 61, 70
3, 31064, Note_on_c, 1, 61, 0
3, 31080, Note_on_c, 1, 64, 70
3, 31140, Note_on_c, 1, 58, 0
3, 31184, Note_on_c, 1, 64, 0
3, 31200, Note_on_c, 1, 62, 67
3, 31200, Note_on_c, 1, 59, 67
3, 31304, Note_on_c, 1, 62, 0
3, 31320, Note_on_c, 1, 66, 72
3, 31424, Note_on_c, 1, 66, 0
3, 31440, Note_on_c, 1, 62, 72
3, 31544, Note_on_c, 1, 62, 0
3, 31560, Note_on_c, 1, 66, 72
3, 31620, Note_on_c, 1, 59, 0
3, 31664, Note_on_c, 1, 66, 0
3, 31680, Note_on_c, 1, 54, 73
3, 31784, Note_on_c, 1, 54, 0
3, 31800, Note_on_c, 1, 57, 73
3, 31904, Note_on_c, 1, 57, 0
3, 31920, Note_on_c, 1, 54, 73
3, 32024, Note_on_c, 1, 54, 0
3, 32040, Note_on_c, 1, 57, 73
3, 32144, Note_on_c, 1, 57, 0
3, 32160, Note_on_c, 1, 54, 71
3, 32264, Note_on_c, 1, 54, 0
3, 32280, Note_on_c, 1, 62, 73
3, 32384, Note_on_c, 1, 62, 0
3, 32400, Note_on_c, 1, 57, 73
3, 32504, Note_on_c, 1, 57, 0
3, 32520, Note_on_c, 1, 62, 73
3, 32624, Note_on_c, 1, 62, 0
3, 32640, Note_on_c, 1, 55, 73
3, 32744, Note_on_c, 1, 55, 0
3, 32760, Note_on_c, 1, 62, 70
3, 32864, Note_on_c, 1, 62, 0
3, 32880, Note_on_c, 1, 59, 70
3, 32984, Note_on_c, 1, 59, 0
3, 33000, Note_on_c, 1, 62, 70
3, 33104, Note_on_c, 1, 62, 0
3, 33120, Note_on_c, 1, 55, 70
3, 33224, Note_on_c, 1, 55, 0
3, 33240, Note_on_c, 1, 62, 70
3, 33344, Note_on_c, 1, 62, 0
3, 33360, Note_on_c, 1, 59, 70
3, 33464, Note_on_c, 1, 59, 0
3, 33480, Note_on_c, 1, 62, 70
3, 33584, Note_on_c, 1, 62, 0
3, 33600, Note_on_c, 1, 66, 73
3, 33600, Note_on_c, 1, 57, 73
3, 34020, Note_on_c, 1, 66, 0
3, 34080, Note_on_c, 1, 67, 76
3, 34500, Note_on_c, 1, 67, 0
3, 34500, Note_on_c, 1, 57, 0
3, 34560, Note_on_c, 1, 62, 82
3, 35040, Note_on_c, 1, 57, 82
3, 35052, Note_on_c, 1, 62, 0
3, 35280, Note_on_c, 1, 66, 82
3, 35296, Note_on_c, 1, 57, 0
3, 35488, Note_on_c, 1, 66, 0
3, 35520, Note_on_c, 1, 67, 70
3, 35520, Note_on_c, 1, 64, 70
3, 35624, Note_on_c, 1, 64, 0
3, 35640, Note_on_c, 1, 57, 75
3, 35728, Note_on_c, 1, 67, 0
3, 35744, Note_on_c, 1, 57, 0
3, 35760, Note_on_c, 1, 67, 70
3, 35760, Note_on_c, 1, 64, 70
3, 35864, Note_on_c, 1, 64, 0
3, 35880, Note_on_c, 1, 57, 73
3, 35968, Note_on_c, 1, 67, 0
3, 35984, Note_on_c, 1, 57, 0
3, 36000, Note_on_c, 1, 67, 69
3, 36000, Note_on_c, 1, 64, 69
3, 36104, Note_on_c, 1, 64, 0
3, 36120, Note_on_c, 1, 57, 73
3, 36208, Note_on_c, 1, 67, 0
3, 36224, Note_on_c, 1, 57, 0
3, 36240, Note_on_c, 1, 67, 67
3, 36240, Note_on_c, 1, 64, 67
3, 36344, Note_on_c, 1, 64, 0
3, 36360, Note_on_c, 1, 57, 73
3, 36448, Note_on_c, 1, 67, 0
3, 36464, Note_on_c, 1, 57, 0
3, 36480, Note_on_c, 1, 62, 82
3, 36960, Note_on_c, 1, 57, 82
3, 36972, Note_on_c, 1, 62, 0
3, 37200, Note_on_c, 1, 66, 82
3, 37216, Note_on_c, 1, 57, 0
3, 37408, Note_on_c, 1, 66, 0
3, 37440, Note_on_c, 1, 67, 69
3, 37440, Note_on_c, 1, 64, 69
3, 37544, Note_on_c, 1, 64, 0
3, 37560, Note_on_c, 1, 57, 73
3, 37648, Note_on_c, 1, 67, 0
3, 37664, Note_on_c, 1, 57, 0
3, 37680, Note_on_c, 1, 67, 68
3, 37680, Note_on_c, 1, 64, 68
3, 37784, Note_on_c, 1, 64, 0
3, 37800, Note_on_c, 1, 57, 73
3, 37888, Note_on_c, 1, 67, 0
3, 37904, Note_on_c, 1, 57, 0
3, 37920, Note_on_c, 1, 67, 68
3, 37920, Note_on_c, 1, 64, 68
3, 38024, Note_on_c, 1, 64, 0
3, 38040, Note_on_c, 1, 57, 73
3, 38128, Note_on_c, 1, 67, 0
3, 38144, Note_on_c, 1, 57, 0
3, 38160, Note_on_c, 1, 67, 67
3, 38160, Note_on_c, 1, 64, 67
3, 38264, Note_on_c, 1, 64, 0
3, 38280, Note_on_c, 1, 57, 73
3, 38372, Note_on_c, 1, 67, 0
3, 38384, Note_on_c, 1, 57, 0
3, 38400, Note_on_c, 1, 57, 76
3, 38400, Note_on_c, 1, 64, 76
3, 38400, Note_on_c, 1, 67, 76
3, 38880, Note_on_c, 1, 62, 69
3, 38880, Note_on_c, 1, 66, 69
3, 38892, Note_on_c, 1, 67, 0
3, 38892, Note_on_c, 1, 57, 0
3, 38900, Note_on_c, 1, 64, 0
3, 39088, Note_on_c, 1, 66, 0
3, 39088, Note_on_c, 1, 62, 0
3, 39360, Note_on_c, 1, 49, 102
3, 39360, Note_on_c, 1, 61, 102
3, 39568, Note_on_c, 1, 61, 0
3, 39568, Note_on_c, 1, 49, 0
3, 39600, Note_on_c, 1, 47, 106
3, 39600, Note_on_c, 1, 59, 106
3, 39808, Note_on_c, 1, 59, 0
3, 39808, Note_on_c, 1, 47, 0
3, 39840, Note_on_c, 1, 46, 97
3, 39840, Note_on_c, 1, 58, 97
3, 40048, Note_on_c, 1, 58, 0
3, 40048, Note_on_c, 1, 46, 0
3, 41280, Note_on_c, 1, 59, 97
3, 41280, Note_on_c, 1, 53, 97
3, 41760, Note_on_c, 1, 61, 82
3, 41776, Note_on_c, 1, 59, 0
3, 42000, Note_on_c, 1, 62, 82
3, 42012, Note_on_c, 1, 61, 0
3, 42208, Note_on_c, 1, 62, 0
3, 42232, Note_on_c, 1, 53, 0
3, 42240, Note_on_c, 1, 62, 97
3, 42240, Note_on_c, 1, 54, 97
3, 42704, Note_on_c, 1, 62, 0
3, 42720, Note_on_c, 1, 61, 82
3, 42952, Note_on_c, 1, 54, 0
3, 42956, Note_on_c, 1, 61, 0
3, 42960, Note_on_c, 1, 67, 82
3, 42960, Note_on_c, 1, 64, 82
3, 43180, Note_on_c, 1, 64, 0
3, 43188, Note_on_c, 1, 67, 0
3, 43200, Note_on_c, 1, 66, 82
3, 43200, Note_on_c, 1, 62, 82
3, 43416, Note_on_c, 1, 66, 0
3, 43420, Note_on_c, 1, 62, 0
3, 43440, Note_on_c, 1, 66, 82
3, 43440, Note_on_c, 1, 58, 82
3, 43660, Note_on_c, 1, 58, 0
3, 43664, Note_on_c, 1, 66, 0
3, 43680, Note_on_c, 1, 66, 82
3, 43680, Note_on_c, 1, 59, 82
3, 43888, Note_on_c, 1, 59, 0
3, 43888, Note_on_c, 1, 66, 0
3, 44160, Note_on_c, 1, 62, 94
3, 44160, Note_on_c, 1, 66, 94
3, 44264, Note_on_c, 1, 66, 0
3, 44264, Note_on_c, 1, 62, 0
3, 44280, Note_on_c, 1, 62, 96
3, 44280, Note_on_c, 1, 66, 96
3, 44384, Note_on_c, 1, 66, 0
3, 44384, Note_on_c, 1, 62, 0
3, 44400, Note_on_c, 1, 62, 100
3, 44400, Note_on_c, 1, 66, 100
3, 44504, Note_on_c, 1, 66, 0
3, 44504, Note_on_c, 1, 62, 0
3, 44520, Note_on_c, 1, 62, 100
3, 44520, Note_on_c, 1, 66, 100
3, 44624, Note_on_c, 1, 66, 0
3, 44624, Note_on_c, 1, 62, 0
3, 44640, Note_on_c, 1, 61, 91
3, 44640, Note_on_c, 1, 64, 91
3, 44744, Note_on_c, 1, 64, 0
3, 44744, Note_on_c, 1, 61, 0
3, 44760, Note_on_c, 1, 61, 94
3, 44760, Note_on_c, 1, 64, 94
3, 44864, Note_on_c, 1, 64, 0
3, 44864, Note_on_c, 1, 61, 0
3, 44880, Note_on_c, 1, 61, 97
3, 44880, Note_on_c, 1, 64, 97
3, 44984, Note_on_c, 1, 64, 0
3, 44984, Note_on_c, 1, 61, 0
3, 45000, Note_on_c, 1, 61, 100
3, 45000, Note_on_c, 1, 64, 100
3, 45104, Note_on_c, 1, 64, 0
3, 45104, Note_on_c, 1, 61, 0
3, 45120, Note_on_c, 1, 59, 76
3, 45120, Note_on_c, 1, 62, 76
3, 45224, Note_on_c, 1, 62, 0
3, 45224, Note_on_c, 1, 59, 0
3, 45240, Note_on_c, 1, 59, 82
3, 45240, Note_on_c, 1, 62, 82
3, 45344, Note_on_c, 1, 62, 0
3, 45344, Note_on_c, 1, 59, 0
3, 45360, Note_on_c, 1, 59, 82
3, 45360, Note_on_c, 1, 62, 82
3, 45464, Note_on_c, 1, 62, 0
3, 45464, Note_on_c, 1, 59, 0
3, 45480, Note_on_c, 1, 59, 82
3, 45480, Note_on_c, 1, 62, 82
3, 45584, Note_on_c, 1, 62, 0
3, 45584, Note_on_c, 1, 59, 0
3, 45600, Note_on_c, 1, 58, 79
3, 45600, Note_on_c, 1, 61, 79
3, 45704, Note_on_c, 1, 61, 0
3, 45704, Note_on_c, 1, 58, 0
3, 45720, Note_on_c, 1, 58, 82
3, 45720, Note_on_c, 1, 61, 82
3, 45824, Note_on_c, 1, 61, 0
3, 45824, Note_on_c, 1, 58, 0
3, 45840, Note_on_c, 1, 58, 82
3, 45840, Note_on_c, 1, 61, 82
3, 45944, Note_on_c, 1, 61, 0
3, 45944, Note_on_c, 1, 58, 0
3, 45960, Note_on_c, 1, 58, 82
3, 45960, Note_on_c, 1, 61, 82
3, 46064, Note_on_c, 1, 61, 0
3, 46064, Note_on_c, 1, 58, 0
3, 46080, Note_on_c, 1, 59, 93
3, 46080, Note_on_c, 1, 62, 93
3, 46184, Note_on_c, 1, 62, 0
3, 46184, Note_on_c, 1, 59, 0
3, 46200, Note_on_c, 1, 59, 96
3, 46200, Note_on_c, 1, 62, 96
3, 46304, Note_on_c, 1, 62, 0
3, 46304, Note_on_c, 1, 59, 0
3, 46320, Note_on_c, 1, 59, 102
3, 46320, Note_on_c, 1, 62, 102
3, 46424, Note_on_c, 1, 62, 0
3, 46424, Note_on_c, 1, 59, 0
3, 46440, Note_on_c, 1, 59, 102
3, 46440, Note_on_c, 1, 62, 102
3, 46544, Note_on_c, 1, 62, 0
3, 46544, Note_on_c, 1, 59, 0
3, 46560, Note_on_c, 1, 57, 91
3, 46560, Note_on_c, 1, 61, 91
3, 46664, Note_on_c, 1, 61, 0
3, 46664, Note_on_c, 1, 57, 0
3, 46680, Note_on_c, 1, 57, 95
3, 46680, Note_on_c, 1, 61, 95
3, 46784, Note_on_c, 1, 61, 0
3, 46784, Note_on_c, 1, 57, 0
3, 46800, Note_on_c, 1, 57, 102
3, 46800, Note_on_c, 1, 61, 102
3, 46904, Note_on_c, 1, 61, 0
3, 46904, Note_on_c, 1, 57, 0
3, 46920, Note_on_c, 1, 57, 100
3, 46920, Note_on_c, 1, 61, 100
3, 47024, Note_on_c, 1, 61, 0
3, 47024, Note_on_c, 1, 57, 0
3, 47040, Note_on_c, 1, 55, 77
3, 47040, Note_on_c, 1, 59, 77
3, 47144, Note_on_c, 1, 59, 0
3, 47144, Note_on_c, 1, 55, 0
3, 47160, Note_on_c, 1, 55, 82
3, 47160, Note_on_c, 1, 59, 82
3, 47264, Note_on_c, 1, 59, 0
3, 47264, Note_on_c, 1, 55, 0
3, 47280, Note_on_c, 1, 55, 82
3, 47280, Note_on_c, 1, 59, 82
3, 47384, Note_on_c, 1, 59, 0
3, 47384, Note_on_c, 1, 55, 0
3, 47400, Note_on_c, 1, 55, 82
3, 47400, Note_on_c, 1, 59, 82
3, 47504, Note_on_c, 1, 59, 0
3, 47504, Note_on_c, 1, 55, 0
3, 47520, Note_on_c, 1, 57, 73
3, 47520, Note_on_c, 1, 54, 73
3, 47640, Note_on_c, 1, 59, 81
3, 47652, Note_on_c, 1, 57, 0
3, 47760, Note_on_c, 1, 60, 83
3, 47772, Note_on_c, 1, 59, 0
3, 47880, Note_on_c, 1, 59, 78
3, 47891, Note_on_c, 1, 60, 0
3, 47976, Note_on_c, 1, 54, 0
3, 47984, Note_on_c, 1, 59, 0
3, 48000, Note_on_c, 1, 59, 73
3, 48000, Note_on_c, 1, 55, 73
3, 48468, Note_on_c, 1, 55, 0
3, 48468, Note_on_c, 1, 59, 0
3, 48480, Note_on_c, 1, 57, 87
3, 48480, Note_on_c, 1, 54, 87
3, 48600, Note_on_c, 1, 59, 88
3, 48616, Note_on_c, 1, 57, 0
3, 48720, Note_on_c, 1, 60, 90
3, 48736, Note_on_c, 1, 59, 0
3, 48840, Note_on_c, 1, 59, 84
3, 48856, Note_on_c, 1, 60, 0
3, 48936, Note_on_c, 1, 54, 0
3, 48944, Note_on_c, 1, 59, 0
3, 48960, Note_on_c, 1, 59, 73
3, 48960, Note_on_c, 1, 55, 73
3, 49412, Note_on_c, 1, 55, 0
3, 49412, Note_on_c, 1, 59, 0
3, 49440, Note_on_c, 1, 59, 91
3, 49440, Note_on_c, 1, 56, 91
3, 49560, Note_on_c, 1, 61, 91
3, 49572, Note_on_c, 1, 59, 0
3, 49680, Note_on_c, 1, 62, 91
3, 49688, Note_on_c, 1, 61, 0
3, 49800, Note_on_c, 1, 61, 81
3, 49812, Note_on_c, 1, 62, 0
3, 49860, Note_on_c, 1, 56, 0
3, 49904, Note_on_c, 1, 61, 0
3, 49920, Note_on_c, 1, 61, 74
3, 49920, Note_on_c, 1, 58, 74
3, 50128, Note_on_c, 1, 61, 0
3, 50160, Note_on_c, 1, 67, 76
3, 50384, Note_on_c, 1, 58, 0
3, 50400, Note_on_c, 1, 66, 82
3, 50400, Note_on_c, 1, 59, 82
3, 50416, Note_on_c, 1, 67, 0
3, 50640, Note_on_c, 1, 65, 82
3, 50652, Note_on_c, 1, 66, 0
3, 50848, Note_on_c, 1, 65, 0
3, 50848, Note_on_c, 1, 59, 0
3, 50880, Note_on_c, 1, 66, 91
3, 50880, Note_on_c, 1, 54, 91
3, 51360, Note_on_c, 1, 54, 0
3, 51360, Note_on_c, 1, 66, 0
3, 51840, Note_on_c, 1, 47, 76
3, 52320, Note_on_c, 1, 42, 74
3, 52336, Note_on_c, 1, 47, 0
3, 52560, Note_on_c, 1, 50, 77
3, 52572, Note_on_c, 1, 42, 0
3, 52768, Note_on_c, 1, 50, 0
3, 52800, Note_on_c, 1, 50, 102
3, 53280, Note_on_c, 1, 49, 85
3, 53292, Note_on_c, 1, 50, 0
3, 53520, Note_on_c, 1, 47, 77
3, 53532, Note_on_c, 1, 49, 0
3, 53728, Note_on_c, 1, 47, 0
3, 53760, Note_on_c, 1, 45, 73
3, 53968, Note_on_c, 1, 45, 0
3, 54000, Note_on_c, 1, 45, 76
3, 54208, Note_on_c, 1, 45, 0
3, 54240, Note_on_c, 1, 47, 76
3, 54448, Note_on_c, 1, 47, 0
3, 54480, Note_on_c, 1, 49, 76
3, 54688, Note_on_c, 1, 49, 0
3, 54720, Note_on_c, 1, 50, 82
3, 54928, Note_on_c, 1, 50, 0
3, 55080, Note_on_c, 1, 62, 82
3, 55200, Note_on_c, 1, 61, 91
3, 55216, Note_on_c, 1, 62, 0
3, 55320, Note_on_c, 1, 62, 86
3, 55332, Note_on_c, 1, 61, 0
3, 55440, Note_on_c, 1, 57, 85
3, 55452, Note_on_c, 1, 62, 0
3, 55560, Note_on_c, 1, 54, 78
3, 55572, Note_on_c, 1, 57, 0
3, 55664, Note_on_c, 1, 54, 0
3, 55680, Note_on_c, 1, 55, 94
3, 55680, Note_on_c, 1, 58, 94
3, 55784, Note_on_c, 1, 58, 0
3, 55784, Note_on_c, 1, 55, 0
3, 55800, Note_on_c, 1, 55, 97
3, 55800, Note_on_c, 1, 58, 97
3, 55904, Note_on_c, 1, 58, 0
3, 55904, Note_on_c, 1, 55, 0
3, 55920, Note_on_c, 1, 55, 100
3, 55920, Note_on_c, 1, 58, 100
3, 56024, Note_on_c, 1, 58, 0
3, 56024, Note_on_c, 1, 55, 0
3, 56040, Note_on_c, 1, 55, 91
3, 56040, Note_on_c, 1, 58, 91
3, 56144, Note_on_c, 1, 58, 0
3, 56144, Note_on_c, 1, 55, 0
3, 56160, Note_on_c, 1, 54, 77
3, 56160, Note_on_c, 1, 57, 77
3, 56264, Note_on_c, 1, 57, 0
3, 56264, Note_on_c, 1, 54, 0
3, 56280, Note_on_c, 1, 54, 82
3, 56280, Note_on_c, 1, 57, 82
3, 56384, Note_on_c, 1, 57, 0
3, 56384, Note_on_c, 1, 54, 0
3, 56400, Note_on_c, 1, 54, 82
3, 56400, Note_on_c, 1, 57, 82
3, 56504, Note_on_c, 1, 57, 0
3, 56504, Note_on_c, 1, 54, 0
3, 56520, Note_on_c, 1, 54, 82
3, 56520, Note_on_c, 1, 57, 82
3, 56624, Note_on_c, 1, 57, 0
3, 56624, Note_on_c, 1, 54, 0
3, 56640, Note_on_c, 1, 55, 95
3, 56640, Note_on_c, 1, 64, 95
3, 56744, Note_on_c, 1, 64, 0
3, 56744, Note_on_c, 1, 55, 0
3, 56760, Note_on_c, 1, 55, 96
3, 56760, Note_on_c, 1, 64, 96
3, 56864, Note_on_c, 1, 64, 0
3, 56864, Note_on_c, 1, 55, 0
3, 56880, Note_on_c, 1, 55, 102
3, 56880, Note_on_c, 1, 64, 102
3, 56984, Note_on_c, 1, 64, 0
3, 56984, Note_on_c, 1, 55, 0
3, 57000, Note_on_c, 1, 55, 94
3, 57000, Note_on_c, 1, 64, 94
3, 57104, Note_on_c, 1, 64, 0
3, 57104, Note_on_c, 1, 55, 0
3, 57120, Note_on_c, 1, 56, 75
3, 57120, Note_on_c, 1, 65, 75
3, 57224, Note_on_c, 1, 65, 0
3, 57224, Note_on_c, 1, 56, 0
3, 57240, Note_on_c, 1, 56, 82
3, 57240, Note_on_c, 1, 65, 82
3, 57344, Note_on_c, 1, 65, 0
3, 57344, Note_on_c, 1, 56, 0
3, 57360, Note_on_c, 1, 56, 85
3, 57360, Note_on_c, 1, 65, 85
3, 57464, Note_on_c, 1, 65, 0
3, 57464, Note_on_c, 1, 56, 0
3, 57480, Note_on_c, 1, 56, 86
3, 57480, Note_on_c, 1, 62, 86
3, 57584, Note_on_c, 1, 62, 0
3, 57584, Note_on_c, 1, 56, 0
3, 57600, Note_on_c, 1, 57, 82
3, 57600, Note_on_c, 1, 61, 82
3, 57704, Note_on_c, 1, 61, 0
3, 57704, Note_on_c, 1, 57, 0
3, 57720, Note_on_c, 1, 57, 76
3, 57720, Note_on_c, 1, 61, 76
3, 57824, Note_on_c, 1, 61, 0
3, 57824, Note_on_c, 1, 57, 0
3, 57840, Note_on_c, 1, 59, 75
3, 57840, Note_on_c, 1, 62, 75
3, 57944, Note_on_c, 1, 62, 0
3, 57944, Note_on_c, 1, 59, 0
3, 57960, Note_on_c, 1, 59, 73
3, 57960, Note_on_c, 1, 62, 73
3, 58064, Note_on_c, 1, 62, 0
3, 58064, Note_on_c, 1, 59, 0
3, 58080, Note_on_c, 1, 61, 73
3, 58080, Note_on_c, 1, 64, 73
3, 58184, Note_on_c, 1, 64, 0
3, 58184, Note_on_c, 1, 61, 0
3, 58200, Note_on_c, 1, 61, 76
3, 58200, Note_on_c, 1, 64, 76
3, 58304, Note_on_c, 1, 64, 0
3, 58304, Note_on_c, 1, 61, 0
3, 58320, Note_on_c, 1, 62, 81
3, 58320, Note_on_c, 1, 69, 81
3, 58424, Note_on_c, 1, 69, 0
3, 58424, Note_on_c, 1, 62, 0
3, 58440, Note_on_c, 1, 62, 83
3, 58440, Note_on_c, 1, 66, 83
3, 58544, Note_on_c, 1, 66, 0
3, 58544, Note_on_c, 1, 62, 0
3, 58560, Note_on_c, 1, 66, 79
3, 58560, Note_on_c, 1, 57, 79
3, 58872, Note_on_c, 1, 66, 0
3, 58920, Note_on_c, 1, 62, 78
3, 58980, Note_on_c, 1, 57, 0
3, 59024, Note_on_c, 1, 62, 0
3, 59040, Note_on_c, 1, 61, 68
3, 59040, Note_on_c, 1, 57, 68
3, 59248, Note_on_c, 1, 57, 0
3, 59248, Note_on_c, 1, 61, 0
3, 59520, Note_on_c, 1, 38, 110
3, 59940, Note_on_c, 1, 42, 103
3, 59956, Note_on_c, 1, 38, 0
3, 59968, Note_on_c, 1, 45, 106
3, 59982, Note_on_c, 1, 42, 0
3, 60000, Note_on_c, 1, 50, 112
3, 60016, Note_on_c, 1, 45, 0
3, 60238, Note_on_c, 1, 50, 0
3, 60480, Note_on_c, 1, 75, 90
3, 60960, Note_on_c, 1, 76, 79
3, 60976, Note_on_c, 1, 75, 0
3, 61199, Note_on_c, 1, 76, 0
3, 61440, Note_on_c, 1, 33, 111
3, 61860, Note_on_c, 1, 37, 104
3, 61884, Note_on_c, 1, 33, 0
3, 61888, Note_on_c, 1, 40, 109
3, 61902, Note_on_c, 1, 37, 0
3, 61920, Note_on_c, 1, 45, 118
3, 61931, Note_on_c, 1, 40, 0
3, 62162, Note_on_c, 1, 45, 0
3, 62400, Note_on_c, 1, 77, 88
3, 62880, Note_on_c, 1, 78, 76
3, 62892, Note_on_c, 1, 77, 0
3, 63119, Note_on_c, 1, 78, 0
3, 63300, Note_on_c, 1, 78, 83
3, 63360, Note_on_c, 1, 79, 85
3, 63373, Note_on_c, 1, 78, 0
3, 63599, Note_on_c, 1, 79, 0
3, 63780, Note_on_c, 1, 80, 77
3, 63840, Note_on_c, 1, 81, 82
3, 63852, Note_on_c, 1, 80, 0
3, 64079, Note_on_c, 1, 81, 0
3, 64260, Note_on_c, 1, 81, 79
3, 64320, Note_on_c, 1, 80, 85
3, 64332, Note_on_c, 1, 81, 0
3, 64424, Note_on_c, 1, 80, 0
3, 64500, Note_on_c, 1, 79, 75
3, 64560, Note_on_c, 1, 78, 81
3, 64573, Note_on_c, 1, 79, 0
3, 64664, Note_on_c, 1, 78, 0
3, 64740, Note_on_c, 1, 77, 75
3, 64800, Note_on_c, 1, 76, 79
3, 64813, Note_on_c, 1, 77, 0
3, 65008, Note_on_c, 1, 76, 0
3, 65220, Note_on_c, 1, 63, 79
3, 65220, Note_on_c, 1, 66, 79
3, 65280, Note_on_c, 1, 64, 84
3, 65280, Note_on_c, 1, 67, 84
3, 65292, Note_on_c, 1, 66, 0
3, 65292, Note_on_c, 1, 63, 0
3, 65488, Note_on_c, 1, 64, 0
3, 65488, Note_on_c, 1, 67, 0
3, 65700, Note_on_c, 1, 65, 82
3, 65700, Note_on_c, 1, 68, 82
3, 65760, Note_on_c, 1, 66, 85
3, 65760, Note_on_c, 1, 69, 85
3, 65772, Note_on_c, 1, 68, 0
3, 65772, Note_on_c, 1, 65, 0
3, 65968, Note_on_c, 1, 66, 0
3, 65968, Note_on_c, 1, 69, 0
3, 66180, Note_on_c, 1, 66, 86
3, 66180, Note_on_c, 1, 69, 86
3, 66240, Note_on_c, 1, 65, 90
3, 66240, Note_on_c, 1, 68, 90
3, 66251, Note_on_c, 1, 69, 0
3, 66252, Note_on_c, 1, 66, 0
3, 66344, Note_on_c, 1, 65, 0
3, 66344, Note_on_c, 1, 68, 0
3, 66420, Note_on_c, 1, 64, 89
3, 66420, Note_on_c, 1, 67, 89
3, 66480, Note_on_c, 1, 62, 86
3, 66480, Note_on_c, 1, 66, 86
3, 66492, Note_on_c, 1, 67, 0
3, 66492, Note_on_c, 1, 64, 0
3, 66584, Note_on_c, 1, 62, 0
3, 66584, Note_on_c, 1, 66, 0
3, 66660, Note_on_c, 1, 62, 83
3, 66660, Note_on_c, 1, 65, 83
3, 66720, Note_on_c, 1, 61, 79
3, 66720, Note_on_c, 1, 64, 79
3, 66731, Note_on_c, 1, 65, 0
3, 66732, Note_on_c, 1, 62, 0
3, 66928, Note_on_c, 1, 61, 0
3, 66928, Note_on_c, 1, 64, 0
3, 67200, Note_on_c, 1, 37, 100
3, 67200, Note_on_c, 1, 49, 100
3, 67408, Note_on_c, 1, 49, 0
3, 67408, Note_on_c, 1, 37, 0
3, 67440, Note_on_c, 1, 40, 108
3, 67440, Note_on_c, 1, 52, 108
3, 67648, Note_on_c, 1, 52, 0
3, 67648, Note_on_c, 1, 40, 0
3, 67680, Note_on_c, 1, 43, 100
3, 67680, Note_on_c, 1, 55, 100
3, 67888, Note_on_c, 1, 55, 0
3, 67888, Note_on_c, 1, 43, 0
3, 68160, Note_on_c, 1, 57, 71
3, 68160, Note_on_c, 1, 54, 71
3, 68264, Note_on_c, 1, 57, 0
3, 68280, Note_on_c, 1, 62, 73
3, 68384, Note_on_c, 1, 62, 0
3, 68400, Note_on_c, 1, 57, 73
3, 68504, Note_on_c, 1, 57, 0
3, 68520, Note_on_c, 1, 62, 73
3, 68616, Note_on_c, 1, 54, 0
3, 68624, Note_on_c, 1, 62, 0
3, 68640, Note_on_c, 1, 57, 68
3, 68640, Note_on_c, 1, 54, 68
3, 68744, Note_on_c, 1, 57, 0
3, 68760, Note_on_c, 1, 62, 73
3, 68864, Note_on_c, 1, 62, 0
3, 68880, Note_on_c, 1, 57, 73
3, 68984, Note_on_c, 1, 57, 0
3, 69000, Note_on_c, 1, 62, 73
3, 69104, Note_on_c, 1, 62, 0
3, 69104, Note_on_c, 1, 54, 0
3, 69120, Note_on_c, 1, 59, 68
3, 69120, Note_on_c, 1, 55, 68
3, 69224, Note_on_c, 1, 59, 0
3, 69240, Note_on_c, 1, 62, 73
3, 69344, Note_on_c, 1, 62, 0
3, 69360, Note_on_c, 1, 59, 70
3, 69464, Note_on_c, 1, 59, 0
3, 69480, Note_on_c, 1, 62, 76
3, 69576, Note_on_c, 1, 55, 0
3, 69584, Note_on_c, 1, 62, 0
3, 69600, Note_on_c, 1, 59, 70
3, 69600, Note_on_c, 1, 55, 70
3, 69704, Note_on_c, 1, 59, 0
3, 69720, Note_on_c, 1, 62, 76
3, 69824, Note_on_c, 1, 62, 0
3, 69840, Note_on_c, 1, 59, 76
3, 69944, Note_on_c, 1, 59, 0
3, 69960, Note_on_c, 1, 64, 76
3, 70064, Note_on_c, 1, 64, 0
3, 70068, Note_on_c, 1, 55, 0
3, 70080, Note_on_c, 1, 62, 69
3, 70080, Note_on_c, 1, 57, 69
3, 70184, Note_on_c, 1, 62, 0
3, 70200, Note_on_c, 1, 66, 76
3, 70304, Note_on_c, 1, 66, 0
3, 70320, Note_on_c, 1, 62, 76
3, 70424, Note_on_c, 1, 62, 0
3, 70440, Note_on_c, 1, 66, 73
3, 70500, Note_on_c, 1, 57, 0
3, 70544, Note_on_c, 1, 66, 0
3, 70560, Note_on_c, 1, 64, 70
3, 70560, Note_on_c, 1, 57, 70
3, 70664, Note_on_c, 1, 64, 0
3, 70680, Note_on_c, 1, 67, 72
3, 70784, Note_on_c, 1, 67, 0
3, 70800, Note_on_c, 1, 64, 76
3, 70904, Note_on_c, 1, 64, 0
3, 70920, Note_on_c, 1, 67, 76
3, 70980, Note_on_c, 1, 57, 0
3, 71024, Note_on_c, 1, 67, 0
3, 71040, Note_on_c, 1, 61, 70
3, 71040, Note_on_c, 1, 58, 70
3, 71144, Note_on_c, 1, 61, 0
3, 71160, Note_on_c, 1, 64, 74
3, 71264, Note_on_c, 1, 64, 0
3, 71280, Note_on_c, 1, 61, 70
3, 71384, Note_on_c, 1, 61, 0
3, 71400, Note_on_c, 1, 64, 70
3, 71460, Note_on_c, 1, 58, 0
3, 71504, Note_on_c, 1, 64, 0
3, 71520, Note_on_c, 1, 62, 67
3, 71520, Note_on_c, 1, 59, 67
3, 71624, Note_on_c, 1, 62, 0
3, 71640, Note_on_c, 1, 66, 72
3, 71744, Note_on_c, 1, 66, 0
3, 71760, Note_on_c, 1, 62, 72
3, 71864, Note_on_c, 1, 62, 0
3, 71880, Note_on_c, 1, 66, 72
3, 71940, Note_on_c, 1, 59, 0
3, 71984, Note_on_c, 1, 66, 0
3, 72000, Note_on_c, 1, 54, 73
3, 72104, Note_on_c, 1, 54, 0
3, 72120, Note_on_c, 1, 57, 73
3, 72224, Note_on_c, 1, 57, 0
3, 72240, Note_on_c, 1, 54, 73
3, 72344, Note_on_c, 1, 54, 0
3, 72360, Note_on_c, 1, 57, 73
3, 72464, Note_on_c, 1, 57, 0
3, 72480, Note_on_c, 1, 54, 71
3, 72584, Note_on_c, 1, 54, 0
3, 72600, Note_on_c, 1, 62, 73
3, 72704, Note_on_c, 1, 62, 0
3, 72720, Note_on_c, 1, 57, 73
3, 72824, Note_on_c, 1, 57, 0
3, 72840, Note_on_c, 1, 62, 73
3, 72944, Note_on_c, 1, 62, 0
3, 72960, Note_on_c, 1, 55, 73
3, 73064, Note_on_c, 1, 55, 0
3, 73080, Note_on_c, 1, 62, 70
3, 73184, Note_on_c, 1, 62, 0
3, 73200, Note_on_c, 1, 59, 70
3, 73304, Note_on_c, 1, 59, 0
3, 73320, Note_on_c, 1, 62, 70
3, 73424, Note_on_c, 1, 62, 0
3, 73440, Note_on_c, 1, 55, 70
3, 73544, Note_on_c, 1, 55, 0
3, 73560, Note_on_c, 1, 62, 70
3, 73664, Note_on_c, 1, 62, 0
3, 73680, Note_on_c, 1, 59, 70
3, 73784, Note_on_c, 1, 59, 0
3, 73800, Note_on_c, 1, 62, 70
3, 73904, Note_on_c, 1, 62, 0
3, 73920, Note_on_c, 1, 66, 73
3, 73920, Note_on_c, 1, 57, 73
3, 74340, Note_on_c, 1, 66, 0
3, 74400, Note_on_c, 1, 67, 76
3, 74820, Note_on_c, 1, 67, 0
3, 74820, Note_on_c, 1, 57, 0
3, 74880, Note_on_c, 1, 62, 82
3, 75360, Note_on_c, 1, 57, 82
3, 75372, Note_on_c, 1, 62, 0
3, 75600, Note_on_c, 1, 66, 82
3, 75616, Note_on_c, 1, 57, 0
3, 75808, Note_on_c, 1, 66, 0
3, 75840, Note_on_c, 1, 67, 70
3, 75840, Note_on_c, 1, 64, 70
3, 75944, Note_on_c, 1, 64, 0
3, 75960, Note_on_c, 1, 57, 75
3, 76048, Note_on_c, 1, 67, 0
3, 76064, Note_on_c, 1, 57, 0
3, 76080, Note_on_c, 1, 67, 70
3, 76080, Note_on_c, 1, 64, 70
3, 76184, Note_on_c, 1, 64, 0
3, 76200, Note_on_c, 1, 57, 73
3, 76288, Note_on_c, 1, 67, 0
3, 76304, Note_on_c, 1, 57, 0
3, 76320, Note_on_c, 1, 67, 69
3, 76320, Note_on_c, 1, 64, 69
3, 76424, Note_on_c, 1, 64, 0
3, 76440, Note_on_c, 1, 57, 73
3, 76528, Note_on_c, 1, 67, 0
3, 76544, Note_on_c, 1, 57, 0
3, 76560, Note_on_c, 1, 67, 67
3, 76560, Note_on_c, 1, 64, 67
3, 76664, Note_on_c, 1, 64, 0
3, 76680, Note_on_c, 1, 57, 73
3, 76768, Note_on_c, 1, 67, 0
3, 76784, Note_on_c, 1, 57, 0
3, 76800, Note_on_c, 1, 62, 82
3, 77280, Note_on_c, 1, 57, 82
3, 77292, Note_on_c, 1, 62, 0
3, 77520, Note_on_c, 1, 66, 82
3, 77536, Note_on_c, 1, 57, 0
3, 77728, Note_on_c, 1, 66, 0
3, 77760, Note_on_c, 1, 67, 69
3, 77760, Note_on_c, 1, 64, 69
3, 77864, Note_on_c, 1, 64, 0
3, 77880, Note_on_c, 1, 57, 73
3, 77968, Note_on_c, 1, 67, 0
3, 77984, Note_on_c, 1, 57, 0
3, 78000, Note_on_c, 1, 67, 68
3, 78000, Note_on_c, 1, 64, 68
3, 78104, Note_on_c, 1, 64, 0
3, 78120, Note_on_c, 1, 57, 73
3, 78208, Note_on_c, 1, 67, 0
3, 78224, Note_on_c, 1, 57, 0
3, 78240, Note_on_c, 1, 67, 68
3, 78240, Note_on_c, 1, 64, 68
3, 78344, Note_on_c, 1, 64, 0
3, 78360, Note_on_c, 1, 57, 73
3, 78448, Note_on_c, 1, 67, 0
3, 78464, Note_on_c, 1, 57, 0
3, 78480, Note_on_c, 1, 67, 67
3, 78480, Note_on_c, 1, 64, 67
3, 78584, Note_on_c, 1, 64, 0
3, 78600, Note_on_c, 1, 57, 73
3, 78692, Note_on_c, 1, 67, 0
3, 78704, Note_on_c, 1, 57, 0
3, 78720, Note_on_c, 1, 57, 76
3, 78720, Note_on_c, 1, 64, 76
3, 78720, Note_on_c, 1, 67, 76
3, 79200, Note_on_c, 1, 62, 69
3, 79200, Note_on_c, 1, 66, 69
3, 79212, Note_on_c, 1, 67, 0
3, 79212, Note_on_c, 1, 57, 0
3, 79220, Note_on_c, 1, 64, 0
3, 79408, Note_on_c, 1, 66, 0
3, 79408, Note_on_c, 1, 62, 0
3, 79680, Note_on_c, 1, 45, 93
3, 79680, Note_on_c, 1, 57, 93
3, 79888, Note_on_c, 1, 57, 0
3, 79888, Note_on_c, 1, 45, 0
3, 79920, Note_on_c, 1, 43, 99
3, 79920, Note_on_c, 1, 55, 99
3, 80128, Note_on_c, 1, 55, 0
3, 80128, Note_on_c, 1, 43, 0
3, 80160, Note_on_c, 1, 42, 92
3, 80160, Note_on_c, 1, 54, 92
3, 80368, Note_on_c, 1, 54, 0
3, 80368, Note_on_c, 1, 42, 0
3, 81600, Note_on_c, 1, 55, 92
3, 81600, Note_on_c, 1, 48, 92
3, 81960, Note_on_c, 1, 57, 80
3, 81972, Note_on_c, 1, 55, 0
3, 82020, Note_on_c, 1, 59, 73
3, 82031, Note_on_c, 1, 57, 0
3, 82080, Note_on_c, 1, 60, 75
3, 82093, Note_on_c, 1, 59, 0
3, 82320, Note_on_c, 1, 59, 82
3, 82336, Note_on_c, 1, 60, 0
3, 82528, Note_on_c, 1, 59, 0
3, 82528, Note_on_c, 1, 48, 0
3, 82560, Note_on_c, 1, 59, 95
3, 82560, Note_on_c, 1, 50, 95
3, 83040, Note_on_c, 1, 57, 73
3, 83056, Note_on_c, 1, 59, 0
3, 83244, Note_on_c, 1, 50, 0
3, 83248, Note_on_c, 1, 57, 0
3, 83280, Note_on_c, 1, 62, 73
3, 83280, Note_on_c, 1, 60, 73
3, 83488, Note_on_c, 1, 60, 0
3, 83488, Note_on_c, 1, 62, 0
3, 83520, Note_on_c, 1, 62, 76
3, 83520, Note_on_c, 1, 59, 76
3, 83728, Note_on_c, 1, 59, 0
3, 83728, Note_on_c, 1, 62, 0
3, 83760, Note_on_c, 1, 62, 77
3, 83760, Note_on_c, 1, 54, 77
3, 83968, Note_on_c, 1, 54, 0
3, 83968, Note_on_c, 1, 62, 0
3, 84000, Note_on_c, 1, 62, 76
3, 84000, Note_on_c, 1, 55, 76
3, 84208, Note_on_c, 1, 55, 0
3, 84208, Note_on_c, 1, 62, 0
3, 84480, Note_on_c, 1, 59, 94
3, 84480, Note_on_c, 1, 62, 94
3, 84584, Note_on_c, 1, 62, 0
3, 84584, Note_on_c, 1, 59, 0
3, 84600, Note_on_c, 1, 59, 94
3, 84600, Note_on_c, 1, 62, 94
3, 84704, Note_on_c, 1, 62, 0
3, 84704, Note_on_c, 1, 59, 0
3, 84720, Note_on_c, 1, 59, 91
3, 84720, Note_on_c, 1, 62, 91
3, 84824, Note_on_c, 1, 62, 0
3, 84824, Note_on_c, 1, 59, 0
3, 84840, Note_on_c, 1, 59, 91
3, 84840, Note_on_c, 1, 62, 91
3, 84944, Note_on_c, 1, 62, 0
3, 84944, Note_on_c, 1, 59, 0
3, 84960, Note_on_c, 1, 59, 94
3, 84960, Note_on_c, 1, 62, 94
3, 85064, Note_on_c, 1, 62, 0
3, 85064, Note_on_c, 1, 59, 0
3, 85080, Note_on_c, 1, 59, 92
3, 85080, Note_on_c, 1, 62, 92
3, 85184, Note_on_c, 1, 62, 0
3, 85184, Note_on_c, 1, 59, 0
3, 85200, Note_on_c, 1, 59, 92
3, 85200, Note_on_c, 1, 62, 92
3, 85304, Note_on_c, 1, 62, 0
3, 85304, Note_on_c, 1, 59, 0
3, 85320, Note_on_c, 1, 59, 87
3, 85320, Note_on_c, 1, 62, 87
3, 85424, Note_on_c, 1, 62, 0
3, 85424, Note_on_c, 1, 59, 0
3, 85440, Note_on_c, 1, 59, 79
3, 85440, Note_on_c, 1, 62, 79
3, 85544, Note_on_c, 1, 62, 0
3, 85544, Note_on_c, 1, 59, 0
3, 85560, Note_on_c, 1, 59, 75
3, 85560, Note_on_c, 1, 62, 75
3, 85664, Note_on_c, 1, 62, 0
3, 85664, Note_on_c, 1, 59, 0
3, 85680, Note_on_c, 1, 59, 70
3, 85680, Note_on_c, 1, 62, 70
3, 85784, Note_on_c, 1, 62, 0
3, 85784, Note_on_c, 1, 59, 0
3, 85800, Note_on_c, 1, 59, 70
3, 85800, Note_on_c, 1, 62, 70
3, 85904, Note_on_c, 1, 62, 0
3, 85904, Note_on_c, 1, 59, 0
3, 85920, Note_on_c, 1, 60, 70
3, 85920, Note_on_c, 1, 62, 70
3, 86024, Note_on_c, 1, 62, 0
3, 86024, Note_on_c, 1, 60, 0
3, 86040, Note_on_c, 1, 60, 70
3, 86040, Note_on_c, 1, 62, 70
3, 86144, Note_on_c, 1, 62, 0
3, 86144, Note_on_c, 1, 60, 0
3, 86160, Note_on_c, 1, 60, 72
3, 86160, Note_on_c, 1, 62, 72
3, 86264, Note_on_c, 1, 62, 0
3, 86264, Note_on_c, 1, 60, 0
3, 86280, Note_on_c, 1, 60, 81
3, 86280, Note_on_c, 1, 62, 81
3, 86384, Note_on_c, 1, 62, 0
3, 86384, Note_on_c, 1, 60, 0
3, 86400, Note_on_c, 1, 54, 102
3, 86400, Note_on_c, 1, 57, 102
3, 86400, Note_on_c, 1, 62, 102
3, 86504, Note_on_c, 1, 62, 0
3, 86504, Note_on_c, 1, 57, 0
3, 86504, Note_on_c, 1, 54, 0
3, 86520, Note_on_c, 1, 54, 92
3, 86520, Note_on_c, 1, 57, 92
3, 86520, Note_on_c, 1, 62, 92
3, 86624, Note_on_c, 1, 62, 0
3, 86624, Note_on_c, 1, 57, 0
3, 86624, Note_on_c, 1, 54, 0
3, 86640, Note_on_c, 1, 54, 92
3, 86640, Note_on_c, 1, 57, 92
3, 86640, Note_on_c, 1, 62, 92
3, 86744, Note_on_c, 1, 62, 0
3, 86744, Note_on_c, 1, 57, 0
3, 86744, Note_on_c, 1, 54, 0
3, 86760, Note_on_c, 1, 54, 90
3, 86760, Note_on_c, 1, 57, 90
3, 86760, Note_on_c, 1, 62, 90
3, 86864, Note_on_c, 1, 62, 0
3, 86864, Note_on_c, 1, 57, 0
3, 86864, Note_on_c, 1, 54, 0
3, 86880, Note_on_c, 1, 54, 88
3, 86880, Note_on_c, 1, 57, 88
3, 86880, Note_on_c, 1, 62, 88
3, 86984, Note_on_c, 1, 62, 0
3, 86984, Note_on_c, 1, 57, 0
3, 86984, Note_on_c, 1, 54, 0
3, 87000, Note_on_c, 1, 54, 88
3, 87000, Note_on_c, 1, 57, 88
3, 87000, Note_on_c, 1, 62, 88
3, 87104, Note_on_c, 1, 62, 0
3, 87104, Note_on_c, 1, 57, 0
3, 87104, Note_on_c, 1, 54, 0
3, 87120, Note_on_c, 1, 54, 88
3, 87120, Note_on_c, 1, 57, 88
3, 87120, Note_on_c, 1, 62, 88
3, 87224, Note_on_c, 1, 62, 0
3, 87224, Note_on_c, 1, 57, 0
3, 87224, Note_on_c, 1, 54, 0
3, 87240, Note_on_c, 1, 54, 88
3, 87240, Note_on_c, 1, 57, 88
3, 87240, Note_on_c, 1, 62, 88
3, 87344, Note_on_c, 1, 62, 0
3, 87344, Note_on_c, 1, 57, 0
3, 87344, Note_on_c, 1, 54, 0
3, 87360, Note_on_c, 1, 54, 69
3, 87360, Note_on_c, 1, 57, 69
3, 87360, Note_on_c, 1, 60, 69
3, 87464, Note_on_c, 1, 60, 0
3, 87464, Note_on_c, 1, 57, 0
3, 87464, Note_on_c, 1, 54, 0
3, 87480, Note_on_c, 1, 54, 67
3, 87480, Note_on_c, 1, 57, 67
3, 87480, Note_on_c, 1, 60, 67
3, 87584, Note_on_c, 1, 60, 0
3, 87584, Note_on_c, 1, 57, 0
3, 87584, Note_on_c, 1, 54, 0
3, 87600, Note_on_c, 1, 54, 70
3, 87600, Note_on_c, 1, 57, 70
3, 87600, Note_on_c, 1, 60, 70
3, 87704, Note_on_c, 1, 60, 0
3, 87704, Note_on_c, 1, 57, 0
3, 87704, Note_on_c, 1, 54, 0
3, 87720, Note_on_c, 1, 54, 70
3, 87720, Note_on_c, 1, 57, 70
3, 87720, Note_on_c, 1, 60, 70
3, 87824, Note_on_c, 1, 60, 0
3, 87824, Note_on_c, 1, 57, 0
3, 87824, Note_on_c, 1, 54, 0
3, 87840, Note_on_c, 1, 54, 72
3, 87840, Note_on_c, 1, 57, 72
3, 87840, Note_on_c, 1, 59, 72
3, 87944, Note_on_c, 1, 59, 0
3, 87944, Note_on_c, 1, 57, 0
3, 87944, Note_on_c, 1, 54, 0
3, 87960, Note_on_c, 1, 54, 73
3, 87960, Note_on_c, 1, 57, 73
3, 87960, Note_on_c, 1, 59, 73
3, 88064, Note_on_c, 1, 59, 0
3, 88064, Note_on_c, 1, 57, 0
3, 88064, Note_on_c, 1, 54, 0
3, 88080, Note_on_c, 1, 54, 73
3, 88080, Note_on_c, 1, 57, 73
3, 88080, Note_on_c, 1, 59, 73
3, 88184, Note_on_c, 1, 59, 0
3, 88184, Note_on_c, 1, 57, 0
3, 88184, Note_on_c, 1, 54, 0
3, 88200, Note_on_c, 1, 54, 69
3, 88200, Note_on_c, 1, 57, 69
3, 88200, Note_on_c, 1, 59, 69
3, 88304, Note_on_c, 1, 59, 0
3, 88304, Note_on_c, 1, 57, 0
3, 88304, Note_on_c, 1, 54, 0
3, 88320, Note_on_c, 1, 54, 69
3, 88320, Note_on_c, 1, 56, 69
3, 88320, Note_on_c, 1, 59, 69
3, 88424, Note_on_c, 1, 59, 0
3, 88424, Note_on_c, 1, 56, 0
3, 88424, Note_on_c, 1, 54, 0
3, 88440, Note_on_c, 1, 54, 70
3, 88440, Note_on_c, 1, 56, 70
3, 88440, Note_on_c, 1, 59, 70
3, 88544, Note_on_c, 1, 59, 0
3, 88544, Note_on_c, 1, 56, 0
3, 88544, Note_on_c, 1, 54, 0
3, 88560, Note_on_c, 1, 54, 70
3, 88560, Note_on_c, 1, 56, 70
3, 88560, Note_on_c, 1, 59, 70
3, 88664, Note_on_c, 1, 59, 0
3, 88664, Note_on_c, 1, 56, 0
3, 88664, Note_on_c, 1, 54, 0
3, 88680, Note_on_c, 1, 54, 70
3, 88680, Note_on_c, 1, 56, 70
3, 88680, Note_on_c, 1, 59, 70
3, 88784, Note_on_c, 1, 59, 0
3, 88784, Note_on_c, 1, 56, 0
3, 88784, Note_on_c, 1, 54, 0
3, 88800, Note_on_c, 1, 53, 70
3, 88800, Note_on_c, 1, 56, 70
3, 88800, Note_on_c, 1, 59, 70
3, 89008, Note_on_c, 1, 59, 0
3, 89008, Note_on_c, 1, 56, 0
3, 89008, Note_on_c, 1, 53, 0
3, 90240, Note_on_c, 1, 54, 97
3, 90240, Note_on_c, 1, 48, 97
3, 90720, Note_on_c, 1, 56, 76
3, 90736, Note_on_c, 1, 54, 0
3, 90960, Note_on_c, 1, 57, 75
3, 90976, Note_on_c, 1, 56, 0
3, 91168, Note_on_c, 1, 57, 0
3, 91168, Note_on_c, 1, 48, 0
3, 91200, Note_on_c, 1, 57, 99
3, 91200, Note_on_c, 1, 49, 99
3, 91680, Note_on_c, 1, 56, 91
3, 91696, Note_on_c, 1, 57, 0
3, 91888, Note_on_c, 1, 56, 0
3, 91892, Note_on_c, 1, 49, 0
3, 91920, Note_on_c, 1, 61, 73
3, 91920, Note_on_c, 1, 59, 73
3, 92128, Note_on_c, 1, 59, 0
3, 92128, Note_on_c, 1, 61, 0
3, 92160, Note_on_c, 1, 57, 75
3, 92160, Note_on_c, 1, 61, 75
3, 92368, Note_on_c, 1, 61, 0
3, 92368, Note_on_c, 1, 57, 0
3, 92400, Note_on_c, 1, 53, 73
3, 92400, Note_on_c, 1, 61, 73
3, 92608, Note_on_c, 1, 61, 0
3, 92608, Note_on_c, 1, 53, 0
3, 92640, Note_on_c, 1, 54, 78
3, 92640, Note_on_c, 1, 61, 78
3, 92848, Note_on_c, 1, 61, 0
3, 92848, Note_on_c, 1, 54, 0
3, 93120, Note_on_c, 1, 57, 97
3, 93120, Note_on_c, 1, 61, 97
3, 93224, Note_on_c, 1, 61, 0
3, 93224, Note_on_c, 1, 57, 0
3, 93240, Note_on_c, 1, 57, 94
3, 93240, Note_on_c, 1, 61, 94
3, 93344, Note_on_c, 1, 61, 0
3, 93344, Note_on_c, 1, 57, 0
3, 93360, Note_on_c, 1, 57, 92
3, 93360, Note_on_c, 1, 61, 92
3, 93464, Note_on_c, 1, 61, 0
3, 93464, Note_on_c, 1, 57, 0
3, 93480, Note_on_c, 1, 57, 91
3, 93480, Note_on_c, 1, 61, 91
3, 93584, Note_on_c, 1, 61, 0
3, 93584, Note_on_c, 1, 57, 0
3, 93600, Note_on_c, 1, 57, 91
3, 93600, Note_on_c, 1, 61, 91
3, 93704, Note_on_c, 1, 61, 0
3, 93704, Note_on_c, 1, 57, 0
3, 93720, Note_on_c, 1, 57, 91
3, 93720, Note_on_c, 1, 61, 91
3, 93824, Note_on_c, 1, 61, 0
3, 93824, Note_on_c, 1, 57, 0
3, 93840, Note_on_c, 1, 57, 91
3, 93840, Note_on_c, 1, 61, 91
3, 93944, Note_on_c, 1, 61, 0
3, 93944, Note_on_c, 1, 57, 0
3, 93960, Note_on_c, 1, 57, 83
3, 93960, Note_on_c, 1, 61, 83
3, 94064, Note_on_c, 1, 61, 0
3, 94064, Note_on_c, 1, 57, 0
3, 94080, Note_on_c, 1, 58, 72
3, 94080, Note_on_c, 1, 61, 72
3, 94184, Note_on_c, 1, 61, 0
3, 94184, Note_on_c, 1, 58, 0
3, 94200, Note_on_c, 1, 58, 76
3, 94200, Note_on_c, 1, 61, 76
3, 94304, Note_on_c, 1, 61, 0
3, 94304, Note_on_c, 1, 58, 0
3, 94320, Note_on_c, 1, 58, 73
3, 94320, Note_on_c, 1, 61, 73
3, 94424, Note_on_c, 1, 61, 0
3, 94424, Note_on_c, 1, 58, 0
3, 94440, Note_on_c, 1, 58, 73
3, 94440, Note_on_c, 1, 61, 73
3, 94544, Note_on_c, 1, 61, 0
3, 94544, Note_on_c, 1, 58, 0
3, 94560, Note_on_c, 1, 59, 73
3, 94560, Note_on_c, 1, 61, 73
3, 94664, Note_on_c, 1, 61, 0
3, 94664, Note_on_c, 1, 59, 0
3, 94680, Note_on_c, 1, 59, 73
3, 94680, Note_on_c, 1, 61, 73
3, 94784, Note_on_c, 1, 61, 0
3, 94784, Note_on_c, 1, 59, 0
3, 94800, Note_on_c, 1, 59, 73
3, 94800, Note_on_c, 1, 61, 73
3, 94904, Note_on_c, 1, 61, 0
3, 94904, Note_on_c, 1, 59, 0
3, 94920, Note_on_c, 1, 59, 82
3, 94920, Note_on_c, 1, 61, 82
3, 95024, Note_on_c, 1, 61, 0
3, 95024, Note_on_c, 1, 59, 0
3, 95040, Note_on_c, 1, 53, 97
3, 95040, Note_on_c, 1, 56, 97
3, 95040, Note_on_c, 1, 61, 97
3, 95144, Note_on_c, 1, 61, 0
3, 95144, Note_on_c, 1, 56, 0
3, 95144, Note_on_c, 1, 53, 0
3, 95160, Note_on_c, 1, 53, 95
3, 95160, Note_on_c, 1, 56, 95
3, 95160, Note_on_c, 1, 61, 95
3, 95264, Note_on_c, 1, 61, 0
3, 95264, Note_on_c, 1, 56, 0
3, 95264, Note_on_c, 1, 53, 0
3, 95280, Note_on_c, 1, 53, 93
3, 95280, Note_on_c, 1, 56, 93
3, 95280, Note_on_c, 1, 61, 93
3, 95384, Note_on_c, 1, 61, 0
3, 95384, Note_on_c, 1, 56, 0
3, 95384, Note_on_c, 1, 53, 0
3, 95400, Note_on_c, 1, 53, 93
3, 95400, Note_on_c, 1, 56, 93
3, 95400, Note_on_c, 1, 61, 93
3, 95504, Note_on_c, 1, 61, 0
3, 95504, Note_on_c, 1, 56, 0
3, 95504, Note_on_c, 1, 53, 0
3, 95520, Note_on_c, 1, 53, 93
3, 95520, Note_on_c, 1, 56, 93
3, 95520, Note_on_c, 1, 61, 93
3, 95624, Note_on_c, 1, 61, 0
3, 95624, Note_on_c, 1, 56, 0
3, 95624, Note_on_c, 1, 53, 0
3, 95640, Note_on_c, 1, 53, 93
3, 95640, Note_on_c, 1, 56, 93
3, 95640, Note_on_c, 1, 61, 93
3, 95744, Note_on_c, 1, 61, 0
3, 95744, Note_on_c, 1, 56, 0
3, 95744, Note_on_c, 1, 53, 0
3, 95760, Note_on_c, 1, 53, 91
3, 95760, Note_on_c, 1, 56, 91
3, 95760, Note_on_c, 1, 61, 91
3, 95864, Note_on_c, 1, 61, 0
3, 95864, Note_on_c, 1, 56, 0
3, 95864, Note_on_c, 1, 53, 0
3, 95880, Note_on_c, 1, 53, 85
3, 95880, Note_on_c, 1, 56, 85
3, 95880, Note_on_c, 1, 61, 85
3, 95984, Note_on_c, 1, 61, 0
3, 95984, Note_on_c, 1, 56, 0
3, 95984, Note_on_c, 1, 53, 0
3, 96000, Note_on_c, 1, 56, 73
3, 96000, Note_on_c, 1, 58, 73
3, 96000, Note_on_c, 1, 61, 73
3, 96104, Note_on_c, 1, 61, 0
3, 96104, Note_on_c, 1, 58, 0
3, 96104, Note_on_c, 1, 56, 0
3, 96120, Note_on_c, 1, 56, 67
3, 96120, Note_on_c, 1, 58, 67
3, 96120, Note_on_c, 1, 61, 67
3, 96224, Note_on_c, 1, 61, 0
3, 96224, Note_on_c, 1, 58, 0
3, 96224, Note_on_c, 1, 56, 0
3, 96240, Note_on_c, 1, 56, 67
3, 96240, Note_on_c, 1, 58, 67
3, 96240, Note_on_c, 1, 61, 67
3, 96344, Note_on_c, 1, 61, 0
3, 96344, Note_on_c, 1, 58, 0
3, 96344, Note_on_c, 1, 56, 0
3, 96360, Note_on_c, 1, 56, 67
3, 96360, Note_on_c, 1, 58, 67
3, 96360, Note_on_c, 1, 61, 67
3, 96464, Note_on_c, 1, 61, 0
3, 96464, Note_on_c, 1, 58, 0
3, 96464, Note_on_c, 1, 56, 0
3, 96480, Note_on_c, 1, 55, 67
3, 96480, Note_on_c, 1, 58, 67
3, 96480, Note_on_c, 1, 61, 67
3, 96584, Note_on_c, 1, 61, 0
3, 96584, Note_on_c, 1, 58, 0
3, 96584, Note_on_c, 1, 55, 0
3, 96600, Note_on_c, 1, 55, 67
3, 96600, Note_on_c, 1, 58, 67
3, 96600, Note_on_c, 1, 61, 67
3, 96704, Note_on_c, 1, 61, 0
3, 96704, Note_on_c, 1, 58, 0
3, 96704, Note_on_c, 1, 55, 0
3, 96720, Note_on_c, 1, 55, 69
3, 96720, Note_on_c, 1, 58, 69
3, 96720, Note_on_c, 1, 61, 69
3, 96824, Note_on_c, 1, 61, 0
3, 96824, Note_on_c, 1, 58, 0
3, 96824, Note_on_c, 1, 55, 0
3, 96840, Note_on_c, 1, 55, 69
3, 96840, Note_on_c, 1, 58, 69
3, 96840, Note_on_c, 1, 61, 69
3, 96944, Note_on_c, 1, 61, 0
3, 96944, Note_on_c, 1, 58, 0
3, 96944, Note_on_c, 1, 55, 0
3, 96960, Note_on_c, 1, 55, 69
3, 96960, Note_on_c, 1, 57, 69
3, 96960, Note_on_c, 1, 60, 69
3, 97064, Note_on_c, 1, 60, 0
3, 97064, Note_on_c, 1, 57, 0
3, 97064, Note_on_c, 1, 55, 0
3, 97080, Note_on_c, 1, 55, 69
3, 97080, Note_on_c, 1, 57, 69
3, 97080, Note_on_c, 1, 60, 69
3, 97184, Note_on_c, 1, 60, 0
3, 97184, Note_on_c, 1, 57, 0
3, 97184, Note_on_c, 1, 55, 0
3, 97200, Note_on_c, 1, 55, 69
3, 97200, Note_on_c, 1, 57, 69
3, 97200, Note_on_c, 1, 60, 69
3, 97304, Note_on_c, 1, 60, 0
3, 97304, Note_on_c, 1, 57, 0
3, 97304, Note_on_c, 1, 55, 0
3, 97320, Note_on_c, 1, 55, 67
3, 97320, Note_on_c, 1, 57, 67
3, 97320, Note_on_c, 1, 60, 67
3, 97424, Note_on_c, 1, 60, 0
3, 97424, Note_on_c, 1, 57, 0
3, 97424, Note_on_c, 1, 55, 0
3, 97440, Note_on_c, 1, 54, 65
3, 97440, Note_on_c, 1, 57, 65
3, 97440, Note_on_c, 1, 60, 65
3, 97648, Note_on_c, 1, 60, 0
3, 97648, Note_on_c, 1, 57, 0
3, 97648, Note_on_c, 1, 54, 0
3, 97920, Note_on_c, 1, 55, 76
3, 98400, Note_on_c, 1, 50, 74
3, 98416, Note_on_c, 1, 55, 0
3, 98640, Note_on_c, 1, 58, 75
3, 98656, Note_on_c, 1, 50, 0
3, 98848, Note_on_c, 1, 58, 0
3, 98880, Note_on_c, 1, 58, 93
3, 99360, Note_on_c, 1, 57, 79
3, 99372, Note_on_c, 1, 58, 0
3, 99600, Note_on_c, 1, 55, 78
3, 99612, Note_on_c, 1, 57, 0
3, 99808, Note_on_c, 1, 55, 0
3, 99840, Note_on_c, 1, 55, 97
3, 100320, Note_on_c, 1, 54, 88
3, 100332, Note_on_c, 1, 55, 0
3, 100500, Note_on_c, 1, 60, 91
3, 100512, Note_on_c, 1, 54, 0
3, 100552, Note_on_c, 1, 60, 0
3, 100560, Note_on_c, 1, 57, 88
3, 100740, Note_on_c, 1, 54, 77
3, 100756, Note_on_c, 1, 57, 0
3, 100782, Note_on_c, 1, 54, 0
3, 100800, Note_on_c, 1, 57, 84
3, 100920, Note_on_c, 1, 56, 75
3, 100936, Note_on_c, 1, 57, 0
3, 101024, Note_on_c, 1, 56, 0
3, 101040, Note_on_c, 1, 59, 85
3, 101160, Note_on_c, 1, 57, 74
3, 101176, Note_on_c, 1, 59, 0
3, 101264, Note_on_c, 1, 57, 0
3, 101280, Note_on_c, 1, 60, 85
3, 101400, Note_on_c, 1, 59, 69
3, 101416, Note_on_c, 1, 60, 0
3, 101504, Note_on_c, 1, 59, 0
3, 101760, Note_on_c, 1, 57, 73
3, 102240, Note_on_c, 1, 52, 70
3, 102252, Note_on_c, 1, 57, 0
3, 102480, Note_on_c, 1, 60, 72
3, 102492, Note_on_c, 1, 52, 0
3, 102688, Note_on_c, 1, 60, 0
3, 102720, Note_on_c, 1, 60, 92
3, 103200, Note_on_c, 1, 59, 73
3, 103212, Note_on_c, 1, 60, 0
3, 103440, Note_on_c, 1, 57, 75
3, 103452, Note_on_c, 1, 59, 0
3, 103648, Note_on_c, 1, 57, 0
3, 103680, Note_on_c, 1, 57, 97
3, 104160, Note_on_c, 1, 57, 0
3, 104160, Note_on_c, 1, 56, 97
3, 104316, Note_on_c, 1, 56, 0
3, 104340, Note_on_c, 1, 62, 87
3, 104392, Note_on_c, 1, 62, 0
3, 104400, Note_on_c, 1, 59, 79
3, 104556, Note_on_c, 1, 59, 0
3, 104580, Note_on_c, 1, 56, 70
3, 104632, Note_on_c, 1, 56, 0
3, 104640, Note_on_c, 1, 59, 78
3, 104744, Note_on_c, 1, 59, 0
3, 104760, Note_on_c, 1, 58, 71
3, 104864, Note_on_c, 1, 58, 0
3, 104880, Note_on_c, 1, 61, 78
3, 104984, Note_on_c, 1, 61, 0
3, 105000, Note_on_c, 1, 59, 70
3, 105104, Note_on_c, 1, 59, 0
3, 105120, Note_on_c, 1, 62, 78
3, 105224, Note_on_c, 1, 62, 0
3, 105240, Note_on_c, 1, 61, 70
3, 105344, Note_on_c, 1, 61, 0
3, 106560, Note_on_c, 1, 59, 97
3, 106560, Note_on_c, 1, 53, 97
3, 107040, Note_on_c, 1, 61, 73
3, 107052, Note_on_c, 1, 59, 0
3, 107280, Note_on_c, 1, 62, 73
3, 107300, Note_on_c, 1, 61, 0
3, 107488, Note_on_c, 1, 62, 0
3, 107488, Note_on_c, 1, 53, 0
3, 107520, Note_on_c, 1, 62, 82
3, 107520, Note_on_c, 1, 54, 82
3, 108000, Note_on_c, 1, 61, 82
3, 108016, Note_on_c, 1, 62, 0
3, 108208, Note_on_c, 1, 61, 0
3, 108208, Note_on_c, 1, 54, 0
3, 108240, Note_on_c, 1, 67, 82
3, 108240, Note_on_c, 1, 64, 82
3, 108448, Note_on_c, 1, 64, 0
3, 108448, Note_on_c, 1, 67, 0
3, 108480, Note_on_c, 1, 66, 82
3, 108480, Note_on_c, 1, 62, 82
3, 108688, Note_on_c, 1, 62, 0
3, 108688, Note_on_c, 1, 66, 0
3, 108720, Note_on_c, 1, 66, 82
3, 108720, Note_on_c, 1, 58, 82
3, 108928, Note_on_c, 1, 58, 0
3, 108928, Note_on_c, 1, 66, 0
3, 108960, Note_on_c, 1, 66, 82
3, 108960, Note_on_c, 1, 59, 82
3, 109168, Note_on_c, 1, 59, 0
3, 109168, Note_on_c, 1, 66, 0
3, 109440, Note_on_c, 1, 62, 94
3, 109440, Note_on_c, 1, 66, 94
3, 109544, Note_on_c, 1, 66, 0
3, 109544, Note_on_c, 1, 62, 0
3, 109560, Note_on_c, 1, 62, 94
3, 109560, Note_on_c, 1, 66, 94
3, 109664, Note_on_c, 1, 66, 0
3, 109664, Note_on_c, 1, 62, 0
3, 109680, Note_on_c, 1, 62, 94
3, 109680, Note_on_c, 1, 66, 94
3, 109784, Note_on_c, 1, 66, 0
3, 109784, Note_on_c, 1, 62, 0
3, 109800, Note_on_c, 1, 62, 94
3, 109800, Note_on_c, 1, 66, 94
3, 109904, Note_on_c, 1, 66, 0
3, 109904, Note_on_c, 1, 62, 0
3, 109920, Note_on_c, 1, 61, 94
3, 109920, Note_on_c, 1, 64, 94
3, 110024, Note_on_c, 1, 64, 0
3, 110024, Note_on_c, 1, 61, 0
3, 110040, Note_on_c, 1, 61, 97
3, 110040, Note_on_c, 1, 64, 97
3, 110144, Note_on_c, 1, 64, 0
3, 110144, Note_on_c, 1, 61, 0
3, 110160, Note_on_c, 1, 61, 94
3, 110160, Note_on_c, 1, 64, 94
3, 110264, Note_on_c, 1, 64, 0
3, 110264, Note_on_c, 1, 61, 0
3, 110280, Note_on_c, 1, 61, 86
3, 110280, Note_on_c, 1, 64, 86
3, 110384, Note_on_c, 1, 64, 0
3, 110384, Note_on_c, 1, 61, 0
3, 110400, Note_on_c, 1, 59, 73
3, 110400, Note_on_c, 1, 62, 73
3, 110504, Note_on_c, 1, 62, 0
3, 110504, Note_on_c, 1, 59, 0
3, 110520, Note_on_c, 1, 59, 73
3, 110520, Note_on_c, 1, 62, 73
3, 110624, Note_on_c, 1, 62, 0
3, 110624, Note_on_c, 1, 59, 0
3, 110640, Note_on_c, 1, 59, 73
3, 110640, Note_on_c, 1, 62, 73
3, 110744, Note_on_c, 1, 62, 0
3, 110744, Note_on_c, 1, 59, 0
3, 110760, Note_on_c, 1, 59, 73
3, 110760, Note_on_c, 1, 62, 73
3, 110864, Note_on_c, 1, 62, 0
3, 110864, Note_on_c, 1, 59, 0
3, 110880, Note_on_c, 1, 58, 73
3, 110880, Note_on_c, 1, 61, 73
3, 110984, Note_on_c, 1, 61, 0
3, 110984, Note_on_c, 1, 58, 0
3, 111000, Note_on_c, 1, 58, 73
3, 111000, Note_on_c, 1, 61, 73
3, 111104, Note_on_c, 1, 61, 0
3, 111104, Note_on_c, 1, 58, 0
3, 111120, Note_on_c, 1, 58, 73
3, 111120, Note_on_c, 1, 61, 73
3, 111224, Note_on_c, 1, 61, 0
3, 111224, Note_on_c, 1, 58, 0
3, 111240, Note_on_c, 1, 58, 76
3, 111240, Note_on_c, 1, 61, 76
3, 111344, Note_on_c, 1, 61, 0
3, 111344, Note_on_c, 1, 58, 0
3, 111360, Note_on_c, 1, 59, 98
3, 111360, Note_on_c, 1, 62, 98
3, 111464, Note_on_c, 1, 62, 0
3, 111464, Note_on_c, 1, 59, 0
3, 111480, Note_on_c, 1, 59, 85
3, 111480, Note_on_c, 1, 62, 85
3, 111584, Note_on_c, 1, 62, 0
3, 111584, Note_on_c, 1, 59, 0
3, 111600, Note_on_c, 1, 59, 86
3, 111600, Note_on_c, 1, 62, 86
3, 111704, Note_on_c, 1, 62, 0
3, 111704, Note_on_c, 1, 59, 0
3, 111720, Note_on_c, 1, 59, 86
3, 111720, Note_on_c, 1, 62, 86
3, 111824, Note_on_c, 1, 62, 0
3, 111824, Note_on_c, 1, 59, 0
3, 111840, Note_on_c, 1, 57, 86
3, 111840, Note_on_c, 1, 61, 86
3, 111944, Note_on_c, 1, 61, 0
3, 111944, Note_on_c, 1, 57, 0
3, 111960, Note_on_c, 1, 57, 86
3, 111960, Note_on_c, 1, 61, 86
3, 112064, Note_on_c, 1, 61, 0
3, 112064, Note_on_c, 1, 57, 0
3, 112080, Note_on_c, 1, 57, 86
3, 112080, Note_on_c, 1, 61, 86
3, 112184, Note_on_c, 1, 61, 0
3, 112184, Note_on_c, 1, 57, 0
3, 112200, Note_on_c, 1, 57, 82
3, 112200, Note_on_c, 1, 61, 82
3, 112304, Note_on_c, 1, 61, 0
3, 112304, Note_on_c, 1, 57, 0
3, 112320, Note_on_c, 1, 55, 74
3, 112320, Note_on_c, 1, 59, 74
3, 112424, Note_on_c, 1, 59, 0
3, 112424, Note_on_c, 1, 55, 0
3, 112440, Note_on_c, 1, 55, 72
3, 112440, Note_on_c, 1, 59, 72
3, 112544, Note_on_c, 1, 59, 0
3, 112544, Note_on_c, 1, 55, 0
3, 112560, Note_on_c, 1, 55, 72
3, 112560, Note_on_c, 1, 59, 72
3, 112664, Note_on_c, 1, 59, 0
3, 112664, Note_on_c, 1, 55, 0
3, 112680, Note_on_c, 1, 55, 72
3, 112680, Note_on_c, 1, 59, 72
3, 112784, Note_on_c, 1, 59, 0
3, 112784, Note_on_c, 1, 55, 0
3, 112800, Note_on_c, 1, 57, 72
3, 112800, Note_on_c, 1, 54, 72
3, 112920, Note_on_c, 1, 59, 73
3, 112936, Note_on_c, 1, 57, 0
3, 113040, Note_on_c, 1, 60, 73
3, 113056, Note_on_c, 1, 59, 0
3, 113160, Note_on_c, 1, 59, 76
3, 113176, Note_on_c, 1, 60, 0
3, 113240, Note_on_c, 1, 54, 0
3, 113264, Note_on_c, 1, 59, 0
3, 113280, Note_on_c, 1, 59, 82
3, 113280, Note_on_c, 1, 55, 82
3, 113700, Note_on_c, 1, 55, 0
3, 113700, Note_on_c, 1, 59, 0
3, 113760, Note_on_c, 1, 57, 82
3, 113760, Note_on_c, 1, 54, 82
3, 113864, Note_on_c, 1, 57, 0
3, 113880, Note_on_c, 1, 59, 85
3, 113984, Note_on_c, 1, 59, 0
3, 114000, Note_on_c, 1, 60, 82
3, 114104, Note_on_c, 1, 60, 0
3, 114120, Note_on_c, 1, 59, 81
3, 114180, Note_on_c, 1, 54, 0
3, 114224, Note_on_c, 1, 59, 0
3, 114240, Note_on_c, 1, 59, 76
3, 114240, Note_on_c, 1, 55, 76
3, 114660, Note_on_c, 1, 55, 0
3, 114660, Note_on_c, 1, 59, 0
3, 114720, Note_on_c, 1, 59, 84
3, 114720, Note_on_c, 1, 56, 84
3, 114824, Note_on_c, 1, 59, 0
3, 114840, Note_on_c, 1, 61, 91
3, 114944, Note_on_c, 1, 61, 0
3, 114960, Note_on_c, 1, 62, 91
3, 115064, Note_on_c, 1, 62, 0
3, 115080, Note_on_c, 1, 61, 87
3, 115176, Note_on_c, 1, 56, 0
3, 115184, Note_on_c, 1, 61, 0
3, 115200, Note_on_c, 1, 61, 82
3, 115200, Note_on_c, 1, 58, 82
3, 115428, Note_on_c, 1, 61, 0
3, 115440, Note_on_c, 1, 67, 82
3, 115672, Note_on_c, 1, 58, 0
3, 115680, Note_on_c, 1, 66, 82
3, 115680, Note_on_c, 1, 59, 82
3, 115692, Note_on_c, 1, 67, 0
3, 115920, Note_on_c, 1, 65, 82
3, 115932, Note_on_c, 1, 66, 0
3, 116128, Note_on_c, 1, 65, 0
3, 116132, Note_on_c, 1, 59, 0
3, 116160, Note_on_c, 1, 54, 82
3, 116160, Note_on_c, 1, 66, 82
3, 116639, Note_on_c, 1, 66, 0
3, 116639, Note_on_c, 1, 54, 0
3, 117120, Note_on_c, 1, 35, 106
3, 117540, Note_on_c, 1, 38, 106
3, 117554, Note_on_c, 1, 35, 0
3, 117568, Note_on_c, 1, 42, 108
3, 117582, Note_on_c, 1, 38, 0
3, 117600, Note_on_c, 1, 47, 110
3, 117610, Note_on_c, 1, 42, 0
3, 117840, Note_on_c, 1, 47, 0
3, 118080, Note_on_c, 1, 72, 82
3, 118560, Note_on_c, 1, 73, 75
3, 118576, Note_on_c, 1, 72, 0
3, 118799, Note_on_c, 1, 73, 0
3, 119040, Note_on_c, 1, 30, 103
3, 119460, Note_on_c, 1, 34, 106
3, 119473, Note_on_c, 1, 30, 0
3, 119488, Note_on_c, 1, 37, 109
3, 119503, Note_on_c, 1, 34, 0
3, 119520, Note_on_c, 1, 42, 111
3, 119532, Note_on_c, 1, 37, 0
3, 119760, Note_on_c, 1, 42, 0
3, 120000, Note_on_c, 1, 73, 86
3, 120480, Note_on_c, 1, 74, 77
3, 120492, Note_on_c, 1, 73, 0
3, 120719, Note_on_c, 1, 74, 0
3, 120900, Note_on_c, 1, 75, 90
3, 120960, Note_on_c, 1, 76, 85
3, 120973, Note_on_c, 1, 75, 0
3, 121199, Note_on_c, 1, 76, 0
3, 121380, Note_on_c, 1, 77, 94
3, 121440, Note_on_c, 1, 78, 91
3, 121454, Note_on_c, 1, 77, 0
3, 121679, Note_on_c, 1, 78, 0
3, 121860, Note_on_c, 1, 78, 88
3, 121920, Note_on_c, 1, 77, 85
3, 121932, Note_on_c, 1, 78, 0
3, 122024, Note_on_c, 1, 77, 0
3, 122100, Note_on_c, 1, 76, 85
3, 122160, Note_on_c, 1, 75, 79
3, 122172, Note_on_c, 1, 76, 0
3, 122264, Note_on_c, 1, 75, 0
3, 122340, Note_on_c, 1, 74, 84
3, 122400, Note_on_c, 1, 73, 79
3, 122413, Note_on_c, 1, 74, 0
3, 122608, Note_on_c, 1, 73, 0
3, 122820, Note_on_c, 1, 72, 87
3, 122820, Note_on_c, 1, 75, 87
3, 122880, Note_on_c, 1, 73, 79
3, 122880, Note_on_c, 1, 76, 79
3, 122893, Note_on_c, 1, 75, 0
3, 122893, Note_on_c, 1, 72, 0
3, 123088, Note_on_c, 1, 73, 0
3, 123088, Note_on_c, 1, 76, 0
3, 123296, Note_on_c, 1, 77, 95
3, 123300, Note_on_c, 1, 73, 95
3, 123360, Note_on_c, 1, 78, 89
3, 123360, Note_on_c, 1, 74, 89
3, 123368, Note_on_c, 1, 77, 0
3, 123371, Note_on_c, 1, 73, 0
3, 123568, Note_on_c, 1, 78, 0
3, 123568, Note_on_c, 1, 74, 0
3, 123780, Note_on_c, 1, 74, 91
3, 123780, Note_on_c, 1, 78, 91
3, 123840, Note_on_c, 1, 77, 86
3, 123840, Note_on_c, 1, 73, 86
3, 123852, Note_on_c, 1, 78, 0
3, 123852, Note_on_c, 1, 74, 0
3, 123944, Note_on_c, 1, 77, 0
3, 123944, Note_on_c, 1, 73, 0
3, 124020, Note_on_c, 1, 73, 88
3, 124020, Note_on_c, 1, 76, 88
3, 124080, Note_on_c, 1, 75, 82
3, 124080, Note_on_c, 1, 71, 82
3, 124092, Note_on_c, 1, 76, 0
3, 124092, Note_on_c, 1, 73, 0
3, 124184, Note_on_c, 1, 75, 0
3, 124184, Note_on_c, 1, 71, 0
3, 124260, Note_on_c, 1, 71, 82
3, 124260, Note_on_c, 1, 74, 82
3, 124320, Note_on_c, 1, 70, 79
3, 124320, Note_on_c, 1, 73, 79
3, 124322, Note_on_c, 1, 71, 0
3, 124332, Note_on_c, 1, 74, 0
3, 124528, Note_on_c, 1, 70, 0
3, 124528, Note_on_c, 1, 73, 0
3, 124800, Note_on_c, 1, 34, 100
3, 124800, Note_on_c, 1, 46, 100
3, 125008, Note_on_c, 1, 46, 0
3, 125008, Note_on_c, 1, 34, 0
3, 125040, Note_on_c, 1, 37, 112
3, 125040, Note_on_c, 1, 49, 112
3, 125248, Note_on_c, 1, 49, 0
3, 125248, Note_on_c, 1, 37, 0
3, 125280, Note_on_c, 1, 40, 106
3, 125280, Note_on_c, 1, 52, 106
3, 125530, Note_on_c, 1, 52, 0
3, 125531, Note_on_c, 1, 40, 0
3, 125760, Note_on_c, 1, 54, 66
3, 125760, Note_on_c, 1, 50, 66
3, 125864, Note_on_c, 1, 54, 0
3, 125880, Note_on_c, 1, 59, 73
3, 125984, Note_on_c, 1, 59, 0
3, 126000, Note_on_c, 1, 54, 74
3, 126104, Note_on_c, 1, 54, 0
3, 126120, Note_on_c, 1, 59, 76
3, 126180, Note_on_c, 1, 50, 0
3, 126224, Note_on_c, 1, 59, 0
3, 126240, Note_on_c, 1, 54, 67
3, 126240, Note_on_c, 1, 50, 67
3, 126344, Note_on_c, 1, 54, 0
3, 126360, Note_on_c, 1, 59, 76
3, 126464, Note_on_c, 1, 59, 0
3, 126480, Note_on_c, 1, 54, 76
3, 126584, Note_on_c, 1, 54, 0
3, 126600, Note_on_c, 1, 59, 76
3, 126660, Note_on_c, 1, 50, 0
3, 126704, Note_on_c, 1, 59, 0
3, 126720, Note_on_c, 1, 55, 67
3, 126720, Note_on_c, 1, 52, 67
3, 126824, Note_on_c, 1, 55, 0
3, 126840, Note_on_c, 1, 59, 73
3, 126944, Note_on_c, 1, 59, 0
3, 126960, Note_on_c, 1, 55, 73
3, 127064, Note_on_c, 1, 55, 0
3, 127080, Note_on_c, 1, 59, 73
3, 127140, Note_on_c, 1, 52, 0
3, 127184, Note_on_c, 1, 59, 0
3, 127200, Note_on_c, 1, 55, 63
3, 127200, Note_on_c, 1, 52, 63
3, 127304, Note_on_c, 1, 55, 0
3, 127320, Note_on_c, 1, 59, 73
3, 127424, Note_on_c, 1, 59, 0
3, 127440, Note_on_c, 1, 55, 73
3, 127544, Note_on_c, 1, 55, 0
3, 127560, Note_on_c, 1, 61, 73
3, 127620, Note_on_c, 1, 52, 0
3, 127664, Note_on_c, 1, 61, 0
3, 127680, Note_on_c, 1, 59, 63
3, 127680, Note_on_c, 1, 54, 63
3, 127784, Note_on_c, 1, 59, 0
3, 127800, Note_on_c, 1, 62, 74
3, 127904, Note_on_c, 1, 62, 0
3, 127920, Note_on_c, 1, 59, 74
3, 128024, Note_on_c, 1, 59, 0
3, 128040, Note_on_c, 1, 62, 74
3, 128144, Note_on_c, 1, 62, 0
3, 128160, Note_on_c, 1, 61, 74
3, 128264, Note_on_c, 1, 61, 0
3, 128280, Note_on_c, 1, 64, 74
3, 128384, Note_on_c, 1, 64, 0
3, 128400, Note_on_c, 1, 61, 74
3, 128504, Note_on_c, 1, 61, 0
3, 128520, Note_on_c, 1, 64, 74
3, 128580, Note_on_c, 1, 54, 0
3, 128624, Note_on_c, 1, 64, 0
3, 128640, Note_on_c, 1, 58, 67
3, 128640, Note_on_c, 1, 55, 67
3, 128744, Note_on_c, 1, 58, 0
3, 128760, Note_on_c, 1, 61, 74
3, 128864, Note_on_c, 1, 61, 0
3, 128880, Note_on_c, 1, 58, 78
3, 128984, Note_on_c, 1, 58, 0
3, 129000, Note_on_c, 1, 61, 78
3, 129104, Note_on_c, 1, 61, 0
3, 129120, Note_on_c, 1, 59, 78
3, 129224, Note_on_c, 1, 59, 0
3, 129240, Note_on_c, 1, 62, 78
3, 129344, Note_on_c, 1, 62, 0
3, 129360, Note_on_c, 1, 59, 78
3, 129464, Note_on_c, 1, 59, 0
3, 129480, Note_on_c, 1, 62, 73
3, 129540, Note_on_c, 1, 55, 0
3, 129584, Note_on_c, 1, 62, 0
3, 129600, Note_on_c, 1, 50, 70
3, 129704, Note_on_c, 1, 50, 0
3, 129720, Note_on_c, 1, 59, 73
3, 129824, Note_on_c, 1, 59, 0
3, 129840, Note_on_c, 1, 54, 76
3, 129944, Note_on_c, 1, 54, 0
3, 129960, Note_on_c, 1, 59, 76
3, 130064, Note_on_c, 1, 59, 0
3, 130080, Note_on_c, 1, 50, 76
3, 130184, Note_on_c, 1, 50, 0
3, 130200, Note_on_c, 1, 59, 73
3, 130304, Note_on_c, 1, 59, 0
3, 130320, Note_on_c, 1, 54, 73
3, 130424, Note_on_c, 1, 54, 0
3, 130440, Note_on_c, 1, 59, 73
3, 130544, Note_on_c, 1, 59, 0
3, 130560, Note_on_c, 1, 52, 73
3, 130664, Note_on_c, 1, 52, 0
3, 130680, Note_on_c, 1, 60, 73
3, 130784, Note_on_c, 1, 60, 0
3, 130800, Note_on_c, 1, 55, 73
3, 130904, Note_on_c, 1, 55, 0
3, 130920, Note_on_c, 1, 60, 73
3, 131024, Note_on_c, 1, 60, 0
3, 131040, Note_on_c, 1, 52, 73
3, 131144, Note_on_c, 1, 52, 0
3, 131160, Note_on_c, 1, 60, 73
3, 131264, Note_on_c, 1, 60, 0
3, 131280, Note_on_c, 1, 55, 73
3, 131384, Note_on_c, 1, 55, 0
3, 131400, Note_on_c, 1, 60, 73
3, 131504, Note_on_c, 1, 60, 0
3, 131520, Note_on_c, 1, 62, 82
3, 131520, Note_on_c, 1, 54, 82
3, 132000, Note_on_c, 1, 64, 82
3, 132008, Note_on_c, 1, 62, 0
3, 132472, Note_on_c, 1, 54, 0
3, 132480, Note_on_c, 1, 64, 0
3, 132480, Note_on_c, 1, 59, 85
3, 132960, Note_on_c, 1, 54, 84
3, 132980, Note_on_c, 1, 59, 0
3, 133200, Note_on_c, 1, 62, 82
3, 133208, Note_on_c, 1, 54, 0
3, 133408, Note_on_c, 1, 62, 0
3, 133440, Note_on_c, 1, 64, 69
3, 133440, Note_on_c, 1, 61, 69
3, 133544, Note_on_c, 1, 61, 0
3, 133560, Note_on_c, 1, 54, 72
3, 133648, Note_on_c, 1, 64, 0
3, 133664, Note_on_c, 1, 54, 0
3, 133680, Note_on_c, 1, 64, 73
3, 133680, Note_on_c, 1, 61, 73
3, 133784, Note_on_c, 1, 61, 0
3, 133800, Note_on_c, 1, 54, 73
3, 133888, Note_on_c, 1, 64, 0
3, 133904, Note_on_c, 1, 54, 0
3, 133920, Note_on_c, 1, 64, 73
3, 133920, Note_on_c, 1, 61, 73
3, 134024, Note_on_c, 1, 61, 0
3, 134040, Note_on_c, 1, 54, 73
3, 134128, Note_on_c, 1, 64, 0
3, 134144, Note_on_c, 1, 54, 0
3, 134160, Note_on_c, 1, 64, 73
3, 134160, Note_on_c, 1, 61, 73
3, 134264, Note_on_c, 1, 61, 0
3, 134280, Note_on_c, 1, 54, 74
3, 134368, Note_on_c, 1, 64, 0
3, 134384, Note_on_c, 1, 54, 0
3, 134400, Note_on_c, 1, 59, 85
3, 134880, Note_on_c, 1, 54, 86
3, 134904, Note_on_c, 1, 59, 0
3, 135120, Note_on_c, 1, 62, 84
3, 135144, Note_on_c, 1, 54, 0
3, 135328, Note_on_c, 1, 62, 0
3, 135360, Note_on_c, 1, 64, 73
3, 135360, Note_on_c, 1, 61, 73
3, 135464, Note_on_c, 1, 61, 0
3, 135480, Note_on_c, 1, 54, 70
3, 135568, Note_on_c, 1, 64, 0
3, 135584, Note_on_c, 1, 54, 0
3, 135600, Note_on_c, 1, 64, 70
3, 135600, Note_on_c, 1, 61, 70
3, 135704, Note_on_c, 1, 61, 0
3, 135720, Note_on_c, 1, 54, 71
3, 135808, Note_on_c, 1, 64, 0
3, 135824, Note_on_c, 1, 54, 0
3, 135840, Note_on_c, 1, 64, 74
3, 135840, Note_on_c, 1, 61, 74
3, 135944, Note_on_c, 1, 61, 0
3, 135960, Note_on_c, 1, 54, 74
3, 136048, Note_on_c, 1, 64, 0
3, 136064, Note_on_c, 1, 54, 0
3, 136080, Note_on_c, 1, 64, 76
3, 136080, Note_on_c, 1, 61, 76
3, 136184, Note_on_c, 1, 61, 0
3, 136200, Note_on_c, 1, 54, 76
3, 136288, Note_on_c, 1, 64, 0
3, 136304, Note_on_c, 1, 54, 0
3, 136320, Note_on_c, 1, 54, 81
3, 136320, Note_on_c, 1, 61, 81
3, 136320, Note_on_c, 1, 64, 81
3, 136800, Note_on_c, 1, 59, 76
3, 136800, Note_on_c, 1, 62, 76
3, 136828, Note_on_c, 1, 64, 0
3, 136828, Note_on_c, 1, 54, 0
3, 136828, Note_on_c, 1, 61, 0
3, 137008, Note_on_c, 1, 59, 0
3, 137008, Note_on_c, 1, 62, 0
3, 137280, Note_on_c, 1, 45, 97
3, 137280, Note_on_c, 1, 57, 97
3, 137488, Note_on_c, 1, 57, 0
3, 137488, Note_on_c, 1, 45, 0
3, 137520, Note_on_c, 1, 43, 109
3, 137520, Note_on_c, 1, 55, 109
3, 137728, Note_on_c, 1, 55, 0
3, 137728, Note_on_c, 1, 43, 0
3, 137760, Note_on_c, 1, 42, 100
3, 137760, Note_on_c, 1, 54, 100
3, 137968, Note_on_c, 1, 54, 0
3, 137968, Note_on_c, 1, 42, 0
3, 139200, Note_on_c, 1, 55, 97
3, 139200, Note_on_c, 1, 48, 97
3, 139560, Note_on_c, 1, 57, 80
3, 139572, Note_on_c, 1, 55, 0
3, 139620, Note_on_c, 1, 59, 73
3, 139631, Note_on_c, 1, 57, 0
3, 139680, Note_on_c, 1, 60, 75
3, 139693, Note_on_c, 1, 59, 0
3, 139920, Note_on_c, 1, 59, 82
3, 139936, Note_on_c, 1, 60, 0
3, 140128, Note_on_c, 1, 59, 0
3, 140128, Note_on_c, 1, 48, 0
3, 140160, Note_on_c, 1, 59, 95
3, 140160, Note_on_c, 1, 50, 95
3, 140640, Note_on_c, 1, 57, 73
3, 140656, Note_on_c, 1, 59, 0
3, 140844, Note_on_c, 1, 50, 0
3, 140848, Note_on_c, 1, 57, 0
3, 140880, Note_on_c, 1, 62, 73
3, 140880, Note_on_c, 1, 60, 73
3, 141088, Note_on_c, 1, 60, 0
3, 141088, Note_on_c, 1, 62, 0
3, 141120, Note_on_c, 1, 62, 76
3, 141120, Note_on_c, 1, 59, 76
3, 141328, Note_on_c, 1, 59, 0
3, 141328, Note_on_c, 1, 62, 0
3, 141360, Note_on_c, 1, 62, 77
3, 141360, Note_on_c, 1, 54, 77
3, 141568, Note_on_c, 1, 54, 0
3, 141568, Note_on_c, 1, 62, 0
3, 141600, Note_on_c, 1, 62, 76
3, 141600, Note_on_c, 1, 55, 76
3, 141808, Note_on_c, 1, 55, 0
3, 141808, Note_on_c, 1, 62, 0
3, 142080, Note_on_c, 1, 59, 94
3, 142080, Note_on_c, 1, 62, 94
3, 142184, Note_on_c, 1, 62, 0
3, 142184, Note_on_c, 1, 59, 0
3, 142200, Note_on_c, 1, 59, 94
3, 142200, Note_on_c, 1, 62, 94
3, 142304, Note_on_c, 1, 62, 0
3, 142304, Note_on_c, 1, 59, 0
3, 142320, Note_on_c, 1, 59, 91
3, 142320, Note_on_c, 1, 62, 91
3, 142424, Note_on_c, 1, 62, 0
3, 142424, Note_on_c, 1, 59, 0
3, 142440, Note_on_c, 1, 59, 91
3, 142440, Note_on_c, 1, 62, 91
3, 142544, Note_on_c, 1, 62, 0
3, 142544, Note_on_c, 1, 59, 0
3, 142560, Note_on_c, 1, 59, 94
3, 142560, Note_on_c, 1, 62, 94
3, 142664, Note_on_c, 1, 62, 0
3, 142664, Note_on_c, 1, 59, 0
3, 142680, Note_on_c, 1, 59, 92
3, 142680, Note_on_c, 1, 62, 92
3, 142784, Note_on_c, 1, 62, 0
3, 142784, Note_on_c, 1, 59, 0
3, 142800, Note_on_c, 1, 59, 92
3, 142800, Note_on_c, 1, 62, 92
3, 142904, Note_on_c, 1, 62, 0
3, 142904, Note_on_c, 1, 59, 0
3, 142920, Note_on_c, 1, 59, 87
3, 142920, Note_on_c, 1, 62, 87
3, 143024, Note_on_c, 1, 62, 0
3, 143024, Note_on_c, 1, 59, 0
3, 143040, Note_on_c, 1, 59, 79
3, 143040, Note_on_c, 1, 62, 79
3, 143144, Note_on_c, 1, 62, 0
3, 143144, Note_on_c, 1, 59, 0
3, 143160, Note_on_c, 1, 59, 75
3, 143160, Note_on_c, 1, 62, 75
3, 143264, Note_on_c, 1, 62, 0
3, 143264, Note_on_c, 1, 59, 0
3, 143280, Note_on_c, 1, 59, 70
3, 143280, Note_on_c, 1, 62, 70
3, 143384, Note_on_c, 1, 62, 0
3, 143384, Note_on_c, 1, 59, 0
3, 143400, Note_on_c, 1, 59, 70
3, 143400, Note_on_c, 1, 62, 70
3, 143504, Note_on_c, 1, 62, 0
3, 143504, Note_on_c, 1, 59, 0
3, 143520, Note_on_c, 1, 60, 70
3, 143520, Note_on_c, 1, 62, 70
3, 143624, Note_on_c, 1, 62, 0
3, 143624, Note_on_c, 1, 60, 0
3, 143640, Note_on_c, 1, 60, 70
3, 143640, Note_on_c, 1, 62, 70
3, 143744, Note_on_c, 1, 62, 0
3, 143744, Note_on_c, 1, 60, 0
3, 143760, Note_on_c, 1, 60, 72
3, 143760, Note_on_c, 1, 62, 72
3, 143864, Note_on_c, 1, 62, 0
3, 143864, Note_on_c, 1, 60, 0
3, 143880, Note_on_c, 1, 60, 81
3, 143880, Note_on_c, 1, 62, 81
3, 143984, Note_on_c, 1, 62, 0
3, 143984, Note_on_c, 1, 60, 0
3, 144000, Note_on_c, 1, 54, 102
3, 144000, Note_on_c, 1, 57, 102
3, 144000, Note_on_c, 1, 62, 102
3, 144104, Note_on_c, 1, 62, 0
3, 144104, Note_on_c, 1, 57, 0
3, 144104, Note_on_c, 1, 54, 0
3, 144120, Note_on_c, 1, 54, 98
3, 144120, Note_on_c, 1, 57, 98
3, 144120, Note_on_c, 1, 62, 98
3, 144224, Note_on_c, 1, 62, 0
3, 144224, Note_on_c, 1, 57, 0
3, 144224, Note_on_c, 1, 54, 0
3, 144240, Note_on_c, 1, 54, 94
3, 144240, Note_on_c, 1, 57, 94
3, 144240, Note_on_c, 1, 62, 94
3, 144344, Note_on_c, 1, 62, 0
3, 144344, Note_on_c, 1, 57, 0
3, 144344, Note_on_c, 1, 54, 0
3, 144360, Note_on_c, 1, 54, 94
3, 144360, Note_on_c, 1, 57, 94
3, 144360, Note_on_c, 1, 62, 94
3, 144464, Note_on_c, 1, 62, 0
3, 144464, Note_on_c, 1, 57, 0
3, 144464, Note_on_c, 1, 54, 0
3, 144480, Note_on_c, 1, 54, 94
3, 144480, Note_on_c, 1, 57, 94
3, 144480, Note_on_c, 1, 62, 94
3, 144584, Note_on_c, 1, 62, 0
3, 144584, Note_on_c, 1, 57, 0
3, 144584, Note_on_c, 1, 54, 0
3, 144600, Note_on_c, 1, 54, 94
3, 144600, Note_on_c, 1, 57, 94
3, 144600, Note_on_c, 1, 62, 94
3, 144704, Note_on_c, 1, 62, 0
3, 144704, Note_on_c, 1, 57, 0
3, 144704, Note_on_c, 1, 54, 0
3, 144720, Note_on_c, 1, 54, 94
3, 144720, Note_on_c, 1, 57, 94
3, 144720, Note_on_c, 1, 62, 94
3, 144824, Note_on_c, 1, 62, 0
3, 144824, Note_on_c, 1, 57, 0
3, 144824, Note_on_c, 1, 54, 0
3, 144840, Note_on_c, 1, 54, 91
3, 144840, Note_on_c, 1, 57, 91
3, 144840, Note_on_c, 1, 62, 91
3, 144944, Note_on_c, 1, 62, 0
3, 144944, Note_on_c, 1, 57, 0
3, 144944, Note_on_c, 1, 54, 0
3, 144960, Note_on_c, 1, 54, 77
3, 144960, Note_on_c, 1, 57, 77
3, 144960, Note_on_c, 1, 60, 77
3, 145064, Note_on_c, 1, 60, 0
3, 145064, Note_on_c, 1, 57, 0
3, 145064, Note_on_c, 1, 54, 0
3, 145080, Note_on_c, 1, 54, 76
3, 145080, Note_on_c, 1, 57, 76
3, 145080, Note_on_c, 1, 60, 76
3, 145184, Note_on_c, 1, 60, 0
3, 145184, Note_on_c, 1, 57, 0
3, 145184, Note_on_c, 1, 54, 0
3, 145200, Note_on_c, 1, 54, 76
3, 145200, Note_on_c, 1, 57, 76
3, 145200, Note_on_c, 1, 60, 76
3, 145304, Note_on_c, 1, 60, 0
3, 145304, Note_on_c, 1, 57, 0
3, 145304, Note_on_c, 1, 54, 0
3, 145320, Note_on_c, 1, 54, 76
3, 145320, Note_on_c, 1, 57, 76
3, 145320, Note_on_c, 1, 60, 76
3, 145424, Note_on_c, 1, 60, 0
3, 145424, Note_on_c, 1, 57, 0
3, 145424, Note_on_c, 1, 54, 0
3, 145440, Note_on_c, 1, 54, 79
3, 145440, Note_on_c, 1, 57, 79
3, 145440, Note_on_c, 1, 59, 79
3, 145544, Note_on_c, 1, 59, 0
3, 145544, Note_on_c, 1, 57, 0
3, 145544, Note_on_c, 1, 54, 0
3, 145560, Note_on_c, 1, 54, 80
3, 145560, Note_on_c, 1, 57, 80
3, 145560, Note_on_c, 1, 59, 80
3, 145664, Note_on_c, 1, 59, 0
3, 145664, Note_on_c, 1, 57, 0
3, 145664, Note_on_c, 1, 54, 0
3, 145680, Note_on_c, 1, 54, 80
3, 145680, Note_on_c, 1, 57, 80
3, 145680, Note_on_c, 1, 59, 80
3, 145784, Note_on_c, 1, 59, 0
3, 145784, Note_on_c, 1, 57, 0
3, 145784, Note_on_c, 1, 54, 0
3, 145800, Note_on_c, 1, 54, 76
3, 145800, Note_on_c, 1, 57, 76
3, 145800, Note_on_c, 1, 59, 76
3, 145904, Note_on_c, 1, 59, 0
3, 145904, Note_on_c, 1, 57, 0
3, 145904, Note_on_c, 1, 54, 0
3, 145920, Note_on_c, 1, 54, 76
3, 145920, Note_on_c, 1, 56, 76
3, 145920, Note_on_c, 1, 59, 76
3, 146024, Note_on_c, 1, 59, 0
3, 146024, Note_on_c, 1, 56, 0
3, 146024, Note_on_c, 1, 54, 0
3, 146040, Note_on_c, 1, 54, 76
3, 146040, Note_on_c, 1, 56, 76
3, 146040, Note_on_c, 1, 59, 76
3, 146144, Note_on_c, 1, 59, 0
3, 146144, Note_on_c, 1, 56, 0
3, 146144, Note_on_c, 1, 54, 0
3, 146160, Note_on_c, 1, 54, 76
3, 146160, Note_on_c, 1, 56, 76
3, 146160, Note_on_c, 1, 59, 76
3, 146264, Note_on_c, 1, 59, 0
3, 146264, Note_on_c, 1, 56, 0
3, 146264, Note_on_c, 1, 54, 0
3, 146280, Note_on_c, 1, 54, 76
3, 146280, Note_on_c, 1, 56, 76
3, 146280, Note_on_c, 1, 59, 76
3, 146384, Note_on_c, 1, 59, 0
3, 146384, Note_on_c, 1, 56, 0
3, 146384, Note_on_c, 1, 54, 0
3, 146400, Note_on_c, 1, 53, 74
3, 146400, Note_on_c, 1, 56, 74
3, 146400, Note_on_c, 1, 59, 74
3, 146608, Note_on_c, 1, 59, 0
3, 146608, Note_on_c, 1, 56, 0
3, 146608, Note_on_c, 1, 53, 0
3, 147840, Note_on_c, 1, 54, 97
3, 147840, Note_on_c, 1, 48, 97
3, 148320, Note_on_c, 1, 56, 76
3, 148336, Note_on_c, 1, 54, 0
3, 148560, Note_on_c, 1, 57, 75
3, 148576, Note_on_c, 1, 56, 0
3, 148768, Note_on_c, 1, 57, 0
3, 148768, Note_on_c, 1, 48, 0
3, 148800, Note_on_c, 1, 57, 99
3, 148800, Note_on_c, 1, 49, 99
3, 149280, Note_on_c, 1, 56, 91
3, 149296, Note_on_c, 1, 57, 0
3, 149488, Note_on_c, 1, 56, 0
3, 149492, Note_on_c, 1, 49, 0
3, 149520, Note_on_c, 1, 61, 73
3, 149520, Note_on_c, 1, 59, 73
3, 149728, Note_on_c, 1, 59, 0
3, 149728, Note_on_c, 1, 61, 0
3, 149760, Note_on_c, 1, 57, 75
3, 149760, Note_on_c, 1, 61, 75
3, 149968, Note_on_c, 1, 61, 0
3, 149968, Note_on_c, 1, 57, 0
3, 150000, Note_on_c, 1, 53, 73
3, 150000, Note_on_c, 1, 61, 73
3, 150208, Note_on_c, 1, 61, 0
3, 150208, Note_on_c, 1, 53, 0
3, 150240, Note_on_c, 1, 54, 78
3, 150240, Note_on_c, 1, 61, 78
3, 150448, Note_on_c, 1, 61, 0
3, 150448, Note_on_c, 1, 54, 0
3, 150720, Note_on_c, 1, 57, 97
3, 150720, Note_on_c, 1, 61, 97
3, 150824, Note_on_c, 1, 61, 0
3, 150824, Note_on_c, 1, 57, 0
3, 150840, Note_on_c, 1, 57, 99
3, 150840, Note_on_c, 1, 61, 99
3, 150944, Note_on_c, 1, 61, 0
3, 150944, Note_on_c, 1, 57, 0
3, 150960, Note_on_c, 1, 57, 99
3, 150960, Note_on_c, 1, 61, 99
3, 151064, Note_on_c, 1, 61, 0
3, 151064, Note_on_c, 1, 57, 0
3, 151080, Note_on_c, 1, 57, 99
3, 151080, Note_on_c, 1, 61, 99
3, 151184, Note_on_c, 1, 61, 0
3, 151184, Note_on_c, 1, 57, 0
3, 151200, Note_on_c, 1, 57, 97
3, 151200, Note_on_c, 1, 61, 97
3, 151304, Note_on_c, 1, 61, 0
3, 151304, Note_on_c, 1, 57, 0
3, 151320, Note_on_c, 1, 57, 95
3, 151320, Note_on_c, 1, 61, 95
3, 151424, Note_on_c, 1, 61, 0
3, 151424, Note_on_c, 1, 57, 0
3, 151440, Note_on_c, 1, 57, 94
3, 151440, Note_on_c, 1, 61, 94
3, 151544, Note_on_c, 1, 61, 0
3, 151544, Note_on_c, 1, 57, 0
3, 151560, Note_on_c, 1, 57, 83
3, 151560, Note_on_c, 1, 61, 83
3, 151664, Note_on_c, 1, 61, 0
3, 151664, Note_on_c, 1, 57, 0
3, 151680, Note_on_c, 1, 58, 72
3, 151680, Note_on_c, 1, 61, 72
3, 151784, Note_on_c, 1, 61, 0
3, 151784, Note_on_c, 1, 58, 0
3, 151800, Note_on_c, 1, 58, 76
3, 151800, Note_on_c, 1, 61, 76
3, 151904, Note_on_c, 1, 61, 0
3, 151904, Note_on_c, 1, 58, 0
3, 151920, Note_on_c, 1, 58, 73
3, 151920, Note_on_c, 1, 61, 73
3, 152024, Note_on_c, 1, 61, 0
3, 152024, Note_on_c, 1, 58, 0
3, 152040, Note_on_c, 1, 58, 73
3, 152040, Note_on_c, 1, 61, 73
3, 152144, Note_on_c, 1, 61, 0
3, 152144, Note_on_c, 1, 58, 0
3, 152160, Note_on_c, 1, 59, 73
3, 152160, Note_on_c, 1, 61, 73
3, 152264, Note_on_c, 1, 61, 0
3, 152264, Note_on_c, 1, 59, 0
3, 152280, Note_on_c, 1, 59, 73
3, 152280, Note_on_c, 1, 61, 73
3, 152384, Note_on_c, 1, 61, 0
3, 152384, Note_on_c, 1, 59, 0
3, 152400, Note_on_c, 1, 59, 73
3, 152400, Note_on_c, 1, 61, 73
3, 152504, Note_on_c, 1, 61, 0
3, 152504, Note_on_c, 1, 59, 0
3, 152520, Note_on_c, 1, 59, 82
3, 152520, Note_on_c, 1, 61, 82
3, 152624, Note_on_c, 1, 61, 0
3, 152624, Note_on_c, 1, 59, 0
3, 152640, Note_on_c, 1, 53, 97
3, 152640, Note_on_c, 1, 56, 97
3, 152640, Note_on_c, 1, 61, 97
3, 152744, Note_on_c, 1, 61, 0
3, 152744, Note_on_c, 1, 56, 0
3, 152744, Note_on_c, 1, 53, 0
3, 152760, Note_on_c, 1, 53, 95
3, 152760, Note_on_c, 1, 56, 95
3, 152760, Note_on_c, 1, 61, 95
3, 152864, Note_on_c, 1, 61, 0
3, 152864, Note_on_c, 1, 56, 0
3, 152864, Note_on_c, 1, 53, 0
3, 152880, Note_on_c, 1, 53, 93
3, 152880, Note_on_c, 1, 56, 93
3, 152880, Note_on_c, 1, 61, 93
3, 152984, Note_on_c, 1, 61, 0
3, 152984, Note_on_c, 1, 56, 0
3, 152984, Note_on_c, 1, 53, 0
3, 153000, Note_on_c, 1, 53, 93
3, 153000, Note_on_c, 1, 56, 93
3, 153000, Note_on_c, 1, 61, 93
3, 153104, Note_on_c, 1, 61, 0
3, 153104, Note_on_c, 1, 56, 0
3, 153104, Note_on_c, 1, 53, 0
3, 153120, Note_on_c, 1, 53, 93
3, 153120, Note_on_c, 1, 56, 93
3, 153120, Note_on_c, 1, 61, 93
3, 153224, Note_on_c, 1, 61, 0
3, 153224, Note_on_c, 1, 56, 0
3, 153224, Note_on_c, 1, 53, 0
3, 153240, Note_on_c, 1, 53, 93
3, 153240, Note_on_c, 1, 56, 93
3, 153240, Note_on_c, 1, 61, 93
3, 153344, Note_on_c, 1, 61, 0
3, 153344, Note_on_c, 1, 56, 0
3, 153344, Note_on_c, 1, 53, 0
3, 153360, Note_on_c, 1, 53, 91
3, 153360, Note_on_c, 1, 56, 91
3, 153360, Note_on_c, 1, 61, 91
3, 153464, Note_on_c, 1, 61, 0
3, 153464, Note_on_c, 1, 56, 0
3, 153464, Note_on_c, 1, 53, 0
3, 153480, Note_on_c, 1, 53, 85
3, 153480, Note_on_c, 1, 56, 85
3, 153480, Note_on_c, 1, 61, 85
3, 153584, Note_on_c, 1, 61, 0
3, 153584, Note_on_c, 1, 56, 0
3, 153584, Note_on_c, 1, 53, 0
3, 153600, Note_on_c, 1, 56, 78
3, 153600, Note_on_c, 1, 58, 78
3, 153600, Note_on_c, 1, 61, 78
3, 153704, Note_on_c, 1, 61, 0
3, 153704, Note_on_c, 1, 58, 0
3, 153704, Note_on_c, 1, 56, 0
3, 153720, Note_on_c, 1, 56, 74
3, 153720, Note_on_c, 1, 58, 74
3, 153720, Note_on_c, 1, 61, 74
3, 153824, Note_on_c, 1, 61, 0
3, 153824, Note_on_c, 1, 58, 0
3, 153824, Note_on_c, 1, 56, 0
3, 153840, Note_on_c, 1, 56, 74
3, 153840, Note_on_c, 1, 58, 74
3, 153840, Note_on_c, 1, 61, 74
3, 153944, Note_on_c, 1, 61, 0
3, 153944, Note_on_c, 1, 58, 0
3, 153944, Note_on_c, 1, 56, 0
3, 153960, Note_on_c, 1, 56, 74
3, 153960, Note_on_c, 1, 58, 74
3, 153960, Note_on_c, 1, 61, 74
3, 154064, Note_on_c, 1, 61, 0
3, 154064, Note_on_c, 1, 58, 0
3, 154064, Note_on_c, 1, 56, 0
3, 154080, Note_on_c, 1, 55, 74
3, 154080, Note_on_c, 1, 58, 74
3, 154080, Note_on_c, 1, 61, 74
3, 154184, Note_on_c, 1, 61, 0
3, 154184, Note_on_c, 1, 58, 0
3, 154184, Note_on_c, 1, 55, 0
3, 154200, Note_on_c, 1, 55, 74
3, 154200, Note_on_c, 1, 58, 74
3, 154200, Note_on_c, 1, 61, 74
3, 154304, Note_on_c, 1, 61, 0
3, 154304, Note_on_c, 1, 58, 0
3, 154304, Note_on_c, 1, 55, 0
3, 154320, Note_on_c, 1, 55, 74
3, 154320, Note_on_c, 1, 58, 74
3, 154320, Note_on_c, 1, 61, 74
3, 154424, Note_on_c, 1, 61, 0
3, 154424, Note_on_c, 1, 58, 0
3, 154424, Note_on_c, 1, 55, 0
3, 154440, Note_on_c, 1, 55, 74
3, 154440, Note_on_c, 1, 58, 74
3, 154440, Note_on_c, 1, 61, 74
3, 154544, Note_on_c, 1, 61, 0
3, 154544, Note_on_c, 1, 58, 0
3, 154544, Note_on_c, 1, 55, 0
3, 154560, Note_on_c, 1, 55, 74
3, 154560, Note_on_c, 1, 57, 74
3, 154560, Note_on_c, 1, 60, 74
3, 154664, Note_on_c, 1, 60, 0
3, 154664, Note_on_c, 1, 57, 0
3, 154664, Note_on_c, 1, 55, 0
3, 154680, Note_on_c, 1, 55, 74
3, 154680, Note_on_c, 1, 57, 74
3, 154680, Note_on_c, 1, 60, 74
3, 154784, Note_on_c, 1, 60, 0
3, 154784, Note_on_c, 1, 57, 0
3, 154784, Note_on_c, 1, 55, 0
3, 154800, Note_on_c, 1, 55, 75
3, 154800, Note_on_c, 1, 57, 75
3, 154800, Note_on_c, 1, 60, 75
3, 154904, Note_on_c, 1, 60, 0
3, 154904, Note_on_c, 1, 57, 0
3, 154904, Note_on_c, 1, 55, 0
3, 154920, Note_on_c, 1, 55, 75
3, 154920, Note_on_c, 1, 57, 75
3, 154920, Note_on_c, 1, 60, 75
3, 155024, Note_on_c, 1, 60, 0
3, 155024, Note_on_c, 1, 57, 0
3, 155024, Note_on_c, 1, 55, 0
3, 155040, Note_on_c, 1, 54, 73
3, 155040, Note_on_c, 1, 57, 73
3, 155040, Note_on_c, 1, 60, 73
3, 155248, Note_on_c, 1, 60, 0
3, 155248, Note_on_c, 1, 57, 0
3, 155248, Note_on_c, 1, 54, 0
3, 155520, Note_on_c, 1, 55, 76
3, 156000, Note_on_c, 1, 50, 74
3, 156016, Note_on_c, 1, 55, 0
3, 156240, Note_on_c, 1, 58, 75
3, 156256, Note_on_c, 1, 50, 0
3, 156448, Note_on_c, 1, 58, 0
3, 156480, Note_on_c, 1, 58, 102
3, 156960, Note_on_c, 1, 57, 79
3, 156972, Note_on_c, 1, 58, 0
3, 157200, Note_on_c, 1, 55, 78
3, 157212, Note_on_c, 1, 57, 0
3, 157408, Note_on_c, 1, 55, 0
3, 157440, Note_on_c, 1, 55, 97
3, 157920, Note_on_c, 1, 54, 88
3, 157932, Note_on_c, 1, 55, 0
3, 158100, Note_on_c, 1, 60, 91
3, 158112, Note_on_c, 1, 54, 0
3, 158152, Note_on_c, 1, 60, 0
3, 158160, Note_on_c, 1, 57, 88
3, 158340, Note_on_c, 1, 54, 77
3, 158356, Note_on_c, 1, 57, 0
3, 158382, Note_on_c, 1, 54, 0
3, 158400, Note_on_c, 1, 57, 84
3, 158520, Note_on_c, 1, 56, 75
3, 158536, Note_on_c, 1, 57, 0
3, 158624, Note_on_c, 1, 56, 0
3, 158640, Note_on_c, 1, 59, 85
3, 158760, Note_on_c, 1, 57, 74
3, 158776, Note_on_c, 1, 59, 0
3, 158864, Note_on_c, 1, 57, 0
3, 158880, Note_on_c, 1, 60, 85
3, 159000, Note_on_c, 1, 59, 69
3, 159016, Note_on_c, 1, 60, 0
3, 159104, Note_on_c, 1, 59, 0
3, 159360, Note_on_c, 1, 57, 73
3, 159840, Note_on_c, 1, 52, 70
3, 159852, Note_on_c, 1, 57, 0
3, 160080, Note_on_c, 1, 60, 72
3, 160092, Note_on_c, 1, 52, 0
3, 160288, Note_on_c, 1, 60, 0
3, 160320, Note_on_c, 1, 60, 100
3, 160800, Note_on_c, 1, 59, 73
3, 160812, Note_on_c, 1, 60, 0
3, 161040, Note_on_c, 1, 57, 75
3, 161052, Note_on_c, 1, 59, 0
3, 161248, Note_on_c, 1, 57, 0
3, 161280, Note_on_c, 1, 57, 104
3, 161700, Note_on_c, 1, 57, 0
3, 161760, Note_on_c, 1, 56, 97
3, 161916, Note_on_c, 1, 56, 0
3, 161940, Note_on_c, 1, 62, 90
3, 161992, Note_on_c, 1, 62, 0
3, 162000, Note_on_c, 1, 59, 79
3, 162156, Note_on_c, 1, 59, 0
3, 162180, Note_on_c, 1, 56, 70
3, 162232, Note_on_c, 1, 56, 0
3, 162240, Note_on_c, 1, 59, 78
3, 162344, Note_on_c, 1, 59, 0
3, 162360, Note_on_c, 1, 58, 71
3, 162464, Note_on_c, 1, 58, 0
3, 162480, Note_on_c, 1, 61, 78
3, 162584, Note_on_c, 1, 61, 0
3, 162600, Note_on_c, 1, 59, 70
3, 162704, Note_on_c, 1, 59, 0
3, 162720, Note_on_c, 1, 62, 78
3, 162824, Note_on_c, 1, 62, 0
3, 162840, Note_on_c, 1, 61, 70
3, 162944, Note_on_c, 1, 61, 0
3, 164160, Note_on_c, 1, 59, 97
3, 164160, Note_on_c, 1, 53, 97
3, 164640, Note_on_c, 1, 61, 73
3, 164652, Note_on_c, 1, 59, 0
3, 164880, Note_on_c, 1, 62, 73
3, 164900, Note_on_c, 1, 61, 0
3, 165088, Note_on_c, 1, 62, 0
3, 165088, Note_on_c, 1, 53, 0
3, 165120, Note_on_c, 1, 62, 82
3, 165120, Note_on_c, 1, 54, 82
3, 165600, Note_on_c, 1, 61, 82
3, 165630, Note_on_c, 1, 62, 0
3, 165808, Note_on_c, 1, 61, 0
3, 165808, Note_on_c, 1, 54, 0
3, 165840, Note_on_c, 1, 67, 82
3, 165840, Note_on_c, 1, 64, 82
3, 166048, Note_on_c, 1, 64, 0
3, 166048, Note_on_c, 1, 67, 0
3, 166080, Note_on_c, 1, 66, 82
3, 166080, Note_on_c, 1, 62, 82
3, 166288, Note_on_c, 1, 62, 0
3, 166288, Note_on_c, 1, 66, 0
3, 166320, Note_on_c, 1, 66, 82
3, 166320, Note_on_c, 1, 58, 82
3, 166528, Note_on_c, 1, 58, 0
3, 166528, Note_on_c, 1, 66, 0
3, 166560, Note_on_c, 1, 66, 82
3, 166560, Note_on_c, 1, 59, 82
3, 166768, Note_on_c, 1, 59, 0
3, 166768, Note_on_c, 1, 66, 0
3, 167040, Note_on_c, 1, 62, 94
3, 167040, Note_on_c, 1, 66, 94
3, 167144, Note_on_c, 1, 66, 0
3, 167144, Note_on_c, 1, 62, 0
3, 167160, Note_on_c, 1, 62, 94
3, 167160, Note_on_c, 1, 66, 94
3, 167264, Note_on_c, 1, 66, 0
3, 167264, Note_on_c, 1, 62, 0
3, 167280, Note_on_c, 1, 62, 94
3, 167280, Note_on_c, 1, 66, 94
3, 167384, Note_on_c, 1, 66, 0
3, 167384, Note_on_c, 1, 62, 0
3, 167400, Note_on_c, 1, 62, 94
3, 167400, Note_on_c, 1, 66, 94
3, 167504, Note_on_c, 1, 66, 0
3, 167504, Note_on_c, 1, 62, 0
3, 167520, Note_on_c, 1, 61, 94
3, 167520, Note_on_c, 1, 64, 94
3, 167624, Note_on_c, 1, 64, 0
3, 167624, Note_on_c, 1, 61, 0
3, 167640, Note_on_c, 1, 61, 97
3, 167640, Note_on_c, 1, 64, 97
3, 167744, Note_on_c, 1, 64, 0
3, 167744, Note_on_c, 1, 61, 0
3, 167760, Note_on_c, 1, 61, 94
3, 167760, Note_on_c, 1, 64, 94
3, 167864, Note_on_c, 1, 64, 0
3, 167864, Note_on_c, 1, 61, 0
3, 167880, Note_on_c, 1, 61, 86
3, 167880, Note_on_c, 1, 64, 86
3, 167984, Note_on_c, 1, 64, 0
3, 167984, Note_on_c, 1, 61, 0
3, 168000, Note_on_c, 1, 59, 73
3, 168000, Note_on_c, 1, 62, 73
3, 168104, Note_on_c, 1, 62, 0
3, 168104, Note_on_c, 1, 59, 0
3, 168120, Note_on_c, 1, 59, 73
3, 168120, Note_on_c, 1, 62, 73
3, 168224, Note_on_c, 1, 62, 0
3, 168224, Note_on_c, 1, 59, 0
3, 168240, Note_on_c, 1, 59, 73
3, 168240, Note_on_c, 1, 62, 73
3, 168344, Note_on_c, 1, 62, 0
3, 168344, Note_on_c, 1, 59, 0
3, 168360, Note_on_c, 1, 59, 73
3, 168360, Note_on_c, 1, 62, 73
3, 168464, Note_on_c, 1, 62, 0
3, 168464, Note_on_c, 1, 59, 0
3, 168480, Note_on_c, 1, 58, 73
3, 168480, Note_on_c, 1, 61, 73
3, 168584, Note_on_c, 1, 61, 0
3, 168584, Note_on_c, 1, 58, 0
3, 168600, Note_on_c, 1, 58, 73
3, 168600, Note_on_c, 1, 61, 73
3, 168704, Note_on_c, 1, 61, 0
3, 168704, Note_on_c, 1, 58, 0
3, 168720, Note_on_c, 1, 58, 73
3, 168720, Note_on_c, 1, 61, 73
3, 168824, Note_on_c, 1, 61, 0
3, 168824, Note_on_c, 1, 58, 0
3, 168840, Note_on_c, 1, 58, 76
3, 168840, Note_on_c, 1, 61, 76
3, 168944, Note_on_c, 1, 61, 0
3, 168944, Note_on_c, 1, 58, 0
3, 168960, Note_on_c, 1, 59, 93
3, 168960, Note_on_c, 1, 62, 93
3, 169064, Note_on_c, 1, 62, 0
3, 169064, Note_on_c, 1, 59, 0
3, 169080, Note_on_c, 1, 59, 85
3, 169080, Note_on_c, 1, 62, 85
3, 169184, Note_on_c, 1, 62, 0
3, 169184, Note_on_c, 1, 59, 0
3, 169200, Note_on_c, 1, 59, 86
3, 169200, Note_on_c, 1, 62, 86
3, 169304, Note_on_c, 1, 62, 0
3, 169304, Note_on_c, 1, 59, 0
3, 169320, Note_on_c, 1, 59, 86
3, 169320, Note_on_c, 1, 62, 86
3, 169424, Note_on_c, 1, 62, 0
3, 169424, Note_on_c, 1, 59, 0
3, 169440, Note_on_c, 1, 57, 86
3, 169440, Note_on_c, 1, 61, 86
3, 169544, Note_on_c, 1, 61, 0
3, 169544, Note_on_c, 1, 57, 0
3, 169560, Note_on_c, 1, 57, 86
3, 169560, Note_on_c, 1, 61, 86
3, 169664, Note_on_c, 1, 61, 0
3, 169664, Note_on_c, 1, 57, 0
3, 169680, Note_on_c, 1, 57, 86
3, 169680, Note_on_c, 1, 61, 86
3, 169784, Note_on_c, 1, 61, 0
3, 169784, Note_on_c, 1, 57, 0
3, 169800, Note_on_c, 1, 57, 82
3, 169800, Note_on_c, 1, 61, 82
3, 169904, Note_on_c, 1, 61, 0
3, 169904, Note_on_c, 1, 57, 0
3, 169920, Note_on_c, 1, 55, 74
3, 169920, Note_on_c, 1, 59, 74
3, 170024, Note_on_c, 1, 59, 0
3, 170024, Note_on_c, 1, 55, 0
3, 170040, Note_on_c, 1, 55, 72
3, 170040, Note_on_c, 1, 59, 72
3, 170144, Note_on_c, 1, 59, 0
3, 170144, Note_on_c, 1, 55, 0
3, 170160, Note_on_c, 1, 55, 72
3, 170160, Note_on_c, 1, 59, 72
3, 170264, Note_on_c, 1, 59, 0
3, 170264, Note_on_c, 1, 55, 0
3, 170280, Note_on_c, 1, 55, 72
3, 170280, Note_on_c, 1, 59, 72
3, 170384, Note_on_c, 1, 59, 0
3, 170384, Note_on_c, 1, 55, 0
3, 170400, Note_on_c, 1, 57, 72
3, 170400, Note_on_c, 1, 54, 72
3, 170520, Note_on_c, 1, 59, 73
3, 170536, Note_on_c, 1, 57, 0
3, 170640, Note_on_c, 1, 60, 73
3, 170656, Note_on_c, 1, 59, 0
3, 170760, Note_on_c, 1, 59, 76
3, 170776, Note_on_c, 1, 60, 0
3, 170840, Note_on_c, 1, 54, 0
3, 170864, Note_on_c, 1, 59, 0
3, 170880, Note_on_c, 1, 59, 82
3, 170880, Note_on_c, 1, 55, 82
3, 171300, Note_on_c, 1, 55, 0
3, 171300, Note_on_c, 1, 59, 0
3, 171360, Note_on_c, 1, 57, 81
3, 171360, Note_on_c, 1, 54, 81
3, 171464, Note_on_c, 1, 57, 0
3, 171480, Note_on_c, 1, 59, 84
3, 171584, Note_on_c, 1, 59, 0
3, 171600, Note_on_c, 1, 60, 86
3, 171704, Note_on_c, 1, 60, 0
3, 171720, Note_on_c, 1, 59, 78
3, 171780, Note_on_c, 1, 54, 0
3, 171824, Note_on_c, 1, 59, 0
3, 171840, Note_on_c, 1, 59, 76
3, 171840, Note_on_c, 1, 55, 76
3, 172260, Note_on_c, 1, 55, 0
3, 172260, Note_on_c, 1, 59, 0
3, 172320, Note_on_c, 1, 59, 81
3, 172320, Note_on_c, 1, 56, 81
3, 172424, Note_on_c, 1, 59, 0
3, 172440, Note_on_c, 1, 61, 84
3, 172544, Note_on_c, 1, 61, 0
3, 172560, Note_on_c, 1, 62, 84
3, 172664, Note_on_c, 1, 62, 0
3, 172680, Note_on_c, 1, 61, 82
3, 172776, Note_on_c, 1, 56, 0
3, 172784, Note_on_c, 1, 61, 0
3, 172800, Note_on_c, 1, 61, 80
3, 172800, Note_on_c, 1, 58, 80
3, 173028, Note_on_c, 1, 61, 0
3, 173040, Note_on_c, 1, 67, 82
3, 173272, Note_on_c, 1, 58, 0
3, 173280, Note_on_c, 1, 66, 82
3, 173280, Note_on_c, 1, 59, 82
3, 173292, Note_on_c, 1, 67, 0
3, 173520, Note_on_c, 1, 65, 82
3, 173532, Note_on_c, 1, 66, 0
3, 173728, Note_on_c, 1, 65, 0
3, 173732, Note_on_c, 1, 59, 0
3, 173760, Note_on_c, 1, 54, 82
3, 173760, Note_on_c, 1, 66, 82
3, 174180, Note_on_c, 1, 66, 0
3, 174180, Note_on_c, 1, 54, 0
3, 174720, Note_on_c, 1, 35, 106
3, 175140, Note_on_c, 1, 38, 106
3, 175154, Note_on_c, 1, 35, 0
3, 175168, Note_on_c, 1, 42, 108
3, 175182, Note_on_c, 1, 38, 0
3, 175200, Note_on_c, 1, 47, 110
3, 175210, Note_on_c, 1, 42, 0
3, 175440, Note_on_c, 1, 47, 0
3, 175680, Note_on_c, 1, 72, 82
3, 176160, Note_on_c, 1, 73, 75
3, 176176, Note_on_c, 1, 72, 0
3, 176368, Note_on_c, 1, 73, 0
3, 176640, Note_on_c, 1, 30, 103
3, 177060, Note_on_c, 1, 34, 106
3, 177073, Note_on_c, 1, 30, 0
3, 177088, Note_on_c, 1, 37, 109
3, 177103, Note_on_c, 1, 34, 0
3, 177120, Note_on_c, 1, 42, 111
3, 177132, Note_on_c, 1, 37, 0
3, 177360, Note_on_c, 1, 42, 0
3, 177600, Note_on_c, 1, 73, 86
3, 178080, Note_on_c, 1, 74, 77
3, 178092, Note_on_c, 1, 73, 0
3, 178288, Note_on_c, 1, 74, 0
3, 178500, Note_on_c, 1, 75, 90
3, 178560, Note_on_c, 1, 76, 85
3, 178573, Note_on_c, 1, 75, 0
3, 178768, Note_on_c, 1, 76, 0
3, 178980, Note_on_c, 1, 77, 94
3, 179040, Note_on_c, 1, 78, 91
3, 179054, Note_on_c, 1, 77, 0
3, 179248, Note_on_c, 1, 78, 0
3, 179460, Note_on_c, 1, 78, 88
3, 179520, Note_on_c, 1, 77, 85
3, 179532, Note_on_c, 1, 78, 0
3, 179624, Note_on_c, 1, 77, 0
3, 179700, Note_on_c, 1, 76, 85
3, 179760, Note_on_c, 1, 75, 79
3, 179772, Note_on_c, 1, 76, 0
3, 179864, Note_on_c, 1, 75, 0
3, 179940, Note_on_c, 1, 74, 84
3, 180000, Note_on_c, 1, 73, 79
3, 180013, Note_on_c, 1, 74, 0
3, 180208, Note_on_c, 1, 73, 0
3, 180420, Note_on_c, 1, 72, 87
3, 180420, Note_on_c, 1, 75, 87
3, 180480, Note_on_c, 1, 73, 79
3, 180480, Note_on_c, 1, 76, 79
3, 180493, Note_on_c, 1, 75, 0
3, 180493, Note_on_c, 1, 72, 0
3, 180688, Note_on_c, 1, 73, 0
3, 180688, Note_on_c, 1, 76, 0
3, 180896, Note_on_c, 1, 77, 95
3, 180900, Note_on_c, 1, 73, 95
3, 180960, Note_on_c, 1, 78, 89
3, 180960, Note_on_c, 1, 74, 89
3, 180968, Note_on_c, 1, 77, 0
3, 180971, Note_on_c, 1, 73, 0
3, 181168, Note_on_c, 1, 78, 0
3, 181168, Note_on_c, 1, 74, 0
3, 181380, Note_on_c, 1, 74, 91
3, 181380, Note_on_c, 1, 78, 91
3, 181440, Note_on_c, 1, 77, 86
3, 181440, Note_on_c, 1, 73, 86
3, 181452, Note_on_c, 1, 78, 0
3, 181452, Note_on_c, 1, 74, 0
3, 181544, Note_on_c, 1, 77, 0
3, 181544, Note_on_c, 1, 73, 0
3, 181620, Note_on_c, 1, 73, 88
3, 181620, Note_on_c, 1, 76, 88
3, 181680, Note_on_c, 1, 75, 82
3, 181680, Note_on_c, 1, 71, 82
3, 181692, Note_on_c, 1, 76, 0
3, 181692, Note_on_c, 1, 73, 0
3, 181784, Note_on_c, 1, 75, 0
3, 181784, Note_on_c, 1, 71, 0
3, 181860, Note_on_c, 1, 71, 82
3, 181860, Note_on_c, 1, 74, 82
3, 181920, Note_on_c, 1, 70, 79
3, 181920, Note_on_c, 1, 73, 79
3, 181922, Note_on_c, 1, 71, 0
3, 181932, Note_on_c, 1, 74, 0
3, 182128, Note_on_c, 1, 70, 0
3, 182128, Note_on_c, 1, 73, 0
3, 182400, Note_on_c, 1, 34, 100
3, 182400, Note_on_c, 1, 46, 100
3, 182608, Note_on_c, 1, 46, 0
3, 182608, Note_on_c, 1, 34, 0
3, 182640, Note_on_c, 1, 37, 112
3, 182640, Note_on_c, 1, 49, 112
3, 182848, Note_on_c, 1, 49, 0
3, 182848, Note_on_c, 1, 37, 0
3, 182880, Note_on_c, 1, 40, 106
3, 182880, Note_on_c, 1, 52, 106
3, 183130, Note_on_c, 1, 52, 0
3, 183131, Note_on_c, 1, 40, 0
3, 183360, Note_on_c, 1, 54, 66
3, 183360, Note_on_c, 1, 50, 66
3, 183464, Note_on_c, 1, 54, 0
3, 183480, Note_on_c, 1, 59, 73
3, 183584, Note_on_c, 1, 59, 0
3, 183600, Note_on_c, 1, 54, 74
3, 183704, Note_on_c, 1, 54, 0
3, 183720, Note_on_c, 1, 59, 76
3, 183780, Note_on_c, 1, 50, 0
3, 183824, Note_on_c, 1, 59, 0
3, 183840, Note_on_c, 1, 54, 67
3, 183840, Note_on_c, 1, 50, 67
3, 183944, Note_on_c, 1, 54, 0
3, 183960, Note_on_c, 1, 59, 76
3, 184064, Note_on_c, 1, 59, 0
3, 184080, Note_on_c, 1, 54, 76
3, 184184, Note_on_c, 1, 54, 0
3, 184200, Note_on_c, 1, 59, 76
3, 184260, Note_on_c, 1, 50, 0
3, 184304, Note_on_c, 1, 59, 0
3, 184320, Note_on_c, 1, 55, 67
3, 184320, Note_on_c, 1, 52, 67
3, 184424, Note_on_c, 1, 55, 0
3, 184440, Note_on_c, 1, 59, 73
3, 184544, Note_on_c, 1, 59, 0
3, 184560, Note_on_c, 1, 55, 73
3, 184664, Note_on_c, 1, 55, 0
3, 184680, Note_on_c, 1, 59, 73
3, 184740, Note_on_c, 1, 52, 0
3, 184784, Note_on_c, 1, 59, 0
3, 184800, Note_on_c, 1, 55, 63
3, 184800, Note_on_c, 1, 52, 63
3, 184904, Note_on_c, 1, 55, 0
3, 184920, Note_on_c, 1, 59, 73
3, 185024, Note_on_c, 1, 59, 0
3, 185040, Note_on_c, 1, 55, 73
3, 185144, Note_on_c, 1, 55, 0
3, 185160, Note_on_c, 1, 61, 73
3, 185220, Note_on_c, 1, 52, 0
3, 185264, Note_on_c, 1, 61, 0
3, 185280, Note_on_c, 1, 59, 63
3, 185280, Note_on_c, 1, 54, 63
3, 185384, Note_on_c, 1, 59, 0
3, 185400, Note_on_c, 1, 62, 74
3, 185504, Note_on_c, 1, 62, 0
3, 185520, Note_on_c, 1, 59, 74
3, 185624, Note_on_c, 1, 59, 0
3, 185640, Note_on_c, 1, 62, 74
3, 185744, Note_on_c, 1, 62, 0
3, 185760, Note_on_c, 1, 61, 74
3, 185864, Note_on_c, 1, 61, 0
3, 185880, Note_on_c, 1, 64, 74
3, 185984, Note_on_c, 1, 64, 0
3, 186000, Note_on_c, 1, 61, 74
3, 186104, Note_on_c, 1, 61, 0
3, 186120, Note_on_c, 1, 64, 74
3, 186180, Note_on_c, 1, 54, 0
3, 186224, Note_on_c, 1, 64, 0
3, 186240, Note_on_c, 1, 58, 67
3, 186240, Note_on_c, 1, 55, 67
3, 186344, Note_on_c, 1, 58, 0
3, 186360, Note_on_c, 1, 61, 74
3, 186464, Note_on_c, 1, 61, 0
3, 186480, Note_on_c, 1, 58, 78
3, 186584, Note_on_c, 1, 58, 0
3, 186600, Note_on_c, 1, 61, 78
3, 186704, Note_on_c, 1, 61, 0
3, 186720, Note_on_c, 1, 59, 78
3, 186824, Note_on_c, 1, 59, 0
3, 186840, Note_on_c, 1, 62, 78
3, 186944, Note_on_c, 1, 62, 0
3, 186960, Note_on_c, 1, 59, 78
3, 187064, Note_on_c, 1, 59, 0
3, 187080, Note_on_c, 1, 62, 73
3, 187140, Note_on_c, 1, 55, 0
3, 187184, Note_on_c, 1, 62, 0
3, 187200, Note_on_c, 1, 50, 70
3, 187304, Note_on_c, 1, 50, 0
3, 187320, Note_on_c, 1, 59, 73
3, 187424, Note_on_c, 1, 59, 0
3, 187440, Note_on_c, 1, 54, 76
3, 187544, Note_on_c, 1, 54, 0
3, 187560, Note_on_c, 1, 59, 76
3, 187664, Note_on_c, 1, 59, 0
3, 187680, Note_on_c, 1, 50, 76
3, 187784, Note_on_c, 1, 50, 0
3, 187800, Note_on_c, 1, 59, 73
3, 187904, Note_on_c, 1, 59, 0
3, 187920, Note_on_c, 1, 54, 73
3, 188024, Note_on_c, 1, 54, 0
3, 188040, Note_on_c, 1, 59, 73
3, 188144, Note_on_c, 1, 59, 0
3, 188160, Note_on_c, 1, 52, 73
3, 188264, Note_on_c, 1, 52, 0
3, 188280, Note_on_c, 1, 60, 73
3, 188384, Note_on_c, 1, 60, 0
3, 188400, Note_on_c, 1, 55, 73
3, 188504, Note_on_c, 1, 55, 0
3, 188520, Note_on_c, 1, 60, 73
3, 188624, Note_on_c, 1, 60, 0
3, 188640, Note_on_c, 1, 52, 73
3, 188744, Note_on_c, 1, 52, 0
3, 188760, Note_on_c, 1, 60, 73
3, 188864, Note_on_c, 1, 60, 0
3, 188880, Note_on_c, 1, 55, 73
3, 188984, Note_on_c, 1, 55, 0
3, 189000, Note_on_c, 1, 60, 73
3, 189104, Note_on_c, 1, 60, 0
3, 189120, Note_on_c, 1, 62, 82
3, 189120, Note_on_c, 1, 54, 82
3, 189600, Note_on_c, 1, 64, 82
3, 189608, Note_on_c, 1, 62, 0
3, 190072, Note_on_c, 1, 54, 0
3, 190080, Note_on_c, 1, 64, 0
3, 190080, Note_on_c, 1, 59, 85
3, 190560, Note_on_c, 1, 54, 84
3, 190580, Note_on_c, 1, 59, 0
3, 190800, Note_on_c, 1, 62, 82
3, 190808, Note_on_c, 1, 54, 0
3, 191008, Note_on_c, 1, 62, 0
3, 191040, Note_on_c, 1, 64, 69
3, 191040, Note_on_c, 1, 61, 69
3, 191144, Note_on_c, 1, 61, 0
3, 191160, Note_on_c, 1, 54, 72
3, 191248, Note_on_c, 1, 64, 0
3, 191264, Note_on_c, 1, 54, 0
3, 191280, Note_on_c, 1, 64, 73
3, 191280, Note_on_c, 1, 61, 73
3, 191384, Note_on_c, 1, 61, 0
3, 191400, Note_on_c, 1, 54, 73
3, 191488, Note_on_c, 1, 64, 0
3, 191504, Note_on_c, 1, 54, 0
3, 191520, Note_on_c, 1, 64, 73
3, 191520, Note_on_c, 1, 61, 73
3, 191624, Note_on_c, 1, 61, 0
3, 191640, Note_on_c, 1, 54, 73
3, 191728, Note_on_c, 1, 64, 0
3, 191744, Note_on_c, 1, 54, 0
3, 191760, Note_on_c, 1, 64, 73
3, 191760, Note_on_c, 1, 61, 73
3, 191864, Note_on_c, 1, 61, 0
3, 191880, Note_on_c, 1, 54, 74
3, 191968, Note_on_c, 1, 64, 0
3, 191984, Note_on_c, 1, 54, 0
3, 192000, Note_on_c, 1, 59, 85
3, 192480, Note_on_c, 1, 54, 86
3, 192504, Note_on_c, 1, 59, 0
3, 192720, Note_on_c, 1, 62, 84
3, 192744, Note_on_c, 1, 54, 0
3, 192928, Note_on_c, 1, 62, 0
3, 192960, Note_on_c, 1, 64, 73
3, 192960, Note_on_c, 1, 61, 73
3, 193064, Note_on_c, 1, 61, 0
3, 193080, Note_on_c, 1, 54, 70
3, 193168, Note_on_c, 1, 64, 0
3, 193184, Note_on_c, 1, 54, 0
3, 193200, Note_on_c, 1, 64, 70
3, 193200, Note_on_c, 1, 61, 70
3, 193304, Note_on_c, 1, 61, 0
3, 193320, Note_on_c, 1, 54, 71
3, 193408, Note_on_c, 1, 64, 0
3, 193424, Note_on_c, 1, 54, 0
3, 193440, Note_on_c, 1, 64, 74
3, 193440, Note_on_c, 1, 61, 74
3, 193544, Note_on_c, 1, 61, 0
3, 193560, Note_on_c, 1, 54, 74
3, 193648, Note_on_c, 1, 64, 0
3, 193664, Note_on_c, 1, 54, 0
3, 193680, Note_on_c, 1, 64, 76
3, 193680, Note_on_c, 1, 61, 76
3, 193784, Note_on_c, 1, 61, 0
3, 193800, Note_on_c, 1, 54, 76
3, 193888, Note_on_c, 1, 64, 0
3, 193904, Note_on_c, 1, 54, 0
3, 193920, Note_on_c, 1, 54, 83
3, 193920, Note_on_c, 1, 61, 83
3, 193920, Note_on_c, 1, 64, 83
3, 194400, Note_on_c, 1, 59, 82
3, 194400, Note_on_c, 1, 62, 82
3, 194420, Note_on_c, 1, 64, 0
3, 194420, Note_on_c, 1, 61, 0
3, 194424, Note_on_c, 1, 54, 0
3, 194608, Note_on_c, 1, 62, 0
3, 194608, Note_on_c, 1, 59, 0
3, 194880, Note_on_c, 1, 59, 82
3, 194880, Note_on_c, 1, 62, 82
3, 195360, Note_on_c, 1, 57, 76
3, 195360, Note_on_c, 1, 63, 76
3, 195360, Note_on_c, 1, 66, 76
3, 195376, Note_on_c, 1, 62, 0
3, 195388, Note_on_c, 1, 59, 0
3, 195568, Note_on_c, 1, 63, 0
3, 195568, Note_on_c, 1, 57, 0
3, 195568, Note_on_c, 1, 66, 0
3, 195840, Note_on_c, 1, 56, 77
3, 195840, Note_on_c, 1, 59, 77
3, 195840, Note_on_c, 1, 64, 77
3, 196308, Note_on_c, 1, 59, 0
3, 196320, Note_on_c, 1, 55, 71
3, 196320, Note_on_c, 1, 59, 71
3, 196320, Note_on_c, 1, 65, 71
3, 196340, Note_on_c, 1, 56, 0
3, 196344, Note_on_c, 1, 64, 0
3, 196528, Note_on_c, 1, 59, 0
3, 196528, Note_on_c, 1, 55, 0
3, 196528, Note_on_c, 1, 65, 0
3, 196800, Note_on_c, 1, 42, 82
3, 197288, Note_on_c, 1, 42, 0
3, 197760, Note_on_c, 1, 58, 70
3, 197760, Note_on_c, 1, 61, 70
3, 197760, Note_on_c, 1, 54, 70
3, 197880, Note_on_c, 1, 59, 73
3, 197880, Note_on_c, 1, 62, 73
3, 197885, Note_on_c, 1, 61, 0
3, 197885, Note_on_c, 1, 58, 0
3, 198000, Note_on_c, 1, 58, 73
3, 198000, Note_on_c, 1, 61, 73
3, 198005, Note_on_c, 1, 59, 0
3, 198005, Note_on_c, 1, 62, 0
3, 198120, Note_on_c, 1, 59, 73
3, 198120, Note_on_c, 1, 62, 73
3, 198125, Note_on_c, 1, 58, 0
3, 198125, Note_on_c, 1, 61, 0
3, 198240, Note_on_c, 1, 61, 79
3, 198240, Note_on_c, 1, 64, 79
3, 198245, Note_on_c, 1, 59, 0
3, 198245, Note_on_c, 1, 62, 0
3, 198360, Note_on_c, 1, 59, 73
3, 198360, Note_on_c, 1, 62, 73
3, 198365, Note_on_c, 1, 61, 0
3, 198365, Note_on_c, 1, 64, 0
3, 198480, Note_on_c, 1, 61, 73
3, 198480, Note_on_c, 1, 64, 73
3, 198485, Note_on_c, 1, 59, 0
3, 198485, Note_on_c, 1, 62, 0
3, 198584, Note_on_c, 1, 61, 0
3, 198600, Note_on_c, 1, 58, 71
3, 198600, Note_on_c, 1, 61, 71
3, 198605, Note_on_c, 1, 64, 0
3, 198720, Note_on_c, 1, 59, 73
3, 198720, Note_on_c, 1, 62, 73
3, 198725, Note_on_c, 1, 61, 0
3, 198725, Note_on_c, 1, 58, 0
3, 199200, Note_on_c, 1, 62, 0
3, 199204, Note_on_c, 1, 59, 0
3, 199204, Note_on_c, 1, 54, 0
3, 199680, Note_on_c, 1, 58, 69
3, 199680, Note_on_c, 1, 61, 69
3, 199680, Note_on_c, 1, 54, 69
3, 199800, Note_on_c, 1, 59, 67
3, 199800, Note_on_c, 1, 62, 67
3, 199805, Note_on_c, 1, 61, 0
3, 199805, Note_on_c, 1, 58, 0
3, 199920, Note_on_c, 1, 58, 73
3, 199920, Note_on_c, 1, 61, 73
3, 199925, Note_on_c, 1, 59, 0
3, 199925, Note_on_c, 1, 62, 0
3, 200040, Note_on_c, 1, 59, 76
3, 200040, Note_on_c, 1, 62, 76
3, 200045, Note_on_c, 1, 58, 0
3, 200045, Note_on_c, 1, 61, 0
3, 200160, Note_on_c, 1, 61, 79
3, 200160, Note_on_c, 1, 64, 79
3, 200165, Note_on_c, 1, 59, 0
3, 200165, Note_on_c, 1, 62, 0
3, 200280, Note_on_c, 1, 59, 77
3, 200280, Note_on_c, 1, 62, 77
3, 200285, Note_on_c, 1, 61, 0
3, 200285, Note_on_c, 1, 64, 0
3, 200400, Note_on_c, 1, 61, 76
3, 200400, Note_on_c, 1, 64, 76
3, 200405, Note_on_c, 1, 59, 0
3, 200405, Note_on_c, 1, 62, 0
3, 200492, Note_on_c, 1, 61, 0
3, 200520, Note_on_c, 1, 58, 70
3, 200520, Note_on_c, 1, 61, 70
3, 200525, Note_on_c, 1, 64, 0
3, 200640, Note_on_c, 1, 59, 73
3, 200640, Note_on_c, 1, 62, 73
3, 200645, Note_on_c, 1, 61, 0
3, 200645, Note_on_c, 1, 58, 0
3, 201120, Note_on_c, 1, 62, 0
3, 201128, Note_on_c, 1, 59, 0
3, 201128, Note_on_c, 1, 54, 0
3, 201600, Note_on_c, 1, 58, 72
3, 201600, Note_on_c, 1, 61, 72
3, 201600, Note_on_c, 1, 54, 72
3, 201720, Note_on_c, 1, 59, 73
3, 201720, Note_on_c, 1, 62, 73
3, 201725, Note_on_c, 1, 61, 0
3, 201725, Note_on_c, 1, 58, 0
3, 201840, Note_on_c, 1, 58, 73
3, 201840, Note_on_c, 1, 61, 73
3, 201845, Note_on_c, 1, 59, 0
3, 201845, Note_on_c, 1, 62, 0
3, 201960, Note_on_c, 1, 59, 73
3, 201960, Note_on_c, 1, 62, 73
3, 201965, Note_on_c, 1, 58, 0
3, 201965, Note_on_c, 1, 61, 0
3, 202080, Note_on_c, 1, 61, 79
3, 202080, Note_on_c, 1, 64, 79
3, 202085, Note_on_c, 1, 59, 0
3, 202085, Note_on_c, 1, 62, 0
3, 202200, Note_on_c, 1, 59, 75
3, 202200, Note_on_c, 1, 62, 75
3, 202205, Note_on_c, 1, 61, 0
3, 202205, Note_on_c, 1, 64, 0
3, 202320, Note_on_c, 1, 61, 75
3, 202320, Note_on_c, 1, 64, 75
3, 202325, Note_on_c, 1, 59, 0
3, 202325, Note_on_c, 1, 62, 0
3, 202420, Note_on_c, 1, 61, 0
3, 202440, Note_on_c, 1, 58, 71
3, 202440, Note_on_c, 1, 61, 71
3, 202445, Note_on_c, 1, 64, 0
3, 202560, Note_on_c, 1, 59, 73
3, 202560, Note_on_c, 1, 47, 73
3, 202565, Note_on_c, 1, 61, 0
3, 202565, Note_on_c, 1, 58, 0
3, 202568, Note_on_c, 1, 54, 0
3, 202920, Note_on_c, 1, 57, 74
3, 202940, Note_on_c, 1, 59, 0
3, 203040, Note_on_c, 1, 56, 76
3, 203062, Note_on_c, 1, 57, 0
3, 203160, Note_on_c, 1, 52, 76
3, 203182, Note_on_c, 1, 56, 0
3, 203280, Note_on_c, 1, 58, 73
3, 203302, Note_on_c, 1, 52, 0
3, 203400, Note_on_c, 1, 54, 70
3, 203422, Note_on_c, 1, 58, 0
3, 203460, Note_on_c, 1, 47, 0
3, 203484, Note_on_c, 1, 54, 0
3, 203520, Note_on_c, 1, 59, 73
3, 203520, Note_on_c, 1, 47, 73
3, 203880, Note_on_c, 1, 57, 71
3, 203904, Note_on_c, 1, 59, 0
3, 204000, Note_on_c, 1, 56, 73
3, 204022, Note_on_c, 1, 57, 0
3, 204120, Note_on_c, 1, 52, 75
3, 204142, Note_on_c, 1, 56, 0
3, 204240, Note_on_c, 1, 58, 75
3, 204262, Note_on_c, 1, 52, 0
3, 204360, Note_on_c, 1, 54, 75
3, 204382, Note_on_c, 1, 58, 0
3, 204464, Note_on_c, 1, 54, 0
3, 204480, Note_on_c, 1, 59, 72
3, 204584, Note_on_c, 1, 59, 0
3, 204584, Note_on_c, 1, 47, 0
3, 204600, Note_on_c, 1, 61, 74
3, 204600, Note_on_c, 1, 54, 74
3, 204720, Note_on_c, 1, 63, 76
3, 204720, Note_on_c, 1, 59, 76
3, 204742, Note_on_c, 1, 54, 0
3, 204742, Note_on_c, 1, 61, 0
3, 204840, Note_on_c, 1, 61, 79
3, 204840, Note_on_c, 1, 54, 79
3, 204862, Note_on_c, 1, 63, 0
3, 204862, Note_on_c, 1, 59, 0
3, 204960, Note_on_c, 1, 63, 81
3, 204960, Note_on_c, 1, 59, 81
3, 204982, Note_on_c, 1, 61, 0
3, 204982, Note_on_c, 1, 54, 0
3, 205080, Note_on_c, 1, 61, 81
3, 205080, Note_on_c, 1, 54, 81
3, 205102, Note_on_c, 1, 63, 0
3, 205102, Note_on_c, 1, 59, 0
3, 205200, Note_on_c, 1, 63, 77
3, 205200, Note_on_c, 1, 59, 77
3, 205222, Note_on_c, 1, 61, 0
3, 205222, Note_on_c, 1, 54, 0
3, 205320, Note_on_c, 1, 61, 74
3, 205320, Note_on_c, 1, 54, 74
3, 205342, Note_on_c, 1, 63, 0
3, 205342, Note_on_c, 1, 59, 0
3, 205440, Note_on_c, 1, 59, 74
3, 205440, Note_on_c, 1, 63, 74
3, 205462, Note_on_c, 1, 61, 0
3, 205462, Note_on_c, 1, 54, 0
3, 205648, Note_on_c, 1, 59, 0
3, 205648, Note_on_c, 1, 63, 0
3, 205800, Note_on_c, 1, 42, 71
3, 205800, Note_on_c, 1, 49, 71
3, 205904, Note_on_c, 1, 49, 0
3, 205904, Note_on_c, 1, 42, 0
3, 205920, Note_on_c, 1, 47, 71
3, 205920, Note_on_c, 1, 51, 71
3, 206128, Note_on_c, 1, 51, 0
3, 206128, Note_on_c, 1, 47, 0
3, 206280, Note_on_c, 1, 42, 65
3, 206384, Note_on_c, 1, 42, 0
3, 206400, Note_on_c, 1, 35, 65
3, 206608, Note_on_c, 1, 35, 0
3, 206608, End_track
4, 0, Start_track
4, 0, MIDI_port, 0
4, 0, Title_t, "Mozart Adagio in Bb"
4, 0, End_track
5, 0, Start_track
5, 0, MIDI_port, 0
5, 0, Title_t, "Sequenced Feb. 1994"
5, 0, End_track
6, 0, Start_track
6, 0, MIDI_port, 0
6, 0, Title_t, "by Troppo, AOL"
6, 0, End_track
0, 0, End_of_file