0, 0, Header, 1, 11, 480
1, 0, Start_track
1, 0, Title_t, "untitled"
1, 0, Time_signature, 2, 2, 24, 8
1, 0, Key_signature, 0, "major"
1, 0, Tempo, 1500000
1, 58560, Tempo, 1621622
1, 59520, Tempo, 1666667
1, 60480, Tempo, 1578947
1, 61440, Tempo, 1666667
1, 61680, Tempo, 1621622
1, 61920, Tempo, 1578947
1, 62160, Tempo, 1538462
1, 62400, Tempo, 1500000
1, 91200, Tempo, 1621622
1, 92160, Tempo, 1875000
1, 93120, Tempo, 1500000
1, 93120, End_track
2, 0, Start_track
2, 0, Program_c, 0, 68
2, 0, Control_c, 0, 7, 92
2, 0, Control_c, 0, 10, 64
2, 0, Control_c, 0, 91, 80
2, 15360, Note_on_c, 0, 77, 58
2, 15360, Note_on_c, 0, 74, 58
2, 16128, Note_on_c, 0, 74, 0
2, 16320, Note_on_c, 0, 75, 58
2, 17040, Note_on_c, 0, 75, 0
2, 17040, Note_on_c, 0, 72, 58
2, 17232, Note_on_c, 0, 72, 0
2, 17280, Note_on_c, 0, 70, 58
2, 18000, Note_on_c, 0, 70, 0
2, 18000, Note_on_c, 0, 74, 58
2, 18192, Note_on_c, 0, 74, 0
2, 18240, Note_on_c, 0, 75, 58
2, 18960, Note_on_c, 0, 75, 0
2, 18960, Note_on_c, 0, 72, 58
2, 19152, Note_on_c, 0, 72, 0
2, 19200, Note_on_c, 0, 70, 58
2, 19332, Note_on_c, 0, 70, 0
2, 19332, Note_on_c, 0, 77, 0
2, 38400, Note_on_c, 0, 77, 58
2, 38400, Note_on_c, 0, 74, 58
2, 39168, Note_on_c, 0, 74, 0
2, 39360, Note_on_c, 0, 75, 58
2, 40080, Note_on_c, 0, 75, 0
2, 40080, Note_on_c, 0, 72, 58
2, 40272, Note_on_c, 0, 72, 0
2, 40320, Note_on_c, 0, 70, 58
2, 41040, Note_on_c, 0, 70, 0
2, 41040, Note_on_c, 0, 74, 58
2, 41232, Note_on_c, 0, 74, 0
2, 41280, Note_on_c, 0, 75, 58
2, 42000, Note_on_c, 0, 75, 0
2, 42000, Note_on_c, 0, 72, 58
2, 42192, Note_on_c, 0, 72, 0
2, 42240, Note_on_c, 0, 70, 58
2, 42372, Note_on_c, 0, 70, 0
2, 42372, Note_on_c, 0, 77, 0
2, 57840, Note_on_c, 0, 80, 70
2, 57840, Note_on_c, 0, 77, 70
2, 58032, Note_on_c, 0, 77, 0
2, 58032, Note_on_c, 0, 80, 0
2, 58080, Note_on_c, 0, 80, 70
2, 58080, Note_on_c, 0, 77, 70
2, 58272, Note_on_c, 0, 77, 0
2, 58272, Note_on_c, 0, 80, 0
2, 58320, Note_on_c, 0, 80, 70
2, 58320, Note_on_c, 0, 77, 70
2, 58512, Note_on_c, 0, 77, 0
2, 58512, Note_on_c, 0, 80, 0
2, 58560, Note_on_c, 0, 77, 70
2, 58560, Note_on_c, 0, 80, 70
2, 59520, Note_on_c, 0, 80, 0
2, 59520, Note_on_c, 0, 77, 0
2, 59520, Note_on_c, 0, 74, 92
2, 59520, Note_on_c, 0, 80, 92
2, 59976, Note_on_c, 0, 80, 0
2, 59976, Note_on_c, 0, 74, 0
2, 69360, Note_on_c, 0, 67, 70
2, 69360, Note_on_c, 0, 70, 70
2, 69504, Note_on_c, 0, 70, 0
2, 69504, Note_on_c, 0, 67, 0
2, 69600, Note_on_c, 0, 70, 70
2, 69600, Note_on_c, 0, 67, 70
2, 69984, Note_on_c, 0, 67, 0
2, 69984, Note_on_c, 0, 70, 0
2, 70320, Note_on_c, 0, 70, 70
2, 70320, Note_on_c, 0, 67, 70
2, 70464, Note_on_c, 0, 67, 0
2, 70464, Note_on_c, 0, 70, 0
2, 70560, Note_on_c, 0, 67, 70
2, 70560, Note_on_c, 0, 70, 70
2, 70944, Note_on_c, 0, 70, 0
2, 70944, Note_on_c, 0, 67, 0
2, 71280, Note_on_c, 0, 69, 70
2, 71280, Note_on_c, 0, 65, 70
2, 71424, Note_on_c, 0, 65, 0
2, 71424, Note_on_c, 0, 69, 0
2, 71520, Note_on_c, 0, 69, 70
2, 71520, Note_on_c, 0, 72, 70
2, 71904, Note_on_c, 0, 72, 0
2, 71904, Note_on_c, 0, 69, 0
2, 72240, Note_on_c, 0, 69, 70
2, 72240, Note_on_c, 0, 72, 70
2, 72384, Note_on_c, 0, 72, 0
2, 72384, Note_on_c, 0, 69, 0
2, 72480, Note_on_c, 0, 69, 70
2, 72480, Note_on_c, 0, 72, 70
2, 72864, Note_on_c, 0, 72, 0
2, 72864, Note_on_c, 0, 69, 0
2, 73200, Note_on_c, 0, 67, 70
2, 73200, Note_on_c, 0, 71, 70
2, 73344, Note_on_c, 0, 71, 0
2, 73344, Note_on_c, 0, 67, 0
2, 73440, Note_on_c, 0, 74, 70
2, 73440, Note_on_c, 0, 71, 70
2, 73824, Note_on_c, 0, 71, 0
2, 73824, Note_on_c, 0, 74, 0
2, 74160, Note_on_c, 0, 72, 70
2, 74160, Note_on_c, 0, 75, 70
2, 74304, Note_on_c, 0, 75, 0
2, 74304, Note_on_c, 0, 72, 0
2, 74400, Note_on_c, 0, 70, 70
2, 74400, Note_on_c, 0, 75, 70
2, 74784, Note_on_c, 0, 75, 0
2, 74784, Note_on_c, 0, 70, 0
2, 75120, Note_on_c, 0, 68, 70
2, 75120, Note_on_c, 0, 72, 70
2, 75276, Note_on_c, 0, 72, 0
2, 75276, Note_on_c, 0, 68, 0
2, 75360, Note_on_c, 0, 74, 70
2, 75360, Note_on_c, 0, 70, 70
2, 75744, Note_on_c, 0, 70, 0
2, 75744, Note_on_c, 0, 74, 0
2, 76080, Note_on_c, 0, 70, 70
2, 76080, Note_on_c, 0, 75, 70
2, 76464, Note_on_c, 0, 70, 0
2, 76560, Note_on_c, 0, 75, 0
2, 76560, Note_on_c, 0, 69, 70
2, 76560, Note_on_c, 0, 75, 70
2, 76752, Note_on_c, 0, 75, 0
2, 76752, Note_on_c, 0, 69, 0
2, 76800, Note_on_c, 0, 74, 70
2, 76800, Note_on_c, 0, 70, 70
2, 77184, Note_on_c, 0, 70, 0
2, 77184, Note_on_c, 0, 74, 0
2, 84480, Note_on_c, 0, 67, 58
2, 84480, Note_on_c, 0, 70, 58
2, 85440, Note_on_c, 0, 67, 0
2, 85440, Note_on_c, 0, 68, 58
2, 86400, Note_on_c, 0, 68, 0
2, 86400, Note_on_c, 0, 67, 58
2, 87360, Note_on_c, 0, 67, 0
2, 87360, Note_on_c, 0, 68, 58
2, 88320, Note_on_c, 0, 68, 0
2, 88320, Note_on_c, 0, 67, 58
2, 88704, Note_on_c, 0, 67, 0
2, 88704, Note_on_c, 0, 70, 0
2, 88704, End_track
3, 0, Start_track
3, 0, Program_c, 1, 70
3, 0, Control_c, 1, 7, 92
3, 0, Control_c, 1, 10, 72
3, 0, Control_c, 1, 91, 80
3, 1200, Note_on_c, 1, 55, 80
3, 1200, Note_on_c, 1, 58, 100
3, 1440, Note_on_c, 1, 58, 0
3, 1440, Note_on_c, 1, 55, 0
3, 1440, Note_on_c, 1, 56, 70
3, 1440, Note_on_c, 1, 53, 70
3, 1680, Note_on_c, 1, 53, 0
3, 1680, Note_on_c, 1, 56, 0
3, 1680, Note_on_c, 1, 51, 70
3, 1680, Note_on_c, 1, 55, 70
3, 1872, Note_on_c, 1, 55, 0
3, 1872, Note_on_c, 1, 51, 0
3, 2160, Note_on_c, 1, 60, 90
3, 2160, Note_on_c, 1, 56, 70
3, 2400, Note_on_c, 1, 56, 0
3, 2400, Note_on_c, 1, 60, 0
3, 2400, Note_on_c, 1, 58, 70
3, 2400, Note_on_c, 1, 55, 70
3, 2640, Note_on_c, 1, 55, 0
3, 2640, Note_on_c, 1, 58, 0
3, 2640, Note_on_c, 1, 53, 70
3, 2640, Note_on_c, 1, 56, 70
3, 2832, Note_on_c, 1, 56, 0
3, 2832, Note_on_c, 1, 53, 0
3, 3120, Note_on_c, 1, 56, 90
3, 3120, Note_on_c, 1, 53, 70
3, 3360, Note_on_c, 1, 53, 0
3, 3360, Note_on_c, 1, 56, 0
3, 3360, Note_on_c, 1, 55, 70
3, 3360, Note_on_c, 1, 51, 70
3, 3600, Note_on_c, 1, 51, 0
3, 3600, Note_on_c, 1, 55, 0
3, 3600, Note_on_c, 1, 53, 70
3, 3600, Note_on_c, 1, 50, 70
3, 3792, Note_on_c, 1, 50, 0
3, 3792, Note_on_c, 1, 53, 0
3, 4080, Note_on_c, 1, 55, 70
3, 4080, Note_on_c, 1, 58, 90
3, 4320, Note_on_c, 1, 58, 0
3, 4320, Note_on_c, 1, 55, 0
3, 4320, Note_on_c, 1, 53, 70
3, 4320, Note_on_c, 1, 56, 70
3, 4560, Note_on_c, 1, 56, 0
3, 4560, Note_on_c, 1, 53, 0
3, 4560, Note_on_c, 1, 55, 70
3, 4560, Note_on_c, 1, 51, 70
3, 4752, Note_on_c, 1, 51, 0
3, 4752, Note_on_c, 1, 55, 0
3, 5040, Note_on_c, 1, 60, 90
3, 5040, Note_on_c, 1, 56, 70
3, 5280, Note_on_c, 1, 56, 0
3, 5280, Note_on_c, 1, 60, 0
3, 5280, Note_on_c, 1, 60, 70
3, 5280, Note_on_c, 1, 63, 70
3, 5520, Note_on_c, 1, 63, 0
3, 5520, Note_on_c, 1, 60, 0
3, 5520, Note_on_c, 1, 58, 70
3, 5520, Note_on_c, 1, 62, 70
3, 5712, Note_on_c, 1, 62, 0
3, 5712, Note_on_c, 1, 58, 0
3, 6000, Note_on_c, 1, 63, 90
3, 6000, Note_on_c, 1, 55, 70
3, 6480, Note_on_c, 1, 55, 0
3, 6480, Note_on_c, 1, 63, 0
3, 6480, Note_on_c, 1, 63, 70
3, 6480, Note_on_c, 1, 56, 70
3, 6672, Note_on_c, 1, 56, 0
3, 6672, Note_on_c, 1, 63, 0
3, 6960, Note_on_c, 1, 58, 90
3, 6960, Note_on_c, 1, 55, 70
3, 7200, Note_on_c, 1, 55, 0
3, 7200, Note_on_c, 1, 58, 0
3, 7200, Note_on_c, 1, 51, 70
3, 7200, Note_on_c, 1, 55, 70
3, 7440, Note_on_c, 1, 55, 0
3, 7440, Note_on_c, 1, 51, 0
3, 7440, Note_on_c, 1, 56, 70
3, 7440, Note_on_c, 1, 53, 70
3, 7680, Note_on_c, 1, 53, 0
3, 7680, Note_on_c, 1, 56, 0
3, 7920, Note_on_c, 1, 55, 70
3, 7920, Note_on_c, 1, 58, 90
3, 8160, Note_on_c, 1, 58, 0
3, 8160, Note_on_c, 1, 55, 0
3, 8160, Note_on_c, 1, 53, 70
3, 8160, Note_on_c, 1, 56, 70
3, 8400, Note_on_c, 1, 56, 0
3, 8400, Note_on_c, 1, 53, 0
3, 8400, Note_on_c, 1, 51, 70
3, 8400, Note_on_c, 1, 55, 70
3, 8592, Note_on_c, 1, 55, 0
3, 8592, Note_on_c, 1, 51, 0
3, 8640, Note_on_c, 1, 53, 70
3, 9024, Note_on_c, 1, 53, 0
3, 9600, Note_on_c, 1, 65, 70
3, 9600, Note_on_c, 1, 53, 70
3, 10080, Note_on_c, 1, 53, 0
3, 10560, Note_on_c, 1, 53, 70
3, 10800, Note_on_c, 1, 65, 0
3, 10800, Note_on_c, 1, 63, 70
3, 10992, Note_on_c, 1, 63, 0
3, 10992, Note_on_c, 1, 53, 0
3, 11040, Note_on_c, 1, 61, 70
3, 11280, Note_on_c, 1, 61, 0
3, 11280, Note_on_c, 1, 60, 80
3, 11400, Note_on_c, 1, 60, 0
3, 11400, Note_on_c, 1, 58, 80
3, 11496, Note_on_c, 1, 58, 0
3, 11520, Note_on_c, 1, 58, 80
3, 11760, Note_on_c, 1, 58, 0
3, 11760, Note_on_c, 1, 53, 70
3, 11760, Note_on_c, 1, 57, 70
3, 12000, Note_on_c, 1, 57, 0
3, 12000, Note_on_c, 1, 53, 0
3, 12000, Note_on_c, 1, 54, 70
3, 12192, Note_on_c, 1, 54, 0
3, 12240, Note_on_c, 1, 64, 70
3, 12240, Note_on_c, 1, 54, 70
3, 12480, Note_on_c, 1, 54, 0
3, 12480, Note_on_c, 1, 64, 0
3, 12480, Note_on_c, 1, 53, 70
3, 12480, Note_on_c, 1, 65, 70
3, 12672, Note_on_c, 1, 65, 0
3, 12672, Note_on_c, 1, 53, 0
3, 13200, Note_on_c, 1, 54, 70
3, 13200, Note_on_c, 1, 64, 70
3, 13440, Note_on_c, 1, 64, 0
3, 13440, Note_on_c, 1, 54, 0
3, 13440, Note_on_c, 1, 53, 70
3, 13440, Note_on_c, 1, 65, 70
3, 13632, Note_on_c, 1, 65, 0
3, 13632, Note_on_c, 1, 53, 0
3, 15360, Note_on_c, 1, 58, 58
3, 16128, Note_on_c, 1, 58, 0
3, 16320, Note_on_c, 1, 60, 58
3, 17040, Note_on_c, 1, 60, 0
3, 17040, Note_on_c, 1, 63, 58
3, 17232, Note_on_c, 1, 63, 0
3, 17280, Note_on_c, 1, 62, 58
3, 17760, Note_on_c, 1, 62, 0
3, 17760, Note_on_c, 1, 58, 58
3, 18144, Note_on_c, 1, 58, 0
3, 18240, Note_on_c, 1, 60, 58
3, 18960, Note_on_c, 1, 60, 0
3, 18960, Note_on_c, 1, 63, 58
3, 19152, Note_on_c, 1, 63, 0
3, 19200, Note_on_c, 1, 62, 58
3, 19332, Note_on_c, 1, 62, 0
3, 19440, Note_on_c, 1, 50, 58
3, 19680, Note_on_c, 1, 50, 0
3, 19680, Note_on_c, 1, 51, 58
3, 19872, Note_on_c, 1, 51, 0
3, 20400, Note_on_c, 1, 52, 70
3, 20640, Note_on_c, 1, 52, 0
3, 20640, Note_on_c, 1, 53, 70
3, 20832, Note_on_c, 1, 53, 0
3, 21360, Note_on_c, 1, 54, 70
3, 21600, Note_on_c, 1, 54, 0
3, 21600, Note_on_c, 1, 55, 70
3, 21792, Note_on_c, 1, 55, 0
3, 22320, Note_on_c, 1, 52, 70
3, 22560, Note_on_c, 1, 52, 0
3, 22560, Note_on_c, 1, 53, 70
3, 22752, Note_on_c, 1, 53, 0
3, 23280, Note_on_c, 1, 45, 70
3, 23520, Note_on_c, 1, 45, 0
3, 23520, Note_on_c, 1, 46, 70
3, 23712, Note_on_c, 1, 46, 0
3, 24240, Note_on_c, 1, 55, 70
3, 24240, Note_on_c, 1, 58, 90
3, 24480, Note_on_c, 1, 58, 0
3, 24480, Note_on_c, 1, 55, 0
3, 24480, Note_on_c, 1, 56, 70
3, 24480, Note_on_c, 1, 53, 70
3, 24720, Note_on_c, 1, 53, 0
3, 24720, Note_on_c, 1, 56, 0
3, 24720, Note_on_c, 1, 51, 70
3, 24720, Note_on_c, 1, 55, 70
3, 24912, Note_on_c, 1, 55, 0
3, 24912, Note_on_c, 1, 51, 0
3, 25200, Note_on_c, 1, 60, 90
3, 25200, Note_on_c, 1, 56, 70
3, 25440, Note_on_c, 1, 56, 0
3, 25440, Note_on_c, 1, 60, 0
3, 25440, Note_on_c, 1, 58, 70
3, 25440, Note_on_c, 1, 55, 70
3, 25680, Note_on_c, 1, 55, 0
3, 25680, Note_on_c, 1, 58, 0
3, 25680, Note_on_c, 1, 53, 70
3, 25680, Note_on_c, 1, 56, 70
3, 25872, Note_on_c, 1, 56, 0
3, 25872, Note_on_c, 1, 53, 0
3, 26160, Note_on_c, 1, 56, 90
3, 26160, Note_on_c, 1, 53, 70
3, 26400, Note_on_c, 1, 53, 0
3, 26400, Note_on_c, 1, 56, 0
3, 26400, Note_on_c, 1, 55, 70
3, 26400, Note_on_c, 1, 51, 70
3, 26640, Note_on_c, 1, 51, 0
3, 26640, Note_on_c, 1, 55, 0
3, 26640, Note_on_c, 1, 53, 70
3, 26640, Note_on_c, 1, 50, 70
3, 26832, Note_on_c, 1, 50, 0
3, 26832, Note_on_c, 1, 53, 0
3, 27120, Note_on_c, 1, 55, 70
3, 27120, Note_on_c, 1, 58, 90
3, 27360, Note_on_c, 1, 58, 0
3, 27360, Note_on_c, 1, 55, 0
3, 27360, Note_on_c, 1, 53, 70
3, 27360, Note_on_c, 1, 56, 70
3, 27600, Note_on_c, 1, 56, 0
3, 27600, Note_on_c, 1, 53, 0
3, 27600, Note_on_c, 1, 55, 70
3, 27600, Note_on_c, 1, 51, 70
3, 27792, Note_on_c, 1, 51, 0
3, 27792, Note_on_c, 1, 55, 0
3, 28080, Note_on_c, 1, 60, 90
3, 28080, Note_on_c, 1, 56, 70
3, 28320, Note_on_c, 1, 56, 0
3, 28320, Note_on_c, 1, 60, 0
3, 28320, Note_on_c, 1, 60, 70
3, 28320, Note_on_c, 1, 63, 70
3, 28560, Note_on_c, 1, 63, 0
3, 28560, Note_on_c, 1, 60, 0
3, 28560, Note_on_c, 1, 58, 70
3, 28560, Note_on_c, 1, 62, 70
3, 28752, Note_on_c, 1, 62, 0
3, 28752, Note_on_c, 1, 58, 0
3, 29040, Note_on_c, 1, 63, 90
3, 29040, Note_on_c, 1, 55, 70
3, 29520, Note_on_c, 1, 55, 0
3, 29520, Note_on_c, 1, 63, 0
3, 29520, Note_on_c, 1, 63, 70
3, 29520, Note_on_c, 1, 56, 70
3, 29712, Note_on_c, 1, 56, 0
3, 29712, Note_on_c, 1, 63, 0
3, 30000, Note_on_c, 1, 58, 90
3, 30000, Note_on_c, 1, 55, 70
3, 30240, Note_on_c, 1, 55, 0
3, 30240, Note_on_c, 1, 58, 0
3, 30240, Note_on_c, 1, 51, 70
3, 30240, Note_on_c, 1, 55, 70
3, 30480, Note_on_c, 1, 55, 0
3, 30480, Note_on_c, 1, 51, 0
3, 30480, Note_on_c, 1, 56, 70
3, 30480, Note_on_c, 1, 53, 70
3, 30720, Note_on_c, 1, 53, 0
3, 30720, Note_on_c, 1, 56, 0
3, 30960, Note_on_c, 1, 55, 70
3, 30960, Note_on_c, 1, 58, 90
3, 31200, Note_on_c, 1, 58, 0
3, 31200, Note_on_c, 1, 55, 0
3, 31200, Note_on_c, 1, 53, 70
3, 31200, Note_on_c, 1, 56, 70
3, 31440, Note_on_c, 1, 56, 0
3, 31440, Note_on_c, 1, 53, 0
3, 31440, Note_on_c, 1, 51, 70
3, 31440, Note_on_c, 1, 55, 70
3, 31632, Note_on_c, 1, 55, 0
3, 31632, Note_on_c, 1, 51, 0
3, 31680, Note_on_c, 1, 53, 70
3, 32064, Note_on_c, 1, 53, 0
3, 32640, Note_on_c, 1, 65, 70
3, 32640, Note_on_c, 1, 53, 70
3, 33120, Note_on_c, 1, 53, 0
3, 33600, Note_on_c, 1, 53, 70
3, 33840, Note_on_c, 1, 65, 0
3, 33840, Note_on_c, 1, 63, 70
3, 34032, Note_on_c, 1, 63, 0
3, 34032, Note_on_c, 1, 53, 0
3, 34080, Note_on_c, 1, 61, 70
3, 34320, Note_on_c, 1, 61, 0
3, 34320, Note_on_c, 1, 60, 80
3, 34440, Note_on_c, 1, 60, 0
3, 34440, Note_on_c, 1, 58, 80
3, 34536, Note_on_c, 1, 58, 0
3, 34560, Note_on_c, 1, 58, 80
3, 34800, Note_on_c, 1, 58, 0
3, 34800, Note_on_c, 1, 53, 70
3, 34800, Note_on_c, 1, 57, 70
3, 35040, Note_on_c, 1, 57, 0
3, 35040, Note_on_c, 1, 53, 0
3, 35040, Note_on_c, 1, 54, 70
3, 35232, Note_on_c, 1, 54, 0
3, 35280, Note_on_c, 1, 64, 70
3, 35280, Note_on_c, 1, 54, 70
3, 35520, Note_on_c, 1, 54, 0
3, 35520, Note_on_c, 1, 64, 0
3, 35520, Note_on_c, 1, 53, 70
3, 35520, Note_on_c, 1, 65, 70
3, 35712, Note_on_c, 1, 65, 0
3, 35712, Note_on_c, 1, 53, 0
3, 36240, Note_on_c, 1, 54, 70
3, 36240, Note_on_c, 1, 64, 70
3, 36480, Note_on_c, 1, 64, 0
3, 36480, Note_on_c, 1, 54, 0
3, 36480, Note_on_c, 1, 53, 70
3, 36480, Note_on_c, 1, 65, 70
3, 36672, Note_on_c, 1, 65, 0
3, 36672, Note_on_c, 1, 53, 0
3, 38400, Note_on_c, 1, 58, 58
3, 39168, Note_on_c, 1, 58, 0
3, 39360, Note_on_c, 1, 60, 58
3, 40080, Note_on_c, 1, 60, 0
3, 40080, Note_on_c, 1, 63, 58
3, 40272, Note_on_c, 1, 63, 0
3, 40320, Note_on_c, 1, 62, 58
3, 40800, Note_on_c, 1, 62, 0
3, 40800, Note_on_c, 1, 58, 58
3, 41184, Note_on_c, 1, 58, 0
3, 41280, Note_on_c, 1, 60, 58
3, 42000, Note_on_c, 1, 60, 0
3, 42000, Note_on_c, 1, 63, 58
3, 42192, Note_on_c, 1, 63, 0
3, 42240, Note_on_c, 1, 62, 58
3, 42372, Note_on_c, 1, 62, 0
3, 42480, Note_on_c, 1, 50, 58
3, 42720, Note_on_c, 1, 50, 0
3, 42720, Note_on_c, 1, 51, 58
3, 42912, Note_on_c, 1, 51, 0
3, 43440, Note_on_c, 1, 52, 70
3, 43680, Note_on_c, 1, 52, 0
3, 43680, Note_on_c, 1, 53, 70
3, 43872, Note_on_c, 1, 53, 0
3, 44400, Note_on_c, 1, 54, 70
3, 44640, Note_on_c, 1, 54, 0
3, 44640, Note_on_c, 1, 55, 70
3, 44832, Note_on_c, 1, 55, 0
3, 45360, Note_on_c, 1, 52, 70
3, 45600, Note_on_c, 1, 52, 0
3, 45600, Note_on_c, 1, 53, 70
3, 45792, Note_on_c, 1, 53, 0
3, 46320, Note_on_c, 1, 45, 70
3, 46560, Note_on_c, 1, 45, 0
3, 46560, Note_on_c, 1, 46, 70
3, 46752, Note_on_c, 1, 46, 0
3, 47280, Note_on_c, 1, 52, 70
3, 47520, Note_on_c, 1, 52, 0
3, 47520, Note_on_c, 1, 53, 70
3, 47712, Note_on_c, 1, 53, 0
3, 48240, Note_on_c, 1, 53, 70
3, 48480, Note_on_c, 1, 53, 0
3, 48480, Note_on_c, 1, 52, 70
3, 48672, Note_on_c, 1, 52, 0
3, 49200, Note_on_c, 1, 61, 70
3, 49440, Note_on_c, 1, 61, 0
3, 49440, Note_on_c, 1, 59, 70
3, 49680, Note_on_c, 1, 59, 0
3, 49680, Note_on_c, 1, 60, 70
3, 49872, Note_on_c, 1, 60, 0
3, 50160, Note_on_c, 1, 56, 70
3, 50400, Note_on_c, 1, 56, 0
3, 50400, Note_on_c, 1, 53, 70
3, 50784, Note_on_c, 1, 53, 0
3, 51120, Note_on_c, 1, 50, 70
3, 51360, Note_on_c, 1, 50, 0
3, 51360, Note_on_c, 1, 51, 70
3, 51552, Note_on_c, 1, 51, 0
3, 52080, Note_on_c, 1, 51, 70
3, 52320, Note_on_c, 1, 51, 0
3, 52320, Note_on_c, 1, 50, 70
3, 52512, Note_on_c, 1, 50, 0
3, 53040, Note_on_c, 1, 51, 70
3, 53280, Note_on_c, 1, 51, 0
3, 53280, Note_on_c, 1, 55, 70
3, 53520, Note_on_c, 1, 55, 0
3, 53520, Note_on_c, 1, 58, 70
3, 53712, Note_on_c, 1, 58, 0
3, 53760, Note_on_c, 1, 51, 70
3, 54144, Note_on_c, 1, 51, 0
3, 54240, Note_on_c, 1, 51, 70
3, 54396, Note_on_c, 1, 51, 0
3, 54480, Note_on_c, 1, 50, 70
3, 54636, Note_on_c, 1, 50, 0
3, 54720, Note_on_c, 1, 48, 70
3, 55104, Note_on_c, 1, 48, 0
3, 55200, Note_on_c, 1, 48, 70
3, 55356, Note_on_c, 1, 48, 0
3, 55440, Note_on_c, 1, 53, 70
3, 55596, Note_on_c, 1, 53, 0
3, 55680, Note_on_c, 1, 46, 70
3, 56064, Note_on_c, 1, 46, 0
3, 57840, Note_on_c, 1, 65, 70
3, 57840, Note_on_c, 1, 62, 70
3, 58032, Note_on_c, 1, 62, 0
3, 58032, Note_on_c, 1, 65, 0
3, 58080, Note_on_c, 1, 62, 70
3, 58080, Note_on_c, 1, 65, 70
3, 58272, Note_on_c, 1, 65, 0
3, 58272, Note_on_c, 1, 62, 0
3, 58320, Note_on_c, 1, 62, 70
3, 58320, Note_on_c, 1, 65, 70
3, 58512, Note_on_c, 1, 65, 0
3, 58512, Note_on_c, 1, 62, 0
3, 58560, Note_on_c, 1, 65, 70
3, 58560, Note_on_c, 1, 62, 70
3, 59520, Note_on_c, 1, 62, 0
3, 59520, Note_on_c, 1, 65, 0
3, 59520, Note_on_c, 1, 62, 92
3, 59520, Note_on_c, 1, 65, 92
3, 59976, Note_on_c, 1, 65, 0
3, 59976, Note_on_c, 1, 62, 0
3, 62640, Note_on_c, 1, 55, 70
3, 62640, Note_on_c, 1, 58, 90
3, 62880, Note_on_c, 1, 58, 0
3, 62880, Note_on_c, 1, 55, 0
3, 62880, Note_on_c, 1, 56, 70
3, 62880, Note_on_c, 1, 53, 70
3, 63120, Note_on_c, 1, 53, 0
3, 63120, Note_on_c, 1, 56, 0
3, 63120, Note_on_c, 1, 51, 70
3, 63120, Note_on_c, 1, 55, 70
3, 63312, Note_on_c, 1, 55, 0
3, 63312, Note_on_c, 1, 51, 0
3, 63600, Note_on_c, 1, 60, 90
3, 63600, Note_on_c, 1, 56, 70
3, 63840, Note_on_c, 1, 56, 0
3, 63840, Note_on_c, 1, 60, 0
3, 63840, Note_on_c, 1, 58, 70
3, 63840, Note_on_c, 1, 55, 70
3, 64080, Note_on_c, 1, 55, 0
3, 64080, Note_on_c, 1, 58, 0
3, 64080, Note_on_c, 1, 53, 70
3, 64080, Note_on_c, 1, 56, 70
3, 64272, Note_on_c, 1, 56, 0
3, 64272, Note_on_c, 1, 53, 0
3, 64560, Note_on_c, 1, 53, 70
3, 64560, Note_on_c, 1, 56, 90
3, 64800, Note_on_c, 1, 56, 0
3, 64800, Note_on_c, 1, 53, 0
3, 64800, Note_on_c, 1, 55, 70
3, 64800, Note_on_c, 1, 51, 70
3, 65040, Note_on_c, 1, 51, 0
3, 65040, Note_on_c, 1, 55, 0
3, 65040, Note_on_c, 1, 53, 70
3, 65040, Note_on_c, 1, 50, 70
3, 65232, Note_on_c, 1, 50, 0
3, 65232, Note_on_c, 1, 53, 0
3, 65520, Note_on_c, 1, 55, 70
3, 65520, Note_on_c, 1, 58, 90
3, 65760, Note_on_c, 1, 58, 0
3, 65760, Note_on_c, 1, 55, 0
3, 65760, Note_on_c, 1, 53, 70
3, 65760, Note_on_c, 1, 56, 70
3, 66000, Note_on_c, 1, 56, 0
3, 66000, Note_on_c, 1, 53, 0
3, 66000, Note_on_c, 1, 55, 70
3, 66000, Note_on_c, 1, 51, 70
3, 66192, Note_on_c, 1, 51, 0
3, 66192, Note_on_c, 1, 55, 0
3, 66480, Note_on_c, 1, 60, 90
3, 66480, Note_on_c, 1, 56, 70
3, 66720, Note_on_c, 1, 56, 0
3, 66720, Note_on_c, 1, 60, 0
3, 66720, Note_on_c, 1, 60, 70
3, 66720, Note_on_c, 1, 63, 70
3, 66960, Note_on_c, 1, 63, 0
3, 66960, Note_on_c, 1, 60, 0
3, 66960, Note_on_c, 1, 58, 70
3, 66960, Note_on_c, 1, 62, 70
3, 67152, Note_on_c, 1, 62, 0
3, 67152, Note_on_c, 1, 58, 0
3, 67440, Note_on_c, 1, 55, 70
3, 67440, Note_on_c, 1, 63, 90
3, 67920, Note_on_c, 1, 63, 0
3, 67920, Note_on_c, 1, 55, 0
3, 67920, Note_on_c, 1, 63, 70
3, 67920, Note_on_c, 1, 56, 70
3, 68112, Note_on_c, 1, 56, 0
3, 68112, Note_on_c, 1, 63, 0
3, 68400, Note_on_c, 1, 58, 90
3, 68400, Note_on_c, 1, 55, 70
3, 68640, Note_on_c, 1, 55, 0
3, 68640, Note_on_c, 1, 58, 0
3, 68640, Note_on_c, 1, 51, 70
3, 68640, Note_on_c, 1, 55, 70
3, 68880, Note_on_c, 1, 55, 0
3, 68880, Note_on_c, 1, 51, 0
3, 68880, Note_on_c, 1, 56, 70
3, 68880, Note_on_c, 1, 53, 70
3, 69120, Note_on_c, 1, 53, 0
3, 69120, Note_on_c, 1, 56, 0
3, 69360, Note_on_c, 1, 51, 70
3, 69504, Note_on_c, 1, 51, 0
3, 69600, Note_on_c, 1, 39, 70
3, 69984, Note_on_c, 1, 39, 0
3, 70320, Note_on_c, 1, 52, 70
3, 70464, Note_on_c, 1, 52, 0
3, 70560, Note_on_c, 1, 40, 70
3, 70944, Note_on_c, 1, 40, 0
3, 71280, Note_on_c, 1, 53, 70
3, 71424, Note_on_c, 1, 53, 0
3, 71520, Note_on_c, 1, 41, 70
3, 71904, Note_on_c, 1, 41, 0
3, 72240, Note_on_c, 1, 54, 70
3, 72384, Note_on_c, 1, 54, 0
3, 72480, Note_on_c, 1, 42, 70
3, 72864, Note_on_c, 1, 42, 0
3, 73200, Note_on_c, 1, 55, 70
3, 73344, Note_on_c, 1, 55, 0
3, 73440, Note_on_c, 1, 43, 70
3, 73824, Note_on_c, 1, 43, 0
3, 74160, Note_on_c, 1, 48, 70
3, 74304, Note_on_c, 1, 48, 0
3, 74400, Note_on_c, 1, 43, 70
3, 74784, Note_on_c, 1, 43, 0
3, 75120, Note_on_c, 1, 56, 70
3, 75276, Note_on_c, 1, 56, 0
3, 75360, Note_on_c, 1, 44, 70
3, 75744, Note_on_c, 1, 44, 0
3, 76080, Note_on_c, 1, 55, 70
3, 76236, Note_on_c, 1, 55, 0
3, 76320, Note_on_c, 1, 48, 70
3, 76704, Note_on_c, 1, 48, 0
3, 76800, Note_on_c, 1, 46, 70
3, 76956, Note_on_c, 1, 46, 0
3, 77040, Note_on_c, 1, 62, 70
3, 77040, Note_on_c, 1, 53, 70
3, 77280, Note_on_c, 1, 53, 0
3, 77280, Note_on_c, 1, 62, 0
3, 77280, Note_on_c, 1, 51, 70
3, 77280, Note_on_c, 1, 60, 70
3, 77520, Note_on_c, 1, 60, 0
3, 77520, Note_on_c, 1, 51, 0
3, 77520, Note_on_c, 1, 58, 70
3, 77520, Note_on_c, 1, 50, 70
3, 77760, Note_on_c, 1, 50, 0
3, 77760, Note_on_c, 1, 58, 0
3, 77760, Note_on_c, 1, 46, 70
3, 78144, Note_on_c, 1, 46, 0
3, 78720, Note_on_c, 1, 58, 70
3, 78720, Note_on_c, 1, 46, 70
3, 79104, Note_on_c, 1, 46, 0
3, 79680, Note_on_c, 1, 46, 70
3, 79920, Note_on_c, 1, 58, 0
3, 79920, Note_on_c, 1, 62, 70
3, 80112, Note_on_c, 1, 62, 0
3, 80112, Note_on_c, 1, 46, 0
3, 80160, Note_on_c, 1, 63, 70
3, 80400, Note_on_c, 1, 63, 0
3, 80400, Note_on_c, 1, 65, 70
3, 80520, Note_on_c, 1, 65, 0
3, 80520, Note_on_c, 1, 63, 70
3, 80616, Note_on_c, 1, 63, 0
3, 80640, Note_on_c, 1, 63, 70
3, 80880, Note_on_c, 1, 63, 0
3, 80880, Note_on_c, 1, 58, 70
3, 80880, Note_on_c, 1, 62, 70
3, 81072, Note_on_c, 1, 62, 0
3, 81120, Note_on_c, 1, 58, 0
3, 81120, Note_on_c, 1, 57, 70
3, 81312, Note_on_c, 1, 57, 0
3, 81360, Note_on_c, 1, 57, 70
3, 81360, Note_on_c, 1, 66, 70
3, 81552, Note_on_c, 1, 57, 0
3, 81600, Note_on_c, 1, 66, 0
3, 81600, Note_on_c, 1, 58, 70
3, 81600, Note_on_c, 1, 65, 70
3, 81984, Note_on_c, 1, 65, 0
3, 81984, Note_on_c, 1, 58, 0
3, 82320, Note_on_c, 1, 47, 70
3, 82320, Note_on_c, 1, 63, 70
3, 82512, Note_on_c, 1, 47, 0
3, 82560, Note_on_c, 1, 63, 0
3, 82560, Note_on_c, 1, 46, 70
3, 82560, Note_on_c, 1, 62, 70
3, 82944, Note_on_c, 1, 62, 0
3, 82944, Note_on_c, 1, 46, 0
3, 84480, Note_on_c, 1, 63, 58
3, 85392, Note_on_c, 1, 63, 0
3, 85440, Note_on_c, 1, 65, 58
3, 86160, Note_on_c, 1, 65, 0
3, 86160, Note_on_c, 1, 62, 58
3, 86352, Note_on_c, 1, 62, 0
3, 86400, Note_on_c, 1, 63, 58
3, 87312, Note_on_c, 1, 63, 0
3, 87360, Note_on_c, 1, 65, 58
3, 88080, Note_on_c, 1, 65, 0
3, 88080, Note_on_c, 1, 62, 58
3, 88272, Note_on_c, 1, 62, 0
3, 88320, Note_on_c, 1, 63, 70
3, 88452, Note_on_c, 1, 63, 0
3, 88560, Note_on_c, 1, 43, 70
3, 88800, Note_on_c, 1, 43, 0
3, 88800, Note_on_c, 1, 44, 70
3, 88992, Note_on_c, 1, 44, 0
3, 89520, Note_on_c, 1, 45, 70
3, 89760, Note_on_c, 1, 45, 0
3, 89760, Note_on_c, 1, 46, 70
3, 89952, Note_on_c, 1, 46, 0
3, 90480, Note_on_c, 1, 47, 70
3, 90720, Note_on_c, 1, 47, 0
3, 90720, Note_on_c, 1, 48, 70
3, 90912, Note_on_c, 1, 48, 0
3, 91440, Note_on_c, 1, 45, 70
3, 91680, Note_on_c, 1, 45, 0
3, 91680, Note_on_c, 1, 46, 70
3, 91872, Note_on_c, 1, 46, 0
3, 92400, Note_on_c, 1, 38, 70
3, 92640, Note_on_c, 1, 38, 0
3, 92640, Note_on_c, 1, 39, 70
3, 92832, Note_on_c, 1, 39, 0
3, 92832, End_track
4, 0, Start_track
4, 0, Program_c, 2, 60
4, 0, Control_c, 2, 7, 109
4, 0, Control_c, 2, 10, 91
4, 0, Control_c, 2, 91, 70
4, 0, End_track
5, 0, Start_track
5, 0, Program_c, 3, 60
5, 0, Control_c, 3, 7, 109
5, 0, Control_c, 3, 10, 61
5, 0, Control_c, 3, 91, 80
5, 15360, Note_on_c, 3, 65, 58
5, 15360, Note_on_c, 3, 58, 58
5, 16128, Note_on_c, 3, 58, 0
5, 17280, Note_on_c, 3, 58, 58
5, 18048, Note_on_c, 3, 58, 0
5, 19200, Note_on_c, 3, 58, 58
5, 19392, Note_on_c, 3, 58, 0
5, 19392, Note_on_c, 3, 65, 0
5, 38400, Note_on_c, 3, 65, 58
5, 38400, Note_on_c, 3, 58, 58
5, 39168, Note_on_c, 3, 58, 0
5, 40320, Note_on_c, 3, 58, 58
5, 41088, Note_on_c, 3, 58, 0
5, 42240, Note_on_c, 3, 58, 58
5, 42432, Note_on_c, 3, 58, 0
5, 42432, Note_on_c, 3, 65, 0
5, 57840, Note_on_c, 3, 58, 70
5, 57840, Note_on_c, 3, 46, 70
5, 58032, Note_on_c, 3, 46, 0
5, 58032, Note_on_c, 3, 58, 0
5, 58080, Note_on_c, 3, 46, 70
5, 58080, Note_on_c, 3, 58, 70
5, 58272, Note_on_c, 3, 58, 0
5, 58272, Note_on_c, 3, 46, 0
5, 58320, Note_on_c, 3, 58, 70
5, 58320, Note_on_c, 3, 46, 70
5, 58512, Note_on_c, 3, 46, 0
5, 58512, Note_on_c, 3, 58, 0
5, 58560, Note_on_c, 3, 58, 70
5, 58560, Note_on_c, 3, 46, 70
5, 59520, Note_on_c, 3, 46, 0
5, 59520, Note_on_c, 3, 58, 0
5, 59520, Note_on_c, 3, 58, 80
5, 59520, Note_on_c, 3, 46, 92
5, 59976, Note_on_c, 3, 46, 0
5, 59976, Note_on_c, 3, 58, 0
5, 69360, Note_on_c, 3, 51, 70
5, 69360, Note_on_c, 3, 63, 70
5, 69504, Note_on_c, 3, 63, 0
5, 69504, Note_on_c, 3, 51, 0
5, 69600, Note_on_c, 3, 63, 70
5, 69600, Note_on_c, 3, 51, 70
5, 69984, Note_on_c, 3, 51, 0
5, 69984, Note_on_c, 3, 63, 0
5, 70320, Note_on_c, 3, 67, 70
5, 70320, Note_on_c, 3, 58, 70
5, 70464, Note_on_c, 3, 58, 0
5, 70464, Note_on_c, 3, 67, 0
5, 70560, Note_on_c, 3, 67, 70
5, 70560, Note_on_c, 3, 58, 70
5, 70944, Note_on_c, 3, 58, 0
5, 70944, Note_on_c, 3, 67, 0
5, 71280, Note_on_c, 3, 65, 70
5, 71424, Note_on_c, 3, 65, 0
5, 71520, Note_on_c, 3, 65, 70
5, 71904, Note_on_c, 3, 65, 0
5, 73200, Note_on_c, 3, 67, 70
5, 73200, Note_on_c, 3, 55, 70
5, 73344, Note_on_c, 3, 55, 0
5, 73344, Note_on_c, 3, 67, 0
5, 73440, Note_on_c, 3, 55, 70
5, 73440, Note_on_c, 3, 67, 70
5, 73824, Note_on_c, 3, 67, 0
5, 73824, Note_on_c, 3, 55, 0
5, 74160, Note_on_c, 3, 55, 70
5, 74160, Note_on_c, 3, 67, 70
5, 74304, Note_on_c, 3, 67, 0
5, 74304, Note_on_c, 3, 55, 0
5, 74400, Note_on_c, 3, 63, 70
5, 74400, Note_on_c, 3, 58, 70
5, 74784, Note_on_c, 3, 58, 0
5, 74784, Note_on_c, 3, 63, 0
5, 75120, Note_on_c, 3, 63, 70
5, 75276, Note_on_c, 3, 63, 0
5, 75360, Note_on_c, 3, 65, 70
5, 75360, Note_on_c, 3, 58, 70
5, 75744, Note_on_c, 3, 58, 0
5, 75744, Note_on_c, 3, 65, 0
5, 76080, Note_on_c, 3, 63, 70
5, 76080, Note_on_c, 3, 67, 70
5, 76560, Note_on_c, 3, 67, 0
5, 76560, Note_on_c, 3, 63, 0
5, 76560, Note_on_c, 3, 65, 70
5, 76752, Note_on_c, 3, 65, 0
5, 76800, Note_on_c, 3, 58, 70
5, 76800, Note_on_c, 3, 65, 70
5, 77184, Note_on_c, 3, 65, 0
5, 77184, Note_on_c, 3, 58, 0
5, 84480, Note_on_c, 3, 63, 58
5, 84480, Note_on_c, 3, 55, 58
5, 85392, Note_on_c, 3, 55, 0
5, 85392, Note_on_c, 3, 63, 0
5, 85440, Note_on_c, 3, 56, 58
5, 85440, Note_on_c, 3, 65, 58
5, 86352, Note_on_c, 3, 65, 0
5, 86352, Note_on_c, 3, 56, 0
5, 86400, Note_on_c, 3, 63, 58
5, 86400, Note_on_c, 3, 55, 58
5, 87312, Note_on_c, 3, 55, 0
5, 87312, Note_on_c, 3, 63, 0
5, 87360, Note_on_c, 3, 65, 58
5, 87360, Note_on_c, 3, 56, 58
5, 88272, Note_on_c, 3, 56, 0
5, 88272, Note_on_c, 3, 65, 0
5, 88320, Note_on_c, 3, 63, 58
5, 88320, Note_on_c, 3, 55, 58
5, 88704, Note_on_c, 3, 55, 0
5, 88704, Note_on_c, 3, 63, 0
5, 88704, End_track
6, 0, Start_track
6, 0, Program_c, 4, 48
6, 0, Control_c, 4, 7, 125
6, 0, Control_c, 4, 10, 36
6, 0, Control_c, 4, 91, 81
6, 720, Note_on_c, 4, 70, 70
6, 960, Note_on_c, 4, 70, 0
6, 960, Note_on_c, 4, 68, 70
6, 1200, Note_on_c, 4, 68, 0
6, 1200, Note_on_c, 4, 67, 70
6, 1392, Note_on_c, 4, 67, 0
6, 1680, Note_on_c, 4, 72, 70
6, 1920, Note_on_c, 4, 72, 0
6, 1920, Note_on_c, 4, 70, 70
6, 2160, Note_on_c, 4, 70, 0
6, 2160, Note_on_c, 4, 68, 70
6, 2352, Note_on_c, 4, 68, 0
6, 2640, Note_on_c, 4, 68, 70
6, 2880, Note_on_c, 4, 68, 0
6, 2880, Note_on_c, 4, 67, 70
6, 3120, Note_on_c, 4, 67, 0
6, 3120, Note_on_c, 4, 65, 70
6, 3312, Note_on_c, 4, 65, 0
6, 3600, Note_on_c, 4, 70, 70
6, 3840, Note_on_c, 4, 70, 0
6, 3840, Note_on_c, 4, 68, 70
6, 4080, Note_on_c, 4, 68, 0
6, 4080, Note_on_c, 4, 67, 70
6, 4272, Note_on_c, 4, 67, 0
6, 4560, Note_on_c, 4, 75, 70
6, 4692, Note_on_c, 4, 75, 0
6, 4800, Note_on_c, 4, 75, 70
6, 5040, Note_on_c, 4, 75, 0
6, 5040, Note_on_c, 4, 65, 70
6, 5232, Note_on_c, 4, 65, 0
6, 5520, Note_on_c, 4, 70, 70
6, 5652, Note_on_c, 4, 70, 0
6, 5760, Note_on_c, 4, 68, 70
6, 6000, Note_on_c, 4, 68, 0
6, 6000, Note_on_c, 4, 67, 70
6, 6192, Note_on_c, 4, 67, 0
6, 6480, Note_on_c, 4, 72, 70
6, 6612, Note_on_c, 4, 72, 0
6, 6720, Note_on_c, 4, 72, 70
6, 6960, Note_on_c, 4, 72, 0
6, 6960, Note_on_c, 4, 70, 70
6, 7152, Note_on_c, 4, 70, 0
6, 7440, Note_on_c, 4, 62, 70
6, 7680, Note_on_c, 4, 62, 0
6, 7680, Note_on_c, 4, 63, 70
6, 8064, Note_on_c, 4, 63, 0
6, 8400, Note_on_c, 4, 70, 70
6, 8532, Note_on_c, 4, 70, 0
6, 8640, Note_on_c, 4, 69, 70
6, 8880, Note_on_c, 4, 69, 0
6, 8880, Note_on_c, 4, 72, 70
6, 9072, Note_on_c, 4, 72, 0
6, 9360, Note_on_c, 4, 73, 70
6, 9480, Note_on_c, 4, 73, 0
6, 9480, Note_on_c, 4, 70, 70
6, 9576, Note_on_c, 4, 70, 0
6, 9600, Note_on_c, 4, 69, 70
6, 9840, Note_on_c, 4, 69, 0
6, 9840, Note_on_c, 4, 72, 70
6, 10032, Note_on_c, 4, 72, 0
6, 10320, Note_on_c, 4, 73, 70
6, 10560, Note_on_c, 4, 73, 0
6, 10560, Note_on_c, 4, 72, 70
6, 10752, Note_on_c, 4, 72, 0
6, 10800, Note_on_c, 4, 77, 70
6, 11280, Note_on_c, 4, 77, 0
6, 11280, Note_on_c, 4, 75, 70
6, 11400, Note_on_c, 4, 75, 0
6, 11400, Note_on_c, 4, 73, 70
6, 11496, Note_on_c, 4, 73, 0
6, 11520, Note_on_c, 4, 73, 70
6, 11760, Note_on_c, 4, 73, 0
6, 11760, Note_on_c, 4, 72, 70
6, 11952, Note_on_c, 4, 72, 0
6, 12240, Note_on_c, 4, 82, 70
6, 12480, Note_on_c, 4, 82, 0
6, 12480, Note_on_c, 4, 81, 70
6, 12612, Note_on_c, 4, 81, 0
6, 12720, Note_on_c, 4, 77, 70
6, 12852, Note_on_c, 4, 77, 0
6, 13200, Note_on_c, 4, 82, 70
6, 13440, Note_on_c, 4, 82, 0
6, 13440, Note_on_c, 4, 81, 70
6, 13572, Note_on_c, 4, 81, 0
6, 13680, Note_on_c, 4, 77, 70
6, 13812, Note_on_c, 4, 77, 0
6, 14400, Note_on_c, 4, 75, 70
6, 14532, Note_on_c, 4, 75, 0
6, 14640, Note_on_c, 4, 72, 70
6, 14772, Note_on_c, 4, 72, 0
6, 16080, Note_on_c, 4, 70, 80
6, 16140, Note_on_c, 4, 70, 0
6, 16140, Note_on_c, 4, 74, 80
6, 16200, Note_on_c, 4, 74, 0
6, 16200, Note_on_c, 4, 77, 80
6, 16260, Note_on_c, 4, 77, 0
6, 16260, Note_on_c, 4, 82, 80
6, 16320, Note_on_c, 4, 82, 0
6, 16320, Note_on_c, 4, 81, 80
6, 16392, Note_on_c, 4, 81, 0
6, 16440, Note_on_c, 4, 81, 80
6, 16512, Note_on_c, 4, 81, 0
6, 16560, Note_on_c, 4, 81, 80
6, 16632, Note_on_c, 4, 81, 0
6, 16680, Note_on_c, 4, 81, 80
6, 16752, Note_on_c, 4, 81, 0
6, 16800, Note_on_c, 4, 81, 80
6, 16872, Note_on_c, 4, 81, 0
6, 16920, Note_on_c, 4, 81, 80
6, 16992, Note_on_c, 4, 81, 0
6, 17040, Note_on_c, 4, 84, 80
6, 17100, Note_on_c, 4, 84, 0
6, 17100, Note_on_c, 4, 81, 80
6, 17160, Note_on_c, 4, 81, 0
6, 17160, Note_on_c, 4, 77, 80
6, 17220, Note_on_c, 4, 77, 0
6, 17220, Note_on_c, 4, 75, 80
6, 17280, Note_on_c, 4, 75, 0
6, 17280, Note_on_c, 4, 74, 80
6, 17352, Note_on_c, 4, 74, 0
6, 17400, Note_on_c, 4, 74, 80
6, 17472, Note_on_c, 4, 74, 0
6, 17520, Note_on_c, 4, 74, 80
6, 17592, Note_on_c, 4, 74, 0
6, 17640, Note_on_c, 4, 74, 80
6, 17712, Note_on_c, 4, 74, 0
6, 17760, Note_on_c, 4, 74, 80
6, 17832, Note_on_c, 4, 74, 0
6, 17880, Note_on_c, 4, 74, 80
6, 17952, Note_on_c, 4, 74, 0
6, 18000, Note_on_c, 4, 70, 80
6, 18060, Note_on_c, 4, 70, 0
6, 18060, Note_on_c, 4, 74, 80
6, 18120, Note_on_c, 4, 74, 0
6, 18120, Note_on_c, 4, 77, 80
6, 18180, Note_on_c, 4, 77, 0
6, 18180, Note_on_c, 4, 82, 80
6, 18240, Note_on_c, 4, 82, 0
6, 18240, Note_on_c, 4, 81, 80
6, 18312, Note_on_c, 4, 81, 0
6, 18360, Note_on_c, 4, 81, 80
6, 18432, Note_on_c, 4, 81, 0
6, 18480, Note_on_c, 4, 81, 80
6, 18552, Note_on_c, 4, 81, 0
6, 18600, Note_on_c, 4, 81, 80
6, 18672, Note_on_c, 4, 81, 0
6, 18720, Note_on_c, 4, 81, 80
6, 18792, Note_on_c, 4, 81, 0
6, 18840, Note_on_c, 4, 81, 80
6, 18912, Note_on_c, 4, 81, 0
6, 18960, Note_on_c, 4, 84, 80
6, 19020, Note_on_c, 4, 84, 0
6, 19020, Note_on_c, 4, 81, 80
6, 19080, Note_on_c, 4, 81, 0
6, 19080, Note_on_c, 4, 77, 80
6, 19140, Note_on_c, 4, 77, 0
6, 19140, Note_on_c, 4, 75, 80
6, 19200, Note_on_c, 4, 75, 0
6, 19200, Note_on_c, 4, 74, 70
6, 19332, Note_on_c, 4, 74, 0
6, 19920, Note_on_c, 4, 82, 70
6, 20040, Note_on_c, 4, 82, 0
6, 20040, Note_on_c, 4, 79, 70
6, 20160, Note_on_c, 4, 79, 0
6, 20160, Note_on_c, 4, 77, 70
6, 20292, Note_on_c, 4, 77, 0
6, 20880, Note_on_c, 4, 75, 70
6, 21000, Note_on_c, 4, 75, 0
6, 21000, Note_on_c, 4, 72, 70
6, 21120, Note_on_c, 4, 72, 0
6, 21120, Note_on_c, 4, 70, 58
6, 21252, Note_on_c, 4, 70, 0
6, 21840, Note_on_c, 4, 82, 58
6, 21960, Note_on_c, 4, 82, 0
6, 21960, Note_on_c, 4, 79, 70
6, 22080, Note_on_c, 4, 79, 0
6, 22080, Note_on_c, 4, 77, 58
6, 22212, Note_on_c, 4, 77, 0
6, 22800, Note_on_c, 4, 75, 70
6, 22920, Note_on_c, 4, 75, 0
6, 22920, Note_on_c, 4, 72, 70
6, 23040, Note_on_c, 4, 72, 0
6, 23040, Note_on_c, 4, 70, 58
6, 23172, Note_on_c, 4, 70, 0
6, 23760, Note_on_c, 4, 70, 58
6, 24000, Note_on_c, 4, 70, 0
6, 24000, Note_on_c, 4, 68, 70
6, 24240, Note_on_c, 4, 68, 0
6, 24240, Note_on_c, 4, 67, 70
6, 24432, Note_on_c, 4, 67, 0
6, 24720, Note_on_c, 4, 72, 70
6, 24960, Note_on_c, 4, 72, 0
6, 24960, Note_on_c, 4, 70, 70
6, 25200, Note_on_c, 4, 70, 0
6, 25200, Note_on_c, 4, 68, 70
6, 25392, Note_on_c, 4, 68, 0
6, 25680, Note_on_c, 4, 68, 70
6, 25920, Note_on_c, 4, 68, 0
6, 25920, Note_on_c, 4, 67, 70
6, 26160, Note_on_c, 4, 67, 0
6, 26160, Note_on_c, 4, 65, 70
6, 26352, Note_on_c, 4, 65, 0
6, 26640, Note_on_c, 4, 70, 70
6, 26880, Note_on_c, 4, 70, 0
6, 26880, Note_on_c, 4, 68, 70
6, 27120, Note_on_c, 4, 68, 0
6, 27120, Note_on_c, 4, 67, 70
6, 27312, Note_on_c, 4, 67, 0
6, 27600, Note_on_c, 4, 75, 70
6, 27732, Note_on_c, 4, 75, 0
6, 27840, Note_on_c, 4, 75, 70
6, 28080, Note_on_c, 4, 75, 0
6, 28080, Note_on_c, 4, 65, 70
6, 28272, Note_on_c, 4, 65, 0
6, 28560, Note_on_c, 4, 70, 70
6, 28692, Note_on_c, 4, 70, 0
6, 28800, Note_on_c, 4, 68, 70
6, 29040, Note_on_c, 4, 68, 0
6, 29040, Note_on_c, 4, 67, 70
6, 29232, Note_on_c, 4, 67, 0
6, 29520, Note_on_c, 4, 72, 70
6, 29652, Note_on_c, 4, 72, 0
6, 29760, Note_on_c, 4, 72, 70
6, 30000, Note_on_c, 4, 72, 0
6, 30000, Note_on_c, 4, 70, 70
6, 30192, Note_on_c, 4, 70, 0
6, 30480, Note_on_c, 4, 62, 70
6, 30720, Note_on_c, 4, 62, 0
6, 30720, Note_on_c, 4, 63, 70
6, 31104, Note_on_c, 4, 63, 0
6, 31440, Note_on_c, 4, 70, 70
6, 31572, Note_on_c, 4, 70, 0
6, 31680, Note_on_c, 4, 69, 70
6, 31920, Note_on_c, 4, 69, 0
6, 31920, Note_on_c, 4, 72, 70
6, 32112, Note_on_c, 4, 72, 0
6, 32400, Note_on_c, 4, 73, 70
6, 32520, Note_on_c, 4, 73, 0
6, 32520, Note_on_c, 4, 70, 70
6, 32616, Note_on_c, 4, 70, 0
6, 32640, Note_on_c, 4, 69, 70
6, 32880, Note_on_c, 4, 69, 0
6, 32880, Note_on_c, 4, 72, 70
6, 33072, Note_on_c, 4, 72, 0
6, 33360, Note_on_c, 4, 73, 70
6, 33600, Note_on_c, 4, 73, 0
6, 33600, Note_on_c, 4, 72, 70
6, 33792, Note_on_c, 4, 72, 0
6, 33840, Note_on_c, 4, 77, 70
6, 34320, Note_on_c, 4, 77, 0
6, 34320, Note_on_c, 4, 75, 70
6, 34440, Note_on_c, 4, 75, 0
6, 34440, Note_on_c, 4, 73, 70
6, 34536, Note_on_c, 4, 73, 0
6, 34560, Note_on_c, 4, 73, 70
6, 34800, Note_on_c, 4, 73, 0
6, 34800, Note_on_c, 4, 72, 70
6, 34992, Note_on_c, 4, 72, 0
6, 35280, Note_on_c, 4, 82, 70
6, 35520, Note_on_c, 4, 82, 0
6, 35520, Note_on_c, 4, 81, 70
6, 35652, Note_on_c, 4, 81, 0
6, 35760, Note_on_c, 4, 77, 70
6, 35892, Note_on_c, 4, 77, 0
6, 36240, Note_on_c, 4, 82, 70
6, 36480, Note_on_c, 4, 82, 0
6, 36480, Note_on_c, 4, 81, 70
6, 36612, Note_on_c, 4, 81, 0
6, 36720, Note_on_c, 4, 77, 70
6, 36852, Note_on_c, 4, 77, 0
6, 37440, Note_on_c, 4, 75, 70
6, 37572, Note_on_c, 4, 75, 0
6, 37680, Note_on_c, 4, 72, 70
6, 37812, Note_on_c, 4, 72, 0
6, 39120, Note_on_c, 4, 70, 80
6, 39180, Note_on_c, 4, 70, 0
6, 39180, Note_on_c, 4, 74, 80
6, 39240, Note_on_c, 4, 74, 0
6, 39240, Note_on_c, 4, 77, 80
6, 39300, Note_on_c, 4, 77, 0
6, 39300, Note_on_c, 4, 82, 80
6, 39360, Note_on_c, 4, 82, 0
6, 39360, Note_on_c, 4, 81, 80
6, 39432, Note_on_c, 4, 81, 0
6, 39480, Note_on_c, 4, 81, 80
6, 39552, Note_on_c, 4, 81, 0
6, 39600, Note_on_c, 4, 81, 80
6, 39672, Note_on_c, 4, 81, 0
6, 39720, Note_on_c, 4, 81, 80
6, 39792, Note_on_c, 4, 81, 0
6, 39840, Note_on_c, 4, 81, 80
6, 39912, Note_on_c, 4, 81, 0
6, 39960, Note_on_c, 4, 81, 80
6, 40032, Note_on_c, 4, 81, 0
6, 40080, Note_on_c, 4, 84, 80
6, 40140, Note_on_c, 4, 84, 0
6, 40140, Note_on_c, 4, 81, 80
6, 40200, Note_on_c, 4, 81, 0
6, 40200, Note_on_c, 4, 77, 80
6, 40260, Note_on_c, 4, 77, 0
6, 40260, Note_on_c, 4, 75, 80
6, 40320, Note_on_c, 4, 75, 0
6, 40320, Note_on_c, 4, 74, 80
6, 40392, Note_on_c, 4, 74, 0
6, 40440, Note_on_c, 4, 74, 80
6, 40512, Note_on_c, 4, 74, 0
6, 40560, Note_on_c, 4, 74, 80
6, 40632, Note_on_c, 4, 74, 0
6, 40680, Note_on_c, 4, 74, 80
6, 40752, Note_on_c, 4, 74, 0
6, 40800, Note_on_c, 4, 74, 80
6, 40872, Note_on_c, 4, 74, 0
6, 40920, Note_on_c, 4, 74, 80
6, 40992, Note_on_c, 4, 74, 0
6, 41040, Note_on_c, 4, 70, 80
6, 41100, Note_on_c, 4, 70, 0
6, 41100, Note_on_c, 4, 74, 80
6, 41160, Note_on_c, 4, 74, 0
6, 41160, Note_on_c, 4, 77, 80
6, 41220, Note_on_c, 4, 77, 0
6, 41220, Note_on_c, 4, 82, 80
6, 41280, Note_on_c, 4, 82, 0
6, 41280, Note_on_c, 4, 81, 80
6, 41352, Note_on_c, 4, 81, 0
6, 41400, Note_on_c, 4, 81, 80
6, 41472, Note_on_c, 4, 81, 0
6, 41520, Note_on_c, 4, 81, 80
6, 41592, Note_on_c, 4, 81, 0
6, 41640, Note_on_c, 4, 81, 80
6, 41712, Note_on_c, 4, 81, 0
6, 41760, Note_on_c, 4, 81, 80
6, 41832, Note_on_c, 4, 81, 0
6, 41880, Note_on_c, 4, 81, 80
6, 41952, Note_on_c, 4, 81, 0
6, 42000, Note_on_c, 4, 84, 80
6, 42060, Note_on_c, 4, 84, 0
6, 42060, Note_on_c, 4, 81, 80
6, 42120, Note_on_c, 4, 81, 0
6, 42120, Note_on_c, 4, 77, 80
6, 42180, Note_on_c, 4, 77, 0
6, 42180, Note_on_c, 4, 75, 80
6, 42240, Note_on_c, 4, 75, 0
6, 42240, Note_on_c, 4, 74, 70
6, 42372, Note_on_c, 4, 74, 0
6, 42960, Note_on_c, 4, 82, 70
6, 43080, Note_on_c, 4, 82, 0
6, 43080, Note_on_c, 4, 79, 70
6, 43200, Note_on_c, 4, 79, 0
6, 43200, Note_on_c, 4, 77, 70
6, 43332, Note_on_c, 4, 77, 0
6, 43920, Note_on_c, 4, 75, 70
6, 44040, Note_on_c, 4, 75, 0
6, 44040, Note_on_c, 4, 72, 70
6, 44160, Note_on_c, 4, 72, 0
6, 44160, Note_on_c, 4, 70, 58
6, 44292, Note_on_c, 4, 70, 0
6, 44880, Note_on_c, 4, 82, 58
6, 45000, Note_on_c, 4, 82, 0
6, 45000, Note_on_c, 4, 79, 70
6, 45120, Note_on_c, 4, 79, 0
6, 45120, Note_on_c, 4, 77, 58
6, 45252, Note_on_c, 4, 77, 0
6, 45840, Note_on_c, 4, 75, 70
6, 45960, Note_on_c, 4, 75, 0
6, 45960, Note_on_c, 4, 72, 70
6, 46080, Note_on_c, 4, 72, 0
6, 46080, Note_on_c, 4, 70, 70
6, 46212, Note_on_c, 4, 70, 0
6, 46800, Note_on_c, 4, 70, 70
6, 46932, Note_on_c, 4, 70, 0
6, 47040, Note_on_c, 4, 73, 70
6, 47280, Note_on_c, 4, 73, 0
6, 47280, Note_on_c, 4, 72, 70
6, 47472, Note_on_c, 4, 72, 0
6, 47760, Note_on_c, 4, 73, 70
6, 47892, Note_on_c, 4, 73, 0
6, 48000, Note_on_c, 4, 71, 70
6, 48240, Note_on_c, 4, 71, 0
6, 48240, Note_on_c, 4, 72, 70
6, 48432, Note_on_c, 4, 72, 0
6, 48720, Note_on_c, 4, 72, 70
6, 48852, Note_on_c, 4, 72, 0
6, 48960, Note_on_c, 4, 82, 70
6, 49200, Note_on_c, 4, 82, 0
6, 49200, Note_on_c, 4, 80, 70
6, 49392, Note_on_c, 4, 80, 0
6, 49680, Note_on_c, 4, 76, 70
6, 49812, Note_on_c, 4, 76, 0
6, 49920, Note_on_c, 4, 79, 70
6, 50160, Note_on_c, 4, 79, 0
6, 50160, Note_on_c, 4, 77, 70
6, 50352, Note_on_c, 4, 77, 0
6, 50640, Note_on_c, 4, 68, 70
6, 50772, Note_on_c, 4, 68, 0
6, 50880, Note_on_c, 4, 71, 70
6, 51120, Note_on_c, 4, 71, 0
6, 51120, Note_on_c, 4, 70, 70
6, 51312, Note_on_c, 4, 70, 0
6, 51600, Note_on_c, 4, 71, 70
6, 51732, Note_on_c, 4, 71, 0
6, 51840, Note_on_c, 4, 69, 70
6, 52080, Note_on_c, 4, 69, 0
6, 52080, Note_on_c, 4, 70, 70
6, 52272, Note_on_c, 4, 70, 0
6, 52560, Note_on_c, 4, 70, 70
6, 52692, Note_on_c, 4, 70, 0
6, 52800, Note_on_c, 4, 80, 70
6, 53040, Note_on_c, 4, 80, 0
6, 53040, Note_on_c, 4, 79, 70
6, 53232, Note_on_c, 4, 79, 0
6, 53520, Note_on_c, 4, 74, 70
6, 53652, Note_on_c, 4, 74, 0
6, 53760, Note_on_c, 4, 77, 70
6, 54000, Note_on_c, 4, 77, 0
6, 54000, Note_on_c, 4, 75, 70
6, 54192, Note_on_c, 4, 75, 0
6, 54480, Note_on_c, 4, 70, 70
6, 54612, Note_on_c, 4, 70, 0
6, 54720, Note_on_c, 4, 75, 70
6, 54960, Note_on_c, 4, 75, 0
6, 54960, Note_on_c, 4, 69, 70
6, 55152, Note_on_c, 4, 69, 0
6, 55440, Note_on_c, 4, 69, 70
6, 55680, Note_on_c, 4, 69, 0
6, 55680, Note_on_c, 4, 70, 70
6, 55920, Note_on_c, 4, 70, 0
6, 55920, Note_on_c, 4, 65, 70
6, 56112, Note_on_c, 4, 65, 0
6, 56400, Note_on_c, 4, 65, 70
6, 56532, Note_on_c, 4, 65, 0
6, 56640, Note_on_c, 4, 66, 70
6, 56880, Note_on_c, 4, 66, 0
6, 56880, Note_on_c, 4, 65, 70
6, 57072, Note_on_c, 4, 65, 0
6, 57360, Note_on_c, 4, 57, 70
6, 57492, Note_on_c, 4, 57, 0
6, 57600, Note_on_c, 4, 60, 70
6, 57840, Note_on_c, 4, 60, 0
6, 57840, Note_on_c, 4, 58, 70
6, 58032, Note_on_c, 4, 58, 0
6, 58800, Note_on_c, 4, 68, 70
6, 58920, Note_on_c, 4, 68, 0
6, 58920, Note_on_c, 4, 74, 80
6, 59016, Note_on_c, 4, 74, 0
6, 59040, Note_on_c, 4, 74, 92
6, 59160, Note_on_c, 4, 74, 0
6, 59160, Note_on_c, 4, 77, 92
6, 59256, Note_on_c, 4, 77, 0
6, 59280, Note_on_c, 4, 77, 105
6, 59400, Note_on_c, 4, 77, 0
6, 59400, Note_on_c, 4, 80, 105
6, 59496, Note_on_c, 4, 80, 0
6, 59520, Note_on_c, 4, 80, 105
6, 60240, Note_on_c, 4, 80, 0
6, 60240, Note_on_c, 4, 77, 80
6, 60468, Note_on_c, 4, 77, 0
6, 60480, Note_on_c, 4, 74, 70
6, 60720, Note_on_c, 4, 74, 0
6, 60720, Note_on_c, 4, 70, 70
6, 60948, Note_on_c, 4, 70, 0
6, 60960, Note_on_c, 4, 67, 70
6, 61080, Note_on_c, 4, 67, 0
6, 61080, Note_on_c, 4, 68, 70
6, 61200, Note_on_c, 4, 68, 0
6, 61200, Note_on_c, 4, 65, 70
6, 61320, Note_on_c, 4, 65, 0
6, 61320, Note_on_c, 4, 62, 70
6, 61434, Note_on_c, 4, 62, 0
6, 61440, Note_on_c, 4, 59, 70
6, 61920, Note_on_c, 4, 59, 0
6, 61920, Note_on_c, 4, 58, 58
6, 62112, Note_on_c, 4, 58, 0
6, 62160, Note_on_c, 4, 70, 70
6, 62400, Note_on_c, 4, 70, 0
6, 62400, Note_on_c, 4, 68, 70
6, 62640, Note_on_c, 4, 68, 0
6, 62640, Note_on_c, 4, 67, 70
6, 62832, Note_on_c, 4, 67, 0
6, 63120, Note_on_c, 4, 72, 70
6, 63360, Note_on_c, 4, 72, 0
6, 63360, Note_on_c, 4, 70, 70
6, 63600, Note_on_c, 4, 70, 0
6, 63600, Note_on_c, 4, 68, 70
6, 63792, Note_on_c, 4, 68, 0
6, 64080, Note_on_c, 4, 68, 70
6, 64320, Note_on_c, 4, 68, 0
6, 64320, Note_on_c, 4, 67, 70
6, 64560, Note_on_c, 4, 67, 0
6, 64560, Note_on_c, 4, 65, 70
6, 64752, Note_on_c, 4, 65, 0
6, 65040, Note_on_c, 4, 70, 70
6, 65280, Note_on_c, 4, 70, 0
6, 65280, Note_on_c, 4, 68, 70
6, 65520, Note_on_c, 4, 68, 0
6, 65520, Note_on_c, 4, 67, 70
6, 65712, Note_on_c, 4, 67, 0
6, 66000, Note_on_c, 4, 75, 70
6, 66132, Note_on_c, 4, 75, 0
6, 66240, Note_on_c, 4, 75, 70
6, 66480, Note_on_c, 4, 75, 0
6, 66480, Note_on_c, 4, 65, 70
6, 66672, Note_on_c, 4, 65, 0
6, 66960, Note_on_c, 4, 70, 70
6, 67092, Note_on_c, 4, 70, 0
6, 67200, Note_on_c, 4, 68, 70
6, 67440, Note_on_c, 4, 68, 0
6, 67440, Note_on_c, 4, 67, 70
6, 67632, Note_on_c, 4, 67, 0
6, 67920, Note_on_c, 4, 72, 70
6, 68052, Note_on_c, 4, 72, 0
6, 68160, Note_on_c, 4, 72, 70
6, 68400, Note_on_c, 4, 72, 0
6, 68400, Note_on_c, 4, 70, 70
6, 68592, Note_on_c, 4, 70, 0
6, 68880, Note_on_c, 4, 62, 70
6, 69120, Note_on_c, 4, 62, 0
6, 69120, Note_on_c, 4, 63, 70
6, 69504, Note_on_c, 4, 63, 0
6, 69840, Note_on_c, 4, 70, 80
6, 69972, Note_on_c, 4, 70, 0
6, 70080, Note_on_c, 4, 73, 80
6, 70320, Note_on_c, 4, 73, 0
6, 70320, Note_on_c, 4, 72, 70
6, 70512, Note_on_c, 4, 72, 0
6, 70800, Note_on_c, 4, 70, 70
6, 70932, Note_on_c, 4, 70, 0
6, 71040, Note_on_c, 4, 69, 80
6, 71280, Note_on_c, 4, 69, 0
6, 71280, Note_on_c, 4, 72, 70
6, 71472, Note_on_c, 4, 72, 0
6, 71760, Note_on_c, 4, 72, 70
6, 71892, Note_on_c, 4, 72, 0
6, 72000, Note_on_c, 4, 75, 80
6, 72240, Note_on_c, 4, 75, 0
6, 72240, Note_on_c, 4, 74, 80
6, 72432, Note_on_c, 4, 74, 0
6, 72720, Note_on_c, 4, 72, 70
6, 72852, Note_on_c, 4, 72, 0
6, 72960, Note_on_c, 4, 71, 80
6, 73200, Note_on_c, 4, 71, 0
6, 73200, Note_on_c, 4, 74, 70
6, 73392, Note_on_c, 4, 74, 0
6, 73680, Note_on_c, 4, 77, 70
6, 73812, Note_on_c, 4, 77, 0
6, 73920, Note_on_c, 4, 77, 80
6, 74160, Note_on_c, 4, 77, 0
6, 74160, Note_on_c, 4, 75, 70
6, 74352, Note_on_c, 4, 75, 0
6, 74640, Note_on_c, 4, 77, 70
6, 74760, Note_on_c, 4, 77, 0
6, 74760, Note_on_c, 4, 73, 80
6, 74856, Note_on_c, 4, 73, 0
6, 74880, Note_on_c, 4, 73, 80
6, 75120, Note_on_c, 4, 73, 0
6, 75120, Note_on_c, 4, 72, 70
6, 75312, Note_on_c, 4, 72, 0
6, 75600, Note_on_c, 4, 74, 70
6, 75732, Note_on_c, 4, 74, 0
6, 75840, Note_on_c, 4, 75, 80
6, 76080, Note_on_c, 4, 75, 0
6, 76080, Note_on_c, 4, 79, 70
6, 76272, Note_on_c, 4, 79, 0
6, 76560, Note_on_c, 4, 69, 70
6, 76692, Note_on_c, 4, 69, 0
6, 76800, Note_on_c, 4, 70, 80
6, 77040, Note_on_c, 4, 70, 0
6, 77040, Note_on_c, 4, 65, 80
6, 77232, Note_on_c, 4, 65, 0
6, 77520, Note_on_c, 4, 65, 80
6, 77760, Note_on_c, 4, 65, 0
6, 77760, Note_on_c, 4, 66, 70
6, 78000, Note_on_c, 4, 66, 0
6, 78000, Note_on_c, 4, 65, 70
6, 78192, Note_on_c, 4, 65, 0
6, 78480, Note_on_c, 4, 66, 70
6, 78600, Note_on_c, 4, 66, 0
6, 78600, Note_on_c, 4, 63, 70
6, 78696, Note_on_c, 4, 63, 0
6, 78720, Note_on_c, 4, 62, 70
6, 78960, Note_on_c, 4, 62, 0
6, 78960, Note_on_c, 4, 65, 70
6, 79152, Note_on_c, 4, 65, 0
6, 79440, Note_on_c, 4, 66, 70
6, 79680, Note_on_c, 4, 66, 0
6, 79680, Note_on_c, 4, 65, 70
6, 79872, Note_on_c, 4, 65, 0
6, 79920, Note_on_c, 4, 70, 70
6, 80400, Note_on_c, 4, 70, 0
6, 80400, Note_on_c, 4, 68, 70
6, 80520, Note_on_c, 4, 68, 0
6, 80520, Note_on_c, 4, 66, 70
6, 80616, Note_on_c, 4, 66, 0
6, 80640, Note_on_c, 4, 66, 70
6, 80880, Note_on_c, 4, 66, 0
6, 80880, Note_on_c, 4, 65, 58
6, 81072, Note_on_c, 4, 65, 0
6, 81360, Note_on_c, 4, 75, 58
6, 81600, Note_on_c, 4, 75, 0
6, 81600, Note_on_c, 4, 74, 70
6, 81732, Note_on_c, 4, 74, 0
6, 81840, Note_on_c, 4, 77, 70
6, 81972, Note_on_c, 4, 77, 0
6, 82320, Note_on_c, 4, 81, 70
6, 82560, Note_on_c, 4, 81, 0
6, 82560, Note_on_c, 4, 82, 70
6, 82692, Note_on_c, 4, 82, 0
6, 82800, Note_on_c, 4, 70, 70
6, 82932, Note_on_c, 4, 70, 0
6, 83520, Note_on_c, 4, 80, 70
6, 83652, Note_on_c, 4, 80, 0
6, 83760, Note_on_c, 4, 77, 70
6, 83892, Note_on_c, 4, 77, 0
6, 85200, Note_on_c, 4, 63, 80
6, 85248, Note_on_c, 4, 63, 0
6, 85260, Note_on_c, 4, 67, 80
6, 85320, Note_on_c, 4, 67, 0
6, 85320, Note_on_c, 4, 70, 80
6, 85380, Note_on_c, 4, 70, 0
6, 85380, Note_on_c, 4, 75, 80
6, 85428, Note_on_c, 4, 75, 0
6, 85440, Note_on_c, 4, 74, 80
6, 85512, Note_on_c, 4, 74, 0
6, 85560, Note_on_c, 4, 74, 80
6, 85632, Note_on_c, 4, 74, 0
6, 85680, Note_on_c, 4, 74, 80
6, 85752, Note_on_c, 4, 74, 0
6, 85800, Note_on_c, 4, 74, 80
6, 85872, Note_on_c, 4, 74, 0
6, 85920, Note_on_c, 4, 74, 80
6, 85992, Note_on_c, 4, 74, 0
6, 86040, Note_on_c, 4, 74, 80
6, 86112, Note_on_c, 4, 74, 0
6, 86160, Note_on_c, 4, 77, 80
6, 86220, Note_on_c, 4, 77, 0
6, 86220, Note_on_c, 4, 74, 80
6, 86280, Note_on_c, 4, 74, 0
6, 86280, Note_on_c, 4, 70, 80
6, 86340, Note_on_c, 4, 70, 0
6, 86340, Note_on_c, 4, 68, 80
6, 86388, Note_on_c, 4, 68, 0
6, 86400, Note_on_c, 4, 67, 80
6, 86472, Note_on_c, 4, 67, 0
6, 86520, Note_on_c, 4, 67, 80
6, 86592, Note_on_c, 4, 67, 0
6, 86640, Note_on_c, 4, 67, 80
6, 86712, Note_on_c, 4, 67, 0
6, 86760, Note_on_c, 4, 67, 80
6, 86832, Note_on_c, 4, 67, 0
6, 86880, Note_on_c, 4, 67, 80
6, 86952, Note_on_c, 4, 67, 0
6, 87000, Note_on_c, 4, 67, 80
6, 87072, Note_on_c, 4, 67, 0
6, 87120, Note_on_c, 4, 63, 80
6, 87180, Note_on_c, 4, 63, 0
6, 87180, Note_on_c, 4, 67, 80
6, 87240, Note_on_c, 4, 67, 0
6, 87240, Note_on_c, 4, 70, 80
6, 87300, Note_on_c, 4, 70, 0
6, 87300, Note_on_c, 4, 75, 80
6, 87348, Note_on_c, 4, 75, 0
6, 87360, Note_on_c, 4, 74, 80
6, 87432, Note_on_c, 4, 74, 0
6, 87480, Note_on_c, 4, 74, 80
6, 87552, Note_on_c, 4, 74, 0
6, 87600, Note_on_c, 4, 74, 80
6, 87672, Note_on_c, 4, 74, 0
6, 87720, Note_on_c, 4, 74, 80
6, 87792, Note_on_c, 4, 74, 0
6, 87840, Note_on_c, 4, 74, 80
6, 87912, Note_on_c, 4, 74, 0
6, 87960, Note_on_c, 4, 74, 80
6, 88032, Note_on_c, 4, 74, 0
6, 88080, Note_on_c, 4, 77, 80
6, 88140, Note_on_c, 4, 77, 0
6, 88140, Note_on_c, 4, 74, 80
6, 88200, Note_on_c, 4, 74, 0
6, 88200, Note_on_c, 4, 70, 80
6, 88260, Note_on_c, 4, 70, 0
6, 88260, Note_on_c, 4, 68, 80
6, 88308, Note_on_c, 4, 68, 0
6, 88320, Note_on_c, 4, 67, 70
6, 88704, Note_on_c, 4, 67, 0
6, 89040, Note_on_c, 4, 87, 70
6, 89160, Note_on_c, 4, 87, 0
6, 89160, Note_on_c, 4, 84, 70
6, 89280, Note_on_c, 4, 84, 0
6, 89280, Note_on_c, 4, 82, 70
6, 89412, Note_on_c, 4, 82, 0
6, 90000, Note_on_c, 4, 80, 70
6, 90120, Note_on_c, 4, 80, 0
6, 90120, Note_on_c, 4, 77, 70
6, 90240, Note_on_c, 4, 77, 0
6, 90240, Note_on_c, 4, 75, 70
6, 90372, Note_on_c, 4, 75, 0
6, 90960, Note_on_c, 4, 75, 70
6, 91080, Note_on_c, 4, 75, 0
6, 91080, Note_on_c, 4, 72, 70
6, 91200, Note_on_c, 4, 72, 0
6, 91200, Note_on_c, 4, 70, 70
6, 91332, Note_on_c, 4, 70, 0
6, 91920, Note_on_c, 4, 68, 70
6, 92040, Note_on_c, 4, 68, 0
6, 92040, Note_on_c, 4, 65, 70
6, 92160, Note_on_c, 4, 65, 0
6, 92160, Note_on_c, 4, 63, 70
6, 92292, Note_on_c, 4, 63, 0
6, 92292, End_track
7, 0, Start_track
7, 0, Program_c, 5, 48
7, 0, Control_c, 5, 7, 122
7, 0, Control_c, 5, 10, 45
7, 0, Control_c, 5, 91, 85
7, 720, Note_on_c, 5, 67, 70
7, 960, Note_on_c, 5, 67, 0
7, 960, Note_on_c, 5, 65, 70
7, 1200, Note_on_c, 5, 65, 0
7, 1200, Note_on_c, 5, 63, 70
7, 1392, Note_on_c, 5, 63, 0
7, 1680, Note_on_c, 5, 67, 70
7, 1920, Note_on_c, 5, 67, 0
7, 1920, Note_on_c, 5, 64, 70
7, 2160, Note_on_c, 5, 64, 0
7, 2160, Note_on_c, 5, 65, 70
7, 2352, Note_on_c, 5, 65, 0
7, 2640, Note_on_c, 5, 65, 70
7, 2880, Note_on_c, 5, 65, 0
7, 2880, Note_on_c, 5, 63, 70
7, 3120, Note_on_c, 5, 63, 0
7, 3120, Note_on_c, 5, 62, 70
7, 3312, Note_on_c, 5, 62, 0
7, 3600, Note_on_c, 5, 65, 70
7, 3840, Note_on_c, 5, 65, 0
7, 3840, Note_on_c, 5, 62, 70
7, 4080, Note_on_c, 5, 62, 0
7, 4080, Note_on_c, 5, 63, 70
7, 4272, Note_on_c, 5, 63, 0
7, 4560, Note_on_c, 5, 67, 70
7, 4692, Note_on_c, 5, 67, 0
7, 4800, Note_on_c, 5, 72, 70
7, 5040, Note_on_c, 5, 72, 0
7, 5040, Note_on_c, 5, 63, 70
7, 5232, Note_on_c, 5, 63, 0
7, 5520, Note_on_c, 5, 62, 70
7, 5652, Note_on_c, 5, 62, 0
7, 5760, Note_on_c, 5, 65, 70
7, 6000, Note_on_c, 5, 65, 0
7, 6000, Note_on_c, 5, 63, 70
7, 6192, Note_on_c, 5, 63, 0
7, 6480, Note_on_c, 5, 63, 70
7, 6612, Note_on_c, 5, 63, 0
7, 6720, Note_on_c, 5, 62, 70
7, 6960, Note_on_c, 5, 62, 0
7, 6960, Note_on_c, 5, 63, 70
7, 7152, Note_on_c, 5, 63, 0
7, 7440, Note_on_c, 5, 56, 70
7, 7680, Note_on_c, 5, 56, 0
7, 7680, Note_on_c, 5, 55, 70
7, 8064, Note_on_c, 5, 55, 0
7, 8400, Note_on_c, 5, 67, 70
7, 8532, Note_on_c, 5, 67, 0
7, 8640, Note_on_c, 5, 65, 70
7, 8880, Note_on_c, 5, 65, 0
7, 8880, Note_on_c, 5, 69, 70
7, 9072, Note_on_c, 5, 69, 0
7, 9360, Note_on_c, 5, 70, 70
7, 9480, Note_on_c, 5, 70, 0
7, 9480, Note_on_c, 5, 67, 70
7, 9576, Note_on_c, 5, 67, 0
7, 9600, Note_on_c, 5, 65, 70
7, 9840, Note_on_c, 5, 65, 0
7, 9840, Note_on_c, 5, 57, 70
7, 10032, Note_on_c, 5, 57, 0
7, 10320, Note_on_c, 5, 70, 70
7, 10560, Note_on_c, 5, 70, 0
7, 10560, Note_on_c, 5, 69, 70
7, 10944, Note_on_c, 5, 69, 0
7, 11760, Note_on_c, 5, 69, 70
7, 12000, Note_on_c, 5, 69, 0
7, 12000, Note_on_c, 5, 70, 70
7, 12192, Note_on_c, 5, 70, 0
7, 12720, Note_on_c, 5, 65, 70
7, 12960, Note_on_c, 5, 65, 0
7, 12960, Note_on_c, 5, 64, 70
7, 13152, Note_on_c, 5, 64, 0
7, 13920, Note_on_c, 5, 60, 70
7, 14052, Note_on_c, 5, 60, 0
7, 14160, Note_on_c, 5, 57, 70
7, 14292, Note_on_c, 5, 57, 0
7, 15360, Note_on_c, 5, 62, 70
7, 15420, Note_on_c, 5, 62, 0
7, 15420, Note_on_c, 5, 65, 70
7, 15480, Note_on_c, 5, 65, 0
7, 15480, Note_on_c, 5, 62, 70
7, 15540, Note_on_c, 5, 62, 0
7, 15540, Note_on_c, 5, 65, 70
7, 15600, Note_on_c, 5, 65, 0
7, 15600, Note_on_c, 5, 62, 70
7, 15660, Note_on_c, 5, 62, 0
7, 15660, Note_on_c, 5, 65, 70
7, 15720, Note_on_c, 5, 65, 0
7, 15720, Note_on_c, 5, 62, 70
7, 15780, Note_on_c, 5, 62, 0
7, 15780, Note_on_c, 5, 65, 70
7, 15840, Note_on_c, 5, 65, 0
7, 15840, Note_on_c, 5, 62, 70
7, 15900, Note_on_c, 5, 62, 0
7, 15900, Note_on_c, 5, 65, 70
7, 15960, Note_on_c, 5, 65, 0
7, 15960, Note_on_c, 5, 62, 70
7, 16020, Note_on_c, 5, 62, 0
7, 16020, Note_on_c, 5, 65, 70
7, 16080, Note_on_c, 5, 65, 0
7, 16080, Note_on_c, 5, 62, 70
7, 16140, Note_on_c, 5, 62, 0
7, 16140, Note_on_c, 5, 65, 70
7, 16200, Note_on_c, 5, 65, 0
7, 16200, Note_on_c, 5, 62, 70
7, 16260, Note_on_c, 5, 62, 0
7, 16260, Note_on_c, 5, 65, 70
7, 16320, Note_on_c, 5, 65, 0
7, 16320, Note_on_c, 5, 63, 70
7, 16380, Note_on_c, 5, 63, 0
7, 16380, Note_on_c, 5, 65, 70
7, 16440, Note_on_c, 5, 65, 0
7, 16440, Note_on_c, 5, 63, 70
7, 16500, Note_on_c, 5, 63, 0
7, 16500, Note_on_c, 5, 65, 70
7, 16560, Note_on_c, 5, 65, 0
7, 16560, Note_on_c, 5, 63, 70
7, 16620, Note_on_c, 5, 63, 0
7, 16620, Note_on_c, 5, 65, 70
7, 16680, Note_on_c, 5, 65, 0
7, 16680, Note_on_c, 5, 63, 70
7, 16740, Note_on_c, 5, 63, 0
7, 16740, Note_on_c, 5, 65, 70
7, 16800, Note_on_c, 5, 65, 0
7, 16800, Note_on_c, 5, 63, 70
7, 16860, Note_on_c, 5, 63, 0
7, 16860, Note_on_c, 5, 65, 70
7, 16920, Note_on_c, 5, 65, 0
7, 16920, Note_on_c, 5, 63, 70
7, 16980, Note_on_c, 5, 63, 0
7, 16980, Note_on_c, 5, 65, 70
7, 17040, Note_on_c, 5, 65, 0
7, 17040, Note_on_c, 5, 63, 70
7, 17100, Note_on_c, 5, 63, 0
7, 17100, Note_on_c, 5, 65, 70
7, 17160, Note_on_c, 5, 65, 0
7, 17160, Note_on_c, 5, 60, 70
7, 17220, Note_on_c, 5, 60, 0
7, 17220, Note_on_c, 5, 65, 70
7, 17268, Note_on_c, 5, 65, 0
7, 17280, Note_on_c, 5, 58, 70
7, 17340, Note_on_c, 5, 58, 0
7, 17340, Note_on_c, 5, 65, 70
7, 17400, Note_on_c, 5, 65, 0
7, 17400, Note_on_c, 5, 58, 70
7, 17460, Note_on_c, 5, 58, 0
7, 17460, Note_on_c, 5, 65, 70
7, 17520, Note_on_c, 5, 65, 0
7, 17520, Note_on_c, 5, 58, 70
7, 17580, Note_on_c, 5, 58, 0
7, 17580, Note_on_c, 5, 65, 70
7, 17640, Note_on_c, 5, 65, 0
7, 17640, Note_on_c, 5, 58, 70
7, 17700, Note_on_c, 5, 58, 0
7, 17700, Note_on_c, 5, 65, 70
7, 17760, Note_on_c, 5, 65, 0
7, 17760, Note_on_c, 5, 58, 70
7, 17820, Note_on_c, 5, 58, 0
7, 17820, Note_on_c, 5, 65, 70
7, 17880, Note_on_c, 5, 65, 0
7, 17880, Note_on_c, 5, 58, 70
7, 17940, Note_on_c, 5, 58, 0
7, 17940, Note_on_c, 5, 65, 70
7, 18000, Note_on_c, 5, 65, 0
7, 18000, Note_on_c, 5, 62, 70
7, 18060, Note_on_c, 5, 62, 0
7, 18060, Note_on_c, 5, 65, 70
7, 18120, Note_on_c, 5, 65, 0
7, 18120, Note_on_c, 5, 62, 70
7, 18180, Note_on_c, 5, 62, 0
7, 18180, Note_on_c, 5, 65, 70
7, 18240, Note_on_c, 5, 65, 0
7, 18240, Note_on_c, 5, 63, 70
7, 18300, Note_on_c, 5, 63, 0
7, 18300, Note_on_c, 5, 65, 70
7, 18360, Note_on_c, 5, 65, 0
7, 18360, Note_on_c, 5, 63, 70
7, 18420, Note_on_c, 5, 63, 0
7, 18420, Note_on_c, 5, 65, 70
7, 18480, Note_on_c, 5, 65, 0
7, 18480, Note_on_c, 5, 63, 70
7, 18540, Note_on_c, 5, 63, 0
7, 18540, Note_on_c, 5, 65, 70
7, 18600, Note_on_c, 5, 65, 0
7, 18600, Note_on_c, 5, 63, 70
7, 18660, Note_on_c, 5, 63, 0
7, 18660, Note_on_c, 5, 65, 70
7, 18720, Note_on_c, 5, 65, 0
7, 18720, Note_on_c, 5, 63, 70
7, 18780, Note_on_c, 5, 63, 0
7, 18780, Note_on_c, 5, 65, 70
7, 18840, Note_on_c, 5, 65, 0
7, 18840, Note_on_c, 5, 63, 70
7, 18900, Note_on_c, 5, 63, 0
7, 18900, Note_on_c, 5, 65, 70
7, 18960, Note_on_c, 5, 65, 0
7, 18960, Note_on_c, 5, 63, 70
7, 19020, Note_on_c, 5, 63, 0
7, 19020, Note_on_c, 5, 65, 70
7, 19080, Note_on_c, 5, 65, 0
7, 19080, Note_on_c, 5, 60, 70
7, 19140, Note_on_c, 5, 60, 0
7, 19140, Note_on_c, 5, 65, 70
7, 19188, Note_on_c, 5, 65, 0
7, 19200, Note_on_c, 5, 58, 58
7, 19332, Note_on_c, 5, 58, 0
7, 19920, Note_on_c, 5, 67, 58
7, 20040, Note_on_c, 5, 67, 0
7, 20040, Note_on_c, 5, 63, 70
7, 20160, Note_on_c, 5, 63, 0
7, 20160, Note_on_c, 5, 62, 70
7, 20292, Note_on_c, 5, 62, 0
7, 20880, Note_on_c, 5, 60, 70
7, 21000, Note_on_c, 5, 60, 0
7, 21000, Note_on_c, 5, 57, 70
7, 21120, Note_on_c, 5, 57, 0
7, 21120, Note_on_c, 5, 58, 58
7, 21252, Note_on_c, 5, 58, 0
7, 21840, Note_on_c, 5, 67, 58
7, 21960, Note_on_c, 5, 67, 0
7, 21960, Note_on_c, 5, 63, 70
7, 22080, Note_on_c, 5, 63, 0
7, 22080, Note_on_c, 5, 62, 58
7, 22212, Note_on_c, 5, 62, 0
7, 22800, Note_on_c, 5, 60, 70
7, 22920, Note_on_c, 5, 60, 0
7, 22920, Note_on_c, 5, 57, 70
7, 23040, Note_on_c, 5, 57, 0
7, 23040, Note_on_c, 5, 58, 58
7, 23172, Note_on_c, 5, 58, 0
7, 23760, Note_on_c, 5, 67, 58
7, 24000, Note_on_c, 5, 67, 0
7, 24000, Note_on_c, 5, 65, 70
7, 24240, Note_on_c, 5, 65, 0
7, 24240, Note_on_c, 5, 63, 70
7, 24432, Note_on_c, 5, 63, 0
7, 24720, Note_on_c, 5, 67, 70
7, 24960, Note_on_c, 5, 67, 0
7, 24960, Note_on_c, 5, 64, 70
7, 25200, Note_on_c, 5, 64, 0
7, 25200, Note_on_c, 5, 65, 70
7, 25392, Note_on_c, 5, 65, 0
7, 25680, Note_on_c, 5, 65, 70
7, 25920, Note_on_c, 5, 65, 0
7, 25920, Note_on_c, 5, 63, 70
7, 26160, Note_on_c, 5, 63, 0
7, 26160, Note_on_c, 5, 62, 70
7, 26352, Note_on_c, 5, 62, 0
7, 26640, Note_on_c, 5, 65, 70
7, 26880, Note_on_c, 5, 65, 0
7, 26880, Note_on_c, 5, 62, 70
7, 27120, Note_on_c, 5, 62, 0
7, 27120, Note_on_c, 5, 63, 70
7, 27312, Note_on_c, 5, 63, 0
7, 27600, Note_on_c, 5, 67, 70
7, 27732, Note_on_c, 5, 67, 0
7, 27840, Note_on_c, 5, 72, 70
7, 28080, Note_on_c, 5, 72, 0
7, 28080, Note_on_c, 5, 63, 70
7, 28272, Note_on_c, 5, 63, 0
7, 28560, Note_on_c, 5, 62, 70
7, 28692, Note_on_c, 5, 62, 0
7, 28800, Note_on_c, 5, 65, 70
7, 29040, Note_on_c, 5, 65, 0
7, 29040, Note_on_c, 5, 63, 70
7, 29232, Note_on_c, 5, 63, 0
7, 29520, Note_on_c, 5, 63, 70
7, 29652, Note_on_c, 5, 63, 0
7, 29760, Note_on_c, 5, 62, 70
7, 30000, Note_on_c, 5, 62, 0
7, 30000, Note_on_c, 5, 63, 70
7, 30192, Note_on_c, 5, 63, 0
7, 30480, Note_on_c, 5, 56, 70
7, 30720, Note_on_c, 5, 56, 0
7, 30720, Note_on_c, 5, 55, 70
7, 31104, Note_on_c, 5, 55, 0
7, 31440, Note_on_c, 5, 67, 70
7, 31572, Note_on_c, 5, 67, 0
7, 31680, Note_on_c, 5, 65, 70
7, 31920, Note_on_c, 5, 65, 0
7, 31920, Note_on_c, 5, 69, 70
7, 32112, Note_on_c, 5, 69, 0
7, 32400, Note_on_c, 5, 70, 70
7, 32520, Note_on_c, 5, 70, 0
7, 32520, Note_on_c, 5, 67, 70
7, 32616, Note_on_c, 5, 67, 0
7, 32640, Note_on_c, 5, 65, 70
7, 32880, Note_on_c, 5, 65, 0
7, 32880, Note_on_c, 5, 57, 70
7, 33072, Note_on_c, 5, 57, 0
7, 33360, Note_on_c, 5, 70, 70
7, 33600, Note_on_c, 5, 70, 0
7, 33600, Note_on_c, 5, 69, 70
7, 33984, Note_on_c, 5, 69, 0
7, 34800, Note_on_c, 5, 69, 70
7, 35040, Note_on_c, 5, 69, 0
7, 35040, Note_on_c, 5, 70, 70
7, 35232, Note_on_c, 5, 70, 0
7, 35760, Note_on_c, 5, 65, 70
7, 36000, Note_on_c, 5, 65, 0
7, 36000, Note_on_c, 5, 64, 70
7, 36192, Note_on_c, 5, 64, 0
7, 36960, Note_on_c, 5, 60, 70
7, 37092, Note_on_c, 5, 60, 0
7, 37200, Note_on_c, 5, 57, 70
7, 37332, Note_on_c, 5, 57, 0
7, 38400, Note_on_c, 5, 62, 70
7, 38460, Note_on_c, 5, 62, 0
7, 38460, Note_on_c, 5, 65, 70
7, 38520, Note_on_c, 5, 65, 0
7, 38520, Note_on_c, 5, 62, 70
7, 38580, Note_on_c, 5, 62, 0
7, 38580, Note_on_c, 5, 65, 70
7, 38640, Note_on_c, 5, 65, 0
7, 38640, Note_on_c, 5, 62, 70
7, 38700, Note_on_c, 5, 62, 0
7, 38700, Note_on_c, 5, 65, 70
7, 38760, Note_on_c, 5, 65, 0
7, 38760, Note_on_c, 5, 62, 70
7, 38820, Note_on_c, 5, 62, 0
7, 38820, Note_on_c, 5, 65, 70
7, 38880, Note_on_c, 5, 65, 0
7, 38880, Note_on_c, 5, 62, 70
7, 38940, Note_on_c, 5, 62, 0
7, 38940, Note_on_c, 5, 65, 70
7, 39000, Note_on_c, 5, 65, 0
7, 39000, Note_on_c, 5, 62, 70
7, 39060, Note_on_c, 5, 62, 0
7, 39060, Note_on_c, 5, 65, 70
7, 39120, Note_on_c, 5, 65, 0
7, 39120, Note_on_c, 5, 62, 70
7, 39180, Note_on_c, 5, 62, 0
7, 39180, Note_on_c, 5, 65, 70
7, 39240, Note_on_c, 5, 65, 0
7, 39240, Note_on_c, 5, 62, 70
7, 39300, Note_on_c, 5, 62, 0
7, 39300, Note_on_c, 5, 65, 70
7, 39360, Note_on_c, 5, 65, 0
7, 39360, Note_on_c, 5, 63, 70
7, 39420, Note_on_c, 5, 63, 0
7, 39420, Note_on_c, 5, 65, 70
7, 39480, Note_on_c, 5, 65, 0
7, 39480, Note_on_c, 5, 63, 70
7, 39540, Note_on_c, 5, 63, 0
7, 39540, Note_on_c, 5, 65, 70
7, 39600, Note_on_c, 5, 65, 0
7, 39600, Note_on_c, 5, 63, 70
7, 39660, Note_on_c, 5, 63, 0
7, 39660, Note_on_c, 5, 65, 70
7, 39720, Note_on_c, 5, 65, 0
7, 39720, Note_on_c, 5, 63, 70
7, 39780, Note_on_c, 5, 63, 0
7, 39780, Note_on_c, 5, 65, 70
7, 39840, Note_on_c, 5, 65, 0
7, 39840, Note_on_c, 5, 63, 70
7, 39900, Note_on_c, 5, 63, 0
7, 39900, Note_on_c, 5, 65, 70
7, 39960, Note_on_c, 5, 65, 0
7, 39960, Note_on_c, 5, 63, 70
7, 40020, Note_on_c, 5, 63, 0
7, 40020, Note_on_c, 5, 65, 70
7, 40080, Note_on_c, 5, 65, 0
7, 40080, Note_on_c, 5, 63, 70
7, 40140, Note_on_c, 5, 63, 0
7, 40140, Note_on_c, 5, 65, 70
7, 40200, Note_on_c, 5, 65, 0
7, 40200, Note_on_c, 5, 60, 70
7, 40260, Note_on_c, 5, 60, 0
7, 40260, Note_on_c, 5, 65, 70
7, 40308, Note_on_c, 5, 65, 0
7, 40320, Note_on_c, 5, 58, 70
7, 40380, Note_on_c, 5, 58, 0
7, 40380, Note_on_c, 5, 65, 70
7, 40440, Note_on_c, 5, 65, 0
7, 40440, Note_on_c, 5, 58, 70
7, 40500, Note_on_c, 5, 58, 0
7, 40500, Note_on_c, 5, 65, 70
7, 40560, Note_on_c, 5, 65, 0
7, 40560, Note_on_c, 5, 58, 70
7, 40620, Note_on_c, 5, 58, 0
7, 40620, Note_on_c, 5, 65, 70
7, 40680, Note_on_c, 5, 65, 0
7, 40680, Note_on_c, 5, 58, 70
7, 40740, Note_on_c, 5, 58, 0
7, 40740, Note_on_c, 5, 65, 70
7, 40800, Note_on_c, 5, 65, 0
7, 40800, Note_on_c, 5, 58, 70
7, 40860, Note_on_c, 5, 58, 0
7, 40860, Note_on_c, 5, 65, 70
7, 40920, Note_on_c, 5, 65, 0
7, 40920, Note_on_c, 5, 58, 70
7, 40980, Note_on_c, 5, 58, 0
7, 40980, Note_on_c, 5, 65, 70
7, 41040, Note_on_c, 5, 65, 0
7, 41040, Note_on_c, 5, 62, 70
7, 41100, Note_on_c, 5, 62, 0
7, 41100, Note_on_c, 5, 65, 70
7, 41160, Note_on_c, 5, 65, 0
7, 41160, Note_on_c, 5, 62, 70
7, 41220, Note_on_c, 5, 62, 0
7, 41220, Note_on_c, 5, 65, 70
7, 41280, Note_on_c, 5, 65, 0
7, 41280, Note_on_c, 5, 63, 70
7, 41340, Note_on_c, 5, 63, 0
7, 41340, Note_on_c, 5, 65, 70
7, 41400, Note_on_c, 5, 65, 0
7, 41400, Note_on_c, 5, 63, 70
7, 41460, Note_on_c, 5, 63, 0
7, 41460, Note_on_c, 5, 65, 70
7, 41520, Note_on_c, 5, 65, 0
7, 41520, Note_on_c, 5, 63, 70
7, 41580, Note_on_c, 5, 63, 0
7, 41580, Note_on_c, 5, 65, 70
7, 41640, Note_on_c, 5, 65, 0
7, 41640, Note_on_c, 5, 63, 70
7, 41700, Note_on_c, 5, 63, 0
7, 41700, Note_on_c, 5, 65, 70
7, 41760, Note_on_c, 5, 65, 0
7, 41760, Note_on_c, 5, 63, 70
7, 41820, Note_on_c, 5, 63, 0
7, 41820, Note_on_c, 5, 65, 70
7, 41880, Note_on_c, 5, 65, 0
7, 41880, Note_on_c, 5, 63, 70
7, 41940, Note_on_c, 5, 63, 0
7, 41940, Note_on_c, 5, 65, 70
7, 42000, Note_on_c, 5, 65, 0
7, 42000, Note_on_c, 5, 63, 70
7, 42060, Note_on_c, 5, 63, 0
7, 42060, Note_on_c, 5, 65, 70
7, 42120, Note_on_c, 5, 65, 0
7, 42120, Note_on_c, 5, 60, 70
7, 42180, Note_on_c, 5, 60, 0
7, 42180, Note_on_c, 5, 65, 70
7, 42228, Note_on_c, 5, 65, 0
7, 42240, Note_on_c, 5, 58, 58
7, 42372, Note_on_c, 5, 58, 0
7, 42960, Note_on_c, 5, 67, 58
7, 43080, Note_on_c, 5, 67, 0
7, 43080, Note_on_c, 5, 63, 70
7, 43200, Note_on_c, 5, 63, 0
7, 43200, Note_on_c, 5, 62, 70
7, 43332, Note_on_c, 5, 62, 0
7, 43920, Note_on_c, 5, 60, 70
7, 44040, Note_on_c, 5, 60, 0
7, 44040, Note_on_c, 5, 57, 70
7, 44160, Note_on_c, 5, 57, 0
7, 44160, Note_on_c, 5, 58, 58
7, 44292, Note_on_c, 5, 58, 0
7, 44880, Note_on_c, 5, 67, 58
7, 45000, Note_on_c, 5, 67, 0
7, 45000, Note_on_c, 5, 63, 70
7, 45120, Note_on_c, 5, 63, 0
7, 45120, Note_on_c, 5, 62, 58
7, 45252, Note_on_c, 5, 62, 0
7, 45840, Note_on_c, 5, 60, 70
7, 45960, Note_on_c, 5, 60, 0
7, 45960, Note_on_c, 5, 57, 70
7, 46080, Note_on_c, 5, 57, 0
7, 46080, Note_on_c, 5, 58, 70
7, 46212, Note_on_c, 5, 58, 0
7, 46800, Note_on_c, 5, 58, 70
7, 46932, Note_on_c, 5, 58, 0
7, 47040, Note_on_c, 5, 61, 70
7, 47280, Note_on_c, 5, 61, 0
7, 47280, Note_on_c, 5, 60, 70
7, 47472, Note_on_c, 5, 60, 0
7, 47760, Note_on_c, 5, 61, 70
7, 47892, Note_on_c, 5, 61, 0
7, 48000, Note_on_c, 5, 59, 70
7, 48240, Note_on_c, 5, 59, 0
7, 48240, Note_on_c, 5, 60, 70
7, 48432, Note_on_c, 5, 60, 0
7, 48720, Note_on_c, 5, 60, 70
7, 48852, Note_on_c, 5, 60, 0
7, 48960, Note_on_c, 5, 70, 70
7, 49200, Note_on_c, 5, 70, 0
7, 49200, Note_on_c, 5, 68, 70
7, 49392, Note_on_c, 5, 68, 0
7, 49680, Note_on_c, 5, 64, 70
7, 49812, Note_on_c, 5, 64, 0
7, 49920, Note_on_c, 5, 67, 70
7, 50160, Note_on_c, 5, 67, 0
7, 50160, Note_on_c, 5, 65, 70
7, 50352, Note_on_c, 5, 65, 0
7, 50640, Note_on_c, 5, 56, 70
7, 50772, Note_on_c, 5, 56, 0
7, 50880, Note_on_c, 5, 59, 70
7, 51120, Note_on_c, 5, 59, 0
7, 51120, Note_on_c, 5, 58, 70
7, 51312, Note_on_c, 5, 58, 0
7, 51600, Note_on_c, 5, 59, 70
7, 51732, Note_on_c, 5, 59, 0
7, 51840, Note_on_c, 5, 57, 70
7, 52080, Note_on_c, 5, 57, 0
7, 52080, Note_on_c, 5, 58, 70
7, 52272, Note_on_c, 5, 58, 0
7, 52560, Note_on_c, 5, 58, 70
7, 52692, Note_on_c, 5, 58, 0
7, 52800, Note_on_c, 5, 68, 70
7, 53040, Note_on_c, 5, 68, 0
7, 53040, Note_on_c, 5, 67, 70
7, 53232, Note_on_c, 5, 67, 0
7, 53520, Note_on_c, 5, 62, 70
7, 53652, Note_on_c, 5, 62, 0
7, 53760, Note_on_c, 5, 65, 70
7, 54000, Note_on_c, 5, 65, 0
7, 54000, Note_on_c, 5, 63, 70
7, 54192, Note_on_c, 5, 63, 0
7, 54240, Note_on_c, 5, 63, 70
7, 54320, Note_on_c, 5, 63, 0
7, 54320, Note_on_c, 5, 65, 70
7, 54400, Note_on_c, 5, 65, 0
7, 54400, Note_on_c, 5, 67, 70
7, 54464, Note_on_c, 5, 67, 0
7, 54480, Note_on_c, 5, 65, 70
7, 54528, Note_on_c, 5, 65, 0
7, 54560, Note_on_c, 5, 62, 70
7, 54608, Note_on_c, 5, 62, 0
7, 54640, Note_on_c, 5, 58, 70
7, 54688, Note_on_c, 5, 58, 0
7, 54720, Note_on_c, 5, 57, 70
7, 54800, Note_on_c, 5, 57, 0
7, 54800, Note_on_c, 5, 60, 70
7, 54880, Note_on_c, 5, 60, 0
7, 54880, Note_on_c, 5, 58, 70
7, 54944, Note_on_c, 5, 58, 0
7, 54960, Note_on_c, 5, 60, 70
7, 55008, Note_on_c, 5, 60, 0
7, 55040, Note_on_c, 5, 63, 70
7, 55088, Note_on_c, 5, 63, 0
7, 55120, Note_on_c, 5, 62, 70
7, 55168, Note_on_c, 5, 62, 0
7, 55200, Note_on_c, 5, 63, 70
7, 55264, Note_on_c, 5, 63, 0
7, 55280, Note_on_c, 5, 67, 70
7, 55360, Note_on_c, 5, 67, 0
7, 55360, Note_on_c, 5, 65, 70
7, 55424, Note_on_c, 5, 65, 0
7, 55440, Note_on_c, 5, 67, 70
7, 55488, Note_on_c, 5, 67, 0
7, 55520, Note_on_c, 5, 65, 70
7, 55568, Note_on_c, 5, 65, 0
7, 55600, Note_on_c, 5, 63, 70
7, 55648, Note_on_c, 5, 63, 0
7, 55680, Note_on_c, 5, 62, 70
7, 55760, Note_on_c, 5, 62, 0
7, 55760, Note_on_c, 5, 65, 70
7, 55840, Note_on_c, 5, 65, 0
7, 55840, Note_on_c, 5, 63, 70
7, 55904, Note_on_c, 5, 63, 0
7, 55920, Note_on_c, 5, 62, 70
7, 56000, Note_on_c, 5, 62, 0
7, 56000, Note_on_c, 5, 63, 70
7, 56080, Note_on_c, 5, 63, 0
7, 56080, Note_on_c, 5, 60, 70
7, 56144, Note_on_c, 5, 60, 0
7, 56160, Note_on_c, 5, 58, 70
7, 56292, Note_on_c, 5, 58, 0
7, 56400, Note_on_c, 5, 65, 70
7, 56532, Note_on_c, 5, 65, 0
7, 56640, Note_on_c, 5, 66, 70
7, 56880, Note_on_c, 5, 66, 0
7, 56880, Note_on_c, 5, 65, 70
7, 57072, Note_on_c, 5, 65, 0
7, 57360, Note_on_c, 5, 57, 70
7, 57492, Note_on_c, 5, 57, 0
7, 57600, Note_on_c, 5, 60, 70
7, 57840, Note_on_c, 5, 60, 0
7, 57840, Note_on_c, 5, 58, 70
7, 58032, Note_on_c, 5, 58, 0
7, 58800, Note_on_c, 5, 65, 80
7, 58920, Note_on_c, 5, 65, 0
7, 58920, Note_on_c, 5, 68, 80
7, 59016, Note_on_c, 5, 68, 0
7, 59040, Note_on_c, 5, 68, 92
7, 59160, Note_on_c, 5, 68, 0
7, 59160, Note_on_c, 5, 74, 92
7, 59256, Note_on_c, 5, 74, 0
7, 59280, Note_on_c, 5, 74, 105
7, 59400, Note_on_c, 5, 74, 0
7, 59400, Note_on_c, 5, 77, 105
7, 59496, Note_on_c, 5, 77, 0
7, 59520, Note_on_c, 5, 77, 105
7, 59976, Note_on_c, 5, 77, 0
7, 62160, Note_on_c, 5, 67, 70
7, 62400, Note_on_c, 5, 67, 0
7, 62400, Note_on_c, 5, 65, 70
7, 62640, Note_on_c, 5, 65, 0
7, 62640, Note_on_c, 5, 63, 70
7, 62832, Note_on_c, 5, 63, 0
7, 63120, Note_on_c, 5, 67, 70
7, 63360, Note_on_c, 5, 67, 0
7, 63360, Note_on_c, 5, 64, 70
7, 63600, Note_on_c, 5, 64, 0
7, 63600, Note_on_c, 5, 65, 70
7, 63792, Note_on_c, 5, 65, 0
7, 64080, Note_on_c, 5, 65, 70
7, 64320, Note_on_c, 5, 65, 0
7, 64320, Note_on_c, 5, 63, 70
7, 64560, Note_on_c, 5, 63, 0
7, 64560, Note_on_c, 5, 62, 70
7, 64752, Note_on_c, 5, 62, 0
7, 65040, Note_on_c, 5, 65, 70
7, 65280, Note_on_c, 5, 65, 0
7, 65280, Note_on_c, 5, 62, 70
7, 65520, Note_on_c, 5, 62, 0
7, 65520, Note_on_c, 5, 63, 70
7, 65712, Note_on_c, 5, 63, 0
7, 66000, Note_on_c, 5, 67, 70
7, 66132, Note_on_c, 5, 67, 0
7, 66240, Note_on_c, 5, 72, 70
7, 66480, Note_on_c, 5, 72, 0
7, 66480, Note_on_c, 5, 63, 70
7, 66672, Note_on_c, 5, 63, 0
7, 66960, Note_on_c, 5, 62, 70
7, 67092, Note_on_c, 5, 62, 0
7, 67200, Note_on_c, 5, 65, 70
7, 67440, Note_on_c, 5, 65, 0
7, 67440, Note_on_c, 5, 63, 70
7, 67632, Note_on_c, 5, 63, 0
7, 67920, Note_on_c, 5, 63, 70
7, 68052, Note_on_c, 5, 63, 0
7, 68160, Note_on_c, 5, 62, 70
7, 68400, Note_on_c, 5, 62, 0
7, 68400, Note_on_c, 5, 63, 70
7, 68592, Note_on_c, 5, 63, 0
7, 68880, Note_on_c, 5, 56, 70
7, 69120, Note_on_c, 5, 56, 0
7, 69120, Note_on_c, 5, 55, 58
7, 69240, Note_on_c, 5, 55, 0
7, 69240, Note_on_c, 5, 58, 58
7, 69336, Note_on_c, 5, 58, 0
7, 69360, Note_on_c, 5, 63, 58
7, 69480, Note_on_c, 5, 63, 0
7, 69480, Note_on_c, 5, 58, 58
7, 69576, Note_on_c, 5, 58, 0
7, 69600, Note_on_c, 5, 67, 58
7, 69720, Note_on_c, 5, 67, 0
7, 69720, Note_on_c, 5, 63, 58
7, 69840, Note_on_c, 5, 63, 0
7, 69840, Note_on_c, 5, 58, 58
7, 69960, Note_on_c, 5, 58, 0
7, 69960, Note_on_c, 5, 55, 58
7, 70056, Note_on_c, 5, 55, 0
7, 70080, Note_on_c, 5, 58, 58
7, 70200, Note_on_c, 5, 58, 0
7, 70200, Note_on_c, 5, 64, 58
7, 70296, Note_on_c, 5, 64, 0
7, 70320, Note_on_c, 5, 67, 58
7, 70440, Note_on_c, 5, 67, 0
7, 70440, Note_on_c, 5, 64, 58
7, 70536, Note_on_c, 5, 64, 0
7, 70560, Note_on_c, 5, 70, 58
7, 70680, Note_on_c, 5, 70, 0
7, 70680, Note_on_c, 5, 67, 58
7, 70800, Note_on_c, 5, 67, 0
7, 70800, Note_on_c, 5, 64, 58
7, 70920, Note_on_c, 5, 64, 0
7, 70920, Note_on_c, 5, 60, 58
7, 71016, Note_on_c, 5, 60, 0
7, 71040, Note_on_c, 5, 60, 58
7, 71160, Note_on_c, 5, 60, 0
7, 71160, Note_on_c, 5, 65, 58
7, 71256, Note_on_c, 5, 65, 0
7, 71280, Note_on_c, 5, 69, 58
7, 71400, Note_on_c, 5, 69, 0
7, 71400, Note_on_c, 5, 65, 58
7, 71496, Note_on_c, 5, 65, 0
7, 71520, Note_on_c, 5, 72, 58
7, 71640, Note_on_c, 5, 72, 0
7, 71640, Note_on_c, 5, 69, 58
7, 71760, Note_on_c, 5, 69, 0
7, 71760, Note_on_c, 5, 65, 58
7, 71880, Note_on_c, 5, 65, 0
7, 71880, Note_on_c, 5, 60, 58
7, 71976, Note_on_c, 5, 60, 0
7, 72000, Note_on_c, 5, 57, 58
7, 72120, Note_on_c, 5, 57, 0
7, 72120, Note_on_c, 5, 60, 58
7, 72216, Note_on_c, 5, 60, 0
7, 72240, Note_on_c, 5, 66, 58
7, 72360, Note_on_c, 5, 66, 0
7, 72360, Note_on_c, 5, 62, 58
7, 72456, Note_on_c, 5, 62, 0
7, 72480, Note_on_c, 5, 69, 58
7, 72600, Note_on_c, 5, 69, 0
7, 72600, Note_on_c, 5, 66, 58
7, 72720, Note_on_c, 5, 66, 0
7, 72720, Note_on_c, 5, 62, 58
7, 72840, Note_on_c, 5, 62, 0
7, 72840, Note_on_c, 5, 57, 58
7, 72936, Note_on_c, 5, 57, 0
7, 72960, Note_on_c, 5, 62, 58
7, 73080, Note_on_c, 5, 62, 0
7, 73080, Note_on_c, 5, 67, 58
7, 73200, Note_on_c, 5, 67, 0
7, 73200, Note_on_c, 5, 71, 58
7, 73320, Note_on_c, 5, 71, 0
7, 73320, Note_on_c, 5, 74, 58
7, 73416, Note_on_c, 5, 74, 0
7, 73440, Note_on_c, 5, 67, 58
7, 73536, Note_on_c, 5, 67, 0
7, 73560, Note_on_c, 5, 67, 58
7, 73656, Note_on_c, 5, 67, 0
7, 73680, Note_on_c, 5, 67, 58
7, 73776, Note_on_c, 5, 67, 0
7, 73800, Note_on_c, 5, 67, 58
7, 73896, Note_on_c, 5, 67, 0
7, 73920, Note_on_c, 5, 67, 58
7, 74016, Note_on_c, 5, 67, 0
7, 74040, Note_on_c, 5, 67, 58
7, 74136, Note_on_c, 5, 67, 0
7, 74160, Note_on_c, 5, 67, 58
7, 74256, Note_on_c, 5, 67, 0
7, 74280, Note_on_c, 5, 67, 58
7, 74376, Note_on_c, 5, 67, 0
7, 74400, Note_on_c, 5, 70, 58
7, 74496, Note_on_c, 5, 70, 0
7, 74520, Note_on_c, 5, 70, 58
7, 74616, Note_on_c, 5, 70, 0
7, 74640, Note_on_c, 5, 70, 58
7, 74736, Note_on_c, 5, 70, 0
7, 74760, Note_on_c, 5, 70, 58
7, 74856, Note_on_c, 5, 70, 0
7, 74880, Note_on_c, 5, 63, 58
7, 74976, Note_on_c, 5, 63, 0
7, 75000, Note_on_c, 5, 63, 58
7, 75096, Note_on_c, 5, 63, 0
7, 75120, Note_on_c, 5, 63, 58
7, 75216, Note_on_c, 5, 63, 0
7, 75240, Note_on_c, 5, 63, 58
7, 75336, Note_on_c, 5, 63, 0
7, 75360, Note_on_c, 5, 65, 58
7, 75456, Note_on_c, 5, 65, 0
7, 75480, Note_on_c, 5, 65, 58
7, 75576, Note_on_c, 5, 65, 0
7, 75600, Note_on_c, 5, 65, 58
7, 75696, Note_on_c, 5, 65, 0
7, 75720, Note_on_c, 5, 65, 58
7, 75816, Note_on_c, 5, 65, 0
7, 75840, Note_on_c, 5, 70, 58
7, 75936, Note_on_c, 5, 70, 0
7, 75960, Note_on_c, 5, 70, 58
7, 76056, Note_on_c, 5, 70, 0
7, 76080, Note_on_c, 5, 70, 58
7, 76176, Note_on_c, 5, 70, 0
7, 76200, Note_on_c, 5, 70, 58
7, 76296, Note_on_c, 5, 70, 0
7, 76320, Note_on_c, 5, 67, 58
7, 76416, Note_on_c, 5, 67, 0
7, 76440, Note_on_c, 5, 67, 58
7, 76536, Note_on_c, 5, 67, 0
7, 76560, Note_on_c, 5, 63, 58
7, 76656, Note_on_c, 5, 63, 0
7, 76680, Note_on_c, 5, 63, 58
7, 76776, Note_on_c, 5, 63, 0
7, 76800, Note_on_c, 5, 62, 58
7, 77184, Note_on_c, 5, 62, 0
7, 77520, Note_on_c, 5, 62, 58
7, 77760, Note_on_c, 5, 62, 0
7, 77760, Note_on_c, 5, 63, 70
7, 78000, Note_on_c, 5, 63, 0
7, 78000, Note_on_c, 5, 62, 70
7, 78192, Note_on_c, 5, 62, 0
7, 78480, Note_on_c, 5, 63, 70
7, 78600, Note_on_c, 5, 63, 0
7, 78600, Note_on_c, 5, 60, 70
7, 78696, Note_on_c, 5, 60, 0
7, 78720, Note_on_c, 5, 58, 70
7, 78960, Note_on_c, 5, 58, 0
7, 78960, Note_on_c, 5, 62, 70
7, 79152, Note_on_c, 5, 62, 0
7, 79440, Note_on_c, 5, 63, 70
7, 79680, Note_on_c, 5, 63, 0
7, 79680, Note_on_c, 5, 62, 70
7, 80064, Note_on_c, 5, 62, 0
7, 80880, Note_on_c, 5, 65, 58
7, 81120, Note_on_c, 5, 65, 0
7, 81120, Note_on_c, 5, 66, 58
7, 81312, Note_on_c, 5, 66, 0
7, 81840, Note_on_c, 5, 62, 70
7, 82080, Note_on_c, 5, 62, 0
7, 82080, Note_on_c, 5, 63, 70
7, 82272, Note_on_c, 5, 63, 0
7, 83520, Note_on_c, 5, 77, 70
7, 83652, Note_on_c, 5, 77, 0
7, 83760, Note_on_c, 5, 74, 70
7, 83892, Note_on_c, 5, 74, 0
7, 84480, Note_on_c, 5, 55, 70
7, 84540, Note_on_c, 5, 55, 0
7, 84540, Note_on_c, 5, 58, 70
7, 84600, Note_on_c, 5, 58, 0
7, 84600, Note_on_c, 5, 55, 70
7, 84660, Note_on_c, 5, 55, 0
7, 84660, Note_on_c, 5, 58, 70
7, 84720, Note_on_c, 5, 58, 0
7, 84720, Note_on_c, 5, 55, 70
7, 84780, Note_on_c, 5, 55, 0
7, 84780, Note_on_c, 5, 58, 70
7, 84840, Note_on_c, 5, 58, 0
7, 84840, Note_on_c, 5, 55, 70
7, 84900, Note_on_c, 5, 55, 0
7, 84900, Note_on_c, 5, 58, 70
7, 84960, Note_on_c, 5, 58, 0
7, 84960, Note_on_c, 5, 55, 70
7, 85020, Note_on_c, 5, 55, 0
7, 85020, Note_on_c, 5, 58, 70
7, 85080, Note_on_c, 5, 58, 0
7, 85080, Note_on_c, 5, 55, 70
7, 85140, Note_on_c, 5, 55, 0
7, 85140, Note_on_c, 5, 58, 70
7, 85200, Note_on_c, 5, 58, 0
7, 85200, Note_on_c, 5, 55, 70
7, 85260, Note_on_c, 5, 55, 0
7, 85260, Note_on_c, 5, 58, 70
7, 85320, Note_on_c, 5, 58, 0
7, 85320, Note_on_c, 5, 55, 70
7, 85380, Note_on_c, 5, 55, 0
7, 85380, Note_on_c, 5, 58, 70
7, 85440, Note_on_c, 5, 58, 0
7, 85440, Note_on_c, 5, 56, 70
7, 85500, Note_on_c, 5, 56, 0
7, 85500, Note_on_c, 5, 58, 70
7, 85560, Note_on_c, 5, 58, 0
7, 85560, Note_on_c, 5, 56, 70
7, 85620, Note_on_c, 5, 56, 0
7, 85620, Note_on_c, 5, 58, 70
7, 85680, Note_on_c, 5, 58, 0
7, 85680, Note_on_c, 5, 56, 70
7, 85740, Note_on_c, 5, 56, 0
7, 85740, Note_on_c, 5, 58, 70
7, 85800, Note_on_c, 5, 58, 0
7, 85800, Note_on_c, 5, 56, 70
7, 85860, Note_on_c, 5, 56, 0
7, 85860, Note_on_c, 5, 58, 70
7, 85908, Note_on_c, 5, 58, 0
7, 85920, Note_on_c, 5, 56, 70
7, 85980, Note_on_c, 5, 56, 0
7, 85980, Note_on_c, 5, 58, 70
7, 86040, Note_on_c, 5, 58, 0
7, 86040, Note_on_c, 5, 56, 70
7, 86100, Note_on_c, 5, 56, 0
7, 86100, Note_on_c, 5, 58, 70
7, 86160, Note_on_c, 5, 58, 0
7, 86160, Note_on_c, 5, 62, 70
7, 86220, Note_on_c, 5, 62, 0
7, 86220, Note_on_c, 5, 58, 70
7, 86280, Note_on_c, 5, 58, 0
7, 86280, Note_on_c, 5, 65, 70
7, 86340, Note_on_c, 5, 65, 0
7, 86340, Note_on_c, 5, 62, 70
7, 86388, Note_on_c, 5, 62, 0
7, 86400, Note_on_c, 5, 63, 70
7, 86460, Note_on_c, 5, 63, 0
7, 86460, Note_on_c, 5, 58, 70
7, 86520, Note_on_c, 5, 58, 0
7, 86520, Note_on_c, 5, 55, 70
7, 86580, Note_on_c, 5, 55, 0
7, 86580, Note_on_c, 5, 58, 70
7, 86640, Note_on_c, 5, 58, 0
7, 86640, Note_on_c, 5, 55, 70
7, 86700, Note_on_c, 5, 55, 0
7, 86700, Note_on_c, 5, 58, 70
7, 86760, Note_on_c, 5, 58, 0
7, 86760, Note_on_c, 5, 55, 70
7, 86820, Note_on_c, 5, 55, 0
7, 86820, Note_on_c, 5, 58, 70
7, 86880, Note_on_c, 5, 58, 0
7, 86880, Note_on_c, 5, 55, 70
7, 86940, Note_on_c, 5, 55, 0
7, 86940, Note_on_c, 5, 58, 70
7, 87000, Note_on_c, 5, 58, 0
7, 87000, Note_on_c, 5, 55, 70
7, 87060, Note_on_c, 5, 55, 0
7, 87060, Note_on_c, 5, 58, 70
7, 87120, Note_on_c, 5, 58, 0
7, 87120, Note_on_c, 5, 55, 70
7, 87180, Note_on_c, 5, 55, 0
7, 87180, Note_on_c, 5, 58, 70
7, 87240, Note_on_c, 5, 58, 0
7, 87240, Note_on_c, 5, 55, 70
7, 87300, Note_on_c, 5, 55, 0
7, 87300, Note_on_c, 5, 58, 70
7, 87360, Note_on_c, 5, 58, 0
7, 87360, Note_on_c, 5, 56, 70
7, 87420, Note_on_c, 5, 56, 0
7, 87420, Note_on_c, 5, 58, 70
7, 87480, Note_on_c, 5, 58, 0
7, 87480, Note_on_c, 5, 56, 70
7, 87540, Note_on_c, 5, 56, 0
7, 87540, Note_on_c, 5, 58, 70
7, 87600, Note_on_c, 5, 58, 0
7, 87600, Note_on_c, 5, 56, 70
7, 87660, Note_on_c, 5, 56, 0
7, 87660, Note_on_c, 5, 58, 70
7, 87720, Note_on_c, 5, 58, 0
7, 87720, Note_on_c, 5, 56, 70
7, 87780, Note_on_c, 5, 56, 0
7, 87780, Note_on_c, 5, 58, 70
7, 87828, Note_on_c, 5, 58, 0
7, 87840, Note_on_c, 5, 56, 70
7, 87900, Note_on_c, 5, 56, 0
7, 87900, Note_on_c, 5, 58, 70
7, 87960, Note_on_c, 5, 58, 0
7, 87960, Note_on_c, 5, 56, 70
7, 88020, Note_on_c, 5, 56, 0
7, 88020, Note_on_c, 5, 58, 70
7, 88080, Note_on_c, 5, 58, 0
7, 88080, Note_on_c, 5, 62, 70
7, 88140, Note_on_c, 5, 62, 0
7, 88140, Note_on_c, 5, 58, 70
7, 88200, Note_on_c, 5, 58, 0
7, 88200, Note_on_c, 5, 65, 70
7, 88260, Note_on_c, 5, 65, 0
7, 88260, Note_on_c, 5, 62, 70
7, 88308, Note_on_c, 5, 62, 0
7, 88320, Note_on_c, 5, 63, 70
7, 88704, Note_on_c, 5, 63, 0
7, 89040, Note_on_c, 5, 72, 70
7, 89160, Note_on_c, 5, 72, 0
7, 89160, Note_on_c, 5, 68, 70
7, 89280, Note_on_c, 5, 68, 0
7, 89280, Note_on_c, 5, 67, 70
7, 89412, Note_on_c, 5, 67, 0
7, 90000, Note_on_c, 5, 65, 70
7, 90120, Note_on_c, 5, 65, 0
7, 90120, Note_on_c, 5, 62, 70
7, 90240, Note_on_c, 5, 62, 0
7, 90240, Note_on_c, 5, 63, 70
7, 90372, Note_on_c, 5, 63, 0
7, 90960, Note_on_c, 5, 72, 70
7, 91080, Note_on_c, 5, 72, 0
7, 91080, Note_on_c, 5, 68, 70
7, 91200, Note_on_c, 5, 68, 0
7, 91200, Note_on_c, 5, 67, 70
7, 91332, Note_on_c, 5, 67, 0
7, 91920, Note_on_c, 5, 65, 70
7, 92040, Note_on_c, 5, 65, 0
7, 92040, Note_on_c, 5, 62, 70
7, 92160, Note_on_c, 5, 62, 0
7, 92160, Note_on_c, 5, 63, 58
7, 92292, Note_on_c, 5, 63, 0
7, 92292, End_track
8, 0, Start_track
8, 0, Program_c, 6, 48
8, 0, Control_c, 6, 7, 127
8, 0, Control_c, 6, 10, 80
8, 0, Control_c, 6, 91, 70
8, 960, Note_on_c, 6, 50, 58
8, 1200, Note_on_c, 6, 50, 0
8, 1200, Note_on_c, 6, 51, 58
8, 1392, Note_on_c, 6, 51, 0
8, 1920, Note_on_c, 6, 55, 58
8, 2160, Note_on_c, 6, 55, 0
8, 2160, Note_on_c, 6, 53, 58
8, 2352, Note_on_c, 6, 53, 0
8, 2880, Note_on_c, 6, 57, 58
8, 3120, Note_on_c, 6, 57, 0
8, 3120, Note_on_c, 6, 58, 58
8, 3312, Note_on_c, 6, 58, 0
8, 3840, Note_on_c, 6, 53, 58
8, 4080, Note_on_c, 6, 53, 0
8, 4080, Note_on_c, 6, 51, 58
8, 4272, Note_on_c, 6, 51, 0
8, 4800, Note_on_c, 6, 56, 58
8, 5040, Note_on_c, 6, 56, 0
8, 5040, Note_on_c, 6, 60, 58
8, 5232, Note_on_c, 6, 60, 0
8, 5760, Note_on_c, 6, 59, 58
8, 6000, Note_on_c, 6, 59, 0
8, 6000, Note_on_c, 6, 60, 58
8, 6192, Note_on_c, 6, 60, 0
8, 6720, Note_on_c, 6, 56, 58
8, 6960, Note_on_c, 6, 56, 0
8, 6960, Note_on_c, 6, 55, 58
8, 7152, Note_on_c, 6, 55, 0
8, 7440, Note_on_c, 6, 53, 58
8, 7680, Note_on_c, 6, 53, 0
8, 7680, Note_on_c, 6, 51, 58
8, 8064, Note_on_c, 6, 51, 0
8, 8640, Note_on_c, 6, 60, 58
8, 8760, Note_on_c, 6, 60, 0
8, 8760, Note_on_c, 6, 57, 58
8, 8880, Note_on_c, 6, 57, 0
8, 8880, Note_on_c, 6, 53, 58
8, 9072, Note_on_c, 6, 53, 0
8, 9840, Note_on_c, 6, 65, 78
8, 10080, Note_on_c, 6, 65, 0
8, 10080, Note_on_c, 6, 57, 58
8, 10320, Note_on_c, 6, 57, 0
8, 10320, Note_on_c, 6, 58, 58
8, 10512, Note_on_c, 6, 58, 0
8, 10800, Note_on_c, 6, 57, 78
8, 11040, Note_on_c, 6, 57, 0
8, 11040, Note_on_c, 6, 58, 58
8, 11280, Note_on_c, 6, 58, 0
8, 11280, Note_on_c, 6, 51, 58
8, 11472, Note_on_c, 6, 51, 0
8, 11520, Note_on_c, 6, 53, 58
8, 11712, Note_on_c, 6, 53, 0
8, 11760, Note_on_c, 6, 65, 58
8, 12000, Note_on_c, 6, 65, 0
8, 12000, Note_on_c, 6, 64, 58
8, 12192, Note_on_c, 6, 64, 0
8, 12720, Note_on_c, 6, 57, 58
8, 12960, Note_on_c, 6, 57, 0
8, 12960, Note_on_c, 6, 58, 58
8, 13152, Note_on_c, 6, 58, 0
8, 14400, Note_on_c, 6, 72, 58
8, 14532, Note_on_c, 6, 72, 0
8, 14640, Note_on_c, 6, 69, 58
8, 14772, Note_on_c, 6, 69, 0
8, 15600, Note_on_c, 6, 58, 58
8, 15732, Note_on_c, 6, 58, 0
8, 15840, Note_on_c, 6, 62, 58
8, 15972, Note_on_c, 6, 62, 0
8, 16080, Note_on_c, 6, 58, 58
8, 16212, Note_on_c, 6, 58, 0
8, 16560, Note_on_c, 6, 60, 58
8, 16692, Note_on_c, 6, 60, 0
8, 16800, Note_on_c, 6, 53, 58
8, 16932, Note_on_c, 6, 53, 0
8, 17040, Note_on_c, 6, 57, 58
8, 17172, Note_on_c, 6, 57, 0
8, 17520, Note_on_c, 6, 58, 58
8, 17652, Note_on_c, 6, 58, 0
8, 17760, Note_on_c, 6, 62, 58
8, 17892, Note_on_c, 6, 62, 0
8, 18000, Note_on_c, 6, 58, 58
8, 18132, Note_on_c, 6, 58, 0
8, 18480, Note_on_c, 6, 60, 58
8, 18612, Note_on_c, 6, 60, 0
8, 18720, Note_on_c, 6, 53, 58
8, 18852, Note_on_c, 6, 53, 0
8, 18960, Note_on_c, 6, 57, 58
8, 19092, Note_on_c, 6, 57, 0
8, 19200, Note_on_c, 6, 58, 58
8, 19332, Note_on_c, 6, 58, 0
8, 19440, Note_on_c, 6, 50, 58
8, 19680, Note_on_c, 6, 50, 0
8, 19680, Note_on_c, 6, 51, 58
8, 19872, Note_on_c, 6, 51, 0
8, 20400, Note_on_c, 6, 52, 58
8, 20640, Note_on_c, 6, 52, 0
8, 20640, Note_on_c, 6, 53, 58
8, 20832, Note_on_c, 6, 53, 0
8, 21360, Note_on_c, 6, 54, 58
8, 21600, Note_on_c, 6, 54, 0
8, 21600, Note_on_c, 6, 55, 58
8, 21792, Note_on_c, 6, 55, 0
8, 22320, Note_on_c, 6, 52, 58
8, 22560, Note_on_c, 6, 52, 0
8, 22560, Note_on_c, 6, 53, 58
8, 22752, Note_on_c, 6, 53, 0
8, 23280, Note_on_c, 6, 57, 58
8, 23520, Note_on_c, 6, 57, 0
8, 23520, Note_on_c, 6, 58, 58
8, 23712, Note_on_c, 6, 58, 0
8, 24000, Note_on_c, 6, 50, 58
8, 24240, Note_on_c, 6, 50, 0
8, 24240, Note_on_c, 6, 51, 58
8, 24432, Note_on_c, 6, 51, 0
8, 24960, Note_on_c, 6, 55, 58
8, 25200, Note_on_c, 6, 55, 0
8, 25200, Note_on_c, 6, 53, 58
8, 25392, Note_on_c, 6, 53, 0
8, 25920, Note_on_c, 6, 57, 58
8, 26160, Note_on_c, 6, 57, 0
8, 26160, Note_on_c, 6, 58, 58
8, 26352, Note_on_c, 6, 58, 0
8, 26880, Note_on_c, 6, 53, 58
8, 27120, Note_on_c, 6, 53, 0
8, 27120, Note_on_c, 6, 51, 58
8, 27312, Note_on_c, 6, 51, 0
8, 27840, Note_on_c, 6, 56, 58
8, 28080, Note_on_c, 6, 56, 0
8, 28080, Note_on_c, 6, 60, 58
8, 28272, Note_on_c, 6, 60, 0
8, 28800, Note_on_c, 6, 59, 58
8, 29040, Note_on_c, 6, 59, 0
8, 29040, Note_on_c, 6, 60, 58
8, 29232, Note_on_c, 6, 60, 0
8, 29760, Note_on_c, 6, 56, 58
8, 30000, Note_on_c, 6, 56, 0
8, 30000, Note_on_c, 6, 55, 58
8, 30192, Note_on_c, 6, 55, 0
8, 30480, Note_on_c, 6, 53, 58
8, 30720, Note_on_c, 6, 53, 0
8, 30720, Note_on_c, 6, 51, 58
8, 31104, Note_on_c, 6, 51, 0
8, 31680, Note_on_c, 6, 60, 58
8, 31800, Note_on_c, 6, 60, 0
8, 31800, Note_on_c, 6, 57, 58
8, 31920, Note_on_c, 6, 57, 0
8, 31920, Note_on_c, 6, 53, 58
8, 32112, Note_on_c, 6, 53, 0
8, 32880, Note_on_c, 6, 65, 78
8, 33120, Note_on_c, 6, 65, 0
8, 33120, Note_on_c, 6, 57, 58
8, 33360, Note_on_c, 6, 57, 0
8, 33360, Note_on_c, 6, 58, 58
8, 33552, Note_on_c, 6, 58, 0
8, 33840, Note_on_c, 6, 57, 78
8, 34080, Note_on_c, 6, 57, 0
8, 34080, Note_on_c, 6, 58, 58
8, 34320, Note_on_c, 6, 58, 0
8, 34320, Note_on_c, 6, 51, 58
8, 34512, Note_on_c, 6, 51, 0
8, 34560, Note_on_c, 6, 53, 58
8, 34752, Note_on_c, 6, 53, 0
8, 34800, Note_on_c, 6, 65, 58
8, 35040, Note_on_c, 6, 65, 0
8, 35040, Note_on_c, 6, 64, 58
8, 35232, Note_on_c, 6, 64, 0
8, 35760, Note_on_c, 6, 57, 58
8, 36000, Note_on_c, 6, 57, 0
8, 36000, Note_on_c, 6, 58, 58
8, 36192, Note_on_c, 6, 58, 0
8, 37440, Note_on_c, 6, 72, 58
8, 37572, Note_on_c, 6, 72, 0
8, 37680, Note_on_c, 6, 69, 58
8, 37812, Note_on_c, 6, 69, 0
8, 38640, Note_on_c, 6, 58, 58
8, 38772, Note_on_c, 6, 58, 0
8, 38880, Note_on_c, 6, 62, 58
8, 39012, Note_on_c, 6, 62, 0
8, 39120, Note_on_c, 6, 58, 58
8, 39252, Note_on_c, 6, 58, 0
8, 39600, Note_on_c, 6, 60, 58
8, 39732, Note_on_c, 6, 60, 0
8, 39840, Note_on_c, 6, 53, 58
8, 39972, Note_on_c, 6, 53, 0
8, 40080, Note_on_c, 6, 57, 58
8, 40212, Note_on_c, 6, 57, 0
8, 40560, Note_on_c, 6, 58, 58
8, 40692, Note_on_c, 6, 58, 0
8, 40800, Note_on_c, 6, 62, 58
8, 40932, Note_on_c, 6, 62, 0
8, 41040, Note_on_c, 6, 58, 58
8, 41172, Note_on_c, 6, 58, 0
8, 41520, Note_on_c, 6, 60, 58
8, 41652, Note_on_c, 6, 60, 0
8, 41760, Note_on_c, 6, 53, 58
8, 41892, Note_on_c, 6, 53, 0
8, 42000, Note_on_c, 6, 57, 58
8, 42132, Note_on_c, 6, 57, 0
8, 42240, Note_on_c, 6, 58, 58
8, 42372, Note_on_c, 6, 58, 0
8, 42480, Note_on_c, 6, 50, 58
8, 42720, Note_on_c, 6, 50, 0
8, 42720, Note_on_c, 6, 51, 58
8, 42912, Note_on_c, 6, 51, 0
8, 43440, Note_on_c, 6, 52, 58
8, 43680, Note_on_c, 6, 52, 0
8, 43680, Note_on_c, 6, 53, 58
8, 43872, Note_on_c, 6, 53, 0
8, 44400, Note_on_c, 6, 54, 58
8, 44640, Note_on_c, 6, 54, 0
8, 44640, Note_on_c, 6, 55, 58
8, 44832, Note_on_c, 6, 55, 0
8, 45360, Note_on_c, 6, 52, 58
8, 45600, Note_on_c, 6, 52, 0
8, 45600, Note_on_c, 6, 53, 58
8, 45792, Note_on_c, 6, 53, 0
8, 46320, Note_on_c, 6, 57, 58
8, 46560, Note_on_c, 6, 57, 0
8, 46560, Note_on_c, 6, 58, 58
8, 46752, Note_on_c, 6, 58, 0
8, 47280, Note_on_c, 6, 55, 58
8, 47520, Note_on_c, 6, 55, 0
8, 47520, Note_on_c, 6, 56, 58
8, 47712, Note_on_c, 6, 56, 0
8, 48240, Note_on_c, 6, 56, 58
8, 48480, Note_on_c, 6, 56, 0
8, 48480, Note_on_c, 6, 55, 58
8, 48672, Note_on_c, 6, 55, 0
8, 49200, Note_on_c, 6, 65, 58
8, 49440, Note_on_c, 6, 65, 0
8, 49440, Note_on_c, 6, 68, 58
8, 49680, Note_on_c, 6, 68, 0
8, 49680, Note_on_c, 6, 67, 58
8, 49872, Note_on_c, 6, 67, 0
8, 50160, Note_on_c, 6, 60, 58
8, 50400, Note_on_c, 6, 60, 0
8, 50400, Note_on_c, 6, 56, 58
8, 50784, Note_on_c, 6, 56, 0
8, 51120, Note_on_c, 6, 53, 58
8, 51360, Note_on_c, 6, 53, 0
8, 51360, Note_on_c, 6, 54, 58
8, 51552, Note_on_c, 6, 54, 0
8, 52080, Note_on_c, 6, 54, 58
8, 52320, Note_on_c, 6, 54, 0
8, 52320, Note_on_c, 6, 53, 58
8, 52512, Note_on_c, 6, 53, 0
8, 53040, Note_on_c, 6, 70, 58
8, 53280, Note_on_c, 6, 70, 0
8, 53280, Note_on_c, 6, 63, 58
8, 53520, Note_on_c, 6, 63, 0
8, 53520, Note_on_c, 6, 65, 58
8, 53712, Note_on_c, 6, 65, 0
8, 53760, Note_on_c, 6, 68, 58
8, 54000, Note_on_c, 6, 68, 0
8, 54000, Note_on_c, 6, 67, 58
8, 54192, Note_on_c, 6, 67, 0
8, 54960, Note_on_c, 6, 51, 58
8, 55392, Note_on_c, 6, 51, 0
8, 55440, Note_on_c, 6, 63, 58
8, 55488, Note_on_c, 6, 63, 0
8, 55520, Note_on_c, 6, 62, 58
8, 55568, Note_on_c, 6, 62, 0
8, 55600, Note_on_c, 6, 60, 58
8, 55648, Note_on_c, 6, 60, 0
8, 55680, Note_on_c, 6, 58, 58
8, 56064, Note_on_c, 6, 58, 0
8, 56400, Note_on_c, 6, 65, 58
8, 56532, Note_on_c, 6, 65, 0
8, 56640, Note_on_c, 6, 66, 58
8, 56880, Note_on_c, 6, 66, 0
8, 56880, Note_on_c, 6, 65, 58
8, 57072, Note_on_c, 6, 65, 0
8, 57360, Note_on_c, 6, 57, 58
8, 57492, Note_on_c, 6, 57, 0
8, 57600, Note_on_c, 6, 60, 58
8, 57840, Note_on_c, 6, 60, 0
8, 57840, Note_on_c, 6, 58, 58
8, 58032, Note_on_c, 6, 58, 0
8, 58800, Note_on_c, 6, 62, 58
8, 58920, Note_on_c, 6, 62, 0
8, 58920, Note_on_c, 6, 65, 80
8, 59016, Note_on_c, 6, 65, 0
8, 59040, Note_on_c, 6, 65, 92
8, 59160, Note_on_c, 6, 65, 0
8, 59160, Note_on_c, 6, 68, 92
8, 59256, Note_on_c, 6, 68, 0
8, 59280, Note_on_c, 6, 68, 105
8, 59400, Note_on_c, 6, 68, 0
8, 59400, Note_on_c, 6, 62, 105
8, 59496, Note_on_c, 6, 62, 0
8, 59520, Note_on_c, 6, 62, 105
8, 59976, Note_on_c, 6, 62, 0
8, 62400, Note_on_c, 6, 50, 105
8, 62640, Note_on_c, 6, 50, 0
8, 62640, Note_on_c, 6, 51, 58
8, 62832, Note_on_c, 6, 51, 0
8, 63360, Note_on_c, 6, 55, 58
8, 63600, Note_on_c, 6, 55, 0
8, 63600, Note_on_c, 6, 53, 58
8, 63792, Note_on_c, 6, 53, 0
8, 64320, Note_on_c, 6, 57, 58
8, 64560, Note_on_c, 6, 57, 0
8, 64560, Note_on_c, 6, 58, 58
8, 64752, Note_on_c, 6, 58, 0
8, 65280, Note_on_c, 6, 53, 58
8, 65520, Note_on_c, 6, 53, 0
8, 65520, Note_on_c, 6, 51, 58
8, 65712, Note_on_c, 6, 51, 0
8, 66240, Note_on_c, 6, 56, 58
8, 66480, Note_on_c, 6, 56, 0
8, 66480, Note_on_c, 6, 60, 58
8, 66672, Note_on_c, 6, 60, 0
8, 67200, Note_on_c, 6, 59, 58
8, 67440, Note_on_c, 6, 59, 0
8, 67440, Note_on_c, 6, 60, 58
8, 67632, Note_on_c, 6, 60, 0
8, 68160, Note_on_c, 6, 56, 58
8, 68400, Note_on_c, 6, 56, 0
8, 68400, Note_on_c, 6, 55, 58
8, 68592, Note_on_c, 6, 55, 0
8, 68880, Note_on_c, 6, 53, 58
8, 69120, Note_on_c, 6, 53, 0
8, 69120, Note_on_c, 6, 51, 58
8, 69504, Note_on_c, 6, 51, 0
8, 69840, Note_on_c, 6, 58, 58
8, 69840, Note_on_c, 6, 67, 58
8, 70032, Note_on_c, 6, 67, 0
8, 70032, Note_on_c, 6, 58, 0
8, 70080, Note_on_c, 6, 58, 58
8, 70080, Note_on_c, 6, 67, 58
8, 70464, Note_on_c, 6, 67, 0
8, 70464, Note_on_c, 6, 58, 0
8, 70800, Note_on_c, 6, 67, 58
8, 70800, Note_on_c, 6, 58, 58
8, 71040, Note_on_c, 6, 58, 0
8, 71040, Note_on_c, 6, 67, 0
8, 71040, Note_on_c, 6, 57, 58
8, 71040, Note_on_c, 6, 65, 58
8, 71424, Note_on_c, 6, 65, 0
8, 71424, Note_on_c, 6, 57, 0
8, 71760, Note_on_c, 6, 69, 58
8, 71760, Note_on_c, 6, 60, 58
8, 71952, Note_on_c, 6, 60, 0
8, 71952, Note_on_c, 6, 69, 0
8, 72000, Note_on_c, 6, 60, 58
8, 72000, Note_on_c, 6, 69, 58
8, 72384, Note_on_c, 6, 69, 0
8, 72384, Note_on_c, 6, 60, 0
8, 72720, Note_on_c, 6, 60, 58
8, 72720, Note_on_c, 6, 69, 58
8, 72912, Note_on_c, 6, 60, 0
8, 72960, Note_on_c, 6, 69, 0
8, 72960, Note_on_c, 6, 67, 58
8, 72960, Note_on_c, 6, 59, 58
8, 73344, Note_on_c, 6, 59, 0
8, 73344, Note_on_c, 6, 67, 0
8, 73680, Note_on_c, 6, 59, 58
8, 73680, Note_on_c, 6, 62, 58
8, 73812, Note_on_c, 6, 62, 0
8, 73872, Note_on_c, 6, 59, 0
8, 73920, Note_on_c, 6, 59, 58
8, 73920, Note_on_c, 6, 62, 58
8, 74112, Note_on_c, 6, 59, 0
8, 74160, Note_on_c, 6, 62, 0
8, 74160, Note_on_c, 6, 63, 58
8, 74160, Note_on_c, 6, 60, 58
8, 74352, Note_on_c, 6, 60, 0
8, 74352, Note_on_c, 6, 63, 0
8, 74640, Note_on_c, 6, 61, 58
8, 74640, Note_on_c, 6, 58, 58
8, 74772, Note_on_c, 6, 61, 0
8, 74832, Note_on_c, 6, 58, 0
8, 74880, Note_on_c, 6, 61, 58
8, 74880, Note_on_c, 6, 58, 58
8, 75072, Note_on_c, 6, 58, 0
8, 75120, Note_on_c, 6, 61, 0
8, 75120, Note_on_c, 6, 60, 58
8, 75120, Note_on_c, 6, 56, 58
8, 75312, Note_on_c, 6, 56, 0
8, 75312, Note_on_c, 6, 60, 0
8, 75600, Note_on_c, 6, 58, 58
8, 75600, Note_on_c, 6, 62, 58
8, 75732, Note_on_c, 6, 62, 0
8, 75792, Note_on_c, 6, 58, 0
8, 75840, Note_on_c, 6, 63, 58
8, 75840, Note_on_c, 6, 58, 58
8, 76080, Note_on_c, 6, 63, 0
8, 76080, Note_on_c, 6, 67, 58
8, 76272, Note_on_c, 6, 67, 0
8, 76272, Note_on_c, 6, 58, 0
8, 76560, Note_on_c, 6, 63, 58
8, 76560, Note_on_c, 6, 53, 58
8, 76692, Note_on_c, 6, 63, 0
8, 76752, Note_on_c, 6, 53, 0
8, 76800, Note_on_c, 6, 62, 58
8, 76800, Note_on_c, 6, 53, 58
8, 77184, Note_on_c, 6, 53, 0
8, 77184, Note_on_c, 6, 62, 0
8, 77760, Note_on_c, 6, 58, 58
8, 78144, Note_on_c, 6, 58, 0
8, 78960, Note_on_c, 6, 58, 78
8, 79200, Note_on_c, 6, 58, 0
8, 79200, Note_on_c, 6, 50, 58
8, 79440, Note_on_c, 6, 50, 0
8, 79440, Note_on_c, 6, 51, 58
8, 79632, Note_on_c, 6, 51, 0
8, 79680, Note_on_c, 6, 58, 58
8, 79920, Note_on_c, 6, 58, 0
8, 79920, Note_on_c, 6, 56, 58
8, 80160, Note_on_c, 6, 56, 0
8, 80160, Note_on_c, 6, 54, 58
8, 80400, Note_on_c, 6, 54, 0
8, 80400, Note_on_c, 6, 56, 58
8, 80592, Note_on_c, 6, 56, 0
8, 80640, Note_on_c, 6, 58, 58
8, 80820, Note_on_c, 6, 58, 0
8, 80880, Note_on_c, 6, 62, 58
8, 81120, Note_on_c, 6, 62, 0
8, 81120, Note_on_c, 6, 63, 58
8, 81312, Note_on_c, 6, 63, 0
8, 81840, Note_on_c, 6, 58, 58
8, 82080, Note_on_c, 6, 58, 0
8, 82080, Note_on_c, 6, 57, 58
8, 82272, Note_on_c, 6, 57, 0
8, 83040, Note_on_c, 6, 65, 58
8, 83172, Note_on_c, 6, 65, 0
8, 83280, Note_on_c, 6, 62, 58
8, 83412, Note_on_c, 6, 62, 0
8, 84720, Note_on_c, 6, 51, 58
8, 84864, Note_on_c, 6, 51, 0
8, 84960, Note_on_c, 6, 55, 58
8, 85104, Note_on_c, 6, 55, 0
8, 85200, Note_on_c, 6, 51, 58
8, 85344, Note_on_c, 6, 51, 0
8, 85680, Note_on_c, 6, 58, 58
8, 85824, Note_on_c, 6, 58, 0
8, 85920, Note_on_c, 6, 53, 58
8, 86064, Note_on_c, 6, 53, 0
8, 86160, Note_on_c, 6, 53, 58
8, 86304, Note_on_c, 6, 53, 0
8, 86640, Note_on_c, 6, 51, 58
8, 86784, Note_on_c, 6, 51, 0
8, 86880, Note_on_c, 6, 55, 58
8, 87024, Note_on_c, 6, 55, 0
8, 87120, Note_on_c, 6, 51, 58
8, 87264, Note_on_c, 6, 51, 0
8, 87600, Note_on_c, 6, 58, 58
8, 87744, Note_on_c, 6, 58, 0
8, 87840, Note_on_c, 6, 53, 58
8, 87984, Note_on_c, 6, 53, 0
8, 88080, Note_on_c, 6, 53, 58
8, 88224, Note_on_c, 6, 53, 0
8, 88320, Note_on_c, 6, 51, 58
8, 88452, Note_on_c, 6, 51, 0
8, 88560, Note_on_c, 6, 55, 58
8, 88800, Note_on_c, 6, 55, 0
8, 88800, Note_on_c, 6, 56, 58
8, 88992, Note_on_c, 6, 56, 0
8, 89520, Note_on_c, 6, 57, 58
8, 89760, Note_on_c, 6, 57, 0
8, 89760, Note_on_c, 6, 58, 58
8, 89952, Note_on_c, 6, 58, 0
8, 90480, Note_on_c, 6, 59, 58
8, 90720, Note_on_c, 6, 59, 0
8, 90720, Note_on_c, 6, 60, 58
8, 90912, Note_on_c, 6, 60, 0
8, 91440, Note_on_c, 6, 57, 58
8, 91680, Note_on_c, 6, 57, 0
8, 91680, Note_on_c, 6, 58, 58
8, 91872, Note_on_c, 6, 58, 0
8, 92400, Note_on_c, 6, 50, 58
8, 92640, Note_on_c, 6, 50, 0
8, 92640, Note_on_c, 6, 51, 58
8, 92832, Note_on_c, 6, 51, 0
8, 92832, End_track
9, 0, Start_track
9, 0, Program_c, 7, 48
9, 0, Control_c, 7, 7, 127
9, 0, Control_c, 7, 10, 91
9, 0, Control_c, 7, 91, 85
9, 1200, Note_on_c, 7, 51, 58
9, 1392, Note_on_c, 7, 51, 0
9, 1440, Note_on_c, 7, 39, 58
9, 1824, Note_on_c, 7, 39, 0
9, 2160, Note_on_c, 7, 53, 58
9, 2352, Note_on_c, 7, 53, 0
9, 2400, Note_on_c, 7, 41, 58
9, 2784, Note_on_c, 7, 41, 0
9, 3120, Note_on_c, 7, 58, 58
9, 3312, Note_on_c, 7, 58, 0
9, 3360, Note_on_c, 7, 46, 58
9, 3744, Note_on_c, 7, 46, 0
9, 4080, Note_on_c, 7, 51, 58
9, 4272, Note_on_c, 7, 51, 0
9, 4320, Note_on_c, 7, 39, 58
9, 4704, Note_on_c, 7, 39, 0
9, 5040, Note_on_c, 7, 56, 78
9, 5280, Note_on_c, 7, 56, 0
9, 5280, Note_on_c, 7, 57, 58
9, 5520, Note_on_c, 7, 57, 0
9, 5520, Note_on_c, 7, 58, 58
9, 5712, Note_on_c, 7, 58, 0
9, 6000, Note_on_c, 7, 60, 78
9, 6240, Note_on_c, 7, 60, 0
9, 6240, Note_on_c, 7, 58, 58
9, 6480, Note_on_c, 7, 58, 0
9, 6480, Note_on_c, 7, 56, 58
9, 6672, Note_on_c, 7, 56, 0
9, 6960, Note_on_c, 7, 46, 78
9, 7200, Note_on_c, 7, 46, 0
9, 7200, Note_on_c, 7, 58, 58
9, 7356, Note_on_c, 7, 58, 0
9, 7440, Note_on_c, 7, 46, 58
9, 7596, Note_on_c, 7, 46, 0
9, 7920, Note_on_c, 7, 51, 58
9, 8112, Note_on_c, 7, 51, 0
9, 8160, Note_on_c, 7, 39, 58
9, 8544, Note_on_c, 7, 39, 0
9, 8880, Note_on_c, 7, 53, 78
9, 9120, Note_on_c, 7, 53, 0
9, 9120, Note_on_c, 7, 54, 58
9, 9360, Note_on_c, 7, 54, 0
9, 9360, Note_on_c, 7, 52, 58
9, 9552, Note_on_c, 7, 52, 0
9, 9600, Note_on_c, 7, 53, 58
9, 9984, Note_on_c, 7, 53, 0
9, 10560, Note_on_c, 7, 53, 58
9, 10944, Note_on_c, 7, 53, 0
9, 11760, Note_on_c, 7, 53, 58
9, 12000, Note_on_c, 7, 53, 0
9, 12000, Note_on_c, 7, 54, 58
9, 12192, Note_on_c, 7, 54, 0
9, 12720, Note_on_c, 7, 53, 58
9, 12960, Note_on_c, 7, 53, 0
9, 12960, Note_on_c, 7, 54, 58
9, 13152, Note_on_c, 7, 54, 0
9, 13920, Note_on_c, 7, 57, 58
9, 14052, Note_on_c, 7, 57, 0
9, 14160, Note_on_c, 7, 53, 58
9, 14292, Note_on_c, 7, 53, 0
9, 15600, Note_on_c, 7, 58, 58
9, 15732, Note_on_c, 7, 58, 0
9, 15840, Note_on_c, 7, 62, 58
9, 15972, Note_on_c, 7, 62, 0
9, 16080, Note_on_c, 7, 58, 58
9, 16212, Note_on_c, 7, 58, 0
9, 16560, Note_on_c, 7, 60, 58
9, 16692, Note_on_c, 7, 60, 0
9, 16800, Note_on_c, 7, 53, 58
9, 16932, Note_on_c, 7, 53, 0
9, 17040, Note_on_c, 7, 41, 58
9, 17172, Note_on_c, 7, 41, 0
9, 17520, Note_on_c, 7, 46, 58
9, 17652, Note_on_c, 7, 46, 0
9, 17760, Note_on_c, 7, 62, 58
9, 17892, Note_on_c, 7, 62, 0
9, 18000, Note_on_c, 7, 58, 58
9, 18132, Note_on_c, 7, 58, 0
9, 18480, Note_on_c, 7, 60, 58
9, 18612, Note_on_c, 7, 60, 0
9, 18720, Note_on_c, 7, 53, 58
9, 18852, Note_on_c, 7, 53, 0
9, 18960, Note_on_c, 7, 41, 58
9, 19092, Note_on_c, 7, 41, 0
9, 19200, Note_on_c, 7, 46, 58
9, 19332, Note_on_c, 7, 46, 0
9, 19440, Note_on_c, 7, 50, 58
9, 19680, Note_on_c, 7, 50, 0
9, 19680, Note_on_c, 7, 51, 58
9, 19872, Note_on_c, 7, 51, 0
9, 20400, Note_on_c, 7, 52, 58
9, 20640, Note_on_c, 7, 52, 0
9, 20640, Note_on_c, 7, 53, 58
9, 20832, Note_on_c, 7, 53, 0
9, 21360, Note_on_c, 7, 54, 58
9, 21600, Note_on_c, 7, 54, 0
9, 21600, Note_on_c, 7, 55, 58
9, 21792, Note_on_c, 7, 55, 0
9, 22320, Note_on_c, 7, 52, 58
9, 22560, Note_on_c, 7, 52, 0
9, 22560, Note_on_c, 7, 53, 58
9, 22752, Note_on_c, 7, 53, 0
9, 23280, Note_on_c, 7, 45, 58
9, 23520, Note_on_c, 7, 45, 0
9, 23520, Note_on_c, 7, 46, 58
9, 23712, Note_on_c, 7, 46, 0
9, 24240, Note_on_c, 7, 51, 58
9, 24432, Note_on_c, 7, 51, 0
9, 24480, Note_on_c, 7, 39, 58
9, 24864, Note_on_c, 7, 39, 0
9, 25200, Note_on_c, 7, 53, 58
9, 25392, Note_on_c, 7, 53, 0
9, 25440, Note_on_c, 7, 41, 58
9, 25824, Note_on_c, 7, 41, 0
9, 26160, Note_on_c, 7, 58, 58
9, 26352, Note_on_c, 7, 58, 0
9, 26400, Note_on_c, 7, 46, 58
9, 26784, Note_on_c, 7, 46, 0
9, 27120, Note_on_c, 7, 51, 58
9, 27312, Note_on_c, 7, 51, 0
9, 27360, Note_on_c, 7, 39, 58
9, 27744, Note_on_c, 7, 39, 0
9, 28080, Note_on_c, 7, 56, 78
9, 28320, Note_on_c, 7, 56, 0
9, 28320, Note_on_c, 7, 57, 58
9, 28560, Note_on_c, 7, 57, 0
9, 28560, Note_on_c, 7, 58, 58
9, 28752, Note_on_c, 7, 58, 0
9, 29040, Note_on_c, 7, 60, 78
9, 29280, Note_on_c, 7, 60, 0
9, 29280, Note_on_c, 7, 58, 58
9, 29520, Note_on_c, 7, 58, 0
9, 29520, Note_on_c, 7, 56, 58
9, 29712, Note_on_c, 7, 56, 0
9, 30000, Note_on_c, 7, 46, 78
9, 30240, Note_on_c, 7, 46, 0
9, 30240, Note_on_c, 7, 58, 58
9, 30396, Note_on_c, 7, 58, 0
9, 30480, Note_on_c, 7, 46, 58
9, 30636, Note_on_c, 7, 46, 0
9, 30960, Note_on_c, 7, 51, 58
9, 31152, Note_on_c, 7, 51, 0
9, 31200, Note_on_c, 7, 39, 58
9, 31584, Note_on_c, 7, 39, 0
9, 31920, Note_on_c, 7, 53, 78
9, 32160, Note_on_c, 7, 53, 0
9, 32160, Note_on_c, 7, 54, 58
9, 32400, Note_on_c, 7, 54, 0
9, 32400, Note_on_c, 7, 52, 58
9, 32592, Note_on_c, 7, 52, 0
9, 32640, Note_on_c, 7, 53, 58
9, 33024, Note_on_c, 7, 53, 0
9, 33600, Note_on_c, 7, 53, 58
9, 33984, Note_on_c, 7, 53, 0
9, 34800, Note_on_c, 7, 53, 58
9, 35040, Note_on_c, 7, 53, 0
9, 35040, Note_on_c, 7, 54, 58
9, 35232, Note_on_c, 7, 54, 0
9, 35760, Note_on_c, 7, 53, 58
9, 36000, Note_on_c, 7, 53, 0
9, 36000, Note_on_c, 7, 54, 58
9, 36192, Note_on_c, 7, 54, 0
9, 36960, Note_on_c, 7, 57, 58
9, 37092, Note_on_c, 7, 57, 0
9, 37200, Note_on_c, 7, 53, 58
9, 37332, Note_on_c, 7, 53, 0
9, 38640, Note_on_c, 7, 58, 58
9, 38772, Note_on_c, 7, 58, 0
9, 38880, Note_on_c, 7, 62, 58
9, 39012, Note_on_c, 7, 62, 0
9, 39120, Note_on_c, 7, 58, 58
9, 39252, Note_on_c, 7, 58, 0
9, 39600, Note_on_c, 7, 60, 58
9, 39732, Note_on_c, 7, 60, 0
9, 39840, Note_on_c, 7, 53, 58
9, 39972, Note_on_c, 7, 53, 0
9, 40080, Note_on_c, 7, 41, 58
9, 40212, Note_on_c, 7, 41, 0
9, 40560, Note_on_c, 7, 46, 58
9, 40692, Note_on_c, 7, 46, 0
9, 40800, Note_on_c, 7, 62, 58
9, 40932, Note_on_c, 7, 62, 0
9, 41040, Note_on_c, 7, 58, 58
9, 41172, Note_on_c, 7, 58, 0
9, 41520, Note_on_c, 7, 60, 58
9, 41652, Note_on_c, 7, 60, 0
9, 41760, Note_on_c, 7, 53, 58
9, 41892, Note_on_c, 7, 53, 0
9, 42000, Note_on_c, 7, 41, 58
9, 42132, Note_on_c, 7, 41, 0
9, 42240, Note_on_c, 7, 46, 58
9, 42372, Note_on_c, 7, 46, 0
9, 42480, Note_on_c, 7, 50, 58
9, 42720, Note_on_c, 7, 50, 0
9, 42720, Note_on_c, 7, 51, 58
9, 42912, Note_on_c, 7, 51, 0
9, 43440, Note_on_c, 7, 52, 58
9, 43680, Note_on_c, 7, 52, 0
9, 43680, Note_on_c, 7, 53, 58
9, 43872, Note_on_c, 7, 53, 0
9, 44400, Note_on_c, 7, 54, 58
9, 44640, Note_on_c, 7, 54, 0
9, 44640, Note_on_c, 7, 55, 58
9, 44832, Note_on_c, 7, 55, 0
9, 45360, Note_on_c, 7, 52, 58
9, 45600, Note_on_c, 7, 52, 0
9, 45600, Note_on_c, 7, 53, 58
9, 45792, Note_on_c, 7, 53, 0
9, 46320, Note_on_c, 7, 45, 58
9, 46560, Note_on_c, 7, 45, 0
9, 46560, Note_on_c, 7, 46, 58
9, 46752, Note_on_c, 7, 46, 0
9, 47280, Note_on_c, 7, 52, 58
9, 47520, Note_on_c, 7, 52, 0
9, 47520, Note_on_c, 7, 53, 58
9, 47712, Note_on_c, 7, 53, 0
9, 48240, Note_on_c, 7, 53, 58
9, 48480, Note_on_c, 7, 53, 0
9, 48480, Note_on_c, 7, 52, 58
9, 48672, Note_on_c, 7, 52, 0
9, 49200, Note_on_c, 7, 61, 58
9, 49440, Note_on_c, 7, 61, 0
9, 49440, Note_on_c, 7, 59, 58
9, 49680, Note_on_c, 7, 59, 0
9, 49680, Note_on_c, 7, 60, 58
9, 49872, Note_on_c, 7, 60, 0
9, 50160, Note_on_c, 7, 56, 58
9, 50400, Note_on_c, 7, 56, 0
9, 50400, Note_on_c, 7, 53, 58
9, 50784, Note_on_c, 7, 53, 0
9, 51120, Note_on_c, 7, 50, 58
9, 51360, Note_on_c, 7, 50, 0
9, 51360, Note_on_c, 7, 51, 58
9, 51552, Note_on_c, 7, 51, 0
9, 52080, Note_on_c, 7, 51, 58
9, 52320, Note_on_c, 7, 51, 0
9, 52320, Note_on_c, 7, 50, 58
9, 52512, Note_on_c, 7, 50, 0
9, 53040, Note_on_c, 7, 51, 58
9, 53280, Note_on_c, 7, 51, 0
9, 53280, Note_on_c, 7, 55, 58
9, 53520, Note_on_c, 7, 55, 0
9, 53520, Note_on_c, 7, 58, 58
9, 53712, Note_on_c, 7, 58, 0
9, 53760, Note_on_c, 7, 51, 58
9, 54144, Note_on_c, 7, 51, 0
9, 54240, Note_on_c, 7, 51, 58
9, 54396, Note_on_c, 7, 51, 0
9, 54480, Note_on_c, 7, 50, 58
9, 54636, Note_on_c, 7, 50, 0
9, 54720, Note_on_c, 7, 48, 58
9, 55104, Note_on_c, 7, 48, 0
9, 55200, Note_on_c, 7, 48, 58
9, 55356, Note_on_c, 7, 48, 0
9, 55440, Note_on_c, 7, 53, 58
9, 55596, Note_on_c, 7, 53, 0
9, 55680, Note_on_c, 7, 46, 58
9, 56064, Note_on_c, 7, 46, 0
9, 56400, Note_on_c, 7, 53, 58
9, 56532, Note_on_c, 7, 53, 0
9, 56640, Note_on_c, 7, 54, 58
9, 56880, Note_on_c, 7, 54, 0
9, 56880, Note_on_c, 7, 53, 58
9, 57072, Note_on_c, 7, 53, 0
9, 57360, Note_on_c, 7, 45, 58
9, 57492, Note_on_c, 7, 45, 0
9, 57600, Note_on_c, 7, 48, 58
9, 57840, Note_on_c, 7, 48, 0
9, 57840, Note_on_c, 7, 46, 58
9, 58032, Note_on_c, 7, 46, 0
9, 58800, Note_on_c, 7, 58, 80
9, 58992, Note_on_c, 7, 58, 0
9, 59040, Note_on_c, 7, 58, 92
9, 59232, Note_on_c, 7, 58, 0
9, 59280, Note_on_c, 7, 58, 92
9, 59472, Note_on_c, 7, 58, 0
9, 59520, Note_on_c, 7, 46, 105
9, 59976, Note_on_c, 7, 46, 0
9, 62640, Note_on_c, 7, 51, 58
9, 62832, Note_on_c, 7, 51, 0
9, 62880, Note_on_c, 7, 39, 58
9, 63264, Note_on_c, 7, 39, 0
9, 63600, Note_on_c, 7, 53, 58
9, 63792, Note_on_c, 7, 53, 0
9, 63840, Note_on_c, 7, 41, 58
9, 64224, Note_on_c, 7, 41, 0
9, 64560, Note_on_c, 7, 58, 58
9, 64752, Note_on_c, 7, 58, 0
9, 64800, Note_on_c, 7, 46, 58
9, 65184, Note_on_c, 7, 46, 0
9, 65520, Note_on_c, 7, 51, 58
9, 65712, Note_on_c, 7, 51, 0
9, 65760, Note_on_c, 7, 39, 58
9, 66144, Note_on_c, 7, 39, 0
9, 66480, Note_on_c, 7, 56, 78
9, 66720, Note_on_c, 7, 56, 0
9, 66720, Note_on_c, 7, 57, 58
9, 66960, Note_on_c, 7, 57, 0
9, 66960, Note_on_c, 7, 58, 58
9, 67152, Note_on_c, 7, 58, 0
9, 67440, Note_on_c, 7, 60, 78
9, 67680, Note_on_c, 7, 60, 0
9, 67680, Note_on_c, 7, 58, 58
9, 67920, Note_on_c, 7, 58, 0
9, 67920, Note_on_c, 7, 56, 58
9, 68112, Note_on_c, 7, 56, 0
9, 68400, Note_on_c, 7, 58, 78
9, 68640, Note_on_c, 7, 58, 0
9, 68640, Note_on_c, 7, 46, 58
9, 68796, Note_on_c, 7, 46, 0
9, 68880, Note_on_c, 7, 58, 58
9, 69036, Note_on_c, 7, 58, 0
9, 69120, Note_on_c, 7, 51, 58
9, 69504, Note_on_c, 7, 51, 0
9, 69840, Note_on_c, 7, 51, 58
9, 70080, Note_on_c, 7, 51, 0
9, 70080, Note_on_c, 7, 52, 58
9, 70464, Note_on_c, 7, 52, 0
9, 70800, Note_on_c, 7, 52, 58
9, 71040, Note_on_c, 7, 52, 0
9, 71040, Note_on_c, 7, 53, 58
9, 71424, Note_on_c, 7, 53, 0
9, 71760, Note_on_c, 7, 53, 58
9, 72000, Note_on_c, 7, 53, 0
9, 72000, Note_on_c, 7, 54, 58
9, 72384, Note_on_c, 7, 54, 0
9, 72720, Note_on_c, 7, 54, 58
9, 72960, Note_on_c, 7, 54, 0
9, 72960, Note_on_c, 7, 55, 58
9, 73344, Note_on_c, 7, 55, 0
9, 73680, Note_on_c, 7, 55, 58
9, 73920, Note_on_c, 7, 55, 0
9, 73920, Note_on_c, 7, 48, 58
9, 74304, Note_on_c, 7, 48, 0
9, 74640, Note_on_c, 7, 55, 58
9, 74880, Note_on_c, 7, 55, 0
9, 74880, Note_on_c, 7, 56, 58
9, 75264, Note_on_c, 7, 56, 0
9, 75600, Note_on_c, 7, 56, 58
9, 75732, Note_on_c, 7, 56, 0
9, 75840, Note_on_c, 7, 55, 58
9, 76080, Note_on_c, 7, 55, 0
9, 76080, Note_on_c, 7, 51, 58
9, 76272, Note_on_c, 7, 51, 0
9, 76560, Note_on_c, 7, 48, 58
9, 76800, Note_on_c, 7, 48, 0
9, 76800, Note_on_c, 7, 46, 58
9, 76956, Note_on_c, 7, 46, 0
9, 77040, Note_on_c, 7, 58, 58
9, 77196, Note_on_c, 7, 58, 0
9, 77280, Note_on_c, 7, 46, 58
9, 77664, Note_on_c, 7, 46, 0
9, 78000, Note_on_c, 7, 46, 78
9, 78240, Note_on_c, 7, 46, 0
9, 78240, Note_on_c, 7, 47, 58
9, 78480, Note_on_c, 7, 47, 0
9, 78480, Note_on_c, 7, 45, 58
9, 78672, Note_on_c, 7, 45, 0
9, 78720, Note_on_c, 7, 46, 58
9, 79104, Note_on_c, 7, 46, 0
9, 79680, Note_on_c, 7, 46, 58
9, 80064, Note_on_c, 7, 46, 0
9, 80880, Note_on_c, 7, 58, 58
9, 81120, Note_on_c, 7, 58, 0
9, 81120, Note_on_c, 7, 57, 58
9, 81312, Note_on_c, 7, 57, 0
9, 81840, Note_on_c, 7, 46, 58
9, 82080, Note_on_c, 7, 46, 0
9, 82080, Note_on_c, 7, 47, 58
9, 82272, Note_on_c, 7, 47, 0
9, 83040, Note_on_c, 7, 62, 58
9, 83172, Note_on_c, 7, 62, 0
9, 83280, Note_on_c, 7, 58, 58
9, 83412, Note_on_c, 7, 58, 0
9, 84720, Note_on_c, 7, 51, 58
9, 84864, Note_on_c, 7, 51, 0
9, 84960, Note_on_c, 7, 55, 58
9, 85104, Note_on_c, 7, 55, 0
9, 85200, Note_on_c, 7, 51, 58
9, 85344, Note_on_c, 7, 51, 0
9, 85680, Note_on_c, 7, 46, 58
9, 85824, Note_on_c, 7, 46, 0
9, 85920, Note_on_c, 7, 50, 58
9, 86064, Note_on_c, 7, 50, 0
9, 86160, Note_on_c, 7, 46, 58
9, 86304, Note_on_c, 7, 46, 0
9, 86640, Note_on_c, 7, 51, 58
9, 86784, Note_on_c, 7, 51, 0
9, 86880, Note_on_c, 7, 55, 58
9, 87024, Note_on_c, 7, 55, 0
9, 87120, Note_on_c, 7, 51, 58
9, 87264, Note_on_c, 7, 51, 0
9, 87600, Note_on_c, 7, 46, 58
9, 87744, Note_on_c, 7, 46, 0
9, 87840, Note_on_c, 7, 50, 58
9, 87984, Note_on_c, 7, 50, 0
9, 88080, Note_on_c, 7, 46, 58
9, 88224, Note_on_c, 7, 46, 0
9, 88320, Note_on_c, 7, 51, 58
9, 88452, Note_on_c, 7, 51, 0
9, 88560, Note_on_c, 7, 43, 58
9, 88800, Note_on_c, 7, 43, 0
9, 88800, Note_on_c, 7, 44, 58
9, 88992, Note_on_c, 7, 44, 0
9, 89520, Note_on_c, 7, 45, 58
9, 89760, Note_on_c, 7, 45, 0
9, 89760, Note_on_c, 7, 46, 58
9, 89952, Note_on_c, 7, 46, 0
9, 90480, Note_on_c, 7, 47, 58
9, 90720, Note_on_c, 7, 47, 0
9, 90720, Note_on_c, 7, 48, 58
9, 90912, Note_on_c, 7, 48, 0
9, 91440, Note_on_c, 7, 45, 58
9, 91680, Note_on_c, 7, 45, 0
9, 91680, Note_on_c, 7, 46, 58
9, 91872, Note_on_c, 7, 46, 0
9, 92400, Note_on_c, 7, 38, 58
9, 92640, Note_on_c, 7, 38, 0
9, 92640, Note_on_c, 7, 39, 58
9, 92832, Note_on_c, 7, 39, 0
9, 92832, End_track
10, 0, Start_track
10, 0, Program_c, 8, 43
10, 0, Control_c, 8, 7, 127
10, 0, Control_c, 8, 10, 57
10, 0, Control_c, 8, 91, 90
10, 1200, Note_on_c, 8, 39, 58
10, 1392, Note_on_c, 8, 39, 0
10, 1440, Note_on_c, 8, 27, 58
10, 1824, Note_on_c, 8, 27, 0
10, 2160, Note_on_c, 8, 41, 58
10, 2352, Note_on_c, 8, 41, 0
10, 2400, Note_on_c, 8, 29, 58
10, 2784, Note_on_c, 8, 29, 0
10, 3120, Note_on_c, 8, 46, 58
10, 3312, Note_on_c, 8, 46, 0
10, 3360, Note_on_c, 8, 34, 58
10, 3744, Note_on_c, 8, 34, 0
10, 4080, Note_on_c, 8, 39, 58
10, 4272, Note_on_c, 8, 39, 0
10, 4320, Note_on_c, 8, 27, 58
10, 4704, Note_on_c, 8, 27, 0
10, 5040, Note_on_c, 8, 44, 78
10, 5280, Note_on_c, 8, 44, 0
10, 5280, Note_on_c, 8, 45, 58
10, 5520, Note_on_c, 8, 45, 0
10, 5520, Note_on_c, 8, 46, 58
10, 5712, Note_on_c, 8, 46, 0
10, 6000, Note_on_c, 8, 48, 78
10, 6240, Note_on_c, 8, 48, 0
10, 6240, Note_on_c, 8, 46, 58
10, 6480, Note_on_c, 8, 46, 0
10, 6480, Note_on_c, 8, 44, 58
10, 6672, Note_on_c, 8, 44, 0
10, 6960, Note_on_c, 8, 34, 78
10, 7200, Note_on_c, 8, 34, 0
10, 7200, Note_on_c, 8, 46, 58
10, 7356, Note_on_c, 8, 46, 0
10, 7440, Note_on_c, 8, 34, 58
10, 7596, Note_on_c, 8, 34, 0
10, 7920, Note_on_c, 8, 39, 58
10, 8112, Note_on_c, 8, 39, 0
10, 8160, Note_on_c, 8, 27, 58
10, 8544, Note_on_c, 8, 27, 0
10, 8880, Note_on_c, 8, 41, 78
10, 9120, Note_on_c, 8, 41, 0
10, 9120, Note_on_c, 8, 42, 58
10, 9360, Note_on_c, 8, 42, 0
10, 9360, Note_on_c, 8, 40, 58
10, 9552, Note_on_c, 8, 40, 0
10, 9600, Note_on_c, 8, 41, 58
10, 9984, Note_on_c, 8, 41, 0
10, 10560, Note_on_c, 8, 41, 58
10, 10944, Note_on_c, 8, 41, 0
10, 11760, Note_on_c, 8, 41, 58
10, 12000, Note_on_c, 8, 41, 0
10, 12000, Note_on_c, 8, 42, 58
10, 12192, Note_on_c, 8, 42, 0
10, 12720, Note_on_c, 8, 41, 58
10, 12960, Note_on_c, 8, 41, 0
10, 12960, Note_on_c, 8, 42, 58
10, 13152, Note_on_c, 8, 42, 0
10, 13920, Note_on_c, 8, 45, 58
10, 14052, Note_on_c, 8, 45, 0
10, 14160, Note_on_c, 8, 41, 58
10, 14292, Note_on_c, 8, 41, 0
10, 15600, Note_on_c, 8, 46, 58
10, 15732, Note_on_c, 8, 46, 0
10, 15840, Note_on_c, 8, 50, 58
10, 15972, Note_on_c, 8, 50, 0
10, 16080, Note_on_c, 8, 46, 58
10, 16212, Note_on_c, 8, 46, 0
10, 16560, Note_on_c, 8, 48, 58
10, 16692, Note_on_c, 8, 48, 0
10, 16800, Note_on_c, 8, 41, 58
10, 16932, Note_on_c, 8, 41, 0
10, 17040, Note_on_c, 8, 29, 58
10, 17172, Note_on_c, 8, 29, 0
10, 17520, Note_on_c, 8, 34, 58
10, 17652, Note_on_c, 8, 34, 0
10, 17760, Note_on_c, 8, 50, 58
10, 17892, Note_on_c, 8, 50, 0
10, 18000, Note_on_c, 8, 46, 58
10, 18132, Note_on_c, 8, 46, 0
10, 18480, Note_on_c, 8, 48, 58
10, 18612, Note_on_c, 8, 48, 0
10, 18720, Note_on_c, 8, 41, 58
10, 18852, Note_on_c, 8, 41, 0
10, 18960, Note_on_c, 8, 29, 58
10, 19092, Note_on_c, 8, 29, 0
10, 19200, Note_on_c, 8, 34, 58
10, 19332, Note_on_c, 8, 34, 0
10, 19440, Note_on_c, 8, 38, 58
10, 19680, Note_on_c, 8, 38, 0
10, 19680, Note_on_c, 8, 39, 58
10, 19872, Note_on_c, 8, 39, 0
10, 20400, Note_on_c, 8, 40, 58
10, 20640, Note_on_c, 8, 40, 0
10, 20640, Note_on_c, 8, 41, 58
10, 20832, Note_on_c, 8, 41, 0
10, 21360, Note_on_c, 8, 42, 58
10, 21600, Note_on_c, 8, 42, 0
10, 21600, Note_on_c, 8, 43, 58
10, 21792, Note_on_c, 8, 43, 0
10, 22320, Note_on_c, 8, 40, 58
10, 22560, Note_on_c, 8, 40, 0
10, 22560, Note_on_c, 8, 41, 58
10, 22752, Note_on_c, 8, 41, 0
10, 23280, Note_on_c, 8, 33, 58
10, 23520, Note_on_c, 8, 33, 0
10, 23520, Note_on_c, 8, 34, 58
10, 23712, Note_on_c, 8, 34, 0
10, 24240, Note_on_c, 8, 39, 58
10, 24432, Note_on_c, 8, 39, 0
10, 24480, Note_on_c, 8, 27, 58
10, 24864, Note_on_c, 8, 27, 0
10, 25200, Note_on_c, 8, 41, 58
10, 25392, Note_on_c, 8, 41, 0
10, 25440, Note_on_c, 8, 29, 58
10, 25824, Note_on_c, 8, 29, 0
10, 26160, Note_on_c, 8, 46, 58
10, 26352, Note_on_c, 8, 46, 0
10, 26400, Note_on_c, 8, 34, 58
10, 26784, Note_on_c, 8, 34, 0
10, 27120, Note_on_c, 8, 39, 58
10, 27312, Note_on_c, 8, 39, 0
10, 27360, Note_on_c, 8, 27, 58
10, 27744, Note_on_c, 8, 27, 0
10, 28080, Note_on_c, 8, 44, 78
10, 28320, Note_on_c, 8, 44, 0
10, 28320, Note_on_c, 8, 45, 58
10, 28560, Note_on_c, 8, 45, 0
10, 28560, Note_on_c, 8, 46, 58
10, 28752, Note_on_c, 8, 46, 0
10, 29040, Note_on_c, 8, 48, 78
10, 29280, Note_on_c, 8, 48, 0
10, 29280, Note_on_c, 8, 46, 58
10, 29520, Note_on_c, 8, 46, 0
10, 29520, Note_on_c, 8, 44, 58
10, 29712, Note_on_c, 8, 44, 0
10, 30000, Note_on_c, 8, 34, 78
10, 30240, Note_on_c, 8, 34, 0
10, 30240, Note_on_c, 8, 46, 58
10, 30396, Note_on_c, 8, 46, 0
10, 30480, Note_on_c, 8, 34, 58
10, 30636, Note_on_c, 8, 34, 0
10, 30960, Note_on_c, 8, 39, 58
10, 31152, Note_on_c, 8, 39, 0
10, 31200, Note_on_c, 8, 27, 58
10, 31584, Note_on_c, 8, 27, 0
10, 31920, Note_on_c, 8, 41, 78
10, 32160, Note_on_c, 8, 41, 0
10, 32160, Note_on_c, 8, 42, 58
10, 32400, Note_on_c, 8, 42, 0
10, 32400, Note_on_c, 8, 40, 58
10, 32592, Note_on_c, 8, 40, 0
10, 32640, Note_on_c, 8, 41, 58
10, 33024, Note_on_c, 8, 41, 0
10, 33600, Note_on_c, 8, 41, 58
10, 33984, Note_on_c, 8, 41, 0
10, 34800, Note_on_c, 8, 41, 58
10, 35040, Note_on_c, 8, 41, 0
10, 35040, Note_on_c, 8, 42, 58
10, 35232, Note_on_c, 8, 42, 0
10, 35760, Note_on_c, 8, 41, 58
10, 36000, Note_on_c, 8, 41, 0
10, 36000, Note_on_c, 8, 42, 58
10, 36192, Note_on_c, 8, 42, 0
10, 36960, Note_on_c, 8, 45, 58
10, 37092, Note_on_c, 8, 45, 0
10, 37200, Note_on_c, 8, 41, 58
10, 37332, Note_on_c, 8, 41, 0
10, 38640, Note_on_c, 8, 46, 58
10, 38772, Note_on_c, 8, 46, 0
10, 38880, Note_on_c, 8, 50, 58
10, 39012, Note_on_c, 8, 50, 0
10, 39120, Note_on_c, 8, 46, 58
10, 39252, Note_on_c, 8, 46, 0
10, 39600, Note_on_c, 8, 48, 58
10, 39732, Note_on_c, 8, 48, 0
10, 39840, Note_on_c, 8, 41, 58
10, 39972, Note_on_c, 8, 41, 0
10, 40080, Note_on_c, 8, 29, 58
10, 40212, Note_on_c, 8, 29, 0
10, 40560, Note_on_c, 8, 34, 58
10, 40692, Note_on_c, 8, 34, 0
10, 40800, Note_on_c, 8, 50, 58
10, 40932, Note_on_c, 8, 50, 0
10, 41040, Note_on_c, 8, 46, 58
10, 41172, Note_on_c, 8, 46, 0
10, 41520, Note_on_c, 8, 48, 58
10, 41652, Note_on_c, 8, 48, 0
10, 41760, Note_on_c, 8, 41, 58
10, 41892, Note_on_c, 8, 41, 0
10, 42000, Note_on_c, 8, 29, 58
10, 42132, Note_on_c, 8, 29, 0
10, 42240, Note_on_c, 8, 34, 58
10, 42372, Note_on_c, 8, 34, 0
10, 42480, Note_on_c, 8, 38, 58
10, 42720, Note_on_c, 8, 38, 0
10, 42720, Note_on_c, 8, 39, 58
10, 42912, Note_on_c, 8, 39, 0
10, 43440, Note_on_c, 8, 40, 58
10, 43680, Note_on_c, 8, 40, 0
10, 43680, Note_on_c, 8, 41, 58
10, 43872, Note_on_c, 8, 41, 0
10, 44400, Note_on_c, 8, 42, 58
10, 44640, Note_on_c, 8, 42, 0
10, 44640, Note_on_c, 8, 43, 58
10, 44832, Note_on_c, 8, 43, 0
10, 45360, Note_on_c, 8, 40, 58
10, 45600, Note_on_c, 8, 40, 0
10, 45600, Note_on_c, 8, 41, 58
10, 45792, Note_on_c, 8, 41, 0
10, 46320, Note_on_c, 8, 33, 58
10, 46560, Note_on_c, 8, 33, 0
10, 46560, Note_on_c, 8, 34, 58
10, 46752, Note_on_c, 8, 34, 0
10, 47280, Note_on_c, 8, 40, 58
10, 47520, Note_on_c, 8, 40, 0
10, 47520, Note_on_c, 8, 41, 58
10, 47712, Note_on_c, 8, 41, 0
10, 48240, Note_on_c, 8, 41, 58
10, 48480, Note_on_c, 8, 41, 0
10, 48480, Note_on_c, 8, 40, 58
10, 48672, Note_on_c, 8, 40, 0
10, 49200, Note_on_c, 8, 49, 58
10, 49440, Note_on_c, 8, 49, 0
10, 49440, Note_on_c, 8, 47, 58
10, 49680, Note_on_c, 8, 47, 0
10, 49680, Note_on_c, 8, 48, 58
10, 49872, Note_on_c, 8, 48, 0
10, 50160, Note_on_c, 8, 44, 58
10, 50400, Note_on_c, 8, 44, 0
10, 50400, Note_on_c, 8, 41, 58
10, 50784, Note_on_c, 8, 41, 0
10, 51120, Note_on_c, 8, 38, 58
10, 51360, Note_on_c, 8, 38, 0
10, 51360, Note_on_c, 8, 39, 58
10, 51552, Note_on_c, 8, 39, 0
10, 52080, Note_on_c, 8, 39, 58
10, 52320, Note_on_c, 8, 39, 0
10, 52320, Note_on_c, 8, 38, 58
10, 52512, Note_on_c, 8, 38, 0
10, 53040, Note_on_c, 8, 39, 58
10, 53280, Note_on_c, 8, 39, 0
10, 53280, Note_on_c, 8, 43, 58
10, 53520, Note_on_c, 8, 43, 0
10, 53520, Note_on_c, 8, 46, 58
10, 53712, Note_on_c, 8, 46, 0
10, 53760, Note_on_c, 8, 39, 58
10, 54144, Note_on_c, 8, 39, 0
10, 54240, Note_on_c, 8, 39, 58
10, 54396, Note_on_c, 8, 39, 0
10, 54480, Note_on_c, 8, 38, 58
10, 54636, Note_on_c, 8, 38, 0
10, 54720, Note_on_c, 8, 36, 58
10, 55104, Note_on_c, 8, 36, 0
10, 55200, Note_on_c, 8, 36, 58
10, 55356, Note_on_c, 8, 36, 0
10, 55440, Note_on_c, 8, 41, 58
10, 55596, Note_on_c, 8, 41, 0
10, 55680, Note_on_c, 8, 34, 58
10, 56064, Note_on_c, 8, 34, 0
10, 56400, Note_on_c, 8, 41, 58
10, 56532, Note_on_c, 8, 41, 0
10, 56640, Note_on_c, 8, 42, 58
10, 56880, Note_on_c, 8, 42, 0
10, 56880, Note_on_c, 8, 41, 58
10, 57072, Note_on_c, 8, 41, 0
10, 57360, Note_on_c, 8, 33, 58
10, 57492, Note_on_c, 8, 33, 0
10, 57600, Note_on_c, 8, 36, 58
10, 57840, Note_on_c, 8, 36, 0
10, 57840, Note_on_c, 8, 34, 58
10, 58032, Note_on_c, 8, 34, 0
10, 58800, Note_on_c, 8, 46, 80
10, 58992, Note_on_c, 8, 46, 0
10, 59040, Note_on_c, 8, 46, 92
10, 59232, Note_on_c, 8, 46, 0
10, 59280, Note_on_c, 8, 46, 92
10, 59472, Note_on_c, 8, 46, 0
10, 59520, Note_on_c, 8, 34, 105
10, 59976, Note_on_c, 8, 34, 0
10, 62640, Note_on_c, 8, 39, 58
10, 62832, Note_on_c, 8, 39, 0
10, 62880, Note_on_c, 8, 27, 58
10, 63264, Note_on_c, 8, 27, 0
10, 63600, Note_on_c, 8, 41, 58
10, 63792, Note_on_c, 8, 41, 0
10, 63840, Note_on_c, 8, 29, 58
10, 64224, Note_on_c, 8, 29, 0
10, 64560, Note_on_c, 8, 46, 58
10, 64752, Note_on_c, 8, 46, 0
10, 64800, Note_on_c, 8, 34, 58
10, 65184, Note_on_c, 8, 34, 0
10, 65520, Note_on_c, 8, 39, 58
10, 65712, Note_on_c, 8, 39, 0
10, 65760, Note_on_c, 8, 27, 58
10, 66144, Note_on_c, 8, 27, 0
10, 66480, Note_on_c, 8, 44, 78
10, 66720, Note_on_c, 8, 44, 0
10, 66720, Note_on_c, 8, 45, 58
10, 66960, Note_on_c, 8, 45, 0
10, 66960, Note_on_c, 8, 46, 58
10, 67152, Note_on_c, 8, 46, 0
10, 67440, Note_on_c, 8, 48, 78
10, 67680, Note_on_c, 8, 48, 0
10, 67680, Note_on_c, 8, 46, 58
10, 67920, Note_on_c, 8, 46, 0
10, 67920, Note_on_c, 8, 44, 58
10, 68112, Note_on_c, 8, 44, 0
10, 68400, Note_on_c, 8, 46, 78
10, 68640, Note_on_c, 8, 46, 0
10, 68640, Note_on_c, 8, 34, 58
10, 68796, Note_on_c, 8, 34, 0
10, 68880, Note_on_c, 8, 46, 58
10, 69036, Note_on_c, 8, 46, 0
10, 69120, Note_on_c, 8, 39, 58
10, 69504, Note_on_c, 8, 39, 0
10, 69840, Note_on_c, 8, 39, 58
10, 70080, Note_on_c, 8, 39, 0
10, 70080, Note_on_c, 8, 40, 58
10, 70464, Note_on_c, 8, 40, 0
10, 70800, Note_on_c, 8, 40, 58
10, 71040, Note_on_c, 8, 40, 0
10, 71040, Note_on_c, 8, 41, 58
10, 71424, Note_on_c, 8, 41, 0
10, 71760, Note_on_c, 8, 41, 58
10, 72000, Note_on_c, 8, 41, 0
10, 72000, Note_on_c, 8, 42, 58
10, 72384, Note_on_c, 8, 42, 0
10, 72720, Note_on_c, 8, 42, 58
10, 72960, Note_on_c, 8, 42, 0
10, 72960, Note_on_c, 8, 43, 58
10, 73344, Note_on_c, 8, 43, 0
10, 73680, Note_on_c, 8, 43, 58
10, 73920, Note_on_c, 8, 43, 0
10, 73920, Note_on_c, 8, 36, 58
10, 74304, Note_on_c, 8, 36, 0
10, 74640, Note_on_c, 8, 43, 58
10, 74880, Note_on_c, 8, 43, 0
10, 74880, Note_on_c, 8, 44, 58
10, 75264, Note_on_c, 8, 44, 0
10, 75600, Note_on_c, 8, 44, 58
10, 75732, Note_on_c, 8, 44, 0
10, 75840, Note_on_c, 8, 43, 58
10, 76080, Note_on_c, 8, 43, 0
10, 76080, Note_on_c, 8, 39, 58
10, 76272, Note_on_c, 8, 39, 0
10, 76560, Note_on_c, 8, 36, 58
10, 76800, Note_on_c, 8, 36, 0
10, 76800, Note_on_c, 8, 34, 58
10, 76956, Note_on_c, 8, 34, 0
10, 77040, Note_on_c, 8, 46, 58
10, 77196, Note_on_c, 8, 46, 0
10, 77280, Note_on_c, 8, 34, 58
10, 77664, Note_on_c, 8, 34, 0
10, 78000, Note_on_c, 8, 34, 78
10, 78240, Note_on_c, 8, 34, 0
10, 78240, Note_on_c, 8, 35, 58
10, 78480, Note_on_c, 8, 35, 0
10, 78480, Note_on_c, 8, 33, 58
10, 78672, Note_on_c, 8, 33, 0
10, 78720, Note_on_c, 8, 34, 58
10, 79104, Note_on_c, 8, 34, 0
10, 79680, Note_on_c, 8, 34, 58
10, 80064, Note_on_c, 8, 34, 0
10, 80880, Note_on_c, 8, 46, 58
10, 81120, Note_on_c, 8, 46, 0
10, 81120, Note_on_c, 8, 45, 58
10, 81312, Note_on_c, 8, 45, 0
10, 81840, Note_on_c, 8, 34, 58
10, 82080, Note_on_c, 8, 34, 0
10, 82080, Note_on_c, 8, 35, 58
10, 82272, Note_on_c, 8, 35, 0
10, 83040, Note_on_c, 8, 50, 58
10, 83172, Note_on_c, 8, 50, 0
10, 83280, Note_on_c, 8, 46, 58
10, 83412, Note_on_c, 8, 46, 0
10, 84720, Note_on_c, 8, 39, 58
10, 84864, Note_on_c, 8, 39, 0
10, 84960, Note_on_c, 8, 43, 58
10, 85104, Note_on_c, 8, 43, 0
10, 85200, Note_on_c, 8, 39, 58
10, 85344, Note_on_c, 8, 39, 0
10, 85680, Note_on_c, 8, 34, 58
10, 85824, Note_on_c, 8, 34, 0
10, 85920, Note_on_c, 8, 38, 58
10, 86064, Note_on_c, 8, 38, 0
10, 86160, Note_on_c, 8, 34, 58
10, 86304, Note_on_c, 8, 34, 0
10, 86640, Note_on_c, 8, 39, 58
10, 86784, Note_on_c, 8, 39, 0
10, 86880, Note_on_c, 8, 43, 58
10, 87024, Note_on_c, 8, 43, 0
10, 87120, Note_on_c, 8, 39, 58
10, 87264, Note_on_c, 8, 39, 0
10, 87600, Note_on_c, 8, 34, 58
10, 87744, Note_on_c, 8, 34, 0
10, 87840, Note_on_c, 8, 38, 58
10, 87984, Note_on_c, 8, 38, 0
10, 88080, Note_on_c, 8, 34, 58
10, 88224, Note_on_c, 8, 34, 0
10, 88320, Note_on_c, 8, 39, 58
10, 88452, Note_on_c, 8, 39, 0
10, 88560, Note_on_c, 8, 31, 58
10, 88800, Note_on_c, 8, 31, 0
10, 88800, Note_on_c, 8, 32, 58
10, 88992, Note_on_c, 8, 32, 0
10, 89520, Note_on_c, 8, 33, 58
10, 89760, Note_on_c, 8, 33, 0
10, 89760, Note_on_c, 8, 34, 58
10, 89952, Note_on_c, 8, 34, 0
10, 90480, Note_on_c, 8, 35, 58
10, 90720, Note_on_c, 8, 35, 0
10, 90720, Note_on_c, 8, 36, 58
10, 90912, Note_on_c, 8, 36, 0
10, 91440, Note_on_c, 8, 33, 58
10, 91680, Note_on_c, 8, 33, 0
10, 91680, Note_on_c, 8, 34, 58
10, 91872, Note_on_c, 8, 34, 0
10, 92400, Note_on_c, 8, 38, 58
10, 92640, Note_on_c, 8, 38, 0
10, 92640, Note_on_c, 8, 27, 58
10, 92832, Note_on_c, 8, 27, 0
10, 94080, Note_on_c, 8, 27, 1
10, 94464, Note_on_c, 8, 27, 0
10, 94464, End_track
11, 0, Start_track
11, 0, End_track
0, 0, End_of_file