0, 0, Header, 1, 11, 480
1, 0, Start_track
1, 0, Title_t, "Sample Custom Template"
1, 0, Copyright_t, "All Rights Reserved"
1, 0, Tempo, 1200000
1, 0, Time_signature, 3, 2, 24, 8
1, 0, Key_signature, 1, "major"
1, 480, Tempo, 1250000
1, 960, Tempo, 1304347
1, 1440, Tempo, 1200000
1, 2160, Tempo, 1304347
1, 2880, Tempo, 1250000
1, 3120, Tempo, 1200000
1, 5040, Tempo, 1363636
1, 5760, Tempo, 1200000
1, 6240, Tempo, 1250000
1, 6720, Tempo, 1304347
1, 7200, Tempo, 1200000
1, 8400, Tempo, 1304347
1, 8880, Tempo, 1200000
1, 9360, Tempo, 1250000
1, 9600, Tempo, 1304347
1, 10080, Tempo, 1304347
1, 10800, Tempo, 1200000
1, 11520, Tempo, 1250000
1, 13440, Tempo, 1363636
1, 14400, Tempo, 1250000
1, 15840, Tempo, 1304347
1, 16560, Tempo, 1363636
1, 17280, Tempo, 1224489
1, 18960, Tempo, 1250000
1, 19200, Tempo, 1304347
1, 19680, Tempo, 1428571
1, 19920, Tempo, 1363636
1, 20160, Tempo, 1224489
1, 20640, Tempo, 1250000
1, 21120, Tempo, 1304347
1, 21840, Tempo, 1200000
1, 24240, Tempo, 1276595
1, 24720, Tempo, 1200000
1, 25200, Tempo, 1428571
1, 25440, Tempo, 1304347
1, 26640, Tempo, 1363636
1, 27360, Tempo, 1276595
1, 28800, Tempo, 1200000
1, 30240, Tempo, 1250000
1, 31680, Tempo, 1200000
1, 34080, Tempo, 1304347
1, 34560, Tempo, 1276595
1, 36000, Tempo, 1250000
1, 37440, Tempo, 1200000
1, 39360, Tempo, 1363636
1, 39840, Tempo, 1250000
1, 40320, Tempo, 1304347
1, 41280, Tempo, 1333333
1, 41760, Tempo, 1276595
1, 42000, Tempo, 1333333
1, 42720, Tempo, 1500000
1, 42960, Tempo, 1578947
1, 43200, Tempo, 1666666
1, 44160, Tempo, 1875000
1, 44760, Tempo, 1250000
1, 48600, Tempo, 1363636
1, 49080, Tempo, 1363636
1, 49320, Tempo, 1250000
1, 49800, Tempo, 1304347
1, 50520, Tempo, 1363636
1, 51720, Tempo, 1224489
1, 51960, Tempo, 1250000
1, 52680, Tempo, 1304347
1, 52920, Tempo, 1363636
1, 53400, Tempo, 1200000
1, 53880, Tempo, 1428571
1, 54360, Tempo, 1500000
1, 54840, Tempo, 1200000
1, 55320, Tempo, 1250000
1, 55800, Tempo, 1304347
1, 56280, Tempo, 1200000
1, 57000, Tempo, 1304347
1, 57720, Tempo, 1250000
1, 57960, Tempo, 1200000
1, 60600, Tempo, 1200000
1, 61080, Tempo, 1250000
1, 61560, Tempo, 1304347
1, 62040, Tempo, 1200000
1, 63240, Tempo, 1304347
1, 63720, Tempo, 1200000
1, 64200, Tempo, 1250000
1, 64440, Tempo, 1304347
1, 64920, Tempo, 1304347
1, 74040, Tempo, 1304347
1, 74520, Tempo, 1428571
1, 75000, Tempo, 1304347
1, 76440, Tempo, 1200000
1, 76680, Tempo, 1153846
1, 77400, Tempo, 1250000
1, 77640, Tempo, 1304347
1, 77880, Tempo, 1250000
1, 81480, Tempo, 1363636
1, 82920, Tempo, 1304347
1, 83160, Tempo, 1363636
1, 83400, Tempo, 1428571
1, 83640, Tempo, 1304347
1, 85080, Tempo, 1250000
1, 86520, Tempo, 1200000
1, 87720, Tempo, 1250000
1, 88440, Tempo, 1363636
1, 88920, Tempo, 1250000
1, 89400, Tempo, 1304347
1, 90840, Tempo, 1250000
1, 92280, Tempo, 1176470
1, 92760, Tempo, 1132075
1, 93000, Tempo, 1090909
1, 93240, Tempo, 1200000
1, 93480, Tempo, 1304347
1, 93720, Tempo, 1250000
1, 93960, Tempo, 1304347
1, 94200, Tempo, 1363636
1, 94680, Tempo, 1200000
1, 95160, Tempo, 1200000
1, 95400, Tempo, 1304347
1, 96120, Tempo, 1363636
1, 96600, Tempo, 1200000
1, 97080, Tempo, 1363636
1, 97560, Tempo, 1500000
1, 97720, Tempo, 1578947
1, 97800, Tempo, 1666666
1, 98040, Tempo, 1764705
1, 99000, Tempo, 3000000
1, 99000, End_track
2, 0, Start_track
2, 0, Title_t, "2. Andante from"
2, 0, MIDI_port, 0
2, 0, Channel_prefix, 0
2, 0, Control_c, 0, 7, 127
2, 0, Control_c, 0, 10, 15
2, 0, Control_c, 0, 91, 47
2, 0, Program_c, 0, 50
2, 0, Note_on_c, 0, 74, 75
2, 355, Note_off_c, 0, 74, 64
2, 360, Note_on_c, 0, 71, 75
2, 420, Note_off_c, 0, 71, 64
2, 420, Note_on_c, 0, 72, 75
2, 480, Note_off_c, 0, 72, 64
2, 480, Note_on_c, 0, 74, 75
2, 560, Note_off_c, 0, 74, 64
2, 720, Note_on_c, 0, 74, 75
2, 800, Note_off_c, 0, 74, 64
2, 960, Note_on_c, 0, 74, 75
2, 1200, Note_off_c, 0, 74, 64
2, 1200, Note_on_c, 0, 79, 75
2, 1375, Note_off_c, 0, 79, 64
2, 1440, Note_on_c, 0, 74, 75
2, 1795, Note_off_c, 0, 74, 64
2, 1800, Note_on_c, 0, 71, 75
2, 1860, Note_off_c, 0, 71, 64
2, 1860, Note_on_c, 0, 72, 75
2, 1920, Note_off_c, 0, 72, 64
2, 1920, Note_on_c, 0, 74, 75
2, 2320, Note_off_c, 0, 74, 64
2, 2880, Note_on_c, 0, 72, 75
2, 3000, Note_off_c, 0, 72, 64
2, 3000, Note_on_c, 0, 74, 75
2, 3120, Note_off_c, 0, 74, 64
2, 3120, Note_on_c, 0, 76, 75
2, 3240, Note_off_c, 0, 76, 64
2, 3240, Note_on_c, 0, 72, 75
2, 3360, Note_off_c, 0, 72, 64
2, 3360, Note_on_c, 0, 71, 75
2, 3480, Note_off_c, 0, 71, 64
2, 3480, Note_on_c, 0, 72, 75
2, 3600, Note_off_c, 0, 72, 64
2, 3600, Note_on_c, 0, 74, 75
2, 3720, Note_off_c, 0, 74, 64
2, 3720, Note_on_c, 0, 71, 75
2, 3840, Note_off_c, 0, 71, 64
2, 3840, Note_on_c, 0, 69, 75
2, 3960, Note_off_c, 0, 69, 64
2, 3960, Note_on_c, 0, 71, 75
2, 4080, Note_off_c, 0, 71, 64
2, 4080, Note_on_c, 0, 72, 75
2, 4200, Note_off_c, 0, 72, 64
2, 4200, Note_on_c, 0, 69, 75
2, 4320, Note_off_c, 0, 69, 64
2, 4320, Note_on_c, 0, 72, 75
2, 4440, Note_off_c, 0, 72, 64
2, 4440, Note_on_c, 0, 71, 75
2, 4560, Note_off_c, 0, 71, 64
2, 4560, Note_on_c, 0, 69, 75
2, 4680, Note_off_c, 0, 69, 64
2, 4680, Note_on_c, 0, 67, 75
2, 4795, Note_off_c, 0, 67, 64
2, 4800, Note_on_c, 0, 67, 75
2, 5200, Note_off_c, 0, 67, 64
2, 5760, Note_on_c, 0, 74, 75
2, 6115, Note_off_c, 0, 74, 64
2, 6120, Note_on_c, 0, 71, 75
2, 6180, Note_off_c, 0, 71, 64
2, 6180, Note_on_c, 0, 72, 75
2, 6240, Note_off_c, 0, 72, 64
2, 6240, Note_on_c, 0, 74, 75
2, 6320, Note_off_c, 0, 74, 64
2, 6480, Note_on_c, 0, 74, 75
2, 6560, Note_off_c, 0, 74, 64
2, 6720, Note_on_c, 0, 74, 75
2, 6960, Note_off_c, 0, 74, 64
2, 6960, Note_on_c, 0, 79, 75
2, 7135, Note_off_c, 0, 79, 64
2, 7200, Note_on_c, 0, 74, 75
2, 7555, Note_off_c, 0, 74, 64
2, 7560, Note_on_c, 0, 71, 75
2, 7620, Note_off_c, 0, 71, 64
2, 7620, Note_on_c, 0, 72, 75
2, 7680, Note_off_c, 0, 72, 64
2, 7680, Note_on_c, 0, 74, 75
2, 8080, Note_off_c, 0, 74, 64
2, 8400, Note_on_c, 0, 79, 75
2, 8640, Note_off_c, 0, 79, 64
2, 8640, Note_on_c, 0, 78, 75
2, 8875, Note_off_c, 0, 78, 64
2, 8880, Note_on_c, 0, 76, 75
2, 9280, Note_off_c, 0, 76, 64
2, 9360, Note_on_c, 0, 74, 75
2, 9480, Note_off_c, 0, 74, 64
2, 9480, Note_on_c, 0, 72, 75
2, 9600, Note_off_c, 0, 72, 64
2, 9600, Note_on_c, 0, 71, 75
2, 9720, Note_off_c, 0, 71, 64
2, 9720, Note_on_c, 0, 69, 75
2, 9840, Note_off_c, 0, 69, 64
2, 9840, Note_on_c, 0, 69, 75
2, 9960, Note_off_c, 0, 69, 64
2, 9960, Note_on_c, 0, 67, 75
2, 10080, Note_off_c, 0, 67, 64
2, 10080, Note_on_c, 0, 69, 75
2, 10200, Note_off_c, 0, 69, 64
2, 10200, Note_on_c, 0, 67, 68
2, 10320, Note_off_c, 0, 67, 64
2, 10320, Note_on_c, 0, 66, 61
2, 10440, Note_off_c, 0, 66, 64
2, 10440, Note_on_c, 0, 67, 53
2, 10560, Note_off_c, 0, 67, 64
2, 10560, Note_on_c, 0, 66, 45
2, 10960, Note_off_c, 0, 66, 64
2, 11520, Note_on_c, 0, 81, 45
2, 14880, Note_off_c, 0, 81, 64
2, 14880, Note_on_c, 0, 79, 45
2, 15360, Note_off_c, 0, 79, 64
2, 15360, Note_on_c, 0, 78, 45
2, 15840, Note_off_c, 0, 78, 64
2, 15840, Note_on_c, 0, 79, 45
2, 15960, Note_off_c, 0, 79, 64
2, 15960, Note_on_c, 0, 78, 46
2, 16080, Note_off_c, 0, 78, 64
2, 16080, Note_on_c, 0, 76, 47
2, 16200, Note_off_c, 0, 76, 64
2, 16200, Note_on_c, 0, 78, 48
2, 16320, Note_off_c, 0, 78, 64
2, 16320, Note_on_c, 0, 76, 49
2, 16720, Note_off_c, 0, 76, 64
2, 17280, Note_on_c, 0, 79, 60
2, 17400, Note_off_c, 0, 79, 64
2, 17400, Note_on_c, 0, 78, 60
2, 17515, Note_off_c, 0, 78, 64
2, 17520, Note_on_c, 0, 76, 60
2, 17640, Note_off_c, 0, 76, 64
2, 17640, Note_on_c, 0, 74, 60
2, 17755, Note_off_c, 0, 74, 64
2, 17760, Note_on_c, 0, 74, 60
2, 17840, Note_off_c, 0, 74, 64
2, 18000, Note_on_c, 0, 74, 60
2, 18080, Note_off_c, 0, 74, 64
2, 18240, Note_on_c, 0, 74, 60
2, 18480, Note_off_c, 0, 74, 64
2, 18480, Note_on_c, 0, 78, 60
2, 18715, Note_off_c, 0, 78, 64
2, 18720, Note_on_c, 0, 78, 60
2, 18840, Note_off_c, 0, 78, 64
2, 18840, Note_on_c, 0, 76, 60
2, 18955, Note_off_c, 0, 76, 64
2, 18960, Note_on_c, 0, 74, 60
2, 19080, Note_off_c, 0, 74, 64
2, 19080, Note_on_c, 0, 73, 60
2, 19195, Note_off_c, 0, 73, 64
2, 19200, Note_on_c, 0, 73, 60
2, 19600, Note_off_c, 0, 73, 64
2, 20160, Note_on_c, 0, 74, 60
2, 20520, Note_off_c, 0, 74, 64
2, 20520, Note_on_c, 0, 76, 60
2, 20580, Note_off_c, 0, 76, 64
2, 20580, Note_on_c, 0, 74, 60
2, 20640, Note_off_c, 0, 74, 64
2, 20640, Note_on_c, 0, 73, 60
2, 20880, Note_off_c, 0, 73, 64
2, 20880, Note_on_c, 0, 71, 60
2, 21120, Note_off_c, 0, 71, 64
2, 21120, Note_on_c, 0, 69, 60
2, 21360, Note_off_c, 0, 69, 64
2, 21360, Note_on_c, 0, 68, 60
2, 21600, Note_off_c, 0, 68, 64
2, 21600, Note_on_c, 0, 69, 60
2, 22000, Note_off_c, 0, 69, 64
2, 23040, Note_on_c, 0, 86, 75
2, 24235, Note_off_c, 0, 86, 64
2, 24240, Note_on_c, 0, 84, 75
2, 24475, Note_off_c, 0, 84, 64
2, 24480, Note_on_c, 0, 82, 75
2, 24720, Note_off_c, 0, 82, 64
2, 24720, Note_on_c, 0, 83, 75
2, 24955, Note_off_c, 0, 83, 64
2, 24960, Note_on_c, 0, 83, 75
2, 25600, Note_off_c, 0, 83, 64
2, 25680, Note_on_c, 0, 83, 75
2, 25915, Note_off_c, 0, 83, 64
2, 25920, Note_on_c, 0, 83, 75
2, 26160, Note_off_c, 0, 83, 64
2, 26160, Note_on_c, 0, 81, 75
2, 26635, Note_off_c, 0, 81, 64
2, 26640, Note_on_c, 0, 76, 75
2, 26760, Note_off_c, 0, 76, 64
2, 26760, Note_on_c, 0, 78, 75
2, 26880, Note_off_c, 0, 78, 64
2, 26880, Note_on_c, 0, 79, 73
2, 26960, Note_off_c, 0, 79, 64
2, 26960, Note_on_c, 0, 78, 72
2, 27040, Note_off_c, 0, 78, 64
2, 27040, Note_on_c, 0, 76, 71
2, 27120, Note_off_c, 0, 76, 64
2, 27120, Note_on_c, 0, 83, 70
2, 27200, Note_off_c, 0, 83, 64
2, 27200, Note_on_c, 0, 81, 69
2, 27280, Note_off_c, 0, 81, 64
2, 27280, Note_on_c, 0, 79, 68
2, 27360, Note_off_c, 0, 79, 64
2, 27360, Note_on_c, 0, 79, 66
2, 27390, Note_off_c, 0, 79, 64
2, 27390, Note_on_c, 0, 81, 66
2, 27420, Note_off_c, 0, 81, 64
2, 27420, Note_on_c, 0, 79, 66
2, 27450, Note_off_c, 0, 79, 64
2, 27450, Note_on_c, 0, 81, 66
2, 27480, Note_off_c, 0, 81, 64
2, 27480, Note_on_c, 0, 79, 66
2, 27510, Note_off_c, 0, 79, 64
2, 27510, Note_on_c, 0, 81, 66
2, 27540, Note_off_c, 0, 81, 64
2, 27540, Note_on_c, 0, 79, 66
2, 27570, Note_off_c, 0, 79, 64
2, 27570, Note_on_c, 0, 81, 66
2, 27600, Note_off_c, 0, 81, 64
2, 27600, Note_on_c, 0, 79, 66
2, 27630, Note_off_c, 0, 79, 64
2, 27630, Note_on_c, 0, 81, 66
2, 27660, Note_off_c, 0, 81, 64
2, 27660, Note_on_c, 0, 79, 66
2, 27690, Note_off_c, 0, 79, 64
2, 27690, Note_on_c, 0, 81, 66
2, 27720, Note_off_c, 0, 81, 64
2, 27720, Note_on_c, 0, 78, 66
2, 27780, Note_off_c, 0, 78, 64
2, 27780, Note_on_c, 0, 79, 64
2, 27840, Note_off_c, 0, 79, 64
2, 27840, Note_on_c, 0, 78, 62
2, 28075, Note_off_c, 0, 78, 64
2, 28920, Note_on_c, 0, 74, 30
2, 29040, Note_off_c, 0, 74, 64
2, 29040, Note_on_c, 0, 73, 31
2, 29120, Note_off_c, 0, 73, 64
2, 29160, Note_on_c, 0, 74, 32
2, 29240, Note_off_c, 0, 74, 64
2, 29280, Note_on_c, 0, 76, 33
2, 29400, Note_off_c, 0, 76, 64
2, 29400, Note_on_c, 0, 74, 34
2, 29480, Note_off_c, 0, 74, 64
2, 29520, Note_on_c, 0, 78, 35
2, 29640, Note_off_c, 0, 78, 64
2, 29640, Note_on_c, 0, 76, 36
2, 29720, Note_off_c, 0, 76, 64
2, 29760, Note_on_c, 0, 79, 37
2, 29880, Note_off_c, 0, 79, 64
2, 29880, Note_on_c, 0, 78, 39
2, 29960, Note_off_c, 0, 78, 64
2, 30000, Note_on_c, 0, 76, 41
2, 30120, Note_off_c, 0, 76, 64
2, 30120, Note_on_c, 0, 75, 43
2, 30200, Note_off_c, 0, 75, 64
2, 30360, Note_on_c, 0, 76, 45
2, 30445, Note_off_c, 0, 76, 64
2, 30480, Note_on_c, 0, 75, 45
2, 30560, Note_off_c, 0, 75, 64
2, 30600, Note_on_c, 0, 76, 45
2, 30680, Note_off_c, 0, 76, 64
2, 30720, Note_on_c, 0, 78, 45
2, 30840, Note_off_c, 0, 78, 64
2, 30840, Note_on_c, 0, 76, 45
2, 30920, Note_off_c, 0, 76, 64
2, 30960, Note_on_c, 0, 79, 45
2, 31080, Note_off_c, 0, 79, 64
2, 31080, Note_on_c, 0, 78, 45
2, 31160, Note_off_c, 0, 78, 64
2, 31200, Note_on_c, 0, 81, 45
2, 31320, Note_off_c, 0, 81, 64
2, 31320, Note_on_c, 0, 79, 45
2, 31400, Note_off_c, 0, 79, 64
2, 31440, Note_on_c, 0, 78, 45
2, 31560, Note_off_c, 0, 78, 64
2, 31560, Note_on_c, 0, 76, 45
2, 31675, Note_off_c, 0, 76, 64
2, 31800, Note_on_c, 0, 78, 48
2, 31920, Note_off_c, 0, 78, 64
2, 31920, Note_on_c, 0, 79, 52
2, 32000, Note_off_c, 0, 79, 64
2, 32040, Note_on_c, 0, 79, 56
2, 32120, Note_off_c, 0, 79, 64
2, 32160, Note_on_c, 0, 81, 60
2, 32240, Note_off_c, 0, 81, 64
2, 32280, Note_on_c, 0, 81, 64
2, 32360, Note_off_c, 0, 81, 64
2, 32400, Note_on_c, 0, 83, 68
2, 32480, Note_off_c, 0, 83, 64
2, 32520, Note_on_c, 0, 83, 72
2, 32600, Note_off_c, 0, 83, 64
2, 32640, Note_on_c, 0, 85, 76
2, 32720, Note_off_c, 0, 85, 64
2, 32760, Note_on_c, 0, 85, 80
2, 32840, Note_off_c, 0, 85, 64
2, 32880, Note_on_c, 0, 86, 84
2, 32960, Note_off_c, 0, 86, 64
2, 33000, Note_on_c, 0, 86, 88
2, 33080, Note_off_c, 0, 86, 64
2, 33120, Note_on_c, 0, 85, 92
2, 33240, Note_off_c, 0, 85, 64
2, 33240, Note_on_c, 0, 83, 88
2, 33360, Note_off_c, 0, 83, 64
2, 33360, Note_on_c, 0, 81, 84
2, 33480, Note_off_c, 0, 81, 64
2, 33480, Note_on_c, 0, 79, 80
2, 33600, Note_off_c, 0, 79, 64
2, 33600, Note_on_c, 0, 78, 76
2, 34080, Note_off_c, 0, 78, 64
2, 34080, Note_on_c, 0, 76, 60
2, 34110, Note_off_c, 0, 76, 64
2, 34110, Note_on_c, 0, 78, 59
2, 34140, Note_off_c, 0, 78, 64
2, 34140, Note_on_c, 0, 76, 58
2, 34170, Note_off_c, 0, 76, 64
2, 34170, Note_on_c, 0, 78, 57
2, 34200, Note_off_c, 0, 78, 64
2, 34200, Note_on_c, 0, 76, 56
2, 34230, Note_off_c, 0, 76, 64
2, 34230, Note_on_c, 0, 76, 55
2, 34260, Note_off_c, 0, 76, 64
2, 34260, Note_on_c, 0, 78, 54
2, 34290, Note_off_c, 0, 78, 64
2, 34290, Note_on_c, 0, 76, 53
2, 34320, Note_off_c, 0, 76, 64
2, 34320, Note_on_c, 0, 78, 52
2, 34350, Note_off_c, 0, 78, 64
2, 34350, Note_on_c, 0, 76, 51
2, 34380, Note_off_c, 0, 76, 64
2, 34380, Note_on_c, 0, 78, 50
2, 34410, Note_off_c, 0, 78, 64
2, 34410, Note_on_c, 0, 78, 49
2, 34440, Note_off_c, 0, 78, 64
2, 34440, Note_on_c, 0, 74, 48
2, 34500, Note_off_c, 0, 74, 64
2, 34500, Note_on_c, 0, 76, 45
2, 34555, Note_off_c, 0, 76, 64
2, 34680, Note_on_c, 0, 74, 30
2, 34800, Note_off_c, 0, 74, 64
2, 34800, Note_on_c, 0, 73, 31
2, 34855, Note_off_c, 0, 73, 64
2, 34920, Note_on_c, 0, 74, 31
2, 35005, Note_off_c, 0, 74, 64
2, 35040, Note_on_c, 0, 76, 32
2, 35160, Note_off_c, 0, 76, 64
2, 35160, Note_on_c, 0, 74, 33
2, 35215, Note_off_c, 0, 74, 64
2, 35280, Note_on_c, 0, 78, 33
2, 35400, Note_off_c, 0, 78, 64
2, 35400, Note_on_c, 0, 76, 35
2, 35455, Note_off_c, 0, 76, 64
2, 35520, Note_on_c, 0, 79, 37
2, 35640, Note_off_c, 0, 79, 64
2, 35640, Note_on_c, 0, 78, 39
2, 35695, Note_off_c, 0, 78, 64
2, 35760, Note_on_c, 0, 76, 41
2, 35880, Note_off_c, 0, 76, 64
2, 35880, Note_on_c, 0, 75, 43
2, 35995, Note_off_c, 0, 75, 64
2, 36120, Note_on_c, 0, 76, 45
2, 36240, Note_off_c, 0, 76, 64
2, 36240, Note_on_c, 0, 75, 45
2, 36320, Note_off_c, 0, 75, 64
2, 36360, Note_on_c, 0, 76, 45
2, 36440, Note_off_c, 0, 76, 64
2, 36480, Note_on_c, 0, 78, 45
2, 36600, Note_off_c, 0, 78, 64
2, 36600, Note_on_c, 0, 76, 45
2, 36655, Note_off_c, 0, 76, 64
2, 36720, Note_on_c, 0, 79, 45
2, 36840, Note_off_c, 0, 79, 64
2, 36840, Note_on_c, 0, 78, 45
2, 36895, Note_off_c, 0, 78, 64
2, 36960, Note_on_c, 0, 81, 45
2, 37080, Note_off_c, 0, 81, 64
2, 37080, Note_on_c, 0, 79, 45
2, 37135, Note_off_c, 0, 79, 64
2, 37200, Note_on_c, 0, 78, 45
2, 37320, Note_off_c, 0, 78, 64
2, 37320, Note_on_c, 0, 76, 45
2, 37435, Note_off_c, 0, 76, 64
2, 37560, Note_on_c, 0, 78, 47
2, 37680, Note_off_c, 0, 78, 64
2, 37680, Note_on_c, 0, 79, 49
2, 37760, Note_off_c, 0, 79, 64
2, 37800, Note_on_c, 0, 79, 51
2, 37880, Note_off_c, 0, 79, 64
2, 37920, Note_on_c, 0, 81, 53
2, 38000, Note_off_c, 0, 81, 64
2, 38040, Note_on_c, 0, 81, 55
2, 38120, Note_off_c, 0, 81, 64
2, 38160, Note_on_c, 0, 83, 57
2, 38240, Note_off_c, 0, 83, 64
2, 38280, Note_on_c, 0, 83, 60
2, 38360, Note_off_c, 0, 83, 64
2, 38400, Note_on_c, 0, 85, 63
2, 38480, Note_off_c, 0, 85, 64
2, 38520, Note_on_c, 0, 85, 66
2, 38600, Note_off_c, 0, 85, 64
2, 38640, Note_on_c, 0, 86, 69
2, 38720, Note_off_c, 0, 86, 64
2, 38760, Note_on_c, 0, 86, 72
2, 38840, Note_off_c, 0, 86, 64
2, 38880, Note_on_c, 0, 85, 75
2, 39000, Note_off_c, 0, 85, 64
2, 39000, Note_on_c, 0, 83, 75
2, 39120, Note_off_c, 0, 83, 64
2, 39120, Note_on_c, 0, 81, 75
2, 39240, Note_off_c, 0, 81, 64
2, 39240, Note_on_c, 0, 79, 75
2, 39360, Note_off_c, 0, 79, 64
2, 39360, Note_on_c, 0, 78, 75
2, 39840, Note_off_c, 0, 78, 64
2, 39840, Note_on_c, 0, 76, 75
2, 39870, Note_off_c, 0, 76, 64
2, 39870, Note_on_c, 0, 78, 75
2, 39900, Note_off_c, 0, 78, 64
2, 39900, Note_on_c, 0, 76, 75
2, 39930, Note_off_c, 0, 76, 64
2, 39930, Note_on_c, 0, 78, 75
2, 39960, Note_off_c, 0, 78, 64
2, 39960, Note_on_c, 0, 76, 75
2, 39990, Note_off_c, 0, 76, 64
2, 39990, Note_on_c, 0, 78, 75
2, 40020, Note_off_c, 0, 78, 64
2, 40020, Note_on_c, 0, 76, 75
2, 40050, Note_off_c, 0, 76, 64
2, 40050, Note_on_c, 0, 78, 75
2, 40080, Note_off_c, 0, 78, 64
2, 40080, Note_on_c, 0, 76, 75
2, 40110, Note_off_c, 0, 76, 64
2, 40110, Note_on_c, 0, 78, 75
2, 40140, Note_off_c, 0, 78, 64
2, 40140, Note_on_c, 0, 76, 75
2, 40170, Note_off_c, 0, 76, 64
2, 40170, Note_on_c, 0, 78, 75
2, 40200, Note_off_c, 0, 78, 64
2, 40200, Note_on_c, 0, 76, 75
2, 40230, Note_off_c, 0, 76, 64
2, 40230, Note_on_c, 0, 78, 75
2, 40260, Note_off_c, 0, 78, 64
2, 40260, Note_on_c, 0, 74, 75
2, 40290, Note_off_c, 0, 74, 64
2, 40290, Note_on_c, 0, 76, 75
2, 40320, Note_off_c, 0, 76, 64
2, 40320, Note_on_c, 0, 74, 75
2, 40555, Note_off_c, 0, 74, 64
2, 40560, Note_on_c, 0, 81, 92
2, 41200, Note_off_c, 0, 81, 64
2, 41280, Note_on_c, 0, 79, 92
2, 41360, Note_off_c, 0, 79, 64
2, 41360, Note_on_c, 0, 78, 91
2, 41440, Note_off_c, 0, 78, 64
2, 41440, Note_on_c, 0, 76, 89
2, 41520, Note_off_c, 0, 76, 64
2, 41520, Note_on_c, 0, 74, 87
2, 41600, Note_off_c, 0, 74, 64
2, 41600, Note_on_c, 0, 76, 85
2, 41680, Note_off_c, 0, 76, 64
2, 41680, Note_on_c, 0, 73, 83
2, 41760, Note_off_c, 0, 73, 64
2, 41760, Note_on_c, 0, 74, 81
2, 41995, Note_off_c, 0, 74, 64
2, 42000, Note_on_c, 0, 69, 75
2, 42720, Note_off_c, 0, 69, 64
2, 42720, Note_on_c, 0, 67, 60
2, 42800, Note_off_c, 0, 67, 64
2, 42800, Note_on_c, 0, 66, 58
2, 42880, Note_off_c, 0, 66, 64
2, 42880, Note_on_c, 0, 64, 56
2, 42960, Note_off_c, 0, 64, 64
2, 42960, Note_on_c, 0, 62, 54
2, 43040, Note_off_c, 0, 62, 64
2, 43040, Note_on_c, 0, 64, 51
2, 43120, Note_off_c, 0, 64, 64
2, 43120, Note_on_c, 0, 61, 48
2, 43200, Note_off_c, 0, 61, 64
2, 43200, Note_on_c, 0, 61, 45
2, 44160, Note_off_c, 0, 61, 64
2, 44160, Note_on_c, 0, 62, 45
2, 44560, Note_off_c, 0, 62, 64
2, 46200, Note_on_c, 0, 81, 45
2, 47160, Note_off_c, 0, 81, 64
2, 47160, Note_on_c, 0, 79, 45
2, 47280, Note_off_c, 0, 79, 64
2, 47280, Note_on_c, 0, 78, 45
2, 47400, Note_off_c, 0, 78, 64
2, 47400, Note_on_c, 0, 76, 45
2, 47520, Note_off_c, 0, 76, 64
2, 47520, Note_on_c, 0, 74, 45
2, 47640, Note_off_c, 0, 74, 64
2, 47640, Note_on_c, 0, 79, 45
2, 47880, Note_off_c, 0, 79, 64
2, 47880, Note_on_c, 0, 74, 45
2, 48115, Note_off_c, 0, 74, 64
2, 48120, Note_on_c, 0, 74, 45
2, 48520, Note_off_c, 0, 74, 64
2, 48840, Note_on_c, 0, 74, 45
2, 49080, Note_off_c, 0, 74, 64
2, 49080, Note_on_c, 0, 72, 45
2, 49315, Note_off_c, 0, 72, 64
2, 49320, Note_on_c, 0, 84, 45
2, 49795, Note_off_c, 0, 84, 64
2, 49800, Note_on_c, 0, 81, 45
2, 50040, Note_off_c, 0, 81, 64
2, 50040, Note_on_c, 0, 78, 45
2, 50280, Note_off_c, 0, 78, 64
2, 50280, Note_on_c, 0, 72, 45
2, 50520, Note_off_c, 0, 72, 64
2, 50520, Note_on_c, 0, 72, 45
2, 50640, Note_off_c, 0, 72, 64
2, 50640, Note_on_c, 0, 71, 46
2, 50760, Note_off_c, 0, 71, 64
2, 50760, Note_on_c, 0, 76, 47
2, 50880, Note_off_c, 0, 76, 64
2, 50880, Note_on_c, 0, 74, 48
2, 50995, Note_off_c, 0, 74, 64
2, 51000, Note_on_c, 0, 74, 49
2, 51400, Note_off_c, 0, 74, 64
2, 51720, Note_on_c, 0, 77, 55
2, 51960, Note_off_c, 0, 77, 64
2, 51960, Note_on_c, 0, 76, 57
2, 52195, Note_off_c, 0, 76, 64
2, 52200, Note_on_c, 0, 84, 60
2, 52675, Note_off_c, 0, 84, 64
2, 52680, Note_on_c, 0, 83, 60
2, 52920, Note_off_c, 0, 83, 64
2, 52920, Note_on_c, 0, 81, 60
2, 53160, Note_off_c, 0, 81, 64
2, 53160, Note_on_c, 0, 79, 60
2, 53400, Note_off_c, 0, 79, 64
2, 53400, Note_on_c, 0, 79, 60
2, 53430, Note_off_c, 0, 79, 64
2, 53430, Note_on_c, 0, 81, 60
2, 53460, Note_off_c, 0, 81, 64
2, 53460, Note_on_c, 0, 79, 60
2, 53490, Note_off_c, 0, 79, 64
2, 53490, Note_on_c, 0, 81, 60
2, 53520, Note_off_c, 0, 81, 64
2, 53520, Note_on_c, 0, 79, 60
2, 53550, Note_off_c, 0, 79, 64
2, 53550, Note_on_c, 0, 81, 60
2, 53580, Note_off_c, 0, 81, 64
2, 53580, Note_on_c, 0, 79, 60
2, 53610, Note_off_c, 0, 79, 64
2, 53610, Note_on_c, 0, 81, 60
2, 53640, Note_off_c, 0, 81, 64
2, 53640, Note_on_c, 0, 79, 60
2, 53670, Note_off_c, 0, 79, 64
2, 53670, Note_on_c, 0, 81, 60
2, 53700, Note_off_c, 0, 81, 64
2, 53700, Note_on_c, 0, 79, 60
2, 53730, Note_off_c, 0, 79, 64
2, 53730, Note_on_c, 0, 81, 60
2, 53760, Note_off_c, 0, 81, 64
2, 53760, Note_on_c, 0, 79, 60
2, 53790, Note_off_c, 0, 79, 64
2, 53790, Note_on_c, 0, 81, 60
2, 53820, Note_off_c, 0, 81, 64
2, 53820, Note_on_c, 0, 78, 60
2, 53850, Note_off_c, 0, 78, 64
2, 53850, Note_on_c, 0, 79, 60
2, 53880, Note_off_c, 0, 79, 64
2, 53880, Note_on_c, 0, 78, 60
2, 54115, Note_off_c, 0, 78, 64
2, 54840, Note_on_c, 0, 74, 75
2, 55195, Note_off_c, 0, 74, 64
2, 55200, Note_on_c, 0, 71, 75
2, 55260, Note_off_c, 0, 71, 64
2, 55260, Note_on_c, 0, 72, 75
2, 55320, Note_off_c, 0, 72, 64
2, 55320, Note_on_c, 0, 74, 75
2, 55400, Note_off_c, 0, 74, 64
2, 55560, Note_on_c, 0, 74, 75
2, 55640, Note_off_c, 0, 74, 64
2, 55800, Note_on_c, 0, 74, 75
2, 56040, Note_off_c, 0, 74, 64
2, 56040, Note_on_c, 0, 79, 75
2, 56215, Note_off_c, 0, 79, 64
2, 56280, Note_on_c, 0, 74, 75
2, 56600, Note_off_c, 0, 74, 64
2, 56600, Note_on_c, 0, 71, 75
2, 56680, Note_off_c, 0, 71, 64
2, 56680, Note_on_c, 0, 72, 75
2, 56760, Note_off_c, 0, 72, 64
2, 56760, Note_on_c, 0, 74, 75
2, 57160, Note_off_c, 0, 74, 64
2, 57720, Note_on_c, 0, 72, 75
2, 57840, Note_off_c, 0, 72, 64
2, 57840, Note_on_c, 0, 74, 75
2, 57960, Note_off_c, 0, 74, 64
2, 57960, Note_on_c, 0, 76, 75
2, 58080, Note_off_c, 0, 76, 64
2, 58080, Note_on_c, 0, 72, 75
2, 58200, Note_off_c, 0, 72, 64
2, 58200, Note_on_c, 0, 71, 75
2, 58320, Note_off_c, 0, 71, 64
2, 58320, Note_on_c, 0, 72, 75
2, 58440, Note_off_c, 0, 72, 64
2, 58440, Note_on_c, 0, 74, 75
2, 58560, Note_off_c, 0, 74, 64
2, 58560, Note_on_c, 0, 71, 75
2, 58680, Note_off_c, 0, 71, 64
2, 58680, Note_on_c, 0, 69, 75
2, 58800, Note_off_c, 0, 69, 64
2, 58800, Note_on_c, 0, 71, 75
2, 58920, Note_off_c, 0, 71, 64
2, 58920, Note_on_c, 0, 72, 75
2, 59040, Note_off_c, 0, 72, 64
2, 59040, Note_on_c, 0, 69, 75
2, 59160, Note_off_c, 0, 69, 64
2, 59160, Note_on_c, 0, 72, 75
2, 59280, Note_off_c, 0, 72, 64
2, 59280, Note_on_c, 0, 71, 75
2, 59400, Note_off_c, 0, 71, 64
2, 59400, Note_on_c, 0, 69, 75
2, 59520, Note_off_c, 0, 69, 64
2, 59520, Note_on_c, 0, 67, 75
2, 59635, Note_off_c, 0, 67, 64
2, 59640, Note_on_c, 0, 67, 75
2, 60040, Note_off_c, 0, 67, 64
2, 60600, Note_on_c, 0, 74, 75
2, 60955, Note_off_c, 0, 74, 64
2, 60960, Note_on_c, 0, 71, 75
2, 61020, Note_off_c, 0, 71, 64
2, 61020, Note_on_c, 0, 72, 75
2, 61080, Note_off_c, 0, 72, 64
2, 61080, Note_on_c, 0, 74, 75
2, 61160, Note_off_c, 0, 74, 64
2, 61320, Note_on_c, 0, 74, 75
2, 61400, Note_off_c, 0, 74, 64
2, 61560, Note_on_c, 0, 74, 75
2, 61800, Note_off_c, 0, 74, 64
2, 61800, Note_on_c, 0, 79, 75
2, 61975, Note_off_c, 0, 79, 64
2, 62040, Note_on_c, 0, 74, 75
2, 62395, Note_off_c, 0, 74, 64
2, 62400, Note_on_c, 0, 71, 75
2, 62460, Note_off_c, 0, 71, 64
2, 62460, Note_on_c, 0, 72, 75
2, 62520, Note_off_c, 0, 72, 64
2, 62520, Note_on_c, 0, 74, 75
2, 62920, Note_off_c, 0, 74, 64
2, 63240, Note_on_c, 0, 79, 75
2, 63480, Note_off_c, 0, 79, 64
2, 63480, Note_on_c, 0, 78, 75
2, 63715, Note_off_c, 0, 78, 64
2, 63720, Note_on_c, 0, 76, 75
2, 64120, Note_off_c, 0, 76, 64
2, 64200, Note_on_c, 0, 74, 75
2, 64320, Note_off_c, 0, 74, 64
2, 64320, Note_on_c, 0, 72, 75
2, 64440, Note_off_c, 0, 72, 64
2, 64440, Note_on_c, 0, 71, 75
2, 64560, Note_off_c, 0, 71, 64
2, 64560, Note_on_c, 0, 69, 75
2, 64680, Note_off_c, 0, 69, 64
2, 64680, Note_on_c, 0, 69, 75
2, 64800, Note_off_c, 0, 69, 64
2, 64800, Note_on_c, 0, 67, 75
2, 64920, Note_off_c, 0, 67, 64
2, 64920, Note_on_c, 0, 69, 75
2, 65040, Note_off_c, 0, 69, 64
2, 65040, Note_on_c, 0, 67, 68
2, 65160, Note_off_c, 0, 67, 64
2, 65160, Note_on_c, 0, 66, 61
2, 65280, Note_off_c, 0, 66, 64
2, 65280, Note_on_c, 0, 67, 53
2, 65400, Note_off_c, 0, 67, 64
2, 65400, Note_on_c, 0, 66, 45
2, 65800, Note_off_c, 0, 66, 64
2, 66360, Note_on_c, 0, 86, 45
2, 69720, Note_off_c, 0, 86, 64
2, 69720, Note_on_c, 0, 84, 45
2, 70200, Note_off_c, 0, 84, 64
2, 70200, Note_on_c, 0, 83, 45
2, 70680, Note_off_c, 0, 83, 64
2, 70680, Note_on_c, 0, 84, 45
2, 70800, Note_off_c, 0, 84, 64
2, 70800, Note_on_c, 0, 83, 45
2, 70920, Note_off_c, 0, 83, 64
2, 70920, Note_on_c, 0, 81, 45
2, 71040, Note_off_c, 0, 81, 64
2, 71040, Note_on_c, 0, 83, 45
2, 71160, Note_off_c, 0, 83, 64
2, 71160, Note_on_c, 0, 81, 45
2, 71560, Note_off_c, 0, 81, 64
2, 72120, Note_on_c, 0, 84, 45
2, 72240, Note_off_c, 0, 84, 64
2, 72240, Note_on_c, 0, 83, 45
2, 72355, Note_off_c, 0, 83, 64
2, 72360, Note_on_c, 0, 81, 45
2, 72480, Note_off_c, 0, 81, 64
2, 72480, Note_on_c, 0, 79, 45
2, 72595, Note_off_c, 0, 79, 64
2, 72600, Note_on_c, 0, 79, 45
2, 72680, Note_off_c, 0, 79, 64
2, 72840, Note_on_c, 0, 79, 45
2, 72920, Note_off_c, 0, 79, 64
2, 73080, Note_on_c, 0, 79, 45
2, 73320, Note_off_c, 0, 79, 64
2, 73320, Note_on_c, 0, 83, 45
2, 73555, Note_off_c, 0, 83, 64
2, 73560, Note_on_c, 0, 83, 45
2, 73680, Note_off_c, 0, 83, 64
2, 73680, Note_on_c, 0, 81, 45
2, 73795, Note_off_c, 0, 81, 64
2, 73800, Note_on_c, 0, 79, 45
2, 73920, Note_off_c, 0, 79, 64
2, 73920, Note_on_c, 0, 78, 45
2, 74035, Note_off_c, 0, 78, 64
2, 74040, Note_on_c, 0, 78, 45
2, 74440, Note_off_c, 0, 78, 64
2, 75000, Note_on_c, 0, 79, 45
2, 75320, Note_off_c, 0, 79, 64
2, 75320, Note_on_c, 0, 81, 45
2, 75400, Note_off_c, 0, 81, 64
2, 75400, Note_on_c, 0, 79, 45
2, 75480, Note_off_c, 0, 79, 64
2, 75480, Note_on_c, 0, 78, 45
2, 75720, Note_off_c, 0, 78, 64
2, 75720, Note_on_c, 0, 76, 45
2, 75955, Note_off_c, 0, 76, 64
2, 75960, Note_on_c, 0, 74, 45
2, 76200, Note_off_c, 0, 74, 64
2, 76200, Note_on_c, 0, 73, 45
2, 76435, Note_off_c, 0, 73, 64
2, 76440, Note_on_c, 0, 74, 45
2, 76840, Note_off_c, 0, 74, 64
2, 77880, Note_on_c, 0, 79, 45
2, 78840, Note_off_c, 0, 79, 64
2, 78840, Note_on_c, 0, 81, 45
2, 79080, Note_off_c, 0, 81, 64
2, 79080, Note_on_c, 0, 77, 45
2, 79320, Note_off_c, 0, 77, 64
2, 79320, Note_on_c, 0, 75, 45
2, 79560, Note_off_c, 0, 75, 64
2, 79560, Note_on_c, 0, 76, 47
2, 79800, Note_off_c, 0, 76, 64
2, 79800, Note_on_c, 0, 76, 49
2, 80200, Note_off_c, 0, 76, 64
2, 80520, Note_on_c, 0, 76, 57
2, 80755, Note_off_c, 0, 76, 64
2, 80760, Note_on_c, 0, 76, 60
2, 81000, Note_off_c, 0, 76, 64
2, 81000, Note_on_c, 0, 74, 63
2, 81475, Note_off_c, 0, 74, 64
2, 81480, Note_on_c, 0, 69, 69
2, 81600, Note_off_c, 0, 69, 64
2, 81600, Note_on_c, 0, 71, 70
2, 81720, Note_off_c, 0, 71, 64
2, 81720, Note_on_c, 0, 72, 71
2, 81800, Note_off_c, 0, 72, 64
2, 81800, Note_on_c, 0, 71, 72
2, 81880, Note_off_c, 0, 71, 64
2, 81880, Note_on_c, 0, 69, 73
2, 81960, Note_off_c, 0, 69, 64
2, 81960, Note_on_c, 0, 76, 75
2, 82040, Note_off_c, 0, 76, 64
2, 82040, Note_on_c, 0, 74, 75
2, 82120, Note_off_c, 0, 74, 64
2, 82120, Note_on_c, 0, 72, 75
2, 82200, Note_off_c, 0, 72, 64
2, 82200, Note_on_c, 0, 72, 75
2, 82230, Note_off_c, 0, 72, 64
2, 82230, Note_on_c, 0, 74, 74
2, 82260, Note_off_c, 0, 74, 64
2, 82260, Note_on_c, 0, 72, 73
2, 82290, Note_off_c, 0, 72, 64
2, 82290, Note_on_c, 0, 74, 71
2, 82320, Note_off_c, 0, 74, 64
2, 82320, Note_on_c, 0, 72, 69
2, 82350, Note_off_c, 0, 72, 64
2, 82350, Note_on_c, 0, 74, 67
2, 82380, Note_off_c, 0, 74, 64
2, 82380, Note_on_c, 0, 72, 65
2, 82410, Note_off_c, 0, 72, 64
2, 82410, Note_on_c, 0, 74, 63
2, 82440, Note_off_c, 0, 74, 64
2, 82440, Note_on_c, 0, 72, 61
2, 82470, Note_off_c, 0, 72, 64
2, 82470, Note_on_c, 0, 74, 59
2, 82500, Note_off_c, 0, 74, 64
2, 82500, Note_on_c, 0, 72, 57
2, 82530, Note_off_c, 0, 72, 64
2, 82530, Note_on_c, 0, 74, 55
2, 82560, Note_off_c, 0, 74, 64
2, 82560, Note_on_c, 0, 72, 53
2, 82590, Note_off_c, 0, 72, 64
2, 82590, Note_on_c, 0, 74, 51
2, 82620, Note_off_c, 0, 74, 64
2, 82620, Note_on_c, 0, 71, 49
2, 82650, Note_off_c, 0, 71, 64
2, 82650, Note_on_c, 0, 72, 47
2, 82680, Note_off_c, 0, 72, 64
2, 82680, Note_on_c, 0, 71, 45
2, 82915, Note_off_c, 0, 71, 64
2, 83760, Note_on_c, 0, 79, 45
2, 83880, Note_off_c, 0, 79, 64
2, 83880, Note_on_c, 0, 81, 45
2, 83960, Note_off_c, 0, 81, 64
2, 84000, Note_on_c, 0, 79, 45
2, 84040, Note_off_c, 0, 79, 64
2, 84120, Note_on_c, 0, 78, 45
2, 84240, Note_off_c, 0, 78, 64
2, 84240, Note_on_c, 0, 79, 45
2, 84280, Note_off_c, 0, 79, 64
2, 84360, Note_on_c, 0, 76, 45
2, 84480, Note_off_c, 0, 76, 64
2, 84480, Note_on_c, 0, 74, 45
2, 84520, Note_off_c, 0, 74, 64
2, 84600, Note_on_c, 0, 72, 45
2, 84720, Note_off_c, 0, 72, 64
2, 84720, Note_on_c, 0, 71, 45
2, 84760, Note_off_c, 0, 71, 64
2, 84840, Note_on_c, 0, 69, 45
2, 84960, Note_off_c, 0, 69, 64
2, 84960, Note_on_c, 0, 67, 45
2, 85000, Note_off_c, 0, 67, 64
2, 85200, Note_on_c, 0, 81, 45
2, 85320, Note_off_c, 0, 81, 64
2, 85320, Note_on_c, 0, 83, 45
2, 85360, Note_off_c, 0, 83, 64
2, 85440, Note_on_c, 0, 81, 45
2, 85520, Note_off_c, 0, 81, 64
2, 85560, Note_on_c, 0, 80, 45
2, 85680, Note_off_c, 0, 80, 64
2, 85680, Note_on_c, 0, 81, 45
2, 85720, Note_off_c, 0, 81, 64
2, 85800, Note_on_c, 0, 79, 45
2, 85920, Note_off_c, 0, 79, 64
2, 85920, Note_on_c, 0, 78, 45
2, 85960, Note_off_c, 0, 78, 64
2, 86040, Note_on_c, 0, 76, 45
2, 86160, Note_off_c, 0, 76, 64
2, 86160, Note_on_c, 0, 74, 45
2, 86200, Note_off_c, 0, 74, 64
2, 86280, Note_on_c, 0, 69, 45
2, 86400, Note_off_c, 0, 69, 64
2, 86400, Note_on_c, 0, 72, 45
2, 86480, Note_off_c, 0, 72, 64
2, 86640, Note_on_c, 0, 71, 47
2, 86760, Note_off_c, 0, 71, 64
2, 86760, Note_on_c, 0, 72, 49
2, 86840, Note_off_c, 0, 72, 64
2, 86880, Note_on_c, 0, 72, 51
2, 86960, Note_off_c, 0, 72, 64
2, 87000, Note_on_c, 0, 74, 53
2, 87080, Note_off_c, 0, 74, 64
2, 87120, Note_on_c, 0, 74, 55
2, 87200, Note_off_c, 0, 74, 64
2, 87240, Note_on_c, 0, 76, 57
2, 87320, Note_off_c, 0, 76, 64
2, 87360, Note_on_c, 0, 76, 60
2, 87440, Note_off_c, 0, 76, 64
2, 87480, Note_on_c, 0, 78, 63
2, 87560, Note_off_c, 0, 78, 64
2, 87600, Note_on_c, 0, 78, 66
2, 87680, Note_off_c, 0, 78, 64
2, 87720, Note_on_c, 0, 79, 69
2, 87800, Note_off_c, 0, 79, 64
2, 87840, Note_on_c, 0, 79, 72
2, 87920, Note_off_c, 0, 79, 64
2, 87960, Note_on_c, 0, 78, 75
2, 88080, Note_off_c, 0, 78, 64
2, 88080, Note_on_c, 0, 76, 75
2, 88200, Note_off_c, 0, 76, 64
2, 88200, Note_on_c, 0, 74, 75
2, 88320, Note_off_c, 0, 74, 64
2, 88320, Note_on_c, 0, 72, 75
2, 88440, Note_off_c, 0, 72, 64
2, 88440, Note_on_c, 0, 71, 72
2, 88920, Note_off_c, 0, 71, 64
2, 88920, Note_on_c, 0, 69, 59
2, 88950, Note_off_c, 0, 69, 64
2, 88950, Note_on_c, 0, 71, 59
2, 88980, Note_off_c, 0, 71, 64
2, 88980, Note_on_c, 0, 69, 59
2, 89010, Note_off_c, 0, 69, 64
2, 89010, Note_on_c, 0, 71, 58
2, 89040, Note_off_c, 0, 71, 64
2, 89040, Note_on_c, 0, 69, 57
2, 89070, Note_off_c, 0, 69, 64
2, 89070, Note_on_c, 0, 71, 56
2, 89100, Note_off_c, 0, 71, 64
2, 89100, Note_on_c, 0, 69, 55
2, 89130, Note_off_c, 0, 69, 64
2, 89130, Note_on_c, 0, 71, 54
2, 89160, Note_off_c, 0, 71, 64
2, 89160, Note_on_c, 0, 69, 53
2, 89190, Note_off_c, 0, 69, 64
2, 89190, Note_on_c, 0, 71, 52
2, 89220, Note_off_c, 0, 71, 64
2, 89220, Note_on_c, 0, 69, 51
2, 89250, Note_off_c, 0, 69, 64
2, 89250, Note_on_c, 0, 71, 50
2, 89280, Note_off_c, 0, 71, 64
2, 89280, Note_on_c, 0, 67, 49
2, 89340, Note_off_c, 0, 67, 64
2, 89340, Note_on_c, 0, 69, 47
2, 89395, Note_off_c, 0, 69, 64
2, 89520, Note_on_c, 0, 79, 45
2, 89640, Note_off_c, 0, 79, 64
2, 89640, Note_on_c, 0, 81, 45
2, 89720, Note_off_c, 0, 81, 64
2, 89760, Note_on_c, 0, 79, 45
2, 89800, Note_off_c, 0, 79, 64
2, 89880, Note_on_c, 0, 78, 45
2, 90000, Note_off_c, 0, 78, 64
2, 90000, Note_on_c, 0, 79, 45
2, 90040, Note_off_c, 0, 79, 64
2, 90120, Note_on_c, 0, 76, 45
2, 90240, Note_off_c, 0, 76, 64
2, 90240, Note_on_c, 0, 74, 45
2, 90280, Note_off_c, 0, 74, 64
2, 90360, Note_on_c, 0, 72, 45
2, 90480, Note_off_c, 0, 72, 64
2, 90480, Note_on_c, 0, 71, 45
2, 90520, Note_off_c, 0, 71, 64
2, 90600, Note_on_c, 0, 69, 45
2, 90720, Note_off_c, 0, 69, 64
2, 90720, Note_on_c, 0, 67, 45
2, 90760, Note_off_c, 0, 67, 64
2, 90960, Note_on_c, 0, 81, 45
2, 91080, Note_off_c, 0, 81, 64
2, 91080, Note_on_c, 0, 83, 45
2, 91120, Note_off_c, 0, 83, 64
2, 91200, Note_on_c, 0, 81, 45
2, 91280, Note_off_c, 0, 81, 64
2, 91320, Note_on_c, 0, 80, 45
2, 91440, Note_off_c, 0, 80, 64
2, 91440, Note_on_c, 0, 81, 45
2, 91480, Note_off_c, 0, 81, 64
2, 91560, Note_on_c, 0, 79, 45
2, 91680, Note_off_c, 0, 79, 64
2, 91680, Note_on_c, 0, 78, 45
2, 91720, Note_off_c, 0, 78, 64
2, 91800, Note_on_c, 0, 76, 45
2, 91920, Note_off_c, 0, 76, 64
2, 91920, Note_on_c, 0, 74, 45
2, 91960, Note_off_c, 0, 74, 64
2, 92040, Note_on_c, 0, 69, 45
2, 92160, Note_off_c, 0, 69, 64
2, 92160, Note_on_c, 0, 72, 45
2, 92240, Note_off_c, 0, 72, 64
2, 92400, Note_on_c, 0, 71, 46
2, 92520, Note_off_c, 0, 71, 64
2, 92520, Note_on_c, 0, 72, 47
2, 92600, Note_off_c, 0, 72, 64
2, 92640, Note_on_c, 0, 72, 48
2, 92720, Note_off_c, 0, 72, 64
2, 92760, Note_on_c, 0, 74, 49
2, 92840, Note_off_c, 0, 74, 64
2, 92880, Note_on_c, 0, 74, 50
2, 92960, Note_off_c, 0, 74, 64
2, 93000, Note_on_c, 0, 76, 51
2, 93080, Note_off_c, 0, 76, 64
2, 93120, Note_on_c, 0, 76, 52
2, 93200, Note_off_c, 0, 76, 64
2, 93240, Note_on_c, 0, 78, 53
2, 93320, Note_off_c, 0, 78, 64
2, 93360, Note_on_c, 0, 78, 54
2, 93440, Note_off_c, 0, 78, 64
2, 93480, Note_on_c, 0, 79, 56
2, 93560, Note_off_c, 0, 79, 64
2, 93600, Note_on_c, 0, 79, 58
2, 93680, Note_off_c, 0, 79, 64
2, 93720, Note_on_c, 0, 78, 60
2, 93840, Note_off_c, 0, 78, 64
2, 93840, Note_on_c, 0, 76, 60
2, 93960, Note_off_c, 0, 76, 64
2, 93960, Note_on_c, 0, 74, 60
2, 94080, Note_off_c, 0, 74, 64
2, 94080, Note_on_c, 0, 72, 60
2, 94200, Note_off_c, 0, 72, 64
2, 94200, Note_on_c, 0, 71, 60
2, 94680, Note_off_c, 0, 71, 64
2, 94680, Note_on_c, 0, 69, 67
2, 94710, Note_off_c, 0, 69, 64
2, 94710, Note_on_c, 0, 71, 67
2, 94740, Note_off_c, 0, 71, 64
2, 94740, Note_on_c, 0, 69, 67
2, 94770, Note_off_c, 0, 69, 64
2, 94770, Note_on_c, 0, 71, 67
2, 94800, Note_off_c, 0, 71, 64
2, 94800, Note_on_c, 0, 69, 67
2, 94830, Note_off_c, 0, 69, 64
2, 94830, Note_on_c, 0, 71, 67
2, 94860, Note_off_c, 0, 71, 64
2, 94860, Note_on_c, 0, 69, 67
2, 94890, Note_off_c, 0, 69, 64
2, 94890, Note_on_c, 0, 71, 67
2, 94920, Note_off_c, 0, 71, 64
2, 94920, Note_on_c, 0, 69, 67
2, 94950, Note_off_c, 0, 69, 64
2, 94950, Note_on_c, 0, 71, 68
2, 94980, Note_off_c, 0, 71, 64
2, 94980, Note_on_c, 0, 69, 69
2, 95010, Note_off_c, 0, 69, 64
2, 95010, Note_on_c, 0, 71, 70
2, 95040, Note_off_c, 0, 71, 64
2, 95040, Note_on_c, 0, 69, 71
2, 95070, Note_off_c, 0, 69, 64
2, 95070, Note_on_c, 0, 71, 72
2, 95100, Note_off_c, 0, 71, 64
2, 95100, Note_on_c, 0, 67, 73
2, 95130, Note_off_c, 0, 67, 64
2, 95130, Note_on_c, 0, 69, 74
2, 95155, Note_off_c, 0, 69, 64
2, 95160, Note_on_c, 0, 67, 75
2, 95395, Note_off_c, 0, 67, 64
2, 95400, Note_on_c, 0, 86, 75
2, 96040, Note_off_c, 0, 86, 64
2, 96120, Note_on_c, 0, 84, 75
2, 96200, Note_off_c, 0, 84, 64
2, 96200, Note_on_c, 0, 83, 73
2, 96280, Note_off_c, 0, 83, 64
2, 96280, Note_on_c, 0, 81, 71
2, 96360, Note_off_c, 0, 81, 64
2, 96360, Note_on_c, 0, 79, 69
2, 96440, Note_off_c, 0, 79, 64
2, 96440, Note_on_c, 0, 81, 66
2, 96520, Note_off_c, 0, 81, 64
2, 96520, Note_on_c, 0, 78, 63
2, 96600, Note_off_c, 0, 78, 64
2, 96600, Note_on_c, 0, 79, 60
2, 96835, Note_off_c, 0, 79, 64
2, 96840, Note_on_c, 0, 74, 60
2, 97480, Note_off_c, 0, 74, 64
2, 97560, Note_on_c, 0, 72, 60
2, 97640, Note_off_c, 0, 72, 64
2, 97640, Note_on_c, 0, 71, 58
2, 97720, Note_off_c, 0, 71, 64
2, 97720, Note_on_c, 0, 69, 56
2, 97800, Note_off_c, 0, 69, 64
2, 97800, Note_on_c, 0, 67, 54
2, 97880, Note_off_c, 0, 67, 64
2, 97880, Note_on_c, 0, 69, 51
2, 97960, Note_off_c, 0, 69, 64
2, 97960, Note_on_c, 0, 66, 48
2, 98040, Note_off_c, 0, 66, 64
2, 98040, Note_on_c, 0, 66, 45
2, 99000, Note_off_c, 0, 66, 64
2, 99000, Note_on_c, 0, 67, 45
2, 99400, Note_off_c, 0, 67, 64
2, 99400, End_track
3, 0, Start_track
3, 0, Title_t, "Divertimento in D (k136)"
3, 0, MIDI_port, 0
3, 0, Channel_prefix, 1
3, 0, Control_c, 1, 7, 127
3, 0, Control_c, 1, 10, 40
3, 0, Control_c, 1, 91, 51
3, 0, Program_c, 1, 50
3, 0, Note_on_c, 1, 71, 75
3, 355, Note_off_c, 1, 71, 64
3, 360, Note_on_c, 1, 67, 75
3, 420, Note_off_c, 1, 67, 64
3, 420, Note_on_c, 1, 69, 75
3, 480, Note_off_c, 1, 69, 64
3, 480, Note_on_c, 1, 71, 75
3, 560, Note_off_c, 1, 71, 64
3, 720, Note_on_c, 1, 71, 75
3, 800, Note_off_c, 1, 71, 64
3, 960, Note_on_c, 1, 71, 75
3, 1200, Note_off_c, 1, 71, 64
3, 1200, Note_on_c, 1, 74, 75
3, 1375, Note_off_c, 1, 74, 64
3, 1440, Note_on_c, 1, 71, 75
3, 1795, Note_off_c, 1, 71, 64
3, 1800, Note_on_c, 1, 67, 75
3, 1860, Note_off_c, 1, 67, 64
3, 1860, Note_on_c, 1, 69, 75
3, 1920, Note_off_c, 1, 69, 64
3, 1920, Note_on_c, 1, 71, 75
3, 2320, Note_off_c, 1, 71, 64
3, 2880, Note_on_c, 1, 69, 75
3, 3000, Note_off_c, 1, 69, 64
3, 3000, Note_on_c, 1, 71, 75
3, 3120, Note_off_c, 1, 71, 64
3, 3120, Note_on_c, 1, 72, 75
3, 3240, Note_off_c, 1, 72, 64
3, 3240, Note_on_c, 1, 69, 75
3, 3360, Note_off_c, 1, 69, 64
3, 3360, Note_on_c, 1, 67, 75
3, 3480, Note_off_c, 1, 67, 64
3, 3480, Note_on_c, 1, 69, 75
3, 3600, Note_off_c, 1, 69, 64
3, 3600, Note_on_c, 1, 71, 75
3, 3720, Note_off_c, 1, 71, 64
3, 3720, Note_on_c, 1, 67, 75
3, 3840, Note_off_c, 1, 67, 64
3, 3840, Note_on_c, 1, 66, 75
3, 3960, Note_off_c, 1, 66, 64
3, 3960, Note_on_c, 1, 67, 75
3, 4080, Note_off_c, 1, 67, 64
3, 4080, Note_on_c, 1, 69, 75
3, 4200, Note_off_c, 1, 69, 64
3, 4200, Note_on_c, 1, 66, 75
3, 4320, Note_off_c, 1, 66, 64
3, 4320, Note_on_c, 1, 69, 75
3, 4440, Note_off_c, 1, 69, 64
3, 4440, Note_on_c, 1, 67, 75
3, 4560, Note_off_c, 1, 67, 64
3, 4560, Note_on_c, 1, 66, 75
3, 4680, Note_off_c, 1, 66, 64
3, 5760, Note_on_c, 1, 71, 75
3, 6115, Note_off_c, 1, 71, 64
3, 6120, Note_on_c, 1, 67, 75
3, 6180, Note_off_c, 1, 67, 64
3, 6180, Note_on_c, 1, 69, 75
3, 6240, Note_off_c, 1, 69, 64
3, 6240, Note_on_c, 1, 71, 75
3, 6320, Note_off_c, 1, 71, 64
3, 6480, Note_on_c, 1, 71, 75
3, 6560, Note_off_c, 1, 71, 64
3, 6720, Note_on_c, 1, 71, 75
3, 6960, Note_off_c, 1, 71, 64
3, 6960, Note_on_c, 1, 74, 75
3, 7135, Note_off_c, 1, 74, 64
3, 7200, Note_on_c, 1, 71, 75
3, 7555, Note_off_c, 1, 71, 64
3, 7560, Note_on_c, 1, 67, 75
3, 7620, Note_off_c, 1, 67, 64
3, 7620, Note_on_c, 1, 69, 75
3, 7680, Note_off_c, 1, 69, 64
3, 7680, Note_on_c, 1, 71, 75
3, 8080, Note_off_c, 1, 71, 64
3, 8880, Note_on_c, 1, 67, 75
3, 9360, Note_off_c, 1, 67, 64
3, 9360, Note_on_c, 1, 64, 75
3, 9600, Note_off_c, 1, 64, 64
3, 9600, Note_on_c, 1, 60, 75
3, 9840, Note_off_c, 1, 60, 64
3, 9840, Note_on_c, 1, 59, 75
3, 10080, Note_off_c, 1, 59, 64
3, 10080, Note_on_c, 1, 60, 75
3, 10200, Note_off_c, 1, 60, 64
3, 10200, Note_on_c, 1, 59, 68
3, 10320, Note_off_c, 1, 59, 64
3, 10320, Note_on_c, 1, 57, 61
3, 10440, Note_off_c, 1, 57, 64
3, 10440, Note_on_c, 1, 55, 53
3, 10560, Note_off_c, 1, 55, 64
3, 10560, Note_on_c, 1, 57, 45
3, 10960, Note_off_c, 1, 57, 64
3, 11520, Note_on_c, 1, 71, 45
3, 11640, Note_off_c, 1, 71, 64
3, 11640, Note_on_c, 1, 69, 45
3, 11755, Note_off_c, 1, 69, 64
3, 11760, Note_on_c, 1, 67, 45
3, 11880, Note_off_c, 1, 67, 64
3, 11880, Note_on_c, 1, 66, 45
3, 11995, Note_off_c, 1, 66, 64
3, 12000, Note_on_c, 1, 66, 45
3, 12080, Note_off_c, 1, 66, 64
3, 12240, Note_on_c, 1, 66, 45
3, 12320, Note_off_c, 1, 66, 64
3, 12480, Note_on_c, 1, 66, 45
3, 12720, Note_off_c, 1, 66, 64
3, 12720, Note_on_c, 1, 69, 45
3, 12955, Note_off_c, 1, 69, 64
3, 12960, Note_on_c, 1, 69, 45
3, 13080, Note_off_c, 1, 69, 64
3, 13080, Note_on_c, 1, 67, 45
3, 13195, Note_off_c, 1, 67, 64
3, 13200, Note_on_c, 1, 66, 45
3, 13320, Note_off_c, 1, 66, 64
3, 13320, Note_on_c, 1, 64, 45
3, 13435, Note_off_c, 1, 64, 64
3, 13440, Note_on_c, 1, 64, 45
3, 13840, Note_off_c, 1, 64, 64
3, 14400, Note_on_c, 1, 62, 45
3, 14720, Note_off_c, 1, 62, 64
3, 14720, Note_on_c, 1, 64, 45
3, 14800, Note_off_c, 1, 64, 64
3, 14800, Note_on_c, 1, 66, 45
3, 14880, Note_off_c, 1, 66, 64
3, 14880, Note_on_c, 1, 61, 45
3, 15360, Note_off_c, 1, 61, 64
3, 15360, Note_on_c, 1, 62, 45
3, 15840, Note_off_c, 1, 62, 64
3, 15840, Note_on_c, 1, 64, 45
3, 15960, Note_off_c, 1, 64, 64
3, 15960, Note_on_c, 1, 62, 46
3, 16080, Note_off_c, 1, 62, 64
3, 16080, Note_on_c, 1, 61, 47
3, 16200, Note_off_c, 1, 61, 64
3, 16200, Note_on_c, 1, 62, 48
3, 16320, Note_off_c, 1, 62, 64
3, 16320, Note_on_c, 1, 61, 49
3, 16720, Note_off_c, 1, 61, 64
3, 17280, Note_on_c, 1, 71, 60
3, 17400, Note_off_c, 1, 71, 64
3, 17400, Note_on_c, 1, 69, 60
3, 17515, Note_off_c, 1, 69, 64
3, 17520, Note_on_c, 1, 67, 60
3, 17640, Note_off_c, 1, 67, 64
3, 17640, Note_on_c, 1, 66, 60
3, 17755, Note_off_c, 1, 66, 64
3, 17760, Note_on_c, 1, 66, 60
3, 17840, Note_off_c, 1, 66, 64
3, 18000, Note_on_c, 1, 66, 60
3, 18080, Note_off_c, 1, 66, 64
3, 18240, Note_on_c, 1, 66, 60
3, 18480, Note_off_c, 1, 66, 64
3, 18480, Note_on_c, 1, 69, 60
3, 18715, Note_off_c, 1, 69, 64
3, 18720, Note_on_c, 1, 69, 60
3, 18840, Note_off_c, 1, 69, 64
3, 18840, Note_on_c, 1, 67, 60
3, 18960, Note_off_c, 1, 67, 64
3, 18960, Note_on_c, 1, 66, 60
3, 19080, Note_off_c, 1, 66, 64
3, 19080, Note_on_c, 1, 64, 60
3, 19195, Note_off_c, 1, 64, 64
3, 19200, Note_on_c, 1, 64, 60
3, 19600, Note_off_c, 1, 64, 64
3, 20160, Note_on_c, 1, 62, 60
3, 21600, Note_off_c, 1, 62, 64
3, 21600, Note_on_c, 1, 64, 60
3, 21835, Note_off_c, 1, 64, 64
3, 21840, Note_on_c, 1, 73, 62
3, 21960, Note_off_c, 1, 73, 64
3, 21960, Note_on_c, 1, 74, 63
3, 22080, Note_off_c, 1, 74, 64
3, 22080, Note_on_c, 1, 76, 64
3, 22200, Note_off_c, 1, 76, 64
3, 22200, Note_on_c, 1, 78, 65
3, 22320, Note_off_c, 1, 78, 64
3, 22320, Note_on_c, 1, 79, 66
3, 22440, Note_off_c, 1, 79, 64
3, 22440, Note_on_c, 1, 78, 67
3, 22560, Note_off_c, 1, 78, 64
3, 22560, Note_on_c, 1, 81, 68
3, 22680, Note_off_c, 1, 81, 64
3, 22680, Note_on_c, 1, 79, 69
3, 22800, Note_off_c, 1, 79, 64
3, 22800, Note_on_c, 1, 78, 71
3, 22920, Note_off_c, 1, 78, 64
3, 22920, Note_on_c, 1, 76, 73
3, 23040, Note_off_c, 1, 76, 64
3, 23040, Note_on_c, 1, 74, 75
3, 23280, Note_off_c, 1, 74, 64
3, 23280, Note_on_c, 1, 69, 75
3, 23515, Note_off_c, 1, 69, 64
3, 23520, Note_on_c, 1, 69, 75
3, 23755, Note_off_c, 1, 69, 64
3, 23760, Note_on_c, 1, 69, 75
3, 23995, Note_off_c, 1, 69, 64
3, 24000, Note_on_c, 1, 69, 75
3, 24235, Note_off_c, 1, 69, 64
3, 24240, Note_on_c, 1, 69, 75
3, 24475, Note_off_c, 1, 69, 64
3, 24480, Note_on_c, 1, 69, 75
3, 24715, Note_off_c, 1, 69, 64
3, 24720, Note_on_c, 1, 67, 75
3, 24840, Note_off_c, 1, 67, 64
3, 24840, Note_on_c, 1, 66, 75
3, 24960, Note_off_c, 1, 66, 64
3, 24960, Note_on_c, 1, 67, 75
3, 25200, Note_off_c, 1, 67, 64
3, 25200, Note_on_c, 1, 66, 75
3, 25440, Note_off_c, 1, 66, 64
3, 25440, Note_on_c, 1, 64, 75
3, 25680, Note_off_c, 1, 64, 64
3, 25680, Note_on_c, 1, 62, 75
3, 25920, Note_off_c, 1, 62, 64
3, 25920, Note_on_c, 1, 61, 75
3, 26155, Note_off_c, 1, 61, 64
3, 26160, Note_on_c, 1, 61, 75
3, 26635, Note_off_c, 1, 61, 64
3, 26640, Note_on_c, 1, 61, 75
3, 26880, Note_off_c, 1, 61, 64
3, 26880, Note_on_c, 1, 64, 75
3, 27115, Note_off_c, 1, 64, 64
3, 27120, Note_on_c, 1, 64, 70
3, 27360, Note_off_c, 1, 64, 64
3, 27360, Note_on_c, 1, 64, 65
3, 27760, Note_off_c, 1, 64, 64
3, 27840, Note_on_c, 1, 62, 54
3, 28240, Note_off_c, 1, 62, 64
3, 28920, Note_on_c, 1, 62, 30
3, 29040, Note_off_c, 1, 62, 64
3, 29040, Note_on_c, 1, 61, 31
3, 29120, Note_off_c, 1, 61, 64
3, 29160, Note_on_c, 1, 62, 32
3, 29240, Note_off_c, 1, 62, 64
3, 29280, Note_on_c, 1, 64, 33
3, 29400, Note_off_c, 1, 64, 64
3, 29400, Note_on_c, 1, 62, 34
3, 29480, Note_off_c, 1, 62, 64
3, 29520, Note_on_c, 1, 66, 35
3, 29640, Note_off_c, 1, 66, 64
3, 29640, Note_on_c, 1, 64, 36
3, 29720, Note_off_c, 1, 64, 64
3, 29760, Note_on_c, 1, 67, 37
3, 29880, Note_off_c, 1, 67, 64
3, 29880, Note_on_c, 1, 66, 39
3, 29960, Note_off_c, 1, 66, 64
3, 30000, Note_on_c, 1, 64, 41
3, 30120, Note_off_c, 1, 64, 64
3, 30120, Note_on_c, 1, 63, 43
3, 30200, Note_off_c, 1, 63, 64
3, 30360, Note_on_c, 1, 64, 45
3, 30480, Note_off_c, 1, 64, 64
3, 30480, Note_on_c, 1, 63, 45
3, 30560, Note_off_c, 1, 63, 64
3, 30600, Note_on_c, 1, 64, 45
3, 30680, Note_off_c, 1, 64, 64
3, 30720, Note_on_c, 1, 66, 45
3, 30840, Note_off_c, 1, 66, 64
3, 30840, Note_on_c, 1, 64, 45
3, 30920, Note_off_c, 1, 64, 64
3, 30960, Note_on_c, 1, 67, 45
3, 31080, Note_off_c, 1, 67, 64
3, 31080, Note_on_c, 1, 66, 45
3, 31160, Note_off_c, 1, 66, 64
3, 31200, Note_on_c, 1, 69, 45
3, 31320, Note_off_c, 1, 69, 64
3, 31320, Note_on_c, 1, 67, 45
3, 31400, Note_off_c, 1, 67, 64
3, 31440, Note_on_c, 1, 66, 45
3, 31560, Note_off_c, 1, 66, 64
3, 31560, Note_on_c, 1, 64, 45
3, 31675, Note_off_c, 1, 64, 64
3, 31800, Note_on_c, 1, 66, 48
3, 31920, Note_off_c, 1, 66, 64
3, 31920, Note_on_c, 1, 67, 52
3, 32000, Note_off_c, 1, 67, 64
3, 32040, Note_on_c, 1, 67, 56
3, 32120, Note_off_c, 1, 67, 64
3, 32160, Note_on_c, 1, 69, 60
3, 32240, Note_off_c, 1, 69, 64
3, 32280, Note_on_c, 1, 69, 64
3, 32360, Note_off_c, 1, 69, 64
3, 32400, Note_on_c, 1, 71, 68
3, 32480, Note_off_c, 1, 71, 64
3, 32520, Note_on_c, 1, 71, 72
3, 32600, Note_off_c, 1, 71, 64
3, 32640, Note_on_c, 1, 73, 76
3, 32720, Note_off_c, 1, 73, 64
3, 32760, Note_on_c, 1, 73, 80
3, 32840, Note_off_c, 1, 73, 64
3, 32880, Note_on_c, 1, 74, 84
3, 32960, Note_off_c, 1, 74, 64
3, 33000, Note_on_c, 1, 74, 88
3, 33080, Note_off_c, 1, 74, 64
3, 33120, Note_on_c, 1, 73, 92
3, 33240, Note_off_c, 1, 73, 64
3, 33240, Note_on_c, 1, 71, 88
3, 33360, Note_off_c, 1, 71, 64
3, 33360, Note_on_c, 1, 69, 84
3, 33480, Note_off_c, 1, 69, 64
3, 33480, Note_on_c, 1, 67, 80
3, 33600, Note_off_c, 1, 67, 64
3, 33600, Note_on_c, 1, 66, 76
3, 34080, Note_off_c, 1, 66, 64
3, 34080, Note_on_c, 1, 64, 60
3, 34110, Note_off_c, 1, 64, 64
3, 34110, Note_on_c, 1, 66, 59
3, 34140, Note_off_c, 1, 66, 64
3, 34140, Note_on_c, 1, 64, 58
3, 34170, Note_off_c, 1, 64, 64
3, 34170, Note_on_c, 1, 66, 57
3, 34200, Note_off_c, 1, 66, 64
3, 34200, Note_on_c, 1, 64, 56
3, 34230, Note_off_c, 1, 64, 64
3, 34230, Note_on_c, 1, 64, 55
3, 34260, Note_off_c, 1, 64, 64
3, 34260, Note_on_c, 1, 66, 54
3, 34290, Note_off_c, 1, 66, 64
3, 34290, Note_on_c, 1, 64, 53
3, 34320, Note_off_c, 1, 64, 64
3, 34320, Note_on_c, 1, 66, 52
3, 34350, Note_off_c, 1, 66, 64
3, 34350, Note_on_c, 1, 64, 51
3, 34380, Note_off_c, 1, 64, 64
3, 34380, Note_on_c, 1, 66, 50
3, 34410, Note_off_c, 1, 66, 64
3, 34410, Note_on_c, 1, 66, 49
3, 34440, Note_off_c, 1, 66, 64
3, 34440, Note_on_c, 1, 62, 48
3, 34500, Note_off_c, 1, 62, 64
3, 34500, Note_on_c, 1, 64, 45
3, 34555, Note_off_c, 1, 64, 64
3, 34680, Note_on_c, 1, 62, 30
3, 34800, Note_off_c, 1, 62, 64
3, 34800, Note_on_c, 1, 61, 31
3, 34855, Note_off_c, 1, 61, 64
3, 34920, Note_on_c, 1, 62, 31
3, 35005, Note_off_c, 1, 62, 64
3, 35040, Note_on_c, 1, 64, 32
3, 35160, Note_off_c, 1, 64, 64
3, 35160, Note_on_c, 1, 62, 33
3, 35215, Note_off_c, 1, 62, 64
3, 35280, Note_on_c, 1, 66, 33
3, 35400, Note_off_c, 1, 66, 64
3, 35400, Note_on_c, 1, 64, 35
3, 35455, Note_off_c, 1, 64, 64
3, 35520, Note_on_c, 1, 67, 37
3, 35640, Note_off_c, 1, 67, 64
3, 35640, Note_on_c, 1, 66, 39
3, 35695, Note_off_c, 1, 66, 64
3, 35760, Note_on_c, 1, 64, 41
3, 35880, Note_off_c, 1, 64, 64
3, 35880, Note_on_c, 1, 63, 43
3, 35995, Note_off_c, 1, 63, 64
3, 36120, Note_on_c, 1, 64, 45
3, 36240, Note_off_c, 1, 64, 64
3, 36240, Note_on_c, 1, 63, 45
3, 36320, Note_off_c, 1, 63, 64
3, 36360, Note_on_c, 1, 64, 45
3, 36440, Note_off_c, 1, 64, 64
3, 36480, Note_on_c, 1, 66, 45
3, 36600, Note_off_c, 1, 66, 64
3, 36600, Note_on_c, 1, 64, 45
3, 36655, Note_off_c, 1, 64, 64
3, 36720, Note_on_c, 1, 67, 45
3, 36840, Note_off_c, 1, 67, 64
3, 36840, Note_on_c, 1, 66, 45
3, 36895, Note_off_c, 1, 66, 64
3, 36960, Note_on_c, 1, 69, 45
3, 37080, Note_off_c, 1, 69, 64
3, 37080, Note_on_c, 1, 67, 45
3, 37135, Note_off_c, 1, 67, 64
3, 37200, Note_on_c, 1, 66, 45
3, 37320, Note_off_c, 1, 66, 64
3, 37320, Note_on_c, 1, 64, 45
3, 37435, Note_off_c, 1, 64, 64
3, 37560, Note_on_c, 1, 66, 47
3, 37680, Note_off_c, 1, 66, 64
3, 37680, Note_on_c, 1, 67, 49
3, 37760, Note_off_c, 1, 67, 64
3, 37800, Note_on_c, 1, 67, 51
3, 37880, Note_off_c, 1, 67, 64
3, 37920, Note_on_c, 1, 69, 53
3, 38000, Note_off_c, 1, 69, 64
3, 38040, Note_on_c, 1, 69, 55
3, 38120, Note_off_c, 1, 69, 64
3, 38160, Note_on_c, 1, 71, 57
3, 38240, Note_off_c, 1, 71, 64
3, 38280, Note_on_c, 1, 71, 60
3, 38360, Note_off_c, 1, 71, 64
3, 38400, Note_on_c, 1, 73, 63
3, 38480, Note_off_c, 1, 73, 64
3, 38520, Note_on_c, 1, 73, 66
3, 38600, Note_off_c, 1, 73, 64
3, 38640, Note_on_c, 1, 74, 69
3, 38720, Note_off_c, 1, 74, 64
3, 38760, Note_on_c, 1, 74, 72
3, 38840, Note_off_c, 1, 74, 64
3, 38880, Note_on_c, 1, 73, 75
3, 39000, Note_off_c, 1, 73, 64
3, 39000, Note_on_c, 1, 71, 75
3, 39120, Note_off_c, 1, 71, 64
3, 39120, Note_on_c, 1, 69, 75
3, 39240, Note_off_c, 1, 69, 64
3, 39240, Note_on_c, 1, 67, 75
3, 39360, Note_off_c, 1, 67, 64
3, 39360, Note_on_c, 1, 66, 75
3, 39840, Note_off_c, 1, 66, 64
3, 39840, Note_on_c, 1, 64, 75
3, 39870, Note_off_c, 1, 64, 64
3, 39870, Note_on_c, 1, 66, 75
3, 39900, Note_off_c, 1, 66, 64
3, 39900, Note_on_c, 1, 64, 75
3, 39930, Note_off_c, 1, 64, 64
3, 39930, Note_on_c, 1, 66, 75
3, 39960, Note_off_c, 1, 66, 64
3, 39960, Note_on_c, 1, 64, 75
3, 39990, Note_off_c, 1, 64, 64
3, 39990, Note_on_c, 1, 66, 75
3, 40020, Note_off_c, 1, 66, 64
3, 40020, Note_on_c, 1, 64, 75
3, 40050, Note_off_c, 1, 64, 64
3, 40050, Note_on_c, 1, 66, 75
3, 40080, Note_off_c, 1, 66, 64
3, 40080, Note_on_c, 1, 64, 75
3, 40110, Note_off_c, 1, 64, 64
3, 40110, Note_on_c, 1, 66, 75
3, 40140, Note_off_c, 1, 66, 64
3, 40140, Note_on_c, 1, 64, 75
3, 40170, Note_off_c, 1, 64, 64
3, 40170, Note_on_c, 1, 66, 75
3, 40200, Note_off_c, 1, 66, 64
3, 40200, Note_on_c, 1, 64, 75
3, 40230, Note_off_c, 1, 64, 64
3, 40230, Note_on_c, 1, 66, 75
3, 40260, Note_off_c, 1, 66, 64
3, 40260, Note_on_c, 1, 62, 75
3, 40290, Note_off_c, 1, 62, 64
3, 40290, Note_on_c, 1, 64, 75
3, 40320, Note_off_c, 1, 64, 64
3, 40320, Note_on_c, 1, 66, 75
3, 40555, Note_off_c, 1, 66, 64
3, 40560, Note_on_c, 1, 69, 92
3, 41200, Note_off_c, 1, 69, 64
3, 41280, Note_on_c, 1, 69, 92
3, 41995, Note_off_c, 1, 69, 64
3, 42000, Note_on_c, 1, 66, 75
3, 42240, Note_off_c, 1, 66, 64
3, 42240, Note_on_c, 1, 62, 75
3, 42475, Note_off_c, 1, 62, 64
3, 42480, Note_on_c, 1, 57, 75
3, 42720, Note_off_c, 1, 57, 64
3, 42720, Note_on_c, 1, 57, 65
3, 43200, Note_off_c, 1, 57, 64
3, 43200, Note_on_c, 1, 57, 45
3, 44520, Note_off_c, 1, 57, 64
3, 44760, Note_on_c, 1, 62, 45
3, 44880, Note_off_c, 1, 62, 64
3, 44880, Note_on_c, 1, 66, 45
3, 45000, Note_off_c, 1, 66, 64
3, 45000, Note_on_c, 1, 69, 45
3, 45120, Note_off_c, 1, 69, 64
3, 45120, Note_on_c, 1, 66, 45
3, 45240, Note_off_c, 1, 66, 64
3, 45240, Note_on_c, 1, 62, 45
3, 45360, Note_off_c, 1, 62, 64
3, 45360, Note_on_c, 1, 66, 45
3, 45480, Note_off_c, 1, 66, 64
3, 45480, Note_on_c, 1, 69, 45
3, 45600, Note_off_c, 1, 69, 64
3, 45600, Note_on_c, 1, 66, 45
3, 45720, Note_off_c, 1, 66, 64
3, 45720, Note_on_c, 1, 62, 45
3, 45840, Note_off_c, 1, 62, 64
3, 45840, Note_on_c, 1, 66, 45
3, 45960, Note_off_c, 1, 66, 64
3, 45960, Note_on_c, 1, 69, 45
3, 46080, Note_off_c, 1, 69, 64
3, 46080, Note_on_c, 1, 66, 45
3, 46200, Note_off_c, 1, 66, 64
3, 46200, Note_on_c, 1, 62, 45
3, 46320, Note_off_c, 1, 62, 64
3, 46320, Note_on_c, 1, 66, 45
3, 46440, Note_off_c, 1, 66, 64
3, 46440, Note_on_c, 1, 69, 45
3, 46560, Note_off_c, 1, 69, 64
3, 46560, Note_on_c, 1, 66, 45
3, 46680, Note_off_c, 1, 66, 64
3, 46680, Note_on_c, 1, 62, 45
3, 46800, Note_off_c, 1, 62, 64
3, 46800, Note_on_c, 1, 66, 45
3, 46920, Note_off_c, 1, 66, 64
3, 46920, Note_on_c, 1, 69, 45
3, 47040, Note_off_c, 1, 69, 64
3, 47040, Note_on_c, 1, 66, 45
3, 47160, Note_off_c, 1, 66, 64
3, 47160, Note_on_c, 1, 62, 45
3, 47280, Note_off_c, 1, 62, 64
3, 47280, Note_on_c, 1, 66, 45
3, 47400, Note_off_c, 1, 66, 64
3, 47400, Note_on_c, 1, 69, 45
3, 47520, Note_off_c, 1, 69, 64
3, 47520, Note_on_c, 1, 66, 45
3, 47640, Note_off_c, 1, 66, 64
3, 47640, Note_on_c, 1, 62, 45
3, 47760, Note_off_c, 1, 62, 64
3, 47760, Note_on_c, 1, 67, 45
3, 47880, Note_off_c, 1, 67, 64
3, 47880, Note_on_c, 1, 71, 45
3, 48000, Note_off_c, 1, 71, 64
3, 48000, Note_on_c, 1, 67, 45
3, 48120, Note_off_c, 1, 67, 64
3, 48120, Note_on_c, 1, 62, 45
3, 48240, Note_off_c, 1, 62, 64
3, 48240, Note_on_c, 1, 67, 45
3, 48360, Note_off_c, 1, 67, 64
3, 48360, Note_on_c, 1, 71, 45
3, 48480, Note_off_c, 1, 71, 64
3, 48480, Note_on_c, 1, 67, 45
3, 48600, Note_off_c, 1, 67, 64
3, 48600, Note_on_c, 1, 62, 45
3, 48720, Note_off_c, 1, 62, 64
3, 48720, Note_on_c, 1, 67, 45
3, 48840, Note_off_c, 1, 67, 64
3, 48840, Note_on_c, 1, 71, 45
3, 48960, Note_off_c, 1, 71, 64
3, 48960, Note_on_c, 1, 67, 45
3, 49080, Note_off_c, 1, 67, 64
3, 49080, Note_on_c, 1, 64, 45
3, 49200, Note_off_c, 1, 64, 64
3, 49200, Note_on_c, 1, 69, 45
3, 49320, Note_off_c, 1, 69, 64
3, 49320, Note_on_c, 1, 72, 45
3, 49440, Note_off_c, 1, 72, 64
3, 49440, Note_on_c, 1, 64, 45
3, 49560, Note_off_c, 1, 64, 64
3, 49560, Note_on_c, 1, 62, 45
3, 49680, Note_off_c, 1, 62, 64
3, 49680, Note_on_c, 1, 66, 45
3, 49800, Note_off_c, 1, 66, 64
3, 49800, Note_on_c, 1, 72, 45
3, 49920, Note_off_c, 1, 72, 64
3, 49920, Note_on_c, 1, 66, 45
3, 50040, Note_off_c, 1, 66, 64
3, 50040, Note_on_c, 1, 62, 45
3, 50160, Note_off_c, 1, 62, 64
3, 50160, Note_on_c, 1, 66, 45
3, 50280, Note_off_c, 1, 66, 64
3, 50280, Note_on_c, 1, 69, 45
3, 50400, Note_off_c, 1, 69, 64
3, 50400, Note_on_c, 1, 57, 45
3, 50520, Note_off_c, 1, 57, 64
3, 50520, Note_on_c, 1, 55, 45
3, 50640, Note_off_c, 1, 55, 64
3, 50640, Note_on_c, 1, 59, 46
3, 50760, Note_off_c, 1, 59, 64
3, 50760, Note_on_c, 1, 62, 47
3, 50880, Note_off_c, 1, 62, 64
3, 50880, Note_on_c, 1, 59, 48
3, 51000, Note_off_c, 1, 59, 64
3, 51000, Note_on_c, 1, 55, 49
3, 51120, Note_off_c, 1, 55, 64
3, 51120, Note_on_c, 1, 59, 50
3, 51240, Note_off_c, 1, 59, 64
3, 51240, Note_on_c, 1, 62, 51
3, 51360, Note_off_c, 1, 62, 64
3, 51360, Note_on_c, 1, 59, 52
3, 51480, Note_off_c, 1, 59, 64
3, 51480, Note_on_c, 1, 55, 53
3, 51600, Note_off_c, 1, 55, 64
3, 51600, Note_on_c, 1, 62, 54
3, 51720, Note_off_c, 1, 62, 64
3, 51720, Note_on_c, 1, 67, 55
3, 51840, Note_off_c, 1, 67, 64
3, 51840, Note_on_c, 1, 62, 56
3, 51960, Note_off_c, 1, 62, 64
3, 51960, Note_on_c, 1, 64, 57
3, 52195, Note_off_c, 1, 64, 64
3, 52200, Note_on_c, 1, 76, 60
3, 52675, Note_off_c, 1, 76, 64
3, 52680, Note_on_c, 1, 74, 60
3, 52920, Note_off_c, 1, 74, 64
3, 52920, Note_on_c, 1, 72, 60
3, 53160, Note_off_c, 1, 72, 64
3, 53160, Note_on_c, 1, 71, 60
3, 53395, Note_off_c, 1, 71, 64
3, 53400, Note_on_c, 1, 71, 60
3, 53430, Note_off_c, 1, 71, 64
3, 53430, Note_on_c, 1, 72, 60
3, 53460, Note_off_c, 1, 72, 64
3, 53460, Note_on_c, 1, 71, 60
3, 53490, Note_off_c, 1, 71, 64
3, 53490, Note_on_c, 1, 72, 60
3, 53520, Note_off_c, 1, 72, 64
3, 53520, Note_on_c, 1, 71, 60
3, 53550, Note_off_c, 1, 71, 64
3, 53550, Note_on_c, 1, 72, 60
3, 53580, Note_off_c, 1, 72, 64
3, 53580, Note_on_c, 1, 71, 60
3, 53610, Note_off_c, 1, 71, 64
3, 53610, Note_on_c, 1, 72, 60
3, 53640, Note_off_c, 1, 72, 64
3, 53640, Note_on_c, 1, 71, 60
3, 53670, Note_off_c, 1, 71, 64
3, 53670, Note_on_c, 1, 72, 60
3, 53700, Note_off_c, 1, 72, 64
3, 53700, Note_on_c, 1, 71, 60
3, 53730, Note_off_c, 1, 71, 64
3, 53730, Note_on_c, 1, 72, 60
3, 53760, Note_off_c, 1, 72, 64
3, 53760, Note_on_c, 1, 71, 60
3, 53790, Note_off_c, 1, 71, 64
3, 53790, Note_on_c, 1, 72, 60
3, 53820, Note_off_c, 1, 72, 64
3, 53820, Note_on_c, 1, 69, 60
3, 53850, Note_off_c, 1, 69, 64
3, 53850, Note_on_c, 1, 71, 60
3, 53880, Note_off_c, 1, 71, 64
3, 53880, Note_on_c, 1, 69, 60
3, 54115, Note_off_c, 1, 69, 64
3, 54840, Note_on_c, 1, 71, 75
3, 55195, Note_off_c, 1, 71, 64
3, 55200, Note_on_c, 1, 67, 75
3, 55260, Note_off_c, 1, 67, 64
3, 55260, Note_on_c, 1, 69, 75
3, 55320, Note_off_c, 1, 69, 64
3, 55320, Note_on_c, 1, 71, 75
3, 55400, Note_off_c, 1, 71, 64
3, 55560, Note_on_c, 1, 71, 75
3, 55640, Note_off_c, 1, 71, 64
3, 55800, Note_on_c, 1, 71, 75
3, 56040, Note_off_c, 1, 71, 64
3, 56040, Note_on_c, 1, 74, 75
3, 56215, Note_off_c, 1, 74, 64
3, 56280, Note_on_c, 1, 71, 75
3, 56600, Note_off_c, 1, 71, 64
3, 56600, Note_on_c, 1, 67, 75
3, 56680, Note_off_c, 1, 67, 64
3, 56680, Note_on_c, 1, 69, 75
3, 56760, Note_off_c, 1, 69, 64
3, 56760, Note_on_c, 1, 71, 75
3, 57160, Note_off_c, 1, 71, 64
3, 57720, Note_on_c, 1, 69, 75
3, 57840, Note_off_c, 1, 69, 64
3, 57840, Note_on_c, 1, 71, 75
3, 57960, Note_off_c, 1, 71, 64
3, 57960, Note_on_c, 1, 72, 75
3, 58080, Note_off_c, 1, 72, 64
3, 58080, Note_on_c, 1, 69, 75
3, 58200, Note_off_c, 1, 69, 64
3, 58200, Note_on_c, 1, 67, 75
3, 58320, Note_off_c, 1, 67, 64
3, 58320, Note_on_c, 1, 69, 75
3, 58440, Note_off_c, 1, 69, 64
3, 58440, Note_on_c, 1, 71, 75
3, 58560, Note_off_c, 1, 71, 64
3, 58560, Note_on_c, 1, 67, 75
3, 58680, Note_off_c, 1, 67, 64
3, 58680, Note_on_c, 1, 66, 75
3, 58800, Note_off_c, 1, 66, 64
3, 58800, Note_on_c, 1, 67, 75
3, 58920, Note_off_c, 1, 67, 64
3, 58920, Note_on_c, 1, 69, 75
3, 59040, Note_off_c, 1, 69, 64
3, 59040, Note_on_c, 1, 66, 75
3, 59160, Note_off_c, 1, 66, 64
3, 59160, Note_on_c, 1, 69, 75
3, 59280, Note_off_c, 1, 69, 64
3, 59280, Note_on_c, 1, 67, 75
3, 59400, Note_off_c, 1, 67, 64
3, 59400, Note_on_c, 1, 66, 75
3, 59515, Note_off_c, 1, 66, 64
3, 60600, Note_on_c, 1, 71, 75
3, 60955, Note_off_c, 1, 71, 64
3, 60960, Note_on_c, 1, 67, 75
3, 61020, Note_off_c, 1, 67, 64
3, 61020, Note_on_c, 1, 69, 75
3, 61080, Note_off_c, 1, 69, 64
3, 61080, Note_on_c, 1, 71, 75
3, 61160, Note_off_c, 1, 71, 64
3, 61320, Note_on_c, 1, 71, 75
3, 61400, Note_off_c, 1, 71, 64
3, 61560, Note_on_c, 1, 71, 75
3, 61800, Note_off_c, 1, 71, 64
3, 61800, Note_on_c, 1, 74, 75
3, 61975, Note_off_c, 1, 74, 64
3, 62040, Note_on_c, 1, 71, 75
3, 62395, Note_off_c, 1, 71, 64
3, 62400, Note_on_c, 1, 67, 75
3, 62460, Note_off_c, 1, 67, 64
3, 62460, Note_on_c, 1, 69, 75
3, 62520, Note_off_c, 1, 69, 64
3, 62520, Note_on_c, 1, 71, 75
3, 62920, Note_off_c, 1, 71, 64
3, 63720, Note_on_c, 1, 67, 75
3, 64200, Note_off_c, 1, 67, 64
3, 64200, Note_on_c, 1, 64, 75
3, 64440, Note_off_c, 1, 64, 64
3, 64440, Note_on_c, 1, 60, 75
3, 64680, Note_off_c, 1, 60, 64
3, 64680, Note_on_c, 1, 59, 75
3, 64920, Note_off_c, 1, 59, 64
3, 64920, Note_on_c, 1, 60, 75
3, 65040, Note_off_c, 1, 60, 64
3, 65040, Note_on_c, 1, 59, 68
3, 65160, Note_off_c, 1, 59, 64
3, 65160, Note_on_c, 1, 57, 61
3, 65280, Note_off_c, 1, 57, 64
3, 65280, Note_on_c, 1, 55, 53
3, 65400, Note_off_c, 1, 55, 64
3, 65400, Note_on_c, 1, 57, 45
3, 65800, Note_off_c, 1, 57, 64
3, 66360, Note_on_c, 1, 76, 45
3, 66480, Note_off_c, 1, 76, 64
3, 66480, Note_on_c, 1, 74, 45
3, 66595, Note_off_c, 1, 74, 64
3, 66600, Note_on_c, 1, 72, 45
3, 66720, Note_off_c, 1, 72, 64
3, 66720, Note_on_c, 1, 71, 45
3, 66835, Note_off_c, 1, 71, 64
3, 66840, Note_on_c, 1, 71, 45
3, 66920, Note_off_c, 1, 71, 64
3, 67080, Note_on_c, 1, 71, 45
3, 67160, Note_off_c, 1, 71, 64
3, 67320, Note_on_c, 1, 71, 45
3, 67560, Note_off_c, 1, 71, 64
3, 67560, Note_on_c, 1, 74, 45
3, 67795, Note_off_c, 1, 74, 64
3, 67800, Note_on_c, 1, 74, 45
3, 67920, Note_off_c, 1, 74, 64
3, 67920, Note_on_c, 1, 72, 45
3, 68040, Note_off_c, 1, 72, 64
3, 68040, Note_on_c, 1, 71, 45
3, 68160, Note_off_c, 1, 71, 64
3, 68160, Note_on_c, 1, 69, 45
3, 68280, Note_off_c, 1, 69, 64
3, 68280, Note_on_c, 1, 69, 45
3, 68680, Note_off_c, 1, 69, 64
3, 69240, Note_on_c, 1, 67, 45
3, 69720, Note_off_c, 1, 67, 64
3, 69720, Note_on_c, 1, 66, 45
3, 70200, Note_off_c, 1, 66, 64
3, 70200, Note_on_c, 1, 67, 45
3, 70680, Note_off_c, 1, 67, 64
3, 70680, Note_on_c, 1, 69, 45
3, 70800, Note_off_c, 1, 69, 64
3, 70800, Note_on_c, 1, 67, 45
3, 70920, Note_off_c, 1, 67, 64
3, 70920, Note_on_c, 1, 66, 45
3, 71040, Note_off_c, 1, 66, 64
3, 71040, Note_on_c, 1, 67, 45
3, 71160, Note_off_c, 1, 67, 64
3, 71160, Note_on_c, 1, 66, 45
3, 71560, Note_off_c, 1, 66, 64
3, 72120, Note_on_c, 1, 76, 45
3, 72240, Note_off_c, 1, 76, 64
3, 72240, Note_on_c, 1, 74, 45
3, 72355, Note_off_c, 1, 74, 64
3, 72360, Note_on_c, 1, 72, 45
3, 72480, Note_off_c, 1, 72, 64
3, 72480, Note_on_c, 1, 71, 45
3, 72595, Note_off_c, 1, 71, 64
3, 72600, Note_on_c, 1, 71, 45
3, 72680, Note_off_c, 1, 71, 64
3, 72840, Note_on_c, 1, 71, 45
3, 72920, Note_off_c, 1, 71, 64
3, 73080, Note_on_c, 1, 71, 45
3, 73320, Note_off_c, 1, 71, 64
3, 73320, Note_on_c, 1, 74, 45
3, 73555, Note_off_c, 1, 74, 64
3, 73560, Note_on_c, 1, 74, 45
3, 73680, Note_off_c, 1, 74, 64
3, 73680, Note_on_c, 1, 72, 45
3, 73800, Note_off_c, 1, 72, 64
3, 73800, Note_on_c, 1, 71, 45
3, 73920, Note_off_c, 1, 71, 64
3, 73920, Note_on_c, 1, 69, 45
3, 74040, Note_off_c, 1, 69, 64
3, 74040, Note_on_c, 1, 69, 45
3, 74440, Note_off_c, 1, 69, 64
3, 75000, Note_on_c, 1, 67, 45
3, 76320, Note_off_c, 1, 67, 64
3, 76440, Note_on_c, 1, 66, 45
3, 76675, Note_off_c, 1, 66, 64
3, 76680, Note_on_c, 1, 66, 45
3, 76800, Note_off_c, 1, 66, 64
3, 76800, Note_on_c, 1, 67, 45
3, 76920, Note_off_c, 1, 67, 64
3, 76920, Note_on_c, 1, 69, 45
3, 77040, Note_off_c, 1, 69, 64
3, 77040, Note_on_c, 1, 71, 45
3, 77160, Note_off_c, 1, 71, 64
3, 77160, Note_on_c, 1, 72, 45
3, 77280, Note_off_c, 1, 72, 64
3, 77280, Note_on_c, 1, 71, 45
3, 77400, Note_off_c, 1, 71, 64
3, 77400, Note_on_c, 1, 74, 45
3, 77520, Note_off_c, 1, 74, 64
3, 77520, Note_on_c, 1, 72, 45
3, 77640, Note_off_c, 1, 72, 64
3, 77640, Note_on_c, 1, 71, 45
3, 77760, Note_off_c, 1, 71, 64
3, 77760, Note_on_c, 1, 69, 45
3, 77880, Note_off_c, 1, 69, 64
3, 77880, Note_on_c, 1, 74, 45
3, 78115, Note_off_c, 1, 74, 64
3, 78120, Note_on_c, 1, 74, 45
3, 78355, Note_off_c, 1, 74, 64
3, 78360, Note_on_c, 1, 74, 45
3, 78595, Note_off_c, 1, 74, 64
3, 78600, Note_on_c, 1, 74, 45
3, 78835, Note_off_c, 1, 74, 64
3, 78840, Note_on_c, 1, 74, 45
3, 79075, Note_off_c, 1, 74, 64
3, 79080, Note_on_c, 1, 74, 45
3, 79315, Note_off_c, 1, 74, 64
3, 79320, Note_on_c, 1, 74, 45
3, 79555, Note_off_c, 1, 74, 64
3, 79560, Note_on_c, 1, 72, 47
3, 79680, Note_off_c, 1, 72, 64
3, 79680, Note_on_c, 1, 71, 48
3, 79795, Note_off_c, 1, 71, 64
3, 79800, Note_on_c, 1, 72, 49
3, 80040, Note_off_c, 1, 72, 64
3, 80040, Note_on_c, 1, 71, 51
3, 80275, Note_off_c, 1, 71, 64
3, 80280, Note_on_c, 1, 69, 54
3, 80520, Note_off_c, 1, 69, 64
3, 80520, Note_on_c, 1, 67, 57
3, 80755, Note_off_c, 1, 67, 64
3, 80760, Note_on_c, 1, 66, 60
3, 80995, Note_off_c, 1, 66, 64
3, 81000, Note_on_c, 1, 66, 63
3, 81235, Note_off_c, 1, 66, 64
3, 81240, Note_on_c, 1, 66, 66
3, 81475, Note_off_c, 1, 66, 64
3, 81480, Note_on_c, 1, 66, 69
3, 81715, Note_off_c, 1, 66, 64
3, 81720, Note_on_c, 1, 69, 72
3, 81955, Note_off_c, 1, 69, 64
3, 81960, Note_on_c, 1, 69, 75
3, 82195, Note_off_c, 1, 69, 64
3, 82200, Note_on_c, 1, 69, 75
3, 82680, Note_off_c, 1, 69, 64
3, 82680, Note_on_c, 1, 67, 45
3, 83080, Note_off_c, 1, 67, 64
3, 83760, Note_on_c, 1, 67, 45
3, 83880, Note_off_c, 1, 67, 64
3, 83880, Note_on_c, 1, 69, 45
3, 83960, Note_off_c, 1, 69, 64
3, 84000, Note_on_c, 1, 67, 45
3, 84040, Note_off_c, 1, 67, 64
3, 84120, Note_on_c, 1, 66, 45
3, 84240, Note_off_c, 1, 66, 64
3, 84240, Note_on_c, 1, 67, 45
3, 84280, Note_off_c, 1, 67, 64
3, 84360, Note_on_c, 1, 64, 45
3, 84480, Note_off_c, 1, 64, 64
3, 84480, Note_on_c, 1, 62, 45
3, 84520, Note_off_c, 1, 62, 64
3, 84600, Note_on_c, 1, 60, 45
3, 84720, Note_off_c, 1, 60, 64
3, 84720, Note_on_c, 1, 59, 45
3, 84760, Note_off_c, 1, 59, 64
3, 84840, Note_on_c, 1, 57, 45
3, 84960, Note_off_c, 1, 57, 64
3, 84960, Note_on_c, 1, 55, 45
3, 85000, Note_off_c, 1, 55, 64
3, 85200, Note_on_c, 1, 69, 45
3, 85320, Note_off_c, 1, 69, 64
3, 85320, Note_on_c, 1, 71, 45
3, 85360, Note_off_c, 1, 71, 64
3, 85440, Note_on_c, 1, 69, 45
3, 85520, Note_off_c, 1, 69, 64
3, 85560, Note_on_c, 1, 68, 45
3, 85680, Note_off_c, 1, 68, 64
3, 85680, Note_on_c, 1, 69, 45
3, 85720, Note_off_c, 1, 69, 64
3, 85800, Note_on_c, 1, 67, 45
3, 85920, Note_off_c, 1, 67, 64
3, 85920, Note_on_c, 1, 66, 45
3, 85960, Note_off_c, 1, 66, 64
3, 86040, Note_on_c, 1, 64, 45
3, 86160, Note_off_c, 1, 64, 64
3, 86160, Note_on_c, 1, 62, 45
3, 86200, Note_off_c, 1, 62, 64
3, 86280, Note_on_c, 1, 57, 45
3, 86400, Note_off_c, 1, 57, 64
3, 86400, Note_on_c, 1, 60, 45
3, 86480, Note_off_c, 1, 60, 64
3, 86640, Note_on_c, 1, 59, 47
3, 86760, Note_off_c, 1, 59, 64
3, 86760, Note_on_c, 1, 60, 49
3, 86840, Note_off_c, 1, 60, 64
3, 86880, Note_on_c, 1, 60, 51
3, 86960, Note_off_c, 1, 60, 64
3, 87000, Note_on_c, 1, 62, 53
3, 87080, Note_off_c, 1, 62, 64
3, 87120, Note_on_c, 1, 62, 55
3, 87200, Note_off_c, 1, 62, 64
3, 87240, Note_on_c, 1, 64, 57
3, 87320, Note_off_c, 1, 64, 64
3, 87360, Note_on_c, 1, 64, 60
3, 87440, Note_off_c, 1, 64, 64
3, 87480, Note_on_c, 1, 66, 63
3, 87560, Note_off_c, 1, 66, 64
3, 87600, Note_on_c, 1, 66, 66
3, 87680, Note_off_c, 1, 66, 64
3, 87720, Note_on_c, 1, 67, 69
3, 87800, Note_off_c, 1, 67, 64
3, 87840, Note_on_c, 1, 67, 72
3, 87920, Note_off_c, 1, 67, 64
3, 87960, Note_on_c, 1, 66, 75
3, 88080, Note_off_c, 1, 66, 64
3, 88080, Note_on_c, 1, 64, 75
3, 88200, Note_off_c, 1, 64, 64
3, 88200, Note_on_c, 1, 62, 75
3, 88320, Note_off_c, 1, 62, 64
3, 88320, Note_on_c, 1, 60, 75
3, 88440, Note_off_c, 1, 60, 64
3, 88440, Note_on_c, 1, 59, 72
3, 88920, Note_off_c, 1, 59, 64
3, 88920, Note_on_c, 1, 57, 59
3, 88950, Note_off_c, 1, 57, 64
3, 88950, Note_on_c, 1, 59, 59
3, 88980, Note_off_c, 1, 59, 64
3, 88980, Note_on_c, 1, 57, 59
3, 89010, Note_off_c, 1, 57, 64
3, 89010, Note_on_c, 1, 59, 58
3, 89040, Note_off_c, 1, 59, 64
3, 89040, Note_on_c, 1, 57, 57
3, 89070, Note_off_c, 1, 57, 64
3, 89070, Note_on_c, 1, 59, 56
3, 89100, Note_off_c, 1, 59, 64
3, 89100, Note_on_c, 1, 57, 55
3, 89130, Note_off_c, 1, 57, 64
3, 89130, Note_on_c, 1, 59, 54
3, 89160, Note_off_c, 1, 59, 64
3, 89160, Note_on_c, 1, 57, 53
3, 89190, Note_off_c, 1, 57, 64
3, 89190, Note_on_c, 1, 59, 52
3, 89220, Note_off_c, 1, 59, 64
3, 89220, Note_on_c, 1, 57, 51
3, 89250, Note_off_c, 1, 57, 64
3, 89250, Note_on_c, 1, 59, 50
3, 89280, Note_off_c, 1, 59, 64
3, 89280, Note_on_c, 1, 55, 49
3, 89340, Note_off_c, 1, 55, 64
3, 89340, Note_on_c, 1, 57, 47
3, 89395, Note_off_c, 1, 57, 64
3, 89520, Note_on_c, 1, 67, 45
3, 89640, Note_off_c, 1, 67, 64
3, 89640, Note_on_c, 1, 69, 45
3, 89720, Note_off_c, 1, 69, 64
3, 89760, Note_on_c, 1, 67, 45
3, 89800, Note_off_c, 1, 67, 64
3, 89880, Note_on_c, 1, 66, 45
3, 90000, Note_off_c, 1, 66, 64
3, 90000, Note_on_c, 1, 67, 45
3, 90040, Note_off_c, 1, 67, 64
3, 90120, Note_on_c, 1, 64, 45
3, 90240, Note_off_c, 1, 64, 64
3, 90240, Note_on_c, 1, 62, 45
3, 90280, Note_off_c, 1, 62, 64
3, 90360, Note_on_c, 1, 60, 45
3, 90480, Note_off_c, 1, 60, 64
3, 90480, Note_on_c, 1, 59, 45
3, 90520, Note_off_c, 1, 59, 64
3, 90600, Note_on_c, 1, 57, 45
3, 90720, Note_off_c, 1, 57, 64
3, 90720, Note_on_c, 1, 55, 45
3, 90760, Note_off_c, 1, 55, 64
3, 90960, Note_on_c, 1, 69, 45
3, 91080, Note_off_c, 1, 69, 64
3, 91080, Note_on_c, 1, 71, 45
3, 91120, Note_off_c, 1, 71, 64
3, 91200, Note_on_c, 1, 69, 45
3, 91280, Note_off_c, 1, 69, 64
3, 91320, Note_on_c, 1, 68, 45
3, 91440, Note_off_c, 1, 68, 64
3, 91440, Note_on_c, 1, 69, 45
3, 91480, Note_off_c, 1, 69, 64
3, 91560, Note_on_c, 1, 67, 45
3, 91680, Note_off_c, 1, 67, 64
3, 91680, Note_on_c, 1, 66, 45
3, 91720, Note_off_c, 1, 66, 64
3, 91800, Note_on_c, 1, 64, 45
3, 91920, Note_off_c, 1, 64, 64
3, 91920, Note_on_c, 1, 62, 45
3, 91960, Note_off_c, 1, 62, 64
3, 92040, Note_on_c, 1, 57, 45
3, 92160, Note_off_c, 1, 57, 64
3, 92160, Note_on_c, 1, 60, 45
3, 92240, Note_off_c, 1, 60, 64
3, 92400, Note_on_c, 1, 59, 46
3, 92520, Note_off_c, 1, 59, 64
3, 92520, Note_on_c, 1, 60, 47
3, 92600, Note_off_c, 1, 60, 64
3, 92640, Note_on_c, 1, 60, 48
3, 92720, Note_off_c, 1, 60, 64
3, 92760, Note_on_c, 1, 62, 49
3, 92840, Note_off_c, 1, 62, 64
3, 92880, Note_on_c, 1, 62, 50
3, 92960, Note_off_c, 1, 62, 64
3, 93000, Note_on_c, 1, 64, 51
3, 93080, Note_off_c, 1, 64, 64
3, 93120, Note_on_c, 1, 64, 52
3, 93200, Note_off_c, 1, 64, 64
3, 93240, Note_on_c, 1, 66, 53
3, 93320, Note_off_c, 1, 66, 64
3, 93360, Note_on_c, 1, 66, 54
3, 93440, Note_off_c, 1, 66, 64
3, 93480, Note_on_c, 1, 67, 56
3, 93560, Note_off_c, 1, 67, 64
3, 93600, Note_on_c, 1, 67, 58
3, 93680, Note_off_c, 1, 67, 64
3, 93720, Note_on_c, 1, 66, 60
3, 93840, Note_off_c, 1, 66, 64
3, 93840, Note_on_c, 1, 64, 60
3, 93960, Note_off_c, 1, 64, 64
3, 93960, Note_on_c, 1, 62, 60
3, 94080, Note_off_c, 1, 62, 64
3, 94080, Note_on_c, 1, 60, 60
3, 94200, Note_off_c, 1, 60, 64
3, 94200, Note_on_c, 1, 59, 60
3, 94680, Note_off_c, 1, 59, 64
3, 94680, Note_on_c, 1, 57, 67
3, 94710, Note_off_c, 1, 57, 64
3, 94710, Note_on_c, 1, 59, 67
3, 94740, Note_off_c, 1, 59, 64
3, 94740, Note_on_c, 1, 57, 67
3, 94770, Note_off_c, 1, 57, 64
3, 94770, Note_on_c, 1, 59, 67
3, 94800, Note_off_c, 1, 59, 64
3, 94800, Note_on_c, 1, 57, 67
3, 94830, Note_off_c, 1, 57, 64
3, 94830, Note_on_c, 1, 59, 67
3, 94860, Note_off_c, 1, 59, 64
3, 94860, Note_on_c, 1, 57, 67
3, 94890, Note_off_c, 1, 57, 64
3, 94890, Note_on_c, 1, 59, 67
3, 94920, Note_off_c, 1, 59, 64
3, 94920, Note_on_c, 1, 57, 67
3, 94950, Note_off_c, 1, 57, 64
3, 94950, Note_on_c, 1, 59, 68
3, 94980, Note_off_c, 1, 59, 64
3, 94980, Note_on_c, 1, 57, 69
3, 95010, Note_off_c, 1, 57, 64
3, 95010, Note_on_c, 1, 59, 70
3, 95040, Note_off_c, 1, 59, 64
3, 95040, Note_on_c, 1, 57, 71
3, 95070, Note_off_c, 1, 57, 64
3, 95070, Note_on_c, 1, 59, 72
3, 95100, Note_off_c, 1, 59, 64
3, 95100, Note_on_c, 1, 55, 73
3, 95130, Note_off_c, 1, 55, 64
3, 95130, Note_on_c, 1, 57, 74
3, 95155, Note_off_c, 1, 57, 64
3, 95160, Note_on_c, 1, 55, 75
3, 95400, Note_off_c, 1, 55, 64
3, 95400, Note_on_c, 1, 67, 75
3, 95640, Note_off_c, 1, 67, 64
3, 95640, Note_on_c, 1, 71, 75
3, 95880, Note_off_c, 1, 71, 64
3, 95880, Note_on_c, 1, 74, 75
3, 96120, Note_off_c, 1, 74, 64
3, 96120, Note_on_c, 1, 74, 70
3, 96835, Note_off_c, 1, 74, 64
3, 96840, Note_on_c, 1, 71, 60
3, 97080, Note_off_c, 1, 71, 64
3, 97080, Note_on_c, 1, 67, 60
3, 97320, Note_off_c, 1, 67, 64
3, 97320, Note_on_c, 1, 62, 60
3, 97560, Note_off_c, 1, 62, 64
3, 97560, Note_on_c, 1, 57, 55
3, 97800, Note_off_c, 1, 57, 64
3, 97800, Note_on_c, 1, 60, 50
3, 98040, Note_off_c, 1, 60, 64
3, 98040, Note_on_c, 1, 60, 45
3, 99000, Note_off_c, 1, 60, 64
3, 99000, Note_on_c, 1, 59, 45
3, 99400, Note_off_c, 1, 59, 64
3, 99400, End_track
4, 0, Start_track
4, 0, Title_t, "Mozart arr : Pollen (2000)"
4, 0, MIDI_port, 0
4, 0, Channel_prefix, 2
4, 0, Control_c, 2, 7, 127
4, 0, Control_c, 2, 10, 69
4, 0, Control_c, 2, 91, 46
4, 0, Program_c, 2, 50
4, 0, Note_on_c, 2, 55, 75
4, 595, Note_off_c, 2, 55, 64
4, 1440, Note_on_c, 2, 55, 75
4, 2035, Note_off_c, 2, 55, 64
4, 2160, Note_on_c, 2, 59, 75
4, 2400, Note_off_c, 2, 59, 64
4, 2400, Note_on_c, 2, 60, 75
4, 2640, Note_off_c, 2, 60, 64
4, 2640, Note_on_c, 2, 62, 75
4, 2880, Note_off_c, 2, 62, 64
4, 2880, Note_on_c, 2, 64, 75
4, 3360, Note_off_c, 2, 64, 64
4, 3360, Note_on_c, 2, 62, 75
4, 3840, Note_off_c, 2, 62, 64
4, 3840, Note_on_c, 2, 62, 75
4, 4320, Note_off_c, 2, 62, 64
4, 4320, Note_on_c, 2, 64, 75
4, 4440, Note_off_c, 2, 64, 64
4, 4440, Note_on_c, 2, 62, 75
4, 4560, Note_off_c, 2, 62, 64
4, 4560, Note_on_c, 2, 60, 75
4, 4680, Note_off_c, 2, 60, 64
4, 4680, Note_on_c, 2, 59, 75
4, 4800, Note_off_c, 2, 59, 64
4, 4800, Note_on_c, 2, 59, 75
4, 5200, Note_off_c, 2, 59, 64
4, 5760, Note_on_c, 2, 55, 75
4, 6355, Note_off_c, 2, 55, 64
4, 7200, Note_on_c, 2, 55, 75
4, 7795, Note_off_c, 2, 55, 64
4, 7920, Note_on_c, 2, 59, 75
4, 8160, Note_off_c, 2, 59, 64
4, 8160, Note_on_c, 2, 60, 75
4, 8400, Note_off_c, 2, 60, 64
4, 8400, Note_on_c, 2, 62, 75
4, 8635, Note_off_c, 2, 62, 64
4, 8640, Note_on_c, 2, 55, 75
4, 8875, Note_off_c, 2, 55, 64
4, 8880, Note_on_c, 2, 60, 75
4, 9000, Note_off_c, 2, 60, 64
4, 9000, Note_on_c, 2, 59, 75
4, 9120, Note_off_c, 2, 59, 64
4, 9120, Note_on_c, 2, 60, 75
4, 9360, Note_off_c, 2, 60, 64
4, 9360, Note_on_c, 2, 60, 75
4, 9600, Note_off_c, 2, 60, 64
4, 9600, Note_on_c, 2, 64, 75
4, 9840, Note_off_c, 2, 64, 64
4, 9840, Note_on_c, 2, 52, 75
4, 10080, Note_off_c, 2, 52, 64
4, 10080, Note_on_c, 2, 50, 75
4, 10480, Note_off_c, 2, 50, 64
4, 11520, Note_on_c, 2, 67, 45
4, 11640, Note_off_c, 2, 67, 64
4, 11640, Note_on_c, 2, 66, 45
4, 11755, Note_off_c, 2, 66, 64
4, 11760, Note_on_c, 2, 64, 45
4, 11880, Note_off_c, 2, 64, 64
4, 11880, Note_on_c, 2, 62, 45
4, 11995, Note_off_c, 2, 62, 64
4, 12000, Note_on_c, 2, 62, 45
4, 12080, Note_off_c, 2, 62, 64
4, 12240, Note_on_c, 2, 62, 45
4, 12320, Note_off_c, 2, 62, 64
4, 12480, Note_on_c, 2, 62, 45
4, 12720, Note_off_c, 2, 62, 64
4, 12720, Note_on_c, 2, 66, 45
4, 12955, Note_off_c, 2, 66, 64
4, 12960, Note_on_c, 2, 66, 45
4, 13080, Note_off_c, 2, 66, 64
4, 13080, Note_on_c, 2, 64, 45
4, 13195, Note_off_c, 2, 64, 64
4, 13200, Note_on_c, 2, 62, 45
4, 13320, Note_off_c, 2, 62, 64
4, 13320, Note_on_c, 2, 61, 45
4, 13435, Note_off_c, 2, 61, 64
4, 13440, Note_on_c, 2, 61, 45
4, 13840, Note_off_c, 2, 61, 64
4, 14640, Note_on_c, 2, 57, 45
4, 15115, Note_off_c, 2, 57, 64
4, 15120, Note_on_c, 2, 57, 45
4, 15595, Note_off_c, 2, 57, 64
4, 15600, Note_on_c, 2, 57, 45
4, 16240, Note_off_c, 2, 57, 64
4, 16320, Note_on_c, 2, 57, 50
4, 16720, Note_off_c, 2, 57, 64
4, 17520, Note_on_c, 2, 57, 60
4, 17760, Note_off_c, 2, 57, 64
4, 17760, Note_on_c, 2, 62, 60
4, 18000, Note_off_c, 2, 62, 64
4, 18000, Note_on_c, 2, 66, 60
4, 18240, Note_off_c, 2, 66, 64
4, 18240, Note_on_c, 2, 69, 60
4, 18640, Note_off_c, 2, 69, 64
4, 18960, Note_on_c, 2, 57, 60
4, 19195, Note_off_c, 2, 57, 64
4, 19200, Note_on_c, 2, 61, 60
4, 19435, Note_off_c, 2, 61, 64
4, 19440, Note_on_c, 2, 64, 60
4, 19675, Note_off_c, 2, 64, 64
4, 19680, Note_on_c, 2, 69, 60
4, 19920, Note_off_c, 2, 69, 64
4, 19920, Note_on_c, 2, 67, 60
4, 20155, Note_off_c, 2, 67, 64
4, 20160, Note_on_c, 2, 66, 60
4, 21120, Note_off_c, 2, 66, 64
4, 21120, Note_on_c, 2, 62, 60
4, 21600, Note_off_c, 2, 62, 64
4, 21600, Note_on_c, 2, 61, 60
4, 21835, Note_off_c, 2, 61, 64
4, 21840, Note_on_c, 2, 57, 62
4, 21960, Note_off_c, 2, 57, 64
4, 21960, Note_on_c, 2, 59, 63
4, 22080, Note_off_c, 2, 59, 64
4, 22080, Note_on_c, 2, 61, 64
4, 22200, Note_off_c, 2, 61, 64
4, 22200, Note_on_c, 2, 62, 65
4, 22320, Note_off_c, 2, 62, 64
4, 22320, Note_on_c, 2, 64, 66
4, 22440, Note_off_c, 2, 64, 64
4, 22440, Note_on_c, 2, 62, 67
4, 22560, Note_off_c, 2, 62, 64
4, 22560, Note_on_c, 2, 64, 68
4, 22800, Note_off_c, 2, 64, 64
4, 22800, Note_on_c, 2, 66, 71
4, 22920, Note_off_c, 2, 66, 64
4, 22920, Note_on_c, 2, 67, 73
4, 23040, Note_off_c, 2, 67, 64
4, 23040, Note_on_c, 2, 69, 75
4, 23280, Note_off_c, 2, 69, 64
4, 23280, Note_on_c, 2, 66, 75
4, 23515, Note_off_c, 2, 66, 64
4, 23520, Note_on_c, 2, 54, 75
4, 23755, Note_off_c, 2, 54, 64
4, 23760, Note_on_c, 2, 54, 75
4, 23995, Note_off_c, 2, 54, 64
4, 24000, Note_on_c, 2, 54, 75
4, 24235, Note_off_c, 2, 54, 64
4, 24240, Note_on_c, 2, 54, 75
4, 24480, Note_off_c, 2, 54, 64
4, 24480, Note_on_c, 2, 55, 75
4, 24715, Note_off_c, 2, 55, 64
4, 24720, Note_on_c, 2, 62, 75
4, 25195, Note_off_c, 2, 62, 64
4, 25200, Note_on_c, 2, 62, 75
4, 25315, Note_off_c, 2, 62, 64
4, 25320, Note_on_c, 2, 64, 75
4, 25380, Note_off_c, 2, 64, 64
4, 25380, Note_on_c, 2, 66, 75
4, 25440, Note_off_c, 2, 66, 64
4, 25440, Note_on_c, 2, 67, 75
4, 25680, Note_off_c, 2, 67, 64
4, 25680, Note_on_c, 2, 66, 75
4, 25920, Note_off_c, 2, 66, 64
4, 25920, Note_on_c, 2, 64, 75
4, 26155, Note_off_c, 2, 64, 64
4, 26160, Note_on_c, 2, 64, 75
4, 26635, Note_off_c, 2, 64, 64
4, 26640, Note_on_c, 2, 64, 75
4, 26880, Note_off_c, 2, 64, 64
4, 26880, Note_on_c, 2, 61, 75
4, 27115, Note_off_c, 2, 61, 64
4, 27120, Note_on_c, 2, 61, 70
4, 27360, Note_off_c, 2, 61, 64
4, 27360, Note_on_c, 2, 61, 65
4, 27760, Note_off_c, 2, 61, 64
4, 27840, Note_on_c, 2, 62, 54
4, 28075, Note_off_c, 2, 62, 64
4, 28080, Note_on_c, 2, 62, 48
4, 28320, Note_off_c, 2, 62, 64
4, 28320, Note_on_c, 2, 61, 42
4, 28560, Note_off_c, 2, 61, 64
4, 28560, Note_on_c, 2, 59, 36
4, 28795, Note_off_c, 2, 59, 64
4, 28800, Note_on_c, 2, 57, 30
4, 29200, Note_off_c, 2, 57, 64
4, 30240, Note_on_c, 2, 59, 45
4, 30640, Note_off_c, 2, 59, 64
4, 31200, Note_on_c, 2, 64, 45
4, 31600, Note_off_c, 2, 64, 64
4, 31800, Note_on_c, 2, 62, 48
4, 31920, Note_off_c, 2, 62, 64
4, 31920, Note_on_c, 2, 64, 52
4, 32000, Note_off_c, 2, 64, 64
4, 32040, Note_on_c, 2, 64, 56
4, 32120, Note_off_c, 2, 64, 64
4, 32160, Note_on_c, 2, 66, 60
4, 32240, Note_off_c, 2, 66, 64
4, 32280, Note_on_c, 2, 66, 64
4, 32360, Note_off_c, 2, 66, 64
4, 32400, Note_on_c, 2, 67, 68
4, 32480, Note_off_c, 2, 67, 64
4, 32520, Note_on_c, 2, 67, 72
4, 32600, Note_off_c, 2, 67, 64
4, 32640, Note_on_c, 2, 69, 76
4, 32720, Note_off_c, 2, 69, 64
4, 32760, Note_on_c, 2, 69, 80
4, 32840, Note_off_c, 2, 69, 64
4, 32880, Note_on_c, 2, 71, 84
4, 32960, Note_off_c, 2, 71, 64
4, 33000, Note_on_c, 2, 71, 88
4, 33080, Note_off_c, 2, 71, 64
4, 33120, Note_on_c, 2, 69, 92
4, 33240, Note_off_c, 2, 69, 64
4, 33240, Note_on_c, 2, 67, 92
4, 33355, Note_off_c, 2, 67, 64
4, 33360, Note_on_c, 2, 66, 92
4, 33480, Note_off_c, 2, 66, 64
4, 33480, Note_on_c, 2, 64, 92
4, 33595, Note_off_c, 2, 64, 64
4, 33600, Note_on_c, 2, 62, 92
4, 34080, Note_off_c, 2, 62, 64
4, 34080, Note_on_c, 2, 61, 61
4, 34560, Note_off_c, 2, 61, 64
4, 34560, Note_on_c, 2, 57, 30
4, 34960, Note_off_c, 2, 57, 64
4, 36000, Note_on_c, 2, 59, 45
4, 36400, Note_off_c, 2, 59, 64
4, 36960, Note_on_c, 2, 64, 45
4, 37360, Note_off_c, 2, 64, 64
4, 37560, Note_on_c, 2, 62, 47
4, 37680, Note_off_c, 2, 62, 64
4, 37680, Note_on_c, 2, 64, 49
4, 37760, Note_off_c, 2, 64, 64
4, 37800, Note_on_c, 2, 64, 51
4, 37880, Note_off_c, 2, 64, 64
4, 37920, Note_on_c, 2, 66, 53
4, 38000, Note_off_c, 2, 66, 64
4, 38040, Note_on_c, 2, 66, 55
4, 38120, Note_off_c, 2, 66, 64
4, 38160, Note_on_c, 2, 67, 57
4, 38240, Note_off_c, 2, 67, 64
4, 38280, Note_on_c, 2, 67, 60
4, 38360, Note_off_c, 2, 67, 64
4, 38400, Note_on_c, 2, 69, 63
4, 38480, Note_off_c, 2, 69, 64
4, 38520, Note_on_c, 2, 69, 66
4, 38600, Note_off_c, 2, 69, 64
4, 38640, Note_on_c, 2, 71, 69
4, 38720, Note_off_c, 2, 71, 64
4, 38760, Note_on_c, 2, 71, 72
4, 38840, Note_off_c, 2, 71, 64
4, 38880, Note_on_c, 2, 69, 75
4, 39000, Note_off_c, 2, 69, 64
4, 39000, Note_on_c, 2, 67, 75
4, 39120, Note_off_c, 2, 67, 64
4, 39120, Note_on_c, 2, 66, 75
4, 39240, Note_off_c, 2, 66, 64
4, 39240, Note_on_c, 2, 64, 75
4, 39355, Note_off_c, 2, 64, 64
4, 39360, Note_on_c, 2, 62, 75
4, 39840, Note_off_c, 2, 62, 64
4, 39840, Note_on_c, 2, 61, 75
4, 40320, Note_off_c, 2, 61, 64
4, 40320, Note_on_c, 2, 62, 92
4, 40960, Note_off_c, 2, 62, 64
4, 41040, Note_on_c, 2, 62, 92
4, 41280, Note_off_c, 2, 62, 64
4, 41280, Note_on_c, 2, 61, 87
4, 41520, Note_off_c, 2, 61, 64
4, 41520, Note_on_c, 2, 64, 81
4, 41640, Note_off_c, 2, 64, 64
4, 41640, Note_on_c, 2, 67, 78
4, 41760, Note_off_c, 2, 67, 64
4, 41760, Note_on_c, 2, 66, 75
4, 42160, Note_off_c, 2, 66, 64
4, 42240, Note_on_c, 2, 57, 75
4, 42480, Note_off_c, 2, 57, 64
4, 42480, Note_on_c, 2, 54, 68
4, 42720, Note_off_c, 2, 54, 64
4, 42720, Note_on_c, 2, 52, 61
4, 42960, Note_off_c, 2, 52, 64
4, 42960, Note_on_c, 2, 55, 53
4, 43200, Note_off_c, 2, 55, 64
4, 43200, Note_on_c, 2, 55, 45
4, 44160, Note_off_c, 2, 55, 64
4, 44160, Note_on_c, 2, 54, 45
4, 44560, Note_off_c, 2, 54, 64
4, 44760, Note_on_c, 2, 57, 45
4, 44880, Note_off_c, 2, 57, 64
4, 44880, Note_on_c, 2, 62, 45
4, 45000, Note_off_c, 2, 62, 64
4, 45000, Note_on_c, 2, 66, 45
4, 45120, Note_off_c, 2, 66, 64
4, 45120, Note_on_c, 2, 62, 45
4, 45240, Note_off_c, 2, 62, 64
4, 45240, Note_on_c, 2, 57, 45
4, 45360, Note_off_c, 2, 57, 64
4, 45360, Note_on_c, 2, 62, 45
4, 45480, Note_off_c, 2, 62, 64
4, 45480, Note_on_c, 2, 66, 45
4, 45600, Note_off_c, 2, 66, 64
4, 45600, Note_on_c, 2, 62, 45
4, 45720, Note_off_c, 2, 62, 64
4, 45720, Note_on_c, 2, 57, 45
4, 45840, Note_off_c, 2, 57, 64
4, 45840, Note_on_c, 2, 62, 45
4, 45960, Note_off_c, 2, 62, 64
4, 45960, Note_on_c, 2, 66, 45
4, 46080, Note_off_c, 2, 66, 64
4, 46080, Note_on_c, 2, 62, 45
4, 46200, Note_off_c, 2, 62, 64
4, 46200, Note_on_c, 2, 57, 45
4, 46320, Note_off_c, 2, 57, 64
4, 46320, Note_on_c, 2, 62, 45
4, 46440, Note_off_c, 2, 62, 64
4, 46440, Note_on_c, 2, 66, 45
4, 46560, Note_off_c, 2, 66, 64
4, 46560, Note_on_c, 2, 62, 45
4, 46680, Note_off_c, 2, 62, 64
4, 46680, Note_on_c, 2, 57, 45
4, 46800, Note_off_c, 2, 57, 64
4, 46800, Note_on_c, 2, 62, 45
4, 46920, Note_off_c, 2, 62, 64
4, 46920, Note_on_c, 2, 66, 45
4, 47040, Note_off_c, 2, 66, 64
4, 47040, Note_on_c, 2, 62, 45
4, 47160, Note_off_c, 2, 62, 64
4, 47160, Note_on_c, 2, 57, 45
4, 47280, Note_off_c, 2, 57, 64
4, 47280, Note_on_c, 2, 62, 45
4, 47400, Note_off_c, 2, 62, 64
4, 47400, Note_on_c, 2, 66, 45
4, 47520, Note_off_c, 2, 66, 64
4, 47520, Note_on_c, 2, 62, 45
4, 47640, Note_off_c, 2, 62, 64
4, 47640, Note_on_c, 2, 59, 45
4, 47760, Note_off_c, 2, 59, 64
4, 47760, Note_on_c, 2, 62, 45
4, 47880, Note_off_c, 2, 62, 64
4, 47880, Note_on_c, 2, 67, 45
4, 48000, Note_off_c, 2, 67, 64
4, 48000, Note_on_c, 2, 62, 45
4, 48120, Note_off_c, 2, 62, 64
4, 48120, Note_on_c, 2, 59, 45
4, 48240, Note_off_c, 2, 59, 64
4, 48240, Note_on_c, 2, 62, 45
4, 48360, Note_off_c, 2, 62, 64
4, 48360, Note_on_c, 2, 67, 45
4, 48480, Note_off_c, 2, 67, 64
4, 48480, Note_on_c, 2, 62, 45
4, 48600, Note_off_c, 2, 62, 64
4, 48600, Note_on_c, 2, 59, 45
4, 48720, Note_off_c, 2, 59, 64
4, 48720, Note_on_c, 2, 62, 45
4, 48840, Note_off_c, 2, 62, 64
4, 48840, Note_on_c, 2, 67, 45
4, 48960, Note_off_c, 2, 67, 64
4, 48960, Note_on_c, 2, 62, 45
4, 49080, Note_off_c, 2, 62, 64
4, 49080, Note_on_c, 2, 57, 45
4, 50040, Note_off_c, 2, 57, 64
4, 50040, Note_on_c, 2, 54, 45
4, 50520, Note_off_c, 2, 54, 64
4, 50520, Note_on_c, 2, 55, 45
4, 52360, Note_off_c, 2, 55, 64
4, 52680, Note_on_c, 2, 64, 60
4, 53155, Note_off_c, 2, 64, 64
4, 53160, Note_on_c, 2, 64, 60
4, 53395, Note_off_c, 2, 64, 64
4, 53400, Note_on_c, 2, 62, 60
4, 53800, Note_off_c, 2, 62, 64
4, 54120, Note_on_c, 2, 64, 60
4, 54360, Note_off_c, 2, 64, 64
4, 54360, Note_on_c, 2, 62, 65
4, 54600, Note_off_c, 2, 62, 64
4, 54600, Note_on_c, 2, 60, 70
4, 54835, Note_off_c, 2, 60, 64
4, 54840, Note_on_c, 2, 55, 75
4, 55435, Note_off_c, 2, 55, 64
4, 56280, Note_on_c, 2, 55, 75
4, 56875, Note_off_c, 2, 55, 64
4, 57000, Note_on_c, 2, 59, 75
4, 57240, Note_off_c, 2, 59, 64
4, 57240, Note_on_c, 2, 60, 75
4, 57480, Note_off_c, 2, 60, 64
4, 57480, Note_on_c, 2, 62, 75
4, 57720, Note_off_c, 2, 62, 64
4, 57720, Note_on_c, 2, 64, 75
4, 58200, Note_off_c, 2, 64, 64
4, 58200, Note_on_c, 2, 62, 75
4, 58680, Note_off_c, 2, 62, 64
4, 58680, Note_on_c, 2, 62, 75
4, 59160, Note_off_c, 2, 62, 64
4, 59160, Note_on_c, 2, 64, 75
4, 59280, Note_off_c, 2, 64, 64
4, 59280, Note_on_c, 2, 62, 75
4, 59400, Note_off_c, 2, 62, 64
4, 59400, Note_on_c, 2, 60, 75
4, 59520, Note_off_c, 2, 60, 64
4, 59520, Note_on_c, 2, 59, 75
4, 59640, Note_off_c, 2, 59, 64
4, 59640, Note_on_c, 2, 59, 75
4, 60040, Note_off_c, 2, 59, 64
4, 60600, Note_on_c, 2, 55, 75
4, 61195, Note_off_c, 2, 55, 64
4, 62040, Note_on_c, 2, 55, 75
4, 62635, Note_off_c, 2, 55, 64
4, 62760, Note_on_c, 2, 59, 75
4, 63000, Note_off_c, 2, 59, 64
4, 63000, Note_on_c, 2, 60, 75
4, 63240, Note_off_c, 2, 60, 64
4, 63240, Note_on_c, 2, 62, 75
4, 63475, Note_off_c, 2, 62, 64
4, 63480, Note_on_c, 2, 55, 75
4, 63715, Note_off_c, 2, 55, 64
4, 63720, Note_on_c, 2, 60, 75
4, 63840, Note_off_c, 2, 60, 64
4, 63840, Note_on_c, 2, 59, 75
4, 63960, Note_off_c, 2, 59, 64
4, 63960, Note_on_c, 2, 60, 75
4, 64200, Note_off_c, 2, 60, 64
4, 64200, Note_on_c, 2, 60, 75
4, 64440, Note_off_c, 2, 60, 64
4, 64440, Note_on_c, 2, 64, 75
4, 64680, Note_off_c, 2, 64, 64
4, 64680, Note_on_c, 2, 52, 75
4, 64920, Note_off_c, 2, 52, 64
4, 64920, Note_on_c, 2, 50, 75
4, 65320, Note_off_c, 2, 50, 64
4, 66360, Note_on_c, 2, 72, 45
4, 66480, Note_off_c, 2, 72, 64
4, 66480, Note_on_c, 2, 71, 45
4, 66595, Note_off_c, 2, 71, 64
4, 66600, Note_on_c, 2, 69, 45
4, 66720, Note_off_c, 2, 69, 64
4, 66720, Note_on_c, 2, 67, 45
4, 66835, Note_off_c, 2, 67, 64
4, 66840, Note_on_c, 2, 67, 45
4, 66920, Note_off_c, 2, 67, 64
4, 67080, Note_on_c, 2, 67, 45
4, 67160, Note_off_c, 2, 67, 64
4, 67320, Note_on_c, 2, 67, 45
4, 67560, Note_off_c, 2, 67, 64
4, 67560, Note_on_c, 2, 71, 45
4, 67795, Note_off_c, 2, 71, 64
4, 67800, Note_on_c, 2, 71, 45
4, 67920, Note_off_c, 2, 71, 64
4, 67920, Note_on_c, 2, 69, 45
4, 68040, Note_off_c, 2, 69, 64
4, 68040, Note_on_c, 2, 67, 45
4, 68160, Note_off_c, 2, 67, 64
4, 68160, Note_on_c, 2, 66, 45
4, 68280, Note_off_c, 2, 66, 64
4, 68280, Note_on_c, 2, 66, 45
4, 68680, Note_off_c, 2, 66, 64
4, 69240, Note_on_c, 2, 62, 45
4, 71080, Note_off_c, 2, 62, 64
4, 71160, Note_on_c, 2, 50, 45
4, 71560, Note_off_c, 2, 50, 64
4, 72360, Note_on_c, 2, 59, 45
4, 72595, Note_off_c, 2, 59, 64
4, 72600, Note_on_c, 2, 67, 45
4, 72840, Note_off_c, 2, 67, 64
4, 72840, Note_on_c, 2, 71, 45
4, 73075, Note_off_c, 2, 71, 64
4, 73080, Note_on_c, 2, 74, 45
4, 73480, Note_off_c, 2, 74, 64
4, 73800, Note_on_c, 2, 62, 45
4, 74040, Note_off_c, 2, 62, 64
4, 74040, Note_on_c, 2, 66, 45
4, 74280, Note_off_c, 2, 66, 64
4, 74280, Note_on_c, 2, 69, 45
4, 74515, Note_off_c, 2, 69, 64
4, 74520, Note_on_c, 2, 74, 45
4, 74760, Note_off_c, 2, 74, 64
4, 74760, Note_on_c, 2, 72, 45
4, 74995, Note_off_c, 2, 72, 64
4, 75000, Note_on_c, 2, 71, 45
4, 75960, Note_off_c, 2, 71, 64
4, 75960, Note_on_c, 2, 67, 45
4, 76360, Note_off_c, 2, 67, 64
4, 76440, Note_on_c, 2, 69, 45
4, 76675, Note_off_c, 2, 69, 64
4, 76680, Note_on_c, 2, 62, 45
4, 76800, Note_off_c, 2, 62, 64
4, 76800, Note_on_c, 2, 64, 45
4, 76920, Note_off_c, 2, 64, 64
4, 76920, Note_on_c, 2, 66, 45
4, 77040, Note_off_c, 2, 66, 64
4, 77040, Note_on_c, 2, 67, 45
4, 77160, Note_off_c, 2, 67, 64
4, 77160, Note_on_c, 2, 69, 45
4, 77280, Note_off_c, 2, 69, 64
4, 77280, Note_on_c, 2, 67, 45
4, 77400, Note_off_c, 2, 67, 64
4, 77400, Note_on_c, 2, 71, 45
4, 77520, Note_off_c, 2, 71, 64
4, 77520, Note_on_c, 2, 69, 45
4, 77640, Note_off_c, 2, 69, 64
4, 77640, Note_on_c, 2, 67, 45
4, 77760, Note_off_c, 2, 67, 64
4, 77760, Note_on_c, 2, 66, 45
4, 77880, Note_off_c, 2, 66, 64
4, 77880, Note_on_c, 2, 67, 45
4, 78115, Note_off_c, 2, 67, 64
4, 78120, Note_on_c, 2, 67, 45
4, 78355, Note_off_c, 2, 67, 64
4, 78360, Note_on_c, 2, 67, 45
4, 78595, Note_off_c, 2, 67, 64
4, 78600, Note_on_c, 2, 67, 45
4, 78835, Note_off_c, 2, 67, 64
4, 78840, Note_on_c, 2, 67, 45
4, 79075, Note_off_c, 2, 67, 64
4, 79080, Note_on_c, 2, 67, 45
4, 79315, Note_off_c, 2, 67, 64
4, 79320, Note_on_c, 2, 67, 45
4, 79555, Note_off_c, 2, 67, 64
4, 79560, Note_on_c, 2, 67, 52
4, 79795, Note_off_c, 2, 67, 64
4, 79800, Note_on_c, 2, 67, 60
4, 80155, Note_off_c, 2, 67, 64
4, 80160, Note_on_c, 2, 69, 60
4, 80220, Note_off_c, 2, 69, 64
4, 80220, Note_on_c, 2, 71, 60
4, 80275, Note_off_c, 2, 71, 64
4, 80280, Note_on_c, 2, 72, 60
4, 80520, Note_off_c, 2, 72, 64
4, 80520, Note_on_c, 2, 71, 60
4, 80760, Note_off_c, 2, 71, 64
4, 80760, Note_on_c, 2, 69, 60
4, 80995, Note_off_c, 2, 69, 64
4, 81000, Note_on_c, 2, 69, 60
4, 81235, Note_off_c, 2, 69, 64
4, 81240, Note_on_c, 2, 69, 60
4, 81475, Note_off_c, 2, 69, 64
4, 81480, Note_on_c, 2, 69, 60
4, 81715, Note_off_c, 2, 69, 64
4, 81720, Note_on_c, 2, 66, 60
4, 81955, Note_off_c, 2, 66, 64
4, 81960, Note_on_c, 2, 66, 75
4, 82195, Note_off_c, 2, 66, 64
4, 82200, Note_on_c, 2, 66, 75
4, 82680, Note_off_c, 2, 66, 64
4, 82680, Note_on_c, 2, 67, 65
4, 82915, Note_off_c, 2, 67, 64
4, 82920, Note_on_c, 2, 67, 60
4, 83160, Note_off_c, 2, 67, 64
4, 83160, Note_on_c, 2, 66, 55
4, 83400, Note_off_c, 2, 66, 64
4, 83400, Note_on_c, 2, 64, 50
4, 83635, Note_off_c, 2, 64, 64
4, 83640, Note_on_c, 2, 62, 45
4, 84040, Note_off_c, 2, 62, 64
4, 85080, Note_on_c, 2, 64, 45
4, 85480, Note_off_c, 2, 64, 64
4, 86040, Note_on_c, 2, 57, 45
4, 86440, Note_off_c, 2, 57, 64
4, 86640, Note_on_c, 2, 55, 47
4, 86760, Note_off_c, 2, 55, 64
4, 86760, Note_on_c, 2, 57, 49
4, 86840, Note_off_c, 2, 57, 64
4, 86880, Note_on_c, 2, 57, 51
4, 86960, Note_off_c, 2, 57, 64
4, 87000, Note_on_c, 2, 59, 53
4, 87080, Note_off_c, 2, 59, 64
4, 87120, Note_on_c, 2, 59, 55
4, 87200, Note_off_c, 2, 59, 64
4, 87240, Note_on_c, 2, 60, 57
4, 87320, Note_off_c, 2, 60, 64
4, 87360, Note_on_c, 2, 60, 60
4, 87440, Note_off_c, 2, 60, 64
4, 87480, Note_on_c, 2, 62, 63
4, 87560, Note_off_c, 2, 62, 64
4, 87600, Note_on_c, 2, 62, 66
4, 87680, Note_off_c, 2, 62, 64
4, 87720, Note_on_c, 2, 64, 69
4, 87800, Note_off_c, 2, 64, 64
4, 87840, Note_on_c, 2, 64, 72
4, 87920, Note_off_c, 2, 64, 64
4, 87960, Note_on_c, 2, 62, 75
4, 88080, Note_off_c, 2, 62, 64
4, 88080, Note_on_c, 2, 60, 75
4, 88200, Note_off_c, 2, 60, 64
4, 88200, Note_on_c, 2, 59, 75
4, 88320, Note_off_c, 2, 59, 64
4, 88320, Note_on_c, 2, 57, 75
4, 88440, Note_off_c, 2, 57, 64
4, 88440, Note_on_c, 2, 55, 72
4, 88920, Note_off_c, 2, 55, 64
4, 88920, Note_on_c, 2, 54, 59
4, 89400, Note_off_c, 2, 54, 64
4, 89400, Note_on_c, 2, 55, 45
4, 89800, Note_off_c, 2, 55, 64
4, 90840, Note_on_c, 2, 64, 45
4, 91240, Note_off_c, 2, 64, 64
4, 91800, Note_on_c, 2, 57, 45
4, 92200, Note_off_c, 2, 57, 64
4, 92400, Note_on_c, 2, 55, 46
4, 92520, Note_off_c, 2, 55, 64
4, 92520, Note_on_c, 2, 57, 47
4, 92600, Note_off_c, 2, 57, 64
4, 92640, Note_on_c, 2, 57, 48
4, 92720, Note_off_c, 2, 57, 64
4, 92760, Note_on_c, 2, 59, 49
4, 92840, Note_off_c, 2, 59, 64
4, 92880, Note_on_c, 2, 59, 50
4, 92960, Note_off_c, 2, 59, 64
4, 93000, Note_on_c, 2, 60, 51
4, 93080, Note_off_c, 2, 60, 64
4, 93120, Note_on_c, 2, 60, 52
4, 93200, Note_off_c, 2, 60, 64
4, 93240, Note_on_c, 2, 62, 53
4, 93320, Note_off_c, 2, 62, 64
4, 93360, Note_on_c, 2, 62, 54
4, 93440, Note_off_c, 2, 62, 64
4, 93480, Note_on_c, 2, 64, 56
4, 93560, Note_off_c, 2, 64, 64
4, 93600, Note_on_c, 2, 64, 58
4, 93680, Note_off_c, 2, 64, 64
4, 93720, Note_on_c, 2, 62, 60
4, 93840, Note_off_c, 2, 62, 64
4, 93840, Note_on_c, 2, 60, 60
4, 93960, Note_off_c, 2, 60, 64
4, 93960, Note_on_c, 2, 59, 60
4, 94080, Note_off_c, 2, 59, 64
4, 94080, Note_on_c, 2, 57, 60
4, 94200, Note_off_c, 2, 57, 64
4, 94200, Note_on_c, 2, 55, 60
4, 94680, Note_off_c, 2, 55, 64
4, 94680, Note_on_c, 2, 54, 67
4, 95080, Note_off_c, 2, 54, 64
4, 95160, Note_on_c, 2, 55, 75
4, 95400, Note_off_c, 2, 55, 64
4, 95400, Note_on_c, 2, 62, 75
4, 95640, Note_off_c, 2, 62, 64
4, 95640, Note_on_c, 2, 67, 75
4, 95880, Note_off_c, 2, 67, 64
4, 95880, Note_on_c, 2, 71, 75
4, 96120, Note_off_c, 2, 71, 64
4, 96120, Note_on_c, 2, 69, 70
4, 96360, Note_off_c, 2, 69, 64
4, 96360, Note_on_c, 2, 72, 65
4, 96595, Note_off_c, 2, 72, 64
4, 96600, Note_on_c, 2, 71, 60
4, 96835, Note_off_c, 2, 71, 64
4, 96840, Note_on_c, 2, 67, 60
4, 97080, Note_off_c, 2, 67, 64
4, 97080, Note_on_c, 2, 62, 60
4, 97320, Note_off_c, 2, 62, 64
4, 97320, Note_on_c, 2, 59, 60
4, 97560, Note_off_c, 2, 59, 64
4, 97560, Note_on_c, 2, 54, 55
4, 97800, Note_off_c, 2, 54, 64
4, 97800, Note_on_c, 2, 57, 50
4, 98040, Note_off_c, 2, 57, 64
4, 98040, Note_on_c, 2, 57, 45
4, 99000, Note_off_c, 2, 57, 64
4, 99000, Note_on_c, 2, 55, 45
4, 99400, Note_off_c, 2, 55, 64
4, 99400, End_track
5, 0, Start_track
5, 0, MIDI_port, 0
5, 0, Channel_prefix, 3
5, 0, Control_c, 3, 7, 127
5, 0, Control_c, 3, 10, 102
5, 0, Control_c, 3, 91, 51
5, 0, Program_c, 3, 50
5, 0, Note_on_c, 3, 55, 75
5, 595, Note_off_c, 3, 55, 64
5, 1440, Note_on_c, 3, 43, 75
5, 2035, Note_off_c, 3, 43, 64
5, 2160, Note_on_c, 3, 43, 75
5, 2400, Note_off_c, 3, 43, 64
5, 2400, Note_on_c, 3, 45, 75
5, 2640, Note_off_c, 3, 45, 64
5, 2640, Note_on_c, 3, 47, 75
5, 2880, Note_off_c, 3, 47, 64
5, 2880, Note_on_c, 3, 48, 75
5, 3360, Note_off_c, 3, 48, 64
5, 3360, Note_on_c, 3, 50, 75
5, 3840, Note_off_c, 3, 50, 64
5, 3840, Note_on_c, 3, 50, 75
5, 4320, Note_off_c, 3, 50, 64
5, 4320, Note_on_c, 3, 55, 75
5, 4720, Note_off_c, 3, 55, 64
5, 5040, Note_on_c, 3, 47, 75
5, 5280, Note_off_c, 3, 47, 64
5, 5280, Note_on_c, 3, 50, 75
5, 5520, Note_off_c, 3, 50, 64
5, 5520, Note_on_c, 3, 47, 75
5, 5760, Note_off_c, 3, 47, 64
5, 5760, Note_on_c, 3, 43, 75
5, 6355, Note_off_c, 3, 43, 64
5, 7200, Note_on_c, 3, 43, 75
5, 7795, Note_off_c, 3, 43, 64
5, 7920, Note_on_c, 3, 43, 75
5, 8160, Note_off_c, 3, 43, 64
5, 8160, Note_on_c, 3, 45, 75
5, 8400, Note_off_c, 3, 45, 64
5, 8400, Note_on_c, 3, 47, 75
5, 8635, Note_off_c, 3, 47, 64
5, 8640, Note_on_c, 3, 48, 75
5, 8875, Note_off_c, 3, 48, 64
5, 8880, Note_on_c, 3, 48, 75
5, 9355, Note_off_c, 3, 48, 64
5, 9360, Note_on_c, 3, 48, 75
5, 9835, Note_off_c, 3, 48, 64
5, 9840, Note_on_c, 3, 49, 75
5, 10080, Note_off_c, 3, 49, 64
5, 10080, Note_on_c, 3, 50, 75
5, 10675, Note_off_c, 3, 50, 64
5, 10800, Note_on_c, 3, 54, 75
5, 11040, Note_off_c, 3, 54, 64
5, 11040, Note_on_c, 3, 57, 75
5, 11280, Note_off_c, 3, 57, 64
5, 11280, Note_on_c, 3, 54, 75
5, 11520, Note_off_c, 3, 54, 64
5, 11520, Note_on_c, 3, 50, 45
5, 12000, Note_off_c, 3, 50, 64
5, 12000, Note_on_c, 3, 38, 45
5, 12400, Note_off_c, 3, 38, 64
5, 12960, Note_on_c, 3, 57, 45
5, 13360, Note_off_c, 3, 57, 64
5, 13680, Note_on_c, 3, 45, 60
5, 13920, Note_off_c, 3, 45, 64
5, 13920, Note_on_c, 3, 57, 60
5, 14160, Note_off_c, 3, 57, 64
5, 14160, Note_on_c, 3, 55, 60
5, 14400, Note_off_c, 3, 55, 64
5, 14400, Note_on_c, 3, 54, 55
5, 14880, Note_off_c, 3, 54, 64
5, 14880, Note_on_c, 3, 52, 45
5, 15360, Note_off_c, 3, 52, 64
5, 15360, Note_on_c, 3, 50, 45
5, 15840, Note_off_c, 3, 50, 64
5, 15840, Note_on_c, 3, 45, 45
5, 16240, Note_off_c, 3, 45, 64
5, 16560, Note_on_c, 3, 45, 45
5, 16795, Note_off_c, 3, 45, 64
5, 16800, Note_on_c, 3, 57, 50
5, 16920, Note_off_c, 3, 57, 64
5, 16920, Note_on_c, 3, 55, 52
5, 17040, Note_off_c, 3, 55, 64
5, 17040, Note_on_c, 3, 54, 54
5, 17160, Note_off_c, 3, 54, 64
5, 17160, Note_on_c, 3, 52, 57
5, 17280, Note_off_c, 3, 52, 64
5, 17280, Note_on_c, 3, 50, 60
5, 17680, Note_off_c, 3, 50, 64
5, 18720, Note_on_c, 3, 45, 60
5, 19120, Note_off_c, 3, 45, 64
5, 20160, Note_on_c, 3, 47, 60
5, 21600, Note_off_c, 3, 47, 64
5, 21600, Note_on_c, 3, 45, 60
5, 22080, Note_off_c, 3, 45, 64
5, 22080, Note_on_c, 3, 57, 65
5, 22560, Note_off_c, 3, 57, 64
5, 22560, Note_on_c, 3, 55, 70
5, 22960, Note_off_c, 3, 55, 64
5, 23040, Note_on_c, 3, 54, 75
5, 23275, Note_off_c, 3, 54, 64
5, 23280, Note_on_c, 3, 54, 75
5, 23515, Note_off_c, 3, 54, 64
5, 23520, Note_on_c, 3, 54, 75
5, 23755, Note_off_c, 3, 54, 64
5, 23760, Note_on_c, 3, 54, 75
5, 23995, Note_off_c, 3, 54, 64
5, 24000, Note_on_c, 3, 54, 75
5, 24235, Note_off_c, 3, 54, 64
5, 24240, Note_on_c, 3, 54, 75
5, 24480, Note_off_c, 3, 54, 64
5, 24480, Note_on_c, 3, 55, 75
5, 24715, Note_off_c, 3, 55, 64
5, 24720, Note_on_c, 3, 55, 75
5, 24955, Note_off_c, 3, 55, 64
5, 24960, Note_on_c, 3, 55, 75
5, 25195, Note_off_c, 3, 55, 64
5, 25200, Note_on_c, 3, 55, 75
5, 25435, Note_off_c, 3, 55, 64
5, 25440, Note_on_c, 3, 55, 75
5, 25675, Note_off_c, 3, 55, 64
5, 25680, Note_on_c, 3, 55, 75
5, 25920, Note_off_c, 3, 55, 64
5, 25920, Note_on_c, 3, 57, 75
5, 26155, Note_off_c, 3, 57, 64
5, 26160, Note_on_c, 3, 57, 75
5, 26635, Note_off_c, 3, 57, 64
5, 26640, Note_on_c, 3, 57, 75
5, 26875, Note_off_c, 3, 57, 64
5, 26880, Note_on_c, 3, 45, 75
5, 27115, Note_off_c, 3, 45, 64
5, 27120, Note_on_c, 3, 45, 70
5, 27360, Note_off_c, 3, 45, 64
5, 27360, Note_on_c, 3, 47, 65
5, 28000, Note_off_c, 3, 47, 64
5, 28080, Note_on_c, 3, 47, 48
5, 28320, Note_off_c, 3, 47, 64
5, 28320, Note_on_c, 3, 45, 42
5, 28560, Note_off_c, 3, 45, 64
5, 28560, Note_on_c, 3, 43, 36
5, 28795, Note_off_c, 3, 43, 64
5, 28800, Note_on_c, 3, 42, 30
5, 29200, Note_off_c, 3, 42, 64
5, 30240, Note_on_c, 3, 43, 45
5, 30640, Note_off_c, 3, 43, 64
5, 31200, Note_on_c, 3, 49, 45
5, 31680, Note_off_c, 3, 49, 64
5, 31680, Note_on_c, 3, 50, 45
5, 32080, Note_off_c, 3, 50, 64
5, 33120, Note_on_c, 3, 55, 92
5, 33355, Note_off_c, 3, 55, 64
5, 33360, Note_on_c, 3, 55, 92
5, 33595, Note_off_c, 3, 55, 64
5, 33600, Note_on_c, 3, 57, 92
5, 33835, Note_off_c, 3, 57, 64
5, 33840, Note_on_c, 3, 57, 77
5, 34075, Note_off_c, 3, 57, 64
5, 34080, Note_on_c, 3, 45, 62
5, 34315, Note_off_c, 3, 45, 64
5, 34320, Note_on_c, 3, 45, 46
5, 34555, Note_off_c, 3, 45, 64
5, 34560, Note_on_c, 3, 42, 30
5, 34960, Note_off_c, 3, 42, 64
5, 36000, Note_on_c, 3, 43, 45
5, 36400, Note_off_c, 3, 43, 64
5, 36960, Note_on_c, 3, 49, 45
5, 37440, Note_off_c, 3, 49, 64
5, 37440, Note_on_c, 3, 50, 45
5, 37840, Note_off_c, 3, 50, 64
5, 38880, Note_on_c, 3, 55, 75
5, 39115, Note_off_c, 3, 55, 64
5, 39120, Note_on_c, 3, 55, 75
5, 39355, Note_off_c, 3, 55, 64
5, 39360, Note_on_c, 3, 57, 75
5, 39595, Note_off_c, 3, 57, 64
5, 39600, Note_on_c, 3, 57, 75
5, 39835, Note_off_c, 3, 57, 64
5, 39840, Note_on_c, 3, 45, 75
5, 40075, Note_off_c, 3, 45, 64
5, 40080, Note_on_c, 3, 45, 75
5, 40315, Note_off_c, 3, 45, 64
5, 40320, Note_on_c, 3, 50, 92
5, 40720, Note_off_c, 3, 50, 64
5, 40800, Note_on_c, 3, 38, 92
5, 41280, Note_off_c, 3, 38, 64
5, 41280, Note_on_c, 3, 45, 84
5, 41760, Note_off_c, 3, 45, 64
5, 41760, Note_on_c, 3, 50, 75
5, 42160, Note_off_c, 3, 50, 64
5, 42240, Note_on_c, 3, 42, 75
5, 42720, Note_off_c, 3, 42, 64
5, 42720, Note_on_c, 3, 45, 60
5, 43200, Note_off_c, 3, 45, 64
5, 43200, Note_on_c, 3, 38, 45
5, 44520, Note_off_c, 3, 38, 64
5, 44760, Note_on_c, 3, 50, 45
5, 45160, Note_off_c, 3, 50, 64
5, 45240, Note_on_c, 3, 50, 45
5, 45640, Note_off_c, 3, 50, 64
5, 45720, Note_on_c, 3, 50, 45
5, 46120, Note_off_c, 3, 50, 64
5, 46200, Note_on_c, 3, 48, 45
5, 46600, Note_off_c, 3, 48, 64
5, 46680, Note_on_c, 3, 48, 45
5, 47080, Note_off_c, 3, 48, 64
5, 47160, Note_on_c, 3, 48, 45
5, 47560, Note_off_c, 3, 48, 64
5, 47640, Note_on_c, 3, 47, 45
5, 48040, Note_off_c, 3, 47, 64
5, 48120, Note_on_c, 3, 47, 45
5, 48520, Note_off_c, 3, 47, 64
5, 48600, Note_on_c, 3, 47, 45
5, 49000, Note_off_c, 3, 47, 64
5, 49080, Note_on_c, 3, 45, 45
5, 49480, Note_off_c, 3, 45, 64
5, 49560, Note_on_c, 3, 45, 45
5, 49960, Note_off_c, 3, 45, 64
5, 50040, Note_on_c, 3, 38, 45
5, 50440, Note_off_c, 3, 38, 64
5, 50520, Note_on_c, 3, 43, 45
5, 50920, Note_off_c, 3, 43, 64
5, 51000, Note_on_c, 3, 43, 48
5, 51400, Note_off_c, 3, 43, 64
5, 51480, Note_on_c, 3, 47, 52
5, 51880, Note_off_c, 3, 47, 64
5, 51960, Note_on_c, 3, 48, 56
5, 52360, Note_off_c, 3, 48, 64
5, 52440, Note_on_c, 3, 48, 60
5, 52840, Note_off_c, 3, 48, 64
5, 52920, Note_on_c, 3, 48, 60
5, 53160, Note_off_c, 3, 48, 64
5, 53160, Note_on_c, 3, 49, 60
5, 53395, Note_off_c, 3, 49, 64
5, 53400, Note_on_c, 3, 50, 60
5, 53800, Note_off_c, 3, 50, 64
5, 54120, Note_on_c, 3, 48, 60
5, 54360, Note_off_c, 3, 48, 64
5, 54360, Note_on_c, 3, 47, 65
5, 54600, Note_off_c, 3, 47, 64
5, 54600, Note_on_c, 3, 45, 70
5, 54835, Note_off_c, 3, 45, 64
5, 54840, Note_on_c, 3, 55, 75
5, 55435, Note_off_c, 3, 55, 64
5, 56280, Note_on_c, 3, 43, 75
5, 56875, Note_off_c, 3, 43, 64
5, 57000, Note_on_c, 3, 43, 75
5, 57240, Note_off_c, 3, 43, 64
5, 57240, Note_on_c, 3, 45, 75
5, 57480, Note_off_c, 3, 45, 64
5, 57480, Note_on_c, 3, 47, 75
5, 57715, Note_off_c, 3, 47, 64
5, 57720, Note_on_c, 3, 48, 75
5, 58200, Note_off_c, 3, 48, 64
5, 58200, Note_on_c, 3, 50, 75
5, 58680, Note_off_c, 3, 50, 64
5, 58680, Note_on_c, 3, 50, 75
5, 59160, Note_off_c, 3, 50, 64
5, 59160, Note_on_c, 3, 55, 75
5, 59560, Note_off_c, 3, 55, 64
5, 59880, Note_on_c, 3, 47, 75
5, 60120, Note_off_c, 3, 47, 64
5, 60120, Note_on_c, 3, 50, 75
5, 60360, Note_off_c, 3, 50, 64
5, 60360, Note_on_c, 3, 47, 75
5, 60595, Note_off_c, 3, 47, 64
5, 60600, Note_on_c, 3, 43, 75
5, 61195, Note_off_c, 3, 43, 64
5, 62040, Note_on_c, 3, 43, 75
5, 62635, Note_off_c, 3, 43, 64
5, 62760, Note_on_c, 3, 43, 75
5, 63000, Note_off_c, 3, 43, 64
5, 63000, Note_on_c, 3, 45, 75
5, 63240, Note_off_c, 3, 45, 64
5, 63240, Note_on_c, 3, 47, 75
5, 63475, Note_off_c, 3, 47, 64
5, 63480, Note_on_c, 3, 48, 75
5, 63715, Note_off_c, 3, 48, 64
5, 63720, Note_on_c, 3, 48, 75
5, 64195, Note_off_c, 3, 48, 64
5, 64200, Note_on_c, 3, 48, 75
5, 64675, Note_off_c, 3, 48, 64
5, 64680, Note_on_c, 3, 49, 75
5, 64920, Note_off_c, 3, 49, 64
5, 64920, Note_on_c, 3, 50, 75
5, 65320, Note_off_c, 3, 50, 64
5, 65400, Note_on_c, 3, 38, 65
5, 65635, Note_off_c, 3, 38, 64
5, 65640, Note_on_c, 3, 60, 60
5, 65880, Note_off_c, 3, 60, 64
5, 65880, Note_on_c, 3, 59, 55
5, 66120, Note_off_c, 3, 59, 64
5, 66120, Note_on_c, 3, 57, 50
5, 66355, Note_off_c, 3, 57, 64
5, 66360, Note_on_c, 3, 55, 45
5, 66760, Note_off_c, 3, 55, 64
5, 66840, Note_on_c, 3, 43, 45
5, 67240, Note_off_c, 3, 43, 64
5, 67800, Note_on_c, 3, 50, 45
5, 68200, Note_off_c, 3, 50, 64
5, 68280, Note_on_c, 3, 38, 45
5, 68520, Note_off_c, 3, 38, 64
5, 68520, Note_on_c, 3, 50, 45
5, 68755, Note_off_c, 3, 50, 64
5, 68760, Note_on_c, 3, 50, 45
5, 69000, Note_off_c, 3, 50, 64
5, 69000, Note_on_c, 3, 48, 45
5, 69240, Note_off_c, 3, 48, 64
5, 69240, Note_on_c, 3, 47, 45
5, 69720, Note_off_c, 3, 47, 64
5, 69720, Note_on_c, 3, 45, 45
5, 70200, Note_off_c, 3, 45, 64
5, 70200, Note_on_c, 3, 43, 45
5, 70680, Note_off_c, 3, 43, 64
5, 70680, Note_on_c, 3, 38, 45
5, 70920, Note_off_c, 3, 38, 64
5, 70920, Note_on_c, 3, 50, 45
5, 71155, Note_off_c, 3, 50, 64
5, 71160, Note_on_c, 3, 50, 45
5, 71400, Note_off_c, 3, 50, 64
5, 71400, Note_on_c, 3, 62, 45
5, 71635, Note_off_c, 3, 62, 64
5, 71640, Note_on_c, 3, 62, 45
5, 71760, Note_off_c, 3, 62, 64
5, 71760, Note_on_c, 3, 60, 45
5, 71880, Note_off_c, 3, 60, 64
5, 71880, Note_on_c, 3, 59, 45
5, 72000, Note_off_c, 3, 59, 64
5, 72000, Note_on_c, 3, 57, 45
5, 72120, Note_off_c, 3, 57, 64
5, 72120, Note_on_c, 3, 55, 45
5, 72520, Note_off_c, 3, 55, 64
5, 73560, Note_on_c, 3, 50, 45
5, 73960, Note_off_c, 3, 50, 64
5, 75000, Note_on_c, 3, 52, 45
5, 76320, Note_off_c, 3, 52, 64
5, 76440, Note_on_c, 3, 50, 45
5, 76675, Note_off_c, 3, 50, 64
5, 76680, Note_on_c, 3, 50, 45
5, 76915, Note_off_c, 3, 50, 64
5, 76920, Note_on_c, 3, 50, 45
5, 77155, Note_off_c, 3, 50, 64
5, 77160, Note_on_c, 3, 50, 45
5, 77395, Note_off_c, 3, 50, 64
5, 77400, Note_on_c, 3, 48, 45
5, 77635, Note_off_c, 3, 48, 64
5, 77640, Note_on_c, 3, 48, 45
5, 77875, Note_off_c, 3, 48, 64
5, 77880, Note_on_c, 3, 47, 45
5, 78115, Note_off_c, 3, 47, 64
5, 78120, Note_on_c, 3, 47, 45
5, 78355, Note_off_c, 3, 47, 64
5, 78360, Note_on_c, 3, 47, 45
5, 78595, Note_off_c, 3, 47, 64
5, 78600, Note_on_c, 3, 47, 45
5, 78835, Note_off_c, 3, 47, 64
5, 78840, Note_on_c, 3, 47, 45
5, 79075, Note_off_c, 3, 47, 64
5, 79080, Note_on_c, 3, 47, 45
5, 79315, Note_off_c, 3, 47, 64
5, 79320, Note_on_c, 3, 48, 45
5, 79555, Note_off_c, 3, 48, 64
5, 79560, Note_on_c, 3, 48, 47
5, 79795, Note_off_c, 3, 48, 64
5, 79800, Note_on_c, 3, 48, 49
5, 80035, Note_off_c, 3, 48, 64
5, 80040, Note_on_c, 3, 48, 51
5, 80275, Note_off_c, 3, 48, 64
5, 80280, Note_on_c, 3, 48, 54
5, 80515, Note_off_c, 3, 48, 64
5, 80520, Note_on_c, 3, 48, 57
5, 80755, Note_off_c, 3, 48, 64
5, 80760, Note_on_c, 3, 50, 60
5, 80995, Note_off_c, 3, 50, 64
5, 81000, Note_on_c, 3, 50, 63
5, 81235, Note_off_c, 3, 50, 64
5, 81240, Note_on_c, 3, 50, 66
5, 81475, Note_off_c, 3, 50, 64
5, 81480, Note_on_c, 3, 50, 69
5, 81715, Note_off_c, 3, 50, 64
5, 81720, Note_on_c, 3, 50, 72
5, 81955, Note_off_c, 3, 50, 64
5, 81960, Note_on_c, 3, 50, 75
5, 82195, Note_off_c, 3, 50, 64
5, 82200, Note_on_c, 3, 52, 75
5, 82435, Note_off_c, 3, 52, 64
5, 82440, Note_on_c, 3, 52, 70
5, 82675, Note_off_c, 3, 52, 64
5, 82680, Note_on_c, 3, 52, 65
5, 82915, Note_off_c, 3, 52, 64
5, 82920, Note_on_c, 3, 52, 60
5, 83160, Note_off_c, 3, 52, 64
5, 83160, Note_on_c, 3, 50, 55
5, 83400, Note_off_c, 3, 50, 64
5, 83400, Note_on_c, 3, 48, 50
5, 83635, Note_off_c, 3, 48, 64
5, 83640, Note_on_c, 3, 47, 45
5, 84040, Note_off_c, 3, 47, 64
5, 85080, Note_on_c, 3, 48, 45
5, 85480, Note_off_c, 3, 48, 64
5, 86040, Note_on_c, 3, 54, 45
5, 86440, Note_off_c, 3, 54, 64
5, 86520, Note_on_c, 3, 55, 45
5, 86920, Note_off_c, 3, 55, 64
5, 87960, Note_on_c, 3, 48, 75
5, 88195, Note_off_c, 3, 48, 64
5, 88200, Note_on_c, 3, 48, 75
5, 88435, Note_off_c, 3, 48, 64
5, 88440, Note_on_c, 3, 50, 75
5, 88675, Note_off_c, 3, 50, 64
5, 88680, Note_on_c, 3, 50, 68
5, 88915, Note_off_c, 3, 50, 64
5, 88920, Note_on_c, 3, 50, 61
5, 89155, Note_off_c, 3, 50, 64
5, 89160, Note_on_c, 3, 50, 53
5, 89395, Note_off_c, 3, 50, 64
5, 89400, Note_on_c, 3, 47, 45
5, 89800, Note_off_c, 3, 47, 64
5, 90840, Note_on_c, 3, 48, 45
5, 91240, Note_off_c, 3, 48, 64
5, 91800, Note_on_c, 3, 54, 45
5, 92200, Note_off_c, 3, 54, 64
5, 92280, Note_on_c, 3, 55, 45
5, 92680, Note_off_c, 3, 55, 64
5, 93720, Note_on_c, 3, 48, 60
5, 93955, Note_off_c, 3, 48, 64
5, 93960, Note_on_c, 3, 48, 60
5, 94195, Note_off_c, 3, 48, 64
5, 94200, Note_on_c, 3, 50, 60
5, 94435, Note_off_c, 3, 50, 64
5, 94440, Note_on_c, 3, 50, 63
5, 94675, Note_off_c, 3, 50, 64
5, 94680, Note_on_c, 3, 50, 67
5, 94915, Note_off_c, 3, 50, 64
5, 94920, Note_on_c, 3, 50, 71
5, 95155, Note_off_c, 3, 50, 64
5, 95160, Note_on_c, 3, 55, 75
5, 95880, Note_off_c, 3, 55, 64
5, 95880, Note_on_c, 3, 59, 75
5, 96120, Note_off_c, 3, 59, 64
5, 96120, Note_on_c, 3, 62, 70
5, 96520, Note_off_c, 3, 62, 64
5, 96600, Note_on_c, 3, 55, 60
5, 97080, Note_off_c, 3, 55, 64
5, 97080, Note_on_c, 3, 47, 60
5, 97560, Note_off_c, 3, 47, 64
5, 97560, Note_on_c, 3, 50, 60
5, 98040, Note_off_c, 3, 50, 64
5, 98040, Note_on_c, 3, 43, 45
5, 99360, Note_off_c, 3, 43, 64
5, 99360, End_track
6, 0, Start_track
6, 0, MIDI_port, 0
6, 0, Channel_prefix, 4
6, 0, Control_c, 4, 7, 127
6, 0, Control_c, 4, 10, 127
6, 0, Control_c, 4, 91, 49
6, 0, Program_c, 4, 50
6, 0, Note_on_c, 4, 43, 75
6, 595, Note_off_c, 4, 43, 64
6, 1440, Note_on_c, 4, 31, 75
6, 2035, Note_off_c, 4, 31, 64
6, 2160, Note_on_c, 4, 31, 75
6, 2400, Note_off_c, 4, 31, 64
6, 2400, Note_on_c, 4, 33, 75
6, 2640, Note_off_c, 4, 33, 64
6, 2640, Note_on_c, 4, 35, 75
6, 2880, Note_off_c, 4, 35, 64
6, 2880, Note_on_c, 4, 36, 75
6, 3360, Note_off_c, 4, 36, 64
6, 3360, Note_on_c, 4, 38, 75
6, 3840, Note_off_c, 4, 38, 64
6, 3840, Note_on_c, 4, 38, 75
6, 4320, Note_off_c, 4, 38, 64
6, 4320, Note_on_c, 4, 43, 75
6, 4720, Note_off_c, 4, 43, 64
6, 5040, Note_on_c, 4, 35, 75
6, 5280, Note_off_c, 4, 35, 64
6, 5280, Note_on_c, 4, 38, 75
6, 5520, Note_off_c, 4, 38, 64
6, 5520, Note_on_c, 4, 35, 75
6, 5760, Note_off_c, 4, 35, 64
6, 5760, Note_on_c, 4, 31, 75
6, 6355, Note_off_c, 4, 31, 64
6, 7200, Note_on_c, 4, 31, 75
6, 7795, Note_off_c, 4, 31, 64
6, 7920, Note_on_c, 4, 31, 75
6, 8160, Note_off_c, 4, 31, 64
6, 8160, Note_on_c, 4, 33, 75
6, 8400, Note_off_c, 4, 33, 64
6, 8400, Note_on_c, 4, 35, 75
6, 8635, Note_off_c, 4, 35, 64
6, 8640, Note_on_c, 4, 36, 75
6, 8875, Note_off_c, 4, 36, 64
6, 8880, Note_on_c, 4, 36, 75
6, 9355, Note_off_c, 4, 36, 64
6, 9360, Note_on_c, 4, 36, 75
6, 9835, Note_off_c, 4, 36, 64
6, 9840, Note_on_c, 4, 37, 75
6, 10080, Note_off_c, 4, 37, 64
6, 10080, Note_on_c, 4, 38, 75
6, 10675, Note_off_c, 4, 38, 64
6, 10800, Note_on_c, 4, 42, 75
6, 11040, Note_off_c, 4, 42, 64
6, 11040, Note_on_c, 4, 45, 75
6, 11280, Note_off_c, 4, 45, 64
6, 11280, Note_on_c, 4, 42, 75
6, 11520, Note_off_c, 4, 42, 64
6, 11520, Note_on_c, 4, 38, 45
6, 12000, Note_off_c, 4, 38, 64
6, 12000, Note_on_c, 4, 26, 45
6, 12400, Note_off_c, 4, 26, 64
6, 12960, Note_on_c, 4, 45, 45
6, 13360, Note_off_c, 4, 45, 64
6, 13680, Note_on_c, 4, 33, 60
6, 13920, Note_off_c, 4, 33, 64
6, 13920, Note_on_c, 4, 45, 60
6, 14160, Note_off_c, 4, 45, 64
6, 14160, Note_on_c, 4, 43, 60
6, 14400, Note_off_c, 4, 43, 64
6, 14400, Note_on_c, 4, 42, 55
6, 14880, Note_off_c, 4, 42, 64
6, 14880, Note_on_c, 4, 40, 45
6, 15360, Note_off_c, 4, 40, 64
6, 15360, Note_on_c, 4, 38, 45
6, 15840, Note_off_c, 4, 38, 64
6, 15840, Note_on_c, 4, 33, 45
6, 16240, Note_off_c, 4, 33, 64
6, 16560, Note_on_c, 4, 33, 45
6, 16795, Note_off_c, 4, 33, 64
6, 16800, Note_on_c, 4, 45, 50
6, 16920, Note_off_c, 4, 45, 64
6, 16920, Note_on_c, 4, 43, 52
6, 17040, Note_off_c, 4, 43, 64
6, 17040, Note_on_c, 4, 42, 54
6, 17160, Note_off_c, 4, 42, 64
6, 17160, Note_on_c, 4, 40, 57
6, 17280, Note_off_c, 4, 40, 64
6, 17280, Note_on_c, 4, 38, 60
6, 17680, Note_off_c, 4, 38, 64
6, 18720, Note_on_c, 4, 33, 60
6, 19120, Note_off_c, 4, 33, 64
6, 20160, Note_on_c, 4, 35, 60
6, 21600, Note_off_c, 4, 35, 64
6, 21600, Note_on_c, 4, 33, 60
6, 22080, Note_off_c, 4, 33, 64
6, 22080, Note_on_c, 4, 45, 65
6, 22560, Note_off_c, 4, 45, 64
6, 22560, Note_on_c, 4, 43, 70
6, 22960, Note_off_c, 4, 43, 64
6, 23040, Note_on_c, 4, 42, 75
6, 23275, Note_off_c, 4, 42, 64
6, 23280, Note_on_c, 4, 42, 75
6, 23515, Note_off_c, 4, 42, 64
6, 23520, Note_on_c, 4, 42, 75
6, 23755, Note_off_c, 4, 42, 64
6, 23760, Note_on_c, 4, 42, 75
6, 23995, Note_off_c, 4, 42, 64
6, 24000, Note_on_c, 4, 42, 75
6, 24235, Note_off_c, 4, 42, 64
6, 24240, Note_on_c, 4, 42, 75
6, 24480, Note_off_c, 4, 42, 64
6, 24480, Note_on_c, 4, 43, 75
6, 24715, Note_off_c, 4, 43, 64
6, 24720, Note_on_c, 4, 43, 75
6, 24955, Note_off_c, 4, 43, 64
6, 24960, Note_on_c, 4, 43, 75
6, 25195, Note_off_c, 4, 43, 64
6, 25200, Note_on_c, 4, 43, 75
6, 25435, Note_off_c, 4, 43, 64
6, 25440, Note_on_c, 4, 43, 75
6, 25675, Note_off_c, 4, 43, 64
6, 25680, Note_on_c, 4, 43, 75
6, 25920, Note_off_c, 4, 43, 64
6, 25920, Note_on_c, 4, 45, 75
6, 26155, Note_off_c, 4, 45, 64
6, 26160, Note_on_c, 4, 45, 75
6, 26635, Note_off_c, 4, 45, 64
6, 26640, Note_on_c, 4, 45, 75
6, 26875, Note_off_c, 4, 45, 64
6, 26880, Note_on_c, 4, 33, 75
6, 27115, Note_off_c, 4, 33, 64
6, 27120, Note_on_c, 4, 33, 70
6, 27360, Note_off_c, 4, 33, 64
6, 27360, Note_on_c, 4, 35, 65
6, 28000, Note_off_c, 4, 35, 64
6, 28080, Note_on_c, 4, 35, 48
6, 28320, Note_off_c, 4, 35, 64
6, 28320, Note_on_c, 4, 33, 42
6, 28560, Note_off_c, 4, 33, 64
6, 28560, Note_on_c, 4, 31, 36
6, 28795, Note_off_c, 4, 31, 64
6, 28800, Note_on_c, 4, 30, 30
6, 29200, Note_off_c, 4, 30, 64
6, 30240, Note_on_c, 4, 31, 45
6, 30640, Note_off_c, 4, 31, 64
6, 31200, Note_on_c, 4, 37, 45
6, 31680, Note_off_c, 4, 37, 64
6, 31680, Note_on_c, 4, 38, 45
6, 32080, Note_off_c, 4, 38, 64
6, 33120, Note_on_c, 4, 43, 92
6, 33355, Note_off_c, 4, 43, 64
6, 33360, Note_on_c, 4, 43, 92
6, 33595, Note_off_c, 4, 43, 64
6, 33600, Note_on_c, 4, 45, 92
6, 33835, Note_off_c, 4, 45, 64
6, 33840, Note_on_c, 4, 45, 77
6, 34075, Note_off_c, 4, 45, 64
6, 34080, Note_on_c, 4, 33, 62
6, 34315, Note_off_c, 4, 33, 64
6, 34320, Note_on_c, 4, 33, 46
6, 34555, Note_off_c, 4, 33, 64
6, 34560, Note_on_c, 4, 30, 30
6, 34960, Note_off_c, 4, 30, 64
6, 36000, Note_on_c, 4, 31, 45
6, 36400, Note_off_c, 4, 31, 64
6, 36960, Note_on_c, 4, 37, 45
6, 37440, Note_off_c, 4, 37, 64
6, 37440, Note_on_c, 4, 38, 45
6, 37840, Note_off_c, 4, 38, 64
6, 38880, Note_on_c, 4, 43, 75
6, 39115, Note_off_c, 4, 43, 64
6, 39120, Note_on_c, 4, 43, 75
6, 39355, Note_off_c, 4, 43, 64
6, 39360, Note_on_c, 4, 45, 75
6, 39595, Note_off_c, 4, 45, 64
6, 39600, Note_on_c, 4, 45, 75
6, 39835, Note_off_c, 4, 45, 64
6, 39840, Note_on_c, 4, 33, 75
6, 40075, Note_off_c, 4, 33, 64
6, 40080, Note_on_c, 4, 33, 75
6, 40315, Note_off_c, 4, 33, 64
6, 40320, Note_on_c, 4, 38, 92
6, 40720, Note_off_c, 4, 38, 64
6, 40800, Note_on_c, 4, 26, 92
6, 41280, Note_off_c, 4, 26, 64
6, 41280, Note_on_c, 4, 33, 84
6, 41760, Note_off_c, 4, 33, 64
6, 41760, Note_on_c, 4, 38, 75
6, 42160, Note_off_c, 4, 38, 64
6, 42240, Note_on_c, 4, 30, 75
6, 42720, Note_off_c, 4, 30, 64
6, 42720, Note_on_c, 4, 33, 60
6, 43200, Note_off_c, 4, 33, 64
6, 43200, Note_on_c, 4, 26, 45
6, 44520, Note_off_c, 4, 26, 64
6, 44760, Note_on_c, 4, 38, 45
6, 45160, Note_off_c, 4, 38, 64
6, 45240, Note_on_c, 4, 38, 45
6, 45640, Note_off_c, 4, 38, 64
6, 45720, Note_on_c, 4, 38, 45
6, 46120, Note_off_c, 4, 38, 64
6, 46200, Note_on_c, 4, 36, 45
6, 46600, Note_off_c, 4, 36, 64
6, 46680, Note_on_c, 4, 36, 45
6, 47080, Note_off_c, 4, 36, 64
6, 47160, Note_on_c, 4, 36, 45
6, 47560, Note_off_c, 4, 36, 64
6, 47640, Note_on_c, 4, 35, 45
6, 48040, Note_off_c, 4, 35, 64
6, 48120, Note_on_c, 4, 35, 45
6, 48520, Note_off_c, 4, 35, 64
6, 48600, Note_on_c, 4, 35, 45
6, 49000, Note_off_c, 4, 35, 64
6, 49080, Note_on_c, 4, 33, 45
6, 49480, Note_off_c, 4, 33, 64
6, 49560, Note_on_c, 4, 33, 45
6, 49960, Note_off_c, 4, 33, 64
6, 50040, Note_on_c, 4, 26, 45
6, 50440, Note_off_c, 4, 26, 64
6, 50520, Note_on_c, 4, 31, 45
6, 50920, Note_off_c, 4, 31, 64
6, 51000, Note_on_c, 4, 31, 48
6, 51400, Note_off_c, 4, 31, 64
6, 51480, Note_on_c, 4, 35, 52
6, 51880, Note_off_c, 4, 35, 64
6, 51960, Note_on_c, 4, 36, 56
6, 52360, Note_off_c, 4, 36, 64
6, 52440, Note_on_c, 4, 36, 60
6, 52840, Note_off_c, 4, 36, 64
6, 52920, Note_on_c, 4, 36, 60
6, 53160, Note_off_c, 4, 36, 64
6, 53160, Note_on_c, 4, 37, 60
6, 53395, Note_off_c, 4, 37, 64
6, 53400, Note_on_c, 4, 38, 60
6, 53800, Note_off_c, 4, 38, 64
6, 54120, Note_on_c, 4, 36, 60
6, 54360, Note_off_c, 4, 36, 64
6, 54360, Note_on_c, 4, 35, 65
6, 54600, Note_off_c, 4, 35, 64
6, 54600, Note_on_c, 4, 33, 70
6, 54835, Note_off_c, 4, 33, 64
6, 54840, Note_on_c, 4, 43, 75
6, 55435, Note_off_c, 4, 43, 64
6, 56280, Note_on_c, 4, 31, 75
6, 56875, Note_off_c, 4, 31, 64
6, 57000, Note_on_c, 4, 31, 75
6, 57240, Note_off_c, 4, 31, 64
6, 57240, Note_on_c, 4, 33, 75
6, 57480, Note_off_c, 4, 33, 64
6, 57480, Note_on_c, 4, 35, 75
6, 57715, Note_off_c, 4, 35, 64
6, 57720, Note_on_c, 4, 36, 75
6, 58200, Note_off_c, 4, 36, 64
6, 58200, Note_on_c, 4, 38, 75
6, 58680, Note_off_c, 4, 38, 64
6, 58680, Note_on_c, 4, 38, 75
6, 59160, Note_off_c, 4, 38, 64
6, 59160, Note_on_c, 4, 43, 75
6, 59560, Note_off_c, 4, 43, 64
6, 59880, Note_on_c, 4, 35, 75
6, 60120, Note_off_c, 4, 35, 64
6, 60120, Note_on_c, 4, 38, 75
6, 60360, Note_off_c, 4, 38, 64
6, 60360, Note_on_c, 4, 35, 75
6, 60595, Note_off_c, 4, 35, 64
6, 60600, Note_on_c, 4, 31, 75
6, 61195, Note_off_c, 4, 31, 64
6, 62040, Note_on_c, 4, 31, 75
6, 62635, Note_off_c, 4, 31, 64
6, 62760, Note_on_c, 4, 31, 75
6, 63000, Note_off_c, 4, 31, 64
6, 63000, Note_on_c, 4, 33, 75
6, 63240, Note_off_c, 4, 33, 64
6, 63240, Note_on_c, 4, 35, 75
6, 63475, Note_off_c, 4, 35, 64
6, 63480, Note_on_c, 4, 36, 75
6, 63715, Note_off_c, 4, 36, 64
6, 63720, Note_on_c, 4, 36, 75
6, 64195, Note_off_c, 4, 36, 64
6, 64200, Note_on_c, 4, 36, 75
6, 64675, Note_off_c, 4, 36, 64
6, 64680, Note_on_c, 4, 37, 75
6, 64920, Note_off_c, 4, 37, 64
6, 64920, Note_on_c, 4, 38, 75
6, 65320, Note_off_c, 4, 38, 64
6, 65400, Note_on_c, 4, 26, 65
6, 65635, Note_off_c, 4, 26, 64
6, 65640, Note_on_c, 4, 48, 60
6, 65880, Note_off_c, 4, 48, 64
6, 65880, Note_on_c, 4, 47, 55
6, 66120, Note_off_c, 4, 47, 64
6, 66120, Note_on_c, 4, 45, 50
6, 66355, Note_off_c, 4, 45, 64
6, 66360, Note_on_c, 4, 43, 45
6, 66760, Note_off_c, 4, 43, 64
6, 66840, Note_on_c, 4, 31, 45
6, 67240, Note_off_c, 4, 31, 64
6, 67800, Note_on_c, 4, 38, 45
6, 68200, Note_off_c, 4, 38, 64
6, 68280, Note_on_c, 4, 26, 45
6, 68520, Note_off_c, 4, 26, 64
6, 68520, Note_on_c, 4, 38, 45
6, 68755, Note_off_c, 4, 38, 64
6, 68760, Note_on_c, 4, 38, 45
6, 69000, Note_off_c, 4, 38, 64
6, 69000, Note_on_c, 4, 36, 45
6, 69240, Note_off_c, 4, 36, 64
6, 69240, Note_on_c, 4, 35, 45
6, 69720, Note_off_c, 4, 35, 64
6, 69720, Note_on_c, 4, 33, 45
6, 70200, Note_off_c, 4, 33, 64
6, 70200, Note_on_c, 4, 31, 45
6, 70680, Note_off_c, 4, 31, 64
6, 70680, Note_on_c, 4, 26, 45
6, 70920, Note_off_c, 4, 26, 64
6, 70920, Note_on_c, 4, 38, 45
6, 71155, Note_off_c, 4, 38, 64
6, 71160, Note_on_c, 4, 38, 45
6, 71400, Note_off_c, 4, 38, 64
6, 71400, Note_on_c, 4, 50, 45
6, 71635, Note_off_c, 4, 50, 64
6, 71640, Note_on_c, 4, 50, 45
6, 71760, Note_off_c, 4, 50, 64
6, 71760, Note_on_c, 4, 48, 45
6, 71880, Note_off_c, 4, 48, 64
6, 71880, Note_on_c, 4, 47, 45
6, 72000, Note_off_c, 4, 47, 64
6, 72000, Note_on_c, 4, 45, 45
6, 72120, Note_off_c, 4, 45, 64
6, 72120, Note_on_c, 4, 43, 45
6, 72520, Note_off_c, 4, 43, 64
6, 73560, Note_on_c, 4, 38, 45
6, 73960, Note_off_c, 4, 38, 64
6, 75000, Note_on_c, 4, 40, 45
6, 76320, Note_off_c, 4, 40, 64
6, 76440, Note_on_c, 4, 38, 45
6, 76675, Note_off_c, 4, 38, 64
6, 76680, Note_on_c, 4, 38, 45
6, 76915, Note_off_c, 4, 38, 64
6, 76920, Note_on_c, 4, 38, 45
6, 77155, Note_off_c, 4, 38, 64
6, 77160, Note_on_c, 4, 38, 45
6, 77395, Note_off_c, 4, 38, 64
6, 77400, Note_on_c, 4, 36, 45
6, 77635, Note_off_c, 4, 36, 64
6, 77640, Note_on_c, 4, 36, 45
6, 77875, Note_off_c, 4, 36, 64
6, 77880, Note_on_c, 4, 35, 45
6, 78115, Note_off_c, 4, 35, 64
6, 78120, Note_on_c, 4, 35, 45
6, 78355, Note_off_c, 4, 35, 64
6, 78360, Note_on_c, 4, 35, 45
6, 78595, Note_off_c, 4, 35, 64
6, 78600, Note_on_c, 4, 35, 45
6, 78835, Note_off_c, 4, 35, 64
6, 78840, Note_on_c, 4, 35, 45
6, 79075, Note_off_c, 4, 35, 64
6, 79080, Note_on_c, 4, 35, 45
6, 79315, Note_off_c, 4, 35, 64
6, 79320, Note_on_c, 4, 36, 45
6, 79555, Note_off_c, 4, 36, 64
6, 79560, Note_on_c, 4, 36, 47
6, 79795, Note_off_c, 4, 36, 64
6, 79800, Note_on_c, 4, 36, 49
6, 80035, Note_off_c, 4, 36, 64
6, 80040, Note_on_c, 4, 36, 51
6, 80275, Note_off_c, 4, 36, 64
6, 80280, Note_on_c, 4, 36, 54
6, 80515, Note_off_c, 4, 36, 64
6, 80520, Note_on_c, 4, 36, 57
6, 80755, Note_off_c, 4, 36, 64
6, 80760, Note_on_c, 4, 38, 60
6, 80995, Note_off_c, 4, 38, 64
6, 81000, Note_on_c, 4, 38, 63
6, 81235, Note_off_c, 4, 38, 64
6, 81240, Note_on_c, 4, 38, 66
6, 81475, Note_off_c, 4, 38, 64
6, 81480, Note_on_c, 4, 38, 69
6, 81715, Note_off_c, 4, 38, 64
6, 81720, Note_on_c, 4, 38, 72
6, 81955, Note_off_c, 4, 38, 64
6, 81960, Note_on_c, 4, 38, 75
6, 82195, Note_off_c, 4, 38, 64
6, 82200, Note_on_c, 4, 40, 75
6, 82435, Note_off_c, 4, 40, 64
6, 82440, Note_on_c, 4, 40, 70
6, 82675, Note_off_c, 4, 40, 64
6, 82680, Note_on_c, 4, 40, 65
6, 82915, Note_off_c, 4, 40, 64
6, 82920, Note_on_c, 4, 40, 60
6, 83160, Note_off_c, 4, 40, 64
6, 83160, Note_on_c, 4, 38, 55
6, 83400, Note_off_c, 4, 38, 64
6, 83400, Note_on_c, 4, 36, 50
6, 83635, Note_off_c, 4, 36, 64
6, 83640, Note_on_c, 4, 35, 45
6, 84040, Note_off_c, 4, 35, 64
6, 85080, Note_on_c, 4, 36, 45
6, 85480, Note_off_c, 4, 36, 64
6, 86040, Note_on_c, 4, 42, 45
6, 86440, Note_off_c, 4, 42, 64
6, 86520, Note_on_c, 4, 43, 45
6, 86920, Note_off_c, 4, 43, 64
6, 87960, Note_on_c, 4, 36, 75
6, 88195, Note_off_c, 4, 36, 64
6, 88200, Note_on_c, 4, 36, 75
6, 88435, Note_off_c, 4, 36, 64
6, 88440, Note_on_c, 4, 38, 75
6, 88675, Note_off_c, 4, 38, 64
6, 88680, Note_on_c, 4, 38, 68
6, 88915, Note_off_c, 4, 38, 64
6, 88920, Note_on_c, 4, 38, 61
6, 89155, Note_off_c, 4, 38, 64
6, 89160, Note_on_c, 4, 38, 53
6, 89395, Note_off_c, 4, 38, 64
6, 89400, Note_on_c, 4, 35, 45
6, 89800, Note_off_c, 4, 35, 64
6, 90840, Note_on_c, 4, 36, 45
6, 91240, Note_off_c, 4, 36, 64
6, 91800, Note_on_c, 4, 42, 45
6, 92200, Note_off_c, 4, 42, 64
6, 92280, Note_on_c, 4, 43, 45
6, 92680, Note_off_c, 4, 43, 64
6, 93720, Note_on_c, 4, 36, 60
6, 93955, Note_off_c, 4, 36, 64
6, 93960, Note_on_c, 4, 36, 60
6, 94195, Note_off_c, 4, 36, 64
6, 94200, Note_on_c, 4, 38, 60
6, 94435, Note_off_c, 4, 38, 64
6, 94440, Note_on_c, 4, 38, 63
6, 94675, Note_off_c, 4, 38, 64
6, 94680, Note_on_c, 4, 38, 67
6, 94915, Note_off_c, 4, 38, 64
6, 94920, Note_on_c, 4, 38, 71
6, 95155, Note_off_c, 4, 38, 64
6, 95160, Note_on_c, 4, 43, 75
6, 95880, Note_off_c, 4, 43, 64
6, 95880, Note_on_c, 4, 47, 75
6, 96120, Note_off_c, 4, 47, 64
6, 96120, Note_on_c, 4, 50, 70
6, 96520, Note_off_c, 4, 50, 64
6, 96600, Note_on_c, 4, 43, 60
6, 97080, Note_off_c, 4, 43, 64
6, 97080, Note_on_c, 4, 35, 60
6, 97560, Note_off_c, 4, 35, 64
6, 97560, Note_on_c, 4, 38, 60
6, 98040, Note_off_c, 4, 38, 64
6, 98040, Note_on_c, 4, 31, 45
6, 99360, Note_off_c, 4, 31, 64
6, 99360, End_track
7, 0, Start_track
7, 0, MIDI_port, 0
7, 0, Channel_prefix, 5
7, 0, Control_c, 5, 7, 127
7, 0, Control_c, 5, 10, 1
7, 0, Control_c, 5, 91, 127
7, 0, Program_c, 5, 48
7, 0, Note_on_c, 5, 74, 75
7, 355, Note_off_c, 5, 74, 64
7, 360, Note_on_c, 5, 71, 75
7, 420, Note_off_c, 5, 71, 64
7, 420, Note_on_c, 5, 72, 75
7, 480, Note_off_c, 5, 72, 64
7, 480, Note_on_c, 5, 74, 75
7, 560, Note_off_c, 5, 74, 64
7, 720, Note_on_c, 5, 74, 75
7, 800, Note_off_c, 5, 74, 64
7, 960, Note_on_c, 5, 74, 75
7, 1200, Note_off_c, 5, 74, 64
7, 1200, Note_on_c, 5, 79, 75
7, 1375, Note_off_c, 5, 79, 64
7, 1440, Note_on_c, 5, 74, 75
7, 1795, Note_off_c, 5, 74, 64
7, 1800, Note_on_c, 5, 71, 75
7, 1860, Note_off_c, 5, 71, 64
7, 1860, Note_on_c, 5, 72, 75
7, 1920, Note_off_c, 5, 72, 64
7, 1920, Note_on_c, 5, 74, 75
7, 2320, Note_off_c, 5, 74, 64
7, 2880, Note_on_c, 5, 72, 75
7, 3000, Note_off_c, 5, 72, 64
7, 3000, Note_on_c, 5, 74, 75
7, 3120, Note_off_c, 5, 74, 64
7, 3120, Note_on_c, 5, 76, 75
7, 3240, Note_off_c, 5, 76, 64
7, 3240, Note_on_c, 5, 72, 75
7, 3360, Note_off_c, 5, 72, 64
7, 3360, Note_on_c, 5, 71, 75
7, 3480, Note_off_c, 5, 71, 64
7, 3480, Note_on_c, 5, 72, 75
7, 3600, Note_off_c, 5, 72, 64
7, 3600, Note_on_c, 5, 74, 75
7, 3720, Note_off_c, 5, 74, 64
7, 3720, Note_on_c, 5, 71, 75
7, 3840, Note_off_c, 5, 71, 64
7, 3840, Note_on_c, 5, 69, 75
7, 3960, Note_off_c, 5, 69, 64
7, 3960, Note_on_c, 5, 71, 75
7, 4080, Note_off_c, 5, 71, 64
7, 4080, Note_on_c, 5, 72, 75
7, 4200, Note_off_c, 5, 72, 64
7, 4200, Note_on_c, 5, 69, 75
7, 4320, Note_off_c, 5, 69, 64
7, 4320, Note_on_c, 5, 72, 75
7, 4440, Note_off_c, 5, 72, 64
7, 4440, Note_on_c, 5, 71, 75
7, 4560, Note_off_c, 5, 71, 64
7, 4560, Note_on_c, 5, 69, 75
7, 4680, Note_off_c, 5, 69, 64
7, 4680, Note_on_c, 5, 67, 75
7, 4795, Note_off_c, 5, 67, 64
7, 4800, Note_on_c, 5, 67, 75
7, 5200, Note_off_c, 5, 67, 64
7, 5760, Note_on_c, 5, 74, 75
7, 6115, Note_off_c, 5, 74, 64
7, 6120, Note_on_c, 5, 71, 75
7, 6180, Note_off_c, 5, 71, 64
7, 6180, Note_on_c, 5, 72, 75
7, 6240, Note_off_c, 5, 72, 64
7, 6240, Note_on_c, 5, 74, 75
7, 6320, Note_off_c, 5, 74, 64
7, 6480, Note_on_c, 5, 74, 75
7, 6560, Note_off_c, 5, 74, 64
7, 6720, Note_on_c, 5, 74, 75
7, 6960, Note_off_c, 5, 74, 64
7, 6960, Note_on_c, 5, 79, 75
7, 7135, Note_off_c, 5, 79, 64
7, 7200, Note_on_c, 5, 74, 75
7, 7555, Note_off_c, 5, 74, 64
7, 7560, Note_on_c, 5, 71, 75
7, 7620, Note_off_c, 5, 71, 64
7, 7620, Note_on_c, 5, 72, 75
7, 7680, Note_off_c, 5, 72, 64
7, 7680, Note_on_c, 5, 74, 75
7, 8080, Note_off_c, 5, 74, 64
7, 8400, Note_on_c, 5, 79, 75
7, 8640, Note_off_c, 5, 79, 64
7, 8640, Note_on_c, 5, 78, 75
7, 8875, Note_off_c, 5, 78, 64
7, 8880, Note_on_c, 5, 76, 75
7, 9280, Note_off_c, 5, 76, 64
7, 9360, Note_on_c, 5, 74, 75
7, 9480, Note_off_c, 5, 74, 64
7, 9480, Note_on_c, 5, 72, 75
7, 9600, Note_off_c, 5, 72, 64
7, 9600, Note_on_c, 5, 71, 75
7, 9720, Note_off_c, 5, 71, 64
7, 9720, Note_on_c, 5, 69, 75
7, 9840, Note_off_c, 5, 69, 64
7, 9840, Note_on_c, 5, 69, 75
7, 9960, Note_off_c, 5, 69, 64
7, 9960, Note_on_c, 5, 67, 75
7, 10080, Note_off_c, 5, 67, 64
7, 10080, Note_on_c, 5, 69, 75
7, 10200, Note_off_c, 5, 69, 64
7, 10200, Note_on_c, 5, 67, 68
7, 10320, Note_off_c, 5, 67, 64
7, 10320, Note_on_c, 5, 66, 61
7, 10440, Note_off_c, 5, 66, 64
7, 10440, Note_on_c, 5, 67, 53
7, 10560, Note_off_c, 5, 67, 64
7, 10560, Note_on_c, 5, 66, 45
7, 10960, Note_off_c, 5, 66, 64
7, 11520, Note_on_c, 5, 81, 45
7, 14880, Note_off_c, 5, 81, 64
7, 14880, Note_on_c, 5, 79, 45
7, 15360, Note_off_c, 5, 79, 64
7, 15360, Note_on_c, 5, 78, 45
7, 15840, Note_off_c, 5, 78, 64
7, 15840, Note_on_c, 5, 79, 45
7, 15960, Note_off_c, 5, 79, 64
7, 15960, Note_on_c, 5, 78, 45
7, 16080, Note_off_c, 5, 78, 64
7, 16080, Note_on_c, 5, 76, 45
7, 16200, Note_off_c, 5, 76, 64
7, 16200, Note_on_c, 5, 78, 45
7, 16320, Note_off_c, 5, 78, 64
7, 16320, Note_on_c, 5, 76, 45
7, 16720, Note_off_c, 5, 76, 64
7, 17280, Note_on_c, 5, 79, 60
7, 17400, Note_off_c, 5, 79, 64
7, 17400, Note_on_c, 5, 78, 60
7, 17515, Note_off_c, 5, 78, 64
7, 17520, Note_on_c, 5, 76, 60
7, 17640, Note_off_c, 5, 76, 64
7, 17640, Note_on_c, 5, 74, 60
7, 17755, Note_off_c, 5, 74, 64
7, 17760, Note_on_c, 5, 74, 60
7, 17840, Note_off_c, 5, 74, 64
7, 18000, Note_on_c, 5, 74, 60
7, 18080, Note_off_c, 5, 74, 64
7, 18240, Note_on_c, 5, 74, 60
7, 18480, Note_off_c, 5, 74, 64
7, 18480, Note_on_c, 5, 78, 60
7, 18715, Note_off_c, 5, 78, 64
7, 18720, Note_on_c, 5, 78, 60
7, 18840, Note_off_c, 5, 78, 64
7, 18840, Note_on_c, 5, 76, 60
7, 18955, Note_off_c, 5, 76, 64
7, 18960, Note_on_c, 5, 74, 60
7, 19080, Note_off_c, 5, 74, 64
7, 19080, Note_on_c, 5, 73, 60
7, 19195, Note_off_c, 5, 73, 64
7, 19200, Note_on_c, 5, 73, 60
7, 19600, Note_off_c, 5, 73, 64
7, 20160, Note_on_c, 5, 74, 60
7, 20520, Note_off_c, 5, 74, 64
7, 20520, Note_on_c, 5, 76, 60
7, 20580, Note_off_c, 5, 76, 64
7, 20580, Note_on_c, 5, 74, 60
7, 20640, Note_off_c, 5, 74, 64
7, 20640, Note_on_c, 5, 73, 60
7, 20880, Note_off_c, 5, 73, 64
7, 20880, Note_on_c, 5, 71, 60
7, 21120, Note_off_c, 5, 71, 64
7, 21120, Note_on_c, 5, 69, 60
7, 21360, Note_off_c, 5, 69, 64
7, 21360, Note_on_c, 5, 68, 60
7, 21600, Note_off_c, 5, 68, 64
7, 21600, Note_on_c, 5, 69, 60
7, 22000, Note_off_c, 5, 69, 64
7, 23040, Note_on_c, 5, 86, 75
7, 24235, Note_off_c, 5, 86, 64
7, 24240, Note_on_c, 5, 84, 75
7, 24475, Note_off_c, 5, 84, 64
7, 24480, Note_on_c, 5, 82, 75
7, 24720, Note_off_c, 5, 82, 64
7, 24720, Note_on_c, 5, 83, 75
7, 24955, Note_off_c, 5, 83, 64
7, 24960, Note_on_c, 5, 83, 75
7, 25600, Note_off_c, 5, 83, 64
7, 25680, Note_on_c, 5, 83, 75
7, 25915, Note_off_c, 5, 83, 64
7, 25920, Note_on_c, 5, 83, 75
7, 26160, Note_off_c, 5, 83, 64
7, 26160, Note_on_c, 5, 81, 75
7, 26635, Note_off_c, 5, 81, 64
7, 26640, Note_on_c, 5, 76, 75
7, 26760, Note_off_c, 5, 76, 64
7, 26760, Note_on_c, 5, 78, 75
7, 26880, Note_off_c, 5, 78, 64
7, 26880, Note_on_c, 5, 79, 73
7, 26960, Note_off_c, 5, 79, 64
7, 26960, Note_on_c, 5, 78, 72
7, 27040, Note_off_c, 5, 78, 64
7, 27040, Note_on_c, 5, 76, 71
7, 27120, Note_off_c, 5, 76, 64
7, 27120, Note_on_c, 5, 83, 70
7, 27200, Note_off_c, 5, 83, 64
7, 27200, Note_on_c, 5, 81, 69
7, 27280, Note_off_c, 5, 81, 64
7, 27280, Note_on_c, 5, 79, 68
7, 27360, Note_off_c, 5, 79, 64
7, 27360, Note_on_c, 5, 79, 66
7, 27390, Note_off_c, 5, 79, 64
7, 27390, Note_on_c, 5, 81, 66
7, 27420, Note_off_c, 5, 81, 64
7, 27420, Note_on_c, 5, 79, 66
7, 27450, Note_off_c, 5, 79, 64
7, 27450, Note_on_c, 5, 81, 66
7, 27480, Note_off_c, 5, 81, 64
7, 27480, Note_on_c, 5, 79, 66
7, 27510, Note_off_c, 5, 79, 64
7, 27510, Note_on_c, 5, 81, 66
7, 27540, Note_off_c, 5, 81, 64
7, 27540, Note_on_c, 5, 79, 66
7, 27570, Note_off_c, 5, 79, 64
7, 27570, Note_on_c, 5, 81, 66
7, 27600, Note_off_c, 5, 81, 64
7, 27600, Note_on_c, 5, 79, 66
7, 27630, Note_off_c, 5, 79, 64
7, 27630, Note_on_c, 5, 81, 66
7, 27660, Note_off_c, 5, 81, 64
7, 27660, Note_on_c, 5, 79, 66
7, 27690, Note_off_c, 5, 79, 64
7, 27690, Note_on_c, 5, 81, 66
7, 27720, Note_off_c, 5, 81, 64
7, 27720, Note_on_c, 5, 78, 66
7, 27780, Note_off_c, 5, 78, 64
7, 27780, Note_on_c, 5, 79, 64
7, 27840, Note_off_c, 5, 79, 64
7, 27840, Note_on_c, 5, 78, 62
7, 28075, Note_off_c, 5, 78, 64
7, 28920, Note_on_c, 5, 74, 30
7, 29040, Note_off_c, 5, 74, 64
7, 29040, Note_on_c, 5, 73, 31
7, 29120, Note_off_c, 5, 73, 64
7, 29160, Note_on_c, 5, 74, 32
7, 29240, Note_off_c, 5, 74, 64
7, 29280, Note_on_c, 5, 76, 33
7, 29400, Note_off_c, 5, 76, 64
7, 29400, Note_on_c, 5, 74, 34
7, 29480, Note_off_c, 5, 74, 64
7, 29520, Note_on_c, 5, 78, 35
7, 29640, Note_off_c, 5, 78, 64
7, 29640, Note_on_c, 5, 76, 36
7, 29720, Note_off_c, 5, 76, 64
7, 29760, Note_on_c, 5, 79, 37
7, 29880, Note_off_c, 5, 79, 64
7, 29880, Note_on_c, 5, 78, 39
7, 29960, Note_off_c, 5, 78, 64
7, 30000, Note_on_c, 5, 76, 41
7, 30120, Note_off_c, 5, 76, 64
7, 30120, Note_on_c, 5, 75, 43
7, 30200, Note_off_c, 5, 75, 64
7, 30360, Note_on_c, 5, 76, 45
7, 30445, Note_off_c, 5, 76, 64
7, 30480, Note_on_c, 5, 75, 45
7, 30560, Note_off_c, 5, 75, 64
7, 30600, Note_on_c, 5, 76, 45
7, 30680, Note_off_c, 5, 76, 64
7, 30720, Note_on_c, 5, 78, 45
7, 30840, Note_off_c, 5, 78, 64
7, 30840, Note_on_c, 5, 76, 45
7, 30920, Note_off_c, 5, 76, 64
7, 30960, Note_on_c, 5, 79, 45
7, 31080, Note_off_c, 5, 79, 64
7, 31080, Note_on_c, 5, 78, 45
7, 31160, Note_off_c, 5, 78, 64
7, 31200, Note_on_c, 5, 81, 45
7, 31320, Note_off_c, 5, 81, 64
7, 31320, Note_on_c, 5, 79, 45
7, 31400, Note_off_c, 5, 79, 64
7, 31440, Note_on_c, 5, 78, 45
7, 31560, Note_off_c, 5, 78, 64
7, 31560, Note_on_c, 5, 76, 45
7, 31675, Note_off_c, 5, 76, 64
7, 31800, Note_on_c, 5, 78, 48
7, 31920, Note_off_c, 5, 78, 64
7, 31920, Note_on_c, 5, 79, 52
7, 32000, Note_off_c, 5, 79, 64
7, 32040, Note_on_c, 5, 79, 56
7, 32120, Note_off_c, 5, 79, 64
7, 32160, Note_on_c, 5, 81, 60
7, 32240, Note_off_c, 5, 81, 64
7, 32280, Note_on_c, 5, 81, 64
7, 32360, Note_off_c, 5, 81, 64
7, 32400, Note_on_c, 5, 83, 68
7, 32480, Note_off_c, 5, 83, 64
7, 32520, Note_on_c, 5, 83, 72
7, 32600, Note_off_c, 5, 83, 64
7, 32640, Note_on_c, 5, 85, 76
7, 32720, Note_off_c, 5, 85, 64
7, 32760, Note_on_c, 5, 85, 80
7, 32840, Note_off_c, 5, 85, 64
7, 32880, Note_on_c, 5, 86, 84
7, 32960, Note_off_c, 5, 86, 64
7, 33000, Note_on_c, 5, 86, 88
7, 33080, Note_off_c, 5, 86, 64
7, 33120, Note_on_c, 5, 85, 92
7, 33240, Note_off_c, 5, 85, 64
7, 33240, Note_on_c, 5, 83, 88
7, 33360, Note_off_c, 5, 83, 64
7, 33360, Note_on_c, 5, 81, 84
7, 33480, Note_off_c, 5, 81, 64
7, 33480, Note_on_c, 5, 79, 80
7, 33600, Note_off_c, 5, 79, 64
7, 33600, Note_on_c, 5, 78, 76
7, 34080, Note_off_c, 5, 78, 64
7, 34080, Note_on_c, 5, 76, 60
7, 34110, Note_off_c, 5, 76, 64
7, 34110, Note_on_c, 5, 78, 59
7, 34140, Note_off_c, 5, 78, 64
7, 34140, Note_on_c, 5, 76, 58
7, 34170, Note_off_c, 5, 76, 64
7, 34170, Note_on_c, 5, 78, 57
7, 34200, Note_off_c, 5, 78, 64
7, 34200, Note_on_c, 5, 76, 56
7, 34230, Note_off_c, 5, 76, 64
7, 34230, Note_on_c, 5, 76, 55
7, 34260, Note_off_c, 5, 76, 64
7, 34260, Note_on_c, 5, 78, 54
7, 34290, Note_off_c, 5, 78, 64
7, 34290, Note_on_c, 5, 76, 53
7, 34320, Note_off_c, 5, 76, 64
7, 34320, Note_on_c, 5, 78, 52
7, 34350, Note_off_c, 5, 78, 64
7, 34350, Note_on_c, 5, 76, 51
7, 34380, Note_off_c, 5, 76, 64
7, 34380, Note_on_c, 5, 78, 50
7, 34410, Note_off_c, 5, 78, 64
7, 34410, Note_on_c, 5, 78, 49
7, 34440, Note_off_c, 5, 78, 64
7, 34440, Note_on_c, 5, 74, 48
7, 34500, Note_off_c, 5, 74, 64
7, 34500, Note_on_c, 5, 76, 45
7, 34555, Note_off_c, 5, 76, 64
7, 34680, Note_on_c, 5, 74, 30
7, 34800, Note_off_c, 5, 74, 64
7, 34800, Note_on_c, 5, 73, 31
7, 34855, Note_off_c, 5, 73, 64
7, 34920, Note_on_c, 5, 74, 31
7, 35005, Note_off_c, 5, 74, 64
7, 35040, Note_on_c, 5, 76, 32
7, 35160, Note_off_c, 5, 76, 64
7, 35160, Note_on_c, 5, 74, 33
7, 35215, Note_off_c, 5, 74, 64
7, 35280, Note_on_c, 5, 78, 33
7, 35400, Note_off_c, 5, 78, 64
7, 35400, Note_on_c, 5, 76, 35
7, 35455, Note_off_c, 5, 76, 64
7, 35520, Note_on_c, 5, 79, 37
7, 35640, Note_off_c, 5, 79, 64
7, 35640, Note_on_c, 5, 78, 39
7, 35695, Note_off_c, 5, 78, 64
7, 35760, Note_on_c, 5, 76, 41
7, 35880, Note_off_c, 5, 76, 64
7, 35880, Note_on_c, 5, 75, 43
7, 35995, Note_off_c, 5, 75, 64
7, 36120, Note_on_c, 5, 76, 45
7, 36240, Note_off_c, 5, 76, 64
7, 36240, Note_on_c, 5, 75, 45
7, 36320, Note_off_c, 5, 75, 64
7, 36360, Note_on_c, 5, 76, 45
7, 36440, Note_off_c, 5, 76, 64
7, 36480, Note_on_c, 5, 78, 45
7, 36600, Note_off_c, 5, 78, 64
7, 36600, Note_on_c, 5, 76, 45
7, 36655, Note_off_c, 5, 76, 64
7, 36720, Note_on_c, 5, 79, 45
7, 36840, Note_off_c, 5, 79, 64
7, 36840, Note_on_c, 5, 78, 45
7, 36895, Note_off_c, 5, 78, 64
7, 36960, Note_on_c, 5, 81, 45
7, 37080, Note_off_c, 5, 81, 64
7, 37080, Note_on_c, 5, 79, 45
7, 37135, Note_off_c, 5, 79, 64
7, 37200, Note_on_c, 5, 78, 45
7, 37320, Note_off_c, 5, 78, 64
7, 37320, Note_on_c, 5, 76, 45
7, 37435, Note_off_c, 5, 76, 64
7, 37560, Note_on_c, 5, 78, 47
7, 37680, Note_off_c, 5, 78, 64
7, 37680, Note_on_c, 5, 79, 49
7, 37760, Note_off_c, 5, 79, 64
7, 37800, Note_on_c, 5, 79, 51
7, 37880, Note_off_c, 5, 79, 64
7, 37920, Note_on_c, 5, 81, 53
7, 38000, Note_off_c, 5, 81, 64
7, 38040, Note_on_c, 5, 81, 55
7, 38120, Note_off_c, 5, 81, 64
7, 38160, Note_on_c, 5, 83, 57
7, 38240, Note_off_c, 5, 83, 64
7, 38280, Note_on_c, 5, 83, 60
7, 38360, Note_off_c, 5, 83, 64
7, 38400, Note_on_c, 5, 85, 63
7, 38480, Note_off_c, 5, 85, 64
7, 38520, Note_on_c, 5, 85, 66
7, 38600, Note_off_c, 5, 85, 64
7, 38640, Note_on_c, 5, 86, 69
7, 38720, Note_off_c, 5, 86, 64
7, 38760, Note_on_c, 5, 86, 72
7, 38840, Note_off_c, 5, 86, 64
7, 38880, Note_on_c, 5, 85, 75
7, 39000, Note_off_c, 5, 85, 64
7, 39000, Note_on_c, 5, 83, 75
7, 39120, Note_off_c, 5, 83, 64
7, 39120, Note_on_c, 5, 81, 75
7, 39240, Note_off_c, 5, 81, 64
7, 39240, Note_on_c, 5, 79, 75
7, 39360, Note_off_c, 5, 79, 64
7, 39360, Note_on_c, 5, 78, 75
7, 39840, Note_off_c, 5, 78, 64
7, 39840, Note_on_c, 5, 76, 75
7, 39870, Note_off_c, 5, 76, 64
7, 39870, Note_on_c, 5, 78, 75
7, 39900, Note_off_c, 5, 78, 64
7, 39900, Note_on_c, 5, 76, 75
7, 39930, Note_off_c, 5, 76, 64
7, 39930, Note_on_c, 5, 78, 75
7, 39960, Note_off_c, 5, 78, 64
7, 39960, Note_on_c, 5, 76, 75
7, 39990, Note_off_c, 5, 76, 64
7, 39990, Note_on_c, 5, 78, 75
7, 40020, Note_off_c, 5, 78, 64
7, 40020, Note_on_c, 5, 76, 75
7, 40050, Note_off_c, 5, 76, 64
7, 40050, Note_on_c, 5, 78, 75
7, 40080, Note_off_c, 5, 78, 64
7, 40080, Note_on_c, 5, 76, 75
7, 40110, Note_off_c, 5, 76, 64
7, 40110, Note_on_c, 5, 78, 75
7, 40140, Note_off_c, 5, 78, 64
7, 40140, Note_on_c, 5, 76, 75
7, 40170, Note_off_c, 5, 76, 64
7, 40170, Note_on_c, 5, 78, 75
7, 40200, Note_off_c, 5, 78, 64
7, 40200, Note_on_c, 5, 76, 75
7, 40230, Note_off_c, 5, 76, 64
7, 40230, Note_on_c, 5, 78, 75
7, 40260, Note_off_c, 5, 78, 64
7, 40260, Note_on_c, 5, 74, 75
7, 40290, Note_off_c, 5, 74, 64
7, 40290, Note_on_c, 5, 76, 75
7, 40320, Note_off_c, 5, 76, 64
7, 40320, Note_on_c, 5, 74, 75
7, 40555, Note_off_c, 5, 74, 64
7, 40560, Note_on_c, 5, 81, 92
7, 41200, Note_off_c, 5, 81, 64
7, 41280, Note_on_c, 5, 79, 92
7, 41360, Note_off_c, 5, 79, 64
7, 41360, Note_on_c, 5, 78, 91
7, 41440, Note_off_c, 5, 78, 64
7, 41440, Note_on_c, 5, 76, 89
7, 41520, Note_off_c, 5, 76, 64
7, 41520, Note_on_c, 5, 74, 87
7, 41600, Note_off_c, 5, 74, 64
7, 41600, Note_on_c, 5, 76, 85
7, 41680, Note_off_c, 5, 76, 64
7, 41680, Note_on_c, 5, 73, 83
7, 41760, Note_off_c, 5, 73, 64
7, 41760, Note_on_c, 5, 74, 81
7, 41995, Note_off_c, 5, 74, 64
7, 42000, Note_on_c, 5, 69, 75
7, 42720, Note_off_c, 5, 69, 64
7, 42720, Note_on_c, 5, 67, 60
7, 42800, Note_off_c, 5, 67, 64
7, 42800, Note_on_c, 5, 66, 58
7, 42880, Note_off_c, 5, 66, 64
7, 42880, Note_on_c, 5, 64, 56
7, 42960, Note_off_c, 5, 64, 64
7, 42960, Note_on_c, 5, 62, 54
7, 43040, Note_off_c, 5, 62, 64
7, 43040, Note_on_c, 5, 64, 51
7, 43120, Note_off_c, 5, 64, 64
7, 43120, Note_on_c, 5, 61, 48
7, 43200, Note_off_c, 5, 61, 64
7, 43200, Note_on_c, 5, 61, 45
7, 44160, Note_off_c, 5, 61, 64
7, 44160, Note_on_c, 5, 62, 45
7, 44560, Note_off_c, 5, 62, 64
7, 46200, Note_on_c, 5, 81, 45
7, 47160, Note_off_c, 5, 81, 64
7, 47160, Note_on_c, 5, 79, 45
7, 47280, Note_off_c, 5, 79, 64
7, 47280, Note_on_c, 5, 78, 45
7, 47400, Note_off_c, 5, 78, 64
7, 47400, Note_on_c, 5, 76, 45
7, 47520, Note_off_c, 5, 76, 64
7, 47520, Note_on_c, 5, 74, 45
7, 47640, Note_off_c, 5, 74, 64
7, 47640, Note_on_c, 5, 79, 45
7, 47880, Note_off_c, 5, 79, 64
7, 47880, Note_on_c, 5, 74, 45
7, 48115, Note_off_c, 5, 74, 64
7, 48120, Note_on_c, 5, 74, 45
7, 48520, Note_off_c, 5, 74, 64
7, 48840, Note_on_c, 5, 74, 45
7, 49080, Note_off_c, 5, 74, 64
7, 49080, Note_on_c, 5, 72, 45
7, 49315, Note_off_c, 5, 72, 64
7, 49320, Note_on_c, 5, 84, 45
7, 49795, Note_off_c, 5, 84, 64
7, 49800, Note_on_c, 5, 81, 45
7, 50040, Note_off_c, 5, 81, 64
7, 50040, Note_on_c, 5, 78, 45
7, 50280, Note_off_c, 5, 78, 64
7, 50280, Note_on_c, 5, 72, 45
7, 50520, Note_off_c, 5, 72, 64
7, 50520, Note_on_c, 5, 72, 45
7, 50640, Note_off_c, 5, 72, 64
7, 50640, Note_on_c, 5, 71, 46
7, 50760, Note_off_c, 5, 71, 64
7, 50760, Note_on_c, 5, 76, 47
7, 50880, Note_off_c, 5, 76, 64
7, 50880, Note_on_c, 5, 74, 48
7, 50995, Note_off_c, 5, 74, 64
7, 51000, Note_on_c, 5, 74, 49
7, 51400, Note_off_c, 5, 74, 64
7, 51720, Note_on_c, 5, 77, 55
7, 51960, Note_off_c, 5, 77, 64
7, 51960, Note_on_c, 5, 76, 57
7, 52195, Note_off_c, 5, 76, 64
7, 52200, Note_on_c, 5, 84, 60
7, 52675, Note_off_c, 5, 84, 64
7, 52680, Note_on_c, 5, 83, 60
7, 52920, Note_off_c, 5, 83, 64
7, 52920, Note_on_c, 5, 81, 60
7, 53160, Note_off_c, 5, 81, 64
7, 53160, Note_on_c, 5, 79, 60
7, 53400, Note_off_c, 5, 79, 64
7, 53400, Note_on_c, 5, 79, 60
7, 53430, Note_off_c, 5, 79, 64
7, 53430, Note_on_c, 5, 81, 60
7, 53460, Note_off_c, 5, 81, 64
7, 53460, Note_on_c, 5, 79, 60
7, 53490, Note_off_c, 5, 79, 64
7, 53490, Note_on_c, 5, 81, 60
7, 53520, Note_off_c, 5, 81, 64
7, 53520, Note_on_c, 5, 79, 60
7, 53550, Note_off_c, 5, 79, 64
7, 53550, Note_on_c, 5, 81, 60
7, 53580, Note_off_c, 5, 81, 64
7, 53580, Note_on_c, 5, 79, 60
7, 53610, Note_off_c, 5, 79, 64
7, 53610, Note_on_c, 5, 81, 60
7, 53640, Note_off_c, 5, 81, 64
7, 53640, Note_on_c, 5, 79, 60
7, 53670, Note_off_c, 5, 79, 64
7, 53670, Note_on_c, 5, 81, 60
7, 53700, Note_off_c, 5, 81, 64
7, 53700, Note_on_c, 5, 79, 60
7, 53730, Note_off_c, 5, 79, 64
7, 53730, Note_on_c, 5, 81, 60
7, 53760, Note_off_c, 5, 81, 64
7, 53760, Note_on_c, 5, 79, 60
7, 53790, Note_off_c, 5, 79, 64
7, 53790, Note_on_c, 5, 81, 60
7, 53820, Note_off_c, 5, 81, 64
7, 53820, Note_on_c, 5, 78, 60
7, 53850, Note_off_c, 5, 78, 64
7, 53850, Note_on_c, 5, 79, 60
7, 53880, Note_off_c, 5, 79, 64
7, 53880, Note_on_c, 5, 78, 60
7, 54115, Note_off_c, 5, 78, 64
7, 54840, Note_on_c, 5, 74, 75
7, 55195, Note_off_c, 5, 74, 64
7, 55200, Note_on_c, 5, 71, 75
7, 55260, Note_off_c, 5, 71, 64
7, 55260, Note_on_c, 5, 72, 75
7, 55320, Note_off_c, 5, 72, 64
7, 55320, Note_on_c, 5, 74, 75
7, 55400, Note_off_c, 5, 74, 64
7, 55560, Note_on_c, 5, 74, 75
7, 55640, Note_off_c, 5, 74, 64
7, 55800, Note_on_c, 5, 74, 75
7, 56040, Note_off_c, 5, 74, 64
7, 56040, Note_on_c, 5, 79, 75
7, 56215, Note_off_c, 5, 79, 64
7, 56280, Note_on_c, 5, 74, 75
7, 56635, Note_off_c, 5, 74, 64
7, 56640, Note_on_c, 5, 71, 75
7, 56700, Note_off_c, 5, 71, 64
7, 56700, Note_on_c, 5, 72, 75
7, 56760, Note_off_c, 5, 72, 64
7, 56760, Note_on_c, 5, 74, 75
7, 57160, Note_off_c, 5, 74, 64
7, 57720, Note_on_c, 5, 72, 75
7, 57840, Note_off_c, 5, 72, 64
7, 57840, Note_on_c, 5, 74, 75
7, 57960, Note_off_c, 5, 74, 64
7, 57960, Note_on_c, 5, 76, 75
7, 58080, Note_off_c, 5, 76, 64
7, 58080, Note_on_c, 5, 72, 75
7, 58200, Note_off_c, 5, 72, 64
7, 58200, Note_on_c, 5, 71, 75
7, 58320, Note_off_c, 5, 71, 64
7, 58320, Note_on_c, 5, 72, 75
7, 58440, Note_off_c, 5, 72, 64
7, 58440, Note_on_c, 5, 74, 75
7, 58560, Note_off_c, 5, 74, 64
7, 58560, Note_on_c, 5, 71, 75
7, 58680, Note_off_c, 5, 71, 64
7, 58680, Note_on_c, 5, 69, 75
7, 58800, Note_off_c, 5, 69, 64
7, 58800, Note_on_c, 5, 71, 75
7, 58920, Note_off_c, 5, 71, 64
7, 58920, Note_on_c, 5, 72, 75
7, 59040, Note_off_c, 5, 72, 64
7, 59040, Note_on_c, 5, 69, 75
7, 59160, Note_off_c, 5, 69, 64
7, 59160, Note_on_c, 5, 72, 75
7, 59280, Note_off_c, 5, 72, 64
7, 59280, Note_on_c, 5, 71, 75
7, 59400, Note_off_c, 5, 71, 64
7, 59400, Note_on_c, 5, 69, 75
7, 59520, Note_off_c, 5, 69, 64
7, 59520, Note_on_c, 5, 67, 75
7, 59635, Note_off_c, 5, 67, 64
7, 59640, Note_on_c, 5, 67, 75
7, 60040, Note_off_c, 5, 67, 64
7, 60600, Note_on_c, 5, 74, 75
7, 60955, Note_off_c, 5, 74, 64
7, 60960, Note_on_c, 5, 71, 75
7, 61020, Note_off_c, 5, 71, 64
7, 61020, Note_on_c, 5, 72, 75
7, 61080, Note_off_c, 5, 72, 64
7, 61080, Note_on_c, 5, 74, 75
7, 61160, Note_off_c, 5, 74, 64
7, 61320, Note_on_c, 5, 74, 75
7, 61400, Note_off_c, 5, 74, 64
7, 61560, Note_on_c, 5, 74, 75
7, 61800, Note_off_c, 5, 74, 64
7, 61800, Note_on_c, 5, 79, 75
7, 61975, Note_off_c, 5, 79, 64
7, 62040, Note_on_c, 5, 74, 75
7, 62395, Note_off_c, 5, 74, 64
7, 62400, Note_on_c, 5, 71, 75
7, 62460, Note_off_c, 5, 71, 64
7, 62460, Note_on_c, 5, 72, 75
7, 62520, Note_off_c, 5, 72, 64
7, 62520, Note_on_c, 5, 74, 75
7, 62920, Note_off_c, 5, 74, 64
7, 63240, Note_on_c, 5, 79, 75
7, 63480, Note_off_c, 5, 79, 64
7, 63480, Note_on_c, 5, 78, 75
7, 63715, Note_off_c, 5, 78, 64
7, 63720, Note_on_c, 5, 76, 75
7, 64120, Note_off_c, 5, 76, 64
7, 64200, Note_on_c, 5, 74, 75
7, 64320, Note_off_c, 5, 74, 64
7, 64320, Note_on_c, 5, 72, 75
7, 64440, Note_off_c, 5, 72, 64
7, 64440, Note_on_c, 5, 71, 75
7, 64560, Note_off_c, 5, 71, 64
7, 64560, Note_on_c, 5, 69, 75
7, 64680, Note_off_c, 5, 69, 64
7, 64680, Note_on_c, 5, 69, 75
7, 64800, Note_off_c, 5, 69, 64
7, 64800, Note_on_c, 5, 67, 75
7, 64920, Note_off_c, 5, 67, 64
7, 64920, Note_on_c, 5, 69, 75
7, 65040, Note_off_c, 5, 69, 64
7, 65040, Note_on_c, 5, 67, 68
7, 65160, Note_off_c, 5, 67, 64
7, 65160, Note_on_c, 5, 66, 61
7, 65280, Note_off_c, 5, 66, 64
7, 65280, Note_on_c, 5, 67, 53
7, 65400, Note_off_c, 5, 67, 64
7, 65400, Note_on_c, 5, 66, 45
7, 65800, Note_off_c, 5, 66, 64
7, 66360, Note_on_c, 5, 86, 45
7, 69720, Note_off_c, 5, 86, 64
7, 69720, Note_on_c, 5, 84, 45
7, 70200, Note_off_c, 5, 84, 64
7, 70200, Note_on_c, 5, 83, 45
7, 70680, Note_off_c, 5, 83, 64
7, 70680, Note_on_c, 5, 84, 45
7, 70800, Note_off_c, 5, 84, 64
7, 70800, Note_on_c, 5, 83, 45
7, 70920, Note_off_c, 5, 83, 64
7, 70920, Note_on_c, 5, 81, 45
7, 71040, Note_off_c, 5, 81, 64
7, 71040, Note_on_c, 5, 83, 45
7, 71160, Note_off_c, 5, 83, 64
7, 71160, Note_on_c, 5, 81, 45
7, 71560, Note_off_c, 5, 81, 64
7, 72120, Note_on_c, 5, 84, 45
7, 72240, Note_off_c, 5, 84, 64
7, 72240, Note_on_c, 5, 83, 45
7, 72355, Note_off_c, 5, 83, 64
7, 72360, Note_on_c, 5, 81, 45
7, 72480, Note_off_c, 5, 81, 64
7, 72480, Note_on_c, 5, 79, 45
7, 72595, Note_off_c, 5, 79, 64
7, 72600, Note_on_c, 5, 79, 45
7, 72680, Note_off_c, 5, 79, 64
7, 72840, Note_on_c, 5, 79, 45
7, 72920, Note_off_c, 5, 79, 64
7, 73080, Note_on_c, 5, 79, 45
7, 73320, Note_off_c, 5, 79, 64
7, 73320, Note_on_c, 5, 83, 45
7, 73555, Note_off_c, 5, 83, 64
7, 73560, Note_on_c, 5, 83, 45
7, 73680, Note_off_c, 5, 83, 64
7, 73680, Note_on_c, 5, 81, 45
7, 73795, Note_off_c, 5, 81, 64
7, 73800, Note_on_c, 5, 79, 45
7, 73920, Note_off_c, 5, 79, 64
7, 73920, Note_on_c, 5, 78, 45
7, 74035, Note_off_c, 5, 78, 64
7, 74040, Note_on_c, 5, 78, 45
7, 74440, Note_off_c, 5, 78, 64
7, 75000, Note_on_c, 5, 79, 45
7, 75320, Note_off_c, 5, 79, 64
7, 75320, Note_on_c, 5, 81, 45
7, 75400, Note_off_c, 5, 81, 64
7, 75400, Note_on_c, 5, 79, 45
7, 75480, Note_off_c, 5, 79, 64
7, 75480, Note_on_c, 5, 78, 45
7, 75720, Note_off_c, 5, 78, 64
7, 75720, Note_on_c, 5, 76, 45
7, 75955, Note_off_c, 5, 76, 64
7, 75960, Note_on_c, 5, 74, 45
7, 76200, Note_off_c, 5, 74, 64
7, 76200, Note_on_c, 5, 73, 45
7, 76435, Note_off_c, 5, 73, 64
7, 76440, Note_on_c, 5, 74, 45
7, 76840, Note_off_c, 5, 74, 64
7, 77880, Note_on_c, 5, 79, 45
7, 78840, Note_off_c, 5, 79, 64
7, 78840, Note_on_c, 5, 81, 45
7, 79080, Note_off_c, 5, 81, 64
7, 79080, Note_on_c, 5, 77, 45
7, 79320, Note_off_c, 5, 77, 64
7, 79320, Note_on_c, 5, 75, 45
7, 79560, Note_off_c, 5, 75, 64
7, 79560, Note_on_c, 5, 76, 47
7, 79800, Note_off_c, 5, 76, 64
7, 79800, Note_on_c, 5, 76, 49
7, 80200, Note_off_c, 5, 76, 64
7, 80520, Note_on_c, 5, 76, 57
7, 80755, Note_off_c, 5, 76, 64
7, 80760, Note_on_c, 5, 76, 60
7, 81000, Note_off_c, 5, 76, 64
7, 81000, Note_on_c, 5, 74, 63
7, 81475, Note_off_c, 5, 74, 64
7, 81480, Note_on_c, 5, 69, 69
7, 81600, Note_off_c, 5, 69, 64
7, 81600, Note_on_c, 5, 71, 70
7, 81720, Note_off_c, 5, 71, 64
7, 81720, Note_on_c, 5, 72, 71
7, 81800, Note_off_c, 5, 72, 64
7, 81800, Note_on_c, 5, 71, 72
7, 81880, Note_off_c, 5, 71, 64
7, 81880, Note_on_c, 5, 69, 73
7, 81960, Note_off_c, 5, 69, 64
7, 81960, Note_on_c, 5, 76, 75
7, 82040, Note_off_c, 5, 76, 64
7, 82040, Note_on_c, 5, 74, 75
7, 82120, Note_off_c, 5, 74, 64
7, 82120, Note_on_c, 5, 72, 75
7, 82200, Note_off_c, 5, 72, 64
7, 82200, Note_on_c, 5, 72, 75
7, 82230, Note_off_c, 5, 72, 64
7, 82230, Note_on_c, 5, 74, 74
7, 82260, Note_off_c, 5, 74, 64
7, 82260, Note_on_c, 5, 72, 73
7, 82290, Note_off_c, 5, 72, 64
7, 82290, Note_on_c, 5, 74, 71
7, 82320, Note_off_c, 5, 74, 64
7, 82320, Note_on_c, 5, 72, 69
7, 82350, Note_off_c, 5, 72, 64
7, 82350, Note_on_c, 5, 74, 67
7, 82380, Note_off_c, 5, 74, 64
7, 82380, Note_on_c, 5, 72, 65
7, 82410, Note_off_c, 5, 72, 64
7, 82410, Note_on_c, 5, 74, 63
7, 82440, Note_off_c, 5, 74, 64
7, 82440, Note_on_c, 5, 72, 61
7, 82470, Note_off_c, 5, 72, 64
7, 82470, Note_on_c, 5, 74, 59
7, 82500, Note_off_c, 5, 74, 64
7, 82500, Note_on_c, 5, 72, 57
7, 82530, Note_off_c, 5, 72, 64
7, 82530, Note_on_c, 5, 74, 55
7, 82560, Note_off_c, 5, 74, 64
7, 82560, Note_on_c, 5, 72, 53
7, 82590, Note_off_c, 5, 72, 64
7, 82590, Note_on_c, 5, 74, 51
7, 82620, Note_off_c, 5, 74, 64
7, 82620, Note_on_c, 5, 71, 49
7, 82650, Note_off_c, 5, 71, 64
7, 82650, Note_on_c, 5, 72, 47
7, 82680, Note_off_c, 5, 72, 64
7, 82680, Note_on_c, 5, 71, 45
7, 82915, Note_off_c, 5, 71, 64
7, 83760, Note_on_c, 5, 79, 45
7, 83880, Note_off_c, 5, 79, 64
7, 83880, Note_on_c, 5, 81, 45
7, 83960, Note_off_c, 5, 81, 64
7, 84000, Note_on_c, 5, 79, 45
7, 84040, Note_off_c, 5, 79, 64
7, 84120, Note_on_c, 5, 78, 45
7, 84240, Note_off_c, 5, 78, 64
7, 84240, Note_on_c, 5, 79, 45
7, 84280, Note_off_c, 5, 79, 64
7, 84360, Note_on_c, 5, 76, 45
7, 84480, Note_off_c, 5, 76, 64
7, 84480, Note_on_c, 5, 74, 45
7, 84520, Note_off_c, 5, 74, 64
7, 84600, Note_on_c, 5, 72, 45
7, 84720, Note_off_c, 5, 72, 64
7, 84720, Note_on_c, 5, 71, 45
7, 84760, Note_off_c, 5, 71, 64
7, 84840, Note_on_c, 5, 69, 45
7, 84960, Note_off_c, 5, 69, 64
7, 84960, Note_on_c, 5, 67, 45
7, 85000, Note_off_c, 5, 67, 64
7, 85200, Note_on_c, 5, 81, 45
7, 85320, Note_off_c, 5, 81, 64
7, 85320, Note_on_c, 5, 83, 45
7, 85360, Note_off_c, 5, 83, 64
7, 85440, Note_on_c, 5, 81, 45
7, 85520, Note_off_c, 5, 81, 64
7, 85560, Note_on_c, 5, 80, 45
7, 85680, Note_off_c, 5, 80, 64
7, 85680, Note_on_c, 5, 81, 45
7, 85720, Note_off_c, 5, 81, 64
7, 85800, Note_on_c, 5, 79, 45
7, 85920, Note_off_c, 5, 79, 64
7, 85920, Note_on_c, 5, 78, 45
7, 85960, Note_off_c, 5, 78, 64
7, 86040, Note_on_c, 5, 76, 45
7, 86160, Note_off_c, 5, 76, 64
7, 86160, Note_on_c, 5, 74, 45
7, 86200, Note_off_c, 5, 74, 64
7, 86280, Note_on_c, 5, 69, 45
7, 86400, Note_off_c, 5, 69, 64
7, 86400, Note_on_c, 5, 72, 45
7, 86480, Note_off_c, 5, 72, 64
7, 86640, Note_on_c, 5, 71, 47
7, 86760, Note_off_c, 5, 71, 64
7, 86760, Note_on_c, 5, 72, 49
7, 86840, Note_off_c, 5, 72, 64
7, 86880, Note_on_c, 5, 72, 51
7, 86960, Note_off_c, 5, 72, 64
7, 87000, Note_on_c, 5, 74, 53
7, 87080, Note_off_c, 5, 74, 64
7, 87120, Note_on_c, 5, 74, 55
7, 87200, Note_off_c, 5, 74, 64
7, 87240, Note_on_c, 5, 76, 57
7, 87320, Note_off_c, 5, 76, 64
7, 87360, Note_on_c, 5, 76, 60
7, 87440, Note_off_c, 5, 76, 64
7, 87480, Note_on_c, 5, 78, 63
7, 87560, Note_off_c, 5, 78, 64
7, 87600, Note_on_c, 5, 78, 66
7, 87680, Note_off_c, 5, 78, 64
7, 87720, Note_on_c, 5, 79, 69
7, 87800, Note_off_c, 5, 79, 64
7, 87840, Note_on_c, 5, 79, 72
7, 87920, Note_off_c, 5, 79, 64
7, 87960, Note_on_c, 5, 78, 75
7, 88080, Note_off_c, 5, 78, 64
7, 88080, Note_on_c, 5, 76, 75
7, 88200, Note_off_c, 5, 76, 64
7, 88200, Note_on_c, 5, 74, 75
7, 88320, Note_off_c, 5, 74, 64
7, 88320, Note_on_c, 5, 72, 75
7, 88440, Note_off_c, 5, 72, 64
7, 88440, Note_on_c, 5, 71, 72
7, 88920, Note_off_c, 5, 71, 64
7, 88920, Note_on_c, 5, 69, 59
7, 88950, Note_off_c, 5, 69, 64
7, 88950, Note_on_c, 5, 71, 59
7, 88980, Note_off_c, 5, 71, 64
7, 88980, Note_on_c, 5, 69, 59
7, 89010, Note_off_c, 5, 69, 64
7, 89010, Note_on_c, 5, 71, 58
7, 89040, Note_off_c, 5, 71, 64
7, 89040, Note_on_c, 5, 69, 57
7, 89070, Note_off_c, 5, 69, 64
7, 89070, Note_on_c, 5, 71, 56
7, 89100, Note_off_c, 5, 71, 64
7, 89100, Note_on_c, 5, 69, 55
7, 89130, Note_off_c, 5, 69, 64
7, 89130, Note_on_c, 5, 71, 54
7, 89160, Note_off_c, 5, 71, 64
7, 89160, Note_on_c, 5, 69, 53
7, 89190, Note_off_c, 5, 69, 64
7, 89190, Note_on_c, 5, 71, 52
7, 89220, Note_off_c, 5, 71, 64
7, 89220, Note_on_c, 5, 69, 51
7, 89250, Note_off_c, 5, 69, 64
7, 89250, Note_on_c, 5, 71, 50
7, 89280, Note_off_c, 5, 71, 64
7, 89280, Note_on_c, 5, 67, 49
7, 89340, Note_off_c, 5, 67, 64
7, 89340, Note_on_c, 5, 69, 47
7, 89395, Note_off_c, 5, 69, 64
7, 89520, Note_on_c, 5, 79, 45
7, 89640, Note_off_c, 5, 79, 64
7, 89640, Note_on_c, 5, 81, 45
7, 89720, Note_off_c, 5, 81, 64
7, 89760, Note_on_c, 5, 79, 45
7, 89800, Note_off_c, 5, 79, 64
7, 89880, Note_on_c, 5, 78, 45
7, 90000, Note_off_c, 5, 78, 64
7, 90000, Note_on_c, 5, 79, 45
7, 90040, Note_off_c, 5, 79, 64
7, 90120, Note_on_c, 5, 76, 45
7, 90240, Note_off_c, 5, 76, 64
7, 90240, Note_on_c, 5, 74, 45
7, 90280, Note_off_c, 5, 74, 64
7, 90360, Note_on_c, 5, 72, 45
7, 90480, Note_off_c, 5, 72, 64
7, 90480, Note_on_c, 5, 71, 45
7, 90520, Note_off_c, 5, 71, 64
7, 90600, Note_on_c, 5, 69, 45
7, 90720, Note_off_c, 5, 69, 64
7, 90720, Note_on_c, 5, 67, 45
7, 90760, Note_off_c, 5, 67, 64
7, 90960, Note_on_c, 5, 81, 45
7, 91080, Note_off_c, 5, 81, 64
7, 91080, Note_on_c, 5, 83, 45
7, 91120, Note_off_c, 5, 83, 64
7, 91200, Note_on_c, 5, 81, 45
7, 91280, Note_off_c, 5, 81, 64
7, 91320, Note_on_c, 5, 80, 45
7, 91440, Note_off_c, 5, 80, 64
7, 91440, Note_on_c, 5, 81, 45
7, 91480, Note_off_c, 5, 81, 64
7, 91560, Note_on_c, 5, 79, 45
7, 91680, Note_off_c, 5, 79, 64
7, 91680, Note_on_c, 5, 78, 45
7, 91720, Note_off_c, 5, 78, 64
7, 91800, Note_on_c, 5, 76, 45
7, 91920, Note_off_c, 5, 76, 64
7, 91920, Note_on_c, 5, 74, 45
7, 91960, Note_off_c, 5, 74, 64
7, 92040, Note_on_c, 5, 69, 45
7, 92160, Note_off_c, 5, 69, 64
7, 92160, Note_on_c, 5, 72, 45
7, 92240, Note_off_c, 5, 72, 64
7, 92400, Note_on_c, 5, 71, 46
7, 92520, Note_off_c, 5, 71, 64
7, 92520, Note_on_c, 5, 72, 47
7, 92600, Note_off_c, 5, 72, 64
7, 92640, Note_on_c, 5, 72, 48
7, 92720, Note_off_c, 5, 72, 64
7, 92760, Note_on_c, 5, 74, 49
7, 92840, Note_off_c, 5, 74, 64
7, 92880, Note_on_c, 5, 74, 50
7, 92960, Note_off_c, 5, 74, 64
7, 93000, Note_on_c, 5, 76, 51
7, 93080, Note_off_c, 5, 76, 64
7, 93120, Note_on_c, 5, 76, 52
7, 93200, Note_off_c, 5, 76, 64
7, 93240, Note_on_c, 5, 78, 53
7, 93320, Note_off_c, 5, 78, 64
7, 93360, Note_on_c, 5, 78, 54
7, 93440, Note_off_c, 5, 78, 64
7, 93480, Note_on_c, 5, 79, 56
7, 93560, Note_off_c, 5, 79, 64
7, 93600, Note_on_c, 5, 79, 58
7, 93680, Note_off_c, 5, 79, 64
7, 93720, Note_on_c, 5, 78, 60
7, 93840, Note_off_c, 5, 78, 64
7, 93840, Note_on_c, 5, 76, 60
7, 93960, Note_off_c, 5, 76, 64
7, 93960, Note_on_c, 5, 74, 60
7, 94080, Note_off_c, 5, 74, 64
7, 94080, Note_on_c, 5, 72, 60
7, 94200, Note_off_c, 5, 72, 64
7, 94200, Note_on_c, 5, 71, 60
7, 94680, Note_off_c, 5, 71, 64
7, 94680, Note_on_c, 5, 69, 67
7, 94710, Note_off_c, 5, 69, 64
7, 94710, Note_on_c, 5, 71, 67
7, 94740, Note_off_c, 5, 71, 64
7, 94740, Note_on_c, 5, 69, 67
7, 94770, Note_off_c, 5, 69, 64
7, 94770, Note_on_c, 5, 71, 67
7, 94800, Note_off_c, 5, 71, 64
7, 94800, Note_on_c, 5, 69, 67
7, 94830, Note_off_c, 5, 69, 64
7, 94830, Note_on_c, 5, 71, 67
7, 94860, Note_off_c, 5, 71, 64
7, 94860, Note_on_c, 5, 69, 67
7, 94890, Note_off_c, 5, 69, 64
7, 94890, Note_on_c, 5, 71, 67
7, 94920, Note_off_c, 5, 71, 64
7, 94920, Note_on_c, 5, 69, 67
7, 94950, Note_off_c, 5, 69, 64
7, 94950, Note_on_c, 5, 71, 68
7, 94980, Note_off_c, 5, 71, 64
7, 94980, Note_on_c, 5, 69, 69
7, 95010, Note_off_c, 5, 69, 64
7, 95010, Note_on_c, 5, 71, 70
7, 95040, Note_off_c, 5, 71, 64
7, 95040, Note_on_c, 5, 69, 71
7, 95070, Note_off_c, 5, 69, 64
7, 95070, Note_on_c, 5, 71, 72
7, 95100, Note_off_c, 5, 71, 64
7, 95100, Note_on_c, 5, 67, 73
7, 95130, Note_off_c, 5, 67, 64
7, 95130, Note_on_c, 5, 69, 74
7, 95155, Note_off_c, 5, 69, 64
7, 95160, Note_on_c, 5, 67, 75
7, 95395, Note_off_c, 5, 67, 64
7, 95400, Note_on_c, 5, 86, 75
7, 96040, Note_off_c, 5, 86, 64
7, 96120, Note_on_c, 5, 84, 75
7, 96200, Note_off_c, 5, 84, 64
7, 96200, Note_on_c, 5, 83, 75
7, 96280, Note_off_c, 5, 83, 64
7, 96280, Note_on_c, 5, 81, 75
7, 96360, Note_off_c, 5, 81, 64
7, 96360, Note_on_c, 5, 79, 75
7, 96440, Note_off_c, 5, 79, 64
7, 96440, Note_on_c, 5, 81, 75
7, 96520, Note_off_c, 5, 81, 64
7, 96520, Note_on_c, 5, 78, 75
7, 96600, Note_off_c, 5, 78, 64
7, 96600, Note_on_c, 5, 79, 60
7, 96835, Note_off_c, 5, 79, 64
7, 96840, Note_on_c, 5, 74, 60
7, 97480, Note_off_c, 5, 74, 64
7, 97560, Note_on_c, 5, 72, 60
7, 97640, Note_off_c, 5, 72, 64
7, 97640, Note_on_c, 5, 71, 58
7, 97720, Note_off_c, 5, 71, 64
7, 97720, Note_on_c, 5, 69, 56
7, 97800, Note_off_c, 5, 69, 64
7, 97800, Note_on_c, 5, 67, 54
7, 97880, Note_off_c, 5, 67, 64
7, 97880, Note_on_c, 5, 69, 51
7, 97960, Note_off_c, 5, 69, 64
7, 97960, Note_on_c, 5, 66, 48
7, 98040, Note_off_c, 5, 66, 64
7, 98040, Note_on_c, 5, 66, 45
7, 99000, Note_off_c, 5, 66, 64
7, 99000, Note_on_c, 5, 67, 45
7, 99400, Note_off_c, 5, 67, 64
7, 99400, End_track
8, 0, Start_track
8, 0, MIDI_port, 0
8, 0, Channel_prefix, 6
8, 0, Control_c, 6, 7, 127
8, 0, Control_c, 6, 10, 31
8, 0, Control_c, 6, 91, 127
8, 0, Program_c, 6, 48
8, 0, Note_on_c, 6, 71, 75
8, 355, Note_off_c, 6, 71, 64
8, 360, Note_on_c, 6, 67, 75
8, 420, Note_off_c, 6, 67, 64
8, 420, Note_on_c, 6, 69, 75
8, 480, Note_off_c, 6, 69, 64
8, 480, Note_on_c, 6, 71, 75
8, 560, Note_off_c, 6, 71, 64
8, 720, Note_on_c, 6, 71, 75
8, 800, Note_off_c, 6, 71, 64
8, 960, Note_on_c, 6, 71, 75
8, 1200, Note_off_c, 6, 71, 64
8, 1200, Note_on_c, 6, 74, 75
8, 1435, Note_off_c, 6, 74, 64
8, 1440, Note_on_c, 6, 71, 75
8, 1795, Note_off_c, 6, 71, 64
8, 1800, Note_on_c, 6, 67, 75
8, 1860, Note_off_c, 6, 67, 64
8, 1860, Note_on_c, 6, 69, 75
8, 1920, Note_off_c, 6, 69, 64
8, 1920, Note_on_c, 6, 71, 75
8, 2320, Note_off_c, 6, 71, 64
8, 2880, Note_on_c, 6, 69, 75
8, 3000, Note_off_c, 6, 69, 64
8, 3000, Note_on_c, 6, 71, 75
8, 3120, Note_off_c, 6, 71, 64
8, 3120, Note_on_c, 6, 72, 75
8, 3240, Note_off_c, 6, 72, 64
8, 3240, Note_on_c, 6, 69, 75
8, 3360, Note_off_c, 6, 69, 64
8, 3360, Note_on_c, 6, 67, 75
8, 3480, Note_off_c, 6, 67, 64
8, 3480, Note_on_c, 6, 69, 75
8, 3600, Note_off_c, 6, 69, 64
8, 3600, Note_on_c, 6, 71, 75
8, 3720, Note_off_c, 6, 71, 64
8, 3720, Note_on_c, 6, 67, 75
8, 3840, Note_off_c, 6, 67, 64
8, 3840, Note_on_c, 6, 66, 75
8, 3960, Note_off_c, 6, 66, 64
8, 3960, Note_on_c, 6, 67, 75
8, 4080, Note_off_c, 6, 67, 64
8, 4080, Note_on_c, 6, 69, 75
8, 4200, Note_off_c, 6, 69, 64
8, 4200, Note_on_c, 6, 66, 75
8, 4320, Note_off_c, 6, 66, 64
8, 4320, Note_on_c, 6, 69, 75
8, 4440, Note_off_c, 6, 69, 64
8, 4440, Note_on_c, 6, 67, 75
8, 4560, Note_off_c, 6, 67, 64
8, 4560, Note_on_c, 6, 66, 75
8, 4675, Note_off_c, 6, 66, 64
8, 5760, Note_on_c, 6, 71, 75
8, 6115, Note_off_c, 6, 71, 64
8, 6120, Note_on_c, 6, 67, 75
8, 6180, Note_off_c, 6, 67, 64
8, 6180, Note_on_c, 6, 69, 75
8, 6240, Note_off_c, 6, 69, 64
8, 6240, Note_on_c, 6, 71, 75
8, 6320, Note_off_c, 6, 71, 64
8, 6480, Note_on_c, 6, 71, 75
8, 6560, Note_off_c, 6, 71, 64
8, 6720, Note_on_c, 6, 71, 75
8, 6960, Note_off_c, 6, 71, 64
8, 6960, Note_on_c, 6, 74, 75
8, 7135, Note_off_c, 6, 74, 64
8, 7200, Note_on_c, 6, 71, 75
8, 7555, Note_off_c, 6, 71, 64
8, 7560, Note_on_c, 6, 67, 75
8, 7620, Note_off_c, 6, 67, 64
8, 7620, Note_on_c, 6, 69, 75
8, 7680, Note_off_c, 6, 69, 64
8, 7680, Note_on_c, 6, 71, 75
8, 8080, Note_off_c, 6, 71, 64
8, 8880, Note_on_c, 6, 67, 75
8, 9355, Note_off_c, 6, 67, 64
8, 9360, Note_on_c, 6, 64, 75
8, 9600, Note_off_c, 6, 64, 64
8, 9600, Note_on_c, 6, 60, 75
8, 9840, Note_off_c, 6, 60, 64
8, 9840, Note_on_c, 6, 59, 75
8, 10075, Note_off_c, 6, 59, 64
8, 10080, Note_on_c, 6, 60, 75
8, 10200, Note_off_c, 6, 60, 64
8, 10200, Note_on_c, 6, 59, 73
8, 10315, Note_off_c, 6, 59, 64
8, 10320, Note_on_c, 6, 57, 71
8, 10440, Note_off_c, 6, 57, 64
8, 10440, Note_on_c, 6, 55, 69
8, 10555, Note_off_c, 6, 55, 64
8, 10560, Note_on_c, 6, 57, 67
8, 10960, Note_off_c, 6, 57, 64
8, 11520, Note_on_c, 6, 71, 45
8, 11640, Note_off_c, 6, 71, 64
8, 11640, Note_on_c, 6, 69, 45
8, 11755, Note_off_c, 6, 69, 64
8, 11760, Note_on_c, 6, 67, 45
8, 11880, Note_off_c, 6, 67, 64
8, 11880, Note_on_c, 6, 66, 45
8, 11995, Note_off_c, 6, 66, 64
8, 12000, Note_on_c, 6, 66, 45
8, 12080, Note_off_c, 6, 66, 64
8, 12240, Note_on_c, 6, 66, 45
8, 12320, Note_off_c, 6, 66, 64
8, 12480, Note_on_c, 6, 66, 45
8, 12720, Note_off_c, 6, 66, 64
8, 12720, Note_on_c, 6, 69, 45
8, 12955, Note_off_c, 6, 69, 64
8, 12960, Note_on_c, 6, 69, 45
8, 13080, Note_off_c, 6, 69, 64
8, 13080, Note_on_c, 6, 67, 45
8, 13195, Note_off_c, 6, 67, 64
8, 13200, Note_on_c, 6, 66, 45
8, 13320, Note_off_c, 6, 66, 64
8, 13320, Note_on_c, 6, 64, 45
8, 13435, Note_off_c, 6, 64, 64
8, 13440, Note_on_c, 6, 64, 45
8, 13840, Note_off_c, 6, 64, 64
8, 14400, Note_on_c, 6, 62, 45
8, 14760, Note_off_c, 6, 62, 64
8, 14760, Note_on_c, 6, 64, 45
8, 14820, Note_off_c, 6, 64, 64
8, 14820, Note_on_c, 6, 66, 45
8, 14875, Note_off_c, 6, 66, 64
8, 14880, Note_on_c, 6, 61, 45
8, 15280, Note_off_c, 6, 61, 64
8, 15360, Note_on_c, 6, 62, 45
8, 15760, Note_off_c, 6, 62, 64
8, 15840, Note_on_c, 6, 64, 45
8, 15960, Note_off_c, 6, 64, 64
8, 15960, Note_on_c, 6, 62, 45
8, 16075, Note_off_c, 6, 62, 64
8, 16080, Note_on_c, 6, 61, 45
8, 16200, Note_off_c, 6, 61, 64
8, 16200, Note_on_c, 6, 62, 45
8, 16315, Note_off_c, 6, 62, 64
8, 16320, Note_on_c, 6, 61, 45
8, 16720, Note_off_c, 6, 61, 64
8, 17280, Note_on_c, 6, 71, 60
8, 17400, Note_off_c, 6, 71, 64
8, 17400, Note_on_c, 6, 69, 60
8, 17515, Note_off_c, 6, 69, 64
8, 17520, Note_on_c, 6, 67, 60
8, 17640, Note_off_c, 6, 67, 64
8, 17640, Note_on_c, 6, 66, 60
8, 17755, Note_off_c, 6, 66, 64
8, 17760, Note_on_c, 6, 66, 60
8, 17840, Note_off_c, 6, 66, 64
8, 18000, Note_on_c, 6, 66, 60
8, 18080, Note_off_c, 6, 66, 64
8, 18240, Note_on_c, 6, 66, 60
8, 18480, Note_off_c, 6, 66, 64
8, 18480, Note_on_c, 6, 69, 60
8, 18715, Note_off_c, 6, 69, 64
8, 18720, Note_on_c, 6, 69, 60
8, 18840, Note_off_c, 6, 69, 64
8, 18840, Note_on_c, 6, 67, 60
8, 18955, Note_off_c, 6, 67, 64
8, 18960, Note_on_c, 6, 66, 60
8, 19080, Note_off_c, 6, 66, 64
8, 19080, Note_on_c, 6, 64, 60
8, 19195, Note_off_c, 6, 64, 64
8, 19200, Note_on_c, 6, 64, 60
8, 19600, Note_off_c, 6, 64, 64
8, 20160, Note_on_c, 6, 62, 60
8, 21480, Note_off_c, 6, 62, 64
8, 21600, Note_on_c, 6, 64, 60
8, 21835, Note_off_c, 6, 64, 64
8, 21840, Note_on_c, 6, 73, 60
8, 21960, Note_off_c, 6, 73, 64
8, 21960, Note_on_c, 6, 74, 61
8, 22075, Note_off_c, 6, 74, 64
8, 22080, Note_on_c, 6, 76, 62
8, 22200, Note_off_c, 6, 76, 64
8, 22200, Note_on_c, 6, 78, 63
8, 22315, Note_off_c, 6, 78, 64
8, 22320, Note_on_c, 6, 79, 64
8, 22440, Note_off_c, 6, 79, 64
8, 22440, Note_on_c, 6, 78, 65
8, 22555, Note_off_c, 6, 78, 64
8, 22560, Note_on_c, 6, 81, 67
8, 22680, Note_off_c, 6, 81, 64
8, 22680, Note_on_c, 6, 79, 69
8, 22795, Note_off_c, 6, 79, 64
8, 22800, Note_on_c, 6, 78, 71
8, 22920, Note_off_c, 6, 78, 64
8, 22920, Note_on_c, 6, 76, 73
8, 23035, Note_off_c, 6, 76, 64
8, 23040, Note_on_c, 6, 74, 75
8, 23280, Note_off_c, 6, 74, 64
8, 23280, Note_on_c, 6, 69, 75
8, 23515, Note_off_c, 6, 69, 64
8, 23520, Note_on_c, 6, 69, 75
8, 23755, Note_off_c, 6, 69, 64
8, 23760, Note_on_c, 6, 69, 75
8, 23995, Note_off_c, 6, 69, 64
8, 24000, Note_on_c, 6, 69, 75
8, 24235, Note_off_c, 6, 69, 64
8, 24240, Note_on_c, 6, 69, 75
8, 24475, Note_off_c, 6, 69, 64
8, 24480, Note_on_c, 6, 69, 75
8, 24715, Note_off_c, 6, 69, 64
8, 24720, Note_on_c, 6, 67, 75
8, 24840, Note_off_c, 6, 67, 64
8, 24840, Note_on_c, 6, 66, 75
8, 24955, Note_off_c, 6, 66, 64
8, 24960, Note_on_c, 6, 67, 75
8, 25200, Note_off_c, 6, 67, 64
8, 25200, Note_on_c, 6, 66, 75
8, 25435, Note_off_c, 6, 66, 64
8, 25440, Note_on_c, 6, 64, 75
8, 25680, Note_off_c, 6, 64, 64
8, 25680, Note_on_c, 6, 62, 75
8, 25915, Note_off_c, 6, 62, 64
8, 25920, Note_on_c, 6, 61, 75
8, 26155, Note_off_c, 6, 61, 64
8, 26160, Note_on_c, 6, 61, 75
8, 26635, Note_off_c, 6, 61, 64
8, 26640, Note_on_c, 6, 61, 75
8, 26880, Note_off_c, 6, 61, 64
8, 26880, Note_on_c, 6, 64, 75
8, 27115, Note_off_c, 6, 64, 64
8, 27120, Note_on_c, 6, 64, 75
8, 27355, Note_off_c, 6, 64, 64
8, 27360, Note_on_c, 6, 64, 69
8, 27840, Note_off_c, 6, 64, 64
8, 27840, Note_on_c, 6, 62, 56
8, 28240, Note_off_c, 6, 62, 64
8, 28920, Note_on_c, 6, 62, 30
8, 29040, Note_off_c, 6, 62, 64
8, 29040, Note_on_c, 6, 61, 31
8, 29120, Note_off_c, 6, 61, 64
8, 29160, Note_on_c, 6, 62, 32
8, 29240, Note_off_c, 6, 62, 64
8, 29280, Note_on_c, 6, 64, 33
8, 29400, Note_off_c, 6, 64, 64
8, 29400, Note_on_c, 6, 62, 34
8, 29480, Note_off_c, 6, 62, 64
8, 29520, Note_on_c, 6, 66, 35
8, 29640, Note_off_c, 6, 66, 64
8, 29640, Note_on_c, 6, 64, 36
8, 29720, Note_off_c, 6, 64, 64
8, 29760, Note_on_c, 6, 67, 37
8, 29880, Note_off_c, 6, 67, 64
8, 29880, Note_on_c, 6, 66, 39
8, 29960, Note_off_c, 6, 66, 64
8, 30000, Note_on_c, 6, 64, 41
8, 30120, Note_off_c, 6, 64, 64
8, 30120, Note_on_c, 6, 63, 43
8, 30200, Note_off_c, 6, 63, 64
8, 30360, Note_on_c, 6, 64, 45
8, 30445, Note_off_c, 6, 64, 64
8, 30480, Note_on_c, 6, 63, 45
8, 30560, Note_off_c, 6, 63, 64
8, 30600, Note_on_c, 6, 64, 45
8, 30680, Note_off_c, 6, 64, 64
8, 30720, Note_on_c, 6, 66, 45
8, 30840, Note_off_c, 6, 66, 64
8, 30840, Note_on_c, 6, 64, 45
8, 30920, Note_off_c, 6, 64, 64
8, 30960, Note_on_c, 6, 67, 45
8, 31080, Note_off_c, 6, 67, 64
8, 31080, Note_on_c, 6, 66, 45
8, 31160, Note_off_c, 6, 66, 64
8, 31200, Note_on_c, 6, 69, 45
8, 31320, Note_off_c, 6, 69, 64
8, 31320, Note_on_c, 6, 67, 45
8, 31400, Note_off_c, 6, 67, 64
8, 31440, Note_on_c, 6, 66, 45
8, 31560, Note_off_c, 6, 66, 64
8, 31560, Note_on_c, 6, 64, 45
8, 31675, Note_off_c, 6, 64, 64
8, 31800, Note_on_c, 6, 66, 48
8, 31920, Note_off_c, 6, 66, 64
8, 31920, Note_on_c, 6, 67, 52
8, 32000, Note_off_c, 6, 67, 64
8, 32040, Note_on_c, 6, 67, 56
8, 32120, Note_off_c, 6, 67, 64
8, 32160, Note_on_c, 6, 69, 60
8, 32240, Note_off_c, 6, 69, 64
8, 32280, Note_on_c, 6, 69, 64
8, 32360, Note_off_c, 6, 69, 64
8, 32400, Note_on_c, 6, 71, 68
8, 32480, Note_off_c, 6, 71, 64
8, 32520, Note_on_c, 6, 71, 72
8, 32600, Note_off_c, 6, 71, 64
8, 32640, Note_on_c, 6, 73, 76
8, 32720, Note_off_c, 6, 73, 64
8, 32760, Note_on_c, 6, 73, 80
8, 32840, Note_off_c, 6, 73, 64
8, 32880, Note_on_c, 6, 74, 84
8, 32960, Note_off_c, 6, 74, 64
8, 33000, Note_on_c, 6, 74, 88
8, 33080, Note_off_c, 6, 74, 64
8, 33120, Note_on_c, 6, 73, 92
8, 33240, Note_off_c, 6, 73, 64
8, 33240, Note_on_c, 6, 71, 92
8, 33355, Note_off_c, 6, 71, 64
8, 33360, Note_on_c, 6, 69, 92
8, 33480, Note_off_c, 6, 69, 64
8, 33480, Note_on_c, 6, 67, 92
8, 33595, Note_off_c, 6, 67, 64
8, 33600, Note_on_c, 6, 66, 92
8, 34000, Note_off_c, 6, 66, 64
8, 34080, Note_on_c, 6, 64, 61
8, 34110, Note_off_c, 6, 64, 64
8, 34110, Note_on_c, 6, 66, 60
8, 34140, Note_off_c, 6, 66, 64
8, 34140, Note_on_c, 6, 64, 58
8, 34170, Note_off_c, 6, 64, 64
8, 34170, Note_on_c, 6, 66, 56
8, 34200, Note_off_c, 6, 66, 64
8, 34200, Note_on_c, 6, 64, 54
8, 34230, Note_off_c, 6, 64, 64
8, 34230, Note_on_c, 6, 64, 52
8, 34260, Note_off_c, 6, 64, 64
8, 34260, Note_on_c, 6, 66, 50
8, 34290, Note_off_c, 6, 66, 64
8, 34290, Note_on_c, 6, 64, 48
8, 34320, Note_off_c, 6, 64, 64
8, 34320, Note_on_c, 6, 66, 46
8, 34350, Note_off_c, 6, 66, 64
8, 34350, Note_on_c, 6, 64, 44
8, 34380, Note_off_c, 6, 64, 64
8, 34380, Note_on_c, 6, 66, 42
8, 34410, Note_off_c, 6, 66, 64
8, 34410, Note_on_c, 6, 66, 40
8, 34440, Note_off_c, 6, 66, 64
8, 34440, Note_on_c, 6, 62, 38
8, 34500, Note_off_c, 6, 62, 64
8, 34500, Note_on_c, 6, 64, 34
8, 34555, Note_off_c, 6, 64, 64
8, 34680, Note_on_c, 6, 62, 30
8, 34800, Note_off_c, 6, 62, 64
8, 34800, Note_on_c, 6, 61, 31
8, 34855, Note_off_c, 6, 61, 64
8, 34920, Note_on_c, 6, 62, 31
8, 35005, Note_off_c, 6, 62, 64
8, 35040, Note_on_c, 6, 64, 32
8, 35160, Note_off_c, 6, 64, 64
8, 35160, Note_on_c, 6, 62, 33
8, 35215, Note_off_c, 6, 62, 64
8, 35280, Note_on_c, 6, 66, 33
8, 35400, Note_off_c, 6, 66, 64
8, 35400, Note_on_c, 6, 64, 35
8, 35455, Note_off_c, 6, 64, 64
8, 35520, Note_on_c, 6, 67, 37
8, 35640, Note_off_c, 6, 67, 64
8, 35640, Note_on_c, 6, 66, 39
8, 35695, Note_off_c, 6, 66, 64
8, 35760, Note_on_c, 6, 64, 41
8, 35880, Note_off_c, 6, 64, 64
8, 35880, Note_on_c, 6, 63, 43
8, 35995, Note_off_c, 6, 63, 64
8, 36120, Note_on_c, 6, 64, 45
8, 36240, Note_off_c, 6, 64, 64
8, 36240, Note_on_c, 6, 63, 45
8, 36320, Note_off_c, 6, 63, 64
8, 36360, Note_on_c, 6, 64, 45
8, 36440, Note_off_c, 6, 64, 64
8, 36480, Note_on_c, 6, 66, 45
8, 36600, Note_off_c, 6, 66, 64
8, 36600, Note_on_c, 6, 64, 45
8, 36655, Note_off_c, 6, 64, 64
8, 36720, Note_on_c, 6, 67, 45
8, 36840, Note_off_c, 6, 67, 64
8, 36840, Note_on_c, 6, 66, 45
8, 36895, Note_off_c, 6, 66, 64
8, 36960, Note_on_c, 6, 69, 45
8, 37080, Note_off_c, 6, 69, 64
8, 37080, Note_on_c, 6, 67, 45
8, 37135, Note_off_c, 6, 67, 64
8, 37200, Note_on_c, 6, 66, 45
8, 37320, Note_off_c, 6, 66, 64
8, 37320, Note_on_c, 6, 64, 45
8, 37435, Note_off_c, 6, 64, 64
8, 37560, Note_on_c, 6, 66, 47
8, 37680, Note_off_c, 6, 66, 64
8, 37680, Note_on_c, 6, 67, 49
8, 37760, Note_off_c, 6, 67, 64
8, 37800, Note_on_c, 6, 67, 51
8, 37880, Note_off_c, 6, 67, 64
8, 37920, Note_on_c, 6, 69, 53
8, 38000, Note_off_c, 6, 69, 64
8, 38040, Note_on_c, 6, 69, 55
8, 38120, Note_off_c, 6, 69, 64
8, 38160, Note_on_c, 6, 71, 57
8, 38240, Note_off_c, 6, 71, 64
8, 38280, Note_on_c, 6, 71, 60
8, 38360, Note_off_c, 6, 71, 64
8, 38400, Note_on_c, 6, 73, 63
8, 38480, Note_off_c, 6, 73, 64
8, 38520, Note_on_c, 6, 73, 66
8, 38600, Note_off_c, 6, 73, 64
8, 38640, Note_on_c, 6, 74, 69
8, 38720, Note_off_c, 6, 74, 64
8, 38760, Note_on_c, 6, 74, 72
8, 38840, Note_off_c, 6, 74, 64
8, 38880, Note_on_c, 6, 73, 75
8, 39000, Note_off_c, 6, 73, 64
8, 39000, Note_on_c, 6, 71, 75
8, 39115, Note_off_c, 6, 71, 64
8, 39120, Note_on_c, 6, 69, 75
8, 39240, Note_off_c, 6, 69, 64
8, 39240, Note_on_c, 6, 67, 75
8, 39355, Note_off_c, 6, 67, 64
8, 39360, Note_on_c, 6, 66, 75
8, 39760, Note_off_c, 6, 66, 64
8, 39840, Note_on_c, 6, 64, 75
8, 39870, Note_off_c, 6, 64, 64
8, 39870, Note_on_c, 6, 66, 75
8, 39900, Note_off_c, 6, 66, 64
8, 39900, Note_on_c, 6, 64, 75
8, 39930, Note_off_c, 6, 64, 64
8, 39930, Note_on_c, 6, 66, 75
8, 39960, Note_off_c, 6, 66, 64
8, 39960, Note_on_c, 6, 64, 75
8, 39990, Note_off_c, 6, 64, 64
8, 39990, Note_on_c, 6, 66, 75
8, 40020, Note_off_c, 6, 66, 64
8, 40020, Note_on_c, 6, 64, 75
8, 40050, Note_off_c, 6, 64, 64
8, 40050, Note_on_c, 6, 66, 75
8, 40080, Note_off_c, 6, 66, 64
8, 40080, Note_on_c, 6, 64, 75
8, 40110, Note_off_c, 6, 64, 64
8, 40110, Note_on_c, 6, 66, 75
8, 40140, Note_off_c, 6, 66, 64
8, 40140, Note_on_c, 6, 64, 75
8, 40170, Note_off_c, 6, 64, 64
8, 40170, Note_on_c, 6, 66, 75
8, 40200, Note_off_c, 6, 66, 64
8, 40200, Note_on_c, 6, 64, 75
8, 40230, Note_off_c, 6, 64, 64
8, 40230, Note_on_c, 6, 66, 75
8, 40260, Note_off_c, 6, 66, 64
8, 40260, Note_on_c, 6, 62, 75
8, 40290, Note_off_c, 6, 62, 64
8, 40290, Note_on_c, 6, 64, 75
8, 40320, Note_off_c, 6, 64, 64
8, 40320, Note_on_c, 6, 66, 75
8, 40555, Note_off_c, 6, 66, 64
8, 40560, Note_on_c, 6, 69, 92
8, 41200, Note_off_c, 6, 69, 64
8, 41280, Note_on_c, 6, 69, 92
8, 41995, Note_off_c, 6, 69, 64
8, 42000, Note_on_c, 6, 66, 75
8, 42240, Note_off_c, 6, 66, 64
8, 42240, Note_on_c, 6, 62, 75
8, 42475, Note_off_c, 6, 62, 64
8, 42480, Note_on_c, 6, 57, 75
8, 42715, Note_off_c, 6, 57, 64
8, 42720, Note_on_c, 6, 57, 65
8, 43120, Note_off_c, 6, 57, 64
8, 43200, Note_on_c, 6, 57, 45
8, 44520, Note_off_c, 6, 57, 64
8, 44760, Note_on_c, 6, 62, 45
8, 44880, Note_off_c, 6, 62, 64
8, 44880, Note_on_c, 6, 66, 45
8, 45000, Note_off_c, 6, 66, 64
8, 45000, Note_on_c, 6, 69, 45
8, 45120, Note_off_c, 6, 69, 64
8, 45120, Note_on_c, 6, 66, 45
8, 45235, Note_off_c, 6, 66, 64
8, 45240, Note_on_c, 6, 62, 45
8, 45360, Note_off_c, 6, 62, 64
8, 45360, Note_on_c, 6, 66, 45
8, 45480, Note_off_c, 6, 66, 64
8, 45480, Note_on_c, 6, 69, 45
8, 45600, Note_off_c, 6, 69, 64
8, 45600, Note_on_c, 6, 66, 45
8, 45715, Note_off_c, 6, 66, 64
8, 45720, Note_on_c, 6, 62, 45
8, 45840, Note_off_c, 6, 62, 64
8, 45840, Note_on_c, 6, 66, 45
8, 45960, Note_off_c, 6, 66, 64
8, 45960, Note_on_c, 6, 69, 45
8, 46080, Note_off_c, 6, 69, 64
8, 46080, Note_on_c, 6, 66, 45
8, 46195, Note_off_c, 6, 66, 64
8, 46200, Note_on_c, 6, 62, 45
8, 46320, Note_off_c, 6, 62, 64
8, 46320, Note_on_c, 6, 66, 45
8, 46440, Note_off_c, 6, 66, 64
8, 46440, Note_on_c, 6, 69, 45
8, 46560, Note_off_c, 6, 69, 64
8, 46560, Note_on_c, 6, 66, 45
8, 46675, Note_off_c, 6, 66, 64
8, 46680, Note_on_c, 6, 62, 45
8, 46800, Note_off_c, 6, 62, 64
8, 46800, Note_on_c, 6, 66, 45
8, 46920, Note_off_c, 6, 66, 64
8, 46920, Note_on_c, 6, 69, 45
8, 47040, Note_off_c, 6, 69, 64
8, 47040, Note_on_c, 6, 66, 45
8, 47155, Note_off_c, 6, 66, 64
8, 47160, Note_on_c, 6, 62, 45
8, 47280, Note_off_c, 6, 62, 64
8, 47280, Note_on_c, 6, 66, 45
8, 47400, Note_off_c, 6, 66, 64
8, 47400, Note_on_c, 6, 69, 45
8, 47520, Note_off_c, 6, 69, 64
8, 47520, Note_on_c, 6, 66, 45
8, 47635, Note_off_c, 6, 66, 64
8, 47640, Note_on_c, 6, 62, 45
8, 47760, Note_off_c, 6, 62, 64
8, 47760, Note_on_c, 6, 67, 45
8, 47880, Note_off_c, 6, 67, 64
8, 47880, Note_on_c, 6, 71, 45
8, 48000, Note_off_c, 6, 71, 64
8, 48000, Note_on_c, 6, 67, 45
8, 48115, Note_off_c, 6, 67, 64
8, 48120, Note_on_c, 6, 62, 45
8, 48240, Note_off_c, 6, 62, 64
8, 48240, Note_on_c, 6, 67, 45
8, 48360, Note_off_c, 6, 67, 64
8, 48360, Note_on_c, 6, 71, 45
8, 48480, Note_off_c, 6, 71, 64
8, 48480, Note_on_c, 6, 67, 45
8, 48595, Note_off_c, 6, 67, 64
8, 48600, Note_on_c, 6, 62, 45
8, 48720, Note_off_c, 6, 62, 64
8, 48720, Note_on_c, 6, 67, 45
8, 48840, Note_off_c, 6, 67, 64
8, 48840, Note_on_c, 6, 71, 45
8, 48960, Note_off_c, 6, 71, 64
8, 48960, Note_on_c, 6, 67, 45
8, 49075, Note_off_c, 6, 67, 64
8, 49080, Note_on_c, 6, 64, 45
8, 49200, Note_off_c, 6, 64, 64
8, 49200, Note_on_c, 6, 69, 45
8, 49320, Note_off_c, 6, 69, 64
8, 49320, Note_on_c, 6, 72, 45
8, 49440, Note_off_c, 6, 72, 64
8, 49440, Note_on_c, 6, 64, 45
8, 49555, Note_off_c, 6, 64, 64
8, 49560, Note_on_c, 6, 62, 45
8, 49680, Note_off_c, 6, 62, 64
8, 49680, Note_on_c, 6, 66, 45
8, 49800, Note_off_c, 6, 66, 64
8, 49800, Note_on_c, 6, 72, 45
8, 49920, Note_off_c, 6, 72, 64
8, 49920, Note_on_c, 6, 66, 45
8, 50035, Note_off_c, 6, 66, 64
8, 50040, Note_on_c, 6, 62, 45
8, 50160, Note_off_c, 6, 62, 64
8, 50160, Note_on_c, 6, 66, 45
8, 50280, Note_off_c, 6, 66, 64
8, 50280, Note_on_c, 6, 69, 45
8, 50400, Note_off_c, 6, 69, 64
8, 50400, Note_on_c, 6, 57, 45
8, 50515, Note_off_c, 6, 57, 64
8, 50520, Note_on_c, 6, 55, 45
8, 50640, Note_off_c, 6, 55, 64
8, 50640, Note_on_c, 6, 59, 46
8, 50760, Note_off_c, 6, 59, 64
8, 50760, Note_on_c, 6, 62, 47
8, 50880, Note_off_c, 6, 62, 64
8, 50880, Note_on_c, 6, 59, 48
8, 50995, Note_off_c, 6, 59, 64
8, 51000, Note_on_c, 6, 55, 49
8, 51120, Note_off_c, 6, 55, 64
8, 51120, Note_on_c, 6, 59, 50
8, 51240, Note_off_c, 6, 59, 64
8, 51240, Note_on_c, 6, 62, 51
8, 51360, Note_off_c, 6, 62, 64
8, 51360, Note_on_c, 6, 59, 52
8, 51475, Note_off_c, 6, 59, 64
8, 51480, Note_on_c, 6, 55, 53
8, 51600, Note_off_c, 6, 55, 64
8, 51600, Note_on_c, 6, 62, 54
8, 51720, Note_off_c, 6, 62, 64
8, 51720, Note_on_c, 6, 67, 55
8, 51840, Note_off_c, 6, 67, 64
8, 51840, Note_on_c, 6, 62, 56
8, 51955, Note_off_c, 6, 62, 64
8, 51960, Note_on_c, 6, 64, 57
8, 52195, Note_off_c, 6, 64, 64
8, 52200, Note_on_c, 6, 76, 60
8, 52675, Note_off_c, 6, 76, 64
8, 52680, Note_on_c, 6, 74, 60
8, 52920, Note_off_c, 6, 74, 64
8, 52920, Note_on_c, 6, 72, 60
8, 53160, Note_off_c, 6, 72, 64
8, 53160, Note_on_c, 6, 71, 60
8, 53395, Note_off_c, 6, 71, 64
8, 53400, Note_on_c, 6, 71, 60
8, 53430, Note_off_c, 6, 71, 64
8, 53430, Note_on_c, 6, 72, 60
8, 53460, Note_off_c, 6, 72, 64
8, 53460, Note_on_c, 6, 71, 60
8, 53490, Note_off_c, 6, 71, 64
8, 53490, Note_on_c, 6, 72, 60
8, 53520, Note_off_c, 6, 72, 64
8, 53520, Note_on_c, 6, 71, 60
8, 53550, Note_off_c, 6, 71, 64
8, 53550, Note_on_c, 6, 72, 60
8, 53580, Note_off_c, 6, 72, 64
8, 53580, Note_on_c, 6, 71, 60
8, 53610, Note_off_c, 6, 71, 64
8, 53610, Note_on_c, 6, 72, 60
8, 53640, Note_off_c, 6, 72, 64
8, 53640, Note_on_c, 6, 71, 60
8, 53670, Note_off_c, 6, 71, 64
8, 53670, Note_on_c, 6, 72, 60
8, 53700, Note_off_c, 6, 72, 64
8, 53700, Note_on_c, 6, 71, 60
8, 53730, Note_off_c, 6, 71, 64
8, 53730, Note_on_c, 6, 72, 60
8, 53760, Note_off_c, 6, 72, 64
8, 53760, Note_on_c, 6, 71, 60
8, 53790, Note_off_c, 6, 71, 64
8, 53790, Note_on_c, 6, 72, 60
8, 53820, Note_off_c, 6, 72, 64
8, 53820, Note_on_c, 6, 69, 60
8, 53850, Note_off_c, 6, 69, 64
8, 53850, Note_on_c, 6, 71, 60
8, 53880, Note_off_c, 6, 71, 64
8, 53880, Note_on_c, 6, 69, 60
8, 54115, Note_off_c, 6, 69, 64
8, 54840, Note_on_c, 6, 71, 75
8, 55195, Note_off_c, 6, 71, 64
8, 55200, Note_on_c, 6, 67, 75
8, 55260, Note_off_c, 6, 67, 64
8, 55260, Note_on_c, 6, 69, 75
8, 55320, Note_off_c, 6, 69, 64
8, 55320, Note_on_c, 6, 71, 75
8, 55400, Note_off_c, 6, 71, 64
8, 55560, Note_on_c, 6, 71, 75
8, 55640, Note_off_c, 6, 71, 64
8, 55800, Note_on_c, 6, 71, 75
8, 56040, Note_off_c, 6, 71, 64
8, 56040, Note_on_c, 6, 74, 75
8, 56275, Note_off_c, 6, 74, 64
8, 56280, Note_on_c, 6, 71, 75
8, 56635, Note_off_c, 6, 71, 64
8, 56640, Note_on_c, 6, 67, 75
8, 56700, Note_off_c, 6, 67, 64
8, 56700, Note_on_c, 6, 69, 75
8, 56760, Note_off_c, 6, 69, 64
8, 56760, Note_on_c, 6, 71, 75
8, 57160, Note_off_c, 6, 71, 64
8, 57720, Note_on_c, 6, 69, 75
8, 57840, Note_off_c, 6, 69, 64
8, 57840, Note_on_c, 6, 71, 75
8, 57960, Note_off_c, 6, 71, 64
8, 57960, Note_on_c, 6, 72, 75
8, 58080, Note_off_c, 6, 72, 64
8, 58080, Note_on_c, 6, 69, 75
8, 58200, Note_off_c, 6, 69, 64
8, 58200, Note_on_c, 6, 67, 75
8, 58320, Note_off_c, 6, 67, 64
8, 58320, Note_on_c, 6, 69, 75
8, 58440, Note_off_c, 6, 69, 64
8, 58440, Note_on_c, 6, 71, 75
8, 58560, Note_off_c, 6, 71, 64
8, 58560, Note_on_c, 6, 67, 75
8, 58680, Note_off_c, 6, 67, 64
8, 58680, Note_on_c, 6, 66, 75
8, 58800, Note_off_c, 6, 66, 64
8, 58800, Note_on_c, 6, 67, 75
8, 58920, Note_off_c, 6, 67, 64
8, 58920, Note_on_c, 6, 69, 75
8, 59040, Note_off_c, 6, 69, 64
8, 59040, Note_on_c, 6, 66, 75
8, 59160, Note_off_c, 6, 66, 64
8, 59160, Note_on_c, 6, 69, 75
8, 59280, Note_off_c, 6, 69, 64
8, 59280, Note_on_c, 6, 67, 75
8, 59400, Note_off_c, 6, 67, 64
8, 59400, Note_on_c, 6, 66, 75
8, 59515, Note_off_c, 6, 66, 64
8, 60600, Note_on_c, 6, 71, 75
8, 60955, Note_off_c, 6, 71, 64
8, 60960, Note_on_c, 6, 67, 75
8, 61020, Note_off_c, 6, 67, 64
8, 61020, Note_on_c, 6, 69, 75
8, 61080, Note_off_c, 6, 69, 64
8, 61080, Note_on_c, 6, 71, 75
8, 61160, Note_off_c, 6, 71, 64
8, 61320, Note_on_c, 6, 71, 75
8, 61400, Note_off_c, 6, 71, 64
8, 61560, Note_on_c, 6, 71, 75
8, 61800, Note_off_c, 6, 71, 64
8, 61800, Note_on_c, 6, 74, 75
8, 62035, Note_off_c, 6, 74, 64
8, 62040, Note_on_c, 6, 71, 75
8, 62395, Note_off_c, 6, 71, 64
8, 62400, Note_on_c, 6, 67, 75
8, 62460, Note_off_c, 6, 67, 64
8, 62460, Note_on_c, 6, 69, 75
8, 62520, Note_off_c, 6, 69, 64
8, 62520, Note_on_c, 6, 71, 75
8, 62920, Note_off_c, 6, 71, 64
8, 63720, Note_on_c, 6, 67, 75
8, 64195, Note_off_c, 6, 67, 64
8, 64200, Note_on_c, 6, 64, 75
8, 64440, Note_off_c, 6, 64, 64
8, 64440, Note_on_c, 6, 60, 75
8, 64680, Note_off_c, 6, 60, 64
8, 64680, Note_on_c, 6, 59, 75
8, 64915, Note_off_c, 6, 59, 64
8, 64920, Note_on_c, 6, 60, 75
8, 65040, Note_off_c, 6, 60, 64
8, 65040, Note_on_c, 6, 59, 68
8, 65155, Note_off_c, 6, 59, 64
8, 65160, Note_on_c, 6, 57, 61
8, 65280, Note_off_c, 6, 57, 64
8, 65280, Note_on_c, 6, 55, 53
8, 65395, Note_off_c, 6, 55, 64
8, 65400, Note_on_c, 6, 57, 45
8, 65800, Note_off_c, 6, 57, 64
8, 66360, Note_on_c, 6, 76, 45
8, 66480, Note_off_c, 6, 76, 64
8, 66480, Note_on_c, 6, 74, 45
8, 66595, Note_off_c, 6, 74, 64
8, 66600, Note_on_c, 6, 72, 45
8, 66720, Note_off_c, 6, 72, 64
8, 66720, Note_on_c, 6, 71, 45
8, 66835, Note_off_c, 6, 71, 64
8, 66840, Note_on_c, 6, 71, 45
8, 66920, Note_off_c, 6, 71, 64
8, 67080, Note_on_c, 6, 71, 45
8, 67160, Note_off_c, 6, 71, 64
8, 67320, Note_on_c, 6, 71, 45
8, 67560, Note_off_c, 6, 71, 64
8, 67560, Note_on_c, 6, 74, 45
8, 67795, Note_off_c, 6, 74, 64
8, 67800, Note_on_c, 6, 74, 45
8, 67920, Note_off_c, 6, 74, 64
8, 67920, Note_on_c, 6, 72, 45
8, 68035, Note_off_c, 6, 72, 64
8, 68040, Note_on_c, 6, 71, 45
8, 68155, Note_off_c, 6, 71, 64
8, 68160, Note_on_c, 6, 69, 45
8, 68275, Note_off_c, 6, 69, 64
8, 68280, Note_on_c, 6, 69, 45
8, 68680, Note_off_c, 6, 69, 64
8, 69240, Note_on_c, 6, 67, 45
8, 69640, Note_off_c, 6, 67, 64
8, 69720, Note_on_c, 6, 66, 45
8, 70200, Note_off_c, 6, 66, 64
8, 70200, Note_on_c, 6, 67, 45
8, 70600, Note_off_c, 6, 67, 64
8, 70680, Note_on_c, 6, 69, 45
8, 70800, Note_off_c, 6, 69, 64
8, 70800, Note_on_c, 6, 67, 45
8, 70915, Note_off_c, 6, 67, 64
8, 70920, Note_on_c, 6, 66, 45
8, 71040, Note_off_c, 6, 66, 64
8, 71040, Note_on_c, 6, 67, 45
8, 71155, Note_off_c, 6, 67, 64
8, 71160, Note_on_c, 6, 66, 45
8, 71560, Note_off_c, 6, 66, 64
8, 72120, Note_on_c, 6, 76, 45
8, 72240, Note_off_c, 6, 76, 64
8, 72240, Note_on_c, 6, 74, 45
8, 72355, Note_off_c, 6, 74, 64
8, 72360, Note_on_c, 6, 72, 45
8, 72480, Note_off_c, 6, 72, 64
8, 72480, Note_on_c, 6, 71, 45
8, 72595, Note_off_c, 6, 71, 64
8, 72600, Note_on_c, 6, 71, 45
8, 72680, Note_off_c, 6, 71, 64
8, 72840, Note_on_c, 6, 71, 45
8, 72920, Note_off_c, 6, 71, 64
8, 73080, Note_on_c, 6, 71, 45
8, 73320, Note_off_c, 6, 71, 64
8, 73320, Note_on_c, 6, 74, 45
8, 73555, Note_off_c, 6, 74, 64
8, 73560, Note_on_c, 6, 74, 45
8, 73680, Note_off_c, 6, 74, 64
8, 73680, Note_on_c, 6, 72, 45
8, 73795, Note_off_c, 6, 72, 64
8, 73800, Note_on_c, 6, 71, 45
8, 73920, Note_off_c, 6, 71, 64
8, 73920, Note_on_c, 6, 69, 45
8, 74035, Note_off_c, 6, 69, 64
8, 74040, Note_on_c, 6, 69, 45
8, 74440, Note_off_c, 6, 69, 64
8, 75000, Note_on_c, 6, 67, 45
8, 76320, Note_off_c, 6, 67, 64
8, 76440, Note_on_c, 6, 66, 45
8, 76675, Note_off_c, 6, 66, 64
8, 76680, Note_on_c, 6, 66, 45
8, 76800, Note_off_c, 6, 66, 64
8, 76800, Note_on_c, 6, 67, 45
8, 76915, Note_off_c, 6, 67, 64
8, 76920, Note_on_c, 6, 69, 45
8, 77040, Note_off_c, 6, 69, 64
8, 77040, Note_on_c, 6, 71, 45
8, 77155, Note_off_c, 6, 71, 64
8, 77160, Note_on_c, 6, 72, 45
8, 77280, Note_off_c, 6, 72, 64
8, 77280, Note_on_c, 6, 71, 45
8, 77395, Note_off_c, 6, 71, 64
8, 77400, Note_on_c, 6, 74, 45
8, 77520, Note_off_c, 6, 74, 64
8, 77520, Note_on_c, 6, 72, 45
8, 77635, Note_off_c, 6, 72, 64
8, 77640, Note_on_c, 6, 71, 45
8, 77760, Note_off_c, 6, 71, 64
8, 77760, Note_on_c, 6, 69, 45
8, 77875, Note_off_c, 6, 69, 64
8, 77880, Note_on_c, 6, 74, 45
8, 78115, Note_off_c, 6, 74, 64
8, 78120, Note_on_c, 6, 74, 45
8, 78355, Note_off_c, 6, 74, 64
8, 78360, Note_on_c, 6, 74, 45
8, 78595, Note_off_c, 6, 74, 64
8, 78600, Note_on_c, 6, 74, 45
8, 78835, Note_off_c, 6, 74, 64
8, 78840, Note_on_c, 6, 74, 45
8, 79075, Note_off_c, 6, 74, 64
8, 79080, Note_on_c, 6, 74, 45
8, 79315, Note_off_c, 6, 74, 64
8, 79320, Note_on_c, 6, 74, 45
8, 79555, Note_off_c, 6, 74, 64
8, 79560, Note_on_c, 6, 72, 47
8, 79680, Note_off_c, 6, 72, 64
8, 79680, Note_on_c, 6, 71, 48
8, 79795, Note_off_c, 6, 71, 64
8, 79800, Note_on_c, 6, 72, 49
8, 80040, Note_off_c, 6, 72, 64
8, 80040, Note_on_c, 6, 71, 51
8, 80275, Note_off_c, 6, 71, 64
8, 80280, Note_on_c, 6, 69, 54
8, 80520, Note_off_c, 6, 69, 64
8, 80520, Note_on_c, 6, 67, 57
8, 80755, Note_off_c, 6, 67, 64
8, 80760, Note_on_c, 6, 66, 60
8, 80995, Note_off_c, 6, 66, 64
8, 81000, Note_on_c, 6, 66, 63
8, 81235, Note_off_c, 6, 66, 64
8, 81240, Note_on_c, 6, 66, 66
8, 81475, Note_off_c, 6, 66, 64
8, 81480, Note_on_c, 6, 66, 69
8, 81715, Note_off_c, 6, 66, 64
8, 81720, Note_on_c, 6, 69, 72
8, 81955, Note_off_c, 6, 69, 64
8, 81960, Note_on_c, 6, 69, 75
8, 82195, Note_off_c, 6, 69, 64
8, 82200, Note_on_c, 6, 69, 75
8, 82680, Note_off_c, 6, 69, 64
8, 82680, Note_on_c, 6, 67, 45
8, 83080, Note_off_c, 6, 67, 64
8, 83760, Note_on_c, 6, 67, 45
8, 83880, Note_off_c, 6, 67, 64
8, 83880, Note_on_c, 6, 69, 45
8, 83960, Note_off_c, 6, 69, 64
8, 84000, Note_on_c, 6, 67, 45
8, 84040, Note_off_c, 6, 67, 64
8, 84120, Note_on_c, 6, 66, 45
8, 84240, Note_off_c, 6, 66, 64
8, 84240, Note_on_c, 6, 67, 45
8, 84280, Note_off_c, 6, 67, 64
8, 84360, Note_on_c, 6, 64, 45
8, 84480, Note_off_c, 6, 64, 64
8, 84480, Note_on_c, 6, 62, 45
8, 84520, Note_off_c, 6, 62, 64
8, 84600, Note_on_c, 6, 60, 45
8, 84720, Note_off_c, 6, 60, 64
8, 84720, Note_on_c, 6, 59, 45
8, 84760, Note_off_c, 6, 59, 64
8, 84840, Note_on_c, 6, 57, 45
8, 84960, Note_off_c, 6, 57, 64
8, 84960, Note_on_c, 6, 55, 45
8, 85000, Note_off_c, 6, 55, 64
8, 85200, Note_on_c, 6, 69, 45
8, 85320, Note_off_c, 6, 69, 64
8, 85320, Note_on_c, 6, 71, 45
8, 85360, Note_off_c, 6, 71, 64
8, 85440, Note_on_c, 6, 69, 45
8, 85520, Note_off_c, 6, 69, 64
8, 85560, Note_on_c, 6, 68, 45
8, 85680, Note_off_c, 6, 68, 64
8, 85680, Note_on_c, 6, 69, 45
8, 85720, Note_off_c, 6, 69, 64
8, 85800, Note_on_c, 6, 67, 45
8, 85920, Note_off_c, 6, 67, 64
8, 85920, Note_on_c, 6, 66, 45
8, 85960, Note_off_c, 6, 66, 64
8, 86040, Note_on_c, 6, 64, 45
8, 86160, Note_off_c, 6, 64, 64
8, 86160, Note_on_c, 6, 62, 45
8, 86200, Note_off_c, 6, 62, 64
8, 86280, Note_on_c, 6, 57, 45
8, 86400, Note_off_c, 6, 57, 64
8, 86400, Note_on_c, 6, 60, 45
8, 86480, Note_off_c, 6, 60, 64
8, 86640, Note_on_c, 6, 59, 47
8, 86760, Note_off_c, 6, 59, 64
8, 86760, Note_on_c, 6, 60, 49
8, 86840, Note_off_c, 6, 60, 64
8, 86880, Note_on_c, 6, 60, 51
8, 86960, Note_off_c, 6, 60, 64
8, 87000, Note_on_c, 6, 62, 53
8, 87080, Note_off_c, 6, 62, 64
8, 87120, Note_on_c, 6, 62, 55
8, 87200, Note_off_c, 6, 62, 64
8, 87240, Note_on_c, 6, 64, 57
8, 87320, Note_off_c, 6, 64, 64
8, 87360, Note_on_c, 6, 64, 60
8, 87440, Note_off_c, 6, 64, 64
8, 87480, Note_on_c, 6, 66, 63
8, 87560, Note_off_c, 6, 66, 64
8, 87600, Note_on_c, 6, 66, 66
8, 87680, Note_off_c, 6, 66, 64
8, 87720, Note_on_c, 6, 67, 69
8, 87800, Note_off_c, 6, 67, 64
8, 87840, Note_on_c, 6, 67, 72
8, 87920, Note_off_c, 6, 67, 64
8, 87960, Note_on_c, 6, 66, 75
8, 88080, Note_off_c, 6, 66, 64
8, 88080, Note_on_c, 6, 64, 75
8, 88195, Note_off_c, 6, 64, 64
8, 88200, Note_on_c, 6, 62, 75
8, 88320, Note_off_c, 6, 62, 64
8, 88320, Note_on_c, 6, 60, 75
8, 88435, Note_off_c, 6, 60, 64
8, 88440, Note_on_c, 6, 59, 75
8, 88840, Note_off_c, 6, 59, 64
8, 88920, Note_on_c, 6, 57, 60
8, 88950, Note_off_c, 6, 57, 64
8, 88950, Note_on_c, 6, 59, 60
8, 88980, Note_off_c, 6, 59, 64
8, 88980, Note_on_c, 6, 57, 59
8, 89010, Note_off_c, 6, 57, 64
8, 89010, Note_on_c, 6, 59, 58
8, 89040, Note_off_c, 6, 59, 64
8, 89040, Note_on_c, 6, 57, 57
8, 89070, Note_off_c, 6, 57, 64
8, 89070, Note_on_c, 6, 59, 56
8, 89100, Note_off_c, 6, 59, 64
8, 89100, Note_on_c, 6, 57, 55
8, 89130, Note_off_c, 6, 57, 64
8, 89130, Note_on_c, 6, 59, 54
8, 89160, Note_off_c, 6, 59, 64
8, 89160, Note_on_c, 6, 57, 53
8, 89190, Note_off_c, 6, 57, 64
8, 89190, Note_on_c, 6, 59, 52
8, 89220, Note_off_c, 6, 59, 64
8, 89220, Note_on_c, 6, 57, 51
8, 89250, Note_off_c, 6, 57, 64
8, 89250, Note_on_c, 6, 59, 50
8, 89280, Note_off_c, 6, 59, 64
8, 89280, Note_on_c, 6, 55, 49
8, 89340, Note_off_c, 6, 55, 64
8, 89340, Note_on_c, 6, 57, 47
8, 89395, Note_off_c, 6, 57, 64
8, 89520, Note_on_c, 6, 67, 45
8, 89640, Note_off_c, 6, 67, 64
8, 89640, Note_on_c, 6, 69, 45
8, 89720, Note_off_c, 6, 69, 64
8, 89760, Note_on_c, 6, 67, 45
8, 89800, Note_off_c, 6, 67, 64
8, 89880, Note_on_c, 6, 66, 45
8, 90000, Note_off_c, 6, 66, 64
8, 90000, Note_on_c, 6, 67, 45
8, 90040, Note_off_c, 6, 67, 64
8, 90120, Note_on_c, 6, 64, 45
8, 90240, Note_off_c, 6, 64, 64
8, 90240, Note_on_c, 6, 62, 45
8, 90280, Note_off_c, 6, 62, 64
8, 90360, Note_on_c, 6, 60, 45
8, 90480, Note_off_c, 6, 60, 64
8, 90480, Note_on_c, 6, 59, 45
8, 90520, Note_off_c, 6, 59, 64
8, 90600, Note_on_c, 6, 57, 45
8, 90720, Note_off_c, 6, 57, 64
8, 90720, Note_on_c, 6, 55, 45
8, 90760, Note_off_c, 6, 55, 64
8, 90960, Note_on_c, 6, 69, 45
8, 91080, Note_off_c, 6, 69, 64
8, 91080, Note_on_c, 6, 71, 45
8, 91120, Note_off_c, 6, 71, 64
8, 91200, Note_on_c, 6, 69, 45
8, 91280, Note_off_c, 6, 69, 64
8, 91320, Note_on_c, 6, 68, 45
8, 91440, Note_off_c, 6, 68, 64
8, 91440, Note_on_c, 6, 69, 45
8, 91480, Note_off_c, 6, 69, 64
8, 91560, Note_on_c, 6, 67, 45
8, 91680, Note_off_c, 6, 67, 64
8, 91680, Note_on_c, 6, 66, 45
8, 91720, Note_off_c, 6, 66, 64
8, 91800, Note_on_c, 6, 64, 45
8, 91920, Note_off_c, 6, 64, 64
8, 91920, Note_on_c, 6, 62, 45
8, 91960, Note_off_c, 6, 62, 64
8, 92040, Note_on_c, 6, 57, 45
8, 92160, Note_off_c, 6, 57, 64
8, 92160, Note_on_c, 6, 60, 45
8, 92240, Note_off_c, 6, 60, 64
8, 92400, Note_on_c, 6, 59, 46
8, 92520, Note_off_c, 6, 59, 64
8, 92520, Note_on_c, 6, 60, 47
8, 92600, Note_off_c, 6, 60, 64
8, 92640, Note_on_c, 6, 60, 48
8, 92720, Note_off_c, 6, 60, 64
8, 92760, Note_on_c, 6, 62, 49
8, 92840, Note_off_c, 6, 62, 64
8, 92880, Note_on_c, 6, 62, 50
8, 92960, Note_off_c, 6, 62, 64
8, 93000, Note_on_c, 6, 64, 51
8, 93080, Note_off_c, 6, 64, 64
8, 93120, Note_on_c, 6, 64, 52
8, 93200, Note_off_c, 6, 64, 64
8, 93240, Note_on_c, 6, 66, 53
8, 93320, Note_off_c, 6, 66, 64
8, 93360, Note_on_c, 6, 66, 54
8, 93440, Note_off_c, 6, 66, 64
8, 93480, Note_on_c, 6, 67, 56
8, 93560, Note_off_c, 6, 67, 64
8, 93600, Note_on_c, 6, 67, 58
8, 93680, Note_off_c, 6, 67, 64
8, 93720, Note_on_c, 6, 66, 60
8, 93840, Note_off_c, 6, 66, 64
8, 93840, Note_on_c, 6, 64, 60
8, 93955, Note_off_c, 6, 64, 64
8, 93960, Note_on_c, 6, 62, 60
8, 94080, Note_off_c, 6, 62, 64
8, 94080, Note_on_c, 6, 60, 60
8, 94195, Note_off_c, 6, 60, 64
8, 94200, Note_on_c, 6, 59, 60
8, 94600, Note_off_c, 6, 59, 64
8, 94680, Note_on_c, 6, 57, 60
8, 94710, Note_off_c, 6, 57, 64
8, 94710, Note_on_c, 6, 59, 60
8, 94740, Note_off_c, 6, 59, 64
8, 94740, Note_on_c, 6, 57, 61
8, 94770, Note_off_c, 6, 57, 64
8, 94770, Note_on_c, 6, 59, 62
8, 94800, Note_off_c, 6, 59, 64
8, 94800, Note_on_c, 6, 57, 63
8, 94830, Note_off_c, 6, 57, 64
8, 94830, Note_on_c, 6, 59, 64
8, 94860, Note_off_c, 6, 59, 64
8, 94860, Note_on_c, 6, 57, 65
8, 94890, Note_off_c, 6, 57, 64
8, 94890, Note_on_c, 6, 59, 66
8, 94920, Note_off_c, 6, 59, 64
8, 94920, Note_on_c, 6, 57, 67
8, 94950, Note_off_c, 6, 57, 64
8, 94950, Note_on_c, 6, 59, 68
8, 94980, Note_off_c, 6, 59, 64
8, 94980, Note_on_c, 6, 57, 69
8, 95010, Note_off_c, 6, 57, 64
8, 95010, Note_on_c, 6, 59, 70
8, 95040, Note_off_c, 6, 59, 64
8, 95040, Note_on_c, 6, 57, 71
8, 95070, Note_off_c, 6, 57, 64
8, 95070, Note_on_c, 6, 59, 72
8, 95100, Note_off_c, 6, 59, 64
8, 95100, Note_on_c, 6, 55, 73
8, 95130, Note_off_c, 6, 55, 64
8, 95130, Note_on_c, 6, 57, 74
8, 95155, Note_off_c, 6, 57, 64
8, 95160, Note_on_c, 6, 55, 75
8, 95400, Note_off_c, 6, 55, 64
8, 95400, Note_on_c, 6, 67, 75
8, 95635, Note_off_c, 6, 67, 64
8, 95640, Note_on_c, 6, 71, 75
8, 95880, Note_off_c, 6, 71, 64
8, 95880, Note_on_c, 6, 74, 75
8, 96115, Note_off_c, 6, 74, 64
8, 96120, Note_on_c, 6, 74, 72
8, 96835, Note_off_c, 6, 74, 64
8, 96840, Note_on_c, 6, 71, 60
8, 97080, Note_off_c, 6, 71, 64
8, 97080, Note_on_c, 6, 67, 60
8, 97320, Note_off_c, 6, 67, 64
8, 97320, Note_on_c, 6, 62, 60
8, 97555, Note_off_c, 6, 62, 64
8, 97560, Note_on_c, 6, 57, 60
8, 97800, Note_off_c, 6, 57, 64
8, 97800, Note_on_c, 6, 60, 53
8, 98035, Note_off_c, 6, 60, 64
8, 98040, Note_on_c, 6, 60, 45
8, 99000, Note_off_c, 6, 60, 64
8, 99000, Note_on_c, 6, 59, 45
8, 99400, Note_off_c, 6, 59, 64
8, 99400, End_track
9, 0, Start_track
9, 0, MIDI_port, 0
9, 0, Channel_prefix, 7
9, 0, Control_c, 7, 7, 127
9, 0, Control_c, 7, 10, 73
9, 0, Control_c, 7, 91, 127
9, 0, Program_c, 7, 48
9, 0, Note_on_c, 7, 55, 75
9, 595, Note_off_c, 7, 55, 64
9, 1440, Note_on_c, 7, 55, 75
9, 2035, Note_off_c, 7, 55, 64
9, 2160, Note_on_c, 7, 59, 75
9, 2400, Note_off_c, 7, 59, 64
9, 2400, Note_on_c, 7, 60, 75
9, 2640, Note_off_c, 7, 60, 64
9, 2640, Note_on_c, 7, 62, 75
9, 2880, Note_off_c, 7, 62, 64
9, 2880, Note_on_c, 7, 64, 75
9, 3360, Note_off_c, 7, 64, 64
9, 3360, Note_on_c, 7, 62, 75
9, 3840, Note_off_c, 7, 62, 64
9, 3840, Note_on_c, 7, 62, 75
9, 4320, Note_off_c, 7, 62, 64
9, 4320, Note_on_c, 7, 64, 75
9, 4440, Note_off_c, 7, 64, 64
9, 4440, Note_on_c, 7, 62, 75
9, 4560, Note_off_c, 7, 62, 64
9, 4560, Note_on_c, 7, 60, 75
9, 4680, Note_off_c, 7, 60, 64
9, 4680, Note_on_c, 7, 59, 75
9, 4800, Note_off_c, 7, 59, 64
9, 4800, Note_on_c, 7, 59, 75
9, 5200, Note_off_c, 7, 59, 64
9, 5760, Note_on_c, 7, 55, 75
9, 6355, Note_off_c, 7, 55, 64
9, 7200, Note_on_c, 7, 55, 75
9, 7795, Note_off_c, 7, 55, 64
9, 7920, Note_on_c, 7, 59, 75
9, 8160, Note_off_c, 7, 59, 64
9, 8160, Note_on_c, 7, 60, 75
9, 8400, Note_off_c, 7, 60, 64
9, 8400, Note_on_c, 7, 62, 75
9, 8635, Note_off_c, 7, 62, 64
9, 8640, Note_on_c, 7, 55, 75
9, 8875, Note_off_c, 7, 55, 64
9, 8880, Note_on_c, 7, 60, 75
9, 9000, Note_off_c, 7, 60, 64
9, 9000, Note_on_c, 7, 59, 75
9, 9120, Note_off_c, 7, 59, 64
9, 9120, Note_on_c, 7, 60, 75
9, 9355, Note_off_c, 7, 60, 64
9, 9360, Note_on_c, 7, 60, 75
9, 9600, Note_off_c, 7, 60, 64
9, 9600, Note_on_c, 7, 64, 75
9, 9840, Note_off_c, 7, 64, 64
9, 9840, Note_on_c, 7, 52, 75
9, 10075, Note_off_c, 7, 52, 64
9, 10080, Note_on_c, 7, 50, 75
9, 10675, Note_off_c, 7, 50, 64
9, 11520, Note_on_c, 7, 67, 45
9, 11640, Note_off_c, 7, 67, 64
9, 11640, Note_on_c, 7, 66, 45
9, 11755, Note_off_c, 7, 66, 64
9, 11760, Note_on_c, 7, 64, 45
9, 11880, Note_off_c, 7, 64, 64
9, 11880, Note_on_c, 7, 62, 45
9, 11995, Note_off_c, 7, 62, 64
9, 12000, Note_on_c, 7, 62, 45
9, 12080, Note_off_c, 7, 62, 64
9, 12240, Note_on_c, 7, 62, 45
9, 12320, Note_off_c, 7, 62, 64
9, 12480, Note_on_c, 7, 62, 45
9, 12720, Note_off_c, 7, 62, 64
9, 12720, Note_on_c, 7, 66, 45
9, 12955, Note_off_c, 7, 66, 64
9, 12960, Note_on_c, 7, 66, 45
9, 13080, Note_off_c, 7, 66, 64
9, 13080, Note_on_c, 7, 64, 45
9, 13195, Note_off_c, 7, 64, 64
9, 13200, Note_on_c, 7, 62, 45
9, 13320, Note_off_c, 7, 62, 64
9, 13320, Note_on_c, 7, 61, 45
9, 13435, Note_off_c, 7, 61, 64
9, 13440, Note_on_c, 7, 61, 45
9, 13840, Note_off_c, 7, 61, 64
9, 14640, Note_on_c, 7, 57, 45
9, 15115, Note_off_c, 7, 57, 64
9, 15120, Note_on_c, 7, 57, 45
9, 15595, Note_off_c, 7, 57, 64
9, 15600, Note_on_c, 7, 57, 45
9, 16240, Note_off_c, 7, 57, 64
9, 16320, Note_on_c, 7, 57, 45
9, 16720, Note_off_c, 7, 57, 64
9, 17520, Note_on_c, 7, 57, 60
9, 17755, Note_off_c, 7, 57, 64
9, 17760, Note_on_c, 7, 62, 60
9, 18000, Note_off_c, 7, 62, 64
9, 18000, Note_on_c, 7, 66, 60
9, 18235, Note_off_c, 7, 66, 64
9, 18240, Note_on_c, 7, 69, 60
9, 18640, Note_off_c, 7, 69, 64
9, 18960, Note_on_c, 7, 57, 60
9, 19195, Note_off_c, 7, 57, 64
9, 19200, Note_on_c, 7, 61, 60
9, 19440, Note_off_c, 7, 61, 64
9, 19440, Note_on_c, 7, 64, 60
9, 19675, Note_off_c, 7, 64, 64
9, 19680, Note_on_c, 7, 69, 60
9, 19920, Note_off_c, 7, 69, 64
9, 19920, Note_on_c, 7, 67, 60
9, 20155, Note_off_c, 7, 67, 64
9, 20160, Note_on_c, 7, 66, 60
9, 21000, Note_off_c, 7, 66, 64
9, 21120, Note_on_c, 7, 62, 60
9, 21520, Note_off_c, 7, 62, 64
9, 21600, Note_on_c, 7, 61, 60
9, 21835, Note_off_c, 7, 61, 64
9, 21840, Note_on_c, 7, 57, 60
9, 21960, Note_off_c, 7, 57, 64
9, 21960, Note_on_c, 7, 59, 61
9, 22075, Note_off_c, 7, 59, 64
9, 22080, Note_on_c, 7, 61, 62
9, 22200, Note_off_c, 7, 61, 64
9, 22200, Note_on_c, 7, 62, 63
9, 22315, Note_off_c, 7, 62, 64
9, 22320, Note_on_c, 7, 64, 64
9, 22440, Note_off_c, 7, 64, 64
9, 22440, Note_on_c, 7, 62, 65
9, 22555, Note_off_c, 7, 62, 64
9, 22560, Note_on_c, 7, 64, 67
9, 22795, Note_off_c, 7, 64, 64
9, 22800, Note_on_c, 7, 66, 71
9, 22920, Note_off_c, 7, 66, 64
9, 22920, Note_on_c, 7, 67, 73
9, 23035, Note_off_c, 7, 67, 64
9, 23040, Note_on_c, 7, 69, 75
9, 23280, Note_off_c, 7, 69, 64
9, 23280, Note_on_c, 7, 66, 75
9, 23515, Note_off_c, 7, 66, 64
9, 23520, Note_on_c, 7, 54, 75
9, 23755, Note_off_c, 7, 54, 64
9, 23760, Note_on_c, 7, 54, 75
9, 23995, Note_off_c, 7, 54, 64
9, 24000, Note_on_c, 7, 54, 75
9, 24235, Note_off_c, 7, 54, 64
9, 24240, Note_on_c, 7, 54, 75
9, 24480, Note_off_c, 7, 54, 64
9, 24480, Note_on_c, 7, 55, 75
9, 24715, Note_off_c, 7, 55, 64
9, 24720, Note_on_c, 7, 62, 75
9, 25195, Note_off_c, 7, 62, 64
9, 25200, Note_on_c, 7, 62, 75
9, 25315, Note_off_c, 7, 62, 64
9, 25320, Note_on_c, 7, 64, 75
9, 25380, Note_off_c, 7, 64, 64
9, 25380, Note_on_c, 7, 66, 75
9, 25435, Note_off_c, 7, 66, 64
9, 25440, Note_on_c, 7, 67, 75
9, 25680, Note_off_c, 7, 67, 64
9, 25680, Note_on_c, 7, 66, 75
9, 25915, Note_off_c, 7, 66, 64
9, 25920, Note_on_c, 7, 64, 75
9, 26155, Note_off_c, 7, 64, 64
9, 26160, Note_on_c, 7, 64, 75
9, 26635, Note_off_c, 7, 64, 64
9, 26640, Note_on_c, 7, 64, 75
9, 26880, Note_off_c, 7, 64, 64
9, 26880, Note_on_c, 7, 61, 75
9, 27115, Note_off_c, 7, 61, 64
9, 27120, Note_on_c, 7, 61, 75
9, 27355, Note_off_c, 7, 61, 64
9, 27360, Note_on_c, 7, 61, 69
9, 27840, Note_off_c, 7, 61, 64
9, 27840, Note_on_c, 7, 62, 56
9, 28075, Note_off_c, 7, 62, 64
9, 28080, Note_on_c, 7, 62, 50
9, 28320, Note_off_c, 7, 62, 64
9, 28320, Note_on_c, 7, 61, 44
9, 28560, Note_off_c, 7, 61, 64
9, 28560, Note_on_c, 7, 59, 37
9, 28795, Note_off_c, 7, 59, 64
9, 28800, Note_on_c, 7, 57, 30
9, 29200, Note_off_c, 7, 57, 64
9, 30240, Note_on_c, 7, 59, 45
9, 30640, Note_off_c, 7, 59, 64
9, 31200, Note_on_c, 7, 64, 45
9, 31600, Note_off_c, 7, 64, 64
9, 31800, Note_on_c, 7, 62, 48
9, 31920, Note_off_c, 7, 62, 64
9, 31920, Note_on_c, 7, 64, 52
9, 32000, Note_off_c, 7, 64, 64
9, 32040, Note_on_c, 7, 64, 56
9, 32120, Note_off_c, 7, 64, 64
9, 32160, Note_on_c, 7, 66, 60
9, 32240, Note_off_c, 7, 66, 64
9, 32280, Note_on_c, 7, 66, 64
9, 32360, Note_off_c, 7, 66, 64
9, 32400, Note_on_c, 7, 67, 68
9, 32480, Note_off_c, 7, 67, 64
9, 32520, Note_on_c, 7, 67, 72
9, 32600, Note_off_c, 7, 67, 64
9, 32640, Note_on_c, 7, 69, 76
9, 32720, Note_off_c, 7, 69, 64
9, 32760, Note_on_c, 7, 69, 80
9, 32840, Note_off_c, 7, 69, 64
9, 32880, Note_on_c, 7, 71, 84
9, 32960, Note_off_c, 7, 71, 64
9, 33000, Note_on_c, 7, 71, 88
9, 33080, Note_off_c, 7, 71, 64
9, 33120, Note_on_c, 7, 69, 92
9, 33240, Note_off_c, 7, 69, 64
9, 33240, Note_on_c, 7, 67, 92
9, 33355, Note_off_c, 7, 67, 64
9, 33360, Note_on_c, 7, 66, 92
9, 33480, Note_off_c, 7, 66, 64
9, 33480, Note_on_c, 7, 64, 92
9, 33595, Note_off_c, 7, 64, 64
9, 33600, Note_on_c, 7, 62, 92
9, 34000, Note_off_c, 7, 62, 64
9, 34080, Note_on_c, 7, 61, 61
9, 34480, Note_off_c, 7, 61, 64
9, 34560, Note_on_c, 7, 57, 30
9, 34960, Note_off_c, 7, 57, 64
9, 36000, Note_on_c, 7, 59, 45
9, 36400, Note_off_c, 7, 59, 64
9, 36960, Note_on_c, 7, 64, 45
9, 37360, Note_off_c, 7, 64, 64
9, 37560, Note_on_c, 7, 62, 47
9, 37680, Note_off_c, 7, 62, 64
9, 37680, Note_on_c, 7, 64, 49
9, 37760, Note_off_c, 7, 64, 64
9, 37800, Note_on_c, 7, 64, 51
9, 37880, Note_off_c, 7, 64, 64
9, 37920, Note_on_c, 7, 66, 53
9, 38000, Note_off_c, 7, 66, 64
9, 38040, Note_on_c, 7, 66, 55
9, 38120, Note_off_c, 7, 66, 64
9, 38160, Note_on_c, 7, 67, 57
9, 38240, Note_off_c, 7, 67, 64
9, 38280, Note_on_c, 7, 67, 60
9, 38360, Note_off_c, 7, 67, 64
9, 38400, Note_on_c, 7, 69, 63
9, 38480, Note_off_c, 7, 69, 64
9, 38520, Note_on_c, 7, 69, 66
9, 38600, Note_off_c, 7, 69, 64
9, 38640, Note_on_c, 7, 71, 69
9, 38720, Note_off_c, 7, 71, 64
9, 38760, Note_on_c, 7, 71, 72
9, 38840, Note_off_c, 7, 71, 64
9, 38880, Note_on_c, 7, 69, 75
9, 39000, Note_off_c, 7, 69, 64
9, 39000, Note_on_c, 7, 67, 75
9, 39115, Note_off_c, 7, 67, 64
9, 39120, Note_on_c, 7, 66, 75
9, 39240, Note_off_c, 7, 66, 64
9, 39240, Note_on_c, 7, 64, 75
9, 39355, Note_off_c, 7, 64, 64
9, 39360, Note_on_c, 7, 62, 75
9, 39760, Note_off_c, 7, 62, 64
9, 39840, Note_on_c, 7, 61, 75
9, 40240, Note_off_c, 7, 61, 64
9, 40320, Note_on_c, 7, 62, 92
9, 40960, Note_off_c, 7, 62, 64
9, 41040, Note_on_c, 7, 62, 92
9, 41275, Note_off_c, 7, 62, 64
9, 41280, Note_on_c, 7, 61, 87
9, 41515, Note_off_c, 7, 61, 64
9, 41520, Note_on_c, 7, 64, 81
9, 41640, Note_off_c, 7, 64, 64
9, 41640, Note_on_c, 7, 67, 78
9, 41755, Note_off_c, 7, 67, 64
9, 41760, Note_on_c, 7, 66, 75
9, 42160, Note_off_c, 7, 66, 64
9, 42240, Note_on_c, 7, 57, 75
9, 42480, Note_off_c, 7, 57, 64
9, 42480, Note_on_c, 7, 54, 68
9, 42715, Note_off_c, 7, 54, 64
9, 42720, Note_on_c, 7, 52, 61
9, 42960, Note_off_c, 7, 52, 64
9, 42960, Note_on_c, 7, 55, 53
9, 43195, Note_off_c, 7, 55, 64
9, 43200, Note_on_c, 7, 55, 45
9, 44160, Note_off_c, 7, 55, 64
9, 44160, Note_on_c, 7, 54, 45
9, 44560, Note_off_c, 7, 54, 64
9, 44760, Note_on_c, 7, 57, 45
9, 44880, Note_off_c, 7, 57, 64
9, 44880, Note_on_c, 7, 62, 45
9, 45000, Note_off_c, 7, 62, 64
9, 45000, Note_on_c, 7, 66, 45
9, 45120, Note_off_c, 7, 66, 64
9, 45120, Note_on_c, 7, 62, 45
9, 45235, Note_off_c, 7, 62, 64
9, 45240, Note_on_c, 7, 57, 45
9, 45360, Note_off_c, 7, 57, 64
9, 45360, Note_on_c, 7, 62, 45
9, 45480, Note_off_c, 7, 62, 64
9, 45480, Note_on_c, 7, 66, 45
9, 45600, Note_off_c, 7, 66, 64
9, 45600, Note_on_c, 7, 62, 45
9, 45715, Note_off_c, 7, 62, 64
9, 45720, Note_on_c, 7, 57, 45
9, 45840, Note_off_c, 7, 57, 64
9, 45840, Note_on_c, 7, 62, 45
9, 45960, Note_off_c, 7, 62, 64
9, 45960, Note_on_c, 7, 66, 45
9, 46080, Note_off_c, 7, 66, 64
9, 46080, Note_on_c, 7, 62, 45
9, 46195, Note_off_c, 7, 62, 64
9, 46200, Note_on_c, 7, 57, 45
9, 46320, Note_off_c, 7, 57, 64
9, 46320, Note_on_c, 7, 62, 45
9, 46440, Note_off_c, 7, 62, 64
9, 46440, Note_on_c, 7, 66, 45
9, 46560, Note_off_c, 7, 66, 64
9, 46560, Note_on_c, 7, 62, 45
9, 46675, Note_off_c, 7, 62, 64
9, 46680, Note_on_c, 7, 57, 45
9, 46800, Note_off_c, 7, 57, 64
9, 46800, Note_on_c, 7, 62, 45
9, 46920, Note_off_c, 7, 62, 64
9, 46920, Note_on_c, 7, 66, 45
9, 47040, Note_off_c, 7, 66, 64
9, 47040, Note_on_c, 7, 62, 45
9, 47155, Note_off_c, 7, 62, 64
9, 47160, Note_on_c, 7, 57, 45
9, 47280, Note_off_c, 7, 57, 64
9, 47280, Note_on_c, 7, 62, 45
9, 47400, Note_off_c, 7, 62, 64
9, 47400, Note_on_c, 7, 66, 45
9, 47520, Note_off_c, 7, 66, 64
9, 47520, Note_on_c, 7, 62, 45
9, 47635, Note_off_c, 7, 62, 64
9, 47640, Note_on_c, 7, 59, 45
9, 47760, Note_off_c, 7, 59, 64
9, 47760, Note_on_c, 7, 62, 45
9, 47880, Note_off_c, 7, 62, 64
9, 47880, Note_on_c, 7, 67, 45
9, 48000, Note_off_c, 7, 67, 64
9, 48000, Note_on_c, 7, 62, 45
9, 48115, Note_off_c, 7, 62, 64
9, 48120, Note_on_c, 7, 59, 45
9, 48240, Note_off_c, 7, 59, 64
9, 48240, Note_on_c, 7, 62, 45
9, 48360, Note_off_c, 7, 62, 64
9, 48360, Note_on_c, 7, 67, 45
9, 48480, Note_off_c, 7, 67, 64
9, 48480, Note_on_c, 7, 62, 45
9, 48595, Note_off_c, 7, 62, 64
9, 48600, Note_on_c, 7, 59, 45
9, 48720, Note_off_c, 7, 59, 64
9, 48720, Note_on_c, 7, 62, 45
9, 48840, Note_off_c, 7, 62, 64
9, 48840, Note_on_c, 7, 67, 45
9, 48960, Note_off_c, 7, 67, 64
9, 48960, Note_on_c, 7, 62, 45
9, 49075, Note_off_c, 7, 62, 64
9, 49080, Note_on_c, 7, 57, 45
9, 49920, Note_off_c, 7, 57, 64
9, 50040, Note_on_c, 7, 54, 45
9, 50440, Note_off_c, 7, 54, 64
9, 50520, Note_on_c, 7, 55, 45
9, 52360, Note_off_c, 7, 55, 64
9, 52680, Note_on_c, 7, 64, 60
9, 53155, Note_off_c, 7, 64, 64
9, 53160, Note_on_c, 7, 64, 60
9, 53395, Note_off_c, 7, 64, 64
9, 53400, Note_on_c, 7, 62, 60
9, 53800, Note_off_c, 7, 62, 64
9, 54120, Note_on_c, 7, 64, 60
9, 54360, Note_off_c, 7, 64, 64
9, 54360, Note_on_c, 7, 62, 65
9, 54600, Note_off_c, 7, 62, 64
9, 54600, Note_on_c, 7, 60, 70
9, 54835, Note_off_c, 7, 60, 64
9, 54840, Note_on_c, 7, 55, 75
9, 55435, Note_off_c, 7, 55, 64
9, 56280, Note_on_c, 7, 55, 75
9, 56875, Note_off_c, 7, 55, 64
9, 57000, Note_on_c, 7, 59, 75
9, 57240, Note_off_c, 7, 59, 64
9, 57240, Note_on_c, 7, 60, 75
9, 57480, Note_off_c, 7, 60, 64
9, 57480, Note_on_c, 7, 62, 75
9, 57720, Note_off_c, 7, 62, 64
9, 57720, Note_on_c, 7, 64, 75
9, 58200, Note_off_c, 7, 64, 64
9, 58200, Note_on_c, 7, 62, 75
9, 58680, Note_off_c, 7, 62, 64
9, 58680, Note_on_c, 7, 62, 75
9, 59160, Note_off_c, 7, 62, 64
9, 59160, Note_on_c, 7, 64, 75
9, 59280, Note_off_c, 7, 64, 64
9, 59280, Note_on_c, 7, 62, 75
9, 59400, Note_off_c, 7, 62, 64
9, 59400, Note_on_c, 7, 60, 75
9, 59520, Note_off_c, 7, 60, 64
9, 59520, Note_on_c, 7, 59, 75
9, 59640, Note_off_c, 7, 59, 64
9, 59640, Note_on_c, 7, 59, 75
9, 60040, Note_off_c, 7, 59, 64
9, 60600, Note_on_c, 7, 55, 75
9, 61195, Note_off_c, 7, 55, 64
9, 62040, Note_on_c, 7, 55, 75
9, 62635, Note_off_c, 7, 55, 64
9, 62760, Note_on_c, 7, 59, 75
9, 63000, Note_off_c, 7, 59, 64
9, 63000, Note_on_c, 7, 60, 75
9, 63240, Note_off_c, 7, 60, 64
9, 63240, Note_on_c, 7, 62, 75
9, 63475, Note_off_c, 7, 62, 64
9, 63480, Note_on_c, 7, 55, 75
9, 63715, Note_off_c, 7, 55, 64
9, 63720, Note_on_c, 7, 60, 75
9, 63840, Note_off_c, 7, 60, 64
9, 63840, Note_on_c, 7, 59, 75
9, 63960, Note_off_c, 7, 59, 64
9, 63960, Note_on_c, 7, 60, 75
9, 64195, Note_off_c, 7, 60, 64
9, 64200, Note_on_c, 7, 60, 75
9, 64440, Note_off_c, 7, 60, 64
9, 64440, Note_on_c, 7, 64, 75
9, 64680, Note_off_c, 7, 64, 64
9, 64680, Note_on_c, 7, 52, 75
9, 64915, Note_off_c, 7, 52, 64
9, 64920, Note_on_c, 7, 50, 75
9, 65320, Note_off_c, 7, 50, 64
9, 66360, Note_on_c, 7, 72, 45
9, 66480, Note_off_c, 7, 72, 64
9, 66480, Note_on_c, 7, 71, 45
9, 66595, Note_off_c, 7, 71, 64
9, 66600, Note_on_c, 7, 69, 45
9, 66720, Note_off_c, 7, 69, 64
9, 66720, Note_on_c, 7, 67, 45
9, 66835, Note_off_c, 7, 67, 64
9, 66840, Note_on_c, 7, 67, 45
9, 66920, Note_off_c, 7, 67, 64
9, 67080, Note_on_c, 7, 67, 45
9, 67160, Note_off_c, 7, 67, 64
9, 67320, Note_on_c, 7, 67, 45
9, 67560, Note_off_c, 7, 67, 64
9, 67560, Note_on_c, 7, 71, 45
9, 67795, Note_off_c, 7, 71, 64
9, 67800, Note_on_c, 7, 71, 45
9, 67920, Note_off_c, 7, 71, 64
9, 67920, Note_on_c, 7, 69, 45
9, 68035, Note_off_c, 7, 69, 64
9, 68040, Note_on_c, 7, 67, 45
9, 68155, Note_off_c, 7, 67, 64
9, 68160, Note_on_c, 7, 66, 45
9, 68275, Note_off_c, 7, 66, 64
9, 68280, Note_on_c, 7, 66, 45
9, 68680, Note_off_c, 7, 66, 64
9, 69240, Note_on_c, 7, 62, 45
9, 71080, Note_off_c, 7, 62, 64
9, 71160, Note_on_c, 7, 50, 45
9, 71560, Note_off_c, 7, 50, 64
9, 72360, Note_on_c, 7, 59, 45
9, 72595, Note_off_c, 7, 59, 64
9, 72600, Note_on_c, 7, 67, 45
9, 72840, Note_off_c, 7, 67, 64
9, 72840, Note_on_c, 7, 71, 45
9, 73075, Note_off_c, 7, 71, 64
9, 73080, Note_on_c, 7, 74, 45
9, 73480, Note_off_c, 7, 74, 64
9, 73800, Note_on_c, 7, 62, 45
9, 74040, Note_off_c, 7, 62, 64
9, 74040, Note_on_c, 7, 66, 45
9, 74280, Note_off_c, 7, 66, 64
9, 74280, Note_on_c, 7, 69, 45
9, 74515, Note_off_c, 7, 69, 64
9, 74520, Note_on_c, 7, 74, 45
9, 74760, Note_off_c, 7, 74, 64
9, 74760, Note_on_c, 7, 72, 45
9, 74995, Note_off_c, 7, 72, 64
9, 75000, Note_on_c, 7, 71, 45
9, 75960, Note_off_c, 7, 71, 64
9, 75960, Note_on_c, 7, 67, 45
9, 76360, Note_off_c, 7, 67, 64
9, 76440, Note_on_c, 7, 69, 45
9, 76675, Note_off_c, 7, 69, 64
9, 76680, Note_on_c, 7, 62, 45
9, 76800, Note_off_c, 7, 62, 64
9, 76800, Note_on_c, 7, 64, 45
9, 76915, Note_off_c, 7, 64, 64
9, 76920, Note_on_c, 7, 66, 45
9, 77040, Note_off_c, 7, 66, 64
9, 77040, Note_on_c, 7, 67, 45
9, 77155, Note_off_c, 7, 67, 64
9, 77160, Note_on_c, 7, 69, 45
9, 77280, Note_off_c, 7, 69, 64
9, 77280, Note_on_c, 7, 67, 45
9, 77395, Note_off_c, 7, 67, 64
9, 77400, Note_on_c, 7, 71, 45
9, 77520, Note_off_c, 7, 71, 64
9, 77520, Note_on_c, 7, 69, 45
9, 77635, Note_off_c, 7, 69, 64
9, 77640, Note_on_c, 7, 67, 45
9, 77760, Note_off_c, 7, 67, 64
9, 77760, Note_on_c, 7, 66, 45
9, 77875, Note_off_c, 7, 66, 64
9, 77880, Note_on_c, 7, 67, 45
9, 78115, Note_off_c, 7, 67, 64
9, 78120, Note_on_c, 7, 67, 45
9, 78355, Note_off_c, 7, 67, 64
9, 78360, Note_on_c, 7, 67, 45
9, 78595, Note_off_c, 7, 67, 64
9, 78600, Note_on_c, 7, 67, 45
9, 78835, Note_off_c, 7, 67, 64
9, 78840, Note_on_c, 7, 67, 45
9, 79075, Note_off_c, 7, 67, 64
9, 79080, Note_on_c, 7, 67, 45
9, 79315, Note_off_c, 7, 67, 64
9, 79320, Note_on_c, 7, 67, 45
9, 79555, Note_off_c, 7, 67, 64
9, 79560, Note_on_c, 7, 67, 47
9, 79795, Note_off_c, 7, 67, 64
9, 79800, Note_on_c, 7, 67, 49
9, 80155, Note_off_c, 7, 67, 64
9, 80160, Note_on_c, 7, 69, 53
9, 80220, Note_off_c, 7, 69, 64
9, 80220, Note_on_c, 7, 71, 53
9, 80275, Note_off_c, 7, 71, 64
9, 80280, Note_on_c, 7, 72, 53
9, 80520, Note_off_c, 7, 72, 64
9, 80520, Note_on_c, 7, 71, 56
9, 80755, Note_off_c, 7, 71, 64
9, 80760, Note_on_c, 7, 69, 59
9, 80995, Note_off_c, 7, 69, 64
9, 81000, Note_on_c, 7, 69, 62
9, 81235, Note_off_c, 7, 69, 64
9, 81240, Note_on_c, 7, 69, 65
9, 81475, Note_off_c, 7, 69, 64
9, 81480, Note_on_c, 7, 69, 68
9, 81715, Note_off_c, 7, 69, 64
9, 81720, Note_on_c, 7, 66, 71
9, 81955, Note_off_c, 7, 66, 64
9, 81960, Note_on_c, 7, 66, 75
9, 82195, Note_off_c, 7, 66, 64
9, 82200, Note_on_c, 7, 66, 75
9, 82680, Note_off_c, 7, 66, 64
9, 82680, Note_on_c, 7, 67, 65
9, 82915, Note_off_c, 7, 67, 64
9, 82920, Note_on_c, 7, 67, 60
9, 83160, Note_off_c, 7, 67, 64
9, 83160, Note_on_c, 7, 66, 55
9, 83400, Note_off_c, 7, 66, 64
9, 83400, Note_on_c, 7, 64, 50
9, 83635, Note_off_c, 7, 64, 64
9, 83640, Note_on_c, 7, 62, 45
9, 84040, Note_off_c, 7, 62, 64
9, 85080, Note_on_c, 7, 64, 45
9, 85480, Note_off_c, 7, 64, 64
9, 86040, Note_on_c, 7, 57, 45
9, 86440, Note_off_c, 7, 57, 64
9, 86640, Note_on_c, 7, 55, 47
9, 86760, Note_off_c, 7, 55, 64
9, 86760, Note_on_c, 7, 57, 49
9, 86840, Note_off_c, 7, 57, 64
9, 86880, Note_on_c, 7, 57, 51
9, 86960, Note_off_c, 7, 57, 64
9, 87000, Note_on_c, 7, 59, 53
9, 87080, Note_off_c, 7, 59, 64
9, 87120, Note_on_c, 7, 59, 55
9, 87200, Note_off_c, 7, 59, 64
9, 87240, Note_on_c, 7, 60, 57
9, 87320, Note_off_c, 7, 60, 64
9, 87360, Note_on_c, 7, 60, 60
9, 87440, Note_off_c, 7, 60, 64
9, 87480, Note_on_c, 7, 62, 63
9, 87560, Note_off_c, 7, 62, 64
9, 87600, Note_on_c, 7, 62, 66
9, 87680, Note_off_c, 7, 62, 64
9, 87720, Note_on_c, 7, 64, 69
9, 87800, Note_off_c, 7, 64, 64
9, 87840, Note_on_c, 7, 64, 72
9, 87920, Note_off_c, 7, 64, 64
9, 87960, Note_on_c, 7, 62, 75
9, 88080, Note_off_c, 7, 62, 64
9, 88080, Note_on_c, 7, 60, 75
9, 88195, Note_off_c, 7, 60, 64
9, 88200, Note_on_c, 7, 59, 75
9, 88320, Note_off_c, 7, 59, 64
9, 88320, Note_on_c, 7, 57, 75
9, 88435, Note_off_c, 7, 57, 64
9, 88440, Note_on_c, 7, 55, 75
9, 88840, Note_off_c, 7, 55, 64
9, 88920, Note_on_c, 7, 54, 60
9, 89320, Note_off_c, 7, 54, 64
9, 89400, Note_on_c, 7, 55, 45
9, 89800, Note_off_c, 7, 55, 64
9, 90840, Note_on_c, 7, 64, 45
9, 91240, Note_off_c, 7, 64, 64
9, 91800, Note_on_c, 7, 57, 45
9, 92200, Note_off_c, 7, 57, 64
9, 92400, Note_on_c, 7, 55, 46
9, 92520, Note_off_c, 7, 55, 64
9, 92520, Note_on_c, 7, 57, 47
9, 92600, Note_off_c, 7, 57, 64
9, 92640, Note_on_c, 7, 57, 48
9, 92720, Note_off_c, 7, 57, 64
9, 92760, Note_on_c, 7, 59, 49
9, 92840, Note_off_c, 7, 59, 64
9, 92880, Note_on_c, 7, 59, 50
9, 92960, Note_off_c, 7, 59, 64
9, 93000, Note_on_c, 7, 60, 51
9, 93080, Note_off_c, 7, 60, 64
9, 93120, Note_on_c, 7, 60, 52
9, 93200, Note_off_c, 7, 60, 64
9, 93240, Note_on_c, 7, 62, 53
9, 93320, Note_off_c, 7, 62, 64
9, 93360, Note_on_c, 7, 62, 54
9, 93440, Note_off_c, 7, 62, 64
9, 93480, Note_on_c, 7, 64, 56
9, 93560, Note_off_c, 7, 64, 64
9, 93600, Note_on_c, 7, 64, 58
9, 93680, Note_off_c, 7, 64, 64
9, 93720, Note_on_c, 7, 62, 60
9, 93840, Note_off_c, 7, 62, 64
9, 93840, Note_on_c, 7, 60, 60
9, 93955, Note_off_c, 7, 60, 64
9, 93960, Note_on_c, 7, 59, 60
9, 94080, Note_off_c, 7, 59, 64
9, 94080, Note_on_c, 7, 57, 60
9, 94195, Note_off_c, 7, 57, 64
9, 94200, Note_on_c, 7, 55, 60
9, 94600, Note_off_c, 7, 55, 64
9, 94680, Note_on_c, 7, 54, 60
9, 95080, Note_off_c, 7, 54, 64
9, 95160, Note_on_c, 7, 55, 75
9, 95400, Note_off_c, 7, 55, 64
9, 95400, Note_on_c, 7, 62, 75
9, 95635, Note_off_c, 7, 62, 64
9, 95640, Note_on_c, 7, 67, 75
9, 95880, Note_off_c, 7, 67, 64
9, 95880, Note_on_c, 7, 71, 75
9, 96115, Note_off_c, 7, 71, 64
9, 96120, Note_on_c, 7, 69, 72
9, 96360, Note_off_c, 7, 69, 64
9, 96360, Note_on_c, 7, 72, 68
9, 96595, Note_off_c, 7, 72, 64
9, 96600, Note_on_c, 7, 71, 64
9, 96835, Note_off_c, 7, 71, 64
9, 96840, Note_on_c, 7, 67, 60
9, 97080, Note_off_c, 7, 67, 64
9, 97080, Note_on_c, 7, 62, 60
9, 97320, Note_off_c, 7, 62, 64
9, 97320, Note_on_c, 7, 59, 60
9, 97555, Note_off_c, 7, 59, 64
9, 97560, Note_on_c, 7, 54, 60
9, 97800, Note_off_c, 7, 54, 64
9, 97800, Note_on_c, 7, 57, 53
9, 98035, Note_off_c, 7, 57, 64
9, 98040, Note_on_c, 7, 57, 45
9, 99000, Note_off_c, 7, 57, 64
9, 99000, Note_on_c, 7, 55, 45
9, 99400, Note_off_c, 7, 55, 64
9, 99400, End_track
10, 0, Start_track
10, 0, MIDI_port, 0
10, 0, Channel_prefix, 8
10, 0, Control_c, 8, 7, 127
10, 0, Control_c, 8, 10, 101
10, 0, Control_c, 8, 91, 122
10, 0, Program_c, 8, 48
10, 0, Note_on_c, 8, 55, 75
10, 595, Note_off_c, 8, 55, 64
10, 1440, Note_on_c, 8, 43, 75
10, 2035, Note_off_c, 8, 43, 64
10, 2160, Note_on_c, 8, 43, 75
10, 2400, Note_off_c, 8, 43, 64
10, 2400, Note_on_c, 8, 45, 75
10, 2640, Note_off_c, 8, 45, 64
10, 2640, Note_on_c, 8, 47, 75
10, 2880, Note_off_c, 8, 47, 64
10, 2880, Note_on_c, 8, 48, 75
10, 3360, Note_off_c, 8, 48, 64
10, 3360, Note_on_c, 8, 50, 75
10, 3840, Note_off_c, 8, 50, 64
10, 3840, Note_on_c, 8, 50, 75
10, 4320, Note_off_c, 8, 50, 64
10, 4320, Note_on_c, 8, 55, 75
10, 4720, Note_off_c, 8, 55, 64
10, 5040, Note_on_c, 8, 47, 75
10, 5280, Note_off_c, 8, 47, 64
10, 5280, Note_on_c, 8, 50, 75
10, 5520, Note_off_c, 8, 50, 64
10, 5520, Note_on_c, 8, 47, 75
10, 5760, Note_off_c, 8, 47, 64
10, 5760, Note_on_c, 8, 43, 75
10, 6355, Note_off_c, 8, 43, 64
10, 7200, Note_on_c, 8, 43, 75
10, 7795, Note_off_c, 8, 43, 64
10, 7920, Note_on_c, 8, 43, 75
10, 8160, Note_off_c, 8, 43, 64
10, 8160, Note_on_c, 8, 45, 75
10, 8400, Note_off_c, 8, 45, 64
10, 8400, Note_on_c, 8, 47, 75
10, 8635, Note_off_c, 8, 47, 64
10, 8640, Note_on_c, 8, 48, 75
10, 8875, Note_off_c, 8, 48, 64
10, 8880, Note_on_c, 8, 48, 75
10, 9355, Note_off_c, 8, 48, 64
10, 9360, Note_on_c, 8, 48, 75
10, 9835, Note_off_c, 8, 48, 64
10, 9840, Note_on_c, 8, 49, 75
10, 10080, Note_off_c, 8, 49, 64
10, 10080, Note_on_c, 8, 50, 75
10, 10675, Note_off_c, 8, 50, 64
10, 10800, Note_on_c, 8, 54, 61
10, 11040, Note_off_c, 8, 54, 64
10, 11040, Note_on_c, 8, 57, 56
10, 11280, Note_off_c, 8, 57, 64
10, 11280, Note_on_c, 8, 54, 51
10, 11515, Note_off_c, 8, 54, 64
10, 11520, Note_on_c, 8, 50, 45
10, 11920, Note_off_c, 8, 50, 64
10, 12000, Note_on_c, 8, 38, 45
10, 12400, Note_off_c, 8, 38, 64
10, 12960, Note_on_c, 8, 57, 45
10, 13360, Note_off_c, 8, 57, 64
10, 13680, Note_on_c, 8, 45, 45
10, 13915, Note_off_c, 8, 45, 64
10, 13920, Note_on_c, 8, 57, 45
10, 14160, Note_off_c, 8, 57, 64
10, 14160, Note_on_c, 8, 55, 45
10, 14395, Note_off_c, 8, 55, 64
10, 14400, Note_on_c, 8, 54, 45
10, 14800, Note_off_c, 8, 54, 64
10, 14880, Note_on_c, 8, 52, 45
10, 15360, Note_off_c, 8, 52, 64
10, 15360, Note_on_c, 8, 50, 45
10, 15760, Note_off_c, 8, 50, 64
10, 15840, Note_on_c, 8, 45, 45
10, 16240, Note_off_c, 8, 45, 64
10, 16560, Note_on_c, 8, 45, 45
10, 16795, Note_off_c, 8, 45, 64
10, 16800, Note_on_c, 8, 57, 50
10, 16920, Note_off_c, 8, 57, 64
10, 16920, Note_on_c, 8, 55, 52
10, 17040, Note_off_c, 8, 55, 64
10, 17040, Note_on_c, 8, 54, 54
10, 17160, Note_off_c, 8, 54, 64
10, 17160, Note_on_c, 8, 52, 57
10, 17275, Note_off_c, 8, 52, 64
10, 17280, Note_on_c, 8, 50, 60
10, 17680, Note_off_c, 8, 50, 64
10, 18720, Note_on_c, 8, 45, 60
10, 19120, Note_off_c, 8, 45, 64
10, 20160, Note_on_c, 8, 47, 60
10, 21480, Note_off_c, 8, 47, 64
10, 21600, Note_on_c, 8, 45, 60
10, 22000, Note_off_c, 8, 45, 64
10, 22080, Note_on_c, 8, 57, 60
10, 22480, Note_off_c, 8, 57, 64
10, 22560, Note_on_c, 8, 55, 67
10, 22960, Note_off_c, 8, 55, 64
10, 23040, Note_on_c, 8, 54, 75
10, 23275, Note_off_c, 8, 54, 64
10, 23280, Note_on_c, 8, 54, 75
10, 23515, Note_off_c, 8, 54, 64
10, 23520, Note_on_c, 8, 54, 75
10, 23755, Note_off_c, 8, 54, 64
10, 23760, Note_on_c, 8, 54, 75
10, 23995, Note_off_c, 8, 54, 64
10, 24000, Note_on_c, 8, 54, 75
10, 24235, Note_off_c, 8, 54, 64
10, 24240, Note_on_c, 8, 54, 75
10, 24480, Note_off_c, 8, 54, 64
10, 24480, Note_on_c, 8, 55, 75
10, 24715, Note_off_c, 8, 55, 64
10, 24720, Note_on_c, 8, 55, 75
10, 24955, Note_off_c, 8, 55, 64
10, 24960, Note_on_c, 8, 55, 75
10, 25195, Note_off_c, 8, 55, 64
10, 25200, Note_on_c, 8, 55, 75
10, 25435, Note_off_c, 8, 55, 64
10, 25440, Note_on_c, 8, 55, 75
10, 25675, Note_off_c, 8, 55, 64
10, 25680, Note_on_c, 8, 55, 75
10, 25920, Note_off_c, 8, 55, 64
10, 25920, Note_on_c, 8, 57, 75
10, 26155, Note_off_c, 8, 57, 64
10, 26160, Note_on_c, 8, 57, 75
10, 26635, Note_off_c, 8, 57, 64
10, 26640, Note_on_c, 8, 57, 75
10, 26875, Note_off_c, 8, 57, 64
10, 26880, Note_on_c, 8, 45, 75
10, 27115, Note_off_c, 8, 45, 64
10, 27120, Note_on_c, 8, 45, 75
10, 27355, Note_off_c, 8, 45, 64
10, 27360, Note_on_c, 8, 47, 69
10, 28000, Note_off_c, 8, 47, 64
10, 28080, Note_on_c, 8, 47, 50
10, 28320, Note_off_c, 8, 47, 64
10, 28320, Note_on_c, 8, 45, 44
10, 28560, Note_off_c, 8, 45, 64
10, 28560, Note_on_c, 8, 43, 37
10, 28795, Note_off_c, 8, 43, 64
10, 28800, Note_on_c, 8, 42, 30
10, 29200, Note_off_c, 8, 42, 64
10, 30240, Note_on_c, 8, 43, 45
10, 30640, Note_off_c, 8, 43, 64
10, 31200, Note_on_c, 8, 49, 45
10, 31600, Note_off_c, 8, 49, 64
10, 31680, Note_on_c, 8, 50, 45
10, 32080, Note_off_c, 8, 50, 64
10, 33120, Note_on_c, 8, 55, 92
10, 33355, Note_off_c, 8, 55, 64
10, 33360, Note_on_c, 8, 55, 92
10, 33595, Note_off_c, 8, 55, 64
10, 33600, Note_on_c, 8, 57, 92
10, 33835, Note_off_c, 8, 57, 64
10, 33840, Note_on_c, 8, 57, 77
10, 34075, Note_off_c, 8, 57, 64
10, 34080, Note_on_c, 8, 45, 62
10, 34315, Note_off_c, 8, 45, 64
10, 34320, Note_on_c, 8, 45, 46
10, 34555, Note_off_c, 8, 45, 64
10, 34560, Note_on_c, 8, 42, 30
10, 34960, Note_off_c, 8, 42, 64
10, 36000, Note_on_c, 8, 43, 45
10, 36400, Note_off_c, 8, 43, 64
10, 36960, Note_on_c, 8, 49, 45
10, 37360, Note_off_c, 8, 49, 64
10, 37440, Note_on_c, 8, 50, 45
10, 37840, Note_off_c, 8, 50, 64
10, 38880, Note_on_c, 8, 55, 75
10, 39115, Note_off_c, 8, 55, 64
10, 39120, Note_on_c, 8, 55, 75
10, 39355, Note_off_c, 8, 55, 64
10, 39360, Note_on_c, 8, 57, 75
10, 39595, Note_off_c, 8, 57, 64
10, 39600, Note_on_c, 8, 57, 75
10, 39835, Note_off_c, 8, 57, 64
10, 39840, Note_on_c, 8, 45, 75
10, 40075, Note_off_c, 8, 45, 64
10, 40080, Note_on_c, 8, 45, 75
10, 40315, Note_off_c, 8, 45, 64
10, 40320, Note_on_c, 8, 50, 92
10, 40720, Note_off_c, 8, 50, 64
10, 40800, Note_on_c, 8, 38, 92
10, 41200, Note_off_c, 8, 38, 64
10, 41280, Note_on_c, 8, 45, 84
10, 41680, Note_off_c, 8, 45, 64
10, 41760, Note_on_c, 8, 50, 75
10, 42160, Note_off_c, 8, 50, 64
10, 42240, Note_on_c, 8, 42, 75
10, 42640, Note_off_c, 8, 42, 64
10, 42720, Note_on_c, 8, 45, 60
10, 43120, Note_off_c, 8, 45, 64
10, 43200, Note_on_c, 8, 38, 45
10, 44520, Note_off_c, 8, 38, 64
10, 44760, Note_on_c, 8, 50, 45
10, 45160, Note_off_c, 8, 50, 64
10, 45240, Note_on_c, 8, 50, 45
10, 45640, Note_off_c, 8, 50, 64
10, 45720, Note_on_c, 8, 50, 45
10, 46120, Note_off_c, 8, 50, 64
10, 46200, Note_on_c, 8, 48, 45
10, 46600, Note_off_c, 8, 48, 64
10, 46680, Note_on_c, 8, 48, 45
10, 47080, Note_off_c, 8, 48, 64
10, 47160, Note_on_c, 8, 48, 45
10, 47560, Note_off_c, 8, 48, 64
10, 47640, Note_on_c, 8, 47, 45
10, 48040, Note_off_c, 8, 47, 64
10, 48120, Note_on_c, 8, 47, 45
10, 48520, Note_off_c, 8, 47, 64
10, 48600, Note_on_c, 8, 47, 45
10, 49000, Note_off_c, 8, 47, 64
10, 49080, Note_on_c, 8, 45, 45
10, 49480, Note_off_c, 8, 45, 64
10, 49560, Note_on_c, 8, 45, 45
10, 49960, Note_off_c, 8, 45, 64
10, 50040, Note_on_c, 8, 38, 45
10, 50440, Note_off_c, 8, 38, 64
10, 50520, Note_on_c, 8, 43, 45
10, 50920, Note_off_c, 8, 43, 64
10, 51000, Note_on_c, 8, 43, 48
10, 51400, Note_off_c, 8, 43, 64
10, 51480, Note_on_c, 8, 47, 52
10, 51880, Note_off_c, 8, 47, 64
10, 51960, Note_on_c, 8, 48, 56
10, 52360, Note_off_c, 8, 48, 64
10, 52440, Note_on_c, 8, 48, 60
10, 52840, Note_off_c, 8, 48, 64
10, 52920, Note_on_c, 8, 48, 60
10, 53160, Note_off_c, 8, 48, 64
10, 53160, Note_on_c, 8, 49, 60
10, 53395, Note_off_c, 8, 49, 64
10, 53400, Note_on_c, 8, 50, 60
10, 53800, Note_off_c, 8, 50, 64
10, 54120, Note_on_c, 8, 48, 60
10, 54360, Note_off_c, 8, 48, 64
10, 54360, Note_on_c, 8, 47, 65
10, 54600, Note_off_c, 8, 47, 64
10, 54600, Note_on_c, 8, 45, 70
10, 54835, Note_off_c, 8, 45, 64
10, 54840, Note_on_c, 8, 55, 75
10, 55435, Note_off_c, 8, 55, 64
10, 56280, Note_on_c, 8, 43, 75
10, 56875, Note_off_c, 8, 43, 64
10, 57000, Note_on_c, 8, 43, 75
10, 57240, Note_off_c, 8, 43, 64
10, 57240, Note_on_c, 8, 45, 75
10, 57480, Note_off_c, 8, 45, 64
10, 57480, Note_on_c, 8, 47, 75
10, 57720, Note_off_c, 8, 47, 64
10, 57720, Note_on_c, 8, 48, 75
10, 58200, Note_off_c, 8, 48, 64
10, 58200, Note_on_c, 8, 50, 75
10, 58680, Note_off_c, 8, 50, 64
10, 58680, Note_on_c, 8, 50, 75
10, 59160, Note_off_c, 8, 50, 64
10, 59160, Note_on_c, 8, 55, 75
10, 59560, Note_off_c, 8, 55, 64
10, 59880, Note_on_c, 8, 47, 75
10, 60120, Note_off_c, 8, 47, 64
10, 60120, Note_on_c, 8, 50, 75
10, 60360, Note_off_c, 8, 50, 64
10, 60360, Note_on_c, 8, 47, 75
10, 60595, Note_off_c, 8, 47, 64
10, 60600, Note_on_c, 8, 43, 75
10, 61195, Note_off_c, 8, 43, 64
10, 62040, Note_on_c, 8, 43, 75
10, 62635, Note_off_c, 8, 43, 64
10, 62760, Note_on_c, 8, 43, 75
10, 63000, Note_off_c, 8, 43, 64
10, 63000, Note_on_c, 8, 45, 75
10, 63240, Note_off_c, 8, 45, 64
10, 63240, Note_on_c, 8, 47, 75
10, 63475, Note_off_c, 8, 47, 64
10, 63480, Note_on_c, 8, 48, 75
10, 63715, Note_off_c, 8, 48, 64
10, 63720, Note_on_c, 8, 48, 75
10, 64195, Note_off_c, 8, 48, 64
10, 64200, Note_on_c, 8, 48, 75
10, 64675, Note_off_c, 8, 48, 64
10, 64680, Note_on_c, 8, 49, 75
10, 64920, Note_off_c, 8, 49, 64
10, 64920, Note_on_c, 8, 50, 75
10, 65320, Note_off_c, 8, 50, 64
10, 65400, Note_on_c, 8, 38, 65
10, 65635, Note_off_c, 8, 38, 64
10, 65640, Note_on_c, 8, 60, 60
10, 65880, Note_off_c, 8, 60, 64
10, 65880, Note_on_c, 8, 59, 55
10, 66120, Note_off_c, 8, 59, 64
10, 66120, Note_on_c, 8, 57, 50
10, 66355, Note_off_c, 8, 57, 64
10, 66360, Note_on_c, 8, 55, 45
10, 66760, Note_off_c, 8, 55, 64
10, 66840, Note_on_c, 8, 43, 45
10, 67240, Note_off_c, 8, 43, 64
10, 67800, Note_on_c, 8, 50, 45
10, 68200, Note_off_c, 8, 50, 64
10, 68280, Note_on_c, 8, 38, 45
10, 68520, Note_off_c, 8, 38, 64
10, 68520, Note_on_c, 8, 50, 45
10, 68755, Note_off_c, 8, 50, 64
10, 68760, Note_on_c, 8, 50, 45
10, 69000, Note_off_c, 8, 50, 64
10, 69000, Note_on_c, 8, 48, 45
10, 69235, Note_off_c, 8, 48, 64
10, 69240, Note_on_c, 8, 47, 45
10, 69640, Note_off_c, 8, 47, 64
10, 69720, Note_on_c, 8, 45, 45
10, 70200, Note_off_c, 8, 45, 64
10, 70200, Note_on_c, 8, 43, 45
10, 70600, Note_off_c, 8, 43, 64
10, 70680, Note_on_c, 8, 38, 45
10, 70920, Note_off_c, 8, 38, 64
10, 70920, Note_on_c, 8, 50, 45
10, 71155, Note_off_c, 8, 50, 64
10, 71160, Note_on_c, 8, 50, 45
10, 71400, Note_off_c, 8, 50, 64
10, 71400, Note_on_c, 8, 62, 45
10, 71635, Note_off_c, 8, 62, 64
10, 71640, Note_on_c, 8, 62, 45
10, 71760, Note_off_c, 8, 62, 64
10, 71760, Note_on_c, 8, 60, 45
10, 71880, Note_off_c, 8, 60, 64
10, 71880, Note_on_c, 8, 59, 45
10, 72000, Note_off_c, 8, 59, 64
10, 72000, Note_on_c, 8, 57, 45
10, 72115, Note_off_c, 8, 57, 64
10, 72120, Note_on_c, 8, 55, 45
10, 72520, Note_off_c, 8, 55, 64
10, 73560, Note_on_c, 8, 50, 45
10, 73960, Note_off_c, 8, 50, 64
10, 75000, Note_on_c, 8, 52, 45
10, 76320, Note_off_c, 8, 52, 64
10, 76440, Note_on_c, 8, 50, 45
10, 76675, Note_off_c, 8, 50, 64
10, 76680, Note_on_c, 8, 50, 45
10, 76915, Note_off_c, 8, 50, 64
10, 76920, Note_on_c, 8, 50, 45
10, 77155, Note_off_c, 8, 50, 64
10, 77160, Note_on_c, 8, 50, 45
10, 77395, Note_off_c, 8, 50, 64
10, 77400, Note_on_c, 8, 48, 45
10, 77635, Note_off_c, 8, 48, 64
10, 77640, Note_on_c, 8, 48, 45
10, 77875, Note_off_c, 8, 48, 64
10, 77880, Note_on_c, 8, 47, 45
10, 78115, Note_off_c, 8, 47, 64
10, 78120, Note_on_c, 8, 47, 45
10, 78355, Note_off_c, 8, 47, 64
10, 78360, Note_on_c, 8, 47, 45
10, 78595, Note_off_c, 8, 47, 64
10, 78600, Note_on_c, 8, 47, 45
10, 78835, Note_off_c, 8, 47, 64
10, 78840, Note_on_c, 8, 47, 45
10, 79075, Note_off_c, 8, 47, 64
10, 79080, Note_on_c, 8, 47, 45
10, 79315, Note_off_c, 8, 47, 64
10, 79320, Note_on_c, 8, 48, 45
10, 79555, Note_off_c, 8, 48, 64
10, 79560, Note_on_c, 8, 48, 47
10, 79795, Note_off_c, 8, 48, 64
10, 79800, Note_on_c, 8, 48, 49
10, 80035, Note_off_c, 8, 48, 64
10, 80040, Note_on_c, 8, 48, 51
10, 80275, Note_off_c, 8, 48, 64
10, 80280, Note_on_c, 8, 48, 54
10, 80515, Note_off_c, 8, 48, 64
10, 80520, Note_on_c, 8, 48, 57
10, 80755, Note_off_c, 8, 48, 64
10, 80760, Note_on_c, 8, 50, 60
10, 80995, Note_off_c, 8, 50, 64
10, 81000, Note_on_c, 8, 50, 63
10, 81235, Note_off_c, 8, 50, 64
10, 81240, Note_on_c, 8, 50, 66
10, 81475, Note_off_c, 8, 50, 64
10, 81480, Note_on_c, 8, 50, 69
10, 81715, Note_off_c, 8, 50, 64
10, 81720, Note_on_c, 8, 50, 72
10, 81955, Note_off_c, 8, 50, 64
10, 81960, Note_on_c, 8, 50, 75
10, 82195, Note_off_c, 8, 50, 64
10, 82200, Note_on_c, 8, 52, 75
10, 82435, Note_off_c, 8, 52, 64
10, 82440, Note_on_c, 8, 52, 70
10, 82675, Note_off_c, 8, 52, 64
10, 82680, Note_on_c, 8, 52, 65
10, 82915, Note_off_c, 8, 52, 64
10, 82920, Note_on_c, 8, 52, 60
10, 83160, Note_off_c, 8, 52, 64
10, 83160, Note_on_c, 8, 50, 55
10, 83400, Note_off_c, 8, 50, 64
10, 83400, Note_on_c, 8, 48, 50
10, 83635, Note_off_c, 8, 48, 64
10, 83640, Note_on_c, 8, 47, 45
10, 84040, Note_off_c, 8, 47, 64
10, 85080, Note_on_c, 8, 48, 45
10, 85480, Note_off_c, 8, 48, 64
10, 86040, Note_on_c, 8, 54, 45
10, 86440, Note_off_c, 8, 54, 64
10, 86520, Note_on_c, 8, 55, 45
10, 86920, Note_off_c, 8, 55, 64
10, 87960, Note_on_c, 8, 48, 75
10, 88195, Note_off_c, 8, 48, 64
10, 88200, Note_on_c, 8, 48, 75
10, 88435, Note_off_c, 8, 48, 64
10, 88440, Note_on_c, 8, 50, 75
10, 88675, Note_off_c, 8, 50, 64
10, 88680, Note_on_c, 8, 50, 68
10, 88915, Note_off_c, 8, 50, 64
10, 88920, Note_on_c, 8, 50, 61
10, 89155, Note_off_c, 8, 50, 64
10, 89160, Note_on_c, 8, 50, 53
10, 89395, Note_off_c, 8, 50, 64
10, 89400, Note_on_c, 8, 47, 45
10, 89800, Note_off_c, 8, 47, 64
10, 90840, Note_on_c, 8, 48, 45
10, 91240, Note_off_c, 8, 48, 64
10, 91800, Note_on_c, 8, 54, 45
10, 92200, Note_off_c, 8, 54, 64
10, 92280, Note_on_c, 8, 55, 45
10, 92680, Note_off_c, 8, 55, 64
10, 93720, Note_on_c, 8, 48, 60
10, 93955, Note_off_c, 8, 48, 64
10, 93960, Note_on_c, 8, 48, 60
10, 94195, Note_off_c, 8, 48, 64
10, 94200, Note_on_c, 8, 50, 60
10, 94435, Note_off_c, 8, 50, 64
10, 94440, Note_on_c, 8, 50, 60
10, 94675, Note_off_c, 8, 50, 64
10, 94680, Note_on_c, 8, 50, 60
10, 94915, Note_off_c, 8, 50, 64
10, 94920, Note_on_c, 8, 50, 67
10, 95155, Note_off_c, 8, 50, 64
10, 95160, Note_on_c, 8, 55, 75
10, 95800, Note_off_c, 8, 55, 64
10, 95880, Note_on_c, 8, 59, 75
10, 96115, Note_off_c, 8, 59, 64
10, 96120, Note_on_c, 8, 62, 70
10, 96520, Note_off_c, 8, 62, 64
10, 96600, Note_on_c, 8, 55, 60
10, 97000, Note_off_c, 8, 55, 64
10, 97080, Note_on_c, 8, 47, 60
10, 97480, Note_off_c, 8, 47, 64
10, 97560, Note_on_c, 8, 50, 60
10, 97960, Note_off_c, 8, 50, 64
10, 98040, Note_on_c, 8, 43, 45
10, 99360, Note_off_c, 8, 43, 64
10, 99360, End_track
11, 0, Start_track
11, 0, MIDI_port, 0
11, 0, Channel_prefix, 10
11, 0, Control_c, 10, 7, 127
11, 0, Control_c, 10, 10, 120
11, 0, Control_c, 10, 91, 127
11, 0, Program_c, 10, 48
11, 0, Note_on_c, 10, 43, 75
11, 595, Note_off_c, 10, 43, 64
11, 1440, Note_on_c, 10, 31, 75
11, 2035, Note_off_c, 10, 31, 64
11, 2160, Note_on_c, 10, 31, 75
11, 2400, Note_off_c, 10, 31, 64
11, 2400, Note_on_c, 10, 33, 75
11, 2640, Note_off_c, 10, 33, 64
11, 2640, Note_on_c, 10, 35, 75
11, 2880, Note_off_c, 10, 35, 64
11, 2880, Note_on_c, 10, 36, 75
11, 3360, Note_off_c, 10, 36, 64
11, 3360, Note_on_c, 10, 38, 75
11, 3840, Note_off_c, 10, 38, 64
11, 3840, Note_on_c, 10, 38, 75
11, 4320, Note_off_c, 10, 38, 64
11, 4320, Note_on_c, 10, 43, 75
11, 4720, Note_off_c, 10, 43, 64
11, 5040, Note_on_c, 10, 35, 75
11, 5280, Note_off_c, 10, 35, 64
11, 5280, Note_on_c, 10, 38, 75
11, 5520, Note_off_c, 10, 38, 64
11, 5520, Note_on_c, 10, 35, 75
11, 5760, Note_off_c, 10, 35, 64
11, 5760, Note_on_c, 10, 31, 75
11, 6355, Note_off_c, 10, 31, 64
11, 7200, Note_on_c, 10, 31, 75
11, 7795, Note_off_c, 10, 31, 64
11, 7920, Note_on_c, 10, 31, 75
11, 8160, Note_off_c, 10, 31, 64
11, 8160, Note_on_c, 10, 33, 75
11, 8400, Note_off_c, 10, 33, 64
11, 8400, Note_on_c, 10, 35, 75
11, 8635, Note_off_c, 10, 35, 64
11, 8640, Note_on_c, 10, 36, 75
11, 8875, Note_off_c, 10, 36, 64
11, 8880, Note_on_c, 10, 36, 75
11, 9355, Note_off_c, 10, 36, 64
11, 9360, Note_on_c, 10, 36, 75
11, 9835, Note_off_c, 10, 36, 64
11, 9840, Note_on_c, 10, 37, 75
11, 10080, Note_off_c, 10, 37, 64
11, 10080, Note_on_c, 10, 38, 75
11, 10675, Note_off_c, 10, 38, 64
11, 10800, Note_on_c, 10, 42, 61
11, 11040, Note_off_c, 10, 42, 64
11, 11040, Note_on_c, 10, 45, 56
11, 11280, Note_off_c, 10, 45, 64
11, 11280, Note_on_c, 10, 42, 51
11, 11515, Note_off_c, 10, 42, 64
11, 11520, Note_on_c, 10, 38, 45
11, 11920, Note_off_c, 10, 38, 64
11, 12000, Note_on_c, 10, 26, 45
11, 12400, Note_off_c, 10, 26, 64
11, 12960, Note_on_c, 10, 45, 45
11, 13360, Note_off_c, 10, 45, 64
11, 13680, Note_on_c, 10, 33, 45
11, 13915, Note_off_c, 10, 33, 64
11, 13920, Note_on_c, 10, 45, 45
11, 14160, Note_off_c, 10, 45, 64
11, 14160, Note_on_c, 10, 43, 45
11, 14395, Note_off_c, 10, 43, 64
11, 14400, Note_on_c, 10, 42, 45
11, 14800, Note_off_c, 10, 42, 64
11, 14880, Note_on_c, 10, 40, 45
11, 15360, Note_off_c, 10, 40, 64
11, 15360, Note_on_c, 10, 38, 45
11, 15760, Note_off_c, 10, 38, 64
11, 15840, Note_on_c, 10, 33, 45
11, 16240, Note_off_c, 10, 33, 64
11, 16560, Note_on_c, 10, 33, 45
11, 16795, Note_off_c, 10, 33, 64
11, 16800, Note_on_c, 10, 45, 50
11, 16920, Note_off_c, 10, 45, 64
11, 16920, Note_on_c, 10, 43, 52
11, 17040, Note_off_c, 10, 43, 64
11, 17040, Note_on_c, 10, 42, 54
11, 17160, Note_off_c, 10, 42, 64
11, 17160, Note_on_c, 10, 40, 57
11, 17275, Note_off_c, 10, 40, 64
11, 17280, Note_on_c, 10, 38, 60
11, 17680, Note_off_c, 10, 38, 64
11, 18720, Note_on_c, 10, 33, 60
11, 19120, Note_off_c, 10, 33, 64
11, 20160, Note_on_c, 10, 35, 60
11, 21480, Note_off_c, 10, 35, 64
11, 21600, Note_on_c, 10, 33, 60
11, 22000, Note_off_c, 10, 33, 64
11, 22080, Note_on_c, 10, 45, 60
11, 22480, Note_off_c, 10, 45, 64
11, 22560, Note_on_c, 10, 43, 67
11, 22960, Note_off_c, 10, 43, 64
11, 23040, Note_on_c, 10, 42, 75
11, 23275, Note_off_c, 10, 42, 64
11, 23280, Note_on_c, 10, 42, 75
11, 23515, Note_off_c, 10, 42, 64
11, 23520, Note_on_c, 10, 42, 75
11, 23755, Note_off_c, 10, 42, 64
11, 23760, Note_on_c, 10, 42, 75
11, 23995, Note_off_c, 10, 42, 64
11, 24000, Note_on_c, 10, 42, 75
11, 24235, Note_off_c, 10, 42, 64
11, 24240, Note_on_c, 10, 42, 75
11, 24480, Note_off_c, 10, 42, 64
11, 24480, Note_on_c, 10, 43, 75
11, 24715, Note_off_c, 10, 43, 64
11, 24720, Note_on_c, 10, 43, 75
11, 24955, Note_off_c, 10, 43, 64
11, 24960, Note_on_c, 10, 43, 75
11, 25195, Note_off_c, 10, 43, 64
11, 25200, Note_on_c, 10, 43, 75
11, 25435, Note_off_c, 10, 43, 64
11, 25440, Note_on_c, 10, 43, 75
11, 25675, Note_off_c, 10, 43, 64
11, 25680, Note_on_c, 10, 43, 75
11, 25920, Note_off_c, 10, 43, 64
11, 25920, Note_on_c, 10, 45, 75
11, 26155, Note_off_c, 10, 45, 64
11, 26160, Note_on_c, 10, 45, 75
11, 26635, Note_off_c, 10, 45, 64
11, 26640, Note_on_c, 10, 45, 75
11, 26875, Note_off_c, 10, 45, 64
11, 26880, Note_on_c, 10, 33, 75
11, 27115, Note_off_c, 10, 33, 64
11, 27120, Note_on_c, 10, 33, 75
11, 27355, Note_off_c, 10, 33, 64
11, 27360, Note_on_c, 10, 35, 69
11, 28000, Note_off_c, 10, 35, 64
11, 28080, Note_on_c, 10, 35, 50
11, 28320, Note_off_c, 10, 35, 64
11, 28320, Note_on_c, 10, 33, 44
11, 28560, Note_off_c, 10, 33, 64
11, 28560, Note_on_c, 10, 31, 37
11, 28795, Note_off_c, 10, 31, 64
11, 28800, Note_on_c, 10, 30, 30
11, 29200, Note_off_c, 10, 30, 64
11, 30240, Note_on_c, 10, 31, 45
11, 30640, Note_off_c, 10, 31, 64
11, 31200, Note_on_c, 10, 37, 45
11, 31600, Note_off_c, 10, 37, 64
11, 31680, Note_on_c, 10, 38, 45
11, 32080, Note_off_c, 10, 38, 64
11, 33120, Note_on_c, 10, 43, 92
11, 33355, Note_off_c, 10, 43, 64
11, 33360, Note_on_c, 10, 43, 92
11, 33595, Note_off_c, 10, 43, 64
11, 33600, Note_on_c, 10, 45, 92
11, 33835, Note_off_c, 10, 45, 64
11, 33840, Note_on_c, 10, 45, 77
11, 34075, Note_off_c, 10, 45, 64
11, 34080, Note_on_c, 10, 33, 62
11, 34315, Note_off_c, 10, 33, 64
11, 34320, Note_on_c, 10, 33, 46
11, 34555, Note_off_c, 10, 33, 64
11, 34560, Note_on_c, 10, 30, 30
11, 34960, Note_off_c, 10, 30, 64
11, 36000, Note_on_c, 10, 31, 45
11, 36400, Note_off_c, 10, 31, 64
11, 36960, Note_on_c, 10, 37, 45
11, 37360, Note_off_c, 10, 37, 64
11, 37440, Note_on_c, 10, 38, 45
11, 37840, Note_off_c, 10, 38, 64
11, 38880, Note_on_c, 10, 43, 75
11, 39115, Note_off_c, 10, 43, 64
11, 39120, Note_on_c, 10, 43, 75
11, 39355, Note_off_c, 10, 43, 64
11, 39360, Note_on_c, 10, 45, 75
11, 39595, Note_off_c, 10, 45, 64
11, 39600, Note_on_c, 10, 45, 75
11, 39835, Note_off_c, 10, 45, 64
11, 39840, Note_on_c, 10, 33, 75
11, 40075, Note_off_c, 10, 33, 64
11, 40080, Note_on_c, 10, 33, 75
11, 40315, Note_off_c, 10, 33, 64
11, 40320, Note_on_c, 10, 38, 92
11, 40720, Note_off_c, 10, 38, 64
11, 40800, Note_on_c, 10, 26, 92
11, 41200, Note_off_c, 10, 26, 64
11, 41280, Note_on_c, 10, 33, 84
11, 41680, Note_off_c, 10, 33, 64
11, 41760, Note_on_c, 10, 38, 75
11, 42160, Note_off_c, 10, 38, 64
11, 42240, Note_on_c, 10, 30, 75
11, 42640, Note_off_c, 10, 30, 64
11, 42720, Note_on_c, 10, 33, 60
11, 43120, Note_off_c, 10, 33, 64
11, 43200, Note_on_c, 10, 26, 45
11, 44520, Note_off_c, 10, 26, 64
11, 44760, Note_on_c, 10, 38, 45
11, 45160, Note_off_c, 10, 38, 64
11, 45240, Note_on_c, 10, 38, 45
11, 45640, Note_off_c, 10, 38, 64
11, 45720, Note_on_c, 10, 38, 45
11, 46120, Note_off_c, 10, 38, 64
11, 46200, Note_on_c, 10, 36, 45
11, 46600, Note_off_c, 10, 36, 64
11, 46680, Note_on_c, 10, 36, 45
11, 47080, Note_off_c, 10, 36, 64
11, 47160, Note_on_c, 10, 36, 45
11, 47560, Note_off_c, 10, 36, 64
11, 47640, Note_on_c, 10, 35, 45
11, 48040, Note_off_c, 10, 35, 64
11, 48120, Note_on_c, 10, 35, 45
11, 48520, Note_off_c, 10, 35, 64
11, 48600, Note_on_c, 10, 35, 45
11, 49000, Note_off_c, 10, 35, 64
11, 49080, Note_on_c, 10, 33, 45
11, 49480, Note_off_c, 10, 33, 64
11, 49560, Note_on_c, 10, 33, 45
11, 49960, Note_off_c, 10, 33, 64
11, 50040, Note_on_c, 10, 26, 45
11, 50440, Note_off_c, 10, 26, 64
11, 50520, Note_on_c, 10, 31, 45
11, 50920, Note_off_c, 10, 31, 64
11, 51000, Note_on_c, 10, 31, 48
11, 51400, Note_off_c, 10, 31, 64
11, 51480, Note_on_c, 10, 35, 52
11, 51880, Note_off_c, 10, 35, 64
11, 51960, Note_on_c, 10, 36, 56
11, 52360, Note_off_c, 10, 36, 64
11, 52440, Note_on_c, 10, 36, 60
11, 52840, Note_off_c, 10, 36, 64
11, 52920, Note_on_c, 10, 36, 60
11, 53160, Note_off_c, 10, 36, 64
11, 53160, Note_on_c, 10, 37, 60
11, 53395, Note_off_c, 10, 37, 64
11, 53400, Note_on_c, 10, 38, 60
11, 53800, Note_off_c, 10, 38, 64
11, 54120, Note_on_c, 10, 36, 60
11, 54360, Note_off_c, 10, 36, 64
11, 54360, Note_on_c, 10, 35, 65
11, 54600, Note_off_c, 10, 35, 64
11, 54600, Note_on_c, 10, 33, 70
11, 54835, Note_off_c, 10, 33, 64
11, 54840, Note_on_c, 10, 43, 75
11, 55435, Note_off_c, 10, 43, 64
11, 56280, Note_on_c, 10, 31, 75
11, 56875, Note_off_c, 10, 31, 64
11, 57000, Note_on_c, 10, 31, 75
11, 57240, Note_off_c, 10, 31, 64
11, 57240, Note_on_c, 10, 33, 75
11, 57480, Note_off_c, 10, 33, 64
11, 57480, Note_on_c, 10, 35, 75
11, 57720, Note_off_c, 10, 35, 64
11, 57720, Note_on_c, 10, 36, 75
11, 58200, Note_off_c, 10, 36, 64
11, 58200, Note_on_c, 10, 38, 75
11, 58680, Note_off_c, 10, 38, 64
11, 58680, Note_on_c, 10, 38, 75
11, 59160, Note_off_c, 10, 38, 64
11, 59160, Note_on_c, 10, 43, 75
11, 59560, Note_off_c, 10, 43, 64
11, 59880, Note_on_c, 10, 35, 75
11, 60120, Note_off_c, 10, 35, 64
11, 60120, Note_on_c, 10, 38, 75
11, 60360, Note_off_c, 10, 38, 64
11, 60360, Note_on_c, 10, 35, 75
11, 60595, Note_off_c, 10, 35, 64
11, 60600, Note_on_c, 10, 31, 75
11, 61195, Note_off_c, 10, 31, 64
11, 62040, Note_on_c, 10, 31, 75
11, 62635, Note_off_c, 10, 31, 64
11, 62760, Note_on_c, 10, 31, 75
11, 63000, Note_off_c, 10, 31, 64
11, 63000, Note_on_c, 10, 33, 75
11, 63240, Note_off_c, 10, 33, 64
11, 63240, Note_on_c, 10, 35, 75
11, 63475, Note_off_c, 10, 35, 64
11, 63480, Note_on_c, 10, 36, 75
11, 63715, Note_off_c, 10, 36, 64
11, 63720, Note_on_c, 10, 36, 75
11, 64195, Note_off_c, 10, 36, 64
11, 64200, Note_on_c, 10, 36, 75
11, 64675, Note_off_c, 10, 36, 64
11, 64680, Note_on_c, 10, 37, 75
11, 64920, Note_off_c, 10, 37, 64
11, 64920, Note_on_c, 10, 38, 75
11, 65320, Note_off_c, 10, 38, 64
11, 65400, Note_on_c, 10, 26, 65
11, 65635, Note_off_c, 10, 26, 64
11, 65640, Note_on_c, 10, 48, 60
11, 65880, Note_off_c, 10, 48, 64
11, 65880, Note_on_c, 10, 47, 55
11, 66120, Note_off_c, 10, 47, 64
11, 66120, Note_on_c, 10, 45, 50
11, 66355, Note_off_c, 10, 45, 64
11, 66360, Note_on_c, 10, 43, 45
11, 66760, Note_off_c, 10, 43, 64
11, 66840, Note_on_c, 10, 31, 45
11, 67240, Note_off_c, 10, 31, 64
11, 67800, Note_on_c, 10, 38, 45
11, 68200, Note_off_c, 10, 38, 64
11, 68280, Note_on_c, 10, 26, 45
11, 68520, Note_off_c, 10, 26, 64
11, 68520, Note_on_c, 10, 38, 45
11, 68755, Note_off_c, 10, 38, 64
11, 68760, Note_on_c, 10, 38, 45
11, 69000, Note_off_c, 10, 38, 64
11, 69000, Note_on_c, 10, 36, 45
11, 69235, Note_off_c, 10, 36, 64
11, 69240, Note_on_c, 10, 35, 45
11, 69640, Note_off_c, 10, 35, 64
11, 69720, Note_on_c, 10, 33, 45
11, 70200, Note_off_c, 10, 33, 64
11, 70200, Note_on_c, 10, 31, 45
11, 70600, Note_off_c, 10, 31, 64
11, 70680, Note_on_c, 10, 26, 45
11, 70920, Note_off_c, 10, 26, 64
11, 70920, Note_on_c, 10, 38, 45
11, 71155, Note_off_c, 10, 38, 64
11, 71160, Note_on_c, 10, 38, 45
11, 71400, Note_off_c, 10, 38, 64
11, 71400, Note_on_c, 10, 50, 45
11, 71635, Note_off_c, 10, 50, 64
11, 71640, Note_on_c, 10, 50, 45
11, 71760, Note_off_c, 10, 50, 64
11, 71760, Note_on_c, 10, 48, 45
11, 71880, Note_off_c, 10, 48, 64
11, 71880, Note_on_c, 10, 47, 45
11, 72000, Note_off_c, 10, 47, 64
11, 72000, Note_on_c, 10, 45, 45
11, 72115, Note_off_c, 10, 45, 64
11, 72120, Note_on_c, 10, 43, 45
11, 72520, Note_off_c, 10, 43, 64
11, 73560, Note_on_c, 10, 38, 45
11, 73960, Note_off_c, 10, 38, 64
11, 75000, Note_on_c, 10, 40, 45
11, 76320, Note_off_c, 10, 40, 64
11, 76440, Note_on_c, 10, 38, 45
11, 76675, Note_off_c, 10, 38, 64
11, 76680, Note_on_c, 10, 38, 45
11, 76915, Note_off_c, 10, 38, 64
11, 76920, Note_on_c, 10, 38, 45
11, 77155, Note_off_c, 10, 38, 64
11, 77160, Note_on_c, 10, 38, 45
11, 77395, Note_off_c, 10, 38, 64
11, 77400, Note_on_c, 10, 36, 45
11, 77635, Note_off_c, 10, 36, 64
11, 77640, Note_on_c, 10, 36, 45
11, 77875, Note_off_c, 10, 36, 64
11, 77880, Note_on_c, 10, 35, 45
11, 78115, Note_off_c, 10, 35, 64
11, 78120, Note_on_c, 10, 35, 45
11, 78355, Note_off_c, 10, 35, 64
11, 78360, Note_on_c, 10, 35, 45
11, 78595, Note_off_c, 10, 35, 64
11, 78600, Note_on_c, 10, 35, 45
11, 78835, Note_off_c, 10, 35, 64
11, 78840, Note_on_c, 10, 35, 45
11, 79075, Note_off_c, 10, 35, 64
11, 79080, Note_on_c, 10, 35, 45
11, 79315, Note_off_c, 10, 35, 64
11, 79320, Note_on_c, 10, 36, 45
11, 79555, Note_off_c, 10, 36, 64
11, 79560, Note_on_c, 10, 36, 47
11, 79795, Note_off_c, 10, 36, 64
11, 79800, Note_on_c, 10, 36, 49
11, 80035, Note_off_c, 10, 36, 64
11, 80040, Note_on_c, 10, 36, 51
11, 80275, Note_off_c, 10, 36, 64
11, 80280, Note_on_c, 10, 36, 54
11, 80515, Note_off_c, 10, 36, 64
11, 80520, Note_on_c, 10, 36, 57
11, 80755, Note_off_c, 10, 36, 64
11, 80760, Note_on_c, 10, 38, 60
11, 80995, Note_off_c, 10, 38, 64
11, 81000, Note_on_c, 10, 38, 63
11, 81235, Note_off_c, 10, 38, 64
11, 81240, Note_on_c, 10, 38, 66
11, 81475, Note_off_c, 10, 38, 64
11, 81480, Note_on_c, 10, 38, 69
11, 81715, Note_off_c, 10, 38, 64
11, 81720, Note_on_c, 10, 38, 72
11, 81955, Note_off_c, 10, 38, 64
11, 81960, Note_on_c, 10, 38, 75
11, 82195, Note_off_c, 10, 38, 64
11, 82200, Note_on_c, 10, 40, 75
11, 82435, Note_off_c, 10, 40, 64
11, 82440, Note_on_c, 10, 40, 70
11, 82675, Note_off_c, 10, 40, 64
11, 82680, Note_on_c, 10, 40, 65
11, 82915, Note_off_c, 10, 40, 64
11, 82920, Note_on_c, 10, 40, 60
11, 83160, Note_off_c, 10, 40, 64
11, 83160, Note_on_c, 10, 38, 55
11, 83400, Note_off_c, 10, 38, 64
11, 83400, Note_on_c, 10, 36, 50
11, 83635, Note_off_c, 10, 36, 64
11, 83640, Note_on_c, 10, 35, 45
11, 84040, Note_off_c, 10, 35, 64
11, 85080, Note_on_c, 10, 36, 45
11, 85480, Note_off_c, 10, 36, 64
11, 86040, Note_on_c, 10, 42, 45
11, 86440, Note_off_c, 10, 42, 64
11, 86520, Note_on_c, 10, 43, 45
11, 86920, Note_off_c, 10, 43, 64
11, 87960, Note_on_c, 10, 36, 75
11, 88195, Note_off_c, 10, 36, 64
11, 88200, Note_on_c, 10, 36, 75
11, 88435, Note_off_c, 10, 36, 64
11, 88440, Note_on_c, 10, 38, 75
11, 88675, Note_off_c, 10, 38, 64
11, 88680, Note_on_c, 10, 38, 68
11, 88915, Note_off_c, 10, 38, 64
11, 88920, Note_on_c, 10, 38, 61
11, 89155, Note_off_c, 10, 38, 64
11, 89160, Note_on_c, 10, 38, 53
11, 89395, Note_off_c, 10, 38, 64
11, 89400, Note_on_c, 10, 35, 45
11, 89800, Note_off_c, 10, 35, 64
11, 90840, Note_on_c, 10, 36, 45
11, 91240, Note_off_c, 10, 36, 64
11, 91800, Note_on_c, 10, 42, 45
11, 92200, Note_off_c, 10, 42, 64
11, 92280, Note_on_c, 10, 43, 45
11, 92680, Note_off_c, 10, 43, 64
11, 93720, Note_on_c, 10, 36, 60
11, 93955, Note_off_c, 10, 36, 64
11, 93960, Note_on_c, 10, 36, 60
11, 94195, Note_off_c, 10, 36, 64
11, 94200, Note_on_c, 10, 38, 60
11, 94435, Note_off_c, 10, 38, 64
11, 94440, Note_on_c, 10, 38, 60
11, 94675, Note_off_c, 10, 38, 64
11, 94680, Note_on_c, 10, 38, 60
11, 94915, Note_off_c, 10, 38, 64
11, 94920, Note_on_c, 10, 38, 67
11, 95155, Note_off_c, 10, 38, 64
11, 95160, Note_on_c, 10, 43, 75
11, 95800, Note_off_c, 10, 43, 64
11, 95880, Note_on_c, 10, 47, 75
11, 96115, Note_off_c, 10, 47, 64
11, 96120, Note_on_c, 10, 50, 70
11, 96520, Note_off_c, 10, 50, 64
11, 96600, Note_on_c, 10, 43, 60
11, 97000, Note_off_c, 10, 43, 64
11, 97080, Note_on_c, 10, 35, 60
11, 97480, Note_off_c, 10, 35, 64
11, 97560, Note_on_c, 10, 38, 60
11, 97960, Note_off_c, 10, 38, 64
11, 98040, Note_on_c, 10, 31, 45
11, 99360, Note_off_c, 10, 31, 64
11, 99360, End_track
0, 0, End_of_file