0, 0, Header, 1, 14, 240
1, 0, Start_track
1, 0, Time_signature, 3, 2, 12, 8
1, 0, Tempo, 833333
1, 720, Tempo, 1666667
1, 12960, Tempo, 1764706
1, 13680, Tempo, 1875000
1, 13800, Tempo, 1875000
1, 13920, Tempo, 1875000
1, 14040, Tempo, 1935484
1, 14160, Tempo, 1935484
1, 14280, Tempo, 1935484
1, 14400, Time_signature, 4, 2, 24, 8
1, 14400, Tempo, 333333
1, 17520, Tempo, 337079
1, 17760, Tempo, 340909
1, 18000, Tempo, 344828
1, 18240, Tempo, 333333
1, 23040, Tempo, 340909
1, 24000, Tempo, 333333
1, 30000, Tempo, 337079
1, 30240, Tempo, 340909
1, 30480, Tempo, 344828
1, 30720, Tempo, 333333
1, 50880, Tempo, 340909
1, 52800, Tempo, 333333
1, 54720, Tempo, 348837
1, 58560, Tempo, 340909
1, 63360, Tempo, 333333
1, 67440, Tempo, 337079
1, 67680, Tempo, 338983
1, 67920, Tempo, 342857
1, 68160, Tempo, 348837
1, 68400, Tempo, 355030
1, 68640, Tempo, 361446
1, 68880, Tempo, 368098
1, 69120, Tempo, 340909
1, 75840, Tempo, 333333
1, 90240, Tempo, 340909
1, 92160, Tempo, 333333
1, 96000, Tempo, 340909
1, 100080, Tempo, 342857
1, 100320, Tempo, 344828
1, 100560, Tempo, 346821
1, 100800, Tempo, 348837
1, 101040, Tempo, 350877
1, 101280, Tempo, 352941
1, 101520, Tempo, 355030
1, 101760, Tempo, 333333
1, 107520, Tempo, 337079
1, 108480, Tempo, 333333
1, 109440, Tempo, 340909
1, 112320, Tempo, 348837
1, 112560, Tempo, 350877
1, 112800, Tempo, 352941
1, 113040, Tempo, 355030
1, 113280, Tempo, 333333
1, 116400, Tempo, 337079
1, 116640, Tempo, 340909
1, 116880, Tempo, 344828
1, 117120, Tempo, 333333
1, 121920, Tempo, 340909
1, 122880, Tempo, 333333
1, 128880, Tempo, 337079
1, 129120, Tempo, 340909
1, 129360, Tempo, 344828
1, 129600, Tempo, 333333
1, 149760, Tempo, 340909
1, 151680, Tempo, 333333
1, 153600, Tempo, 348837
1, 157440, Tempo, 340909
1, 162240, Tempo, 333333
1, 166320, Tempo, 337079
1, 166560, Tempo, 338983
1, 166800, Tempo, 342857
1, 167040, Tempo, 348837
1, 167280, Tempo, 355030
1, 167520, Tempo, 361446
1, 167760, Tempo, 368098
1, 168000, Tempo, 340909
1, 174720, Tempo, 333333
1, 189120, Tempo, 340909
1, 191040, Tempo, 333333
1, 194880, Tempo, 340909
1, 198960, Tempo, 342857
1, 199200, Tempo, 344828
1, 199440, Tempo, 346821
1, 199680, Tempo, 348837
1, 199920, Tempo, 350877
1, 200160, Tempo, 352941
1, 200400, Tempo, 355030
1, 200640, Tempo, 333333
1, 206400, Tempo, 337079
1, 207360, Tempo, 333333
1, 208320, Tempo, 340909
1, 211200, Tempo, 348837
1, 211440, Tempo, 350877
1, 211680, Tempo, 352941
1, 211920, Tempo, 355030
1, 212160, Tempo, 348837
1, 226560, Tempo, 340909
1, 228480, Tempo, 337079
1, 232320, Tempo, 340909
1, 239040, Tempo, 348837
1, 239280, Tempo, 355030
1, 239520, Tempo, 361446
1, 239760, Tempo, 368098
1, 240000, Tempo, 333333
1, 245760, Tempo, 348837
1, 250560, Tempo, 333333
1, 253680, Tempo, 337079
1, 253920, Tempo, 340909
1, 254160, Tempo, 344828
1, 254400, Tempo, 333333
1, 259200, Tempo, 340909
1, 260160, Tempo, 333333
1, 266160, Tempo, 337079
1, 266400, Tempo, 340909
1, 266640, Tempo, 344828
1, 266880, Tempo, 333333
1, 288000, Tempo, 340909
1, 289920, Tempo, 333333
1, 293760, Tempo, 348837
1, 297600, Tempo, 340909
1, 301440, Tempo, 348837
1, 302400, Tempo, 340909
1, 303360, Tempo, 333333
1, 306240, Tempo, 348837
1, 306480, Tempo, 352941
1, 306720, Tempo, 355030
1, 306960, Tempo, 359281
1, 307200, Tempo, 361446
1, 307440, Tempo, 365854
1, 307680, Tempo, 368098
1, 307920, Tempo, 372671
1, 308160, Tempo, 340909
1, 314880, Tempo, 333333
1, 329280, Tempo, 340909
1, 331200, Tempo, 333333
1, 335040, Tempo, 348837
1, 340800, Tempo, 333333
1, 346560, Tempo, 340909
1, 347520, Tempo, 333333
1, 348480, Tempo, 348837
1, 357120, Tempo, 340909
1, 360960, Tempo, 348837
1, 362880, Tempo, 340909
1, 366720, Tempo, 348837
1, 367680, Tempo, 352941
1, 367920, Tempo, 361446
1, 368160, Tempo, 372671
1, 368400, Tempo, 382166
1, 368640, Tempo, 392157
1, 368880, Tempo, 405405
1, 369120, Tempo, 422535
1, 369360, Tempo, 437956
1, 369600, Tempo, 441176
1, 370560, Tempo, 1000000
1, 370560, End_track
2, 0, Start_track
2, 0, Program_c, 0, 68
2, 0, Control_c, 0, 7, 89
2, 0, Control_c, 0, 10, 64
2, 0, Control_c, 0, 91, 70
2, 720, Note_on_c, 0, 72, 105
2, 834, Note_off_c, 0, 72, 64
2, 930, Note_on_c, 0, 72, 105
2, 954, Note_off_c, 0, 72, 64
2, 960, Note_on_c, 0, 76, 105
2, 1074, Note_off_c, 0, 76, 64
2, 1170, Note_on_c, 0, 76, 105
2, 1194, Note_off_c, 0, 76, 64
2, 1200, Note_on_c, 0, 81, 105
2, 1314, Note_off_c, 0, 81, 64
2, 1410, Note_on_c, 0, 81, 105
2, 1434, Note_off_c, 0, 81, 64
2, 1440, Note_on_c, 0, 71, 105
2, 1536, Note_off_c, 0, 71, 64
2, 1650, Note_on_c, 0, 74, 105
2, 1650, Note_on_c, 0, 79, 105
2, 1674, Note_off_c, 0, 79, 64
2, 1674, Note_off_c, 0, 74, 64
2, 1680, Note_on_c, 0, 74, 105
2, 1680, Note_on_c, 0, 79, 105
2, 1920, Note_off_c, 0, 79, 64
2, 1920, Note_off_c, 0, 74, 64
2, 2370, Note_on_c, 0, 76, 105
2, 2370, Note_on_c, 0, 84, 105
2, 2394, Note_off_c, 0, 84, 64
2, 2394, Note_off_c, 0, 76, 64
2, 2400, Note_on_c, 0, 84, 105
2, 2400, Note_on_c, 0, 76, 105
2, 2640, Note_off_c, 0, 76, 64
2, 2640, Note_off_c, 0, 84, 64
2, 6600, Note_on_c, 0, 80, 81
2, 6720, Note_off_c, 0, 80, 64
2, 6720, Note_on_c, 0, 79, 81
2, 6840, Note_off_c, 0, 79, 64
2, 6840, Note_on_c, 0, 74, 81
2, 6960, Note_off_c, 0, 74, 64
2, 6960, Note_on_c, 0, 79, 81
2, 7080, Note_off_c, 0, 79, 64
2, 7080, Note_on_c, 0, 77, 81
2, 7176, Note_off_c, 0, 77, 64
2, 7200, Note_on_c, 0, 76, 98
2, 7272, Note_off_c, 0, 76, 64
2, 7320, Note_on_c, 0, 85, 58
2, 7320, Note_on_c, 0, 73, 58
2, 7440, Note_off_c, 0, 73, 64
2, 7440, Note_off_c, 0, 85, 64
2, 7440, Note_on_c, 0, 72, 58
2, 7440, Note_on_c, 0, 84, 58
2, 7560, Note_off_c, 0, 84, 64
2, 7560, Note_off_c, 0, 72, 64
2, 7560, Note_on_c, 0, 79, 58
2, 7560, Note_on_c, 0, 67, 58
2, 7680, Note_off_c, 0, 67, 64
2, 7680, Note_off_c, 0, 79, 64
2, 7680, Note_on_c, 0, 72, 58
2, 7680, Note_on_c, 0, 84, 58
2, 7800, Note_off_c, 0, 84, 64
2, 7800, Note_off_c, 0, 72, 64
2, 7800, Note_on_c, 0, 82, 58
2, 7800, Note_on_c, 0, 70, 58
2, 7896, Note_off_c, 0, 70, 64
2, 7896, Note_off_c, 0, 82, 64
2, 7920, Note_on_c, 0, 68, 58
2, 7920, Note_on_c, 0, 80, 58
2, 8028, Note_off_c, 0, 68, 64
2, 8040, Note_on_c, 0, 72, 58
2, 8148, Note_off_c, 0, 72, 64
2, 8160, Note_on_c, 0, 77, 58
2, 9360, Note_off_c, 0, 80, 64
2, 9360, Note_off_c, 0, 77, 64
2, 10920, Note_on_c, 0, 74, 58
2, 11040, Note_off_c, 0, 74, 64
2, 11040, Note_on_c, 0, 75, 72
2, 11160, Note_off_c, 0, 75, 64
2, 11160, Note_on_c, 0, 76, 72
2, 11280, Note_off_c, 0, 76, 64
2, 11280, Note_on_c, 0, 77, 81
2, 11400, Note_off_c, 0, 77, 64
2, 11400, Note_on_c, 0, 78, 101
2, 11496, Note_off_c, 0, 78, 64
2, 11520, Note_on_c, 0, 79, 58
2, 11616, Note_off_c, 0, 79, 64
2, 12360, Note_on_c, 0, 79, 98
2, 12360, Note_on_c, 0, 75, 58
2, 12480, Note_off_c, 0, 79, 64
2, 12480, Note_on_c, 0, 78, 58
2, 12600, Note_off_c, 0, 75, 64
2, 12600, Note_off_c, 0, 78, 64
2, 12600, Note_on_c, 0, 74, 58
2, 12600, Note_on_c, 0, 77, 58
2, 12720, Note_off_c, 0, 77, 64
2, 12720, Note_off_c, 0, 74, 64
2, 12720, Note_on_c, 0, 76, 58
2, 12720, Note_on_c, 0, 67, 58
2, 12840, Note_off_c, 0, 67, 64
2, 12840, Note_off_c, 0, 76, 64
2, 12840, Note_on_c, 0, 75, 58
2, 12840, Note_on_c, 0, 72, 58
2, 12936, Note_off_c, 0, 72, 64
2, 12936, Note_off_c, 0, 75, 64
2, 12960, Note_on_c, 0, 74, 58
2, 12960, Note_on_c, 0, 71, 58
2, 13056, Note_off_c, 0, 71, 64
2, 13056, Note_off_c, 0, 74, 64
2, 13200, Note_on_c, 0, 71, 58
2, 13200, Note_on_c, 0, 79, 58
2, 13296, Note_off_c, 0, 79, 64
2, 13296, Note_off_c, 0, 71, 64
2, 13440, Note_on_c, 0, 79, 58
2, 13440, Note_on_c, 0, 71, 58
2, 13536, Note_off_c, 0, 71, 64
2, 13536, Note_off_c, 0, 79, 64
2, 13680, Note_on_c, 0, 71, 58
2, 13680, Note_on_c, 0, 79, 58
2, 13776, Note_off_c, 0, 79, 64
2, 13776, Note_off_c, 0, 71, 64
2, 13920, Note_on_c, 0, 79, 116
2, 13920, Note_on_c, 0, 71, 116
2, 14148, Note_off_c, 0, 71, 64
2, 14148, Note_off_c, 0, 79, 64
2, 24000, Note_on_c, 0, 76, 105
2, 24000, Note_on_c, 0, 72, 105
2, 24768, Note_off_c, 0, 72, 64
2, 24768, Note_off_c, 0, 76, 64
2, 24960, Note_on_c, 0, 77, 105
2, 24960, Note_on_c, 0, 74, 105
2, 25728, Note_off_c, 0, 74, 64
2, 25728, Note_off_c, 0, 77, 64
2, 25920, Note_on_c, 0, 76, 105
2, 25920, Note_on_c, 0, 79, 105
2, 26280, Note_off_c, 0, 79, 64
2, 26280, Note_off_c, 0, 76, 64
2, 26280, Note_on_c, 0, 77, 105
2, 26280, Note_on_c, 0, 81, 105
2, 26340, Note_off_c, 0, 81, 64
2, 26340, Note_off_c, 0, 77, 64
2, 26340, Note_on_c, 0, 83, 105
2, 26340, Note_on_c, 0, 74, 105
2, 26388, Note_off_c, 0, 74, 64
2, 26388, Note_off_c, 0, 83, 64
2, 26400, Note_on_c, 0, 76, 105
2, 26400, Note_on_c, 0, 84, 105
2, 26544, Note_off_c, 0, 84, 64
2, 26544, Note_off_c, 0, 76, 64
2, 26640, Note_on_c, 0, 76, 105
2, 26640, Note_on_c, 0, 79, 105
2, 26784, Note_off_c, 0, 79, 64
2, 26784, Note_off_c, 0, 76, 64
2, 26880, Note_on_c, 0, 77, 105
2, 26880, Note_on_c, 0, 81, 105
2, 27048, Note_off_c, 0, 81, 64
2, 27048, Note_off_c, 0, 77, 64
2, 27120, Note_on_c, 0, 79, 105
2, 27120, Note_on_c, 0, 76, 105
2, 27288, Note_off_c, 0, 76, 64
2, 27288, Note_off_c, 0, 79, 64
2, 27360, Note_on_c, 0, 84, 125
2, 27528, Note_off_c, 0, 84, 64
2, 27600, Note_on_c, 0, 76, 105
2, 27600, Note_on_c, 0, 79, 105
2, 27768, Note_off_c, 0, 79, 64
2, 27768, Note_off_c, 0, 76, 64
2, 27840, Note_on_c, 0, 77, 105
2, 27840, Note_on_c, 0, 81, 105
2, 28008, Note_off_c, 0, 81, 64
2, 28008, Note_off_c, 0, 77, 64
2, 28080, Note_on_c, 0, 79, 105
2, 28080, Note_on_c, 0, 76, 105
2, 28248, Note_off_c, 0, 76, 64
2, 28248, Note_off_c, 0, 79, 64
2, 28320, Note_on_c, 0, 84, 125
2, 28488, Note_off_c, 0, 84, 64
2, 28560, Note_on_c, 0, 76, 105
2, 28560, Note_on_c, 0, 79, 105
2, 28728, Note_off_c, 0, 79, 64
2, 28728, Note_off_c, 0, 76, 64
2, 28800, Note_on_c, 0, 81, 105
2, 28800, Note_on_c, 0, 77, 105
2, 28968, Note_off_c, 0, 77, 64
2, 28968, Note_off_c, 0, 81, 64
2, 29040, Note_on_c, 0, 76, 105
2, 29040, Note_on_c, 0, 79, 105
2, 29208, Note_off_c, 0, 79, 64
2, 29208, Note_off_c, 0, 76, 64
2, 29280, Note_on_c, 0, 81, 105
2, 29280, Note_on_c, 0, 77, 105
2, 29448, Note_off_c, 0, 77, 64
2, 29448, Note_off_c, 0, 81, 64
2, 29520, Note_on_c, 0, 76, 105
2, 29520, Note_on_c, 0, 79, 105
2, 29688, Note_off_c, 0, 79, 64
2, 29688, Note_off_c, 0, 76, 64
2, 29760, Note_on_c, 0, 81, 105
2, 29760, Note_on_c, 0, 77, 105
2, 29928, Note_off_c, 0, 77, 64
2, 29928, Note_off_c, 0, 81, 64
2, 30000, Note_on_c, 0, 76, 105
2, 30000, Note_on_c, 0, 79, 105
2, 30168, Note_off_c, 0, 79, 64
2, 30168, Note_off_c, 0, 76, 64
2, 35520, Note_on_c, 0, 72, 105
2, 35688, Note_off_c, 0, 72, 64
2, 35760, Note_on_c, 0, 72, 105
2, 35886, Note_off_c, 0, 72, 64
2, 35940, Note_on_c, 0, 72, 105
2, 35982, Note_off_c, 0, 72, 64
2, 36000, Note_on_c, 0, 72, 105
2, 36168, Note_off_c, 0, 72, 64
2, 36240, Note_on_c, 0, 72, 105
2, 36408, Note_off_c, 0, 72, 64
2, 36480, Note_on_c, 0, 79, 105
2, 36648, Note_off_c, 0, 79, 64
2, 36720, Note_on_c, 0, 79, 105
2, 36846, Note_off_c, 0, 79, 64
2, 36900, Note_on_c, 0, 79, 105
2, 36942, Note_off_c, 0, 79, 64
2, 36960, Note_on_c, 0, 79, 105
2, 37128, Note_off_c, 0, 79, 64
2, 37200, Note_on_c, 0, 79, 105
2, 37368, Note_off_c, 0, 79, 64
2, 37440, Note_on_c, 0, 84, 105
2, 37824, Note_off_c, 0, 84, 64
2, 37920, Note_on_c, 0, 76, 105
2, 38304, Note_off_c, 0, 76, 64
2, 38400, Note_on_c, 0, 74, 105
2, 38760, Note_off_c, 0, 74, 64
2, 38760, Note_on_c, 0, 77, 105
2, 38820, Note_off_c, 0, 77, 64
2, 38820, Note_on_c, 0, 81, 105
2, 38868, Note_off_c, 0, 81, 64
2, 38880, Note_on_c, 0, 72, 105
2, 39120, Note_off_c, 0, 72, 64
2, 39120, Note_on_c, 0, 71, 105
2, 39348, Note_off_c, 0, 71, 64
2, 39360, Note_on_c, 0, 72, 105
2, 39528, Note_off_c, 0, 72, 64
2, 39600, Note_on_c, 0, 72, 105
2, 39726, Note_off_c, 0, 72, 64
2, 39780, Note_on_c, 0, 72, 105
2, 39822, Note_off_c, 0, 72, 64
2, 39840, Note_on_c, 0, 72, 105
2, 40008, Note_off_c, 0, 72, 64
2, 40080, Note_on_c, 0, 72, 105
2, 40248, Note_off_c, 0, 72, 64
2, 40320, Note_on_c, 0, 79, 105
2, 40488, Note_off_c, 0, 79, 64
2, 40560, Note_on_c, 0, 79, 105
2, 40686, Note_off_c, 0, 79, 64
2, 40740, Note_on_c, 0, 79, 105
2, 40782, Note_off_c, 0, 79, 64
2, 40800, Note_on_c, 0, 79, 105
2, 40968, Note_off_c, 0, 79, 64
2, 41040, Note_on_c, 0, 79, 105
2, 41208, Note_off_c, 0, 79, 64
2, 41280, Note_on_c, 0, 84, 105
2, 41760, Note_on_c, 0, 76, 105
2, 42144, Note_off_c, 0, 76, 64
2, 42240, Note_on_c, 0, 74, 105
2, 43008, Note_off_c, 0, 84, 64
2, 43200, Note_on_c, 0, 83, 105
2, 43968, Note_off_c, 0, 74, 64
2, 44160, Note_on_c, 0, 72, 105
2, 44928, Note_off_c, 0, 83, 64
2, 45120, Note_on_c, 0, 81, 105
2, 45888, Note_off_c, 0, 72, 64
2, 45888, Note_off_c, 0, 81, 64
2, 46080, Note_on_c, 0, 79, 105
2, 46080, Note_on_c, 0, 71, 105
2, 46272, Note_off_c, 0, 71, 64
2, 46272, Note_off_c, 0, 79, 64
2, 46800, Note_on_c, 0, 74, 105
2, 46800, Note_on_c, 0, 86, 105
2, 46884, Note_off_c, 0, 86, 64
2, 46884, Note_off_c, 0, 74, 64
2, 46920, Note_on_c, 0, 74, 105
2, 46920, Note_on_c, 0, 86, 105
2, 47004, Note_off_c, 0, 86, 64
2, 47004, Note_off_c, 0, 74, 64
2, 47040, Note_on_c, 0, 74, 105
2, 47040, Note_on_c, 0, 86, 105
2, 47208, Note_off_c, 0, 86, 64
2, 47208, Note_off_c, 0, 74, 64
2, 47280, Note_on_c, 0, 79, 105
2, 47448, Note_off_c, 0, 79, 64
2, 47520, Note_on_c, 0, 81, 105
2, 47880, Note_off_c, 0, 81, 64
2, 47880, Note_on_c, 0, 83, 105
2, 47940, Note_off_c, 0, 83, 64
2, 47940, Note_on_c, 0, 84, 105
2, 47988, Note_off_c, 0, 84, 64
2, 48000, Note_on_c, 0, 83, 105
2, 48192, Note_off_c, 0, 83, 64
2, 48720, Note_on_c, 0, 74, 105
2, 48720, Note_on_c, 0, 86, 105
2, 48804, Note_off_c, 0, 86, 64
2, 48804, Note_off_c, 0, 74, 64
2, 48840, Note_on_c, 0, 74, 105
2, 48840, Note_on_c, 0, 86, 105
2, 48924, Note_off_c, 0, 86, 64
2, 48924, Note_off_c, 0, 74, 64
2, 48960, Note_on_c, 0, 74, 105
2, 48960, Note_on_c, 0, 86, 105
2, 49128, Note_off_c, 0, 86, 64
2, 49128, Note_off_c, 0, 74, 64
2, 49200, Note_on_c, 0, 79, 105
2, 49368, Note_off_c, 0, 79, 64
2, 49440, Note_on_c, 0, 81, 105
2, 49800, Note_off_c, 0, 81, 64
2, 49800, Note_on_c, 0, 83, 105
2, 49860, Note_off_c, 0, 83, 64
2, 49860, Note_on_c, 0, 84, 105
2, 49908, Note_off_c, 0, 84, 64
2, 49920, Note_on_c, 0, 83, 105
2, 50112, Note_off_c, 0, 83, 64
2, 53760, Note_on_c, 0, 72, 105
2, 53832, Note_off_c, 0, 72, 64
2, 53880, Note_on_c, 0, 71, 105
2, 53952, Note_off_c, 0, 71, 64
2, 54000, Note_on_c, 0, 72, 105
2, 54072, Note_off_c, 0, 72, 64
2, 54120, Note_on_c, 0, 71, 105
2, 54192, Note_off_c, 0, 71, 64
2, 54240, Note_on_c, 0, 72, 105
2, 54312, Note_off_c, 0, 72, 64
2, 54360, Note_on_c, 0, 71, 105
2, 54432, Note_off_c, 0, 71, 64
2, 54480, Note_on_c, 0, 72, 105
2, 54552, Note_off_c, 0, 72, 64
2, 54600, Note_on_c, 0, 74, 105
2, 54672, Note_off_c, 0, 74, 64
2, 54720, Note_on_c, 0, 76, 105
2, 54912, Note_off_c, 0, 76, 64
2, 56640, Note_on_c, 0, 69, 72
2, 57600, Note_off_c, 0, 69, 64
2, 57600, Note_on_c, 0, 85, 72
2, 58368, Note_off_c, 0, 85, 64
2, 58560, Note_on_c, 0, 86, 72
2, 58752, Note_off_c, 0, 86, 64
2, 60240, Note_on_c, 0, 75, 58
2, 60384, Note_off_c, 0, 75, 64
2, 60480, Note_on_c, 0, 76, 72
2, 60840, Note_off_c, 0, 76, 64
2, 60840, Note_on_c, 0, 78, 72
2, 60900, Note_off_c, 0, 78, 64
2, 60900, Note_on_c, 0, 79, 72
2, 60960, Note_off_c, 0, 79, 64
2, 60960, Note_on_c, 0, 74, 72
2, 61104, Note_off_c, 0, 74, 64
2, 62160, Note_on_c, 0, 83, 72
2, 62304, Note_off_c, 0, 83, 64
2, 62400, Note_on_c, 0, 81, 72
2, 62544, Note_off_c, 0, 81, 64
2, 62640, Note_on_c, 0, 84, 72
2, 63120, Note_off_c, 0, 84, 64
2, 63120, Note_on_c, 0, 81, 72
2, 63240, Note_off_c, 0, 81, 64
2, 63240, Note_on_c, 0, 78, 72
2, 63336, Note_off_c, 0, 78, 64
2, 63360, Note_on_c, 0, 79, 58
2, 63552, Note_off_c, 0, 79, 64
2, 63840, Note_on_c, 0, 64, 105
2, 63840, Note_on_c, 0, 76, 105
2, 63984, Note_off_c, 0, 76, 64
2, 63984, Note_off_c, 0, 64, 64
2, 64080, Note_on_c, 0, 76, 105
2, 64080, Note_on_c, 0, 64, 105
2, 64224, Note_off_c, 0, 64, 64
2, 64224, Note_off_c, 0, 76, 64
2, 64320, Note_on_c, 0, 64, 105
2, 64320, Note_on_c, 0, 76, 105
2, 64704, Note_off_c, 0, 76, 64
2, 64704, Note_off_c, 0, 64, 64
2, 64800, Note_on_c, 0, 71, 105
2, 64800, Note_on_c, 0, 83, 105
2, 65184, Note_off_c, 0, 83, 64
2, 65184, Note_off_c, 0, 71, 64
2, 65280, Note_on_c, 0, 67, 105
2, 65280, Note_on_c, 0, 79, 105
2, 65436, Note_off_c, 0, 79, 64
2, 65436, Note_off_c, 0, 67, 64
2, 65520, Note_on_c, 0, 76, 105
2, 65520, Note_on_c, 0, 64, 105
2, 65676, Note_off_c, 0, 64, 64
2, 65676, Note_off_c, 0, 76, 64
2, 65760, Note_on_c, 0, 83, 105
2, 65760, Note_on_c, 0, 71, 105
2, 65916, Note_off_c, 0, 71, 64
2, 65916, Note_off_c, 0, 83, 64
2, 66000, Note_on_c, 0, 71, 105
2, 66000, Note_on_c, 0, 83, 105
2, 66156, Note_off_c, 0, 83, 64
2, 66156, Note_off_c, 0, 71, 64
2, 66240, Note_on_c, 0, 67, 105
2, 66240, Note_on_c, 0, 79, 105
2, 66396, Note_off_c, 0, 79, 64
2, 66396, Note_off_c, 0, 67, 64
2, 66480, Note_on_c, 0, 64, 105
2, 66480, Note_on_c, 0, 76, 105
2, 66636, Note_off_c, 0, 76, 64
2, 66636, Note_off_c, 0, 64, 64
2, 66720, Note_on_c, 0, 83, 105
2, 66720, Note_on_c, 0, 71, 105
2, 66876, Note_off_c, 0, 71, 64
2, 66876, Note_off_c, 0, 83, 64
2, 66960, Note_on_c, 0, 71, 105
2, 66960, Note_on_c, 0, 83, 105
2, 67116, Note_off_c, 0, 83, 64
2, 67116, Note_off_c, 0, 71, 64
2, 67200, Note_on_c, 0, 67, 105
2, 67200, Note_on_c, 0, 79, 105
2, 67356, Note_off_c, 0, 79, 64
2, 67356, Note_off_c, 0, 67, 64
2, 67440, Note_on_c, 0, 64, 105
2, 67440, Note_on_c, 0, 76, 105
2, 67596, Note_off_c, 0, 76, 64
2, 67596, Note_off_c, 0, 64, 64
2, 67680, Note_on_c, 0, 79, 72
2, 67680, Note_on_c, 0, 84, 72
2, 67860, Note_off_c, 0, 84, 64
2, 67860, Note_off_c, 0, 79, 64
2, 67920, Note_on_c, 0, 84, 72
2, 67920, Note_on_c, 0, 79, 72
2, 68100, Note_off_c, 0, 79, 64
2, 68100, Note_off_c, 0, 84, 64
2, 68160, Note_on_c, 0, 79, 72
2, 68160, Note_on_c, 0, 84, 72
2, 68616, Note_off_c, 0, 84, 64
2, 68616, Note_off_c, 0, 79, 64
2, 68640, Note_on_c, 0, 71, 72
2, 68640, Note_on_c, 0, 79, 72
2, 69096, Note_off_c, 0, 79, 64
2, 69096, Note_off_c, 0, 71, 64
2, 69120, Note_on_c, 0, 76, 58
2, 69120, Note_on_c, 0, 72, 58
2, 69312, Note_off_c, 0, 72, 64
2, 69312, Note_off_c, 0, 76, 64
2, 71520, Note_on_c, 0, 76, 58
2, 71700, Note_off_c, 0, 76, 64
2, 71760, Note_on_c, 0, 76, 72
2, 71940, Note_off_c, 0, 76, 64
2, 72000, Note_on_c, 0, 76, 72
2, 72480, Note_off_c, 0, 76, 64
2, 72480, Note_on_c, 0, 83, 72
2, 72864, Note_off_c, 0, 83, 64
2, 72960, Note_on_c, 0, 81, 72
2, 73080, Note_off_c, 0, 81, 64
2, 73080, Note_on_c, 0, 79, 72
2, 73200, Note_off_c, 0, 79, 64
2, 73200, Note_on_c, 0, 78, 72
2, 73320, Note_off_c, 0, 78, 64
2, 73320, Note_on_c, 0, 76, 72
2, 73416, Note_off_c, 0, 76, 64
2, 73440, Note_on_c, 0, 83, 72
2, 73620, Note_off_c, 0, 83, 64
2, 73680, Note_on_c, 0, 83, 72
2, 73860, Note_off_c, 0, 83, 64
2, 73920, Note_on_c, 0, 81, 72
2, 74040, Note_off_c, 0, 81, 64
2, 74040, Note_on_c, 0, 79, 72
2, 74160, Note_off_c, 0, 79, 64
2, 74160, Note_on_c, 0, 78, 72
2, 74280, Note_off_c, 0, 78, 64
2, 74280, Note_on_c, 0, 76, 72
2, 74376, Note_off_c, 0, 76, 64
2, 74400, Note_on_c, 0, 82, 72
2, 74520, Note_off_c, 0, 82, 64
2, 74520, Note_on_c, 0, 83, 72
2, 74640, Note_off_c, 0, 83, 64
2, 74640, Note_on_c, 0, 82, 72
2, 74760, Note_off_c, 0, 82, 64
2, 74760, Note_on_c, 0, 83, 72
2, 74856, Note_off_c, 0, 83, 64
2, 74880, Note_on_c, 0, 81, 72
2, 75000, Note_off_c, 0, 81, 64
2, 75000, Note_on_c, 0, 79, 72
2, 75120, Note_off_c, 0, 79, 64
2, 75120, Note_on_c, 0, 78, 72
2, 75240, Note_off_c, 0, 78, 64
2, 75240, Note_on_c, 0, 76, 72
2, 75336, Note_off_c, 0, 76, 64
2, 75360, Note_on_c, 0, 76, 105
2, 75360, Note_on_c, 0, 84, 105
2, 75504, Note_off_c, 0, 84, 64
2, 75504, Note_off_c, 0, 76, 64
2, 75600, Note_on_c, 0, 76, 105
2, 75600, Note_on_c, 0, 84, 105
2, 75744, Note_off_c, 0, 84, 64
2, 75744, Note_off_c, 0, 76, 64
2, 75840, Note_on_c, 0, 84, 105
2, 75840, Note_on_c, 0, 76, 105
2, 76224, Note_off_c, 0, 76, 64
2, 76224, Note_off_c, 0, 84, 64
2, 76320, Note_on_c, 0, 74, 105
2, 76320, Note_on_c, 0, 79, 105
2, 76704, Note_off_c, 0, 79, 64
2, 76704, Note_off_c, 0, 74, 64
2, 76800, Note_on_c, 0, 76, 105
2, 76800, Note_on_c, 0, 72, 105
2, 76830, Note_off_c, 0, 72, 64
2, 76830, Note_off_c, 0, 76, 64
2, 76830, Note_on_c, 0, 74, 105
2, 76830, Note_on_c, 0, 77, 105
2, 76860, Note_off_c, 0, 77, 64
2, 76860, Note_off_c, 0, 74, 64
2, 76860, Note_on_c, 0, 79, 105
2, 76860, Note_on_c, 0, 76, 105
2, 77004, Note_off_c, 0, 76, 64
2, 77004, Note_off_c, 0, 79, 64
2, 77040, Note_on_c, 0, 76, 105
2, 77040, Note_on_c, 0, 79, 105
2, 77112, Note_off_c, 0, 79, 64
2, 77112, Note_off_c, 0, 76, 64
2, 77160, Note_on_c, 0, 79, 105
2, 77160, Note_on_c, 0, 76, 105
2, 77232, Note_off_c, 0, 76, 64
2, 77232, Note_off_c, 0, 79, 64
2, 77280, Note_on_c, 0, 79, 105
2, 77280, Note_on_c, 0, 76, 105
2, 77424, Note_off_c, 0, 76, 64
2, 77424, Note_off_c, 0, 79, 64
2, 77520, Note_on_c, 0, 84, 105
2, 77520, Note_on_c, 0, 81, 105
2, 77664, Note_off_c, 0, 81, 64
2, 77664, Note_off_c, 0, 84, 64
2, 77760, Note_on_c, 0, 83, 105
2, 77760, Note_on_c, 0, 79, 105
2, 77790, Note_off_c, 0, 79, 64
2, 77790, Note_off_c, 0, 83, 64
2, 77790, Note_on_c, 0, 84, 105
2, 77790, Note_on_c, 0, 81, 105
2, 77820, Note_off_c, 0, 81, 64
2, 77820, Note_off_c, 0, 84, 64
2, 77820, Note_on_c, 0, 83, 105
2, 77820, Note_on_c, 0, 86, 105
2, 77964, Note_off_c, 0, 86, 64
2, 77964, Note_off_c, 0, 83, 64
2, 78000, Note_on_c, 0, 86, 105
2, 78000, Note_on_c, 0, 83, 105
2, 78072, Note_off_c, 0, 83, 64
2, 78072, Note_off_c, 0, 86, 64
2, 78120, Note_on_c, 0, 86, 105
2, 78120, Note_on_c, 0, 83, 105
2, 78192, Note_off_c, 0, 83, 64
2, 78192, Note_off_c, 0, 86, 64
2, 78240, Note_on_c, 0, 83, 105
2, 78240, Note_on_c, 0, 86, 105
2, 78384, Note_off_c, 0, 86, 64
2, 78384, Note_off_c, 0, 83, 64
2, 78480, Note_on_c, 0, 78, 105
2, 78480, Note_on_c, 0, 72, 105
2, 78624, Note_off_c, 0, 72, 64
2, 78624, Note_off_c, 0, 78, 64
2, 78720, Note_on_c, 0, 71, 105
2, 78720, Note_on_c, 0, 79, 105
2, 78912, Note_off_c, 0, 79, 64
2, 78912, Note_off_c, 0, 71, 64
2, 79080, Note_on_c, 0, 74, 105
2, 79164, Note_off_c, 0, 74, 64
2, 79200, Note_on_c, 0, 76, 105
2, 79284, Note_off_c, 0, 76, 64
2, 79320, Note_on_c, 0, 72, 105
2, 79404, Note_off_c, 0, 72, 64
2, 79440, Note_on_c, 0, 78, 105
2, 79524, Note_off_c, 0, 78, 64
2, 79560, Note_on_c, 0, 74, 105
2, 79644, Note_off_c, 0, 74, 64
2, 79680, Note_on_c, 0, 79, 105
2, 79764, Note_off_c, 0, 79, 64
2, 79800, Note_on_c, 0, 76, 105
2, 79884, Note_off_c, 0, 76, 64
2, 79920, Note_on_c, 0, 81, 105
2, 80004, Note_off_c, 0, 81, 64
2, 80040, Note_on_c, 0, 78, 105
2, 80124, Note_off_c, 0, 78, 64
2, 80160, Note_on_c, 0, 83, 105
2, 80244, Note_off_c, 0, 83, 64
2, 80280, Note_on_c, 0, 79, 105
2, 80364, Note_off_c, 0, 79, 64
2, 80400, Note_on_c, 0, 84, 105
2, 80484, Note_off_c, 0, 84, 64
2, 80520, Note_on_c, 0, 81, 105
2, 80604, Note_off_c, 0, 81, 64
2, 80640, Note_on_c, 0, 86, 105
2, 80808, Note_off_c, 0, 86, 64
2, 80880, Note_on_c, 0, 79, 105
2, 80880, Note_on_c, 0, 71, 105
2, 81048, Note_off_c, 0, 71, 64
2, 81048, Note_off_c, 0, 79, 64
2, 81120, Note_on_c, 0, 69, 105
2, 81120, Note_on_c, 0, 78, 105
2, 81288, Note_off_c, 0, 78, 64
2, 81288, Note_off_c, 0, 69, 64
2, 81360, Note_on_c, 0, 81, 105
2, 81360, Note_on_c, 0, 84, 105
2, 81528, Note_off_c, 0, 84, 64
2, 81528, Note_off_c, 0, 81, 64
2, 81600, Note_on_c, 0, 83, 105
2, 81600, Note_on_c, 0, 79, 105
2, 81768, Note_off_c, 0, 79, 64
2, 81768, Note_off_c, 0, 83, 64
2, 81840, Note_on_c, 0, 71, 105
2, 81840, Note_on_c, 0, 79, 105
2, 82008, Note_off_c, 0, 79, 64
2, 82008, Note_off_c, 0, 71, 64
2, 82080, Note_on_c, 0, 81, 105
2, 82080, Note_on_c, 0, 72, 105
2, 82248, Note_off_c, 0, 72, 64
2, 82248, Note_off_c, 0, 81, 64
2, 82320, Note_on_c, 0, 78, 105
2, 82320, Note_on_c, 0, 69, 105
2, 82488, Note_off_c, 0, 69, 64
2, 82488, Note_off_c, 0, 78, 64
2, 82560, Note_on_c, 0, 71, 105
2, 82560, Note_on_c, 0, 79, 105
2, 82752, Note_off_c, 0, 79, 64
2, 82752, Note_off_c, 0, 71, 64
2, 82920, Note_on_c, 0, 62, 105
2, 82920, Note_on_c, 0, 74, 105
2, 83004, Note_off_c, 0, 74, 64
2, 83004, Note_off_c, 0, 62, 64
2, 83040, Note_on_c, 0, 76, 105
2, 83040, Note_on_c, 0, 64, 105
2, 83124, Note_off_c, 0, 64, 64
2, 83124, Note_off_c, 0, 76, 64
2, 83160, Note_on_c, 0, 76, 105
2, 83160, Note_on_c, 0, 64, 105
2, 83244, Note_off_c, 0, 64, 64
2, 83244, Note_off_c, 0, 76, 64
2, 83280, Note_on_c, 0, 66, 105
2, 83280, Note_on_c, 0, 78, 105
2, 83364, Note_off_c, 0, 78, 64
2, 83364, Note_off_c, 0, 66, 64
2, 83400, Note_on_c, 0, 66, 105
2, 83400, Note_on_c, 0, 78, 105
2, 83484, Note_off_c, 0, 78, 64
2, 83484, Note_off_c, 0, 66, 64
2, 83520, Note_on_c, 0, 79, 105
2, 83520, Note_on_c, 0, 67, 105
2, 83604, Note_off_c, 0, 67, 64
2, 83604, Note_off_c, 0, 79, 64
2, 83640, Note_on_c, 0, 67, 105
2, 83640, Note_on_c, 0, 79, 105
2, 83724, Note_off_c, 0, 79, 64
2, 83724, Note_off_c, 0, 67, 64
2, 83760, Note_on_c, 0, 69, 105
2, 83760, Note_on_c, 0, 81, 105
2, 83844, Note_off_c, 0, 81, 64
2, 83844, Note_off_c, 0, 69, 64
2, 83880, Note_on_c, 0, 69, 105
2, 83880, Note_on_c, 0, 81, 105
2, 83964, Note_off_c, 0, 81, 64
2, 83964, Note_off_c, 0, 69, 64
2, 84000, Note_on_c, 0, 71, 105
2, 84000, Note_on_c, 0, 83, 105
2, 84084, Note_off_c, 0, 83, 64
2, 84084, Note_off_c, 0, 71, 64
2, 84120, Note_on_c, 0, 71, 105
2, 84120, Note_on_c, 0, 83, 105
2, 84204, Note_off_c, 0, 83, 64
2, 84204, Note_off_c, 0, 71, 64
2, 84240, Note_on_c, 0, 72, 105
2, 84240, Note_on_c, 0, 84, 105
2, 84324, Note_off_c, 0, 84, 64
2, 84324, Note_off_c, 0, 72, 64
2, 84360, Note_on_c, 0, 84, 105
2, 84360, Note_on_c, 0, 72, 105
2, 84444, Note_off_c, 0, 72, 64
2, 84444, Note_off_c, 0, 84, 64
2, 84480, Note_on_c, 0, 86, 105
2, 84480, Note_on_c, 0, 74, 105
2, 84648, Note_off_c, 0, 74, 64
2, 84648, Note_off_c, 0, 86, 64
2, 84720, Note_on_c, 0, 83, 105
2, 84720, Note_on_c, 0, 71, 105
2, 84888, Note_off_c, 0, 71, 64
2, 84888, Note_off_c, 0, 83, 64
2, 84960, Note_on_c, 0, 72, 105
2, 84960, Note_on_c, 0, 84, 105
2, 85128, Note_off_c, 0, 84, 64
2, 85128, Note_off_c, 0, 72, 64
2, 85200, Note_on_c, 0, 69, 105
2, 85200, Note_on_c, 0, 81, 105
2, 85368, Note_off_c, 0, 81, 64
2, 85368, Note_off_c, 0, 69, 64
2, 85440, Note_on_c, 0, 83, 105
2, 85440, Note_on_c, 0, 71, 105
2, 85608, Note_off_c, 0, 71, 64
2, 85608, Note_off_c, 0, 83, 64
2, 85680, Note_on_c, 0, 79, 105
2, 85680, Note_on_c, 0, 74, 105
2, 85848, Note_off_c, 0, 74, 64
2, 85848, Note_off_c, 0, 79, 64
2, 85920, Note_on_c, 0, 76, 105
2, 85920, Note_on_c, 0, 81, 105
2, 86088, Note_off_c, 0, 81, 64
2, 86088, Note_off_c, 0, 76, 64
2, 86160, Note_on_c, 0, 78, 105
2, 86160, Note_on_c, 0, 72, 105
2, 86328, Note_off_c, 0, 72, 64
2, 86328, Note_off_c, 0, 78, 64
2, 86400, Note_on_c, 0, 79, 105
2, 86400, Note_on_c, 0, 71, 105
2, 86484, Note_off_c, 0, 71, 64
2, 86484, Note_off_c, 0, 79, 64
2, 86520, Note_on_c, 0, 71, 105
2, 86520, Note_on_c, 0, 79, 105
2, 86604, Note_off_c, 0, 79, 64
2, 86604, Note_off_c, 0, 71, 64
2, 86640, Note_on_c, 0, 79, 105
2, 86640, Note_on_c, 0, 71, 105
2, 86724, Note_off_c, 0, 71, 64
2, 86724, Note_off_c, 0, 79, 64
2, 86760, Note_on_c, 0, 71, 105
2, 86760, Note_on_c, 0, 79, 105
2, 86844, Note_off_c, 0, 79, 64
2, 86844, Note_off_c, 0, 71, 64
2, 86880, Note_on_c, 0, 71, 105
2, 86880, Note_on_c, 0, 79, 105
2, 87072, Note_off_c, 0, 79, 64
2, 87072, Note_off_c, 0, 71, 64
2, 87360, Note_on_c, 0, 79, 105
2, 87360, Note_on_c, 0, 71, 105
2, 87444, Note_off_c, 0, 71, 64
2, 87444, Note_off_c, 0, 79, 64
2, 87480, Note_on_c, 0, 71, 105
2, 87480, Note_on_c, 0, 79, 105
2, 87564, Note_off_c, 0, 79, 64
2, 87564, Note_off_c, 0, 71, 64
2, 87600, Note_on_c, 0, 79, 105
2, 87600, Note_on_c, 0, 71, 105
2, 87684, Note_off_c, 0, 71, 64
2, 87684, Note_off_c, 0, 79, 64
2, 87720, Note_on_c, 0, 79, 105
2, 87720, Note_on_c, 0, 71, 105
2, 87804, Note_off_c, 0, 71, 64
2, 87804, Note_off_c, 0, 79, 64
2, 87840, Note_on_c, 0, 71, 105
2, 87840, Note_on_c, 0, 79, 105
2, 88032, Note_off_c, 0, 79, 64
2, 88032, Note_off_c, 0, 71, 64
2, 88320, Note_on_c, 0, 74, 105
2, 88320, Note_on_c, 0, 79, 105
2, 88404, Note_off_c, 0, 79, 64
2, 88404, Note_off_c, 0, 74, 64
2, 88440, Note_on_c, 0, 74, 105
2, 88440, Note_on_c, 0, 79, 105
2, 88524, Note_off_c, 0, 79, 64
2, 88524, Note_off_c, 0, 74, 64
2, 88560, Note_on_c, 0, 74, 105
2, 88560, Note_on_c, 0, 79, 105
2, 88644, Note_off_c, 0, 79, 64
2, 88644, Note_off_c, 0, 74, 64
2, 88680, Note_on_c, 0, 79, 105
2, 88680, Note_on_c, 0, 74, 105
2, 88764, Note_off_c, 0, 74, 64
2, 88764, Note_off_c, 0, 79, 64
2, 88800, Note_on_c, 0, 79, 105
2, 88800, Note_on_c, 0, 74, 105
2, 88992, Note_off_c, 0, 74, 64
2, 88992, Note_off_c, 0, 79, 64
2, 89280, Note_on_c, 0, 64, 105
2, 89280, Note_on_c, 0, 76, 105
2, 89664, Note_off_c, 0, 64, 64
2, 89760, Note_on_c, 0, 72, 105
2, 90144, Note_off_c, 0, 76, 64
2, 90144, Note_off_c, 0, 72, 64
2, 90240, Note_on_c, 0, 69, 105
2, 90240, Note_on_c, 0, 74, 105
2, 90384, Note_off_c, 0, 74, 64
2, 90384, Note_off_c, 0, 69, 64
2, 90480, Note_on_c, 0, 81, 105
2, 90480, Note_on_c, 0, 84, 105
2, 90624, Note_off_c, 0, 84, 64
2, 90624, Note_off_c, 0, 81, 64
2, 90960, Note_on_c, 0, 83, 105
2, 90960, Note_on_c, 0, 79, 105
2, 91128, Note_off_c, 0, 79, 64
2, 91128, Note_off_c, 0, 83, 64
2, 91200, Note_on_c, 0, 74, 105
2, 91200, Note_on_c, 0, 83, 105
2, 91320, Note_off_c, 0, 83, 64
2, 91320, Note_off_c, 0, 74, 64
2, 91320, Note_on_c, 0, 81, 105
2, 91320, Note_on_c, 0, 72, 105
2, 91440, Note_off_c, 0, 72, 64
2, 91440, Note_off_c, 0, 81, 64
2, 91440, Note_on_c, 0, 71, 105
2, 91440, Note_on_c, 0, 79, 105
2, 91824, Note_off_c, 0, 79, 64
2, 91824, Note_off_c, 0, 71, 64
2, 91920, Note_on_c, 0, 69, 105
2, 91920, Note_on_c, 0, 78, 105
2, 92088, Note_off_c, 0, 78, 64
2, 92088, Note_off_c, 0, 69, 64
2, 92160, Note_on_c, 0, 79, 105
2, 92160, Note_on_c, 0, 71, 105
2, 92244, Note_off_c, 0, 71, 64
2, 92244, Note_off_c, 0, 79, 64
2, 92280, Note_on_c, 0, 71, 105
2, 92280, Note_on_c, 0, 79, 105
2, 92364, Note_off_c, 0, 79, 64
2, 92364, Note_off_c, 0, 71, 64
2, 92400, Note_on_c, 0, 79, 105
2, 92400, Note_on_c, 0, 71, 105
2, 92484, Note_off_c, 0, 71, 64
2, 92484, Note_off_c, 0, 79, 64
2, 92520, Note_on_c, 0, 71, 105
2, 92520, Note_on_c, 0, 79, 105
2, 92604, Note_off_c, 0, 79, 64
2, 92604, Note_off_c, 0, 71, 64
2, 92640, Note_on_c, 0, 71, 105
2, 92640, Note_on_c, 0, 79, 105
2, 92832, Note_off_c, 0, 79, 64
2, 92832, Note_off_c, 0, 71, 64
2, 93120, Note_on_c, 0, 71, 105
2, 93120, Note_on_c, 0, 79, 105
2, 93204, Note_off_c, 0, 79, 64
2, 93204, Note_off_c, 0, 71, 64
2, 93240, Note_on_c, 0, 79, 105
2, 93240, Note_on_c, 0, 71, 105
2, 93324, Note_off_c, 0, 71, 64
2, 93324, Note_off_c, 0, 79, 64
2, 93360, Note_on_c, 0, 71, 105
2, 93360, Note_on_c, 0, 79, 105
2, 93444, Note_off_c, 0, 79, 64
2, 93444, Note_off_c, 0, 71, 64
2, 93480, Note_on_c, 0, 79, 105
2, 93480, Note_on_c, 0, 71, 105
2, 93564, Note_off_c, 0, 71, 64
2, 93564, Note_off_c, 0, 79, 64
2, 93600, Note_on_c, 0, 71, 105
2, 93600, Note_on_c, 0, 79, 105
2, 93792, Note_off_c, 0, 79, 64
2, 93792, Note_off_c, 0, 71, 64
2, 94080, Note_on_c, 0, 74, 105
2, 94080, Note_on_c, 0, 79, 105
2, 94164, Note_off_c, 0, 79, 64
2, 94164, Note_off_c, 0, 74, 64
2, 94200, Note_on_c, 0, 74, 105
2, 94200, Note_on_c, 0, 79, 105
2, 94284, Note_off_c, 0, 79, 64
2, 94284, Note_off_c, 0, 74, 64
2, 94320, Note_on_c, 0, 79, 105
2, 94320, Note_on_c, 0, 74, 105
2, 94404, Note_off_c, 0, 74, 64
2, 94404, Note_off_c, 0, 79, 64
2, 94440, Note_on_c, 0, 74, 105
2, 94440, Note_on_c, 0, 79, 105
2, 94524, Note_off_c, 0, 79, 64
2, 94524, Note_off_c, 0, 74, 64
2, 94560, Note_on_c, 0, 74, 105
2, 94560, Note_on_c, 0, 79, 105
2, 94752, Note_off_c, 0, 79, 64
2, 94752, Note_off_c, 0, 74, 64
2, 95040, Note_on_c, 0, 76, 105
2, 95040, Note_on_c, 0, 64, 105
2, 95424, Note_off_c, 0, 64, 64
2, 95520, Note_on_c, 0, 72, 105
2, 95904, Note_off_c, 0, 76, 64
2, 95904, Note_off_c, 0, 72, 64
2, 96000, Note_on_c, 0, 72, 105
2, 96000, Note_on_c, 0, 74, 105
2, 96144, Note_off_c, 0, 74, 64
2, 96144, Note_off_c, 0, 72, 64
2, 96240, Note_on_c, 0, 84, 105
2, 96240, Note_on_c, 0, 81, 105
2, 96384, Note_off_c, 0, 81, 64
2, 96384, Note_off_c, 0, 84, 64
2, 99600, Note_on_c, 0, 63, 58
2, 99600, Note_on_c, 0, 75, 58
2, 99840, Note_off_c, 0, 75, 64
2, 99840, Note_off_c, 0, 63, 64
2, 99840, Note_on_c, 0, 62, 58
2, 99840, Note_on_c, 0, 74, 58
2, 100008, Note_off_c, 0, 74, 64
2, 100008, Note_off_c, 0, 62, 64
2, 100080, Note_on_c, 0, 84, 58
2, 100080, Note_on_c, 0, 72, 58
2, 100560, Note_off_c, 0, 72, 64
2, 100560, Note_off_c, 0, 84, 64
2, 100560, Note_on_c, 0, 71, 58
2, 100560, Note_on_c, 0, 83, 58
2, 101016, Note_off_c, 0, 83, 64
2, 101016, Note_off_c, 0, 71, 64
2, 101040, Note_on_c, 0, 69, 58
2, 101040, Note_on_c, 0, 81, 58
2, 101520, Note_off_c, 0, 81, 64
2, 101520, Note_off_c, 0, 69, 64
2, 101520, Note_on_c, 0, 78, 58
2, 101520, Note_on_c, 0, 66, 58
2, 101736, Note_off_c, 0, 66, 64
2, 101736, Note_off_c, 0, 78, 64
2, 101760, Note_on_c, 0, 79, 105
2, 101760, Note_on_c, 0, 71, 105
2, 102048, Note_off_c, 0, 71, 64
2, 102048, Note_off_c, 0, 79, 64
2, 102120, Note_on_c, 0, 74, 105
2, 102204, Note_off_c, 0, 74, 64
2, 102240, Note_on_c, 0, 79, 105
2, 102324, Note_off_c, 0, 79, 64
2, 102360, Note_on_c, 0, 78, 105
2, 102360, Note_on_c, 0, 81, 105
2, 102444, Note_off_c, 0, 81, 64
2, 102444, Note_off_c, 0, 78, 64
2, 102480, Note_on_c, 0, 79, 105
2, 102480, Note_on_c, 0, 83, 105
2, 102564, Note_off_c, 0, 83, 64
2, 102564, Note_off_c, 0, 79, 64
2, 102600, Note_on_c, 0, 84, 105
2, 102600, Note_on_c, 0, 81, 105
2, 102684, Note_off_c, 0, 81, 64
2, 102684, Note_off_c, 0, 84, 64
2, 102720, Note_on_c, 0, 86, 105
2, 102720, Note_on_c, 0, 83, 105
2, 103008, Note_off_c, 0, 83, 64
2, 103008, Note_off_c, 0, 86, 64
2, 103080, Note_on_c, 0, 85, 105
2, 103080, Note_on_c, 0, 82, 105
2, 103164, Note_off_c, 0, 82, 64
2, 103164, Note_off_c, 0, 85, 64
2, 103200, Note_on_c, 0, 83, 105
2, 103200, Note_on_c, 0, 86, 105
2, 103284, Note_off_c, 0, 86, 64
2, 103284, Note_off_c, 0, 83, 64
2, 103320, Note_on_c, 0, 82, 105
2, 103320, Note_on_c, 0, 85, 105
2, 103404, Note_off_c, 0, 85, 64
2, 103404, Note_off_c, 0, 82, 64
2, 103440, Note_on_c, 0, 86, 105
2, 103440, Note_on_c, 0, 83, 105
2, 103524, Note_off_c, 0, 83, 64
2, 103524, Note_off_c, 0, 86, 64
2, 103560, Note_on_c, 0, 85, 105
2, 103560, Note_on_c, 0, 82, 105
2, 103644, Note_off_c, 0, 82, 64
2, 103644, Note_off_c, 0, 85, 64
2, 103680, Note_on_c, 0, 83, 105
2, 103680, Note_on_c, 0, 86, 105
2, 103848, Note_off_c, 0, 86, 64
2, 103848, Note_off_c, 0, 83, 64
2, 103920, Note_on_c, 0, 83, 105
2, 103920, Note_on_c, 0, 79, 105
2, 104088, Note_off_c, 0, 79, 64
2, 104088, Note_off_c, 0, 83, 64
2, 104160, Note_on_c, 0, 81, 105
2, 104160, Note_on_c, 0, 84, 105
2, 104328, Note_off_c, 0, 84, 64
2, 104328, Note_off_c, 0, 81, 64
2, 104400, Note_on_c, 0, 78, 105
2, 104400, Note_on_c, 0, 81, 105
2, 104568, Note_off_c, 0, 81, 64
2, 104568, Note_off_c, 0, 78, 64
2, 104640, Note_on_c, 0, 71, 105
2, 104640, Note_on_c, 0, 79, 105
2, 104928, Note_off_c, 0, 79, 64
2, 104928, Note_off_c, 0, 71, 64
2, 105000, Note_on_c, 0, 74, 105
2, 105084, Note_off_c, 0, 74, 64
2, 105120, Note_on_c, 0, 79, 105
2, 105204, Note_off_c, 0, 79, 64
2, 105240, Note_on_c, 0, 81, 105
2, 105240, Note_on_c, 0, 78, 105
2, 105324, Note_off_c, 0, 78, 64
2, 105324, Note_off_c, 0, 81, 64
2, 105360, Note_on_c, 0, 79, 105
2, 105360, Note_on_c, 0, 83, 105
2, 105444, Note_off_c, 0, 83, 64
2, 105444, Note_off_c, 0, 79, 64
2, 105480, Note_on_c, 0, 84, 105
2, 105480, Note_on_c, 0, 81, 105
2, 105564, Note_off_c, 0, 81, 64
2, 105564, Note_off_c, 0, 84, 64
2, 105600, Note_on_c, 0, 86, 105
2, 105600, Note_on_c, 0, 83, 105
2, 105684, Note_off_c, 0, 83, 64
2, 105684, Note_off_c, 0, 86, 64
2, 105720, Note_on_c, 0, 86, 105
2, 105720, Note_on_c, 0, 83, 105
2, 105912, Note_off_c, 0, 83, 64
2, 105912, Note_off_c, 0, 86, 64
2, 105960, Note_on_c, 0, 85, 105
2, 105960, Note_on_c, 0, 82, 105
2, 106044, Note_off_c, 0, 82, 64
2, 106044, Note_off_c, 0, 85, 64
2, 106080, Note_on_c, 0, 86, 105
2, 106080, Note_on_c, 0, 83, 105
2, 106164, Note_off_c, 0, 83, 64
2, 106164, Note_off_c, 0, 86, 64
2, 106200, Note_on_c, 0, 82, 105
2, 106200, Note_on_c, 0, 85, 105
2, 106284, Note_off_c, 0, 85, 64
2, 106284, Note_off_c, 0, 82, 64
2, 106320, Note_on_c, 0, 83, 105
2, 106320, Note_on_c, 0, 86, 105
2, 106404, Note_off_c, 0, 86, 64
2, 106404, Note_off_c, 0, 83, 64
2, 106440, Note_on_c, 0, 85, 105
2, 106440, Note_on_c, 0, 82, 105
2, 106524, Note_off_c, 0, 82, 64
2, 106524, Note_off_c, 0, 85, 64
2, 106560, Note_on_c, 0, 86, 105
2, 106560, Note_on_c, 0, 83, 105
2, 106728, Note_off_c, 0, 83, 64
2, 106728, Note_off_c, 0, 86, 64
2, 106800, Note_on_c, 0, 83, 105
2, 106800, Note_on_c, 0, 79, 105
2, 106968, Note_off_c, 0, 79, 64
2, 106968, Note_off_c, 0, 83, 64
2, 107040, Note_on_c, 0, 84, 105
2, 107040, Note_on_c, 0, 81, 105
2, 107208, Note_off_c, 0, 81, 64
2, 107208, Note_off_c, 0, 84, 64
2, 107280, Note_on_c, 0, 81, 105
2, 107280, Note_on_c, 0, 78, 105
2, 107448, Note_off_c, 0, 78, 64
2, 107448, Note_off_c, 0, 81, 64
2, 107520, Note_on_c, 0, 86, 72
2, 107520, Note_on_c, 0, 83, 72
2, 107598, Note_off_c, 0, 83, 64
2, 107598, Note_off_c, 0, 86, 64
2, 107640, Note_on_c, 0, 86, 72
2, 107640, Note_on_c, 0, 83, 72
2, 107718, Note_off_c, 0, 83, 64
2, 107718, Note_off_c, 0, 86, 64
2, 107760, Note_on_c, 0, 83, 72
2, 107760, Note_on_c, 0, 79, 72
2, 107838, Note_off_c, 0, 79, 64
2, 107838, Note_off_c, 0, 83, 64
2, 107880, Note_on_c, 0, 79, 72
2, 107880, Note_on_c, 0, 83, 72
2, 107958, Note_off_c, 0, 83, 64
2, 107958, Note_off_c, 0, 79, 64
2, 108000, Note_on_c, 0, 81, 72
2, 108000, Note_on_c, 0, 84, 72
2, 108078, Note_off_c, 0, 84, 64
2, 108078, Note_off_c, 0, 81, 64
2, 108120, Note_on_c, 0, 84, 72
2, 108120, Note_on_c, 0, 81, 72
2, 108198, Note_off_c, 0, 81, 64
2, 108198, Note_off_c, 0, 84, 64
2, 108240, Note_on_c, 0, 78, 72
2, 108240, Note_on_c, 0, 81, 72
2, 108318, Note_off_c, 0, 81, 64
2, 108318, Note_off_c, 0, 78, 64
2, 108360, Note_on_c, 0, 81, 72
2, 108360, Note_on_c, 0, 78, 72
2, 108438, Note_off_c, 0, 78, 64
2, 108438, Note_off_c, 0, 81, 64
2, 108480, Note_on_c, 0, 83, 105
2, 108480, Note_on_c, 0, 86, 105
2, 108564, Note_off_c, 0, 86, 64
2, 108564, Note_off_c, 0, 83, 64
2, 108600, Note_on_c, 0, 86, 105
2, 108600, Note_on_c, 0, 83, 105
2, 108684, Note_off_c, 0, 83, 64
2, 108684, Note_off_c, 0, 86, 64
2, 108720, Note_on_c, 0, 79, 105
2, 108720, Note_on_c, 0, 83, 105
2, 108804, Note_off_c, 0, 83, 64
2, 108804, Note_off_c, 0, 79, 64
2, 108840, Note_on_c, 0, 79, 105
2, 108840, Note_on_c, 0, 83, 105
2, 108924, Note_off_c, 0, 83, 64
2, 108924, Note_off_c, 0, 79, 64
2, 108960, Note_on_c, 0, 84, 105
2, 108960, Note_on_c, 0, 81, 105
2, 109044, Note_off_c, 0, 81, 64
2, 109044, Note_off_c, 0, 84, 64
2, 109080, Note_on_c, 0, 81, 105
2, 109080, Note_on_c, 0, 84, 105
2, 109164, Note_off_c, 0, 84, 64
2, 109164, Note_off_c, 0, 81, 64
2, 109200, Note_on_c, 0, 81, 105
2, 109200, Note_on_c, 0, 78, 105
2, 109284, Note_off_c, 0, 78, 64
2, 109284, Note_off_c, 0, 81, 64
2, 109320, Note_on_c, 0, 81, 105
2, 109320, Note_on_c, 0, 78, 105
2, 109404, Note_off_c, 0, 78, 64
2, 109404, Note_off_c, 0, 81, 64
2, 109440, Note_on_c, 0, 79, 105
2, 109632, Note_off_c, 0, 79, 64
2, 111360, Note_on_c, 0, 71, 58
2, 111360, Note_on_c, 0, 77, 58
2, 112896, Note_off_c, 0, 77, 64
2, 112896, Note_off_c, 0, 71, 64
2, 122880, Note_on_c, 0, 76, 105
2, 122880, Note_on_c, 0, 72, 105
2, 123648, Note_off_c, 0, 72, 64
2, 123648, Note_off_c, 0, 76, 64
2, 123840, Note_on_c, 0, 77, 105
2, 123840, Note_on_c, 0, 74, 105
2, 124608, Note_off_c, 0, 74, 64
2, 124608, Note_off_c, 0, 77, 64
2, 124800, Note_on_c, 0, 76, 105
2, 124800, Note_on_c, 0, 79, 105
2, 125160, Note_off_c, 0, 79, 64
2, 125160, Note_off_c, 0, 76, 64
2, 125160, Note_on_c, 0, 77, 105
2, 125160, Note_on_c, 0, 81, 105
2, 125220, Note_off_c, 0, 81, 64
2, 125220, Note_off_c, 0, 77, 64
2, 125220, Note_on_c, 0, 83, 105
2, 125220, Note_on_c, 0, 74, 105
2, 125268, Note_off_c, 0, 74, 64
2, 125268, Note_off_c, 0, 83, 64
2, 125280, Note_on_c, 0, 76, 105
2, 125280, Note_on_c, 0, 84, 105
2, 125424, Note_off_c, 0, 84, 64
2, 125424, Note_off_c, 0, 76, 64
2, 125520, Note_on_c, 0, 76, 105
2, 125520, Note_on_c, 0, 79, 105
2, 125664, Note_off_c, 0, 79, 64
2, 125664, Note_off_c, 0, 76, 64
2, 125760, Note_on_c, 0, 77, 105
2, 125760, Note_on_c, 0, 81, 105
2, 125928, Note_off_c, 0, 81, 64
2, 125928, Note_off_c, 0, 77, 64
2, 126000, Note_on_c, 0, 79, 105
2, 126000, Note_on_c, 0, 76, 105
2, 126168, Note_off_c, 0, 76, 64
2, 126168, Note_off_c, 0, 79, 64
2, 126240, Note_on_c, 0, 84, 125
2, 126408, Note_off_c, 0, 84, 64
2, 126480, Note_on_c, 0, 76, 105
2, 126480, Note_on_c, 0, 79, 105
2, 126648, Note_off_c, 0, 79, 64
2, 126648, Note_off_c, 0, 76, 64
2, 126720, Note_on_c, 0, 77, 105
2, 126720, Note_on_c, 0, 81, 105
2, 126888, Note_off_c, 0, 81, 64
2, 126888, Note_off_c, 0, 77, 64
2, 126960, Note_on_c, 0, 79, 105
2, 126960, Note_on_c, 0, 76, 105
2, 127128, Note_off_c, 0, 76, 64
2, 127128, Note_off_c, 0, 79, 64
2, 127200, Note_on_c, 0, 84, 125
2, 127368, Note_off_c, 0, 84, 64
2, 127440, Note_on_c, 0, 76, 105
2, 127440, Note_on_c, 0, 79, 105
2, 127608, Note_off_c, 0, 79, 64
2, 127608, Note_off_c, 0, 76, 64
2, 127680, Note_on_c, 0, 81, 105
2, 127680, Note_on_c, 0, 77, 105
2, 127848, Note_off_c, 0, 77, 64
2, 127848, Note_off_c, 0, 81, 64
2, 127920, Note_on_c, 0, 76, 105
2, 127920, Note_on_c, 0, 79, 105
2, 128088, Note_off_c, 0, 79, 64
2, 128088, Note_off_c, 0, 76, 64
2, 128160, Note_on_c, 0, 81, 105
2, 128160, Note_on_c, 0, 77, 105
2, 128328, Note_off_c, 0, 77, 64
2, 128328, Note_off_c, 0, 81, 64
2, 128400, Note_on_c, 0, 76, 105
2, 128400, Note_on_c, 0, 79, 105
2, 128568, Note_off_c, 0, 79, 64
2, 128568, Note_off_c, 0, 76, 64
2, 128640, Note_on_c, 0, 81, 105
2, 128640, Note_on_c, 0, 77, 105
2, 128808, Note_off_c, 0, 77, 64
2, 128808, Note_off_c, 0, 81, 64
2, 128880, Note_on_c, 0, 76, 105
2, 128880, Note_on_c, 0, 79, 105
2, 129048, Note_off_c, 0, 79, 64
2, 129048, Note_off_c, 0, 76, 64
2, 134400, Note_on_c, 0, 72, 105
2, 134568, Note_off_c, 0, 72, 64
2, 134640, Note_on_c, 0, 72, 105
2, 134766, Note_off_c, 0, 72, 64
2, 134820, Note_on_c, 0, 72, 105
2, 134862, Note_off_c, 0, 72, 64
2, 134880, Note_on_c, 0, 72, 105
2, 135048, Note_off_c, 0, 72, 64
2, 135120, Note_on_c, 0, 72, 105
2, 135288, Note_off_c, 0, 72, 64
2, 135360, Note_on_c, 0, 79, 105
2, 135528, Note_off_c, 0, 79, 64
2, 135600, Note_on_c, 0, 79, 105
2, 135726, Note_off_c, 0, 79, 64
2, 135780, Note_on_c, 0, 79, 105
2, 135822, Note_off_c, 0, 79, 64
2, 135840, Note_on_c, 0, 79, 105
2, 136008, Note_off_c, 0, 79, 64
2, 136080, Note_on_c, 0, 79, 105
2, 136248, Note_off_c, 0, 79, 64
2, 136320, Note_on_c, 0, 84, 105
2, 136704, Note_off_c, 0, 84, 64
2, 136800, Note_on_c, 0, 76, 105
2, 137184, Note_off_c, 0, 76, 64
2, 137280, Note_on_c, 0, 74, 105
2, 137640, Note_off_c, 0, 74, 64
2, 137640, Note_on_c, 0, 77, 105
2, 137700, Note_off_c, 0, 77, 64
2, 137700, Note_on_c, 0, 81, 105
2, 137748, Note_off_c, 0, 81, 64
2, 137760, Note_on_c, 0, 72, 105
2, 138000, Note_off_c, 0, 72, 64
2, 138000, Note_on_c, 0, 71, 105
2, 138228, Note_off_c, 0, 71, 64
2, 138240, Note_on_c, 0, 72, 105
2, 138408, Note_off_c, 0, 72, 64
2, 138480, Note_on_c, 0, 72, 105
2, 138606, Note_off_c, 0, 72, 64
2, 138660, Note_on_c, 0, 72, 105
2, 138702, Note_off_c, 0, 72, 64
2, 138720, Note_on_c, 0, 72, 105
2, 138888, Note_off_c, 0, 72, 64
2, 138960, Note_on_c, 0, 72, 105
2, 139128, Note_off_c, 0, 72, 64
2, 139200, Note_on_c, 0, 79, 105
2, 139368, Note_off_c, 0, 79, 64
2, 139440, Note_on_c, 0, 79, 105
2, 139566, Note_off_c, 0, 79, 64
2, 139620, Note_on_c, 0, 79, 105
2, 139662, Note_off_c, 0, 79, 64
2, 139680, Note_on_c, 0, 79, 105
2, 139848, Note_off_c, 0, 79, 64
2, 139920, Note_on_c, 0, 79, 105
2, 140088, Note_off_c, 0, 79, 64
2, 140160, Note_on_c, 0, 84, 105
2, 140640, Note_on_c, 0, 76, 105
2, 141024, Note_off_c, 0, 76, 64
2, 141120, Note_on_c, 0, 74, 105
2, 141888, Note_off_c, 0, 84, 64
2, 142080, Note_on_c, 0, 83, 105
2, 142848, Note_off_c, 0, 74, 64
2, 143040, Note_on_c, 0, 72, 105
2, 143808, Note_off_c, 0, 83, 64
2, 144000, Note_on_c, 0, 81, 105
2, 144768, Note_off_c, 0, 72, 64
2, 144768, Note_off_c, 0, 81, 64
2, 144960, Note_on_c, 0, 79, 105
2, 144960, Note_on_c, 0, 71, 105
2, 145152, Note_off_c, 0, 71, 64
2, 145152, Note_off_c, 0, 79, 64
2, 145680, Note_on_c, 0, 74, 105
2, 145680, Note_on_c, 0, 86, 105
2, 145764, Note_off_c, 0, 86, 64
2, 145764, Note_off_c, 0, 74, 64
2, 145800, Note_on_c, 0, 74, 105
2, 145800, Note_on_c, 0, 86, 105
2, 145884, Note_off_c, 0, 86, 64
2, 145884, Note_off_c, 0, 74, 64
2, 145920, Note_on_c, 0, 74, 105
2, 145920, Note_on_c, 0, 86, 105
2, 146088, Note_off_c, 0, 86, 64
2, 146088, Note_off_c, 0, 74, 64
2, 146160, Note_on_c, 0, 79, 105
2, 146328, Note_off_c, 0, 79, 64
2, 146400, Note_on_c, 0, 81, 105
2, 146760, Note_off_c, 0, 81, 64
2, 146760, Note_on_c, 0, 83, 105
2, 146820, Note_off_c, 0, 83, 64
2, 146820, Note_on_c, 0, 84, 105
2, 146868, Note_off_c, 0, 84, 64
2, 146880, Note_on_c, 0, 83, 105
2, 147072, Note_off_c, 0, 83, 64
2, 147600, Note_on_c, 0, 74, 105
2, 147600, Note_on_c, 0, 86, 105
2, 147684, Note_off_c, 0, 86, 64
2, 147684, Note_off_c, 0, 74, 64
2, 147720, Note_on_c, 0, 74, 105
2, 147720, Note_on_c, 0, 86, 105
2, 147804, Note_off_c, 0, 86, 64
2, 147804, Note_off_c, 0, 74, 64
2, 147840, Note_on_c, 0, 74, 105
2, 147840, Note_on_c, 0, 86, 105
2, 148008, Note_off_c, 0, 86, 64
2, 148008, Note_off_c, 0, 74, 64
2, 148080, Note_on_c, 0, 79, 105
2, 148248, Note_off_c, 0, 79, 64
2, 148320, Note_on_c, 0, 81, 105
2, 148680, Note_off_c, 0, 81, 64
2, 148680, Note_on_c, 0, 83, 105
2, 148740, Note_off_c, 0, 83, 64
2, 148740, Note_on_c, 0, 84, 105
2, 148788, Note_off_c, 0, 84, 64
2, 148800, Note_on_c, 0, 83, 105
2, 148992, Note_off_c, 0, 83, 64
2, 152640, Note_on_c, 0, 72, 105
2, 152712, Note_off_c, 0, 72, 64
2, 152760, Note_on_c, 0, 71, 105
2, 152832, Note_off_c, 0, 71, 64
2, 152880, Note_on_c, 0, 72, 105
2, 152952, Note_off_c, 0, 72, 64
2, 153000, Note_on_c, 0, 71, 105
2, 153072, Note_off_c, 0, 71, 64
2, 153120, Note_on_c, 0, 72, 105
2, 153192, Note_off_c, 0, 72, 64
2, 153240, Note_on_c, 0, 71, 105
2, 153312, Note_off_c, 0, 71, 64
2, 153360, Note_on_c, 0, 72, 105
2, 153432, Note_off_c, 0, 72, 64
2, 153480, Note_on_c, 0, 74, 105
2, 153552, Note_off_c, 0, 74, 64
2, 153600, Note_on_c, 0, 76, 105
2, 153792, Note_off_c, 0, 76, 64
2, 155520, Note_on_c, 0, 69, 72
2, 156480, Note_off_c, 0, 69, 64
2, 156480, Note_on_c, 0, 85, 72
2, 157248, Note_off_c, 0, 85, 64
2, 157440, Note_on_c, 0, 86, 72
2, 157632, Note_off_c, 0, 86, 64
2, 159120, Note_on_c, 0, 75, 58
2, 159264, Note_off_c, 0, 75, 64
2, 159360, Note_on_c, 0, 76, 72
2, 159720, Note_off_c, 0, 76, 64
2, 159720, Note_on_c, 0, 78, 72
2, 159780, Note_off_c, 0, 78, 64
2, 159780, Note_on_c, 0, 79, 72
2, 159840, Note_off_c, 0, 79, 64
2, 159840, Note_on_c, 0, 74, 72
2, 159984, Note_off_c, 0, 74, 64
2, 161040, Note_on_c, 0, 83, 72
2, 161184, Note_off_c, 0, 83, 64
2, 161280, Note_on_c, 0, 81, 72
2, 161424, Note_off_c, 0, 81, 64
2, 161520, Note_on_c, 0, 84, 72
2, 162000, Note_off_c, 0, 84, 64
2, 162000, Note_on_c, 0, 81, 72
2, 162120, Note_off_c, 0, 81, 64
2, 162120, Note_on_c, 0, 78, 72
2, 162216, Note_off_c, 0, 78, 64
2, 162240, Note_on_c, 0, 79, 58
2, 162432, Note_off_c, 0, 79, 64
2, 162720, Note_on_c, 0, 64, 105
2, 162720, Note_on_c, 0, 76, 105
2, 162864, Note_off_c, 0, 76, 64
2, 162864, Note_off_c, 0, 64, 64
2, 162960, Note_on_c, 0, 76, 105
2, 162960, Note_on_c, 0, 64, 105
2, 163104, Note_off_c, 0, 64, 64
2, 163104, Note_off_c, 0, 76, 64
2, 163200, Note_on_c, 0, 64, 105
2, 163200, Note_on_c, 0, 76, 105
2, 163584, Note_off_c, 0, 76, 64
2, 163584, Note_off_c, 0, 64, 64
2, 163680, Note_on_c, 0, 71, 105
2, 163680, Note_on_c, 0, 83, 105
2, 164064, Note_off_c, 0, 83, 64
2, 164064, Note_off_c, 0, 71, 64
2, 164160, Note_on_c, 0, 67, 105
2, 164160, Note_on_c, 0, 79, 105
2, 164316, Note_off_c, 0, 79, 64
2, 164316, Note_off_c, 0, 67, 64
2, 164400, Note_on_c, 0, 76, 105
2, 164400, Note_on_c, 0, 64, 105
2, 164556, Note_off_c, 0, 64, 64
2, 164556, Note_off_c, 0, 76, 64
2, 164640, Note_on_c, 0, 83, 105
2, 164640, Note_on_c, 0, 71, 105
2, 164796, Note_off_c, 0, 71, 64
2, 164796, Note_off_c, 0, 83, 64
2, 164880, Note_on_c, 0, 71, 105
2, 164880, Note_on_c, 0, 83, 105
2, 165036, Note_off_c, 0, 83, 64
2, 165036, Note_off_c, 0, 71, 64
2, 165120, Note_on_c, 0, 67, 105
2, 165120, Note_on_c, 0, 79, 105
2, 165276, Note_off_c, 0, 79, 64
2, 165276, Note_off_c, 0, 67, 64
2, 165360, Note_on_c, 0, 64, 105
2, 165360, Note_on_c, 0, 76, 105
2, 165516, Note_off_c, 0, 76, 64
2, 165516, Note_off_c, 0, 64, 64
2, 165600, Note_on_c, 0, 83, 105
2, 165600, Note_on_c, 0, 71, 105
2, 165756, Note_off_c, 0, 71, 64
2, 165756, Note_off_c, 0, 83, 64
2, 165840, Note_on_c, 0, 71, 105
2, 165840, Note_on_c, 0, 83, 105
2, 165996, Note_off_c, 0, 83, 64
2, 165996, Note_off_c, 0, 71, 64
2, 166080, Note_on_c, 0, 67, 105
2, 166080, Note_on_c, 0, 79, 105
2, 166236, Note_off_c, 0, 79, 64
2, 166236, Note_off_c, 0, 67, 64
2, 166320, Note_on_c, 0, 64, 105
2, 166320, Note_on_c, 0, 76, 105
2, 166476, Note_off_c, 0, 76, 64
2, 166476, Note_off_c, 0, 64, 64
2, 166560, Note_on_c, 0, 79, 72
2, 166560, Note_on_c, 0, 84, 72
2, 166740, Note_off_c, 0, 84, 64
2, 166740, Note_off_c, 0, 79, 64
2, 166800, Note_on_c, 0, 84, 72
2, 166800, Note_on_c, 0, 79, 72
2, 166980, Note_off_c, 0, 79, 64
2, 166980, Note_off_c, 0, 84, 64
2, 167040, Note_on_c, 0, 79, 72
2, 167040, Note_on_c, 0, 84, 72
2, 167496, Note_off_c, 0, 84, 64
2, 167496, Note_off_c, 0, 79, 64
2, 167520, Note_on_c, 0, 71, 72
2, 167520, Note_on_c, 0, 79, 72
2, 167976, Note_off_c, 0, 79, 64
2, 167976, Note_off_c, 0, 71, 64
2, 168000, Note_on_c, 0, 76, 58
2, 168000, Note_on_c, 0, 72, 58
2, 168192, Note_off_c, 0, 72, 64
2, 168192, Note_off_c, 0, 76, 64
2, 170400, Note_on_c, 0, 76, 58
2, 170580, Note_off_c, 0, 76, 64
2, 170640, Note_on_c, 0, 76, 72
2, 170820, Note_off_c, 0, 76, 64
2, 170880, Note_on_c, 0, 76, 72
2, 171360, Note_off_c, 0, 76, 64
2, 171360, Note_on_c, 0, 83, 72
2, 171744, Note_off_c, 0, 83, 64
2, 171840, Note_on_c, 0, 81, 72
2, 171960, Note_off_c, 0, 81, 64
2, 171960, Note_on_c, 0, 79, 72
2, 172080, Note_off_c, 0, 79, 64
2, 172080, Note_on_c, 0, 78, 72
2, 172200, Note_off_c, 0, 78, 64
2, 172200, Note_on_c, 0, 76, 72
2, 172296, Note_off_c, 0, 76, 64
2, 172320, Note_on_c, 0, 83, 72
2, 172500, Note_off_c, 0, 83, 64
2, 172560, Note_on_c, 0, 83, 72
2, 172740, Note_off_c, 0, 83, 64
2, 172800, Note_on_c, 0, 81, 72
2, 172920, Note_off_c, 0, 81, 64
2, 172920, Note_on_c, 0, 79, 72
2, 173040, Note_off_c, 0, 79, 64
2, 173040, Note_on_c, 0, 78, 72
2, 173160, Note_off_c, 0, 78, 64
2, 173160, Note_on_c, 0, 76, 72
2, 173256, Note_off_c, 0, 76, 64
2, 173280, Note_on_c, 0, 82, 72
2, 173400, Note_off_c, 0, 82, 64
2, 173400, Note_on_c, 0, 83, 72
2, 173520, Note_off_c, 0, 83, 64
2, 173520, Note_on_c, 0, 82, 72
2, 173640, Note_off_c, 0, 82, 64
2, 173640, Note_on_c, 0, 83, 72
2, 173736, Note_off_c, 0, 83, 64
2, 173760, Note_on_c, 0, 81, 72
2, 173880, Note_off_c, 0, 81, 64
2, 173880, Note_on_c, 0, 79, 72
2, 174000, Note_off_c, 0, 79, 64
2, 174000, Note_on_c, 0, 78, 72
2, 174120, Note_off_c, 0, 78, 64
2, 174120, Note_on_c, 0, 76, 72
2, 174216, Note_off_c, 0, 76, 64
2, 174240, Note_on_c, 0, 76, 105
2, 174240, Note_on_c, 0, 84, 105
2, 174384, Note_off_c, 0, 84, 64
2, 174384, Note_off_c, 0, 76, 64
2, 174480, Note_on_c, 0, 76, 105
2, 174480, Note_on_c, 0, 84, 105
2, 174624, Note_off_c, 0, 84, 64
2, 174624, Note_off_c, 0, 76, 64
2, 174720, Note_on_c, 0, 84, 105
2, 174720, Note_on_c, 0, 76, 105
2, 175104, Note_off_c, 0, 76, 64
2, 175104, Note_off_c, 0, 84, 64
2, 175200, Note_on_c, 0, 74, 105
2, 175200, Note_on_c, 0, 79, 105
2, 175584, Note_off_c, 0, 79, 64
2, 175584, Note_off_c, 0, 74, 64
2, 175680, Note_on_c, 0, 76, 105
2, 175680, Note_on_c, 0, 72, 105
2, 175710, Note_off_c, 0, 72, 64
2, 175710, Note_off_c, 0, 76, 64
2, 175710, Note_on_c, 0, 74, 105
2, 175710, Note_on_c, 0, 77, 105
2, 175740, Note_off_c, 0, 77, 64
2, 175740, Note_off_c, 0, 74, 64
2, 175740, Note_on_c, 0, 79, 105
2, 175740, Note_on_c, 0, 76, 105
2, 175884, Note_off_c, 0, 76, 64
2, 175884, Note_off_c, 0, 79, 64
2, 175920, Note_on_c, 0, 76, 105
2, 175920, Note_on_c, 0, 79, 105
2, 175992, Note_off_c, 0, 79, 64
2, 175992, Note_off_c, 0, 76, 64
2, 176040, Note_on_c, 0, 79, 105
2, 176040, Note_on_c, 0, 76, 105
2, 176112, Note_off_c, 0, 76, 64
2, 176112, Note_off_c, 0, 79, 64
2, 176160, Note_on_c, 0, 79, 105
2, 176160, Note_on_c, 0, 76, 105
2, 176304, Note_off_c, 0, 76, 64
2, 176304, Note_off_c, 0, 79, 64
2, 176400, Note_on_c, 0, 84, 105
2, 176400, Note_on_c, 0, 81, 105
2, 176544, Note_off_c, 0, 81, 64
2, 176544, Note_off_c, 0, 84, 64
2, 176640, Note_on_c, 0, 83, 105
2, 176640, Note_on_c, 0, 79, 105
2, 176670, Note_off_c, 0, 79, 64
2, 176670, Note_off_c, 0, 83, 64
2, 176670, Note_on_c, 0, 84, 105
2, 176670, Note_on_c, 0, 81, 105
2, 176700, Note_off_c, 0, 81, 64
2, 176700, Note_off_c, 0, 84, 64
2, 176700, Note_on_c, 0, 83, 105
2, 176700, Note_on_c, 0, 86, 105
2, 176844, Note_off_c, 0, 86, 64
2, 176844, Note_off_c, 0, 83, 64
2, 176880, Note_on_c, 0, 86, 105
2, 176880, Note_on_c, 0, 83, 105
2, 176952, Note_off_c, 0, 83, 64
2, 176952, Note_off_c, 0, 86, 64
2, 177000, Note_on_c, 0, 86, 105
2, 177000, Note_on_c, 0, 83, 105
2, 177072, Note_off_c, 0, 83, 64
2, 177072, Note_off_c, 0, 86, 64
2, 177120, Note_on_c, 0, 83, 105
2, 177120, Note_on_c, 0, 86, 105
2, 177264, Note_off_c, 0, 86, 64
2, 177264, Note_off_c, 0, 83, 64
2, 177360, Note_on_c, 0, 78, 105
2, 177360, Note_on_c, 0, 72, 105
2, 177504, Note_off_c, 0, 72, 64
2, 177504, Note_off_c, 0, 78, 64
2, 177600, Note_on_c, 0, 71, 105
2, 177600, Note_on_c, 0, 79, 105
2, 177792, Note_off_c, 0, 79, 64
2, 177792, Note_off_c, 0, 71, 64
2, 177960, Note_on_c, 0, 74, 105
2, 178044, Note_off_c, 0, 74, 64
2, 178080, Note_on_c, 0, 76, 105
2, 178164, Note_off_c, 0, 76, 64
2, 178200, Note_on_c, 0, 72, 105
2, 178284, Note_off_c, 0, 72, 64
2, 178320, Note_on_c, 0, 78, 105
2, 178404, Note_off_c, 0, 78, 64
2, 178440, Note_on_c, 0, 74, 105
2, 178524, Note_off_c, 0, 74, 64
2, 178560, Note_on_c, 0, 79, 105
2, 178644, Note_off_c, 0, 79, 64
2, 178680, Note_on_c, 0, 76, 105
2, 178764, Note_off_c, 0, 76, 64
2, 178800, Note_on_c, 0, 81, 105
2, 178884, Note_off_c, 0, 81, 64
2, 178920, Note_on_c, 0, 78, 105
2, 179004, Note_off_c, 0, 78, 64
2, 179040, Note_on_c, 0, 83, 105
2, 179124, Note_off_c, 0, 83, 64
2, 179160, Note_on_c, 0, 79, 105
2, 179244, Note_off_c, 0, 79, 64
2, 179280, Note_on_c, 0, 84, 105
2, 179364, Note_off_c, 0, 84, 64
2, 179400, Note_on_c, 0, 81, 105
2, 179484, Note_off_c, 0, 81, 64
2, 179520, Note_on_c, 0, 86, 105
2, 179688, Note_off_c, 0, 86, 64
2, 179760, Note_on_c, 0, 79, 105
2, 179760, Note_on_c, 0, 71, 105
2, 179928, Note_off_c, 0, 71, 64
2, 179928, Note_off_c, 0, 79, 64
2, 180000, Note_on_c, 0, 69, 105
2, 180000, Note_on_c, 0, 78, 105
2, 180168, Note_off_c, 0, 78, 64
2, 180168, Note_off_c, 0, 69, 64
2, 180240, Note_on_c, 0, 81, 105
2, 180240, Note_on_c, 0, 84, 105
2, 180408, Note_off_c, 0, 84, 64
2, 180408, Note_off_c, 0, 81, 64
2, 180480, Note_on_c, 0, 83, 105
2, 180480, Note_on_c, 0, 79, 105
2, 180648, Note_off_c, 0, 79, 64
2, 180648, Note_off_c, 0, 83, 64
2, 180720, Note_on_c, 0, 71, 105
2, 180720, Note_on_c, 0, 79, 105
2, 180888, Note_off_c, 0, 79, 64
2, 180888, Note_off_c, 0, 71, 64
2, 180960, Note_on_c, 0, 81, 105
2, 180960, Note_on_c, 0, 72, 105
2, 181128, Note_off_c, 0, 72, 64
2, 181128, Note_off_c, 0, 81, 64
2, 181200, Note_on_c, 0, 78, 105
2, 181200, Note_on_c, 0, 69, 105
2, 181368, Note_off_c, 0, 69, 64
2, 181368, Note_off_c, 0, 78, 64
2, 181440, Note_on_c, 0, 71, 105
2, 181440, Note_on_c, 0, 79, 105
2, 181632, Note_off_c, 0, 79, 64
2, 181632, Note_off_c, 0, 71, 64
2, 181800, Note_on_c, 0, 62, 105
2, 181800, Note_on_c, 0, 74, 105
2, 181884, Note_off_c, 0, 74, 64
2, 181884, Note_off_c, 0, 62, 64
2, 181920, Note_on_c, 0, 76, 105
2, 181920, Note_on_c, 0, 64, 105
2, 182004, Note_off_c, 0, 64, 64
2, 182004, Note_off_c, 0, 76, 64
2, 182040, Note_on_c, 0, 76, 105
2, 182040, Note_on_c, 0, 64, 105
2, 182124, Note_off_c, 0, 64, 64
2, 182124, Note_off_c, 0, 76, 64
2, 182160, Note_on_c, 0, 66, 105
2, 182160, Note_on_c, 0, 78, 105
2, 182244, Note_off_c, 0, 78, 64
2, 182244, Note_off_c, 0, 66, 64
2, 182280, Note_on_c, 0, 66, 105
2, 182280, Note_on_c, 0, 78, 105
2, 182364, Note_off_c, 0, 78, 64
2, 182364, Note_off_c, 0, 66, 64
2, 182400, Note_on_c, 0, 79, 105
2, 182400, Note_on_c, 0, 67, 105
2, 182484, Note_off_c, 0, 67, 64
2, 182484, Note_off_c, 0, 79, 64
2, 182520, Note_on_c, 0, 67, 105
2, 182520, Note_on_c, 0, 79, 105
2, 182604, Note_off_c, 0, 79, 64
2, 182604, Note_off_c, 0, 67, 64
2, 182640, Note_on_c, 0, 69, 105
2, 182640, Note_on_c, 0, 81, 105
2, 182724, Note_off_c, 0, 81, 64
2, 182724, Note_off_c, 0, 69, 64
2, 182760, Note_on_c, 0, 69, 105
2, 182760, Note_on_c, 0, 81, 105
2, 182844, Note_off_c, 0, 81, 64
2, 182844, Note_off_c, 0, 69, 64
2, 182880, Note_on_c, 0, 71, 105
2, 182880, Note_on_c, 0, 83, 105
2, 182964, Note_off_c, 0, 83, 64
2, 182964, Note_off_c, 0, 71, 64
2, 183000, Note_on_c, 0, 71, 105
2, 183000, Note_on_c, 0, 83, 105
2, 183084, Note_off_c, 0, 83, 64
2, 183084, Note_off_c, 0, 71, 64
2, 183120, Note_on_c, 0, 72, 105
2, 183120, Note_on_c, 0, 84, 105
2, 183204, Note_off_c, 0, 84, 64
2, 183204, Note_off_c, 0, 72, 64
2, 183240, Note_on_c, 0, 84, 105
2, 183240, Note_on_c, 0, 72, 105
2, 183324, Note_off_c, 0, 72, 64
2, 183324, Note_off_c, 0, 84, 64
2, 183360, Note_on_c, 0, 86, 105
2, 183360, Note_on_c, 0, 74, 105
2, 183528, Note_off_c, 0, 74, 64
2, 183528, Note_off_c, 0, 86, 64
2, 183600, Note_on_c, 0, 83, 105
2, 183600, Note_on_c, 0, 71, 105
2, 183768, Note_off_c, 0, 71, 64
2, 183768, Note_off_c, 0, 83, 64
2, 183840, Note_on_c, 0, 72, 105
2, 183840, Note_on_c, 0, 84, 105
2, 184008, Note_off_c, 0, 84, 64
2, 184008, Note_off_c, 0, 72, 64
2, 184080, Note_on_c, 0, 69, 105
2, 184080, Note_on_c, 0, 81, 105
2, 184248, Note_off_c, 0, 81, 64
2, 184248, Note_off_c, 0, 69, 64
2, 184320, Note_on_c, 0, 83, 105
2, 184320, Note_on_c, 0, 71, 105
2, 184488, Note_off_c, 0, 71, 64
2, 184488, Note_off_c, 0, 83, 64
2, 184560, Note_on_c, 0, 79, 105
2, 184560, Note_on_c, 0, 74, 105
2, 184728, Note_off_c, 0, 74, 64
2, 184728, Note_off_c, 0, 79, 64
2, 184800, Note_on_c, 0, 76, 105
2, 184800, Note_on_c, 0, 81, 105
2, 184968, Note_off_c, 0, 81, 64
2, 184968, Note_off_c, 0, 76, 64
2, 185040, Note_on_c, 0, 78, 105
2, 185040, Note_on_c, 0, 72, 105
2, 185208, Note_off_c, 0, 72, 64
2, 185208, Note_off_c, 0, 78, 64
2, 185280, Note_on_c, 0, 79, 105
2, 185280, Note_on_c, 0, 71, 105
2, 185364, Note_off_c, 0, 71, 64
2, 185364, Note_off_c, 0, 79, 64
2, 185400, Note_on_c, 0, 71, 105
2, 185400, Note_on_c, 0, 79, 105
2, 185484, Note_off_c, 0, 79, 64
2, 185484, Note_off_c, 0, 71, 64
2, 185520, Note_on_c, 0, 79, 105
2, 185520, Note_on_c, 0, 71, 105
2, 185604, Note_off_c, 0, 71, 64
2, 185604, Note_off_c, 0, 79, 64
2, 185640, Note_on_c, 0, 71, 105
2, 185640, Note_on_c, 0, 79, 105
2, 185724, Note_off_c, 0, 79, 64
2, 185724, Note_off_c, 0, 71, 64
2, 185760, Note_on_c, 0, 71, 105
2, 185760, Note_on_c, 0, 79, 105
2, 185952, Note_off_c, 0, 79, 64
2, 185952, Note_off_c, 0, 71, 64
2, 186240, Note_on_c, 0, 79, 105
2, 186240, Note_on_c, 0, 71, 105
2, 186324, Note_off_c, 0, 71, 64
2, 186324, Note_off_c, 0, 79, 64
2, 186360, Note_on_c, 0, 71, 105
2, 186360, Note_on_c, 0, 79, 105
2, 186444, Note_off_c, 0, 79, 64
2, 186444, Note_off_c, 0, 71, 64
2, 186480, Note_on_c, 0, 79, 105
2, 186480, Note_on_c, 0, 71, 105
2, 186564, Note_off_c, 0, 71, 64
2, 186564, Note_off_c, 0, 79, 64
2, 186600, Note_on_c, 0, 79, 105
2, 186600, Note_on_c, 0, 71, 105
2, 186684, Note_off_c, 0, 71, 64
2, 186684, Note_off_c, 0, 79, 64
2, 186720, Note_on_c, 0, 71, 105
2, 186720, Note_on_c, 0, 79, 105
2, 186912, Note_off_c, 0, 79, 64
2, 186912, Note_off_c, 0, 71, 64
2, 187200, Note_on_c, 0, 74, 105
2, 187200, Note_on_c, 0, 79, 105
2, 187284, Note_off_c, 0, 79, 64
2, 187284, Note_off_c, 0, 74, 64
2, 187320, Note_on_c, 0, 74, 105
2, 187320, Note_on_c, 0, 79, 105
2, 187404, Note_off_c, 0, 79, 64
2, 187404, Note_off_c, 0, 74, 64
2, 187440, Note_on_c, 0, 74, 105
2, 187440, Note_on_c, 0, 79, 105
2, 187524, Note_off_c, 0, 79, 64
2, 187524, Note_off_c, 0, 74, 64
2, 187560, Note_on_c, 0, 79, 105
2, 187560, Note_on_c, 0, 74, 105
2, 187644, Note_off_c, 0, 74, 64
2, 187644, Note_off_c, 0, 79, 64
2, 187680, Note_on_c, 0, 79, 105
2, 187680, Note_on_c, 0, 74, 105
2, 187872, Note_off_c, 0, 74, 64
2, 187872, Note_off_c, 0, 79, 64
2, 188160, Note_on_c, 0, 64, 105
2, 188160, Note_on_c, 0, 76, 105
2, 188544, Note_off_c, 0, 64, 64
2, 188640, Note_on_c, 0, 72, 105
2, 189024, Note_off_c, 0, 76, 64
2, 189024, Note_off_c, 0, 72, 64
2, 189120, Note_on_c, 0, 69, 105
2, 189120, Note_on_c, 0, 74, 105
2, 189264, Note_off_c, 0, 74, 64
2, 189264, Note_off_c, 0, 69, 64
2, 189360, Note_on_c, 0, 81, 105
2, 189360, Note_on_c, 0, 84, 105
2, 189504, Note_off_c, 0, 84, 64
2, 189504, Note_off_c, 0, 81, 64
2, 189840, Note_on_c, 0, 83, 105
2, 189840, Note_on_c, 0, 79, 105
2, 190008, Note_off_c, 0, 79, 64
2, 190008, Note_off_c, 0, 83, 64
2, 190080, Note_on_c, 0, 74, 105
2, 190080, Note_on_c, 0, 83, 105
2, 190200, Note_off_c, 0, 83, 64
2, 190200, Note_off_c, 0, 74, 64
2, 190200, Note_on_c, 0, 81, 105
2, 190200, Note_on_c, 0, 72, 105
2, 190320, Note_off_c, 0, 72, 64
2, 190320, Note_off_c, 0, 81, 64
2, 190320, Note_on_c, 0, 71, 105
2, 190320, Note_on_c, 0, 79, 105
2, 190704, Note_off_c, 0, 79, 64
2, 190704, Note_off_c, 0, 71, 64
2, 190800, Note_on_c, 0, 69, 105
2, 190800, Note_on_c, 0, 78, 105
2, 190968, Note_off_c, 0, 78, 64
2, 190968, Note_off_c, 0, 69, 64
2, 191040, Note_on_c, 0, 79, 105
2, 191040, Note_on_c, 0, 71, 105
2, 191124, Note_off_c, 0, 71, 64
2, 191124, Note_off_c, 0, 79, 64
2, 191160, Note_on_c, 0, 71, 105
2, 191160, Note_on_c, 0, 79, 105
2, 191244, Note_off_c, 0, 79, 64
2, 191244, Note_off_c, 0, 71, 64
2, 191280, Note_on_c, 0, 79, 105
2, 191280, Note_on_c, 0, 71, 105
2, 191364, Note_off_c, 0, 71, 64
2, 191364, Note_off_c, 0, 79, 64
2, 191400, Note_on_c, 0, 71, 105
2, 191400, Note_on_c, 0, 79, 105
2, 191484, Note_off_c, 0, 79, 64
2, 191484, Note_off_c, 0, 71, 64
2, 191520, Note_on_c, 0, 71, 105
2, 191520, Note_on_c, 0, 79, 105
2, 191712, Note_off_c, 0, 79, 64
2, 191712, Note_off_c, 0, 71, 64
2, 192000, Note_on_c, 0, 71, 105
2, 192000, Note_on_c, 0, 79, 105
2, 192084, Note_off_c, 0, 79, 64
2, 192084, Note_off_c, 0, 71, 64
2, 192120, Note_on_c, 0, 79, 105
2, 192120, Note_on_c, 0, 71, 105
2, 192204, Note_off_c, 0, 71, 64
2, 192204, Note_off_c, 0, 79, 64
2, 192240, Note_on_c, 0, 71, 105
2, 192240, Note_on_c, 0, 79, 105
2, 192324, Note_off_c, 0, 79, 64
2, 192324, Note_off_c, 0, 71, 64
2, 192360, Note_on_c, 0, 79, 105
2, 192360, Note_on_c, 0, 71, 105
2, 192444, Note_off_c, 0, 71, 64
2, 192444, Note_off_c, 0, 79, 64
2, 192480, Note_on_c, 0, 71, 105
2, 192480, Note_on_c, 0, 79, 105
2, 192672, Note_off_c, 0, 79, 64
2, 192672, Note_off_c, 0, 71, 64
2, 192960, Note_on_c, 0, 74, 105
2, 192960, Note_on_c, 0, 79, 105
2, 193044, Note_off_c, 0, 79, 64
2, 193044, Note_off_c, 0, 74, 64
2, 193080, Note_on_c, 0, 74, 105
2, 193080, Note_on_c, 0, 79, 105
2, 193164, Note_off_c, 0, 79, 64
2, 193164, Note_off_c, 0, 74, 64
2, 193200, Note_on_c, 0, 79, 105
2, 193200, Note_on_c, 0, 74, 105
2, 193284, Note_off_c, 0, 74, 64
2, 193284, Note_off_c, 0, 79, 64
2, 193320, Note_on_c, 0, 74, 105
2, 193320, Note_on_c, 0, 79, 105
2, 193404, Note_off_c, 0, 79, 64
2, 193404, Note_off_c, 0, 74, 64
2, 193440, Note_on_c, 0, 74, 105
2, 193440, Note_on_c, 0, 79, 105
2, 193632, Note_off_c, 0, 79, 64
2, 193632, Note_off_c, 0, 74, 64
2, 193920, Note_on_c, 0, 76, 105
2, 193920, Note_on_c, 0, 64, 105
2, 194304, Note_off_c, 0, 64, 64
2, 194400, Note_on_c, 0, 72, 105
2, 194784, Note_off_c, 0, 76, 64
2, 194784, Note_off_c, 0, 72, 64
2, 194880, Note_on_c, 0, 72, 105
2, 194880, Note_on_c, 0, 74, 105
2, 195024, Note_off_c, 0, 74, 64
2, 195024, Note_off_c, 0, 72, 64
2, 195120, Note_on_c, 0, 84, 105
2, 195120, Note_on_c, 0, 81, 105
2, 195264, Note_off_c, 0, 81, 64
2, 195264, Note_off_c, 0, 84, 64
2, 198480, Note_on_c, 0, 63, 58
2, 198480, Note_on_c, 0, 75, 58
2, 198720, Note_off_c, 0, 75, 64
2, 198720, Note_off_c, 0, 63, 64
2, 198720, Note_on_c, 0, 62, 58
2, 198720, Note_on_c, 0, 74, 58
2, 198888, Note_off_c, 0, 74, 64
2, 198888, Note_off_c, 0, 62, 64
2, 198960, Note_on_c, 0, 84, 58
2, 198960, Note_on_c, 0, 72, 58
2, 199440, Note_off_c, 0, 72, 64
2, 199440, Note_off_c, 0, 84, 64
2, 199440, Note_on_c, 0, 71, 58
2, 199440, Note_on_c, 0, 83, 58
2, 199896, Note_off_c, 0, 83, 64
2, 199896, Note_off_c, 0, 71, 64
2, 199920, Note_on_c, 0, 69, 58
2, 199920, Note_on_c, 0, 81, 58
2, 200400, Note_off_c, 0, 81, 64
2, 200400, Note_off_c, 0, 69, 64
2, 200400, Note_on_c, 0, 78, 58
2, 200400, Note_on_c, 0, 66, 58
2, 200616, Note_off_c, 0, 66, 64
2, 200616, Note_off_c, 0, 78, 64
2, 200640, Note_on_c, 0, 79, 105
2, 200640, Note_on_c, 0, 71, 105
2, 200928, Note_off_c, 0, 71, 64
2, 200928, Note_off_c, 0, 79, 64
2, 201000, Note_on_c, 0, 74, 105
2, 201084, Note_off_c, 0, 74, 64
2, 201120, Note_on_c, 0, 79, 105
2, 201204, Note_off_c, 0, 79, 64
2, 201240, Note_on_c, 0, 78, 105
2, 201240, Note_on_c, 0, 81, 105
2, 201324, Note_off_c, 0, 81, 64
2, 201324, Note_off_c, 0, 78, 64
2, 201360, Note_on_c, 0, 79, 105
2, 201360, Note_on_c, 0, 83, 105
2, 201444, Note_off_c, 0, 83, 64
2, 201444, Note_off_c, 0, 79, 64
2, 201480, Note_on_c, 0, 84, 105
2, 201480, Note_on_c, 0, 81, 105
2, 201564, Note_off_c, 0, 81, 64
2, 201564, Note_off_c, 0, 84, 64
2, 201600, Note_on_c, 0, 86, 105
2, 201600, Note_on_c, 0, 83, 105
2, 201888, Note_off_c, 0, 83, 64
2, 201888, Note_off_c, 0, 86, 64
2, 201960, Note_on_c, 0, 85, 105
2, 201960, Note_on_c, 0, 82, 105
2, 202044, Note_off_c, 0, 82, 64
2, 202044, Note_off_c, 0, 85, 64
2, 202080, Note_on_c, 0, 83, 105
2, 202080, Note_on_c, 0, 86, 105
2, 202164, Note_off_c, 0, 86, 64
2, 202164, Note_off_c, 0, 83, 64
2, 202200, Note_on_c, 0, 82, 105
2, 202200, Note_on_c, 0, 85, 105
2, 202284, Note_off_c, 0, 85, 64
2, 202284, Note_off_c, 0, 82, 64
2, 202320, Note_on_c, 0, 86, 105
2, 202320, Note_on_c, 0, 83, 105
2, 202404, Note_off_c, 0, 83, 64
2, 202404, Note_off_c, 0, 86, 64
2, 202440, Note_on_c, 0, 85, 105
2, 202440, Note_on_c, 0, 82, 105
2, 202524, Note_off_c, 0, 82, 64
2, 202524, Note_off_c, 0, 85, 64
2, 202560, Note_on_c, 0, 83, 105
2, 202560, Note_on_c, 0, 86, 105
2, 202728, Note_off_c, 0, 86, 64
2, 202728, Note_off_c, 0, 83, 64
2, 202800, Note_on_c, 0, 83, 105
2, 202800, Note_on_c, 0, 79, 105
2, 202968, Note_off_c, 0, 79, 64
2, 202968, Note_off_c, 0, 83, 64
2, 203040, Note_on_c, 0, 81, 105
2, 203040, Note_on_c, 0, 84, 105
2, 203208, Note_off_c, 0, 84, 64
2, 203208, Note_off_c, 0, 81, 64
2, 203280, Note_on_c, 0, 78, 105
2, 203280, Note_on_c, 0, 81, 105
2, 203448, Note_off_c, 0, 81, 64
2, 203448, Note_off_c, 0, 78, 64
2, 203520, Note_on_c, 0, 71, 105
2, 203520, Note_on_c, 0, 79, 105
2, 203808, Note_off_c, 0, 79, 64
2, 203808, Note_off_c, 0, 71, 64
2, 203880, Note_on_c, 0, 74, 105
2, 203964, Note_off_c, 0, 74, 64
2, 204000, Note_on_c, 0, 79, 105
2, 204084, Note_off_c, 0, 79, 64
2, 204120, Note_on_c, 0, 81, 105
2, 204120, Note_on_c, 0, 78, 105
2, 204204, Note_off_c, 0, 78, 64
2, 204204, Note_off_c, 0, 81, 64
2, 204240, Note_on_c, 0, 79, 105
2, 204240, Note_on_c, 0, 83, 105
2, 204324, Note_off_c, 0, 83, 64
2, 204324, Note_off_c, 0, 79, 64
2, 204360, Note_on_c, 0, 84, 105
2, 204360, Note_on_c, 0, 81, 105
2, 204444, Note_off_c, 0, 81, 64
2, 204444, Note_off_c, 0, 84, 64
2, 204480, Note_on_c, 0, 86, 105
2, 204480, Note_on_c, 0, 83, 105
2, 204564, Note_off_c, 0, 83, 64
2, 204564, Note_off_c, 0, 86, 64
2, 204600, Note_on_c, 0, 86, 105
2, 204600, Note_on_c, 0, 83, 105
2, 204792, Note_off_c, 0, 83, 64
2, 204792, Note_off_c, 0, 86, 64
2, 204840, Note_on_c, 0, 85, 105
2, 204840, Note_on_c, 0, 82, 105
2, 204924, Note_off_c, 0, 82, 64
2, 204924, Note_off_c, 0, 85, 64
2, 204960, Note_on_c, 0, 86, 105
2, 204960, Note_on_c, 0, 83, 105
2, 205044, Note_off_c, 0, 83, 64
2, 205044, Note_off_c, 0, 86, 64
2, 205080, Note_on_c, 0, 82, 105
2, 205080, Note_on_c, 0, 85, 105
2, 205164, Note_off_c, 0, 85, 64
2, 205164, Note_off_c, 0, 82, 64
2, 205200, Note_on_c, 0, 83, 105
2, 205200, Note_on_c, 0, 86, 105
2, 205284, Note_off_c, 0, 86, 64
2, 205284, Note_off_c, 0, 83, 64
2, 205320, Note_on_c, 0, 85, 105
2, 205320, Note_on_c, 0, 82, 105
2, 205404, Note_off_c, 0, 82, 64
2, 205404, Note_off_c, 0, 85, 64
2, 205440, Note_on_c, 0, 86, 105
2, 205440, Note_on_c, 0, 83, 105
2, 205608, Note_off_c, 0, 83, 64
2, 205608, Note_off_c, 0, 86, 64
2, 205680, Note_on_c, 0, 83, 105
2, 205680, Note_on_c, 0, 79, 105
2, 205848, Note_off_c, 0, 79, 64
2, 205848, Note_off_c, 0, 83, 64
2, 205920, Note_on_c, 0, 84, 105
2, 205920, Note_on_c, 0, 81, 105
2, 206088, Note_off_c, 0, 81, 64
2, 206088, Note_off_c, 0, 84, 64
2, 206160, Note_on_c, 0, 81, 105
2, 206160, Note_on_c, 0, 78, 105
2, 206328, Note_off_c, 0, 78, 64
2, 206328, Note_off_c, 0, 81, 64
2, 206400, Note_on_c, 0, 86, 72
2, 206400, Note_on_c, 0, 83, 72
2, 206478, Note_off_c, 0, 83, 64
2, 206478, Note_off_c, 0, 86, 64
2, 206520, Note_on_c, 0, 86, 72
2, 206520, Note_on_c, 0, 83, 72
2, 206598, Note_off_c, 0, 83, 64
2, 206598, Note_off_c, 0, 86, 64
2, 206640, Note_on_c, 0, 83, 72
2, 206640, Note_on_c, 0, 79, 72
2, 206718, Note_off_c, 0, 79, 64
2, 206718, Note_off_c, 0, 83, 64
2, 206760, Note_on_c, 0, 79, 72
2, 206760, Note_on_c, 0, 83, 72
2, 206838, Note_off_c, 0, 83, 64
2, 206838, Note_off_c, 0, 79, 64
2, 206880, Note_on_c, 0, 81, 72
2, 206880, Note_on_c, 0, 84, 72
2, 206958, Note_off_c, 0, 84, 64
2, 206958, Note_off_c, 0, 81, 64
2, 207000, Note_on_c, 0, 84, 72
2, 207000, Note_on_c, 0, 81, 72
2, 207078, Note_off_c, 0, 81, 64
2, 207078, Note_off_c, 0, 84, 64
2, 207120, Note_on_c, 0, 78, 72
2, 207120, Note_on_c, 0, 81, 72
2, 207198, Note_off_c, 0, 81, 64
2, 207198, Note_off_c, 0, 78, 64
2, 207240, Note_on_c, 0, 81, 72
2, 207240, Note_on_c, 0, 78, 72
2, 207318, Note_off_c, 0, 78, 64
2, 207318, Note_off_c, 0, 81, 64
2, 207360, Note_on_c, 0, 83, 105
2, 207360, Note_on_c, 0, 86, 105
2, 207444, Note_off_c, 0, 86, 64
2, 207444, Note_off_c, 0, 83, 64
2, 207480, Note_on_c, 0, 86, 105
2, 207480, Note_on_c, 0, 83, 105
2, 207564, Note_off_c, 0, 83, 64
2, 207564, Note_off_c, 0, 86, 64
2, 207600, Note_on_c, 0, 79, 105
2, 207600, Note_on_c, 0, 83, 105
2, 207684, Note_off_c, 0, 83, 64
2, 207684, Note_off_c, 0, 79, 64
2, 207720, Note_on_c, 0, 79, 105
2, 207720, Note_on_c, 0, 83, 105
2, 207804, Note_off_c, 0, 83, 64
2, 207804, Note_off_c, 0, 79, 64
2, 207840, Note_on_c, 0, 84, 105
2, 207840, Note_on_c, 0, 81, 105
2, 207924, Note_off_c, 0, 81, 64
2, 207924, Note_off_c, 0, 84, 64
2, 207960, Note_on_c, 0, 81, 105
2, 207960, Note_on_c, 0, 84, 105
2, 208044, Note_off_c, 0, 84, 64
2, 208044, Note_off_c, 0, 81, 64
2, 208080, Note_on_c, 0, 81, 105
2, 208080, Note_on_c, 0, 78, 105
2, 208164, Note_off_c, 0, 78, 64
2, 208164, Note_off_c, 0, 81, 64
2, 208200, Note_on_c, 0, 81, 105
2, 208200, Note_on_c, 0, 78, 105
2, 208284, Note_off_c, 0, 78, 64
2, 208284, Note_off_c, 0, 81, 64
2, 208320, Note_on_c, 0, 79, 105
2, 208512, Note_off_c, 0, 79, 64
2, 210240, Note_on_c, 0, 71, 58
2, 210240, Note_on_c, 0, 77, 58
2, 211776, Note_off_c, 0, 77, 64
2, 211776, Note_off_c, 0, 71, 64
2, 212400, Note_on_c, 0, 68, 72
2, 212880, Note_off_c, 0, 68, 64
2, 212880, Note_on_c, 0, 69, 72
2, 213072, Note_off_c, 0, 69, 64
2, 213360, Note_on_c, 0, 80, 72
2, 213840, Note_off_c, 0, 80, 64
2, 213840, Note_on_c, 0, 81, 72
2, 214032, Note_off_c, 0, 81, 64
2, 214080, Note_on_c, 0, 77, 72
2, 214440, Note_off_c, 0, 77, 64
2, 214440, Note_on_c, 0, 79, 72
2, 214500, Note_off_c, 0, 79, 64
2, 214500, Note_on_c, 0, 81, 72
2, 214560, Note_off_c, 0, 81, 64
2, 214560, Note_on_c, 0, 76, 72
2, 214752, Note_off_c, 0, 76, 64
2, 215760, Note_on_c, 0, 84, 72
2, 215904, Note_off_c, 0, 84, 64
2, 216000, Note_on_c, 0, 83, 72
2, 216144, Note_off_c, 0, 83, 64
2, 216240, Note_on_c, 0, 86, 72
2, 216720, Note_off_c, 0, 86, 64
2, 216720, Note_on_c, 0, 83, 72
2, 216840, Note_off_c, 0, 83, 64
2, 216840, Note_on_c, 0, 80, 72
2, 216936, Note_off_c, 0, 80, 64
2, 216960, Note_on_c, 0, 81, 58
2, 217152, Note_off_c, 0, 81, 64
2, 220920, Note_on_c, 0, 69, 72
2, 221040, Note_off_c, 0, 69, 64
2, 221040, Note_on_c, 0, 74, 72
2, 221160, Note_off_c, 0, 74, 64
2, 221160, Note_on_c, 0, 73, 72
2, 221280, Note_off_c, 0, 73, 64
2, 221280, Note_on_c, 0, 77, 72
2, 221400, Note_off_c, 0, 77, 64
2, 221400, Note_on_c, 0, 76, 72
2, 221520, Note_off_c, 0, 76, 64
2, 221520, Note_on_c, 0, 79, 72
2, 221640, Note_off_c, 0, 79, 64
2, 221640, Note_on_c, 0, 77, 72
2, 221736, Note_off_c, 0, 77, 64
2, 221760, Note_on_c, 0, 81, 58
2, 221952, Note_off_c, 0, 81, 64
2, 225720, Note_on_c, 0, 67, 72
2, 225840, Note_off_c, 0, 67, 64
2, 225840, Note_on_c, 0, 72, 72
2, 225960, Note_off_c, 0, 72, 64
2, 225960, Note_on_c, 0, 71, 72
2, 226080, Note_off_c, 0, 71, 64
2, 226080, Note_on_c, 0, 76, 72
2, 226200, Note_off_c, 0, 76, 64
2, 226200, Note_on_c, 0, 74, 72
2, 226320, Note_off_c, 0, 74, 64
2, 226320, Note_on_c, 0, 77, 72
2, 226440, Note_off_c, 0, 77, 64
2, 226440, Note_on_c, 0, 76, 72
2, 226560, Note_off_c, 0, 76, 64
2, 226560, Note_on_c, 0, 79, 72
2, 226752, Note_off_c, 0, 79, 64
2, 228480, Note_on_c, 0, 82, 105
2, 228480, Note_on_c, 0, 76, 105
2, 229608, Note_off_c, 0, 76, 64
2, 229608, Note_off_c, 0, 82, 64
2, 229680, Note_on_c, 0, 82, 105
2, 229680, Note_on_c, 0, 76, 105
2, 229806, Note_off_c, 0, 76, 64
2, 229806, Note_off_c, 0, 82, 64
2, 229860, Note_on_c, 0, 82, 105
2, 229860, Note_on_c, 0, 76, 105
2, 229902, Note_off_c, 0, 76, 64
2, 229902, Note_off_c, 0, 82, 64
2, 229920, Note_on_c, 0, 82, 105
2, 229920, Note_on_c, 0, 76, 105
2, 230088, Note_off_c, 0, 76, 64
2, 230088, Note_off_c, 0, 82, 64
2, 230160, Note_on_c, 0, 82, 105
2, 230160, Note_on_c, 0, 76, 105
2, 230328, Note_off_c, 0, 76, 64
2, 230328, Note_off_c, 0, 82, 64
2, 230400, Note_on_c, 0, 76, 105
2, 230400, Note_on_c, 0, 79, 105
2, 230592, Note_off_c, 0, 79, 64
2, 230592, Note_off_c, 0, 76, 64
2, 230880, Note_on_c, 0, 76, 116
2, 231048, Note_off_c, 0, 76, 64
2, 231120, Note_on_c, 0, 76, 116
2, 231204, Note_off_c, 0, 76, 64
2, 231240, Note_on_c, 0, 76, 116
2, 231324, Note_off_c, 0, 76, 64
2, 231360, Note_on_c, 0, 77, 116
2, 231528, Note_off_c, 0, 77, 64
2, 231600, Note_on_c, 0, 77, 116
2, 231684, Note_off_c, 0, 77, 64
2, 231720, Note_on_c, 0, 77, 116
2, 231804, Note_off_c, 0, 77, 64
2, 231840, Note_on_c, 0, 79, 116
2, 232008, Note_off_c, 0, 79, 64
2, 232080, Note_on_c, 0, 79, 116
2, 232164, Note_off_c, 0, 79, 64
2, 232200, Note_on_c, 0, 79, 116
2, 232284, Note_off_c, 0, 79, 64
2, 232320, Note_on_c, 0, 81, 105
2, 232512, Note_off_c, 0, 81, 64
2, 236640, Note_on_c, 0, 77, 58
2, 236640, Note_on_c, 0, 72, 58
2, 237120, Note_off_c, 0, 72, 64
2, 237120, Note_on_c, 0, 74, 58
2, 237600, Note_off_c, 0, 74, 64
2, 237600, Note_off_c, 0, 77, 64
2, 237600, Note_on_c, 0, 79, 58
2, 237600, Note_on_c, 0, 76, 58
2, 238080, Note_off_c, 0, 76, 64
2, 238080, Note_off_c, 0, 79, 64
2, 238080, Note_on_c, 0, 80, 58
2, 238080, Note_on_c, 0, 77, 58
2, 238560, Note_off_c, 0, 77, 64
2, 238560, Note_off_c, 0, 80, 64
2, 238560, Note_on_c, 0, 79, 58
2, 238560, Note_on_c, 0, 75, 58
2, 239016, Note_off_c, 0, 75, 64
2, 239016, Note_off_c, 0, 79, 64
2, 239040, Note_on_c, 0, 72, 72
2, 239040, Note_on_c, 0, 78, 72
2, 240000, Note_off_c, 0, 78, 64
2, 240000, Note_off_c, 0, 72, 64
2, 240000, Note_on_c, 0, 79, 72
2, 240000, Note_on_c, 0, 71, 72
2, 240192, Note_off_c, 0, 71, 64
2, 240192, Note_off_c, 0, 79, 64
2, 240720, Note_on_c, 0, 74, 105
2, 240720, Note_on_c, 0, 71, 105
2, 240888, Note_off_c, 0, 71, 64
2, 240888, Note_off_c, 0, 74, 64
2, 240960, Note_on_c, 0, 72, 105
2, 240960, Note_on_c, 0, 76, 105
2, 241128, Note_off_c, 0, 76, 64
2, 241128, Note_off_c, 0, 72, 64
2, 241680, Note_on_c, 0, 72, 105
2, 241680, Note_on_c, 0, 76, 105
2, 241848, Note_off_c, 0, 76, 64
2, 241848, Note_off_c, 0, 72, 64
2, 241920, Note_on_c, 0, 74, 105
2, 241920, Note_on_c, 0, 77, 105
2, 242088, Note_off_c, 0, 77, 64
2, 242088, Note_off_c, 0, 74, 64
2, 242640, Note_on_c, 0, 74, 105
2, 242640, Note_on_c, 0, 77, 105
2, 242808, Note_off_c, 0, 77, 64
2, 242808, Note_off_c, 0, 74, 64
2, 242880, Note_on_c, 0, 72, 105
2, 242880, Note_on_c, 0, 76, 105
2, 243048, Note_off_c, 0, 76, 64
2, 243048, Note_off_c, 0, 72, 64
2, 243600, Note_on_c, 0, 72, 105
2, 243600, Note_on_c, 0, 76, 105
2, 243768, Note_off_c, 0, 76, 64
2, 243768, Note_off_c, 0, 72, 64
2, 243840, Note_on_c, 0, 74, 105
2, 243840, Note_on_c, 0, 71, 105
2, 244008, Note_off_c, 0, 71, 64
2, 244008, Note_off_c, 0, 74, 64
2, 244080, Note_on_c, 0, 76, 105
2, 244080, Note_on_c, 0, 72, 105
2, 244248, Note_off_c, 0, 72, 64
2, 244248, Note_off_c, 0, 76, 64
2, 244320, Note_on_c, 0, 77, 105
2, 244320, Note_on_c, 0, 74, 105
2, 244488, Note_off_c, 0, 74, 64
2, 244488, Note_off_c, 0, 77, 64
2, 244560, Note_on_c, 0, 72, 105
2, 244560, Note_on_c, 0, 76, 105
2, 244728, Note_off_c, 0, 76, 64
2, 244728, Note_off_c, 0, 72, 64
2, 244800, Note_on_c, 0, 74, 105
2, 244800, Note_on_c, 0, 71, 105
2, 244968, Note_off_c, 0, 71, 64
2, 244968, Note_off_c, 0, 74, 64
2, 245040, Note_on_c, 0, 76, 105
2, 245040, Note_on_c, 0, 72, 105
2, 245208, Note_off_c, 0, 72, 64
2, 245208, Note_off_c, 0, 76, 64
2, 245280, Note_on_c, 0, 77, 105
2, 245280, Note_on_c, 0, 74, 105
2, 245448, Note_off_c, 0, 74, 64
2, 245448, Note_off_c, 0, 77, 64
2, 245520, Note_on_c, 0, 72, 105
2, 245520, Note_on_c, 0, 76, 105
2, 245688, Note_off_c, 0, 76, 64
2, 245688, Note_off_c, 0, 72, 64
2, 245760, Note_on_c, 0, 71, 105
2, 245760, Note_on_c, 0, 74, 105
2, 245952, Note_off_c, 0, 74, 64
2, 245952, Note_off_c, 0, 71, 64
2, 248640, Note_on_c, 0, 67, 58
2, 248640, Note_on_c, 0, 79, 58
2, 250512, Note_off_c, 0, 79, 64
2, 250512, Note_off_c, 0, 67, 64
2, 260160, Note_on_c, 0, 76, 105
2, 260160, Note_on_c, 0, 72, 105
2, 260928, Note_off_c, 0, 72, 64
2, 260928, Note_off_c, 0, 76, 64
2, 261120, Note_on_c, 0, 77, 105
2, 261120, Note_on_c, 0, 74, 105
2, 261888, Note_off_c, 0, 74, 64
2, 261888, Note_off_c, 0, 77, 64
2, 262080, Note_on_c, 0, 76, 105
2, 262080, Note_on_c, 0, 79, 105
2, 262440, Note_off_c, 0, 79, 64
2, 262440, Note_off_c, 0, 76, 64
2, 262440, Note_on_c, 0, 81, 105
2, 262440, Note_on_c, 0, 77, 105
2, 262500, Note_off_c, 0, 77, 64
2, 262500, Note_off_c, 0, 81, 64
2, 262500, Note_on_c, 0, 83, 105
2, 262500, Note_on_c, 0, 74, 105
2, 262548, Note_off_c, 0, 74, 64
2, 262548, Note_off_c, 0, 83, 64
2, 262560, Note_on_c, 0, 76, 105
2, 262560, Note_on_c, 0, 84, 105
2, 262704, Note_off_c, 0, 84, 64
2, 262704, Note_off_c, 0, 76, 64
2, 262800, Note_on_c, 0, 76, 105
2, 262800, Note_on_c, 0, 79, 105
2, 262944, Note_off_c, 0, 79, 64
2, 262944, Note_off_c, 0, 76, 64
2, 263040, Note_on_c, 0, 77, 105
2, 263040, Note_on_c, 0, 81, 105
2, 263208, Note_off_c, 0, 81, 64
2, 263208, Note_off_c, 0, 77, 64
2, 263280, Note_on_c, 0, 79, 105
2, 263280, Note_on_c, 0, 76, 105
2, 263448, Note_off_c, 0, 76, 64
2, 263448, Note_off_c, 0, 79, 64
2, 263520, Note_on_c, 0, 84, 105
2, 263688, Note_off_c, 0, 84, 64
2, 263760, Note_on_c, 0, 76, 105
2, 263760, Note_on_c, 0, 79, 105
2, 263928, Note_off_c, 0, 79, 64
2, 263928, Note_off_c, 0, 76, 64
2, 264000, Note_on_c, 0, 77, 105
2, 264000, Note_on_c, 0, 81, 105
2, 264168, Note_off_c, 0, 81, 64
2, 264168, Note_off_c, 0, 77, 64
2, 264240, Note_on_c, 0, 79, 105
2, 264240, Note_on_c, 0, 76, 105
2, 264408, Note_off_c, 0, 76, 64
2, 264408, Note_off_c, 0, 79, 64
2, 264480, Note_on_c, 0, 84, 105
2, 264648, Note_off_c, 0, 84, 64
2, 264720, Note_on_c, 0, 76, 105
2, 264720, Note_on_c, 0, 79, 105
2, 264888, Note_off_c, 0, 79, 64
2, 264888, Note_off_c, 0, 76, 64
2, 264960, Note_on_c, 0, 81, 105
2, 264960, Note_on_c, 0, 77, 105
2, 265128, Note_off_c, 0, 77, 64
2, 265128, Note_off_c, 0, 81, 64
2, 265200, Note_on_c, 0, 76, 105
2, 265200, Note_on_c, 0, 79, 105
2, 265368, Note_off_c, 0, 79, 64
2, 265368, Note_off_c, 0, 76, 64
2, 265440, Note_on_c, 0, 81, 105
2, 265440, Note_on_c, 0, 77, 105
2, 265608, Note_off_c, 0, 77, 64
2, 265608, Note_off_c, 0, 81, 64
2, 265680, Note_on_c, 0, 76, 105
2, 265680, Note_on_c, 0, 79, 105
2, 265848, Note_off_c, 0, 79, 64
2, 265848, Note_off_c, 0, 76, 64
2, 265920, Note_on_c, 0, 81, 105
2, 265920, Note_on_c, 0, 77, 105
2, 266088, Note_off_c, 0, 77, 64
2, 266088, Note_off_c, 0, 81, 64
2, 266160, Note_on_c, 0, 76, 105
2, 266160, Note_on_c, 0, 79, 105
2, 266328, Note_off_c, 0, 79, 64
2, 266328, Note_off_c, 0, 76, 64
2, 271680, Note_on_c, 0, 72, 105
2, 271848, Note_off_c, 0, 72, 64
2, 271920, Note_on_c, 0, 72, 105
2, 272046, Note_off_c, 0, 72, 64
2, 272100, Note_on_c, 0, 72, 105
2, 272142, Note_off_c, 0, 72, 64
2, 272160, Note_on_c, 0, 72, 105
2, 272328, Note_off_c, 0, 72, 64
2, 272400, Note_on_c, 0, 72, 105
2, 272568, Note_off_c, 0, 72, 64
2, 272640, Note_on_c, 0, 79, 105
2, 272808, Note_off_c, 0, 79, 64
2, 272880, Note_on_c, 0, 79, 105
2, 273006, Note_off_c, 0, 79, 64
2, 273060, Note_on_c, 0, 79, 105
2, 273102, Note_off_c, 0, 79, 64
2, 273120, Note_on_c, 0, 79, 105
2, 273288, Note_off_c, 0, 79, 64
2, 273360, Note_on_c, 0, 79, 105
2, 273528, Note_off_c, 0, 79, 64
2, 273600, Note_on_c, 0, 84, 105
2, 273984, Note_off_c, 0, 84, 64
2, 274080, Note_on_c, 0, 76, 105
2, 274464, Note_off_c, 0, 76, 64
2, 274560, Note_on_c, 0, 74, 105
2, 274920, Note_off_c, 0, 74, 64
2, 274920, Note_on_c, 0, 77, 105
2, 274980, Note_off_c, 0, 77, 64
2, 274980, Note_on_c, 0, 81, 105
2, 275028, Note_off_c, 0, 81, 64
2, 275040, Note_on_c, 0, 72, 105
2, 275280, Note_off_c, 0, 72, 64
2, 275280, Note_on_c, 0, 71, 105
2, 275508, Note_off_c, 0, 71, 64
2, 275520, Note_on_c, 0, 72, 105
2, 275688, Note_off_c, 0, 72, 64
2, 275760, Note_on_c, 0, 72, 105
2, 275886, Note_off_c, 0, 72, 64
2, 275940, Note_on_c, 0, 72, 105
2, 275982, Note_off_c, 0, 72, 64
2, 276000, Note_on_c, 0, 72, 105
2, 276168, Note_off_c, 0, 72, 64
2, 276240, Note_on_c, 0, 72, 105
2, 276408, Note_off_c, 0, 72, 64
2, 276480, Note_on_c, 0, 79, 105
2, 276648, Note_off_c, 0, 79, 64
2, 276720, Note_on_c, 0, 79, 105
2, 276846, Note_off_c, 0, 79, 64
2, 276900, Note_on_c, 0, 79, 105
2, 276942, Note_off_c, 0, 79, 64
2, 276960, Note_on_c, 0, 79, 105
2, 277128, Note_off_c, 0, 79, 64
2, 277200, Note_on_c, 0, 79, 105
2, 277368, Note_off_c, 0, 79, 64
2, 277440, Note_on_c, 0, 84, 105
2, 277920, Note_on_c, 0, 76, 105
2, 278376, Note_off_c, 0, 76, 64
2, 278400, Note_on_c, 0, 74, 105
2, 279312, Note_off_c, 0, 84, 64
2, 279360, Note_on_c, 0, 82, 105
2, 280272, Note_off_c, 0, 74, 64
2, 280320, Note_on_c, 0, 72, 105
2, 281232, Note_off_c, 0, 82, 64
2, 281280, Note_on_c, 0, 81, 105
2, 282192, Note_off_c, 0, 72, 64
2, 282240, Note_on_c, 0, 70, 105
2, 283152, Note_off_c, 0, 81, 64
2, 283200, Note_on_c, 0, 79, 105
2, 284112, Note_off_c, 0, 79, 64
2, 284112, Note_off_c, 0, 70, 64
2, 284160, Note_on_c, 0, 77, 105
2, 284160, Note_on_c, 0, 69, 105
2, 284352, Note_off_c, 0, 69, 64
2, 284352, Note_off_c, 0, 77, 64
2, 284880, Note_on_c, 0, 84, 105
2, 284880, Note_on_c, 0, 72, 105
2, 284964, Note_off_c, 0, 72, 64
2, 284964, Note_off_c, 0, 84, 64
2, 285000, Note_on_c, 0, 72, 105
2, 285000, Note_on_c, 0, 84, 105
2, 285084, Note_off_c, 0, 84, 64
2, 285084, Note_off_c, 0, 72, 64
2, 285120, Note_on_c, 0, 76, 105
2, 285120, Note_on_c, 0, 84, 105
2, 285264, Note_off_c, 0, 84, 64
2, 285264, Note_off_c, 0, 76, 64
2, 285360, Note_on_c, 0, 77, 105
2, 285504, Note_off_c, 0, 77, 64
2, 285600, Note_on_c, 0, 79, 105
2, 285960, Note_off_c, 0, 79, 64
2, 285960, Note_on_c, 0, 81, 105
2, 286020, Note_off_c, 0, 81, 64
2, 286020, Note_on_c, 0, 82, 105
2, 286068, Note_off_c, 0, 82, 64
2, 286080, Note_on_c, 0, 81, 105
2, 286272, Note_off_c, 0, 81, 64
2, 286800, Note_on_c, 0, 72, 105
2, 286800, Note_on_c, 0, 84, 105
2, 286884, Note_off_c, 0, 84, 64
2, 286884, Note_off_c, 0, 72, 64
2, 286920, Note_on_c, 0, 72, 105
2, 286920, Note_on_c, 0, 84, 105
2, 287004, Note_off_c, 0, 84, 64
2, 287004, Note_off_c, 0, 72, 64
2, 287040, Note_on_c, 0, 76, 105
2, 287040, Note_on_c, 0, 84, 105
2, 287184, Note_off_c, 0, 84, 64
2, 287184, Note_off_c, 0, 76, 64
2, 287280, Note_on_c, 0, 77, 105
2, 287424, Note_off_c, 0, 77, 64
2, 287520, Note_on_c, 0, 79, 105
2, 287880, Note_off_c, 0, 79, 64
2, 287880, Note_on_c, 0, 81, 105
2, 287940, Note_off_c, 0, 81, 64
2, 287940, Note_on_c, 0, 82, 105
2, 287988, Note_off_c, 0, 82, 64
2, 288000, Note_on_c, 0, 81, 105
2, 288192, Note_off_c, 0, 81, 64
2, 290880, Note_on_c, 0, 77, 105
2, 290880, Note_on_c, 0, 65, 105
2, 290952, Note_off_c, 0, 65, 64
2, 290952, Note_off_c, 0, 77, 64
2, 291000, Note_on_c, 0, 64, 105
2, 291000, Note_on_c, 0, 76, 105
2, 291072, Note_off_c, 0, 76, 64
2, 291072, Note_off_c, 0, 64, 64
2, 291120, Note_on_c, 0, 77, 105
2, 291120, Note_on_c, 0, 65, 105
2, 291192, Note_off_c, 0, 65, 64
2, 291192, Note_off_c, 0, 77, 64
2, 291240, Note_on_c, 0, 76, 105
2, 291240, Note_on_c, 0, 64, 105
2, 291312, Note_off_c, 0, 64, 64
2, 291312, Note_off_c, 0, 76, 64
2, 291360, Note_on_c, 0, 77, 105
2, 291360, Note_on_c, 0, 65, 105
2, 291432, Note_off_c, 0, 65, 64
2, 291432, Note_off_c, 0, 77, 64
2, 291480, Note_on_c, 0, 76, 105
2, 291480, Note_on_c, 0, 64, 105
2, 291552, Note_off_c, 0, 64, 64
2, 291552, Note_off_c, 0, 76, 64
2, 291600, Note_on_c, 0, 77, 105
2, 291600, Note_on_c, 0, 65, 105
2, 291672, Note_off_c, 0, 65, 64
2, 291672, Note_off_c, 0, 77, 64
2, 291720, Note_on_c, 0, 67, 105
2, 291720, Note_on_c, 0, 79, 105
2, 291792, Note_off_c, 0, 79, 64
2, 291792, Note_off_c, 0, 67, 64
2, 291840, Note_on_c, 0, 81, 105
2, 291840, Note_on_c, 0, 69, 105
2, 292032, Note_off_c, 0, 69, 64
2, 292032, Note_off_c, 0, 81, 64
2, 292800, Note_on_c, 0, 72, 105
2, 292800, Note_on_c, 0, 84, 105
2, 292872, Note_off_c, 0, 84, 64
2, 292872, Note_off_c, 0, 72, 64
2, 292920, Note_on_c, 0, 71, 105
2, 292920, Note_on_c, 0, 83, 105
2, 292992, Note_off_c, 0, 83, 64
2, 292992, Note_off_c, 0, 71, 64
2, 293040, Note_on_c, 0, 84, 105
2, 293040, Note_on_c, 0, 72, 105
2, 293112, Note_off_c, 0, 72, 64
2, 293112, Note_off_c, 0, 84, 64
2, 293160, Note_on_c, 0, 83, 105
2, 293160, Note_on_c, 0, 71, 105
2, 293232, Note_off_c, 0, 71, 64
2, 293232, Note_off_c, 0, 83, 64
2, 293280, Note_on_c, 0, 72, 105
2, 293280, Note_on_c, 0, 84, 105
2, 293352, Note_off_c, 0, 84, 64
2, 293352, Note_off_c, 0, 72, 64
2, 293400, Note_on_c, 0, 71, 105
2, 293400, Note_on_c, 0, 83, 105
2, 293472, Note_off_c, 0, 83, 64
2, 293472, Note_off_c, 0, 71, 64
2, 293520, Note_on_c, 0, 84, 105
2, 293520, Note_on_c, 0, 72, 105
2, 293592, Note_off_c, 0, 72, 64
2, 293592, Note_off_c, 0, 84, 64
2, 293640, Note_on_c, 0, 74, 105
2, 293712, Note_off_c, 0, 74, 64
2, 293760, Note_on_c, 0, 76, 105
2, 293952, Note_off_c, 0, 76, 64
2, 295680, Note_on_c, 0, 66, 72
2, 296640, Note_off_c, 0, 66, 64
2, 296640, Note_on_c, 0, 78, 72
2, 297600, Note_off_c, 0, 78, 64
2, 297600, Note_on_c, 0, 79, 72
2, 299280, Note_off_c, 0, 79, 64
2, 299280, Note_on_c, 0, 80, 72
2, 299472, Note_off_c, 0, 80, 64
2, 299520, Note_on_c, 0, 81, 72
2, 299880, Note_off_c, 0, 81, 64
2, 299880, Note_on_c, 0, 83, 72
2, 299940, Note_off_c, 0, 83, 64
2, 299940, Note_on_c, 0, 84, 72
2, 299988, Note_off_c, 0, 84, 64
2, 300000, Note_on_c, 0, 79, 72
2, 300192, Note_off_c, 0, 79, 64
2, 301200, Note_on_c, 0, 76, 72
2, 301344, Note_off_c, 0, 76, 64
2, 301440, Note_on_c, 0, 74, 72
2, 301584, Note_off_c, 0, 74, 64
2, 301680, Note_on_c, 0, 77, 72
2, 302160, Note_off_c, 0, 77, 64
2, 302160, Note_on_c, 0, 74, 72
2, 302280, Note_off_c, 0, 74, 64
2, 302280, Note_on_c, 0, 71, 72
2, 302376, Note_off_c, 0, 71, 64
2, 302400, Note_on_c, 0, 72, 72
2, 302592, Note_off_c, 0, 72, 64
2, 302880, Note_on_c, 0, 81, 105
2, 302880, Note_on_c, 0, 69, 105
2, 303036, Note_off_c, 0, 69, 64
2, 303036, Note_off_c, 0, 81, 64
2, 303120, Note_on_c, 0, 81, 105
2, 303120, Note_on_c, 0, 69, 105
2, 303276, Note_off_c, 0, 69, 64
2, 303276, Note_off_c, 0, 81, 64
2, 303360, Note_on_c, 0, 81, 105
2, 303360, Note_on_c, 0, 69, 105
2, 303744, Note_off_c, 0, 69, 64
2, 303744, Note_off_c, 0, 81, 64
2, 303840, Note_on_c, 0, 76, 105
2, 304224, Note_off_c, 0, 76, 64
2, 304320, Note_on_c, 0, 72, 105
2, 304476, Note_off_c, 0, 72, 64
2, 304560, Note_on_c, 0, 69, 105
2, 304716, Note_off_c, 0, 69, 64
2, 304800, Note_on_c, 0, 76, 105
2, 304956, Note_off_c, 0, 76, 64
2, 305040, Note_on_c, 0, 76, 105
2, 305196, Note_off_c, 0, 76, 64
2, 305280, Note_on_c, 0, 72, 105
2, 305436, Note_off_c, 0, 72, 64
2, 305520, Note_on_c, 0, 69, 105
2, 305676, Note_off_c, 0, 69, 64
2, 305760, Note_on_c, 0, 76, 105
2, 305916, Note_off_c, 0, 76, 64
2, 306000, Note_on_c, 0, 76, 105
2, 306156, Note_off_c, 0, 76, 64
2, 306240, Note_on_c, 0, 72, 105
2, 306396, Note_off_c, 0, 72, 64
2, 306480, Note_on_c, 0, 69, 105
2, 306636, Note_off_c, 0, 69, 64
2, 306720, Note_on_c, 0, 69, 72
2, 306720, Note_on_c, 0, 77, 72
2, 306900, Note_off_c, 0, 77, 64
2, 306900, Note_off_c, 0, 69, 64
2, 306960, Note_on_c, 0, 77, 72
2, 306960, Note_on_c, 0, 69, 72
2, 307140, Note_off_c, 0, 69, 64
2, 307140, Note_off_c, 0, 77, 64
2, 307200, Note_on_c, 0, 69, 72
2, 307200, Note_on_c, 0, 77, 72
2, 307680, Note_off_c, 0, 77, 64
2, 307680, Note_off_c, 0, 69, 64
2, 307680, Note_on_c, 0, 76, 72
2, 307680, Note_on_c, 0, 84, 72
2, 308136, Note_off_c, 0, 84, 64
2, 308136, Note_off_c, 0, 76, 64
2, 308160, Note_on_c, 0, 81, 72
2, 308160, Note_on_c, 0, 77, 72
2, 308340, Note_off_c, 0, 77, 64
2, 308340, Note_off_c, 0, 81, 64
2, 308400, Note_on_c, 0, 77, 72
2, 308400, Note_on_c, 0, 69, 72
2, 308580, Note_off_c, 0, 69, 64
2, 308580, Note_off_c, 0, 77, 64
2, 310560, Note_on_c, 0, 69, 72
2, 310740, Note_off_c, 0, 69, 64
2, 310800, Note_on_c, 0, 69, 72
2, 310980, Note_off_c, 0, 69, 64
2, 311040, Note_on_c, 0, 69, 72
2, 311520, Note_off_c, 0, 69, 64
2, 311520, Note_on_c, 0, 76, 72
2, 311976, Note_off_c, 0, 76, 64
2, 312000, Note_on_c, 0, 74, 72
2, 312120, Note_off_c, 0, 74, 64
2, 312120, Note_on_c, 0, 72, 72
2, 312240, Note_off_c, 0, 72, 64
2, 312240, Note_on_c, 0, 71, 72
2, 312360, Note_off_c, 0, 71, 64
2, 312360, Note_on_c, 0, 69, 72
2, 312456, Note_off_c, 0, 69, 64
2, 312480, Note_on_c, 0, 76, 72
2, 312660, Note_off_c, 0, 76, 64
2, 312720, Note_on_c, 0, 76, 72
2, 312900, Note_off_c, 0, 76, 64
2, 312960, Note_on_c, 0, 74, 72
2, 313080, Note_off_c, 0, 74, 64
2, 313080, Note_on_c, 0, 72, 72
2, 313200, Note_off_c, 0, 72, 64
2, 313200, Note_on_c, 0, 71, 72
2, 313320, Note_off_c, 0, 71, 64
2, 313320, Note_on_c, 0, 69, 72
2, 313416, Note_off_c, 0, 69, 64
2, 313440, Note_on_c, 0, 75, 72
2, 313560, Note_off_c, 0, 75, 64
2, 313560, Note_on_c, 0, 76, 72
2, 313680, Note_off_c, 0, 76, 64
2, 313680, Note_on_c, 0, 75, 72
2, 313800, Note_off_c, 0, 75, 64
2, 313800, Note_on_c, 0, 76, 72
2, 313896, Note_off_c, 0, 76, 64
2, 313920, Note_on_c, 0, 74, 72
2, 314040, Note_off_c, 0, 74, 64
2, 314040, Note_on_c, 0, 72, 72
2, 314160, Note_off_c, 0, 72, 64
2, 314160, Note_on_c, 0, 71, 72
2, 314280, Note_off_c, 0, 71, 64
2, 314280, Note_on_c, 0, 69, 72
2, 314376, Note_off_c, 0, 69, 64
2, 314400, Note_on_c, 0, 69, 105
2, 314400, Note_on_c, 0, 77, 105
2, 314568, Note_off_c, 0, 77, 64
2, 314568, Note_off_c, 0, 69, 64
2, 314640, Note_on_c, 0, 69, 105
2, 314640, Note_on_c, 0, 77, 105
2, 314808, Note_off_c, 0, 77, 64
2, 314808, Note_off_c, 0, 69, 64
2, 314880, Note_on_c, 0, 77, 105
2, 314880, Note_on_c, 0, 69, 105
2, 315264, Note_off_c, 0, 69, 64
2, 315264, Note_off_c, 0, 77, 64
2, 315360, Note_on_c, 0, 72, 105
2, 315360, Note_on_c, 0, 84, 105
2, 315744, Note_off_c, 0, 84, 64
2, 315744, Note_off_c, 0, 72, 64
2, 315840, Note_on_c, 0, 81, 105
2, 315840, Note_on_c, 0, 77, 105
2, 315870, Note_off_c, 0, 77, 64
2, 315870, Note_off_c, 0, 81, 64
2, 315870, Note_on_c, 0, 79, 105
2, 315870, Note_on_c, 0, 82, 105
2, 315900, Note_off_c, 0, 82, 64
2, 315900, Note_off_c, 0, 79, 64
2, 315900, Note_on_c, 0, 81, 105
2, 315900, Note_on_c, 0, 84, 105
2, 316044, Note_off_c, 0, 84, 64
2, 316044, Note_off_c, 0, 81, 64
2, 316080, Note_on_c, 0, 84, 105
2, 316080, Note_on_c, 0, 81, 105
2, 316152, Note_off_c, 0, 81, 64
2, 316152, Note_off_c, 0, 84, 64
2, 316200, Note_on_c, 0, 81, 105
2, 316200, Note_on_c, 0, 84, 105
2, 316272, Note_off_c, 0, 84, 64
2, 316272, Note_off_c, 0, 81, 64
2, 316320, Note_on_c, 0, 81, 105
2, 316320, Note_on_c, 0, 84, 105
2, 316440, Note_off_c, 0, 84, 64
2, 316440, Note_off_c, 0, 81, 64
2, 316440, Note_on_c, 0, 77, 105
2, 316440, Note_on_c, 0, 81, 105
2, 316536, Note_off_c, 0, 81, 64
2, 316536, Note_off_c, 0, 77, 64
2, 316560, Note_on_c, 0, 77, 105
2, 316560, Note_on_c, 0, 81, 105
2, 316680, Note_off_c, 0, 81, 64
2, 316680, Note_off_c, 0, 77, 64
2, 316680, Note_on_c, 0, 74, 105
2, 316680, Note_on_c, 0, 77, 105
2, 316776, Note_off_c, 0, 77, 64
2, 316776, Note_off_c, 0, 74, 64
2, 316800, Note_on_c, 0, 76, 105
2, 316800, Note_on_c, 0, 72, 105
2, 316830, Note_off_c, 0, 72, 64
2, 316830, Note_off_c, 0, 76, 64
2, 316830, Note_on_c, 0, 74, 105
2, 316830, Note_on_c, 0, 77, 105
2, 316860, Note_off_c, 0, 77, 64
2, 316860, Note_off_c, 0, 74, 64
2, 316860, Note_on_c, 0, 76, 105
2, 316860, Note_on_c, 0, 79, 105
2, 317004, Note_off_c, 0, 79, 64
2, 317004, Note_off_c, 0, 76, 64
2, 317040, Note_on_c, 0, 79, 105
2, 317040, Note_on_c, 0, 76, 105
2, 317112, Note_off_c, 0, 76, 64
2, 317112, Note_off_c, 0, 79, 64
2, 317160, Note_on_c, 0, 76, 105
2, 317160, Note_on_c, 0, 79, 105
2, 317232, Note_off_c, 0, 79, 64
2, 317232, Note_off_c, 0, 76, 64
2, 317280, Note_on_c, 0, 76, 105
2, 317280, Note_on_c, 0, 79, 105
2, 317448, Note_off_c, 0, 79, 64
2, 317448, Note_off_c, 0, 76, 64
2, 317520, Note_on_c, 0, 65, 105
2, 317520, Note_on_c, 0, 71, 105
2, 317688, Note_off_c, 0, 71, 64
2, 317688, Note_off_c, 0, 65, 64
2, 317760, Note_on_c, 0, 72, 105
2, 317760, Note_on_c, 0, 64, 105
2, 317952, Note_off_c, 0, 64, 64
2, 317952, Note_off_c, 0, 72, 64
2, 318120, Note_on_c, 0, 67, 105
2, 318204, Note_off_c, 0, 67, 64
2, 318240, Note_on_c, 0, 69, 105
2, 318324, Note_off_c, 0, 69, 64
2, 318360, Note_on_c, 0, 65, 105
2, 318444, Note_off_c, 0, 65, 64
2, 318480, Note_on_c, 0, 71, 105
2, 318564, Note_off_c, 0, 71, 64
2, 318600, Note_on_c, 0, 67, 105
2, 318684, Note_off_c, 0, 67, 64
2, 318720, Note_on_c, 0, 72, 105
2, 318804, Note_off_c, 0, 72, 64
2, 318840, Note_on_c, 0, 69, 105
2, 318924, Note_off_c, 0, 69, 64
2, 318960, Note_on_c, 0, 74, 105
2, 319044, Note_off_c, 0, 74, 64
2, 319080, Note_on_c, 0, 71, 105
2, 319164, Note_off_c, 0, 71, 64
2, 319200, Note_on_c, 0, 76, 105
2, 319284, Note_off_c, 0, 76, 64
2, 319320, Note_on_c, 0, 72, 105
2, 319404, Note_off_c, 0, 72, 64
2, 319440, Note_on_c, 0, 77, 105
2, 319524, Note_off_c, 0, 77, 64
2, 319560, Note_on_c, 0, 74, 105
2, 319644, Note_off_c, 0, 74, 64
2, 319680, Note_on_c, 0, 79, 105
2, 319848, Note_off_c, 0, 79, 64
2, 319920, Note_on_c, 0, 76, 105
2, 319920, Note_on_c, 0, 84, 105
2, 320088, Note_off_c, 0, 84, 64
2, 320088, Note_off_c, 0, 76, 64
2, 320160, Note_on_c, 0, 74, 105
2, 320160, Note_on_c, 0, 83, 105
2, 320328, Note_off_c, 0, 83, 64
2, 320400, Note_on_c, 0, 77, 105
2, 320568, Note_off_c, 0, 74, 64
2, 320568, Note_off_c, 0, 77, 64
2, 320640, Note_on_c, 0, 76, 105
2, 320640, Note_on_c, 0, 72, 105
2, 320808, Note_off_c, 0, 72, 64
2, 320808, Note_off_c, 0, 76, 64
2, 320880, Note_on_c, 0, 79, 105
2, 320880, Note_on_c, 0, 72, 105
2, 321048, Note_off_c, 0, 79, 64
2, 321120, Note_on_c, 0, 81, 105
2, 321288, Note_off_c, 0, 81, 64
2, 321288, Note_off_c, 0, 72, 64
2, 321360, Note_on_c, 0, 65, 105
2, 321360, Note_on_c, 0, 71, 105
2, 321528, Note_off_c, 0, 71, 64
2, 321528, Note_off_c, 0, 65, 64
2, 321600, Note_on_c, 0, 64, 105
2, 321600, Note_on_c, 0, 72, 105
2, 321792, Note_off_c, 0, 72, 64
2, 321792, Note_off_c, 0, 64, 64
2, 321960, Note_on_c, 0, 67, 105
2, 322044, Note_off_c, 0, 67, 64
2, 322080, Note_on_c, 0, 69, 105
2, 322164, Note_off_c, 0, 69, 64
2, 322200, Note_on_c, 0, 69, 105
2, 322284, Note_off_c, 0, 69, 64
2, 322320, Note_on_c, 0, 71, 105
2, 322404, Note_off_c, 0, 71, 64
2, 322440, Note_on_c, 0, 71, 105
2, 322524, Note_off_c, 0, 71, 64
2, 322560, Note_on_c, 0, 72, 105
2, 322644, Note_off_c, 0, 72, 64
2, 322680, Note_on_c, 0, 72, 105
2, 322764, Note_off_c, 0, 72, 64
2, 322800, Note_on_c, 0, 74, 105
2, 322800, Note_on_c, 0, 62, 105
2, 322884, Note_off_c, 0, 62, 64
2, 322884, Note_off_c, 0, 74, 64
2, 322920, Note_on_c, 0, 74, 105
2, 322920, Note_on_c, 0, 62, 105
2, 323004, Note_off_c, 0, 62, 64
2, 323004, Note_off_c, 0, 74, 64
2, 323040, Note_on_c, 0, 64, 105
2, 323040, Note_on_c, 0, 76, 105
2, 323124, Note_off_c, 0, 76, 64
2, 323124, Note_off_c, 0, 64, 64
2, 323160, Note_on_c, 0, 64, 105
2, 323160, Note_on_c, 0, 76, 105
2, 323244, Note_off_c, 0, 76, 64
2, 323244, Note_off_c, 0, 64, 64
2, 323280, Note_on_c, 0, 65, 105
2, 323280, Note_on_c, 0, 77, 105
2, 323364, Note_off_c, 0, 77, 64
2, 323364, Note_off_c, 0, 65, 64
2, 323400, Note_on_c, 0, 77, 105
2, 323400, Note_on_c, 0, 65, 105
2, 323484, Note_off_c, 0, 65, 64
2, 323484, Note_off_c, 0, 77, 64
2, 323520, Note_on_c, 0, 67, 105
2, 323520, Note_on_c, 0, 79, 105
2, 323688, Note_off_c, 0, 79, 64
2, 323688, Note_off_c, 0, 67, 64
2, 323760, Note_on_c, 0, 64, 105
2, 323760, Note_on_c, 0, 76, 105
2, 323928, Note_off_c, 0, 76, 64
2, 323928, Note_off_c, 0, 64, 64
2, 324000, Note_on_c, 0, 77, 105
2, 324000, Note_on_c, 0, 65, 105
2, 324168, Note_off_c, 0, 65, 64
2, 324168, Note_off_c, 0, 77, 64
2, 324240, Note_on_c, 0, 62, 105
2, 324240, Note_on_c, 0, 74, 105
2, 324408, Note_off_c, 0, 74, 64
2, 324408, Note_off_c, 0, 62, 64
2, 324480, Note_on_c, 0, 64, 105
2, 324480, Note_on_c, 0, 76, 105
2, 324648, Note_off_c, 0, 76, 64
2, 324648, Note_off_c, 0, 64, 64
2, 324720, Note_on_c, 0, 72, 105
2, 324720, Note_on_c, 0, 76, 105
2, 324888, Note_off_c, 0, 76, 64
2, 324888, Note_off_c, 0, 72, 64
2, 324960, Note_on_c, 0, 77, 105
2, 324960, Note_on_c, 0, 74, 105
2, 325128, Note_off_c, 0, 74, 64
2, 325128, Note_off_c, 0, 77, 64
2, 325200, Note_on_c, 0, 74, 105
2, 325200, Note_on_c, 0, 71, 105
2, 325368, Note_off_c, 0, 71, 64
2, 325368, Note_off_c, 0, 74, 64
2, 325440, Note_on_c, 0, 72, 105
2, 325524, Note_off_c, 0, 72, 64
2, 325560, Note_on_c, 0, 67, 105
2, 325560, Note_on_c, 0, 72, 105
2, 325644, Note_off_c, 0, 72, 64
2, 325644, Note_off_c, 0, 67, 64
2, 325680, Note_on_c, 0, 67, 105
2, 325680, Note_on_c, 0, 72, 105
2, 325764, Note_off_c, 0, 72, 64
2, 325764, Note_off_c, 0, 67, 64
2, 325800, Note_on_c, 0, 72, 105
2, 325800, Note_on_c, 0, 67, 105
2, 325884, Note_off_c, 0, 67, 64
2, 325884, Note_off_c, 0, 72, 64
2, 325920, Note_on_c, 0, 67, 105
2, 325920, Note_on_c, 0, 72, 105
2, 326112, Note_off_c, 0, 72, 64
2, 326112, Note_off_c, 0, 67, 64
2, 326400, Note_on_c, 0, 72, 105
2, 326400, Note_on_c, 0, 69, 105
2, 326484, Note_off_c, 0, 69, 64
2, 326484, Note_off_c, 0, 72, 64
2, 326520, Note_on_c, 0, 72, 105
2, 326520, Note_on_c, 0, 69, 105
2, 326604, Note_off_c, 0, 69, 64
2, 326604, Note_off_c, 0, 72, 64
2, 326640, Note_on_c, 0, 69, 105
2, 326640, Note_on_c, 0, 72, 105
2, 326724, Note_off_c, 0, 72, 64
2, 326724, Note_off_c, 0, 69, 64
2, 326760, Note_on_c, 0, 69, 105
2, 326760, Note_on_c, 0, 72, 105
2, 326844, Note_off_c, 0, 72, 64
2, 326844, Note_off_c, 0, 69, 64
2, 326880, Note_on_c, 0, 69, 105
2, 326880, Note_on_c, 0, 72, 105
2, 327072, Note_off_c, 0, 72, 64
2, 327072, Note_off_c, 0, 69, 64
2, 327360, Note_on_c, 0, 72, 105
2, 327360, Note_on_c, 0, 67, 105
2, 327444, Note_off_c, 0, 67, 64
2, 327444, Note_off_c, 0, 72, 64
2, 327480, Note_on_c, 0, 72, 105
2, 327480, Note_on_c, 0, 67, 105
2, 327564, Note_off_c, 0, 67, 64
2, 327564, Note_off_c, 0, 72, 64
2, 327600, Note_on_c, 0, 67, 105
2, 327600, Note_on_c, 0, 72, 105
2, 327684, Note_off_c, 0, 72, 64
2, 327684, Note_off_c, 0, 67, 64
2, 327720, Note_on_c, 0, 67, 105
2, 327720, Note_on_c, 0, 72, 105
2, 327804, Note_off_c, 0, 72, 64
2, 327804, Note_off_c, 0, 67, 64
2, 327840, Note_on_c, 0, 67, 105
2, 327840, Note_on_c, 0, 72, 105
2, 328032, Note_off_c, 0, 72, 64
2, 328032, Note_off_c, 0, 67, 64
2, 328320, Note_on_c, 0, 81, 105
2, 328320, Note_on_c, 0, 72, 105
2, 328704, Note_off_c, 0, 72, 64
2, 328800, Note_on_c, 0, 77, 105
2, 329184, Note_off_c, 0, 81, 64
2, 329184, Note_off_c, 0, 77, 64
2, 329280, Note_on_c, 0, 77, 105
2, 329280, Note_on_c, 0, 79, 105
2, 329424, Note_off_c, 0, 79, 64
2, 329424, Note_off_c, 0, 77, 64
2, 329520, Note_on_c, 0, 77, 105
2, 329520, Note_on_c, 0, 79, 105
2, 329664, Note_off_c, 0, 79, 64
2, 329664, Note_off_c, 0, 77, 64
2, 330000, Note_on_c, 0, 74, 105
2, 330000, Note_on_c, 0, 77, 105
2, 330144, Note_off_c, 0, 77, 64
2, 330144, Note_off_c, 0, 74, 64
2, 330240, Note_on_c, 0, 76, 105
2, 330240, Note_on_c, 0, 72, 105
2, 330396, Note_off_c, 0, 72, 64
2, 330396, Note_off_c, 0, 76, 64
2, 330480, Note_on_c, 0, 81, 105
2, 330480, Note_on_c, 0, 77, 105
2, 330636, Note_off_c, 0, 77, 64
2, 330636, Note_off_c, 0, 81, 64
2, 330720, Note_on_c, 0, 76, 105
2, 330720, Note_on_c, 0, 79, 105
2, 330876, Note_off_c, 0, 79, 64
2, 330876, Note_off_c, 0, 76, 64
2, 330960, Note_on_c, 0, 71, 105
2, 330960, Note_on_c, 0, 65, 105
2, 331116, Note_off_c, 0, 65, 64
2, 331116, Note_off_c, 0, 71, 64
2, 331200, Note_on_c, 0, 72, 105
2, 331200, Note_on_c, 0, 64, 105
2, 331284, Note_off_c, 0, 64, 64
2, 331284, Note_off_c, 0, 72, 64
2, 331320, Note_on_c, 0, 67, 105
2, 331320, Note_on_c, 0, 72, 105
2, 331404, Note_off_c, 0, 72, 64
2, 331404, Note_off_c, 0, 67, 64
2, 331440, Note_on_c, 0, 67, 105
2, 331440, Note_on_c, 0, 72, 105
2, 331524, Note_off_c, 0, 72, 64
2, 331524, Note_off_c, 0, 67, 64
2, 331560, Note_on_c, 0, 67, 105
2, 331560, Note_on_c, 0, 72, 105
2, 331644, Note_off_c, 0, 72, 64
2, 331644, Note_off_c, 0, 67, 64
2, 331680, Note_on_c, 0, 67, 105
2, 331680, Note_on_c, 0, 72, 105
2, 331872, Note_off_c, 0, 72, 64
2, 331872, Note_off_c, 0, 67, 64
2, 332160, Note_on_c, 0, 72, 105
2, 332160, Note_on_c, 0, 69, 105
2, 332244, Note_off_c, 0, 69, 64
2, 332244, Note_off_c, 0, 72, 64
2, 332280, Note_on_c, 0, 72, 105
2, 332280, Note_on_c, 0, 69, 105
2, 332364, Note_off_c, 0, 69, 64
2, 332364, Note_off_c, 0, 72, 64
2, 332400, Note_on_c, 0, 72, 105
2, 332400, Note_on_c, 0, 69, 105
2, 332484, Note_off_c, 0, 69, 64
2, 332484, Note_off_c, 0, 72, 64
2, 332520, Note_on_c, 0, 72, 105
2, 332520, Note_on_c, 0, 69, 105
2, 332604, Note_off_c, 0, 69, 64
2, 332604, Note_off_c, 0, 72, 64
2, 332640, Note_on_c, 0, 72, 105
2, 332640, Note_on_c, 0, 69, 105
2, 332832, Note_off_c, 0, 69, 64
2, 332832, Note_off_c, 0, 72, 64
2, 333120, Note_on_c, 0, 72, 105
2, 333120, Note_on_c, 0, 67, 105
2, 333204, Note_off_c, 0, 67, 64
2, 333204, Note_off_c, 0, 72, 64
2, 333240, Note_on_c, 0, 67, 105
2, 333240, Note_on_c, 0, 72, 105
2, 333324, Note_off_c, 0, 72, 64
2, 333324, Note_off_c, 0, 67, 64
2, 333360, Note_on_c, 0, 72, 105
2, 333360, Note_on_c, 0, 67, 105
2, 333444, Note_off_c, 0, 67, 64
2, 333444, Note_off_c, 0, 72, 64
2, 333480, Note_on_c, 0, 67, 105
2, 333480, Note_on_c, 0, 72, 105
2, 333564, Note_off_c, 0, 72, 64
2, 333564, Note_off_c, 0, 67, 64
2, 333600, Note_on_c, 0, 67, 105
2, 333600, Note_on_c, 0, 72, 105
2, 333792, Note_off_c, 0, 72, 64
2, 333792, Note_off_c, 0, 67, 64
2, 334080, Note_on_c, 0, 81, 105
2, 334080, Note_on_c, 0, 72, 105
2, 334464, Note_off_c, 0, 72, 64
2, 334560, Note_on_c, 0, 77, 105
2, 334944, Note_off_c, 0, 81, 64
2, 334944, Note_off_c, 0, 77, 64
2, 335040, Note_on_c, 0, 79, 105
2, 335040, Note_on_c, 0, 77, 105
2, 335184, Note_off_c, 0, 77, 64
2, 335184, Note_off_c, 0, 79, 64
2, 335280, Note_on_c, 0, 77, 105
2, 335280, Note_on_c, 0, 79, 105
2, 335424, Note_off_c, 0, 79, 64
2, 335424, Note_off_c, 0, 77, 64
2, 338640, Note_on_c, 0, 68, 72
2, 338880, Note_off_c, 0, 68, 64
2, 338880, Note_on_c, 0, 67, 72
2, 339072, Note_off_c, 0, 67, 64
2, 339120, Note_on_c, 0, 77, 72
2, 339120, Note_on_c, 0, 81, 72
2, 339600, Note_off_c, 0, 81, 64
2, 339600, Note_off_c, 0, 77, 64
2, 339600, Note_on_c, 0, 76, 72
2, 339600, Note_on_c, 0, 79, 72
2, 340032, Note_off_c, 0, 79, 64
2, 340032, Note_off_c, 0, 76, 64
2, 340080, Note_on_c, 0, 74, 72
2, 340080, Note_on_c, 0, 77, 72
2, 340560, Note_off_c, 0, 77, 64
2, 340560, Note_off_c, 0, 74, 64
2, 340560, Note_on_c, 0, 71, 72
2, 340560, Note_on_c, 0, 74, 72
2, 340752, Note_off_c, 0, 74, 64
2, 340752, Note_off_c, 0, 71, 64
2, 340800, Note_on_c, 0, 72, 105
2, 341088, Note_off_c, 0, 72, 64
2, 341160, Note_on_c, 0, 67, 105
2, 341232, Note_off_c, 0, 67, 64
2, 341280, Note_on_c, 0, 72, 105
2, 341352, Note_off_c, 0, 72, 64
2, 341400, Note_on_c, 0, 74, 105
2, 341400, Note_on_c, 0, 71, 105
2, 341472, Note_off_c, 0, 71, 64
2, 341472, Note_off_c, 0, 74, 64
2, 341520, Note_on_c, 0, 76, 105
2, 341520, Note_on_c, 0, 72, 105
2, 341592, Note_off_c, 0, 72, 64
2, 341592, Note_off_c, 0, 76, 64
2, 341640, Note_on_c, 0, 77, 105
2, 341640, Note_on_c, 0, 74, 105
2, 341712, Note_off_c, 0, 74, 64
2, 341712, Note_off_c, 0, 77, 64
2, 341760, Note_on_c, 0, 76, 105
2, 341760, Note_on_c, 0, 79, 105
2, 342048, Note_off_c, 0, 79, 64
2, 342048, Note_off_c, 0, 76, 64
2, 342120, Note_on_c, 0, 75, 105
2, 342120, Note_on_c, 0, 78, 105
2, 342192, Note_off_c, 0, 78, 64
2, 342192, Note_off_c, 0, 75, 64
2, 342240, Note_on_c, 0, 79, 105
2, 342240, Note_on_c, 0, 76, 105
2, 342312, Note_off_c, 0, 76, 64
2, 342312, Note_off_c, 0, 79, 64
2, 342360, Note_on_c, 0, 75, 105
2, 342360, Note_on_c, 0, 78, 105
2, 342432, Note_off_c, 0, 78, 64
2, 342432, Note_off_c, 0, 75, 64
2, 342480, Note_on_c, 0, 76, 105
2, 342480, Note_on_c, 0, 79, 105
2, 342552, Note_off_c, 0, 79, 64
2, 342552, Note_off_c, 0, 76, 64
2, 342600, Note_on_c, 0, 78, 105
2, 342600, Note_on_c, 0, 75, 105
2, 342672, Note_off_c, 0, 75, 64
2, 342672, Note_off_c, 0, 78, 64
2, 342720, Note_on_c, 0, 76, 105
2, 342720, Note_on_c, 0, 79, 105
2, 342888, Note_off_c, 0, 79, 64
2, 342888, Note_off_c, 0, 76, 64
2, 342960, Note_on_c, 0, 76, 105
2, 342960, Note_on_c, 0, 72, 105
2, 343128, Note_off_c, 0, 72, 64
2, 343128, Note_off_c, 0, 76, 64
2, 343200, Note_on_c, 0, 77, 105
2, 343200, Note_on_c, 0, 74, 105
2, 343368, Note_off_c, 0, 74, 64
2, 343368, Note_off_c, 0, 77, 64
2, 343440, Note_on_c, 0, 71, 105
2, 343440, Note_on_c, 0, 74, 105
2, 343608, Note_off_c, 0, 74, 64
2, 343608, Note_off_c, 0, 71, 64
2, 343680, Note_on_c, 0, 72, 105
2, 343872, Note_off_c, 0, 72, 64
2, 344040, Note_on_c, 0, 67, 105
2, 344112, Note_off_c, 0, 67, 64
2, 344160, Note_on_c, 0, 72, 105
2, 344232, Note_off_c, 0, 72, 64
2, 344280, Note_on_c, 0, 71, 105
2, 344280, Note_on_c, 0, 74, 105
2, 344352, Note_off_c, 0, 74, 64
2, 344352, Note_off_c, 0, 71, 64
2, 344400, Note_on_c, 0, 72, 105
2, 344400, Note_on_c, 0, 76, 105
2, 344472, Note_off_c, 0, 76, 64
2, 344472, Note_off_c, 0, 72, 64
2, 344520, Note_on_c, 0, 74, 105
2, 344520, Note_on_c, 0, 77, 105
2, 344592, Note_off_c, 0, 77, 64
2, 344592, Note_off_c, 0, 74, 64
2, 344640, Note_on_c, 0, 79, 105
2, 344640, Note_on_c, 0, 76, 105
2, 344712, Note_off_c, 0, 76, 64
2, 344712, Note_off_c, 0, 79, 64
2, 344760, Note_on_c, 0, 76, 105
2, 344760, Note_on_c, 0, 79, 105
2, 344952, Note_off_c, 0, 79, 64
2, 344952, Note_off_c, 0, 76, 64
2, 345000, Note_on_c, 0, 75, 105
2, 345000, Note_on_c, 0, 78, 105
2, 345072, Note_off_c, 0, 78, 64
2, 345072, Note_off_c, 0, 75, 64
2, 345120, Note_on_c, 0, 79, 105
2, 345120, Note_on_c, 0, 76, 105
2, 345192, Note_off_c, 0, 76, 64
2, 345192, Note_off_c, 0, 79, 64
2, 345240, Note_on_c, 0, 75, 105
2, 345240, Note_on_c, 0, 78, 105
2, 345312, Note_off_c, 0, 78, 64
2, 345312, Note_off_c, 0, 75, 64
2, 345360, Note_on_c, 0, 76, 105
2, 345360, Note_on_c, 0, 79, 105
2, 345432, Note_off_c, 0, 79, 64
2, 345432, Note_off_c, 0, 76, 64
2, 345480, Note_on_c, 0, 78, 105
2, 345480, Note_on_c, 0, 75, 105
2, 345552, Note_off_c, 0, 75, 64
2, 345552, Note_off_c, 0, 78, 64
2, 345600, Note_on_c, 0, 76, 105
2, 345600, Note_on_c, 0, 79, 105
2, 345768, Note_off_c, 0, 79, 64
2, 345768, Note_off_c, 0, 76, 64
2, 345840, Note_on_c, 0, 76, 105
2, 345840, Note_on_c, 0, 72, 105
2, 346008, Note_off_c, 0, 72, 64
2, 346008, Note_off_c, 0, 76, 64
2, 346080, Note_on_c, 0, 74, 105
2, 346080, Note_on_c, 0, 77, 105
2, 346248, Note_off_c, 0, 77, 64
2, 346248, Note_off_c, 0, 74, 64
2, 346320, Note_on_c, 0, 74, 105
2, 346320, Note_on_c, 0, 71, 105
2, 346488, Note_off_c, 0, 71, 64
2, 346488, Note_off_c, 0, 74, 64
2, 346560, Note_on_c, 0, 76, 72
2, 346560, Note_on_c, 0, 79, 72
2, 346638, Note_off_c, 0, 79, 64
2, 346638, Note_off_c, 0, 76, 64
2, 346680, Note_on_c, 0, 76, 72
2, 346680, Note_on_c, 0, 79, 72
2, 346758, Note_off_c, 0, 79, 64
2, 346758, Note_off_c, 0, 76, 64
2, 346800, Note_on_c, 0, 72, 72
2, 346800, Note_on_c, 0, 76, 72
2, 346878, Note_off_c, 0, 76, 64
2, 346878, Note_off_c, 0, 72, 64
2, 346920, Note_on_c, 0, 72, 72
2, 346920, Note_on_c, 0, 76, 72
2, 346998, Note_off_c, 0, 76, 64
2, 346998, Note_off_c, 0, 72, 64
2, 347040, Note_on_c, 0, 74, 72
2, 347040, Note_on_c, 0, 77, 72
2, 347118, Note_off_c, 0, 77, 64
2, 347118, Note_off_c, 0, 74, 64
2, 347160, Note_on_c, 0, 74, 72
2, 347160, Note_on_c, 0, 77, 72
2, 347238, Note_off_c, 0, 77, 64
2, 347238, Note_off_c, 0, 74, 64
2, 347280, Note_on_c, 0, 74, 72
2, 347280, Note_on_c, 0, 71, 72
2, 347358, Note_off_c, 0, 71, 64
2, 347358, Note_off_c, 0, 74, 64
2, 347400, Note_on_c, 0, 74, 72
2, 347400, Note_on_c, 0, 71, 72
2, 347478, Note_off_c, 0, 71, 64
2, 347478, Note_off_c, 0, 74, 64
2, 347520, Note_on_c, 0, 79, 105
2, 347520, Note_on_c, 0, 76, 105
2, 347598, Note_off_c, 0, 76, 64
2, 347598, Note_off_c, 0, 79, 64
2, 347640, Note_on_c, 0, 76, 105
2, 347640, Note_on_c, 0, 79, 105
2, 347718, Note_off_c, 0, 79, 64
2, 347718, Note_off_c, 0, 76, 64
2, 347760, Note_on_c, 0, 76, 105
2, 347760, Note_on_c, 0, 72, 105
2, 347838, Note_off_c, 0, 72, 64
2, 347838, Note_off_c, 0, 76, 64
2, 347880, Note_on_c, 0, 76, 105
2, 347880, Note_on_c, 0, 72, 105
2, 347958, Note_off_c, 0, 72, 64
2, 347958, Note_off_c, 0, 76, 64
2, 348000, Note_on_c, 0, 74, 105
2, 348000, Note_on_c, 0, 77, 105
2, 348078, Note_off_c, 0, 77, 64
2, 348078, Note_off_c, 0, 74, 64
2, 348120, Note_on_c, 0, 74, 105
2, 348120, Note_on_c, 0, 77, 105
2, 348198, Note_off_c, 0, 77, 64
2, 348198, Note_off_c, 0, 74, 64
2, 348240, Note_on_c, 0, 74, 105
2, 348240, Note_on_c, 0, 71, 105
2, 348318, Note_off_c, 0, 71, 64
2, 348318, Note_off_c, 0, 74, 64
2, 348360, Note_on_c, 0, 74, 105
2, 348360, Note_on_c, 0, 71, 105
2, 348438, Note_off_c, 0, 71, 64
2, 348438, Note_off_c, 0, 74, 64
2, 348480, Note_on_c, 0, 72, 105
2, 348672, Note_off_c, 0, 72, 64
2, 352440, Note_on_c, 0, 69, 72
2, 352560, Note_off_c, 0, 69, 64
2, 352560, Note_on_c, 0, 74, 72
2, 352680, Note_off_c, 0, 74, 64
2, 352680, Note_on_c, 0, 73, 72
2, 352800, Note_off_c, 0, 73, 64
2, 352800, Note_on_c, 0, 77, 72
2, 352920, Note_off_c, 0, 77, 64
2, 352920, Note_on_c, 0, 76, 72
2, 353040, Note_off_c, 0, 76, 64
2, 353040, Note_on_c, 0, 79, 72
2, 353160, Note_off_c, 0, 79, 64
2, 353160, Note_on_c, 0, 77, 72
2, 353280, Note_off_c, 0, 77, 64
2, 353280, Note_on_c, 0, 81, 58
2, 353472, Note_off_c, 0, 81, 64
2, 357240, Note_on_c, 0, 67, 58
2, 357360, Note_off_c, 0, 67, 64
2, 357360, Note_on_c, 0, 72, 72
2, 357480, Note_off_c, 0, 72, 64
2, 357480, Note_on_c, 0, 71, 72
2, 357600, Note_off_c, 0, 71, 64
2, 357600, Note_on_c, 0, 76, 72
2, 357720, Note_off_c, 0, 76, 64
2, 357720, Note_on_c, 0, 74, 72
2, 357840, Note_off_c, 0, 74, 64
2, 357840, Note_on_c, 0, 77, 72
2, 357960, Note_off_c, 0, 77, 64
2, 357960, Note_on_c, 0, 76, 72
2, 358056, Note_off_c, 0, 76, 64
2, 358080, Note_on_c, 0, 79, 58
2, 358224, Note_off_c, 0, 79, 64
2, 359160, Note_on_c, 0, 67, 58
2, 359280, Note_off_c, 0, 67, 64
2, 359280, Note_on_c, 0, 72, 72
2, 359400, Note_off_c, 0, 72, 64
2, 359400, Note_on_c, 0, 71, 72
2, 359520, Note_off_c, 0, 71, 64
2, 359520, Note_on_c, 0, 76, 72
2, 359640, Note_off_c, 0, 76, 64
2, 359640, Note_on_c, 0, 74, 72
2, 359760, Note_off_c, 0, 74, 64
2, 359760, Note_on_c, 0, 77, 72
2, 359880, Note_off_c, 0, 77, 64
2, 359880, Note_on_c, 0, 76, 72
2, 359976, Note_off_c, 0, 76, 64
2, 360000, Note_on_c, 0, 79, 58
2, 360144, Note_off_c, 0, 79, 64
2, 361080, Note_on_c, 0, 67, 105
2, 361200, Note_off_c, 0, 67, 64
2, 361200, Note_on_c, 0, 72, 105
2, 361320, Note_off_c, 0, 72, 64
2, 361320, Note_on_c, 0, 71, 105
2, 361440, Note_off_c, 0, 71, 64
2, 361440, Note_on_c, 0, 74, 105
2, 361560, Note_off_c, 0, 74, 64
2, 361560, Note_on_c, 0, 72, 105
2, 361680, Note_off_c, 0, 72, 64
2, 361680, Note_on_c, 0, 77, 105
2, 361800, Note_off_c, 0, 77, 64
2, 361800, Note_on_c, 0, 76, 105
2, 361896, Note_off_c, 0, 76, 64
2, 361920, Note_on_c, 0, 76, 105
2, 361992, Note_off_c, 0, 76, 64
2, 362040, Note_on_c, 0, 71, 105
2, 362040, Note_on_c, 0, 67, 105
2, 362160, Note_off_c, 0, 67, 64
2, 362160, Note_off_c, 0, 71, 64
2, 362160, Note_on_c, 0, 76, 105
2, 362160, Note_on_c, 0, 72, 105
2, 362280, Note_off_c, 0, 72, 64
2, 362280, Note_off_c, 0, 76, 64
2, 362280, Note_on_c, 0, 74, 105
2, 362280, Note_on_c, 0, 71, 105
2, 362400, Note_off_c, 0, 71, 64
2, 362400, Note_off_c, 0, 74, 64
2, 362400, Note_on_c, 0, 77, 105
2, 362400, Note_on_c, 0, 74, 105
2, 362520, Note_off_c, 0, 74, 64
2, 362520, Note_off_c, 0, 77, 64
2, 362520, Note_on_c, 0, 76, 105
2, 362520, Note_on_c, 0, 72, 105
2, 362640, Note_off_c, 0, 72, 64
2, 362640, Note_off_c, 0, 76, 64
2, 362640, Note_on_c, 0, 77, 105
2, 362640, Note_on_c, 0, 81, 105
2, 362760, Note_off_c, 0, 81, 64
2, 362760, Note_off_c, 0, 77, 64
2, 362760, Note_on_c, 0, 76, 105
2, 362760, Note_on_c, 0, 79, 105
2, 362856, Note_off_c, 0, 79, 64
2, 362856, Note_off_c, 0, 76, 64
2, 362880, Note_on_c, 0, 79, 105
2, 362880, Note_on_c, 0, 76, 105
2, 363840, Note_off_c, 0, 76, 64
2, 363840, Note_off_c, 0, 79, 64
2, 363840, Note_on_c, 0, 79, 105
2, 363840, Note_on_c, 0, 84, 105
2, 364320, Note_off_c, 0, 79, 64
2, 364320, Note_on_c, 0, 76, 105
2, 364800, Note_off_c, 0, 76, 64
2, 364800, Note_on_c, 0, 74, 105
2, 365280, Note_off_c, 0, 84, 64
2, 365280, Note_on_c, 0, 83, 105
2, 365664, Note_off_c, 0, 83, 64
2, 365664, Note_off_c, 0, 74, 64
2, 365760, Note_on_c, 0, 79, 105
2, 365760, Note_on_c, 0, 84, 105
2, 366240, Note_off_c, 0, 79, 64
2, 366240, Note_on_c, 0, 76, 105
2, 366720, Note_off_c, 0, 76, 64
2, 366720, Note_on_c, 0, 74, 105
2, 367200, Note_off_c, 0, 84, 64
2, 367200, Note_on_c, 0, 83, 105
2, 367584, Note_off_c, 0, 83, 64
2, 367584, Note_off_c, 0, 74, 64
2, 367680, Note_on_c, 0, 84, 105
2, 367680, Note_on_c, 0, 76, 105
2, 367872, Note_off_c, 0, 76, 64
2, 367872, Note_off_c, 0, 84, 64
2, 368160, Note_on_c, 0, 72, 105
2, 368160, Note_on_c, 0, 76, 105
2, 368328, Note_off_c, 0, 76, 64
2, 368328, Note_off_c, 0, 72, 64
2, 368400, Note_on_c, 0, 76, 105
2, 368400, Note_on_c, 0, 79, 105
2, 368568, Note_off_c, 0, 79, 64
2, 368568, Note_off_c, 0, 76, 64
2, 368640, Note_on_c, 0, 76, 105
2, 368640, Note_on_c, 0, 72, 105
2, 368832, Note_off_c, 0, 72, 64
2, 368832, Note_off_c, 0, 76, 64
2, 369120, Note_on_c, 0, 76, 105
2, 369120, Note_on_c, 0, 72, 105
2, 369288, Note_off_c, 0, 72, 64
2, 369288, Note_off_c, 0, 76, 64
2, 369360, Note_on_c, 0, 76, 105
2, 369360, Note_on_c, 0, 79, 105
2, 369528, Note_off_c, 0, 79, 64
2, 369528, Note_off_c, 0, 76, 64
2, 369600, Note_on_c, 0, 72, 105
2, 369600, Note_on_c, 0, 76, 105
2, 369828, Note_off_c, 0, 76, 64
2, 369828, Note_off_c, 0, 72, 64
2, 369828, End_track
3, 0, Start_track
3, 0, Program_c, 1, 70
3, 0, Control_c, 1, 7, 89
3, 0, Control_c, 1, 91, 70
3, 0, Control_c, 1, 10, 72
3, 720, Note_on_c, 1, 48, 105
3, 834, Note_off_c, 1, 48, 64
3, 930, Note_on_c, 1, 48, 105
3, 954, Note_off_c, 1, 48, 64
3, 960, Note_on_c, 1, 52, 105
3, 1074, Note_off_c, 1, 52, 64
3, 1170, Note_on_c, 1, 52, 105
3, 1194, Note_off_c, 1, 52, 64
3, 1200, Note_on_c, 1, 57, 105
3, 1314, Note_off_c, 1, 57, 64
3, 1410, Note_on_c, 1, 57, 105
3, 1434, Note_off_c, 1, 57, 64
3, 1440, Note_on_c, 1, 47, 105
3, 1536, Note_off_c, 1, 47, 64
3, 1650, Note_on_c, 1, 59, 105
3, 1674, Note_off_c, 1, 59, 64
3, 1680, Note_on_c, 1, 59, 105
3, 1920, Note_off_c, 1, 59, 64
3, 2130, Note_on_c, 1, 47, 105
3, 2154, Note_off_c, 1, 47, 64
3, 2160, Note_on_c, 1, 46, 105
3, 2256, Note_off_c, 1, 46, 64
3, 2370, Note_on_c, 1, 58, 105
3, 2394, Note_off_c, 1, 58, 64
3, 2400, Note_on_c, 1, 58, 105
3, 2640, Note_off_c, 1, 58, 64
3, 2880, Note_on_c, 1, 57, 58
3, 2976, Note_off_c, 1, 57, 64
3, 3000, Note_on_c, 1, 57, 58
3, 3096, Note_off_c, 1, 57, 64
3, 3120, Note_on_c, 1, 57, 58
3, 3216, Note_off_c, 1, 57, 64
3, 3240, Note_on_c, 1, 57, 58
3, 3336, Note_off_c, 1, 57, 64
3, 3360, Note_on_c, 1, 57, 58
3, 3456, Note_off_c, 1, 57, 64
3, 3480, Note_on_c, 1, 57, 58
3, 3576, Note_off_c, 1, 57, 64
3, 3600, Note_on_c, 1, 55, 58
3, 3696, Note_off_c, 1, 55, 64
3, 3720, Note_on_c, 1, 55, 58
3, 3816, Note_off_c, 1, 55, 64
3, 3840, Note_on_c, 1, 55, 58
3, 3936, Note_off_c, 1, 55, 64
3, 3960, Note_on_c, 1, 55, 58
3, 4056, Note_off_c, 1, 55, 64
3, 4080, Note_on_c, 1, 55, 58
3, 4176, Note_off_c, 1, 55, 64
3, 4200, Note_on_c, 1, 55, 58
3, 4296, Note_off_c, 1, 55, 64
3, 4320, Note_on_c, 1, 53, 58
3, 4416, Note_off_c, 1, 53, 64
3, 4440, Note_on_c, 1, 53, 58
3, 4536, Note_off_c, 1, 53, 64
3, 4560, Note_on_c, 1, 53, 58
3, 4656, Note_off_c, 1, 53, 64
3, 4680, Note_on_c, 1, 53, 58
3, 4776, Note_off_c, 1, 53, 64
3, 4800, Note_on_c, 1, 53, 58
3, 4896, Note_off_c, 1, 53, 64
3, 4920, Note_on_c, 1, 53, 58
3, 5016, Note_off_c, 1, 53, 64
3, 5040, Note_on_c, 1, 52, 58
3, 5136, Note_off_c, 1, 52, 64
3, 5160, Note_on_c, 1, 52, 58
3, 5256, Note_off_c, 1, 52, 64
3, 5280, Note_on_c, 1, 52, 58
3, 5376, Note_off_c, 1, 52, 64
3, 5400, Note_on_c, 1, 52, 58
3, 5496, Note_off_c, 1, 52, 64
3, 5520, Note_on_c, 1, 51, 58
3, 5616, Note_off_c, 1, 51, 64
3, 5640, Note_on_c, 1, 51, 58
3, 5736, Note_off_c, 1, 51, 64
3, 5760, Note_on_c, 1, 50, 112
3, 5832, Note_off_c, 1, 50, 64
3, 5880, Note_on_c, 1, 63, 72
3, 6000, Note_off_c, 1, 63, 64
3, 6000, Note_on_c, 1, 62, 81
3, 6120, Note_off_c, 1, 62, 64
3, 6120, Note_on_c, 1, 57, 81
3, 6240, Note_off_c, 1, 57, 64
3, 6240, Note_on_c, 1, 62, 81
3, 6360, Note_off_c, 1, 62, 64
3, 6360, Note_on_c, 1, 60, 81
3, 6474, Note_off_c, 1, 60, 64
3, 6480, Note_on_c, 1, 43, 81
3, 6480, Note_on_c, 1, 59, 72
3, 6552, Note_off_c, 1, 43, 64
3, 7200, Note_off_c, 1, 59, 64
3, 7200, Note_on_c, 1, 48, 78
3, 7200, Note_on_c, 1, 60, 58
3, 7272, Note_off_c, 1, 60, 64
3, 7272, Note_off_c, 1, 48, 64
3, 7320, Note_on_c, 1, 61, 72
3, 7440, Note_off_c, 1, 61, 64
3, 7440, Note_on_c, 1, 60, 72
3, 7560, Note_off_c, 1, 60, 64
3, 7560, Note_on_c, 1, 55, 72
3, 7680, Note_off_c, 1, 55, 64
3, 7680, Note_on_c, 1, 60, 72
3, 7800, Note_off_c, 1, 60, 64
3, 7800, Note_on_c, 1, 58, 72
3, 7896, Note_off_c, 1, 58, 64
3, 7920, Note_on_c, 1, 56, 72
3, 7920, Note_on_c, 1, 53, 72
3, 8148, Note_off_c, 1, 56, 64
3, 8160, Note_on_c, 1, 60, 58
3, 8616, Note_off_c, 1, 60, 64
3, 8640, Note_on_c, 1, 61, 58
3, 9360, Note_off_c, 1, 61, 64
3, 9360, Note_on_c, 1, 62, 58
3, 9552, Note_off_c, 1, 53, 64
3, 9552, Note_off_c, 1, 62, 64
3, 10920, Note_on_c, 1, 62, 58
3, 11040, Note_off_c, 1, 62, 64
3, 11040, Note_on_c, 1, 63, 72
3, 11160, Note_off_c, 1, 63, 64
3, 11160, Note_on_c, 1, 64, 72
3, 11280, Note_off_c, 1, 64, 64
3, 11280, Note_on_c, 1, 65, 81
3, 11400, Note_off_c, 1, 65, 64
3, 11400, Note_on_c, 1, 66, 101
3, 11496, Note_off_c, 1, 66, 64
3, 11520, Note_on_c, 1, 67, 58
3, 12240, Note_off_c, 1, 67, 64
3, 12240, Note_on_c, 1, 55, 58
3, 12924, Note_off_c, 1, 55, 64
3, 12960, Note_on_c, 1, 55, 58
3, 13056, Note_off_c, 1, 55, 64
3, 13200, Note_on_c, 1, 55, 58
3, 13200, Note_on_c, 1, 67, 58
3, 13296, Note_off_c, 1, 67, 64
3, 13296, Note_off_c, 1, 55, 64
3, 13440, Note_on_c, 1, 55, 58
3, 13440, Note_on_c, 1, 67, 58
3, 13536, Note_off_c, 1, 67, 64
3, 13536, Note_off_c, 1, 55, 64
3, 13680, Note_on_c, 1, 67, 58
3, 13680, Note_on_c, 1, 55, 58
3, 13776, Note_off_c, 1, 55, 64
3, 13776, Note_off_c, 1, 67, 64
3, 13920, Note_on_c, 1, 55, 116
3, 13920, Note_on_c, 1, 43, 116
3, 14148, Note_off_c, 1, 43, 64
3, 14148, Note_off_c, 1, 55, 64
3, 24000, Note_on_c, 1, 48, 105
3, 24096, Note_off_c, 1, 48, 64
3, 24120, Note_on_c, 1, 48, 105
3, 24216, Note_off_c, 1, 48, 64
3, 24240, Note_on_c, 1, 48, 105
3, 24336, Note_off_c, 1, 48, 64
3, 24360, Note_on_c, 1, 48, 105
3, 24456, Note_off_c, 1, 48, 64
3, 24480, Note_on_c, 1, 48, 105
3, 24576, Note_off_c, 1, 48, 64
3, 24600, Note_on_c, 1, 48, 105
3, 24696, Note_off_c, 1, 48, 64
3, 24720, Note_on_c, 1, 48, 105
3, 24816, Note_off_c, 1, 48, 64
3, 24840, Note_on_c, 1, 48, 105
3, 24936, Note_off_c, 1, 48, 64
3, 24960, Note_on_c, 1, 48, 105
3, 25056, Note_off_c, 1, 48, 64
3, 25080, Note_on_c, 1, 48, 105
3, 25176, Note_off_c, 1, 48, 64
3, 25200, Note_on_c, 1, 48, 105
3, 25296, Note_off_c, 1, 48, 64
3, 25320, Note_on_c, 1, 48, 105
3, 25416, Note_off_c, 1, 48, 64
3, 25440, Note_on_c, 1, 48, 105
3, 25536, Note_off_c, 1, 48, 64
3, 25560, Note_on_c, 1, 48, 105
3, 25656, Note_off_c, 1, 48, 64
3, 25680, Note_on_c, 1, 48, 105
3, 25776, Note_off_c, 1, 48, 64
3, 25800, Note_on_c, 1, 48, 105
3, 25896, Note_off_c, 1, 48, 64
3, 25920, Note_on_c, 1, 48, 105
3, 26304, Note_off_c, 1, 48, 64
3, 26640, Note_on_c, 1, 48, 105
3, 26808, Note_off_c, 1, 48, 64
3, 26880, Note_on_c, 1, 53, 105
3, 27048, Note_off_c, 1, 53, 64
3, 27120, Note_on_c, 1, 48, 105
3, 27288, Note_off_c, 1, 48, 64
3, 27600, Note_on_c, 1, 48, 105
3, 27768, Note_off_c, 1, 48, 64
3, 27840, Note_on_c, 1, 53, 105
3, 28008, Note_off_c, 1, 53, 64
3, 28080, Note_on_c, 1, 48, 105
3, 28248, Note_off_c, 1, 48, 64
3, 28560, Note_on_c, 1, 48, 105
3, 28728, Note_off_c, 1, 48, 64
3, 28800, Note_on_c, 1, 53, 105
3, 28968, Note_off_c, 1, 53, 64
3, 29040, Note_on_c, 1, 48, 105
3, 29208, Note_off_c, 1, 48, 64
3, 29280, Note_on_c, 1, 53, 105
3, 29448, Note_off_c, 1, 53, 64
3, 29520, Note_on_c, 1, 48, 105
3, 29688, Note_off_c, 1, 48, 64
3, 29760, Note_on_c, 1, 53, 105
3, 29928, Note_off_c, 1, 53, 64
3, 30000, Note_on_c, 1, 48, 105
3, 30168, Note_off_c, 1, 48, 64
3, 30720, Note_on_c, 1, 57, 58
3, 31680, Note_off_c, 1, 57, 64
3, 31680, Note_on_c, 1, 55, 58
3, 32160, Note_off_c, 1, 55, 64
3, 32160, Note_on_c, 1, 48, 58
3, 32640, Note_off_c, 1, 48, 64
3, 32640, Note_on_c, 1, 53, 58
3, 32832, Note_off_c, 1, 53, 64
3, 34560, Note_on_c, 1, 55, 72
3, 34752, Note_off_c, 1, 55, 64
3, 34800, Note_on_c, 1, 55, 72
3, 34992, Note_off_c, 1, 55, 64
3, 35040, Note_on_c, 1, 55, 72
3, 35232, Note_off_c, 1, 55, 64
3, 35280, Note_on_c, 1, 55, 72
3, 35472, Note_off_c, 1, 55, 64
3, 35520, Note_on_c, 1, 48, 105
3, 35604, Note_off_c, 1, 48, 64
3, 35640, Note_on_c, 1, 52, 105
3, 35724, Note_off_c, 1, 52, 64
3, 35760, Note_on_c, 1, 55, 105
3, 35844, Note_off_c, 1, 55, 64
3, 35880, Note_on_c, 1, 60, 105
3, 35964, Note_off_c, 1, 60, 64
3, 36000, Note_on_c, 1, 64, 105
3, 36084, Note_off_c, 1, 64, 64
3, 36120, Note_on_c, 1, 62, 105
3, 36204, Note_off_c, 1, 62, 64
3, 36240, Note_on_c, 1, 64, 105
3, 36324, Note_off_c, 1, 64, 64
3, 36360, Note_on_c, 1, 60, 105
3, 36444, Note_off_c, 1, 60, 64
3, 36480, Note_on_c, 1, 59, 105
3, 36564, Note_off_c, 1, 59, 64
3, 36600, Note_on_c, 1, 60, 105
3, 36684, Note_off_c, 1, 60, 64
3, 36720, Note_on_c, 1, 62, 105
3, 36804, Note_off_c, 1, 62, 64
3, 36840, Note_on_c, 1, 60, 105
3, 36924, Note_off_c, 1, 60, 64
3, 36960, Note_on_c, 1, 59, 105
3, 37044, Note_off_c, 1, 59, 64
3, 37080, Note_on_c, 1, 57, 105
3, 37164, Note_off_c, 1, 57, 64
3, 37200, Note_on_c, 1, 55, 105
3, 37284, Note_off_c, 1, 55, 64
3, 37320, Note_on_c, 1, 53, 105
3, 37404, Note_off_c, 1, 53, 64
3, 37440, Note_on_c, 1, 52, 105
3, 37524, Note_off_c, 1, 52, 64
3, 37560, Note_on_c, 1, 53, 105
3, 37644, Note_off_c, 1, 53, 64
3, 37680, Note_on_c, 1, 55, 105
3, 37764, Note_off_c, 1, 55, 64
3, 37800, Note_on_c, 1, 52, 105
3, 37884, Note_off_c, 1, 52, 64
3, 37920, Note_on_c, 1, 57, 105
3, 38004, Note_off_c, 1, 57, 64
3, 38040, Note_on_c, 1, 59, 105
3, 38124, Note_off_c, 1, 59, 64
3, 38160, Note_on_c, 1, 60, 105
3, 38244, Note_off_c, 1, 60, 64
3, 38280, Note_on_c, 1, 57, 105
3, 38364, Note_off_c, 1, 57, 64
3, 38400, Note_on_c, 1, 53, 105
3, 38484, Note_off_c, 1, 53, 64
3, 38520, Note_on_c, 1, 50, 105
3, 38604, Note_off_c, 1, 50, 64
3, 38640, Note_on_c, 1, 52, 105
3, 38724, Note_off_c, 1, 52, 64
3, 38760, Note_on_c, 1, 53, 105
3, 38844, Note_off_c, 1, 53, 64
3, 38880, Note_on_c, 1, 55, 105
3, 38964, Note_off_c, 1, 55, 64
3, 39000, Note_on_c, 1, 53, 105
3, 39084, Note_off_c, 1, 53, 64
3, 39120, Note_on_c, 1, 55, 105
3, 39204, Note_off_c, 1, 55, 64
3, 39240, Note_on_c, 1, 43, 105
3, 39324, Note_off_c, 1, 43, 64
3, 39360, Note_on_c, 1, 48, 105
3, 39444, Note_off_c, 1, 48, 64
3, 39480, Note_on_c, 1, 52, 105
3, 39564, Note_off_c, 1, 52, 64
3, 39600, Note_on_c, 1, 55, 105
3, 39684, Note_off_c, 1, 55, 64
3, 39720, Note_on_c, 1, 60, 105
3, 39804, Note_off_c, 1, 60, 64
3, 39840, Note_on_c, 1, 64, 105
3, 39924, Note_off_c, 1, 64, 64
3, 39960, Note_on_c, 1, 62, 105
3, 40044, Note_off_c, 1, 62, 64
3, 40080, Note_on_c, 1, 64, 105
3, 40164, Note_off_c, 1, 64, 64
3, 40200, Note_on_c, 1, 60, 105
3, 40284, Note_off_c, 1, 60, 64
3, 40320, Note_on_c, 1, 59, 105
3, 40404, Note_off_c, 1, 59, 64
3, 40440, Note_on_c, 1, 60, 105
3, 40524, Note_off_c, 1, 60, 64
3, 40560, Note_on_c, 1, 62, 105
3, 40644, Note_off_c, 1, 62, 64
3, 40680, Note_on_c, 1, 60, 105
3, 40764, Note_off_c, 1, 60, 64
3, 40800, Note_on_c, 1, 59, 105
3, 40884, Note_off_c, 1, 59, 64
3, 40920, Note_on_c, 1, 57, 105
3, 41004, Note_off_c, 1, 57, 64
3, 41040, Note_on_c, 1, 55, 105
3, 41124, Note_off_c, 1, 55, 64
3, 41160, Note_on_c, 1, 53, 105
3, 41244, Note_off_c, 1, 53, 64
3, 41280, Note_on_c, 1, 52, 105
3, 41364, Note_off_c, 1, 52, 64
3, 41400, Note_on_c, 1, 53, 105
3, 41484, Note_off_c, 1, 53, 64
3, 41520, Note_on_c, 1, 55, 105
3, 41604, Note_off_c, 1, 55, 64
3, 41640, Note_on_c, 1, 52, 105
3, 41724, Note_off_c, 1, 52, 64
3, 41760, Note_on_c, 1, 57, 105
3, 41844, Note_off_c, 1, 57, 64
3, 41880, Note_on_c, 1, 59, 105
3, 41964, Note_off_c, 1, 59, 64
3, 42000, Note_on_c, 1, 60, 105
3, 42084, Note_off_c, 1, 60, 64
3, 42120, Note_on_c, 1, 57, 105
3, 42204, Note_off_c, 1, 57, 64
3, 42240, Note_on_c, 1, 54, 105
3, 42324, Note_off_c, 1, 54, 64
3, 42360, Note_on_c, 1, 55, 105
3, 42444, Note_off_c, 1, 55, 64
3, 42480, Note_on_c, 1, 57, 105
3, 42564, Note_off_c, 1, 57, 64
3, 42600, Note_on_c, 1, 55, 105
3, 42684, Note_off_c, 1, 55, 64
3, 42720, Note_on_c, 1, 54, 105
3, 42804, Note_off_c, 1, 54, 64
3, 42840, Note_on_c, 1, 50, 105
3, 42924, Note_off_c, 1, 50, 64
3, 42960, Note_on_c, 1, 52, 105
3, 43044, Note_off_c, 1, 52, 64
3, 43080, Note_on_c, 1, 54, 105
3, 43164, Note_off_c, 1, 54, 64
3, 43200, Note_on_c, 1, 55, 105
3, 43284, Note_off_c, 1, 55, 64
3, 43320, Note_on_c, 1, 57, 105
3, 43404, Note_off_c, 1, 57, 64
3, 43440, Note_on_c, 1, 59, 105
3, 43524, Note_off_c, 1, 59, 64
3, 43560, Note_on_c, 1, 57, 105
3, 43644, Note_off_c, 1, 57, 64
3, 43680, Note_on_c, 1, 56, 105
3, 43764, Note_off_c, 1, 56, 64
3, 43800, Note_on_c, 1, 57, 105
3, 43884, Note_off_c, 1, 57, 64
3, 43920, Note_on_c, 1, 54, 105
3, 44004, Note_off_c, 1, 54, 64
3, 44040, Note_on_c, 1, 56, 105
3, 44124, Note_off_c, 1, 56, 64
3, 44160, Note_on_c, 1, 57, 105
3, 44244, Note_off_c, 1, 57, 64
3, 44280, Note_on_c, 1, 59, 105
3, 44364, Note_off_c, 1, 59, 64
3, 44400, Note_on_c, 1, 60, 105
3, 44484, Note_off_c, 1, 60, 64
3, 44520, Note_on_c, 1, 59, 105
3, 44604, Note_off_c, 1, 59, 64
3, 44640, Note_on_c, 1, 57, 105
3, 44724, Note_off_c, 1, 57, 64
3, 44760, Note_on_c, 1, 59, 105
3, 44844, Note_off_c, 1, 59, 64
3, 44880, Note_on_c, 1, 55, 105
3, 44964, Note_off_c, 1, 55, 64
3, 45000, Note_on_c, 1, 57, 105
3, 45084, Note_off_c, 1, 57, 64
3, 45120, Note_on_c, 1, 54, 105
3, 45204, Note_off_c, 1, 54, 64
3, 45240, Note_on_c, 1, 55, 105
3, 45324, Note_off_c, 1, 55, 64
3, 45360, Note_on_c, 1, 57, 105
3, 45444, Note_off_c, 1, 57, 64
3, 45480, Note_on_c, 1, 55, 105
3, 45564, Note_off_c, 1, 55, 64
3, 45600, Note_on_c, 1, 54, 105
3, 45684, Note_off_c, 1, 54, 64
3, 45720, Note_on_c, 1, 50, 105
3, 45804, Note_off_c, 1, 50, 64
3, 45840, Note_on_c, 1, 52, 105
3, 45924, Note_off_c, 1, 52, 64
3, 45960, Note_on_c, 1, 54, 105
3, 46044, Note_off_c, 1, 54, 64
3, 46080, Note_on_c, 1, 55, 105
3, 46164, Note_off_c, 1, 55, 64
3, 46200, Note_on_c, 1, 59, 105
3, 46284, Note_off_c, 1, 59, 64
3, 46320, Note_on_c, 1, 62, 105
3, 46404, Note_off_c, 1, 62, 64
3, 46440, Note_on_c, 1, 62, 105
3, 46524, Note_off_c, 1, 62, 64
3, 46560, Note_on_c, 1, 62, 105
3, 46644, Note_off_c, 1, 62, 64
3, 46680, Note_on_c, 1, 62, 105
3, 46764, Note_off_c, 1, 62, 64
3, 46800, Note_on_c, 1, 59, 105
3, 46884, Note_off_c, 1, 59, 64
3, 46920, Note_on_c, 1, 55, 105
3, 47004, Note_off_c, 1, 55, 64
3, 47040, Note_on_c, 1, 60, 105
3, 47124, Note_off_c, 1, 60, 64
3, 47160, Note_on_c, 1, 57, 105
3, 47244, Note_off_c, 1, 57, 64
3, 47280, Note_on_c, 1, 59, 105
3, 47364, Note_off_c, 1, 59, 64
3, 47400, Note_on_c, 1, 55, 105
3, 47484, Note_off_c, 1, 55, 64
3, 47520, Note_on_c, 1, 54, 105
3, 47604, Note_off_c, 1, 54, 64
3, 47640, Note_on_c, 1, 57, 105
3, 47724, Note_off_c, 1, 57, 64
3, 47760, Note_on_c, 1, 54, 105
3, 47844, Note_off_c, 1, 54, 64
3, 47880, Note_on_c, 1, 50, 105
3, 47964, Note_off_c, 1, 50, 64
3, 48000, Note_on_c, 1, 55, 105
3, 48084, Note_off_c, 1, 55, 64
3, 48120, Note_on_c, 1, 59, 105
3, 48204, Note_off_c, 1, 59, 64
3, 48240, Note_on_c, 1, 62, 105
3, 48324, Note_off_c, 1, 62, 64
3, 48360, Note_on_c, 1, 62, 105
3, 48444, Note_off_c, 1, 62, 64
3, 48480, Note_on_c, 1, 62, 105
3, 48564, Note_off_c, 1, 62, 64
3, 48600, Note_on_c, 1, 62, 105
3, 48684, Note_off_c, 1, 62, 64
3, 48720, Note_on_c, 1, 59, 105
3, 48804, Note_off_c, 1, 59, 64
3, 48840, Note_on_c, 1, 55, 105
3, 48924, Note_off_c, 1, 55, 64
3, 48960, Note_on_c, 1, 60, 105
3, 49044, Note_off_c, 1, 60, 64
3, 49080, Note_on_c, 1, 57, 105
3, 49164, Note_off_c, 1, 57, 64
3, 49200, Note_on_c, 1, 59, 105
3, 49284, Note_off_c, 1, 59, 64
3, 49320, Note_on_c, 1, 55, 105
3, 49404, Note_off_c, 1, 55, 64
3, 49440, Note_on_c, 1, 54, 105
3, 49524, Note_off_c, 1, 54, 64
3, 49560, Note_on_c, 1, 57, 105
3, 49644, Note_off_c, 1, 57, 64
3, 49680, Note_on_c, 1, 54, 105
3, 49764, Note_off_c, 1, 54, 64
3, 49800, Note_on_c, 1, 50, 105
3, 49884, Note_off_c, 1, 50, 64
3, 49920, Note_on_c, 1, 55, 105
3, 50004, Note_off_c, 1, 55, 64
3, 50040, Note_on_c, 1, 57, 105
3, 50124, Note_off_c, 1, 57, 64
3, 50160, Note_on_c, 1, 54, 105
3, 50244, Note_off_c, 1, 54, 64
3, 50280, Note_on_c, 1, 55, 105
3, 50364, Note_off_c, 1, 55, 64
3, 50400, Note_on_c, 1, 52, 105
3, 50484, Note_off_c, 1, 52, 64
3, 50520, Note_on_c, 1, 53, 105
3, 50604, Note_off_c, 1, 53, 64
3, 50640, Note_on_c, 1, 50, 105
3, 50724, Note_off_c, 1, 50, 64
3, 50760, Note_on_c, 1, 52, 105
3, 50844, Note_off_c, 1, 52, 64
3, 50880, Note_on_c, 1, 48, 105
3, 51072, Note_off_c, 1, 48, 64
3, 51360, Note_on_c, 1, 59, 105
3, 51360, Note_on_c, 1, 62, 105
3, 51840, Note_off_c, 1, 62, 64
3, 51840, Note_off_c, 1, 59, 64
3, 51840, Note_on_c, 1, 60, 92
3, 51840, Note_on_c, 1, 57, 92
3, 52032, Note_off_c, 1, 57, 64
3, 52032, Note_off_c, 1, 60, 64
3, 52320, Note_on_c, 1, 59, 92
3, 52320, Note_on_c, 1, 62, 92
3, 52800, Note_off_c, 1, 62, 64
3, 52800, Note_off_c, 1, 59, 64
3, 52800, Note_on_c, 1, 60, 105
3, 52872, Note_off_c, 1, 60, 64
3, 52920, Note_on_c, 1, 59, 105
3, 52992, Note_off_c, 1, 59, 64
3, 53040, Note_on_c, 1, 60, 105
3, 53112, Note_off_c, 1, 60, 64
3, 53160, Note_on_c, 1, 59, 105
3, 53232, Note_off_c, 1, 59, 64
3, 53280, Note_on_c, 1, 60, 105
3, 53352, Note_off_c, 1, 60, 64
3, 53400, Note_on_c, 1, 59, 105
3, 53472, Note_off_c, 1, 59, 64
3, 53520, Note_on_c, 1, 60, 105
3, 53592, Note_off_c, 1, 60, 64
3, 53640, Note_on_c, 1, 56, 105
3, 53712, Note_off_c, 1, 56, 64
3, 53760, Note_on_c, 1, 57, 105
3, 53832, Note_off_c, 1, 57, 64
3, 53880, Note_on_c, 1, 56, 105
3, 53952, Note_off_c, 1, 56, 64
3, 54000, Note_on_c, 1, 57, 105
3, 54072, Note_off_c, 1, 57, 64
3, 54120, Note_on_c, 1, 56, 105
3, 54192, Note_off_c, 1, 56, 64
3, 54240, Note_on_c, 1, 57, 105
3, 54312, Note_off_c, 1, 57, 64
3, 54360, Note_on_c, 1, 56, 105
3, 54432, Note_off_c, 1, 56, 64
3, 54480, Note_on_c, 1, 57, 105
3, 54552, Note_off_c, 1, 57, 64
3, 54600, Note_on_c, 1, 59, 105
3, 54672, Note_off_c, 1, 59, 64
3, 54720, Note_on_c, 1, 60, 105
3, 54912, Note_off_c, 1, 60, 64
3, 56640, Note_on_c, 1, 49, 72
3, 57600, Note_off_c, 1, 49, 64
3, 57600, Note_on_c, 1, 52, 72
3, 58368, Note_off_c, 1, 52, 64
3, 58560, Note_on_c, 1, 50, 72
3, 58752, Note_off_c, 1, 50, 64
3, 58800, Note_on_c, 1, 66, 72
3, 59280, Note_off_c, 1, 66, 64
3, 59280, Note_on_c, 1, 67, 72
3, 59472, Note_off_c, 1, 67, 64
3, 59760, Note_on_c, 1, 66, 72
3, 60240, Note_off_c, 1, 66, 64
3, 60240, Note_on_c, 1, 67, 72
3, 60432, Note_off_c, 1, 67, 64
3, 61200, Note_on_c, 1, 62, 72
3, 61344, Note_off_c, 1, 62, 64
3, 61440, Note_on_c, 1, 64, 72
3, 61800, Note_off_c, 1, 64, 64
3, 61800, Note_on_c, 1, 66, 72
3, 61860, Note_off_c, 1, 66, 64
3, 61860, Note_on_c, 1, 67, 72
3, 61920, Note_off_c, 1, 67, 64
3, 61920, Note_on_c, 1, 62, 72
3, 62064, Note_off_c, 1, 62, 64
3, 62160, Note_on_c, 1, 59, 72
3, 62304, Note_off_c, 1, 59, 64
3, 62400, Note_on_c, 1, 57, 72
3, 62544, Note_off_c, 1, 57, 64
3, 62640, Note_on_c, 1, 60, 72
3, 63120, Note_off_c, 1, 60, 64
3, 63120, Note_on_c, 1, 57, 72
3, 63240, Note_off_c, 1, 57, 64
3, 63240, Note_on_c, 1, 54, 72
3, 63336, Note_off_c, 1, 54, 64
3, 63360, Note_on_c, 1, 55, 58
3, 63552, Note_off_c, 1, 55, 64
3, 63840, Note_on_c, 1, 52, 105
3, 63984, Note_off_c, 1, 52, 64
3, 64080, Note_on_c, 1, 52, 105
3, 64224, Note_off_c, 1, 52, 64
3, 64320, Note_on_c, 1, 52, 105
3, 64404, Note_off_c, 1, 52, 64
3, 64440, Note_on_c, 1, 54, 105
3, 64524, Note_off_c, 1, 54, 64
3, 64560, Note_on_c, 1, 55, 105
3, 64644, Note_off_c, 1, 55, 64
3, 64680, Note_on_c, 1, 52, 105
3, 64764, Note_off_c, 1, 52, 64
3, 64800, Note_on_c, 1, 51, 105
3, 64884, Note_off_c, 1, 51, 64
3, 64920, Note_on_c, 1, 47, 105
3, 65004, Note_off_c, 1, 47, 64
3, 65040, Note_on_c, 1, 49, 105
3, 65124, Note_off_c, 1, 49, 64
3, 65160, Note_on_c, 1, 51, 105
3, 65244, Note_off_c, 1, 51, 64
3, 65280, Note_on_c, 1, 52, 105
3, 65364, Note_off_c, 1, 52, 64
3, 65400, Note_on_c, 1, 54, 105
3, 65484, Note_off_c, 1, 54, 64
3, 65520, Note_on_c, 1, 55, 105
3, 65604, Note_off_c, 1, 55, 64
3, 65640, Note_on_c, 1, 52, 105
3, 65724, Note_off_c, 1, 52, 64
3, 65760, Note_on_c, 1, 51, 105
3, 65844, Note_off_c, 1, 51, 64
3, 65880, Note_on_c, 1, 47, 105
3, 65964, Note_off_c, 1, 47, 64
3, 66000, Note_on_c, 1, 49, 105
3, 66084, Note_off_c, 1, 49, 64
3, 66120, Note_on_c, 1, 51, 105
3, 66204, Note_off_c, 1, 51, 64
3, 66240, Note_on_c, 1, 52, 105
3, 66324, Note_off_c, 1, 52, 64
3, 66360, Note_on_c, 1, 54, 105
3, 66444, Note_off_c, 1, 54, 64
3, 66480, Note_on_c, 1, 55, 105
3, 66564, Note_off_c, 1, 55, 64
3, 66600, Note_on_c, 1, 52, 105
3, 66684, Note_off_c, 1, 52, 64
3, 66720, Note_on_c, 1, 51, 105
3, 66804, Note_off_c, 1, 51, 64
3, 66840, Note_on_c, 1, 47, 105
3, 66924, Note_off_c, 1, 47, 64
3, 66960, Note_on_c, 1, 49, 105
3, 67044, Note_off_c, 1, 49, 64
3, 67080, Note_on_c, 1, 51, 105
3, 67164, Note_off_c, 1, 51, 64
3, 67200, Note_on_c, 1, 52, 105
3, 67392, Note_off_c, 1, 52, 64
3, 67680, Note_on_c, 1, 48, 72
3, 67680, Note_on_c, 1, 36, 72
3, 67860, Note_off_c, 1, 36, 64
3, 67860, Note_off_c, 1, 48, 64
3, 67920, Note_on_c, 1, 48, 72
3, 67920, Note_on_c, 1, 36, 72
3, 68100, Note_off_c, 1, 36, 64
3, 68100, Note_off_c, 1, 48, 64
3, 68160, Note_on_c, 1, 36, 72
3, 68160, Note_on_c, 1, 48, 72
3, 68616, Note_off_c, 1, 48, 64
3, 68616, Note_off_c, 1, 36, 64
3, 68640, Note_on_c, 1, 43, 72
3, 68640, Note_on_c, 1, 55, 72
3, 69096, Note_off_c, 1, 55, 64
3, 69096, Note_off_c, 1, 43, 64
3, 69120, Note_on_c, 1, 48, 58
3, 69120, Note_on_c, 1, 60, 58
3, 69312, Note_off_c, 1, 60, 64
3, 69312, Note_off_c, 1, 48, 64
3, 71520, Note_on_c, 1, 52, 58
3, 71700, Note_off_c, 1, 52, 64
3, 71760, Note_on_c, 1, 52, 72
3, 71940, Note_off_c, 1, 52, 64
3, 72000, Note_on_c, 1, 52, 72
3, 72480, Note_off_c, 1, 52, 64
3, 72480, Note_on_c, 1, 59, 72
3, 72864, Note_off_c, 1, 59, 64
3, 72960, Note_on_c, 1, 57, 72
3, 73080, Note_off_c, 1, 57, 64
3, 73080, Note_on_c, 1, 55, 72
3, 73200, Note_off_c, 1, 55, 64
3, 73200, Note_on_c, 1, 54, 72
3, 73320, Note_off_c, 1, 54, 64
3, 73320, Note_on_c, 1, 52, 72
3, 73416, Note_off_c, 1, 52, 64
3, 73440, Note_on_c, 1, 59, 72
3, 73620, Note_off_c, 1, 59, 64
3, 73680, Note_on_c, 1, 59, 72
3, 73860, Note_off_c, 1, 59, 64
3, 73920, Note_on_c, 1, 57, 72
3, 74040, Note_off_c, 1, 57, 64
3, 74040, Note_on_c, 1, 55, 72
3, 74160, Note_off_c, 1, 55, 64
3, 74160, Note_on_c, 1, 54, 72
3, 74280, Note_off_c, 1, 54, 64
3, 74280, Note_on_c, 1, 52, 72
3, 74376, Note_off_c, 1, 52, 64
3, 74400, Note_on_c, 1, 58, 72
3, 74520, Note_off_c, 1, 58, 64
3, 74520, Note_on_c, 1, 59, 72
3, 74640, Note_off_c, 1, 59, 64
3, 74640, Note_on_c, 1, 58, 72
3, 74760, Note_off_c, 1, 58, 64
3, 74760, Note_on_c, 1, 59, 72
3, 74856, Note_off_c, 1, 59, 64
3, 74880, Note_on_c, 1, 57, 72
3, 75000, Note_off_c, 1, 57, 64
3, 75000, Note_on_c, 1, 55, 72
3, 75120, Note_off_c, 1, 55, 64
3, 75120, Note_on_c, 1, 54, 72
3, 75240, Note_off_c, 1, 54, 64
3, 75240, Note_on_c, 1, 52, 72
3, 75336, Note_off_c, 1, 52, 64
3, 75360, Note_on_c, 1, 48, 105
3, 75504, Note_off_c, 1, 48, 64
3, 75600, Note_on_c, 1, 48, 105
3, 75744, Note_off_c, 1, 48, 64
3, 75840, Note_on_c, 1, 48, 105
3, 75924, Note_off_c, 1, 48, 64
3, 75960, Note_on_c, 1, 52, 105
3, 76044, Note_off_c, 1, 52, 64
3, 76080, Note_on_c, 1, 55, 105
3, 76164, Note_off_c, 1, 55, 64
3, 76200, Note_on_c, 1, 60, 105
3, 76284, Note_off_c, 1, 60, 64
3, 76320, Note_on_c, 1, 59, 105
3, 76404, Note_off_c, 1, 59, 64
3, 76440, Note_on_c, 1, 55, 105
3, 76524, Note_off_c, 1, 55, 64
3, 76560, Note_on_c, 1, 57, 105
3, 76644, Note_off_c, 1, 57, 64
3, 76680, Note_on_c, 1, 59, 105
3, 76764, Note_off_c, 1, 59, 64
3, 76800, Note_on_c, 1, 60, 105
3, 76884, Note_off_c, 1, 60, 64
3, 76920, Note_on_c, 1, 60, 105
3, 77004, Note_off_c, 1, 60, 64
3, 77040, Note_on_c, 1, 60, 105
3, 77124, Note_off_c, 1, 60, 64
3, 77160, Note_on_c, 1, 60, 105
3, 77244, Note_off_c, 1, 60, 64
3, 77280, Note_on_c, 1, 60, 105
3, 77364, Note_off_c, 1, 60, 64
3, 77400, Note_on_c, 1, 60, 105
3, 77484, Note_off_c, 1, 60, 64
3, 77520, Note_on_c, 1, 60, 105
3, 77604, Note_off_c, 1, 60, 64
3, 77640, Note_on_c, 1, 60, 105
3, 77724, Note_off_c, 1, 60, 64
3, 77760, Note_on_c, 1, 62, 105
3, 77844, Note_off_c, 1, 62, 64
3, 77880, Note_on_c, 1, 62, 105
3, 77964, Note_off_c, 1, 62, 64
3, 78000, Note_on_c, 1, 62, 105
3, 78084, Note_off_c, 1, 62, 64
3, 78120, Note_on_c, 1, 62, 105
3, 78204, Note_off_c, 1, 62, 64
3, 78240, Note_on_c, 1, 50, 105
3, 78324, Note_off_c, 1, 50, 64
3, 78360, Note_on_c, 1, 50, 105
3, 78444, Note_off_c, 1, 50, 64
3, 78480, Note_on_c, 1, 50, 105
3, 78564, Note_off_c, 1, 50, 64
3, 78600, Note_on_c, 1, 50, 105
3, 78684, Note_off_c, 1, 50, 64
3, 78720, Note_on_c, 1, 55, 105
3, 78804, Note_off_c, 1, 55, 64
3, 78840, Note_on_c, 1, 43, 105
3, 78924, Note_off_c, 1, 43, 64
3, 78960, Note_on_c, 1, 45, 105
3, 79044, Note_off_c, 1, 45, 64
3, 79080, Note_on_c, 1, 47, 105
3, 79164, Note_off_c, 1, 47, 64
3, 79200, Note_on_c, 1, 48, 105
3, 79284, Note_off_c, 1, 48, 64
3, 79320, Note_on_c, 1, 52, 105
3, 79404, Note_off_c, 1, 52, 64
3, 79440, Note_on_c, 1, 50, 105
3, 79524, Note_off_c, 1, 50, 64
3, 79560, Note_on_c, 1, 54, 105
3, 79644, Note_off_c, 1, 54, 64
3, 79680, Note_on_c, 1, 52, 105
3, 79764, Note_off_c, 1, 52, 64
3, 79800, Note_on_c, 1, 55, 105
3, 79884, Note_off_c, 1, 55, 64
3, 79920, Note_on_c, 1, 54, 105
3, 80004, Note_off_c, 1, 54, 64
3, 80040, Note_on_c, 1, 57, 105
3, 80124, Note_off_c, 1, 57, 64
3, 80160, Note_on_c, 1, 55, 105
3, 80244, Note_off_c, 1, 55, 64
3, 80280, Note_on_c, 1, 59, 105
3, 80364, Note_off_c, 1, 59, 64
3, 80400, Note_on_c, 1, 57, 105
3, 80484, Note_off_c, 1, 57, 64
3, 80520, Note_on_c, 1, 60, 105
3, 80604, Note_off_c, 1, 60, 64
3, 80640, Note_on_c, 1, 59, 105
3, 80724, Note_off_c, 1, 59, 64
3, 80760, Note_on_c, 1, 62, 105
3, 80844, Note_off_c, 1, 62, 64
3, 80880, Note_on_c, 1, 59, 105
3, 80964, Note_off_c, 1, 59, 64
3, 81000, Note_on_c, 1, 55, 105
3, 81084, Note_off_c, 1, 55, 64
3, 81120, Note_on_c, 1, 60, 105
3, 81204, Note_off_c, 1, 60, 64
3, 81240, Note_on_c, 1, 57, 105
3, 81324, Note_off_c, 1, 57, 64
3, 81360, Note_on_c, 1, 54, 105
3, 81444, Note_off_c, 1, 54, 64
3, 81480, Note_on_c, 1, 50, 105
3, 81564, Note_off_c, 1, 50, 64
3, 81600, Note_on_c, 1, 55, 105
3, 81684, Note_off_c, 1, 55, 64
3, 81720, Note_on_c, 1, 55, 105
3, 81804, Note_off_c, 1, 55, 64
3, 81840, Note_on_c, 1, 52, 105
3, 81924, Note_off_c, 1, 52, 64
3, 81960, Note_on_c, 1, 52, 105
3, 82044, Note_off_c, 1, 52, 64
3, 82080, Note_on_c, 1, 48, 105
3, 82164, Note_off_c, 1, 48, 64
3, 82200, Note_on_c, 1, 48, 105
3, 82284, Note_off_c, 1, 48, 64
3, 82320, Note_on_c, 1, 50, 105
3, 82404, Note_off_c, 1, 50, 64
3, 82440, Note_on_c, 1, 50, 105
3, 82524, Note_off_c, 1, 50, 64
3, 82560, Note_on_c, 1, 43, 105
3, 82644, Note_off_c, 1, 43, 64
3, 82680, Note_on_c, 1, 55, 105
3, 82764, Note_off_c, 1, 55, 64
3, 82800, Note_on_c, 1, 57, 105
3, 82884, Note_off_c, 1, 57, 64
3, 82920, Note_on_c, 1, 59, 105
3, 83004, Note_off_c, 1, 59, 64
3, 83040, Note_on_c, 1, 60, 105
3, 83124, Note_off_c, 1, 60, 64
3, 83160, Note_on_c, 1, 57, 105
3, 83244, Note_off_c, 1, 57, 64
3, 83280, Note_on_c, 1, 62, 105
3, 83364, Note_off_c, 1, 62, 64
3, 83400, Note_on_c, 1, 60, 105
3, 83484, Note_off_c, 1, 60, 64
3, 83520, Note_on_c, 1, 59, 105
3, 83604, Note_off_c, 1, 59, 64
3, 83640, Note_on_c, 1, 55, 105
3, 83724, Note_off_c, 1, 55, 64
3, 83760, Note_on_c, 1, 54, 105
3, 83844, Note_off_c, 1, 54, 64
3, 83880, Note_on_c, 1, 50, 105
3, 83964, Note_off_c, 1, 50, 64
3, 84000, Note_on_c, 1, 55, 105
3, 84084, Note_off_c, 1, 55, 64
3, 84120, Note_on_c, 1, 50, 105
3, 84204, Note_off_c, 1, 50, 64
3, 84240, Note_on_c, 1, 57, 105
3, 84324, Note_off_c, 1, 57, 64
3, 84360, Note_on_c, 1, 50, 105
3, 84444, Note_off_c, 1, 50, 64
3, 84480, Note_on_c, 1, 59, 105
3, 84564, Note_off_c, 1, 59, 64
3, 84600, Note_on_c, 1, 57, 105
3, 84684, Note_off_c, 1, 57, 64
3, 84720, Note_on_c, 1, 56, 105
3, 84804, Note_off_c, 1, 56, 64
3, 84840, Note_on_c, 1, 52, 105
3, 84924, Note_off_c, 1, 52, 64
3, 84960, Note_on_c, 1, 57, 105
3, 85044, Note_off_c, 1, 57, 64
3, 85080, Note_on_c, 1, 55, 105
3, 85164, Note_off_c, 1, 55, 64
3, 85200, Note_on_c, 1, 54, 105
3, 85284, Note_off_c, 1, 54, 64
3, 85320, Note_on_c, 1, 50, 105
3, 85404, Note_off_c, 1, 50, 64
3, 85440, Note_on_c, 1, 55, 105
3, 85524, Note_off_c, 1, 55, 64
3, 85560, Note_on_c, 1, 55, 105
3, 85644, Note_off_c, 1, 55, 64
3, 85680, Note_on_c, 1, 59, 105
3, 85764, Note_off_c, 1, 59, 64
3, 85800, Note_on_c, 1, 59, 105
3, 85884, Note_off_c, 1, 59, 64
3, 85920, Note_on_c, 1, 60, 105
3, 86004, Note_off_c, 1, 60, 64
3, 86040, Note_on_c, 1, 60, 105
3, 86124, Note_off_c, 1, 60, 64
3, 86160, Note_on_c, 1, 62, 105
3, 86244, Note_off_c, 1, 62, 64
3, 86280, Note_on_c, 1, 62, 105
3, 86364, Note_off_c, 1, 62, 64
3, 86400, Note_on_c, 1, 55, 105
3, 86484, Note_off_c, 1, 55, 64
3, 86520, Note_on_c, 1, 55, 105
3, 86604, Note_off_c, 1, 55, 64
3, 86640, Note_on_c, 1, 55, 105
3, 86724, Note_off_c, 1, 55, 64
3, 86760, Note_on_c, 1, 55, 105
3, 86844, Note_off_c, 1, 55, 64
3, 86880, Note_on_c, 1, 55, 105
3, 87072, Note_off_c, 1, 55, 64
3, 87360, Note_on_c, 1, 52, 105
3, 87444, Note_off_c, 1, 52, 64
3, 87480, Note_on_c, 1, 52, 105
3, 87564, Note_off_c, 1, 52, 64
3, 87600, Note_on_c, 1, 52, 105
3, 87684, Note_off_c, 1, 52, 64
3, 87720, Note_on_c, 1, 52, 105
3, 87804, Note_off_c, 1, 52, 64
3, 87840, Note_on_c, 1, 52, 105
3, 88032, Note_off_c, 1, 52, 64
3, 88320, Note_on_c, 1, 47, 105
3, 88404, Note_off_c, 1, 47, 64
3, 88440, Note_on_c, 1, 47, 105
3, 88524, Note_off_c, 1, 47, 64
3, 88560, Note_on_c, 1, 47, 105
3, 88644, Note_off_c, 1, 47, 64
3, 88680, Note_on_c, 1, 47, 105
3, 88764, Note_off_c, 1, 47, 64
3, 88800, Note_on_c, 1, 47, 105
3, 88992, Note_off_c, 1, 47, 64
3, 89280, Note_on_c, 1, 48, 105
3, 89364, Note_off_c, 1, 48, 64
3, 89400, Note_on_c, 1, 48, 105
3, 89484, Note_off_c, 1, 48, 64
3, 89520, Note_on_c, 1, 48, 105
3, 89604, Note_off_c, 1, 48, 64
3, 89640, Note_on_c, 1, 48, 105
3, 89724, Note_off_c, 1, 48, 64
3, 89760, Note_on_c, 1, 45, 105
3, 89844, Note_off_c, 1, 45, 64
3, 89880, Note_on_c, 1, 45, 105
3, 89964, Note_off_c, 1, 45, 64
3, 90000, Note_on_c, 1, 45, 105
3, 90084, Note_off_c, 1, 45, 64
3, 90120, Note_on_c, 1, 45, 105
3, 90204, Note_off_c, 1, 45, 64
3, 90240, Note_on_c, 1, 42, 105
3, 90384, Note_off_c, 1, 42, 64
3, 90480, Note_on_c, 1, 54, 105
3, 90624, Note_off_c, 1, 54, 64
3, 90960, Note_on_c, 1, 55, 105
3, 91128, Note_off_c, 1, 55, 64
3, 91200, Note_on_c, 1, 57, 105
3, 91368, Note_off_c, 1, 57, 64
3, 91440, Note_on_c, 1, 59, 105
3, 91566, Note_off_c, 1, 59, 64
3, 91620, Note_on_c, 1, 60, 105
3, 91662, Note_off_c, 1, 60, 64
3, 91680, Note_on_c, 1, 62, 105
3, 91848, Note_off_c, 1, 62, 64
3, 91920, Note_on_c, 1, 50, 105
3, 92088, Note_off_c, 1, 50, 64
3, 92160, Note_on_c, 1, 55, 105
3, 92244, Note_off_c, 1, 55, 64
3, 92280, Note_on_c, 1, 55, 105
3, 92364, Note_off_c, 1, 55, 64
3, 92400, Note_on_c, 1, 55, 105
3, 92484, Note_off_c, 1, 55, 64
3, 92520, Note_on_c, 1, 55, 105
3, 92604, Note_off_c, 1, 55, 64
3, 92640, Note_on_c, 1, 55, 105
3, 92832, Note_off_c, 1, 55, 64
3, 93120, Note_on_c, 1, 52, 105
3, 93204, Note_off_c, 1, 52, 64
3, 93240, Note_on_c, 1, 52, 105
3, 93324, Note_off_c, 1, 52, 64
3, 93360, Note_on_c, 1, 52, 105
3, 93444, Note_off_c, 1, 52, 64
3, 93480, Note_on_c, 1, 52, 105
3, 93564, Note_off_c, 1, 52, 64
3, 93600, Note_on_c, 1, 52, 105
3, 93792, Note_off_c, 1, 52, 64
3, 94080, Note_on_c, 1, 47, 105
3, 94164, Note_off_c, 1, 47, 64
3, 94200, Note_on_c, 1, 47, 105
3, 94284, Note_off_c, 1, 47, 64
3, 94320, Note_on_c, 1, 47, 105
3, 94404, Note_off_c, 1, 47, 64
3, 94440, Note_on_c, 1, 47, 105
3, 94524, Note_off_c, 1, 47, 64
3, 94560, Note_on_c, 1, 47, 105
3, 94752, Note_off_c, 1, 47, 64
3, 95040, Note_on_c, 1, 48, 105
3, 95124, Note_off_c, 1, 48, 64
3, 95160, Note_on_c, 1, 48, 105
3, 95244, Note_off_c, 1, 48, 64
3, 95280, Note_on_c, 1, 48, 105
3, 95364, Note_off_c, 1, 48, 64
3, 95400, Note_on_c, 1, 48, 105
3, 95484, Note_off_c, 1, 48, 64
3, 95520, Note_on_c, 1, 45, 105
3, 95604, Note_off_c, 1, 45, 64
3, 95640, Note_on_c, 1, 45, 105
3, 95724, Note_off_c, 1, 45, 64
3, 95760, Note_on_c, 1, 45, 105
3, 95844, Note_off_c, 1, 45, 64
3, 95880, Note_on_c, 1, 45, 105
3, 95964, Note_off_c, 1, 45, 64
3, 96000, Note_on_c, 1, 42, 105
3, 96144, Note_off_c, 1, 42, 64
3, 96240, Note_on_c, 1, 54, 105
3, 96384, Note_off_c, 1, 54, 64
3, 99600, Note_on_c, 1, 51, 72
3, 99840, Note_off_c, 1, 51, 64
3, 99840, Note_on_c, 1, 50, 72
3, 100008, Note_off_c, 1, 50, 64
3, 100080, Note_on_c, 1, 60, 72
3, 100560, Note_off_c, 1, 60, 64
3, 100560, Note_on_c, 1, 59, 72
3, 101016, Note_off_c, 1, 59, 64
3, 101040, Note_on_c, 1, 57, 72
3, 101520, Note_off_c, 1, 57, 64
3, 101520, Note_on_c, 1, 54, 72
3, 101736, Note_off_c, 1, 54, 64
3, 101760, Note_on_c, 1, 43, 105
3, 101760, Note_on_c, 1, 55, 105
3, 102048, Note_off_c, 1, 55, 64
3, 102048, Note_off_c, 1, 43, 64
3, 102120, Note_on_c, 1, 50, 105
3, 102204, Note_off_c, 1, 50, 64
3, 102240, Note_on_c, 1, 55, 105
3, 102324, Note_off_c, 1, 55, 64
3, 102360, Note_on_c, 1, 57, 105
3, 102360, Note_on_c, 1, 54, 105
3, 102444, Note_off_c, 1, 54, 64
3, 102444, Note_off_c, 1, 57, 64
3, 102480, Note_on_c, 1, 59, 105
3, 102480, Note_on_c, 1, 55, 105
3, 102564, Note_off_c, 1, 55, 64
3, 102564, Note_off_c, 1, 59, 64
3, 102600, Note_on_c, 1, 57, 105
3, 102600, Note_on_c, 1, 60, 105
3, 102684, Note_off_c, 1, 60, 64
3, 102684, Note_off_c, 1, 57, 64
3, 102720, Note_on_c, 1, 62, 105
3, 102720, Note_on_c, 1, 59, 105
3, 103008, Note_off_c, 1, 59, 64
3, 103008, Note_off_c, 1, 62, 64
3, 103080, Note_on_c, 1, 58, 105
3, 103080, Note_on_c, 1, 61, 105
3, 103164, Note_off_c, 1, 61, 64
3, 103164, Note_off_c, 1, 58, 64
3, 103200, Note_on_c, 1, 62, 105
3, 103200, Note_on_c, 1, 59, 105
3, 103284, Note_off_c, 1, 59, 64
3, 103284, Note_off_c, 1, 62, 64
3, 103320, Note_on_c, 1, 58, 105
3, 103320, Note_on_c, 1, 61, 105
3, 103404, Note_off_c, 1, 61, 64
3, 103404, Note_off_c, 1, 58, 64
3, 103440, Note_on_c, 1, 59, 105
3, 103440, Note_on_c, 1, 62, 105
3, 103524, Note_off_c, 1, 62, 64
3, 103524, Note_off_c, 1, 59, 64
3, 103560, Note_on_c, 1, 58, 105
3, 103560, Note_on_c, 1, 61, 105
3, 103644, Note_off_c, 1, 61, 64
3, 103644, Note_off_c, 1, 58, 64
3, 103680, Note_on_c, 1, 62, 105
3, 103680, Note_on_c, 1, 59, 105
3, 103848, Note_off_c, 1, 59, 64
3, 103848, Note_off_c, 1, 62, 64
3, 103920, Note_on_c, 1, 55, 105
3, 103920, Note_on_c, 1, 59, 105
3, 104088, Note_off_c, 1, 59, 64
3, 104088, Note_off_c, 1, 55, 64
3, 104160, Note_on_c, 1, 60, 105
3, 104160, Note_on_c, 1, 57, 105
3, 104328, Note_off_c, 1, 57, 64
3, 104328, Note_off_c, 1, 60, 64
3, 104400, Note_on_c, 1, 57, 105
3, 104400, Note_on_c, 1, 54, 105
3, 104568, Note_off_c, 1, 54, 64
3, 104568, Note_off_c, 1, 57, 64
3, 104640, Note_on_c, 1, 43, 105
3, 104640, Note_on_c, 1, 55, 105
3, 104928, Note_off_c, 1, 55, 64
3, 104928, Note_off_c, 1, 43, 64
3, 105000, Note_on_c, 1, 50, 105
3, 105084, Note_off_c, 1, 50, 64
3, 105120, Note_on_c, 1, 55, 105
3, 105204, Note_off_c, 1, 55, 64
3, 105240, Note_on_c, 1, 57, 105
3, 105240, Note_on_c, 1, 54, 105
3, 105324, Note_off_c, 1, 54, 64
3, 105324, Note_off_c, 1, 57, 64
3, 105360, Note_on_c, 1, 55, 105
3, 105360, Note_on_c, 1, 59, 105
3, 105444, Note_off_c, 1, 59, 64
3, 105444, Note_off_c, 1, 55, 64
3, 105480, Note_on_c, 1, 57, 105
3, 105480, Note_on_c, 1, 60, 105
3, 105564, Note_off_c, 1, 60, 64
3, 105564, Note_off_c, 1, 57, 64
3, 105600, Note_on_c, 1, 62, 105
3, 105600, Note_on_c, 1, 59, 105
3, 105684, Note_off_c, 1, 59, 64
3, 105684, Note_off_c, 1, 62, 64
3, 105720, Note_on_c, 1, 59, 105
3, 105720, Note_on_c, 1, 62, 105
3, 105912, Note_off_c, 1, 62, 64
3, 105912, Note_off_c, 1, 59, 64
3, 105960, Note_on_c, 1, 61, 105
3, 105960, Note_on_c, 1, 58, 105
3, 106044, Note_off_c, 1, 58, 64
3, 106044, Note_off_c, 1, 61, 64
3, 106080, Note_on_c, 1, 59, 105
3, 106080, Note_on_c, 1, 62, 105
3, 106164, Note_off_c, 1, 62, 64
3, 106164, Note_off_c, 1, 59, 64
3, 106200, Note_on_c, 1, 61, 105
3, 106200, Note_on_c, 1, 58, 105
3, 106284, Note_off_c, 1, 58, 64
3, 106284, Note_off_c, 1, 61, 64
3, 106320, Note_on_c, 1, 62, 105
3, 106320, Note_on_c, 1, 59, 105
3, 106404, Note_off_c, 1, 59, 64
3, 106404, Note_off_c, 1, 62, 64
3, 106440, Note_on_c, 1, 58, 105
3, 106440, Note_on_c, 1, 61, 105
3, 106524, Note_off_c, 1, 61, 64
3, 106524, Note_off_c, 1, 58, 64
3, 106560, Note_on_c, 1, 59, 105
3, 106560, Note_on_c, 1, 62, 105
3, 106728, Note_off_c, 1, 62, 64
3, 106728, Note_off_c, 1, 59, 64
3, 106800, Note_on_c, 1, 55, 105
3, 106800, Note_on_c, 1, 59, 105
3, 106968, Note_off_c, 1, 59, 64
3, 106968, Note_off_c, 1, 55, 64
3, 107040, Note_on_c, 1, 57, 105
3, 107040, Note_on_c, 1, 60, 105
3, 107208, Note_off_c, 1, 60, 64
3, 107208, Note_off_c, 1, 57, 64
3, 107280, Note_on_c, 1, 57, 105
3, 107280, Note_on_c, 1, 54, 105
3, 107448, Note_off_c, 1, 54, 64
3, 107448, Note_off_c, 1, 57, 64
3, 107520, Note_on_c, 1, 62, 72
3, 107520, Note_on_c, 1, 59, 72
3, 107598, Note_off_c, 1, 59, 64
3, 107598, Note_off_c, 1, 62, 64
3, 107640, Note_on_c, 1, 62, 72
3, 107640, Note_on_c, 1, 59, 72
3, 107718, Note_off_c, 1, 59, 64
3, 107718, Note_off_c, 1, 62, 64
3, 107760, Note_on_c, 1, 55, 72
3, 107760, Note_on_c, 1, 59, 72
3, 107838, Note_off_c, 1, 59, 64
3, 107838, Note_off_c, 1, 55, 64
3, 107880, Note_on_c, 1, 59, 72
3, 107880, Note_on_c, 1, 55, 72
3, 107958, Note_off_c, 1, 55, 64
3, 107958, Note_off_c, 1, 59, 64
3, 108000, Note_on_c, 1, 60, 72
3, 108000, Note_on_c, 1, 57, 72
3, 108078, Note_off_c, 1, 57, 64
3, 108078, Note_off_c, 1, 60, 64
3, 108120, Note_on_c, 1, 57, 72
3, 108120, Note_on_c, 1, 60, 72
3, 108198, Note_off_c, 1, 60, 64
3, 108198, Note_off_c, 1, 57, 64
3, 108240, Note_on_c, 1, 54, 72
3, 108240, Note_on_c, 1, 57, 72
3, 108318, Note_off_c, 1, 57, 64
3, 108318, Note_off_c, 1, 54, 64
3, 108360, Note_on_c, 1, 54, 72
3, 108360, Note_on_c, 1, 57, 72
3, 108438, Note_off_c, 1, 57, 64
3, 108438, Note_off_c, 1, 54, 64
3, 108480, Note_on_c, 1, 62, 105
3, 108480, Note_on_c, 1, 59, 105
3, 108564, Note_off_c, 1, 59, 64
3, 108564, Note_off_c, 1, 62, 64
3, 108600, Note_on_c, 1, 59, 105
3, 108600, Note_on_c, 1, 62, 105
3, 108684, Note_off_c, 1, 62, 64
3, 108684, Note_off_c, 1, 59, 64
3, 108720, Note_on_c, 1, 59, 105
3, 108720, Note_on_c, 1, 55, 105
3, 108804, Note_off_c, 1, 55, 64
3, 108804, Note_off_c, 1, 59, 64
3, 108840, Note_on_c, 1, 59, 105
3, 108840, Note_on_c, 1, 55, 105
3, 108924, Note_off_c, 1, 55, 64
3, 108924, Note_off_c, 1, 59, 64
3, 108960, Note_on_c, 1, 60, 105
3, 108960, Note_on_c, 1, 57, 105
3, 109044, Note_off_c, 1, 57, 64
3, 109044, Note_off_c, 1, 60, 64
3, 109080, Note_on_c, 1, 60, 105
3, 109080, Note_on_c, 1, 57, 105
3, 109164, Note_off_c, 1, 57, 64
3, 109164, Note_off_c, 1, 60, 64
3, 109200, Note_on_c, 1, 57, 105
3, 109200, Note_on_c, 1, 54, 105
3, 109284, Note_off_c, 1, 54, 64
3, 109284, Note_off_c, 1, 57, 64
3, 109320, Note_on_c, 1, 54, 105
3, 109320, Note_on_c, 1, 57, 105
3, 109404, Note_off_c, 1, 57, 64
3, 109404, Note_off_c, 1, 54, 64
3, 109440, Note_on_c, 1, 55, 105
3, 109632, Note_off_c, 1, 55, 64
3, 122880, Note_on_c, 1, 48, 105
3, 122976, Note_off_c, 1, 48, 64
3, 123000, Note_on_c, 1, 48, 105
3, 123096, Note_off_c, 1, 48, 64
3, 123120, Note_on_c, 1, 48, 105
3, 123216, Note_off_c, 1, 48, 64
3, 123240, Note_on_c, 1, 48, 105
3, 123336, Note_off_c, 1, 48, 64
3, 123360, Note_on_c, 1, 48, 105
3, 123456, Note_off_c, 1, 48, 64
3, 123480, Note_on_c, 1, 48, 105
3, 123576, Note_off_c, 1, 48, 64
3, 123600, Note_on_c, 1, 48, 105
3, 123696, Note_off_c, 1, 48, 64
3, 123720, Note_on_c, 1, 48, 105
3, 123816, Note_off_c, 1, 48, 64
3, 123840, Note_on_c, 1, 48, 105
3, 123936, Note_off_c, 1, 48, 64
3, 123960, Note_on_c, 1, 48, 105
3, 124056, Note_off_c, 1, 48, 64
3, 124080, Note_on_c, 1, 48, 105
3, 124176, Note_off_c, 1, 48, 64
3, 124200, Note_on_c, 1, 48, 105
3, 124296, Note_off_c, 1, 48, 64
3, 124320, Note_on_c, 1, 48, 105
3, 124416, Note_off_c, 1, 48, 64
3, 124440, Note_on_c, 1, 48, 105
3, 124536, Note_off_c, 1, 48, 64
3, 124560, Note_on_c, 1, 48, 105
3, 124656, Note_off_c, 1, 48, 64
3, 124680, Note_on_c, 1, 48, 105
3, 124776, Note_off_c, 1, 48, 64
3, 124800, Note_on_c, 1, 48, 105
3, 125184, Note_off_c, 1, 48, 64
3, 125520, Note_on_c, 1, 48, 105
3, 125688, Note_off_c, 1, 48, 64
3, 125760, Note_on_c, 1, 53, 105
3, 125928, Note_off_c, 1, 53, 64
3, 126000, Note_on_c, 1, 48, 105
3, 126168, Note_off_c, 1, 48, 64
3, 126480, Note_on_c, 1, 48, 105
3, 126648, Note_off_c, 1, 48, 64
3, 126720, Note_on_c, 1, 53, 105
3, 126888, Note_off_c, 1, 53, 64
3, 126960, Note_on_c, 1, 48, 105
3, 127128, Note_off_c, 1, 48, 64
3, 127440, Note_on_c, 1, 48, 105
3, 127608, Note_off_c, 1, 48, 64
3, 127680, Note_on_c, 1, 53, 105
3, 127848, Note_off_c, 1, 53, 64
3, 127920, Note_on_c, 1, 48, 105
3, 128088, Note_off_c, 1, 48, 64
3, 128160, Note_on_c, 1, 53, 105
3, 128328, Note_off_c, 1, 53, 64
3, 128400, Note_on_c, 1, 48, 105
3, 128568, Note_off_c, 1, 48, 64
3, 128640, Note_on_c, 1, 53, 105
3, 128808, Note_off_c, 1, 53, 64
3, 128880, Note_on_c, 1, 48, 105
3, 129048, Note_off_c, 1, 48, 64
3, 129600, Note_on_c, 1, 57, 58
3, 130560, Note_off_c, 1, 57, 64
3, 130560, Note_on_c, 1, 55, 58
3, 131040, Note_off_c, 1, 55, 64
3, 131040, Note_on_c, 1, 48, 58
3, 131520, Note_off_c, 1, 48, 64
3, 131520, Note_on_c, 1, 53, 58
3, 131712, Note_off_c, 1, 53, 64
3, 133440, Note_on_c, 1, 55, 72
3, 133632, Note_off_c, 1, 55, 64
3, 133680, Note_on_c, 1, 55, 72
3, 133872, Note_off_c, 1, 55, 64
3, 133920, Note_on_c, 1, 55, 72
3, 134112, Note_off_c, 1, 55, 64
3, 134160, Note_on_c, 1, 55, 72
3, 134352, Note_off_c, 1, 55, 64
3, 134400, Note_on_c, 1, 48, 105
3, 134484, Note_off_c, 1, 48, 64
3, 134520, Note_on_c, 1, 52, 105
3, 134604, Note_off_c, 1, 52, 64
3, 134640, Note_on_c, 1, 55, 105
3, 134724, Note_off_c, 1, 55, 64
3, 134760, Note_on_c, 1, 60, 105
3, 134844, Note_off_c, 1, 60, 64
3, 134880, Note_on_c, 1, 64, 105
3, 134964, Note_off_c, 1, 64, 64
3, 135000, Note_on_c, 1, 62, 105
3, 135084, Note_off_c, 1, 62, 64
3, 135120, Note_on_c, 1, 64, 105
3, 135204, Note_off_c, 1, 64, 64
3, 135240, Note_on_c, 1, 60, 105
3, 135324, Note_off_c, 1, 60, 64
3, 135360, Note_on_c, 1, 59, 105
3, 135444, Note_off_c, 1, 59, 64
3, 135480, Note_on_c, 1, 60, 105
3, 135564, Note_off_c, 1, 60, 64
3, 135600, Note_on_c, 1, 62, 105
3, 135684, Note_off_c, 1, 62, 64
3, 135720, Note_on_c, 1, 60, 105
3, 135804, Note_off_c, 1, 60, 64
3, 135840, Note_on_c, 1, 59, 105
3, 135924, Note_off_c, 1, 59, 64
3, 135960, Note_on_c, 1, 57, 105
3, 136044, Note_off_c, 1, 57, 64
3, 136080, Note_on_c, 1, 55, 105
3, 136164, Note_off_c, 1, 55, 64
3, 136200, Note_on_c, 1, 53, 105
3, 136284, Note_off_c, 1, 53, 64
3, 136320, Note_on_c, 1, 52, 105
3, 136404, Note_off_c, 1, 52, 64
3, 136440, Note_on_c, 1, 53, 105
3, 136524, Note_off_c, 1, 53, 64
3, 136560, Note_on_c, 1, 55, 105
3, 136644, Note_off_c, 1, 55, 64
3, 136680, Note_on_c, 1, 52, 105
3, 136764, Note_off_c, 1, 52, 64
3, 136800, Note_on_c, 1, 57, 105
3, 136884, Note_off_c, 1, 57, 64
3, 136920, Note_on_c, 1, 59, 105
3, 137004, Note_off_c, 1, 59, 64
3, 137040, Note_on_c, 1, 60, 105
3, 137124, Note_off_c, 1, 60, 64
3, 137160, Note_on_c, 1, 57, 105
3, 137244, Note_off_c, 1, 57, 64
3, 137280, Note_on_c, 1, 53, 105
3, 137364, Note_off_c, 1, 53, 64
3, 137400, Note_on_c, 1, 50, 105
3, 137484, Note_off_c, 1, 50, 64
3, 137520, Note_on_c, 1, 52, 105
3, 137604, Note_off_c, 1, 52, 64
3, 137640, Note_on_c, 1, 53, 105
3, 137724, Note_off_c, 1, 53, 64
3, 137760, Note_on_c, 1, 55, 105
3, 137844, Note_off_c, 1, 55, 64
3, 137880, Note_on_c, 1, 53, 105
3, 137964, Note_off_c, 1, 53, 64
3, 138000, Note_on_c, 1, 55, 105
3, 138084, Note_off_c, 1, 55, 64
3, 138120, Note_on_c, 1, 43, 105
3, 138204, Note_off_c, 1, 43, 64
3, 138240, Note_on_c, 1, 48, 105
3, 138324, Note_off_c, 1, 48, 64
3, 138360, Note_on_c, 1, 52, 105
3, 138444, Note_off_c, 1, 52, 64
3, 138480, Note_on_c, 1, 55, 105
3, 138564, Note_off_c, 1, 55, 64
3, 138600, Note_on_c, 1, 60, 105
3, 138684, Note_off_c, 1, 60, 64
3, 138720, Note_on_c, 1, 64, 105
3, 138804, Note_off_c, 1, 64, 64
3, 138840, Note_on_c, 1, 62, 105
3, 138924, Note_off_c, 1, 62, 64
3, 138960, Note_on_c, 1, 64, 105
3, 139044, Note_off_c, 1, 64, 64
3, 139080, Note_on_c, 1, 60, 105
3, 139164, Note_off_c, 1, 60, 64
3, 139200, Note_on_c, 1, 59, 105
3, 139284, Note_off_c, 1, 59, 64
3, 139320, Note_on_c, 1, 60, 105
3, 139404, Note_off_c, 1, 60, 64
3, 139440, Note_on_c, 1, 62, 105
3, 139524, Note_off_c, 1, 62, 64
3, 139560, Note_on_c, 1, 60, 105
3, 139644, Note_off_c, 1, 60, 64
3, 139680, Note_on_c, 1, 59, 105
3, 139764, Note_off_c, 1, 59, 64
3, 139800, Note_on_c, 1, 57, 105
3, 139884, Note_off_c, 1, 57, 64
3, 139920, Note_on_c, 1, 55, 105
3, 140004, Note_off_c, 1, 55, 64
3, 140040, Note_on_c, 1, 53, 105
3, 140124, Note_off_c, 1, 53, 64
3, 140160, Note_on_c, 1, 52, 105
3, 140244, Note_off_c, 1, 52, 64
3, 140280, Note_on_c, 1, 53, 105
3, 140364, Note_off_c, 1, 53, 64
3, 140400, Note_on_c, 1, 55, 105
3, 140484, Note_off_c, 1, 55, 64
3, 140520, Note_on_c, 1, 52, 105
3, 140604, Note_off_c, 1, 52, 64
3, 140640, Note_on_c, 1, 57, 105
3, 140724, Note_off_c, 1, 57, 64
3, 140760, Note_on_c, 1, 59, 105
3, 140844, Note_off_c, 1, 59, 64
3, 140880, Note_on_c, 1, 60, 105
3, 140964, Note_off_c, 1, 60, 64
3, 141000, Note_on_c, 1, 57, 105
3, 141084, Note_off_c, 1, 57, 64
3, 141120, Note_on_c, 1, 54, 105
3, 141204, Note_off_c, 1, 54, 64
3, 141240, Note_on_c, 1, 55, 105
3, 141324, Note_off_c, 1, 55, 64
3, 141360, Note_on_c, 1, 57, 105
3, 141444, Note_off_c, 1, 57, 64
3, 141480, Note_on_c, 1, 55, 105
3, 141564, Note_off_c, 1, 55, 64
3, 141600, Note_on_c, 1, 54, 105
3, 141684, Note_off_c, 1, 54, 64
3, 141720, Note_on_c, 1, 50, 105
3, 141804, Note_off_c, 1, 50, 64
3, 141840, Note_on_c, 1, 52, 105
3, 141924, Note_off_c, 1, 52, 64
3, 141960, Note_on_c, 1, 54, 105
3, 142044, Note_off_c, 1, 54, 64
3, 142080, Note_on_c, 1, 55, 105
3, 142164, Note_off_c, 1, 55, 64
3, 142200, Note_on_c, 1, 57, 105
3, 142284, Note_off_c, 1, 57, 64
3, 142320, Note_on_c, 1, 59, 105
3, 142404, Note_off_c, 1, 59, 64
3, 142440, Note_on_c, 1, 57, 105
3, 142524, Note_off_c, 1, 57, 64
3, 142560, Note_on_c, 1, 56, 105
3, 142644, Note_off_c, 1, 56, 64
3, 142680, Note_on_c, 1, 57, 105
3, 142764, Note_off_c, 1, 57, 64
3, 142800, Note_on_c, 1, 54, 105
3, 142884, Note_off_c, 1, 54, 64
3, 142920, Note_on_c, 1, 56, 105
3, 143004, Note_off_c, 1, 56, 64
3, 143040, Note_on_c, 1, 57, 105
3, 143124, Note_off_c, 1, 57, 64
3, 143160, Note_on_c, 1, 59, 105
3, 143244, Note_off_c, 1, 59, 64
3, 143280, Note_on_c, 1, 60, 105
3, 143364, Note_off_c, 1, 60, 64
3, 143400, Note_on_c, 1, 59, 105
3, 143484, Note_off_c, 1, 59, 64
3, 143520, Note_on_c, 1, 57, 105
3, 143604, Note_off_c, 1, 57, 64
3, 143640, Note_on_c, 1, 59, 105
3, 143724, Note_off_c, 1, 59, 64
3, 143760, Note_on_c, 1, 55, 105
3, 143844, Note_off_c, 1, 55, 64
3, 143880, Note_on_c, 1, 57, 105
3, 143964, Note_off_c, 1, 57, 64
3, 144000, Note_on_c, 1, 54, 105
3, 144084, Note_off_c, 1, 54, 64
3, 144120, Note_on_c, 1, 55, 105
3, 144204, Note_off_c, 1, 55, 64
3, 144240, Note_on_c, 1, 57, 105
3, 144324, Note_off_c, 1, 57, 64
3, 144360, Note_on_c, 1, 55, 105
3, 144444, Note_off_c, 1, 55, 64
3, 144480, Note_on_c, 1, 54, 105
3, 144564, Note_off_c, 1, 54, 64
3, 144600, Note_on_c, 1, 50, 105
3, 144684, Note_off_c, 1, 50, 64
3, 144720, Note_on_c, 1, 52, 105
3, 144804, Note_off_c, 1, 52, 64
3, 144840, Note_on_c, 1, 54, 105
3, 144924, Note_off_c, 1, 54, 64
3, 144960, Note_on_c, 1, 55, 105
3, 145044, Note_off_c, 1, 55, 64
3, 145080, Note_on_c, 1, 59, 105
3, 145164, Note_off_c, 1, 59, 64
3, 145200, Note_on_c, 1, 62, 105
3, 145284, Note_off_c, 1, 62, 64
3, 145320, Note_on_c, 1, 62, 105
3, 145404, Note_off_c, 1, 62, 64
3, 145440, Note_on_c, 1, 62, 105
3, 145524, Note_off_c, 1, 62, 64
3, 145560, Note_on_c, 1, 62, 105
3, 145644, Note_off_c, 1, 62, 64
3, 145680, Note_on_c, 1, 59, 105
3, 145764, Note_off_c, 1, 59, 64
3, 145800, Note_on_c, 1, 55, 105
3, 145884, Note_off_c, 1, 55, 64
3, 145920, Note_on_c, 1, 60, 105
3, 146004, Note_off_c, 1, 60, 64
3, 146040, Note_on_c, 1, 57, 105
3, 146124, Note_off_c, 1, 57, 64
3, 146160, Note_on_c, 1, 59, 105
3, 146244, Note_off_c, 1, 59, 64
3, 146280, Note_on_c, 1, 55, 105
3, 146364, Note_off_c, 1, 55, 64
3, 146400, Note_on_c, 1, 54, 105
3, 146484, Note_off_c, 1, 54, 64
3, 146520, Note_on_c, 1, 57, 105
3, 146604, Note_off_c, 1, 57, 64
3, 146640, Note_on_c, 1, 54, 105
3, 146724, Note_off_c, 1, 54, 64
3, 146760, Note_on_c, 1, 50, 105
3, 146844, Note_off_c, 1, 50, 64
3, 146880, Note_on_c, 1, 55, 105
3, 146964, Note_off_c, 1, 55, 64
3, 147000, Note_on_c, 1, 59, 105
3, 147084, Note_off_c, 1, 59, 64
3, 147120, Note_on_c, 1, 62, 105
3, 147204, Note_off_c, 1, 62, 64
3, 147240, Note_on_c, 1, 62, 105
3, 147324, Note_off_c, 1, 62, 64
3, 147360, Note_on_c, 1, 62, 105
3, 147444, Note_off_c, 1, 62, 64
3, 147480, Note_on_c, 1, 62, 105
3, 147564, Note_off_c, 1, 62, 64
3, 147600, Note_on_c, 1, 59, 105
3, 147684, Note_off_c, 1, 59, 64
3, 147720, Note_on_c, 1, 55, 105
3, 147804, Note_off_c, 1, 55, 64
3, 147840, Note_on_c, 1, 60, 105
3, 147924, Note_off_c, 1, 60, 64
3, 147960, Note_on_c, 1, 57, 105
3, 148044, Note_off_c, 1, 57, 64
3, 148080, Note_on_c, 1, 59, 105
3, 148164, Note_off_c, 1, 59, 64
3, 148200, Note_on_c, 1, 55, 105
3, 148284, Note_off_c, 1, 55, 64
3, 148320, Note_on_c, 1, 54, 105
3, 148404, Note_off_c, 1, 54, 64
3, 148440, Note_on_c, 1, 57, 105
3, 148524, Note_off_c, 1, 57, 64
3, 148560, Note_on_c, 1, 54, 105
3, 148644, Note_off_c, 1, 54, 64
3, 148680, Note_on_c, 1, 50, 105
3, 148764, Note_off_c, 1, 50, 64
3, 148800, Note_on_c, 1, 55, 105
3, 148884, Note_off_c, 1, 55, 64
3, 148920, Note_on_c, 1, 57, 105
3, 149004, Note_off_c, 1, 57, 64
3, 149040, Note_on_c, 1, 54, 105
3, 149124, Note_off_c, 1, 54, 64
3, 149160, Note_on_c, 1, 55, 105
3, 149244, Note_off_c, 1, 55, 64
3, 149280, Note_on_c, 1, 52, 105
3, 149364, Note_off_c, 1, 52, 64
3, 149400, Note_on_c, 1, 53, 105
3, 149484, Note_off_c, 1, 53, 64
3, 149520, Note_on_c, 1, 50, 105
3, 149604, Note_off_c, 1, 50, 64
3, 149640, Note_on_c, 1, 52, 105
3, 149724, Note_off_c, 1, 52, 64
3, 149760, Note_on_c, 1, 48, 105
3, 149952, Note_off_c, 1, 48, 64
3, 150240, Note_on_c, 1, 59, 105
3, 150240, Note_on_c, 1, 62, 105
3, 150720, Note_off_c, 1, 62, 64
3, 150720, Note_off_c, 1, 59, 64
3, 150720, Note_on_c, 1, 60, 92
3, 150720, Note_on_c, 1, 57, 92
3, 150912, Note_off_c, 1, 57, 64
3, 150912, Note_off_c, 1, 60, 64
3, 151200, Note_on_c, 1, 59, 92
3, 151200, Note_on_c, 1, 62, 92
3, 151680, Note_off_c, 1, 62, 64
3, 151680, Note_off_c, 1, 59, 64
3, 151680, Note_on_c, 1, 60, 105
3, 151752, Note_off_c, 1, 60, 64
3, 151800, Note_on_c, 1, 59, 105
3, 151872, Note_off_c, 1, 59, 64
3, 151920, Note_on_c, 1, 60, 105
3, 151992, Note_off_c, 1, 60, 64
3, 152040, Note_on_c, 1, 59, 105
3, 152112, Note_off_c, 1, 59, 64
3, 152160, Note_on_c, 1, 60, 105
3, 152232, Note_off_c, 1, 60, 64
3, 152280, Note_on_c, 1, 59, 105
3, 152352, Note_off_c, 1, 59, 64
3, 152400, Note_on_c, 1, 60, 105
3, 152472, Note_off_c, 1, 60, 64
3, 152520, Note_on_c, 1, 56, 105
3, 152592, Note_off_c, 1, 56, 64
3, 152640, Note_on_c, 1, 57, 105
3, 152712, Note_off_c, 1, 57, 64
3, 152760, Note_on_c, 1, 56, 105
3, 152832, Note_off_c, 1, 56, 64
3, 152880, Note_on_c, 1, 57, 105
3, 152952, Note_off_c, 1, 57, 64
3, 153000, Note_on_c, 1, 56, 105
3, 153072, Note_off_c, 1, 56, 64
3, 153120, Note_on_c, 1, 57, 105
3, 153192, Note_off_c, 1, 57, 64
3, 153240, Note_on_c, 1, 56, 105
3, 153312, Note_off_c, 1, 56, 64
3, 153360, Note_on_c, 1, 57, 105
3, 153432, Note_off_c, 1, 57, 64
3, 153480, Note_on_c, 1, 59, 105
3, 153552, Note_off_c, 1, 59, 64
3, 153600, Note_on_c, 1, 60, 105
3, 153792, Note_off_c, 1, 60, 64
3, 155520, Note_on_c, 1, 49, 72
3, 156480, Note_off_c, 1, 49, 64
3, 156480, Note_on_c, 1, 52, 72
3, 157248, Note_off_c, 1, 52, 64
3, 157440, Note_on_c, 1, 50, 72
3, 157632, Note_off_c, 1, 50, 64
3, 157680, Note_on_c, 1, 66, 72
3, 158160, Note_off_c, 1, 66, 64
3, 158160, Note_on_c, 1, 67, 72
3, 158352, Note_off_c, 1, 67, 64
3, 158640, Note_on_c, 1, 66, 72
3, 159120, Note_off_c, 1, 66, 64
3, 159120, Note_on_c, 1, 67, 72
3, 159312, Note_off_c, 1, 67, 64
3, 160080, Note_on_c, 1, 62, 72
3, 160224, Note_off_c, 1, 62, 64
3, 160320, Note_on_c, 1, 64, 72
3, 160680, Note_off_c, 1, 64, 64
3, 160680, Note_on_c, 1, 66, 72
3, 160740, Note_off_c, 1, 66, 64
3, 160740, Note_on_c, 1, 67, 72
3, 160800, Note_off_c, 1, 67, 64
3, 160800, Note_on_c, 1, 62, 72
3, 160944, Note_off_c, 1, 62, 64
3, 161040, Note_on_c, 1, 59, 72
3, 161184, Note_off_c, 1, 59, 64
3, 161280, Note_on_c, 1, 57, 72
3, 161424, Note_off_c, 1, 57, 64
3, 161520, Note_on_c, 1, 60, 72
3, 162000, Note_off_c, 1, 60, 64
3, 162000, Note_on_c, 1, 57, 72
3, 162120, Note_off_c, 1, 57, 64
3, 162120, Note_on_c, 1, 54, 72
3, 162216, Note_off_c, 1, 54, 64
3, 162240, Note_on_c, 1, 55, 58
3, 162432, Note_off_c, 1, 55, 64
3, 162720, Note_on_c, 1, 52, 105
3, 162864, Note_off_c, 1, 52, 64
3, 162960, Note_on_c, 1, 52, 105
3, 163104, Note_off_c, 1, 52, 64
3, 163200, Note_on_c, 1, 52, 105
3, 163284, Note_off_c, 1, 52, 64
3, 163320, Note_on_c, 1, 54, 105
3, 163404, Note_off_c, 1, 54, 64
3, 163440, Note_on_c, 1, 55, 105
3, 163524, Note_off_c, 1, 55, 64
3, 163560, Note_on_c, 1, 52, 105
3, 163644, Note_off_c, 1, 52, 64
3, 163680, Note_on_c, 1, 51, 105
3, 163764, Note_off_c, 1, 51, 64
3, 163800, Note_on_c, 1, 47, 105
3, 163884, Note_off_c, 1, 47, 64
3, 163920, Note_on_c, 1, 49, 105
3, 164004, Note_off_c, 1, 49, 64
3, 164040, Note_on_c, 1, 51, 105
3, 164124, Note_off_c, 1, 51, 64
3, 164160, Note_on_c, 1, 52, 105
3, 164244, Note_off_c, 1, 52, 64
3, 164280, Note_on_c, 1, 54, 105
3, 164364, Note_off_c, 1, 54, 64
3, 164400, Note_on_c, 1, 55, 105
3, 164484, Note_off_c, 1, 55, 64
3, 164520, Note_on_c, 1, 52, 105
3, 164604, Note_off_c, 1, 52, 64
3, 164640, Note_on_c, 1, 51, 105
3, 164724, Note_off_c, 1, 51, 64
3, 164760, Note_on_c, 1, 47, 105
3, 164844, Note_off_c, 1, 47, 64
3, 164880, Note_on_c, 1, 49, 105
3, 164964, Note_off_c, 1, 49, 64
3, 165000, Note_on_c, 1, 51, 105
3, 165084, Note_off_c, 1, 51, 64
3, 165120, Note_on_c, 1, 52, 105
3, 165204, Note_off_c, 1, 52, 64
3, 165240, Note_on_c, 1, 54, 105
3, 165324, Note_off_c, 1, 54, 64
3, 165360, Note_on_c, 1, 55, 105
3, 165444, Note_off_c, 1, 55, 64
3, 165480, Note_on_c, 1, 52, 105
3, 165564, Note_off_c, 1, 52, 64
3, 165600, Note_on_c, 1, 51, 105
3, 165684, Note_off_c, 1, 51, 64
3, 165720, Note_on_c, 1, 47, 105
3, 165804, Note_off_c, 1, 47, 64
3, 165840, Note_on_c, 1, 49, 105
3, 165924, Note_off_c, 1, 49, 64
3, 165960, Note_on_c, 1, 51, 105
3, 166044, Note_off_c, 1, 51, 64
3, 166080, Note_on_c, 1, 52, 105
3, 166272, Note_off_c, 1, 52, 64
3, 166560, Note_on_c, 1, 48, 72
3, 166560, Note_on_c, 1, 36, 72
3, 166740, Note_off_c, 1, 36, 64
3, 166740, Note_off_c, 1, 48, 64
3, 166800, Note_on_c, 1, 48, 72
3, 166800, Note_on_c, 1, 36, 72
3, 166980, Note_off_c, 1, 36, 64
3, 166980, Note_off_c, 1, 48, 64
3, 167040, Note_on_c, 1, 36, 72
3, 167040, Note_on_c, 1, 48, 72
3, 167496, Note_off_c, 1, 48, 64
3, 167496, Note_off_c, 1, 36, 64
3, 167520, Note_on_c, 1, 43, 72
3, 167520, Note_on_c, 1, 55, 72
3, 167976, Note_off_c, 1, 55, 64
3, 167976, Note_off_c, 1, 43, 64
3, 168000, Note_on_c, 1, 48, 58
3, 168000, Note_on_c, 1, 60, 58
3, 168192, Note_off_c, 1, 60, 64
3, 168192, Note_off_c, 1, 48, 64
3, 170400, Note_on_c, 1, 52, 58
3, 170580, Note_off_c, 1, 52, 64
3, 170640, Note_on_c, 1, 52, 72
3, 170820, Note_off_c, 1, 52, 64
3, 170880, Note_on_c, 1, 52, 72
3, 171360, Note_off_c, 1, 52, 64
3, 171360, Note_on_c, 1, 59, 72
3, 171744, Note_off_c, 1, 59, 64
3, 171840, Note_on_c, 1, 57, 72
3, 171960, Note_off_c, 1, 57, 64
3, 171960, Note_on_c, 1, 55, 72
3, 172080, Note_off_c, 1, 55, 64
3, 172080, Note_on_c, 1, 54, 72
3, 172200, Note_off_c, 1, 54, 64
3, 172200, Note_on_c, 1, 52, 72
3, 172296, Note_off_c, 1, 52, 64
3, 172320, Note_on_c, 1, 59, 72
3, 172500, Note_off_c, 1, 59, 64
3, 172560, Note_on_c, 1, 59, 72
3, 172740, Note_off_c, 1, 59, 64
3, 172800, Note_on_c, 1, 57, 72
3, 172920, Note_off_c, 1, 57, 64
3, 172920, Note_on_c, 1, 55, 72
3, 173040, Note_off_c, 1, 55, 64
3, 173040, Note_on_c, 1, 54, 72
3, 173160, Note_off_c, 1, 54, 64
3, 173160, Note_on_c, 1, 52, 72
3, 173256, Note_off_c, 1, 52, 64
3, 173280, Note_on_c, 1, 58, 72
3, 173400, Note_off_c, 1, 58, 64
3, 173400, Note_on_c, 1, 59, 72
3, 173520, Note_off_c, 1, 59, 64
3, 173520, Note_on_c, 1, 58, 72
3, 173640, Note_off_c, 1, 58, 64
3, 173640, Note_on_c, 1, 59, 72
3, 173736, Note_off_c, 1, 59, 64
3, 173760, Note_on_c, 1, 57, 72
3, 173880, Note_off_c, 1, 57, 64
3, 173880, Note_on_c, 1, 55, 72
3, 174000, Note_off_c, 1, 55, 64
3, 174000, Note_on_c, 1, 54, 72
3, 174120, Note_off_c, 1, 54, 64
3, 174120, Note_on_c, 1, 52, 72
3, 174216, Note_off_c, 1, 52, 64
3, 174240, Note_on_c, 1, 48, 105
3, 174384, Note_off_c, 1, 48, 64
3, 174480, Note_on_c, 1, 48, 105
3, 174624, Note_off_c, 1, 48, 64
3, 174720, Note_on_c, 1, 48, 105
3, 174804, Note_off_c, 1, 48, 64
3, 174840, Note_on_c, 1, 52, 105
3, 174924, Note_off_c, 1, 52, 64
3, 174960, Note_on_c, 1, 55, 105
3, 175044, Note_off_c, 1, 55, 64
3, 175080, Note_on_c, 1, 60, 105
3, 175164, Note_off_c, 1, 60, 64
3, 175200, Note_on_c, 1, 59, 105
3, 175284, Note_off_c, 1, 59, 64
3, 175320, Note_on_c, 1, 55, 105
3, 175404, Note_off_c, 1, 55, 64
3, 175440, Note_on_c, 1, 57, 105
3, 175524, Note_off_c, 1, 57, 64
3, 175560, Note_on_c, 1, 59, 105
3, 175644, Note_off_c, 1, 59, 64
3, 175680, Note_on_c, 1, 60, 105
3, 175764, Note_off_c, 1, 60, 64
3, 175800, Note_on_c, 1, 60, 105
3, 175884, Note_off_c, 1, 60, 64
3, 175920, Note_on_c, 1, 60, 105
3, 176004, Note_off_c, 1, 60, 64
3, 176040, Note_on_c, 1, 60, 105
3, 176124, Note_off_c, 1, 60, 64
3, 176160, Note_on_c, 1, 60, 105
3, 176244, Note_off_c, 1, 60, 64
3, 176280, Note_on_c, 1, 60, 105
3, 176364, Note_off_c, 1, 60, 64
3, 176400, Note_on_c, 1, 60, 105
3, 176484, Note_off_c, 1, 60, 64
3, 176520, Note_on_c, 1, 60, 105
3, 176604, Note_off_c, 1, 60, 64
3, 176640, Note_on_c, 1, 62, 105
3, 176724, Note_off_c, 1, 62, 64
3, 176760, Note_on_c, 1, 62, 105
3, 176844, Note_off_c, 1, 62, 64
3, 176880, Note_on_c, 1, 62, 105
3, 176964, Note_off_c, 1, 62, 64
3, 177000, Note_on_c, 1, 62, 105
3, 177084, Note_off_c, 1, 62, 64
3, 177120, Note_on_c, 1, 50, 105
3, 177204, Note_off_c, 1, 50, 64
3, 177240, Note_on_c, 1, 50, 105
3, 177324, Note_off_c, 1, 50, 64
3, 177360, Note_on_c, 1, 50, 105
3, 177444, Note_off_c, 1, 50, 64
3, 177480, Note_on_c, 1, 50, 105
3, 177564, Note_off_c, 1, 50, 64
3, 177600, Note_on_c, 1, 55, 105
3, 177684, Note_off_c, 1, 55, 64
3, 177720, Note_on_c, 1, 43, 105
3, 177804, Note_off_c, 1, 43, 64
3, 177840, Note_on_c, 1, 45, 105
3, 177924, Note_off_c, 1, 45, 64
3, 177960, Note_on_c, 1, 47, 105
3, 178044, Note_off_c, 1, 47, 64
3, 178080, Note_on_c, 1, 48, 105
3, 178164, Note_off_c, 1, 48, 64
3, 178200, Note_on_c, 1, 52, 105
3, 178284, Note_off_c, 1, 52, 64
3, 178320, Note_on_c, 1, 50, 105
3, 178404, Note_off_c, 1, 50, 64
3, 178440, Note_on_c, 1, 54, 105
3, 178524, Note_off_c, 1, 54, 64
3, 178560, Note_on_c, 1, 52, 105
3, 178644, Note_off_c, 1, 52, 64
3, 178680, Note_on_c, 1, 55, 105
3, 178764, Note_off_c, 1, 55, 64
3, 178800, Note_on_c, 1, 54, 105
3, 178884, Note_off_c, 1, 54, 64
3, 178920, Note_on_c, 1, 57, 105
3, 179004, Note_off_c, 1, 57, 64
3, 179040, Note_on_c, 1, 55, 105
3, 179124, Note_off_c, 1, 55, 64
3, 179160, Note_on_c, 1, 59, 105
3, 179244, Note_off_c, 1, 59, 64
3, 179280, Note_on_c, 1, 57, 105
3, 179364, Note_off_c, 1, 57, 64
3, 179400, Note_on_c, 1, 60, 105
3, 179484, Note_off_c, 1, 60, 64
3, 179520, Note_on_c, 1, 59, 105
3, 179604, Note_off_c, 1, 59, 64
3, 179640, Note_on_c, 1, 62, 105
3, 179724, Note_off_c, 1, 62, 64
3, 179760, Note_on_c, 1, 59, 105
3, 179844, Note_off_c, 1, 59, 64
3, 179880, Note_on_c, 1, 55, 105
3, 179964, Note_off_c, 1, 55, 64
3, 180000, Note_on_c, 1, 60, 105
3, 180084, Note_off_c, 1, 60, 64
3, 180120, Note_on_c, 1, 57, 105
3, 180204, Note_off_c, 1, 57, 64
3, 180240, Note_on_c, 1, 54, 105
3, 180324, Note_off_c, 1, 54, 64
3, 180360, Note_on_c, 1, 50, 105
3, 180444, Note_off_c, 1, 50, 64
3, 180480, Note_on_c, 1, 55, 105
3, 180564, Note_off_c, 1, 55, 64
3, 180600, Note_on_c, 1, 55, 105
3, 180684, Note_off_c, 1, 55, 64
3, 180720, Note_on_c, 1, 52, 105
3, 180804, Note_off_c, 1, 52, 64
3, 180840, Note_on_c, 1, 52, 105
3, 180924, Note_off_c, 1, 52, 64
3, 180960, Note_on_c, 1, 48, 105
3, 181044, Note_off_c, 1, 48, 64
3, 181080, Note_on_c, 1, 48, 105
3, 181164, Note_off_c, 1, 48, 64
3, 181200, Note_on_c, 1, 50, 105
3, 181284, Note_off_c, 1, 50, 64
3, 181320, Note_on_c, 1, 50, 105
3, 181404, Note_off_c, 1, 50, 64
3, 181440, Note_on_c, 1, 43, 105
3, 181524, Note_off_c, 1, 43, 64
3, 181560, Note_on_c, 1, 55, 105
3, 181644, Note_off_c, 1, 55, 64
3, 181680, Note_on_c, 1, 57, 105
3, 181764, Note_off_c, 1, 57, 64
3, 181800, Note_on_c, 1, 59, 105
3, 181884, Note_off_c, 1, 59, 64
3, 181920, Note_on_c, 1, 60, 105
3, 182004, Note_off_c, 1, 60, 64
3, 182040, Note_on_c, 1, 57, 105
3, 182124, Note_off_c, 1, 57, 64
3, 182160, Note_on_c, 1, 62, 105
3, 182244, Note_off_c, 1, 62, 64
3, 182280, Note_on_c, 1, 60, 105
3, 182364, Note_off_c, 1, 60, 64
3, 182400, Note_on_c, 1, 59, 105
3, 182484, Note_off_c, 1, 59, 64
3, 182520, Note_on_c, 1, 55, 105
3, 182604, Note_off_c, 1, 55, 64
3, 182640, Note_on_c, 1, 54, 105
3, 182724, Note_off_c, 1, 54, 64
3, 182760, Note_on_c, 1, 50, 105
3, 182844, Note_off_c, 1, 50, 64
3, 182880, Note_on_c, 1, 55, 105
3, 182964, Note_off_c, 1, 55, 64
3, 183000, Note_on_c, 1, 50, 105
3, 183084, Note_off_c, 1, 50, 64
3, 183120, Note_on_c, 1, 57, 105
3, 183204, Note_off_c, 1, 57, 64
3, 183240, Note_on_c, 1, 50, 105
3, 183324, Note_off_c, 1, 50, 64
3, 183360, Note_on_c, 1, 59, 105
3, 183444, Note_off_c, 1, 59, 64
3, 183480, Note_on_c, 1, 57, 105
3, 183564, Note_off_c, 1, 57, 64
3, 183600, Note_on_c, 1, 56, 105
3, 183684, Note_off_c, 1, 56, 64
3, 183720, Note_on_c, 1, 52, 105
3, 183804, Note_off_c, 1, 52, 64
3, 183840, Note_on_c, 1, 57, 105
3, 183924, Note_off_c, 1, 57, 64
3, 183960, Note_on_c, 1, 55, 105
3, 184044, Note_off_c, 1, 55, 64
3, 184080, Note_on_c, 1, 54, 105
3, 184164, Note_off_c, 1, 54, 64
3, 184200, Note_on_c, 1, 50, 105
3, 184284, Note_off_c, 1, 50, 64
3, 184320, Note_on_c, 1, 55, 105
3, 184404, Note_off_c, 1, 55, 64
3, 184440, Note_on_c, 1, 55, 105
3, 184524, Note_off_c, 1, 55, 64
3, 184560, Note_on_c, 1, 59, 105
3, 184644, Note_off_c, 1, 59, 64
3, 184680, Note_on_c, 1, 59, 105
3, 184764, Note_off_c, 1, 59, 64
3, 184800, Note_on_c, 1, 60, 105
3, 184884, Note_off_c, 1, 60, 64
3, 184920, Note_on_c, 1, 60, 105
3, 185004, Note_off_c, 1, 60, 64
3, 185040, Note_on_c, 1, 62, 105
3, 185124, Note_off_c, 1, 62, 64
3, 185160, Note_on_c, 1, 62, 105
3, 185244, Note_off_c, 1, 62, 64
3, 185280, Note_on_c, 1, 55, 105
3, 185364, Note_off_c, 1, 55, 64
3, 185400, Note_on_c, 1, 55, 105
3, 185484, Note_off_c, 1, 55, 64
3, 185520, Note_on_c, 1, 55, 105
3, 185604, Note_off_c, 1, 55, 64
3, 185640, Note_on_c, 1, 55, 105
3, 185724, Note_off_c, 1, 55, 64
3, 185760, Note_on_c, 1, 55, 105
3, 185952, Note_off_c, 1, 55, 64
3, 186240, Note_on_c, 1, 52, 105
3, 186324, Note_off_c, 1, 52, 64
3, 186360, Note_on_c, 1, 52, 105
3, 186444, Note_off_c, 1, 52, 64
3, 186480, Note_on_c, 1, 52, 105
3, 186564, Note_off_c, 1, 52, 64
3, 186600, Note_on_c, 1, 52, 105
3, 186684, Note_off_c, 1, 52, 64
3, 186720, Note_on_c, 1, 52, 105
3, 186912, Note_off_c, 1, 52, 64
3, 187200, Note_on_c, 1, 47, 105
3, 187284, Note_off_c, 1, 47, 64
3, 187320, Note_on_c, 1, 47, 105
3, 187404, Note_off_c, 1, 47, 64
3, 187440, Note_on_c, 1, 47, 105
3, 187524, Note_off_c, 1, 47, 64
3, 187560, Note_on_c, 1, 47, 105
3, 187644, Note_off_c, 1, 47, 64
3, 187680, Note_on_c, 1, 47, 105
3, 187872, Note_off_c, 1, 47, 64
3, 188160, Note_on_c, 1, 48, 105
3, 188244, Note_off_c, 1, 48, 64
3, 188280, Note_on_c, 1, 48, 105
3, 188364, Note_off_c, 1, 48, 64
3, 188400, Note_on_c, 1, 48, 105
3, 188484, Note_off_c, 1, 48, 64
3, 188520, Note_on_c, 1, 48, 105
3, 188604, Note_off_c, 1, 48, 64
3, 188640, Note_on_c, 1, 45, 105
3, 188724, Note_off_c, 1, 45, 64
3, 188760, Note_on_c, 1, 45, 105
3, 188844, Note_off_c, 1, 45, 64
3, 188880, Note_on_c, 1, 45, 105
3, 188964, Note_off_c, 1, 45, 64
3, 189000, Note_on_c, 1, 45, 105
3, 189084, Note_off_c, 1, 45, 64
3, 189120, Note_on_c, 1, 42, 105
3, 189264, Note_off_c, 1, 42, 64
3, 189360, Note_on_c, 1, 54, 105
3, 189504, Note_off_c, 1, 54, 64
3, 189840, Note_on_c, 1, 55, 105
3, 190008, Note_off_c, 1, 55, 64
3, 190080, Note_on_c, 1, 57, 105
3, 190248, Note_off_c, 1, 57, 64
3, 190320, Note_on_c, 1, 59, 105
3, 190446, Note_off_c, 1, 59, 64
3, 190500, Note_on_c, 1, 60, 105
3, 190542, Note_off_c, 1, 60, 64
3, 190560, Note_on_c, 1, 62, 105
3, 190728, Note_off_c, 1, 62, 64
3, 190800, Note_on_c, 1, 50, 105
3, 190968, Note_off_c, 1, 50, 64
3, 191040, Note_on_c, 1, 55, 105
3, 191124, Note_off_c, 1, 55, 64
3, 191160, Note_on_c, 1, 55, 105
3, 191244, Note_off_c, 1, 55, 64
3, 191280, Note_on_c, 1, 55, 105
3, 191364, Note_off_c, 1, 55, 64
3, 191400, Note_on_c, 1, 55, 105
3, 191484, Note_off_c, 1, 55, 64
3, 191520, Note_on_c, 1, 55, 105
3, 191712, Note_off_c, 1, 55, 64
3, 192000, Note_on_c, 1, 52, 105
3, 192084, Note_off_c, 1, 52, 64
3, 192120, Note_on_c, 1, 52, 105
3, 192204, Note_off_c, 1, 52, 64
3, 192240, Note_on_c, 1, 52, 105
3, 192324, Note_off_c, 1, 52, 64
3, 192360, Note_on_c, 1, 52, 105
3, 192444, Note_off_c, 1, 52, 64
3, 192480, Note_on_c, 1, 52, 105
3, 192672, Note_off_c, 1, 52, 64
3, 192960, Note_on_c, 1, 47, 105
3, 193044, Note_off_c, 1, 47, 64
3, 193080, Note_on_c, 1, 47, 105
3, 193164, Note_off_c, 1, 47, 64
3, 193200, Note_on_c, 1, 47, 105
3, 193284, Note_off_c, 1, 47, 64
3, 193320, Note_on_c, 1, 47, 105
3, 193404, Note_off_c, 1, 47, 64
3, 193440, Note_on_c, 1, 47, 105
3, 193632, Note_off_c, 1, 47, 64
3, 193920, Note_on_c, 1, 48, 105
3, 194004, Note_off_c, 1, 48, 64
3, 194040, Note_on_c, 1, 48, 105
3, 194124, Note_off_c, 1, 48, 64
3, 194160, Note_on_c, 1, 48, 105
3, 194244, Note_off_c, 1, 48, 64
3, 194280, Note_on_c, 1, 48, 105
3, 194364, Note_off_c, 1, 48, 64
3, 194400, Note_on_c, 1, 45, 105
3, 194484, Note_off_c, 1, 45, 64
3, 194520, Note_on_c, 1, 45, 105
3, 194604, Note_off_c, 1, 45, 64
3, 194640, Note_on_c, 1, 45, 105
3, 194724, Note_off_c, 1, 45, 64
3, 194760, Note_on_c, 1, 45, 105
3, 194844, Note_off_c, 1, 45, 64
3, 194880, Note_on_c, 1, 42, 105
3, 195024, Note_off_c, 1, 42, 64
3, 195120, Note_on_c, 1, 54, 105
3, 195264, Note_off_c, 1, 54, 64
3, 198480, Note_on_c, 1, 51, 72
3, 198720, Note_off_c, 1, 51, 64
3, 198720, Note_on_c, 1, 50, 72
3, 198888, Note_off_c, 1, 50, 64
3, 198960, Note_on_c, 1, 60, 72
3, 199440, Note_off_c, 1, 60, 64
3, 199440, Note_on_c, 1, 59, 72
3, 199896, Note_off_c, 1, 59, 64
3, 199920, Note_on_c, 1, 57, 72
3, 200400, Note_off_c, 1, 57, 64
3, 200400, Note_on_c, 1, 54, 72
3, 200616, Note_off_c, 1, 54, 64
3, 200640, Note_on_c, 1, 43, 105
3, 200640, Note_on_c, 1, 55, 105
3, 200928, Note_off_c, 1, 55, 64
3, 200928, Note_off_c, 1, 43, 64
3, 201000, Note_on_c, 1, 50, 105
3, 201084, Note_off_c, 1, 50, 64
3, 201120, Note_on_c, 1, 55, 105
3, 201204, Note_off_c, 1, 55, 64
3, 201240, Note_on_c, 1, 57, 105
3, 201240, Note_on_c, 1, 54, 105
3, 201324, Note_off_c, 1, 54, 64
3, 201324, Note_off_c, 1, 57, 64
3, 201360, Note_on_c, 1, 59, 105
3, 201360, Note_on_c, 1, 55, 105
3, 201444, Note_off_c, 1, 55, 64
3, 201444, Note_off_c, 1, 59, 64
3, 201480, Note_on_c, 1, 57, 105
3, 201480, Note_on_c, 1, 60, 105
3, 201564, Note_off_c, 1, 60, 64
3, 201564, Note_off_c, 1, 57, 64
3, 201600, Note_on_c, 1, 62, 105
3, 201600, Note_on_c, 1, 59, 105
3, 201888, Note_off_c, 1, 59, 64
3, 201888, Note_off_c, 1, 62, 64
3, 201960, Note_on_c, 1, 58, 105
3, 201960, Note_on_c, 1, 61, 105
3, 202044, Note_off_c, 1, 61, 64
3, 202044, Note_off_c, 1, 58, 64
3, 202080, Note_on_c, 1, 62, 105
3, 202080, Note_on_c, 1, 59, 105
3, 202164, Note_off_c, 1, 59, 64
3, 202164, Note_off_c, 1, 62, 64
3, 202200, Note_on_c, 1, 58, 105
3, 202200, Note_on_c, 1, 61, 105
3, 202284, Note_off_c, 1, 61, 64
3, 202284, Note_off_c, 1, 58, 64
3, 202320, Note_on_c, 1, 59, 105
3, 202320, Note_on_c, 1, 62, 105
3, 202404, Note_off_c, 1, 62, 64
3, 202404, Note_off_c, 1, 59, 64
3, 202440, Note_on_c, 1, 58, 105
3, 202440, Note_on_c, 1, 61, 105
3, 202524, Note_off_c, 1, 61, 64
3, 202524, Note_off_c, 1, 58, 64
3, 202560, Note_on_c, 1, 62, 105
3, 202560, Note_on_c, 1, 59, 105
3, 202728, Note_off_c, 1, 59, 64
3, 202728, Note_off_c, 1, 62, 64
3, 202800, Note_on_c, 1, 55, 105
3, 202800, Note_on_c, 1, 59, 105
3, 202968, Note_off_c, 1, 59, 64
3, 202968, Note_off_c, 1, 55, 64
3, 203040, Note_on_c, 1, 60, 105
3, 203040, Note_on_c, 1, 57, 105
3, 203208, Note_off_c, 1, 57, 64
3, 203208, Note_off_c, 1, 60, 64
3, 203280, Note_on_c, 1, 57, 105
3, 203280, Note_on_c, 1, 54, 105
3, 203448, Note_off_c, 1, 54, 64
3, 203448, Note_off_c, 1, 57, 64
3, 203520, Note_on_c, 1, 43, 105
3, 203520, Note_on_c, 1, 55, 105
3, 203808, Note_off_c, 1, 55, 64
3, 203808, Note_off_c, 1, 43, 64
3, 203880, Note_on_c, 1, 50, 105
3, 203964, Note_off_c, 1, 50, 64
3, 204000, Note_on_c, 1, 55, 105
3, 204084, Note_off_c, 1, 55, 64
3, 204120, Note_on_c, 1, 57, 105
3, 204120, Note_on_c, 1, 54, 105
3, 204204, Note_off_c, 1, 54, 64
3, 204204, Note_off_c, 1, 57, 64
3, 204240, Note_on_c, 1, 55, 105
3, 204240, Note_on_c, 1, 59, 105
3, 204324, Note_off_c, 1, 59, 64
3, 204324, Note_off_c, 1, 55, 64
3, 204360, Note_on_c, 1, 57, 105
3, 204360, Note_on_c, 1, 60, 105
3, 204444, Note_off_c, 1, 60, 64
3, 204444, Note_off_c, 1, 57, 64
3, 204480, Note_on_c, 1, 62, 105
3, 204480, Note_on_c, 1, 59, 105
3, 204564, Note_off_c, 1, 59, 64
3, 204564, Note_off_c, 1, 62, 64
3, 204600, Note_on_c, 1, 59, 105
3, 204600, Note_on_c, 1, 62, 105
3, 204792, Note_off_c, 1, 62, 64
3, 204792, Note_off_c, 1, 59, 64
3, 204840, Note_on_c, 1, 61, 105
3, 204840, Note_on_c, 1, 58, 105
3, 204924, Note_off_c, 1, 58, 64
3, 204924, Note_off_c, 1, 61, 64
3, 204960, Note_on_c, 1, 59, 105
3, 204960, Note_on_c, 1, 62, 105
3, 205044, Note_off_c, 1, 62, 64
3, 205044, Note_off_c, 1, 59, 64
3, 205080, Note_on_c, 1, 61, 105
3, 205080, Note_on_c, 1, 58, 105
3, 205164, Note_off_c, 1, 58, 64
3, 205164, Note_off_c, 1, 61, 64
3, 205200, Note_on_c, 1, 62, 105
3, 205200, Note_on_c, 1, 59, 105
3, 205284, Note_off_c, 1, 59, 64
3, 205284, Note_off_c, 1, 62, 64
3, 205320, Note_on_c, 1, 58, 105
3, 205320, Note_on_c, 1, 61, 105
3, 205404, Note_off_c, 1, 61, 64
3, 205404, Note_off_c, 1, 58, 64
3, 205440, Note_on_c, 1, 59, 105
3, 205440, Note_on_c, 1, 62, 105
3, 205608, Note_off_c, 1, 62, 64
3, 205608, Note_off_c, 1, 59, 64
3, 205680, Note_on_c, 1, 55, 105
3, 205680, Note_on_c, 1, 59, 105
3, 205848, Note_off_c, 1, 59, 64
3, 205848, Note_off_c, 1, 55, 64
3, 205920, Note_on_c, 1, 57, 105
3, 205920, Note_on_c, 1, 60, 105
3, 206088, Note_off_c, 1, 60, 64
3, 206088, Note_off_c, 1, 57, 64
3, 206160, Note_on_c, 1, 57, 105
3, 206160, Note_on_c, 1, 54, 105
3, 206328, Note_off_c, 1, 54, 64
3, 206328, Note_off_c, 1, 57, 64
3, 206400, Note_on_c, 1, 62, 72
3, 206400, Note_on_c, 1, 59, 72
3, 206478, Note_off_c, 1, 59, 64
3, 206478, Note_off_c, 1, 62, 64
3, 206520, Note_on_c, 1, 62, 72
3, 206520, Note_on_c, 1, 59, 72
3, 206598, Note_off_c, 1, 59, 64
3, 206598, Note_off_c, 1, 62, 64
3, 206640, Note_on_c, 1, 55, 72
3, 206640, Note_on_c, 1, 59, 72
3, 206718, Note_off_c, 1, 59, 64
3, 206718, Note_off_c, 1, 55, 64
3, 206760, Note_on_c, 1, 59, 72
3, 206760, Note_on_c, 1, 55, 72
3, 206838, Note_off_c, 1, 55, 64
3, 206838, Note_off_c, 1, 59, 64
3, 206880, Note_on_c, 1, 60, 72
3, 206880, Note_on_c, 1, 57, 72
3, 206958, Note_off_c, 1, 57, 64
3, 206958, Note_off_c, 1, 60, 64
3, 207000, Note_on_c, 1, 57, 72
3, 207000, Note_on_c, 1, 60, 72
3, 207078, Note_off_c, 1, 60, 64
3, 207078, Note_off_c, 1, 57, 64
3, 207120, Note_on_c, 1, 54, 72
3, 207120, Note_on_c, 1, 57, 72
3, 207198, Note_off_c, 1, 57, 64
3, 207198, Note_off_c, 1, 54, 64
3, 207240, Note_on_c, 1, 54, 72
3, 207240, Note_on_c, 1, 57, 72
3, 207318, Note_off_c, 1, 57, 64
3, 207318, Note_off_c, 1, 54, 64
3, 207360, Note_on_c, 1, 62, 105
3, 207360, Note_on_c, 1, 59, 105
3, 207444, Note_off_c, 1, 59, 64
3, 207444, Note_off_c, 1, 62, 64
3, 207480, Note_on_c, 1, 59, 105
3, 207480, Note_on_c, 1, 62, 105
3, 207564, Note_off_c, 1, 62, 64
3, 207564, Note_off_c, 1, 59, 64
3, 207600, Note_on_c, 1, 59, 105
3, 207600, Note_on_c, 1, 55, 105
3, 207684, Note_off_c, 1, 55, 64
3, 207684, Note_off_c, 1, 59, 64
3, 207720, Note_on_c, 1, 59, 105
3, 207720, Note_on_c, 1, 55, 105
3, 207804, Note_off_c, 1, 55, 64
3, 207804, Note_off_c, 1, 59, 64
3, 207840, Note_on_c, 1, 60, 105
3, 207840, Note_on_c, 1, 57, 105
3, 207924, Note_off_c, 1, 57, 64
3, 207924, Note_off_c, 1, 60, 64
3, 207960, Note_on_c, 1, 60, 105
3, 207960, Note_on_c, 1, 57, 105
3, 208044, Note_off_c, 1, 57, 64
3, 208044, Note_off_c, 1, 60, 64
3, 208080, Note_on_c, 1, 57, 105
3, 208080, Note_on_c, 1, 54, 105
3, 208164, Note_off_c, 1, 54, 64
3, 208164, Note_off_c, 1, 57, 64
3, 208200, Note_on_c, 1, 54, 105
3, 208200, Note_on_c, 1, 57, 105
3, 208284, Note_off_c, 1, 57, 64
3, 208284, Note_off_c, 1, 54, 64
3, 208320, Note_on_c, 1, 55, 105
3, 208512, Note_off_c, 1, 55, 64
3, 214800, Note_on_c, 1, 64, 105
3, 214944, Note_off_c, 1, 64, 64
3, 215040, Note_on_c, 1, 65, 72
3, 215520, Note_off_c, 1, 65, 64
3, 215520, Note_on_c, 1, 64, 72
3, 215664, Note_off_c, 1, 64, 64
3, 215760, Note_on_c, 1, 60, 72
3, 215904, Note_off_c, 1, 60, 64
3, 216000, Note_on_c, 1, 59, 72
3, 216144, Note_off_c, 1, 59, 64
3, 216240, Note_on_c, 1, 62, 72
3, 216720, Note_off_c, 1, 62, 64
3, 216720, Note_on_c, 1, 59, 72
3, 216840, Note_off_c, 1, 59, 64
3, 216840, Note_on_c, 1, 56, 72
3, 216936, Note_off_c, 1, 56, 64
3, 216960, Note_on_c, 1, 57, 58
3, 217152, Note_off_c, 1, 57, 64
3, 218880, Note_on_c, 1, 55, 72
3, 220800, Note_off_c, 1, 55, 64
3, 220800, Note_on_c, 1, 53, 58
3, 220992, Note_off_c, 1, 53, 64
3, 221160, Note_on_c, 1, 57, 58
3, 221280, Note_off_c, 1, 57, 64
3, 221280, Note_on_c, 1, 62, 72
3, 221400, Note_off_c, 1, 62, 64
3, 221400, Note_on_c, 1, 61, 72
3, 221520, Note_off_c, 1, 61, 64
3, 221520, Note_on_c, 1, 64, 72
3, 221640, Note_off_c, 1, 64, 64
3, 221640, Note_on_c, 1, 62, 72
3, 221736, Note_off_c, 1, 62, 64
3, 221760, Note_on_c, 1, 65, 58
3, 221952, Note_off_c, 1, 65, 64
3, 223680, Note_on_c, 1, 53, 72
3, 225600, Note_off_c, 1, 53, 64
3, 225600, Note_on_c, 1, 52, 72
3, 225792, Note_off_c, 1, 52, 64
3, 225960, Note_on_c, 1, 55, 58
3, 226080, Note_off_c, 1, 55, 64
3, 226080, Note_on_c, 1, 60, 72
3, 226200, Note_off_c, 1, 60, 64
3, 226200, Note_on_c, 1, 59, 72
3, 226320, Note_off_c, 1, 59, 64
3, 226320, Note_on_c, 1, 62, 72
3, 226440, Note_off_c, 1, 62, 64
3, 226440, Note_on_c, 1, 60, 72
3, 226560, Note_off_c, 1, 60, 64
3, 226560, Note_on_c, 1, 64, 58
3, 226752, Note_off_c, 1, 64, 64
3, 228480, Note_on_c, 1, 64, 105
3, 228480, Note_on_c, 1, 58, 105
3, 229608, Note_off_c, 1, 64, 64
3, 229608, Note_off_c, 1, 58, 64
3, 229680, Note_on_c, 1, 58, 105
3, 229680, Note_on_c, 1, 64, 105
3, 229806, Note_off_c, 1, 64, 64
3, 229806, Note_off_c, 1, 58, 64
3, 229860, Note_on_c, 1, 58, 105
3, 229860, Note_on_c, 1, 64, 105
3, 229902, Note_off_c, 1, 64, 64
3, 229902, Note_off_c, 1, 58, 64
3, 229920, Note_on_c, 1, 58, 105
3, 229920, Note_on_c, 1, 64, 105
3, 230088, Note_off_c, 1, 64, 64
3, 230088, Note_off_c, 1, 58, 64
3, 230160, Note_on_c, 1, 64, 105
3, 230160, Note_on_c, 1, 58, 105
3, 230328, Note_off_c, 1, 58, 64
3, 230328, Note_off_c, 1, 64, 64
3, 230400, Note_on_c, 1, 58, 105
3, 230400, Note_on_c, 1, 64, 105
3, 230592, Note_off_c, 1, 64, 64
3, 230592, Note_off_c, 1, 58, 64
3, 230880, Note_on_c, 1, 58, 116
3, 231048, Note_off_c, 1, 58, 64
3, 231120, Note_on_c, 1, 58, 116
3, 231204, Note_off_c, 1, 58, 64
3, 231240, Note_on_c, 1, 58, 116
3, 231324, Note_off_c, 1, 58, 64
3, 231360, Note_on_c, 1, 57, 116
3, 231528, Note_off_c, 1, 57, 64
3, 231600, Note_on_c, 1, 57, 116
3, 231684, Note_off_c, 1, 57, 64
3, 231720, Note_on_c, 1, 57, 116
3, 231804, Note_off_c, 1, 57, 64
3, 231840, Note_on_c, 1, 55, 116
3, 232008, Note_off_c, 1, 55, 64
3, 232080, Note_on_c, 1, 55, 116
3, 232164, Note_off_c, 1, 55, 64
3, 232200, Note_on_c, 1, 55, 116
3, 232284, Note_off_c, 1, 55, 64
3, 232320, Note_on_c, 1, 53, 105
3, 232512, Note_off_c, 1, 53, 64
3, 232800, Note_on_c, 1, 62, 81
3, 233760, Note_off_c, 1, 62, 64
3, 233760, Note_on_c, 1, 61, 81
3, 234216, Note_off_c, 1, 61, 64
3, 234240, Note_on_c, 1, 60, 81
3, 235680, Note_off_c, 1, 60, 64
3, 235680, Note_on_c, 1, 59, 81
3, 236136, Note_off_c, 1, 59, 64
3, 236160, Note_on_c, 1, 58, 81
3, 236640, Note_off_c, 1, 58, 64
3, 236640, Note_on_c, 1, 57, 81
3, 237096, Note_off_c, 1, 57, 64
3, 237120, Note_on_c, 1, 55, 72
3, 237600, Note_off_c, 1, 55, 64
3, 237600, Note_on_c, 1, 60, 72
3, 238056, Note_off_c, 1, 60, 64
3, 238080, Note_on_c, 1, 53, 72
3, 238560, Note_off_c, 1, 53, 64
3, 238560, Note_on_c, 1, 55, 72
3, 239016, Note_off_c, 1, 55, 64
3, 239040, Note_on_c, 1, 56, 72
3, 240000, Note_off_c, 1, 56, 64
3, 240000, Note_on_c, 1, 55, 105
3, 240168, Note_off_c, 1, 55, 64
3, 240720, Note_on_c, 1, 55, 105
3, 240888, Note_off_c, 1, 55, 64
3, 240960, Note_on_c, 1, 52, 105
3, 241128, Note_off_c, 1, 52, 64
3, 241680, Note_on_c, 1, 52, 105
3, 241848, Note_off_c, 1, 52, 64
3, 241920, Note_on_c, 1, 47, 105
3, 242088, Note_off_c, 1, 47, 64
3, 242640, Note_on_c, 1, 47, 105
3, 242808, Note_off_c, 1, 47, 64
3, 242880, Note_on_c, 1, 48, 105
3, 243048, Note_off_c, 1, 48, 64
3, 243600, Note_on_c, 1, 48, 105
3, 243768, Note_off_c, 1, 48, 64
3, 243840, Note_on_c, 1, 55, 105
3, 244008, Note_off_c, 1, 55, 64
3, 244080, Note_on_c, 1, 52, 105
3, 244248, Note_off_c, 1, 52, 64
3, 244320, Note_on_c, 1, 47, 105
3, 244488, Note_off_c, 1, 47, 64
3, 244560, Note_on_c, 1, 48, 105
3, 244728, Note_off_c, 1, 48, 64
3, 244800, Note_on_c, 1, 55, 105
3, 244968, Note_off_c, 1, 55, 64
3, 245040, Note_on_c, 1, 52, 105
3, 245208, Note_off_c, 1, 52, 64
3, 245280, Note_on_c, 1, 47, 105
3, 245448, Note_off_c, 1, 47, 64
3, 245520, Note_on_c, 1, 48, 105
3, 245688, Note_off_c, 1, 48, 64
3, 245760, Note_on_c, 1, 43, 105
3, 245952, Note_off_c, 1, 43, 64
3, 260160, Note_on_c, 1, 48, 105
3, 260256, Note_off_c, 1, 48, 64
3, 260280, Note_on_c, 1, 48, 105
3, 260376, Note_off_c, 1, 48, 64
3, 260400, Note_on_c, 1, 48, 105
3, 260496, Note_off_c, 1, 48, 64
3, 260520, Note_on_c, 1, 48, 105
3, 260616, Note_off_c, 1, 48, 64
3, 260640, Note_on_c, 1, 48, 105
3, 260736, Note_off_c, 1, 48, 64
3, 260760, Note_on_c, 1, 48, 105
3, 260856, Note_off_c, 1, 48, 64
3, 260880, Note_on_c, 1, 48, 105
3, 260976, Note_off_c, 1, 48, 64
3, 261000, Note_on_c, 1, 48, 105
3, 261096, Note_off_c, 1, 48, 64
3, 261120, Note_on_c, 1, 48, 105
3, 261216, Note_off_c, 1, 48, 64
3, 261240, Note_on_c, 1, 48, 105
3, 261336, Note_off_c, 1, 48, 64
3, 261360, Note_on_c, 1, 48, 105
3, 261456, Note_off_c, 1, 48, 64
3, 261480, Note_on_c, 1, 48, 105
3, 261576, Note_off_c, 1, 48, 64
3, 261600, Note_on_c, 1, 48, 105
3, 261696, Note_off_c, 1, 48, 64
3, 261720, Note_on_c, 1, 48, 105
3, 261816, Note_off_c, 1, 48, 64
3, 261840, Note_on_c, 1, 48, 105
3, 261936, Note_off_c, 1, 48, 64
3, 261960, Note_on_c, 1, 48, 105
3, 262056, Note_off_c, 1, 48, 64
3, 262080, Note_on_c, 1, 48, 105
3, 262464, Note_off_c, 1, 48, 64
3, 262800, Note_on_c, 1, 48, 105
3, 262968, Note_off_c, 1, 48, 64
3, 263040, Note_on_c, 1, 53, 105
3, 263208, Note_off_c, 1, 53, 64
3, 263280, Note_on_c, 1, 48, 105
3, 263448, Note_off_c, 1, 48, 64
3, 263760, Note_on_c, 1, 48, 105
3, 263928, Note_off_c, 1, 48, 64
3, 264000, Note_on_c, 1, 53, 105
3, 264168, Note_off_c, 1, 53, 64
3, 264240, Note_on_c, 1, 48, 105
3, 264408, Note_off_c, 1, 48, 64
3, 264720, Note_on_c, 1, 48, 105
3, 264888, Note_off_c, 1, 48, 64
3, 264960, Note_on_c, 1, 53, 105
3, 265128, Note_off_c, 1, 53, 64
3, 265200, Note_on_c, 1, 48, 105
3, 265368, Note_off_c, 1, 48, 64
3, 265440, Note_on_c, 1, 53, 105
3, 265608, Note_off_c, 1, 53, 64
3, 265680, Note_on_c, 1, 48, 105
3, 265848, Note_off_c, 1, 48, 64
3, 265920, Note_on_c, 1, 53, 105
3, 266088, Note_off_c, 1, 53, 64
3, 266160, Note_on_c, 1, 48, 105
3, 266328, Note_off_c, 1, 48, 64
3, 266880, Note_on_c, 1, 57, 58
3, 267840, Note_off_c, 1, 57, 64
3, 267840, Note_on_c, 1, 55, 58
3, 268320, Note_off_c, 1, 55, 64
3, 268320, Note_on_c, 1, 48, 58
3, 268800, Note_off_c, 1, 48, 64
3, 268800, Note_on_c, 1, 53, 58
3, 268992, Note_off_c, 1, 53, 64
3, 270720, Note_on_c, 1, 55, 58
3, 270912, Note_off_c, 1, 55, 64
3, 270960, Note_on_c, 1, 55, 72
3, 271152, Note_off_c, 1, 55, 64
3, 271200, Note_on_c, 1, 55, 72
3, 271392, Note_off_c, 1, 55, 64
3, 271440, Note_on_c, 1, 55, 72
3, 271632, Note_off_c, 1, 55, 64
3, 271680, Note_on_c, 1, 48, 105
3, 271764, Note_off_c, 1, 48, 64
3, 271800, Note_on_c, 1, 52, 105
3, 271884, Note_off_c, 1, 52, 64
3, 271920, Note_on_c, 1, 55, 105
3, 272004, Note_off_c, 1, 55, 64
3, 272040, Note_on_c, 1, 60, 105
3, 272124, Note_off_c, 1, 60, 64
3, 272160, Note_on_c, 1, 64, 105
3, 272244, Note_off_c, 1, 64, 64
3, 272280, Note_on_c, 1, 62, 105
3, 272364, Note_off_c, 1, 62, 64
3, 272400, Note_on_c, 1, 64, 105
3, 272484, Note_off_c, 1, 64, 64
3, 272520, Note_on_c, 1, 60, 105
3, 272604, Note_off_c, 1, 60, 64
3, 272640, Note_on_c, 1, 59, 105
3, 272724, Note_off_c, 1, 59, 64
3, 272760, Note_on_c, 1, 60, 105
3, 272844, Note_off_c, 1, 60, 64
3, 272880, Note_on_c, 1, 62, 105
3, 272964, Note_off_c, 1, 62, 64
3, 273000, Note_on_c, 1, 60, 105
3, 273084, Note_off_c, 1, 60, 64
3, 273120, Note_on_c, 1, 59, 105
3, 273204, Note_off_c, 1, 59, 64
3, 273240, Note_on_c, 1, 57, 105
3, 273324, Note_off_c, 1, 57, 64
3, 273360, Note_on_c, 1, 55, 105
3, 273444, Note_off_c, 1, 55, 64
3, 273480, Note_on_c, 1, 53, 105
3, 273564, Note_off_c, 1, 53, 64
3, 273600, Note_on_c, 1, 52, 105
3, 273684, Note_off_c, 1, 52, 64
3, 273720, Note_on_c, 1, 53, 105
3, 273804, Note_off_c, 1, 53, 64
3, 273840, Note_on_c, 1, 55, 105
3, 273924, Note_off_c, 1, 55, 64
3, 273960, Note_on_c, 1, 52, 105
3, 274044, Note_off_c, 1, 52, 64
3, 274080, Note_on_c, 1, 57, 105
3, 274164, Note_off_c, 1, 57, 64
3, 274200, Note_on_c, 1, 59, 105
3, 274284, Note_off_c, 1, 59, 64
3, 274320, Note_on_c, 1, 60, 105
3, 274404, Note_off_c, 1, 60, 64
3, 274440, Note_on_c, 1, 57, 105
3, 274524, Note_off_c, 1, 57, 64
3, 274560, Note_on_c, 1, 53, 105
3, 274644, Note_off_c, 1, 53, 64
3, 274680, Note_on_c, 1, 50, 105
3, 274764, Note_off_c, 1, 50, 64
3, 274800, Note_on_c, 1, 52, 105
3, 274884, Note_off_c, 1, 52, 64
3, 274920, Note_on_c, 1, 53, 105
3, 275004, Note_off_c, 1, 53, 64
3, 275040, Note_on_c, 1, 55, 105
3, 275124, Note_off_c, 1, 55, 64
3, 275160, Note_on_c, 1, 53, 105
3, 275244, Note_off_c, 1, 53, 64
3, 275280, Note_on_c, 1, 55, 105
3, 275364, Note_off_c, 1, 55, 64
3, 275400, Note_on_c, 1, 43, 105
3, 275484, Note_off_c, 1, 43, 64
3, 275520, Note_on_c, 1, 48, 105
3, 275604, Note_off_c, 1, 48, 64
3, 275640, Note_on_c, 1, 52, 105
3, 275724, Note_off_c, 1, 52, 64
3, 275760, Note_on_c, 1, 55, 105
3, 275844, Note_off_c, 1, 55, 64
3, 275880, Note_on_c, 1, 60, 105
3, 275964, Note_off_c, 1, 60, 64
3, 276000, Note_on_c, 1, 64, 105
3, 276084, Note_off_c, 1, 64, 64
3, 276120, Note_on_c, 1, 62, 105
3, 276204, Note_off_c, 1, 62, 64
3, 276240, Note_on_c, 1, 64, 105
3, 276324, Note_off_c, 1, 64, 64
3, 276360, Note_on_c, 1, 60, 105
3, 276444, Note_off_c, 1, 60, 64
3, 276480, Note_on_c, 1, 59, 105
3, 276564, Note_off_c, 1, 59, 64
3, 276600, Note_on_c, 1, 60, 105
3, 276684, Note_off_c, 1, 60, 64
3, 276720, Note_on_c, 1, 62, 105
3, 276804, Note_off_c, 1, 62, 64
3, 276840, Note_on_c, 1, 60, 105
3, 276924, Note_off_c, 1, 60, 64
3, 276960, Note_on_c, 1, 59, 105
3, 277044, Note_off_c, 1, 59, 64
3, 277080, Note_on_c, 1, 57, 105
3, 277164, Note_off_c, 1, 57, 64
3, 277200, Note_on_c, 1, 55, 105
3, 277284, Note_off_c, 1, 55, 64
3, 277320, Note_on_c, 1, 53, 105
3, 277404, Note_off_c, 1, 53, 64
3, 277440, Note_on_c, 1, 52, 105
3, 277524, Note_off_c, 1, 52, 64
3, 277560, Note_on_c, 1, 53, 105
3, 277644, Note_off_c, 1, 53, 64
3, 277680, Note_on_c, 1, 55, 105
3, 277764, Note_off_c, 1, 55, 64
3, 277800, Note_on_c, 1, 52, 105
3, 277884, Note_off_c, 1, 52, 64
3, 277920, Note_on_c, 1, 57, 105
3, 278004, Note_off_c, 1, 57, 64
3, 278040, Note_on_c, 1, 59, 105
3, 278124, Note_off_c, 1, 59, 64
3, 278160, Note_on_c, 1, 60, 105
3, 278244, Note_off_c, 1, 60, 64
3, 278280, Note_on_c, 1, 57, 105
3, 278364, Note_off_c, 1, 57, 64
3, 278400, Note_on_c, 1, 54, 105
3, 278484, Note_off_c, 1, 54, 64
3, 278520, Note_on_c, 1, 55, 105
3, 278604, Note_off_c, 1, 55, 64
3, 278640, Note_on_c, 1, 57, 105
3, 278724, Note_off_c, 1, 57, 64
3, 278760, Note_on_c, 1, 55, 105
3, 278844, Note_off_c, 1, 55, 64
3, 278880, Note_on_c, 1, 54, 105
3, 278964, Note_off_c, 1, 54, 64
3, 279000, Note_on_c, 1, 50, 105
3, 279084, Note_off_c, 1, 50, 64
3, 279120, Note_on_c, 1, 52, 105
3, 279204, Note_off_c, 1, 52, 64
3, 279240, Note_on_c, 1, 54, 105
3, 279324, Note_off_c, 1, 54, 64
3, 279360, Note_on_c, 1, 55, 105
3, 279444, Note_off_c, 1, 55, 64
3, 279480, Note_on_c, 1, 58, 105
3, 279564, Note_off_c, 1, 58, 64
3, 279600, Note_on_c, 1, 62, 105
3, 279684, Note_off_c, 1, 62, 64
3, 279720, Note_on_c, 1, 60, 105
3, 279804, Note_off_c, 1, 60, 64
3, 279840, Note_on_c, 1, 58, 105
3, 279924, Note_off_c, 1, 58, 64
3, 279960, Note_on_c, 1, 57, 105
3, 280044, Note_off_c, 1, 57, 64
3, 280080, Note_on_c, 1, 55, 105
3, 280164, Note_off_c, 1, 55, 64
3, 280200, Note_on_c, 1, 53, 105
3, 280284, Note_off_c, 1, 53, 64
3, 280320, Note_on_c, 1, 52, 105
3, 280404, Note_off_c, 1, 52, 64
3, 280440, Note_on_c, 1, 53, 105
3, 280524, Note_off_c, 1, 53, 64
3, 280560, Note_on_c, 1, 55, 105
3, 280644, Note_off_c, 1, 55, 64
3, 280680, Note_on_c, 1, 53, 105
3, 280764, Note_off_c, 1, 53, 64
3, 280800, Note_on_c, 1, 52, 105
3, 280884, Note_off_c, 1, 52, 64
3, 280920, Note_on_c, 1, 53, 105
3, 281004, Note_off_c, 1, 53, 64
3, 281040, Note_on_c, 1, 50, 105
3, 281124, Note_off_c, 1, 50, 64
3, 281160, Note_on_c, 1, 52, 105
3, 281244, Note_off_c, 1, 52, 64
3, 281280, Note_on_c, 1, 53, 105
3, 281364, Note_off_c, 1, 53, 64
3, 281400, Note_on_c, 1, 55, 105
3, 281484, Note_off_c, 1, 55, 64
3, 281520, Note_on_c, 1, 57, 105
3, 281604, Note_off_c, 1, 57, 64
3, 281640, Note_on_c, 1, 55, 105
3, 281724, Note_off_c, 1, 55, 64
3, 281760, Note_on_c, 1, 53, 105
3, 281844, Note_off_c, 1, 53, 64
3, 281880, Note_on_c, 1, 55, 105
3, 281964, Note_off_c, 1, 55, 64
3, 282000, Note_on_c, 1, 52, 105
3, 282084, Note_off_c, 1, 52, 64
3, 282120, Note_on_c, 1, 53, 105
3, 282204, Note_off_c, 1, 53, 64
3, 282240, Note_on_c, 1, 50, 105
3, 282324, Note_off_c, 1, 50, 64
3, 282360, Note_on_c, 1, 62, 105
3, 282444, Note_off_c, 1, 62, 64
3, 282480, Note_on_c, 1, 58, 105
3, 282564, Note_off_c, 1, 58, 64
3, 282600, Note_on_c, 1, 57, 105
3, 282684, Note_off_c, 1, 57, 64
3, 282720, Note_on_c, 1, 55, 105
3, 282804, Note_off_c, 1, 55, 64
3, 282840, Note_on_c, 1, 58, 105
3, 282924, Note_off_c, 1, 58, 64
3, 282960, Note_on_c, 1, 55, 105
3, 283044, Note_off_c, 1, 55, 64
3, 283080, Note_on_c, 1, 53, 105
3, 283164, Note_off_c, 1, 53, 64
3, 283200, Note_on_c, 1, 52, 105
3, 283284, Note_off_c, 1, 52, 64
3, 283320, Note_on_c, 1, 53, 105
3, 283404, Note_off_c, 1, 53, 64
3, 283440, Note_on_c, 1, 55, 105
3, 283524, Note_off_c, 1, 55, 64
3, 283560, Note_on_c, 1, 53, 105
3, 283644, Note_off_c, 1, 53, 64
3, 283680, Note_on_c, 1, 52, 105
3, 283764, Note_off_c, 1, 52, 64
3, 283800, Note_on_c, 1, 48, 105
3, 283884, Note_off_c, 1, 48, 64
3, 283920, Note_on_c, 1, 50, 105
3, 284004, Note_off_c, 1, 50, 64
3, 284040, Note_on_c, 1, 52, 105
3, 284124, Note_off_c, 1, 52, 64
3, 284160, Note_on_c, 1, 53, 105
3, 284244, Note_off_c, 1, 53, 64
3, 284280, Note_on_c, 1, 57, 105
3, 284364, Note_off_c, 1, 57, 64
3, 284400, Note_on_c, 1, 60, 105
3, 284484, Note_off_c, 1, 60, 64
3, 284520, Note_on_c, 1, 60, 105
3, 284604, Note_off_c, 1, 60, 64
3, 284640, Note_on_c, 1, 60, 105
3, 284724, Note_off_c, 1, 60, 64
3, 284760, Note_on_c, 1, 60, 105
3, 284844, Note_off_c, 1, 60, 64
3, 284880, Note_on_c, 1, 57, 105
3, 284964, Note_off_c, 1, 57, 64
3, 285000, Note_on_c, 1, 53, 105
3, 285084, Note_off_c, 1, 53, 64
3, 285120, Note_on_c, 1, 58, 105
3, 285204, Note_off_c, 1, 58, 64
3, 285240, Note_on_c, 1, 55, 105
3, 285324, Note_off_c, 1, 55, 64
3, 285360, Note_on_c, 1, 57, 105
3, 285444, Note_off_c, 1, 57, 64
3, 285480, Note_on_c, 1, 53, 105
3, 285564, Note_off_c, 1, 53, 64
3, 285600, Note_on_c, 1, 52, 105
3, 285684, Note_off_c, 1, 52, 64
3, 285720, Note_on_c, 1, 55, 105
3, 285804, Note_off_c, 1, 55, 64
3, 285840, Note_on_c, 1, 52, 105
3, 285924, Note_off_c, 1, 52, 64
3, 285960, Note_on_c, 1, 48, 105
3, 286044, Note_off_c, 1, 48, 64
3, 286080, Note_on_c, 1, 53, 105
3, 286164, Note_off_c, 1, 53, 64
3, 286200, Note_on_c, 1, 57, 105
3, 286284, Note_off_c, 1, 57, 64
3, 286320, Note_on_c, 1, 60, 105
3, 286404, Note_off_c, 1, 60, 64
3, 286440, Note_on_c, 1, 60, 105
3, 286524, Note_off_c, 1, 60, 64
3, 286560, Note_on_c, 1, 60, 105
3, 286644, Note_off_c, 1, 60, 64
3, 286680, Note_on_c, 1, 60, 105
3, 286764, Note_off_c, 1, 60, 64
3, 286800, Note_on_c, 1, 57, 105
3, 286884, Note_off_c, 1, 57, 64
3, 286920, Note_on_c, 1, 53, 105
3, 287004, Note_off_c, 1, 53, 64
3, 287040, Note_on_c, 1, 58, 105
3, 287124, Note_off_c, 1, 58, 64
3, 287160, Note_on_c, 1, 55, 105
3, 287244, Note_off_c, 1, 55, 64
3, 287280, Note_on_c, 1, 57, 105
3, 287364, Note_off_c, 1, 57, 64
3, 287400, Note_on_c, 1, 53, 105
3, 287484, Note_off_c, 1, 53, 64
3, 287520, Note_on_c, 1, 52, 105
3, 287604, Note_off_c, 1, 52, 64
3, 287640, Note_on_c, 1, 55, 105
3, 287724, Note_off_c, 1, 55, 64
3, 287760, Note_on_c, 1, 52, 105
3, 287844, Note_off_c, 1, 52, 64
3, 287880, Note_on_c, 1, 48, 105
3, 287964, Note_off_c, 1, 48, 64
3, 288000, Note_on_c, 1, 53, 105
3, 288096, Note_off_c, 1, 53, 64
3, 288120, Note_on_c, 1, 41, 110
3, 288216, Note_off_c, 1, 41, 64
3, 288240, Note_on_c, 1, 53, 72
3, 288336, Note_off_c, 1, 53, 64
3, 288360, Note_on_c, 1, 53, 72
3, 288456, Note_off_c, 1, 53, 64
3, 288480, Note_on_c, 1, 53, 72
3, 288576, Note_off_c, 1, 53, 64
3, 288600, Note_on_c, 1, 53, 72
3, 288696, Note_off_c, 1, 53, 64
3, 288720, Note_on_c, 1, 55, 72
3, 288816, Note_off_c, 1, 55, 64
3, 288840, Note_on_c, 1, 55, 72
3, 288936, Note_off_c, 1, 55, 64
3, 288960, Note_on_c, 1, 57, 72
3, 289056, Note_off_c, 1, 57, 64
3, 289080, Note_on_c, 1, 45, 110
3, 289176, Note_off_c, 1, 45, 64
3, 289200, Note_on_c, 1, 57, 72
3, 289296, Note_off_c, 1, 57, 64
3, 289320, Note_on_c, 1, 57, 72
3, 289416, Note_off_c, 1, 57, 64
3, 289440, Note_on_c, 1, 57, 72
3, 289536, Note_off_c, 1, 57, 64
3, 289560, Note_on_c, 1, 57, 72
3, 289656, Note_off_c, 1, 57, 64
3, 289680, Note_on_c, 1, 55, 72
3, 289776, Note_off_c, 1, 55, 64
3, 289800, Note_on_c, 1, 55, 72
3, 289896, Note_off_c, 1, 55, 64
3, 289920, Note_on_c, 1, 53, 105
3, 289992, Note_off_c, 1, 53, 64
3, 290040, Note_on_c, 1, 52, 105
3, 290112, Note_off_c, 1, 52, 64
3, 290160, Note_on_c, 1, 53, 105
3, 290232, Note_off_c, 1, 53, 64
3, 290280, Note_on_c, 1, 52, 105
3, 290352, Note_off_c, 1, 52, 64
3, 290400, Note_on_c, 1, 53, 105
3, 290472, Note_off_c, 1, 53, 64
3, 290520, Note_on_c, 1, 52, 105
3, 290592, Note_off_c, 1, 52, 64
3, 290640, Note_on_c, 1, 53, 105
3, 290712, Note_off_c, 1, 53, 64
3, 290760, Note_on_c, 1, 55, 105
3, 290832, Note_off_c, 1, 55, 64
3, 290880, Note_on_c, 1, 57, 105
3, 290952, Note_off_c, 1, 57, 64
3, 291000, Note_on_c, 1, 56, 105
3, 291072, Note_off_c, 1, 56, 64
3, 291120, Note_on_c, 1, 57, 105
3, 291192, Note_off_c, 1, 57, 64
3, 291240, Note_on_c, 1, 56, 105
3, 291312, Note_off_c, 1, 56, 64
3, 291360, Note_on_c, 1, 57, 105
3, 291432, Note_off_c, 1, 57, 64
3, 291480, Note_on_c, 1, 56, 105
3, 291552, Note_off_c, 1, 56, 64
3, 291600, Note_on_c, 1, 57, 105
3, 291672, Note_off_c, 1, 57, 64
3, 291720, Note_on_c, 1, 52, 105
3, 291792, Note_off_c, 1, 52, 64
3, 291840, Note_on_c, 1, 53, 105
3, 291912, Note_off_c, 1, 53, 64
3, 291960, Note_on_c, 1, 52, 105
3, 292032, Note_off_c, 1, 52, 64
3, 292080, Note_on_c, 1, 53, 105
3, 292152, Note_off_c, 1, 53, 64
3, 292200, Note_on_c, 1, 52, 105
3, 292272, Note_off_c, 1, 52, 64
3, 292320, Note_on_c, 1, 53, 105
3, 292392, Note_off_c, 1, 53, 64
3, 292440, Note_on_c, 1, 52, 105
3, 292512, Note_off_c, 1, 52, 64
3, 292560, Note_on_c, 1, 53, 105
3, 292632, Note_off_c, 1, 53, 64
3, 292680, Note_on_c, 1, 50, 105
3, 292752, Note_off_c, 1, 50, 64
3, 292800, Note_on_c, 1, 52, 105
3, 292872, Note_off_c, 1, 52, 64
3, 292920, Note_on_c, 1, 50, 105
3, 292992, Note_off_c, 1, 50, 64
3, 293040, Note_on_c, 1, 52, 105
3, 293112, Note_off_c, 1, 52, 64
3, 293160, Note_on_c, 1, 50, 105
3, 293232, Note_off_c, 1, 50, 64
3, 293280, Note_on_c, 1, 52, 105
3, 293352, Note_off_c, 1, 52, 64
3, 293400, Note_on_c, 1, 50, 105
3, 293472, Note_off_c, 1, 50, 64
3, 293520, Note_on_c, 1, 52, 105
3, 293592, Note_off_c, 1, 52, 64
3, 293640, Note_on_c, 1, 47, 105
3, 293712, Note_off_c, 1, 47, 64
3, 293760, Note_on_c, 1, 48, 105
3, 293952, Note_off_c, 1, 48, 64
3, 295680, Note_on_c, 1, 56, 58
3, 297552, Note_off_c, 1, 56, 64
3, 297600, Note_on_c, 1, 55, 58
3, 297768, Note_off_c, 1, 55, 64
3, 297840, Note_on_c, 1, 59, 72
3, 298320, Note_off_c, 1, 59, 64
3, 298320, Note_on_c, 1, 60, 72
3, 298512, Note_off_c, 1, 60, 64
3, 298800, Note_on_c, 1, 59, 72
3, 299280, Note_off_c, 1, 59, 64
3, 299280, Note_on_c, 1, 60, 72
3, 299472, Note_off_c, 1, 60, 64
3, 300240, Note_on_c, 1, 55, 72
3, 300384, Note_off_c, 1, 55, 64
3, 300480, Note_on_c, 1, 57, 72
3, 300840, Note_off_c, 1, 57, 64
3, 300840, Note_on_c, 1, 59, 72
3, 300900, Note_off_c, 1, 59, 64
3, 300900, Note_on_c, 1, 60, 72
3, 300948, Note_off_c, 1, 60, 64
3, 300960, Note_on_c, 1, 55, 72
3, 301104, Note_off_c, 1, 55, 64
3, 301200, Note_on_c, 1, 64, 72
3, 301344, Note_off_c, 1, 64, 64
3, 301440, Note_on_c, 1, 62, 72
3, 301584, Note_off_c, 1, 62, 64
3, 301680, Note_on_c, 1, 65, 72
3, 302160, Note_off_c, 1, 65, 64
3, 302160, Note_on_c, 1, 62, 72
3, 302280, Note_off_c, 1, 62, 64
3, 302280, Note_on_c, 1, 59, 72
3, 302376, Note_off_c, 1, 59, 64
3, 302400, Note_on_c, 1, 60, 72
3, 302592, Note_off_c, 1, 60, 64
3, 302880, Note_on_c, 1, 57, 105
3, 303036, Note_off_c, 1, 57, 64
3, 303120, Note_on_c, 1, 57, 105
3, 303276, Note_off_c, 1, 57, 64
3, 303360, Note_on_c, 1, 57, 105
3, 303438, Note_off_c, 1, 57, 64
3, 303480, Note_on_c, 1, 59, 105
3, 303558, Note_off_c, 1, 59, 64
3, 303600, Note_on_c, 1, 60, 105
3, 303678, Note_off_c, 1, 60, 64
3, 303720, Note_on_c, 1, 57, 105
3, 303798, Note_off_c, 1, 57, 64
3, 303840, Note_on_c, 1, 56, 105
3, 303918, Note_off_c, 1, 56, 64
3, 303960, Note_on_c, 1, 52, 105
3, 304038, Note_off_c, 1, 52, 64
3, 304080, Note_on_c, 1, 54, 105
3, 304158, Note_off_c, 1, 54, 64
3, 304200, Note_on_c, 1, 56, 105
3, 304278, Note_off_c, 1, 56, 64
3, 304320, Note_on_c, 1, 57, 105
3, 304398, Note_off_c, 1, 57, 64
3, 304440, Note_on_c, 1, 59, 105
3, 304518, Note_off_c, 1, 59, 64
3, 304560, Note_on_c, 1, 60, 105
3, 304638, Note_off_c, 1, 60, 64
3, 304680, Note_on_c, 1, 57, 105
3, 304758, Note_off_c, 1, 57, 64
3, 304800, Note_on_c, 1, 56, 105
3, 304878, Note_off_c, 1, 56, 64
3, 304920, Note_on_c, 1, 52, 105
3, 304998, Note_off_c, 1, 52, 64
3, 305040, Note_on_c, 1, 54, 105
3, 305118, Note_off_c, 1, 54, 64
3, 305160, Note_on_c, 1, 56, 105
3, 305238, Note_off_c, 1, 56, 64
3, 305280, Note_on_c, 1, 57, 105
3, 305358, Note_off_c, 1, 57, 64
3, 305400, Note_on_c, 1, 59, 105
3, 305478, Note_off_c, 1, 59, 64
3, 305520, Note_on_c, 1, 60, 105
3, 305598, Note_off_c, 1, 60, 64
3, 305640, Note_on_c, 1, 57, 105
3, 305718, Note_off_c, 1, 57, 64
3, 305760, Note_on_c, 1, 56, 105
3, 305838, Note_off_c, 1, 56, 64
3, 305880, Note_on_c, 1, 52, 105
3, 305958, Note_off_c, 1, 52, 64
3, 306000, Note_on_c, 1, 54, 105
3, 306078, Note_off_c, 1, 54, 64
3, 306120, Note_on_c, 1, 56, 105
3, 306198, Note_off_c, 1, 56, 64
3, 306240, Note_on_c, 1, 57, 105
3, 306432, Note_off_c, 1, 57, 64
3, 306720, Note_on_c, 1, 41, 72
3, 306720, Note_on_c, 1, 53, 72
3, 306900, Note_off_c, 1, 53, 64
3, 306900, Note_off_c, 1, 41, 64
3, 306960, Note_on_c, 1, 41, 72
3, 306960, Note_on_c, 1, 53, 72
3, 307140, Note_off_c, 1, 53, 64
3, 307140, Note_off_c, 1, 41, 64
3, 307200, Note_on_c, 1, 41, 72
3, 307200, Note_on_c, 1, 53, 72
3, 307680, Note_off_c, 1, 53, 64
3, 307680, Note_off_c, 1, 41, 64
3, 307680, Note_on_c, 1, 36, 72
3, 307680, Note_on_c, 1, 48, 72
3, 308136, Note_off_c, 1, 48, 64
3, 308136, Note_off_c, 1, 36, 64
3, 308160, Note_on_c, 1, 41, 72
3, 308352, Note_off_c, 1, 41, 64
3, 310560, Note_on_c, 1, 57, 72
3, 310740, Note_off_c, 1, 57, 64
3, 310800, Note_on_c, 1, 57, 72
3, 310980, Note_off_c, 1, 57, 64
3, 311040, Note_on_c, 1, 57, 72
3, 311520, Note_off_c, 1, 57, 64
3, 311520, Note_on_c, 1, 64, 72
3, 311976, Note_off_c, 1, 64, 64
3, 312000, Note_on_c, 1, 62, 72
3, 312120, Note_off_c, 1, 62, 64
3, 312120, Note_on_c, 1, 60, 72
3, 312240, Note_off_c, 1, 60, 64
3, 312240, Note_on_c, 1, 59, 72
3, 312360, Note_off_c, 1, 59, 64
3, 312360, Note_on_c, 1, 57, 72
3, 312456, Note_off_c, 1, 57, 64
3, 312480, Note_on_c, 1, 64, 72
3, 312660, Note_off_c, 1, 64, 64
3, 312720, Note_on_c, 1, 64, 72
3, 312900, Note_off_c, 1, 64, 64
3, 312960, Note_on_c, 1, 62, 72
3, 313080, Note_off_c, 1, 62, 64
3, 313080, Note_on_c, 1, 60, 72
3, 313200, Note_off_c, 1, 60, 64
3, 313200, Note_on_c, 1, 59, 72
3, 313320, Note_off_c, 1, 59, 64
3, 313320, Note_on_c, 1, 57, 72
3, 313416, Note_off_c, 1, 57, 64
3, 313440, Note_on_c, 1, 63, 72
3, 313560, Note_off_c, 1, 63, 64
3, 313560, Note_on_c, 1, 64, 72
3, 313680, Note_off_c, 1, 64, 64
3, 313680, Note_on_c, 1, 63, 72
3, 313800, Note_off_c, 1, 63, 64
3, 313800, Note_on_c, 1, 64, 72
3, 313896, Note_off_c, 1, 64, 64
3, 313920, Note_on_c, 1, 62, 72
3, 314040, Note_off_c, 1, 62, 64
3, 314040, Note_on_c, 1, 60, 72
3, 314160, Note_off_c, 1, 60, 64
3, 314160, Note_on_c, 1, 59, 72
3, 314280, Note_off_c, 1, 59, 64
3, 314280, Note_on_c, 1, 57, 72
3, 314376, Note_off_c, 1, 57, 64
3, 314400, Note_on_c, 1, 53, 105
3, 314568, Note_off_c, 1, 53, 64
3, 314640, Note_on_c, 1, 53, 105
3, 314808, Note_off_c, 1, 53, 64
3, 314880, Note_on_c, 1, 53, 105
3, 314964, Note_off_c, 1, 53, 64
3, 315000, Note_on_c, 1, 57, 105
3, 315084, Note_off_c, 1, 57, 64
3, 315120, Note_on_c, 1, 55, 105
3, 315204, Note_off_c, 1, 55, 64
3, 315240, Note_on_c, 1, 53, 105
3, 315324, Note_off_c, 1, 53, 64
3, 315360, Note_on_c, 1, 52, 105
3, 315444, Note_off_c, 1, 52, 64
3, 315480, Note_on_c, 1, 48, 105
3, 315564, Note_off_c, 1, 48, 64
3, 315600, Note_on_c, 1, 50, 105
3, 315684, Note_off_c, 1, 50, 64
3, 315720, Note_on_c, 1, 52, 105
3, 315804, Note_off_c, 1, 52, 64
3, 315840, Note_on_c, 1, 53, 105
3, 315924, Note_off_c, 1, 53, 64
3, 315960, Note_on_c, 1, 53, 105
3, 316044, Note_off_c, 1, 53, 64
3, 316080, Note_on_c, 1, 53, 105
3, 316164, Note_off_c, 1, 53, 64
3, 316200, Note_on_c, 1, 53, 105
3, 316284, Note_off_c, 1, 53, 64
3, 316320, Note_on_c, 1, 53, 105
3, 316404, Note_off_c, 1, 53, 64
3, 316440, Note_on_c, 1, 53, 105
3, 316524, Note_off_c, 1, 53, 64
3, 316560, Note_on_c, 1, 53, 105
3, 316644, Note_off_c, 1, 53, 64
3, 316680, Note_on_c, 1, 53, 105
3, 316764, Note_off_c, 1, 53, 64
3, 316800, Note_on_c, 1, 55, 105
3, 316884, Note_off_c, 1, 55, 64
3, 316920, Note_on_c, 1, 55, 105
3, 317004, Note_off_c, 1, 55, 64
3, 317040, Note_on_c, 1, 55, 105
3, 317124, Note_off_c, 1, 55, 64
3, 317160, Note_on_c, 1, 55, 105
3, 317244, Note_off_c, 1, 55, 64
3, 317280, Note_on_c, 1, 55, 105
3, 317364, Note_off_c, 1, 55, 64
3, 317400, Note_on_c, 1, 55, 105
3, 317484, Note_off_c, 1, 55, 64
3, 317520, Note_on_c, 1, 55, 105
3, 317604, Note_off_c, 1, 55, 64
3, 317640, Note_on_c, 1, 55, 105
3, 317724, Note_off_c, 1, 55, 64
3, 317760, Note_on_c, 1, 60, 105
3, 317844, Note_off_c, 1, 60, 64
3, 317880, Note_on_c, 1, 48, 105
3, 317964, Note_off_c, 1, 48, 64
3, 318000, Note_on_c, 1, 50, 105
3, 318084, Note_off_c, 1, 50, 64
3, 318120, Note_on_c, 1, 52, 105
3, 318204, Note_off_c, 1, 52, 64
3, 318240, Note_on_c, 1, 53, 105
3, 318324, Note_off_c, 1, 53, 64
3, 318360, Note_on_c, 1, 57, 105
3, 318444, Note_off_c, 1, 57, 64
3, 318480, Note_on_c, 1, 55, 105
3, 318564, Note_off_c, 1, 55, 64
3, 318600, Note_on_c, 1, 59, 105
3, 318684, Note_off_c, 1, 59, 64
3, 318720, Note_on_c, 1, 57, 105
3, 318804, Note_off_c, 1, 57, 64
3, 318840, Note_on_c, 1, 60, 105
3, 318924, Note_off_c, 1, 60, 64
3, 318960, Note_on_c, 1, 59, 105
3, 319044, Note_off_c, 1, 59, 64
3, 319080, Note_on_c, 1, 62, 105
3, 319164, Note_off_c, 1, 62, 64
3, 319200, Note_on_c, 1, 60, 105
3, 319284, Note_off_c, 1, 60, 64
3, 319320, Note_on_c, 1, 64, 105
3, 319404, Note_off_c, 1, 64, 64
3, 319440, Note_on_c, 1, 62, 105
3, 319524, Note_off_c, 1, 62, 64
3, 319560, Note_on_c, 1, 65, 105
3, 319644, Note_off_c, 1, 65, 64
3, 319680, Note_on_c, 1, 64, 105
3, 319764, Note_off_c, 1, 64, 64
3, 319800, Note_on_c, 1, 60, 105
3, 319884, Note_off_c, 1, 60, 64
3, 319920, Note_on_c, 1, 55, 105
3, 320004, Note_off_c, 1, 55, 64
3, 320040, Note_on_c, 1, 64, 105
3, 320124, Note_off_c, 1, 64, 64
3, 320160, Note_on_c, 1, 65, 105
3, 320244, Note_off_c, 1, 65, 64
3, 320280, Note_on_c, 1, 62, 105
3, 320364, Note_off_c, 1, 62, 64
3, 320400, Note_on_c, 1, 59, 105
3, 320484, Note_off_c, 1, 59, 64
3, 320520, Note_on_c, 1, 55, 105
3, 320604, Note_off_c, 1, 55, 64
3, 320640, Note_on_c, 1, 60, 105
3, 320724, Note_off_c, 1, 60, 64
3, 320760, Note_on_c, 1, 60, 105
3, 320844, Note_off_c, 1, 60, 64
3, 320880, Note_on_c, 1, 52, 105
3, 320964, Note_off_c, 1, 52, 64
3, 321000, Note_on_c, 1, 52, 105
3, 321084, Note_off_c, 1, 52, 64
3, 321120, Note_on_c, 1, 53, 105
3, 321204, Note_off_c, 1, 53, 64
3, 321240, Note_on_c, 1, 53, 105
3, 321324, Note_off_c, 1, 53, 64
3, 321360, Note_on_c, 1, 55, 105
3, 321444, Note_off_c, 1, 55, 64
3, 321480, Note_on_c, 1, 55, 105
3, 321564, Note_off_c, 1, 55, 64
3, 321600, Note_on_c, 1, 60, 105
3, 321684, Note_off_c, 1, 60, 64
3, 321720, Note_on_c, 1, 48, 105
3, 321804, Note_off_c, 1, 48, 64
3, 321840, Note_on_c, 1, 50, 105
3, 321924, Note_off_c, 1, 50, 64
3, 321960, Note_on_c, 1, 52, 105
3, 322044, Note_off_c, 1, 52, 64
3, 322080, Note_on_c, 1, 53, 105
3, 322164, Note_off_c, 1, 53, 64
3, 322200, Note_on_c, 1, 50, 105
3, 322284, Note_off_c, 1, 50, 64
3, 322320, Note_on_c, 1, 55, 105
3, 322404, Note_off_c, 1, 55, 64
3, 322440, Note_on_c, 1, 52, 105
3, 322524, Note_off_c, 1, 52, 64
3, 322560, Note_on_c, 1, 57, 105
3, 322644, Note_off_c, 1, 57, 64
3, 322680, Note_on_c, 1, 53, 105
3, 322764, Note_off_c, 1, 53, 64
3, 322800, Note_on_c, 1, 59, 105
3, 322884, Note_off_c, 1, 59, 64
3, 322920, Note_on_c, 1, 55, 105
3, 323004, Note_off_c, 1, 55, 64
3, 323040, Note_on_c, 1, 60, 105
3, 323124, Note_off_c, 1, 60, 64
3, 323160, Note_on_c, 1, 57, 105
3, 323244, Note_off_c, 1, 57, 64
3, 323280, Note_on_c, 1, 62, 105
3, 323364, Note_off_c, 1, 62, 64
3, 323400, Note_on_c, 1, 59, 105
3, 323484, Note_off_c, 1, 59, 64
3, 323520, Note_on_c, 1, 64, 105
3, 323604, Note_off_c, 1, 64, 64
3, 323640, Note_on_c, 1, 62, 105
3, 323724, Note_off_c, 1, 62, 64
3, 323760, Note_on_c, 1, 61, 105
3, 323844, Note_off_c, 1, 61, 64
3, 323880, Note_on_c, 1, 57, 105
3, 323964, Note_off_c, 1, 57, 64
3, 324000, Note_on_c, 1, 62, 105
3, 324084, Note_off_c, 1, 62, 64
3, 324120, Note_on_c, 1, 60, 105
3, 324204, Note_off_c, 1, 60, 64
3, 324240, Note_on_c, 1, 59, 105
3, 324324, Note_off_c, 1, 59, 64
3, 324360, Note_on_c, 1, 55, 105
3, 324444, Note_off_c, 1, 55, 64
3, 324480, Note_on_c, 1, 60, 105
3, 324564, Note_off_c, 1, 60, 64
3, 324600, Note_on_c, 1, 60, 105
3, 324684, Note_off_c, 1, 60, 64
3, 324720, Note_on_c, 1, 57, 105
3, 324804, Note_off_c, 1, 57, 64
3, 324840, Note_on_c, 1, 57, 105
3, 324924, Note_off_c, 1, 57, 64
3, 324960, Note_on_c, 1, 53, 105
3, 325044, Note_off_c, 1, 53, 64
3, 325080, Note_on_c, 1, 53, 105
3, 325164, Note_off_c, 1, 53, 64
3, 325200, Note_on_c, 1, 55, 105
3, 325284, Note_off_c, 1, 55, 64
3, 325320, Note_on_c, 1, 55, 105
3, 325404, Note_off_c, 1, 55, 64
3, 325440, Note_on_c, 1, 48, 105
3, 325524, Note_off_c, 1, 48, 64
3, 325560, Note_on_c, 1, 60, 105
3, 325644, Note_off_c, 1, 60, 64
3, 325680, Note_on_c, 1, 60, 105
3, 325764, Note_off_c, 1, 60, 64
3, 325800, Note_on_c, 1, 60, 105
3, 325884, Note_off_c, 1, 60, 64
3, 325920, Note_on_c, 1, 60, 105
3, 326112, Note_off_c, 1, 60, 64
3, 326400, Note_on_c, 1, 57, 105
3, 326484, Note_off_c, 1, 57, 64
3, 326520, Note_on_c, 1, 57, 105
3, 326604, Note_off_c, 1, 57, 64
3, 326640, Note_on_c, 1, 57, 105
3, 326724, Note_off_c, 1, 57, 64
3, 326760, Note_on_c, 1, 57, 105
3, 326844, Note_off_c, 1, 57, 64
3, 326880, Note_on_c, 1, 57, 105
3, 327048, Note_off_c, 1, 57, 64
3, 327360, Note_on_c, 1, 52, 105
3, 327444, Note_off_c, 1, 52, 64
3, 327480, Note_on_c, 1, 52, 105
3, 327564, Note_off_c, 1, 52, 64
3, 327600, Note_on_c, 1, 52, 105
3, 327684, Note_off_c, 1, 52, 64
3, 327720, Note_on_c, 1, 52, 105
3, 327804, Note_off_c, 1, 52, 64
3, 327840, Note_on_c, 1, 52, 105
3, 328008, Note_off_c, 1, 52, 64
3, 328320, Note_on_c, 1, 53, 105
3, 328404, Note_off_c, 1, 53, 64
3, 328440, Note_on_c, 1, 53, 105
3, 328524, Note_off_c, 1, 53, 64
3, 328560, Note_on_c, 1, 53, 105
3, 328644, Note_off_c, 1, 53, 64
3, 328680, Note_on_c, 1, 53, 105
3, 328764, Note_off_c, 1, 53, 64
3, 328800, Note_on_c, 1, 50, 105
3, 328884, Note_off_c, 1, 50, 64
3, 328920, Note_on_c, 1, 50, 105
3, 329004, Note_off_c, 1, 50, 64
3, 329040, Note_on_c, 1, 50, 105
3, 329124, Note_off_c, 1, 50, 64
3, 329160, Note_on_c, 1, 50, 105
3, 329244, Note_off_c, 1, 50, 64
3, 329280, Note_on_c, 1, 47, 105
3, 329424, Note_off_c, 1, 47, 64
3, 329520, Note_on_c, 1, 59, 105
3, 329664, Note_off_c, 1, 59, 64
3, 330000, Note_on_c, 1, 59, 105
3, 330144, Note_off_c, 1, 59, 64
3, 330240, Note_on_c, 1, 60, 105
3, 330396, Note_off_c, 1, 60, 64
3, 330480, Note_on_c, 1, 53, 105
3, 330636, Note_off_c, 1, 53, 64
3, 330720, Note_on_c, 1, 55, 105
3, 330876, Note_off_c, 1, 55, 64
3, 330960, Note_on_c, 1, 43, 105
3, 331116, Note_off_c, 1, 43, 64
3, 331200, Note_on_c, 1, 48, 105
3, 331284, Note_off_c, 1, 48, 64
3, 331320, Note_on_c, 1, 60, 105
3, 331404, Note_off_c, 1, 60, 64
3, 331440, Note_on_c, 1, 60, 105
3, 331524, Note_off_c, 1, 60, 64
3, 331560, Note_on_c, 1, 60, 105
3, 331644, Note_off_c, 1, 60, 64
3, 331680, Note_on_c, 1, 60, 105
3, 331872, Note_off_c, 1, 60, 64
3, 332160, Note_on_c, 1, 57, 105
3, 332244, Note_off_c, 1, 57, 64
3, 332280, Note_on_c, 1, 57, 105
3, 332364, Note_off_c, 1, 57, 64
3, 332400, Note_on_c, 1, 57, 105
3, 332484, Note_off_c, 1, 57, 64
3, 332520, Note_on_c, 1, 57, 105
3, 332604, Note_off_c, 1, 57, 64
3, 332640, Note_on_c, 1, 57, 105
3, 332808, Note_off_c, 1, 57, 64
3, 333120, Note_on_c, 1, 52, 105
3, 333204, Note_off_c, 1, 52, 64
3, 333240, Note_on_c, 1, 52, 105
3, 333324, Note_off_c, 1, 52, 64
3, 333360, Note_on_c, 1, 52, 105
3, 333444, Note_off_c, 1, 52, 64
3, 333480, Note_on_c, 1, 52, 105
3, 333564, Note_off_c, 1, 52, 64
3, 333600, Note_on_c, 1, 52, 105
3, 333768, Note_off_c, 1, 52, 64
3, 334080, Note_on_c, 1, 53, 105
3, 334164, Note_off_c, 1, 53, 64
3, 334200, Note_on_c, 1, 53, 105
3, 334284, Note_off_c, 1, 53, 64
3, 334320, Note_on_c, 1, 53, 105
3, 334404, Note_off_c, 1, 53, 64
3, 334440, Note_on_c, 1, 53, 105
3, 334524, Note_off_c, 1, 53, 64
3, 334560, Note_on_c, 1, 50, 105
3, 334644, Note_off_c, 1, 50, 64
3, 334680, Note_on_c, 1, 50, 105
3, 334764, Note_off_c, 1, 50, 64
3, 334800, Note_on_c, 1, 50, 105
3, 334884, Note_off_c, 1, 50, 64
3, 334920, Note_on_c, 1, 50, 105
3, 335004, Note_off_c, 1, 50, 64
3, 335040, Note_on_c, 1, 47, 105
3, 335184, Note_off_c, 1, 47, 64
3, 335280, Note_on_c, 1, 59, 105
3, 335424, Note_off_c, 1, 59, 64
3, 338640, Note_on_c, 1, 56, 72
3, 338880, Note_off_c, 1, 56, 64
3, 338880, Note_on_c, 1, 55, 72
3, 339072, Note_off_c, 1, 55, 64
3, 339600, Note_on_c, 1, 67, 72
3, 339600, Note_on_c, 1, 64, 72
3, 340032, Note_off_c, 1, 64, 64
3, 340032, Note_off_c, 1, 67, 64
3, 340080, Note_on_c, 1, 65, 72
3, 340080, Note_on_c, 1, 62, 72
3, 340560, Note_off_c, 1, 62, 64
3, 340560, Note_off_c, 1, 65, 64
3, 340560, Note_on_c, 1, 59, 72
3, 340560, Note_on_c, 1, 62, 72
3, 340752, Note_off_c, 1, 62, 64
3, 340752, Note_off_c, 1, 59, 64
3, 340800, Note_on_c, 1, 60, 105
3, 341088, Note_off_c, 1, 60, 64
3, 341160, Note_on_c, 1, 55, 105
3, 341232, Note_off_c, 1, 55, 64
3, 341280, Note_on_c, 1, 52, 105
3, 341280, Note_on_c, 1, 60, 105
3, 341352, Note_off_c, 1, 60, 64
3, 341352, Note_off_c, 1, 52, 64
3, 341400, Note_on_c, 1, 50, 105
3, 341400, Note_on_c, 1, 59, 105
3, 341472, Note_off_c, 1, 59, 64
3, 341472, Note_off_c, 1, 50, 64
3, 341520, Note_on_c, 1, 52, 105
3, 341520, Note_on_c, 1, 60, 105
3, 341592, Note_off_c, 1, 60, 64
3, 341592, Note_off_c, 1, 52, 64
3, 341640, Note_on_c, 1, 62, 105
3, 341640, Note_on_c, 1, 53, 105
3, 341712, Note_off_c, 1, 53, 64
3, 341712, Note_off_c, 1, 62, 64
3, 341760, Note_on_c, 1, 55, 105
3, 341760, Note_on_c, 1, 64, 105
3, 342048, Note_off_c, 1, 64, 64
3, 342048, Note_off_c, 1, 55, 64
3, 342120, Note_on_c, 1, 63, 105
3, 342120, Note_on_c, 1, 54, 105
3, 342192, Note_off_c, 1, 54, 64
3, 342192, Note_off_c, 1, 63, 64
3, 342240, Note_on_c, 1, 55, 105
3, 342240, Note_on_c, 1, 64, 105
3, 342312, Note_off_c, 1, 64, 64
3, 342312, Note_off_c, 1, 55, 64
3, 342360, Note_on_c, 1, 54, 105
3, 342360, Note_on_c, 1, 63, 105
3, 342432, Note_off_c, 1, 63, 64
3, 342432, Note_off_c, 1, 54, 64
3, 342480, Note_on_c, 1, 64, 105
3, 342480, Note_on_c, 1, 55, 105
3, 342552, Note_off_c, 1, 55, 64
3, 342552, Note_off_c, 1, 64, 64
3, 342600, Note_on_c, 1, 63, 105
3, 342600, Note_on_c, 1, 54, 105
3, 342672, Note_off_c, 1, 54, 64
3, 342672, Note_off_c, 1, 63, 64
3, 342720, Note_on_c, 1, 55, 105
3, 342720, Note_on_c, 1, 64, 105
3, 342888, Note_off_c, 1, 64, 64
3, 342888, Note_off_c, 1, 55, 64
3, 342960, Note_on_c, 1, 60, 105
3, 342960, Note_on_c, 1, 52, 105
3, 343128, Note_off_c, 1, 52, 64
3, 343128, Note_off_c, 1, 60, 64
3, 343200, Note_on_c, 1, 62, 105
3, 343200, Note_on_c, 1, 53, 105
3, 343368, Note_off_c, 1, 53, 64
3, 343368, Note_off_c, 1, 62, 64
3, 343440, Note_on_c, 1, 59, 105
3, 343440, Note_on_c, 1, 50, 105
3, 343608, Note_off_c, 1, 50, 64
3, 343608, Note_off_c, 1, 59, 64
3, 343680, Note_on_c, 1, 60, 105
3, 343680, Note_on_c, 1, 52, 105
3, 343872, Note_off_c, 1, 52, 64
3, 343872, Note_off_c, 1, 60, 64
3, 344040, Note_on_c, 1, 55, 105
3, 344112, Note_off_c, 1, 55, 64
3, 344160, Note_on_c, 1, 52, 105
3, 344160, Note_on_c, 1, 60, 105
3, 344232, Note_off_c, 1, 60, 64
3, 344232, Note_off_c, 1, 52, 64
3, 344280, Note_on_c, 1, 50, 105
3, 344280, Note_on_c, 1, 59, 105
3, 344352, Note_off_c, 1, 59, 64
3, 344352, Note_off_c, 1, 50, 64
3, 344400, Note_on_c, 1, 60, 105
3, 344400, Note_on_c, 1, 52, 105
3, 344472, Note_off_c, 1, 52, 64
3, 344472, Note_off_c, 1, 60, 64
3, 344520, Note_on_c, 1, 53, 105
3, 344520, Note_on_c, 1, 62, 105
3, 344592, Note_off_c, 1, 62, 64
3, 344592, Note_off_c, 1, 53, 64
3, 344640, Note_on_c, 1, 64, 105
3, 344640, Note_on_c, 1, 55, 105
3, 344736, Note_off_c, 1, 55, 64
3, 344736, Note_off_c, 1, 64, 64
3, 344760, Note_on_c, 1, 55, 105
3, 344760, Note_on_c, 1, 64, 105
3, 344952, Note_off_c, 1, 64, 64
3, 344952, Note_off_c, 1, 55, 64
3, 345000, Note_on_c, 1, 63, 105
3, 345000, Note_on_c, 1, 54, 105
3, 345072, Note_off_c, 1, 54, 64
3, 345072, Note_off_c, 1, 63, 64
3, 345120, Note_on_c, 1, 55, 105
3, 345120, Note_on_c, 1, 64, 105
3, 345192, Note_off_c, 1, 64, 64
3, 345192, Note_off_c, 1, 55, 64
3, 345240, Note_on_c, 1, 63, 105
3, 345240, Note_on_c, 1, 54, 105
3, 345312, Note_off_c, 1, 54, 64
3, 345312, Note_off_c, 1, 63, 64
3, 345360, Note_on_c, 1, 64, 105
3, 345360, Note_on_c, 1, 55, 105
3, 345432, Note_off_c, 1, 55, 64
3, 345432, Note_off_c, 1, 64, 64
3, 345480, Note_on_c, 1, 54, 105
3, 345480, Note_on_c, 1, 63, 105
3, 345552, Note_off_c, 1, 63, 64
3, 345552, Note_off_c, 1, 54, 64
3, 345600, Note_on_c, 1, 64, 105
3, 345600, Note_on_c, 1, 55, 105
3, 345768, Note_off_c, 1, 55, 64
3, 345768, Note_off_c, 1, 64, 64
3, 345840, Note_on_c, 1, 60, 105
3, 345840, Note_on_c, 1, 52, 105
3, 346008, Note_off_c, 1, 52, 64
3, 346008, Note_off_c, 1, 60, 64
3, 346080, Note_on_c, 1, 53, 105
3, 346080, Note_on_c, 1, 62, 105
3, 346248, Note_off_c, 1, 62, 64
3, 346248, Note_off_c, 1, 53, 64
3, 346320, Note_on_c, 1, 59, 105
3, 346320, Note_on_c, 1, 50, 105
3, 346488, Note_off_c, 1, 50, 64
3, 346488, Note_off_c, 1, 59, 64
3, 346560, Note_on_c, 1, 55, 72
3, 346560, Note_on_c, 1, 64, 72
3, 346638, Note_off_c, 1, 64, 64
3, 346638, Note_off_c, 1, 55, 64
3, 346680, Note_on_c, 1, 64, 72
3, 346680, Note_on_c, 1, 55, 72
3, 346758, Note_off_c, 1, 55, 64
3, 346758, Note_off_c, 1, 64, 64
3, 346800, Note_on_c, 1, 60, 72
3, 346800, Note_on_c, 1, 52, 72
3, 346878, Note_off_c, 1, 52, 64
3, 346878, Note_off_c, 1, 60, 64
3, 346920, Note_on_c, 1, 60, 72
3, 346920, Note_on_c, 1, 52, 72
3, 346998, Note_off_c, 1, 52, 64
3, 346998, Note_off_c, 1, 60, 64
3, 347040, Note_on_c, 1, 62, 72
3, 347040, Note_on_c, 1, 53, 72
3, 347118, Note_off_c, 1, 53, 64
3, 347118, Note_off_c, 1, 62, 64
3, 347160, Note_on_c, 1, 62, 72
3, 347160, Note_on_c, 1, 53, 72
3, 347238, Note_off_c, 1, 53, 64
3, 347238, Note_off_c, 1, 62, 64
3, 347280, Note_on_c, 1, 59, 72
3, 347280, Note_on_c, 1, 50, 72
3, 347358, Note_off_c, 1, 50, 64
3, 347358, Note_off_c, 1, 59, 64
3, 347400, Note_on_c, 1, 50, 72
3, 347400, Note_on_c, 1, 59, 72
3, 347478, Note_off_c, 1, 59, 64
3, 347478, Note_off_c, 1, 50, 64
3, 347520, Note_on_c, 1, 55, 105
3, 347520, Note_on_c, 1, 64, 105
3, 347598, Note_off_c, 1, 64, 64
3, 347598, Note_off_c, 1, 55, 64
3, 347640, Note_on_c, 1, 64, 105
3, 347640, Note_on_c, 1, 55, 105
3, 347718, Note_off_c, 1, 55, 64
3, 347718, Note_off_c, 1, 64, 64
3, 347760, Note_on_c, 1, 60, 105
3, 347760, Note_on_c, 1, 52, 105
3, 347838, Note_off_c, 1, 52, 64
3, 347838, Note_off_c, 1, 60, 64
3, 347880, Note_on_c, 1, 52, 105
3, 347880, Note_on_c, 1, 60, 105
3, 347958, Note_off_c, 1, 60, 64
3, 347958, Note_off_c, 1, 52, 64
3, 348000, Note_on_c, 1, 53, 105
3, 348000, Note_on_c, 1, 62, 105
3, 348078, Note_off_c, 1, 62, 64
3, 348078, Note_off_c, 1, 53, 64
3, 348120, Note_on_c, 1, 62, 105
3, 348120, Note_on_c, 1, 53, 105
3, 348198, Note_off_c, 1, 53, 64
3, 348198, Note_off_c, 1, 62, 64
3, 348240, Note_on_c, 1, 50, 105
3, 348240, Note_on_c, 1, 59, 105
3, 348318, Note_off_c, 1, 59, 64
3, 348318, Note_off_c, 1, 50, 64
3, 348360, Note_on_c, 1, 50, 105
3, 348360, Note_on_c, 1, 59, 105
3, 348438, Note_off_c, 1, 59, 64
3, 348438, Note_off_c, 1, 50, 64
3, 348480, Note_on_c, 1, 60, 105
3, 348480, Note_on_c, 1, 52, 105
3, 348672, Note_off_c, 1, 52, 64
3, 348672, Note_off_c, 1, 60, 64
3, 352680, Note_on_c, 1, 57, 72
3, 352800, Note_off_c, 1, 57, 64
3, 352800, Note_on_c, 1, 62, 72
3, 352920, Note_off_c, 1, 62, 64
3, 352920, Note_on_c, 1, 61, 72
3, 353040, Note_off_c, 1, 61, 64
3, 353040, Note_on_c, 1, 64, 72
3, 353160, Note_off_c, 1, 64, 64
3, 353160, Note_on_c, 1, 62, 72
3, 353280, Note_off_c, 1, 62, 64
3, 353280, Note_on_c, 1, 65, 58
3, 353472, Note_off_c, 1, 65, 64
3, 357480, Note_on_c, 1, 55, 72
3, 357576, Note_off_c, 1, 55, 64
3, 357600, Note_on_c, 1, 60, 72
3, 357720, Note_off_c, 1, 60, 64
3, 357720, Note_on_c, 1, 59, 72
3, 357840, Note_off_c, 1, 59, 64
3, 357840, Note_on_c, 1, 62, 72
3, 357960, Note_off_c, 1, 62, 64
3, 357960, Note_on_c, 1, 60, 72
3, 358056, Note_off_c, 1, 60, 64
3, 358080, Note_on_c, 1, 64, 58
3, 358224, Note_off_c, 1, 64, 64
3, 359400, Note_on_c, 1, 55, 58
3, 359496, Note_off_c, 1, 55, 64
3, 359520, Note_on_c, 1, 60, 72
3, 359640, Note_off_c, 1, 60, 64
3, 359640, Note_on_c, 1, 59, 72
3, 359760, Note_off_c, 1, 59, 64
3, 359760, Note_on_c, 1, 62, 72
3, 359880, Note_off_c, 1, 62, 64
3, 359880, Note_on_c, 1, 60, 72
3, 359976, Note_off_c, 1, 60, 64
3, 360000, Note_on_c, 1, 64, 58
3, 360144, Note_off_c, 1, 64, 64
3, 363000, Note_on_c, 1, 55, 105
3, 363120, Note_off_c, 1, 55, 64
3, 363120, Note_on_c, 1, 60, 105
3, 363240, Note_off_c, 1, 60, 64
3, 363240, Note_on_c, 1, 59, 105
3, 363360, Note_off_c, 1, 59, 64
3, 363360, Note_on_c, 1, 62, 105
3, 363480, Note_off_c, 1, 62, 64
3, 363480, Note_on_c, 1, 60, 105
3, 363600, Note_off_c, 1, 60, 64
3, 363600, Note_on_c, 1, 65, 105
3, 363720, Note_off_c, 1, 65, 64
3, 363720, Note_on_c, 1, 64, 105
3, 363816, Note_off_c, 1, 64, 64
3, 363840, Note_on_c, 1, 64, 105
3, 364224, Note_off_c, 1, 64, 64
3, 364320, Note_on_c, 1, 48, 105
3, 364680, Note_off_c, 1, 48, 64
3, 364680, Note_on_c, 1, 50, 105
3, 364740, Note_off_c, 1, 50, 64
3, 364740, Note_on_c, 1, 52, 105
3, 364800, Note_off_c, 1, 52, 64
3, 364800, Note_on_c, 1, 53, 105
3, 364968, Note_off_c, 1, 53, 64
3, 365040, Note_on_c, 1, 50, 105
3, 365208, Note_off_c, 1, 50, 64
3, 365280, Note_on_c, 1, 55, 105
3, 365640, Note_off_c, 1, 55, 64
3, 365640, Note_on_c, 1, 57, 105
3, 365670, Note_off_c, 1, 57, 64
3, 365670, Note_on_c, 1, 59, 105
3, 365700, Note_off_c, 1, 59, 64
3, 365700, Note_on_c, 1, 60, 105
3, 365730, Note_off_c, 1, 60, 64
3, 365730, Note_on_c, 1, 62, 105
3, 365754, Note_off_c, 1, 62, 64
3, 365760, Note_on_c, 1, 64, 105
3, 366144, Note_off_c, 1, 64, 64
3, 366240, Note_on_c, 1, 48, 105
3, 366600, Note_off_c, 1, 48, 64
3, 366600, Note_on_c, 1, 50, 105
3, 366660, Note_off_c, 1, 50, 64
3, 366660, Note_on_c, 1, 52, 105
3, 366720, Note_off_c, 1, 52, 64
3, 366720, Note_on_c, 1, 53, 105
3, 366888, Note_off_c, 1, 53, 64
3, 366960, Note_on_c, 1, 50, 105
3, 367128, Note_off_c, 1, 50, 64
3, 367200, Note_on_c, 1, 55, 105
3, 367368, Note_off_c, 1, 55, 64
3, 367440, Note_on_c, 1, 43, 105
3, 367608, Note_off_c, 1, 43, 64
3, 367680, Note_on_c, 1, 48, 105
3, 367872, Note_off_c, 1, 48, 64
3, 368160, Note_on_c, 1, 48, 105
3, 368328, Note_off_c, 1, 48, 64
3, 368400, Note_on_c, 1, 48, 105
3, 368568, Note_off_c, 1, 48, 64
3, 368640, Note_on_c, 1, 48, 105
3, 368832, Note_off_c, 1, 48, 64
3, 369120, Note_on_c, 1, 48, 105
3, 369288, Note_off_c, 1, 48, 64
3, 369360, Note_on_c, 1, 48, 105
3, 369528, Note_off_c, 1, 48, 64
3, 369600, Note_on_c, 1, 48, 105
3, 369828, Note_off_c, 1, 48, 64
3, 369828, End_track
4, 0, Start_track
4, 0, Program_c, 2, 60
4, 0, Control_c, 2, 7, 116
4, 0, Control_c, 2, 91, 70
4, 0, Control_c, 2, 10, 92
4, 720, Note_on_c, 2, 60, 105
4, 720, Note_on_c, 2, 48, 105
4, 834, Note_off_c, 2, 48, 64
4, 834, Note_off_c, 2, 60, 64
4, 930, Note_on_c, 2, 60, 105
4, 930, Note_on_c, 2, 48, 105
4, 954, Note_off_c, 2, 48, 64
4, 954, Note_off_c, 2, 60, 64
4, 960, Note_on_c, 2, 64, 105
4, 960, Note_on_c, 2, 52, 105
4, 1074, Note_off_c, 2, 52, 64
4, 1074, Note_off_c, 2, 64, 64
4, 1170, Note_on_c, 2, 64, 105
4, 1170, Note_on_c, 2, 52, 105
4, 1194, Note_off_c, 2, 52, 64
4, 1194, Note_off_c, 2, 64, 64
4, 1200, Note_on_c, 2, 60, 105
4, 1200, Note_on_c, 2, 48, 105
4, 1314, Note_off_c, 2, 48, 64
4, 1314, Note_off_c, 2, 60, 64
4, 1410, Note_on_c, 2, 48, 105
4, 1410, Note_on_c, 2, 60, 105
4, 1434, Note_off_c, 2, 60, 64
4, 1434, Note_off_c, 2, 48, 64
4, 1440, Note_on_c, 2, 55, 105
4, 1440, Note_on_c, 2, 43, 105
4, 1536, Note_off_c, 2, 43, 64
4, 1536, Note_off_c, 2, 55, 64
4, 1650, Note_on_c, 2, 55, 105
4, 1650, Note_on_c, 2, 62, 105
4, 1674, Note_off_c, 2, 62, 64
4, 1674, Note_off_c, 2, 55, 64
4, 1680, Note_on_c, 2, 55, 105
4, 1680, Note_on_c, 2, 62, 105
4, 1920, Note_off_c, 2, 62, 64
4, 1920, Note_off_c, 2, 55, 64
4, 2370, Note_on_c, 2, 48, 105
4, 2370, Note_on_c, 2, 60, 105
4, 2394, Note_off_c, 2, 60, 64
4, 2394, Note_off_c, 2, 48, 64
4, 2400, Note_on_c, 2, 60, 105
4, 2400, Note_on_c, 2, 48, 105
4, 2640, Note_off_c, 2, 48, 64
4, 2640, Note_off_c, 2, 60, 64
4, 3600, Note_on_c, 2, 60, 58
4, 3600, Note_on_c, 2, 48, 58
4, 5760, Note_off_c, 2, 48, 64
4, 5760, Note_off_c, 2, 60, 64
4, 11520, Note_on_c, 2, 43, 58
4, 11520, Note_on_c, 2, 55, 58
4, 13056, Note_off_c, 2, 43, 64
4, 13056, Note_off_c, 2, 55, 64
4, 13200, Note_on_c, 2, 55, 58
4, 13200, Note_on_c, 2, 62, 58
4, 13296, Note_off_c, 2, 62, 64
4, 13296, Note_off_c, 2, 55, 64
4, 13440, Note_on_c, 2, 62, 58
4, 13440, Note_on_c, 2, 55, 58
4, 13536, Note_off_c, 2, 55, 64
4, 13536, Note_off_c, 2, 62, 64
4, 13680, Note_on_c, 2, 55, 58
4, 13680, Note_on_c, 2, 62, 58
4, 13776, Note_off_c, 2, 62, 64
4, 13776, Note_off_c, 2, 55, 64
4, 13920, Note_on_c, 2, 55, 116
4, 13920, Note_on_c, 2, 43, 116
4, 14148, Note_off_c, 2, 43, 64
4, 14148, Note_off_c, 2, 55, 64
4, 24000, Note_on_c, 2, 60, 105
4, 24000, Note_on_c, 2, 48, 105
4, 26304, Note_off_c, 2, 60, 64
4, 26304, Note_off_c, 2, 48, 64
4, 26640, Note_on_c, 2, 60, 105
4, 26640, Note_on_c, 2, 48, 105
4, 26808, Note_off_c, 2, 48, 64
4, 26808, Note_off_c, 2, 60, 64
4, 26880, Note_on_c, 2, 48, 105
4, 26880, Note_on_c, 2, 60, 105
4, 27048, Note_off_c, 2, 60, 64
4, 27048, Note_off_c, 2, 48, 64
4, 27120, Note_on_c, 2, 48, 105
4, 27120, Note_on_c, 2, 60, 105
4, 27288, Note_off_c, 2, 60, 64
4, 27288, Note_off_c, 2, 48, 64
4, 27600, Note_on_c, 2, 48, 105
4, 27600, Note_on_c, 2, 60, 105
4, 27768, Note_off_c, 2, 60, 64
4, 27768, Note_off_c, 2, 48, 64
4, 27840, Note_on_c, 2, 48, 105
4, 27840, Note_on_c, 2, 60, 105
4, 28008, Note_off_c, 2, 60, 64
4, 28008, Note_off_c, 2, 48, 64
4, 28080, Note_on_c, 2, 48, 105
4, 28080, Note_on_c, 2, 60, 105
4, 28248, Note_off_c, 2, 60, 64
4, 28248, Note_off_c, 2, 48, 64
4, 28560, Note_on_c, 2, 48, 105
4, 28560, Note_on_c, 2, 60, 105
4, 28728, Note_off_c, 2, 60, 64
4, 28728, Note_off_c, 2, 48, 64
4, 28800, Note_on_c, 2, 60, 105
4, 28800, Note_on_c, 2, 48, 105
4, 28968, Note_off_c, 2, 48, 64
4, 28968, Note_off_c, 2, 60, 64
4, 29040, Note_on_c, 2, 48, 105
4, 29040, Note_on_c, 2, 60, 105
4, 29208, Note_off_c, 2, 60, 64
4, 29208, Note_off_c, 2, 48, 64
4, 29280, Note_on_c, 2, 60, 105
4, 29280, Note_on_c, 2, 48, 105
4, 29448, Note_off_c, 2, 48, 64
4, 29448, Note_off_c, 2, 60, 64
4, 29520, Note_on_c, 2, 60, 105
4, 29520, Note_on_c, 2, 48, 105
4, 29688, Note_off_c, 2, 48, 64
4, 29688, Note_off_c, 2, 60, 64
4, 29760, Note_on_c, 2, 48, 105
4, 29760, Note_on_c, 2, 60, 105
4, 29928, Note_off_c, 2, 60, 64
4, 29928, Note_off_c, 2, 48, 64
4, 30000, Note_on_c, 2, 60, 105
4, 30000, Note_on_c, 2, 48, 105
4, 30168, Note_off_c, 2, 48, 64
4, 30168, Note_off_c, 2, 60, 64
4, 30720, Note_on_c, 2, 48, 58
4, 30720, Note_on_c, 2, 60, 58
4, 32832, Note_off_c, 2, 60, 64
4, 32832, Note_off_c, 2, 48, 64
4, 35520, Note_on_c, 2, 48, 105
4, 35520, Note_on_c, 2, 60, 105
4, 35688, Note_off_c, 2, 60, 64
4, 35688, Note_off_c, 2, 48, 64
4, 35760, Note_on_c, 2, 60, 105
4, 35760, Note_on_c, 2, 48, 105
4, 35886, Note_off_c, 2, 48, 64
4, 35886, Note_off_c, 2, 60, 64
4, 35940, Note_on_c, 2, 48, 105
4, 35940, Note_on_c, 2, 60, 105
4, 35982, Note_off_c, 2, 60, 64
4, 35982, Note_off_c, 2, 48, 64
4, 36000, Note_on_c, 2, 48, 105
4, 36000, Note_on_c, 2, 60, 105
4, 36168, Note_off_c, 2, 60, 64
4, 36168, Note_off_c, 2, 48, 64
4, 36240, Note_on_c, 2, 48, 105
4, 36240, Note_on_c, 2, 60, 105
4, 36408, Note_off_c, 2, 60, 64
4, 36408, Note_off_c, 2, 48, 64
4, 36480, Note_on_c, 2, 55, 105
4, 36480, Note_on_c, 2, 62, 105
4, 36648, Note_off_c, 2, 62, 64
4, 36648, Note_off_c, 2, 55, 64
4, 36720, Note_on_c, 2, 62, 105
4, 36720, Note_on_c, 2, 55, 105
4, 36846, Note_off_c, 2, 55, 64
4, 36846, Note_off_c, 2, 62, 64
4, 36900, Note_on_c, 2, 62, 105
4, 36900, Note_on_c, 2, 55, 105
4, 36942, Note_off_c, 2, 55, 64
4, 36942, Note_off_c, 2, 62, 64
4, 36960, Note_on_c, 2, 62, 105
4, 36960, Note_on_c, 2, 55, 105
4, 37128, Note_off_c, 2, 55, 64
4, 37128, Note_off_c, 2, 62, 64
4, 37200, Note_on_c, 2, 62, 105
4, 37200, Note_on_c, 2, 55, 105
4, 37368, Note_off_c, 2, 55, 64
4, 37368, Note_off_c, 2, 62, 64
4, 37440, Note_on_c, 2, 64, 105
4, 37440, Note_on_c, 2, 60, 105
4, 37824, Note_off_c, 2, 60, 64
4, 37824, Note_off_c, 2, 64, 64
4, 37920, Note_on_c, 2, 64, 105
4, 37920, Note_on_c, 2, 60, 105
4, 38304, Note_off_c, 2, 60, 64
4, 38304, Note_off_c, 2, 64, 64
4, 38400, Note_on_c, 2, 62, 105
4, 38400, Note_on_c, 2, 65, 105
4, 38784, Note_off_c, 2, 65, 64
4, 38784, Note_off_c, 2, 62, 64
4, 38880, Note_on_c, 2, 60, 105
4, 38880, Note_on_c, 2, 64, 105
4, 39048, Note_off_c, 2, 64, 64
4, 39048, Note_off_c, 2, 60, 64
4, 39120, Note_on_c, 2, 62, 105
4, 39120, Note_on_c, 2, 55, 105
4, 39288, Note_off_c, 2, 55, 64
4, 39288, Note_off_c, 2, 62, 64
4, 39360, Note_on_c, 2, 60, 105
4, 39360, Note_on_c, 2, 48, 105
4, 39528, Note_off_c, 2, 48, 64
4, 39528, Note_off_c, 2, 60, 64
4, 39600, Note_on_c, 2, 60, 105
4, 39600, Note_on_c, 2, 48, 105
4, 39726, Note_off_c, 2, 48, 64
4, 39726, Note_off_c, 2, 60, 64
4, 39780, Note_on_c, 2, 48, 105
4, 39780, Note_on_c, 2, 60, 105
4, 39822, Note_off_c, 2, 60, 64
4, 39822, Note_off_c, 2, 48, 64
4, 39840, Note_on_c, 2, 60, 105
4, 39840, Note_on_c, 2, 48, 105
4, 40008, Note_off_c, 2, 48, 64
4, 40008, Note_off_c, 2, 60, 64
4, 40080, Note_on_c, 2, 60, 105
4, 40080, Note_on_c, 2, 48, 105
4, 40248, Note_off_c, 2, 48, 64
4, 40248, Note_off_c, 2, 60, 64
4, 40320, Note_on_c, 2, 55, 105
4, 40320, Note_on_c, 2, 62, 105
4, 40488, Note_off_c, 2, 62, 64
4, 40488, Note_off_c, 2, 55, 64
4, 40560, Note_on_c, 2, 55, 105
4, 40560, Note_on_c, 2, 62, 105
4, 40686, Note_off_c, 2, 62, 64
4, 40686, Note_off_c, 2, 55, 64
4, 40740, Note_on_c, 2, 55, 105
4, 40740, Note_on_c, 2, 62, 105
4, 40782, Note_off_c, 2, 62, 64
4, 40782, Note_off_c, 2, 55, 64
4, 40800, Note_on_c, 2, 55, 105
4, 40800, Note_on_c, 2, 62, 105
4, 40968, Note_off_c, 2, 62, 64
4, 40968, Note_off_c, 2, 55, 64
4, 41040, Note_on_c, 2, 55, 105
4, 41040, Note_on_c, 2, 62, 105
4, 41208, Note_off_c, 2, 62, 64
4, 41208, Note_off_c, 2, 55, 64
4, 41280, Note_on_c, 2, 64, 105
4, 41280, Note_on_c, 2, 60, 105
4, 42048, Note_off_c, 2, 64, 64
4, 42240, Note_on_c, 2, 62, 105
4, 43008, Note_off_c, 2, 60, 64
4, 43200, Note_on_c, 2, 55, 105
4, 43584, Note_off_c, 2, 62, 64
4, 43584, Note_off_c, 2, 55, 64
4, 43680, Note_on_c, 2, 52, 105
4, 43680, Note_on_c, 2, 64, 105
4, 44064, Note_off_c, 2, 64, 64
4, 44064, Note_off_c, 2, 52, 64
4, 44160, Note_on_c, 2, 64, 105
4, 44160, Note_on_c, 2, 52, 105
4, 44928, Note_off_c, 2, 52, 64
4, 44928, Note_off_c, 2, 64, 64
4, 45120, Note_on_c, 2, 60, 105
4, 45120, Note_on_c, 2, 62, 105
4, 45312, Note_off_c, 2, 62, 64
4, 45312, Note_off_c, 2, 60, 64
4, 45360, Note_on_c, 2, 62, 105
4, 45360, Note_on_c, 2, 60, 105
4, 45504, Note_off_c, 2, 60, 64
4, 45504, Note_off_c, 2, 62, 64
4, 45540, Note_on_c, 2, 62, 105
4, 45540, Note_on_c, 2, 60, 105
4, 45588, Note_off_c, 2, 60, 64
4, 45588, Note_off_c, 2, 62, 64
4, 45600, Note_on_c, 2, 62, 105
4, 45600, Note_on_c, 2, 60, 105
4, 45792, Note_off_c, 2, 60, 64
4, 45792, Note_off_c, 2, 62, 64
4, 45840, Note_on_c, 2, 62, 105
4, 45840, Note_on_c, 2, 60, 105
4, 46032, Note_off_c, 2, 60, 64
4, 46032, Note_off_c, 2, 62, 64
4, 46080, Note_on_c, 2, 62, 105
4, 46080, Note_on_c, 2, 55, 105
4, 46272, Note_off_c, 2, 55, 64
4, 46272, Note_off_c, 2, 62, 64
4, 46800, Note_on_c, 2, 62, 105
4, 46884, Note_off_c, 2, 62, 64
4, 46920, Note_on_c, 2, 62, 105
4, 47004, Note_off_c, 2, 62, 64
4, 47040, Note_on_c, 2, 62, 105
4, 47208, Note_off_c, 2, 62, 64
4, 47280, Note_on_c, 2, 62, 105
4, 47448, Note_off_c, 2, 62, 64
4, 47520, Note_on_c, 2, 62, 105
4, 47904, Note_off_c, 2, 62, 64
4, 48000, Note_on_c, 2, 62, 105
4, 48000, Note_on_c, 2, 55, 105
4, 48192, Note_off_c, 2, 55, 64
4, 48192, Note_off_c, 2, 62, 64
4, 48720, Note_on_c, 2, 62, 105
4, 48804, Note_off_c, 2, 62, 64
4, 48840, Note_on_c, 2, 62, 105
4, 48924, Note_off_c, 2, 62, 64
4, 48960, Note_on_c, 2, 62, 105
4, 49128, Note_off_c, 2, 62, 64
4, 49200, Note_on_c, 2, 62, 105
4, 49368, Note_off_c, 2, 62, 64
4, 49440, Note_on_c, 2, 62, 105
4, 49824, Note_off_c, 2, 62, 64
4, 49920, Note_on_c, 2, 62, 105
4, 49920, Note_on_c, 2, 55, 105
4, 50112, Note_off_c, 2, 55, 64
4, 50112, Note_off_c, 2, 62, 64
4, 50880, Note_on_c, 2, 60, 105
4, 50880, Note_on_c, 2, 64, 105
4, 51072, Note_off_c, 2, 64, 64
4, 51072, Note_off_c, 2, 60, 64
4, 51840, Note_on_c, 2, 60, 105
4, 51840, Note_on_c, 2, 64, 105
4, 52032, Note_off_c, 2, 64, 64
4, 52032, Note_off_c, 2, 60, 64
4, 53760, Note_on_c, 2, 64, 105
4, 53760, Note_on_c, 2, 52, 105
4, 53832, Note_off_c, 2, 52, 64
4, 53832, Note_off_c, 2, 64, 64
4, 53880, Note_on_c, 2, 64, 105
4, 53880, Note_on_c, 2, 52, 105
4, 53952, Note_off_c, 2, 52, 64
4, 53952, Note_off_c, 2, 64, 64
4, 54000, Note_on_c, 2, 64, 105
4, 54000, Note_on_c, 2, 52, 105
4, 54072, Note_off_c, 2, 52, 64
4, 54072, Note_off_c, 2, 64, 64
4, 54120, Note_on_c, 2, 64, 105
4, 54120, Note_on_c, 2, 52, 105
4, 54192, Note_off_c, 2, 52, 64
4, 54192, Note_off_c, 2, 64, 64
4, 54240, Note_on_c, 2, 64, 105
4, 54240, Note_on_c, 2, 52, 105
4, 54312, Note_off_c, 2, 52, 64
4, 54312, Note_off_c, 2, 64, 64
4, 54360, Note_on_c, 2, 52, 105
4, 54360, Note_on_c, 2, 64, 105
4, 54432, Note_off_c, 2, 64, 64
4, 54432, Note_off_c, 2, 52, 64
4, 54480, Note_on_c, 2, 64, 105
4, 54480, Note_on_c, 2, 52, 105
4, 54552, Note_off_c, 2, 52, 64
4, 54552, Note_off_c, 2, 64, 64
4, 54600, Note_on_c, 2, 52, 105
4, 54600, Note_on_c, 2, 64, 105
4, 54672, Note_off_c, 2, 64, 64
4, 54672, Note_off_c, 2, 52, 64
4, 54720, Note_on_c, 2, 52, 105
4, 54720, Note_on_c, 2, 60, 105
4, 54912, Note_off_c, 2, 60, 64
4, 54912, Note_off_c, 2, 52, 64
4, 60480, Note_on_c, 2, 43, 58
4, 60480, Note_on_c, 2, 55, 58
4, 62016, Note_off_c, 2, 55, 64
4, 62016, Note_off_c, 2, 43, 64
4, 63840, Note_on_c, 2, 64, 105
4, 63840, Note_on_c, 2, 52, 105
4, 63984, Note_off_c, 2, 52, 64
4, 63984, Note_off_c, 2, 64, 64
4, 64080, Note_on_c, 2, 52, 105
4, 64080, Note_on_c, 2, 64, 105
4, 64224, Note_off_c, 2, 64, 64
4, 64224, Note_off_c, 2, 52, 64
4, 64320, Note_on_c, 2, 52, 105
4, 64320, Note_on_c, 2, 64, 105
4, 64512, Note_off_c, 2, 64, 64
4, 64512, Note_off_c, 2, 52, 64
4, 65280, Note_on_c, 2, 52, 105
4, 65280, Note_on_c, 2, 64, 105
4, 65472, Note_off_c, 2, 64, 64
4, 65472, Note_off_c, 2, 52, 64
4, 66240, Note_on_c, 2, 52, 105
4, 66240, Note_on_c, 2, 64, 105
4, 66432, Note_off_c, 2, 64, 64
4, 66432, Note_off_c, 2, 52, 64
4, 67200, Note_on_c, 2, 64, 105
4, 67200, Note_on_c, 2, 52, 105
4, 67392, Note_off_c, 2, 52, 64
4, 67392, Note_off_c, 2, 64, 64
4, 67680, Note_on_c, 2, 55, 58
4, 67680, Note_on_c, 2, 67, 58
4, 67860, Note_off_c, 2, 67, 64
4, 67860, Note_off_c, 2, 55, 64
4, 67920, Note_on_c, 2, 67, 58
4, 67920, Note_on_c, 2, 55, 58
4, 68100, Note_off_c, 2, 55, 64
4, 68100, Note_off_c, 2, 67, 64
4, 68160, Note_on_c, 2, 55, 58
4, 68160, Note_on_c, 2, 67, 58
4, 69312, Note_off_c, 2, 55, 64
4, 69312, Note_off_c, 2, 67, 64
4, 75360, Note_on_c, 2, 60, 105
4, 75360, Note_on_c, 2, 64, 105
4, 75504, Note_off_c, 2, 64, 64
4, 75504, Note_off_c, 2, 60, 64
4, 75600, Note_on_c, 2, 64, 105
4, 75600, Note_on_c, 2, 60, 105
4, 75744, Note_off_c, 2, 60, 64
4, 75744, Note_off_c, 2, 64, 64
4, 75840, Note_on_c, 2, 64, 105
4, 75840, Note_on_c, 2, 60, 105
4, 76224, Note_off_c, 2, 60, 64
4, 76224, Note_off_c, 2, 64, 64
4, 76320, Note_on_c, 2, 55, 105
4, 76320, Note_on_c, 2, 62, 105
4, 76704, Note_off_c, 2, 62, 64
4, 76704, Note_off_c, 2, 55, 64
4, 76800, Note_on_c, 2, 60, 105
4, 76800, Note_on_c, 2, 52, 105
4, 76992, Note_off_c, 2, 52, 64
4, 76992, Note_off_c, 2, 60, 64
4, 77040, Note_on_c, 2, 60, 105
4, 77040, Note_on_c, 2, 52, 105
4, 77136, Note_off_c, 2, 52, 64
4, 77136, Note_off_c, 2, 60, 64
4, 77160, Note_on_c, 2, 60, 105
4, 77160, Note_on_c, 2, 52, 105
4, 77256, Note_off_c, 2, 52, 64
4, 77256, Note_off_c, 2, 60, 64
4, 77280, Note_on_c, 2, 52, 105
4, 77280, Note_on_c, 2, 60, 105
4, 77472, Note_off_c, 2, 60, 64
4, 77472, Note_off_c, 2, 52, 64
4, 77520, Note_on_c, 2, 64, 105
4, 77520, Note_on_c, 2, 60, 105
4, 77712, Note_off_c, 2, 60, 64
4, 77712, Note_off_c, 2, 64, 64
4, 77760, Note_on_c, 2, 62, 105
4, 77952, Note_off_c, 2, 62, 64
4, 78000, Note_on_c, 2, 62, 105
4, 78096, Note_off_c, 2, 62, 64
4, 78120, Note_on_c, 2, 62, 105
4, 78216, Note_off_c, 2, 62, 64
4, 78240, Note_on_c, 2, 62, 105
4, 78432, Note_off_c, 2, 62, 64
4, 78480, Note_on_c, 2, 62, 105
4, 78672, Note_off_c, 2, 62, 64
4, 78720, Note_on_c, 2, 55, 105
4, 78720, Note_on_c, 2, 62, 105
4, 78912, Note_off_c, 2, 62, 64
4, 78912, Note_off_c, 2, 55, 64
4, 80640, Note_on_c, 2, 62, 105
4, 81600, Note_on_c, 2, 55, 105
4, 81768, Note_off_c, 2, 55, 64
4, 81768, Note_off_c, 2, 62, 64
4, 81840, Note_on_c, 2, 55, 105
4, 81840, Note_on_c, 2, 64, 105
4, 82008, Note_off_c, 2, 64, 64
4, 82008, Note_off_c, 2, 55, 64
4, 82080, Note_on_c, 2, 64, 105
4, 82080, Note_on_c, 2, 60, 105
4, 82248, Note_off_c, 2, 60, 64
4, 82248, Note_off_c, 2, 64, 64
4, 82320, Note_on_c, 2, 62, 105
4, 82488, Note_off_c, 2, 62, 64
4, 82560, Note_on_c, 2, 55, 105
4, 82560, Note_on_c, 2, 62, 105
4, 82752, Note_off_c, 2, 62, 64
4, 82752, Note_off_c, 2, 55, 64
4, 84480, Note_on_c, 2, 62, 105
4, 85440, Note_on_c, 2, 55, 105
4, 85608, Note_off_c, 2, 55, 64
4, 85608, Note_off_c, 2, 62, 64
4, 85680, Note_on_c, 2, 55, 105
4, 85680, Note_on_c, 2, 62, 105
4, 85848, Note_off_c, 2, 62, 64
4, 85848, Note_off_c, 2, 55, 64
4, 85920, Note_on_c, 2, 64, 105
4, 85920, Note_on_c, 2, 60, 105
4, 86088, Note_off_c, 2, 60, 64
4, 86088, Note_off_c, 2, 64, 64
4, 86160, Note_on_c, 2, 62, 105
4, 86328, Note_off_c, 2, 62, 64
4, 86400, Note_on_c, 2, 55, 105
4, 86400, Note_on_c, 2, 62, 105
4, 86484, Note_off_c, 2, 62, 64
4, 86484, Note_off_c, 2, 55, 64
4, 86520, Note_on_c, 2, 62, 105
4, 86520, Note_on_c, 2, 55, 105
4, 86604, Note_off_c, 2, 55, 64
4, 86604, Note_off_c, 2, 62, 64
4, 86640, Note_on_c, 2, 62, 105
4, 86640, Note_on_c, 2, 55, 105
4, 86724, Note_off_c, 2, 55, 64
4, 86724, Note_off_c, 2, 62, 64
4, 86760, Note_on_c, 2, 62, 105
4, 86760, Note_on_c, 2, 55, 105
4, 86844, Note_off_c, 2, 55, 64
4, 86844, Note_off_c, 2, 62, 64
4, 86880, Note_on_c, 2, 55, 105
4, 86880, Note_on_c, 2, 62, 105
4, 87072, Note_off_c, 2, 62, 64
4, 87072, Note_off_c, 2, 55, 64
4, 87360, Note_on_c, 2, 55, 105
4, 87360, Note_on_c, 2, 64, 105
4, 87444, Note_off_c, 2, 64, 64
4, 87444, Note_off_c, 2, 55, 64
4, 87480, Note_on_c, 2, 64, 105
4, 87480, Note_on_c, 2, 55, 105
4, 87564, Note_off_c, 2, 55, 64
4, 87564, Note_off_c, 2, 64, 64
4, 87600, Note_on_c, 2, 64, 105
4, 87600, Note_on_c, 2, 55, 105
4, 87684, Note_off_c, 2, 55, 64
4, 87684, Note_off_c, 2, 64, 64
4, 87720, Note_on_c, 2, 55, 105
4, 87720, Note_on_c, 2, 64, 105
4, 87804, Note_off_c, 2, 64, 64
4, 87804, Note_off_c, 2, 55, 64
4, 87840, Note_on_c, 2, 55, 105
4, 87840, Note_on_c, 2, 64, 105
4, 88032, Note_off_c, 2, 64, 64
4, 88032, Note_off_c, 2, 55, 64
4, 88320, Note_on_c, 2, 62, 105
4, 88320, Note_on_c, 2, 55, 105
4, 88404, Note_off_c, 2, 55, 64
4, 88404, Note_off_c, 2, 62, 64
4, 88440, Note_on_c, 2, 62, 105
4, 88440, Note_on_c, 2, 55, 105
4, 88524, Note_off_c, 2, 55, 64
4, 88524, Note_off_c, 2, 62, 64
4, 88560, Note_on_c, 2, 55, 105
4, 88560, Note_on_c, 2, 62, 105
4, 88644, Note_off_c, 2, 62, 64
4, 88644, Note_off_c, 2, 55, 64
4, 88680, Note_on_c, 2, 55, 105
4, 88680, Note_on_c, 2, 62, 105
4, 88764, Note_off_c, 2, 62, 64
4, 88764, Note_off_c, 2, 55, 64
4, 88800, Note_on_c, 2, 55, 105
4, 88800, Note_on_c, 2, 62, 105
4, 88992, Note_off_c, 2, 62, 64
4, 88992, Note_off_c, 2, 55, 64
4, 89280, Note_on_c, 2, 64, 105
4, 89280, Note_on_c, 2, 55, 105
4, 89664, Note_off_c, 2, 55, 64
4, 89664, Note_off_c, 2, 64, 64
4, 89760, Note_on_c, 2, 64, 105
4, 89760, Note_on_c, 2, 60, 105
4, 89928, Note_off_c, 2, 60, 64
4, 89928, Note_off_c, 2, 64, 64
4, 90000, Note_on_c, 2, 60, 105
4, 90000, Note_on_c, 2, 64, 105
4, 90168, Note_off_c, 2, 64, 64
4, 90168, Note_off_c, 2, 60, 64
4, 90240, Note_on_c, 2, 60, 105
4, 90240, Note_on_c, 2, 62, 105
4, 90384, Note_off_c, 2, 62, 64
4, 90384, Note_off_c, 2, 60, 64
4, 90480, Note_on_c, 2, 60, 105
4, 90480, Note_on_c, 2, 62, 105
4, 90624, Note_off_c, 2, 62, 64
4, 90624, Note_off_c, 2, 60, 64
4, 92160, Note_on_c, 2, 55, 105
4, 92160, Note_on_c, 2, 62, 105
4, 92244, Note_off_c, 2, 62, 64
4, 92244, Note_off_c, 2, 55, 64
4, 92280, Note_on_c, 2, 62, 105
4, 92280, Note_on_c, 2, 55, 105
4, 92364, Note_off_c, 2, 55, 64
4, 92364, Note_off_c, 2, 62, 64
4, 92400, Note_on_c, 2, 62, 105
4, 92400, Note_on_c, 2, 55, 105
4, 92484, Note_off_c, 2, 55, 64
4, 92484, Note_off_c, 2, 62, 64
4, 92520, Note_on_c, 2, 62, 105
4, 92520, Note_on_c, 2, 55, 105
4, 92604, Note_off_c, 2, 55, 64
4, 92604, Note_off_c, 2, 62, 64
4, 92640, Note_on_c, 2, 55, 105
4, 92640, Note_on_c, 2, 62, 105
4, 92832, Note_off_c, 2, 62, 64
4, 92832, Note_off_c, 2, 55, 64
4, 93120, Note_on_c, 2, 55, 105
4, 93120, Note_on_c, 2, 64, 105
4, 93204, Note_off_c, 2, 64, 64
4, 93204, Note_off_c, 2, 55, 64
4, 93240, Note_on_c, 2, 55, 105
4, 93240, Note_on_c, 2, 64, 105
4, 93324, Note_off_c, 2, 64, 64
4, 93324, Note_off_c, 2, 55, 64
4, 93360, Note_on_c, 2, 64, 105
4, 93360, Note_on_c, 2, 55, 105
4, 93444, Note_off_c, 2, 55, 64
4, 93444, Note_off_c, 2, 64, 64
4, 93480, Note_on_c, 2, 55, 105
4, 93480, Note_on_c, 2, 64, 105
4, 93564, Note_off_c, 2, 64, 64
4, 93564, Note_off_c, 2, 55, 64
4, 93600, Note_on_c, 2, 55, 105
4, 93600, Note_on_c, 2, 64, 105
4, 93792, Note_off_c, 2, 64, 64
4, 93792, Note_off_c, 2, 55, 64
4, 94080, Note_on_c, 2, 62, 105
4, 94080, Note_on_c, 2, 55, 105
4, 94164, Note_off_c, 2, 55, 64
4, 94164, Note_off_c, 2, 62, 64
4, 94200, Note_on_c, 2, 62, 105
4, 94200, Note_on_c, 2, 55, 105
4, 94284, Note_off_c, 2, 55, 64
4, 94284, Note_off_c, 2, 62, 64
4, 94320, Note_on_c, 2, 55, 105
4, 94320, Note_on_c, 2, 62, 105
4, 94404, Note_off_c, 2, 62, 64
4, 94404, Note_off_c, 2, 55, 64
4, 94440, Note_on_c, 2, 55, 105
4, 94440, Note_on_c, 2, 62, 105
4, 94524, Note_off_c, 2, 62, 64
4, 94524, Note_off_c, 2, 55, 64
4, 94560, Note_on_c, 2, 55, 105
4, 94560, Note_on_c, 2, 62, 105
4, 94752, Note_off_c, 2, 62, 64
4, 94752, Note_off_c, 2, 55, 64
4, 95040, Note_on_c, 2, 55, 105
4, 95040, Note_on_c, 2, 64, 105
4, 95424, Note_off_c, 2, 64, 64
4, 95424, Note_off_c, 2, 55, 64
4, 95520, Note_on_c, 2, 64, 105
4, 95520, Note_on_c, 2, 60, 105
4, 95688, Note_off_c, 2, 60, 64
4, 95688, Note_off_c, 2, 64, 64
4, 95760, Note_on_c, 2, 60, 105
4, 95760, Note_on_c, 2, 64, 105
4, 95928, Note_off_c, 2, 64, 64
4, 95928, Note_off_c, 2, 60, 64
4, 96000, Note_on_c, 2, 60, 105
4, 96000, Note_on_c, 2, 62, 105
4, 96144, Note_off_c, 2, 62, 64
4, 96144, Note_off_c, 2, 60, 64
4, 96240, Note_on_c, 2, 60, 105
4, 96240, Note_on_c, 2, 62, 105
4, 96384, Note_off_c, 2, 62, 64
4, 96384, Note_off_c, 2, 60, 64
4, 101760, Note_on_c, 2, 55, 105
4, 103008, Note_off_c, 2, 55, 64
4, 103080, Note_on_c, 2, 55, 105
4, 103164, Note_off_c, 2, 55, 64
4, 103200, Note_on_c, 2, 55, 105
4, 103284, Note_off_c, 2, 55, 64
4, 103320, Note_on_c, 2, 55, 105
4, 103404, Note_off_c, 2, 55, 64
4, 103440, Note_on_c, 2, 55, 105
4, 103524, Note_off_c, 2, 55, 64
4, 103560, Note_on_c, 2, 55, 105
4, 103644, Note_off_c, 2, 55, 64
4, 103680, Note_on_c, 2, 55, 105
4, 103848, Note_off_c, 2, 55, 64
4, 103920, Note_on_c, 2, 55, 105
4, 103920, Note_on_c, 2, 64, 105
4, 104088, Note_off_c, 2, 64, 64
4, 104088, Note_off_c, 2, 55, 64
4, 104160, Note_on_c, 2, 60, 105
4, 104160, Note_on_c, 2, 64, 105
4, 104328, Note_off_c, 2, 64, 64
4, 104328, Note_off_c, 2, 60, 64
4, 104400, Note_on_c, 2, 60, 105
4, 104568, Note_off_c, 2, 60, 64
4, 104640, Note_on_c, 2, 55, 105
4, 105888, Note_off_c, 2, 55, 64
4, 105960, Note_on_c, 2, 55, 105
4, 106044, Note_off_c, 2, 55, 64
4, 106080, Note_on_c, 2, 55, 105
4, 106164, Note_off_c, 2, 55, 64
4, 106200, Note_on_c, 2, 55, 105
4, 106284, Note_off_c, 2, 55, 64
4, 106320, Note_on_c, 2, 55, 105
4, 106404, Note_off_c, 2, 55, 64
4, 106440, Note_on_c, 2, 55, 105
4, 106524, Note_off_c, 2, 55, 64
4, 106560, Note_on_c, 2, 55, 105
4, 106728, Note_off_c, 2, 55, 64
4, 106800, Note_on_c, 2, 55, 105
4, 106800, Note_on_c, 2, 64, 105
4, 106968, Note_off_c, 2, 64, 64
4, 106968, Note_off_c, 2, 55, 64
4, 107040, Note_on_c, 2, 64, 105
4, 107040, Note_on_c, 2, 60, 105
4, 107208, Note_off_c, 2, 60, 64
4, 107208, Note_off_c, 2, 64, 64
4, 107280, Note_on_c, 2, 60, 105
4, 107448, Note_off_c, 2, 60, 64
4, 107520, Note_on_c, 2, 62, 72
4, 107520, Note_on_c, 2, 55, 72
4, 107598, Note_off_c, 2, 55, 64
4, 107598, Note_off_c, 2, 62, 64
4, 107640, Note_on_c, 2, 55, 72
4, 107640, Note_on_c, 2, 62, 72
4, 107718, Note_off_c, 2, 62, 64
4, 107718, Note_off_c, 2, 55, 64
4, 107760, Note_on_c, 2, 64, 72
4, 107760, Note_on_c, 2, 55, 72
4, 107838, Note_off_c, 2, 55, 64
4, 107838, Note_off_c, 2, 64, 64
4, 107880, Note_on_c, 2, 55, 72
4, 107880, Note_on_c, 2, 64, 72
4, 107958, Note_off_c, 2, 64, 64
4, 107958, Note_off_c, 2, 55, 64
4, 108000, Note_on_c, 2, 60, 72
4, 108000, Note_on_c, 2, 64, 72
4, 108078, Note_off_c, 2, 64, 64
4, 108078, Note_off_c, 2, 60, 64
4, 108120, Note_on_c, 2, 64, 72
4, 108120, Note_on_c, 2, 60, 72
4, 108198, Note_off_c, 2, 60, 64
4, 108198, Note_off_c, 2, 64, 64
4, 108240, Note_on_c, 2, 62, 72
4, 108318, Note_off_c, 2, 62, 64
4, 108360, Note_on_c, 2, 62, 72
4, 108438, Note_off_c, 2, 62, 64
4, 108480, Note_on_c, 2, 62, 105
4, 108480, Note_on_c, 2, 55, 105
4, 108564, Note_off_c, 2, 55, 64
4, 108564, Note_off_c, 2, 62, 64
4, 108600, Note_on_c, 2, 55, 105
4, 108600, Note_on_c, 2, 62, 105
4, 108684, Note_off_c, 2, 62, 64
4, 108684, Note_off_c, 2, 55, 64
4, 108720, Note_on_c, 2, 64, 105
4, 108720, Note_on_c, 2, 55, 105
4, 108804, Note_off_c, 2, 55, 64
4, 108804, Note_off_c, 2, 64, 64
4, 108840, Note_on_c, 2, 55, 105
4, 108840, Note_on_c, 2, 64, 105
4, 108924, Note_off_c, 2, 64, 64
4, 108924, Note_off_c, 2, 55, 64
4, 108960, Note_on_c, 2, 60, 105
4, 108960, Note_on_c, 2, 64, 105
4, 109044, Note_off_c, 2, 64, 64
4, 109044, Note_off_c, 2, 60, 64
4, 109080, Note_on_c, 2, 64, 105
4, 109080, Note_on_c, 2, 60, 105
4, 109164, Note_off_c, 2, 60, 64
4, 109164, Note_off_c, 2, 64, 64
4, 109200, Note_on_c, 2, 62, 105
4, 109284, Note_off_c, 2, 62, 64
4, 109320, Note_on_c, 2, 62, 105
4, 109404, Note_off_c, 2, 62, 64
4, 109440, Note_on_c, 2, 62, 105
4, 109440, Note_on_c, 2, 55, 105
4, 109632, Note_off_c, 2, 55, 64
4, 109632, Note_off_c, 2, 62, 64
4, 111360, Note_on_c, 2, 55, 58
4, 111360, Note_on_c, 2, 62, 58
4, 112896, Note_off_c, 2, 62, 64
4, 112896, Note_off_c, 2, 55, 64
4, 122880, Note_on_c, 2, 60, 105
4, 122880, Note_on_c, 2, 48, 105
4, 125184, Note_off_c, 2, 60, 64
4, 125184, Note_off_c, 2, 48, 64
4, 125520, Note_on_c, 2, 60, 105
4, 125520, Note_on_c, 2, 48, 105
4, 125688, Note_off_c, 2, 48, 64
4, 125688, Note_off_c, 2, 60, 64
4, 125760, Note_on_c, 2, 48, 105
4, 125760, Note_on_c, 2, 60, 105
4, 125928, Note_off_c, 2, 60, 64
4, 125928, Note_off_c, 2, 48, 64
4, 126000, Note_on_c, 2, 48, 105
4, 126000, Note_on_c, 2, 60, 105
4, 126168, Note_off_c, 2, 60, 64
4, 126168, Note_off_c, 2, 48, 64
4, 126480, Note_on_c, 2, 48, 105
4, 126480, Note_on_c, 2, 60, 105
4, 126648, Note_off_c, 2, 60, 64
4, 126648, Note_off_c, 2, 48, 64
4, 126720, Note_on_c, 2, 48, 105
4, 126720, Note_on_c, 2, 60, 105
4, 126888, Note_off_c, 2, 60, 64
4, 126888, Note_off_c, 2, 48, 64
4, 126960, Note_on_c, 2, 48, 105
4, 126960, Note_on_c, 2, 60, 105
4, 127128, Note_off_c, 2, 60, 64
4, 127128, Note_off_c, 2, 48, 64
4, 127440, Note_on_c, 2, 48, 105
4, 127440, Note_on_c, 2, 60, 105
4, 127608, Note_off_c, 2, 60, 64
4, 127608, Note_off_c, 2, 48, 64
4, 127680, Note_on_c, 2, 60, 105
4, 127680, Note_on_c, 2, 48, 105
4, 127848, Note_off_c, 2, 48, 64
4, 127848, Note_off_c, 2, 60, 64
4, 127920, Note_on_c, 2, 48, 105
4, 127920, Note_on_c, 2, 60, 105
4, 128088, Note_off_c, 2, 60, 64
4, 128088, Note_off_c, 2, 48, 64
4, 128160, Note_on_c, 2, 60, 105
4, 128160, Note_on_c, 2, 48, 105
4, 128328, Note_off_c, 2, 48, 64
4, 128328, Note_off_c, 2, 60, 64
4, 128400, Note_on_c, 2, 60, 105
4, 128400, Note_on_c, 2, 48, 105
4, 128568, Note_off_c, 2, 48, 64
4, 128568, Note_off_c, 2, 60, 64
4, 128640, Note_on_c, 2, 48, 105
4, 128640, Note_on_c, 2, 60, 105
4, 128808, Note_off_c, 2, 60, 64
4, 128808, Note_off_c, 2, 48, 64
4, 128880, Note_on_c, 2, 60, 105
4, 128880, Note_on_c, 2, 48, 105
4, 129048, Note_off_c, 2, 48, 64
4, 129048, Note_off_c, 2, 60, 64
4, 129600, Note_on_c, 2, 48, 58
4, 129600, Note_on_c, 2, 60, 58
4, 131712, Note_off_c, 2, 60, 64
4, 131712, Note_off_c, 2, 48, 64
4, 134400, Note_on_c, 2, 48, 105
4, 134400, Note_on_c, 2, 60, 105
4, 134568, Note_off_c, 2, 60, 64
4, 134568, Note_off_c, 2, 48, 64
4, 134640, Note_on_c, 2, 60, 105
4, 134640, Note_on_c, 2, 48, 105
4, 134766, Note_off_c, 2, 48, 64
4, 134766, Note_off_c, 2, 60, 64
4, 134820, Note_on_c, 2, 48, 105
4, 134820, Note_on_c, 2, 60, 105
4, 134862, Note_off_c, 2, 60, 64
4, 134862, Note_off_c, 2, 48, 64
4, 134880, Note_on_c, 2, 48, 105
4, 134880, Note_on_c, 2, 60, 105
4, 135048, Note_off_c, 2, 60, 64
4, 135048, Note_off_c, 2, 48, 64
4, 135120, Note_on_c, 2, 48, 105
4, 135120, Note_on_c, 2, 60, 105
4, 135288, Note_off_c, 2, 60, 64
4, 135288, Note_off_c, 2, 48, 64
4, 135360, Note_on_c, 2, 55, 105
4, 135360, Note_on_c, 2, 62, 105
4, 135528, Note_off_c, 2, 62, 64
4, 135528, Note_off_c, 2, 55, 64
4, 135600, Note_on_c, 2, 62, 105
4, 135600, Note_on_c, 2, 55, 105
4, 135726, Note_off_c, 2, 55, 64
4, 135726, Note_off_c, 2, 62, 64
4, 135780, Note_on_c, 2, 62, 105
4, 135780, Note_on_c, 2, 55, 105
4, 135822, Note_off_c, 2, 55, 64
4, 135822, Note_off_c, 2, 62, 64
4, 135840, Note_on_c, 2, 62, 105
4, 135840, Note_on_c, 2, 55, 105
4, 136008, Note_off_c, 2, 55, 64
4, 136008, Note_off_c, 2, 62, 64
4, 136080, Note_on_c, 2, 62, 105
4, 136080, Note_on_c, 2, 55, 105
4, 136248, Note_off_c, 2, 55, 64
4, 136248, Note_off_c, 2, 62, 64
4, 136320, Note_on_c, 2, 64, 105
4, 136320, Note_on_c, 2, 60, 105
4, 136704, Note_off_c, 2, 60, 64
4, 136704, Note_off_c, 2, 64, 64
4, 136800, Note_on_c, 2, 64, 105
4, 136800, Note_on_c, 2, 60, 105
4, 137184, Note_off_c, 2, 60, 64
4, 137184, Note_off_c, 2, 64, 64
4, 137280, Note_on_c, 2, 62, 105
4, 137280, Note_on_c, 2, 65, 105
4, 137664, Note_off_c, 2, 65, 64
4, 137664, Note_off_c, 2, 62, 64
4, 137760, Note_on_c, 2, 60, 105
4, 137760, Note_on_c, 2, 64, 105
4, 137928, Note_off_c, 2, 64, 64
4, 137928, Note_off_c, 2, 60, 64
4, 138000, Note_on_c, 2, 62, 105
4, 138000, Note_on_c, 2, 55, 105
4, 138168, Note_off_c, 2, 55, 64
4, 138168, Note_off_c, 2, 62, 64
4, 138240, Note_on_c, 2, 60, 105
4, 138240, Note_on_c, 2, 48, 105
4, 138408, Note_off_c, 2, 48, 64
4, 138408, Note_off_c, 2, 60, 64
4, 138480, Note_on_c, 2, 60, 105
4, 138480, Note_on_c, 2, 48, 105
4, 138606, Note_off_c, 2, 48, 64
4, 138606, Note_off_c, 2, 60, 64
4, 138660, Note_on_c, 2, 48, 105
4, 138660, Note_on_c, 2, 60, 105
4, 138702, Note_off_c, 2, 60, 64
4, 138702, Note_off_c, 2, 48, 64
4, 138720, Note_on_c, 2, 60, 105
4, 138720, Note_on_c, 2, 48, 105
4, 138888, Note_off_c, 2, 48, 64
4, 138888, Note_off_c, 2, 60, 64
4, 138960, Note_on_c, 2, 60, 105
4, 138960, Note_on_c, 2, 48, 105
4, 139128, Note_off_c, 2, 48, 64
4, 139128, Note_off_c, 2, 60, 64
4, 139200, Note_on_c, 2, 55, 105
4, 139200, Note_on_c, 2, 62, 105
4, 139368, Note_off_c, 2, 62, 64
4, 139368, Note_off_c, 2, 55, 64
4, 139440, Note_on_c, 2, 55, 105
4, 139440, Note_on_c, 2, 62, 105
4, 139566, Note_off_c, 2, 62, 64
4, 139566, Note_off_c, 2, 55, 64
4, 139620, Note_on_c, 2, 55, 105
4, 139620, Note_on_c, 2, 62, 105
4, 139662, Note_off_c, 2, 62, 64
4, 139662, Note_off_c, 2, 55, 64
4, 139680, Note_on_c, 2, 55, 105
4, 139680, Note_on_c, 2, 62, 105
4, 139848, Note_off_c, 2, 62, 64
4, 139848, Note_off_c, 2, 55, 64
4, 139920, Note_on_c, 2, 55, 105
4, 139920, Note_on_c, 2, 62, 105
4, 140088, Note_off_c, 2, 62, 64
4, 140088, Note_off_c, 2, 55, 64
4, 140160, Note_on_c, 2, 64, 105
4, 140160, Note_on_c, 2, 60, 105
4, 140928, Note_off_c, 2, 64, 64
4, 141120, Note_on_c, 2, 62, 105
4, 141888, Note_off_c, 2, 60, 64
4, 142080, Note_on_c, 2, 55, 105
4, 142464, Note_off_c, 2, 62, 64
4, 142464, Note_off_c, 2, 55, 64
4, 142560, Note_on_c, 2, 52, 105
4, 142560, Note_on_c, 2, 64, 105
4, 142944, Note_off_c, 2, 64, 64
4, 142944, Note_off_c, 2, 52, 64
4, 143040, Note_on_c, 2, 64, 105
4, 143040, Note_on_c, 2, 52, 105
4, 143808, Note_off_c, 2, 52, 64
4, 143808, Note_off_c, 2, 64, 64
4, 144000, Note_on_c, 2, 60, 105
4, 144000, Note_on_c, 2, 62, 105
4, 144192, Note_off_c, 2, 62, 64
4, 144192, Note_off_c, 2, 60, 64
4, 144240, Note_on_c, 2, 62, 105
4, 144240, Note_on_c, 2, 60, 105
4, 144384, Note_off_c, 2, 60, 64
4, 144384, Note_off_c, 2, 62, 64
4, 144420, Note_on_c, 2, 62, 105
4, 144420, Note_on_c, 2, 60, 105
4, 144468, Note_off_c, 2, 60, 64
4, 144468, Note_off_c, 2, 62, 64
4, 144480, Note_on_c, 2, 62, 105
4, 144480, Note_on_c, 2, 60, 105
4, 144672, Note_off_c, 2, 60, 64
4, 144672, Note_off_c, 2, 62, 64
4, 144720, Note_on_c, 2, 62, 105
4, 144720, Note_on_c, 2, 60, 105
4, 144912, Note_off_c, 2, 60, 64
4, 144912, Note_off_c, 2, 62, 64
4, 144960, Note_on_c, 2, 62, 105
4, 144960, Note_on_c, 2, 55, 105
4, 145152, Note_off_c, 2, 55, 64
4, 145152, Note_off_c, 2, 62, 64
4, 145680, Note_on_c, 2, 62, 105
4, 145764, Note_off_c, 2, 62, 64
4, 145800, Note_on_c, 2, 62, 105
4, 145884, Note_off_c, 2, 62, 64
4, 145920, Note_on_c, 2, 62, 105
4, 146088, Note_off_c, 2, 62, 64
4, 146160, Note_on_c, 2, 62, 105
4, 146328, Note_off_c, 2, 62, 64
4, 146400, Note_on_c, 2, 62, 105
4, 146784, Note_off_c, 2, 62, 64
4, 146880, Note_on_c, 2, 62, 105
4, 146880, Note_on_c, 2, 55, 105
4, 147072, Note_off_c, 2, 55, 64
4, 147072, Note_off_c, 2, 62, 64
4, 147600, Note_on_c, 2, 62, 105
4, 147684, Note_off_c, 2, 62, 64
4, 147720, Note_on_c, 2, 62, 105
4, 147804, Note_off_c, 2, 62, 64
4, 147840, Note_on_c, 2, 62, 105
4, 148008, Note_off_c, 2, 62, 64
4, 148080, Note_on_c, 2, 62, 105
4, 148248, Note_off_c, 2, 62, 64
4, 148320, Note_on_c, 2, 62, 105
4, 148704, Note_off_c, 2, 62, 64
4, 148800, Note_on_c, 2, 62, 105
4, 148800, Note_on_c, 2, 55, 105
4, 148992, Note_off_c, 2, 55, 64
4, 148992, Note_off_c, 2, 62, 64
4, 149760, Note_on_c, 2, 60, 105
4, 149760, Note_on_c, 2, 64, 105
4, 149952, Note_off_c, 2, 64, 64
4, 149952, Note_off_c, 2, 60, 64
4, 150720, Note_on_c, 2, 60, 105
4, 150720, Note_on_c, 2, 64, 105
4, 150912, Note_off_c, 2, 64, 64
4, 150912, Note_off_c, 2, 60, 64
4, 152640, Note_on_c, 2, 64, 105
4, 152640, Note_on_c, 2, 52, 105
4, 152712, Note_off_c, 2, 52, 64
4, 152712, Note_off_c, 2, 64, 64
4, 152760, Note_on_c, 2, 64, 105
4, 152760, Note_on_c, 2, 52, 105
4, 152832, Note_off_c, 2, 52, 64
4, 152832, Note_off_c, 2, 64, 64
4, 152880, Note_on_c, 2, 64, 105
4, 152880, Note_on_c, 2, 52, 105
4, 152952, Note_off_c, 2, 52, 64
4, 152952, Note_off_c, 2, 64, 64
4, 153000, Note_on_c, 2, 64, 105
4, 153000, Note_on_c, 2, 52, 105
4, 153072, Note_off_c, 2, 52, 64
4, 153072, Note_off_c, 2, 64, 64
4, 153120, Note_on_c, 2, 64, 105
4, 153120, Note_on_c, 2, 52, 105
4, 153192, Note_off_c, 2, 52, 64
4, 153192, Note_off_c, 2, 64, 64
4, 153240, Note_on_c, 2, 52, 105
4, 153240, Note_on_c, 2, 64, 105
4, 153312, Note_off_c, 2, 64, 64
4, 153312, Note_off_c, 2, 52, 64
4, 153360, Note_on_c, 2, 64, 105
4, 153360, Note_on_c, 2, 52, 105
4, 153432, Note_off_c, 2, 52, 64
4, 153432, Note_off_c, 2, 64, 64
4, 153480, Note_on_c, 2, 52, 105
4, 153480, Note_on_c, 2, 64, 105
4, 153552, Note_off_c, 2, 64, 64
4, 153552, Note_off_c, 2, 52, 64
4, 153600, Note_on_c, 2, 52, 105
4, 153600, Note_on_c, 2, 60, 105
4, 153792, Note_off_c, 2, 60, 64
4, 153792, Note_off_c, 2, 52, 64
4, 159360, Note_on_c, 2, 43, 58
4, 159360, Note_on_c, 2, 55, 58
4, 160896, Note_off_c, 2, 55, 64
4, 160896, Note_off_c, 2, 43, 64
4, 162720, Note_on_c, 2, 64, 105
4, 162720, Note_on_c, 2, 52, 105
4, 162864, Note_off_c, 2, 52, 64
4, 162864, Note_off_c, 2, 64, 64
4, 162960, Note_on_c, 2, 52, 105
4, 162960, Note_on_c, 2, 64, 105
4, 163104, Note_off_c, 2, 64, 64
4, 163104, Note_off_c, 2, 52, 64
4, 163200, Note_on_c, 2, 52, 105
4, 163200, Note_on_c, 2, 64, 105
4, 163392, Note_off_c, 2, 64, 64
4, 163392, Note_off_c, 2, 52, 64
4, 164160, Note_on_c, 2, 52, 105
4, 164160, Note_on_c, 2, 64, 105
4, 164352, Note_off_c, 2, 64, 64
4, 164352, Note_off_c, 2, 52, 64
4, 165120, Note_on_c, 2, 52, 105
4, 165120, Note_on_c, 2, 64, 105
4, 165312, Note_off_c, 2, 64, 64
4, 165312, Note_off_c, 2, 52, 64
4, 166080, Note_on_c, 2, 64, 105
4, 166080, Note_on_c, 2, 52, 105
4, 166272, Note_off_c, 2, 52, 64
4, 166272, Note_off_c, 2, 64, 64
4, 166560, Note_on_c, 2, 55, 58
4, 166560, Note_on_c, 2, 67, 58
4, 166740, Note_off_c, 2, 67, 64
4, 166740, Note_off_c, 2, 55, 64
4, 166800, Note_on_c, 2, 67, 58
4, 166800, Note_on_c, 2, 55, 58
4, 166980, Note_off_c, 2, 55, 64
4, 166980, Note_off_c, 2, 67, 64
4, 167040, Note_on_c, 2, 55, 58
4, 167040, Note_on_c, 2, 67, 58
4, 168192, Note_off_c, 2, 55, 64
4, 168192, Note_off_c, 2, 67, 64
4, 174240, Note_on_c, 2, 60, 105
4, 174240, Note_on_c, 2, 64, 105
4, 174384, Note_off_c, 2, 64, 64
4, 174384, Note_off_c, 2, 60, 64
4, 174480, Note_on_c, 2, 64, 105
4, 174480, Note_on_c, 2, 60, 105
4, 174624, Note_off_c, 2, 60, 64
4, 174624, Note_off_c, 2, 64, 64
4, 174720, Note_on_c, 2, 64, 105
4, 174720, Note_on_c, 2, 60, 105
4, 175104, Note_off_c, 2, 60, 64
4, 175104, Note_off_c, 2, 64, 64
4, 175200, Note_on_c, 2, 55, 105
4, 175200, Note_on_c, 2, 62, 105
4, 175584, Note_off_c, 2, 62, 64
4, 175584, Note_off_c, 2, 55, 64
4, 175680, Note_on_c, 2, 60, 105
4, 175680, Note_on_c, 2, 52, 105
4, 175872, Note_off_c, 2, 52, 64
4, 175872, Note_off_c, 2, 60, 64
4, 175920, Note_on_c, 2, 60, 105
4, 175920, Note_on_c, 2, 52, 105
4, 176016, Note_off_c, 2, 52, 64
4, 176016, Note_off_c, 2, 60, 64
4, 176040, Note_on_c, 2, 60, 105
4, 176040, Note_on_c, 2, 52, 105
4, 176136, Note_off_c, 2, 52, 64
4, 176136, Note_off_c, 2, 60, 64
4, 176160, Note_on_c, 2, 52, 105
4, 176160, Note_on_c, 2, 60, 105
4, 176352, Note_off_c, 2, 60, 64
4, 176352, Note_off_c, 2, 52, 64
4, 176400, Note_on_c, 2, 64, 105
4, 176400, Note_on_c, 2, 60, 105
4, 176592, Note_off_c, 2, 60, 64
4, 176592, Note_off_c, 2, 64, 64
4, 176640, Note_on_c, 2, 62, 105
4, 176832, Note_off_c, 2, 62, 64
4, 176880, Note_on_c, 2, 62, 105
4, 176976, Note_off_c, 2, 62, 64
4, 177000, Note_on_c, 2, 62, 105
4, 177096, Note_off_c, 2, 62, 64
4, 177120, Note_on_c, 2, 62, 105
4, 177312, Note_off_c, 2, 62, 64
4, 177360, Note_on_c, 2, 62, 105
4, 177552, Note_off_c, 2, 62, 64
4, 177600, Note_on_c, 2, 55, 105
4, 177600, Note_on_c, 2, 62, 105
4, 177792, Note_off_c, 2, 62, 64
4, 177792, Note_off_c, 2, 55, 64
4, 179520, Note_on_c, 2, 62, 105
4, 180480, Note_on_c, 2, 55, 105
4, 180648, Note_off_c, 2, 55, 64
4, 180648, Note_off_c, 2, 62, 64
4, 180720, Note_on_c, 2, 55, 105
4, 180720, Note_on_c, 2, 64, 105
4, 180888, Note_off_c, 2, 64, 64
4, 180888, Note_off_c, 2, 55, 64
4, 180960, Note_on_c, 2, 64, 105
4, 180960, Note_on_c, 2, 60, 105
4, 181128, Note_off_c, 2, 60, 64
4, 181128, Note_off_c, 2, 64, 64
4, 181200, Note_on_c, 2, 62, 105
4, 181368, Note_off_c, 2, 62, 64
4, 181440, Note_on_c, 2, 55, 105
4, 181440, Note_on_c, 2, 62, 105
4, 181632, Note_off_c, 2, 62, 64
4, 181632, Note_off_c, 2, 55, 64
4, 183360, Note_on_c, 2, 62, 105
4, 184320, Note_on_c, 2, 55, 105
4, 184488, Note_off_c, 2, 55, 64
4, 184488, Note_off_c, 2, 62, 64
4, 184560, Note_on_c, 2, 55, 105
4, 184560, Note_on_c, 2, 62, 105
4, 184728, Note_off_c, 2, 62, 64
4, 184728, Note_off_c, 2, 55, 64
4, 184800, Note_on_c, 2, 64, 105
4, 184800, Note_on_c, 2, 60, 105
4, 184968, Note_off_c, 2, 60, 64
4, 184968, Note_off_c, 2, 64, 64
4, 185040, Note_on_c, 2, 62, 105
4, 185208, Note_off_c, 2, 62, 64
4, 185280, Note_on_c, 2, 55, 105
4, 185280, Note_on_c, 2, 62, 105
4, 185364, Note_off_c, 2, 62, 64
4, 185364, Note_off_c, 2, 55, 64
4, 185400, Note_on_c, 2, 62, 105
4, 185400, Note_on_c, 2, 55, 105
4, 185484, Note_off_c, 2, 55, 64
4, 185484, Note_off_c, 2, 62, 64
4, 185520, Note_on_c, 2, 62, 105
4, 185520, Note_on_c, 2, 55, 105
4, 185604, Note_off_c, 2, 55, 64
4, 185604, Note_off_c, 2, 62, 64
4, 185640, Note_on_c, 2, 62, 105
4, 185640, Note_on_c, 2, 55, 105
4, 185724, Note_off_c, 2, 55, 64
4, 185724, Note_off_c, 2, 62, 64
4, 185760, Note_on_c, 2, 55, 105
4, 185760, Note_on_c, 2, 62, 105
4, 185952, Note_off_c, 2, 62, 64
4, 185952, Note_off_c, 2, 55, 64
4, 186240, Note_on_c, 2, 55, 105
4, 186240, Note_on_c, 2, 64, 105
4, 186324, Note_off_c, 2, 64, 64
4, 186324, Note_off_c, 2, 55, 64
4, 186360, Note_on_c, 2, 64, 105
4, 186360, Note_on_c, 2, 55, 105
4, 186444, Note_off_c, 2, 55, 64
4, 186444, Note_off_c, 2, 64, 64
4, 186480, Note_on_c, 2, 64, 105
4, 186480, Note_on_c, 2, 55, 105
4, 186564, Note_off_c, 2, 55, 64
4, 186564, Note_off_c, 2, 64, 64
4, 186600, Note_on_c, 2, 55, 105
4, 186600, Note_on_c, 2, 64, 105
4, 186684, Note_off_c, 2, 64, 64
4, 186684, Note_off_c, 2, 55, 64
4, 186720, Note_on_c, 2, 55, 105
4, 186720, Note_on_c, 2, 64, 105
4, 186912, Note_off_c, 2, 64, 64
4, 186912, Note_off_c, 2, 55, 64
4, 187200, Note_on_c, 2, 62, 105
4, 187200, Note_on_c, 2, 55, 105
4, 187284, Note_off_c, 2, 55, 64
4, 187284, Note_off_c, 2, 62, 64
4, 187320, Note_on_c, 2, 62, 105
4, 187320, Note_on_c, 2, 55, 105
4, 187404, Note_off_c, 2, 55, 64
4, 187404, Note_off_c, 2, 62, 64
4, 187440, Note_on_c, 2, 55, 105
4, 187440, Note_on_c, 2, 62, 105
4, 187524, Note_off_c, 2, 62, 64
4, 187524, Note_off_c, 2, 55, 64
4, 187560, Note_on_c, 2, 55, 105
4, 187560, Note_on_c, 2, 62, 105
4, 187644, Note_off_c, 2, 62, 64
4, 187644, Note_off_c, 2, 55, 64
4, 187680, Note_on_c, 2, 55, 105
4, 187680, Note_on_c, 2, 62, 105
4, 187872, Note_off_c, 2, 62, 64
4, 187872, Note_off_c, 2, 55, 64
4, 188160, Note_on_c, 2, 64, 105
4, 188160, Note_on_c, 2, 55, 105
4, 188544, Note_off_c, 2, 55, 64
4, 188544, Note_off_c, 2, 64, 64
4, 188640, Note_on_c, 2, 64, 105
4, 188640, Note_on_c, 2, 60, 105
4, 188808, Note_off_c, 2, 60, 64
4, 188808, Note_off_c, 2, 64, 64
4, 188880, Note_on_c, 2, 60, 105
4, 188880, Note_on_c, 2, 64, 105
4, 189048, Note_off_c, 2, 64, 64
4, 189048, Note_off_c, 2, 60, 64
4, 189120, Note_on_c, 2, 60, 105
4, 189120, Note_on_c, 2, 62, 105
4, 189264, Note_off_c, 2, 62, 64
4, 189264, Note_off_c, 2, 60, 64
4, 189360, Note_on_c, 2, 60, 105
4, 189360, Note_on_c, 2, 62, 105
4, 189504, Note_off_c, 2, 62, 64
4, 189504, Note_off_c, 2, 60, 64
4, 191040, Note_on_c, 2, 55, 105
4, 191040, Note_on_c, 2, 62, 105
4, 191124, Note_off_c, 2, 62, 64
4, 191124, Note_off_c, 2, 55, 64
4, 191160, Note_on_c, 2, 62, 105
4, 191160, Note_on_c, 2, 55, 105
4, 191244, Note_off_c, 2, 55, 64
4, 191244, Note_off_c, 2, 62, 64
4, 191280, Note_on_c, 2, 62, 105
4, 191280, Note_on_c, 2, 55, 105
4, 191364, Note_off_c, 2, 55, 64
4, 191364, Note_off_c, 2, 62, 64
4, 191400, Note_on_c, 2, 62, 105
4, 191400, Note_on_c, 2, 55, 105
4, 191484, Note_off_c, 2, 55, 64
4, 191484, Note_off_c, 2, 62, 64
4, 191520, Note_on_c, 2, 55, 105
4, 191520, Note_on_c, 2, 62, 105
4, 191712, Note_off_c, 2, 62, 64
4, 191712, Note_off_c, 2, 55, 64
4, 192000, Note_on_c, 2, 55, 105
4, 192000, Note_on_c, 2, 64, 105
4, 192084, Note_off_c, 2, 64, 64
4, 192084, Note_off_c, 2, 55, 64
4, 192120, Note_on_c, 2, 55, 105
4, 192120, Note_on_c, 2, 64, 105
4, 192204, Note_off_c, 2, 64, 64
4, 192204, Note_off_c, 2, 55, 64
4, 192240, Note_on_c, 2, 64, 105
4, 192240, Note_on_c, 2, 55, 105
4, 192324, Note_off_c, 2, 55, 64
4, 192324, Note_off_c, 2, 64, 64
4, 192360, Note_on_c, 2, 55, 105
4, 192360, Note_on_c, 2, 64, 105
4, 192444, Note_off_c, 2, 64, 64
4, 192444, Note_off_c, 2, 55, 64
4, 192480, Note_on_c, 2, 55, 105
4, 192480, Note_on_c, 2, 64, 105
4, 192672, Note_off_c, 2, 64, 64
4, 192672, Note_off_c, 2, 55, 64
4, 192960, Note_on_c, 2, 62, 105
4, 192960, Note_on_c, 2, 55, 105
4, 193044, Note_off_c, 2, 55, 64
4, 193044, Note_off_c, 2, 62, 64
4, 193080, Note_on_c, 2, 62, 105
4, 193080, Note_on_c, 2, 55, 105
4, 193164, Note_off_c, 2, 55, 64
4, 193164, Note_off_c, 2, 62, 64
4, 193200, Note_on_c, 2, 55, 105
4, 193200, Note_on_c, 2, 62, 105
4, 193284, Note_off_c, 2, 62, 64
4, 193284, Note_off_c, 2, 55, 64
4, 193320, Note_on_c, 2, 55, 105
4, 193320, Note_on_c, 2, 62, 105
4, 193404, Note_off_c, 2, 62, 64
4, 193404, Note_off_c, 2, 55, 64
4, 193440, Note_on_c, 2, 55, 105
4, 193440, Note_on_c, 2, 62, 105
4, 193632, Note_off_c, 2, 62, 64
4, 193632, Note_off_c, 2, 55, 64
4, 193920, Note_on_c, 2, 55, 105
4, 193920, Note_on_c, 2, 64, 105
4, 194304, Note_off_c, 2, 64, 64
4, 194304, Note_off_c, 2, 55, 64
4, 194400, Note_on_c, 2, 64, 105
4, 194400, Note_on_c, 2, 60, 105
4, 194568, Note_off_c, 2, 60, 64
4, 194568, Note_off_c, 2, 64, 64
4, 194640, Note_on_c, 2, 60, 105
4, 194640, Note_on_c, 2, 64, 105
4, 194808, Note_off_c, 2, 64, 64
4, 194808, Note_off_c, 2, 60, 64
4, 194880, Note_on_c, 2, 60, 105
4, 194880, Note_on_c, 2, 62, 105
4, 195024, Note_off_c, 2, 62, 64
4, 195024, Note_off_c, 2, 60, 64
4, 195120, Note_on_c, 2, 60, 105
4, 195120, Note_on_c, 2, 62, 105
4, 195264, Note_off_c, 2, 62, 64
4, 195264, Note_off_c, 2, 60, 64
4, 200640, Note_on_c, 2, 55, 105
4, 201888, Note_off_c, 2, 55, 64
4, 201960, Note_on_c, 2, 55, 105
4, 202044, Note_off_c, 2, 55, 64
4, 202080, Note_on_c, 2, 55, 105
4, 202164, Note_off_c, 2, 55, 64
4, 202200, Note_on_c, 2, 55, 105
4, 202284, Note_off_c, 2, 55, 64
4, 202320, Note_on_c, 2, 55, 105
4, 202404, Note_off_c, 2, 55, 64
4, 202440, Note_on_c, 2, 55, 105
4, 202524, Note_off_c, 2, 55, 64
4, 202560, Note_on_c, 2, 55, 105
4, 202728, Note_off_c, 2, 55, 64
4, 202800, Note_on_c, 2, 55, 105
4, 202800, Note_on_c, 2, 64, 105
4, 202968, Note_off_c, 2, 64, 64
4, 202968, Note_off_c, 2, 55, 64
4, 203040, Note_on_c, 2, 60, 105
4, 203040, Note_on_c, 2, 64, 105
4, 203208, Note_off_c, 2, 64, 64
4, 203208, Note_off_c, 2, 60, 64
4, 203280, Note_on_c, 2, 60, 105
4, 203448, Note_off_c, 2, 60, 64
4, 203520, Note_on_c, 2, 55, 105
4, 204768, Note_off_c, 2, 55, 64
4, 204840, Note_on_c, 2, 55, 105
4, 204924, Note_off_c, 2, 55, 64
4, 204960, Note_on_c, 2, 55, 105
4, 205044, Note_off_c, 2, 55, 64
4, 205080, Note_on_c, 2, 55, 105
4, 205164, Note_off_c, 2, 55, 64
4, 205200, Note_on_c, 2, 55, 105
4, 205284, Note_off_c, 2, 55, 64
4, 205320, Note_on_c, 2, 55, 105
4, 205404, Note_off_c, 2, 55, 64
4, 205440, Note_on_c, 2, 55, 105
4, 205608, Note_off_c, 2, 55, 64
4, 205680, Note_on_c, 2, 55, 105
4, 205680, Note_on_c, 2, 64, 105
4, 205848, Note_off_c, 2, 64, 64
4, 205848, Note_off_c, 2, 55, 64
4, 205920, Note_on_c, 2, 64, 105
4, 205920, Note_on_c, 2, 60, 105
4, 206088, Note_off_c, 2, 60, 64
4, 206088, Note_off_c, 2, 64, 64
4, 206160, Note_on_c, 2, 60, 105
4, 206328, Note_off_c, 2, 60, 64
4, 206400, Note_on_c, 2, 62, 72
4, 206400, Note_on_c, 2, 55, 72
4, 206478, Note_off_c, 2, 55, 64
4, 206478, Note_off_c, 2, 62, 64
4, 206520, Note_on_c, 2, 55, 72
4, 206520, Note_on_c, 2, 62, 72
4, 206598, Note_off_c, 2, 62, 64
4, 206598, Note_off_c, 2, 55, 64
4, 206640, Note_on_c, 2, 64, 72
4, 206640, Note_on_c, 2, 55, 72
4, 206718, Note_off_c, 2, 55, 64
4, 206718, Note_off_c, 2, 64, 64
4, 206760, Note_on_c, 2, 55, 72
4, 206760, Note_on_c, 2, 64, 72
4, 206838, Note_off_c, 2, 64, 64
4, 206838, Note_off_c, 2, 55, 64
4, 206880, Note_on_c, 2, 60, 72
4, 206880, Note_on_c, 2, 64, 72
4, 206958, Note_off_c, 2, 64, 64
4, 206958, Note_off_c, 2, 60, 64
4, 207000, Note_on_c, 2, 64, 72
4, 207000, Note_on_c, 2, 60, 72
4, 207078, Note_off_c, 2, 60, 64
4, 207078, Note_off_c, 2, 64, 64
4, 207120, Note_on_c, 2, 62, 72
4, 207198, Note_off_c, 2, 62, 64
4, 207240, Note_on_c, 2, 62, 72
4, 207318, Note_off_c, 2, 62, 64
4, 207360, Note_on_c, 2, 62, 105
4, 207360, Note_on_c, 2, 55, 105
4, 207444, Note_off_c, 2, 55, 64
4, 207444, Note_off_c, 2, 62, 64
4, 207480, Note_on_c, 2, 55, 105
4, 207480, Note_on_c, 2, 62, 105
4, 207564, Note_off_c, 2, 62, 64
4, 207564, Note_off_c, 2, 55, 64
4, 207600, Note_on_c, 2, 64, 105
4, 207600, Note_on_c, 2, 55, 105
4, 207684, Note_off_c, 2, 55, 64
4, 207684, Note_off_c, 2, 64, 64
4, 207720, Note_on_c, 2, 55, 105
4, 207720, Note_on_c, 2, 64, 105
4, 207804, Note_off_c, 2, 64, 64
4, 207804, Note_off_c, 2, 55, 64
4, 207840, Note_on_c, 2, 60, 105
4, 207840, Note_on_c, 2, 64, 105
4, 207924, Note_off_c, 2, 64, 64
4, 207924, Note_off_c, 2, 60, 64
4, 207960, Note_on_c, 2, 64, 105
4, 207960, Note_on_c, 2, 60, 105
4, 208044, Note_off_c, 2, 60, 64
4, 208044, Note_off_c, 2, 64, 64
4, 208080, Note_on_c, 2, 62, 105
4, 208164, Note_off_c, 2, 62, 64
4, 208200, Note_on_c, 2, 62, 105
4, 208284, Note_off_c, 2, 62, 64
4, 208320, Note_on_c, 2, 62, 105
4, 208320, Note_on_c, 2, 55, 105
4, 208512, Note_off_c, 2, 55, 64
4, 208512, Note_off_c, 2, 62, 64
4, 210240, Note_on_c, 2, 55, 58
4, 210240, Note_on_c, 2, 62, 58
4, 211776, Note_off_c, 2, 62, 64
4, 211776, Note_off_c, 2, 55, 64
4, 228480, Note_on_c, 2, 55, 58
4, 228480, Note_on_c, 2, 48, 58
4, 229608, Note_off_c, 2, 55, 64
4, 229608, Note_off_c, 2, 48, 64
4, 229680, Note_on_c, 2, 55, 105
4, 229680, Note_on_c, 2, 48, 105
4, 229806, Note_off_c, 2, 48, 64
4, 229806, Note_off_c, 2, 55, 64
4, 229860, Note_on_c, 2, 55, 105
4, 229860, Note_on_c, 2, 48, 105
4, 229902, Note_off_c, 2, 48, 64
4, 229902, Note_off_c, 2, 55, 64
4, 229920, Note_on_c, 2, 48, 105
4, 229920, Note_on_c, 2, 55, 105
4, 230088, Note_off_c, 2, 55, 64
4, 230088, Note_off_c, 2, 48, 64
4, 230160, Note_on_c, 2, 55, 105
4, 230160, Note_on_c, 2, 48, 105
4, 230328, Note_off_c, 2, 48, 64
4, 230328, Note_off_c, 2, 55, 64
4, 230400, Note_on_c, 2, 48, 105
4, 230400, Note_on_c, 2, 60, 105
4, 230568, Note_off_c, 2, 60, 64
4, 230568, Note_off_c, 2, 48, 64
4, 230640, Note_on_c, 2, 48, 105
4, 230640, Note_on_c, 2, 60, 105
4, 230724, Note_off_c, 2, 60, 64
4, 230724, Note_off_c, 2, 48, 64
4, 230760, Note_on_c, 2, 48, 105
4, 230760, Note_on_c, 2, 60, 105
4, 230844, Note_off_c, 2, 60, 64
4, 230844, Note_off_c, 2, 48, 64
4, 230880, Note_on_c, 2, 60, 105
4, 230880, Note_on_c, 2, 48, 105
4, 231048, Note_off_c, 2, 48, 64
4, 231048, Note_off_c, 2, 60, 64
4, 231120, Note_on_c, 2, 48, 105
4, 231120, Note_on_c, 2, 60, 105
4, 231204, Note_off_c, 2, 60, 64
4, 231204, Note_off_c, 2, 48, 64
4, 231240, Note_on_c, 2, 48, 105
4, 231240, Note_on_c, 2, 60, 105
4, 231324, Note_off_c, 2, 60, 64
4, 231324, Note_off_c, 2, 48, 64
4, 231360, Note_on_c, 2, 48, 105
4, 231360, Note_on_c, 2, 60, 105
4, 231528, Note_off_c, 2, 60, 64
4, 231528, Note_off_c, 2, 48, 64
4, 231600, Note_on_c, 2, 48, 105
4, 231600, Note_on_c, 2, 60, 105
4, 231684, Note_off_c, 2, 60, 64
4, 231684, Note_off_c, 2, 48, 64
4, 231720, Note_on_c, 2, 48, 105
4, 231720, Note_on_c, 2, 60, 105
4, 231804, Note_off_c, 2, 60, 64
4, 231804, Note_off_c, 2, 48, 64
4, 231840, Note_on_c, 2, 60, 105
4, 231840, Note_on_c, 2, 48, 105
4, 232008, Note_off_c, 2, 48, 64
4, 232008, Note_off_c, 2, 60, 64
4, 232080, Note_on_c, 2, 60, 105
4, 232080, Note_on_c, 2, 48, 105
4, 232164, Note_off_c, 2, 48, 64
4, 232164, Note_off_c, 2, 60, 64
4, 232200, Note_on_c, 2, 60, 105
4, 232200, Note_on_c, 2, 48, 105
4, 232284, Note_off_c, 2, 48, 64
4, 232284, Note_off_c, 2, 60, 64
4, 232320, Note_on_c, 2, 60, 105
4, 232320, Note_on_c, 2, 48, 105
4, 232512, Note_off_c, 2, 48, 64
4, 232512, Note_off_c, 2, 60, 64
4, 236160, Note_on_c, 2, 48, 58
4, 236160, Note_on_c, 2, 60, 58
4, 239952, Note_off_c, 2, 48, 64
4, 239952, Note_off_c, 2, 60, 64
4, 240240, Note_on_c, 2, 55, 105
4, 240366, Note_off_c, 2, 55, 64
4, 240420, Note_on_c, 2, 55, 105
4, 240462, Note_off_c, 2, 55, 64
4, 240480, Note_on_c, 2, 55, 105
4, 240648, Note_off_c, 2, 55, 64
4, 241200, Note_on_c, 2, 55, 105
4, 241326, Note_off_c, 2, 55, 64
4, 241380, Note_on_c, 2, 55, 105
4, 241422, Note_off_c, 2, 55, 64
4, 241440, Note_on_c, 2, 55, 105
4, 241608, Note_off_c, 2, 55, 64
4, 242160, Note_on_c, 2, 55, 105
4, 242286, Note_off_c, 2, 55, 64
4, 242340, Note_on_c, 2, 55, 105
4, 242382, Note_off_c, 2, 55, 64
4, 242400, Note_on_c, 2, 55, 105
4, 242568, Note_off_c, 2, 55, 64
4, 243120, Note_on_c, 2, 55, 105
4, 243246, Note_off_c, 2, 55, 64
4, 243300, Note_on_c, 2, 55, 105
4, 243342, Note_off_c, 2, 55, 64
4, 243360, Note_on_c, 2, 55, 105
4, 243528, Note_off_c, 2, 55, 64
4, 243840, Note_on_c, 2, 55, 105
4, 243840, Note_on_c, 2, 62, 105
4, 244008, Note_off_c, 2, 62, 64
4, 244008, Note_off_c, 2, 55, 64
4, 244080, Note_on_c, 2, 64, 105
4, 244080, Note_on_c, 2, 60, 105
4, 244248, Note_off_c, 2, 60, 64
4, 244248, Note_off_c, 2, 64, 64
4, 244320, Note_on_c, 2, 65, 105
4, 244320, Note_on_c, 2, 62, 105
4, 244488, Note_off_c, 2, 62, 64
4, 244488, Note_off_c, 2, 65, 64
4, 244560, Note_on_c, 2, 64, 105
4, 244560, Note_on_c, 2, 60, 105
4, 244728, Note_off_c, 2, 60, 64
4, 244728, Note_off_c, 2, 64, 64
4, 244800, Note_on_c, 2, 55, 105
4, 244800, Note_on_c, 2, 62, 105
4, 244968, Note_off_c, 2, 62, 64
4, 244968, Note_off_c, 2, 55, 64
4, 245040, Note_on_c, 2, 64, 105
4, 245040, Note_on_c, 2, 60, 105
4, 245208, Note_off_c, 2, 60, 64
4, 245208, Note_off_c, 2, 64, 64
4, 245280, Note_on_c, 2, 65, 105
4, 245280, Note_on_c, 2, 62, 105
4, 245448, Note_off_c, 2, 62, 64
4, 245448, Note_off_c, 2, 65, 64
4, 245520, Note_on_c, 2, 64, 105
4, 245520, Note_on_c, 2, 60, 105
4, 245688, Note_off_c, 2, 60, 64
4, 245688, Note_off_c, 2, 64, 64
4, 245760, Note_on_c, 2, 62, 105
4, 245760, Note_on_c, 2, 55, 105
4, 245952, Note_off_c, 2, 55, 64
4, 245952, Note_off_c, 2, 62, 64
4, 260160, Note_on_c, 2, 60, 105
4, 260160, Note_on_c, 2, 48, 105
4, 262464, Note_off_c, 2, 48, 64
4, 262464, Note_off_c, 2, 60, 64
4, 262800, Note_on_c, 2, 60, 105
4, 262800, Note_on_c, 2, 48, 105
4, 262968, Note_off_c, 2, 48, 64
4, 262968, Note_off_c, 2, 60, 64
4, 263040, Note_on_c, 2, 48, 105
4, 263040, Note_on_c, 2, 60, 105
4, 263208, Note_off_c, 2, 60, 64
4, 263208, Note_off_c, 2, 48, 64
4, 263280, Note_on_c, 2, 48, 105
4, 263280, Note_on_c, 2, 60, 105
4, 263448, Note_off_c, 2, 60, 64
4, 263448, Note_off_c, 2, 48, 64
4, 263760, Note_on_c, 2, 48, 105
4, 263760, Note_on_c, 2, 60, 105
4, 263928, Note_off_c, 2, 60, 64
4, 263928, Note_off_c, 2, 48, 64
4, 264000, Note_on_c, 2, 48, 105
4, 264000, Note_on_c, 2, 60, 105
4, 264168, Note_off_c, 2, 60, 64
4, 264168, Note_off_c, 2, 48, 64
4, 264240, Note_on_c, 2, 48, 105
4, 264240, Note_on_c, 2, 60, 105
4, 264408, Note_off_c, 2, 60, 64
4, 264408, Note_off_c, 2, 48, 64
4, 264720, Note_on_c, 2, 48, 105
4, 264720, Note_on_c, 2, 60, 105
4, 264888, Note_off_c, 2, 60, 64
4, 264888, Note_off_c, 2, 48, 64
4, 264960, Note_on_c, 2, 60, 105
4, 264960, Note_on_c, 2, 48, 105
4, 265128, Note_off_c, 2, 48, 64
4, 265128, Note_off_c, 2, 60, 64
4, 265200, Note_on_c, 2, 48, 105
4, 265200, Note_on_c, 2, 60, 105
4, 265368, Note_off_c, 2, 60, 64
4, 265368, Note_off_c, 2, 48, 64
4, 265440, Note_on_c, 2, 60, 105
4, 265440, Note_on_c, 2, 48, 105
4, 265608, Note_off_c, 2, 48, 64
4, 265608, Note_off_c, 2, 60, 64
4, 265680, Note_on_c, 2, 60, 105
4, 265680, Note_on_c, 2, 48, 105
4, 265848, Note_off_c, 2, 48, 64
4, 265848, Note_off_c, 2, 60, 64
4, 265920, Note_on_c, 2, 48, 105
4, 265920, Note_on_c, 2, 60, 105
4, 266088, Note_off_c, 2, 60, 64
4, 266088, Note_off_c, 2, 48, 64
4, 266160, Note_on_c, 2, 60, 105
4, 266160, Note_on_c, 2, 48, 105
4, 266328, Note_off_c, 2, 48, 64
4, 266328, Note_off_c, 2, 60, 64
4, 266880, Note_on_c, 2, 48, 58
4, 266880, Note_on_c, 2, 60, 58
4, 268992, Note_off_c, 2, 48, 64
4, 268992, Note_off_c, 2, 60, 64
4, 271680, Note_on_c, 2, 48, 105
4, 271680, Note_on_c, 2, 60, 105
4, 271848, Note_off_c, 2, 60, 64
4, 271848, Note_off_c, 2, 48, 64
4, 271920, Note_on_c, 2, 48, 105
4, 271920, Note_on_c, 2, 60, 105
4, 272046, Note_off_c, 2, 60, 64
4, 272046, Note_off_c, 2, 48, 64
4, 272100, Note_on_c, 2, 60, 105
4, 272100, Note_on_c, 2, 48, 105
4, 272142, Note_off_c, 2, 48, 64
4, 272142, Note_off_c, 2, 60, 64
4, 272160, Note_on_c, 2, 48, 105
4, 272160, Note_on_c, 2, 60, 105
4, 272328, Note_off_c, 2, 60, 64
4, 272328, Note_off_c, 2, 48, 64
4, 272400, Note_on_c, 2, 48, 105
4, 272400, Note_on_c, 2, 60, 105
4, 272568, Note_off_c, 2, 60, 64
4, 272568, Note_off_c, 2, 48, 64
4, 272640, Note_on_c, 2, 62, 105
4, 272640, Note_on_c, 2, 55, 105
4, 272808, Note_off_c, 2, 55, 64
4, 272808, Note_off_c, 2, 62, 64
4, 272880, Note_on_c, 2, 62, 105
4, 272880, Note_on_c, 2, 55, 105
4, 273006, Note_off_c, 2, 55, 64
4, 273006, Note_off_c, 2, 62, 64
4, 273060, Note_on_c, 2, 55, 105
4, 273060, Note_on_c, 2, 62, 105
4, 273102, Note_off_c, 2, 62, 64
4, 273102, Note_off_c, 2, 55, 64
4, 273120, Note_on_c, 2, 62, 105
4, 273120, Note_on_c, 2, 55, 105
4, 273288, Note_off_c, 2, 55, 64
4, 273288, Note_off_c, 2, 62, 64
4, 273360, Note_on_c, 2, 62, 105
4, 273360, Note_on_c, 2, 55, 105
4, 273528, Note_off_c, 2, 55, 64
4, 273528, Note_off_c, 2, 62, 64
4, 273600, Note_on_c, 2, 64, 105
4, 273600, Note_on_c, 2, 60, 105
4, 273984, Note_off_c, 2, 60, 64
4, 273984, Note_off_c, 2, 64, 64
4, 274080, Note_on_c, 2, 64, 105
4, 274080, Note_on_c, 2, 60, 105
4, 274464, Note_off_c, 2, 60, 64
4, 274464, Note_off_c, 2, 64, 64
4, 274560, Note_on_c, 2, 62, 105
4, 274560, Note_on_c, 2, 65, 105
4, 274944, Note_off_c, 2, 65, 64
4, 274944, Note_off_c, 2, 62, 64
4, 275040, Note_on_c, 2, 60, 105
4, 275040, Note_on_c, 2, 64, 105
4, 275208, Note_off_c, 2, 64, 64
4, 275208, Note_off_c, 2, 60, 64
4, 275280, Note_on_c, 2, 62, 105
4, 275280, Note_on_c, 2, 55, 105
4, 275448, Note_off_c, 2, 55, 64
4, 275448, Note_off_c, 2, 62, 64
4, 275520, Note_on_c, 2, 48, 105
4, 275520, Note_on_c, 2, 60, 105
4, 275688, Note_off_c, 2, 60, 64
4, 275688, Note_off_c, 2, 48, 64
4, 275760, Note_on_c, 2, 60, 105
4, 275760, Note_on_c, 2, 48, 105
4, 275886, Note_off_c, 2, 48, 64
4, 275886, Note_off_c, 2, 60, 64
4, 275940, Note_on_c, 2, 60, 105
4, 275940, Note_on_c, 2, 48, 105
4, 275982, Note_off_c, 2, 48, 64
4, 275982, Note_off_c, 2, 60, 64
4, 276000, Note_on_c, 2, 60, 105
4, 276000, Note_on_c, 2, 48, 105
4, 276168, Note_off_c, 2, 48, 64
4, 276168, Note_off_c, 2, 60, 64
4, 276240, Note_on_c, 2, 60, 105
4, 276240, Note_on_c, 2, 48, 105
4, 276408, Note_off_c, 2, 48, 64
4, 276408, Note_off_c, 2, 60, 64
4, 276480, Note_on_c, 2, 62, 105
4, 276480, Note_on_c, 2, 55, 105
4, 276648, Note_off_c, 2, 55, 64
4, 276648, Note_off_c, 2, 62, 64
4, 276720, Note_on_c, 2, 62, 105
4, 276720, Note_on_c, 2, 55, 105
4, 276846, Note_off_c, 2, 55, 64
4, 276846, Note_off_c, 2, 62, 64
4, 276900, Note_on_c, 2, 62, 105
4, 276900, Note_on_c, 2, 55, 105
4, 276942, Note_off_c, 2, 55, 64
4, 276942, Note_off_c, 2, 62, 64
4, 276960, Note_on_c, 2, 55, 105
4, 276960, Note_on_c, 2, 62, 105
4, 277128, Note_off_c, 2, 62, 64
4, 277128, Note_off_c, 2, 55, 64
4, 277200, Note_on_c, 2, 55, 105
4, 277200, Note_on_c, 2, 62, 105
4, 277368, Note_off_c, 2, 62, 64
4, 277368, Note_off_c, 2, 55, 64
4, 277440, Note_on_c, 2, 64, 105
4, 277440, Note_on_c, 2, 60, 105
4, 278352, Note_off_c, 2, 64, 64
4, 278400, Note_on_c, 2, 62, 105
4, 279312, Note_off_c, 2, 60, 64
4, 279360, Note_on_c, 2, 55, 105
4, 280272, Note_off_c, 2, 55, 64
4, 280272, Note_off_c, 2, 62, 64
4, 280320, Note_on_c, 2, 60, 105
4, 280320, Note_on_c, 2, 48, 105
4, 282192, Note_off_c, 2, 48, 64
4, 282192, Note_off_c, 2, 60, 64
4, 283200, Note_on_c, 2, 48, 105
4, 283200, Note_on_c, 2, 60, 105
4, 283368, Note_off_c, 2, 60, 64
4, 283368, Note_off_c, 2, 48, 64
4, 283440, Note_on_c, 2, 48, 105
4, 283440, Note_on_c, 2, 60, 105
4, 283566, Note_off_c, 2, 60, 64
4, 283566, Note_off_c, 2, 48, 64
4, 283620, Note_on_c, 2, 60, 105
4, 283620, Note_on_c, 2, 48, 105
4, 283662, Note_off_c, 2, 48, 64
4, 283662, Note_off_c, 2, 60, 64
4, 283680, Note_on_c, 2, 48, 105
4, 283680, Note_on_c, 2, 60, 105
4, 283848, Note_off_c, 2, 60, 64
4, 283848, Note_off_c, 2, 48, 64
4, 283920, Note_on_c, 2, 60, 105
4, 283920, Note_on_c, 2, 48, 105
4, 284088, Note_off_c, 2, 48, 64
4, 284088, Note_off_c, 2, 60, 64
4, 284160, Note_on_c, 2, 48, 105
4, 284160, Note_on_c, 2, 60, 105
4, 284352, Note_off_c, 2, 60, 64
4, 284352, Note_off_c, 2, 48, 64
4, 284880, Note_on_c, 2, 48, 105
4, 284880, Note_on_c, 2, 60, 105
4, 284964, Note_off_c, 2, 60, 64
4, 284964, Note_off_c, 2, 48, 64
4, 285000, Note_on_c, 2, 48, 105
4, 285000, Note_on_c, 2, 60, 105
4, 285084, Note_off_c, 2, 60, 64
4, 285084, Note_off_c, 2, 48, 64
4, 285120, Note_on_c, 2, 60, 105
4, 285120, Note_on_c, 2, 48, 105
4, 285288, Note_off_c, 2, 48, 64
4, 285288, Note_off_c, 2, 60, 64
4, 285360, Note_on_c, 2, 48, 105
4, 285360, Note_on_c, 2, 60, 105
4, 285528, Note_off_c, 2, 60, 64
4, 285528, Note_off_c, 2, 48, 64
4, 285600, Note_on_c, 2, 48, 105
4, 285600, Note_on_c, 2, 60, 105
4, 285984, Note_off_c, 2, 60, 64
4, 285984, Note_off_c, 2, 48, 64
4, 286080, Note_on_c, 2, 60, 105
4, 286080, Note_on_c, 2, 48, 105
4, 286272, Note_off_c, 2, 48, 64
4, 286272, Note_off_c, 2, 60, 64
4, 286800, Note_on_c, 2, 60, 105
4, 286800, Note_on_c, 2, 48, 105
4, 286884, Note_off_c, 2, 48, 64
4, 286884, Note_off_c, 2, 60, 64
4, 286920, Note_on_c, 2, 48, 105
4, 286920, Note_on_c, 2, 60, 105
4, 287004, Note_off_c, 2, 60, 64
4, 287004, Note_off_c, 2, 48, 64
4, 287040, Note_on_c, 2, 60, 105
4, 287040, Note_on_c, 2, 48, 105
4, 287208, Note_off_c, 2, 48, 64
4, 287208, Note_off_c, 2, 60, 64
4, 287280, Note_on_c, 2, 60, 105
4, 287280, Note_on_c, 2, 48, 105
4, 287448, Note_off_c, 2, 48, 64
4, 287448, Note_off_c, 2, 60, 64
4, 287520, Note_on_c, 2, 60, 105
4, 287520, Note_on_c, 2, 48, 105
4, 287904, Note_off_c, 2, 48, 64
4, 287904, Note_off_c, 2, 60, 64
4, 288000, Note_on_c, 2, 60, 105
4, 288000, Note_on_c, 2, 48, 105
4, 288192, Note_off_c, 2, 48, 64
4, 288192, Note_off_c, 2, 60, 64
4, 288960, Note_on_c, 2, 60, 105
4, 288960, Note_on_c, 2, 48, 105
4, 289152, Note_off_c, 2, 48, 64
4, 289152, Note_off_c, 2, 60, 64
4, 290880, Note_on_c, 2, 48, 105
4, 290880, Note_on_c, 2, 60, 105
4, 290952, Note_off_c, 2, 60, 64
4, 290952, Note_off_c, 2, 48, 64
4, 291000, Note_on_c, 2, 60, 105
4, 291000, Note_on_c, 2, 48, 105
4, 291072, Note_off_c, 2, 48, 64
4, 291072, Note_off_c, 2, 60, 64
4, 291120, Note_on_c, 2, 60, 105
4, 291120, Note_on_c, 2, 48, 105
4, 291192, Note_off_c, 2, 48, 64
4, 291192, Note_off_c, 2, 60, 64
4, 291240, Note_on_c, 2, 48, 105
4, 291240, Note_on_c, 2, 60, 105
4, 291312, Note_off_c, 2, 60, 64
4, 291312, Note_off_c, 2, 48, 64
4, 291360, Note_on_c, 2, 60, 105
4, 291360, Note_on_c, 2, 48, 105
4, 291432, Note_off_c, 2, 48, 64
4, 291432, Note_off_c, 2, 60, 64
4, 291480, Note_on_c, 2, 48, 105
4, 291480, Note_on_c, 2, 60, 105
4, 291552, Note_off_c, 2, 60, 64
4, 291552, Note_off_c, 2, 48, 64
4, 291600, Note_on_c, 2, 60, 105
4, 291600, Note_on_c, 2, 48, 105
4, 291672, Note_off_c, 2, 48, 64
4, 291672, Note_off_c, 2, 60, 64
4, 291720, Note_on_c, 2, 60, 105
4, 291720, Note_on_c, 2, 48, 105
4, 291792, Note_off_c, 2, 48, 64
4, 291792, Note_off_c, 2, 60, 64
4, 291840, Note_on_c, 2, 60, 105
4, 291840, Note_on_c, 2, 48, 105
4, 292032, Note_off_c, 2, 48, 64
4, 292032, Note_off_c, 2, 60, 64
4, 292800, Note_on_c, 2, 55, 105
4, 292872, Note_off_c, 2, 55, 64
4, 292920, Note_on_c, 2, 55, 105
4, 292992, Note_off_c, 2, 55, 64
4, 293040, Note_on_c, 2, 55, 105
4, 293112, Note_off_c, 2, 55, 64
4, 293160, Note_on_c, 2, 55, 105
4, 293232, Note_off_c, 2, 55, 64
4, 293280, Note_on_c, 2, 55, 105
4, 293352, Note_off_c, 2, 55, 64
4, 293400, Note_on_c, 2, 55, 105
4, 293472, Note_off_c, 2, 55, 64
4, 293520, Note_on_c, 2, 55, 105
4, 293592, Note_off_c, 2, 55, 64
4, 293640, Note_on_c, 2, 55, 105
4, 293712, Note_off_c, 2, 55, 64
4, 293760, Note_on_c, 2, 55, 105
4, 293760, Note_on_c, 2, 48, 105
4, 293952, Note_off_c, 2, 48, 64
4, 293952, Note_off_c, 2, 55, 64
4, 299520, Note_on_c, 2, 60, 58
4, 299520, Note_on_c, 2, 48, 58
4, 301056, Note_off_c, 2, 60, 64
4, 301056, Note_off_c, 2, 48, 64
4, 302880, Note_on_c, 2, 52, 105
4, 302880, Note_on_c, 2, 64, 105
4, 303036, Note_off_c, 2, 64, 64
4, 303036, Note_off_c, 2, 52, 64
4, 303120, Note_on_c, 2, 64, 105
4, 303120, Note_on_c, 2, 52, 105
4, 303276, Note_off_c, 2, 52, 64
4, 303276, Note_off_c, 2, 64, 64
4, 303360, Note_on_c, 2, 64, 105
4, 303360, Note_on_c, 2, 52, 105
4, 303744, Note_off_c, 2, 52, 64
4, 303744, Note_off_c, 2, 64, 64
4, 303840, Note_on_c, 2, 64, 105
4, 303840, Note_on_c, 2, 52, 105
4, 304224, Note_off_c, 2, 52, 64
4, 304224, Note_off_c, 2, 64, 64
4, 304320, Note_on_c, 2, 52, 105
4, 304320, Note_on_c, 2, 64, 105
4, 304476, Note_off_c, 2, 64, 64
4, 304476, Note_off_c, 2, 52, 64
4, 304800, Note_on_c, 2, 64, 105
4, 304800, Note_on_c, 2, 52, 105
4, 304956, Note_off_c, 2, 52, 64
4, 304956, Note_off_c, 2, 64, 64
4, 305040, Note_on_c, 2, 52, 105
4, 305040, Note_on_c, 2, 64, 105
4, 305196, Note_off_c, 2, 64, 64
4, 305196, Note_off_c, 2, 52, 64
4, 305280, Note_on_c, 2, 52, 105
4, 305280, Note_on_c, 2, 64, 105
4, 305436, Note_off_c, 2, 64, 64
4, 305436, Note_off_c, 2, 52, 64
4, 305760, Note_on_c, 2, 64, 105
4, 305760, Note_on_c, 2, 52, 105
4, 305916, Note_off_c, 2, 52, 64
4, 305916, Note_off_c, 2, 64, 64
4, 306000, Note_on_c, 2, 52, 105
4, 306000, Note_on_c, 2, 64, 105
4, 306156, Note_off_c, 2, 64, 64
4, 306156, Note_off_c, 2, 52, 64
4, 306240, Note_on_c, 2, 64, 105
4, 306240, Note_on_c, 2, 52, 105
4, 306456, Note_off_c, 2, 52, 64
4, 306456, Note_off_c, 2, 64, 64
4, 306720, Note_on_c, 2, 48, 72
4, 306720, Note_on_c, 2, 60, 72
4, 306900, Note_off_c, 2, 60, 64
4, 306900, Note_off_c, 2, 48, 64
4, 306960, Note_on_c, 2, 60, 72
4, 306960, Note_on_c, 2, 48, 72
4, 307140, Note_off_c, 2, 48, 64
4, 307140, Note_off_c, 2, 60, 64
4, 307200, Note_on_c, 2, 48, 72
4, 307200, Note_on_c, 2, 60, 72
4, 307584, Note_off_c, 2, 60, 64
4, 307680, Note_on_c, 2, 67, 72
4, 308136, Note_off_c, 2, 67, 64
4, 308160, Note_on_c, 2, 65, 72
4, 308352, Note_off_c, 2, 65, 64
4, 308352, Note_off_c, 2, 48, 64
4, 314400, Note_on_c, 2, 48, 105
4, 314400, Note_on_c, 2, 60, 105
4, 314568, Note_off_c, 2, 60, 64
4, 314568, Note_off_c, 2, 48, 64
4, 314640, Note_on_c, 2, 48, 105
4, 314640, Note_on_c, 2, 60, 105
4, 314808, Note_off_c, 2, 60, 64
4, 314808, Note_off_c, 2, 48, 64
4, 314880, Note_on_c, 2, 60, 105
4, 314880, Note_on_c, 2, 48, 105
4, 315264, Note_off_c, 2, 48, 64
4, 315264, Note_off_c, 2, 60, 64
4, 315360, Note_on_c, 2, 60, 105
4, 315360, Note_on_c, 2, 48, 105
4, 315744, Note_off_c, 2, 48, 64
4, 315744, Note_off_c, 2, 60, 64
4, 315840, Note_on_c, 2, 48, 105
4, 315840, Note_on_c, 2, 60, 105
4, 316008, Note_off_c, 2, 60, 64
4, 316008, Note_off_c, 2, 48, 64
4, 316080, Note_on_c, 2, 60, 105
4, 316080, Note_on_c, 2, 48, 105
4, 316164, Note_off_c, 2, 48, 64
4, 316164, Note_off_c, 2, 60, 64
4, 316200, Note_on_c, 2, 60, 105
4, 316200, Note_on_c, 2, 48, 105
4, 316284, Note_off_c, 2, 48, 64
4, 316284, Note_off_c, 2, 60, 64
4, 316320, Note_on_c, 2, 60, 105
4, 316320, Note_on_c, 2, 48, 105
4, 316488, Note_off_c, 2, 48, 64
4, 316488, Note_off_c, 2, 60, 64
4, 316800, Note_on_c, 2, 60, 105
4, 316800, Note_on_c, 2, 64, 105
4, 316968, Note_off_c, 2, 64, 64
4, 316968, Note_off_c, 2, 60, 64
4, 317040, Note_on_c, 2, 60, 105
4, 317040, Note_on_c, 2, 64, 105
4, 317124, Note_off_c, 2, 64, 64
4, 317124, Note_off_c, 2, 60, 64
4, 317160, Note_on_c, 2, 60, 105
4, 317160, Note_on_c, 2, 64, 105
4, 317244, Note_off_c, 2, 64, 64
4, 317244, Note_off_c, 2, 60, 64
4, 317280, Note_on_c, 2, 64, 105
4, 317280, Note_on_c, 2, 60, 105
4, 317448, Note_off_c, 2, 60, 64
4, 317448, Note_off_c, 2, 64, 64
4, 317520, Note_on_c, 2, 55, 105
4, 317520, Note_on_c, 2, 62, 105
4, 317688, Note_off_c, 2, 62, 64
4, 317688, Note_off_c, 2, 55, 64
4, 317760, Note_on_c, 2, 52, 105
4, 317760, Note_on_c, 2, 60, 105
4, 317928, Note_off_c, 2, 60, 64
4, 317928, Note_off_c, 2, 52, 64
4, 319680, Note_on_c, 2, 55, 105
4, 320448, Note_off_c, 2, 55, 64
4, 320640, Note_on_c, 2, 55, 105
4, 320640, Note_on_c, 2, 48, 105
4, 320808, Note_off_c, 2, 48, 64
4, 320808, Note_off_c, 2, 55, 64
4, 320880, Note_on_c, 2, 60, 105
4, 320880, Note_on_c, 2, 48, 105
4, 321048, Note_off_c, 2, 48, 64
4, 321048, Note_off_c, 2, 60, 64
4, 321120, Note_on_c, 2, 48, 105
4, 321120, Note_on_c, 2, 60, 105
4, 321288, Note_off_c, 2, 60, 64
4, 321288, Note_off_c, 2, 48, 64
4, 321360, Note_on_c, 2, 55, 105
4, 321360, Note_on_c, 2, 62, 105
4, 321528, Note_off_c, 2, 62, 64
4, 321528, Note_off_c, 2, 55, 64
4, 321600, Note_on_c, 2, 60, 105
4, 321600, Note_on_c, 2, 52, 105
4, 321792, Note_off_c, 2, 52, 64
4, 321792, Note_off_c, 2, 60, 64
4, 323520, Note_on_c, 2, 55, 105
4, 324288, Note_off_c, 2, 55, 64
4, 324480, Note_on_c, 2, 55, 105
4, 324480, Note_on_c, 2, 48, 105
4, 324648, Note_off_c, 2, 48, 64
4, 324648, Note_off_c, 2, 55, 64
4, 324720, Note_on_c, 2, 60, 105
4, 324720, Note_on_c, 2, 64, 105
4, 324888, Note_off_c, 2, 64, 64
4, 324888, Note_off_c, 2, 60, 64
4, 324960, Note_on_c, 2, 65, 105
4, 324960, Note_on_c, 2, 62, 105
4, 325128, Note_off_c, 2, 62, 64
4, 325128, Note_off_c, 2, 65, 64
4, 325200, Note_on_c, 2, 62, 105
4, 325200, Note_on_c, 2, 55, 105
4, 325368, Note_off_c, 2, 55, 64
4, 325368, Note_off_c, 2, 62, 64
4, 325440, Note_on_c, 2, 52, 105
4, 325440, Note_on_c, 2, 60, 105
4, 325524, Note_off_c, 2, 60, 64
4, 325524, Note_off_c, 2, 52, 64
4, 325560, Note_on_c, 2, 48, 105
4, 325560, Note_on_c, 2, 60, 105
4, 325644, Note_off_c, 2, 60, 64
4, 325644, Note_off_c, 2, 48, 64
4, 325680, Note_on_c, 2, 48, 105
4, 325680, Note_on_c, 2, 60, 105
4, 325764, Note_off_c, 2, 60, 64
4, 325764, Note_off_c, 2, 48, 64
4, 325800, Note_on_c, 2, 48, 105
4, 325800, Note_on_c, 2, 60, 105
4, 325884, Note_off_c, 2, 60, 64
4, 325884, Note_off_c, 2, 48, 64
4, 325920, Note_on_c, 2, 60, 105
4, 325920, Note_on_c, 2, 48, 105
4, 326112, Note_off_c, 2, 48, 64
4, 326112, Note_off_c, 2, 60, 64
4, 326400, Note_on_c, 2, 60, 105
4, 326400, Note_on_c, 2, 48, 105
4, 326484, Note_off_c, 2, 48, 64
4, 326484, Note_off_c, 2, 60, 64
4, 326520, Note_on_c, 2, 60, 105
4, 326520, Note_on_c, 2, 48, 105
4, 326604, Note_off_c, 2, 48, 64
4, 326604, Note_off_c, 2, 60, 64
4, 326640, Note_on_c, 2, 48, 105
4, 326640, Note_on_c, 2, 60, 105
4, 326724, Note_off_c, 2, 60, 64
4, 326724, Note_off_c, 2, 48, 64
4, 326760, Note_on_c, 2, 60, 105
4, 326760, Note_on_c, 2, 48, 105
4, 326844, Note_off_c, 2, 48, 64
4, 326844, Note_off_c, 2, 60, 64
4, 326880, Note_on_c, 2, 60, 105
4, 326880, Note_on_c, 2, 48, 105
4, 327072, Note_off_c, 2, 48, 64
4, 327072, Note_off_c, 2, 60, 64
4, 327360, Note_on_c, 2, 60, 105
4, 327360, Note_on_c, 2, 48, 105
4, 327444, Note_off_c, 2, 48, 64
4, 327444, Note_off_c, 2, 60, 64
4, 327480, Note_on_c, 2, 60, 105
4, 327480, Note_on_c, 2, 48, 105
4, 327564, Note_off_c, 2, 48, 64
4, 327564, Note_off_c, 2, 60, 64
4, 327600, Note_on_c, 2, 48, 105
4, 327600, Note_on_c, 2, 60, 105
4, 327684, Note_off_c, 2, 60, 64
4, 327684, Note_off_c, 2, 48, 64
4, 327720, Note_on_c, 2, 60, 105
4, 327720, Note_on_c, 2, 48, 105
4, 327804, Note_off_c, 2, 48, 64
4, 327804, Note_off_c, 2, 60, 64
4, 327840, Note_on_c, 2, 60, 105
4, 327840, Note_on_c, 2, 48, 105
4, 328032, Note_off_c, 2, 48, 64
4, 328032, Note_off_c, 2, 60, 64
4, 328320, Note_on_c, 2, 48, 105
4, 328320, Note_on_c, 2, 60, 105
4, 328704, Note_off_c, 2, 60, 64
4, 328704, Note_off_c, 2, 48, 64
4, 328800, Note_on_c, 2, 65, 105
4, 328800, Note_on_c, 2, 62, 105
4, 329184, Note_off_c, 2, 62, 64
4, 329184, Note_off_c, 2, 65, 64
4, 329280, Note_on_c, 2, 55, 105
4, 329280, Note_on_c, 2, 62, 105
4, 329424, Note_off_c, 2, 62, 64
4, 329424, Note_off_c, 2, 55, 64
4, 329520, Note_on_c, 2, 55, 105
4, 329520, Note_on_c, 2, 62, 105
4, 329664, Note_off_c, 2, 62, 64
4, 329664, Note_off_c, 2, 55, 64
4, 330240, Note_on_c, 2, 64, 105
4, 330240, Note_on_c, 2, 60, 105
4, 330396, Note_off_c, 2, 60, 64
4, 330396, Note_off_c, 2, 64, 64
4, 330480, Note_on_c, 2, 48, 105
4, 330480, Note_on_c, 2, 60, 105
4, 330636, Note_off_c, 2, 60, 64
4, 330636, Note_off_c, 2, 48, 64
4, 330720, Note_on_c, 2, 64, 105
4, 330720, Note_on_c, 2, 60, 105
4, 330876, Note_off_c, 2, 60, 64
4, 330876, Note_off_c, 2, 64, 64
4, 330960, Note_on_c, 2, 62, 105
4, 330960, Note_on_c, 2, 55, 105
4, 331116, Note_off_c, 2, 55, 64
4, 331116, Note_off_c, 2, 62, 64
4, 331200, Note_on_c, 2, 52, 105
4, 331200, Note_on_c, 2, 60, 105
4, 331284, Note_off_c, 2, 60, 64
4, 331284, Note_off_c, 2, 52, 64
4, 331320, Note_on_c, 2, 60, 105
4, 331320, Note_on_c, 2, 48, 105
4, 331404, Note_off_c, 2, 48, 64
4, 331404, Note_off_c, 2, 60, 64
4, 331440, Note_on_c, 2, 48, 105
4, 331440, Note_on_c, 2, 60, 105
4, 331524, Note_off_c, 2, 60, 64
4, 331524, Note_off_c, 2, 48, 64
4, 331560, Note_on_c, 2, 48, 105
4, 331560, Note_on_c, 2, 60, 105
4, 331644, Note_off_c, 2, 60, 64
4, 331644, Note_off_c, 2, 48, 64
4, 331680, Note_on_c, 2, 48, 105
4, 331680, Note_on_c, 2, 60, 105
4, 331872, Note_off_c, 2, 60, 64
4, 331872, Note_off_c, 2, 48, 64
4, 332160, Note_on_c, 2, 60, 105
4, 332160, Note_on_c, 2, 48, 105
4, 332244, Note_off_c, 2, 48, 64
4, 332244, Note_off_c, 2, 60, 64
4, 332280, Note_on_c, 2, 60, 105
4, 332280, Note_on_c, 2, 48, 105
4, 332364, Note_off_c, 2, 48, 64
4, 332364, Note_off_c, 2, 60, 64
4, 332400, Note_on_c, 2, 48, 105
4, 332400, Note_on_c, 2, 60, 105
4, 332484, Note_off_c, 2, 60, 64
4, 332484, Note_off_c, 2, 48, 64
4, 332520, Note_on_c, 2, 60, 105
4, 332520, Note_on_c, 2, 48, 105
4, 332604, Note_off_c, 2, 48, 64
4, 332604, Note_off_c, 2, 60, 64
4, 332640, Note_on_c, 2, 60, 105
4, 332640, Note_on_c, 2, 48, 105
4, 332832, Note_off_c, 2, 48, 64
4, 332832, Note_off_c, 2, 60, 64
4, 333120, Note_on_c, 2, 48, 105
4, 333120, Note_on_c, 2, 60, 105
4, 333204, Note_off_c, 2, 60, 64
4, 333204, Note_off_c, 2, 48, 64
4, 333240, Note_on_c, 2, 60, 105
4, 333240, Note_on_c, 2, 48, 105
4, 333324, Note_off_c, 2, 48, 64
4, 333324, Note_off_c, 2, 60, 64
4, 333360, Note_on_c, 2, 48, 105
4, 333360, Note_on_c, 2, 60, 105
4, 333444, Note_off_c, 2, 60, 64
4, 333444, Note_off_c, 2, 48, 64
4, 333480, Note_on_c, 2, 60, 105
4, 333480, Note_on_c, 2, 48, 105
4, 333564, Note_off_c, 2, 48, 64
4, 333564, Note_off_c, 2, 60, 64
4, 333600, Note_on_c, 2, 60, 105
4, 333600, Note_on_c, 2, 48, 105
4, 333792, Note_off_c, 2, 48, 64
4, 333792, Note_off_c, 2, 60, 64
4, 334080, Note_on_c, 2, 60, 105
4, 334080, Note_on_c, 2, 48, 105
4, 334464, Note_off_c, 2, 48, 64
4, 334464, Note_off_c, 2, 60, 64
4, 334560, Note_on_c, 2, 65, 105
4, 334560, Note_on_c, 2, 62, 105
4, 334944, Note_off_c, 2, 62, 64
4, 334944, Note_off_c, 2, 65, 64
4, 335040, Note_on_c, 2, 55, 105
4, 335040, Note_on_c, 2, 62, 105
4, 335184, Note_off_c, 2, 62, 64
4, 335184, Note_off_c, 2, 55, 64
4, 335280, Note_on_c, 2, 62, 105
4, 335280, Note_on_c, 2, 55, 105
4, 335424, Note_off_c, 2, 55, 64
4, 335424, Note_off_c, 2, 62, 64
4, 340800, Note_on_c, 2, 60, 105
4, 340800, Note_on_c, 2, 48, 105
4, 342048, Note_off_c, 2, 60, 64
4, 342048, Note_off_c, 2, 48, 64
4, 342120, Note_on_c, 2, 48, 105
4, 342120, Note_on_c, 2, 60, 105
4, 342192, Note_off_c, 2, 60, 64
4, 342192, Note_off_c, 2, 48, 64
4, 342240, Note_on_c, 2, 60, 105
4, 342240, Note_on_c, 2, 48, 105
4, 342312, Note_off_c, 2, 48, 64
4, 342312, Note_off_c, 2, 60, 64
4, 342360, Note_on_c, 2, 60, 105
4, 342360, Note_on_c, 2, 48, 105
4, 342432, Note_off_c, 2, 48, 64
4, 342432, Note_off_c, 2, 60, 64
4, 342480, Note_on_c, 2, 60, 105
4, 342480, Note_on_c, 2, 48, 105
4, 342552, Note_off_c, 2, 48, 64
4, 342552, Note_off_c, 2, 60, 64
4, 342600, Note_on_c, 2, 48, 105
4, 342600, Note_on_c, 2, 60, 105
4, 342672, Note_off_c, 2, 60, 64
4, 342672, Note_off_c, 2, 48, 64
4, 342720, Note_on_c, 2, 48, 105
4, 342720, Note_on_c, 2, 60, 105
4, 342888, Note_off_c, 2, 60, 64
4, 342888, Note_off_c, 2, 48, 64
4, 342960, Note_on_c, 2, 64, 105
4, 342960, Note_on_c, 2, 60, 105
4, 343128, Note_off_c, 2, 60, 64
4, 343128, Note_off_c, 2, 64, 64
4, 343200, Note_on_c, 2, 65, 105
4, 343200, Note_on_c, 2, 62, 105
4, 343368, Note_off_c, 2, 62, 64
4, 343368, Note_off_c, 2, 65, 64
4, 343440, Note_on_c, 2, 55, 105
4, 343440, Note_on_c, 2, 62, 105
4, 343608, Note_off_c, 2, 62, 64
4, 343608, Note_off_c, 2, 55, 64
4, 343680, Note_on_c, 2, 60, 105
4, 343680, Note_on_c, 2, 48, 105
4, 344928, Note_off_c, 2, 48, 64
4, 344928, Note_off_c, 2, 60, 64
4, 345000, Note_on_c, 2, 60, 105
4, 345000, Note_on_c, 2, 48, 105
4, 345072, Note_off_c, 2, 48, 64
4, 345072, Note_off_c, 2, 60, 64
4, 345120, Note_on_c, 2, 48, 105
4, 345120, Note_on_c, 2, 60, 105
4, 345192, Note_off_c, 2, 60, 64
4, 345192, Note_off_c, 2, 48, 64
4, 345240, Note_on_c, 2, 60, 105
4, 345240, Note_on_c, 2, 48, 105
4, 345312, Note_off_c, 2, 48, 64
4, 345312, Note_off_c, 2, 60, 64
4, 345360, Note_on_c, 2, 48, 105
4, 345360, Note_on_c, 2, 60, 105
4, 345432, Note_off_c, 2, 60, 64
4, 345432, Note_off_c, 2, 48, 64
4, 345480, Note_on_c, 2, 48, 105
4, 345480, Note_on_c, 2, 60, 105
4, 345552, Note_off_c, 2, 60, 64
4, 345552, Note_off_c, 2, 48, 64
4, 345600, Note_on_c, 2, 60, 105
4, 345600, Note_on_c, 2, 48, 105
4, 345768, Note_off_c, 2, 48, 64
4, 345768, Note_off_c, 2, 60, 64
4, 345840, Note_on_c, 2, 60, 105
4, 345840, Note_on_c, 2, 64, 105
4, 346008, Note_off_c, 2, 64, 64
4, 346008, Note_off_c, 2, 60, 64
4, 346080, Note_on_c, 2, 65, 105
4, 346080, Note_on_c, 2, 62, 105
4, 346248, Note_off_c, 2, 62, 64
4, 346248, Note_off_c, 2, 65, 64
4, 346320, Note_on_c, 2, 55, 105
4, 346320, Note_on_c, 2, 62, 105
4, 346488, Note_off_c, 2, 62, 64
4, 346488, Note_off_c, 2, 55, 64
4, 346560, Note_on_c, 2, 64, 72
4, 346560, Note_on_c, 2, 67, 72
4, 346638, Note_off_c, 2, 67, 64
4, 346638, Note_off_c, 2, 64, 64
4, 346680, Note_on_c, 2, 67, 72
4, 346680, Note_on_c, 2, 64, 72
4, 346758, Note_off_c, 2, 64, 64
4, 346758, Note_off_c, 2, 67, 64
4, 346800, Note_on_c, 2, 60, 72
4, 346800, Note_on_c, 2, 64, 72
4, 346878, Note_off_c, 2, 64, 64
4, 346878, Note_off_c, 2, 60, 64
4, 346920, Note_on_c, 2, 64, 72
4, 346920, Note_on_c, 2, 60, 72
4, 346998, Note_off_c, 2, 60, 64
4, 346998, Note_off_c, 2, 64, 64
4, 347040, Note_on_c, 2, 62, 72
4, 347040, Note_on_c, 2, 65, 72
4, 347118, Note_off_c, 2, 65, 64
4, 347118, Note_off_c, 2, 62, 64
4, 347160, Note_on_c, 2, 65, 72
4, 347160, Note_on_c, 2, 62, 72
4, 347238, Note_off_c, 2, 62, 64
4, 347238, Note_off_c, 2, 65, 64
4, 347280, Note_on_c, 2, 55, 72
4, 347280, Note_on_c, 2, 62, 72
4, 347358, Note_off_c, 2, 62, 64
4, 347358, Note_off_c, 2, 55, 64
4, 347400, Note_on_c, 2, 62, 72
4, 347400, Note_on_c, 2, 55, 72
4, 347478, Note_off_c, 2, 55, 64
4, 347478, Note_off_c, 2, 62, 64
4, 347520, Note_on_c, 2, 67, 105
4, 347520, Note_on_c, 2, 64, 105
4, 347598, Note_off_c, 2, 64, 64
4, 347598, Note_off_c, 2, 67, 64
4, 347640, Note_on_c, 2, 67, 105
4, 347640, Note_on_c, 2, 64, 105
4, 347718, Note_off_c, 2, 64, 64
4, 347718, Note_off_c, 2, 67, 64
4, 347760, Note_on_c, 2, 64, 105
4, 347760, Note_on_c, 2, 60, 105
4, 347838, Note_off_c, 2, 60, 64
4, 347838, Note_off_c, 2, 64, 64
4, 347880, Note_on_c, 2, 64, 105
4, 347880, Note_on_c, 2, 60, 105
4, 347958, Note_off_c, 2, 60, 64
4, 347958, Note_off_c, 2, 64, 64
4, 348000, Note_on_c, 2, 65, 105
4, 348000, Note_on_c, 2, 62, 105
4, 348078, Note_off_c, 2, 62, 64
4, 348078, Note_off_c, 2, 65, 64
4, 348120, Note_on_c, 2, 65, 105
4, 348120, Note_on_c, 2, 62, 105
4, 348198, Note_off_c, 2, 62, 64
4, 348198, Note_off_c, 2, 65, 64
4, 348240, Note_on_c, 2, 62, 105
4, 348240, Note_on_c, 2, 55, 105
4, 348318, Note_off_c, 2, 55, 64
4, 348318, Note_off_c, 2, 62, 64
4, 348360, Note_on_c, 2, 55, 105
4, 348360, Note_on_c, 2, 62, 105
4, 348438, Note_off_c, 2, 62, 64
4, 348438, Note_off_c, 2, 55, 64
4, 348480, Note_on_c, 2, 60, 105
4, 348480, Note_on_c, 2, 52, 105
4, 348672, Note_off_c, 2, 52, 64
4, 348672, Note_off_c, 2, 60, 64
4, 358080, Note_on_c, 2, 60, 58
4, 358080, Note_on_c, 2, 64, 58
4, 358272, Note_off_c, 2, 64, 64
4, 358272, Note_off_c, 2, 60, 64
4, 358560, Note_on_c, 2, 55, 58
4, 358560, Note_on_c, 2, 62, 58
4, 358752, Note_off_c, 2, 62, 64
4, 358752, Note_off_c, 2, 55, 64
4, 359040, Note_on_c, 2, 52, 58
4, 359040, Note_on_c, 2, 60, 58
4, 359232, Note_off_c, 2, 60, 64
4, 359232, Note_off_c, 2, 52, 64
4, 360000, Note_on_c, 2, 60, 58
4, 360000, Note_on_c, 2, 64, 58
4, 360192, Note_off_c, 2, 64, 64
4, 360192, Note_off_c, 2, 60, 64
4, 360480, Note_on_c, 2, 62, 58
4, 360480, Note_on_c, 2, 55, 58
4, 360672, Note_off_c, 2, 55, 64
4, 360672, Note_off_c, 2, 62, 64
4, 360960, Note_on_c, 2, 60, 58
4, 360960, Note_on_c, 2, 52, 58
4, 361152, Note_off_c, 2, 52, 64
4, 361152, Note_off_c, 2, 60, 64
4, 362880, Note_on_c, 2, 60, 105
4, 362880, Note_on_c, 2, 52, 105
4, 363840, Note_off_c, 2, 52, 64
4, 363840, Note_on_c, 2, 55, 105
4, 364320, Note_off_c, 2, 55, 64
4, 364320, Note_off_c, 2, 60, 64
4, 364320, Note_on_c, 2, 64, 105
4, 364320, Note_on_c, 2, 60, 105
4, 364800, Note_off_c, 2, 64, 64
4, 364800, Note_on_c, 2, 62, 105
4, 365280, Note_off_c, 2, 60, 64
4, 365280, Note_on_c, 2, 55, 105
4, 365664, Note_off_c, 2, 55, 64
4, 365664, Note_off_c, 2, 62, 64
4, 365760, Note_on_c, 2, 60, 105
4, 365760, Note_on_c, 2, 55, 105
4, 366240, Note_off_c, 2, 55, 64
4, 366240, Note_off_c, 2, 60, 64
4, 366240, Note_on_c, 2, 60, 105
4, 366240, Note_on_c, 2, 64, 105
4, 366720, Note_off_c, 2, 64, 64
4, 366720, Note_on_c, 2, 62, 105
4, 367200, Note_off_c, 2, 60, 64
4, 367200, Note_on_c, 2, 55, 105
4, 367584, Note_off_c, 2, 55, 64
4, 367584, Note_off_c, 2, 62, 64
4, 367680, Note_on_c, 2, 52, 105
4, 367680, Note_on_c, 2, 60, 105
4, 367872, Note_off_c, 2, 60, 64
4, 367872, Note_off_c, 2, 52, 64
4, 368160, Note_on_c, 2, 60, 105
4, 368160, Note_on_c, 2, 48, 105
4, 368328, Note_off_c, 2, 48, 64
4, 368328, Note_off_c, 2, 60, 64
4, 368400, Note_on_c, 2, 60, 105
4, 368400, Note_on_c, 2, 48, 105
4, 368568, Note_off_c, 2, 48, 64
4, 368568, Note_off_c, 2, 60, 64
4, 368640, Note_on_c, 2, 48, 105
4, 368640, Note_on_c, 2, 60, 105
4, 368832, Note_off_c, 2, 60, 64
4, 368832, Note_off_c, 2, 48, 64
4, 369120, Note_on_c, 2, 60, 105
4, 369120, Note_on_c, 2, 48, 105
4, 369288, Note_off_c, 2, 48, 64
4, 369288, Note_off_c, 2, 60, 64
4, 369360, Note_on_c, 2, 48, 105
4, 369360, Note_on_c, 2, 60, 105
4, 369528, Note_off_c, 2, 60, 64
4, 369528, Note_off_c, 2, 48, 64
4, 369600, Note_on_c, 2, 48, 105
4, 369600, Note_on_c, 2, 60, 105
4, 369828, Note_off_c, 2, 60, 64
4, 369828, Note_off_c, 2, 48, 64
4, 369828, End_track
5, 0, Start_track
5, 0, Program_c, 3, 56
5, 0, Control_c, 3, 7, 116
5, 0, Control_c, 3, 91, 70
5, 0, Control_c, 3, 10, 36
5, 720, Note_on_c, 3, 60, 105
5, 720, Note_on_c, 3, 72, 105
5, 900, Note_off_c, 3, 72, 64
5, 900, Note_off_c, 3, 60, 64
5, 1650, Note_on_c, 3, 74, 105
5, 1650, Note_on_c, 3, 62, 105
5, 1674, Note_off_c, 3, 62, 64
5, 1674, Note_off_c, 3, 74, 64
5, 1680, Note_on_c, 3, 74, 105
5, 1680, Note_on_c, 3, 62, 105
5, 1920, Note_off_c, 3, 62, 64
5, 1920, Note_off_c, 3, 74, 64
5, 2370, Note_on_c, 3, 72, 105
5, 2370, Note_on_c, 3, 60, 105
5, 2394, Note_off_c, 3, 60, 64
5, 2394, Note_off_c, 3, 72, 64
5, 2400, Note_on_c, 3, 72, 105
5, 2400, Note_on_c, 3, 60, 105
5, 2640, Note_off_c, 3, 60, 64
5, 2640, Note_off_c, 3, 72, 64
5, 13200, Note_on_c, 3, 74, 58
5, 13200, Note_on_c, 3, 67, 58
5, 13296, Note_off_c, 3, 67, 64
5, 13296, Note_off_c, 3, 74, 64
5, 13440, Note_on_c, 3, 67, 58
5, 13440, Note_on_c, 3, 74, 58
5, 13536, Note_off_c, 3, 74, 64
5, 13536, Note_off_c, 3, 67, 64
5, 13680, Note_on_c, 3, 67, 58
5, 13680, Note_on_c, 3, 74, 58
5, 13776, Note_off_c, 3, 74, 64
5, 13776, Note_off_c, 3, 67, 64
5, 13920, Note_on_c, 3, 67, 116
5, 13920, Note_on_c, 3, 55, 116
5, 14148, Note_off_c, 3, 55, 64
5, 14148, Note_off_c, 3, 67, 64
5, 24000, Note_on_c, 3, 60, 105
5, 24000, Note_on_c, 3, 72, 105
5, 26304, Note_off_c, 3, 60, 64
5, 26304, Note_off_c, 3, 72, 64
5, 26640, Note_on_c, 3, 60, 105
5, 26640, Note_on_c, 3, 72, 105
5, 26808, Note_off_c, 3, 72, 64
5, 26808, Note_off_c, 3, 60, 64
5, 26880, Note_on_c, 3, 60, 105
5, 26880, Note_on_c, 3, 72, 105
5, 27048, Note_off_c, 3, 72, 64
5, 27048, Note_off_c, 3, 60, 64
5, 27120, Note_on_c, 3, 60, 105
5, 27120, Note_on_c, 3, 72, 105
5, 27288, Note_off_c, 3, 72, 64
5, 27288, Note_off_c, 3, 60, 64
5, 27600, Note_on_c, 3, 60, 105
5, 27600, Note_on_c, 3, 72, 105
5, 27768, Note_off_c, 3, 72, 64
5, 27768, Note_off_c, 3, 60, 64
5, 27840, Note_on_c, 3, 60, 105
5, 27840, Note_on_c, 3, 72, 105
5, 28008, Note_off_c, 3, 72, 64
5, 28008, Note_off_c, 3, 60, 64
5, 28080, Note_on_c, 3, 60, 105
5, 28080, Note_on_c, 3, 72, 105
5, 28248, Note_off_c, 3, 72, 64
5, 28248, Note_off_c, 3, 60, 64
5, 28560, Note_on_c, 3, 60, 105
5, 28560, Note_on_c, 3, 72, 105
5, 28728, Note_off_c, 3, 72, 64
5, 28728, Note_off_c, 3, 60, 64
5, 28800, Note_on_c, 3, 72, 105
5, 28800, Note_on_c, 3, 60, 105
5, 28968, Note_off_c, 3, 60, 64
5, 28968, Note_off_c, 3, 72, 64
5, 29040, Note_on_c, 3, 72, 105
5, 29040, Note_on_c, 3, 60, 105
5, 29208, Note_off_c, 3, 60, 64
5, 29208, Note_off_c, 3, 72, 64
5, 29280, Note_on_c, 3, 72, 105
5, 29280, Note_on_c, 3, 60, 105
5, 29448, Note_off_c, 3, 60, 64
5, 29448, Note_off_c, 3, 72, 64
5, 29520, Note_on_c, 3, 72, 105
5, 29520, Note_on_c, 3, 60, 105
5, 29688, Note_off_c, 3, 60, 64
5, 29688, Note_off_c, 3, 72, 64
5, 29760, Note_on_c, 3, 60, 105
5, 29760, Note_on_c, 3, 72, 105
5, 29928, Note_off_c, 3, 72, 64
5, 29928, Note_off_c, 3, 60, 64
5, 30000, Note_on_c, 3, 72, 105
5, 30000, Note_on_c, 3, 60, 105
5, 30168, Note_off_c, 3, 60, 64
5, 30168, Note_off_c, 3, 72, 64
5, 35520, Note_on_c, 3, 72, 105
5, 35520, Note_on_c, 3, 60, 105
5, 35688, Note_off_c, 3, 60, 64
5, 35688, Note_off_c, 3, 72, 64
5, 35760, Note_on_c, 3, 60, 105
5, 35760, Note_on_c, 3, 72, 105
5, 35886, Note_off_c, 3, 72, 64
5, 35886, Note_off_c, 3, 60, 64
5, 35940, Note_on_c, 3, 60, 105
5, 35940, Note_on_c, 3, 72, 105
5, 35982, Note_off_c, 3, 72, 64
5, 35982, Note_off_c, 3, 60, 64
5, 36000, Note_on_c, 3, 72, 105
5, 36000, Note_on_c, 3, 60, 105
5, 36168, Note_off_c, 3, 60, 64
5, 36168, Note_off_c, 3, 72, 64
5, 36240, Note_on_c, 3, 72, 105
5, 36240, Note_on_c, 3, 60, 105
5, 36408, Note_off_c, 3, 60, 64
5, 36408, Note_off_c, 3, 72, 64
5, 36480, Note_on_c, 3, 74, 105
5, 36480, Note_on_c, 3, 67, 105
5, 36648, Note_off_c, 3, 67, 64
5, 36648, Note_off_c, 3, 74, 64
5, 36720, Note_on_c, 3, 74, 105
5, 36720, Note_on_c, 3, 67, 105
5, 36846, Note_off_c, 3, 67, 64
5, 36846, Note_off_c, 3, 74, 64
5, 36900, Note_on_c, 3, 74, 105
5, 36900, Note_on_c, 3, 67, 105
5, 36942, Note_off_c, 3, 67, 64
5, 36942, Note_off_c, 3, 74, 64
5, 36960, Note_on_c, 3, 67, 105
5, 36960, Note_on_c, 3, 74, 105
5, 37128, Note_off_c, 3, 74, 64
5, 37128, Note_off_c, 3, 67, 64
5, 37200, Note_on_c, 3, 67, 105
5, 37200, Note_on_c, 3, 74, 105
5, 37368, Note_off_c, 3, 74, 64
5, 37368, Note_off_c, 3, 67, 64
5, 37440, Note_on_c, 3, 76, 105
5, 37440, Note_on_c, 3, 72, 105
5, 37824, Note_off_c, 3, 72, 64
5, 37824, Note_off_c, 3, 76, 64
5, 37920, Note_on_c, 3, 72, 105
5, 37920, Note_on_c, 3, 76, 105
5, 38304, Note_off_c, 3, 76, 64
5, 38304, Note_off_c, 3, 72, 64
5, 38880, Note_on_c, 3, 76, 105
5, 38880, Note_on_c, 3, 72, 105
5, 39048, Note_off_c, 3, 72, 64
5, 39048, Note_off_c, 3, 76, 64
5, 39120, Note_on_c, 3, 74, 105
5, 39120, Note_on_c, 3, 67, 105
5, 39288, Note_off_c, 3, 67, 64
5, 39288, Note_off_c, 3, 74, 64
5, 39360, Note_on_c, 3, 72, 105
5, 39360, Note_on_c, 3, 60, 105
5, 39528, Note_off_c, 3, 60, 64
5, 39528, Note_off_c, 3, 72, 64
5, 39600, Note_on_c, 3, 60, 105
5, 39600, Note_on_c, 3, 72, 105
5, 39726, Note_off_c, 3, 72, 64
5, 39726, Note_off_c, 3, 60, 64
5, 39780, Note_on_c, 3, 72, 105
5, 39780, Note_on_c, 3, 60, 105
5, 39822, Note_off_c, 3, 60, 64
5, 39822, Note_off_c, 3, 72, 64
5, 39840, Note_on_c, 3, 60, 105
5, 39840, Note_on_c, 3, 72, 105
5, 40008, Note_off_c, 3, 72, 64
5, 40008, Note_off_c, 3, 60, 64
5, 40080, Note_on_c, 3, 60, 105
5, 40080, Note_on_c, 3, 72, 105
5, 40248, Note_off_c, 3, 72, 64
5, 40248, Note_off_c, 3, 60, 64
5, 40320, Note_on_c, 3, 67, 105
5, 40320, Note_on_c, 3, 74, 105
5, 40488, Note_off_c, 3, 74, 64
5, 40488, Note_off_c, 3, 67, 64
5, 40560, Note_on_c, 3, 67, 105
5, 40560, Note_on_c, 3, 74, 105
5, 40686, Note_off_c, 3, 74, 64
5, 40686, Note_off_c, 3, 67, 64
5, 40740, Note_on_c, 3, 67, 105
5, 40740, Note_on_c, 3, 74, 105
5, 40782, Note_off_c, 3, 74, 64
5, 40782, Note_off_c, 3, 67, 64
5, 40800, Note_on_c, 3, 67, 105
5, 40800, Note_on_c, 3, 74, 105
5, 40968, Note_off_c, 3, 74, 64
5, 40968, Note_off_c, 3, 67, 64
5, 41040, Note_on_c, 3, 67, 105
5, 41040, Note_on_c, 3, 74, 105
5, 41208, Note_off_c, 3, 74, 64
5, 41208, Note_off_c, 3, 67, 64
5, 41280, Note_on_c, 3, 76, 105
5, 41280, Note_on_c, 3, 72, 105
5, 42048, Note_off_c, 3, 76, 64
5, 42240, Note_on_c, 3, 74, 105
5, 43008, Note_off_c, 3, 72, 64
5, 43200, Note_on_c, 3, 67, 105
5, 43584, Note_off_c, 3, 67, 64
5, 43584, Note_off_c, 3, 74, 64
5, 43680, Note_on_c, 3, 76, 105
5, 43680, Note_on_c, 3, 64, 105
5, 44064, Note_off_c, 3, 64, 64
5, 44064, Note_off_c, 3, 76, 64
5, 44160, Note_on_c, 3, 76, 105
5, 44160, Note_on_c, 3, 64, 105
5, 44928, Note_off_c, 3, 64, 64
5, 44928, Note_off_c, 3, 76, 64
5, 45120, Note_on_c, 3, 72, 105
5, 45120, Note_on_c, 3, 74, 105
5, 45312, Note_off_c, 3, 74, 64
5, 45312, Note_off_c, 3, 72, 64
5, 45360, Note_on_c, 3, 74, 105
5, 45360, Note_on_c, 3, 72, 105
5, 45504, Note_off_c, 3, 72, 64
5, 45504, Note_off_c, 3, 74, 64
5, 45540, Note_on_c, 3, 74, 105
5, 45540, Note_on_c, 3, 72, 105
5, 45588, Note_off_c, 3, 72, 64
5, 45588, Note_off_c, 3, 74, 64
5, 45600, Note_on_c, 3, 74, 105
5, 45600, Note_on_c, 3, 72, 105
5, 45792, Note_off_c, 3, 72, 64
5, 45792, Note_off_c, 3, 74, 64
5, 45840, Note_on_c, 3, 72, 105
5, 45840, Note_on_c, 3, 74, 105
5, 46032, Note_off_c, 3, 74, 64
5, 46032, Note_off_c, 3, 72, 64
5, 46080, Note_on_c, 3, 74, 105
5, 46080, Note_on_c, 3, 67, 105
5, 46272, Note_off_c, 3, 67, 64
5, 46272, Note_off_c, 3, 74, 64
5, 48000, Note_on_c, 3, 67, 105
5, 48000, Note_on_c, 3, 74, 105
5, 48192, Note_off_c, 3, 74, 64
5, 48192, Note_off_c, 3, 67, 64
5, 50880, Note_on_c, 3, 72, 105
5, 50880, Note_on_c, 3, 76, 105
5, 51072, Note_off_c, 3, 76, 64
5, 51072, Note_off_c, 3, 72, 64
5, 51840, Note_on_c, 3, 76, 105
5, 51840, Note_on_c, 3, 72, 105
5, 52032, Note_off_c, 3, 72, 64
5, 52032, Note_off_c, 3, 76, 64
5, 53760, Note_on_c, 3, 64, 105
5, 53760, Note_on_c, 3, 76, 105
5, 53832, Note_off_c, 3, 76, 64
5, 53832, Note_off_c, 3, 64, 64
5, 53880, Note_on_c, 3, 64, 105
5, 53880, Note_on_c, 3, 76, 105
5, 53952, Note_off_c, 3, 76, 64
5, 53952, Note_off_c, 3, 64, 64
5, 54000, Note_on_c, 3, 76, 105
5, 54000, Note_on_c, 3, 64, 105
5, 54072, Note_off_c, 3, 64, 64
5, 54072, Note_off_c, 3, 76, 64
5, 54120, Note_on_c, 3, 64, 105
5, 54120, Note_on_c, 3, 76, 105
5, 54192, Note_off_c, 3, 76, 64
5, 54192, Note_off_c, 3, 64, 64
5, 54240, Note_on_c, 3, 76, 105
5, 54240, Note_on_c, 3, 64, 105
5, 54312, Note_off_c, 3, 64, 64
5, 54312, Note_off_c, 3, 76, 64
5, 54360, Note_on_c, 3, 64, 105
5, 54360, Note_on_c, 3, 76, 105
5, 54432, Note_off_c, 3, 76, 64
5, 54432, Note_off_c, 3, 64, 64
5, 54480, Note_on_c, 3, 64, 105
5, 54480, Note_on_c, 3, 76, 105
5, 54552, Note_off_c, 3, 76, 64
5, 54552, Note_off_c, 3, 64, 64
5, 54600, Note_on_c, 3, 76, 105
5, 54600, Note_on_c, 3, 64, 105
5, 54672, Note_off_c, 3, 64, 64
5, 54672, Note_off_c, 3, 76, 64
5, 54720, Note_on_c, 3, 64, 105
5, 54720, Note_on_c, 3, 72, 105
5, 54912, Note_off_c, 3, 72, 64
5, 54912, Note_off_c, 3, 64, 64
5, 63840, Note_on_c, 3, 76, 105
5, 63840, Note_on_c, 3, 67, 105
5, 63984, Note_off_c, 3, 67, 64
5, 63984, Note_off_c, 3, 76, 64
5, 64080, Note_on_c, 3, 67, 105
5, 64080, Note_on_c, 3, 76, 105
5, 64224, Note_off_c, 3, 76, 64
5, 64224, Note_off_c, 3, 67, 64
5, 64320, Note_on_c, 3, 76, 105
5, 64320, Note_on_c, 3, 67, 105
5, 64512, Note_off_c, 3, 67, 64
5, 64512, Note_off_c, 3, 76, 64
5, 65280, Note_on_c, 3, 67, 105
5, 65280, Note_on_c, 3, 76, 105
5, 65472, Note_off_c, 3, 76, 64
5, 65472, Note_off_c, 3, 67, 64
5, 66240, Note_on_c, 3, 67, 105
5, 66240, Note_on_c, 3, 76, 105
5, 66432, Note_off_c, 3, 76, 64
5, 66432, Note_off_c, 3, 67, 64
5, 67200, Note_on_c, 3, 76, 105
5, 67200, Note_on_c, 3, 67, 105
5, 67392, Note_off_c, 3, 67, 64
5, 67392, Note_off_c, 3, 76, 64
5, 67680, Note_on_c, 3, 72, 58
5, 67680, Note_on_c, 3, 64, 58
5, 67860, Note_off_c, 3, 64, 64
5, 67860, Note_off_c, 3, 72, 64
5, 67920, Note_on_c, 3, 64, 58
5, 67920, Note_on_c, 3, 72, 58
5, 68100, Note_off_c, 3, 72, 64
5, 68100, Note_off_c, 3, 64, 64
5, 68160, Note_on_c, 3, 72, 58
5, 68160, Note_on_c, 3, 64, 58
5, 68616, Note_off_c, 3, 64, 64
5, 68616, Note_off_c, 3, 72, 64
5, 68640, Note_on_c, 3, 67, 58
5, 68640, Note_on_c, 3, 74, 58
5, 69096, Note_off_c, 3, 74, 64
5, 69096, Note_off_c, 3, 67, 64
5, 69120, Note_on_c, 3, 72, 58
5, 69120, Note_on_c, 3, 76, 58
5, 69312, Note_off_c, 3, 76, 64
5, 69312, Note_off_c, 3, 72, 64
5, 75360, Note_on_c, 3, 60, 105
5, 75360, Note_on_c, 3, 72, 105
5, 75504, Note_off_c, 3, 72, 64
5, 75504, Note_off_c, 3, 60, 64
5, 75600, Note_on_c, 3, 60, 105
5, 75600, Note_on_c, 3, 72, 105
5, 75744, Note_off_c, 3, 72, 64
5, 75744, Note_off_c, 3, 60, 64
5, 75840, Note_on_c, 3, 72, 105
5, 75840, Note_on_c, 3, 60, 105
5, 76224, Note_off_c, 3, 60, 64
5, 76224, Note_off_c, 3, 72, 64
5, 76320, Note_on_c, 3, 55, 105
5, 76320, Note_on_c, 3, 67, 105
5, 76704, Note_off_c, 3, 67, 64
5, 76704, Note_off_c, 3, 55, 64
5, 76800, Note_on_c, 3, 60, 105
5, 76800, Note_on_c, 3, 64, 105
5, 76992, Note_off_c, 3, 64, 64
5, 76992, Note_off_c, 3, 60, 64
5, 77040, Note_on_c, 3, 60, 105
5, 77040, Note_on_c, 3, 64, 105
5, 77136, Note_off_c, 3, 64, 64
5, 77136, Note_off_c, 3, 60, 64
5, 77160, Note_on_c, 3, 60, 105
5, 77160, Note_on_c, 3, 64, 105
5, 77256, Note_off_c, 3, 64, 64
5, 77256, Note_off_c, 3, 60, 64
5, 77280, Note_on_c, 3, 60, 105
5, 77280, Note_on_c, 3, 64, 105
5, 77472, Note_off_c, 3, 64, 64
5, 77472, Note_off_c, 3, 60, 64
5, 77760, Note_on_c, 3, 74, 105
5, 77952, Note_off_c, 3, 74, 64
5, 78000, Note_on_c, 3, 74, 105
5, 78096, Note_off_c, 3, 74, 64
5, 78120, Note_on_c, 3, 74, 105
5, 78216, Note_off_c, 3, 74, 64
5, 78240, Note_on_c, 3, 74, 105
5, 78432, Note_off_c, 3, 74, 64
5, 78480, Note_on_c, 3, 74, 105
5, 78672, Note_off_c, 3, 74, 64
5, 78720, Note_on_c, 3, 74, 105
5, 78720, Note_on_c, 3, 67, 105
5, 78912, Note_off_c, 3, 67, 64
5, 78912, Note_off_c, 3, 74, 64
5, 80640, Note_on_c, 3, 74, 105
5, 81600, Note_on_c, 3, 67, 105
5, 81768, Note_off_c, 3, 74, 64
5, 81768, Note_off_c, 3, 67, 64
5, 81840, Note_on_c, 3, 76, 105
5, 81840, Note_on_c, 3, 67, 105
5, 82008, Note_off_c, 3, 67, 64
5, 82008, Note_off_c, 3, 76, 64
5, 82080, Note_on_c, 3, 72, 105
5, 82080, Note_on_c, 3, 76, 105
5, 82248, Note_off_c, 3, 76, 64
5, 82248, Note_off_c, 3, 72, 64
5, 82320, Note_on_c, 3, 74, 105
5, 82488, Note_off_c, 3, 74, 64
5, 82560, Note_on_c, 3, 67, 105
5, 82560, Note_on_c, 3, 74, 105
5, 82752, Note_off_c, 3, 74, 64
5, 82752, Note_off_c, 3, 67, 64
5, 84480, Note_on_c, 3, 74, 105
5, 85440, Note_on_c, 3, 67, 105
5, 85608, Note_off_c, 3, 67, 64
5, 85608, Note_off_c, 3, 74, 64
5, 85680, Note_on_c, 3, 67, 105
5, 85680, Note_on_c, 3, 74, 105
5, 85848, Note_off_c, 3, 74, 64
5, 85848, Note_off_c, 3, 67, 64
5, 85920, Note_on_c, 3, 72, 105
5, 85920, Note_on_c, 3, 76, 105
5, 86088, Note_off_c, 3, 76, 64
5, 86088, Note_off_c, 3, 72, 64
5, 86160, Note_on_c, 3, 74, 105
5, 86328, Note_off_c, 3, 74, 64
5, 86400, Note_on_c, 3, 67, 105
5, 86400, Note_on_c, 3, 74, 105
5, 86484, Note_off_c, 3, 74, 64
5, 86484, Note_off_c, 3, 67, 64
5, 86520, Note_on_c, 3, 67, 105
5, 86520, Note_on_c, 3, 74, 105
5, 86604, Note_off_c, 3, 74, 64
5, 86604, Note_off_c, 3, 67, 64
5, 86640, Note_on_c, 3, 67, 105
5, 86640, Note_on_c, 3, 74, 105
5, 86724, Note_off_c, 3, 74, 64
5, 86724, Note_off_c, 3, 67, 64
5, 86760, Note_on_c, 3, 74, 105
5, 86760, Note_on_c, 3, 67, 105
5, 86844, Note_off_c, 3, 67, 64
5, 86844, Note_off_c, 3, 74, 64
5, 86880, Note_on_c, 3, 74, 105
5, 86880, Note_on_c, 3, 67, 105
5, 87072, Note_off_c, 3, 67, 64
5, 87072, Note_off_c, 3, 74, 64
5, 87360, Note_on_c, 3, 67, 105
5, 87360, Note_on_c, 3, 76, 105
5, 87444, Note_off_c, 3, 76, 64
5, 87444, Note_off_c, 3, 67, 64
5, 87480, Note_on_c, 3, 76, 105
5, 87480, Note_on_c, 3, 67, 105
5, 87564, Note_off_c, 3, 67, 64
5, 87564, Note_off_c, 3, 76, 64
5, 87600, Note_on_c, 3, 67, 105
5, 87600, Note_on_c, 3, 76, 105
5, 87684, Note_off_c, 3, 76, 64
5, 87684, Note_off_c, 3, 67, 64
5, 87720, Note_on_c, 3, 76, 105
5, 87720, Note_on_c, 3, 67, 105
5, 87804, Note_off_c, 3, 67, 64
5, 87804, Note_off_c, 3, 76, 64
5, 87840, Note_on_c, 3, 67, 105
5, 87840, Note_on_c, 3, 76, 105
5, 88032, Note_off_c, 3, 76, 64
5, 88032, Note_off_c, 3, 67, 64
5, 88320, Note_on_c, 3, 74, 105
5, 88320, Note_on_c, 3, 67, 105
5, 88404, Note_off_c, 3, 67, 64
5, 88404, Note_off_c, 3, 74, 64
5, 88440, Note_on_c, 3, 67, 105
5, 88440, Note_on_c, 3, 74, 105
5, 88524, Note_off_c, 3, 74, 64
5, 88524, Note_off_c, 3, 67, 64
5, 88560, Note_on_c, 3, 67, 105
5, 88560, Note_on_c, 3, 74, 105
5, 88644, Note_off_c, 3, 74, 64
5, 88644, Note_off_c, 3, 67, 64
5, 88680, Note_on_c, 3, 67, 105
5, 88680, Note_on_c, 3, 74, 105
5, 88764, Note_off_c, 3, 74, 64
5, 88764, Note_off_c, 3, 67, 64
5, 88800, Note_on_c, 3, 67, 105
5, 88800, Note_on_c, 3, 74, 105
5, 88992, Note_off_c, 3, 74, 64
5, 88992, Note_off_c, 3, 67, 64
5, 89280, Note_on_c, 3, 72, 105
5, 89280, Note_on_c, 3, 64, 105
5, 89664, Note_off_c, 3, 64, 64
5, 89664, Note_off_c, 3, 72, 64
5, 89760, Note_on_c, 3, 76, 105
5, 89760, Note_on_c, 3, 67, 105
5, 90144, Note_off_c, 3, 67, 64
5, 90144, Note_off_c, 3, 76, 64
5, 90240, Note_on_c, 3, 72, 105
5, 90240, Note_on_c, 3, 74, 105
5, 90384, Note_off_c, 3, 74, 64
5, 90384, Note_off_c, 3, 72, 64
5, 90480, Note_on_c, 3, 74, 105
5, 90480, Note_on_c, 3, 72, 105
5, 90624, Note_off_c, 3, 72, 64
5, 90624, Note_off_c, 3, 74, 64
5, 92160, Note_on_c, 3, 74, 105
5, 92160, Note_on_c, 3, 67, 105
5, 92244, Note_off_c, 3, 67, 64
5, 92244, Note_off_c, 3, 74, 64
5, 92280, Note_on_c, 3, 67, 105
5, 92280, Note_on_c, 3, 74, 105
5, 92364, Note_off_c, 3, 74, 64
5, 92364, Note_off_c, 3, 67, 64
5, 92400, Note_on_c, 3, 67, 105
5, 92400, Note_on_c, 3, 74, 105
5, 92484, Note_off_c, 3, 74, 64
5, 92484, Note_off_c, 3, 67, 64
5, 92520, Note_on_c, 3, 74, 105
5, 92520, Note_on_c, 3, 67, 105
5, 92604, Note_off_c, 3, 67, 64
5, 92604, Note_off_c, 3, 74, 64
5, 92640, Note_on_c, 3, 74, 105
5, 92640, Note_on_c, 3, 67, 105
5, 92832, Note_off_c, 3, 67, 64
5, 92832, Note_off_c, 3, 74, 64
5, 93120, Note_on_c, 3, 76, 105
5, 93120, Note_on_c, 3, 67, 105
5, 93204, Note_off_c, 3, 67, 64
5, 93204, Note_off_c, 3, 76, 64
5, 93240, Note_on_c, 3, 67, 105
5, 93240, Note_on_c, 3, 76, 105
5, 93324, Note_off_c, 3, 76, 64
5, 93324, Note_off_c, 3, 67, 64
5, 93360, Note_on_c, 3, 76, 105
5, 93360, Note_on_c, 3, 67, 105
5, 93444, Note_off_c, 3, 67, 64
5, 93444, Note_off_c, 3, 76, 64
5, 93480, Note_on_c, 3, 76, 105
5, 93480, Note_on_c, 3, 67, 105
5, 93564, Note_off_c, 3, 67, 64
5, 93564, Note_off_c, 3, 76, 64
5, 93600, Note_on_c, 3, 67, 105
5, 93600, Note_on_c, 3, 76, 105
5, 93792, Note_off_c, 3, 76, 64
5, 93792, Note_off_c, 3, 67, 64
5, 94080, Note_on_c, 3, 74, 105
5, 94080, Note_on_c, 3, 67, 105
5, 94164, Note_off_c, 3, 67, 64
5, 94164, Note_off_c, 3, 74, 64
5, 94200, Note_on_c, 3, 74, 105
5, 94200, Note_on_c, 3, 67, 105
5, 94284, Note_off_c, 3, 67, 64
5, 94284, Note_off_c, 3, 74, 64
5, 94320, Note_on_c, 3, 67, 105
5, 94320, Note_on_c, 3, 74, 105
5, 94404, Note_off_c, 3, 74, 64
5, 94404, Note_off_c, 3, 67, 64
5, 94440, Note_on_c, 3, 67, 105
5, 94440, Note_on_c, 3, 74, 105
5, 94524, Note_off_c, 3, 74, 64
5, 94524, Note_off_c, 3, 67, 64
5, 94560, Note_on_c, 3, 67, 105
5, 94560, Note_on_c, 3, 74, 105
5, 94752, Note_off_c, 3, 74, 64
5, 94752, Note_off_c, 3, 67, 64
5, 95040, Note_on_c, 3, 64, 105
5, 95040, Note_on_c, 3, 72, 105
5, 95424, Note_off_c, 3, 72, 64
5, 95424, Note_off_c, 3, 64, 64
5, 95520, Note_on_c, 3, 76, 105
5, 95520, Note_on_c, 3, 67, 105
5, 95904, Note_off_c, 3, 67, 64
5, 95904, Note_off_c, 3, 76, 64
5, 96000, Note_on_c, 3, 72, 105
5, 96000, Note_on_c, 3, 74, 105
5, 96144, Note_off_c, 3, 74, 64
5, 96144, Note_off_c, 3, 72, 64
5, 96240, Note_on_c, 3, 74, 105
5, 96240, Note_on_c, 3, 72, 105
5, 96384, Note_off_c, 3, 72, 64
5, 96384, Note_off_c, 3, 74, 64
5, 101760, Note_on_c, 3, 67, 105
5, 103008, Note_off_c, 3, 67, 64
5, 103080, Note_on_c, 3, 67, 105
5, 103164, Note_off_c, 3, 67, 64
5, 103200, Note_on_c, 3, 67, 105
5, 103284, Note_off_c, 3, 67, 64
5, 103320, Note_on_c, 3, 67, 105
5, 103404, Note_off_c, 3, 67, 64
5, 103440, Note_on_c, 3, 67, 105
5, 103524, Note_off_c, 3, 67, 64
5, 103560, Note_on_c, 3, 67, 105
5, 103644, Note_off_c, 3, 67, 64
5, 103680, Note_on_c, 3, 67, 105
5, 103848, Note_off_c, 3, 67, 64
5, 103920, Note_on_c, 3, 76, 105
5, 103920, Note_on_c, 3, 67, 105
5, 104088, Note_off_c, 3, 67, 64
5, 104088, Note_off_c, 3, 76, 64
5, 104160, Note_on_c, 3, 72, 105
5, 104160, Note_on_c, 3, 76, 105
5, 104328, Note_off_c, 3, 76, 64
5, 104328, Note_off_c, 3, 72, 64
5, 104400, Note_on_c, 3, 74, 105
5, 104568, Note_off_c, 3, 74, 64
5, 104640, Note_on_c, 3, 67, 105
5, 105888, Note_off_c, 3, 67, 64
5, 105960, Note_on_c, 3, 67, 105
5, 106044, Note_off_c, 3, 67, 64
5, 106080, Note_on_c, 3, 67, 105
5, 106164, Note_off_c, 3, 67, 64
5, 106200, Note_on_c, 3, 67, 105
5, 106284, Note_off_c, 3, 67, 64
5, 106320, Note_on_c, 3, 67, 105
5, 106404, Note_off_c, 3, 67, 64
5, 106440, Note_on_c, 3, 67, 105
5, 106524, Note_off_c, 3, 67, 64
5, 106560, Note_on_c, 3, 67, 105
5, 106728, Note_off_c, 3, 67, 64
5, 106800, Note_on_c, 3, 67, 105
5, 106800, Note_on_c, 3, 76, 105
5, 106968, Note_off_c, 3, 76, 64
5, 106968, Note_off_c, 3, 67, 64
5, 107040, Note_on_c, 3, 76, 105
5, 107040, Note_on_c, 3, 72, 105
5, 107208, Note_off_c, 3, 72, 64
5, 107208, Note_off_c, 3, 76, 64
5, 107280, Note_on_c, 3, 74, 105
5, 107448, Note_off_c, 3, 74, 64
5, 108480, Note_on_c, 3, 74, 105
5, 108480, Note_on_c, 3, 67, 105
5, 108648, Note_off_c, 3, 67, 64
5, 108648, Note_off_c, 3, 74, 64
5, 108720, Note_on_c, 3, 67, 105
5, 108720, Note_on_c, 3, 76, 105
5, 108888, Note_off_c, 3, 76, 64
5, 108888, Note_off_c, 3, 67, 64
5, 108960, Note_on_c, 3, 76, 105
5, 108960, Note_on_c, 3, 72, 105
5, 109128, Note_off_c, 3, 72, 64
5, 109128, Note_off_c, 3, 76, 64
5, 109200, Note_on_c, 3, 74, 105
5, 109368, Note_off_c, 3, 74, 64
5, 109440, Note_on_c, 3, 74, 105
5, 109440, Note_on_c, 3, 67, 105
5, 109632, Note_off_c, 3, 67, 64
5, 109632, Note_off_c, 3, 74, 64
5, 122880, Note_on_c, 3, 60, 105
5, 122880, Note_on_c, 3, 72, 105
5, 125184, Note_off_c, 3, 60, 64
5, 125184, Note_off_c, 3, 72, 64
5, 125520, Note_on_c, 3, 60, 105
5, 125520, Note_on_c, 3, 72, 105
5, 125688, Note_off_c, 3, 72, 64
5, 125688, Note_off_c, 3, 60, 64
5, 125760, Note_on_c, 3, 60, 105
5, 125760, Note_on_c, 3, 72, 105
5, 125928, Note_off_c, 3, 72, 64
5, 125928, Note_off_c, 3, 60, 64
5, 126000, Note_on_c, 3, 60, 105
5, 126000, Note_on_c, 3, 72, 105
5, 126168, Note_off_c, 3, 72, 64
5, 126168, Note_off_c, 3, 60, 64
5, 126480, Note_on_c, 3, 60, 105
5, 126480, Note_on_c, 3, 72, 105
5, 126648, Note_off_c, 3, 72, 64
5, 126648, Note_off_c, 3, 60, 64
5, 126720, Note_on_c, 3, 60, 105
5, 126720, Note_on_c, 3, 72, 105
5, 126888, Note_off_c, 3, 72, 64
5, 126888, Note_off_c, 3, 60, 64
5, 126960, Note_on_c, 3, 60, 105
5, 126960, Note_on_c, 3, 72, 105
5, 127128, Note_off_c, 3, 72, 64
5, 127128, Note_off_c, 3, 60, 64
5, 127440, Note_on_c, 3, 60, 105
5, 127440, Note_on_c, 3, 72, 105
5, 127608, Note_off_c, 3, 72, 64
5, 127608, Note_off_c, 3, 60, 64
5, 127680, Note_on_c, 3, 72, 105
5, 127680, Note_on_c, 3, 60, 105
5, 127848, Note_off_c, 3, 60, 64
5, 127848, Note_off_c, 3, 72, 64
5, 127920, Note_on_c, 3, 72, 105
5, 127920, Note_on_c, 3, 60, 105
5, 128088, Note_off_c, 3, 60, 64
5, 128088, Note_off_c, 3, 72, 64
5, 128160, Note_on_c, 3, 72, 105
5, 128160, Note_on_c, 3, 60, 105
5, 128328, Note_off_c, 3, 60, 64
5, 128328, Note_off_c, 3, 72, 64
5, 128400, Note_on_c, 3, 72, 105
5, 128400, Note_on_c, 3, 60, 105
5, 128568, Note_off_c, 3, 60, 64
5, 128568, Note_off_c, 3, 72, 64
5, 128640, Note_on_c, 3, 60, 105
5, 128640, Note_on_c, 3, 72, 105
5, 128808, Note_off_c, 3, 72, 64
5, 128808, Note_off_c, 3, 60, 64
5, 128880, Note_on_c, 3, 72, 105
5, 128880, Note_on_c, 3, 60, 105
5, 129048, Note_off_c, 3, 60, 64
5, 129048, Note_off_c, 3, 72, 64
5, 134400, Note_on_c, 3, 72, 105
5, 134400, Note_on_c, 3, 60, 105
5, 134568, Note_off_c, 3, 60, 64
5, 134568, Note_off_c, 3, 72, 64
5, 134640, Note_on_c, 3, 60, 105
5, 134640, Note_on_c, 3, 72, 105
5, 134766, Note_off_c, 3, 72, 64
5, 134766, Note_off_c, 3, 60, 64
5, 134820, Note_on_c, 3, 60, 105
5, 134820, Note_on_c, 3, 72, 105
5, 134862, Note_off_c, 3, 72, 64
5, 134862, Note_off_c, 3, 60, 64
5, 134880, Note_on_c, 3, 72, 105
5, 134880, Note_on_c, 3, 60, 105
5, 135048, Note_off_c, 3, 60, 64
5, 135048, Note_off_c, 3, 72, 64
5, 135120, Note_on_c, 3, 72, 105
5, 135120, Note_on_c, 3, 60, 105
5, 135288, Note_off_c, 3, 60, 64
5, 135288, Note_off_c, 3, 72, 64
5, 135360, Note_on_c, 3, 74, 105
5, 135360, Note_on_c, 3, 67, 105
5, 135528, Note_off_c, 3, 67, 64
5, 135528, Note_off_c, 3, 74, 64
5, 135600, Note_on_c, 3, 74, 105
5, 135600, Note_on_c, 3, 67, 105
5, 135726, Note_off_c, 3, 67, 64
5, 135726, Note_off_c, 3, 74, 64
5, 135780, Note_on_c, 3, 74, 105
5, 135780, Note_on_c, 3, 67, 105
5, 135822, Note_off_c, 3, 67, 64
5, 135822, Note_off_c, 3, 74, 64
5, 135840, Note_on_c, 3, 67, 105
5, 135840, Note_on_c, 3, 74, 105
5, 136008, Note_off_c, 3, 74, 64
5, 136008, Note_off_c, 3, 67, 64
5, 136080, Note_on_c, 3, 67, 105
5, 136080, Note_on_c, 3, 74, 105
5, 136248, Note_off_c, 3, 74, 64
5, 136248, Note_off_c, 3, 67, 64
5, 136320, Note_on_c, 3, 76, 105
5, 136320, Note_on_c, 3, 72, 105
5, 136704, Note_off_c, 3, 72, 64
5, 136704, Note_off_c, 3, 76, 64
5, 136800, Note_on_c, 3, 72, 105
5, 136800, Note_on_c, 3, 76, 105
5, 137184, Note_off_c, 3, 76, 64
5, 137184, Note_off_c, 3, 72, 64
5, 137760, Note_on_c, 3, 76, 105
5, 137760, Note_on_c, 3, 72, 105
5, 137928, Note_off_c, 3, 72, 64
5, 137928, Note_off_c, 3, 76, 64
5, 138000, Note_on_c, 3, 74, 105
5, 138000, Note_on_c, 3, 67, 105
5, 138168, Note_off_c, 3, 67, 64
5, 138168, Note_off_c, 3, 74, 64
5, 138240, Note_on_c, 3, 72, 105
5, 138240, Note_on_c, 3, 60, 105
5, 138408, Note_off_c, 3, 60, 64
5, 138408, Note_off_c, 3, 72, 64
5, 138480, Note_on_c, 3, 60, 105
5, 138480, Note_on_c, 3, 72, 105
5, 138606, Note_off_c, 3, 72, 64
5, 138606, Note_off_c, 3, 60, 64
5, 138660, Note_on_c, 3, 72, 105
5, 138660, Note_on_c, 3, 60, 105
5, 138702, Note_off_c, 3, 60, 64
5, 138702, Note_off_c, 3, 72, 64
5, 138720, Note_on_c, 3, 60, 105
5, 138720, Note_on_c, 3, 72, 105
5, 138888, Note_off_c, 3, 72, 64
5, 138888, Note_off_c, 3, 60, 64
5, 138960, Note_on_c, 3, 60, 105
5, 138960, Note_on_c, 3, 72, 105
5, 139128, Note_off_c, 3, 72, 64
5, 139128, Note_off_c, 3, 60, 64
5, 139200, Note_on_c, 3, 67, 105
5, 139200, Note_on_c, 3, 74, 105
5, 139368, Note_off_c, 3, 74, 64
5, 139368, Note_off_c, 3, 67, 64
5, 139440, Note_on_c, 3, 67, 105
5, 139440, Note_on_c, 3, 74, 105
5, 139566, Note_off_c, 3, 74, 64
5, 139566, Note_off_c, 3, 67, 64
5, 139620, Note_on_c, 3, 67, 105
5, 139620, Note_on_c, 3, 74, 105
5, 139662, Note_off_c, 3, 74, 64
5, 139662, Note_off_c, 3, 67, 64
5, 139680, Note_on_c, 3, 67, 105
5, 139680, Note_on_c, 3, 74, 105
5, 139848, Note_off_c, 3, 74, 64
5, 139848, Note_off_c, 3, 67, 64
5, 139920, Note_on_c, 3, 67, 105
5, 139920, Note_on_c, 3, 74, 105
5, 140088, Note_off_c, 3, 74, 64
5, 140088, Note_off_c, 3, 67, 64
5, 140160, Note_on_c, 3, 76, 105
5, 140160, Note_on_c, 3, 72, 105
5, 140928, Note_off_c, 3, 76, 64
5, 141120, Note_on_c, 3, 74, 105
5, 141888, Note_off_c, 3, 72, 64
5, 142080, Note_on_c, 3, 67, 105
5, 142464, Note_off_c, 3, 67, 64
5, 142464, Note_off_c, 3, 74, 64
5, 142560, Note_on_c, 3, 76, 105
5, 142560, Note_on_c, 3, 64, 105
5, 142944, Note_off_c, 3, 64, 64
5, 142944, Note_off_c, 3, 76, 64
5, 143040, Note_on_c, 3, 76, 105
5, 143040, Note_on_c, 3, 64, 105
5, 143808, Note_off_c, 3, 64, 64
5, 143808, Note_off_c, 3, 76, 64
5, 144000, Note_on_c, 3, 72, 105
5, 144000, Note_on_c, 3, 74, 105
5, 144192, Note_off_c, 3, 74, 64
5, 144192, Note_off_c, 3, 72, 64
5, 144240, Note_on_c, 3, 74, 105
5, 144240, Note_on_c, 3, 72, 105
5, 144384, Note_off_c, 3, 72, 64
5, 144384, Note_off_c, 3, 74, 64
5, 144420, Note_on_c, 3, 74, 105
5, 144420, Note_on_c, 3, 72, 105
5, 144468, Note_off_c, 3, 72, 64
5, 144468, Note_off_c, 3, 74, 64
5, 144480, Note_on_c, 3, 74, 105
5, 144480, Note_on_c, 3, 72, 105
5, 144672, Note_off_c, 3, 72, 64
5, 144672, Note_off_c, 3, 74, 64
5, 144720, Note_on_c, 3, 72, 105
5, 144720, Note_on_c, 3, 74, 105
5, 144912, Note_off_c, 3, 74, 64
5, 144912, Note_off_c, 3, 72, 64
5, 144960, Note_on_c, 3, 74, 105
5, 144960, Note_on_c, 3, 67, 105
5, 145152, Note_off_c, 3, 67, 64
5, 145152, Note_off_c, 3, 74, 64
5, 146880, Note_on_c, 3, 67, 105
5, 146880, Note_on_c, 3, 74, 105
5, 147072, Note_off_c, 3, 74, 64
5, 147072, Note_off_c, 3, 67, 64
5, 149760, Note_on_c, 3, 72, 105
5, 149760, Note_on_c, 3, 76, 105
5, 149952, Note_off_c, 3, 76, 64
5, 149952, Note_off_c, 3, 72, 64
5, 150720, Note_on_c, 3, 76, 105
5, 150720, Note_on_c, 3, 72, 105
5, 150912, Note_off_c, 3, 72, 64
5, 150912, Note_off_c, 3, 76, 64
5, 152640, Note_on_c, 3, 64, 105
5, 152640, Note_on_c, 3, 76, 105
5, 152712, Note_off_c, 3, 76, 64
5, 152712, Note_off_c, 3, 64, 64
5, 152760, Note_on_c, 3, 64, 105
5, 152760, Note_on_c, 3, 76, 105
5, 152832, Note_off_c, 3, 76, 64
5, 152832, Note_off_c, 3, 64, 64
5, 152880, Note_on_c, 3, 76, 105
5, 152880, Note_on_c, 3, 64, 105
5, 152952, Note_off_c, 3, 64, 64
5, 152952, Note_off_c, 3, 76, 64
5, 153000, Note_on_c, 3, 64, 105
5, 153000, Note_on_c, 3, 76, 105
5, 153072, Note_off_c, 3, 76, 64
5, 153072, Note_off_c, 3, 64, 64
5, 153120, Note_on_c, 3, 76, 105
5, 153120, Note_on_c, 3, 64, 105
5, 153192, Note_off_c, 3, 64, 64
5, 153192, Note_off_c, 3, 76, 64
5, 153240, Note_on_c, 3, 64, 105
5, 153240, Note_on_c, 3, 76, 105
5, 153312, Note_off_c, 3, 76, 64
5, 153312, Note_off_c, 3, 64, 64
5, 153360, Note_on_c, 3, 64, 105
5, 153360, Note_on_c, 3, 76, 105
5, 153432, Note_off_c, 3, 76, 64
5, 153432, Note_off_c, 3, 64, 64
5, 153480, Note_on_c, 3, 76, 105
5, 153480, Note_on_c, 3, 64, 105
5, 153552, Note_off_c, 3, 64, 64
5, 153552, Note_off_c, 3, 76, 64
5, 153600, Note_on_c, 3, 64, 105
5, 153600, Note_on_c, 3, 72, 105
5, 153792, Note_off_c, 3, 72, 64
5, 153792, Note_off_c, 3, 64, 64
5, 162720, Note_on_c, 3, 76, 105
5, 162720, Note_on_c, 3, 67, 105
5, 162864, Note_off_c, 3, 67, 64
5, 162864, Note_off_c, 3, 76, 64
5, 162960, Note_on_c, 3, 67, 105
5, 162960, Note_on_c, 3, 76, 105
5, 163104, Note_off_c, 3, 76, 64
5, 163104, Note_off_c, 3, 67, 64
5, 163200, Note_on_c, 3, 76, 105
5, 163200, Note_on_c, 3, 67, 105
5, 163392, Note_off_c, 3, 67, 64
5, 163392, Note_off_c, 3, 76, 64
5, 164160, Note_on_c, 3, 67, 105
5, 164160, Note_on_c, 3, 76, 105
5, 164352, Note_off_c, 3, 76, 64
5, 164352, Note_off_c, 3, 67, 64
5, 165120, Note_on_c, 3, 67, 105
5, 165120, Note_on_c, 3, 76, 105
5, 165312, Note_off_c, 3, 76, 64
5, 165312, Note_off_c, 3, 67, 64
5, 166080, Note_on_c, 3, 76, 105
5, 166080, Note_on_c, 3, 67, 105
5, 166272, Note_off_c, 3, 67, 64
5, 166272, Note_off_c, 3, 76, 64
5, 166560, Note_on_c, 3, 72, 58
5, 166560, Note_on_c, 3, 64, 58
5, 166740, Note_off_c, 3, 64, 64
5, 166740, Note_off_c, 3, 72, 64
5, 166800, Note_on_c, 3, 64, 58
5, 166800, Note_on_c, 3, 72, 58
5, 166980, Note_off_c, 3, 72, 64
5, 166980, Note_off_c, 3, 64, 64
5, 167040, Note_on_c, 3, 72, 58
5, 167040, Note_on_c, 3, 64, 58
5, 167496, Note_off_c, 3, 64, 64
5, 167496, Note_off_c, 3, 72, 64
5, 167520, Note_on_c, 3, 67, 58
5, 167520, Note_on_c, 3, 74, 58
5, 167976, Note_off_c, 3, 74, 64
5, 167976, Note_off_c, 3, 67, 64
5, 168000, Note_on_c, 3, 72, 58
5, 168000, Note_on_c, 3, 76, 58
5, 168192, Note_off_c, 3, 76, 64
5, 168192, Note_off_c, 3, 72, 64
5, 174240, Note_on_c, 3, 60, 105
5, 174240, Note_on_c, 3, 72, 105
5, 174384, Note_off_c, 3, 72, 64
5, 174384, Note_off_c, 3, 60, 64
5, 174480, Note_on_c, 3, 60, 105
5, 174480, Note_on_c, 3, 72, 105
5, 174624, Note_off_c, 3, 72, 64
5, 174624, Note_off_c, 3, 60, 64
5, 174720, Note_on_c, 3, 72, 105
5, 174720, Note_on_c, 3, 60, 105
5, 175104, Note_off_c, 3, 60, 64
5, 175104, Note_off_c, 3, 72, 64
5, 175200, Note_on_c, 3, 55, 105
5, 175200, Note_on_c, 3, 67, 105
5, 175584, Note_off_c, 3, 67, 64
5, 175584, Note_off_c, 3, 55, 64
5, 175680, Note_on_c, 3, 60, 105
5, 175680, Note_on_c, 3, 64, 105
5, 175872, Note_off_c, 3, 64, 64
5, 175872, Note_off_c, 3, 60, 64
5, 175920, Note_on_c, 3, 60, 105
5, 175920, Note_on_c, 3, 64, 105
5, 176016, Note_off_c, 3, 64, 64
5, 176016, Note_off_c, 3, 60, 64
5, 176040, Note_on_c, 3, 60, 105
5, 176040, Note_on_c, 3, 64, 105
5, 176136, Note_off_c, 3, 64, 64
5, 176136, Note_off_c, 3, 60, 64
5, 176160, Note_on_c, 3, 60, 105
5, 176160, Note_on_c, 3, 64, 105
5, 176352, Note_off_c, 3, 64, 64
5, 176352, Note_off_c, 3, 60, 64
5, 176640, Note_on_c, 3, 74, 105
5, 176832, Note_off_c, 3, 74, 64
5, 176880, Note_on_c, 3, 74, 105
5, 176976, Note_off_c, 3, 74, 64
5, 177000, Note_on_c, 3, 74, 105
5, 177096, Note_off_c, 3, 74, 64
5, 177120, Note_on_c, 3, 74, 105
5, 177312, Note_off_c, 3, 74, 64
5, 177360, Note_on_c, 3, 74, 105
5, 177552, Note_off_c, 3, 74, 64
5, 177600, Note_on_c, 3, 74, 105
5, 177600, Note_on_c, 3, 67, 105
5, 177792, Note_off_c, 3, 67, 64
5, 177792, Note_off_c, 3, 74, 64
5, 179520, Note_on_c, 3, 74, 105
5, 180480, Note_on_c, 3, 67, 105
5, 180648, Note_off_c, 3, 74, 64
5, 180648, Note_off_c, 3, 67, 64
5, 180720, Note_on_c, 3, 76, 105
5, 180720, Note_on_c, 3, 67, 105
5, 180888, Note_off_c, 3, 67, 64
5, 180888, Note_off_c, 3, 76, 64
5, 180960, Note_on_c, 3, 72, 105
5, 180960, Note_on_c, 3, 76, 105
5, 181128, Note_off_c, 3, 76, 64
5, 181128, Note_off_c, 3, 72, 64
5, 181200, Note_on_c, 3, 74, 105
5, 181368, Note_off_c, 3, 74, 64
5, 181440, Note_on_c, 3, 67, 105
5, 181440, Note_on_c, 3, 74, 105
5, 181632, Note_off_c, 3, 74, 64
5, 181632, Note_off_c, 3, 67, 64
5, 183360, Note_on_c, 3, 74, 105
5, 184320, Note_on_c, 3, 67, 105
5, 184488, Note_off_c, 3, 67, 64
5, 184488, Note_off_c, 3, 74, 64
5, 184560, Note_on_c, 3, 67, 105
5, 184560, Note_on_c, 3, 74, 105
5, 184728, Note_off_c, 3, 74, 64
5, 184728, Note_off_c, 3, 67, 64
5, 184800, Note_on_c, 3, 72, 105
5, 184800, Note_on_c, 3, 76, 105
5, 184968, Note_off_c, 3, 76, 64
5, 184968, Note_off_c, 3, 72, 64
5, 185040, Note_on_c, 3, 74, 105
5, 185208, Note_off_c, 3, 74, 64
5, 185280, Note_on_c, 3, 67, 105
5, 185280, Note_on_c, 3, 74, 105
5, 185364, Note_off_c, 3, 74, 64
5, 185364, Note_off_c, 3, 67, 64
5, 185400, Note_on_c, 3, 67, 105
5, 185400, Note_on_c, 3, 74, 105
5, 185484, Note_off_c, 3, 74, 64
5, 185484, Note_off_c, 3, 67, 64
5, 185520, Note_on_c, 3, 67, 105
5, 185520, Note_on_c, 3, 74, 105
5, 185604, Note_off_c, 3, 74, 64
5, 185604, Note_off_c, 3, 67, 64
5, 185640, Note_on_c, 3, 74, 105
5, 185640, Note_on_c, 3, 67, 105
5, 185724, Note_off_c, 3, 67, 64
5, 185724, Note_off_c, 3, 74, 64
5, 185760, Note_on_c, 3, 74, 105
5, 185760, Note_on_c, 3, 67, 105
5, 185952, Note_off_c, 3, 67, 64
5, 185952, Note_off_c, 3, 74, 64
5, 186240, Note_on_c, 3, 67, 105
5, 186240, Note_on_c, 3, 76, 105
5, 186324, Note_off_c, 3, 76, 64
5, 186324, Note_off_c, 3, 67, 64
5, 186360, Note_on_c, 3, 76, 105
5, 186360, Note_on_c, 3, 67, 105
5, 186444, Note_off_c, 3, 67, 64
5, 186444, Note_off_c, 3, 76, 64
5, 186480, Note_on_c, 3, 67, 105
5, 186480, Note_on_c, 3, 76, 105
5, 186564, Note_off_c, 3, 76, 64
5, 186564, Note_off_c, 3, 67, 64
5, 186600, Note_on_c, 3, 76, 105
5, 186600, Note_on_c, 3, 67, 105
5, 186684, Note_off_c, 3, 67, 64
5, 186684, Note_off_c, 3, 76, 64
5, 186720, Note_on_c, 3, 67, 105
5, 186720, Note_on_c, 3, 76, 105
5, 186912, Note_off_c, 3, 76, 64
5, 186912, Note_off_c, 3, 67, 64
5, 187200, Note_on_c, 3, 74, 105
5, 187200, Note_on_c, 3, 67, 105
5, 187284, Note_off_c, 3, 67, 64
5, 187284, Note_off_c, 3, 74, 64
5, 187320, Note_on_c, 3, 67, 105
5, 187320, Note_on_c, 3, 74, 105
5, 187404, Note_off_c, 3, 74, 64
5, 187404, Note_off_c, 3, 67, 64
5, 187440, Note_on_c, 3, 67, 105
5, 187440, Note_on_c, 3, 74, 105
5, 187524, Note_off_c, 3, 74, 64
5, 187524, Note_off_c, 3, 67, 64
5, 187560, Note_on_c, 3, 67, 105
5, 187560, Note_on_c, 3, 74, 105
5, 187644, Note_off_c, 3, 74, 64
5, 187644, Note_off_c, 3, 67, 64
5, 187680, Note_on_c, 3, 67, 105
5, 187680, Note_on_c, 3, 74, 105
5, 187872, Note_off_c, 3, 74, 64
5, 187872, Note_off_c, 3, 67, 64
5, 188160, Note_on_c, 3, 72, 105
5, 188160, Note_on_c, 3, 64, 105
5, 188544, Note_off_c, 3, 64, 64
5, 188544, Note_off_c, 3, 72, 64
5, 188640, Note_on_c, 3, 76, 105
5, 188640, Note_on_c, 3, 67, 105
5, 189024, Note_off_c, 3, 67, 64
5, 189024, Note_off_c, 3, 76, 64
5, 189120, Note_on_c, 3, 72, 105
5, 189120, Note_on_c, 3, 74, 105
5, 189264, Note_off_c, 3, 74, 64
5, 189264, Note_off_c, 3, 72, 64
5, 189360, Note_on_c, 3, 74, 105
5, 189360, Note_on_c, 3, 72, 105
5, 189504, Note_off_c, 3, 72, 64
5, 189504, Note_off_c, 3, 74, 64
5, 191040, Note_on_c, 3, 74, 105
5, 191040, Note_on_c, 3, 67, 105
5, 191124, Note_off_c, 3, 67, 64
5, 191124, Note_off_c, 3, 74, 64
5, 191160, Note_on_c, 3, 67, 105
5, 191160, Note_on_c, 3, 74, 105
5, 191244, Note_off_c, 3, 74, 64
5, 191244, Note_off_c, 3, 67, 64
5, 191280, Note_on_c, 3, 67, 105
5, 191280, Note_on_c, 3, 74, 105
5, 191364, Note_off_c, 3, 74, 64
5, 191364, Note_off_c, 3, 67, 64
5, 191400, Note_on_c, 3, 74, 105
5, 191400, Note_on_c, 3, 67, 105
5, 191484, Note_off_c, 3, 67, 64
5, 191484, Note_off_c, 3, 74, 64
5, 191520, Note_on_c, 3, 74, 105
5, 191520, Note_on_c, 3, 67, 105
5, 191712, Note_off_c, 3, 67, 64
5, 191712, Note_off_c, 3, 74, 64
5, 192000, Note_on_c, 3, 76, 105
5, 192000, Note_on_c, 3, 67, 105
5, 192084, Note_off_c, 3, 67, 64
5, 192084, Note_off_c, 3, 76, 64
5, 192120, Note_on_c, 3, 67, 105
5, 192120, Note_on_c, 3, 76, 105
5, 192204, Note_off_c, 3, 76, 64
5, 192204, Note_off_c, 3, 67, 64
5, 192240, Note_on_c, 3, 76, 105
5, 192240, Note_on_c, 3, 67, 105
5, 192324, Note_off_c, 3, 67, 64
5, 192324, Note_off_c, 3, 76, 64
5, 192360, Note_on_c, 3, 76, 105
5, 192360, Note_on_c, 3, 67, 105
5, 192444, Note_off_c, 3, 67, 64
5, 192444, Note_off_c, 3, 76, 64
5, 192480, Note_on_c, 3, 67, 105
5, 192480, Note_on_c, 3, 76, 105
5, 192672, Note_off_c, 3, 76, 64
5, 192672, Note_off_c, 3, 67, 64
5, 192960, Note_on_c, 3, 74, 105
5, 192960, Note_on_c, 3, 67, 105
5, 193044, Note_off_c, 3, 67, 64
5, 193044, Note_off_c, 3, 74, 64
5, 193080, Note_on_c, 3, 74, 105
5, 193080, Note_on_c, 3, 67, 105
5, 193164, Note_off_c, 3, 67, 64
5, 193164, Note_off_c, 3, 74, 64
5, 193200, Note_on_c, 3, 67, 105
5, 193200, Note_on_c, 3, 74, 105
5, 193284, Note_off_c, 3, 74, 64
5, 193284, Note_off_c, 3, 67, 64
5, 193320, Note_on_c, 3, 67, 105
5, 193320, Note_on_c, 3, 74, 105
5, 193404, Note_off_c, 3, 74, 64
5, 193404, Note_off_c, 3, 67, 64
5, 193440, Note_on_c, 3, 67, 105
5, 193440, Note_on_c, 3, 74, 105
5, 193632, Note_off_c, 3, 74, 64
5, 193632, Note_off_c, 3, 67, 64
5, 193920, Note_on_c, 3, 64, 105
5, 193920, Note_on_c, 3, 72, 105
5, 194304, Note_off_c, 3, 72, 64
5, 194304, Note_off_c, 3, 64, 64
5, 194400, Note_on_c, 3, 76, 105
5, 194400, Note_on_c, 3, 67, 105
5, 194784, Note_off_c, 3, 67, 64
5, 194784, Note_off_c, 3, 76, 64
5, 194880, Note_on_c, 3, 72, 105
5, 194880, Note_on_c, 3, 74, 105
5, 195024, Note_off_c, 3, 74, 64
5, 195024, Note_off_c, 3, 72, 64
5, 195120, Note_on_c, 3, 74, 105
5, 195120, Note_on_c, 3, 72, 105
5, 195264, Note_off_c, 3, 72, 64
5, 195264, Note_off_c, 3, 74, 64
5, 200640, Note_on_c, 3, 67, 105
5, 201888, Note_off_c, 3, 67, 64
5, 201960, Note_on_c, 3, 67, 105
5, 202044, Note_off_c, 3, 67, 64
5, 202080, Note_on_c, 3, 67, 105
5, 202164, Note_off_c, 3, 67, 64
5, 202200, Note_on_c, 3, 67, 105
5, 202284, Note_off_c, 3, 67, 64
5, 202320, Note_on_c, 3, 67, 105
5, 202404, Note_off_c, 3, 67, 64
5, 202440, Note_on_c, 3, 67, 105
5, 202524, Note_off_c, 3, 67, 64
5, 202560, Note_on_c, 3, 67, 105
5, 202728, Note_off_c, 3, 67, 64
5, 202800, Note_on_c, 3, 76, 105
5, 202800, Note_on_c, 3, 67, 105
5, 202968, Note_off_c, 3, 67, 64
5, 202968, Note_off_c, 3, 76, 64
5, 203040, Note_on_c, 3, 72, 105
5, 203040, Note_on_c, 3, 76, 105
5, 203208, Note_off_c, 3, 76, 64
5, 203208, Note_off_c, 3, 72, 64
5, 203280, Note_on_c, 3, 74, 105
5, 203448, Note_off_c, 3, 74, 64
5, 203520, Note_on_c, 3, 67, 105
5, 204768, Note_off_c, 3, 67, 64
5, 204840, Note_on_c, 3, 67, 105
5, 204924, Note_off_c, 3, 67, 64
5, 204960, Note_on_c, 3, 67, 105
5, 205044, Note_off_c, 3, 67, 64
5, 205080, Note_on_c, 3, 67, 105
5, 205164, Note_off_c, 3, 67, 64
5, 205200, Note_on_c, 3, 67, 105
5, 205284, Note_off_c, 3, 67, 64
5, 205320, Note_on_c, 3, 67, 105
5, 205404, Note_off_c, 3, 67, 64
5, 205440, Note_on_c, 3, 67, 105
5, 205608, Note_off_c, 3, 67, 64
5, 205680, Note_on_c, 3, 67, 105
5, 205680, Note_on_c, 3, 76, 105
5, 205848, Note_off_c, 3, 76, 64
5, 205848, Note_off_c, 3, 67, 64
5, 205920, Note_on_c, 3, 76, 105
5, 205920, Note_on_c, 3, 72, 105
5, 206088, Note_off_c, 3, 72, 64
5, 206088, Note_off_c, 3, 76, 64
5, 206160, Note_on_c, 3, 74, 105
5, 206328, Note_off_c, 3, 74, 64
5, 207360, Note_on_c, 3, 74, 105
5, 207360, Note_on_c, 3, 67, 105
5, 207528, Note_off_c, 3, 67, 64
5, 207528, Note_off_c, 3, 74, 64
5, 207600, Note_on_c, 3, 67, 105
5, 207600, Note_on_c, 3, 76, 105
5, 207768, Note_off_c, 3, 76, 64
5, 207768, Note_off_c, 3, 67, 64
5, 207840, Note_on_c, 3, 76, 105
5, 207840, Note_on_c, 3, 72, 105
5, 208008, Note_off_c, 3, 72, 64
5, 208008, Note_off_c, 3, 76, 64
5, 208080, Note_on_c, 3, 74, 105
5, 208248, Note_off_c, 3, 74, 64
5, 208320, Note_on_c, 3, 74, 105
5, 208320, Note_on_c, 3, 67, 105
5, 208512, Note_off_c, 3, 67, 64
5, 208512, Note_off_c, 3, 74, 64
5, 228480, Note_on_c, 3, 60, 105
5, 228480, Note_on_c, 3, 67, 105
5, 229608, Note_off_c, 3, 67, 64
5, 229608, Note_off_c, 3, 60, 64
5, 229680, Note_on_c, 3, 67, 105
5, 229680, Note_on_c, 3, 60, 105
5, 229806, Note_off_c, 3, 60, 64
5, 229806, Note_off_c, 3, 67, 64
5, 229860, Note_on_c, 3, 60, 105
5, 229860, Note_on_c, 3, 67, 105
5, 229902, Note_off_c, 3, 67, 64
5, 229902, Note_off_c, 3, 60, 64
5, 229920, Note_on_c, 3, 60, 105
5, 229920, Note_on_c, 3, 67, 105
5, 230088, Note_off_c, 3, 67, 64
5, 230088, Note_off_c, 3, 60, 64
5, 230160, Note_on_c, 3, 67, 105
5, 230160, Note_on_c, 3, 60, 105
5, 230328, Note_off_c, 3, 60, 64
5, 230328, Note_off_c, 3, 67, 64
5, 230400, Note_on_c, 3, 72, 105
5, 230400, Note_on_c, 3, 60, 105
5, 230568, Note_off_c, 3, 60, 64
5, 230568, Note_off_c, 3, 72, 64
5, 230640, Note_on_c, 3, 72, 105
5, 230640, Note_on_c, 3, 60, 105
5, 230724, Note_off_c, 3, 60, 64
5, 230724, Note_off_c, 3, 72, 64
5, 230760, Note_on_c, 3, 72, 105
5, 230760, Note_on_c, 3, 60, 105
5, 230844, Note_off_c, 3, 60, 64
5, 230844, Note_off_c, 3, 72, 64
5, 230880, Note_on_c, 3, 60, 105
5, 230880, Note_on_c, 3, 72, 105
5, 231048, Note_off_c, 3, 72, 64
5, 231048, Note_off_c, 3, 60, 64
5, 231120, Note_on_c, 3, 72, 105
5, 231120, Note_on_c, 3, 60, 105
5, 231204, Note_off_c, 3, 60, 64
5, 231204, Note_off_c, 3, 72, 64
5, 231240, Note_on_c, 3, 72, 105
5, 231240, Note_on_c, 3, 60, 105
5, 231324, Note_off_c, 3, 60, 64
5, 231324, Note_off_c, 3, 72, 64
5, 231360, Note_on_c, 3, 60, 105
5, 231360, Note_on_c, 3, 72, 105
5, 231528, Note_off_c, 3, 72, 64
5, 231528, Note_off_c, 3, 60, 64
5, 231600, Note_on_c, 3, 60, 105
5, 231600, Note_on_c, 3, 72, 105
5, 231684, Note_off_c, 3, 72, 64
5, 231684, Note_off_c, 3, 60, 64
5, 231720, Note_on_c, 3, 60, 105
5, 231720, Note_on_c, 3, 72, 105
5, 231804, Note_off_c, 3, 72, 64
5, 231804, Note_off_c, 3, 60, 64
5, 231840, Note_on_c, 3, 72, 105
5, 231840, Note_on_c, 3, 60, 105
5, 232008, Note_off_c, 3, 60, 64
5, 232008, Note_off_c, 3, 72, 64
5, 232080, Note_on_c, 3, 72, 105
5, 232080, Note_on_c, 3, 60, 105
5, 232164, Note_off_c, 3, 60, 64
5, 232164, Note_off_c, 3, 72, 64
5, 232200, Note_on_c, 3, 60, 105
5, 232200, Note_on_c, 3, 72, 105
5, 232284, Note_off_c, 3, 72, 64
5, 232284, Note_off_c, 3, 60, 64
5, 232320, Note_on_c, 3, 72, 105
5, 232320, Note_on_c, 3, 60, 105
5, 232512, Note_off_c, 3, 60, 64
5, 232512, Note_off_c, 3, 72, 64
5, 240240, Note_on_c, 3, 67, 105
5, 240240, Note_on_c, 3, 55, 105
5, 240366, Note_off_c, 3, 55, 64
5, 240366, Note_off_c, 3, 67, 64
5, 240420, Note_on_c, 3, 67, 105
5, 240420, Note_on_c, 3, 55, 105
5, 240462, Note_off_c, 3, 55, 64
5, 240462, Note_off_c, 3, 67, 64
5, 240480, Note_on_c, 3, 55, 105
5, 240480, Note_on_c, 3, 67, 105
5, 240648, Note_off_c, 3, 67, 64
5, 240648, Note_off_c, 3, 55, 64
5, 241200, Note_on_c, 3, 55, 105
5, 241200, Note_on_c, 3, 67, 105
5, 241326, Note_off_c, 3, 67, 64
5, 241326, Note_off_c, 3, 55, 64
5, 241380, Note_on_c, 3, 55, 105
5, 241380, Note_on_c, 3, 67, 105
5, 241422, Note_off_c, 3, 67, 64
5, 241422, Note_off_c, 3, 55, 64
5, 241440, Note_on_c, 3, 55, 105
5, 241440, Note_on_c, 3, 67, 105
5, 241608, Note_off_c, 3, 67, 64
5, 241608, Note_off_c, 3, 55, 64
5, 242160, Note_on_c, 3, 55, 105
5, 242160, Note_on_c, 3, 67, 105
5, 242286, Note_off_c, 3, 67, 64
5, 242286, Note_off_c, 3, 55, 64
5, 242340, Note_on_c, 3, 67, 105
5, 242340, Note_on_c, 3, 55, 105
5, 242382, Note_off_c, 3, 55, 64
5, 242382, Note_off_c, 3, 67, 64
5, 242400, Note_on_c, 3, 67, 105
5, 242400, Note_on_c, 3, 55, 105
5, 242568, Note_off_c, 3, 55, 64
5, 242568, Note_off_c, 3, 67, 64
5, 243120, Note_on_c, 3, 55, 105
5, 243120, Note_on_c, 3, 67, 105
5, 243246, Note_off_c, 3, 67, 64
5, 243246, Note_off_c, 3, 55, 64
5, 243300, Note_on_c, 3, 67, 105
5, 243300, Note_on_c, 3, 55, 105
5, 243342, Note_off_c, 3, 55, 64
5, 243342, Note_off_c, 3, 67, 64
5, 243360, Note_on_c, 3, 55, 105
5, 243360, Note_on_c, 3, 67, 105
5, 243528, Note_off_c, 3, 67, 64
5, 243528, Note_off_c, 3, 55, 64
5, 243840, Note_on_c, 3, 67, 105
5, 243840, Note_on_c, 3, 74, 105
5, 244008, Note_off_c, 3, 74, 64
5, 244008, Note_off_c, 3, 67, 64
5, 244080, Note_on_c, 3, 76, 105
5, 244080, Note_on_c, 3, 72, 105
5, 244248, Note_off_c, 3, 72, 64
5, 244248, Note_off_c, 3, 76, 64
5, 244320, Note_on_c, 3, 74, 105
5, 244320, Note_on_c, 3, 77, 105
5, 244488, Note_off_c, 3, 77, 64
5, 244488, Note_off_c, 3, 74, 64
5, 244560, Note_on_c, 3, 76, 105
5, 244560, Note_on_c, 3, 72, 105
5, 244728, Note_off_c, 3, 72, 64
5, 244728, Note_off_c, 3, 76, 64
5, 244800, Note_on_c, 3, 67, 105
5, 244800, Note_on_c, 3, 74, 105
5, 244968, Note_off_c, 3, 74, 64
5, 244968, Note_off_c, 3, 67, 64
5, 245040, Note_on_c, 3, 76, 105
5, 245040, Note_on_c, 3, 72, 105
5, 245208, Note_off_c, 3, 72, 64
5, 245208, Note_off_c, 3, 76, 64
5, 245280, Note_on_c, 3, 74, 105
5, 245280, Note_on_c, 3, 77, 105
5, 245448, Note_off_c, 3, 77, 64
5, 245448, Note_off_c, 3, 74, 64
5, 245520, Note_on_c, 3, 76, 105
5, 245520, Note_on_c, 3, 72, 105
5, 245688, Note_off_c, 3, 72, 64
5, 245688, Note_off_c, 3, 76, 64
5, 245760, Note_on_c, 3, 74, 105
5, 245760, Note_on_c, 3, 67, 105
5, 245952, Note_off_c, 3, 67, 64
5, 245952, Note_off_c, 3, 74, 64
5, 260160, Note_on_c, 3, 72, 105
5, 260160, Note_on_c, 3, 60, 105
5, 262464, Note_off_c, 3, 72, 64
5, 262464, Note_off_c, 3, 60, 64
5, 262800, Note_on_c, 3, 60, 105
5, 262800, Note_on_c, 3, 72, 105
5, 262968, Note_off_c, 3, 72, 64
5, 262968, Note_off_c, 3, 60, 64
5, 263040, Note_on_c, 3, 60, 105
5, 263040, Note_on_c, 3, 72, 105
5, 263208, Note_off_c, 3, 72, 64
5, 263208, Note_off_c, 3, 60, 64
5, 263280, Note_on_c, 3, 60, 105
5, 263280, Note_on_c, 3, 72, 105
5, 263448, Note_off_c, 3, 72, 64
5, 263448, Note_off_c, 3, 60, 64
5, 263760, Note_on_c, 3, 60, 105
5, 263760, Note_on_c, 3, 72, 105
5, 263928, Note_off_c, 3, 72, 64
5, 263928, Note_off_c, 3, 60, 64
5, 264000, Note_on_c, 3, 60, 105
5, 264000, Note_on_c, 3, 72, 105
5, 264168, Note_off_c, 3, 72, 64
5, 264168, Note_off_c, 3, 60, 64
5, 264240, Note_on_c, 3, 60, 105
5, 264240, Note_on_c, 3, 72, 105
5, 264408, Note_off_c, 3, 72, 64
5, 264408, Note_off_c, 3, 60, 64
5, 264720, Note_on_c, 3, 60, 105
5, 264720, Note_on_c, 3, 72, 105
5, 264888, Note_off_c, 3, 72, 64
5, 264888, Note_off_c, 3, 60, 64
5, 264960, Note_on_c, 3, 72, 105
5, 264960, Note_on_c, 3, 60, 105
5, 265128, Note_off_c, 3, 60, 64
5, 265128, Note_off_c, 3, 72, 64
5, 265200, Note_on_c, 3, 72, 105
5, 265200, Note_on_c, 3, 60, 105
5, 265368, Note_off_c, 3, 60, 64
5, 265368, Note_off_c, 3, 72, 64
5, 265440, Note_on_c, 3, 72, 105
5, 265440, Note_on_c, 3, 60, 105
5, 265608, Note_off_c, 3, 60, 64
5, 265608, Note_off_c, 3, 72, 64
5, 265680, Note_on_c, 3, 72, 105
5, 265680, Note_on_c, 3, 60, 105
5, 265848, Note_off_c, 3, 60, 64
5, 265848, Note_off_c, 3, 72, 64
5, 265920, Note_on_c, 3, 60, 105
5, 265920, Note_on_c, 3, 72, 105
5, 266088, Note_off_c, 3, 72, 64
5, 266088, Note_off_c, 3, 60, 64
5, 266160, Note_on_c, 3, 72, 105
5, 266160, Note_on_c, 3, 60, 105
5, 266328, Note_off_c, 3, 60, 64
5, 266328, Note_off_c, 3, 72, 64
5, 271680, Note_on_c, 3, 60, 105
5, 271680, Note_on_c, 3, 72, 105
5, 271848, Note_off_c, 3, 72, 64
5, 271848, Note_off_c, 3, 60, 64
5, 271920, Note_on_c, 3, 72, 105
5, 271920, Note_on_c, 3, 60, 105
5, 272046, Note_off_c, 3, 60, 64
5, 272046, Note_off_c, 3, 72, 64
5, 272100, Note_on_c, 3, 72, 105
5, 272100, Note_on_c, 3, 60, 105
5, 272142, Note_off_c, 3, 60, 64
5, 272142, Note_off_c, 3, 72, 64
5, 272160, Note_on_c, 3, 72, 105
5, 272160, Note_on_c, 3, 60, 105
5, 272328, Note_off_c, 3, 60, 64
5, 272328, Note_off_c, 3, 72, 64
5, 272400, Note_on_c, 3, 72, 105
5, 272400, Note_on_c, 3, 60, 105
5, 272568, Note_off_c, 3, 60, 64
5, 272568, Note_off_c, 3, 72, 64
5, 272640, Note_on_c, 3, 74, 105
5, 272640, Note_on_c, 3, 67, 105
5, 272808, Note_off_c, 3, 67, 64
5, 272808, Note_off_c, 3, 74, 64
5, 272880, Note_on_c, 3, 74, 105
5, 272880, Note_on_c, 3, 67, 105
5, 273006, Note_off_c, 3, 67, 64
5, 273006, Note_off_c, 3, 74, 64
5, 273060, Note_on_c, 3, 74, 105
5, 273060, Note_on_c, 3, 67, 105
5, 273102, Note_off_c, 3, 67, 64
5, 273102, Note_off_c, 3, 74, 64
5, 273120, Note_on_c, 3, 67, 105
5, 273120, Note_on_c, 3, 74, 105
5, 273288, Note_off_c, 3, 74, 64
5, 273288, Note_off_c, 3, 67, 64
5, 273360, Note_on_c, 3, 67, 105
5, 273360, Note_on_c, 3, 74, 105
5, 273528, Note_off_c, 3, 74, 64
5, 273528, Note_off_c, 3, 67, 64
5, 273600, Note_on_c, 3, 72, 105
5, 273600, Note_on_c, 3, 76, 105
5, 273984, Note_off_c, 3, 76, 64
5, 273984, Note_off_c, 3, 72, 64
5, 274080, Note_on_c, 3, 72, 105
5, 274080, Note_on_c, 3, 76, 105
5, 274464, Note_off_c, 3, 76, 64
5, 274464, Note_off_c, 3, 72, 64
5, 275040, Note_on_c, 3, 76, 105
5, 275040, Note_on_c, 3, 72, 105
5, 275208, Note_off_c, 3, 72, 64
5, 275208, Note_off_c, 3, 76, 64
5, 275280, Note_on_c, 3, 74, 105
5, 275280, Note_on_c, 3, 67, 105
5, 275448, Note_off_c, 3, 67, 64
5, 275448, Note_off_c, 3, 74, 64
5, 275520, Note_on_c, 3, 72, 105
5, 275520, Note_on_c, 3, 60, 105
5, 275688, Note_off_c, 3, 60, 64
5, 275688, Note_off_c, 3, 72, 64
5, 275760, Note_on_c, 3, 60, 105
5, 275760, Note_on_c, 3, 72, 105
5, 275886, Note_off_c, 3, 72, 64
5, 275886, Note_off_c, 3, 60, 64
5, 275940, Note_on_c, 3, 60, 105
5, 275940, Note_on_c, 3, 72, 105
5, 275982, Note_off_c, 3, 72, 64
5, 275982, Note_off_c, 3, 60, 64
5, 276000, Note_on_c, 3, 60, 105
5, 276000, Note_on_c, 3, 72, 105
5, 276168, Note_off_c, 3, 72, 64
5, 276168, Note_off_c, 3, 60, 64
5, 276240, Note_on_c, 3, 60, 105
5, 276240, Note_on_c, 3, 72, 105
5, 276408, Note_off_c, 3, 72, 64
5, 276408, Note_off_c, 3, 60, 64
5, 276480, Note_on_c, 3, 74, 105
5, 276480, Note_on_c, 3, 67, 105
5, 276648, Note_off_c, 3, 67, 64
5, 276648, Note_off_c, 3, 74, 64
5, 276720, Note_on_c, 3, 74, 105
5, 276720, Note_on_c, 3, 67, 105
5, 276846, Note_off_c, 3, 67, 64
5, 276846, Note_off_c, 3, 74, 64
5, 276900, Note_on_c, 3, 74, 105
5, 276900, Note_on_c, 3, 67, 105
5, 276942, Note_off_c, 3, 67, 64
5, 276942, Note_off_c, 3, 74, 64
5, 276960, Note_on_c, 3, 67, 105
5, 276960, Note_on_c, 3, 74, 105
5, 277128, Note_off_c, 3, 74, 64
5, 277128, Note_off_c, 3, 67, 64
5, 277200, Note_on_c, 3, 67, 105
5, 277200, Note_on_c, 3, 74, 105
5, 277368, Note_off_c, 3, 74, 64
5, 277368, Note_off_c, 3, 67, 64
5, 277440, Note_on_c, 3, 76, 105
5, 277440, Note_on_c, 3, 72, 105
5, 278352, Note_off_c, 3, 76, 64
5, 278400, Note_on_c, 3, 74, 105
5, 279312, Note_off_c, 3, 72, 64
5, 279360, Note_on_c, 3, 67, 105
5, 280272, Note_off_c, 3, 67, 64
5, 280272, Note_off_c, 3, 74, 64
5, 280320, Note_on_c, 3, 72, 105
5, 280320, Note_on_c, 3, 60, 105
5, 282192, Note_off_c, 3, 72, 64
5, 282192, Note_off_c, 3, 60, 64
5, 283200, Note_on_c, 3, 60, 105
5, 283200, Note_on_c, 3, 72, 105
5, 283368, Note_off_c, 3, 72, 64
5, 283368, Note_off_c, 3, 60, 64
5, 283440, Note_on_c, 3, 72, 105
5, 283440, Note_on_c, 3, 60, 105
5, 283566, Note_off_c, 3, 60, 64
5, 283566, Note_off_c, 3, 72, 64
5, 283620, Note_on_c, 3, 72, 105
5, 283620, Note_on_c, 3, 60, 105
5, 283662, Note_off_c, 3, 60, 64
5, 283662, Note_off_c, 3, 72, 64
5, 283680, Note_on_c, 3, 60, 105
5, 283680, Note_on_c, 3, 72, 105
5, 283848, Note_off_c, 3, 72, 64
5, 283848, Note_off_c, 3, 60, 64
5, 283920, Note_on_c, 3, 60, 105
5, 283920, Note_on_c, 3, 72, 105
5, 284088, Note_off_c, 3, 72, 64
5, 284088, Note_off_c, 3, 60, 64
5, 284160, Note_on_c, 3, 72, 105
5, 284160, Note_on_c, 3, 60, 105
5, 284328, Note_off_c, 3, 60, 64
5, 284328, Note_off_c, 3, 72, 64
5, 284400, Note_on_c, 3, 72, 105
5, 284400, Note_on_c, 3, 60, 105
5, 284484, Note_off_c, 3, 60, 64
5, 284484, Note_off_c, 3, 72, 64
5, 284520, Note_on_c, 3, 60, 105
5, 284520, Note_on_c, 3, 72, 105
5, 284604, Note_off_c, 3, 72, 64
5, 284604, Note_off_c, 3, 60, 64
5, 284640, Note_on_c, 3, 60, 105
5, 284640, Note_on_c, 3, 72, 105
5, 284808, Note_off_c, 3, 72, 64
5, 284808, Note_off_c, 3, 60, 64
5, 286080, Note_on_c, 3, 60, 105
5, 286080, Note_on_c, 3, 72, 105
5, 286248, Note_off_c, 3, 72, 64
5, 286248, Note_off_c, 3, 60, 64
5, 286320, Note_on_c, 3, 60, 105
5, 286320, Note_on_c, 3, 72, 105
5, 286404, Note_off_c, 3, 72, 64
5, 286404, Note_off_c, 3, 60, 64
5, 286440, Note_on_c, 3, 60, 105
5, 286440, Note_on_c, 3, 72, 105
5, 286524, Note_off_c, 3, 72, 64
5, 286524, Note_off_c, 3, 60, 64
5, 286560, Note_on_c, 3, 72, 105
5, 286560, Note_on_c, 3, 60, 105
5, 286728, Note_off_c, 3, 60, 64
5, 286728, Note_off_c, 3, 72, 64
5, 288000, Note_on_c, 3, 72, 105
5, 288000, Note_on_c, 3, 60, 105
5, 288192, Note_off_c, 3, 60, 64
5, 288192, Note_off_c, 3, 72, 64
5, 288960, Note_on_c, 3, 72, 105
5, 288960, Note_on_c, 3, 60, 105
5, 289152, Note_off_c, 3, 60, 64
5, 289152, Note_off_c, 3, 72, 64
5, 290880, Note_on_c, 3, 60, 105
5, 290880, Note_on_c, 3, 72, 105
5, 290952, Note_off_c, 3, 72, 64
5, 290952, Note_off_c, 3, 60, 64
5, 291000, Note_on_c, 3, 72, 105
5, 291000, Note_on_c, 3, 60, 105
5, 291072, Note_off_c, 3, 60, 64
5, 291072, Note_off_c, 3, 72, 64
5, 291120, Note_on_c, 3, 72, 105
5, 291120, Note_on_c, 3, 60, 105
5, 291192, Note_off_c, 3, 60, 64
5, 291192, Note_off_c, 3, 72, 64
5, 291240, Note_on_c, 3, 72, 105
5, 291240, Note_on_c, 3, 60, 105
5, 291312, Note_off_c, 3, 60, 64
5, 291312, Note_off_c, 3, 72, 64
5, 291360, Note_on_c, 3, 72, 105
5, 291360, Note_on_c, 3, 60, 105
5, 291432, Note_off_c, 3, 60, 64
5, 291432, Note_off_c, 3, 72, 64
5, 291480, Note_on_c, 3, 72, 105
5, 291480, Note_on_c, 3, 60, 105
5, 291552, Note_off_c, 3, 60, 64
5, 291552, Note_off_c, 3, 72, 64
5, 291600, Note_on_c, 3, 60, 105
5, 291600, Note_on_c, 3, 72, 105
5, 291672, Note_off_c, 3, 72, 64
5, 291672, Note_off_c, 3, 60, 64
5, 291720, Note_on_c, 3, 72, 105
5, 291720, Note_on_c, 3, 60, 105
5, 291792, Note_off_c, 3, 60, 64
5, 291792, Note_off_c, 3, 72, 64
5, 291840, Note_on_c, 3, 72, 105
5, 291840, Note_on_c, 3, 60, 105
5, 292032, Note_off_c, 3, 60, 64
5, 292032, Note_off_c, 3, 72, 64
5, 292800, Note_on_c, 3, 67, 105
5, 292872, Note_off_c, 3, 67, 64
5, 292920, Note_on_c, 3, 67, 105
5, 292992, Note_off_c, 3, 67, 64
5, 293040, Note_on_c, 3, 67, 105
5, 293112, Note_off_c, 3, 67, 64
5, 293160, Note_on_c, 3, 67, 105
5, 293232, Note_off_c, 3, 67, 64
5, 293280, Note_on_c, 3, 67, 105
5, 293352, Note_off_c, 3, 67, 64
5, 293400, Note_on_c, 3, 67, 105
5, 293472, Note_off_c, 3, 67, 64
5, 293520, Note_on_c, 3, 67, 105
5, 293592, Note_off_c, 3, 67, 64
5, 293640, Note_on_c, 3, 67, 105
5, 293712, Note_off_c, 3, 67, 64
5, 293760, Note_on_c, 3, 67, 105
5, 293760, Note_on_c, 3, 60, 105
5, 293952, Note_off_c, 3, 60, 64
5, 293952, Note_off_c, 3, 67, 64
5, 302880, Note_on_c, 3, 76, 105
5, 302880, Note_on_c, 3, 64, 105
5, 303036, Note_off_c, 3, 64, 64
5, 303036, Note_off_c, 3, 76, 64
5, 303120, Note_on_c, 3, 64, 105
5, 303120, Note_on_c, 3, 76, 105
5, 303276, Note_off_c, 3, 76, 64
5, 303276, Note_off_c, 3, 64, 64
5, 303360, Note_on_c, 3, 76, 105
5, 303360, Note_on_c, 3, 64, 105
5, 303744, Note_off_c, 3, 64, 64
5, 303744, Note_off_c, 3, 76, 64
5, 303840, Note_on_c, 3, 76, 105
5, 303840, Note_on_c, 3, 64, 105
5, 304224, Note_off_c, 3, 64, 64
5, 304224, Note_off_c, 3, 76, 64
5, 304320, Note_on_c, 3, 64, 105
5, 304320, Note_on_c, 3, 76, 105
5, 304476, Note_off_c, 3, 76, 64
5, 304476, Note_off_c, 3, 64, 64
5, 304800, Note_on_c, 3, 76, 105
5, 304800, Note_on_c, 3, 64, 105
5, 304956, Note_off_c, 3, 64, 64
5, 304956, Note_off_c, 3, 76, 64
5, 305040, Note_on_c, 3, 76, 105
5, 305040, Note_on_c, 3, 64, 105
5, 305196, Note_off_c, 3, 64, 64
5, 305196, Note_off_c, 3, 76, 64
5, 305280, Note_on_c, 3, 64, 105
5, 305280, Note_on_c, 3, 76, 105
5, 305436, Note_off_c, 3, 76, 64
5, 305436, Note_off_c, 3, 64, 64
5, 305760, Note_on_c, 3, 76, 105
5, 305760, Note_on_c, 3, 64, 105
5, 305916, Note_off_c, 3, 64, 64
5, 305916, Note_off_c, 3, 76, 64
5, 306000, Note_on_c, 3, 76, 105
5, 306000, Note_on_c, 3, 64, 105
5, 306156, Note_off_c, 3, 64, 64
5, 306156, Note_off_c, 3, 76, 64
5, 306240, Note_on_c, 3, 76, 105
5, 306240, Note_on_c, 3, 64, 105
5, 306456, Note_off_c, 3, 64, 64
5, 306456, Note_off_c, 3, 76, 64
5, 306720, Note_on_c, 3, 72, 72
5, 306720, Note_on_c, 3, 60, 72
5, 306900, Note_off_c, 3, 60, 64
5, 306900, Note_off_c, 3, 72, 64
5, 306960, Note_on_c, 3, 72, 72
5, 306960, Note_on_c, 3, 60, 72
5, 307140, Note_off_c, 3, 60, 64
5, 307140, Note_off_c, 3, 72, 64
5, 307200, Note_on_c, 3, 60, 72
5, 307200, Note_on_c, 3, 72, 72
5, 307656, Note_off_c, 3, 72, 64
5, 307656, Note_off_c, 3, 60, 64
5, 307680, Note_on_c, 3, 60, 72
5, 307680, Note_on_c, 3, 72, 72
5, 308136, Note_off_c, 3, 72, 64
5, 308136, Note_off_c, 3, 60, 64
5, 308160, Note_on_c, 3, 60, 72
5, 308160, Note_on_c, 3, 72, 72
5, 308352, Note_off_c, 3, 72, 64
5, 308352, Note_off_c, 3, 60, 64
5, 314400, Note_on_c, 3, 72, 105
5, 314400, Note_on_c, 3, 60, 105
5, 314568, Note_off_c, 3, 60, 64
5, 314568, Note_off_c, 3, 72, 64
5, 314640, Note_on_c, 3, 60, 105
5, 314640, Note_on_c, 3, 72, 105
5, 314808, Note_off_c, 3, 72, 64
5, 314808, Note_off_c, 3, 60, 64
5, 314880, Note_on_c, 3, 60, 105
5, 314880, Note_on_c, 3, 72, 105
5, 315264, Note_off_c, 3, 72, 64
5, 315264, Note_off_c, 3, 60, 64
5, 315360, Note_on_c, 3, 60, 105
5, 315360, Note_on_c, 3, 72, 105
5, 315744, Note_off_c, 3, 72, 64
5, 315744, Note_off_c, 3, 60, 64
5, 315840, Note_on_c, 3, 60, 105
5, 315840, Note_on_c, 3, 72, 105
5, 316008, Note_off_c, 3, 72, 64
5, 316008, Note_off_c, 3, 60, 64
5, 316080, Note_on_c, 3, 72, 105
5, 316080, Note_on_c, 3, 60, 105
5, 316164, Note_off_c, 3, 60, 64
5, 316164, Note_off_c, 3, 72, 64
5, 316200, Note_on_c, 3, 72, 105
5, 316200, Note_on_c, 3, 60, 105
5, 316284, Note_off_c, 3, 60, 64
5, 316284, Note_off_c, 3, 72, 64
5, 316320, Note_on_c, 3, 72, 105
5, 316320, Note_on_c, 3, 60, 105
5, 316488, Note_off_c, 3, 60, 64
5, 316488, Note_off_c, 3, 72, 64
5, 316800, Note_on_c, 3, 72, 105
5, 316800, Note_on_c, 3, 76, 105
5, 316968, Note_off_c, 3, 76, 64
5, 316968, Note_off_c, 3, 72, 64
5, 317040, Note_on_c, 3, 72, 105
5, 317040, Note_on_c, 3, 76, 105
5, 317124, Note_off_c, 3, 76, 64
5, 317124, Note_off_c, 3, 72, 64
5, 317160, Note_on_c, 3, 72, 105
5, 317160, Note_on_c, 3, 76, 105
5, 317244, Note_off_c, 3, 76, 64
5, 317244, Note_off_c, 3, 72, 64
5, 317280, Note_on_c, 3, 76, 105
5, 317280, Note_on_c, 3, 72, 105
5, 317448, Note_off_c, 3, 72, 64
5, 317448, Note_off_c, 3, 76, 64
5, 317520, Note_on_c, 3, 67, 105
5, 317520, Note_on_c, 3, 74, 105
5, 317688, Note_off_c, 3, 74, 64
5, 317688, Note_off_c, 3, 67, 64
5, 317760, Note_on_c, 3, 72, 105
5, 317760, Note_on_c, 3, 64, 105
5, 317928, Note_off_c, 3, 64, 64
5, 317928, Note_off_c, 3, 72, 64
5, 319680, Note_on_c, 3, 67, 105
5, 320448, Note_off_c, 3, 67, 64
5, 320640, Note_on_c, 3, 60, 105
5, 320640, Note_on_c, 3, 67, 105
5, 320808, Note_off_c, 3, 67, 64
5, 320808, Note_off_c, 3, 60, 64
5, 320880, Note_on_c, 3, 60, 105
5, 320880, Note_on_c, 3, 72, 105
5, 321048, Note_off_c, 3, 72, 64
5, 321048, Note_off_c, 3, 60, 64
5, 321120, Note_on_c, 3, 72, 105
5, 321120, Note_on_c, 3, 60, 105
5, 321288, Note_off_c, 3, 60, 64
5, 321288, Note_off_c, 3, 72, 64
5, 321360, Note_on_c, 3, 67, 105
5, 321360, Note_on_c, 3, 74, 105
5, 321528, Note_off_c, 3, 74, 64
5, 321528, Note_off_c, 3, 67, 64
5, 321600, Note_on_c, 3, 64, 105
5, 321600, Note_on_c, 3, 72, 105
5, 321792, Note_off_c, 3, 72, 64
5, 321792, Note_off_c, 3, 64, 64
5, 323520, Note_on_c, 3, 67, 105
5, 324288, Note_off_c, 3, 67, 64
5, 324480, Note_on_c, 3, 60, 105
5, 324480, Note_on_c, 3, 67, 105
5, 324648, Note_off_c, 3, 67, 64
5, 324648, Note_off_c, 3, 60, 64
5, 324720, Note_on_c, 3, 76, 105
5, 324720, Note_on_c, 3, 72, 105
5, 324888, Note_off_c, 3, 72, 64
5, 324888, Note_off_c, 3, 76, 64
5, 324960, Note_on_c, 3, 77, 105
5, 324960, Note_on_c, 3, 74, 105
5, 325128, Note_off_c, 3, 74, 64
5, 325128, Note_off_c, 3, 77, 64
5, 325200, Note_on_c, 3, 67, 105
5, 325200, Note_on_c, 3, 74, 105
5, 325368, Note_off_c, 3, 74, 64
5, 325368, Note_off_c, 3, 67, 64
5, 325440, Note_on_c, 3, 72, 105
5, 325440, Note_on_c, 3, 64, 105
5, 325524, Note_off_c, 3, 64, 64
5, 325524, Note_off_c, 3, 72, 64
5, 325560, Note_on_c, 3, 64, 105
5, 325560, Note_on_c, 3, 72, 105
5, 325644, Note_off_c, 3, 72, 64
5, 325644, Note_off_c, 3, 64, 64
5, 325680, Note_on_c, 3, 72, 105
5, 325680, Note_on_c, 3, 64, 105
5, 325764, Note_off_c, 3, 64, 64
5, 325764, Note_off_c, 3, 72, 64
5, 325800, Note_on_c, 3, 72, 105
5, 325800, Note_on_c, 3, 64, 105
5, 325884, Note_off_c, 3, 64, 64
5, 325884, Note_off_c, 3, 72, 64
5, 325920, Note_on_c, 3, 64, 105
5, 325920, Note_on_c, 3, 72, 105
5, 326112, Note_off_c, 3, 72, 64
5, 326112, Note_off_c, 3, 64, 64
5, 326400, Note_on_c, 3, 64, 105
5, 326400, Note_on_c, 3, 72, 105
5, 326484, Note_off_c, 3, 72, 64
5, 326484, Note_off_c, 3, 64, 64
5, 326520, Note_on_c, 3, 72, 105
5, 326520, Note_on_c, 3, 64, 105
5, 326604, Note_off_c, 3, 64, 64
5, 326604, Note_off_c, 3, 72, 64
5, 326640, Note_on_c, 3, 72, 105
5, 326640, Note_on_c, 3, 64, 105
5, 326724, Note_off_c, 3, 64, 64
5, 326724, Note_off_c, 3, 72, 64
5, 326760, Note_on_c, 3, 64, 105
5, 326760, Note_on_c, 3, 72, 105
5, 326844, Note_off_c, 3, 72, 64
5, 326844, Note_off_c, 3, 64, 64
5, 326880, Note_on_c, 3, 72, 105
5, 326880, Note_on_c, 3, 64, 105
5, 327072, Note_off_c, 3, 64, 64
5, 327072, Note_off_c, 3, 72, 64
5, 327360, Note_on_c, 3, 64, 105
5, 327360, Note_on_c, 3, 72, 105
5, 327444, Note_off_c, 3, 72, 64
5, 327444, Note_off_c, 3, 64, 64
5, 327480, Note_on_c, 3, 72, 105
5, 327480, Note_on_c, 3, 64, 105
5, 327564, Note_off_c, 3, 64, 64
5, 327564, Note_off_c, 3, 72, 64
5, 327600, Note_on_c, 3, 72, 105
5, 327600, Note_on_c, 3, 64, 105
5, 327684, Note_off_c, 3, 64, 64
5, 327684, Note_off_c, 3, 72, 64
5, 327720, Note_on_c, 3, 64, 105
5, 327720, Note_on_c, 3, 72, 105
5, 327804, Note_off_c, 3, 72, 64
5, 327804, Note_off_c, 3, 64, 64
5, 327840, Note_on_c, 3, 64, 105
5, 327840, Note_on_c, 3, 72, 105
5, 328032, Note_off_c, 3, 72, 64
5, 328032, Note_off_c, 3, 64, 64
5, 328320, Note_on_c, 3, 60, 105
5, 328320, Note_on_c, 3, 72, 105
5, 328512, Note_off_c, 3, 72, 64
5, 328512, Note_off_c, 3, 60, 64
5, 329280, Note_on_c, 3, 67, 105
5, 329280, Note_on_c, 3, 74, 105
5, 329424, Note_off_c, 3, 74, 64
5, 329424, Note_off_c, 3, 67, 64
5, 329520, Note_on_c, 3, 67, 105
5, 329520, Note_on_c, 3, 74, 105
5, 329664, Note_off_c, 3, 74, 64
5, 329664, Note_off_c, 3, 67, 64
5, 330480, Note_on_c, 3, 60, 105
5, 330480, Note_on_c, 3, 72, 105
5, 330636, Note_off_c, 3, 72, 64
5, 330636, Note_off_c, 3, 60, 64
5, 330720, Note_on_c, 3, 76, 105
5, 330720, Note_on_c, 3, 72, 105
5, 330876, Note_off_c, 3, 72, 64
5, 330876, Note_off_c, 3, 76, 64
5, 330960, Note_on_c, 3, 67, 105
5, 330960, Note_on_c, 3, 74, 105
5, 331116, Note_off_c, 3, 74, 64
5, 331116, Note_off_c, 3, 67, 64
5, 331200, Note_on_c, 3, 72, 105
5, 331200, Note_on_c, 3, 64, 105
5, 331284, Note_off_c, 3, 64, 64
5, 331284, Note_off_c, 3, 72, 64
5, 331320, Note_on_c, 3, 72, 105
5, 331320, Note_on_c, 3, 64, 105
5, 331404, Note_off_c, 3, 64, 64
5, 331404, Note_off_c, 3, 72, 64
5, 331440, Note_on_c, 3, 64, 105
5, 331440, Note_on_c, 3, 72, 105
5, 331524, Note_off_c, 3, 72, 64
5, 331524, Note_off_c, 3, 64, 64
5, 331560, Note_on_c, 3, 64, 105
5, 331560, Note_on_c, 3, 72, 105
5, 331644, Note_off_c, 3, 72, 64
5, 331644, Note_off_c, 3, 64, 64
5, 331680, Note_on_c, 3, 72, 105
5, 331680, Note_on_c, 3, 64, 105
5, 331872, Note_off_c, 3, 64, 64
5, 331872, Note_off_c, 3, 72, 64
5, 332160, Note_on_c, 3, 64, 105
5, 332160, Note_on_c, 3, 72, 105
5, 332244, Note_off_c, 3, 72, 64
5, 332244, Note_off_c, 3, 64, 64
5, 332280, Note_on_c, 3, 72, 105
5, 332280, Note_on_c, 3, 64, 105
5, 332364, Note_off_c, 3, 64, 64
5, 332364, Note_off_c, 3, 72, 64
5, 332400, Note_on_c, 3, 72, 105
5, 332400, Note_on_c, 3, 64, 105
5, 332484, Note_off_c, 3, 64, 64
5, 332484, Note_off_c, 3, 72, 64
5, 332520, Note_on_c, 3, 72, 105
5, 332520, Note_on_c, 3, 64, 105
5, 332604, Note_off_c, 3, 64, 64
5, 332604, Note_off_c, 3, 72, 64
5, 332640, Note_on_c, 3, 72, 105
5, 332640, Note_on_c, 3, 64, 105
5, 332832, Note_off_c, 3, 64, 64
5, 332832, Note_off_c, 3, 72, 64
5, 333120, Note_on_c, 3, 64, 105
5, 333120, Note_on_c, 3, 72, 105
5, 333204, Note_off_c, 3, 72, 64
5, 333204, Note_off_c, 3, 64, 64
5, 333240, Note_on_c, 3, 64, 105
5, 333240, Note_on_c, 3, 72, 105
5, 333324, Note_off_c, 3, 72, 64
5, 333324, Note_off_c, 3, 64, 64
5, 333360, Note_on_c, 3, 64, 105
5, 333360, Note_on_c, 3, 72, 105
5, 333444, Note_off_c, 3, 72, 64
5, 333444, Note_off_c, 3, 64, 64
5, 333480, Note_on_c, 3, 72, 105
5, 333480, Note_on_c, 3, 64, 105
5, 333564, Note_off_c, 3, 64, 64
5, 333564, Note_off_c, 3, 72, 64
5, 333600, Note_on_c, 3, 72, 105
5, 333600, Note_on_c, 3, 64, 105
5, 333792, Note_off_c, 3, 64, 64
5, 333792, Note_off_c, 3, 72, 64
5, 334080, Note_on_c, 3, 72, 105
5, 334080, Note_on_c, 3, 60, 105
5, 334272, Note_off_c, 3, 60, 64
5, 334272, Note_off_c, 3, 72, 64
5, 335040, Note_on_c, 3, 67, 105
5, 335040, Note_on_c, 3, 74, 105
5, 335184, Note_off_c, 3, 74, 64
5, 335184, Note_off_c, 3, 67, 64
5, 335280, Note_on_c, 3, 74, 105
5, 335280, Note_on_c, 3, 67, 105
5, 335424, Note_off_c, 3, 67, 64
5, 335424, Note_off_c, 3, 74, 64
5, 340800, Note_on_c, 3, 72, 105
5, 340800, Note_on_c, 3, 60, 105
5, 342048, Note_off_c, 3, 72, 64
5, 342048, Note_off_c, 3, 60, 64
5, 342120, Note_on_c, 3, 72, 105
5, 342120, Note_on_c, 3, 60, 105
5, 342192, Note_off_c, 3, 60, 64
5, 342192, Note_off_c, 3, 72, 64
5, 342240, Note_on_c, 3, 60, 105
5, 342240, Note_on_c, 3, 72, 105
5, 342312, Note_off_c, 3, 72, 64
5, 342312, Note_off_c, 3, 60, 64
5, 342360, Note_on_c, 3, 60, 105
5, 342360, Note_on_c, 3, 72, 105
5, 342432, Note_off_c, 3, 72, 64
5, 342432, Note_off_c, 3, 60, 64
5, 342480, Note_on_c, 3, 60, 105
5, 342480, Note_on_c, 3, 72, 105
5, 342552, Note_off_c, 3, 72, 64
5, 342552, Note_off_c, 3, 60, 64
5, 342600, Note_on_c, 3, 72, 105
5, 342600, Note_on_c, 3, 60, 105
5, 342672, Note_off_c, 3, 60, 64
5, 342672, Note_off_c, 3, 72, 64
5, 342720, Note_on_c, 3, 60, 105
5, 342720, Note_on_c, 3, 72, 105
5, 342888, Note_off_c, 3, 72, 64
5, 342888, Note_off_c, 3, 60, 64
5, 343440, Note_on_c, 3, 67, 105
5, 343440, Note_on_c, 3, 74, 105
5, 343608, Note_off_c, 3, 74, 64
5, 343608, Note_off_c, 3, 67, 64
5, 343680, Note_on_c, 3, 72, 105
5, 343680, Note_on_c, 3, 60, 105
5, 344928, Note_off_c, 3, 60, 64
5, 344928, Note_off_c, 3, 72, 64
5, 345000, Note_on_c, 3, 60, 105
5, 345000, Note_on_c, 3, 72, 105
5, 345072, Note_off_c, 3, 72, 64
5, 345072, Note_off_c, 3, 60, 64
5, 345120, Note_on_c, 3, 72, 105
5, 345120, Note_on_c, 3, 60, 105
5, 345192, Note_off_c, 3, 60, 64
5, 345192, Note_off_c, 3, 72, 64
5, 345240, Note_on_c, 3, 72, 105
5, 345240, Note_on_c, 3, 60, 105
5, 345312, Note_off_c, 3, 60, 64
5, 345312, Note_off_c, 3, 72, 64
5, 345360, Note_on_c, 3, 72, 105
5, 345360, Note_on_c, 3, 60, 105
5, 345432, Note_off_c, 3, 60, 64
5, 345432, Note_off_c, 3, 72, 64
5, 345480, Note_on_c, 3, 72, 105
5, 345480, Note_on_c, 3, 60, 105
5, 345552, Note_off_c, 3, 60, 64
5, 345552, Note_off_c, 3, 72, 64
5, 345600, Note_on_c, 3, 72, 105
5, 345600, Note_on_c, 3, 60, 105
5, 345768, Note_off_c, 3, 60, 64
5, 345768, Note_off_c, 3, 72, 64
5, 346320, Note_on_c, 3, 74, 105
5, 346320, Note_on_c, 3, 67, 105
5, 346488, Note_off_c, 3, 67, 64
5, 346488, Note_off_c, 3, 74, 64
5, 346560, Note_on_c, 3, 72, 72
5, 346560, Note_on_c, 3, 60, 72
5, 346752, Note_off_c, 3, 60, 64
5, 346752, Note_off_c, 3, 72, 64
5, 347280, Note_on_c, 3, 74, 72
5, 347280, Note_on_c, 3, 67, 72
5, 347448, Note_off_c, 3, 67, 64
5, 347448, Note_off_c, 3, 74, 64
5, 347520, Note_on_c, 3, 72, 105
5, 347520, Note_on_c, 3, 64, 105
5, 347688, Note_off_c, 3, 64, 64
5, 347688, Note_off_c, 3, 72, 64
5, 347760, Note_on_c, 3, 76, 105
5, 347760, Note_on_c, 3, 72, 105
5, 347928, Note_off_c, 3, 72, 64
5, 347928, Note_off_c, 3, 76, 64
5, 348000, Note_on_c, 3, 77, 105
5, 348000, Note_on_c, 3, 74, 105
5, 348168, Note_off_c, 3, 74, 64
5, 348168, Note_off_c, 3, 77, 64
5, 348240, Note_on_c, 3, 74, 105
5, 348240, Note_on_c, 3, 67, 105
5, 348408, Note_off_c, 3, 67, 64
5, 348408, Note_off_c, 3, 74, 64
5, 348480, Note_on_c, 3, 64, 105
5, 348480, Note_on_c, 3, 72, 105
5, 348672, Note_off_c, 3, 72, 64
5, 348672, Note_off_c, 3, 64, 64
5, 358080, Note_on_c, 3, 76, 58
5, 358080, Note_on_c, 3, 72, 58
5, 358272, Note_off_c, 3, 72, 64
5, 358272, Note_off_c, 3, 76, 64
5, 358560, Note_on_c, 3, 67, 58
5, 358560, Note_on_c, 3, 74, 58
5, 358752, Note_off_c, 3, 74, 64
5, 358752, Note_off_c, 3, 67, 64
5, 359040, Note_on_c, 3, 72, 58
5, 359040, Note_on_c, 3, 64, 58
5, 359232, Note_off_c, 3, 64, 64
5, 359232, Note_off_c, 3, 72, 64
5, 360000, Note_on_c, 3, 76, 58
5, 360000, Note_on_c, 3, 72, 58
5, 360192, Note_off_c, 3, 72, 64
5, 360192, Note_off_c, 3, 76, 64
5, 360480, Note_on_c, 3, 67, 58
5, 360480, Note_on_c, 3, 74, 58
5, 360672, Note_off_c, 3, 74, 64
5, 360672, Note_off_c, 3, 67, 64
5, 360960, Note_on_c, 3, 64, 58
5, 360960, Note_on_c, 3, 72, 58
5, 361152, Note_off_c, 3, 72, 64
5, 361152, Note_off_c, 3, 64, 64
5, 362880, Note_on_c, 3, 72, 105
5, 362880, Note_on_c, 3, 64, 105
5, 363648, Note_off_c, 3, 64, 64
5, 363840, Note_on_c, 3, 67, 105
5, 364224, Note_off_c, 3, 67, 64
5, 364224, Note_off_c, 3, 72, 64
5, 364320, Note_on_c, 3, 72, 105
5, 364320, Note_on_c, 3, 76, 105
5, 364704, Note_off_c, 3, 76, 64
5, 364704, Note_off_c, 3, 72, 64
5, 364800, Note_on_c, 3, 72, 105
5, 364800, Note_on_c, 3, 74, 105
5, 364992, Note_off_c, 3, 74, 64
5, 364992, Note_off_c, 3, 72, 64
5, 365040, Note_on_c, 3, 72, 105
5, 365040, Note_on_c, 3, 74, 105
5, 365232, Note_off_c, 3, 74, 64
5, 365232, Note_off_c, 3, 72, 64
5, 365280, Note_on_c, 3, 67, 105
5, 365280, Note_on_c, 3, 74, 105
5, 365472, Note_off_c, 3, 74, 64
5, 365472, Note_off_c, 3, 67, 64
5, 365520, Note_on_c, 3, 74, 105
5, 365520, Note_on_c, 3, 67, 105
5, 365712, Note_off_c, 3, 67, 64
5, 365712, Note_off_c, 3, 74, 64
5, 365760, Note_on_c, 3, 72, 105
5, 365760, Note_on_c, 3, 67, 105
5, 366144, Note_off_c, 3, 67, 64
5, 366144, Note_off_c, 3, 72, 64
5, 366240, Note_on_c, 3, 72, 105
5, 366240, Note_on_c, 3, 76, 105
5, 366624, Note_off_c, 3, 76, 64
5, 366624, Note_off_c, 3, 72, 64
5, 366720, Note_on_c, 3, 74, 105
5, 366720, Note_on_c, 3, 72, 105
5, 366912, Note_off_c, 3, 72, 64
5, 366912, Note_off_c, 3, 74, 64
5, 366960, Note_on_c, 3, 72, 105
5, 366960, Note_on_c, 3, 74, 105
5, 367152, Note_off_c, 3, 74, 64
5, 367152, Note_off_c, 3, 72, 64
5, 367200, Note_on_c, 3, 67, 105
5, 367200, Note_on_c, 3, 74, 105
5, 367392, Note_off_c, 3, 74, 64
5, 367392, Note_off_c, 3, 67, 64
5, 367440, Note_on_c, 3, 74, 105
5, 367440, Note_on_c, 3, 67, 105
5, 367632, Note_off_c, 3, 67, 64
5, 367632, Note_off_c, 3, 74, 64
5, 367680, Note_on_c, 3, 64, 105
5, 367680, Note_on_c, 3, 72, 105
5, 367872, Note_off_c, 3, 72, 64
5, 367872, Note_off_c, 3, 64, 64
5, 368160, Note_on_c, 3, 64, 105
5, 368160, Note_on_c, 3, 67, 105
5, 368328, Note_off_c, 3, 67, 64
5, 368328, Note_off_c, 3, 64, 64
5, 368400, Note_on_c, 3, 67, 105
5, 368400, Note_on_c, 3, 64, 105
5, 368568, Note_off_c, 3, 64, 64
5, 368568, Note_off_c, 3, 67, 64
5, 368640, Note_on_c, 3, 67, 105
5, 368640, Note_on_c, 3, 64, 105
5, 368832, Note_off_c, 3, 64, 64
5, 368832, Note_off_c, 3, 67, 64
5, 369120, Note_on_c, 3, 67, 105
5, 369120, Note_on_c, 3, 64, 105
5, 369288, Note_off_c, 3, 64, 64
5, 369288, Note_off_c, 3, 67, 64
5, 369360, Note_on_c, 3, 64, 105
5, 369360, Note_on_c, 3, 67, 105
5, 369528, Note_off_c, 3, 67, 64
5, 369528, Note_off_c, 3, 64, 64
5, 369600, Note_on_c, 3, 67, 105
5, 369600, Note_on_c, 3, 64, 105
5, 369828, Note_off_c, 3, 64, 64
5, 369828, Note_off_c, 3, 67, 64
5, 369828, End_track
6, 0, Start_track
6, 0, Program_c, 4, 47
6, 0, Control_c, 4, 7, 99
6, 0, Control_c, 4, 91, 70
6, 0, Control_c, 4, 10, 56
6, 720, Note_on_c, 4, 48, 105
6, 948, Note_off_c, 4, 48, 64
6, 1650, Note_on_c, 4, 43, 105
6, 1674, Note_off_c, 4, 43, 64
6, 1680, Note_on_c, 4, 43, 105
6, 1920, Note_off_c, 4, 43, 64
6, 2370, Note_on_c, 4, 48, 105
6, 2394, Note_off_c, 4, 48, 64
6, 2400, Note_on_c, 4, 48, 105
6, 2640, Note_off_c, 4, 48, 64
6, 13920, Note_on_c, 4, 43, 116
6, 14148, Note_off_c, 4, 43, 64
6, 24000, Note_on_c, 4, 48, 116
6, 24192, Note_off_c, 4, 48, 64
6, 24960, Note_on_c, 4, 48, 105
6, 25152, Note_off_c, 4, 48, 64
6, 25920, Note_on_c, 4, 48, 105
6, 26112, Note_off_c, 4, 48, 64
6, 26640, Note_on_c, 4, 48, 105
6, 26808, Note_off_c, 4, 48, 64
6, 26880, Note_on_c, 4, 48, 105
6, 27048, Note_off_c, 4, 48, 64
6, 27120, Note_on_c, 4, 48, 105
6, 27288, Note_off_c, 4, 48, 64
6, 27600, Note_on_c, 4, 48, 105
6, 27768, Note_off_c, 4, 48, 64
6, 27840, Note_on_c, 4, 48, 105
6, 28008, Note_off_c, 4, 48, 64
6, 28080, Note_on_c, 4, 48, 105
6, 28248, Note_off_c, 4, 48, 64
6, 28560, Note_on_c, 4, 48, 105
6, 28728, Note_off_c, 4, 48, 64
6, 28800, Note_on_c, 4, 48, 105
6, 28968, Note_off_c, 4, 48, 64
6, 29040, Note_on_c, 4, 48, 105
6, 29208, Note_off_c, 4, 48, 64
6, 29280, Note_on_c, 4, 48, 105
6, 29448, Note_off_c, 4, 48, 64
6, 29520, Note_on_c, 4, 48, 105
6, 29688, Note_off_c, 4, 48, 64
6, 29760, Note_on_c, 4, 48, 105
6, 29928, Note_off_c, 4, 48, 64
6, 30000, Note_on_c, 4, 48, 105
6, 30168, Note_off_c, 4, 48, 64
6, 35520, Note_on_c, 4, 48, 105
6, 35688, Note_off_c, 4, 48, 64
6, 35760, Note_on_c, 4, 48, 105
6, 35886, Note_off_c, 4, 48, 64
6, 35940, Note_on_c, 4, 48, 105
6, 35982, Note_off_c, 4, 48, 64
6, 36000, Note_on_c, 4, 48, 105
6, 36168, Note_off_c, 4, 48, 64
6, 36240, Note_on_c, 4, 48, 105
6, 36408, Note_off_c, 4, 48, 64
6, 36480, Note_on_c, 4, 43, 105
6, 36648, Note_off_c, 4, 43, 64
6, 36720, Note_on_c, 4, 43, 105
6, 36846, Note_off_c, 4, 43, 64
6, 36900, Note_on_c, 4, 43, 105
6, 36942, Note_off_c, 4, 43, 64
6, 36960, Note_on_c, 4, 43, 105
6, 37128, Note_off_c, 4, 43, 64
6, 37200, Note_on_c, 4, 43, 105
6, 37368, Note_off_c, 4, 43, 64
6, 37440, Note_on_c, 4, 48, 105
6, 37632, Note_off_c, 4, 48, 64
6, 37920, Note_on_c, 4, 48, 105
6, 38112, Note_off_c, 4, 48, 64
6, 38880, Note_on_c, 4, 43, 105
6, 39072, Note_off_c, 4, 43, 64
6, 39120, Note_on_c, 4, 43, 105
6, 39312, Note_off_c, 4, 43, 64
6, 39360, Note_on_c, 4, 48, 105
6, 39528, Note_off_c, 4, 48, 64
6, 39600, Note_on_c, 4, 48, 105
6, 39726, Note_off_c, 4, 48, 64
6, 39780, Note_on_c, 4, 48, 105
6, 39822, Note_off_c, 4, 48, 64
6, 39840, Note_on_c, 4, 48, 105
6, 40008, Note_off_c, 4, 48, 64
6, 40080, Note_on_c, 4, 48, 105
6, 40248, Note_off_c, 4, 48, 64
6, 40320, Note_on_c, 4, 43, 105
6, 40488, Note_off_c, 4, 43, 64
6, 40560, Note_on_c, 4, 43, 105
6, 40686, Note_off_c, 4, 43, 64
6, 40740, Note_on_c, 4, 43, 105
6, 40782, Note_off_c, 4, 43, 64
6, 40800, Note_on_c, 4, 43, 105
6, 40968, Note_off_c, 4, 43, 64
6, 41040, Note_on_c, 4, 43, 105
6, 41208, Note_off_c, 4, 43, 64
6, 41280, Note_on_c, 4, 48, 105
6, 41472, Note_off_c, 4, 48, 64
6, 46080, Note_on_c, 4, 43, 105
6, 46272, Note_off_c, 4, 43, 64
6, 48000, Note_on_c, 4, 43, 105
6, 48192, Note_off_c, 4, 43, 64
6, 50880, Note_on_c, 4, 48, 105
6, 51072, Note_off_c, 4, 48, 64
6, 51840, Note_on_c, 4, 48, 105
6, 52032, Note_off_c, 4, 48, 64
6, 75360, Note_on_c, 4, 48, 105
6, 75504, Note_off_c, 4, 48, 64
6, 75600, Note_on_c, 4, 48, 105
6, 75744, Note_off_c, 4, 48, 64
6, 75840, Note_on_c, 4, 48, 105
6, 76032, Note_off_c, 4, 48, 64
6, 76320, Note_on_c, 4, 43, 105
6, 76512, Note_off_c, 4, 43, 64
6, 76800, Note_on_c, 4, 48, 105
6, 76992, Note_off_c, 4, 48, 64
6, 78720, Note_on_c, 4, 43, 105
6, 78912, Note_off_c, 4, 43, 64
6, 82560, Note_on_c, 4, 43, 105
6, 82752, Note_off_c, 4, 43, 64
6, 86400, Note_on_c, 4, 43, 105
6, 86592, Note_off_c, 4, 43, 64
6, 86640, Note_on_c, 4, 43, 105
6, 86736, Note_off_c, 4, 43, 64
6, 86760, Note_on_c, 4, 43, 105
6, 86856, Note_off_c, 4, 43, 64
6, 86880, Note_on_c, 4, 43, 105
6, 87072, Note_off_c, 4, 43, 64
6, 87360, Note_on_c, 4, 43, 105
6, 87552, Note_off_c, 4, 43, 64
6, 87600, Note_on_c, 4, 43, 105
6, 87696, Note_off_c, 4, 43, 64
6, 87720, Note_on_c, 4, 43, 105
6, 87816, Note_off_c, 4, 43, 64
6, 87840, Note_on_c, 4, 43, 105
6, 88032, Note_off_c, 4, 43, 64
6, 88320, Note_on_c, 4, 43, 105
6, 88512, Note_off_c, 4, 43, 64
6, 88560, Note_on_c, 4, 43, 105
6, 88656, Note_off_c, 4, 43, 64
6, 88680, Note_on_c, 4, 43, 105
6, 88776, Note_off_c, 4, 43, 64
6, 88800, Note_on_c, 4, 43, 105
6, 88992, Note_off_c, 4, 43, 64
6, 89280, Note_on_c, 4, 48, 105
6, 89472, Note_off_c, 4, 48, 64
6, 89760, Note_on_c, 4, 48, 105
6, 89952, Note_off_c, 4, 48, 64
6, 90000, Note_on_c, 4, 48, 105
6, 90192, Note_off_c, 4, 48, 64
6, 90240, Note_on_c, 4, 48, 105
6, 90384, Note_off_c, 4, 48, 64
6, 90480, Note_on_c, 4, 48, 105
6, 90624, Note_off_c, 4, 48, 64
6, 92160, Note_on_c, 4, 43, 105
6, 92352, Note_off_c, 4, 43, 64
6, 92400, Note_on_c, 4, 43, 105
6, 92496, Note_off_c, 4, 43, 64
6, 92520, Note_on_c, 4, 43, 105
6, 92616, Note_off_c, 4, 43, 64
6, 92640, Note_on_c, 4, 43, 105
6, 92832, Note_off_c, 4, 43, 64
6, 93120, Note_on_c, 4, 43, 105
6, 93312, Note_off_c, 4, 43, 64
6, 93360, Note_on_c, 4, 43, 105
6, 93456, Note_off_c, 4, 43, 64
6, 93480, Note_on_c, 4, 43, 105
6, 93576, Note_off_c, 4, 43, 64
6, 93600, Note_on_c, 4, 43, 105
6, 93792, Note_off_c, 4, 43, 64
6, 94080, Note_on_c, 4, 43, 105
6, 94272, Note_off_c, 4, 43, 64
6, 94320, Note_on_c, 4, 43, 105
6, 94416, Note_off_c, 4, 43, 64
6, 94440, Note_on_c, 4, 43, 105
6, 94536, Note_off_c, 4, 43, 64
6, 94560, Note_on_c, 4, 43, 105
6, 94752, Note_off_c, 4, 43, 64
6, 95040, Note_on_c, 4, 48, 105
6, 95232, Note_off_c, 4, 48, 64
6, 95520, Note_on_c, 4, 48, 105
6, 95712, Note_off_c, 4, 48, 64
6, 95760, Note_on_c, 4, 48, 105
6, 95952, Note_off_c, 4, 48, 64
6, 96000, Note_on_c, 4, 48, 105
6, 96144, Note_off_c, 4, 48, 64
6, 96240, Note_on_c, 4, 48, 105
6, 96384, Note_off_c, 4, 48, 64
6, 101760, Note_on_c, 4, 43, 105
6, 101952, Note_off_c, 4, 43, 64
6, 102720, Note_on_c, 4, 43, 105
6, 102912, Note_off_c, 4, 43, 64
6, 103680, Note_on_c, 4, 43, 105
6, 103872, Note_off_c, 4, 43, 64
6, 104640, Note_on_c, 4, 43, 105
6, 104832, Note_off_c, 4, 43, 64
6, 105600, Note_on_c, 4, 43, 105
6, 105792, Note_off_c, 4, 43, 64
6, 106080, Note_on_c, 4, 43, 105
6, 106272, Note_off_c, 4, 43, 64
6, 106320, Note_on_c, 4, 43, 105
6, 106512, Note_off_c, 4, 43, 64
6, 106560, Note_on_c, 4, 43, 105
6, 106752, Note_off_c, 4, 43, 64
6, 109440, Note_on_c, 4, 43, 105
6, 109632, Note_off_c, 4, 43, 64
6, 122880, Note_on_c, 4, 48, 105
6, 123072, Note_off_c, 4, 48, 64
6, 123840, Note_on_c, 4, 48, 105
6, 124032, Note_off_c, 4, 48, 64
6, 124800, Note_on_c, 4, 48, 105
6, 124992, Note_off_c, 4, 48, 64
6, 125520, Note_on_c, 4, 48, 105
6, 125688, Note_off_c, 4, 48, 64
6, 125760, Note_on_c, 4, 48, 105
6, 125928, Note_off_c, 4, 48, 64
6, 126000, Note_on_c, 4, 48, 105
6, 126168, Note_off_c, 4, 48, 64
6, 126480, Note_on_c, 4, 48, 105
6, 126648, Note_off_c, 4, 48, 64
6, 126720, Note_on_c, 4, 48, 105
6, 126888, Note_off_c, 4, 48, 64
6, 126960, Note_on_c, 4, 48, 105
6, 127128, Note_off_c, 4, 48, 64
6, 127440, Note_on_c, 4, 48, 105
6, 127608, Note_off_c, 4, 48, 64
6, 127680, Note_on_c, 4, 48, 105
6, 127848, Note_off_c, 4, 48, 64
6, 127920, Note_on_c, 4, 48, 105
6, 128088, Note_off_c, 4, 48, 64
6, 128160, Note_on_c, 4, 48, 105
6, 128328, Note_off_c, 4, 48, 64
6, 128400, Note_on_c, 4, 48, 105
6, 128568, Note_off_c, 4, 48, 64
6, 128640, Note_on_c, 4, 48, 105
6, 128808, Note_off_c, 4, 48, 64
6, 128880, Note_on_c, 4, 48, 105
6, 129048, Note_off_c, 4, 48, 64
6, 134400, Note_on_c, 4, 48, 105
6, 134568, Note_off_c, 4, 48, 64
6, 134640, Note_on_c, 4, 48, 105
6, 134766, Note_off_c, 4, 48, 64
6, 134820, Note_on_c, 4, 48, 105
6, 134862, Note_off_c, 4, 48, 64
6, 134880, Note_on_c, 4, 48, 105
6, 135048, Note_off_c, 4, 48, 64
6, 135120, Note_on_c, 4, 48, 105
6, 135288, Note_off_c, 4, 48, 64
6, 135360, Note_on_c, 4, 43, 105
6, 135528, Note_off_c, 4, 43, 64
6, 135600, Note_on_c, 4, 43, 105
6, 135726, Note_off_c, 4, 43, 64
6, 135780, Note_on_c, 4, 43, 105
6, 135822, Note_off_c, 4, 43, 64
6, 135840, Note_on_c, 4, 43, 105
6, 136008, Note_off_c, 4, 43, 64
6, 136080, Note_on_c, 4, 43, 105
6, 136248, Note_off_c, 4, 43, 64
6, 136320, Note_on_c, 4, 48, 105
6, 136512, Note_off_c, 4, 48, 64
6, 136800, Note_on_c, 4, 48, 105
6, 136992, Note_off_c, 4, 48, 64
6, 137760, Note_on_c, 4, 43, 105
6, 137952, Note_off_c, 4, 43, 64
6, 138000, Note_on_c, 4, 43, 105
6, 138192, Note_off_c, 4, 43, 64
6, 138240, Note_on_c, 4, 48, 105
6, 138408, Note_off_c, 4, 48, 64
6, 138480, Note_on_c, 4, 48, 105
6, 138606, Note_off_c, 4, 48, 64
6, 138660, Note_on_c, 4, 48, 105
6, 138702, Note_off_c, 4, 48, 64
6, 138720, Note_on_c, 4, 48, 105
6, 138888, Note_off_c, 4, 48, 64
6, 138960, Note_on_c, 4, 48, 105
6, 139128, Note_off_c, 4, 48, 64
6, 139200, Note_on_c, 4, 43, 105
6, 139368, Note_off_c, 4, 43, 64
6, 139440, Note_on_c, 4, 43, 105
6, 139566, Note_off_c, 4, 43, 64
6, 139620, Note_on_c, 4, 43, 105
6, 139662, Note_off_c, 4, 43, 64
6, 139680, Note_on_c, 4, 43, 105
6, 139848, Note_off_c, 4, 43, 64
6, 139920, Note_on_c, 4, 43, 105
6, 140088, Note_off_c, 4, 43, 64
6, 140160, Note_on_c, 4, 48, 105
6, 140352, Note_off_c, 4, 48, 64
6, 144960, Note_on_c, 4, 43, 105
6, 145152, Note_off_c, 4, 43, 64
6, 146880, Note_on_c, 4, 43, 105
6, 147072, Note_off_c, 4, 43, 64
6, 149760, Note_on_c, 4, 48, 105
6, 149952, Note_off_c, 4, 48, 64
6, 150720, Note_on_c, 4, 48, 105
6, 150912, Note_off_c, 4, 48, 64
6, 174240, Note_on_c, 4, 48, 105
6, 174384, Note_off_c, 4, 48, 64
6, 174480, Note_on_c, 4, 48, 105
6, 174624, Note_off_c, 4, 48, 64
6, 174720, Note_on_c, 4, 48, 105
6, 174912, Note_off_c, 4, 48, 64
6, 175200, Note_on_c, 4, 43, 105
6, 175392, Note_off_c, 4, 43, 64
6, 175680, Note_on_c, 4, 48, 105
6, 175872, Note_off_c, 4, 48, 64
6, 177600, Note_on_c, 4, 43, 105
6, 177792, Note_off_c, 4, 43, 64
6, 181440, Note_on_c, 4, 43, 105
6, 181632, Note_off_c, 4, 43, 64
6, 185280, Note_on_c, 4, 43, 105
6, 185472, Note_off_c, 4, 43, 64
6, 185520, Note_on_c, 4, 43, 105
6, 185616, Note_off_c, 4, 43, 64
6, 185640, Note_on_c, 4, 43, 105
6, 185736, Note_off_c, 4, 43, 64
6, 185760, Note_on_c, 4, 43, 105
6, 185952, Note_off_c, 4, 43, 64
6, 186240, Note_on_c, 4, 43, 105
6, 186432, Note_off_c, 4, 43, 64
6, 186480, Note_on_c, 4, 43, 105
6, 186576, Note_off_c, 4, 43, 64
6, 186600, Note_on_c, 4, 43, 105
6, 186696, Note_off_c, 4, 43, 64
6, 186720, Note_on_c, 4, 43, 105
6, 186912, Note_off_c, 4, 43, 64
6, 187200, Note_on_c, 4, 43, 105
6, 187392, Note_off_c, 4, 43, 64
6, 187440, Note_on_c, 4, 43, 105
6, 187536, Note_off_c, 4, 43, 64
6, 187560, Note_on_c, 4, 43, 105
6, 187656, Note_off_c, 4, 43, 64
6, 187680, Note_on_c, 4, 43, 105
6, 187872, Note_off_c, 4, 43, 64
6, 188160, Note_on_c, 4, 48, 105
6, 188352, Note_off_c, 4, 48, 64
6, 188640, Note_on_c, 4, 48, 105
6, 188832, Note_off_c, 4, 48, 64
6, 188880, Note_on_c, 4, 48, 105
6, 189072, Note_off_c, 4, 48, 64
6, 189120, Note_on_c, 4, 48, 105
6, 189264, Note_off_c, 4, 48, 64
6, 189360, Note_on_c, 4, 48, 105
6, 189504, Note_off_c, 4, 48, 64
6, 191040, Note_on_c, 4, 43, 105
6, 191232, Note_off_c, 4, 43, 64
6, 191280, Note_on_c, 4, 43, 105
6, 191376, Note_off_c, 4, 43, 64
6, 191400, Note_on_c, 4, 43, 105
6, 191496, Note_off_c, 4, 43, 64
6, 191520, Note_on_c, 4, 43, 105
6, 191712, Note_off_c, 4, 43, 64
6, 192000, Note_on_c, 4, 43, 105
6, 192192, Note_off_c, 4, 43, 64
6, 192240, Note_on_c, 4, 43, 105
6, 192336, Note_off_c, 4, 43, 64
6, 192360, Note_on_c, 4, 43, 105
6, 192456, Note_off_c, 4, 43, 64
6, 192480, Note_on_c, 4, 43, 105
6, 192672, Note_off_c, 4, 43, 64
6, 192960, Note_on_c, 4, 43, 105
6, 193152, Note_off_c, 4, 43, 64
6, 193200, Note_on_c, 4, 43, 105
6, 193296, Note_off_c, 4, 43, 64
6, 193320, Note_on_c, 4, 43, 105
6, 193416, Note_off_c, 4, 43, 64
6, 193440, Note_on_c, 4, 43, 105
6, 193632, Note_off_c, 4, 43, 64
6, 193920, Note_on_c, 4, 48, 105
6, 194112, Note_off_c, 4, 48, 64
6, 194400, Note_on_c, 4, 48, 105
6, 194592, Note_off_c, 4, 48, 64
6, 194640, Note_on_c, 4, 48, 105
6, 194832, Note_off_c, 4, 48, 64
6, 194880, Note_on_c, 4, 48, 105
6, 195024, Note_off_c, 4, 48, 64
6, 195120, Note_on_c, 4, 48, 105
6, 195264, Note_off_c, 4, 48, 64
6, 200640, Note_on_c, 4, 43, 105
6, 200832, Note_off_c, 4, 43, 64
6, 201600, Note_on_c, 4, 43, 105
6, 201792, Note_off_c, 4, 43, 64
6, 202560, Note_on_c, 4, 43, 105
6, 202752, Note_off_c, 4, 43, 64
6, 203520, Note_on_c, 4, 43, 105
6, 203712, Note_off_c, 4, 43, 64
6, 204480, Note_on_c, 4, 43, 105
6, 204672, Note_off_c, 4, 43, 64
6, 204960, Note_on_c, 4, 43, 105
6, 205152, Note_off_c, 4, 43, 64
6, 205200, Note_on_c, 4, 43, 105
6, 205392, Note_off_c, 4, 43, 64
6, 205440, Note_on_c, 4, 43, 105
6, 205632, Note_off_c, 4, 43, 64
6, 208320, Note_on_c, 4, 43, 105
6, 208512, Note_off_c, 4, 43, 64
6, 228480, Note_on_c, 4, 48, 105
6, 228672, Note_off_c, 4, 48, 64
6, 228720, Note_on_c, 4, 48, 105
6, 228864, Note_off_c, 4, 48, 64
6, 228900, Note_on_c, 4, 48, 105
6, 228948, Note_off_c, 4, 48, 64
6, 228960, Note_on_c, 4, 48, 105
6, 229152, Note_off_c, 4, 48, 64
6, 229200, Note_on_c, 4, 48, 105
6, 229392, Note_off_c, 4, 48, 64
6, 229440, Note_on_c, 4, 48, 105
6, 229488, Note_off_c, 4, 48, 64
6, 229500, Note_on_c, 4, 48, 105
6, 229548, Note_off_c, 4, 48, 64
6, 229560, Note_on_c, 4, 48, 105
6, 229608, Note_off_c, 4, 48, 64
6, 229620, Note_on_c, 4, 48, 105
6, 229668, Note_off_c, 4, 48, 64
6, 229680, Note_on_c, 4, 48, 105
6, 229728, Note_off_c, 4, 48, 64
6, 229740, Note_on_c, 4, 48, 105
6, 229788, Note_off_c, 4, 48, 64
6, 229800, Note_on_c, 4, 48, 105
6, 229848, Note_off_c, 4, 48, 64
6, 229860, Note_on_c, 4, 48, 105
6, 229908, Note_off_c, 4, 48, 64
6, 229920, Note_on_c, 4, 48, 105
6, 229968, Note_off_c, 4, 48, 64
6, 229980, Note_on_c, 4, 48, 105
6, 230028, Note_off_c, 4, 48, 64
6, 230040, Note_on_c, 4, 48, 105
6, 230088, Note_off_c, 4, 48, 64
6, 230100, Note_on_c, 4, 48, 105
6, 230148, Note_off_c, 4, 48, 64
6, 230160, Note_on_c, 4, 48, 105
6, 230208, Note_off_c, 4, 48, 64
6, 230220, Note_on_c, 4, 48, 105
6, 230268, Note_off_c, 4, 48, 64
6, 230280, Note_on_c, 4, 48, 105
6, 230328, Note_off_c, 4, 48, 64
6, 230340, Note_on_c, 4, 48, 105
6, 230388, Note_off_c, 4, 48, 64
6, 230400, Note_on_c, 4, 48, 105
6, 230592, Note_off_c, 4, 48, 64
6, 230640, Note_on_c, 4, 48, 105
6, 230736, Note_off_c, 4, 48, 64
6, 230760, Note_on_c, 4, 48, 105
6, 230856, Note_off_c, 4, 48, 64
6, 230880, Note_on_c, 4, 48, 105
6, 231072, Note_off_c, 4, 48, 64
6, 231120, Note_on_c, 4, 48, 105
6, 231216, Note_off_c, 4, 48, 64
6, 231240, Note_on_c, 4, 48, 105
6, 231336, Note_off_c, 4, 48, 64
6, 231360, Note_on_c, 4, 48, 105
6, 231552, Note_off_c, 4, 48, 64
6, 231600, Note_on_c, 4, 48, 105
6, 231696, Note_off_c, 4, 48, 64
6, 231720, Note_on_c, 4, 48, 105
6, 231816, Note_off_c, 4, 48, 64
6, 231840, Note_on_c, 4, 48, 105
6, 232032, Note_off_c, 4, 48, 64
6, 232080, Note_on_c, 4, 48, 105
6, 232176, Note_off_c, 4, 48, 64
6, 232200, Note_on_c, 4, 48, 105
6, 232296, Note_off_c, 4, 48, 64
6, 232320, Note_on_c, 4, 48, 105
6, 232512, Note_off_c, 4, 48, 64
6, 240240, Note_on_c, 4, 43, 105
6, 240384, Note_off_c, 4, 43, 64
6, 240420, Note_on_c, 4, 43, 105
6, 240468, Note_off_c, 4, 43, 64
6, 240480, Note_on_c, 4, 43, 105
6, 240672, Note_off_c, 4, 43, 64
6, 241200, Note_on_c, 4, 43, 105
6, 241344, Note_off_c, 4, 43, 64
6, 241380, Note_on_c, 4, 43, 105
6, 241428, Note_off_c, 4, 43, 64
6, 241440, Note_on_c, 4, 43, 105
6, 241632, Note_off_c, 4, 43, 64
6, 242160, Note_on_c, 4, 43, 105
6, 242304, Note_off_c, 4, 43, 64
6, 242340, Note_on_c, 4, 43, 105
6, 242388, Note_off_c, 4, 43, 64
6, 242400, Note_on_c, 4, 43, 105
6, 242592, Note_off_c, 4, 43, 64
6, 243120, Note_on_c, 4, 43, 105
6, 243264, Note_off_c, 4, 43, 64
6, 243300, Note_on_c, 4, 43, 105
6, 243348, Note_off_c, 4, 43, 64
6, 243360, Note_on_c, 4, 43, 105
6, 243552, Note_off_c, 4, 43, 64
6, 243840, Note_on_c, 4, 43, 105
6, 244032, Note_off_c, 4, 43, 64
6, 244080, Note_on_c, 4, 48, 105
6, 244272, Note_off_c, 4, 48, 64
6, 244320, Note_on_c, 4, 43, 105
6, 244512, Note_off_c, 4, 43, 64
6, 244560, Note_on_c, 4, 48, 105
6, 244752, Note_off_c, 4, 48, 64
6, 244800, Note_on_c, 4, 43, 105
6, 244992, Note_off_c, 4, 43, 64
6, 245040, Note_on_c, 4, 48, 105
6, 245232, Note_off_c, 4, 48, 64
6, 245280, Note_on_c, 4, 43, 105
6, 245472, Note_off_c, 4, 43, 64
6, 245520, Note_on_c, 4, 48, 105
6, 245712, Note_off_c, 4, 48, 64
6, 245760, Note_on_c, 4, 43, 105
6, 245952, Note_off_c, 4, 43, 64
6, 260160, Note_on_c, 4, 48, 105
6, 260352, Note_off_c, 4, 48, 64
6, 261120, Note_on_c, 4, 48, 105
6, 261312, Note_off_c, 4, 48, 64
6, 262080, Note_on_c, 4, 48, 105
6, 262272, Note_off_c, 4, 48, 64
6, 262800, Note_on_c, 4, 48, 105
6, 262968, Note_off_c, 4, 48, 64
6, 263040, Note_on_c, 4, 48, 105
6, 263208, Note_off_c, 4, 48, 64
6, 263280, Note_on_c, 4, 48, 105
6, 263448, Note_off_c, 4, 48, 64
6, 263760, Note_on_c, 4, 48, 105
6, 263928, Note_off_c, 4, 48, 64
6, 264000, Note_on_c, 4, 48, 105
6, 264168, Note_off_c, 4, 48, 64
6, 264240, Note_on_c, 4, 48, 105
6, 264408, Note_off_c, 4, 48, 64
6, 264720, Note_on_c, 4, 48, 105
6, 264888, Note_off_c, 4, 48, 64
6, 264960, Note_on_c, 4, 48, 105
6, 265128, Note_off_c, 4, 48, 64
6, 265200, Note_on_c, 4, 48, 105
6, 265368, Note_off_c, 4, 48, 64
6, 265440, Note_on_c, 4, 48, 105
6, 265608, Note_off_c, 4, 48, 64
6, 265680, Note_on_c, 4, 48, 105
6, 265848, Note_off_c, 4, 48, 64
6, 265920, Note_on_c, 4, 48, 105
6, 266088, Note_off_c, 4, 48, 64
6, 266160, Note_on_c, 4, 48, 105
6, 266328, Note_off_c, 4, 48, 64
6, 271680, Note_on_c, 4, 48, 105
6, 271848, Note_off_c, 4, 48, 64
6, 271920, Note_on_c, 4, 48, 105
6, 272046, Note_off_c, 4, 48, 64
6, 272100, Note_on_c, 4, 48, 105
6, 272142, Note_off_c, 4, 48, 64
6, 272160, Note_on_c, 4, 48, 105
6, 272328, Note_off_c, 4, 48, 64
6, 272400, Note_on_c, 4, 48, 105
6, 272568, Note_off_c, 4, 48, 64
6, 272640, Note_on_c, 4, 43, 105
6, 272808, Note_off_c, 4, 43, 64
6, 272880, Note_on_c, 4, 43, 105
6, 273006, Note_off_c, 4, 43, 64
6, 273060, Note_on_c, 4, 43, 105
6, 273102, Note_off_c, 4, 43, 64
6, 273120, Note_on_c, 4, 43, 105
6, 273288, Note_off_c, 4, 43, 64
6, 273360, Note_on_c, 4, 43, 105
6, 273528, Note_off_c, 4, 43, 64
6, 273600, Note_on_c, 4, 48, 105
6, 273792, Note_off_c, 4, 48, 64
6, 274080, Note_on_c, 4, 48, 105
6, 274272, Note_off_c, 4, 48, 64
6, 275040, Note_on_c, 4, 43, 105
6, 275232, Note_off_c, 4, 43, 64
6, 275280, Note_on_c, 4, 43, 105
6, 275472, Note_off_c, 4, 43, 64
6, 275520, Note_on_c, 4, 48, 105
6, 275688, Note_off_c, 4, 48, 64
6, 275760, Note_on_c, 4, 48, 105
6, 275886, Note_off_c, 4, 48, 64
6, 275940, Note_on_c, 4, 48, 105
6, 275982, Note_off_c, 4, 48, 64
6, 276000, Note_on_c, 4, 48, 105
6, 276168, Note_off_c, 4, 48, 64
6, 276240, Note_on_c, 4, 48, 105
6, 276408, Note_off_c, 4, 48, 64
6, 276480, Note_on_c, 4, 43, 105
6, 276648, Note_off_c, 4, 43, 64
6, 276720, Note_on_c, 4, 43, 105
6, 276846, Note_off_c, 4, 43, 64
6, 276900, Note_on_c, 4, 43, 105
6, 276942, Note_off_c, 4, 43, 64
6, 276960, Note_on_c, 4, 43, 105
6, 277128, Note_off_c, 4, 43, 64
6, 277200, Note_on_c, 4, 43, 105
6, 277368, Note_off_c, 4, 43, 64
6, 277440, Note_on_c, 4, 48, 105
6, 277632, Note_off_c, 4, 48, 64
6, 278400, Note_on_c, 4, 48, 105
6, 278592, Note_off_c, 4, 48, 64
6, 279360, Note_on_c, 4, 43, 105
6, 279552, Note_off_c, 4, 43, 64
6, 280320, Note_on_c, 4, 48, 105
6, 280512, Note_off_c, 4, 48, 64
6, 281280, Note_on_c, 4, 48, 105
6, 281472, Note_off_c, 4, 48, 64
6, 283200, Note_on_c, 4, 48, 105
6, 283392, Note_off_c, 4, 48, 64
6, 283440, Note_on_c, 4, 48, 105
6, 283584, Note_off_c, 4, 48, 64
6, 283620, Note_on_c, 4, 48, 105
6, 283668, Note_off_c, 4, 48, 64
6, 283680, Note_on_c, 4, 48, 105
6, 283872, Note_off_c, 4, 48, 64
6, 283920, Note_on_c, 4, 48, 105
6, 284112, Note_off_c, 4, 48, 64
6, 284160, Note_on_c, 4, 48, 105
6, 284352, Note_off_c, 4, 48, 64
6, 284400, Note_on_c, 4, 48, 105
6, 284496, Note_off_c, 4, 48, 64
6, 284520, Note_on_c, 4, 48, 105
6, 284616, Note_off_c, 4, 48, 64
6, 284640, Note_on_c, 4, 48, 105
6, 284832, Note_off_c, 4, 48, 64
6, 286080, Note_on_c, 4, 48, 105
6, 286272, Note_off_c, 4, 48, 64
6, 286320, Note_on_c, 4, 48, 105
6, 286416, Note_off_c, 4, 48, 64
6, 286440, Note_on_c, 4, 48, 105
6, 286536, Note_off_c, 4, 48, 64
6, 286560, Note_on_c, 4, 48, 105
6, 286752, Note_off_c, 4, 48, 64
6, 288000, Note_on_c, 4, 48, 105
6, 288192, Note_off_c, 4, 48, 64
6, 288960, Note_on_c, 4, 48, 105
6, 289152, Note_off_c, 4, 48, 64
6, 290880, Note_on_c, 4, 48, 105
6, 291072, Note_off_c, 4, 48, 64
6, 291120, Note_on_c, 4, 48, 105
6, 291264, Note_off_c, 4, 48, 64
6, 291300, Note_on_c, 4, 48, 105
6, 291348, Note_off_c, 4, 48, 64
6, 291360, Note_on_c, 4, 48, 105
6, 291552, Note_off_c, 4, 48, 64
6, 291600, Note_on_c, 4, 48, 105
6, 291792, Note_off_c, 4, 48, 64
6, 291840, Note_on_c, 4, 48, 105
6, 292032, Note_off_c, 4, 48, 64
6, 292800, Note_on_c, 4, 43, 105
6, 292992, Note_off_c, 4, 43, 64
6, 293040, Note_on_c, 4, 43, 105
6, 293184, Note_off_c, 4, 43, 64
6, 293220, Note_on_c, 4, 43, 105
6, 293268, Note_off_c, 4, 43, 64
6, 293280, Note_on_c, 4, 43, 105
6, 293472, Note_off_c, 4, 43, 64
6, 293520, Note_on_c, 4, 43, 105
6, 293712, Note_off_c, 4, 43, 64
6, 293760, Note_on_c, 4, 48, 105
6, 293952, Note_off_c, 4, 48, 64
6, 314400, Note_on_c, 4, 48, 105
6, 314592, Note_off_c, 4, 48, 64
6, 314640, Note_on_c, 4, 48, 105
6, 314832, Note_off_c, 4, 48, 64
6, 314880, Note_on_c, 4, 48, 105
6, 315072, Note_off_c, 4, 48, 64
6, 315360, Note_on_c, 4, 48, 105
6, 315552, Note_off_c, 4, 48, 64
6, 315840, Note_on_c, 4, 48, 105
6, 316032, Note_off_c, 4, 48, 64
6, 316080, Note_on_c, 4, 48, 105
6, 316176, Note_off_c, 4, 48, 64
6, 316200, Note_on_c, 4, 48, 105
6, 316296, Note_off_c, 4, 48, 64
6, 316320, Note_on_c, 4, 48, 105
6, 316512, Note_off_c, 4, 48, 64
6, 316800, Note_on_c, 4, 43, 105
6, 316992, Note_off_c, 4, 43, 64
6, 317040, Note_on_c, 4, 43, 105
6, 317136, Note_off_c, 4, 43, 64
6, 317160, Note_on_c, 4, 43, 105
6, 317256, Note_off_c, 4, 43, 64
6, 317280, Note_on_c, 4, 43, 105
6, 317472, Note_off_c, 4, 43, 64
6, 317520, Note_on_c, 4, 43, 105
6, 317712, Note_off_c, 4, 43, 64
6, 317760, Note_on_c, 4, 48, 105
6, 317952, Note_off_c, 4, 48, 64
6, 319680, Note_on_c, 4, 43, 105
6, 319872, Note_off_c, 4, 43, 64
6, 320160, Note_on_c, 4, 43, 105
6, 320352, Note_off_c, 4, 43, 64
6, 320640, Note_on_c, 4, 48, 105
6, 320832, Note_off_c, 4, 48, 64
6, 320880, Note_on_c, 4, 48, 105
6, 321072, Note_off_c, 4, 48, 64
6, 321120, Note_on_c, 4, 48, 105
6, 321312, Note_off_c, 4, 48, 64
6, 321360, Note_on_c, 4, 43, 105
6, 321552, Note_off_c, 4, 43, 64
6, 321600, Note_on_c, 4, 48, 105
6, 321792, Note_off_c, 4, 48, 64
6, 323520, Note_on_c, 4, 43, 105
6, 323712, Note_off_c, 4, 43, 64
6, 324000, Note_on_c, 4, 43, 105
6, 324192, Note_off_c, 4, 43, 64
6, 324480, Note_on_c, 4, 48, 105
6, 324672, Note_off_c, 4, 48, 64
6, 325200, Note_on_c, 4, 43, 105
6, 325392, Note_off_c, 4, 43, 64
6, 325440, Note_on_c, 4, 48, 105
6, 325632, Note_off_c, 4, 48, 64
6, 325680, Note_on_c, 4, 48, 105
6, 325776, Note_off_c, 4, 48, 64
6, 325800, Note_on_c, 4, 48, 105
6, 325896, Note_off_c, 4, 48, 64
6, 325920, Note_on_c, 4, 48, 105
6, 326112, Note_off_c, 4, 48, 64
6, 326400, Note_on_c, 4, 48, 105
6, 326592, Note_off_c, 4, 48, 64
6, 326640, Note_on_c, 4, 48, 105
6, 326736, Note_off_c, 4, 48, 64
6, 326760, Note_on_c, 4, 48, 105
6, 326856, Note_off_c, 4, 48, 64
6, 326880, Note_on_c, 4, 48, 105
6, 327072, Note_off_c, 4, 48, 64
6, 327360, Note_on_c, 4, 48, 105
6, 327552, Note_off_c, 4, 48, 64
6, 327600, Note_on_c, 4, 48, 105
6, 327696, Note_off_c, 4, 48, 64
6, 327720, Note_on_c, 4, 48, 105
6, 327816, Note_off_c, 4, 48, 64
6, 327840, Note_on_c, 4, 48, 105
6, 328032, Note_off_c, 4, 48, 64
6, 328320, Note_on_c, 4, 48, 105
6, 328512, Note_off_c, 4, 48, 64
6, 329280, Note_on_c, 4, 43, 105
6, 329424, Note_off_c, 4, 43, 64
6, 329520, Note_on_c, 4, 43, 105
6, 329664, Note_off_c, 4, 43, 64
6, 330480, Note_on_c, 4, 48, 105
6, 330636, Note_off_c, 4, 48, 64
6, 330720, Note_on_c, 4, 43, 105
6, 330876, Note_off_c, 4, 43, 64
6, 330960, Note_on_c, 4, 43, 105
6, 331116, Note_off_c, 4, 43, 64
6, 331200, Note_on_c, 4, 48, 105
6, 331392, Note_off_c, 4, 48, 64
6, 331440, Note_on_c, 4, 48, 105
6, 331536, Note_off_c, 4, 48, 64
6, 331560, Note_on_c, 4, 48, 105
6, 331656, Note_off_c, 4, 48, 64
6, 331680, Note_on_c, 4, 48, 105
6, 331872, Note_off_c, 4, 48, 64
6, 332160, Note_on_c, 4, 48, 105
6, 332352, Note_off_c, 4, 48, 64
6, 332400, Note_on_c, 4, 48, 105
6, 332496, Note_off_c, 4, 48, 64
6, 332520, Note_on_c, 4, 48, 105
6, 332616, Note_off_c, 4, 48, 64
6, 332640, Note_on_c, 4, 48, 105
6, 332832, Note_off_c, 4, 48, 64
6, 333120, Note_on_c, 4, 48, 105
6, 333312, Note_off_c, 4, 48, 64
6, 333360, Note_on_c, 4, 48, 105
6, 333456, Note_off_c, 4, 48, 64
6, 333480, Note_on_c, 4, 48, 105
6, 333576, Note_off_c, 4, 48, 64
6, 333600, Note_on_c, 4, 48, 105
6, 333792, Note_off_c, 4, 48, 64
6, 334080, Note_on_c, 4, 48, 105
6, 334272, Note_off_c, 4, 48, 64
6, 335040, Note_on_c, 4, 43, 105
6, 335184, Note_off_c, 4, 43, 64
6, 335280, Note_on_c, 4, 43, 105
6, 335424, Note_off_c, 4, 43, 64
6, 340800, Note_on_c, 4, 48, 105
6, 340992, Note_off_c, 4, 48, 64
6, 341760, Note_on_c, 4, 48, 105
6, 341952, Note_off_c, 4, 48, 64
6, 342240, Note_on_c, 4, 48, 105
6, 342432, Note_off_c, 4, 48, 64
6, 342480, Note_on_c, 4, 48, 105
6, 342672, Note_off_c, 4, 48, 64
6, 342720, Note_on_c, 4, 48, 105
6, 342912, Note_off_c, 4, 48, 64
6, 343440, Note_on_c, 4, 43, 105
6, 343632, Note_off_c, 4, 43, 64
6, 343680, Note_on_c, 4, 48, 105
6, 343872, Note_off_c, 4, 48, 64
6, 344640, Note_on_c, 4, 48, 105
6, 344832, Note_off_c, 4, 48, 64
6, 345120, Note_on_c, 4, 48, 105
6, 345312, Note_off_c, 4, 48, 64
6, 345360, Note_on_c, 4, 48, 105
6, 345552, Note_off_c, 4, 48, 64
6, 345600, Note_on_c, 4, 48, 105
6, 345792, Note_off_c, 4, 48, 64
6, 346320, Note_on_c, 4, 43, 105
6, 346512, Note_off_c, 4, 43, 64
6, 346560, Note_on_c, 4, 48, 72
6, 346752, Note_off_c, 4, 48, 64
6, 347280, Note_on_c, 4, 43, 72
6, 347472, Note_off_c, 4, 43, 64
6, 347520, Note_on_c, 4, 48, 105
6, 347712, Note_off_c, 4, 48, 64
6, 348240, Note_on_c, 4, 43, 105
6, 348432, Note_off_c, 4, 43, 64
6, 348480, Note_on_c, 4, 48, 105
6, 348672, Note_off_c, 4, 48, 64
6, 358080, Note_on_c, 4, 48, 58
6, 358272, Note_off_c, 4, 48, 64
6, 358560, Note_on_c, 4, 43, 58
6, 358752, Note_off_c, 4, 43, 64
6, 359040, Note_on_c, 4, 48, 58
6, 359232, Note_off_c, 4, 48, 64
6, 360000, Note_on_c, 4, 48, 58
6, 360192, Note_off_c, 4, 48, 64
6, 360480, Note_on_c, 4, 43, 58
6, 360672, Note_off_c, 4, 43, 64
6, 360960, Note_on_c, 4, 48, 58
6, 361152, Note_off_c, 4, 48, 64
6, 362880, Note_on_c, 4, 48, 105
6, 363072, Note_off_c, 4, 48, 64
6, 363120, Note_on_c, 4, 48, 105
6, 363264, Note_off_c, 4, 48, 64
6, 363300, Note_on_c, 4, 48, 105
6, 363348, Note_off_c, 4, 48, 64
6, 363360, Note_on_c, 4, 48, 105
6, 363552, Note_off_c, 4, 48, 64
6, 363600, Note_on_c, 4, 48, 105
6, 363792, Note_off_c, 4, 48, 64
6, 363840, Note_on_c, 4, 48, 105
6, 364032, Note_off_c, 4, 48, 64
6, 364320, Note_on_c, 4, 48, 105
6, 364512, Note_off_c, 4, 48, 64
6, 364800, Note_on_c, 4, 48, 105
6, 364992, Note_off_c, 4, 48, 64
6, 365040, Note_on_c, 4, 48, 105
6, 365232, Note_off_c, 4, 48, 64
6, 365280, Note_on_c, 4, 43, 105
6, 365472, Note_off_c, 4, 43, 64
6, 365520, Note_on_c, 4, 43, 105
6, 365712, Note_off_c, 4, 43, 64
6, 365760, Note_on_c, 4, 48, 105
6, 365952, Note_off_c, 4, 48, 64
6, 366240, Note_on_c, 4, 48, 105
6, 366432, Note_off_c, 4, 48, 64
6, 366720, Note_on_c, 4, 48, 105
6, 366912, Note_off_c, 4, 48, 64
6, 366960, Note_on_c, 4, 48, 105
6, 367152, Note_off_c, 4, 48, 64
6, 367200, Note_on_c, 4, 43, 105
6, 367392, Note_off_c, 4, 43, 64
6, 367440, Note_on_c, 4, 43, 105
6, 367632, Note_off_c, 4, 43, 64
6, 367680, Note_on_c, 4, 48, 105
6, 367872, Note_off_c, 4, 48, 64
6, 368160, Note_on_c, 4, 48, 105
6, 368328, Note_off_c, 4, 48, 64
6, 368400, Note_on_c, 4, 48, 105
6, 368568, Note_off_c, 4, 48, 64
6, 368640, Note_on_c, 4, 48, 105
6, 368832, Note_off_c, 4, 48, 64
6, 369120, Note_on_c, 4, 48, 105
6, 369288, Note_off_c, 4, 48, 64
6, 369360, Note_on_c, 4, 48, 105
6, 369528, Note_off_c, 4, 48, 64
6, 369600, Note_on_c, 4, 48, 105
6, 369828, Note_off_c, 4, 48, 64
6, 369828, End_track
7, 0, Start_track
7, 0, Program_c, 5, 48
7, 0, Control_c, 5, 7, 126
7, 0, Control_c, 5, 10, 28
7, 0, Control_c, 5, 91, 70
7, 720, Note_on_c, 5, 60, 105
7, 834, Note_off_c, 5, 60, 64
7, 930, Note_on_c, 5, 60, 105
7, 954, Note_off_c, 5, 60, 64
7, 960, Note_on_c, 5, 64, 105
7, 1074, Note_off_c, 5, 64, 64
7, 1170, Note_on_c, 5, 64, 105
7, 1194, Note_off_c, 5, 64, 64
7, 1200, Note_on_c, 5, 69, 105
7, 1314, Note_off_c, 5, 69, 64
7, 1410, Note_on_c, 5, 69, 105
7, 1434, Note_off_c, 5, 69, 64
7, 1440, Note_on_c, 5, 59, 105
7, 1536, Note_off_c, 5, 59, 64
7, 1650, Note_on_c, 5, 86, 105
7, 1674, Note_off_c, 5, 86, 64
7, 1680, Note_on_c, 5, 86, 105
7, 1920, Note_off_c, 5, 86, 64
7, 2130, Note_on_c, 5, 59, 105
7, 2154, Note_off_c, 5, 59, 64
7, 2160, Note_on_c, 5, 58, 105
7, 2256, Note_off_c, 5, 58, 64
7, 2370, Note_on_c, 5, 76, 105
7, 2370, Note_on_c, 5, 84, 105
7, 2394, Note_off_c, 5, 84, 64
7, 2394, Note_off_c, 5, 76, 64
7, 2400, Note_on_c, 5, 84, 105
7, 2400, Note_on_c, 5, 76, 105
7, 2640, Note_off_c, 5, 76, 64
7, 2640, Note_off_c, 5, 84, 64
7, 3600, Note_on_c, 5, 84, 58
7, 3960, Note_off_c, 5, 84, 64
7, 3960, Note_on_c, 5, 83, 58
7, 4020, Note_off_c, 5, 83, 64
7, 4020, Note_on_c, 5, 81, 58
7, 4068, Note_off_c, 5, 81, 64
7, 4080, Note_on_c, 5, 81, 58
7, 4140, Note_off_c, 5, 81, 64
7, 4140, Note_on_c, 5, 79, 58
7, 4200, Note_off_c, 5, 79, 64
7, 4200, Note_on_c, 5, 77, 58
7, 4260, Note_off_c, 5, 77, 64
7, 4260, Note_on_c, 5, 76, 58
7, 4308, Note_off_c, 5, 76, 64
7, 4320, Note_on_c, 5, 76, 58
7, 4380, Note_off_c, 5, 76, 64
7, 4380, Note_on_c, 5, 74, 58
7, 4440, Note_off_c, 5, 74, 64
7, 4440, Note_on_c, 5, 73, 58
7, 4500, Note_off_c, 5, 73, 64
7, 4500, Note_on_c, 5, 74, 58
7, 4548, Note_off_c, 5, 74, 64
7, 4560, Note_on_c, 5, 74, 58
7, 5016, Note_off_c, 5, 74, 64
7, 5040, Note_on_c, 5, 79, 58
7, 5400, Note_off_c, 5, 79, 64
7, 5400, Note_on_c, 5, 77, 58
7, 5460, Note_off_c, 5, 77, 64
7, 5460, Note_on_c, 5, 76, 58
7, 5520, Note_off_c, 5, 76, 64
7, 5520, Note_on_c, 5, 74, 58
7, 5580, Note_off_c, 5, 74, 64
7, 5580, Note_on_c, 5, 72, 58
7, 5640, Note_off_c, 5, 72, 64
7, 5640, Note_on_c, 5, 71, 58
7, 5700, Note_off_c, 5, 71, 64
7, 5700, Note_on_c, 5, 72, 58
7, 5748, Note_off_c, 5, 72, 64
7, 5760, Note_on_c, 5, 78, 98
7, 5799, Note_off_c, 5, 78, 64
7, 5820, Note_on_c, 5, 66, 58
7, 5859, Note_off_c, 5, 66, 64
7, 5880, Note_on_c, 5, 66, 58
7, 5919, Note_off_c, 5, 66, 64
7, 5940, Note_on_c, 5, 66, 58
7, 5979, Note_off_c, 5, 66, 64
7, 6000, Note_on_c, 5, 66, 58
7, 6039, Note_off_c, 5, 66, 64
7, 6060, Note_on_c, 5, 66, 58
7, 6099, Note_off_c, 5, 66, 64
7, 6120, Note_on_c, 5, 66, 58
7, 6159, Note_off_c, 5, 66, 64
7, 6180, Note_on_c, 5, 66, 58
7, 6219, Note_off_c, 5, 66, 64
7, 6240, Note_on_c, 5, 66, 58
7, 6279, Note_off_c, 5, 66, 64
7, 6300, Note_on_c, 5, 66, 58
7, 6339, Note_off_c, 5, 66, 64
7, 6360, Note_on_c, 5, 66, 58
7, 6399, Note_off_c, 5, 66, 64
7, 6420, Note_on_c, 5, 66, 58
7, 6459, Note_off_c, 5, 66, 64
7, 6480, Note_on_c, 5, 77, 98
7, 6519, Note_off_c, 5, 77, 64
7, 6540, Note_on_c, 5, 65, 58
7, 6579, Note_off_c, 5, 65, 64
7, 6600, Note_on_c, 5, 65, 58
7, 6639, Note_off_c, 5, 65, 64
7, 6660, Note_on_c, 5, 65, 58
7, 6699, Note_off_c, 5, 65, 64
7, 6720, Note_on_c, 5, 65, 58
7, 6759, Note_off_c, 5, 65, 64
7, 6780, Note_on_c, 5, 65, 58
7, 6819, Note_off_c, 5, 65, 64
7, 6840, Note_on_c, 5, 65, 58
7, 6879, Note_off_c, 5, 65, 64
7, 6900, Note_on_c, 5, 65, 58
7, 6939, Note_off_c, 5, 65, 64
7, 6960, Note_on_c, 5, 65, 58
7, 6999, Note_off_c, 5, 65, 64
7, 7020, Note_on_c, 5, 65, 58
7, 7059, Note_off_c, 5, 65, 64
7, 7080, Note_on_c, 5, 65, 58
7, 7119, Note_off_c, 5, 65, 64
7, 7140, Note_on_c, 5, 65, 58
7, 7179, Note_off_c, 5, 65, 64
7, 7200, Note_on_c, 5, 76, 98
7, 7239, Note_off_c, 5, 76, 64
7, 7260, Note_on_c, 5, 64, 58
7, 7299, Note_off_c, 5, 64, 64
7, 7320, Note_on_c, 5, 64, 58
7, 7359, Note_off_c, 5, 64, 64
7, 7380, Note_on_c, 5, 64, 58
7, 7419, Note_off_c, 5, 64, 64
7, 7440, Note_on_c, 5, 64, 58
7, 7479, Note_off_c, 5, 64, 64
7, 7500, Note_on_c, 5, 64, 58
7, 7539, Note_off_c, 5, 64, 64
7, 7560, Note_on_c, 5, 64, 58
7, 7599, Note_off_c, 5, 64, 64
7, 7620, Note_on_c, 5, 64, 58
7, 7659, Note_off_c, 5, 64, 64
7, 7680, Note_on_c, 5, 64, 58
7, 7719, Note_off_c, 5, 64, 64
7, 7740, Note_on_c, 5, 64, 58
7, 7779, Note_off_c, 5, 64, 64
7, 7800, Note_on_c, 5, 64, 58
7, 7839, Note_off_c, 5, 64, 64
7, 7860, Note_on_c, 5, 64, 58
7, 7899, Note_off_c, 5, 64, 64
7, 7920, Note_on_c, 5, 65, 58
7, 8016, Note_off_c, 5, 65, 64
7, 8160, Note_on_c, 5, 72, 58
7, 8256, Note_off_c, 5, 72, 64
7, 8400, Note_on_c, 5, 80, 58
7, 8496, Note_off_c, 5, 80, 64
7, 8640, Note_on_c, 5, 65, 58
7, 8736, Note_off_c, 5, 65, 64
7, 8880, Note_on_c, 5, 68, 58
7, 8976, Note_off_c, 5, 68, 64
7, 9120, Note_on_c, 5, 80, 58
7, 9216, Note_off_c, 5, 80, 64
7, 9480, Note_on_c, 5, 80, 58
7, 9600, Note_off_c, 5, 80, 64
7, 9600, Note_on_c, 5, 79, 58
7, 9720, Note_off_c, 5, 79, 64
7, 9720, Note_on_c, 5, 74, 58
7, 9840, Note_off_c, 5, 74, 64
7, 9840, Note_on_c, 5, 79, 58
7, 9960, Note_off_c, 5, 79, 64
7, 9960, Note_on_c, 5, 77, 58
7, 10074, Note_off_c, 5, 77, 64
7, 10080, Note_on_c, 5, 75, 58
7, 10200, Note_off_c, 5, 75, 64
7, 10200, Note_on_c, 5, 77, 58
7, 10320, Note_off_c, 5, 77, 64
7, 10320, Note_on_c, 5, 75, 58
7, 10440, Note_off_c, 5, 75, 64
7, 10440, Note_on_c, 5, 71, 58
7, 10560, Note_off_c, 5, 71, 64
7, 10560, Note_on_c, 5, 75, 58
7, 10680, Note_off_c, 5, 75, 64
7, 10680, Note_on_c, 5, 74, 58
7, 10794, Note_off_c, 5, 74, 64
7, 10800, Note_on_c, 5, 72, 58
7, 10914, Note_off_c, 5, 72, 64
7, 10920, Note_on_c, 5, 72, 72
7, 11148, Note_off_c, 5, 72, 64
7, 11160, Note_on_c, 5, 72, 81
7, 11388, Note_off_c, 5, 72, 64
7, 11400, Note_on_c, 5, 72, 101
7, 11514, Note_off_c, 5, 72, 64
7, 11520, Note_on_c, 5, 71, 58
7, 11616, Note_off_c, 5, 71, 64
7, 11640, Note_on_c, 5, 79, 98
7, 11760, Note_off_c, 5, 79, 64
7, 11760, Note_on_c, 5, 78, 58
7, 11880, Note_off_c, 5, 78, 64
7, 11880, Note_on_c, 5, 77, 58
7, 12000, Note_off_c, 5, 77, 64
7, 12000, Note_on_c, 5, 76, 58
7, 12120, Note_off_c, 5, 76, 64
7, 12120, Note_on_c, 5, 75, 58
7, 12234, Note_off_c, 5, 75, 64
7, 12240, Note_on_c, 5, 74, 58
7, 12354, Note_off_c, 5, 74, 64
7, 12360, Note_on_c, 5, 67, 98
7, 12588, Note_off_c, 5, 67, 64
7, 12600, Note_on_c, 5, 67, 58
7, 12828, Note_off_c, 5, 67, 64
7, 12840, Note_on_c, 5, 67, 58
7, 12954, Note_off_c, 5, 67, 64
7, 12960, Note_on_c, 5, 67, 58
7, 13080, Note_off_c, 5, 67, 64
7, 13080, Note_on_c, 5, 69, 98
7, 13200, Note_off_c, 5, 69, 64
7, 13200, Note_on_c, 5, 67, 58
7, 13320, Note_off_c, 5, 67, 64
7, 13320, Note_on_c, 5, 69, 98
7, 13440, Note_off_c, 5, 69, 64
7, 13440, Note_on_c, 5, 67, 58
7, 13560, Note_off_c, 5, 67, 64
7, 13560, Note_on_c, 5, 69, 98
7, 13674, Note_off_c, 5, 69, 64
7, 13680, Note_on_c, 5, 67, 58
7, 13776, Note_off_c, 5, 67, 64
7, 13890, Note_on_c, 5, 79, 116
7, 13914, Note_off_c, 5, 79, 64
7, 13920, Note_on_c, 5, 79, 116
7, 13920, Note_on_c, 5, 71, 116
7, 13920, Note_on_c, 5, 62, 116
7, 14148, Note_off_c, 5, 62, 64
7, 14148, Note_off_c, 5, 71, 64
7, 14148, Note_off_c, 5, 79, 64
7, 14400, Note_on_c, 5, 64, 72
7, 15360, Note_off_c, 5, 64, 64
7, 15360, Note_on_c, 5, 65, 72
7, 16272, Note_off_c, 5, 65, 64
7, 16320, Note_on_c, 5, 67, 72
7, 16680, Note_off_c, 5, 67, 64
7, 16680, Note_on_c, 5, 69, 72
7, 16740, Note_off_c, 5, 69, 64
7, 16740, Note_on_c, 5, 71, 72
7, 16800, Note_off_c, 5, 71, 64
7, 16800, Note_on_c, 5, 72, 72
7, 16944, Note_off_c, 5, 72, 64
7, 17040, Note_on_c, 5, 67, 72
7, 17184, Note_off_c, 5, 67, 64
7, 17280, Note_on_c, 5, 71, 72
7, 17340, Note_off_c, 5, 71, 64
7, 17340, Note_on_c, 5, 69, 72
7, 17448, Note_off_c, 5, 69, 64
7, 17520, Note_on_c, 5, 67, 72
7, 17664, Note_off_c, 5, 67, 64
7, 18240, Note_on_c, 5, 72, 72
7, 19200, Note_off_c, 5, 72, 64
7, 19200, Note_on_c, 5, 70, 72
7, 20112, Note_off_c, 5, 70, 64
7, 20160, Note_on_c, 5, 69, 72
7, 20352, Note_off_c, 5, 69, 64
7, 20400, Note_on_c, 5, 72, 72
7, 20430, Note_off_c, 5, 72, 64
7, 20430, Note_on_c, 5, 71, 72
7, 20460, Note_off_c, 5, 71, 64
7, 20460, Note_on_c, 5, 72, 72
7, 20490, Note_off_c, 5, 72, 64
7, 20490, Note_on_c, 5, 71, 72
7, 20520, Note_off_c, 5, 71, 64
7, 20520, Note_on_c, 5, 69, 72
7, 20580, Note_off_c, 5, 69, 64
7, 20580, Note_on_c, 5, 71, 72
7, 20640, Note_off_c, 5, 71, 64
7, 20640, Note_on_c, 5, 72, 72
7, 20784, Note_off_c, 5, 72, 64
7, 20880, Note_on_c, 5, 74, 72
7, 21024, Note_off_c, 5, 74, 64
7, 21120, Note_on_c, 5, 77, 72
7, 21240, Note_off_c, 5, 77, 64
7, 21240, Note_on_c, 5, 76, 72
7, 21312, Note_off_c, 5, 76, 64
7, 21360, Note_on_c, 5, 75, 72
7, 21432, Note_off_c, 5, 75, 64
7, 21480, Note_on_c, 5, 76, 72
7, 21552, Note_off_c, 5, 76, 64
7, 21600, Note_on_c, 5, 74, 72
7, 21720, Note_off_c, 5, 74, 64
7, 21720, Note_on_c, 5, 72, 72
7, 21792, Note_off_c, 5, 72, 64
7, 21840, Note_on_c, 5, 71, 72
7, 21912, Note_off_c, 5, 71, 64
7, 21960, Note_on_c, 5, 72, 72
7, 22032, Note_off_c, 5, 72, 64
7, 22080, Note_on_c, 5, 71, 72
7, 22200, Note_off_c, 5, 71, 64
7, 22200, Note_on_c, 5, 69, 72
7, 22272, Note_off_c, 5, 69, 64
7, 22320, Note_on_c, 5, 68, 72
7, 22392, Note_off_c, 5, 68, 64
7, 22440, Note_on_c, 5, 69, 72
7, 22512, Note_off_c, 5, 69, 64
7, 22560, Note_on_c, 5, 67, 72
7, 22680, Note_off_c, 5, 67, 64
7, 22680, Note_on_c, 5, 65, 72
7, 22752, Note_off_c, 5, 65, 64
7, 22800, Note_on_c, 5, 64, 72
7, 22872, Note_off_c, 5, 64, 64
7, 22920, Note_on_c, 5, 65, 72
7, 22992, Note_off_c, 5, 65, 64
7, 23040, Note_on_c, 5, 64, 72
7, 23520, Note_off_c, 5, 64, 64
7, 23520, Note_on_c, 5, 62, 58
7, 23712, Note_off_c, 5, 62, 64
7, 24000, Note_on_c, 5, 76, 127
7, 24144, Note_off_c, 5, 76, 64
7, 24240, Note_on_c, 5, 64, 127
7, 24816, Note_off_c, 5, 64, 64
7, 24960, Note_on_c, 5, 77, 127
7, 25104, Note_off_c, 5, 77, 64
7, 25200, Note_on_c, 5, 65, 127
7, 25776, Note_off_c, 5, 65, 64
7, 25920, Note_on_c, 5, 79, 127
7, 26280, Note_off_c, 5, 79, 64
7, 26280, Note_on_c, 5, 81, 116
7, 26340, Note_off_c, 5, 81, 64
7, 26340, Note_on_c, 5, 83, 116
7, 26388, Note_off_c, 5, 83, 64
7, 26400, Note_on_c, 5, 84, 116
7, 26544, Note_off_c, 5, 84, 64
7, 26640, Note_on_c, 5, 79, 116
7, 26784, Note_off_c, 5, 79, 64
7, 26880, Note_on_c, 5, 65, 105
7, 26880, Note_on_c, 5, 72, 105
7, 26880, Note_on_c, 5, 81, 105
7, 27048, Note_off_c, 5, 81, 64
7, 27048, Note_off_c, 5, 72, 64
7, 27048, Note_off_c, 5, 65, 64
7, 27120, Note_on_c, 5, 79, 105
7, 27120, Note_on_c, 5, 64, 105
7, 27120, Note_on_c, 5, 72, 105
7, 27288, Note_off_c, 5, 72, 64
7, 27288, Note_off_c, 5, 64, 64
7, 27288, Note_off_c, 5, 79, 64
7, 27360, Note_on_c, 5, 84, 125
7, 27528, Note_off_c, 5, 84, 64
7, 27600, Note_on_c, 5, 79, 105
7, 27600, Note_on_c, 5, 64, 105
7, 27600, Note_on_c, 5, 72, 105
7, 27768, Note_off_c, 5, 72, 64
7, 27768, Note_off_c, 5, 64, 64
7, 27768, Note_off_c, 5, 79, 64
7, 27840, Note_on_c, 5, 65, 105
7, 27840, Note_on_c, 5, 72, 105
7, 27840, Note_on_c, 5, 81, 105
7, 28008, Note_off_c, 5, 81, 64
7, 28008, Note_off_c, 5, 72, 64
7, 28008, Note_off_c, 5, 65, 64
7, 28080, Note_on_c, 5, 79, 105
7, 28080, Note_on_c, 5, 64, 105
7, 28080, Note_on_c, 5, 72, 105
7, 28248, Note_off_c, 5, 72, 64
7, 28248, Note_off_c, 5, 64, 64
7, 28248, Note_off_c, 5, 79, 64
7, 28320, Note_on_c, 5, 84, 125
7, 28488, Note_off_c, 5, 84, 64
7, 28560, Note_on_c, 5, 79, 105
7, 28560, Note_on_c, 5, 64, 105
7, 28560, Note_on_c, 5, 72, 105
7, 28728, Note_off_c, 5, 72, 64
7, 28728, Note_off_c, 5, 64, 64
7, 28728, Note_off_c, 5, 79, 64
7, 28800, Note_on_c, 5, 72, 105
7, 28800, Note_on_c, 5, 65, 105
7, 28800, Note_on_c, 5, 81, 105
7, 28968, Note_off_c, 5, 81, 64
7, 28968, Note_off_c, 5, 65, 64
7, 28968, Note_off_c, 5, 72, 64
7, 29040, Note_on_c, 5, 79, 105
7, 29040, Note_on_c, 5, 72, 105
7, 29040, Note_on_c, 5, 64, 105
7, 29208, Note_off_c, 5, 64, 64
7, 29208, Note_off_c, 5, 72, 64
7, 29208, Note_off_c, 5, 79, 64
7, 29280, Note_on_c, 5, 81, 105
7, 29280, Note_on_c, 5, 72, 105
7, 29280, Note_on_c, 5, 65, 105
7, 29448, Note_off_c, 5, 65, 64
7, 29448, Note_off_c, 5, 72, 64
7, 29448, Note_off_c, 5, 81, 64
7, 29520, Note_on_c, 5, 72, 105
7, 29520, Note_on_c, 5, 64, 105
7, 29520, Note_on_c, 5, 79, 105
7, 29688, Note_off_c, 5, 79, 64
7, 29688, Note_off_c, 5, 64, 64
7, 29688, Note_off_c, 5, 72, 64
7, 29760, Note_on_c, 5, 65, 105
7, 29760, Note_on_c, 5, 72, 105
7, 29760, Note_on_c, 5, 81, 105
7, 29928, Note_off_c, 5, 81, 64
7, 29928, Note_off_c, 5, 72, 64
7, 29928, Note_off_c, 5, 65, 64
7, 30000, Note_on_c, 5, 72, 105
7, 30000, Note_on_c, 5, 64, 105
7, 30000, Note_on_c, 5, 79, 105
7, 30168, Note_off_c, 5, 79, 64
7, 30168, Note_off_c, 5, 64, 64
7, 30168, Note_off_c, 5, 72, 64
7, 30720, Note_on_c, 5, 84, 72
7, 31680, Note_off_c, 5, 84, 64
7, 31680, Note_on_c, 5, 82, 72
7, 32448, Note_off_c, 5, 82, 64
7, 32640, Note_on_c, 5, 80, 72
7, 32760, Note_off_c, 5, 80, 64
7, 32760, Note_on_c, 5, 81, 72
7, 32880, Note_off_c, 5, 81, 64
7, 32880, Note_on_c, 5, 84, 72
7, 33000, Note_off_c, 5, 84, 64
7, 33000, Note_on_c, 5, 81, 72
7, 33096, Note_off_c, 5, 81, 64
7, 33120, Note_on_c, 5, 76, 72
7, 33240, Note_off_c, 5, 76, 64
7, 33240, Note_on_c, 5, 77, 72
7, 33360, Note_off_c, 5, 77, 64
7, 33360, Note_on_c, 5, 81, 72
7, 33480, Note_off_c, 5, 81, 64
7, 33480, Note_on_c, 5, 77, 72
7, 33576, Note_off_c, 5, 77, 64
7, 33600, Note_on_c, 5, 73, 72
7, 33720, Note_off_c, 5, 73, 64
7, 33720, Note_on_c, 5, 74, 72
7, 33840, Note_off_c, 5, 74, 64
7, 33840, Note_on_c, 5, 77, 72
7, 33960, Note_off_c, 5, 77, 64
7, 33960, Note_on_c, 5, 76, 72
7, 34056, Note_off_c, 5, 76, 64
7, 34080, Note_on_c, 5, 79, 72
7, 34200, Note_off_c, 5, 79, 64
7, 34200, Note_on_c, 5, 77, 72
7, 34320, Note_off_c, 5, 77, 64
7, 34320, Note_on_c, 5, 76, 72
7, 34440, Note_off_c, 5, 76, 64
7, 34440, Note_on_c, 5, 74, 72
7, 34536, Note_off_c, 5, 74, 64
7, 34560, Note_on_c, 5, 79, 72
7, 34680, Note_off_c, 5, 79, 64
7, 34680, Note_on_c, 5, 76, 72
7, 34800, Note_off_c, 5, 76, 64
7, 34800, Note_on_c, 5, 72, 72
7, 35184, Note_off_c, 5, 72, 64
7, 35280, Note_on_c, 5, 71, 72
7, 35472, Note_off_c, 5, 71, 64
7, 35520, Note_on_c, 5, 72, 92
7, 35712, Note_off_c, 5, 72, 64
7, 36480, Note_on_c, 5, 79, 105
7, 36648, Note_off_c, 5, 79, 64
7, 36720, Note_on_c, 5, 79, 105
7, 36846, Note_off_c, 5, 79, 64
7, 36900, Note_on_c, 5, 79, 105
7, 36942, Note_off_c, 5, 79, 64
7, 36960, Note_on_c, 5, 79, 105
7, 37128, Note_off_c, 5, 79, 64
7, 37200, Note_on_c, 5, 79, 105
7, 37368, Note_off_c, 5, 79, 64
7, 37440, Note_on_c, 5, 84, 105
7, 37824, Note_off_c, 5, 84, 64
7, 37920, Note_on_c, 5, 76, 105
7, 38304, Note_off_c, 5, 76, 64
7, 38400, Note_on_c, 5, 74, 105
7, 38760, Note_off_c, 5, 74, 64
7, 38760, Note_on_c, 5, 77, 105
7, 38820, Note_off_c, 5, 77, 64
7, 38820, Note_on_c, 5, 81, 105
7, 38868, Note_off_c, 5, 81, 64
7, 38880, Note_on_c, 5, 72, 105
7, 39120, Note_off_c, 5, 72, 64
7, 39120, Note_on_c, 5, 71, 105
7, 39348, Note_off_c, 5, 71, 64
7, 39360, Note_on_c, 5, 72, 105
7, 39552, Note_off_c, 5, 72, 64
7, 40320, Note_on_c, 5, 79, 105
7, 40488, Note_off_c, 5, 79, 64
7, 40560, Note_on_c, 5, 79, 105
7, 40686, Note_off_c, 5, 79, 64
7, 40740, Note_on_c, 5, 79, 105
7, 40782, Note_off_c, 5, 79, 64
7, 40800, Note_on_c, 5, 79, 105
7, 40968, Note_off_c, 5, 79, 64
7, 41040, Note_on_c, 5, 79, 105
7, 41208, Note_off_c, 5, 79, 64
7, 41280, Note_on_c, 5, 84, 105
7, 41664, Note_off_c, 5, 84, 64
7, 41760, Note_on_c, 5, 76, 105
7, 42144, Note_off_c, 5, 76, 64
7, 42240, Note_on_c, 5, 74, 105
7, 42408, Note_off_c, 5, 74, 64
7, 42480, Note_on_c, 5, 74, 105
7, 42606, Note_off_c, 5, 74, 64
7, 42660, Note_on_c, 5, 74, 105
7, 42702, Note_off_c, 5, 74, 64
7, 42720, Note_on_c, 5, 74, 105
7, 42888, Note_off_c, 5, 74, 64
7, 42960, Note_on_c, 5, 74, 105
7, 43128, Note_off_c, 5, 74, 64
7, 43200, Note_on_c, 5, 83, 105
7, 43584, Note_off_c, 5, 83, 64
7, 43680, Note_on_c, 5, 74, 105
7, 44064, Note_off_c, 5, 74, 64
7, 44160, Note_on_c, 5, 72, 105
7, 44328, Note_off_c, 5, 72, 64
7, 44400, Note_on_c, 5, 72, 105
7, 44526, Note_off_c, 5, 72, 64
7, 44580, Note_on_c, 5, 72, 105
7, 44622, Note_off_c, 5, 72, 64
7, 44640, Note_on_c, 5, 72, 105
7, 44808, Note_off_c, 5, 72, 64
7, 44880, Note_on_c, 5, 72, 105
7, 45048, Note_off_c, 5, 72, 64
7, 45120, Note_on_c, 5, 84, 105
7, 45504, Note_off_c, 5, 84, 64
7, 45600, Note_on_c, 5, 72, 105
7, 45984, Note_off_c, 5, 72, 64
7, 46080, Note_on_c, 5, 67, 105
7, 46164, Note_off_c, 5, 67, 64
7, 46200, Note_on_c, 5, 86, 105
7, 46284, Note_off_c, 5, 86, 64
7, 46320, Note_on_c, 5, 86, 105
7, 46404, Note_off_c, 5, 86, 64
7, 46440, Note_on_c, 5, 86, 105
7, 46524, Note_off_c, 5, 86, 64
7, 46560, Note_on_c, 5, 86, 105
7, 46728, Note_off_c, 5, 86, 64
7, 46800, Note_on_c, 5, 79, 105
7, 46968, Note_off_c, 5, 79, 64
7, 47040, Note_on_c, 5, 78, 105
7, 47208, Note_off_c, 5, 78, 64
7, 47280, Note_on_c, 5, 79, 105
7, 47448, Note_off_c, 5, 79, 64
7, 47520, Note_on_c, 5, 81, 105
7, 47880, Note_off_c, 5, 81, 64
7, 47880, Note_on_c, 5, 83, 105
7, 47940, Note_off_c, 5, 83, 64
7, 47940, Note_on_c, 5, 84, 105
7, 47982, Note_off_c, 5, 84, 64
7, 48000, Note_on_c, 5, 83, 105
7, 48120, Note_off_c, 5, 83, 64
7, 48120, Note_on_c, 5, 79, 105
7, 48204, Note_off_c, 5, 79, 64
7, 48240, Note_on_c, 5, 86, 105
7, 48324, Note_off_c, 5, 86, 64
7, 48360, Note_on_c, 5, 86, 105
7, 48444, Note_off_c, 5, 86, 64
7, 48480, Note_on_c, 5, 86, 105
7, 48648, Note_off_c, 5, 86, 64
7, 48720, Note_on_c, 5, 79, 105
7, 48888, Note_off_c, 5, 79, 64
7, 48960, Note_on_c, 5, 78, 105
7, 49128, Note_off_c, 5, 78, 64
7, 49200, Note_on_c, 5, 79, 105
7, 49368, Note_off_c, 5, 79, 64
7, 49440, Note_on_c, 5, 81, 105
7, 49800, Note_off_c, 5, 81, 64
7, 49800, Note_on_c, 5, 83, 105
7, 49860, Note_off_c, 5, 83, 64
7, 49860, Note_on_c, 5, 84, 105
7, 49902, Note_off_c, 5, 84, 64
7, 49920, Note_on_c, 5, 83, 105
7, 50064, Note_off_c, 5, 83, 64
7, 50160, Note_on_c, 5, 86, 105
7, 50400, Note_off_c, 5, 86, 64
7, 50400, Note_on_c, 5, 84, 105
7, 50640, Note_off_c, 5, 84, 64
7, 50640, Note_on_c, 5, 83, 105
7, 50832, Note_off_c, 5, 83, 64
7, 50880, Note_on_c, 5, 83, 105
7, 50940, Note_off_c, 5, 83, 64
7, 50940, Note_on_c, 5, 81, 105
7, 51084, Note_off_c, 5, 81, 64
7, 51120, Note_on_c, 5, 81, 72
7, 51600, Note_off_c, 5, 81, 64
7, 51600, Note_on_c, 5, 80, 72
7, 51792, Note_off_c, 5, 80, 64
7, 51840, Note_on_c, 5, 83, 72
7, 51900, Note_off_c, 5, 83, 64
7, 51900, Note_on_c, 5, 81, 105
7, 52044, Note_off_c, 5, 81, 64
7, 52080, Note_on_c, 5, 81, 72
7, 52560, Note_off_c, 5, 81, 64
7, 52560, Note_on_c, 5, 80, 72
7, 52752, Note_off_c, 5, 80, 64
7, 52800, Note_on_c, 5, 81, 105
7, 52872, Note_off_c, 5, 81, 64
7, 52920, Note_on_c, 5, 80, 105
7, 52992, Note_off_c, 5, 80, 64
7, 53040, Note_on_c, 5, 81, 105
7, 53112, Note_off_c, 5, 81, 64
7, 53160, Note_on_c, 5, 80, 105
7, 53232, Note_off_c, 5, 80, 64
7, 53280, Note_on_c, 5, 81, 105
7, 53352, Note_off_c, 5, 81, 64
7, 53400, Note_on_c, 5, 80, 105
7, 53472, Note_off_c, 5, 80, 64
7, 53520, Note_on_c, 5, 81, 105
7, 53592, Note_off_c, 5, 81, 64
7, 53640, Note_on_c, 5, 83, 105
7, 53712, Note_off_c, 5, 83, 64
7, 53760, Note_on_c, 5, 84, 105
7, 53832, Note_off_c, 5, 84, 64
7, 53880, Note_on_c, 5, 83, 105
7, 53952, Note_off_c, 5, 83, 64
7, 54000, Note_on_c, 5, 84, 105
7, 54072, Note_off_c, 5, 84, 64
7, 54120, Note_on_c, 5, 83, 105
7, 54192, Note_off_c, 5, 83, 64
7, 54240, Note_on_c, 5, 84, 105
7, 54312, Note_off_c, 5, 84, 64
7, 54360, Note_on_c, 5, 83, 105
7, 54432, Note_off_c, 5, 83, 64
7, 54480, Note_on_c, 5, 84, 105
7, 54552, Note_off_c, 5, 84, 64
7, 54600, Note_on_c, 5, 86, 105
7, 54672, Note_off_c, 5, 86, 64
7, 54720, Note_on_c, 5, 88, 105
7, 55176, Note_off_c, 5, 88, 64
7, 55200, Note_on_c, 5, 76, 105
7, 55656, Note_off_c, 5, 76, 64
7, 55680, Note_on_c, 5, 79, 72
7, 56136, Note_off_c, 5, 79, 64
7, 56160, Note_on_c, 5, 69, 58
7, 56616, Note_off_c, 5, 69, 64
7, 56640, Note_on_c, 5, 76, 72
7, 57120, Note_off_c, 5, 76, 64
7, 57120, Note_on_c, 5, 64, 72
7, 57600, Note_off_c, 5, 64, 64
7, 57600, Note_on_c, 5, 67, 72
7, 58080, Note_off_c, 5, 67, 64
7, 58080, Note_on_c, 5, 61, 72
7, 58464, Note_off_c, 5, 61, 64
7, 58560, Note_on_c, 5, 62, 72
7, 60240, Note_off_c, 5, 62, 64
7, 60240, Note_on_c, 5, 63, 72
7, 60432, Note_off_c, 5, 63, 64
7, 60480, Note_on_c, 5, 64, 72
7, 60840, Note_off_c, 5, 64, 64
7, 60840, Note_on_c, 5, 66, 72
7, 60900, Note_off_c, 5, 66, 64
7, 60900, Note_on_c, 5, 67, 72
7, 60948, Note_off_c, 5, 67, 64
7, 60960, Note_on_c, 5, 62, 72
7, 61104, Note_off_c, 5, 62, 64
7, 61200, Note_on_c, 5, 74, 72
7, 61344, Note_off_c, 5, 74, 64
7, 61440, Note_on_c, 5, 76, 72
7, 61800, Note_off_c, 5, 76, 64
7, 61800, Note_on_c, 5, 78, 72
7, 61860, Note_off_c, 5, 78, 64
7, 61860, Note_on_c, 5, 79, 72
7, 61908, Note_off_c, 5, 79, 64
7, 61920, Note_on_c, 5, 74, 72
7, 62064, Note_off_c, 5, 74, 64
7, 62160, Note_on_c, 5, 71, 72
7, 62304, Note_off_c, 5, 71, 64
7, 62400, Note_on_c, 5, 69, 72
7, 62544, Note_off_c, 5, 69, 64
7, 62640, Note_on_c, 5, 72, 72
7, 63120, Note_off_c, 5, 72, 64
7, 63120, Note_on_c, 5, 69, 72
7, 63240, Note_off_c, 5, 69, 64
7, 63240, Note_on_c, 5, 66, 72
7, 63336, Note_off_c, 5, 66, 64
7, 63360, Note_on_c, 5, 67, 58
7, 63552, Note_off_c, 5, 67, 64
7, 63840, Note_on_c, 5, 64, 105
7, 63840, Note_on_c, 5, 71, 105
7, 63840, Note_on_c, 5, 76, 105
7, 63984, Note_off_c, 5, 76, 64
7, 63984, Note_off_c, 5, 71, 64
7, 63984, Note_off_c, 5, 64, 64
7, 64080, Note_on_c, 5, 64, 105
7, 64080, Note_on_c, 5, 71, 105
7, 64080, Note_on_c, 5, 76, 105
7, 64224, Note_off_c, 5, 76, 64
7, 64224, Note_off_c, 5, 71, 64
7, 64224, Note_off_c, 5, 64, 64
7, 64320, Note_on_c, 5, 64, 105
7, 64320, Note_on_c, 5, 71, 105
7, 64320, Note_on_c, 5, 76, 105
7, 64704, Note_off_c, 5, 76, 64
7, 64704, Note_off_c, 5, 71, 64
7, 64704, Note_off_c, 5, 64, 64
7, 64800, Note_on_c, 5, 71, 105
7, 64800, Note_on_c, 5, 83, 105
7, 65184, Note_off_c, 5, 83, 64
7, 65184, Note_off_c, 5, 71, 64
7, 65280, Note_on_c, 5, 79, 116
7, 65436, Note_off_c, 5, 79, 64
7, 65520, Note_on_c, 5, 76, 116
7, 65676, Note_off_c, 5, 76, 64
7, 65760, Note_on_c, 5, 83, 116
7, 65916, Note_off_c, 5, 83, 64
7, 66000, Note_on_c, 5, 83, 116
7, 66156, Note_off_c, 5, 83, 64
7, 66240, Note_on_c, 5, 79, 116
7, 66396, Note_off_c, 5, 79, 64
7, 66480, Note_on_c, 5, 76, 116
7, 66636, Note_off_c, 5, 76, 64
7, 66720, Note_on_c, 5, 83, 116
7, 66876, Note_off_c, 5, 83, 64
7, 66960, Note_on_c, 5, 83, 116
7, 67116, Note_off_c, 5, 83, 64
7, 67200, Note_on_c, 5, 79, 116
7, 67356, Note_off_c, 5, 79, 64
7, 67440, Note_on_c, 5, 76, 116
7, 67596, Note_off_c, 5, 76, 64
7, 69240, Note_on_c, 5, 76, 72
7, 69312, Note_off_c, 5, 76, 64
7, 69360, Note_on_c, 5, 76, 72
7, 69432, Note_off_c, 5, 76, 64
7, 69480, Note_on_c, 5, 76, 72
7, 69552, Note_off_c, 5, 76, 64
7, 69600, Note_on_c, 5, 76, 72
7, 69720, Note_off_c, 5, 76, 64
7, 69720, Note_on_c, 5, 79, 72
7, 69792, Note_off_c, 5, 79, 64
7, 69840, Note_on_c, 5, 78, 72
7, 69912, Note_off_c, 5, 78, 64
7, 69960, Note_on_c, 5, 76, 72
7, 70032, Note_off_c, 5, 76, 64
7, 70080, Note_on_c, 5, 76, 72
7, 70200, Note_off_c, 5, 76, 64
7, 70200, Note_on_c, 5, 74, 72
7, 70272, Note_off_c, 5, 74, 64
7, 70320, Note_on_c, 5, 71, 72
7, 70392, Note_off_c, 5, 71, 64
7, 70440, Note_on_c, 5, 74, 72
7, 70512, Note_off_c, 5, 74, 64
7, 70560, Note_on_c, 5, 74, 72
7, 70680, Note_off_c, 5, 74, 64
7, 70680, Note_on_c, 5, 72, 72
7, 70752, Note_off_c, 5, 72, 64
7, 70800, Note_on_c, 5, 71, 72
7, 70872, Note_off_c, 5, 71, 64
7, 70920, Note_on_c, 5, 69, 72
7, 70992, Note_off_c, 5, 69, 64
7, 71040, Note_on_c, 5, 67, 58
7, 71232, Note_off_c, 5, 67, 64
7, 72000, Note_on_c, 5, 59, 58
7, 72120, Note_off_c, 5, 59, 64
7, 72120, Note_on_c, 5, 67, 58
7, 72240, Note_off_c, 5, 67, 64
7, 72240, Note_on_c, 5, 64, 58
7, 72360, Note_off_c, 5, 64, 64
7, 72360, Note_on_c, 5, 67, 58
7, 72456, Note_off_c, 5, 67, 64
7, 72480, Note_on_c, 5, 59, 58
7, 72600, Note_off_c, 5, 59, 64
7, 72600, Note_on_c, 5, 66, 58
7, 72720, Note_off_c, 5, 66, 64
7, 72720, Note_on_c, 5, 63, 58
7, 72840, Note_off_c, 5, 63, 64
7, 72840, Note_on_c, 5, 66, 58
7, 72936, Note_off_c, 5, 66, 64
7, 72960, Note_on_c, 5, 64, 58
7, 73080, Note_off_c, 5, 64, 64
7, 73080, Note_on_c, 5, 71, 58
7, 73200, Note_off_c, 5, 71, 64
7, 73200, Note_on_c, 5, 69, 58
7, 73320, Note_off_c, 5, 69, 64
7, 73320, Note_on_c, 5, 67, 58
7, 73416, Note_off_c, 5, 67, 64
7, 73440, Note_on_c, 5, 66, 58
7, 73560, Note_off_c, 5, 66, 64
7, 73560, Note_on_c, 5, 63, 58
7, 73680, Note_off_c, 5, 63, 64
7, 73680, Note_on_c, 5, 64, 58
7, 73800, Note_off_c, 5, 64, 64
7, 73800, Note_on_c, 5, 66, 58
7, 73896, Note_off_c, 5, 66, 64
7, 73920, Note_on_c, 5, 67, 58
7, 74040, Note_off_c, 5, 67, 64
7, 74040, Note_on_c, 5, 71, 58
7, 74160, Note_off_c, 5, 71, 64
7, 74160, Note_on_c, 5, 69, 58
7, 74280, Note_off_c, 5, 69, 64
7, 74280, Note_on_c, 5, 67, 58
7, 74376, Note_off_c, 5, 67, 64
7, 74400, Note_on_c, 5, 66, 58
7, 74520, Note_off_c, 5, 66, 64
7, 74520, Note_on_c, 5, 63, 58
7, 74640, Note_off_c, 5, 63, 64
7, 74640, Note_on_c, 5, 64, 58
7, 74760, Note_off_c, 5, 64, 64
7, 74760, Note_on_c, 5, 66, 58
7, 74856, Note_off_c, 5, 66, 64
7, 74880, Note_on_c, 5, 67, 58
7, 75072, Note_off_c, 5, 67, 64
7, 75360, Note_on_c, 5, 84, 105
7, 75360, Note_on_c, 5, 67, 105
7, 75360, Note_on_c, 5, 76, 105
7, 75504, Note_off_c, 5, 76, 64
7, 75504, Note_off_c, 5, 67, 64
7, 75504, Note_off_c, 5, 84, 64
7, 75600, Note_on_c, 5, 84, 105
7, 75600, Note_on_c, 5, 67, 105
7, 75600, Note_on_c, 5, 76, 105
7, 75744, Note_off_c, 5, 76, 64
7, 75744, Note_off_c, 5, 67, 64
7, 75744, Note_off_c, 5, 84, 64
7, 75840, Note_on_c, 5, 67, 105
7, 75840, Note_on_c, 5, 84, 105
7, 75840, Note_on_c, 5, 76, 105
7, 76224, Note_off_c, 5, 76, 64
7, 76224, Note_off_c, 5, 84, 64
7, 76224, Note_off_c, 5, 67, 64
7, 76320, Note_on_c, 5, 79, 105
7, 76704, Note_off_c, 5, 79, 64
7, 76800, Note_on_c, 5, 76, 105
7, 76830, Note_off_c, 5, 76, 64
7, 76830, Note_on_c, 5, 77, 105
7, 76860, Note_off_c, 5, 77, 64
7, 76860, Note_on_c, 5, 79, 105
7, 77004, Note_off_c, 5, 79, 64
7, 77040, Note_on_c, 5, 79, 105
7, 77112, Note_off_c, 5, 79, 64
7, 77160, Note_on_c, 5, 79, 105
7, 77232, Note_off_c, 5, 79, 64
7, 77280, Note_on_c, 5, 79, 105
7, 77400, Note_off_c, 5, 79, 64
7, 77400, Note_on_c, 5, 76, 105
7, 77472, Note_off_c, 5, 76, 64
7, 77520, Note_on_c, 5, 76, 105
7, 77640, Note_off_c, 5, 76, 64
7, 77640, Note_on_c, 5, 72, 105
7, 77712, Note_off_c, 5, 72, 64
7, 77760, Note_on_c, 5, 71, 105
7, 77790, Note_off_c, 5, 71, 64
7, 77790, Note_on_c, 5, 72, 105
7, 77820, Note_off_c, 5, 72, 64
7, 77820, Note_on_c, 5, 74, 105
7, 77964, Note_off_c, 5, 74, 64
7, 78000, Note_on_c, 5, 74, 105
7, 78072, Note_off_c, 5, 74, 64
7, 78120, Note_on_c, 5, 74, 105
7, 78192, Note_off_c, 5, 74, 64
7, 78240, Note_on_c, 5, 74, 105
7, 78360, Note_off_c, 5, 74, 64
7, 78360, Note_on_c, 5, 71, 105
7, 78432, Note_off_c, 5, 71, 64
7, 78480, Note_on_c, 5, 72, 105
7, 78600, Note_off_c, 5, 72, 64
7, 78600, Note_on_c, 5, 69, 105
7, 78672, Note_off_c, 5, 69, 64
7, 78720, Note_on_c, 5, 67, 105
7, 78912, Note_off_c, 5, 67, 64
7, 79080, Note_on_c, 5, 62, 105
7, 79164, Note_off_c, 5, 62, 64
7, 79200, Note_on_c, 5, 64, 105
7, 79284, Note_off_c, 5, 64, 64
7, 79320, Note_on_c, 5, 60, 105
7, 79404, Note_off_c, 5, 60, 64
7, 79440, Note_on_c, 5, 66, 105
7, 79524, Note_off_c, 5, 66, 64
7, 79560, Note_on_c, 5, 62, 105
7, 79644, Note_off_c, 5, 62, 64
7, 79680, Note_on_c, 5, 67, 105
7, 79764, Note_off_c, 5, 67, 64
7, 79800, Note_on_c, 5, 64, 105
7, 79884, Note_off_c, 5, 64, 64
7, 79920, Note_on_c, 5, 69, 105
7, 80004, Note_off_c, 5, 69, 64
7, 80040, Note_on_c, 5, 66, 105
7, 80124, Note_off_c, 5, 66, 64
7, 80160, Note_on_c, 5, 71, 105
7, 80244, Note_off_c, 5, 71, 64
7, 80280, Note_on_c, 5, 67, 105
7, 80364, Note_off_c, 5, 67, 64
7, 80400, Note_on_c, 5, 72, 105
7, 80484, Note_off_c, 5, 72, 64
7, 80520, Note_on_c, 5, 69, 105
7, 80604, Note_off_c, 5, 69, 64
7, 80640, Note_on_c, 5, 74, 105
7, 80688, Note_off_c, 5, 74, 64
7, 80700, Note_on_c, 5, 74, 105
7, 80748, Note_off_c, 5, 74, 64
7, 80760, Note_on_c, 5, 74, 105
7, 80808, Note_off_c, 5, 74, 64
7, 80820, Note_on_c, 5, 74, 105
7, 80868, Note_off_c, 5, 74, 64
7, 80880, Note_on_c, 5, 79, 105
7, 80928, Note_off_c, 5, 79, 64
7, 80940, Note_on_c, 5, 79, 105
7, 80988, Note_off_c, 5, 79, 64
7, 81000, Note_on_c, 5, 79, 105
7, 81048, Note_off_c, 5, 79, 64
7, 81060, Note_on_c, 5, 79, 105
7, 81108, Note_off_c, 5, 79, 64
7, 81120, Note_on_c, 5, 78, 105
7, 81168, Note_off_c, 5, 78, 64
7, 81180, Note_on_c, 5, 78, 105
7, 81228, Note_off_c, 5, 78, 64
7, 81240, Note_on_c, 5, 78, 105
7, 81288, Note_off_c, 5, 78, 64
7, 81300, Note_on_c, 5, 78, 105
7, 81348, Note_off_c, 5, 78, 64
7, 81360, Note_on_c, 5, 84, 105
7, 81408, Note_off_c, 5, 84, 64
7, 81420, Note_on_c, 5, 84, 105
7, 81468, Note_off_c, 5, 84, 64
7, 81480, Note_on_c, 5, 84, 105
7, 81528, Note_off_c, 5, 84, 64
7, 81540, Note_on_c, 5, 84, 105
7, 81588, Note_off_c, 5, 84, 64
7, 81600, Note_on_c, 5, 83, 105
7, 81744, Note_off_c, 5, 83, 64
7, 81840, Note_on_c, 5, 81, 105
7, 81870, Note_off_c, 5, 81, 64
7, 81870, Note_on_c, 5, 79, 105
7, 81900, Note_off_c, 5, 79, 64
7, 81900, Note_on_c, 5, 81, 105
7, 81930, Note_off_c, 5, 81, 64
7, 81930, Note_on_c, 5, 79, 105
7, 81960, Note_off_c, 5, 79, 64
7, 81960, Note_on_c, 5, 81, 105
7, 81990, Note_off_c, 5, 81, 64
7, 81990, Note_on_c, 5, 79, 105
7, 82020, Note_off_c, 5, 79, 64
7, 82020, Note_on_c, 5, 78, 105
7, 82050, Note_off_c, 5, 78, 64
7, 82050, Note_on_c, 5, 79, 105
7, 82080, Note_off_c, 5, 79, 64
7, 82080, Note_on_c, 5, 81, 105
7, 82224, Note_off_c, 5, 81, 64
7, 82320, Note_on_c, 5, 62, 105
7, 82320, Note_on_c, 5, 69, 105
7, 82320, Note_on_c, 5, 78, 105
7, 82464, Note_off_c, 5, 78, 64
7, 82464, Note_off_c, 5, 69, 64
7, 82464, Note_off_c, 5, 62, 64
7, 82560, Note_on_c, 5, 71, 105
7, 82560, Note_on_c, 5, 79, 105
7, 82560, Note_on_c, 5, 62, 105
7, 82752, Note_off_c, 5, 62, 64
7, 82752, Note_off_c, 5, 79, 64
7, 82752, Note_off_c, 5, 71, 64
7, 82920, Note_on_c, 5, 74, 105
7, 83004, Note_off_c, 5, 74, 64
7, 83040, Note_on_c, 5, 64, 105
7, 83124, Note_off_c, 5, 64, 64
7, 83160, Note_on_c, 5, 76, 105
7, 83244, Note_off_c, 5, 76, 64
7, 83280, Note_on_c, 5, 66, 105
7, 83364, Note_off_c, 5, 66, 64
7, 83400, Note_on_c, 5, 78, 105
7, 83484, Note_off_c, 5, 78, 64
7, 83520, Note_on_c, 5, 67, 105
7, 83604, Note_off_c, 5, 67, 64
7, 83640, Note_on_c, 5, 79, 105
7, 83724, Note_off_c, 5, 79, 64
7, 83760, Note_on_c, 5, 69, 105
7, 83844, Note_off_c, 5, 69, 64
7, 83880, Note_on_c, 5, 81, 105
7, 83964, Note_off_c, 5, 81, 64
7, 84000, Note_on_c, 5, 71, 105
7, 84084, Note_off_c, 5, 71, 64
7, 84120, Note_on_c, 5, 83, 105
7, 84204, Note_off_c, 5, 83, 64
7, 84240, Note_on_c, 5, 72, 105
7, 84324, Note_off_c, 5, 72, 64
7, 84360, Note_on_c, 5, 84, 105
7, 84444, Note_off_c, 5, 84, 64
7, 84480, Note_on_c, 5, 86, 105
7, 84528, Note_off_c, 5, 86, 64
7, 84540, Note_on_c, 5, 86, 105
7, 84588, Note_off_c, 5, 86, 64
7, 84600, Note_on_c, 5, 86, 105
7, 84648, Note_off_c, 5, 86, 64
7, 84660, Note_on_c, 5, 86, 105
7, 84708, Note_off_c, 5, 86, 64
7, 84720, Note_on_c, 5, 83, 105
7, 84768, Note_off_c, 5, 83, 64
7, 84780, Note_on_c, 5, 83, 105
7, 84828, Note_off_c, 5, 83, 64
7, 84840, Note_on_c, 5, 83, 105
7, 84888, Note_off_c, 5, 83, 64
7, 84900, Note_on_c, 5, 83, 105
7, 84948, Note_off_c, 5, 83, 64
7, 84960, Note_on_c, 5, 84, 105
7, 85008, Note_off_c, 5, 84, 64
7, 85020, Note_on_c, 5, 84, 105
7, 85068, Note_off_c, 5, 84, 64
7, 85080, Note_on_c, 5, 84, 105
7, 85128, Note_off_c, 5, 84, 64
7, 85140, Note_on_c, 5, 84, 105
7, 85188, Note_off_c, 5, 84, 64
7, 85200, Note_on_c, 5, 81, 105
7, 85248, Note_off_c, 5, 81, 64
7, 85260, Note_on_c, 5, 81, 105
7, 85308, Note_off_c, 5, 81, 64
7, 85320, Note_on_c, 5, 81, 105
7, 85368, Note_off_c, 5, 81, 64
7, 85380, Note_on_c, 5, 81, 105
7, 85428, Note_off_c, 5, 81, 64
7, 85440, Note_on_c, 5, 83, 105
7, 85584, Note_off_c, 5, 83, 64
7, 85680, Note_on_c, 5, 81, 105
7, 85710, Note_off_c, 5, 81, 64
7, 85710, Note_on_c, 5, 79, 105
7, 85740, Note_off_c, 5, 79, 64
7, 85740, Note_on_c, 5, 81, 105
7, 85770, Note_off_c, 5, 81, 64
7, 85770, Note_on_c, 5, 79, 105
7, 85800, Note_off_c, 5, 79, 64
7, 85800, Note_on_c, 5, 81, 105
7, 85830, Note_off_c, 5, 81, 64
7, 85830, Note_on_c, 5, 79, 105
7, 85860, Note_off_c, 5, 79, 64
7, 85860, Note_on_c, 5, 78, 105
7, 85890, Note_off_c, 5, 78, 64
7, 85890, Note_on_c, 5, 79, 105
7, 85920, Note_off_c, 5, 79, 64
7, 85920, Note_on_c, 5, 81, 105
7, 86064, Note_off_c, 5, 81, 64
7, 86160, Note_on_c, 5, 78, 105
7, 86304, Note_off_c, 5, 78, 64
7, 86400, Note_on_c, 5, 79, 105
7, 86484, Note_off_c, 5, 79, 64
7, 86520, Note_on_c, 5, 79, 105
7, 86604, Note_off_c, 5, 79, 64
7, 86640, Note_on_c, 5, 79, 105
7, 86724, Note_off_c, 5, 79, 64
7, 86760, Note_on_c, 5, 79, 105
7, 86844, Note_off_c, 5, 79, 64
7, 86880, Note_on_c, 5, 79, 105
7, 87072, Note_off_c, 5, 79, 64
7, 87120, Note_on_c, 5, 81, 125
7, 87150, Note_off_c, 5, 81, 64
7, 87150, Note_on_c, 5, 79, 105
7, 87180, Note_off_c, 5, 79, 64
7, 87180, Note_on_c, 5, 81, 105
7, 87210, Note_off_c, 5, 81, 64
7, 87210, Note_on_c, 5, 79, 105
7, 87240, Note_off_c, 5, 79, 64
7, 87240, Note_on_c, 5, 81, 105
7, 87270, Note_off_c, 5, 81, 64
7, 87270, Note_on_c, 5, 79, 105
7, 87300, Note_off_c, 5, 79, 64
7, 87300, Note_on_c, 5, 78, 105
7, 87330, Note_off_c, 5, 78, 64
7, 87330, Note_on_c, 5, 79, 105
7, 87354, Note_off_c, 5, 79, 64
7, 87360, Note_on_c, 5, 83, 105
7, 87444, Note_off_c, 5, 83, 64
7, 87480, Note_on_c, 5, 79, 105
7, 87564, Note_off_c, 5, 79, 64
7, 87600, Note_on_c, 5, 79, 105
7, 87684, Note_off_c, 5, 79, 64
7, 87720, Note_on_c, 5, 79, 105
7, 87804, Note_off_c, 5, 79, 64
7, 87840, Note_on_c, 5, 79, 105
7, 88032, Note_off_c, 5, 79, 64
7, 88080, Note_on_c, 5, 81, 125
7, 88110, Note_off_c, 5, 81, 64
7, 88110, Note_on_c, 5, 79, 105
7, 88140, Note_off_c, 5, 79, 64
7, 88140, Note_on_c, 5, 81, 105
7, 88170, Note_off_c, 5, 81, 64
7, 88170, Note_on_c, 5, 79, 105
7, 88200, Note_off_c, 5, 79, 64
7, 88200, Note_on_c, 5, 81, 105
7, 88230, Note_off_c, 5, 81, 64
7, 88230, Note_on_c, 5, 79, 105
7, 88260, Note_off_c, 5, 79, 64
7, 88260, Note_on_c, 5, 78, 105
7, 88290, Note_off_c, 5, 78, 64
7, 88290, Note_on_c, 5, 79, 105
7, 88314, Note_off_c, 5, 79, 64
7, 88320, Note_on_c, 5, 86, 105
7, 88404, Note_off_c, 5, 86, 64
7, 88440, Note_on_c, 5, 79, 105
7, 88524, Note_off_c, 5, 79, 64
7, 88560, Note_on_c, 5, 79, 105
7, 88644, Note_off_c, 5, 79, 64
7, 88680, Note_on_c, 5, 79, 105
7, 88764, Note_off_c, 5, 79, 64
7, 88800, Note_on_c, 5, 79, 105
7, 88992, Note_off_c, 5, 79, 64
7, 89040, Note_on_c, 5, 81, 105
7, 89070, Note_off_c, 5, 81, 64
7, 89070, Note_on_c, 5, 79, 105
7, 89100, Note_off_c, 5, 79, 64
7, 89100, Note_on_c, 5, 81, 105
7, 89130, Note_off_c, 5, 81, 64
7, 89130, Note_on_c, 5, 79, 105
7, 89160, Note_off_c, 5, 79, 64
7, 89160, Note_on_c, 5, 81, 105
7, 89190, Note_off_c, 5, 81, 64
7, 89190, Note_on_c, 5, 79, 105
7, 89220, Note_off_c, 5, 79, 64
7, 89220, Note_on_c, 5, 78, 105
7, 89250, Note_off_c, 5, 78, 64
7, 89250, Note_on_c, 5, 79, 105
7, 89274, Note_off_c, 5, 79, 64
7, 89280, Note_on_c, 5, 76, 105
7, 89600, Note_off_c, 5, 76, 64
7, 89600, Note_on_c, 5, 77, 105
7, 89640, Note_off_c, 5, 77, 64
7, 89640, Note_on_c, 5, 79, 105
7, 89680, Note_off_c, 5, 79, 64
7, 89680, Note_on_c, 5, 81, 105
7, 89720, Note_off_c, 5, 81, 64
7, 89720, Note_on_c, 5, 83, 105
7, 89760, Note_off_c, 5, 83, 64
7, 89760, Note_on_c, 5, 84, 105
7, 89904, Note_off_c, 5, 84, 64
7, 90000, Note_on_c, 5, 76, 105
7, 90144, Note_off_c, 5, 76, 64
7, 90240, Note_on_c, 5, 62, 105
7, 90240, Note_on_c, 5, 74, 105
7, 90384, Note_off_c, 5, 74, 64
7, 90384, Note_off_c, 5, 62, 64
7, 90480, Note_on_c, 5, 74, 105
7, 90480, Note_on_c, 5, 84, 105
7, 90624, Note_off_c, 5, 84, 64
7, 90624, Note_off_c, 5, 74, 64
7, 90960, Note_on_c, 5, 83, 105
7, 91128, Note_off_c, 5, 83, 64
7, 91200, Note_on_c, 5, 83, 105
7, 91320, Note_off_c, 5, 83, 64
7, 91320, Note_on_c, 5, 81, 105
7, 91440, Note_off_c, 5, 81, 64
7, 91440, Note_on_c, 5, 79, 105
7, 91824, Note_off_c, 5, 79, 64
7, 91920, Note_on_c, 5, 78, 105
7, 92088, Note_off_c, 5, 78, 64
7, 92160, Note_on_c, 5, 79, 105
7, 92244, Note_off_c, 5, 79, 64
7, 92280, Note_on_c, 5, 79, 105
7, 92364, Note_off_c, 5, 79, 64
7, 92400, Note_on_c, 5, 79, 105
7, 92484, Note_off_c, 5, 79, 64
7, 92520, Note_on_c, 5, 79, 105
7, 92604, Note_off_c, 5, 79, 64
7, 92640, Note_on_c, 5, 79, 105
7, 92832, Note_off_c, 5, 79, 64
7, 92880, Note_on_c, 5, 81, 125
7, 92910, Note_off_c, 5, 81, 64
7, 92910, Note_on_c, 5, 79, 105
7, 92940, Note_off_c, 5, 79, 64
7, 92940, Note_on_c, 5, 81, 105
7, 92970, Note_off_c, 5, 81, 64
7, 92970, Note_on_c, 5, 79, 105
7, 93000, Note_off_c, 5, 79, 64
7, 93000, Note_on_c, 5, 81, 105
7, 93030, Note_off_c, 5, 81, 64
7, 93030, Note_on_c, 5, 79, 105
7, 93060, Note_off_c, 5, 79, 64
7, 93060, Note_on_c, 5, 78, 105
7, 93090, Note_off_c, 5, 78, 64
7, 93090, Note_on_c, 5, 79, 105
7, 93114, Note_off_c, 5, 79, 64
7, 93120, Note_on_c, 5, 83, 105
7, 93204, Note_off_c, 5, 83, 64
7, 93240, Note_on_c, 5, 79, 105
7, 93324, Note_off_c, 5, 79, 64
7, 93360, Note_on_c, 5, 79, 105
7, 93444, Note_off_c, 5, 79, 64
7, 93480, Note_on_c, 5, 79, 105
7, 93564, Note_off_c, 5, 79, 64
7, 93600, Note_on_c, 5, 79, 105
7, 93792, Note_off_c, 5, 79, 64
7, 93840, Note_on_c, 5, 81, 125
7, 93870, Note_off_c, 5, 81, 64
7, 93870, Note_on_c, 5, 79, 105
7, 93900, Note_off_c, 5, 79, 64
7, 93900, Note_on_c, 5, 81, 105
7, 93930, Note_off_c, 5, 81, 64
7, 93930, Note_on_c, 5, 79, 105
7, 93960, Note_off_c, 5, 79, 64
7, 93960, Note_on_c, 5, 81, 105
7, 93990, Note_off_c, 5, 81, 64
7, 93990, Note_on_c, 5, 79, 105
7, 94020, Note_off_c, 5, 79, 64
7, 94020, Note_on_c, 5, 78, 105
7, 94050, Note_off_c, 5, 78, 64
7, 94050, Note_on_c, 5, 79, 105
7, 94074, Note_off_c, 5, 79, 64
7, 94080, Note_on_c, 5, 86, 105
7, 94164, Note_off_c, 5, 86, 64
7, 94200, Note_on_c, 5, 79, 105
7, 94284, Note_off_c, 5, 79, 64
7, 94320, Note_on_c, 5, 79, 105
7, 94404, Note_off_c, 5, 79, 64
7, 94440, Note_on_c, 5, 79, 105
7, 94524, Note_off_c, 5, 79, 64
7, 94560, Note_on_c, 5, 79, 105
7, 94752, Note_off_c, 5, 79, 64
7, 94800, Note_on_c, 5, 81, 105
7, 94830, Note_off_c, 5, 81, 64
7, 94830, Note_on_c, 5, 79, 105
7, 94860, Note_off_c, 5, 79, 64
7, 94860, Note_on_c, 5, 81, 105
7, 94890, Note_off_c, 5, 81, 64
7, 94890, Note_on_c, 5, 79, 105
7, 94920, Note_off_c, 5, 79, 64
7, 94920, Note_on_c, 5, 81, 105
7, 94950, Note_off_c, 5, 81, 64
7, 94950, Note_on_c, 5, 79, 105
7, 94980, Note_off_c, 5, 79, 64
7, 94980, Note_on_c, 5, 78, 105
7, 95010, Note_off_c, 5, 78, 64
7, 95010, Note_on_c, 5, 79, 105
7, 95034, Note_off_c, 5, 79, 64
7, 95040, Note_on_c, 5, 76, 105
7, 95360, Note_off_c, 5, 76, 64
7, 95360, Note_on_c, 5, 77, 105
7, 95400, Note_off_c, 5, 77, 64
7, 95400, Note_on_c, 5, 79, 105
7, 95440, Note_off_c, 5, 79, 64
7, 95440, Note_on_c, 5, 81, 105
7, 95480, Note_off_c, 5, 81, 64
7, 95480, Note_on_c, 5, 83, 105
7, 95520, Note_off_c, 5, 83, 64
7, 95520, Note_on_c, 5, 84, 105
7, 95664, Note_off_c, 5, 84, 64
7, 95760, Note_on_c, 5, 76, 105
7, 95904, Note_off_c, 5, 76, 64
7, 96000, Note_on_c, 5, 62, 105
7, 96000, Note_on_c, 5, 74, 105
7, 96144, Note_off_c, 5, 74, 64
7, 96144, Note_off_c, 5, 62, 64
7, 96240, Note_on_c, 5, 74, 105
7, 96240, Note_on_c, 5, 84, 105
7, 96384, Note_off_c, 5, 84, 64
7, 96384, Note_off_c, 5, 74, 64
7, 96720, Note_on_c, 5, 75, 72
7, 96960, Note_off_c, 5, 75, 64
7, 96960, Note_on_c, 5, 74, 58
7, 97104, Note_off_c, 5, 74, 64
7, 97200, Note_on_c, 5, 84, 58
7, 97344, Note_off_c, 5, 84, 64
7, 100320, Note_on_c, 5, 69, 58
7, 100560, Note_off_c, 5, 69, 64
7, 100560, Note_on_c, 5, 71, 58
7, 100656, Note_off_c, 5, 71, 64
7, 100800, Note_on_c, 5, 74, 58
7, 101040, Note_off_c, 5, 74, 64
7, 101040, Note_on_c, 5, 72, 58
7, 101136, Note_off_c, 5, 72, 64
7, 101280, Note_on_c, 5, 72, 58
7, 101520, Note_off_c, 5, 72, 64
7, 101520, Note_on_c, 5, 69, 58
7, 101616, Note_off_c, 5, 69, 64
7, 101760, Note_on_c, 5, 55, 105
7, 101760, Note_on_c, 5, 67, 105
7, 102048, Note_off_c, 5, 67, 64
7, 102048, Note_off_c, 5, 55, 64
7, 102120, Note_on_c, 5, 71, 105
7, 102180, Note_off_c, 5, 71, 64
7, 102180, Note_on_c, 5, 74, 105
7, 102228, Note_off_c, 5, 74, 64
7, 102240, Note_on_c, 5, 79, 105
7, 102324, Note_off_c, 5, 79, 64
7, 102360, Note_on_c, 5, 81, 105
7, 102444, Note_off_c, 5, 81, 64
7, 102480, Note_on_c, 5, 83, 105
7, 102564, Note_off_c, 5, 83, 64
7, 102600, Note_on_c, 5, 84, 105
7, 102684, Note_off_c, 5, 84, 64
7, 102720, Note_on_c, 5, 86, 105
7, 103008, Note_off_c, 5, 86, 64
7, 103080, Note_on_c, 5, 85, 105
7, 103164, Note_off_c, 5, 85, 64
7, 103200, Note_on_c, 5, 86, 105
7, 103284, Note_off_c, 5, 86, 64
7, 103320, Note_on_c, 5, 85, 105
7, 103404, Note_off_c, 5, 85, 64
7, 103440, Note_on_c, 5, 86, 105
7, 103524, Note_off_c, 5, 86, 64
7, 103560, Note_on_c, 5, 85, 105
7, 103644, Note_off_c, 5, 85, 64
7, 103680, Note_on_c, 5, 86, 105
7, 103764, Note_off_c, 5, 86, 64
7, 103800, Note_on_c, 5, 86, 105
7, 103884, Note_off_c, 5, 86, 64
7, 103920, Note_on_c, 5, 83, 105
7, 104004, Note_off_c, 5, 83, 64
7, 104040, Note_on_c, 5, 83, 105
7, 104124, Note_off_c, 5, 83, 64
7, 104160, Note_on_c, 5, 84, 105
7, 104244, Note_off_c, 5, 84, 64
7, 104280, Note_on_c, 5, 84, 105
7, 104364, Note_off_c, 5, 84, 64
7, 104400, Note_on_c, 5, 81, 105
7, 104484, Note_off_c, 5, 81, 64
7, 104520, Note_on_c, 5, 81, 105
7, 104604, Note_off_c, 5, 81, 64
7, 104640, Note_on_c, 5, 79, 105
7, 104832, Note_off_c, 5, 79, 64
7, 105000, Note_on_c, 5, 74, 105
7, 105040, Note_off_c, 5, 74, 64
7, 105040, Note_on_c, 5, 76, 105
7, 105080, Note_off_c, 5, 76, 64
7, 105080, Note_on_c, 5, 78, 105
7, 105120, Note_off_c, 5, 78, 64
7, 105120, Note_on_c, 5, 79, 105
7, 105204, Note_off_c, 5, 79, 64
7, 105240, Note_on_c, 5, 81, 105
7, 105324, Note_off_c, 5, 81, 64
7, 105360, Note_on_c, 5, 83, 105
7, 105444, Note_off_c, 5, 83, 64
7, 105480, Note_on_c, 5, 84, 105
7, 105564, Note_off_c, 5, 84, 64
7, 105600, Note_on_c, 5, 86, 105
7, 105672, Note_off_c, 5, 86, 64
7, 105720, Note_on_c, 5, 86, 105
7, 105912, Note_off_c, 5, 86, 64
7, 105960, Note_on_c, 5, 85, 105
7, 106044, Note_off_c, 5, 85, 64
7, 106080, Note_on_c, 5, 86, 105
7, 106164, Note_off_c, 5, 86, 64
7, 106200, Note_on_c, 5, 85, 105
7, 106284, Note_off_c, 5, 85, 64
7, 106320, Note_on_c, 5, 86, 105
7, 106404, Note_off_c, 5, 86, 64
7, 106440, Note_on_c, 5, 85, 105
7, 106524, Note_off_c, 5, 85, 64
7, 106560, Note_on_c, 5, 86, 105
7, 106644, Note_off_c, 5, 86, 64
7, 106680, Note_on_c, 5, 86, 105
7, 106764, Note_off_c, 5, 86, 64
7, 106800, Note_on_c, 5, 83, 105
7, 106884, Note_off_c, 5, 83, 64
7, 106920, Note_on_c, 5, 83, 105
7, 107004, Note_off_c, 5, 83, 64
7, 107040, Note_on_c, 5, 84, 105
7, 107124, Note_off_c, 5, 84, 64
7, 107160, Note_on_c, 5, 84, 105
7, 107244, Note_off_c, 5, 84, 64
7, 107280, Note_on_c, 5, 81, 105
7, 107364, Note_off_c, 5, 81, 64
7, 107400, Note_on_c, 5, 81, 105
7, 107484, Note_off_c, 5, 81, 64
7, 107520, Note_on_c, 5, 86, 58
7, 107616, Note_off_c, 5, 86, 64
7, 107760, Note_on_c, 5, 83, 58
7, 107856, Note_off_c, 5, 83, 64
7, 108000, Note_on_c, 5, 84, 58
7, 108096, Note_off_c, 5, 84, 64
7, 108240, Note_on_c, 5, 81, 58
7, 108336, Note_off_c, 5, 81, 64
7, 108480, Note_on_c, 5, 86, 105
7, 108528, Note_off_c, 5, 86, 64
7, 108540, Note_on_c, 5, 86, 105
7, 108588, Note_off_c, 5, 86, 64
7, 108600, Note_on_c, 5, 86, 105
7, 108648, Note_off_c, 5, 86, 64
7, 108660, Note_on_c, 5, 86, 105
7, 108708, Note_off_c, 5, 86, 64
7, 108720, Note_on_c, 5, 83, 105
7, 108768, Note_off_c, 5, 83, 64
7, 108780, Note_on_c, 5, 83, 105
7, 108828, Note_off_c, 5, 83, 64
7, 108840, Note_on_c, 5, 83, 105
7, 108888, Note_off_c, 5, 83, 64
7, 108900, Note_on_c, 5, 83, 105
7, 108948, Note_off_c, 5, 83, 64
7, 108960, Note_on_c, 5, 84, 105
7, 109008, Note_off_c, 5, 84, 64
7, 109020, Note_on_c, 5, 84, 105
7, 109068, Note_off_c, 5, 84, 64
7, 109080, Note_on_c, 5, 84, 105
7, 109128, Note_off_c, 5, 84, 64
7, 109140, Note_on_c, 5, 84, 105
7, 109188, Note_off_c, 5, 84, 64
7, 109200, Note_on_c, 5, 81, 105
7, 109248, Note_off_c, 5, 81, 64
7, 109260, Note_on_c, 5, 81, 105
7, 109308, Note_off_c, 5, 81, 64
7, 109320, Note_on_c, 5, 81, 105
7, 109368, Note_off_c, 5, 81, 64
7, 109380, Note_on_c, 5, 81, 105
7, 109428, Note_off_c, 5, 81, 64
7, 109440, Note_on_c, 5, 79, 105
7, 109632, Note_off_c, 5, 79, 64
7, 109800, Note_on_c, 5, 67, 72
7, 109896, Note_off_c, 5, 67, 64
7, 109920, Note_on_c, 5, 71, 72
7, 110040, Note_off_c, 5, 71, 64
7, 110040, Note_on_c, 5, 69, 72
7, 110160, Note_off_c, 5, 69, 64
7, 110160, Note_on_c, 5, 72, 72
7, 110280, Note_off_c, 5, 72, 64
7, 110280, Note_on_c, 5, 71, 72
7, 110400, Note_off_c, 5, 71, 64
7, 110400, Note_on_c, 5, 74, 72
7, 110520, Note_off_c, 5, 74, 64
7, 110520, Note_on_c, 5, 72, 72
7, 110640, Note_off_c, 5, 72, 64
7, 110640, Note_on_c, 5, 76, 72
7, 110760, Note_off_c, 5, 76, 64
7, 110760, Note_on_c, 5, 74, 72
7, 110880, Note_off_c, 5, 74, 64
7, 110880, Note_on_c, 5, 77, 72
7, 111000, Note_off_c, 5, 77, 64
7, 111000, Note_on_c, 5, 76, 72
7, 111120, Note_off_c, 5, 76, 64
7, 111120, Note_on_c, 5, 81, 72
7, 111240, Note_off_c, 5, 81, 64
7, 111240, Note_on_c, 5, 79, 72
7, 111336, Note_off_c, 5, 79, 64
7, 111360, Note_on_c, 5, 79, 72
7, 111936, Note_off_c, 5, 79, 64
7, 111960, Note_on_c, 5, 77, 72
7, 112080, Note_off_c, 5, 77, 64
7, 112080, Note_on_c, 5, 76, 72
7, 112200, Note_off_c, 5, 76, 64
7, 112200, Note_on_c, 5, 74, 72
7, 112320, Note_off_c, 5, 74, 64
7, 112320, Note_on_c, 5, 72, 72
7, 112440, Note_off_c, 5, 72, 64
7, 112440, Note_on_c, 5, 71, 72
7, 112560, Note_off_c, 5, 71, 64
7, 112560, Note_on_c, 5, 69, 72
7, 112680, Note_off_c, 5, 69, 64
7, 112680, Note_on_c, 5, 67, 72
7, 112800, Note_off_c, 5, 67, 64
7, 112800, Note_on_c, 5, 66, 72
7, 112920, Note_off_c, 5, 66, 64
7, 112920, Note_on_c, 5, 67, 72
7, 113040, Note_off_c, 5, 67, 64
7, 113040, Note_on_c, 5, 69, 72
7, 113160, Note_off_c, 5, 69, 64
7, 113160, Note_on_c, 5, 65, 72
7, 113256, Note_off_c, 5, 65, 64
7, 113280, Note_on_c, 5, 64, 72
7, 114240, Note_off_c, 5, 64, 64
7, 114240, Note_on_c, 5, 65, 72
7, 115152, Note_off_c, 5, 65, 64
7, 115200, Note_on_c, 5, 67, 72
7, 115560, Note_off_c, 5, 67, 64
7, 115560, Note_on_c, 5, 69, 72
7, 115620, Note_off_c, 5, 69, 64
7, 115620, Note_on_c, 5, 71, 72
7, 115680, Note_off_c, 5, 71, 64
7, 115680, Note_on_c, 5, 72, 72
7, 115824, Note_off_c, 5, 72, 64
7, 115920, Note_on_c, 5, 67, 72
7, 116064, Note_off_c, 5, 67, 64
7, 116160, Note_on_c, 5, 71, 72
7, 116220, Note_off_c, 5, 71, 64
7, 116220, Note_on_c, 5, 69, 72
7, 116328, Note_off_c, 5, 69, 64
7, 116400, Note_on_c, 5, 67, 72
7, 116544, Note_off_c, 5, 67, 64
7, 117120, Note_on_c, 5, 72, 72
7, 118080, Note_off_c, 5, 72, 64
7, 118080, Note_on_c, 5, 70, 72
7, 118992, Note_off_c, 5, 70, 64
7, 119040, Note_on_c, 5, 69, 72
7, 119232, Note_off_c, 5, 69, 64
7, 119280, Note_on_c, 5, 72, 72
7, 119310, Note_off_c, 5, 72, 64
7, 119310, Note_on_c, 5, 71, 72
7, 119340, Note_off_c, 5, 71, 64
7, 119340, Note_on_c, 5, 72, 72
7, 119370, Note_off_c, 5, 72, 64
7, 119370, Note_on_c, 5, 71, 72
7, 119400, Note_off_c, 5, 71, 64
7, 119400, Note_on_c, 5, 69, 72
7, 119460, Note_off_c, 5, 69, 64
7, 119460, Note_on_c, 5, 71, 72
7, 119520, Note_off_c, 5, 71, 64
7, 119520, Note_on_c, 5, 72, 72
7, 119664, Note_off_c, 5, 72, 64
7, 119760, Note_on_c, 5, 74, 72
7, 119904, Note_off_c, 5, 74, 64
7, 120000, Note_on_c, 5, 77, 72
7, 120120, Note_off_c, 5, 77, 64
7, 120120, Note_on_c, 5, 76, 72
7, 120192, Note_off_c, 5, 76, 64
7, 120240, Note_on_c, 5, 75, 72
7, 120312, Note_off_c, 5, 75, 64
7, 120360, Note_on_c, 5, 76, 72
7, 120432, Note_off_c, 5, 76, 64
7, 120480, Note_on_c, 5, 74, 72
7, 120600, Note_off_c, 5, 74, 64
7, 120600, Note_on_c, 5, 72, 72
7, 120672, Note_off_c, 5, 72, 64
7, 120720, Note_on_c, 5, 71, 72
7, 120792, Note_off_c, 5, 71, 64
7, 120840, Note_on_c, 5, 72, 72
7, 120912, Note_off_c, 5, 72, 64
7, 120960, Note_on_c, 5, 71, 72
7, 121080, Note_off_c, 5, 71, 64
7, 121080, Note_on_c, 5, 69, 72
7, 121152, Note_off_c, 5, 69, 64
7, 121200, Note_on_c, 5, 68, 72
7, 121272, Note_off_c, 5, 68, 64
7, 121320, Note_on_c, 5, 69, 72
7, 121392, Note_off_c, 5, 69, 64
7, 121440, Note_on_c, 5, 67, 72
7, 121560, Note_off_c, 5, 67, 64
7, 121560, Note_on_c, 5, 65, 72
7, 121632, Note_off_c, 5, 65, 64
7, 121680, Note_on_c, 5, 64, 72
7, 121752, Note_off_c, 5, 64, 64
7, 121800, Note_on_c, 5, 65, 72
7, 121872, Note_off_c, 5, 65, 64
7, 121920, Note_on_c, 5, 64, 72
7, 122400, Note_off_c, 5, 64, 64
7, 122400, Note_on_c, 5, 62, 58
7, 122592, Note_off_c, 5, 62, 64
7, 122880, Note_on_c, 5, 76, 127
7, 123024, Note_off_c, 5, 76, 64
7, 123120, Note_on_c, 5, 64, 127
7, 123696, Note_off_c, 5, 64, 64
7, 123840, Note_on_c, 5, 77, 127
7, 123984, Note_off_c, 5, 77, 64
7, 124080, Note_on_c, 5, 65, 127
7, 124656, Note_off_c, 5, 65, 64
7, 124800, Note_on_c, 5, 79, 127
7, 125160, Note_off_c, 5, 79, 64
7, 125160, Note_on_c, 5, 81, 116
7, 125220, Note_off_c, 5, 81, 64
7, 125220, Note_on_c, 5, 83, 116
7, 125268, Note_off_c, 5, 83, 64
7, 125280, Note_on_c, 5, 84, 116
7, 125424, Note_off_c, 5, 84, 64
7, 125520, Note_on_c, 5, 79, 116
7, 125664, Note_off_c, 5, 79, 64
7, 125760, Note_on_c, 5, 65, 105
7, 125760, Note_on_c, 5, 72, 105
7, 125760, Note_on_c, 5, 81, 105
7, 125928, Note_off_c, 5, 81, 64
7, 125928, Note_off_c, 5, 72, 64
7, 125928, Note_off_c, 5, 65, 64
7, 126000, Note_on_c, 5, 79, 105
7, 126000, Note_on_c, 5, 64, 105
7, 126000, Note_on_c, 5, 72, 105
7, 126168, Note_off_c, 5, 72, 64
7, 126168, Note_off_c, 5, 64, 64
7, 126168, Note_off_c, 5, 79, 64
7, 126240, Note_on_c, 5, 84, 125
7, 126408, Note_off_c, 5, 84, 64
7, 126480, Note_on_c, 5, 79, 105
7, 126480, Note_on_c, 5, 64, 105
7, 126480, Note_on_c, 5, 72, 105
7, 126648, Note_off_c, 5, 72, 64
7, 126648, Note_off_c, 5, 64, 64
7, 126648, Note_off_c, 5, 79, 64
7, 126720, Note_on_c, 5, 65, 105
7, 126720, Note_on_c, 5, 72, 105
7, 126720, Note_on_c, 5, 81, 105
7, 126888, Note_off_c, 5, 81, 64
7, 126888, Note_off_c, 5, 72, 64
7, 126888, Note_off_c, 5, 65, 64
7, 126960, Note_on_c, 5, 79, 105
7, 126960, Note_on_c, 5, 64, 105
7, 126960, Note_on_c, 5, 72, 105
7, 127128, Note_off_c, 5, 72, 64
7, 127128, Note_off_c, 5, 64, 64
7, 127128, Note_off_c, 5, 79, 64
7, 127200, Note_on_c, 5, 84, 125
7, 127368, Note_off_c, 5, 84, 64
7, 127440, Note_on_c, 5, 79, 105
7, 127440, Note_on_c, 5, 64, 105
7, 127440, Note_on_c, 5, 72, 105
7, 127608, Note_off_c, 5, 72, 64
7, 127608, Note_off_c, 5, 64, 64
7, 127608, Note_off_c, 5, 79, 64
7, 127680, Note_on_c, 5, 72, 105
7, 127680, Note_on_c, 5, 65, 105
7, 127680, Note_on_c, 5, 81, 105
7, 127848, Note_off_c, 5, 81, 64
7, 127848, Note_off_c, 5, 65, 64
7, 127848, Note_off_c, 5, 72, 64
7, 127920, Note_on_c, 5, 79, 105
7, 127920, Note_on_c, 5, 72, 105
7, 127920, Note_on_c, 5, 64, 105
7, 128088, Note_off_c, 5, 64, 64
7, 128088, Note_off_c, 5, 72, 64
7, 128088, Note_off_c, 5, 79, 64
7, 128160, Note_on_c, 5, 81, 105
7, 128160, Note_on_c, 5, 72, 105
7, 128160, Note_on_c, 5, 65, 105
7, 128328, Note_off_c, 5, 65, 64
7, 128328, Note_off_c, 5, 72, 64
7, 128328, Note_off_c, 5, 81, 64
7, 128400, Note_on_c, 5, 72, 105
7, 128400, Note_on_c, 5, 64, 105
7, 128400, Note_on_c, 5, 79, 105
7, 128568, Note_off_c, 5, 79, 64
7, 128568, Note_off_c, 5, 64, 64
7, 128568, Note_off_c, 5, 72, 64
7, 128640, Note_on_c, 5, 65, 105
7, 128640, Note_on_c, 5, 72, 105
7, 128640, Note_on_c, 5, 81, 105
7, 128808, Note_off_c, 5, 81, 64
7, 128808, Note_off_c, 5, 72, 64
7, 128808, Note_off_c, 5, 65, 64
7, 128880, Note_on_c, 5, 72, 105
7, 128880, Note_on_c, 5, 64, 105
7, 128880, Note_on_c, 5, 79, 105
7, 129048, Note_off_c, 5, 79, 64
7, 129048, Note_off_c, 5, 64, 64
7, 129048, Note_off_c, 5, 72, 64
7, 129600, Note_on_c, 5, 84, 72
7, 130560, Note_off_c, 5, 84, 64
7, 130560, Note_on_c, 5, 82, 72
7, 131328, Note_off_c, 5, 82, 64
7, 131520, Note_on_c, 5, 80, 72
7, 131640, Note_off_c, 5, 80, 64
7, 131640, Note_on_c, 5, 81, 72
7, 131760, Note_off_c, 5, 81, 64
7, 131760, Note_on_c, 5, 84, 72
7, 131880, Note_off_c, 5, 84, 64
7, 131880, Note_on_c, 5, 81, 72
7, 131976, Note_off_c, 5, 81, 64
7, 132000, Note_on_c, 5, 76, 72
7, 132120, Note_off_c, 5, 76, 64
7, 132120, Note_on_c, 5, 77, 72
7, 132240, Note_off_c, 5, 77, 64
7, 132240, Note_on_c, 5, 81, 72
7, 132360, Note_off_c, 5, 81, 64
7, 132360, Note_on_c, 5, 77, 72
7, 132456, Note_off_c, 5, 77, 64
7, 132480, Note_on_c, 5, 73, 72
7, 132600, Note_off_c, 5, 73, 64
7, 132600, Note_on_c, 5, 74, 72
7, 132720, Note_off_c, 5, 74, 64
7, 132720, Note_on_c, 5, 77, 72
7, 132840, Note_off_c, 5, 77, 64
7, 132840, Note_on_c, 5, 76, 72
7, 132936, Note_off_c, 5, 76, 64
7, 132960, Note_on_c, 5, 79, 72
7, 133080, Note_off_c, 5, 79, 64
7, 133080, Note_on_c, 5, 77, 72
7, 133200, Note_off_c, 5, 77, 64
7, 133200, Note_on_c, 5, 76, 72
7, 133320, Note_off_c, 5, 76, 64
7, 133320, Note_on_c, 5, 74, 72
7, 133416, Note_off_c, 5, 74, 64
7, 133440, Note_on_c, 5, 79, 72
7, 133560, Note_off_c, 5, 79, 64
7, 133560, Note_on_c, 5, 76, 72
7, 133680, Note_off_c, 5, 76, 64
7, 133680, Note_on_c, 5, 72, 72
7, 134064, Note_off_c, 5, 72, 64
7, 134160, Note_on_c, 5, 71, 72
7, 134352, Note_off_c, 5, 71, 64
7, 134400, Note_on_c, 5, 72, 92
7, 134592, Note_off_c, 5, 72, 64
7, 135360, Note_on_c, 5, 79, 105
7, 135528, Note_off_c, 5, 79, 64
7, 135600, Note_on_c, 5, 79, 105
7, 135726, Note_off_c, 5, 79, 64
7, 135780, Note_on_c, 5, 79, 105
7, 135822, Note_off_c, 5, 79, 64
7, 135840, Note_on_c, 5, 79, 105
7, 136008, Note_off_c, 5, 79, 64
7, 136080, Note_on_c, 5, 79, 105
7, 136248, Note_off_c, 5, 79, 64
7, 136320, Note_on_c, 5, 84, 105
7, 136704, Note_off_c, 5, 84, 64
7, 136800, Note_on_c, 5, 76, 105
7, 137184, Note_off_c, 5, 76, 64
7, 137280, Note_on_c, 5, 74, 105
7, 137640, Note_off_c, 5, 74, 64
7, 137640, Note_on_c, 5, 77, 105
7, 137700, Note_off_c, 5, 77, 64
7, 137700, Note_on_c, 5, 81, 105
7, 137748, Note_off_c, 5, 81, 64
7, 137760, Note_on_c, 5, 72, 105
7, 138000, Note_off_c, 5, 72, 64
7, 138000, Note_on_c, 5, 71, 105
7, 138228, Note_off_c, 5, 71, 64
7, 138240, Note_on_c, 5, 72, 105
7, 138432, Note_off_c, 5, 72, 64
7, 139200, Note_on_c, 5, 79, 105
7, 139368, Note_off_c, 5, 79, 64
7, 139440, Note_on_c, 5, 79, 105
7, 139566, Note_off_c, 5, 79, 64
7, 139620, Note_on_c, 5, 79, 105
7, 139662, Note_off_c, 5, 79, 64
7, 139680, Note_on_c, 5, 79, 105
7, 139848, Note_off_c, 5, 79, 64
7, 139920, Note_on_c, 5, 79, 105
7, 140088, Note_off_c, 5, 79, 64
7, 140160, Note_on_c, 5, 84, 105
7, 140544, Note_off_c, 5, 84, 64
7, 140640, Note_on_c, 5, 76, 105
7, 141024, Note_off_c, 5, 76, 64
7, 141120, Note_on_c, 5, 74, 105
7, 141288, Note_off_c, 5, 74, 64
7, 141360, Note_on_c, 5, 74, 105
7, 141486, Note_off_c, 5, 74, 64
7, 141540, Note_on_c, 5, 74, 105
7, 141582, Note_off_c, 5, 74, 64
7, 141600, Note_on_c, 5, 74, 105
7, 141768, Note_off_c, 5, 74, 64
7, 141840, Note_on_c, 5, 74, 105
7, 142008, Note_off_c, 5, 74, 64
7, 142080, Note_on_c, 5, 83, 105
7, 142464, Note_off_c, 5, 83, 64
7, 142560, Note_on_c, 5, 74, 105
7, 142944, Note_off_c, 5, 74, 64
7, 143040, Note_on_c, 5, 72, 105
7, 143208, Note_off_c, 5, 72, 64
7, 143280, Note_on_c, 5, 72, 105
7, 143406, Note_off_c, 5, 72, 64
7, 143460, Note_on_c, 5, 72, 105
7, 143502, Note_off_c, 5, 72, 64
7, 143520, Note_on_c, 5, 72, 105
7, 143688, Note_off_c, 5, 72, 64
7, 143760, Note_on_c, 5, 72, 105
7, 143928, Note_off_c, 5, 72, 64
7, 144000, Note_on_c, 5, 84, 105
7, 144384, Note_off_c, 5, 84, 64
7, 144480, Note_on_c, 5, 72, 105
7, 144864, Note_off_c, 5, 72, 64
7, 144960, Note_on_c, 5, 67, 105
7, 145044, Note_off_c, 5, 67, 64
7, 145080, Note_on_c, 5, 86, 105
7, 145164, Note_off_c, 5, 86, 64
7, 145200, Note_on_c, 5, 86, 105
7, 145284, Note_off_c, 5, 86, 64
7, 145320, Note_on_c, 5, 86, 105
7, 145404, Note_off_c, 5, 86, 64
7, 145440, Note_on_c, 5, 86, 105
7, 145608, Note_off_c, 5, 86, 64
7, 145680, Note_on_c, 5, 79, 105
7, 145848, Note_off_c, 5, 79, 64
7, 145920, Note_on_c, 5, 78, 105
7, 146088, Note_off_c, 5, 78, 64
7, 146160, Note_on_c, 5, 79, 105
7, 146328, Note_off_c, 5, 79, 64
7, 146400, Note_on_c, 5, 81, 105
7, 146760, Note_off_c, 5, 81, 64
7, 146760, Note_on_c, 5, 83, 105
7, 146820, Note_off_c, 5, 83, 64
7, 146820, Note_on_c, 5, 84, 105
7, 146862, Note_off_c, 5, 84, 64
7, 146880, Note_on_c, 5, 83, 105
7, 147000, Note_off_c, 5, 83, 64
7, 147000, Note_on_c, 5, 79, 105
7, 147084, Note_off_c, 5, 79, 64
7, 147120, Note_on_c, 5, 86, 105
7, 147204, Note_off_c, 5, 86, 64
7, 147240, Note_on_c, 5, 86, 105
7, 147324, Note_off_c, 5, 86, 64
7, 147360, Note_on_c, 5, 86, 105
7, 147528, Note_off_c, 5, 86, 64
7, 147600, Note_on_c, 5, 79, 105
7, 147768, Note_off_c, 5, 79, 64
7, 147840, Note_on_c, 5, 78, 105
7, 148008, Note_off_c, 5, 78, 64
7, 148080, Note_on_c, 5, 79, 105
7, 148248, Note_off_c, 5, 79, 64
7, 148320, Note_on_c, 5, 81, 105
7, 148680, Note_off_c, 5, 81, 64
7, 148680, Note_on_c, 5, 83, 105
7, 148740, Note_off_c, 5, 83, 64
7, 148740, Note_on_c, 5, 84, 105
7, 148782, Note_off_c, 5, 84, 64
7, 148800, Note_on_c, 5, 83, 105
7, 148944, Note_off_c, 5, 83, 64
7, 149040, Note_on_c, 5, 86, 105
7, 149280, Note_off_c, 5, 86, 64
7, 149280, Note_on_c, 5, 84, 105
7, 149520, Note_off_c, 5, 84, 64
7, 149520, Note_on_c, 5, 83, 105
7, 149712, Note_off_c, 5, 83, 64
7, 149760, Note_on_c, 5, 83, 105
7, 149820, Note_off_c, 5, 83, 64
7, 149820, Note_on_c, 5, 81, 105
7, 149964, Note_off_c, 5, 81, 64
7, 150000, Note_on_c, 5, 81, 72
7, 150480, Note_off_c, 5, 81, 64
7, 150480, Note_on_c, 5, 80, 72
7, 150672, Note_off_c, 5, 80, 64
7, 150720, Note_on_c, 5, 83, 72
7, 150780, Note_off_c, 5, 83, 64
7, 150780, Note_on_c, 5, 81, 105
7, 150924, Note_off_c, 5, 81, 64
7, 150960, Note_on_c, 5, 81, 72
7, 151440, Note_off_c, 5, 81, 64
7, 151440, Note_on_c, 5, 80, 72
7, 151632, Note_off_c, 5, 80, 64
7, 151680, Note_on_c, 5, 81, 105
7, 151752, Note_off_c, 5, 81, 64
7, 151800, Note_on_c, 5, 80, 105
7, 151872, Note_off_c, 5, 80, 64
7, 151920, Note_on_c, 5, 81, 105
7, 151992, Note_off_c, 5, 81, 64
7, 152040, Note_on_c, 5, 80, 105
7, 152112, Note_off_c, 5, 80, 64
7, 152160, Note_on_c, 5, 81, 105
7, 152232, Note_off_c, 5, 81, 64
7, 152280, Note_on_c, 5, 80, 105
7, 152352, Note_off_c, 5, 80, 64
7, 152400, Note_on_c, 5, 81, 105
7, 152472, Note_off_c, 5, 81, 64
7, 152520, Note_on_c, 5, 83, 105
7, 152592, Note_off_c, 5, 83, 64
7, 152640, Note_on_c, 5, 84, 105
7, 152712, Note_off_c, 5, 84, 64
7, 152760, Note_on_c, 5, 83, 105
7, 152832, Note_off_c, 5, 83, 64
7, 152880, Note_on_c, 5, 84, 105
7, 152952, Note_off_c, 5, 84, 64
7, 153000, Note_on_c, 5, 83, 105
7, 153072, Note_off_c, 5, 83, 64
7, 153120, Note_on_c, 5, 84, 105
7, 153192, Note_off_c, 5, 84, 64
7, 153240, Note_on_c, 5, 83, 105
7, 153312, Note_off_c, 5, 83, 64
7, 153360, Note_on_c, 5, 84, 105
7, 153432, Note_off_c, 5, 84, 64
7, 153480, Note_on_c, 5, 86, 105
7, 153552, Note_off_c, 5, 86, 64
7, 153600, Note_on_c, 5, 88, 105
7, 154056, Note_off_c, 5, 88, 64
7, 154080, Note_on_c, 5, 76, 105
7, 154536, Note_off_c, 5, 76, 64
7, 154560, Note_on_c, 5, 79, 72
7, 155016, Note_off_c, 5, 79, 64
7, 155040, Note_on_c, 5, 69, 58
7, 155496, Note_off_c, 5, 69, 64
7, 155520, Note_on_c, 5, 76, 72
7, 156000, Note_off_c, 5, 76, 64
7, 156000, Note_on_c, 5, 64, 72
7, 156480, Note_off_c, 5, 64, 64
7, 156480, Note_on_c, 5, 67, 72
7, 156960, Note_off_c, 5, 67, 64
7, 156960, Note_on_c, 5, 61, 72
7, 157344, Note_off_c, 5, 61, 64
7, 157440, Note_on_c, 5, 62, 72
7, 159120, Note_off_c, 5, 62, 64
7, 159120, Note_on_c, 5, 63, 72
7, 159312, Note_off_c, 5, 63, 64
7, 159360, Note_on_c, 5, 64, 72
7, 159720, Note_off_c, 5, 64, 64
7, 159720, Note_on_c, 5, 66, 72
7, 159780, Note_off_c, 5, 66, 64
7, 159780, Note_on_c, 5, 67, 72
7, 159828, Note_off_c, 5, 67, 64
7, 159840, Note_on_c, 5, 62, 72
7, 159984, Note_off_c, 5, 62, 64
7, 160080, Note_on_c, 5, 74, 72
7, 160224, Note_off_c, 5, 74, 64
7, 160320, Note_on_c, 5, 76, 72
7, 160680, Note_off_c, 5, 76, 64
7, 160680, Note_on_c, 5, 78, 72
7, 160740, Note_off_c, 5, 78, 64
7, 160740, Note_on_c, 5, 79, 72
7, 160788, Note_off_c, 5, 79, 64
7, 160800, Note_on_c, 5, 74, 72
7, 160944, Note_off_c, 5, 74, 64
7, 161040, Note_on_c, 5, 71, 72
7, 161184, Note_off_c, 5, 71, 64
7, 161280, Note_on_c, 5, 69, 72
7, 161424, Note_off_c, 5, 69, 64
7, 161520, Note_on_c, 5, 72, 72
7, 162000, Note_off_c, 5, 72, 64
7, 162000, Note_on_c, 5, 69, 72
7, 162120, Note_off_c, 5, 69, 64
7, 162120, Note_on_c, 5, 66, 72
7, 162216, Note_off_c, 5, 66, 64
7, 162240, Note_on_c, 5, 67, 58
7, 162432, Note_off_c, 5, 67, 64
7, 162720, Note_on_c, 5, 64, 105
7, 162720, Note_on_c, 5, 71, 105
7, 162720, Note_on_c, 5, 76, 105
7, 162864, Note_off_c, 5, 76, 64
7, 162864, Note_off_c, 5, 71, 64
7, 162864, Note_off_c, 5, 64, 64
7, 162960, Note_on_c, 5, 64, 105
7, 162960, Note_on_c, 5, 71, 105
7, 162960, Note_on_c, 5, 76, 105
7, 163104, Note_off_c, 5, 76, 64
7, 163104, Note_off_c, 5, 71, 64
7, 163104, Note_off_c, 5, 64, 64
7, 163200, Note_on_c, 5, 64, 105
7, 163200, Note_on_c, 5, 71, 105
7, 163200, Note_on_c, 5, 76, 105
7, 163584, Note_off_c, 5, 76, 64
7, 163584, Note_off_c, 5, 71, 64
7, 163584, Note_off_c, 5, 64, 64
7, 163680, Note_on_c, 5, 71, 105
7, 163680, Note_on_c, 5, 83, 105
7, 164064, Note_off_c, 5, 83, 64
7, 164064, Note_off_c, 5, 71, 64
7, 164160, Note_on_c, 5, 79, 116
7, 164316, Note_off_c, 5, 79, 64
7, 164400, Note_on_c, 5, 76, 116
7, 164556, Note_off_c, 5, 76, 64
7, 164640, Note_on_c, 5, 83, 116
7, 164796, Note_off_c, 5, 83, 64
7, 164880, Note_on_c, 5, 83, 116
7, 165036, Note_off_c, 5, 83, 64
7, 165120, Note_on_c, 5, 79, 116
7, 165276, Note_off_c, 5, 79, 64
7, 165360, Note_on_c, 5, 76, 116
7, 165516, Note_off_c, 5, 76, 64
7, 165600, Note_on_c, 5, 83, 116
7, 165756, Note_off_c, 5, 83, 64
7, 165840, Note_on_c, 5, 83, 116
7, 165996, Note_off_c, 5, 83, 64
7, 166080, Note_on_c, 5, 79, 116
7, 166236, Note_off_c, 5, 79, 64
7, 166320, Note_on_c, 5, 76, 116
7, 166476, Note_off_c, 5, 76, 64
7, 168120, Note_on_c, 5, 76, 72
7, 168192, Note_off_c, 5, 76, 64
7, 168240, Note_on_c, 5, 76, 72
7, 168312, Note_off_c, 5, 76, 64
7, 168360, Note_on_c, 5, 76, 72
7, 168432, Note_off_c, 5, 76, 64
7, 168480, Note_on_c, 5, 76, 72
7, 168600, Note_off_c, 5, 76, 64
7, 168600, Note_on_c, 5, 79, 72
7, 168672, Note_off_c, 5, 79, 64
7, 168720, Note_on_c, 5, 78, 72
7, 168792, Note_off_c, 5, 78, 64
7, 168840, Note_on_c, 5, 76, 72
7, 168912, Note_off_c, 5, 76, 64
7, 168960, Note_on_c, 5, 76, 72
7, 169080, Note_off_c, 5, 76, 64
7, 169080, Note_on_c, 5, 74, 72
7, 169152, Note_off_c, 5, 74, 64
7, 169200, Note_on_c, 5, 71, 72
7, 169272, Note_off_c, 5, 71, 64
7, 169320, Note_on_c, 5, 74, 72
7, 169392, Note_off_c, 5, 74, 64
7, 169440, Note_on_c, 5, 74, 72
7, 169560, Note_off_c, 5, 74, 64
7, 169560, Note_on_c, 5, 72, 72
7, 169632, Note_off_c, 5, 72, 64
7, 169680, Note_on_c, 5, 71, 72
7, 169752, Note_off_c, 5, 71, 64
7, 169800, Note_on_c, 5, 69, 72
7, 169872, Note_off_c, 5, 69, 64
7, 169920, Note_on_c, 5, 67, 58
7, 170112, Note_off_c, 5, 67, 64
7, 170880, Note_on_c, 5, 59, 58
7, 171000, Note_off_c, 5, 59, 64
7, 171000, Note_on_c, 5, 67, 58
7, 171120, Note_off_c, 5, 67, 64
7, 171120, Note_on_c, 5, 64, 58
7, 171240, Note_off_c, 5, 64, 64
7, 171240, Note_on_c, 5, 67, 58
7, 171336, Note_off_c, 5, 67, 64
7, 171360, Note_on_c, 5, 59, 58
7, 171480, Note_off_c, 5, 59, 64
7, 171480, Note_on_c, 5, 66, 58
7, 171600, Note_off_c, 5, 66, 64
7, 171600, Note_on_c, 5, 63, 58
7, 171720, Note_off_c, 5, 63, 64
7, 171720, Note_on_c, 5, 66, 58
7, 171816, Note_off_c, 5, 66, 64
7, 171840, Note_on_c, 5, 64, 58
7, 171960, Note_off_c, 5, 64, 64
7, 171960, Note_on_c, 5, 71, 58
7, 172080, Note_off_c, 5, 71, 64
7, 172080, Note_on_c, 5, 69, 58
7, 172200, Note_off_c, 5, 69, 64
7, 172200, Note_on_c, 5, 67, 58
7, 172296, Note_off_c, 5, 67, 64
7, 172320, Note_on_c, 5, 66, 58
7, 172440, Note_off_c, 5, 66, 64
7, 172440, Note_on_c, 5, 63, 58
7, 172560, Note_off_c, 5, 63, 64
7, 172560, Note_on_c, 5, 64, 58
7, 172680, Note_off_c, 5, 64, 64
7, 172680, Note_on_c, 5, 66, 58
7, 172776, Note_off_c, 5, 66, 64
7, 172800, Note_on_c, 5, 67, 58
7, 172920, Note_off_c, 5, 67, 64
7, 172920, Note_on_c, 5, 71, 58
7, 173040, Note_off_c, 5, 71, 64
7, 173040, Note_on_c, 5, 69, 58
7, 173160, Note_off_c, 5, 69, 64
7, 173160, Note_on_c, 5, 67, 58
7, 173256, Note_off_c, 5, 67, 64
7, 173280, Note_on_c, 5, 66, 58
7, 173400, Note_off_c, 5, 66, 64
7, 173400, Note_on_c, 5, 63, 58
7, 173520, Note_off_c, 5, 63, 64
7, 173520, Note_on_c, 5, 64, 58
7, 173640, Note_off_c, 5, 64, 64
7, 173640, Note_on_c, 5, 66, 58
7, 173736, Note_off_c, 5, 66, 64
7, 173760, Note_on_c, 5, 67, 58
7, 173952, Note_off_c, 5, 67, 64
7, 174240, Note_on_c, 5, 84, 105
7, 174240, Note_on_c, 5, 67, 105
7, 174240, Note_on_c, 5, 76, 105
7, 174384, Note_off_c, 5, 76, 64
7, 174384, Note_off_c, 5, 67, 64
7, 174384, Note_off_c, 5, 84, 64
7, 174480, Note_on_c, 5, 84, 105
7, 174480, Note_on_c, 5, 67, 105
7, 174480, Note_on_c, 5, 76, 105
7, 174624, Note_off_c, 5, 76, 64
7, 174624, Note_off_c, 5, 67, 64
7, 174624, Note_off_c, 5, 84, 64
7, 174720, Note_on_c, 5, 67, 105
7, 174720, Note_on_c, 5, 84, 105
7, 174720, Note_on_c, 5, 76, 105
7, 175104, Note_off_c, 5, 76, 64
7, 175104, Note_off_c, 5, 84, 64
7, 175104, Note_off_c, 5, 67, 64
7, 175200, Note_on_c, 5, 79, 105
7, 175584, Note_off_c, 5, 79, 64
7, 175680, Note_on_c, 5, 76, 105
7, 175710, Note_off_c, 5, 76, 64
7, 175710, Note_on_c, 5, 77, 105
7, 175740, Note_off_c, 5, 77, 64
7, 175740, Note_on_c, 5, 79, 105
7, 175884, Note_off_c, 5, 79, 64
7, 175920, Note_on_c, 5, 79, 105
7, 175992, Note_off_c, 5, 79, 64
7, 176040, Note_on_c, 5, 79, 105
7, 176112, Note_off_c, 5, 79, 64
7, 176160, Note_on_c, 5, 79, 105
7, 176280, Note_off_c, 5, 79, 64
7, 176280, Note_on_c, 5, 76, 105
7, 176352, Note_off_c, 5, 76, 64
7, 176400, Note_on_c, 5, 76, 105
7, 176520, Note_off_c, 5, 76, 64
7, 176520, Note_on_c, 5, 72, 105
7, 176592, Note_off_c, 5, 72, 64
7, 176640, Note_on_c, 5, 71, 105
7, 176670, Note_off_c, 5, 71, 64
7, 176670, Note_on_c, 5, 72, 105
7, 176700, Note_off_c, 5, 72, 64
7, 176700, Note_on_c, 5, 74, 105
7, 176844, Note_off_c, 5, 74, 64
7, 176880, Note_on_c, 5, 74, 105
7, 176952, Note_off_c, 5, 74, 64
7, 177000, Note_on_c, 5, 74, 105
7, 177072, Note_off_c, 5, 74, 64
7, 177120, Note_on_c, 5, 74, 105
7, 177240, Note_off_c, 5, 74, 64
7, 177240, Note_on_c, 5, 71, 105
7, 177312, Note_off_c, 5, 71, 64
7, 177360, Note_on_c, 5, 72, 105
7, 177480, Note_off_c, 5, 72, 64
7, 177480, Note_on_c, 5, 69, 105
7, 177552, Note_off_c, 5, 69, 64
7, 177600, Note_on_c, 5, 67, 105
7, 177792, Note_off_c, 5, 67, 64
7, 177960, Note_on_c, 5, 62, 105
7, 178044, Note_off_c, 5, 62, 64
7, 178080, Note_on_c, 5, 64, 105
7, 178164, Note_off_c, 5, 64, 64
7, 178200, Note_on_c, 5, 60, 105
7, 178284, Note_off_c, 5, 60, 64
7, 178320, Note_on_c, 5, 66, 105
7, 178404, Note_off_c, 5, 66, 64
7, 178440, Note_on_c, 5, 62, 105
7, 178524, Note_off_c, 5, 62, 64
7, 178560, Note_on_c, 5, 67, 105
7, 178644, Note_off_c, 5, 67, 64
7, 178680, Note_on_c, 5, 64, 105
7, 178764, Note_off_c, 5, 64, 64
7, 178800, Note_on_c, 5, 69, 105
7, 178884, Note_off_c, 5, 69, 64
7, 178920, Note_on_c, 5, 66, 105
7, 179004, Note_off_c, 5, 66, 64
7, 179040, Note_on_c, 5, 71, 105
7, 179124, Note_off_c, 5, 71, 64
7, 179160, Note_on_c, 5, 67, 105
7, 179244, Note_off_c, 5, 67, 64
7, 179280, Note_on_c, 5, 72, 105
7, 179364, Note_off_c, 5, 72, 64
7, 179400, Note_on_c, 5, 69, 105
7, 179484, Note_off_c, 5, 69, 64
7, 179520, Note_on_c, 5, 74, 105
7, 179568, Note_off_c, 5, 74, 64
7, 179580, Note_on_c, 5, 74, 105
7, 179628, Note_off_c, 5, 74, 64
7, 179640, Note_on_c, 5, 74, 105
7, 179688, Note_off_c, 5, 74, 64
7, 179700, Note_on_c, 5, 74, 105
7, 179748, Note_off_c, 5, 74, 64
7, 179760, Note_on_c, 5, 79, 105
7, 179808, Note_off_c, 5, 79, 64
7, 179820, Note_on_c, 5, 79, 105
7, 179868, Note_off_c, 5, 79, 64
7, 179880, Note_on_c, 5, 79, 105
7, 179928, Note_off_c, 5, 79, 64
7, 179940, Note_on_c, 5, 79, 105
7, 179988, Note_off_c, 5, 79, 64
7, 180000, Note_on_c, 5, 78, 105
7, 180048, Note_off_c, 5, 78, 64
7, 180060, Note_on_c, 5, 78, 105
7, 180108, Note_off_c, 5, 78, 64
7, 180120, Note_on_c, 5, 78, 105
7, 180168, Note_off_c, 5, 78, 64
7, 180180, Note_on_c, 5, 78, 105
7, 180228, Note_off_c, 5, 78, 64
7, 180240, Note_on_c, 5, 84, 105
7, 180288, Note_off_c, 5, 84, 64
7, 180300, Note_on_c, 5, 84, 105
7, 180348, Note_off_c, 5, 84, 64
7, 180360, Note_on_c, 5, 84, 105
7, 180408, Note_off_c, 5, 84, 64
7, 180420, Note_on_c, 5, 84, 105
7, 180468, Note_off_c, 5, 84, 64
7, 180480, Note_on_c, 5, 83, 105
7, 180624, Note_off_c, 5, 83, 64
7, 180720, Note_on_c, 5, 81, 105
7, 180750, Note_off_c, 5, 81, 64
7, 180750, Note_on_c, 5, 79, 105
7, 180780, Note_off_c, 5, 79, 64
7, 180780, Note_on_c, 5, 81, 105
7, 180810, Note_off_c, 5, 81, 64
7, 180810, Note_on_c, 5, 79, 105
7, 180840, Note_off_c, 5, 79, 64
7, 180840, Note_on_c, 5, 81, 105
7, 180870, Note_off_c, 5, 81, 64
7, 180870, Note_on_c, 5, 79, 105
7, 180900, Note_off_c, 5, 79, 64
7, 180900, Note_on_c, 5, 78, 105
7, 180930, Note_off_c, 5, 78, 64
7, 180930, Note_on_c, 5, 79, 105
7, 180960, Note_off_c, 5, 79, 64
7, 180960, Note_on_c, 5, 81, 105
7, 181104, Note_off_c, 5, 81, 64
7, 181200, Note_on_c, 5, 62, 105
7, 181200, Note_on_c, 5, 69, 105
7, 181200, Note_on_c, 5, 78, 105
7, 181344, Note_off_c, 5, 78, 64
7, 181344, Note_off_c, 5, 69, 64
7, 181344, Note_off_c, 5, 62, 64
7, 181440, Note_on_c, 5, 71, 105
7, 181440, Note_on_c, 5, 79, 105
7, 181440, Note_on_c, 5, 62, 105
7, 181632, Note_off_c, 5, 62, 64
7, 181632, Note_off_c, 5, 79, 64
7, 181632, Note_off_c, 5, 71, 64
7, 181800, Note_on_c, 5, 74, 105
7, 181884, Note_off_c, 5, 74, 64
7, 181920, Note_on_c, 5, 64, 105
7, 182004, Note_off_c, 5, 64, 64
7, 182040, Note_on_c, 5, 76, 105
7, 182124, Note_off_c, 5, 76, 64
7, 182160, Note_on_c, 5, 66, 105
7, 182244, Note_off_c, 5, 66, 64
7, 182280, Note_on_c, 5, 78, 105
7, 182364, Note_off_c, 5, 78, 64
7, 182400, Note_on_c, 5, 67, 105
7, 182484, Note_off_c, 5, 67, 64
7, 182520, Note_on_c, 5, 79, 105
7, 182604, Note_off_c, 5, 79, 64
7, 182640, Note_on_c, 5, 69, 105
7, 182724, Note_off_c, 5, 69, 64
7, 182760, Note_on_c, 5, 81, 105
7, 182844, Note_off_c, 5, 81, 64
7, 182880, Note_on_c, 5, 71, 105
7, 182964, Note_off_c, 5, 71, 64
7, 183000, Note_on_c, 5, 83, 105
7, 183084, Note_off_c, 5, 83, 64
7, 183120, Note_on_c, 5, 72, 105
7, 183204, Note_off_c, 5, 72, 64
7, 183240, Note_on_c, 5, 84, 105
7, 183324, Note_off_c, 5, 84, 64
7, 183360, Note_on_c, 5, 86, 105
7, 183408, Note_off_c, 5, 86, 64
7, 183420, Note_on_c, 5, 86, 105
7, 183468, Note_off_c, 5, 86, 64
7, 183480, Note_on_c, 5, 86, 105
7, 183528, Note_off_c, 5, 86, 64
7, 183540, Note_on_c, 5, 86, 105
7, 183588, Note_off_c, 5, 86, 64
7, 183600, Note_on_c, 5, 83, 105
7, 183648, Note_off_c, 5, 83, 64
7, 183660, Note_on_c, 5, 83, 105
7, 183708, Note_off_c, 5, 83, 64
7, 183720, Note_on_c, 5, 83, 105
7, 183768, Note_off_c, 5, 83, 64
7, 183780, Note_on_c, 5, 83, 105
7, 183828, Note_off_c, 5, 83, 64
7, 183840, Note_on_c, 5, 84, 105
7, 183888, Note_off_c, 5, 84, 64
7, 183900, Note_on_c, 5, 84, 105
7, 183948, Note_off_c, 5, 84, 64
7, 183960, Note_on_c, 5, 84, 105
7, 184008, Note_off_c, 5, 84, 64
7, 184020, Note_on_c, 5, 84, 105
7, 184068, Note_off_c, 5, 84, 64
7, 184080, Note_on_c, 5, 81, 105
7, 184128, Note_off_c, 5, 81, 64
7, 184140, Note_on_c, 5, 81, 105
7, 184188, Note_off_c, 5, 81, 64
7, 184200, Note_on_c, 5, 81, 105
7, 184248, Note_off_c, 5, 81, 64
7, 184260, Note_on_c, 5, 81, 105
7, 184308, Note_off_c, 5, 81, 64
7, 184320, Note_on_c, 5, 83, 105
7, 184464, Note_off_c, 5, 83, 64
7, 184560, Note_on_c, 5, 81, 105
7, 184590, Note_off_c, 5, 81, 64
7, 184590, Note_on_c, 5, 79, 105
7, 184620, Note_off_c, 5, 79, 64
7, 184620, Note_on_c, 5, 81, 105
7, 184650, Note_off_c, 5, 81, 64
7, 184650, Note_on_c, 5, 79, 105
7, 184680, Note_off_c, 5, 79, 64
7, 184680, Note_on_c, 5, 81, 105
7, 184710, Note_off_c, 5, 81, 64
7, 184710, Note_on_c, 5, 79, 105
7, 184740, Note_off_c, 5, 79, 64
7, 184740, Note_on_c, 5, 78, 105
7, 184770, Note_off_c, 5, 78, 64
7, 184770, Note_on_c, 5, 79, 105
7, 184800, Note_off_c, 5, 79, 64
7, 184800, Note_on_c, 5, 81, 105
7, 184944, Note_off_c, 5, 81, 64
7, 185040, Note_on_c, 5, 78, 105
7, 185184, Note_off_c, 5, 78, 64
7, 185280, Note_on_c, 5, 79, 105
7, 185364, Note_off_c, 5, 79, 64
7, 185400, Note_on_c, 5, 79, 105
7, 185484, Note_off_c, 5, 79, 64
7, 185520, Note_on_c, 5, 79, 105
7, 185604, Note_off_c, 5, 79, 64
7, 185640, Note_on_c, 5, 79, 105
7, 185724, Note_off_c, 5, 79, 64
7, 185760, Note_on_c, 5, 79, 105
7, 185952, Note_off_c, 5, 79, 64
7, 186000, Note_on_c, 5, 81, 125
7, 186030, Note_off_c, 5, 81, 64
7, 186030, Note_on_c, 5, 79, 105
7, 186060, Note_off_c, 5, 79, 64
7, 186060, Note_on_c, 5, 81, 105
7, 186090, Note_off_c, 5, 81, 64
7, 186090, Note_on_c, 5, 79, 105
7, 186120, Note_off_c, 5, 79, 64
7, 186120, Note_on_c, 5, 81, 105
7, 186150, Note_off_c, 5, 81, 64
7, 186150, Note_on_c, 5, 79, 105
7, 186180, Note_off_c, 5, 79, 64
7, 186180, Note_on_c, 5, 78, 105
7, 186210, Note_off_c, 5, 78, 64
7, 186210, Note_on_c, 5, 79, 105
7, 186234, Note_off_c, 5, 79, 64
7, 186240, Note_on_c, 5, 83, 105
7, 186324, Note_off_c, 5, 83, 64
7, 186360, Note_on_c, 5, 79, 105
7, 186444, Note_off_c, 5, 79, 64
7, 186480, Note_on_c, 5, 79, 105
7, 186564, Note_off_c, 5, 79, 64
7, 186600, Note_on_c, 5, 79, 105
7, 186684, Note_off_c, 5, 79, 64
7, 186720, Note_on_c, 5, 79, 105
7, 186912, Note_off_c, 5, 79, 64
7, 186960, Note_on_c, 5, 81, 125
7, 186990, Note_off_c, 5, 81, 64
7, 186990, Note_on_c, 5, 79, 105
7, 187020, Note_off_c, 5, 79, 64
7, 187020, Note_on_c, 5, 81, 105
7, 187050, Note_off_c, 5, 81, 64
7, 187050, Note_on_c, 5, 79, 105
7, 187080, Note_off_c, 5, 79, 64
7, 187080, Note_on_c, 5, 81, 105
7, 187110, Note_off_c, 5, 81, 64
7, 187110, Note_on_c, 5, 79, 105
7, 187140, Note_off_c, 5, 79, 64
7, 187140, Note_on_c, 5, 78, 105
7, 187170, Note_off_c, 5, 78, 64
7, 187170, Note_on_c, 5, 79, 105
7, 187194, Note_off_c, 5, 79, 64
7, 187200, Note_on_c, 5, 86, 105
7, 187284, Note_off_c, 5, 86, 64
7, 187320, Note_on_c, 5, 79, 105
7, 187404, Note_off_c, 5, 79, 64
7, 187440, Note_on_c, 5, 79, 105
7, 187524, Note_off_c, 5, 79, 64
7, 187560, Note_on_c, 5, 79, 105
7, 187644, Note_off_c, 5, 79, 64
7, 187680, Note_on_c, 5, 79, 105
7, 187872, Note_off_c, 5, 79, 64
7, 187920, Note_on_c, 5, 81, 105
7, 187950, Note_off_c, 5, 81, 64
7, 187950, Note_on_c, 5, 79, 105
7, 187980, Note_off_c, 5, 79, 64
7, 187980, Note_on_c, 5, 81, 105
7, 188010, Note_off_c, 5, 81, 64
7, 188010, Note_on_c, 5, 79, 105
7, 188040, Note_off_c, 5, 79, 64
7, 188040, Note_on_c, 5, 81, 105
7, 188070, Note_off_c, 5, 81, 64
7, 188070, Note_on_c, 5, 79, 105
7, 188100, Note_off_c, 5, 79, 64
7, 188100, Note_on_c, 5, 78, 105
7, 188130, Note_off_c, 5, 78, 64
7, 188130, Note_on_c, 5, 79, 105
7, 188154, Note_off_c, 5, 79, 64
7, 188160, Note_on_c, 5, 76, 105
7, 188480, Note_off_c, 5, 76, 64
7, 188480, Note_on_c, 5, 77, 105
7, 188520, Note_off_c, 5, 77, 64
7, 188520, Note_on_c, 5, 79, 105
7, 188560, Note_off_c, 5, 79, 64
7, 188560, Note_on_c, 5, 81, 105
7, 188600, Note_off_c, 5, 81, 64
7, 188600, Note_on_c, 5, 83, 105
7, 188640, Note_off_c, 5, 83, 64
7, 188640, Note_on_c, 5, 84, 105
7, 188784, Note_off_c, 5, 84, 64
7, 188880, Note_on_c, 5, 76, 105
7, 189024, Note_off_c, 5, 76, 64
7, 189120, Note_on_c, 5, 62, 105
7, 189120, Note_on_c, 5, 74, 105
7, 189264, Note_off_c, 5, 74, 64
7, 189264, Note_off_c, 5, 62, 64
7, 189360, Note_on_c, 5, 74, 105
7, 189360, Note_on_c, 5, 84, 105
7, 189504, Note_off_c, 5, 84, 64
7, 189504, Note_off_c, 5, 74, 64
7, 189840, Note_on_c, 5, 83, 105
7, 190008, Note_off_c, 5, 83, 64
7, 190080, Note_on_c, 5, 83, 105
7, 190200, Note_off_c, 5, 83, 64
7, 190200, Note_on_c, 5, 81, 105
7, 190320, Note_off_c, 5, 81, 64
7, 190320, Note_on_c, 5, 79, 105
7, 190704, Note_off_c, 5, 79, 64
7, 190800, Note_on_c, 5, 78, 105
7, 190968, Note_off_c, 5, 78, 64
7, 191040, Note_on_c, 5, 79, 105
7, 191124, Note_off_c, 5, 79, 64
7, 191160, Note_on_c, 5, 79, 105
7, 191244, Note_off_c, 5, 79, 64
7, 191280, Note_on_c, 5, 79, 105
7, 191364, Note_off_c, 5, 79, 64
7, 191400, Note_on_c, 5, 79, 105
7, 191484, Note_off_c, 5, 79, 64
7, 191520, Note_on_c, 5, 79, 105
7, 191712, Note_off_c, 5, 79, 64
7, 191760, Note_on_c, 5, 81, 125
7, 191790, Note_off_c, 5, 81, 64
7, 191790, Note_on_c, 5, 79, 105
7, 191820, Note_off_c, 5, 79, 64
7, 191820, Note_on_c, 5, 81, 105
7, 191850, Note_off_c, 5, 81, 64
7, 191850, Note_on_c, 5, 79, 105
7, 191880, Note_off_c, 5, 79, 64
7, 191880, Note_on_c, 5, 81, 105
7, 191910, Note_off_c, 5, 81, 64
7, 191910, Note_on_c, 5, 79, 105
7, 191940, Note_off_c, 5, 79, 64
7, 191940, Note_on_c, 5, 78, 105
7, 191970, Note_off_c, 5, 78, 64
7, 191970, Note_on_c, 5, 79, 105
7, 191994, Note_off_c, 5, 79, 64
7, 192000, Note_on_c, 5, 83, 105
7, 192084, Note_off_c, 5, 83, 64
7, 192120, Note_on_c, 5, 79, 105
7, 192204, Note_off_c, 5, 79, 64
7, 192240, Note_on_c, 5, 79, 105
7, 192324, Note_off_c, 5, 79, 64
7, 192360, Note_on_c, 5, 79, 105
7, 192444, Note_off_c, 5, 79, 64
7, 192480, Note_on_c, 5, 79, 105
7, 192672, Note_off_c, 5, 79, 64
7, 192720, Note_on_c, 5, 81, 125
7, 192750, Note_off_c, 5, 81, 64
7, 192750, Note_on_c, 5, 79, 105
7, 192780, Note_off_c, 5, 79, 64
7, 192780, Note_on_c, 5, 81, 105
7, 192810, Note_off_c, 5, 81, 64
7, 192810, Note_on_c, 5, 79, 105
7, 192840, Note_off_c, 5, 79, 64
7, 192840, Note_on_c, 5, 81, 105
7, 192870, Note_off_c, 5, 81, 64
7, 192870, Note_on_c, 5, 79, 105
7, 192900, Note_off_c, 5, 79, 64
7, 192900, Note_on_c, 5, 78, 105
7, 192930, Note_off_c, 5, 78, 64
7, 192930, Note_on_c, 5, 79, 105
7, 192954, Note_off_c, 5, 79, 64
7, 192960, Note_on_c, 5, 86, 105
7, 193044, Note_off_c, 5, 86, 64
7, 193080, Note_on_c, 5, 79, 105
7, 193164, Note_off_c, 5, 79, 64
7, 193200, Note_on_c, 5, 79, 105
7, 193284, Note_off_c, 5, 79, 64
7, 193320, Note_on_c, 5, 79, 105
7, 193404, Note_off_c, 5, 79, 64
7, 193440, Note_on_c, 5, 79, 105
7, 193632, Note_off_c, 5, 79, 64
7, 193680, Note_on_c, 5, 81, 105
7, 193710, Note_off_c, 5, 81, 64
7, 193710, Note_on_c, 5, 79, 105
7, 193740, Note_off_c, 5, 79, 64
7, 193740, Note_on_c, 5, 81, 105
7, 193770, Note_off_c, 5, 81, 64
7, 193770, Note_on_c, 5, 79, 105
7, 193800, Note_off_c, 5, 79, 64
7, 193800, Note_on_c, 5, 81, 105
7, 193830, Note_off_c, 5, 81, 64
7, 193830, Note_on_c, 5, 79, 105
7, 193860, Note_off_c, 5, 79, 64
7, 193860, Note_on_c, 5, 78, 105
7, 193890, Note_off_c, 5, 78, 64
7, 193890, Note_on_c, 5, 79, 105
7, 193914, Note_off_c, 5, 79, 64
7, 193920, Note_on_c, 5, 76, 105
7, 194240, Note_off_c, 5, 76, 64
7, 194240, Note_on_c, 5, 77, 105
7, 194280, Note_off_c, 5, 77, 64
7, 194280, Note_on_c, 5, 79, 105
7, 194320, Note_off_c, 5, 79, 64
7, 194320, Note_on_c, 5, 81, 105
7, 194360, Note_off_c, 5, 81, 64
7, 194360, Note_on_c, 5, 83, 105
7, 194400, Note_off_c, 5, 83, 64
7, 194400, Note_on_c, 5, 84, 105
7, 194544, Note_off_c, 5, 84, 64
7, 194640, Note_on_c, 5, 76, 105
7, 194784, Note_off_c, 5, 76, 64
7, 194880, Note_on_c, 5, 62, 105
7, 194880, Note_on_c, 5, 74, 105
7, 195024, Note_off_c, 5, 74, 64
7, 195024, Note_off_c, 5, 62, 64
7, 195120, Note_on_c, 5, 74, 105
7, 195120, Note_on_c, 5, 84, 105
7, 195264, Note_off_c, 5, 84, 64
7, 195264, Note_off_c, 5, 74, 64
7, 195600, Note_on_c, 5, 75, 72
7, 195840, Note_off_c, 5, 75, 64
7, 195840, Note_on_c, 5, 74, 58
7, 195984, Note_off_c, 5, 74, 64
7, 196080, Note_on_c, 5, 84, 58
7, 196224, Note_off_c, 5, 84, 64
7, 199200, Note_on_c, 5, 69, 58
7, 199440, Note_off_c, 5, 69, 64
7, 199440, Note_on_c, 5, 71, 58
7, 199536, Note_off_c, 5, 71, 64
7, 199680, Note_on_c, 5, 74, 58
7, 199920, Note_off_c, 5, 74, 64
7, 199920, Note_on_c, 5, 72, 58
7, 200016, Note_off_c, 5, 72, 64
7, 200160, Note_on_c, 5, 72, 58
7, 200400, Note_off_c, 5, 72, 64
7, 200400, Note_on_c, 5, 69, 58
7, 200496, Note_off_c, 5, 69, 64
7, 200640, Note_on_c, 5, 55, 105
7, 200640, Note_on_c, 5, 67, 105
7, 200928, Note_off_c, 5, 67, 64
7, 200928, Note_off_c, 5, 55, 64
7, 201000, Note_on_c, 5, 71, 105
7, 201060, Note_off_c, 5, 71, 64
7, 201060, Note_on_c, 5, 74, 105
7, 201108, Note_off_c, 5, 74, 64
7, 201120, Note_on_c, 5, 79, 105
7, 201204, Note_off_c, 5, 79, 64
7, 201240, Note_on_c, 5, 81, 105
7, 201324, Note_off_c, 5, 81, 64
7, 201360, Note_on_c, 5, 83, 105
7, 201444, Note_off_c, 5, 83, 64
7, 201480, Note_on_c, 5, 84, 105
7, 201564, Note_off_c, 5, 84, 64
7, 201600, Note_on_c, 5, 86, 105
7, 201888, Note_off_c, 5, 86, 64
7, 201960, Note_on_c, 5, 85, 105
7, 202044, Note_off_c, 5, 85, 64
7, 202080, Note_on_c, 5, 86, 105
7, 202164, Note_off_c, 5, 86, 64
7, 202200, Note_on_c, 5, 85, 105
7, 202284, Note_off_c, 5, 85, 64
7, 202320, Note_on_c, 5, 86, 105
7, 202404, Note_off_c, 5, 86, 64
7, 202440, Note_on_c, 5, 85, 105
7, 202524, Note_off_c, 5, 85, 64
7, 202560, Note_on_c, 5, 86, 105
7, 202644, Note_off_c, 5, 86, 64
7, 202680, Note_on_c, 5, 86, 105
7, 202764, Note_off_c, 5, 86, 64
7, 202800, Note_on_c, 5, 83, 105
7, 202884, Note_off_c, 5, 83, 64
7, 202920, Note_on_c, 5, 83, 105
7, 203004, Note_off_c, 5, 83, 64
7, 203040, Note_on_c, 5, 84, 105
7, 203124, Note_off_c, 5, 84, 64
7, 203160, Note_on_c, 5, 84, 105
7, 203244, Note_off_c, 5, 84, 64
7, 203280, Note_on_c, 5, 81, 105
7, 203364, Note_off_c, 5, 81, 64
7, 203400, Note_on_c, 5, 81, 105
7, 203484, Note_off_c, 5, 81, 64
7, 203520, Note_on_c, 5, 79, 105
7, 203712, Note_off_c, 5, 79, 64
7, 203880, Note_on_c, 5, 74, 105
7, 203920, Note_off_c, 5, 74, 64
7, 203920, Note_on_c, 5, 76, 105
7, 203960, Note_off_c, 5, 76, 64
7, 203960, Note_on_c, 5, 78, 105
7, 204000, Note_off_c, 5, 78, 64
7, 204000, Note_on_c, 5, 79, 105
7, 204084, Note_off_c, 5, 79, 64
7, 204120, Note_on_c, 5, 81, 105
7, 204204, Note_off_c, 5, 81, 64
7, 204240, Note_on_c, 5, 83, 105
7, 204324, Note_off_c, 5, 83, 64
7, 204360, Note_on_c, 5, 84, 105
7, 204444, Note_off_c, 5, 84, 64
7, 204480, Note_on_c, 5, 86, 105
7, 204552, Note_off_c, 5, 86, 64
7, 204600, Note_on_c, 5, 86, 105
7, 204792, Note_off_c, 5, 86, 64
7, 204840, Note_on_c, 5, 85, 105
7, 204924, Note_off_c, 5, 85, 64
7, 204960, Note_on_c, 5, 86, 105
7, 205044, Note_off_c, 5, 86, 64
7, 205080, Note_on_c, 5, 85, 105
7, 205164, Note_off_c, 5, 85, 64
7, 205200, Note_on_c, 5, 86, 105
7, 205284, Note_off_c, 5, 86, 64
7, 205320, Note_on_c, 5, 85, 105
7, 205404, Note_off_c, 5, 85, 64
7, 205440, Note_on_c, 5, 86, 105
7, 205524, Note_off_c, 5, 86, 64
7, 205560, Note_on_c, 5, 86, 105
7, 205644, Note_off_c, 5, 86, 64
7, 205680, Note_on_c, 5, 83, 105
7, 205764, Note_off_c, 5, 83, 64
7, 205800, Note_on_c, 5, 83, 105
7, 205884, Note_off_c, 5, 83, 64
7, 205920, Note_on_c, 5, 84, 105
7, 206004, Note_off_c, 5, 84, 64
7, 206040, Note_on_c, 5, 84, 105
7, 206124, Note_off_c, 5, 84, 64
7, 206160, Note_on_c, 5, 81, 105
7, 206244, Note_off_c, 5, 81, 64
7, 206280, Note_on_c, 5, 81, 105
7, 206364, Note_off_c, 5, 81, 64
7, 206400, Note_on_c, 5, 86, 58
7, 206496, Note_off_c, 5, 86, 64
7, 206640, Note_on_c, 5, 83, 58
7, 206736, Note_off_c, 5, 83, 64
7, 206880, Note_on_c, 5, 84, 58
7, 206976, Note_off_c, 5, 84, 64
7, 207120, Note_on_c, 5, 81, 58
7, 207216, Note_off_c, 5, 81, 64
7, 207360, Note_on_c, 5, 86, 105
7, 207408, Note_off_c, 5, 86, 64
7, 207420, Note_on_c, 5, 86, 105
7, 207468, Note_off_c, 5, 86, 64
7, 207480, Note_on_c, 5, 86, 105
7, 207528, Note_off_c, 5, 86, 64
7, 207540, Note_on_c, 5, 86, 105
7, 207588, Note_off_c, 5, 86, 64
7, 207600, Note_on_c, 5, 83, 105
7, 207648, Note_off_c, 5, 83, 64
7, 207660, Note_on_c, 5, 83, 105
7, 207708, Note_off_c, 5, 83, 64
7, 207720, Note_on_c, 5, 83, 105
7, 207768, Note_off_c, 5, 83, 64
7, 207780, Note_on_c, 5, 83, 105
7, 207828, Note_off_c, 5, 83, 64
7, 207840, Note_on_c, 5, 84, 105
7, 207888, Note_off_c, 5, 84, 64
7, 207900, Note_on_c, 5, 84, 105
7, 207948, Note_off_c, 5, 84, 64
7, 207960, Note_on_c, 5, 84, 105
7, 208008, Note_off_c, 5, 84, 64
7, 208020, Note_on_c, 5, 84, 105
7, 208068, Note_off_c, 5, 84, 64
7, 208080, Note_on_c, 5, 81, 105
7, 208128, Note_off_c, 5, 81, 64
7, 208140, Note_on_c, 5, 81, 105
7, 208188, Note_off_c, 5, 81, 64
7, 208200, Note_on_c, 5, 81, 105
7, 208248, Note_off_c, 5, 81, 64
7, 208260, Note_on_c, 5, 81, 105
7, 208308, Note_off_c, 5, 81, 64
7, 208320, Note_on_c, 5, 79, 105
7, 208512, Note_off_c, 5, 79, 64
7, 208680, Note_on_c, 5, 67, 72
7, 208776, Note_off_c, 5, 67, 64
7, 208800, Note_on_c, 5, 71, 72
7, 208920, Note_off_c, 5, 71, 64
7, 208920, Note_on_c, 5, 69, 72
7, 209040, Note_off_c, 5, 69, 64
7, 209040, Note_on_c, 5, 72, 72
7, 209160, Note_off_c, 5, 72, 64
7, 209160, Note_on_c, 5, 71, 72
7, 209280, Note_off_c, 5, 71, 64
7, 209280, Note_on_c, 5, 74, 72
7, 209400, Note_off_c, 5, 74, 64
7, 209400, Note_on_c, 5, 72, 72
7, 209520, Note_off_c, 5, 72, 64
7, 209520, Note_on_c, 5, 76, 72
7, 209640, Note_off_c, 5, 76, 64
7, 209640, Note_on_c, 5, 74, 72
7, 209760, Note_off_c, 5, 74, 64
7, 209760, Note_on_c, 5, 77, 72
7, 209880, Note_off_c, 5, 77, 64
7, 209880, Note_on_c, 5, 76, 72
7, 210000, Note_off_c, 5, 76, 64
7, 210000, Note_on_c, 5, 81, 72
7, 210120, Note_off_c, 5, 81, 64
7, 210120, Note_on_c, 5, 79, 72
7, 210216, Note_off_c, 5, 79, 64
7, 210240, Note_on_c, 5, 79, 72
7, 210816, Note_off_c, 5, 79, 64
7, 210840, Note_on_c, 5, 77, 72
7, 210960, Note_off_c, 5, 77, 64
7, 210960, Note_on_c, 5, 76, 72
7, 211080, Note_off_c, 5, 76, 64
7, 211080, Note_on_c, 5, 74, 72
7, 211200, Note_off_c, 5, 74, 64
7, 211200, Note_on_c, 5, 72, 72
7, 211320, Note_off_c, 5, 72, 64
7, 211320, Note_on_c, 5, 71, 72
7, 211440, Note_off_c, 5, 71, 64
7, 211440, Note_on_c, 5, 69, 72
7, 211560, Note_off_c, 5, 69, 64
7, 211560, Note_on_c, 5, 67, 72
7, 211680, Note_off_c, 5, 67, 64
7, 211680, Note_on_c, 5, 66, 72
7, 211800, Note_off_c, 5, 66, 64
7, 211800, Note_on_c, 5, 67, 72
7, 211920, Note_off_c, 5, 67, 64
7, 211920, Note_on_c, 5, 69, 72
7, 212040, Note_off_c, 5, 69, 64
7, 212040, Note_on_c, 5, 65, 72
7, 212136, Note_off_c, 5, 65, 64
7, 212160, Note_on_c, 5, 64, 58
7, 214032, Note_off_c, 5, 64, 64
7, 214080, Note_on_c, 5, 65, 72
7, 214440, Note_off_c, 5, 65, 64
7, 214440, Note_on_c, 5, 67, 72
7, 214500, Note_off_c, 5, 67, 64
7, 214500, Note_on_c, 5, 69, 72
7, 214560, Note_off_c, 5, 69, 64
7, 214560, Note_on_c, 5, 64, 72
7, 214704, Note_off_c, 5, 64, 64
7, 214800, Note_on_c, 5, 76, 72
7, 214944, Note_off_c, 5, 76, 64
7, 215040, Note_on_c, 5, 77, 72
7, 215400, Note_off_c, 5, 77, 64
7, 215400, Note_on_c, 5, 79, 72
7, 215460, Note_off_c, 5, 79, 64
7, 215460, Note_on_c, 5, 81, 72
7, 215520, Note_off_c, 5, 81, 64
7, 215520, Note_on_c, 5, 76, 72
7, 215664, Note_off_c, 5, 76, 64
7, 215760, Note_on_c, 5, 72, 72
7, 215904, Note_off_c, 5, 72, 64
7, 216000, Note_on_c, 5, 71, 72
7, 216144, Note_off_c, 5, 71, 64
7, 216240, Note_on_c, 5, 74, 72
7, 216720, Note_off_c, 5, 74, 64
7, 216720, Note_on_c, 5, 71, 72
7, 216840, Note_off_c, 5, 71, 64
7, 216840, Note_on_c, 5, 68, 72
7, 216936, Note_off_c, 5, 68, 64
7, 216960, Note_on_c, 5, 69, 72
7, 217152, Note_off_c, 5, 69, 64
7, 217320, Note_on_c, 5, 64, 72
7, 217416, Note_off_c, 5, 64, 64
7, 217440, Note_on_c, 5, 69, 72
7, 217560, Note_off_c, 5, 69, 64
7, 217560, Note_on_c, 5, 68, 72
7, 217680, Note_off_c, 5, 68, 64
7, 217680, Note_on_c, 5, 71, 72
7, 217800, Note_off_c, 5, 71, 64
7, 217800, Note_on_c, 5, 69, 72
7, 217896, Note_off_c, 5, 69, 64
7, 217920, Note_on_c, 5, 72, 72
7, 218040, Note_off_c, 5, 72, 64
7, 218040, Note_on_c, 5, 71, 72
7, 218160, Note_off_c, 5, 71, 64
7, 218160, Note_on_c, 5, 74, 72
7, 218280, Note_off_c, 5, 74, 64
7, 218280, Note_on_c, 5, 72, 72
7, 218400, Note_off_c, 5, 72, 64
7, 218400, Note_on_c, 5, 77, 72
7, 218520, Note_off_c, 5, 77, 64
7, 218520, Note_on_c, 5, 76, 72
7, 218640, Note_off_c, 5, 76, 64
7, 218640, Note_on_c, 5, 84, 72
7, 218760, Note_off_c, 5, 84, 64
7, 218760, Note_on_c, 5, 82, 72
7, 218856, Note_off_c, 5, 82, 64
7, 218880, Note_on_c, 5, 82, 72
7, 219480, Note_off_c, 5, 82, 64
7, 219480, Note_on_c, 5, 81, 72
7, 219600, Note_off_c, 5, 81, 64
7, 219600, Note_on_c, 5, 79, 72
7, 219720, Note_off_c, 5, 79, 64
7, 219720, Note_on_c, 5, 77, 72
7, 219816, Note_off_c, 5, 77, 64
7, 219840, Note_on_c, 5, 76, 72
7, 219960, Note_off_c, 5, 76, 64
7, 219960, Note_on_c, 5, 74, 72
7, 220080, Note_off_c, 5, 74, 64
7, 220080, Note_on_c, 5, 73, 72
7, 220200, Note_off_c, 5, 73, 64
7, 220200, Note_on_c, 5, 74, 72
7, 220320, Note_off_c, 5, 74, 64
7, 220320, Note_on_c, 5, 76, 72
7, 220440, Note_off_c, 5, 76, 64
7, 220440, Note_on_c, 5, 77, 72
7, 220560, Note_off_c, 5, 77, 64
7, 220560, Note_on_c, 5, 79, 72
7, 220680, Note_off_c, 5, 79, 64
7, 220680, Note_on_c, 5, 76, 72
7, 220776, Note_off_c, 5, 76, 64
7, 220800, Note_on_c, 5, 74, 58
7, 220992, Note_off_c, 5, 74, 64
7, 222120, Note_on_c, 5, 62, 58
7, 222216, Note_off_c, 5, 62, 64
7, 222240, Note_on_c, 5, 65, 72
7, 222360, Note_off_c, 5, 65, 64
7, 222360, Note_on_c, 5, 64, 72
7, 222480, Note_off_c, 5, 64, 64
7, 222480, Note_on_c, 5, 67, 72
7, 222600, Note_off_c, 5, 67, 64
7, 222600, Note_on_c, 5, 65, 72
7, 222696, Note_off_c, 5, 65, 64
7, 222720, Note_on_c, 5, 70, 72
7, 222840, Note_off_c, 5, 70, 64
7, 222840, Note_on_c, 5, 69, 72
7, 222960, Note_off_c, 5, 69, 64
7, 222960, Note_on_c, 5, 74, 72
7, 223080, Note_off_c, 5, 74, 64
7, 223080, Note_on_c, 5, 73, 72
7, 223200, Note_off_c, 5, 73, 64
7, 223200, Note_on_c, 5, 76, 72
7, 223320, Note_off_c, 5, 76, 64
7, 223320, Note_on_c, 5, 74, 72
7, 223440, Note_off_c, 5, 74, 64
7, 223440, Note_on_c, 5, 77, 72
7, 223560, Note_off_c, 5, 77, 64
7, 223560, Note_on_c, 5, 80, 72
7, 223656, Note_off_c, 5, 80, 64
7, 223680, Note_on_c, 5, 80, 72
7, 224280, Note_off_c, 5, 80, 64
7, 224280, Note_on_c, 5, 79, 72
7, 224400, Note_off_c, 5, 79, 64
7, 224400, Note_on_c, 5, 77, 72
7, 224520, Note_off_c, 5, 77, 64
7, 224520, Note_on_c, 5, 75, 72
7, 224616, Note_off_c, 5, 75, 64
7, 224640, Note_on_c, 5, 74, 72
7, 224760, Note_off_c, 5, 74, 64
7, 224760, Note_on_c, 5, 72, 72
7, 224880, Note_off_c, 5, 72, 64
7, 224880, Note_on_c, 5, 71, 72
7, 225000, Note_off_c, 5, 71, 64
7, 225000, Note_on_c, 5, 72, 72
7, 225120, Note_off_c, 5, 72, 64
7, 225120, Note_on_c, 5, 74, 72
7, 225240, Note_off_c, 5, 74, 64
7, 225240, Note_on_c, 5, 76, 72
7, 225360, Note_off_c, 5, 76, 64
7, 225360, Note_on_c, 5, 77, 72
7, 225480, Note_off_c, 5, 77, 64
7, 225480, Note_on_c, 5, 74, 72
7, 225600, Note_off_c, 5, 74, 64
7, 225600, Note_on_c, 5, 72, 58
7, 225792, Note_off_c, 5, 72, 64
7, 226920, Note_on_c, 5, 67, 72
7, 227016, Note_off_c, 5, 67, 64
7, 227040, Note_on_c, 5, 72, 72
7, 227160, Note_off_c, 5, 72, 64
7, 227160, Note_on_c, 5, 71, 72
7, 227280, Note_off_c, 5, 71, 64
7, 227280, Note_on_c, 5, 74, 72
7, 227400, Note_off_c, 5, 74, 64
7, 227400, Note_on_c, 5, 72, 72
7, 227496, Note_off_c, 5, 72, 64
7, 227520, Note_on_c, 5, 76, 72
7, 227640, Note_off_c, 5, 76, 64
7, 227640, Note_on_c, 5, 74, 81
7, 227760, Note_off_c, 5, 74, 64
7, 227760, Note_on_c, 5, 77, 81
7, 227880, Note_off_c, 5, 77, 64
7, 227880, Note_on_c, 5, 76, 81
7, 228000, Note_off_c, 5, 76, 64
7, 228000, Note_on_c, 5, 81, 92
7, 228120, Note_off_c, 5, 81, 64
7, 228120, Note_on_c, 5, 79, 92
7, 228240, Note_off_c, 5, 79, 64
7, 228240, Note_on_c, 5, 84, 105
7, 228360, Note_off_c, 5, 84, 64
7, 228360, Note_on_c, 5, 82, 105
7, 228456, Note_off_c, 5, 82, 64
7, 228480, Note_on_c, 5, 82, 105
7, 230262, Note_off_c, 5, 82, 64
7, 230280, Note_on_c, 5, 81, 105
7, 230320, Note_off_c, 5, 81, 64
7, 230320, Note_on_c, 5, 79, 105
7, 230360, Note_off_c, 5, 79, 64
7, 230360, Note_on_c, 5, 77, 105
7, 230396, Note_off_c, 5, 77, 64
7, 230400, Note_on_c, 5, 76, 105
7, 230592, Note_off_c, 5, 76, 64
7, 230880, Note_on_c, 5, 72, 105
7, 230880, Note_on_c, 5, 67, 105
7, 230880, Note_on_c, 5, 76, 105
7, 231048, Note_off_c, 5, 76, 64
7, 231048, Note_off_c, 5, 67, 64
7, 231048, Note_off_c, 5, 72, 64
7, 231120, Note_on_c, 5, 76, 105
7, 231204, Note_off_c, 5, 76, 64
7, 231240, Note_on_c, 5, 76, 105
7, 231324, Note_off_c, 5, 76, 64
7, 231360, Note_on_c, 5, 65, 105
7, 231360, Note_on_c, 5, 72, 105
7, 231360, Note_on_c, 5, 77, 105
7, 231528, Note_off_c, 5, 77, 64
7, 231528, Note_off_c, 5, 72, 64
7, 231528, Note_off_c, 5, 65, 64
7, 231600, Note_on_c, 5, 77, 105
7, 231684, Note_off_c, 5, 77, 64
7, 231720, Note_on_c, 5, 77, 105
7, 231804, Note_off_c, 5, 77, 64
7, 231840, Note_on_c, 5, 64, 105
7, 231840, Note_on_c, 5, 79, 105
7, 231840, Note_on_c, 5, 72, 105
7, 232008, Note_off_c, 5, 72, 64
7, 232008, Note_off_c, 5, 79, 64
7, 232008, Note_off_c, 5, 64, 64
7, 232080, Note_on_c, 5, 79, 105
7, 232164, Note_off_c, 5, 79, 64
7, 232200, Note_on_c, 5, 79, 105
7, 232284, Note_off_c, 5, 79, 64
7, 232320, Note_on_c, 5, 65, 105
7, 232320, Note_on_c, 5, 72, 105
7, 232320, Note_on_c, 5, 81, 105
7, 232512, Note_off_c, 5, 81, 64
7, 232512, Note_off_c, 5, 72, 64
7, 232512, Note_off_c, 5, 65, 64
7, 232560, Note_on_c, 5, 81, 105
7, 232752, Note_off_c, 5, 81, 64
7, 233040, Note_on_c, 5, 81, 81
7, 233232, Note_off_c, 5, 81, 64
7, 233520, Note_on_c, 5, 80, 58
7, 233712, Note_off_c, 5, 80, 64
7, 234000, Note_on_c, 5, 79, 58
7, 234192, Note_off_c, 5, 79, 64
7, 234480, Note_on_c, 5, 78, 58
7, 234672, Note_off_c, 5, 78, 64
7, 234960, Note_on_c, 5, 79, 58
7, 235152, Note_off_c, 5, 79, 64
7, 235440, Note_on_c, 5, 78, 58
7, 235632, Note_off_c, 5, 78, 64
7, 235920, Note_on_c, 5, 77, 58
7, 236112, Note_off_c, 5, 77, 64
7, 236400, Note_on_c, 5, 76, 58
7, 236592, Note_off_c, 5, 76, 64
7, 236760, Note_on_c, 5, 84, 58
7, 236880, Note_off_c, 5, 84, 64
7, 236880, Note_on_c, 5, 86, 72
7, 237000, Note_off_c, 5, 86, 64
7, 237000, Note_on_c, 5, 84, 72
7, 237096, Note_off_c, 5, 84, 64
7, 237240, Note_on_c, 5, 83, 72
7, 237360, Note_off_c, 5, 83, 64
7, 237360, Note_on_c, 5, 84, 72
7, 237480, Note_off_c, 5, 84, 64
7, 237480, Note_on_c, 5, 83, 72
7, 237576, Note_off_c, 5, 83, 64
7, 237720, Note_on_c, 5, 82, 72
7, 237840, Note_off_c, 5, 82, 64
7, 237840, Note_on_c, 5, 84, 72
7, 237960, Note_off_c, 5, 84, 64
7, 237960, Note_on_c, 5, 82, 72
7, 238056, Note_off_c, 5, 82, 64
7, 238200, Note_on_c, 5, 80, 72
7, 238320, Note_off_c, 5, 80, 64
7, 238320, Note_on_c, 5, 82, 72
7, 238440, Note_off_c, 5, 82, 64
7, 238440, Note_on_c, 5, 80, 72
7, 238536, Note_off_c, 5, 80, 64
7, 238680, Note_on_c, 5, 79, 72
7, 238800, Note_off_c, 5, 79, 64
7, 238800, Note_on_c, 5, 80, 72
7, 238920, Note_off_c, 5, 80, 64
7, 238920, Note_on_c, 5, 79, 72
7, 239016, Note_off_c, 5, 79, 64
7, 239040, Note_on_c, 5, 78, 72
7, 239280, Note_off_c, 5, 78, 64
7, 239280, Note_on_c, 5, 75, 81
7, 239520, Note_off_c, 5, 75, 64
7, 239520, Note_on_c, 5, 74, 92
7, 239760, Note_off_c, 5, 74, 64
7, 239760, Note_on_c, 5, 72, 105
7, 239952, Note_off_c, 5, 72, 64
7, 240000, Note_on_c, 5, 71, 105
7, 240192, Note_off_c, 5, 71, 64
7, 240720, Note_on_c, 5, 67, 105
7, 240720, Note_on_c, 5, 83, 105
7, 240720, Note_on_c, 5, 74, 105
7, 240864, Note_off_c, 5, 74, 64
7, 240864, Note_off_c, 5, 83, 64
7, 240864, Note_off_c, 5, 67, 64
7, 240960, Note_on_c, 5, 84, 105
7, 240960, Note_on_c, 5, 76, 105
7, 240960, Note_on_c, 5, 67, 105
7, 241128, Note_off_c, 5, 67, 64
7, 241128, Note_off_c, 5, 76, 64
7, 241128, Note_off_c, 5, 84, 64
7, 241680, Note_on_c, 5, 76, 105
7, 241680, Note_on_c, 5, 84, 105
7, 241680, Note_on_c, 5, 67, 105
7, 241824, Note_off_c, 5, 67, 64
7, 241824, Note_off_c, 5, 84, 64
7, 241824, Note_off_c, 5, 76, 64
7, 241920, Note_on_c, 5, 86, 105
7, 241920, Note_on_c, 5, 77, 105
7, 241920, Note_on_c, 5, 67, 105
7, 242088, Note_off_c, 5, 67, 64
7, 242088, Note_off_c, 5, 77, 64
7, 242088, Note_off_c, 5, 86, 64
7, 242640, Note_on_c, 5, 77, 105
7, 242640, Note_on_c, 5, 86, 105
7, 242640, Note_on_c, 5, 67, 105
7, 242784, Note_off_c, 5, 67, 64
7, 242784, Note_off_c, 5, 86, 64
7, 242784, Note_off_c, 5, 77, 64
7, 242880, Note_on_c, 5, 84, 105
7, 242880, Note_on_c, 5, 76, 105
7, 242880, Note_on_c, 5, 67, 105
7, 243048, Note_off_c, 5, 67, 64
7, 243048, Note_off_c, 5, 76, 64
7, 243048, Note_off_c, 5, 84, 64
7, 243600, Note_on_c, 5, 76, 105
7, 243600, Note_on_c, 5, 84, 105
7, 243600, Note_on_c, 5, 67, 105
7, 243744, Note_off_c, 5, 67, 64
7, 243744, Note_off_c, 5, 84, 64
7, 243744, Note_off_c, 5, 76, 64
7, 243840, Note_on_c, 5, 83, 105
7, 243840, Note_on_c, 5, 74, 105
7, 243840, Note_on_c, 5, 67, 105
7, 244008, Note_off_c, 5, 67, 64
7, 244008, Note_off_c, 5, 74, 64
7, 244008, Note_off_c, 5, 83, 64
7, 244080, Note_on_c, 5, 67, 105
7, 244080, Note_on_c, 5, 84, 105
7, 244080, Note_on_c, 5, 76, 105
7, 244248, Note_off_c, 5, 76, 64
7, 244248, Note_off_c, 5, 84, 64
7, 244248, Note_off_c, 5, 67, 64
7, 244320, Note_on_c, 5, 67, 105
7, 244320, Note_on_c, 5, 77, 105
7, 244320, Note_on_c, 5, 86, 105
7, 244488, Note_off_c, 5, 86, 64
7, 244488, Note_off_c, 5, 77, 64
7, 244488, Note_off_c, 5, 67, 64
7, 244560, Note_on_c, 5, 67, 105
7, 244560, Note_on_c, 5, 76, 105
7, 244560, Note_on_c, 5, 84, 105
7, 244728, Note_off_c, 5, 84, 64
7, 244728, Note_off_c, 5, 76, 64
7, 244728, Note_off_c, 5, 67, 64
7, 244800, Note_on_c, 5, 83, 105
7, 244800, Note_on_c, 5, 74, 105
7, 244800, Note_on_c, 5, 67, 105
7, 244968, Note_off_c, 5, 67, 64
7, 244968, Note_off_c, 5, 74, 64
7, 244968, Note_off_c, 5, 83, 64
7, 245040, Note_on_c, 5, 67, 105
7, 245040, Note_on_c, 5, 84, 105
7, 245040, Note_on_c, 5, 76, 105
7, 245208, Note_off_c, 5, 76, 64
7, 245208, Note_off_c, 5, 84, 64
7, 245208, Note_off_c, 5, 67, 64
7, 245280, Note_on_c, 5, 67, 105
7, 245280, Note_on_c, 5, 77, 105
7, 245280, Note_on_c, 5, 86, 105
7, 245448, Note_off_c, 5, 86, 64
7, 245448, Note_off_c, 5, 77, 64
7, 245448, Note_off_c, 5, 67, 64
7, 245520, Note_on_c, 5, 67, 105
7, 245520, Note_on_c, 5, 76, 105
7, 245520, Note_on_c, 5, 84, 105
7, 245688, Note_off_c, 5, 84, 64
7, 245688, Note_off_c, 5, 76, 64
7, 245688, Note_off_c, 5, 67, 64
7, 245760, Note_on_c, 5, 83, 105
7, 245760, Note_on_c, 5, 67, 105
7, 245760, Note_on_c, 5, 74, 105
7, 245952, Note_off_c, 5, 74, 64
7, 245952, Note_off_c, 5, 67, 64
7, 245952, Note_off_c, 5, 83, 64
7, 246480, Note_on_c, 5, 55, 72
7, 246720, Note_off_c, 5, 55, 64
7, 246720, Note_on_c, 5, 59, 58
7, 246888, Note_off_c, 5, 59, 64
7, 247440, Note_on_c, 5, 59, 58
7, 247680, Note_off_c, 5, 59, 64
7, 247680, Note_on_c, 5, 62, 58
7, 247848, Note_off_c, 5, 62, 64
7, 248400, Note_on_c, 5, 62, 72
7, 248640, Note_off_c, 5, 62, 64
7, 248640, Note_on_c, 5, 65, 58
7, 248808, Note_off_c, 5, 65, 64
7, 249360, Note_on_c, 5, 59, 72
7, 249600, Note_off_c, 5, 59, 64
7, 249600, Note_on_c, 5, 60, 72
7, 249840, Note_off_c, 5, 60, 64
7, 249840, Note_on_c, 5, 61, 72
7, 250080, Note_off_c, 5, 61, 64
7, 250080, Note_on_c, 5, 62, 72
7, 250320, Note_off_c, 5, 62, 64
7, 250320, Note_on_c, 5, 63, 72
7, 250512, Note_off_c, 5, 63, 64
7, 250560, Note_on_c, 5, 64, 72
7, 251520, Note_off_c, 5, 64, 64
7, 251520, Note_on_c, 5, 65, 72
7, 252432, Note_off_c, 5, 65, 64
7, 252480, Note_on_c, 5, 67, 72
7, 252840, Note_off_c, 5, 67, 64
7, 252840, Note_on_c, 5, 69, 72
7, 252900, Note_off_c, 5, 69, 64
7, 252900, Note_on_c, 5, 71, 72
7, 252948, Note_off_c, 5, 71, 64
7, 252960, Note_on_c, 5, 72, 72
7, 253104, Note_off_c, 5, 72, 64
7, 253200, Note_on_c, 5, 67, 72
7, 253344, Note_off_c, 5, 67, 64
7, 253440, Note_on_c, 5, 71, 72
7, 253500, Note_off_c, 5, 71, 64
7, 253500, Note_on_c, 5, 69, 72
7, 253608, Note_off_c, 5, 69, 64
7, 253680, Note_on_c, 5, 67, 72
7, 253824, Note_off_c, 5, 67, 64
7, 254400, Note_on_c, 5, 72, 72
7, 255360, Note_off_c, 5, 72, 64
7, 255360, Note_on_c, 5, 70, 72
7, 256272, Note_off_c, 5, 70, 64
7, 256320, Note_on_c, 5, 69, 72
7, 256512, Note_off_c, 5, 69, 64
7, 256560, Note_on_c, 5, 72, 72
7, 256590, Note_off_c, 5, 72, 64
7, 256590, Note_on_c, 5, 71, 72
7, 256620, Note_off_c, 5, 71, 64
7, 256620, Note_on_c, 5, 72, 72
7, 256650, Note_off_c, 5, 72, 64
7, 256650, Note_on_c, 5, 71, 72
7, 256680, Note_off_c, 5, 71, 64
7, 256680, Note_on_c, 5, 69, 72
7, 256740, Note_off_c, 5, 69, 64
7, 256740, Note_on_c, 5, 71, 72
7, 256800, Note_off_c, 5, 71, 64
7, 256800, Note_on_c, 5, 72, 72
7, 256944, Note_off_c, 5, 72, 64
7, 257040, Note_on_c, 5, 74, 72
7, 257184, Note_off_c, 5, 74, 64
7, 257280, Note_on_c, 5, 77, 72
7, 257400, Note_off_c, 5, 77, 64
7, 257400, Note_on_c, 5, 76, 72
7, 257472, Note_off_c, 5, 76, 64
7, 257520, Note_on_c, 5, 75, 72
7, 257592, Note_off_c, 5, 75, 64
7, 257640, Note_on_c, 5, 76, 72
7, 257712, Note_off_c, 5, 76, 64
7, 257760, Note_on_c, 5, 74, 72
7, 257880, Note_off_c, 5, 74, 64
7, 257880, Note_on_c, 5, 72, 72
7, 257952, Note_off_c, 5, 72, 64
7, 258000, Note_on_c, 5, 71, 72
7, 258072, Note_off_c, 5, 71, 64
7, 258120, Note_on_c, 5, 72, 72
7, 258192, Note_off_c, 5, 72, 64
7, 258240, Note_on_c, 5, 71, 72
7, 258360, Note_off_c, 5, 71, 64
7, 258360, Note_on_c, 5, 69, 72
7, 258432, Note_off_c, 5, 69, 64
7, 258480, Note_on_c, 5, 68, 72
7, 258552, Note_off_c, 5, 68, 64
7, 258600, Note_on_c, 5, 69, 72
7, 258672, Note_off_c, 5, 69, 64
7, 258720, Note_on_c, 5, 67, 72
7, 258840, Note_off_c, 5, 67, 64
7, 258840, Note_on_c, 5, 65, 72
7, 258912, Note_off_c, 5, 65, 64
7, 258960, Note_on_c, 5, 64, 72
7, 259032, Note_off_c, 5, 64, 64
7, 259080, Note_on_c, 5, 65, 72
7, 259152, Note_off_c, 5, 65, 64
7, 259200, Note_on_c, 5, 64, 72
7, 259680, Note_off_c, 5, 64, 64
7, 259680, Note_on_c, 5, 62, 58
7, 259872, Note_off_c, 5, 62, 64
7, 260160, Note_on_c, 5, 76, 125
7, 260304, Note_off_c, 5, 76, 64
7, 260400, Note_on_c, 5, 64, 125
7, 260976, Note_off_c, 5, 64, 64
7, 261120, Note_on_c, 5, 77, 125
7, 261264, Note_off_c, 5, 77, 64
7, 261360, Note_on_c, 5, 65, 125
7, 261936, Note_off_c, 5, 65, 64
7, 262080, Note_on_c, 5, 79, 125
7, 262440, Note_off_c, 5, 79, 64
7, 262440, Note_on_c, 5, 81, 105
7, 262500, Note_off_c, 5, 81, 64
7, 262500, Note_on_c, 5, 83, 105
7, 262548, Note_off_c, 5, 83, 64
7, 262560, Note_on_c, 5, 84, 105
7, 262704, Note_off_c, 5, 84, 64
7, 262800, Note_on_c, 5, 79, 105
7, 262944, Note_off_c, 5, 79, 64
7, 263040, Note_on_c, 5, 65, 105
7, 263040, Note_on_c, 5, 72, 105
7, 263040, Note_on_c, 5, 81, 105
7, 263208, Note_off_c, 5, 81, 64
7, 263208, Note_off_c, 5, 72, 64
7, 263208, Note_off_c, 5, 65, 64
7, 263280, Note_on_c, 5, 79, 105
7, 263280, Note_on_c, 5, 64, 105
7, 263280, Note_on_c, 5, 72, 105
7, 263448, Note_off_c, 5, 72, 64
7, 263448, Note_off_c, 5, 64, 64
7, 263448, Note_off_c, 5, 79, 64
7, 263520, Note_on_c, 5, 84, 105
7, 263688, Note_off_c, 5, 84, 64
7, 263760, Note_on_c, 5, 79, 105
7, 263760, Note_on_c, 5, 64, 105
7, 263760, Note_on_c, 5, 72, 105
7, 263928, Note_off_c, 5, 72, 64
7, 263928, Note_off_c, 5, 64, 64
7, 263928, Note_off_c, 5, 79, 64
7, 264000, Note_on_c, 5, 65, 105
7, 264000, Note_on_c, 5, 72, 105
7, 264000, Note_on_c, 5, 81, 105
7, 264168, Note_off_c, 5, 81, 64
7, 264168, Note_off_c, 5, 72, 64
7, 264168, Note_off_c, 5, 65, 64
7, 264240, Note_on_c, 5, 79, 105
7, 264240, Note_on_c, 5, 64, 105
7, 264240, Note_on_c, 5, 72, 105
7, 264408, Note_off_c, 5, 72, 64
7, 264408, Note_off_c, 5, 64, 64
7, 264408, Note_off_c, 5, 79, 64
7, 264480, Note_on_c, 5, 84, 105
7, 264648, Note_off_c, 5, 84, 64
7, 264720, Note_on_c, 5, 79, 105
7, 264720, Note_on_c, 5, 64, 105
7, 264720, Note_on_c, 5, 72, 105
7, 264888, Note_off_c, 5, 72, 64
7, 264888, Note_off_c, 5, 64, 64
7, 264888, Note_off_c, 5, 79, 64
7, 264960, Note_on_c, 5, 72, 105
7, 264960, Note_on_c, 5, 65, 105
7, 264960, Note_on_c, 5, 81, 105
7, 265128, Note_off_c, 5, 81, 64
7, 265128, Note_off_c, 5, 65, 64
7, 265128, Note_off_c, 5, 72, 64
7, 265200, Note_on_c, 5, 79, 105
7, 265200, Note_on_c, 5, 72, 105
7, 265200, Note_on_c, 5, 64, 105
7, 265368, Note_off_c, 5, 64, 64
7, 265368, Note_off_c, 5, 72, 64
7, 265368, Note_off_c, 5, 79, 64
7, 265440, Note_on_c, 5, 81, 105
7, 265440, Note_on_c, 5, 72, 105
7, 265440, Note_on_c, 5, 65, 105
7, 265608, Note_off_c, 5, 65, 64
7, 265608, Note_off_c, 5, 72, 64
7, 265608, Note_off_c, 5, 81, 64
7, 265680, Note_on_c, 5, 72, 105
7, 265680, Note_on_c, 5, 64, 105
7, 265680, Note_on_c, 5, 79, 105
7, 265848, Note_off_c, 5, 79, 64
7, 265848, Note_off_c, 5, 64, 64
7, 265848, Note_off_c, 5, 72, 64
7, 265920, Note_on_c, 5, 65, 105
7, 265920, Note_on_c, 5, 72, 105
7, 265920, Note_on_c, 5, 81, 105
7, 266088, Note_off_c, 5, 81, 64
7, 266088, Note_off_c, 5, 72, 64
7, 266088, Note_off_c, 5, 65, 64
7, 266160, Note_on_c, 5, 72, 105
7, 266160, Note_on_c, 5, 64, 105
7, 266160, Note_on_c, 5, 79, 105
7, 266328, Note_off_c, 5, 79, 64
7, 266328, Note_off_c, 5, 64, 64
7, 266328, Note_off_c, 5, 72, 64
7, 266880, Note_on_c, 5, 84, 72
7, 267840, Note_off_c, 5, 84, 64
7, 267840, Note_on_c, 5, 82, 72
7, 268608, Note_off_c, 5, 82, 64
7, 268800, Note_on_c, 5, 80, 72
7, 268920, Note_off_c, 5, 80, 64
7, 268920, Note_on_c, 5, 81, 72
7, 269040, Note_off_c, 5, 81, 64
7, 269040, Note_on_c, 5, 84, 72
7, 269160, Note_off_c, 5, 84, 64
7, 269160, Note_on_c, 5, 81, 72
7, 269256, Note_off_c, 5, 81, 64
7, 269280, Note_on_c, 5, 76, 72
7, 269400, Note_off_c, 5, 76, 64
7, 269400, Note_on_c, 5, 77, 72
7, 269520, Note_off_c, 5, 77, 64
7, 269520, Note_on_c, 5, 81, 72
7, 269640, Note_off_c, 5, 81, 64
7, 269640, Note_on_c, 5, 77, 72
7, 269736, Note_off_c, 5, 77, 64
7, 269760, Note_on_c, 5, 73, 72
7, 269880, Note_off_c, 5, 73, 64
7, 269880, Note_on_c, 5, 74, 72
7, 270000, Note_off_c, 5, 74, 64
7, 270000, Note_on_c, 5, 77, 72
7, 270120, Note_off_c, 5, 77, 64
7, 270120, Note_on_c, 5, 76, 72
7, 270216, Note_off_c, 5, 76, 64
7, 270240, Note_on_c, 5, 79, 72
7, 270360, Note_off_c, 5, 79, 64
7, 270360, Note_on_c, 5, 77, 72
7, 270480, Note_off_c, 5, 77, 64
7, 270480, Note_on_c, 5, 76, 72
7, 270600, Note_off_c, 5, 76, 64
7, 270600, Note_on_c, 5, 74, 72
7, 270696, Note_off_c, 5, 74, 64
7, 270720, Note_on_c, 5, 79, 72
7, 270840, Note_off_c, 5, 79, 64
7, 270840, Note_on_c, 5, 76, 72
7, 270960, Note_off_c, 5, 76, 64
7, 270960, Note_on_c, 5, 72, 72
7, 271344, Note_off_c, 5, 72, 64
7, 271440, Note_on_c, 5, 71, 72
7, 271632, Note_off_c, 5, 71, 64
7, 271680, Note_on_c, 5, 72, 92
7, 271872, Note_off_c, 5, 72, 64
7, 272640, Note_on_c, 5, 79, 92
7, 272808, Note_off_c, 5, 79, 64
7, 272880, Note_on_c, 5, 79, 105
7, 273006, Note_off_c, 5, 79, 64
7, 273060, Note_on_c, 5, 79, 105
7, 273102, Note_off_c, 5, 79, 64
7, 273120, Note_on_c, 5, 79, 105
7, 273288, Note_off_c, 5, 79, 64
7, 273360, Note_on_c, 5, 79, 105
7, 273528, Note_off_c, 5, 79, 64
7, 273600, Note_on_c, 5, 84, 105
7, 273984, Note_off_c, 5, 84, 64
7, 274080, Note_on_c, 5, 76, 105
7, 274464, Note_off_c, 5, 76, 64
7, 274560, Note_on_c, 5, 74, 105
7, 274920, Note_off_c, 5, 74, 64
7, 274920, Note_on_c, 5, 77, 105
7, 274980, Note_off_c, 5, 77, 64
7, 274980, Note_on_c, 5, 81, 105
7, 275028, Note_off_c, 5, 81, 64
7, 275040, Note_on_c, 5, 72, 105
7, 275280, Note_off_c, 5, 72, 64
7, 275280, Note_on_c, 5, 71, 105
7, 275508, Note_off_c, 5, 71, 64
7, 275520, Note_on_c, 5, 72, 105
7, 275712, Note_off_c, 5, 72, 64
7, 276480, Note_on_c, 5, 79, 105
7, 276648, Note_off_c, 5, 79, 64
7, 276720, Note_on_c, 5, 79, 105
7, 276846, Note_off_c, 5, 79, 64
7, 276900, Note_on_c, 5, 79, 105
7, 276942, Note_off_c, 5, 79, 64
7, 276960, Note_on_c, 5, 79, 105
7, 277128, Note_off_c, 5, 79, 64
7, 277200, Note_on_c, 5, 79, 105
7, 277368, Note_off_c, 5, 79, 64
7, 277440, Note_on_c, 5, 84, 105
7, 277824, Note_off_c, 5, 84, 64
7, 277920, Note_on_c, 5, 76, 105
7, 278304, Note_off_c, 5, 76, 64
7, 278400, Note_on_c, 5, 74, 105
7, 278568, Note_off_c, 5, 74, 64
7, 278640, Note_on_c, 5, 74, 105
7, 278766, Note_off_c, 5, 74, 64
7, 278820, Note_on_c, 5, 74, 105
7, 278862, Note_off_c, 5, 74, 64
7, 278880, Note_on_c, 5, 74, 105
7, 279048, Note_off_c, 5, 74, 64
7, 279120, Note_on_c, 5, 74, 105
7, 279288, Note_off_c, 5, 74, 64
7, 279360, Note_on_c, 5, 82, 105
7, 279744, Note_off_c, 5, 82, 64
7, 279840, Note_on_c, 5, 74, 105
7, 280224, Note_off_c, 5, 74, 64
7, 280320, Note_on_c, 5, 72, 105
7, 280488, Note_off_c, 5, 72, 64
7, 280560, Note_on_c, 5, 72, 105
7, 280686, Note_off_c, 5, 72, 64
7, 280740, Note_on_c, 5, 72, 105
7, 280782, Note_off_c, 5, 72, 64
7, 280800, Note_on_c, 5, 72, 105
7, 280968, Note_off_c, 5, 72, 64
7, 281040, Note_on_c, 5, 72, 105
7, 281208, Note_off_c, 5, 72, 64
7, 281280, Note_on_c, 5, 81, 105
7, 281664, Note_off_c, 5, 81, 64
7, 281760, Note_on_c, 5, 72, 105
7, 282144, Note_off_c, 5, 72, 64
7, 282240, Note_on_c, 5, 70, 105
7, 282408, Note_off_c, 5, 70, 64
7, 282480, Note_on_c, 5, 70, 105
7, 282606, Note_off_c, 5, 70, 64
7, 282660, Note_on_c, 5, 70, 105
7, 282702, Note_off_c, 5, 70, 64
7, 282720, Note_on_c, 5, 70, 105
7, 282888, Note_off_c, 5, 70, 64
7, 282960, Note_on_c, 5, 70, 105
7, 283128, Note_off_c, 5, 70, 64
7, 283200, Note_on_c, 5, 82, 105
7, 283584, Note_off_c, 5, 82, 64
7, 283680, Note_on_c, 5, 70, 105
7, 284064, Note_off_c, 5, 70, 64
7, 284160, Note_on_c, 5, 69, 105
7, 284244, Note_off_c, 5, 69, 64
7, 284280, Note_on_c, 5, 84, 105
7, 284352, Note_off_c, 5, 84, 64
7, 284400, Note_on_c, 5, 84, 105
7, 284472, Note_off_c, 5, 84, 64
7, 284520, Note_on_c, 5, 84, 105
7, 284592, Note_off_c, 5, 84, 64
7, 284640, Note_on_c, 5, 84, 105
7, 284808, Note_off_c, 5, 84, 64
7, 284880, Note_on_c, 5, 77, 105
7, 285048, Note_off_c, 5, 77, 64
7, 285120, Note_on_c, 5, 76, 105
7, 285264, Note_off_c, 5, 76, 64
7, 285360, Note_on_c, 5, 77, 105
7, 285504, Note_off_c, 5, 77, 64
7, 285600, Note_on_c, 5, 79, 105
7, 285960, Note_off_c, 5, 79, 64
7, 285960, Note_on_c, 5, 81, 105
7, 286020, Note_off_c, 5, 81, 64
7, 286020, Note_on_c, 5, 82, 105
7, 286068, Note_off_c, 5, 82, 64
7, 286080, Note_on_c, 5, 81, 105
7, 286200, Note_off_c, 5, 81, 64
7, 286200, Note_on_c, 5, 77, 105
7, 286272, Note_off_c, 5, 77, 64
7, 286320, Note_on_c, 5, 84, 105
7, 286392, Note_off_c, 5, 84, 64
7, 286440, Note_on_c, 5, 84, 105
7, 286512, Note_off_c, 5, 84, 64
7, 286560, Note_on_c, 5, 84, 105
7, 286728, Note_off_c, 5, 84, 64
7, 286800, Note_on_c, 5, 77, 105
7, 286968, Note_off_c, 5, 77, 64
7, 287040, Note_on_c, 5, 76, 105
7, 287184, Note_off_c, 5, 76, 64
7, 287280, Note_on_c, 5, 77, 105
7, 287424, Note_off_c, 5, 77, 64
7, 287520, Note_on_c, 5, 79, 105
7, 287880, Note_off_c, 5, 79, 64
7, 287880, Note_on_c, 5, 81, 105
7, 287940, Note_off_c, 5, 81, 64
7, 287940, Note_on_c, 5, 82, 105
7, 287988, Note_off_c, 5, 82, 64
7, 288000, Note_on_c, 5, 81, 105
7, 288144, Note_off_c, 5, 81, 64
7, 288240, Note_on_c, 5, 81, 72
7, 288720, Note_off_c, 5, 81, 64
7, 288720, Note_on_c, 5, 79, 72
7, 288912, Note_off_c, 5, 79, 64
7, 288960, Note_on_c, 5, 79, 105
7, 289020, Note_off_c, 5, 79, 64
7, 289020, Note_on_c, 5, 77, 105
7, 289164, Note_off_c, 5, 77, 64
7, 289200, Note_on_c, 5, 77, 72
7, 289680, Note_off_c, 5, 77, 64
7, 289680, Note_on_c, 5, 76, 72
7, 289872, Note_off_c, 5, 76, 64
7, 289920, Note_on_c, 5, 74, 105
7, 289992, Note_off_c, 5, 74, 64
7, 290040, Note_on_c, 5, 73, 105
7, 290112, Note_off_c, 5, 73, 64
7, 290160, Note_on_c, 5, 74, 105
7, 290232, Note_off_c, 5, 74, 64
7, 290280, Note_on_c, 5, 73, 105
7, 290352, Note_off_c, 5, 73, 64
7, 290400, Note_on_c, 5, 74, 105
7, 290472, Note_off_c, 5, 74, 64
7, 290520, Note_on_c, 5, 73, 105
7, 290592, Note_off_c, 5, 73, 64
7, 290640, Note_on_c, 5, 74, 105
7, 290712, Note_off_c, 5, 74, 64
7, 290760, Note_on_c, 5, 76, 105
7, 290832, Note_off_c, 5, 76, 64
7, 290880, Note_on_c, 5, 77, 105
7, 290952, Note_off_c, 5, 77, 64
7, 291000, Note_on_c, 5, 76, 105
7, 291072, Note_off_c, 5, 76, 64
7, 291120, Note_on_c, 5, 77, 105
7, 291192, Note_off_c, 5, 77, 64
7, 291240, Note_on_c, 5, 76, 105
7, 291312, Note_off_c, 5, 76, 64
7, 291360, Note_on_c, 5, 77, 105
7, 291432, Note_off_c, 5, 77, 64
7, 291480, Note_on_c, 5, 76, 105
7, 291552, Note_off_c, 5, 76, 64
7, 291600, Note_on_c, 5, 77, 105
7, 291672, Note_off_c, 5, 77, 64
7, 291720, Note_on_c, 5, 79, 105
7, 291792, Note_off_c, 5, 79, 64
7, 291840, Note_on_c, 5, 81, 105
7, 291912, Note_off_c, 5, 81, 64
7, 291960, Note_on_c, 5, 80, 105
7, 292032, Note_off_c, 5, 80, 64
7, 292080, Note_on_c, 5, 81, 105
7, 292152, Note_off_c, 5, 81, 64
7, 292200, Note_on_c, 5, 80, 105
7, 292272, Note_off_c, 5, 80, 64
7, 292320, Note_on_c, 5, 81, 105
7, 292392, Note_off_c, 5, 81, 64
7, 292440, Note_on_c, 5, 80, 105
7, 292512, Note_off_c, 5, 80, 64
7, 292560, Note_on_c, 5, 81, 105
7, 292632, Note_off_c, 5, 81, 64
7, 292680, Note_on_c, 5, 83, 105
7, 292752, Note_off_c, 5, 83, 64
7, 292800, Note_on_c, 5, 84, 105
7, 292872, Note_off_c, 5, 84, 64
7, 292920, Note_on_c, 5, 83, 105
7, 292992, Note_off_c, 5, 83, 64
7, 293040, Note_on_c, 5, 84, 105
7, 293112, Note_off_c, 5, 84, 64
7, 293160, Note_on_c, 5, 83, 105
7, 293232, Note_off_c, 5, 83, 64
7, 293280, Note_on_c, 5, 84, 105
7, 293352, Note_off_c, 5, 84, 64
7, 293400, Note_on_c, 5, 83, 105
7, 293472, Note_off_c, 5, 83, 64
7, 293520, Note_on_c, 5, 84, 105
7, 293592, Note_off_c, 5, 84, 64
7, 293640, Note_on_c, 5, 86, 105
7, 293712, Note_off_c, 5, 86, 64
7, 293760, Note_on_c, 5, 88, 105
7, 294240, Note_off_c, 5, 88, 64
7, 294240, Note_on_c, 5, 76, 81
7, 294696, Note_off_c, 5, 76, 64
7, 294720, Note_on_c, 5, 84, 72
7, 295200, Note_off_c, 5, 84, 64
7, 295200, Note_on_c, 5, 72, 58
7, 295656, Note_off_c, 5, 72, 64
7, 295680, Note_on_c, 5, 75, 72
7, 296160, Note_off_c, 5, 75, 64
7, 296160, Note_on_c, 5, 63, 72
7, 296616, Note_off_c, 5, 63, 64
7, 296640, Note_on_c, 5, 72, 72
7, 297120, Note_off_c, 5, 72, 64
7, 297120, Note_on_c, 5, 60, 72
7, 297576, Note_off_c, 5, 60, 64
7, 297600, Note_on_c, 5, 67, 58
7, 299136, Note_off_c, 5, 67, 64
7, 299280, Note_on_c, 5, 68, 72
7, 299472, Note_off_c, 5, 68, 64
7, 299520, Note_on_c, 5, 69, 72
7, 299880, Note_off_c, 5, 69, 64
7, 299880, Note_on_c, 5, 71, 72
7, 299940, Note_off_c, 5, 71, 64
7, 299940, Note_on_c, 5, 72, 72
7, 299988, Note_off_c, 5, 72, 64
7, 300000, Note_on_c, 5, 67, 72
7, 300144, Note_off_c, 5, 67, 64
7, 300240, Note_on_c, 5, 67, 72
7, 300384, Note_off_c, 5, 67, 64
7, 300480, Note_on_c, 5, 69, 72
7, 300840, Note_off_c, 5, 69, 64
7, 300840, Note_on_c, 5, 71, 72
7, 300900, Note_off_c, 5, 71, 64
7, 300900, Note_on_c, 5, 72, 72
7, 300948, Note_off_c, 5, 72, 64
7, 300960, Note_on_c, 5, 67, 72
7, 301104, Note_off_c, 5, 67, 64
7, 301200, Note_on_c, 5, 76, 72
7, 301344, Note_off_c, 5, 76, 64
7, 301440, Note_on_c, 5, 74, 72
7, 301584, Note_off_c, 5, 74, 64
7, 301680, Note_on_c, 5, 77, 72
7, 302160, Note_off_c, 5, 77, 64
7, 302160, Note_on_c, 5, 74, 72
7, 302280, Note_off_c, 5, 74, 64
7, 302280, Note_on_c, 5, 71, 72
7, 302376, Note_off_c, 5, 71, 64
7, 302400, Note_on_c, 5, 72, 72
7, 302592, Note_off_c, 5, 72, 64
7, 302880, Note_on_c, 5, 81, 105
7, 302880, Note_on_c, 5, 69, 105
7, 303036, Note_off_c, 5, 69, 64
7, 303036, Note_off_c, 5, 81, 64
7, 303120, Note_on_c, 5, 81, 105
7, 303120, Note_on_c, 5, 69, 105
7, 303276, Note_off_c, 5, 69, 64
7, 303276, Note_off_c, 5, 81, 64
7, 303360, Note_on_c, 5, 69, 105
7, 303360, Note_on_c, 5, 81, 105
7, 303744, Note_off_c, 5, 81, 64
7, 303744, Note_off_c, 5, 69, 64
7, 303840, Note_on_c, 5, 88, 105
7, 304224, Note_off_c, 5, 88, 64
7, 304320, Note_on_c, 5, 84, 105
7, 304476, Note_off_c, 5, 84, 64
7, 304560, Note_on_c, 5, 81, 105
7, 304716, Note_off_c, 5, 81, 64
7, 304800, Note_on_c, 5, 88, 105
7, 304956, Note_off_c, 5, 88, 64
7, 305040, Note_on_c, 5, 88, 105
7, 305196, Note_off_c, 5, 88, 64
7, 305280, Note_on_c, 5, 84, 105
7, 305436, Note_off_c, 5, 84, 64
7, 305520, Note_on_c, 5, 81, 105
7, 305676, Note_off_c, 5, 81, 64
7, 305760, Note_on_c, 5, 88, 105
7, 305916, Note_off_c, 5, 88, 64
7, 306000, Note_on_c, 5, 88, 105
7, 306156, Note_off_c, 5, 88, 64
7, 306240, Note_on_c, 5, 84, 105
7, 306396, Note_off_c, 5, 84, 64
7, 306480, Note_on_c, 5, 81, 105
7, 306636, Note_off_c, 5, 81, 64
7, 308280, Note_on_c, 5, 84, 72
7, 308352, Note_off_c, 5, 84, 64
7, 308400, Note_on_c, 5, 84, 72
7, 308472, Note_off_c, 5, 84, 64
7, 308520, Note_on_c, 5, 84, 72
7, 308592, Note_off_c, 5, 84, 64
7, 308640, Note_on_c, 5, 86, 72
7, 308760, Note_off_c, 5, 86, 64
7, 308760, Note_on_c, 5, 84, 72
7, 308832, Note_off_c, 5, 84, 64
7, 308880, Note_on_c, 5, 83, 72
7, 308952, Note_off_c, 5, 83, 64
7, 309000, Note_on_c, 5, 81, 72
7, 309072, Note_off_c, 5, 81, 64
7, 309120, Note_on_c, 5, 81, 72
7, 309240, Note_off_c, 5, 81, 64
7, 309240, Note_on_c, 5, 79, 72
7, 309312, Note_off_c, 5, 79, 64
7, 309360, Note_on_c, 5, 76, 72
7, 309432, Note_off_c, 5, 76, 64
7, 309480, Note_on_c, 5, 79, 72
7, 309552, Note_off_c, 5, 79, 64
7, 309600, Note_on_c, 5, 79, 72
7, 309720, Note_off_c, 5, 79, 64
7, 309720, Note_on_c, 5, 77, 72
7, 309792, Note_off_c, 5, 77, 64
7, 309840, Note_on_c, 5, 76, 72
7, 309912, Note_off_c, 5, 76, 64
7, 309960, Note_on_c, 5, 74, 72
7, 310032, Note_off_c, 5, 74, 64
7, 310080, Note_on_c, 5, 72, 58
7, 310272, Note_off_c, 5, 72, 64
7, 311040, Note_on_c, 5, 64, 58
7, 311160, Note_off_c, 5, 64, 64
7, 311160, Note_on_c, 5, 72, 58
7, 311280, Note_off_c, 5, 72, 64
7, 311280, Note_on_c, 5, 69, 58
7, 311400, Note_off_c, 5, 69, 64
7, 311400, Note_on_c, 5, 72, 58
7, 311520, Note_off_c, 5, 72, 64
7, 311520, Note_on_c, 5, 64, 58
7, 311640, Note_off_c, 5, 64, 64
7, 311640, Note_on_c, 5, 71, 58
7, 311760, Note_off_c, 5, 71, 64
7, 311760, Note_on_c, 5, 68, 58
7, 311880, Note_off_c, 5, 68, 64
7, 311880, Note_on_c, 5, 71, 58
7, 311976, Note_off_c, 5, 71, 64
7, 312000, Note_on_c, 5, 69, 58
7, 312072, Note_off_c, 5, 69, 64
7, 312120, Note_on_c, 5, 69, 58
7, 312240, Note_off_c, 5, 69, 64
7, 312240, Note_on_c, 5, 68, 58
7, 312360, Note_off_c, 5, 68, 64
7, 312360, Note_on_c, 5, 69, 58
7, 312456, Note_off_c, 5, 69, 64
7, 312480, Note_on_c, 5, 71, 58
7, 312552, Note_off_c, 5, 71, 64
7, 312600, Note_on_c, 5, 68, 58
7, 312720, Note_off_c, 5, 68, 64
7, 312720, Note_on_c, 5, 69, 58
7, 312840, Note_off_c, 5, 69, 64
7, 312840, Note_on_c, 5, 71, 58
7, 312936, Note_off_c, 5, 71, 64
7, 312960, Note_on_c, 5, 69, 58
7, 313032, Note_off_c, 5, 69, 64
7, 313080, Note_on_c, 5, 69, 58
7, 313200, Note_off_c, 5, 69, 64
7, 313200, Note_on_c, 5, 68, 58
7, 313320, Note_off_c, 5, 68, 64
7, 313320, Note_on_c, 5, 69, 58
7, 313416, Note_off_c, 5, 69, 64
7, 313440, Note_on_c, 5, 71, 58
7, 313512, Note_off_c, 5, 71, 64
7, 313560, Note_on_c, 5, 68, 58
7, 313680, Note_off_c, 5, 68, 64
7, 313680, Note_on_c, 5, 69, 58
7, 313800, Note_off_c, 5, 69, 64
7, 313800, Note_on_c, 5, 71, 58
7, 313896, Note_off_c, 5, 71, 64
7, 313920, Note_on_c, 5, 69, 58
7, 314112, Note_off_c, 5, 69, 64
7, 314400, Note_on_c, 5, 65, 105
7, 314400, Note_on_c, 5, 72, 105
7, 314400, Note_on_c, 5, 77, 105
7, 314544, Note_off_c, 5, 77, 64
7, 314544, Note_off_c, 5, 72, 64
7, 314544, Note_off_c, 5, 65, 64
7, 314640, Note_on_c, 5, 77, 105
7, 314640, Note_on_c, 5, 72, 105
7, 314640, Note_on_c, 5, 65, 105
7, 314784, Note_off_c, 5, 65, 64
7, 314784, Note_off_c, 5, 72, 64
7, 314784, Note_off_c, 5, 77, 64
7, 314880, Note_on_c, 5, 65, 105
7, 314880, Note_on_c, 5, 77, 105
7, 314880, Note_on_c, 5, 72, 105
7, 315264, Note_off_c, 5, 72, 64
7, 315264, Note_off_c, 5, 77, 64
7, 315264, Note_off_c, 5, 65, 64
7, 315360, Note_on_c, 5, 84, 105
7, 315744, Note_off_c, 5, 84, 64
7, 315840, Note_on_c, 5, 81, 105
7, 315870, Note_off_c, 5, 81, 64
7, 315870, Note_on_c, 5, 82, 105
7, 315900, Note_off_c, 5, 82, 64
7, 315900, Note_on_c, 5, 84, 105
7, 316044, Note_off_c, 5, 84, 64
7, 316080, Note_on_c, 5, 84, 105
7, 316152, Note_off_c, 5, 84, 64
7, 316200, Note_on_c, 5, 84, 105
7, 316272, Note_off_c, 5, 84, 64
7, 316320, Note_on_c, 5, 84, 105
7, 316440, Note_off_c, 5, 84, 64
7, 316440, Note_on_c, 5, 81, 105
7, 316536, Note_off_c, 5, 81, 64
7, 316560, Note_on_c, 5, 81, 105
7, 316680, Note_off_c, 5, 81, 64
7, 316680, Note_on_c, 5, 77, 105
7, 316776, Note_off_c, 5, 77, 64
7, 316800, Note_on_c, 5, 76, 105
7, 316830, Note_off_c, 5, 76, 64
7, 316830, Note_on_c, 5, 77, 105
7, 316860, Note_off_c, 5, 77, 64
7, 316860, Note_on_c, 5, 79, 105
7, 317004, Note_off_c, 5, 79, 64
7, 317040, Note_on_c, 5, 79, 105
7, 317112, Note_off_c, 5, 79, 64
7, 317160, Note_on_c, 5, 79, 105
7, 317232, Note_off_c, 5, 79, 64
7, 317280, Note_on_c, 5, 79, 105
7, 317400, Note_off_c, 5, 79, 64
7, 317400, Note_on_c, 5, 76, 105
7, 317496, Note_off_c, 5, 76, 64
7, 317520, Note_on_c, 5, 77, 105
7, 317640, Note_off_c, 5, 77, 64
7, 317640, Note_on_c, 5, 74, 105
7, 317736, Note_off_c, 5, 74, 64
7, 317760, Note_on_c, 5, 72, 105
7, 317952, Note_off_c, 5, 72, 64
7, 318120, Note_on_c, 5, 67, 105
7, 318204, Note_off_c, 5, 67, 64
7, 318240, Note_on_c, 5, 69, 105
7, 318324, Note_off_c, 5, 69, 64
7, 318360, Note_on_c, 5, 65, 105
7, 318444, Note_off_c, 5, 65, 64
7, 318480, Note_on_c, 5, 71, 105
7, 318564, Note_off_c, 5, 71, 64
7, 318600, Note_on_c, 5, 67, 105
7, 318684, Note_off_c, 5, 67, 64
7, 318720, Note_on_c, 5, 72, 105
7, 318804, Note_off_c, 5, 72, 64
7, 318840, Note_on_c, 5, 69, 105
7, 318924, Note_off_c, 5, 69, 64
7, 318960, Note_on_c, 5, 74, 105
7, 319044, Note_off_c, 5, 74, 64
7, 319080, Note_on_c, 5, 71, 105
7, 319164, Note_off_c, 5, 71, 64
7, 319200, Note_on_c, 5, 76, 105
7, 319284, Note_off_c, 5, 76, 64
7, 319320, Note_on_c, 5, 72, 105
7, 319404, Note_off_c, 5, 72, 64
7, 319440, Note_on_c, 5, 77, 105
7, 319524, Note_off_c, 5, 77, 64
7, 319560, Note_on_c, 5, 74, 105
7, 319644, Note_off_c, 5, 74, 64
7, 319680, Note_on_c, 5, 79, 105
7, 319728, Note_off_c, 5, 79, 64
7, 319740, Note_on_c, 5, 79, 105
7, 319788, Note_off_c, 5, 79, 64
7, 319800, Note_on_c, 5, 79, 105
7, 319848, Note_off_c, 5, 79, 64
7, 319860, Note_on_c, 5, 79, 105
7, 319908, Note_off_c, 5, 79, 64
7, 319920, Note_on_c, 5, 84, 105
7, 319968, Note_off_c, 5, 84, 64
7, 319980, Note_on_c, 5, 84, 105
7, 320028, Note_off_c, 5, 84, 64
7, 320040, Note_on_c, 5, 84, 105
7, 320088, Note_off_c, 5, 84, 64
7, 320100, Note_on_c, 5, 84, 105
7, 320148, Note_off_c, 5, 84, 64
7, 320160, Note_on_c, 5, 83, 105
7, 320208, Note_off_c, 5, 83, 64
7, 320220, Note_on_c, 5, 83, 105
7, 320268, Note_off_c, 5, 83, 64
7, 320280, Note_on_c, 5, 83, 105
7, 320328, Note_off_c, 5, 83, 64
7, 320340, Note_on_c, 5, 83, 105
7, 320388, Note_off_c, 5, 83, 64
7, 320400, Note_on_c, 5, 77, 105
7, 320448, Note_off_c, 5, 77, 64
7, 320460, Note_on_c, 5, 77, 105
7, 320508, Note_off_c, 5, 77, 64
7, 320520, Note_on_c, 5, 77, 105
7, 320568, Note_off_c, 5, 77, 64
7, 320580, Note_on_c, 5, 77, 105
7, 320628, Note_off_c, 5, 77, 64
7, 320640, Note_on_c, 5, 76, 105
7, 320808, Note_off_c, 5, 76, 64
7, 320880, Note_on_c, 5, 81, 105
7, 320910, Note_off_c, 5, 81, 64
7, 320910, Note_on_c, 5, 79, 105
7, 320940, Note_off_c, 5, 79, 64
7, 320940, Note_on_c, 5, 81, 105
7, 320970, Note_off_c, 5, 81, 64
7, 320970, Note_on_c, 5, 79, 105
7, 321000, Note_off_c, 5, 79, 64
7, 321000, Note_on_c, 5, 81, 105
7, 321030, Note_off_c, 5, 81, 64
7, 321030, Note_on_c, 5, 79, 105
7, 321060, Note_off_c, 5, 79, 64
7, 321060, Note_on_c, 5, 77, 105
7, 321090, Note_off_c, 5, 77, 64
7, 321090, Note_on_c, 5, 79, 105
7, 321120, Note_off_c, 5, 79, 64
7, 321120, Note_on_c, 5, 81, 105
7, 321288, Note_off_c, 5, 81, 64
7, 321360, Note_on_c, 5, 62, 105
7, 321360, Note_on_c, 5, 55, 105
7, 321360, Note_on_c, 5, 71, 105
7, 321528, Note_off_c, 5, 71, 64
7, 321528, Note_off_c, 5, 55, 64
7, 321528, Note_off_c, 5, 62, 64
7, 321600, Note_on_c, 5, 64, 105
7, 321600, Note_on_c, 5, 55, 105
7, 321600, Note_on_c, 5, 72, 105
7, 321792, Note_off_c, 5, 72, 64
7, 321792, Note_off_c, 5, 55, 64
7, 321792, Note_off_c, 5, 64, 64
7, 321960, Note_on_c, 5, 67, 105
7, 322044, Note_off_c, 5, 67, 64
7, 322080, Note_on_c, 5, 57, 105
7, 322164, Note_off_c, 5, 57, 64
7, 322200, Note_on_c, 5, 69, 105
7, 322284, Note_off_c, 5, 69, 64
7, 322320, Note_on_c, 5, 59, 105
7, 322404, Note_off_c, 5, 59, 64
7, 322440, Note_on_c, 5, 71, 105
7, 322524, Note_off_c, 5, 71, 64
7, 322560, Note_on_c, 5, 60, 105
7, 322644, Note_off_c, 5, 60, 64
7, 322680, Note_on_c, 5, 72, 105
7, 322764, Note_off_c, 5, 72, 64
7, 322800, Note_on_c, 5, 62, 105
7, 322884, Note_off_c, 5, 62, 64
7, 322920, Note_on_c, 5, 74, 105
7, 323004, Note_off_c, 5, 74, 64
7, 323040, Note_on_c, 5, 64, 105
7, 323124, Note_off_c, 5, 64, 64
7, 323160, Note_on_c, 5, 76, 105
7, 323244, Note_off_c, 5, 76, 64
7, 323280, Note_on_c, 5, 65, 105
7, 323364, Note_off_c, 5, 65, 64
7, 323400, Note_on_c, 5, 77, 105
7, 323484, Note_off_c, 5, 77, 64
7, 323520, Note_on_c, 5, 79, 116
7, 323616, Note_off_c, 5, 79, 64
7, 323640, Note_on_c, 5, 79, 127
7, 323832, Note_off_c, 5, 79, 64
7, 323880, Note_on_c, 5, 79, 127
7, 324072, Note_off_c, 5, 79, 64
7, 324120, Note_on_c, 5, 79, 127
7, 324312, Note_off_c, 5, 79, 64
7, 324360, Note_on_c, 5, 79, 116
7, 324456, Note_off_c, 5, 79, 64
7, 324480, Note_on_c, 5, 79, 127
7, 324648, Note_off_c, 5, 79, 64
7, 324720, Note_on_c, 5, 86, 116
7, 324750, Note_off_c, 5, 86, 64
7, 324750, Note_on_c, 5, 84, 116
7, 324780, Note_off_c, 5, 84, 64
7, 324780, Note_on_c, 5, 86, 116
7, 324810, Note_off_c, 5, 86, 64
7, 324810, Note_on_c, 5, 84, 116
7, 324840, Note_off_c, 5, 84, 64
7, 324840, Note_on_c, 5, 86, 116
7, 324870, Note_off_c, 5, 86, 64
7, 324870, Note_on_c, 5, 84, 116
7, 324900, Note_off_c, 5, 84, 64
7, 324900, Note_on_c, 5, 83, 116
7, 324930, Note_off_c, 5, 83, 64
7, 324930, Note_on_c, 5, 84, 116
7, 324960, Note_off_c, 5, 84, 64
7, 324960, Note_on_c, 5, 86, 116
7, 325128, Note_off_c, 5, 86, 64
7, 325200, Note_on_c, 5, 83, 116
7, 325368, Note_off_c, 5, 83, 64
7, 325440, Note_on_c, 5, 84, 127
7, 325524, Note_off_c, 5, 84, 64
7, 325560, Note_on_c, 5, 72, 116
7, 325644, Note_off_c, 5, 72, 64
7, 325680, Note_on_c, 5, 72, 116
7, 325764, Note_off_c, 5, 72, 64
7, 325800, Note_on_c, 5, 72, 116
7, 325884, Note_off_c, 5, 72, 64
7, 325920, Note_on_c, 5, 72, 116
7, 326088, Note_off_c, 5, 72, 64
7, 326160, Note_on_c, 5, 74, 127
7, 326184, Note_off_c, 5, 74, 64
7, 326190, Note_on_c, 5, 72, 116
7, 326214, Note_off_c, 5, 72, 64
7, 326220, Note_on_c, 5, 74, 116
7, 326244, Note_off_c, 5, 74, 64
7, 326250, Note_on_c, 5, 72, 116
7, 326274, Note_off_c, 5, 72, 64
7, 326280, Note_on_c, 5, 74, 116
7, 326304, Note_off_c, 5, 74, 64
7, 326310, Note_on_c, 5, 72, 116
7, 326334, Note_off_c, 5, 72, 64
7, 326340, Note_on_c, 5, 71, 116
7, 326364, Note_off_c, 5, 71, 64
7, 326370, Note_on_c, 5, 72, 116
7, 326394, Note_off_c, 5, 72, 64
7, 326400, Note_on_c, 5, 76, 127
7, 326484, Note_off_c, 5, 76, 64
7, 326520, Note_on_c, 5, 72, 116
7, 326604, Note_off_c, 5, 72, 64
7, 326640, Note_on_c, 5, 72, 116
7, 326724, Note_off_c, 5, 72, 64
7, 326760, Note_on_c, 5, 72, 116
7, 326844, Note_off_c, 5, 72, 64
7, 326880, Note_on_c, 5, 72, 116
7, 327048, Note_off_c, 5, 72, 64
7, 327120, Note_on_c, 5, 74, 127
7, 327144, Note_off_c, 5, 74, 64
7, 327150, Note_on_c, 5, 72, 116
7, 327174, Note_off_c, 5, 72, 64
7, 327180, Note_on_c, 5, 74, 116
7, 327204, Note_off_c, 5, 74, 64
7, 327210, Note_on_c, 5, 72, 116
7, 327234, Note_off_c, 5, 72, 64
7, 327240, Note_on_c, 5, 74, 116
7, 327264, Note_off_c, 5, 74, 64
7, 327270, Note_on_c, 5, 72, 116
7, 327294, Note_off_c, 5, 72, 64
7, 327300, Note_on_c, 5, 71, 116
7, 327324, Note_off_c, 5, 71, 64
7, 327330, Note_on_c, 5, 72, 116
7, 327354, Note_off_c, 5, 72, 64
7, 327360, Note_on_c, 5, 79, 127
7, 327444, Note_off_c, 5, 79, 64
7, 327480, Note_on_c, 5, 72, 116
7, 327564, Note_off_c, 5, 72, 64
7, 327600, Note_on_c, 5, 72, 116
7, 327684, Note_off_c, 5, 72, 64
7, 327720, Note_on_c, 5, 72, 116
7, 327804, Note_off_c, 5, 72, 64
7, 327840, Note_on_c, 5, 72, 116
7, 328008, Note_off_c, 5, 72, 64
7, 328080, Note_on_c, 5, 74, 127
7, 328104, Note_off_c, 5, 74, 64
7, 328110, Note_on_c, 5, 72, 116
7, 328134, Note_off_c, 5, 72, 64
7, 328140, Note_on_c, 5, 74, 116
7, 328164, Note_off_c, 5, 74, 64
7, 328170, Note_on_c, 5, 72, 116
7, 328194, Note_off_c, 5, 72, 64
7, 328200, Note_on_c, 5, 74, 116
7, 328224, Note_off_c, 5, 74, 64
7, 328230, Note_on_c, 5, 72, 116
7, 328254, Note_off_c, 5, 72, 64
7, 328260, Note_on_c, 5, 71, 116
7, 328284, Note_off_c, 5, 71, 64
7, 328290, Note_on_c, 5, 72, 116
7, 328314, Note_off_c, 5, 72, 64
7, 328320, Note_on_c, 5, 81, 116
7, 328704, Note_off_c, 5, 81, 64
7, 328800, Note_on_c, 5, 57, 116
7, 329184, Note_off_c, 5, 57, 64
7, 329280, Note_on_c, 5, 55, 116
7, 329424, Note_off_c, 5, 55, 64
7, 329520, Note_on_c, 5, 86, 105
7, 329520, Note_on_c, 5, 77, 105
7, 329664, Note_off_c, 5, 77, 64
7, 329664, Note_off_c, 5, 86, 64
7, 330000, Note_on_c, 5, 77, 116
7, 330144, Note_off_c, 5, 77, 64
7, 330240, Note_on_c, 5, 76, 127
7, 330396, Note_off_c, 5, 76, 64
7, 330480, Note_on_c, 5, 81, 116
7, 330480, Note_on_c, 5, 72, 116
7, 330480, Note_on_c, 5, 65, 116
7, 330636, Note_off_c, 5, 65, 64
7, 330636, Note_off_c, 5, 72, 64
7, 330636, Note_off_c, 5, 81, 64
7, 330720, Note_on_c, 5, 72, 116
7, 330720, Note_on_c, 5, 79, 116
7, 330720, Note_on_c, 5, 64, 116
7, 330876, Note_off_c, 5, 64, 64
7, 330876, Note_off_c, 5, 79, 64
7, 330876, Note_off_c, 5, 72, 64
7, 330960, Note_on_c, 5, 71, 116
7, 330960, Note_on_c, 5, 55, 116
7, 330960, Note_on_c, 5, 62, 116
7, 331116, Note_off_c, 5, 62, 64
7, 331116, Note_off_c, 5, 55, 64
7, 331116, Note_off_c, 5, 71, 64
7, 331200, Note_on_c, 5, 72, 116
7, 331200, Note_on_c, 5, 55, 116
7, 331200, Note_on_c, 5, 64, 116
7, 331284, Note_off_c, 5, 64, 64
7, 331284, Note_off_c, 5, 55, 64
7, 331284, Note_off_c, 5, 72, 64
7, 331320, Note_on_c, 5, 72, 116
7, 331404, Note_off_c, 5, 72, 64
7, 331440, Note_on_c, 5, 72, 116
7, 331524, Note_off_c, 5, 72, 64
7, 331560, Note_on_c, 5, 72, 116
7, 331644, Note_off_c, 5, 72, 64
7, 331680, Note_on_c, 5, 72, 116
7, 331848, Note_off_c, 5, 72, 64
7, 331920, Note_on_c, 5, 74, 127
7, 331944, Note_off_c, 5, 74, 64
7, 331950, Note_on_c, 5, 72, 116
7, 331974, Note_off_c, 5, 72, 64
7, 331980, Note_on_c, 5, 74, 116
7, 332004, Note_off_c, 5, 74, 64
7, 332010, Note_on_c, 5, 72, 116
7, 332034, Note_off_c, 5, 72, 64
7, 332040, Note_on_c, 5, 74, 116
7, 332064, Note_off_c, 5, 74, 64
7, 332070, Note_on_c, 5, 72, 116
7, 332094, Note_off_c, 5, 72, 64
7, 332100, Note_on_c, 5, 71, 116
7, 332124, Note_off_c, 5, 71, 64
7, 332130, Note_on_c, 5, 72, 116
7, 332154, Note_off_c, 5, 72, 64
7, 332160, Note_on_c, 5, 76, 127
7, 332244, Note_off_c, 5, 76, 64
7, 332280, Note_on_c, 5, 72, 116
7, 332364, Note_off_c, 5, 72, 64
7, 332400, Note_on_c, 5, 72, 116
7, 332484, Note_off_c, 5, 72, 64
7, 332520, Note_on_c, 5, 72, 116
7, 332604, Note_off_c, 5, 72, 64
7, 332640, Note_on_c, 5, 72, 116
7, 332808, Note_off_c, 5, 72, 64
7, 332880, Note_on_c, 5, 74, 127
7, 332904, Note_off_c, 5, 74, 64
7, 332910, Note_on_c, 5, 72, 116
7, 332934, Note_off_c, 5, 72, 64
7, 332940, Note_on_c, 5, 74, 116
7, 332964, Note_off_c, 5, 74, 64
7, 332970, Note_on_c, 5, 72, 116
7, 332994, Note_off_c, 5, 72, 64
7, 333000, Note_on_c, 5, 74, 116
7, 333024, Note_off_c, 5, 74, 64
7, 333030, Note_on_c, 5, 72, 116
7, 333054, Note_off_c, 5, 72, 64
7, 333060, Note_on_c, 5, 71, 116
7, 333084, Note_off_c, 5, 71, 64
7, 333090, Note_on_c, 5, 72, 116
7, 333114, Note_off_c, 5, 72, 64
7, 333120, Note_on_c, 5, 79, 127
7, 333204, Note_off_c, 5, 79, 64
7, 333240, Note_on_c, 5, 72, 116
7, 333324, Note_off_c, 5, 72, 64
7, 333360, Note_on_c, 5, 72, 116
7, 333444, Note_off_c, 5, 72, 64
7, 333480, Note_on_c, 5, 72, 116
7, 333564, Note_off_c, 5, 72, 64
7, 333600, Note_on_c, 5, 72, 116
7, 333768, Note_off_c, 5, 72, 64
7, 333840, Note_on_c, 5, 74, 127
7, 333864, Note_off_c, 5, 74, 64
7, 333870, Note_on_c, 5, 72, 116
7, 333894, Note_off_c, 5, 72, 64
7, 333900, Note_on_c, 5, 74, 116
7, 333924, Note_off_c, 5, 74, 64
7, 333930, Note_on_c, 5, 72, 116
7, 333954, Note_off_c, 5, 72, 64
7, 333960, Note_on_c, 5, 74, 116
7, 333984, Note_off_c, 5, 74, 64
7, 333990, Note_on_c, 5, 72, 116
7, 334014, Note_off_c, 5, 72, 64
7, 334020, Note_on_c, 5, 71, 116
7, 334044, Note_off_c, 5, 71, 64
7, 334050, Note_on_c, 5, 72, 116
7, 334074, Note_off_c, 5, 72, 64
7, 334080, Note_on_c, 5, 81, 116
7, 334464, Note_off_c, 5, 81, 64
7, 334560, Note_on_c, 5, 57, 116
7, 334944, Note_off_c, 5, 57, 64
7, 335040, Note_on_c, 5, 55, 127
7, 335184, Note_off_c, 5, 55, 64
7, 335280, Note_on_c, 5, 77, 92
7, 335280, Note_on_c, 5, 86, 92
7, 335424, Note_off_c, 5, 86, 64
7, 335424, Note_off_c, 5, 77, 64
7, 335760, Note_on_c, 5, 68, 72
7, 336000, Note_off_c, 5, 68, 64
7, 336000, Note_on_c, 5, 67, 58
7, 336144, Note_off_c, 5, 67, 64
7, 336240, Note_on_c, 5, 77, 58
7, 336384, Note_off_c, 5, 77, 64
7, 339360, Note_on_c, 5, 62, 58
7, 339600, Note_off_c, 5, 62, 64
7, 339600, Note_on_c, 5, 64, 58
7, 339696, Note_off_c, 5, 64, 64
7, 339840, Note_on_c, 5, 64, 58
7, 340080, Note_off_c, 5, 64, 64
7, 340080, Note_on_c, 5, 65, 58
7, 340176, Note_off_c, 5, 65, 64
7, 340320, Note_on_c, 5, 65, 58
7, 340560, Note_off_c, 5, 65, 64
7, 340560, Note_on_c, 5, 62, 58
7, 340656, Note_off_c, 5, 62, 64
7, 340800, Note_on_c, 5, 60, 105
7, 341088, Note_off_c, 5, 60, 64
7, 341160, Note_on_c, 5, 64, 105
7, 341220, Note_off_c, 5, 64, 64
7, 341220, Note_on_c, 5, 67, 105
7, 341268, Note_off_c, 5, 67, 64
7, 341280, Note_on_c, 5, 72, 105
7, 341352, Note_off_c, 5, 72, 64
7, 341400, Note_on_c, 5, 74, 105
7, 341472, Note_off_c, 5, 74, 64
7, 341520, Note_on_c, 5, 76, 105
7, 341592, Note_off_c, 5, 76, 64
7, 341640, Note_on_c, 5, 77, 105
7, 341712, Note_off_c, 5, 77, 64
7, 341760, Note_on_c, 5, 79, 105
7, 342048, Note_off_c, 5, 79, 64
7, 342120, Note_on_c, 5, 78, 105
7, 342192, Note_off_c, 5, 78, 64
7, 342240, Note_on_c, 5, 79, 105
7, 342312, Note_off_c, 5, 79, 64
7, 342360, Note_on_c, 5, 78, 105
7, 342432, Note_off_c, 5, 78, 64
7, 342480, Note_on_c, 5, 79, 105
7, 342552, Note_off_c, 5, 79, 64
7, 342600, Note_on_c, 5, 78, 105
7, 342672, Note_off_c, 5, 78, 64
7, 342720, Note_on_c, 5, 79, 105
7, 342792, Note_off_c, 5, 79, 64
7, 342840, Note_on_c, 5, 79, 105
7, 342912, Note_off_c, 5, 79, 64
7, 342960, Note_on_c, 5, 76, 105
7, 343032, Note_off_c, 5, 76, 64
7, 343080, Note_on_c, 5, 76, 105
7, 343152, Note_off_c, 5, 76, 64
7, 343200, Note_on_c, 5, 77, 105
7, 343272, Note_off_c, 5, 77, 64
7, 343320, Note_on_c, 5, 77, 105
7, 343392, Note_off_c, 5, 77, 64
7, 343440, Note_on_c, 5, 74, 105
7, 343512, Note_off_c, 5, 74, 64
7, 343560, Note_on_c, 5, 74, 105
7, 343632, Note_off_c, 5, 74, 64
7, 343680, Note_on_c, 5, 72, 105
7, 343872, Note_off_c, 5, 72, 64
7, 344040, Note_on_c, 5, 67, 105
7, 344080, Note_off_c, 5, 67, 64
7, 344080, Note_on_c, 5, 69, 105
7, 344120, Note_off_c, 5, 69, 64
7, 344120, Note_on_c, 5, 71, 105
7, 344160, Note_off_c, 5, 71, 64
7, 344160, Note_on_c, 5, 72, 105
7, 344232, Note_off_c, 5, 72, 64
7, 344280, Note_on_c, 5, 74, 105
7, 344352, Note_off_c, 5, 74, 64
7, 344400, Note_on_c, 5, 76, 105
7, 344472, Note_off_c, 5, 76, 64
7, 344520, Note_on_c, 5, 77, 105
7, 344592, Note_off_c, 5, 77, 64
7, 344640, Note_on_c, 5, 79, 105
7, 344712, Note_off_c, 5, 79, 64
7, 344760, Note_on_c, 5, 79, 105
7, 344952, Note_off_c, 5, 79, 64
7, 345000, Note_on_c, 5, 78, 105
7, 345072, Note_off_c, 5, 78, 64
7, 345120, Note_on_c, 5, 79, 105
7, 345192, Note_off_c, 5, 79, 64
7, 345240, Note_on_c, 5, 78, 105
7, 345312, Note_off_c, 5, 78, 64
7, 345360, Note_on_c, 5, 79, 105
7, 345432, Note_off_c, 5, 79, 64
7, 345480, Note_on_c, 5, 78, 105
7, 345552, Note_off_c, 5, 78, 64
7, 345600, Note_on_c, 5, 79, 105
7, 345672, Note_off_c, 5, 79, 64
7, 345720, Note_on_c, 5, 79, 105
7, 345792, Note_off_c, 5, 79, 64
7, 345840, Note_on_c, 5, 76, 105
7, 345912, Note_off_c, 5, 76, 64
7, 345960, Note_on_c, 5, 76, 105
7, 346032, Note_off_c, 5, 76, 64
7, 346080, Note_on_c, 5, 77, 105
7, 346152, Note_off_c, 5, 77, 64
7, 346200, Note_on_c, 5, 77, 105
7, 346272, Note_off_c, 5, 77, 64
7, 346320, Note_on_c, 5, 74, 105
7, 346392, Note_off_c, 5, 74, 64
7, 346440, Note_on_c, 5, 74, 105
7, 346512, Note_off_c, 5, 74, 64
7, 346560, Note_on_c, 5, 79, 72
7, 346656, Note_off_c, 5, 79, 64
7, 346800, Note_on_c, 5, 76, 72
7, 346896, Note_off_c, 5, 76, 64
7, 347040, Note_on_c, 5, 77, 72
7, 347136, Note_off_c, 5, 77, 64
7, 347280, Note_on_c, 5, 74, 72
7, 347376, Note_off_c, 5, 74, 64
7, 347520, Note_on_c, 5, 79, 116
7, 347568, Note_off_c, 5, 79, 64
7, 347580, Note_on_c, 5, 79, 116
7, 347628, Note_off_c, 5, 79, 64
7, 347640, Note_on_c, 5, 79, 116
7, 347688, Note_off_c, 5, 79, 64
7, 347700, Note_on_c, 5, 79, 116
7, 347748, Note_off_c, 5, 79, 64
7, 347760, Note_on_c, 5, 84, 116
7, 347808, Note_off_c, 5, 84, 64
7, 347820, Note_on_c, 5, 84, 116
7, 347868, Note_off_c, 5, 84, 64
7, 347880, Note_on_c, 5, 84, 116
7, 347928, Note_off_c, 5, 84, 64
7, 347940, Note_on_c, 5, 84, 116
7, 347988, Note_off_c, 5, 84, 64
7, 348000, Note_on_c, 5, 86, 116
7, 348048, Note_off_c, 5, 86, 64
7, 348060, Note_on_c, 5, 86, 116
7, 348108, Note_off_c, 5, 86, 64
7, 348120, Note_on_c, 5, 86, 116
7, 348168, Note_off_c, 5, 86, 64
7, 348180, Note_on_c, 5, 86, 116
7, 348228, Note_off_c, 5, 86, 64
7, 348240, Note_on_c, 5, 83, 116
7, 348288, Note_off_c, 5, 83, 64
7, 348300, Note_on_c, 5, 83, 116
7, 348348, Note_off_c, 5, 83, 64
7, 348360, Note_on_c, 5, 83, 116
7, 348408, Note_off_c, 5, 83, 64
7, 348420, Note_on_c, 5, 83, 116
7, 348468, Note_off_c, 5, 83, 64
7, 348480, Note_on_c, 5, 84, 116
7, 348672, Note_off_c, 5, 84, 64
7, 348840, Note_on_c, 5, 67, 72
7, 348936, Note_off_c, 5, 67, 64
7, 348960, Note_on_c, 5, 72, 72
7, 349080, Note_off_c, 5, 72, 64
7, 349080, Note_on_c, 5, 71, 72
7, 349200, Note_off_c, 5, 71, 64
7, 349200, Note_on_c, 5, 74, 72
7, 349320, Note_off_c, 5, 74, 64
7, 349320, Note_on_c, 5, 72, 72
7, 349416, Note_off_c, 5, 72, 64
7, 349440, Note_on_c, 5, 76, 72
7, 349560, Note_off_c, 5, 76, 64
7, 349560, Note_on_c, 5, 74, 72
7, 349680, Note_off_c, 5, 74, 64
7, 349680, Note_on_c, 5, 77, 72
7, 349800, Note_off_c, 5, 77, 64
7, 349800, Note_on_c, 5, 76, 72
7, 349896, Note_off_c, 5, 76, 64
7, 349920, Note_on_c, 5, 81, 72
7, 350040, Note_off_c, 5, 81, 64
7, 350040, Note_on_c, 5, 79, 72
7, 350160, Note_off_c, 5, 79, 64
7, 350160, Note_on_c, 5, 84, 72
7, 350280, Note_off_c, 5, 84, 64
7, 350280, Note_on_c, 5, 82, 72
7, 350376, Note_off_c, 5, 82, 64
7, 350400, Note_on_c, 5, 82, 72
7, 351000, Note_off_c, 5, 82, 64
7, 351000, Note_on_c, 5, 81, 72
7, 351120, Note_off_c, 5, 81, 64
7, 351120, Note_on_c, 5, 79, 72
7, 351240, Note_off_c, 5, 79, 64
7, 351240, Note_on_c, 5, 77, 72
7, 351336, Note_off_c, 5, 77, 64
7, 351360, Note_on_c, 5, 76, 72
7, 351480, Note_off_c, 5, 76, 64
7, 351480, Note_on_c, 5, 77, 72
7, 351600, Note_off_c, 5, 77, 64
7, 351600, Note_on_c, 5, 79, 72
7, 351720, Note_off_c, 5, 79, 64
7, 351720, Note_on_c, 5, 77, 72
7, 351840, Note_off_c, 5, 77, 64
7, 351840, Note_on_c, 5, 76, 72
7, 351960, Note_off_c, 5, 76, 64
7, 351960, Note_on_c, 5, 74, 72
7, 352080, Note_off_c, 5, 74, 64
7, 352080, Note_on_c, 5, 73, 72
7, 352200, Note_off_c, 5, 73, 64
7, 352200, Note_on_c, 5, 70, 72
7, 352320, Note_off_c, 5, 70, 64
7, 352320, Note_on_c, 5, 69, 58
7, 352512, Note_off_c, 5, 69, 64
7, 353640, Note_on_c, 5, 69, 72
7, 353760, Note_off_c, 5, 69, 64
7, 353760, Note_on_c, 5, 70, 72
7, 353880, Note_off_c, 5, 70, 64
7, 353880, Note_on_c, 5, 69, 72
7, 354000, Note_off_c, 5, 69, 64
7, 354000, Note_on_c, 5, 72, 72
7, 354120, Note_off_c, 5, 72, 64
7, 354120, Note_on_c, 5, 71, 72
7, 354240, Note_off_c, 5, 71, 64
7, 354240, Note_on_c, 5, 74, 72
7, 354360, Note_off_c, 5, 74, 64
7, 354360, Note_on_c, 5, 73, 72
7, 354480, Note_off_c, 5, 73, 64
7, 354480, Note_on_c, 5, 76, 72
7, 354600, Note_off_c, 5, 76, 64
7, 354600, Note_on_c, 5, 74, 72
7, 354720, Note_off_c, 5, 74, 64
7, 354720, Note_on_c, 5, 77, 72
7, 354840, Note_off_c, 5, 77, 64
7, 354840, Note_on_c, 5, 76, 72
7, 354960, Note_off_c, 5, 76, 64
7, 354960, Note_on_c, 5, 79, 72
7, 355080, Note_off_c, 5, 79, 64
7, 355080, Note_on_c, 5, 77, 72
7, 355176, Note_off_c, 5, 77, 64
7, 355200, Note_on_c, 5, 81, 81
7, 355680, Note_off_c, 5, 81, 64
7, 355680, Note_on_c, 5, 79, 81
7, 355800, Note_off_c, 5, 79, 64
7, 355800, Note_on_c, 5, 77, 81
7, 355920, Note_off_c, 5, 77, 64
7, 355920, Note_on_c, 5, 76, 81
7, 356040, Note_off_c, 5, 76, 64
7, 356040, Note_on_c, 5, 74, 81
7, 356136, Note_off_c, 5, 74, 64
7, 356160, Note_on_c, 5, 74, 72
7, 356280, Note_off_c, 5, 74, 64
7, 356280, Note_on_c, 5, 72, 72
7, 356352, Note_off_c, 5, 72, 64
7, 356400, Note_on_c, 5, 72, 72
7, 356472, Note_off_c, 5, 72, 64
7, 356520, Note_on_c, 5, 72, 72
7, 356592, Note_off_c, 5, 72, 64
7, 356640, Note_on_c, 5, 72, 72
7, 356760, Note_off_c, 5, 72, 64
7, 356760, Note_on_c, 5, 76, 72
7, 356880, Note_off_c, 5, 76, 64
7, 356880, Note_on_c, 5, 77, 72
7, 357000, Note_off_c, 5, 77, 64
7, 357000, Note_on_c, 5, 74, 72
7, 357096, Note_off_c, 5, 74, 64
7, 357120, Note_on_c, 5, 72, 58
7, 357312, Note_off_c, 5, 72, 64
7, 358200, Note_on_c, 5, 79, 72
7, 358320, Note_off_c, 5, 79, 64
7, 358320, Note_on_c, 5, 76, 72
7, 358440, Note_off_c, 5, 76, 64
7, 358440, Note_on_c, 5, 72, 72
7, 358536, Note_off_c, 5, 72, 64
7, 358560, Note_on_c, 5, 71, 72
7, 358680, Note_off_c, 5, 71, 64
7, 358680, Note_on_c, 5, 77, 72
7, 358800, Note_off_c, 5, 77, 64
7, 358800, Note_on_c, 5, 74, 72
7, 358920, Note_off_c, 5, 74, 64
7, 358920, Note_on_c, 5, 71, 72
7, 359016, Note_off_c, 5, 71, 64
7, 359040, Note_on_c, 5, 72, 58
7, 359184, Note_off_c, 5, 72, 64
7, 360120, Note_on_c, 5, 79, 72
7, 360240, Note_off_c, 5, 79, 64
7, 360240, Note_on_c, 5, 76, 72
7, 360360, Note_off_c, 5, 76, 64
7, 360360, Note_on_c, 5, 72, 72
7, 360456, Note_off_c, 5, 72, 64
7, 360480, Note_on_c, 5, 71, 72
7, 360600, Note_off_c, 5, 71, 64
7, 360600, Note_on_c, 5, 77, 72
7, 360720, Note_off_c, 5, 77, 64
7, 360720, Note_on_c, 5, 74, 72
7, 360840, Note_off_c, 5, 74, 64
7, 360840, Note_on_c, 5, 71, 72
7, 360936, Note_off_c, 5, 71, 64
7, 360960, Note_on_c, 5, 72, 72
7, 361032, Note_off_c, 5, 72, 64
7, 361080, Note_on_c, 5, 67, 105
7, 361200, Note_off_c, 5, 67, 64
7, 361200, Note_on_c, 5, 72, 105
7, 361320, Note_off_c, 5, 72, 64
7, 361320, Note_on_c, 5, 71, 105
7, 361440, Note_off_c, 5, 71, 64
7, 361440, Note_on_c, 5, 74, 105
7, 361560, Note_off_c, 5, 74, 64
7, 361560, Note_on_c, 5, 72, 105
7, 361680, Note_off_c, 5, 72, 64
7, 361680, Note_on_c, 5, 77, 105
7, 361800, Note_off_c, 5, 77, 64
7, 361800, Note_on_c, 5, 76, 105
7, 361896, Note_off_c, 5, 76, 64
7, 361920, Note_on_c, 5, 76, 105
7, 361992, Note_off_c, 5, 76, 64
7, 362040, Note_on_c, 5, 71, 105
7, 362160, Note_off_c, 5, 71, 64
7, 362160, Note_on_c, 5, 76, 105
7, 362280, Note_off_c, 5, 76, 64
7, 362280, Note_on_c, 5, 74, 105
7, 362400, Note_off_c, 5, 74, 64
7, 362400, Note_on_c, 5, 77, 105
7, 362520, Note_off_c, 5, 77, 64
7, 362520, Note_on_c, 5, 76, 105
7, 362640, Note_off_c, 5, 76, 64
7, 362640, Note_on_c, 5, 81, 105
7, 362760, Note_off_c, 5, 81, 64
7, 362760, Note_on_c, 5, 79, 105
7, 362856, Note_off_c, 5, 79, 64
7, 362880, Note_on_c, 5, 79, 105
7, 362928, Note_off_c, 5, 79, 64
7, 362940, Note_on_c, 5, 79, 105
7, 362988, Note_off_c, 5, 79, 64
7, 363000, Note_on_c, 5, 79, 105
7, 363048, Note_off_c, 5, 79, 64
7, 363060, Note_on_c, 5, 79, 105
7, 363108, Note_off_c, 5, 79, 64
7, 363120, Note_on_c, 5, 79, 105
7, 363168, Note_off_c, 5, 79, 64
7, 363180, Note_on_c, 5, 79, 105
7, 363228, Note_off_c, 5, 79, 64
7, 363240, Note_on_c, 5, 79, 105
7, 363288, Note_off_c, 5, 79, 64
7, 363300, Note_on_c, 5, 79, 105
7, 363348, Note_off_c, 5, 79, 64
7, 363360, Note_on_c, 5, 79, 105
7, 363408, Note_off_c, 5, 79, 64
7, 363420, Note_on_c, 5, 79, 105
7, 363468, Note_off_c, 5, 79, 64
7, 363480, Note_on_c, 5, 79, 105
7, 363528, Note_off_c, 5, 79, 64
7, 363540, Note_on_c, 5, 79, 105
7, 363588, Note_off_c, 5, 79, 64
7, 363600, Note_on_c, 5, 79, 105
7, 363648, Note_off_c, 5, 79, 64
7, 363660, Note_on_c, 5, 79, 105
7, 363708, Note_off_c, 5, 79, 64
7, 363720, Note_on_c, 5, 79, 105
7, 363768, Note_off_c, 5, 79, 64
7, 363780, Note_on_c, 5, 79, 105
7, 363828, Note_off_c, 5, 79, 64
7, 363840, Note_on_c, 5, 84, 105
7, 363888, Note_off_c, 5, 84, 64
7, 363900, Note_on_c, 5, 84, 105
7, 363948, Note_off_c, 5, 84, 64
7, 363960, Note_on_c, 5, 84, 105
7, 364008, Note_off_c, 5, 84, 64
7, 364020, Note_on_c, 5, 84, 105
7, 364068, Note_off_c, 5, 84, 64
7, 364080, Note_on_c, 5, 84, 105
7, 364128, Note_off_c, 5, 84, 64
7, 364140, Note_on_c, 5, 84, 105
7, 364188, Note_off_c, 5, 84, 64
7, 364200, Note_on_c, 5, 84, 105
7, 364248, Note_off_c, 5, 84, 64
7, 364260, Note_on_c, 5, 84, 105
7, 364308, Note_off_c, 5, 84, 64
7, 364320, Note_on_c, 5, 84, 105
7, 364368, Note_off_c, 5, 84, 64
7, 364380, Note_on_c, 5, 84, 105
7, 364428, Note_off_c, 5, 84, 64
7, 364440, Note_on_c, 5, 84, 105
7, 364488, Note_off_c, 5, 84, 64
7, 364500, Note_on_c, 5, 84, 105
7, 364548, Note_off_c, 5, 84, 64
7, 364560, Note_on_c, 5, 84, 105
7, 364608, Note_off_c, 5, 84, 64
7, 364620, Note_on_c, 5, 84, 105
7, 364668, Note_off_c, 5, 84, 64
7, 364680, Note_on_c, 5, 84, 105
7, 364728, Note_off_c, 5, 84, 64
7, 364740, Note_on_c, 5, 84, 105
7, 364788, Note_off_c, 5, 84, 64
7, 364800, Note_on_c, 5, 84, 105
7, 364848, Note_off_c, 5, 84, 64
7, 364860, Note_on_c, 5, 84, 105
7, 364908, Note_off_c, 5, 84, 64
7, 364920, Note_on_c, 5, 84, 105
7, 364968, Note_off_c, 5, 84, 64
7, 364980, Note_on_c, 5, 84, 105
7, 365028, Note_off_c, 5, 84, 64
7, 365040, Note_on_c, 5, 84, 105
7, 365088, Note_off_c, 5, 84, 64
7, 365100, Note_on_c, 5, 84, 105
7, 365148, Note_off_c, 5, 84, 64
7, 365160, Note_on_c, 5, 84, 105
7, 365208, Note_off_c, 5, 84, 64
7, 365220, Note_on_c, 5, 84, 105
7, 365268, Note_off_c, 5, 84, 64
7, 365280, Note_on_c, 5, 83, 105
7, 365328, Note_off_c, 5, 83, 64
7, 365340, Note_on_c, 5, 83, 105
7, 365388, Note_off_c, 5, 83, 64
7, 365400, Note_on_c, 5, 83, 105
7, 365448, Note_off_c, 5, 83, 64
7, 365460, Note_on_c, 5, 83, 105
7, 365508, Note_off_c, 5, 83, 64
7, 365520, Note_on_c, 5, 83, 105
7, 365568, Note_off_c, 5, 83, 64
7, 365580, Note_on_c, 5, 83, 105
7, 365628, Note_off_c, 5, 83, 64
7, 365640, Note_on_c, 5, 83, 105
7, 365688, Note_off_c, 5, 83, 64
7, 365700, Note_on_c, 5, 83, 105
7, 365748, Note_off_c, 5, 83, 64
7, 365760, Note_on_c, 5, 84, 105
7, 365808, Note_off_c, 5, 84, 64
7, 365820, Note_on_c, 5, 84, 105
7, 365868, Note_off_c, 5, 84, 64
7, 365880, Note_on_c, 5, 84, 105
7, 365928, Note_off_c, 5, 84, 64
7, 365940, Note_on_c, 5, 84, 105
7, 365988, Note_off_c, 5, 84, 64
7, 366000, Note_on_c, 5, 84, 105
7, 366048, Note_off_c, 5, 84, 64
7, 366060, Note_on_c, 5, 84, 105
7, 366108, Note_off_c, 5, 84, 64
7, 366120, Note_on_c, 5, 84, 105
7, 366168, Note_off_c, 5, 84, 64
7, 366180, Note_on_c, 5, 84, 105
7, 366228, Note_off_c, 5, 84, 64
7, 366240, Note_on_c, 5, 84, 105
7, 366288, Note_off_c, 5, 84, 64
7, 366300, Note_on_c, 5, 84, 105
7, 366348, Note_off_c, 5, 84, 64
7, 366360, Note_on_c, 5, 84, 105
7, 366408, Note_off_c, 5, 84, 64
7, 366420, Note_on_c, 5, 84, 105
7, 366468, Note_off_c, 5, 84, 64
7, 366480, Note_on_c, 5, 84, 105
7, 366528, Note_off_c, 5, 84, 64
7, 366540, Note_on_c, 5, 84, 105
7, 366588, Note_off_c, 5, 84, 64
7, 366600, Note_on_c, 5, 84, 105
7, 366648, Note_off_c, 5, 84, 64
7, 366660, Note_on_c, 5, 84, 105
7, 366708, Note_off_c, 5, 84, 64
7, 366720, Note_on_c, 5, 84, 105
7, 366768, Note_off_c, 5, 84, 64
7, 366780, Note_on_c, 5, 84, 105
7, 366828, Note_off_c, 5, 84, 64
7, 366840, Note_on_c, 5, 84, 105
7, 366888, Note_off_c, 5, 84, 64
7, 366900, Note_on_c, 5, 84, 105
7, 366948, Note_off_c, 5, 84, 64
7, 366960, Note_on_c, 5, 84, 105
7, 367008, Note_off_c, 5, 84, 64
7, 367020, Note_on_c, 5, 84, 105
7, 367068, Note_off_c, 5, 84, 64
7, 367080, Note_on_c, 5, 84, 105
7, 367128, Note_off_c, 5, 84, 64
7, 367140, Note_on_c, 5, 84, 105
7, 367188, Note_off_c, 5, 84, 64
7, 367200, Note_on_c, 5, 83, 105
7, 367248, Note_off_c, 5, 83, 64
7, 367260, Note_on_c, 5, 83, 105
7, 367308, Note_off_c, 5, 83, 64
7, 367320, Note_on_c, 5, 83, 105
7, 367368, Note_off_c, 5, 83, 64
7, 367380, Note_on_c, 5, 83, 105
7, 367428, Note_off_c, 5, 83, 64
7, 367440, Note_on_c, 5, 83, 105
7, 367488, Note_off_c, 5, 83, 64
7, 367500, Note_on_c, 5, 83, 105
7, 367548, Note_off_c, 5, 83, 64
7, 367560, Note_on_c, 5, 83, 105
7, 367608, Note_off_c, 5, 83, 64
7, 367620, Note_on_c, 5, 83, 105
7, 367668, Note_off_c, 5, 83, 64
7, 367680, Note_on_c, 5, 84, 125
7, 367872, Note_off_c, 5, 84, 64
7, 368040, Note_on_c, 5, 79, 105
7, 368080, Note_off_c, 5, 79, 64
7, 368080, Note_on_c, 5, 81, 105
7, 368120, Note_off_c, 5, 81, 64
7, 368120, Note_on_c, 5, 83, 105
7, 368160, Note_off_c, 5, 83, 64
7, 368160, Note_on_c, 5, 84, 105
7, 368304, Note_off_c, 5, 84, 64
7, 368400, Note_on_c, 5, 76, 105
7, 368400, Note_on_c, 5, 67, 105
7, 368400, Note_on_c, 5, 84, 105
7, 368544, Note_off_c, 5, 84, 64
7, 368544, Note_off_c, 5, 67, 64
7, 368544, Note_off_c, 5, 76, 64
7, 368640, Note_on_c, 5, 67, 105
7, 368640, Note_on_c, 5, 76, 105
7, 368640, Note_on_c, 5, 84, 105
7, 368832, Note_off_c, 5, 84, 64
7, 368832, Note_off_c, 5, 76, 64
7, 368832, Note_off_c, 5, 67, 64
7, 369000, Note_on_c, 5, 79, 105
7, 369040, Note_off_c, 5, 79, 64
7, 369040, Note_on_c, 5, 81, 105
7, 369080, Note_off_c, 5, 81, 64
7, 369080, Note_on_c, 5, 83, 105
7, 369120, Note_off_c, 5, 83, 64
7, 369120, Note_on_c, 5, 84, 105
7, 369264, Note_off_c, 5, 84, 64
7, 369360, Note_on_c, 5, 67, 105
7, 369360, Note_on_c, 5, 84, 105
7, 369360, Note_on_c, 5, 76, 105
7, 369504, Note_off_c, 5, 76, 64
7, 369504, Note_off_c, 5, 84, 64
7, 369504, Note_off_c, 5, 67, 64
7, 369600, Note_on_c, 5, 84, 105
7, 369600, Note_on_c, 5, 76, 105
7, 369600, Note_on_c, 5, 67, 105
7, 369828, Note_off_c, 5, 67, 64
7, 369828, Note_off_c, 5, 76, 64
7, 369828, Note_off_c, 5, 84, 64
7, 369828, End_track
8, 0, Start_track
8, 0, Program_c, 6, 48
8, 0, Control_c, 6, 7, 123
8, 0, Control_c, 6, 91, 70
8, 0, Control_c, 6, 10, 40
8, 720, Note_on_c, 6, 60, 105
8, 834, Note_off_c, 6, 60, 64
8, 930, Note_on_c, 6, 60, 105
8, 954, Note_off_c, 6, 60, 64
8, 960, Note_on_c, 6, 64, 105
8, 1074, Note_off_c, 6, 64, 64
8, 1170, Note_on_c, 6, 64, 105
8, 1194, Note_off_c, 6, 64, 64
8, 1200, Note_on_c, 6, 69, 105
8, 1314, Note_off_c, 6, 69, 64
8, 1410, Note_on_c, 6, 69, 105
8, 1434, Note_off_c, 6, 69, 64
8, 1440, Note_on_c, 6, 59, 105
8, 1536, Note_off_c, 6, 59, 64
8, 1650, Note_on_c, 6, 79, 105
8, 1674, Note_off_c, 6, 79, 64
8, 1680, Note_on_c, 6, 79, 105
8, 1920, Note_off_c, 6, 79, 64
8, 2130, Note_on_c, 6, 59, 105
8, 2154, Note_off_c, 6, 59, 64
8, 2160, Note_on_c, 6, 58, 105
8, 2256, Note_off_c, 6, 58, 64
8, 2370, Note_on_c, 6, 72, 105
8, 2370, Note_on_c, 6, 79, 105
8, 2394, Note_off_c, 6, 79, 64
8, 2394, Note_off_c, 6, 72, 64
8, 2400, Note_on_c, 6, 72, 105
8, 2400, Note_on_c, 6, 79, 105
8, 2640, Note_off_c, 6, 79, 64
8, 2640, Note_off_c, 6, 72, 64
8, 2880, Note_on_c, 6, 65, 72
8, 3096, Note_off_c, 6, 65, 64
8, 3120, Note_on_c, 6, 65, 72
8, 3336, Note_off_c, 6, 65, 64
8, 3360, Note_on_c, 6, 65, 72
8, 3576, Note_off_c, 6, 65, 64
8, 3600, Note_on_c, 6, 65, 72
8, 3660, Note_off_c, 6, 65, 64
8, 3660, Note_on_c, 6, 64, 72
8, 3720, Note_off_c, 6, 64, 64
8, 3720, Note_on_c, 6, 63, 72
8, 3780, Note_off_c, 6, 63, 64
8, 3780, Note_on_c, 6, 64, 72
8, 3828, Note_off_c, 6, 64, 64
8, 3840, Note_on_c, 6, 64, 72
8, 4200, Note_off_c, 6, 64, 64
8, 4200, Note_on_c, 6, 65, 72
8, 4260, Note_off_c, 6, 65, 64
8, 4260, Note_on_c, 6, 67, 72
8, 4308, Note_off_c, 6, 67, 64
8, 4320, Note_on_c, 6, 69, 72
8, 4536, Note_off_c, 6, 69, 64
8, 4560, Note_on_c, 6, 69, 72
8, 4776, Note_off_c, 6, 69, 64
8, 4800, Note_on_c, 6, 69, 72
8, 5016, Note_off_c, 6, 69, 64
8, 5040, Note_on_c, 6, 69, 72
8, 5100, Note_off_c, 6, 69, 64
8, 5100, Note_on_c, 6, 67, 72
8, 5160, Note_off_c, 6, 67, 64
8, 5160, Note_on_c, 6, 66, 72
8, 5220, Note_off_c, 6, 66, 64
8, 5220, Note_on_c, 6, 67, 72
8, 5268, Note_off_c, 6, 67, 64
8, 5280, Note_on_c, 6, 67, 72
8, 5736, Note_off_c, 6, 67, 64
8, 5760, Note_on_c, 6, 72, 98
8, 5796, Note_off_c, 6, 72, 64
8, 5820, Note_on_c, 6, 60, 58
8, 5856, Note_off_c, 6, 60, 64
8, 5880, Note_on_c, 6, 60, 58
8, 5916, Note_off_c, 6, 60, 64
8, 5940, Note_on_c, 6, 60, 58
8, 5976, Note_off_c, 6, 60, 64
8, 6000, Note_on_c, 6, 60, 58
8, 6036, Note_off_c, 6, 60, 64
8, 6060, Note_on_c, 6, 60, 58
8, 6096, Note_off_c, 6, 60, 64
8, 6120, Note_on_c, 6, 60, 58
8, 6156, Note_off_c, 6, 60, 64
8, 6180, Note_on_c, 6, 60, 58
8, 6216, Note_off_c, 6, 60, 64
8, 6240, Note_on_c, 6, 60, 58
8, 6276, Note_off_c, 6, 60, 64
8, 6300, Note_on_c, 6, 60, 58
8, 6336, Note_off_c, 6, 60, 64
8, 6360, Note_on_c, 6, 60, 58
8, 6396, Note_off_c, 6, 60, 64
8, 6420, Note_on_c, 6, 60, 58
8, 6456, Note_off_c, 6, 60, 64
8, 6480, Note_on_c, 6, 74, 98
8, 6516, Note_off_c, 6, 74, 64
8, 6540, Note_on_c, 6, 62, 58
8, 6576, Note_off_c, 6, 62, 64
8, 6600, Note_on_c, 6, 62, 58
8, 6636, Note_off_c, 6, 62, 64
8, 6660, Note_on_c, 6, 62, 58
8, 6696, Note_off_c, 6, 62, 64
8, 6720, Note_on_c, 6, 62, 58
8, 6756, Note_off_c, 6, 62, 64
8, 6780, Note_on_c, 6, 62, 58
8, 6816, Note_off_c, 6, 62, 64
8, 6840, Note_on_c, 6, 62, 58
8, 6876, Note_off_c, 6, 62, 64
8, 6900, Note_on_c, 6, 62, 58
8, 6936, Note_off_c, 6, 62, 64
8, 6960, Note_on_c, 6, 62, 58
8, 6996, Note_off_c, 6, 62, 64
8, 7020, Note_on_c, 6, 62, 58
8, 7056, Note_off_c, 6, 62, 64
8, 7080, Note_on_c, 6, 62, 58
8, 7116, Note_off_c, 6, 62, 64
8, 7140, Note_on_c, 6, 62, 58
8, 7176, Note_off_c, 6, 62, 64
8, 7200, Note_on_c, 6, 70, 98
8, 7236, Note_off_c, 6, 70, 64
8, 7260, Note_on_c, 6, 58, 58
8, 7296, Note_off_c, 6, 58, 64
8, 7320, Note_on_c, 6, 58, 58
8, 7356, Note_off_c, 6, 58, 64
8, 7380, Note_on_c, 6, 58, 58
8, 7416, Note_off_c, 6, 58, 64
8, 7440, Note_on_c, 6, 58, 58
8, 7476, Note_off_c, 6, 58, 64
8, 7500, Note_on_c, 6, 58, 58
8, 7536, Note_off_c, 6, 58, 64
8, 7560, Note_on_c, 6, 58, 58
8, 7596, Note_off_c, 6, 58, 64
8, 7620, Note_on_c, 6, 58, 58
8, 7656, Note_off_c, 6, 58, 64
8, 7680, Note_on_c, 6, 58, 58
8, 7716, Note_off_c, 6, 58, 64
8, 7740, Note_on_c, 6, 58, 58
8, 7776, Note_off_c, 6, 58, 64
8, 7800, Note_on_c, 6, 58, 58
8, 7836, Note_off_c, 6, 58, 64
8, 7860, Note_on_c, 6, 58, 58
8, 7896, Note_off_c, 6, 58, 64
8, 7920, Note_on_c, 6, 56, 58
8, 7962, Note_off_c, 6, 56, 64
8, 7980, Note_on_c, 6, 60, 58
8, 8022, Note_off_c, 6, 60, 64
8, 8040, Note_on_c, 6, 60, 58
8, 8082, Note_off_c, 6, 60, 64
8, 8100, Note_on_c, 6, 60, 58
8, 8142, Note_off_c, 6, 60, 64
8, 8160, Note_on_c, 6, 60, 58
8, 8202, Note_off_c, 6, 60, 64
8, 8220, Note_on_c, 6, 60, 58
8, 8262, Note_off_c, 6, 60, 64
8, 8280, Note_on_c, 6, 60, 58
8, 8322, Note_off_c, 6, 60, 64
8, 8340, Note_on_c, 6, 60, 58
8, 8382, Note_off_c, 6, 60, 64
8, 8400, Note_on_c, 6, 60, 58
8, 8442, Note_off_c, 6, 60, 64
8, 8460, Note_on_c, 6, 60, 58
8, 8502, Note_off_c, 6, 60, 64
8, 8520, Note_on_c, 6, 60, 58
8, 8562, Note_off_c, 6, 60, 64
8, 8580, Note_on_c, 6, 60, 58
8, 8622, Note_off_c, 6, 60, 64
8, 8640, Note_on_c, 6, 61, 58
8, 8682, Note_off_c, 6, 61, 64
8, 8700, Note_on_c, 6, 65, 58
8, 8742, Note_off_c, 6, 65, 64
8, 8760, Note_on_c, 6, 65, 58
8, 8802, Note_off_c, 6, 65, 64
8, 8820, Note_on_c, 6, 65, 58
8, 8862, Note_off_c, 6, 65, 64
8, 8880, Note_on_c, 6, 65, 58
8, 8922, Note_off_c, 6, 65, 64
8, 8940, Note_on_c, 6, 65, 58
8, 8982, Note_off_c, 6, 65, 64
8, 9000, Note_on_c, 6, 65, 58
8, 9042, Note_off_c, 6, 65, 64
8, 9060, Note_on_c, 6, 65, 58
8, 9102, Note_off_c, 6, 65, 64
8, 9120, Note_on_c, 6, 65, 58
8, 9162, Note_off_c, 6, 65, 64
8, 9180, Note_on_c, 6, 65, 58
8, 9222, Note_off_c, 6, 65, 64
8, 9240, Note_on_c, 6, 65, 58
8, 9282, Note_off_c, 6, 65, 64
8, 9300, Note_on_c, 6, 65, 58
8, 9342, Note_off_c, 6, 65, 64
8, 9360, Note_on_c, 6, 65, 58
8, 9552, Note_off_c, 6, 65, 64
8, 10200, Note_on_c, 6, 68, 58
8, 10320, Note_off_c, 6, 68, 64
8, 10320, Note_on_c, 6, 67, 58
8, 10440, Note_off_c, 6, 67, 64
8, 10440, Note_on_c, 6, 62, 58
8, 10560, Note_off_c, 6, 62, 64
8, 10560, Note_on_c, 6, 67, 58
8, 10680, Note_off_c, 6, 67, 64
8, 10680, Note_on_c, 6, 65, 58
8, 10794, Note_off_c, 6, 65, 64
8, 10800, Note_on_c, 6, 63, 58
8, 10920, Note_off_c, 6, 63, 64
8, 10920, Note_on_c, 6, 62, 58
8, 11040, Note_off_c, 6, 62, 64
8, 11040, Note_on_c, 6, 63, 72
8, 11160, Note_off_c, 6, 63, 64
8, 11160, Note_on_c, 6, 64, 72
8, 11280, Note_off_c, 6, 64, 64
8, 11280, Note_on_c, 6, 65, 81
8, 11400, Note_off_c, 6, 65, 64
8, 11400, Note_on_c, 6, 66, 101
8, 11520, Note_off_c, 6, 66, 64
8, 11520, Note_on_c, 6, 67, 58
8, 11616, Note_off_c, 6, 67, 64
8, 11640, Note_on_c, 6, 75, 98
8, 11880, Note_off_c, 6, 75, 64
8, 11880, Note_on_c, 6, 74, 58
8, 12000, Note_off_c, 6, 74, 64
8, 12000, Note_on_c, 6, 67, 58
8, 12120, Note_off_c, 6, 67, 64
8, 12120, Note_on_c, 6, 72, 58
8, 12234, Note_off_c, 6, 72, 64
8, 12240, Note_on_c, 6, 71, 58
8, 12336, Note_off_c, 6, 71, 64
8, 12360, Note_on_c, 6, 67, 98
8, 12480, Note_off_c, 6, 67, 64
8, 12480, Note_on_c, 6, 66, 58
8, 12600, Note_off_c, 6, 66, 64
8, 12600, Note_on_c, 6, 65, 58
8, 12720, Note_off_c, 6, 65, 64
8, 12720, Note_on_c, 6, 64, 58
8, 12840, Note_off_c, 6, 64, 64
8, 12840, Note_on_c, 6, 63, 58
8, 12954, Note_off_c, 6, 63, 64
8, 12960, Note_on_c, 6, 62, 58
8, 13080, Note_off_c, 6, 62, 64
8, 13080, Note_on_c, 6, 60, 98
8, 13200, Note_off_c, 6, 60, 64
8, 13200, Note_on_c, 6, 59, 58
8, 13320, Note_off_c, 6, 59, 64
8, 13320, Note_on_c, 6, 60, 98
8, 13440, Note_off_c, 6, 60, 64
8, 13440, Note_on_c, 6, 59, 58
8, 13560, Note_off_c, 6, 59, 64
8, 13560, Note_on_c, 6, 60, 98
8, 13674, Note_off_c, 6, 60, 64
8, 13680, Note_on_c, 6, 59, 58
8, 13776, Note_off_c, 6, 59, 64
8, 13890, Note_on_c, 6, 71, 116
8, 13914, Note_off_c, 6, 71, 64
8, 13920, Note_on_c, 6, 71, 116
8, 13920, Note_on_c, 6, 55, 116
8, 13920, Note_on_c, 6, 62, 116
8, 14112, Note_off_c, 6, 55, 64
8, 14148, Note_off_c, 6, 62, 64
8, 14148, Note_off_c, 6, 71, 64
8, 14400, Note_on_c, 6, 60, 72
8, 14520, Note_off_c, 6, 60, 64
8, 14520, Note_on_c, 6, 55, 72
8, 14640, Note_off_c, 6, 55, 64
8, 14640, Note_on_c, 6, 60, 72
8, 14760, Note_off_c, 6, 60, 64
8, 14760, Note_on_c, 6, 55, 72
8, 14856, Note_off_c, 6, 55, 64
8, 14880, Note_on_c, 6, 60, 72
8, 15000, Note_off_c, 6, 60, 64
8, 15000, Note_on_c, 6, 55, 72
8, 15120, Note_off_c, 6, 55, 64
8, 15120, Note_on_c, 6, 60, 72
8, 15240, Note_off_c, 6, 60, 64
8, 15240, Note_on_c, 6, 55, 72
8, 15336, Note_off_c, 6, 55, 64
8, 15360, Note_on_c, 6, 62, 72
8, 15480, Note_off_c, 6, 62, 64
8, 15480, Note_on_c, 6, 60, 72
8, 15600, Note_off_c, 6, 60, 64
8, 15600, Note_on_c, 6, 62, 72
8, 15720, Note_off_c, 6, 62, 64
8, 15720, Note_on_c, 6, 55, 72
8, 15816, Note_off_c, 6, 55, 64
8, 15840, Note_on_c, 6, 62, 72
8, 15960, Note_off_c, 6, 62, 64
8, 15960, Note_on_c, 6, 60, 72
8, 16080, Note_off_c, 6, 60, 64
8, 16080, Note_on_c, 6, 62, 72
8, 16200, Note_off_c, 6, 62, 64
8, 16200, Note_on_c, 6, 55, 72
8, 16296, Note_off_c, 6, 55, 64
8, 16320, Note_on_c, 6, 64, 72
8, 16704, Note_off_c, 6, 64, 64
8, 17040, Note_on_c, 6, 64, 72
8, 17184, Note_off_c, 6, 64, 64
8, 17280, Note_on_c, 6, 65, 72
8, 17424, Note_off_c, 6, 65, 64
8, 17520, Note_on_c, 6, 64, 72
8, 17664, Note_off_c, 6, 64, 64
8, 18480, Note_on_c, 6, 60, 72
8, 18720, Note_off_c, 6, 60, 64
8, 18720, Note_on_c, 6, 69, 72
8, 18960, Note_off_c, 6, 69, 64
8, 18960, Note_on_c, 6, 65, 72
8, 19440, Note_off_c, 6, 65, 64
8, 19440, Note_on_c, 6, 64, 72
8, 19560, Note_off_c, 6, 64, 64
8, 19560, Note_on_c, 6, 62, 72
8, 19656, Note_off_c, 6, 62, 64
8, 19680, Note_on_c, 6, 65, 72
8, 19704, Note_off_c, 6, 65, 64
8, 19710, Note_on_c, 6, 64, 72
8, 19740, Note_off_c, 6, 64, 64
8, 19740, Note_on_c, 6, 65, 72
8, 19770, Note_off_c, 6, 65, 64
8, 19770, Note_on_c, 6, 64, 72
8, 19800, Note_off_c, 6, 64, 64
8, 19800, Note_on_c, 6, 65, 72
8, 19830, Note_off_c, 6, 65, 64
8, 19830, Note_on_c, 6, 64, 72
8, 19860, Note_off_c, 6, 64, 64
8, 19860, Note_on_c, 6, 65, 72
8, 19890, Note_off_c, 6, 65, 64
8, 19890, Note_on_c, 6, 64, 72
8, 19920, Note_off_c, 6, 64, 64
8, 19920, Note_on_c, 6, 65, 72
8, 19950, Note_off_c, 6, 65, 64
8, 19950, Note_on_c, 6, 64, 72
8, 19980, Note_off_c, 6, 64, 64
8, 19980, Note_on_c, 6, 65, 72
8, 20010, Note_off_c, 6, 65, 64
8, 20010, Note_on_c, 6, 64, 72
8, 20040, Note_off_c, 6, 64, 64
8, 20040, Note_on_c, 6, 62, 72
8, 20100, Note_off_c, 6, 62, 64
8, 20100, Note_on_c, 6, 64, 72
8, 20160, Note_off_c, 6, 64, 64
8, 20160, Note_on_c, 6, 65, 72
8, 20352, Note_off_c, 6, 65, 64
8, 20400, Note_on_c, 6, 67, 72
8, 20784, Note_off_c, 6, 67, 64
8, 20880, Note_on_c, 6, 67, 72
8, 21024, Note_off_c, 6, 67, 64
8, 21120, Note_on_c, 6, 67, 72
8, 22200, Note_off_c, 6, 67, 64
8, 22200, Note_on_c, 6, 65, 72
8, 22272, Note_off_c, 6, 65, 64
8, 22320, Note_on_c, 6, 64, 72
8, 22392, Note_off_c, 6, 64, 64
8, 22440, Note_on_c, 6, 65, 72
8, 22512, Note_off_c, 6, 65, 64
8, 22560, Note_on_c, 6, 64, 72
8, 22680, Note_off_c, 6, 64, 64
8, 22680, Note_on_c, 6, 62, 72
8, 22752, Note_off_c, 6, 62, 64
8, 22800, Note_on_c, 6, 61, 72
8, 22872, Note_off_c, 6, 61, 64
8, 22920, Note_on_c, 6, 62, 72
8, 22992, Note_off_c, 6, 62, 64
8, 23040, Note_on_c, 6, 60, 72
8, 23520, Note_off_c, 6, 60, 64
8, 23520, Note_on_c, 6, 59, 58
8, 23712, Note_off_c, 6, 59, 64
8, 24000, Note_on_c, 6, 72, 78
8, 24144, Note_off_c, 6, 72, 64
8, 24240, Note_on_c, 6, 60, 125
8, 24816, Note_off_c, 6, 60, 64
8, 24960, Note_on_c, 6, 74, 125
8, 25104, Note_off_c, 6, 74, 64
8, 25200, Note_on_c, 6, 62, 125
8, 25776, Note_off_c, 6, 62, 64
8, 25920, Note_on_c, 6, 76, 125
8, 26280, Note_off_c, 6, 76, 64
8, 26280, Note_on_c, 6, 77, 105
8, 26340, Note_off_c, 6, 77, 64
8, 26340, Note_on_c, 6, 74, 105
8, 26388, Note_off_c, 6, 74, 64
8, 26400, Note_on_c, 6, 76, 105
8, 26544, Note_off_c, 6, 76, 64
8, 26640, Note_on_c, 6, 76, 105
8, 26784, Note_off_c, 6, 76, 64
8, 26880, Note_on_c, 6, 72, 105
8, 26880, Note_on_c, 6, 77, 105
8, 27048, Note_off_c, 6, 77, 64
8, 27048, Note_off_c, 6, 72, 64
8, 27120, Note_on_c, 6, 76, 105
8, 27120, Note_on_c, 6, 72, 105
8, 27288, Note_off_c, 6, 72, 64
8, 27288, Note_off_c, 6, 76, 64
8, 27600, Note_on_c, 6, 76, 105
8, 27600, Note_on_c, 6, 72, 105
8, 27768, Note_off_c, 6, 72, 64
8, 27768, Note_off_c, 6, 76, 64
8, 27840, Note_on_c, 6, 72, 105
8, 27840, Note_on_c, 6, 77, 105
8, 28008, Note_off_c, 6, 77, 64
8, 28008, Note_off_c, 6, 72, 64
8, 28080, Note_on_c, 6, 76, 105
8, 28080, Note_on_c, 6, 72, 105
8, 28248, Note_off_c, 6, 72, 64
8, 28248, Note_off_c, 6, 76, 64
8, 28560, Note_on_c, 6, 76, 105
8, 28560, Note_on_c, 6, 72, 105
8, 28728, Note_off_c, 6, 72, 64
8, 28728, Note_off_c, 6, 76, 64
8, 28800, Note_on_c, 6, 77, 105
8, 28800, Note_on_c, 6, 72, 105
8, 28968, Note_off_c, 6, 72, 64
8, 28968, Note_off_c, 6, 77, 64
8, 29040, Note_on_c, 6, 72, 105
8, 29040, Note_on_c, 6, 76, 105
8, 29208, Note_off_c, 6, 76, 64
8, 29208, Note_off_c, 6, 72, 64
8, 29280, Note_on_c, 6, 77, 105
8, 29280, Note_on_c, 6, 72, 105
8, 29448, Note_off_c, 6, 72, 64
8, 29448, Note_off_c, 6, 77, 64
8, 29520, Note_on_c, 6, 72, 105
8, 29520, Note_on_c, 6, 76, 105
8, 29688, Note_off_c, 6, 76, 64
8, 29688, Note_off_c, 6, 72, 64
8, 29760, Note_on_c, 6, 72, 105
8, 29760, Note_on_c, 6, 77, 105
8, 29928, Note_off_c, 6, 77, 64
8, 29928, Note_off_c, 6, 72, 64
8, 30000, Note_on_c, 6, 76, 105
8, 30000, Note_on_c, 6, 72, 105
8, 30168, Note_off_c, 6, 72, 64
8, 30168, Note_off_c, 6, 76, 64
8, 30840, Note_on_c, 6, 72, 72
8, 30960, Note_off_c, 6, 72, 64
8, 30960, Note_on_c, 6, 74, 72
8, 31080, Note_off_c, 6, 74, 64
8, 31080, Note_on_c, 6, 76, 72
8, 31200, Note_off_c, 6, 76, 64
8, 31200, Note_on_c, 6, 77, 72
8, 31320, Note_off_c, 6, 77, 64
8, 31320, Note_on_c, 6, 79, 72
8, 31440, Note_off_c, 6, 79, 64
8, 31440, Note_on_c, 6, 81, 72
8, 31560, Note_off_c, 6, 81, 64
8, 31560, Note_on_c, 6, 77, 72
8, 31656, Note_off_c, 6, 77, 64
8, 31680, Note_on_c, 6, 76, 72
8, 31800, Note_off_c, 6, 76, 64
8, 31800, Note_on_c, 6, 74, 72
8, 31920, Note_off_c, 6, 74, 64
8, 31920, Note_on_c, 6, 72, 72
8, 32040, Note_off_c, 6, 72, 64
8, 32040, Note_on_c, 6, 70, 72
8, 32160, Note_off_c, 6, 70, 64
8, 32160, Note_on_c, 6, 69, 72
8, 32280, Note_off_c, 6, 69, 64
8, 32280, Note_on_c, 6, 67, 72
8, 32400, Note_off_c, 6, 67, 64
8, 32400, Note_on_c, 6, 65, 72
8, 32520, Note_off_c, 6, 65, 64
8, 32520, Note_on_c, 6, 64, 72
8, 32616, Note_off_c, 6, 64, 64
8, 32640, Note_on_c, 6, 64, 72
8, 32760, Note_off_c, 6, 64, 64
8, 32760, Note_on_c, 6, 65, 72
8, 32880, Note_off_c, 6, 65, 64
8, 32880, Note_on_c, 6, 69, 72
8, 33000, Note_off_c, 6, 69, 64
8, 33000, Note_on_c, 6, 65, 72
8, 33096, Note_off_c, 6, 65, 64
8, 33120, Note_on_c, 6, 68, 72
8, 33240, Note_off_c, 6, 68, 64
8, 33240, Note_on_c, 6, 69, 72
8, 33360, Note_off_c, 6, 69, 64
8, 33360, Note_on_c, 6, 72, 72
8, 33480, Note_off_c, 6, 72, 64
8, 33480, Note_on_c, 6, 69, 72
8, 33576, Note_off_c, 6, 69, 64
8, 33600, Note_on_c, 6, 67, 72
8, 33720, Note_off_c, 6, 67, 64
8, 33720, Note_on_c, 6, 65, 72
8, 33840, Note_off_c, 6, 65, 64
8, 33840, Note_on_c, 6, 62, 72
8, 33960, Note_off_c, 6, 62, 64
8, 33960, Note_on_c, 6, 61, 72
8, 34056, Note_off_c, 6, 61, 64
8, 34080, Note_on_c, 6, 64, 72
8, 34200, Note_off_c, 6, 64, 64
8, 34200, Note_on_c, 6, 62, 72
8, 34320, Note_off_c, 6, 62, 64
8, 34320, Note_on_c, 6, 67, 72
8, 34440, Note_off_c, 6, 67, 64
8, 34440, Note_on_c, 6, 65, 72
8, 34536, Note_off_c, 6, 65, 64
8, 34560, Note_on_c, 6, 64, 72
8, 34680, Note_off_c, 6, 64, 64
8, 34680, Note_on_c, 6, 67, 72
8, 34800, Note_off_c, 6, 67, 64
8, 34800, Note_on_c, 6, 64, 72
8, 34920, Note_off_c, 6, 64, 64
8, 34920, Note_on_c, 6, 67, 72
8, 35016, Note_off_c, 6, 67, 64
8, 35040, Note_on_c, 6, 64, 72
8, 35160, Note_off_c, 6, 64, 64
8, 35160, Note_on_c, 6, 67, 72
8, 35280, Note_off_c, 6, 67, 64
8, 35280, Note_on_c, 6, 65, 72
8, 35400, Note_off_c, 6, 65, 64
8, 35400, Note_on_c, 6, 62, 72
8, 35496, Note_off_c, 6, 62, 64
8, 35520, Note_on_c, 6, 64, 92
8, 35712, Note_off_c, 6, 64, 64
8, 36480, Note_on_c, 6, 79, 92
8, 36648, Note_off_c, 6, 79, 64
8, 36720, Note_on_c, 6, 79, 105
8, 36846, Note_off_c, 6, 79, 64
8, 36900, Note_on_c, 6, 79, 105
8, 36942, Note_off_c, 6, 79, 64
8, 36960, Note_on_c, 6, 79, 105
8, 37128, Note_off_c, 6, 79, 64
8, 37200, Note_on_c, 6, 79, 105
8, 37368, Note_off_c, 6, 79, 64
8, 37440, Note_on_c, 6, 84, 105
8, 37824, Note_off_c, 6, 84, 64
8, 37920, Note_on_c, 6, 76, 105
8, 38304, Note_off_c, 6, 76, 64
8, 38400, Note_on_c, 6, 74, 105
8, 38760, Note_off_c, 6, 74, 64
8, 38760, Note_on_c, 6, 77, 105
8, 38820, Note_off_c, 6, 77, 64
8, 38820, Note_on_c, 6, 81, 105
8, 38868, Note_off_c, 6, 81, 64
8, 38880, Note_on_c, 6, 72, 105
8, 39120, Note_off_c, 6, 72, 64
8, 39120, Note_on_c, 6, 71, 105
8, 39348, Note_off_c, 6, 71, 64
8, 39360, Note_on_c, 6, 72, 105
8, 39552, Note_off_c, 6, 72, 64
8, 40320, Note_on_c, 6, 79, 105
8, 40488, Note_off_c, 6, 79, 64
8, 40560, Note_on_c, 6, 79, 105
8, 40686, Note_off_c, 6, 79, 64
8, 40740, Note_on_c, 6, 79, 105
8, 40782, Note_off_c, 6, 79, 64
8, 40800, Note_on_c, 6, 79, 105
8, 40968, Note_off_c, 6, 79, 64
8, 41040, Note_on_c, 6, 79, 105
8, 41208, Note_off_c, 6, 79, 64
8, 41280, Note_on_c, 6, 84, 105
8, 41664, Note_off_c, 6, 84, 64
8, 41760, Note_on_c, 6, 76, 105
8, 42144, Note_off_c, 6, 76, 64
8, 42240, Note_on_c, 6, 74, 105
8, 42408, Note_off_c, 6, 74, 64
8, 42480, Note_on_c, 6, 74, 105
8, 42606, Note_off_c, 6, 74, 64
8, 42660, Note_on_c, 6, 74, 105
8, 42702, Note_off_c, 6, 74, 64
8, 42720, Note_on_c, 6, 74, 105
8, 42888, Note_off_c, 6, 74, 64
8, 42960, Note_on_c, 6, 74, 105
8, 43128, Note_off_c, 6, 74, 64
8, 43200, Note_on_c, 6, 83, 105
8, 43584, Note_off_c, 6, 83, 64
8, 43680, Note_on_c, 6, 74, 105
8, 44064, Note_off_c, 6, 74, 64
8, 44160, Note_on_c, 6, 72, 105
8, 44328, Note_off_c, 6, 72, 64
8, 44400, Note_on_c, 6, 72, 105
8, 44526, Note_off_c, 6, 72, 64
8, 44580, Note_on_c, 6, 72, 105
8, 44622, Note_off_c, 6, 72, 64
8, 44640, Note_on_c, 6, 72, 105
8, 44808, Note_off_c, 6, 72, 64
8, 44880, Note_on_c, 6, 72, 105
8, 45048, Note_off_c, 6, 72, 64
8, 45120, Note_on_c, 6, 84, 105
8, 45504, Note_off_c, 6, 84, 64
8, 45600, Note_on_c, 6, 72, 105
8, 45984, Note_off_c, 6, 72, 64
8, 46080, Note_on_c, 6, 67, 105
8, 46164, Note_off_c, 6, 67, 64
8, 46200, Note_on_c, 6, 86, 105
8, 46284, Note_off_c, 6, 86, 64
8, 46320, Note_on_c, 6, 86, 105
8, 46404, Note_off_c, 6, 86, 64
8, 46440, Note_on_c, 6, 86, 105
8, 46524, Note_off_c, 6, 86, 64
8, 46560, Note_on_c, 6, 86, 105
8, 46728, Note_off_c, 6, 86, 64
8, 46800, Note_on_c, 6, 79, 105
8, 46968, Note_off_c, 6, 79, 64
8, 47040, Note_on_c, 6, 78, 105
8, 47208, Note_off_c, 6, 78, 64
8, 47280, Note_on_c, 6, 79, 105
8, 47448, Note_off_c, 6, 79, 64
8, 47520, Note_on_c, 6, 81, 105
8, 47880, Note_off_c, 6, 81, 64
8, 47880, Note_on_c, 6, 83, 105
8, 47940, Note_off_c, 6, 83, 64
8, 47940, Note_on_c, 6, 84, 105
8, 47982, Note_off_c, 6, 84, 64
8, 48000, Note_on_c, 6, 83, 105
8, 48120, Note_off_c, 6, 83, 64
8, 48120, Note_on_c, 6, 79, 105
8, 48204, Note_off_c, 6, 79, 64
8, 48240, Note_on_c, 6, 86, 105
8, 48324, Note_off_c, 6, 86, 64
8, 48360, Note_on_c, 6, 86, 105
8, 48444, Note_off_c, 6, 86, 64
8, 48480, Note_on_c, 6, 86, 105
8, 48648, Note_off_c, 6, 86, 64
8, 48720, Note_on_c, 6, 79, 105
8, 48888, Note_off_c, 6, 79, 64
8, 48960, Note_on_c, 6, 78, 105
8, 49128, Note_off_c, 6, 78, 64
8, 49200, Note_on_c, 6, 79, 105
8, 49368, Note_off_c, 6, 79, 64
8, 49440, Note_on_c, 6, 81, 105
8, 49800, Note_off_c, 6, 81, 64
8, 49800, Note_on_c, 6, 83, 105
8, 49860, Note_off_c, 6, 83, 64
8, 49860, Note_on_c, 6, 84, 105
8, 49902, Note_off_c, 6, 84, 64
8, 49920, Note_on_c, 6, 83, 105
8, 50064, Note_off_c, 6, 83, 64
8, 50160, Note_on_c, 6, 74, 105
8, 50400, Note_off_c, 6, 74, 64
8, 50400, Note_on_c, 6, 72, 105
8, 50640, Note_off_c, 6, 72, 64
8, 50640, Note_on_c, 6, 71, 105
8, 50832, Note_off_c, 6, 71, 64
8, 50880, Note_on_c, 6, 71, 105
8, 50940, Note_off_c, 6, 71, 64
8, 50940, Note_on_c, 6, 69, 105
8, 51084, Note_off_c, 6, 69, 64
8, 51120, Note_on_c, 6, 69, 105
8, 51600, Note_off_c, 6, 69, 64
8, 51600, Note_on_c, 6, 68, 72
8, 51792, Note_off_c, 6, 68, 64
8, 51840, Note_on_c, 6, 71, 72
8, 51900, Note_off_c, 6, 71, 64
8, 51900, Note_on_c, 6, 69, 105
8, 52044, Note_off_c, 6, 69, 64
8, 52080, Note_on_c, 6, 69, 72
8, 52560, Note_off_c, 6, 69, 64
8, 52560, Note_on_c, 6, 68, 72
8, 52752, Note_off_c, 6, 68, 64
8, 52800, Note_on_c, 6, 69, 105
8, 52872, Note_off_c, 6, 69, 64
8, 52920, Note_on_c, 6, 68, 105
8, 52992, Note_off_c, 6, 68, 64
8, 53040, Note_on_c, 6, 69, 105
8, 53112, Note_off_c, 6, 69, 64
8, 53160, Note_on_c, 6, 68, 105
8, 53232, Note_off_c, 6, 68, 64
8, 53280, Note_on_c, 6, 69, 105
8, 53352, Note_off_c, 6, 69, 64
8, 53400, Note_on_c, 6, 68, 105
8, 53472, Note_off_c, 6, 68, 64
8, 53520, Note_on_c, 6, 69, 105
8, 53592, Note_off_c, 6, 69, 64
8, 53640, Note_on_c, 6, 71, 105
8, 53712, Note_off_c, 6, 71, 64
8, 53760, Note_on_c, 6, 72, 105
8, 53832, Note_off_c, 6, 72, 64
8, 53880, Note_on_c, 6, 71, 105
8, 53952, Note_off_c, 6, 71, 64
8, 54000, Note_on_c, 6, 72, 105
8, 54072, Note_off_c, 6, 72, 64
8, 54120, Note_on_c, 6, 71, 105
8, 54192, Note_off_c, 6, 71, 64
8, 54240, Note_on_c, 6, 72, 105
8, 54312, Note_off_c, 6, 72, 64
8, 54360, Note_on_c, 6, 71, 105
8, 54432, Note_off_c, 6, 71, 64
8, 54480, Note_on_c, 6, 72, 105
8, 54552, Note_off_c, 6, 72, 64
8, 54600, Note_on_c, 6, 74, 105
8, 54672, Note_off_c, 6, 74, 64
8, 54720, Note_on_c, 6, 76, 105
8, 54912, Note_off_c, 6, 76, 64
8, 56640, Note_on_c, 6, 67, 58
8, 57600, Note_off_c, 6, 67, 64
8, 57600, Note_on_c, 6, 57, 58
8, 58704, Note_off_c, 6, 57, 64
8, 58800, Note_on_c, 6, 60, 72
8, 59280, Note_off_c, 6, 60, 64
8, 59280, Note_on_c, 6, 59, 72
8, 59472, Note_off_c, 6, 59, 64
8, 59520, Note_on_c, 6, 57, 72
8, 59664, Note_off_c, 6, 57, 64
8, 59760, Note_on_c, 6, 60, 72
8, 60240, Note_off_c, 6, 60, 64
8, 60240, Note_on_c, 6, 59, 72
8, 60432, Note_off_c, 6, 59, 64
8, 60480, Note_on_c, 6, 60, 72
8, 60600, Note_off_c, 6, 60, 64
8, 60600, Note_on_c, 6, 55, 72
8, 60672, Note_off_c, 6, 55, 64
8, 60720, Note_on_c, 6, 55, 72
8, 60792, Note_off_c, 6, 55, 64
8, 60840, Note_on_c, 6, 55, 72
8, 60912, Note_off_c, 6, 55, 64
8, 60960, Note_on_c, 6, 55, 72
8, 61032, Note_off_c, 6, 55, 64
8, 61080, Note_on_c, 6, 55, 72
8, 61152, Note_off_c, 6, 55, 64
8, 61200, Note_on_c, 6, 55, 72
8, 61272, Note_off_c, 6, 55, 64
8, 61320, Note_on_c, 6, 55, 72
8, 61392, Note_off_c, 6, 55, 64
8, 61440, Note_on_c, 6, 67, 72
8, 61560, Note_off_c, 6, 67, 64
8, 61560, Note_on_c, 6, 55, 72
8, 61632, Note_off_c, 6, 55, 64
8, 61680, Note_on_c, 6, 67, 72
8, 61752, Note_off_c, 6, 67, 64
8, 61800, Note_on_c, 6, 67, 72
8, 61872, Note_off_c, 6, 67, 64
8, 61920, Note_on_c, 6, 67, 72
8, 62040, Note_off_c, 6, 67, 64
8, 62040, Note_on_c, 6, 55, 72
8, 62112, Note_off_c, 6, 55, 64
8, 62160, Note_on_c, 6, 67, 72
8, 62232, Note_off_c, 6, 67, 64
8, 62280, Note_on_c, 6, 67, 72
8, 62352, Note_off_c, 6, 67, 64
8, 62400, Note_on_c, 6, 64, 72
8, 62592, Note_off_c, 6, 64, 64
8, 62880, Note_on_c, 6, 60, 72
8, 63072, Note_off_c, 6, 60, 64
8, 63360, Note_on_c, 6, 59, 72
8, 63552, Note_off_c, 6, 59, 64
8, 63840, Note_on_c, 6, 67, 105
8, 63840, Note_on_c, 6, 76, 105
8, 63840, Note_on_c, 6, 71, 105
8, 63984, Note_off_c, 6, 71, 64
8, 63984, Note_off_c, 6, 76, 64
8, 63984, Note_off_c, 6, 67, 64
8, 64080, Note_on_c, 6, 71, 105
8, 64080, Note_on_c, 6, 67, 105
8, 64080, Note_on_c, 6, 76, 105
8, 64224, Note_off_c, 6, 76, 64
8, 64224, Note_off_c, 6, 67, 64
8, 64224, Note_off_c, 6, 71, 64
8, 64320, Note_on_c, 6, 67, 105
8, 64320, Note_on_c, 6, 71, 105
8, 64320, Note_on_c, 6, 76, 105
8, 64704, Note_off_c, 6, 76, 64
8, 64704, Note_off_c, 6, 71, 64
8, 64704, Note_off_c, 6, 67, 64
8, 64800, Note_on_c, 6, 71, 105
8, 65184, Note_off_c, 6, 71, 64
8, 65280, Note_on_c, 6, 67, 105
8, 65436, Note_off_c, 6, 67, 64
8, 65520, Note_on_c, 6, 64, 105
8, 65676, Note_off_c, 6, 64, 64
8, 65760, Note_on_c, 6, 71, 105
8, 65916, Note_off_c, 6, 71, 64
8, 66000, Note_on_c, 6, 71, 105
8, 66156, Note_off_c, 6, 71, 64
8, 66240, Note_on_c, 6, 67, 105
8, 66396, Note_off_c, 6, 67, 64
8, 66480, Note_on_c, 6, 64, 105
8, 66636, Note_off_c, 6, 64, 64
8, 66720, Note_on_c, 6, 71, 105
8, 66876, Note_off_c, 6, 71, 64
8, 66960, Note_on_c, 6, 71, 105
8, 67116, Note_off_c, 6, 71, 64
8, 67200, Note_on_c, 6, 67, 105
8, 67356, Note_off_c, 6, 67, 64
8, 67440, Note_on_c, 6, 64, 105
8, 67596, Note_off_c, 6, 64, 64
8, 69240, Note_on_c, 6, 72, 105
8, 69312, Note_off_c, 6, 72, 64
8, 69360, Note_on_c, 6, 72, 72
8, 69432, Note_off_c, 6, 72, 64
8, 69480, Note_on_c, 6, 72, 72
8, 69552, Note_off_c, 6, 72, 64
8, 69600, Note_on_c, 6, 72, 72
8, 69720, Note_off_c, 6, 72, 64
8, 69720, Note_on_c, 6, 76, 72
8, 69792, Note_off_c, 6, 76, 64
8, 69840, Note_on_c, 6, 74, 72
8, 69912, Note_off_c, 6, 74, 64
8, 69960, Note_on_c, 6, 72, 72
8, 70032, Note_off_c, 6, 72, 64
8, 70080, Note_on_c, 6, 72, 72
8, 70200, Note_off_c, 6, 72, 64
8, 70200, Note_on_c, 6, 71, 72
8, 70272, Note_off_c, 6, 71, 64
8, 70320, Note_on_c, 6, 67, 72
8, 70392, Note_off_c, 6, 67, 64
8, 70440, Note_on_c, 6, 71, 72
8, 70512, Note_off_c, 6, 71, 64
8, 70560, Note_on_c, 6, 71, 72
8, 70680, Note_off_c, 6, 71, 64
8, 70680, Note_on_c, 6, 69, 72
8, 70752, Note_off_c, 6, 69, 64
8, 70800, Note_on_c, 6, 67, 72
8, 70872, Note_off_c, 6, 67, 64
8, 70920, Note_on_c, 6, 66, 72
8, 70992, Note_off_c, 6, 66, 64
8, 71040, Note_on_c, 6, 67, 58
8, 71232, Note_off_c, 6, 67, 64
8, 72000, Note_on_c, 6, 59, 58
8, 73152, Note_off_c, 6, 59, 64
8, 73560, Note_on_c, 6, 59, 58
8, 73680, Note_off_c, 6, 59, 64
8, 73680, Note_on_c, 6, 61, 58
8, 73800, Note_off_c, 6, 61, 64
8, 73800, Note_on_c, 6, 63, 58
8, 73920, Note_off_c, 6, 63, 64
8, 73920, Note_on_c, 6, 64, 58
8, 74112, Note_off_c, 6, 64, 64
8, 74520, Note_on_c, 6, 59, 58
8, 74640, Note_off_c, 6, 59, 64
8, 74640, Note_on_c, 6, 61, 58
8, 74760, Note_off_c, 6, 61, 64
8, 74760, Note_on_c, 6, 63, 58
8, 74880, Note_off_c, 6, 63, 64
8, 74880, Note_on_c, 6, 64, 58
8, 75072, Note_off_c, 6, 64, 64
8, 75360, Note_on_c, 6, 67, 105
8, 75360, Note_on_c, 6, 84, 105
8, 75360, Note_on_c, 6, 76, 105
8, 75504, Note_off_c, 6, 76, 64
8, 75504, Note_off_c, 6, 84, 64
8, 75504, Note_off_c, 6, 67, 64
8, 75600, Note_on_c, 6, 67, 105
8, 75600, Note_on_c, 6, 84, 105
8, 75600, Note_on_c, 6, 76, 105
8, 75744, Note_off_c, 6, 76, 64
8, 75744, Note_off_c, 6, 84, 64
8, 75744, Note_off_c, 6, 67, 64
8, 75840, Note_on_c, 6, 84, 105
8, 75840, Note_on_c, 6, 67, 105
8, 75840, Note_on_c, 6, 76, 105
8, 76224, Note_off_c, 6, 76, 64
8, 76224, Note_off_c, 6, 67, 64
8, 76224, Note_off_c, 6, 84, 64
8, 76320, Note_on_c, 6, 79, 105
8, 76704, Note_off_c, 6, 79, 64
8, 76800, Note_on_c, 6, 72, 105
8, 76830, Note_off_c, 6, 72, 64
8, 76830, Note_on_c, 6, 74, 105
8, 76860, Note_off_c, 6, 74, 64
8, 76860, Note_on_c, 6, 76, 105
8, 77004, Note_off_c, 6, 76, 64
8, 77040, Note_on_c, 6, 76, 105
8, 77112, Note_off_c, 6, 76, 64
8, 77160, Note_on_c, 6, 76, 105
8, 77232, Note_off_c, 6, 76, 64
8, 77280, Note_on_c, 6, 76, 105
8, 77400, Note_off_c, 6, 76, 64
8, 77400, Note_on_c, 6, 72, 105
8, 77472, Note_off_c, 6, 72, 64
8, 77520, Note_on_c, 6, 72, 105
8, 77640, Note_off_c, 6, 72, 64
8, 77640, Note_on_c, 6, 69, 105
8, 77712, Note_off_c, 6, 69, 64
8, 77760, Note_on_c, 6, 67, 105
8, 77790, Note_off_c, 6, 67, 64
8, 77790, Note_on_c, 6, 69, 105
8, 77820, Note_off_c, 6, 69, 64
8, 77820, Note_on_c, 6, 71, 105
8, 77964, Note_off_c, 6, 71, 64
8, 78000, Note_on_c, 6, 71, 105
8, 78072, Note_off_c, 6, 71, 64
8, 78120, Note_on_c, 6, 71, 105
8, 78192, Note_off_c, 6, 71, 64
8, 78240, Note_on_c, 6, 71, 105
8, 78360, Note_off_c, 6, 71, 64
8, 78360, Note_on_c, 6, 67, 105
8, 78432, Note_off_c, 6, 67, 64
8, 78480, Note_on_c, 6, 69, 105
8, 78600, Note_off_c, 6, 69, 64
8, 78600, Note_on_c, 6, 66, 105
8, 78672, Note_off_c, 6, 66, 64
8, 78720, Note_on_c, 6, 67, 105
8, 78912, Note_off_c, 6, 67, 64
8, 79080, Note_on_c, 6, 62, 105
8, 79164, Note_off_c, 6, 62, 64
8, 79200, Note_on_c, 6, 64, 105
8, 79284, Note_off_c, 6, 64, 64
8, 79320, Note_on_c, 6, 60, 105
8, 79404, Note_off_c, 6, 60, 64
8, 79440, Note_on_c, 6, 66, 105
8, 79524, Note_off_c, 6, 66, 64
8, 79560, Note_on_c, 6, 62, 105
8, 79644, Note_off_c, 6, 62, 64
8, 79680, Note_on_c, 6, 67, 105
8, 79764, Note_off_c, 6, 67, 64
8, 79800, Note_on_c, 6, 64, 105
8, 79884, Note_off_c, 6, 64, 64
8, 79920, Note_on_c, 6, 69, 105
8, 80004, Note_off_c, 6, 69, 64
8, 80040, Note_on_c, 6, 66, 105
8, 80124, Note_off_c, 6, 66, 64
8, 80160, Note_on_c, 6, 71, 105
8, 80244, Note_off_c, 6, 71, 64
8, 80280, Note_on_c, 6, 67, 105
8, 80364, Note_off_c, 6, 67, 64
8, 80400, Note_on_c, 6, 72, 105
8, 80484, Note_off_c, 6, 72, 64
8, 80520, Note_on_c, 6, 69, 105
8, 80604, Note_off_c, 6, 69, 64
8, 80640, Note_on_c, 6, 67, 105
8, 80688, Note_off_c, 6, 67, 64
8, 80700, Note_on_c, 6, 67, 105
8, 80748, Note_off_c, 6, 67, 64
8, 80760, Note_on_c, 6, 67, 105
8, 80808, Note_off_c, 6, 67, 64
8, 80820, Note_on_c, 6, 67, 105
8, 80868, Note_off_c, 6, 67, 64
8, 80880, Note_on_c, 6, 71, 105
8, 80928, Note_off_c, 6, 71, 64
8, 80940, Note_on_c, 6, 71, 105
8, 80988, Note_off_c, 6, 71, 64
8, 81000, Note_on_c, 6, 71, 105
8, 81048, Note_off_c, 6, 71, 64
8, 81060, Note_on_c, 6, 71, 105
8, 81108, Note_off_c, 6, 71, 64
8, 81120, Note_on_c, 6, 69, 105
8, 81168, Note_off_c, 6, 69, 64
8, 81180, Note_on_c, 6, 69, 105
8, 81228, Note_off_c, 6, 69, 64
8, 81240, Note_on_c, 6, 69, 105
8, 81288, Note_off_c, 6, 69, 64
8, 81300, Note_on_c, 6, 69, 105
8, 81348, Note_off_c, 6, 69, 64
8, 81360, Note_on_c, 6, 81, 105
8, 81408, Note_off_c, 6, 81, 64
8, 81420, Note_on_c, 6, 81, 105
8, 81468, Note_off_c, 6, 81, 64
8, 81480, Note_on_c, 6, 81, 105
8, 81528, Note_off_c, 6, 81, 64
8, 81540, Note_on_c, 6, 81, 105
8, 81588, Note_off_c, 6, 81, 64
8, 81600, Note_on_c, 6, 79, 105
8, 81744, Note_off_c, 6, 79, 64
8, 81840, Note_on_c, 6, 72, 105
8, 81870, Note_off_c, 6, 72, 64
8, 81870, Note_on_c, 6, 71, 105
8, 81900, Note_off_c, 6, 71, 64
8, 81900, Note_on_c, 6, 72, 105
8, 81930, Note_off_c, 6, 72, 64
8, 81930, Note_on_c, 6, 71, 105
8, 81960, Note_off_c, 6, 71, 64
8, 81960, Note_on_c, 6, 72, 105
8, 81990, Note_off_c, 6, 72, 64
8, 81990, Note_on_c, 6, 71, 105
8, 82020, Note_off_c, 6, 71, 64
8, 82020, Note_on_c, 6, 69, 105
8, 82050, Note_off_c, 6, 69, 64
8, 82050, Note_on_c, 6, 71, 105
8, 82080, Note_off_c, 6, 71, 64
8, 82080, Note_on_c, 6, 72, 105
8, 82224, Note_off_c, 6, 72, 64
8, 82320, Note_on_c, 6, 62, 105
8, 82320, Note_on_c, 6, 69, 105
8, 82320, Note_on_c, 6, 78, 105
8, 82464, Note_off_c, 6, 78, 64
8, 82464, Note_off_c, 6, 69, 64
8, 82464, Note_off_c, 6, 62, 64
8, 82560, Note_on_c, 6, 79, 105
8, 82560, Note_on_c, 6, 71, 105
8, 82560, Note_on_c, 6, 62, 105
8, 82752, Note_off_c, 6, 62, 64
8, 82752, Note_off_c, 6, 71, 64
8, 82752, Note_off_c, 6, 79, 64
8, 82920, Note_on_c, 6, 74, 105
8, 83004, Note_off_c, 6, 74, 64
8, 83040, Note_on_c, 6, 64, 105
8, 83124, Note_off_c, 6, 64, 64
8, 83160, Note_on_c, 6, 76, 105
8, 83244, Note_off_c, 6, 76, 64
8, 83280, Note_on_c, 6, 66, 105
8, 83364, Note_off_c, 6, 66, 64
8, 83400, Note_on_c, 6, 78, 105
8, 83484, Note_off_c, 6, 78, 64
8, 83520, Note_on_c, 6, 67, 105
8, 83604, Note_off_c, 6, 67, 64
8, 83640, Note_on_c, 6, 79, 105
8, 83724, Note_off_c, 6, 79, 64
8, 83760, Note_on_c, 6, 69, 105
8, 83844, Note_off_c, 6, 69, 64
8, 83880, Note_on_c, 6, 81, 105
8, 83964, Note_off_c, 6, 81, 64
8, 84000, Note_on_c, 6, 71, 105
8, 84084, Note_off_c, 6, 71, 64
8, 84120, Note_on_c, 6, 83, 105
8, 84204, Note_off_c, 6, 83, 64
8, 84240, Note_on_c, 6, 72, 105
8, 84324, Note_off_c, 6, 72, 64
8, 84360, Note_on_c, 6, 84, 105
8, 84444, Note_off_c, 6, 84, 64
8, 84480, Note_on_c, 6, 74, 105
8, 84528, Note_off_c, 6, 74, 64
8, 84540, Note_on_c, 6, 74, 105
8, 84588, Note_off_c, 6, 74, 64
8, 84600, Note_on_c, 6, 74, 105
8, 84648, Note_off_c, 6, 74, 64
8, 84660, Note_on_c, 6, 74, 105
8, 84708, Note_off_c, 6, 74, 64
8, 84720, Note_on_c, 6, 71, 105
8, 84768, Note_off_c, 6, 71, 64
8, 84780, Note_on_c, 6, 71, 105
8, 84828, Note_off_c, 6, 71, 64
8, 84840, Note_on_c, 6, 71, 105
8, 84888, Note_off_c, 6, 71, 64
8, 84900, Note_on_c, 6, 71, 105
8, 84948, Note_off_c, 6, 71, 64
8, 84960, Note_on_c, 6, 72, 105
8, 85008, Note_off_c, 6, 72, 64
8, 85020, Note_on_c, 6, 72, 105
8, 85068, Note_off_c, 6, 72, 64
8, 85080, Note_on_c, 6, 72, 105
8, 85128, Note_off_c, 6, 72, 64
8, 85140, Note_on_c, 6, 72, 105
8, 85188, Note_off_c, 6, 72, 64
8, 85200, Note_on_c, 6, 69, 105
8, 85248, Note_off_c, 6, 69, 64
8, 85260, Note_on_c, 6, 69, 105
8, 85308, Note_off_c, 6, 69, 64
8, 85320, Note_on_c, 6, 69, 105
8, 85368, Note_off_c, 6, 69, 64
8, 85380, Note_on_c, 6, 69, 105
8, 85428, Note_off_c, 6, 69, 64
8, 85440, Note_on_c, 6, 71, 105
8, 85608, Note_off_c, 6, 71, 64
8, 85680, Note_on_c, 6, 74, 105
8, 85848, Note_off_c, 6, 74, 64
8, 85920, Note_on_c, 6, 76, 105
8, 86088, Note_off_c, 6, 76, 64
8, 86160, Note_on_c, 6, 72, 105
8, 86160, Note_on_c, 6, 62, 105
8, 86328, Note_off_c, 6, 62, 64
8, 86328, Note_off_c, 6, 72, 64
8, 86400, Note_on_c, 6, 62, 105
8, 86400, Note_on_c, 6, 71, 105
8, 86484, Note_off_c, 6, 71, 64
8, 86484, Note_off_c, 6, 62, 64
8, 86520, Note_on_c, 6, 71, 105
8, 86520, Note_on_c, 6, 62, 105
8, 86604, Note_off_c, 6, 62, 64
8, 86604, Note_off_c, 6, 71, 64
8, 86640, Note_on_c, 6, 71, 105
8, 86640, Note_on_c, 6, 62, 105
8, 86724, Note_off_c, 6, 62, 64
8, 86724, Note_off_c, 6, 71, 64
8, 86760, Note_on_c, 6, 62, 105
8, 86760, Note_on_c, 6, 71, 105
8, 86844, Note_off_c, 6, 71, 64
8, 86844, Note_off_c, 6, 62, 64
8, 86880, Note_on_c, 6, 62, 105
8, 86880, Note_on_c, 6, 71, 105
8, 87072, Note_off_c, 6, 71, 64
8, 87072, Note_off_c, 6, 62, 64
8, 87360, Note_on_c, 6, 79, 105
8, 87360, Note_on_c, 6, 71, 105
8, 87444, Note_off_c, 6, 71, 64
8, 87444, Note_off_c, 6, 79, 64
8, 87480, Note_on_c, 6, 79, 105
8, 87480, Note_on_c, 6, 71, 105
8, 87564, Note_off_c, 6, 71, 64
8, 87564, Note_off_c, 6, 79, 64
8, 87600, Note_on_c, 6, 79, 105
8, 87600, Note_on_c, 6, 71, 105
8, 87684, Note_off_c, 6, 71, 64
8, 87684, Note_off_c, 6, 79, 64
8, 87720, Note_on_c, 6, 79, 105
8, 87720, Note_on_c, 6, 71, 105
8, 87804, Note_off_c, 6, 71, 64
8, 87804, Note_off_c, 6, 79, 64
8, 87840, Note_on_c, 6, 79, 105
8, 87840, Note_on_c, 6, 71, 105
8, 88032, Note_off_c, 6, 71, 64
8, 88032, Note_off_c, 6, 79, 64
8, 88320, Note_on_c, 6, 74, 105
8, 88320, Note_on_c, 6, 79, 105
8, 88404, Note_off_c, 6, 79, 64
8, 88404, Note_off_c, 6, 74, 64
8, 88440, Note_on_c, 6, 74, 105
8, 88440, Note_on_c, 6, 79, 105
8, 88524, Note_off_c, 6, 79, 64
8, 88524, Note_off_c, 6, 74, 64
8, 88560, Note_on_c, 6, 79, 105
8, 88560, Note_on_c, 6, 74, 105
8, 88644, Note_off_c, 6, 74, 64
8, 88644, Note_off_c, 6, 79, 64
8, 88680, Note_on_c, 6, 79, 105
8, 88680, Note_on_c, 6, 74, 105
8, 88764, Note_off_c, 6, 74, 64
8, 88764, Note_off_c, 6, 79, 64
8, 88800, Note_on_c, 6, 79, 105
8, 88992, Note_off_c, 6, 79, 64
8, 89040, Note_on_c, 6, 81, 105
8, 89070, Note_off_c, 6, 81, 64
8, 89070, Note_on_c, 6, 79, 105
8, 89100, Note_off_c, 6, 79, 64
8, 89100, Note_on_c, 6, 81, 105
8, 89130, Note_off_c, 6, 81, 64
8, 89130, Note_on_c, 6, 79, 105
8, 89160, Note_off_c, 6, 79, 64
8, 89160, Note_on_c, 6, 81, 105
8, 89190, Note_off_c, 6, 81, 64
8, 89190, Note_on_c, 6, 79, 105
8, 89220, Note_off_c, 6, 79, 64
8, 89220, Note_on_c, 6, 78, 105
8, 89250, Note_off_c, 6, 78, 64
8, 89250, Note_on_c, 6, 79, 105
8, 89274, Note_off_c, 6, 79, 64
8, 89280, Note_on_c, 6, 76, 105
8, 89600, Note_off_c, 6, 76, 64
8, 89600, Note_on_c, 6, 77, 105
8, 89640, Note_off_c, 6, 77, 64
8, 89640, Note_on_c, 6, 79, 105
8, 89680, Note_off_c, 6, 79, 64
8, 89680, Note_on_c, 6, 81, 105
8, 89720, Note_off_c, 6, 81, 64
8, 89720, Note_on_c, 6, 83, 105
8, 89760, Note_off_c, 6, 83, 64
8, 89760, Note_on_c, 6, 84, 105
8, 89904, Note_off_c, 6, 84, 64
8, 90000, Note_on_c, 6, 76, 105
8, 90144, Note_off_c, 6, 76, 64
8, 90240, Note_on_c, 6, 74, 105
8, 90384, Note_off_c, 6, 74, 64
8, 90480, Note_on_c, 6, 69, 105
8, 90480, Note_on_c, 6, 81, 105
8, 90624, Note_off_c, 6, 81, 64
8, 90624, Note_off_c, 6, 69, 64
8, 90960, Note_on_c, 6, 74, 105
8, 91128, Note_off_c, 6, 74, 64
8, 91200, Note_on_c, 6, 74, 105
8, 91320, Note_off_c, 6, 74, 64
8, 91320, Note_on_c, 6, 72, 105
8, 91440, Note_off_c, 6, 72, 64
8, 91440, Note_on_c, 6, 71, 105
8, 91824, Note_off_c, 6, 71, 64
8, 91920, Note_on_c, 6, 69, 105
8, 92088, Note_off_c, 6, 69, 64
8, 92160, Note_on_c, 6, 62, 105
8, 92160, Note_on_c, 6, 71, 105
8, 92244, Note_off_c, 6, 71, 64
8, 92244, Note_off_c, 6, 62, 64
8, 92280, Note_on_c, 6, 62, 105
8, 92280, Note_on_c, 6, 71, 105
8, 92364, Note_off_c, 6, 71, 64
8, 92364, Note_off_c, 6, 62, 64
8, 92400, Note_on_c, 6, 71, 105
8, 92400, Note_on_c, 6, 62, 105
8, 92484, Note_off_c, 6, 62, 64
8, 92484, Note_off_c, 6, 71, 64
8, 92520, Note_on_c, 6, 62, 105
8, 92520, Note_on_c, 6, 71, 105
8, 92604, Note_off_c, 6, 71, 64
8, 92604, Note_off_c, 6, 62, 64
8, 92640, Note_on_c, 6, 62, 105
8, 92640, Note_on_c, 6, 71, 105
8, 92832, Note_off_c, 6, 71, 64
8, 92832, Note_off_c, 6, 62, 64
8, 93120, Note_on_c, 6, 79, 105
8, 93120, Note_on_c, 6, 71, 105
8, 93204, Note_off_c, 6, 71, 64
8, 93204, Note_off_c, 6, 79, 64
8, 93240, Note_on_c, 6, 79, 105
8, 93240, Note_on_c, 6, 71, 105
8, 93324, Note_off_c, 6, 71, 64
8, 93324, Note_off_c, 6, 79, 64
8, 93360, Note_on_c, 6, 79, 105
8, 93360, Note_on_c, 6, 71, 105
8, 93444, Note_off_c, 6, 71, 64
8, 93444, Note_off_c, 6, 79, 64
8, 93480, Note_on_c, 6, 79, 105
8, 93480, Note_on_c, 6, 71, 105
8, 93564, Note_off_c, 6, 71, 64
8, 93564, Note_off_c, 6, 79, 64
8, 93600, Note_on_c, 6, 79, 105
8, 93600, Note_on_c, 6, 71, 105
8, 93792, Note_off_c, 6, 71, 64
8, 93792, Note_off_c, 6, 79, 64
8, 94080, Note_on_c, 6, 74, 105
8, 94080, Note_on_c, 6, 79, 105
8, 94164, Note_off_c, 6, 79, 64
8, 94164, Note_off_c, 6, 74, 64
8, 94200, Note_on_c, 6, 79, 105
8, 94200, Note_on_c, 6, 74, 105
8, 94284, Note_off_c, 6, 74, 64
8, 94284, Note_off_c, 6, 79, 64
8, 94320, Note_on_c, 6, 74, 105
8, 94320, Note_on_c, 6, 79, 105
8, 94404, Note_off_c, 6, 79, 64
8, 94404, Note_off_c, 6, 74, 64
8, 94440, Note_on_c, 6, 74, 105
8, 94440, Note_on_c, 6, 79, 105
8, 94524, Note_off_c, 6, 79, 64
8, 94524, Note_off_c, 6, 74, 64
8, 94560, Note_on_c, 6, 79, 105
8, 94752, Note_off_c, 6, 79, 64
8, 94800, Note_on_c, 6, 81, 105
8, 94830, Note_off_c, 6, 81, 64
8, 94830, Note_on_c, 6, 79, 105
8, 94860, Note_off_c, 6, 79, 64
8, 94860, Note_on_c, 6, 81, 105
8, 94890, Note_off_c, 6, 81, 64
8, 94890, Note_on_c, 6, 79, 105
8, 94920, Note_off_c, 6, 79, 64
8, 94920, Note_on_c, 6, 81, 105
8, 94950, Note_off_c, 6, 81, 64
8, 94950, Note_on_c, 6, 79, 105
8, 94980, Note_off_c, 6, 79, 64
8, 94980, Note_on_c, 6, 78, 105
8, 95010, Note_off_c, 6, 78, 64
8, 95010, Note_on_c, 6, 79, 105
8, 95034, Note_off_c, 6, 79, 64
8, 95040, Note_on_c, 6, 76, 105
8, 95360, Note_off_c, 6, 76, 64
8, 95360, Note_on_c, 6, 77, 105
8, 95400, Note_off_c, 6, 77, 64
8, 95400, Note_on_c, 6, 79, 105
8, 95440, Note_off_c, 6, 79, 64
8, 95440, Note_on_c, 6, 81, 105
8, 95480, Note_off_c, 6, 81, 64
8, 95480, Note_on_c, 6, 83, 105
8, 95520, Note_off_c, 6, 83, 64
8, 95520, Note_on_c, 6, 84, 105
8, 95664, Note_off_c, 6, 84, 64
8, 95760, Note_on_c, 6, 76, 105
8, 95904, Note_off_c, 6, 76, 64
8, 96000, Note_on_c, 6, 74, 105
8, 96144, Note_off_c, 6, 74, 64
8, 96240, Note_on_c, 6, 81, 105
8, 96240, Note_on_c, 6, 69, 105
8, 96384, Note_off_c, 6, 69, 64
8, 96384, Note_off_c, 6, 81, 64
8, 97680, Note_on_c, 6, 63, 72
8, 97920, Note_off_c, 6, 63, 64
8, 97920, Note_on_c, 6, 62, 72
8, 98064, Note_off_c, 6, 62, 64
8, 98160, Note_on_c, 6, 72, 58
8, 98304, Note_off_c, 6, 72, 64
8, 100320, Note_on_c, 6, 66, 58
8, 100560, Note_off_c, 6, 66, 64
8, 100560, Note_on_c, 6, 67, 58
8, 100656, Note_off_c, 6, 67, 64
8, 100800, Note_on_c, 6, 68, 58
8, 101040, Note_off_c, 6, 68, 64
8, 101040, Note_on_c, 6, 69, 58
8, 101136, Note_off_c, 6, 69, 64
8, 101280, Note_on_c, 6, 69, 58
8, 101520, Note_off_c, 6, 69, 64
8, 101520, Note_on_c, 6, 66, 58
8, 101616, Note_off_c, 6, 66, 64
8, 101760, Note_on_c, 6, 67, 105
8, 101760, Note_on_c, 6, 55, 105
8, 102048, Note_off_c, 6, 55, 64
8, 102048, Note_off_c, 6, 67, 64
8, 102120, Note_on_c, 6, 71, 105
8, 102180, Note_off_c, 6, 71, 64
8, 102180, Note_on_c, 6, 74, 105
8, 102228, Note_off_c, 6, 74, 64
8, 102240, Note_on_c, 6, 79, 105
8, 102324, Note_off_c, 6, 79, 64
8, 102360, Note_on_c, 6, 78, 105
8, 102444, Note_off_c, 6, 78, 64
8, 102480, Note_on_c, 6, 79, 105
8, 102564, Note_off_c, 6, 79, 64
8, 102600, Note_on_c, 6, 81, 105
8, 102684, Note_off_c, 6, 81, 64
8, 102720, Note_on_c, 6, 83, 105
8, 103008, Note_off_c, 6, 83, 64
8, 103080, Note_on_c, 6, 82, 105
8, 103164, Note_off_c, 6, 82, 64
8, 103200, Note_on_c, 6, 83, 105
8, 103284, Note_off_c, 6, 83, 64
8, 103320, Note_on_c, 6, 82, 105
8, 103404, Note_off_c, 6, 82, 64
8, 103440, Note_on_c, 6, 83, 105
8, 103524, Note_off_c, 6, 83, 64
8, 103560, Note_on_c, 6, 82, 105
8, 103644, Note_off_c, 6, 82, 64
8, 103680, Note_on_c, 6, 83, 105
8, 103764, Note_off_c, 6, 83, 64
8, 103800, Note_on_c, 6, 83, 105
8, 103884, Note_off_c, 6, 83, 64
8, 103920, Note_on_c, 6, 79, 105
8, 104004, Note_off_c, 6, 79, 64
8, 104040, Note_on_c, 6, 79, 105
8, 104124, Note_off_c, 6, 79, 64
8, 104160, Note_on_c, 6, 81, 105
8, 104244, Note_off_c, 6, 81, 64
8, 104280, Note_on_c, 6, 81, 105
8, 104364, Note_off_c, 6, 81, 64
8, 104400, Note_on_c, 6, 78, 105
8, 104484, Note_off_c, 6, 78, 64
8, 104520, Note_on_c, 6, 78, 105
8, 104604, Note_off_c, 6, 78, 64
8, 104640, Note_on_c, 6, 79, 105
8, 104832, Note_off_c, 6, 79, 64
8, 105000, Note_on_c, 6, 74, 105
8, 105040, Note_off_c, 6, 74, 64
8, 105040, Note_on_c, 6, 76, 105
8, 105080, Note_off_c, 6, 76, 64
8, 105080, Note_on_c, 6, 78, 105
8, 105120, Note_off_c, 6, 78, 64
8, 105120, Note_on_c, 6, 79, 105
8, 105204, Note_off_c, 6, 79, 64
8, 105240, Note_on_c, 6, 78, 105
8, 105324, Note_off_c, 6, 78, 64
8, 105360, Note_on_c, 6, 79, 105
8, 105444, Note_off_c, 6, 79, 64
8, 105480, Note_on_c, 6, 81, 105
8, 105564, Note_off_c, 6, 81, 64
8, 105600, Note_on_c, 6, 83, 105
8, 105672, Note_off_c, 6, 83, 64
8, 105720, Note_on_c, 6, 83, 105
8, 105912, Note_off_c, 6, 83, 64
8, 105960, Note_on_c, 6, 82, 105
8, 106044, Note_off_c, 6, 82, 64
8, 106080, Note_on_c, 6, 83, 105
8, 106164, Note_off_c, 6, 83, 64
8, 106200, Note_on_c, 6, 82, 105
8, 106284, Note_off_c, 6, 82, 64
8, 106320, Note_on_c, 6, 83, 105
8, 106404, Note_off_c, 6, 83, 64
8, 106440, Note_on_c, 6, 82, 105
8, 106524, Note_off_c, 6, 82, 64
8, 106560, Note_on_c, 6, 83, 105
8, 106644, Note_off_c, 6, 83, 64
8, 106680, Note_on_c, 6, 83, 105
8, 106764, Note_off_c, 6, 83, 64
8, 106800, Note_on_c, 6, 79, 105
8, 106884, Note_off_c, 6, 79, 64
8, 106920, Note_on_c, 6, 79, 105
8, 107004, Note_off_c, 6, 79, 64
8, 107040, Note_on_c, 6, 81, 105
8, 107124, Note_off_c, 6, 81, 64
8, 107160, Note_on_c, 6, 81, 105
8, 107244, Note_off_c, 6, 81, 64
8, 107280, Note_on_c, 6, 78, 105
8, 107364, Note_off_c, 6, 78, 64
8, 107400, Note_on_c, 6, 78, 105
8, 107484, Note_off_c, 6, 78, 64
8, 107520, Note_on_c, 6, 83, 58
8, 107616, Note_off_c, 6, 83, 64
8, 107760, Note_on_c, 6, 79, 58
8, 107856, Note_off_c, 6, 79, 64
8, 108000, Note_on_c, 6, 81, 58
8, 108096, Note_off_c, 6, 81, 64
8, 108240, Note_on_c, 6, 78, 58
8, 108336, Note_off_c, 6, 78, 64
8, 108480, Note_on_c, 6, 83, 105
8, 108528, Note_off_c, 6, 83, 64
8, 108540, Note_on_c, 6, 83, 105
8, 108588, Note_off_c, 6, 83, 64
8, 108600, Note_on_c, 6, 83, 105
8, 108648, Note_off_c, 6, 83, 64
8, 108660, Note_on_c, 6, 83, 105
8, 108708, Note_off_c, 6, 83, 64
8, 108720, Note_on_c, 6, 79, 105
8, 108768, Note_off_c, 6, 79, 64
8, 108780, Note_on_c, 6, 79, 105
8, 108828, Note_off_c, 6, 79, 64
8, 108840, Note_on_c, 6, 79, 105
8, 108888, Note_off_c, 6, 79, 64
8, 108900, Note_on_c, 6, 79, 105
8, 108948, Note_off_c, 6, 79, 64
8, 108960, Note_on_c, 6, 81, 105
8, 109008, Note_off_c, 6, 81, 64
8, 109020, Note_on_c, 6, 81, 105
8, 109068, Note_off_c, 6, 81, 64
8, 109080, Note_on_c, 6, 81, 105
8, 109128, Note_off_c, 6, 81, 64
8, 109140, Note_on_c, 6, 81, 105
8, 109188, Note_off_c, 6, 81, 64
8, 109200, Note_on_c, 6, 78, 105
8, 109248, Note_off_c, 6, 78, 64
8, 109260, Note_on_c, 6, 78, 105
8, 109308, Note_off_c, 6, 78, 64
8, 109320, Note_on_c, 6, 78, 105
8, 109368, Note_off_c, 6, 78, 64
8, 109380, Note_on_c, 6, 78, 105
8, 109428, Note_off_c, 6, 78, 64
8, 109440, Note_on_c, 6, 79, 105
8, 109632, Note_off_c, 6, 79, 64
8, 113280, Note_on_c, 6, 60, 72
8, 113400, Note_off_c, 6, 60, 64
8, 113400, Note_on_c, 6, 55, 72
8, 113520, Note_off_c, 6, 55, 64
8, 113520, Note_on_c, 6, 60, 72
8, 113640, Note_off_c, 6, 60, 64
8, 113640, Note_on_c, 6, 55, 72
8, 113736, Note_off_c, 6, 55, 64
8, 113760, Note_on_c, 6, 60, 72
8, 113880, Note_off_c, 6, 60, 64
8, 113880, Note_on_c, 6, 55, 72
8, 114000, Note_off_c, 6, 55, 64
8, 114000, Note_on_c, 6, 60, 72
8, 114120, Note_off_c, 6, 60, 64
8, 114120, Note_on_c, 6, 55, 72
8, 114216, Note_off_c, 6, 55, 64
8, 114240, Note_on_c, 6, 62, 72
8, 114360, Note_off_c, 6, 62, 64
8, 114360, Note_on_c, 6, 60, 72
8, 114480, Note_off_c, 6, 60, 64
8, 114480, Note_on_c, 6, 62, 72
8, 114600, Note_off_c, 6, 62, 64
8, 114600, Note_on_c, 6, 55, 72
8, 114696, Note_off_c, 6, 55, 64
8, 114720, Note_on_c, 6, 62, 72
8, 114840, Note_off_c, 6, 62, 64
8, 114840, Note_on_c, 6, 60, 72
8, 114960, Note_off_c, 6, 60, 64
8, 114960, Note_on_c, 6, 62, 72
8, 115080, Note_off_c, 6, 62, 64
8, 115080, Note_on_c, 6, 55, 72
8, 115176, Note_off_c, 6, 55, 64
8, 115200, Note_on_c, 6, 64, 72
8, 115584, Note_off_c, 6, 64, 64
8, 115920, Note_on_c, 6, 64, 72
8, 116064, Note_off_c, 6, 64, 64
8, 116160, Note_on_c, 6, 65, 72
8, 116304, Note_off_c, 6, 65, 64
8, 116400, Note_on_c, 6, 64, 72
8, 116544, Note_off_c, 6, 64, 64
8, 117360, Note_on_c, 6, 60, 72
8, 117600, Note_off_c, 6, 60, 64
8, 117600, Note_on_c, 6, 69, 72
8, 117840, Note_off_c, 6, 69, 64
8, 117840, Note_on_c, 6, 65, 72
8, 118320, Note_off_c, 6, 65, 64
8, 118320, Note_on_c, 6, 64, 72
8, 118440, Note_off_c, 6, 64, 64
8, 118440, Note_on_c, 6, 62, 72
8, 118536, Note_off_c, 6, 62, 64
8, 118560, Note_on_c, 6, 65, 72
8, 118584, Note_off_c, 6, 65, 64
8, 118590, Note_on_c, 6, 64, 72
8, 118620, Note_off_c, 6, 64, 64
8, 118620, Note_on_c, 6, 65, 72
8, 118650, Note_off_c, 6, 65, 64
8, 118650, Note_on_c, 6, 64, 72
8, 118680, Note_off_c, 6, 64, 64
8, 118680, Note_on_c, 6, 65, 72
8, 118710, Note_off_c, 6, 65, 64
8, 118710, Note_on_c, 6, 64, 72
8, 118740, Note_off_c, 6, 64, 64
8, 118740, Note_on_c, 6, 65, 72
8, 118770, Note_off_c, 6, 65, 64
8, 118770, Note_on_c, 6, 64, 72
8, 118800, Note_off_c, 6, 64, 64
8, 118800, Note_on_c, 6, 65, 72
8, 118830, Note_off_c, 6, 65, 64
8, 118830, Note_on_c, 6, 64, 72
8, 118860, Note_off_c, 6, 64, 64
8, 118860, Note_on_c, 6, 65, 72
8, 118890, Note_off_c, 6, 65, 64
8, 118890, Note_on_c, 6, 64, 72
8, 118920, Note_off_c, 6, 64, 64
8, 118920, Note_on_c, 6, 62, 72
8, 118980, Note_off_c, 6, 62, 64
8, 118980, Note_on_c, 6, 64, 72
8, 119040, Note_off_c, 6, 64, 64
8, 119040, Note_on_c, 6, 65, 72
8, 119232, Note_off_c, 6, 65, 64
8, 119280, Note_on_c, 6, 67, 72
8, 119664, Note_off_c, 6, 67, 64
8, 119760, Note_on_c, 6, 67, 72
8, 119904, Note_off_c, 6, 67, 64
8, 120000, Note_on_c, 6, 67, 72
8, 121080, Note_off_c, 6, 67, 64
8, 121080, Note_on_c, 6, 65, 72
8, 121152, Note_off_c, 6, 65, 64
8, 121200, Note_on_c, 6, 64, 72
8, 121272, Note_off_c, 6, 64, 64
8, 121320, Note_on_c, 6, 65, 72
8, 121392, Note_off_c, 6, 65, 64
8, 121440, Note_on_c, 6, 64, 72
8, 121560, Note_off_c, 6, 64, 64
8, 121560, Note_on_c, 6, 62, 72
8, 121632, Note_off_c, 6, 62, 64
8, 121680, Note_on_c, 6, 61, 72
8, 121752, Note_off_c, 6, 61, 64
8, 121800, Note_on_c, 6, 62, 72
8, 121872, Note_off_c, 6, 62, 64
8, 121920, Note_on_c, 6, 60, 72
8, 122400, Note_off_c, 6, 60, 64
8, 122400, Note_on_c, 6, 59, 58
8, 122592, Note_off_c, 6, 59, 64
8, 122880, Note_on_c, 6, 72, 78
8, 123024, Note_off_c, 6, 72, 64
8, 123120, Note_on_c, 6, 60, 125
8, 123696, Note_off_c, 6, 60, 64
8, 123840, Note_on_c, 6, 74, 125
8, 123984, Note_off_c, 6, 74, 64
8, 124080, Note_on_c, 6, 62, 125
8, 124656, Note_off_c, 6, 62, 64
8, 124800, Note_on_c, 6, 76, 125
8, 125160, Note_off_c, 6, 76, 64
8, 125160, Note_on_c, 6, 77, 105
8, 125220, Note_off_c, 6, 77, 64
8, 125220, Note_on_c, 6, 74, 105
8, 125268, Note_off_c, 6, 74, 64
8, 125280, Note_on_c, 6, 76, 105
8, 125424, Note_off_c, 6, 76, 64
8, 125520, Note_on_c, 6, 76, 105
8, 125664, Note_off_c, 6, 76, 64
8, 125760, Note_on_c, 6, 72, 105
8, 125760, Note_on_c, 6, 77, 105
8, 125928, Note_off_c, 6, 77, 64
8, 125928, Note_off_c, 6, 72, 64
8, 126000, Note_on_c, 6, 76, 105
8, 126000, Note_on_c, 6, 72, 105
8, 126168, Note_off_c, 6, 72, 64
8, 126168, Note_off_c, 6, 76, 64
8, 126480, Note_on_c, 6, 76, 105
8, 126480, Note_on_c, 6, 72, 105
8, 126648, Note_off_c, 6, 72, 64
8, 126648, Note_off_c, 6, 76, 64
8, 126720, Note_on_c, 6, 72, 105
8, 126720, Note_on_c, 6, 77, 105
8, 126888, Note_off_c, 6, 77, 64
8, 126888, Note_off_c, 6, 72, 64
8, 126960, Note_on_c, 6, 76, 105
8, 126960, Note_on_c, 6, 72, 105
8, 127128, Note_off_c, 6, 72, 64
8, 127128, Note_off_c, 6, 76, 64
8, 127440, Note_on_c, 6, 76, 105
8, 127440, Note_on_c, 6, 72, 105
8, 127608, Note_off_c, 6, 72, 64
8, 127608, Note_off_c, 6, 76, 64
8, 127680, Note_on_c, 6, 77, 105
8, 127680, Note_on_c, 6, 72, 105
8, 127848, Note_off_c, 6, 72, 64
8, 127848, Note_off_c, 6, 77, 64
8, 127920, Note_on_c, 6, 72, 105
8, 127920, Note_on_c, 6, 76, 105
8, 128088, Note_off_c, 6, 76, 64
8, 128088, Note_off_c, 6, 72, 64
8, 128160, Note_on_c, 6, 77, 105
8, 128160, Note_on_c, 6, 72, 105
8, 128328, Note_off_c, 6, 72, 64
8, 128328, Note_off_c, 6, 77, 64
8, 128400, Note_on_c, 6, 72, 105
8, 128400, Note_on_c, 6, 76, 105
8, 128568, Note_off_c, 6, 76, 64
8, 128568, Note_off_c, 6, 72, 64
8, 128640, Note_on_c, 6, 72, 105
8, 128640, Note_on_c, 6, 77, 105
8, 128808, Note_off_c, 6, 77, 64
8, 128808, Note_off_c, 6, 72, 64
8, 128880, Note_on_c, 6, 76, 105
8, 128880, Note_on_c, 6, 72, 105
8, 129048, Note_off_c, 6, 72, 64
8, 129048, Note_off_c, 6, 76, 64
8, 129720, Note_on_c, 6, 72, 72
8, 129840, Note_off_c, 6, 72, 64
8, 129840, Note_on_c, 6, 74, 72
8, 129960, Note_off_c, 6, 74, 64
8, 129960, Note_on_c, 6, 76, 72
8, 130080, Note_off_c, 6, 76, 64
8, 130080, Note_on_c, 6, 77, 72
8, 130200, Note_off_c, 6, 77, 64
8, 130200, Note_on_c, 6, 79, 72
8, 130320, Note_off_c, 6, 79, 64
8, 130320, Note_on_c, 6, 81, 72
8, 130440, Note_off_c, 6, 81, 64
8, 130440, Note_on_c, 6, 77, 72
8, 130536, Note_off_c, 6, 77, 64
8, 130560, Note_on_c, 6, 76, 72
8, 130680, Note_off_c, 6, 76, 64
8, 130680, Note_on_c, 6, 74, 72
8, 130800, Note_off_c, 6, 74, 64
8, 130800, Note_on_c, 6, 72, 72
8, 130920, Note_off_c, 6, 72, 64
8, 130920, Note_on_c, 6, 70, 72
8, 131040, Note_off_c, 6, 70, 64
8, 131040, Note_on_c, 6, 69, 72
8, 131160, Note_off_c, 6, 69, 64
8, 131160, Note_on_c, 6, 67, 72
8, 131280, Note_off_c, 6, 67, 64
8, 131280, Note_on_c, 6, 65, 72
8, 131400, Note_off_c, 6, 65, 64
8, 131400, Note_on_c, 6, 64, 72
8, 131496, Note_off_c, 6, 64, 64
8, 131520, Note_on_c, 6, 64, 72
8, 131640, Note_off_c, 6, 64, 64
8, 131640, Note_on_c, 6, 65, 72
8, 131760, Note_off_c, 6, 65, 64
8, 131760, Note_on_c, 6, 69, 72
8, 131880, Note_off_c, 6, 69, 64
8, 131880, Note_on_c, 6, 65, 72
8, 131976, Note_off_c, 6, 65, 64
8, 132000, Note_on_c, 6, 68, 72
8, 132120, Note_off_c, 6, 68, 64
8, 132120, Note_on_c, 6, 69, 72
8, 132240, Note_off_c, 6, 69, 64
8, 132240, Note_on_c, 6, 72, 72
8, 132360, Note_off_c, 6, 72, 64
8, 132360, Note_on_c, 6, 69, 72
8, 132456, Note_off_c, 6, 69, 64
8, 132480, Note_on_c, 6, 67, 72
8, 132600, Note_off_c, 6, 67, 64
8, 132600, Note_on_c, 6, 65, 72
8, 132720, Note_off_c, 6, 65, 64
8, 132720, Note_on_c, 6, 62, 72
8, 132840, Note_off_c, 6, 62, 64
8, 132840, Note_on_c, 6, 61, 72
8, 132936, Note_off_c, 6, 61, 64
8, 132960, Note_on_c, 6, 64, 72
8, 133080, Note_off_c, 6, 64, 64
8, 133080, Note_on_c, 6, 62, 72
8, 133200, Note_off_c, 6, 62, 64
8, 133200, Note_on_c, 6, 67, 72
8, 133320, Note_off_c, 6, 67, 64
8, 133320, Note_on_c, 6, 65, 72
8, 133416, Note_off_c, 6, 65, 64
8, 133440, Note_on_c, 6, 64, 72
8, 133560, Note_off_c, 6, 64, 64
8, 133560, Note_on_c, 6, 67, 72
8, 133680, Note_off_c, 6, 67, 64
8, 133680, Note_on_c, 6, 64, 72
8, 133800, Note_off_c, 6, 64, 64
8, 133800, Note_on_c, 6, 67, 72
8, 133896, Note_off_c, 6, 67, 64
8, 133920, Note_on_c, 6, 64, 72
8, 134040, Note_off_c, 6, 64, 64
8, 134040, Note_on_c, 6, 67, 72
8, 134160, Note_off_c, 6, 67, 64
8, 134160, Note_on_c, 6, 65, 72
8, 134280, Note_off_c, 6, 65, 64
8, 134280, Note_on_c, 6, 62, 72
8, 134376, Note_off_c, 6, 62, 64
8, 134400, Note_on_c, 6, 64, 92
8, 134592, Note_off_c, 6, 64, 64
8, 135360, Note_on_c, 6, 79, 92
8, 135528, Note_off_c, 6, 79, 64
8, 135600, Note_on_c, 6, 79, 105
8, 135726, Note_off_c, 6, 79, 64
8, 135780, Note_on_c, 6, 79, 105
8, 135822, Note_off_c, 6, 79, 64
8, 135840, Note_on_c, 6, 79, 105
8, 136008, Note_off_c, 6, 79, 64
8, 136080, Note_on_c, 6, 79, 105
8, 136248, Note_off_c, 6, 79, 64
8, 136320, Note_on_c, 6, 84, 105
8, 136704, Note_off_c, 6, 84, 64
8, 136800, Note_on_c, 6, 76, 105
8, 137184, Note_off_c, 6, 76, 64
8, 137280, Note_on_c, 6, 74, 105
8, 137640, Note_off_c, 6, 74, 64
8, 137640, Note_on_c, 6, 77, 105
8, 137700, Note_off_c, 6, 77, 64
8, 137700, Note_on_c, 6, 81, 105
8, 137748, Note_off_c, 6, 81, 64
8, 137760, Note_on_c, 6, 72, 105
8, 138000, Note_off_c, 6, 72, 64
8, 138000, Note_on_c, 6, 71, 105
8, 138228, Note_off_c, 6, 71, 64
8, 138240, Note_on_c, 6, 72, 105
8, 138432, Note_off_c, 6, 72, 64
8, 139200, Note_on_c, 6, 79, 105
8, 139368, Note_off_c, 6, 79, 64
8, 139440, Note_on_c, 6, 79, 105
8, 139566, Note_off_c, 6, 79, 64
8, 139620, Note_on_c, 6, 79, 105
8, 139662, Note_off_c, 6, 79, 64
8, 139680, Note_on_c, 6, 79, 105
8, 139848, Note_off_c, 6, 79, 64
8, 139920, Note_on_c, 6, 79, 105
8, 140088, Note_off_c, 6, 79, 64
8, 140160, Note_on_c, 6, 84, 105
8, 140544, Note_off_c, 6, 84, 64
8, 140640, Note_on_c, 6, 76, 105
8, 141024, Note_off_c, 6, 76, 64
8, 141120, Note_on_c, 6, 74, 105
8, 141288, Note_off_c, 6, 74, 64
8, 141360, Note_on_c, 6, 74, 105
8, 141486, Note_off_c, 6, 74, 64
8, 141540, Note_on_c, 6, 74, 105
8, 141582, Note_off_c, 6, 74, 64
8, 141600, Note_on_c, 6, 74, 105
8, 141768, Note_off_c, 6, 74, 64
8, 141840, Note_on_c, 6, 74, 105
8, 142008, Note_off_c, 6, 74, 64
8, 142080, Note_on_c, 6, 83, 105
8, 142464, Note_off_c, 6, 83, 64
8, 142560, Note_on_c, 6, 74, 105
8, 142944, Note_off_c, 6, 74, 64
8, 143040, Note_on_c, 6, 72, 105
8, 143208, Note_off_c, 6, 72, 64
8, 143280, Note_on_c, 6, 72, 105
8, 143406, Note_off_c, 6, 72, 64
8, 143460, Note_on_c, 6, 72, 105
8, 143502, Note_off_c, 6, 72, 64
8, 143520, Note_on_c, 6, 72, 105
8, 143688, Note_off_c, 6, 72, 64
8, 143760, Note_on_c, 6, 72, 105
8, 143928, Note_off_c, 6, 72, 64
8, 144000, Note_on_c, 6, 84, 105
8, 144384, Note_off_c, 6, 84, 64
8, 144480, Note_on_c, 6, 72, 105
8, 144864, Note_off_c, 6, 72, 64
8, 144960, Note_on_c, 6, 67, 105
8, 145044, Note_off_c, 6, 67, 64
8, 145080, Note_on_c, 6, 86, 105
8, 145164, Note_off_c, 6, 86, 64
8, 145200, Note_on_c, 6, 86, 105
8, 145284, Note_off_c, 6, 86, 64
8, 145320, Note_on_c, 6, 86, 105
8, 145404, Note_off_c, 6, 86, 64
8, 145440, Note_on_c, 6, 86, 105
8, 145608, Note_off_c, 6, 86, 64
8, 145680, Note_on_c, 6, 79, 105
8, 145848, Note_off_c, 6, 79, 64
8, 145920, Note_on_c, 6, 78, 105
8, 146088, Note_off_c, 6, 78, 64
8, 146160, Note_on_c, 6, 79, 105
8, 146328, Note_off_c, 6, 79, 64
8, 146400, Note_on_c, 6, 81, 105
8, 146760, Note_off_c, 6, 81, 64
8, 146760, Note_on_c, 6, 83, 105
8, 146820, Note_off_c, 6, 83, 64
8, 146820, Note_on_c, 6, 84, 105
8, 146862, Note_off_c, 6, 84, 64
8, 146880, Note_on_c, 6, 83, 105
8, 147000, Note_off_c, 6, 83, 64
8, 147000, Note_on_c, 6, 79, 105
8, 147084, Note_off_c, 6, 79, 64
8, 147120, Note_on_c, 6, 86, 105
8, 147204, Note_off_c, 6, 86, 64
8, 147240, Note_on_c, 6, 86, 105
8, 147324, Note_off_c, 6, 86, 64
8, 147360, Note_on_c, 6, 86, 105
8, 147528, Note_off_c, 6, 86, 64
8, 147600, Note_on_c, 6, 79, 105
8, 147768, Note_off_c, 6, 79, 64
8, 147840, Note_on_c, 6, 78, 105
8, 148008, Note_off_c, 6, 78, 64
8, 148080, Note_on_c, 6, 79, 105
8, 148248, Note_off_c, 6, 79, 64
8, 148320, Note_on_c, 6, 81, 105
8, 148680, Note_off_c, 6, 81, 64
8, 148680, Note_on_c, 6, 83, 105
8, 148740, Note_off_c, 6, 83, 64
8, 148740, Note_on_c, 6, 84, 105
8, 148782, Note_off_c, 6, 84, 64
8, 148800, Note_on_c, 6, 83, 105
8, 148944, Note_off_c, 6, 83, 64
8, 149040, Note_on_c, 6, 74, 105
8, 149280, Note_off_c, 6, 74, 64
8, 149280, Note_on_c, 6, 72, 105
8, 149520, Note_off_c, 6, 72, 64
8, 149520, Note_on_c, 6, 71, 105
8, 149712, Note_off_c, 6, 71, 64
8, 149760, Note_on_c, 6, 71, 105
8, 149820, Note_off_c, 6, 71, 64
8, 149820, Note_on_c, 6, 69, 105
8, 149964, Note_off_c, 6, 69, 64
8, 150000, Note_on_c, 6, 69, 105
8, 150480, Note_off_c, 6, 69, 64
8, 150480, Note_on_c, 6, 68, 72
8, 150672, Note_off_c, 6, 68, 64
8, 150720, Note_on_c, 6, 71, 72
8, 150780, Note_off_c, 6, 71, 64
8, 150780, Note_on_c, 6, 69, 105
8, 150924, Note_off_c, 6, 69, 64
8, 150960, Note_on_c, 6, 69, 72
8, 151440, Note_off_c, 6, 69, 64
8, 151440, Note_on_c, 6, 68, 72
8, 151632, Note_off_c, 6, 68, 64
8, 151680, Note_on_c, 6, 69, 105
8, 151752, Note_off_c, 6, 69, 64
8, 151800, Note_on_c, 6, 68, 105
8, 151872, Note_off_c, 6, 68, 64
8, 151920, Note_on_c, 6, 69, 105
8, 151992, Note_off_c, 6, 69, 64
8, 152040, Note_on_c, 6, 68, 105
8, 152112, Note_off_c, 6, 68, 64
8, 152160, Note_on_c, 6, 69, 105
8, 152232, Note_off_c, 6, 69, 64
8, 152280, Note_on_c, 6, 68, 105
8, 152352, Note_off_c, 6, 68, 64
8, 152400, Note_on_c, 6, 69, 105
8, 152472, Note_off_c, 6, 69, 64
8, 152520, Note_on_c, 6, 71, 105
8, 152592, Note_off_c, 6, 71, 64
8, 152640, Note_on_c, 6, 72, 105
8, 152712, Note_off_c, 6, 72, 64
8, 152760, Note_on_c, 6, 71, 105
8, 152832, Note_off_c, 6, 71, 64
8, 152880, Note_on_c, 6, 72, 105
8, 152952, Note_off_c, 6, 72, 64
8, 153000, Note_on_c, 6, 71, 105
8, 153072, Note_off_c, 6, 71, 64
8, 153120, Note_on_c, 6, 72, 105
8, 153192, Note_off_c, 6, 72, 64
8, 153240, Note_on_c, 6, 71, 105
8, 153312, Note_off_c, 6, 71, 64
8, 153360, Note_on_c, 6, 72, 105
8, 153432, Note_off_c, 6, 72, 64
8, 153480, Note_on_c, 6, 74, 105
8, 153552, Note_off_c, 6, 74, 64
8, 153600, Note_on_c, 6, 76, 105
8, 153792, Note_off_c, 6, 76, 64
8, 155520, Note_on_c, 6, 67, 58
8, 156480, Note_off_c, 6, 67, 64
8, 156480, Note_on_c, 6, 57, 58
8, 157584, Note_off_c, 6, 57, 64
8, 157680, Note_on_c, 6, 60, 72
8, 158160, Note_off_c, 6, 60, 64
8, 158160, Note_on_c, 6, 59, 72
8, 158352, Note_off_c, 6, 59, 64
8, 158400, Note_on_c, 6, 57, 72
8, 158544, Note_off_c, 6, 57, 64
8, 158640, Note_on_c, 6, 60, 72
8, 159120, Note_off_c, 6, 60, 64
8, 159120, Note_on_c, 6, 59, 72
8, 159312, Note_off_c, 6, 59, 64
8, 159360, Note_on_c, 6, 60, 72
8, 159480, Note_off_c, 6, 60, 64
8, 159480, Note_on_c, 6, 55, 72
8, 159552, Note_off_c, 6, 55, 64
8, 159600, Note_on_c, 6, 55, 72
8, 159672, Note_off_c, 6, 55, 64
8, 159720, Note_on_c, 6, 55, 72
8, 159792, Note_off_c, 6, 55, 64
8, 159840, Note_on_c, 6, 55, 72
8, 159912, Note_off_c, 6, 55, 64
8, 159960, Note_on_c, 6, 55, 72
8, 160032, Note_off_c, 6, 55, 64
8, 160080, Note_on_c, 6, 55, 72
8, 160152, Note_off_c, 6, 55, 64
8, 160200, Note_on_c, 6, 55, 72
8, 160272, Note_off_c, 6, 55, 64
8, 160320, Note_on_c, 6, 67, 72
8, 160440, Note_off_c, 6, 67, 64
8, 160440, Note_on_c, 6, 55, 72
8, 160512, Note_off_c, 6, 55, 64
8, 160560, Note_on_c, 6, 67, 72
8, 160632, Note_off_c, 6, 67, 64
8, 160680, Note_on_c, 6, 67, 72
8, 160752, Note_off_c, 6, 67, 64
8, 160800, Note_on_c, 6, 67, 72
8, 160920, Note_off_c, 6, 67, 64
8, 160920, Note_on_c, 6, 55, 72
8, 160992, Note_off_c, 6, 55, 64
8, 161040, Note_on_c, 6, 67, 72
8, 161112, Note_off_c, 6, 67, 64
8, 161160, Note_on_c, 6, 67, 72
8, 161232, Note_off_c, 6, 67, 64
8, 161280, Note_on_c, 6, 64, 72
8, 161472, Note_off_c, 6, 64, 64
8, 161760, Note_on_c, 6, 60, 72
8, 161952, Note_off_c, 6, 60, 64
8, 162240, Note_on_c, 6, 59, 72
8, 162432, Note_off_c, 6, 59, 64
8, 162720, Note_on_c, 6, 67, 105
8, 162720, Note_on_c, 6, 76, 105
8, 162720, Note_on_c, 6, 71, 105
8, 162864, Note_off_c, 6, 71, 64
8, 162864, Note_off_c, 6, 76, 64
8, 162864, Note_off_c, 6, 67, 64
8, 162960, Note_on_c, 6, 71, 105
8, 162960, Note_on_c, 6, 67, 105
8, 162960, Note_on_c, 6, 76, 105
8, 163104, Note_off_c, 6, 76, 64
8, 163104, Note_off_c, 6, 67, 64
8, 163104, Note_off_c, 6, 71, 64
8, 163200, Note_on_c, 6, 67, 105
8, 163200, Note_on_c, 6, 71, 105
8, 163200, Note_on_c, 6, 76, 105
8, 163584, Note_off_c, 6, 76, 64
8, 163584, Note_off_c, 6, 71, 64
8, 163584, Note_off_c, 6, 67, 64
8, 163680, Note_on_c, 6, 71, 105
8, 164064, Note_off_c, 6, 71, 64
8, 164160, Note_on_c, 6, 67, 105
8, 164316, Note_off_c, 6, 67, 64
8, 164400, Note_on_c, 6, 64, 105
8, 164556, Note_off_c, 6, 64, 64
8, 164640, Note_on_c, 6, 71, 105
8, 164796, Note_off_c, 6, 71, 64
8, 164880, Note_on_c, 6, 71, 105
8, 165036, Note_off_c, 6, 71, 64
8, 165120, Note_on_c, 6, 67, 105
8, 165276, Note_off_c, 6, 67, 64
8, 165360, Note_on_c, 6, 64, 105
8, 165516, Note_off_c, 6, 64, 64
8, 165600, Note_on_c, 6, 71, 105
8, 165756, Note_off_c, 6, 71, 64
8, 165840, Note_on_c, 6, 71, 105
8, 165996, Note_off_c, 6, 71, 64
8, 166080, Note_on_c, 6, 67, 105
8, 166236, Note_off_c, 6, 67, 64
8, 166320, Note_on_c, 6, 64, 105
8, 166476, Note_off_c, 6, 64, 64
8, 168120, Note_on_c, 6, 72, 105
8, 168192, Note_off_c, 6, 72, 64
8, 168240, Note_on_c, 6, 72, 72
8, 168312, Note_off_c, 6, 72, 64
8, 168360, Note_on_c, 6, 72, 72
8, 168432, Note_off_c, 6, 72, 64
8, 168480, Note_on_c, 6, 72, 72
8, 168600, Note_off_c, 6, 72, 64
8, 168600, Note_on_c, 6, 76, 72
8, 168672, Note_off_c, 6, 76, 64
8, 168720, Note_on_c, 6, 74, 72
8, 168792, Note_off_c, 6, 74, 64
8, 168840, Note_on_c, 6, 72, 72
8, 168912, Note_off_c, 6, 72, 64
8, 168960, Note_on_c, 6, 72, 72
8, 169080, Note_off_c, 6, 72, 64
8, 169080, Note_on_c, 6, 71, 72
8, 169152, Note_off_c, 6, 71, 64
8, 169200, Note_on_c, 6, 67, 72
8, 169272, Note_off_c, 6, 67, 64
8, 169320, Note_on_c, 6, 71, 72
8, 169392, Note_off_c, 6, 71, 64
8, 169440, Note_on_c, 6, 71, 72
8, 169560, Note_off_c, 6, 71, 64
8, 169560, Note_on_c, 6, 69, 72
8, 169632, Note_off_c, 6, 69, 64
8, 169680, Note_on_c, 6, 67, 72
8, 169752, Note_off_c, 6, 67, 64
8, 169800, Note_on_c, 6, 66, 72
8, 169872, Note_off_c, 6, 66, 64
8, 169920, Note_on_c, 6, 67, 58
8, 170112, Note_off_c, 6, 67, 64
8, 170880, Note_on_c, 6, 59, 58
8, 172032, Note_off_c, 6, 59, 64
8, 172440, Note_on_c, 6, 59, 58
8, 172560, Note_off_c, 6, 59, 64
8, 172560, Note_on_c, 6, 61, 58
8, 172680, Note_off_c, 6, 61, 64
8, 172680, Note_on_c, 6, 63, 58
8, 172800, Note_off_c, 6, 63, 64
8, 172800, Note_on_c, 6, 64, 58
8, 172992, Note_off_c, 6, 64, 64
8, 173400, Note_on_c, 6, 59, 58
8, 173520, Note_off_c, 6, 59, 64
8, 173520, Note_on_c, 6, 61, 58
8, 173640, Note_off_c, 6, 61, 64
8, 173640, Note_on_c, 6, 63, 58
8, 173760, Note_off_c, 6, 63, 64
8, 173760, Note_on_c, 6, 64, 58
8, 173952, Note_off_c, 6, 64, 64
8, 174240, Note_on_c, 6, 67, 105
8, 174240, Note_on_c, 6, 84, 105
8, 174240, Note_on_c, 6, 76, 105
8, 174384, Note_off_c, 6, 76, 64
8, 174384, Note_off_c, 6, 84, 64
8, 174384, Note_off_c, 6, 67, 64
8, 174480, Note_on_c, 6, 67, 105
8, 174480, Note_on_c, 6, 84, 105
8, 174480, Note_on_c, 6, 76, 105
8, 174624, Note_off_c, 6, 76, 64
8, 174624, Note_off_c, 6, 84, 64
8, 174624, Note_off_c, 6, 67, 64
8, 174720, Note_on_c, 6, 84, 105
8, 174720, Note_on_c, 6, 67, 105
8, 174720, Note_on_c, 6, 76, 105
8, 175104, Note_off_c, 6, 76, 64
8, 175104, Note_off_c, 6, 67, 64
8, 175104, Note_off_c, 6, 84, 64
8, 175200, Note_on_c, 6, 79, 105
8, 175584, Note_off_c, 6, 79, 64
8, 175680, Note_on_c, 6, 72, 105
8, 175710, Note_off_c, 6, 72, 64
8, 175710, Note_on_c, 6, 74, 105
8, 175740, Note_off_c, 6, 74, 64
8, 175740, Note_on_c, 6, 76, 105
8, 175884, Note_off_c, 6, 76, 64
8, 175920, Note_on_c, 6, 76, 105
8, 175992, Note_off_c, 6, 76, 64
8, 176040, Note_on_c, 6, 76, 105
8, 176112, Note_off_c, 6, 76, 64
8, 176160, Note_on_c, 6, 76, 105
8, 176280, Note_off_c, 6, 76, 64
8, 176280, Note_on_c, 6, 72, 105
8, 176352, Note_off_c, 6, 72, 64
8, 176400, Note_on_c, 6, 72, 105
8, 176520, Note_off_c, 6, 72, 64
8, 176520, Note_on_c, 6, 69, 105
8, 176592, Note_off_c, 6, 69, 64
8, 176640, Note_on_c, 6, 67, 105
8, 176670, Note_off_c, 6, 67, 64
8, 176670, Note_on_c, 6, 69, 105
8, 176700, Note_off_c, 6, 69, 64
8, 176700, Note_on_c, 6, 71, 105
8, 176844, Note_off_c, 6, 71, 64
8, 176880, Note_on_c, 6, 71, 105
8, 176952, Note_off_c, 6, 71, 64
8, 177000, Note_on_c, 6, 71, 105
8, 177072, Note_off_c, 6, 71, 64
8, 177120, Note_on_c, 6, 71, 105
8, 177240, Note_off_c, 6, 71, 64
8, 177240, Note_on_c, 6, 67, 105
8, 177312, Note_off_c, 6, 67, 64
8, 177360, Note_on_c, 6, 69, 105
8, 177480, Note_off_c, 6, 69, 64
8, 177480, Note_on_c, 6, 66, 105
8, 177552, Note_off_c, 6, 66, 64
8, 177600, Note_on_c, 6, 67, 105
8, 177792, Note_off_c, 6, 67, 64
8, 177960, Note_on_c, 6, 62, 105
8, 178044, Note_off_c, 6, 62, 64
8, 178080, Note_on_c, 6, 64, 105
8, 178164, Note_off_c, 6, 64, 64
8, 178200, Note_on_c, 6, 60, 105
8, 178284, Note_off_c, 6, 60, 64
8, 178320, Note_on_c, 6, 66, 105
8, 178404, Note_off_c, 6, 66, 64
8, 178440, Note_on_c, 6, 62, 105
8, 178524, Note_off_c, 6, 62, 64
8, 178560, Note_on_c, 6, 67, 105
8, 178644, Note_off_c, 6, 67, 64
8, 178680, Note_on_c, 6, 64, 105
8, 178764, Note_off_c, 6, 64, 64
8, 178800, Note_on_c, 6, 69, 105
8, 178884, Note_off_c, 6, 69, 64
8, 178920, Note_on_c, 6, 66, 105
8, 179004, Note_off_c, 6, 66, 64
8, 179040, Note_on_c, 6, 71, 105
8, 179124, Note_off_c, 6, 71, 64
8, 179160, Note_on_c, 6, 67, 105
8, 179244, Note_off_c, 6, 67, 64
8, 179280, Note_on_c, 6, 72, 105
8, 179364, Note_off_c, 6, 72, 64
8, 179400, Note_on_c, 6, 69, 105
8, 179484, Note_off_c, 6, 69, 64
8, 179520, Note_on_c, 6, 67, 105
8, 179568, Note_off_c, 6, 67, 64
8, 179580, Note_on_c, 6, 67, 105
8, 179628, Note_off_c, 6, 67, 64
8, 179640, Note_on_c, 6, 67, 105
8, 179688, Note_off_c, 6, 67, 64
8, 179700, Note_on_c, 6, 67, 105
8, 179748, Note_off_c, 6, 67, 64
8, 179760, Note_on_c, 6, 71, 105
8, 179808, Note_off_c, 6, 71, 64
8, 179820, Note_on_c, 6, 71, 105
8, 179868, Note_off_c, 6, 71, 64
8, 179880, Note_on_c, 6, 71, 105
8, 179928, Note_off_c, 6, 71, 64
8, 179940, Note_on_c, 6, 71, 105
8, 179988, Note_off_c, 6, 71, 64
8, 180000, Note_on_c, 6, 69, 105
8, 180048, Note_off_c, 6, 69, 64
8, 180060, Note_on_c, 6, 69, 105
8, 180108, Note_off_c, 6, 69, 64
8, 180120, Note_on_c, 6, 69, 105
8, 180168, Note_off_c, 6, 69, 64
8, 180180, Note_on_c, 6, 69, 105
8, 180228, Note_off_c, 6, 69, 64
8, 180240, Note_on_c, 6, 81, 105
8, 180288, Note_off_c, 6, 81, 64
8, 180300, Note_on_c, 6, 81, 105
8, 180348, Note_off_c, 6, 81, 64
8, 180360, Note_on_c, 6, 81, 105
8, 180408, Note_off_c, 6, 81, 64
8, 180420, Note_on_c, 6, 81, 105
8, 180468, Note_off_c, 6, 81, 64
8, 180480, Note_on_c, 6, 79, 105
8, 180624, Note_off_c, 6, 79, 64
8, 180720, Note_on_c, 6, 72, 105
8, 180750, Note_off_c, 6, 72, 64
8, 180750, Note_on_c, 6, 71, 105
8, 180780, Note_off_c, 6, 71, 64
8, 180780, Note_on_c, 6, 72, 105
8, 180810, Note_off_c, 6, 72, 64
8, 180810, Note_on_c, 6, 71, 105
8, 180840, Note_off_c, 6, 71, 64
8, 180840, Note_on_c, 6, 72, 105
8, 180870, Note_off_c, 6, 72, 64
8, 180870, Note_on_c, 6, 71, 105
8, 180900, Note_off_c, 6, 71, 64
8, 180900, Note_on_c, 6, 69, 105
8, 180930, Note_off_c, 6, 69, 64
8, 180930, Note_on_c, 6, 71, 105
8, 180960, Note_off_c, 6, 71, 64
8, 180960, Note_on_c, 6, 72, 105
8, 181104, Note_off_c, 6, 72, 64
8, 181200, Note_on_c, 6, 62, 105
8, 181200, Note_on_c, 6, 69, 105
8, 181200, Note_on_c, 6, 78, 105
8, 181344, Note_off_c, 6, 78, 64
8, 181344, Note_off_c, 6, 69, 64
8, 181344, Note_off_c, 6, 62, 64
8, 181440, Note_on_c, 6, 79, 105
8, 181440, Note_on_c, 6, 71, 105
8, 181440, Note_on_c, 6, 62, 105
8, 181632, Note_off_c, 6, 62, 64
8, 181632, Note_off_c, 6, 71, 64
8, 181632, Note_off_c, 6, 79, 64
8, 181800, Note_on_c, 6, 74, 105
8, 181884, Note_off_c, 6, 74, 64
8, 181920, Note_on_c, 6, 64, 105
8, 182004, Note_off_c, 6, 64, 64
8, 182040, Note_on_c, 6, 76, 105
8, 182124, Note_off_c, 6, 76, 64
8, 182160, Note_on_c, 6, 66, 105
8, 182244, Note_off_c, 6, 66, 64
8, 182280, Note_on_c, 6, 78, 105
8, 182364, Note_off_c, 6, 78, 64
8, 182400, Note_on_c, 6, 67, 105
8, 182484, Note_off_c, 6, 67, 64
8, 182520, Note_on_c, 6, 79, 105
8, 182604, Note_off_c, 6, 79, 64
8, 182640, Note_on_c, 6, 69, 105
8, 182724, Note_off_c, 6, 69, 64
8, 182760, Note_on_c, 6, 81, 105
8, 182844, Note_off_c, 6, 81, 64
8, 182880, Note_on_c, 6, 71, 105
8, 182964, Note_off_c, 6, 71, 64
8, 183000, Note_on_c, 6, 83, 105
8, 183084, Note_off_c, 6, 83, 64
8, 183120, Note_on_c, 6, 72, 105
8, 183204, Note_off_c, 6, 72, 64
8, 183240, Note_on_c, 6, 84, 105
8, 183324, Note_off_c, 6, 84, 64
8, 183360, Note_on_c, 6, 74, 105
8, 183408, Note_off_c, 6, 74, 64
8, 183420, Note_on_c, 6, 74, 105
8, 183468, Note_off_c, 6, 74, 64
8, 183480, Note_on_c, 6, 74, 105
8, 183528, Note_off_c, 6, 74, 64
8, 183540, Note_on_c, 6, 74, 105
8, 183588, Note_off_c, 6, 74, 64
8, 183600, Note_on_c, 6, 71, 105
8, 183648, Note_off_c, 6, 71, 64
8, 183660, Note_on_c, 6, 71, 105
8, 183708, Note_off_c, 6, 71, 64
8, 183720, Note_on_c, 6, 71, 105
8, 183768, Note_off_c, 6, 71, 64
8, 183780, Note_on_c, 6, 71, 105
8, 183828, Note_off_c, 6, 71, 64
8, 183840, Note_on_c, 6, 72, 105
8, 183888, Note_off_c, 6, 72, 64
8, 183900, Note_on_c, 6, 72, 105
8, 183948, Note_off_c, 6, 72, 64
8, 183960, Note_on_c, 6, 72, 105
8, 184008, Note_off_c, 6, 72, 64
8, 184020, Note_on_c, 6, 72, 105
8, 184068, Note_off_c, 6, 72, 64
8, 184080, Note_on_c, 6, 69, 105
8, 184128, Note_off_c, 6, 69, 64
8, 184140, Note_on_c, 6, 69, 105
8, 184188, Note_off_c, 6, 69, 64
8, 184200, Note_on_c, 6, 69, 105
8, 184248, Note_off_c, 6, 69, 64
8, 184260, Note_on_c, 6, 69, 105
8, 184308, Note_off_c, 6, 69, 64
8, 184320, Note_on_c, 6, 71, 105
8, 184488, Note_off_c, 6, 71, 64
8, 184560, Note_on_c, 6, 74, 105
8, 184728, Note_off_c, 6, 74, 64
8, 184800, Note_on_c, 6, 76, 105
8, 184968, Note_off_c, 6, 76, 64
8, 185040, Note_on_c, 6, 72, 105
8, 185040, Note_on_c, 6, 62, 105
8, 185208, Note_off_c, 6, 62, 64
8, 185208, Note_off_c, 6, 72, 64
8, 185280, Note_on_c, 6, 62, 105
8, 185280, Note_on_c, 6, 71, 105
8, 185364, Note_off_c, 6, 71, 64
8, 185364, Note_off_c, 6, 62, 64
8, 185400, Note_on_c, 6, 71, 105
8, 185400, Note_on_c, 6, 62, 105
8, 185484, Note_off_c, 6, 62, 64
8, 185484, Note_off_c, 6, 71, 64
8, 185520, Note_on_c, 6, 71, 105
8, 185520, Note_on_c, 6, 62, 105
8, 185604, Note_off_c, 6, 62, 64
8, 185604, Note_off_c, 6, 71, 64
8, 185640, Note_on_c, 6, 62, 105
8, 185640, Note_on_c, 6, 71, 105
8, 185724, Note_off_c, 6, 71, 64
8, 185724, Note_off_c, 6, 62, 64
8, 185760, Note_on_c, 6, 62, 105
8, 185760, Note_on_c, 6, 71, 105
8, 185952, Note_off_c, 6, 71, 64
8, 185952, Note_off_c, 6, 62, 64
8, 186240, Note_on_c, 6, 79, 105
8, 186240, Note_on_c, 6, 71, 105
8, 186324, Note_off_c, 6, 71, 64
8, 186324, Note_off_c, 6, 79, 64
8, 186360, Note_on_c, 6, 79, 105
8, 186360, Note_on_c, 6, 71, 105
8, 186444, Note_off_c, 6, 71, 64
8, 186444, Note_off_c, 6, 79, 64
8, 186480, Note_on_c, 6, 79, 105
8, 186480, Note_on_c, 6, 71, 105
8, 186564, Note_off_c, 6, 71, 64
8, 186564, Note_off_c, 6, 79, 64
8, 186600, Note_on_c, 6, 79, 105
8, 186600, Note_on_c, 6, 71, 105
8, 186684, Note_off_c, 6, 71, 64
8, 186684, Note_off_c, 6, 79, 64
8, 186720, Note_on_c, 6, 79, 105
8, 186720, Note_on_c, 6, 71, 105
8, 186912, Note_off_c, 6, 71, 64
8, 186912, Note_off_c, 6, 79, 64
8, 187200, Note_on_c, 6, 74, 105
8, 187200, Note_on_c, 6, 79, 105
8, 187284, Note_off_c, 6, 79, 64
8, 187284, Note_off_c, 6, 74, 64
8, 187320, Note_on_c, 6, 74, 105
8, 187320, Note_on_c, 6, 79, 105
8, 187404, Note_off_c, 6, 79, 64
8, 187404, Note_off_c, 6, 74, 64
8, 187440, Note_on_c, 6, 79, 105
8, 187440, Note_on_c, 6, 74, 105
8, 187524, Note_off_c, 6, 74, 64
8, 187524, Note_off_c, 6, 79, 64
8, 187560, Note_on_c, 6, 79, 105
8, 187560, Note_on_c, 6, 74, 105
8, 187644, Note_off_c, 6, 74, 64
8, 187644, Note_off_c, 6, 79, 64
8, 187680, Note_on_c, 6, 79, 105
8, 187872, Note_off_c, 6, 79, 64
8, 187920, Note_on_c, 6, 81, 105
8, 187950, Note_off_c, 6, 81, 64
8, 187950, Note_on_c, 6, 79, 105
8, 187980, Note_off_c, 6, 79, 64
8, 187980, Note_on_c, 6, 81, 105
8, 188010, Note_off_c, 6, 81, 64
8, 188010, Note_on_c, 6, 79, 105
8, 188040, Note_off_c, 6, 79, 64
8, 188040, Note_on_c, 6, 81, 105
8, 188070, Note_off_c, 6, 81, 64
8, 188070, Note_on_c, 6, 79, 105
8, 188100, Note_off_c, 6, 79, 64
8, 188100, Note_on_c, 6, 78, 105
8, 188130, Note_off_c, 6, 78, 64
8, 188130, Note_on_c, 6, 79, 105
8, 188154, Note_off_c, 6, 79, 64
8, 188160, Note_on_c, 6, 76, 105
8, 188480, Note_off_c, 6, 76, 64
8, 188480, Note_on_c, 6, 77, 105
8, 188520, Note_off_c, 6, 77, 64
8, 188520, Note_on_c, 6, 79, 105
8, 188560, Note_off_c, 6, 79, 64
8, 188560, Note_on_c, 6, 81, 105
8, 188600, Note_off_c, 6, 81, 64
8, 188600, Note_on_c, 6, 83, 105
8, 188640, Note_off_c, 6, 83, 64
8, 188640, Note_on_c, 6, 84, 105
8, 188784, Note_off_c, 6, 84, 64
8, 188880, Note_on_c, 6, 76, 105
8, 189024, Note_off_c, 6, 76, 64
8, 189120, Note_on_c, 6, 74, 105
8, 189264, Note_off_c, 6, 74, 64
8, 189360, Note_on_c, 6, 69, 105
8, 189360, Note_on_c, 6, 81, 105
8, 189504, Note_off_c, 6, 81, 64
8, 189504, Note_off_c, 6, 69, 64
8, 189840, Note_on_c, 6, 74, 105
8, 190008, Note_off_c, 6, 74, 64
8, 190080, Note_on_c, 6, 74, 105
8, 190200, Note_off_c, 6, 74, 64
8, 190200, Note_on_c, 6, 72, 105
8, 190320, Note_off_c, 6, 72, 64
8, 190320, Note_on_c, 6, 71, 105
8, 190704, Note_off_c, 6, 71, 64
8, 190800, Note_on_c, 6, 69, 105
8, 190968, Note_off_c, 6, 69, 64
8, 191040, Note_on_c, 6, 62, 105
8, 191040, Note_on_c, 6, 71, 105
8, 191124, Note_off_c, 6, 71, 64
8, 191124, Note_off_c, 6, 62, 64
8, 191160, Note_on_c, 6, 62, 105
8, 191160, Note_on_c, 6, 71, 105
8, 191244, Note_off_c, 6, 71, 64
8, 191244, Note_off_c, 6, 62, 64
8, 191280, Note_on_c, 6, 71, 105
8, 191280, Note_on_c, 6, 62, 105
8, 191364, Note_off_c, 6, 62, 64
8, 191364, Note_off_c, 6, 71, 64
8, 191400, Note_on_c, 6, 62, 105
8, 191400, Note_on_c, 6, 71, 105
8, 191484, Note_off_c, 6, 71, 64
8, 191484, Note_off_c, 6, 62, 64
8, 191520, Note_on_c, 6, 62, 105
8, 191520, Note_on_c, 6, 71, 105
8, 191712, Note_off_c, 6, 71, 64
8, 191712, Note_off_c, 6, 62, 64
8, 192000, Note_on_c, 6, 79, 105
8, 192000, Note_on_c, 6, 71, 105
8, 192084, Note_off_c, 6, 71, 64
8, 192084, Note_off_c, 6, 79, 64
8, 192120, Note_on_c, 6, 79, 105
8, 192120, Note_on_c, 6, 71, 105
8, 192204, Note_off_c, 6, 71, 64
8, 192204, Note_off_c, 6, 79, 64
8, 192240, Note_on_c, 6, 79, 105
8, 192240, Note_on_c, 6, 71, 105
8, 192324, Note_off_c, 6, 71, 64
8, 192324, Note_off_c, 6, 79, 64
8, 192360, Note_on_c, 6, 79, 105
8, 192360, Note_on_c, 6, 71, 105
8, 192444, Note_off_c, 6, 71, 64
8, 192444, Note_off_c, 6, 79, 64
8, 192480, Note_on_c, 6, 79, 105
8, 192480, Note_on_c, 6, 71, 105
8, 192672, Note_off_c, 6, 71, 64
8, 192672, Note_off_c, 6, 79, 64
8, 192960, Note_on_c, 6, 74, 105
8, 192960, Note_on_c, 6, 79, 105
8, 193044, Note_off_c, 6, 79, 64
8, 193044, Note_off_c, 6, 74, 64
8, 193080, Note_on_c, 6, 79, 105
8, 193080, Note_on_c, 6, 74, 105
8, 193164, Note_off_c, 6, 74, 64
8, 193164, Note_off_c, 6, 79, 64
8, 193200, Note_on_c, 6, 74, 105
8, 193200, Note_on_c, 6, 79, 105
8, 193284, Note_off_c, 6, 79, 64
8, 193284, Note_off_c, 6, 74, 64
8, 193320, Note_on_c, 6, 74, 105
8, 193320, Note_on_c, 6, 79, 105
8, 193404, Note_off_c, 6, 79, 64
8, 193404, Note_off_c, 6, 74, 64
8, 193440, Note_on_c, 6, 79, 105
8, 193632, Note_off_c, 6, 79, 64
8, 193680, Note_on_c, 6, 81, 105
8, 193710, Note_off_c, 6, 81, 64
8, 193710, Note_on_c, 6, 79, 105
8, 193740, Note_off_c, 6, 79, 64
8, 193740, Note_on_c, 6, 81, 105
8, 193770, Note_off_c, 6, 81, 64
8, 193770, Note_on_c, 6, 79, 105
8, 193800, Note_off_c, 6, 79, 64
8, 193800, Note_on_c, 6, 81, 105
8, 193830, Note_off_c, 6, 81, 64
8, 193830, Note_on_c, 6, 79, 105
8, 193860, Note_off_c, 6, 79, 64
8, 193860, Note_on_c, 6, 78, 105
8, 193890, Note_off_c, 6, 78, 64
8, 193890, Note_on_c, 6, 79, 105
8, 193914, Note_off_c, 6, 79, 64
8, 193920, Note_on_c, 6, 76, 105
8, 194240, Note_off_c, 6, 76, 64
8, 194240, Note_on_c, 6, 77, 105
8, 194280, Note_off_c, 6, 77, 64
8, 194280, Note_on_c, 6, 79, 105
8, 194320, Note_off_c, 6, 79, 64
8, 194320, Note_on_c, 6, 81, 105
8, 194360, Note_off_c, 6, 81, 64
8, 194360, Note_on_c, 6, 83, 105
8, 194400, Note_off_c, 6, 83, 64
8, 194400, Note_on_c, 6, 84, 105
8, 194544, Note_off_c, 6, 84, 64
8, 194640, Note_on_c, 6, 76, 105
8, 194784, Note_off_c, 6, 76, 64
8, 194880, Note_on_c, 6, 74, 105
8, 195024, Note_off_c, 6, 74, 64
8, 195120, Note_on_c, 6, 81, 105
8, 195120, Note_on_c, 6, 69, 105
8, 195264, Note_off_c, 6, 69, 64
8, 195264, Note_off_c, 6, 81, 64
8, 196560, Note_on_c, 6, 63, 72
8, 196800, Note_off_c, 6, 63, 64
8, 196800, Note_on_c, 6, 62, 72
8, 196944, Note_off_c, 6, 62, 64
8, 197040, Note_on_c, 6, 72, 58
8, 197184, Note_off_c, 6, 72, 64
8, 199200, Note_on_c, 6, 66, 58
8, 199440, Note_off_c, 6, 66, 64
8, 199440, Note_on_c, 6, 67, 58
8, 199536, Note_off_c, 6, 67, 64
8, 199680, Note_on_c, 6, 68, 58
8, 199920, Note_off_c, 6, 68, 64
8, 199920, Note_on_c, 6, 69, 58
8, 200016, Note_off_c, 6, 69, 64
8, 200160, Note_on_c, 6, 69, 58
8, 200400, Note_off_c, 6, 69, 64
8, 200400, Note_on_c, 6, 66, 58
8, 200496, Note_off_c, 6, 66, 64
8, 200640, Note_on_c, 6, 67, 105
8, 200640, Note_on_c, 6, 55, 105
8, 200928, Note_off_c, 6, 55, 64
8, 200928, Note_off_c, 6, 67, 64
8, 201000, Note_on_c, 6, 71, 105
8, 201060, Note_off_c, 6, 71, 64
8, 201060, Note_on_c, 6, 74, 105
8, 201108, Note_off_c, 6, 74, 64
8, 201120, Note_on_c, 6, 79, 105
8, 201204, Note_off_c, 6, 79, 64
8, 201240, Note_on_c, 6, 78, 105
8, 201324, Note_off_c, 6, 78, 64
8, 201360, Note_on_c, 6, 79, 105
8, 201444, Note_off_c, 6, 79, 64
8, 201480, Note_on_c, 6, 81, 105
8, 201564, Note_off_c, 6, 81, 64
8, 201600, Note_on_c, 6, 83, 105
8, 201888, Note_off_c, 6, 83, 64
8, 201960, Note_on_c, 6, 82, 105
8, 202044, Note_off_c, 6, 82, 64
8, 202080, Note_on_c, 6, 83, 105
8, 202164, Note_off_c, 6, 83, 64
8, 202200, Note_on_c, 6, 82, 105
8, 202284, Note_off_c, 6, 82, 64
8, 202320, Note_on_c, 6, 83, 105
8, 202404, Note_off_c, 6, 83, 64
8, 202440, Note_on_c, 6, 82, 105
8, 202524, Note_off_c, 6, 82, 64
8, 202560, Note_on_c, 6, 83, 105
8, 202644, Note_off_c, 6, 83, 64
8, 202680, Note_on_c, 6, 83, 105
8, 202764, Note_off_c, 6, 83, 64
8, 202800, Note_on_c, 6, 79, 105
8, 202884, Note_off_c, 6, 79, 64
8, 202920, Note_on_c, 6, 79, 105
8, 203004, Note_off_c, 6, 79, 64
8, 203040, Note_on_c, 6, 81, 105
8, 203124, Note_off_c, 6, 81, 64
8, 203160, Note_on_c, 6, 81, 105
8, 203244, Note_off_c, 6, 81, 64
8, 203280, Note_on_c, 6, 78, 105
8, 203364, Note_off_c, 6, 78, 64
8, 203400, Note_on_c, 6, 78, 105
8, 203484, Note_off_c, 6, 78, 64
8, 203520, Note_on_c, 6, 79, 105
8, 203712, Note_off_c, 6, 79, 64
8, 203880, Note_on_c, 6, 74, 105
8, 203920, Note_off_c, 6, 74, 64
8, 203920, Note_on_c, 6, 76, 105
8, 203960, Note_off_c, 6, 76, 64
8, 203960, Note_on_c, 6, 78, 105
8, 204000, Note_off_c, 6, 78, 64
8, 204000, Note_on_c, 6, 79, 105
8, 204084, Note_off_c, 6, 79, 64
8, 204120, Note_on_c, 6, 78, 105
8, 204204, Note_off_c, 6, 78, 64
8, 204240, Note_on_c, 6, 79, 105
8, 204324, Note_off_c, 6, 79, 64
8, 204360, Note_on_c, 6, 81, 105
8, 204444, Note_off_c, 6, 81, 64
8, 204480, Note_on_c, 6, 83, 105
8, 204552, Note_off_c, 6, 83, 64
8, 204600, Note_on_c, 6, 83, 105
8, 204792, Note_off_c, 6, 83, 64
8, 204840, Note_on_c, 6, 82, 105
8, 204924, Note_off_c, 6, 82, 64
8, 204960, Note_on_c, 6, 83, 105
8, 205044, Note_off_c, 6, 83, 64
8, 205080, Note_on_c, 6, 82, 105
8, 205164, Note_off_c, 6, 82, 64
8, 205200, Note_on_c, 6, 83, 105
8, 205284, Note_off_c, 6, 83, 64
8, 205320, Note_on_c, 6, 82, 105
8, 205404, Note_off_c, 6, 82, 64
8, 205440, Note_on_c, 6, 83, 105
8, 205524, Note_off_c, 6, 83, 64
8, 205560, Note_on_c, 6, 83, 105
8, 205644, Note_off_c, 6, 83, 64
8, 205680, Note_on_c, 6, 79, 105
8, 205764, Note_off_c, 6, 79, 64
8, 205800, Note_on_c, 6, 79, 105
8, 205884, Note_off_c, 6, 79, 64
8, 205920, Note_on_c, 6, 81, 105
8, 206004, Note_off_c, 6, 81, 64
8, 206040, Note_on_c, 6, 81, 105
8, 206124, Note_off_c, 6, 81, 64
8, 206160, Note_on_c, 6, 78, 105
8, 206244, Note_off_c, 6, 78, 64
8, 206280, Note_on_c, 6, 78, 105
8, 206364, Note_off_c, 6, 78, 64
8, 206400, Note_on_c, 6, 83, 58
8, 206496, Note_off_c, 6, 83, 64
8, 206640, Note_on_c, 6, 79, 58
8, 206736, Note_off_c, 6, 79, 64
8, 206880, Note_on_c, 6, 81, 58
8, 206976, Note_off_c, 6, 81, 64
8, 207120, Note_on_c, 6, 78, 58
8, 207216, Note_off_c, 6, 78, 64
8, 207360, Note_on_c, 6, 83, 105
8, 207408, Note_off_c, 6, 83, 64
8, 207420, Note_on_c, 6, 83, 105
8, 207468, Note_off_c, 6, 83, 64
8, 207480, Note_on_c, 6, 83, 105
8, 207528, Note_off_c, 6, 83, 64
8, 207540, Note_on_c, 6, 83, 105
8, 207588, Note_off_c, 6, 83, 64
8, 207600, Note_on_c, 6, 79, 105
8, 207648, Note_off_c, 6, 79, 64
8, 207660, Note_on_c, 6, 79, 105
8, 207708, Note_off_c, 6, 79, 64
8, 207720, Note_on_c, 6, 79, 105
8, 207768, Note_off_c, 6, 79, 64
8, 207780, Note_on_c, 6, 79, 105
8, 207828, Note_off_c, 6, 79, 64
8, 207840, Note_on_c, 6, 81, 105
8, 207888, Note_off_c, 6, 81, 64
8, 207900, Note_on_c, 6, 81, 105
8, 207948, Note_off_c, 6, 81, 64
8, 207960, Note_on_c, 6, 81, 105
8, 208008, Note_off_c, 6, 81, 64
8, 208020, Note_on_c, 6, 81, 105
8, 208068, Note_off_c, 6, 81, 64
8, 208080, Note_on_c, 6, 78, 105
8, 208128, Note_off_c, 6, 78, 64
8, 208140, Note_on_c, 6, 78, 105
8, 208188, Note_off_c, 6, 78, 64
8, 208200, Note_on_c, 6, 78, 105
8, 208248, Note_off_c, 6, 78, 64
8, 208260, Note_on_c, 6, 78, 105
8, 208308, Note_off_c, 6, 78, 64
8, 208320, Note_on_c, 6, 79, 105
8, 208512, Note_off_c, 6, 79, 64
8, 212160, Note_on_c, 6, 59, 72
8, 212328, Note_off_c, 6, 59, 64
8, 212400, Note_on_c, 6, 62, 72
8, 212880, Note_off_c, 6, 62, 64
8, 212880, Note_on_c, 6, 60, 72
8, 213048, Note_off_c, 6, 60, 64
8, 213120, Note_on_c, 6, 59, 72
8, 213288, Note_off_c, 6, 59, 64
8, 213360, Note_on_c, 6, 62, 72
8, 213840, Note_off_c, 6, 62, 64
8, 213840, Note_on_c, 6, 60, 72
8, 214008, Note_off_c, 6, 60, 64
8, 214080, Note_on_c, 6, 62, 58
8, 214200, Note_off_c, 6, 62, 64
8, 214200, Note_on_c, 6, 57, 58
8, 214272, Note_off_c, 6, 57, 64
8, 214320, Note_on_c, 6, 57, 58
8, 214392, Note_off_c, 6, 57, 64
8, 214440, Note_on_c, 6, 57, 58
8, 214512, Note_off_c, 6, 57, 64
8, 214560, Note_on_c, 6, 57, 58
8, 214632, Note_off_c, 6, 57, 64
8, 214680, Note_on_c, 6, 57, 58
8, 214752, Note_off_c, 6, 57, 64
8, 214800, Note_on_c, 6, 57, 58
8, 214872, Note_off_c, 6, 57, 64
8, 214920, Note_on_c, 6, 57, 58
8, 214992, Note_off_c, 6, 57, 64
8, 215040, Note_on_c, 6, 69, 58
8, 215160, Note_off_c, 6, 69, 64
8, 215160, Note_on_c, 6, 57, 58
8, 215232, Note_off_c, 6, 57, 64
8, 215280, Note_on_c, 6, 69, 58
8, 215352, Note_off_c, 6, 69, 64
8, 215400, Note_on_c, 6, 69, 58
8, 215472, Note_off_c, 6, 69, 64
8, 215520, Note_on_c, 6, 69, 58
8, 215640, Note_off_c, 6, 69, 64
8, 215640, Note_on_c, 6, 57, 58
8, 215712, Note_off_c, 6, 57, 64
8, 215760, Note_on_c, 6, 69, 58
8, 215832, Note_off_c, 6, 69, 64
8, 215880, Note_on_c, 6, 69, 58
8, 215952, Note_off_c, 6, 69, 64
8, 216000, Note_on_c, 6, 65, 58
8, 216192, Note_off_c, 6, 65, 64
8, 216480, Note_on_c, 6, 62, 58
8, 216672, Note_off_c, 6, 62, 64
8, 216960, Note_on_c, 6, 60, 58
8, 217152, Note_off_c, 6, 60, 64
8, 218880, Note_on_c, 6, 70, 58
8, 220800, Note_off_c, 6, 70, 64
8, 220800, Note_on_c, 6, 69, 58
8, 220992, Note_off_c, 6, 69, 64
8, 223680, Note_on_c, 6, 62, 58
8, 223680, Note_on_c, 6, 71, 58
8, 225600, Note_off_c, 6, 71, 64
8, 225600, Note_off_c, 6, 62, 64
8, 225600, Note_on_c, 6, 64, 58
8, 225600, Note_on_c, 6, 72, 58
8, 225792, Note_off_c, 6, 72, 64
8, 225792, Note_off_c, 6, 64, 64
8, 226920, Note_on_c, 6, 55, 72
8, 227016, Note_off_c, 6, 55, 64
8, 227040, Note_on_c, 6, 60, 72
8, 227160, Note_off_c, 6, 60, 64
8, 227160, Note_on_c, 6, 59, 72
8, 227280, Note_off_c, 6, 59, 64
8, 227280, Note_on_c, 6, 62, 72
8, 227400, Note_off_c, 6, 62, 64
8, 227400, Note_on_c, 6, 60, 72
8, 227496, Note_off_c, 6, 60, 64
8, 227520, Note_on_c, 6, 64, 72
8, 227640, Note_off_c, 6, 64, 64
8, 227640, Note_on_c, 6, 62, 72
8, 227760, Note_off_c, 6, 62, 64
8, 227760, Note_on_c, 6, 65, 81
8, 227880, Note_off_c, 6, 65, 64
8, 227880, Note_on_c, 6, 64, 81
8, 228000, Note_off_c, 6, 64, 64
8, 228000, Note_on_c, 6, 69, 81
8, 228120, Note_off_c, 6, 69, 64
8, 228120, Note_on_c, 6, 67, 92
8, 228240, Note_off_c, 6, 67, 64
8, 228240, Note_on_c, 6, 72, 92
8, 228360, Note_off_c, 6, 72, 64
8, 228360, Note_on_c, 6, 70, 105
8, 228456, Note_off_c, 6, 70, 64
8, 228480, Note_on_c, 6, 70, 105
8, 230262, Note_off_c, 6, 70, 64
8, 230280, Note_on_c, 6, 69, 105
8, 230320, Note_off_c, 6, 69, 64
8, 230320, Note_on_c, 6, 67, 105
8, 230360, Note_off_c, 6, 67, 64
8, 230360, Note_on_c, 6, 65, 105
8, 230396, Note_off_c, 6, 65, 64
8, 230400, Note_on_c, 6, 64, 105
8, 230592, Note_off_c, 6, 64, 64
8, 230880, Note_on_c, 6, 76, 105
8, 230880, Note_on_c, 6, 67, 105
8, 230880, Note_on_c, 6, 72, 105
8, 231048, Note_off_c, 6, 72, 64
8, 231048, Note_off_c, 6, 67, 64
8, 231048, Note_off_c, 6, 76, 64
8, 231120, Note_on_c, 6, 76, 105
8, 231204, Note_off_c, 6, 76, 64
8, 231240, Note_on_c, 6, 76, 105
8, 231324, Note_off_c, 6, 76, 64
8, 231360, Note_on_c, 6, 77, 105
8, 231360, Note_on_c, 6, 72, 105
8, 231360, Note_on_c, 6, 65, 105
8, 231528, Note_off_c, 6, 65, 64
8, 231528, Note_off_c, 6, 72, 64
8, 231528, Note_off_c, 6, 77, 64
8, 231600, Note_on_c, 6, 77, 105
8, 231684, Note_off_c, 6, 77, 64
8, 231720, Note_on_c, 6, 77, 105
8, 231804, Note_off_c, 6, 77, 64
8, 231840, Note_on_c, 6, 64, 105
8, 231840, Note_on_c, 6, 79, 105
8, 231840, Note_on_c, 6, 72, 105
8, 232008, Note_off_c, 6, 72, 64
8, 232008, Note_off_c, 6, 79, 64
8, 232008, Note_off_c, 6, 64, 64
8, 232080, Note_on_c, 6, 79, 105
8, 232164, Note_off_c, 6, 79, 64
8, 232200, Note_on_c, 6, 79, 105
8, 232284, Note_off_c, 6, 79, 64
8, 232320, Note_on_c, 6, 81, 105
8, 232320, Note_on_c, 6, 65, 105
8, 232320, Note_on_c, 6, 72, 105
8, 232512, Note_off_c, 6, 72, 64
8, 232512, Note_off_c, 6, 65, 64
8, 232512, Note_off_c, 6, 81, 64
8, 232560, Note_on_c, 6, 69, 105
8, 232752, Note_off_c, 6, 69, 64
8, 233040, Note_on_c, 6, 69, 81
8, 233232, Note_off_c, 6, 69, 64
8, 233520, Note_on_c, 6, 68, 58
8, 233712, Note_off_c, 6, 68, 64
8, 234000, Note_on_c, 6, 67, 58
8, 234192, Note_off_c, 6, 67, 64
8, 234480, Note_on_c, 6, 66, 58
8, 234672, Note_off_c, 6, 66, 64
8, 234960, Note_on_c, 6, 67, 58
8, 235152, Note_off_c, 6, 67, 64
8, 235440, Note_on_c, 6, 66, 58
8, 235632, Note_off_c, 6, 66, 64
8, 235920, Note_on_c, 6, 65, 58
8, 236112, Note_off_c, 6, 65, 64
8, 236400, Note_on_c, 6, 64, 58
8, 236592, Note_off_c, 6, 64, 64
8, 236760, Note_on_c, 6, 72, 72
8, 236880, Note_off_c, 6, 72, 64
8, 236880, Note_on_c, 6, 74, 72
8, 237000, Note_off_c, 6, 74, 64
8, 237000, Note_on_c, 6, 72, 72
8, 237096, Note_off_c, 6, 72, 64
8, 237240, Note_on_c, 6, 71, 72
8, 237360, Note_off_c, 6, 71, 64
8, 237360, Note_on_c, 6, 72, 72
8, 237480, Note_off_c, 6, 72, 64
8, 237480, Note_on_c, 6, 71, 72
8, 237576, Note_off_c, 6, 71, 64
8, 237720, Note_on_c, 6, 70, 72
8, 237840, Note_off_c, 6, 70, 64
8, 237840, Note_on_c, 6, 72, 72
8, 237960, Note_off_c, 6, 72, 64
8, 237960, Note_on_c, 6, 70, 72
8, 238056, Note_off_c, 6, 70, 64
8, 238200, Note_on_c, 6, 68, 72
8, 238320, Note_off_c, 6, 68, 64
8, 238320, Note_on_c, 6, 70, 72
8, 238440, Note_off_c, 6, 70, 64
8, 238440, Note_on_c, 6, 68, 72
8, 238536, Note_off_c, 6, 68, 64
8, 238680, Note_on_c, 6, 67, 72
8, 238800, Note_off_c, 6, 67, 64
8, 238800, Note_on_c, 6, 68, 72
8, 238920, Note_off_c, 6, 68, 64
8, 238920, Note_on_c, 6, 67, 72
8, 239016, Note_off_c, 6, 67, 64
8, 239040, Note_on_c, 6, 66, 72
8, 239280, Note_off_c, 6, 66, 64
8, 239280, Note_on_c, 6, 63, 81
8, 239520, Note_off_c, 6, 63, 64
8, 239520, Note_on_c, 6, 62, 92
8, 239760, Note_off_c, 6, 62, 64
8, 239760, Note_on_c, 6, 60, 105
8, 239952, Note_off_c, 6, 60, 64
8, 240000, Note_on_c, 6, 67, 105
8, 240000, Note_on_c, 6, 55, 105
8, 240051, Note_off_c, 6, 55, 64
8, 240051, Note_off_c, 6, 67, 64
8, 240060, Note_on_c, 6, 67, 105
8, 240060, Note_on_c, 6, 55, 105
8, 240111, Note_off_c, 6, 55, 64
8, 240111, Note_off_c, 6, 67, 64
8, 240120, Note_on_c, 6, 67, 105
8, 240120, Note_on_c, 6, 55, 105
8, 240171, Note_off_c, 6, 55, 64
8, 240171, Note_off_c, 6, 67, 64
8, 240180, Note_on_c, 6, 67, 105
8, 240180, Note_on_c, 6, 55, 105
8, 240231, Note_off_c, 6, 55, 64
8, 240231, Note_off_c, 6, 67, 64
8, 240240, Note_on_c, 6, 55, 105
8, 240240, Note_on_c, 6, 67, 105
8, 240291, Note_off_c, 6, 67, 64
8, 240291, Note_off_c, 6, 55, 64
8, 240300, Note_on_c, 6, 67, 105
8, 240300, Note_on_c, 6, 55, 105
8, 240351, Note_off_c, 6, 55, 64
8, 240351, Note_off_c, 6, 67, 64
8, 240360, Note_on_c, 6, 55, 105
8, 240360, Note_on_c, 6, 67, 105
8, 240411, Note_off_c, 6, 67, 64
8, 240411, Note_off_c, 6, 55, 64
8, 240420, Note_on_c, 6, 55, 105
8, 240420, Note_on_c, 6, 67, 105
8, 240471, Note_off_c, 6, 67, 64
8, 240471, Note_off_c, 6, 55, 64
8, 240480, Note_on_c, 6, 67, 105
8, 240480, Note_on_c, 6, 55, 105
8, 240531, Note_off_c, 6, 55, 64
8, 240531, Note_off_c, 6, 67, 64
8, 240540, Note_on_c, 6, 67, 105
8, 240540, Note_on_c, 6, 55, 105
8, 240591, Note_off_c, 6, 55, 64
8, 240591, Note_off_c, 6, 67, 64
8, 240600, Note_on_c, 6, 55, 105
8, 240600, Note_on_c, 6, 67, 105
8, 240651, Note_off_c, 6, 67, 64
8, 240651, Note_off_c, 6, 55, 64
8, 240660, Note_on_c, 6, 55, 105
8, 240660, Note_on_c, 6, 67, 105
8, 240711, Note_off_c, 6, 67, 64
8, 240711, Note_off_c, 6, 55, 64
8, 240720, Note_on_c, 6, 55, 105
8, 240720, Note_on_c, 6, 67, 105
8, 240771, Note_off_c, 6, 67, 64
8, 240771, Note_off_c, 6, 55, 64
8, 240780, Note_on_c, 6, 67, 105
8, 240780, Note_on_c, 6, 55, 105
8, 240831, Note_off_c, 6, 55, 64
8, 240831, Note_off_c, 6, 67, 64
8, 240840, Note_on_c, 6, 55, 105
8, 240840, Note_on_c, 6, 67, 105
8, 240891, Note_off_c, 6, 67, 64
8, 240891, Note_off_c, 6, 55, 64
8, 240900, Note_on_c, 6, 67, 105
8, 240900, Note_on_c, 6, 55, 105
8, 240951, Note_off_c, 6, 55, 64
8, 240951, Note_off_c, 6, 67, 64
8, 240960, Note_on_c, 6, 67, 105
8, 240960, Note_on_c, 6, 55, 105
8, 241011, Note_off_c, 6, 55, 64
8, 241011, Note_off_c, 6, 67, 64
8, 241020, Note_on_c, 6, 67, 105
8, 241020, Note_on_c, 6, 55, 105
8, 241071, Note_off_c, 6, 55, 64
8, 241071, Note_off_c, 6, 67, 64
8, 241080, Note_on_c, 6, 67, 105
8, 241080, Note_on_c, 6, 55, 105
8, 241131, Note_off_c, 6, 55, 64
8, 241131, Note_off_c, 6, 67, 64
8, 241140, Note_on_c, 6, 67, 105
8, 241140, Note_on_c, 6, 55, 105
8, 241191, Note_off_c, 6, 55, 64
8, 241191, Note_off_c, 6, 67, 64
8, 241200, Note_on_c, 6, 67, 105
8, 241200, Note_on_c, 6, 55, 105
8, 241251, Note_off_c, 6, 55, 64
8, 241251, Note_off_c, 6, 67, 64
8, 241260, Note_on_c, 6, 67, 105
8, 241260, Note_on_c, 6, 55, 105
8, 241311, Note_off_c, 6, 55, 64
8, 241311, Note_off_c, 6, 67, 64
8, 241320, Note_on_c, 6, 55, 105
8, 241320, Note_on_c, 6, 67, 105
8, 241371, Note_off_c, 6, 67, 64
8, 241371, Note_off_c, 6, 55, 64
8, 241380, Note_on_c, 6, 67, 105
8, 241380, Note_on_c, 6, 55, 105
8, 241431, Note_off_c, 6, 55, 64
8, 241431, Note_off_c, 6, 67, 64
8, 241440, Note_on_c, 6, 67, 105
8, 241440, Note_on_c, 6, 55, 105
8, 241491, Note_off_c, 6, 55, 64
8, 241491, Note_off_c, 6, 67, 64
8, 241500, Note_on_c, 6, 67, 105
8, 241500, Note_on_c, 6, 55, 105
8, 241551, Note_off_c, 6, 55, 64
8, 241551, Note_off_c, 6, 67, 64
8, 241560, Note_on_c, 6, 67, 105
8, 241560, Note_on_c, 6, 55, 105
8, 241611, Note_off_c, 6, 55, 64
8, 241611, Note_off_c, 6, 67, 64
8, 241620, Note_on_c, 6, 55, 105
8, 241620, Note_on_c, 6, 67, 105
8, 241671, Note_off_c, 6, 67, 64
8, 241671, Note_off_c, 6, 55, 64
8, 241680, Note_on_c, 6, 67, 105
8, 241680, Note_on_c, 6, 55, 105
8, 241731, Note_off_c, 6, 55, 64
8, 241731, Note_off_c, 6, 67, 64
8, 241740, Note_on_c, 6, 67, 105
8, 241740, Note_on_c, 6, 55, 105
8, 241791, Note_off_c, 6, 55, 64
8, 241791, Note_off_c, 6, 67, 64
8, 241800, Note_on_c, 6, 67, 105
8, 241800, Note_on_c, 6, 55, 105
8, 241851, Note_off_c, 6, 55, 64
8, 241851, Note_off_c, 6, 67, 64
8, 241860, Note_on_c, 6, 67, 105
8, 241860, Note_on_c, 6, 55, 105
8, 241911, Note_off_c, 6, 55, 64
8, 241911, Note_off_c, 6, 67, 64
8, 241920, Note_on_c, 6, 67, 105
8, 241920, Note_on_c, 6, 55, 105
8, 241971, Note_off_c, 6, 55, 64
8, 241971, Note_off_c, 6, 67, 64
8, 241980, Note_on_c, 6, 55, 105
8, 241980, Note_on_c, 6, 67, 105
8, 242031, Note_off_c, 6, 67, 64
8, 242031, Note_off_c, 6, 55, 64
8, 242040, Note_on_c, 6, 55, 105
8, 242040, Note_on_c, 6, 67, 105
8, 242091, Note_off_c, 6, 67, 64
8, 242091, Note_off_c, 6, 55, 64
8, 242100, Note_on_c, 6, 55, 105
8, 242100, Note_on_c, 6, 67, 105
8, 242151, Note_off_c, 6, 67, 64
8, 242151, Note_off_c, 6, 55, 64
8, 242160, Note_on_c, 6, 55, 105
8, 242160, Note_on_c, 6, 67, 105
8, 242211, Note_off_c, 6, 67, 64
8, 242211, Note_off_c, 6, 55, 64
8, 242220, Note_on_c, 6, 67, 105
8, 242220, Note_on_c, 6, 55, 105
8, 242271, Note_off_c, 6, 55, 64
8, 242271, Note_off_c, 6, 67, 64
8, 242280, Note_on_c, 6, 55, 105
8, 242280, Note_on_c, 6, 67, 105
8, 242331, Note_off_c, 6, 67, 64
8, 242331, Note_off_c, 6, 55, 64
8, 242340, Note_on_c, 6, 67, 105
8, 242340, Note_on_c, 6, 55, 105
8, 242391, Note_off_c, 6, 55, 64
8, 242391, Note_off_c, 6, 67, 64
8, 242400, Note_on_c, 6, 67, 105
8, 242400, Note_on_c, 6, 55, 105
8, 242451, Note_off_c, 6, 55, 64
8, 242451, Note_off_c, 6, 67, 64
8, 242460, Note_on_c, 6, 55, 105
8, 242460, Note_on_c, 6, 67, 105
8, 242511, Note_off_c, 6, 67, 64
8, 242511, Note_off_c, 6, 55, 64
8, 242520, Note_on_c, 6, 55, 105
8, 242520, Note_on_c, 6, 67, 105
8, 242571, Note_off_c, 6, 67, 64
8, 242571, Note_off_c, 6, 55, 64
8, 242580, Note_on_c, 6, 67, 105
8, 242580, Note_on_c, 6, 55, 105
8, 242631, Note_off_c, 6, 55, 64
8, 242631, Note_off_c, 6, 67, 64
8, 242640, Note_on_c, 6, 67, 105
8, 242640, Note_on_c, 6, 55, 105
8, 242691, Note_off_c, 6, 55, 64
8, 242691, Note_off_c, 6, 67, 64
8, 242700, Note_on_c, 6, 67, 105
8, 242700, Note_on_c, 6, 55, 105
8, 242751, Note_off_c, 6, 55, 64
8, 242751, Note_off_c, 6, 67, 64
8, 242760, Note_on_c, 6, 55, 105
8, 242760, Note_on_c, 6, 67, 105
8, 242811, Note_off_c, 6, 67, 64
8, 242811, Note_off_c, 6, 55, 64
8, 242820, Note_on_c, 6, 67, 105
8, 242820, Note_on_c, 6, 55, 105
8, 242871, Note_off_c, 6, 55, 64
8, 242871, Note_off_c, 6, 67, 64
8, 242880, Note_on_c, 6, 67, 105
8, 242880, Note_on_c, 6, 55, 105
8, 242931, Note_off_c, 6, 55, 64
8, 242931, Note_off_c, 6, 67, 64
8, 242940, Note_on_c, 6, 67, 105
8, 242940, Note_on_c, 6, 55, 105
8, 242991, Note_off_c, 6, 55, 64
8, 242991, Note_off_c, 6, 67, 64
8, 243000, Note_on_c, 6, 67, 105
8, 243000, Note_on_c, 6, 55, 105
8, 243051, Note_off_c, 6, 55, 64
8, 243051, Note_off_c, 6, 67, 64
8, 243060, Note_on_c, 6, 67, 105
8, 243060, Note_on_c, 6, 55, 105
8, 243111, Note_off_c, 6, 55, 64
8, 243111, Note_off_c, 6, 67, 64
8, 243120, Note_on_c, 6, 67, 105
8, 243120, Note_on_c, 6, 55, 105
8, 243171, Note_off_c, 6, 55, 64
8, 243171, Note_off_c, 6, 67, 64
8, 243180, Note_on_c, 6, 55, 105
8, 243180, Note_on_c, 6, 67, 105
8, 243231, Note_off_c, 6, 67, 64
8, 243231, Note_off_c, 6, 55, 64
8, 243240, Note_on_c, 6, 67, 105
8, 243240, Note_on_c, 6, 55, 105
8, 243291, Note_off_c, 6, 55, 64
8, 243291, Note_off_c, 6, 67, 64
8, 243300, Note_on_c, 6, 55, 105
8, 243300, Note_on_c, 6, 67, 105
8, 243351, Note_off_c, 6, 67, 64
8, 243351, Note_off_c, 6, 55, 64
8, 243360, Note_on_c, 6, 67, 105
8, 243360, Note_on_c, 6, 55, 105
8, 243411, Note_off_c, 6, 55, 64
8, 243411, Note_off_c, 6, 67, 64
8, 243420, Note_on_c, 6, 67, 105
8, 243420, Note_on_c, 6, 55, 105
8, 243471, Note_off_c, 6, 55, 64
8, 243471, Note_off_c, 6, 67, 64
8, 243480, Note_on_c, 6, 67, 105
8, 243480, Note_on_c, 6, 55, 105
8, 243531, Note_off_c, 6, 55, 64
8, 243531, Note_off_c, 6, 67, 64
8, 243540, Note_on_c, 6, 55, 105
8, 243540, Note_on_c, 6, 67, 105
8, 243591, Note_off_c, 6, 67, 64
8, 243591, Note_off_c, 6, 55, 64
8, 243600, Note_on_c, 6, 67, 105
8, 243600, Note_on_c, 6, 55, 105
8, 243651, Note_off_c, 6, 55, 64
8, 243651, Note_off_c, 6, 67, 64
8, 243660, Note_on_c, 6, 67, 105
8, 243660, Note_on_c, 6, 55, 105
8, 243711, Note_off_c, 6, 55, 64
8, 243711, Note_off_c, 6, 67, 64
8, 243720, Note_on_c, 6, 67, 105
8, 243720, Note_on_c, 6, 55, 105
8, 243771, Note_off_c, 6, 55, 64
8, 243771, Note_off_c, 6, 67, 64
8, 243780, Note_on_c, 6, 67, 105
8, 243780, Note_on_c, 6, 55, 105
8, 243831, Note_off_c, 6, 55, 64
8, 243831, Note_off_c, 6, 67, 64
8, 243840, Note_on_c, 6, 55, 105
8, 243840, Note_on_c, 6, 67, 105
8, 243891, Note_off_c, 6, 67, 64
8, 243891, Note_off_c, 6, 55, 64
8, 243900, Note_on_c, 6, 55, 105
8, 243900, Note_on_c, 6, 67, 105
8, 243951, Note_off_c, 6, 67, 64
8, 243951, Note_off_c, 6, 55, 64
8, 243960, Note_on_c, 6, 67, 105
8, 243960, Note_on_c, 6, 55, 105
8, 244011, Note_off_c, 6, 55, 64
8, 244011, Note_off_c, 6, 67, 64
8, 244020, Note_on_c, 6, 67, 105
8, 244020, Note_on_c, 6, 55, 105
8, 244071, Note_off_c, 6, 55, 64
8, 244071, Note_off_c, 6, 67, 64
8, 244080, Note_on_c, 6, 55, 105
8, 244080, Note_on_c, 6, 67, 105
8, 244131, Note_off_c, 6, 67, 64
8, 244131, Note_off_c, 6, 55, 64
8, 244140, Note_on_c, 6, 55, 105
8, 244140, Note_on_c, 6, 67, 105
8, 244191, Note_off_c, 6, 67, 64
8, 244191, Note_off_c, 6, 55, 64
8, 244200, Note_on_c, 6, 67, 105
8, 244200, Note_on_c, 6, 55, 105
8, 244251, Note_off_c, 6, 55, 64
8, 244251, Note_off_c, 6, 67, 64
8, 244260, Note_on_c, 6, 55, 105
8, 244260, Note_on_c, 6, 67, 105
8, 244311, Note_off_c, 6, 67, 64
8, 244311, Note_off_c, 6, 55, 64
8, 244320, Note_on_c, 6, 67, 105
8, 244320, Note_on_c, 6, 55, 105
8, 244371, Note_off_c, 6, 55, 64
8, 244371, Note_off_c, 6, 67, 64
8, 244380, Note_on_c, 6, 55, 105
8, 244380, Note_on_c, 6, 67, 105
8, 244431, Note_off_c, 6, 67, 64
8, 244431, Note_off_c, 6, 55, 64
8, 244440, Note_on_c, 6, 55, 105
8, 244440, Note_on_c, 6, 67, 105
8, 244491, Note_off_c, 6, 67, 64
8, 244491, Note_off_c, 6, 55, 64
8, 244500, Note_on_c, 6, 67, 105
8, 244500, Note_on_c, 6, 55, 105
8, 244551, Note_off_c, 6, 55, 64
8, 244551, Note_off_c, 6, 67, 64
8, 244560, Note_on_c, 6, 67, 105
8, 244560, Note_on_c, 6, 55, 105
8, 244611, Note_off_c, 6, 55, 64
8, 244611, Note_off_c, 6, 67, 64
8, 244620, Note_on_c, 6, 67, 105
8, 244620, Note_on_c, 6, 55, 105
8, 244671, Note_off_c, 6, 55, 64
8, 244671, Note_off_c, 6, 67, 64
8, 244680, Note_on_c, 6, 55, 105
8, 244680, Note_on_c, 6, 67, 105
8, 244731, Note_off_c, 6, 67, 64
8, 244731, Note_off_c, 6, 55, 64
8, 244740, Note_on_c, 6, 55, 105
8, 244740, Note_on_c, 6, 67, 105
8, 244791, Note_off_c, 6, 67, 64
8, 244791, Note_off_c, 6, 55, 64
8, 244800, Note_on_c, 6, 55, 105
8, 244800, Note_on_c, 6, 67, 105
8, 244851, Note_off_c, 6, 67, 64
8, 244851, Note_off_c, 6, 55, 64
8, 244860, Note_on_c, 6, 55, 105
8, 244860, Note_on_c, 6, 67, 105
8, 244911, Note_off_c, 6, 67, 64
8, 244911, Note_off_c, 6, 55, 64
8, 244920, Note_on_c, 6, 55, 105
8, 244920, Note_on_c, 6, 67, 105
8, 244971, Note_off_c, 6, 67, 64
8, 244971, Note_off_c, 6, 55, 64
8, 244980, Note_on_c, 6, 55, 105
8, 244980, Note_on_c, 6, 67, 105
8, 245031, Note_off_c, 6, 67, 64
8, 245031, Note_off_c, 6, 55, 64
8, 245040, Note_on_c, 6, 55, 105
8, 245040, Note_on_c, 6, 67, 105
8, 245091, Note_off_c, 6, 67, 64
8, 245091, Note_off_c, 6, 55, 64
8, 245100, Note_on_c, 6, 67, 105
8, 245100, Note_on_c, 6, 55, 105
8, 245151, Note_off_c, 6, 55, 64
8, 245151, Note_off_c, 6, 67, 64
8, 245160, Note_on_c, 6, 55, 105
8, 245160, Note_on_c, 6, 67, 105
8, 245211, Note_off_c, 6, 67, 64
8, 245211, Note_off_c, 6, 55, 64
8, 245220, Note_on_c, 6, 67, 105
8, 245220, Note_on_c, 6, 55, 105
8, 245271, Note_off_c, 6, 55, 64
8, 245271, Note_off_c, 6, 67, 64
8, 245280, Note_on_c, 6, 67, 105
8, 245280, Note_on_c, 6, 55, 105
8, 245331, Note_off_c, 6, 55, 64
8, 245331, Note_off_c, 6, 67, 64
8, 245340, Note_on_c, 6, 55, 105
8, 245340, Note_on_c, 6, 67, 105
8, 245391, Note_off_c, 6, 67, 64
8, 245391, Note_off_c, 6, 55, 64
8, 245400, Note_on_c, 6, 55, 105
8, 245400, Note_on_c, 6, 67, 105
8, 245451, Note_off_c, 6, 67, 64
8, 245451, Note_off_c, 6, 55, 64
8, 245460, Note_on_c, 6, 67, 105
8, 245460, Note_on_c, 6, 55, 105
8, 245511, Note_off_c, 6, 55, 64
8, 245511, Note_off_c, 6, 67, 64
8, 245520, Note_on_c, 6, 67, 105
8, 245520, Note_on_c, 6, 55, 105
8, 245571, Note_off_c, 6, 55, 64
8, 245571, Note_off_c, 6, 67, 64
8, 245580, Note_on_c, 6, 67, 105
8, 245580, Note_on_c, 6, 55, 105
8, 245631, Note_off_c, 6, 55, 64
8, 245631, Note_off_c, 6, 67, 64
8, 245640, Note_on_c, 6, 55, 105
8, 245640, Note_on_c, 6, 67, 105
8, 245691, Note_off_c, 6, 67, 64
8, 245691, Note_off_c, 6, 55, 64
8, 245700, Note_on_c, 6, 55, 105
8, 245700, Note_on_c, 6, 67, 105
8, 245751, Note_off_c, 6, 67, 64
8, 245751, Note_off_c, 6, 55, 64
8, 245760, Note_on_c, 6, 67, 105
8, 245760, Note_on_c, 6, 55, 105
8, 245952, Note_off_c, 6, 55, 64
8, 245952, Note_off_c, 6, 67, 64
8, 247440, Note_on_c, 6, 55, 72
8, 247680, Note_off_c, 6, 55, 64
8, 247680, Note_on_c, 6, 59, 58
8, 247848, Note_off_c, 6, 59, 64
8, 248400, Note_on_c, 6, 59, 58
8, 248640, Note_off_c, 6, 59, 64
8, 248640, Note_on_c, 6, 62, 58
8, 248808, Note_off_c, 6, 62, 64
8, 249360, Note_on_c, 6, 55, 58
8, 249600, Note_off_c, 6, 55, 64
8, 249600, Note_on_c, 6, 56, 72
8, 249840, Note_off_c, 6, 56, 64
8, 249840, Note_on_c, 6, 57, 72
8, 250080, Note_off_c, 6, 57, 64
8, 250080, Note_on_c, 6, 58, 72
8, 250320, Note_off_c, 6, 58, 64
8, 250320, Note_on_c, 6, 59, 72
8, 250512, Note_off_c, 6, 59, 64
8, 250560, Note_on_c, 6, 60, 72
8, 250656, Note_off_c, 6, 60, 64
8, 250680, Note_on_c, 6, 55, 72
8, 250776, Note_off_c, 6, 55, 64
8, 250800, Note_on_c, 6, 60, 72
8, 250896, Note_off_c, 6, 60, 64
8, 250920, Note_on_c, 6, 55, 72
8, 251016, Note_off_c, 6, 55, 64
8, 251040, Note_on_c, 6, 60, 72
8, 251136, Note_off_c, 6, 60, 64
8, 251160, Note_on_c, 6, 55, 72
8, 251256, Note_off_c, 6, 55, 64
8, 251280, Note_on_c, 6, 60, 72
8, 251376, Note_off_c, 6, 60, 64
8, 251400, Note_on_c, 6, 55, 72
8, 251496, Note_off_c, 6, 55, 64
8, 251520, Note_on_c, 6, 62, 72
8, 251616, Note_off_c, 6, 62, 64
8, 251640, Note_on_c, 6, 60, 72
8, 251736, Note_off_c, 6, 60, 64
8, 251760, Note_on_c, 6, 62, 72
8, 251856, Note_off_c, 6, 62, 64
8, 251880, Note_on_c, 6, 55, 72
8, 251976, Note_off_c, 6, 55, 64
8, 252000, Note_on_c, 6, 62, 72
8, 252096, Note_off_c, 6, 62, 64
8, 252120, Note_on_c, 6, 60, 72
8, 252216, Note_off_c, 6, 60, 64
8, 252240, Note_on_c, 6, 62, 72
8, 252336, Note_off_c, 6, 62, 64
8, 252360, Note_on_c, 6, 55, 72
8, 252456, Note_off_c, 6, 55, 64
8, 252480, Note_on_c, 6, 64, 72
8, 252864, Note_off_c, 6, 64, 64
8, 253200, Note_on_c, 6, 64, 72
8, 253344, Note_off_c, 6, 64, 64
8, 253440, Note_on_c, 6, 65, 72
8, 253584, Note_off_c, 6, 65, 64
8, 253680, Note_on_c, 6, 64, 72
8, 253824, Note_off_c, 6, 64, 64
8, 254640, Note_on_c, 6, 60, 72
8, 254880, Note_off_c, 6, 60, 64
8, 254880, Note_on_c, 6, 69, 72
8, 255120, Note_off_c, 6, 69, 64
8, 255120, Note_on_c, 6, 65, 72
8, 255600, Note_off_c, 6, 65, 64
8, 255600, Note_on_c, 6, 64, 72
8, 255720, Note_off_c, 6, 64, 64
8, 255720, Note_on_c, 6, 62, 72
8, 255816, Note_off_c, 6, 62, 64
8, 255840, Note_on_c, 6, 65, 72
8, 255864, Note_off_c, 6, 65, 64
8, 255870, Note_on_c, 6, 64, 72
8, 255900, Note_off_c, 6, 64, 64
8, 255900, Note_on_c, 6, 65, 72
8, 255930, Note_off_c, 6, 65, 64
8, 255930, Note_on_c, 6, 64, 72
8, 255960, Note_off_c, 6, 64, 64
8, 255960, Note_on_c, 6, 65, 72
8, 255990, Note_off_c, 6, 65, 64
8, 255990, Note_on_c, 6, 64, 72
8, 256020, Note_off_c, 6, 64, 64
8, 256020, Note_on_c, 6, 65, 72
8, 256050, Note_off_c, 6, 65, 64
8, 256050, Note_on_c, 6, 64, 72
8, 256080, Note_off_c, 6, 64, 64
8, 256080, Note_on_c, 6, 65, 72
8, 256110, Note_off_c, 6, 65, 64
8, 256110, Note_on_c, 6, 64, 72
8, 256140, Note_off_c, 6, 64, 64
8, 256140, Note_on_c, 6, 65, 72
8, 256170, Note_off_c, 6, 65, 64
8, 256170, Note_on_c, 6, 64, 72
8, 256200, Note_off_c, 6, 64, 64
8, 256200, Note_on_c, 6, 62, 72
8, 256260, Note_off_c, 6, 62, 64
8, 256260, Note_on_c, 6, 64, 72
8, 256320, Note_off_c, 6, 64, 64
8, 256320, Note_on_c, 6, 65, 72
8, 256512, Note_off_c, 6, 65, 64
8, 256560, Note_on_c, 6, 67, 72
8, 256944, Note_off_c, 6, 67, 64
8, 257040, Note_on_c, 6, 67, 72
8, 257184, Note_off_c, 6, 67, 64
8, 257280, Note_on_c, 6, 67, 72
8, 258360, Note_off_c, 6, 67, 64
8, 258360, Note_on_c, 6, 65, 72
8, 258432, Note_off_c, 6, 65, 64
8, 258480, Note_on_c, 6, 64, 72
8, 258552, Note_off_c, 6, 64, 64
8, 258600, Note_on_c, 6, 65, 72
8, 258672, Note_off_c, 6, 65, 64
8, 258720, Note_on_c, 6, 64, 72
8, 258840, Note_off_c, 6, 64, 64
8, 258840, Note_on_c, 6, 62, 72
8, 258912, Note_off_c, 6, 62, 64
8, 258960, Note_on_c, 6, 61, 72
8, 259032, Note_off_c, 6, 61, 64
8, 259080, Note_on_c, 6, 62, 72
8, 259152, Note_off_c, 6, 62, 64
8, 259200, Note_on_c, 6, 60, 72
8, 259680, Note_off_c, 6, 60, 64
8, 259680, Note_on_c, 6, 59, 58
8, 259872, Note_off_c, 6, 59, 64
8, 260160, Note_on_c, 6, 72, 125
8, 260304, Note_off_c, 6, 72, 64
8, 260400, Note_on_c, 6, 60, 125
8, 260976, Note_off_c, 6, 60, 64
8, 261120, Note_on_c, 6, 74, 125
8, 261264, Note_off_c, 6, 74, 64
8, 261360, Note_on_c, 6, 62, 125
8, 261936, Note_off_c, 6, 62, 64
8, 262080, Note_on_c, 6, 76, 125
8, 262440, Note_off_c, 6, 76, 64
8, 262440, Note_on_c, 6, 77, 105
8, 262500, Note_off_c, 6, 77, 64
8, 262500, Note_on_c, 6, 74, 105
8, 262548, Note_off_c, 6, 74, 64
8, 262560, Note_on_c, 6, 76, 105
8, 262704, Note_off_c, 6, 76, 64
8, 262800, Note_on_c, 6, 76, 105
8, 262944, Note_off_c, 6, 76, 64
8, 263040, Note_on_c, 6, 72, 105
8, 263040, Note_on_c, 6, 77, 105
8, 263208, Note_off_c, 6, 77, 64
8, 263208, Note_off_c, 6, 72, 64
8, 263280, Note_on_c, 6, 76, 105
8, 263280, Note_on_c, 6, 72, 105
8, 263448, Note_off_c, 6, 72, 64
8, 263448, Note_off_c, 6, 76, 64
8, 263760, Note_on_c, 6, 76, 105
8, 263760, Note_on_c, 6, 72, 105
8, 263928, Note_off_c, 6, 72, 64
8, 263928, Note_off_c, 6, 76, 64
8, 264000, Note_on_c, 6, 72, 105
8, 264000, Note_on_c, 6, 77, 105
8, 264168, Note_off_c, 6, 77, 64
8, 264168, Note_off_c, 6, 72, 64
8, 264240, Note_on_c, 6, 76, 105
8, 264240, Note_on_c, 6, 72, 105
8, 264408, Note_off_c, 6, 72, 64
8, 264408, Note_off_c, 6, 76, 64
8, 264720, Note_on_c, 6, 76, 105
8, 264720, Note_on_c, 6, 72, 105
8, 264888, Note_off_c, 6, 72, 64
8, 264888, Note_off_c, 6, 76, 64
8, 264960, Note_on_c, 6, 77, 105
8, 264960, Note_on_c, 6, 72, 105
8, 265128, Note_off_c, 6, 72, 64
8, 265128, Note_off_c, 6, 77, 64
8, 265200, Note_on_c, 6, 72, 105
8, 265200, Note_on_c, 6, 76, 105
8, 265368, Note_off_c, 6, 76, 64
8, 265368, Note_off_c, 6, 72, 64
8, 265440, Note_on_c, 6, 77, 105
8, 265440, Note_on_c, 6, 72, 105
8, 265608, Note_off_c, 6, 72, 64
8, 265608, Note_off_c, 6, 77, 64
8, 265680, Note_on_c, 6, 72, 105
8, 265680, Note_on_c, 6, 76, 105
8, 265848, Note_off_c, 6, 76, 64
8, 265848, Note_off_c, 6, 72, 64
8, 265920, Note_on_c, 6, 72, 105
8, 265920, Note_on_c, 6, 77, 105
8, 266088, Note_off_c, 6, 77, 64
8, 266088, Note_off_c, 6, 72, 64
8, 266160, Note_on_c, 6, 76, 105
8, 266160, Note_on_c, 6, 72, 105
8, 266328, Note_off_c, 6, 72, 64
8, 266328, Note_off_c, 6, 76, 64
8, 267000, Note_on_c, 6, 72, 72
8, 267120, Note_off_c, 6, 72, 64
8, 267120, Note_on_c, 6, 74, 72
8, 267240, Note_off_c, 6, 74, 64
8, 267240, Note_on_c, 6, 76, 72
8, 267360, Note_off_c, 6, 76, 64
8, 267360, Note_on_c, 6, 77, 72
8, 267480, Note_off_c, 6, 77, 64
8, 267480, Note_on_c, 6, 79, 72
8, 267600, Note_off_c, 6, 79, 64
8, 267600, Note_on_c, 6, 81, 72
8, 267720, Note_off_c, 6, 81, 64
8, 267720, Note_on_c, 6, 77, 72
8, 267816, Note_off_c, 6, 77, 64
8, 267840, Note_on_c, 6, 76, 72
8, 267960, Note_off_c, 6, 76, 64
8, 267960, Note_on_c, 6, 74, 72
8, 268080, Note_off_c, 6, 74, 64
8, 268080, Note_on_c, 6, 72, 72
8, 268200, Note_off_c, 6, 72, 64
8, 268200, Note_on_c, 6, 70, 72
8, 268320, Note_off_c, 6, 70, 64
8, 268320, Note_on_c, 6, 69, 72
8, 268440, Note_off_c, 6, 69, 64
8, 268440, Note_on_c, 6, 67, 72
8, 268560, Note_off_c, 6, 67, 64
8, 268560, Note_on_c, 6, 65, 72
8, 268680, Note_off_c, 6, 65, 64
8, 268680, Note_on_c, 6, 64, 72
8, 268776, Note_off_c, 6, 64, 64
8, 268800, Note_on_c, 6, 64, 72
8, 268920, Note_off_c, 6, 64, 64
8, 268920, Note_on_c, 6, 65, 72
8, 269040, Note_off_c, 6, 65, 64
8, 269040, Note_on_c, 6, 69, 72
8, 269160, Note_off_c, 6, 69, 64
8, 269160, Note_on_c, 6, 65, 72
8, 269256, Note_off_c, 6, 65, 64
8, 269280, Note_on_c, 6, 68, 72
8, 269400, Note_off_c, 6, 68, 64
8, 269400, Note_on_c, 6, 69, 72
8, 269520, Note_off_c, 6, 69, 64
8, 269520, Note_on_c, 6, 72, 72
8, 269640, Note_off_c, 6, 72, 64
8, 269640, Note_on_c, 6, 69, 72
8, 269736, Note_off_c, 6, 69, 64
8, 269760, Note_on_c, 6, 67, 72
8, 269880, Note_off_c, 6, 67, 64
8, 269880, Note_on_c, 6, 65, 72
8, 270000, Note_off_c, 6, 65, 64
8, 270000, Note_on_c, 6, 62, 72
8, 270120, Note_off_c, 6, 62, 64
8, 270120, Note_on_c, 6, 61, 72
8, 270216, Note_off_c, 6, 61, 64
8, 270240, Note_on_c, 6, 64, 72
8, 270360, Note_off_c, 6, 64, 64
8, 270360, Note_on_c, 6, 62, 72
8, 270480, Note_off_c, 6, 62, 64
8, 270480, Note_on_c, 6, 67, 72
8, 270600, Note_off_c, 6, 67, 64
8, 270600, Note_on_c, 6, 65, 72
8, 270696, Note_off_c, 6, 65, 64
8, 270720, Note_on_c, 6, 64, 72
8, 270840, Note_off_c, 6, 64, 64
8, 270840, Note_on_c, 6, 67, 72
8, 270960, Note_off_c, 6, 67, 64
8, 270960, Note_on_c, 6, 64, 72
8, 271080, Note_off_c, 6, 64, 64
8, 271080, Note_on_c, 6, 67, 72
8, 271176, Note_off_c, 6, 67, 64
8, 271200, Note_on_c, 6, 64, 72
8, 271320, Note_off_c, 6, 64, 64
8, 271320, Note_on_c, 6, 67, 72
8, 271440, Note_off_c, 6, 67, 64
8, 271440, Note_on_c, 6, 65, 72
8, 271560, Note_off_c, 6, 65, 64
8, 271560, Note_on_c, 6, 62, 72
8, 271656, Note_off_c, 6, 62, 64
8, 271680, Note_on_c, 6, 64, 92
8, 271872, Note_off_c, 6, 64, 64
8, 272640, Note_on_c, 6, 79, 105
8, 272808, Note_off_c, 6, 79, 64
8, 272880, Note_on_c, 6, 79, 105
8, 273006, Note_off_c, 6, 79, 64
8, 273060, Note_on_c, 6, 79, 105
8, 273102, Note_off_c, 6, 79, 64
8, 273120, Note_on_c, 6, 79, 105
8, 273288, Note_off_c, 6, 79, 64
8, 273360, Note_on_c, 6, 79, 105
8, 273528, Note_off_c, 6, 79, 64
8, 273600, Note_on_c, 6, 84, 105
8, 273984, Note_off_c, 6, 84, 64
8, 274080, Note_on_c, 6, 76, 105
8, 274464, Note_off_c, 6, 76, 64
8, 274560, Note_on_c, 6, 74, 105
8, 274920, Note_off_c, 6, 74, 64
8, 274920, Note_on_c, 6, 77, 105
8, 274980, Note_off_c, 6, 77, 64
8, 274980, Note_on_c, 6, 81, 105
8, 275028, Note_off_c, 6, 81, 64
8, 275040, Note_on_c, 6, 72, 105
8, 275280, Note_off_c, 6, 72, 64
8, 275280, Note_on_c, 6, 71, 105
8, 275508, Note_off_c, 6, 71, 64
8, 275520, Note_on_c, 6, 72, 105
8, 275712, Note_off_c, 6, 72, 64
8, 276480, Note_on_c, 6, 79, 105
8, 276648, Note_off_c, 6, 79, 64
8, 276720, Note_on_c, 6, 79, 105
8, 276846, Note_off_c, 6, 79, 64
8, 276900, Note_on_c, 6, 79, 105
8, 276942, Note_off_c, 6, 79, 64
8, 276960, Note_on_c, 6, 79, 105
8, 277128, Note_off_c, 6, 79, 64
8, 277200, Note_on_c, 6, 79, 105
8, 277368, Note_off_c, 6, 79, 64
8, 277440, Note_on_c, 6, 84, 105
8, 277824, Note_off_c, 6, 84, 64
8, 277920, Note_on_c, 6, 76, 105
8, 278304, Note_off_c, 6, 76, 64
8, 278400, Note_on_c, 6, 74, 105
8, 278568, Note_off_c, 6, 74, 64
8, 278640, Note_on_c, 6, 74, 105
8, 278766, Note_off_c, 6, 74, 64
8, 278820, Note_on_c, 6, 74, 105
8, 278862, Note_off_c, 6, 74, 64
8, 278880, Note_on_c, 6, 74, 105
8, 279048, Note_off_c, 6, 74, 64
8, 279120, Note_on_c, 6, 74, 105
8, 279288, Note_off_c, 6, 74, 64
8, 279360, Note_on_c, 6, 82, 105
8, 279744, Note_off_c, 6, 82, 64
8, 279840, Note_on_c, 6, 74, 105
8, 280224, Note_off_c, 6, 74, 64
8, 280320, Note_on_c, 6, 72, 105
8, 280488, Note_off_c, 6, 72, 64
8, 280560, Note_on_c, 6, 72, 105
8, 280686, Note_off_c, 6, 72, 64
8, 280740, Note_on_c, 6, 72, 105
8, 280782, Note_off_c, 6, 72, 64
8, 280800, Note_on_c, 6, 72, 105
8, 280968, Note_off_c, 6, 72, 64
8, 281040, Note_on_c, 6, 72, 105
8, 281208, Note_off_c, 6, 72, 64
8, 281280, Note_on_c, 6, 81, 105
8, 281664, Note_off_c, 6, 81, 64
8, 281760, Note_on_c, 6, 72, 105
8, 282144, Note_off_c, 6, 72, 64
8, 282240, Note_on_c, 6, 70, 105
8, 282408, Note_off_c, 6, 70, 64
8, 282480, Note_on_c, 6, 70, 105
8, 282606, Note_off_c, 6, 70, 64
8, 282660, Note_on_c, 6, 70, 105
8, 282702, Note_off_c, 6, 70, 64
8, 282720, Note_on_c, 6, 70, 105
8, 282888, Note_off_c, 6, 70, 64
8, 282960, Note_on_c, 6, 70, 105
8, 283128, Note_off_c, 6, 70, 64
8, 283200, Note_on_c, 6, 82, 105
8, 283584, Note_off_c, 6, 82, 64
8, 283680, Note_on_c, 6, 70, 105
8, 284064, Note_off_c, 6, 70, 64
8, 284160, Note_on_c, 6, 69, 105
8, 284244, Note_off_c, 6, 69, 64
8, 284280, Note_on_c, 6, 84, 105
8, 284364, Note_off_c, 6, 84, 64
8, 284400, Note_on_c, 6, 84, 105
8, 284484, Note_off_c, 6, 84, 64
8, 284520, Note_on_c, 6, 84, 105
8, 284604, Note_off_c, 6, 84, 64
8, 284640, Note_on_c, 6, 84, 105
8, 284808, Note_off_c, 6, 84, 64
8, 284880, Note_on_c, 6, 77, 105
8, 285048, Note_off_c, 6, 77, 64
8, 285120, Note_on_c, 6, 76, 105
8, 285264, Note_off_c, 6, 76, 64
8, 285360, Note_on_c, 6, 77, 105
8, 285504, Note_off_c, 6, 77, 64
8, 285600, Note_on_c, 6, 79, 105
8, 285960, Note_off_c, 6, 79, 64
8, 285960, Note_on_c, 6, 81, 105
8, 286020, Note_off_c, 6, 81, 64
8, 286020, Note_on_c, 6, 82, 105
8, 286068, Note_off_c, 6, 82, 64
8, 286080, Note_on_c, 6, 81, 105
8, 286200, Note_off_c, 6, 81, 64
8, 286200, Note_on_c, 6, 77, 105
8, 286272, Note_off_c, 6, 77, 64
8, 286320, Note_on_c, 6, 84, 105
8, 286392, Note_off_c, 6, 84, 64
8, 286440, Note_on_c, 6, 84, 105
8, 286512, Note_off_c, 6, 84, 64
8, 286560, Note_on_c, 6, 84, 105
8, 286728, Note_off_c, 6, 84, 64
8, 286800, Note_on_c, 6, 77, 105
8, 286968, Note_off_c, 6, 77, 64
8, 287040, Note_on_c, 6, 76, 105
8, 287184, Note_off_c, 6, 76, 64
8, 287280, Note_on_c, 6, 77, 105
8, 287424, Note_off_c, 6, 77, 64
8, 287520, Note_on_c, 6, 79, 105
8, 287880, Note_off_c, 6, 79, 64
8, 287880, Note_on_c, 6, 81, 105
8, 287940, Note_off_c, 6, 81, 64
8, 287940, Note_on_c, 6, 82, 105
8, 287988, Note_off_c, 6, 82, 64
8, 288000, Note_on_c, 6, 81, 105
8, 288144, Note_off_c, 6, 81, 64
8, 288240, Note_on_c, 6, 69, 72
8, 288720, Note_off_c, 6, 69, 64
8, 288720, Note_on_c, 6, 67, 72
8, 288912, Note_off_c, 6, 67, 64
8, 288960, Note_on_c, 6, 67, 105
8, 289020, Note_off_c, 6, 67, 64
8, 289020, Note_on_c, 6, 65, 105
8, 289164, Note_off_c, 6, 65, 64
8, 289200, Note_on_c, 6, 65, 105
8, 289680, Note_off_c, 6, 65, 64
8, 289680, Note_on_c, 6, 64, 72
8, 289872, Note_off_c, 6, 64, 64
8, 289920, Note_on_c, 6, 62, 72
8, 289992, Note_off_c, 6, 62, 64
8, 290040, Note_on_c, 6, 61, 105
8, 290112, Note_off_c, 6, 61, 64
8, 290160, Note_on_c, 6, 62, 105
8, 290232, Note_off_c, 6, 62, 64
8, 290280, Note_on_c, 6, 61, 105
8, 290352, Note_off_c, 6, 61, 64
8, 290400, Note_on_c, 6, 62, 105
8, 290472, Note_off_c, 6, 62, 64
8, 290520, Note_on_c, 6, 61, 105
8, 290592, Note_off_c, 6, 61, 64
8, 290640, Note_on_c, 6, 62, 105
8, 290712, Note_off_c, 6, 62, 64
8, 290760, Note_on_c, 6, 64, 105
8, 290832, Note_off_c, 6, 64, 64
8, 290880, Note_on_c, 6, 65, 105
8, 290952, Note_off_c, 6, 65, 64
8, 291000, Note_on_c, 6, 64, 105
8, 291072, Note_off_c, 6, 64, 64
8, 291120, Note_on_c, 6, 65, 105
8, 291192, Note_off_c, 6, 65, 64
8, 291240, Note_on_c, 6, 64, 105
8, 291312, Note_off_c, 6, 64, 64
8, 291360, Note_on_c, 6, 65, 105
8, 291432, Note_off_c, 6, 65, 64
8, 291480, Note_on_c, 6, 64, 105
8, 291552, Note_off_c, 6, 64, 64
8, 291600, Note_on_c, 6, 65, 105
8, 291672, Note_off_c, 6, 65, 64
8, 291720, Note_on_c, 6, 67, 105
8, 291792, Note_off_c, 6, 67, 64
8, 291840, Note_on_c, 6, 69, 105
8, 291912, Note_off_c, 6, 69, 64
8, 291960, Note_on_c, 6, 68, 105
8, 292032, Note_off_c, 6, 68, 64
8, 292080, Note_on_c, 6, 69, 105
8, 292152, Note_off_c, 6, 69, 64
8, 292200, Note_on_c, 6, 68, 105
8, 292272, Note_off_c, 6, 68, 64
8, 292320, Note_on_c, 6, 69, 105
8, 292392, Note_off_c, 6, 69, 64
8, 292440, Note_on_c, 6, 68, 105
8, 292512, Note_off_c, 6, 68, 64
8, 292560, Note_on_c, 6, 69, 105
8, 292632, Note_off_c, 6, 69, 64
8, 292680, Note_on_c, 6, 71, 105
8, 292752, Note_off_c, 6, 71, 64
8, 292800, Note_on_c, 6, 72, 105
8, 292872, Note_off_c, 6, 72, 64
8, 292920, Note_on_c, 6, 71, 105
8, 292992, Note_off_c, 6, 71, 64
8, 293040, Note_on_c, 6, 72, 105
8, 293112, Note_off_c, 6, 72, 64
8, 293160, Note_on_c, 6, 71, 105
8, 293232, Note_off_c, 6, 71, 64
8, 293280, Note_on_c, 6, 72, 105
8, 293352, Note_off_c, 6, 72, 64
8, 293400, Note_on_c, 6, 71, 105
8, 293472, Note_off_c, 6, 71, 64
8, 293520, Note_on_c, 6, 72, 105
8, 293592, Note_off_c, 6, 72, 64
8, 293640, Note_on_c, 6, 74, 105
8, 293712, Note_off_c, 6, 74, 64
8, 293760, Note_on_c, 6, 76, 105
8, 293952, Note_off_c, 6, 76, 64
8, 295680, Note_on_c, 6, 60, 58
8, 296592, Note_off_c, 6, 60, 64
8, 296640, Note_on_c, 6, 63, 58
8, 297360, Note_off_c, 6, 63, 64
8, 297360, Note_on_c, 6, 60, 58
8, 297552, Note_off_c, 6, 60, 64
8, 297600, Note_on_c, 6, 62, 72
8, 297768, Note_off_c, 6, 62, 64
8, 297840, Note_on_c, 6, 65, 72
8, 298320, Note_off_c, 6, 65, 64
8, 298320, Note_on_c, 6, 64, 72
8, 298488, Note_off_c, 6, 64, 64
8, 298560, Note_on_c, 6, 62, 72
8, 298728, Note_off_c, 6, 62, 64
8, 298800, Note_on_c, 6, 65, 72
8, 299280, Note_off_c, 6, 65, 64
8, 299280, Note_on_c, 6, 64, 72
8, 299448, Note_off_c, 6, 64, 64
8, 299520, Note_on_c, 6, 65, 58
8, 299640, Note_off_c, 6, 65, 64
8, 299640, Note_on_c, 6, 60, 58
8, 299724, Note_off_c, 6, 60, 64
8, 299760, Note_on_c, 6, 60, 58
8, 299844, Note_off_c, 6, 60, 64
8, 299880, Note_on_c, 6, 60, 58
8, 299964, Note_off_c, 6, 60, 64
8, 300000, Note_on_c, 6, 60, 58
8, 300084, Note_off_c, 6, 60, 64
8, 300120, Note_on_c, 6, 60, 58
8, 300204, Note_off_c, 6, 60, 64
8, 300240, Note_on_c, 6, 60, 58
8, 300324, Note_off_c, 6, 60, 64
8, 300360, Note_on_c, 6, 60, 58
8, 300444, Note_off_c, 6, 60, 64
8, 300480, Note_on_c, 6, 60, 58
8, 300564, Note_off_c, 6, 60, 64
8, 300600, Note_on_c, 6, 60, 58
8, 300684, Note_off_c, 6, 60, 64
8, 300720, Note_on_c, 6, 60, 58
8, 300804, Note_off_c, 6, 60, 64
8, 300840, Note_on_c, 6, 60, 58
8, 300924, Note_off_c, 6, 60, 64
8, 300960, Note_on_c, 6, 60, 58
8, 301044, Note_off_c, 6, 60, 64
8, 301080, Note_on_c, 6, 60, 58
8, 301164, Note_off_c, 6, 60, 64
8, 301200, Note_on_c, 6, 72, 58
8, 301284, Note_off_c, 6, 72, 64
8, 301320, Note_on_c, 6, 72, 58
8, 301404, Note_off_c, 6, 72, 64
8, 301440, Note_on_c, 6, 69, 58
8, 301632, Note_off_c, 6, 69, 64
8, 301920, Note_on_c, 6, 65, 58
8, 302112, Note_off_c, 6, 65, 64
8, 302400, Note_on_c, 6, 64, 58
8, 302592, Note_off_c, 6, 64, 64
8, 302880, Note_on_c, 6, 81, 105
8, 302880, Note_on_c, 6, 69, 105
8, 303036, Note_off_c, 6, 69, 64
8, 303036, Note_off_c, 6, 81, 64
8, 303120, Note_on_c, 6, 69, 105
8, 303120, Note_on_c, 6, 81, 105
8, 303276, Note_off_c, 6, 81, 64
8, 303276, Note_off_c, 6, 69, 64
8, 303360, Note_on_c, 6, 69, 105
8, 303360, Note_on_c, 6, 81, 105
8, 303744, Note_off_c, 6, 81, 64
8, 303744, Note_off_c, 6, 69, 64
8, 303840, Note_on_c, 6, 76, 105
8, 304224, Note_off_c, 6, 76, 64
8, 304320, Note_on_c, 6, 72, 105
8, 304476, Note_off_c, 6, 72, 64
8, 304560, Note_on_c, 6, 69, 105
8, 304716, Note_off_c, 6, 69, 64
8, 304800, Note_on_c, 6, 76, 105
8, 304956, Note_off_c, 6, 76, 64
8, 305040, Note_on_c, 6, 76, 105
8, 305196, Note_off_c, 6, 76, 64
8, 305280, Note_on_c, 6, 72, 105
8, 305436, Note_off_c, 6, 72, 64
8, 305520, Note_on_c, 6, 69, 105
8, 305676, Note_off_c, 6, 69, 64
8, 305760, Note_on_c, 6, 76, 105
8, 305916, Note_off_c, 6, 76, 64
8, 306000, Note_on_c, 6, 76, 105
8, 306156, Note_off_c, 6, 76, 64
8, 306240, Note_on_c, 6, 72, 105
8, 306396, Note_off_c, 6, 72, 64
8, 306480, Note_on_c, 6, 69, 105
8, 306636, Note_off_c, 6, 69, 64
8, 308280, Note_on_c, 6, 81, 72
8, 308352, Note_off_c, 6, 81, 64
8, 308400, Note_on_c, 6, 81, 72
8, 308472, Note_off_c, 6, 81, 64
8, 308520, Note_on_c, 6, 81, 72
8, 308592, Note_off_c, 6, 81, 64
8, 308640, Note_on_c, 6, 83, 72
8, 308760, Note_off_c, 6, 83, 64
8, 308760, Note_on_c, 6, 81, 72
8, 308832, Note_off_c, 6, 81, 64
8, 308880, Note_on_c, 6, 79, 72
8, 308952, Note_off_c, 6, 79, 64
8, 309000, Note_on_c, 6, 77, 72
8, 309072, Note_off_c, 6, 77, 64
8, 309120, Note_on_c, 6, 77, 72
8, 309240, Note_off_c, 6, 77, 64
8, 309240, Note_on_c, 6, 76, 72
8, 309312, Note_off_c, 6, 76, 64
8, 309360, Note_on_c, 6, 72, 72
8, 309432, Note_off_c, 6, 72, 64
8, 309480, Note_on_c, 6, 76, 72
8, 309552, Note_off_c, 6, 76, 64
8, 309600, Note_on_c, 6, 76, 72
8, 309720, Note_off_c, 6, 76, 64
8, 309720, Note_on_c, 6, 74, 72
8, 309792, Note_off_c, 6, 74, 64
8, 309840, Note_on_c, 6, 72, 72
8, 309912, Note_off_c, 6, 72, 64
8, 309960, Note_on_c, 6, 71, 72
8, 310032, Note_off_c, 6, 71, 64
8, 310080, Note_on_c, 6, 72, 58
8, 310272, Note_off_c, 6, 72, 64
8, 311040, Note_on_c, 6, 64, 30
8, 312192, Note_off_c, 6, 64, 64
8, 312240, Note_on_c, 6, 62, 58
8, 312360, Note_off_c, 6, 62, 64
8, 312360, Note_on_c, 6, 60, 58
8, 312456, Note_off_c, 6, 60, 64
8, 312480, Note_on_c, 6, 59, 58
8, 312576, Note_off_c, 6, 59, 64
8, 312600, Note_on_c, 6, 64, 58
8, 312720, Note_off_c, 6, 64, 64
8, 312720, Note_on_c, 6, 66, 58
8, 312840, Note_off_c, 6, 66, 64
8, 312840, Note_on_c, 6, 68, 58
8, 312936, Note_off_c, 6, 68, 64
8, 312960, Note_on_c, 6, 69, 58
8, 313056, Note_off_c, 6, 69, 64
8, 313080, Note_on_c, 6, 64, 58
8, 313200, Note_off_c, 6, 64, 64
8, 313200, Note_on_c, 6, 62, 58
8, 313320, Note_off_c, 6, 62, 64
8, 313320, Note_on_c, 6, 60, 58
8, 313416, Note_off_c, 6, 60, 64
8, 313440, Note_on_c, 6, 59, 58
8, 313536, Note_off_c, 6, 59, 64
8, 313560, Note_on_c, 6, 64, 58
8, 313680, Note_off_c, 6, 64, 64
8, 313680, Note_on_c, 6, 66, 58
8, 313800, Note_off_c, 6, 66, 64
8, 313800, Note_on_c, 6, 68, 58
8, 313896, Note_off_c, 6, 68, 64
8, 313920, Note_on_c, 6, 69, 58
8, 314112, Note_off_c, 6, 69, 64
8, 314400, Note_on_c, 6, 69, 105
8, 314400, Note_on_c, 6, 77, 105
8, 314544, Note_off_c, 6, 77, 64
8, 314544, Note_off_c, 6, 69, 64
8, 314640, Note_on_c, 6, 69, 105
8, 314640, Note_on_c, 6, 77, 105
8, 314784, Note_off_c, 6, 77, 64
8, 314784, Note_off_c, 6, 69, 64
8, 314880, Note_on_c, 6, 65, 105
8, 314880, Note_on_c, 6, 77, 105
8, 315264, Note_off_c, 6, 77, 64
8, 315264, Note_off_c, 6, 65, 64
8, 315360, Note_on_c, 6, 84, 105
8, 315744, Note_off_c, 6, 84, 64
8, 315840, Note_on_c, 6, 77, 105
8, 315870, Note_off_c, 6, 77, 64
8, 315870, Note_on_c, 6, 79, 105
8, 315900, Note_off_c, 6, 79, 64
8, 315900, Note_on_c, 6, 81, 105
8, 316044, Note_off_c, 6, 81, 64
8, 316080, Note_on_c, 6, 81, 105
8, 316152, Note_off_c, 6, 81, 64
8, 316200, Note_on_c, 6, 81, 105
8, 316272, Note_off_c, 6, 81, 64
8, 316320, Note_on_c, 6, 81, 105
8, 316440, Note_off_c, 6, 81, 64
8, 316440, Note_on_c, 6, 77, 105
8, 316536, Note_off_c, 6, 77, 64
8, 316560, Note_on_c, 6, 77, 105
8, 316680, Note_off_c, 6, 77, 64
8, 316680, Note_on_c, 6, 74, 105
8, 316776, Note_off_c, 6, 74, 64
8, 316800, Note_on_c, 6, 72, 105
8, 316830, Note_off_c, 6, 72, 64
8, 316830, Note_on_c, 6, 74, 105
8, 316860, Note_off_c, 6, 74, 64
8, 316860, Note_on_c, 6, 76, 105
8, 317004, Note_off_c, 6, 76, 64
8, 317040, Note_on_c, 6, 76, 105
8, 317112, Note_off_c, 6, 76, 64
8, 317160, Note_on_c, 6, 76, 105
8, 317232, Note_off_c, 6, 76, 64
8, 317280, Note_on_c, 6, 76, 105
8, 317400, Note_off_c, 6, 76, 64
8, 317400, Note_on_c, 6, 72, 105
8, 317496, Note_off_c, 6, 72, 64
8, 317520, Note_on_c, 6, 74, 105
8, 317640, Note_off_c, 6, 74, 64
8, 317640, Note_on_c, 6, 71, 105
8, 317736, Note_off_c, 6, 71, 64
8, 317760, Note_on_c, 6, 72, 105
8, 317952, Note_off_c, 6, 72, 64
8, 318120, Note_on_c, 6, 67, 105
8, 318204, Note_off_c, 6, 67, 64
8, 318240, Note_on_c, 6, 69, 105
8, 318324, Note_off_c, 6, 69, 64
8, 318360, Note_on_c, 6, 65, 105
8, 318444, Note_off_c, 6, 65, 64
8, 318480, Note_on_c, 6, 71, 105
8, 318564, Note_off_c, 6, 71, 64
8, 318600, Note_on_c, 6, 67, 105
8, 318684, Note_off_c, 6, 67, 64
8, 318720, Note_on_c, 6, 72, 105
8, 318804, Note_off_c, 6, 72, 64
8, 318840, Note_on_c, 6, 69, 105
8, 318924, Note_off_c, 6, 69, 64
8, 318960, Note_on_c, 6, 74, 105
8, 319044, Note_off_c, 6, 74, 64
8, 319080, Note_on_c, 6, 71, 105
8, 319164, Note_off_c, 6, 71, 64
8, 319200, Note_on_c, 6, 76, 105
8, 319284, Note_off_c, 6, 76, 64
8, 319320, Note_on_c, 6, 72, 105
8, 319404, Note_off_c, 6, 72, 64
8, 319440, Note_on_c, 6, 77, 105
8, 319524, Note_off_c, 6, 77, 64
8, 319560, Note_on_c, 6, 74, 105
8, 319644, Note_off_c, 6, 74, 64
8, 319680, Note_on_c, 6, 79, 105
8, 319728, Note_off_c, 6, 79, 64
8, 319740, Note_on_c, 6, 79, 105
8, 319788, Note_off_c, 6, 79, 64
8, 319800, Note_on_c, 6, 79, 105
8, 319848, Note_off_c, 6, 79, 64
8, 319860, Note_on_c, 6, 79, 105
8, 319908, Note_off_c, 6, 79, 64
8, 319920, Note_on_c, 6, 76, 105
8, 319968, Note_off_c, 6, 76, 64
8, 319980, Note_on_c, 6, 76, 105
8, 320028, Note_off_c, 6, 76, 64
8, 320040, Note_on_c, 6, 76, 105
8, 320088, Note_off_c, 6, 76, 64
8, 320100, Note_on_c, 6, 76, 105
8, 320148, Note_off_c, 6, 76, 64
8, 320160, Note_on_c, 6, 74, 105
8, 320208, Note_off_c, 6, 74, 64
8, 320220, Note_on_c, 6, 74, 105
8, 320268, Note_off_c, 6, 74, 64
8, 320280, Note_on_c, 6, 74, 105
8, 320328, Note_off_c, 6, 74, 64
8, 320340, Note_on_c, 6, 74, 105
8, 320388, Note_off_c, 6, 74, 64
8, 320400, Note_on_c, 6, 74, 105
8, 320448, Note_off_c, 6, 74, 64
8, 320460, Note_on_c, 6, 74, 105
8, 320508, Note_off_c, 6, 74, 64
8, 320520, Note_on_c, 6, 74, 105
8, 320568, Note_off_c, 6, 74, 64
8, 320580, Note_on_c, 6, 74, 105
8, 320628, Note_off_c, 6, 74, 64
8, 320640, Note_on_c, 6, 72, 105
8, 320808, Note_off_c, 6, 72, 64
8, 320880, Note_on_c, 6, 81, 105
8, 320910, Note_off_c, 6, 81, 64
8, 320910, Note_on_c, 6, 79, 105
8, 320940, Note_off_c, 6, 79, 64
8, 320940, Note_on_c, 6, 81, 105
8, 320970, Note_off_c, 6, 81, 64
8, 320970, Note_on_c, 6, 79, 105
8, 321000, Note_off_c, 6, 79, 64
8, 321000, Note_on_c, 6, 81, 105
8, 321030, Note_off_c, 6, 81, 64
8, 321030, Note_on_c, 6, 79, 105
8, 321060, Note_off_c, 6, 79, 64
8, 321060, Note_on_c, 6, 77, 105
8, 321090, Note_off_c, 6, 77, 64
8, 321090, Note_on_c, 6, 79, 105
8, 321120, Note_off_c, 6, 79, 64
8, 321120, Note_on_c, 6, 81, 105
8, 321288, Note_off_c, 6, 81, 64
8, 321360, Note_on_c, 6, 62, 105
8, 321360, Note_on_c, 6, 71, 105
8, 321360, Note_on_c, 6, 55, 105
8, 321528, Note_off_c, 6, 55, 64
8, 321528, Note_off_c, 6, 71, 64
8, 321528, Note_off_c, 6, 62, 64
8, 321600, Note_on_c, 6, 55, 105
8, 321600, Note_on_c, 6, 72, 105
8, 321600, Note_on_c, 6, 64, 105
8, 321792, Note_off_c, 6, 64, 64
8, 321792, Note_off_c, 6, 72, 64
8, 321792, Note_off_c, 6, 55, 64
8, 321960, Note_on_c, 6, 67, 105
8, 322044, Note_off_c, 6, 67, 64
8, 322080, Note_on_c, 6, 57, 105
8, 322164, Note_off_c, 6, 57, 64
8, 322200, Note_on_c, 6, 69, 105
8, 322284, Note_off_c, 6, 69, 64
8, 322320, Note_on_c, 6, 59, 105
8, 322404, Note_off_c, 6, 59, 64
8, 322440, Note_on_c, 6, 71, 105
8, 322524, Note_off_c, 6, 71, 64
8, 322560, Note_on_c, 6, 60, 105
8, 322644, Note_off_c, 6, 60, 64
8, 322680, Note_on_c, 6, 72, 105
8, 322764, Note_off_c, 6, 72, 64
8, 322800, Note_on_c, 6, 62, 105
8, 322884, Note_off_c, 6, 62, 64
8, 322920, Note_on_c, 6, 74, 105
8, 323004, Note_off_c, 6, 74, 64
8, 323040, Note_on_c, 6, 64, 105
8, 323124, Note_off_c, 6, 64, 64
8, 323160, Note_on_c, 6, 76, 105
8, 323244, Note_off_c, 6, 76, 64
8, 323280, Note_on_c, 6, 65, 105
8, 323364, Note_off_c, 6, 65, 64
8, 323400, Note_on_c, 6, 77, 105
8, 323484, Note_off_c, 6, 77, 64
8, 323520, Note_on_c, 6, 79, 105
8, 323568, Note_off_c, 6, 79, 64
8, 323580, Note_on_c, 6, 79, 105
8, 323628, Note_off_c, 6, 79, 64
8, 323640, Note_on_c, 6, 79, 105
8, 323688, Note_off_c, 6, 79, 64
8, 323700, Note_on_c, 6, 79, 105
8, 323748, Note_off_c, 6, 79, 64
8, 323760, Note_on_c, 6, 76, 105
8, 323808, Note_off_c, 6, 76, 64
8, 323820, Note_on_c, 6, 76, 105
8, 323868, Note_off_c, 6, 76, 64
8, 323880, Note_on_c, 6, 76, 105
8, 323928, Note_off_c, 6, 76, 64
8, 323940, Note_on_c, 6, 76, 105
8, 323988, Note_off_c, 6, 76, 64
8, 324000, Note_on_c, 6, 77, 105
8, 324048, Note_off_c, 6, 77, 64
8, 324060, Note_on_c, 6, 77, 105
8, 324108, Note_off_c, 6, 77, 64
8, 324120, Note_on_c, 6, 77, 105
8, 324168, Note_off_c, 6, 77, 64
8, 324180, Note_on_c, 6, 77, 105
8, 324228, Note_off_c, 6, 77, 64
8, 324240, Note_on_c, 6, 74, 105
8, 324288, Note_off_c, 6, 74, 64
8, 324300, Note_on_c, 6, 74, 105
8, 324348, Note_off_c, 6, 74, 64
8, 324360, Note_on_c, 6, 74, 105
8, 324408, Note_off_c, 6, 74, 64
8, 324420, Note_on_c, 6, 74, 105
8, 324468, Note_off_c, 6, 74, 64
8, 324480, Note_on_c, 6, 76, 105
8, 324648, Note_off_c, 6, 76, 64
8, 324720, Note_on_c, 6, 77, 105
8, 324750, Note_off_c, 6, 77, 64
8, 324750, Note_on_c, 6, 76, 105
8, 324780, Note_off_c, 6, 76, 64
8, 324780, Note_on_c, 6, 77, 105
8, 324810, Note_off_c, 6, 77, 64
8, 324810, Note_on_c, 6, 76, 105
8, 324840, Note_off_c, 6, 76, 64
8, 324840, Note_on_c, 6, 77, 105
8, 324870, Note_off_c, 6, 77, 64
8, 324870, Note_on_c, 6, 76, 105
8, 324900, Note_off_c, 6, 76, 64
8, 324900, Note_on_c, 6, 74, 105
8, 324930, Note_off_c, 6, 74, 64
8, 324930, Note_on_c, 6, 76, 105
8, 324960, Note_off_c, 6, 76, 64
8, 324960, Note_on_c, 6, 77, 105
8, 325128, Note_off_c, 6, 77, 64
8, 325200, Note_on_c, 6, 74, 105
8, 325368, Note_off_c, 6, 74, 64
8, 325440, Note_on_c, 6, 64, 105
8, 325440, Note_on_c, 6, 72, 105
8, 325524, Note_off_c, 6, 72, 64
8, 325524, Note_off_c, 6, 64, 64
8, 325560, Note_on_c, 6, 72, 105
8, 325560, Note_on_c, 6, 64, 105
8, 325644, Note_off_c, 6, 64, 64
8, 325644, Note_off_c, 6, 72, 64
8, 325680, Note_on_c, 6, 64, 105
8, 325680, Note_on_c, 6, 72, 105
8, 325764, Note_off_c, 6, 72, 64
8, 325764, Note_off_c, 6, 64, 64
8, 325800, Note_on_c, 6, 72, 105
8, 325800, Note_on_c, 6, 64, 105
8, 325884, Note_off_c, 6, 64, 64
8, 325884, Note_off_c, 6, 72, 64
8, 325920, Note_on_c, 6, 72, 105
8, 325920, Note_on_c, 6, 64, 105
8, 326112, Note_off_c, 6, 64, 64
8, 326112, Note_off_c, 6, 72, 64
8, 326400, Note_on_c, 6, 64, 105
8, 326400, Note_on_c, 6, 72, 105
8, 326484, Note_off_c, 6, 72, 64
8, 326484, Note_off_c, 6, 64, 64
8, 326520, Note_on_c, 6, 72, 105
8, 326520, Note_on_c, 6, 64, 105
8, 326604, Note_off_c, 6, 64, 64
8, 326604, Note_off_c, 6, 72, 64
8, 326640, Note_on_c, 6, 72, 105
8, 326640, Note_on_c, 6, 64, 105
8, 326724, Note_off_c, 6, 64, 64
8, 326724, Note_off_c, 6, 72, 64
8, 326760, Note_on_c, 6, 64, 105
8, 326760, Note_on_c, 6, 72, 105
8, 326844, Note_off_c, 6, 72, 64
8, 326844, Note_off_c, 6, 64, 64
8, 326880, Note_on_c, 6, 64, 105
8, 326880, Note_on_c, 6, 72, 105
8, 327072, Note_off_c, 6, 72, 64
8, 327072, Note_off_c, 6, 64, 64
8, 327360, Note_on_c, 6, 67, 105
8, 327360, Note_on_c, 6, 72, 105
8, 327444, Note_off_c, 6, 72, 64
8, 327444, Note_off_c, 6, 67, 64
8, 327480, Note_on_c, 6, 72, 105
8, 327480, Note_on_c, 6, 67, 105
8, 327564, Note_off_c, 6, 67, 64
8, 327564, Note_off_c, 6, 72, 64
8, 327600, Note_on_c, 6, 67, 105
8, 327600, Note_on_c, 6, 72, 105
8, 327684, Note_off_c, 6, 72, 64
8, 327684, Note_off_c, 6, 67, 64
8, 327720, Note_on_c, 6, 72, 105
8, 327720, Note_on_c, 6, 67, 105
8, 327804, Note_off_c, 6, 67, 64
8, 327804, Note_off_c, 6, 72, 64
8, 327840, Note_on_c, 6, 72, 105
8, 327840, Note_on_c, 6, 67, 105
8, 328008, Note_off_c, 6, 67, 64
8, 328008, Note_off_c, 6, 72, 64
8, 328080, Note_on_c, 6, 74, 105
8, 328104, Note_off_c, 6, 74, 64
8, 328110, Note_on_c, 6, 72, 105
8, 328134, Note_off_c, 6, 72, 64
8, 328140, Note_on_c, 6, 74, 105
8, 328164, Note_off_c, 6, 74, 64
8, 328170, Note_on_c, 6, 72, 105
8, 328194, Note_off_c, 6, 72, 64
8, 328200, Note_on_c, 6, 74, 105
8, 328224, Note_off_c, 6, 74, 64
8, 328230, Note_on_c, 6, 72, 105
8, 328254, Note_off_c, 6, 72, 64
8, 328260, Note_on_c, 6, 71, 105
8, 328284, Note_off_c, 6, 71, 64
8, 328290, Note_on_c, 6, 72, 105
8, 328314, Note_off_c, 6, 72, 64
8, 328320, Note_on_c, 6, 81, 105
8, 328704, Note_off_c, 6, 81, 64
8, 328800, Note_on_c, 6, 57, 105
8, 329184, Note_off_c, 6, 57, 64
8, 329280, Note_on_c, 6, 55, 105
8, 329424, Note_off_c, 6, 55, 64
8, 329520, Note_on_c, 6, 74, 92
8, 329520, Note_on_c, 6, 79, 92
8, 329664, Note_off_c, 6, 79, 64
8, 329664, Note_off_c, 6, 74, 64
8, 330000, Note_on_c, 6, 67, 105
8, 330000, Note_on_c, 6, 74, 105
8, 330144, Note_off_c, 6, 74, 64
8, 330144, Note_off_c, 6, 67, 64
8, 330240, Note_on_c, 6, 72, 125
8, 330240, Note_on_c, 6, 64, 105
8, 330396, Note_off_c, 6, 64, 64
8, 330396, Note_off_c, 6, 72, 64
8, 330480, Note_on_c, 6, 81, 105
8, 330480, Note_on_c, 6, 72, 105
8, 330480, Note_on_c, 6, 65, 105
8, 330636, Note_off_c, 6, 65, 64
8, 330636, Note_off_c, 6, 72, 64
8, 330636, Note_off_c, 6, 81, 64
8, 330720, Note_on_c, 6, 64, 105
8, 330720, Note_on_c, 6, 72, 105
8, 330720, Note_on_c, 6, 79, 105
8, 330876, Note_off_c, 6, 79, 64
8, 330876, Note_off_c, 6, 72, 64
8, 330876, Note_off_c, 6, 64, 64
8, 330960, Note_on_c, 6, 62, 105
8, 330960, Note_on_c, 6, 71, 105
8, 330960, Note_on_c, 6, 55, 105
8, 331116, Note_off_c, 6, 55, 64
8, 331116, Note_off_c, 6, 71, 64
8, 331116, Note_off_c, 6, 62, 64
8, 331200, Note_on_c, 6, 55, 105
8, 331200, Note_on_c, 6, 64, 105
8, 331200, Note_on_c, 6, 72, 105
8, 331284, Note_off_c, 6, 72, 64
8, 331284, Note_off_c, 6, 64, 64
8, 331284, Note_off_c, 6, 55, 64
8, 331320, Note_on_c, 6, 72, 105
8, 331320, Note_on_c, 6, 64, 105
8, 331404, Note_off_c, 6, 64, 64
8, 331404, Note_off_c, 6, 72, 64
8, 331440, Note_on_c, 6, 72, 105
8, 331440, Note_on_c, 6, 64, 105
8, 331524, Note_off_c, 6, 64, 64
8, 331524, Note_off_c, 6, 72, 64
8, 331560, Note_on_c, 6, 72, 105
8, 331560, Note_on_c, 6, 64, 105
8, 331644, Note_off_c, 6, 64, 64
8, 331644, Note_off_c, 6, 72, 64
8, 331680, Note_on_c, 6, 72, 105
8, 331680, Note_on_c, 6, 64, 105
8, 331872, Note_off_c, 6, 64, 64
8, 331872, Note_off_c, 6, 72, 64
8, 332160, Note_on_c, 6, 64, 105
8, 332160, Note_on_c, 6, 72, 105
8, 332244, Note_off_c, 6, 72, 64
8, 332244, Note_off_c, 6, 64, 64
8, 332280, Note_on_c, 6, 64, 105
8, 332280, Note_on_c, 6, 72, 105
8, 332364, Note_off_c, 6, 72, 64
8, 332364, Note_off_c, 6, 64, 64
8, 332400, Note_on_c, 6, 64, 105
8, 332400, Note_on_c, 6, 72, 105
8, 332484, Note_off_c, 6, 72, 64
8, 332484, Note_off_c, 6, 64, 64
8, 332520, Note_on_c, 6, 64, 105
8, 332520, Note_on_c, 6, 72, 105
8, 332604, Note_off_c, 6, 72, 64
8, 332604, Note_off_c, 6, 64, 64
8, 332640, Note_on_c, 6, 72, 105
8, 332640, Note_on_c, 6, 64, 105
8, 332832, Note_off_c, 6, 64, 64
8, 332832, Note_off_c, 6, 72, 64
8, 333120, Note_on_c, 6, 67, 105
8, 333120, Note_on_c, 6, 72, 105
8, 333204, Note_off_c, 6, 72, 64
8, 333204, Note_off_c, 6, 67, 64
8, 333240, Note_on_c, 6, 72, 105
8, 333240, Note_on_c, 6, 67, 105
8, 333324, Note_off_c, 6, 67, 64
8, 333324, Note_off_c, 6, 72, 64
8, 333360, Note_on_c, 6, 67, 105
8, 333360, Note_on_c, 6, 72, 105
8, 333444, Note_off_c, 6, 72, 64
8, 333444, Note_off_c, 6, 67, 64
8, 333480, Note_on_c, 6, 72, 105
8, 333480, Note_on_c, 6, 67, 105
8, 333564, Note_off_c, 6, 67, 64
8, 333564, Note_off_c, 6, 72, 64
8, 333600, Note_on_c, 6, 67, 105
8, 333600, Note_on_c, 6, 72, 105
8, 333768, Note_off_c, 6, 72, 64
8, 333768, Note_off_c, 6, 67, 64
8, 333840, Note_on_c, 6, 74, 105
8, 333864, Note_off_c, 6, 74, 64
8, 333870, Note_on_c, 6, 72, 105
8, 333894, Note_off_c, 6, 72, 64
8, 333900, Note_on_c, 6, 74, 105
8, 333924, Note_off_c, 6, 74, 64
8, 333930, Note_on_c, 6, 72, 105
8, 333954, Note_off_c, 6, 72, 64
8, 333960, Note_on_c, 6, 74, 105
8, 333984, Note_off_c, 6, 74, 64
8, 333990, Note_on_c, 6, 72, 105
8, 334014, Note_off_c, 6, 72, 64
8, 334020, Note_on_c, 6, 71, 105
8, 334044, Note_off_c, 6, 71, 64
8, 334050, Note_on_c, 6, 72, 105
8, 334074, Note_off_c, 6, 72, 64
8, 334080, Note_on_c, 6, 81, 105
8, 334464, Note_off_c, 6, 81, 64
8, 334560, Note_on_c, 6, 57, 105
8, 334944, Note_off_c, 6, 57, 64
8, 335040, Note_on_c, 6, 55, 125
8, 335184, Note_off_c, 6, 55, 64
8, 335280, Note_on_c, 6, 79, 92
8, 335280, Note_on_c, 6, 74, 92
8, 335424, Note_off_c, 6, 74, 64
8, 335424, Note_off_c, 6, 79, 64
8, 336720, Note_on_c, 6, 56, 72
8, 336960, Note_off_c, 6, 56, 64
8, 336960, Note_on_c, 6, 55, 72
8, 337104, Note_off_c, 6, 55, 64
8, 337200, Note_on_c, 6, 65, 58
8, 337344, Note_off_c, 6, 65, 64
8, 339360, Note_on_c, 6, 59, 58
8, 339600, Note_off_c, 6, 59, 64
8, 339600, Note_on_c, 6, 60, 58
8, 339696, Note_off_c, 6, 60, 64
8, 339840, Note_on_c, 6, 61, 58
8, 340080, Note_off_c, 6, 61, 64
8, 340080, Note_on_c, 6, 62, 58
8, 340176, Note_off_c, 6, 62, 64
8, 340320, Note_on_c, 6, 62, 58
8, 340560, Note_off_c, 6, 62, 64
8, 340560, Note_on_c, 6, 59, 58
8, 340656, Note_off_c, 6, 59, 64
8, 340800, Note_on_c, 6, 60, 105
8, 341088, Note_off_c, 6, 60, 64
8, 341160, Note_on_c, 6, 64, 105
8, 341220, Note_off_c, 6, 64, 64
8, 341220, Note_on_c, 6, 67, 105
8, 341268, Note_off_c, 6, 67, 64
8, 341280, Note_on_c, 6, 72, 105
8, 341352, Note_off_c, 6, 72, 64
8, 341400, Note_on_c, 6, 71, 105
8, 341472, Note_off_c, 6, 71, 64
8, 341520, Note_on_c, 6, 72, 105
8, 341592, Note_off_c, 6, 72, 64
8, 341640, Note_on_c, 6, 74, 105
8, 341712, Note_off_c, 6, 74, 64
8, 341760, Note_on_c, 6, 76, 105
8, 342048, Note_off_c, 6, 76, 64
8, 342120, Note_on_c, 6, 75, 105
8, 342192, Note_off_c, 6, 75, 64
8, 342240, Note_on_c, 6, 76, 105
8, 342312, Note_off_c, 6, 76, 64
8, 342360, Note_on_c, 6, 75, 105
8, 342432, Note_off_c, 6, 75, 64
8, 342480, Note_on_c, 6, 76, 105
8, 342552, Note_off_c, 6, 76, 64
8, 342600, Note_on_c, 6, 75, 105
8, 342672, Note_off_c, 6, 75, 64
8, 342720, Note_on_c, 6, 76, 105
8, 342792, Note_off_c, 6, 76, 64
8, 342840, Note_on_c, 6, 76, 105
8, 342912, Note_off_c, 6, 76, 64
8, 342960, Note_on_c, 6, 72, 105
8, 343032, Note_off_c, 6, 72, 64
8, 343080, Note_on_c, 6, 72, 105
8, 343152, Note_off_c, 6, 72, 64
8, 343200, Note_on_c, 6, 74, 105
8, 343272, Note_off_c, 6, 74, 64
8, 343320, Note_on_c, 6, 74, 105
8, 343392, Note_off_c, 6, 74, 64
8, 343440, Note_on_c, 6, 71, 105
8, 343512, Note_off_c, 6, 71, 64
8, 343560, Note_on_c, 6, 71, 105
8, 343632, Note_off_c, 6, 71, 64
8, 343680, Note_on_c, 6, 72, 105
8, 343872, Note_off_c, 6, 72, 64
8, 344040, Note_on_c, 6, 67, 105
8, 344080, Note_off_c, 6, 67, 64
8, 344080, Note_on_c, 6, 69, 105
8, 344120, Note_off_c, 6, 69, 64
8, 344120, Note_on_c, 6, 71, 105
8, 344160, Note_off_c, 6, 71, 64
8, 344160, Note_on_c, 6, 72, 105
8, 344232, Note_off_c, 6, 72, 64
8, 344280, Note_on_c, 6, 71, 105
8, 344352, Note_off_c, 6, 71, 64
8, 344400, Note_on_c, 6, 72, 105
8, 344472, Note_off_c, 6, 72, 64
8, 344520, Note_on_c, 6, 74, 105
8, 344592, Note_off_c, 6, 74, 64
8, 344640, Note_on_c, 6, 76, 105
8, 344712, Note_off_c, 6, 76, 64
8, 344760, Note_on_c, 6, 76, 105
8, 344952, Note_off_c, 6, 76, 64
8, 345000, Note_on_c, 6, 75, 105
8, 345072, Note_off_c, 6, 75, 64
8, 345120, Note_on_c, 6, 76, 105
8, 345192, Note_off_c, 6, 76, 64
8, 345240, Note_on_c, 6, 75, 105
8, 345312, Note_off_c, 6, 75, 64
8, 345360, Note_on_c, 6, 76, 105
8, 345432, Note_off_c, 6, 76, 64
8, 345480, Note_on_c, 6, 75, 105
8, 345552, Note_off_c, 6, 75, 64
8, 345600, Note_on_c, 6, 76, 105
8, 345672, Note_off_c, 6, 76, 64
8, 345720, Note_on_c, 6, 76, 105
8, 345792, Note_off_c, 6, 76, 64
8, 345840, Note_on_c, 6, 72, 105
8, 345912, Note_off_c, 6, 72, 64
8, 345960, Note_on_c, 6, 72, 105
8, 346032, Note_off_c, 6, 72, 64
8, 346080, Note_on_c, 6, 74, 105
8, 346152, Note_off_c, 6, 74, 64
8, 346200, Note_on_c, 6, 74, 105
8, 346272, Note_off_c, 6, 74, 64
8, 346320, Note_on_c, 6, 71, 105
8, 346392, Note_off_c, 6, 71, 64
8, 346440, Note_on_c, 6, 71, 105
8, 346512, Note_off_c, 6, 71, 64
8, 346560, Note_on_c, 6, 76, 72
8, 346656, Note_off_c, 6, 76, 64
8, 346800, Note_on_c, 6, 72, 72
8, 346896, Note_off_c, 6, 72, 64
8, 347040, Note_on_c, 6, 74, 72
8, 347136, Note_off_c, 6, 74, 64
8, 347280, Note_on_c, 6, 71, 72
8, 347376, Note_off_c, 6, 71, 64
8, 347520, Note_on_c, 6, 76, 116
8, 347568, Note_off_c, 6, 76, 64
8, 347580, Note_on_c, 6, 76, 116
8, 347628, Note_off_c, 6, 76, 64
8, 347640, Note_on_c, 6, 76, 116
8, 347688, Note_off_c, 6, 76, 64
8, 347700, Note_on_c, 6, 76, 116
8, 347748, Note_off_c, 6, 76, 64
8, 347760, Note_on_c, 6, 76, 116
8, 347808, Note_off_c, 6, 76, 64
8, 347820, Note_on_c, 6, 76, 116
8, 347868, Note_off_c, 6, 76, 64
8, 347880, Note_on_c, 6, 76, 116
8, 347928, Note_off_c, 6, 76, 64
8, 347940, Note_on_c, 6, 76, 116
8, 347988, Note_off_c, 6, 76, 64
8, 348000, Note_on_c, 6, 77, 116
8, 348048, Note_off_c, 6, 77, 64
8, 348060, Note_on_c, 6, 77, 116
8, 348108, Note_off_c, 6, 77, 64
8, 348120, Note_on_c, 6, 77, 116
8, 348168, Note_off_c, 6, 77, 64
8, 348180, Note_on_c, 6, 77, 116
8, 348228, Note_off_c, 6, 77, 64
8, 348240, Note_on_c, 6, 74, 116
8, 348288, Note_off_c, 6, 74, 64
8, 348300, Note_on_c, 6, 74, 116
8, 348348, Note_off_c, 6, 74, 64
8, 348360, Note_on_c, 6, 74, 116
8, 348408, Note_off_c, 6, 74, 64
8, 348420, Note_on_c, 6, 74, 116
8, 348468, Note_off_c, 6, 74, 64
8, 348480, Note_on_c, 6, 76, 116
8, 348672, Note_off_c, 6, 76, 64
8, 350400, Note_on_c, 6, 60, 58
8, 351840, Note_off_c, 6, 60, 64
8, 351840, Note_on_c, 6, 61, 58
8, 352320, Note_off_c, 6, 61, 64
8, 352320, Note_on_c, 6, 62, 58
8, 352512, Note_off_c, 6, 62, 64
8, 355200, Note_on_c, 6, 62, 58
8, 355200, Note_on_c, 6, 72, 58
8, 355776, Note_off_c, 6, 72, 64
8, 355776, Note_off_c, 6, 62, 64
8, 355920, Note_on_c, 6, 69, 58
8, 356112, Note_off_c, 6, 69, 64
8, 356160, Note_on_c, 6, 64, 58
8, 356352, Note_off_c, 6, 64, 64
8, 356400, Note_on_c, 6, 64, 58
8, 356472, Note_off_c, 6, 64, 64
8, 356520, Note_on_c, 6, 64, 58
8, 356592, Note_off_c, 6, 64, 64
8, 356640, Note_on_c, 6, 64, 58
8, 356760, Note_off_c, 6, 64, 64
8, 356760, Note_on_c, 6, 60, 58
8, 356880, Note_off_c, 6, 60, 64
8, 356880, Note_on_c, 6, 62, 58
8, 357000, Note_off_c, 6, 62, 64
8, 357000, Note_on_c, 6, 59, 58
8, 357096, Note_off_c, 6, 59, 64
8, 357120, Note_on_c, 6, 60, 58
8, 357312, Note_off_c, 6, 60, 64
8, 358200, Note_on_c, 6, 64, 58
8, 358320, Note_off_c, 6, 64, 64
8, 358320, Note_on_c, 6, 67, 72
8, 358440, Note_off_c, 6, 67, 64
8, 358440, Note_on_c, 6, 64, 72
8, 358536, Note_off_c, 6, 64, 64
8, 358560, Note_on_c, 6, 62, 72
8, 358680, Note_off_c, 6, 62, 64
8, 358680, Note_on_c, 6, 59, 72
8, 358800, Note_off_c, 6, 59, 64
8, 358800, Note_on_c, 6, 62, 72
8, 358920, Note_off_c, 6, 62, 64
8, 358920, Note_on_c, 6, 65, 72
8, 359016, Note_off_c, 6, 65, 64
8, 359040, Note_on_c, 6, 64, 58
8, 359184, Note_off_c, 6, 64, 64
8, 360120, Note_on_c, 6, 64, 58
8, 360240, Note_off_c, 6, 64, 64
8, 360240, Note_on_c, 6, 67, 72
8, 360360, Note_off_c, 6, 67, 64
8, 360360, Note_on_c, 6, 64, 72
8, 360456, Note_off_c, 6, 64, 64
8, 360480, Note_on_c, 6, 62, 72
8, 360600, Note_off_c, 6, 62, 64
8, 360600, Note_on_c, 6, 59, 72
8, 360720, Note_off_c, 6, 59, 64
8, 360720, Note_on_c, 6, 62, 72
8, 360840, Note_off_c, 6, 62, 64
8, 360840, Note_on_c, 6, 65, 72
8, 360936, Note_off_c, 6, 65, 64
8, 360960, Note_on_c, 6, 64, 72
8, 361104, Note_off_c, 6, 64, 64
8, 362040, Note_on_c, 6, 67, 105
8, 362160, Note_off_c, 6, 67, 64
8, 362160, Note_on_c, 6, 72, 105
8, 362280, Note_off_c, 6, 72, 64
8, 362280, Note_on_c, 6, 71, 105
8, 362400, Note_off_c, 6, 71, 64
8, 362400, Note_on_c, 6, 74, 105
8, 362520, Note_off_c, 6, 74, 64
8, 362520, Note_on_c, 6, 72, 105
8, 362640, Note_off_c, 6, 72, 64
8, 362640, Note_on_c, 6, 77, 105
8, 362760, Note_off_c, 6, 77, 64
8, 362760, Note_on_c, 6, 76, 105
8, 362856, Note_off_c, 6, 76, 64
8, 362880, Note_on_c, 6, 76, 105
8, 362928, Note_off_c, 6, 76, 64
8, 362940, Note_on_c, 6, 76, 105
8, 362988, Note_off_c, 6, 76, 64
8, 363000, Note_on_c, 6, 76, 105
8, 363048, Note_off_c, 6, 76, 64
8, 363060, Note_on_c, 6, 76, 105
8, 363108, Note_off_c, 6, 76, 64
8, 363120, Note_on_c, 6, 76, 105
8, 363168, Note_off_c, 6, 76, 64
8, 363180, Note_on_c, 6, 76, 105
8, 363228, Note_off_c, 6, 76, 64
8, 363240, Note_on_c, 6, 76, 105
8, 363288, Note_off_c, 6, 76, 64
8, 363300, Note_on_c, 6, 76, 105
8, 363348, Note_off_c, 6, 76, 64
8, 363360, Note_on_c, 6, 76, 105
8, 363408, Note_off_c, 6, 76, 64
8, 363420, Note_on_c, 6, 76, 105
8, 363468, Note_off_c, 6, 76, 64
8, 363480, Note_on_c, 6, 76, 105
8, 363528, Note_off_c, 6, 76, 64
8, 363540, Note_on_c, 6, 76, 105
8, 363588, Note_off_c, 6, 76, 64
8, 363600, Note_on_c, 6, 76, 105
8, 363648, Note_off_c, 6, 76, 64
8, 363660, Note_on_c, 6, 76, 105
8, 363708, Note_off_c, 6, 76, 64
8, 363720, Note_on_c, 6, 76, 105
8, 363768, Note_off_c, 6, 76, 64
8, 363780, Note_on_c, 6, 76, 105
8, 363828, Note_off_c, 6, 76, 64
8, 363840, Note_on_c, 6, 79, 105
8, 363888, Note_off_c, 6, 79, 64
8, 363900, Note_on_c, 6, 79, 105
8, 363948, Note_off_c, 6, 79, 64
8, 363960, Note_on_c, 6, 79, 105
8, 364008, Note_off_c, 6, 79, 64
8, 364020, Note_on_c, 6, 79, 105
8, 364068, Note_off_c, 6, 79, 64
8, 364080, Note_on_c, 6, 79, 105
8, 364128, Note_off_c, 6, 79, 64
8, 364140, Note_on_c, 6, 79, 105
8, 364188, Note_off_c, 6, 79, 64
8, 364200, Note_on_c, 6, 79, 105
8, 364248, Note_off_c, 6, 79, 64
8, 364260, Note_on_c, 6, 79, 105
8, 364308, Note_off_c, 6, 79, 64
8, 364320, Note_on_c, 6, 76, 105
8, 364368, Note_off_c, 6, 76, 64
8, 364380, Note_on_c, 6, 76, 105
8, 364428, Note_off_c, 6, 76, 64
8, 364440, Note_on_c, 6, 76, 105
8, 364488, Note_off_c, 6, 76, 64
8, 364500, Note_on_c, 6, 76, 105
8, 364548, Note_off_c, 6, 76, 64
8, 364560, Note_on_c, 6, 76, 105
8, 364608, Note_off_c, 6, 76, 64
8, 364620, Note_on_c, 6, 76, 105
8, 364668, Note_off_c, 6, 76, 64
8, 364680, Note_on_c, 6, 76, 105
8, 364728, Note_off_c, 6, 76, 64
8, 364740, Note_on_c, 6, 76, 105
8, 364788, Note_off_c, 6, 76, 64
8, 364800, Note_on_c, 6, 74, 105
8, 364848, Note_off_c, 6, 74, 64
8, 364860, Note_on_c, 6, 74, 105
8, 364908, Note_off_c, 6, 74, 64
8, 364920, Note_on_c, 6, 74, 105
8, 364968, Note_off_c, 6, 74, 64
8, 364980, Note_on_c, 6, 74, 105
8, 365028, Note_off_c, 6, 74, 64
8, 365040, Note_on_c, 6, 74, 105
8, 365088, Note_off_c, 6, 74, 64
8, 365100, Note_on_c, 6, 74, 105
8, 365148, Note_off_c, 6, 74, 64
8, 365160, Note_on_c, 6, 74, 105
8, 365208, Note_off_c, 6, 74, 64
8, 365220, Note_on_c, 6, 74, 105
8, 365268, Note_off_c, 6, 74, 64
8, 365280, Note_on_c, 6, 74, 105
8, 365328, Note_off_c, 6, 74, 64
8, 365340, Note_on_c, 6, 74, 105
8, 365388, Note_off_c, 6, 74, 64
8, 365400, Note_on_c, 6, 74, 105
8, 365448, Note_off_c, 6, 74, 64
8, 365460, Note_on_c, 6, 74, 105
8, 365508, Note_off_c, 6, 74, 64
8, 365520, Note_on_c, 6, 74, 105
8, 365568, Note_off_c, 6, 74, 64
8, 365580, Note_on_c, 6, 74, 105
8, 365628, Note_off_c, 6, 74, 64
8, 365640, Note_on_c, 6, 74, 105
8, 365688, Note_off_c, 6, 74, 64
8, 365700, Note_on_c, 6, 74, 105
8, 365748, Note_off_c, 6, 74, 64
8, 365760, Note_on_c, 6, 79, 105
8, 365808, Note_off_c, 6, 79, 64
8, 365820, Note_on_c, 6, 79, 105
8, 365868, Note_off_c, 6, 79, 64
8, 365880, Note_on_c, 6, 79, 105
8, 365928, Note_off_c, 6, 79, 64
8, 365940, Note_on_c, 6, 79, 105
8, 365988, Note_off_c, 6, 79, 64
8, 366000, Note_on_c, 6, 79, 105
8, 366048, Note_off_c, 6, 79, 64
8, 366060, Note_on_c, 6, 79, 105
8, 366108, Note_off_c, 6, 79, 64
8, 366120, Note_on_c, 6, 79, 105
8, 366168, Note_off_c, 6, 79, 64
8, 366180, Note_on_c, 6, 79, 105
8, 366228, Note_off_c, 6, 79, 64
8, 366240, Note_on_c, 6, 76, 105
8, 366288, Note_off_c, 6, 76, 64
8, 366300, Note_on_c, 6, 76, 105
8, 366348, Note_off_c, 6, 76, 64
8, 366360, Note_on_c, 6, 76, 105
8, 366408, Note_off_c, 6, 76, 64
8, 366420, Note_on_c, 6, 76, 105
8, 366468, Note_off_c, 6, 76, 64
8, 366480, Note_on_c, 6, 76, 105
8, 366528, Note_off_c, 6, 76, 64
8, 366540, Note_on_c, 6, 76, 105
8, 366588, Note_off_c, 6, 76, 64
8, 366600, Note_on_c, 6, 76, 105
8, 366648, Note_off_c, 6, 76, 64
8, 366660, Note_on_c, 6, 76, 105
8, 366708, Note_off_c, 6, 76, 64
8, 366720, Note_on_c, 6, 74, 105
8, 366768, Note_off_c, 6, 74, 64
8, 366780, Note_on_c, 6, 74, 105
8, 366828, Note_off_c, 6, 74, 64
8, 366840, Note_on_c, 6, 74, 105
8, 366888, Note_off_c, 6, 74, 64
8, 366900, Note_on_c, 6, 74, 105
8, 366948, Note_off_c, 6, 74, 64
8, 366960, Note_on_c, 6, 74, 105
8, 367008, Note_off_c, 6, 74, 64
8, 367020, Note_on_c, 6, 74, 105
8, 367068, Note_off_c, 6, 74, 64
8, 367080, Note_on_c, 6, 74, 105
8, 367128, Note_off_c, 6, 74, 64
8, 367140, Note_on_c, 6, 74, 105
8, 367188, Note_off_c, 6, 74, 64
8, 367200, Note_on_c, 6, 74, 105
8, 367248, Note_off_c, 6, 74, 64
8, 367260, Note_on_c, 6, 74, 105
8, 367308, Note_off_c, 6, 74, 64
8, 367320, Note_on_c, 6, 74, 105
8, 367368, Note_off_c, 6, 74, 64
8, 367380, Note_on_c, 6, 74, 105
8, 367428, Note_off_c, 6, 74, 64
8, 367440, Note_on_c, 6, 74, 105
8, 367488, Note_off_c, 6, 74, 64
8, 367500, Note_on_c, 6, 74, 105
8, 367548, Note_off_c, 6, 74, 64
8, 367560, Note_on_c, 6, 74, 105
8, 367608, Note_off_c, 6, 74, 64
8, 367620, Note_on_c, 6, 74, 105
8, 367668, Note_off_c, 6, 74, 64
8, 367680, Note_on_c, 6, 76, 125
8, 367872, Note_off_c, 6, 76, 64
8, 368160, Note_on_c, 6, 67, 105
8, 368160, Note_on_c, 6, 72, 105
8, 368160, Note_on_c, 6, 76, 105
8, 368304, Note_off_c, 6, 76, 64
8, 368304, Note_off_c, 6, 72, 64
8, 368304, Note_off_c, 6, 67, 64
8, 368400, Note_on_c, 6, 67, 105
8, 368400, Note_on_c, 6, 76, 105
8, 368400, Note_on_c, 6, 72, 105
8, 368544, Note_off_c, 6, 72, 64
8, 368544, Note_off_c, 6, 76, 64
8, 368544, Note_off_c, 6, 67, 64
8, 368640, Note_on_c, 6, 72, 105
8, 368640, Note_on_c, 6, 67, 105
8, 368640, Note_on_c, 6, 76, 105
8, 368832, Note_off_c, 6, 76, 64
8, 368832, Note_off_c, 6, 67, 64
8, 368832, Note_off_c, 6, 72, 64
8, 369120, Note_on_c, 6, 67, 105
8, 369120, Note_on_c, 6, 72, 105
8, 369120, Note_on_c, 6, 76, 105
8, 369264, Note_off_c, 6, 76, 64
8, 369264, Note_off_c, 6, 72, 64
8, 369264, Note_off_c, 6, 67, 64
8, 369360, Note_on_c, 6, 72, 105
8, 369360, Note_on_c, 6, 76, 105
8, 369360, Note_on_c, 6, 67, 105
8, 369504, Note_off_c, 6, 67, 64
8, 369504, Note_off_c, 6, 76, 64
8, 369504, Note_off_c, 6, 72, 64
8, 369600, Note_on_c, 6, 76, 105
8, 369600, Note_on_c, 6, 72, 105
8, 369600, Note_on_c, 6, 67, 105
8, 369828, Note_off_c, 6, 67, 64
8, 369828, Note_off_c, 6, 72, 64
8, 369828, Note_off_c, 6, 76, 64
8, 369828, End_track
9, 0, Start_track
9, 0, Program_c, 7, 48
9, 0, Control_c, 7, 7, 123
9, 0, Control_c, 7, 10, 98
9, 0, Control_c, 7, 91, 70
9, 720, Note_on_c, 7, 60, 105
9, 834, Note_off_c, 7, 60, 64
9, 930, Note_on_c, 7, 60, 105
9, 954, Note_off_c, 7, 60, 64
9, 960, Note_on_c, 7, 64, 105
9, 1074, Note_off_c, 7, 64, 64
9, 1170, Note_on_c, 7, 64, 105
9, 1194, Note_off_c, 7, 64, 64
9, 1200, Note_on_c, 7, 69, 105
9, 1314, Note_off_c, 7, 69, 64
9, 1410, Note_on_c, 7, 69, 105
9, 1434, Note_off_c, 7, 69, 64
9, 1440, Note_on_c, 7, 59, 105
9, 1536, Note_off_c, 7, 59, 64
9, 1650, Note_on_c, 7, 71, 105
9, 1674, Note_off_c, 7, 71, 64
9, 1680, Note_on_c, 7, 71, 105
9, 1920, Note_off_c, 7, 71, 64
9, 2130, Note_on_c, 7, 59, 105
9, 2154, Note_off_c, 7, 59, 64
9, 2160, Note_on_c, 7, 58, 105
9, 2256, Note_off_c, 7, 58, 64
9, 2370, Note_on_c, 7, 70, 105
9, 2394, Note_off_c, 7, 70, 64
9, 2400, Note_on_c, 7, 70, 105
9, 2640, Note_off_c, 7, 70, 64
9, 2880, Note_on_c, 7, 60, 58
9, 2976, Note_off_c, 7, 60, 64
9, 3000, Note_on_c, 7, 60, 58
9, 3096, Note_off_c, 7, 60, 64
9, 3120, Note_on_c, 7, 60, 58
9, 3216, Note_off_c, 7, 60, 64
9, 3240, Note_on_c, 7, 60, 58
9, 3336, Note_off_c, 7, 60, 64
9, 3360, Note_on_c, 7, 60, 58
9, 3456, Note_off_c, 7, 60, 64
9, 3480, Note_on_c, 7, 60, 58
9, 3576, Note_off_c, 7, 60, 64
9, 3600, Note_on_c, 7, 60, 58
9, 3696, Note_off_c, 7, 60, 64
9, 3720, Note_on_c, 7, 60, 58
9, 3816, Note_off_c, 7, 60, 64
9, 3840, Note_on_c, 7, 60, 58
9, 3936, Note_off_c, 7, 60, 64
9, 3960, Note_on_c, 7, 60, 58
9, 4056, Note_off_c, 7, 60, 64
9, 4080, Note_on_c, 7, 60, 58
9, 4176, Note_off_c, 7, 60, 64
9, 4200, Note_on_c, 7, 60, 58
9, 4296, Note_off_c, 7, 60, 64
9, 4320, Note_on_c, 7, 60, 58
9, 4416, Note_off_c, 7, 60, 64
9, 4440, Note_on_c, 7, 60, 58
9, 4536, Note_off_c, 7, 60, 64
9, 4560, Note_on_c, 7, 60, 58
9, 4656, Note_off_c, 7, 60, 64
9, 4680, Note_on_c, 7, 60, 58
9, 4776, Note_off_c, 7, 60, 64
9, 4800, Note_on_c, 7, 60, 58
9, 4896, Note_off_c, 7, 60, 64
9, 4920, Note_on_c, 7, 60, 58
9, 5016, Note_off_c, 7, 60, 64
9, 5040, Note_on_c, 7, 60, 58
9, 5136, Note_off_c, 7, 60, 64
9, 5160, Note_on_c, 7, 60, 58
9, 5256, Note_off_c, 7, 60, 64
9, 5280, Note_on_c, 7, 60, 58
9, 5376, Note_off_c, 7, 60, 64
9, 5400, Note_on_c, 7, 60, 58
9, 5496, Note_off_c, 7, 60, 64
9, 5520, Note_on_c, 7, 60, 58
9, 5616, Note_off_c, 7, 60, 64
9, 5640, Note_on_c, 7, 60, 58
9, 5736, Note_off_c, 7, 60, 64
9, 5760, Note_on_c, 7, 69, 98
9, 5796, Note_off_c, 7, 69, 64
9, 5820, Note_on_c, 7, 57, 58
9, 5856, Note_off_c, 7, 57, 64
9, 5880, Note_on_c, 7, 57, 58
9, 5916, Note_off_c, 7, 57, 64
9, 5940, Note_on_c, 7, 57, 58
9, 5976, Note_off_c, 7, 57, 64
9, 6000, Note_on_c, 7, 57, 58
9, 6036, Note_off_c, 7, 57, 64
9, 6060, Note_on_c, 7, 57, 58
9, 6096, Note_off_c, 7, 57, 64
9, 6120, Note_on_c, 7, 57, 58
9, 6156, Note_off_c, 7, 57, 64
9, 6180, Note_on_c, 7, 57, 58
9, 6216, Note_off_c, 7, 57, 64
9, 6240, Note_on_c, 7, 57, 58
9, 6276, Note_off_c, 7, 57, 64
9, 6300, Note_on_c, 7, 57, 58
9, 6336, Note_off_c, 7, 57, 64
9, 6360, Note_on_c, 7, 57, 58
9, 6396, Note_off_c, 7, 57, 64
9, 6420, Note_on_c, 7, 57, 58
9, 6456, Note_off_c, 7, 57, 64
9, 6480, Note_on_c, 7, 71, 98
9, 6516, Note_off_c, 7, 71, 64
9, 6540, Note_on_c, 7, 59, 58
9, 6576, Note_off_c, 7, 59, 64
9, 6600, Note_on_c, 7, 59, 58
9, 6636, Note_off_c, 7, 59, 64
9, 6660, Note_on_c, 7, 59, 58
9, 6696, Note_off_c, 7, 59, 64
9, 6720, Note_on_c, 7, 59, 58
9, 6756, Note_off_c, 7, 59, 64
9, 6780, Note_on_c, 7, 59, 58
9, 6816, Note_off_c, 7, 59, 64
9, 6840, Note_on_c, 7, 59, 58
9, 6876, Note_off_c, 7, 59, 64
9, 6900, Note_on_c, 7, 59, 58
9, 6936, Note_off_c, 7, 59, 64
9, 6960, Note_on_c, 7, 59, 58
9, 6996, Note_off_c, 7, 59, 64
9, 7020, Note_on_c, 7, 59, 58
9, 7056, Note_off_c, 7, 59, 64
9, 7080, Note_on_c, 7, 59, 58
9, 7116, Note_off_c, 7, 59, 64
9, 7140, Note_on_c, 7, 59, 58
9, 7176, Note_off_c, 7, 59, 64
9, 7200, Note_on_c, 7, 67, 98
9, 7236, Note_off_c, 7, 67, 64
9, 7260, Note_on_c, 7, 55, 58
9, 7296, Note_off_c, 7, 55, 64
9, 7320, Note_on_c, 7, 55, 58
9, 7356, Note_off_c, 7, 55, 64
9, 7380, Note_on_c, 7, 55, 58
9, 7416, Note_off_c, 7, 55, 64
9, 7440, Note_on_c, 7, 55, 58
9, 7476, Note_off_c, 7, 55, 64
9, 7500, Note_on_c, 7, 55, 58
9, 7536, Note_off_c, 7, 55, 64
9, 7560, Note_on_c, 7, 55, 58
9, 7596, Note_off_c, 7, 55, 64
9, 7620, Note_on_c, 7, 55, 58
9, 7656, Note_off_c, 7, 55, 64
9, 7680, Note_on_c, 7, 55, 58
9, 7716, Note_off_c, 7, 55, 64
9, 7740, Note_on_c, 7, 55, 58
9, 7776, Note_off_c, 7, 55, 64
9, 7800, Note_on_c, 7, 55, 58
9, 7836, Note_off_c, 7, 55, 64
9, 7860, Note_on_c, 7, 55, 58
9, 7896, Note_off_c, 7, 55, 64
9, 7920, Note_on_c, 7, 53, 58
9, 7962, Note_off_c, 7, 53, 64
9, 7980, Note_on_c, 7, 53, 58
9, 7980, Note_on_c, 7, 56, 58
9, 8022, Note_off_c, 7, 56, 64
9, 8022, Note_off_c, 7, 53, 64
9, 8040, Note_on_c, 7, 56, 58
9, 8040, Note_on_c, 7, 53, 58
9, 8082, Note_off_c, 7, 53, 64
9, 8082, Note_off_c, 7, 56, 64
9, 8100, Note_on_c, 7, 53, 58
9, 8100, Note_on_c, 7, 56, 58
9, 8142, Note_off_c, 7, 56, 64
9, 8142, Note_off_c, 7, 53, 64
9, 8160, Note_on_c, 7, 53, 58
9, 8160, Note_on_c, 7, 56, 58
9, 8202, Note_off_c, 7, 56, 64
9, 8202, Note_off_c, 7, 53, 64
9, 8220, Note_on_c, 7, 56, 58
9, 8220, Note_on_c, 7, 53, 58
9, 8262, Note_off_c, 7, 53, 64
9, 8262, Note_off_c, 7, 56, 64
9, 8280, Note_on_c, 7, 56, 58
9, 8280, Note_on_c, 7, 53, 58
9, 8322, Note_off_c, 7, 53, 64
9, 8322, Note_off_c, 7, 56, 64
9, 8340, Note_on_c, 7, 53, 58
9, 8340, Note_on_c, 7, 56, 58
9, 8382, Note_off_c, 7, 56, 64
9, 8382, Note_off_c, 7, 53, 64
9, 8400, Note_on_c, 7, 53, 58
9, 8400, Note_on_c, 7, 56, 58
9, 8442, Note_off_c, 7, 56, 64
9, 8442, Note_off_c, 7, 53, 64
9, 8460, Note_on_c, 7, 56, 58
9, 8460, Note_on_c, 7, 53, 58
9, 8502, Note_off_c, 7, 53, 64
9, 8502, Note_off_c, 7, 56, 64
9, 8520, Note_on_c, 7, 56, 58
9, 8520, Note_on_c, 7, 53, 58
9, 8562, Note_off_c, 7, 53, 64
9, 8562, Note_off_c, 7, 56, 64
9, 8580, Note_on_c, 7, 53, 58
9, 8580, Note_on_c, 7, 56, 58
9, 8622, Note_off_c, 7, 56, 64
9, 8622, Note_off_c, 7, 53, 64
9, 8640, Note_on_c, 7, 56, 58
9, 8640, Note_on_c, 7, 53, 58
9, 8682, Note_off_c, 7, 53, 64
9, 8682, Note_off_c, 7, 56, 64
9, 8700, Note_on_c, 7, 56, 58
9, 8700, Note_on_c, 7, 61, 58
9, 8742, Note_off_c, 7, 61, 64
9, 8742, Note_off_c, 7, 56, 64
9, 8760, Note_on_c, 7, 56, 58
9, 8760, Note_on_c, 7, 61, 58
9, 8802, Note_off_c, 7, 61, 64
9, 8802, Note_off_c, 7, 56, 64
9, 8820, Note_on_c, 7, 56, 58
9, 8820, Note_on_c, 7, 61, 58
9, 8862, Note_off_c, 7, 61, 64
9, 8862, Note_off_c, 7, 56, 64
9, 8880, Note_on_c, 7, 56, 58
9, 8880, Note_on_c, 7, 61, 58
9, 8922, Note_off_c, 7, 61, 64
9, 8922, Note_off_c, 7, 56, 64
9, 8940, Note_on_c, 7, 56, 58
9, 8940, Note_on_c, 7, 61, 58
9, 8982, Note_off_c, 7, 61, 64
9, 8982, Note_off_c, 7, 56, 64
9, 9000, Note_on_c, 7, 56, 58
9, 9000, Note_on_c, 7, 61, 58
9, 9042, Note_off_c, 7, 61, 64
9, 9042, Note_off_c, 7, 56, 64
9, 9060, Note_on_c, 7, 56, 58
9, 9060, Note_on_c, 7, 61, 58
9, 9102, Note_off_c, 7, 61, 64
9, 9102, Note_off_c, 7, 56, 64
9, 9120, Note_on_c, 7, 56, 58
9, 9120, Note_on_c, 7, 61, 58
9, 9162, Note_off_c, 7, 61, 64
9, 9162, Note_off_c, 7, 56, 64
9, 9180, Note_on_c, 7, 61, 58
9, 9180, Note_on_c, 7, 56, 58
9, 9222, Note_off_c, 7, 56, 64
9, 9222, Note_off_c, 7, 61, 64
9, 9240, Note_on_c, 7, 56, 58
9, 9240, Note_on_c, 7, 61, 58
9, 9282, Note_off_c, 7, 61, 64
9, 9282, Note_off_c, 7, 56, 64
9, 9300, Note_on_c, 7, 56, 58
9, 9300, Note_on_c, 7, 61, 58
9, 9342, Note_off_c, 7, 61, 64
9, 9342, Note_off_c, 7, 56, 64
9, 9360, Note_on_c, 7, 62, 58
9, 9360, Note_on_c, 7, 55, 58
9, 9552, Note_off_c, 7, 55, 64
9, 9552, Note_off_c, 7, 62, 64
9, 9840, Note_on_c, 7, 62, 58
9, 9840, Note_on_c, 7, 67, 58
9, 10080, Note_off_c, 7, 62, 64
9, 10080, Note_on_c, 7, 60, 30
9, 10272, Note_off_c, 7, 67, 64
9, 10272, Note_off_c, 7, 60, 64
9, 10560, Note_on_c, 7, 59, 30
9, 10788, Note_off_c, 7, 59, 64
9, 10800, Note_on_c, 7, 60, 72
9, 11520, Note_off_c, 7, 60, 64
9, 11520, Note_on_c, 7, 62, 58
9, 11616, Note_off_c, 7, 62, 64
9, 11760, Note_on_c, 7, 67, 58
9, 12336, Note_off_c, 7, 67, 64
9, 12360, Note_on_c, 7, 63, 98
9, 12600, Note_off_c, 7, 63, 64
9, 12600, Note_on_c, 7, 62, 58
9, 12720, Note_off_c, 7, 62, 64
9, 12720, Note_on_c, 7, 55, 58
9, 12840, Note_off_c, 7, 55, 64
9, 12840, Note_on_c, 7, 60, 58
9, 12954, Note_off_c, 7, 60, 64
9, 12960, Note_on_c, 7, 59, 58
9, 13080, Note_off_c, 7, 59, 64
9, 13080, Note_on_c, 7, 63, 98
9, 13200, Note_off_c, 7, 63, 64
9, 13200, Note_on_c, 7, 62, 58
9, 13320, Note_off_c, 7, 62, 64
9, 13320, Note_on_c, 7, 63, 98
9, 13440, Note_off_c, 7, 63, 64
9, 13440, Note_on_c, 7, 62, 58
9, 13560, Note_off_c, 7, 62, 64
9, 13560, Note_on_c, 7, 63, 98
9, 13674, Note_off_c, 7, 63, 64
9, 13680, Note_on_c, 7, 62, 58
9, 13776, Note_off_c, 7, 62, 64
9, 13920, Note_on_c, 7, 67, 116
9, 13920, Note_on_c, 7, 55, 116
9, 14148, Note_off_c, 7, 55, 64
9, 14148, Note_off_c, 7, 67, 64
9, 14400, Note_on_c, 7, 55, 72
9, 16128, Note_off_c, 7, 55, 64
9, 16320, Note_on_c, 7, 55, 72
9, 16704, Note_off_c, 7, 55, 64
9, 17040, Note_on_c, 7, 60, 72
9, 17184, Note_off_c, 7, 60, 64
9, 17280, Note_on_c, 7, 60, 72
9, 17424, Note_off_c, 7, 60, 64
9, 17520, Note_on_c, 7, 60, 72
9, 17664, Note_off_c, 7, 60, 64
9, 18240, Note_on_c, 7, 60, 72
9, 20352, Note_off_c, 7, 60, 64
9, 20400, Note_on_c, 7, 65, 72
9, 20640, Note_off_c, 7, 65, 64
9, 20640, Note_on_c, 7, 64, 72
9, 20784, Note_off_c, 7, 64, 64
9, 20880, Note_on_c, 7, 62, 72
9, 21024, Note_off_c, 7, 62, 64
9, 21120, Note_on_c, 7, 60, 72
9, 22464, Note_off_c, 7, 60, 64
9, 22560, Note_on_c, 7, 57, 72
9, 22944, Note_off_c, 7, 57, 64
9, 23040, Note_on_c, 7, 55, 58
9, 23616, Note_off_c, 7, 55, 64
9, 24000, Note_on_c, 7, 67, 105
9, 24096, Note_off_c, 7, 67, 64
9, 24120, Note_on_c, 7, 67, 105
9, 24216, Note_off_c, 7, 67, 64
9, 24240, Note_on_c, 7, 67, 105
9, 24336, Note_off_c, 7, 67, 64
9, 24360, Note_on_c, 7, 67, 105
9, 24456, Note_off_c, 7, 67, 64
9, 24480, Note_on_c, 7, 67, 105
9, 24576, Note_off_c, 7, 67, 64
9, 24600, Note_on_c, 7, 67, 105
9, 24696, Note_off_c, 7, 67, 64
9, 24720, Note_on_c, 7, 67, 105
9, 24816, Note_off_c, 7, 67, 64
9, 24840, Note_on_c, 7, 67, 105
9, 24936, Note_off_c, 7, 67, 64
9, 24960, Note_on_c, 7, 67, 105
9, 25056, Note_off_c, 7, 67, 64
9, 25080, Note_on_c, 7, 67, 105
9, 25176, Note_off_c, 7, 67, 64
9, 25200, Note_on_c, 7, 67, 105
9, 25296, Note_off_c, 7, 67, 64
9, 25320, Note_on_c, 7, 67, 105
9, 25416, Note_off_c, 7, 67, 64
9, 25440, Note_on_c, 7, 67, 105
9, 25536, Note_off_c, 7, 67, 64
9, 25560, Note_on_c, 7, 67, 105
9, 25656, Note_off_c, 7, 67, 64
9, 25680, Note_on_c, 7, 67, 105
9, 25776, Note_off_c, 7, 67, 64
9, 25800, Note_on_c, 7, 67, 105
9, 25896, Note_off_c, 7, 67, 64
9, 25920, Note_on_c, 7, 67, 105
9, 26304, Note_off_c, 7, 67, 64
9, 26640, Note_on_c, 7, 60, 105
9, 26808, Note_off_c, 7, 60, 64
9, 26880, Note_on_c, 7, 65, 105
9, 27048, Note_off_c, 7, 65, 64
9, 27120, Note_on_c, 7, 60, 105
9, 27288, Note_off_c, 7, 60, 64
9, 27600, Note_on_c, 7, 60, 105
9, 27768, Note_off_c, 7, 60, 64
9, 27840, Note_on_c, 7, 65, 105
9, 28008, Note_off_c, 7, 65, 64
9, 28080, Note_on_c, 7, 60, 105
9, 28248, Note_off_c, 7, 60, 64
9, 28560, Note_on_c, 7, 60, 105
9, 28728, Note_off_c, 7, 60, 64
9, 28800, Note_on_c, 7, 65, 105
9, 28968, Note_off_c, 7, 65, 64
9, 29040, Note_on_c, 7, 60, 105
9, 29208, Note_off_c, 7, 60, 64
9, 29280, Note_on_c, 7, 65, 105
9, 29448, Note_off_c, 7, 65, 64
9, 29520, Note_on_c, 7, 60, 105
9, 29688, Note_off_c, 7, 60, 64
9, 29760, Note_on_c, 7, 65, 105
9, 29928, Note_off_c, 7, 65, 64
9, 30000, Note_on_c, 7, 60, 105
9, 30168, Note_off_c, 7, 60, 64
9, 30840, Note_on_c, 7, 60, 72
9, 30960, Note_off_c, 7, 60, 64
9, 30960, Note_on_c, 7, 62, 72
9, 31080, Note_off_c, 7, 62, 64
9, 31080, Note_on_c, 7, 64, 72
9, 31200, Note_off_c, 7, 64, 64
9, 31200, Note_on_c, 7, 65, 72
9, 31320, Note_off_c, 7, 65, 64
9, 31320, Note_on_c, 7, 67, 72
9, 31440, Note_off_c, 7, 67, 64
9, 31440, Note_on_c, 7, 69, 72
9, 31560, Note_off_c, 7, 69, 64
9, 31560, Note_on_c, 7, 65, 72
9, 31656, Note_off_c, 7, 65, 64
9, 31680, Note_on_c, 7, 64, 72
9, 31800, Note_off_c, 7, 64, 64
9, 31800, Note_on_c, 7, 62, 72
9, 31920, Note_off_c, 7, 62, 64
9, 31920, Note_on_c, 7, 60, 72
9, 32040, Note_off_c, 7, 60, 64
9, 32040, Note_on_c, 7, 58, 72
9, 32160, Note_off_c, 7, 58, 64
9, 32160, Note_on_c, 7, 57, 72
9, 32280, Note_off_c, 7, 57, 64
9, 32280, Note_on_c, 7, 55, 72
9, 32400, Note_off_c, 7, 55, 64
9, 32400, Note_on_c, 7, 53, 72
9, 32520, Note_off_c, 7, 53, 64
9, 32520, Note_on_c, 7, 52, 72
9, 32616, Note_off_c, 7, 52, 64
9, 32640, Note_on_c, 7, 53, 58
9, 32832, Note_off_c, 7, 53, 64
9, 34560, Note_on_c, 7, 60, 72
9, 34680, Note_off_c, 7, 60, 64
9, 34680, Note_on_c, 7, 55, 72
9, 34800, Note_off_c, 7, 55, 64
9, 34800, Note_on_c, 7, 60, 72
9, 34920, Note_off_c, 7, 60, 64
9, 34920, Note_on_c, 7, 55, 72
9, 35016, Note_off_c, 7, 55, 64
9, 35040, Note_on_c, 7, 60, 72
9, 35160, Note_off_c, 7, 60, 64
9, 35160, Note_on_c, 7, 55, 72
9, 35280, Note_off_c, 7, 55, 64
9, 35280, Note_on_c, 7, 62, 72
9, 35400, Note_off_c, 7, 62, 64
9, 35400, Note_on_c, 7, 55, 72
9, 35496, Note_off_c, 7, 55, 64
9, 35520, Note_on_c, 7, 60, 105
9, 35604, Note_off_c, 7, 60, 64
9, 35640, Note_on_c, 7, 64, 105
9, 35724, Note_off_c, 7, 64, 64
9, 35760, Note_on_c, 7, 67, 105
9, 35844, Note_off_c, 7, 67, 64
9, 35880, Note_on_c, 7, 72, 105
9, 35964, Note_off_c, 7, 72, 64
9, 36000, Note_on_c, 7, 76, 105
9, 36084, Note_off_c, 7, 76, 64
9, 36120, Note_on_c, 7, 74, 105
9, 36204, Note_off_c, 7, 74, 64
9, 36240, Note_on_c, 7, 76, 105
9, 36324, Note_off_c, 7, 76, 64
9, 36360, Note_on_c, 7, 72, 105
9, 36444, Note_off_c, 7, 72, 64
9, 36480, Note_on_c, 7, 71, 105
9, 36564, Note_off_c, 7, 71, 64
9, 36600, Note_on_c, 7, 72, 105
9, 36684, Note_off_c, 7, 72, 64
9, 36720, Note_on_c, 7, 74, 105
9, 36804, Note_off_c, 7, 74, 64
9, 36840, Note_on_c, 7, 72, 105
9, 36924, Note_off_c, 7, 72, 64
9, 36960, Note_on_c, 7, 71, 105
9, 37044, Note_off_c, 7, 71, 64
9, 37080, Note_on_c, 7, 69, 105
9, 37164, Note_off_c, 7, 69, 64
9, 37200, Note_on_c, 7, 67, 105
9, 37284, Note_off_c, 7, 67, 64
9, 37320, Note_on_c, 7, 65, 105
9, 37404, Note_off_c, 7, 65, 64
9, 37440, Note_on_c, 7, 64, 105
9, 37524, Note_off_c, 7, 64, 64
9, 37560, Note_on_c, 7, 65, 105
9, 37644, Note_off_c, 7, 65, 64
9, 37680, Note_on_c, 7, 67, 105
9, 37764, Note_off_c, 7, 67, 64
9, 37800, Note_on_c, 7, 64, 105
9, 37884, Note_off_c, 7, 64, 64
9, 37920, Note_on_c, 7, 69, 105
9, 38004, Note_off_c, 7, 69, 64
9, 38040, Note_on_c, 7, 71, 105
9, 38124, Note_off_c, 7, 71, 64
9, 38160, Note_on_c, 7, 72, 105
9, 38244, Note_off_c, 7, 72, 64
9, 38280, Note_on_c, 7, 69, 105
9, 38364, Note_off_c, 7, 69, 64
9, 38400, Note_on_c, 7, 65, 105
9, 38484, Note_off_c, 7, 65, 64
9, 38520, Note_on_c, 7, 62, 105
9, 38604, Note_off_c, 7, 62, 64
9, 38640, Note_on_c, 7, 64, 105
9, 38724, Note_off_c, 7, 64, 64
9, 38760, Note_on_c, 7, 65, 105
9, 38844, Note_off_c, 7, 65, 64
9, 38880, Note_on_c, 7, 67, 105
9, 38964, Note_off_c, 7, 67, 64
9, 39000, Note_on_c, 7, 65, 105
9, 39084, Note_off_c, 7, 65, 64
9, 39120, Note_on_c, 7, 67, 105
9, 39204, Note_off_c, 7, 67, 64
9, 39240, Note_on_c, 7, 55, 105
9, 39324, Note_off_c, 7, 55, 64
9, 39360, Note_on_c, 7, 60, 105
9, 39444, Note_off_c, 7, 60, 64
9, 39480, Note_on_c, 7, 64, 105
9, 39564, Note_off_c, 7, 64, 64
9, 39600, Note_on_c, 7, 67, 105
9, 39684, Note_off_c, 7, 67, 64
9, 39720, Note_on_c, 7, 72, 105
9, 39804, Note_off_c, 7, 72, 64
9, 39840, Note_on_c, 7, 76, 105
9, 39924, Note_off_c, 7, 76, 64
9, 39960, Note_on_c, 7, 74, 105
9, 40044, Note_off_c, 7, 74, 64
9, 40080, Note_on_c, 7, 76, 105
9, 40164, Note_off_c, 7, 76, 64
9, 40200, Note_on_c, 7, 72, 105
9, 40284, Note_off_c, 7, 72, 64
9, 40320, Note_on_c, 7, 71, 105
9, 40404, Note_off_c, 7, 71, 64
9, 40440, Note_on_c, 7, 72, 105
9, 40524, Note_off_c, 7, 72, 64
9, 40560, Note_on_c, 7, 74, 105
9, 40644, Note_off_c, 7, 74, 64
9, 40680, Note_on_c, 7, 72, 105
9, 40764, Note_off_c, 7, 72, 64
9, 40800, Note_on_c, 7, 71, 105
9, 40884, Note_off_c, 7, 71, 64
9, 40920, Note_on_c, 7, 69, 105
9, 41004, Note_off_c, 7, 69, 64
9, 41040, Note_on_c, 7, 67, 105
9, 41124, Note_off_c, 7, 67, 64
9, 41160, Note_on_c, 7, 65, 105
9, 41244, Note_off_c, 7, 65, 64
9, 41280, Note_on_c, 7, 64, 105
9, 41364, Note_off_c, 7, 64, 64
9, 41400, Note_on_c, 7, 65, 105
9, 41484, Note_off_c, 7, 65, 64
9, 41520, Note_on_c, 7, 67, 105
9, 41604, Note_off_c, 7, 67, 64
9, 41640, Note_on_c, 7, 64, 105
9, 41724, Note_off_c, 7, 64, 64
9, 41760, Note_on_c, 7, 69, 105
9, 41844, Note_off_c, 7, 69, 64
9, 41880, Note_on_c, 7, 71, 105
9, 41964, Note_off_c, 7, 71, 64
9, 42000, Note_on_c, 7, 72, 105
9, 42084, Note_off_c, 7, 72, 64
9, 42120, Note_on_c, 7, 69, 105
9, 42204, Note_off_c, 7, 69, 64
9, 42240, Note_on_c, 7, 66, 105
9, 42324, Note_off_c, 7, 66, 64
9, 42360, Note_on_c, 7, 67, 105
9, 42444, Note_off_c, 7, 67, 64
9, 42480, Note_on_c, 7, 69, 105
9, 42564, Note_off_c, 7, 69, 64
9, 42600, Note_on_c, 7, 67, 105
9, 42684, Note_off_c, 7, 67, 64
9, 42720, Note_on_c, 7, 66, 105
9, 42804, Note_off_c, 7, 66, 64
9, 42840, Note_on_c, 7, 62, 105
9, 42924, Note_off_c, 7, 62, 64
9, 42960, Note_on_c, 7, 64, 105
9, 43044, Note_off_c, 7, 64, 64
9, 43080, Note_on_c, 7, 66, 105
9, 43164, Note_off_c, 7, 66, 64
9, 43200, Note_on_c, 7, 67, 105
9, 43284, Note_off_c, 7, 67, 64
9, 43320, Note_on_c, 7, 69, 105
9, 43404, Note_off_c, 7, 69, 64
9, 43440, Note_on_c, 7, 71, 105
9, 43524, Note_off_c, 7, 71, 64
9, 43560, Note_on_c, 7, 69, 105
9, 43644, Note_off_c, 7, 69, 64
9, 43680, Note_on_c, 7, 68, 105
9, 43764, Note_off_c, 7, 68, 64
9, 43800, Note_on_c, 7, 69, 105
9, 43884, Note_off_c, 7, 69, 64
9, 43920, Note_on_c, 7, 66, 105
9, 44004, Note_off_c, 7, 66, 64
9, 44040, Note_on_c, 7, 68, 105
9, 44124, Note_off_c, 7, 68, 64
9, 44160, Note_on_c, 7, 69, 105
9, 44244, Note_off_c, 7, 69, 64
9, 44280, Note_on_c, 7, 71, 105
9, 44364, Note_off_c, 7, 71, 64
9, 44400, Note_on_c, 7, 72, 105
9, 44484, Note_off_c, 7, 72, 64
9, 44520, Note_on_c, 7, 71, 105
9, 44604, Note_off_c, 7, 71, 64
9, 44640, Note_on_c, 7, 69, 105
9, 44724, Note_off_c, 7, 69, 64
9, 44760, Note_on_c, 7, 71, 105
9, 44844, Note_off_c, 7, 71, 64
9, 44880, Note_on_c, 7, 67, 105
9, 44964, Note_off_c, 7, 67, 64
9, 45000, Note_on_c, 7, 69, 105
9, 45084, Note_off_c, 7, 69, 64
9, 45120, Note_on_c, 7, 66, 105
9, 45204, Note_off_c, 7, 66, 64
9, 45240, Note_on_c, 7, 67, 105
9, 45324, Note_off_c, 7, 67, 64
9, 45360, Note_on_c, 7, 69, 105
9, 45444, Note_off_c, 7, 69, 64
9, 45480, Note_on_c, 7, 67, 105
9, 45564, Note_off_c, 7, 67, 64
9, 45600, Note_on_c, 7, 66, 105
9, 45684, Note_off_c, 7, 66, 64
9, 45720, Note_on_c, 7, 62, 105
9, 45804, Note_off_c, 7, 62, 64
9, 45840, Note_on_c, 7, 64, 105
9, 45924, Note_off_c, 7, 64, 64
9, 45960, Note_on_c, 7, 66, 105
9, 46044, Note_off_c, 7, 66, 64
9, 46080, Note_on_c, 7, 67, 105
9, 46164, Note_off_c, 7, 67, 64
9, 46200, Note_on_c, 7, 71, 105
9, 46284, Note_off_c, 7, 71, 64
9, 46320, Note_on_c, 7, 74, 105
9, 46404, Note_off_c, 7, 74, 64
9, 46440, Note_on_c, 7, 74, 105
9, 46524, Note_off_c, 7, 74, 64
9, 46560, Note_on_c, 7, 74, 105
9, 46644, Note_off_c, 7, 74, 64
9, 46680, Note_on_c, 7, 74, 105
9, 46764, Note_off_c, 7, 74, 64
9, 46800, Note_on_c, 7, 71, 105
9, 46884, Note_off_c, 7, 71, 64
9, 46920, Note_on_c, 7, 67, 105
9, 47004, Note_off_c, 7, 67, 64
9, 47040, Note_on_c, 7, 72, 105
9, 47124, Note_off_c, 7, 72, 64
9, 47160, Note_on_c, 7, 69, 105
9, 47244, Note_off_c, 7, 69, 64
9, 47280, Note_on_c, 7, 71, 105
9, 47364, Note_off_c, 7, 71, 64
9, 47400, Note_on_c, 7, 67, 105
9, 47484, Note_off_c, 7, 67, 64
9, 47520, Note_on_c, 7, 66, 105
9, 47604, Note_off_c, 7, 66, 64
9, 47640, Note_on_c, 7, 69, 105
9, 47724, Note_off_c, 7, 69, 64
9, 47760, Note_on_c, 7, 66, 105
9, 47844, Note_off_c, 7, 66, 64
9, 47880, Note_on_c, 7, 62, 105
9, 47964, Note_off_c, 7, 62, 64
9, 48000, Note_on_c, 7, 67, 105
9, 48084, Note_off_c, 7, 67, 64
9, 48120, Note_on_c, 7, 71, 105
9, 48204, Note_off_c, 7, 71, 64
9, 48240, Note_on_c, 7, 74, 105
9, 48324, Note_off_c, 7, 74, 64
9, 48360, Note_on_c, 7, 74, 105
9, 48444, Note_off_c, 7, 74, 64
9, 48480, Note_on_c, 7, 74, 105
9, 48564, Note_off_c, 7, 74, 64
9, 48600, Note_on_c, 7, 74, 105
9, 48684, Note_off_c, 7, 74, 64
9, 48720, Note_on_c, 7, 71, 105
9, 48804, Note_off_c, 7, 71, 64
9, 48840, Note_on_c, 7, 67, 105
9, 48924, Note_off_c, 7, 67, 64
9, 48960, Note_on_c, 7, 72, 105
9, 49044, Note_off_c, 7, 72, 64
9, 49080, Note_on_c, 7, 69, 105
9, 49164, Note_off_c, 7, 69, 64
9, 49200, Note_on_c, 7, 71, 105
9, 49284, Note_off_c, 7, 71, 64
9, 49320, Note_on_c, 7, 67, 105
9, 49404, Note_off_c, 7, 67, 64
9, 49440, Note_on_c, 7, 66, 105
9, 49524, Note_off_c, 7, 66, 64
9, 49560, Note_on_c, 7, 69, 105
9, 49644, Note_off_c, 7, 69, 64
9, 49680, Note_on_c, 7, 66, 105
9, 49764, Note_off_c, 7, 66, 64
9, 49800, Note_on_c, 7, 62, 105
9, 49884, Note_off_c, 7, 62, 64
9, 49920, Note_on_c, 7, 67, 105
9, 50004, Note_off_c, 7, 67, 64
9, 50040, Note_on_c, 7, 69, 105
9, 50124, Note_off_c, 7, 69, 64
9, 50160, Note_on_c, 7, 66, 105
9, 50244, Note_off_c, 7, 66, 64
9, 50280, Note_on_c, 7, 67, 105
9, 50364, Note_off_c, 7, 67, 64
9, 50400, Note_on_c, 7, 64, 105
9, 50484, Note_off_c, 7, 64, 64
9, 50520, Note_on_c, 7, 65, 105
9, 50604, Note_off_c, 7, 65, 64
9, 50640, Note_on_c, 7, 62, 105
9, 50724, Note_off_c, 7, 62, 64
9, 50760, Note_on_c, 7, 64, 105
9, 50844, Note_off_c, 7, 64, 64
9, 50880, Note_on_c, 7, 64, 110
9, 50964, Note_off_c, 7, 64, 64
9, 51000, Note_on_c, 7, 64, 72
9, 51084, Note_off_c, 7, 64, 64
9, 51120, Note_on_c, 7, 64, 72
9, 51204, Note_off_c, 7, 64, 64
9, 51240, Note_on_c, 7, 64, 72
9, 51324, Note_off_c, 7, 64, 64
9, 51360, Note_on_c, 7, 65, 72
9, 51444, Note_off_c, 7, 65, 64
9, 51480, Note_on_c, 7, 65, 72
9, 51564, Note_off_c, 7, 65, 64
9, 51600, Note_on_c, 7, 65, 72
9, 51684, Note_off_c, 7, 65, 64
9, 51720, Note_on_c, 7, 65, 72
9, 51804, Note_off_c, 7, 65, 64
9, 51840, Note_on_c, 7, 64, 110
9, 51924, Note_off_c, 7, 64, 64
9, 51960, Note_on_c, 7, 64, 72
9, 52044, Note_off_c, 7, 64, 64
9, 52080, Note_on_c, 7, 64, 72
9, 52164, Note_off_c, 7, 64, 64
9, 52200, Note_on_c, 7, 64, 72
9, 52284, Note_off_c, 7, 64, 64
9, 52320, Note_on_c, 7, 65, 72
9, 52404, Note_off_c, 7, 65, 64
9, 52440, Note_on_c, 7, 65, 72
9, 52524, Note_off_c, 7, 65, 64
9, 52560, Note_on_c, 7, 65, 72
9, 52644, Note_off_c, 7, 65, 64
9, 52680, Note_on_c, 7, 65, 72
9, 52764, Note_off_c, 7, 65, 64
9, 52800, Note_on_c, 7, 64, 105
9, 52872, Note_off_c, 7, 64, 64
9, 52920, Note_on_c, 7, 62, 105
9, 52992, Note_off_c, 7, 62, 64
9, 53040, Note_on_c, 7, 64, 105
9, 53112, Note_off_c, 7, 64, 64
9, 53160, Note_on_c, 7, 62, 105
9, 53232, Note_off_c, 7, 62, 64
9, 53280, Note_on_c, 7, 64, 105
9, 53352, Note_off_c, 7, 64, 64
9, 53400, Note_on_c, 7, 62, 105
9, 53472, Note_off_c, 7, 62, 64
9, 53520, Note_on_c, 7, 64, 105
9, 53592, Note_off_c, 7, 64, 64
9, 53640, Note_on_c, 7, 64, 105
9, 53712, Note_off_c, 7, 64, 64
9, 53760, Note_on_c, 7, 64, 105
9, 53832, Note_off_c, 7, 64, 64
9, 53880, Note_on_c, 7, 68, 105
9, 53952, Note_off_c, 7, 68, 64
9, 54000, Note_on_c, 7, 69, 105
9, 54072, Note_off_c, 7, 69, 64
9, 54120, Note_on_c, 7, 68, 105
9, 54192, Note_off_c, 7, 68, 64
9, 54240, Note_on_c, 7, 69, 105
9, 54312, Note_off_c, 7, 69, 64
9, 54360, Note_on_c, 7, 68, 105
9, 54432, Note_off_c, 7, 68, 64
9, 54480, Note_on_c, 7, 69, 105
9, 54552, Note_off_c, 7, 69, 64
9, 54600, Note_on_c, 7, 71, 105
9, 54672, Note_off_c, 7, 71, 64
9, 54720, Note_on_c, 7, 72, 105
9, 54912, Note_off_c, 7, 72, 64
9, 56640, Note_on_c, 7, 57, 58
9, 57552, Note_off_c, 7, 57, 64
9, 57600, Note_on_c, 7, 55, 58
9, 58512, Note_off_c, 7, 55, 64
9, 58560, Note_on_c, 7, 54, 58
9, 58704, Note_off_c, 7, 54, 64
9, 58800, Note_on_c, 7, 57, 58
9, 59280, Note_off_c, 7, 57, 64
9, 59280, Note_on_c, 7, 55, 72
9, 59472, Note_off_c, 7, 55, 64
9, 59520, Note_on_c, 7, 54, 72
9, 59664, Note_off_c, 7, 54, 64
9, 59760, Note_on_c, 7, 57, 72
9, 60240, Note_off_c, 7, 57, 64
9, 60240, Note_on_c, 7, 55, 72
9, 60432, Note_off_c, 7, 55, 64
9, 60480, Note_on_c, 7, 60, 58
9, 60864, Note_off_c, 7, 60, 64
9, 60960, Note_on_c, 7, 59, 58
9, 61344, Note_off_c, 7, 59, 64
9, 61440, Note_on_c, 7, 60, 58
9, 61824, Note_off_c, 7, 60, 64
9, 61920, Note_on_c, 7, 59, 58
9, 62112, Note_off_c, 7, 59, 64
9, 62160, Note_on_c, 7, 62, 58
9, 62352, Note_off_c, 7, 62, 64
9, 62400, Note_on_c, 7, 60, 58
9, 62592, Note_off_c, 7, 60, 64
9, 62880, Note_on_c, 7, 57, 58
9, 63072, Note_off_c, 7, 57, 64
9, 63360, Note_on_c, 7, 55, 58
9, 63552, Note_off_c, 7, 55, 64
9, 63840, Note_on_c, 7, 59, 105
9, 63984, Note_off_c, 7, 59, 64
9, 64080, Note_on_c, 7, 59, 105
9, 64224, Note_off_c, 7, 59, 64
9, 64320, Note_on_c, 7, 59, 105
9, 64488, Note_off_c, 7, 59, 64
9, 64560, Note_on_c, 7, 64, 105
9, 64644, Note_off_c, 7, 64, 64
9, 64680, Note_on_c, 7, 67, 105
9, 64764, Note_off_c, 7, 67, 64
9, 64800, Note_on_c, 7, 66, 105
9, 64884, Note_off_c, 7, 66, 64
9, 64920, Note_on_c, 7, 63, 105
9, 65004, Note_off_c, 7, 63, 64
9, 65040, Note_on_c, 7, 64, 105
9, 65124, Note_off_c, 7, 64, 64
9, 65160, Note_on_c, 7, 66, 105
9, 65244, Note_off_c, 7, 66, 64
9, 65280, Note_on_c, 7, 67, 105
9, 65364, Note_off_c, 7, 67, 64
9, 65400, Note_on_c, 7, 69, 105
9, 65484, Note_off_c, 7, 69, 64
9, 65520, Note_on_c, 7, 71, 105
9, 65604, Note_off_c, 7, 71, 64
9, 65640, Note_on_c, 7, 67, 105
9, 65724, Note_off_c, 7, 67, 64
9, 65760, Note_on_c, 7, 66, 105
9, 65844, Note_off_c, 7, 66, 64
9, 65880, Note_on_c, 7, 63, 105
9, 65964, Note_off_c, 7, 63, 64
9, 66000, Note_on_c, 7, 64, 105
9, 66084, Note_off_c, 7, 64, 64
9, 66120, Note_on_c, 7, 66, 105
9, 66204, Note_off_c, 7, 66, 64
9, 66240, Note_on_c, 7, 67, 105
9, 66324, Note_off_c, 7, 67, 64
9, 66360, Note_on_c, 7, 69, 105
9, 66444, Note_off_c, 7, 69, 64
9, 66480, Note_on_c, 7, 71, 105
9, 66564, Note_off_c, 7, 71, 64
9, 66600, Note_on_c, 7, 67, 105
9, 66684, Note_off_c, 7, 67, 64
9, 66720, Note_on_c, 7, 66, 105
9, 66804, Note_off_c, 7, 66, 64
9, 66840, Note_on_c, 7, 63, 105
9, 66924, Note_off_c, 7, 63, 64
9, 66960, Note_on_c, 7, 64, 105
9, 67044, Note_off_c, 7, 64, 64
9, 67080, Note_on_c, 7, 66, 105
9, 67164, Note_off_c, 7, 66, 64
9, 67200, Note_on_c, 7, 59, 105
9, 67392, Note_off_c, 7, 59, 64
9, 69600, Note_on_c, 7, 67, 72
9, 69792, Note_off_c, 7, 67, 64
9, 70080, Note_on_c, 7, 67, 72
9, 70272, Note_off_c, 7, 67, 64
9, 70560, Note_on_c, 7, 62, 72
9, 70752, Note_off_c, 7, 62, 64
9, 71040, Note_on_c, 7, 59, 58
9, 71232, Note_off_c, 7, 59, 64
9, 72960, Note_on_c, 7, 59, 58
9, 75072, Note_off_c, 7, 59, 64
9, 75360, Note_on_c, 7, 60, 105
9, 75504, Note_off_c, 7, 60, 64
9, 75600, Note_on_c, 7, 60, 105
9, 75744, Note_off_c, 7, 60, 64
9, 75840, Note_on_c, 7, 60, 105
9, 75924, Note_off_c, 7, 60, 64
9, 75960, Note_on_c, 7, 64, 105
9, 76044, Note_off_c, 7, 64, 64
9, 76080, Note_on_c, 7, 67, 105
9, 76164, Note_off_c, 7, 67, 64
9, 76200, Note_on_c, 7, 72, 105
9, 76284, Note_off_c, 7, 72, 64
9, 76320, Note_on_c, 7, 71, 105
9, 76404, Note_off_c, 7, 71, 64
9, 76440, Note_on_c, 7, 67, 105
9, 76524, Note_off_c, 7, 67, 64
9, 76560, Note_on_c, 7, 69, 105
9, 76644, Note_off_c, 7, 69, 64
9, 76680, Note_on_c, 7, 71, 105
9, 76764, Note_off_c, 7, 71, 64
9, 76800, Note_on_c, 7, 72, 105
9, 76884, Note_off_c, 7, 72, 64
9, 76920, Note_on_c, 7, 72, 105
9, 77004, Note_off_c, 7, 72, 64
9, 77040, Note_on_c, 7, 72, 105
9, 77124, Note_off_c, 7, 72, 64
9, 77160, Note_on_c, 7, 72, 105
9, 77244, Note_off_c, 7, 72, 64
9, 77280, Note_on_c, 7, 72, 105
9, 77400, Note_off_c, 7, 72, 64
9, 77400, Note_on_c, 7, 67, 105
9, 77484, Note_off_c, 7, 67, 64
9, 77520, Note_on_c, 7, 67, 105
9, 77640, Note_off_c, 7, 67, 64
9, 77640, Note_on_c, 7, 64, 105
9, 77724, Note_off_c, 7, 64, 64
9, 77760, Note_on_c, 7, 62, 105
9, 77844, Note_off_c, 7, 62, 64
9, 77880, Note_on_c, 7, 62, 105
9, 77964, Note_off_c, 7, 62, 64
9, 78000, Note_on_c, 7, 62, 105
9, 78084, Note_off_c, 7, 62, 64
9, 78120, Note_on_c, 7, 62, 105
9, 78204, Note_off_c, 7, 62, 64
9, 78240, Note_on_c, 7, 62, 105
9, 78324, Note_off_c, 7, 62, 64
9, 78360, Note_on_c, 7, 62, 105
9, 78444, Note_off_c, 7, 62, 64
9, 78480, Note_on_c, 7, 62, 105
9, 78564, Note_off_c, 7, 62, 64
9, 78600, Note_on_c, 7, 62, 105
9, 78684, Note_off_c, 7, 62, 64
9, 78720, Note_on_c, 7, 62, 105
9, 78804, Note_off_c, 7, 62, 64
9, 78840, Note_on_c, 7, 59, 105
9, 78924, Note_off_c, 7, 59, 64
9, 78960, Note_on_c, 7, 60, 105
9, 79044, Note_off_c, 7, 60, 64
9, 79080, Note_on_c, 7, 55, 105
9, 79164, Note_off_c, 7, 55, 64
9, 79200, Note_on_c, 7, 55, 105
9, 79284, Note_off_c, 7, 55, 64
9, 79320, Note_on_c, 7, 52, 105
9, 79404, Note_off_c, 7, 52, 64
9, 79440, Note_on_c, 7, 50, 105
9, 79524, Note_off_c, 7, 50, 64
9, 79560, Note_on_c, 7, 53, 105
9, 79644, Note_off_c, 7, 53, 64
9, 79680, Note_on_c, 7, 52, 105
9, 79764, Note_off_c, 7, 52, 64
9, 79800, Note_on_c, 7, 55, 105
9, 79884, Note_off_c, 7, 55, 64
9, 79920, Note_on_c, 7, 54, 105
9, 80004, Note_off_c, 7, 54, 64
9, 80040, Note_on_c, 7, 57, 105
9, 80124, Note_off_c, 7, 57, 64
9, 80160, Note_on_c, 7, 55, 105
9, 80244, Note_off_c, 7, 55, 64
9, 80280, Note_on_c, 7, 59, 105
9, 80364, Note_off_c, 7, 59, 64
9, 80400, Note_on_c, 7, 57, 105
9, 80484, Note_off_c, 7, 57, 64
9, 80520, Note_on_c, 7, 60, 105
9, 80604, Note_off_c, 7, 60, 64
9, 80640, Note_on_c, 7, 59, 105
9, 80736, Note_off_c, 7, 59, 64
9, 80760, Note_on_c, 7, 62, 105
9, 80952, Note_off_c, 7, 62, 64
9, 81000, Note_on_c, 7, 62, 105
9, 81192, Note_off_c, 7, 62, 64
9, 81240, Note_on_c, 7, 62, 105
9, 81432, Note_off_c, 7, 62, 64
9, 81480, Note_on_c, 7, 62, 105
9, 81576, Note_off_c, 7, 62, 64
9, 81600, Note_on_c, 7, 62, 105
9, 81684, Note_off_c, 7, 62, 64
9, 81720, Note_on_c, 7, 62, 105
9, 81804, Note_off_c, 7, 62, 64
9, 81840, Note_on_c, 7, 64, 105
9, 81924, Note_off_c, 7, 64, 64
9, 81960, Note_on_c, 7, 64, 105
9, 82044, Note_off_c, 7, 64, 64
9, 82080, Note_on_c, 7, 64, 105
9, 82164, Note_off_c, 7, 64, 64
9, 82200, Note_on_c, 7, 64, 105
9, 82284, Note_off_c, 7, 64, 64
9, 82320, Note_on_c, 7, 62, 105
9, 82404, Note_off_c, 7, 62, 64
9, 82440, Note_on_c, 7, 62, 105
9, 82524, Note_off_c, 7, 62, 64
9, 82560, Note_on_c, 7, 62, 105
9, 82644, Note_off_c, 7, 62, 64
9, 82680, Note_on_c, 7, 55, 105
9, 82764, Note_off_c, 7, 55, 64
9, 82800, Note_on_c, 7, 57, 105
9, 82884, Note_off_c, 7, 57, 64
9, 82920, Note_on_c, 7, 59, 105
9, 83004, Note_off_c, 7, 59, 64
9, 83040, Note_on_c, 7, 60, 105
9, 83124, Note_off_c, 7, 60, 64
9, 83160, Note_on_c, 7, 57, 105
9, 83244, Note_off_c, 7, 57, 64
9, 83280, Note_on_c, 7, 62, 105
9, 83364, Note_off_c, 7, 62, 64
9, 83400, Note_on_c, 7, 60, 105
9, 83484, Note_off_c, 7, 60, 64
9, 83520, Note_on_c, 7, 59, 105
9, 83604, Note_off_c, 7, 59, 64
9, 83640, Note_on_c, 7, 67, 105
9, 83724, Note_off_c, 7, 67, 64
9, 83760, Note_on_c, 7, 66, 105
9, 83844, Note_off_c, 7, 66, 64
9, 83880, Note_on_c, 7, 62, 105
9, 83964, Note_off_c, 7, 62, 64
9, 84000, Note_on_c, 7, 67, 105
9, 84084, Note_off_c, 7, 67, 64
9, 84120, Note_on_c, 7, 62, 105
9, 84204, Note_off_c, 7, 62, 64
9, 84240, Note_on_c, 7, 69, 105
9, 84324, Note_off_c, 7, 69, 64
9, 84360, Note_on_c, 7, 62, 105
9, 84444, Note_off_c, 7, 62, 64
9, 84480, Note_on_c, 7, 71, 105
9, 84564, Note_off_c, 7, 71, 64
9, 84600, Note_on_c, 7, 69, 105
9, 84684, Note_off_c, 7, 69, 64
9, 84720, Note_on_c, 7, 68, 105
9, 84804, Note_off_c, 7, 68, 64
9, 84840, Note_on_c, 7, 64, 105
9, 84924, Note_off_c, 7, 64, 64
9, 84960, Note_on_c, 7, 69, 105
9, 85044, Note_off_c, 7, 69, 64
9, 85080, Note_on_c, 7, 67, 105
9, 85164, Note_off_c, 7, 67, 64
9, 85200, Note_on_c, 7, 66, 105
9, 85284, Note_off_c, 7, 66, 64
9, 85320, Note_on_c, 7, 62, 105
9, 85404, Note_off_c, 7, 62, 64
9, 85440, Note_on_c, 7, 67, 105
9, 85524, Note_off_c, 7, 67, 64
9, 85560, Note_on_c, 7, 67, 105
9, 85644, Note_off_c, 7, 67, 64
9, 85680, Note_on_c, 7, 71, 105
9, 85764, Note_off_c, 7, 71, 64
9, 85800, Note_on_c, 7, 71, 105
9, 85884, Note_off_c, 7, 71, 64
9, 85920, Note_on_c, 7, 72, 105
9, 86004, Note_off_c, 7, 72, 64
9, 86040, Note_on_c, 7, 72, 105
9, 86124, Note_off_c, 7, 72, 64
9, 86160, Note_on_c, 7, 69, 105
9, 86244, Note_off_c, 7, 69, 64
9, 86280, Note_on_c, 7, 69, 105
9, 86364, Note_off_c, 7, 69, 64
9, 86400, Note_on_c, 7, 67, 105
9, 86484, Note_off_c, 7, 67, 64
9, 86520, Note_on_c, 7, 67, 105
9, 86604, Note_off_c, 7, 67, 64
9, 86640, Note_on_c, 7, 67, 105
9, 86724, Note_off_c, 7, 67, 64
9, 86760, Note_on_c, 7, 67, 105
9, 86844, Note_off_c, 7, 67, 64
9, 86880, Note_on_c, 7, 67, 105
9, 87072, Note_off_c, 7, 67, 64
9, 87360, Note_on_c, 7, 64, 105
9, 87444, Note_off_c, 7, 64, 64
9, 87480, Note_on_c, 7, 64, 105
9, 87564, Note_off_c, 7, 64, 64
9, 87600, Note_on_c, 7, 64, 105
9, 87684, Note_off_c, 7, 64, 64
9, 87720, Note_on_c, 7, 64, 105
9, 87804, Note_off_c, 7, 64, 64
9, 87840, Note_on_c, 7, 64, 105
9, 88032, Note_off_c, 7, 64, 64
9, 88320, Note_on_c, 7, 59, 105
9, 88404, Note_off_c, 7, 59, 64
9, 88440, Note_on_c, 7, 59, 105
9, 88524, Note_off_c, 7, 59, 64
9, 88560, Note_on_c, 7, 59, 105
9, 88644, Note_off_c, 7, 59, 64
9, 88680, Note_on_c, 7, 59, 105
9, 88764, Note_off_c, 7, 59, 64
9, 88800, Note_on_c, 7, 59, 105
9, 88992, Note_off_c, 7, 59, 64
9, 89280, Note_on_c, 7, 60, 105
9, 89364, Note_off_c, 7, 60, 64
9, 89400, Note_on_c, 7, 60, 105
9, 89484, Note_off_c, 7, 60, 64
9, 89520, Note_on_c, 7, 60, 105
9, 89604, Note_off_c, 7, 60, 64
9, 89640, Note_on_c, 7, 60, 105
9, 89724, Note_off_c, 7, 60, 64
9, 89760, Note_on_c, 7, 57, 105
9, 89844, Note_off_c, 7, 57, 64
9, 89880, Note_on_c, 7, 57, 105
9, 89964, Note_off_c, 7, 57, 64
9, 90000, Note_on_c, 7, 57, 105
9, 90084, Note_off_c, 7, 57, 64
9, 90120, Note_on_c, 7, 57, 105
9, 90204, Note_off_c, 7, 57, 64
9, 90240, Note_on_c, 7, 54, 105
9, 90384, Note_off_c, 7, 54, 64
9, 90480, Note_on_c, 7, 66, 105
9, 90624, Note_off_c, 7, 66, 64
9, 90960, Note_on_c, 7, 67, 105
9, 91128, Note_off_c, 7, 67, 64
9, 91200, Note_on_c, 7, 69, 105
9, 91368, Note_off_c, 7, 69, 64
9, 91440, Note_on_c, 7, 71, 105
9, 91566, Note_off_c, 7, 71, 64
9, 91620, Note_on_c, 7, 72, 105
9, 91662, Note_off_c, 7, 72, 64
9, 91680, Note_on_c, 7, 74, 105
9, 91848, Note_off_c, 7, 74, 64
9, 91920, Note_on_c, 7, 62, 105
9, 92088, Note_off_c, 7, 62, 64
9, 92160, Note_on_c, 7, 67, 105
9, 92244, Note_off_c, 7, 67, 64
9, 92280, Note_on_c, 7, 67, 105
9, 92364, Note_off_c, 7, 67, 64
9, 92400, Note_on_c, 7, 67, 105
9, 92484, Note_off_c, 7, 67, 64
9, 92520, Note_on_c, 7, 67, 105
9, 92604, Note_off_c, 7, 67, 64
9, 92640, Note_on_c, 7, 67, 105
9, 92832, Note_off_c, 7, 67, 64
9, 93120, Note_on_c, 7, 64, 105
9, 93204, Note_off_c, 7, 64, 64
9, 93240, Note_on_c, 7, 64, 105
9, 93324, Note_off_c, 7, 64, 64
9, 93360, Note_on_c, 7, 64, 105
9, 93444, Note_off_c, 7, 64, 64
9, 93480, Note_on_c, 7, 64, 105
9, 93564, Note_off_c, 7, 64, 64
9, 93600, Note_on_c, 7, 64, 105
9, 93792, Note_off_c, 7, 64, 64
9, 94080, Note_on_c, 7, 59, 105
9, 94164, Note_off_c, 7, 59, 64
9, 94200, Note_on_c, 7, 59, 105
9, 94284, Note_off_c, 7, 59, 64
9, 94320, Note_on_c, 7, 59, 105
9, 94404, Note_off_c, 7, 59, 64
9, 94440, Note_on_c, 7, 59, 105
9, 94524, Note_off_c, 7, 59, 64
9, 94560, Note_on_c, 7, 59, 105
9, 94752, Note_off_c, 7, 59, 64
9, 95040, Note_on_c, 7, 60, 105
9, 95124, Note_off_c, 7, 60, 64
9, 95160, Note_on_c, 7, 60, 105
9, 95244, Note_off_c, 7, 60, 64
9, 95280, Note_on_c, 7, 60, 105
9, 95364, Note_off_c, 7, 60, 64
9, 95400, Note_on_c, 7, 60, 105
9, 95484, Note_off_c, 7, 60, 64
9, 95520, Note_on_c, 7, 57, 105
9, 95604, Note_off_c, 7, 57, 64
9, 95640, Note_on_c, 7, 57, 105
9, 95724, Note_off_c, 7, 57, 64
9, 95760, Note_on_c, 7, 57, 105
9, 95844, Note_off_c, 7, 57, 64
9, 95880, Note_on_c, 7, 57, 105
9, 95964, Note_off_c, 7, 57, 64
9, 96000, Note_on_c, 7, 54, 105
9, 96144, Note_off_c, 7, 54, 64
9, 96240, Note_on_c, 7, 66, 105
9, 96384, Note_off_c, 7, 66, 64
9, 98640, Note_on_c, 7, 51, 58
9, 98880, Note_off_c, 7, 51, 64
9, 98880, Note_on_c, 7, 50, 58
9, 99024, Note_off_c, 7, 50, 64
9, 99120, Note_on_c, 7, 60, 58
9, 99264, Note_off_c, 7, 60, 64
9, 100320, Note_on_c, 7, 62, 58
9, 100800, Note_off_c, 7, 62, 64
9, 100800, Note_on_c, 7, 64, 58
9, 101280, Note_off_c, 7, 64, 64
9, 101280, Note_on_c, 7, 60, 58
9, 101664, Note_off_c, 7, 60, 64
9, 101760, Note_on_c, 7, 59, 105
9, 101844, Note_off_c, 7, 59, 64
9, 101880, Note_on_c, 7, 59, 105
9, 101940, Note_off_c, 7, 59, 64
9, 101940, Note_on_c, 7, 62, 105
9, 101982, Note_off_c, 7, 62, 64
9, 102000, Note_on_c, 7, 67, 105
9, 102084, Note_off_c, 7, 67, 64
9, 102120, Note_on_c, 7, 67, 105
9, 102204, Note_off_c, 7, 67, 64
9, 102240, Note_on_c, 7, 67, 105
9, 102324, Note_off_c, 7, 67, 64
9, 102360, Note_on_c, 7, 66, 105
9, 102360, Note_on_c, 7, 69, 105
9, 102444, Note_off_c, 7, 69, 64
9, 102444, Note_off_c, 7, 66, 64
9, 102480, Note_on_c, 7, 71, 105
9, 102480, Note_on_c, 7, 67, 105
9, 102564, Note_off_c, 7, 67, 64
9, 102564, Note_off_c, 7, 71, 64
9, 102600, Note_on_c, 7, 72, 105
9, 102600, Note_on_c, 7, 69, 105
9, 102684, Note_off_c, 7, 69, 64
9, 102684, Note_off_c, 7, 72, 64
9, 102720, Note_on_c, 7, 74, 105
9, 102720, Note_on_c, 7, 71, 105
9, 103008, Note_off_c, 7, 71, 64
9, 103008, Note_off_c, 7, 74, 64
9, 103080, Note_on_c, 7, 70, 105
9, 103080, Note_on_c, 7, 73, 105
9, 103164, Note_off_c, 7, 73, 64
9, 103164, Note_off_c, 7, 70, 64
9, 103200, Note_on_c, 7, 71, 105
9, 103200, Note_on_c, 7, 74, 105
9, 103284, Note_off_c, 7, 74, 64
9, 103284, Note_off_c, 7, 71, 64
9, 103320, Note_on_c, 7, 73, 105
9, 103320, Note_on_c, 7, 70, 105
9, 103404, Note_off_c, 7, 70, 64
9, 103404, Note_off_c, 7, 73, 64
9, 103440, Note_on_c, 7, 71, 105
9, 103440, Note_on_c, 7, 74, 105
9, 103524, Note_off_c, 7, 74, 64
9, 103524, Note_off_c, 7, 71, 64
9, 103560, Note_on_c, 7, 70, 105
9, 103560, Note_on_c, 7, 73, 105
9, 103644, Note_off_c, 7, 73, 64
9, 103644, Note_off_c, 7, 70, 64
9, 103680, Note_on_c, 7, 74, 105
9, 103680, Note_on_c, 7, 71, 105
9, 103764, Note_off_c, 7, 71, 64
9, 103764, Note_off_c, 7, 74, 64
9, 103800, Note_on_c, 7, 71, 105
9, 103800, Note_on_c, 7, 74, 105
9, 103884, Note_off_c, 7, 74, 64
9, 103884, Note_off_c, 7, 71, 64
9, 103920, Note_on_c, 7, 67, 105
9, 103920, Note_on_c, 7, 71, 105
9, 104004, Note_off_c, 7, 71, 64
9, 104004, Note_off_c, 7, 67, 64
9, 104040, Note_on_c, 7, 71, 105
9, 104040, Note_on_c, 7, 67, 105
9, 104124, Note_off_c, 7, 67, 64
9, 104124, Note_off_c, 7, 71, 64
9, 104160, Note_on_c, 7, 69, 105
9, 104160, Note_on_c, 7, 72, 105
9, 104244, Note_off_c, 7, 72, 64
9, 104244, Note_off_c, 7, 69, 64
9, 104280, Note_on_c, 7, 72, 105
9, 104280, Note_on_c, 7, 69, 105
9, 104364, Note_off_c, 7, 69, 64
9, 104364, Note_off_c, 7, 72, 64
9, 104400, Note_on_c, 7, 69, 105
9, 104400, Note_on_c, 7, 66, 105
9, 104484, Note_off_c, 7, 66, 64
9, 104484, Note_off_c, 7, 69, 64
9, 104520, Note_on_c, 7, 66, 105
9, 104520, Note_on_c, 7, 69, 105
9, 104604, Note_off_c, 7, 69, 64
9, 104604, Note_off_c, 7, 66, 64
9, 104640, Note_on_c, 7, 67, 105
9, 104724, Note_off_c, 7, 67, 64
9, 104760, Note_on_c, 7, 62, 105
9, 104800, Note_off_c, 7, 62, 64
9, 104800, Note_on_c, 7, 64, 105
9, 104840, Note_off_c, 7, 64, 64
9, 104840, Note_on_c, 7, 66, 105
9, 104880, Note_off_c, 7, 66, 64
9, 104880, Note_on_c, 7, 67, 105
9, 104964, Note_off_c, 7, 67, 64
9, 105000, Note_on_c, 7, 67, 105
9, 105084, Note_off_c, 7, 67, 64
9, 105120, Note_on_c, 7, 67, 105
9, 105204, Note_off_c, 7, 67, 64
9, 105240, Note_on_c, 7, 69, 105
9, 105240, Note_on_c, 7, 66, 105
9, 105324, Note_off_c, 7, 66, 64
9, 105324, Note_off_c, 7, 69, 64
9, 105360, Note_on_c, 7, 67, 105
9, 105360, Note_on_c, 7, 71, 105
9, 105444, Note_off_c, 7, 71, 64
9, 105444, Note_off_c, 7, 67, 64
9, 105480, Note_on_c, 7, 72, 105
9, 105480, Note_on_c, 7, 69, 105
9, 105564, Note_off_c, 7, 69, 64
9, 105564, Note_off_c, 7, 72, 64
9, 105600, Note_on_c, 7, 74, 105
9, 105600, Note_on_c, 7, 71, 105
9, 105672, Note_off_c, 7, 71, 64
9, 105672, Note_off_c, 7, 74, 64
9, 105720, Note_on_c, 7, 71, 105
9, 105720, Note_on_c, 7, 74, 105
9, 105912, Note_off_c, 7, 74, 64
9, 105912, Note_off_c, 7, 71, 64
9, 105960, Note_on_c, 7, 73, 105
9, 105960, Note_on_c, 7, 70, 105
9, 106044, Note_off_c, 7, 70, 64
9, 106044, Note_off_c, 7, 73, 64
9, 106080, Note_on_c, 7, 74, 105
9, 106080, Note_on_c, 7, 71, 105
9, 106164, Note_off_c, 7, 71, 64
9, 106164, Note_off_c, 7, 74, 64
9, 106200, Note_on_c, 7, 70, 105
9, 106200, Note_on_c, 7, 73, 105
9, 106284, Note_off_c, 7, 73, 64
9, 106284, Note_off_c, 7, 70, 64
9, 106320, Note_on_c, 7, 74, 105
9, 106320, Note_on_c, 7, 71, 105
9, 106404, Note_off_c, 7, 71, 64
9, 106404, Note_off_c, 7, 74, 64
9, 106440, Note_on_c, 7, 70, 105
9, 106440, Note_on_c, 7, 73, 105
9, 106524, Note_off_c, 7, 73, 64
9, 106524, Note_off_c, 7, 70, 64
9, 106560, Note_on_c, 7, 74, 105
9, 106560, Note_on_c, 7, 71, 105
9, 106644, Note_off_c, 7, 71, 64
9, 106644, Note_off_c, 7, 74, 64
9, 106680, Note_on_c, 7, 71, 105
9, 106680, Note_on_c, 7, 74, 105
9, 106764, Note_off_c, 7, 74, 64
9, 106764, Note_off_c, 7, 71, 64
9, 106800, Note_on_c, 7, 67, 105
9, 106800, Note_on_c, 7, 71, 105
9, 106884, Note_off_c, 7, 71, 64
9, 106884, Note_off_c, 7, 67, 64
9, 106920, Note_on_c, 7, 67, 105
9, 106920, Note_on_c, 7, 71, 105
9, 107004, Note_off_c, 7, 71, 64
9, 107004, Note_off_c, 7, 67, 64
9, 107040, Note_on_c, 7, 72, 105
9, 107040, Note_on_c, 7, 69, 105
9, 107124, Note_off_c, 7, 69, 64
9, 107124, Note_off_c, 7, 72, 64
9, 107160, Note_on_c, 7, 72, 105
9, 107160, Note_on_c, 7, 69, 105
9, 107244, Note_off_c, 7, 69, 64
9, 107244, Note_off_c, 7, 72, 64
9, 107280, Note_on_c, 7, 69, 105
9, 107280, Note_on_c, 7, 66, 105
9, 107364, Note_off_c, 7, 66, 64
9, 107364, Note_off_c, 7, 69, 64
9, 107400, Note_on_c, 7, 66, 105
9, 107400, Note_on_c, 7, 69, 105
9, 107484, Note_off_c, 7, 69, 64
9, 107484, Note_off_c, 7, 66, 64
9, 107520, Note_on_c, 7, 71, 58
9, 107520, Note_on_c, 7, 74, 58
9, 107616, Note_off_c, 7, 74, 64
9, 107616, Note_off_c, 7, 71, 64
9, 107760, Note_on_c, 7, 67, 58
9, 107760, Note_on_c, 7, 71, 58
9, 107856, Note_off_c, 7, 71, 64
9, 107856, Note_off_c, 7, 67, 64
9, 108000, Note_on_c, 7, 72, 58
9, 108000, Note_on_c, 7, 69, 58
9, 108096, Note_off_c, 7, 69, 64
9, 108096, Note_off_c, 7, 72, 64
9, 108240, Note_on_c, 7, 69, 58
9, 108240, Note_on_c, 7, 66, 58
9, 108336, Note_off_c, 7, 66, 64
9, 108336, Note_off_c, 7, 69, 64
9, 108480, Note_on_c, 7, 74, 105
9, 108480, Note_on_c, 7, 71, 105
9, 108528, Note_off_c, 7, 71, 64
9, 108528, Note_off_c, 7, 74, 64
9, 108540, Note_on_c, 7, 74, 105
9, 108540, Note_on_c, 7, 71, 105
9, 108588, Note_off_c, 7, 71, 64
9, 108588, Note_off_c, 7, 74, 64
9, 108600, Note_on_c, 7, 71, 105
9, 108600, Note_on_c, 7, 74, 105
9, 108648, Note_off_c, 7, 74, 64
9, 108648, Note_off_c, 7, 71, 64
9, 108660, Note_on_c, 7, 74, 105
9, 108660, Note_on_c, 7, 71, 105
9, 108708, Note_off_c, 7, 71, 64
9, 108708, Note_off_c, 7, 74, 64
9, 108720, Note_on_c, 7, 71, 105
9, 108720, Note_on_c, 7, 67, 105
9, 108768, Note_off_c, 7, 67, 64
9, 108768, Note_off_c, 7, 71, 64
9, 108780, Note_on_c, 7, 67, 105
9, 108780, Note_on_c, 7, 71, 105
9, 108828, Note_off_c, 7, 71, 64
9, 108828, Note_off_c, 7, 67, 64
9, 108840, Note_on_c, 7, 71, 105
9, 108840, Note_on_c, 7, 67, 105
9, 108888, Note_off_c, 7, 67, 64
9, 108888, Note_off_c, 7, 71, 64
9, 108900, Note_on_c, 7, 67, 105
9, 108900, Note_on_c, 7, 71, 105
9, 108948, Note_off_c, 7, 71, 64
9, 108948, Note_off_c, 7, 67, 64
9, 108960, Note_on_c, 7, 69, 105
9, 108960, Note_on_c, 7, 72, 105
9, 109008, Note_off_c, 7, 72, 64
9, 109008, Note_off_c, 7, 69, 64
9, 109020, Note_on_c, 7, 72, 105
9, 109020, Note_on_c, 7, 69, 105
9, 109068, Note_off_c, 7, 69, 64
9, 109068, Note_off_c, 7, 72, 64
9, 109080, Note_on_c, 7, 72, 105
9, 109080, Note_on_c, 7, 69, 105
9, 109128, Note_off_c, 7, 69, 64
9, 109128, Note_off_c, 7, 72, 64
9, 109140, Note_on_c, 7, 72, 105
9, 109140, Note_on_c, 7, 69, 105
9, 109188, Note_off_c, 7, 69, 64
9, 109188, Note_off_c, 7, 72, 64
9, 109200, Note_on_c, 7, 69, 105
9, 109200, Note_on_c, 7, 66, 105
9, 109248, Note_off_c, 7, 66, 64
9, 109248, Note_off_c, 7, 69, 64
9, 109260, Note_on_c, 7, 66, 105
9, 109260, Note_on_c, 7, 69, 105
9, 109308, Note_off_c, 7, 69, 64
9, 109308, Note_off_c, 7, 66, 64
9, 109320, Note_on_c, 7, 66, 105
9, 109320, Note_on_c, 7, 69, 105
9, 109368, Note_off_c, 7, 69, 64
9, 109368, Note_off_c, 7, 66, 64
9, 109380, Note_on_c, 7, 69, 105
9, 109380, Note_on_c, 7, 66, 105
9, 109428, Note_off_c, 7, 66, 64
9, 109428, Note_off_c, 7, 69, 64
9, 109440, Note_on_c, 7, 67, 105
9, 109632, Note_off_c, 7, 67, 64
9, 113280, Note_on_c, 7, 55, 58
9, 115008, Note_off_c, 7, 55, 64
9, 115200, Note_on_c, 7, 55, 72
9, 115584, Note_off_c, 7, 55, 64
9, 115920, Note_on_c, 7, 60, 72
9, 116064, Note_off_c, 7, 60, 64
9, 116160, Note_on_c, 7, 60, 72
9, 116304, Note_off_c, 7, 60, 64
9, 116400, Note_on_c, 7, 60, 72
9, 116544, Note_off_c, 7, 60, 64
9, 117120, Note_on_c, 7, 60, 72
9, 119232, Note_off_c, 7, 60, 64
9, 119280, Note_on_c, 7, 65, 72
9, 119520, Note_off_c, 7, 65, 64
9, 119520, Note_on_c, 7, 64, 72
9, 119664, Note_off_c, 7, 64, 64
9, 119760, Note_on_c, 7, 62, 72
9, 119904, Note_off_c, 7, 62, 64
9, 120000, Note_on_c, 7, 60, 72
9, 121344, Note_off_c, 7, 60, 64
9, 121440, Note_on_c, 7, 57, 72
9, 121824, Note_off_c, 7, 57, 64
9, 121920, Note_on_c, 7, 55, 58
9, 122496, Note_off_c, 7, 55, 64
9, 122880, Note_on_c, 7, 67, 105
9, 122976, Note_off_c, 7, 67, 64
9, 123000, Note_on_c, 7, 67, 105
9, 123096, Note_off_c, 7, 67, 64
9, 123120, Note_on_c, 7, 67, 105
9, 123216, Note_off_c, 7, 67, 64
9, 123240, Note_on_c, 7, 67, 105
9, 123336, Note_off_c, 7, 67, 64
9, 123360, Note_on_c, 7, 67, 105
9, 123456, Note_off_c, 7, 67, 64
9, 123480, Note_on_c, 7, 67, 105
9, 123576, Note_off_c, 7, 67, 64
9, 123600, Note_on_c, 7, 67, 105
9, 123696, Note_off_c, 7, 67, 64
9, 123720, Note_on_c, 7, 67, 105
9, 123816, Note_off_c, 7, 67, 64
9, 123840, Note_on_c, 7, 67, 105
9, 123936, Note_off_c, 7, 67, 64
9, 123960, Note_on_c, 7, 67, 105
9, 124056, Note_off_c, 7, 67, 64
9, 124080, Note_on_c, 7, 67, 105
9, 124176, Note_off_c, 7, 67, 64
9, 124200, Note_on_c, 7, 67, 105
9, 124296, Note_off_c, 7, 67, 64
9, 124320, Note_on_c, 7, 67, 105
9, 124416, Note_off_c, 7, 67, 64
9, 124440, Note_on_c, 7, 67, 105
9, 124536, Note_off_c, 7, 67, 64
9, 124560, Note_on_c, 7, 67, 105
9, 124656, Note_off_c, 7, 67, 64
9, 124680, Note_on_c, 7, 67, 105
9, 124776, Note_off_c, 7, 67, 64
9, 124800, Note_on_c, 7, 67, 105
9, 125184, Note_off_c, 7, 67, 64
9, 125520, Note_on_c, 7, 60, 105
9, 125688, Note_off_c, 7, 60, 64
9, 125760, Note_on_c, 7, 65, 105
9, 125928, Note_off_c, 7, 65, 64
9, 126000, Note_on_c, 7, 60, 105
9, 126168, Note_off_c, 7, 60, 64
9, 126480, Note_on_c, 7, 60, 105
9, 126648, Note_off_c, 7, 60, 64
9, 126720, Note_on_c, 7, 65, 105
9, 126888, Note_off_c, 7, 65, 64
9, 126960, Note_on_c, 7, 60, 105
9, 127128, Note_off_c, 7, 60, 64
9, 127440, Note_on_c, 7, 60, 105
9, 127608, Note_off_c, 7, 60, 64
9, 127680, Note_on_c, 7, 65, 105
9, 127848, Note_off_c, 7, 65, 64
9, 127920, Note_on_c, 7, 60, 105
9, 128088, Note_off_c, 7, 60, 64
9, 128160, Note_on_c, 7, 65, 105
9, 128328, Note_off_c, 7, 65, 64
9, 128400, Note_on_c, 7, 60, 105
9, 128568, Note_off_c, 7, 60, 64
9, 128640, Note_on_c, 7, 65, 105
9, 128808, Note_off_c, 7, 65, 64
9, 128880, Note_on_c, 7, 60, 105
9, 129048, Note_off_c, 7, 60, 64
9, 129720, Note_on_c, 7, 60, 72
9, 129840, Note_off_c, 7, 60, 64
9, 129840, Note_on_c, 7, 62, 72
9, 129960, Note_off_c, 7, 62, 64
9, 129960, Note_on_c, 7, 64, 72
9, 130080, Note_off_c, 7, 64, 64
9, 130080, Note_on_c, 7, 65, 72
9, 130200, Note_off_c, 7, 65, 64
9, 130200, Note_on_c, 7, 67, 72
9, 130320, Note_off_c, 7, 67, 64
9, 130320, Note_on_c, 7, 69, 72
9, 130440, Note_off_c, 7, 69, 64
9, 130440, Note_on_c, 7, 65, 72
9, 130536, Note_off_c, 7, 65, 64
9, 130560, Note_on_c, 7, 64, 72
9, 130680, Note_off_c, 7, 64, 64
9, 130680, Note_on_c, 7, 62, 72
9, 130800, Note_off_c, 7, 62, 64
9, 130800, Note_on_c, 7, 60, 72
9, 130920, Note_off_c, 7, 60, 64
9, 130920, Note_on_c, 7, 58, 72
9, 131040, Note_off_c, 7, 58, 64
9, 131040, Note_on_c, 7, 57, 72
9, 131160, Note_off_c, 7, 57, 64
9, 131160, Note_on_c, 7, 55, 72
9, 131280, Note_off_c, 7, 55, 64
9, 131280, Note_on_c, 7, 53, 72
9, 131400, Note_off_c, 7, 53, 64
9, 131400, Note_on_c, 7, 52, 72
9, 131496, Note_off_c, 7, 52, 64
9, 131520, Note_on_c, 7, 53, 58
9, 131712, Note_off_c, 7, 53, 64
9, 133440, Note_on_c, 7, 60, 72
9, 133560, Note_off_c, 7, 60, 64
9, 133560, Note_on_c, 7, 55, 72
9, 133680, Note_off_c, 7, 55, 64
9, 133680, Note_on_c, 7, 60, 72
9, 133800, Note_off_c, 7, 60, 64
9, 133800, Note_on_c, 7, 55, 72
9, 133896, Note_off_c, 7, 55, 64
9, 133920, Note_on_c, 7, 60, 72
9, 134040, Note_off_c, 7, 60, 64
9, 134040, Note_on_c, 7, 55, 72
9, 134160, Note_off_c, 7, 55, 64
9, 134160, Note_on_c, 7, 62, 72
9, 134280, Note_off_c, 7, 62, 64
9, 134280, Note_on_c, 7, 55, 72
9, 134376, Note_off_c, 7, 55, 64
9, 134400, Note_on_c, 7, 60, 105
9, 134484, Note_off_c, 7, 60, 64
9, 134520, Note_on_c, 7, 64, 105
9, 134604, Note_off_c, 7, 64, 64
9, 134640, Note_on_c, 7, 67, 105
9, 134724, Note_off_c, 7, 67, 64
9, 134760, Note_on_c, 7, 72, 105
9, 134844, Note_off_c, 7, 72, 64
9, 134880, Note_on_c, 7, 76, 105
9, 134964, Note_off_c, 7, 76, 64
9, 135000, Note_on_c, 7, 74, 105
9, 135084, Note_off_c, 7, 74, 64
9, 135120, Note_on_c, 7, 76, 105
9, 135204, Note_off_c, 7, 76, 64
9, 135240, Note_on_c, 7, 72, 105
9, 135324, Note_off_c, 7, 72, 64
9, 135360, Note_on_c, 7, 71, 105
9, 135444, Note_off_c, 7, 71, 64
9, 135480, Note_on_c, 7, 72, 105
9, 135564, Note_off_c, 7, 72, 64
9, 135600, Note_on_c, 7, 74, 105
9, 135684, Note_off_c, 7, 74, 64
9, 135720, Note_on_c, 7, 72, 105
9, 135804, Note_off_c, 7, 72, 64
9, 135840, Note_on_c, 7, 71, 105
9, 135924, Note_off_c, 7, 71, 64
9, 135960, Note_on_c, 7, 69, 105
9, 136044, Note_off_c, 7, 69, 64
9, 136080, Note_on_c, 7, 67, 105
9, 136164, Note_off_c, 7, 67, 64
9, 136200, Note_on_c, 7, 65, 105
9, 136284, Note_off_c, 7, 65, 64
9, 136320, Note_on_c, 7, 64, 105
9, 136404, Note_off_c, 7, 64, 64
9, 136440, Note_on_c, 7, 65, 105
9, 136524, Note_off_c, 7, 65, 64
9, 136560, Note_on_c, 7, 67, 105
9, 136644, Note_off_c, 7, 67, 64
9, 136680, Note_on_c, 7, 64, 105
9, 136764, Note_off_c, 7, 64, 64
9, 136800, Note_on_c, 7, 69, 105
9, 136884, Note_off_c, 7, 69, 64
9, 136920, Note_on_c, 7, 71, 105
9, 137004, Note_off_c, 7, 71, 64
9, 137040, Note_on_c, 7, 72, 105
9, 137124, Note_off_c, 7, 72, 64
9, 137160, Note_on_c, 7, 69, 105
9, 137244, Note_off_c, 7, 69, 64
9, 137280, Note_on_c, 7, 65, 105
9, 137364, Note_off_c, 7, 65, 64
9, 137400, Note_on_c, 7, 62, 105
9, 137484, Note_off_c, 7, 62, 64
9, 137520, Note_on_c, 7, 64, 105
9, 137604, Note_off_c, 7, 64, 64
9, 137640, Note_on_c, 7, 65, 105
9, 137724, Note_off_c, 7, 65, 64
9, 137760, Note_on_c, 7, 67, 105
9, 137844, Note_off_c, 7, 67, 64
9, 137880, Note_on_c, 7, 65, 105
9, 137964, Note_off_c, 7, 65, 64
9, 138000, Note_on_c, 7, 67, 105
9, 138084, Note_off_c, 7, 67, 64
9, 138120, Note_on_c, 7, 55, 105
9, 138204, Note_off_c, 7, 55, 64
9, 138240, Note_on_c, 7, 60, 105
9, 138324, Note_off_c, 7, 60, 64
9, 138360, Note_on_c, 7, 64, 105
9, 138444, Note_off_c, 7, 64, 64
9, 138480, Note_on_c, 7, 67, 105
9, 138564, Note_off_c, 7, 67, 64
9, 138600, Note_on_c, 7, 72, 105
9, 138684, Note_off_c, 7, 72, 64
9, 138720, Note_on_c, 7, 76, 105
9, 138804, Note_off_c, 7, 76, 64
9, 138840, Note_on_c, 7, 74, 105
9, 138924, Note_off_c, 7, 74, 64
9, 138960, Note_on_c, 7, 76, 105
9, 139044, Note_off_c, 7, 76, 64
9, 139080, Note_on_c, 7, 72, 105
9, 139164, Note_off_c, 7, 72, 64
9, 139200, Note_on_c, 7, 71, 105
9, 139284, Note_off_c, 7, 71, 64
9, 139320, Note_on_c, 7, 72, 105
9, 139404, Note_off_c, 7, 72, 64
9, 139440, Note_on_c, 7, 74, 105
9, 139524, Note_off_c, 7, 74, 64
9, 139560, Note_on_c, 7, 72, 105
9, 139644, Note_off_c, 7, 72, 64
9, 139680, Note_on_c, 7, 71, 105
9, 139764, Note_off_c, 7, 71, 64
9, 139800, Note_on_c, 7, 69, 105
9, 139884, Note_off_c, 7, 69, 64
9, 139920, Note_on_c, 7, 67, 105
9, 140004, Note_off_c, 7, 67, 64
9, 140040, Note_on_c, 7, 65, 105
9, 140124, Note_off_c, 7, 65, 64
9, 140160, Note_on_c, 7, 64, 105
9, 140244, Note_off_c, 7, 64, 64
9, 140280, Note_on_c, 7, 65, 105
9, 140364, Note_off_c, 7, 65, 64
9, 140400, Note_on_c, 7, 67, 105
9, 140484, Note_off_c, 7, 67, 64
9, 140520, Note_on_c, 7, 64, 105
9, 140604, Note_off_c, 7, 64, 64
9, 140640, Note_on_c, 7, 69, 105
9, 140724, Note_off_c, 7, 69, 64
9, 140760, Note_on_c, 7, 71, 105
9, 140844, Note_off_c, 7, 71, 64
9, 140880, Note_on_c, 7, 72, 105
9, 140964, Note_off_c, 7, 72, 64
9, 141000, Note_on_c, 7, 69, 105
9, 141084, Note_off_c, 7, 69, 64
9, 141120, Note_on_c, 7, 66, 105
9, 141204, Note_off_c, 7, 66, 64
9, 141240, Note_on_c, 7, 67, 105
9, 141324, Note_off_c, 7, 67, 64
9, 141360, Note_on_c, 7, 69, 105
9, 141444, Note_off_c, 7, 69, 64
9, 141480, Note_on_c, 7, 67, 105
9, 141564, Note_off_c, 7, 67, 64
9, 141600, Note_on_c, 7, 66, 105
9, 141684, Note_off_c, 7, 66, 64
9, 141720, Note_on_c, 7, 62, 105
9, 141804, Note_off_c, 7, 62, 64
9, 141840, Note_on_c, 7, 64, 105
9, 141924, Note_off_c, 7, 64, 64
9, 141960, Note_on_c, 7, 66, 105
9, 142044, Note_off_c, 7, 66, 64
9, 142080, Note_on_c, 7, 67, 105
9, 142164, Note_off_c, 7, 67, 64
9, 142200, Note_on_c, 7, 69, 105
9, 142284, Note_off_c, 7, 69, 64
9, 142320, Note_on_c, 7, 71, 105
9, 142404, Note_off_c, 7, 71, 64
9, 142440, Note_on_c, 7, 69, 105
9, 142524, Note_off_c, 7, 69, 64
9, 142560, Note_on_c, 7, 68, 105
9, 142644, Note_off_c, 7, 68, 64
9, 142680, Note_on_c, 7, 69, 105
9, 142764, Note_off_c, 7, 69, 64
9, 142800, Note_on_c, 7, 66, 105
9, 142884, Note_off_c, 7, 66, 64
9, 142920, Note_on_c, 7, 68, 105
9, 143004, Note_off_c, 7, 68, 64
9, 143040, Note_on_c, 7, 69, 105
9, 143124, Note_off_c, 7, 69, 64
9, 143160, Note_on_c, 7, 71, 105
9, 143244, Note_off_c, 7, 71, 64
9, 143280, Note_on_c, 7, 72, 105
9, 143364, Note_off_c, 7, 72, 64
9, 143400, Note_on_c, 7, 71, 105
9, 143484, Note_off_c, 7, 71, 64
9, 143520, Note_on_c, 7, 69, 105
9, 143604, Note_off_c, 7, 69, 64
9, 143640, Note_on_c, 7, 71, 105
9, 143724, Note_off_c, 7, 71, 64
9, 143760, Note_on_c, 7, 67, 105
9, 143844, Note_off_c, 7, 67, 64
9, 143880, Note_on_c, 7, 69, 105
9, 143964, Note_off_c, 7, 69, 64
9, 144000, Note_on_c, 7, 66, 105
9, 144084, Note_off_c, 7, 66, 64
9, 144120, Note_on_c, 7, 67, 105
9, 144204, Note_off_c, 7, 67, 64
9, 144240, Note_on_c, 7, 69, 105
9, 144324, Note_off_c, 7, 69, 64
9, 144360, Note_on_c, 7, 67, 105
9, 144444, Note_off_c, 7, 67, 64
9, 144480, Note_on_c, 7, 66, 105
9, 144564, Note_off_c, 7, 66, 64
9, 144600, Note_on_c, 7, 62, 105
9, 144684, Note_off_c, 7, 62, 64
9, 144720, Note_on_c, 7, 64, 105
9, 144804, Note_off_c, 7, 64, 64
9, 144840, Note_on_c, 7, 66, 105
9, 144924, Note_off_c, 7, 66, 64
9, 144960, Note_on_c, 7, 67, 105
9, 145044, Note_off_c, 7, 67, 64
9, 145080, Note_on_c, 7, 71, 105
9, 145164, Note_off_c, 7, 71, 64
9, 145200, Note_on_c, 7, 74, 105
9, 145284, Note_off_c, 7, 74, 64
9, 145320, Note_on_c, 7, 74, 105
9, 145404, Note_off_c, 7, 74, 64
9, 145440, Note_on_c, 7, 74, 105
9, 145524, Note_off_c, 7, 74, 64
9, 145560, Note_on_c, 7, 74, 105
9, 145644, Note_off_c, 7, 74, 64
9, 145680, Note_on_c, 7, 71, 105
9, 145764, Note_off_c, 7, 71, 64
9, 145800, Note_on_c, 7, 67, 105
9, 145884, Note_off_c, 7, 67, 64
9, 145920, Note_on_c, 7, 72, 105
9, 146004, Note_off_c, 7, 72, 64
9, 146040, Note_on_c, 7, 69, 105
9, 146124, Note_off_c, 7, 69, 64
9, 146160, Note_on_c, 7, 71, 105
9, 146244, Note_off_c, 7, 71, 64
9, 146280, Note_on_c, 7, 67, 105
9, 146364, Note_off_c, 7, 67, 64
9, 146400, Note_on_c, 7, 66, 105
9, 146484, Note_off_c, 7, 66, 64
9, 146520, Note_on_c, 7, 69, 105
9, 146604, Note_off_c, 7, 69, 64
9, 146640, Note_on_c, 7, 66, 105
9, 146724, Note_off_c, 7, 66, 64
9, 146760, Note_on_c, 7, 62, 105
9, 146844, Note_off_c, 7, 62, 64
9, 146880, Note_on_c, 7, 67, 105
9, 146964, Note_off_c, 7, 67, 64
9, 147000, Note_on_c, 7, 71, 105
9, 147084, Note_off_c, 7, 71, 64
9, 147120, Note_on_c, 7, 74, 105
9, 147204, Note_off_c, 7, 74, 64
9, 147240, Note_on_c, 7, 74, 105
9, 147324, Note_off_c, 7, 74, 64
9, 147360, Note_on_c, 7, 74, 105
9, 147444, Note_off_c, 7, 74, 64
9, 147480, Note_on_c, 7, 74, 105
9, 147564, Note_off_c, 7, 74, 64
9, 147600, Note_on_c, 7, 71, 105
9, 147684, Note_off_c, 7, 71, 64
9, 147720, Note_on_c, 7, 67, 105
9, 147804, Note_off_c, 7, 67, 64
9, 147840, Note_on_c, 7, 72, 105
9, 147924, Note_off_c, 7, 72, 64
9, 147960, Note_on_c, 7, 69, 105
9, 148044, Note_off_c, 7, 69, 64
9, 148080, Note_on_c, 7, 71, 105
9, 148164, Note_off_c, 7, 71, 64
9, 148200, Note_on_c, 7, 67, 105
9, 148284, Note_off_c, 7, 67, 64
9, 148320, Note_on_c, 7, 66, 105
9, 148404, Note_off_c, 7, 66, 64
9, 148440, Note_on_c, 7, 69, 105
9, 148524, Note_off_c, 7, 69, 64
9, 148560, Note_on_c, 7, 66, 105
9, 148644, Note_off_c, 7, 66, 64
9, 148680, Note_on_c, 7, 62, 105
9, 148764, Note_off_c, 7, 62, 64
9, 148800, Note_on_c, 7, 67, 105
9, 148884, Note_off_c, 7, 67, 64
9, 148920, Note_on_c, 7, 69, 105
9, 149004, Note_off_c, 7, 69, 64
9, 149040, Note_on_c, 7, 66, 105
9, 149124, Note_off_c, 7, 66, 64
9, 149160, Note_on_c, 7, 67, 105
9, 149244, Note_off_c, 7, 67, 64
9, 149280, Note_on_c, 7, 64, 105
9, 149364, Note_off_c, 7, 64, 64
9, 149400, Note_on_c, 7, 65, 105
9, 149484, Note_off_c, 7, 65, 64
9, 149520, Note_on_c, 7, 62, 105
9, 149604, Note_off_c, 7, 62, 64
9, 149640, Note_on_c, 7, 64, 105
9, 149724, Note_off_c, 7, 64, 64
9, 149760, Note_on_c, 7, 64, 110
9, 149844, Note_off_c, 7, 64, 64
9, 149880, Note_on_c, 7, 64, 72
9, 149964, Note_off_c, 7, 64, 64
9, 150000, Note_on_c, 7, 64, 72
9, 150084, Note_off_c, 7, 64, 64
9, 150120, Note_on_c, 7, 64, 72
9, 150204, Note_off_c, 7, 64, 64
9, 150240, Note_on_c, 7, 65, 72
9, 150324, Note_off_c, 7, 65, 64
9, 150360, Note_on_c, 7, 65, 72
9, 150444, Note_off_c, 7, 65, 64
9, 150480, Note_on_c, 7, 65, 72
9, 150564, Note_off_c, 7, 65, 64
9, 150600, Note_on_c, 7, 65, 72
9, 150684, Note_off_c, 7, 65, 64
9, 150720, Note_on_c, 7, 64, 110
9, 150804, Note_off_c, 7, 64, 64
9, 150840, Note_on_c, 7, 64, 72
9, 150924, Note_off_c, 7, 64, 64
9, 150960, Note_on_c, 7, 64, 72
9, 151044, Note_off_c, 7, 64, 64
9, 151080, Note_on_c, 7, 64, 72
9, 151164, Note_off_c, 7, 64, 64
9, 151200, Note_on_c, 7, 65, 72
9, 151284, Note_off_c, 7, 65, 64
9, 151320, Note_on_c, 7, 65, 72
9, 151404, Note_off_c, 7, 65, 64
9, 151440, Note_on_c, 7, 65, 72
9, 151524, Note_off_c, 7, 65, 64
9, 151560, Note_on_c, 7, 65, 72
9, 151644, Note_off_c, 7, 65, 64
9, 151680, Note_on_c, 7, 64, 105
9, 151752, Note_off_c, 7, 64, 64
9, 151800, Note_on_c, 7, 62, 105
9, 151872, Note_off_c, 7, 62, 64
9, 151920, Note_on_c, 7, 64, 105
9, 151992, Note_off_c, 7, 64, 64
9, 152040, Note_on_c, 7, 62, 105
9, 152112, Note_off_c, 7, 62, 64
9, 152160, Note_on_c, 7, 64, 105
9, 152232, Note_off_c, 7, 64, 64
9, 152280, Note_on_c, 7, 62, 105
9, 152352, Note_off_c, 7, 62, 64
9, 152400, Note_on_c, 7, 64, 105
9, 152472, Note_off_c, 7, 64, 64
9, 152520, Note_on_c, 7, 64, 105
9, 152592, Note_off_c, 7, 64, 64
9, 152640, Note_on_c, 7, 64, 105
9, 152712, Note_off_c, 7, 64, 64
9, 152760, Note_on_c, 7, 68, 105
9, 152832, Note_off_c, 7, 68, 64
9, 152880, Note_on_c, 7, 69, 105
9, 152952, Note_off_c, 7, 69, 64
9, 153000, Note_on_c, 7, 68, 105
9, 153072, Note_off_c, 7, 68, 64
9, 153120, Note_on_c, 7, 69, 105
9, 153192, Note_off_c, 7, 69, 64
9, 153240, Note_on_c, 7, 68, 105
9, 153312, Note_off_c, 7, 68, 64
9, 153360, Note_on_c, 7, 69, 105
9, 153432, Note_off_c, 7, 69, 64
9, 153480, Note_on_c, 7, 71, 105
9, 153552, Note_off_c, 7, 71, 64
9, 153600, Note_on_c, 7, 72, 105
9, 153792, Note_off_c, 7, 72, 64
9, 155520, Note_on_c, 7, 57, 58
9, 156432, Note_off_c, 7, 57, 64
9, 156480, Note_on_c, 7, 55, 58
9, 157392, Note_off_c, 7, 55, 64
9, 157440, Note_on_c, 7, 54, 58
9, 157584, Note_off_c, 7, 54, 64
9, 157680, Note_on_c, 7, 57, 58
9, 158160, Note_off_c, 7, 57, 64
9, 158160, Note_on_c, 7, 55, 72
9, 158352, Note_off_c, 7, 55, 64
9, 158400, Note_on_c, 7, 54, 72
9, 158544, Note_off_c, 7, 54, 64
9, 158640, Note_on_c, 7, 57, 72
9, 159120, Note_off_c, 7, 57, 64
9, 159120, Note_on_c, 7, 55, 72
9, 159312, Note_off_c, 7, 55, 64
9, 159360, Note_on_c, 7, 60, 58
9, 159744, Note_off_c, 7, 60, 64
9, 159840, Note_on_c, 7, 59, 58
9, 160224, Note_off_c, 7, 59, 64
9, 160320, Note_on_c, 7, 60, 58
9, 160704, Note_off_c, 7, 60, 64
9, 160800, Note_on_c, 7, 59, 58
9, 160992, Note_off_c, 7, 59, 64
9, 161040, Note_on_c, 7, 62, 58
9, 161232, Note_off_c, 7, 62, 64
9, 161280, Note_on_c, 7, 60, 58
9, 161472, Note_off_c, 7, 60, 64
9, 161760, Note_on_c, 7, 57, 58
9, 161952, Note_off_c, 7, 57, 64
9, 162240, Note_on_c, 7, 55, 58
9, 162432, Note_off_c, 7, 55, 64
9, 162720, Note_on_c, 7, 59, 105
9, 162864, Note_off_c, 7, 59, 64
9, 162960, Note_on_c, 7, 59, 105
9, 163104, Note_off_c, 7, 59, 64
9, 163200, Note_on_c, 7, 59, 105
9, 163368, Note_off_c, 7, 59, 64
9, 163440, Note_on_c, 7, 64, 105
9, 163524, Note_off_c, 7, 64, 64
9, 163560, Note_on_c, 7, 67, 105
9, 163644, Note_off_c, 7, 67, 64
9, 163680, Note_on_c, 7, 66, 105
9, 163764, Note_off_c, 7, 66, 64
9, 163800, Note_on_c, 7, 63, 105
9, 163884, Note_off_c, 7, 63, 64
9, 163920, Note_on_c, 7, 64, 105
9, 164004, Note_off_c, 7, 64, 64
9, 164040, Note_on_c, 7, 66, 105
9, 164124, Note_off_c, 7, 66, 64
9, 164160, Note_on_c, 7, 67, 105
9, 164244, Note_off_c, 7, 67, 64
9, 164280, Note_on_c, 7, 69, 105
9, 164364, Note_off_c, 7, 69, 64
9, 164400, Note_on_c, 7, 71, 105
9, 164484, Note_off_c, 7, 71, 64
9, 164520, Note_on_c, 7, 67, 105
9, 164604, Note_off_c, 7, 67, 64
9, 164640, Note_on_c, 7, 66, 105
9, 164724, Note_off_c, 7, 66, 64
9, 164760, Note_on_c, 7, 63, 105
9, 164844, Note_off_c, 7, 63, 64
9, 164880, Note_on_c, 7, 64, 105
9, 164964, Note_off_c, 7, 64, 64
9, 165000, Note_on_c, 7, 66, 105
9, 165084, Note_off_c, 7, 66, 64
9, 165120, Note_on_c, 7, 67, 105
9, 165204, Note_off_c, 7, 67, 64
9, 165240, Note_on_c, 7, 69, 105
9, 165324, Note_off_c, 7, 69, 64
9, 165360, Note_on_c, 7, 71, 105
9, 165444, Note_off_c, 7, 71, 64
9, 165480, Note_on_c, 7, 67, 105
9, 165564, Note_off_c, 7, 67, 64
9, 165600, Note_on_c, 7, 66, 105
9, 165684, Note_off_c, 7, 66, 64
9, 165720, Note_on_c, 7, 63, 105
9, 165804, Note_off_c, 7, 63, 64
9, 165840, Note_on_c, 7, 64, 105
9, 165924, Note_off_c, 7, 64, 64
9, 165960, Note_on_c, 7, 66, 105
9, 166044, Note_off_c, 7, 66, 64
9, 166080, Note_on_c, 7, 59, 105
9, 166272, Note_off_c, 7, 59, 64
9, 168480, Note_on_c, 7, 67, 72
9, 168672, Note_off_c, 7, 67, 64
9, 168960, Note_on_c, 7, 67, 72
9, 169152, Note_off_c, 7, 67, 64
9, 169440, Note_on_c, 7, 62, 72
9, 169632, Note_off_c, 7, 62, 64
9, 169920, Note_on_c, 7, 59, 58
9, 170112, Note_off_c, 7, 59, 64
9, 171840, Note_on_c, 7, 59, 58
9, 173952, Note_off_c, 7, 59, 64
9, 174240, Note_on_c, 7, 60, 105
9, 174384, Note_off_c, 7, 60, 64
9, 174480, Note_on_c, 7, 60, 105
9, 174624, Note_off_c, 7, 60, 64
9, 174720, Note_on_c, 7, 60, 105
9, 174804, Note_off_c, 7, 60, 64
9, 174840, Note_on_c, 7, 64, 105
9, 174924, Note_off_c, 7, 64, 64
9, 174960, Note_on_c, 7, 67, 105
9, 175044, Note_off_c, 7, 67, 64
9, 175080, Note_on_c, 7, 72, 105
9, 175164, Note_off_c, 7, 72, 64
9, 175200, Note_on_c, 7, 71, 105
9, 175284, Note_off_c, 7, 71, 64
9, 175320, Note_on_c, 7, 67, 105
9, 175404, Note_off_c, 7, 67, 64
9, 175440, Note_on_c, 7, 69, 105
9, 175524, Note_off_c, 7, 69, 64
9, 175560, Note_on_c, 7, 71, 105
9, 175644, Note_off_c, 7, 71, 64
9, 175680, Note_on_c, 7, 72, 105
9, 175764, Note_off_c, 7, 72, 64
9, 175800, Note_on_c, 7, 72, 105
9, 175884, Note_off_c, 7, 72, 64
9, 175920, Note_on_c, 7, 72, 105
9, 176004, Note_off_c, 7, 72, 64
9, 176040, Note_on_c, 7, 72, 105
9, 176124, Note_off_c, 7, 72, 64
9, 176160, Note_on_c, 7, 72, 105
9, 176280, Note_off_c, 7, 72, 64
9, 176280, Note_on_c, 7, 67, 105
9, 176364, Note_off_c, 7, 67, 64
9, 176400, Note_on_c, 7, 67, 105
9, 176520, Note_off_c, 7, 67, 64
9, 176520, Note_on_c, 7, 64, 105
9, 176604, Note_off_c, 7, 64, 64
9, 176640, Note_on_c, 7, 62, 105
9, 176724, Note_off_c, 7, 62, 64
9, 176760, Note_on_c, 7, 62, 105
9, 176844, Note_off_c, 7, 62, 64
9, 176880, Note_on_c, 7, 62, 105
9, 176964, Note_off_c, 7, 62, 64
9, 177000, Note_on_c, 7, 62, 105
9, 177084, Note_off_c, 7, 62, 64
9, 177120, Note_on_c, 7, 62, 105
9, 177204, Note_off_c, 7, 62, 64
9, 177240, Note_on_c, 7, 62, 105
9, 177324, Note_off_c, 7, 62, 64
9, 177360, Note_on_c, 7, 62, 105
9, 177444, Note_off_c, 7, 62, 64
9, 177480, Note_on_c, 7, 62, 105
9, 177564, Note_off_c, 7, 62, 64
9, 177600, Note_on_c, 7, 62, 105
9, 177684, Note_off_c, 7, 62, 64
9, 177720, Note_on_c, 7, 59, 105
9, 177804, Note_off_c, 7, 59, 64
9, 177840, Note_on_c, 7, 60, 105
9, 177924, Note_off_c, 7, 60, 64
9, 177960, Note_on_c, 7, 55, 105
9, 178044, Note_off_c, 7, 55, 64
9, 178080, Note_on_c, 7, 55, 105
9, 178164, Note_off_c, 7, 55, 64
9, 178200, Note_on_c, 7, 52, 105
9, 178284, Note_off_c, 7, 52, 64
9, 178320, Note_on_c, 7, 50, 105
9, 178404, Note_off_c, 7, 50, 64
9, 178440, Note_on_c, 7, 53, 105
9, 178524, Note_off_c, 7, 53, 64
9, 178560, Note_on_c, 7, 52, 105
9, 178644, Note_off_c, 7, 52, 64
9, 178680, Note_on_c, 7, 55, 105
9, 178764, Note_off_c, 7, 55, 64
9, 178800, Note_on_c, 7, 54, 105
9, 178884, Note_off_c, 7, 54, 64
9, 178920, Note_on_c, 7, 57, 105
9, 179004, Note_off_c, 7, 57, 64
9, 179040, Note_on_c, 7, 55, 105
9, 179124, Note_off_c, 7, 55, 64
9, 179160, Note_on_c, 7, 59, 105
9, 179244, Note_off_c, 7, 59, 64
9, 179280, Note_on_c, 7, 57, 105
9, 179364, Note_off_c, 7, 57, 64
9, 179400, Note_on_c, 7, 60, 105
9, 179484, Note_off_c, 7, 60, 64
9, 179520, Note_on_c, 7, 59, 105
9, 179616, Note_off_c, 7, 59, 64
9, 179640, Note_on_c, 7, 62, 105
9, 179832, Note_off_c, 7, 62, 64
9, 179880, Note_on_c, 7, 62, 105
9, 180072, Note_off_c, 7, 62, 64
9, 180120, Note_on_c, 7, 62, 105
9, 180312, Note_off_c, 7, 62, 64
9, 180360, Note_on_c, 7, 62, 105
9, 180456, Note_off_c, 7, 62, 64
9, 180480, Note_on_c, 7, 62, 105
9, 180564, Note_off_c, 7, 62, 64
9, 180600, Note_on_c, 7, 62, 105
9, 180684, Note_off_c, 7, 62, 64
9, 180720, Note_on_c, 7, 64, 105
9, 180804, Note_off_c, 7, 64, 64
9, 180840, Note_on_c, 7, 64, 105
9, 180924, Note_off_c, 7, 64, 64
9, 180960, Note_on_c, 7, 64, 105
9, 181044, Note_off_c, 7, 64, 64
9, 181080, Note_on_c, 7, 64, 105
9, 181164, Note_off_c, 7, 64, 64
9, 181200, Note_on_c, 7, 62, 105
9, 181284, Note_off_c, 7, 62, 64
9, 181320, Note_on_c, 7, 62, 105
9, 181404, Note_off_c, 7, 62, 64
9, 181440, Note_on_c, 7, 62, 105
9, 181524, Note_off_c, 7, 62, 64
9, 181560, Note_on_c, 7, 55, 105
9, 181644, Note_off_c, 7, 55, 64
9, 181680, Note_on_c, 7, 57, 105
9, 181764, Note_off_c, 7, 57, 64
9, 181800, Note_on_c, 7, 59, 105
9, 181884, Note_off_c, 7, 59, 64
9, 181920, Note_on_c, 7, 60, 105
9, 182004, Note_off_c, 7, 60, 64
9, 182040, Note_on_c, 7, 57, 105
9, 182124, Note_off_c, 7, 57, 64
9, 182160, Note_on_c, 7, 62, 105
9, 182244, Note_off_c, 7, 62, 64
9, 182280, Note_on_c, 7, 60, 105
9, 182364, Note_off_c, 7, 60, 64
9, 182400, Note_on_c, 7, 59, 105
9, 182484, Note_off_c, 7, 59, 64
9, 182520, Note_on_c, 7, 67, 105
9, 182604, Note_off_c, 7, 67, 64
9, 182640, Note_on_c, 7, 66, 105
9, 182724, Note_off_c, 7, 66, 64
9, 182760, Note_on_c, 7, 62, 105
9, 182844, Note_off_c, 7, 62, 64
9, 182880, Note_on_c, 7, 67, 105
9, 182964, Note_off_c, 7, 67, 64
9, 183000, Note_on_c, 7, 62, 105
9, 183084, Note_off_c, 7, 62, 64
9, 183120, Note_on_c, 7, 69, 105
9, 183204, Note_off_c, 7, 69, 64
9, 183240, Note_on_c, 7, 62, 105
9, 183324, Note_off_c, 7, 62, 64
9, 183360, Note_on_c, 7, 71, 105
9, 183444, Note_off_c, 7, 71, 64
9, 183480, Note_on_c, 7, 69, 105
9, 183564, Note_off_c, 7, 69, 64
9, 183600, Note_on_c, 7, 68, 105
9, 183684, Note_off_c, 7, 68, 64
9, 183720, Note_on_c, 7, 64, 105
9, 183804, Note_off_c, 7, 64, 64
9, 183840, Note_on_c, 7, 69, 105
9, 183924, Note_off_c, 7, 69, 64
9, 183960, Note_on_c, 7, 67, 105
9, 184044, Note_off_c, 7, 67, 64
9, 184080, Note_on_c, 7, 66, 105
9, 184164, Note_off_c, 7, 66, 64
9, 184200, Note_on_c, 7, 62, 105
9, 184284, Note_off_c, 7, 62, 64
9, 184320, Note_on_c, 7, 67, 105
9, 184404, Note_off_c, 7, 67, 64
9, 184440, Note_on_c, 7, 67, 105
9, 184524, Note_off_c, 7, 67, 64
9, 184560, Note_on_c, 7, 71, 105
9, 184644, Note_off_c, 7, 71, 64
9, 184680, Note_on_c, 7, 71, 105
9, 184764, Note_off_c, 7, 71, 64
9, 184800, Note_on_c, 7, 72, 105
9, 184884, Note_off_c, 7, 72, 64
9, 184920, Note_on_c, 7, 72, 105
9, 185004, Note_off_c, 7, 72, 64
9, 185040, Note_on_c, 7, 69, 105
9, 185124, Note_off_c, 7, 69, 64
9, 185160, Note_on_c, 7, 69, 105
9, 185244, Note_off_c, 7, 69, 64
9, 185280, Note_on_c, 7, 67, 105
9, 185364, Note_off_c, 7, 67, 64
9, 185400, Note_on_c, 7, 67, 105
9, 185484, Note_off_c, 7, 67, 64
9, 185520, Note_on_c, 7, 67, 105
9, 185604, Note_off_c, 7, 67, 64
9, 185640, Note_on_c, 7, 67, 105
9, 185724, Note_off_c, 7, 67, 64
9, 185760, Note_on_c, 7, 67, 105
9, 185952, Note_off_c, 7, 67, 64
9, 186240, Note_on_c, 7, 64, 105
9, 186324, Note_off_c, 7, 64, 64
9, 186360, Note_on_c, 7, 64, 105
9, 186444, Note_off_c, 7, 64, 64
9, 186480, Note_on_c, 7, 64, 105
9, 186564, Note_off_c, 7, 64, 64
9, 186600, Note_on_c, 7, 64, 105
9, 186684, Note_off_c, 7, 64, 64
9, 186720, Note_on_c, 7, 64, 105
9, 186912, Note_off_c, 7, 64, 64
9, 187200, Note_on_c, 7, 59, 105
9, 187284, Note_off_c, 7, 59, 64
9, 187320, Note_on_c, 7, 59, 105
9, 187404, Note_off_c, 7, 59, 64
9, 187440, Note_on_c, 7, 59, 105
9, 187524, Note_off_c, 7, 59, 64
9, 187560, Note_on_c, 7, 59, 105
9, 187644, Note_off_c, 7, 59, 64
9, 187680, Note_on_c, 7, 59, 105
9, 187872, Note_off_c, 7, 59, 64
9, 188160, Note_on_c, 7, 60, 105
9, 188244, Note_off_c, 7, 60, 64
9, 188280, Note_on_c, 7, 60, 105
9, 188364, Note_off_c, 7, 60, 64
9, 188400, Note_on_c, 7, 60, 105
9, 188484, Note_off_c, 7, 60, 64
9, 188520, Note_on_c, 7, 60, 105
9, 188604, Note_off_c, 7, 60, 64
9, 188640, Note_on_c, 7, 57, 105
9, 188724, Note_off_c, 7, 57, 64
9, 188760, Note_on_c, 7, 57, 105
9, 188844, Note_off_c, 7, 57, 64
9, 188880, Note_on_c, 7, 57, 105
9, 188964, Note_off_c, 7, 57, 64
9, 189000, Note_on_c, 7, 57, 105
9, 189084, Note_off_c, 7, 57, 64
9, 189120, Note_on_c, 7, 54, 105
9, 189264, Note_off_c, 7, 54, 64
9, 189360, Note_on_c, 7, 66, 105
9, 189504, Note_off_c, 7, 66, 64
9, 189840, Note_on_c, 7, 67, 105
9, 190008, Note_off_c, 7, 67, 64
9, 190080, Note_on_c, 7, 69, 105
9, 190248, Note_off_c, 7, 69, 64
9, 190320, Note_on_c, 7, 71, 105
9, 190446, Note_off_c, 7, 71, 64
9, 190500, Note_on_c, 7, 72, 105
9, 190542, Note_off_c, 7, 72, 64
9, 190560, Note_on_c, 7, 74, 105
9, 190728, Note_off_c, 7, 74, 64
9, 190800, Note_on_c, 7, 62, 105
9, 190968, Note_off_c, 7, 62, 64
9, 191040, Note_on_c, 7, 67, 105
9, 191124, Note_off_c, 7, 67, 64
9, 191160, Note_on_c, 7, 67, 105
9, 191244, Note_off_c, 7, 67, 64
9, 191280, Note_on_c, 7, 67, 105
9, 191364, Note_off_c, 7, 67, 64
9, 191400, Note_on_c, 7, 67, 105
9, 191484, Note_off_c, 7, 67, 64
9, 191520, Note_on_c, 7, 67, 105
9, 191712, Note_off_c, 7, 67, 64
9, 192000, Note_on_c, 7, 64, 105
9, 192084, Note_off_c, 7, 64, 64
9, 192120, Note_on_c, 7, 64, 105
9, 192204, Note_off_c, 7, 64, 64
9, 192240, Note_on_c, 7, 64, 105
9, 192324, Note_off_c, 7, 64, 64
9, 192360, Note_on_c, 7, 64, 105
9, 192444, Note_off_c, 7, 64, 64
9, 192480, Note_on_c, 7, 64, 105
9, 192672, Note_off_c, 7, 64, 64
9, 192960, Note_on_c, 7, 59, 105
9, 193044, Note_off_c, 7, 59, 64
9, 193080, Note_on_c, 7, 59, 105
9, 193164, Note_off_c, 7, 59, 64
9, 193200, Note_on_c, 7, 59, 105
9, 193284, Note_off_c, 7, 59, 64
9, 193320, Note_on_c, 7, 59, 105
9, 193404, Note_off_c, 7, 59, 64
9, 193440, Note_on_c, 7, 59, 105
9, 193632, Note_off_c, 7, 59, 64
9, 193920, Note_on_c, 7, 60, 105
9, 194004, Note_off_c, 7, 60, 64
9, 194040, Note_on_c, 7, 60, 105
9, 194124, Note_off_c, 7, 60, 64
9, 194160, Note_on_c, 7, 60, 105
9, 194244, Note_off_c, 7, 60, 64
9, 194280, Note_on_c, 7, 60, 105
9, 194364, Note_off_c, 7, 60, 64
9, 194400, Note_on_c, 7, 57, 105
9, 194484, Note_off_c, 7, 57, 64
9, 194520, Note_on_c, 7, 57, 105
9, 194604, Note_off_c, 7, 57, 64
9, 194640, Note_on_c, 7, 57, 105
9, 194724, Note_off_c, 7, 57, 64
9, 194760, Note_on_c, 7, 57, 105
9, 194844, Note_off_c, 7, 57, 64
9, 194880, Note_on_c, 7, 54, 105
9, 195024, Note_off_c, 7, 54, 64
9, 195120, Note_on_c, 7, 66, 105
9, 195264, Note_off_c, 7, 66, 64
9, 197520, Note_on_c, 7, 51, 58
9, 197760, Note_off_c, 7, 51, 64
9, 197760, Note_on_c, 7, 50, 58
9, 197904, Note_off_c, 7, 50, 64
9, 198000, Note_on_c, 7, 60, 58
9, 198144, Note_off_c, 7, 60, 64
9, 199200, Note_on_c, 7, 62, 58
9, 199680, Note_off_c, 7, 62, 64
9, 199680, Note_on_c, 7, 64, 58
9, 200160, Note_off_c, 7, 64, 64
9, 200160, Note_on_c, 7, 60, 58
9, 200544, Note_off_c, 7, 60, 64
9, 200640, Note_on_c, 7, 59, 105
9, 200724, Note_off_c, 7, 59, 64
9, 200760, Note_on_c, 7, 59, 105
9, 200820, Note_off_c, 7, 59, 64
9, 200820, Note_on_c, 7, 62, 105
9, 200862, Note_off_c, 7, 62, 64
9, 200880, Note_on_c, 7, 67, 105
9, 200964, Note_off_c, 7, 67, 64
9, 201000, Note_on_c, 7, 67, 105
9, 201084, Note_off_c, 7, 67, 64
9, 201120, Note_on_c, 7, 67, 105
9, 201204, Note_off_c, 7, 67, 64
9, 201240, Note_on_c, 7, 66, 105
9, 201240, Note_on_c, 7, 69, 105
9, 201324, Note_off_c, 7, 69, 64
9, 201324, Note_off_c, 7, 66, 64
9, 201360, Note_on_c, 7, 71, 105
9, 201360, Note_on_c, 7, 67, 105
9, 201444, Note_off_c, 7, 67, 64
9, 201444, Note_off_c, 7, 71, 64
9, 201480, Note_on_c, 7, 72, 105
9, 201480, Note_on_c, 7, 69, 105
9, 201564, Note_off_c, 7, 69, 64
9, 201564, Note_off_c, 7, 72, 64
9, 201600, Note_on_c, 7, 74, 105
9, 201600, Note_on_c, 7, 71, 105
9, 201888, Note_off_c, 7, 71, 64
9, 201888, Note_off_c, 7, 74, 64
9, 201960, Note_on_c, 7, 70, 105
9, 201960, Note_on_c, 7, 73, 105
9, 202044, Note_off_c, 7, 73, 64
9, 202044, Note_off_c, 7, 70, 64
9, 202080, Note_on_c, 7, 71, 105
9, 202080, Note_on_c, 7, 74, 105
9, 202164, Note_off_c, 7, 74, 64
9, 202164, Note_off_c, 7, 71, 64
9, 202200, Note_on_c, 7, 73, 105
9, 202200, Note_on_c, 7, 70, 105
9, 202284, Note_off_c, 7, 70, 64
9, 202284, Note_off_c, 7, 73, 64
9, 202320, Note_on_c, 7, 71, 105
9, 202320, Note_on_c, 7, 74, 105
9, 202404, Note_off_c, 7, 74, 64
9, 202404, Note_off_c, 7, 71, 64
9, 202440, Note_on_c, 7, 70, 105
9, 202440, Note_on_c, 7, 73, 105
9, 202524, Note_off_c, 7, 73, 64
9, 202524, Note_off_c, 7, 70, 64
9, 202560, Note_on_c, 7, 74, 105
9, 202560, Note_on_c, 7, 71, 105
9, 202644, Note_off_c, 7, 71, 64
9, 202644, Note_off_c, 7, 74, 64
9, 202680, Note_on_c, 7, 71, 105
9, 202680, Note_on_c, 7, 74, 105
9, 202764, Note_off_c, 7, 74, 64
9, 202764, Note_off_c, 7, 71, 64
9, 202800, Note_on_c, 7, 67, 105
9, 202800, Note_on_c, 7, 71, 105
9, 202884, Note_off_c, 7, 71, 64
9, 202884, Note_off_c, 7, 67, 64
9, 202920, Note_on_c, 7, 71, 105
9, 202920, Note_on_c, 7, 67, 105
9, 203004, Note_off_c, 7, 67, 64
9, 203004, Note_off_c, 7, 71, 64
9, 203040, Note_on_c, 7, 69, 105
9, 203040, Note_on_c, 7, 72, 105
9, 203124, Note_off_c, 7, 72, 64
9, 203124, Note_off_c, 7, 69, 64
9, 203160, Note_on_c, 7, 72, 105
9, 203160, Note_on_c, 7, 69, 105
9, 203244, Note_off_c, 7, 69, 64
9, 203244, Note_off_c, 7, 72, 64
9, 203280, Note_on_c, 7, 69, 105
9, 203280, Note_on_c, 7, 66, 105
9, 203364, Note_off_c, 7, 66, 64
9, 203364, Note_off_c, 7, 69, 64
9, 203400, Note_on_c, 7, 66, 105
9, 203400, Note_on_c, 7, 69, 105
9, 203484, Note_off_c, 7, 69, 64
9, 203484, Note_off_c, 7, 66, 64
9, 203520, Note_on_c, 7, 67, 105
9, 203604, Note_off_c, 7, 67, 64
9, 203640, Note_on_c, 7, 62, 105
9, 203680, Note_off_c, 7, 62, 64
9, 203680, Note_on_c, 7, 64, 105
9, 203720, Note_off_c, 7, 64, 64
9, 203720, Note_on_c, 7, 66, 105
9, 203760, Note_off_c, 7, 66, 64
9, 203760, Note_on_c, 7, 67, 105
9, 203844, Note_off_c, 7, 67, 64
9, 203880, Note_on_c, 7, 67, 105
9, 203964, Note_off_c, 7, 67, 64
9, 204000, Note_on_c, 7, 67, 105
9, 204084, Note_off_c, 7, 67, 64
9, 204120, Note_on_c, 7, 69, 105
9, 204120, Note_on_c, 7, 66, 105
9, 204204, Note_off_c, 7, 66, 64
9, 204204, Note_off_c, 7, 69, 64
9, 204240, Note_on_c, 7, 67, 105
9, 204240, Note_on_c, 7, 71, 105
9, 204324, Note_off_c, 7, 71, 64
9, 204324, Note_off_c, 7, 67, 64
9, 204360, Note_on_c, 7, 72, 105
9, 204360, Note_on_c, 7, 69, 105
9, 204444, Note_off_c, 7, 69, 64
9, 204444, Note_off_c, 7, 72, 64
9, 204480, Note_on_c, 7, 74, 105
9, 204480, Note_on_c, 7, 71, 105
9, 204552, Note_off_c, 7, 71, 64
9, 204552, Note_off_c, 7, 74, 64
9, 204600, Note_on_c, 7, 71, 105
9, 204600, Note_on_c, 7, 74, 105
9, 204792, Note_off_c, 7, 74, 64
9, 204792, Note_off_c, 7, 71, 64
9, 204840, Note_on_c, 7, 73, 105
9, 204840, Note_on_c, 7, 70, 105
9, 204924, Note_off_c, 7, 70, 64
9, 204924, Note_off_c, 7, 73, 64
9, 204960, Note_on_c, 7, 74, 105
9, 204960, Note_on_c, 7, 71, 105
9, 205044, Note_off_c, 7, 71, 64
9, 205044, Note_off_c, 7, 74, 64
9, 205080, Note_on_c, 7, 70, 105
9, 205080, Note_on_c, 7, 73, 105
9, 205164, Note_off_c, 7, 73, 64
9, 205164, Note_off_c, 7, 70, 64
9, 205200, Note_on_c, 7, 74, 105
9, 205200, Note_on_c, 7, 71, 105
9, 205284, Note_off_c, 7, 71, 64
9, 205284, Note_off_c, 7, 74, 64
9, 205320, Note_on_c, 7, 70, 105
9, 205320, Note_on_c, 7, 73, 105
9, 205404, Note_off_c, 7, 73, 64
9, 205404, Note_off_c, 7, 70, 64
9, 205440, Note_on_c, 7, 74, 105
9, 205440, Note_on_c, 7, 71, 105
9, 205524, Note_off_c, 7, 71, 64
9, 205524, Note_off_c, 7, 74, 64
9, 205560, Note_on_c, 7, 71, 105
9, 205560, Note_on_c, 7, 74, 105
9, 205644, Note_off_c, 7, 74, 64
9, 205644, Note_off_c, 7, 71, 64
9, 205680, Note_on_c, 7, 67, 105
9, 205680, Note_on_c, 7, 71, 105
9, 205764, Note_off_c, 7, 71, 64
9, 205764, Note_off_c, 7, 67, 64
9, 205800, Note_on_c, 7, 67, 105
9, 205800, Note_on_c, 7, 71, 105
9, 205884, Note_off_c, 7, 71, 64
9, 205884, Note_off_c, 7, 67, 64
9, 205920, Note_on_c, 7, 72, 105
9, 205920, Note_on_c, 7, 69, 105
9, 206004, Note_off_c, 7, 69, 64
9, 206004, Note_off_c, 7, 72, 64
9, 206040, Note_on_c, 7, 72, 105
9, 206040, Note_on_c, 7, 69, 105
9, 206124, Note_off_c, 7, 69, 64
9, 206124, Note_off_c, 7, 72, 64
9, 206160, Note_on_c, 7, 69, 105
9, 206160, Note_on_c, 7, 66, 105
9, 206244, Note_off_c, 7, 66, 64
9, 206244, Note_off_c, 7, 69, 64
9, 206280, Note_on_c, 7, 66, 105
9, 206280, Note_on_c, 7, 69, 105
9, 206364, Note_off_c, 7, 69, 64
9, 206364, Note_off_c, 7, 66, 64
9, 206400, Note_on_c, 7, 71, 58
9, 206400, Note_on_c, 7, 74, 58
9, 206496, Note_off_c, 7, 74, 64
9, 206496, Note_off_c, 7, 71, 64
9, 206640, Note_on_c, 7, 67, 58
9, 206640, Note_on_c, 7, 71, 58
9, 206736, Note_off_c, 7, 71, 64
9, 206736, Note_off_c, 7, 67, 64
9, 206880, Note_on_c, 7, 72, 58
9, 206880, Note_on_c, 7, 69, 58
9, 206976, Note_off_c, 7, 69, 64
9, 206976, Note_off_c, 7, 72, 64
9, 207120, Note_on_c, 7, 69, 58
9, 207120, Note_on_c, 7, 66, 58
9, 207216, Note_off_c, 7, 66, 64
9, 207216, Note_off_c, 7, 69, 64
9, 207360, Note_on_c, 7, 74, 105
9, 207360, Note_on_c, 7, 71, 105
9, 207408, Note_off_c, 7, 71, 64
9, 207408, Note_off_c, 7, 74, 64
9, 207420, Note_on_c, 7, 74, 105
9, 207420, Note_on_c, 7, 71, 105
9, 207468, Note_off_c, 7, 71, 64
9, 207468, Note_off_c, 7, 74, 64
9, 207480, Note_on_c, 7, 71, 105
9, 207480, Note_on_c, 7, 74, 105
9, 207528, Note_off_c, 7, 74, 64
9, 207528, Note_off_c, 7, 71, 64
9, 207540, Note_on_c, 7, 74, 105
9, 207540, Note_on_c, 7, 71, 105
9, 207588, Note_off_c, 7, 71, 64
9, 207588, Note_off_c, 7, 74, 64
9, 207600, Note_on_c, 7, 71, 105
9, 207600, Note_on_c, 7, 67, 105
9, 207648, Note_off_c, 7, 67, 64
9, 207648, Note_off_c, 7, 71, 64
9, 207660, Note_on_c, 7, 67, 105
9, 207660, Note_on_c, 7, 71, 105
9, 207708, Note_off_c, 7, 71, 64
9, 207708, Note_off_c, 7, 67, 64
9, 207720, Note_on_c, 7, 71, 105
9, 207720, Note_on_c, 7, 67, 105
9, 207768, Note_off_c, 7, 67, 64
9, 207768, Note_off_c, 7, 71, 64
9, 207780, Note_on_c, 7, 67, 105
9, 207780, Note_on_c, 7, 71, 105
9, 207828, Note_off_c, 7, 71, 64
9, 207828, Note_off_c, 7, 67, 64
9, 207840, Note_on_c, 7, 69, 105
9, 207840, Note_on_c, 7, 72, 105
9, 207888, Note_off_c, 7, 72, 64
9, 207888, Note_off_c, 7, 69, 64
9, 207900, Note_on_c, 7, 72, 105
9, 207900, Note_on_c, 7, 69, 105
9, 207948, Note_off_c, 7, 69, 64
9, 207948, Note_off_c, 7, 72, 64
9, 207960, Note_on_c, 7, 72, 105
9, 207960, Note_on_c, 7, 69, 105
9, 208008, Note_off_c, 7, 69, 64
9, 208008, Note_off_c, 7, 72, 64
9, 208020, Note_on_c, 7, 72, 105
9, 208020, Note_on_c, 7, 69, 105
9, 208068, Note_off_c, 7, 69, 64
9, 208068, Note_off_c, 7, 72, 64
9, 208080, Note_on_c, 7, 69, 105
9, 208080, Note_on_c, 7, 66, 105
9, 208128, Note_off_c, 7, 66, 64
9, 208128, Note_off_c, 7, 69, 64
9, 208140, Note_on_c, 7, 66, 105
9, 208140, Note_on_c, 7, 69, 105
9, 208188, Note_off_c, 7, 69, 64
9, 208188, Note_off_c, 7, 66, 64
9, 208200, Note_on_c, 7, 66, 105
9, 208200, Note_on_c, 7, 69, 105
9, 208248, Note_off_c, 7, 69, 64
9, 208248, Note_off_c, 7, 66, 64
9, 208260, Note_on_c, 7, 69, 105
9, 208260, Note_on_c, 7, 66, 105
9, 208308, Note_off_c, 7, 66, 64
9, 208308, Note_off_c, 7, 69, 64
9, 208320, Note_on_c, 7, 67, 105
9, 208512, Note_off_c, 7, 67, 64
9, 212160, Note_on_c, 7, 56, 72
9, 212328, Note_off_c, 7, 56, 64
9, 212400, Note_on_c, 7, 59, 72
9, 212880, Note_off_c, 7, 59, 64
9, 212880, Note_on_c, 7, 57, 72
9, 213048, Note_off_c, 7, 57, 64
9, 213120, Note_on_c, 7, 56, 72
9, 213288, Note_off_c, 7, 56, 64
9, 213360, Note_on_c, 7, 59, 72
9, 213840, Note_off_c, 7, 59, 64
9, 213840, Note_on_c, 7, 57, 72
9, 214008, Note_off_c, 7, 57, 64
9, 214080, Note_on_c, 7, 62, 58
9, 214560, Note_off_c, 7, 62, 64
9, 214560, Note_on_c, 7, 60, 58
9, 214944, Note_off_c, 7, 60, 64
9, 215040, Note_on_c, 7, 62, 58
9, 215520, Note_off_c, 7, 62, 64
9, 215520, Note_on_c, 7, 60, 58
9, 215664, Note_off_c, 7, 60, 64
9, 215760, Note_on_c, 7, 64, 58
9, 215904, Note_off_c, 7, 64, 64
9, 216000, Note_on_c, 7, 62, 58
9, 216192, Note_off_c, 7, 62, 64
9, 216480, Note_on_c, 7, 59, 58
9, 216672, Note_off_c, 7, 59, 64
9, 216960, Note_on_c, 7, 57, 58
9, 217152, Note_off_c, 7, 57, 64
9, 218880, Note_on_c, 7, 61, 58
9, 218880, Note_on_c, 7, 64, 58
9, 220800, Note_off_c, 7, 64, 64
9, 220800, Note_off_c, 7, 61, 64
9, 220800, Note_on_c, 7, 62, 58
9, 220800, Note_on_c, 7, 65, 58
9, 220992, Note_off_c, 7, 65, 64
9, 220992, Note_off_c, 7, 62, 64
9, 223680, Note_on_c, 7, 68, 58
9, 225600, Note_off_c, 7, 68, 64
9, 225600, Note_on_c, 7, 67, 58
9, 225792, Note_off_c, 7, 67, 64
9, 228840, Note_on_c, 7, 55, 58
9, 228936, Note_off_c, 7, 55, 64
9, 228960, Note_on_c, 7, 60, 105
9, 229080, Note_off_c, 7, 60, 64
9, 229080, Note_on_c, 7, 59, 105
9, 229200, Note_off_c, 7, 59, 64
9, 229200, Note_on_c, 7, 62, 105
9, 229320, Note_off_c, 7, 62, 64
9, 229320, Note_on_c, 7, 60, 105
9, 229416, Note_off_c, 7, 60, 64
9, 229440, Note_on_c, 7, 64, 105
9, 229560, Note_off_c, 7, 64, 64
9, 229560, Note_on_c, 7, 62, 105
9, 229680, Note_off_c, 7, 62, 64
9, 229680, Note_on_c, 7, 65, 105
9, 229800, Note_off_c, 7, 65, 64
9, 229800, Note_on_c, 7, 64, 105
9, 229920, Note_off_c, 7, 64, 64
9, 229920, Note_on_c, 7, 69, 105
9, 230040, Note_off_c, 7, 69, 64
9, 230040, Note_on_c, 7, 67, 105
9, 230160, Note_off_c, 7, 67, 64
9, 230160, Note_on_c, 7, 72, 105
9, 230280, Note_off_c, 7, 72, 64
9, 230280, Note_on_c, 7, 70, 105
9, 230376, Note_off_c, 7, 70, 64
9, 230400, Note_on_c, 7, 70, 105
9, 230592, Note_off_c, 7, 70, 64
9, 230880, Note_on_c, 7, 67, 92
9, 231048, Note_off_c, 7, 67, 64
9, 231120, Note_on_c, 7, 67, 116
9, 231204, Note_off_c, 7, 67, 64
9, 231240, Note_on_c, 7, 67, 116
9, 231324, Note_off_c, 7, 67, 64
9, 231360, Note_on_c, 7, 69, 116
9, 231528, Note_off_c, 7, 69, 64
9, 231600, Note_on_c, 7, 69, 116
9, 231684, Note_off_c, 7, 69, 64
9, 231720, Note_on_c, 7, 69, 116
9, 231804, Note_off_c, 7, 69, 64
9, 231840, Note_on_c, 7, 70, 116
9, 232008, Note_off_c, 7, 70, 64
9, 232080, Note_on_c, 7, 70, 116
9, 232164, Note_off_c, 7, 70, 64
9, 232200, Note_on_c, 7, 70, 116
9, 232284, Note_off_c, 7, 70, 64
9, 232320, Note_on_c, 7, 69, 105
9, 232512, Note_off_c, 7, 69, 64
9, 232800, Note_on_c, 7, 65, 58
9, 232992, Note_off_c, 7, 65, 64
9, 233280, Note_on_c, 7, 64, 58
9, 233472, Note_off_c, 7, 64, 64
9, 233760, Note_on_c, 7, 57, 58
9, 233952, Note_off_c, 7, 57, 64
9, 234240, Note_on_c, 7, 62, 58
9, 234432, Note_off_c, 7, 62, 64
9, 234720, Note_on_c, 7, 64, 58
9, 234912, Note_off_c, 7, 64, 64
9, 235200, Note_on_c, 7, 62, 58
9, 235392, Note_off_c, 7, 62, 64
9, 235680, Note_on_c, 7, 55, 58
9, 235872, Note_off_c, 7, 55, 64
9, 236160, Note_on_c, 7, 60, 58
9, 236352, Note_off_c, 7, 60, 64
9, 236640, Note_on_c, 7, 57, 58
9, 236832, Note_off_c, 7, 57, 64
9, 237120, Note_on_c, 7, 55, 58
9, 237312, Note_off_c, 7, 55, 64
9, 237600, Note_on_c, 7, 60, 58
9, 237792, Note_off_c, 7, 60, 64
9, 238080, Note_on_c, 7, 53, 58
9, 238272, Note_off_c, 7, 53, 64
9, 238560, Note_on_c, 7, 55, 58
9, 238752, Note_off_c, 7, 55, 64
9, 239040, Note_on_c, 7, 56, 72
9, 239952, Note_off_c, 7, 56, 64
9, 240000, Note_on_c, 7, 67, 105
9, 240000, Note_on_c, 7, 55, 105
9, 240051, Note_off_c, 7, 55, 64
9, 240051, Note_off_c, 7, 67, 64
9, 240060, Note_on_c, 7, 55, 105
9, 240060, Note_on_c, 7, 67, 105
9, 240111, Note_off_c, 7, 67, 64
9, 240111, Note_off_c, 7, 55, 64
9, 240120, Note_on_c, 7, 67, 105
9, 240120, Note_on_c, 7, 55, 105
9, 240171, Note_off_c, 7, 55, 64
9, 240171, Note_off_c, 7, 67, 64
9, 240180, Note_on_c, 7, 67, 105
9, 240180, Note_on_c, 7, 55, 105
9, 240231, Note_off_c, 7, 55, 64
9, 240231, Note_off_c, 7, 67, 64
9, 240240, Note_on_c, 7, 55, 105
9, 240240, Note_on_c, 7, 67, 105
9, 240291, Note_off_c, 7, 67, 64
9, 240291, Note_off_c, 7, 55, 64
9, 240300, Note_on_c, 7, 55, 105
9, 240300, Note_on_c, 7, 67, 105
9, 240351, Note_off_c, 7, 67, 64
9, 240351, Note_off_c, 7, 55, 64
9, 240360, Note_on_c, 7, 67, 105
9, 240360, Note_on_c, 7, 55, 105
9, 240411, Note_off_c, 7, 55, 64
9, 240411, Note_off_c, 7, 67, 64
9, 240420, Note_on_c, 7, 55, 105
9, 240420, Note_on_c, 7, 67, 105
9, 240471, Note_off_c, 7, 67, 64
9, 240471, Note_off_c, 7, 55, 64
9, 240480, Note_on_c, 7, 55, 105
9, 240480, Note_on_c, 7, 67, 105
9, 240531, Note_off_c, 7, 67, 64
9, 240531, Note_off_c, 7, 55, 64
9, 240540, Note_on_c, 7, 55, 105
9, 240540, Note_on_c, 7, 67, 105
9, 240591, Note_off_c, 7, 67, 64
9, 240591, Note_off_c, 7, 55, 64
9, 240600, Note_on_c, 7, 67, 105
9, 240600, Note_on_c, 7, 55, 105
9, 240651, Note_off_c, 7, 55, 64
9, 240651, Note_off_c, 7, 67, 64
9, 240660, Note_on_c, 7, 67, 105
9, 240660, Note_on_c, 7, 55, 105
9, 240711, Note_off_c, 7, 55, 64
9, 240711, Note_off_c, 7, 67, 64
9, 240720, Note_on_c, 7, 67, 105
9, 240720, Note_on_c, 7, 55, 105
9, 240771, Note_off_c, 7, 55, 64
9, 240771, Note_off_c, 7, 67, 64
9, 240780, Note_on_c, 7, 55, 105
9, 240780, Note_on_c, 7, 67, 105
9, 240831, Note_off_c, 7, 67, 64
9, 240831, Note_off_c, 7, 55, 64
9, 240840, Note_on_c, 7, 55, 105
9, 240840, Note_on_c, 7, 67, 105
9, 240891, Note_off_c, 7, 67, 64
9, 240891, Note_off_c, 7, 55, 64
9, 240900, Note_on_c, 7, 67, 105
9, 240900, Note_on_c, 7, 55, 105
9, 240951, Note_off_c, 7, 55, 64
9, 240951, Note_off_c, 7, 67, 64
9, 240960, Note_on_c, 7, 67, 105
9, 240960, Note_on_c, 7, 55, 105
9, 241011, Note_off_c, 7, 55, 64
9, 241011, Note_off_c, 7, 67, 64
9, 241020, Note_on_c, 7, 55, 105
9, 241020, Note_on_c, 7, 67, 105
9, 241071, Note_off_c, 7, 67, 64
9, 241071, Note_off_c, 7, 55, 64
9, 241080, Note_on_c, 7, 67, 105
9, 241080, Note_on_c, 7, 55, 105
9, 241131, Note_off_c, 7, 55, 64
9, 241131, Note_off_c, 7, 67, 64
9, 241140, Note_on_c, 7, 67, 105
9, 241140, Note_on_c, 7, 55, 105
9, 241191, Note_off_c, 7, 55, 64
9, 241191, Note_off_c, 7, 67, 64
9, 241200, Note_on_c, 7, 55, 105
9, 241200, Note_on_c, 7, 67, 105
9, 241251, Note_off_c, 7, 67, 64
9, 241251, Note_off_c, 7, 55, 64
9, 241260, Note_on_c, 7, 67, 105
9, 241260, Note_on_c, 7, 55, 105
9, 241311, Note_off_c, 7, 55, 64
9, 241311, Note_off_c, 7, 67, 64
9, 241320, Note_on_c, 7, 67, 105
9, 241320, Note_on_c, 7, 55, 105
9, 241371, Note_off_c, 7, 55, 64
9, 241371, Note_off_c, 7, 67, 64
9, 241380, Note_on_c, 7, 55, 105
9, 241380, Note_on_c, 7, 67, 105
9, 241431, Note_off_c, 7, 67, 64
9, 241431, Note_off_c, 7, 55, 64
9, 241440, Note_on_c, 7, 55, 105
9, 241440, Note_on_c, 7, 67, 105
9, 241491, Note_off_c, 7, 67, 64
9, 241491, Note_off_c, 7, 55, 64
9, 241500, Note_on_c, 7, 55, 105
9, 241500, Note_on_c, 7, 67, 105
9, 241551, Note_off_c, 7, 67, 64
9, 241551, Note_off_c, 7, 55, 64
9, 241560, Note_on_c, 7, 55, 105
9, 241560, Note_on_c, 7, 67, 105
9, 241611, Note_off_c, 7, 67, 64
9, 241611, Note_off_c, 7, 55, 64
9, 241620, Note_on_c, 7, 67, 105
9, 241620, Note_on_c, 7, 55, 105
9, 241671, Note_off_c, 7, 55, 64
9, 241671, Note_off_c, 7, 67, 64
9, 241680, Note_on_c, 7, 67, 105
9, 241680, Note_on_c, 7, 55, 105
9, 241731, Note_off_c, 7, 55, 64
9, 241731, Note_off_c, 7, 67, 64
9, 241740, Note_on_c, 7, 67, 105
9, 241740, Note_on_c, 7, 55, 105
9, 241791, Note_off_c, 7, 55, 64
9, 241791, Note_off_c, 7, 67, 64
9, 241800, Note_on_c, 7, 55, 105
9, 241800, Note_on_c, 7, 67, 105
9, 241851, Note_off_c, 7, 67, 64
9, 241851, Note_off_c, 7, 55, 64
9, 241860, Note_on_c, 7, 67, 105
9, 241860, Note_on_c, 7, 55, 105
9, 241911, Note_off_c, 7, 55, 64
9, 241911, Note_off_c, 7, 67, 64
9, 241920, Note_on_c, 7, 67, 105
9, 241920, Note_on_c, 7, 55, 105
9, 241971, Note_off_c, 7, 55, 64
9, 241971, Note_off_c, 7, 67, 64
9, 241980, Note_on_c, 7, 67, 105
9, 241980, Note_on_c, 7, 55, 105
9, 242031, Note_off_c, 7, 55, 64
9, 242031, Note_off_c, 7, 67, 64
9, 242040, Note_on_c, 7, 55, 105
9, 242040, Note_on_c, 7, 67, 105
9, 242091, Note_off_c, 7, 67, 64
9, 242091, Note_off_c, 7, 55, 64
9, 242100, Note_on_c, 7, 55, 105
9, 242100, Note_on_c, 7, 67, 105
9, 242151, Note_off_c, 7, 67, 64
9, 242151, Note_off_c, 7, 55, 64
9, 242160, Note_on_c, 7, 67, 105
9, 242160, Note_on_c, 7, 55, 105
9, 242211, Note_off_c, 7, 55, 64
9, 242211, Note_off_c, 7, 67, 64
9, 242220, Note_on_c, 7, 67, 105
9, 242220, Note_on_c, 7, 55, 105
9, 242271, Note_off_c, 7, 55, 64
9, 242271, Note_off_c, 7, 67, 64
9, 242280, Note_on_c, 7, 67, 105
9, 242280, Note_on_c, 7, 55, 105
9, 242331, Note_off_c, 7, 55, 64
9, 242331, Note_off_c, 7, 67, 64
9, 242340, Note_on_c, 7, 67, 105
9, 242340, Note_on_c, 7, 55, 105
9, 242391, Note_off_c, 7, 55, 64
9, 242391, Note_off_c, 7, 67, 64
9, 242400, Note_on_c, 7, 67, 105
9, 242400, Note_on_c, 7, 55, 105
9, 242451, Note_off_c, 7, 55, 64
9, 242451, Note_off_c, 7, 67, 64
9, 242460, Note_on_c, 7, 67, 105
9, 242460, Note_on_c, 7, 55, 105
9, 242511, Note_off_c, 7, 55, 64
9, 242511, Note_off_c, 7, 67, 64
9, 242520, Note_on_c, 7, 67, 105
9, 242520, Note_on_c, 7, 55, 105
9, 242571, Note_off_c, 7, 55, 64
9, 242571, Note_off_c, 7, 67, 64
9, 242580, Note_on_c, 7, 55, 105
9, 242580, Note_on_c, 7, 67, 105
9, 242631, Note_off_c, 7, 67, 64
9, 242631, Note_off_c, 7, 55, 64
9, 242640, Note_on_c, 7, 67, 105
9, 242640, Note_on_c, 7, 55, 105
9, 242691, Note_off_c, 7, 55, 64
9, 242691, Note_off_c, 7, 67, 64
9, 242700, Note_on_c, 7, 67, 105
9, 242700, Note_on_c, 7, 55, 105
9, 242751, Note_off_c, 7, 55, 64
9, 242751, Note_off_c, 7, 67, 64
9, 242760, Note_on_c, 7, 55, 105
9, 242760, Note_on_c, 7, 67, 105
9, 242811, Note_off_c, 7, 67, 64
9, 242811, Note_off_c, 7, 55, 64
9, 242820, Note_on_c, 7, 67, 105
9, 242820, Note_on_c, 7, 55, 105
9, 242871, Note_off_c, 7, 55, 64
9, 242871, Note_off_c, 7, 67, 64
9, 242880, Note_on_c, 7, 67, 105
9, 242880, Note_on_c, 7, 55, 105
9, 242931, Note_off_c, 7, 55, 64
9, 242931, Note_off_c, 7, 67, 64
9, 242940, Note_on_c, 7, 55, 105
9, 242940, Note_on_c, 7, 67, 105
9, 242991, Note_off_c, 7, 67, 64
9, 242991, Note_off_c, 7, 55, 64
9, 243000, Note_on_c, 7, 67, 105
9, 243000, Note_on_c, 7, 55, 105
9, 243051, Note_off_c, 7, 55, 64
9, 243051, Note_off_c, 7, 67, 64
9, 243060, Note_on_c, 7, 67, 105
9, 243060, Note_on_c, 7, 55, 105
9, 243111, Note_off_c, 7, 55, 64
9, 243111, Note_off_c, 7, 67, 64
9, 243120, Note_on_c, 7, 55, 105
9, 243120, Note_on_c, 7, 67, 105
9, 243171, Note_off_c, 7, 67, 64
9, 243171, Note_off_c, 7, 55, 64
9, 243180, Note_on_c, 7, 55, 105
9, 243180, Note_on_c, 7, 67, 105
9, 243231, Note_off_c, 7, 67, 64
9, 243231, Note_off_c, 7, 55, 64
9, 243240, Note_on_c, 7, 55, 105
9, 243240, Note_on_c, 7, 67, 105
9, 243291, Note_off_c, 7, 67, 64
9, 243291, Note_off_c, 7, 55, 64
9, 243300, Note_on_c, 7, 67, 105
9, 243300, Note_on_c, 7, 55, 105
9, 243351, Note_off_c, 7, 55, 64
9, 243351, Note_off_c, 7, 67, 64
9, 243360, Note_on_c, 7, 55, 105
9, 243360, Note_on_c, 7, 67, 105
9, 243411, Note_off_c, 7, 67, 64
9, 243411, Note_off_c, 7, 55, 64
9, 243420, Note_on_c, 7, 55, 105
9, 243420, Note_on_c, 7, 67, 105
9, 243471, Note_off_c, 7, 67, 64
9, 243471, Note_off_c, 7, 55, 64
9, 243480, Note_on_c, 7, 55, 105
9, 243480, Note_on_c, 7, 67, 105
9, 243531, Note_off_c, 7, 67, 64
9, 243531, Note_off_c, 7, 55, 64
9, 243540, Note_on_c, 7, 67, 105
9, 243540, Note_on_c, 7, 55, 105
9, 243591, Note_off_c, 7, 55, 64
9, 243591, Note_off_c, 7, 67, 64
9, 243600, Note_on_c, 7, 67, 105
9, 243600, Note_on_c, 7, 55, 105
9, 243651, Note_off_c, 7, 55, 64
9, 243651, Note_off_c, 7, 67, 64
9, 243660, Note_on_c, 7, 67, 105
9, 243660, Note_on_c, 7, 55, 105
9, 243711, Note_off_c, 7, 55, 64
9, 243711, Note_off_c, 7, 67, 64
9, 243720, Note_on_c, 7, 55, 105
9, 243720, Note_on_c, 7, 67, 105
9, 243771, Note_off_c, 7, 67, 64
9, 243771, Note_off_c, 7, 55, 64
9, 243780, Note_on_c, 7, 67, 105
9, 243780, Note_on_c, 7, 55, 105
9, 243831, Note_off_c, 7, 55, 64
9, 243831, Note_off_c, 7, 67, 64
9, 243840, Note_on_c, 7, 67, 105
9, 243840, Note_on_c, 7, 55, 105
9, 243891, Note_off_c, 7, 55, 64
9, 243891, Note_off_c, 7, 67, 64
9, 243900, Note_on_c, 7, 55, 105
9, 243900, Note_on_c, 7, 67, 105
9, 243951, Note_off_c, 7, 67, 64
9, 243951, Note_off_c, 7, 55, 64
9, 243960, Note_on_c, 7, 55, 105
9, 243960, Note_on_c, 7, 67, 105
9, 244011, Note_off_c, 7, 67, 64
9, 244011, Note_off_c, 7, 55, 64
9, 244020, Note_on_c, 7, 55, 105
9, 244020, Note_on_c, 7, 67, 105
9, 244071, Note_off_c, 7, 67, 64
9, 244071, Note_off_c, 7, 55, 64
9, 244080, Note_on_c, 7, 55, 105
9, 244080, Note_on_c, 7, 67, 105
9, 244131, Note_off_c, 7, 67, 64
9, 244131, Note_off_c, 7, 55, 64
9, 244140, Note_on_c, 7, 55, 105
9, 244140, Note_on_c, 7, 67, 105
9, 244191, Note_off_c, 7, 67, 64
9, 244191, Note_off_c, 7, 55, 64
9, 244200, Note_on_c, 7, 67, 105
9, 244200, Note_on_c, 7, 55, 105
9, 244251, Note_off_c, 7, 55, 64
9, 244251, Note_off_c, 7, 67, 64
9, 244260, Note_on_c, 7, 55, 105
9, 244260, Note_on_c, 7, 67, 105
9, 244311, Note_off_c, 7, 67, 64
9, 244311, Note_off_c, 7, 55, 64
9, 244320, Note_on_c, 7, 67, 105
9, 244320, Note_on_c, 7, 55, 105
9, 244371, Note_off_c, 7, 55, 64
9, 244371, Note_off_c, 7, 67, 64
9, 244380, Note_on_c, 7, 55, 105
9, 244380, Note_on_c, 7, 67, 105
9, 244431, Note_off_c, 7, 67, 64
9, 244431, Note_off_c, 7, 55, 64
9, 244440, Note_on_c, 7, 55, 105
9, 244440, Note_on_c, 7, 67, 105
9, 244491, Note_off_c, 7, 67, 64
9, 244491, Note_off_c, 7, 55, 64
9, 244500, Note_on_c, 7, 55, 105
9, 244500, Note_on_c, 7, 67, 105
9, 244551, Note_off_c, 7, 67, 64
9, 244551, Note_off_c, 7, 55, 64
9, 244560, Note_on_c, 7, 55, 105
9, 244560, Note_on_c, 7, 67, 105
9, 244611, Note_off_c, 7, 67, 64
9, 244611, Note_off_c, 7, 55, 64
9, 244620, Note_on_c, 7, 67, 105
9, 244620, Note_on_c, 7, 55, 105
9, 244671, Note_off_c, 7, 55, 64
9, 244671, Note_off_c, 7, 67, 64
9, 244680, Note_on_c, 7, 55, 105
9, 244680, Note_on_c, 7, 67, 105
9, 244731, Note_off_c, 7, 67, 64
9, 244731, Note_off_c, 7, 55, 64
9, 244740, Note_on_c, 7, 67, 105
9, 244740, Note_on_c, 7, 55, 105
9, 244791, Note_off_c, 7, 55, 64
9, 244791, Note_off_c, 7, 67, 64
9, 244800, Note_on_c, 7, 67, 105
9, 244800, Note_on_c, 7, 55, 105
9, 244851, Note_off_c, 7, 55, 64
9, 244851, Note_off_c, 7, 67, 64
9, 244860, Note_on_c, 7, 67, 105
9, 244860, Note_on_c, 7, 55, 105
9, 244911, Note_off_c, 7, 55, 64
9, 244911, Note_off_c, 7, 67, 64
9, 244920, Note_on_c, 7, 67, 105
9, 244920, Note_on_c, 7, 55, 105
9, 244971, Note_off_c, 7, 55, 64
9, 244971, Note_off_c, 7, 67, 64
9, 244980, Note_on_c, 7, 67, 105
9, 244980, Note_on_c, 7, 55, 105
9, 245031, Note_off_c, 7, 55, 64
9, 245031, Note_off_c, 7, 67, 64
9, 245040, Note_on_c, 7, 55, 105
9, 245040, Note_on_c, 7, 67, 105
9, 245091, Note_off_c, 7, 67, 64
9, 245091, Note_off_c, 7, 55, 64
9, 245100, Note_on_c, 7, 55, 105
9, 245100, Note_on_c, 7, 67, 105
9, 245151, Note_off_c, 7, 67, 64
9, 245151, Note_off_c, 7, 55, 64
9, 245160, Note_on_c, 7, 67, 105
9, 245160, Note_on_c, 7, 55, 105
9, 245211, Note_off_c, 7, 55, 64
9, 245211, Note_off_c, 7, 67, 64
9, 245220, Note_on_c, 7, 55, 105
9, 245220, Note_on_c, 7, 67, 105
9, 245271, Note_off_c, 7, 67, 64
9, 245271, Note_off_c, 7, 55, 64
9, 245280, Note_on_c, 7, 67, 105
9, 245280, Note_on_c, 7, 55, 105
9, 245331, Note_off_c, 7, 55, 64
9, 245331, Note_off_c, 7, 67, 64
9, 245340, Note_on_c, 7, 55, 105
9, 245340, Note_on_c, 7, 67, 105
9, 245391, Note_off_c, 7, 67, 64
9, 245391, Note_off_c, 7, 55, 64
9, 245400, Note_on_c, 7, 55, 105
9, 245400, Note_on_c, 7, 67, 105
9, 245451, Note_off_c, 7, 67, 64
9, 245451, Note_off_c, 7, 55, 64
9, 245460, Note_on_c, 7, 55, 105
9, 245460, Note_on_c, 7, 67, 105
9, 245511, Note_off_c, 7, 67, 64
9, 245511, Note_off_c, 7, 55, 64
9, 245520, Note_on_c, 7, 55, 105
9, 245520, Note_on_c, 7, 67, 105
9, 245571, Note_off_c, 7, 67, 64
9, 245571, Note_off_c, 7, 55, 64
9, 245580, Note_on_c, 7, 67, 105
9, 245580, Note_on_c, 7, 55, 105
9, 245631, Note_off_c, 7, 55, 64
9, 245631, Note_off_c, 7, 67, 64
9, 245640, Note_on_c, 7, 55, 105
9, 245640, Note_on_c, 7, 67, 105
9, 245691, Note_off_c, 7, 67, 64
9, 245691, Note_off_c, 7, 55, 64
9, 245700, Note_on_c, 7, 67, 105
9, 245700, Note_on_c, 7, 55, 105
9, 245751, Note_off_c, 7, 55, 64
9, 245751, Note_off_c, 7, 67, 64
9, 245760, Note_on_c, 7, 67, 105
9, 245760, Note_on_c, 7, 55, 105
9, 245952, Note_off_c, 7, 55, 64
9, 245952, Note_off_c, 7, 67, 64
9, 250560, Note_on_c, 7, 55, 58
9, 252432, Note_off_c, 7, 55, 64
9, 252480, Note_on_c, 7, 55, 72
9, 252864, Note_off_c, 7, 55, 64
9, 253200, Note_on_c, 7, 60, 72
9, 253344, Note_off_c, 7, 60, 64
9, 253440, Note_on_c, 7, 60, 72
9, 253584, Note_off_c, 7, 60, 64
9, 253680, Note_on_c, 7, 60, 72
9, 253824, Note_off_c, 7, 60, 64
9, 254400, Note_on_c, 7, 60, 72
9, 256512, Note_off_c, 7, 60, 64
9, 256560, Note_on_c, 7, 65, 72
9, 256800, Note_off_c, 7, 65, 64
9, 256800, Note_on_c, 7, 64, 72
9, 256944, Note_off_c, 7, 64, 64
9, 257040, Note_on_c, 7, 62, 72
9, 257184, Note_off_c, 7, 62, 64
9, 257280, Note_on_c, 7, 60, 72
9, 258624, Note_off_c, 7, 60, 64
9, 258720, Note_on_c, 7, 57, 72
9, 259104, Note_off_c, 7, 57, 64
9, 259200, Note_on_c, 7, 55, 72
9, 259776, Note_off_c, 7, 55, 64
9, 260160, Note_on_c, 7, 67, 105
9, 260256, Note_off_c, 7, 67, 64
9, 260280, Note_on_c, 7, 67, 105
9, 260376, Note_off_c, 7, 67, 64
9, 260400, Note_on_c, 7, 67, 105
9, 260496, Note_off_c, 7, 67, 64
9, 260520, Note_on_c, 7, 67, 105
9, 260616, Note_off_c, 7, 67, 64
9, 260640, Note_on_c, 7, 67, 105
9, 260736, Note_off_c, 7, 67, 64
9, 260760, Note_on_c, 7, 67, 105
9, 260856, Note_off_c, 7, 67, 64
9, 260880, Note_on_c, 7, 67, 105
9, 260976, Note_off_c, 7, 67, 64
9, 261000, Note_on_c, 7, 67, 105
9, 261096, Note_off_c, 7, 67, 64
9, 261120, Note_on_c, 7, 67, 105
9, 261216, Note_off_c, 7, 67, 64
9, 261240, Note_on_c, 7, 67, 105
9, 261336, Note_off_c, 7, 67, 64
9, 261360, Note_on_c, 7, 67, 105
9, 261456, Note_off_c, 7, 67, 64
9, 261480, Note_on_c, 7, 67, 105
9, 261576, Note_off_c, 7, 67, 64
9, 261600, Note_on_c, 7, 67, 105
9, 261696, Note_off_c, 7, 67, 64
9, 261720, Note_on_c, 7, 67, 105
9, 261816, Note_off_c, 7, 67, 64
9, 261840, Note_on_c, 7, 67, 105
9, 261936, Note_off_c, 7, 67, 64
9, 261960, Note_on_c, 7, 67, 105
9, 262056, Note_off_c, 7, 67, 64
9, 262080, Note_on_c, 7, 67, 105
9, 262464, Note_off_c, 7, 67, 64
9, 262800, Note_on_c, 7, 60, 105
9, 262968, Note_off_c, 7, 60, 64
9, 263040, Note_on_c, 7, 65, 105
9, 263208, Note_off_c, 7, 65, 64
9, 263280, Note_on_c, 7, 60, 105
9, 263448, Note_off_c, 7, 60, 64
9, 263760, Note_on_c, 7, 60, 105
9, 263928, Note_off_c, 7, 60, 64
9, 264000, Note_on_c, 7, 65, 105
9, 264168, Note_off_c, 7, 65, 64
9, 264240, Note_on_c, 7, 60, 105
9, 264408, Note_off_c, 7, 60, 64
9, 264720, Note_on_c, 7, 60, 105
9, 264888, Note_off_c, 7, 60, 64
9, 264960, Note_on_c, 7, 65, 105
9, 265128, Note_off_c, 7, 65, 64
9, 265200, Note_on_c, 7, 60, 105
9, 265368, Note_off_c, 7, 60, 64
9, 265440, Note_on_c, 7, 65, 105
9, 265608, Note_off_c, 7, 65, 64
9, 265680, Note_on_c, 7, 60, 105
9, 265848, Note_off_c, 7, 60, 64
9, 265920, Note_on_c, 7, 65, 105
9, 266088, Note_off_c, 7, 65, 64
9, 266160, Note_on_c, 7, 60, 105
9, 266328, Note_off_c, 7, 60, 64
9, 267000, Note_on_c, 7, 60, 72
9, 267120, Note_off_c, 7, 60, 64
9, 267120, Note_on_c, 7, 62, 72
9, 267240, Note_off_c, 7, 62, 64
9, 267240, Note_on_c, 7, 64, 72
9, 267360, Note_off_c, 7, 64, 64
9, 267360, Note_on_c, 7, 65, 72
9, 267480, Note_off_c, 7, 65, 64
9, 267480, Note_on_c, 7, 67, 72
9, 267600, Note_off_c, 7, 67, 64
9, 267600, Note_on_c, 7, 69, 72
9, 267720, Note_off_c, 7, 69, 64
9, 267720, Note_on_c, 7, 65, 72
9, 267816, Note_off_c, 7, 65, 64
9, 267840, Note_on_c, 7, 64, 72
9, 267960, Note_off_c, 7, 64, 64
9, 267960, Note_on_c, 7, 62, 72
9, 268080, Note_off_c, 7, 62, 64
9, 268080, Note_on_c, 7, 60, 72
9, 268200, Note_off_c, 7, 60, 64
9, 268200, Note_on_c, 7, 58, 72
9, 268320, Note_off_c, 7, 58, 64
9, 268320, Note_on_c, 7, 57, 72
9, 268440, Note_off_c, 7, 57, 64
9, 268440, Note_on_c, 7, 55, 72
9, 268560, Note_off_c, 7, 55, 64
9, 268560, Note_on_c, 7, 53, 72
9, 268680, Note_off_c, 7, 53, 64
9, 268680, Note_on_c, 7, 52, 72
9, 268776, Note_off_c, 7, 52, 64
9, 268800, Note_on_c, 7, 53, 58
9, 268992, Note_off_c, 7, 53, 64
9, 270720, Note_on_c, 7, 60, 72
9, 270840, Note_off_c, 7, 60, 64
9, 270840, Note_on_c, 7, 55, 72
9, 270960, Note_off_c, 7, 55, 64
9, 270960, Note_on_c, 7, 60, 72
9, 271080, Note_off_c, 7, 60, 64
9, 271080, Note_on_c, 7, 55, 72
9, 271176, Note_off_c, 7, 55, 64
9, 271200, Note_on_c, 7, 60, 72
9, 271320, Note_off_c, 7, 60, 64
9, 271320, Note_on_c, 7, 55, 72
9, 271440, Note_off_c, 7, 55, 64
9, 271440, Note_on_c, 7, 62, 72
9, 271560, Note_off_c, 7, 62, 64
9, 271560, Note_on_c, 7, 55, 72
9, 271656, Note_off_c, 7, 55, 64
9, 271680, Note_on_c, 7, 60, 105
9, 271764, Note_off_c, 7, 60, 64
9, 271800, Note_on_c, 7, 64, 105
9, 271884, Note_off_c, 7, 64, 64
9, 271920, Note_on_c, 7, 67, 105
9, 272004, Note_off_c, 7, 67, 64
9, 272040, Note_on_c, 7, 72, 105
9, 272124, Note_off_c, 7, 72, 64
9, 272160, Note_on_c, 7, 76, 105
9, 272244, Note_off_c, 7, 76, 64
9, 272280, Note_on_c, 7, 74, 105
9, 272364, Note_off_c, 7, 74, 64
9, 272400, Note_on_c, 7, 76, 105
9, 272484, Note_off_c, 7, 76, 64
9, 272520, Note_on_c, 7, 72, 105
9, 272604, Note_off_c, 7, 72, 64
9, 272640, Note_on_c, 7, 71, 105
9, 272724, Note_off_c, 7, 71, 64
9, 272760, Note_on_c, 7, 72, 105
9, 272844, Note_off_c, 7, 72, 64
9, 272880, Note_on_c, 7, 74, 105
9, 272964, Note_off_c, 7, 74, 64
9, 273000, Note_on_c, 7, 72, 105
9, 273084, Note_off_c, 7, 72, 64
9, 273120, Note_on_c, 7, 71, 105
9, 273204, Note_off_c, 7, 71, 64
9, 273240, Note_on_c, 7, 69, 105
9, 273324, Note_off_c, 7, 69, 64
9, 273360, Note_on_c, 7, 67, 105
9, 273444, Note_off_c, 7, 67, 64
9, 273480, Note_on_c, 7, 65, 105
9, 273564, Note_off_c, 7, 65, 64
9, 273600, Note_on_c, 7, 64, 105
9, 273684, Note_off_c, 7, 64, 64
9, 273720, Note_on_c, 7, 65, 105
9, 273804, Note_off_c, 7, 65, 64
9, 273840, Note_on_c, 7, 67, 105
9, 273924, Note_off_c, 7, 67, 64
9, 273960, Note_on_c, 7, 64, 105
9, 274044, Note_off_c, 7, 64, 64
9, 274080, Note_on_c, 7, 69, 105
9, 274164, Note_off_c, 7, 69, 64
9, 274200, Note_on_c, 7, 71, 105
9, 274284, Note_off_c, 7, 71, 64
9, 274320, Note_on_c, 7, 72, 105
9, 274404, Note_off_c, 7, 72, 64
9, 274440, Note_on_c, 7, 69, 105
9, 274524, Note_off_c, 7, 69, 64
9, 274560, Note_on_c, 7, 65, 105
9, 274644, Note_off_c, 7, 65, 64
9, 274680, Note_on_c, 7, 62, 105
9, 274764, Note_off_c, 7, 62, 64
9, 274800, Note_on_c, 7, 64, 105
9, 274884, Note_off_c, 7, 64, 64
9, 274920, Note_on_c, 7, 65, 105
9, 275004, Note_off_c, 7, 65, 64
9, 275040, Note_on_c, 7, 67, 105
9, 275124, Note_off_c, 7, 67, 64
9, 275160, Note_on_c, 7, 65, 105
9, 275244, Note_off_c, 7, 65, 64
9, 275280, Note_on_c, 7, 67, 105
9, 275364, Note_off_c, 7, 67, 64
9, 275400, Note_on_c, 7, 55, 105
9, 275484, Note_off_c, 7, 55, 64
9, 275520, Note_on_c, 7, 60, 105
9, 275604, Note_off_c, 7, 60, 64
9, 275640, Note_on_c, 7, 64, 105
9, 275724, Note_off_c, 7, 64, 64
9, 275760, Note_on_c, 7, 67, 105
9, 275844, Note_off_c, 7, 67, 64
9, 275880, Note_on_c, 7, 72, 105
9, 275964, Note_off_c, 7, 72, 64
9, 276000, Note_on_c, 7, 76, 105
9, 276084, Note_off_c, 7, 76, 64
9, 276120, Note_on_c, 7, 74, 105
9, 276204, Note_off_c, 7, 74, 64
9, 276240, Note_on_c, 7, 76, 105
9, 276324, Note_off_c, 7, 76, 64
9, 276360, Note_on_c, 7, 72, 105
9, 276444, Note_off_c, 7, 72, 64
9, 276480, Note_on_c, 7, 71, 105
9, 276564, Note_off_c, 7, 71, 64
9, 276600, Note_on_c, 7, 72, 105
9, 276684, Note_off_c, 7, 72, 64
9, 276720, Note_on_c, 7, 74, 105
9, 276804, Note_off_c, 7, 74, 64
9, 276840, Note_on_c, 7, 72, 105
9, 276924, Note_off_c, 7, 72, 64
9, 276960, Note_on_c, 7, 71, 105
9, 277044, Note_off_c, 7, 71, 64
9, 277080, Note_on_c, 7, 69, 105
9, 277164, Note_off_c, 7, 69, 64
9, 277200, Note_on_c, 7, 67, 105
9, 277284, Note_off_c, 7, 67, 64
9, 277320, Note_on_c, 7, 65, 105
9, 277404, Note_off_c, 7, 65, 64
9, 277440, Note_on_c, 7, 64, 105
9, 277524, Note_off_c, 7, 64, 64
9, 277560, Note_on_c, 7, 65, 105
9, 277644, Note_off_c, 7, 65, 64
9, 277680, Note_on_c, 7, 67, 105
9, 277764, Note_off_c, 7, 67, 64
9, 277800, Note_on_c, 7, 64, 105
9, 277884, Note_off_c, 7, 64, 64
9, 277920, Note_on_c, 7, 69, 105
9, 278004, Note_off_c, 7, 69, 64
9, 278040, Note_on_c, 7, 71, 105
9, 278124, Note_off_c, 7, 71, 64
9, 278160, Note_on_c, 7, 72, 105
9, 278244, Note_off_c, 7, 72, 64
9, 278280, Note_on_c, 7, 69, 105
9, 278364, Note_off_c, 7, 69, 64
9, 278400, Note_on_c, 7, 66, 105
9, 278484, Note_off_c, 7, 66, 64
9, 278520, Note_on_c, 7, 67, 105
9, 278604, Note_off_c, 7, 67, 64
9, 278640, Note_on_c, 7, 69, 105
9, 278724, Note_off_c, 7, 69, 64
9, 278760, Note_on_c, 7, 67, 105
9, 278844, Note_off_c, 7, 67, 64
9, 278880, Note_on_c, 7, 66, 105
9, 278964, Note_off_c, 7, 66, 64
9, 279000, Note_on_c, 7, 62, 105
9, 279084, Note_off_c, 7, 62, 64
9, 279120, Note_on_c, 7, 64, 105
9, 279204, Note_off_c, 7, 64, 64
9, 279240, Note_on_c, 7, 66, 105
9, 279324, Note_off_c, 7, 66, 64
9, 279360, Note_on_c, 7, 67, 105
9, 279444, Note_off_c, 7, 67, 64
9, 279480, Note_on_c, 7, 70, 105
9, 279564, Note_off_c, 7, 70, 64
9, 279600, Note_on_c, 7, 74, 105
9, 279684, Note_off_c, 7, 74, 64
9, 279720, Note_on_c, 7, 72, 105
9, 279804, Note_off_c, 7, 72, 64
9, 279840, Note_on_c, 7, 70, 105
9, 279924, Note_off_c, 7, 70, 64
9, 279960, Note_on_c, 7, 69, 105
9, 280044, Note_off_c, 7, 69, 64
9, 280080, Note_on_c, 7, 67, 105
9, 280164, Note_off_c, 7, 67, 64
9, 280200, Note_on_c, 7, 65, 105
9, 280284, Note_off_c, 7, 65, 64
9, 280320, Note_on_c, 7, 64, 105
9, 280404, Note_off_c, 7, 64, 64
9, 280440, Note_on_c, 7, 65, 105
9, 280524, Note_off_c, 7, 65, 64
9, 280560, Note_on_c, 7, 67, 105
9, 280644, Note_off_c, 7, 67, 64
9, 280680, Note_on_c, 7, 65, 105
9, 280764, Note_off_c, 7, 65, 64
9, 280800, Note_on_c, 7, 64, 105
9, 280884, Note_off_c, 7, 64, 64
9, 280920, Note_on_c, 7, 65, 105
9, 281004, Note_off_c, 7, 65, 64
9, 281040, Note_on_c, 7, 62, 105
9, 281124, Note_off_c, 7, 62, 64
9, 281160, Note_on_c, 7, 64, 105
9, 281244, Note_off_c, 7, 64, 64
9, 281280, Note_on_c, 7, 65, 105
9, 281364, Note_off_c, 7, 65, 64
9, 281400, Note_on_c, 7, 67, 105
9, 281484, Note_off_c, 7, 67, 64
9, 281520, Note_on_c, 7, 69, 105
9, 281604, Note_off_c, 7, 69, 64
9, 281640, Note_on_c, 7, 67, 105
9, 281724, Note_off_c, 7, 67, 64
9, 281760, Note_on_c, 7, 65, 105
9, 281844, Note_off_c, 7, 65, 64
9, 281880, Note_on_c, 7, 67, 105
9, 281964, Note_off_c, 7, 67, 64
9, 282000, Note_on_c, 7, 64, 105
9, 282084, Note_off_c, 7, 64, 64
9, 282120, Note_on_c, 7, 65, 105
9, 282204, Note_off_c, 7, 65, 64
9, 282240, Note_on_c, 7, 62, 105
9, 282324, Note_off_c, 7, 62, 64
9, 282360, Note_on_c, 7, 74, 105
9, 282444, Note_off_c, 7, 74, 64
9, 282480, Note_on_c, 7, 70, 105
9, 282564, Note_off_c, 7, 70, 64
9, 282600, Note_on_c, 7, 69, 105
9, 282684, Note_off_c, 7, 69, 64
9, 282720, Note_on_c, 7, 67, 105
9, 282804, Note_off_c, 7, 67, 64
9, 282840, Note_on_c, 7, 70, 105
9, 282924, Note_off_c, 7, 70, 64
9, 282960, Note_on_c, 7, 67, 105
9, 283044, Note_off_c, 7, 67, 64
9, 283080, Note_on_c, 7, 65, 105
9, 283164, Note_off_c, 7, 65, 64
9, 283200, Note_on_c, 7, 64, 105
9, 283284, Note_off_c, 7, 64, 64
9, 283320, Note_on_c, 7, 65, 105
9, 283404, Note_off_c, 7, 65, 64
9, 283440, Note_on_c, 7, 67, 105
9, 283524, Note_off_c, 7, 67, 64
9, 283560, Note_on_c, 7, 65, 105
9, 283644, Note_off_c, 7, 65, 64
9, 283680, Note_on_c, 7, 64, 105
9, 283764, Note_off_c, 7, 64, 64
9, 283800, Note_on_c, 7, 60, 105
9, 283884, Note_off_c, 7, 60, 64
9, 283920, Note_on_c, 7, 62, 105
9, 284004, Note_off_c, 7, 62, 64
9, 284040, Note_on_c, 7, 64, 105
9, 284124, Note_off_c, 7, 64, 64
9, 284160, Note_on_c, 7, 65, 105
9, 284244, Note_off_c, 7, 65, 64
9, 284280, Note_on_c, 7, 69, 105
9, 284364, Note_off_c, 7, 69, 64
9, 284400, Note_on_c, 7, 72, 105
9, 284484, Note_off_c, 7, 72, 64
9, 284520, Note_on_c, 7, 72, 105
9, 284604, Note_off_c, 7, 72, 64
9, 284640, Note_on_c, 7, 72, 105
9, 284724, Note_off_c, 7, 72, 64
9, 284760, Note_on_c, 7, 72, 105
9, 284844, Note_off_c, 7, 72, 64
9, 284880, Note_on_c, 7, 69, 105
9, 284964, Note_off_c, 7, 69, 64
9, 285000, Note_on_c, 7, 65, 105
9, 285084, Note_off_c, 7, 65, 64
9, 285120, Note_on_c, 7, 70, 105
9, 285204, Note_off_c, 7, 70, 64
9, 285240, Note_on_c, 7, 67, 105
9, 285324, Note_off_c, 7, 67, 64
9, 285360, Note_on_c, 7, 69, 105
9, 285444, Note_off_c, 7, 69, 64
9, 285480, Note_on_c, 7, 65, 105
9, 285564, Note_off_c, 7, 65, 64
9, 285600, Note_on_c, 7, 64, 105
9, 285684, Note_off_c, 7, 64, 64
9, 285720, Note_on_c, 7, 67, 105
9, 285804, Note_off_c, 7, 67, 64
9, 285840, Note_on_c, 7, 64, 105
9, 285924, Note_off_c, 7, 64, 64
9, 285960, Note_on_c, 7, 60, 105
9, 286044, Note_off_c, 7, 60, 64
9, 286080, Note_on_c, 7, 65, 105
9, 286164, Note_off_c, 7, 65, 64
9, 286200, Note_on_c, 7, 69, 105
9, 286284, Note_off_c, 7, 69, 64
9, 286320, Note_on_c, 7, 72, 105
9, 286404, Note_off_c, 7, 72, 64
9, 286440, Note_on_c, 7, 72, 105
9, 286524, Note_off_c, 7, 72, 64
9, 286560, Note_on_c, 7, 72, 105
9, 286644, Note_off_c, 7, 72, 64
9, 286680, Note_on_c, 7, 72, 105
9, 286764, Note_off_c, 7, 72, 64
9, 286800, Note_on_c, 7, 69, 105
9, 286884, Note_off_c, 7, 69, 64
9, 286920, Note_on_c, 7, 65, 105
9, 287004, Note_off_c, 7, 65, 64
9, 287040, Note_on_c, 7, 70, 105
9, 287124, Note_off_c, 7, 70, 64
9, 287160, Note_on_c, 7, 67, 105
9, 287244, Note_off_c, 7, 67, 64
9, 287280, Note_on_c, 7, 69, 105
9, 287364, Note_off_c, 7, 69, 64
9, 287400, Note_on_c, 7, 65, 105
9, 287484, Note_off_c, 7, 65, 64
9, 287520, Note_on_c, 7, 64, 105
9, 287604, Note_off_c, 7, 64, 64
9, 287640, Note_on_c, 7, 67, 105
9, 287724, Note_off_c, 7, 67, 64
9, 287760, Note_on_c, 7, 64, 105
9, 287844, Note_off_c, 7, 64, 64
9, 287880, Note_on_c, 7, 60, 105
9, 287964, Note_off_c, 7, 60, 64
9, 288000, Note_on_c, 7, 60, 110
9, 288096, Note_off_c, 7, 60, 64
9, 288120, Note_on_c, 7, 60, 72
9, 288216, Note_off_c, 7, 60, 64
9, 288240, Note_on_c, 7, 60, 72
9, 288336, Note_off_c, 7, 60, 64
9, 288360, Note_on_c, 7, 60, 72
9, 288456, Note_off_c, 7, 60, 64
9, 288480, Note_on_c, 7, 60, 72
9, 288576, Note_off_c, 7, 60, 64
9, 288600, Note_on_c, 7, 60, 72
9, 288696, Note_off_c, 7, 60, 64
9, 288720, Note_on_c, 7, 60, 72
9, 288816, Note_off_c, 7, 60, 64
9, 288840, Note_on_c, 7, 60, 72
9, 288936, Note_off_c, 7, 60, 64
9, 288960, Note_on_c, 7, 60, 110
9, 289056, Note_off_c, 7, 60, 64
9, 289080, Note_on_c, 7, 60, 72
9, 289176, Note_off_c, 7, 60, 64
9, 289200, Note_on_c, 7, 60, 72
9, 289296, Note_off_c, 7, 60, 64
9, 289320, Note_on_c, 7, 60, 72
9, 289416, Note_off_c, 7, 60, 64
9, 289440, Note_on_c, 7, 60, 72
9, 289536, Note_off_c, 7, 60, 64
9, 289560, Note_on_c, 7, 60, 72
9, 289656, Note_off_c, 7, 60, 64
9, 289680, Note_on_c, 7, 60, 72
9, 289776, Note_off_c, 7, 60, 64
9, 289800, Note_on_c, 7, 60, 72
9, 289896, Note_off_c, 7, 60, 64
9, 289920, Note_on_c, 7, 57, 72
9, 289992, Note_off_c, 7, 57, 64
9, 290040, Note_on_c, 7, 55, 105
9, 290112, Note_off_c, 7, 55, 64
9, 290160, Note_on_c, 7, 57, 105
9, 290232, Note_off_c, 7, 57, 64
9, 290280, Note_on_c, 7, 55, 105
9, 290352, Note_off_c, 7, 55, 64
9, 290400, Note_on_c, 7, 57, 105
9, 290472, Note_off_c, 7, 57, 64
9, 290520, Note_on_c, 7, 55, 105
9, 290592, Note_off_c, 7, 55, 64
9, 290640, Note_on_c, 7, 57, 105
9, 290712, Note_off_c, 7, 57, 64
9, 290760, Note_on_c, 7, 60, 105
9, 290832, Note_off_c, 7, 60, 64
9, 290880, Note_on_c, 7, 60, 105
9, 290952, Note_off_c, 7, 60, 64
9, 291000, Note_on_c, 7, 60, 105
9, 291072, Note_off_c, 7, 60, 64
9, 291120, Note_on_c, 7, 60, 105
9, 291192, Note_off_c, 7, 60, 64
9, 291240, Note_on_c, 7, 60, 105
9, 291312, Note_off_c, 7, 60, 64
9, 291360, Note_on_c, 7, 60, 105
9, 291432, Note_off_c, 7, 60, 64
9, 291480, Note_on_c, 7, 60, 105
9, 291552, Note_off_c, 7, 60, 64
9, 291600, Note_on_c, 7, 60, 105
9, 291672, Note_off_c, 7, 60, 64
9, 291720, Note_on_c, 7, 60, 105
9, 291792, Note_off_c, 7, 60, 64
9, 291840, Note_on_c, 7, 60, 105
9, 291912, Note_off_c, 7, 60, 64
9, 291960, Note_on_c, 7, 60, 105
9, 292032, Note_off_c, 7, 60, 64
9, 292080, Note_on_c, 7, 60, 105
9, 292152, Note_off_c, 7, 60, 64
9, 292200, Note_on_c, 7, 60, 105
9, 292272, Note_off_c, 7, 60, 64
9, 292320, Note_on_c, 7, 60, 105
9, 292392, Note_off_c, 7, 60, 64
9, 292440, Note_on_c, 7, 60, 105
9, 292512, Note_off_c, 7, 60, 64
9, 292560, Note_on_c, 7, 60, 105
9, 292632, Note_off_c, 7, 60, 64
9, 292680, Note_on_c, 7, 65, 105
9, 292752, Note_off_c, 7, 65, 64
9, 292800, Note_on_c, 7, 64, 105
9, 292872, Note_off_c, 7, 64, 64
9, 292920, Note_on_c, 7, 62, 105
9, 292992, Note_off_c, 7, 62, 64
9, 293040, Note_on_c, 7, 64, 105
9, 293112, Note_off_c, 7, 64, 64
9, 293160, Note_on_c, 7, 62, 105
9, 293232, Note_off_c, 7, 62, 64
9, 293280, Note_on_c, 7, 64, 105
9, 293352, Note_off_c, 7, 64, 64
9, 293400, Note_on_c, 7, 62, 105
9, 293472, Note_off_c, 7, 62, 64
9, 293520, Note_on_c, 7, 64, 105
9, 293592, Note_off_c, 7, 64, 64
9, 293640, Note_on_c, 7, 59, 105
9, 293712, Note_off_c, 7, 59, 64
9, 293760, Note_on_c, 7, 60, 105
9, 293952, Note_off_c, 7, 60, 64
9, 295680, Note_on_c, 7, 56, 58
9, 296640, Note_off_c, 7, 56, 64
9, 296640, Note_on_c, 7, 60, 58
9, 297552, Note_off_c, 7, 60, 64
9, 297600, Note_on_c, 7, 59, 72
9, 297768, Note_off_c, 7, 59, 64
9, 297840, Note_on_c, 7, 62, 72
9, 298320, Note_off_c, 7, 62, 64
9, 298320, Note_on_c, 7, 60, 72
9, 298488, Note_off_c, 7, 60, 64
9, 298560, Note_on_c, 7, 59, 72
9, 298728, Note_off_c, 7, 59, 64
9, 298800, Note_on_c, 7, 62, 72
9, 299280, Note_off_c, 7, 62, 64
9, 299280, Note_on_c, 7, 60, 72
9, 299448, Note_off_c, 7, 60, 64
9, 299520, Note_on_c, 7, 65, 58
9, 300000, Note_off_c, 7, 65, 64
9, 300000, Note_on_c, 7, 64, 58
9, 300456, Note_off_c, 7, 64, 64
9, 300480, Note_on_c, 7, 65, 58
9, 300960, Note_off_c, 7, 65, 64
9, 300960, Note_on_c, 7, 64, 58
9, 301128, Note_off_c, 7, 64, 64
9, 301200, Note_on_c, 7, 67, 58
9, 301368, Note_off_c, 7, 67, 64
9, 301440, Note_on_c, 7, 65, 58
9, 301632, Note_off_c, 7, 65, 64
9, 301920, Note_on_c, 7, 62, 58
9, 302112, Note_off_c, 7, 62, 64
9, 302400, Note_on_c, 7, 60, 58
9, 302592, Note_off_c, 7, 60, 64
9, 302880, Note_on_c, 7, 60, 105
9, 303036, Note_off_c, 7, 60, 64
9, 303120, Note_on_c, 7, 60, 105
9, 303276, Note_off_c, 7, 60, 64
9, 303360, Note_on_c, 7, 60, 105
9, 303438, Note_off_c, 7, 60, 64
9, 303480, Note_on_c, 7, 62, 105
9, 303558, Note_off_c, 7, 62, 64
9, 303600, Note_on_c, 7, 64, 105
9, 303678, Note_off_c, 7, 64, 64
9, 303720, Note_on_c, 7, 60, 105
9, 303798, Note_off_c, 7, 60, 64
9, 303840, Note_on_c, 7, 59, 105
9, 303918, Note_off_c, 7, 59, 64
9, 303960, Note_on_c, 7, 56, 105
9, 304038, Note_off_c, 7, 56, 64
9, 304080, Note_on_c, 7, 57, 105
9, 304158, Note_off_c, 7, 57, 64
9, 304200, Note_on_c, 7, 59, 105
9, 304278, Note_off_c, 7, 59, 64
9, 304320, Note_on_c, 7, 60, 105
9, 304398, Note_off_c, 7, 60, 64
9, 304440, Note_on_c, 7, 62, 105
9, 304518, Note_off_c, 7, 62, 64
9, 304560, Note_on_c, 7, 64, 105
9, 304638, Note_off_c, 7, 64, 64
9, 304680, Note_on_c, 7, 60, 105
9, 304758, Note_off_c, 7, 60, 64
9, 304800, Note_on_c, 7, 59, 105
9, 304878, Note_off_c, 7, 59, 64
9, 304920, Note_on_c, 7, 56, 105
9, 304998, Note_off_c, 7, 56, 64
9, 305040, Note_on_c, 7, 57, 105
9, 305118, Note_off_c, 7, 57, 64
9, 305160, Note_on_c, 7, 59, 105
9, 305238, Note_off_c, 7, 59, 64
9, 305280, Note_on_c, 7, 60, 105
9, 305358, Note_off_c, 7, 60, 64
9, 305400, Note_on_c, 7, 62, 105
9, 305478, Note_off_c, 7, 62, 64
9, 305520, Note_on_c, 7, 64, 105
9, 305598, Note_off_c, 7, 64, 64
9, 305640, Note_on_c, 7, 60, 105
9, 305718, Note_off_c, 7, 60, 64
9, 305760, Note_on_c, 7, 59, 105
9, 305838, Note_off_c, 7, 59, 64
9, 305880, Note_on_c, 7, 56, 105
9, 305958, Note_off_c, 7, 56, 64
9, 306000, Note_on_c, 7, 57, 105
9, 306078, Note_off_c, 7, 57, 64
9, 306120, Note_on_c, 7, 59, 105
9, 306198, Note_off_c, 7, 59, 64
9, 306240, Note_on_c, 7, 60, 105
9, 306432, Note_off_c, 7, 60, 64
9, 308640, Note_on_c, 7, 60, 58
9, 308832, Note_off_c, 7, 60, 64
9, 309120, Note_on_c, 7, 60, 58
9, 309312, Note_off_c, 7, 60, 64
9, 309600, Note_on_c, 7, 67, 58
9, 309792, Note_off_c, 7, 67, 64
9, 310080, Note_on_c, 7, 64, 58
9, 310272, Note_off_c, 7, 64, 64
9, 311040, Note_on_c, 7, 64, 58
9, 314112, Note_off_c, 7, 64, 64
9, 314400, Note_on_c, 7, 65, 105
9, 314568, Note_off_c, 7, 65, 64
9, 314640, Note_on_c, 7, 65, 105
9, 314808, Note_off_c, 7, 65, 64
9, 314880, Note_on_c, 7, 65, 105
9, 314964, Note_off_c, 7, 65, 64
9, 315000, Note_on_c, 7, 69, 105
9, 315084, Note_off_c, 7, 69, 64
9, 315120, Note_on_c, 7, 67, 105
9, 315204, Note_off_c, 7, 67, 64
9, 315240, Note_on_c, 7, 65, 105
9, 315324, Note_off_c, 7, 65, 64
9, 315360, Note_on_c, 7, 64, 105
9, 315444, Note_off_c, 7, 64, 64
9, 315480, Note_on_c, 7, 60, 105
9, 315564, Note_off_c, 7, 60, 64
9, 315600, Note_on_c, 7, 62, 105
9, 315684, Note_off_c, 7, 62, 64
9, 315720, Note_on_c, 7, 64, 105
9, 315804, Note_off_c, 7, 64, 64
9, 315840, Note_on_c, 7, 65, 105
9, 315924, Note_off_c, 7, 65, 64
9, 315960, Note_on_c, 7, 65, 105
9, 316044, Note_off_c, 7, 65, 64
9, 316080, Note_on_c, 7, 65, 105
9, 316164, Note_off_c, 7, 65, 64
9, 316200, Note_on_c, 7, 65, 105
9, 316284, Note_off_c, 7, 65, 64
9, 316320, Note_on_c, 7, 65, 105
9, 316440, Note_off_c, 7, 65, 64
9, 316440, Note_on_c, 7, 72, 105
9, 316524, Note_off_c, 7, 72, 64
9, 316560, Note_on_c, 7, 72, 105
9, 316680, Note_off_c, 7, 72, 64
9, 316680, Note_on_c, 7, 69, 105
9, 316764, Note_off_c, 7, 69, 64
9, 316800, Note_on_c, 7, 67, 105
9, 316884, Note_off_c, 7, 67, 64
9, 316920, Note_on_c, 7, 67, 105
9, 317004, Note_off_c, 7, 67, 64
9, 317040, Note_on_c, 7, 67, 105
9, 317124, Note_off_c, 7, 67, 64
9, 317160, Note_on_c, 7, 67, 105
9, 317244, Note_off_c, 7, 67, 64
9, 317280, Note_on_c, 7, 67, 105
9, 317364, Note_off_c, 7, 67, 64
9, 317400, Note_on_c, 7, 67, 105
9, 317484, Note_off_c, 7, 67, 64
9, 317520, Note_on_c, 7, 67, 105
9, 317604, Note_off_c, 7, 67, 64
9, 317640, Note_on_c, 7, 67, 105
9, 317724, Note_off_c, 7, 67, 64
9, 317760, Note_on_c, 7, 67, 105
9, 317844, Note_off_c, 7, 67, 64
9, 317880, Note_on_c, 7, 64, 105
9, 317964, Note_off_c, 7, 64, 64
9, 318000, Note_on_c, 7, 65, 105
9, 318084, Note_off_c, 7, 65, 64
9, 318120, Note_on_c, 7, 60, 105
9, 318204, Note_off_c, 7, 60, 64
9, 318240, Note_on_c, 7, 60, 105
9, 318324, Note_off_c, 7, 60, 64
9, 318360, Note_on_c, 7, 57, 105
9, 318444, Note_off_c, 7, 57, 64
9, 318480, Note_on_c, 7, 55, 105
9, 318564, Note_off_c, 7, 55, 64
9, 318600, Note_on_c, 7, 59, 105
9, 318684, Note_off_c, 7, 59, 64
9, 318720, Note_on_c, 7, 57, 105
9, 318804, Note_off_c, 7, 57, 64
9, 318840, Note_on_c, 7, 60, 105
9, 318924, Note_off_c, 7, 60, 64
9, 318960, Note_on_c, 7, 59, 105
9, 319044, Note_off_c, 7, 59, 64
9, 319080, Note_on_c, 7, 62, 105
9, 319164, Note_off_c, 7, 62, 64
9, 319200, Note_on_c, 7, 60, 105
9, 319284, Note_off_c, 7, 60, 64
9, 319320, Note_on_c, 7, 64, 105
9, 319404, Note_off_c, 7, 64, 64
9, 319440, Note_on_c, 7, 62, 105
9, 319524, Note_off_c, 7, 62, 64
9, 319560, Note_on_c, 7, 65, 105
9, 319644, Note_off_c, 7, 65, 64
9, 319680, Note_on_c, 7, 64, 105
9, 319776, Note_off_c, 7, 64, 64
9, 319800, Note_on_c, 7, 67, 105
9, 319992, Note_off_c, 7, 67, 64
9, 320040, Note_on_c, 7, 67, 105
9, 320232, Note_off_c, 7, 67, 64
9, 320280, Note_on_c, 7, 67, 105
9, 320472, Note_off_c, 7, 67, 64
9, 320520, Note_on_c, 7, 67, 105
9, 320616, Note_off_c, 7, 67, 64
9, 320640, Note_on_c, 7, 67, 105
9, 320736, Note_off_c, 7, 67, 64
9, 320760, Note_on_c, 7, 67, 105
9, 320856, Note_off_c, 7, 67, 64
9, 320880, Note_on_c, 7, 60, 105
9, 320976, Note_off_c, 7, 60, 64
9, 321000, Note_on_c, 7, 60, 105
9, 321096, Note_off_c, 7, 60, 64
9, 321120, Note_on_c, 7, 60, 105
9, 321216, Note_off_c, 7, 60, 64
9, 321240, Note_on_c, 7, 60, 105
9, 321336, Note_off_c, 7, 60, 64
9, 321360, Note_on_c, 7, 65, 105
9, 321456, Note_off_c, 7, 65, 64
9, 321480, Note_on_c, 7, 65, 105
9, 321576, Note_off_c, 7, 65, 64
9, 321600, Note_on_c, 7, 64, 105
9, 321684, Note_off_c, 7, 64, 64
9, 321720, Note_on_c, 7, 64, 105
9, 321804, Note_off_c, 7, 64, 64
9, 321840, Note_on_c, 7, 59, 105
9, 321924, Note_off_c, 7, 59, 64
9, 321960, Note_on_c, 7, 60, 105
9, 322044, Note_off_c, 7, 60, 64
9, 322080, Note_on_c, 7, 53, 105
9, 322164, Note_off_c, 7, 53, 64
9, 322200, Note_on_c, 7, 50, 105
9, 322284, Note_off_c, 7, 50, 64
9, 322320, Note_on_c, 7, 55, 105
9, 322404, Note_off_c, 7, 55, 64
9, 322440, Note_on_c, 7, 52, 105
9, 322524, Note_off_c, 7, 52, 64
9, 322560, Note_on_c, 7, 57, 105
9, 322644, Note_off_c, 7, 57, 64
9, 322680, Note_on_c, 7, 53, 105
9, 322764, Note_off_c, 7, 53, 64
9, 322800, Note_on_c, 7, 59, 105
9, 322884, Note_off_c, 7, 59, 64
9, 322920, Note_on_c, 7, 55, 105
9, 323004, Note_off_c, 7, 55, 64
9, 323040, Note_on_c, 7, 60, 105
9, 323124, Note_off_c, 7, 60, 64
9, 323160, Note_on_c, 7, 57, 105
9, 323244, Note_off_c, 7, 57, 64
9, 323280, Note_on_c, 7, 62, 105
9, 323364, Note_off_c, 7, 62, 64
9, 323400, Note_on_c, 7, 59, 105
9, 323484, Note_off_c, 7, 59, 64
9, 323520, Note_on_c, 7, 67, 105
9, 323568, Note_off_c, 7, 67, 64
9, 323580, Note_on_c, 7, 67, 105
9, 323628, Note_off_c, 7, 67, 64
9, 323640, Note_on_c, 7, 67, 105
9, 323688, Note_off_c, 7, 67, 64
9, 323700, Note_on_c, 7, 67, 105
9, 323748, Note_off_c, 7, 67, 64
9, 323760, Note_on_c, 7, 64, 105
9, 323808, Note_off_c, 7, 64, 64
9, 323820, Note_on_c, 7, 64, 105
9, 323868, Note_off_c, 7, 64, 64
9, 323880, Note_on_c, 7, 64, 105
9, 323928, Note_off_c, 7, 64, 64
9, 323940, Note_on_c, 7, 64, 105
9, 323988, Note_off_c, 7, 64, 64
9, 324000, Note_on_c, 7, 65, 105
9, 324048, Note_off_c, 7, 65, 64
9, 324060, Note_on_c, 7, 65, 105
9, 324108, Note_off_c, 7, 65, 64
9, 324120, Note_on_c, 7, 65, 105
9, 324168, Note_off_c, 7, 65, 64
9, 324180, Note_on_c, 7, 65, 105
9, 324228, Note_off_c, 7, 65, 64
9, 324240, Note_on_c, 7, 62, 105
9, 324288, Note_off_c, 7, 62, 64
9, 324300, Note_on_c, 7, 62, 105
9, 324348, Note_off_c, 7, 62, 64
9, 324360, Note_on_c, 7, 62, 105
9, 324408, Note_off_c, 7, 62, 64
9, 324420, Note_on_c, 7, 62, 105
9, 324468, Note_off_c, 7, 62, 64
9, 324480, Note_on_c, 7, 64, 105
9, 324564, Note_off_c, 7, 64, 64
9, 324600, Note_on_c, 7, 64, 105
9, 324684, Note_off_c, 7, 64, 64
9, 324720, Note_on_c, 7, 69, 105
9, 324804, Note_off_c, 7, 69, 64
9, 324840, Note_on_c, 7, 69, 105
9, 324924, Note_off_c, 7, 69, 64
9, 324960, Note_on_c, 7, 69, 105
9, 325044, Note_off_c, 7, 69, 64
9, 325080, Note_on_c, 7, 69, 105
9, 325164, Note_off_c, 7, 69, 64
9, 325200, Note_on_c, 7, 67, 105
9, 325284, Note_off_c, 7, 67, 64
9, 325320, Note_on_c, 7, 67, 105
9, 325404, Note_off_c, 7, 67, 64
9, 325440, Note_on_c, 7, 67, 105
9, 325524, Note_off_c, 7, 67, 64
9, 325560, Note_on_c, 7, 67, 105
9, 325644, Note_off_c, 7, 67, 64
9, 325680, Note_on_c, 7, 67, 105
9, 325764, Note_off_c, 7, 67, 64
9, 325800, Note_on_c, 7, 67, 105
9, 325884, Note_off_c, 7, 67, 64
9, 325920, Note_on_c, 7, 67, 105
9, 326112, Note_off_c, 7, 67, 64
9, 326400, Note_on_c, 7, 69, 105
9, 326484, Note_off_c, 7, 69, 64
9, 326520, Note_on_c, 7, 69, 105
9, 326604, Note_off_c, 7, 69, 64
9, 326640, Note_on_c, 7, 69, 105
9, 326724, Note_off_c, 7, 69, 64
9, 326760, Note_on_c, 7, 69, 105
9, 326844, Note_off_c, 7, 69, 64
9, 326880, Note_on_c, 7, 69, 105
9, 327048, Note_off_c, 7, 69, 64
9, 327360, Note_on_c, 7, 64, 105
9, 327444, Note_off_c, 7, 64, 64
9, 327480, Note_on_c, 7, 64, 105
9, 327564, Note_off_c, 7, 64, 64
9, 327600, Note_on_c, 7, 64, 105
9, 327684, Note_off_c, 7, 64, 64
9, 327720, Note_on_c, 7, 64, 105
9, 327804, Note_off_c, 7, 64, 64
9, 327840, Note_on_c, 7, 64, 105
9, 328008, Note_off_c, 7, 64, 64
9, 328320, Note_on_c, 7, 65, 105
9, 328404, Note_off_c, 7, 65, 64
9, 328440, Note_on_c, 7, 65, 105
9, 328524, Note_off_c, 7, 65, 64
9, 328560, Note_on_c, 7, 65, 105
9, 328644, Note_off_c, 7, 65, 64
9, 328680, Note_on_c, 7, 65, 105
9, 328764, Note_off_c, 7, 65, 64
9, 328800, Note_on_c, 7, 62, 105
9, 328884, Note_off_c, 7, 62, 64
9, 328920, Note_on_c, 7, 62, 105
9, 329004, Note_off_c, 7, 62, 64
9, 329040, Note_on_c, 7, 62, 105
9, 329124, Note_off_c, 7, 62, 64
9, 329160, Note_on_c, 7, 62, 105
9, 329244, Note_off_c, 7, 62, 64
9, 329280, Note_on_c, 7, 59, 105
9, 329424, Note_off_c, 7, 59, 64
9, 329520, Note_on_c, 7, 71, 105
9, 329664, Note_off_c, 7, 71, 64
9, 330000, Note_on_c, 7, 71, 105
9, 330144, Note_off_c, 7, 71, 64
9, 330240, Note_on_c, 7, 72, 105
9, 330396, Note_off_c, 7, 72, 64
9, 330480, Note_on_c, 7, 65, 105
9, 330636, Note_off_c, 7, 65, 64
9, 330720, Note_on_c, 7, 67, 105
9, 330876, Note_off_c, 7, 67, 64
9, 330960, Note_on_c, 7, 55, 105
9, 331116, Note_off_c, 7, 55, 64
9, 331200, Note_on_c, 7, 67, 105
9, 331284, Note_off_c, 7, 67, 64
9, 331320, Note_on_c, 7, 67, 105
9, 331404, Note_off_c, 7, 67, 64
9, 331440, Note_on_c, 7, 67, 105
9, 331524, Note_off_c, 7, 67, 64
9, 331560, Note_on_c, 7, 67, 105
9, 331644, Note_off_c, 7, 67, 64
9, 331680, Note_on_c, 7, 67, 105
9, 331872, Note_off_c, 7, 67, 64
9, 332160, Note_on_c, 7, 69, 105
9, 332244, Note_off_c, 7, 69, 64
9, 332280, Note_on_c, 7, 69, 105
9, 332364, Note_off_c, 7, 69, 64
9, 332400, Note_on_c, 7, 69, 105
9, 332484, Note_off_c, 7, 69, 64
9, 332520, Note_on_c, 7, 69, 105
9, 332604, Note_off_c, 7, 69, 64
9, 332640, Note_on_c, 7, 69, 105
9, 332808, Note_off_c, 7, 69, 64
9, 333120, Note_on_c, 7, 64, 105
9, 333204, Note_off_c, 7, 64, 64
9, 333240, Note_on_c, 7, 64, 105
9, 333324, Note_off_c, 7, 64, 64
9, 333360, Note_on_c, 7, 64, 105
9, 333444, Note_off_c, 7, 64, 64
9, 333480, Note_on_c, 7, 64, 105
9, 333564, Note_off_c, 7, 64, 64
9, 333600, Note_on_c, 7, 64, 105
9, 333768, Note_off_c, 7, 64, 64
9, 334080, Note_on_c, 7, 65, 105
9, 334164, Note_off_c, 7, 65, 64
9, 334200, Note_on_c, 7, 65, 105
9, 334284, Note_off_c, 7, 65, 64
9, 334320, Note_on_c, 7, 65, 105
9, 334404, Note_off_c, 7, 65, 64
9, 334440, Note_on_c, 7, 65, 105
9, 334524, Note_off_c, 7, 65, 64
9, 334560, Note_on_c, 7, 62, 105
9, 334644, Note_off_c, 7, 62, 64
9, 334680, Note_on_c, 7, 62, 105
9, 334764, Note_off_c, 7, 62, 64
9, 334800, Note_on_c, 7, 62, 105
9, 334884, Note_off_c, 7, 62, 64
9, 334920, Note_on_c, 7, 62, 105
9, 335004, Note_off_c, 7, 62, 64
9, 335040, Note_on_c, 7, 59, 105
9, 335184, Note_off_c, 7, 59, 64
9, 335280, Note_on_c, 7, 71, 92
9, 335424, Note_off_c, 7, 71, 64
9, 337680, Note_on_c, 7, 56, 58
9, 337920, Note_off_c, 7, 56, 64
9, 337920, Note_on_c, 7, 55, 58
9, 338064, Note_off_c, 7, 55, 64
9, 338160, Note_on_c, 7, 65, 58
9, 338304, Note_off_c, 7, 65, 64
9, 339360, Note_on_c, 7, 55, 58
9, 339840, Note_off_c, 7, 55, 64
9, 339840, Note_on_c, 7, 57, 72
9, 340320, Note_off_c, 7, 57, 64
9, 340320, Note_on_c, 7, 55, 58
9, 340776, Note_off_c, 7, 55, 64
9, 340800, Note_on_c, 7, 55, 105
9, 340872, Note_off_c, 7, 55, 64
9, 340920, Note_on_c, 7, 55, 105
9, 340960, Note_off_c, 7, 55, 64
9, 340960, Note_on_c, 7, 57, 105
9, 341000, Note_off_c, 7, 57, 64
9, 341000, Note_on_c, 7, 59, 105
9, 341032, Note_off_c, 7, 59, 64
9, 341040, Note_on_c, 7, 60, 105
9, 341112, Note_off_c, 7, 60, 64
9, 341160, Note_on_c, 7, 60, 105
9, 341232, Note_off_c, 7, 60, 64
9, 341280, Note_on_c, 7, 60, 105
9, 341352, Note_off_c, 7, 60, 64
9, 341400, Note_on_c, 7, 62, 105
9, 341400, Note_on_c, 7, 59, 105
9, 341472, Note_off_c, 7, 59, 64
9, 341472, Note_off_c, 7, 62, 64
9, 341520, Note_on_c, 7, 64, 105
9, 341520, Note_on_c, 7, 60, 105
9, 341592, Note_off_c, 7, 60, 64
9, 341592, Note_off_c, 7, 64, 64
9, 341640, Note_on_c, 7, 65, 105
9, 341640, Note_on_c, 7, 62, 105
9, 341712, Note_off_c, 7, 62, 64
9, 341712, Note_off_c, 7, 65, 64
9, 341760, Note_on_c, 7, 67, 105
9, 341760, Note_on_c, 7, 64, 105
9, 342048, Note_off_c, 7, 64, 64
9, 342048, Note_off_c, 7, 67, 64
9, 342120, Note_on_c, 7, 66, 105
9, 342120, Note_on_c, 7, 63, 105
9, 342192, Note_off_c, 7, 63, 64
9, 342192, Note_off_c, 7, 66, 64
9, 342240, Note_on_c, 7, 67, 105
9, 342240, Note_on_c, 7, 64, 105
9, 342312, Note_off_c, 7, 64, 64
9, 342312, Note_off_c, 7, 67, 64
9, 342360, Note_on_c, 7, 66, 105
9, 342360, Note_on_c, 7, 63, 105
9, 342432, Note_off_c, 7, 63, 64
9, 342432, Note_off_c, 7, 66, 64
9, 342480, Note_on_c, 7, 64, 105
9, 342480, Note_on_c, 7, 67, 105
9, 342552, Note_off_c, 7, 67, 64
9, 342552, Note_off_c, 7, 64, 64
9, 342600, Note_on_c, 7, 66, 105
9, 342600, Note_on_c, 7, 63, 105
9, 342672, Note_off_c, 7, 63, 64
9, 342672, Note_off_c, 7, 66, 64
9, 342720, Note_on_c, 7, 67, 105
9, 342720, Note_on_c, 7, 64, 105
9, 342792, Note_off_c, 7, 64, 64
9, 342792, Note_off_c, 7, 67, 64
9, 342840, Note_on_c, 7, 67, 105
9, 342840, Note_on_c, 7, 64, 105
9, 342912, Note_off_c, 7, 64, 64
9, 342912, Note_off_c, 7, 67, 64
9, 342960, Note_on_c, 7, 64, 105
9, 342960, Note_on_c, 7, 60, 105
9, 343032, Note_off_c, 7, 60, 64
9, 343032, Note_off_c, 7, 64, 64
9, 343080, Note_on_c, 7, 64, 105
9, 343080, Note_on_c, 7, 60, 105
9, 343152, Note_off_c, 7, 60, 64
9, 343152, Note_off_c, 7, 64, 64
9, 343200, Note_on_c, 7, 62, 105
9, 343200, Note_on_c, 7, 65, 105
9, 343272, Note_off_c, 7, 65, 64
9, 343272, Note_off_c, 7, 62, 64
9, 343320, Note_on_c, 7, 65, 105
9, 343320, Note_on_c, 7, 62, 105
9, 343392, Note_off_c, 7, 62, 64
9, 343392, Note_off_c, 7, 65, 64
9, 343440, Note_on_c, 7, 62, 105
9, 343440, Note_on_c, 7, 59, 105
9, 343512, Note_off_c, 7, 59, 64
9, 343512, Note_off_c, 7, 62, 64
9, 343560, Note_on_c, 7, 62, 105
9, 343560, Note_on_c, 7, 59, 105
9, 343632, Note_off_c, 7, 59, 64
9, 343632, Note_off_c, 7, 62, 64
9, 343680, Note_on_c, 7, 55, 105
9, 343752, Note_off_c, 7, 55, 64
9, 343800, Note_on_c, 7, 55, 105
9, 343840, Note_off_c, 7, 55, 64
9, 343840, Note_on_c, 7, 57, 105
9, 343880, Note_off_c, 7, 57, 64
9, 343880, Note_on_c, 7, 59, 105
9, 343912, Note_off_c, 7, 59, 64
9, 343920, Note_on_c, 7, 60, 105
9, 343992, Note_off_c, 7, 60, 64
9, 344040, Note_on_c, 7, 60, 105
9, 344112, Note_off_c, 7, 60, 64
9, 344160, Note_on_c, 7, 60, 105
9, 344232, Note_off_c, 7, 60, 64
9, 344280, Note_on_c, 7, 62, 105
9, 344280, Note_on_c, 7, 59, 105
9, 344352, Note_off_c, 7, 59, 64
9, 344352, Note_off_c, 7, 62, 64
9, 344400, Note_on_c, 7, 60, 105
9, 344400, Note_on_c, 7, 64, 105
9, 344472, Note_off_c, 7, 64, 64
9, 344472, Note_off_c, 7, 60, 64
9, 344520, Note_on_c, 7, 62, 105
9, 344520, Note_on_c, 7, 65, 105
9, 344592, Note_off_c, 7, 65, 64
9, 344592, Note_off_c, 7, 62, 64
9, 344640, Note_on_c, 7, 64, 105
9, 344640, Note_on_c, 7, 67, 105
9, 344712, Note_off_c, 7, 67, 64
9, 344712, Note_off_c, 7, 64, 64
9, 344760, Note_on_c, 7, 67, 105
9, 344760, Note_on_c, 7, 64, 105
9, 344952, Note_off_c, 7, 64, 64
9, 344952, Note_off_c, 7, 67, 64
9, 345000, Note_on_c, 7, 66, 105
9, 345000, Note_on_c, 7, 63, 105
9, 345072, Note_off_c, 7, 63, 64
9, 345072, Note_off_c, 7, 66, 64
9, 345120, Note_on_c, 7, 64, 105
9, 345120, Note_on_c, 7, 67, 105
9, 345192, Note_off_c, 7, 67, 64
9, 345192, Note_off_c, 7, 64, 64
9, 345240, Note_on_c, 7, 66, 105
9, 345240, Note_on_c, 7, 63, 105
9, 345312, Note_off_c, 7, 63, 64
9, 345312, Note_off_c, 7, 66, 64
9, 345360, Note_on_c, 7, 67, 105
9, 345360, Note_on_c, 7, 64, 105
9, 345432, Note_off_c, 7, 64, 64
9, 345432, Note_off_c, 7, 67, 64
9, 345480, Note_on_c, 7, 63, 105
9, 345480, Note_on_c, 7, 66, 105
9, 345552, Note_off_c, 7, 66, 64
9, 345552, Note_off_c, 7, 63, 64
9, 345600, Note_on_c, 7, 67, 105
9, 345600, Note_on_c, 7, 64, 105
9, 345672, Note_off_c, 7, 64, 64
9, 345672, Note_off_c, 7, 67, 64
9, 345720, Note_on_c, 7, 67, 105
9, 345720, Note_on_c, 7, 64, 105
9, 345792, Note_off_c, 7, 64, 64
9, 345792, Note_off_c, 7, 67, 64
9, 345840, Note_on_c, 7, 60, 105
9, 345840, Note_on_c, 7, 64, 105
9, 345912, Note_off_c, 7, 64, 64
9, 345912, Note_off_c, 7, 60, 64
9, 345960, Note_on_c, 7, 60, 105
9, 345960, Note_on_c, 7, 64, 105
9, 346032, Note_off_c, 7, 64, 64
9, 346032, Note_off_c, 7, 60, 64
9, 346080, Note_on_c, 7, 62, 105
9, 346080, Note_on_c, 7, 65, 105
9, 346152, Note_off_c, 7, 65, 64
9, 346152, Note_off_c, 7, 62, 64
9, 346200, Note_on_c, 7, 62, 105
9, 346200, Note_on_c, 7, 65, 105
9, 346272, Note_off_c, 7, 65, 64
9, 346272, Note_off_c, 7, 62, 64
9, 346320, Note_on_c, 7, 59, 105
9, 346320, Note_on_c, 7, 62, 105
9, 346392, Note_off_c, 7, 62, 64
9, 346392, Note_off_c, 7, 59, 64
9, 346440, Note_on_c, 7, 59, 105
9, 346440, Note_on_c, 7, 62, 105
9, 346512, Note_off_c, 7, 62, 64
9, 346512, Note_off_c, 7, 59, 64
9, 346560, Note_on_c, 7, 67, 72
9, 346560, Note_on_c, 7, 64, 72
9, 346656, Note_off_c, 7, 64, 64
9, 346656, Note_off_c, 7, 67, 64
9, 346800, Note_on_c, 7, 60, 72
9, 346800, Note_on_c, 7, 64, 72
9, 346896, Note_off_c, 7, 64, 64
9, 346896, Note_off_c, 7, 60, 64
9, 347040, Note_on_c, 7, 62, 72
9, 347040, Note_on_c, 7, 65, 72
9, 347136, Note_off_c, 7, 65, 64
9, 347136, Note_off_c, 7, 62, 64
9, 347280, Note_on_c, 7, 59, 72
9, 347280, Note_on_c, 7, 62, 72
9, 347376, Note_off_c, 7, 62, 64
9, 347376, Note_off_c, 7, 59, 64
9, 347520, Note_on_c, 7, 67, 105
9, 347520, Note_on_c, 7, 64, 105
9, 347568, Note_off_c, 7, 64, 64
9, 347568, Note_off_c, 7, 67, 64
9, 347580, Note_on_c, 7, 64, 105
9, 347580, Note_on_c, 7, 67, 105
9, 347628, Note_off_c, 7, 67, 64
9, 347628, Note_off_c, 7, 64, 64
9, 347640, Note_on_c, 7, 64, 105
9, 347640, Note_on_c, 7, 67, 105
9, 347688, Note_off_c, 7, 67, 64
9, 347688, Note_off_c, 7, 64, 64
9, 347700, Note_on_c, 7, 64, 105
9, 347700, Note_on_c, 7, 67, 105
9, 347748, Note_off_c, 7, 67, 64
9, 347748, Note_off_c, 7, 64, 64
9, 347760, Note_on_c, 7, 72, 105
9, 347760, Note_on_c, 7, 64, 105
9, 347808, Note_off_c, 7, 64, 64
9, 347808, Note_off_c, 7, 72, 64
9, 347820, Note_on_c, 7, 72, 105
9, 347820, Note_on_c, 7, 64, 105
9, 347868, Note_off_c, 7, 64, 64
9, 347868, Note_off_c, 7, 72, 64
9, 347880, Note_on_c, 7, 64, 105
9, 347880, Note_on_c, 7, 72, 105
9, 347928, Note_off_c, 7, 72, 64
9, 347928, Note_off_c, 7, 64, 64
9, 347940, Note_on_c, 7, 64, 105
9, 347940, Note_on_c, 7, 72, 105
9, 347988, Note_off_c, 7, 72, 64
9, 347988, Note_off_c, 7, 64, 64
9, 348000, Note_on_c, 7, 74, 105
9, 348000, Note_on_c, 7, 65, 105
9, 348048, Note_off_c, 7, 65, 64
9, 348048, Note_off_c, 7, 74, 64
9, 348060, Note_on_c, 7, 65, 105
9, 348060, Note_on_c, 7, 74, 105
9, 348108, Note_off_c, 7, 74, 64
9, 348108, Note_off_c, 7, 65, 64
9, 348120, Note_on_c, 7, 65, 105
9, 348120, Note_on_c, 7, 74, 105
9, 348168, Note_off_c, 7, 74, 64
9, 348168, Note_off_c, 7, 65, 64
9, 348180, Note_on_c, 7, 74, 105
9, 348180, Note_on_c, 7, 65, 105
9, 348228, Note_off_c, 7, 65, 64
9, 348228, Note_off_c, 7, 74, 64
9, 348240, Note_on_c, 7, 62, 105
9, 348240, Note_on_c, 7, 71, 105
9, 348288, Note_off_c, 7, 71, 64
9, 348288, Note_off_c, 7, 62, 64
9, 348300, Note_on_c, 7, 62, 105
9, 348300, Note_on_c, 7, 71, 105
9, 348348, Note_off_c, 7, 71, 64
9, 348348, Note_off_c, 7, 62, 64
9, 348360, Note_on_c, 7, 71, 105
9, 348360, Note_on_c, 7, 62, 105
9, 348408, Note_off_c, 7, 62, 64
9, 348408, Note_off_c, 7, 71, 64
9, 348420, Note_on_c, 7, 71, 105
9, 348420, Note_on_c, 7, 62, 105
9, 348468, Note_off_c, 7, 62, 64
9, 348468, Note_off_c, 7, 71, 64
9, 348480, Note_on_c, 7, 72, 105
9, 348480, Note_on_c, 7, 64, 105
9, 348672, Note_off_c, 7, 64, 64
9, 348672, Note_off_c, 7, 72, 64
9, 350400, Note_on_c, 7, 55, 58
9, 352320, Note_off_c, 7, 55, 64
9, 352320, Note_on_c, 7, 57, 58
9, 352512, Note_off_c, 7, 57, 64
9, 355200, Note_on_c, 7, 65, 58
9, 355920, Note_off_c, 7, 65, 64
9, 355920, Note_on_c, 7, 66, 58
9, 356112, Note_off_c, 7, 66, 64
9, 356160, Note_on_c, 7, 67, 58
9, 357120, Note_off_c, 7, 67, 64
9, 357120, Note_on_c, 7, 64, 58
9, 357312, Note_off_c, 7, 64, 64
9, 358080, Note_on_c, 7, 67, 58
9, 359232, Note_off_c, 7, 67, 64
9, 360000, Note_on_c, 7, 67, 58
9, 361152, Note_off_c, 7, 67, 64
9, 363000, Note_on_c, 7, 55, 105
9, 363120, Note_off_c, 7, 55, 64
9, 363120, Note_on_c, 7, 60, 105
9, 363240, Note_off_c, 7, 60, 64
9, 363240, Note_on_c, 7, 59, 105
9, 363360, Note_off_c, 7, 59, 64
9, 363360, Note_on_c, 7, 62, 105
9, 363480, Note_off_c, 7, 62, 64
9, 363480, Note_on_c, 7, 60, 105
9, 363600, Note_off_c, 7, 60, 64
9, 363600, Note_on_c, 7, 65, 105
9, 363720, Note_off_c, 7, 65, 64
9, 363720, Note_on_c, 7, 64, 105
9, 363816, Note_off_c, 7, 64, 64
9, 363840, Note_on_c, 7, 64, 105
9, 364224, Note_off_c, 7, 64, 64
9, 364320, Note_on_c, 7, 60, 105
9, 364680, Note_off_c, 7, 60, 64
9, 364680, Note_on_c, 7, 62, 105
9, 364740, Note_off_c, 7, 62, 64
9, 364740, Note_on_c, 7, 64, 105
9, 364800, Note_off_c, 7, 64, 64
9, 364800, Note_on_c, 7, 65, 105
9, 364968, Note_off_c, 7, 65, 64
9, 365040, Note_on_c, 7, 62, 105
9, 365208, Note_off_c, 7, 62, 64
9, 365280, Note_on_c, 7, 67, 105
9, 365640, Note_off_c, 7, 67, 64
9, 365640, Note_on_c, 7, 69, 105
9, 365670, Note_off_c, 7, 69, 64
9, 365670, Note_on_c, 7, 71, 105
9, 365700, Note_off_c, 7, 71, 64
9, 365700, Note_on_c, 7, 72, 105
9, 365730, Note_off_c, 7, 72, 64
9, 365730, Note_on_c, 7, 74, 105
9, 365754, Note_off_c, 7, 74, 64
9, 365760, Note_on_c, 7, 76, 105
9, 366144, Note_off_c, 7, 76, 64
9, 366240, Note_on_c, 7, 60, 105
9, 366600, Note_off_c, 7, 60, 64
9, 366600, Note_on_c, 7, 62, 105
9, 366660, Note_off_c, 7, 62, 64
9, 366660, Note_on_c, 7, 64, 105
9, 366720, Note_off_c, 7, 64, 64
9, 366720, Note_on_c, 7, 65, 105
9, 366888, Note_off_c, 7, 65, 64
9, 366960, Note_on_c, 7, 62, 105
9, 367128, Note_off_c, 7, 62, 64
9, 367200, Note_on_c, 7, 67, 105
9, 367368, Note_off_c, 7, 67, 64
9, 367440, Note_on_c, 7, 55, 105
9, 367608, Note_off_c, 7, 55, 64
9, 367680, Note_on_c, 7, 60, 105
9, 367872, Note_off_c, 7, 60, 64
9, 368160, Note_on_c, 7, 60, 105
9, 368304, Note_off_c, 7, 60, 64
9, 368400, Note_on_c, 7, 60, 105
9, 368544, Note_off_c, 7, 60, 64
9, 368640, Note_on_c, 7, 60, 105
9, 368832, Note_off_c, 7, 60, 64
9, 369120, Note_on_c, 7, 60, 105
9, 369264, Note_off_c, 7, 60, 64
9, 369360, Note_on_c, 7, 60, 105
9, 369504, Note_off_c, 7, 60, 64
9, 369600, Note_on_c, 7, 60, 105
9, 369828, Note_off_c, 7, 60, 64
9, 369828, End_track
10, 0, Start_track
10, 0, Program_c, 10, 48
10, 0, Control_c, 10, 7, 123
10, 0, Control_c, 10, 10, 84
10, 0, Control_c, 10, 91, 70
10, 720, Note_on_c, 10, 48, 105
10, 834, Note_off_c, 10, 48, 64
10, 930, Note_on_c, 10, 48, 105
10, 954, Note_off_c, 10, 48, 64
10, 960, Note_on_c, 10, 52, 105
10, 1074, Note_off_c, 10, 52, 64
10, 1170, Note_on_c, 10, 52, 105
10, 1194, Note_off_c, 10, 52, 64
10, 1200, Note_on_c, 10, 57, 105
10, 1314, Note_off_c, 10, 57, 64
10, 1410, Note_on_c, 10, 57, 105
10, 1434, Note_off_c, 10, 57, 64
10, 1440, Note_on_c, 10, 47, 105
10, 1536, Note_off_c, 10, 47, 64
10, 1650, Note_on_c, 10, 59, 105
10, 1674, Note_off_c, 10, 59, 64
10, 1680, Note_on_c, 10, 59, 105
10, 1920, Note_off_c, 10, 59, 64
10, 2130, Note_on_c, 10, 47, 105
10, 2154, Note_off_c, 10, 47, 64
10, 2160, Note_on_c, 10, 46, 105
10, 2256, Note_off_c, 10, 46, 64
10, 2370, Note_on_c, 10, 58, 105
10, 2394, Note_off_c, 10, 58, 64
10, 2400, Note_on_c, 10, 58, 105
10, 2640, Note_off_c, 10, 58, 64
10, 2880, Note_on_c, 10, 57, 58
10, 2976, Note_off_c, 10, 57, 64
10, 3000, Note_on_c, 10, 57, 58
10, 3096, Note_off_c, 10, 57, 64
10, 3120, Note_on_c, 10, 57, 58
10, 3216, Note_off_c, 10, 57, 64
10, 3240, Note_on_c, 10, 57, 58
10, 3336, Note_off_c, 10, 57, 64
10, 3360, Note_on_c, 10, 57, 58
10, 3456, Note_off_c, 10, 57, 64
10, 3480, Note_on_c, 10, 57, 58
10, 3576, Note_off_c, 10, 57, 64
10, 3600, Note_on_c, 10, 55, 58
10, 3696, Note_off_c, 10, 55, 64
10, 3720, Note_on_c, 10, 55, 58
10, 3816, Note_off_c, 10, 55, 64
10, 3840, Note_on_c, 10, 55, 58
10, 3936, Note_off_c, 10, 55, 64
10, 3960, Note_on_c, 10, 55, 58
10, 4056, Note_off_c, 10, 55, 64
10, 4080, Note_on_c, 10, 55, 58
10, 4176, Note_off_c, 10, 55, 64
10, 4200, Note_on_c, 10, 55, 58
10, 4296, Note_off_c, 10, 55, 64
10, 4320, Note_on_c, 10, 53, 58
10, 4416, Note_off_c, 10, 53, 64
10, 4440, Note_on_c, 10, 53, 58
10, 4536, Note_off_c, 10, 53, 64
10, 4560, Note_on_c, 10, 53, 58
10, 4656, Note_off_c, 10, 53, 64
10, 4680, Note_on_c, 10, 53, 58
10, 4776, Note_off_c, 10, 53, 64
10, 4800, Note_on_c, 10, 53, 58
10, 4896, Note_off_c, 10, 53, 64
10, 4920, Note_on_c, 10, 53, 58
10, 5016, Note_off_c, 10, 53, 64
10, 5040, Note_on_c, 10, 52, 58
10, 5136, Note_off_c, 10, 52, 64
10, 5160, Note_on_c, 10, 52, 58
10, 5256, Note_off_c, 10, 52, 64
10, 5280, Note_on_c, 10, 52, 58
10, 5376, Note_off_c, 10, 52, 64
10, 5400, Note_on_c, 10, 52, 58
10, 5496, Note_off_c, 10, 52, 64
10, 5520, Note_on_c, 10, 51, 58
10, 5616, Note_off_c, 10, 51, 64
10, 5640, Note_on_c, 10, 51, 58
10, 5736, Note_off_c, 10, 51, 64
10, 5760, Note_on_c, 10, 50, 72
10, 6444, Note_off_c, 10, 50, 64
10, 6480, Note_on_c, 10, 43, 72
10, 7164, Note_off_c, 10, 43, 64
10, 7200, Note_on_c, 10, 48, 72
10, 7884, Note_off_c, 10, 48, 64
10, 8040, Note_on_c, 10, 55, 72
10, 8160, Note_off_c, 10, 55, 64
10, 8160, Note_on_c, 10, 53, 81
10, 8280, Note_off_c, 10, 53, 64
10, 8280, Note_on_c, 10, 48, 81
10, 8400, Note_off_c, 10, 48, 64
10, 8400, Note_on_c, 10, 53, 81
10, 8520, Note_off_c, 10, 53, 64
10, 8520, Note_on_c, 10, 51, 81
10, 8616, Note_off_c, 10, 51, 64
10, 8640, Note_on_c, 10, 49, 81
10, 8760, Note_off_c, 10, 49, 64
10, 8760, Note_on_c, 10, 51, 81
10, 8880, Note_off_c, 10, 51, 64
10, 8880, Note_on_c, 10, 49, 81
10, 9000, Note_off_c, 10, 49, 64
10, 9000, Note_on_c, 10, 44, 81
10, 9120, Note_off_c, 10, 44, 64
10, 9120, Note_on_c, 10, 49, 81
10, 9240, Note_off_c, 10, 49, 64
10, 9240, Note_on_c, 10, 48, 81
10, 9336, Note_off_c, 10, 48, 64
10, 9360, Note_on_c, 10, 47, 81
10, 9552, Note_off_c, 10, 47, 64
10, 9840, Note_on_c, 10, 59, 58
10, 10080, Note_off_c, 10, 59, 64
10, 10080, Note_on_c, 10, 60, 58
10, 10272, Note_off_c, 10, 60, 64
10, 10560, Note_on_c, 10, 55, 58
10, 10788, Note_off_c, 10, 55, 64
10, 10800, Note_on_c, 10, 56, 72
10, 11520, Note_off_c, 10, 56, 64
10, 11520, Note_on_c, 10, 55, 58
10, 11616, Note_off_c, 10, 55, 64
10, 11760, Note_on_c, 10, 59, 58
10, 12000, Note_off_c, 10, 59, 64
10, 12000, Note_on_c, 10, 60, 58
10, 12228, Note_off_c, 10, 60, 64
10, 12240, Note_on_c, 10, 55, 58
10, 12336, Note_off_c, 10, 55, 64
10, 12480, Note_on_c, 10, 47, 58
10, 12720, Note_off_c, 10, 47, 64
10, 12720, Note_on_c, 10, 48, 58
10, 12912, Note_off_c, 10, 48, 64
10, 12960, Note_on_c, 10, 55, 58
10, 13080, Note_off_c, 10, 55, 64
10, 13080, Note_on_c, 10, 54, 98
10, 13200, Note_off_c, 10, 54, 64
10, 13200, Note_on_c, 10, 55, 58
10, 13320, Note_off_c, 10, 55, 64
10, 13320, Note_on_c, 10, 54, 98
10, 13440, Note_off_c, 10, 54, 64
10, 13440, Note_on_c, 10, 55, 58
10, 13560, Note_off_c, 10, 55, 64
10, 13560, Note_on_c, 10, 54, 98
10, 13674, Note_off_c, 10, 54, 64
10, 13680, Note_on_c, 10, 55, 58
10, 13776, Note_off_c, 10, 55, 64
10, 13920, Note_on_c, 10, 43, 116
10, 14148, Note_off_c, 10, 43, 64
10, 14400, Note_on_c, 10, 48, 72
10, 14592, Note_off_c, 10, 48, 64
10, 14640, Note_on_c, 10, 48, 72
10, 14832, Note_off_c, 10, 48, 64
10, 14880, Note_on_c, 10, 48, 72
10, 15072, Note_off_c, 10, 48, 64
10, 15120, Note_on_c, 10, 48, 72
10, 15312, Note_off_c, 10, 48, 64
10, 15360, Note_on_c, 10, 48, 72
10, 15552, Note_off_c, 10, 48, 64
10, 15600, Note_on_c, 10, 48, 72
10, 15792, Note_off_c, 10, 48, 64
10, 15840, Note_on_c, 10, 48, 72
10, 16032, Note_off_c, 10, 48, 64
10, 16080, Note_on_c, 10, 48, 72
10, 16272, Note_off_c, 10, 48, 64
10, 16320, Note_on_c, 10, 48, 72
10, 16704, Note_off_c, 10, 48, 64
10, 17040, Note_on_c, 10, 48, 72
10, 17184, Note_off_c, 10, 48, 64
10, 17280, Note_on_c, 10, 53, 72
10, 17424, Note_off_c, 10, 53, 64
10, 17520, Note_on_c, 10, 48, 72
10, 17664, Note_off_c, 10, 48, 64
10, 18240, Note_on_c, 10, 57, 72
10, 19200, Note_off_c, 10, 57, 64
10, 19200, Note_on_c, 10, 55, 72
10, 20160, Note_off_c, 10, 55, 64
10, 20160, Note_on_c, 10, 53, 72
10, 20352, Note_off_c, 10, 53, 64
10, 20400, Note_on_c, 10, 50, 72
10, 20640, Note_off_c, 10, 50, 64
10, 20640, Note_on_c, 10, 52, 72
10, 20784, Note_off_c, 10, 52, 64
10, 20880, Note_on_c, 10, 47, 72
10, 21024, Note_off_c, 10, 47, 64
10, 21120, Note_on_c, 10, 48, 72
10, 21600, Note_off_c, 10, 48, 64
10, 21600, Note_on_c, 10, 52, 72
10, 21984, Note_off_c, 10, 52, 64
10, 22080, Note_on_c, 10, 53, 72
10, 22848, Note_off_c, 10, 53, 64
10, 23040, Note_on_c, 10, 55, 58
10, 23616, Note_off_c, 10, 55, 64
10, 24000, Note_on_c, 10, 48, 105
10, 24096, Note_off_c, 10, 48, 64
10, 24120, Note_on_c, 10, 48, 105
10, 24216, Note_off_c, 10, 48, 64
10, 24240, Note_on_c, 10, 48, 105
10, 24336, Note_off_c, 10, 48, 64
10, 24360, Note_on_c, 10, 48, 105
10, 24456, Note_off_c, 10, 48, 64
10, 24480, Note_on_c, 10, 48, 105
10, 24576, Note_off_c, 10, 48, 64
10, 24600, Note_on_c, 10, 48, 105
10, 24696, Note_off_c, 10, 48, 64
10, 24720, Note_on_c, 10, 48, 105
10, 24816, Note_off_c, 10, 48, 64
10, 24840, Note_on_c, 10, 48, 105
10, 24936, Note_off_c, 10, 48, 64
10, 24960, Note_on_c, 10, 48, 105
10, 25056, Note_off_c, 10, 48, 64
10, 25080, Note_on_c, 10, 48, 105
10, 25176, Note_off_c, 10, 48, 64
10, 25200, Note_on_c, 10, 48, 105
10, 25296, Note_off_c, 10, 48, 64
10, 25320, Note_on_c, 10, 48, 105
10, 25416, Note_off_c, 10, 48, 64
10, 25440, Note_on_c, 10, 48, 105
10, 25536, Note_off_c, 10, 48, 64
10, 25560, Note_on_c, 10, 48, 105
10, 25656, Note_off_c, 10, 48, 64
10, 25680, Note_on_c, 10, 48, 105
10, 25776, Note_off_c, 10, 48, 64
10, 25800, Note_on_c, 10, 48, 105
10, 25896, Note_off_c, 10, 48, 64
10, 25920, Note_on_c, 10, 48, 105
10, 26304, Note_off_c, 10, 48, 64
10, 26640, Note_on_c, 10, 48, 105
10, 26808, Note_off_c, 10, 48, 64
10, 26880, Note_on_c, 10, 53, 105
10, 27048, Note_off_c, 10, 53, 64
10, 27120, Note_on_c, 10, 48, 105
10, 27288, Note_off_c, 10, 48, 64
10, 27600, Note_on_c, 10, 48, 105
10, 27768, Note_off_c, 10, 48, 64
10, 27840, Note_on_c, 10, 53, 105
10, 28008, Note_off_c, 10, 53, 64
10, 28080, Note_on_c, 10, 48, 105
10, 28248, Note_off_c, 10, 48, 64
10, 28560, Note_on_c, 10, 48, 105
10, 28728, Note_off_c, 10, 48, 64
10, 28800, Note_on_c, 10, 53, 105
10, 28968, Note_off_c, 10, 53, 64
10, 29040, Note_on_c, 10, 48, 105
10, 29208, Note_off_c, 10, 48, 64
10, 29280, Note_on_c, 10, 53, 105
10, 29448, Note_off_c, 10, 53, 64
10, 29520, Note_on_c, 10, 48, 105
10, 29688, Note_off_c, 10, 48, 64
10, 29760, Note_on_c, 10, 53, 105
10, 29928, Note_off_c, 10, 53, 64
10, 30000, Note_on_c, 10, 48, 105
10, 30168, Note_off_c, 10, 48, 64
10, 30720, Note_on_c, 10, 57, 58
10, 31680, Note_off_c, 10, 57, 64
10, 31680, Note_on_c, 10, 55, 58
10, 32160, Note_off_c, 10, 55, 64
10, 32160, Note_on_c, 10, 48, 58
10, 32640, Note_off_c, 10, 48, 64
10, 32640, Note_on_c, 10, 53, 58
10, 32832, Note_off_c, 10, 53, 64
10, 34560, Note_on_c, 10, 55, 72
10, 34752, Note_off_c, 10, 55, 64
10, 34800, Note_on_c, 10, 55, 72
10, 34992, Note_off_c, 10, 55, 64
10, 35040, Note_on_c, 10, 55, 72
10, 35232, Note_off_c, 10, 55, 64
10, 35280, Note_on_c, 10, 55, 72
10, 35472, Note_off_c, 10, 55, 64
10, 35520, Note_on_c, 10, 48, 105
10, 35604, Note_off_c, 10, 48, 64
10, 35640, Note_on_c, 10, 52, 105
10, 35724, Note_off_c, 10, 52, 64
10, 35760, Note_on_c, 10, 55, 105
10, 35844, Note_off_c, 10, 55, 64
10, 35880, Note_on_c, 10, 60, 105
10, 35964, Note_off_c, 10, 60, 64
10, 36000, Note_on_c, 10, 64, 105
10, 36084, Note_off_c, 10, 64, 64
10, 36120, Note_on_c, 10, 62, 105
10, 36204, Note_off_c, 10, 62, 64
10, 36240, Note_on_c, 10, 64, 105
10, 36324, Note_off_c, 10, 64, 64
10, 36360, Note_on_c, 10, 60, 105
10, 36444, Note_off_c, 10, 60, 64
10, 36480, Note_on_c, 10, 59, 105
10, 36564, Note_off_c, 10, 59, 64
10, 36600, Note_on_c, 10, 60, 105
10, 36684, Note_off_c, 10, 60, 64
10, 36720, Note_on_c, 10, 62, 105
10, 36804, Note_off_c, 10, 62, 64
10, 36840, Note_on_c, 10, 60, 105
10, 36924, Note_off_c, 10, 60, 64
10, 36960, Note_on_c, 10, 59, 105
10, 37044, Note_off_c, 10, 59, 64
10, 37080, Note_on_c, 10, 57, 105
10, 37164, Note_off_c, 10, 57, 64
10, 37200, Note_on_c, 10, 55, 105
10, 37284, Note_off_c, 10, 55, 64
10, 37320, Note_on_c, 10, 53, 105
10, 37404, Note_off_c, 10, 53, 64
10, 37440, Note_on_c, 10, 52, 105
10, 37524, Note_off_c, 10, 52, 64
10, 37560, Note_on_c, 10, 53, 105
10, 37644, Note_off_c, 10, 53, 64
10, 37680, Note_on_c, 10, 55, 105
10, 37764, Note_off_c, 10, 55, 64
10, 37800, Note_on_c, 10, 52, 105
10, 37884, Note_off_c, 10, 52, 64
10, 37920, Note_on_c, 10, 57, 105
10, 38004, Note_off_c, 10, 57, 64
10, 38040, Note_on_c, 10, 59, 105
10, 38124, Note_off_c, 10, 59, 64
10, 38160, Note_on_c, 10, 60, 105
10, 38244, Note_off_c, 10, 60, 64
10, 38280, Note_on_c, 10, 57, 105
10, 38364, Note_off_c, 10, 57, 64
10, 38400, Note_on_c, 10, 53, 105
10, 38484, Note_off_c, 10, 53, 64
10, 38520, Note_on_c, 10, 50, 105
10, 38604, Note_off_c, 10, 50, 64
10, 38640, Note_on_c, 10, 52, 105
10, 38724, Note_off_c, 10, 52, 64
10, 38760, Note_on_c, 10, 53, 105
10, 38844, Note_off_c, 10, 53, 64
10, 38880, Note_on_c, 10, 55, 105
10, 38964, Note_off_c, 10, 55, 64
10, 39000, Note_on_c, 10, 53, 105
10, 39084, Note_off_c, 10, 53, 64
10, 39120, Note_on_c, 10, 55, 105
10, 39204, Note_off_c, 10, 55, 64
10, 39240, Note_on_c, 10, 43, 105
10, 39324, Note_off_c, 10, 43, 64
10, 39360, Note_on_c, 10, 48, 105
10, 39444, Note_off_c, 10, 48, 64
10, 39480, Note_on_c, 10, 52, 105
10, 39564, Note_off_c, 10, 52, 64
10, 39600, Note_on_c, 10, 55, 105
10, 39684, Note_off_c, 10, 55, 64
10, 39720, Note_on_c, 10, 60, 105
10, 39804, Note_off_c, 10, 60, 64
10, 39840, Note_on_c, 10, 64, 105
10, 39924, Note_off_c, 10, 64, 64
10, 39960, Note_on_c, 10, 62, 105
10, 40044, Note_off_c, 10, 62, 64
10, 40080, Note_on_c, 10, 64, 105
10, 40164, Note_off_c, 10, 64, 64
10, 40200, Note_on_c, 10, 60, 105
10, 40284, Note_off_c, 10, 60, 64
10, 40320, Note_on_c, 10, 59, 105
10, 40404, Note_off_c, 10, 59, 64
10, 40440, Note_on_c, 10, 60, 105
10, 40524, Note_off_c, 10, 60, 64
10, 40560, Note_on_c, 10, 62, 105
10, 40644, Note_off_c, 10, 62, 64
10, 40680, Note_on_c, 10, 60, 105
10, 40764, Note_off_c, 10, 60, 64
10, 40800, Note_on_c, 10, 59, 105
10, 40884, Note_off_c, 10, 59, 64
10, 40920, Note_on_c, 10, 57, 105
10, 41004, Note_off_c, 10, 57, 64
10, 41040, Note_on_c, 10, 55, 105
10, 41124, Note_off_c, 10, 55, 64
10, 41160, Note_on_c, 10, 53, 105
10, 41244, Note_off_c, 10, 53, 64
10, 41280, Note_on_c, 10, 52, 105
10, 41364, Note_off_c, 10, 52, 64
10, 41400, Note_on_c, 10, 53, 105
10, 41484, Note_off_c, 10, 53, 64
10, 41520, Note_on_c, 10, 55, 105
10, 41604, Note_off_c, 10, 55, 64
10, 41640, Note_on_c, 10, 52, 105
10, 41724, Note_off_c, 10, 52, 64
10, 41760, Note_on_c, 10, 57, 105
10, 41844, Note_off_c, 10, 57, 64
10, 41880, Note_on_c, 10, 59, 105
10, 41964, Note_off_c, 10, 59, 64
10, 42000, Note_on_c, 10, 60, 105
10, 42084, Note_off_c, 10, 60, 64
10, 42120, Note_on_c, 10, 57, 105
10, 42204, Note_off_c, 10, 57, 64
10, 42240, Note_on_c, 10, 54, 105
10, 42324, Note_off_c, 10, 54, 64
10, 42360, Note_on_c, 10, 55, 105
10, 42444, Note_off_c, 10, 55, 64
10, 42480, Note_on_c, 10, 57, 105
10, 42564, Note_off_c, 10, 57, 64
10, 42600, Note_on_c, 10, 55, 105
10, 42684, Note_off_c, 10, 55, 64
10, 42720, Note_on_c, 10, 54, 105
10, 42804, Note_off_c, 10, 54, 64
10, 42840, Note_on_c, 10, 50, 105
10, 42924, Note_off_c, 10, 50, 64
10, 42960, Note_on_c, 10, 52, 105
10, 43044, Note_off_c, 10, 52, 64
10, 43080, Note_on_c, 10, 54, 105
10, 43164, Note_off_c, 10, 54, 64
10, 43200, Note_on_c, 10, 55, 105
10, 43284, Note_off_c, 10, 55, 64
10, 43320, Note_on_c, 10, 57, 105
10, 43404, Note_off_c, 10, 57, 64
10, 43440, Note_on_c, 10, 59, 105
10, 43524, Note_off_c, 10, 59, 64
10, 43560, Note_on_c, 10, 57, 105
10, 43644, Note_off_c, 10, 57, 64
10, 43680, Note_on_c, 10, 56, 105
10, 43764, Note_off_c, 10, 56, 64
10, 43800, Note_on_c, 10, 57, 105
10, 43884, Note_off_c, 10, 57, 64
10, 43920, Note_on_c, 10, 54, 105
10, 44004, Note_off_c, 10, 54, 64
10, 44040, Note_on_c, 10, 56, 105
10, 44124, Note_off_c, 10, 56, 64
10, 44160, Note_on_c, 10, 57, 105
10, 44244, Note_off_c, 10, 57, 64
10, 44280, Note_on_c, 10, 59, 105
10, 44364, Note_off_c, 10, 59, 64
10, 44400, Note_on_c, 10, 60, 105
10, 44484, Note_off_c, 10, 60, 64
10, 44520, Note_on_c, 10, 59, 105
10, 44604, Note_off_c, 10, 59, 64
10, 44640, Note_on_c, 10, 57, 105
10, 44724, Note_off_c, 10, 57, 64
10, 44760, Note_on_c, 10, 59, 105
10, 44844, Note_off_c, 10, 59, 64
10, 44880, Note_on_c, 10, 55, 105
10, 44964, Note_off_c, 10, 55, 64
10, 45000, Note_on_c, 10, 57, 105
10, 45084, Note_off_c, 10, 57, 64
10, 45120, Note_on_c, 10, 54, 105
10, 45204, Note_off_c, 10, 54, 64
10, 45240, Note_on_c, 10, 55, 105
10, 45324, Note_off_c, 10, 55, 64
10, 45360, Note_on_c, 10, 57, 105
10, 45444, Note_off_c, 10, 57, 64
10, 45480, Note_on_c, 10, 55, 105
10, 45564, Note_off_c, 10, 55, 64
10, 45600, Note_on_c, 10, 54, 105
10, 45684, Note_off_c, 10, 54, 64
10, 45720, Note_on_c, 10, 50, 105
10, 45804, Note_off_c, 10, 50, 64
10, 45840, Note_on_c, 10, 52, 105
10, 45924, Note_off_c, 10, 52, 64
10, 45960, Note_on_c, 10, 54, 105
10, 46044, Note_off_c, 10, 54, 64
10, 46080, Note_on_c, 10, 55, 105
10, 46164, Note_off_c, 10, 55, 64
10, 46200, Note_on_c, 10, 59, 105
10, 46284, Note_off_c, 10, 59, 64
10, 46320, Note_on_c, 10, 62, 105
10, 46404, Note_off_c, 10, 62, 64
10, 46440, Note_on_c, 10, 62, 105
10, 46524, Note_off_c, 10, 62, 64
10, 46560, Note_on_c, 10, 62, 105
10, 46644, Note_off_c, 10, 62, 64
10, 46680, Note_on_c, 10, 62, 105
10, 46764, Note_off_c, 10, 62, 64
10, 46800, Note_on_c, 10, 59, 105
10, 46884, Note_off_c, 10, 59, 64
10, 46920, Note_on_c, 10, 55, 105
10, 47004, Note_off_c, 10, 55, 64
10, 47040, Note_on_c, 10, 60, 105
10, 47124, Note_off_c, 10, 60, 64
10, 47160, Note_on_c, 10, 57, 105
10, 47244, Note_off_c, 10, 57, 64
10, 47280, Note_on_c, 10, 59, 105
10, 47364, Note_off_c, 10, 59, 64
10, 47400, Note_on_c, 10, 55, 105
10, 47484, Note_off_c, 10, 55, 64
10, 47520, Note_on_c, 10, 54, 105
10, 47604, Note_off_c, 10, 54, 64
10, 47640, Note_on_c, 10, 57, 105
10, 47724, Note_off_c, 10, 57, 64
10, 47760, Note_on_c, 10, 54, 105
10, 47844, Note_off_c, 10, 54, 64
10, 47880, Note_on_c, 10, 50, 105
10, 47964, Note_off_c, 10, 50, 64
10, 48000, Note_on_c, 10, 55, 105
10, 48084, Note_off_c, 10, 55, 64
10, 48120, Note_on_c, 10, 59, 105
10, 48204, Note_off_c, 10, 59, 64
10, 48240, Note_on_c, 10, 62, 105
10, 48324, Note_off_c, 10, 62, 64
10, 48360, Note_on_c, 10, 62, 105
10, 48444, Note_off_c, 10, 62, 64
10, 48480, Note_on_c, 10, 62, 105
10, 48564, Note_off_c, 10, 62, 64
10, 48600, Note_on_c, 10, 62, 105
10, 48684, Note_off_c, 10, 62, 64
10, 48720, Note_on_c, 10, 59, 105
10, 48804, Note_off_c, 10, 59, 64
10, 48840, Note_on_c, 10, 55, 105
10, 48924, Note_off_c, 10, 55, 64
10, 48960, Note_on_c, 10, 60, 105
10, 49044, Note_off_c, 10, 60, 64
10, 49080, Note_on_c, 10, 57, 105
10, 49164, Note_off_c, 10, 57, 64
10, 49200, Note_on_c, 10, 59, 105
10, 49284, Note_off_c, 10, 59, 64
10, 49320, Note_on_c, 10, 55, 105
10, 49404, Note_off_c, 10, 55, 64
10, 49440, Note_on_c, 10, 54, 105
10, 49524, Note_off_c, 10, 54, 64
10, 49560, Note_on_c, 10, 57, 105
10, 49644, Note_off_c, 10, 57, 64
10, 49680, Note_on_c, 10, 54, 105
10, 49764, Note_off_c, 10, 54, 64
10, 49800, Note_on_c, 10, 50, 105
10, 49884, Note_off_c, 10, 50, 64
10, 49920, Note_on_c, 10, 55, 105
10, 50004, Note_off_c, 10, 55, 64
10, 50040, Note_on_c, 10, 57, 105
10, 50124, Note_off_c, 10, 57, 64
10, 50160, Note_on_c, 10, 54, 105
10, 50244, Note_off_c, 10, 54, 64
10, 50280, Note_on_c, 10, 55, 105
10, 50364, Note_off_c, 10, 55, 64
10, 50400, Note_on_c, 10, 52, 105
10, 50484, Note_off_c, 10, 52, 64
10, 50520, Note_on_c, 10, 53, 105
10, 50604, Note_off_c, 10, 53, 64
10, 50640, Note_on_c, 10, 50, 105
10, 50724, Note_off_c, 10, 50, 64
10, 50760, Note_on_c, 10, 52, 105
10, 50844, Note_off_c, 10, 52, 64
10, 50880, Note_on_c, 10, 48, 110
10, 50964, Note_off_c, 10, 48, 64
10, 51000, Note_on_c, 10, 60, 72
10, 51084, Note_off_c, 10, 60, 64
10, 51120, Note_on_c, 10, 60, 72
10, 51204, Note_off_c, 10, 60, 64
10, 51240, Note_on_c, 10, 60, 72
10, 51324, Note_off_c, 10, 60, 64
10, 51360, Note_on_c, 10, 50, 72
10, 51444, Note_off_c, 10, 50, 64
10, 51480, Note_on_c, 10, 62, 72
10, 51564, Note_off_c, 10, 62, 64
10, 51600, Note_on_c, 10, 62, 72
10, 51684, Note_off_c, 10, 62, 64
10, 51720, Note_on_c, 10, 62, 72
10, 51804, Note_off_c, 10, 62, 64
10, 51840, Note_on_c, 10, 48, 110
10, 51924, Note_off_c, 10, 48, 64
10, 51960, Note_on_c, 10, 60, 72
10, 52044, Note_off_c, 10, 60, 64
10, 52080, Note_on_c, 10, 60, 72
10, 52164, Note_off_c, 10, 60, 64
10, 52200, Note_on_c, 10, 60, 72
10, 52284, Note_off_c, 10, 60, 64
10, 52320, Note_on_c, 10, 50, 72
10, 52404, Note_off_c, 10, 50, 64
10, 52440, Note_on_c, 10, 62, 72
10, 52524, Note_off_c, 10, 62, 64
10, 52560, Note_on_c, 10, 62, 72
10, 52644, Note_off_c, 10, 62, 64
10, 52680, Note_on_c, 10, 62, 72
10, 52764, Note_off_c, 10, 62, 64
10, 52800, Note_on_c, 10, 60, 105
10, 52872, Note_off_c, 10, 60, 64
10, 52920, Note_on_c, 10, 59, 105
10, 52992, Note_off_c, 10, 59, 64
10, 53040, Note_on_c, 10, 60, 105
10, 53112, Note_off_c, 10, 60, 64
10, 53160, Note_on_c, 10, 59, 105
10, 53232, Note_off_c, 10, 59, 64
10, 53280, Note_on_c, 10, 60, 105
10, 53352, Note_off_c, 10, 60, 64
10, 53400, Note_on_c, 10, 59, 105
10, 53472, Note_off_c, 10, 59, 64
10, 53520, Note_on_c, 10, 60, 105
10, 53592, Note_off_c, 10, 60, 64
10, 53640, Note_on_c, 10, 56, 105
10, 53712, Note_off_c, 10, 56, 64
10, 53760, Note_on_c, 10, 57, 105
10, 53832, Note_off_c, 10, 57, 64
10, 53880, Note_on_c, 10, 56, 105
10, 53952, Note_off_c, 10, 56, 64
10, 54000, Note_on_c, 10, 57, 105
10, 54072, Note_off_c, 10, 57, 64
10, 54120, Note_on_c, 10, 56, 105
10, 54192, Note_off_c, 10, 56, 64
10, 54240, Note_on_c, 10, 57, 105
10, 54312, Note_off_c, 10, 57, 64
10, 54360, Note_on_c, 10, 56, 105
10, 54432, Note_off_c, 10, 56, 64
10, 54480, Note_on_c, 10, 57, 105
10, 54552, Note_off_c, 10, 57, 64
10, 54600, Note_on_c, 10, 59, 105
10, 54672, Note_off_c, 10, 59, 64
10, 54720, Note_on_c, 10, 60, 105
10, 54912, Note_off_c, 10, 60, 64
10, 56640, Note_on_c, 10, 49, 58
10, 57600, Note_off_c, 10, 49, 64
10, 57600, Note_on_c, 10, 52, 58
10, 58368, Note_off_c, 10, 52, 64
10, 58560, Note_on_c, 10, 50, 72
10, 58752, Note_off_c, 10, 50, 64
10, 59040, Note_on_c, 10, 55, 72
10, 59232, Note_off_c, 10, 55, 64
10, 59520, Note_on_c, 10, 50, 72
10, 59712, Note_off_c, 10, 50, 64
10, 60000, Note_on_c, 10, 43, 72
10, 60192, Note_off_c, 10, 43, 64
10, 60480, Note_on_c, 10, 48, 58
10, 60864, Note_off_c, 10, 48, 64
10, 60960, Note_on_c, 10, 47, 58
10, 61344, Note_off_c, 10, 47, 64
10, 61440, Note_on_c, 10, 48, 58
10, 61824, Note_off_c, 10, 48, 64
10, 61920, Note_on_c, 10, 47, 58
10, 62112, Note_off_c, 10, 47, 64
10, 62400, Note_on_c, 10, 48, 58
10, 62592, Note_off_c, 10, 48, 64
10, 62880, Note_on_c, 10, 50, 58
10, 63072, Note_off_c, 10, 50, 64
10, 63360, Note_on_c, 10, 43, 58
10, 63552, Note_off_c, 10, 43, 64
10, 63840, Note_on_c, 10, 52, 105
10, 63984, Note_off_c, 10, 52, 64
10, 64080, Note_on_c, 10, 52, 105
10, 64224, Note_off_c, 10, 52, 64
10, 64320, Note_on_c, 10, 52, 105
10, 64404, Note_off_c, 10, 52, 64
10, 64440, Note_on_c, 10, 54, 105
10, 64524, Note_off_c, 10, 54, 64
10, 64560, Note_on_c, 10, 55, 105
10, 64644, Note_off_c, 10, 55, 64
10, 64680, Note_on_c, 10, 52, 105
10, 64764, Note_off_c, 10, 52, 64
10, 64800, Note_on_c, 10, 51, 105
10, 64884, Note_off_c, 10, 51, 64
10, 64920, Note_on_c, 10, 47, 105
10, 65004, Note_off_c, 10, 47, 64
10, 65040, Note_on_c, 10, 49, 105
10, 65124, Note_off_c, 10, 49, 64
10, 65160, Note_on_c, 10, 51, 105
10, 65244, Note_off_c, 10, 51, 64
10, 65280, Note_on_c, 10, 52, 105
10, 65364, Note_off_c, 10, 52, 64
10, 65400, Note_on_c, 10, 54, 105
10, 65484, Note_off_c, 10, 54, 64
10, 65520, Note_on_c, 10, 55, 105
10, 65604, Note_off_c, 10, 55, 64
10, 65640, Note_on_c, 10, 52, 105
10, 65724, Note_off_c, 10, 52, 64
10, 65760, Note_on_c, 10, 51, 105
10, 65844, Note_off_c, 10, 51, 64
10, 65880, Note_on_c, 10, 47, 105
10, 65964, Note_off_c, 10, 47, 64
10, 66000, Note_on_c, 10, 49, 105
10, 66084, Note_off_c, 10, 49, 64
10, 66120, Note_on_c, 10, 51, 105
10, 66204, Note_off_c, 10, 51, 64
10, 66240, Note_on_c, 10, 52, 105
10, 66324, Note_off_c, 10, 52, 64
10, 66360, Note_on_c, 10, 54, 105
10, 66444, Note_off_c, 10, 54, 64
10, 66480, Note_on_c, 10, 55, 105
10, 66564, Note_off_c, 10, 55, 64
10, 66600, Note_on_c, 10, 52, 105
10, 66684, Note_off_c, 10, 52, 64
10, 66720, Note_on_c, 10, 51, 105
10, 66804, Note_off_c, 10, 51, 64
10, 66840, Note_on_c, 10, 47, 105
10, 66924, Note_off_c, 10, 47, 64
10, 66960, Note_on_c, 10, 49, 105
10, 67044, Note_off_c, 10, 49, 64
10, 67080, Note_on_c, 10, 51, 105
10, 67164, Note_off_c, 10, 51, 64
10, 67200, Note_on_c, 10, 52, 105
10, 67392, Note_off_c, 10, 52, 64
10, 69600, Note_on_c, 10, 60, 72
10, 69792, Note_off_c, 10, 60, 64
10, 70080, Note_on_c, 10, 62, 72
10, 70272, Note_off_c, 10, 62, 64
10, 70560, Note_on_c, 10, 50, 72
10, 70752, Note_off_c, 10, 50, 64
10, 71040, Note_on_c, 10, 55, 58
10, 71232, Note_off_c, 10, 55, 64
10, 72240, Note_on_c, 10, 52, 58
10, 72480, Note_off_c, 10, 52, 64
10, 72480, Note_on_c, 10, 51, 58
10, 72720, Note_off_c, 10, 51, 64
10, 72720, Note_on_c, 10, 47, 58
10, 72912, Note_off_c, 10, 47, 64
10, 73200, Note_on_c, 10, 52, 58
10, 73440, Note_off_c, 10, 52, 64
10, 73440, Note_on_c, 10, 51, 58
10, 73680, Note_off_c, 10, 51, 64
10, 73680, Note_on_c, 10, 47, 58
10, 73872, Note_off_c, 10, 47, 64
10, 74160, Note_on_c, 10, 52, 58
10, 74400, Note_off_c, 10, 52, 64
10, 74400, Note_on_c, 10, 51, 58
10, 74640, Note_off_c, 10, 51, 64
10, 74640, Note_on_c, 10, 47, 58
10, 74832, Note_off_c, 10, 47, 64
10, 74880, Note_on_c, 10, 52, 58
10, 75072, Note_off_c, 10, 52, 64
10, 75360, Note_on_c, 10, 48, 105
10, 75504, Note_off_c, 10, 48, 64
10, 75600, Note_on_c, 10, 48, 105
10, 75744, Note_off_c, 10, 48, 64
10, 75840, Note_on_c, 10, 48, 105
10, 75924, Note_off_c, 10, 48, 64
10, 75960, Note_on_c, 10, 52, 105
10, 76044, Note_off_c, 10, 52, 64
10, 76080, Note_on_c, 10, 55, 105
10, 76164, Note_off_c, 10, 55, 64
10, 76200, Note_on_c, 10, 60, 105
10, 76284, Note_off_c, 10, 60, 64
10, 76320, Note_on_c, 10, 59, 105
10, 76404, Note_off_c, 10, 59, 64
10, 76440, Note_on_c, 10, 55, 105
10, 76524, Note_off_c, 10, 55, 64
10, 76560, Note_on_c, 10, 57, 105
10, 76644, Note_off_c, 10, 57, 64
10, 76680, Note_on_c, 10, 59, 105
10, 76764, Note_off_c, 10, 59, 64
10, 76800, Note_on_c, 10, 60, 105
10, 76884, Note_off_c, 10, 60, 64
10, 76920, Note_on_c, 10, 60, 105
10, 77004, Note_off_c, 10, 60, 64
10, 77040, Note_on_c, 10, 60, 105
10, 77124, Note_off_c, 10, 60, 64
10, 77160, Note_on_c, 10, 60, 105
10, 77244, Note_off_c, 10, 60, 64
10, 77280, Note_on_c, 10, 60, 105
10, 77364, Note_off_c, 10, 60, 64
10, 77400, Note_on_c, 10, 60, 105
10, 77484, Note_off_c, 10, 60, 64
10, 77520, Note_on_c, 10, 60, 105
10, 77604, Note_off_c, 10, 60, 64
10, 77640, Note_on_c, 10, 60, 105
10, 77724, Note_off_c, 10, 60, 64
10, 77760, Note_on_c, 10, 62, 105
10, 77844, Note_off_c, 10, 62, 64
10, 77880, Note_on_c, 10, 62, 105
10, 77964, Note_off_c, 10, 62, 64
10, 78000, Note_on_c, 10, 62, 105
10, 78084, Note_off_c, 10, 62, 64
10, 78120, Note_on_c, 10, 62, 105
10, 78204, Note_off_c, 10, 62, 64
10, 78240, Note_on_c, 10, 50, 105
10, 78324, Note_off_c, 10, 50, 64
10, 78360, Note_on_c, 10, 50, 105
10, 78444, Note_off_c, 10, 50, 64
10, 78480, Note_on_c, 10, 50, 105
10, 78564, Note_off_c, 10, 50, 64
10, 78600, Note_on_c, 10, 50, 105
10, 78684, Note_off_c, 10, 50, 64
10, 78720, Note_on_c, 10, 55, 105
10, 78804, Note_off_c, 10, 55, 64
10, 78840, Note_on_c, 10, 43, 105
10, 78924, Note_off_c, 10, 43, 64
10, 78960, Note_on_c, 10, 45, 105
10, 79044, Note_off_c, 10, 45, 64
10, 79080, Note_on_c, 10, 47, 105
10, 79164, Note_off_c, 10, 47, 64
10, 79200, Note_on_c, 10, 48, 105
10, 79284, Note_off_c, 10, 48, 64
10, 79320, Note_on_c, 10, 52, 105
10, 79404, Note_off_c, 10, 52, 64
10, 79440, Note_on_c, 10, 50, 105
10, 79524, Note_off_c, 10, 50, 64
10, 79560, Note_on_c, 10, 54, 105
10, 79644, Note_off_c, 10, 54, 64
10, 79680, Note_on_c, 10, 52, 105
10, 79764, Note_off_c, 10, 52, 64
10, 79800, Note_on_c, 10, 55, 105
10, 79884, Note_off_c, 10, 55, 64
10, 79920, Note_on_c, 10, 54, 105
10, 80004, Note_off_c, 10, 54, 64
10, 80040, Note_on_c, 10, 57, 105
10, 80124, Note_off_c, 10, 57, 64
10, 80160, Note_on_c, 10, 55, 105
10, 80244, Note_off_c, 10, 55, 64
10, 80280, Note_on_c, 10, 59, 105
10, 80364, Note_off_c, 10, 59, 64
10, 80400, Note_on_c, 10, 57, 105
10, 80484, Note_off_c, 10, 57, 64
10, 80520, Note_on_c, 10, 60, 105
10, 80604, Note_off_c, 10, 60, 64
10, 80640, Note_on_c, 10, 59, 105
10, 80724, Note_off_c, 10, 59, 64
10, 80760, Note_on_c, 10, 62, 105
10, 80844, Note_off_c, 10, 62, 64
10, 80880, Note_on_c, 10, 59, 105
10, 80964, Note_off_c, 10, 59, 64
10, 81000, Note_on_c, 10, 55, 105
10, 81084, Note_off_c, 10, 55, 64
10, 81120, Note_on_c, 10, 60, 105
10, 81204, Note_off_c, 10, 60, 64
10, 81240, Note_on_c, 10, 57, 105
10, 81324, Note_off_c, 10, 57, 64
10, 81360, Note_on_c, 10, 54, 105
10, 81444, Note_off_c, 10, 54, 64
10, 81480, Note_on_c, 10, 50, 105
10, 81564, Note_off_c, 10, 50, 64
10, 81600, Note_on_c, 10, 55, 105
10, 81684, Note_off_c, 10, 55, 64
10, 81720, Note_on_c, 10, 55, 105
10, 81804, Note_off_c, 10, 55, 64
10, 81840, Note_on_c, 10, 52, 105
10, 81924, Note_off_c, 10, 52, 64
10, 81960, Note_on_c, 10, 52, 105
10, 82044, Note_off_c, 10, 52, 64
10, 82080, Note_on_c, 10, 48, 105
10, 82164, Note_off_c, 10, 48, 64
10, 82200, Note_on_c, 10, 48, 105
10, 82284, Note_off_c, 10, 48, 64
10, 82320, Note_on_c, 10, 50, 105
10, 82404, Note_off_c, 10, 50, 64
10, 82440, Note_on_c, 10, 50, 105
10, 82524, Note_off_c, 10, 50, 64
10, 82560, Note_on_c, 10, 43, 105
10, 82644, Note_off_c, 10, 43, 64
10, 82680, Note_on_c, 10, 55, 105
10, 82764, Note_off_c, 10, 55, 64
10, 82800, Note_on_c, 10, 57, 105
10, 82884, Note_off_c, 10, 57, 64
10, 82920, Note_on_c, 10, 59, 105
10, 83004, Note_off_c, 10, 59, 64
10, 83040, Note_on_c, 10, 60, 105
10, 83124, Note_off_c, 10, 60, 64
10, 83160, Note_on_c, 10, 57, 105
10, 83244, Note_off_c, 10, 57, 64
10, 83280, Note_on_c, 10, 62, 105
10, 83364, Note_off_c, 10, 62, 64
10, 83400, Note_on_c, 10, 60, 105
10, 83484, Note_off_c, 10, 60, 64
10, 83520, Note_on_c, 10, 59, 105
10, 83604, Note_off_c, 10, 59, 64
10, 83640, Note_on_c, 10, 55, 105
10, 83724, Note_off_c, 10, 55, 64
10, 83760, Note_on_c, 10, 54, 105
10, 83844, Note_off_c, 10, 54, 64
10, 83880, Note_on_c, 10, 50, 105
10, 83964, Note_off_c, 10, 50, 64
10, 84000, Note_on_c, 10, 55, 105
10, 84084, Note_off_c, 10, 55, 64
10, 84120, Note_on_c, 10, 50, 105
10, 84204, Note_off_c, 10, 50, 64
10, 84240, Note_on_c, 10, 57, 105
10, 84324, Note_off_c, 10, 57, 64
10, 84360, Note_on_c, 10, 50, 105
10, 84444, Note_off_c, 10, 50, 64
10, 84480, Note_on_c, 10, 59, 105
10, 84564, Note_off_c, 10, 59, 64
10, 84600, Note_on_c, 10, 57, 105
10, 84684, Note_off_c, 10, 57, 64
10, 84720, Note_on_c, 10, 56, 105
10, 84804, Note_off_c, 10, 56, 64
10, 84840, Note_on_c, 10, 52, 105
10, 84924, Note_off_c, 10, 52, 64
10, 84960, Note_on_c, 10, 57, 105
10, 85044, Note_off_c, 10, 57, 64
10, 85080, Note_on_c, 10, 55, 105
10, 85164, Note_off_c, 10, 55, 64
10, 85200, Note_on_c, 10, 54, 105
10, 85284, Note_off_c, 10, 54, 64
10, 85320, Note_on_c, 10, 50, 105
10, 85404, Note_off_c, 10, 50, 64
10, 85440, Note_on_c, 10, 55, 105
10, 85524, Note_off_c, 10, 55, 64
10, 85560, Note_on_c, 10, 55, 105
10, 85644, Note_off_c, 10, 55, 64
10, 85680, Note_on_c, 10, 59, 105
10, 85764, Note_off_c, 10, 59, 64
10, 85800, Note_on_c, 10, 59, 105
10, 85884, Note_off_c, 10, 59, 64
10, 85920, Note_on_c, 10, 60, 105
10, 86004, Note_off_c, 10, 60, 64
10, 86040, Note_on_c, 10, 60, 105
10, 86124, Note_off_c, 10, 60, 64
10, 86160, Note_on_c, 10, 62, 105
10, 86244, Note_off_c, 10, 62, 64
10, 86280, Note_on_c, 10, 62, 105
10, 86364, Note_off_c, 10, 62, 64
10, 86400, Note_on_c, 10, 55, 105
10, 86484, Note_off_c, 10, 55, 64
10, 86520, Note_on_c, 10, 55, 105
10, 86604, Note_off_c, 10, 55, 64
10, 86640, Note_on_c, 10, 55, 105
10, 86724, Note_off_c, 10, 55, 64
10, 86760, Note_on_c, 10, 55, 105
10, 86844, Note_off_c, 10, 55, 64
10, 86880, Note_on_c, 10, 55, 105
10, 87072, Note_off_c, 10, 55, 64
10, 87360, Note_on_c, 10, 52, 105
10, 87444, Note_off_c, 10, 52, 64
10, 87480, Note_on_c, 10, 52, 105
10, 87564, Note_off_c, 10, 52, 64
10, 87600, Note_on_c, 10, 52, 105
10, 87684, Note_off_c, 10, 52, 64
10, 87720, Note_on_c, 10, 52, 105
10, 87804, Note_off_c, 10, 52, 64
10, 87840, Note_on_c, 10, 52, 105
10, 88032, Note_off_c, 10, 52, 64
10, 88320, Note_on_c, 10, 47, 105
10, 88404, Note_off_c, 10, 47, 64
10, 88440, Note_on_c, 10, 47, 105
10, 88524, Note_off_c, 10, 47, 64
10, 88560, Note_on_c, 10, 47, 105
10, 88644, Note_off_c, 10, 47, 64
10, 88680, Note_on_c, 10, 47, 105
10, 88764, Note_off_c, 10, 47, 64
10, 88800, Note_on_c, 10, 47, 105
10, 88992, Note_off_c, 10, 47, 64
10, 89280, Note_on_c, 10, 48, 105
10, 89364, Note_off_c, 10, 48, 64
10, 89400, Note_on_c, 10, 48, 105
10, 89484, Note_off_c, 10, 48, 64
10, 89520, Note_on_c, 10, 48, 105
10, 89604, Note_off_c, 10, 48, 64
10, 89640, Note_on_c, 10, 48, 105
10, 89724, Note_off_c, 10, 48, 64
10, 89760, Note_on_c, 10, 45, 105
10, 89844, Note_off_c, 10, 45, 64
10, 89880, Note_on_c, 10, 45, 105
10, 89964, Note_off_c, 10, 45, 64
10, 90000, Note_on_c, 10, 45, 105
10, 90084, Note_off_c, 10, 45, 64
10, 90120, Note_on_c, 10, 45, 105
10, 90204, Note_off_c, 10, 45, 64
10, 90240, Note_on_c, 10, 42, 105
10, 90384, Note_off_c, 10, 42, 64
10, 90480, Note_on_c, 10, 54, 105
10, 90624, Note_off_c, 10, 54, 64
10, 90960, Note_on_c, 10, 55, 105
10, 91128, Note_off_c, 10, 55, 64
10, 91200, Note_on_c, 10, 57, 105
10, 91368, Note_off_c, 10, 57, 64
10, 91440, Note_on_c, 10, 59, 105
10, 91566, Note_off_c, 10, 59, 64
10, 91620, Note_on_c, 10, 60, 105
10, 91662, Note_off_c, 10, 60, 64
10, 91680, Note_on_c, 10, 62, 105
10, 91848, Note_off_c, 10, 62, 64
10, 91920, Note_on_c, 10, 50, 105
10, 92088, Note_off_c, 10, 50, 64
10, 92160, Note_on_c, 10, 55, 105
10, 92244, Note_off_c, 10, 55, 64
10, 92280, Note_on_c, 10, 55, 105
10, 92364, Note_off_c, 10, 55, 64
10, 92400, Note_on_c, 10, 55, 105
10, 92484, Note_off_c, 10, 55, 64
10, 92520, Note_on_c, 10, 55, 105
10, 92604, Note_off_c, 10, 55, 64
10, 92640, Note_on_c, 10, 55, 105
10, 92832, Note_off_c, 10, 55, 64
10, 93120, Note_on_c, 10, 52, 105
10, 93204, Note_off_c, 10, 52, 64
10, 93240, Note_on_c, 10, 52, 105
10, 93324, Note_off_c, 10, 52, 64
10, 93360, Note_on_c, 10, 52, 105
10, 93444, Note_off_c, 10, 52, 64
10, 93480, Note_on_c, 10, 52, 105
10, 93564, Note_off_c, 10, 52, 64
10, 93600, Note_on_c, 10, 52, 105
10, 93792, Note_off_c, 10, 52, 64
10, 94080, Note_on_c, 10, 47, 105
10, 94164, Note_off_c, 10, 47, 64
10, 94200, Note_on_c, 10, 47, 105
10, 94284, Note_off_c, 10, 47, 64
10, 94320, Note_on_c, 10, 47, 105
10, 94404, Note_off_c, 10, 47, 64
10, 94440, Note_on_c, 10, 47, 105
10, 94524, Note_off_c, 10, 47, 64
10, 94560, Note_on_c, 10, 47, 105
10, 94752, Note_off_c, 10, 47, 64
10, 95040, Note_on_c, 10, 48, 105
10, 95124, Note_off_c, 10, 48, 64
10, 95160, Note_on_c, 10, 48, 105
10, 95244, Note_off_c, 10, 48, 64
10, 95280, Note_on_c, 10, 48, 105
10, 95364, Note_off_c, 10, 48, 64
10, 95400, Note_on_c, 10, 48, 105
10, 95484, Note_off_c, 10, 48, 64
10, 95520, Note_on_c, 10, 45, 105
10, 95604, Note_off_c, 10, 45, 64
10, 95640, Note_on_c, 10, 45, 105
10, 95724, Note_off_c, 10, 45, 64
10, 95760, Note_on_c, 10, 45, 105
10, 95844, Note_off_c, 10, 45, 64
10, 95880, Note_on_c, 10, 45, 105
10, 95964, Note_off_c, 10, 45, 64
10, 96000, Note_on_c, 10, 42, 105
10, 96144, Note_off_c, 10, 42, 64
10, 96240, Note_on_c, 10, 54, 105
10, 96384, Note_off_c, 10, 54, 64
10, 98640, Note_on_c, 10, 51, 58
10, 98880, Note_off_c, 10, 51, 64
10, 98880, Note_on_c, 10, 50, 58
10, 99024, Note_off_c, 10, 50, 64
10, 99120, Note_on_c, 10, 60, 30
10, 99264, Note_off_c, 10, 60, 64
10, 99840, Note_on_c, 10, 54, 58
10, 100320, Note_off_c, 10, 54, 64
10, 100320, Note_on_c, 10, 55, 58
10, 100704, Note_off_c, 10, 55, 64
10, 100800, Note_on_c, 10, 48, 58
10, 101280, Note_off_c, 10, 48, 64
10, 101280, Note_on_c, 10, 50, 58
10, 101664, Note_off_c, 10, 50, 64
10, 101760, Note_on_c, 10, 43, 105
10, 101844, Note_off_c, 10, 43, 64
10, 101880, Note_on_c, 10, 47, 105
10, 101940, Note_off_c, 10, 47, 64
10, 101940, Note_on_c, 10, 50, 105
10, 101982, Note_off_c, 10, 50, 64
10, 102000, Note_on_c, 10, 55, 105
10, 102084, Note_off_c, 10, 55, 64
10, 102120, Note_on_c, 10, 55, 105
10, 102204, Note_off_c, 10, 55, 64
10, 102240, Note_on_c, 10, 55, 105
10, 102324, Note_off_c, 10, 55, 64
10, 102360, Note_on_c, 10, 55, 105
10, 102444, Note_off_c, 10, 55, 64
10, 102480, Note_on_c, 10, 55, 105
10, 102564, Note_off_c, 10, 55, 64
10, 102600, Note_on_c, 10, 55, 105
10, 102684, Note_off_c, 10, 55, 64
10, 102720, Note_on_c, 10, 55, 105
10, 102804, Note_off_c, 10, 55, 64
10, 102840, Note_on_c, 10, 55, 105
10, 102924, Note_off_c, 10, 55, 64
10, 102960, Note_on_c, 10, 55, 105
10, 103044, Note_off_c, 10, 55, 64
10, 103080, Note_on_c, 10, 55, 105
10, 103164, Note_off_c, 10, 55, 64
10, 103200, Note_on_c, 10, 55, 105
10, 103284, Note_off_c, 10, 55, 64
10, 103320, Note_on_c, 10, 55, 105
10, 103404, Note_off_c, 10, 55, 64
10, 103440, Note_on_c, 10, 55, 105
10, 103524, Note_off_c, 10, 55, 64
10, 103560, Note_on_c, 10, 55, 105
10, 103644, Note_off_c, 10, 55, 64
10, 103680, Note_on_c, 10, 55, 105
10, 103764, Note_off_c, 10, 55, 64
10, 103800, Note_on_c, 10, 55, 105
10, 103884, Note_off_c, 10, 55, 64
10, 103920, Note_on_c, 10, 64, 105
10, 104004, Note_off_c, 10, 64, 64
10, 104040, Note_on_c, 10, 64, 105
10, 104124, Note_off_c, 10, 64, 64
10, 104160, Note_on_c, 10, 60, 105
10, 104244, Note_off_c, 10, 60, 64
10, 104280, Note_on_c, 10, 60, 105
10, 104364, Note_off_c, 10, 60, 64
10, 104400, Note_on_c, 10, 62, 105
10, 104484, Note_off_c, 10, 62, 64
10, 104520, Note_on_c, 10, 62, 105
10, 104604, Note_off_c, 10, 62, 64
10, 104640, Note_on_c, 10, 55, 105
10, 104724, Note_off_c, 10, 55, 64
10, 104760, Note_on_c, 10, 50, 105
10, 104800, Note_off_c, 10, 50, 64
10, 104800, Note_on_c, 10, 52, 105
10, 104840, Note_off_c, 10, 52, 64
10, 104840, Note_on_c, 10, 54, 105
10, 104880, Note_off_c, 10, 54, 64
10, 104880, Note_on_c, 10, 55, 105
10, 104964, Note_off_c, 10, 55, 64
10, 105000, Note_on_c, 10, 55, 105
10, 105084, Note_off_c, 10, 55, 64
10, 105120, Note_on_c, 10, 55, 105
10, 105204, Note_off_c, 10, 55, 64
10, 105240, Note_on_c, 10, 55, 105
10, 105324, Note_off_c, 10, 55, 64
10, 105360, Note_on_c, 10, 55, 105
10, 105444, Note_off_c, 10, 55, 64
10, 105480, Note_on_c, 10, 55, 105
10, 105564, Note_off_c, 10, 55, 64
10, 105600, Note_on_c, 10, 55, 105
10, 105684, Note_off_c, 10, 55, 64
10, 105720, Note_on_c, 10, 55, 105
10, 105804, Note_off_c, 10, 55, 64
10, 105840, Note_on_c, 10, 55, 105
10, 105924, Note_off_c, 10, 55, 64
10, 105960, Note_on_c, 10, 55, 105
10, 106044, Note_off_c, 10, 55, 64
10, 106080, Note_on_c, 10, 55, 105
10, 106164, Note_off_c, 10, 55, 64
10, 106200, Note_on_c, 10, 55, 105
10, 106284, Note_off_c, 10, 55, 64
10, 106320, Note_on_c, 10, 55, 105
10, 106404, Note_off_c, 10, 55, 64
10, 106440, Note_on_c, 10, 55, 105
10, 106524, Note_off_c, 10, 55, 64
10, 106560, Note_on_c, 10, 55, 105
10, 106644, Note_off_c, 10, 55, 64
10, 106680, Note_on_c, 10, 55, 105
10, 106764, Note_off_c, 10, 55, 64
10, 106800, Note_on_c, 10, 64, 105
10, 106884, Note_off_c, 10, 64, 64
10, 106920, Note_on_c, 10, 64, 105
10, 107004, Note_off_c, 10, 64, 64
10, 107040, Note_on_c, 10, 60, 105
10, 107124, Note_off_c, 10, 60, 64
10, 107160, Note_on_c, 10, 60, 105
10, 107244, Note_off_c, 10, 60, 64
10, 107280, Note_on_c, 10, 62, 105
10, 107364, Note_off_c, 10, 62, 64
10, 107400, Note_on_c, 10, 62, 105
10, 107484, Note_off_c, 10, 62, 64
10, 107520, Note_on_c, 10, 59, 58
10, 107616, Note_off_c, 10, 59, 64
10, 107760, Note_on_c, 10, 64, 58
10, 107856, Note_off_c, 10, 64, 64
10, 108000, Note_on_c, 10, 60, 58
10, 108096, Note_off_c, 10, 60, 64
10, 108240, Note_on_c, 10, 62, 58
10, 108336, Note_off_c, 10, 62, 64
10, 108480, Note_on_c, 10, 59, 105
10, 108576, Note_off_c, 10, 59, 64
10, 108600, Note_on_c, 10, 59, 105
10, 108696, Note_off_c, 10, 59, 64
10, 108720, Note_on_c, 10, 64, 105
10, 108816, Note_off_c, 10, 64, 64
10, 108840, Note_on_c, 10, 64, 105
10, 108936, Note_off_c, 10, 64, 64
10, 108960, Note_on_c, 10, 60, 105
10, 109056, Note_off_c, 10, 60, 64
10, 109080, Note_on_c, 10, 60, 105
10, 109176, Note_off_c, 10, 60, 64
10, 109200, Note_on_c, 10, 62, 105
10, 109296, Note_off_c, 10, 62, 64
10, 109320, Note_on_c, 10, 62, 105
10, 109416, Note_off_c, 10, 62, 64
10, 109440, Note_on_c, 10, 55, 105
10, 109632, Note_off_c, 10, 55, 64
10, 113280, Note_on_c, 10, 48, 58
10, 113472, Note_off_c, 10, 48, 64
10, 113520, Note_on_c, 10, 48, 72
10, 113712, Note_off_c, 10, 48, 64
10, 113760, Note_on_c, 10, 48, 72
10, 113952, Note_off_c, 10, 48, 64
10, 114000, Note_on_c, 10, 48, 72
10, 114192, Note_off_c, 10, 48, 64
10, 114240, Note_on_c, 10, 48, 72
10, 114432, Note_off_c, 10, 48, 64
10, 114480, Note_on_c, 10, 48, 72
10, 114672, Note_off_c, 10, 48, 64
10, 114720, Note_on_c, 10, 48, 72
10, 114912, Note_off_c, 10, 48, 64
10, 114960, Note_on_c, 10, 48, 72
10, 115152, Note_off_c, 10, 48, 64
10, 115200, Note_on_c, 10, 48, 72
10, 115584, Note_off_c, 10, 48, 64
10, 115920, Note_on_c, 10, 48, 72
10, 116064, Note_off_c, 10, 48, 64
10, 116160, Note_on_c, 10, 53, 72
10, 116304, Note_off_c, 10, 53, 64
10, 116400, Note_on_c, 10, 48, 72
10, 116544, Note_off_c, 10, 48, 64
10, 117120, Note_on_c, 10, 57, 72
10, 118080, Note_off_c, 10, 57, 64
10, 118080, Note_on_c, 10, 55, 72
10, 119040, Note_off_c, 10, 55, 64
10, 119040, Note_on_c, 10, 53, 72
10, 119232, Note_off_c, 10, 53, 64
10, 119280, Note_on_c, 10, 50, 72
10, 119520, Note_off_c, 10, 50, 64
10, 119520, Note_on_c, 10, 52, 72
10, 119664, Note_off_c, 10, 52, 64
10, 119760, Note_on_c, 10, 47, 72
10, 119904, Note_off_c, 10, 47, 64
10, 120000, Note_on_c, 10, 48, 72
10, 120480, Note_off_c, 10, 48, 64
10, 120480, Note_on_c, 10, 52, 72
10, 120864, Note_off_c, 10, 52, 64
10, 120960, Note_on_c, 10, 53, 72
10, 121728, Note_off_c, 10, 53, 64
10, 121920, Note_on_c, 10, 55, 58
10, 122496, Note_off_c, 10, 55, 64
10, 122880, Note_on_c, 10, 48, 105
10, 122976, Note_off_c, 10, 48, 64
10, 123000, Note_on_c, 10, 48, 105
10, 123096, Note_off_c, 10, 48, 64
10, 123120, Note_on_c, 10, 48, 105
10, 123216, Note_off_c, 10, 48, 64
10, 123240, Note_on_c, 10, 48, 105
10, 123336, Note_off_c, 10, 48, 64
10, 123360, Note_on_c, 10, 48, 105
10, 123456, Note_off_c, 10, 48, 64
10, 123480, Note_on_c, 10, 48, 105
10, 123576, Note_off_c, 10, 48, 64
10, 123600, Note_on_c, 10, 48, 105
10, 123696, Note_off_c, 10, 48, 64
10, 123720, Note_on_c, 10, 48, 105
10, 123816, Note_off_c, 10, 48, 64
10, 123840, Note_on_c, 10, 48, 105
10, 123936, Note_off_c, 10, 48, 64
10, 123960, Note_on_c, 10, 48, 105
10, 124056, Note_off_c, 10, 48, 64
10, 124080, Note_on_c, 10, 48, 105
10, 124176, Note_off_c, 10, 48, 64
10, 124200, Note_on_c, 10, 48, 105
10, 124296, Note_off_c, 10, 48, 64
10, 124320, Note_on_c, 10, 48, 105
10, 124416, Note_off_c, 10, 48, 64
10, 124440, Note_on_c, 10, 48, 105
10, 124536, Note_off_c, 10, 48, 64
10, 124560, Note_on_c, 10, 48, 105
10, 124656, Note_off_c, 10, 48, 64
10, 124680, Note_on_c, 10, 48, 105
10, 124776, Note_off_c, 10, 48, 64
10, 124800, Note_on_c, 10, 48, 105
10, 125184, Note_off_c, 10, 48, 64
10, 125520, Note_on_c, 10, 48, 105
10, 125688, Note_off_c, 10, 48, 64
10, 125760, Note_on_c, 10, 53, 105
10, 125928, Note_off_c, 10, 53, 64
10, 126000, Note_on_c, 10, 48, 105
10, 126168, Note_off_c, 10, 48, 64
10, 126480, Note_on_c, 10, 48, 105
10, 126648, Note_off_c, 10, 48, 64
10, 126720, Note_on_c, 10, 53, 105
10, 126888, Note_off_c, 10, 53, 64
10, 126960, Note_on_c, 10, 48, 105
10, 127128, Note_off_c, 10, 48, 64
10, 127440, Note_on_c, 10, 48, 105
10, 127608, Note_off_c, 10, 48, 64
10, 127680, Note_on_c, 10, 53, 105
10, 127848, Note_off_c, 10, 53, 64
10, 127920, Note_on_c, 10, 48, 105
10, 128088, Note_off_c, 10, 48, 64
10, 128160, Note_on_c, 10, 53, 105
10, 128328, Note_off_c, 10, 53, 64
10, 128400, Note_on_c, 10, 48, 105
10, 128568, Note_off_c, 10, 48, 64
10, 128640, Note_on_c, 10, 53, 105
10, 128808, Note_off_c, 10, 53, 64
10, 128880, Note_on_c, 10, 48, 105
10, 129048, Note_off_c, 10, 48, 64
10, 129600, Note_on_c, 10, 57, 58
10, 130560, Note_off_c, 10, 57, 64
10, 130560, Note_on_c, 10, 55, 58
10, 131040, Note_off_c, 10, 55, 64
10, 131040, Note_on_c, 10, 48, 58
10, 131520, Note_off_c, 10, 48, 64
10, 131520, Note_on_c, 10, 53, 58
10, 131712, Note_off_c, 10, 53, 64
10, 133440, Note_on_c, 10, 55, 72
10, 133632, Note_off_c, 10, 55, 64
10, 133680, Note_on_c, 10, 55, 72
10, 133872, Note_off_c, 10, 55, 64
10, 133920, Note_on_c, 10, 55, 72
10, 134112, Note_off_c, 10, 55, 64
10, 134160, Note_on_c, 10, 55, 72
10, 134352, Note_off_c, 10, 55, 64
10, 134400, Note_on_c, 10, 48, 105
10, 134484, Note_off_c, 10, 48, 64
10, 134520, Note_on_c, 10, 52, 105
10, 134604, Note_off_c, 10, 52, 64
10, 134640, Note_on_c, 10, 55, 105
10, 134724, Note_off_c, 10, 55, 64
10, 134760, Note_on_c, 10, 60, 105
10, 134844, Note_off_c, 10, 60, 64
10, 134880, Note_on_c, 10, 64, 105
10, 134964, Note_off_c, 10, 64, 64
10, 135000, Note_on_c, 10, 62, 105
10, 135084, Note_off_c, 10, 62, 64
10, 135120, Note_on_c, 10, 64, 105
10, 135204, Note_off_c, 10, 64, 64
10, 135240, Note_on_c, 10, 60, 105
10, 135324, Note_off_c, 10, 60, 64
10, 135360, Note_on_c, 10, 59, 105
10, 135444, Note_off_c, 10, 59, 64
10, 135480, Note_on_c, 10, 60, 105
10, 135564, Note_off_c, 10, 60, 64
10, 135600, Note_on_c, 10, 62, 105
10, 135684, Note_off_c, 10, 62, 64
10, 135720, Note_on_c, 10, 60, 105
10, 135804, Note_off_c, 10, 60, 64
10, 135840, Note_on_c, 10, 59, 105
10, 135924, Note_off_c, 10, 59, 64
10, 135960, Note_on_c, 10, 57, 105
10, 136044, Note_off_c, 10, 57, 64
10, 136080, Note_on_c, 10, 55, 105
10, 136164, Note_off_c, 10, 55, 64
10, 136200, Note_on_c, 10, 53, 105
10, 136284, Note_off_c, 10, 53, 64
10, 136320, Note_on_c, 10, 52, 105
10, 136404, Note_off_c, 10, 52, 64
10, 136440, Note_on_c, 10, 53, 105
10, 136524, Note_off_c, 10, 53, 64
10, 136560, Note_on_c, 10, 55, 105
10, 136644, Note_off_c, 10, 55, 64
10, 136680, Note_on_c, 10, 52, 105
10, 136764, Note_off_c, 10, 52, 64
10, 136800, Note_on_c, 10, 57, 105
10, 136884, Note_off_c, 10, 57, 64
10, 136920, Note_on_c, 10, 59, 105
10, 137004, Note_off_c, 10, 59, 64
10, 137040, Note_on_c, 10, 60, 105
10, 137124, Note_off_c, 10, 60, 64
10, 137160, Note_on_c, 10, 57, 105
10, 137244, Note_off_c, 10, 57, 64
10, 137280, Note_on_c, 10, 53, 105
10, 137364, Note_off_c, 10, 53, 64
10, 137400, Note_on_c, 10, 50, 105
10, 137484, Note_off_c, 10, 50, 64
10, 137520, Note_on_c, 10, 52, 105
10, 137604, Note_off_c, 10, 52, 64
10, 137640, Note_on_c, 10, 53, 105
10, 137724, Note_off_c, 10, 53, 64
10, 137760, Note_on_c, 10, 55, 105
10, 137844, Note_off_c, 10, 55, 64
10, 137880, Note_on_c, 10, 53, 105
10, 137964, Note_off_c, 10, 53, 64
10, 138000, Note_on_c, 10, 55, 105
10, 138084, Note_off_c, 10, 55, 64
10, 138120, Note_on_c, 10, 43, 105
10, 138204, Note_off_c, 10, 43, 64
10, 138240, Note_on_c, 10, 48, 105
10, 138324, Note_off_c, 10, 48, 64
10, 138360, Note_on_c, 10, 52, 105
10, 138444, Note_off_c, 10, 52, 64
10, 138480, Note_on_c, 10, 55, 105
10, 138564, Note_off_c, 10, 55, 64
10, 138600, Note_on_c, 10, 60, 105
10, 138684, Note_off_c, 10, 60, 64
10, 138720, Note_on_c, 10, 64, 105
10, 138804, Note_off_c, 10, 64, 64
10, 138840, Note_on_c, 10, 62, 105
10, 138924, Note_off_c, 10, 62, 64
10, 138960, Note_on_c, 10, 64, 105
10, 139044, Note_off_c, 10, 64, 64
10, 139080, Note_on_c, 10, 60, 105
10, 139164, Note_off_c, 10, 60, 64
10, 139200, Note_on_c, 10, 59, 105
10, 139284, Note_off_c, 10, 59, 64
10, 139320, Note_on_c, 10, 60, 105
10, 139404, Note_off_c, 10, 60, 64
10, 139440, Note_on_c, 10, 62, 105
10, 139524, Note_off_c, 10, 62, 64
10, 139560, Note_on_c, 10, 60, 105
10, 139644, Note_off_c, 10, 60, 64
10, 139680, Note_on_c, 10, 59, 105
10, 139764, Note_off_c, 10, 59, 64
10, 139800, Note_on_c, 10, 57, 105
10, 139884, Note_off_c, 10, 57, 64
10, 139920, Note_on_c, 10, 55, 105
10, 140004, Note_off_c, 10, 55, 64
10, 140040, Note_on_c, 10, 53, 105
10, 140124, Note_off_c, 10, 53, 64
10, 140160, Note_on_c, 10, 52, 105
10, 140244, Note_off_c, 10, 52, 64
10, 140280, Note_on_c, 10, 53, 105
10, 140364, Note_off_c, 10, 53, 64
10, 140400, Note_on_c, 10, 55, 105
10, 140484, Note_off_c, 10, 55, 64
10, 140520, Note_on_c, 10, 52, 105
10, 140604, Note_off_c, 10, 52, 64
10, 140640, Note_on_c, 10, 57, 105
10, 140724, Note_off_c, 10, 57, 64
10, 140760, Note_on_c, 10, 59, 105
10, 140844, Note_off_c, 10, 59, 64
10, 140880, Note_on_c, 10, 60, 105
10, 140964, Note_off_c, 10, 60, 64
10, 141000, Note_on_c, 10, 57, 105
10, 141084, Note_off_c, 10, 57, 64
10, 141120, Note_on_c, 10, 54, 105
10, 141204, Note_off_c, 10, 54, 64
10, 141240, Note_on_c, 10, 55, 105
10, 141324, Note_off_c, 10, 55, 64
10, 141360, Note_on_c, 10, 57, 105
10, 141444, Note_off_c, 10, 57, 64
10, 141480, Note_on_c, 10, 55, 105
10, 141564, Note_off_c, 10, 55, 64
10, 141600, Note_on_c, 10, 54, 105
10, 141684, Note_off_c, 10, 54, 64
10, 141720, Note_on_c, 10, 50, 105
10, 141804, Note_off_c, 10, 50, 64
10, 141840, Note_on_c, 10, 52, 105
10, 141924, Note_off_c, 10, 52, 64
10, 141960, Note_on_c, 10, 54, 105
10, 142044, Note_off_c, 10, 54, 64
10, 142080, Note_on_c, 10, 55, 105
10, 142164, Note_off_c, 10, 55, 64
10, 142200, Note_on_c, 10, 57, 105
10, 142284, Note_off_c, 10, 57, 64
10, 142320, Note_on_c, 10, 59, 105
10, 142404, Note_off_c, 10, 59, 64
10, 142440, Note_on_c, 10, 57, 105
10, 142524, Note_off_c, 10, 57, 64
10, 142560, Note_on_c, 10, 56, 105
10, 142644, Note_off_c, 10, 56, 64
10, 142680, Note_on_c, 10, 57, 105
10, 142764, Note_off_c, 10, 57, 64
10, 142800, Note_on_c, 10, 54, 105
10, 142884, Note_off_c, 10, 54, 64
10, 142920, Note_on_c, 10, 56, 105
10, 143004, Note_off_c, 10, 56, 64
10, 143040, Note_on_c, 10, 57, 105
10, 143124, Note_off_c, 10, 57, 64
10, 143160, Note_on_c, 10, 59, 105
10, 143244, Note_off_c, 10, 59, 64
10, 143280, Note_on_c, 10, 60, 105
10, 143364, Note_off_c, 10, 60, 64
10, 143400, Note_on_c, 10, 59, 105
10, 143484, Note_off_c, 10, 59, 64
10, 143520, Note_on_c, 10, 57, 105
10, 143604, Note_off_c, 10, 57, 64
10, 143640, Note_on_c, 10, 59, 105
10, 143724, Note_off_c, 10, 59, 64
10, 143760, Note_on_c, 10, 55, 105
10, 143844, Note_off_c, 10, 55, 64
10, 143880, Note_on_c, 10, 57, 105
10, 143964, Note_off_c, 10, 57, 64
10, 144000, Note_on_c, 10, 54, 105
10, 144084, Note_off_c, 10, 54, 64
10, 144120, Note_on_c, 10, 55, 105
10, 144204, Note_off_c, 10, 55, 64
10, 144240, Note_on_c, 10, 57, 105
10, 144324, Note_off_c, 10, 57, 64
10, 144360, Note_on_c, 10, 55, 105
10, 144444, Note_off_c, 10, 55, 64
10, 144480, Note_on_c, 10, 54, 105
10, 144564, Note_off_c, 10, 54, 64
10, 144600, Note_on_c, 10, 50, 105
10, 144684, Note_off_c, 10, 50, 64
10, 144720, Note_on_c, 10, 52, 105
10, 144804, Note_off_c, 10, 52, 64
10, 144840, Note_on_c, 10, 54, 105
10, 144924, Note_off_c, 10, 54, 64
10, 144960, Note_on_c, 10, 55, 105
10, 145044, Note_off_c, 10, 55, 64
10, 145080, Note_on_c, 10, 59, 105
10, 145164, Note_off_c, 10, 59, 64
10, 145200, Note_on_c, 10, 62, 105
10, 145284, Note_off_c, 10, 62, 64
10, 145320, Note_on_c, 10, 62, 105
10, 145404, Note_off_c, 10, 62, 64
10, 145440, Note_on_c, 10, 62, 105
10, 145524, Note_off_c, 10, 62, 64
10, 145560, Note_on_c, 10, 62, 105
10, 145644, Note_off_c, 10, 62, 64
10, 145680, Note_on_c, 10, 59, 105
10, 145764, Note_off_c, 10, 59, 64
10, 145800, Note_on_c, 10, 55, 105
10, 145884, Note_off_c, 10, 55, 64
10, 145920, Note_on_c, 10, 60, 105
10, 146004, Note_off_c, 10, 60, 64
10, 146040, Note_on_c, 10, 57, 105
10, 146124, Note_off_c, 10, 57, 64
10, 146160, Note_on_c, 10, 59, 105
10, 146244, Note_off_c, 10, 59, 64
10, 146280, Note_on_c, 10, 55, 105
10, 146364, Note_off_c, 10, 55, 64
10, 146400, Note_on_c, 10, 54, 105
10, 146484, Note_off_c, 10, 54, 64
10, 146520, Note_on_c, 10, 57, 105
10, 146604, Note_off_c, 10, 57, 64
10, 146640, Note_on_c, 10, 54, 105
10, 146724, Note_off_c, 10, 54, 64
10, 146760, Note_on_c, 10, 50, 105
10, 146844, Note_off_c, 10, 50, 64
10, 146880, Note_on_c, 10, 55, 105
10, 146964, Note_off_c, 10, 55, 64
10, 147000, Note_on_c, 10, 59, 105
10, 147084, Note_off_c, 10, 59, 64
10, 147120, Note_on_c, 10, 62, 105
10, 147204, Note_off_c, 10, 62, 64
10, 147240, Note_on_c, 10, 62, 105
10, 147324, Note_off_c, 10, 62, 64
10, 147360, Note_on_c, 10, 62, 105
10, 147444, Note_off_c, 10, 62, 64
10, 147480, Note_on_c, 10, 62, 105
10, 147564, Note_off_c, 10, 62, 64
10, 147600, Note_on_c, 10, 59, 105
10, 147684, Note_off_c, 10, 59, 64
10, 147720, Note_on_c, 10, 55, 105
10, 147804, Note_off_c, 10, 55, 64
10, 147840, Note_on_c, 10, 60, 105
10, 147924, Note_off_c, 10, 60, 64
10, 147960, Note_on_c, 10, 57, 105
10, 148044, Note_off_c, 10, 57, 64
10, 148080, Note_on_c, 10, 59, 105
10, 148164, Note_off_c, 10, 59, 64
10, 148200, Note_on_c, 10, 55, 105
10, 148284, Note_off_c, 10, 55, 64
10, 148320, Note_on_c, 10, 54, 105
10, 148404, Note_off_c, 10, 54, 64
10, 148440, Note_on_c, 10, 57, 105
10, 148524, Note_off_c, 10, 57, 64
10, 148560, Note_on_c, 10, 54, 105
10, 148644, Note_off_c, 10, 54, 64
10, 148680, Note_on_c, 10, 50, 105
10, 148764, Note_off_c, 10, 50, 64
10, 148800, Note_on_c, 10, 55, 105
10, 148884, Note_off_c, 10, 55, 64
10, 148920, Note_on_c, 10, 57, 105
10, 149004, Note_off_c, 10, 57, 64
10, 149040, Note_on_c, 10, 54, 105
10, 149124, Note_off_c, 10, 54, 64
10, 149160, Note_on_c, 10, 55, 105
10, 149244, Note_off_c, 10, 55, 64
10, 149280, Note_on_c, 10, 52, 105
10, 149364, Note_off_c, 10, 52, 64
10, 149400, Note_on_c, 10, 53, 105
10, 149484, Note_off_c, 10, 53, 64
10, 149520, Note_on_c, 10, 50, 105
10, 149604, Note_off_c, 10, 50, 64
10, 149640, Note_on_c, 10, 52, 105
10, 149724, Note_off_c, 10, 52, 64
10, 149760, Note_on_c, 10, 48, 110
10, 149844, Note_off_c, 10, 48, 64
10, 149880, Note_on_c, 10, 60, 72
10, 149964, Note_off_c, 10, 60, 64
10, 150000, Note_on_c, 10, 60, 72
10, 150084, Note_off_c, 10, 60, 64
10, 150120, Note_on_c, 10, 60, 72
10, 150204, Note_off_c, 10, 60, 64
10, 150240, Note_on_c, 10, 50, 72
10, 150324, Note_off_c, 10, 50, 64
10, 150360, Note_on_c, 10, 62, 72
10, 150444, Note_off_c, 10, 62, 64
10, 150480, Note_on_c, 10, 62, 72
10, 150564, Note_off_c, 10, 62, 64
10, 150600, Note_on_c, 10, 62, 72
10, 150684, Note_off_c, 10, 62, 64
10, 150720, Note_on_c, 10, 48, 110
10, 150804, Note_off_c, 10, 48, 64
10, 150840, Note_on_c, 10, 60, 72
10, 150924, Note_off_c, 10, 60, 64
10, 150960, Note_on_c, 10, 60, 72
10, 151044, Note_off_c, 10, 60, 64
10, 151080, Note_on_c, 10, 60, 72
10, 151164, Note_off_c, 10, 60, 64
10, 151200, Note_on_c, 10, 50, 72
10, 151284, Note_off_c, 10, 50, 64
10, 151320, Note_on_c, 10, 62, 72
10, 151404, Note_off_c, 10, 62, 64
10, 151440, Note_on_c, 10, 62, 72
10, 151524, Note_off_c, 10, 62, 64
10, 151560, Note_on_c, 10, 62, 72
10, 151644, Note_off_c, 10, 62, 64
10, 151680, Note_on_c, 10, 60, 105
10, 151752, Note_off_c, 10, 60, 64
10, 151800, Note_on_c, 10, 59, 105
10, 151872, Note_off_c, 10, 59, 64
10, 151920, Note_on_c, 10, 60, 105
10, 151992, Note_off_c, 10, 60, 64
10, 152040, Note_on_c, 10, 59, 105
10, 152112, Note_off_c, 10, 59, 64
10, 152160, Note_on_c, 10, 60, 105
10, 152232, Note_off_c, 10, 60, 64
10, 152280, Note_on_c, 10, 59, 105
10, 152352, Note_off_c, 10, 59, 64
10, 152400, Note_on_c, 10, 60, 105
10, 152472, Note_off_c, 10, 60, 64
10, 152520, Note_on_c, 10, 56, 105
10, 152592, Note_off_c, 10, 56, 64
10, 152640, Note_on_c, 10, 57, 105
10, 152712, Note_off_c, 10, 57, 64
10, 152760, Note_on_c, 10, 56, 105
10, 152832, Note_off_c, 10, 56, 64
10, 152880, Note_on_c, 10, 57, 105
10, 152952, Note_off_c, 10, 57, 64
10, 153000, Note_on_c, 10, 56, 105
10, 153072, Note_off_c, 10, 56, 64
10, 153120, Note_on_c, 10, 57, 105
10, 153192, Note_off_c, 10, 57, 64
10, 153240, Note_on_c, 10, 56, 105
10, 153312, Note_off_c, 10, 56, 64
10, 153360, Note_on_c, 10, 57, 105
10, 153432, Note_off_c, 10, 57, 64
10, 153480, Note_on_c, 10, 59, 105
10, 153552, Note_off_c, 10, 59, 64
10, 153600, Note_on_c, 10, 60, 105
10, 153792, Note_off_c, 10, 60, 64
10, 155520, Note_on_c, 10, 49, 58
10, 156480, Note_off_c, 10, 49, 64
10, 156480, Note_on_c, 10, 52, 58
10, 157248, Note_off_c, 10, 52, 64
10, 157440, Note_on_c, 10, 50, 72
10, 157632, Note_off_c, 10, 50, 64
10, 157920, Note_on_c, 10, 55, 72
10, 158112, Note_off_c, 10, 55, 64
10, 158400, Note_on_c, 10, 50, 72
10, 158592, Note_off_c, 10, 50, 64
10, 158880, Note_on_c, 10, 43, 72
10, 159072, Note_off_c, 10, 43, 64
10, 159360, Note_on_c, 10, 48, 58
10, 159744, Note_off_c, 10, 48, 64
10, 159840, Note_on_c, 10, 47, 58
10, 160224, Note_off_c, 10, 47, 64
10, 160320, Note_on_c, 10, 48, 58
10, 160704, Note_off_c, 10, 48, 64
10, 160800, Note_on_c, 10, 47, 58
10, 160992, Note_off_c, 10, 47, 64
10, 161280, Note_on_c, 10, 48, 58
10, 161472, Note_off_c, 10, 48, 64
10, 161760, Note_on_c, 10, 50, 58
10, 161952, Note_off_c, 10, 50, 64
10, 162240, Note_on_c, 10, 43, 58
10, 162432, Note_off_c, 10, 43, 64
10, 162720, Note_on_c, 10, 52, 105
10, 162864, Note_off_c, 10, 52, 64
10, 162960, Note_on_c, 10, 52, 105
10, 163104, Note_off_c, 10, 52, 64
10, 163200, Note_on_c, 10, 52, 105
10, 163284, Note_off_c, 10, 52, 64
10, 163320, Note_on_c, 10, 54, 105
10, 163404, Note_off_c, 10, 54, 64
10, 163440, Note_on_c, 10, 55, 105
10, 163524, Note_off_c, 10, 55, 64
10, 163560, Note_on_c, 10, 52, 105
10, 163644, Note_off_c, 10, 52, 64
10, 163680, Note_on_c, 10, 51, 105
10, 163764, Note_off_c, 10, 51, 64
10, 163800, Note_on_c, 10, 47, 105
10, 163884, Note_off_c, 10, 47, 64
10, 163920, Note_on_c, 10, 49, 105
10, 164004, Note_off_c, 10, 49, 64
10, 164040, Note_on_c, 10, 51, 105
10, 164124, Note_off_c, 10, 51, 64
10, 164160, Note_on_c, 10, 52, 105
10, 164244, Note_off_c, 10, 52, 64
10, 164280, Note_on_c, 10, 54, 105
10, 164364, Note_off_c, 10, 54, 64
10, 164400, Note_on_c, 10, 55, 105
10, 164484, Note_off_c, 10, 55, 64
10, 164520, Note_on_c, 10, 52, 105
10, 164604, Note_off_c, 10, 52, 64
10, 164640, Note_on_c, 10, 51, 105
10, 164724, Note_off_c, 10, 51, 64
10, 164760, Note_on_c, 10, 47, 105
10, 164844, Note_off_c, 10, 47, 64
10, 164880, Note_on_c, 10, 49, 105
10, 164964, Note_off_c, 10, 49, 64
10, 165000, Note_on_c, 10, 51, 105
10, 165084, Note_off_c, 10, 51, 64
10, 165120, Note_on_c, 10, 52, 105
10, 165204, Note_off_c, 10, 52, 64
10, 165240, Note_on_c, 10, 54, 105
10, 165324, Note_off_c, 10, 54, 64
10, 165360, Note_on_c, 10, 55, 105
10, 165444, Note_off_c, 10, 55, 64
10, 165480, Note_on_c, 10, 52, 105
10, 165564, Note_off_c, 10, 52, 64
10, 165600, Note_on_c, 10, 51, 105
10, 165684, Note_off_c, 10, 51, 64
10, 165720, Note_on_c, 10, 47, 105
10, 165804, Note_off_c, 10, 47, 64
10, 165840, Note_on_c, 10, 49, 105
10, 165924, Note_off_c, 10, 49, 64
10, 165960, Note_on_c, 10, 51, 105
10, 166044, Note_off_c, 10, 51, 64
10, 166080, Note_on_c, 10, 52, 105
10, 166272, Note_off_c, 10, 52, 64
10, 168480, Note_on_c, 10, 60, 72
10, 168672, Note_off_c, 10, 60, 64
10, 168960, Note_on_c, 10, 62, 72
10, 169152, Note_off_c, 10, 62, 64
10, 169440, Note_on_c, 10, 50, 72
10, 169632, Note_off_c, 10, 50, 64
10, 169920, Note_on_c, 10, 55, 58
10, 170112, Note_off_c, 10, 55, 64
10, 171120, Note_on_c, 10, 52, 58
10, 171360, Note_off_c, 10, 52, 64
10, 171360, Note_on_c, 10, 51, 58
10, 171600, Note_off_c, 10, 51, 64
10, 171600, Note_on_c, 10, 47, 58
10, 171792, Note_off_c, 10, 47, 64
10, 172080, Note_on_c, 10, 52, 58
10, 172320, Note_off_c, 10, 52, 64
10, 172320, Note_on_c, 10, 51, 58
10, 172560, Note_off_c, 10, 51, 64
10, 172560, Note_on_c, 10, 47, 58
10, 172752, Note_off_c, 10, 47, 64
10, 173040, Note_on_c, 10, 52, 58
10, 173280, Note_off_c, 10, 52, 64
10, 173280, Note_on_c, 10, 51, 58
10, 173520, Note_off_c, 10, 51, 64
10, 173520, Note_on_c, 10, 47, 58
10, 173712, Note_off_c, 10, 47, 64
10, 173760, Note_on_c, 10, 52, 58
10, 173952, Note_off_c, 10, 52, 64
10, 174240, Note_on_c, 10, 48, 105
10, 174384, Note_off_c, 10, 48, 64
10, 174480, Note_on_c, 10, 48, 105
10, 174624, Note_off_c, 10, 48, 64
10, 174720, Note_on_c, 10, 48, 105
10, 174804, Note_off_c, 10, 48, 64
10, 174840, Note_on_c, 10, 52, 105
10, 174924, Note_off_c, 10, 52, 64
10, 174960, Note_on_c, 10, 55, 105
10, 175044, Note_off_c, 10, 55, 64
10, 175080, Note_on_c, 10, 60, 105
10, 175164, Note_off_c, 10, 60, 64
10, 175200, Note_on_c, 10, 59, 105
10, 175284, Note_off_c, 10, 59, 64
10, 175320, Note_on_c, 10, 55, 105
10, 175404, Note_off_c, 10, 55, 64
10, 175440, Note_on_c, 10, 57, 105
10, 175524, Note_off_c, 10, 57, 64
10, 175560, Note_on_c, 10, 59, 105
10, 175644, Note_off_c, 10, 59, 64
10, 175680, Note_on_c, 10, 60, 105
10, 175764, Note_off_c, 10, 60, 64
10, 175800, Note_on_c, 10, 60, 105
10, 175884, Note_off_c, 10, 60, 64
10, 175920, Note_on_c, 10, 60, 105
10, 176004, Note_off_c, 10, 60, 64
10, 176040, Note_on_c, 10, 60, 105
10, 176124, Note_off_c, 10, 60, 64
10, 176160, Note_on_c, 10, 60, 105
10, 176244, Note_off_c, 10, 60, 64
10, 176280, Note_on_c, 10, 60, 105
10, 176364, Note_off_c, 10, 60, 64
10, 176400, Note_on_c, 10, 60, 105
10, 176484, Note_off_c, 10, 60, 64
10, 176520, Note_on_c, 10, 60, 105
10, 176604, Note_off_c, 10, 60, 64
10, 176640, Note_on_c, 10, 62, 105
10, 176724, Note_off_c, 10, 62, 64
10, 176760, Note_on_c, 10, 62, 105
10, 176844, Note_off_c, 10, 62, 64
10, 176880, Note_on_c, 10, 62, 105
10, 176964, Note_off_c, 10, 62, 64
10, 177000, Note_on_c, 10, 62, 105
10, 177084, Note_off_c, 10, 62, 64
10, 177120, Note_on_c, 10, 50, 105
10, 177204, Note_off_c, 10, 50, 64
10, 177240, Note_on_c, 10, 50, 105
10, 177324, Note_off_c, 10, 50, 64
10, 177360, Note_on_c, 10, 50, 105
10, 177444, Note_off_c, 10, 50, 64
10, 177480, Note_on_c, 10, 50, 105
10, 177564, Note_off_c, 10, 50, 64
10, 177600, Note_on_c, 10, 55, 105
10, 177684, Note_off_c, 10, 55, 64
10, 177720, Note_on_c, 10, 43, 105
10, 177804, Note_off_c, 10, 43, 64
10, 177840, Note_on_c, 10, 45, 105
10, 177924, Note_off_c, 10, 45, 64
10, 177960, Note_on_c, 10, 47, 105
10, 178044, Note_off_c, 10, 47, 64
10, 178080, Note_on_c, 10, 48, 105
10, 178164, Note_off_c, 10, 48, 64
10, 178200, Note_on_c, 10, 52, 105
10, 178284, Note_off_c, 10, 52, 64
10, 178320, Note_on_c, 10, 50, 105
10, 178404, Note_off_c, 10, 50, 64
10, 178440, Note_on_c, 10, 54, 105
10, 178524, Note_off_c, 10, 54, 64
10, 178560, Note_on_c, 10, 52, 105
10, 178644, Note_off_c, 10, 52, 64
10, 178680, Note_on_c, 10, 55, 105
10, 178764, Note_off_c, 10, 55, 64
10, 178800, Note_on_c, 10, 54, 105
10, 178884, Note_off_c, 10, 54, 64
10, 178920, Note_on_c, 10, 57, 105
10, 179004, Note_off_c, 10, 57, 64
10, 179040, Note_on_c, 10, 55, 105
10, 179124, Note_off_c, 10, 55, 64
10, 179160, Note_on_c, 10, 59, 105
10, 179244, Note_off_c, 10, 59, 64
10, 179280, Note_on_c, 10, 57, 105
10, 179364, Note_off_c, 10, 57, 64
10, 179400, Note_on_c, 10, 60, 105
10, 179484, Note_off_c, 10, 60, 64
10, 179520, Note_on_c, 10, 59, 105
10, 179604, Note_off_c, 10, 59, 64
10, 179640, Note_on_c, 10, 62, 105
10, 179724, Note_off_c, 10, 62, 64
10, 179760, Note_on_c, 10, 59, 105
10, 179844, Note_off_c, 10, 59, 64
10, 179880, Note_on_c, 10, 55, 105
10, 179964, Note_off_c, 10, 55, 64
10, 180000, Note_on_c, 10, 60, 105
10, 180084, Note_off_c, 10, 60, 64
10, 180120, Note_on_c, 10, 57, 105
10, 180204, Note_off_c, 10, 57, 64
10, 180240, Note_on_c, 10, 54, 105
10, 180324, Note_off_c, 10, 54, 64
10, 180360, Note_on_c, 10, 50, 105
10, 180444, Note_off_c, 10, 50, 64
10, 180480, Note_on_c, 10, 55, 105
10, 180564, Note_off_c, 10, 55, 64
10, 180600, Note_on_c, 10, 55, 105
10, 180684, Note_off_c, 10, 55, 64
10, 180720, Note_on_c, 10, 52, 105
10, 180804, Note_off_c, 10, 52, 64
10, 180840, Note_on_c, 10, 52, 105
10, 180924, Note_off_c, 10, 52, 64
10, 180960, Note_on_c, 10, 48, 105
10, 181044, Note_off_c, 10, 48, 64
10, 181080, Note_on_c, 10, 48, 105
10, 181164, Note_off_c, 10, 48, 64
10, 181200, Note_on_c, 10, 50, 105
10, 181284, Note_off_c, 10, 50, 64
10, 181320, Note_on_c, 10, 50, 105
10, 181404, Note_off_c, 10, 50, 64
10, 181440, Note_on_c, 10, 43, 105
10, 181524, Note_off_c, 10, 43, 64
10, 181560, Note_on_c, 10, 55, 105
10, 181644, Note_off_c, 10, 55, 64
10, 181680, Note_on_c, 10, 57, 105
10, 181764, Note_off_c, 10, 57, 64
10, 181800, Note_on_c, 10, 59, 105
10, 181884, Note_off_c, 10, 59, 64
10, 181920, Note_on_c, 10, 60, 105
10, 182004, Note_off_c, 10, 60, 64
10, 182040, Note_on_c, 10, 57, 105
10, 182124, Note_off_c, 10, 57, 64
10, 182160, Note_on_c, 10, 62, 105
10, 182244, Note_off_c, 10, 62, 64
10, 182280, Note_on_c, 10, 60, 105
10, 182364, Note_off_c, 10, 60, 64
10, 182400, Note_on_c, 10, 59, 105
10, 182484, Note_off_c, 10, 59, 64
10, 182520, Note_on_c, 10, 55, 105
10, 182604, Note_off_c, 10, 55, 64
10, 182640, Note_on_c, 10, 54, 105
10, 182724, Note_off_c, 10, 54, 64
10, 182760, Note_on_c, 10, 50, 105
10, 182844, Note_off_c, 10, 50, 64
10, 182880, Note_on_c, 10, 55, 105
10, 182964, Note_off_c, 10, 55, 64
10, 183000, Note_on_c, 10, 50, 105
10, 183084, Note_off_c, 10, 50, 64
10, 183120, Note_on_c, 10, 57, 105
10, 183204, Note_off_c, 10, 57, 64
10, 183240, Note_on_c, 10, 50, 105
10, 183324, Note_off_c, 10, 50, 64
10, 183360, Note_on_c, 10, 59, 105
10, 183444, Note_off_c, 10, 59, 64
10, 183480, Note_on_c, 10, 57, 105
10, 183564, Note_off_c, 10, 57, 64
10, 183600, Note_on_c, 10, 56, 105
10, 183684, Note_off_c, 10, 56, 64
10, 183720, Note_on_c, 10, 52, 105
10, 183804, Note_off_c, 10, 52, 64
10, 183840, Note_on_c, 10, 57, 105
10, 183924, Note_off_c, 10, 57, 64
10, 183960, Note_on_c, 10, 55, 105
10, 184044, Note_off_c, 10, 55, 64
10, 184080, Note_on_c, 10, 54, 105
10, 184164, Note_off_c, 10, 54, 64
10, 184200, Note_on_c, 10, 50, 105
10, 184284, Note_off_c, 10, 50, 64
10, 184320, Note_on_c, 10, 55, 105
10, 184404, Note_off_c, 10, 55, 64
10, 184440, Note_on_c, 10, 55, 105
10, 184524, Note_off_c, 10, 55, 64
10, 184560, Note_on_c, 10, 59, 105
10, 184644, Note_off_c, 10, 59, 64
10, 184680, Note_on_c, 10, 59, 105
10, 184764, Note_off_c, 10, 59, 64
10, 184800, Note_on_c, 10, 60, 105
10, 184884, Note_off_c, 10, 60, 64
10, 184920, Note_on_c, 10, 60, 105
10, 185004, Note_off_c, 10, 60, 64
10, 185040, Note_on_c, 10, 62, 105
10, 185124, Note_off_c, 10, 62, 64
10, 185160, Note_on_c, 10, 62, 105
10, 185244, Note_off_c, 10, 62, 64
10, 185280, Note_on_c, 10, 55, 105
10, 185364, Note_off_c, 10, 55, 64
10, 185400, Note_on_c, 10, 55, 105
10, 185484, Note_off_c, 10, 55, 64
10, 185520, Note_on_c, 10, 55, 105
10, 185604, Note_off_c, 10, 55, 64
10, 185640, Note_on_c, 10, 55, 105
10, 185724, Note_off_c, 10, 55, 64
10, 185760, Note_on_c, 10, 55, 105
10, 185952, Note_off_c, 10, 55, 64
10, 186240, Note_on_c, 10, 52, 105
10, 186324, Note_off_c, 10, 52, 64
10, 186360, Note_on_c, 10, 52, 105
10, 186444, Note_off_c, 10, 52, 64
10, 186480, Note_on_c, 10, 52, 105
10, 186564, Note_off_c, 10, 52, 64
10, 186600, Note_on_c, 10, 52, 105
10, 186684, Note_off_c, 10, 52, 64
10, 186720, Note_on_c, 10, 52, 105
10, 186912, Note_off_c, 10, 52, 64
10, 187200, Note_on_c, 10, 47, 105
10, 187284, Note_off_c, 10, 47, 64
10, 187320, Note_on_c, 10, 47, 105
10, 187404, Note_off_c, 10, 47, 64
10, 187440, Note_on_c, 10, 47, 105
10, 187524, Note_off_c, 10, 47, 64
10, 187560, Note_on_c, 10, 47, 105
10, 187644, Note_off_c, 10, 47, 64
10, 187680, Note_on_c, 10, 47, 105
10, 187872, Note_off_c, 10, 47, 64
10, 188160, Note_on_c, 10, 48, 105
10, 188244, Note_off_c, 10, 48, 64
10, 188280, Note_on_c, 10, 48, 105
10, 188364, Note_off_c, 10, 48, 64
10, 188400, Note_on_c, 10, 48, 105
10, 188484, Note_off_c, 10, 48, 64
10, 188520, Note_on_c, 10, 48, 105
10, 188604, Note_off_c, 10, 48, 64
10, 188640, Note_on_c, 10, 45, 105
10, 188724, Note_off_c, 10, 45, 64
10, 188760, Note_on_c, 10, 45, 105
10, 188844, Note_off_c, 10, 45, 64
10, 188880, Note_on_c, 10, 45, 105
10, 188964, Note_off_c, 10, 45, 64
10, 189000, Note_on_c, 10, 45, 105
10, 189084, Note_off_c, 10, 45, 64
10, 189120, Note_on_c, 10, 42, 105
10, 189264, Note_off_c, 10, 42, 64
10, 189360, Note_on_c, 10, 54, 105
10, 189504, Note_off_c, 10, 54, 64
10, 189840, Note_on_c, 10, 55, 105
10, 190008, Note_off_c, 10, 55, 64
10, 190080, Note_on_c, 10, 57, 105
10, 190248, Note_off_c, 10, 57, 64
10, 190320, Note_on_c, 10, 59, 105
10, 190446, Note_off_c, 10, 59, 64
10, 190500, Note_on_c, 10, 60, 105
10, 190542, Note_off_c, 10, 60, 64
10, 190560, Note_on_c, 10, 62, 105
10, 190728, Note_off_c, 10, 62, 64
10, 190800, Note_on_c, 10, 50, 105
10, 190968, Note_off_c, 10, 50, 64
10, 191040, Note_on_c, 10, 55, 105
10, 191124, Note_off_c, 10, 55, 64
10, 191160, Note_on_c, 10, 55, 105
10, 191244, Note_off_c, 10, 55, 64
10, 191280, Note_on_c, 10, 55, 105
10, 191364, Note_off_c, 10, 55, 64
10, 191400, Note_on_c, 10, 55, 105
10, 191484, Note_off_c, 10, 55, 64
10, 191520, Note_on_c, 10, 55, 105
10, 191712, Note_off_c, 10, 55, 64
10, 192000, Note_on_c, 10, 52, 105
10, 192084, Note_off_c, 10, 52, 64
10, 192120, Note_on_c, 10, 52, 105
10, 192204, Note_off_c, 10, 52, 64
10, 192240, Note_on_c, 10, 52, 105
10, 192324, Note_off_c, 10, 52, 64
10, 192360, Note_on_c, 10, 52, 105
10, 192444, Note_off_c, 10, 52, 64
10, 192480, Note_on_c, 10, 52, 105
10, 192672, Note_off_c, 10, 52, 64
10, 192960, Note_on_c, 10, 47, 105
10, 193044, Note_off_c, 10, 47, 64
10, 193080, Note_on_c, 10, 47, 105
10, 193164, Note_off_c, 10, 47, 64
10, 193200, Note_on_c, 10, 47, 105
10, 193284, Note_off_c, 10, 47, 64
10, 193320, Note_on_c, 10, 47, 105
10, 193404, Note_off_c, 10, 47, 64
10, 193440, Note_on_c, 10, 47, 105
10, 193632, Note_off_c, 10, 47, 64
10, 193920, Note_on_c, 10, 48, 105
10, 194004, Note_off_c, 10, 48, 64
10, 194040, Note_on_c, 10, 48, 105
10, 194124, Note_off_c, 10, 48, 64
10, 194160, Note_on_c, 10, 48, 105
10, 194244, Note_off_c, 10, 48, 64
10, 194280, Note_on_c, 10, 48, 105
10, 194364, Note_off_c, 10, 48, 64
10, 194400, Note_on_c, 10, 45, 105
10, 194484, Note_off_c, 10, 45, 64
10, 194520, Note_on_c, 10, 45, 105
10, 194604, Note_off_c, 10, 45, 64
10, 194640, Note_on_c, 10, 45, 105
10, 194724, Note_off_c, 10, 45, 64
10, 194760, Note_on_c, 10, 45, 105
10, 194844, Note_off_c, 10, 45, 64
10, 194880, Note_on_c, 10, 42, 105
10, 195024, Note_off_c, 10, 42, 64
10, 195120, Note_on_c, 10, 54, 105
10, 195264, Note_off_c, 10, 54, 64
10, 197520, Note_on_c, 10, 51, 58
10, 197760, Note_off_c, 10, 51, 64
10, 197760, Note_on_c, 10, 50, 58
10, 197904, Note_off_c, 10, 50, 64
10, 198000, Note_on_c, 10, 60, 30
10, 198144, Note_off_c, 10, 60, 64
10, 198720, Note_on_c, 10, 54, 58
10, 199200, Note_off_c, 10, 54, 64
10, 199200, Note_on_c, 10, 55, 58
10, 199584, Note_off_c, 10, 55, 64
10, 199680, Note_on_c, 10, 48, 58
10, 200160, Note_off_c, 10, 48, 64
10, 200160, Note_on_c, 10, 50, 58
10, 200544, Note_off_c, 10, 50, 64
10, 200640, Note_on_c, 10, 43, 105
10, 200724, Note_off_c, 10, 43, 64
10, 200760, Note_on_c, 10, 47, 105
10, 200820, Note_off_c, 10, 47, 64
10, 200820, Note_on_c, 10, 50, 105
10, 200862, Note_off_c, 10, 50, 64
10, 200880, Note_on_c, 10, 55, 105
10, 200964, Note_off_c, 10, 55, 64
10, 201000, Note_on_c, 10, 55, 105
10, 201084, Note_off_c, 10, 55, 64
10, 201120, Note_on_c, 10, 55, 105
10, 201204, Note_off_c, 10, 55, 64
10, 201240, Note_on_c, 10, 55, 105
10, 201324, Note_off_c, 10, 55, 64
10, 201360, Note_on_c, 10, 55, 105
10, 201444, Note_off_c, 10, 55, 64
10, 201480, Note_on_c, 10, 55, 105
10, 201564, Note_off_c, 10, 55, 64
10, 201600, Note_on_c, 10, 55, 105
10, 201684, Note_off_c, 10, 55, 64
10, 201720, Note_on_c, 10, 55, 105
10, 201804, Note_off_c, 10, 55, 64
10, 201840, Note_on_c, 10, 55, 105
10, 201924, Note_off_c, 10, 55, 64
10, 201960, Note_on_c, 10, 55, 105
10, 202044, Note_off_c, 10, 55, 64
10, 202080, Note_on_c, 10, 55, 105
10, 202164, Note_off_c, 10, 55, 64
10, 202200, Note_on_c, 10, 55, 105
10, 202284, Note_off_c, 10, 55, 64
10, 202320, Note_on_c, 10, 55, 105
10, 202404, Note_off_c, 10, 55, 64
10, 202440, Note_on_c, 10, 55, 105
10, 202524, Note_off_c, 10, 55, 64
10, 202560, Note_on_c, 10, 55, 105
10, 202644, Note_off_c, 10, 55, 64
10, 202680, Note_on_c, 10, 55, 105
10, 202764, Note_off_c, 10, 55, 64
10, 202800, Note_on_c, 10, 64, 105
10, 202884, Note_off_c, 10, 64, 64
10, 202920, Note_on_c, 10, 64, 105
10, 203004, Note_off_c, 10, 64, 64
10, 203040, Note_on_c, 10, 60, 105
10, 203124, Note_off_c, 10, 60, 64
10, 203160, Note_on_c, 10, 60, 105
10, 203244, Note_off_c, 10, 60, 64
10, 203280, Note_on_c, 10, 62, 105
10, 203364, Note_off_c, 10, 62, 64
10, 203400, Note_on_c, 10, 62, 105
10, 203484, Note_off_c, 10, 62, 64
10, 203520, Note_on_c, 10, 55, 105
10, 203604, Note_off_c, 10, 55, 64
10, 203640, Note_on_c, 10, 50, 105
10, 203680, Note_off_c, 10, 50, 64
10, 203680, Note_on_c, 10, 52, 105
10, 203720, Note_off_c, 10, 52, 64
10, 203720, Note_on_c, 10, 54, 105
10, 203760, Note_off_c, 10, 54, 64
10, 203760, Note_on_c, 10, 55, 105
10, 203844, Note_off_c, 10, 55, 64
10, 203880, Note_on_c, 10, 55, 105
10, 203964, Note_off_c, 10, 55, 64
10, 204000, Note_on_c, 10, 55, 105
10, 204084, Note_off_c, 10, 55, 64
10, 204120, Note_on_c, 10, 55, 105
10, 204204, Note_off_c, 10, 55, 64
10, 204240, Note_on_c, 10, 55, 105
10, 204324, Note_off_c, 10, 55, 64
10, 204360, Note_on_c, 10, 55, 105
10, 204444, Note_off_c, 10, 55, 64
10, 204480, Note_on_c, 10, 55, 105
10, 204564, Note_off_c, 10, 55, 64
10, 204600, Note_on_c, 10, 55, 105
10, 204684, Note_off_c, 10, 55, 64
10, 204720, Note_on_c, 10, 55, 105
10, 204804, Note_off_c, 10, 55, 64
10, 204840, Note_on_c, 10, 55, 105
10, 204924, Note_off_c, 10, 55, 64
10, 204960, Note_on_c, 10, 55, 105
10, 205044, Note_off_c, 10, 55, 64
10, 205080, Note_on_c, 10, 55, 105
10, 205164, Note_off_c, 10, 55, 64
10, 205200, Note_on_c, 10, 55, 105
10, 205284, Note_off_c, 10, 55, 64
10, 205320, Note_on_c, 10, 55, 105
10, 205404, Note_off_c, 10, 55, 64
10, 205440, Note_on_c, 10, 55, 105
10, 205524, Note_off_c, 10, 55, 64
10, 205560, Note_on_c, 10, 55, 105
10, 205644, Note_off_c, 10, 55, 64
10, 205680, Note_on_c, 10, 64, 105
10, 205764, Note_off_c, 10, 64, 64
10, 205800, Note_on_c, 10, 64, 105
10, 205884, Note_off_c, 10, 64, 64
10, 205920, Note_on_c, 10, 60, 105
10, 206004, Note_off_c, 10, 60, 64
10, 206040, Note_on_c, 10, 60, 105
10, 206124, Note_off_c, 10, 60, 64
10, 206160, Note_on_c, 10, 62, 105
10, 206244, Note_off_c, 10, 62, 64
10, 206280, Note_on_c, 10, 62, 105
10, 206364, Note_off_c, 10, 62, 64
10, 206400, Note_on_c, 10, 59, 58
10, 206496, Note_off_c, 10, 59, 64
10, 206640, Note_on_c, 10, 64, 58
10, 206736, Note_off_c, 10, 64, 64
10, 206880, Note_on_c, 10, 60, 58
10, 206976, Note_off_c, 10, 60, 64
10, 207120, Note_on_c, 10, 62, 58
10, 207216, Note_off_c, 10, 62, 64
10, 207360, Note_on_c, 10, 59, 105
10, 207456, Note_off_c, 10, 59, 64
10, 207480, Note_on_c, 10, 59, 105
10, 207576, Note_off_c, 10, 59, 64
10, 207600, Note_on_c, 10, 64, 105
10, 207696, Note_off_c, 10, 64, 64
10, 207720, Note_on_c, 10, 64, 105
10, 207816, Note_off_c, 10, 64, 64
10, 207840, Note_on_c, 10, 60, 105
10, 207936, Note_off_c, 10, 60, 64
10, 207960, Note_on_c, 10, 60, 105
10, 208056, Note_off_c, 10, 60, 64
10, 208080, Note_on_c, 10, 62, 105
10, 208176, Note_off_c, 10, 62, 64
10, 208200, Note_on_c, 10, 62, 105
10, 208296, Note_off_c, 10, 62, 64
10, 208320, Note_on_c, 10, 55, 105
10, 208512, Note_off_c, 10, 55, 64
10, 212160, Note_on_c, 10, 52, 58
10, 212352, Note_off_c, 10, 52, 64
10, 212640, Note_on_c, 10, 57, 58
10, 212832, Note_off_c, 10, 57, 64
10, 213120, Note_on_c, 10, 52, 58
10, 213312, Note_off_c, 10, 52, 64
10, 213600, Note_on_c, 10, 45, 58
10, 213792, Note_off_c, 10, 45, 64
10, 214080, Note_on_c, 10, 50, 58
10, 214560, Note_off_c, 10, 50, 64
10, 214560, Note_on_c, 10, 48, 58
10, 214944, Note_off_c, 10, 48, 64
10, 215040, Note_on_c, 10, 50, 58
10, 215520, Note_off_c, 10, 50, 64
10, 215520, Note_on_c, 10, 48, 58
10, 215712, Note_off_c, 10, 48, 64
10, 216000, Note_on_c, 10, 50, 58
10, 216192, Note_off_c, 10, 50, 64
10, 216480, Note_on_c, 10, 52, 58
10, 216672, Note_off_c, 10, 52, 64
10, 216960, Note_on_c, 10, 45, 58
10, 217152, Note_off_c, 10, 45, 64
10, 218880, Note_on_c, 10, 55, 58
10, 220800, Note_off_c, 10, 55, 64
10, 220800, Note_on_c, 10, 53, 58
10, 220992, Note_off_c, 10, 53, 64
10, 223680, Note_on_c, 10, 53, 58
10, 225600, Note_off_c, 10, 53, 64
10, 225600, Note_on_c, 10, 52, 58
10, 225792, Note_off_c, 10, 52, 64
10, 228840, Note_on_c, 10, 43, 58
10, 228936, Note_off_c, 10, 43, 64
10, 228960, Note_on_c, 10, 48, 105
10, 229080, Note_off_c, 10, 48, 64
10, 229080, Note_on_c, 10, 47, 105
10, 229200, Note_off_c, 10, 47, 64
10, 229200, Note_on_c, 10, 50, 105
10, 229320, Note_off_c, 10, 50, 64
10, 229320, Note_on_c, 10, 48, 105
10, 229416, Note_off_c, 10, 48, 64
10, 229440, Note_on_c, 10, 52, 105
10, 229560, Note_off_c, 10, 52, 64
10, 229560, Note_on_c, 10, 50, 105
10, 229680, Note_off_c, 10, 50, 64
10, 229680, Note_on_c, 10, 53, 105
10, 229800, Note_off_c, 10, 53, 64
10, 229800, Note_on_c, 10, 52, 105
10, 229920, Note_off_c, 10, 52, 64
10, 229920, Note_on_c, 10, 57, 105
10, 230040, Note_off_c, 10, 57, 64
10, 230040, Note_on_c, 10, 55, 105
10, 230160, Note_off_c, 10, 55, 64
10, 230160, Note_on_c, 10, 60, 105
10, 230280, Note_off_c, 10, 60, 64
10, 230280, Note_on_c, 10, 58, 105
10, 230376, Note_off_c, 10, 58, 64
10, 230400, Note_on_c, 10, 58, 105
10, 230592, Note_off_c, 10, 58, 64
10, 230880, Note_on_c, 10, 58, 92
10, 231048, Note_off_c, 10, 58, 64
10, 231120, Note_on_c, 10, 58, 116
10, 231204, Note_off_c, 10, 58, 64
10, 231240, Note_on_c, 10, 58, 116
10, 231324, Note_off_c, 10, 58, 64
10, 231360, Note_on_c, 10, 57, 116
10, 231528, Note_off_c, 10, 57, 64
10, 231600, Note_on_c, 10, 57, 116
10, 231684, Note_off_c, 10, 57, 64
10, 231720, Note_on_c, 10, 57, 116
10, 231804, Note_off_c, 10, 57, 64
10, 231840, Note_on_c, 10, 55, 116
10, 232008, Note_off_c, 10, 55, 64
10, 232080, Note_on_c, 10, 55, 116
10, 232164, Note_off_c, 10, 55, 64
10, 232200, Note_on_c, 10, 55, 116
10, 232284, Note_off_c, 10, 55, 64
10, 232320, Note_on_c, 10, 53, 105
10, 232512, Note_off_c, 10, 53, 64
10, 232800, Note_on_c, 10, 53, 58
10, 232992, Note_off_c, 10, 53, 64
10, 233280, Note_on_c, 10, 52, 58
10, 233472, Note_off_c, 10, 52, 64
10, 233760, Note_on_c, 10, 57, 58
10, 233952, Note_off_c, 10, 57, 64
10, 234240, Note_on_c, 10, 50, 58
10, 234432, Note_off_c, 10, 50, 64
10, 234720, Note_on_c, 10, 52, 58
10, 234912, Note_off_c, 10, 52, 64
10, 235200, Note_on_c, 10, 50, 58
10, 235392, Note_off_c, 10, 50, 64
10, 235680, Note_on_c, 10, 55, 58
10, 235872, Note_off_c, 10, 55, 64
10, 236160, Note_on_c, 10, 48, 58
10, 236352, Note_off_c, 10, 48, 64
10, 236640, Note_on_c, 10, 57, 58
10, 236832, Note_off_c, 10, 57, 64
10, 237120, Note_on_c, 10, 55, 58
10, 237312, Note_off_c, 10, 55, 64
10, 237600, Note_on_c, 10, 60, 58
10, 237792, Note_off_c, 10, 60, 64
10, 238080, Note_on_c, 10, 53, 58
10, 238272, Note_off_c, 10, 53, 64
10, 238560, Note_on_c, 10, 55, 58
10, 238752, Note_off_c, 10, 55, 64
10, 239040, Note_on_c, 10, 56, 72
10, 239952, Note_off_c, 10, 56, 64
10, 240000, Note_on_c, 10, 55, 105
10, 240168, Note_off_c, 10, 55, 64
10, 240720, Note_on_c, 10, 55, 105
10, 240888, Note_off_c, 10, 55, 64
10, 240960, Note_on_c, 10, 52, 105
10, 241128, Note_off_c, 10, 52, 64
10, 241680, Note_on_c, 10, 52, 105
10, 241848, Note_off_c, 10, 52, 64
10, 241920, Note_on_c, 10, 47, 105
10, 242088, Note_off_c, 10, 47, 64
10, 242640, Note_on_c, 10, 47, 105
10, 242808, Note_off_c, 10, 47, 64
10, 242880, Note_on_c, 10, 48, 105
10, 243048, Note_off_c, 10, 48, 64
10, 243600, Note_on_c, 10, 48, 105
10, 243768, Note_off_c, 10, 48, 64
10, 243840, Note_on_c, 10, 55, 105
10, 244008, Note_off_c, 10, 55, 64
10, 244080, Note_on_c, 10, 52, 105
10, 244248, Note_off_c, 10, 52, 64
10, 244320, Note_on_c, 10, 47, 105
10, 244488, Note_off_c, 10, 47, 64
10, 244560, Note_on_c, 10, 48, 105
10, 244728, Note_off_c, 10, 48, 64
10, 244800, Note_on_c, 10, 55, 105
10, 244968, Note_off_c, 10, 55, 64
10, 245040, Note_on_c, 10, 52, 105
10, 245208, Note_off_c, 10, 52, 64
10, 245280, Note_on_c, 10, 47, 105
10, 245448, Note_off_c, 10, 47, 64
10, 245520, Note_on_c, 10, 48, 105
10, 245688, Note_off_c, 10, 48, 64
10, 245760, Note_on_c, 10, 43, 105
10, 245952, Note_off_c, 10, 43, 64
10, 250560, Note_on_c, 10, 48, 58
10, 250752, Note_off_c, 10, 48, 64
10, 250800, Note_on_c, 10, 48, 72
10, 250992, Note_off_c, 10, 48, 64
10, 251040, Note_on_c, 10, 48, 72
10, 251232, Note_off_c, 10, 48, 64
10, 251280, Note_on_c, 10, 48, 72
10, 251472, Note_off_c, 10, 48, 64
10, 251520, Note_on_c, 10, 48, 72
10, 251712, Note_off_c, 10, 48, 64
10, 251760, Note_on_c, 10, 48, 72
10, 251952, Note_off_c, 10, 48, 64
10, 252000, Note_on_c, 10, 48, 72
10, 252192, Note_off_c, 10, 48, 64
10, 252240, Note_on_c, 10, 48, 72
10, 252432, Note_off_c, 10, 48, 64
10, 252480, Note_on_c, 10, 48, 72
10, 252864, Note_off_c, 10, 48, 64
10, 253200, Note_on_c, 10, 48, 72
10, 253344, Note_off_c, 10, 48, 64
10, 253440, Note_on_c, 10, 53, 72
10, 253584, Note_off_c, 10, 53, 64
10, 253680, Note_on_c, 10, 48, 72
10, 253824, Note_off_c, 10, 48, 64
10, 254400, Note_on_c, 10, 57, 72
10, 255360, Note_off_c, 10, 57, 64
10, 255360, Note_on_c, 10, 55, 72
10, 256320, Note_off_c, 10, 55, 64
10, 256320, Note_on_c, 10, 53, 72
10, 256512, Note_off_c, 10, 53, 64
10, 256560, Note_on_c, 10, 50, 72
10, 256800, Note_off_c, 10, 50, 64
10, 256800, Note_on_c, 10, 52, 72
10, 256944, Note_off_c, 10, 52, 64
10, 257040, Note_on_c, 10, 47, 72
10, 257184, Note_off_c, 10, 47, 64
10, 257280, Note_on_c, 10, 48, 72
10, 257760, Note_off_c, 10, 48, 64
10, 257760, Note_on_c, 10, 52, 72
10, 258144, Note_off_c, 10, 52, 64
10, 258240, Note_on_c, 10, 53, 72
10, 259008, Note_off_c, 10, 53, 64
10, 259200, Note_on_c, 10, 55, 58
10, 259776, Note_off_c, 10, 55, 64
10, 260160, Note_on_c, 10, 48, 105
10, 260256, Note_off_c, 10, 48, 64
10, 260280, Note_on_c, 10, 48, 105
10, 260376, Note_off_c, 10, 48, 64
10, 260400, Note_on_c, 10, 48, 105
10, 260496, Note_off_c, 10, 48, 64
10, 260520, Note_on_c, 10, 48, 105
10, 260616, Note_off_c, 10, 48, 64
10, 260640, Note_on_c, 10, 48, 105
10, 260736, Note_off_c, 10, 48, 64
10, 260760, Note_on_c, 10, 48, 105
10, 260856, Note_off_c, 10, 48, 64
10, 260880, Note_on_c, 10, 48, 105
10, 260976, Note_off_c, 10, 48, 64
10, 261000, Note_on_c, 10, 48, 105
10, 261096, Note_off_c, 10, 48, 64
10, 261120, Note_on_c, 10, 48, 105
10, 261216, Note_off_c, 10, 48, 64
10, 261240, Note_on_c, 10, 48, 105
10, 261336, Note_off_c, 10, 48, 64
10, 261360, Note_on_c, 10, 48, 105
10, 261456, Note_off_c, 10, 48, 64
10, 261480, Note_on_c, 10, 48, 105
10, 261576, Note_off_c, 10, 48, 64
10, 261600, Note_on_c, 10, 48, 105
10, 261696, Note_off_c, 10, 48, 64
10, 261720, Note_on_c, 10, 48, 105
10, 261816, Note_off_c, 10, 48, 64
10, 261840, Note_on_c, 10, 48, 105
10, 261936, Note_off_c, 10, 48, 64
10, 261960, Note_on_c, 10, 48, 105
10, 262056, Note_off_c, 10, 48, 64
10, 262080, Note_on_c, 10, 48, 105
10, 262464, Note_off_c, 10, 48, 64
10, 262800, Note_on_c, 10, 48, 105
10, 262968, Note_off_c, 10, 48, 64
10, 263040, Note_on_c, 10, 53, 105
10, 263208, Note_off_c, 10, 53, 64
10, 263280, Note_on_c, 10, 48, 105
10, 263448, Note_off_c, 10, 48, 64
10, 263760, Note_on_c, 10, 48, 105
10, 263928, Note_off_c, 10, 48, 64
10, 264000, Note_on_c, 10, 53, 105
10, 264168, Note_off_c, 10, 53, 64
10, 264240, Note_on_c, 10, 48, 105
10, 264408, Note_off_c, 10, 48, 64
10, 264720, Note_on_c, 10, 48, 105
10, 264888, Note_off_c, 10, 48, 64
10, 264960, Note_on_c, 10, 53, 105
10, 265128, Note_off_c, 10, 53, 64
10, 265200, Note_on_c, 10, 48, 105
10, 265368, Note_off_c, 10, 48, 64
10, 265440, Note_on_c, 10, 53, 105
10, 265608, Note_off_c, 10, 53, 64
10, 265680, Note_on_c, 10, 48, 105
10, 265848, Note_off_c, 10, 48, 64
10, 265920, Note_on_c, 10, 53, 105
10, 266088, Note_off_c, 10, 53, 64
10, 266160, Note_on_c, 10, 48, 105
10, 266328, Note_off_c, 10, 48, 64
10, 266880, Note_on_c, 10, 57, 58
10, 267840, Note_off_c, 10, 57, 64
10, 267840, Note_on_c, 10, 55, 58
10, 268320, Note_off_c, 10, 55, 64
10, 268320, Note_on_c, 10, 48, 58
10, 268800, Note_off_c, 10, 48, 64
10, 268800, Note_on_c, 10, 53, 58
10, 268992, Note_off_c, 10, 53, 64
10, 270720, Note_on_c, 10, 55, 72
10, 270912, Note_off_c, 10, 55, 64
10, 270960, Note_on_c, 10, 55, 72
10, 271152, Note_off_c, 10, 55, 64
10, 271200, Note_on_c, 10, 55, 72
10, 271392, Note_off_c, 10, 55, 64
10, 271440, Note_on_c, 10, 55, 72
10, 271632, Note_off_c, 10, 55, 64
10, 271680, Note_on_c, 10, 48, 105
10, 271764, Note_off_c, 10, 48, 64
10, 271800, Note_on_c, 10, 52, 105
10, 271884, Note_off_c, 10, 52, 64
10, 271920, Note_on_c, 10, 55, 105
10, 272004, Note_off_c, 10, 55, 64
10, 272040, Note_on_c, 10, 60, 105
10, 272124, Note_off_c, 10, 60, 64
10, 272160, Note_on_c, 10, 64, 105
10, 272244, Note_off_c, 10, 64, 64
10, 272280, Note_on_c, 10, 62, 105
10, 272364, Note_off_c, 10, 62, 64
10, 272400, Note_on_c, 10, 64, 105
10, 272484, Note_off_c, 10, 64, 64
10, 272520, Note_on_c, 10, 60, 105
10, 272604, Note_off_c, 10, 60, 64
10, 272640, Note_on_c, 10, 59, 105
10, 272724, Note_off_c, 10, 59, 64
10, 272760, Note_on_c, 10, 60, 105
10, 272844, Note_off_c, 10, 60, 64
10, 272880, Note_on_c, 10, 62, 105
10, 272964, Note_off_c, 10, 62, 64
10, 273000, Note_on_c, 10, 60, 105
10, 273084, Note_off_c, 10, 60, 64
10, 273120, Note_on_c, 10, 59, 105
10, 273204, Note_off_c, 10, 59, 64
10, 273240, Note_on_c, 10, 57, 105
10, 273324, Note_off_c, 10, 57, 64
10, 273360, Note_on_c, 10, 55, 105
10, 273444, Note_off_c, 10, 55, 64
10, 273480, Note_on_c, 10, 53, 105
10, 273564, Note_off_c, 10, 53, 64
10, 273600, Note_on_c, 10, 52, 105
10, 273684, Note_off_c, 10, 52, 64
10, 273720, Note_on_c, 10, 53, 105
10, 273804, Note_off_c, 10, 53, 64
10, 273840, Note_on_c, 10, 55, 105
10, 273924, Note_off_c, 10, 55, 64
10, 273960, Note_on_c, 10, 52, 105
10, 274044, Note_off_c, 10, 52, 64
10, 274080, Note_on_c, 10, 57, 105
10, 274164, Note_off_c, 10, 57, 64
10, 274200, Note_on_c, 10, 59, 105
10, 274284, Note_off_c, 10, 59, 64
10, 274320, Note_on_c, 10, 60, 105
10, 274404, Note_off_c, 10, 60, 64
10, 274440, Note_on_c, 10, 57, 105
10, 274524, Note_off_c, 10, 57, 64
10, 274560, Note_on_c, 10, 53, 105
10, 274644, Note_off_c, 10, 53, 64
10, 274680, Note_on_c, 10, 50, 105
10, 274764, Note_off_c, 10, 50, 64
10, 274800, Note_on_c, 10, 52, 105
10, 274884, Note_off_c, 10, 52, 64
10, 274920, Note_on_c, 10, 53, 105
10, 275004, Note_off_c, 10, 53, 64
10, 275040, Note_on_c, 10, 55, 105
10, 275124, Note_off_c, 10, 55, 64
10, 275160, Note_on_c, 10, 53, 105
10, 275244, Note_off_c, 10, 53, 64
10, 275280, Note_on_c, 10, 55, 105
10, 275364, Note_off_c, 10, 55, 64
10, 275400, Note_on_c, 10, 43, 105
10, 275484, Note_off_c, 10, 43, 64
10, 275520, Note_on_c, 10, 48, 105
10, 275604, Note_off_c, 10, 48, 64
10, 275640, Note_on_c, 10, 52, 105
10, 275724, Note_off_c, 10, 52, 64
10, 275760, Note_on_c, 10, 55, 105
10, 275844, Note_off_c, 10, 55, 64
10, 275880, Note_on_c, 10, 60, 105
10, 275964, Note_off_c, 10, 60, 64
10, 276000, Note_on_c, 10, 64, 105
10, 276084, Note_off_c, 10, 64, 64
10, 276120, Note_on_c, 10, 62, 105
10, 276204, Note_off_c, 10, 62, 64
10, 276240, Note_on_c, 10, 64, 105
10, 276324, Note_off_c, 10, 64, 64
10, 276360, Note_on_c, 10, 60, 105
10, 276444, Note_off_c, 10, 60, 64
10, 276480, Note_on_c, 10, 59, 105
10, 276564, Note_off_c, 10, 59, 64
10, 276600, Note_on_c, 10, 60, 105
10, 276684, Note_off_c, 10, 60, 64
10, 276720, Note_on_c, 10, 62, 105
10, 276804, Note_off_c, 10, 62, 64
10, 276840, Note_on_c, 10, 60, 105
10, 276924, Note_off_c, 10, 60, 64
10, 276960, Note_on_c, 10, 59, 105
10, 277044, Note_off_c, 10, 59, 64
10, 277080, Note_on_c, 10, 57, 105
10, 277164, Note_off_c, 10, 57, 64
10, 277200, Note_on_c, 10, 55, 105
10, 277284, Note_off_c, 10, 55, 64
10, 277320, Note_on_c, 10, 53, 105
10, 277404, Note_off_c, 10, 53, 64
10, 277440, Note_on_c, 10, 52, 105
10, 277524, Note_off_c, 10, 52, 64
10, 277560, Note_on_c, 10, 53, 105
10, 277644, Note_off_c, 10, 53, 64
10, 277680, Note_on_c, 10, 55, 105
10, 277764, Note_off_c, 10, 55, 64
10, 277800, Note_on_c, 10, 52, 105
10, 277884, Note_off_c, 10, 52, 64
10, 277920, Note_on_c, 10, 57, 105
10, 278004, Note_off_c, 10, 57, 64
10, 278040, Note_on_c, 10, 59, 105
10, 278124, Note_off_c, 10, 59, 64
10, 278160, Note_on_c, 10, 60, 105
10, 278244, Note_off_c, 10, 60, 64
10, 278280, Note_on_c, 10, 57, 105
10, 278364, Note_off_c, 10, 57, 64
10, 278400, Note_on_c, 10, 54, 105
10, 278484, Note_off_c, 10, 54, 64
10, 278520, Note_on_c, 10, 55, 105
10, 278604, Note_off_c, 10, 55, 64
10, 278640, Note_on_c, 10, 57, 105
10, 278724, Note_off_c, 10, 57, 64
10, 278760, Note_on_c, 10, 55, 105
10, 278844, Note_off_c, 10, 55, 64
10, 278880, Note_on_c, 10, 54, 105
10, 278964, Note_off_c, 10, 54, 64
10, 279000, Note_on_c, 10, 50, 105
10, 279084, Note_off_c, 10, 50, 64
10, 279120, Note_on_c, 10, 52, 105
10, 279204, Note_off_c, 10, 52, 64
10, 279240, Note_on_c, 10, 54, 105
10, 279324, Note_off_c, 10, 54, 64
10, 279360, Note_on_c, 10, 55, 105
10, 279444, Note_off_c, 10, 55, 64
10, 279480, Note_on_c, 10, 58, 105
10, 279564, Note_off_c, 10, 58, 64
10, 279600, Note_on_c, 10, 62, 105
10, 279684, Note_off_c, 10, 62, 64
10, 279720, Note_on_c, 10, 60, 105
10, 279804, Note_off_c, 10, 60, 64
10, 279840, Note_on_c, 10, 58, 105
10, 279924, Note_off_c, 10, 58, 64
10, 279960, Note_on_c, 10, 57, 105
10, 280044, Note_off_c, 10, 57, 64
10, 280080, Note_on_c, 10, 55, 105
10, 280164, Note_off_c, 10, 55, 64
10, 280200, Note_on_c, 10, 53, 105
10, 280284, Note_off_c, 10, 53, 64
10, 280320, Note_on_c, 10, 52, 105
10, 280404, Note_off_c, 10, 52, 64
10, 280440, Note_on_c, 10, 53, 105
10, 280524, Note_off_c, 10, 53, 64
10, 280560, Note_on_c, 10, 55, 105
10, 280644, Note_off_c, 10, 55, 64
10, 280680, Note_on_c, 10, 53, 105
10, 280764, Note_off_c, 10, 53, 64
10, 280800, Note_on_c, 10, 52, 105
10, 280884, Note_off_c, 10, 52, 64
10, 280920, Note_on_c, 10, 53, 105
10, 281004, Note_off_c, 10, 53, 64
10, 281040, Note_on_c, 10, 50, 105
10, 281124, Note_off_c, 10, 50, 64
10, 281160, Note_on_c, 10, 52, 105
10, 281244, Note_off_c, 10, 52, 64
10, 281280, Note_on_c, 10, 53, 105
10, 281364, Note_off_c, 10, 53, 64
10, 281400, Note_on_c, 10, 55, 105
10, 281484, Note_off_c, 10, 55, 64
10, 281520, Note_on_c, 10, 57, 105
10, 281604, Note_off_c, 10, 57, 64
10, 281640, Note_on_c, 10, 55, 105
10, 281724, Note_off_c, 10, 55, 64
10, 281760, Note_on_c, 10, 53, 105
10, 281844, Note_off_c, 10, 53, 64
10, 281880, Note_on_c, 10, 55, 105
10, 281964, Note_off_c, 10, 55, 64
10, 282000, Note_on_c, 10, 52, 105
10, 282084, Note_off_c, 10, 52, 64
10, 282120, Note_on_c, 10, 53, 105
10, 282204, Note_off_c, 10, 53, 64
10, 282240, Note_on_c, 10, 50, 105
10, 282324, Note_off_c, 10, 50, 64
10, 282360, Note_on_c, 10, 62, 105
10, 282444, Note_off_c, 10, 62, 64
10, 282480, Note_on_c, 10, 58, 105
10, 282564, Note_off_c, 10, 58, 64
10, 282600, Note_on_c, 10, 57, 105
10, 282684, Note_off_c, 10, 57, 64
10, 282720, Note_on_c, 10, 55, 105
10, 282804, Note_off_c, 10, 55, 64
10, 282840, Note_on_c, 10, 58, 105
10, 282924, Note_off_c, 10, 58, 64
10, 282960, Note_on_c, 10, 55, 105
10, 283044, Note_off_c, 10, 55, 64
10, 283080, Note_on_c, 10, 53, 105
10, 283164, Note_off_c, 10, 53, 64
10, 283200, Note_on_c, 10, 52, 105
10, 283284, Note_off_c, 10, 52, 64
10, 283320, Note_on_c, 10, 53, 105
10, 283404, Note_off_c, 10, 53, 64
10, 283440, Note_on_c, 10, 55, 105
10, 283524, Note_off_c, 10, 55, 64
10, 283560, Note_on_c, 10, 53, 105
10, 283644, Note_off_c, 10, 53, 64
10, 283680, Note_on_c, 10, 52, 105
10, 283764, Note_off_c, 10, 52, 64
10, 283800, Note_on_c, 10, 48, 105
10, 283884, Note_off_c, 10, 48, 64
10, 283920, Note_on_c, 10, 50, 105
10, 284004, Note_off_c, 10, 50, 64
10, 284040, Note_on_c, 10, 52, 105
10, 284124, Note_off_c, 10, 52, 64
10, 284160, Note_on_c, 10, 53, 105
10, 284244, Note_off_c, 10, 53, 64
10, 284280, Note_on_c, 10, 57, 105
10, 284364, Note_off_c, 10, 57, 64
10, 284400, Note_on_c, 10, 60, 105
10, 284484, Note_off_c, 10, 60, 64
10, 284520, Note_on_c, 10, 60, 105
10, 284604, Note_off_c, 10, 60, 64
10, 284640, Note_on_c, 10, 60, 105
10, 284724, Note_off_c, 10, 60, 64
10, 284760, Note_on_c, 10, 60, 105
10, 284844, Note_off_c, 10, 60, 64
10, 284880, Note_on_c, 10, 57, 105
10, 284964, Note_off_c, 10, 57, 64
10, 285000, Note_on_c, 10, 53, 105
10, 285084, Note_off_c, 10, 53, 64
10, 285120, Note_on_c, 10, 58, 105
10, 285204, Note_off_c, 10, 58, 64
10, 285240, Note_on_c, 10, 55, 105
10, 285324, Note_off_c, 10, 55, 64
10, 285360, Note_on_c, 10, 57, 105
10, 285444, Note_off_c, 10, 57, 64
10, 285480, Note_on_c, 10, 53, 105
10, 285564, Note_off_c, 10, 53, 64
10, 285600, Note_on_c, 10, 52, 105
10, 285684, Note_off_c, 10, 52, 64
10, 285720, Note_on_c, 10, 55, 105
10, 285804, Note_off_c, 10, 55, 64
10, 285840, Note_on_c, 10, 52, 105
10, 285924, Note_off_c, 10, 52, 64
10, 285960, Note_on_c, 10, 48, 105
10, 286044, Note_off_c, 10, 48, 64
10, 286080, Note_on_c, 10, 53, 105
10, 286164, Note_off_c, 10, 53, 64
10, 286200, Note_on_c, 10, 57, 105
10, 286284, Note_off_c, 10, 57, 64
10, 286320, Note_on_c, 10, 60, 105
10, 286404, Note_off_c, 10, 60, 64
10, 286440, Note_on_c, 10, 60, 105
10, 286524, Note_off_c, 10, 60, 64
10, 286560, Note_on_c, 10, 60, 105
10, 286644, Note_off_c, 10, 60, 64
10, 286680, Note_on_c, 10, 60, 105
10, 286764, Note_off_c, 10, 60, 64
10, 286800, Note_on_c, 10, 57, 105
10, 286884, Note_off_c, 10, 57, 64
10, 286920, Note_on_c, 10, 53, 105
10, 287004, Note_off_c, 10, 53, 64
10, 287040, Note_on_c, 10, 58, 105
10, 287124, Note_off_c, 10, 58, 64
10, 287160, Note_on_c, 10, 55, 105
10, 287244, Note_off_c, 10, 55, 64
10, 287280, Note_on_c, 10, 57, 105
10, 287364, Note_off_c, 10, 57, 64
10, 287400, Note_on_c, 10, 53, 105
10, 287484, Note_off_c, 10, 53, 64
10, 287520, Note_on_c, 10, 52, 105
10, 287604, Note_off_c, 10, 52, 64
10, 287640, Note_on_c, 10, 55, 105
10, 287724, Note_off_c, 10, 55, 64
10, 287760, Note_on_c, 10, 52, 105
10, 287844, Note_off_c, 10, 52, 64
10, 287880, Note_on_c, 10, 48, 105
10, 287964, Note_off_c, 10, 48, 64
10, 288000, Note_on_c, 10, 53, 110
10, 288096, Note_off_c, 10, 53, 64
10, 288120, Note_on_c, 10, 41, 72
10, 288216, Note_off_c, 10, 41, 64
10, 288240, Note_on_c, 10, 53, 72
10, 288336, Note_off_c, 10, 53, 64
10, 288360, Note_on_c, 10, 53, 72
10, 288456, Note_off_c, 10, 53, 64
10, 288480, Note_on_c, 10, 53, 72
10, 288576, Note_off_c, 10, 53, 64
10, 288600, Note_on_c, 10, 53, 72
10, 288696, Note_off_c, 10, 53, 64
10, 288720, Note_on_c, 10, 55, 72
10, 288816, Note_off_c, 10, 55, 64
10, 288840, Note_on_c, 10, 55, 72
10, 288936, Note_off_c, 10, 55, 64
10, 288960, Note_on_c, 10, 57, 110
10, 289056, Note_off_c, 10, 57, 64
10, 289080, Note_on_c, 10, 45, 72
10, 289176, Note_off_c, 10, 45, 64
10, 289200, Note_on_c, 10, 57, 72
10, 289296, Note_off_c, 10, 57, 64
10, 289320, Note_on_c, 10, 57, 72
10, 289416, Note_off_c, 10, 57, 64
10, 289440, Note_on_c, 10, 57, 72
10, 289536, Note_off_c, 10, 57, 64
10, 289560, Note_on_c, 10, 57, 72
10, 289656, Note_off_c, 10, 57, 64
10, 289680, Note_on_c, 10, 55, 72
10, 289776, Note_off_c, 10, 55, 64
10, 289800, Note_on_c, 10, 55, 72
10, 289896, Note_off_c, 10, 55, 64
10, 289920, Note_on_c, 10, 53, 72
10, 289992, Note_off_c, 10, 53, 64
10, 290040, Note_on_c, 10, 52, 105
10, 290112, Note_off_c, 10, 52, 64
10, 290160, Note_on_c, 10, 53, 105
10, 290232, Note_off_c, 10, 53, 64
10, 290280, Note_on_c, 10, 52, 105
10, 290352, Note_off_c, 10, 52, 64
10, 290400, Note_on_c, 10, 53, 105
10, 290472, Note_off_c, 10, 53, 64
10, 290520, Note_on_c, 10, 52, 105
10, 290592, Note_off_c, 10, 52, 64
10, 290640, Note_on_c, 10, 53, 105
10, 290712, Note_off_c, 10, 53, 64
10, 290760, Note_on_c, 10, 55, 105
10, 290832, Note_off_c, 10, 55, 64
10, 290880, Note_on_c, 10, 57, 105
10, 290952, Note_off_c, 10, 57, 64
10, 291000, Note_on_c, 10, 56, 105
10, 291072, Note_off_c, 10, 56, 64
10, 291120, Note_on_c, 10, 57, 105
10, 291192, Note_off_c, 10, 57, 64
10, 291240, Note_on_c, 10, 56, 105
10, 291312, Note_off_c, 10, 56, 64
10, 291360, Note_on_c, 10, 57, 105
10, 291432, Note_off_c, 10, 57, 64
10, 291480, Note_on_c, 10, 56, 105
10, 291552, Note_off_c, 10, 56, 64
10, 291600, Note_on_c, 10, 57, 105
10, 291672, Note_off_c, 10, 57, 64
10, 291720, Note_on_c, 10, 52, 105
10, 291792, Note_off_c, 10, 52, 64
10, 291840, Note_on_c, 10, 53, 105
10, 291912, Note_off_c, 10, 53, 64
10, 291960, Note_on_c, 10, 52, 105
10, 292032, Note_off_c, 10, 52, 64
10, 292080, Note_on_c, 10, 53, 105
10, 292152, Note_off_c, 10, 53, 64
10, 292200, Note_on_c, 10, 52, 105
10, 292272, Note_off_c, 10, 52, 64
10, 292320, Note_on_c, 10, 53, 105
10, 292392, Note_off_c, 10, 53, 64
10, 292440, Note_on_c, 10, 52, 105
10, 292512, Note_off_c, 10, 52, 64
10, 292560, Note_on_c, 10, 53, 105
10, 292632, Note_off_c, 10, 53, 64
10, 292680, Note_on_c, 10, 50, 105
10, 292752, Note_off_c, 10, 50, 64
10, 292800, Note_on_c, 10, 52, 105
10, 292872, Note_off_c, 10, 52, 64
10, 292920, Note_on_c, 10, 50, 105
10, 292992, Note_off_c, 10, 50, 64
10, 293040, Note_on_c, 10, 52, 105
10, 293112, Note_off_c, 10, 52, 64
10, 293160, Note_on_c, 10, 50, 105
10, 293232, Note_off_c, 10, 50, 64
10, 293280, Note_on_c, 10, 52, 105
10, 293352, Note_off_c, 10, 52, 64
10, 293400, Note_on_c, 10, 50, 105
10, 293472, Note_off_c, 10, 50, 64
10, 293520, Note_on_c, 10, 52, 105
10, 293592, Note_off_c, 10, 52, 64
10, 293640, Note_on_c, 10, 47, 105
10, 293712, Note_off_c, 10, 47, 64
10, 293760, Note_on_c, 10, 48, 105
10, 293952, Note_off_c, 10, 48, 64
10, 295680, Note_on_c, 10, 56, 58
10, 297552, Note_off_c, 10, 56, 64
10, 297600, Note_on_c, 10, 55, 58
10, 297792, Note_off_c, 10, 55, 64
10, 298080, Note_on_c, 10, 60, 58
10, 298272, Note_off_c, 10, 60, 64
10, 298560, Note_on_c, 10, 55, 58
10, 298752, Note_off_c, 10, 55, 64
10, 299040, Note_on_c, 10, 48, 58
10, 299232, Note_off_c, 10, 48, 64
10, 299520, Note_on_c, 10, 53, 58
10, 300000, Note_off_c, 10, 53, 64
10, 300000, Note_on_c, 10, 52, 58
10, 300456, Note_off_c, 10, 52, 64
10, 300480, Note_on_c, 10, 53, 58
10, 300960, Note_off_c, 10, 53, 64
10, 300960, Note_on_c, 10, 52, 58
10, 301152, Note_off_c, 10, 52, 64
10, 301440, Note_on_c, 10, 53, 58
10, 301632, Note_off_c, 10, 53, 64
10, 301920, Note_on_c, 10, 55, 58
10, 302112, Note_off_c, 10, 55, 64
10, 302400, Note_on_c, 10, 48, 58
10, 302592, Note_off_c, 10, 48, 64
10, 302880, Note_on_c, 10, 57, 105
10, 303036, Note_off_c, 10, 57, 64
10, 303120, Note_on_c, 10, 57, 105
10, 303276, Note_off_c, 10, 57, 64
10, 303360, Note_on_c, 10, 57, 105
10, 303438, Note_off_c, 10, 57, 64
10, 303480, Note_on_c, 10, 59, 105
10, 303558, Note_off_c, 10, 59, 64
10, 303600, Note_on_c, 10, 60, 105
10, 303678, Note_off_c, 10, 60, 64
10, 303720, Note_on_c, 10, 57, 105
10, 303798, Note_off_c, 10, 57, 64
10, 303840, Note_on_c, 10, 56, 105
10, 303918, Note_off_c, 10, 56, 64
10, 303960, Note_on_c, 10, 52, 105
10, 304038, Note_off_c, 10, 52, 64
10, 304080, Note_on_c, 10, 54, 105
10, 304158, Note_off_c, 10, 54, 64
10, 304200, Note_on_c, 10, 56, 105
10, 304278, Note_off_c, 10, 56, 64
10, 304320, Note_on_c, 10, 57, 105
10, 304398, Note_off_c, 10, 57, 64
10, 304440, Note_on_c, 10, 59, 105
10, 304518, Note_off_c, 10, 59, 64
10, 304560, Note_on_c, 10, 60, 105
10, 304638, Note_off_c, 10, 60, 64
10, 304680, Note_on_c, 10, 57, 105
10, 304758, Note_off_c, 10, 57, 64
10, 304800, Note_on_c, 10, 56, 105
10, 304878, Note_off_c, 10, 56, 64
10, 304920, Note_on_c, 10, 52, 105
10, 304998, Note_off_c, 10, 52, 64
10, 305040, Note_on_c, 10, 54, 105
10, 305118, Note_off_c, 10, 54, 64
10, 305160, Note_on_c, 10, 56, 105
10, 305238, Note_off_c, 10, 56, 64
10, 305280, Note_on_c, 10, 57, 105
10, 305358, Note_off_c, 10, 57, 64
10, 305400, Note_on_c, 10, 59, 105
10, 305478, Note_off_c, 10, 59, 64
10, 305520, Note_on_c, 10, 60, 105
10, 305598, Note_off_c, 10, 60, 64
10, 305640, Note_on_c, 10, 57, 105
10, 305718, Note_off_c, 10, 57, 64
10, 305760, Note_on_c, 10, 56, 105
10, 305838, Note_off_c, 10, 56, 64
10, 305880, Note_on_c, 10, 52, 105
10, 305958, Note_off_c, 10, 52, 64
10, 306000, Note_on_c, 10, 54, 105
10, 306078, Note_off_c, 10, 54, 64
10, 306120, Note_on_c, 10, 56, 105
10, 306198, Note_off_c, 10, 56, 64
10, 306240, Note_on_c, 10, 57, 105
10, 306432, Note_off_c, 10, 57, 64
10, 308640, Note_on_c, 10, 53, 58
10, 308832, Note_off_c, 10, 53, 64
10, 309120, Note_on_c, 10, 55, 58
10, 309312, Note_off_c, 10, 55, 64
10, 309600, Note_on_c, 10, 43, 58
10, 309792, Note_off_c, 10, 43, 64
10, 310080, Note_on_c, 10, 48, 58
10, 310272, Note_off_c, 10, 48, 64
10, 311280, Note_on_c, 10, 57, 58
10, 311520, Note_off_c, 10, 57, 64
10, 311520, Note_on_c, 10, 56, 58
10, 311760, Note_off_c, 10, 56, 64
10, 311760, Note_on_c, 10, 52, 58
10, 311952, Note_off_c, 10, 52, 64
10, 312240, Note_on_c, 10, 57, 58
10, 312480, Note_off_c, 10, 57, 64
10, 312480, Note_on_c, 10, 56, 58
10, 312720, Note_off_c, 10, 56, 64
10, 312720, Note_on_c, 10, 52, 58
10, 312912, Note_off_c, 10, 52, 64
10, 313200, Note_on_c, 10, 57, 58
10, 313440, Note_off_c, 10, 57, 64
10, 313440, Note_on_c, 10, 56, 58
10, 313680, Note_off_c, 10, 56, 64
10, 313680, Note_on_c, 10, 52, 58
10, 313872, Note_off_c, 10, 52, 64
10, 313920, Note_on_c, 10, 57, 58
10, 314112, Note_off_c, 10, 57, 64
10, 314400, Note_on_c, 10, 53, 105
10, 314568, Note_off_c, 10, 53, 64
10, 314640, Note_on_c, 10, 53, 105
10, 314808, Note_off_c, 10, 53, 64
10, 314880, Note_on_c, 10, 53, 105
10, 314964, Note_off_c, 10, 53, 64
10, 315000, Note_on_c, 10, 57, 105
10, 315084, Note_off_c, 10, 57, 64
10, 315120, Note_on_c, 10, 55, 105
10, 315204, Note_off_c, 10, 55, 64
10, 315240, Note_on_c, 10, 53, 105
10, 315324, Note_off_c, 10, 53, 64
10, 315360, Note_on_c, 10, 52, 105
10, 315444, Note_off_c, 10, 52, 64
10, 315480, Note_on_c, 10, 48, 105
10, 315564, Note_off_c, 10, 48, 64
10, 315600, Note_on_c, 10, 50, 105
10, 315684, Note_off_c, 10, 50, 64
10, 315720, Note_on_c, 10, 52, 105
10, 315804, Note_off_c, 10, 52, 64
10, 315840, Note_on_c, 10, 53, 105
10, 315924, Note_off_c, 10, 53, 64
10, 315960, Note_on_c, 10, 53, 105
10, 316044, Note_off_c, 10, 53, 64
10, 316080, Note_on_c, 10, 53, 105
10, 316164, Note_off_c, 10, 53, 64
10, 316200, Note_on_c, 10, 53, 105
10, 316284, Note_off_c, 10, 53, 64
10, 316320, Note_on_c, 10, 53, 105
10, 316404, Note_off_c, 10, 53, 64
10, 316440, Note_on_c, 10, 53, 105
10, 316524, Note_off_c, 10, 53, 64
10, 316560, Note_on_c, 10, 53, 105
10, 316644, Note_off_c, 10, 53, 64
10, 316680, Note_on_c, 10, 53, 105
10, 316764, Note_off_c, 10, 53, 64
10, 316800, Note_on_c, 10, 55, 105
10, 316884, Note_off_c, 10, 55, 64
10, 316920, Note_on_c, 10, 55, 105
10, 317004, Note_off_c, 10, 55, 64
10, 317040, Note_on_c, 10, 55, 105
10, 317124, Note_off_c, 10, 55, 64
10, 317160, Note_on_c, 10, 55, 105
10, 317244, Note_off_c, 10, 55, 64
10, 317280, Note_on_c, 10, 55, 105
10, 317364, Note_off_c, 10, 55, 64
10, 317400, Note_on_c, 10, 55, 105
10, 317484, Note_off_c, 10, 55, 64
10, 317520, Note_on_c, 10, 55, 105
10, 317604, Note_off_c, 10, 55, 64
10, 317640, Note_on_c, 10, 55, 105
10, 317724, Note_off_c, 10, 55, 64
10, 317760, Note_on_c, 10, 60, 105
10, 317844, Note_off_c, 10, 60, 64
10, 317880, Note_on_c, 10, 48, 105
10, 317964, Note_off_c, 10, 48, 64
10, 318000, Note_on_c, 10, 50, 105
10, 318084, Note_off_c, 10, 50, 64
10, 318120, Note_on_c, 10, 52, 105
10, 318204, Note_off_c, 10, 52, 64
10, 318240, Note_on_c, 10, 53, 105
10, 318324, Note_off_c, 10, 53, 64
10, 318360, Note_on_c, 10, 57, 105
10, 318444, Note_off_c, 10, 57, 64
10, 318480, Note_on_c, 10, 55, 105
10, 318564, Note_off_c, 10, 55, 64
10, 318600, Note_on_c, 10, 59, 105
10, 318684, Note_off_c, 10, 59, 64
10, 318720, Note_on_c, 10, 57, 105
10, 318804, Note_off_c, 10, 57, 64
10, 318840, Note_on_c, 10, 60, 105
10, 318924, Note_off_c, 10, 60, 64
10, 318960, Note_on_c, 10, 59, 105
10, 319044, Note_off_c, 10, 59, 64
10, 319080, Note_on_c, 10, 62, 105
10, 319164, Note_off_c, 10, 62, 64
10, 319200, Note_on_c, 10, 60, 105
10, 319284, Note_off_c, 10, 60, 64
10, 319320, Note_on_c, 10, 64, 105
10, 319404, Note_off_c, 10, 64, 64
10, 319440, Note_on_c, 10, 62, 105
10, 319524, Note_off_c, 10, 62, 64
10, 319560, Note_on_c, 10, 65, 105
10, 319644, Note_off_c, 10, 65, 64
10, 319680, Note_on_c, 10, 64, 105
10, 319764, Note_off_c, 10, 64, 64
10, 319800, Note_on_c, 10, 60, 105
10, 319884, Note_off_c, 10, 60, 64
10, 319920, Note_on_c, 10, 55, 105
10, 320004, Note_off_c, 10, 55, 64
10, 320040, Note_on_c, 10, 64, 105
10, 320124, Note_off_c, 10, 64, 64
10, 320160, Note_on_c, 10, 65, 105
10, 320244, Note_off_c, 10, 65, 64
10, 320280, Note_on_c, 10, 62, 105
10, 320364, Note_off_c, 10, 62, 64
10, 320400, Note_on_c, 10, 59, 105
10, 320484, Note_off_c, 10, 59, 64
10, 320520, Note_on_c, 10, 55, 105
10, 320604, Note_off_c, 10, 55, 64
10, 320640, Note_on_c, 10, 60, 105
10, 320724, Note_off_c, 10, 60, 64
10, 320760, Note_on_c, 10, 60, 105
10, 320844, Note_off_c, 10, 60, 64
10, 320880, Note_on_c, 10, 52, 105
10, 320964, Note_off_c, 10, 52, 64
10, 321000, Note_on_c, 10, 52, 105
10, 321084, Note_off_c, 10, 52, 64
10, 321120, Note_on_c, 10, 53, 105
10, 321204, Note_off_c, 10, 53, 64
10, 321240, Note_on_c, 10, 53, 105
10, 321324, Note_off_c, 10, 53, 64
10, 321360, Note_on_c, 10, 55, 105
10, 321444, Note_off_c, 10, 55, 64
10, 321480, Note_on_c, 10, 55, 105
10, 321564, Note_off_c, 10, 55, 64
10, 321600, Note_on_c, 10, 60, 105
10, 321684, Note_off_c, 10, 60, 64
10, 321720, Note_on_c, 10, 48, 105
10, 321804, Note_off_c, 10, 48, 64
10, 321840, Note_on_c, 10, 50, 105
10, 321924, Note_off_c, 10, 50, 64
10, 321960, Note_on_c, 10, 52, 105
10, 322044, Note_off_c, 10, 52, 64
10, 322080, Note_on_c, 10, 53, 105
10, 322164, Note_off_c, 10, 53, 64
10, 322200, Note_on_c, 10, 50, 105
10, 322284, Note_off_c, 10, 50, 64
10, 322320, Note_on_c, 10, 55, 105
10, 322404, Note_off_c, 10, 55, 64
10, 322440, Note_on_c, 10, 52, 105
10, 322524, Note_off_c, 10, 52, 64
10, 322560, Note_on_c, 10, 57, 105
10, 322644, Note_off_c, 10, 57, 64
10, 322680, Note_on_c, 10, 53, 105
10, 322764, Note_off_c, 10, 53, 64
10, 322800, Note_on_c, 10, 59, 105
10, 322884, Note_off_c, 10, 59, 64
10, 322920, Note_on_c, 10, 55, 105
10, 323004, Note_off_c, 10, 55, 64
10, 323040, Note_on_c, 10, 60, 105
10, 323124, Note_off_c, 10, 60, 64
10, 323160, Note_on_c, 10, 57, 105
10, 323244, Note_off_c, 10, 57, 64
10, 323280, Note_on_c, 10, 62, 105
10, 323364, Note_off_c, 10, 62, 64
10, 323400, Note_on_c, 10, 59, 105
10, 323484, Note_off_c, 10, 59, 64
10, 323520, Note_on_c, 10, 64, 105
10, 323604, Note_off_c, 10, 64, 64
10, 323640, Note_on_c, 10, 62, 105
10, 323724, Note_off_c, 10, 62, 64
10, 323760, Note_on_c, 10, 61, 105
10, 323844, Note_off_c, 10, 61, 64
10, 323880, Note_on_c, 10, 57, 105
10, 323964, Note_off_c, 10, 57, 64
10, 324000, Note_on_c, 10, 62, 105
10, 324084, Note_off_c, 10, 62, 64
10, 324120, Note_on_c, 10, 60, 105
10, 324204, Note_off_c, 10, 60, 64
10, 324240, Note_on_c, 10, 59, 105
10, 324324, Note_off_c, 10, 59, 64
10, 324360, Note_on_c, 10, 55, 105
10, 324444, Note_off_c, 10, 55, 64
10, 324480, Note_on_c, 10, 60, 105
10, 324564, Note_off_c, 10, 60, 64
10, 324600, Note_on_c, 10, 60, 105
10, 324684, Note_off_c, 10, 60, 64
10, 324720, Note_on_c, 10, 57, 105
10, 324804, Note_off_c, 10, 57, 64
10, 324840, Note_on_c, 10, 57, 105
10, 324924, Note_off_c, 10, 57, 64
10, 324960, Note_on_c, 10, 53, 105
10, 325044, Note_off_c, 10, 53, 64
10, 325080, Note_on_c, 10, 53, 105
10, 325164, Note_off_c, 10, 53, 64
10, 325200, Note_on_c, 10, 55, 105
10, 325284, Note_off_c, 10, 55, 64
10, 325320, Note_on_c, 10, 55, 105
10, 325404, Note_off_c, 10, 55, 64
10, 325440, Note_on_c, 10, 48, 105
10, 325524, Note_off_c, 10, 48, 64
10, 325560, Note_on_c, 10, 60, 105
10, 325644, Note_off_c, 10, 60, 64
10, 325680, Note_on_c, 10, 60, 105
10, 325764, Note_off_c, 10, 60, 64
10, 325800, Note_on_c, 10, 60, 105
10, 325884, Note_off_c, 10, 60, 64
10, 325920, Note_on_c, 10, 60, 105
10, 326112, Note_off_c, 10, 60, 64
10, 326400, Note_on_c, 10, 57, 105
10, 326484, Note_off_c, 10, 57, 64
10, 326520, Note_on_c, 10, 57, 105
10, 326604, Note_off_c, 10, 57, 64
10, 326640, Note_on_c, 10, 57, 105
10, 326724, Note_off_c, 10, 57, 64
10, 326760, Note_on_c, 10, 57, 105
10, 326844, Note_off_c, 10, 57, 64
10, 326880, Note_on_c, 10, 57, 105
10, 327048, Note_off_c, 10, 57, 64
10, 327360, Note_on_c, 10, 52, 105
10, 327444, Note_off_c, 10, 52, 64
10, 327480, Note_on_c, 10, 52, 105
10, 327564, Note_off_c, 10, 52, 64
10, 327600, Note_on_c, 10, 52, 105
10, 327684, Note_off_c, 10, 52, 64
10, 327720, Note_on_c, 10, 52, 105
10, 327804, Note_off_c, 10, 52, 64
10, 327840, Note_on_c, 10, 52, 105
10, 328008, Note_off_c, 10, 52, 64
10, 328320, Note_on_c, 10, 53, 105
10, 328404, Note_off_c, 10, 53, 64
10, 328440, Note_on_c, 10, 53, 105
10, 328524, Note_off_c, 10, 53, 64
10, 328560, Note_on_c, 10, 53, 105
10, 328644, Note_off_c, 10, 53, 64
10, 328680, Note_on_c, 10, 53, 105
10, 328764, Note_off_c, 10, 53, 64
10, 328800, Note_on_c, 10, 50, 105
10, 328884, Note_off_c, 10, 50, 64
10, 328920, Note_on_c, 10, 50, 105
10, 329004, Note_off_c, 10, 50, 64
10, 329040, Note_on_c, 10, 50, 105
10, 329124, Note_off_c, 10, 50, 64
10, 329160, Note_on_c, 10, 50, 105
10, 329244, Note_off_c, 10, 50, 64
10, 329280, Note_on_c, 10, 47, 105
10, 329424, Note_off_c, 10, 47, 64
10, 329520, Note_on_c, 10, 59, 105
10, 329664, Note_off_c, 10, 59, 64
10, 330000, Note_on_c, 10, 59, 105
10, 330144, Note_off_c, 10, 59, 64
10, 330240, Note_on_c, 10, 60, 105
10, 330396, Note_off_c, 10, 60, 64
10, 330480, Note_on_c, 10, 53, 105
10, 330636, Note_off_c, 10, 53, 64
10, 330720, Note_on_c, 10, 55, 105
10, 330876, Note_off_c, 10, 55, 64
10, 330960, Note_on_c, 10, 43, 105
10, 331116, Note_off_c, 10, 43, 64
10, 331200, Note_on_c, 10, 48, 105
10, 331284, Note_off_c, 10, 48, 64
10, 331320, Note_on_c, 10, 60, 105
10, 331404, Note_off_c, 10, 60, 64
10, 331440, Note_on_c, 10, 60, 105
10, 331524, Note_off_c, 10, 60, 64
10, 331560, Note_on_c, 10, 60, 105
10, 331644, Note_off_c, 10, 60, 64
10, 331680, Note_on_c, 10, 60, 105
10, 331872, Note_off_c, 10, 60, 64
10, 332160, Note_on_c, 10, 57, 105
10, 332244, Note_off_c, 10, 57, 64
10, 332280, Note_on_c, 10, 57, 105
10, 332364, Note_off_c, 10, 57, 64
10, 332400, Note_on_c, 10, 57, 105
10, 332484, Note_off_c, 10, 57, 64
10, 332520, Note_on_c, 10, 57, 105
10, 332604, Note_off_c, 10, 57, 64
10, 332640, Note_on_c, 10, 57, 105
10, 332808, Note_off_c, 10, 57, 64
10, 333120, Note_on_c, 10, 52, 105
10, 333204, Note_off_c, 10, 52, 64
10, 333240, Note_on_c, 10, 52, 105
10, 333324, Note_off_c, 10, 52, 64
10, 333360, Note_on_c, 10, 52, 105
10, 333444, Note_off_c, 10, 52, 64
10, 333480, Note_on_c, 10, 52, 105
10, 333564, Note_off_c, 10, 52, 64
10, 333600, Note_on_c, 10, 52, 105
10, 333768, Note_off_c, 10, 52, 64
10, 334080, Note_on_c, 10, 53, 105
10, 334164, Note_off_c, 10, 53, 64
10, 334200, Note_on_c, 10, 53, 105
10, 334284, Note_off_c, 10, 53, 64
10, 334320, Note_on_c, 10, 53, 105
10, 334404, Note_off_c, 10, 53, 64
10, 334440, Note_on_c, 10, 53, 105
10, 334524, Note_off_c, 10, 53, 64
10, 334560, Note_on_c, 10, 50, 105
10, 334644, Note_off_c, 10, 50, 64
10, 334680, Note_on_c, 10, 50, 105
10, 334764, Note_off_c, 10, 50, 64
10, 334800, Note_on_c, 10, 50, 105
10, 334884, Note_off_c, 10, 50, 64
10, 334920, Note_on_c, 10, 50, 105
10, 335004, Note_off_c, 10, 50, 64
10, 335040, Note_on_c, 10, 47, 105
10, 335184, Note_off_c, 10, 47, 64
10, 335280, Note_on_c, 10, 59, 105
10, 335424, Note_off_c, 10, 59, 64
10, 337680, Note_on_c, 10, 44, 58
10, 337920, Note_off_c, 10, 44, 64
10, 337920, Note_on_c, 10, 43, 58
10, 338064, Note_off_c, 10, 43, 64
10, 338160, Note_on_c, 10, 53, 58
10, 338304, Note_off_c, 10, 53, 64
10, 338880, Note_on_c, 10, 47, 58
10, 339360, Note_off_c, 10, 47, 64
10, 339360, Note_on_c, 10, 48, 58
10, 339816, Note_off_c, 10, 48, 64
10, 339840, Note_on_c, 10, 41, 58
10, 340320, Note_off_c, 10, 41, 64
10, 340320, Note_on_c, 10, 43, 58
10, 340776, Note_off_c, 10, 43, 64
10, 340800, Note_on_c, 10, 48, 105
10, 340872, Note_off_c, 10, 48, 64
10, 340920, Note_on_c, 10, 43, 105
10, 340960, Note_off_c, 10, 43, 64
10, 340960, Note_on_c, 10, 45, 105
10, 341000, Note_off_c, 10, 45, 64
10, 341000, Note_on_c, 10, 47, 105
10, 341040, Note_off_c, 10, 47, 64
10, 341040, Note_on_c, 10, 48, 105
10, 341112, Note_off_c, 10, 48, 64
10, 341160, Note_on_c, 10, 48, 105
10, 341232, Note_off_c, 10, 48, 64
10, 341280, Note_on_c, 10, 48, 105
10, 341352, Note_off_c, 10, 48, 64
10, 341400, Note_on_c, 10, 48, 105
10, 341472, Note_off_c, 10, 48, 64
10, 341520, Note_on_c, 10, 48, 105
10, 341592, Note_off_c, 10, 48, 64
10, 341640, Note_on_c, 10, 48, 105
10, 341712, Note_off_c, 10, 48, 64
10, 341760, Note_on_c, 10, 48, 105
10, 341844, Note_off_c, 10, 48, 64
10, 341880, Note_on_c, 10, 48, 105
10, 341964, Note_off_c, 10, 48, 64
10, 342000, Note_on_c, 10, 48, 105
10, 342084, Note_off_c, 10, 48, 64
10, 342120, Note_on_c, 10, 48, 105
10, 342204, Note_off_c, 10, 48, 64
10, 342240, Note_on_c, 10, 48, 105
10, 342324, Note_off_c, 10, 48, 64
10, 342360, Note_on_c, 10, 48, 105
10, 342444, Note_off_c, 10, 48, 64
10, 342480, Note_on_c, 10, 48, 105
10, 342564, Note_off_c, 10, 48, 64
10, 342600, Note_on_c, 10, 48, 105
10, 342684, Note_off_c, 10, 48, 64
10, 342720, Note_on_c, 10, 48, 105
10, 342804, Note_off_c, 10, 48, 64
10, 342840, Note_on_c, 10, 48, 105
10, 342924, Note_off_c, 10, 48, 64
10, 342960, Note_on_c, 10, 57, 105
10, 343044, Note_off_c, 10, 57, 64
10, 343080, Note_on_c, 10, 57, 105
10, 343164, Note_off_c, 10, 57, 64
10, 343200, Note_on_c, 10, 53, 105
10, 343284, Note_off_c, 10, 53, 64
10, 343320, Note_on_c, 10, 53, 105
10, 343404, Note_off_c, 10, 53, 64
10, 343440, Note_on_c, 10, 55, 105
10, 343524, Note_off_c, 10, 55, 64
10, 343560, Note_on_c, 10, 55, 105
10, 343644, Note_off_c, 10, 55, 64
10, 343680, Note_on_c, 10, 48, 105
10, 343752, Note_off_c, 10, 48, 64
10, 343800, Note_on_c, 10, 43, 105
10, 343840, Note_off_c, 10, 43, 64
10, 343840, Note_on_c, 10, 45, 105
10, 343880, Note_off_c, 10, 45, 64
10, 343880, Note_on_c, 10, 47, 105
10, 343920, Note_off_c, 10, 47, 64
10, 343920, Note_on_c, 10, 48, 105
10, 343992, Note_off_c, 10, 48, 64
10, 344040, Note_on_c, 10, 48, 105
10, 344112, Note_off_c, 10, 48, 64
10, 344160, Note_on_c, 10, 48, 105
10, 344232, Note_off_c, 10, 48, 64
10, 344280, Note_on_c, 10, 48, 105
10, 344352, Note_off_c, 10, 48, 64
10, 344400, Note_on_c, 10, 48, 105
10, 344472, Note_off_c, 10, 48, 64
10, 344520, Note_on_c, 10, 48, 105
10, 344592, Note_off_c, 10, 48, 64
10, 344640, Note_on_c, 10, 48, 105
10, 344724, Note_off_c, 10, 48, 64
10, 344760, Note_on_c, 10, 48, 105
10, 344844, Note_off_c, 10, 48, 64
10, 344880, Note_on_c, 10, 48, 105
10, 344964, Note_off_c, 10, 48, 64
10, 345000, Note_on_c, 10, 48, 105
10, 345084, Note_off_c, 10, 48, 64
10, 345120, Note_on_c, 10, 48, 105
10, 345204, Note_off_c, 10, 48, 64
10, 345240, Note_on_c, 10, 48, 105
10, 345324, Note_off_c, 10, 48, 64
10, 345360, Note_on_c, 10, 48, 105
10, 345444, Note_off_c, 10, 48, 64
10, 345480, Note_on_c, 10, 48, 105
10, 345564, Note_off_c, 10, 48, 64
10, 345600, Note_on_c, 10, 48, 105
10, 345684, Note_off_c, 10, 48, 64
10, 345720, Note_on_c, 10, 48, 105
10, 345804, Note_off_c, 10, 48, 64
10, 345840, Note_on_c, 10, 57, 105
10, 345924, Note_off_c, 10, 57, 64
10, 345960, Note_on_c, 10, 57, 105
10, 346044, Note_off_c, 10, 57, 64
10, 346080, Note_on_c, 10, 53, 105
10, 346164, Note_off_c, 10, 53, 64
10, 346200, Note_on_c, 10, 53, 105
10, 346284, Note_off_c, 10, 53, 64
10, 346320, Note_on_c, 10, 55, 105
10, 346404, Note_off_c, 10, 55, 64
10, 346440, Note_on_c, 10, 55, 105
10, 346524, Note_off_c, 10, 55, 64
10, 346560, Note_on_c, 10, 52, 72
10, 346656, Note_off_c, 10, 52, 64
10, 346800, Note_on_c, 10, 57, 72
10, 346896, Note_off_c, 10, 57, 64
10, 347040, Note_on_c, 10, 53, 72
10, 347136, Note_off_c, 10, 53, 64
10, 347280, Note_on_c, 10, 55, 72
10, 347376, Note_off_c, 10, 55, 64
10, 347520, Note_on_c, 10, 48, 105
10, 347604, Note_off_c, 10, 48, 64
10, 347640, Note_on_c, 10, 48, 105
10, 347724, Note_off_c, 10, 48, 64
10, 347760, Note_on_c, 10, 57, 105
10, 347844, Note_off_c, 10, 57, 64
10, 347880, Note_on_c, 10, 57, 105
10, 347964, Note_off_c, 10, 57, 64
10, 348000, Note_on_c, 10, 53, 105
10, 348084, Note_off_c, 10, 53, 64
10, 348120, Note_on_c, 10, 53, 105
10, 348204, Note_off_c, 10, 53, 64
10, 348240, Note_on_c, 10, 55, 105
10, 348324, Note_off_c, 10, 55, 64
10, 348360, Note_on_c, 10, 55, 105
10, 348444, Note_off_c, 10, 55, 64
10, 348480, Note_on_c, 10, 48, 105
10, 348672, Note_off_c, 10, 48, 64
10, 350400, Note_on_c, 10, 52, 58
10, 352320, Note_off_c, 10, 52, 64
10, 352320, Note_on_c, 10, 53, 58
10, 352512, Note_off_c, 10, 53, 64
10, 355200, Note_on_c, 10, 53, 58
10, 355920, Note_off_c, 10, 53, 64
10, 355920, Note_on_c, 10, 54, 58
10, 356112, Note_off_c, 10, 54, 64
10, 356160, Note_on_c, 10, 55, 58
10, 357120, Note_off_c, 10, 55, 64
10, 357120, Note_on_c, 10, 48, 58
10, 357312, Note_off_c, 10, 48, 64
10, 358080, Note_on_c, 10, 60, 58
10, 358272, Note_off_c, 10, 60, 64
10, 358560, Note_on_c, 10, 55, 58
10, 358752, Note_off_c, 10, 55, 64
10, 359040, Note_on_c, 10, 48, 58
10, 359232, Note_off_c, 10, 48, 64
10, 360000, Note_on_c, 10, 60, 58
10, 360192, Note_off_c, 10, 60, 64
10, 360480, Note_on_c, 10, 55, 58
10, 360672, Note_off_c, 10, 55, 64
10, 360960, Note_on_c, 10, 48, 58
10, 361152, Note_off_c, 10, 48, 64
10, 363000, Note_on_c, 10, 55, 105
10, 363120, Note_off_c, 10, 55, 64
10, 363120, Note_on_c, 10, 60, 105
10, 363240, Note_off_c, 10, 60, 64
10, 363240, Note_on_c, 10, 59, 105
10, 363360, Note_off_c, 10, 59, 64
10, 363360, Note_on_c, 10, 62, 105
10, 363480, Note_off_c, 10, 62, 64
10, 363480, Note_on_c, 10, 60, 105
10, 363600, Note_off_c, 10, 60, 64
10, 363600, Note_on_c, 10, 65, 105
10, 363720, Note_off_c, 10, 65, 64
10, 363720, Note_on_c, 10, 64, 105
10, 363816, Note_off_c, 10, 64, 64
10, 363840, Note_on_c, 10, 64, 105
10, 364224, Note_off_c, 10, 64, 64
10, 364320, Note_on_c, 10, 48, 105
10, 364680, Note_off_c, 10, 48, 64
10, 364680, Note_on_c, 10, 50, 105
10, 364740, Note_off_c, 10, 50, 64
10, 364740, Note_on_c, 10, 52, 105
10, 364800, Note_off_c, 10, 52, 64
10, 364800, Note_on_c, 10, 53, 105
10, 364968, Note_off_c, 10, 53, 64
10, 365040, Note_on_c, 10, 50, 105
10, 365208, Note_off_c, 10, 50, 64
10, 365280, Note_on_c, 10, 55, 105
10, 365640, Note_off_c, 10, 55, 64
10, 365640, Note_on_c, 10, 57, 105
10, 365670, Note_off_c, 10, 57, 64
10, 365670, Note_on_c, 10, 59, 105
10, 365700, Note_off_c, 10, 59, 64
10, 365700, Note_on_c, 10, 60, 105
10, 365730, Note_off_c, 10, 60, 64
10, 365730, Note_on_c, 10, 62, 105
10, 365754, Note_off_c, 10, 62, 64
10, 365760, Note_on_c, 10, 64, 105
10, 366144, Note_off_c, 10, 64, 64
10, 366240, Note_on_c, 10, 48, 105
10, 366600, Note_off_c, 10, 48, 64
10, 366600, Note_on_c, 10, 50, 105
10, 366660, Note_off_c, 10, 50, 64
10, 366660, Note_on_c, 10, 52, 105
10, 366720, Note_off_c, 10, 52, 64
10, 366720, Note_on_c, 10, 53, 105
10, 366888, Note_off_c, 10, 53, 64
10, 366960, Note_on_c, 10, 50, 105
10, 367128, Note_off_c, 10, 50, 64
10, 367200, Note_on_c, 10, 55, 105
10, 367368, Note_off_c, 10, 55, 64
10, 367440, Note_on_c, 10, 43, 105
10, 367608, Note_off_c, 10, 43, 64
10, 367680, Note_on_c, 10, 48, 105
10, 367872, Note_off_c, 10, 48, 64
10, 368160, Note_on_c, 10, 48, 105
10, 368328, Note_off_c, 10, 48, 64
10, 368400, Note_on_c, 10, 48, 105
10, 368568, Note_off_c, 10, 48, 64
10, 368640, Note_on_c, 10, 48, 105
10, 368832, Note_off_c, 10, 48, 64
10, 369120, Note_on_c, 10, 48, 105
10, 369288, Note_off_c, 10, 48, 64
10, 369360, Note_on_c, 10, 48, 105
10, 369528, Note_off_c, 10, 48, 64
10, 369600, Note_on_c, 10, 48, 105
10, 369828, Note_off_c, 10, 48, 64
10, 369828, End_track
11, 0, Start_track
11, 0, Program_c, 11, 48
11, 0, Control_c, 11, 7, 97
11, 0, Control_c, 11, 91, 70
11, 0, Control_c, 11, 10, 96
11, 720, Note_on_c, 11, 36, 105
11, 834, Note_off_c, 11, 36, 64
11, 930, Note_on_c, 11, 36, 105
11, 954, Note_off_c, 11, 36, 64
11, 960, Note_on_c, 11, 40, 105
11, 1074, Note_off_c, 11, 40, 64
11, 1170, Note_on_c, 11, 40, 105
11, 1194, Note_off_c, 11, 40, 64
11, 1200, Note_on_c, 11, 45, 105
11, 1314, Note_off_c, 11, 45, 64
11, 1410, Note_on_c, 11, 45, 105
11, 1434, Note_off_c, 11, 45, 64
11, 1440, Note_on_c, 11, 35, 105
11, 1536, Note_off_c, 11, 35, 64
11, 1650, Note_on_c, 11, 47, 105
11, 1674, Note_off_c, 11, 47, 64
11, 1680, Note_on_c, 11, 47, 105
11, 1920, Note_off_c, 11, 47, 64
11, 2130, Note_on_c, 11, 35, 105
11, 2154, Note_off_c, 11, 35, 64
11, 2160, Note_on_c, 11, 34, 105
11, 2256, Note_off_c, 11, 34, 64
11, 2370, Note_on_c, 11, 46, 105
11, 2394, Note_off_c, 11, 46, 64
11, 2400, Note_on_c, 11, 46, 105
11, 2640, Note_off_c, 11, 46, 64
11, 2880, Note_on_c, 11, 45, 58
11, 2976, Note_off_c, 11, 45, 64
11, 3000, Note_on_c, 11, 45, 58
11, 3096, Note_off_c, 11, 45, 64
11, 3120, Note_on_c, 11, 45, 58
11, 3216, Note_off_c, 11, 45, 64
11, 3240, Note_on_c, 11, 45, 58
11, 3336, Note_off_c, 11, 45, 64
11, 3360, Note_on_c, 11, 45, 58
11, 3456, Note_off_c, 11, 45, 64
11, 3480, Note_on_c, 11, 45, 58
11, 3576, Note_off_c, 11, 45, 64
11, 3600, Note_on_c, 11, 43, 58
11, 3696, Note_off_c, 11, 43, 64
11, 3720, Note_on_c, 11, 43, 58
11, 3816, Note_off_c, 11, 43, 64
11, 3840, Note_on_c, 11, 43, 58
11, 3936, Note_off_c, 11, 43, 64
11, 3960, Note_on_c, 11, 43, 58
11, 4056, Note_off_c, 11, 43, 64
11, 4080, Note_on_c, 11, 43, 58
11, 4176, Note_off_c, 11, 43, 64
11, 4200, Note_on_c, 11, 43, 58
11, 4296, Note_off_c, 11, 43, 64
11, 4320, Note_on_c, 11, 41, 58
11, 4416, Note_off_c, 11, 41, 64
11, 4440, Note_on_c, 11, 41, 58
11, 4536, Note_off_c, 11, 41, 64
11, 4560, Note_on_c, 11, 41, 58
11, 4656, Note_off_c, 11, 41, 64
11, 4680, Note_on_c, 11, 41, 58
11, 4776, Note_off_c, 11, 41, 64
11, 4800, Note_on_c, 11, 41, 58
11, 4896, Note_off_c, 11, 41, 64
11, 4920, Note_on_c, 11, 41, 58
11, 5016, Note_off_c, 11, 41, 64
11, 5040, Note_on_c, 11, 40, 58
11, 5136, Note_off_c, 11, 40, 64
11, 5160, Note_on_c, 11, 40, 58
11, 5256, Note_off_c, 11, 40, 64
11, 5280, Note_on_c, 11, 40, 58
11, 5376, Note_off_c, 11, 40, 64
11, 5400, Note_on_c, 11, 40, 58
11, 5496, Note_off_c, 11, 40, 64
11, 5520, Note_on_c, 11, 39, 58
11, 5616, Note_off_c, 11, 39, 64
11, 5640, Note_on_c, 11, 39, 58
11, 5736, Note_off_c, 11, 39, 64
11, 5760, Note_on_c, 11, 38, 105
11, 5856, Note_off_c, 11, 38, 64
11, 6480, Note_on_c, 11, 31, 105
11, 6576, Note_off_c, 11, 31, 64
11, 7200, Note_on_c, 11, 36, 105
11, 7296, Note_off_c, 11, 36, 64
11, 8040, Note_on_c, 11, 43, 105
11, 8160, Note_off_c, 11, 43, 64
11, 8160, Note_on_c, 11, 41, 72
11, 8280, Note_off_c, 11, 41, 64
11, 8280, Note_on_c, 11, 36, 72
11, 8400, Note_off_c, 11, 36, 64
11, 8400, Note_on_c, 11, 41, 72
11, 8520, Note_off_c, 11, 41, 64
11, 8520, Note_on_c, 11, 39, 72
11, 8616, Note_off_c, 11, 39, 64
11, 8640, Note_on_c, 11, 37, 72
11, 8760, Note_off_c, 11, 37, 64
11, 8760, Note_on_c, 11, 39, 72
11, 8880, Note_off_c, 11, 39, 64
11, 8880, Note_on_c, 11, 37, 72
11, 9000, Note_off_c, 11, 37, 64
11, 9000, Note_on_c, 11, 32, 72
11, 9120, Note_off_c, 11, 32, 64
11, 9120, Note_on_c, 11, 37, 72
11, 9240, Note_off_c, 11, 37, 64
11, 9240, Note_on_c, 11, 36, 72
11, 9336, Note_off_c, 11, 36, 64
11, 9360, Note_on_c, 11, 35, 72
11, 9552, Note_off_c, 11, 35, 64
11, 9840, Note_on_c, 11, 47, 58
11, 10080, Note_off_c, 11, 47, 64
11, 10080, Note_on_c, 11, 48, 58
11, 10272, Note_off_c, 11, 48, 64
11, 10560, Note_on_c, 11, 43, 58
11, 10788, Note_off_c, 11, 43, 64
11, 10800, Note_on_c, 11, 44, 72
11, 11520, Note_off_c, 11, 44, 64
11, 11520, Note_on_c, 11, 43, 58
11, 11616, Note_off_c, 11, 43, 64
11, 11760, Note_on_c, 11, 47, 58
11, 12000, Note_off_c, 11, 47, 64
11, 12000, Note_on_c, 11, 48, 58
11, 12228, Note_off_c, 11, 48, 64
11, 12240, Note_on_c, 11, 43, 58
11, 12336, Note_off_c, 11, 43, 64
11, 12480, Note_on_c, 11, 35, 58
11, 12720, Note_off_c, 11, 35, 64
11, 12720, Note_on_c, 11, 36, 58
11, 12912, Note_off_c, 11, 36, 64
11, 12960, Note_on_c, 11, 43, 58
11, 13080, Note_off_c, 11, 43, 64
11, 13080, Note_on_c, 11, 42, 98
11, 13200, Note_off_c, 11, 42, 64
11, 13200, Note_on_c, 11, 43, 58
11, 13320, Note_off_c, 11, 43, 64
11, 13320, Note_on_c, 11, 42, 98
11, 13440, Note_off_c, 11, 42, 64
11, 13440, Note_on_c, 11, 43, 58
11, 13560, Note_off_c, 11, 43, 64
11, 13560, Note_on_c, 11, 42, 98
11, 13674, Note_off_c, 11, 42, 64
11, 13680, Note_on_c, 11, 43, 58
11, 13776, Note_off_c, 11, 43, 64
11, 13920, Note_on_c, 11, 31, 116
11, 14148, Note_off_c, 11, 31, 64
11, 14400, Note_on_c, 11, 36, 72
11, 14592, Note_off_c, 11, 36, 64
11, 14640, Note_on_c, 11, 36, 72
11, 14832, Note_off_c, 11, 36, 64
11, 14880, Note_on_c, 11, 36, 72
11, 15072, Note_off_c, 11, 36, 64
11, 15120, Note_on_c, 11, 36, 72
11, 15312, Note_off_c, 11, 36, 64
11, 15360, Note_on_c, 11, 36, 72
11, 15552, Note_off_c, 11, 36, 64
11, 15600, Note_on_c, 11, 36, 72
11, 15792, Note_off_c, 11, 36, 64
11, 15840, Note_on_c, 11, 36, 72
11, 16032, Note_off_c, 11, 36, 64
11, 16080, Note_on_c, 11, 36, 72
11, 16272, Note_off_c, 11, 36, 64
11, 16320, Note_on_c, 11, 36, 72
11, 16704, Note_off_c, 11, 36, 64
11, 17040, Note_on_c, 11, 36, 72
11, 17184, Note_off_c, 11, 36, 64
11, 17280, Note_on_c, 11, 41, 72
11, 17424, Note_off_c, 11, 41, 64
11, 17520, Note_on_c, 11, 36, 72
11, 17664, Note_off_c, 11, 36, 64
11, 18240, Note_on_c, 11, 45, 72
11, 19200, Note_off_c, 11, 45, 64
11, 20160, Note_off_c, 11, 43, 64
11, 20160, Note_on_c, 11, 41, 72
11, 20352, Note_off_c, 11, 41, 64
11, 20400, Note_on_c, 11, 38, 72
11, 20640, Note_off_c, 11, 38, 64
11, 20640, Note_on_c, 11, 40, 72
11, 20784, Note_off_c, 11, 40, 64
11, 20880, Note_on_c, 11, 35, 72
11, 21024, Note_off_c, 11, 35, 64
11, 21120, Note_on_c, 11, 36, 72
11, 21600, Note_off_c, 11, 36, 64
11, 21600, Note_on_c, 11, 40, 72
11, 21984, Note_off_c, 11, 40, 64
11, 22080, Note_on_c, 11, 41, 72
11, 22848, Note_off_c, 11, 41, 64
11, 23040, Note_on_c, 11, 43, 72
11, 23616, Note_off_c, 11, 43, 64
11, 24000, Note_on_c, 11, 36, 105
11, 24096, Note_off_c, 11, 36, 64
11, 24120, Note_on_c, 11, 36, 105
11, 24216, Note_off_c, 11, 36, 64
11, 24240, Note_on_c, 11, 36, 105
11, 24336, Note_off_c, 11, 36, 64
11, 24360, Note_on_c, 11, 36, 105
11, 24456, Note_off_c, 11, 36, 64
11, 24480, Note_on_c, 11, 36, 105
11, 24576, Note_off_c, 11, 36, 64
11, 24600, Note_on_c, 11, 36, 105
11, 24696, Note_off_c, 11, 36, 64
11, 24720, Note_on_c, 11, 36, 105
11, 24816, Note_off_c, 11, 36, 64
11, 24840, Note_on_c, 11, 36, 105
11, 24936, Note_off_c, 11, 36, 64
11, 24960, Note_on_c, 11, 36, 105
11, 25056, Note_off_c, 11, 36, 64
11, 25080, Note_on_c, 11, 36, 105
11, 25176, Note_off_c, 11, 36, 64
11, 25200, Note_on_c, 11, 36, 105
11, 25296, Note_off_c, 11, 36, 64
11, 25320, Note_on_c, 11, 36, 105
11, 25416, Note_off_c, 11, 36, 64
11, 25440, Note_on_c, 11, 36, 105
11, 25536, Note_off_c, 11, 36, 64
11, 25560, Note_on_c, 11, 36, 105
11, 25656, Note_off_c, 11, 36, 64
11, 25680, Note_on_c, 11, 36, 105
11, 25776, Note_off_c, 11, 36, 64
11, 25800, Note_on_c, 11, 36, 105
11, 25896, Note_off_c, 11, 36, 64
11, 25920, Note_on_c, 11, 36, 105
11, 26304, Note_off_c, 11, 36, 64
11, 26640, Note_on_c, 11, 36, 105
11, 26808, Note_off_c, 11, 36, 64
11, 26880, Note_on_c, 11, 41, 105
11, 27048, Note_off_c, 11, 41, 64
11, 27120, Note_on_c, 11, 36, 105
11, 27288, Note_off_c, 11, 36, 64
11, 27600, Note_on_c, 11, 36, 105
11, 27768, Note_off_c, 11, 36, 64
11, 27840, Note_on_c, 11, 41, 105
11, 28008, Note_off_c, 11, 41, 64
11, 28080, Note_on_c, 11, 36, 105
11, 28248, Note_off_c, 11, 36, 64
11, 28560, Note_on_c, 11, 36, 105
11, 28728, Note_off_c, 11, 36, 64
11, 28800, Note_on_c, 11, 41, 105
11, 28968, Note_off_c, 11, 41, 64
11, 29040, Note_on_c, 11, 36, 105
11, 29208, Note_off_c, 11, 36, 64
11, 29280, Note_on_c, 11, 41, 105
11, 29448, Note_off_c, 11, 41, 64
11, 29520, Note_on_c, 11, 36, 105
11, 29688, Note_off_c, 11, 36, 64
11, 29760, Note_on_c, 11, 41, 105
11, 29928, Note_off_c, 11, 41, 64
11, 30000, Note_on_c, 11, 36, 105
11, 30168, Note_off_c, 11, 36, 64
11, 30720, Note_on_c, 11, 45, 58
11, 31680, Note_off_c, 11, 45, 64
11, 31680, Note_on_c, 11, 43, 58
11, 32160, Note_off_c, 11, 43, 64
11, 32160, Note_on_c, 11, 36, 58
11, 32640, Note_off_c, 11, 36, 64
11, 32640, Note_on_c, 11, 41, 58
11, 32832, Note_off_c, 11, 41, 64
11, 34560, Note_on_c, 11, 43, 72
11, 34752, Note_off_c, 11, 43, 64
11, 34800, Note_on_c, 11, 43, 72
11, 34992, Note_off_c, 11, 43, 64
11, 35040, Note_on_c, 11, 43, 72
11, 35232, Note_off_c, 11, 43, 64
11, 35280, Note_on_c, 11, 43, 72
11, 35472, Note_off_c, 11, 43, 64
11, 35520, Note_on_c, 11, 36, 105
11, 35604, Note_off_c, 11, 36, 64
11, 35640, Note_on_c, 11, 40, 105
11, 35724, Note_off_c, 11, 40, 64
11, 35760, Note_on_c, 11, 43, 105
11, 35844, Note_off_c, 11, 43, 64
11, 35880, Note_on_c, 11, 48, 105
11, 35964, Note_off_c, 11, 48, 64
11, 36000, Note_on_c, 11, 52, 105
11, 36084, Note_off_c, 11, 52, 64
11, 36120, Note_on_c, 11, 50, 105
11, 36204, Note_off_c, 11, 50, 64
11, 36240, Note_on_c, 11, 52, 105
11, 36324, Note_off_c, 11, 52, 64
11, 36360, Note_on_c, 11, 48, 105
11, 36444, Note_off_c, 11, 48, 64
11, 36480, Note_on_c, 11, 47, 105
11, 36564, Note_off_c, 11, 47, 64
11, 36600, Note_on_c, 11, 48, 105
11, 36684, Note_off_c, 11, 48, 64
11, 36720, Note_on_c, 11, 50, 105
11, 36804, Note_off_c, 11, 50, 64
11, 36840, Note_on_c, 11, 48, 105
11, 36924, Note_off_c, 11, 48, 64
11, 36960, Note_on_c, 11, 47, 105
11, 37044, Note_off_c, 11, 47, 64
11, 37080, Note_on_c, 11, 45, 105
11, 37164, Note_off_c, 11, 45, 64
11, 37200, Note_on_c, 11, 43, 105
11, 37284, Note_off_c, 11, 43, 64
11, 37320, Note_on_c, 11, 41, 105
11, 37404, Note_off_c, 11, 41, 64
11, 37440, Note_on_c, 11, 40, 105
11, 37524, Note_off_c, 11, 40, 64
11, 37560, Note_on_c, 11, 41, 105
11, 37644, Note_off_c, 11, 41, 64
11, 37680, Note_on_c, 11, 43, 105
11, 37764, Note_off_c, 11, 43, 64
11, 37800, Note_on_c, 11, 40, 105
11, 37884, Note_off_c, 11, 40, 64
11, 37920, Note_on_c, 11, 45, 105
11, 38004, Note_off_c, 11, 45, 64
11, 38040, Note_on_c, 11, 47, 105
11, 38124, Note_off_c, 11, 47, 64
11, 38160, Note_on_c, 11, 48, 105
11, 38244, Note_off_c, 11, 48, 64
11, 38280, Note_on_c, 11, 45, 105
11, 38364, Note_off_c, 11, 45, 64
11, 38400, Note_on_c, 11, 41, 105
11, 38484, Note_off_c, 11, 41, 64
11, 38520, Note_on_c, 11, 38, 105
11, 38604, Note_off_c, 11, 38, 64
11, 38640, Note_on_c, 11, 40, 105
11, 38724, Note_off_c, 11, 40, 64
11, 38760, Note_on_c, 11, 41, 105
11, 38844, Note_off_c, 11, 41, 64
11, 38880, Note_on_c, 11, 43, 105
11, 38964, Note_off_c, 11, 43, 64
11, 39000, Note_on_c, 11, 41, 105
11, 39084, Note_off_c, 11, 41, 64
11, 39120, Note_on_c, 11, 43, 105
11, 39204, Note_off_c, 11, 43, 64
11, 39240, Note_on_c, 11, 31, 105
11, 39324, Note_off_c, 11, 31, 64
11, 39360, Note_on_c, 11, 36, 105
11, 39444, Note_off_c, 11, 36, 64
11, 39480, Note_on_c, 11, 40, 105
11, 39564, Note_off_c, 11, 40, 64
11, 39600, Note_on_c, 11, 43, 105
11, 39684, Note_off_c, 11, 43, 64
11, 39720, Note_on_c, 11, 48, 105
11, 39804, Note_off_c, 11, 48, 64
11, 39840, Note_on_c, 11, 52, 105
11, 39924, Note_off_c, 11, 52, 64
11, 39960, Note_on_c, 11, 50, 105
11, 40044, Note_off_c, 11, 50, 64
11, 40080, Note_on_c, 11, 52, 105
11, 40164, Note_off_c, 11, 52, 64
11, 40200, Note_on_c, 11, 48, 105
11, 40284, Note_off_c, 11, 48, 64
11, 40320, Note_on_c, 11, 47, 105
11, 40404, Note_off_c, 11, 47, 64
11, 40440, Note_on_c, 11, 48, 105
11, 40524, Note_off_c, 11, 48, 64
11, 40560, Note_on_c, 11, 50, 105
11, 40644, Note_off_c, 11, 50, 64
11, 40680, Note_on_c, 11, 48, 105
11, 40764, Note_off_c, 11, 48, 64
11, 40800, Note_on_c, 11, 47, 105
11, 40884, Note_off_c, 11, 47, 64
11, 40920, Note_on_c, 11, 45, 105
11, 41004, Note_off_c, 11, 45, 64
11, 41040, Note_on_c, 11, 43, 105
11, 41124, Note_off_c, 11, 43, 64
11, 41160, Note_on_c, 11, 41, 105
11, 41244, Note_off_c, 11, 41, 64
11, 41280, Note_on_c, 11, 40, 105
11, 41364, Note_off_c, 11, 40, 64
11, 41400, Note_on_c, 11, 41, 105
11, 41484, Note_off_c, 11, 41, 64
11, 41520, Note_on_c, 11, 43, 105
11, 41604, Note_off_c, 11, 43, 64
11, 41640, Note_on_c, 11, 40, 105
11, 41724, Note_off_c, 11, 40, 64
11, 41760, Note_on_c, 11, 45, 105
11, 41844, Note_off_c, 11, 45, 64
11, 41880, Note_on_c, 11, 47, 105
11, 41964, Note_off_c, 11, 47, 64
11, 42000, Note_on_c, 11, 48, 105
11, 42084, Note_off_c, 11, 48, 64
11, 42120, Note_on_c, 11, 45, 105
11, 42204, Note_off_c, 11, 45, 64
11, 42240, Note_on_c, 11, 42, 105
11, 42324, Note_off_c, 11, 42, 64
11, 42360, Note_on_c, 11, 43, 105
11, 42444, Note_off_c, 11, 43, 64
11, 42480, Note_on_c, 11, 45, 105
11, 42564, Note_off_c, 11, 45, 64
11, 42600, Note_on_c, 11, 43, 105
11, 42684, Note_off_c, 11, 43, 64
11, 42720, Note_on_c, 11, 42, 105
11, 42804, Note_off_c, 11, 42, 64
11, 42840, Note_on_c, 11, 38, 105
11, 42924, Note_off_c, 11, 38, 64
11, 42960, Note_on_c, 11, 40, 105
11, 43044, Note_off_c, 11, 40, 64
11, 43080, Note_on_c, 11, 42, 105
11, 43164, Note_off_c, 11, 42, 64
11, 43200, Note_on_c, 11, 43, 105
11, 43284, Note_off_c, 11, 43, 64
11, 43320, Note_on_c, 11, 45, 105
11, 43404, Note_off_c, 11, 45, 64
11, 43440, Note_on_c, 11, 47, 105
11, 43524, Note_off_c, 11, 47, 64
11, 43560, Note_on_c, 11, 45, 105
11, 43644, Note_off_c, 11, 45, 64
11, 43680, Note_on_c, 11, 44, 105
11, 43764, Note_off_c, 11, 44, 64
11, 43800, Note_on_c, 11, 45, 105
11, 43884, Note_off_c, 11, 45, 64
11, 43920, Note_on_c, 11, 42, 105
11, 44004, Note_off_c, 11, 42, 64
11, 44040, Note_on_c, 11, 44, 105
11, 44124, Note_off_c, 11, 44, 64
11, 44160, Note_on_c, 11, 45, 105
11, 44244, Note_off_c, 11, 45, 64
11, 44280, Note_on_c, 11, 47, 105
11, 44364, Note_off_c, 11, 47, 64
11, 44400, Note_on_c, 11, 48, 105
11, 44484, Note_off_c, 11, 48, 64
11, 44520, Note_on_c, 11, 47, 105
11, 44604, Note_off_c, 11, 47, 64
11, 44640, Note_on_c, 11, 45, 105
11, 44724, Note_off_c, 11, 45, 64
11, 44760, Note_on_c, 11, 47, 105
11, 44844, Note_off_c, 11, 47, 64
11, 44880, Note_on_c, 11, 43, 105
11, 44964, Note_off_c, 11, 43, 64
11, 45000, Note_on_c, 11, 45, 105
11, 45084, Note_off_c, 11, 45, 64
11, 45120, Note_on_c, 11, 42, 105
11, 45204, Note_off_c, 11, 42, 64
11, 45240, Note_on_c, 11, 43, 105
11, 45324, Note_off_c, 11, 43, 64
11, 45360, Note_on_c, 11, 45, 105
11, 45444, Note_off_c, 11, 45, 64
11, 45480, Note_on_c, 11, 43, 105
11, 45564, Note_off_c, 11, 43, 64
11, 45600, Note_on_c, 11, 42, 105
11, 45684, Note_off_c, 11, 42, 64
11, 45720, Note_on_c, 11, 38, 105
11, 45804, Note_off_c, 11, 38, 64
11, 45840, Note_on_c, 11, 40, 105
11, 45924, Note_off_c, 11, 40, 64
11, 45960, Note_on_c, 11, 42, 105
11, 46044, Note_off_c, 11, 42, 64
11, 46080, Note_on_c, 11, 43, 105
11, 46164, Note_off_c, 11, 43, 64
11, 46200, Note_on_c, 11, 47, 105
11, 46284, Note_off_c, 11, 47, 64
11, 46320, Note_on_c, 11, 50, 105
11, 46404, Note_off_c, 11, 50, 64
11, 46440, Note_on_c, 11, 50, 105
11, 46524, Note_off_c, 11, 50, 64
11, 46560, Note_on_c, 11, 50, 105
11, 46644, Note_off_c, 11, 50, 64
11, 46680, Note_on_c, 11, 50, 105
11, 46764, Note_off_c, 11, 50, 64
11, 46800, Note_on_c, 11, 47, 105
11, 46884, Note_off_c, 11, 47, 64
11, 46920, Note_on_c, 11, 43, 105
11, 47004, Note_off_c, 11, 43, 64
11, 47040, Note_on_c, 11, 48, 105
11, 47124, Note_off_c, 11, 48, 64
11, 47160, Note_on_c, 11, 45, 105
11, 47244, Note_off_c, 11, 45, 64
11, 47280, Note_on_c, 11, 47, 105
11, 47364, Note_off_c, 11, 47, 64
11, 47400, Note_on_c, 11, 43, 105
11, 47484, Note_off_c, 11, 43, 64
11, 47520, Note_on_c, 11, 42, 105
11, 47604, Note_off_c, 11, 42, 64
11, 47640, Note_on_c, 11, 45, 105
11, 47724, Note_off_c, 11, 45, 64
11, 47760, Note_on_c, 11, 42, 105
11, 47844, Note_off_c, 11, 42, 64
11, 47880, Note_on_c, 11, 38, 105
11, 47964, Note_off_c, 11, 38, 64
11, 48000, Note_on_c, 11, 43, 105
11, 48084, Note_off_c, 11, 43, 64
11, 48120, Note_on_c, 11, 47, 105
11, 48204, Note_off_c, 11, 47, 64
11, 48240, Note_on_c, 11, 50, 105
11, 48324, Note_off_c, 11, 50, 64
11, 48360, Note_on_c, 11, 50, 105
11, 48444, Note_off_c, 11, 50, 64
11, 48480, Note_on_c, 11, 50, 105
11, 48564, Note_off_c, 11, 50, 64
11, 48600, Note_on_c, 11, 50, 105
11, 48684, Note_off_c, 11, 50, 64
11, 48720, Note_on_c, 11, 47, 105
11, 48804, Note_off_c, 11, 47, 64
11, 48840, Note_on_c, 11, 43, 105
11, 48924, Note_off_c, 11, 43, 64
11, 48960, Note_on_c, 11, 48, 105
11, 49044, Note_off_c, 11, 48, 64
11, 49080, Note_on_c, 11, 45, 105
11, 49164, Note_off_c, 11, 45, 64
11, 49200, Note_on_c, 11, 47, 105
11, 49284, Note_off_c, 11, 47, 64
11, 49320, Note_on_c, 11, 43, 105
11, 49404, Note_off_c, 11, 43, 64
11, 49440, Note_on_c, 11, 42, 105
11, 49524, Note_off_c, 11, 42, 64
11, 49560, Note_on_c, 11, 45, 105
11, 49644, Note_off_c, 11, 45, 64
11, 49680, Note_on_c, 11, 42, 105
11, 49764, Note_off_c, 11, 42, 64
11, 49800, Note_on_c, 11, 38, 105
11, 49884, Note_off_c, 11, 38, 64
11, 49920, Note_on_c, 11, 43, 105
11, 50004, Note_off_c, 11, 43, 64
11, 50040, Note_on_c, 11, 45, 105
11, 50124, Note_off_c, 11, 45, 64
11, 50160, Note_on_c, 11, 42, 105
11, 50244, Note_off_c, 11, 42, 64
11, 50280, Note_on_c, 11, 43, 105
11, 50364, Note_off_c, 11, 43, 64
11, 50400, Note_on_c, 11, 40, 105
11, 50484, Note_off_c, 11, 40, 64
11, 50520, Note_on_c, 11, 41, 105
11, 50604, Note_off_c, 11, 41, 64
11, 50640, Note_on_c, 11, 38, 105
11, 50724, Note_off_c, 11, 38, 64
11, 50760, Note_on_c, 11, 40, 105
11, 50844, Note_off_c, 11, 40, 64
11, 50880, Note_on_c, 11, 36, 105
11, 50964, Note_off_c, 11, 36, 64
11, 51000, Note_on_c, 11, 48, 110
11, 51084, Note_off_c, 11, 48, 64
11, 51120, Note_on_c, 11, 48, 72
11, 51204, Note_off_c, 11, 48, 64
11, 51240, Note_on_c, 11, 48, 72
11, 51324, Note_off_c, 11, 48, 64
11, 51360, Note_on_c, 11, 38, 72
11, 51444, Note_off_c, 11, 38, 64
11, 51480, Note_on_c, 11, 50, 72
11, 51564, Note_off_c, 11, 50, 64
11, 51600, Note_on_c, 11, 50, 72
11, 51684, Note_off_c, 11, 50, 64
11, 51720, Note_on_c, 11, 50, 72
11, 51804, Note_off_c, 11, 50, 64
11, 51840, Note_on_c, 11, 36, 110
11, 51924, Note_off_c, 11, 36, 64
11, 51960, Note_on_c, 11, 48, 72
11, 52044, Note_off_c, 11, 48, 64
11, 52080, Note_on_c, 11, 48, 72
11, 52164, Note_off_c, 11, 48, 64
11, 52200, Note_on_c, 11, 48, 72
11, 52284, Note_off_c, 11, 48, 64
11, 52320, Note_on_c, 11, 38, 72
11, 52404, Note_off_c, 11, 38, 64
11, 52440, Note_on_c, 11, 50, 72
11, 52524, Note_off_c, 11, 50, 64
11, 52560, Note_on_c, 11, 50, 72
11, 52644, Note_off_c, 11, 50, 64
11, 52680, Note_on_c, 11, 50, 72
11, 52764, Note_off_c, 11, 50, 64
11, 52800, Note_on_c, 11, 48, 105
11, 52872, Note_off_c, 11, 48, 64
11, 52920, Note_on_c, 11, 47, 105
11, 52992, Note_off_c, 11, 47, 64
11, 53040, Note_on_c, 11, 48, 105
11, 53112, Note_off_c, 11, 48, 64
11, 53160, Note_on_c, 11, 47, 105
11, 53232, Note_off_c, 11, 47, 64
11, 53280, Note_on_c, 11, 48, 105
11, 53352, Note_off_c, 11, 48, 64
11, 53400, Note_on_c, 11, 47, 105
11, 53472, Note_off_c, 11, 47, 64
11, 53520, Note_on_c, 11, 48, 105
11, 53592, Note_off_c, 11, 48, 64
11, 53640, Note_on_c, 11, 44, 105
11, 53712, Note_off_c, 11, 44, 64
11, 53760, Note_on_c, 11, 45, 105
11, 53832, Note_off_c, 11, 45, 64
11, 53880, Note_on_c, 11, 44, 105
11, 53952, Note_off_c, 11, 44, 64
11, 54000, Note_on_c, 11, 45, 105
11, 54072, Note_off_c, 11, 45, 64
11, 54120, Note_on_c, 11, 44, 105
11, 54192, Note_off_c, 11, 44, 64
11, 54240, Note_on_c, 11, 45, 105
11, 54312, Note_off_c, 11, 45, 64
11, 54360, Note_on_c, 11, 44, 105
11, 54432, Note_off_c, 11, 44, 64
11, 54480, Note_on_c, 11, 45, 105
11, 54552, Note_off_c, 11, 45, 64
11, 54600, Note_on_c, 11, 47, 105
11, 54672, Note_off_c, 11, 47, 64
11, 54720, Note_on_c, 11, 48, 105
11, 54912, Note_off_c, 11, 48, 64
11, 56640, Note_on_c, 11, 37, 58
11, 57600, Note_off_c, 11, 37, 64
11, 57600, Note_on_c, 11, 40, 58
11, 58368, Note_off_c, 11, 40, 64
11, 58560, Note_on_c, 11, 38, 58
11, 58752, Note_off_c, 11, 38, 64
11, 59040, Note_on_c, 11, 43, 72
11, 59232, Note_off_c, 11, 43, 64
11, 59520, Note_on_c, 11, 38, 72
11, 59712, Note_off_c, 11, 38, 64
11, 60000, Note_on_c, 11, 31, 72
11, 60192, Note_off_c, 11, 31, 64
11, 60480, Note_on_c, 11, 36, 58
11, 60864, Note_off_c, 11, 36, 64
11, 60960, Note_on_c, 11, 35, 58
11, 61344, Note_off_c, 11, 35, 64
11, 61440, Note_on_c, 11, 36, 58
11, 61824, Note_off_c, 11, 36, 64
11, 61920, Note_on_c, 11, 35, 58
11, 62112, Note_off_c, 11, 35, 64
11, 62400, Note_on_c, 11, 35, 58
11, 62592, Note_off_c, 11, 35, 64
11, 62880, Note_on_c, 11, 38, 58
11, 63072, Note_off_c, 11, 38, 64
11, 63360, Note_on_c, 11, 31, 58
11, 63552, Note_off_c, 11, 31, 64
11, 63840, Note_on_c, 11, 40, 105
11, 63984, Note_off_c, 11, 40, 64
11, 64080, Note_on_c, 11, 40, 105
11, 64224, Note_off_c, 11, 40, 64
11, 64320, Note_on_c, 11, 40, 105
11, 64404, Note_off_c, 11, 40, 64
11, 64440, Note_on_c, 11, 42, 105
11, 64524, Note_off_c, 11, 42, 64
11, 64560, Note_on_c, 11, 43, 105
11, 64644, Note_off_c, 11, 43, 64
11, 64680, Note_on_c, 11, 40, 105
11, 64764, Note_off_c, 11, 40, 64
11, 64800, Note_on_c, 11, 39, 105
11, 64884, Note_off_c, 11, 39, 64
11, 64920, Note_on_c, 11, 35, 105
11, 65004, Note_off_c, 11, 35, 64
11, 65040, Note_on_c, 11, 37, 105
11, 65124, Note_off_c, 11, 37, 64
11, 65160, Note_on_c, 11, 39, 105
11, 65244, Note_off_c, 11, 39, 64
11, 65280, Note_on_c, 11, 40, 105
11, 65364, Note_off_c, 11, 40, 64
11, 65400, Note_on_c, 11, 42, 105
11, 65484, Note_off_c, 11, 42, 64
11, 65520, Note_on_c, 11, 43, 105
11, 65604, Note_off_c, 11, 43, 64
11, 65640, Note_on_c, 11, 40, 105
11, 65724, Note_off_c, 11, 40, 64
11, 65760, Note_on_c, 11, 39, 105
11, 65844, Note_off_c, 11, 39, 64
11, 65880, Note_on_c, 11, 35, 105
11, 65964, Note_off_c, 11, 35, 64
11, 66000, Note_on_c, 11, 37, 105
11, 66084, Note_off_c, 11, 37, 64
11, 66120, Note_on_c, 11, 39, 105
11, 66204, Note_off_c, 11, 39, 64
11, 66240, Note_on_c, 11, 40, 105
11, 66324, Note_off_c, 11, 40, 64
11, 66360, Note_on_c, 11, 42, 105
11, 66444, Note_off_c, 11, 42, 64
11, 66480, Note_on_c, 11, 43, 105
11, 66564, Note_off_c, 11, 43, 64
11, 66600, Note_on_c, 11, 40, 105
11, 66684, Note_off_c, 11, 40, 64
11, 66720, Note_on_c, 11, 39, 105
11, 66804, Note_off_c, 11, 39, 64
11, 66840, Note_on_c, 11, 35, 105
11, 66924, Note_off_c, 11, 35, 64
11, 66960, Note_on_c, 11, 37, 105
11, 67044, Note_off_c, 11, 37, 64
11, 67080, Note_on_c, 11, 39, 105
11, 67164, Note_off_c, 11, 39, 64
11, 67200, Note_on_c, 11, 40, 105
11, 67392, Note_off_c, 11, 40, 64
11, 69600, Note_on_c, 11, 48, 72
11, 69792, Note_off_c, 11, 48, 64
11, 70080, Note_on_c, 11, 50, 72
11, 70272, Note_off_c, 11, 50, 64
11, 70560, Note_on_c, 11, 38, 72
11, 70752, Note_off_c, 11, 38, 64
11, 71040, Note_on_c, 11, 43, 58
11, 71232, Note_off_c, 11, 43, 64
11, 72240, Note_on_c, 11, 40, 58
11, 72480, Note_off_c, 11, 40, 64
11, 72480, Note_on_c, 11, 39, 58
11, 72720, Note_off_c, 11, 39, 64
11, 72720, Note_on_c, 11, 35, 58
11, 72912, Note_off_c, 11, 35, 64
11, 73200, Note_on_c, 11, 40, 58
11, 73440, Note_off_c, 11, 40, 64
11, 73440, Note_on_c, 11, 39, 58
11, 73680, Note_off_c, 11, 39, 64
11, 73680, Note_on_c, 11, 35, 58
11, 73872, Note_off_c, 11, 35, 64
11, 74160, Note_on_c, 11, 40, 58
11, 74400, Note_off_c, 11, 40, 64
11, 74400, Note_on_c, 11, 39, 58
11, 74640, Note_off_c, 11, 39, 64
11, 74640, Note_on_c, 11, 35, 58
11, 74832, Note_off_c, 11, 35, 64
11, 74880, Note_on_c, 11, 40, 58
11, 75072, Note_off_c, 11, 40, 64
11, 75360, Note_on_c, 11, 36, 105
11, 75504, Note_off_c, 11, 36, 64
11, 75600, Note_on_c, 11, 36, 105
11, 75744, Note_off_c, 11, 36, 64
11, 75840, Note_on_c, 11, 36, 105
11, 75924, Note_off_c, 11, 36, 64
11, 75960, Note_on_c, 11, 40, 105
11, 76044, Note_off_c, 11, 40, 64
11, 76080, Note_on_c, 11, 43, 105
11, 76164, Note_off_c, 11, 43, 64
11, 76200, Note_on_c, 11, 48, 105
11, 76284, Note_off_c, 11, 48, 64
11, 76320, Note_on_c, 11, 47, 105
11, 76404, Note_off_c, 11, 47, 64
11, 76440, Note_on_c, 11, 43, 105
11, 76524, Note_off_c, 11, 43, 64
11, 76560, Note_on_c, 11, 45, 105
11, 76644, Note_off_c, 11, 45, 64
11, 76680, Note_on_c, 11, 47, 105
11, 76764, Note_off_c, 11, 47, 64
11, 76800, Note_on_c, 11, 48, 105
11, 76884, Note_off_c, 11, 48, 64
11, 76920, Note_on_c, 11, 48, 105
11, 77004, Note_off_c, 11, 48, 64
11, 77040, Note_on_c, 11, 48, 105
11, 77124, Note_off_c, 11, 48, 64
11, 77160, Note_on_c, 11, 48, 105
11, 77244, Note_off_c, 11, 48, 64
11, 77280, Note_on_c, 11, 48, 105
11, 77364, Note_off_c, 11, 48, 64
11, 77400, Note_on_c, 11, 48, 105
11, 77484, Note_off_c, 11, 48, 64
11, 77520, Note_on_c, 11, 48, 105
11, 77604, Note_off_c, 11, 48, 64
11, 77640, Note_on_c, 11, 48, 105
11, 77724, Note_off_c, 11, 48, 64
11, 77760, Note_on_c, 11, 50, 105
11, 77844, Note_off_c, 11, 50, 64
11, 77880, Note_on_c, 11, 50, 105
11, 77964, Note_off_c, 11, 50, 64
11, 78000, Note_on_c, 11, 50, 105
11, 78084, Note_off_c, 11, 50, 64
11, 78120, Note_on_c, 11, 50, 105
11, 78204, Note_off_c, 11, 50, 64
11, 78240, Note_on_c, 11, 38, 105
11, 78324, Note_off_c, 11, 38, 64
11, 78360, Note_on_c, 11, 38, 105
11, 78444, Note_off_c, 11, 38, 64
11, 78480, Note_on_c, 11, 38, 105
11, 78564, Note_off_c, 11, 38, 64
11, 78600, Note_on_c, 11, 38, 105
11, 78684, Note_off_c, 11, 38, 64
11, 78720, Note_on_c, 11, 43, 105
11, 78804, Note_off_c, 11, 43, 64
11, 78840, Note_on_c, 11, 31, 105
11, 78924, Note_off_c, 11, 31, 64
11, 78960, Note_on_c, 11, 33, 105
11, 79044, Note_off_c, 11, 33, 64
11, 79080, Note_on_c, 11, 35, 105
11, 79164, Note_off_c, 11, 35, 64
11, 79200, Note_on_c, 11, 36, 105
11, 79284, Note_off_c, 11, 36, 64
11, 79320, Note_on_c, 11, 40, 105
11, 79404, Note_off_c, 11, 40, 64
11, 79440, Note_on_c, 11, 38, 105
11, 79524, Note_off_c, 11, 38, 64
11, 79560, Note_on_c, 11, 42, 105
11, 79644, Note_off_c, 11, 42, 64
11, 79680, Note_on_c, 11, 40, 105
11, 79764, Note_off_c, 11, 40, 64
11, 79800, Note_on_c, 11, 43, 105
11, 79884, Note_off_c, 11, 43, 64
11, 79920, Note_on_c, 11, 42, 105
11, 80004, Note_off_c, 11, 42, 64
11, 80040, Note_on_c, 11, 45, 105
11, 80124, Note_off_c, 11, 45, 64
11, 80160, Note_on_c, 11, 43, 105
11, 80244, Note_off_c, 11, 43, 64
11, 80280, Note_on_c, 11, 47, 105
11, 80364, Note_off_c, 11, 47, 64
11, 80400, Note_on_c, 11, 45, 105
11, 80484, Note_off_c, 11, 45, 64
11, 80520, Note_on_c, 11, 48, 105
11, 80604, Note_off_c, 11, 48, 64
11, 80640, Note_on_c, 11, 47, 105
11, 80724, Note_off_c, 11, 47, 64
11, 80760, Note_on_c, 11, 50, 105
11, 80844, Note_off_c, 11, 50, 64
11, 80880, Note_on_c, 11, 47, 105
11, 80964, Note_off_c, 11, 47, 64
11, 81000, Note_on_c, 11, 43, 105
11, 81084, Note_off_c, 11, 43, 64
11, 81120, Note_on_c, 11, 48, 105
11, 81204, Note_off_c, 11, 48, 64
11, 81240, Note_on_c, 11, 45, 105
11, 81324, Note_off_c, 11, 45, 64
11, 81360, Note_on_c, 11, 42, 105
11, 81444, Note_off_c, 11, 42, 64
11, 81480, Note_on_c, 11, 38, 105
11, 81564, Note_off_c, 11, 38, 64
11, 81600, Note_on_c, 11, 43, 105
11, 81684, Note_off_c, 11, 43, 64
11, 81720, Note_on_c, 11, 43, 105
11, 81804, Note_off_c, 11, 43, 64
11, 81840, Note_on_c, 11, 40, 105
11, 81924, Note_off_c, 11, 40, 64
11, 81960, Note_on_c, 11, 40, 105
11, 82044, Note_off_c, 11, 40, 64
11, 82080, Note_on_c, 11, 36, 105
11, 82164, Note_off_c, 11, 36, 64
11, 82200, Note_on_c, 11, 36, 105
11, 82284, Note_off_c, 11, 36, 64
11, 82320, Note_on_c, 11, 38, 105
11, 82404, Note_off_c, 11, 38, 64
11, 82440, Note_on_c, 11, 38, 105
11, 82524, Note_off_c, 11, 38, 64
11, 82560, Note_on_c, 11, 31, 105
11, 82644, Note_off_c, 11, 31, 64
11, 82680, Note_on_c, 11, 43, 105
11, 82764, Note_off_c, 11, 43, 64
11, 82800, Note_on_c, 11, 45, 105
11, 82884, Note_off_c, 11, 45, 64
11, 82920, Note_on_c, 11, 47, 105
11, 83004, Note_off_c, 11, 47, 64
11, 83040, Note_on_c, 11, 48, 105
11, 83124, Note_off_c, 11, 48, 64
11, 83160, Note_on_c, 11, 45, 105
11, 83244, Note_off_c, 11, 45, 64
11, 83280, Note_on_c, 11, 50, 105
11, 83364, Note_off_c, 11, 50, 64
11, 83400, Note_on_c, 11, 48, 105
11, 83484, Note_off_c, 11, 48, 64
11, 83520, Note_on_c, 11, 47, 105
11, 83604, Note_off_c, 11, 47, 64
11, 83640, Note_on_c, 11, 43, 105
11, 83724, Note_off_c, 11, 43, 64
11, 83760, Note_on_c, 11, 42, 105
11, 83844, Note_off_c, 11, 42, 64
11, 83880, Note_on_c, 11, 38, 105
11, 83964, Note_off_c, 11, 38, 64
11, 84000, Note_on_c, 11, 43, 105
11, 84084, Note_off_c, 11, 43, 64
11, 84120, Note_on_c, 11, 38, 105
11, 84204, Note_off_c, 11, 38, 64
11, 84240, Note_on_c, 11, 45, 105
11, 84324, Note_off_c, 11, 45, 64
11, 84360, Note_on_c, 11, 38, 105
11, 84444, Note_off_c, 11, 38, 64
11, 84480, Note_on_c, 11, 47, 105
11, 84564, Note_off_c, 11, 47, 64
11, 84600, Note_on_c, 11, 45, 105
11, 84684, Note_off_c, 11, 45, 64
11, 84720, Note_on_c, 11, 44, 105
11, 84804, Note_off_c, 11, 44, 64
11, 84840, Note_on_c, 11, 40, 105
11, 84924, Note_off_c, 11, 40, 64
11, 84960, Note_on_c, 11, 45, 105
11, 85044, Note_off_c, 11, 45, 64
11, 85080, Note_on_c, 11, 43, 105
11, 85164, Note_off_c, 11, 43, 64
11, 85200, Note_on_c, 11, 42, 105
11, 85284, Note_off_c, 11, 42, 64
11, 85320, Note_on_c, 11, 38, 105
11, 85404, Note_off_c, 11, 38, 64
11, 85440, Note_on_c, 11, 43, 105
11, 85524, Note_off_c, 11, 43, 64
11, 85560, Note_on_c, 11, 43, 105
11, 85644, Note_off_c, 11, 43, 64
11, 85680, Note_on_c, 11, 47, 105
11, 85764, Note_off_c, 11, 47, 64
11, 85800, Note_on_c, 11, 47, 105
11, 85884, Note_off_c, 11, 47, 64
11, 85920, Note_on_c, 11, 48, 105
11, 86004, Note_off_c, 11, 48, 64
11, 86040, Note_on_c, 11, 48, 105
11, 86124, Note_off_c, 11, 48, 64
11, 86160, Note_on_c, 11, 50, 105
11, 86244, Note_off_c, 11, 50, 64
11, 86280, Note_on_c, 11, 50, 105
11, 86364, Note_off_c, 11, 50, 64
11, 86400, Note_on_c, 11, 43, 105
11, 86484, Note_off_c, 11, 43, 64
11, 86520, Note_on_c, 11, 43, 105
11, 86604, Note_off_c, 11, 43, 64
11, 86640, Note_on_c, 11, 43, 105
11, 86724, Note_off_c, 11, 43, 64
11, 86760, Note_on_c, 11, 43, 105
11, 86844, Note_off_c, 11, 43, 64
11, 86880, Note_on_c, 11, 43, 105
11, 87072, Note_off_c, 11, 43, 64
11, 87360, Note_on_c, 11, 40, 105
11, 87444, Note_off_c, 11, 40, 64
11, 87480, Note_on_c, 11, 40, 105
11, 87564, Note_off_c, 11, 40, 64
11, 87600, Note_on_c, 11, 40, 105
11, 87684, Note_off_c, 11, 40, 64
11, 87720, Note_on_c, 11, 40, 105
11, 87804, Note_off_c, 11, 40, 64
11, 87840, Note_on_c, 11, 40, 105
11, 88032, Note_off_c, 11, 40, 64
11, 88320, Note_on_c, 11, 35, 105
11, 88404, Note_off_c, 11, 35, 64
11, 88440, Note_on_c, 11, 35, 105
11, 88524, Note_off_c, 11, 35, 64
11, 88560, Note_on_c, 11, 35, 105
11, 88644, Note_off_c, 11, 35, 64
11, 88680, Note_on_c, 11, 35, 105
11, 88764, Note_off_c, 11, 35, 64
11, 88800, Note_on_c, 11, 35, 105
11, 88992, Note_off_c, 11, 35, 64
11, 89280, Note_on_c, 11, 36, 105
11, 89364, Note_off_c, 11, 36, 64
11, 89400, Note_on_c, 11, 36, 105
11, 89484, Note_off_c, 11, 36, 64
11, 89520, Note_on_c, 11, 36, 105
11, 89604, Note_off_c, 11, 36, 64
11, 89640, Note_on_c, 11, 36, 105
11, 89724, Note_off_c, 11, 36, 64
11, 89760, Note_on_c, 11, 33, 105
11, 89844, Note_off_c, 11, 33, 64
11, 89880, Note_on_c, 11, 33, 105
11, 89964, Note_off_c, 11, 33, 64
11, 90000, Note_on_c, 11, 33, 105
11, 90084, Note_off_c, 11, 33, 64
11, 90120, Note_on_c, 11, 33, 105
11, 90204, Note_off_c, 11, 33, 64
11, 90240, Note_on_c, 11, 30, 105
11, 90384, Note_off_c, 11, 30, 64
11, 90480, Note_on_c, 11, 42, 105
11, 90624, Note_off_c, 11, 42, 64
11, 90960, Note_on_c, 11, 43, 105
11, 91128, Note_off_c, 11, 43, 64
11, 91200, Note_on_c, 11, 45, 105
11, 91368, Note_off_c, 11, 45, 64
11, 91440, Note_on_c, 11, 47, 105
11, 91566, Note_off_c, 11, 47, 64
11, 91620, Note_on_c, 11, 48, 105
11, 91662, Note_off_c, 11, 48, 64
11, 91680, Note_on_c, 11, 50, 105
11, 91848, Note_off_c, 11, 50, 64
11, 91920, Note_on_c, 11, 38, 105
11, 92088, Note_off_c, 11, 38, 64
11, 92160, Note_on_c, 11, 43, 105
11, 92244, Note_off_c, 11, 43, 64
11, 92280, Note_on_c, 11, 43, 105
11, 92364, Note_off_c, 11, 43, 64
11, 92400, Note_on_c, 11, 43, 105
11, 92484, Note_off_c, 11, 43, 64
11, 92520, Note_on_c, 11, 43, 105
11, 92604, Note_off_c, 11, 43, 64
11, 92640, Note_on_c, 11, 43, 105
11, 92832, Note_off_c, 11, 43, 64
11, 93120, Note_on_c, 11, 40, 105
11, 93204, Note_off_c, 11, 40, 64
11, 93240, Note_on_c, 11, 40, 105
11, 93324, Note_off_c, 11, 40, 64
11, 93360, Note_on_c, 11, 40, 105
11, 93444, Note_off_c, 11, 40, 64
11, 93480, Note_on_c, 11, 40, 105
11, 93564, Note_off_c, 11, 40, 64
11, 93600, Note_on_c, 11, 40, 105
11, 93792, Note_off_c, 11, 40, 64
11, 94080, Note_on_c, 11, 35, 105
11, 94164, Note_off_c, 11, 35, 64
11, 94200, Note_on_c, 11, 35, 105
11, 94284, Note_off_c, 11, 35, 64
11, 94320, Note_on_c, 11, 35, 105
11, 94404, Note_off_c, 11, 35, 64
11, 94440, Note_on_c, 11, 35, 105
11, 94524, Note_off_c, 11, 35, 64
11, 94560, Note_on_c, 11, 35, 105
11, 94752, Note_off_c, 11, 35, 64
11, 95040, Note_on_c, 11, 36, 105
11, 95124, Note_off_c, 11, 36, 64
11, 95160, Note_on_c, 11, 36, 105
11, 95244, Note_off_c, 11, 36, 64
11, 95280, Note_on_c, 11, 36, 105
11, 95364, Note_off_c, 11, 36, 64
11, 95400, Note_on_c, 11, 36, 105
11, 95484, Note_off_c, 11, 36, 64
11, 95520, Note_on_c, 11, 33, 105
11, 95604, Note_off_c, 11, 33, 64
11, 95640, Note_on_c, 11, 33, 105
11, 95724, Note_off_c, 11, 33, 64
11, 95760, Note_on_c, 11, 33, 105
11, 95844, Note_off_c, 11, 33, 64
11, 95880, Note_on_c, 11, 33, 105
11, 95964, Note_off_c, 11, 33, 64
11, 96000, Note_on_c, 11, 30, 105
11, 96144, Note_off_c, 11, 30, 64
11, 96240, Note_on_c, 11, 42, 105
11, 96384, Note_off_c, 11, 42, 64
11, 98640, Note_on_c, 11, 39, 58
11, 98880, Note_off_c, 11, 39, 64
11, 98880, Note_on_c, 11, 38, 58
11, 99024, Note_off_c, 11, 38, 64
11, 99120, Note_on_c, 11, 48, 58
11, 99264, Note_off_c, 11, 48, 64
11, 99840, Note_on_c, 11, 42, 58
11, 100320, Note_off_c, 11, 42, 64
11, 100320, Note_on_c, 11, 43, 58
11, 100704, Note_off_c, 11, 43, 64
11, 100800, Note_on_c, 11, 36, 58
11, 101280, Note_off_c, 11, 36, 64
11, 101280, Note_on_c, 11, 38, 58
11, 101664, Note_off_c, 11, 38, 64
11, 101760, Note_on_c, 11, 31, 105
11, 101844, Note_off_c, 11, 31, 64
11, 101880, Note_on_c, 11, 35, 105
11, 101940, Note_off_c, 11, 35, 64
11, 101940, Note_on_c, 11, 38, 105
11, 101982, Note_off_c, 11, 38, 64
11, 102000, Note_on_c, 11, 43, 105
11, 102084, Note_off_c, 11, 43, 64
11, 102120, Note_on_c, 11, 43, 105
11, 102204, Note_off_c, 11, 43, 64
11, 102240, Note_on_c, 11, 43, 105
11, 102324, Note_off_c, 11, 43, 64
11, 102360, Note_on_c, 11, 43, 105
11, 102444, Note_off_c, 11, 43, 64
11, 102480, Note_on_c, 11, 43, 105
11, 102564, Note_off_c, 11, 43, 64
11, 102600, Note_on_c, 11, 43, 105
11, 102684, Note_off_c, 11, 43, 64
11, 102720, Note_on_c, 11, 43, 105
11, 102804, Note_off_c, 11, 43, 64
11, 102840, Note_on_c, 11, 43, 105
11, 102924, Note_off_c, 11, 43, 64
11, 102960, Note_on_c, 11, 43, 105
11, 103044, Note_off_c, 11, 43, 64
11, 103080, Note_on_c, 11, 43, 105
11, 103164, Note_off_c, 11, 43, 64
11, 103200, Note_on_c, 11, 43, 105
11, 103284, Note_off_c, 11, 43, 64
11, 103320, Note_on_c, 11, 43, 105
11, 103404, Note_off_c, 11, 43, 64
11, 103440, Note_on_c, 11, 43, 105
11, 103524, Note_off_c, 11, 43, 64
11, 103560, Note_on_c, 11, 43, 105
11, 103644, Note_off_c, 11, 43, 64
11, 103680, Note_on_c, 11, 43, 105
11, 103764, Note_off_c, 11, 43, 64
11, 103800, Note_on_c, 11, 43, 105
11, 103884, Note_off_c, 11, 43, 64
11, 103920, Note_on_c, 11, 52, 105
11, 104004, Note_off_c, 11, 52, 64
11, 104040, Note_on_c, 11, 52, 105
11, 104124, Note_off_c, 11, 52, 64
11, 104160, Note_on_c, 11, 48, 105
11, 104244, Note_off_c, 11, 48, 64
11, 104280, Note_on_c, 11, 48, 105
11, 104364, Note_off_c, 11, 48, 64
11, 104400, Note_on_c, 11, 50, 105
11, 104484, Note_off_c, 11, 50, 64
11, 104520, Note_on_c, 11, 50, 105
11, 104604, Note_off_c, 11, 50, 64
11, 104640, Note_on_c, 11, 43, 105
11, 104724, Note_off_c, 11, 43, 64
11, 104760, Note_on_c, 11, 38, 105
11, 104800, Note_off_c, 11, 38, 64
11, 104800, Note_on_c, 11, 40, 105
11, 104840, Note_off_c, 11, 40, 64
11, 104840, Note_on_c, 11, 42, 105
11, 104880, Note_off_c, 11, 42, 64
11, 104880, Note_on_c, 11, 43, 105
11, 104964, Note_off_c, 11, 43, 64
11, 105000, Note_on_c, 11, 43, 105
11, 105084, Note_off_c, 11, 43, 64
11, 105120, Note_on_c, 11, 43, 105
11, 105204, Note_off_c, 11, 43, 64
11, 105240, Note_on_c, 11, 43, 105
11, 105324, Note_off_c, 11, 43, 64
11, 105360, Note_on_c, 11, 43, 105
11, 105444, Note_off_c, 11, 43, 64
11, 105480, Note_on_c, 11, 43, 105
11, 105564, Note_off_c, 11, 43, 64
11, 105600, Note_on_c, 11, 43, 105
11, 105684, Note_off_c, 11, 43, 64
11, 105720, Note_on_c, 11, 43, 105
11, 105804, Note_off_c, 11, 43, 64
11, 105840, Note_on_c, 11, 43, 105
11, 105924, Note_off_c, 11, 43, 64
11, 105960, Note_on_c, 11, 43, 105
11, 106044, Note_off_c, 11, 43, 64
11, 106080, Note_on_c, 11, 43, 105
11, 106164, Note_off_c, 11, 43, 64
11, 106200, Note_on_c, 11, 43, 105
11, 106284, Note_off_c, 11, 43, 64
11, 106320, Note_on_c, 11, 43, 105
11, 106404, Note_off_c, 11, 43, 64
11, 106440, Note_on_c, 11, 43, 105
11, 106524, Note_off_c, 11, 43, 64
11, 106560, Note_on_c, 11, 43, 105
11, 106644, Note_off_c, 11, 43, 64
11, 106680, Note_on_c, 11, 43, 105
11, 106764, Note_off_c, 11, 43, 64
11, 106800, Note_on_c, 11, 52, 105
11, 106884, Note_off_c, 11, 52, 64
11, 106920, Note_on_c, 11, 52, 105
11, 107004, Note_off_c, 11, 52, 64
11, 107040, Note_on_c, 11, 48, 105
11, 107124, Note_off_c, 11, 48, 64
11, 107160, Note_on_c, 11, 48, 105
11, 107244, Note_off_c, 11, 48, 64
11, 107280, Note_on_c, 11, 50, 105
11, 107364, Note_off_c, 11, 50, 64
11, 107400, Note_on_c, 11, 50, 105
11, 107484, Note_off_c, 11, 50, 64
11, 107520, Note_on_c, 11, 47, 58
11, 107616, Note_off_c, 11, 47, 64
11, 107760, Note_on_c, 11, 52, 58
11, 107856, Note_off_c, 11, 52, 64
11, 108000, Note_on_c, 11, 48, 58
11, 108096, Note_off_c, 11, 48, 64
11, 108240, Note_on_c, 11, 50, 58
11, 108336, Note_off_c, 11, 50, 64
11, 108480, Note_on_c, 11, 47, 105
11, 108576, Note_off_c, 11, 47, 64
11, 108600, Note_on_c, 11, 47, 105
11, 108696, Note_off_c, 11, 47, 64
11, 108720, Note_on_c, 11, 52, 105
11, 108816, Note_off_c, 11, 52, 64
11, 108840, Note_on_c, 11, 52, 105
11, 108936, Note_off_c, 11, 52, 64
11, 108960, Note_on_c, 11, 48, 105
11, 109056, Note_off_c, 11, 48, 64
11, 109080, Note_on_c, 11, 48, 105
11, 109176, Note_off_c, 11, 48, 64
11, 109200, Note_on_c, 11, 50, 105
11, 109296, Note_off_c, 11, 50, 64
11, 109320, Note_on_c, 11, 50, 105
11, 109416, Note_off_c, 11, 50, 64
11, 109440, Note_on_c, 11, 43, 105
11, 109632, Note_off_c, 11, 43, 64
11, 113280, Note_on_c, 11, 36, 58
11, 113472, Note_off_c, 11, 36, 64
11, 113520, Note_on_c, 11, 36, 72
11, 113712, Note_off_c, 11, 36, 64
11, 113760, Note_on_c, 11, 36, 72
11, 113952, Note_off_c, 11, 36, 64
11, 114000, Note_on_c, 11, 36, 72
11, 114192, Note_off_c, 11, 36, 64
11, 114240, Note_on_c, 11, 36, 72
11, 114432, Note_off_c, 11, 36, 64
11, 114480, Note_on_c, 11, 36, 72
11, 114672, Note_off_c, 11, 36, 64
11, 114720, Note_on_c, 11, 36, 72
11, 114912, Note_off_c, 11, 36, 64
11, 114960, Note_on_c, 11, 36, 72
11, 115152, Note_off_c, 11, 36, 64
11, 115200, Note_on_c, 11, 36, 72
11, 115584, Note_off_c, 11, 36, 64
11, 115920, Note_on_c, 11, 36, 72
11, 116064, Note_off_c, 11, 36, 64
11, 116160, Note_on_c, 11, 41, 72
11, 116304, Note_off_c, 11, 41, 64
11, 116400, Note_on_c, 11, 36, 72
11, 116544, Note_off_c, 11, 36, 64
11, 117120, Note_on_c, 11, 45, 72
11, 118080, Note_off_c, 11, 45, 64
11, 119040, Note_off_c, 11, 43, 64
11, 119040, Note_on_c, 11, 41, 72
11, 119232, Note_off_c, 11, 41, 64
11, 119280, Note_on_c, 11, 38, 72
11, 119520, Note_off_c, 11, 38, 64
11, 119520, Note_on_c, 11, 40, 72
11, 119664, Note_off_c, 11, 40, 64
11, 119760, Note_on_c, 11, 35, 72
11, 119904, Note_off_c, 11, 35, 64
11, 120000, Note_on_c, 11, 36, 72
11, 120480, Note_off_c, 11, 36, 64
11, 120480, Note_on_c, 11, 40, 72
11, 120864, Note_off_c, 11, 40, 64
11, 120960, Note_on_c, 11, 41, 72
11, 121728, Note_off_c, 11, 41, 64
11, 121920, Note_on_c, 11, 43, 72
11, 122496, Note_off_c, 11, 43, 64
11, 122880, Note_on_c, 11, 36, 105
11, 122976, Note_off_c, 11, 36, 64
11, 123000, Note_on_c, 11, 36, 105
11, 123096, Note_off_c, 11, 36, 64
11, 123120, Note_on_c, 11, 36, 105
11, 123216, Note_off_c, 11, 36, 64
11, 123240, Note_on_c, 11, 36, 105
11, 123336, Note_off_c, 11, 36, 64
11, 123360, Note_on_c, 11, 36, 105
11, 123456, Note_off_c, 11, 36, 64
11, 123480, Note_on_c, 11, 36, 105
11, 123576, Note_off_c, 11, 36, 64
11, 123600, Note_on_c, 11, 36, 105
11, 123696, Note_off_c, 11, 36, 64
11, 123720, Note_on_c, 11, 36, 105
11, 123816, Note_off_c, 11, 36, 64
11, 123840, Note_on_c, 11, 36, 105
11, 123936, Note_off_c, 11, 36, 64
11, 123960, Note_on_c, 11, 36, 105
11, 124056, Note_off_c, 11, 36, 64
11, 124080, Note_on_c, 11, 36, 105
11, 124176, Note_off_c, 11, 36, 64
11, 124200, Note_on_c, 11, 36, 105
11, 124296, Note_off_c, 11, 36, 64
11, 124320, Note_on_c, 11, 36, 105
11, 124416, Note_off_c, 11, 36, 64
11, 124440, Note_on_c, 11, 36, 105
11, 124536, Note_off_c, 11, 36, 64
11, 124560, Note_on_c, 11, 36, 105
11, 124656, Note_off_c, 11, 36, 64
11, 124680, Note_on_c, 11, 36, 105
11, 124776, Note_off_c, 11, 36, 64
11, 124800, Note_on_c, 11, 36, 105
11, 125184, Note_off_c, 11, 36, 64
11, 125520, Note_on_c, 11, 36, 105
11, 125688, Note_off_c, 11, 36, 64
11, 125760, Note_on_c, 11, 41, 105
11, 125928, Note_off_c, 11, 41, 64
11, 126000, Note_on_c, 11, 36, 105
11, 126168, Note_off_c, 11, 36, 64
11, 126480, Note_on_c, 11, 36, 105
11, 126648, Note_off_c, 11, 36, 64
11, 126720, Note_on_c, 11, 41, 105
11, 126888, Note_off_c, 11, 41, 64
11, 126960, Note_on_c, 11, 36, 105
11, 127128, Note_off_c, 11, 36, 64
11, 127440, Note_on_c, 11, 36, 105
11, 127608, Note_off_c, 11, 36, 64
11, 127680, Note_on_c, 11, 41, 105
11, 127848, Note_off_c, 11, 41, 64
11, 127920, Note_on_c, 11, 36, 105
11, 128088, Note_off_c, 11, 36, 64
11, 128160, Note_on_c, 11, 41, 105
11, 128328, Note_off_c, 11, 41, 64
11, 128400, Note_on_c, 11, 36, 105
11, 128568, Note_off_c, 11, 36, 64
11, 128640, Note_on_c, 11, 41, 105
11, 128808, Note_off_c, 11, 41, 64
11, 128880, Note_on_c, 11, 36, 105
11, 129048, Note_off_c, 11, 36, 64
11, 129600, Note_on_c, 11, 45, 58
11, 130560, Note_off_c, 11, 45, 64
11, 130560, Note_on_c, 11, 43, 58
11, 131040, Note_off_c, 11, 43, 64
11, 131040, Note_on_c, 11, 36, 58
11, 131520, Note_off_c, 11, 36, 64
11, 131520, Note_on_c, 11, 41, 58
11, 131712, Note_off_c, 11, 41, 64
11, 133440, Note_on_c, 11, 43, 72
11, 133632, Note_off_c, 11, 43, 64
11, 133680, Note_on_c, 11, 43, 72
11, 133872, Note_off_c, 11, 43, 64
11, 133920, Note_on_c, 11, 43, 72
11, 134112, Note_off_c, 11, 43, 64
11, 134160, Note_on_c, 11, 43, 72
11, 134352, Note_off_c, 11, 43, 64
11, 134400, Note_on_c, 11, 36, 105
11, 134484, Note_off_c, 11, 36, 64
11, 134520, Note_on_c, 11, 40, 105
11, 134604, Note_off_c, 11, 40, 64
11, 134640, Note_on_c, 11, 43, 105
11, 134724, Note_off_c, 11, 43, 64
11, 134760, Note_on_c, 11, 48, 105
11, 134844, Note_off_c, 11, 48, 64
11, 134880, Note_on_c, 11, 52, 105
11, 134964, Note_off_c, 11, 52, 64
11, 135000, Note_on_c, 11, 50, 105
11, 135084, Note_off_c, 11, 50, 64
11, 135120, Note_on_c, 11, 52, 105
11, 135204, Note_off_c, 11, 52, 64
11, 135240, Note_on_c, 11, 48, 105
11, 135324, Note_off_c, 11, 48, 64
11, 135360, Note_on_c, 11, 47, 105
11, 135444, Note_off_c, 11, 47, 64
11, 135480, Note_on_c, 11, 48, 105
11, 135564, Note_off_c, 11, 48, 64
11, 135600, Note_on_c, 11, 50, 105
11, 135684, Note_off_c, 11, 50, 64
11, 135720, Note_on_c, 11, 48, 105
11, 135804, Note_off_c, 11, 48, 64
11, 135840, Note_on_c, 11, 47, 105
11, 135924, Note_off_c, 11, 47, 64
11, 135960, Note_on_c, 11, 45, 105
11, 136044, Note_off_c, 11, 45, 64
11, 136080, Note_on_c, 11, 43, 105
11, 136164, Note_off_c, 11, 43, 64
11, 136200, Note_on_c, 11, 41, 105
11, 136284, Note_off_c, 11, 41, 64
11, 136320, Note_on_c, 11, 40, 105
11, 136404, Note_off_c, 11, 40, 64
11, 136440, Note_on_c, 11, 41, 105
11, 136524, Note_off_c, 11, 41, 64
11, 136560, Note_on_c, 11, 43, 105
11, 136644, Note_off_c, 11, 43, 64
11, 136680, Note_on_c, 11, 40, 105
11, 136764, Note_off_c, 11, 40, 64
11, 136800, Note_on_c, 11, 45, 105
11, 136884, Note_off_c, 11, 45, 64
11, 136920, Note_on_c, 11, 47, 105
11, 137004, Note_off_c, 11, 47, 64
11, 137040, Note_on_c, 11, 48, 105
11, 137124, Note_off_c, 11, 48, 64
11, 137160, Note_on_c, 11, 45, 105
11, 137244, Note_off_c, 11, 45, 64
11, 137280, Note_on_c, 11, 41, 105
11, 137364, Note_off_c, 11, 41, 64
11, 137400, Note_on_c, 11, 38, 105
11, 137484, Note_off_c, 11, 38, 64
11, 137520, Note_on_c, 11, 40, 105
11, 137604, Note_off_c, 11, 40, 64
11, 137640, Note_on_c, 11, 41, 105
11, 137724, Note_off_c, 11, 41, 64
11, 137760, Note_on_c, 11, 43, 105
11, 137844, Note_off_c, 11, 43, 64
11, 137880, Note_on_c, 11, 41, 105
11, 137964, Note_off_c, 11, 41, 64
11, 138000, Note_on_c, 11, 43, 105
11, 138084, Note_off_c, 11, 43, 64
11, 138120, Note_on_c, 11, 31, 105
11, 138204, Note_off_c, 11, 31, 64
11, 138240, Note_on_c, 11, 36, 105
11, 138324, Note_off_c, 11, 36, 64
11, 138360, Note_on_c, 11, 40, 105
11, 138444, Note_off_c, 11, 40, 64
11, 138480, Note_on_c, 11, 43, 105
11, 138564, Note_off_c, 11, 43, 64
11, 138600, Note_on_c, 11, 48, 105
11, 138684, Note_off_c, 11, 48, 64
11, 138720, Note_on_c, 11, 52, 105
11, 138804, Note_off_c, 11, 52, 64
11, 138840, Note_on_c, 11, 50, 105
11, 138924, Note_off_c, 11, 50, 64
11, 138960, Note_on_c, 11, 52, 105
11, 139044, Note_off_c, 11, 52, 64
11, 139080, Note_on_c, 11, 48, 105
11, 139164, Note_off_c, 11, 48, 64
11, 139200, Note_on_c, 11, 47, 105
11, 139284, Note_off_c, 11, 47, 64
11, 139320, Note_on_c, 11, 48, 105
11, 139404, Note_off_c, 11, 48, 64
11, 139440, Note_on_c, 11, 50, 105
11, 139524, Note_off_c, 11, 50, 64
11, 139560, Note_on_c, 11, 48, 105
11, 139644, Note_off_c, 11, 48, 64
11, 139680, Note_on_c, 11, 47, 105
11, 139764, Note_off_c, 11, 47, 64
11, 139800, Note_on_c, 11, 45, 105
11, 139884, Note_off_c, 11, 45, 64
11, 139920, Note_on_c, 11, 43, 105
11, 140004, Note_off_c, 11, 43, 64
11, 140040, Note_on_c, 11, 41, 105
11, 140124, Note_off_c, 11, 41, 64
11, 140160, Note_on_c, 11, 40, 105
11, 140244, Note_off_c, 11, 40, 64
11, 140280, Note_on_c, 11, 41, 105
11, 140364, Note_off_c, 11, 41, 64
11, 140400, Note_on_c, 11, 43, 105
11, 140484, Note_off_c, 11, 43, 64
11, 140520, Note_on_c, 11, 40, 105
11, 140604, Note_off_c, 11, 40, 64
11, 140640, Note_on_c, 11, 45, 105
11, 140724, Note_off_c, 11, 45, 64
11, 140760, Note_on_c, 11, 47, 105
11, 140844, Note_off_c, 11, 47, 64
11, 140880, Note_on_c, 11, 48, 105
11, 140964, Note_off_c, 11, 48, 64
11, 141000, Note_on_c, 11, 45, 105
11, 141084, Note_off_c, 11, 45, 64
11, 141120, Note_on_c, 11, 42, 105
11, 141204, Note_off_c, 11, 42, 64
11, 141240, Note_on_c, 11, 43, 105
11, 141324, Note_off_c, 11, 43, 64
11, 141360, Note_on_c, 11, 45, 105
11, 141444, Note_off_c, 11, 45, 64
11, 141480, Note_on_c, 11, 43, 105
11, 141564, Note_off_c, 11, 43, 64
11, 141600, Note_on_c, 11, 42, 105
11, 141684, Note_off_c, 11, 42, 64
11, 141720, Note_on_c, 11, 38, 105
11, 141804, Note_off_c, 11, 38, 64
11, 141840, Note_on_c, 11, 40, 105
11, 141924, Note_off_c, 11, 40, 64
11, 141960, Note_on_c, 11, 42, 105
11, 142044, Note_off_c, 11, 42, 64
11, 142080, Note_on_c, 11, 43, 105
11, 142164, Note_off_c, 11, 43, 64
11, 142200, Note_on_c, 11, 45, 105
11, 142284, Note_off_c, 11, 45, 64
11, 142320, Note_on_c, 11, 47, 105
11, 142404, Note_off_c, 11, 47, 64
11, 142440, Note_on_c, 11, 45, 105
11, 142524, Note_off_c, 11, 45, 64
11, 142560, Note_on_c, 11, 44, 105
11, 142644, Note_off_c, 11, 44, 64
11, 142680, Note_on_c, 11, 45, 105
11, 142764, Note_off_c, 11, 45, 64
11, 142800, Note_on_c, 11, 42, 105
11, 142884, Note_off_c, 11, 42, 64
11, 142920, Note_on_c, 11, 44, 105
11, 143004, Note_off_c, 11, 44, 64
11, 143040, Note_on_c, 11, 45, 105
11, 143124, Note_off_c, 11, 45, 64
11, 143160, Note_on_c, 11, 47, 105
11, 143244, Note_off_c, 11, 47, 64
11, 143280, Note_on_c, 11, 48, 105
11, 143364, Note_off_c, 11, 48, 64
11, 143400, Note_on_c, 11, 47, 105
11, 143484, Note_off_c, 11, 47, 64
11, 143520, Note_on_c, 11, 45, 105
11, 143604, Note_off_c, 11, 45, 64
11, 143640, Note_on_c, 11, 47, 105
11, 143724, Note_off_c, 11, 47, 64
11, 143760, Note_on_c, 11, 43, 105
11, 143844, Note_off_c, 11, 43, 64
11, 143880, Note_on_c, 11, 45, 105
11, 143964, Note_off_c, 11, 45, 64
11, 144000, Note_on_c, 11, 42, 105
11, 144084, Note_off_c, 11, 42, 64
11, 144120, Note_on_c, 11, 43, 105
11, 144204, Note_off_c, 11, 43, 64
11, 144240, Note_on_c, 11, 45, 105
11, 144324, Note_off_c, 11, 45, 64
11, 144360, Note_on_c, 11, 43, 105
11, 144444, Note_off_c, 11, 43, 64
11, 144480, Note_on_c, 11, 42, 105
11, 144564, Note_off_c, 11, 42, 64
11, 144600, Note_on_c, 11, 38, 105
11, 144684, Note_off_c, 11, 38, 64
11, 144720, Note_on_c, 11, 40, 105
11, 144804, Note_off_c, 11, 40, 64
11, 144840, Note_on_c, 11, 42, 105
11, 144924, Note_off_c, 11, 42, 64
11, 144960, Note_on_c, 11, 43, 105
11, 145044, Note_off_c, 11, 43, 64
11, 145080, Note_on_c, 11, 47, 105
11, 145164, Note_off_c, 11, 47, 64
11, 145200, Note_on_c, 11, 50, 105
11, 145284, Note_off_c, 11, 50, 64
11, 145320, Note_on_c, 11, 50, 105
11, 145404, Note_off_c, 11, 50, 64
11, 145440, Note_on_c, 11, 50, 105
11, 145524, Note_off_c, 11, 50, 64
11, 145560, Note_on_c, 11, 50, 105
11, 145644, Note_off_c, 11, 50, 64
11, 145680, Note_on_c, 11, 47, 105
11, 145764, Note_off_c, 11, 47, 64
11, 145800, Note_on_c, 11, 43, 105
11, 145884, Note_off_c, 11, 43, 64
11, 145920, Note_on_c, 11, 48, 105
11, 146004, Note_off_c, 11, 48, 64
11, 146040, Note_on_c, 11, 45, 105
11, 146124, Note_off_c, 11, 45, 64
11, 146160, Note_on_c, 11, 47, 105
11, 146244, Note_off_c, 11, 47, 64
11, 146280, Note_on_c, 11, 43, 105
11, 146364, Note_off_c, 11, 43, 64
11, 146400, Note_on_c, 11, 42, 105
11, 146484, Note_off_c, 11, 42, 64
11, 146520, Note_on_c, 11, 45, 105
11, 146604, Note_off_c, 11, 45, 64
11, 146640, Note_on_c, 11, 42, 105
11, 146724, Note_off_c, 11, 42, 64
11, 146760, Note_on_c, 11, 38, 105
11, 146844, Note_off_c, 11, 38, 64
11, 146880, Note_on_c, 11, 43, 105
11, 146964, Note_off_c, 11, 43, 64
11, 147000, Note_on_c, 11, 47, 105
11, 147084, Note_off_c, 11, 47, 64
11, 147120, Note_on_c, 11, 50, 105
11, 147204, Note_off_c, 11, 50, 64
11, 147240, Note_on_c, 11, 50, 105
11, 147324, Note_off_c, 11, 50, 64
11, 147360, Note_on_c, 11, 50, 105
11, 147444, Note_off_c, 11, 50, 64
11, 147480, Note_on_c, 11, 50, 105
11, 147564, Note_off_c, 11, 50, 64
11, 147600, Note_on_c, 11, 47, 105
11, 147684, Note_off_c, 11, 47, 64
11, 147720, Note_on_c, 11, 43, 105
11, 147804, Note_off_c, 11, 43, 64
11, 147840, Note_on_c, 11, 48, 105
11, 147924, Note_off_c, 11, 48, 64
11, 147960, Note_on_c, 11, 45, 105
11, 148044, Note_off_c, 11, 45, 64
11, 148080, Note_on_c, 11, 47, 105
11, 148164, Note_off_c, 11, 47, 64
11, 148200, Note_on_c, 11, 43, 105
11, 148284, Note_off_c, 11, 43, 64
11, 148320, Note_on_c, 11, 42, 105
11, 148404, Note_off_c, 11, 42, 64
11, 148440, Note_on_c, 11, 45, 105
11, 148524, Note_off_c, 11, 45, 64
11, 148560, Note_on_c, 11, 42, 105
11, 148644, Note_off_c, 11, 42, 64
11, 148680, Note_on_c, 11, 38, 105
11, 148764, Note_off_c, 11, 38, 64
11, 148800, Note_on_c, 11, 43, 105
11, 148884, Note_off_c, 11, 43, 64
11, 148920, Note_on_c, 11, 45, 105
11, 149004, Note_off_c, 11, 45, 64
11, 149040, Note_on_c, 11, 42, 105
11, 149124, Note_off_c, 11, 42, 64
11, 149160, Note_on_c, 11, 43, 105
11, 149244, Note_off_c, 11, 43, 64
11, 149280, Note_on_c, 11, 40, 105
11, 149364, Note_off_c, 11, 40, 64
11, 149400, Note_on_c, 11, 41, 105
11, 149484, Note_off_c, 11, 41, 64
11, 149520, Note_on_c, 11, 38, 105
11, 149604, Note_off_c, 11, 38, 64
11, 149640, Note_on_c, 11, 40, 105
11, 149724, Note_off_c, 11, 40, 64
11, 149760, Note_on_c, 11, 36, 105
11, 149844, Note_off_c, 11, 36, 64
11, 149880, Note_on_c, 11, 48, 110
11, 149964, Note_off_c, 11, 48, 64
11, 150000, Note_on_c, 11, 48, 72
11, 150084, Note_off_c, 11, 48, 64
11, 150120, Note_on_c, 11, 48, 72
11, 150204, Note_off_c, 11, 48, 64
11, 150240, Note_on_c, 11, 38, 72
11, 150324, Note_off_c, 11, 38, 64
11, 150360, Note_on_c, 11, 50, 72
11, 150444, Note_off_c, 11, 50, 64
11, 150480, Note_on_c, 11, 50, 72
11, 150564, Note_off_c, 11, 50, 64
11, 150600, Note_on_c, 11, 50, 72
11, 150684, Note_off_c, 11, 50, 64
11, 150720, Note_on_c, 11, 36, 110
11, 150804, Note_off_c, 11, 36, 64
11, 150840, Note_on_c, 11, 48, 72
11, 150924, Note_off_c, 11, 48, 64
11, 150960, Note_on_c, 11, 48, 72
11, 151044, Note_off_c, 11, 48, 64
11, 151080, Note_on_c, 11, 48, 72
11, 151164, Note_off_c, 11, 48, 64
11, 151200, Note_on_c, 11, 38, 72
11, 151284, Note_off_c, 11, 38, 64
11, 151320, Note_on_c, 11, 50, 72
11, 151404, Note_off_c, 11, 50, 64
11, 151440, Note_on_c, 11, 50, 72
11, 151524, Note_off_c, 11, 50, 64
11, 151560, Note_on_c, 11, 50, 72
11, 151644, Note_off_c, 11, 50, 64
11, 151680, Note_on_c, 11, 48, 105
11, 151752, Note_off_c, 11, 48, 64
11, 151800, Note_on_c, 11, 47, 105
11, 151872, Note_off_c, 11, 47, 64
11, 151920, Note_on_c, 11, 48, 105
11, 151992, Note_off_c, 11, 48, 64
11, 152040, Note_on_c, 11, 47, 105
11, 152112, Note_off_c, 11, 47, 64
11, 152160, Note_on_c, 11, 48, 105
11, 152232, Note_off_c, 11, 48, 64
11, 152280, Note_on_c, 11, 47, 105
11, 152352, Note_off_c, 11, 47, 64
11, 152400, Note_on_c, 11, 48, 105
11, 152472, Note_off_c, 11, 48, 64
11, 152520, Note_on_c, 11, 44, 105
11, 152592, Note_off_c, 11, 44, 64
11, 152640, Note_on_c, 11, 45, 105
11, 152712, Note_off_c, 11, 45, 64
11, 152760, Note_on_c, 11, 44, 105
11, 152832, Note_off_c, 11, 44, 64
11, 152880, Note_on_c, 11, 45, 105
11, 152952, Note_off_c, 11, 45, 64
11, 153000, Note_on_c, 11, 44, 105
11, 153072, Note_off_c, 11, 44, 64
11, 153120, Note_on_c, 11, 45, 105
11, 153192, Note_off_c, 11, 45, 64
11, 153240, Note_on_c, 11, 44, 105
11, 153312, Note_off_c, 11, 44, 64
11, 153360, Note_on_c, 11, 45, 105
11, 153432, Note_off_c, 11, 45, 64
11, 153480, Note_on_c, 11, 47, 105
11, 153552, Note_off_c, 11, 47, 64
11, 153600, Note_on_c, 11, 48, 105
11, 153792, Note_off_c, 11, 48, 64
11, 155520, Note_on_c, 11, 37, 58
11, 156480, Note_off_c, 11, 37, 64
11, 156480, Note_on_c, 11, 40, 58
11, 157248, Note_off_c, 11, 40, 64
11, 157440, Note_on_c, 11, 38, 58
11, 157632, Note_off_c, 11, 38, 64
11, 157920, Note_on_c, 11, 43, 72
11, 158112, Note_off_c, 11, 43, 64
11, 158400, Note_on_c, 11, 38, 72
11, 158592, Note_off_c, 11, 38, 64
11, 158880, Note_on_c, 11, 31, 72
11, 159072, Note_off_c, 11, 31, 64
11, 159360, Note_on_c, 11, 36, 58
11, 159744, Note_off_c, 11, 36, 64
11, 159840, Note_on_c, 11, 35, 58
11, 160224, Note_off_c, 11, 35, 64
11, 160320, Note_on_c, 11, 36, 58
11, 160704, Note_off_c, 11, 36, 64
11, 160800, Note_on_c, 11, 35, 58
11, 160992, Note_off_c, 11, 35, 64
11, 161280, Note_on_c, 11, 35, 58
11, 161472, Note_off_c, 11, 35, 64
11, 161760, Note_on_c, 11, 38, 58
11, 161952, Note_off_c, 11, 38, 64
11, 162240, Note_on_c, 11, 31, 58
11, 162432, Note_off_c, 11, 31, 64
11, 162720, Note_on_c, 11, 40, 105
11, 162864, Note_off_c, 11, 40, 64
11, 162960, Note_on_c, 11, 40, 105
11, 163104, Note_off_c, 11, 40, 64
11, 163200, Note_on_c, 11, 40, 105
11, 163284, Note_off_c, 11, 40, 64
11, 163320, Note_on_c, 11, 42, 105
11, 163404, Note_off_c, 11, 42, 64
11, 163440, Note_on_c, 11, 43, 105
11, 163524, Note_off_c, 11, 43, 64
11, 163560, Note_on_c, 11, 40, 105
11, 163644, Note_off_c, 11, 40, 64
11, 163680, Note_on_c, 11, 39, 105
11, 163764, Note_off_c, 11, 39, 64
11, 163800, Note_on_c, 11, 35, 105
11, 163884, Note_off_c, 11, 35, 64
11, 163920, Note_on_c, 11, 37, 105
11, 164004, Note_off_c, 11, 37, 64
11, 164040, Note_on_c, 11, 39, 105
11, 164124, Note_off_c, 11, 39, 64
11, 164160, Note_on_c, 11, 40, 105
11, 164244, Note_off_c, 11, 40, 64
11, 164280, Note_on_c, 11, 42, 105
11, 164364, Note_off_c, 11, 42, 64
11, 164400, Note_on_c, 11, 43, 105
11, 164484, Note_off_c, 11, 43, 64
11, 164520, Note_on_c, 11, 40, 105
11, 164604, Note_off_c, 11, 40, 64
11, 164640, Note_on_c, 11, 39, 105
11, 164724, Note_off_c, 11, 39, 64
11, 164760, Note_on_c, 11, 35, 105
11, 164844, Note_off_c, 11, 35, 64
11, 164880, Note_on_c, 11, 37, 105
11, 164964, Note_off_c, 11, 37, 64
11, 165000, Note_on_c, 11, 39, 105
11, 165084, Note_off_c, 11, 39, 64
11, 165120, Note_on_c, 11, 40, 105
11, 165204, Note_off_c, 11, 40, 64
11, 165240, Note_on_c, 11, 42, 105
11, 165324, Note_off_c, 11, 42, 64
11, 165360, Note_on_c, 11, 43, 105
11, 165444, Note_off_c, 11, 43, 64
11, 165480, Note_on_c, 11, 40, 105
11, 165564, Note_off_c, 11, 40, 64
11, 165600, Note_on_c, 11, 39, 105
11, 165684, Note_off_c, 11, 39, 64
11, 165720, Note_on_c, 11, 35, 105
11, 165804, Note_off_c, 11, 35, 64
11, 165840, Note_on_c, 11, 37, 105
11, 165924, Note_off_c, 11, 37, 64
11, 165960, Note_on_c, 11, 39, 105
11, 166044, Note_off_c, 11, 39, 64
11, 166080, Note_on_c, 11, 40, 105
11, 166272, Note_off_c, 11, 40, 64
11, 168480, Note_on_c, 11, 48, 72
11, 168672, Note_off_c, 11, 48, 64
11, 168960, Note_on_c, 11, 50, 72
11, 169152, Note_off_c, 11, 50, 64
11, 169440, Note_on_c, 11, 38, 72
11, 169632, Note_off_c, 11, 38, 64
11, 169920, Note_on_c, 11, 43, 58
11, 170112, Note_off_c, 11, 43, 64
11, 171120, Note_on_c, 11, 40, 58
11, 171360, Note_off_c, 11, 40, 64
11, 171360, Note_on_c, 11, 39, 58
11, 171600, Note_off_c, 11, 39, 64
11, 171600, Note_on_c, 11, 35, 58
11, 171792, Note_off_c, 11, 35, 64
11, 172080, Note_on_c, 11, 40, 58
11, 172320, Note_off_c, 11, 40, 64
11, 172320, Note_on_c, 11, 39, 58
11, 172560, Note_off_c, 11, 39, 64
11, 172560, Note_on_c, 11, 35, 58
11, 172752, Note_off_c, 11, 35, 64
11, 173040, Note_on_c, 11, 40, 58
11, 173280, Note_off_c, 11, 40, 64
11, 173280, Note_on_c, 11, 39, 58
11, 173520, Note_off_c, 11, 39, 64
11, 173520, Note_on_c, 11, 35, 58
11, 173712, Note_off_c, 11, 35, 64
11, 173760, Note_on_c, 11, 40, 58
11, 173952, Note_off_c, 11, 40, 64
11, 174240, Note_on_c, 11, 36, 105
11, 174384, Note_off_c, 11, 36, 64
11, 174480, Note_on_c, 11, 36, 105
11, 174624, Note_off_c, 11, 36, 64
11, 174720, Note_on_c, 11, 36, 105
11, 174804, Note_off_c, 11, 36, 64
11, 174840, Note_on_c, 11, 40, 105
11, 174924, Note_off_c, 11, 40, 64
11, 174960, Note_on_c, 11, 43, 105
11, 175044, Note_off_c, 11, 43, 64
11, 175080, Note_on_c, 11, 48, 105
11, 175164, Note_off_c, 11, 48, 64
11, 175200, Note_on_c, 11, 47, 105
11, 175284, Note_off_c, 11, 47, 64
11, 175320, Note_on_c, 11, 43, 105
11, 175404, Note_off_c, 11, 43, 64
11, 175440, Note_on_c, 11, 45, 105
11, 175524, Note_off_c, 11, 45, 64
11, 175560, Note_on_c, 11, 47, 105
11, 175644, Note_off_c, 11, 47, 64
11, 175680, Note_on_c, 11, 48, 105
11, 175764, Note_off_c, 11, 48, 64
11, 175800, Note_on_c, 11, 48, 105
11, 175884, Note_off_c, 11, 48, 64
11, 175920, Note_on_c, 11, 48, 105
11, 176004, Note_off_c, 11, 48, 64
11, 176040, Note_on_c, 11, 48, 105
11, 176124, Note_off_c, 11, 48, 64
11, 176160, Note_on_c, 11, 48, 105
11, 176244, Note_off_c, 11, 48, 64
11, 176280, Note_on_c, 11, 48, 105
11, 176364, Note_off_c, 11, 48, 64
11, 176400, Note_on_c, 11, 48, 105
11, 176484, Note_off_c, 11, 48, 64
11, 176520, Note_on_c, 11, 48, 105
11, 176604, Note_off_c, 11, 48, 64
11, 176640, Note_on_c, 11, 50, 105
11, 176724, Note_off_c, 11, 50, 64
11, 176760, Note_on_c, 11, 50, 105
11, 176844, Note_off_c, 11, 50, 64
11, 176880, Note_on_c, 11, 50, 105
11, 176964, Note_off_c, 11, 50, 64
11, 177000, Note_on_c, 11, 50, 105
11, 177084, Note_off_c, 11, 50, 64
11, 177120, Note_on_c, 11, 38, 105
11, 177204, Note_off_c, 11, 38, 64
11, 177240, Note_on_c, 11, 38, 105
11, 177324, Note_off_c, 11, 38, 64
11, 177360, Note_on_c, 11, 38, 105
11, 177444, Note_off_c, 11, 38, 64
11, 177480, Note_on_c, 11, 38, 105
11, 177564, Note_off_c, 11, 38, 64
11, 177600, Note_on_c, 11, 43, 105
11, 177684, Note_off_c, 11, 43, 64
11, 177720, Note_on_c, 11, 31, 105
11, 177804, Note_off_c, 11, 31, 64
11, 177840, Note_on_c, 11, 33, 105
11, 177924, Note_off_c, 11, 33, 64
11, 177960, Note_on_c, 11, 35, 105
11, 178044, Note_off_c, 11, 35, 64
11, 178080, Note_on_c, 11, 36, 105
11, 178164, Note_off_c, 11, 36, 64
11, 178200, Note_on_c, 11, 40, 105
11, 178284, Note_off_c, 11, 40, 64
11, 178320, Note_on_c, 11, 38, 105
11, 178404, Note_off_c, 11, 38, 64
11, 178440, Note_on_c, 11, 42, 105
11, 178524, Note_off_c, 11, 42, 64
11, 178560, Note_on_c, 11, 40, 105
11, 178644, Note_off_c, 11, 40, 64
11, 178680, Note_on_c, 11, 43, 105
11, 178764, Note_off_c, 11, 43, 64
11, 178800, Note_on_c, 11, 42, 105
11, 178884, Note_off_c, 11, 42, 64
11, 178920, Note_on_c, 11, 45, 105
11, 179004, Note_off_c, 11, 45, 64
11, 179040, Note_on_c, 11, 43, 105
11, 179124, Note_off_c, 11, 43, 64
11, 179160, Note_on_c, 11, 47, 105
11, 179244, Note_off_c, 11, 47, 64
11, 179280, Note_on_c, 11, 45, 105
11, 179364, Note_off_c, 11, 45, 64
11, 179400, Note_on_c, 11, 48, 105
11, 179484, Note_off_c, 11, 48, 64
11, 179520, Note_on_c, 11, 47, 105
11, 179604, Note_off_c, 11, 47, 64
11, 179640, Note_on_c, 11, 50, 105
11, 179724, Note_off_c, 11, 50, 64
11, 179760, Note_on_c, 11, 47, 105
11, 179844, Note_off_c, 11, 47, 64
11, 179880, Note_on_c, 11, 43, 105
11, 179964, Note_off_c, 11, 43, 64
11, 180000, Note_on_c, 11, 48, 105
11, 180084, Note_off_c, 11, 48, 64
11, 180120, Note_on_c, 11, 45, 105
11, 180204, Note_off_c, 11, 45, 64
11, 180240, Note_on_c, 11, 42, 105
11, 180324, Note_off_c, 11, 42, 64
11, 180360, Note_on_c, 11, 38, 105
11, 180444, Note_off_c, 11, 38, 64
11, 180480, Note_on_c, 11, 43, 105
11, 180564, Note_off_c, 11, 43, 64
11, 180600, Note_on_c, 11, 43, 105
11, 180684, Note_off_c, 11, 43, 64
11, 180720, Note_on_c, 11, 40, 105
11, 180804, Note_off_c, 11, 40, 64
11, 180840, Note_on_c, 11, 40, 105
11, 180924, Note_off_c, 11, 40, 64
11, 180960, Note_on_c, 11, 36, 105
11, 181044, Note_off_c, 11, 36, 64
11, 181080, Note_on_c, 11, 36, 105
11, 181164, Note_off_c, 11, 36, 64
11, 181200, Note_on_c, 11, 38, 105
11, 181284, Note_off_c, 11, 38, 64
11, 181320, Note_on_c, 11, 38, 105
11, 181404, Note_off_c, 11, 38, 64
11, 181440, Note_on_c, 11, 31, 105
11, 181524, Note_off_c, 11, 31, 64
11, 181560, Note_on_c, 11, 43, 105
11, 181644, Note_off_c, 11, 43, 64
11, 181680, Note_on_c, 11, 45, 105
11, 181764, Note_off_c, 11, 45, 64
11, 181800, Note_on_c, 11, 47, 105
11, 181884, Note_off_c, 11, 47, 64
11, 181920, Note_on_c, 11, 48, 105
11, 182004, Note_off_c, 11, 48, 64
11, 182040, Note_on_c, 11, 45, 105
11, 182124, Note_off_c, 11, 45, 64
11, 182160, Note_on_c, 11, 50, 105
11, 182244, Note_off_c, 11, 50, 64
11, 182280, Note_on_c, 11, 48, 105
11, 182364, Note_off_c, 11, 48, 64
11, 182400, Note_on_c, 11, 47, 105
11, 182484, Note_off_c, 11, 47, 64
11, 182520, Note_on_c, 11, 43, 105
11, 182604, Note_off_c, 11, 43, 64
11, 182640, Note_on_c, 11, 42, 105
11, 182724, Note_off_c, 11, 42, 64
11, 182760, Note_on_c, 11, 38, 105
11, 182844, Note_off_c, 11, 38, 64
11, 182880, Note_on_c, 11, 43, 105
11, 182964, Note_off_c, 11, 43, 64
11, 183000, Note_on_c, 11, 38, 105
11, 183084, Note_off_c, 11, 38, 64
11, 183120, Note_on_c, 11, 45, 105
11, 183204, Note_off_c, 11, 45, 64
11, 183240, Note_on_c, 11, 38, 105
11, 183324, Note_off_c, 11, 38, 64
11, 183360, Note_on_c, 11, 47, 105
11, 183444, Note_off_c, 11, 47, 64
11, 183480, Note_on_c, 11, 45, 105
11, 183564, Note_off_c, 11, 45, 64
11, 183600, Note_on_c, 11, 44, 105
11, 183684, Note_off_c, 11, 44, 64
11, 183720, Note_on_c, 11, 40, 105
11, 183804, Note_off_c, 11, 40, 64
11, 183840, Note_on_c, 11, 45, 105
11, 183924, Note_off_c, 11, 45, 64
11, 183960, Note_on_c, 11, 43, 105
11, 184044, Note_off_c, 11, 43, 64
11, 184080, Note_on_c, 11, 42, 105
11, 184164, Note_off_c, 11, 42, 64
11, 184200, Note_on_c, 11, 38, 105
11, 184284, Note_off_c, 11, 38, 64
11, 184320, Note_on_c, 11, 43, 105
11, 184404, Note_off_c, 11, 43, 64
11, 184440, Note_on_c, 11, 43, 105
11, 184524, Note_off_c, 11, 43, 64
11, 184560, Note_on_c, 11, 47, 105
11, 184644, Note_off_c, 11, 47, 64
11, 184680, Note_on_c, 11, 47, 105
11, 184764, Note_off_c, 11, 47, 64
11, 184800, Note_on_c, 11, 48, 105
11, 184884, Note_off_c, 11, 48, 64
11, 184920, Note_on_c, 11, 48, 105
11, 185004, Note_off_c, 11, 48, 64
11, 185040, Note_on_c, 11, 50, 105
11, 185124, Note_off_c, 11, 50, 64
11, 185160, Note_on_c, 11, 50, 105
11, 185244, Note_off_c, 11, 50, 64
11, 185280, Note_on_c, 11, 43, 105
11, 185364, Note_off_c, 11, 43, 64
11, 185400, Note_on_c, 11, 43, 105
11, 185484, Note_off_c, 11, 43, 64
11, 185520, Note_on_c, 11, 43, 105
11, 185604, Note_off_c, 11, 43, 64
11, 185640, Note_on_c, 11, 43, 105
11, 185724, Note_off_c, 11, 43, 64
11, 185760, Note_on_c, 11, 43, 105
11, 185952, Note_off_c, 11, 43, 64
11, 186240, Note_on_c, 11, 40, 105
11, 186324, Note_off_c, 11, 40, 64
11, 186360, Note_on_c, 11, 40, 105
11, 186444, Note_off_c, 11, 40, 64
11, 186480, Note_on_c, 11, 40, 105
11, 186564, Note_off_c, 11, 40, 64
11, 186600, Note_on_c, 11, 40, 105
11, 186684, Note_off_c, 11, 40, 64
11, 186720, Note_on_c, 11, 40, 105
11, 186912, Note_off_c, 11, 40, 64
11, 187200, Note_on_c, 11, 35, 105
11, 187284, Note_off_c, 11, 35, 64
11, 187320, Note_on_c, 11, 35, 105
11, 187404, Note_off_c, 11, 35, 64
11, 187440, Note_on_c, 11, 35, 105
11, 187524, Note_off_c, 11, 35, 64
11, 187560, Note_on_c, 11, 35, 105
11, 187644, Note_off_c, 11, 35, 64
11, 187680, Note_on_c, 11, 35, 105
11, 187872, Note_off_c, 11, 35, 64
11, 188160, Note_on_c, 11, 36, 105
11, 188244, Note_off_c, 11, 36, 64
11, 188280, Note_on_c, 11, 36, 105
11, 188364, Note_off_c, 11, 36, 64
11, 188400, Note_on_c, 11, 36, 105
11, 188484, Note_off_c, 11, 36, 64
11, 188520, Note_on_c, 11, 36, 105
11, 188604, Note_off_c, 11, 36, 64
11, 188640, Note_on_c, 11, 33, 105
11, 188724, Note_off_c, 11, 33, 64
11, 188760, Note_on_c, 11, 33, 105
11, 188844, Note_off_c, 11, 33, 64
11, 188880, Note_on_c, 11, 33, 105
11, 188964, Note_off_c, 11, 33, 64
11, 189000, Note_on_c, 11, 33, 105
11, 189084, Note_off_c, 11, 33, 64
11, 189120, Note_on_c, 11, 30, 105
11, 189264, Note_off_c, 11, 30, 64
11, 189360, Note_on_c, 11, 42, 105
11, 189504, Note_off_c, 11, 42, 64
11, 189840, Note_on_c, 11, 43, 105
11, 190008, Note_off_c, 11, 43, 64
11, 190080, Note_on_c, 11, 45, 105
11, 190248, Note_off_c, 11, 45, 64
11, 190320, Note_on_c, 11, 47, 105
11, 190446, Note_off_c, 11, 47, 64
11, 190500, Note_on_c, 11, 48, 105
11, 190542, Note_off_c, 11, 48, 64
11, 190560, Note_on_c, 11, 50, 105
11, 190728, Note_off_c, 11, 50, 64
11, 190800, Note_on_c, 11, 38, 105
11, 190968, Note_off_c, 11, 38, 64
11, 191040, Note_on_c, 11, 43, 105
11, 191124, Note_off_c, 11, 43, 64
11, 191160, Note_on_c, 11, 43, 105
11, 191244, Note_off_c, 11, 43, 64
11, 191280, Note_on_c, 11, 43, 105
11, 191364, Note_off_c, 11, 43, 64
11, 191400, Note_on_c, 11, 43, 105
11, 191484, Note_off_c, 11, 43, 64
11, 191520, Note_on_c, 11, 43, 105
11, 191712, Note_off_c, 11, 43, 64
11, 192000, Note_on_c, 11, 40, 105
11, 192084, Note_off_c, 11, 40, 64
11, 192120, Note_on_c, 11, 40, 105
11, 192204, Note_off_c, 11, 40, 64
11, 192240, Note_on_c, 11, 40, 105
11, 192324, Note_off_c, 11, 40, 64
11, 192360, Note_on_c, 11, 40, 105
11, 192444, Note_off_c, 11, 40, 64
11, 192480, Note_on_c, 11, 40, 105
11, 192672, Note_off_c, 11, 40, 64
11, 192960, Note_on_c, 11, 35, 105
11, 193044, Note_off_c, 11, 35, 64
11, 193080, Note_on_c, 11, 35, 105
11, 193164, Note_off_c, 11, 35, 64
11, 193200, Note_on_c, 11, 35, 105
11, 193284, Note_off_c, 11, 35, 64
11, 193320, Note_on_c, 11, 35, 105
11, 193404, Note_off_c, 11, 35, 64
11, 193440, Note_on_c, 11, 35, 105
11, 193632, Note_off_c, 11, 35, 64
11, 193920, Note_on_c, 11, 36, 105
11, 194004, Note_off_c, 11, 36, 64
11, 194040, Note_on_c, 11, 36, 105
11, 194124, Note_off_c, 11, 36, 64
11, 194160, Note_on_c, 11, 36, 105
11, 194244, Note_off_c, 11, 36, 64
11, 194280, Note_on_c, 11, 36, 105
11, 194364, Note_off_c, 11, 36, 64
11, 194400, Note_on_c, 11, 33, 105
11, 194484, Note_off_c, 11, 33, 64
11, 194520, Note_on_c, 11, 33, 105
11, 194604, Note_off_c, 11, 33, 64
11, 194640, Note_on_c, 11, 33, 105
11, 194724, Note_off_c, 11, 33, 64
11, 194760, Note_on_c, 11, 33, 105
11, 194844, Note_off_c, 11, 33, 64
11, 194880, Note_on_c, 11, 30, 105
11, 195024, Note_off_c, 11, 30, 64
11, 195120, Note_on_c, 11, 42, 105
11, 195264, Note_off_c, 11, 42, 64
11, 197520, Note_on_c, 11, 39, 58
11, 197760, Note_off_c, 11, 39, 64
11, 197760, Note_on_c, 11, 38, 58
11, 197904, Note_off_c, 11, 38, 64
11, 198000, Note_on_c, 11, 48, 58
11, 198144, Note_off_c, 11, 48, 64
11, 198720, Note_on_c, 11, 42, 58
11, 199200, Note_off_c, 11, 42, 64
11, 199200, Note_on_c, 11, 43, 58
11, 199584, Note_off_c, 11, 43, 64
11, 199680, Note_on_c, 11, 36, 58
11, 200160, Note_off_c, 11, 36, 64
11, 200160, Note_on_c, 11, 38, 58
11, 200544, Note_off_c, 11, 38, 64
11, 200640, Note_on_c, 11, 31, 105
11, 200724, Note_off_c, 11, 31, 64
11, 200760, Note_on_c, 11, 35, 105
11, 200820, Note_off_c, 11, 35, 64
11, 200820, Note_on_c, 11, 38, 105
11, 200862, Note_off_c, 11, 38, 64
11, 200880, Note_on_c, 11, 43, 105
11, 200964, Note_off_c, 11, 43, 64
11, 201000, Note_on_c, 11, 43, 105
11, 201084, Note_off_c, 11, 43, 64
11, 201120, Note_on_c, 11, 43, 105
11, 201204, Note_off_c, 11, 43, 64
11, 201240, Note_on_c, 11, 43, 105
11, 201324, Note_off_c, 11, 43, 64
11, 201360, Note_on_c, 11, 43, 105
11, 201444, Note_off_c, 11, 43, 64
11, 201480, Note_on_c, 11, 43, 105
11, 201564, Note_off_c, 11, 43, 64
11, 201600, Note_on_c, 11, 43, 105
11, 201684, Note_off_c, 11, 43, 64
11, 201720, Note_on_c, 11, 43, 105
11, 201804, Note_off_c, 11, 43, 64
11, 201840, Note_on_c, 11, 43, 105
11, 201924, Note_off_c, 11, 43, 64
11, 201960, Note_on_c, 11, 43, 105
11, 202044, Note_off_c, 11, 43, 64
11, 202080, Note_on_c, 11, 43, 105
11, 202164, Note_off_c, 11, 43, 64
11, 202200, Note_on_c, 11, 43, 105
11, 202284, Note_off_c, 11, 43, 64
11, 202320, Note_on_c, 11, 43, 105
11, 202404, Note_off_c, 11, 43, 64
11, 202440, Note_on_c, 11, 43, 105
11, 202524, Note_off_c, 11, 43, 64
11, 202560, Note_on_c, 11, 43, 105
11, 202644, Note_off_c, 11, 43, 64
11, 202680, Note_on_c, 11, 43, 105
11, 202764, Note_off_c, 11, 43, 64
11, 202800, Note_on_c, 11, 52, 105
11, 202884, Note_off_c, 11, 52, 64
11, 202920, Note_on_c, 11, 52, 105
11, 203004, Note_off_c, 11, 52, 64
11, 203040, Note_on_c, 11, 48, 105
11, 203124, Note_off_c, 11, 48, 64
11, 203160, Note_on_c, 11, 48, 105
11, 203244, Note_off_c, 11, 48, 64
11, 203280, Note_on_c, 11, 50, 105
11, 203364, Note_off_c, 11, 50, 64
11, 203400, Note_on_c, 11, 50, 105
11, 203484, Note_off_c, 11, 50, 64
11, 203520, Note_on_c, 11, 43, 105
11, 203604, Note_off_c, 11, 43, 64
11, 203640, Note_on_c, 11, 38, 105
11, 203680, Note_off_c, 11, 38, 64
11, 203680, Note_on_c, 11, 40, 105
11, 203720, Note_off_c, 11, 40, 64
11, 203720, Note_on_c, 11, 42, 105
11, 203760, Note_off_c, 11, 42, 64
11, 203760, Note_on_c, 11, 43, 105
11, 203844, Note_off_c, 11, 43, 64
11, 203880, Note_on_c, 11, 43, 105
11, 203964, Note_off_c, 11, 43, 64
11, 204000, Note_on_c, 11, 43, 105
11, 204084, Note_off_c, 11, 43, 64
11, 204120, Note_on_c, 11, 43, 105
11, 204204, Note_off_c, 11, 43, 64
11, 204240, Note_on_c, 11, 43, 105
11, 204324, Note_off_c, 11, 43, 64
11, 204360, Note_on_c, 11, 43, 105
11, 204444, Note_off_c, 11, 43, 64
11, 204480, Note_on_c, 11, 43, 105
11, 204564, Note_off_c, 11, 43, 64
11, 204600, Note_on_c, 11, 43, 105
11, 204684, Note_off_c, 11, 43, 64
11, 204720, Note_on_c, 11, 43, 105
11, 204804, Note_off_c, 11, 43, 64
11, 204840, Note_on_c, 11, 43, 105
11, 204924, Note_off_c, 11, 43, 64
11, 204960, Note_on_c, 11, 43, 105
11, 205044, Note_off_c, 11, 43, 64
11, 205080, Note_on_c, 11, 43, 105
11, 205164, Note_off_c, 11, 43, 64
11, 205200, Note_on_c, 11, 43, 105
11, 205284, Note_off_c, 11, 43, 64
11, 205320, Note_on_c, 11, 43, 105
11, 205404, Note_off_c, 11, 43, 64
11, 205440, Note_on_c, 11, 43, 105
11, 205524, Note_off_c, 11, 43, 64
11, 205560, Note_on_c, 11, 43, 105
11, 205644, Note_off_c, 11, 43, 64
11, 205680, Note_on_c, 11, 52, 105
11, 205764, Note_off_c, 11, 52, 64
11, 205800, Note_on_c, 11, 52, 105
11, 205884, Note_off_c, 11, 52, 64
11, 205920, Note_on_c, 11, 48, 105
11, 206004, Note_off_c, 11, 48, 64
11, 206040, Note_on_c, 11, 48, 105
11, 206124, Note_off_c, 11, 48, 64
11, 206160, Note_on_c, 11, 50, 105
11, 206244, Note_off_c, 11, 50, 64
11, 206280, Note_on_c, 11, 50, 105
11, 206364, Note_off_c, 11, 50, 64
11, 206400, Note_on_c, 11, 47, 58
11, 206496, Note_off_c, 11, 47, 64
11, 206640, Note_on_c, 11, 52, 58
11, 206736, Note_off_c, 11, 52, 64
11, 206880, Note_on_c, 11, 48, 58
11, 206976, Note_off_c, 11, 48, 64
11, 207120, Note_on_c, 11, 50, 58
11, 207216, Note_off_c, 11, 50, 64
11, 207360, Note_on_c, 11, 47, 105
11, 207456, Note_off_c, 11, 47, 64
11, 207480, Note_on_c, 11, 47, 105
11, 207576, Note_off_c, 11, 47, 64
11, 207600, Note_on_c, 11, 52, 105
11, 207696, Note_off_c, 11, 52, 64
11, 207720, Note_on_c, 11, 52, 105
11, 207816, Note_off_c, 11, 52, 64
11, 207840, Note_on_c, 11, 48, 105
11, 207936, Note_off_c, 11, 48, 64
11, 207960, Note_on_c, 11, 48, 105
11, 208056, Note_off_c, 11, 48, 64
11, 208080, Note_on_c, 11, 50, 105
11, 208176, Note_off_c, 11, 50, 64
11, 208200, Note_on_c, 11, 50, 105
11, 208296, Note_off_c, 11, 50, 64
11, 208320, Note_on_c, 11, 43, 105
11, 208512, Note_off_c, 11, 43, 64
11, 212160, Note_on_c, 11, 40, 58
11, 212352, Note_off_c, 11, 40, 64
11, 212640, Note_on_c, 11, 45, 58
11, 212832, Note_off_c, 11, 45, 64
11, 213120, Note_on_c, 11, 40, 58
11, 213312, Note_off_c, 11, 40, 64
11, 213600, Note_on_c, 11, 33, 58
11, 213792, Note_off_c, 11, 33, 64
11, 214080, Note_on_c, 11, 38, 58
11, 214560, Note_off_c, 11, 38, 64
11, 214560, Note_on_c, 11, 36, 58
11, 214944, Note_off_c, 11, 36, 64
11, 215040, Note_on_c, 11, 38, 58
11, 215520, Note_off_c, 11, 38, 64
11, 215520, Note_on_c, 11, 36, 58
11, 215712, Note_off_c, 11, 36, 64
11, 216000, Note_on_c, 11, 38, 58
11, 216192, Note_off_c, 11, 38, 64
11, 216480, Note_on_c, 11, 40, 58
11, 216672, Note_off_c, 11, 40, 64
11, 216960, Note_on_c, 11, 33, 58
11, 217152, Note_off_c, 11, 33, 64
11, 218880, Note_on_c, 11, 43, 58
11, 220800, Note_off_c, 11, 43, 64
11, 220800, Note_on_c, 11, 41, 58
11, 220992, Note_off_c, 11, 41, 64
11, 223680, Note_on_c, 11, 41, 58
11, 225600, Note_off_c, 11, 41, 64
11, 225600, Note_on_c, 11, 40, 58
11, 225792, Note_off_c, 11, 40, 64
11, 228840, Note_on_c, 11, 31, 105
11, 228936, Note_off_c, 11, 31, 64
11, 228960, Note_on_c, 11, 36, 105
11, 229080, Note_off_c, 11, 36, 64
11, 229080, Note_on_c, 11, 35, 105
11, 229200, Note_off_c, 11, 35, 64
11, 229200, Note_on_c, 11, 38, 105
11, 229320, Note_off_c, 11, 38, 64
11, 229320, Note_on_c, 11, 36, 105
11, 229416, Note_off_c, 11, 36, 64
11, 229440, Note_on_c, 11, 40, 105
11, 229560, Note_off_c, 11, 40, 64
11, 229560, Note_on_c, 11, 38, 105
11, 229680, Note_off_c, 11, 38, 64
11, 229680, Note_on_c, 11, 41, 105
11, 229800, Note_off_c, 11, 41, 64
11, 229800, Note_on_c, 11, 40, 105
11, 229920, Note_off_c, 11, 40, 64
11, 229920, Note_on_c, 11, 45, 105
11, 230040, Note_off_c, 11, 45, 64
11, 230040, Note_on_c, 11, 43, 105
11, 230160, Note_off_c, 11, 43, 64
11, 230160, Note_on_c, 11, 48, 105
11, 230280, Note_off_c, 11, 48, 64
11, 230280, Note_on_c, 11, 46, 105
11, 230376, Note_off_c, 11, 46, 64
11, 230400, Note_on_c, 11, 46, 105
11, 230592, Note_off_c, 11, 46, 64
11, 230880, Note_on_c, 11, 46, 116
11, 231048, Note_off_c, 11, 46, 64
11, 231120, Note_on_c, 11, 46, 116
11, 231204, Note_off_c, 11, 46, 64
11, 231240, Note_on_c, 11, 46, 116
11, 231324, Note_off_c, 11, 46, 64
11, 231360, Note_on_c, 11, 45, 116
11, 231528, Note_off_c, 11, 45, 64
11, 231600, Note_on_c, 11, 45, 116
11, 231684, Note_off_c, 11, 45, 64
11, 231720, Note_on_c, 11, 45, 116
11, 231804, Note_off_c, 11, 45, 64
11, 231840, Note_on_c, 11, 43, 116
11, 232008, Note_off_c, 11, 43, 64
11, 232080, Note_on_c, 11, 43, 116
11, 232164, Note_off_c, 11, 43, 64
11, 232200, Note_on_c, 11, 43, 116
11, 232284, Note_off_c, 11, 43, 64
11, 232320, Note_on_c, 11, 41, 105
11, 232512, Note_off_c, 11, 41, 64
11, 232800, Note_on_c, 11, 41, 105
11, 232992, Note_off_c, 11, 41, 64
11, 233280, Note_on_c, 11, 40, 58
11, 233472, Note_off_c, 11, 40, 64
11, 233760, Note_on_c, 11, 45, 58
11, 233952, Note_off_c, 11, 45, 64
11, 234240, Note_on_c, 11, 38, 58
11, 234432, Note_off_c, 11, 38, 64
11, 234720, Note_on_c, 11, 40, 58
11, 234912, Note_off_c, 11, 40, 64
11, 235200, Note_on_c, 11, 38, 58
11, 235392, Note_off_c, 11, 38, 64
11, 235680, Note_on_c, 11, 43, 58
11, 235872, Note_off_c, 11, 43, 64
11, 236160, Note_on_c, 11, 36, 58
11, 236352, Note_off_c, 11, 36, 64
11, 236640, Note_on_c, 11, 45, 58
11, 236832, Note_off_c, 11, 45, 64
11, 237120, Note_on_c, 11, 43, 58
11, 237312, Note_off_c, 11, 43, 64
11, 237600, Note_on_c, 11, 48, 58
11, 237792, Note_off_c, 11, 48, 64
11, 238080, Note_on_c, 11, 41, 58
11, 238272, Note_off_c, 11, 41, 64
11, 238560, Note_on_c, 11, 43, 58
11, 238752, Note_off_c, 11, 43, 64
11, 239040, Note_on_c, 11, 44, 72
11, 239952, Note_off_c, 11, 44, 64
11, 240000, Note_on_c, 11, 43, 105
11, 240168, Note_off_c, 11, 43, 64
11, 240720, Note_on_c, 11, 43, 105
11, 240888, Note_off_c, 11, 43, 64
11, 240960, Note_on_c, 11, 40, 105
11, 241128, Note_off_c, 11, 40, 64
11, 241680, Note_on_c, 11, 40, 105
11, 241848, Note_off_c, 11, 40, 64
11, 241920, Note_on_c, 11, 35, 105
11, 242088, Note_off_c, 11, 35, 64
11, 242640, Note_on_c, 11, 35, 105
11, 242808, Note_off_c, 11, 35, 64
11, 242880, Note_on_c, 11, 36, 105
11, 243048, Note_off_c, 11, 36, 64
11, 243600, Note_on_c, 11, 36, 105
11, 243768, Note_off_c, 11, 36, 64
11, 243840, Note_on_c, 11, 43, 105
11, 244008, Note_off_c, 11, 43, 64
11, 244080, Note_on_c, 11, 40, 105
11, 244248, Note_off_c, 11, 40, 64
11, 244320, Note_on_c, 11, 35, 105
11, 244488, Note_off_c, 11, 35, 64
11, 244560, Note_on_c, 11, 36, 105
11, 244728, Note_off_c, 11, 36, 64
11, 244800, Note_on_c, 11, 43, 105
11, 244968, Note_off_c, 11, 43, 64
11, 245040, Note_on_c, 11, 40, 105
11, 245208, Note_off_c, 11, 40, 64
11, 245280, Note_on_c, 11, 35, 105
11, 245448, Note_off_c, 11, 35, 64
11, 245520, Note_on_c, 11, 36, 105
11, 245688, Note_off_c, 11, 36, 64
11, 245760, Note_on_c, 11, 31, 105
11, 245952, Note_off_c, 11, 31, 64
11, 250560, Note_on_c, 11, 36, 58
11, 250752, Note_off_c, 11, 36, 64
11, 250800, Note_on_c, 11, 36, 72
11, 250992, Note_off_c, 11, 36, 64
11, 251040, Note_on_c, 11, 36, 72
11, 251232, Note_off_c, 11, 36, 64
11, 251280, Note_on_c, 11, 36, 72
11, 251472, Note_off_c, 11, 36, 64
11, 251520, Note_on_c, 11, 36, 72
11, 251712, Note_off_c, 11, 36, 64
11, 251760, Note_on_c, 11, 36, 72
11, 251952, Note_off_c, 11, 36, 64
11, 252000, Note_on_c, 11, 36, 72
11, 252192, Note_off_c, 11, 36, 64
11, 252240, Note_on_c, 11, 36, 72
11, 252432, Note_off_c, 11, 36, 64
11, 252480, Note_on_c, 11, 36, 72
11, 252864, Note_off_c, 11, 36, 64
11, 253200, Note_on_c, 11, 36, 72
11, 253344, Note_off_c, 11, 36, 64
11, 253440, Note_on_c, 11, 41, 72
11, 253584, Note_off_c, 11, 41, 64
11, 253680, Note_on_c, 11, 36, 72
11, 253824, Note_off_c, 11, 36, 64
11, 254400, Note_on_c, 11, 45, 72
11, 255360, Note_off_c, 11, 45, 64
11, 256320, Note_off_c, 11, 43, 64
11, 256320, Note_on_c, 11, 41, 72
11, 256512, Note_off_c, 11, 41, 64
11, 256560, Note_on_c, 11, 38, 72
11, 256800, Note_off_c, 11, 38, 64
11, 256800, Note_on_c, 11, 40, 72
11, 256944, Note_off_c, 11, 40, 64
11, 257040, Note_on_c, 11, 35, 72
11, 257184, Note_off_c, 11, 35, 64
11, 257280, Note_on_c, 11, 36, 72
11, 257760, Note_off_c, 11, 36, 64
11, 257760, Note_on_c, 11, 40, 72
11, 258144, Note_off_c, 11, 40, 64
11, 258240, Note_on_c, 11, 41, 72
11, 259008, Note_off_c, 11, 41, 64
11, 259200, Note_on_c, 11, 43, 58
11, 259776, Note_off_c, 11, 43, 64
11, 260160, Note_on_c, 11, 36, 105
11, 260256, Note_off_c, 11, 36, 64
11, 260280, Note_on_c, 11, 36, 105
11, 260376, Note_off_c, 11, 36, 64
11, 260400, Note_on_c, 11, 36, 105
11, 260496, Note_off_c, 11, 36, 64
11, 260520, Note_on_c, 11, 36, 105
11, 260616, Note_off_c, 11, 36, 64
11, 260640, Note_on_c, 11, 36, 105
11, 260736, Note_off_c, 11, 36, 64
11, 260760, Note_on_c, 11, 36, 105
11, 260856, Note_off_c, 11, 36, 64
11, 260880, Note_on_c, 11, 36, 105
11, 260976, Note_off_c, 11, 36, 64
11, 261000, Note_on_c, 11, 36, 105
11, 261096, Note_off_c, 11, 36, 64
11, 261120, Note_on_c, 11, 36, 105
11, 261216, Note_off_c, 11, 36, 64
11, 261240, Note_on_c, 11, 36, 105
11, 261336, Note_off_c, 11, 36, 64
11, 261360, Note_on_c, 11, 36, 105
11, 261456, Note_off_c, 11, 36, 64
11, 261480, Note_on_c, 11, 36, 105
11, 261576, Note_off_c, 11, 36, 64
11, 261600, Note_on_c, 11, 36, 105
11, 261696, Note_off_c, 11, 36, 64
11, 261720, Note_on_c, 11, 36, 105
11, 261816, Note_off_c, 11, 36, 64
11, 261840, Note_on_c, 11, 36, 105
11, 261936, Note_off_c, 11, 36, 64
11, 261960, Note_on_c, 11, 36, 105
11, 262056, Note_off_c, 11, 36, 64
11, 262080, Note_on_c, 11, 36, 105
11, 262464, Note_off_c, 11, 36, 64
11, 262800, Note_on_c, 11, 36, 105
11, 262968, Note_off_c, 11, 36, 64
11, 263040, Note_on_c, 11, 41, 105
11, 263208, Note_off_c, 11, 41, 64
11, 263280, Note_on_c, 11, 36, 105
11, 263448, Note_off_c, 11, 36, 64
11, 263760, Note_on_c, 11, 36, 105
11, 263928, Note_off_c, 11, 36, 64
11, 264000, Note_on_c, 11, 41, 105
11, 264168, Note_off_c, 11, 41, 64
11, 264240, Note_on_c, 11, 36, 105
11, 264408, Note_off_c, 11, 36, 64
11, 264720, Note_on_c, 11, 36, 105
11, 264888, Note_off_c, 11, 36, 64
11, 264960, Note_on_c, 11, 41, 105
11, 265128, Note_off_c, 11, 41, 64
11, 265200, Note_on_c, 11, 36, 105
11, 265368, Note_off_c, 11, 36, 64
11, 265440, Note_on_c, 11, 41, 105
11, 265608, Note_off_c, 11, 41, 64
11, 265680, Note_on_c, 11, 36, 105
11, 265848, Note_off_c, 11, 36, 64
11, 265920, Note_on_c, 11, 41, 105
11, 266088, Note_off_c, 11, 41, 64
11, 266160, Note_on_c, 11, 36, 105
11, 266328, Note_off_c, 11, 36, 64
11, 266880, Note_on_c, 11, 45, 58
11, 267840, Note_off_c, 11, 45, 64
11, 267840, Note_on_c, 11, 43, 58
11, 268320, Note_off_c, 11, 43, 64
11, 268320, Note_on_c, 11, 36, 58
11, 268800, Note_off_c, 11, 36, 64
11, 268800, Note_on_c, 11, 41, 58
11, 268992, Note_off_c, 11, 41, 64
11, 270720, Note_on_c, 11, 43, 72
11, 270912, Note_off_c, 11, 43, 64
11, 270960, Note_on_c, 11, 43, 72
11, 271152, Note_off_c, 11, 43, 64
11, 271200, Note_on_c, 11, 43, 72
11, 271392, Note_off_c, 11, 43, 64
11, 271440, Note_on_c, 11, 43, 72
11, 271632, Note_off_c, 11, 43, 64
11, 271680, Note_on_c, 11, 36, 105
11, 271764, Note_off_c, 11, 36, 64
11, 271800, Note_on_c, 11, 40, 105
11, 271884, Note_off_c, 11, 40, 64
11, 271920, Note_on_c, 11, 43, 105
11, 272004, Note_off_c, 11, 43, 64
11, 272040, Note_on_c, 11, 48, 105
11, 272124, Note_off_c, 11, 48, 64
11, 272160, Note_on_c, 11, 52, 105
11, 272244, Note_off_c, 11, 52, 64
11, 272280, Note_on_c, 11, 50, 105
11, 272364, Note_off_c, 11, 50, 64
11, 272400, Note_on_c, 11, 52, 105
11, 272484, Note_off_c, 11, 52, 64
11, 272520, Note_on_c, 11, 48, 105
11, 272604, Note_off_c, 11, 48, 64
11, 272640, Note_on_c, 11, 47, 105
11, 272724, Note_off_c, 11, 47, 64
11, 272760, Note_on_c, 11, 48, 105
11, 272844, Note_off_c, 11, 48, 64
11, 272880, Note_on_c, 11, 50, 105
11, 272964, Note_off_c, 11, 50, 64
11, 273000, Note_on_c, 11, 48, 105
11, 273084, Note_off_c, 11, 48, 64
11, 273120, Note_on_c, 11, 47, 105
11, 273204, Note_off_c, 11, 47, 64
11, 273240, Note_on_c, 11, 45, 105
11, 273324, Note_off_c, 11, 45, 64
11, 273360, Note_on_c, 11, 43, 105
11, 273444, Note_off_c, 11, 43, 64
11, 273480, Note_on_c, 11, 41, 105
11, 273564, Note_off_c, 11, 41, 64
11, 273600, Note_on_c, 11, 40, 105
11, 273684, Note_off_c, 11, 40, 64
11, 273720, Note_on_c, 11, 41, 105
11, 273804, Note_off_c, 11, 41, 64
11, 273840, Note_on_c, 11, 43, 105
11, 273924, Note_off_c, 11, 43, 64
11, 273960, Note_on_c, 11, 40, 105
11, 274044, Note_off_c, 11, 40, 64
11, 274080, Note_on_c, 11, 45, 105
11, 274164, Note_off_c, 11, 45, 64
11, 274200, Note_on_c, 11, 47, 105
11, 274284, Note_off_c, 11, 47, 64
11, 274320, Note_on_c, 11, 48, 105
11, 274404, Note_off_c, 11, 48, 64
11, 274440, Note_on_c, 11, 45, 105
11, 274524, Note_off_c, 11, 45, 64
11, 274560, Note_on_c, 11, 41, 105
11, 274644, Note_off_c, 11, 41, 64
11, 274680, Note_on_c, 11, 38, 105
11, 274764, Note_off_c, 11, 38, 64
11, 274800, Note_on_c, 11, 40, 105
11, 274884, Note_off_c, 11, 40, 64
11, 274920, Note_on_c, 11, 41, 105
11, 275004, Note_off_c, 11, 41, 64
11, 275040, Note_on_c, 11, 43, 105
11, 275124, Note_off_c, 11, 43, 64
11, 275160, Note_on_c, 11, 41, 105
11, 275244, Note_off_c, 11, 41, 64
11, 275280, Note_on_c, 11, 43, 105
11, 275364, Note_off_c, 11, 43, 64
11, 275400, Note_on_c, 11, 31, 105
11, 275484, Note_off_c, 11, 31, 64
11, 275520, Note_on_c, 11, 36, 105
11, 275604, Note_off_c, 11, 36, 64
11, 275640, Note_on_c, 11, 40, 105
11, 275724, Note_off_c, 11, 40, 64
11, 275760, Note_on_c, 11, 43, 105
11, 275844, Note_off_c, 11, 43, 64
11, 275880, Note_on_c, 11, 48, 105
11, 275964, Note_off_c, 11, 48, 64
11, 276000, Note_on_c, 11, 52, 105
11, 276084, Note_off_c, 11, 52, 64
11, 276120, Note_on_c, 11, 50, 105
11, 276204, Note_off_c, 11, 50, 64
11, 276240, Note_on_c, 11, 52, 105
11, 276324, Note_off_c, 11, 52, 64
11, 276360, Note_on_c, 11, 48, 105
11, 276444, Note_off_c, 11, 48, 64
11, 276480, Note_on_c, 11, 47, 105
11, 276564, Note_off_c, 11, 47, 64
11, 276600, Note_on_c, 11, 48, 105
11, 276684, Note_off_c, 11, 48, 64
11, 276720, Note_on_c, 11, 50, 105
11, 276804, Note_off_c, 11, 50, 64
11, 276840, Note_on_c, 11, 48, 105
11, 276924, Note_off_c, 11, 48, 64
11, 276960, Note_on_c, 11, 47, 105
11, 277044, Note_off_c, 11, 47, 64
11, 277080, Note_on_c, 11, 45, 105
11, 277164, Note_off_c, 11, 45, 64
11, 277200, Note_on_c, 11, 43, 105
11, 277284, Note_off_c, 11, 43, 64
11, 277320, Note_on_c, 11, 41, 105
11, 277404, Note_off_c, 11, 41, 64
11, 277440, Note_on_c, 11, 40, 105
11, 277524, Note_off_c, 11, 40, 64
11, 277560, Note_on_c, 11, 41, 105
11, 277644, Note_off_c, 11, 41, 64
11, 277680, Note_on_c, 11, 43, 105
11, 277764, Note_off_c, 11, 43, 64
11, 277800, Note_on_c, 11, 40, 105
11, 277884, Note_off_c, 11, 40, 64
11, 277920, Note_on_c, 11, 45, 105
11, 278004, Note_off_c, 11, 45, 64
11, 278040, Note_on_c, 11, 47, 105
11, 278124, Note_off_c, 11, 47, 64
11, 278160, Note_on_c, 11, 48, 105
11, 278244, Note_off_c, 11, 48, 64
11, 278280, Note_on_c, 11, 45, 105
11, 278364, Note_off_c, 11, 45, 64
11, 278400, Note_on_c, 11, 42, 105
11, 278484, Note_off_c, 11, 42, 64
11, 278520, Note_on_c, 11, 43, 105
11, 278604, Note_off_c, 11, 43, 64
11, 278640, Note_on_c, 11, 45, 105
11, 278724, Note_off_c, 11, 45, 64
11, 278760, Note_on_c, 11, 43, 105
11, 278844, Note_off_c, 11, 43, 64
11, 278880, Note_on_c, 11, 42, 105
11, 278964, Note_off_c, 11, 42, 64
11, 279000, Note_on_c, 11, 38, 105
11, 279084, Note_off_c, 11, 38, 64
11, 279120, Note_on_c, 11, 40, 105
11, 279204, Note_off_c, 11, 40, 64
11, 279240, Note_on_c, 11, 42, 105
11, 279324, Note_off_c, 11, 42, 64
11, 279360, Note_on_c, 11, 43, 105
11, 279444, Note_off_c, 11, 43, 64
11, 279480, Note_on_c, 11, 46, 105
11, 279564, Note_off_c, 11, 46, 64
11, 279600, Note_on_c, 11, 50, 105
11, 279684, Note_off_c, 11, 50, 64
11, 279720, Note_on_c, 11, 48, 105
11, 279804, Note_off_c, 11, 48, 64
11, 279840, Note_on_c, 11, 46, 105
11, 279924, Note_off_c, 11, 46, 64
11, 279960, Note_on_c, 11, 45, 105
11, 280044, Note_off_c, 11, 45, 64
11, 280080, Note_on_c, 11, 43, 105
11, 280164, Note_off_c, 11, 43, 64
11, 280200, Note_on_c, 11, 41, 105
11, 280284, Note_off_c, 11, 41, 64
11, 280320, Note_on_c, 11, 40, 105
11, 280404, Note_off_c, 11, 40, 64
11, 280440, Note_on_c, 11, 41, 105
11, 280524, Note_off_c, 11, 41, 64
11, 280560, Note_on_c, 11, 43, 105
11, 280644, Note_off_c, 11, 43, 64
11, 280680, Note_on_c, 11, 41, 105
11, 280764, Note_off_c, 11, 41, 64
11, 280800, Note_on_c, 11, 40, 105
11, 280884, Note_off_c, 11, 40, 64
11, 280920, Note_on_c, 11, 41, 105
11, 281004, Note_off_c, 11, 41, 64
11, 281040, Note_on_c, 11, 38, 105
11, 281124, Note_off_c, 11, 38, 64
11, 281160, Note_on_c, 11, 40, 105
11, 281244, Note_off_c, 11, 40, 64
11, 281280, Note_on_c, 11, 41, 105
11, 281364, Note_off_c, 11, 41, 64
11, 281400, Note_on_c, 11, 43, 105
11, 281484, Note_off_c, 11, 43, 64
11, 281520, Note_on_c, 11, 45, 105
11, 281604, Note_off_c, 11, 45, 64
11, 281640, Note_on_c, 11, 43, 105
11, 281724, Note_off_c, 11, 43, 64
11, 281760, Note_on_c, 11, 41, 105
11, 281844, Note_off_c, 11, 41, 64
11, 281880, Note_on_c, 11, 43, 105
11, 281964, Note_off_c, 11, 43, 64
11, 282000, Note_on_c, 11, 40, 105
11, 282084, Note_off_c, 11, 40, 64
11, 282120, Note_on_c, 11, 41, 105
11, 282204, Note_off_c, 11, 41, 64
11, 282240, Note_on_c, 11, 38, 105
11, 282324, Note_off_c, 11, 38, 64
11, 282360, Note_on_c, 11, 50, 105
11, 282444, Note_off_c, 11, 50, 64
11, 282480, Note_on_c, 11, 46, 105
11, 282564, Note_off_c, 11, 46, 64
11, 282600, Note_on_c, 11, 45, 105
11, 282684, Note_off_c, 11, 45, 64
11, 282720, Note_on_c, 11, 43, 105
11, 282804, Note_off_c, 11, 43, 64
11, 282840, Note_on_c, 11, 46, 105
11, 282924, Note_off_c, 11, 46, 64
11, 282960, Note_on_c, 11, 43, 105
11, 283044, Note_off_c, 11, 43, 64
11, 283080, Note_on_c, 11, 41, 105
11, 283164, Note_off_c, 11, 41, 64
11, 283200, Note_on_c, 11, 40, 105
11, 283284, Note_off_c, 11, 40, 64
11, 283320, Note_on_c, 11, 41, 105
11, 283404, Note_off_c, 11, 41, 64
11, 283440, Note_on_c, 11, 43, 105
11, 283524, Note_off_c, 11, 43, 64
11, 283560, Note_on_c, 11, 41, 105
11, 283644, Note_off_c, 11, 41, 64
11, 283680, Note_on_c, 11, 40, 105
11, 283764, Note_off_c, 11, 40, 64
11, 283800, Note_on_c, 11, 36, 105
11, 283884, Note_off_c, 11, 36, 64
11, 283920, Note_on_c, 11, 38, 105
11, 284004, Note_off_c, 11, 38, 64
11, 284040, Note_on_c, 11, 40, 105
11, 284124, Note_off_c, 11, 40, 64
11, 284160, Note_on_c, 11, 41, 105
11, 284244, Note_off_c, 11, 41, 64
11, 284280, Note_on_c, 11, 45, 105
11, 284364, Note_off_c, 11, 45, 64
11, 284400, Note_on_c, 11, 48, 105
11, 284484, Note_off_c, 11, 48, 64
11, 284520, Note_on_c, 11, 48, 105
11, 284604, Note_off_c, 11, 48, 64
11, 284640, Note_on_c, 11, 48, 105
11, 284724, Note_off_c, 11, 48, 64
11, 284760, Note_on_c, 11, 48, 105
11, 284844, Note_off_c, 11, 48, 64
11, 284880, Note_on_c, 11, 45, 105
11, 284964, Note_off_c, 11, 45, 64
11, 285000, Note_on_c, 11, 41, 105
11, 285084, Note_off_c, 11, 41, 64
11, 285120, Note_on_c, 11, 46, 105
11, 285204, Note_off_c, 11, 46, 64
11, 285240, Note_on_c, 11, 43, 105
11, 285324, Note_off_c, 11, 43, 64
11, 285360, Note_on_c, 11, 45, 105
11, 285444, Note_off_c, 11, 45, 64
11, 285480, Note_on_c, 11, 41, 105
11, 285564, Note_off_c, 11, 41, 64
11, 285600, Note_on_c, 11, 40, 105
11, 285684, Note_off_c, 11, 40, 64
11, 285720, Note_on_c, 11, 43, 105
11, 285804, Note_off_c, 11, 43, 64
11, 285840, Note_on_c, 11, 40, 105
11, 285924, Note_off_c, 11, 40, 64
11, 285960, Note_on_c, 11, 36, 105
11, 286044, Note_off_c, 11, 36, 64
11, 286080, Note_on_c, 11, 41, 105
11, 286164, Note_off_c, 11, 41, 64
11, 286200, Note_on_c, 11, 45, 105
11, 286284, Note_off_c, 11, 45, 64
11, 286320, Note_on_c, 11, 48, 105
11, 286404, Note_off_c, 11, 48, 64
11, 286440, Note_on_c, 11, 48, 105
11, 286524, Note_off_c, 11, 48, 64
11, 286560, Note_on_c, 11, 48, 105
11, 286644, Note_off_c, 11, 48, 64
11, 286680, Note_on_c, 11, 48, 105
11, 286764, Note_off_c, 11, 48, 64
11, 286800, Note_on_c, 11, 45, 105
11, 286884, Note_off_c, 11, 45, 64
11, 286920, Note_on_c, 11, 41, 105
11, 287004, Note_off_c, 11, 41, 64
11, 287040, Note_on_c, 11, 46, 105
11, 287124, Note_off_c, 11, 46, 64
11, 287160, Note_on_c, 11, 43, 105
11, 287244, Note_off_c, 11, 43, 64
11, 287280, Note_on_c, 11, 45, 105
11, 287364, Note_off_c, 11, 45, 64
11, 287400, Note_on_c, 11, 41, 105
11, 287484, Note_off_c, 11, 41, 64
11, 287520, Note_on_c, 11, 40, 105
11, 287604, Note_off_c, 11, 40, 64
11, 287640, Note_on_c, 11, 43, 105
11, 287724, Note_off_c, 11, 43, 64
11, 287760, Note_on_c, 11, 40, 105
11, 287844, Note_off_c, 11, 40, 64
11, 287880, Note_on_c, 11, 36, 105
11, 287964, Note_off_c, 11, 36, 64
11, 288000, Note_on_c, 11, 41, 110
11, 288096, Note_off_c, 11, 41, 64
11, 288120, Note_on_c, 11, 29, 72
11, 288216, Note_off_c, 11, 29, 64
11, 288240, Note_on_c, 11, 41, 72
11, 288336, Note_off_c, 11, 41, 64
11, 288360, Note_on_c, 11, 41, 72
11, 288456, Note_off_c, 11, 41, 64
11, 288480, Note_on_c, 11, 41, 72
11, 288576, Note_off_c, 11, 41, 64
11, 288600, Note_on_c, 11, 41, 72
11, 288696, Note_off_c, 11, 41, 64
11, 288720, Note_on_c, 11, 43, 72
11, 288816, Note_off_c, 11, 43, 64
11, 288840, Note_on_c, 11, 43, 72
11, 288936, Note_off_c, 11, 43, 64
11, 288960, Note_on_c, 11, 45, 110
11, 289056, Note_off_c, 11, 45, 64
11, 289080, Note_on_c, 11, 33, 72
11, 289176, Note_off_c, 11, 33, 64
11, 289200, Note_on_c, 11, 45, 72
11, 289296, Note_off_c, 11, 45, 64
11, 289320, Note_on_c, 11, 45, 72
11, 289416, Note_off_c, 11, 45, 64
11, 289440, Note_on_c, 11, 45, 72
11, 289536, Note_off_c, 11, 45, 64
11, 289560, Note_on_c, 11, 45, 72
11, 289656, Note_off_c, 11, 45, 64
11, 289680, Note_on_c, 11, 43, 72
11, 289776, Note_off_c, 11, 43, 64
11, 289800, Note_on_c, 11, 43, 72
11, 289896, Note_off_c, 11, 43, 64
11, 289920, Note_on_c, 11, 41, 72
11, 289992, Note_off_c, 11, 41, 64
11, 290040, Note_on_c, 11, 40, 105
11, 290112, Note_off_c, 11, 40, 64
11, 290160, Note_on_c, 11, 41, 105
11, 290232, Note_off_c, 11, 41, 64
11, 290280, Note_on_c, 11, 40, 105
11, 290352, Note_off_c, 11, 40, 64
11, 290400, Note_on_c, 11, 41, 105
11, 290472, Note_off_c, 11, 41, 64
11, 290520, Note_on_c, 11, 40, 105
11, 290592, Note_off_c, 11, 40, 64
11, 290640, Note_on_c, 11, 41, 105
11, 290712, Note_off_c, 11, 41, 64
11, 290760, Note_on_c, 11, 43, 105
11, 290832, Note_off_c, 11, 43, 64
11, 290880, Note_on_c, 11, 45, 105
11, 290952, Note_off_c, 11, 45, 64
11, 291000, Note_on_c, 11, 44, 105
11, 291072, Note_off_c, 11, 44, 64
11, 291120, Note_on_c, 11, 45, 105
11, 291192, Note_off_c, 11, 45, 64
11, 291240, Note_on_c, 11, 44, 105
11, 291312, Note_off_c, 11, 44, 64
11, 291360, Note_on_c, 11, 45, 105
11, 291432, Note_off_c, 11, 45, 64
11, 291480, Note_on_c, 11, 44, 105
11, 291552, Note_off_c, 11, 44, 64
11, 291600, Note_on_c, 11, 45, 105
11, 291672, Note_off_c, 11, 45, 64
11, 291720, Note_on_c, 11, 40, 105
11, 291792, Note_off_c, 11, 40, 64
11, 291840, Note_on_c, 11, 41, 105
11, 291912, Note_off_c, 11, 41, 64
11, 291960, Note_on_c, 11, 40, 105
11, 292032, Note_off_c, 11, 40, 64
11, 292080, Note_on_c, 11, 41, 105
11, 292152, Note_off_c, 11, 41, 64
11, 292200, Note_on_c, 11, 40, 105
11, 292272, Note_off_c, 11, 40, 64
11, 292320, Note_on_c, 11, 41, 105
11, 292392, Note_off_c, 11, 41, 64
11, 292440, Note_on_c, 11, 40, 105
11, 292512, Note_off_c, 11, 40, 64
11, 292560, Note_on_c, 11, 41, 105
11, 292632, Note_off_c, 11, 41, 64
11, 292680, Note_on_c, 11, 38, 105
11, 292752, Note_off_c, 11, 38, 64
11, 292800, Note_on_c, 11, 40, 105
11, 292872, Note_off_c, 11, 40, 64
11, 292920, Note_on_c, 11, 38, 105
11, 292992, Note_off_c, 11, 38, 64
11, 293040, Note_on_c, 11, 40, 105
11, 293112, Note_off_c, 11, 40, 64
11, 293160, Note_on_c, 11, 38, 105
11, 293232, Note_off_c, 11, 38, 64
11, 293280, Note_on_c, 11, 40, 105
11, 293352, Note_off_c, 11, 40, 64
11, 293400, Note_on_c, 11, 38, 105
11, 293472, Note_off_c, 11, 38, 64
11, 293520, Note_on_c, 11, 40, 105
11, 293592, Note_off_c, 11, 40, 64
11, 293640, Note_on_c, 11, 35, 105
11, 293712, Note_off_c, 11, 35, 64
11, 293760, Note_on_c, 11, 36, 105
11, 293952, Note_off_c, 11, 36, 64
11, 295680, Note_on_c, 11, 44, 58
11, 297552, Note_off_c, 11, 44, 64
11, 297600, Note_on_c, 11, 43, 58
11, 297792, Note_off_c, 11, 43, 64
11, 298080, Note_on_c, 11, 48, 58
11, 298272, Note_off_c, 11, 48, 64
11, 298560, Note_on_c, 11, 43, 58
11, 298752, Note_off_c, 11, 43, 64
11, 299040, Note_on_c, 11, 36, 58
11, 299232, Note_off_c, 11, 36, 64
11, 299520, Note_on_c, 11, 41, 58
11, 300000, Note_off_c, 11, 41, 64
11, 300000, Note_on_c, 11, 40, 58
11, 300456, Note_off_c, 11, 40, 64
11, 300480, Note_on_c, 11, 41, 58
11, 300960, Note_off_c, 11, 41, 64
11, 300960, Note_on_c, 11, 40, 58
11, 301152, Note_off_c, 11, 40, 64
11, 301440, Note_on_c, 11, 41, 58
11, 301632, Note_off_c, 11, 41, 64
11, 301920, Note_on_c, 11, 43, 58
11, 302112, Note_off_c, 11, 43, 64
11, 302400, Note_on_c, 11, 36, 58
11, 302592, Note_off_c, 11, 36, 64
11, 302880, Note_on_c, 11, 45, 105
11, 303036, Note_off_c, 11, 45, 64
11, 303120, Note_on_c, 11, 45, 105
11, 303276, Note_off_c, 11, 45, 64
11, 303360, Note_on_c, 11, 45, 105
11, 303438, Note_off_c, 11, 45, 64
11, 303480, Note_on_c, 11, 47, 105
11, 303558, Note_off_c, 11, 47, 64
11, 303600, Note_on_c, 11, 48, 105
11, 303678, Note_off_c, 11, 48, 64
11, 303720, Note_on_c, 11, 45, 105
11, 303798, Note_off_c, 11, 45, 64
11, 303840, Note_on_c, 11, 44, 105
11, 303918, Note_off_c, 11, 44, 64
11, 303960, Note_on_c, 11, 40, 105
11, 304038, Note_off_c, 11, 40, 64
11, 304080, Note_on_c, 11, 42, 105
11, 304158, Note_off_c, 11, 42, 64
11, 304200, Note_on_c, 11, 44, 105
11, 304278, Note_off_c, 11, 44, 64
11, 304320, Note_on_c, 11, 45, 105
11, 304398, Note_off_c, 11, 45, 64
11, 304440, Note_on_c, 11, 47, 105
11, 304518, Note_off_c, 11, 47, 64
11, 304560, Note_on_c, 11, 48, 105
11, 304638, Note_off_c, 11, 48, 64
11, 304680, Note_on_c, 11, 45, 105
11, 304758, Note_off_c, 11, 45, 64
11, 304800, Note_on_c, 11, 44, 105
11, 304878, Note_off_c, 11, 44, 64
11, 304920, Note_on_c, 11, 40, 105
11, 304998, Note_off_c, 11, 40, 64
11, 305040, Note_on_c, 11, 42, 105
11, 305118, Note_off_c, 11, 42, 64
11, 305160, Note_on_c, 11, 44, 105
11, 305238, Note_off_c, 11, 44, 64
11, 305280, Note_on_c, 11, 45, 105
11, 305358, Note_off_c, 11, 45, 64
11, 305400, Note_on_c, 11, 47, 105
11, 305478, Note_off_c, 11, 47, 64
11, 305520, Note_on_c, 11, 48, 105
11, 305598, Note_off_c, 11, 48, 64
11, 305640, Note_on_c, 11, 45, 105
11, 305718, Note_off_c, 11, 45, 64
11, 305760, Note_on_c, 11, 44, 105
11, 305838, Note_off_c, 11, 44, 64
11, 305880, Note_on_c, 11, 40, 105
11, 305958, Note_off_c, 11, 40, 64
11, 306000, Note_on_c, 11, 42, 105
11, 306078, Note_off_c, 11, 42, 64
11, 306120, Note_on_c, 11, 44, 105
11, 306198, Note_off_c, 11, 44, 64
11, 306240, Note_on_c, 11, 45, 105
11, 306432, Note_off_c, 11, 45, 64
11, 308640, Note_on_c, 11, 41, 58
11, 308832, Note_off_c, 11, 41, 64
11, 309120, Note_on_c, 11, 43, 58
11, 309312, Note_off_c, 11, 43, 64
11, 309600, Note_on_c, 11, 31, 58
11, 309792, Note_off_c, 11, 31, 64
11, 310080, Note_on_c, 11, 36, 58
11, 310272, Note_off_c, 11, 36, 64
11, 311280, Note_on_c, 11, 45, 58
11, 311520, Note_off_c, 11, 45, 64
11, 311520, Note_on_c, 11, 44, 58
11, 311760, Note_off_c, 11, 44, 64
11, 311760, Note_on_c, 11, 40, 58
11, 311952, Note_off_c, 11, 40, 64
11, 312240, Note_on_c, 11, 45, 58
11, 312480, Note_off_c, 11, 45, 64
11, 312480, Note_on_c, 11, 44, 58
11, 312720, Note_off_c, 11, 44, 64
11, 312720, Note_on_c, 11, 40, 58
11, 312912, Note_off_c, 11, 40, 64
11, 313200, Note_on_c, 11, 45, 58
11, 313440, Note_off_c, 11, 45, 64
11, 313440, Note_on_c, 11, 44, 58
11, 313680, Note_off_c, 11, 44, 64
11, 313680, Note_on_c, 11, 40, 58
11, 313872, Note_off_c, 11, 40, 64
11, 313920, Note_on_c, 11, 45, 58
11, 314112, Note_off_c, 11, 45, 64
11, 314400, Note_on_c, 11, 41, 105
11, 314568, Note_off_c, 11, 41, 64
11, 314640, Note_on_c, 11, 41, 105
11, 314808, Note_off_c, 11, 41, 64
11, 314880, Note_on_c, 11, 41, 105
11, 314964, Note_off_c, 11, 41, 64
11, 315000, Note_on_c, 11, 45, 105
11, 315084, Note_off_c, 11, 45, 64
11, 315120, Note_on_c, 11, 43, 105
11, 315204, Note_off_c, 11, 43, 64
11, 315240, Note_on_c, 11, 41, 105
11, 315324, Note_off_c, 11, 41, 64
11, 315360, Note_on_c, 11, 40, 105
11, 315444, Note_off_c, 11, 40, 64
11, 315480, Note_on_c, 11, 36, 105
11, 315564, Note_off_c, 11, 36, 64
11, 315600, Note_on_c, 11, 38, 105
11, 315684, Note_off_c, 11, 38, 64
11, 315720, Note_on_c, 11, 40, 105
11, 315804, Note_off_c, 11, 40, 64
11, 315840, Note_on_c, 11, 41, 105
11, 315924, Note_off_c, 11, 41, 64
11, 315960, Note_on_c, 11, 41, 105
11, 316044, Note_off_c, 11, 41, 64
11, 316080, Note_on_c, 11, 41, 105
11, 316164, Note_off_c, 11, 41, 64
11, 316200, Note_on_c, 11, 41, 105
11, 316284, Note_off_c, 11, 41, 64
11, 316320, Note_on_c, 11, 41, 105
11, 316404, Note_off_c, 11, 41, 64
11, 316440, Note_on_c, 11, 41, 105
11, 316524, Note_off_c, 11, 41, 64
11, 316560, Note_on_c, 11, 41, 105
11, 316644, Note_off_c, 11, 41, 64
11, 316680, Note_on_c, 11, 41, 105
11, 316764, Note_off_c, 11, 41, 64
11, 316800, Note_on_c, 11, 43, 105
11, 316884, Note_off_c, 11, 43, 64
11, 316920, Note_on_c, 11, 43, 105
11, 317004, Note_off_c, 11, 43, 64
11, 317040, Note_on_c, 11, 43, 105
11, 317124, Note_off_c, 11, 43, 64
11, 317160, Note_on_c, 11, 43, 105
11, 317244, Note_off_c, 11, 43, 64
11, 317280, Note_on_c, 11, 43, 105
11, 317364, Note_off_c, 11, 43, 64
11, 317400, Note_on_c, 11, 43, 105
11, 317484, Note_off_c, 11, 43, 64
11, 317520, Note_on_c, 11, 43, 105
11, 317604, Note_off_c, 11, 43, 64
11, 317640, Note_on_c, 11, 43, 105
11, 317724, Note_off_c, 11, 43, 64
11, 317760, Note_on_c, 11, 48, 105
11, 317844, Note_off_c, 11, 48, 64
11, 317880, Note_on_c, 11, 36, 105
11, 317964, Note_off_c, 11, 36, 64
11, 318000, Note_on_c, 11, 38, 105
11, 318084, Note_off_c, 11, 38, 64
11, 318120, Note_on_c, 11, 40, 105
11, 318204, Note_off_c, 11, 40, 64
11, 318240, Note_on_c, 11, 41, 105
11, 318324, Note_off_c, 11, 41, 64
11, 318360, Note_on_c, 11, 45, 105
11, 318444, Note_off_c, 11, 45, 64
11, 318480, Note_on_c, 11, 43, 105
11, 318564, Note_off_c, 11, 43, 64
11, 318600, Note_on_c, 11, 47, 105
11, 318684, Note_off_c, 11, 47, 64
11, 318720, Note_on_c, 11, 45, 105
11, 318804, Note_off_c, 11, 45, 64
11, 318840, Note_on_c, 11, 48, 105
11, 318924, Note_off_c, 11, 48, 64
11, 318960, Note_on_c, 11, 47, 105
11, 319044, Note_off_c, 11, 47, 64
11, 319080, Note_on_c, 11, 50, 105
11, 319164, Note_off_c, 11, 50, 64
11, 319200, Note_on_c, 11, 48, 105
11, 319284, Note_off_c, 11, 48, 64
11, 319320, Note_on_c, 11, 52, 105
11, 319404, Note_off_c, 11, 52, 64
11, 319440, Note_on_c, 11, 50, 105
11, 319524, Note_off_c, 11, 50, 64
11, 319560, Note_on_c, 11, 53, 105
11, 319644, Note_off_c, 11, 53, 64
11, 319680, Note_on_c, 11, 52, 105
11, 319776, Note_off_c, 11, 52, 64
11, 319800, Note_on_c, 11, 48, 105
11, 319896, Note_off_c, 11, 48, 64
11, 319920, Note_on_c, 11, 43, 105
11, 320016, Note_off_c, 11, 43, 64
11, 320040, Note_on_c, 11, 52, 105
11, 320136, Note_off_c, 11, 52, 64
11, 320160, Note_on_c, 11, 53, 105
11, 320256, Note_off_c, 11, 53, 64
11, 320280, Note_on_c, 11, 50, 105
11, 320376, Note_off_c, 11, 50, 64
11, 320400, Note_on_c, 11, 47, 105
11, 320496, Note_off_c, 11, 47, 64
11, 320520, Note_on_c, 11, 43, 105
11, 320616, Note_off_c, 11, 43, 64
11, 320640, Note_on_c, 11, 48, 105
11, 320736, Note_off_c, 11, 48, 64
11, 320760, Note_on_c, 11, 48, 105
11, 320856, Note_off_c, 11, 48, 64
11, 320880, Note_on_c, 11, 40, 105
11, 320976, Note_off_c, 11, 40, 64
11, 321000, Note_on_c, 11, 40, 105
11, 321096, Note_off_c, 11, 40, 64
11, 321120, Note_on_c, 11, 41, 105
11, 321216, Note_off_c, 11, 41, 64
11, 321240, Note_on_c, 11, 41, 105
11, 321336, Note_off_c, 11, 41, 64
11, 321360, Note_on_c, 11, 43, 105
11, 321456, Note_off_c, 11, 43, 64
11, 321480, Note_on_c, 11, 43, 105
11, 321576, Note_off_c, 11, 43, 64
11, 321600, Note_on_c, 11, 48, 105
11, 321684, Note_off_c, 11, 48, 64
11, 321720, Note_on_c, 11, 36, 105
11, 321804, Note_off_c, 11, 36, 64
11, 321840, Note_on_c, 11, 38, 105
11, 321924, Note_off_c, 11, 38, 64
11, 321960, Note_on_c, 11, 40, 105
11, 322044, Note_off_c, 11, 40, 64
11, 322080, Note_on_c, 11, 41, 105
11, 322164, Note_off_c, 11, 41, 64
11, 322200, Note_on_c, 11, 38, 105
11, 322284, Note_off_c, 11, 38, 64
11, 322320, Note_on_c, 11, 43, 105
11, 322404, Note_off_c, 11, 43, 64
11, 322440, Note_on_c, 11, 40, 105
11, 322524, Note_off_c, 11, 40, 64
11, 322560, Note_on_c, 11, 45, 105
11, 322644, Note_off_c, 11, 45, 64
11, 322680, Note_on_c, 11, 41, 105
11, 322764, Note_off_c, 11, 41, 64
11, 322800, Note_on_c, 11, 47, 105
11, 322884, Note_off_c, 11, 47, 64
11, 322920, Note_on_c, 11, 43, 105
11, 323004, Note_off_c, 11, 43, 64
11, 323040, Note_on_c, 11, 48, 105
11, 323124, Note_off_c, 11, 48, 64
11, 323160, Note_on_c, 11, 45, 105
11, 323244, Note_off_c, 11, 45, 64
11, 323280, Note_on_c, 11, 50, 105
11, 323364, Note_off_c, 11, 50, 64
11, 323400, Note_on_c, 11, 47, 105
11, 323484, Note_off_c, 11, 47, 64
11, 323520, Note_on_c, 11, 52, 105
11, 323604, Note_off_c, 11, 52, 64
11, 323640, Note_on_c, 11, 50, 105
11, 323724, Note_off_c, 11, 50, 64
11, 323760, Note_on_c, 11, 49, 105
11, 323844, Note_off_c, 11, 49, 64
11, 323880, Note_on_c, 11, 45, 105
11, 323964, Note_off_c, 11, 45, 64
11, 324000, Note_on_c, 11, 50, 105
11, 324084, Note_off_c, 11, 50, 64
11, 324120, Note_on_c, 11, 48, 105
11, 324204, Note_off_c, 11, 48, 64
11, 324240, Note_on_c, 11, 47, 105
11, 324324, Note_off_c, 11, 47, 64
11, 324360, Note_on_c, 11, 43, 105
11, 324444, Note_off_c, 11, 43, 64
11, 324480, Note_on_c, 11, 48, 105
11, 324564, Note_off_c, 11, 48, 64
11, 324600, Note_on_c, 11, 48, 105
11, 324684, Note_off_c, 11, 48, 64
11, 324720, Note_on_c, 11, 45, 105
11, 324804, Note_off_c, 11, 45, 64
11, 324840, Note_on_c, 11, 45, 105
11, 324924, Note_off_c, 11, 45, 64
11, 324960, Note_on_c, 11, 41, 105
11, 325044, Note_off_c, 11, 41, 64
11, 325080, Note_on_c, 11, 41, 105
11, 325164, Note_off_c, 11, 41, 64
11, 325200, Note_on_c, 11, 43, 105
11, 325284, Note_off_c, 11, 43, 64
11, 325320, Note_on_c, 11, 43, 105
11, 325404, Note_off_c, 11, 43, 64
11, 325440, Note_on_c, 11, 36, 105
11, 325524, Note_off_c, 11, 36, 64
11, 325560, Note_on_c, 11, 48, 105
11, 325644, Note_off_c, 11, 48, 64
11, 325680, Note_on_c, 11, 48, 105
11, 325764, Note_off_c, 11, 48, 64
11, 325800, Note_on_c, 11, 48, 105
11, 325884, Note_off_c, 11, 48, 64
11, 325920, Note_on_c, 11, 48, 105
11, 326112, Note_off_c, 11, 48, 64
11, 326400, Note_on_c, 11, 45, 105
11, 326484, Note_off_c, 11, 45, 64
11, 326520, Note_on_c, 11, 45, 105
11, 326604, Note_off_c, 11, 45, 64
11, 326640, Note_on_c, 11, 45, 105
11, 326724, Note_off_c, 11, 45, 64
11, 326760, Note_on_c, 11, 45, 105
11, 326844, Note_off_c, 11, 45, 64
11, 326880, Note_on_c, 11, 45, 105
11, 327048, Note_off_c, 11, 45, 64
11, 327360, Note_on_c, 11, 40, 105
11, 327444, Note_off_c, 11, 40, 64
11, 327480, Note_on_c, 11, 40, 105
11, 327564, Note_off_c, 11, 40, 64
11, 327600, Note_on_c, 11, 40, 105
11, 327684, Note_off_c, 11, 40, 64
11, 327720, Note_on_c, 11, 40, 105
11, 327804, Note_off_c, 11, 40, 64
11, 327840, Note_on_c, 11, 40, 105
11, 328008, Note_off_c, 11, 40, 64
11, 328320, Note_on_c, 11, 41, 105
11, 328404, Note_off_c, 11, 41, 64
11, 328440, Note_on_c, 11, 41, 105
11, 328524, Note_off_c, 11, 41, 64
11, 328560, Note_on_c, 11, 41, 105
11, 328644, Note_off_c, 11, 41, 64
11, 328680, Note_on_c, 11, 41, 105
11, 328764, Note_off_c, 11, 41, 64
11, 328800, Note_on_c, 11, 38, 105
11, 328884, Note_off_c, 11, 38, 64
11, 328920, Note_on_c, 11, 38, 105
11, 329004, Note_off_c, 11, 38, 64
11, 329040, Note_on_c, 11, 38, 105
11, 329124, Note_off_c, 11, 38, 64
11, 329160, Note_on_c, 11, 38, 105
11, 329244, Note_off_c, 11, 38, 64
11, 329280, Note_on_c, 11, 35, 105
11, 329424, Note_off_c, 11, 35, 64
11, 329520, Note_on_c, 11, 47, 105
11, 329664, Note_off_c, 11, 47, 64
11, 330000, Note_on_c, 11, 47, 105
11, 330144, Note_off_c, 11, 47, 64
11, 330240, Note_on_c, 11, 48, 105
11, 330396, Note_off_c, 11, 48, 64
11, 330480, Note_on_c, 11, 41, 105
11, 330636, Note_off_c, 11, 41, 64
11, 330720, Note_on_c, 11, 43, 105
11, 330876, Note_off_c, 11, 43, 64
11, 330960, Note_on_c, 11, 31, 105
11, 331116, Note_off_c, 11, 31, 64
11, 331200, Note_on_c, 11, 36, 105
11, 331284, Note_off_c, 11, 36, 64
11, 331320, Note_on_c, 11, 48, 105
11, 331404, Note_off_c, 11, 48, 64
11, 331440, Note_on_c, 11, 48, 105
11, 331524, Note_off_c, 11, 48, 64
11, 331560, Note_on_c, 11, 48, 105
11, 331644, Note_off_c, 11, 48, 64
11, 331680, Note_on_c, 11, 48, 105
11, 331872, Note_off_c, 11, 48, 64
11, 332160, Note_on_c, 11, 45, 105
11, 332244, Note_off_c, 11, 45, 64
11, 332280, Note_on_c, 11, 45, 105
11, 332364, Note_off_c, 11, 45, 64
11, 332400, Note_on_c, 11, 45, 105
11, 332484, Note_off_c, 11, 45, 64
11, 332520, Note_on_c, 11, 45, 105
11, 332604, Note_off_c, 11, 45, 64
11, 332640, Note_on_c, 11, 45, 105
11, 332808, Note_off_c, 11, 45, 64
11, 333120, Note_on_c, 11, 40, 105
11, 333204, Note_off_c, 11, 40, 64
11, 333240, Note_on_c, 11, 40, 105
11, 333324, Note_off_c, 11, 40, 64
11, 333360, Note_on_c, 11, 40, 105
11, 333444, Note_off_c, 11, 40, 64
11, 333480, Note_on_c, 11, 40, 105
11, 333564, Note_off_c, 11, 40, 64
11, 333600, Note_on_c, 11, 40, 105
11, 333768, Note_off_c, 11, 40, 64
11, 334080, Note_on_c, 11, 41, 105
11, 334164, Note_off_c, 11, 41, 64
11, 334200, Note_on_c, 11, 41, 105
11, 334284, Note_off_c, 11, 41, 64
11, 334320, Note_on_c, 11, 41, 105
11, 334404, Note_off_c, 11, 41, 64
11, 334440, Note_on_c, 11, 41, 105
11, 334524, Note_off_c, 11, 41, 64
11, 334560, Note_on_c, 11, 38, 105
11, 334644, Note_off_c, 11, 38, 64
11, 334680, Note_on_c, 11, 38, 105
11, 334764, Note_off_c, 11, 38, 64
11, 334800, Note_on_c, 11, 38, 105
11, 334884, Note_off_c, 11, 38, 64
11, 334920, Note_on_c, 11, 38, 105
11, 335004, Note_off_c, 11, 38, 64
11, 335040, Note_on_c, 11, 35, 105
11, 335184, Note_off_c, 11, 35, 64
11, 335280, Note_on_c, 11, 47, 105
11, 335424, Note_off_c, 11, 47, 64
11, 337680, Note_on_c, 11, 32, 58
11, 337920, Note_off_c, 11, 32, 64
11, 337920, Note_on_c, 11, 31, 58
11, 338064, Note_off_c, 11, 31, 64
11, 338160, Note_on_c, 11, 41, 58
11, 338304, Note_off_c, 11, 41, 64
11, 338880, Note_on_c, 11, 35, 58
11, 339360, Note_off_c, 11, 35, 64
11, 339360, Note_on_c, 11, 36, 58
11, 339816, Note_off_c, 11, 36, 64
11, 339840, Note_on_c, 11, 29, 58
11, 340320, Note_off_c, 11, 29, 64
11, 340320, Note_on_c, 11, 31, 58
11, 340776, Note_off_c, 11, 31, 64
11, 340800, Note_on_c, 11, 36, 105
11, 340872, Note_off_c, 11, 36, 64
11, 340920, Note_on_c, 11, 31, 105
11, 340960, Note_off_c, 11, 31, 64
11, 340960, Note_on_c, 11, 33, 105
11, 341000, Note_off_c, 11, 33, 64
11, 341000, Note_on_c, 11, 35, 105
11, 341040, Note_off_c, 11, 35, 64
11, 341040, Note_on_c, 11, 36, 105
11, 341112, Note_off_c, 11, 36, 64
11, 341160, Note_on_c, 11, 36, 105
11, 341232, Note_off_c, 11, 36, 64
11, 341280, Note_on_c, 11, 36, 105
11, 341352, Note_off_c, 11, 36, 64
11, 341400, Note_on_c, 11, 36, 105
11, 341472, Note_off_c, 11, 36, 64
11, 341520, Note_on_c, 11, 36, 105
11, 341592, Note_off_c, 11, 36, 64
11, 341640, Note_on_c, 11, 36, 105
11, 341712, Note_off_c, 11, 36, 64
11, 341760, Note_on_c, 11, 36, 105
11, 341844, Note_off_c, 11, 36, 64
11, 341880, Note_on_c, 11, 36, 105
11, 341964, Note_off_c, 11, 36, 64
11, 342000, Note_on_c, 11, 36, 105
11, 342084, Note_off_c, 11, 36, 64
11, 342120, Note_on_c, 11, 36, 105
11, 342204, Note_off_c, 11, 36, 64
11, 342240, Note_on_c, 11, 36, 105
11, 342324, Note_off_c, 11, 36, 64
11, 342360, Note_on_c, 11, 36, 105
11, 342444, Note_off_c, 11, 36, 64
11, 342480, Note_on_c, 11, 36, 105
11, 342564, Note_off_c, 11, 36, 64
11, 342600, Note_on_c, 11, 36, 105
11, 342684, Note_off_c, 11, 36, 64
11, 342720, Note_on_c, 11, 36, 105
11, 342804, Note_off_c, 11, 36, 64
11, 342840, Note_on_c, 11, 36, 105
11, 342924, Note_off_c, 11, 36, 64
11, 342960, Note_on_c, 11, 45, 105
11, 343044, Note_off_c, 11, 45, 64
11, 343080, Note_on_c, 11, 45, 105
11, 343164, Note_off_c, 11, 45, 64
11, 343200, Note_on_c, 11, 41, 105
11, 343284, Note_off_c, 11, 41, 64
11, 343320, Note_on_c, 11, 41, 105
11, 343404, Note_off_c, 11, 41, 64
11, 343440, Note_on_c, 11, 43, 105
11, 343524, Note_off_c, 11, 43, 64
11, 343560, Note_on_c, 11, 43, 105
11, 343644, Note_off_c, 11, 43, 64
11, 343680, Note_on_c, 11, 36, 105
11, 343752, Note_off_c, 11, 36, 64
11, 343800, Note_on_c, 11, 31, 105
11, 343840, Note_off_c, 11, 31, 64
11, 343840, Note_on_c, 11, 33, 105
11, 343880, Note_off_c, 11, 33, 64
11, 343880, Note_on_c, 11, 35, 105
11, 343920, Note_off_c, 11, 35, 64
11, 343920, Note_on_c, 11, 36, 105
11, 343992, Note_off_c, 11, 36, 64
11, 344040, Note_on_c, 11, 36, 105
11, 344112, Note_off_c, 11, 36, 64
11, 344160, Note_on_c, 11, 36, 105
11, 344232, Note_off_c, 11, 36, 64
11, 344280, Note_on_c, 11, 36, 105
11, 344352, Note_off_c, 11, 36, 64
11, 344400, Note_on_c, 11, 36, 105
11, 344472, Note_off_c, 11, 36, 64
11, 344520, Note_on_c, 11, 36, 105
11, 344592, Note_off_c, 11, 36, 64
11, 344640, Note_on_c, 11, 36, 105
11, 344724, Note_off_c, 11, 36, 64
11, 344760, Note_on_c, 11, 36, 105
11, 344844, Note_off_c, 11, 36, 64
11, 344880, Note_on_c, 11, 36, 105
11, 344964, Note_off_c, 11, 36, 64
11, 345000, Note_on_c, 11, 36, 105
11, 345084, Note_off_c, 11, 36, 64
11, 345120, Note_on_c, 11, 36, 105
11, 345204, Note_off_c, 11, 36, 64
11, 345240, Note_on_c, 11, 36, 105
11, 345324, Note_off_c, 11, 36, 64
11, 345360, Note_on_c, 11, 36, 105
11, 345444, Note_off_c, 11, 36, 64
11, 345480, Note_on_c, 11, 36, 105
11, 345564, Note_off_c, 11, 36, 64
11, 345600, Note_on_c, 11, 36, 105
11, 345684, Note_off_c, 11, 36, 64
11, 345720, Note_on_c, 11, 36, 105
11, 345804, Note_off_c, 11, 36, 64
11, 345840, Note_on_c, 11, 45, 105
11, 345924, Note_off_c, 11, 45, 64
11, 345960, Note_on_c, 11, 45, 105
11, 346044, Note_off_c, 11, 45, 64
11, 346080, Note_on_c, 11, 41, 105
11, 346164, Note_off_c, 11, 41, 64
11, 346200, Note_on_c, 11, 41, 105
11, 346284, Note_off_c, 11, 41, 64
11, 346320, Note_on_c, 11, 43, 105
11, 346404, Note_off_c, 11, 43, 64
11, 346440, Note_on_c, 11, 43, 105
11, 346524, Note_off_c, 11, 43, 64
11, 346560, Note_on_c, 11, 40, 72
11, 346656, Note_off_c, 11, 40, 64
11, 346800, Note_on_c, 11, 45, 72
11, 346896, Note_off_c, 11, 45, 64
11, 347040, Note_on_c, 11, 41, 72
11, 347136, Note_off_c, 11, 41, 64
11, 347280, Note_on_c, 11, 43, 72
11, 347376, Note_off_c, 11, 43, 64
11, 347520, Note_on_c, 11, 36, 105
11, 347604, Note_off_c, 11, 36, 64
11, 347640, Note_on_c, 11, 36, 105
11, 347724, Note_off_c, 11, 36, 64
11, 347760, Note_on_c, 11, 45, 105
11, 347844, Note_off_c, 11, 45, 64
11, 347880, Note_on_c, 11, 45, 105
11, 347964, Note_off_c, 11, 45, 64
11, 348000, Note_on_c, 11, 41, 105
11, 348084, Note_off_c, 11, 41, 64
11, 348120, Note_on_c, 11, 41, 105
11, 348204, Note_off_c, 11, 41, 64
11, 348240, Note_on_c, 11, 43, 105
11, 348324, Note_off_c, 11, 43, 64
11, 348360, Note_on_c, 11, 43, 105
11, 348444, Note_off_c, 11, 43, 64
11, 348480, Note_on_c, 11, 36, 105
11, 348672, Note_off_c, 11, 36, 64
11, 350400, Note_on_c, 11, 40, 58
11, 352320, Note_off_c, 11, 40, 64
11, 352320, Note_on_c, 11, 41, 58
11, 352512, Note_off_c, 11, 41, 64
11, 355200, Note_on_c, 11, 41, 58
11, 355920, Note_off_c, 11, 41, 64
11, 355920, Note_on_c, 11, 42, 58
11, 356112, Note_off_c, 11, 42, 64
11, 356160, Note_on_c, 11, 43, 58
11, 357120, Note_off_c, 11, 43, 64
11, 357120, Note_on_c, 11, 36, 58
11, 357312, Note_off_c, 11, 36, 64
11, 358080, Note_on_c, 11, 48, 58
11, 358272, Note_off_c, 11, 48, 64
11, 358560, Note_on_c, 11, 43, 58
11, 358752, Note_off_c, 11, 43, 64
11, 359040, Note_on_c, 11, 36, 58
11, 359232, Note_off_c, 11, 36, 64
11, 360000, Note_on_c, 11, 48, 58
11, 360192, Note_off_c, 11, 48, 64
11, 360480, Note_on_c, 11, 43, 58
11, 360672, Note_off_c, 11, 43, 64
11, 360960, Note_on_c, 11, 36, 58
11, 361152, Note_off_c, 11, 36, 64
11, 363000, Note_on_c, 11, 43, 105
11, 363120, Note_off_c, 11, 43, 64
11, 363120, Note_on_c, 11, 48, 105
11, 363240, Note_off_c, 11, 48, 64
11, 363240, Note_on_c, 11, 47, 105
11, 363360, Note_off_c, 11, 47, 64
11, 363360, Note_on_c, 11, 50, 105
11, 363480, Note_off_c, 11, 50, 64
11, 363480, Note_on_c, 11, 48, 105
11, 363600, Note_off_c, 11, 48, 64
11, 363600, Note_on_c, 11, 53, 105
11, 363720, Note_off_c, 11, 53, 64
11, 363720, Note_on_c, 11, 52, 105
11, 363816, Note_off_c, 11, 52, 64
11, 363840, Note_on_c, 11, 52, 105
11, 364224, Note_off_c, 11, 52, 64
11, 364320, Note_on_c, 11, 36, 105
11, 364680, Note_off_c, 11, 36, 64
11, 364680, Note_on_c, 11, 38, 105
11, 364740, Note_off_c, 11, 38, 64
11, 364740, Note_on_c, 11, 40, 105
11, 364800, Note_off_c, 11, 40, 64
11, 364800, Note_on_c, 11, 41, 105
11, 364968, Note_off_c, 11, 41, 64
11, 365040, Note_on_c, 11, 38, 105
11, 365208, Note_off_c, 11, 38, 64
11, 365280, Note_on_c, 11, 43, 105
11, 365640, Note_off_c, 11, 43, 64
11, 365640, Note_on_c, 11, 45, 105
11, 365670, Note_off_c, 11, 45, 64
11, 365670, Note_on_c, 11, 47, 105
11, 365700, Note_off_c, 11, 47, 64
11, 365700, Note_on_c, 11, 48, 105
11, 365730, Note_off_c, 11, 48, 64
11, 365730, Note_on_c, 11, 50, 105
11, 365754, Note_off_c, 11, 50, 64
11, 365760, Note_on_c, 11, 52, 105
11, 366144, Note_off_c, 11, 52, 64
11, 366240, Note_on_c, 11, 36, 105
11, 366600, Note_off_c, 11, 36, 64
11, 366600, Note_on_c, 11, 38, 105
11, 366660, Note_off_c, 11, 38, 64
11, 366660, Note_on_c, 11, 40, 105
11, 366720, Note_off_c, 11, 40, 64
11, 366720, Note_on_c, 11, 41, 105
11, 366888, Note_off_c, 11, 41, 64
11, 366960, Note_on_c, 11, 38, 105
11, 367128, Note_off_c, 11, 38, 64
11, 367200, Note_on_c, 11, 43, 105
11, 367368, Note_off_c, 11, 43, 64
11, 367440, Note_on_c, 11, 31, 105
11, 367608, Note_off_c, 11, 31, 64
11, 367680, Note_on_c, 11, 36, 105
11, 367872, Note_off_c, 11, 36, 64
11, 368160, Note_on_c, 11, 36, 105
11, 368328, Note_off_c, 11, 36, 64
11, 368400, Note_on_c, 11, 36, 105
11, 368568, Note_off_c, 11, 36, 64
11, 368640, Note_on_c, 11, 36, 105
11, 368832, Note_off_c, 11, 36, 64
11, 369120, Note_on_c, 11, 36, 105
11, 369288, Note_off_c, 11, 36, 64
11, 369360, Note_on_c, 11, 36, 105
11, 369528, Note_off_c, 11, 36, 64
11, 369600, Note_on_c, 11, 36, 105
11, 369828, Note_off_c, 11, 36, 64
11, 371520, Note_on_c, 11, 19, 1
11, 371904, Note_off_c, 11, 19, 64
11, 371904, End_track
12, 0, Start_track
12, 0, Program_c, 12, 43
12, 0, Control_c, 12, 7, 97
12, 0, Control_c, 12, 91, 70
12, 0, Control_c, 12, 10, 96
12, 720, Note_on_c, 12, 36, 105
12, 834, Note_off_c, 12, 36, 64
12, 930, Note_on_c, 12, 36, 105
12, 954, Note_off_c, 12, 36, 64
12, 960, Note_on_c, 12, 40, 105
12, 1074, Note_off_c, 12, 40, 64
12, 1170, Note_on_c, 12, 40, 105
12, 1194, Note_off_c, 12, 40, 64
12, 1200, Note_on_c, 12, 45, 105
12, 1314, Note_off_c, 12, 45, 64
12, 1410, Note_on_c, 12, 45, 105
12, 1434, Note_off_c, 12, 45, 64
12, 1440, Note_on_c, 12, 35, 105
12, 1536, Note_off_c, 12, 35, 64
12, 1650, Note_on_c, 12, 47, 105
12, 1674, Note_off_c, 12, 47, 64
12, 1680, Note_on_c, 12, 47, 105
12, 1920, Note_off_c, 12, 47, 64
12, 2130, Note_on_c, 12, 35, 105
12, 2154, Note_off_c, 12, 35, 64
12, 2160, Note_on_c, 12, 34, 105
12, 2256, Note_off_c, 12, 34, 64
12, 2370, Note_on_c, 12, 46, 105
12, 2394, Note_off_c, 12, 46, 64
12, 2400, Note_on_c, 12, 46, 105
12, 2640, Note_off_c, 12, 46, 64
12, 2880, Note_on_c, 12, 45, 58
12, 2976, Note_off_c, 12, 45, 64
12, 3000, Note_on_c, 12, 45, 58
12, 3096, Note_off_c, 12, 45, 64
12, 3120, Note_on_c, 12, 45, 58
12, 3216, Note_off_c, 12, 45, 64
12, 3240, Note_on_c, 12, 45, 58
12, 3336, Note_off_c, 12, 45, 64
12, 3360, Note_on_c, 12, 45, 58
12, 3456, Note_off_c, 12, 45, 64
12, 3480, Note_on_c, 12, 45, 58
12, 3576, Note_off_c, 12, 45, 64
12, 3600, Note_on_c, 12, 43, 58
12, 3696, Note_off_c, 12, 43, 64
12, 3720, Note_on_c, 12, 43, 58
12, 3816, Note_off_c, 12, 43, 64
12, 3840, Note_on_c, 12, 43, 58
12, 3936, Note_off_c, 12, 43, 64
12, 3960, Note_on_c, 12, 43, 58
12, 4056, Note_off_c, 12, 43, 64
12, 4080, Note_on_c, 12, 43, 58
12, 4176, Note_off_c, 12, 43, 64
12, 4200, Note_on_c, 12, 43, 58
12, 4296, Note_off_c, 12, 43, 64
12, 4320, Note_on_c, 12, 41, 58
12, 4416, Note_off_c, 12, 41, 64
12, 4440, Note_on_c, 12, 41, 58
12, 4536, Note_off_c, 12, 41, 64
12, 4560, Note_on_c, 12, 41, 58
12, 4656, Note_off_c, 12, 41, 64
12, 4680, Note_on_c, 12, 41, 58
12, 4776, Note_off_c, 12, 41, 64
12, 4800, Note_on_c, 12, 41, 58
12, 4896, Note_off_c, 12, 41, 64
12, 4920, Note_on_c, 12, 41, 58
12, 5016, Note_off_c, 12, 41, 64
12, 5040, Note_on_c, 12, 40, 58
12, 5136, Note_off_c, 12, 40, 64
12, 5160, Note_on_c, 12, 40, 58
12, 5256, Note_off_c, 12, 40, 64
12, 5280, Note_on_c, 12, 40, 58
12, 5376, Note_off_c, 12, 40, 64
12, 5400, Note_on_c, 12, 40, 58
12, 5496, Note_off_c, 12, 40, 64
12, 5520, Note_on_c, 12, 39, 58
12, 5616, Note_off_c, 12, 39, 64
12, 5640, Note_on_c, 12, 39, 58
12, 5736, Note_off_c, 12, 39, 64
12, 5760, Note_on_c, 12, 38, 105
12, 5856, Note_off_c, 12, 38, 64
12, 6480, Note_on_c, 12, 31, 105
12, 6576, Note_off_c, 12, 31, 64
12, 7200, Note_on_c, 12, 36, 105
12, 7296, Note_off_c, 12, 36, 64
12, 8040, Note_on_c, 12, 43, 72
12, 8160, Note_off_c, 12, 43, 64
12, 8160, Note_on_c, 12, 41, 72
12, 8280, Note_off_c, 12, 41, 64
12, 8280, Note_on_c, 12, 36, 72
12, 8400, Note_off_c, 12, 36, 64
12, 8400, Note_on_c, 12, 41, 72
12, 8520, Note_off_c, 12, 41, 64
12, 8520, Note_on_c, 12, 39, 72
12, 8616, Note_off_c, 12, 39, 64
12, 8640, Note_on_c, 12, 37, 72
12, 8760, Note_off_c, 12, 37, 64
12, 8760, Note_on_c, 12, 39, 72
12, 8880, Note_off_c, 12, 39, 64
12, 8880, Note_on_c, 12, 37, 72
12, 9000, Note_off_c, 12, 37, 64
12, 9000, Note_on_c, 12, 32, 72
12, 9120, Note_off_c, 12, 32, 64
12, 9120, Note_on_c, 12, 37, 72
12, 9240, Note_off_c, 12, 37, 64
12, 9240, Note_on_c, 12, 36, 72
12, 9336, Note_off_c, 12, 36, 64
12, 9360, Note_on_c, 12, 35, 58
12, 9552, Note_off_c, 12, 35, 64
12, 9840, Note_on_c, 12, 47, 58
12, 10080, Note_off_c, 12, 47, 64
12, 10080, Note_on_c, 12, 48, 58
12, 10272, Note_off_c, 12, 48, 64
12, 10560, Note_on_c, 12, 43, 58
12, 10788, Note_off_c, 12, 43, 64
12, 10800, Note_on_c, 12, 44, 72
12, 11520, Note_off_c, 12, 44, 64
12, 11520, Note_on_c, 12, 43, 58
12, 11616, Note_off_c, 12, 43, 64
12, 11760, Note_on_c, 12, 47, 58
12, 12000, Note_off_c, 12, 47, 64
12, 12000, Note_on_c, 12, 48, 58
12, 12228, Note_off_c, 12, 48, 64
12, 12240, Note_on_c, 12, 43, 58
12, 12336, Note_off_c, 12, 43, 64
12, 12480, Note_on_c, 12, 35, 58
12, 12720, Note_off_c, 12, 35, 64
12, 12720, Note_on_c, 12, 36, 58
12, 12912, Note_off_c, 12, 36, 64
12, 12960, Note_on_c, 12, 43, 58
12, 13080, Note_off_c, 12, 43, 64
12, 13080, Note_on_c, 12, 42, 98
12, 13200, Note_off_c, 12, 42, 64
12, 13200, Note_on_c, 12, 43, 58
12, 13320, Note_off_c, 12, 43, 64
12, 13320, Note_on_c, 12, 42, 98
12, 13440, Note_off_c, 12, 42, 64
12, 13440, Note_on_c, 12, 43, 58
12, 13560, Note_off_c, 12, 43, 64
12, 13560, Note_on_c, 12, 42, 98
12, 13674, Note_off_c, 12, 42, 64
12, 13680, Note_on_c, 12, 43, 58
12, 13776, Note_off_c, 12, 43, 64
12, 13920, Note_on_c, 12, 31, 116
12, 14148, Note_off_c, 12, 31, 64
12, 14400, Note_on_c, 12, 36, 72
12, 14592, Note_off_c, 12, 36, 64
12, 14640, Note_on_c, 12, 36, 72
12, 14832, Note_off_c, 12, 36, 64
12, 14880, Note_on_c, 12, 36, 72
12, 15072, Note_off_c, 12, 36, 64
12, 15120, Note_on_c, 12, 36, 72
12, 15312, Note_off_c, 12, 36, 64
12, 15360, Note_on_c, 12, 36, 72
12, 15552, Note_off_c, 12, 36, 64
12, 15600, Note_on_c, 12, 36, 72
12, 15792, Note_off_c, 12, 36, 64
12, 15840, Note_on_c, 12, 36, 72
12, 16032, Note_off_c, 12, 36, 64
12, 16080, Note_on_c, 12, 36, 72
12, 16272, Note_off_c, 12, 36, 64
12, 16320, Note_on_c, 12, 36, 72
12, 16704, Note_off_c, 12, 36, 64
12, 17040, Note_on_c, 12, 36, 72
12, 17184, Note_off_c, 12, 36, 64
12, 17280, Note_on_c, 12, 41, 72
12, 17424, Note_off_c, 12, 41, 64
12, 17520, Note_on_c, 12, 36, 72
12, 17664, Note_off_c, 12, 36, 64
12, 18240, Note_on_c, 12, 45, 72
12, 19200, Note_off_c, 12, 45, 64
12, 20160, Note_off_c, 12, 43, 64
12, 20160, Note_on_c, 12, 41, 72
12, 20352, Note_off_c, 12, 41, 64
12, 20400, Note_on_c, 12, 38, 72
12, 20640, Note_off_c, 12, 38, 64
12, 20640, Note_on_c, 12, 40, 72
12, 20784, Note_off_c, 12, 40, 64
12, 20880, Note_on_c, 12, 35, 72
12, 21024, Note_off_c, 12, 35, 64
12, 21120, Note_on_c, 12, 36, 72
12, 21600, Note_off_c, 12, 36, 64
12, 21600, Note_on_c, 12, 40, 72
12, 21984, Note_off_c, 12, 40, 64
12, 22080, Note_on_c, 12, 41, 72
12, 22848, Note_off_c, 12, 41, 64
12, 23040, Note_on_c, 12, 43, 58
12, 23616, Note_off_c, 12, 43, 64
12, 24000, Note_on_c, 12, 36, 105
12, 24096, Note_off_c, 12, 36, 64
12, 24120, Note_on_c, 12, 36, 105
12, 24216, Note_off_c, 12, 36, 64
12, 24240, Note_on_c, 12, 36, 105
12, 24336, Note_off_c, 12, 36, 64
12, 24360, Note_on_c, 12, 36, 105
12, 24456, Note_off_c, 12, 36, 64
12, 24480, Note_on_c, 12, 36, 105
12, 24576, Note_off_c, 12, 36, 64
12, 24600, Note_on_c, 12, 36, 105
12, 24696, Note_off_c, 12, 36, 64
12, 24720, Note_on_c, 12, 36, 105
12, 24816, Note_off_c, 12, 36, 64
12, 24840, Note_on_c, 12, 36, 105
12, 24936, Note_off_c, 12, 36, 64
12, 24960, Note_on_c, 12, 36, 105
12, 25056, Note_off_c, 12, 36, 64
12, 25080, Note_on_c, 12, 36, 105
12, 25176, Note_off_c, 12, 36, 64
12, 25200, Note_on_c, 12, 36, 105
12, 25296, Note_off_c, 12, 36, 64
12, 25320, Note_on_c, 12, 36, 105
12, 25416, Note_off_c, 12, 36, 64
12, 25440, Note_on_c, 12, 36, 105
12, 25536, Note_off_c, 12, 36, 64
12, 25560, Note_on_c, 12, 36, 105
12, 25656, Note_off_c, 12, 36, 64
12, 25680, Note_on_c, 12, 36, 105
12, 25776, Note_off_c, 12, 36, 64
12, 25800, Note_on_c, 12, 36, 105
12, 25896, Note_off_c, 12, 36, 64
12, 25920, Note_on_c, 12, 36, 105
12, 26304, Note_off_c, 12, 36, 64
12, 26640, Note_on_c, 12, 36, 105
12, 26808, Note_off_c, 12, 36, 64
12, 26880, Note_on_c, 12, 41, 105
12, 27048, Note_off_c, 12, 41, 64
12, 27120, Note_on_c, 12, 36, 105
12, 27288, Note_off_c, 12, 36, 64
12, 27600, Note_on_c, 12, 36, 105
12, 27768, Note_off_c, 12, 36, 64
12, 27840, Note_on_c, 12, 41, 105
12, 28008, Note_off_c, 12, 41, 64
12, 28080, Note_on_c, 12, 36, 105
12, 28248, Note_off_c, 12, 36, 64
12, 28560, Note_on_c, 12, 36, 105
12, 28728, Note_off_c, 12, 36, 64
12, 28800, Note_on_c, 12, 41, 105
12, 28968, Note_off_c, 12, 41, 64
12, 29040, Note_on_c, 12, 36, 105
12, 29208, Note_off_c, 12, 36, 64
12, 29280, Note_on_c, 12, 41, 105
12, 29448, Note_off_c, 12, 41, 64
12, 29520, Note_on_c, 12, 36, 105
12, 29688, Note_off_c, 12, 36, 64
12, 29760, Note_on_c, 12, 41, 105
12, 29928, Note_off_c, 12, 41, 64
12, 30000, Note_on_c, 12, 36, 105
12, 30168, Note_off_c, 12, 36, 64
12, 30720, Note_on_c, 12, 45, 58
12, 31680, Note_off_c, 12, 45, 64
12, 31680, Note_on_c, 12, 43, 58
12, 32160, Note_off_c, 12, 43, 64
12, 32160, Note_on_c, 12, 36, 58
12, 32640, Note_off_c, 12, 36, 64
12, 32640, Note_on_c, 12, 41, 58
12, 32832, Note_off_c, 12, 41, 64
12, 34560, Note_on_c, 12, 43, 72
12, 34752, Note_off_c, 12, 43, 64
12, 34800, Note_on_c, 12, 43, 72
12, 34992, Note_off_c, 12, 43, 64
12, 35040, Note_on_c, 12, 43, 72
12, 35232, Note_off_c, 12, 43, 64
12, 35280, Note_on_c, 12, 43, 72
12, 35472, Note_off_c, 12, 43, 64
12, 35520, Note_on_c, 12, 36, 105
12, 35604, Note_off_c, 12, 36, 64
12, 35640, Note_on_c, 12, 40, 105
12, 35724, Note_off_c, 12, 40, 64
12, 35760, Note_on_c, 12, 43, 105
12, 35844, Note_off_c, 12, 43, 64
12, 35880, Note_on_c, 12, 48, 105
12, 35964, Note_off_c, 12, 48, 64
12, 36000, Note_on_c, 12, 52, 105
12, 36084, Note_off_c, 12, 52, 64
12, 36120, Note_on_c, 12, 50, 105
12, 36204, Note_off_c, 12, 50, 64
12, 36240, Note_on_c, 12, 52, 105
12, 36324, Note_off_c, 12, 52, 64
12, 36360, Note_on_c, 12, 48, 105
12, 36444, Note_off_c, 12, 48, 64
12, 36480, Note_on_c, 12, 47, 105
12, 36564, Note_off_c, 12, 47, 64
12, 36600, Note_on_c, 12, 48, 105
12, 36684, Note_off_c, 12, 48, 64
12, 36720, Note_on_c, 12, 50, 105
12, 36804, Note_off_c, 12, 50, 64
12, 36840, Note_on_c, 12, 48, 105
12, 36924, Note_off_c, 12, 48, 64
12, 36960, Note_on_c, 12, 47, 105
12, 37044, Note_off_c, 12, 47, 64
12, 37080, Note_on_c, 12, 45, 105
12, 37164, Note_off_c, 12, 45, 64
12, 37200, Note_on_c, 12, 43, 105
12, 37284, Note_off_c, 12, 43, 64
12, 37320, Note_on_c, 12, 41, 105
12, 37404, Note_off_c, 12, 41, 64
12, 37440, Note_on_c, 12, 40, 105
12, 37524, Note_off_c, 12, 40, 64
12, 37560, Note_on_c, 12, 41, 105
12, 37644, Note_off_c, 12, 41, 64
12, 37680, Note_on_c, 12, 43, 105
12, 37764, Note_off_c, 12, 43, 64
12, 37800, Note_on_c, 12, 40, 105
12, 37884, Note_off_c, 12, 40, 64
12, 37920, Note_on_c, 12, 45, 105
12, 38004, Note_off_c, 12, 45, 64
12, 38040, Note_on_c, 12, 47, 105
12, 38124, Note_off_c, 12, 47, 64
12, 38160, Note_on_c, 12, 48, 105
12, 38244, Note_off_c, 12, 48, 64
12, 38280, Note_on_c, 12, 45, 105
12, 38364, Note_off_c, 12, 45, 64
12, 38400, Note_on_c, 12, 41, 105
12, 38484, Note_off_c, 12, 41, 64
12, 38520, Note_on_c, 12, 38, 105
12, 38604, Note_off_c, 12, 38, 64
12, 38640, Note_on_c, 12, 40, 105
12, 38724, Note_off_c, 12, 40, 64
12, 38760, Note_on_c, 12, 41, 105
12, 38844, Note_off_c, 12, 41, 64
12, 38880, Note_on_c, 12, 43, 105
12, 38964, Note_off_c, 12, 43, 64
12, 39000, Note_on_c, 12, 41, 105
12, 39084, Note_off_c, 12, 41, 64
12, 39120, Note_on_c, 12, 43, 105
12, 39204, Note_off_c, 12, 43, 64
12, 39240, Note_on_c, 12, 31, 105
12, 39324, Note_off_c, 12, 31, 64
12, 39360, Note_on_c, 12, 36, 105
12, 39444, Note_off_c, 12, 36, 64
12, 39480, Note_on_c, 12, 40, 105
12, 39564, Note_off_c, 12, 40, 64
12, 39600, Note_on_c, 12, 43, 105
12, 39684, Note_off_c, 12, 43, 64
12, 39720, Note_on_c, 12, 48, 105
12, 39804, Note_off_c, 12, 48, 64
12, 39840, Note_on_c, 12, 52, 105
12, 39924, Note_off_c, 12, 52, 64
12, 39960, Note_on_c, 12, 50, 105
12, 40044, Note_off_c, 12, 50, 64
12, 40080, Note_on_c, 12, 52, 105
12, 40164, Note_off_c, 12, 52, 64
12, 40200, Note_on_c, 12, 48, 105
12, 40284, Note_off_c, 12, 48, 64
12, 40320, Note_on_c, 12, 47, 105
12, 40404, Note_off_c, 12, 47, 64
12, 40440, Note_on_c, 12, 48, 105
12, 40524, Note_off_c, 12, 48, 64
12, 40560, Note_on_c, 12, 50, 105
12, 40644, Note_off_c, 12, 50, 64
12, 40680, Note_on_c, 12, 48, 105
12, 40764, Note_off_c, 12, 48, 64
12, 40800, Note_on_c, 12, 47, 105
12, 40884, Note_off_c, 12, 47, 64
12, 40920, Note_on_c, 12, 45, 105
12, 41004, Note_off_c, 12, 45, 64
12, 41040, Note_on_c, 12, 43, 105
12, 41124, Note_off_c, 12, 43, 64
12, 41160, Note_on_c, 12, 41, 105
12, 41244, Note_off_c, 12, 41, 64
12, 41280, Note_on_c, 12, 40, 105
12, 41364, Note_off_c, 12, 40, 64
12, 41400, Note_on_c, 12, 41, 105
12, 41484, Note_off_c, 12, 41, 64
12, 41520, Note_on_c, 12, 43, 105
12, 41604, Note_off_c, 12, 43, 64
12, 41640, Note_on_c, 12, 40, 105
12, 41724, Note_off_c, 12, 40, 64
12, 41760, Note_on_c, 12, 45, 105
12, 41844, Note_off_c, 12, 45, 64
12, 41880, Note_on_c, 12, 47, 105
12, 41964, Note_off_c, 12, 47, 64
12, 42000, Note_on_c, 12, 48, 105
12, 42084, Note_off_c, 12, 48, 64
12, 42120, Note_on_c, 12, 45, 105
12, 42204, Note_off_c, 12, 45, 64
12, 42240, Note_on_c, 12, 42, 105
12, 42324, Note_off_c, 12, 42, 64
12, 42360, Note_on_c, 12, 43, 105
12, 42444, Note_off_c, 12, 43, 64
12, 42480, Note_on_c, 12, 45, 105
12, 42564, Note_off_c, 12, 45, 64
12, 42600, Note_on_c, 12, 43, 105
12, 42684, Note_off_c, 12, 43, 64
12, 42720, Note_on_c, 12, 42, 105
12, 42804, Note_off_c, 12, 42, 64
12, 42840, Note_on_c, 12, 38, 105
12, 42924, Note_off_c, 12, 38, 64
12, 42960, Note_on_c, 12, 40, 105
12, 43044, Note_off_c, 12, 40, 64
12, 43080, Note_on_c, 12, 42, 105
12, 43164, Note_off_c, 12, 42, 64
12, 43200, Note_on_c, 12, 43, 105
12, 43284, Note_off_c, 12, 43, 64
12, 43320, Note_on_c, 12, 45, 105
12, 43404, Note_off_c, 12, 45, 64
12, 43440, Note_on_c, 12, 47, 105
12, 43524, Note_off_c, 12, 47, 64
12, 43560, Note_on_c, 12, 45, 105
12, 43644, Note_off_c, 12, 45, 64
12, 43680, Note_on_c, 12, 44, 105
12, 43764, Note_off_c, 12, 44, 64
12, 43800, Note_on_c, 12, 45, 105
12, 43884, Note_off_c, 12, 45, 64
12, 43920, Note_on_c, 12, 42, 105
12, 44004, Note_off_c, 12, 42, 64
12, 44040, Note_on_c, 12, 44, 105
12, 44124, Note_off_c, 12, 44, 64
12, 44160, Note_on_c, 12, 45, 105
12, 44244, Note_off_c, 12, 45, 64
12, 44280, Note_on_c, 12, 47, 105
12, 44364, Note_off_c, 12, 47, 64
12, 44400, Note_on_c, 12, 48, 105
12, 44484, Note_off_c, 12, 48, 64
12, 44520, Note_on_c, 12, 47, 105
12, 44604, Note_off_c, 12, 47, 64
12, 44640, Note_on_c, 12, 45, 105
12, 44724, Note_off_c, 12, 45, 64
12, 44760, Note_on_c, 12, 47, 105
12, 44844, Note_off_c, 12, 47, 64
12, 44880, Note_on_c, 12, 43, 105
12, 44964, Note_off_c, 12, 43, 64
12, 45000, Note_on_c, 12, 45, 105
12, 45084, Note_off_c, 12, 45, 64
12, 45120, Note_on_c, 12, 42, 105
12, 45204, Note_off_c, 12, 42, 64
12, 45240, Note_on_c, 12, 43, 105
12, 45324, Note_off_c, 12, 43, 64
12, 45360, Note_on_c, 12, 45, 105
12, 45444, Note_off_c, 12, 45, 64
12, 45480, Note_on_c, 12, 43, 105
12, 45564, Note_off_c, 12, 43, 64
12, 45600, Note_on_c, 12, 42, 105
12, 45684, Note_off_c, 12, 42, 64
12, 45720, Note_on_c, 12, 38, 105
12, 45804, Note_off_c, 12, 38, 64
12, 45840, Note_on_c, 12, 40, 105
12, 45924, Note_off_c, 12, 40, 64
12, 45960, Note_on_c, 12, 42, 105
12, 46044, Note_off_c, 12, 42, 64
12, 46080, Note_on_c, 12, 43, 105
12, 46164, Note_off_c, 12, 43, 64
12, 46200, Note_on_c, 12, 47, 105
12, 46284, Note_off_c, 12, 47, 64
12, 46320, Note_on_c, 12, 50, 105
12, 46404, Note_off_c, 12, 50, 64
12, 46440, Note_on_c, 12, 50, 105
12, 46524, Note_off_c, 12, 50, 64
12, 46560, Note_on_c, 12, 50, 105
12, 46644, Note_off_c, 12, 50, 64
12, 46680, Note_on_c, 12, 50, 105
12, 46764, Note_off_c, 12, 50, 64
12, 46800, Note_on_c, 12, 47, 105
12, 46884, Note_off_c, 12, 47, 64
12, 46920, Note_on_c, 12, 43, 105
12, 47004, Note_off_c, 12, 43, 64
12, 47040, Note_on_c, 12, 48, 105
12, 47124, Note_off_c, 12, 48, 64
12, 47160, Note_on_c, 12, 45, 105
12, 47244, Note_off_c, 12, 45, 64
12, 47280, Note_on_c, 12, 47, 105
12, 47364, Note_off_c, 12, 47, 64
12, 47400, Note_on_c, 12, 43, 105
12, 47484, Note_off_c, 12, 43, 64
12, 47520, Note_on_c, 12, 42, 105
12, 47604, Note_off_c, 12, 42, 64
12, 47640, Note_on_c, 12, 45, 105
12, 47724, Note_off_c, 12, 45, 64
12, 47760, Note_on_c, 12, 42, 105
12, 47844, Note_off_c, 12, 42, 64
12, 47880, Note_on_c, 12, 38, 105
12, 47964, Note_off_c, 12, 38, 64
12, 48000, Note_on_c, 12, 43, 105
12, 48084, Note_off_c, 12, 43, 64
12, 48120, Note_on_c, 12, 47, 105
12, 48204, Note_off_c, 12, 47, 64
12, 48240, Note_on_c, 12, 50, 105
12, 48324, Note_off_c, 12, 50, 64
12, 48360, Note_on_c, 12, 50, 105
12, 48444, Note_off_c, 12, 50, 64
12, 48480, Note_on_c, 12, 50, 105
12, 48564, Note_off_c, 12, 50, 64
12, 48600, Note_on_c, 12, 50, 105
12, 48684, Note_off_c, 12, 50, 64
12, 48720, Note_on_c, 12, 47, 105
12, 48804, Note_off_c, 12, 47, 64
12, 48840, Note_on_c, 12, 43, 105
12, 48924, Note_off_c, 12, 43, 64
12, 48960, Note_on_c, 12, 48, 105
12, 49044, Note_off_c, 12, 48, 64
12, 49080, Note_on_c, 12, 45, 105
12, 49164, Note_off_c, 12, 45, 64
12, 49200, Note_on_c, 12, 47, 105
12, 49284, Note_off_c, 12, 47, 64
12, 49320, Note_on_c, 12, 43, 105
12, 49404, Note_off_c, 12, 43, 64
12, 49440, Note_on_c, 12, 42, 105
12, 49524, Note_off_c, 12, 42, 64
12, 49560, Note_on_c, 12, 45, 105
12, 49644, Note_off_c, 12, 45, 64
12, 49680, Note_on_c, 12, 42, 105
12, 49764, Note_off_c, 12, 42, 64
12, 49800, Note_on_c, 12, 38, 105
12, 49884, Note_off_c, 12, 38, 64
12, 49920, Note_on_c, 12, 43, 105
12, 50004, Note_off_c, 12, 43, 64
12, 50040, Note_on_c, 12, 45, 105
12, 50124, Note_off_c, 12, 45, 64
12, 50160, Note_on_c, 12, 42, 105
12, 50244, Note_off_c, 12, 42, 64
12, 50280, Note_on_c, 12, 43, 105
12, 50364, Note_off_c, 12, 43, 64
12, 50400, Note_on_c, 12, 40, 105
12, 50484, Note_off_c, 12, 40, 64
12, 50520, Note_on_c, 12, 41, 105
12, 50604, Note_off_c, 12, 41, 64
12, 50640, Note_on_c, 12, 38, 105
12, 50724, Note_off_c, 12, 38, 64
12, 50760, Note_on_c, 12, 40, 105
12, 50844, Note_off_c, 12, 40, 64
12, 50880, Note_on_c, 12, 36, 110
12, 50964, Note_off_c, 12, 36, 64
12, 51000, Note_on_c, 12, 48, 72
12, 51084, Note_off_c, 12, 48, 64
12, 51120, Note_on_c, 12, 48, 72
12, 51204, Note_off_c, 12, 48, 64
12, 51240, Note_on_c, 12, 48, 72
12, 51324, Note_off_c, 12, 48, 64
12, 51360, Note_on_c, 12, 38, 72
12, 51444, Note_off_c, 12, 38, 64
12, 51480, Note_on_c, 12, 50, 72
12, 51564, Note_off_c, 12, 50, 64
12, 51600, Note_on_c, 12, 50, 72
12, 51684, Note_off_c, 12, 50, 64
12, 51720, Note_on_c, 12, 50, 72
12, 51804, Note_off_c, 12, 50, 64
12, 51840, Note_on_c, 12, 36, 110
12, 51924, Note_off_c, 12, 36, 64
12, 51960, Note_on_c, 12, 48, 72
12, 52044, Note_off_c, 12, 48, 64
12, 52080, Note_on_c, 12, 48, 72
12, 52164, Note_off_c, 12, 48, 64
12, 52200, Note_on_c, 12, 48, 72
12, 52284, Note_off_c, 12, 48, 64
12, 52320, Note_on_c, 12, 38, 72
12, 52404, Note_off_c, 12, 38, 64
12, 52440, Note_on_c, 12, 50, 72
12, 52524, Note_off_c, 12, 50, 64
12, 52560, Note_on_c, 12, 50, 72
12, 52644, Note_off_c, 12, 50, 64
12, 52680, Note_on_c, 12, 50, 72
12, 52764, Note_off_c, 12, 50, 64
12, 52800, Note_on_c, 12, 48, 105
12, 52872, Note_off_c, 12, 48, 64
12, 52920, Note_on_c, 12, 47, 105
12, 52992, Note_off_c, 12, 47, 64
12, 53040, Note_on_c, 12, 48, 105
12, 53112, Note_off_c, 12, 48, 64
12, 53160, Note_on_c, 12, 47, 105
12, 53232, Note_off_c, 12, 47, 64
12, 53280, Note_on_c, 12, 48, 105
12, 53352, Note_off_c, 12, 48, 64
12, 53400, Note_on_c, 12, 47, 105
12, 53472, Note_off_c, 12, 47, 64
12, 53520, Note_on_c, 12, 48, 105
12, 53592, Note_off_c, 12, 48, 64
12, 53640, Note_on_c, 12, 44, 105
12, 53712, Note_off_c, 12, 44, 64
12, 53760, Note_on_c, 12, 45, 105
12, 53832, Note_off_c, 12, 45, 64
12, 53880, Note_on_c, 12, 44, 105
12, 53952, Note_off_c, 12, 44, 64
12, 54000, Note_on_c, 12, 45, 105
12, 54072, Note_off_c, 12, 45, 64
12, 54120, Note_on_c, 12, 44, 105
12, 54192, Note_off_c, 12, 44, 64
12, 54240, Note_on_c, 12, 45, 105
12, 54312, Note_off_c, 12, 45, 64
12, 54360, Note_on_c, 12, 44, 105
12, 54432, Note_off_c, 12, 44, 64
12, 54480, Note_on_c, 12, 45, 105
12, 54552, Note_off_c, 12, 45, 64
12, 54600, Note_on_c, 12, 47, 105
12, 54672, Note_off_c, 12, 47, 64
12, 54720, Note_on_c, 12, 48, 105
12, 54912, Note_off_c, 12, 48, 64
12, 56640, Note_on_c, 12, 37, 58
12, 57600, Note_off_c, 12, 37, 64
12, 57600, Note_on_c, 12, 40, 58
12, 58368, Note_off_c, 12, 40, 64
12, 58560, Note_on_c, 12, 38, 72
12, 58752, Note_off_c, 12, 38, 64
12, 59040, Note_on_c, 12, 43, 72
12, 59232, Note_off_c, 12, 43, 64
12, 59520, Note_on_c, 12, 38, 72
12, 59712, Note_off_c, 12, 38, 64
12, 60000, Note_on_c, 12, 31, 72
12, 60192, Note_off_c, 12, 31, 64
12, 60480, Note_on_c, 12, 36, 58
12, 60864, Note_off_c, 12, 36, 64
12, 60960, Note_on_c, 12, 35, 58
12, 61344, Note_off_c, 12, 35, 64
12, 61440, Note_on_c, 12, 36, 58
12, 61824, Note_off_c, 12, 36, 64
12, 61920, Note_on_c, 12, 35, 58
12, 62112, Note_off_c, 12, 35, 64
12, 62400, Note_on_c, 12, 35, 58
12, 62592, Note_off_c, 12, 35, 64
12, 62880, Note_on_c, 12, 38, 58
12, 63072, Note_off_c, 12, 38, 64
12, 63360, Note_on_c, 12, 31, 58
12, 63552, Note_off_c, 12, 31, 64
12, 63840, Note_on_c, 12, 40, 58
12, 63984, Note_off_c, 12, 40, 64
12, 64080, Note_on_c, 12, 40, 105
12, 64224, Note_off_c, 12, 40, 64
12, 64320, Note_on_c, 12, 40, 105
12, 64404, Note_off_c, 12, 40, 64
12, 64440, Note_on_c, 12, 42, 105
12, 64524, Note_off_c, 12, 42, 64
12, 64560, Note_on_c, 12, 43, 105
12, 64644, Note_off_c, 12, 43, 64
12, 64680, Note_on_c, 12, 40, 105
12, 64764, Note_off_c, 12, 40, 64
12, 64800, Note_on_c, 12, 39, 105
12, 64884, Note_off_c, 12, 39, 64
12, 64920, Note_on_c, 12, 35, 105
12, 65004, Note_off_c, 12, 35, 64
12, 65040, Note_on_c, 12, 37, 105
12, 65124, Note_off_c, 12, 37, 64
12, 65160, Note_on_c, 12, 39, 105
12, 65244, Note_off_c, 12, 39, 64
12, 65280, Note_on_c, 12, 40, 105
12, 65364, Note_off_c, 12, 40, 64
12, 65400, Note_on_c, 12, 42, 105
12, 65484, Note_off_c, 12, 42, 64
12, 65520, Note_on_c, 12, 43, 105
12, 65604, Note_off_c, 12, 43, 64
12, 65640, Note_on_c, 12, 40, 105
12, 65724, Note_off_c, 12, 40, 64
12, 65760, Note_on_c, 12, 39, 105
12, 65844, Note_off_c, 12, 39, 64
12, 65880, Note_on_c, 12, 35, 105
12, 65964, Note_off_c, 12, 35, 64
12, 66000, Note_on_c, 12, 37, 105
12, 66084, Note_off_c, 12, 37, 64
12, 66120, Note_on_c, 12, 39, 105
12, 66204, Note_off_c, 12, 39, 64
12, 66240, Note_on_c, 12, 40, 105
12, 66324, Note_off_c, 12, 40, 64
12, 66360, Note_on_c, 12, 42, 105
12, 66444, Note_off_c, 12, 42, 64
12, 66480, Note_on_c, 12, 43, 105
12, 66564, Note_off_c, 12, 43, 64
12, 66600, Note_on_c, 12, 40, 105
12, 66684, Note_off_c, 12, 40, 64
12, 66720, Note_on_c, 12, 39, 105
12, 66804, Note_off_c, 12, 39, 64
12, 66840, Note_on_c, 12, 35, 105
12, 66924, Note_off_c, 12, 35, 64
12, 66960, Note_on_c, 12, 37, 105
12, 67044, Note_off_c, 12, 37, 64
12, 67080, Note_on_c, 12, 39, 105
12, 67164, Note_off_c, 12, 39, 64
12, 67200, Note_on_c, 12, 40, 105
12, 67392, Note_off_c, 12, 40, 64
12, 69600, Note_on_c, 12, 48, 72
12, 69792, Note_off_c, 12, 48, 64
12, 70080, Note_on_c, 12, 50, 72
12, 70272, Note_off_c, 12, 50, 64
12, 70560, Note_on_c, 12, 38, 72
12, 70752, Note_off_c, 12, 38, 64
12, 71040, Note_on_c, 12, 43, 58
12, 71232, Note_off_c, 12, 43, 64
12, 72240, Note_on_c, 12, 40, 58
12, 72480, Note_off_c, 12, 40, 64
12, 72480, Note_on_c, 12, 39, 58
12, 72720, Note_off_c, 12, 39, 64
12, 72720, Note_on_c, 12, 35, 58
12, 72912, Note_off_c, 12, 35, 64
12, 73200, Note_on_c, 12, 40, 58
12, 73440, Note_off_c, 12, 40, 64
12, 73440, Note_on_c, 12, 39, 58
12, 73680, Note_off_c, 12, 39, 64
12, 73680, Note_on_c, 12, 35, 58
12, 73872, Note_off_c, 12, 35, 64
12, 74160, Note_on_c, 12, 40, 58
12, 74400, Note_off_c, 12, 40, 64
12, 74400, Note_on_c, 12, 39, 58
12, 74640, Note_off_c, 12, 39, 64
12, 74640, Note_on_c, 12, 35, 58
12, 74832, Note_off_c, 12, 35, 64
12, 74880, Note_on_c, 12, 40, 58
12, 75072, Note_off_c, 12, 40, 64
12, 75360, Note_on_c, 12, 36, 58
12, 75504, Note_off_c, 12, 36, 64
12, 75600, Note_on_c, 12, 36, 105
12, 75744, Note_off_c, 12, 36, 64
12, 75840, Note_on_c, 12, 36, 105
12, 75924, Note_off_c, 12, 36, 64
12, 75960, Note_on_c, 12, 40, 105
12, 76044, Note_off_c, 12, 40, 64
12, 76080, Note_on_c, 12, 43, 105
12, 76164, Note_off_c, 12, 43, 64
12, 76200, Note_on_c, 12, 48, 105
12, 76284, Note_off_c, 12, 48, 64
12, 76320, Note_on_c, 12, 47, 105
12, 76404, Note_off_c, 12, 47, 64
12, 76440, Note_on_c, 12, 43, 105
12, 76524, Note_off_c, 12, 43, 64
12, 76560, Note_on_c, 12, 45, 105
12, 76644, Note_off_c, 12, 45, 64
12, 76680, Note_on_c, 12, 47, 105
12, 76764, Note_off_c, 12, 47, 64
12, 76800, Note_on_c, 12, 48, 105
12, 76884, Note_off_c, 12, 48, 64
12, 76920, Note_on_c, 12, 48, 105
12, 77004, Note_off_c, 12, 48, 64
12, 77040, Note_on_c, 12, 48, 105
12, 77124, Note_off_c, 12, 48, 64
12, 77160, Note_on_c, 12, 48, 105
12, 77244, Note_off_c, 12, 48, 64
12, 77280, Note_on_c, 12, 48, 105
12, 77364, Note_off_c, 12, 48, 64
12, 77400, Note_on_c, 12, 48, 105
12, 77484, Note_off_c, 12, 48, 64
12, 77520, Note_on_c, 12, 48, 105
12, 77604, Note_off_c, 12, 48, 64
12, 77640, Note_on_c, 12, 48, 105
12, 77724, Note_off_c, 12, 48, 64
12, 77760, Note_on_c, 12, 50, 105
12, 77844, Note_off_c, 12, 50, 64
12, 77880, Note_on_c, 12, 50, 105
12, 77964, Note_off_c, 12, 50, 64
12, 78000, Note_on_c, 12, 50, 105
12, 78084, Note_off_c, 12, 50, 64
12, 78120, Note_on_c, 12, 50, 105
12, 78204, Note_off_c, 12, 50, 64
12, 78240, Note_on_c, 12, 38, 105
12, 78324, Note_off_c, 12, 38, 64
12, 78360, Note_on_c, 12, 38, 105
12, 78444, Note_off_c, 12, 38, 64
12, 78480, Note_on_c, 12, 38, 105
12, 78564, Note_off_c, 12, 38, 64
12, 78600, Note_on_c, 12, 38, 105
12, 78684, Note_off_c, 12, 38, 64
12, 78720, Note_on_c, 12, 43, 105
12, 78804, Note_off_c, 12, 43, 64
12, 78840, Note_on_c, 12, 31, 105
12, 78924, Note_off_c, 12, 31, 64
12, 78960, Note_on_c, 12, 33, 105
12, 79044, Note_off_c, 12, 33, 64
12, 79080, Note_on_c, 12, 35, 105
12, 79164, Note_off_c, 12, 35, 64
12, 79200, Note_on_c, 12, 36, 105
12, 79284, Note_off_c, 12, 36, 64
12, 79320, Note_on_c, 12, 40, 105
12, 79404, Note_off_c, 12, 40, 64
12, 79440, Note_on_c, 12, 38, 105
12, 79524, Note_off_c, 12, 38, 64
12, 79560, Note_on_c, 12, 42, 105
12, 79644, Note_off_c, 12, 42, 64
12, 79680, Note_on_c, 12, 40, 105
12, 79764, Note_off_c, 12, 40, 64
12, 79800, Note_on_c, 12, 43, 105
12, 79884, Note_off_c, 12, 43, 64
12, 79920, Note_on_c, 12, 42, 105
12, 80004, Note_off_c, 12, 42, 64
12, 80040, Note_on_c, 12, 45, 105
12, 80124, Note_off_c, 12, 45, 64
12, 80160, Note_on_c, 12, 43, 105
12, 80244, Note_off_c, 12, 43, 64
12, 80280, Note_on_c, 12, 47, 105
12, 80364, Note_off_c, 12, 47, 64
12, 80400, Note_on_c, 12, 45, 105
12, 80484, Note_off_c, 12, 45, 64
12, 80520, Note_on_c, 12, 48, 105
12, 80604, Note_off_c, 12, 48, 64
12, 80640, Note_on_c, 12, 47, 105
12, 80724, Note_off_c, 12, 47, 64
12, 80760, Note_on_c, 12, 50, 105
12, 80844, Note_off_c, 12, 50, 64
12, 80880, Note_on_c, 12, 47, 105
12, 80964, Note_off_c, 12, 47, 64
12, 81000, Note_on_c, 12, 43, 105
12, 81084, Note_off_c, 12, 43, 64
12, 81120, Note_on_c, 12, 48, 105
12, 81204, Note_off_c, 12, 48, 64
12, 81240, Note_on_c, 12, 45, 105
12, 81324, Note_off_c, 12, 45, 64
12, 81360, Note_on_c, 12, 42, 105
12, 81444, Note_off_c, 12, 42, 64
12, 81480, Note_on_c, 12, 38, 105
12, 81564, Note_off_c, 12, 38, 64
12, 81600, Note_on_c, 12, 43, 105
12, 81684, Note_off_c, 12, 43, 64
12, 81720, Note_on_c, 12, 43, 105
12, 81804, Note_off_c, 12, 43, 64
12, 81840, Note_on_c, 12, 40, 105
12, 81924, Note_off_c, 12, 40, 64
12, 81960, Note_on_c, 12, 40, 105
12, 82044, Note_off_c, 12, 40, 64
12, 82080, Note_on_c, 12, 36, 105
12, 82164, Note_off_c, 12, 36, 64
12, 82200, Note_on_c, 12, 36, 105
12, 82284, Note_off_c, 12, 36, 64
12, 82320, Note_on_c, 12, 38, 105
12, 82404, Note_off_c, 12, 38, 64
12, 82440, Note_on_c, 12, 38, 105
12, 82524, Note_off_c, 12, 38, 64
12, 82560, Note_on_c, 12, 31, 105
12, 82644, Note_off_c, 12, 31, 64
12, 82680, Note_on_c, 12, 43, 105
12, 82764, Note_off_c, 12, 43, 64
12, 82800, Note_on_c, 12, 45, 105
12, 82884, Note_off_c, 12, 45, 64
12, 82920, Note_on_c, 12, 47, 105
12, 83004, Note_off_c, 12, 47, 64
12, 83040, Note_on_c, 12, 48, 105
12, 83124, Note_off_c, 12, 48, 64
12, 83160, Note_on_c, 12, 45, 105
12, 83244, Note_off_c, 12, 45, 64
12, 83280, Note_on_c, 12, 50, 105
12, 83364, Note_off_c, 12, 50, 64
12, 83400, Note_on_c, 12, 48, 105
12, 83484, Note_off_c, 12, 48, 64
12, 83520, Note_on_c, 12, 47, 105
12, 83604, Note_off_c, 12, 47, 64
12, 83640, Note_on_c, 12, 43, 105
12, 83724, Note_off_c, 12, 43, 64
12, 83760, Note_on_c, 12, 42, 105
12, 83844, Note_off_c, 12, 42, 64
12, 83880, Note_on_c, 12, 38, 105
12, 83964, Note_off_c, 12, 38, 64
12, 84000, Note_on_c, 12, 43, 105
12, 84084, Note_off_c, 12, 43, 64
12, 84120, Note_on_c, 12, 38, 105
12, 84204, Note_off_c, 12, 38, 64
12, 84240, Note_on_c, 12, 45, 105
12, 84324, Note_off_c, 12, 45, 64
12, 84360, Note_on_c, 12, 38, 105
12, 84444, Note_off_c, 12, 38, 64
12, 84480, Note_on_c, 12, 47, 105
12, 84564, Note_off_c, 12, 47, 64
12, 84600, Note_on_c, 12, 45, 105
12, 84684, Note_off_c, 12, 45, 64
12, 84720, Note_on_c, 12, 44, 105
12, 84804, Note_off_c, 12, 44, 64
12, 84840, Note_on_c, 12, 40, 105
12, 84924, Note_off_c, 12, 40, 64
12, 84960, Note_on_c, 12, 45, 105
12, 85044, Note_off_c, 12, 45, 64
12, 85080, Note_on_c, 12, 43, 105
12, 85164, Note_off_c, 12, 43, 64
12, 85200, Note_on_c, 12, 42, 105
12, 85284, Note_off_c, 12, 42, 64
12, 85320, Note_on_c, 12, 38, 105
12, 85404, Note_off_c, 12, 38, 64
12, 85440, Note_on_c, 12, 43, 105
12, 85524, Note_off_c, 12, 43, 64
12, 85560, Note_on_c, 12, 43, 105
12, 85644, Note_off_c, 12, 43, 64
12, 85680, Note_on_c, 12, 47, 105
12, 85764, Note_off_c, 12, 47, 64
12, 85800, Note_on_c, 12, 47, 105
12, 85884, Note_off_c, 12, 47, 64
12, 85920, Note_on_c, 12, 48, 105
12, 86004, Note_off_c, 12, 48, 64
12, 86040, Note_on_c, 12, 48, 105
12, 86124, Note_off_c, 12, 48, 64
12, 86160, Note_on_c, 12, 50, 105
12, 86244, Note_off_c, 12, 50, 64
12, 86280, Note_on_c, 12, 50, 105
12, 86364, Note_off_c, 12, 50, 64
12, 86400, Note_on_c, 12, 43, 105
12, 86484, Note_off_c, 12, 43, 64
12, 86520, Note_on_c, 12, 43, 105
12, 86604, Note_off_c, 12, 43, 64
12, 86640, Note_on_c, 12, 43, 105
12, 86724, Note_off_c, 12, 43, 64
12, 86760, Note_on_c, 12, 43, 105
12, 86844, Note_off_c, 12, 43, 64
12, 86880, Note_on_c, 12, 43, 105
12, 87072, Note_off_c, 12, 43, 64
12, 87360, Note_on_c, 12, 40, 105
12, 87444, Note_off_c, 12, 40, 64
12, 87480, Note_on_c, 12, 40, 105
12, 87564, Note_off_c, 12, 40, 64
12, 87600, Note_on_c, 12, 40, 105
12, 87684, Note_off_c, 12, 40, 64
12, 87720, Note_on_c, 12, 40, 105
12, 87804, Note_off_c, 12, 40, 64
12, 87840, Note_on_c, 12, 40, 105
12, 88032, Note_off_c, 12, 40, 64
12, 88320, Note_on_c, 12, 35, 105
12, 88404, Note_off_c, 12, 35, 64
12, 88440, Note_on_c, 12, 35, 105
12, 88524, Note_off_c, 12, 35, 64
12, 88560, Note_on_c, 12, 35, 105
12, 88644, Note_off_c, 12, 35, 64
12, 88680, Note_on_c, 12, 35, 105
12, 88764, Note_off_c, 12, 35, 64
12, 88800, Note_on_c, 12, 35, 105
12, 88992, Note_off_c, 12, 35, 64
12, 89280, Note_on_c, 12, 36, 105
12, 89364, Note_off_c, 12, 36, 64
12, 89400, Note_on_c, 12, 36, 105
12, 89484, Note_off_c, 12, 36, 64
12, 89520, Note_on_c, 12, 36, 105
12, 89604, Note_off_c, 12, 36, 64
12, 89640, Note_on_c, 12, 36, 105
12, 89724, Note_off_c, 12, 36, 64
12, 89760, Note_on_c, 12, 33, 105
12, 89844, Note_off_c, 12, 33, 64
12, 89880, Note_on_c, 12, 33, 105
12, 89964, Note_off_c, 12, 33, 64
12, 90000, Note_on_c, 12, 33, 105
12, 90084, Note_off_c, 12, 33, 64
12, 90120, Note_on_c, 12, 33, 105
12, 90204, Note_off_c, 12, 33, 64
12, 90240, Note_on_c, 12, 30, 105
12, 90384, Note_off_c, 12, 30, 64
12, 90480, Note_on_c, 12, 42, 105
12, 90624, Note_off_c, 12, 42, 64
12, 90960, Note_on_c, 12, 43, 105
12, 91128, Note_off_c, 12, 43, 64
12, 91200, Note_on_c, 12, 45, 105
12, 91368, Note_off_c, 12, 45, 64
12, 91440, Note_on_c, 12, 47, 105
12, 91566, Note_off_c, 12, 47, 64
12, 91620, Note_on_c, 12, 48, 105
12, 91662, Note_off_c, 12, 48, 64
12, 91680, Note_on_c, 12, 50, 105
12, 91848, Note_off_c, 12, 50, 64
12, 91920, Note_on_c, 12, 38, 105
12, 92088, Note_off_c, 12, 38, 64
12, 92160, Note_on_c, 12, 43, 105
12, 92244, Note_off_c, 12, 43, 64
12, 92280, Note_on_c, 12, 43, 105
12, 92364, Note_off_c, 12, 43, 64
12, 92400, Note_on_c, 12, 43, 105
12, 92484, Note_off_c, 12, 43, 64
12, 92520, Note_on_c, 12, 43, 105
12, 92604, Note_off_c, 12, 43, 64
12, 92640, Note_on_c, 12, 43, 105
12, 92832, Note_off_c, 12, 43, 64
12, 93120, Note_on_c, 12, 40, 105
12, 93204, Note_off_c, 12, 40, 64
12, 93240, Note_on_c, 12, 40, 105
12, 93324, Note_off_c, 12, 40, 64
12, 93360, Note_on_c, 12, 40, 105
12, 93444, Note_off_c, 12, 40, 64
12, 93480, Note_on_c, 12, 40, 105
12, 93564, Note_off_c, 12, 40, 64
12, 93600, Note_on_c, 12, 40, 105
12, 93792, Note_off_c, 12, 40, 64
12, 94080, Note_on_c, 12, 35, 105
12, 94164, Note_off_c, 12, 35, 64
12, 94200, Note_on_c, 12, 35, 105
12, 94284, Note_off_c, 12, 35, 64
12, 94320, Note_on_c, 12, 35, 105
12, 94404, Note_off_c, 12, 35, 64
12, 94440, Note_on_c, 12, 35, 105
12, 94524, Note_off_c, 12, 35, 64
12, 94560, Note_on_c, 12, 35, 105
12, 94752, Note_off_c, 12, 35, 64
12, 95040, Note_on_c, 12, 36, 105
12, 95124, Note_off_c, 12, 36, 64
12, 95160, Note_on_c, 12, 36, 105
12, 95244, Note_off_c, 12, 36, 64
12, 95280, Note_on_c, 12, 36, 105
12, 95364, Note_off_c, 12, 36, 64
12, 95400, Note_on_c, 12, 36, 105
12, 95484, Note_off_c, 12, 36, 64
12, 95520, Note_on_c, 12, 33, 105
12, 95604, Note_off_c, 12, 33, 64
12, 95640, Note_on_c, 12, 33, 105
12, 95724, Note_off_c, 12, 33, 64
12, 95760, Note_on_c, 12, 33, 105
12, 95844, Note_off_c, 12, 33, 64
12, 95880, Note_on_c, 12, 33, 105
12, 95964, Note_off_c, 12, 33, 64
12, 96000, Note_on_c, 12, 30, 105
12, 96144, Note_off_c, 12, 30, 64
12, 96240, Note_on_c, 12, 42, 105
12, 96384, Note_off_c, 12, 42, 64
12, 98640, Note_on_c, 12, 39, 58
12, 98880, Note_off_c, 12, 39, 64
12, 98880, Note_on_c, 12, 38, 58
12, 99024, Note_off_c, 12, 38, 64
12, 99120, Note_on_c, 12, 48, 58
12, 99264, Note_off_c, 12, 48, 64
12, 99840, Note_on_c, 12, 42, 58
12, 100320, Note_off_c, 12, 42, 64
12, 100320, Note_on_c, 12, 43, 58
12, 100704, Note_off_c, 12, 43, 64
12, 100800, Note_on_c, 12, 36, 58
12, 101280, Note_off_c, 12, 36, 64
12, 101280, Note_on_c, 12, 38, 58
12, 101664, Note_off_c, 12, 38, 64
12, 101760, Note_on_c, 12, 31, 105
12, 101844, Note_off_c, 12, 31, 64
12, 101880, Note_on_c, 12, 35, 105
12, 101940, Note_off_c, 12, 35, 64
12, 101940, Note_on_c, 12, 38, 105
12, 101982, Note_off_c, 12, 38, 64
12, 102000, Note_on_c, 12, 43, 105
12, 102084, Note_off_c, 12, 43, 64
12, 102120, Note_on_c, 12, 43, 105
12, 102204, Note_off_c, 12, 43, 64
12, 102240, Note_on_c, 12, 43, 105
12, 102324, Note_off_c, 12, 43, 64
12, 102360, Note_on_c, 12, 43, 105
12, 102444, Note_off_c, 12, 43, 64
12, 102480, Note_on_c, 12, 43, 105
12, 102564, Note_off_c, 12, 43, 64
12, 102600, Note_on_c, 12, 43, 105
12, 102684, Note_off_c, 12, 43, 64
12, 102720, Note_on_c, 12, 43, 105
12, 102804, Note_off_c, 12, 43, 64
12, 102840, Note_on_c, 12, 43, 105
12, 102924, Note_off_c, 12, 43, 64
12, 102960, Note_on_c, 12, 43, 105
12, 103044, Note_off_c, 12, 43, 64
12, 103080, Note_on_c, 12, 43, 105
12, 103164, Note_off_c, 12, 43, 64
12, 103200, Note_on_c, 12, 43, 105
12, 103284, Note_off_c, 12, 43, 64
12, 103320, Note_on_c, 12, 43, 105
12, 103404, Note_off_c, 12, 43, 64
12, 103440, Note_on_c, 12, 43, 105
12, 103524, Note_off_c, 12, 43, 64
12, 103560, Note_on_c, 12, 43, 105
12, 103644, Note_off_c, 12, 43, 64
12, 103680, Note_on_c, 12, 43, 105
12, 103764, Note_off_c, 12, 43, 64
12, 103800, Note_on_c, 12, 43, 105
12, 103884, Note_off_c, 12, 43, 64
12, 103920, Note_on_c, 12, 52, 105
12, 104004, Note_off_c, 12, 52, 64
12, 104040, Note_on_c, 12, 52, 105
12, 104124, Note_off_c, 12, 52, 64
12, 104160, Note_on_c, 12, 48, 105
12, 104244, Note_off_c, 12, 48, 64
12, 104280, Note_on_c, 12, 48, 105
12, 104364, Note_off_c, 12, 48, 64
12, 104400, Note_on_c, 12, 50, 105
12, 104484, Note_off_c, 12, 50, 64
12, 104520, Note_on_c, 12, 50, 105
12, 104604, Note_off_c, 12, 50, 64
12, 104640, Note_on_c, 12, 43, 105
12, 104724, Note_off_c, 12, 43, 64
12, 104760, Note_on_c, 12, 38, 105
12, 104800, Note_off_c, 12, 38, 64
12, 104800, Note_on_c, 12, 40, 105
12, 104840, Note_off_c, 12, 40, 64
12, 104840, Note_on_c, 12, 42, 105
12, 104880, Note_off_c, 12, 42, 64
12, 104880, Note_on_c, 12, 43, 105
12, 104964, Note_off_c, 12, 43, 64
12, 105000, Note_on_c, 12, 43, 105
12, 105084, Note_off_c, 12, 43, 64
12, 105120, Note_on_c, 12, 43, 105
12, 105204, Note_off_c, 12, 43, 64
12, 105240, Note_on_c, 12, 43, 105
12, 105324, Note_off_c, 12, 43, 64
12, 105360, Note_on_c, 12, 43, 105
12, 105444, Note_off_c, 12, 43, 64
12, 105480, Note_on_c, 12, 43, 105
12, 105564, Note_off_c, 12, 43, 64
12, 105600, Note_on_c, 12, 43, 105
12, 105684, Note_off_c, 12, 43, 64
12, 105720, Note_on_c, 12, 43, 105
12, 105804, Note_off_c, 12, 43, 64
12, 105840, Note_on_c, 12, 43, 105
12, 105924, Note_off_c, 12, 43, 64
12, 105960, Note_on_c, 12, 43, 105
12, 106044, Note_off_c, 12, 43, 64
12, 106080, Note_on_c, 12, 43, 105
12, 106164, Note_off_c, 12, 43, 64
12, 106200, Note_on_c, 12, 43, 105
12, 106284, Note_off_c, 12, 43, 64
12, 106320, Note_on_c, 12, 43, 105
12, 106404, Note_off_c, 12, 43, 64
12, 106440, Note_on_c, 12, 43, 105
12, 106524, Note_off_c, 12, 43, 64
12, 106560, Note_on_c, 12, 43, 105
12, 106644, Note_off_c, 12, 43, 64
12, 106680, Note_on_c, 12, 43, 105
12, 106764, Note_off_c, 12, 43, 64
12, 106800, Note_on_c, 12, 52, 105
12, 106884, Note_off_c, 12, 52, 64
12, 106920, Note_on_c, 12, 52, 105
12, 107004, Note_off_c, 12, 52, 64
12, 107040, Note_on_c, 12, 48, 105
12, 107124, Note_off_c, 12, 48, 64
12, 107160, Note_on_c, 12, 48, 105
12, 107244, Note_off_c, 12, 48, 64
12, 107280, Note_on_c, 12, 50, 105
12, 107364, Note_off_c, 12, 50, 64
12, 107400, Note_on_c, 12, 50, 105
12, 107484, Note_off_c, 12, 50, 64
12, 107520, Note_on_c, 12, 47, 58
12, 107616, Note_off_c, 12, 47, 64
12, 107760, Note_on_c, 12, 52, 58
12, 107856, Note_off_c, 12, 52, 64
12, 108000, Note_on_c, 12, 48, 58
12, 108096, Note_off_c, 12, 48, 64
12, 108240, Note_on_c, 12, 50, 58
12, 108336, Note_off_c, 12, 50, 64
12, 108480, Note_on_c, 12, 47, 105
12, 108576, Note_off_c, 12, 47, 64
12, 108600, Note_on_c, 12, 47, 105
12, 108696, Note_off_c, 12, 47, 64
12, 108720, Note_on_c, 12, 52, 105
12, 108816, Note_off_c, 12, 52, 64
12, 108840, Note_on_c, 12, 52, 105
12, 108936, Note_off_c, 12, 52, 64
12, 108960, Note_on_c, 12, 48, 105
12, 109056, Note_off_c, 12, 48, 64
12, 109080, Note_on_c, 12, 48, 105
12, 109176, Note_off_c, 12, 48, 64
12, 109200, Note_on_c, 12, 50, 105
12, 109296, Note_off_c, 12, 50, 64
12, 109320, Note_on_c, 12, 50, 105
12, 109416, Note_off_c, 12, 50, 64
12, 109440, Note_on_c, 12, 43, 105
12, 109632, Note_off_c, 12, 43, 64
12, 113280, Note_on_c, 12, 36, 72
12, 113472, Note_off_c, 12, 36, 64
12, 113520, Note_on_c, 12, 36, 72
12, 113712, Note_off_c, 12, 36, 64
12, 113760, Note_on_c, 12, 36, 72
12, 113952, Note_off_c, 12, 36, 64
12, 114000, Note_on_c, 12, 36, 72
12, 114192, Note_off_c, 12, 36, 64
12, 114240, Note_on_c, 12, 36, 72
12, 114432, Note_off_c, 12, 36, 64
12, 114480, Note_on_c, 12, 36, 72
12, 114672, Note_off_c, 12, 36, 64
12, 114720, Note_on_c, 12, 36, 72
12, 114912, Note_off_c, 12, 36, 64
12, 114960, Note_on_c, 12, 36, 72
12, 115152, Note_off_c, 12, 36, 64
12, 115200, Note_on_c, 12, 36, 72
12, 115584, Note_off_c, 12, 36, 64
12, 115920, Note_on_c, 12, 36, 72
12, 116064, Note_off_c, 12, 36, 64
12, 116160, Note_on_c, 12, 41, 72
12, 116304, Note_off_c, 12, 41, 64
12, 116400, Note_on_c, 12, 36, 72
12, 116544, Note_off_c, 12, 36, 64
12, 117120, Note_on_c, 12, 45, 72
12, 118080, Note_off_c, 12, 45, 64
12, 119040, Note_off_c, 12, 43, 64
12, 119040, Note_on_c, 12, 41, 72
12, 119232, Note_off_c, 12, 41, 64
12, 119280, Note_on_c, 12, 38, 72
12, 119520, Note_off_c, 12, 38, 64
12, 119520, Note_on_c, 12, 40, 72
12, 119664, Note_off_c, 12, 40, 64
12, 119760, Note_on_c, 12, 35, 72
12, 119904, Note_off_c, 12, 35, 64
12, 120000, Note_on_c, 12, 36, 72
12, 120480, Note_off_c, 12, 36, 64
12, 120480, Note_on_c, 12, 40, 72
12, 120864, Note_off_c, 12, 40, 64
12, 120960, Note_on_c, 12, 41, 72
12, 121728, Note_off_c, 12, 41, 64
12, 121920, Note_on_c, 12, 43, 58
12, 122496, Note_off_c, 12, 43, 64
12, 122880, Note_on_c, 12, 36, 105
12, 122976, Note_off_c, 12, 36, 64
12, 123000, Note_on_c, 12, 36, 105
12, 123096, Note_off_c, 12, 36, 64
12, 123120, Note_on_c, 12, 36, 105
12, 123216, Note_off_c, 12, 36, 64
12, 123240, Note_on_c, 12, 36, 105
12, 123336, Note_off_c, 12, 36, 64
12, 123360, Note_on_c, 12, 36, 105
12, 123456, Note_off_c, 12, 36, 64
12, 123480, Note_on_c, 12, 36, 105
12, 123576, Note_off_c, 12, 36, 64
12, 123600, Note_on_c, 12, 36, 105
12, 123696, Note_off_c, 12, 36, 64
12, 123720, Note_on_c, 12, 36, 105
12, 123816, Note_off_c, 12, 36, 64
12, 123840, Note_on_c, 12, 36, 105
12, 123936, Note_off_c, 12, 36, 64
12, 123960, Note_on_c, 12, 36, 105
12, 124056, Note_off_c, 12, 36, 64
12, 124080, Note_on_c, 12, 36, 105
12, 124176, Note_off_c, 12, 36, 64
12, 124200, Note_on_c, 12, 36, 105
12, 124296, Note_off_c, 12, 36, 64
12, 124320, Note_on_c, 12, 36, 105
12, 124416, Note_off_c, 12, 36, 64
12, 124440, Note_on_c, 12, 36, 105
12, 124536, Note_off_c, 12, 36, 64
12, 124560, Note_on_c, 12, 36, 105
12, 124656, Note_off_c, 12, 36, 64
12, 124680, Note_on_c, 12, 36, 105
12, 124776, Note_off_c, 12, 36, 64
12, 124800, Note_on_c, 12, 36, 105
12, 125184, Note_off_c, 12, 36, 64
12, 125520, Note_on_c, 12, 36, 105
12, 125688, Note_off_c, 12, 36, 64
12, 125760, Note_on_c, 12, 41, 105
12, 125928, Note_off_c, 12, 41, 64
12, 126000, Note_on_c, 12, 36, 105
12, 126168, Note_off_c, 12, 36, 64
12, 126480, Note_on_c, 12, 36, 105
12, 126648, Note_off_c, 12, 36, 64
12, 126720, Note_on_c, 12, 41, 105
12, 126888, Note_off_c, 12, 41, 64
12, 126960, Note_on_c, 12, 36, 105
12, 127128, Note_off_c, 12, 36, 64
12, 127440, Note_on_c, 12, 36, 105
12, 127608, Note_off_c, 12, 36, 64
12, 127680, Note_on_c, 12, 41, 105
12, 127848, Note_off_c, 12, 41, 64
12, 127920, Note_on_c, 12, 36, 105
12, 128088, Note_off_c, 12, 36, 64
12, 128160, Note_on_c, 12, 41, 105
12, 128328, Note_off_c, 12, 41, 64
12, 128400, Note_on_c, 12, 36, 105
12, 128568, Note_off_c, 12, 36, 64
12, 128640, Note_on_c, 12, 41, 105
12, 128808, Note_off_c, 12, 41, 64
12, 128880, Note_on_c, 12, 36, 105
12, 129048, Note_off_c, 12, 36, 64
12, 129600, Note_on_c, 12, 45, 58
12, 130560, Note_off_c, 12, 45, 64
12, 130560, Note_on_c, 12, 43, 58
12, 131040, Note_off_c, 12, 43, 64
12, 131040, Note_on_c, 12, 36, 58
12, 131520, Note_off_c, 12, 36, 64
12, 131520, Note_on_c, 12, 41, 58
12, 131712, Note_off_c, 12, 41, 64
12, 133440, Note_on_c, 12, 43, 72
12, 133632, Note_off_c, 12, 43, 64
12, 133680, Note_on_c, 12, 43, 72
12, 133872, Note_off_c, 12, 43, 64
12, 133920, Note_on_c, 12, 43, 72
12, 134112, Note_off_c, 12, 43, 64
12, 134160, Note_on_c, 12, 43, 72
12, 134352, Note_off_c, 12, 43, 64
12, 134400, Note_on_c, 12, 36, 105
12, 134484, Note_off_c, 12, 36, 64
12, 134520, Note_on_c, 12, 40, 105
12, 134604, Note_off_c, 12, 40, 64
12, 134640, Note_on_c, 12, 43, 105
12, 134724, Note_off_c, 12, 43, 64
12, 134760, Note_on_c, 12, 48, 105
12, 134844, Note_off_c, 12, 48, 64
12, 134880, Note_on_c, 12, 52, 105
12, 134964, Note_off_c, 12, 52, 64
12, 135000, Note_on_c, 12, 50, 105
12, 135084, Note_off_c, 12, 50, 64
12, 135120, Note_on_c, 12, 52, 105
12, 135204, Note_off_c, 12, 52, 64
12, 135240, Note_on_c, 12, 48, 105
12, 135324, Note_off_c, 12, 48, 64
12, 135360, Note_on_c, 12, 47, 105
12, 135444, Note_off_c, 12, 47, 64
12, 135480, Note_on_c, 12, 48, 105
12, 135564, Note_off_c, 12, 48, 64
12, 135600, Note_on_c, 12, 50, 105
12, 135684, Note_off_c, 12, 50, 64
12, 135720, Note_on_c, 12, 48, 105
12, 135804, Note_off_c, 12, 48, 64
12, 135840, Note_on_c, 12, 47, 105
12, 135924, Note_off_c, 12, 47, 64
12, 135960, Note_on_c, 12, 45, 105
12, 136044, Note_off_c, 12, 45, 64
12, 136080, Note_on_c, 12, 43, 105
12, 136164, Note_off_c, 12, 43, 64
12, 136200, Note_on_c, 12, 41, 105
12, 136284, Note_off_c, 12, 41, 64
12, 136320, Note_on_c, 12, 40, 105
12, 136404, Note_off_c, 12, 40, 64
12, 136440, Note_on_c, 12, 41, 105
12, 136524, Note_off_c, 12, 41, 64
12, 136560, Note_on_c, 12, 43, 105
12, 136644, Note_off_c, 12, 43, 64
12, 136680, Note_on_c, 12, 40, 105
12, 136764, Note_off_c, 12, 40, 64
12, 136800, Note_on_c, 12, 45, 105
12, 136884, Note_off_c, 12, 45, 64
12, 136920, Note_on_c, 12, 47, 105
12, 137004, Note_off_c, 12, 47, 64
12, 137040, Note_on_c, 12, 48, 105
12, 137124, Note_off_c, 12, 48, 64
12, 137160, Note_on_c, 12, 45, 105
12, 137244, Note_off_c, 12, 45, 64
12, 137280, Note_on_c, 12, 41, 105
12, 137364, Note_off_c, 12, 41, 64
12, 137400, Note_on_c, 12, 38, 105
12, 137484, Note_off_c, 12, 38, 64
12, 137520, Note_on_c, 12, 40, 105
12, 137604, Note_off_c, 12, 40, 64
12, 137640, Note_on_c, 12, 41, 105
12, 137724, Note_off_c, 12, 41, 64
12, 137760, Note_on_c, 12, 43, 105
12, 137844, Note_off_c, 12, 43, 64
12, 137880, Note_on_c, 12, 41, 105
12, 137964, Note_off_c, 12, 41, 64
12, 138000, Note_on_c, 12, 43, 105
12, 138084, Note_off_c, 12, 43, 64
12, 138120, Note_on_c, 12, 31, 105
12, 138204, Note_off_c, 12, 31, 64
12, 138240, Note_on_c, 12, 36, 105
12, 138324, Note_off_c, 12, 36, 64
12, 138360, Note_on_c, 12, 40, 105
12, 138444, Note_off_c, 12, 40, 64
12, 138480, Note_on_c, 12, 43, 105
12, 138564, Note_off_c, 12, 43, 64
12, 138600, Note_on_c, 12, 48, 105
12, 138684, Note_off_c, 12, 48, 64
12, 138720, Note_on_c, 12, 52, 105
12, 138804, Note_off_c, 12, 52, 64
12, 138840, Note_on_c, 12, 50, 105
12, 138924, Note_off_c, 12, 50, 64
12, 138960, Note_on_c, 12, 52, 105
12, 139044, Note_off_c, 12, 52, 64
12, 139080, Note_on_c, 12, 48, 105
12, 139164, Note_off_c, 12, 48, 64
12, 139200, Note_on_c, 12, 47, 105
12, 139284, Note_off_c, 12, 47, 64
12, 139320, Note_on_c, 12, 48, 105
12, 139404, Note_off_c, 12, 48, 64
12, 139440, Note_on_c, 12, 50, 105
12, 139524, Note_off_c, 12, 50, 64
12, 139560, Note_on_c, 12, 48, 105
12, 139644, Note_off_c, 12, 48, 64
12, 139680, Note_on_c, 12, 47, 105
12, 139764, Note_off_c, 12, 47, 64
12, 139800, Note_on_c, 12, 45, 105
12, 139884, Note_off_c, 12, 45, 64
12, 139920, Note_on_c, 12, 43, 105
12, 140004, Note_off_c, 12, 43, 64
12, 140040, Note_on_c, 12, 41, 105
12, 140124, Note_off_c, 12, 41, 64
12, 140160, Note_on_c, 12, 40, 105
12, 140244, Note_off_c, 12, 40, 64
12, 140280, Note_on_c, 12, 41, 105
12, 140364, Note_off_c, 12, 41, 64
12, 140400, Note_on_c, 12, 43, 105
12, 140484, Note_off_c, 12, 43, 64
12, 140520, Note_on_c, 12, 40, 105
12, 140604, Note_off_c, 12, 40, 64
12, 140640, Note_on_c, 12, 45, 105
12, 140724, Note_off_c, 12, 45, 64
12, 140760, Note_on_c, 12, 47, 105
12, 140844, Note_off_c, 12, 47, 64
12, 140880, Note_on_c, 12, 48, 105
12, 140964, Note_off_c, 12, 48, 64
12, 141000, Note_on_c, 12, 45, 105
12, 141084, Note_off_c, 12, 45, 64
12, 141120, Note_on_c, 12, 42, 105
12, 141204, Note_off_c, 12, 42, 64
12, 141240, Note_on_c, 12, 43, 105
12, 141324, Note_off_c, 12, 43, 64
12, 141360, Note_on_c, 12, 45, 105
12, 141444, Note_off_c, 12, 45, 64
12, 141480, Note_on_c, 12, 43, 105
12, 141564, Note_off_c, 12, 43, 64
12, 141600, Note_on_c, 12, 42, 105
12, 141684, Note_off_c, 12, 42, 64
12, 141720, Note_on_c, 12, 38, 105
12, 141804, Note_off_c, 12, 38, 64
12, 141840, Note_on_c, 12, 40, 105
12, 141924, Note_off_c, 12, 40, 64
12, 141960, Note_on_c, 12, 42, 105
12, 142044, Note_off_c, 12, 42, 64
12, 142080, Note_on_c, 12, 43, 105
12, 142164, Note_off_c, 12, 43, 64
12, 142200, Note_on_c, 12, 45, 105
12, 142284, Note_off_c, 12, 45, 64
12, 142320, Note_on_c, 12, 47, 105
12, 142404, Note_off_c, 12, 47, 64
12, 142440, Note_on_c, 12, 45, 105
12, 142524, Note_off_c, 12, 45, 64
12, 142560, Note_on_c, 12, 44, 105
12, 142644, Note_off_c, 12, 44, 64
12, 142680, Note_on_c, 12, 45, 105
12, 142764, Note_off_c, 12, 45, 64
12, 142800, Note_on_c, 12, 42, 105
12, 142884, Note_off_c, 12, 42, 64
12, 142920, Note_on_c, 12, 44, 105
12, 143004, Note_off_c, 12, 44, 64
12, 143040, Note_on_c, 12, 45, 105
12, 143124, Note_off_c, 12, 45, 64
12, 143160, Note_on_c, 12, 47, 105
12, 143244, Note_off_c, 12, 47, 64
12, 143280, Note_on_c, 12, 48, 105
12, 143364, Note_off_c, 12, 48, 64
12, 143400, Note_on_c, 12, 47, 105
12, 143484, Note_off_c, 12, 47, 64
12, 143520, Note_on_c, 12, 45, 105
12, 143604, Note_off_c, 12, 45, 64
12, 143640, Note_on_c, 12, 47, 105
12, 143724, Note_off_c, 12, 47, 64
12, 143760, Note_on_c, 12, 43, 105
12, 143844, Note_off_c, 12, 43, 64
12, 143880, Note_on_c, 12, 45, 105
12, 143964, Note_off_c, 12, 45, 64
12, 144000, Note_on_c, 12, 42, 105
12, 144084, Note_off_c, 12, 42, 64
12, 144120, Note_on_c, 12, 43, 105
12, 144204, Note_off_c, 12, 43, 64
12, 144240, Note_on_c, 12, 45, 105
12, 144324, Note_off_c, 12, 45, 64
12, 144360, Note_on_c, 12, 43, 105
12, 144444, Note_off_c, 12, 43, 64
12, 144480, Note_on_c, 12, 42, 105
12, 144564, Note_off_c, 12, 42, 64
12, 144600, Note_on_c, 12, 38, 105
12, 144684, Note_off_c, 12, 38, 64
12, 144720, Note_on_c, 12, 40, 105
12, 144804, Note_off_c, 12, 40, 64
12, 144840, Note_on_c, 12, 42, 105
12, 144924, Note_off_c, 12, 42, 64
12, 144960, Note_on_c, 12, 43, 105
12, 145044, Note_off_c, 12, 43, 64
12, 145080, Note_on_c, 12, 47, 105
12, 145164, Note_off_c, 12, 47, 64
12, 145200, Note_on_c, 12, 50, 105
12, 145284, Note_off_c, 12, 50, 64
12, 145320, Note_on_c, 12, 50, 105
12, 145404, Note_off_c, 12, 50, 64
12, 145440, Note_on_c, 12, 50, 105
12, 145524, Note_off_c, 12, 50, 64
12, 145560, Note_on_c, 12, 50, 105
12, 145644, Note_off_c, 12, 50, 64
12, 145680, Note_on_c, 12, 47, 105
12, 145764, Note_off_c, 12, 47, 64
12, 145800, Note_on_c, 12, 43, 105
12, 145884, Note_off_c, 12, 43, 64
12, 145920, Note_on_c, 12, 48, 105
12, 146004, Note_off_c, 12, 48, 64
12, 146040, Note_on_c, 12, 45, 105
12, 146124, Note_off_c, 12, 45, 64
12, 146160, Note_on_c, 12, 47, 105
12, 146244, Note_off_c, 12, 47, 64
12, 146280, Note_on_c, 12, 43, 105
12, 146364, Note_off_c, 12, 43, 64
12, 146400, Note_on_c, 12, 42, 105
12, 146484, Note_off_c, 12, 42, 64
12, 146520, Note_on_c, 12, 45, 105
12, 146604, Note_off_c, 12, 45, 64
12, 146640, Note_on_c, 12, 42, 105
12, 146724, Note_off_c, 12, 42, 64
12, 146760, Note_on_c, 12, 38, 105
12, 146844, Note_off_c, 12, 38, 64
12, 146880, Note_on_c, 12, 43, 105
12, 146964, Note_off_c, 12, 43, 64
12, 147000, Note_on_c, 12, 47, 105
12, 147084, Note_off_c, 12, 47, 64
12, 147120, Note_on_c, 12, 50, 105
12, 147204, Note_off_c, 12, 50, 64
12, 147240, Note_on_c, 12, 50, 105
12, 147324, Note_off_c, 12, 50, 64
12, 147360, Note_on_c, 12, 50, 105
12, 147444, Note_off_c, 12, 50, 64
12, 147480, Note_on_c, 12, 50, 105
12, 147564, Note_off_c, 12, 50, 64
12, 147600, Note_on_c, 12, 47, 105
12, 147684, Note_off_c, 12, 47, 64
12, 147720, Note_on_c, 12, 43, 105
12, 147804, Note_off_c, 12, 43, 64
12, 147840, Note_on_c, 12, 48, 105
12, 147924, Note_off_c, 12, 48, 64
12, 147960, Note_on_c, 12, 45, 105
12, 148044, Note_off_c, 12, 45, 64
12, 148080, Note_on_c, 12, 47, 105
12, 148164, Note_off_c, 12, 47, 64
12, 148200, Note_on_c, 12, 43, 105
12, 148284, Note_off_c, 12, 43, 64
12, 148320, Note_on_c, 12, 42, 105
12, 148404, Note_off_c, 12, 42, 64
12, 148440, Note_on_c, 12, 45, 105
12, 148524, Note_off_c, 12, 45, 64
12, 148560, Note_on_c, 12, 42, 105
12, 148644, Note_off_c, 12, 42, 64
12, 148680, Note_on_c, 12, 38, 105
12, 148764, Note_off_c, 12, 38, 64
12, 148800, Note_on_c, 12, 43, 105
12, 148884, Note_off_c, 12, 43, 64
12, 148920, Note_on_c, 12, 45, 105
12, 149004, Note_off_c, 12, 45, 64
12, 149040, Note_on_c, 12, 42, 105
12, 149124, Note_off_c, 12, 42, 64
12, 149160, Note_on_c, 12, 43, 105
12, 149244, Note_off_c, 12, 43, 64
12, 149280, Note_on_c, 12, 40, 105
12, 149364, Note_off_c, 12, 40, 64
12, 149400, Note_on_c, 12, 41, 105
12, 149484, Note_off_c, 12, 41, 64
12, 149520, Note_on_c, 12, 38, 105
12, 149604, Note_off_c, 12, 38, 64
12, 149640, Note_on_c, 12, 40, 105
12, 149724, Note_off_c, 12, 40, 64
12, 149760, Note_on_c, 12, 36, 110
12, 149844, Note_off_c, 12, 36, 64
12, 149880, Note_on_c, 12, 48, 72
12, 149964, Note_off_c, 12, 48, 64
12, 150000, Note_on_c, 12, 48, 72
12, 150084, Note_off_c, 12, 48, 64
12, 150120, Note_on_c, 12, 48, 72
12, 150204, Note_off_c, 12, 48, 64
12, 150240, Note_on_c, 12, 38, 72
12, 150324, Note_off_c, 12, 38, 64
12, 150360, Note_on_c, 12, 50, 72
12, 150444, Note_off_c, 12, 50, 64
12, 150480, Note_on_c, 12, 50, 72
12, 150564, Note_off_c, 12, 50, 64
12, 150600, Note_on_c, 12, 50, 72
12, 150684, Note_off_c, 12, 50, 64
12, 150720, Note_on_c, 12, 36, 110
12, 150804, Note_off_c, 12, 36, 64
12, 150840, Note_on_c, 12, 48, 72
12, 150924, Note_off_c, 12, 48, 64
12, 150960, Note_on_c, 12, 48, 72
12, 151044, Note_off_c, 12, 48, 64
12, 151080, Note_on_c, 12, 48, 72
12, 151164, Note_off_c, 12, 48, 64
12, 151200, Note_on_c, 12, 38, 72
12, 151284, Note_off_c, 12, 38, 64
12, 151320, Note_on_c, 12, 50, 72
12, 151404, Note_off_c, 12, 50, 64
12, 151440, Note_on_c, 12, 50, 72
12, 151524, Note_off_c, 12, 50, 64
12, 151560, Note_on_c, 12, 50, 72
12, 151644, Note_off_c, 12, 50, 64
12, 151680, Note_on_c, 12, 48, 105
12, 151752, Note_off_c, 12, 48, 64
12, 151800, Note_on_c, 12, 47, 105
12, 151872, Note_off_c, 12, 47, 64
12, 151920, Note_on_c, 12, 48, 105
12, 151992, Note_off_c, 12, 48, 64
12, 152040, Note_on_c, 12, 47, 105
12, 152112, Note_off_c, 12, 47, 64
12, 152160, Note_on_c, 12, 48, 105
12, 152232, Note_off_c, 12, 48, 64
12, 152280, Note_on_c, 12, 47, 105
12, 152352, Note_off_c, 12, 47, 64
12, 152400, Note_on_c, 12, 48, 105
12, 152472, Note_off_c, 12, 48, 64
12, 152520, Note_on_c, 12, 44, 105
12, 152592, Note_off_c, 12, 44, 64
12, 152640, Note_on_c, 12, 45, 105
12, 152712, Note_off_c, 12, 45, 64
12, 152760, Note_on_c, 12, 44, 105
12, 152832, Note_off_c, 12, 44, 64
12, 152880, Note_on_c, 12, 45, 105
12, 152952, Note_off_c, 12, 45, 64
12, 153000, Note_on_c, 12, 44, 105
12, 153072, Note_off_c, 12, 44, 64
12, 153120, Note_on_c, 12, 45, 105
12, 153192, Note_off_c, 12, 45, 64
12, 153240, Note_on_c, 12, 44, 105
12, 153312, Note_off_c, 12, 44, 64
12, 153360, Note_on_c, 12, 45, 105
12, 153432, Note_off_c, 12, 45, 64
12, 153480, Note_on_c, 12, 47, 105
12, 153552, Note_off_c, 12, 47, 64
12, 153600, Note_on_c, 12, 48, 105
12, 153792, Note_off_c, 12, 48, 64
12, 155520, Note_on_c, 12, 37, 58
12, 156480, Note_off_c, 12, 37, 64
12, 156480, Note_on_c, 12, 40, 58
12, 157248, Note_off_c, 12, 40, 64
12, 157440, Note_on_c, 12, 38, 72
12, 157632, Note_off_c, 12, 38, 64
12, 157920, Note_on_c, 12, 43, 72
12, 158112, Note_off_c, 12, 43, 64
12, 158400, Note_on_c, 12, 38, 72
12, 158592, Note_off_c, 12, 38, 64
12, 158880, Note_on_c, 12, 31, 72
12, 159072, Note_off_c, 12, 31, 64
12, 159360, Note_on_c, 12, 36, 58
12, 159744, Note_off_c, 12, 36, 64
12, 159840, Note_on_c, 12, 35, 58
12, 160224, Note_off_c, 12, 35, 64
12, 160320, Note_on_c, 12, 36, 58
12, 160704, Note_off_c, 12, 36, 64
12, 160800, Note_on_c, 12, 35, 58
12, 160992, Note_off_c, 12, 35, 64
12, 161280, Note_on_c, 12, 35, 58
12, 161472, Note_off_c, 12, 35, 64
12, 161760, Note_on_c, 12, 38, 58
12, 161952, Note_off_c, 12, 38, 64
12, 162240, Note_on_c, 12, 31, 58
12, 162432, Note_off_c, 12, 31, 64
12, 162720, Note_on_c, 12, 40, 58
12, 162864, Note_off_c, 12, 40, 64
12, 162960, Note_on_c, 12, 40, 105
12, 163104, Note_off_c, 12, 40, 64
12, 163200, Note_on_c, 12, 40, 105
12, 163284, Note_off_c, 12, 40, 64
12, 163320, Note_on_c, 12, 42, 105
12, 163404, Note_off_c, 12, 42, 64
12, 163440, Note_on_c, 12, 43, 105
12, 163524, Note_off_c, 12, 43, 64
12, 163560, Note_on_c, 12, 40, 105
12, 163644, Note_off_c, 12, 40, 64
12, 163680, Note_on_c, 12, 39, 105
12, 163764, Note_off_c, 12, 39, 64
12, 163800, Note_on_c, 12, 35, 105
12, 163884, Note_off_c, 12, 35, 64
12, 163920, Note_on_c, 12, 37, 105
12, 164004, Note_off_c, 12, 37, 64
12, 164040, Note_on_c, 12, 39, 105
12, 164124, Note_off_c, 12, 39, 64
12, 164160, Note_on_c, 12, 40, 105
12, 164244, Note_off_c, 12, 40, 64
12, 164280, Note_on_c, 12, 42, 105
12, 164364, Note_off_c, 12, 42, 64
12, 164400, Note_on_c, 12, 43, 105
12, 164484, Note_off_c, 12, 43, 64
12, 164520, Note_on_c, 12, 40, 105
12, 164604, Note_off_c, 12, 40, 64
12, 164640, Note_on_c, 12, 39, 105
12, 164724, Note_off_c, 12, 39, 64
12, 164760, Note_on_c, 12, 35, 105
12, 164844, Note_off_c, 12, 35, 64
12, 164880, Note_on_c, 12, 37, 105
12, 164964, Note_off_c, 12, 37, 64
12, 165000, Note_on_c, 12, 39, 105
12, 165084, Note_off_c, 12, 39, 64
12, 165120, Note_on_c, 12, 40, 105
12, 165204, Note_off_c, 12, 40, 64
12, 165240, Note_on_c, 12, 42, 105
12, 165324, Note_off_c, 12, 42, 64
12, 165360, Note_on_c, 12, 43, 105
12, 165444, Note_off_c, 12, 43, 64
12, 165480, Note_on_c, 12, 40, 105
12, 165564, Note_off_c, 12, 40, 64
12, 165600, Note_on_c, 12, 39, 105
12, 165684, Note_off_c, 12, 39, 64
12, 165720, Note_on_c, 12, 35, 105
12, 165804, Note_off_c, 12, 35, 64
12, 165840, Note_on_c, 12, 37, 105
12, 165924, Note_off_c, 12, 37, 64
12, 165960, Note_on_c, 12, 39, 105
12, 166044, Note_off_c, 12, 39, 64
12, 166080, Note_on_c, 12, 40, 105
12, 166272, Note_off_c, 12, 40, 64
12, 168480, Note_on_c, 12, 48, 72
12, 168672, Note_off_c, 12, 48, 64
12, 168960, Note_on_c, 12, 50, 72
12, 169152, Note_off_c, 12, 50, 64
12, 169440, Note_on_c, 12, 38, 72
12, 169632, Note_off_c, 12, 38, 64
12, 169920, Note_on_c, 12, 43, 58
12, 170112, Note_off_c, 12, 43, 64
12, 171120, Note_on_c, 12, 40, 58
12, 171360, Note_off_c, 12, 40, 64
12, 171360, Note_on_c, 12, 39, 58
12, 171600, Note_off_c, 12, 39, 64
12, 171600, Note_on_c, 12, 35, 58
12, 171792, Note_off_c, 12, 35, 64
12, 172080, Note_on_c, 12, 40, 58
12, 172320, Note_off_c, 12, 40, 64
12, 172320, Note_on_c, 12, 39, 58
12, 172560, Note_off_c, 12, 39, 64
12, 172560, Note_on_c, 12, 35, 58
12, 172752, Note_off_c, 12, 35, 64
12, 173040, Note_on_c, 12, 40, 58
12, 173280, Note_off_c, 12, 40, 64
12, 173280, Note_on_c, 12, 39, 58
12, 173520, Note_off_c, 12, 39, 64
12, 173520, Note_on_c, 12, 35, 58
12, 173712, Note_off_c, 12, 35, 64
12, 173760, Note_on_c, 12, 40, 58
12, 173952, Note_off_c, 12, 40, 64
12, 174240, Note_on_c, 12, 36, 58
12, 174384, Note_off_c, 12, 36, 64
12, 174480, Note_on_c, 12, 36, 105
12, 174624, Note_off_c, 12, 36, 64
12, 174720, Note_on_c, 12, 36, 105
12, 174804, Note_off_c, 12, 36, 64
12, 174840, Note_on_c, 12, 40, 105
12, 174924, Note_off_c, 12, 40, 64
12, 174960, Note_on_c, 12, 43, 105
12, 175044, Note_off_c, 12, 43, 64
12, 175080, Note_on_c, 12, 48, 105
12, 175164, Note_off_c, 12, 48, 64
12, 175200, Note_on_c, 12, 47, 105
12, 175284, Note_off_c, 12, 47, 64
12, 175320, Note_on_c, 12, 43, 105
12, 175404, Note_off_c, 12, 43, 64
12, 175440, Note_on_c, 12, 45, 105
12, 175524, Note_off_c, 12, 45, 64
12, 175560, Note_on_c, 12, 47, 105
12, 175644, Note_off_c, 12, 47, 64
12, 175680, Note_on_c, 12, 48, 105
12, 175764, Note_off_c, 12, 48, 64
12, 175800, Note_on_c, 12, 48, 105
12, 175884, Note_off_c, 12, 48, 64
12, 175920, Note_on_c, 12, 48, 105
12, 176004, Note_off_c, 12, 48, 64
12, 176040, Note_on_c, 12, 48, 105
12, 176124, Note_off_c, 12, 48, 64
12, 176160, Note_on_c, 12, 48, 105
12, 176244, Note_off_c, 12, 48, 64
12, 176280, Note_on_c, 12, 48, 105
12, 176364, Note_off_c, 12, 48, 64
12, 176400, Note_on_c, 12, 48, 105
12, 176484, Note_off_c, 12, 48, 64
12, 176520, Note_on_c, 12, 48, 105
12, 176604, Note_off_c, 12, 48, 64
12, 176640, Note_on_c, 12, 50, 105
12, 176724, Note_off_c, 12, 50, 64
12, 176760, Note_on_c, 12, 50, 105
12, 176844, Note_off_c, 12, 50, 64
12, 176880, Note_on_c, 12, 50, 105
12, 176964, Note_off_c, 12, 50, 64
12, 177000, Note_on_c, 12, 50, 105
12, 177084, Note_off_c, 12, 50, 64
12, 177120, Note_on_c, 12, 38, 105
12, 177204, Note_off_c, 12, 38, 64
12, 177240, Note_on_c, 12, 38, 105
12, 177324, Note_off_c, 12, 38, 64
12, 177360, Note_on_c, 12, 38, 105
12, 177444, Note_off_c, 12, 38, 64
12, 177480, Note_on_c, 12, 38, 105
12, 177564, Note_off_c, 12, 38, 64
12, 177600, Note_on_c, 12, 43, 105
12, 177684, Note_off_c, 12, 43, 64
12, 177720, Note_on_c, 12, 31, 105
12, 177804, Note_off_c, 12, 31, 64
12, 177840, Note_on_c, 12, 33, 105
12, 177924, Note_off_c, 12, 33, 64
12, 177960, Note_on_c, 12, 35, 105
12, 178044, Note_off_c, 12, 35, 64
12, 178080, Note_on_c, 12, 36, 105
12, 178164, Note_off_c, 12, 36, 64
12, 178200, Note_on_c, 12, 40, 105
12, 178284, Note_off_c, 12, 40, 64
12, 178320, Note_on_c, 12, 38, 105
12, 178404, Note_off_c, 12, 38, 64
12, 178440, Note_on_c, 12, 42, 105
12, 178524, Note_off_c, 12, 42, 64
12, 178560, Note_on_c, 12, 40, 105
12, 178644, Note_off_c, 12, 40, 64
12, 178680, Note_on_c, 12, 43, 105
12, 178764, Note_off_c, 12, 43, 64
12, 178800, Note_on_c, 12, 42, 105
12, 178884, Note_off_c, 12, 42, 64
12, 178920, Note_on_c, 12, 45, 105
12, 179004, Note_off_c, 12, 45, 64
12, 179040, Note_on_c, 12, 43, 105
12, 179124, Note_off_c, 12, 43, 64
12, 179160, Note_on_c, 12, 47, 105
12, 179244, Note_off_c, 12, 47, 64
12, 179280, Note_on_c, 12, 45, 105
12, 179364, Note_off_c, 12, 45, 64
12, 179400, Note_on_c, 12, 48, 105
12, 179484, Note_off_c, 12, 48, 64
12, 179520, Note_on_c, 12, 47, 105
12, 179604, Note_off_c, 12, 47, 64
12, 179640, Note_on_c, 12, 50, 105
12, 179724, Note_off_c, 12, 50, 64
12, 179760, Note_on_c, 12, 47, 105
12, 179844, Note_off_c, 12, 47, 64
12, 179880, Note_on_c, 12, 43, 105
12, 179964, Note_off_c, 12, 43, 64
12, 180000, Note_on_c, 12, 48, 105
12, 180084, Note_off_c, 12, 48, 64
12, 180120, Note_on_c, 12, 45, 105
12, 180204, Note_off_c, 12, 45, 64
12, 180240, Note_on_c, 12, 42, 105
12, 180324, Note_off_c, 12, 42, 64
12, 180360, Note_on_c, 12, 38, 105
12, 180444, Note_off_c, 12, 38, 64
12, 180480, Note_on_c, 12, 43, 105
12, 180564, Note_off_c, 12, 43, 64
12, 180600, Note_on_c, 12, 43, 105
12, 180684, Note_off_c, 12, 43, 64
12, 180720, Note_on_c, 12, 40, 105
12, 180804, Note_off_c, 12, 40, 64
12, 180840, Note_on_c, 12, 40, 105
12, 180924, Note_off_c, 12, 40, 64
12, 180960, Note_on_c, 12, 36, 105
12, 181044, Note_off_c, 12, 36, 64
12, 181080, Note_on_c, 12, 36, 105
12, 181164, Note_off_c, 12, 36, 64
12, 181200, Note_on_c, 12, 38, 105
12, 181284, Note_off_c, 12, 38, 64
12, 181320, Note_on_c, 12, 38, 105
12, 181404, Note_off_c, 12, 38, 64
12, 181440, Note_on_c, 12, 31, 105
12, 181524, Note_off_c, 12, 31, 64
12, 181560, Note_on_c, 12, 43, 105
12, 181644, Note_off_c, 12, 43, 64
12, 181680, Note_on_c, 12, 45, 105
12, 181764, Note_off_c, 12, 45, 64
12, 181800, Note_on_c, 12, 47, 105
12, 181884, Note_off_c, 12, 47, 64
12, 181920, Note_on_c, 12, 48, 105
12, 182004, Note_off_c, 12, 48, 64
12, 182040, Note_on_c, 12, 45, 105
12, 182124, Note_off_c, 12, 45, 64
12, 182160, Note_on_c, 12, 50, 105
12, 182244, Note_off_c, 12, 50, 64
12, 182280, Note_on_c, 12, 48, 105
12, 182364, Note_off_c, 12, 48, 64
12, 182400, Note_on_c, 12, 47, 105
12, 182484, Note_off_c, 12, 47, 64
12, 182520, Note_on_c, 12, 43, 105
12, 182604, Note_off_c, 12, 43, 64
12, 182640, Note_on_c, 12, 42, 105
12, 182724, Note_off_c, 12, 42, 64
12, 182760, Note_on_c, 12, 38, 105
12, 182844, Note_off_c, 12, 38, 64
12, 182880, Note_on_c, 12, 43, 105
12, 182964, Note_off_c, 12, 43, 64
12, 183000, Note_on_c, 12, 38, 105
12, 183084, Note_off_c, 12, 38, 64
12, 183120, Note_on_c, 12, 45, 105
12, 183204, Note_off_c, 12, 45, 64
12, 183240, Note_on_c, 12, 38, 105
12, 183324, Note_off_c, 12, 38, 64
12, 183360, Note_on_c, 12, 47, 105
12, 183444, Note_off_c, 12, 47, 64
12, 183480, Note_on_c, 12, 45, 105
12, 183564, Note_off_c, 12, 45, 64
12, 183600, Note_on_c, 12, 44, 105
12, 183684, Note_off_c, 12, 44, 64
12, 183720, Note_on_c, 12, 40, 105
12, 183804, Note_off_c, 12, 40, 64
12, 183840, Note_on_c, 12, 45, 105
12, 183924, Note_off_c, 12, 45, 64
12, 183960, Note_on_c, 12, 43, 105
12, 184044, Note_off_c, 12, 43, 64
12, 184080, Note_on_c, 12, 42, 105
12, 184164, Note_off_c, 12, 42, 64
12, 184200, Note_on_c, 12, 38, 105
12, 184284, Note_off_c, 12, 38, 64
12, 184320, Note_on_c, 12, 43, 105
12, 184404, Note_off_c, 12, 43, 64
12, 184440, Note_on_c, 12, 43, 105
12, 184524, Note_off_c, 12, 43, 64
12, 184560, Note_on_c, 12, 47, 105
12, 184644, Note_off_c, 12, 47, 64
12, 184680, Note_on_c, 12, 47, 105
12, 184764, Note_off_c, 12, 47, 64
12, 184800, Note_on_c, 12, 48, 105
12, 184884, Note_off_c, 12, 48, 64
12, 184920, Note_on_c, 12, 48, 105
12, 185004, Note_off_c, 12, 48, 64
12, 185040, Note_on_c, 12, 50, 105
12, 185124, Note_off_c, 12, 50, 64
12, 185160, Note_on_c, 12, 50, 105
12, 185244, Note_off_c, 12, 50, 64
12, 185280, Note_on_c, 12, 43, 105
12, 185364, Note_off_c, 12, 43, 64
12, 185400, Note_on_c, 12, 43, 105
12, 185484, Note_off_c, 12, 43, 64
12, 185520, Note_on_c, 12, 43, 105
12, 185604, Note_off_c, 12, 43, 64
12, 185640, Note_on_c, 12, 43, 105
12, 185724, Note_off_c, 12, 43, 64
12, 185760, Note_on_c, 12, 43, 105
12, 185952, Note_off_c, 12, 43, 64
12, 186240, Note_on_c, 12, 40, 105
12, 186324, Note_off_c, 12, 40, 64
12, 186360, Note_on_c, 12, 40, 105
12, 186444, Note_off_c, 12, 40, 64
12, 186480, Note_on_c, 12, 40, 105
12, 186564, Note_off_c, 12, 40, 64
12, 186600, Note_on_c, 12, 40, 105
12, 186684, Note_off_c, 12, 40, 64
12, 186720, Note_on_c, 12, 40, 105
12, 186912, Note_off_c, 12, 40, 64
12, 187200, Note_on_c, 12, 35, 105
12, 187284, Note_off_c, 12, 35, 64
12, 187320, Note_on_c, 12, 35, 105
12, 187404, Note_off_c, 12, 35, 64
12, 187440, Note_on_c, 12, 35, 105
12, 187524, Note_off_c, 12, 35, 64
12, 187560, Note_on_c, 12, 35, 105
12, 187644, Note_off_c, 12, 35, 64
12, 187680, Note_on_c, 12, 35, 105
12, 187872, Note_off_c, 12, 35, 64
12, 188160, Note_on_c, 12, 36, 105
12, 188244, Note_off_c, 12, 36, 64
12, 188280, Note_on_c, 12, 36, 105
12, 188364, Note_off_c, 12, 36, 64
12, 188400, Note_on_c, 12, 36, 105
12, 188484, Note_off_c, 12, 36, 64
12, 188520, Note_on_c, 12, 36, 105
12, 188604, Note_off_c, 12, 36, 64
12, 188640, Note_on_c, 12, 33, 105
12, 188724, Note_off_c, 12, 33, 64
12, 188760, Note_on_c, 12, 33, 105
12, 188844, Note_off_c, 12, 33, 64
12, 188880, Note_on_c, 12, 33, 105
12, 188964, Note_off_c, 12, 33, 64
12, 189000, Note_on_c, 12, 33, 105
12, 189084, Note_off_c, 12, 33, 64
12, 189120, Note_on_c, 12, 30, 105
12, 189264, Note_off_c, 12, 30, 64
12, 189360, Note_on_c, 12, 42, 105
12, 189504, Note_off_c, 12, 42, 64
12, 189840, Note_on_c, 12, 43, 105
12, 190008, Note_off_c, 12, 43, 64
12, 190080, Note_on_c, 12, 45, 105
12, 190248, Note_off_c, 12, 45, 64
12, 190320, Note_on_c, 12, 47, 105
12, 190446, Note_off_c, 12, 47, 64
12, 190500, Note_on_c, 12, 48, 105
12, 190542, Note_off_c, 12, 48, 64
12, 190560, Note_on_c, 12, 50, 105
12, 190728, Note_off_c, 12, 50, 64
12, 190800, Note_on_c, 12, 38, 105
12, 190968, Note_off_c, 12, 38, 64
12, 191040, Note_on_c, 12, 43, 105
12, 191124, Note_off_c, 12, 43, 64
12, 191160, Note_on_c, 12, 43, 105
12, 191244, Note_off_c, 12, 43, 64
12, 191280, Note_on_c, 12, 43, 105
12, 191364, Note_off_c, 12, 43, 64
12, 191400, Note_on_c, 12, 43, 105
12, 191484, Note_off_c, 12, 43, 64
12, 191520, Note_on_c, 12, 43, 105
12, 191712, Note_off_c, 12, 43, 64
12, 192000, Note_on_c, 12, 40, 105
12, 192084, Note_off_c, 12, 40, 64
12, 192120, Note_on_c, 12, 40, 105
12, 192204, Note_off_c, 12, 40, 64
12, 192240, Note_on_c, 12, 40, 105
12, 192324, Note_off_c, 12, 40, 64
12, 192360, Note_on_c, 12, 40, 105
12, 192444, Note_off_c, 12, 40, 64
12, 192480, Note_on_c, 12, 40, 105
12, 192672, Note_off_c, 12, 40, 64
12, 192960, Note_on_c, 12, 35, 105
12, 193044, Note_off_c, 12, 35, 64
12, 193080, Note_on_c, 12, 35, 105
12, 193164, Note_off_c, 12, 35, 64
12, 193200, Note_on_c, 12, 35, 105
12, 193284, Note_off_c, 12, 35, 64
12, 193320, Note_on_c, 12, 35, 105
12, 193404, Note_off_c, 12, 35, 64
12, 193440, Note_on_c, 12, 35, 105
12, 193632, Note_off_c, 12, 35, 64
12, 193920, Note_on_c, 12, 36, 105
12, 194004, Note_off_c, 12, 36, 64
12, 194040, Note_on_c, 12, 36, 105
12, 194124, Note_off_c, 12, 36, 64
12, 194160, Note_on_c, 12, 36, 105
12, 194244, Note_off_c, 12, 36, 64
12, 194280, Note_on_c, 12, 36, 105
12, 194364, Note_off_c, 12, 36, 64
12, 194400, Note_on_c, 12, 33, 105
12, 194484, Note_off_c, 12, 33, 64
12, 194520, Note_on_c, 12, 33, 105
12, 194604, Note_off_c, 12, 33, 64
12, 194640, Note_on_c, 12, 33, 105
12, 194724, Note_off_c, 12, 33, 64
12, 194760, Note_on_c, 12, 33, 105
12, 194844, Note_off_c, 12, 33, 64
12, 194880, Note_on_c, 12, 30, 105
12, 195024, Note_off_c, 12, 30, 64
12, 195120, Note_on_c, 12, 42, 105
12, 195264, Note_off_c, 12, 42, 64
12, 197520, Note_on_c, 12, 39, 58
12, 197760, Note_off_c, 12, 39, 64
12, 197760, Note_on_c, 12, 38, 58
12, 197904, Note_off_c, 12, 38, 64
12, 198000, Note_on_c, 12, 48, 58
12, 198144, Note_off_c, 12, 48, 64
12, 198720, Note_on_c, 12, 42, 58
12, 199200, Note_off_c, 12, 42, 64
12, 199200, Note_on_c, 12, 43, 58
12, 199584, Note_off_c, 12, 43, 64
12, 199680, Note_on_c, 12, 36, 58
12, 200160, Note_off_c, 12, 36, 64
12, 200160, Note_on_c, 12, 38, 58
12, 200544, Note_off_c, 12, 38, 64
12, 200640, Note_on_c, 12, 31, 105
12, 200724, Note_off_c, 12, 31, 64
12, 200760, Note_on_c, 12, 35, 105
12, 200820, Note_off_c, 12, 35, 64
12, 200820, Note_on_c, 12, 38, 105
12, 200862, Note_off_c, 12, 38, 64
12, 200880, Note_on_c, 12, 43, 105
12, 200964, Note_off_c, 12, 43, 64
12, 201000, Note_on_c, 12, 43, 105
12, 201084, Note_off_c, 12, 43, 64
12, 201120, Note_on_c, 12, 43, 105
12, 201204, Note_off_c, 12, 43, 64
12, 201240, Note_on_c, 12, 43, 105
12, 201324, Note_off_c, 12, 43, 64
12, 201360, Note_on_c, 12, 43, 105
12, 201444, Note_off_c, 12, 43, 64
12, 201480, Note_on_c, 12, 43, 105
12, 201564, Note_off_c, 12, 43, 64
12, 201600, Note_on_c, 12, 43, 105
12, 201684, Note_off_c, 12, 43, 64
12, 201720, Note_on_c, 12, 43, 105
12, 201804, Note_off_c, 12, 43, 64
12, 201840, Note_on_c, 12, 43, 105
12, 201924, Note_off_c, 12, 43, 64
12, 201960, Note_on_c, 12, 43, 105
12, 202044, Note_off_c, 12, 43, 64
12, 202080, Note_on_c, 12, 43, 105
12, 202164, Note_off_c, 12, 43, 64
12, 202200, Note_on_c, 12, 43, 105
12, 202284, Note_off_c, 12, 43, 64
12, 202320, Note_on_c, 12, 43, 105
12, 202404, Note_off_c, 12, 43, 64
12, 202440, Note_on_c, 12, 43, 105
12, 202524, Note_off_c, 12, 43, 64
12, 202560, Note_on_c, 12, 43, 105
12, 202644, Note_off_c, 12, 43, 64
12, 202680, Note_on_c, 12, 43, 105
12, 202764, Note_off_c, 12, 43, 64
12, 202800, Note_on_c, 12, 52, 105
12, 202884, Note_off_c, 12, 52, 64
12, 202920, Note_on_c, 12, 52, 105
12, 203004, Note_off_c, 12, 52, 64
12, 203040, Note_on_c, 12, 48, 105
12, 203124, Note_off_c, 12, 48, 64
12, 203160, Note_on_c, 12, 48, 105
12, 203244, Note_off_c, 12, 48, 64
12, 203280, Note_on_c, 12, 50, 105
12, 203364, Note_off_c, 12, 50, 64
12, 203400, Note_on_c, 12, 50, 105
12, 203484, Note_off_c, 12, 50, 64
12, 203520, Note_on_c, 12, 43, 105
12, 203604, Note_off_c, 12, 43, 64
12, 203640, Note_on_c, 12, 38, 105
12, 203680, Note_off_c, 12, 38, 64
12, 203680, Note_on_c, 12, 40, 105
12, 203720, Note_off_c, 12, 40, 64
12, 203720, Note_on_c, 12, 42, 105
12, 203760, Note_off_c, 12, 42, 64
12, 203760, Note_on_c, 12, 43, 105
12, 203844, Note_off_c, 12, 43, 64
12, 203880, Note_on_c, 12, 43, 105
12, 203964, Note_off_c, 12, 43, 64
12, 204000, Note_on_c, 12, 43, 105
12, 204084, Note_off_c, 12, 43, 64
12, 204120, Note_on_c, 12, 43, 105
12, 204204, Note_off_c, 12, 43, 64
12, 204240, Note_on_c, 12, 43, 105
12, 204324, Note_off_c, 12, 43, 64
12, 204360, Note_on_c, 12, 43, 105
12, 204444, Note_off_c, 12, 43, 64
12, 204480, Note_on_c, 12, 43, 105
12, 204564, Note_off_c, 12, 43, 64
12, 204600, Note_on_c, 12, 43, 105
12, 204684, Note_off_c, 12, 43, 64
12, 204720, Note_on_c, 12, 43, 105
12, 204804, Note_off_c, 12, 43, 64
12, 204840, Note_on_c, 12, 43, 105
12, 204924, Note_off_c, 12, 43, 64
12, 204960, Note_on_c, 12, 43, 105
12, 205044, Note_off_c, 12, 43, 64
12, 205080, Note_on_c, 12, 43, 105
12, 205164, Note_off_c, 12, 43, 64
12, 205200, Note_on_c, 12, 43, 105
12, 205284, Note_off_c, 12, 43, 64
12, 205320, Note_on_c, 12, 43, 105
12, 205404, Note_off_c, 12, 43, 64
12, 205440, Note_on_c, 12, 43, 105
12, 205524, Note_off_c, 12, 43, 64
12, 205560, Note_on_c, 12, 43, 105
12, 205644, Note_off_c, 12, 43, 64
12, 205680, Note_on_c, 12, 52, 105
12, 205764, Note_off_c, 12, 52, 64
12, 205800, Note_on_c, 12, 52, 105
12, 205884, Note_off_c, 12, 52, 64
12, 205920, Note_on_c, 12, 48, 105
12, 206004, Note_off_c, 12, 48, 64
12, 206040, Note_on_c, 12, 48, 105
12, 206124, Note_off_c, 12, 48, 64
12, 206160, Note_on_c, 12, 50, 105
12, 206244, Note_off_c, 12, 50, 64
12, 206280, Note_on_c, 12, 50, 105
12, 206364, Note_off_c, 12, 50, 64
12, 206400, Note_on_c, 12, 47, 58
12, 206496, Note_off_c, 12, 47, 64
12, 206640, Note_on_c, 12, 52, 58
12, 206736, Note_off_c, 12, 52, 64
12, 206880, Note_on_c, 12, 48, 58
12, 206976, Note_off_c, 12, 48, 64
12, 207120, Note_on_c, 12, 50, 58
12, 207216, Note_off_c, 12, 50, 64
12, 207360, Note_on_c, 12, 47, 105
12, 207456, Note_off_c, 12, 47, 64
12, 207480, Note_on_c, 12, 47, 105
12, 207576, Note_off_c, 12, 47, 64
12, 207600, Note_on_c, 12, 52, 105
12, 207696, Note_off_c, 12, 52, 64
12, 207720, Note_on_c, 12, 52, 105
12, 207816, Note_off_c, 12, 52, 64
12, 207840, Note_on_c, 12, 48, 105
12, 207936, Note_off_c, 12, 48, 64
12, 207960, Note_on_c, 12, 48, 105
12, 208056, Note_off_c, 12, 48, 64
12, 208080, Note_on_c, 12, 50, 105
12, 208176, Note_off_c, 12, 50, 64
12, 208200, Note_on_c, 12, 50, 105
12, 208296, Note_off_c, 12, 50, 64
12, 208320, Note_on_c, 12, 43, 105
12, 208512, Note_off_c, 12, 43, 64
12, 212160, Note_on_c, 12, 40, 58
12, 212352, Note_off_c, 12, 40, 64
12, 212640, Note_on_c, 12, 45, 58
12, 212832, Note_off_c, 12, 45, 64
12, 213120, Note_on_c, 12, 40, 58
12, 213312, Note_off_c, 12, 40, 64
12, 213600, Note_on_c, 12, 33, 58
12, 213792, Note_off_c, 12, 33, 64
12, 214080, Note_on_c, 12, 38, 58
12, 214560, Note_off_c, 12, 38, 64
12, 214560, Note_on_c, 12, 36, 58
12, 214944, Note_off_c, 12, 36, 64
12, 215040, Note_on_c, 12, 38, 58
12, 215520, Note_off_c, 12, 38, 64
12, 215520, Note_on_c, 12, 36, 58
12, 215712, Note_off_c, 12, 36, 64
12, 216000, Note_on_c, 12, 38, 58
12, 216192, Note_off_c, 12, 38, 64
12, 216480, Note_on_c, 12, 40, 58
12, 216672, Note_off_c, 12, 40, 64
12, 216960, Note_on_c, 12, 33, 58
12, 217152, Note_off_c, 12, 33, 64
12, 218880, Note_on_c, 12, 43, 58
12, 220800, Note_off_c, 12, 43, 64
12, 220800, Note_on_c, 12, 41, 58
12, 220992, Note_off_c, 12, 41, 64
12, 223680, Note_on_c, 12, 41, 58
12, 225600, Note_off_c, 12, 41, 64
12, 225600, Note_on_c, 12, 40, 58
12, 225792, Note_off_c, 12, 40, 64
12, 228840, Note_on_c, 12, 31, 105
12, 228936, Note_off_c, 12, 31, 64
12, 228960, Note_on_c, 12, 36, 105
12, 229080, Note_off_c, 12, 36, 64
12, 229080, Note_on_c, 12, 35, 105
12, 229200, Note_off_c, 12, 35, 64
12, 229200, Note_on_c, 12, 38, 105
12, 229320, Note_off_c, 12, 38, 64
12, 229320, Note_on_c, 12, 36, 105
12, 229416, Note_off_c, 12, 36, 64
12, 229440, Note_on_c, 12, 40, 105
12, 229560, Note_off_c, 12, 40, 64
12, 229560, Note_on_c, 12, 38, 105
12, 229680, Note_off_c, 12, 38, 64
12, 229680, Note_on_c, 12, 41, 105
12, 229800, Note_off_c, 12, 41, 64
12, 229800, Note_on_c, 12, 40, 105
12, 229920, Note_off_c, 12, 40, 64
12, 229920, Note_on_c, 12, 45, 105
12, 230040, Note_off_c, 12, 45, 64
12, 230040, Note_on_c, 12, 43, 105
12, 230160, Note_off_c, 12, 43, 64
12, 230160, Note_on_c, 12, 48, 105
12, 230280, Note_off_c, 12, 48, 64
12, 230280, Note_on_c, 12, 46, 105
12, 230376, Note_off_c, 12, 46, 64
12, 230400, Note_on_c, 12, 46, 92
12, 230592, Note_off_c, 12, 46, 64
12, 230880, Note_on_c, 12, 46, 116
12, 231048, Note_off_c, 12, 46, 64
12, 231120, Note_on_c, 12, 46, 116
12, 231204, Note_off_c, 12, 46, 64
12, 231240, Note_on_c, 12, 46, 116
12, 231324, Note_off_c, 12, 46, 64
12, 231360, Note_on_c, 12, 45, 116
12, 231528, Note_off_c, 12, 45, 64
12, 231600, Note_on_c, 12, 45, 116
12, 231684, Note_off_c, 12, 45, 64
12, 231720, Note_on_c, 12, 45, 116
12, 231804, Note_off_c, 12, 45, 64
12, 231840, Note_on_c, 12, 43, 116
12, 232008, Note_off_c, 12, 43, 64
12, 232080, Note_on_c, 12, 43, 116
12, 232164, Note_off_c, 12, 43, 64
12, 232200, Note_on_c, 12, 43, 116
12, 232284, Note_off_c, 12, 43, 64
12, 232320, Note_on_c, 12, 41, 105
12, 232512, Note_off_c, 12, 41, 64
12, 232800, Note_on_c, 12, 41, 105
12, 232992, Note_off_c, 12, 41, 64
12, 233280, Note_on_c, 12, 40, 58
12, 233472, Note_off_c, 12, 40, 64
12, 233760, Note_on_c, 12, 45, 58
12, 233952, Note_off_c, 12, 45, 64
12, 234240, Note_on_c, 12, 38, 58
12, 234432, Note_off_c, 12, 38, 64
12, 234720, Note_on_c, 12, 40, 58
12, 234912, Note_off_c, 12, 40, 64
12, 235200, Note_on_c, 12, 38, 58
12, 235392, Note_off_c, 12, 38, 64
12, 235680, Note_on_c, 12, 43, 58
12, 235872, Note_off_c, 12, 43, 64
12, 236160, Note_on_c, 12, 36, 58
12, 236352, Note_off_c, 12, 36, 64
12, 236640, Note_on_c, 12, 45, 58
12, 236832, Note_off_c, 12, 45, 64
12, 237120, Note_on_c, 12, 43, 58
12, 237312, Note_off_c, 12, 43, 64
12, 237600, Note_on_c, 12, 48, 58
12, 237792, Note_off_c, 12, 48, 64
12, 238080, Note_on_c, 12, 41, 58
12, 238272, Note_off_c, 12, 41, 64
12, 238560, Note_on_c, 12, 43, 58
12, 238752, Note_off_c, 12, 43, 64
12, 239040, Note_on_c, 12, 44, 72
12, 239952, Note_off_c, 12, 44, 64
12, 240000, Note_on_c, 12, 43, 105
12, 240168, Note_off_c, 12, 43, 64
12, 240720, Note_on_c, 12, 43, 105
12, 240888, Note_off_c, 12, 43, 64
12, 240960, Note_on_c, 12, 40, 105
12, 241128, Note_off_c, 12, 40, 64
12, 241680, Note_on_c, 12, 40, 105
12, 241848, Note_off_c, 12, 40, 64
12, 241920, Note_on_c, 12, 35, 105
12, 242088, Note_off_c, 12, 35, 64
12, 242640, Note_on_c, 12, 35, 105
12, 242808, Note_off_c, 12, 35, 64
12, 242880, Note_on_c, 12, 36, 105
12, 243048, Note_off_c, 12, 36, 64
12, 243600, Note_on_c, 12, 36, 105
12, 243768, Note_off_c, 12, 36, 64
12, 243840, Note_on_c, 12, 43, 105
12, 244008, Note_off_c, 12, 43, 64
12, 244080, Note_on_c, 12, 40, 105
12, 244248, Note_off_c, 12, 40, 64
12, 244320, Note_on_c, 12, 35, 105
12, 244488, Note_off_c, 12, 35, 64
12, 244560, Note_on_c, 12, 36, 105
12, 244728, Note_off_c, 12, 36, 64
12, 244800, Note_on_c, 12, 43, 105
12, 244968, Note_off_c, 12, 43, 64
12, 245040, Note_on_c, 12, 40, 105
12, 245208, Note_off_c, 12, 40, 64
12, 245280, Note_on_c, 12, 35, 105
12, 245448, Note_off_c, 12, 35, 64
12, 245520, Note_on_c, 12, 36, 105
12, 245688, Note_off_c, 12, 36, 64
12, 245760, Note_on_c, 12, 31, 105
12, 245952, Note_off_c, 12, 31, 64
12, 250560, Note_on_c, 12, 36, 72
12, 250752, Note_off_c, 12, 36, 64
12, 250800, Note_on_c, 12, 36, 72
12, 250992, Note_off_c, 12, 36, 64
12, 251040, Note_on_c, 12, 36, 72
12, 251232, Note_off_c, 12, 36, 64
12, 251280, Note_on_c, 12, 36, 72
12, 251472, Note_off_c, 12, 36, 64
12, 251520, Note_on_c, 12, 36, 72
12, 251712, Note_off_c, 12, 36, 64
12, 251760, Note_on_c, 12, 36, 72
12, 251952, Note_off_c, 12, 36, 64
12, 252000, Note_on_c, 12, 36, 72
12, 252192, Note_off_c, 12, 36, 64
12, 252240, Note_on_c, 12, 36, 72
12, 252432, Note_off_c, 12, 36, 64
12, 252480, Note_on_c, 12, 36, 72
12, 252864, Note_off_c, 12, 36, 64
12, 253200, Note_on_c, 12, 36, 72
12, 253344, Note_off_c, 12, 36, 64
12, 253440, Note_on_c, 12, 41, 72
12, 253584, Note_off_c, 12, 41, 64
12, 253680, Note_on_c, 12, 36, 72
12, 253824, Note_off_c, 12, 36, 64
12, 254400, Note_on_c, 12, 45, 72
12, 255360, Note_off_c, 12, 45, 64
12, 256320, Note_off_c, 12, 43, 64
12, 256320, Note_on_c, 12, 41, 72
12, 256512, Note_off_c, 12, 41, 64
12, 256560, Note_on_c, 12, 38, 72
12, 256800, Note_off_c, 12, 38, 64
12, 256800, Note_on_c, 12, 40, 72
12, 256944, Note_off_c, 12, 40, 64
12, 257040, Note_on_c, 12, 35, 72
12, 257184, Note_off_c, 12, 35, 64
12, 257280, Note_on_c, 12, 36, 72
12, 257760, Note_off_c, 12, 36, 64
12, 257760, Note_on_c, 12, 40, 72
12, 258144, Note_off_c, 12, 40, 64
12, 258240, Note_on_c, 12, 41, 72
12, 259008, Note_off_c, 12, 41, 64
12, 259200, Note_on_c, 12, 43, 58
12, 259776, Note_off_c, 12, 43, 64
12, 260160, Note_on_c, 12, 36, 105
12, 260256, Note_off_c, 12, 36, 64
12, 260280, Note_on_c, 12, 36, 105
12, 260376, Note_off_c, 12, 36, 64
12, 260400, Note_on_c, 12, 36, 105
12, 260496, Note_off_c, 12, 36, 64
12, 260520, Note_on_c, 12, 36, 105
12, 260616, Note_off_c, 12, 36, 64
12, 260640, Note_on_c, 12, 36, 105
12, 260736, Note_off_c, 12, 36, 64
12, 260760, Note_on_c, 12, 36, 105
12, 260856, Note_off_c, 12, 36, 64
12, 260880, Note_on_c, 12, 36, 105
12, 260976, Note_off_c, 12, 36, 64
12, 261000, Note_on_c, 12, 36, 105
12, 261096, Note_off_c, 12, 36, 64
12, 261120, Note_on_c, 12, 36, 105
12, 261216, Note_off_c, 12, 36, 64
12, 261240, Note_on_c, 12, 36, 105
12, 261336, Note_off_c, 12, 36, 64
12, 261360, Note_on_c, 12, 36, 105
12, 261456, Note_off_c, 12, 36, 64
12, 261480, Note_on_c, 12, 36, 105
12, 261576, Note_off_c, 12, 36, 64
12, 261600, Note_on_c, 12, 36, 105
12, 261696, Note_off_c, 12, 36, 64
12, 261720, Note_on_c, 12, 36, 105
12, 261816, Note_off_c, 12, 36, 64
12, 261840, Note_on_c, 12, 36, 105
12, 261936, Note_off_c, 12, 36, 64
12, 261960, Note_on_c, 12, 36, 105
12, 262056, Note_off_c, 12, 36, 64
12, 262080, Note_on_c, 12, 36, 105
12, 262464, Note_off_c, 12, 36, 64
12, 262800, Note_on_c, 12, 36, 105
12, 262968, Note_off_c, 12, 36, 64
12, 263040, Note_on_c, 12, 41, 105
12, 263208, Note_off_c, 12, 41, 64
12, 263280, Note_on_c, 12, 36, 105
12, 263448, Note_off_c, 12, 36, 64
12, 263760, Note_on_c, 12, 36, 105
12, 263928, Note_off_c, 12, 36, 64
12, 264000, Note_on_c, 12, 41, 105
12, 264168, Note_off_c, 12, 41, 64
12, 264240, Note_on_c, 12, 36, 105
12, 264408, Note_off_c, 12, 36, 64
12, 264720, Note_on_c, 12, 36, 105
12, 264888, Note_off_c, 12, 36, 64
12, 264960, Note_on_c, 12, 41, 105
12, 265128, Note_off_c, 12, 41, 64
12, 265200, Note_on_c, 12, 36, 105
12, 265368, Note_off_c, 12, 36, 64
12, 265440, Note_on_c, 12, 41, 105
12, 265608, Note_off_c, 12, 41, 64
12, 265680, Note_on_c, 12, 36, 105
12, 265848, Note_off_c, 12, 36, 64
12, 265920, Note_on_c, 12, 41, 105
12, 266088, Note_off_c, 12, 41, 64
12, 266160, Note_on_c, 12, 36, 105
12, 266328, Note_off_c, 12, 36, 64
12, 266880, Note_on_c, 12, 45, 58
12, 267840, Note_off_c, 12, 45, 64
12, 267840, Note_on_c, 12, 43, 58
12, 268320, Note_off_c, 12, 43, 64
12, 268320, Note_on_c, 12, 36, 58
12, 268800, Note_off_c, 12, 36, 64
12, 268800, Note_on_c, 12, 41, 58
12, 268992, Note_off_c, 12, 41, 64
12, 270720, Note_on_c, 12, 43, 72
12, 270912, Note_off_c, 12, 43, 64
12, 270960, Note_on_c, 12, 43, 72
12, 271152, Note_off_c, 12, 43, 64
12, 271200, Note_on_c, 12, 43, 72
12, 271392, Note_off_c, 12, 43, 64
12, 271440, Note_on_c, 12, 43, 72
12, 271632, Note_off_c, 12, 43, 64
12, 271680, Note_on_c, 12, 36, 105
12, 271764, Note_off_c, 12, 36, 64
12, 271800, Note_on_c, 12, 40, 105
12, 271884, Note_off_c, 12, 40, 64
12, 271920, Note_on_c, 12, 43, 105
12, 272004, Note_off_c, 12, 43, 64
12, 272040, Note_on_c, 12, 48, 105
12, 272124, Note_off_c, 12, 48, 64
12, 272160, Note_on_c, 12, 52, 105
12, 272244, Note_off_c, 12, 52, 64
12, 272280, Note_on_c, 12, 50, 105
12, 272364, Note_off_c, 12, 50, 64
12, 272400, Note_on_c, 12, 52, 105
12, 272484, Note_off_c, 12, 52, 64
12, 272520, Note_on_c, 12, 48, 105
12, 272604, Note_off_c, 12, 48, 64
12, 272640, Note_on_c, 12, 47, 105
12, 272724, Note_off_c, 12, 47, 64
12, 272760, Note_on_c, 12, 48, 105
12, 272844, Note_off_c, 12, 48, 64
12, 272880, Note_on_c, 12, 50, 105
12, 272964, Note_off_c, 12, 50, 64
12, 273000, Note_on_c, 12, 48, 105
12, 273084, Note_off_c, 12, 48, 64
12, 273120, Note_on_c, 12, 47, 105
12, 273204, Note_off_c, 12, 47, 64
12, 273240, Note_on_c, 12, 45, 105
12, 273324, Note_off_c, 12, 45, 64
12, 273360, Note_on_c, 12, 43, 105
12, 273444, Note_off_c, 12, 43, 64
12, 273480, Note_on_c, 12, 41, 105
12, 273564, Note_off_c, 12, 41, 64
12, 273600, Note_on_c, 12, 40, 105
12, 273684, Note_off_c, 12, 40, 64
12, 273720, Note_on_c, 12, 41, 105
12, 273804, Note_off_c, 12, 41, 64
12, 273840, Note_on_c, 12, 43, 105
12, 273924, Note_off_c, 12, 43, 64
12, 273960, Note_on_c, 12, 40, 105
12, 274044, Note_off_c, 12, 40, 64
12, 274080, Note_on_c, 12, 45, 105
12, 274164, Note_off_c, 12, 45, 64
12, 274200, Note_on_c, 12, 47, 105
12, 274284, Note_off_c, 12, 47, 64
12, 274320, Note_on_c, 12, 48, 105
12, 274404, Note_off_c, 12, 48, 64
12, 274440, Note_on_c, 12, 45, 105
12, 274524, Note_off_c, 12, 45, 64
12, 274560, Note_on_c, 12, 41, 105
12, 274644, Note_off_c, 12, 41, 64
12, 274680, Note_on_c, 12, 38, 105
12, 274764, Note_off_c, 12, 38, 64
12, 274800, Note_on_c, 12, 40, 105
12, 274884, Note_off_c, 12, 40, 64
12, 274920, Note_on_c, 12, 41, 105
12, 275004, Note_off_c, 12, 41, 64
12, 275040, Note_on_c, 12, 43, 105
12, 275124, Note_off_c, 12, 43, 64
12, 275160, Note_on_c, 12, 41, 105
12, 275244, Note_off_c, 12, 41, 64
12, 275280, Note_on_c, 12, 43, 105
12, 275364, Note_off_c, 12, 43, 64
12, 275400, Note_on_c, 12, 31, 105
12, 275484, Note_off_c, 12, 31, 64
12, 275520, Note_on_c, 12, 36, 105
12, 275604, Note_off_c, 12, 36, 64
12, 275640, Note_on_c, 12, 40, 105
12, 275724, Note_off_c, 12, 40, 64
12, 275760, Note_on_c, 12, 43, 105
12, 275844, Note_off_c, 12, 43, 64
12, 275880, Note_on_c, 12, 48, 105
12, 275964, Note_off_c, 12, 48, 64
12, 276000, Note_on_c, 12, 52, 105
12, 276084, Note_off_c, 12, 52, 64
12, 276120, Note_on_c, 12, 50, 105
12, 276204, Note_off_c, 12, 50, 64
12, 276240, Note_on_c, 12, 52, 105
12, 276324, Note_off_c, 12, 52, 64
12, 276360, Note_on_c, 12, 48, 105
12, 276444, Note_off_c, 12, 48, 64
12, 276480, Note_on_c, 12, 47, 105
12, 276564, Note_off_c, 12, 47, 64
12, 276600, Note_on_c, 12, 48, 105
12, 276684, Note_off_c, 12, 48, 64
12, 276720, Note_on_c, 12, 50, 105
12, 276804, Note_off_c, 12, 50, 64
12, 276840, Note_on_c, 12, 48, 105
12, 276924, Note_off_c, 12, 48, 64
12, 276960, Note_on_c, 12, 47, 105
12, 277044, Note_off_c, 12, 47, 64
12, 277080, Note_on_c, 12, 45, 105
12, 277164, Note_off_c, 12, 45, 64
12, 277200, Note_on_c, 12, 43, 105
12, 277284, Note_off_c, 12, 43, 64
12, 277320, Note_on_c, 12, 41, 105
12, 277404, Note_off_c, 12, 41, 64
12, 277440, Note_on_c, 12, 40, 105
12, 277524, Note_off_c, 12, 40, 64
12, 277560, Note_on_c, 12, 41, 105
12, 277644, Note_off_c, 12, 41, 64
12, 277680, Note_on_c, 12, 43, 105
12, 277764, Note_off_c, 12, 43, 64
12, 277800, Note_on_c, 12, 40, 105
12, 277884, Note_off_c, 12, 40, 64
12, 277920, Note_on_c, 12, 45, 105
12, 278004, Note_off_c, 12, 45, 64
12, 278040, Note_on_c, 12, 47, 105
12, 278124, Note_off_c, 12, 47, 64
12, 278160, Note_on_c, 12, 48, 105
12, 278244, Note_off_c, 12, 48, 64
12, 278280, Note_on_c, 12, 45, 105
12, 278364, Note_off_c, 12, 45, 64
12, 278400, Note_on_c, 12, 42, 105
12, 278484, Note_off_c, 12, 42, 64
12, 278520, Note_on_c, 12, 43, 105
12, 278604, Note_off_c, 12, 43, 64
12, 278640, Note_on_c, 12, 45, 105
12, 278724, Note_off_c, 12, 45, 64
12, 278760, Note_on_c, 12, 43, 105
12, 278844, Note_off_c, 12, 43, 64
12, 278880, Note_on_c, 12, 42, 105
12, 278964, Note_off_c, 12, 42, 64
12, 279000, Note_on_c, 12, 38, 105
12, 279084, Note_off_c, 12, 38, 64
12, 279120, Note_on_c, 12, 40, 105
12, 279204, Note_off_c, 12, 40, 64
12, 279240, Note_on_c, 12, 42, 105
12, 279324, Note_off_c, 12, 42, 64
12, 279360, Note_on_c, 12, 43, 105
12, 279444, Note_off_c, 12, 43, 64
12, 279480, Note_on_c, 12, 46, 105
12, 279564, Note_off_c, 12, 46, 64
12, 279600, Note_on_c, 12, 50, 105
12, 279684, Note_off_c, 12, 50, 64
12, 279720, Note_on_c, 12, 48, 105
12, 279804, Note_off_c, 12, 48, 64
12, 279840, Note_on_c, 12, 46, 105
12, 279924, Note_off_c, 12, 46, 64
12, 279960, Note_on_c, 12, 45, 105
12, 280044, Note_off_c, 12, 45, 64
12, 280080, Note_on_c, 12, 43, 105
12, 280164, Note_off_c, 12, 43, 64
12, 280200, Note_on_c, 12, 41, 105
12, 280284, Note_off_c, 12, 41, 64
12, 280320, Note_on_c, 12, 40, 105
12, 280404, Note_off_c, 12, 40, 64
12, 280440, Note_on_c, 12, 41, 105
12, 280524, Note_off_c, 12, 41, 64
12, 280560, Note_on_c, 12, 43, 105
12, 280644, Note_off_c, 12, 43, 64
12, 280680, Note_on_c, 12, 41, 105
12, 280764, Note_off_c, 12, 41, 64
12, 280800, Note_on_c, 12, 40, 105
12, 280884, Note_off_c, 12, 40, 64
12, 280920, Note_on_c, 12, 41, 105
12, 281004, Note_off_c, 12, 41, 64
12, 281040, Note_on_c, 12, 38, 105
12, 281124, Note_off_c, 12, 38, 64
12, 281160, Note_on_c, 12, 40, 105
12, 281244, Note_off_c, 12, 40, 64
12, 281280, Note_on_c, 12, 41, 105
12, 281364, Note_off_c, 12, 41, 64
12, 281400, Note_on_c, 12, 43, 105
12, 281484, Note_off_c, 12, 43, 64
12, 281520, Note_on_c, 12, 45, 105
12, 281604, Note_off_c, 12, 45, 64
12, 281640, Note_on_c, 12, 43, 105
12, 281724, Note_off_c, 12, 43, 64
12, 281760, Note_on_c, 12, 41, 105
12, 281844, Note_off_c, 12, 41, 64
12, 281880, Note_on_c, 12, 43, 105
12, 281964, Note_off_c, 12, 43, 64
12, 282000, Note_on_c, 12, 40, 105
12, 282084, Note_off_c, 12, 40, 64
12, 282120, Note_on_c, 12, 41, 105
12, 282204, Note_off_c, 12, 41, 64
12, 282240, Note_on_c, 12, 38, 105
12, 282324, Note_off_c, 12, 38, 64
12, 282360, Note_on_c, 12, 50, 105
12, 282444, Note_off_c, 12, 50, 64
12, 282480, Note_on_c, 12, 46, 105
12, 282564, Note_off_c, 12, 46, 64
12, 282600, Note_on_c, 12, 45, 105
12, 282684, Note_off_c, 12, 45, 64
12, 282720, Note_on_c, 12, 43, 105
12, 282804, Note_off_c, 12, 43, 64
12, 282840, Note_on_c, 12, 46, 105
12, 282924, Note_off_c, 12, 46, 64
12, 282960, Note_on_c, 12, 43, 105
12, 283044, Note_off_c, 12, 43, 64
12, 283080, Note_on_c, 12, 41, 105
12, 283164, Note_off_c, 12, 41, 64
12, 283200, Note_on_c, 12, 40, 105
12, 283284, Note_off_c, 12, 40, 64
12, 283320, Note_on_c, 12, 41, 105
12, 283404, Note_off_c, 12, 41, 64
12, 283440, Note_on_c, 12, 43, 105
12, 283524, Note_off_c, 12, 43, 64
12, 283560, Note_on_c, 12, 41, 105
12, 283644, Note_off_c, 12, 41, 64
12, 283680, Note_on_c, 12, 40, 105
12, 283764, Note_off_c, 12, 40, 64
12, 283800, Note_on_c, 12, 36, 105
12, 283884, Note_off_c, 12, 36, 64
12, 283920, Note_on_c, 12, 38, 105
12, 284004, Note_off_c, 12, 38, 64
12, 284040, Note_on_c, 12, 40, 105
12, 284124, Note_off_c, 12, 40, 64
12, 284160, Note_on_c, 12, 41, 105
12, 284244, Note_off_c, 12, 41, 64
12, 284280, Note_on_c, 12, 45, 105
12, 284364, Note_off_c, 12, 45, 64
12, 284400, Note_on_c, 12, 48, 105
12, 284484, Note_off_c, 12, 48, 64
12, 284520, Note_on_c, 12, 48, 105
12, 284604, Note_off_c, 12, 48, 64
12, 284640, Note_on_c, 12, 48, 105
12, 284724, Note_off_c, 12, 48, 64
12, 284760, Note_on_c, 12, 48, 105
12, 284844, Note_off_c, 12, 48, 64
12, 284880, Note_on_c, 12, 45, 105
12, 284964, Note_off_c, 12, 45, 64
12, 285000, Note_on_c, 12, 41, 105
12, 285084, Note_off_c, 12, 41, 64
12, 285120, Note_on_c, 12, 46, 105
12, 285204, Note_off_c, 12, 46, 64
12, 285240, Note_on_c, 12, 43, 105
12, 285324, Note_off_c, 12, 43, 64
12, 285360, Note_on_c, 12, 45, 105
12, 285444, Note_off_c, 12, 45, 64
12, 285480, Note_on_c, 12, 41, 105
12, 285564, Note_off_c, 12, 41, 64
12, 285600, Note_on_c, 12, 40, 105
12, 285684, Note_off_c, 12, 40, 64
12, 285720, Note_on_c, 12, 43, 105
12, 285804, Note_off_c, 12, 43, 64
12, 285840, Note_on_c, 12, 40, 105
12, 285924, Note_off_c, 12, 40, 64
12, 285960, Note_on_c, 12, 36, 105
12, 286044, Note_off_c, 12, 36, 64
12, 286080, Note_on_c, 12, 41, 105
12, 286164, Note_off_c, 12, 41, 64
12, 286200, Note_on_c, 12, 45, 105
12, 286284, Note_off_c, 12, 45, 64
12, 286320, Note_on_c, 12, 48, 105
12, 286404, Note_off_c, 12, 48, 64
12, 286440, Note_on_c, 12, 48, 105
12, 286524, Note_off_c, 12, 48, 64
12, 286560, Note_on_c, 12, 48, 105
12, 286644, Note_off_c, 12, 48, 64
12, 286680, Note_on_c, 12, 48, 105
12, 286764, Note_off_c, 12, 48, 64
12, 286800, Note_on_c, 12, 45, 105
12, 286884, Note_off_c, 12, 45, 64
12, 286920, Note_on_c, 12, 41, 105
12, 287004, Note_off_c, 12, 41, 64
12, 287040, Note_on_c, 12, 46, 105
12, 287124, Note_off_c, 12, 46, 64
12, 287160, Note_on_c, 12, 43, 105
12, 287244, Note_off_c, 12, 43, 64
12, 287280, Note_on_c, 12, 45, 105
12, 287364, Note_off_c, 12, 45, 64
12, 287400, Note_on_c, 12, 41, 105
12, 287484, Note_off_c, 12, 41, 64
12, 287520, Note_on_c, 12, 40, 105
12, 287604, Note_off_c, 12, 40, 64
12, 287640, Note_on_c, 12, 43, 105
12, 287724, Note_off_c, 12, 43, 64
12, 287760, Note_on_c, 12, 40, 105
12, 287844, Note_off_c, 12, 40, 64
12, 287880, Note_on_c, 12, 36, 105
12, 287964, Note_off_c, 12, 36, 64
12, 288000, Note_on_c, 12, 41, 110
12, 288096, Note_off_c, 12, 41, 64
12, 288120, Note_on_c, 12, 29, 72
12, 288216, Note_off_c, 12, 29, 64
12, 288240, Note_on_c, 12, 41, 72
12, 288336, Note_off_c, 12, 41, 64
12, 288360, Note_on_c, 12, 41, 72
12, 288456, Note_off_c, 12, 41, 64
12, 288480, Note_on_c, 12, 41, 72
12, 288576, Note_off_c, 12, 41, 64
12, 288600, Note_on_c, 12, 41, 72
12, 288696, Note_off_c, 12, 41, 64
12, 288720, Note_on_c, 12, 43, 72
12, 288816, Note_off_c, 12, 43, 64
12, 288840, Note_on_c, 12, 43, 72
12, 288936, Note_off_c, 12, 43, 64
12, 288960, Note_on_c, 12, 45, 110
12, 289056, Note_off_c, 12, 45, 64
12, 289080, Note_on_c, 12, 33, 72
12, 289176, Note_off_c, 12, 33, 64
12, 289200, Note_on_c, 12, 45, 72
12, 289296, Note_off_c, 12, 45, 64
12, 289320, Note_on_c, 12, 45, 72
12, 289416, Note_off_c, 12, 45, 64
12, 289440, Note_on_c, 12, 45, 72
12, 289536, Note_off_c, 12, 45, 64
12, 289560, Note_on_c, 12, 45, 72
12, 289656, Note_off_c, 12, 45, 64
12, 289680, Note_on_c, 12, 43, 72
12, 289776, Note_off_c, 12, 43, 64
12, 289800, Note_on_c, 12, 43, 72
12, 289896, Note_off_c, 12, 43, 64
12, 289920, Note_on_c, 12, 41, 105
12, 289992, Note_off_c, 12, 41, 64
12, 290040, Note_on_c, 12, 40, 105
12, 290112, Note_off_c, 12, 40, 64
12, 290160, Note_on_c, 12, 41, 105
12, 290232, Note_off_c, 12, 41, 64
12, 290280, Note_on_c, 12, 40, 105
12, 290352, Note_off_c, 12, 40, 64
12, 290400, Note_on_c, 12, 41, 105
12, 290472, Note_off_c, 12, 41, 64
12, 290520, Note_on_c, 12, 40, 105
12, 290592, Note_off_c, 12, 40, 64
12, 290640, Note_on_c, 12, 41, 105
12, 290712, Note_off_c, 12, 41, 64
12, 290760, Note_on_c, 12, 43, 105
12, 290832, Note_off_c, 12, 43, 64
12, 290880, Note_on_c, 12, 45, 105
12, 290952, Note_off_c, 12, 45, 64
12, 291000, Note_on_c, 12, 44, 105
12, 291072, Note_off_c, 12, 44, 64
12, 291120, Note_on_c, 12, 45, 105
12, 291192, Note_off_c, 12, 45, 64
12, 291240, Note_on_c, 12, 44, 105
12, 291312, Note_off_c, 12, 44, 64
12, 291360, Note_on_c, 12, 45, 105
12, 291432, Note_off_c, 12, 45, 64
12, 291480, Note_on_c, 12, 44, 105
12, 291552, Note_off_c, 12, 44, 64
12, 291600, Note_on_c, 12, 45, 105
12, 291672, Note_off_c, 12, 45, 64
12, 291720, Note_on_c, 12, 40, 105
12, 291792, Note_off_c, 12, 40, 64
12, 291840, Note_on_c, 12, 41, 105
12, 291912, Note_off_c, 12, 41, 64
12, 291960, Note_on_c, 12, 40, 105
12, 292032, Note_off_c, 12, 40, 64
12, 292080, Note_on_c, 12, 41, 105
12, 292152, Note_off_c, 12, 41, 64
12, 292200, Note_on_c, 12, 40, 105
12, 292272, Note_off_c, 12, 40, 64
12, 292320, Note_on_c, 12, 41, 105
12, 292392, Note_off_c, 12, 41, 64
12, 292440, Note_on_c, 12, 40, 105
12, 292512, Note_off_c, 12, 40, 64
12, 292560, Note_on_c, 12, 41, 105
12, 292632, Note_off_c, 12, 41, 64
12, 292680, Note_on_c, 12, 38, 105
12, 292752, Note_off_c, 12, 38, 64
12, 292800, Note_on_c, 12, 40, 105
12, 292872, Note_off_c, 12, 40, 64
12, 292920, Note_on_c, 12, 38, 105
12, 292992, Note_off_c, 12, 38, 64
12, 293040, Note_on_c, 12, 40, 105
12, 293112, Note_off_c, 12, 40, 64
12, 293160, Note_on_c, 12, 38, 105
12, 293232, Note_off_c, 12, 38, 64
12, 293280, Note_on_c, 12, 40, 105
12, 293352, Note_off_c, 12, 40, 64
12, 293400, Note_on_c, 12, 38, 105
12, 293472, Note_off_c, 12, 38, 64
12, 293520, Note_on_c, 12, 40, 105
12, 293592, Note_off_c, 12, 40, 64
12, 293640, Note_on_c, 12, 35, 105
12, 293712, Note_off_c, 12, 35, 64
12, 293760, Note_on_c, 12, 36, 105
12, 293952, Note_off_c, 12, 36, 64
12, 295680, Note_on_c, 12, 44, 58
12, 297552, Note_off_c, 12, 44, 64
12, 297600, Note_on_c, 12, 43, 58
12, 297792, Note_off_c, 12, 43, 64
12, 298080, Note_on_c, 12, 48, 58
12, 298272, Note_off_c, 12, 48, 64
12, 298560, Note_on_c, 12, 43, 58
12, 298752, Note_off_c, 12, 43, 64
12, 299040, Note_on_c, 12, 36, 58
12, 299232, Note_off_c, 12, 36, 64
12, 299520, Note_on_c, 12, 41, 58
12, 300000, Note_off_c, 12, 41, 64
12, 300000, Note_on_c, 12, 40, 58
12, 300456, Note_off_c, 12, 40, 64
12, 300480, Note_on_c, 12, 41, 58
12, 300960, Note_off_c, 12, 41, 64
12, 300960, Note_on_c, 12, 40, 58
12, 301152, Note_off_c, 12, 40, 64
12, 301440, Note_on_c, 12, 41, 58
12, 301632, Note_off_c, 12, 41, 64
12, 301920, Note_on_c, 12, 43, 58
12, 302112, Note_off_c, 12, 43, 64
12, 302400, Note_on_c, 12, 36, 58
12, 302592, Note_off_c, 12, 36, 64
12, 302880, Note_on_c, 12, 45, 58
12, 303036, Note_off_c, 12, 45, 64
12, 303120, Note_on_c, 12, 45, 105
12, 303276, Note_off_c, 12, 45, 64
12, 303360, Note_on_c, 12, 45, 105
12, 303438, Note_off_c, 12, 45, 64
12, 303480, Note_on_c, 12, 47, 105
12, 303558, Note_off_c, 12, 47, 64
12, 303600, Note_on_c, 12, 48, 105
12, 303678, Note_off_c, 12, 48, 64
12, 303720, Note_on_c, 12, 45, 105
12, 303798, Note_off_c, 12, 45, 64
12, 303840, Note_on_c, 12, 44, 105
12, 303918, Note_off_c, 12, 44, 64
12, 303960, Note_on_c, 12, 40, 105
12, 304038, Note_off_c, 12, 40, 64
12, 304080, Note_on_c, 12, 42, 105
12, 304158, Note_off_c, 12, 42, 64
12, 304200, Note_on_c, 12, 44, 105
12, 304278, Note_off_c, 12, 44, 64
12, 304320, Note_on_c, 12, 45, 105
12, 304398, Note_off_c, 12, 45, 64
12, 304440, Note_on_c, 12, 47, 105
12, 304518, Note_off_c, 12, 47, 64
12, 304560, Note_on_c, 12, 48, 105
12, 304638, Note_off_c, 12, 48, 64
12, 304680, Note_on_c, 12, 45, 105
12, 304758, Note_off_c, 12, 45, 64
12, 304800, Note_on_c, 12, 44, 105
12, 304878, Note_off_c, 12, 44, 64
12, 304920, Note_on_c, 12, 40, 105
12, 304998, Note_off_c, 12, 40, 64
12, 305040, Note_on_c, 12, 42, 105
12, 305118, Note_off_c, 12, 42, 64
12, 305160, Note_on_c, 12, 44, 105
12, 305238, Note_off_c, 12, 44, 64
12, 305280, Note_on_c, 12, 45, 105
12, 305358, Note_off_c, 12, 45, 64
12, 305400, Note_on_c, 12, 47, 105
12, 305478, Note_off_c, 12, 47, 64
12, 305520, Note_on_c, 12, 48, 105
12, 305598, Note_off_c, 12, 48, 64
12, 305640, Note_on_c, 12, 45, 105
12, 305718, Note_off_c, 12, 45, 64
12, 305760, Note_on_c, 12, 44, 105
12, 305838, Note_off_c, 12, 44, 64
12, 305880, Note_on_c, 12, 40, 105
12, 305958, Note_off_c, 12, 40, 64
12, 306000, Note_on_c, 12, 42, 105
12, 306078, Note_off_c, 12, 42, 64
12, 306120, Note_on_c, 12, 44, 105
12, 306198, Note_off_c, 12, 44, 64
12, 306240, Note_on_c, 12, 45, 105
12, 306432, Note_off_c, 12, 45, 64
12, 308640, Note_on_c, 12, 41, 58
12, 308832, Note_off_c, 12, 41, 64
12, 309120, Note_on_c, 12, 43, 58
12, 309312, Note_off_c, 12, 43, 64
12, 309600, Note_on_c, 12, 31, 58
12, 309792, Note_off_c, 12, 31, 64
12, 310080, Note_on_c, 12, 36, 58
12, 310272, Note_off_c, 12, 36, 64
12, 311280, Note_on_c, 12, 45, 58
12, 311520, Note_off_c, 12, 45, 64
12, 311520, Note_on_c, 12, 44, 58
12, 311760, Note_off_c, 12, 44, 64
12, 311760, Note_on_c, 12, 40, 58
12, 311952, Note_off_c, 12, 40, 64
12, 312240, Note_on_c, 12, 45, 58
12, 312480, Note_off_c, 12, 45, 64
12, 312480, Note_on_c, 12, 44, 58
12, 312720, Note_off_c, 12, 44, 64
12, 312720, Note_on_c, 12, 40, 58
12, 312912, Note_off_c, 12, 40, 64
12, 313200, Note_on_c, 12, 45, 58
12, 313440, Note_off_c, 12, 45, 64
12, 313440, Note_on_c, 12, 44, 58
12, 313680, Note_off_c, 12, 44, 64
12, 313680, Note_on_c, 12, 40, 58
12, 313872, Note_off_c, 12, 40, 64
12, 313920, Note_on_c, 12, 45, 58
12, 314112, Note_off_c, 12, 45, 64
12, 314400, Note_on_c, 12, 41, 58
12, 314568, Note_off_c, 12, 41, 64
12, 314640, Note_on_c, 12, 41, 105
12, 314808, Note_off_c, 12, 41, 64
12, 314880, Note_on_c, 12, 41, 105
12, 314964, Note_off_c, 12, 41, 64
12, 315000, Note_on_c, 12, 45, 105
12, 315084, Note_off_c, 12, 45, 64
12, 315120, Note_on_c, 12, 43, 105
12, 315204, Note_off_c, 12, 43, 64
12, 315240, Note_on_c, 12, 41, 105
12, 315324, Note_off_c, 12, 41, 64
12, 315360, Note_on_c, 12, 40, 105
12, 315444, Note_off_c, 12, 40, 64
12, 315480, Note_on_c, 12, 36, 105
12, 315564, Note_off_c, 12, 36, 64
12, 315600, Note_on_c, 12, 38, 105
12, 315684, Note_off_c, 12, 38, 64
12, 315720, Note_on_c, 12, 40, 105
12, 315804, Note_off_c, 12, 40, 64
12, 315840, Note_on_c, 12, 41, 105
12, 315924, Note_off_c, 12, 41, 64
12, 315960, Note_on_c, 12, 41, 105
12, 316044, Note_off_c, 12, 41, 64
12, 316080, Note_on_c, 12, 41, 105
12, 316164, Note_off_c, 12, 41, 64
12, 316200, Note_on_c, 12, 41, 105
12, 316284, Note_off_c, 12, 41, 64
12, 316320, Note_on_c, 12, 41, 105
12, 316404, Note_off_c, 12, 41, 64
12, 316440, Note_on_c, 12, 41, 105
12, 316524, Note_off_c, 12, 41, 64
12, 316560, Note_on_c, 12, 41, 105
12, 316644, Note_off_c, 12, 41, 64
12, 316680, Note_on_c, 12, 41, 105
12, 316764, Note_off_c, 12, 41, 64
12, 316800, Note_on_c, 12, 43, 105
12, 316884, Note_off_c, 12, 43, 64
12, 316920, Note_on_c, 12, 43, 105
12, 317004, Note_off_c, 12, 43, 64
12, 317040, Note_on_c, 12, 43, 105
12, 317124, Note_off_c, 12, 43, 64
12, 317160, Note_on_c, 12, 43, 105
12, 317244, Note_off_c, 12, 43, 64
12, 317280, Note_on_c, 12, 43, 105
12, 317364, Note_off_c, 12, 43, 64
12, 317400, Note_on_c, 12, 43, 105
12, 317484, Note_off_c, 12, 43, 64
12, 317520, Note_on_c, 12, 43, 105
12, 317604, Note_off_c, 12, 43, 64
12, 317640, Note_on_c, 12, 43, 105
12, 317724, Note_off_c, 12, 43, 64
12, 317760, Note_on_c, 12, 48, 105
12, 317844, Note_off_c, 12, 48, 64
12, 317880, Note_on_c, 12, 36, 105
12, 317964, Note_off_c, 12, 36, 64
12, 318000, Note_on_c, 12, 38, 105
12, 318084, Note_off_c, 12, 38, 64
12, 318120, Note_on_c, 12, 40, 105
12, 318204, Note_off_c, 12, 40, 64
12, 318240, Note_on_c, 12, 41, 105
12, 318324, Note_off_c, 12, 41, 64
12, 318360, Note_on_c, 12, 45, 105
12, 318444, Note_off_c, 12, 45, 64
12, 318480, Note_on_c, 12, 43, 105
12, 318564, Note_off_c, 12, 43, 64
12, 318600, Note_on_c, 12, 47, 105
12, 318684, Note_off_c, 12, 47, 64
12, 318720, Note_on_c, 12, 45, 105
12, 318804, Note_off_c, 12, 45, 64
12, 318840, Note_on_c, 12, 48, 105
12, 318924, Note_off_c, 12, 48, 64
12, 318960, Note_on_c, 12, 47, 105
12, 319044, Note_off_c, 12, 47, 64
12, 319080, Note_on_c, 12, 50, 105
12, 319164, Note_off_c, 12, 50, 64
12, 319200, Note_on_c, 12, 48, 105
12, 319284, Note_off_c, 12, 48, 64
12, 319320, Note_on_c, 12, 52, 105
12, 319404, Note_off_c, 12, 52, 64
12, 319440, Note_on_c, 12, 50, 105
12, 319524, Note_off_c, 12, 50, 64
12, 319560, Note_on_c, 12, 53, 105
12, 319644, Note_off_c, 12, 53, 64
12, 319680, Note_on_c, 12, 52, 105
12, 319776, Note_off_c, 12, 52, 64
12, 319800, Note_on_c, 12, 48, 105
12, 319896, Note_off_c, 12, 48, 64
12, 319920, Note_on_c, 12, 43, 105
12, 320016, Note_off_c, 12, 43, 64
12, 320040, Note_on_c, 12, 52, 105
12, 320136, Note_off_c, 12, 52, 64
12, 320160, Note_on_c, 12, 53, 105
12, 320256, Note_off_c, 12, 53, 64
12, 320280, Note_on_c, 12, 50, 105
12, 320376, Note_off_c, 12, 50, 64
12, 320400, Note_on_c, 12, 47, 105
12, 320496, Note_off_c, 12, 47, 64
12, 320520, Note_on_c, 12, 43, 105
12, 320616, Note_off_c, 12, 43, 64
12, 320640, Note_on_c, 12, 48, 105
12, 320736, Note_off_c, 12, 48, 64
12, 320760, Note_on_c, 12, 48, 105
12, 320856, Note_off_c, 12, 48, 64
12, 320880, Note_on_c, 12, 40, 105
12, 320976, Note_off_c, 12, 40, 64
12, 321000, Note_on_c, 12, 40, 105
12, 321096, Note_off_c, 12, 40, 64
12, 321120, Note_on_c, 12, 41, 105
12, 321216, Note_off_c, 12, 41, 64
12, 321240, Note_on_c, 12, 41, 105
12, 321336, Note_off_c, 12, 41, 64
12, 321360, Note_on_c, 12, 43, 105
12, 321456, Note_off_c, 12, 43, 64
12, 321480, Note_on_c, 12, 43, 105
12, 321576, Note_off_c, 12, 43, 64
12, 321600, Note_on_c, 12, 48, 105
12, 321684, Note_off_c, 12, 48, 64
12, 321720, Note_on_c, 12, 36, 105
12, 321804, Note_off_c, 12, 36, 64
12, 321840, Note_on_c, 12, 38, 105
12, 321924, Note_off_c, 12, 38, 64
12, 321960, Note_on_c, 12, 40, 105
12, 322044, Note_off_c, 12, 40, 64
12, 322080, Note_on_c, 12, 41, 105
12, 322164, Note_off_c, 12, 41, 64
12, 322200, Note_on_c, 12, 38, 105
12, 322284, Note_off_c, 12, 38, 64
12, 322320, Note_on_c, 12, 43, 105
12, 322404, Note_off_c, 12, 43, 64
12, 322440, Note_on_c, 12, 40, 105
12, 322524, Note_off_c, 12, 40, 64
12, 322560, Note_on_c, 12, 45, 105
12, 322644, Note_off_c, 12, 45, 64
12, 322680, Note_on_c, 12, 41, 105
12, 322764, Note_off_c, 12, 41, 64
12, 322800, Note_on_c, 12, 47, 105
12, 322884, Note_off_c, 12, 47, 64
12, 322920, Note_on_c, 12, 43, 105
12, 323004, Note_off_c, 12, 43, 64
12, 323040, Note_on_c, 12, 48, 105
12, 323124, Note_off_c, 12, 48, 64
12, 323160, Note_on_c, 12, 45, 105
12, 323244, Note_off_c, 12, 45, 64
12, 323280, Note_on_c, 12, 50, 105
12, 323364, Note_off_c, 12, 50, 64
12, 323400, Note_on_c, 12, 47, 105
12, 323484, Note_off_c, 12, 47, 64
12, 323520, Note_on_c, 12, 52, 105
12, 323604, Note_off_c, 12, 52, 64
12, 323640, Note_on_c, 12, 50, 105
12, 323724, Note_off_c, 12, 50, 64
12, 323760, Note_on_c, 12, 49, 105
12, 323844, Note_off_c, 12, 49, 64
12, 323880, Note_on_c, 12, 45, 105
12, 323964, Note_off_c, 12, 45, 64
12, 324000, Note_on_c, 12, 50, 105
12, 324084, Note_off_c, 12, 50, 64
12, 324120, Note_on_c, 12, 48, 105
12, 324204, Note_off_c, 12, 48, 64
12, 324240, Note_on_c, 12, 47, 105
12, 324324, Note_off_c, 12, 47, 64
12, 324360, Note_on_c, 12, 43, 105
12, 324444, Note_off_c, 12, 43, 64
12, 324480, Note_on_c, 12, 48, 105
12, 324564, Note_off_c, 12, 48, 64
12, 324600, Note_on_c, 12, 48, 105
12, 324684, Note_off_c, 12, 48, 64
12, 324720, Note_on_c, 12, 45, 105
12, 324804, Note_off_c, 12, 45, 64
12, 324840, Note_on_c, 12, 45, 105
12, 324924, Note_off_c, 12, 45, 64
12, 324960, Note_on_c, 12, 41, 105
12, 325044, Note_off_c, 12, 41, 64
12, 325080, Note_on_c, 12, 41, 105
12, 325164, Note_off_c, 12, 41, 64
12, 325200, Note_on_c, 12, 43, 105
12, 325284, Note_off_c, 12, 43, 64
12, 325320, Note_on_c, 12, 43, 105
12, 325404, Note_off_c, 12, 43, 64
12, 325440, Note_on_c, 12, 36, 105
12, 325524, Note_off_c, 12, 36, 64
12, 325560, Note_on_c, 12, 48, 105
12, 325644, Note_off_c, 12, 48, 64
12, 325680, Note_on_c, 12, 48, 105
12, 325764, Note_off_c, 12, 48, 64
12, 325800, Note_on_c, 12, 48, 105
12, 325884, Note_off_c, 12, 48, 64
12, 325920, Note_on_c, 12, 48, 105
12, 326112, Note_off_c, 12, 48, 64
12, 326400, Note_on_c, 12, 45, 105
12, 326484, Note_off_c, 12, 45, 64
12, 326520, Note_on_c, 12, 45, 105
12, 326604, Note_off_c, 12, 45, 64
12, 326640, Note_on_c, 12, 45, 105
12, 326724, Note_off_c, 12, 45, 64
12, 326760, Note_on_c, 12, 45, 105
12, 326844, Note_off_c, 12, 45, 64
12, 326880, Note_on_c, 12, 45, 105
12, 327048, Note_off_c, 12, 45, 64
12, 327360, Note_on_c, 12, 40, 105
12, 327444, Note_off_c, 12, 40, 64
12, 327480, Note_on_c, 12, 40, 105
12, 327564, Note_off_c, 12, 40, 64
12, 327600, Note_on_c, 12, 40, 105
12, 327684, Note_off_c, 12, 40, 64
12, 327720, Note_on_c, 12, 40, 105
12, 327804, Note_off_c, 12, 40, 64
12, 327840, Note_on_c, 12, 40, 105
12, 328008, Note_off_c, 12, 40, 64
12, 328320, Note_on_c, 12, 41, 105
12, 328404, Note_off_c, 12, 41, 64
12, 328440, Note_on_c, 12, 41, 105
12, 328524, Note_off_c, 12, 41, 64
12, 328560, Note_on_c, 12, 41, 105
12, 328644, Note_off_c, 12, 41, 64
12, 328680, Note_on_c, 12, 41, 105
12, 328764, Note_off_c, 12, 41, 64
12, 328800, Note_on_c, 12, 38, 105
12, 328884, Note_off_c, 12, 38, 64
12, 328920, Note_on_c, 12, 38, 105
12, 329004, Note_off_c, 12, 38, 64
12, 329040, Note_on_c, 12, 38, 105
12, 329124, Note_off_c, 12, 38, 64
12, 329160, Note_on_c, 12, 38, 105
12, 329244, Note_off_c, 12, 38, 64
12, 329280, Note_on_c, 12, 35, 105
12, 329424, Note_off_c, 12, 35, 64
12, 329520, Note_on_c, 12, 47, 105
12, 329664, Note_off_c, 12, 47, 64
12, 330000, Note_on_c, 12, 47, 105
12, 330144, Note_off_c, 12, 47, 64
12, 330240, Note_on_c, 12, 48, 105
12, 330396, Note_off_c, 12, 48, 64
12, 330480, Note_on_c, 12, 41, 105
12, 330636, Note_off_c, 12, 41, 64
12, 330720, Note_on_c, 12, 43, 105
12, 330876, Note_off_c, 12, 43, 64
12, 330960, Note_on_c, 12, 31, 105
12, 331116, Note_off_c, 12, 31, 64
12, 331200, Note_on_c, 12, 36, 105
12, 331284, Note_off_c, 12, 36, 64
12, 331320, Note_on_c, 12, 48, 105
12, 331404, Note_off_c, 12, 48, 64
12, 331440, Note_on_c, 12, 48, 105
12, 331524, Note_off_c, 12, 48, 64
12, 331560, Note_on_c, 12, 48, 105
12, 331644, Note_off_c, 12, 48, 64
12, 331680, Note_on_c, 12, 48, 105
12, 331872, Note_off_c, 12, 48, 64
12, 332160, Note_on_c, 12, 45, 105
12, 332244, Note_off_c, 12, 45, 64
12, 332280, Note_on_c, 12, 45, 105
12, 332364, Note_off_c, 12, 45, 64
12, 332400, Note_on_c, 12, 45, 105
12, 332484, Note_off_c, 12, 45, 64
12, 332520, Note_on_c, 12, 45, 105
12, 332604, Note_off_c, 12, 45, 64
12, 332640, Note_on_c, 12, 45, 105
12, 332808, Note_off_c, 12, 45, 64
12, 333120, Note_on_c, 12, 40, 105
12, 333204, Note_off_c, 12, 40, 64
12, 333240, Note_on_c, 12, 40, 105
12, 333324, Note_off_c, 12, 40, 64
12, 333360, Note_on_c, 12, 40, 105
12, 333444, Note_off_c, 12, 40, 64
12, 333480, Note_on_c, 12, 40, 105
12, 333564, Note_off_c, 12, 40, 64
12, 333600, Note_on_c, 12, 40, 105
12, 333768, Note_off_c, 12, 40, 64
12, 334080, Note_on_c, 12, 41, 105
12, 334164, Note_off_c, 12, 41, 64
12, 334200, Note_on_c, 12, 41, 105
12, 334284, Note_off_c, 12, 41, 64
12, 334320, Note_on_c, 12, 41, 105
12, 334404, Note_off_c, 12, 41, 64
12, 334440, Note_on_c, 12, 41, 105
12, 334524, Note_off_c, 12, 41, 64
12, 334560, Note_on_c, 12, 38, 105
12, 334644, Note_off_c, 12, 38, 64
12, 334680, Note_on_c, 12, 38, 105
12, 334764, Note_off_c, 12, 38, 64
12, 334800, Note_on_c, 12, 38, 105
12, 334884, Note_off_c, 12, 38, 64
12, 334920, Note_on_c, 12, 38, 105
12, 335004, Note_off_c, 12, 38, 64
12, 335040, Note_on_c, 12, 35, 105
12, 335184, Note_off_c, 12, 35, 64
12, 335280, Note_on_c, 12, 47, 105
12, 335424, Note_off_c, 12, 47, 64
12, 337680, Note_on_c, 12, 32, 58
12, 337920, Note_off_c, 12, 32, 64
12, 337920, Note_on_c, 12, 31, 58
12, 338064, Note_off_c, 12, 31, 64
12, 338160, Note_on_c, 12, 41, 58
12, 338304, Note_off_c, 12, 41, 64
12, 338880, Note_on_c, 12, 35, 58
12, 339360, Note_off_c, 12, 35, 64
12, 339360, Note_on_c, 12, 36, 58
12, 339816, Note_off_c, 12, 36, 64
12, 339840, Note_on_c, 12, 29, 58
12, 340320, Note_off_c, 12, 29, 64
12, 340320, Note_on_c, 12, 31, 58
12, 340776, Note_off_c, 12, 31, 64
12, 340800, Note_on_c, 12, 36, 105
12, 340872, Note_off_c, 12, 36, 64
12, 340920, Note_on_c, 12, 31, 105
12, 340960, Note_off_c, 12, 31, 64
12, 340960, Note_on_c, 12, 33, 105
12, 341000, Note_off_c, 12, 33, 64
12, 341000, Note_on_c, 12, 35, 105
12, 341040, Note_off_c, 12, 35, 64
12, 341040, Note_on_c, 12, 36, 105
12, 341112, Note_off_c, 12, 36, 64
12, 341160, Note_on_c, 12, 36, 105
12, 341232, Note_off_c, 12, 36, 64
12, 341280, Note_on_c, 12, 36, 105
12, 341352, Note_off_c, 12, 36, 64
12, 341400, Note_on_c, 12, 36, 105
12, 341472, Note_off_c, 12, 36, 64
12, 341520, Note_on_c, 12, 36, 105
12, 341592, Note_off_c, 12, 36, 64
12, 341640, Note_on_c, 12, 36, 105
12, 341712, Note_off_c, 12, 36, 64
12, 341760, Note_on_c, 12, 36, 105
12, 341844, Note_off_c, 12, 36, 64
12, 341880, Note_on_c, 12, 36, 105
12, 341964, Note_off_c, 12, 36, 64
12, 342000, Note_on_c, 12, 36, 105
12, 342084, Note_off_c, 12, 36, 64
12, 342120, Note_on_c, 12, 36, 105
12, 342204, Note_off_c, 12, 36, 64
12, 342240, Note_on_c, 12, 36, 105
12, 342324, Note_off_c, 12, 36, 64
12, 342360, Note_on_c, 12, 36, 105
12, 342444, Note_off_c, 12, 36, 64
12, 342480, Note_on_c, 12, 36, 105
12, 342564, Note_off_c, 12, 36, 64
12, 342600, Note_on_c, 12, 36, 105
12, 342684, Note_off_c, 12, 36, 64
12, 342720, Note_on_c, 12, 36, 105
12, 342804, Note_off_c, 12, 36, 64
12, 342840, Note_on_c, 12, 36, 105
12, 342924, Note_off_c, 12, 36, 64
12, 342960, Note_on_c, 12, 45, 105
12, 343044, Note_off_c, 12, 45, 64
12, 343080, Note_on_c, 12, 45, 105
12, 343164, Note_off_c, 12, 45, 64
12, 343200, Note_on_c, 12, 41, 105
12, 343284, Note_off_c, 12, 41, 64
12, 343320, Note_on_c, 12, 41, 105
12, 343404, Note_off_c, 12, 41, 64
12, 343440, Note_on_c, 12, 43, 105
12, 343524, Note_off_c, 12, 43, 64
12, 343560, Note_on_c, 12, 43, 105
12, 343644, Note_off_c, 12, 43, 64
12, 343680, Note_on_c, 12, 36, 105
12, 343752, Note_off_c, 12, 36, 64
12, 343800, Note_on_c, 12, 31, 105
12, 343840, Note_off_c, 12, 31, 64
12, 343840, Note_on_c, 12, 33, 105
12, 343880, Note_off_c, 12, 33, 64
12, 343880, Note_on_c, 12, 35, 105
12, 343920, Note_off_c, 12, 35, 64
12, 343920, Note_on_c, 12, 36, 105
12, 343992, Note_off_c, 12, 36, 64
12, 344040, Note_on_c, 12, 36, 105
12, 344112, Note_off_c, 12, 36, 64
12, 344160, Note_on_c, 12, 36, 105
12, 344232, Note_off_c, 12, 36, 64
12, 344280, Note_on_c, 12, 36, 105
12, 344352, Note_off_c, 12, 36, 64
12, 344400, Note_on_c, 12, 36, 105
12, 344472, Note_off_c, 12, 36, 64
12, 344520, Note_on_c, 12, 36, 105
12, 344592, Note_off_c, 12, 36, 64
12, 344640, Note_on_c, 12, 36, 105
12, 344724, Note_off_c, 12, 36, 64
12, 344760, Note_on_c, 12, 36, 105
12, 344844, Note_off_c, 12, 36, 64
12, 344880, Note_on_c, 12, 36, 105
12, 344964, Note_off_c, 12, 36, 64
12, 345000, Note_on_c, 12, 36, 105
12, 345084, Note_off_c, 12, 36, 64
12, 345120, Note_on_c, 12, 36, 105
12, 345204, Note_off_c, 12, 36, 64
12, 345240, Note_on_c, 12, 36, 105
12, 345324, Note_off_c, 12, 36, 64
12, 345360, Note_on_c, 12, 36, 105
12, 345444, Note_off_c, 12, 36, 64
12, 345480, Note_on_c, 12, 36, 105
12, 345564, Note_off_c, 12, 36, 64
12, 345600, Note_on_c, 12, 36, 105
12, 345684, Note_off_c, 12, 36, 64
12, 345720, Note_on_c, 12, 36, 105
12, 345804, Note_off_c, 12, 36, 64
12, 345840, Note_on_c, 12, 45, 105
12, 345924, Note_off_c, 12, 45, 64
12, 345960, Note_on_c, 12, 45, 105
12, 346044, Note_off_c, 12, 45, 64
12, 346080, Note_on_c, 12, 41, 105
12, 346164, Note_off_c, 12, 41, 64
12, 346200, Note_on_c, 12, 41, 105
12, 346284, Note_off_c, 12, 41, 64
12, 346320, Note_on_c, 12, 43, 105
12, 346404, Note_off_c, 12, 43, 64
12, 346440, Note_on_c, 12, 43, 105
12, 346524, Note_off_c, 12, 43, 64
12, 346560, Note_on_c, 12, 40, 72
12, 346656, Note_off_c, 12, 40, 64
12, 346800, Note_on_c, 12, 45, 72
12, 346896, Note_off_c, 12, 45, 64
12, 347040, Note_on_c, 12, 41, 72
12, 347136, Note_off_c, 12, 41, 64
12, 347280, Note_on_c, 12, 43, 72
12, 347376, Note_off_c, 12, 43, 64
12, 347520, Note_on_c, 12, 36, 105
12, 347604, Note_off_c, 12, 36, 64
12, 347640, Note_on_c, 12, 36, 105
12, 347724, Note_off_c, 12, 36, 64
12, 347760, Note_on_c, 12, 45, 105
12, 347844, Note_off_c, 12, 45, 64
12, 347880, Note_on_c, 12, 45, 105
12, 347964, Note_off_c, 12, 45, 64
12, 348000, Note_on_c, 12, 41, 105
12, 348084, Note_off_c, 12, 41, 64
12, 348120, Note_on_c, 12, 41, 105
12, 348204, Note_off_c, 12, 41, 64
12, 348240, Note_on_c, 12, 43, 105
12, 348324, Note_off_c, 12, 43, 64
12, 348360, Note_on_c, 12, 43, 105
12, 348444, Note_off_c, 12, 43, 64
12, 348480, Note_on_c, 12, 36, 105
12, 348672, Note_off_c, 12, 36, 64
12, 350400, Note_on_c, 12, 40, 58
12, 352320, Note_off_c, 12, 40, 64
12, 352320, Note_on_c, 12, 41, 58
12, 352512, Note_off_c, 12, 41, 64
12, 355200, Note_on_c, 12, 41, 58
12, 355920, Note_off_c, 12, 41, 64
12, 355920, Note_on_c, 12, 42, 58
12, 356112, Note_off_c, 12, 42, 64
12, 356160, Note_on_c, 12, 43, 58
12, 357120, Note_off_c, 12, 43, 64
12, 357120, Note_on_c, 12, 36, 58
12, 357312, Note_off_c, 12, 36, 64
12, 358080, Note_on_c, 12, 48, 58
12, 358272, Note_off_c, 12, 48, 64
12, 358560, Note_on_c, 12, 43, 58
12, 358752, Note_off_c, 12, 43, 64
12, 359040, Note_on_c, 12, 36, 58
12, 359232, Note_off_c, 12, 36, 64
12, 360000, Note_on_c, 12, 48, 58
12, 360192, Note_off_c, 12, 48, 64
12, 360480, Note_on_c, 12, 43, 58
12, 360672, Note_off_c, 12, 43, 64
12, 360960, Note_on_c, 12, 36, 58
12, 361152, Note_off_c, 12, 36, 64
12, 363000, Note_on_c, 12, 43, 105
12, 363120, Note_off_c, 12, 43, 64
12, 363120, Note_on_c, 12, 48, 105
12, 363240, Note_off_c, 12, 48, 64
12, 363240, Note_on_c, 12, 47, 105
12, 363360, Note_off_c, 12, 47, 64
12, 363360, Note_on_c, 12, 50, 105
12, 363480, Note_off_c, 12, 50, 64
12, 363480, Note_on_c, 12, 48, 105
12, 363600, Note_off_c, 12, 48, 64
12, 363600, Note_on_c, 12, 53, 105
12, 363720, Note_off_c, 12, 53, 64
12, 363720, Note_on_c, 12, 52, 105
12, 363816, Note_off_c, 12, 52, 64
12, 363840, Note_on_c, 12, 52, 105
12, 364224, Note_off_c, 12, 52, 64
12, 364320, Note_on_c, 12, 36, 105
12, 364680, Note_off_c, 12, 36, 64
12, 364680, Note_on_c, 12, 38, 105
12, 364740, Note_off_c, 12, 38, 64
12, 364740, Note_on_c, 12, 40, 105
12, 364800, Note_off_c, 12, 40, 64
12, 364800, Note_on_c, 12, 41, 105
12, 364968, Note_off_c, 12, 41, 64
12, 365040, Note_on_c, 12, 38, 105
12, 365208, Note_off_c, 12, 38, 64
12, 365280, Note_on_c, 12, 43, 105
12, 365640, Note_off_c, 12, 43, 64
12, 365640, Note_on_c, 12, 45, 105
12, 365670, Note_off_c, 12, 45, 64
12, 365670, Note_on_c, 12, 47, 105
12, 365700, Note_off_c, 12, 47, 64
12, 365700, Note_on_c, 12, 48, 105
12, 365730, Note_off_c, 12, 48, 64
12, 365730, Note_on_c, 12, 50, 105
12, 365754, Note_off_c, 12, 50, 64
12, 365760, Note_on_c, 12, 52, 105
12, 366144, Note_off_c, 12, 52, 64
12, 366240, Note_on_c, 12, 36, 105
12, 366600, Note_off_c, 12, 36, 64
12, 366600, Note_on_c, 12, 38, 105
12, 366660, Note_off_c, 12, 38, 64
12, 366660, Note_on_c, 12, 40, 105
12, 366720, Note_off_c, 12, 40, 64
12, 366720, Note_on_c, 12, 41, 105
12, 366888, Note_off_c, 12, 41, 64
12, 366960, Note_on_c, 12, 38, 105
12, 367128, Note_off_c, 12, 38, 64
12, 367200, Note_on_c, 12, 43, 105
12, 367368, Note_off_c, 12, 43, 64
12, 367440, Note_on_c, 12, 31, 105
12, 367608, Note_off_c, 12, 31, 64
12, 367680, Note_on_c, 12, 36, 105
12, 367872, Note_off_c, 12, 36, 64
12, 368160, Note_on_c, 12, 36, 105
12, 368328, Note_off_c, 12, 36, 64
12, 368400, Note_on_c, 12, 36, 105
12, 368568, Note_off_c, 12, 36, 64
12, 368640, Note_on_c, 12, 36, 105
12, 368832, Note_off_c, 12, 36, 64
12, 369120, Note_on_c, 12, 36, 105
12, 369288, Note_off_c, 12, 36, 64
12, 369360, Note_on_c, 12, 36, 105
12, 369528, Note_off_c, 12, 36, 64
12, 369600, Note_on_c, 12, 36, 105
12, 369828, Note_off_c, 12, 36, 64
12, 369828, End_track
13, 0, Start_track
13, 0, Program_c, 13, 45
13, 0, Control_c, 13, 7, 99
13, 0, Control_c, 13, 91, 80
13, 0, End_track
14, 0, Start_track
14, 0, Program_c, 14, 45
14, 0, Control_c, 14, 7, 99
14, 0, Control_c, 14, 91, 80
14, 0, End_track
0, 0, End_of_file