0, 0, Header, 1, 11, 192
1, 0, Start_track
1, 0, Title_t, "Concerto"
1, 0, Text_t, "By Wolfgang Amadeus Mozart, KV.314"
1, 0, Copyright_t, "This Selection is in the Public Domain"
1, 0, Text_t, "Generated by NoteWorthy Composer"
1, 0, Tempo, 500000
1, 0, Key_signature, 2, "major"
1, 0, Time_signature, 4, 2, 24, 8
1, 135193, Tempo, 504201
1, 135219, Tempo, 508474
1, 135244, Tempo, 512820
1, 135270, Tempo, 517241
1, 135296, Tempo, 521739
1, 135321, Tempo, 526315
1, 135347, Tempo, 530973
1, 135372, Tempo, 535714
1, 135398, Tempo, 540540
1, 135424, Tempo, 545454
1, 135449, Tempo, 550458
1, 135475, Tempo, 555555
1, 135500, Tempo, 560747
1, 135526, Tempo, 566037
1, 135552, Tempo, 571428
1, 135577, Tempo, 576923
1, 135603, Tempo, 582524
1, 135628, Tempo, 588235
1, 135654, Tempo, 594059
1, 135680, Tempo, 600000
1, 135705, Tempo, 606060
1, 135731, Tempo, 612244
1, 135756, Tempo, 618556
1, 135782, Tempo, 625000
1, 135808, Tempo, 631578
1, 135833, Tempo, 638297
1, 135859, Tempo, 645161
1, 135884, Tempo, 652173
1, 135910, Tempo, 659340
1, 135936, Tempo, 666666
1, 136512, Tempo, 1000000
1, 136704, Tempo, 500000
1, 136800, Tempo, 666666
1, 137088, Tempo, 500000
1, 137184, Tempo, 666666
1, 137472, Tempo, 500000
1, 137875, Tempo, 504201
1, 137894, Tempo, 508474
1, 137913, Tempo, 512820
1, 137932, Tempo, 517241
1, 137952, Tempo, 521739
1, 137971, Tempo, 526315
1, 137990, Tempo, 530973
1, 138009, Tempo, 535714
1, 138028, Tempo, 540540
1, 138048, Tempo, 545454
1, 138067, Tempo, 550458
1, 138086, Tempo, 555555
1, 138105, Tempo, 560747
1, 138124, Tempo, 566037
1, 138144, Tempo, 571428
1, 138163, Tempo, 576923
1, 138182, Tempo, 582524
1, 138201, Tempo, 588235
1, 138220, Tempo, 594059
1, 138240, Tempo, 600000
1, 140544, Tempo, 461538
1, 140940, Tempo, 465116
1, 140952, Tempo, 468750
1, 140964, Tempo, 472440
1, 140976, Tempo, 476190
1, 140988, Tempo, 480000
1, 141000, Tempo, 483870
1, 141012, Tempo, 487804
1, 141024, Tempo, 491803
1, 141036, Tempo, 495867
1, 141048, Tempo, 500000
1, 141060, Tempo, 504201
1, 141072, Tempo, 508474
1, 141084, Tempo, 512820
1, 141096, Tempo, 517241
1, 141108, Tempo, 521739
1, 141120, Tempo, 526315
1, 141132, Tempo, 530973
1, 141144, Tempo, 535714
1, 141156, Tempo, 540540
1, 141168, Tempo, 545454
1, 141180, Tempo, 550458
1, 141192, Tempo, 555555
1, 141204, Tempo, 560747
1, 141216, Tempo, 566037
1, 141228, Tempo, 571428
1, 141240, Tempo, 576923
1, 141252, Tempo, 582524
1, 141264, Tempo, 588235
1, 141276, Tempo, 594059
1, 141288, Tempo, 600000
1, 141300, Tempo, 606060
1, 141312, Tempo, 612244
1, 141984, Tempo, 1000000
1, 143616, Tempo, 1200000
1, 143664, Tempo, 461538
1, 144393, Tempo, 465116
1, 144403, Tempo, 468750
1, 144412, Tempo, 472440
1, 144422, Tempo, 476190
1, 144432, Tempo, 480000
1, 144441, Tempo, 483870
1, 144451, Tempo, 487804
1, 144460, Tempo, 491803
1, 144470, Tempo, 495867
1, 144480, Tempo, 500000
1, 144489, Tempo, 504201
1, 144499, Tempo, 508474
1, 144508, Tempo, 512820
1, 144518, Tempo, 517241
1, 144528, Tempo, 521739
1, 144537, Tempo, 526315
1, 144547, Tempo, 530973
1, 144556, Tempo, 535714
1, 144566, Tempo, 540540
1, 144576, Tempo, 545454
1, 144585, Tempo, 550458
1, 144595, Tempo, 555555
1, 144604, Tempo, 560747
1, 144614, Tempo, 566037
1, 144624, Tempo, 571428
1, 144633, Tempo, 576923
1, 144643, Tempo, 582524
1, 144652, Tempo, 588235
1, 144662, Tempo, 594059
1, 144672, Tempo, 600000
1, 144681, Tempo, 606060
1, 144691, Tempo, 612244
1, 144700, Tempo, 618556
1, 144710, Tempo, 625000
1, 144720, Tempo, 631578
1, 144729, Tempo, 638297
1, 144739, Tempo, 645161
1, 144748, Tempo, 652173
1, 144758, Tempo, 659340
1, 144768, Tempo, 666666
1, 144777, Tempo, 674157
1, 144787, Tempo, 681818
1, 144796, Tempo, 689655
1, 144806, Tempo, 697674
1, 144816, Tempo, 705882
1, 144825, Tempo, 714285
1, 144835, Tempo, 722891
1, 144844, Tempo, 731707
1, 144854, Tempo, 740740
1, 144864, Tempo, 750000
1, 144873, Tempo, 759493
1, 144883, Tempo, 769230
1, 144892, Tempo, 779220
1, 144902, Tempo, 789473
1, 144912, Tempo, 800000
1, 144921, Tempo, 810810
1, 144931, Tempo, 821917
1, 144940, Tempo, 833333
1, 144950, Tempo, 845070
1, 144960, Tempo, 857142
1, 144969, Tempo, 869565
1, 144979, Tempo, 882352
1, 144988, Tempo, 895522
1, 144998, Tempo, 909090
1, 145008, Tempo, 923076
1, 145017, Tempo, 937500
1, 145027, Tempo, 952380
1, 145036, Tempo, 967741
1, 145046, Tempo, 983606
1, 145056, Tempo, 1000000
1, 145065, Tempo, 1016949
1, 145075, Tempo, 1034482
1, 145084, Tempo, 1052631
1, 145094, Tempo, 1071428
1, 145104, Tempo, 1090909
1, 145113, Tempo, 1111111
1, 145123, Tempo, 1132075
1, 145132, Tempo, 1153846
1, 145142, Tempo, 1176470
1, 145152, Tempo, 1200000
1, 145152, Tempo, 1200000
1, 145200, Tempo, 461538
1, 145929, Tempo, 465116
1, 145939, Tempo, 468750
1, 145948, Tempo, 472440
1, 145958, Tempo, 476190
1, 145968, Tempo, 480000
1, 145977, Tempo, 483870
1, 145987, Tempo, 487804
1, 145996, Tempo, 491803
1, 146006, Tempo, 495867
1, 146016, Tempo, 500000
1, 146025, Tempo, 504201
1, 146035, Tempo, 508474
1, 146044, Tempo, 512820
1, 146054, Tempo, 517241
1, 146064, Tempo, 521739
1, 146073, Tempo, 526315
1, 146083, Tempo, 530973
1, 146092, Tempo, 535714
1, 146102, Tempo, 540540
1, 146112, Tempo, 545454
1, 146121, Tempo, 550458
1, 146131, Tempo, 555555
1, 146140, Tempo, 560747
1, 146150, Tempo, 566037
1, 146160, Tempo, 571428
1, 146169, Tempo, 576923
1, 146179, Tempo, 582524
1, 146188, Tempo, 588235
1, 146198, Tempo, 594059
1, 146208, Tempo, 600000
1, 146217, Tempo, 606060
1, 146227, Tempo, 612244
1, 146236, Tempo, 618556
1, 146246, Tempo, 625000
1, 146256, Tempo, 631578
1, 146265, Tempo, 638297
1, 146275, Tempo, 645161
1, 146284, Tempo, 652173
1, 146294, Tempo, 659340
1, 146304, Tempo, 666666
1, 146313, Tempo, 674157
1, 146323, Tempo, 681818
1, 146332, Tempo, 689655
1, 146342, Tempo, 697674
1, 146352, Tempo, 705882
1, 146361, Tempo, 714285
1, 146371, Tempo, 722891
1, 146380, Tempo, 731707
1, 146390, Tempo, 740740
1, 146400, Tempo, 750000
1, 146409, Tempo, 759493
1, 146419, Tempo, 769230
1, 146428, Tempo, 779220
1, 146438, Tempo, 789473
1, 146448, Tempo, 800000
1, 146457, Tempo, 810810
1, 146467, Tempo, 821917
1, 146476, Tempo, 833333
1, 146486, Tempo, 845070
1, 146496, Tempo, 857142
1, 146505, Tempo, 869565
1, 146515, Tempo, 882352
1, 146524, Tempo, 895522
1, 146534, Tempo, 909090
1, 146544, Tempo, 923076
1, 146553, Tempo, 937500
1, 146563, Tempo, 952380
1, 146572, Tempo, 967741
1, 146582, Tempo, 983606
1, 146592, Tempo, 1000000
1, 146601, Tempo, 1016949
1, 146611, Tempo, 1034482
1, 146620, Tempo, 1052631
1, 146630, Tempo, 1071428
1, 146640, Tempo, 1090909
1, 146649, Tempo, 1111111
1, 146659, Tempo, 1132075
1, 146668, Tempo, 1153846
1, 146678, Tempo, 1176470
1, 146688, Tempo, 1200000
1, 146688, Tempo, 555555
1, 146880, Tempo, 1111111
1, 147072, Tempo, 555555
1, 147456, Tempo, 555555
1, 147648, Tempo, 1111111
1, 147840, Tempo, 555555
1, 148224, Tempo, 555555
1, 148416, Tempo, 1111111
1, 148608, Tempo, 555555
1, 148992, Tempo, 555555
1, 149184, Tempo, 1111111
1, 149376, Tempo, 555555
1, 149568, Tempo, 2222222
1, 149664, Tempo, 555555
1, 151776, Tempo, 740740
1, 152064, Tempo, 500000
1, 153600, Tempo, 555555
1, 153637, Tempo, 550458
1, 153674, Tempo, 545454
1, 153711, Tempo, 540540
1, 153749, Tempo, 535714
1, 153786, Tempo, 530973
1, 153823, Tempo, 526315
1, 153861, Tempo, 521739
1, 153898, Tempo, 517241
1, 153935, Tempo, 512820
1, 153973, Tempo, 508474
1, 154010, Tempo, 504201
1, 154047, Tempo, 500000
1, 154085, Tempo, 495867
1, 154122, Tempo, 491803
1, 154159, Tempo, 487804
1, 154197, Tempo, 483870
1, 154234, Tempo, 480000
1, 154271, Tempo, 476190
1, 154309, Tempo, 472440
1, 154346, Tempo, 468750
1, 154383, Tempo, 465116
1, 154421, Tempo, 461538
1, 154458, Tempo, 458015
1, 154495, Tempo, 454545
1, 154533, Tempo, 451127
1, 154570, Tempo, 447761
1, 154607, Tempo, 444444
1, 154645, Tempo, 441176
1, 154682, Tempo, 437956
1, 154719, Tempo, 434782
1, 154757, Tempo, 431654
1, 154794, Tempo, 428571
1, 154831, Tempo, 425531
1, 154869, Tempo, 422535
1, 154906, Tempo, 419580
1, 154944, Tempo, 416666
1, 155136, Tempo, 555555
1, 155173, Tempo, 550458
1, 155210, Tempo, 545454
1, 155247, Tempo, 540540
1, 155285, Tempo, 535714
1, 155322, Tempo, 530973
1, 155359, Tempo, 526315
1, 155397, Tempo, 521739
1, 155434, Tempo, 517241
1, 155471, Tempo, 512820
1, 155509, Tempo, 508474
1, 155546, Tempo, 504201
1, 155583, Tempo, 500000
1, 155621, Tempo, 495867
1, 155658, Tempo, 491803
1, 155695, Tempo, 487804
1, 155733, Tempo, 483870
1, 155770, Tempo, 480000
1, 155807, Tempo, 476190
1, 155845, Tempo, 472440
1, 155882, Tempo, 468750
1, 155919, Tempo, 465116
1, 155957, Tempo, 461538
1, 155994, Tempo, 458015
1, 156031, Tempo, 454545
1, 156069, Tempo, 451127
1, 156106, Tempo, 447761
1, 156143, Tempo, 444444
1, 156181, Tempo, 441176
1, 156218, Tempo, 437956
1, 156255, Tempo, 434782
1, 156293, Tempo, 431654
1, 156330, Tempo, 428571
1, 156367, Tempo, 425531
1, 156405, Tempo, 422535
1, 156442, Tempo, 419580
1, 156480, Tempo, 416666
1, 156896, Tempo, 413793
1, 157120, Tempo, 410958
1, 157344, Tempo, 408163
1, 157568, Tempo, 405405
1, 157792, Tempo, 402684
1, 158016, Tempo, 400000
1, 158784, Tempo, 1621621
1, 158976, Tempo, 461538
1, 161295, Tempo, 465116
1, 161310, Tempo, 468750
1, 161326, Tempo, 472440
1, 161341, Tempo, 476190
1, 161356, Tempo, 480000
1, 161372, Tempo, 483870
1, 161387, Tempo, 487804
1, 161402, Tempo, 491803
1, 161418, Tempo, 495867
1, 161433, Tempo, 500000
1, 161448, Tempo, 504201
1, 161464, Tempo, 508474
1, 161479, Tempo, 512820
1, 161495, Tempo, 517241
1, 161510, Tempo, 521739
1, 161525, Tempo, 526315
1, 161541, Tempo, 530973
1, 161556, Tempo, 535714
1, 161571, Tempo, 540540
1, 161587, Tempo, 545454
1, 161602, Tempo, 550458
1, 161617, Tempo, 555555
1, 161633, Tempo, 560747
1, 161648, Tempo, 566037
1, 161663, Tempo, 571428
1, 161679, Tempo, 576923
1, 161694, Tempo, 582524
1, 161710, Tempo, 588235
1, 161725, Tempo, 594059
1, 161740, Tempo, 600000
1, 161756, Tempo, 606060
1, 161771, Tempo, 612244
1, 161786, Tempo, 618556
1, 161802, Tempo, 625000
1, 161817, Tempo, 631578
1, 161832, Tempo, 638297
1, 161848, Tempo, 645161
1, 161863, Tempo, 652173
1, 161879, Tempo, 659340
1, 161894, Tempo, 666666
1, 161909, Tempo, 674157
1, 161925, Tempo, 681818
1, 161940, Tempo, 689655
1, 161955, Tempo, 697674
1, 161971, Tempo, 705882
1, 161986, Tempo, 714285
1, 162001, Tempo, 722891
1, 162017, Tempo, 731707
1, 162032, Tempo, 740740
1, 162048, Tempo, 750000
1, 162240, Tempo, 441176
1, 162816, Tempo, 1000000
1, 163008, Tempo, 441176
1, 163392, Tempo, 1764705
1, 163488, Tempo, 882352
1, 163584, Tempo, 500000
1, 163668, Tempo, 495867
1, 163752, Tempo, 491803
1, 163836, Tempo, 487804
1, 163920, Tempo, 483870
1, 164004, Tempo, 480000
1, 164088, Tempo, 476190
1, 164172, Tempo, 472440
1, 164256, Tempo, 468750
1, 164340, Tempo, 465116
1, 164424, Tempo, 461538
1, 164508, Tempo, 458015
1, 164592, Tempo, 454545
1, 164676, Tempo, 451127
1, 164760, Tempo, 447761
1, 164844, Tempo, 444444
1, 164928, Tempo, 441176
1, 165120, Tempo, 1090909
1, 165888, Tempo, 500000
1, 172808, Tempo, 504201
1, 172816, Tempo, 508474
1, 172825, Tempo, 512820
1, 172833, Tempo, 517241
1, 172841, Tempo, 521739
1, 172850, Tempo, 526315
1, 172858, Tempo, 530973
1, 172867, Tempo, 535714
1, 172875, Tempo, 540540
1, 172883, Tempo, 545454
1, 172892, Tempo, 550458
1, 172900, Tempo, 555555
1, 172909, Tempo, 560747
1, 172917, Tempo, 566037
1, 172925, Tempo, 571428
1, 172934, Tempo, 576923
1, 172942, Tempo, 582524
1, 172951, Tempo, 588235
1, 172959, Tempo, 594059
1, 172967, Tempo, 600000
1, 172976, Tempo, 606060
1, 172984, Tempo, 612244
1, 172993, Tempo, 618556
1, 173001, Tempo, 625000
1, 173009, Tempo, 631578
1, 173018, Tempo, 638297
1, 173026, Tempo, 645161
1, 173035, Tempo, 652173
1, 173043, Tempo, 659340
1, 173051, Tempo, 666666
1, 173060, Tempo, 674157
1, 173068, Tempo, 681818
1, 173077, Tempo, 689655
1, 173085, Tempo, 697674
1, 173093, Tempo, 705882
1, 173102, Tempo, 714285
1, 173110, Tempo, 722891
1, 173119, Tempo, 731707
1, 173127, Tempo, 740740
1, 173135, Tempo, 750000
1, 173144, Tempo, 759493
1, 173152, Tempo, 769230
1, 173161, Tempo, 779220
1, 173169, Tempo, 789473
1, 173177, Tempo, 800000
1, 173186, Tempo, 810810
1, 173194, Tempo, 821917
1, 173203, Tempo, 833333
1, 173211, Tempo, 845070
1, 173219, Tempo, 857142
1, 173228, Tempo, 869565
1, 173236, Tempo, 882352
1, 173245, Tempo, 895522
1, 173253, Tempo, 909090
1, 173261, Tempo, 923076
1, 173270, Tempo, 937500
1, 173278, Tempo, 952380
1, 173287, Tempo, 967741
1, 173295, Tempo, 983606
1, 173303, Tempo, 1000000
1, 173312, Tempo, 1016949
1, 173320, Tempo, 1034482
1, 173329, Tempo, 1052631
1, 173337, Tempo, 1071428
1, 173345, Tempo, 1090909
1, 173354, Tempo, 1111111
1, 173362, Tempo, 1132075
1, 173371, Tempo, 1153846
1, 173379, Tempo, 1176470
1, 173387, Tempo, 1200000
1, 173396, Tempo, 1224489
1, 173404, Tempo, 1250000
1, 173413, Tempo, 1276595
1, 173421, Tempo, 1304347
1, 173429, Tempo, 1333333
1, 173438, Tempo, 1363636
1, 173446, Tempo, 1395348
1, 173455, Tempo, 1428571
1, 173463, Tempo, 1463414
1, 173472, Tempo, 1500000
1, 173472, End_track
2, 0, Start_track
2, 0, MIDI_port, 0
2, 0, Title_t, "Oboe I"
2, 0, Program_c, 1, 68
2, 0, Control_c, 1, 7, 80
2, 0, Control_c, 1, 10, 64
2, 0, Note_on_c, 1, 69, 92
2, 160, Note_on_c, 1, 69, 0
2, 192, Note_on_c, 1, 69, 92
2, 528, Note_on_c, 1, 69, 0
2, 576, Note_on_c, 1, 69, 92
2, 736, Note_on_c, 1, 69, 0
2, 768, Note_on_c, 1, 71, 92
2, 928, Note_on_c, 1, 71, 0
2, 960, Note_on_c, 1, 67, 92
2, 1102, Note_on_c, 1, 67, 0
2, 1104, Note_on_c, 1, 69, 92
2, 1150, Note_on_c, 1, 69, 0
2, 1152, Note_on_c, 1, 71, 92
2, 1312, Note_on_c, 1, 71, 0
2, 1344, Note_on_c, 1, 73, 92
2, 1504, Note_on_c, 1, 73, 0
2, 1536, Note_on_c, 1, 73, 92
2, 1632, Note_on_c, 1, 73, 0
2, 1632, Note_on_c, 1, 74, 92
2, 1726, Note_on_c, 1, 74, 0
2, 1728, Note_on_c, 1, 74, 92
2, 2064, Note_on_c, 1, 74, 0
2, 2112, Note_on_c, 1, 73, 92
2, 2160, Note_on_c, 1, 73, 0
2, 2160, Note_on_c, 1, 74, 92
2, 2208, Note_on_c, 1, 74, 0
2, 2208, Note_on_c, 1, 73, 92
2, 2256, Note_on_c, 1, 73, 0
2, 2256, Note_on_c, 1, 74, 92
2, 2302, Note_on_c, 1, 74, 0
2, 2304, Note_on_c, 1, 79, 92
2, 2832, Note_on_c, 1, 79, 0
2, 2880, Note_on_c, 1, 76, 92
2, 3040, Note_on_c, 1, 76, 0
2, 3072, Note_on_c, 1, 77, 92
2, 3168, Note_on_c, 1, 77, 0
2, 3168, Note_on_c, 1, 78, 92
2, 3262, Note_on_c, 1, 78, 0
2, 3264, Note_on_c, 1, 78, 92
2, 3296, Note_on_c, 1, 78, 0
2, 3360, Note_on_c, 1, 78, 92
2, 3392, Note_on_c, 1, 78, 0
2, 3456, Note_on_c, 1, 78, 92
2, 3616, Note_on_c, 1, 78, 0
2, 5376, Note_on_c, 1, 79, 92
2, 5568, Note_on_c, 1, 79, 0
2, 5568, Note_on_c, 1, 76, 92
2, 5728, Note_on_c, 1, 76, 0
2, 5760, Note_on_c, 1, 81, 92
2, 5952, Note_on_c, 1, 81, 0
2, 5952, Note_on_c, 1, 78, 92
2, 6112, Note_on_c, 1, 78, 0
2, 6144, Note_on_c, 1, 79, 92
2, 6336, Note_on_c, 1, 79, 0
2, 6336, Note_on_c, 1, 78, 92
2, 6496, Note_on_c, 1, 78, 0
2, 6528, Note_on_c, 1, 76, 92
2, 6720, Note_on_c, 1, 76, 0
2, 6720, Note_on_c, 1, 85, 92
2, 6880, Note_on_c, 1, 85, 0
2, 6912, Note_on_c, 1, 86, 92
2, 7632, Note_on_c, 1, 86, 0
2, 7680, Note_on_c, 1, 85, 92
2, 7840, Note_on_c, 1, 85, 0
2, 7872, Note_on_c, 1, 85, 92
2, 8032, Note_on_c, 1, 85, 0
2, 8064, Note_on_c, 1, 81, 92
2, 8224, Note_on_c, 1, 81, 0
2, 16896, Note_on_c, 1, 84, 92
2, 17616, Note_on_c, 1, 84, 0
2, 17664, Note_on_c, 1, 83, 92
2, 17856, Note_on_c, 1, 83, 0
2, 17856, Note_on_c, 1, 86, 92
2, 18016, Note_on_c, 1, 86, 0
2, 18048, Note_on_c, 1, 83, 92
2, 18240, Note_on_c, 1, 83, 0
2, 18240, Note_on_c, 1, 79, 92
2, 18400, Note_on_c, 1, 79, 0
2, 18432, Note_on_c, 1, 78, 92
2, 18592, Note_on_c, 1, 78, 0
2, 18624, Note_on_c, 1, 81, 92
2, 18718, Note_on_c, 1, 81, 0
2, 18720, Note_on_c, 1, 81, 92
2, 18814, Note_on_c, 1, 81, 0
2, 18816, Note_on_c, 1, 81, 92
2, 18912, Note_on_c, 1, 81, 0
2, 18912, Note_on_c, 1, 78, 92
2, 19006, Note_on_c, 1, 78, 0
2, 19008, Note_on_c, 1, 79, 92
2, 19104, Note_on_c, 1, 79, 0
2, 19104, Note_on_c, 1, 76, 92
2, 19198, Note_on_c, 1, 76, 0
2, 19200, Note_on_c, 1, 74, 92
2, 19360, Note_on_c, 1, 74, 0
2, 20160, Note_on_c, 1, 86, 92
2, 20254, Note_on_c, 1, 86, 0
2, 20256, Note_on_c, 1, 81, 92
2, 20350, Note_on_c, 1, 81, 0
2, 20352, Note_on_c, 1, 78, 92
2, 20494, Note_on_c, 1, 78, 0
2, 20496, Note_on_c, 1, 81, 92
2, 20542, Note_on_c, 1, 81, 0
2, 20544, Note_on_c, 1, 81, 92
2, 20590, Note_on_c, 1, 81, 0
2, 20592, Note_on_c, 1, 79, 92
2, 20638, Note_on_c, 1, 79, 0
2, 20640, Note_on_c, 1, 78, 92
2, 20686, Note_on_c, 1, 78, 0
2, 20688, Note_on_c, 1, 76, 92
2, 20734, Note_on_c, 1, 76, 0
2, 20736, Note_on_c, 1, 74, 92
2, 20830, Note_on_c, 1, 74, 0
2, 21696, Note_on_c, 1, 86, 92
2, 21790, Note_on_c, 1, 86, 0
2, 21792, Note_on_c, 1, 81, 92
2, 21886, Note_on_c, 1, 81, 0
2, 21888, Note_on_c, 1, 78, 92
2, 22030, Note_on_c, 1, 78, 0
2, 22032, Note_on_c, 1, 81, 92
2, 22078, Note_on_c, 1, 81, 0
2, 22080, Note_on_c, 1, 81, 92
2, 22126, Note_on_c, 1, 81, 0
2, 22128, Note_on_c, 1, 79, 92
2, 22174, Note_on_c, 1, 79, 0
2, 22176, Note_on_c, 1, 78, 92
2, 22222, Note_on_c, 1, 78, 0
2, 22224, Note_on_c, 1, 76, 92
2, 22270, Note_on_c, 1, 76, 0
2, 22272, Note_on_c, 1, 74, 92
2, 22432, Note_on_c, 1, 74, 0
2, 22464, Note_on_c, 1, 62, 92
2, 22558, Note_on_c, 1, 62, 0
2, 22560, Note_on_c, 1, 66, 92
2, 22654, Note_on_c, 1, 66, 0
2, 22656, Note_on_c, 1, 69, 92
2, 22750, Note_on_c, 1, 69, 0
2, 22752, Note_on_c, 1, 69, 92
2, 22846, Note_on_c, 1, 69, 0
2, 22848, Note_on_c, 1, 69, 92
2, 22942, Note_on_c, 1, 69, 0
2, 22944, Note_on_c, 1, 69, 92
2, 23038, Note_on_c, 1, 69, 0
2, 23040, Note_on_c, 1, 69, 92
2, 23200, Note_on_c, 1, 69, 0
2, 23808, Note_on_c, 1, 81, 45
2, 24192, Note_on_c, 1, 81, 0
2, 24192, Note_on_c, 1, 79, 45
2, 24528, Note_on_c, 1, 79, 0
2, 24576, Note_on_c, 1, 78, 45
2, 24736, Note_on_c, 1, 78, 0
2, 35520, Note_on_c, 1, 86, 92
2, 35614, Note_on_c, 1, 86, 0
2, 35616, Note_on_c, 1, 81, 92
2, 35710, Note_on_c, 1, 81, 0
2, 35712, Note_on_c, 1, 78, 92
2, 35854, Note_on_c, 1, 78, 0
2, 35856, Note_on_c, 1, 81, 92
2, 35902, Note_on_c, 1, 81, 0
2, 35904, Note_on_c, 1, 81, 92
2, 35950, Note_on_c, 1, 81, 0
2, 35952, Note_on_c, 1, 79, 92
2, 35998, Note_on_c, 1, 79, 0
2, 36000, Note_on_c, 1, 78, 92
2, 36046, Note_on_c, 1, 78, 0
2, 36048, Note_on_c, 1, 76, 92
2, 36094, Note_on_c, 1, 76, 0
2, 36096, Note_on_c, 1, 74, 92
2, 36256, Note_on_c, 1, 74, 0
2, 36288, Note_on_c, 1, 62, 92
2, 36382, Note_on_c, 1, 62, 0
2, 36384, Note_on_c, 1, 66, 92
2, 36478, Note_on_c, 1, 66, 0
2, 36480, Note_on_c, 1, 69, 92
2, 36574, Note_on_c, 1, 69, 0
2, 36576, Note_on_c, 1, 69, 92
2, 36670, Note_on_c, 1, 69, 0
2, 36672, Note_on_c, 1, 69, 92
2, 36766, Note_on_c, 1, 69, 0
2, 36768, Note_on_c, 1, 69, 92
2, 36862, Note_on_c, 1, 69, 0
2, 36864, Note_on_c, 1, 69, 92
2, 37024, Note_on_c, 1, 69, 0
2, 49536, Note_on_c, 1, 74, 45
2, 49630, Note_on_c, 1, 74, 0
2, 49632, Note_on_c, 1, 74, 45
2, 49726, Note_on_c, 1, 74, 0
2, 49728, Note_on_c, 1, 74, 45
2, 49822, Note_on_c, 1, 74, 0
2, 49824, Note_on_c, 1, 74, 45
2, 49918, Note_on_c, 1, 74, 0
2, 49920, Note_on_c, 1, 74, 45
2, 50080, Note_on_c, 1, 74, 0
2, 50304, Note_on_c, 1, 80, 45
2, 50398, Note_on_c, 1, 80, 0
2, 50400, Note_on_c, 1, 80, 45
2, 50494, Note_on_c, 1, 80, 0
2, 50496, Note_on_c, 1, 80, 45
2, 50590, Note_on_c, 1, 80, 0
2, 50592, Note_on_c, 1, 80, 45
2, 50686, Note_on_c, 1, 80, 0
2, 50688, Note_on_c, 1, 80, 45
2, 51408, Note_on_c, 1, 80, 0
2, 51456, Note_on_c, 1, 81, 45
2, 51616, Note_on_c, 1, 81, 0
2, 57672, Note_on_c, 1, 83, 92
2, 57694, Note_on_c, 1, 83, 0
2, 57696, Note_on_c, 1, 81, 92
2, 57742, Note_on_c, 1, 81, 0
2, 57744, Note_on_c, 1, 80, 92
2, 57790, Note_on_c, 1, 80, 0
2, 57792, Note_on_c, 1, 81, 92
2, 57886, Note_on_c, 1, 81, 0
2, 57888, Note_on_c, 1, 83, 92
2, 57982, Note_on_c, 1, 83, 0
2, 57984, Note_on_c, 1, 85, 92
2, 58054, Note_on_c, 1, 85, 0
2, 58056, Note_on_c, 1, 74, 92
2, 58078, Note_on_c, 1, 74, 0
2, 58080, Note_on_c, 1, 73, 92
2, 58126, Note_on_c, 1, 73, 0
2, 58128, Note_on_c, 1, 71, 92
2, 58174, Note_on_c, 1, 71, 0
2, 58176, Note_on_c, 1, 73, 92
2, 58270, Note_on_c, 1, 73, 0
2, 58272, Note_on_c, 1, 75, 92
2, 58366, Note_on_c, 1, 75, 0
2, 58368, Note_on_c, 1, 76, 92
2, 58528, Note_on_c, 1, 76, 0
2, 58560, Note_on_c, 1, 64, 92
2, 58720, Note_on_c, 1, 64, 0
2, 58752, Note_on_c, 1, 64, 92
2, 58912, Note_on_c, 1, 64, 0
2, 70752, Note_on_c, 1, 73, 45
2, 70846, Note_on_c, 1, 73, 0
2, 70848, Note_on_c, 1, 73, 45
2, 70942, Note_on_c, 1, 73, 0
2, 70944, Note_on_c, 1, 73, 45
2, 71038, Note_on_c, 1, 73, 0
2, 71040, Note_on_c, 1, 73, 45
2, 71200, Note_on_c, 1, 73, 0
2, 71520, Note_on_c, 1, 71, 45
2, 71614, Note_on_c, 1, 71, 0
2, 71616, Note_on_c, 1, 71, 45
2, 71710, Note_on_c, 1, 71, 0
2, 71712, Note_on_c, 1, 71, 45
2, 71806, Note_on_c, 1, 71, 0
2, 71808, Note_on_c, 1, 71, 45
2, 71968, Note_on_c, 1, 71, 0
2, 73344, Note_on_c, 1, 80, 45
2, 73680, Note_on_c, 1, 80, 0
2, 73728, Note_on_c, 1, 81, 92
2, 74064, Note_on_c, 1, 81, 0
2, 74112, Note_on_c, 1, 79, 92
2, 74448, Note_on_c, 1, 79, 0
2, 74496, Note_on_c, 1, 78, 92
2, 74688, Note_on_c, 1, 78, 0
2, 74688, Note_on_c, 1, 81, 92
2, 74848, Note_on_c, 1, 81, 0
2, 74880, Note_on_c, 1, 78, 92
2, 75072, Note_on_c, 1, 78, 0
2, 75072, Note_on_c, 1, 74, 92
2, 75232, Note_on_c, 1, 74, 0
2, 75264, Note_on_c, 1, 73, 92
2, 75424, Note_on_c, 1, 73, 0
2, 75456, Note_on_c, 1, 76, 92
2, 75550, Note_on_c, 1, 76, 0
2, 75552, Note_on_c, 1, 76, 92
2, 75646, Note_on_c, 1, 76, 0
2, 75648, Note_on_c, 1, 76, 92
2, 75744, Note_on_c, 1, 76, 0
2, 75744, Note_on_c, 1, 73, 92
2, 75838, Note_on_c, 1, 73, 0
2, 75840, Note_on_c, 1, 74, 92
2, 75936, Note_on_c, 1, 74, 0
2, 75936, Note_on_c, 1, 71, 92
2, 76030, Note_on_c, 1, 71, 0
2, 76032, Note_on_c, 1, 69, 92
2, 76192, Note_on_c, 1, 69, 0
2, 76992, Note_on_c, 1, 81, 92
2, 77086, Note_on_c, 1, 81, 0
2, 77088, Note_on_c, 1, 76, 92
2, 77182, Note_on_c, 1, 76, 0
2, 77184, Note_on_c, 1, 73, 92
2, 77326, Note_on_c, 1, 73, 0
2, 77328, Note_on_c, 1, 76, 92
2, 77374, Note_on_c, 1, 76, 0
2, 77376, Note_on_c, 1, 76, 92
2, 77422, Note_on_c, 1, 76, 0
2, 77424, Note_on_c, 1, 74, 92
2, 77470, Note_on_c, 1, 74, 0
2, 77472, Note_on_c, 1, 73, 92
2, 77518, Note_on_c, 1, 73, 0
2, 77520, Note_on_c, 1, 71, 92
2, 77566, Note_on_c, 1, 71, 0
2, 77568, Note_on_c, 1, 69, 92
2, 77662, Note_on_c, 1, 69, 0
2, 78528, Note_on_c, 1, 81, 92
2, 78622, Note_on_c, 1, 81, 0
2, 78624, Note_on_c, 1, 76, 92
2, 78718, Note_on_c, 1, 76, 0
2, 78720, Note_on_c, 1, 73, 92
2, 78862, Note_on_c, 1, 73, 0
2, 78864, Note_on_c, 1, 76, 92
2, 78910, Note_on_c, 1, 76, 0
2, 78912, Note_on_c, 1, 76, 92
2, 78958, Note_on_c, 1, 76, 0
2, 78960, Note_on_c, 1, 74, 92
2, 79006, Note_on_c, 1, 74, 0
2, 79008, Note_on_c, 1, 73, 92
2, 79054, Note_on_c, 1, 73, 0
2, 79056, Note_on_c, 1, 71, 92
2, 79102, Note_on_c, 1, 71, 0
2, 79104, Note_on_c, 1, 73, 92
2, 79264, Note_on_c, 1, 73, 0
2, 79296, Note_on_c, 1, 76, 92
2, 79390, Note_on_c, 1, 76, 0
2, 79392, Note_on_c, 1, 81, 92
2, 79486, Note_on_c, 1, 81, 0
2, 79488, Note_on_c, 1, 73, 92
2, 79648, Note_on_c, 1, 73, 0
2, 79680, Note_on_c, 1, 76, 92
2, 79726, Note_on_c, 1, 76, 0
2, 79728, Note_on_c, 1, 74, 92
2, 79774, Note_on_c, 1, 74, 0
2, 79776, Note_on_c, 1, 73, 92
2, 79822, Note_on_c, 1, 73, 0
2, 79824, Note_on_c, 1, 71, 92
2, 79870, Note_on_c, 1, 71, 0
2, 79872, Note_on_c, 1, 69, 92
2, 80032, Note_on_c, 1, 69, 0
2, 89856, Note_on_c, 1, 81, 45
2, 90784, Note_on_c, 1, 81, 0
2, 91392, Note_on_c, 1, 69, 92
2, 91552, Note_on_c, 1, 69, 0
2, 91584, Note_on_c, 1, 69, 92
2, 91920, Note_on_c, 1, 69, 0
2, 91968, Note_on_c, 1, 69, 92
2, 92128, Note_on_c, 1, 69, 0
2, 92160, Note_on_c, 1, 71, 92
2, 92320, Note_on_c, 1, 71, 0
2, 92352, Note_on_c, 1, 67, 92
2, 92494, Note_on_c, 1, 67, 0
2, 92496, Note_on_c, 1, 69, 92
2, 92542, Note_on_c, 1, 69, 0
2, 92544, Note_on_c, 1, 71, 92
2, 92704, Note_on_c, 1, 71, 0
2, 92736, Note_on_c, 1, 73, 92
2, 92896, Note_on_c, 1, 73, 0
2, 92928, Note_on_c, 1, 73, 45
2, 93024, Note_on_c, 1, 73, 0
2, 93024, Note_on_c, 1, 74, 45
2, 93118, Note_on_c, 1, 74, 0
2, 104448, Note_on_c, 1, 76, 45
2, 104640, Note_on_c, 1, 76, 0
2, 104640, Note_on_c, 1, 78, 45
2, 104832, Note_on_c, 1, 78, 0
2, 104832, Note_on_c, 1, 76, 45
2, 105024, Note_on_c, 1, 76, 0
2, 105024, Note_on_c, 1, 78, 45
2, 105184, Note_on_c, 1, 78, 0
2, 105216, Note_on_c, 1, 76, 45
2, 105376, Note_on_c, 1, 76, 0
2, 105984, Note_on_c, 1, 78, 45
2, 106176, Note_on_c, 1, 78, 0
2, 106176, Note_on_c, 1, 76, 45
2, 106368, Note_on_c, 1, 76, 0
2, 106368, Note_on_c, 1, 78, 45
2, 106560, Note_on_c, 1, 78, 0
2, 106560, Note_on_c, 1, 76, 45
2, 106720, Note_on_c, 1, 76, 0
2, 106752, Note_on_c, 1, 78, 45
2, 106912, Note_on_c, 1, 78, 0
2, 107520, Note_on_c, 1, 76, 45
2, 107712, Note_on_c, 1, 76, 0
2, 107712, Note_on_c, 1, 78, 45
2, 107904, Note_on_c, 1, 78, 0
2, 107904, Note_on_c, 1, 76, 45
2, 108096, Note_on_c, 1, 76, 0
2, 108096, Note_on_c, 1, 78, 45
2, 108256, Note_on_c, 1, 78, 0
2, 108288, Note_on_c, 1, 76, 45
2, 108448, Note_on_c, 1, 76, 0
2, 115200, Note_on_c, 1, 86, 92
2, 115920, Note_on_c, 1, 86, 0
2, 115968, Note_on_c, 1, 85, 92
2, 116128, Note_on_c, 1, 85, 0
2, 116160, Note_on_c, 1, 85, 92
2, 116320, Note_on_c, 1, 85, 0
2, 116352, Note_on_c, 1, 81, 92
2, 116512, Note_on_c, 1, 81, 0
2, 129888, Note_on_c, 1, 74, 45
2, 129982, Note_on_c, 1, 74, 0
2, 129984, Note_on_c, 1, 74, 45
2, 130078, Note_on_c, 1, 74, 0
2, 130080, Note_on_c, 1, 74, 45
2, 130174, Note_on_c, 1, 74, 0
2, 130176, Note_on_c, 1, 74, 45
2, 130336, Note_on_c, 1, 74, 0
2, 130656, Note_on_c, 1, 71, 45
2, 130750, Note_on_c, 1, 71, 0
2, 130752, Note_on_c, 1, 71, 45
2, 130846, Note_on_c, 1, 71, 0
2, 130848, Note_on_c, 1, 71, 45
2, 130942, Note_on_c, 1, 71, 0
2, 130944, Note_on_c, 1, 71, 45
2, 131104, Note_on_c, 1, 71, 0
2, 132480, Note_on_c, 1, 73, 45
2, 132816, Note_on_c, 1, 73, 0
2, 132864, Note_on_c, 1, 74, 92
2, 133024, Note_on_c, 1, 74, 0
2, 133056, Note_on_c, 1, 86, 92
2, 135120, Note_on_c, 1, 86, 0
2, 135168, Note_on_c, 1, 86, 92
2, 135328, Note_on_c, 1, 86, 0
2, 135360, Note_on_c, 1, 86, 92
2, 135502, Note_on_c, 1, 86, 0
2, 135504, Note_on_c, 1, 86, 92
2, 135550, Note_on_c, 1, 86, 0
2, 135552, Note_on_c, 1, 86, 92
2, 135712, Note_on_c, 1, 86, 0
2, 135744, Note_on_c, 1, 86, 92
2, 135904, Note_on_c, 1, 86, 0
2, 135936, Note_on_c, 1, 69, 92
2, 136272, Note_on_c, 1, 69, 0
2, 165888, Note_on_c, 1, 74, 92
2, 166224, Note_on_c, 1, 74, 0
2, 166272, Note_on_c, 1, 84, 92
2, 166608, Note_on_c, 1, 84, 0
2, 166656, Note_on_c, 1, 83, 92
2, 166848, Note_on_c, 1, 83, 0
2, 166848, Note_on_c, 1, 86, 92
2, 167008, Note_on_c, 1, 86, 0
2, 167040, Note_on_c, 1, 83, 92
2, 167232, Note_on_c, 1, 83, 0
2, 167232, Note_on_c, 1, 79, 92
2, 167392, Note_on_c, 1, 79, 0
2, 167424, Note_on_c, 1, 78, 92
2, 167584, Note_on_c, 1, 78, 0
2, 167616, Note_on_c, 1, 81, 92
2, 167710, Note_on_c, 1, 81, 0
2, 167712, Note_on_c, 1, 81, 92
2, 167806, Note_on_c, 1, 81, 0
2, 167808, Note_on_c, 1, 81, 92
2, 167904, Note_on_c, 1, 81, 0
2, 167904, Note_on_c, 1, 78, 92
2, 167998, Note_on_c, 1, 78, 0
2, 168000, Note_on_c, 1, 79, 92
2, 168096, Note_on_c, 1, 79, 0
2, 168096, Note_on_c, 1, 76, 92
2, 168190, Note_on_c, 1, 76, 0
2, 168192, Note_on_c, 1, 74, 92
2, 168352, Note_on_c, 1, 74, 0
2, 169152, Note_on_c, 1, 86, 92
2, 169246, Note_on_c, 1, 86, 0
2, 169248, Note_on_c, 1, 81, 92
2, 169342, Note_on_c, 1, 81, 0
2, 169344, Note_on_c, 1, 78, 92
2, 169486, Note_on_c, 1, 78, 0
2, 169488, Note_on_c, 1, 81, 92
2, 169534, Note_on_c, 1, 81, 0
2, 169536, Note_on_c, 1, 81, 92
2, 169582, Note_on_c, 1, 81, 0
2, 169584, Note_on_c, 1, 79, 92
2, 169630, Note_on_c, 1, 79, 0
2, 169632, Note_on_c, 1, 78, 92
2, 169678, Note_on_c, 1, 78, 0
2, 169680, Note_on_c, 1, 76, 92
2, 169726, Note_on_c, 1, 76, 0
2, 169728, Note_on_c, 1, 74, 92
2, 169822, Note_on_c, 1, 74, 0
2, 170688, Note_on_c, 1, 86, 92
2, 170782, Note_on_c, 1, 86, 0
2, 170784, Note_on_c, 1, 81, 92
2, 170878, Note_on_c, 1, 81, 0
2, 170880, Note_on_c, 1, 78, 92
2, 171022, Note_on_c, 1, 78, 0
2, 171024, Note_on_c, 1, 81, 92
2, 171070, Note_on_c, 1, 81, 0
2, 171072, Note_on_c, 1, 81, 92
2, 171118, Note_on_c, 1, 81, 0
2, 171120, Note_on_c, 1, 79, 92
2, 171166, Note_on_c, 1, 79, 0
2, 171168, Note_on_c, 1, 78, 92
2, 171214, Note_on_c, 1, 78, 0
2, 171216, Note_on_c, 1, 76, 92
2, 171262, Note_on_c, 1, 76, 0
2, 171264, Note_on_c, 1, 74, 92
2, 171424, Note_on_c, 1, 74, 0
2, 171456, Note_on_c, 1, 62, 92
2, 171550, Note_on_c, 1, 62, 0
2, 171552, Note_on_c, 1, 66, 92
2, 171646, Note_on_c, 1, 66, 0
2, 171648, Note_on_c, 1, 69, 92
2, 171742, Note_on_c, 1, 69, 0
2, 171744, Note_on_c, 1, 69, 92
2, 171838, Note_on_c, 1, 69, 0
2, 171840, Note_on_c, 1, 69, 92
2, 171934, Note_on_c, 1, 69, 0
2, 171936, Note_on_c, 1, 69, 92
2, 172030, Note_on_c, 1, 69, 0
2, 172032, Note_on_c, 1, 69, 92
2, 172192, Note_on_c, 1, 69, 0
2, 172512, Note_on_c, 1, 74, 92
2, 172606, Note_on_c, 1, 74, 0
2, 172608, Note_on_c, 1, 76, 92
2, 172632, Note_on_c, 1, 76, 0
2, 172632, Note_on_c, 1, 74, 92
2, 172656, Note_on_c, 1, 74, 0
2, 172656, Note_on_c, 1, 76, 92
2, 172680, Note_on_c, 1, 76, 0
2, 172680, Note_on_c, 1, 74, 92
2, 172704, Note_on_c, 1, 74, 0
2, 172704, Note_on_c, 1, 76, 92
2, 172728, Note_on_c, 1, 76, 0
2, 172728, Note_on_c, 1, 74, 92
2, 172752, Note_on_c, 1, 74, 0
2, 172752, Note_on_c, 1, 73, 92
2, 172776, Note_on_c, 1, 73, 0
2, 172776, Note_on_c, 1, 74, 92
2, 172798, Note_on_c, 1, 74, 0
2, 172800, Note_on_c, 1, 78, 92
2, 172832, Note_on_c, 1, 78, 0
2, 172896, Note_on_c, 1, 74, 92
2, 172928, Note_on_c, 1, 74, 0
2, 172992, Note_on_c, 1, 69, 92
2, 173024, Note_on_c, 1, 69, 0
2, 173088, Note_on_c, 1, 66, 92
2, 173120, Note_on_c, 1, 66, 0
2, 173184, Note_on_c, 1, 62, 92
2, 173440, Note_on_c, 1, 62, 0
2, 173440, End_track
3, 0, Start_track
3, 0, MIDI_port, 0
3, 0, Title_t, "Oboe II"
3, 0, Program_c, 1, 68
3, 0, Control_c, 1, 7, 80
3, 0, Control_c, 1, 10, 64
3, 0, Note_on_c, 1, 66, 92
3, 160, Note_on_c, 1, 66, 0
3, 192, Note_on_c, 1, 66, 92
3, 528, Note_on_c, 1, 66, 0
3, 576, Note_on_c, 1, 67, 92
3, 624, Note_on_c, 1, 67, 0
3, 624, Note_on_c, 1, 66, 92
3, 672, Note_on_c, 1, 66, 0
3, 672, Note_on_c, 1, 67, 92
3, 720, Note_on_c, 1, 67, 0
3, 720, Note_on_c, 1, 66, 92
3, 766, Note_on_c, 1, 66, 0
3, 768, Note_on_c, 1, 67, 92
3, 1296, Note_on_c, 1, 67, 0
3, 1344, Note_on_c, 1, 64, 92
3, 1504, Note_on_c, 1, 64, 0
3, 1536, Note_on_c, 1, 69, 92
3, 1696, Note_on_c, 1, 69, 0
3, 1728, Note_on_c, 1, 69, 92
3, 2064, Note_on_c, 1, 69, 0
3, 2112, Note_on_c, 1, 69, 92
3, 2272, Note_on_c, 1, 69, 0
3, 2304, Note_on_c, 1, 71, 92
3, 2464, Note_on_c, 1, 71, 0
3, 2496, Note_on_c, 1, 67, 92
3, 2638, Note_on_c, 1, 67, 0
3, 2640, Note_on_c, 1, 69, 92
3, 2686, Note_on_c, 1, 69, 0
3, 2688, Note_on_c, 1, 71, 92
3, 2848, Note_on_c, 1, 71, 0
3, 2880, Note_on_c, 1, 73, 92
3, 3040, Note_on_c, 1, 73, 0
3, 3072, Note_on_c, 1, 74, 92
3, 3166, Note_on_c, 1, 74, 0
3, 3168, Note_on_c, 1, 69, 92
3, 3262, Note_on_c, 1, 69, 0
3, 3264, Note_on_c, 1, 78, 92
3, 3296, Note_on_c, 1, 78, 0
3, 3360, Note_on_c, 1, 78, 92
3, 3392, Note_on_c, 1, 78, 0
3, 3456, Note_on_c, 1, 78, 92
3, 3616, Note_on_c, 1, 78, 0
3, 5376, Note_on_c, 1, 76, 92
3, 5568, Note_on_c, 1, 76, 0
3, 5568, Note_on_c, 1, 73, 92
3, 5728, Note_on_c, 1, 73, 0
3, 5760, Note_on_c, 1, 78, 92
3, 5952, Note_on_c, 1, 78, 0
3, 5952, Note_on_c, 1, 74, 92
3, 6112, Note_on_c, 1, 74, 0
3, 6144, Note_on_c, 1, 76, 92
3, 6336, Note_on_c, 1, 76, 0
3, 6336, Note_on_c, 1, 74, 92
3, 6496, Note_on_c, 1, 74, 0
3, 6528, Note_on_c, 1, 73, 92
3, 6720, Note_on_c, 1, 73, 0
3, 6720, Note_on_c, 1, 76, 92
3, 6880, Note_on_c, 1, 76, 0
3, 6912, Note_on_c, 1, 74, 92
3, 6982, Note_on_c, 1, 74, 0
3, 6984, Note_on_c, 1, 76, 92
3, 7006, Note_on_c, 1, 76, 0
3, 7008, Note_on_c, 1, 74, 92
3, 7054, Note_on_c, 1, 74, 0
3, 7056, Note_on_c, 1, 73, 92
3, 7102, Note_on_c, 1, 73, 0
3, 7104, Note_on_c, 1, 74, 92
3, 7198, Note_on_c, 1, 74, 0
3, 7200, Note_on_c, 1, 76, 92
3, 7294, Note_on_c, 1, 76, 0
3, 7296, Note_on_c, 1, 78, 92
3, 7366, Note_on_c, 1, 78, 0
3, 7368, Note_on_c, 1, 79, 92
3, 7390, Note_on_c, 1, 79, 0
3, 7392, Note_on_c, 1, 78, 92
3, 7438, Note_on_c, 1, 78, 0
3, 7440, Note_on_c, 1, 76, 92
3, 7486, Note_on_c, 1, 76, 0
3, 7488, Note_on_c, 1, 78, 92
3, 7582, Note_on_c, 1, 78, 0
3, 7584, Note_on_c, 1, 80, 92
3, 7678, Note_on_c, 1, 80, 0
3, 7680, Note_on_c, 1, 81, 92
3, 7840, Note_on_c, 1, 81, 0
3, 7872, Note_on_c, 1, 76, 92
3, 8032, Note_on_c, 1, 76, 0
3, 8064, Note_on_c, 1, 73, 92
3, 8224, Note_on_c, 1, 73, 0
3, 16896, Note_on_c, 1, 81, 92
3, 17616, Note_on_c, 1, 81, 0
3, 17664, Note_on_c, 1, 79, 92
3, 17856, Note_on_c, 1, 79, 0
3, 17856, Note_on_c, 1, 83, 92
3, 18016, Note_on_c, 1, 83, 0
3, 18048, Note_on_c, 1, 79, 92
3, 18240, Note_on_c, 1, 79, 0
3, 18240, Note_on_c, 1, 76, 92
3, 18400, Note_on_c, 1, 76, 0
3, 18432, Note_on_c, 1, 74, 92
3, 18592, Note_on_c, 1, 74, 0
3, 18624, Note_on_c, 1, 78, 92
3, 18718, Note_on_c, 1, 78, 0
3, 18720, Note_on_c, 1, 78, 92
3, 18814, Note_on_c, 1, 78, 0
3, 18816, Note_on_c, 1, 78, 92
3, 18912, Note_on_c, 1, 78, 0
3, 18912, Note_on_c, 1, 74, 92
3, 19006, Note_on_c, 1, 74, 0
3, 19008, Note_on_c, 1, 76, 92
3, 19104, Note_on_c, 1, 76, 0
3, 19104, Note_on_c, 1, 73, 92
3, 19198, Note_on_c, 1, 73, 0
3, 19200, Note_on_c, 1, 74, 92
3, 19360, Note_on_c, 1, 74, 0
3, 20160, Note_on_c, 1, 74, 92
3, 20254, Note_on_c, 1, 74, 0
3, 20256, Note_on_c, 1, 69, 92
3, 20350, Note_on_c, 1, 69, 0
3, 20352, Note_on_c, 1, 74, 92
3, 20494, Note_on_c, 1, 74, 0
3, 20496, Note_on_c, 1, 78, 92
3, 20542, Note_on_c, 1, 78, 0
3, 20544, Note_on_c, 1, 78, 92
3, 20590, Note_on_c, 1, 78, 0
3, 20592, Note_on_c, 1, 76, 92
3, 20638, Note_on_c, 1, 76, 0
3, 20640, Note_on_c, 1, 74, 92
3, 20686, Note_on_c, 1, 74, 0
3, 20688, Note_on_c, 1, 73, 92
3, 20734, Note_on_c, 1, 73, 0
3, 20736, Note_on_c, 1, 74, 92
3, 20830, Note_on_c, 1, 74, 0
3, 21696, Note_on_c, 1, 74, 92
3, 21790, Note_on_c, 1, 74, 0
3, 21792, Note_on_c, 1, 69, 92
3, 21886, Note_on_c, 1, 69, 0
3, 21888, Note_on_c, 1, 74, 92
3, 22030, Note_on_c, 1, 74, 0
3, 22032, Note_on_c, 1, 78, 92
3, 22078, Note_on_c, 1, 78, 0
3, 22080, Note_on_c, 1, 78, 92
3, 22126, Note_on_c, 1, 78, 0
3, 22128, Note_on_c, 1, 76, 92
3, 22174, Note_on_c, 1, 76, 0
3, 22176, Note_on_c, 1, 74, 92
3, 22222, Note_on_c, 1, 74, 0
3, 22224, Note_on_c, 1, 73, 92
3, 22270, Note_on_c, 1, 73, 0
3, 22272, Note_on_c, 1, 74, 92
3, 22432, Note_on_c, 1, 74, 0
3, 22464, Note_on_c, 1, 62, 92
3, 22558, Note_on_c, 1, 62, 0
3, 22560, Note_on_c, 1, 66, 92
3, 22654, Note_on_c, 1, 66, 0
3, 22656, Note_on_c, 1, 69, 92
3, 22750, Note_on_c, 1, 69, 0
3, 22752, Note_on_c, 1, 69, 92
3, 22846, Note_on_c, 1, 69, 0
3, 22848, Note_on_c, 1, 69, 92
3, 22942, Note_on_c, 1, 69, 0
3, 22944, Note_on_c, 1, 69, 92
3, 23038, Note_on_c, 1, 69, 0
3, 23040, Note_on_c, 1, 66, 92
3, 23200, Note_on_c, 1, 66, 0
3, 23808, Note_on_c, 1, 69, 45
3, 24736, Note_on_c, 1, 69, 0
3, 35520, Note_on_c, 1, 74, 92
3, 35614, Note_on_c, 1, 74, 0
3, 35616, Note_on_c, 1, 69, 92
3, 35710, Note_on_c, 1, 69, 0
3, 35712, Note_on_c, 1, 74, 92
3, 35854, Note_on_c, 1, 74, 0
3, 35856, Note_on_c, 1, 78, 92
3, 35902, Note_on_c, 1, 78, 0
3, 35904, Note_on_c, 1, 78, 92
3, 35950, Note_on_c, 1, 78, 0
3, 35952, Note_on_c, 1, 76, 92
3, 35998, Note_on_c, 1, 76, 0
3, 36000, Note_on_c, 1, 74, 92
3, 36046, Note_on_c, 1, 74, 0
3, 36048, Note_on_c, 1, 73, 92
3, 36094, Note_on_c, 1, 73, 0
3, 36096, Note_on_c, 1, 74, 92
3, 36256, Note_on_c, 1, 74, 0
3, 36288, Note_on_c, 1, 62, 92
3, 36382, Note_on_c, 1, 62, 0
3, 36384, Note_on_c, 1, 66, 92
3, 36478, Note_on_c, 1, 66, 0
3, 36480, Note_on_c, 1, 69, 92
3, 36574, Note_on_c, 1, 69, 0
3, 36576, Note_on_c, 1, 69, 92
3, 36670, Note_on_c, 1, 69, 0
3, 36672, Note_on_c, 1, 69, 92
3, 36766, Note_on_c, 1, 69, 0
3, 36768, Note_on_c, 1, 69, 92
3, 36862, Note_on_c, 1, 69, 0
3, 36864, Note_on_c, 1, 66, 92
3, 37024, Note_on_c, 1, 66, 0
3, 49536, Note_on_c, 1, 68, 45
3, 49630, Note_on_c, 1, 68, 0
3, 49632, Note_on_c, 1, 68, 45
3, 49726, Note_on_c, 1, 68, 0
3, 49728, Note_on_c, 1, 68, 45
3, 49822, Note_on_c, 1, 68, 0
3, 49824, Note_on_c, 1, 68, 45
3, 49918, Note_on_c, 1, 68, 0
3, 49920, Note_on_c, 1, 68, 45
3, 50080, Note_on_c, 1, 68, 0
3, 50304, Note_on_c, 1, 74, 45
3, 50398, Note_on_c, 1, 74, 0
3, 50400, Note_on_c, 1, 74, 45
3, 50494, Note_on_c, 1, 74, 0
3, 50496, Note_on_c, 1, 74, 45
3, 50590, Note_on_c, 1, 74, 0
3, 50592, Note_on_c, 1, 74, 45
3, 50686, Note_on_c, 1, 74, 0
3, 50688, Note_on_c, 1, 74, 45
3, 51408, Note_on_c, 1, 74, 0
3, 51456, Note_on_c, 1, 76, 45
3, 51616, Note_on_c, 1, 76, 0
3, 57600, Note_on_c, 1, 69, 92
3, 57856, Note_on_c, 1, 69, 0
3, 57888, Note_on_c, 1, 76, 92
3, 57982, Note_on_c, 1, 76, 0
3, 57984, Note_on_c, 1, 81, 92
3, 58320, Note_on_c, 1, 81, 0
3, 58368, Note_on_c, 1, 80, 92
3, 58528, Note_on_c, 1, 80, 0
3, 58560, Note_on_c, 1, 76, 92
3, 58720, Note_on_c, 1, 76, 0
3, 58752, Note_on_c, 1, 64, 92
3, 58912, Note_on_c, 1, 64, 0
3, 70752, Note_on_c, 1, 69, 45
3, 70846, Note_on_c, 1, 69, 0
3, 70848, Note_on_c, 1, 69, 45
3, 70942, Note_on_c, 1, 69, 0
3, 70944, Note_on_c, 1, 69, 45
3, 71038, Note_on_c, 1, 69, 0
3, 71040, Note_on_c, 1, 69, 45
3, 71200, Note_on_c, 1, 69, 0
3, 71520, Note_on_c, 1, 69, 45
3, 71614, Note_on_c, 1, 69, 0
3, 71616, Note_on_c, 1, 69, 45
3, 71710, Note_on_c, 1, 69, 0
3, 71712, Note_on_c, 1, 69, 45
3, 71806, Note_on_c, 1, 69, 0
3, 71808, Note_on_c, 1, 69, 45
3, 71968, Note_on_c, 1, 69, 0
3, 73344, Note_on_c, 1, 74, 45
3, 73680, Note_on_c, 1, 74, 0
3, 73728, Note_on_c, 1, 73, 92
3, 74064, Note_on_c, 1, 73, 0
3, 74112, Note_on_c, 1, 76, 92
3, 74448, Note_on_c, 1, 76, 0
3, 74496, Note_on_c, 1, 74, 92
3, 74688, Note_on_c, 1, 74, 0
3, 74688, Note_on_c, 1, 78, 92
3, 74848, Note_on_c, 1, 78, 0
3, 74880, Note_on_c, 1, 74, 92
3, 75072, Note_on_c, 1, 74, 0
3, 75072, Note_on_c, 1, 71, 92
3, 75232, Note_on_c, 1, 71, 0
3, 75264, Note_on_c, 1, 69, 92
3, 75424, Note_on_c, 1, 69, 0
3, 75456, Note_on_c, 1, 73, 92
3, 75550, Note_on_c, 1, 73, 0
3, 75552, Note_on_c, 1, 73, 92
3, 75646, Note_on_c, 1, 73, 0
3, 75648, Note_on_c, 1, 73, 92
3, 75744, Note_on_c, 1, 73, 0
3, 75744, Note_on_c, 1, 69, 92
3, 75838, Note_on_c, 1, 69, 0
3, 75840, Note_on_c, 1, 71, 92
3, 75936, Note_on_c, 1, 71, 0
3, 75936, Note_on_c, 1, 68, 92
3, 76030, Note_on_c, 1, 68, 0
3, 76032, Note_on_c, 1, 69, 92
3, 76192, Note_on_c, 1, 69, 0
3, 76992, Note_on_c, 1, 69, 92
3, 77086, Note_on_c, 1, 69, 0
3, 77088, Note_on_c, 1, 64, 92
3, 77182, Note_on_c, 1, 64, 0
3, 77184, Note_on_c, 1, 69, 92
3, 77326, Note_on_c, 1, 69, 0
3, 77328, Note_on_c, 1, 73, 92
3, 77374, Note_on_c, 1, 73, 0
3, 77376, Note_on_c, 1, 73, 92
3, 77422, Note_on_c, 1, 73, 0
3, 77424, Note_on_c, 1, 71, 92
3, 77470, Note_on_c, 1, 71, 0
3, 77472, Note_on_c, 1, 69, 92
3, 77518, Note_on_c, 1, 69, 0
3, 77520, Note_on_c, 1, 68, 92
3, 77566, Note_on_c, 1, 68, 0
3, 77568, Note_on_c, 1, 69, 92
3, 77662, Note_on_c, 1, 69, 0
3, 78528, Note_on_c, 1, 69, 92
3, 78622, Note_on_c, 1, 69, 0
3, 78624, Note_on_c, 1, 64, 92
3, 78718, Note_on_c, 1, 64, 0
3, 78720, Note_on_c, 1, 69, 92
3, 78862, Note_on_c, 1, 69, 0
3, 78864, Note_on_c, 1, 73, 92
3, 78910, Note_on_c, 1, 73, 0
3, 78912, Note_on_c, 1, 73, 92
3, 78958, Note_on_c, 1, 73, 0
3, 78960, Note_on_c, 1, 71, 92
3, 79006, Note_on_c, 1, 71, 0
3, 79008, Note_on_c, 1, 69, 92
3, 79054, Note_on_c, 1, 69, 0
3, 79056, Note_on_c, 1, 68, 92
3, 79102, Note_on_c, 1, 68, 0
3, 79104, Note_on_c, 1, 69, 92
3, 79264, Note_on_c, 1, 69, 0
3, 79296, Note_on_c, 1, 73, 92
3, 79390, Note_on_c, 1, 73, 0
3, 79392, Note_on_c, 1, 76, 92
3, 79486, Note_on_c, 1, 76, 0
3, 79488, Note_on_c, 1, 69, 92
3, 79648, Note_on_c, 1, 69, 0
3, 79680, Note_on_c, 1, 73, 92
3, 79726, Note_on_c, 1, 73, 0
3, 79728, Note_on_c, 1, 71, 92
3, 79774, Note_on_c, 1, 71, 0
3, 79776, Note_on_c, 1, 69, 92
3, 79822, Note_on_c, 1, 69, 0
3, 79824, Note_on_c, 1, 68, 92
3, 79870, Note_on_c, 1, 68, 0
3, 79872, Note_on_c, 1, 69, 92
3, 80032, Note_on_c, 1, 69, 0
3, 89856, Note_on_c, 1, 69, 45
3, 90784, Note_on_c, 1, 69, 0
3, 91392, Note_on_c, 1, 66, 92
3, 91552, Note_on_c, 1, 66, 0
3, 91584, Note_on_c, 1, 66, 92
3, 91920, Note_on_c, 1, 66, 0
3, 91968, Note_on_c, 1, 67, 92
3, 92016, Note_on_c, 1, 67, 0
3, 92016, Note_on_c, 1, 66, 92
3, 92064, Note_on_c, 1, 66, 0
3, 92064, Note_on_c, 1, 67, 92
3, 92112, Note_on_c, 1, 67, 0
3, 92112, Note_on_c, 1, 66, 92
3, 92158, Note_on_c, 1, 66, 0
3, 92160, Note_on_c, 1, 67, 92
3, 92688, Note_on_c, 1, 67, 0
3, 92736, Note_on_c, 1, 64, 92
3, 92896, Note_on_c, 1, 64, 0
3, 92928, Note_on_c, 1, 69, 45
3, 93088, Note_on_c, 1, 69, 0
3, 104448, Note_on_c, 1, 73, 45
3, 104640, Note_on_c, 1, 73, 0
3, 104640, Note_on_c, 1, 74, 45
3, 104832, Note_on_c, 1, 74, 0
3, 104832, Note_on_c, 1, 73, 45
3, 105024, Note_on_c, 1, 73, 0
3, 105024, Note_on_c, 1, 74, 45
3, 105184, Note_on_c, 1, 74, 0
3, 105216, Note_on_c, 1, 73, 45
3, 105376, Note_on_c, 1, 73, 0
3, 105984, Note_on_c, 1, 74, 45
3, 106176, Note_on_c, 1, 74, 0
3, 106176, Note_on_c, 1, 73, 45
3, 106368, Note_on_c, 1, 73, 0
3, 106368, Note_on_c, 1, 74, 45
3, 106560, Note_on_c, 1, 74, 0
3, 106560, Note_on_c, 1, 73, 45
3, 106720, Note_on_c, 1, 73, 0
3, 106752, Note_on_c, 1, 74, 45
3, 106912, Note_on_c, 1, 74, 0
3, 107520, Note_on_c, 1, 73, 45
3, 107712, Note_on_c, 1, 73, 0
3, 107712, Note_on_c, 1, 74, 45
3, 107904, Note_on_c, 1, 74, 0
3, 107904, Note_on_c, 1, 73, 45
3, 108096, Note_on_c, 1, 73, 0
3, 108096, Note_on_c, 1, 74, 45
3, 108256, Note_on_c, 1, 74, 0
3, 108288, Note_on_c, 1, 73, 45
3, 108448, Note_on_c, 1, 73, 0
3, 115200, Note_on_c, 1, 74, 92
3, 115270, Note_on_c, 1, 74, 0
3, 115272, Note_on_c, 1, 76, 92
3, 115294, Note_on_c, 1, 76, 0
3, 115296, Note_on_c, 1, 74, 92
3, 115342, Note_on_c, 1, 74, 0
3, 115344, Note_on_c, 1, 73, 92
3, 115390, Note_on_c, 1, 73, 0
3, 115392, Note_on_c, 1, 74, 92
3, 115486, Note_on_c, 1, 74, 0
3, 115488, Note_on_c, 1, 76, 92
3, 115582, Note_on_c, 1, 76, 0
3, 115584, Note_on_c, 1, 78, 92
3, 115654, Note_on_c, 1, 78, 0
3, 115656, Note_on_c, 1, 79, 92
3, 115678, Note_on_c, 1, 79, 0
3, 115680, Note_on_c, 1, 78, 92
3, 115726, Note_on_c, 1, 78, 0
3, 115728, Note_on_c, 1, 76, 92
3, 115774, Note_on_c, 1, 76, 0
3, 115776, Note_on_c, 1, 78, 92
3, 115870, Note_on_c, 1, 78, 0
3, 115872, Note_on_c, 1, 80, 92
3, 115966, Note_on_c, 1, 80, 0
3, 115968, Note_on_c, 1, 81, 92
3, 116128, Note_on_c, 1, 81, 0
3, 116160, Note_on_c, 1, 76, 92
3, 116320, Note_on_c, 1, 76, 0
3, 116352, Note_on_c, 1, 73, 92
3, 116512, Note_on_c, 1, 73, 0
3, 129888, Note_on_c, 1, 69, 45
3, 129982, Note_on_c, 1, 69, 0
3, 129984, Note_on_c, 1, 69, 45
3, 130078, Note_on_c, 1, 69, 0
3, 130080, Note_on_c, 1, 69, 45
3, 130174, Note_on_c, 1, 69, 0
3, 130176, Note_on_c, 1, 69, 45
3, 130336, Note_on_c, 1, 69, 0
3, 130656, Note_on_c, 1, 67, 45
3, 130750, Note_on_c, 1, 67, 0
3, 130752, Note_on_c, 1, 67, 45
3, 130846, Note_on_c, 1, 67, 0
3, 130848, Note_on_c, 1, 67, 45
3, 130942, Note_on_c, 1, 67, 0
3, 130944, Note_on_c, 1, 67, 45
3, 131104, Note_on_c, 1, 67, 0
3, 132480, Note_on_c, 1, 67, 45
3, 132816, Note_on_c, 1, 67, 0
3, 132864, Note_on_c, 1, 66, 92
3, 133024, Note_on_c, 1, 66, 0
3, 133056, Note_on_c, 1, 69, 92
3, 133392, Note_on_c, 1, 69, 0
3, 133440, Note_on_c, 1, 67, 92
3, 133488, Note_on_c, 1, 67, 0
3, 133488, Note_on_c, 1, 66, 92
3, 133536, Note_on_c, 1, 66, 0
3, 133536, Note_on_c, 1, 67, 92
3, 133584, Note_on_c, 1, 67, 0
3, 133584, Note_on_c, 1, 66, 92
3, 133630, Note_on_c, 1, 66, 0
3, 133632, Note_on_c, 1, 67, 92
3, 133728, Note_on_c, 1, 67, 0
3, 133728, Note_on_c, 1, 71, 92
3, 133822, Note_on_c, 1, 71, 0
3, 133824, Note_on_c, 1, 74, 92
3, 134160, Note_on_c, 1, 74, 0
3, 134208, Note_on_c, 1, 67, 92
3, 134256, Note_on_c, 1, 67, 0
3, 134256, Note_on_c, 1, 66, 92
3, 134304, Note_on_c, 1, 66, 0
3, 134304, Note_on_c, 1, 67, 92
3, 134352, Note_on_c, 1, 67, 0
3, 134352, Note_on_c, 1, 66, 92
3, 134398, Note_on_c, 1, 66, 0
3, 134400, Note_on_c, 1, 69, 92
3, 134496, Note_on_c, 1, 69, 0
3, 134496, Note_on_c, 1, 66, 92
3, 134590, Note_on_c, 1, 66, 0
3, 134592, Note_on_c, 1, 74, 92
3, 134928, Note_on_c, 1, 74, 0
3, 134976, Note_on_c, 1, 73, 92
3, 135024, Note_on_c, 1, 73, 0
3, 135024, Note_on_c, 1, 74, 92
3, 135072, Note_on_c, 1, 74, 0
3, 135072, Note_on_c, 1, 73, 92
3, 135120, Note_on_c, 1, 73, 0
3, 135120, Note_on_c, 1, 74, 92
3, 135166, Note_on_c, 1, 74, 0
3, 135168, Note_on_c, 1, 78, 92
3, 135328, Note_on_c, 1, 78, 0
3, 135360, Note_on_c, 1, 78, 92
3, 135502, Note_on_c, 1, 78, 0
3, 135504, Note_on_c, 1, 78, 92
3, 135550, Note_on_c, 1, 78, 0
3, 135552, Note_on_c, 1, 78, 92
3, 135712, Note_on_c, 1, 78, 0
3, 135744, Note_on_c, 1, 78, 92
3, 135904, Note_on_c, 1, 78, 0
3, 135936, Note_on_c, 1, 69, 92
3, 136272, Note_on_c, 1, 69, 0
3, 165888, Note_on_c, 1, 66, 92
3, 166224, Note_on_c, 1, 66, 0
3, 166272, Note_on_c, 1, 81, 92
3, 166608, Note_on_c, 1, 81, 0
3, 166656, Note_on_c, 1, 79, 92
3, 166848, Note_on_c, 1, 79, 0
3, 166848, Note_on_c, 1, 83, 92
3, 167008, Note_on_c, 1, 83, 0
3, 167040, Note_on_c, 1, 79, 92
3, 167232, Note_on_c, 1, 79, 0
3, 167232, Note_on_c, 1, 76, 92
3, 167392, Note_on_c, 1, 76, 0
3, 167424, Note_on_c, 1, 74, 92
3, 167584, Note_on_c, 1, 74, 0
3, 167616, Note_on_c, 1, 78, 92
3, 167710, Note_on_c, 1, 78, 0
3, 167712, Note_on_c, 1, 78, 92
3, 167806, Note_on_c, 1, 78, 0
3, 167808, Note_on_c, 1, 78, 92
3, 167904, Note_on_c, 1, 78, 0
3, 167904, Note_on_c, 1, 74, 92
3, 167998, Note_on_c, 1, 74, 0
3, 168000, Note_on_c, 1, 76, 92
3, 168096, Note_on_c, 1, 76, 0
3, 168096, Note_on_c, 1, 73, 92
3, 168190, Note_on_c, 1, 73, 0
3, 168192, Note_on_c, 1, 74, 92
3, 168352, Note_on_c, 1, 74, 0
3, 169152, Note_on_c, 1, 74, 92
3, 169246, Note_on_c, 1, 74, 0
3, 169248, Note_on_c, 1, 69, 92
3, 169342, Note_on_c, 1, 69, 0
3, 169344, Note_on_c, 1, 74, 92
3, 169486, Note_on_c, 1, 74, 0
3, 169488, Note_on_c, 1, 78, 92
3, 169534, Note_on_c, 1, 78, 0
3, 169536, Note_on_c, 1, 78, 92
3, 169582, Note_on_c, 1, 78, 0
3, 169584, Note_on_c, 1, 76, 92
3, 169630, Note_on_c, 1, 76, 0
3, 169632, Note_on_c, 1, 74, 92
3, 169678, Note_on_c, 1, 74, 0
3, 169680, Note_on_c, 1, 73, 92
3, 169726, Note_on_c, 1, 73, 0
3, 169728, Note_on_c, 1, 74, 92
3, 169822, Note_on_c, 1, 74, 0
3, 170688, Note_on_c, 1, 74, 92
3, 170782, Note_on_c, 1, 74, 0
3, 170784, Note_on_c, 1, 69, 92
3, 170878, Note_on_c, 1, 69, 0
3, 170880, Note_on_c, 1, 74, 92
3, 171022, Note_on_c, 1, 74, 0
3, 171024, Note_on_c, 1, 78, 92
3, 171070, Note_on_c, 1, 78, 0
3, 171072, Note_on_c, 1, 78, 92
3, 171118, Note_on_c, 1, 78, 0
3, 171120, Note_on_c, 1, 76, 92
3, 171166, Note_on_c, 1, 76, 0
3, 171168, Note_on_c, 1, 74, 92
3, 171214, Note_on_c, 1, 74, 0
3, 171216, Note_on_c, 1, 73, 92
3, 171262, Note_on_c, 1, 73, 0
3, 171264, Note_on_c, 1, 74, 92
3, 171424, Note_on_c, 1, 74, 0
3, 171456, Note_on_c, 1, 62, 92
3, 171550, Note_on_c, 1, 62, 0
3, 171552, Note_on_c, 1, 66, 92
3, 171646, Note_on_c, 1, 66, 0
3, 171648, Note_on_c, 1, 69, 92
3, 171742, Note_on_c, 1, 69, 0
3, 171744, Note_on_c, 1, 69, 92
3, 171838, Note_on_c, 1, 69, 0
3, 171840, Note_on_c, 1, 69, 92
3, 171934, Note_on_c, 1, 69, 0
3, 171936, Note_on_c, 1, 69, 92
3, 172030, Note_on_c, 1, 69, 0
3, 172032, Note_on_c, 1, 66, 92
3, 172192, Note_on_c, 1, 66, 0
3, 172512, Note_on_c, 1, 74, 92
3, 172606, Note_on_c, 1, 74, 0
3, 172608, Note_on_c, 1, 76, 92
3, 172632, Note_on_c, 1, 76, 0
3, 172632, Note_on_c, 1, 74, 92
3, 172656, Note_on_c, 1, 74, 0
3, 172656, Note_on_c, 1, 76, 92
3, 172680, Note_on_c, 1, 76, 0
3, 172680, Note_on_c, 1, 74, 92
3, 172704, Note_on_c, 1, 74, 0
3, 172704, Note_on_c, 1, 76, 92
3, 172728, Note_on_c, 1, 76, 0
3, 172728, Note_on_c, 1, 74, 92
3, 172752, Note_on_c, 1, 74, 0
3, 172752, Note_on_c, 1, 73, 92
3, 172776, Note_on_c, 1, 73, 0
3, 172776, Note_on_c, 1, 74, 92
3, 172798, Note_on_c, 1, 74, 0
3, 172800, Note_on_c, 1, 78, 92
3, 172832, Note_on_c, 1, 78, 0
3, 172896, Note_on_c, 1, 74, 92
3, 172928, Note_on_c, 1, 74, 0
3, 172992, Note_on_c, 1, 69, 92
3, 173024, Note_on_c, 1, 69, 0
3, 173088, Note_on_c, 1, 66, 92
3, 173120, Note_on_c, 1, 66, 0
3, 173184, Note_on_c, 1, 62, 92
3, 173440, Note_on_c, 1, 62, 0
3, 173440, End_track
4, 0, Start_track
4, 0, MIDI_port, 0
4, 0, Title_t, "Corno I in F"
4, 0, Program_c, 5, 60
4, 0, Control_c, 5, 7, 80
4, 0, Control_c, 5, 10, 64
4, 0, Note_on_c, 5, 62, 92
4, 928, Note_on_c, 5, 62, 0
4, 960, Note_on_c, 5, 62, 92
4, 1120, Note_on_c, 5, 62, 0
4, 1152, Note_on_c, 5, 62, 92
4, 1312, Note_on_c, 5, 62, 0
4, 1344, Note_on_c, 5, 62, 92
4, 1504, Note_on_c, 5, 62, 0
4, 1536, Note_on_c, 5, 62, 92
4, 2464, Note_on_c, 5, 62, 0
4, 2496, Note_on_c, 5, 62, 92
4, 2656, Note_on_c, 5, 62, 0
4, 2688, Note_on_c, 5, 62, 92
4, 2848, Note_on_c, 5, 62, 0
4, 2880, Note_on_c, 5, 62, 92
4, 3040, Note_on_c, 5, 62, 0
4, 3072, Note_on_c, 5, 62, 92
4, 3166, Note_on_c, 5, 62, 0
4, 3168, Note_on_c, 5, 66, 92
4, 3262, Note_on_c, 5, 66, 0
4, 3264, Note_on_c, 5, 66, 92
4, 3358, Note_on_c, 5, 66, 0
4, 3360, Note_on_c, 5, 66, 92
4, 3454, Note_on_c, 5, 66, 0
4, 3456, Note_on_c, 5, 66, 92
4, 3616, Note_on_c, 5, 66, 0
4, 5376, Note_on_c, 5, 64, 92
4, 5536, Note_on_c, 5, 64, 0
4, 5568, Note_on_c, 5, 67, 92
4, 5728, Note_on_c, 5, 67, 0
4, 5760, Note_on_c, 5, 66, 92
4, 5920, Note_on_c, 5, 66, 0
4, 5952, Note_on_c, 5, 69, 92
4, 6112, Note_on_c, 5, 69, 0
4, 6144, Note_on_c, 5, 64, 92
4, 6304, Note_on_c, 5, 64, 0
4, 6336, Note_on_c, 5, 66, 92
4, 6496, Note_on_c, 5, 66, 0
4, 6528, Note_on_c, 5, 67, 92
4, 6688, Note_on_c, 5, 67, 0
4, 6720, Note_on_c, 5, 64, 92
4, 6880, Note_on_c, 5, 64, 0
4, 6912, Note_on_c, 5, 62, 92
4, 7632, Note_on_c, 5, 62, 0
4, 7680, Note_on_c, 5, 64, 92
4, 7840, Note_on_c, 5, 64, 0
4, 7872, Note_on_c, 5, 64, 92
4, 8032, Note_on_c, 5, 64, 0
4, 8064, Note_on_c, 5, 64, 92
4, 8224, Note_on_c, 5, 64, 0
4, 10752, Note_on_c, 5, 62, 45
4, 12240, Note_on_c, 5, 62, 0
4, 15360, Note_on_c, 5, 62, 45
4, 17056, Note_on_c, 5, 62, 0
4, 17088, Note_on_c, 5, 62, 92
4, 17230, Note_on_c, 5, 62, 0
4, 17232, Note_on_c, 5, 62, 92
4, 17278, Note_on_c, 5, 62, 0
4, 17280, Note_on_c, 5, 62, 92
4, 17440, Note_on_c, 5, 62, 0
4, 17472, Note_on_c, 5, 62, 92
4, 17632, Note_on_c, 5, 62, 0
4, 17664, Note_on_c, 5, 62, 92
4, 18000, Note_on_c, 5, 62, 0
4, 18048, Note_on_c, 5, 64, 92
4, 18208, Note_on_c, 5, 64, 0
4, 18240, Note_on_c, 5, 64, 92
4, 18334, Note_on_c, 5, 64, 0
4, 18336, Note_on_c, 5, 64, 92
4, 18430, Note_on_c, 5, 64, 0
4, 18432, Note_on_c, 5, 66, 92
4, 18592, Note_on_c, 5, 66, 0
4, 18624, Note_on_c, 5, 66, 92
4, 18718, Note_on_c, 5, 66, 0
4, 18720, Note_on_c, 5, 66, 92
4, 18814, Note_on_c, 5, 66, 0
4, 18816, Note_on_c, 5, 66, 92
4, 18976, Note_on_c, 5, 66, 0
4, 19008, Note_on_c, 5, 64, 92
4, 19168, Note_on_c, 5, 64, 0
4, 19200, Note_on_c, 5, 62, 92
4, 19360, Note_on_c, 5, 62, 0
4, 20160, Note_on_c, 5, 50, 92
4, 20254, Note_on_c, 5, 50, 0
4, 20256, Note_on_c, 5, 54, 92
4, 20350, Note_on_c, 5, 54, 0
4, 20352, Note_on_c, 5, 57, 92
4, 20446, Note_on_c, 5, 57, 0
4, 20448, Note_on_c, 5, 57, 92
4, 20542, Note_on_c, 5, 57, 0
4, 20544, Note_on_c, 5, 57, 92
4, 20638, Note_on_c, 5, 57, 0
4, 20640, Note_on_c, 5, 57, 92
4, 20734, Note_on_c, 5, 57, 0
4, 20736, Note_on_c, 5, 62, 92
4, 20830, Note_on_c, 5, 62, 0
4, 21696, Note_on_c, 5, 50, 92
4, 21790, Note_on_c, 5, 50, 0
4, 21792, Note_on_c, 5, 54, 92
4, 21886, Note_on_c, 5, 54, 0
4, 21888, Note_on_c, 5, 57, 92
4, 21982, Note_on_c, 5, 57, 0
4, 21984, Note_on_c, 5, 57, 92
4, 22078, Note_on_c, 5, 57, 0
4, 22080, Note_on_c, 5, 57, 92
4, 22174, Note_on_c, 5, 57, 0
4, 22176, Note_on_c, 5, 57, 92
4, 22270, Note_on_c, 5, 57, 0
4, 22272, Note_on_c, 5, 62, 92
4, 22432, Note_on_c, 5, 62, 0
4, 22464, Note_on_c, 5, 66, 92
4, 22558, Note_on_c, 5, 66, 0
4, 22560, Note_on_c, 5, 66, 92
4, 22654, Note_on_c, 5, 66, 0
4, 22656, Note_on_c, 5, 66, 92
4, 22750, Note_on_c, 5, 66, 0
4, 22752, Note_on_c, 5, 69, 92
4, 22846, Note_on_c, 5, 69, 0
4, 22848, Note_on_c, 5, 69, 92
4, 22894, Note_on_c, 5, 69, 0
4, 22896, Note_on_c, 5, 67, 92
4, 22942, Note_on_c, 5, 67, 0
4, 22944, Note_on_c, 5, 66, 92
4, 22990, Note_on_c, 5, 66, 0
4, 22992, Note_on_c, 5, 64, 92
4, 23038, Note_on_c, 5, 64, 0
4, 23040, Note_on_c, 5, 62, 92
4, 23200, Note_on_c, 5, 62, 0
4, 23808, Note_on_c, 5, 66, 45
4, 24144, Note_on_c, 5, 66, 0
4, 24192, Note_on_c, 5, 64, 45
4, 24528, Note_on_c, 5, 64, 0
4, 24576, Note_on_c, 5, 62, 45
4, 24736, Note_on_c, 5, 62, 0
4, 35520, Note_on_c, 5, 50, 92
4, 35614, Note_on_c, 5, 50, 0
4, 35616, Note_on_c, 5, 54, 92
4, 35710, Note_on_c, 5, 54, 0
4, 35712, Note_on_c, 5, 57, 92
4, 35806, Note_on_c, 5, 57, 0
4, 35808, Note_on_c, 5, 57, 92
4, 35902, Note_on_c, 5, 57, 0
4, 35904, Note_on_c, 5, 57, 92
4, 35998, Note_on_c, 5, 57, 0
4, 36000, Note_on_c, 5, 57, 92
4, 36094, Note_on_c, 5, 57, 0
4, 36096, Note_on_c, 5, 62, 92
4, 36256, Note_on_c, 5, 62, 0
4, 36288, Note_on_c, 5, 66, 92
4, 36382, Note_on_c, 5, 66, 0
4, 36384, Note_on_c, 5, 66, 92
4, 36478, Note_on_c, 5, 66, 0
4, 36480, Note_on_c, 5, 66, 92
4, 36574, Note_on_c, 5, 66, 0
4, 36576, Note_on_c, 5, 69, 92
4, 36670, Note_on_c, 5, 69, 0
4, 36672, Note_on_c, 5, 69, 92
4, 36718, Note_on_c, 5, 69, 0
4, 36720, Note_on_c, 5, 67, 92
4, 36766, Note_on_c, 5, 67, 0
4, 36768, Note_on_c, 5, 66, 92
4, 36814, Note_on_c, 5, 66, 0
4, 36816, Note_on_c, 5, 64, 92
4, 36862, Note_on_c, 5, 64, 0
4, 36864, Note_on_c, 5, 62, 92
4, 37024, Note_on_c, 5, 62, 0
4, 49536, Note_on_c, 5, 64, 45
4, 49630, Note_on_c, 5, 64, 0
4, 49632, Note_on_c, 5, 64, 45
4, 49726, Note_on_c, 5, 64, 0
4, 49728, Note_on_c, 5, 64, 45
4, 49822, Note_on_c, 5, 64, 0
4, 49824, Note_on_c, 5, 64, 45
4, 49918, Note_on_c, 5, 64, 0
4, 49920, Note_on_c, 5, 64, 45
4, 50080, Note_on_c, 5, 64, 0
4, 50304, Note_on_c, 5, 64, 45
4, 50398, Note_on_c, 5, 64, 0
4, 50400, Note_on_c, 5, 64, 45
4, 50494, Note_on_c, 5, 64, 0
4, 50496, Note_on_c, 5, 64, 45
4, 50590, Note_on_c, 5, 64, 0
4, 50592, Note_on_c, 5, 64, 45
4, 50686, Note_on_c, 5, 64, 0
4, 50688, Note_on_c, 5, 64, 45
4, 51408, Note_on_c, 5, 64, 0
4, 51456, Note_on_c, 5, 57, 45
4, 53920, Note_on_c, 5, 57, 0
4, 57600, Note_on_c, 5, 64, 92
4, 57856, Note_on_c, 5, 64, 0
4, 57888, Note_on_c, 5, 64, 92
4, 57982, Note_on_c, 5, 64, 0
4, 57984, Note_on_c, 5, 69, 92
4, 58320, Note_on_c, 5, 69, 0
4, 58368, Note_on_c, 5, 64, 92
4, 58528, Note_on_c, 5, 64, 0
4, 58560, Note_on_c, 5, 64, 92
4, 58720, Note_on_c, 5, 64, 0
4, 58752, Note_on_c, 5, 64, 92
4, 58912, Note_on_c, 5, 64, 0
4, 61440, Note_on_c, 5, 57, 45
4, 63136, Note_on_c, 5, 57, 0
4, 70752, Note_on_c, 5, 64, 45
4, 70846, Note_on_c, 5, 64, 0
4, 70848, Note_on_c, 5, 64, 45
4, 70942, Note_on_c, 5, 64, 0
4, 70944, Note_on_c, 5, 64, 45
4, 71038, Note_on_c, 5, 64, 0
4, 71040, Note_on_c, 5, 64, 45
4, 71200, Note_on_c, 5, 64, 0
4, 71520, Note_on_c, 5, 66, 45
4, 71614, Note_on_c, 5, 66, 0
4, 71616, Note_on_c, 5, 66, 45
4, 71710, Note_on_c, 5, 66, 0
4, 71712, Note_on_c, 5, 66, 45
4, 71806, Note_on_c, 5, 66, 0
4, 71808, Note_on_c, 5, 66, 45
4, 71968, Note_on_c, 5, 66, 0
4, 72192, Note_on_c, 5, 64, 45
4, 73680, Note_on_c, 5, 64, 0
4, 73728, Note_on_c, 5, 64, 92
4, 73888, Note_on_c, 5, 64, 0
4, 73920, Note_on_c, 5, 64, 92
4, 74062, Note_on_c, 5, 64, 0
4, 74064, Note_on_c, 5, 64, 92
4, 74110, Note_on_c, 5, 64, 0
4, 74112, Note_on_c, 5, 64, 92
4, 74272, Note_on_c, 5, 64, 0
4, 74304, Note_on_c, 5, 64, 92
4, 74464, Note_on_c, 5, 64, 0
4, 74496, Note_on_c, 5, 66, 92
4, 74832, Note_on_c, 5, 66, 0
4, 74880, Note_on_c, 5, 66, 92
4, 75040, Note_on_c, 5, 66, 0
4, 75072, Note_on_c, 5, 66, 92
4, 75166, Note_on_c, 5, 66, 0
4, 75168, Note_on_c, 5, 66, 92
4, 75262, Note_on_c, 5, 66, 0
4, 75264, Note_on_c, 5, 64, 92
4, 75424, Note_on_c, 5, 64, 0
4, 75456, Note_on_c, 5, 64, 92
4, 75550, Note_on_c, 5, 64, 0
4, 75552, Note_on_c, 5, 64, 92
4, 75646, Note_on_c, 5, 64, 0
4, 75648, Note_on_c, 5, 64, 92
4, 75808, Note_on_c, 5, 64, 0
4, 75840, Note_on_c, 5, 64, 92
4, 76000, Note_on_c, 5, 64, 0
4, 76032, Note_on_c, 5, 64, 92
4, 76192, Note_on_c, 5, 64, 0
4, 76992, Note_on_c, 5, 57, 92
4, 77086, Note_on_c, 5, 57, 0
4, 77088, Note_on_c, 5, 57, 92
4, 77182, Note_on_c, 5, 57, 0
4, 77184, Note_on_c, 5, 64, 92
4, 77278, Note_on_c, 5, 64, 0
4, 77280, Note_on_c, 5, 64, 92
4, 77374, Note_on_c, 5, 64, 0
4, 77376, Note_on_c, 5, 64, 92
4, 77470, Note_on_c, 5, 64, 0
4, 77472, Note_on_c, 5, 64, 92
4, 77566, Note_on_c, 5, 64, 0
4, 77568, Note_on_c, 5, 64, 92
4, 77662, Note_on_c, 5, 64, 0
4, 78528, Note_on_c, 5, 57, 92
4, 78622, Note_on_c, 5, 57, 0
4, 78624, Note_on_c, 5, 57, 92
4, 78718, Note_on_c, 5, 57, 0
4, 78720, Note_on_c, 5, 64, 92
4, 78814, Note_on_c, 5, 64, 0
4, 78816, Note_on_c, 5, 64, 92
4, 78910, Note_on_c, 5, 64, 0
4, 78912, Note_on_c, 5, 64, 92
4, 79006, Note_on_c, 5, 64, 0
4, 79008, Note_on_c, 5, 64, 92
4, 79102, Note_on_c, 5, 64, 0
4, 79104, Note_on_c, 5, 64, 92
4, 79264, Note_on_c, 5, 64, 0
4, 79296, Note_on_c, 5, 69, 92
4, 79390, Note_on_c, 5, 69, 0
4, 79392, Note_on_c, 5, 69, 92
4, 79486, Note_on_c, 5, 69, 0
4, 79488, Note_on_c, 5, 64, 92
4, 79582, Note_on_c, 5, 64, 0
4, 79584, Note_on_c, 5, 64, 92
4, 79678, Note_on_c, 5, 64, 0
4, 79680, Note_on_c, 5, 64, 92
4, 79774, Note_on_c, 5, 64, 0
4, 79776, Note_on_c, 5, 64, 92
4, 79870, Note_on_c, 5, 64, 0
4, 79872, Note_on_c, 5, 64, 92
4, 80032, Note_on_c, 5, 64, 0
4, 80640, Note_on_c, 5, 57, 45
4, 85408, Note_on_c, 5, 57, 0
4, 88320, Note_on_c, 5, 57, 45
4, 91344, Note_on_c, 5, 57, 0
4, 91392, Note_on_c, 5, 62, 92
4, 92320, Note_on_c, 5, 62, 0
4, 92352, Note_on_c, 5, 62, 92
4, 92512, Note_on_c, 5, 62, 0
4, 92544, Note_on_c, 5, 62, 92
4, 92704, Note_on_c, 5, 62, 0
4, 92736, Note_on_c, 5, 62, 92
4, 92896, Note_on_c, 5, 62, 0
4, 92928, Note_on_c, 5, 62, 45
4, 93856, Note_on_c, 5, 62, 0
4, 93888, Note_on_c, 5, 62, 45
4, 94048, Note_on_c, 5, 62, 0
4, 94080, Note_on_c, 5, 62, 45
4, 94240, Note_on_c, 5, 62, 0
4, 94272, Note_on_c, 5, 62, 45
4, 94432, Note_on_c, 5, 62, 0
4, 104448, Note_on_c, 5, 57, 45
4, 105376, Note_on_c, 5, 57, 0
4, 105984, Note_on_c, 5, 57, 45
4, 106912, Note_on_c, 5, 57, 0
4, 107520, Note_on_c, 5, 57, 45
4, 108448, Note_on_c, 5, 57, 0
4, 109056, Note_on_c, 5, 62, 45
4, 112848, Note_on_c, 5, 62, 0
4, 112896, Note_on_c, 5, 57, 45
4, 112990, Note_on_c, 5, 57, 0
4, 115200, Note_on_c, 5, 62, 92
4, 115920, Note_on_c, 5, 62, 0
4, 115968, Note_on_c, 5, 64, 92
4, 116128, Note_on_c, 5, 64, 0
4, 116160, Note_on_c, 5, 64, 92
4, 116320, Note_on_c, 5, 64, 0
4, 116352, Note_on_c, 5, 64, 92
4, 116512, Note_on_c, 5, 64, 0
4, 119040, Note_on_c, 5, 62, 45
4, 120736, Note_on_c, 5, 62, 0
4, 129888, Note_on_c, 5, 66, 45
4, 129982, Note_on_c, 5, 66, 0
4, 129984, Note_on_c, 5, 66, 45
4, 130078, Note_on_c, 5, 66, 0
4, 130080, Note_on_c, 5, 66, 45
4, 130174, Note_on_c, 5, 66, 0
4, 130176, Note_on_c, 5, 66, 45
4, 130336, Note_on_c, 5, 66, 0
4, 130656, Note_on_c, 5, 64, 45
4, 130750, Note_on_c, 5, 64, 0
4, 130752, Note_on_c, 5, 64, 45
4, 130846, Note_on_c, 5, 64, 0
4, 130848, Note_on_c, 5, 64, 45
4, 130942, Note_on_c, 5, 64, 0
4, 130944, Note_on_c, 5, 64, 45
4, 131104, Note_on_c, 5, 64, 0
4, 131328, Note_on_c, 5, 57, 45
4, 132048, Note_on_c, 5, 57, 0
4, 132096, Note_on_c, 5, 57, 45
4, 132432, Note_on_c, 5, 57, 0
4, 132480, Note_on_c, 5, 57, 45
4, 132574, Note_on_c, 5, 57, 0
4, 132576, Note_on_c, 5, 57, 45
4, 132670, Note_on_c, 5, 57, 0
4, 132672, Note_on_c, 5, 57, 45
4, 132766, Note_on_c, 5, 57, 0
4, 132768, Note_on_c, 5, 57, 45
4, 132862, Note_on_c, 5, 57, 0
4, 132864, Note_on_c, 5, 62, 45
4, 133024, Note_on_c, 5, 62, 0
4, 133056, Note_on_c, 5, 62, 45
4, 133198, Note_on_c, 5, 62, 0
4, 133200, Note_on_c, 5, 62, 45
4, 133246, Note_on_c, 5, 62, 0
4, 133248, Note_on_c, 5, 62, 45
4, 133408, Note_on_c, 5, 62, 0
4, 133440, Note_on_c, 5, 62, 45
4, 133600, Note_on_c, 5, 62, 0
4, 133632, Note_on_c, 5, 62, 45
4, 133792, Note_on_c, 5, 62, 0
4, 133824, Note_on_c, 5, 62, 45
4, 133966, Note_on_c, 5, 62, 0
4, 133968, Note_on_c, 5, 62, 45
4, 134014, Note_on_c, 5, 62, 0
4, 134016, Note_on_c, 5, 62, 45
4, 134176, Note_on_c, 5, 62, 0
4, 134208, Note_on_c, 5, 62, 45
4, 134368, Note_on_c, 5, 62, 0
4, 134400, Note_on_c, 5, 62, 45
4, 134560, Note_on_c, 5, 62, 0
4, 134592, Note_on_c, 5, 62, 45
4, 134734, Note_on_c, 5, 62, 0
4, 134736, Note_on_c, 5, 62, 45
4, 134782, Note_on_c, 5, 62, 0
4, 134784, Note_on_c, 5, 62, 45
4, 134944, Note_on_c, 5, 62, 0
4, 134976, Note_on_c, 5, 62, 45
4, 135136, Note_on_c, 5, 62, 0
4, 135168, Note_on_c, 5, 66, 45
4, 135328, Note_on_c, 5, 66, 0
4, 135360, Note_on_c, 5, 66, 45
4, 135502, Note_on_c, 5, 66, 0
4, 135504, Note_on_c, 5, 66, 45
4, 135550, Note_on_c, 5, 66, 0
4, 135552, Note_on_c, 5, 66, 45
4, 135712, Note_on_c, 5, 66, 0
4, 135744, Note_on_c, 5, 66, 45
4, 135904, Note_on_c, 5, 66, 0
4, 135936, Note_on_c, 5, 66, 45
4, 136272, Note_on_c, 5, 66, 0
4, 165888, Note_on_c, 5, 62, 92
4, 166048, Note_on_c, 5, 62, 0
4, 166080, Note_on_c, 5, 62, 92
4, 166222, Note_on_c, 5, 62, 0
4, 166224, Note_on_c, 5, 62, 92
4, 166270, Note_on_c, 5, 62, 0
4, 166272, Note_on_c, 5, 62, 92
4, 166432, Note_on_c, 5, 62, 0
4, 166464, Note_on_c, 5, 62, 92
4, 166624, Note_on_c, 5, 62, 0
4, 166656, Note_on_c, 5, 62, 92
4, 166992, Note_on_c, 5, 62, 0
4, 167040, Note_on_c, 5, 64, 92
4, 167200, Note_on_c, 5, 64, 0
4, 167232, Note_on_c, 5, 64, 92
4, 167326, Note_on_c, 5, 64, 0
4, 167328, Note_on_c, 5, 64, 92
4, 167422, Note_on_c, 5, 64, 0
4, 167424, Note_on_c, 5, 66, 92
4, 167584, Note_on_c, 5, 66, 0
4, 167616, Note_on_c, 5, 66, 92
4, 167710, Note_on_c, 5, 66, 0
4, 167712, Note_on_c, 5, 66, 92
4, 167806, Note_on_c, 5, 66, 0
4, 167808, Note_on_c, 5, 66, 92
4, 167968, Note_on_c, 5, 66, 0
4, 168000, Note_on_c, 5, 64, 92
4, 168160, Note_on_c, 5, 64, 0
4, 168192, Note_on_c, 5, 62, 92
4, 168352, Note_on_c, 5, 62, 0
4, 169152, Note_on_c, 5, 50, 92
4, 169246, Note_on_c, 5, 50, 0
4, 169248, Note_on_c, 5, 54, 92
4, 169342, Note_on_c, 5, 54, 0
4, 169344, Note_on_c, 5, 57, 92
4, 169438, Note_on_c, 5, 57, 0
4, 169440, Note_on_c, 5, 57, 92
4, 169534, Note_on_c, 5, 57, 0
4, 169536, Note_on_c, 5, 57, 92
4, 169630, Note_on_c, 5, 57, 0
4, 169632, Note_on_c, 5, 57, 92
4, 169726, Note_on_c, 5, 57, 0
4, 169728, Note_on_c, 5, 62, 92
4, 169822, Note_on_c, 5, 62, 0
4, 170688, Note_on_c, 5, 50, 92
4, 170782, Note_on_c, 5, 50, 0
4, 170784, Note_on_c, 5, 54, 92
4, 170878, Note_on_c, 5, 54, 0
4, 170880, Note_on_c, 5, 57, 92
4, 170974, Note_on_c, 5, 57, 0
4, 170976, Note_on_c, 5, 57, 92
4, 171070, Note_on_c, 5, 57, 0
4, 171072, Note_on_c, 5, 57, 92
4, 171166, Note_on_c, 5, 57, 0
4, 171168, Note_on_c, 5, 57, 92
4, 171262, Note_on_c, 5, 57, 0
4, 171264, Note_on_c, 5, 62, 92
4, 171424, Note_on_c, 5, 62, 0
4, 171456, Note_on_c, 5, 66, 92
4, 171550, Note_on_c, 5, 66, 0
4, 171552, Note_on_c, 5, 66, 92
4, 171646, Note_on_c, 5, 66, 0
4, 171648, Note_on_c, 5, 66, 92
4, 171808, Note_on_c, 5, 66, 0
4, 171840, Note_on_c, 5, 69, 92
4, 171886, Note_on_c, 5, 69, 0
4, 171888, Note_on_c, 5, 67, 92
4, 171934, Note_on_c, 5, 67, 0
4, 171936, Note_on_c, 5, 66, 92
4, 171982, Note_on_c, 5, 66, 0
4, 171984, Note_on_c, 5, 64, 92
4, 172030, Note_on_c, 5, 64, 0
4, 172032, Note_on_c, 5, 62, 92
4, 172192, Note_on_c, 5, 62, 0
4, 172512, Note_on_c, 5, 62, 92
4, 172606, Note_on_c, 5, 62, 0
4, 172608, Note_on_c, 5, 62, 92
4, 172768, Note_on_c, 5, 62, 0
4, 172800, Note_on_c, 5, 66, 92
4, 172832, Note_on_c, 5, 66, 0
4, 172896, Note_on_c, 5, 62, 92
4, 172928, Note_on_c, 5, 62, 0
4, 172992, Note_on_c, 5, 57, 92
4, 173024, Note_on_c, 5, 57, 0
4, 173088, Note_on_c, 5, 54, 92
4, 173120, Note_on_c, 5, 54, 0
4, 173184, Note_on_c, 5, 50, 92
4, 173440, Note_on_c, 5, 50, 0
4, 173440, End_track
5, 0, Start_track
5, 0, MIDI_port, 0
5, 0, Title_t, "Corno II in F"
5, 0, Program_c, 5, 60
5, 0, Control_c, 5, 7, 80
5, 0, Control_c, 5, 10, 64
5, 0, Note_on_c, 5, 50, 92
5, 928, Note_on_c, 5, 50, 0
5, 960, Note_on_c, 5, 50, 92
5, 1120, Note_on_c, 5, 50, 0
5, 1152, Note_on_c, 5, 50, 92
5, 1312, Note_on_c, 5, 50, 0
5, 1344, Note_on_c, 5, 50, 92
5, 1504, Note_on_c, 5, 50, 0
5, 1536, Note_on_c, 5, 50, 92
5, 2464, Note_on_c, 5, 50, 0
5, 2496, Note_on_c, 5, 50, 92
5, 2656, Note_on_c, 5, 50, 0
5, 2688, Note_on_c, 5, 50, 92
5, 2848, Note_on_c, 5, 50, 0
5, 2880, Note_on_c, 5, 50, 92
5, 3040, Note_on_c, 5, 50, 0
5, 3072, Note_on_c, 5, 50, 92
5, 3166, Note_on_c, 5, 50, 0
5, 3168, Note_on_c, 5, 62, 92
5, 3262, Note_on_c, 5, 62, 0
5, 3264, Note_on_c, 5, 62, 92
5, 3358, Note_on_c, 5, 62, 0
5, 3360, Note_on_c, 5, 62, 92
5, 3454, Note_on_c, 5, 62, 0
5, 3456, Note_on_c, 5, 62, 92
5, 3616, Note_on_c, 5, 62, 0
5, 5376, Note_on_c, 5, 57, 92
5, 5536, Note_on_c, 5, 57, 0
5, 5568, Note_on_c, 5, 64, 92
5, 5728, Note_on_c, 5, 64, 0
5, 5760, Note_on_c, 5, 62, 92
5, 5920, Note_on_c, 5, 62, 0
5, 5952, Note_on_c, 5, 66, 92
5, 6112, Note_on_c, 5, 66, 0
5, 6144, Note_on_c, 5, 57, 92
5, 6304, Note_on_c, 5, 57, 0
5, 6336, Note_on_c, 5, 62, 92
5, 6496, Note_on_c, 5, 62, 0
5, 6528, Note_on_c, 5, 64, 92
5, 6688, Note_on_c, 5, 64, 0
5, 6720, Note_on_c, 5, 57, 92
5, 6880, Note_on_c, 5, 57, 0
5, 6912, Note_on_c, 5, 50, 92
5, 7632, Note_on_c, 5, 50, 0
5, 7680, Note_on_c, 5, 57, 92
5, 7840, Note_on_c, 5, 57, 0
5, 7872, Note_on_c, 5, 57, 92
5, 8032, Note_on_c, 5, 57, 0
5, 8064, Note_on_c, 5, 57, 92
5, 8224, Note_on_c, 5, 57, 0
5, 10752, Note_on_c, 5, 50, 45
5, 12240, Note_on_c, 5, 50, 0
5, 15360, Note_on_c, 5, 50, 45
5, 17056, Note_on_c, 5, 50, 0
5, 17088, Note_on_c, 5, 50, 92
5, 17230, Note_on_c, 5, 50, 0
5, 17232, Note_on_c, 5, 50, 92
5, 17278, Note_on_c, 5, 50, 0
5, 17280, Note_on_c, 5, 50, 92
5, 17440, Note_on_c, 5, 50, 0
5, 17472, Note_on_c, 5, 50, 92
5, 17632, Note_on_c, 5, 50, 0
5, 17664, Note_on_c, 5, 50, 92
5, 18000, Note_on_c, 5, 50, 0
5, 18048, Note_on_c, 5, 62, 92
5, 18208, Note_on_c, 5, 62, 0
5, 18240, Note_on_c, 5, 62, 92
5, 18334, Note_on_c, 5, 62, 0
5, 18336, Note_on_c, 5, 62, 92
5, 18430, Note_on_c, 5, 62, 0
5, 18432, Note_on_c, 5, 62, 92
5, 18592, Note_on_c, 5, 62, 0
5, 18624, Note_on_c, 5, 62, 92
5, 18718, Note_on_c, 5, 62, 0
5, 18720, Note_on_c, 5, 62, 92
5, 18814, Note_on_c, 5, 62, 0
5, 18816, Note_on_c, 5, 62, 92
5, 18976, Note_on_c, 5, 62, 0
5, 19008, Note_on_c, 5, 57, 92
5, 19168, Note_on_c, 5, 57, 0
5, 19200, Note_on_c, 5, 54, 92
5, 19360, Note_on_c, 5, 54, 0
5, 20160, Note_on_c, 5, 50, 92
5, 20254, Note_on_c, 5, 50, 0
5, 20256, Note_on_c, 5, 54, 92
5, 20350, Note_on_c, 5, 54, 0
5, 20352, Note_on_c, 5, 57, 92
5, 20446, Note_on_c, 5, 57, 0
5, 20448, Note_on_c, 5, 57, 92
5, 20542, Note_on_c, 5, 57, 0
5, 20544, Note_on_c, 5, 57, 92
5, 20638, Note_on_c, 5, 57, 0
5, 20640, Note_on_c, 5, 57, 92
5, 20734, Note_on_c, 5, 57, 0
5, 20736, Note_on_c, 5, 54, 92
5, 20830, Note_on_c, 5, 54, 0
5, 21696, Note_on_c, 5, 50, 92
5, 21790, Note_on_c, 5, 50, 0
5, 21792, Note_on_c, 5, 54, 92
5, 21886, Note_on_c, 5, 54, 0
5, 21888, Note_on_c, 5, 57, 92
5, 21982, Note_on_c, 5, 57, 0
5, 21984, Note_on_c, 5, 57, 92
5, 22078, Note_on_c, 5, 57, 0
5, 22080, Note_on_c, 5, 57, 92
5, 22174, Note_on_c, 5, 57, 0
5, 22176, Note_on_c, 5, 57, 92
5, 22270, Note_on_c, 5, 57, 0
5, 22272, Note_on_c, 5, 54, 92
5, 22432, Note_on_c, 5, 54, 0
5, 22464, Note_on_c, 5, 62, 92
5, 22558, Note_on_c, 5, 62, 0
5, 22560, Note_on_c, 5, 62, 92
5, 22654, Note_on_c, 5, 62, 0
5, 22656, Note_on_c, 5, 62, 92
5, 22816, Note_on_c, 5, 62, 0
5, 22848, Note_on_c, 5, 64, 92
5, 22942, Note_on_c, 5, 64, 0
5, 22944, Note_on_c, 5, 57, 92
5, 23038, Note_on_c, 5, 57, 0
5, 23040, Note_on_c, 5, 54, 92
5, 23200, Note_on_c, 5, 54, 0
5, 23808, Note_on_c, 5, 62, 45
5, 24144, Note_on_c, 5, 62, 0
5, 24192, Note_on_c, 5, 57, 45
5, 24528, Note_on_c, 5, 57, 0
5, 24576, Note_on_c, 5, 50, 45
5, 24736, Note_on_c, 5, 50, 0
5, 35520, Note_on_c, 5, 50, 92
5, 35614, Note_on_c, 5, 50, 0
5, 35616, Note_on_c, 5, 54, 92
5, 35710, Note_on_c, 5, 54, 0
5, 35712, Note_on_c, 5, 57, 92
5, 35806, Note_on_c, 5, 57, 0
5, 35808, Note_on_c, 5, 57, 92
5, 35902, Note_on_c, 5, 57, 0
5, 35904, Note_on_c, 5, 57, 92
5, 35998, Note_on_c, 5, 57, 0
5, 36000, Note_on_c, 5, 57, 92
5, 36094, Note_on_c, 5, 57, 0
5, 36096, Note_on_c, 5, 54, 92
5, 36256, Note_on_c, 5, 54, 0
5, 36288, Note_on_c, 5, 62, 92
5, 36382, Note_on_c, 5, 62, 0
5, 36384, Note_on_c, 5, 62, 92
5, 36478, Note_on_c, 5, 62, 0
5, 36480, Note_on_c, 5, 62, 92
5, 36640, Note_on_c, 5, 62, 0
5, 36672, Note_on_c, 5, 64, 92
5, 36766, Note_on_c, 5, 64, 0
5, 36768, Note_on_c, 5, 57, 92
5, 36862, Note_on_c, 5, 57, 0
5, 36864, Note_on_c, 5, 54, 92
5, 37024, Note_on_c, 5, 54, 0
5, 49536, Note_on_c, 5, 64, 45
5, 49630, Note_on_c, 5, 64, 0
5, 49632, Note_on_c, 5, 64, 45
5, 49726, Note_on_c, 5, 64, 0
5, 49728, Note_on_c, 5, 64, 45
5, 49822, Note_on_c, 5, 64, 0
5, 49824, Note_on_c, 5, 64, 45
5, 49918, Note_on_c, 5, 64, 0
5, 49920, Note_on_c, 5, 64, 45
5, 50080, Note_on_c, 5, 64, 0
5, 50304, Note_on_c, 5, 64, 45
5, 50398, Note_on_c, 5, 64, 0
5, 50400, Note_on_c, 5, 64, 45
5, 50494, Note_on_c, 5, 64, 0
5, 50496, Note_on_c, 5, 64, 45
5, 50590, Note_on_c, 5, 64, 0
5, 50592, Note_on_c, 5, 64, 45
5, 50686, Note_on_c, 5, 64, 0
5, 50688, Note_on_c, 5, 64, 45
5, 51408, Note_on_c, 5, 64, 0
5, 51456, Note_on_c, 5, 57, 45
5, 52176, Note_on_c, 5, 57, 0
5, 52224, Note_on_c, 5, 45, 45
5, 53920, Note_on_c, 5, 45, 0
5, 57600, Note_on_c, 5, 57, 92
5, 57856, Note_on_c, 5, 57, 0
5, 57888, Note_on_c, 5, 64, 92
5, 57982, Note_on_c, 5, 64, 0
5, 57984, Note_on_c, 5, 57, 92
5, 58320, Note_on_c, 5, 57, 0
5, 58368, Note_on_c, 5, 64, 92
5, 58528, Note_on_c, 5, 64, 0
5, 58560, Note_on_c, 5, 64, 92
5, 58720, Note_on_c, 5, 64, 0
5, 58752, Note_on_c, 5, 64, 92
5, 58912, Note_on_c, 5, 64, 0
5, 61440, Note_on_c, 5, 45, 45
5, 63136, Note_on_c, 5, 45, 0
5, 70752, Note_on_c, 5, 57, 45
5, 70846, Note_on_c, 5, 57, 0
5, 70848, Note_on_c, 5, 57, 45
5, 70942, Note_on_c, 5, 57, 0
5, 70944, Note_on_c, 5, 57, 45
5, 71038, Note_on_c, 5, 57, 0
5, 71040, Note_on_c, 5, 57, 45
5, 71200, Note_on_c, 5, 57, 0
5, 71520, Note_on_c, 5, 62, 45
5, 71614, Note_on_c, 5, 62, 0
5, 71616, Note_on_c, 5, 62, 45
5, 71710, Note_on_c, 5, 62, 0
5, 71712, Note_on_c, 5, 62, 45
5, 71806, Note_on_c, 5, 62, 0
5, 71808, Note_on_c, 5, 62, 45
5, 71968, Note_on_c, 5, 62, 0
5, 72192, Note_on_c, 5, 64, 45
5, 73680, Note_on_c, 5, 64, 0
5, 73728, Note_on_c, 5, 57, 92
5, 73888, Note_on_c, 5, 57, 0
5, 73920, Note_on_c, 5, 57, 92
5, 74062, Note_on_c, 5, 57, 0
5, 74064, Note_on_c, 5, 57, 92
5, 74110, Note_on_c, 5, 57, 0
5, 74112, Note_on_c, 5, 57, 92
5, 74272, Note_on_c, 5, 57, 0
5, 74304, Note_on_c, 5, 57, 92
5, 74464, Note_on_c, 5, 57, 0
5, 74496, Note_on_c, 5, 62, 92
5, 74832, Note_on_c, 5, 62, 0
5, 74880, Note_on_c, 5, 62, 92
5, 75040, Note_on_c, 5, 62, 0
5, 75072, Note_on_c, 5, 62, 92
5, 75166, Note_on_c, 5, 62, 0
5, 75168, Note_on_c, 5, 62, 92
5, 75262, Note_on_c, 5, 62, 0
5, 75264, Note_on_c, 5, 64, 92
5, 75424, Note_on_c, 5, 64, 0
5, 75456, Note_on_c, 5, 64, 92
5, 75550, Note_on_c, 5, 64, 0
5, 75552, Note_on_c, 5, 64, 92
5, 75646, Note_on_c, 5, 64, 0
5, 75648, Note_on_c, 5, 64, 92
5, 75808, Note_on_c, 5, 64, 0
5, 75840, Note_on_c, 5, 64, 92
5, 76000, Note_on_c, 5, 64, 0
5, 76032, Note_on_c, 5, 57, 92
5, 76192, Note_on_c, 5, 57, 0
5, 76992, Note_on_c, 5, 57, 92
5, 77086, Note_on_c, 5, 57, 0
5, 77088, Note_on_c, 5, 57, 92
5, 77182, Note_on_c, 5, 57, 0
5, 77184, Note_on_c, 5, 64, 92
5, 77278, Note_on_c, 5, 64, 0
5, 77280, Note_on_c, 5, 64, 92
5, 77374, Note_on_c, 5, 64, 0
5, 77376, Note_on_c, 5, 64, 92
5, 77470, Note_on_c, 5, 64, 0
5, 77472, Note_on_c, 5, 64, 92
5, 77566, Note_on_c, 5, 64, 0
5, 77568, Note_on_c, 5, 57, 92
5, 77662, Note_on_c, 5, 57, 0
5, 78528, Note_on_c, 5, 57, 92
5, 78622, Note_on_c, 5, 57, 0
5, 78624, Note_on_c, 5, 57, 92
5, 78718, Note_on_c, 5, 57, 0
5, 78720, Note_on_c, 5, 64, 92
5, 78814, Note_on_c, 5, 64, 0
5, 78816, Note_on_c, 5, 64, 92
5, 78910, Note_on_c, 5, 64, 0
5, 78912, Note_on_c, 5, 64, 92
5, 79006, Note_on_c, 5, 64, 0
5, 79008, Note_on_c, 5, 64, 92
5, 79102, Note_on_c, 5, 64, 0
5, 79104, Note_on_c, 5, 57, 92
5, 79264, Note_on_c, 5, 57, 0
5, 79296, Note_on_c, 5, 57, 92
5, 79390, Note_on_c, 5, 57, 0
5, 79392, Note_on_c, 5, 57, 92
5, 79486, Note_on_c, 5, 57, 0
5, 79488, Note_on_c, 5, 64, 92
5, 79582, Note_on_c, 5, 64, 0
5, 79584, Note_on_c, 5, 64, 92
5, 79678, Note_on_c, 5, 64, 0
5, 79680, Note_on_c, 5, 64, 92
5, 79774, Note_on_c, 5, 64, 0
5, 79776, Note_on_c, 5, 64, 92
5, 79870, Note_on_c, 5, 64, 0
5, 79872, Note_on_c, 5, 57, 92
5, 80032, Note_on_c, 5, 57, 0
5, 80640, Note_on_c, 5, 45, 45
5, 85408, Note_on_c, 5, 45, 0
5, 88320, Note_on_c, 5, 57, 45
5, 91344, Note_on_c, 5, 57, 0
5, 91392, Note_on_c, 5, 50, 92
5, 92320, Note_on_c, 5, 50, 0
5, 92352, Note_on_c, 5, 50, 92
5, 92512, Note_on_c, 5, 50, 0
5, 92544, Note_on_c, 5, 50, 92
5, 92704, Note_on_c, 5, 50, 0
5, 92736, Note_on_c, 5, 50, 92
5, 92896, Note_on_c, 5, 50, 0
5, 92928, Note_on_c, 5, 50, 45
5, 93856, Note_on_c, 5, 50, 0
5, 93888, Note_on_c, 5, 50, 45
5, 94048, Note_on_c, 5, 50, 0
5, 94080, Note_on_c, 5, 50, 45
5, 94240, Note_on_c, 5, 50, 0
5, 94272, Note_on_c, 5, 50, 45
5, 94432, Note_on_c, 5, 50, 0
5, 104448, Note_on_c, 5, 45, 45
5, 105376, Note_on_c, 5, 45, 0
5, 105984, Note_on_c, 5, 45, 45
5, 106912, Note_on_c, 5, 45, 0
5, 107520, Note_on_c, 5, 45, 45
5, 108448, Note_on_c, 5, 45, 0
5, 109056, Note_on_c, 5, 50, 45
5, 112848, Note_on_c, 5, 50, 0
5, 112896, Note_on_c, 5, 45, 45
5, 112990, Note_on_c, 5, 45, 0
5, 115200, Note_on_c, 5, 50, 92
5, 115920, Note_on_c, 5, 50, 0
5, 115968, Note_on_c, 5, 57, 92
5, 116128, Note_on_c, 5, 57, 0
5, 116160, Note_on_c, 5, 57, 92
5, 116320, Note_on_c, 5, 57, 0
5, 116352, Note_on_c, 5, 57, 92
5, 116512, Note_on_c, 5, 57, 0
5, 119040, Note_on_c, 5, 50, 45
5, 120736, Note_on_c, 5, 50, 0
5, 129888, Note_on_c, 5, 62, 45
5, 129982, Note_on_c, 5, 62, 0
5, 129984, Note_on_c, 5, 62, 45
5, 130078, Note_on_c, 5, 62, 0
5, 130080, Note_on_c, 5, 62, 45
5, 130174, Note_on_c, 5, 62, 0
5, 130176, Note_on_c, 5, 62, 45
5, 130336, Note_on_c, 5, 62, 0
5, 130656, Note_on_c, 5, 62, 45
5, 130750, Note_on_c, 5, 62, 0
5, 130752, Note_on_c, 5, 62, 45
5, 130846, Note_on_c, 5, 62, 0
5, 130848, Note_on_c, 5, 62, 45
5, 130942, Note_on_c, 5, 62, 0
5, 130944, Note_on_c, 5, 62, 45
5, 131104, Note_on_c, 5, 62, 0
5, 131328, Note_on_c, 5, 57, 45
5, 132048, Note_on_c, 5, 57, 0
5, 132096, Note_on_c, 5, 57, 45
5, 132432, Note_on_c, 5, 57, 0
5, 132480, Note_on_c, 5, 57, 45
5, 132574, Note_on_c, 5, 57, 0
5, 132576, Note_on_c, 5, 57, 45
5, 132670, Note_on_c, 5, 57, 0
5, 132672, Note_on_c, 5, 57, 45
5, 132766, Note_on_c, 5, 57, 0
5, 132768, Note_on_c, 5, 57, 45
5, 132862, Note_on_c, 5, 57, 0
5, 132864, Note_on_c, 5, 50, 45
5, 133024, Note_on_c, 5, 50, 0
5, 133056, Note_on_c, 5, 50, 45
5, 133198, Note_on_c, 5, 50, 0
5, 133200, Note_on_c, 5, 50, 45
5, 133246, Note_on_c, 5, 50, 0
5, 133248, Note_on_c, 5, 50, 45
5, 133408, Note_on_c, 5, 50, 0
5, 133440, Note_on_c, 5, 50, 45
5, 133600, Note_on_c, 5, 50, 0
5, 133632, Note_on_c, 5, 50, 45
5, 133792, Note_on_c, 5, 50, 0
5, 133824, Note_on_c, 5, 50, 45
5, 133966, Note_on_c, 5, 50, 0
5, 133968, Note_on_c, 5, 50, 45
5, 134014, Note_on_c, 5, 50, 0
5, 134016, Note_on_c, 5, 50, 45
5, 134176, Note_on_c, 5, 50, 0
5, 134208, Note_on_c, 5, 50, 45
5, 134368, Note_on_c, 5, 50, 0
5, 134400, Note_on_c, 5, 50, 45
5, 134560, Note_on_c, 5, 50, 0
5, 134592, Note_on_c, 5, 50, 45
5, 134734, Note_on_c, 5, 50, 0
5, 134736, Note_on_c, 5, 50, 45
5, 134782, Note_on_c, 5, 50, 0
5, 134784, Note_on_c, 5, 50, 45
5, 134944, Note_on_c, 5, 50, 0
5, 134976, Note_on_c, 5, 50, 45
5, 135136, Note_on_c, 5, 50, 0
5, 135168, Note_on_c, 5, 62, 45
5, 135328, Note_on_c, 5, 62, 0
5, 135360, Note_on_c, 5, 62, 45
5, 135502, Note_on_c, 5, 62, 0
5, 135504, Note_on_c, 5, 62, 45
5, 135550, Note_on_c, 5, 62, 0
5, 135552, Note_on_c, 5, 62, 45
5, 135712, Note_on_c, 5, 62, 0
5, 135744, Note_on_c, 5, 62, 45
5, 135904, Note_on_c, 5, 62, 0
5, 135936, Note_on_c, 5, 62, 45
5, 136272, Note_on_c, 5, 62, 0
5, 165888, Note_on_c, 5, 50, 92
5, 166048, Note_on_c, 5, 50, 0
5, 166080, Note_on_c, 5, 50, 92
5, 166222, Note_on_c, 5, 50, 0
5, 166224, Note_on_c, 5, 50, 92
5, 166270, Note_on_c, 5, 50, 0
5, 166272, Note_on_c, 5, 50, 92
5, 166432, Note_on_c, 5, 50, 0
5, 166464, Note_on_c, 5, 50, 92
5, 166624, Note_on_c, 5, 50, 0
5, 166656, Note_on_c, 5, 50, 92
5, 166992, Note_on_c, 5, 50, 0
5, 167040, Note_on_c, 5, 62, 92
5, 167200, Note_on_c, 5, 62, 0
5, 167232, Note_on_c, 5, 62, 92
5, 167326, Note_on_c, 5, 62, 0
5, 167328, Note_on_c, 5, 62, 92
5, 167422, Note_on_c, 5, 62, 0
5, 167424, Note_on_c, 5, 62, 92
5, 167584, Note_on_c, 5, 62, 0
5, 167616, Note_on_c, 5, 62, 92
5, 167710, Note_on_c, 5, 62, 0
5, 167712, Note_on_c, 5, 62, 92
5, 167806, Note_on_c, 5, 62, 0
5, 167808, Note_on_c, 5, 62, 92
5, 167968, Note_on_c, 5, 62, 0
5, 168000, Note_on_c, 5, 57, 92
5, 168160, Note_on_c, 5, 57, 0
5, 168192, Note_on_c, 5, 54, 92
5, 168352, Note_on_c, 5, 54, 0
5, 169152, Note_on_c, 5, 50, 92
5, 169246, Note_on_c, 5, 50, 0
5, 169248, Note_on_c, 5, 54, 92
5, 169342, Note_on_c, 5, 54, 0
5, 169344, Note_on_c, 5, 57, 92
5, 169438, Note_on_c, 5, 57, 0
5, 169440, Note_on_c, 5, 57, 92
5, 169534, Note_on_c, 5, 57, 0
5, 169536, Note_on_c, 5, 57, 92
5, 169630, Note_on_c, 5, 57, 0
5, 169632, Note_on_c, 5, 57, 92
5, 169726, Note_on_c, 5, 57, 0
5, 169728, Note_on_c, 5, 54, 92
5, 169822, Note_on_c, 5, 54, 0
5, 170688, Note_on_c, 5, 50, 92
5, 170782, Note_on_c, 5, 50, 0
5, 170784, Note_on_c, 5, 54, 92
5, 170878, Note_on_c, 5, 54, 0
5, 170880, Note_on_c, 5, 57, 92
5, 170974, Note_on_c, 5, 57, 0
5, 170976, Note_on_c, 5, 57, 92
5, 171070, Note_on_c, 5, 57, 0
5, 171072, Note_on_c, 5, 57, 92
5, 171166, Note_on_c, 5, 57, 0
5, 171168, Note_on_c, 5, 57, 92
5, 171262, Note_on_c, 5, 57, 0
5, 171264, Note_on_c, 5, 54, 92
5, 171424, Note_on_c, 5, 54, 0
5, 171456, Note_on_c, 5, 62, 92
5, 171550, Note_on_c, 5, 62, 0
5, 171552, Note_on_c, 5, 62, 92
5, 171646, Note_on_c, 5, 62, 0
5, 171648, Note_on_c, 5, 62, 92
5, 171808, Note_on_c, 5, 62, 0
5, 171840, Note_on_c, 5, 64, 92
5, 171934, Note_on_c, 5, 64, 0
5, 171936, Note_on_c, 5, 57, 92
5, 172030, Note_on_c, 5, 57, 0
5, 172032, Note_on_c, 5, 54, 92
5, 172192, Note_on_c, 5, 54, 0
5, 172512, Note_on_c, 5, 62, 92
5, 172606, Note_on_c, 5, 62, 0
5, 172608, Note_on_c, 5, 62, 92
5, 172768, Note_on_c, 5, 62, 0
5, 172800, Note_on_c, 5, 66, 92
5, 172832, Note_on_c, 5, 66, 0
5, 172896, Note_on_c, 5, 62, 92
5, 172928, Note_on_c, 5, 62, 0
5, 172992, Note_on_c, 5, 57, 92
5, 173024, Note_on_c, 5, 57, 0
5, 173088, Note_on_c, 5, 54, 92
5, 173120, Note_on_c, 5, 54, 0
5, 173184, Note_on_c, 5, 50, 92
5, 173440, Note_on_c, 5, 50, 0
5, 173440, End_track
6, 0, Start_track
6, 0, MIDI_port, 0
6, 0, Title_t, "Flauto principale"
6, 0, Program_c, 6, 73
6, 0, Control_c, 6, 7, 127
6, 0, Control_c, 6, 10, 64
6, 23904, Note_on_c, 6, 74, 110
6, 23998, Note_on_c, 6, 74, 0
6, 24000, Note_on_c, 6, 76, 110
6, 24024, Note_on_c, 6, 76, 0
6, 24024, Note_on_c, 6, 74, 110
6, 24048, Note_on_c, 6, 74, 0
6, 24048, Note_on_c, 6, 76, 110
6, 24072, Note_on_c, 6, 76, 0
6, 24072, Note_on_c, 6, 74, 110
6, 24096, Note_on_c, 6, 74, 0
6, 24096, Note_on_c, 6, 76, 110
6, 24120, Note_on_c, 6, 76, 0
6, 24120, Note_on_c, 6, 74, 110
6, 24144, Note_on_c, 6, 74, 0
6, 24144, Note_on_c, 6, 73, 110
6, 24168, Note_on_c, 6, 73, 0
6, 24168, Note_on_c, 6, 74, 110
6, 24190, Note_on_c, 6, 74, 0
6, 24192, Note_on_c, 6, 73, 110
6, 24240, Note_on_c, 6, 73, 0
6, 24240, Note_on_c, 6, 74, 110
6, 24286, Note_on_c, 6, 74, 0
6, 24288, Note_on_c, 6, 76, 110
6, 24320, Note_on_c, 6, 76, 0
6, 24336, Note_on_c, 6, 78, 110
6, 24368, Note_on_c, 6, 78, 0
6, 24384, Note_on_c, 6, 79, 110
6, 24432, Note_on_c, 6, 79, 0
6, 24432, Note_on_c, 6, 81, 110
6, 24478, Note_on_c, 6, 81, 0
6, 24480, Note_on_c, 6, 83, 110
6, 24512, Note_on_c, 6, 83, 0
6, 24528, Note_on_c, 6, 85, 110
6, 24560, Note_on_c, 6, 85, 0
6, 24576, Note_on_c, 6, 86, 110
6, 27742, Note_on_c, 6, 86, 0
6, 27744, Note_on_c, 6, 85, 110
6, 27792, Note_on_c, 6, 85, 0
6, 27792, Note_on_c, 6, 86, 110
6, 27838, Note_on_c, 6, 86, 0
6, 27840, Note_on_c, 6, 88, 110
6, 27888, Note_on_c, 6, 88, 0
6, 27888, Note_on_c, 6, 86, 110
6, 27934, Note_on_c, 6, 86, 0
6, 27936, Note_on_c, 6, 85, 110
6, 27968, Note_on_c, 6, 85, 0
6, 27984, Note_on_c, 6, 83, 110
6, 28016, Note_on_c, 6, 83, 0
6, 28032, Note_on_c, 6, 81, 110
6, 28192, Note_on_c, 6, 81, 0
6, 28224, Note_on_c, 6, 81, 110
6, 28384, Note_on_c, 6, 81, 0
6, 28416, Note_on_c, 6, 81, 110
6, 28704, Note_on_c, 6, 81, 0
6, 28704, Note_on_c, 6, 83, 110
6, 28752, Note_on_c, 6, 83, 0
6, 28752, Note_on_c, 6, 80, 110
6, 28798, Note_on_c, 6, 80, 0
6, 28800, Note_on_c, 6, 81, 110
6, 28960, Note_on_c, 6, 81, 0
6, 29184, Note_on_c, 6, 86, 110
6, 29344, Note_on_c, 6, 86, 0
6, 29376, Note_on_c, 6, 85, 110
6, 29424, Note_on_c, 6, 85, 0
6, 29424, Note_on_c, 6, 83, 110
6, 29470, Note_on_c, 6, 83, 0
6, 29472, Note_on_c, 6, 81, 110
6, 29520, Note_on_c, 6, 81, 0
6, 29520, Note_on_c, 6, 79, 110
6, 29566, Note_on_c, 6, 79, 0
6, 29568, Note_on_c, 6, 79, 110
6, 29728, Note_on_c, 6, 79, 0
6, 29760, Note_on_c, 6, 79, 110
6, 29920, Note_on_c, 6, 79, 0
6, 29952, Note_on_c, 6, 79, 110
6, 30048, Note_on_c, 6, 79, 0
6, 30048, Note_on_c, 6, 78, 110
6, 30144, Note_on_c, 6, 78, 0
6, 30144, Note_on_c, 6, 77, 110
6, 30240, Note_on_c, 6, 77, 0
6, 30240, Note_on_c, 6, 78, 110
6, 30334, Note_on_c, 6, 78, 0
6, 30336, Note_on_c, 6, 78, 110
6, 30496, Note_on_c, 6, 78, 0
6, 30624, Note_on_c, 6, 78, 110
6, 30718, Note_on_c, 6, 78, 0
6, 30720, Note_on_c, 6, 82, 110
6, 30768, Note_on_c, 6, 82, 0
6, 30768, Note_on_c, 6, 83, 110
6, 30814, Note_on_c, 6, 83, 0
6, 30816, Note_on_c, 6, 82, 110
6, 30848, Note_on_c, 6, 82, 0
6, 30864, Note_on_c, 6, 83, 110
6, 30896, Note_on_c, 6, 83, 0
6, 30912, Note_on_c, 6, 81, 110
6, 30960, Note_on_c, 6, 81, 0
6, 30960, Note_on_c, 6, 79, 110
6, 31006, Note_on_c, 6, 79, 0
6, 31008, Note_on_c, 6, 78, 110
6, 31040, Note_on_c, 6, 78, 0
6, 31056, Note_on_c, 6, 76, 110
6, 31088, Note_on_c, 6, 76, 0
6, 31104, Note_on_c, 6, 75, 110
6, 31200, Note_on_c, 6, 75, 0
6, 31200, Note_on_c, 6, 76, 110
6, 31294, Note_on_c, 6, 76, 0
6, 31296, Note_on_c, 6, 78, 110
6, 31392, Note_on_c, 6, 78, 0
6, 31392, Note_on_c, 6, 79, 110
6, 31486, Note_on_c, 6, 79, 0
6, 31488, Note_on_c, 6, 80, 110
6, 31536, Note_on_c, 6, 80, 0
6, 31536, Note_on_c, 6, 81, 110
6, 31584, Note_on_c, 6, 81, 0
6, 31584, Note_on_c, 6, 83, 110
6, 31632, Note_on_c, 6, 83, 0
6, 31632, Note_on_c, 6, 81, 110
6, 31678, Note_on_c, 6, 81, 0
6, 31680, Note_on_c, 6, 79, 110
6, 31726, Note_on_c, 6, 79, 0
6, 31728, Note_on_c, 6, 78, 110
6, 31774, Note_on_c, 6, 78, 0
6, 31776, Note_on_c, 6, 76, 110
6, 31822, Note_on_c, 6, 76, 0
6, 31824, Note_on_c, 6, 74, 110
6, 31870, Note_on_c, 6, 74, 0
6, 31872, Note_on_c, 6, 86, 110
6, 32158, Note_on_c, 6, 86, 0
6, 32208, Note_on_c, 6, 81, 110
6, 32254, Note_on_c, 6, 81, 0
6, 32256, Note_on_c, 6, 79, 110
6, 32304, Note_on_c, 6, 79, 0
6, 32304, Note_on_c, 6, 81, 110
6, 32350, Note_on_c, 6, 81, 0
6, 32352, Note_on_c, 6, 83, 110
6, 32384, Note_on_c, 6, 83, 0
6, 32400, Note_on_c, 6, 81, 110
6, 32432, Note_on_c, 6, 81, 0
6, 32448, Note_on_c, 6, 79, 110
6, 32496, Note_on_c, 6, 79, 0
6, 32496, Note_on_c, 6, 78, 110
6, 32542, Note_on_c, 6, 78, 0
6, 32544, Note_on_c, 6, 76, 110
6, 32576, Note_on_c, 6, 76, 0
6, 32592, Note_on_c, 6, 74, 110
6, 32624, Note_on_c, 6, 74, 0
6, 32640, Note_on_c, 6, 73, 110
6, 32688, Note_on_c, 6, 73, 0
6, 32688, Note_on_c, 6, 74, 110
6, 32734, Note_on_c, 6, 74, 0
6, 32736, Note_on_c, 6, 76, 110
6, 32768, Note_on_c, 6, 76, 0
6, 32784, Note_on_c, 6, 74, 110
6, 32816, Note_on_c, 6, 74, 0
6, 32832, Note_on_c, 6, 73, 110
6, 32880, Note_on_c, 6, 73, 0
6, 32880, Note_on_c, 6, 71, 110
6, 32926, Note_on_c, 6, 71, 0
6, 32928, Note_on_c, 6, 69, 110
6, 32960, Note_on_c, 6, 69, 0
6, 32976, Note_on_c, 6, 67, 110
6, 33008, Note_on_c, 6, 67, 0
6, 33024, Note_on_c, 6, 66, 110
6, 33072, Note_on_c, 6, 66, 0
6, 33072, Note_on_c, 6, 69, 110
6, 33118, Note_on_c, 6, 69, 0
6, 33120, Note_on_c, 6, 86, 110
6, 33152, Note_on_c, 6, 86, 0
6, 33168, Note_on_c, 6, 69, 110
6, 33200, Note_on_c, 6, 69, 0
6, 33216, Note_on_c, 6, 67, 110
6, 33264, Note_on_c, 6, 67, 0
6, 33264, Note_on_c, 6, 69, 110
6, 33310, Note_on_c, 6, 69, 0
6, 33312, Note_on_c, 6, 85, 110
6, 33344, Note_on_c, 6, 85, 0
6, 33360, Note_on_c, 6, 69, 110
6, 33392, Note_on_c, 6, 69, 0
6, 33408, Note_on_c, 6, 66, 110
6, 33456, Note_on_c, 6, 66, 0
6, 33456, Note_on_c, 6, 69, 110
6, 33502, Note_on_c, 6, 69, 0
6, 33504, Note_on_c, 6, 86, 110
6, 33536, Note_on_c, 6, 86, 0
6, 33552, Note_on_c, 6, 69, 110
6, 33584, Note_on_c, 6, 69, 0
6, 33600, Note_on_c, 6, 67, 110
6, 33648, Note_on_c, 6, 67, 0
6, 33648, Note_on_c, 6, 69, 110
6, 33694, Note_on_c, 6, 69, 0
6, 33696, Note_on_c, 6, 88, 110
6, 33728, Note_on_c, 6, 88, 0
6, 33744, Note_on_c, 6, 69, 110
6, 33776, Note_on_c, 6, 69, 0
6, 33792, Note_on_c, 6, 66, 110
6, 33840, Note_on_c, 6, 66, 0
6, 33840, Note_on_c, 6, 69, 110
6, 33886, Note_on_c, 6, 69, 0
6, 33888, Note_on_c, 6, 86, 110
6, 33920, Note_on_c, 6, 86, 0
6, 33936, Note_on_c, 6, 69, 110
6, 33968, Note_on_c, 6, 69, 0
6, 33984, Note_on_c, 6, 67, 110
6, 34032, Note_on_c, 6, 67, 0
6, 34032, Note_on_c, 6, 69, 110
6, 34078, Note_on_c, 6, 69, 0
6, 34080, Note_on_c, 6, 85, 110
6, 34112, Note_on_c, 6, 85, 0
6, 34128, Note_on_c, 6, 69, 110
6, 34160, Note_on_c, 6, 69, 0
6, 34176, Note_on_c, 6, 66, 110
6, 34224, Note_on_c, 6, 66, 0
6, 34224, Note_on_c, 6, 69, 110
6, 34270, Note_on_c, 6, 69, 0
6, 34272, Note_on_c, 6, 86, 110
6, 34304, Note_on_c, 6, 86, 0
6, 34320, Note_on_c, 6, 69, 110
6, 34352, Note_on_c, 6, 69, 0
6, 34368, Note_on_c, 6, 67, 110
6, 34416, Note_on_c, 6, 67, 0
6, 34416, Note_on_c, 6, 69, 110
6, 34462, Note_on_c, 6, 69, 0
6, 34464, Note_on_c, 6, 88, 110
6, 34496, Note_on_c, 6, 88, 0
6, 34512, Note_on_c, 6, 69, 110
6, 34544, Note_on_c, 6, 69, 0
6, 34560, Note_on_c, 6, 66, 110
6, 34608, Note_on_c, 6, 66, 0
6, 34608, Note_on_c, 6, 69, 110
6, 34654, Note_on_c, 6, 69, 0
6, 34656, Note_on_c, 6, 74, 110
6, 34688, Note_on_c, 6, 74, 0
6, 34704, Note_on_c, 6, 78, 110
6, 34736, Note_on_c, 6, 78, 0
6, 34752, Note_on_c, 6, 81, 110
6, 34846, Note_on_c, 6, 81, 0
6, 34896, Note_on_c, 6, 74, 110
6, 34942, Note_on_c, 6, 74, 0
6, 34944, Note_on_c, 6, 78, 110
6, 34968, Note_on_c, 6, 78, 0
6, 34968, Note_on_c, 6, 76, 110
6, 34992, Note_on_c, 6, 76, 0
6, 34992, Note_on_c, 6, 78, 110
6, 35016, Note_on_c, 6, 78, 0
6, 35016, Note_on_c, 6, 76, 110
6, 35040, Note_on_c, 6, 76, 0
6, 35040, Note_on_c, 6, 78, 110
6, 35064, Note_on_c, 6, 78, 0
6, 35064, Note_on_c, 6, 76, 110
6, 35088, Note_on_c, 6, 76, 0
6, 35088, Note_on_c, 6, 78, 110
6, 35112, Note_on_c, 6, 78, 0
6, 35112, Note_on_c, 6, 76, 110
6, 35136, Note_on_c, 6, 76, 0
6, 35136, Note_on_c, 6, 78, 110
6, 35160, Note_on_c, 6, 78, 0
6, 35160, Note_on_c, 6, 76, 110
6, 35184, Note_on_c, 6, 76, 0
6, 35184, Note_on_c, 6, 78, 110
6, 35208, Note_on_c, 6, 78, 0
6, 35208, Note_on_c, 6, 76, 110
6, 35232, Note_on_c, 6, 76, 0
6, 35232, Note_on_c, 6, 78, 110
6, 35256, Note_on_c, 6, 78, 0
6, 35256, Note_on_c, 6, 76, 110
6, 35280, Note_on_c, 6, 76, 0
6, 35280, Note_on_c, 6, 74, 110
6, 35304, Note_on_c, 6, 74, 0
6, 35304, Note_on_c, 6, 76, 110
6, 35328, Note_on_c, 6, 76, 0
6, 35328, Note_on_c, 6, 74, 110
6, 35488, Note_on_c, 6, 74, 0
6, 37728, Note_on_c, 6, 81, 110
6, 37822, Note_on_c, 6, 81, 0
6, 37824, Note_on_c, 6, 83, 110
6, 37848, Note_on_c, 6, 83, 0
6, 37848, Note_on_c, 6, 81, 110
6, 37872, Note_on_c, 6, 81, 0
6, 37872, Note_on_c, 6, 83, 110
6, 37896, Note_on_c, 6, 83, 0
6, 37896, Note_on_c, 6, 81, 110
6, 37920, Note_on_c, 6, 81, 0
6, 37920, Note_on_c, 6, 83, 110
6, 37944, Note_on_c, 6, 83, 0
6, 37944, Note_on_c, 6, 81, 110
6, 37968, Note_on_c, 6, 81, 0
6, 37968, Note_on_c, 6, 80, 110
6, 37992, Note_on_c, 6, 80, 0
6, 37992, Note_on_c, 6, 81, 110
6, 38014, Note_on_c, 6, 81, 0
6, 38016, Note_on_c, 6, 86, 110
6, 38048, Note_on_c, 6, 86, 0
6, 38112, Note_on_c, 6, 81, 110
6, 38144, Note_on_c, 6, 81, 0
6, 38208, Note_on_c, 6, 78, 110
6, 38240, Note_on_c, 6, 78, 0
6, 38304, Note_on_c, 6, 74, 110
6, 38336, Note_on_c, 6, 74, 0
6, 38400, Note_on_c, 6, 69, 110
6, 38448, Note_on_c, 6, 69, 0
6, 38592, Note_on_c, 6, 74, 110
6, 38784, Note_on_c, 6, 74, 0
6, 38784, Note_on_c, 6, 76, 110
6, 38976, Note_on_c, 6, 76, 0
6, 38976, Note_on_c, 6, 78, 110
6, 39136, Note_on_c, 6, 78, 0
6, 39168, Note_on_c, 6, 75, 110
6, 39456, Note_on_c, 6, 75, 0
6, 39456, Note_on_c, 6, 76, 110
6, 39550, Note_on_c, 6, 76, 0
6, 39552, Note_on_c, 6, 76, 110
6, 39712, Note_on_c, 6, 76, 0
6, 40032, Note_on_c, 6, 81, 110
6, 40126, Note_on_c, 6, 81, 0
6, 40128, Note_on_c, 6, 83, 110
6, 40152, Note_on_c, 6, 83, 0
6, 40152, Note_on_c, 6, 81, 110
6, 40176, Note_on_c, 6, 81, 0
6, 40176, Note_on_c, 6, 83, 110
6, 40200, Note_on_c, 6, 83, 0
6, 40200, Note_on_c, 6, 81, 110
6, 40224, Note_on_c, 6, 81, 0
6, 40224, Note_on_c, 6, 83, 110
6, 40248, Note_on_c, 6, 83, 0
6, 40248, Note_on_c, 6, 81, 110
6, 40272, Note_on_c, 6, 81, 0
6, 40272, Note_on_c, 6, 80, 110
6, 40296, Note_on_c, 6, 80, 0
6, 40296, Note_on_c, 6, 81, 110
6, 40318, Note_on_c, 6, 81, 0
6, 40320, Note_on_c, 6, 85, 110
6, 40352, Note_on_c, 6, 85, 0
6, 40416, Note_on_c, 6, 81, 110
6, 40448, Note_on_c, 6, 81, 0
6, 40512, Note_on_c, 6, 76, 110
6, 40544, Note_on_c, 6, 76, 0
6, 40608, Note_on_c, 6, 73, 110
6, 40640, Note_on_c, 6, 73, 0
6, 40704, Note_on_c, 6, 69, 110
6, 40752, Note_on_c, 6, 69, 0
6, 40896, Note_on_c, 6, 76, 110
6, 41088, Note_on_c, 6, 76, 0
6, 41088, Note_on_c, 6, 78, 110
6, 41280, Note_on_c, 6, 78, 0
6, 41280, Note_on_c, 6, 79, 110
6, 41440, Note_on_c, 6, 79, 0
6, 41472, Note_on_c, 6, 77, 110
6, 41760, Note_on_c, 6, 77, 0
6, 41760, Note_on_c, 6, 78, 110
6, 41854, Note_on_c, 6, 78, 0
6, 41856, Note_on_c, 6, 78, 110
6, 42016, Note_on_c, 6, 78, 0
6, 42336, Note_on_c, 6, 81, 110
6, 42430, Note_on_c, 6, 81, 0
6, 42432, Note_on_c, 6, 83, 110
6, 42456, Note_on_c, 6, 83, 0
6, 42456, Note_on_c, 6, 81, 110
6, 42480, Note_on_c, 6, 81, 0
6, 42480, Note_on_c, 6, 83, 110
6, 42504, Note_on_c, 6, 83, 0
6, 42504, Note_on_c, 6, 81, 110
6, 42528, Note_on_c, 6, 81, 0
6, 42528, Note_on_c, 6, 83, 110
6, 42552, Note_on_c, 6, 83, 0
6, 42552, Note_on_c, 6, 81, 110
6, 42576, Note_on_c, 6, 81, 0
6, 42576, Note_on_c, 6, 80, 110
6, 42600, Note_on_c, 6, 80, 0
6, 42600, Note_on_c, 6, 81, 110
6, 42622, Note_on_c, 6, 81, 0
6, 42624, Note_on_c, 6, 86, 110
6, 42720, Note_on_c, 6, 86, 0
6, 42720, Note_on_c, 6, 85, 110
6, 42816, Note_on_c, 6, 85, 0
6, 42816, Note_on_c, 6, 83, 110
6, 42912, Note_on_c, 6, 83, 0
6, 42912, Note_on_c, 6, 81, 110
6, 43006, Note_on_c, 6, 81, 0
6, 43008, Note_on_c, 6, 80, 110
6, 43264, Note_on_c, 6, 80, 0
6, 43296, Note_on_c, 6, 81, 110
6, 43344, Note_on_c, 6, 81, 0
6, 43344, Note_on_c, 6, 83, 110
6, 43390, Note_on_c, 6, 83, 0
6, 43392, Note_on_c, 6, 81, 110
6, 43488, Note_on_c, 6, 81, 0
6, 43488, Note_on_c, 6, 85, 110
6, 43584, Note_on_c, 6, 85, 0
6, 43584, Note_on_c, 6, 81, 110
6, 43680, Note_on_c, 6, 81, 0
6, 43680, Note_on_c, 6, 78, 110
6, 43774, Note_on_c, 6, 78, 0
6, 43776, Note_on_c, 6, 76, 110
6, 43936, Note_on_c, 6, 76, 0
6, 43968, Note_on_c, 6, 74, 110
6, 44112, Note_on_c, 6, 74, 0
6, 44112, Note_on_c, 6, 73, 110
6, 44136, Note_on_c, 6, 73, 0
6, 44136, Note_on_c, 6, 74, 110
6, 44158, Note_on_c, 6, 74, 0
6, 44160, Note_on_c, 6, 73, 110
6, 44320, Note_on_c, 6, 73, 0
6, 44448, Note_on_c, 6, 81, 110
6, 44542, Note_on_c, 6, 81, 0
6, 44544, Note_on_c, 6, 80, 110
6, 44592, Note_on_c, 6, 80, 0
6, 44592, Note_on_c, 6, 81, 110
6, 44638, Note_on_c, 6, 81, 0
6, 44640, Note_on_c, 6, 83, 110
6, 44672, Note_on_c, 6, 83, 0
6, 44688, Note_on_c, 6, 85, 110
6, 44720, Note_on_c, 6, 85, 0
6, 44736, Note_on_c, 6, 86, 110
6, 44784, Note_on_c, 6, 86, 0
6, 44784, Note_on_c, 6, 83, 110
6, 44830, Note_on_c, 6, 83, 0
6, 44832, Note_on_c, 6, 81, 110
6, 44864, Note_on_c, 6, 81, 0
6, 44880, Note_on_c, 6, 80, 110
6, 44912, Note_on_c, 6, 80, 0
6, 44928, Note_on_c, 6, 81, 110
6, 44976, Note_on_c, 6, 81, 0
6, 44976, Note_on_c, 6, 83, 110
6, 45022, Note_on_c, 6, 83, 0
6, 45024, Note_on_c, 6, 85, 110
6, 45056, Note_on_c, 6, 85, 0
6, 45072, Note_on_c, 6, 83, 110
6, 45104, Note_on_c, 6, 83, 0
6, 45120, Note_on_c, 6, 81, 110
6, 45168, Note_on_c, 6, 81, 0
6, 45168, Note_on_c, 6, 80, 110
6, 45214, Note_on_c, 6, 80, 0
6, 45216, Note_on_c, 6, 78, 110
6, 45248, Note_on_c, 6, 78, 0
6, 45264, Note_on_c, 6, 76, 110
6, 45296, Note_on_c, 6, 76, 0
6, 45312, Note_on_c, 6, 74, 110
6, 45360, Note_on_c, 6, 74, 0
6, 45360, Note_on_c, 6, 76, 110
6, 45406, Note_on_c, 6, 76, 0
6, 45408, Note_on_c, 6, 78, 110
6, 45440, Note_on_c, 6, 78, 0
6, 45456, Note_on_c, 6, 76, 110
6, 45488, Note_on_c, 6, 76, 0
6, 45504, Note_on_c, 6, 80, 110
6, 45552, Note_on_c, 6, 80, 0
6, 45552, Note_on_c, 6, 78, 110
6, 45598, Note_on_c, 6, 78, 0
6, 45600, Note_on_c, 6, 76, 110
6, 45632, Note_on_c, 6, 76, 0
6, 45648, Note_on_c, 6, 74, 110
6, 45680, Note_on_c, 6, 74, 0
6, 45696, Note_on_c, 6, 73, 110
6, 45790, Note_on_c, 6, 73, 0
6, 45792, Note_on_c, 6, 88, 110
6, 45888, Note_on_c, 6, 88, 0
6, 45888, Note_on_c, 6, 86, 110
6, 45984, Note_on_c, 6, 86, 0
6, 45984, Note_on_c, 6, 85, 110
6, 46078, Note_on_c, 6, 85, 0
6, 46080, Note_on_c, 6, 85, 110
6, 46176, Note_on_c, 6, 85, 0
6, 46176, Note_on_c, 6, 83, 110
6, 46270, Note_on_c, 6, 83, 0
6, 46272, Note_on_c, 6, 83, 110
6, 46528, Note_on_c, 6, 83, 0
6, 46560, Note_on_c, 6, 82, 110
6, 46608, Note_on_c, 6, 82, 0
6, 46608, Note_on_c, 6, 83, 110
6, 46654, Note_on_c, 6, 83, 0
6, 46656, Note_on_c, 6, 85, 110
6, 46688, Note_on_c, 6, 85, 0
6, 46752, Note_on_c, 6, 82, 110
6, 46784, Note_on_c, 6, 82, 0
6, 46848, Note_on_c, 6, 85, 110
6, 46944, Note_on_c, 6, 85, 0
6, 46944, Note_on_c, 6, 83, 110
6, 47038, Note_on_c, 6, 83, 0
6, 47040, Note_on_c, 6, 83, 110
6, 47296, Note_on_c, 6, 83, 0
6, 47328, Note_on_c, 6, 82, 110
6, 47376, Note_on_c, 6, 82, 0
6, 47376, Note_on_c, 6, 83, 110
6, 47422, Note_on_c, 6, 83, 0
6, 47424, Note_on_c, 6, 86, 110
6, 47472, Note_on_c, 6, 86, 0
6, 47472, Note_on_c, 6, 85, 110
6, 47518, Note_on_c, 6, 85, 0
6, 47520, Note_on_c, 6, 83, 110
6, 47566, Note_on_c, 6, 83, 0
6, 47568, Note_on_c, 6, 82, 110
6, 47614, Note_on_c, 6, 82, 0
6, 47616, Note_on_c, 6, 83, 110
6, 47648, Note_on_c, 6, 83, 0
6, 47664, Note_on_c, 6, 78, 110
6, 47696, Note_on_c, 6, 78, 0
6, 47712, Note_on_c, 6, 86, 110
6, 47760, Note_on_c, 6, 86, 0
6, 47760, Note_on_c, 6, 85, 110
6, 47806, Note_on_c, 6, 85, 0
6, 47808, Note_on_c, 6, 83, 110
6, 48064, Note_on_c, 6, 83, 0
6, 48096, Note_on_c, 6, 85, 110
6, 48144, Note_on_c, 6, 85, 0
6, 48144, Note_on_c, 6, 83, 110
6, 48190, Note_on_c, 6, 83, 0
6, 48192, Note_on_c, 6, 83, 110
6, 48240, Note_on_c, 6, 83, 0
6, 48240, Note_on_c, 6, 81, 110
6, 48286, Note_on_c, 6, 81, 0
6, 48288, Note_on_c, 6, 80, 110
6, 48334, Note_on_c, 6, 80, 0
6, 48336, Note_on_c, 6, 81, 110
6, 48382, Note_on_c, 6, 81, 0
6, 48384, Note_on_c, 6, 81, 110
6, 48480, Note_on_c, 6, 81, 0
6, 48480, Note_on_c, 6, 80, 110
6, 48736, Note_on_c, 6, 80, 0
6, 48960, Note_on_c, 6, 76, 110
6, 49120, Note_on_c, 6, 76, 0
6, 49152, Note_on_c, 6, 74, 110
6, 49200, Note_on_c, 6, 74, 0
6, 49200, Note_on_c, 6, 76, 110
6, 49246, Note_on_c, 6, 76, 0
6, 49248, Note_on_c, 6, 74, 110
6, 49280, Note_on_c, 6, 74, 0
6, 49296, Note_on_c, 6, 73, 110
6, 49328, Note_on_c, 6, 73, 0
6, 49344, Note_on_c, 6, 74, 110
6, 49392, Note_on_c, 6, 74, 0
6, 49392, Note_on_c, 6, 76, 110
6, 49438, Note_on_c, 6, 76, 0
6, 49440, Note_on_c, 6, 74, 110
6, 49472, Note_on_c, 6, 74, 0
6, 49488, Note_on_c, 6, 73, 110
6, 49520, Note_on_c, 6, 73, 0
6, 49536, Note_on_c, 6, 74, 110
6, 49584, Note_on_c, 6, 74, 0
6, 49584, Note_on_c, 6, 71, 110
6, 49630, Note_on_c, 6, 71, 0
6, 49632, Note_on_c, 6, 73, 110
6, 49664, Note_on_c, 6, 73, 0
6, 49680, Note_on_c, 6, 74, 110
6, 49712, Note_on_c, 6, 74, 0
6, 49728, Note_on_c, 6, 76, 110
6, 49776, Note_on_c, 6, 76, 0
6, 49776, Note_on_c, 6, 78, 110
6, 49822, Note_on_c, 6, 78, 0
6, 49824, Note_on_c, 6, 80, 110
6, 49856, Note_on_c, 6, 80, 0
6, 49872, Note_on_c, 6, 81, 110
6, 49904, Note_on_c, 6, 81, 0
6, 49920, Note_on_c, 6, 80, 110
6, 49968, Note_on_c, 6, 80, 0
6, 49968, Note_on_c, 6, 81, 110
6, 50014, Note_on_c, 6, 81, 0
6, 50016, Note_on_c, 6, 80, 110
6, 50048, Note_on_c, 6, 80, 0
6, 50064, Note_on_c, 6, 78, 110
6, 50096, Note_on_c, 6, 78, 0
6, 50112, Note_on_c, 6, 80, 110
6, 50160, Note_on_c, 6, 80, 0
6, 50160, Note_on_c, 6, 81, 110
6, 50206, Note_on_c, 6, 81, 0
6, 50208, Note_on_c, 6, 80, 110
6, 50240, Note_on_c, 6, 80, 0
6, 50256, Note_on_c, 6, 78, 110
6, 50288, Note_on_c, 6, 78, 0
6, 50304, Note_on_c, 6, 80, 110
6, 50352, Note_on_c, 6, 80, 0
6, 50352, Note_on_c, 6, 78, 110
6, 50398, Note_on_c, 6, 78, 0
6, 50400, Note_on_c, 6, 76, 110
6, 50432, Note_on_c, 6, 76, 0
6, 50448, Note_on_c, 6, 78, 110
6, 50480, Note_on_c, 6, 78, 0
6, 50496, Note_on_c, 6, 80, 110
6, 50544, Note_on_c, 6, 80, 0
6, 50544, Note_on_c, 6, 81, 110
6, 50590, Note_on_c, 6, 81, 0
6, 50592, Note_on_c, 6, 83, 110
6, 50624, Note_on_c, 6, 83, 0
6, 50640, Note_on_c, 6, 85, 110
6, 50672, Note_on_c, 6, 85, 0
6, 50688, Note_on_c, 6, 86, 110
6, 50736, Note_on_c, 6, 86, 0
6, 50736, Note_on_c, 6, 85, 110
6, 50782, Note_on_c, 6, 85, 0
6, 50784, Note_on_c, 6, 83, 110
6, 50816, Note_on_c, 6, 83, 0
6, 50832, Note_on_c, 6, 85, 110
6, 50864, Note_on_c, 6, 85, 0
6, 50880, Note_on_c, 6, 83, 110
6, 50928, Note_on_c, 6, 83, 0
6, 50928, Note_on_c, 6, 81, 110
6, 50974, Note_on_c, 6, 81, 0
6, 50976, Note_on_c, 6, 80, 110
6, 51008, Note_on_c, 6, 80, 0
6, 51024, Note_on_c, 6, 81, 110
6, 51056, Note_on_c, 6, 81, 0
6, 51072, Note_on_c, 6, 83, 110
6, 51120, Note_on_c, 6, 83, 0
6, 51120, Note_on_c, 6, 81, 110
6, 51166, Note_on_c, 6, 81, 0
6, 51168, Note_on_c, 6, 80, 110
6, 51200, Note_on_c, 6, 80, 0
6, 51216, Note_on_c, 6, 78, 110
6, 51248, Note_on_c, 6, 78, 0
6, 51264, Note_on_c, 6, 76, 110
6, 51312, Note_on_c, 6, 76, 0
6, 51312, Note_on_c, 6, 74, 110
6, 51358, Note_on_c, 6, 74, 0
6, 51360, Note_on_c, 6, 73, 110
6, 51392, Note_on_c, 6, 73, 0
6, 51408, Note_on_c, 6, 74, 110
6, 51440, Note_on_c, 6, 74, 0
6, 51456, Note_on_c, 6, 73, 110
6, 51504, Note_on_c, 6, 73, 0
6, 51504, Note_on_c, 6, 76, 110
6, 51550, Note_on_c, 6, 76, 0
6, 51552, Note_on_c, 6, 74, 110
6, 51584, Note_on_c, 6, 74, 0
6, 51600, Note_on_c, 6, 78, 110
6, 51632, Note_on_c, 6, 78, 0
6, 51648, Note_on_c, 6, 76, 110
6, 51808, Note_on_c, 6, 76, 0
6, 51888, Note_on_c, 6, 81, 110
6, 51920, Note_on_c, 6, 81, 0
6, 51936, Note_on_c, 6, 80, 110
6, 51984, Note_on_c, 6, 80, 0
6, 51984, Note_on_c, 6, 81, 110
6, 52030, Note_on_c, 6, 81, 0
6, 52032, Note_on_c, 6, 83, 110
6, 52080, Note_on_c, 6, 83, 0
6, 52080, Note_on_c, 6, 81, 110
6, 52126, Note_on_c, 6, 81, 0
6, 52128, Note_on_c, 6, 80, 110
6, 52160, Note_on_c, 6, 80, 0
6, 52176, Note_on_c, 6, 81, 110
6, 52208, Note_on_c, 6, 81, 0
6, 52224, Note_on_c, 6, 74, 110
6, 52272, Note_on_c, 6, 74, 0
6, 52272, Note_on_c, 6, 78, 110
6, 52318, Note_on_c, 6, 78, 0
6, 52320, Note_on_c, 6, 76, 110
6, 52352, Note_on_c, 6, 76, 0
6, 52368, Note_on_c, 6, 79, 110
6, 52400, Note_on_c, 6, 79, 0
6, 52416, Note_on_c, 6, 78, 110
6, 52576, Note_on_c, 6, 78, 0
6, 52656, Note_on_c, 6, 81, 110
6, 52688, Note_on_c, 6, 81, 0
6, 52704, Note_on_c, 6, 80, 110
6, 52752, Note_on_c, 6, 80, 0
6, 52752, Note_on_c, 6, 81, 110
6, 52798, Note_on_c, 6, 81, 0
6, 52800, Note_on_c, 6, 83, 110
6, 52848, Note_on_c, 6, 83, 0
6, 52848, Note_on_c, 6, 81, 110
6, 52894, Note_on_c, 6, 81, 0
6, 52896, Note_on_c, 6, 80, 110
6, 52928, Note_on_c, 6, 80, 0
6, 52944, Note_on_c, 6, 81, 110
6, 52976, Note_on_c, 6, 81, 0
6, 52992, Note_on_c, 6, 76, 110
6, 53040, Note_on_c, 6, 76, 0
6, 53040, Note_on_c, 6, 79, 110
6, 53086, Note_on_c, 6, 79, 0
6, 53088, Note_on_c, 6, 78, 110
6, 53120, Note_on_c, 6, 78, 0
6, 53136, Note_on_c, 6, 81, 110
6, 53168, Note_on_c, 6, 81, 0
6, 53184, Note_on_c, 6, 79, 110
6, 53344, Note_on_c, 6, 79, 0
6, 53424, Note_on_c, 6, 81, 110
6, 53456, Note_on_c, 6, 81, 0
6, 53472, Note_on_c, 6, 80, 110
6, 53520, Note_on_c, 6, 80, 0
6, 53520, Note_on_c, 6, 81, 110
6, 53566, Note_on_c, 6, 81, 0
6, 53568, Note_on_c, 6, 83, 110
6, 53616, Note_on_c, 6, 83, 0
6, 53616, Note_on_c, 6, 81, 110
6, 53662, Note_on_c, 6, 81, 0
6, 53664, Note_on_c, 6, 80, 110
6, 53710, Note_on_c, 6, 80, 0
6, 53712, Note_on_c, 6, 81, 110
6, 53758, Note_on_c, 6, 81, 0
6, 53760, Note_on_c, 6, 81, 110
6, 54576, Note_on_c, 6, 81, 0
6, 54576, Note_on_c, 6, 83, 110
6, 54624, Note_on_c, 6, 83, 0
6, 54624, Note_on_c, 6, 84, 110
6, 54672, Note_on_c, 6, 84, 0
6, 54672, Note_on_c, 6, 83, 110
6, 54718, Note_on_c, 6, 83, 0
6, 54720, Note_on_c, 6, 84, 110
6, 55006, Note_on_c, 6, 84, 0
6, 55008, Note_on_c, 6, 83, 110
6, 55168, Note_on_c, 6, 83, 0
6, 55200, Note_on_c, 6, 81, 110
6, 55294, Note_on_c, 6, 81, 0
6, 55296, Note_on_c, 6, 83, 110
6, 55318, Note_on_c, 6, 83, 0
6, 55320, Note_on_c, 6, 81, 110
6, 55342, Note_on_c, 6, 81, 0
6, 55344, Note_on_c, 6, 83, 110
6, 55366, Note_on_c, 6, 83, 0
6, 55368, Note_on_c, 6, 81, 110
6, 55390, Note_on_c, 6, 81, 0
6, 55392, Note_on_c, 6, 80, 110
6, 55486, Note_on_c, 6, 80, 0
6, 55584, Note_on_c, 6, 80, 110
6, 55678, Note_on_c, 6, 80, 0
6, 55680, Note_on_c, 6, 81, 110
6, 55702, Note_on_c, 6, 81, 0
6, 55704, Note_on_c, 6, 80, 110
6, 55726, Note_on_c, 6, 80, 0
6, 55728, Note_on_c, 6, 81, 110
6, 55750, Note_on_c, 6, 81, 0
6, 55752, Note_on_c, 6, 80, 110
6, 55774, Note_on_c, 6, 80, 0
6, 55776, Note_on_c, 6, 78, 110
6, 55870, Note_on_c, 6, 78, 0
6, 55968, Note_on_c, 6, 78, 110
6, 56062, Note_on_c, 6, 78, 0
6, 56064, Note_on_c, 6, 80, 110
6, 56086, Note_on_c, 6, 80, 0
6, 56088, Note_on_c, 6, 78, 110
6, 56110, Note_on_c, 6, 78, 0
6, 56112, Note_on_c, 6, 80, 110
6, 56134, Note_on_c, 6, 80, 0
6, 56136, Note_on_c, 6, 78, 110
6, 56158, Note_on_c, 6, 78, 0
6, 56160, Note_on_c, 6, 76, 110
6, 56254, Note_on_c, 6, 76, 0
6, 56256, Note_on_c, 6, 85, 110
6, 56400, Note_on_c, 6, 85, 0
6, 56400, Note_on_c, 6, 81, 110
6, 56446, Note_on_c, 6, 81, 0
6, 56448, Note_on_c, 6, 81, 110
6, 56592, Note_on_c, 6, 81, 0
6, 56592, Note_on_c, 6, 78, 110
6, 56638, Note_on_c, 6, 78, 0
6, 56640, Note_on_c, 6, 78, 110
6, 56784, Note_on_c, 6, 78, 0
6, 56784, Note_on_c, 6, 74, 110
6, 56830, Note_on_c, 6, 74, 0
6, 56832, Note_on_c, 6, 73, 110
6, 56880, Note_on_c, 6, 73, 0
6, 56880, Note_on_c, 6, 76, 110
6, 56926, Note_on_c, 6, 76, 0
6, 56928, Note_on_c, 6, 78, 110
6, 56960, Note_on_c, 6, 78, 0
6, 56976, Note_on_c, 6, 76, 110
6, 57008, Note_on_c, 6, 76, 0
6, 57024, Note_on_c, 6, 74, 110
6, 57072, Note_on_c, 6, 74, 0
6, 57072, Note_on_c, 6, 73, 110
6, 57118, Note_on_c, 6, 73, 0
6, 57120, Note_on_c, 6, 71, 110
6, 57152, Note_on_c, 6, 71, 0
6, 57168, Note_on_c, 6, 69, 110
6, 57200, Note_on_c, 6, 69, 0
6, 57216, Note_on_c, 6, 73, 110
6, 57240, Note_on_c, 6, 73, 0
6, 57240, Note_on_c, 6, 71, 110
6, 57264, Note_on_c, 6, 71, 0
6, 57264, Note_on_c, 6, 73, 110
6, 57288, Note_on_c, 6, 73, 0
6, 57288, Note_on_c, 6, 71, 110
6, 57312, Note_on_c, 6, 71, 0
6, 57312, Note_on_c, 6, 73, 110
6, 57336, Note_on_c, 6, 73, 0
6, 57336, Note_on_c, 6, 71, 110
6, 57360, Note_on_c, 6, 71, 0
6, 57360, Note_on_c, 6, 73, 110
6, 57384, Note_on_c, 6, 73, 0
6, 57384, Note_on_c, 6, 71, 110
6, 57408, Note_on_c, 6, 71, 0
6, 57408, Note_on_c, 6, 73, 110
6, 57432, Note_on_c, 6, 73, 0
6, 57432, Note_on_c, 6, 71, 110
6, 57456, Note_on_c, 6, 71, 0
6, 57456, Note_on_c, 6, 73, 110
6, 57480, Note_on_c, 6, 73, 0
6, 57480, Note_on_c, 6, 71, 110
6, 57504, Note_on_c, 6, 71, 0
6, 57504, Note_on_c, 6, 73, 110
6, 57528, Note_on_c, 6, 73, 0
6, 57528, Note_on_c, 6, 71, 110
6, 57552, Note_on_c, 6, 71, 0
6, 57552, Note_on_c, 6, 69, 110
6, 57576, Note_on_c, 6, 69, 0
6, 57576, Note_on_c, 6, 71, 110
6, 57600, Note_on_c, 6, 71, 0
6, 57600, Note_on_c, 6, 69, 110
6, 57760, Note_on_c, 6, 69, 0
6, 59136, Note_on_c, 6, 76, 110
6, 59472, Note_on_c, 6, 76, 0
6, 59520, Note_on_c, 6, 78, 110
6, 59568, Note_on_c, 6, 78, 0
6, 59568, Note_on_c, 6, 76, 110
6, 59872, Note_on_c, 6, 76, 0
6, 59904, Note_on_c, 6, 78, 110
6, 59952, Note_on_c, 6, 78, 0
6, 59952, Note_on_c, 6, 76, 110
6, 60094, Note_on_c, 6, 76, 0
6, 60672, Note_on_c, 6, 81, 110
6, 60768, Note_on_c, 6, 81, 0
6, 60768, Note_on_c, 6, 78, 110
6, 60862, Note_on_c, 6, 78, 0
6, 60864, Note_on_c, 6, 74, 110
6, 61120, Note_on_c, 6, 74, 0
6, 61152, Note_on_c, 6, 76, 110
6, 61200, Note_on_c, 6, 76, 0
6, 61200, Note_on_c, 6, 74, 110
6, 61246, Note_on_c, 6, 74, 0
6, 61248, Note_on_c, 6, 73, 110
6, 61280, Note_on_c, 6, 73, 0
6, 61344, Note_on_c, 6, 74, 110
6, 61376, Note_on_c, 6, 74, 0
6, 61440, Note_on_c, 6, 76, 110
6, 61536, Note_on_c, 6, 76, 0
6, 61536, Note_on_c, 6, 73, 110
6, 61630, Note_on_c, 6, 73, 0
6, 61632, Note_on_c, 6, 69, 110
6, 61792, Note_on_c, 6, 69, 0
6, 62208, Note_on_c, 6, 81, 110
6, 62304, Note_on_c, 6, 81, 0
6, 62304, Note_on_c, 6, 78, 110
6, 62398, Note_on_c, 6, 78, 0
6, 62400, Note_on_c, 6, 74, 110
6, 62656, Note_on_c, 6, 74, 0
6, 62688, Note_on_c, 6, 76, 110
6, 62736, Note_on_c, 6, 76, 0
6, 62736, Note_on_c, 6, 74, 110
6, 62782, Note_on_c, 6, 74, 0
6, 62784, Note_on_c, 6, 73, 110
6, 62878, Note_on_c, 6, 73, 0
6, 62880, Note_on_c, 6, 74, 110
6, 62974, Note_on_c, 6, 74, 0
6, 62976, Note_on_c, 6, 76, 110
6, 63070, Note_on_c, 6, 76, 0
6, 63072, Note_on_c, 6, 78, 110
6, 63104, Note_on_c, 6, 78, 0
6, 63120, Note_on_c, 6, 80, 110
6, 63152, Note_on_c, 6, 80, 0
6, 63168, Note_on_c, 6, 81, 110
6, 63200, Note_on_c, 6, 81, 0
6, 63216, Note_on_c, 6, 83, 110
6, 63248, Note_on_c, 6, 83, 0
6, 63264, Note_on_c, 6, 85, 110
6, 63296, Note_on_c, 6, 85, 0
6, 63312, Note_on_c, 6, 86, 110
6, 63344, Note_on_c, 6, 86, 0
6, 63360, Note_on_c, 6, 88, 110
6, 63648, Note_on_c, 6, 88, 0
6, 63648, Note_on_c, 6, 80, 110
6, 63742, Note_on_c, 6, 80, 0
6, 63744, Note_on_c, 6, 83, 110
6, 63840, Note_on_c, 6, 83, 0
6, 63840, Note_on_c, 6, 81, 110
6, 63934, Note_on_c, 6, 81, 0
6, 64032, Note_on_c, 6, 85, 110
6, 64126, Note_on_c, 6, 85, 0
6, 64128, Note_on_c, 6, 82, 110
6, 64224, Note_on_c, 6, 82, 0
6, 64224, Note_on_c, 6, 83, 110
6, 64318, Note_on_c, 6, 83, 0
6, 64416, Note_on_c, 6, 86, 110
6, 64510, Note_on_c, 6, 86, 0
6, 64512, Note_on_c, 6, 84, 110
6, 64608, Note_on_c, 6, 84, 0
6, 64608, Note_on_c, 6, 85, 110
6, 64702, Note_on_c, 6, 85, 0
6, 64800, Note_on_c, 6, 76, 110
6, 64896, Note_on_c, 6, 76, 0
6, 64896, Note_on_c, 6, 88, 110
6, 64990, Note_on_c, 6, 88, 0
6, 64992, Note_on_c, 6, 88, 110
6, 65152, Note_on_c, 6, 88, 0
6, 65184, Note_on_c, 6, 80, 110
6, 65278, Note_on_c, 6, 80, 0
6, 65280, Note_on_c, 6, 83, 110
6, 65328, Note_on_c, 6, 83, 0
6, 65328, Note_on_c, 6, 81, 110
6, 65374, Note_on_c, 6, 81, 0
6, 65376, Note_on_c, 6, 80, 110
6, 65408, Note_on_c, 6, 80, 0
6, 65424, Note_on_c, 6, 81, 110
6, 65456, Note_on_c, 6, 81, 0
6, 65472, Note_on_c, 6, 80, 110
6, 65520, Note_on_c, 6, 80, 0
6, 65520, Note_on_c, 6, 81, 110
6, 65566, Note_on_c, 6, 81, 0
6, 65568, Note_on_c, 6, 83, 110
6, 65600, Note_on_c, 6, 83, 0
6, 65616, Note_on_c, 6, 85, 110
6, 65648, Note_on_c, 6, 85, 0
6, 65664, Note_on_c, 6, 85, 110
6, 65712, Note_on_c, 6, 85, 0
6, 65712, Note_on_c, 6, 83, 110
6, 65758, Note_on_c, 6, 83, 0
6, 65760, Note_on_c, 6, 82, 110
6, 65792, Note_on_c, 6, 82, 0
6, 65808, Note_on_c, 6, 83, 110
6, 65840, Note_on_c, 6, 83, 0
6, 65856, Note_on_c, 6, 82, 110
6, 65904, Note_on_c, 6, 82, 0
6, 65904, Note_on_c, 6, 83, 110
6, 65950, Note_on_c, 6, 83, 0
6, 65952, Note_on_c, 6, 85, 110
6, 65984, Note_on_c, 6, 85, 0
6, 66000, Note_on_c, 6, 86, 110
6, 66032, Note_on_c, 6, 86, 0
6, 66048, Note_on_c, 6, 85, 110
6, 66096, Note_on_c, 6, 85, 0
6, 66096, Note_on_c, 6, 88, 110
6, 66142, Note_on_c, 6, 88, 0
6, 66144, Note_on_c, 6, 80, 110
6, 66176, Note_on_c, 6, 80, 0
6, 66192, Note_on_c, 6, 83, 110
6, 66224, Note_on_c, 6, 83, 0
6, 66240, Note_on_c, 6, 81, 110
6, 66288, Note_on_c, 6, 81, 0
6, 66288, Note_on_c, 6, 85, 110
6, 66334, Note_on_c, 6, 85, 0
6, 66336, Note_on_c, 6, 77, 110
6, 66368, Note_on_c, 6, 77, 0
6, 66384, Note_on_c, 6, 80, 110
6, 66416, Note_on_c, 6, 80, 0
6, 66432, Note_on_c, 6, 78, 110
6, 66480, Note_on_c, 6, 78, 0
6, 66480, Note_on_c, 6, 81, 110
6, 66526, Note_on_c, 6, 81, 0
6, 66528, Note_on_c, 6, 73, 110
6, 66560, Note_on_c, 6, 73, 0
6, 66576, Note_on_c, 6, 76, 110
6, 66608, Note_on_c, 6, 76, 0
6, 66624, Note_on_c, 6, 74, 110
6, 66672, Note_on_c, 6, 74, 0
6, 66672, Note_on_c, 6, 78, 110
6, 66718, Note_on_c, 6, 78, 0
6, 66720, Note_on_c, 6, 70, 110
6, 66752, Note_on_c, 6, 70, 0
6, 66768, Note_on_c, 6, 73, 110
6, 66800, Note_on_c, 6, 73, 0
6, 66816, Note_on_c, 6, 71, 110
6, 66864, Note_on_c, 6, 71, 0
6, 66864, Note_on_c, 6, 73, 110
6, 66910, Note_on_c, 6, 73, 0
6, 66912, Note_on_c, 6, 74, 110
6, 66944, Note_on_c, 6, 74, 0
6, 66960, Note_on_c, 6, 76, 110
6, 66992, Note_on_c, 6, 76, 0
6, 67008, Note_on_c, 6, 78, 110
6, 67344, Note_on_c, 6, 78, 0
6, 67392, Note_on_c, 6, 76, 110
6, 67440, Note_on_c, 6, 76, 0
6, 67440, Note_on_c, 6, 74, 110
6, 67486, Note_on_c, 6, 74, 0
6, 67488, Note_on_c, 6, 73, 110
6, 67534, Note_on_c, 6, 73, 0
6, 67536, Note_on_c, 6, 71, 110
6, 67582, Note_on_c, 6, 71, 0
6, 67584, Note_on_c, 6, 76, 110
6, 67744, Note_on_c, 6, 76, 0
6, 67776, Note_on_c, 6, 74, 110
6, 67824, Note_on_c, 6, 74, 0
6, 67824, Note_on_c, 6, 73, 110
6, 67870, Note_on_c, 6, 73, 0
6, 67872, Note_on_c, 6, 71, 110
6, 67918, Note_on_c, 6, 71, 0
6, 67920, Note_on_c, 6, 69, 110
6, 67966, Note_on_c, 6, 69, 0
6, 67968, Note_on_c, 6, 73, 110
6, 67992, Note_on_c, 6, 73, 0
6, 67992, Note_on_c, 6, 71, 110
6, 68016, Note_on_c, 6, 71, 0
6, 68016, Note_on_c, 6, 73, 110
6, 68040, Note_on_c, 6, 73, 0
6, 68040, Note_on_c, 6, 71, 110
6, 68064, Note_on_c, 6, 71, 0
6, 68064, Note_on_c, 6, 73, 110
6, 68088, Note_on_c, 6, 73, 0
6, 68088, Note_on_c, 6, 71, 110
6, 68112, Note_on_c, 6, 71, 0
6, 68112, Note_on_c, 6, 73, 110
6, 68136, Note_on_c, 6, 73, 0
6, 68136, Note_on_c, 6, 71, 110
6, 68160, Note_on_c, 6, 71, 0
6, 68160, Note_on_c, 6, 73, 110
6, 68184, Note_on_c, 6, 73, 0
6, 68184, Note_on_c, 6, 71, 110
6, 68208, Note_on_c, 6, 71, 0
6, 68208, Note_on_c, 6, 73, 110
6, 68232, Note_on_c, 6, 73, 0
6, 68232, Note_on_c, 6, 71, 110
6, 68256, Note_on_c, 6, 71, 0
6, 68256, Note_on_c, 6, 73, 110
6, 68280, Note_on_c, 6, 73, 0
6, 68280, Note_on_c, 6, 71, 110
6, 68304, Note_on_c, 6, 71, 0
6, 68304, Note_on_c, 6, 69, 110
6, 68328, Note_on_c, 6, 69, 0
6, 68328, Note_on_c, 6, 71, 110
6, 68352, Note_on_c, 6, 71, 0
6, 68448, Note_on_c, 6, 69, 110
6, 68496, Note_on_c, 6, 69, 0
6, 68496, Note_on_c, 6, 73, 110
6, 68542, Note_on_c, 6, 73, 0
6, 68544, Note_on_c, 6, 76, 110
6, 68592, Note_on_c, 6, 76, 0
6, 68592, Note_on_c, 6, 81, 110
6, 68638, Note_on_c, 6, 81, 0
6, 68640, Note_on_c, 6, 85, 110
6, 68672, Note_on_c, 6, 85, 0
6, 68688, Note_on_c, 6, 88, 110
6, 68720, Note_on_c, 6, 88, 0
6, 68736, Note_on_c, 6, 88, 110
6, 69072, Note_on_c, 6, 88, 0
6, 69216, Note_on_c, 6, 66, 110
6, 69264, Note_on_c, 6, 66, 0
6, 69264, Note_on_c, 6, 71, 110
6, 69310, Note_on_c, 6, 71, 0
6, 69312, Note_on_c, 6, 74, 110
6, 69360, Note_on_c, 6, 74, 0
6, 69360, Note_on_c, 6, 78, 110
6, 69406, Note_on_c, 6, 78, 0
6, 69408, Note_on_c, 6, 83, 110
6, 69440, Note_on_c, 6, 83, 0
6, 69456, Note_on_c, 6, 86, 110
6, 69488, Note_on_c, 6, 86, 0
6, 69504, Note_on_c, 6, 86, 110
6, 69840, Note_on_c, 6, 86, 0
6, 69888, Note_on_c, 6, 86, 110
6, 69936, Note_on_c, 6, 86, 0
6, 69936, Note_on_c, 6, 85, 110
6, 69982, Note_on_c, 6, 85, 0
6, 69984, Note_on_c, 6, 83, 110
6, 70030, Note_on_c, 6, 83, 0
6, 70032, Note_on_c, 6, 81, 110
6, 70078, Note_on_c, 6, 81, 0
6, 70080, Note_on_c, 6, 86, 110
6, 70128, Note_on_c, 6, 86, 0
6, 70128, Note_on_c, 6, 85, 110
6, 70174, Note_on_c, 6, 85, 0
6, 70176, Note_on_c, 6, 83, 110
6, 70222, Note_on_c, 6, 83, 0
6, 70224, Note_on_c, 6, 81, 110
6, 70270, Note_on_c, 6, 81, 0
6, 70272, Note_on_c, 6, 85, 110
6, 70296, Note_on_c, 6, 85, 0
6, 70296, Note_on_c, 6, 83, 110
6, 70320, Note_on_c, 6, 83, 0
6, 70320, Note_on_c, 6, 85, 110
6, 70344, Note_on_c, 6, 85, 0
6, 70344, Note_on_c, 6, 83, 110
6, 70368, Note_on_c, 6, 83, 0
6, 70368, Note_on_c, 6, 85, 110
6, 70392, Note_on_c, 6, 85, 0
6, 70392, Note_on_c, 6, 83, 110
6, 70416, Note_on_c, 6, 83, 0
6, 70416, Note_on_c, 6, 85, 110
6, 70440, Note_on_c, 6, 85, 0
6, 70440, Note_on_c, 6, 83, 110
6, 70464, Note_on_c, 6, 83, 0
6, 70464, Note_on_c, 6, 85, 110
6, 70488, Note_on_c, 6, 85, 0
6, 70488, Note_on_c, 6, 83, 110
6, 70512, Note_on_c, 6, 83, 0
6, 70512, Note_on_c, 6, 85, 110
6, 70536, Note_on_c, 6, 85, 0
6, 70536, Note_on_c, 6, 83, 110
6, 70560, Note_on_c, 6, 83, 0
6, 70560, Note_on_c, 6, 85, 110
6, 70584, Note_on_c, 6, 85, 0
6, 70584, Note_on_c, 6, 83, 110
6, 70608, Note_on_c, 6, 83, 0
6, 70608, Note_on_c, 6, 81, 110
6, 70632, Note_on_c, 6, 81, 0
6, 70632, Note_on_c, 6, 83, 110
6, 70656, Note_on_c, 6, 83, 0
6, 70752, Note_on_c, 6, 69, 110
6, 70800, Note_on_c, 6, 69, 0
6, 70800, Note_on_c, 6, 73, 110
6, 70846, Note_on_c, 6, 73, 0
6, 70848, Note_on_c, 6, 76, 110
6, 70880, Note_on_c, 6, 76, 0
6, 70896, Note_on_c, 6, 81, 110
6, 70928, Note_on_c, 6, 81, 0
6, 70944, Note_on_c, 6, 85, 110
6, 70976, Note_on_c, 6, 85, 0
6, 70992, Note_on_c, 6, 88, 110
6, 71024, Note_on_c, 6, 88, 0
6, 71040, Note_on_c, 6, 88, 110
6, 71088, Note_on_c, 6, 88, 0
6, 71088, Note_on_c, 6, 86, 110
6, 71134, Note_on_c, 6, 86, 0
6, 71136, Note_on_c, 6, 85, 110
6, 71168, Note_on_c, 6, 85, 0
6, 71184, Note_on_c, 6, 83, 110
6, 71216, Note_on_c, 6, 83, 0
6, 71232, Note_on_c, 6, 81, 110
6, 71280, Note_on_c, 6, 81, 0
6, 71280, Note_on_c, 6, 80, 110
6, 71326, Note_on_c, 6, 80, 0
6, 71328, Note_on_c, 6, 78, 110
6, 71360, Note_on_c, 6, 78, 0
6, 71376, Note_on_c, 6, 76, 110
6, 71408, Note_on_c, 6, 76, 0
6, 71424, Note_on_c, 6, 78, 110
6, 71518, Note_on_c, 6, 78, 0
6, 71520, Note_on_c, 6, 66, 110
6, 71568, Note_on_c, 6, 66, 0
6, 71568, Note_on_c, 6, 71, 110
6, 71614, Note_on_c, 6, 71, 0
6, 71616, Note_on_c, 6, 74, 110
6, 71648, Note_on_c, 6, 74, 0
6, 71664, Note_on_c, 6, 78, 110
6, 71696, Note_on_c, 6, 78, 0
6, 71712, Note_on_c, 6, 83, 110
6, 71744, Note_on_c, 6, 83, 0
6, 71760, Note_on_c, 6, 86, 110
6, 71792, Note_on_c, 6, 86, 0
6, 71808, Note_on_c, 6, 86, 110
6, 71856, Note_on_c, 6, 86, 0
6, 71856, Note_on_c, 6, 85, 110
6, 71902, Note_on_c, 6, 85, 0
6, 71904, Note_on_c, 6, 83, 110
6, 71936, Note_on_c, 6, 83, 0
6, 71952, Note_on_c, 6, 81, 110
6, 71984, Note_on_c, 6, 81, 0
6, 72000, Note_on_c, 6, 80, 110
6, 72048, Note_on_c, 6, 80, 0
6, 72048, Note_on_c, 6, 78, 110
6, 72094, Note_on_c, 6, 78, 0
6, 72096, Note_on_c, 6, 76, 110
6, 72128, Note_on_c, 6, 76, 0
6, 72144, Note_on_c, 6, 74, 110
6, 72176, Note_on_c, 6, 74, 0
6, 72192, Note_on_c, 6, 73, 110
6, 72240, Note_on_c, 6, 73, 0
6, 72240, Note_on_c, 6, 76, 110
6, 72286, Note_on_c, 6, 76, 0
6, 72288, Note_on_c, 6, 74, 110
6, 72320, Note_on_c, 6, 74, 0
6, 72336, Note_on_c, 6, 73, 110
6, 72368, Note_on_c, 6, 73, 0
6, 72384, Note_on_c, 6, 74, 110
6, 72432, Note_on_c, 6, 74, 0
6, 72432, Note_on_c, 6, 76, 110
6, 72478, Note_on_c, 6, 76, 0
6, 72480, Note_on_c, 6, 78, 110
6, 72512, Note_on_c, 6, 78, 0
6, 72528, Note_on_c, 6, 80, 110
6, 72560, Note_on_c, 6, 80, 0
6, 72576, Note_on_c, 6, 81, 110
6, 72624, Note_on_c, 6, 81, 0
6, 72624, Note_on_c, 6, 83, 110
6, 72670, Note_on_c, 6, 83, 0
6, 72672, Note_on_c, 6, 85, 110
6, 72704, Note_on_c, 6, 85, 0
6, 72720, Note_on_c, 6, 86, 110
6, 72752, Note_on_c, 6, 86, 0
6, 72768, Note_on_c, 6, 87, 110
6, 72816, Note_on_c, 6, 87, 0
6, 72816, Note_on_c, 6, 88, 110
6, 72862, Note_on_c, 6, 88, 0
6, 72864, Note_on_c, 6, 85, 110
6, 72896, Note_on_c, 6, 85, 0
6, 72912, Note_on_c, 6, 81, 110
6, 72944, Note_on_c, 6, 81, 0
6, 72960, Note_on_c, 6, 76, 110
6, 73216, Note_on_c, 6, 76, 0
6, 73248, Note_on_c, 6, 81, 110
6, 73294, Note_on_c, 6, 81, 0
6, 73296, Note_on_c, 6, 83, 110
6, 73342, Note_on_c, 6, 83, 0
6, 73344, Note_on_c, 6, 85, 110
6, 73368, Note_on_c, 6, 85, 0
6, 73368, Note_on_c, 6, 83, 110
6, 73392, Note_on_c, 6, 83, 0
6, 73392, Note_on_c, 6, 85, 110
6, 73416, Note_on_c, 6, 85, 0
6, 73416, Note_on_c, 6, 83, 110
6, 73440, Note_on_c, 6, 83, 0
6, 73440, Note_on_c, 6, 85, 110
6, 73464, Note_on_c, 6, 85, 0
6, 73464, Note_on_c, 6, 83, 110
6, 73488, Note_on_c, 6, 83, 0
6, 73488, Note_on_c, 6, 85, 110
6, 73512, Note_on_c, 6, 85, 0
6, 73512, Note_on_c, 6, 83, 110
6, 73536, Note_on_c, 6, 83, 0
6, 73536, Note_on_c, 6, 85, 110
6, 73560, Note_on_c, 6, 85, 0
6, 73560, Note_on_c, 6, 83, 110
6, 73584, Note_on_c, 6, 83, 0
6, 73584, Note_on_c, 6, 85, 110
6, 73608, Note_on_c, 6, 85, 0
6, 73608, Note_on_c, 6, 83, 110
6, 73632, Note_on_c, 6, 83, 0
6, 73632, Note_on_c, 6, 85, 110
6, 73656, Note_on_c, 6, 85, 0
6, 73656, Note_on_c, 6, 83, 110
6, 73680, Note_on_c, 6, 83, 0
6, 73680, Note_on_c, 6, 81, 110
6, 73704, Note_on_c, 6, 81, 0
6, 73704, Note_on_c, 6, 83, 110
6, 73728, Note_on_c, 6, 83, 0
6, 73728, Note_on_c, 6, 81, 110
6, 73888, Note_on_c, 6, 81, 0
6, 80736, Note_on_c, 6, 81, 110
6, 80830, Note_on_c, 6, 81, 0
6, 80832, Note_on_c, 6, 83, 110
6, 80856, Note_on_c, 6, 83, 0
6, 80856, Note_on_c, 6, 81, 110
6, 80880, Note_on_c, 6, 81, 0
6, 80880, Note_on_c, 6, 83, 110
6, 80904, Note_on_c, 6, 83, 0
6, 80904, Note_on_c, 6, 81, 110
6, 80928, Note_on_c, 6, 81, 0
6, 80928, Note_on_c, 6, 83, 110
6, 80952, Note_on_c, 6, 83, 0
6, 80952, Note_on_c, 6, 81, 110
6, 80976, Note_on_c, 6, 81, 0
6, 80976, Note_on_c, 6, 80, 110
6, 81000, Note_on_c, 6, 80, 0
6, 81000, Note_on_c, 6, 81, 110
6, 81022, Note_on_c, 6, 81, 0
6, 81024, Note_on_c, 6, 85, 110
6, 81056, Note_on_c, 6, 85, 0
6, 81120, Note_on_c, 6, 81, 110
6, 81152, Note_on_c, 6, 81, 0
6, 81216, Note_on_c, 6, 76, 110
6, 81248, Note_on_c, 6, 76, 0
6, 81312, Note_on_c, 6, 73, 110
6, 81344, Note_on_c, 6, 73, 0
6, 81408, Note_on_c, 6, 69, 110
6, 81568, Note_on_c, 6, 69, 0
6, 81600, Note_on_c, 6, 88, 110
6, 81760, Note_on_c, 6, 88, 0
6, 81792, Note_on_c, 6, 86, 110
6, 81888, Note_on_c, 6, 86, 0
6, 81888, Note_on_c, 6, 85, 110
6, 81982, Note_on_c, 6, 85, 0
6, 81984, Note_on_c, 6, 83, 110
6, 82080, Note_on_c, 6, 83, 0
6, 82080, Note_on_c, 6, 81, 110
6, 82174, Note_on_c, 6, 81, 0
6, 82176, Note_on_c, 6, 81, 110
6, 82464, Note_on_c, 6, 81, 0
6, 82464, Note_on_c, 6, 80, 110
6, 82558, Note_on_c, 6, 80, 0
6, 82560, Note_on_c, 6, 80, 110
6, 82720, Note_on_c, 6, 80, 0
6, 83040, Note_on_c, 6, 76, 110
6, 83134, Note_on_c, 6, 76, 0
6, 83136, Note_on_c, 6, 78, 110
6, 83160, Note_on_c, 6, 78, 0
6, 83160, Note_on_c, 6, 76, 110
6, 83184, Note_on_c, 6, 76, 0
6, 83184, Note_on_c, 6, 78, 110
6, 83208, Note_on_c, 6, 78, 0
6, 83208, Note_on_c, 6, 76, 110
6, 83232, Note_on_c, 6, 76, 0
6, 83232, Note_on_c, 6, 78, 110
6, 83256, Note_on_c, 6, 78, 0
6, 83256, Note_on_c, 6, 76, 110
6, 83280, Note_on_c, 6, 76, 0
6, 83280, Note_on_c, 6, 74, 110
6, 83304, Note_on_c, 6, 74, 0
6, 83304, Note_on_c, 6, 76, 110
6, 83326, Note_on_c, 6, 76, 0
6, 83328, Note_on_c, 6, 79, 110
6, 83360, Note_on_c, 6, 79, 0
6, 83424, Note_on_c, 6, 76, 110
6, 83456, Note_on_c, 6, 76, 0
6, 83520, Note_on_c, 6, 73, 110
6, 83552, Note_on_c, 6, 73, 0
6, 83616, Note_on_c, 6, 69, 110
6, 83648, Note_on_c, 6, 69, 0
6, 83712, Note_on_c, 6, 67, 110
6, 83872, Note_on_c, 6, 67, 0
6, 83904, Note_on_c, 6, 88, 110
6, 84064, Note_on_c, 6, 88, 0
6, 84096, Note_on_c, 6, 86, 110
6, 84192, Note_on_c, 6, 86, 0
6, 84192, Note_on_c, 6, 85, 110
6, 84286, Note_on_c, 6, 85, 0
6, 84288, Note_on_c, 6, 83, 110
6, 84384, Note_on_c, 6, 83, 0
6, 84384, Note_on_c, 6, 81, 110
6, 84478, Note_on_c, 6, 81, 0
6, 84480, Note_on_c, 6, 79, 110
6, 84768, Note_on_c, 6, 79, 0
6, 84768, Note_on_c, 6, 78, 110
6, 84862, Note_on_c, 6, 78, 0
6, 84864, Note_on_c, 6, 78, 110
6, 85024, Note_on_c, 6, 78, 0
6, 85344, Note_on_c, 6, 81, 110
6, 85438, Note_on_c, 6, 81, 0
6, 85440, Note_on_c, 6, 83, 110
6, 85464, Note_on_c, 6, 83, 0
6, 85464, Note_on_c, 6, 81, 110
6, 85488, Note_on_c, 6, 81, 0
6, 85488, Note_on_c, 6, 83, 110
6, 85512, Note_on_c, 6, 83, 0
6, 85512, Note_on_c, 6, 81, 110
6, 85536, Note_on_c, 6, 81, 0
6, 85536, Note_on_c, 6, 83, 110
6, 85560, Note_on_c, 6, 83, 0
6, 85560, Note_on_c, 6, 81, 110
6, 85584, Note_on_c, 6, 81, 0
6, 85584, Note_on_c, 6, 80, 110
6, 85608, Note_on_c, 6, 80, 0
6, 85608, Note_on_c, 6, 81, 110
6, 85630, Note_on_c, 6, 81, 0
6, 85632, Note_on_c, 6, 86, 110
6, 85664, Note_on_c, 6, 86, 0
6, 85728, Note_on_c, 6, 81, 110
6, 85760, Note_on_c, 6, 81, 0
6, 85824, Note_on_c, 6, 78, 110
6, 85856, Note_on_c, 6, 78, 0
6, 85920, Note_on_c, 6, 74, 110
6, 85952, Note_on_c, 6, 74, 0
6, 86016, Note_on_c, 6, 71, 110
6, 86176, Note_on_c, 6, 71, 0
6, 86208, Note_on_c, 6, 77, 110
6, 86400, Note_on_c, 6, 77, 0
6, 86400, Note_on_c, 6, 76, 110
6, 86592, Note_on_c, 6, 76, 0
6, 86592, Note_on_c, 6, 74, 110
6, 86752, Note_on_c, 6, 74, 0
6, 86784, Note_on_c, 6, 73, 110
6, 86816, Note_on_c, 6, 73, 0
6, 86880, Note_on_c, 6, 81, 110
6, 86976, Note_on_c, 6, 81, 0
6, 86976, Note_on_c, 6, 80, 110
6, 87072, Note_on_c, 6, 80, 0
6, 87072, Note_on_c, 6, 79, 110
6, 87168, Note_on_c, 6, 79, 0
6, 87168, Note_on_c, 6, 78, 110
6, 87264, Note_on_c, 6, 78, 0
6, 87264, Note_on_c, 6, 77, 110
6, 87360, Note_on_c, 6, 77, 0
6, 87360, Note_on_c, 6, 76, 110
6, 87456, Note_on_c, 6, 76, 0
6, 87456, Note_on_c, 6, 74, 110
6, 87550, Note_on_c, 6, 74, 0
6, 87552, Note_on_c, 6, 73, 110
6, 87584, Note_on_c, 6, 73, 0
6, 87648, Note_on_c, 6, 81, 110
6, 87744, Note_on_c, 6, 81, 0
6, 87744, Note_on_c, 6, 80, 110
6, 87840, Note_on_c, 6, 80, 0
6, 87840, Note_on_c, 6, 79, 110
6, 87936, Note_on_c, 6, 79, 0
6, 87936, Note_on_c, 6, 78, 110
6, 88032, Note_on_c, 6, 78, 0
6, 88032, Note_on_c, 6, 77, 110
6, 88128, Note_on_c, 6, 77, 0
6, 88128, Note_on_c, 6, 76, 110
6, 88224, Note_on_c, 6, 76, 0
6, 88224, Note_on_c, 6, 74, 110
6, 88318, Note_on_c, 6, 74, 0
6, 88320, Note_on_c, 6, 73, 110
6, 88368, Note_on_c, 6, 73, 0
6, 88368, Note_on_c, 6, 74, 110
6, 88414, Note_on_c, 6, 74, 0
6, 88416, Note_on_c, 6, 73, 110
6, 88464, Note_on_c, 6, 73, 0
6, 88464, Note_on_c, 6, 74, 110
6, 88510, Note_on_c, 6, 74, 0
6, 88512, Note_on_c, 6, 73, 110
6, 88560, Note_on_c, 6, 73, 0
6, 88560, Note_on_c, 6, 74, 110
6, 88608, Note_on_c, 6, 74, 0
6, 88608, Note_on_c, 6, 73, 110
6, 88654, Note_on_c, 6, 73, 0
6, 88656, Note_on_c, 6, 76, 110
6, 88688, Note_on_c, 6, 76, 0
6, 88704, Note_on_c, 6, 74, 110
6, 88752, Note_on_c, 6, 74, 0
6, 88752, Note_on_c, 6, 76, 110
6, 88798, Note_on_c, 6, 76, 0
6, 88800, Note_on_c, 6, 74, 110
6, 88848, Note_on_c, 6, 74, 0
6, 88848, Note_on_c, 6, 76, 110
6, 88894, Note_on_c, 6, 76, 0
6, 88896, Note_on_c, 6, 74, 110
6, 88944, Note_on_c, 6, 74, 0
6, 88944, Note_on_c, 6, 76, 110
6, 88992, Note_on_c, 6, 76, 0
6, 88992, Note_on_c, 6, 74, 110
6, 89038, Note_on_c, 6, 74, 0
6, 89040, Note_on_c, 6, 78, 110
6, 89072, Note_on_c, 6, 78, 0
6, 89088, Note_on_c, 6, 76, 110
6, 89136, Note_on_c, 6, 76, 0
6, 89136, Note_on_c, 6, 78, 110
6, 89182, Note_on_c, 6, 78, 0
6, 89184, Note_on_c, 6, 76, 110
6, 89232, Note_on_c, 6, 76, 0
6, 89232, Note_on_c, 6, 78, 110
6, 89278, Note_on_c, 6, 78, 0
6, 89280, Note_on_c, 6, 76, 110
6, 89328, Note_on_c, 6, 76, 0
6, 89328, Note_on_c, 6, 78, 110
6, 89376, Note_on_c, 6, 78, 0
6, 89376, Note_on_c, 6, 76, 110
6, 89422, Note_on_c, 6, 76, 0
6, 89424, Note_on_c, 6, 79, 110
6, 89456, Note_on_c, 6, 79, 0
6, 89472, Note_on_c, 6, 78, 110
6, 89520, Note_on_c, 6, 78, 0
6, 89520, Note_on_c, 6, 79, 110
6, 89566, Note_on_c, 6, 79, 0
6, 89568, Note_on_c, 6, 78, 110
6, 89616, Note_on_c, 6, 78, 0
6, 89616, Note_on_c, 6, 79, 110
6, 89662, Note_on_c, 6, 79, 0
6, 89664, Note_on_c, 6, 78, 110
6, 89712, Note_on_c, 6, 78, 0
6, 89712, Note_on_c, 6, 79, 110
6, 89760, Note_on_c, 6, 79, 0
6, 89760, Note_on_c, 6, 78, 110
6, 89806, Note_on_c, 6, 78, 0
6, 89808, Note_on_c, 6, 81, 110
6, 89840, Note_on_c, 6, 81, 0
6, 89856, Note_on_c, 6, 79, 110
6, 89904, Note_on_c, 6, 79, 0
6, 89904, Note_on_c, 6, 78, 110
6, 89950, Note_on_c, 6, 78, 0
6, 89952, Note_on_c, 6, 76, 110
6, 89984, Note_on_c, 6, 76, 0
6, 90000, Note_on_c, 6, 75, 110
6, 90032, Note_on_c, 6, 75, 0
6, 90048, Note_on_c, 6, 76, 110
6, 90096, Note_on_c, 6, 76, 0
6, 90096, Note_on_c, 6, 79, 110
6, 90142, Note_on_c, 6, 79, 0
6, 90144, Note_on_c, 6, 78, 110
6, 90176, Note_on_c, 6, 78, 0
6, 90192, Note_on_c, 6, 81, 110
6, 90224, Note_on_c, 6, 81, 0
6, 90240, Note_on_c, 6, 79, 110
6, 90288, Note_on_c, 6, 79, 0
6, 90288, Note_on_c, 6, 78, 110
6, 90334, Note_on_c, 6, 78, 0
6, 90336, Note_on_c, 6, 76, 110
6, 90368, Note_on_c, 6, 76, 0
6, 90384, Note_on_c, 6, 75, 110
6, 90416, Note_on_c, 6, 75, 0
6, 90432, Note_on_c, 6, 76, 110
6, 90480, Note_on_c, 6, 76, 0
6, 90480, Note_on_c, 6, 79, 110
6, 90526, Note_on_c, 6, 79, 0
6, 90528, Note_on_c, 6, 78, 110
6, 90560, Note_on_c, 6, 78, 0
6, 90576, Note_on_c, 6, 81, 110
6, 90608, Note_on_c, 6, 81, 0
6, 90624, Note_on_c, 6, 79, 110
6, 90672, Note_on_c, 6, 79, 0
6, 90672, Note_on_c, 6, 78, 110
6, 90718, Note_on_c, 6, 78, 0
6, 90720, Note_on_c, 6, 76, 110
6, 90752, Note_on_c, 6, 76, 0
6, 90768, Note_on_c, 6, 74, 110
6, 90800, Note_on_c, 6, 74, 0
6, 90816, Note_on_c, 6, 73, 110
6, 90864, Note_on_c, 6, 73, 0
6, 90864, Note_on_c, 6, 74, 110
6, 90910, Note_on_c, 6, 74, 0
6, 90912, Note_on_c, 6, 76, 110
6, 90944, Note_on_c, 6, 76, 0
6, 90960, Note_on_c, 6, 78, 110
6, 90992, Note_on_c, 6, 78, 0
6, 91008, Note_on_c, 6, 79, 110
6, 91056, Note_on_c, 6, 79, 0
6, 91056, Note_on_c, 6, 78, 110
6, 91102, Note_on_c, 6, 78, 0
6, 91104, Note_on_c, 6, 76, 110
6, 91136, Note_on_c, 6, 76, 0
6, 91152, Note_on_c, 6, 78, 110
6, 91184, Note_on_c, 6, 78, 0
6, 91200, Note_on_c, 6, 79, 110
6, 91248, Note_on_c, 6, 79, 0
6, 91248, Note_on_c, 6, 81, 110
6, 91294, Note_on_c, 6, 81, 0
6, 91296, Note_on_c, 6, 83, 110
6, 91328, Note_on_c, 6, 83, 0
6, 91344, Note_on_c, 6, 85, 110
6, 91376, Note_on_c, 6, 85, 0
6, 91392, Note_on_c, 6, 86, 110
6, 91552, Note_on_c, 6, 86, 0
6, 92928, Note_on_c, 6, 74, 110
6, 92976, Note_on_c, 6, 74, 0
6, 92976, Note_on_c, 6, 86, 110
6, 94560, Note_on_c, 6, 86, 0
6, 94560, Note_on_c, 6, 84, 110
6, 94654, Note_on_c, 6, 84, 0
6, 94656, Note_on_c, 6, 84, 110
6, 94992, Note_on_c, 6, 84, 0
6, 95040, Note_on_c, 6, 84, 110
6, 95200, Note_on_c, 6, 84, 0
6, 95232, Note_on_c, 6, 84, 110
6, 95328, Note_on_c, 6, 84, 0
6, 95328, Note_on_c, 6, 83, 110
6, 95422, Note_on_c, 6, 83, 0
6, 95520, Note_on_c, 6, 83, 110
6, 95614, Note_on_c, 6, 83, 0
6, 95616, Note_on_c, 6, 83, 110
6, 95712, Note_on_c, 6, 83, 0
6, 95712, Note_on_c, 6, 81, 110
6, 95806, Note_on_c, 6, 81, 0
6, 95904, Note_on_c, 6, 81, 110
6, 95998, Note_on_c, 6, 81, 0
6, 96000, Note_on_c, 6, 81, 110
6, 96096, Note_on_c, 6, 81, 0
6, 96096, Note_on_c, 6, 79, 110
6, 96190, Note_on_c, 6, 79, 0
6, 96288, Note_on_c, 6, 79, 110
6, 96382, Note_on_c, 6, 79, 0
6, 96384, Note_on_c, 6, 79, 110
6, 96432, Note_on_c, 6, 79, 0
6, 96432, Note_on_c, 6, 78, 110
6, 96478, Note_on_c, 6, 78, 0
6, 96480, Note_on_c, 6, 81, 110
6, 96528, Note_on_c, 6, 81, 0
6, 96528, Note_on_c, 6, 79, 110
6, 96574, Note_on_c, 6, 79, 0
6, 96576, Note_on_c, 6, 83, 110
6, 96624, Note_on_c, 6, 83, 0
6, 96624, Note_on_c, 6, 81, 110
6, 96670, Note_on_c, 6, 81, 0
6, 96672, Note_on_c, 6, 79, 110
6, 96704, Note_on_c, 6, 79, 0
6, 96720, Note_on_c, 6, 78, 110
6, 96752, Note_on_c, 6, 78, 0
6, 96768, Note_on_c, 6, 83, 110
6, 96864, Note_on_c, 6, 83, 0
6, 96864, Note_on_c, 6, 79, 110
6, 96958, Note_on_c, 6, 79, 0
6, 96960, Note_on_c, 6, 76, 110
6, 97216, Note_on_c, 6, 76, 0
6, 97248, Note_on_c, 6, 75, 110
6, 97296, Note_on_c, 6, 75, 0
6, 97296, Note_on_c, 6, 76, 110
6, 97342, Note_on_c, 6, 76, 0
6, 97344, Note_on_c, 6, 78, 110
6, 97376, Note_on_c, 6, 78, 0
6, 97440, Note_on_c, 6, 75, 110
6, 97472, Note_on_c, 6, 75, 0
6, 97536, Note_on_c, 6, 78, 110
6, 97632, Note_on_c, 6, 78, 0
6, 97632, Note_on_c, 6, 76, 110
6, 97726, Note_on_c, 6, 76, 0
6, 97728, Note_on_c, 6, 76, 110
6, 97776, Note_on_c, 6, 76, 0
6, 98016, Note_on_c, 6, 76, 110
6, 98112, Note_on_c, 6, 76, 0
6, 98112, Note_on_c, 6, 79, 110
6, 98208, Note_on_c, 6, 79, 0
6, 98208, Note_on_c, 6, 83, 110
6, 98302, Note_on_c, 6, 83, 0
6, 98304, Note_on_c, 6, 83, 110
6, 98400, Note_on_c, 6, 83, 0
6, 98400, Note_on_c, 6, 81, 110
6, 98494, Note_on_c, 6, 81, 0
6, 98592, Note_on_c, 6, 81, 110
6, 98686, Note_on_c, 6, 81, 0
6, 98688, Note_on_c, 6, 81, 110
6, 98736, Note_on_c, 6, 81, 0
6, 98736, Note_on_c, 6, 79, 110
6, 98782, Note_on_c, 6, 79, 0
6, 98784, Note_on_c, 6, 83, 110
6, 98832, Note_on_c, 6, 83, 0
6, 98832, Note_on_c, 6, 81, 110
6, 98878, Note_on_c, 6, 81, 0
6, 98880, Note_on_c, 6, 85, 110
6, 98928, Note_on_c, 6, 85, 0
6, 98928, Note_on_c, 6, 83, 110
6, 98974, Note_on_c, 6, 83, 0
6, 98976, Note_on_c, 6, 81, 110
6, 99022, Note_on_c, 6, 81, 0
6, 99024, Note_on_c, 6, 79, 110
6, 99070, Note_on_c, 6, 79, 0
6, 99072, Note_on_c, 6, 77, 110
6, 99168, Note_on_c, 6, 77, 0
6, 99168, Note_on_c, 6, 78, 110
6, 99262, Note_on_c, 6, 78, 0
6, 99360, Note_on_c, 6, 78, 110
6, 99454, Note_on_c, 6, 78, 0
6, 99456, Note_on_c, 6, 75, 110
6, 99504, Note_on_c, 6, 75, 0
6, 99504, Note_on_c, 6, 76, 110
6, 99550, Note_on_c, 6, 76, 0
6, 99552, Note_on_c, 6, 79, 110
6, 99584, Note_on_c, 6, 79, 0
6, 99600, Note_on_c, 6, 78, 110
6, 99632, Note_on_c, 6, 78, 0
6, 99648, Note_on_c, 6, 81, 110
6, 99696, Note_on_c, 6, 81, 0
6, 99696, Note_on_c, 6, 79, 110
6, 99742, Note_on_c, 6, 79, 0
6, 99744, Note_on_c, 6, 78, 110
6, 99776, Note_on_c, 6, 78, 0
6, 99792, Note_on_c, 6, 76, 110
6, 99824, Note_on_c, 6, 76, 0
6, 99840, Note_on_c, 6, 81, 110
6, 99888, Note_on_c, 6, 81, 0
6, 99888, Note_on_c, 6, 78, 110
6, 99934, Note_on_c, 6, 78, 0
6, 99936, Note_on_c, 6, 81, 110
6, 99984, Note_on_c, 6, 81, 0
6, 99984, Note_on_c, 6, 78, 110
6, 100030, Note_on_c, 6, 78, 0
6, 100032, Note_on_c, 6, 74, 110
6, 100288, Note_on_c, 6, 74, 0
6, 100320, Note_on_c, 6, 76, 110
6, 100368, Note_on_c, 6, 76, 0
6, 100368, Note_on_c, 6, 78, 110
6, 100414, Note_on_c, 6, 78, 0
6, 100416, Note_on_c, 6, 78, 110
6, 100464, Note_on_c, 6, 78, 0
6, 100464, Note_on_c, 6, 76, 110
6, 100510, Note_on_c, 6, 76, 0
6, 100512, Note_on_c, 6, 74, 110
6, 100558, Note_on_c, 6, 74, 0
6, 100560, Note_on_c, 6, 73, 110
6, 100606, Note_on_c, 6, 73, 0
6, 100608, Note_on_c, 6, 74, 110
6, 100702, Note_on_c, 6, 74, 0
6, 100704, Note_on_c, 6, 76, 110
6, 100736, Note_on_c, 6, 76, 0
6, 100752, Note_on_c, 6, 78, 110
6, 100784, Note_on_c, 6, 78, 0
6, 100800, Note_on_c, 6, 79, 110
6, 100832, Note_on_c, 6, 79, 0
6, 100848, Note_on_c, 6, 81, 110
6, 100880, Note_on_c, 6, 81, 0
6, 100896, Note_on_c, 6, 83, 110
6, 100928, Note_on_c, 6, 83, 0
6, 100944, Note_on_c, 6, 85, 110
6, 100976, Note_on_c, 6, 85, 0
6, 100992, Note_on_c, 6, 86, 110
6, 101024, Note_on_c, 6, 86, 0
6, 101088, Note_on_c, 6, 81, 110
6, 101184, Note_on_c, 6, 81, 0
6, 101184, Note_on_c, 6, 79, 110
6, 101280, Note_on_c, 6, 79, 0
6, 101280, Note_on_c, 6, 78, 110
6, 101374, Note_on_c, 6, 78, 0
6, 101376, Note_on_c, 6, 78, 110
6, 101472, Note_on_c, 6, 78, 0
6, 101472, Note_on_c, 6, 76, 110
6, 101566, Note_on_c, 6, 76, 0
6, 101568, Note_on_c, 6, 76, 110
6, 101824, Note_on_c, 6, 76, 0
6, 101856, Note_on_c, 6, 75, 110
6, 101904, Note_on_c, 6, 75, 0
6, 101904, Note_on_c, 6, 76, 110
6, 101950, Note_on_c, 6, 76, 0
6, 101952, Note_on_c, 6, 78, 110
6, 101984, Note_on_c, 6, 78, 0
6, 102048, Note_on_c, 6, 75, 110
6, 102080, Note_on_c, 6, 75, 0
6, 102144, Note_on_c, 6, 78, 110
6, 102240, Note_on_c, 6, 78, 0
6, 102240, Note_on_c, 6, 76, 110
6, 102334, Note_on_c, 6, 76, 0
6, 102336, Note_on_c, 6, 76, 110
6, 102592, Note_on_c, 6, 76, 0
6, 102624, Note_on_c, 6, 75, 110
6, 102672, Note_on_c, 6, 75, 0
6, 102672, Note_on_c, 6, 76, 110
6, 102718, Note_on_c, 6, 76, 0
6, 102720, Note_on_c, 6, 79, 110
6, 102768, Note_on_c, 6, 79, 0
6, 102768, Note_on_c, 6, 78, 110
6, 102814, Note_on_c, 6, 78, 0
6, 102816, Note_on_c, 6, 76, 110
6, 102862, Note_on_c, 6, 76, 0
6, 102864, Note_on_c, 6, 75, 110
6, 102910, Note_on_c, 6, 75, 0
6, 102912, Note_on_c, 6, 78, 110
6, 102960, Note_on_c, 6, 78, 0
6, 102960, Note_on_c, 6, 76, 110
6, 103006, Note_on_c, 6, 76, 0
6, 103008, Note_on_c, 6, 79, 110
6, 103056, Note_on_c, 6, 79, 0
6, 103056, Note_on_c, 6, 78, 110
6, 103102, Note_on_c, 6, 78, 0
6, 103104, Note_on_c, 6, 81, 110
6, 103152, Note_on_c, 6, 81, 0
6, 103152, Note_on_c, 6, 79, 110
6, 103198, Note_on_c, 6, 79, 0
6, 103200, Note_on_c, 6, 83, 110
6, 103248, Note_on_c, 6, 83, 0
6, 103248, Note_on_c, 6, 81, 110
6, 103294, Note_on_c, 6, 81, 0
6, 103296, Note_on_c, 6, 85, 110
6, 103344, Note_on_c, 6, 85, 0
6, 103344, Note_on_c, 6, 83, 110
6, 103390, Note_on_c, 6, 83, 0
6, 103392, Note_on_c, 6, 81, 110
6, 103438, Note_on_c, 6, 81, 0
6, 103440, Note_on_c, 6, 79, 110
6, 103486, Note_on_c, 6, 79, 0
6, 103488, Note_on_c, 6, 78, 110
6, 103536, Note_on_c, 6, 78, 0
6, 103536, Note_on_c, 6, 76, 110
6, 103582, Note_on_c, 6, 76, 0
6, 103584, Note_on_c, 6, 79, 110
6, 103632, Note_on_c, 6, 79, 0
6, 103632, Note_on_c, 6, 76, 110
6, 103678, Note_on_c, 6, 76, 0
6, 103680, Note_on_c, 6, 74, 110
6, 103776, Note_on_c, 6, 74, 0
6, 103776, Note_on_c, 6, 73, 110
6, 104032, Note_on_c, 6, 73, 0
6, 104256, Note_on_c, 6, 69, 110
6, 104416, Note_on_c, 6, 69, 0
6, 104448, Note_on_c, 6, 67, 110
6, 104496, Note_on_c, 6, 67, 0
6, 104496, Note_on_c, 6, 69, 110
6, 104542, Note_on_c, 6, 69, 0
6, 104544, Note_on_c, 6, 85, 110
6, 104576, Note_on_c, 6, 85, 0
6, 104592, Note_on_c, 6, 69, 110
6, 104624, Note_on_c, 6, 69, 0
6, 104640, Note_on_c, 6, 66, 110
6, 104688, Note_on_c, 6, 66, 0
6, 104688, Note_on_c, 6, 69, 110
6, 104734, Note_on_c, 6, 69, 0
6, 104736, Note_on_c, 6, 86, 110
6, 104768, Note_on_c, 6, 86, 0
6, 104784, Note_on_c, 6, 69, 110
6, 104816, Note_on_c, 6, 69, 0
6, 104832, Note_on_c, 6, 67, 110
6, 104880, Note_on_c, 6, 67, 0
6, 104880, Note_on_c, 6, 69, 110
6, 104926, Note_on_c, 6, 69, 0
6, 104928, Note_on_c, 6, 85, 110
6, 104960, Note_on_c, 6, 85, 0
6, 104976, Note_on_c, 6, 69, 110
6, 105008, Note_on_c, 6, 69, 0
6, 105024, Note_on_c, 6, 66, 110
6, 105072, Note_on_c, 6, 66, 0
6, 105072, Note_on_c, 6, 69, 110
6, 105118, Note_on_c, 6, 69, 0
6, 105120, Note_on_c, 6, 86, 110
6, 105152, Note_on_c, 6, 86, 0
6, 105168, Note_on_c, 6, 69, 110
6, 105200, Note_on_c, 6, 69, 0
6, 105216, Note_on_c, 6, 67, 110
6, 105376, Note_on_c, 6, 67, 0
6, 105408, Note_on_c, 6, 88, 110
6, 105648, Note_on_c, 6, 88, 0
6, 105648, Note_on_c, 6, 85, 110
6, 105694, Note_on_c, 6, 85, 0
6, 105696, Note_on_c, 6, 81, 110
6, 105728, Note_on_c, 6, 81, 0
6, 105744, Note_on_c, 6, 79, 110
6, 105776, Note_on_c, 6, 79, 0
6, 105792, Note_on_c, 6, 76, 110
6, 105840, Note_on_c, 6, 76, 0
6, 105840, Note_on_c, 6, 73, 110
6, 105886, Note_on_c, 6, 73, 0
6, 105888, Note_on_c, 6, 69, 110
6, 105920, Note_on_c, 6, 69, 0
6, 105936, Note_on_c, 6, 67, 110
6, 105968, Note_on_c, 6, 67, 0
6, 105984, Note_on_c, 6, 66, 110
6, 106032, Note_on_c, 6, 66, 0
6, 106032, Note_on_c, 6, 69, 110
6, 106078, Note_on_c, 6, 69, 0
6, 106080, Note_on_c, 6, 86, 110
6, 106112, Note_on_c, 6, 86, 0
6, 106128, Note_on_c, 6, 69, 110
6, 106160, Note_on_c, 6, 69, 0
6, 106176, Note_on_c, 6, 67, 110
6, 106224, Note_on_c, 6, 67, 0
6, 106224, Note_on_c, 6, 69, 110
6, 106270, Note_on_c, 6, 69, 0
6, 106272, Note_on_c, 6, 85, 110
6, 106304, Note_on_c, 6, 85, 0
6, 106320, Note_on_c, 6, 69, 110
6, 106352, Note_on_c, 6, 69, 0
6, 106368, Note_on_c, 6, 66, 110
6, 106416, Note_on_c, 6, 66, 0
6, 106416, Note_on_c, 6, 69, 110
6, 106462, Note_on_c, 6, 69, 0
6, 106464, Note_on_c, 6, 86, 110
6, 106496, Note_on_c, 6, 86, 0
6, 106512, Note_on_c, 6, 69, 110
6, 106544, Note_on_c, 6, 69, 0
6, 106560, Note_on_c, 6, 67, 110
6, 106608, Note_on_c, 6, 67, 0
6, 106608, Note_on_c, 6, 69, 110
6, 106654, Note_on_c, 6, 69, 0
6, 106656, Note_on_c, 6, 85, 110
6, 106688, Note_on_c, 6, 85, 0
6, 106704, Note_on_c, 6, 69, 110
6, 106736, Note_on_c, 6, 69, 0
6, 106752, Note_on_c, 6, 66, 110
6, 106912, Note_on_c, 6, 66, 0
6, 106944, Note_on_c, 6, 86, 110
6, 107184, Note_on_c, 6, 86, 0
6, 107184, Note_on_c, 6, 81, 110
6, 107230, Note_on_c, 6, 81, 0
6, 107232, Note_on_c, 6, 78, 110
6, 107264, Note_on_c, 6, 78, 0
6, 107280, Note_on_c, 6, 74, 110
6, 107312, Note_on_c, 6, 74, 0
6, 107328, Note_on_c, 6, 81, 110
6, 107376, Note_on_c, 6, 81, 0
6, 107376, Note_on_c, 6, 78, 110
6, 107422, Note_on_c, 6, 78, 0
6, 107424, Note_on_c, 6, 74, 110
6, 107456, Note_on_c, 6, 74, 0
6, 107472, Note_on_c, 6, 69, 110
6, 107504, Note_on_c, 6, 69, 0
6, 107520, Note_on_c, 6, 67, 110
6, 107568, Note_on_c, 6, 67, 0
6, 107568, Note_on_c, 6, 69, 110
6, 107614, Note_on_c, 6, 69, 0
6, 107616, Note_on_c, 6, 85, 110
6, 107648, Note_on_c, 6, 85, 0
6, 107664, Note_on_c, 6, 69, 110
6, 107696, Note_on_c, 6, 69, 0
6, 107712, Note_on_c, 6, 66, 110
6, 107760, Note_on_c, 6, 66, 0
6, 107760, Note_on_c, 6, 69, 110
6, 107806, Note_on_c, 6, 69, 0
6, 107808, Note_on_c, 6, 86, 110
6, 107840, Note_on_c, 6, 86, 0
6, 107856, Note_on_c, 6, 69, 110
6, 107888, Note_on_c, 6, 69, 0
6, 107904, Note_on_c, 6, 67, 110
6, 107952, Note_on_c, 6, 67, 0
6, 107952, Note_on_c, 6, 69, 110
6, 107998, Note_on_c, 6, 69, 0
6, 108000, Note_on_c, 6, 85, 110
6, 108032, Note_on_c, 6, 85, 0
6, 108048, Note_on_c, 6, 69, 110
6, 108080, Note_on_c, 6, 69, 0
6, 108096, Note_on_c, 6, 66, 110
6, 108144, Note_on_c, 6, 66, 0
6, 108144, Note_on_c, 6, 69, 110
6, 108190, Note_on_c, 6, 69, 0
6, 108192, Note_on_c, 6, 86, 110
6, 108224, Note_on_c, 6, 86, 0
6, 108240, Note_on_c, 6, 69, 110
6, 108272, Note_on_c, 6, 69, 0
6, 108288, Note_on_c, 6, 67, 110
6, 108448, Note_on_c, 6, 67, 0
6, 108480, Note_on_c, 6, 88, 110
6, 108720, Note_on_c, 6, 88, 0
6, 108720, Note_on_c, 6, 86, 110
6, 108766, Note_on_c, 6, 86, 0
6, 108768, Note_on_c, 6, 85, 110
6, 108800, Note_on_c, 6, 85, 0
6, 108816, Note_on_c, 6, 83, 110
6, 108848, Note_on_c, 6, 83, 0
6, 108864, Note_on_c, 6, 81, 110
6, 108912, Note_on_c, 6, 81, 0
6, 108912, Note_on_c, 6, 79, 110
6, 108958, Note_on_c, 6, 79, 0
6, 108960, Note_on_c, 6, 78, 110
6, 108992, Note_on_c, 6, 78, 0
6, 109008, Note_on_c, 6, 79, 110
6, 109040, Note_on_c, 6, 79, 0
6, 109056, Note_on_c, 6, 78, 110
6, 109104, Note_on_c, 6, 78, 0
6, 109104, Note_on_c, 6, 81, 110
6, 109150, Note_on_c, 6, 81, 0
6, 109152, Note_on_c, 6, 79, 110
6, 109184, Note_on_c, 6, 79, 0
6, 109200, Note_on_c, 6, 83, 110
6, 109232, Note_on_c, 6, 83, 0
6, 109248, Note_on_c, 6, 81, 110
6, 109408, Note_on_c, 6, 81, 0
6, 109488, Note_on_c, 6, 86, 110
6, 109520, Note_on_c, 6, 86, 0
6, 109536, Note_on_c, 6, 85, 110
6, 109584, Note_on_c, 6, 85, 0
6, 109584, Note_on_c, 6, 86, 110
6, 109630, Note_on_c, 6, 86, 0
6, 109632, Note_on_c, 6, 88, 110
6, 109680, Note_on_c, 6, 88, 0
6, 109680, Note_on_c, 6, 86, 110
6, 109726, Note_on_c, 6, 86, 0
6, 109728, Note_on_c, 6, 85, 110
6, 109760, Note_on_c, 6, 85, 0
6, 109776, Note_on_c, 6, 86, 110
6, 109808, Note_on_c, 6, 86, 0
6, 109824, Note_on_c, 6, 79, 110
6, 109872, Note_on_c, 6, 79, 0
6, 109872, Note_on_c, 6, 83, 110
6, 109918, Note_on_c, 6, 83, 0
6, 109920, Note_on_c, 6, 81, 110
6, 109952, Note_on_c, 6, 81, 0
6, 109968, Note_on_c, 6, 84, 110
6, 110000, Note_on_c, 6, 84, 0
6, 110016, Note_on_c, 6, 83, 110
6, 110176, Note_on_c, 6, 83, 0
6, 110256, Note_on_c, 6, 86, 110
6, 110288, Note_on_c, 6, 86, 0
6, 110304, Note_on_c, 6, 85, 110
6, 110352, Note_on_c, 6, 85, 0
6, 110352, Note_on_c, 6, 86, 110
6, 110398, Note_on_c, 6, 86, 0
6, 110400, Note_on_c, 6, 88, 110
6, 110448, Note_on_c, 6, 88, 0
6, 110448, Note_on_c, 6, 86, 110
6, 110494, Note_on_c, 6, 86, 0
6, 110496, Note_on_c, 6, 85, 110
6, 110528, Note_on_c, 6, 85, 0
6, 110544, Note_on_c, 6, 86, 110
6, 110576, Note_on_c, 6, 86, 0
6, 110592, Note_on_c, 6, 81, 110
6, 110640, Note_on_c, 6, 81, 0
6, 110640, Note_on_c, 6, 84, 110
6, 110686, Note_on_c, 6, 84, 0
6, 110688, Note_on_c, 6, 83, 110
6, 110720, Note_on_c, 6, 83, 0
6, 110736, Note_on_c, 6, 86, 110
6, 110768, Note_on_c, 6, 86, 0
6, 110784, Note_on_c, 6, 84, 110
6, 110944, Note_on_c, 6, 84, 0
6, 111024, Note_on_c, 6, 86, 110
6, 111056, Note_on_c, 6, 86, 0
6, 111072, Note_on_c, 6, 85, 110
6, 111120, Note_on_c, 6, 85, 0
6, 111120, Note_on_c, 6, 86, 110
6, 111166, Note_on_c, 6, 86, 0
6, 111168, Note_on_c, 6, 88, 110
6, 111216, Note_on_c, 6, 88, 0
6, 111216, Note_on_c, 6, 86, 110
6, 111262, Note_on_c, 6, 86, 0
6, 111264, Note_on_c, 6, 85, 110
6, 111296, Note_on_c, 6, 85, 0
6, 111312, Note_on_c, 6, 86, 110
6, 111344, Note_on_c, 6, 86, 0
6, 111360, Note_on_c, 6, 86, 110
6, 112080, Note_on_c, 6, 86, 0
6, 112128, Note_on_c, 6, 74, 110
6, 112176, Note_on_c, 6, 74, 0
6, 112176, Note_on_c, 6, 75, 110
6, 112224, Note_on_c, 6, 75, 0
6, 112224, Note_on_c, 6, 76, 110
6, 112272, Note_on_c, 6, 76, 0
6, 112272, Note_on_c, 6, 77, 110
6, 112320, Note_on_c, 6, 77, 0
6, 112320, Note_on_c, 6, 78, 110
6, 112368, Note_on_c, 6, 78, 0
6, 112368, Note_on_c, 6, 79, 110
6, 112416, Note_on_c, 6, 79, 0
6, 112416, Note_on_c, 6, 80, 110
6, 112464, Note_on_c, 6, 80, 0
6, 112464, Note_on_c, 6, 81, 110
6, 112512, Note_on_c, 6, 81, 0
6, 112512, Note_on_c, 6, 82, 110
6, 112560, Note_on_c, 6, 82, 0
6, 112560, Note_on_c, 6, 83, 110
6, 112608, Note_on_c, 6, 83, 0
6, 112608, Note_on_c, 6, 84, 110
6, 112656, Note_on_c, 6, 84, 0
6, 112656, Note_on_c, 6, 85, 110
6, 112704, Note_on_c, 6, 85, 0
6, 112704, Note_on_c, 6, 86, 110
6, 112798, Note_on_c, 6, 86, 0
6, 112800, Note_on_c, 6, 86, 110
6, 112832, Note_on_c, 6, 86, 0
6, 112896, Note_on_c, 6, 86, 110
6, 112992, Note_on_c, 6, 86, 0
6, 112992, Note_on_c, 6, 85, 110
6, 113086, Note_on_c, 6, 85, 0
6, 113184, Note_on_c, 6, 85, 110
6, 113278, Note_on_c, 6, 85, 0
6, 113280, Note_on_c, 6, 85, 110
6, 113376, Note_on_c, 6, 85, 0
6, 113376, Note_on_c, 6, 83, 110
6, 113470, Note_on_c, 6, 83, 0
6, 113568, Note_on_c, 6, 83, 110
6, 113662, Note_on_c, 6, 83, 0
6, 113664, Note_on_c, 6, 83, 110
6, 113760, Note_on_c, 6, 83, 0
6, 113760, Note_on_c, 6, 81, 110
6, 113854, Note_on_c, 6, 81, 0
6, 113856, Note_on_c, 6, 86, 110
6, 114000, Note_on_c, 6, 86, 0
6, 114000, Note_on_c, 6, 82, 110
6, 114046, Note_on_c, 6, 82, 0
6, 114048, Note_on_c, 6, 83, 110
6, 114192, Note_on_c, 6, 83, 0
6, 114192, Note_on_c, 6, 78, 110
6, 114238, Note_on_c, 6, 78, 0
6, 114240, Note_on_c, 6, 79, 110
6, 114384, Note_on_c, 6, 79, 0
6, 114384, Note_on_c, 6, 76, 110
6, 114430, Note_on_c, 6, 76, 0
6, 114432, Note_on_c, 6, 80, 110
6, 114480, Note_on_c, 6, 80, 0
6, 114480, Note_on_c, 6, 81, 110
6, 114526, Note_on_c, 6, 81, 0
6, 114528, Note_on_c, 6, 83, 110
6, 114560, Note_on_c, 6, 83, 0
6, 114576, Note_on_c, 6, 81, 110
6, 114608, Note_on_c, 6, 81, 0
6, 114624, Note_on_c, 6, 79, 110
6, 114672, Note_on_c, 6, 79, 0
6, 114672, Note_on_c, 6, 78, 110
6, 114718, Note_on_c, 6, 78, 0
6, 114720, Note_on_c, 6, 76, 110
6, 114752, Note_on_c, 6, 76, 0
6, 114768, Note_on_c, 6, 74, 110
6, 114800, Note_on_c, 6, 74, 0
6, 114816, Note_on_c, 6, 78, 110
6, 114840, Note_on_c, 6, 78, 0
6, 114840, Note_on_c, 6, 76, 110
6, 114864, Note_on_c, 6, 76, 0
6, 114864, Note_on_c, 6, 78, 110
6, 114888, Note_on_c, 6, 78, 0
6, 114888, Note_on_c, 6, 76, 110
6, 114912, Note_on_c, 6, 76, 0
6, 114912, Note_on_c, 6, 78, 110
6, 114936, Note_on_c, 6, 78, 0
6, 114936, Note_on_c, 6, 76, 110
6, 114960, Note_on_c, 6, 76, 0
6, 114960, Note_on_c, 6, 78, 110
6, 114984, Note_on_c, 6, 78, 0
6, 114984, Note_on_c, 6, 76, 110
6, 115008, Note_on_c, 6, 76, 0
6, 115008, Note_on_c, 6, 78, 110
6, 115032, Note_on_c, 6, 78, 0
6, 115032, Note_on_c, 6, 76, 110
6, 115056, Note_on_c, 6, 76, 0
6, 115056, Note_on_c, 6, 78, 110
6, 115080, Note_on_c, 6, 78, 0
6, 115080, Note_on_c, 6, 76, 110
6, 115104, Note_on_c, 6, 76, 0
6, 115104, Note_on_c, 6, 78, 110
6, 115128, Note_on_c, 6, 78, 0
6, 115128, Note_on_c, 6, 76, 110
6, 115152, Note_on_c, 6, 76, 0
6, 115152, Note_on_c, 6, 74, 110
6, 115176, Note_on_c, 6, 74, 0
6, 115176, Note_on_c, 6, 76, 110
6, 115200, Note_on_c, 6, 76, 0
6, 115200, Note_on_c, 6, 74, 110
6, 115360, Note_on_c, 6, 74, 0
6, 116736, Note_on_c, 6, 81, 110
6, 117072, Note_on_c, 6, 81, 0
6, 117120, Note_on_c, 6, 83, 110
6, 117168, Note_on_c, 6, 83, 0
6, 117168, Note_on_c, 6, 81, 110
6, 117472, Note_on_c, 6, 81, 0
6, 117504, Note_on_c, 6, 83, 110
6, 117552, Note_on_c, 6, 83, 0
6, 117552, Note_on_c, 6, 81, 110
6, 117694, Note_on_c, 6, 81, 0
6, 118272, Note_on_c, 6, 86, 110
6, 118368, Note_on_c, 6, 86, 0
6, 118368, Note_on_c, 6, 83, 110
6, 118462, Note_on_c, 6, 83, 0
6, 118464, Note_on_c, 6, 79, 110
6, 118720, Note_on_c, 6, 79, 0
6, 118752, Note_on_c, 6, 81, 110
6, 118800, Note_on_c, 6, 81, 0
6, 118800, Note_on_c, 6, 79, 110
6, 118846, Note_on_c, 6, 79, 0
6, 118848, Note_on_c, 6, 78, 110
6, 118880, Note_on_c, 6, 78, 0
6, 118944, Note_on_c, 6, 79, 110
6, 118976, Note_on_c, 6, 79, 0
6, 119040, Note_on_c, 6, 81, 110
6, 119136, Note_on_c, 6, 81, 0
6, 119136, Note_on_c, 6, 78, 110
6, 119230, Note_on_c, 6, 78, 0
6, 119232, Note_on_c, 6, 74, 110
6, 119392, Note_on_c, 6, 74, 0
6, 119808, Note_on_c, 6, 86, 110
6, 119904, Note_on_c, 6, 86, 0
6, 119904, Note_on_c, 6, 83, 110
6, 119998, Note_on_c, 6, 83, 0
6, 120000, Note_on_c, 6, 79, 110
6, 120256, Note_on_c, 6, 79, 0
6, 120288, Note_on_c, 6, 81, 110
6, 120336, Note_on_c, 6, 81, 0
6, 120336, Note_on_c, 6, 79, 110
6, 120382, Note_on_c, 6, 79, 0
6, 120384, Note_on_c, 6, 78, 110
6, 120416, Note_on_c, 6, 78, 0
6, 120480, Note_on_c, 6, 79, 110
6, 120512, Note_on_c, 6, 79, 0
6, 120576, Note_on_c, 6, 81, 110
6, 120670, Note_on_c, 6, 81, 0
6, 120672, Note_on_c, 6, 81, 110
6, 120720, Note_on_c, 6, 81, 0
6, 120720, Note_on_c, 6, 80, 110
6, 120768, Note_on_c, 6, 80, 0
6, 120768, Note_on_c, 6, 81, 110
6, 120816, Note_on_c, 6, 81, 0
6, 120816, Note_on_c, 6, 80, 110
6, 120864, Note_on_c, 6, 80, 0
6, 120864, Note_on_c, 6, 81, 110
6, 120912, Note_on_c, 6, 81, 0
6, 120912, Note_on_c, 6, 80, 110
6, 120960, Note_on_c, 6, 80, 0
6, 120960, Note_on_c, 6, 81, 110
6, 121216, Note_on_c, 6, 81, 0
6, 121248, Note_on_c, 6, 73, 110
6, 121342, Note_on_c, 6, 73, 0
6, 121344, Note_on_c, 6, 76, 110
6, 121440, Note_on_c, 6, 76, 0
6, 121440, Note_on_c, 6, 74, 110
6, 121534, Note_on_c, 6, 74, 0
6, 121632, Note_on_c, 6, 78, 110
6, 121726, Note_on_c, 6, 78, 0
6, 121728, Note_on_c, 6, 75, 110
6, 121824, Note_on_c, 6, 75, 0
6, 121824, Note_on_c, 6, 76, 110
6, 121918, Note_on_c, 6, 76, 0
6, 122016, Note_on_c, 6, 79, 110
6, 122110, Note_on_c, 6, 79, 0
6, 122112, Note_on_c, 6, 77, 110
6, 122208, Note_on_c, 6, 77, 0
6, 122208, Note_on_c, 6, 78, 110
6, 122302, Note_on_c, 6, 78, 0
6, 122400, Note_on_c, 6, 69, 110
6, 122496, Note_on_c, 6, 69, 0
6, 122496, Note_on_c, 6, 81, 110
6, 122590, Note_on_c, 6, 81, 0
6, 122592, Note_on_c, 6, 81, 110
6, 122752, Note_on_c, 6, 81, 0
6, 122784, Note_on_c, 6, 73, 110
6, 122878, Note_on_c, 6, 73, 0
6, 122880, Note_on_c, 6, 76, 110
6, 122928, Note_on_c, 6, 76, 0
6, 122928, Note_on_c, 6, 74, 110
6, 122974, Note_on_c, 6, 74, 0
6, 122976, Note_on_c, 6, 73, 110
6, 123008, Note_on_c, 6, 73, 0
6, 123024, Note_on_c, 6, 74, 110
6, 123056, Note_on_c, 6, 74, 0
6, 123072, Note_on_c, 6, 73, 110
6, 123120, Note_on_c, 6, 73, 0
6, 123120, Note_on_c, 6, 74, 110
6, 123166, Note_on_c, 6, 74, 0
6, 123168, Note_on_c, 6, 76, 110
6, 123200, Note_on_c, 6, 76, 0
6, 123216, Note_on_c, 6, 78, 110
6, 123248, Note_on_c, 6, 78, 0
6, 123264, Note_on_c, 6, 78, 110
6, 123312, Note_on_c, 6, 78, 0
6, 123312, Note_on_c, 6, 76, 110
6, 123358, Note_on_c, 6, 76, 0
6, 123360, Note_on_c, 6, 75, 110
6, 123392, Note_on_c, 6, 75, 0
6, 123408, Note_on_c, 6, 76, 110
6, 123440, Note_on_c, 6, 76, 0
6, 123456, Note_on_c, 6, 75, 110
6, 123504, Note_on_c, 6, 75, 0
6, 123504, Note_on_c, 6, 76, 110
6, 123550, Note_on_c, 6, 76, 0
6, 123552, Note_on_c, 6, 78, 110
6, 123584, Note_on_c, 6, 78, 0
6, 123600, Note_on_c, 6, 79, 110
6, 123632, Note_on_c, 6, 79, 0
6, 123648, Note_on_c, 6, 79, 110
6, 123696, Note_on_c, 6, 79, 0
6, 123696, Note_on_c, 6, 78, 110
6, 123742, Note_on_c, 6, 78, 0
6, 123744, Note_on_c, 6, 77, 110
6, 123776, Note_on_c, 6, 77, 0
6, 123792, Note_on_c, 6, 78, 110
6, 123824, Note_on_c, 6, 78, 0
6, 123840, Note_on_c, 6, 77, 110
6, 123888, Note_on_c, 6, 77, 0
6, 123888, Note_on_c, 6, 78, 110
6, 123934, Note_on_c, 6, 78, 0
6, 123936, Note_on_c, 6, 79, 110
6, 123968, Note_on_c, 6, 79, 0
6, 123984, Note_on_c, 6, 81, 110
6, 124016, Note_on_c, 6, 81, 0
6, 124032, Note_on_c, 6, 81, 110
6, 124080, Note_on_c, 6, 81, 0
6, 124080, Note_on_c, 6, 79, 110
6, 124126, Note_on_c, 6, 79, 0
6, 124128, Note_on_c, 6, 78, 110
6, 124160, Note_on_c, 6, 78, 0
6, 124176, Note_on_c, 6, 79, 110
6, 124208, Note_on_c, 6, 79, 0
6, 124224, Note_on_c, 6, 78, 110
6, 124272, Note_on_c, 6, 78, 0
6, 124272, Note_on_c, 6, 79, 110
6, 124318, Note_on_c, 6, 79, 0
6, 124320, Note_on_c, 6, 81, 110
6, 124352, Note_on_c, 6, 81, 0
6, 124368, Note_on_c, 6, 83, 110
6, 124400, Note_on_c, 6, 83, 0
6, 124416, Note_on_c, 6, 83, 110
6, 124464, Note_on_c, 6, 83, 0
6, 124464, Note_on_c, 6, 81, 110
6, 124510, Note_on_c, 6, 81, 0
6, 124512, Note_on_c, 6, 80, 110
6, 124544, Note_on_c, 6, 80, 0
6, 124560, Note_on_c, 6, 81, 110
6, 124592, Note_on_c, 6, 81, 0
6, 124608, Note_on_c, 6, 80, 110
6, 124656, Note_on_c, 6, 80, 0
6, 124656, Note_on_c, 6, 81, 110
6, 124702, Note_on_c, 6, 81, 0
6, 124704, Note_on_c, 6, 83, 110
6, 124736, Note_on_c, 6, 83, 0
6, 124752, Note_on_c, 6, 84, 110
6, 124784, Note_on_c, 6, 84, 0
6, 124800, Note_on_c, 6, 84, 110
6, 124848, Note_on_c, 6, 84, 0
6, 124848, Note_on_c, 6, 83, 110
6, 124894, Note_on_c, 6, 83, 0
6, 124896, Note_on_c, 6, 82, 110
6, 124928, Note_on_c, 6, 82, 0
6, 124944, Note_on_c, 6, 83, 110
6, 124976, Note_on_c, 6, 83, 0
6, 124992, Note_on_c, 6, 82, 110
6, 125040, Note_on_c, 6, 82, 0
6, 125040, Note_on_c, 6, 83, 110
6, 125086, Note_on_c, 6, 83, 0
6, 125088, Note_on_c, 6, 84, 110
6, 125120, Note_on_c, 6, 84, 0
6, 125136, Note_on_c, 6, 86, 110
6, 125168, Note_on_c, 6, 86, 0
6, 125184, Note_on_c, 6, 84, 110
6, 125232, Note_on_c, 6, 84, 0
6, 125232, Note_on_c, 6, 86, 110
6, 125278, Note_on_c, 6, 86, 0
6, 125280, Note_on_c, 6, 83, 110
6, 125312, Note_on_c, 6, 83, 0
6, 125328, Note_on_c, 6, 84, 110
6, 125360, Note_on_c, 6, 84, 0
6, 125376, Note_on_c, 6, 81, 110
6, 125424, Note_on_c, 6, 81, 0
6, 125424, Note_on_c, 6, 83, 110
6, 125470, Note_on_c, 6, 83, 0
6, 125472, Note_on_c, 6, 79, 110
6, 125504, Note_on_c, 6, 79, 0
6, 125520, Note_on_c, 6, 81, 110
6, 125552, Note_on_c, 6, 81, 0
6, 125568, Note_on_c, 6, 78, 110
6, 125616, Note_on_c, 6, 78, 0
6, 125616, Note_on_c, 6, 79, 110
6, 125662, Note_on_c, 6, 79, 0
6, 125664, Note_on_c, 6, 76, 110
6, 125696, Note_on_c, 6, 76, 0
6, 125712, Note_on_c, 6, 78, 110
6, 125744, Note_on_c, 6, 78, 0
6, 125760, Note_on_c, 6, 74, 110
6, 125808, Note_on_c, 6, 74, 0
6, 125808, Note_on_c, 6, 76, 110
6, 125854, Note_on_c, 6, 76, 0
6, 125856, Note_on_c, 6, 72, 110
6, 125888, Note_on_c, 6, 72, 0
6, 125904, Note_on_c, 6, 74, 110
6, 125936, Note_on_c, 6, 74, 0
6, 125952, Note_on_c, 6, 71, 110
6, 126000, Note_on_c, 6, 71, 0
6, 126000, Note_on_c, 6, 75, 110
6, 126046, Note_on_c, 6, 75, 0
6, 126048, Note_on_c, 6, 76, 110
6, 126080, Note_on_c, 6, 76, 0
6, 126096, Note_on_c, 6, 79, 110
6, 126128, Note_on_c, 6, 79, 0
6, 126144, Note_on_c, 6, 83, 110
6, 126480, Note_on_c, 6, 83, 0
6, 126528, Note_on_c, 6, 81, 110
6, 126576, Note_on_c, 6, 81, 0
6, 126576, Note_on_c, 6, 79, 110
6, 126622, Note_on_c, 6, 79, 0
6, 126624, Note_on_c, 6, 78, 110
6, 126656, Note_on_c, 6, 78, 0
6, 126672, Note_on_c, 6, 76, 110
6, 126704, Note_on_c, 6, 76, 0
6, 126720, Note_on_c, 6, 81, 110
6, 126880, Note_on_c, 6, 81, 0
6, 126912, Note_on_c, 6, 79, 110
6, 126960, Note_on_c, 6, 79, 0
6, 126960, Note_on_c, 6, 78, 110
6, 127006, Note_on_c, 6, 78, 0
6, 127008, Note_on_c, 6, 76, 110
6, 127040, Note_on_c, 6, 76, 0
6, 127056, Note_on_c, 6, 74, 110
6, 127088, Note_on_c, 6, 74, 0
6, 127104, Note_on_c, 6, 78, 110
6, 127128, Note_on_c, 6, 78, 0
6, 127128, Note_on_c, 6, 76, 110
6, 127152, Note_on_c, 6, 76, 0
6, 127152, Note_on_c, 6, 78, 110
6, 127176, Note_on_c, 6, 78, 0
6, 127176, Note_on_c, 6, 76, 110
6, 127200, Note_on_c, 6, 76, 0
6, 127200, Note_on_c, 6, 78, 110
6, 127224, Note_on_c, 6, 78, 0
6, 127224, Note_on_c, 6, 76, 110
6, 127248, Note_on_c, 6, 76, 0
6, 127248, Note_on_c, 6, 78, 110
6, 127272, Note_on_c, 6, 78, 0
6, 127272, Note_on_c, 6, 76, 110
6, 127296, Note_on_c, 6, 76, 0
6, 127296, Note_on_c, 6, 78, 110
6, 127320, Note_on_c, 6, 78, 0
6, 127320, Note_on_c, 6, 76, 110
6, 127344, Note_on_c, 6, 76, 0
6, 127344, Note_on_c, 6, 78, 110
6, 127368, Note_on_c, 6, 78, 0
6, 127368, Note_on_c, 6, 76, 110
6, 127392, Note_on_c, 6, 76, 0
6, 127392, Note_on_c, 6, 78, 110
6, 127416, Note_on_c, 6, 78, 0
6, 127416, Note_on_c, 6, 76, 110
6, 127440, Note_on_c, 6, 76, 0
6, 127440, Note_on_c, 6, 74, 110
6, 127464, Note_on_c, 6, 74, 0
6, 127464, Note_on_c, 6, 76, 110
6, 127488, Note_on_c, 6, 76, 0
6, 127584, Note_on_c, 6, 66, 110
6, 127632, Note_on_c, 6, 66, 0
6, 127632, Note_on_c, 6, 69, 110
6, 127678, Note_on_c, 6, 69, 0
6, 127680, Note_on_c, 6, 74, 110
6, 127712, Note_on_c, 6, 74, 0
6, 127728, Note_on_c, 6, 78, 110
6, 127760, Note_on_c, 6, 78, 0
6, 127776, Note_on_c, 6, 81, 110
6, 127808, Note_on_c, 6, 81, 0
6, 127824, Note_on_c, 6, 86, 110
6, 127856, Note_on_c, 6, 86, 0
6, 127872, Note_on_c, 6, 86, 110
6, 128208, Note_on_c, 6, 86, 0
6, 128352, Note_on_c, 6, 64, 110
6, 128400, Note_on_c, 6, 64, 0
6, 128400, Note_on_c, 6, 67, 110
6, 128446, Note_on_c, 6, 67, 0
6, 128448, Note_on_c, 6, 71, 110
6, 128480, Note_on_c, 6, 71, 0
6, 128496, Note_on_c, 6, 76, 110
6, 128528, Note_on_c, 6, 76, 0
6, 128544, Note_on_c, 6, 79, 110
6, 128576, Note_on_c, 6, 79, 0
6, 128592, Note_on_c, 6, 83, 110
6, 128624, Note_on_c, 6, 83, 0
6, 128640, Note_on_c, 6, 83, 110
6, 128976, Note_on_c, 6, 83, 0
6, 129024, Note_on_c, 6, 69, 110
6, 129072, Note_on_c, 6, 69, 0
6, 129072, Note_on_c, 6, 81, 110
6, 129214, Note_on_c, 6, 81, 0
6, 129216, Note_on_c, 6, 79, 110
6, 129264, Note_on_c, 6, 79, 0
6, 129264, Note_on_c, 6, 78, 110
6, 129310, Note_on_c, 6, 78, 0
6, 129312, Note_on_c, 6, 76, 110
6, 129344, Note_on_c, 6, 76, 0
6, 129360, Note_on_c, 6, 74, 110
6, 129392, Note_on_c, 6, 74, 0
6, 129408, Note_on_c, 6, 78, 110
6, 129432, Note_on_c, 6, 78, 0
6, 129432, Note_on_c, 6, 76, 110
6, 129456, Note_on_c, 6, 76, 0
6, 129456, Note_on_c, 6, 78, 110
6, 129480, Note_on_c, 6, 78, 0
6, 129480, Note_on_c, 6, 76, 110
6, 129504, Note_on_c, 6, 76, 0
6, 129504, Note_on_c, 6, 78, 110
6, 129528, Note_on_c, 6, 78, 0
6, 129528, Note_on_c, 6, 76, 110
6, 129552, Note_on_c, 6, 76, 0
6, 129552, Note_on_c, 6, 78, 110
6, 129576, Note_on_c, 6, 78, 0
6, 129576, Note_on_c, 6, 76, 110
6, 129600, Note_on_c, 6, 76, 0
6, 129600, Note_on_c, 6, 78, 110
6, 129624, Note_on_c, 6, 78, 0
6, 129624, Note_on_c, 6, 76, 110
6, 129648, Note_on_c, 6, 76, 0
6, 129648, Note_on_c, 6, 78, 110
6, 129672, Note_on_c, 6, 78, 0
6, 129672, Note_on_c, 6, 76, 110
6, 129696, Note_on_c, 6, 76, 0
6, 129696, Note_on_c, 6, 78, 110
6, 129720, Note_on_c, 6, 78, 0
6, 129720, Note_on_c, 6, 76, 110
6, 129744, Note_on_c, 6, 76, 0
6, 129744, Note_on_c, 6, 74, 110
6, 129768, Note_on_c, 6, 74, 0
6, 129768, Note_on_c, 6, 76, 110
6, 129792, Note_on_c, 6, 76, 0
6, 129888, Note_on_c, 6, 66, 110
6, 129936, Note_on_c, 6, 66, 0
6, 129936, Note_on_c, 6, 69, 110
6, 129982, Note_on_c, 6, 69, 0
6, 129984, Note_on_c, 6, 74, 110
6, 130016, Note_on_c, 6, 74, 0
6, 130032, Note_on_c, 6, 78, 110
6, 130064, Note_on_c, 6, 78, 0
6, 130080, Note_on_c, 6, 81, 110
6, 130112, Note_on_c, 6, 81, 0
6, 130128, Note_on_c, 6, 86, 110
6, 130160, Note_on_c, 6, 86, 0
6, 130176, Note_on_c, 6, 86, 110
6, 130224, Note_on_c, 6, 86, 0
6, 130224, Note_on_c, 6, 85, 110
6, 130270, Note_on_c, 6, 85, 0
6, 130272, Note_on_c, 6, 83, 110
6, 130304, Note_on_c, 6, 83, 0
6, 130320, Note_on_c, 6, 81, 110
6, 130352, Note_on_c, 6, 81, 0
6, 130368, Note_on_c, 6, 79, 110
6, 130416, Note_on_c, 6, 79, 0
6, 130416, Note_on_c, 6, 78, 110
6, 130462, Note_on_c, 6, 78, 0
6, 130464, Note_on_c, 6, 76, 110
6, 130496, Note_on_c, 6, 76, 0
6, 130512, Note_on_c, 6, 74, 110
6, 130544, Note_on_c, 6, 74, 0
6, 130560, Note_on_c, 6, 83, 110
6, 130654, Note_on_c, 6, 83, 0
6, 130656, Note_on_c, 6, 64, 110
6, 130704, Note_on_c, 6, 64, 0
6, 130704, Note_on_c, 6, 67, 110
6, 130750, Note_on_c, 6, 67, 0
6, 130752, Note_on_c, 6, 71, 110
6, 130784, Note_on_c, 6, 71, 0
6, 130800, Note_on_c, 6, 76, 110
6, 130832, Note_on_c, 6, 76, 0
6, 130848, Note_on_c, 6, 79, 110
6, 130880, Note_on_c, 6, 79, 0
6, 130896, Note_on_c, 6, 83, 110
6, 130928, Note_on_c, 6, 83, 0
6, 130944, Note_on_c, 6, 83, 110
6, 130992, Note_on_c, 6, 83, 0
6, 130992, Note_on_c, 6, 81, 110
6, 131038, Note_on_c, 6, 81, 0
6, 131040, Note_on_c, 6, 79, 110
6, 131072, Note_on_c, 6, 79, 0
6, 131088, Note_on_c, 6, 78, 110
6, 131120, Note_on_c, 6, 78, 0
6, 131136, Note_on_c, 6, 76, 110
6, 131184, Note_on_c, 6, 76, 0
6, 131184, Note_on_c, 6, 74, 110
6, 131230, Note_on_c, 6, 74, 0
6, 131232, Note_on_c, 6, 73, 110
6, 131264, Note_on_c, 6, 73, 0
6, 131280, Note_on_c, 6, 71, 110
6, 131312, Note_on_c, 6, 71, 0
6, 131328, Note_on_c, 6, 69, 110
6, 131422, Note_on_c, 6, 69, 0
6, 131424, Note_on_c, 6, 71, 110
6, 131456, Note_on_c, 6, 71, 0
6, 131472, Note_on_c, 6, 73, 110
6, 131504, Note_on_c, 6, 73, 0
6, 131520, Note_on_c, 6, 74, 110
6, 131552, Note_on_c, 6, 74, 0
6, 131568, Note_on_c, 6, 76, 110
6, 131600, Note_on_c, 6, 76, 0
6, 131616, Note_on_c, 6, 78, 110
6, 131648, Note_on_c, 6, 78, 0
6, 131664, Note_on_c, 6, 79, 110
6, 131696, Note_on_c, 6, 79, 0
6, 131712, Note_on_c, 6, 81, 110
6, 131744, Note_on_c, 6, 81, 0
6, 131760, Note_on_c, 6, 83, 110
6, 131792, Note_on_c, 6, 83, 0
6, 131808, Note_on_c, 6, 85, 110
6, 131840, Note_on_c, 6, 85, 0
6, 131856, Note_on_c, 6, 86, 110
6, 131888, Note_on_c, 6, 86, 0
6, 131904, Note_on_c, 6, 85, 110
6, 131952, Note_on_c, 6, 85, 0
6, 131952, Note_on_c, 6, 86, 110
6, 131998, Note_on_c, 6, 86, 0
6, 132000, Note_on_c, 6, 85, 110
6, 132048, Note_on_c, 6, 85, 0
6, 132048, Note_on_c, 6, 86, 110
6, 132094, Note_on_c, 6, 86, 0
6, 132096, Note_on_c, 6, 81, 110
6, 132192, Note_on_c, 6, 81, 0
6, 132192, Note_on_c, 6, 80, 110
6, 132288, Note_on_c, 6, 80, 0
6, 132288, Note_on_c, 6, 79, 110
6, 132384, Note_on_c, 6, 79, 0
6, 132384, Note_on_c, 6, 78, 110
6, 132478, Note_on_c, 6, 78, 0
6, 132480, Note_on_c, 6, 78, 110
6, 132504, Note_on_c, 6, 78, 0
6, 132504, Note_on_c, 6, 76, 110
6, 132528, Note_on_c, 6, 76, 0
6, 132528, Note_on_c, 6, 78, 110
6, 132552, Note_on_c, 6, 78, 0
6, 132552, Note_on_c, 6, 76, 110
6, 132576, Note_on_c, 6, 76, 0
6, 132576, Note_on_c, 6, 78, 110
6, 132600, Note_on_c, 6, 78, 0
6, 132600, Note_on_c, 6, 76, 110
6, 132624, Note_on_c, 6, 76, 0
6, 132624, Note_on_c, 6, 78, 110
6, 132648, Note_on_c, 6, 78, 0
6, 132648, Note_on_c, 6, 76, 110
6, 132672, Note_on_c, 6, 76, 0
6, 132672, Note_on_c, 6, 78, 110
6, 132696, Note_on_c, 6, 78, 0
6, 132696, Note_on_c, 6, 76, 110
6, 132720, Note_on_c, 6, 76, 0
6, 132720, Note_on_c, 6, 78, 110
6, 132744, Note_on_c, 6, 78, 0
6, 132744, Note_on_c, 6, 76, 110
6, 132768, Note_on_c, 6, 76, 0
6, 132768, Note_on_c, 6, 78, 110
6, 132792, Note_on_c, 6, 78, 0
6, 132792, Note_on_c, 6, 76, 110
6, 132816, Note_on_c, 6, 76, 0
6, 132816, Note_on_c, 6, 74, 110
6, 132840, Note_on_c, 6, 74, 0
6, 132840, Note_on_c, 6, 76, 110
6, 132864, Note_on_c, 6, 76, 0
6, 132864, Note_on_c, 6, 74, 110
6, 133024, Note_on_c, 6, 74, 0
6, 135936, Note_on_c, 6, 81, 110
6, 136464, Note_on_c, 6, 81, 0
6, 136512, Note_on_c, 6, 81, 110
6, 136672, Note_on_c, 6, 81, 0
6, 136704, Note_on_c, 6, 83, 110
6, 136800, Note_on_c, 6, 83, 0
6, 136800, Note_on_c, 6, 81, 110
6, 137056, Note_on_c, 6, 81, 0
6, 137088, Note_on_c, 6, 83, 110
6, 137184, Note_on_c, 6, 83, 0
6, 137184, Note_on_c, 6, 81, 110
6, 137440, Note_on_c, 6, 81, 0
6, 137472, Note_on_c, 6, 74, 110
6, 137566, Note_on_c, 6, 74, 0
6, 137568, Note_on_c, 6, 76, 110
6, 137600, Note_on_c, 6, 76, 0
6, 137616, Note_on_c, 6, 78, 110
6, 137648, Note_on_c, 6, 78, 0
6, 137664, Note_on_c, 6, 79, 110
6, 137696, Note_on_c, 6, 79, 0
6, 137712, Note_on_c, 6, 81, 110
6, 137744, Note_on_c, 6, 81, 0
6, 137760, Note_on_c, 6, 83, 110
6, 137792, Note_on_c, 6, 83, 0
6, 137808, Note_on_c, 6, 85, 110
6, 137840, Note_on_c, 6, 85, 0
6, 137856, Note_on_c, 6, 86, 110
6, 138144, Note_on_c, 6, 86, 0
6, 138144, Note_on_c, 6, 88, 110
6, 138240, Note_on_c, 6, 88, 0
6, 138240, Note_on_c, 6, 90, 110
6, 138334, Note_on_c, 6, 90, 0
6, 138336, Note_on_c, 6, 86, 110
6, 138368, Note_on_c, 6, 86, 0
6, 138384, Note_on_c, 6, 81, 110
6, 138416, Note_on_c, 6, 81, 0
6, 138432, Note_on_c, 6, 78, 110
6, 138464, Note_on_c, 6, 78, 0
6, 138480, Note_on_c, 6, 74, 110
6, 138512, Note_on_c, 6, 74, 0
6, 138528, Note_on_c, 6, 69, 110
6, 138560, Note_on_c, 6, 69, 0
6, 138576, Note_on_c, 6, 66, 110
6, 138624, Note_on_c, 6, 66, 0
6, 138624, Note_on_c, 6, 66, 110
6, 138960, Note_on_c, 6, 66, 0
6, 139008, Note_on_c, 6, 78, 110
6, 139296, Note_on_c, 6, 78, 0
6, 139296, Note_on_c, 6, 79, 110
6, 139390, Note_on_c, 6, 79, 0
6, 139392, Note_on_c, 6, 83, 110
6, 139680, Note_on_c, 6, 83, 0
6, 139680, Note_on_c, 6, 81, 110
6, 139774, Note_on_c, 6, 81, 0
6, 139776, Note_on_c, 6, 79, 110
6, 139824, Note_on_c, 6, 79, 0
6, 139824, Note_on_c, 6, 78, 110
6, 139872, Note_on_c, 6, 78, 0
6, 139872, Note_on_c, 6, 76, 110
6, 139920, Note_on_c, 6, 76, 0
6, 139920, Note_on_c, 6, 74, 110
6, 139966, Note_on_c, 6, 74, 0
6, 139968, Note_on_c, 6, 78, 110
6, 140160, Note_on_c, 6, 78, 0
6, 140160, Note_on_c, 6, 76, 110
6, 140496, Note_on_c, 6, 76, 0
6, 140544, Note_on_c, 6, 76, 110
6, 140638, Note_on_c, 6, 76, 0
6, 140640, Note_on_c, 6, 78, 110
6, 140672, Note_on_c, 6, 78, 0
6, 140688, Note_on_c, 6, 79, 110
6, 140720, Note_on_c, 6, 79, 0
6, 140736, Note_on_c, 6, 81, 110
6, 140768, Note_on_c, 6, 81, 0
6, 140784, Note_on_c, 6, 83, 110
6, 140816, Note_on_c, 6, 83, 0
6, 140832, Note_on_c, 6, 85, 110
6, 140864, Note_on_c, 6, 85, 0
6, 140880, Note_on_c, 6, 86, 110
6, 140912, Note_on_c, 6, 86, 0
6, 140928, Note_on_c, 6, 88, 110
6, 141216, Note_on_c, 6, 88, 0
6, 141216, Note_on_c, 6, 90, 110
6, 141312, Note_on_c, 6, 90, 0
6, 141312, Note_on_c, 6, 91, 110
6, 141406, Note_on_c, 6, 91, 0
6, 141408, Note_on_c, 6, 88, 110
6, 141440, Note_on_c, 6, 88, 0
6, 141456, Note_on_c, 6, 85, 110
6, 141488, Note_on_c, 6, 85, 0
6, 141504, Note_on_c, 6, 81, 110
6, 141536, Note_on_c, 6, 81, 0
6, 141552, Note_on_c, 6, 79, 110
6, 141584, Note_on_c, 6, 79, 0
6, 141600, Note_on_c, 6, 76, 110
6, 141632, Note_on_c, 6, 76, 0
6, 141648, Note_on_c, 6, 73, 110
6, 141694, Note_on_c, 6, 73, 0
6, 141696, Note_on_c, 6, 73, 110
6, 141952, Note_on_c, 6, 73, 0
6, 142032, Note_on_c, 6, 67, 110
6, 142080, Note_on_c, 6, 67, 0
6, 142080, Note_on_c, 6, 79, 110
6, 142222, Note_on_c, 6, 79, 0
6, 142224, Note_on_c, 6, 69, 110
6, 142272, Note_on_c, 6, 69, 0
6, 142272, Note_on_c, 6, 81, 110
6, 142414, Note_on_c, 6, 81, 0
6, 142416, Note_on_c, 6, 73, 110
6, 142464, Note_on_c, 6, 73, 0
6, 142464, Note_on_c, 6, 85, 110
6, 142752, Note_on_c, 6, 85, 0
6, 142752, Note_on_c, 6, 83, 110
6, 142846, Note_on_c, 6, 83, 0
6, 142848, Note_on_c, 6, 81, 110
6, 142896, Note_on_c, 6, 81, 0
6, 142896, Note_on_c, 6, 79, 110
6, 142944, Note_on_c, 6, 79, 0
6, 142944, Note_on_c, 6, 78, 110
6, 142992, Note_on_c, 6, 78, 0
6, 142992, Note_on_c, 6, 77, 110
6, 143038, Note_on_c, 6, 77, 0
6, 143040, Note_on_c, 6, 79, 110
6, 143232, Note_on_c, 6, 79, 0
6, 143232, Note_on_c, 6, 78, 110
6, 143568, Note_on_c, 6, 78, 0
6, 143616, Note_on_c, 6, 86, 110
6, 143664, Note_on_c, 6, 86, 0
6, 143664, Note_on_c, 6, 83, 110
6, 143710, Note_on_c, 6, 83, 0
6, 143712, Note_on_c, 6, 79, 110
6, 143744, Note_on_c, 6, 79, 0
6, 143760, Note_on_c, 6, 74, 110
6, 143792, Note_on_c, 6, 74, 0
6, 143808, Note_on_c, 6, 71, 110
6, 143856, Note_on_c, 6, 71, 0
6, 143856, Note_on_c, 6, 67, 110
6, 143902, Note_on_c, 6, 67, 0
6, 143904, Note_on_c, 6, 62, 110
6, 143936, Note_on_c, 6, 62, 0
6, 143952, Note_on_c, 6, 67, 110
6, 143984, Note_on_c, 6, 67, 0
6, 144000, Note_on_c, 6, 71, 110
6, 144048, Note_on_c, 6, 71, 0
6, 144048, Note_on_c, 6, 74, 110
6, 144094, Note_on_c, 6, 74, 0
6, 144096, Note_on_c, 6, 79, 110
6, 144128, Note_on_c, 6, 79, 0
6, 144144, Note_on_c, 6, 83, 110
6, 144176, Note_on_c, 6, 83, 0
6, 144192, Note_on_c, 6, 81, 110
6, 144240, Note_on_c, 6, 81, 0
6, 144240, Note_on_c, 6, 79, 110
6, 144286, Note_on_c, 6, 79, 0
6, 144288, Note_on_c, 6, 78, 110
6, 144320, Note_on_c, 6, 78, 0
6, 144336, Note_on_c, 6, 79, 110
6, 144368, Note_on_c, 6, 79, 0
6, 144384, Note_on_c, 6, 81, 110
6, 144432, Note_on_c, 6, 81, 0
6, 144432, Note_on_c, 6, 83, 110
6, 144480, Note_on_c, 6, 83, 0
6, 144480, Note_on_c, 6, 81, 110
6, 144528, Note_on_c, 6, 81, 0
6, 144528, Note_on_c, 6, 78, 110
6, 144574, Note_on_c, 6, 78, 0
6, 144576, Note_on_c, 6, 74, 110
6, 144624, Note_on_c, 6, 74, 0
6, 144624, Note_on_c, 6, 76, 110
6, 144672, Note_on_c, 6, 76, 0
6, 144672, Note_on_c, 6, 74, 110
6, 144720, Note_on_c, 6, 74, 0
6, 144720, Note_on_c, 6, 71, 110
6, 144766, Note_on_c, 6, 71, 0
6, 144768, Note_on_c, 6, 69, 110
6, 144816, Note_on_c, 6, 69, 0
6, 144816, Note_on_c, 6, 71, 110
6, 144864, Note_on_c, 6, 71, 0
6, 144864, Note_on_c, 6, 69, 110
6, 144912, Note_on_c, 6, 69, 0
6, 144912, Note_on_c, 6, 66, 110
6, 144958, Note_on_c, 6, 66, 0
6, 144960, Note_on_c, 6, 62, 110
6, 145120, Note_on_c, 6, 62, 0
6, 145152, Note_on_c, 6, 86, 110
6, 145200, Note_on_c, 6, 86, 0
6, 145200, Note_on_c, 6, 82, 110
6, 145246, Note_on_c, 6, 82, 0
6, 145248, Note_on_c, 6, 79, 110
6, 145280, Note_on_c, 6, 79, 0
6, 145296, Note_on_c, 6, 74, 110
6, 145328, Note_on_c, 6, 74, 0
6, 145344, Note_on_c, 6, 70, 110
6, 145392, Note_on_c, 6, 70, 0
6, 145392, Note_on_c, 6, 67, 110
6, 145438, Note_on_c, 6, 67, 0
6, 145440, Note_on_c, 6, 62, 110
6, 145472, Note_on_c, 6, 62, 0
6, 145488, Note_on_c, 6, 67, 110
6, 145520, Note_on_c, 6, 67, 0
6, 145536, Note_on_c, 6, 70, 110
6, 145584, Note_on_c, 6, 70, 0
6, 145584, Note_on_c, 6, 74, 110
6, 145630, Note_on_c, 6, 74, 0
6, 145632, Note_on_c, 6, 79, 110
6, 145664, Note_on_c, 6, 79, 0
6, 145680, Note_on_c, 6, 82, 110
6, 145712, Note_on_c, 6, 82, 0
6, 145728, Note_on_c, 6, 81, 110
6, 145776, Note_on_c, 6, 81, 0
6, 145776, Note_on_c, 6, 79, 110
6, 145822, Note_on_c, 6, 79, 0
6, 145824, Note_on_c, 6, 78, 110
6, 145856, Note_on_c, 6, 78, 0
6, 145872, Note_on_c, 6, 79, 110
6, 145904, Note_on_c, 6, 79, 0
6, 145920, Note_on_c, 6, 81, 110
6, 145968, Note_on_c, 6, 81, 0
6, 145968, Note_on_c, 6, 83, 110
6, 146016, Note_on_c, 6, 83, 0
6, 146016, Note_on_c, 6, 81, 110
6, 146064, Note_on_c, 6, 81, 0
6, 146064, Note_on_c, 6, 78, 110
6, 146110, Note_on_c, 6, 78, 0
6, 146112, Note_on_c, 6, 74, 110
6, 146160, Note_on_c, 6, 74, 0
6, 146160, Note_on_c, 6, 76, 110
6, 146208, Note_on_c, 6, 76, 0
6, 146208, Note_on_c, 6, 74, 110
6, 146256, Note_on_c, 6, 74, 0
6, 146256, Note_on_c, 6, 71, 110
6, 146302, Note_on_c, 6, 71, 0
6, 146304, Note_on_c, 6, 69, 110
6, 146352, Note_on_c, 6, 69, 0
6, 146352, Note_on_c, 6, 71, 110
6, 146400, Note_on_c, 6, 71, 0
6, 146400, Note_on_c, 6, 69, 110
6, 146448, Note_on_c, 6, 69, 0
6, 146448, Note_on_c, 6, 66, 110
6, 146494, Note_on_c, 6, 66, 0
6, 146496, Note_on_c, 6, 62, 110
6, 146656, Note_on_c, 6, 62, 0
6, 146688, Note_on_c, 6, 74, 110
6, 146784, Note_on_c, 6, 74, 0
6, 146784, Note_on_c, 6, 73, 110
6, 146878, Note_on_c, 6, 73, 0
6, 146880, Note_on_c, 6, 73, 110
6, 147040, Note_on_c, 6, 73, 0
6, 147072, Note_on_c, 6, 73, 110
6, 147166, Note_on_c, 6, 73, 0
6, 147168, Note_on_c, 6, 74, 110
6, 147216, Note_on_c, 6, 74, 0
6, 147216, Note_on_c, 6, 73, 110
6, 147264, Note_on_c, 6, 73, 0
6, 147264, Note_on_c, 6, 72, 110
6, 147312, Note_on_c, 6, 72, 0
6, 147312, Note_on_c, 6, 73, 110
6, 147358, Note_on_c, 6, 73, 0
6, 147360, Note_on_c, 6, 81, 110
6, 147392, Note_on_c, 6, 81, 0
6, 147408, Note_on_c, 6, 73, 110
6, 147440, Note_on_c, 6, 73, 0
6, 147456, Note_on_c, 6, 76, 110
6, 147552, Note_on_c, 6, 76, 0
6, 147552, Note_on_c, 6, 74, 110
6, 147646, Note_on_c, 6, 74, 0
6, 147648, Note_on_c, 6, 74, 110
6, 147808, Note_on_c, 6, 74, 0
6, 147936, Note_on_c, 6, 74, 110
6, 148032, Note_on_c, 6, 74, 0
6, 148032, Note_on_c, 6, 76, 110
6, 148128, Note_on_c, 6, 76, 0
6, 148128, Note_on_c, 6, 78, 110
6, 148222, Note_on_c, 6, 78, 0
6, 148224, Note_on_c, 6, 75, 110
6, 148320, Note_on_c, 6, 75, 0
6, 148320, Note_on_c, 6, 76, 110
6, 148414, Note_on_c, 6, 76, 0
6, 148416, Note_on_c, 6, 76, 110
6, 148576, Note_on_c, 6, 76, 0
6, 148608, Note_on_c, 6, 76, 110
6, 148702, Note_on_c, 6, 76, 0
6, 148704, Note_on_c, 6, 78, 110
6, 148752, Note_on_c, 6, 78, 0
6, 148752, Note_on_c, 6, 76, 110
6, 148800, Note_on_c, 6, 76, 0
6, 148800, Note_on_c, 6, 75, 110
6, 148848, Note_on_c, 6, 75, 0
6, 148848, Note_on_c, 6, 76, 110
6, 148894, Note_on_c, 6, 76, 0
6, 148896, Note_on_c, 6, 81, 110
6, 148928, Note_on_c, 6, 81, 0
6, 148944, Note_on_c, 6, 76, 110
6, 148976, Note_on_c, 6, 76, 0
6, 148992, Note_on_c, 6, 77, 110
6, 149088, Note_on_c, 6, 77, 0
6, 149088, Note_on_c, 6, 78, 110
6, 149182, Note_on_c, 6, 78, 0
6, 149184, Note_on_c, 6, 78, 110
6, 149344, Note_on_c, 6, 78, 0
6, 149376, Note_on_c, 6, 78, 110
6, 149470, Note_on_c, 6, 78, 0
6, 149472, Note_on_c, 6, 70, 110
6, 149566, Note_on_c, 6, 70, 0
6, 149568, Note_on_c, 6, 70, 110
6, 149662, Note_on_c, 6, 70, 0
6, 149664, Note_on_c, 6, 70, 110
6, 149758, Note_on_c, 6, 70, 0
6, 149760, Note_on_c, 6, 78, 110
6, 149854, Note_on_c, 6, 78, 0
6, 149856, Note_on_c, 6, 70, 110
6, 149950, Note_on_c, 6, 70, 0
6, 149952, Note_on_c, 6, 73, 110
6, 150046, Note_on_c, 6, 73, 0
6, 150048, Note_on_c, 6, 71, 110
6, 150142, Note_on_c, 6, 71, 0
6, 150144, Note_on_c, 6, 71, 110
6, 150400, Note_on_c, 6, 71, 0
6, 150432, Note_on_c, 6, 71, 110
6, 150526, Note_on_c, 6, 71, 0
6, 150528, Note_on_c, 6, 78, 110
6, 150622, Note_on_c, 6, 78, 0
6, 150624, Note_on_c, 6, 71, 110
6, 150718, Note_on_c, 6, 71, 0
6, 150720, Note_on_c, 6, 72, 110
6, 150814, Note_on_c, 6, 72, 0
6, 150816, Note_on_c, 6, 73, 110
6, 150910, Note_on_c, 6, 73, 0
6, 150912, Note_on_c, 6, 73, 110
6, 151168, Note_on_c, 6, 73, 0
6, 151200, Note_on_c, 6, 73, 110
6, 151294, Note_on_c, 6, 73, 0
6, 151296, Note_on_c, 6, 74, 110
6, 151344, Note_on_c, 6, 74, 0
6, 151344, Note_on_c, 6, 73, 110
6, 151392, Note_on_c, 6, 73, 0
6, 151392, Note_on_c, 6, 72, 110
6, 151440, Note_on_c, 6, 72, 0
6, 151440, Note_on_c, 6, 73, 110
6, 151486, Note_on_c, 6, 73, 0
6, 151488, Note_on_c, 6, 78, 110
6, 151520, Note_on_c, 6, 78, 0
6, 151536, Note_on_c, 6, 73, 110
6, 151568, Note_on_c, 6, 73, 0
6, 151584, Note_on_c, 6, 76, 110
6, 151680, Note_on_c, 6, 76, 0
6, 151680, Note_on_c, 6, 74, 110
6, 151774, Note_on_c, 6, 74, 0
6, 151776, Note_on_c, 6, 74, 110
6, 152032, Note_on_c, 6, 74, 0
6, 152064, Note_on_c, 6, 86, 110
6, 152158, Note_on_c, 6, 86, 0
6, 152160, Note_on_c, 6, 83, 110
6, 152208, Note_on_c, 6, 83, 0
6, 152208, Note_on_c, 6, 79, 110
6, 152254, Note_on_c, 6, 79, 0
6, 152256, Note_on_c, 6, 81, 110
6, 152278, Note_on_c, 6, 81, 0
6, 152280, Note_on_c, 6, 79, 110
6, 152302, Note_on_c, 6, 79, 0
6, 152304, Note_on_c, 6, 81, 110
6, 152326, Note_on_c, 6, 81, 0
6, 152328, Note_on_c, 6, 79, 110
6, 152350, Note_on_c, 6, 79, 0
6, 152352, Note_on_c, 6, 81, 110
6, 152374, Note_on_c, 6, 81, 0
6, 152376, Note_on_c, 6, 79, 110
6, 152398, Note_on_c, 6, 79, 0
6, 152400, Note_on_c, 6, 78, 110
6, 152422, Note_on_c, 6, 78, 0
6, 152424, Note_on_c, 6, 79, 110
6, 152446, Note_on_c, 6, 79, 0
6, 152448, Note_on_c, 6, 85, 110
6, 152542, Note_on_c, 6, 85, 0
6, 152544, Note_on_c, 6, 81, 110
6, 152592, Note_on_c, 6, 81, 0
6, 152592, Note_on_c, 6, 77, 110
6, 152638, Note_on_c, 6, 77, 0
6, 152640, Note_on_c, 6, 78, 110
6, 152662, Note_on_c, 6, 78, 0
6, 152664, Note_on_c, 6, 77, 110
6, 152686, Note_on_c, 6, 77, 0
6, 152688, Note_on_c, 6, 78, 110
6, 152710, Note_on_c, 6, 78, 0
6, 152712, Note_on_c, 6, 77, 110
6, 152734, Note_on_c, 6, 77, 0
6, 152736, Note_on_c, 6, 78, 110
6, 152758, Note_on_c, 6, 78, 0
6, 152760, Note_on_c, 6, 77, 110
6, 152782, Note_on_c, 6, 77, 0
6, 152784, Note_on_c, 6, 74, 110
6, 152806, Note_on_c, 6, 74, 0
6, 152808, Note_on_c, 6, 77, 110
6, 152830, Note_on_c, 6, 77, 0
6, 152832, Note_on_c, 6, 83, 110
6, 152926, Note_on_c, 6, 83, 0
6, 152928, Note_on_c, 6, 79, 110
6, 152976, Note_on_c, 6, 79, 0
6, 152976, Note_on_c, 6, 75, 110
6, 153022, Note_on_c, 6, 75, 0
6, 153024, Note_on_c, 6, 76, 110
6, 153046, Note_on_c, 6, 76, 0
6, 153048, Note_on_c, 6, 75, 110
6, 153070, Note_on_c, 6, 75, 0
6, 153072, Note_on_c, 6, 76, 110
6, 153094, Note_on_c, 6, 76, 0
6, 153096, Note_on_c, 6, 75, 110
6, 153118, Note_on_c, 6, 75, 0
6, 153120, Note_on_c, 6, 76, 110
6, 153142, Note_on_c, 6, 76, 0
6, 153144, Note_on_c, 6, 75, 110
6, 153166, Note_on_c, 6, 75, 0
6, 153168, Note_on_c, 6, 73, 110
6, 153190, Note_on_c, 6, 73, 0
6, 153192, Note_on_c, 6, 75, 110
6, 153214, Note_on_c, 6, 75, 0
6, 153216, Note_on_c, 6, 81, 110
6, 153310, Note_on_c, 6, 81, 0
6, 153312, Note_on_c, 6, 78, 110
6, 153360, Note_on_c, 6, 78, 0
6, 153360, Note_on_c, 6, 73, 110
6, 153406, Note_on_c, 6, 73, 0
6, 153408, Note_on_c, 6, 74, 110
6, 153430, Note_on_c, 6, 74, 0
6, 153432, Note_on_c, 6, 73, 110
6, 153454, Note_on_c, 6, 73, 0
6, 153456, Note_on_c, 6, 74, 110
6, 153478, Note_on_c, 6, 74, 0
6, 153480, Note_on_c, 6, 73, 110
6, 153502, Note_on_c, 6, 73, 0
6, 153504, Note_on_c, 6, 74, 110
6, 153526, Note_on_c, 6, 74, 0
6, 153528, Note_on_c, 6, 73, 110
6, 153550, Note_on_c, 6, 73, 0
6, 153552, Note_on_c, 6, 71, 110
6, 153574, Note_on_c, 6, 71, 0
6, 153576, Note_on_c, 6, 73, 110
6, 153598, Note_on_c, 6, 73, 0
6, 153600, Note_on_c, 6, 73, 110
6, 153648, Note_on_c, 6, 73, 0
6, 153648, Note_on_c, 6, 74, 110
6, 153694, Note_on_c, 6, 74, 0
6, 153696, Note_on_c, 6, 76, 110
6, 153728, Note_on_c, 6, 76, 0
6, 153744, Note_on_c, 6, 78, 110
6, 153776, Note_on_c, 6, 78, 0
6, 153792, Note_on_c, 6, 79, 110
6, 153840, Note_on_c, 6, 79, 0
6, 153840, Note_on_c, 6, 76, 110
6, 153886, Note_on_c, 6, 76, 0
6, 153888, Note_on_c, 6, 74, 110
6, 153920, Note_on_c, 6, 74, 0
6, 153936, Note_on_c, 6, 73, 110
6, 153968, Note_on_c, 6, 73, 0
6, 153984, Note_on_c, 6, 74, 110
6, 154032, Note_on_c, 6, 74, 0
6, 154032, Note_on_c, 6, 76, 110
6, 154078, Note_on_c, 6, 76, 0
6, 154080, Note_on_c, 6, 78, 110
6, 154112, Note_on_c, 6, 78, 0
6, 154128, Note_on_c, 6, 79, 110
6, 154160, Note_on_c, 6, 79, 0
6, 154176, Note_on_c, 6, 81, 110
6, 154224, Note_on_c, 6, 81, 0
6, 154224, Note_on_c, 6, 78, 110
6, 154270, Note_on_c, 6, 78, 0
6, 154272, Note_on_c, 6, 76, 110
6, 154304, Note_on_c, 6, 76, 0
6, 154320, Note_on_c, 6, 74, 110
6, 154352, Note_on_c, 6, 74, 0
6, 154368, Note_on_c, 6, 73, 110
6, 154416, Note_on_c, 6, 73, 0
6, 154416, Note_on_c, 6, 74, 110
6, 154462, Note_on_c, 6, 74, 0
6, 154464, Note_on_c, 6, 76, 110
6, 154496, Note_on_c, 6, 76, 0
6, 154512, Note_on_c, 6, 78, 110
6, 154544, Note_on_c, 6, 78, 0
6, 154560, Note_on_c, 6, 79, 110
6, 154608, Note_on_c, 6, 79, 0
6, 154608, Note_on_c, 6, 76, 110
6, 154654, Note_on_c, 6, 76, 0
6, 154656, Note_on_c, 6, 74, 110
6, 154688, Note_on_c, 6, 74, 0
6, 154704, Note_on_c, 6, 73, 110
6, 154736, Note_on_c, 6, 73, 0
6, 154752, Note_on_c, 6, 74, 110
6, 154800, Note_on_c, 6, 74, 0
6, 154800, Note_on_c, 6, 76, 110
6, 154846, Note_on_c, 6, 76, 0
6, 154848, Note_on_c, 6, 78, 110
6, 154880, Note_on_c, 6, 78, 0
6, 154896, Note_on_c, 6, 79, 110
6, 154928, Note_on_c, 6, 79, 0
6, 154944, Note_on_c, 6, 81, 110
6, 155038, Note_on_c, 6, 81, 0
6, 155136, Note_on_c, 6, 75, 110
6, 155184, Note_on_c, 6, 75, 0
6, 155184, Note_on_c, 6, 76, 110
6, 155230, Note_on_c, 6, 76, 0
6, 155232, Note_on_c, 6, 78, 110
6, 155264, Note_on_c, 6, 78, 0
6, 155280, Note_on_c, 6, 79, 110
6, 155312, Note_on_c, 6, 79, 0
6, 155328, Note_on_c, 6, 81, 110
6, 155376, Note_on_c, 6, 81, 0
6, 155376, Note_on_c, 6, 78, 110
6, 155422, Note_on_c, 6, 78, 0
6, 155424, Note_on_c, 6, 76, 110
6, 155456, Note_on_c, 6, 76, 0
6, 155472, Note_on_c, 6, 75, 110
6, 155504, Note_on_c, 6, 75, 0
6, 155520, Note_on_c, 6, 76, 110
6, 155568, Note_on_c, 6, 76, 0
6, 155568, Note_on_c, 6, 78, 110
6, 155614, Note_on_c, 6, 78, 0
6, 155616, Note_on_c, 6, 79, 110
6, 155648, Note_on_c, 6, 79, 0
6, 155664, Note_on_c, 6, 81, 110
6, 155696, Note_on_c, 6, 81, 0
6, 155712, Note_on_c, 6, 83, 110
6, 155760, Note_on_c, 6, 83, 0
6, 155760, Note_on_c, 6, 79, 110
6, 155806, Note_on_c, 6, 79, 0
6, 155808, Note_on_c, 6, 78, 110
6, 155840, Note_on_c, 6, 78, 0
6, 155856, Note_on_c, 6, 76, 110
6, 155888, Note_on_c, 6, 76, 0
6, 155904, Note_on_c, 6, 75, 110
6, 155952, Note_on_c, 6, 75, 0
6, 155952, Note_on_c, 6, 76, 110
6, 155998, Note_on_c, 6, 76, 0
6, 156000, Note_on_c, 6, 78, 110
6, 156032, Note_on_c, 6, 78, 0
6, 156048, Note_on_c, 6, 79, 110
6, 156080, Note_on_c, 6, 79, 0
6, 156096, Note_on_c, 6, 81, 110
6, 156144, Note_on_c, 6, 81, 0
6, 156144, Note_on_c, 6, 78, 110
6, 156190, Note_on_c, 6, 78, 0
6, 156192, Note_on_c, 6, 76, 110
6, 156224, Note_on_c, 6, 76, 0
6, 156240, Note_on_c, 6, 75, 110
6, 156272, Note_on_c, 6, 75, 0
6, 156288, Note_on_c, 6, 76, 110
6, 156336, Note_on_c, 6, 76, 0
6, 156336, Note_on_c, 6, 78, 110
6, 156382, Note_on_c, 6, 78, 0
6, 156384, Note_on_c, 6, 79, 110
6, 156416, Note_on_c, 6, 79, 0
6, 156432, Note_on_c, 6, 81, 110
6, 156464, Note_on_c, 6, 81, 0
6, 156480, Note_on_c, 6, 83, 110
6, 156574, Note_on_c, 6, 83, 0
6, 156672, Note_on_c, 6, 81, 110
6, 156720, Note_on_c, 6, 81, 0
6, 156720, Note_on_c, 6, 80, 110
6, 156766, Note_on_c, 6, 80, 0
6, 156768, Note_on_c, 6, 81, 110
6, 156800, Note_on_c, 6, 81, 0
6, 156816, Note_on_c, 6, 83, 110
6, 156848, Note_on_c, 6, 83, 0
6, 156864, Note_on_c, 6, 85, 110
6, 156912, Note_on_c, 6, 85, 0
6, 156912, Note_on_c, 6, 83, 110
6, 156958, Note_on_c, 6, 83, 0
6, 156960, Note_on_c, 6, 81, 110
6, 156992, Note_on_c, 6, 81, 0
6, 157008, Note_on_c, 6, 80, 110
6, 157040, Note_on_c, 6, 80, 0
6, 157056, Note_on_c, 6, 81, 110
6, 157104, Note_on_c, 6, 81, 0
6, 157104, Note_on_c, 6, 80, 110
6, 157150, Note_on_c, 6, 80, 0
6, 157152, Note_on_c, 6, 81, 110
6, 157184, Note_on_c, 6, 81, 0
6, 157200, Note_on_c, 6, 83, 110
6, 157232, Note_on_c, 6, 83, 0
6, 157248, Note_on_c, 6, 85, 110
6, 157296, Note_on_c, 6, 85, 0
6, 157296, Note_on_c, 6, 83, 110
6, 157342, Note_on_c, 6, 83, 0
6, 157344, Note_on_c, 6, 81, 110
6, 157376, Note_on_c, 6, 81, 0
6, 157392, Note_on_c, 6, 80, 110
6, 157424, Note_on_c, 6, 80, 0
6, 157440, Note_on_c, 6, 83, 110
6, 157488, Note_on_c, 6, 83, 0
6, 157488, Note_on_c, 6, 81, 110
6, 157536, Note_on_c, 6, 81, 0
6, 157536, Note_on_c, 6, 83, 110
6, 157584, Note_on_c, 6, 83, 0
6, 157584, Note_on_c, 6, 81, 110
6, 157632, Note_on_c, 6, 81, 0
6, 157632, Note_on_c, 6, 81, 110
6, 157726, Note_on_c, 6, 81, 0
6, 157728, Note_on_c, 6, 81, 110
6, 157760, Note_on_c, 6, 81, 0
6, 157776, Note_on_c, 6, 83, 110
6, 157808, Note_on_c, 6, 83, 0
6, 157824, Note_on_c, 6, 85, 110
6, 157856, Note_on_c, 6, 85, 0
6, 157872, Note_on_c, 6, 86, 110
6, 157904, Note_on_c, 6, 86, 0
6, 157920, Note_on_c, 6, 88, 110
6, 157952, Note_on_c, 6, 88, 0
6, 157968, Note_on_c, 6, 90, 110
6, 158000, Note_on_c, 6, 90, 0
6, 158016, Note_on_c, 6, 91, 110
6, 158304, Note_on_c, 6, 91, 0
6, 158304, Note_on_c, 6, 90, 110
6, 158352, Note_on_c, 6, 90, 0
6, 158352, Note_on_c, 6, 88, 110
6, 158400, Note_on_c, 6, 88, 0
6, 158400, Note_on_c, 6, 86, 110
6, 158424, Note_on_c, 6, 86, 0
6, 158424, Note_on_c, 6, 85, 110
6, 158448, Note_on_c, 6, 85, 0
6, 158448, Note_on_c, 6, 83, 110
6, 158472, Note_on_c, 6, 83, 0
6, 158472, Note_on_c, 6, 81, 110
6, 158496, Note_on_c, 6, 81, 0
6, 158496, Note_on_c, 6, 79, 110
6, 158520, Note_on_c, 6, 79, 0
6, 158520, Note_on_c, 6, 78, 110
6, 158544, Note_on_c, 6, 78, 0
6, 158544, Note_on_c, 6, 76, 110
6, 158568, Note_on_c, 6, 76, 0
6, 158568, Note_on_c, 6, 74, 110
6, 158592, Note_on_c, 6, 74, 0
6, 158592, Note_on_c, 6, 73, 110
6, 158616, Note_on_c, 6, 73, 0
6, 158616, Note_on_c, 6, 71, 110
6, 158640, Note_on_c, 6, 71, 0
6, 158640, Note_on_c, 6, 69, 110
6, 158664, Note_on_c, 6, 69, 0
6, 158664, Note_on_c, 6, 67, 110
6, 158688, Note_on_c, 6, 67, 0
6, 158688, Note_on_c, 6, 66, 110
6, 158712, Note_on_c, 6, 66, 0
6, 158712, Note_on_c, 6, 64, 110
6, 158736, Note_on_c, 6, 64, 0
6, 158736, Note_on_c, 6, 62, 110
6, 158760, Note_on_c, 6, 62, 0
6, 158760, Note_on_c, 6, 61, 110
6, 158944, Note_on_c, 6, 61, 0
6, 158976, Note_on_c, 6, 73, 110
6, 159024, Note_on_c, 6, 73, 0
6, 159024, Note_on_c, 6, 74, 110
6, 159072, Note_on_c, 6, 74, 0
6, 159072, Note_on_c, 6, 75, 110
6, 159118, Note_on_c, 6, 75, 0
6, 159120, Note_on_c, 6, 76, 110
6, 159152, Note_on_c, 6, 76, 0
6, 159168, Note_on_c, 6, 78, 110
6, 159216, Note_on_c, 6, 78, 0
6, 159216, Note_on_c, 6, 76, 110
6, 159264, Note_on_c, 6, 76, 0
6, 159264, Note_on_c, 6, 73, 110
6, 159310, Note_on_c, 6, 73, 0
6, 159312, Note_on_c, 6, 69, 110
6, 159344, Note_on_c, 6, 69, 0
6, 159360, Note_on_c, 6, 67, 110
6, 159408, Note_on_c, 6, 67, 0
6, 159408, Note_on_c, 6, 68, 110
6, 159456, Note_on_c, 6, 68, 0
6, 159456, Note_on_c, 6, 69, 110
6, 159502, Note_on_c, 6, 69, 0
6, 159504, Note_on_c, 6, 70, 110
6, 159536, Note_on_c, 6, 70, 0
6, 159552, Note_on_c, 6, 73, 110
6, 159600, Note_on_c, 6, 73, 0
6, 159600, Note_on_c, 6, 71, 110
6, 159648, Note_on_c, 6, 71, 0
6, 159648, Note_on_c, 6, 67, 110
6, 159680, Note_on_c, 6, 67, 0
6, 159696, Note_on_c, 6, 64, 110
6, 159728, Note_on_c, 6, 64, 0
6, 159744, Note_on_c, 6, 79, 110
6, 159792, Note_on_c, 6, 79, 0
6, 159792, Note_on_c, 6, 80, 110
6, 159840, Note_on_c, 6, 80, 0
6, 159840, Note_on_c, 6, 81, 110
6, 159886, Note_on_c, 6, 81, 0
6, 159888, Note_on_c, 6, 82, 110
6, 159920, Note_on_c, 6, 82, 0
6, 159936, Note_on_c, 6, 85, 110
6, 159984, Note_on_c, 6, 85, 0
6, 159984, Note_on_c, 6, 83, 110
6, 160032, Note_on_c, 6, 83, 0
6, 160032, Note_on_c, 6, 79, 110
6, 160078, Note_on_c, 6, 79, 0
6, 160080, Note_on_c, 6, 76, 110
6, 160112, Note_on_c, 6, 76, 0
6, 160128, Note_on_c, 6, 73, 110
6, 160176, Note_on_c, 6, 73, 0
6, 160176, Note_on_c, 6, 74, 110
6, 160224, Note_on_c, 6, 74, 0
6, 160224, Note_on_c, 6, 75, 110
6, 160270, Note_on_c, 6, 75, 0
6, 160272, Note_on_c, 6, 76, 110
6, 160304, Note_on_c, 6, 76, 0
6, 160320, Note_on_c, 6, 78, 110
6, 160368, Note_on_c, 6, 78, 0
6, 160368, Note_on_c, 6, 76, 110
6, 160416, Note_on_c, 6, 76, 0
6, 160416, Note_on_c, 6, 73, 110
6, 160462, Note_on_c, 6, 73, 0
6, 160464, Note_on_c, 6, 69, 110
6, 160496, Note_on_c, 6, 69, 0
6, 160512, Note_on_c, 6, 85, 110
6, 160560, Note_on_c, 6, 85, 0
6, 160560, Note_on_c, 6, 86, 110
6, 160608, Note_on_c, 6, 86, 0
6, 160608, Note_on_c, 6, 87, 110
6, 160654, Note_on_c, 6, 87, 0
6, 160656, Note_on_c, 6, 88, 110
6, 160688, Note_on_c, 6, 88, 0
6, 160704, Note_on_c, 6, 90, 110
6, 160752, Note_on_c, 6, 90, 0
6, 160752, Note_on_c, 6, 88, 110
6, 160800, Note_on_c, 6, 88, 0
6, 160800, Note_on_c, 6, 85, 110
6, 160846, Note_on_c, 6, 85, 0
6, 160848, Note_on_c, 6, 81, 110
6, 160880, Note_on_c, 6, 81, 0
6, 160896, Note_on_c, 6, 79, 110
6, 160944, Note_on_c, 6, 79, 0
6, 160944, Note_on_c, 6, 80, 110
6, 160992, Note_on_c, 6, 80, 0
6, 160992, Note_on_c, 6, 81, 110
6, 161038, Note_on_c, 6, 81, 0
6, 161040, Note_on_c, 6, 82, 110
6, 161072, Note_on_c, 6, 82, 0
6, 161088, Note_on_c, 6, 85, 110
6, 161136, Note_on_c, 6, 85, 0
6, 161136, Note_on_c, 6, 83, 110
6, 161184, Note_on_c, 6, 83, 0
6, 161184, Note_on_c, 6, 79, 110
6, 161216, Note_on_c, 6, 79, 0
6, 161232, Note_on_c, 6, 76, 110
6, 161264, Note_on_c, 6, 76, 0
6, 161280, Note_on_c, 6, 73, 110
6, 161328, Note_on_c, 6, 73, 0
6, 161328, Note_on_c, 6, 74, 110
6, 161376, Note_on_c, 6, 74, 0
6, 161376, Note_on_c, 6, 75, 110
6, 161422, Note_on_c, 6, 75, 0
6, 161424, Note_on_c, 6, 76, 110
6, 161456, Note_on_c, 6, 76, 0
6, 161472, Note_on_c, 6, 78, 110
6, 161520, Note_on_c, 6, 78, 0
6, 161520, Note_on_c, 6, 76, 110
6, 161568, Note_on_c, 6, 76, 0
6, 161568, Note_on_c, 6, 73, 110
6, 161614, Note_on_c, 6, 73, 0
6, 161616, Note_on_c, 6, 69, 110
6, 161648, Note_on_c, 6, 69, 0
6, 161664, Note_on_c, 6, 67, 110
6, 161712, Note_on_c, 6, 67, 0
6, 161712, Note_on_c, 6, 68, 110
6, 161760, Note_on_c, 6, 68, 0
6, 161760, Note_on_c, 6, 69, 110
6, 161806, Note_on_c, 6, 69, 0
6, 161808, Note_on_c, 6, 70, 110
6, 161840, Note_on_c, 6, 70, 0
6, 161856, Note_on_c, 6, 73, 110
6, 161904, Note_on_c, 6, 73, 0
6, 161904, Note_on_c, 6, 71, 110
6, 161952, Note_on_c, 6, 71, 0
6, 161952, Note_on_c, 6, 67, 110
6, 161998, Note_on_c, 6, 67, 0
6, 162000, Note_on_c, 6, 64, 110
6, 162032, Note_on_c, 6, 64, 0
6, 162048, Note_on_c, 6, 61, 110
6, 162240, Note_on_c, 6, 61, 0
6, 162240, Note_on_c, 6, 62, 110
6, 162264, Note_on_c, 6, 62, 0
6, 162264, Note_on_c, 6, 64, 110
6, 162288, Note_on_c, 6, 64, 0
6, 162288, Note_on_c, 6, 66, 110
6, 162312, Note_on_c, 6, 66, 0
6, 162312, Note_on_c, 6, 67, 110
6, 162336, Note_on_c, 6, 67, 0
6, 162336, Note_on_c, 6, 69, 110
6, 162360, Note_on_c, 6, 69, 0
6, 162360, Note_on_c, 6, 71, 110
6, 162384, Note_on_c, 6, 71, 0
6, 162384, Note_on_c, 6, 73, 110
6, 162408, Note_on_c, 6, 73, 0
6, 162408, Note_on_c, 6, 74, 110
6, 162432, Note_on_c, 6, 74, 0
6, 162432, Note_on_c, 6, 76, 110
6, 162456, Note_on_c, 6, 76, 0
6, 162456, Note_on_c, 6, 78, 110
6, 162480, Note_on_c, 6, 78, 0
6, 162480, Note_on_c, 6, 79, 110
6, 162504, Note_on_c, 6, 79, 0
6, 162504, Note_on_c, 6, 81, 110
6, 162528, Note_on_c, 6, 81, 0
6, 162528, Note_on_c, 6, 82, 110
6, 162622, Note_on_c, 6, 82, 0
6, 162816, Note_on_c, 6, 61, 110
6, 163008, Note_on_c, 6, 61, 0
6, 163008, Note_on_c, 6, 62, 110
6, 163032, Note_on_c, 6, 62, 0
6, 163032, Note_on_c, 6, 64, 110
6, 163056, Note_on_c, 6, 64, 0
6, 163056, Note_on_c, 6, 66, 110
6, 163080, Note_on_c, 6, 66, 0
6, 163080, Note_on_c, 6, 67, 110
6, 163104, Note_on_c, 6, 67, 0
6, 163104, Note_on_c, 6, 69, 110
6, 163128, Note_on_c, 6, 69, 0
6, 163128, Note_on_c, 6, 71, 110
6, 163152, Note_on_c, 6, 71, 0
6, 163152, Note_on_c, 6, 73, 110
6, 163176, Note_on_c, 6, 73, 0
6, 163176, Note_on_c, 6, 74, 110
6, 163200, Note_on_c, 6, 74, 0
6, 163200, Note_on_c, 6, 76, 110
6, 163224, Note_on_c, 6, 76, 0
6, 163224, Note_on_c, 6, 78, 110
6, 163248, Note_on_c, 6, 78, 0
6, 163248, Note_on_c, 6, 79, 110
6, 163272, Note_on_c, 6, 79, 0
6, 163272, Note_on_c, 6, 81, 110
6, 163296, Note_on_c, 6, 81, 0
6, 163296, Note_on_c, 6, 83, 110
6, 163390, Note_on_c, 6, 83, 0
6, 163488, Note_on_c, 6, 82, 110
6, 163582, Note_on_c, 6, 82, 0
6, 163584, Note_on_c, 6, 85, 110
6, 163632, Note_on_c, 6, 85, 0
6, 163632, Note_on_c, 6, 83, 110
6, 163678, Note_on_c, 6, 83, 0
6, 163680, Note_on_c, 6, 81, 110
6, 163712, Note_on_c, 6, 81, 0
6, 163728, Note_on_c, 6, 83, 110
6, 163760, Note_on_c, 6, 83, 0
6, 163776, Note_on_c, 6, 81, 110
6, 163824, Note_on_c, 6, 81, 0
6, 163824, Note_on_c, 6, 79, 110
6, 163870, Note_on_c, 6, 79, 0
6, 163872, Note_on_c, 6, 78, 110
6, 163904, Note_on_c, 6, 78, 0
6, 163920, Note_on_c, 6, 79, 110
6, 163952, Note_on_c, 6, 79, 0
6, 163968, Note_on_c, 6, 78, 110
6, 164016, Note_on_c, 6, 78, 0
6, 164016, Note_on_c, 6, 76, 110
6, 164062, Note_on_c, 6, 76, 0
6, 164064, Note_on_c, 6, 79, 110
6, 164096, Note_on_c, 6, 79, 0
6, 164112, Note_on_c, 6, 78, 110
6, 164144, Note_on_c, 6, 78, 0
6, 164160, Note_on_c, 6, 81, 110
6, 164208, Note_on_c, 6, 81, 0
6, 164208, Note_on_c, 6, 79, 110
6, 164254, Note_on_c, 6, 79, 0
6, 164256, Note_on_c, 6, 78, 110
6, 164288, Note_on_c, 6, 78, 0
6, 164304, Note_on_c, 6, 76, 110
6, 164336, Note_on_c, 6, 76, 0
6, 164352, Note_on_c, 6, 81, 110
6, 164400, Note_on_c, 6, 81, 0
6, 164400, Note_on_c, 6, 80, 110
6, 164446, Note_on_c, 6, 80, 0
6, 164448, Note_on_c, 6, 83, 110
6, 164480, Note_on_c, 6, 83, 0
6, 164496, Note_on_c, 6, 81, 110
6, 164528, Note_on_c, 6, 81, 0
6, 164544, Note_on_c, 6, 79, 110
6, 164592, Note_on_c, 6, 79, 0
6, 164592, Note_on_c, 6, 78, 110
6, 164638, Note_on_c, 6, 78, 0
6, 164640, Note_on_c, 6, 76, 110
6, 164672, Note_on_c, 6, 76, 0
6, 164688, Note_on_c, 6, 74, 110
6, 164720, Note_on_c, 6, 74, 0
6, 164736, Note_on_c, 6, 73, 110
6, 164784, Note_on_c, 6, 73, 0
6, 164784, Note_on_c, 6, 74, 110
6, 164830, Note_on_c, 6, 74, 0
6, 164832, Note_on_c, 6, 76, 110
6, 164864, Note_on_c, 6, 76, 0
6, 164880, Note_on_c, 6, 74, 110
6, 164912, Note_on_c, 6, 74, 0
6, 164928, Note_on_c, 6, 78, 110
6, 164976, Note_on_c, 6, 78, 0
6, 164976, Note_on_c, 6, 76, 110
6, 165022, Note_on_c, 6, 76, 0
6, 165024, Note_on_c, 6, 79, 110
6, 165056, Note_on_c, 6, 79, 0
6, 165072, Note_on_c, 6, 78, 110
6, 165104, Note_on_c, 6, 78, 0
6, 165120, Note_on_c, 6, 78, 110
6, 165130, Note_on_c, 6, 78, 0
6, 165132, Note_on_c, 6, 76, 110
6, 165142, Note_on_c, 6, 76, 0
6, 165144, Note_on_c, 6, 78, 110
6, 165154, Note_on_c, 6, 78, 0
6, 165156, Note_on_c, 6, 76, 110
6, 165166, Note_on_c, 6, 76, 0
6, 165168, Note_on_c, 6, 78, 110
6, 165178, Note_on_c, 6, 78, 0
6, 165180, Note_on_c, 6, 76, 110
6, 165190, Note_on_c, 6, 76, 0
6, 165192, Note_on_c, 6, 78, 110
6, 165202, Note_on_c, 6, 78, 0
6, 165204, Note_on_c, 6, 76, 110
6, 165214, Note_on_c, 6, 76, 0
6, 165216, Note_on_c, 6, 78, 110
6, 165226, Note_on_c, 6, 78, 0
6, 165228, Note_on_c, 6, 76, 110
6, 165238, Note_on_c, 6, 76, 0
6, 165240, Note_on_c, 6, 78, 110
6, 165250, Note_on_c, 6, 78, 0
6, 165252, Note_on_c, 6, 76, 110
6, 165262, Note_on_c, 6, 76, 0
6, 165264, Note_on_c, 6, 78, 110
6, 165274, Note_on_c, 6, 78, 0
6, 165276, Note_on_c, 6, 76, 110
6, 165286, Note_on_c, 6, 76, 0
6, 165288, Note_on_c, 6, 78, 110
6, 165298, Note_on_c, 6, 78, 0
6, 165300, Note_on_c, 6, 76, 110
6, 165310, Note_on_c, 6, 76, 0
6, 165312, Note_on_c, 6, 78, 110
6, 165322, Note_on_c, 6, 78, 0
6, 165324, Note_on_c, 6, 76, 110
6, 165334, Note_on_c, 6, 76, 0
6, 165336, Note_on_c, 6, 78, 110
6, 165346, Note_on_c, 6, 78, 0
6, 165348, Note_on_c, 6, 76, 110
6, 165358, Note_on_c, 6, 76, 0
6, 165360, Note_on_c, 6, 78, 110
6, 165370, Note_on_c, 6, 78, 0
6, 165372, Note_on_c, 6, 76, 110
6, 165382, Note_on_c, 6, 76, 0
6, 165384, Note_on_c, 6, 78, 110
6, 165394, Note_on_c, 6, 78, 0
6, 165396, Note_on_c, 6, 76, 110
6, 165406, Note_on_c, 6, 76, 0
6, 165408, Note_on_c, 6, 78, 110
6, 165418, Note_on_c, 6, 78, 0
6, 165420, Note_on_c, 6, 76, 110
6, 165430, Note_on_c, 6, 76, 0
6, 165432, Note_on_c, 6, 78, 110
6, 165442, Note_on_c, 6, 78, 0
6, 165444, Note_on_c, 6, 76, 110
6, 165454, Note_on_c, 6, 76, 0
6, 165456, Note_on_c, 6, 75, 110
6, 165480, Note_on_c, 6, 75, 0
6, 165480, Note_on_c, 6, 76, 110
6, 165502, Note_on_c, 6, 76, 0
6, 165504, Note_on_c, 6, 90, 110
6, 165514, Note_on_c, 6, 90, 0
6, 165516, Note_on_c, 6, 88, 110
6, 165526, Note_on_c, 6, 88, 0
6, 165528, Note_on_c, 6, 90, 110
6, 165538, Note_on_c, 6, 90, 0
6, 165540, Note_on_c, 6, 88, 110
6, 165550, Note_on_c, 6, 88, 0
6, 165552, Note_on_c, 6, 90, 110
6, 165562, Note_on_c, 6, 90, 0
6, 165564, Note_on_c, 6, 88, 110
6, 165574, Note_on_c, 6, 88, 0
6, 165576, Note_on_c, 6, 90, 110
6, 165586, Note_on_c, 6, 90, 0
6, 165588, Note_on_c, 6, 88, 110
6, 165598, Note_on_c, 6, 88, 0
6, 165600, Note_on_c, 6, 90, 110
6, 165610, Note_on_c, 6, 90, 0
6, 165612, Note_on_c, 6, 88, 110
6, 165622, Note_on_c, 6, 88, 0
6, 165624, Note_on_c, 6, 90, 110
6, 165634, Note_on_c, 6, 90, 0
6, 165636, Note_on_c, 6, 88, 110
6, 165646, Note_on_c, 6, 88, 0
6, 165648, Note_on_c, 6, 90, 110
6, 165658, Note_on_c, 6, 90, 0
6, 165660, Note_on_c, 6, 88, 110
6, 165670, Note_on_c, 6, 88, 0
6, 165672, Note_on_c, 6, 90, 110
6, 165682, Note_on_c, 6, 90, 0
6, 165684, Note_on_c, 6, 88, 110
6, 165694, Note_on_c, 6, 88, 0
6, 165696, Note_on_c, 6, 90, 110
6, 165706, Note_on_c, 6, 90, 0
6, 165708, Note_on_c, 6, 88, 110
6, 165718, Note_on_c, 6, 88, 0
6, 165720, Note_on_c, 6, 90, 110
6, 165730, Note_on_c, 6, 90, 0
6, 165732, Note_on_c, 6, 88, 110
6, 165742, Note_on_c, 6, 88, 0
6, 165744, Note_on_c, 6, 90, 110
6, 165754, Note_on_c, 6, 90, 0
6, 165756, Note_on_c, 6, 88, 110
6, 165766, Note_on_c, 6, 88, 0
6, 165768, Note_on_c, 6, 90, 110
6, 165778, Note_on_c, 6, 90, 0
6, 165780, Note_on_c, 6, 88, 110
6, 165790, Note_on_c, 6, 88, 0
6, 165792, Note_on_c, 6, 86, 110
6, 165840, Note_on_c, 6, 86, 0
6, 165840, Note_on_c, 6, 88, 110
6, 165886, Note_on_c, 6, 88, 0
6, 165888, Note_on_c, 6, 86, 110
6, 166048, Note_on_c, 6, 86, 0
6, 166048, End_track
7, 0, Start_track
7, 0, MIDI_port, 0
7, 0, Title_t, "Violino I"
7, 0, Program_c, 7, 48
7, 0, Control_c, 7, 7, 127
7, 0, Control_c, 7, 10, 64
7, 0, Note_on_c, 7, 57, 92
7, 0, Note_on_c, 7, 66, 92
7, 0, Note_on_c, 7, 74, 92
7, 160, Note_on_c, 7, 57, 0
7, 160, Note_on_c, 7, 66, 0
7, 160, Note_on_c, 7, 74, 0
7, 192, Note_on_c, 7, 74, 92
7, 528, Note_on_c, 7, 74, 0
7, 576, Note_on_c, 7, 73, 92
7, 624, Note_on_c, 7, 73, 0
7, 624, Note_on_c, 7, 74, 92
7, 670, Note_on_c, 7, 74, 0
7, 672, Note_on_c, 7, 73, 92
7, 720, Note_on_c, 7, 73, 0
7, 720, Note_on_c, 7, 74, 92
7, 766, Note_on_c, 7, 74, 0
7, 768, Note_on_c, 7, 79, 92
7, 928, Note_on_c, 7, 79, 0
7, 960, Note_on_c, 7, 79, 92
7, 1296, Note_on_c, 7, 79, 0
7, 1344, Note_on_c, 7, 79, 92
7, 1504, Note_on_c, 7, 79, 0
7, 1536, Note_on_c, 7, 77, 92
7, 1632, Note_on_c, 7, 77, 0
7, 1632, Note_on_c, 7, 78, 92
7, 1726, Note_on_c, 7, 78, 0
7, 1728, Note_on_c, 7, 78, 92
7, 2064, Note_on_c, 7, 78, 0
7, 2112, Note_on_c, 7, 79, 92
7, 2160, Note_on_c, 7, 79, 0
7, 2160, Note_on_c, 7, 78, 92
7, 2206, Note_on_c, 7, 78, 0
7, 2208, Note_on_c, 7, 79, 92
7, 2256, Note_on_c, 7, 79, 0
7, 2256, Note_on_c, 7, 78, 92
7, 2302, Note_on_c, 7, 78, 0
7, 2304, Note_on_c, 7, 83, 92
7, 2464, Note_on_c, 7, 83, 0
7, 2496, Note_on_c, 7, 83, 92
7, 2832, Note_on_c, 7, 83, 0
7, 2880, Note_on_c, 7, 83, 92
7, 3040, Note_on_c, 7, 83, 0
7, 3072, Note_on_c, 7, 80, 92
7, 3168, Note_on_c, 7, 80, 0
7, 3168, Note_on_c, 7, 81, 92
7, 3262, Note_on_c, 7, 81, 0
7, 3264, Note_on_c, 7, 81, 92
7, 3424, Note_on_c, 7, 81, 0
7, 3552, Note_on_c, 7, 81, 45
7, 3584, Note_on_c, 7, 81, 0
7, 3648, Note_on_c, 7, 83, 45
7, 3680, Note_on_c, 7, 83, 0
7, 3744, Note_on_c, 7, 85, 45
7, 3776, Note_on_c, 7, 85, 0
7, 3840, Note_on_c, 7, 86, 45
7, 4224, Note_on_c, 7, 86, 0
7, 4224, Note_on_c, 7, 81, 45
7, 4384, Note_on_c, 7, 81, 0
7, 4416, Note_on_c, 7, 78, 45
7, 4576, Note_on_c, 7, 78, 0
7, 4608, Note_on_c, 7, 78, 45
7, 4704, Note_on_c, 7, 78, 0
7, 4704, Note_on_c, 7, 79, 45
7, 4800, Note_on_c, 7, 79, 0
7, 4800, Note_on_c, 7, 75, 45
7, 4896, Note_on_c, 7, 75, 0
7, 4896, Note_on_c, 7, 76, 45
7, 4990, Note_on_c, 7, 76, 0
7, 4992, Note_on_c, 7, 76, 45
7, 5280, Note_on_c, 7, 76, 0
7, 5280, Note_on_c, 7, 83, 92
7, 5374, Note_on_c, 7, 83, 0
7, 5376, Note_on_c, 7, 83, 92
7, 5398, Note_on_c, 7, 83, 0
7, 5400, Note_on_c, 7, 81, 92
7, 5728, Note_on_c, 7, 81, 0
7, 5760, Note_on_c, 7, 83, 92
7, 5782, Note_on_c, 7, 83, 0
7, 5784, Note_on_c, 7, 81, 92
7, 6112, Note_on_c, 7, 81, 0
7, 6144, Note_on_c, 7, 83, 92
7, 6166, Note_on_c, 7, 83, 0
7, 6168, Note_on_c, 7, 81, 92
7, 6334, Note_on_c, 7, 81, 0
7, 6336, Note_on_c, 7, 81, 92
7, 6574, Note_on_c, 7, 81, 0
7, 6576, Note_on_c, 7, 83, 92
7, 6622, Note_on_c, 7, 83, 0
7, 6624, Note_on_c, 7, 81, 92
7, 6670, Note_on_c, 7, 81, 0
7, 6672, Note_on_c, 7, 83, 92
7, 6718, Note_on_c, 7, 83, 0
7, 6720, Note_on_c, 7, 81, 92
7, 6768, Note_on_c, 7, 81, 0
7, 6768, Note_on_c, 7, 79, 92
7, 6814, Note_on_c, 7, 79, 0
7, 6816, Note_on_c, 7, 78, 92
7, 6848, Note_on_c, 7, 78, 0
7, 6864, Note_on_c, 7, 76, 92
7, 6896, Note_on_c, 7, 76, 0
7, 6912, Note_on_c, 7, 74, 92
7, 6982, Note_on_c, 7, 74, 0
7, 6984, Note_on_c, 7, 76, 92
7, 7006, Note_on_c, 7, 76, 0
7, 7008, Note_on_c, 7, 74, 92
7, 7054, Note_on_c, 7, 74, 0
7, 7056, Note_on_c, 7, 73, 92
7, 7102, Note_on_c, 7, 73, 0
7, 7104, Note_on_c, 7, 74, 92
7, 7198, Note_on_c, 7, 74, 0
7, 7200, Note_on_c, 7, 76, 92
7, 7294, Note_on_c, 7, 76, 0
7, 7296, Note_on_c, 7, 78, 92
7, 7366, Note_on_c, 7, 78, 0
7, 7368, Note_on_c, 7, 79, 92
7, 7390, Note_on_c, 7, 79, 0
7, 7392, Note_on_c, 7, 78, 92
7, 7438, Note_on_c, 7, 78, 0
7, 7440, Note_on_c, 7, 76, 92
7, 7486, Note_on_c, 7, 76, 0
7, 7488, Note_on_c, 7, 78, 92
7, 7582, Note_on_c, 7, 78, 0
7, 7584, Note_on_c, 7, 80, 92
7, 7678, Note_on_c, 7, 80, 0
7, 7680, Note_on_c, 7, 81, 92
7, 7840, Note_on_c, 7, 81, 0
7, 7872, Note_on_c, 7, 76, 92
7, 7872, Note_on_c, 7, 85, 92
7, 8032, Note_on_c, 7, 76, 0
7, 8032, Note_on_c, 7, 85, 0
7, 8064, Note_on_c, 7, 73, 92
7, 8064, Note_on_c, 7, 81, 92
7, 8224, Note_on_c, 7, 73, 0
7, 8224, Note_on_c, 7, 81, 0
7, 8448, Note_on_c, 7, 81, 45
7, 8784, Note_on_c, 7, 81, 0
7, 8832, Note_on_c, 7, 83, 45
7, 8880, Note_on_c, 7, 83, 0
7, 8880, Note_on_c, 7, 81, 45
7, 9184, Note_on_c, 7, 81, 0
7, 9216, Note_on_c, 7, 83, 45
7, 9264, Note_on_c, 7, 83, 0
7, 9264, Note_on_c, 7, 81, 45
7, 9406, Note_on_c, 7, 81, 0
7, 9984, Note_on_c, 7, 86, 45
7, 10080, Note_on_c, 7, 86, 0
7, 10080, Note_on_c, 7, 83, 45
7, 10174, Note_on_c, 7, 83, 0
7, 10176, Note_on_c, 7, 79, 45
7, 10432, Note_on_c, 7, 79, 0
7, 10464, Note_on_c, 7, 81, 45
7, 10512, Note_on_c, 7, 81, 0
7, 10512, Note_on_c, 7, 79, 45
7, 10558, Note_on_c, 7, 79, 0
7, 10560, Note_on_c, 7, 78, 45
7, 10592, Note_on_c, 7, 78, 0
7, 10656, Note_on_c, 7, 79, 45
7, 10688, Note_on_c, 7, 79, 0
7, 10752, Note_on_c, 7, 81, 45
7, 10848, Note_on_c, 7, 81, 0
7, 10848, Note_on_c, 7, 78, 45
7, 10942, Note_on_c, 7, 78, 0
7, 10944, Note_on_c, 7, 74, 45
7, 11104, Note_on_c, 7, 74, 0
7, 11520, Note_on_c, 7, 86, 45
7, 11616, Note_on_c, 7, 86, 0
7, 11616, Note_on_c, 7, 83, 45
7, 11710, Note_on_c, 7, 83, 0
7, 11712, Note_on_c, 7, 79, 45
7, 11968, Note_on_c, 7, 79, 0
7, 12000, Note_on_c, 7, 81, 45
7, 12048, Note_on_c, 7, 81, 0
7, 12048, Note_on_c, 7, 79, 45
7, 12094, Note_on_c, 7, 79, 0
7, 12096, Note_on_c, 7, 78, 45
7, 12128, Note_on_c, 7, 78, 0
7, 12192, Note_on_c, 7, 79, 45
7, 12224, Note_on_c, 7, 79, 0
7, 12288, Note_on_c, 7, 81, 45
7, 12448, Note_on_c, 7, 81, 0
7, 12672, Note_on_c, 7, 81, 45
7, 12960, Note_on_c, 7, 81, 0
7, 12960, Note_on_c, 7, 73, 45
7, 13054, Note_on_c, 7, 73, 0
7, 13056, Note_on_c, 7, 76, 45
7, 13152, Note_on_c, 7, 76, 0
7, 13152, Note_on_c, 7, 74, 45
7, 13246, Note_on_c, 7, 74, 0
7, 13344, Note_on_c, 7, 78, 45
7, 13438, Note_on_c, 7, 78, 0
7, 13440, Note_on_c, 7, 75, 45
7, 13536, Note_on_c, 7, 75, 0
7, 13536, Note_on_c, 7, 76, 45
7, 13630, Note_on_c, 7, 76, 0
7, 13728, Note_on_c, 7, 79, 45
7, 13822, Note_on_c, 7, 79, 0
7, 13824, Note_on_c, 7, 77, 45
7, 13920, Note_on_c, 7, 77, 0
7, 13920, Note_on_c, 7, 78, 45
7, 14014, Note_on_c, 7, 78, 0
7, 14208, Note_on_c, 7, 81, 45
7, 14302, Note_on_c, 7, 81, 0
7, 14304, Note_on_c, 7, 81, 45
7, 14464, Note_on_c, 7, 81, 0
7, 14496, Note_on_c, 7, 73, 45
7, 14590, Note_on_c, 7, 73, 0
7, 14592, Note_on_c, 7, 76, 45
7, 14686, Note_on_c, 7, 76, 0
7, 14688, Note_on_c, 7, 74, 45
7, 14848, Note_on_c, 7, 74, 0
7, 14880, Note_on_c, 7, 78, 45
7, 14974, Note_on_c, 7, 78, 0
7, 14976, Note_on_c, 7, 75, 45
7, 15072, Note_on_c, 7, 75, 0
7, 15072, Note_on_c, 7, 76, 45
7, 15168, Note_on_c, 7, 76, 0
7, 15168, Note_on_c, 7, 78, 45
7, 15264, Note_on_c, 7, 78, 0
7, 15264, Note_on_c, 7, 79, 45
7, 15358, Note_on_c, 7, 79, 0
7, 15360, Note_on_c, 7, 77, 45
7, 15454, Note_on_c, 7, 77, 0
7, 15456, Note_on_c, 7, 78, 45
7, 15616, Note_on_c, 7, 78, 0
7, 15648, Note_on_c, 7, 81, 45
7, 15742, Note_on_c, 7, 81, 0
7, 15744, Note_on_c, 7, 78, 45
7, 15840, Note_on_c, 7, 78, 0
7, 15840, Note_on_c, 7, 79, 48
7, 15936, Note_on_c, 7, 79, 0
7, 15936, Note_on_c, 7, 81, 52
7, 16032, Note_on_c, 7, 81, 0
7, 16032, Note_on_c, 7, 83, 56
7, 16126, Note_on_c, 7, 83, 0
7, 16128, Note_on_c, 7, 80, 60
7, 16224, Note_on_c, 7, 80, 0
7, 16224, Note_on_c, 7, 81, 64
7, 16320, Note_on_c, 7, 81, 0
7, 16320, Note_on_c, 7, 83, 68
7, 16416, Note_on_c, 7, 83, 0
7, 16416, Note_on_c, 7, 84, 72
7, 16510, Note_on_c, 7, 84, 0
7, 16512, Note_on_c, 7, 82, 76
7, 16608, Note_on_c, 7, 82, 0
7, 16608, Note_on_c, 7, 83, 80
7, 16704, Note_on_c, 7, 83, 0
7, 16704, Note_on_c, 7, 84, 84
7, 16800, Note_on_c, 7, 84, 0
7, 16800, Note_on_c, 7, 86, 88
7, 16894, Note_on_c, 7, 86, 0
7, 16896, Note_on_c, 7, 86, 92
7, 16918, Note_on_c, 7, 86, 0
7, 16920, Note_on_c, 7, 84, 92
7, 16990, Note_on_c, 7, 84, 0
7, 16992, Note_on_c, 7, 84, 92
7, 17152, Note_on_c, 7, 84, 0
7, 17184, Note_on_c, 7, 84, 92
7, 17344, Note_on_c, 7, 84, 0
7, 17376, Note_on_c, 7, 84, 92
7, 17536, Note_on_c, 7, 84, 0
7, 17568, Note_on_c, 7, 84, 92
7, 17662, Note_on_c, 7, 84, 0
7, 17664, Note_on_c, 7, 83, 92
7, 17712, Note_on_c, 7, 83, 0
7, 17712, Note_on_c, 7, 85, 92
7, 17758, Note_on_c, 7, 85, 0
7, 17760, Note_on_c, 7, 86, 92
7, 17792, Note_on_c, 7, 86, 0
7, 17808, Note_on_c, 7, 85, 92
7, 17840, Note_on_c, 7, 85, 0
7, 17856, Note_on_c, 7, 86, 92
7, 17950, Note_on_c, 7, 86, 0
7, 18048, Note_on_c, 7, 79, 92
7, 18096, Note_on_c, 7, 79, 0
7, 18096, Note_on_c, 7, 81, 92
7, 18142, Note_on_c, 7, 81, 0
7, 18144, Note_on_c, 7, 83, 92
7, 18176, Note_on_c, 7, 83, 0
7, 18192, Note_on_c, 7, 81, 92
7, 18224, Note_on_c, 7, 81, 0
7, 18240, Note_on_c, 7, 83, 92
7, 18272, Note_on_c, 7, 83, 0
7, 18336, Note_on_c, 7, 79, 92
7, 18368, Note_on_c, 7, 79, 0
7, 18432, Note_on_c, 7, 78, 92
7, 18526, Note_on_c, 7, 78, 0
7, 18528, Note_on_c, 7, 81, 92
7, 18574, Note_on_c, 7, 81, 0
7, 18576, Note_on_c, 7, 78, 92
7, 18622, Note_on_c, 7, 78, 0
7, 18624, Note_on_c, 7, 74, 92
7, 18718, Note_on_c, 7, 74, 0
7, 18720, Note_on_c, 7, 78, 92
7, 18766, Note_on_c, 7, 78, 0
7, 18768, Note_on_c, 7, 74, 92
7, 18814, Note_on_c, 7, 74, 0
7, 18816, Note_on_c, 7, 69, 92
7, 18976, Note_on_c, 7, 69, 0
7, 19008, Note_on_c, 7, 57, 92
7, 19008, Note_on_c, 7, 64, 92
7, 19008, Note_on_c, 7, 73, 92
7, 19168, Note_on_c, 7, 57, 0
7, 19168, Note_on_c, 7, 64, 0
7, 19168, Note_on_c, 7, 73, 0
7, 19200, Note_on_c, 7, 57, 92
7, 19200, Note_on_c, 7, 66, 92
7, 19200, Note_on_c, 7, 74, 92
7, 19360, Note_on_c, 7, 57, 0
7, 19360, Note_on_c, 7, 66, 0
7, 19360, Note_on_c, 7, 74, 0
7, 19392, Note_on_c, 7, 74, 45
7, 19440, Note_on_c, 7, 74, 0
7, 19440, Note_on_c, 7, 76, 45
7, 19486, Note_on_c, 7, 76, 0
7, 19488, Note_on_c, 7, 78, 45
7, 19520, Note_on_c, 7, 78, 0
7, 19536, Note_on_c, 7, 79, 45
7, 19568, Note_on_c, 7, 79, 0
7, 19584, Note_on_c, 7, 81, 45
7, 19616, Note_on_c, 7, 81, 0
7, 19680, Note_on_c, 7, 81, 45
7, 19712, Note_on_c, 7, 81, 0
7, 19776, Note_on_c, 7, 81, 45
7, 19808, Note_on_c, 7, 81, 0
7, 19872, Note_on_c, 7, 81, 45
7, 19904, Note_on_c, 7, 81, 0
7, 19968, Note_on_c, 7, 81, 45
7, 20062, Note_on_c, 7, 81, 0
7, 20160, Note_on_c, 7, 86, 92
7, 20254, Note_on_c, 7, 86, 0
7, 20256, Note_on_c, 7, 81, 92
7, 20350, Note_on_c, 7, 81, 0
7, 20352, Note_on_c, 7, 78, 92
7, 20494, Note_on_c, 7, 78, 0
7, 20496, Note_on_c, 7, 81, 92
7, 20542, Note_on_c, 7, 81, 0
7, 20544, Note_on_c, 7, 81, 92
7, 20590, Note_on_c, 7, 81, 0
7, 20592, Note_on_c, 7, 79, 92
7, 20638, Note_on_c, 7, 79, 0
7, 20640, Note_on_c, 7, 78, 92
7, 20686, Note_on_c, 7, 78, 0
7, 20688, Note_on_c, 7, 76, 92
7, 20734, Note_on_c, 7, 76, 0
7, 20736, Note_on_c, 7, 74, 92
7, 20830, Note_on_c, 7, 74, 0
7, 20928, Note_on_c, 7, 74, 45
7, 20976, Note_on_c, 7, 74, 0
7, 20976, Note_on_c, 7, 76, 45
7, 21022, Note_on_c, 7, 76, 0
7, 21024, Note_on_c, 7, 78, 45
7, 21056, Note_on_c, 7, 78, 0
7, 21072, Note_on_c, 7, 79, 45
7, 21104, Note_on_c, 7, 79, 0
7, 21120, Note_on_c, 7, 81, 45
7, 21166, Note_on_c, 7, 81, 0
7, 21168, Note_on_c, 7, 81, 45
7, 21214, Note_on_c, 7, 81, 0
7, 21216, Note_on_c, 7, 81, 45
7, 21262, Note_on_c, 7, 81, 0
7, 21264, Note_on_c, 7, 81, 45
7, 21310, Note_on_c, 7, 81, 0
7, 21312, Note_on_c, 7, 81, 45
7, 21358, Note_on_c, 7, 81, 0
7, 21360, Note_on_c, 7, 81, 45
7, 21406, Note_on_c, 7, 81, 0
7, 21408, Note_on_c, 7, 81, 45
7, 21454, Note_on_c, 7, 81, 0
7, 21456, Note_on_c, 7, 81, 45
7, 21502, Note_on_c, 7, 81, 0
7, 21504, Note_on_c, 7, 81, 45
7, 21598, Note_on_c, 7, 81, 0
7, 21696, Note_on_c, 7, 86, 92
7, 21790, Note_on_c, 7, 86, 0
7, 21792, Note_on_c, 7, 81, 92
7, 21886, Note_on_c, 7, 81, 0
7, 21888, Note_on_c, 7, 78, 92
7, 21936, Note_on_c, 7, 78, 0
7, 21936, Note_on_c, 7, 81, 92
7, 21982, Note_on_c, 7, 81, 0
7, 21984, Note_on_c, 7, 78, 92
7, 22016, Note_on_c, 7, 78, 0
7, 22032, Note_on_c, 7, 81, 92
7, 22064, Note_on_c, 7, 81, 0
7, 22080, Note_on_c, 7, 81, 92
7, 22126, Note_on_c, 7, 81, 0
7, 22128, Note_on_c, 7, 79, 92
7, 22174, Note_on_c, 7, 79, 0
7, 22176, Note_on_c, 7, 78, 92
7, 22222, Note_on_c, 7, 78, 0
7, 22224, Note_on_c, 7, 76, 92
7, 22270, Note_on_c, 7, 76, 0
7, 22272, Note_on_c, 7, 78, 92
7, 22320, Note_on_c, 7, 78, 0
7, 22320, Note_on_c, 7, 74, 92
7, 22366, Note_on_c, 7, 74, 0
7, 22368, Note_on_c, 7, 81, 92
7, 22400, Note_on_c, 7, 81, 0
7, 22416, Note_on_c, 7, 78, 92
7, 22448, Note_on_c, 7, 78, 0
7, 22464, Note_on_c, 7, 86, 92
7, 22512, Note_on_c, 7, 86, 0
7, 22512, Note_on_c, 7, 81, 92
7, 22558, Note_on_c, 7, 81, 0
7, 22560, Note_on_c, 7, 86, 92
7, 22592, Note_on_c, 7, 86, 0
7, 22608, Note_on_c, 7, 81, 92
7, 22640, Note_on_c, 7, 81, 0
7, 22656, Note_on_c, 7, 78, 92
7, 22704, Note_on_c, 7, 78, 0
7, 22704, Note_on_c, 7, 81, 92
7, 22750, Note_on_c, 7, 81, 0
7, 22752, Note_on_c, 7, 78, 92
7, 22784, Note_on_c, 7, 78, 0
7, 22800, Note_on_c, 7, 81, 92
7, 22832, Note_on_c, 7, 81, 0
7, 22848, Note_on_c, 7, 81, 92
7, 22894, Note_on_c, 7, 81, 0
7, 22896, Note_on_c, 7, 79, 92
7, 22942, Note_on_c, 7, 79, 0
7, 22944, Note_on_c, 7, 78, 92
7, 22990, Note_on_c, 7, 78, 0
7, 22992, Note_on_c, 7, 76, 92
7, 23038, Note_on_c, 7, 76, 0
7, 23040, Note_on_c, 7, 74, 92
7, 23072, Note_on_c, 7, 74, 0
7, 23136, Note_on_c, 7, 74, 92
7, 23168, Note_on_c, 7, 74, 0
7, 23232, Note_on_c, 7, 76, 92
7, 23256, Note_on_c, 7, 76, 0
7, 23256, Note_on_c, 7, 74, 92
7, 23280, Note_on_c, 7, 74, 0
7, 23280, Note_on_c, 7, 76, 92
7, 23304, Note_on_c, 7, 76, 0
7, 23304, Note_on_c, 7, 74, 92
7, 23328, Note_on_c, 7, 74, 0
7, 23328, Note_on_c, 7, 76, 92
7, 23352, Note_on_c, 7, 76, 0
7, 23352, Note_on_c, 7, 74, 92
7, 23376, Note_on_c, 7, 74, 0
7, 23376, Note_on_c, 7, 73, 92
7, 23400, Note_on_c, 7, 73, 0
7, 23400, Note_on_c, 7, 74, 92
7, 23422, Note_on_c, 7, 74, 0
7, 23424, Note_on_c, 7, 78, 92
7, 23456, Note_on_c, 7, 78, 0
7, 23520, Note_on_c, 7, 74, 92
7, 23552, Note_on_c, 7, 74, 0
7, 23616, Note_on_c, 7, 69, 92
7, 23648, Note_on_c, 7, 69, 0
7, 23712, Note_on_c, 7, 66, 92
7, 23744, Note_on_c, 7, 66, 0
7, 23808, Note_on_c, 7, 62, 92
7, 23968, Note_on_c, 7, 62, 0
7, 24576, Note_on_c, 7, 74, 45
7, 24736, Note_on_c, 7, 74, 0
7, 24768, Note_on_c, 7, 74, 45
7, 25104, Note_on_c, 7, 74, 0
7, 25152, Note_on_c, 7, 73, 45
7, 25200, Note_on_c, 7, 73, 0
7, 25200, Note_on_c, 7, 74, 45
7, 25246, Note_on_c, 7, 74, 0
7, 25248, Note_on_c, 7, 73, 45
7, 25296, Note_on_c, 7, 73, 0
7, 25296, Note_on_c, 7, 74, 45
7, 25342, Note_on_c, 7, 74, 0
7, 25344, Note_on_c, 7, 79, 45
7, 25504, Note_on_c, 7, 79, 0
7, 25536, Note_on_c, 7, 79, 45
7, 25872, Note_on_c, 7, 79, 0
7, 25920, Note_on_c, 7, 79, 45
7, 26080, Note_on_c, 7, 79, 0
7, 26112, Note_on_c, 7, 77, 45
7, 26208, Note_on_c, 7, 77, 0
7, 26208, Note_on_c, 7, 78, 45
7, 26302, Note_on_c, 7, 78, 0
7, 26304, Note_on_c, 7, 78, 45
7, 26640, Note_on_c, 7, 78, 0
7, 26688, Note_on_c, 7, 79, 45
7, 26736, Note_on_c, 7, 79, 0
7, 26736, Note_on_c, 7, 78, 45
7, 26782, Note_on_c, 7, 78, 0
7, 26784, Note_on_c, 7, 79, 45
7, 26832, Note_on_c, 7, 79, 0
7, 26832, Note_on_c, 7, 78, 45
7, 26878, Note_on_c, 7, 78, 0
7, 26880, Note_on_c, 7, 83, 45
7, 27040, Note_on_c, 7, 83, 0
7, 27072, Note_on_c, 7, 83, 45
7, 27408, Note_on_c, 7, 83, 0
7, 27456, Note_on_c, 7, 83, 45
7, 27616, Note_on_c, 7, 83, 0
7, 27648, Note_on_c, 7, 81, 45
7, 27742, Note_on_c, 7, 81, 0
7, 27744, Note_on_c, 7, 78, 45
7, 27838, Note_on_c, 7, 78, 0
7, 27840, Note_on_c, 7, 78, 45
7, 27934, Note_on_c, 7, 78, 0
7, 27936, Note_on_c, 7, 78, 45
7, 28030, Note_on_c, 7, 78, 0
7, 28032, Note_on_c, 7, 78, 45
7, 28126, Note_on_c, 7, 78, 0
7, 28128, Note_on_c, 7, 78, 45
7, 28222, Note_on_c, 7, 78, 0
7, 28224, Note_on_c, 7, 78, 45
7, 28318, Note_on_c, 7, 78, 0
7, 28320, Note_on_c, 7, 78, 45
7, 28414, Note_on_c, 7, 78, 0
7, 28416, Note_on_c, 7, 76, 45
7, 28510, Note_on_c, 7, 76, 0
7, 28512, Note_on_c, 7, 76, 45
7, 28606, Note_on_c, 7, 76, 0
7, 28608, Note_on_c, 7, 76, 45
7, 28702, Note_on_c, 7, 76, 0
7, 28704, Note_on_c, 7, 76, 45
7, 28798, Note_on_c, 7, 76, 0
7, 28800, Note_on_c, 7, 76, 45
7, 28894, Note_on_c, 7, 76, 0
7, 28896, Note_on_c, 7, 76, 45
7, 28990, Note_on_c, 7, 76, 0
7, 28992, Note_on_c, 7, 76, 45
7, 29086, Note_on_c, 7, 76, 0
7, 29088, Note_on_c, 7, 76, 45
7, 29182, Note_on_c, 7, 76, 0
7, 29184, Note_on_c, 7, 74, 45
7, 29278, Note_on_c, 7, 74, 0
7, 29280, Note_on_c, 7, 74, 45
7, 29374, Note_on_c, 7, 74, 0
7, 29376, Note_on_c, 7, 74, 45
7, 29470, Note_on_c, 7, 74, 0
7, 29472, Note_on_c, 7, 74, 45
7, 29566, Note_on_c, 7, 74, 0
7, 29568, Note_on_c, 7, 74, 45
7, 29662, Note_on_c, 7, 74, 0
7, 29664, Note_on_c, 7, 74, 45
7, 29758, Note_on_c, 7, 74, 0
7, 29760, Note_on_c, 7, 74, 45
7, 29854, Note_on_c, 7, 74, 0
7, 29856, Note_on_c, 7, 74, 45
7, 29950, Note_on_c, 7, 74, 0
7, 29952, Note_on_c, 7, 74, 45
7, 30046, Note_on_c, 7, 74, 0
7, 30048, Note_on_c, 7, 74, 45
7, 30142, Note_on_c, 7, 74, 0
7, 30144, Note_on_c, 7, 74, 45
7, 30238, Note_on_c, 7, 74, 0
7, 30240, Note_on_c, 7, 74, 45
7, 30334, Note_on_c, 7, 74, 0
7, 30336, Note_on_c, 7, 74, 45
7, 30430, Note_on_c, 7, 74, 0
7, 30432, Note_on_c, 7, 74, 45
7, 30526, Note_on_c, 7, 74, 0
7, 30528, Note_on_c, 7, 74, 45
7, 30622, Note_on_c, 7, 74, 0
7, 30624, Note_on_c, 7, 74, 45
7, 30718, Note_on_c, 7, 74, 0
7, 30720, Note_on_c, 7, 74, 45
7, 30912, Note_on_c, 7, 74, 0
7, 30912, Note_on_c, 7, 71, 45
7, 31072, Note_on_c, 7, 71, 0
7, 31200, Note_on_c, 7, 71, 45
7, 31294, Note_on_c, 7, 71, 0
7, 31296, Note_on_c, 7, 71, 45
7, 31390, Note_on_c, 7, 71, 0
7, 31392, Note_on_c, 7, 71, 45
7, 31486, Note_on_c, 7, 71, 0
7, 31488, Note_on_c, 7, 74, 45
7, 31680, Note_on_c, 7, 74, 0
7, 31680, Note_on_c, 7, 69, 45
7, 31840, Note_on_c, 7, 69, 0
7, 31968, Note_on_c, 7, 69, 45
7, 32062, Note_on_c, 7, 69, 0
7, 32064, Note_on_c, 7, 69, 45
7, 32158, Note_on_c, 7, 69, 0
7, 32160, Note_on_c, 7, 74, 45
7, 32254, Note_on_c, 7, 74, 0
7, 32256, Note_on_c, 7, 71, 45
7, 32416, Note_on_c, 7, 71, 0
7, 32448, Note_on_c, 7, 76, 45
7, 32784, Note_on_c, 7, 76, 0
7, 32832, Note_on_c, 7, 67, 45
7, 32992, Note_on_c, 7, 67, 0
7, 33024, Note_on_c, 7, 66, 45
7, 33216, Note_on_c, 7, 66, 0
7, 33216, Note_on_c, 7, 67, 45
7, 33408, Note_on_c, 7, 67, 0
7, 33408, Note_on_c, 7, 66, 45
7, 33600, Note_on_c, 7, 66, 0
7, 33600, Note_on_c, 7, 64, 45
7, 33760, Note_on_c, 7, 64, 0
7, 33792, Note_on_c, 7, 62, 45
7, 33984, Note_on_c, 7, 62, 0
7, 33984, Note_on_c, 7, 67, 45
7, 34176, Note_on_c, 7, 67, 0
7, 34176, Note_on_c, 7, 66, 45
7, 34368, Note_on_c, 7, 66, 0
7, 34368, Note_on_c, 7, 64, 45
7, 34528, Note_on_c, 7, 64, 0
7, 34560, Note_on_c, 7, 62, 45
7, 34720, Note_on_c, 7, 62, 0
7, 34752, Note_on_c, 7, 74, 45
7, 35088, Note_on_c, 7, 74, 0
7, 35136, Note_on_c, 7, 73, 45
7, 35296, Note_on_c, 7, 73, 0
7, 35328, Note_on_c, 7, 74, 45
7, 35422, Note_on_c, 7, 74, 0
7, 35520, Note_on_c, 7, 86, 92
7, 35614, Note_on_c, 7, 86, 0
7, 35616, Note_on_c, 7, 81, 92
7, 35710, Note_on_c, 7, 81, 0
7, 35712, Note_on_c, 7, 78, 92
7, 35854, Note_on_c, 7, 78, 0
7, 35856, Note_on_c, 7, 81, 92
7, 35902, Note_on_c, 7, 81, 0
7, 35904, Note_on_c, 7, 81, 92
7, 35950, Note_on_c, 7, 81, 0
7, 35952, Note_on_c, 7, 79, 92
7, 35998, Note_on_c, 7, 79, 0
7, 36000, Note_on_c, 7, 78, 92
7, 36046, Note_on_c, 7, 78, 0
7, 36048, Note_on_c, 7, 76, 92
7, 36094, Note_on_c, 7, 76, 0
7, 36096, Note_on_c, 7, 78, 92
7, 36144, Note_on_c, 7, 78, 0
7, 36144, Note_on_c, 7, 74, 92
7, 36190, Note_on_c, 7, 74, 0
7, 36192, Note_on_c, 7, 81, 92
7, 36224, Note_on_c, 7, 81, 0
7, 36240, Note_on_c, 7, 78, 92
7, 36272, Note_on_c, 7, 78, 0
7, 36288, Note_on_c, 7, 86, 92
7, 36336, Note_on_c, 7, 86, 0
7, 36336, Note_on_c, 7, 81, 92
7, 36382, Note_on_c, 7, 81, 0
7, 36384, Note_on_c, 7, 86, 92
7, 36416, Note_on_c, 7, 86, 0
7, 36432, Note_on_c, 7, 81, 92
7, 36464, Note_on_c, 7, 81, 0
7, 36480, Note_on_c, 7, 78, 92
7, 36528, Note_on_c, 7, 78, 0
7, 36528, Note_on_c, 7, 81, 92
7, 36574, Note_on_c, 7, 81, 0
7, 36576, Note_on_c, 7, 78, 92
7, 36608, Note_on_c, 7, 78, 0
7, 36624, Note_on_c, 7, 81, 92
7, 36656, Note_on_c, 7, 81, 0
7, 36672, Note_on_c, 7, 81, 92
7, 36718, Note_on_c, 7, 81, 0
7, 36720, Note_on_c, 7, 79, 92
7, 36766, Note_on_c, 7, 79, 0
7, 36768, Note_on_c, 7, 78, 92
7, 36814, Note_on_c, 7, 78, 0
7, 36816, Note_on_c, 7, 76, 92
7, 36862, Note_on_c, 7, 76, 0
7, 36864, Note_on_c, 7, 74, 92
7, 36896, Note_on_c, 7, 74, 0
7, 36960, Note_on_c, 7, 74, 92
7, 36992, Note_on_c, 7, 74, 0
7, 37056, Note_on_c, 7, 76, 92
7, 37080, Note_on_c, 7, 76, 0
7, 37080, Note_on_c, 7, 74, 92
7, 37104, Note_on_c, 7, 74, 0
7, 37104, Note_on_c, 7, 76, 92
7, 37128, Note_on_c, 7, 76, 0
7, 37128, Note_on_c, 7, 74, 92
7, 37152, Note_on_c, 7, 74, 0
7, 37152, Note_on_c, 7, 76, 92
7, 37176, Note_on_c, 7, 76, 0
7, 37176, Note_on_c, 7, 74, 92
7, 37200, Note_on_c, 7, 74, 0
7, 37200, Note_on_c, 7, 73, 92
7, 37224, Note_on_c, 7, 73, 0
7, 37224, Note_on_c, 7, 74, 92
7, 37246, Note_on_c, 7, 74, 0
7, 37248, Note_on_c, 7, 78, 92
7, 37280, Note_on_c, 7, 78, 0
7, 37344, Note_on_c, 7, 74, 92
7, 37376, Note_on_c, 7, 74, 0
7, 37440, Note_on_c, 7, 69, 92
7, 37472, Note_on_c, 7, 69, 0
7, 37536, Note_on_c, 7, 66, 92
7, 37568, Note_on_c, 7, 66, 0
7, 37632, Note_on_c, 7, 62, 92
7, 37792, Note_on_c, 7, 62, 0
7, 38592, Note_on_c, 7, 69, 45
7, 38784, Note_on_c, 7, 69, 0
7, 38784, Note_on_c, 7, 73, 45
7, 38976, Note_on_c, 7, 73, 0
7, 38976, Note_on_c, 7, 74, 45
7, 39136, Note_on_c, 7, 74, 0
7, 39168, Note_on_c, 7, 72, 45
7, 39456, Note_on_c, 7, 72, 0
7, 39456, Note_on_c, 7, 73, 45
7, 39550, Note_on_c, 7, 73, 0
7, 39552, Note_on_c, 7, 73, 45
7, 39712, Note_on_c, 7, 73, 0
7, 40896, Note_on_c, 7, 73, 45
7, 41088, Note_on_c, 7, 73, 0
7, 41088, Note_on_c, 7, 74, 45
7, 41280, Note_on_c, 7, 74, 0
7, 41280, Note_on_c, 7, 76, 45
7, 41440, Note_on_c, 7, 76, 0
7, 41472, Note_on_c, 7, 73, 45
7, 41760, Note_on_c, 7, 73, 0
7, 41760, Note_on_c, 7, 74, 45
7, 41854, Note_on_c, 7, 74, 0
7, 41856, Note_on_c, 7, 74, 45
7, 42016, Note_on_c, 7, 74, 0
7, 43008, Note_on_c, 7, 76, 45
7, 43102, Note_on_c, 7, 76, 0
7, 43104, Note_on_c, 7, 76, 45
7, 43198, Note_on_c, 7, 76, 0
7, 43200, Note_on_c, 7, 76, 45
7, 43294, Note_on_c, 7, 76, 0
7, 43296, Note_on_c, 7, 76, 45
7, 43390, Note_on_c, 7, 76, 0
7, 43392, Note_on_c, 7, 76, 45
7, 43486, Note_on_c, 7, 76, 0
7, 43488, Note_on_c, 7, 76, 45
7, 43582, Note_on_c, 7, 76, 0
7, 43584, Note_on_c, 7, 76, 45
7, 43678, Note_on_c, 7, 76, 0
7, 43680, Note_on_c, 7, 76, 45
7, 43774, Note_on_c, 7, 76, 0
7, 43776, Note_on_c, 7, 76, 45
7, 43870, Note_on_c, 7, 76, 0
7, 43872, Note_on_c, 7, 76, 45
7, 43966, Note_on_c, 7, 76, 0
7, 43968, Note_on_c, 7, 76, 45
7, 44062, Note_on_c, 7, 76, 0
7, 44064, Note_on_c, 7, 76, 45
7, 44158, Note_on_c, 7, 76, 0
7, 44160, Note_on_c, 7, 76, 45
7, 44254, Note_on_c, 7, 76, 0
7, 44256, Note_on_c, 7, 76, 45
7, 44350, Note_on_c, 7, 76, 0
7, 44352, Note_on_c, 7, 76, 45
7, 44446, Note_on_c, 7, 76, 0
7, 44448, Note_on_c, 7, 76, 45
7, 44542, Note_on_c, 7, 76, 0
7, 44544, Note_on_c, 7, 76, 45
7, 44638, Note_on_c, 7, 76, 0
7, 44640, Note_on_c, 7, 76, 45
7, 44734, Note_on_c, 7, 76, 0
7, 44736, Note_on_c, 7, 76, 45
7, 44830, Note_on_c, 7, 76, 0
7, 44832, Note_on_c, 7, 76, 45
7, 44926, Note_on_c, 7, 76, 0
7, 44928, Note_on_c, 7, 76, 45
7, 45022, Note_on_c, 7, 76, 0
7, 45024, Note_on_c, 7, 76, 45
7, 45118, Note_on_c, 7, 76, 0
7, 45120, Note_on_c, 7, 76, 45
7, 45214, Note_on_c, 7, 76, 0
7, 45216, Note_on_c, 7, 76, 45
7, 45310, Note_on_c, 7, 76, 0
7, 45312, Note_on_c, 7, 76, 45
7, 45406, Note_on_c, 7, 76, 0
7, 45408, Note_on_c, 7, 76, 45
7, 45502, Note_on_c, 7, 76, 0
7, 45504, Note_on_c, 7, 76, 45
7, 45598, Note_on_c, 7, 76, 0
7, 45600, Note_on_c, 7, 76, 45
7, 45694, Note_on_c, 7, 76, 0
7, 45696, Note_on_c, 7, 76, 45
7, 45790, Note_on_c, 7, 76, 0
7, 45792, Note_on_c, 7, 73, 45
7, 45888, Note_on_c, 7, 73, 0
7, 45888, Note_on_c, 7, 74, 45
7, 45984, Note_on_c, 7, 74, 0
7, 45984, Note_on_c, 7, 76, 45
7, 46078, Note_on_c, 7, 76, 0
7, 46080, Note_on_c, 7, 78, 45
7, 46174, Note_on_c, 7, 78, 0
7, 46176, Note_on_c, 7, 78, 45
7, 46270, Note_on_c, 7, 78, 0
7, 46272, Note_on_c, 7, 78, 45
7, 46366, Note_on_c, 7, 78, 0
7, 46368, Note_on_c, 7, 78, 45
7, 46462, Note_on_c, 7, 78, 0
7, 46464, Note_on_c, 7, 79, 45
7, 46558, Note_on_c, 7, 79, 0
7, 46560, Note_on_c, 7, 79, 45
7, 46654, Note_on_c, 7, 79, 0
7, 46656, Note_on_c, 7, 79, 45
7, 46750, Note_on_c, 7, 79, 0
7, 46752, Note_on_c, 7, 79, 45
7, 46846, Note_on_c, 7, 79, 0
7, 46848, Note_on_c, 7, 78, 45
7, 46942, Note_on_c, 7, 78, 0
7, 46944, Note_on_c, 7, 78, 45
7, 47038, Note_on_c, 7, 78, 0
7, 47040, Note_on_c, 7, 78, 45
7, 47134, Note_on_c, 7, 78, 0
7, 47136, Note_on_c, 7, 78, 45
7, 47230, Note_on_c, 7, 78, 0
7, 47232, Note_on_c, 7, 79, 45
7, 47326, Note_on_c, 7, 79, 0
7, 47328, Note_on_c, 7, 79, 45
7, 47422, Note_on_c, 7, 79, 0
7, 47424, Note_on_c, 7, 79, 45
7, 47518, Note_on_c, 7, 79, 0
7, 47520, Note_on_c, 7, 79, 45
7, 47614, Note_on_c, 7, 79, 0
7, 47616, Note_on_c, 7, 78, 45
7, 47710, Note_on_c, 7, 78, 0
7, 47712, Note_on_c, 7, 78, 45
7, 47806, Note_on_c, 7, 78, 0
7, 47808, Note_on_c, 7, 78, 45
7, 47902, Note_on_c, 7, 78, 0
7, 47904, Note_on_c, 7, 78, 45
7, 47998, Note_on_c, 7, 78, 0
7, 48000, Note_on_c, 7, 78, 45
7, 48094, Note_on_c, 7, 78, 0
7, 48096, Note_on_c, 7, 78, 45
7, 48190, Note_on_c, 7, 78, 0
7, 48192, Note_on_c, 7, 78, 45
7, 48286, Note_on_c, 7, 78, 0
7, 48288, Note_on_c, 7, 78, 45
7, 48382, Note_on_c, 7, 78, 0
7, 48384, Note_on_c, 7, 71, 45
7, 48544, Note_on_c, 7, 71, 0
7, 48960, Note_on_c, 7, 68, 45
7, 48960, Note_on_c, 7, 71, 45
7, 49120, Note_on_c, 7, 68, 0
7, 49120, Note_on_c, 7, 71, 0
7, 49152, Note_on_c, 7, 68, 45
7, 49152, Note_on_c, 7, 71, 45
7, 49246, Note_on_c, 7, 68, 0
7, 49246, Note_on_c, 7, 71, 0
7, 49248, Note_on_c, 7, 68, 45
7, 49248, Note_on_c, 7, 71, 45
7, 49342, Note_on_c, 7, 68, 0
7, 49342, Note_on_c, 7, 71, 0
7, 49344, Note_on_c, 7, 68, 45
7, 49344, Note_on_c, 7, 71, 45
7, 49438, Note_on_c, 7, 68, 0
7, 49438, Note_on_c, 7, 71, 0
7, 49440, Note_on_c, 7, 68, 45
7, 49440, Note_on_c, 7, 71, 45
7, 49534, Note_on_c, 7, 68, 0
7, 49534, Note_on_c, 7, 71, 0
7, 49536, Note_on_c, 7, 68, 45
7, 49536, Note_on_c, 7, 71, 45
7, 49696, Note_on_c, 7, 68, 0
7, 49696, Note_on_c, 7, 71, 0
7, 49920, Note_on_c, 7, 64, 45
7, 49920, Note_on_c, 7, 74, 45
7, 50014, Note_on_c, 7, 64, 0
7, 50014, Note_on_c, 7, 74, 0
7, 50016, Note_on_c, 7, 64, 45
7, 50016, Note_on_c, 7, 74, 45
7, 50110, Note_on_c, 7, 64, 0
7, 50110, Note_on_c, 7, 74, 0
7, 50112, Note_on_c, 7, 64, 45
7, 50112, Note_on_c, 7, 74, 45
7, 50206, Note_on_c, 7, 64, 0
7, 50206, Note_on_c, 7, 74, 0
7, 50208, Note_on_c, 7, 64, 45
7, 50208, Note_on_c, 7, 74, 45
7, 50302, Note_on_c, 7, 64, 0
7, 50302, Note_on_c, 7, 74, 0
7, 50304, Note_on_c, 7, 64, 45
7, 50304, Note_on_c, 7, 74, 45
7, 50464, Note_on_c, 7, 64, 0
7, 50464, Note_on_c, 7, 74, 0
7, 50688, Note_on_c, 7, 74, 45
7, 50782, Note_on_c, 7, 74, 0
7, 50880, Note_on_c, 7, 74, 45
7, 50974, Note_on_c, 7, 74, 0
7, 51072, Note_on_c, 7, 74, 45
7, 51166, Note_on_c, 7, 74, 0
7, 51264, Note_on_c, 7, 74, 45
7, 51358, Note_on_c, 7, 74, 0
7, 51456, Note_on_c, 7, 73, 45
7, 51550, Note_on_c, 7, 73, 0
7, 51648, Note_on_c, 7, 73, 45
7, 51696, Note_on_c, 7, 73, 0
7, 51696, Note_on_c, 7, 76, 45
7, 51742, Note_on_c, 7, 76, 0
7, 51744, Note_on_c, 7, 74, 45
7, 51792, Note_on_c, 7, 74, 0
7, 51792, Note_on_c, 7, 78, 45
7, 51838, Note_on_c, 7, 78, 0
7, 51840, Note_on_c, 7, 76, 45
7, 51934, Note_on_c, 7, 76, 0
7, 52224, Note_on_c, 7, 74, 45
7, 52318, Note_on_c, 7, 74, 0
7, 52416, Note_on_c, 7, 74, 45
7, 52464, Note_on_c, 7, 74, 0
7, 52464, Note_on_c, 7, 78, 45
7, 52510, Note_on_c, 7, 78, 0
7, 52512, Note_on_c, 7, 76, 45
7, 52560, Note_on_c, 7, 76, 0
7, 52560, Note_on_c, 7, 79, 45
7, 52606, Note_on_c, 7, 79, 0
7, 52608, Note_on_c, 7, 78, 45
7, 52702, Note_on_c, 7, 78, 0
7, 52992, Note_on_c, 7, 76, 45
7, 53086, Note_on_c, 7, 76, 0
7, 53184, Note_on_c, 7, 76, 45
7, 53232, Note_on_c, 7, 76, 0
7, 53232, Note_on_c, 7, 79, 45
7, 53278, Note_on_c, 7, 79, 0
7, 53280, Note_on_c, 7, 78, 45
7, 53328, Note_on_c, 7, 78, 0
7, 53328, Note_on_c, 7, 81, 45
7, 53374, Note_on_c, 7, 81, 0
7, 53376, Note_on_c, 7, 79, 45
7, 53470, Note_on_c, 7, 79, 0
7, 53808, Note_on_c, 7, 78, 45
7, 53856, Note_on_c, 7, 78, 0
7, 53856, Note_on_c, 7, 76, 45
7, 53904, Note_on_c, 7, 76, 0
7, 53904, Note_on_c, 7, 78, 45
7, 53952, Note_on_c, 7, 78, 0
7, 53952, Note_on_c, 7, 79, 45
7, 54000, Note_on_c, 7, 79, 0
7, 54000, Note_on_c, 7, 78, 45
7, 54048, Note_on_c, 7, 78, 0
7, 54048, Note_on_c, 7, 76, 45
7, 54096, Note_on_c, 7, 76, 0
7, 54096, Note_on_c, 7, 78, 45
7, 54142, Note_on_c, 7, 78, 0
7, 54192, Note_on_c, 7, 76, 45
7, 54240, Note_on_c, 7, 76, 0
7, 54240, Note_on_c, 7, 74, 45
7, 54288, Note_on_c, 7, 74, 0
7, 54288, Note_on_c, 7, 76, 45
7, 54336, Note_on_c, 7, 76, 0
7, 54336, Note_on_c, 7, 78, 45
7, 54384, Note_on_c, 7, 78, 0
7, 54384, Note_on_c, 7, 76, 45
7, 54432, Note_on_c, 7, 76, 0
7, 54432, Note_on_c, 7, 74, 45
7, 54480, Note_on_c, 7, 74, 0
7, 54480, Note_on_c, 7, 76, 45
7, 54526, Note_on_c, 7, 76, 0
7, 54528, Note_on_c, 7, 75, 92
7, 54622, Note_on_c, 7, 75, 0
7, 54624, Note_on_c, 7, 75, 45
7, 54718, Note_on_c, 7, 75, 0
7, 54720, Note_on_c, 7, 75, 45
7, 54814, Note_on_c, 7, 75, 0
7, 54816, Note_on_c, 7, 75, 45
7, 54910, Note_on_c, 7, 75, 0
7, 54912, Note_on_c, 7, 75, 45
7, 55006, Note_on_c, 7, 75, 0
7, 55008, Note_on_c, 7, 75, 45
7, 55102, Note_on_c, 7, 75, 0
7, 55104, Note_on_c, 7, 75, 45
7, 55198, Note_on_c, 7, 75, 0
7, 55200, Note_on_c, 7, 75, 45
7, 55294, Note_on_c, 7, 75, 0
7, 55392, Note_on_c, 7, 76, 45
7, 55488, Note_on_c, 7, 76, 0
7, 55488, Note_on_c, 7, 80, 45
7, 55582, Note_on_c, 7, 80, 0
7, 55584, Note_on_c, 7, 80, 45
7, 55616, Note_on_c, 7, 80, 0
7, 55776, Note_on_c, 7, 71, 45
7, 55872, Note_on_c, 7, 71, 0
7, 55872, Note_on_c, 7, 78, 45
7, 55966, Note_on_c, 7, 78, 0
7, 55968, Note_on_c, 7, 78, 45
7, 56000, Note_on_c, 7, 78, 0
7, 56160, Note_on_c, 7, 76, 45
7, 56254, Note_on_c, 7, 76, 0
7, 56352, Note_on_c, 7, 76, 45
7, 56446, Note_on_c, 7, 76, 0
7, 56544, Note_on_c, 7, 78, 45
7, 56638, Note_on_c, 7, 78, 0
7, 56736, Note_on_c, 7, 74, 45
7, 56830, Note_on_c, 7, 74, 0
7, 56832, Note_on_c, 7, 73, 45
7, 56926, Note_on_c, 7, 73, 0
7, 56928, Note_on_c, 7, 73, 45
7, 57022, Note_on_c, 7, 73, 0
7, 57024, Note_on_c, 7, 73, 45
7, 57118, Note_on_c, 7, 73, 0
7, 57120, Note_on_c, 7, 73, 45
7, 57214, Note_on_c, 7, 73, 0
7, 57216, Note_on_c, 7, 74, 45
7, 57312, Note_on_c, 7, 74, 0
7, 57312, Note_on_c, 7, 71, 45
7, 57406, Note_on_c, 7, 71, 0
7, 57408, Note_on_c, 7, 71, 45
7, 57504, Note_on_c, 7, 71, 0
7, 57504, Note_on_c, 7, 68, 45
7, 57598, Note_on_c, 7, 68, 0
7, 57600, Note_on_c, 7, 69, 92
7, 57670, Note_on_c, 7, 69, 0
7, 57672, Note_on_c, 7, 71, 92
7, 57694, Note_on_c, 7, 71, 0
7, 57696, Note_on_c, 7, 69, 92
7, 57742, Note_on_c, 7, 69, 0
7, 57744, Note_on_c, 7, 68, 92
7, 57790, Note_on_c, 7, 68, 0
7, 57792, Note_on_c, 7, 69, 92
7, 57886, Note_on_c, 7, 69, 0
7, 57888, Note_on_c, 7, 71, 92
7, 57982, Note_on_c, 7, 71, 0
7, 57984, Note_on_c, 7, 73, 92
7, 58054, Note_on_c, 7, 73, 0
7, 58056, Note_on_c, 7, 74, 92
7, 58078, Note_on_c, 7, 74, 0
7, 58080, Note_on_c, 7, 73, 92
7, 58126, Note_on_c, 7, 73, 0
7, 58128, Note_on_c, 7, 71, 92
7, 58174, Note_on_c, 7, 71, 0
7, 58176, Note_on_c, 7, 73, 92
7, 58270, Note_on_c, 7, 73, 0
7, 58272, Note_on_c, 7, 75, 92
7, 58366, Note_on_c, 7, 75, 0
7, 58368, Note_on_c, 7, 76, 92
7, 58528, Note_on_c, 7, 76, 0
7, 58560, Note_on_c, 7, 64, 92
7, 58560, Note_on_c, 7, 71, 92
7, 58560, Note_on_c, 7, 76, 92
7, 58720, Note_on_c, 7, 64, 0
7, 58720, Note_on_c, 7, 71, 0
7, 58720, Note_on_c, 7, 76, 0
7, 58752, Note_on_c, 7, 64, 92
7, 58912, Note_on_c, 7, 64, 0
7, 59904, Note_on_c, 7, 69, 45
7, 59952, Note_on_c, 7, 69, 0
7, 59952, Note_on_c, 7, 71, 45
7, 60000, Note_on_c, 7, 71, 0
7, 60000, Note_on_c, 7, 69, 45
7, 60048, Note_on_c, 7, 69, 0
7, 60048, Note_on_c, 7, 71, 45
7, 60096, Note_on_c, 7, 71, 0
7, 60096, Note_on_c, 7, 69, 45
7, 60144, Note_on_c, 7, 69, 0
7, 60144, Note_on_c, 7, 71, 45
7, 60192, Note_on_c, 7, 71, 0
7, 60192, Note_on_c, 7, 69, 45
7, 60240, Note_on_c, 7, 69, 0
7, 60240, Note_on_c, 7, 71, 45
7, 60286, Note_on_c, 7, 71, 0
7, 60288, Note_on_c, 7, 67, 45
7, 60336, Note_on_c, 7, 67, 0
7, 60336, Note_on_c, 7, 69, 45
7, 60384, Note_on_c, 7, 69, 0
7, 60384, Note_on_c, 7, 67, 45
7, 60432, Note_on_c, 7, 67, 0
7, 60432, Note_on_c, 7, 69, 45
7, 60480, Note_on_c, 7, 69, 0
7, 60480, Note_on_c, 7, 67, 45
7, 60528, Note_on_c, 7, 67, 0
7, 60528, Note_on_c, 7, 69, 45
7, 60576, Note_on_c, 7, 69, 0
7, 60576, Note_on_c, 7, 67, 45
7, 60624, Note_on_c, 7, 67, 0
7, 60624, Note_on_c, 7, 69, 45
7, 60670, Note_on_c, 7, 69, 0
7, 60672, Note_on_c, 7, 66, 45
7, 60720, Note_on_c, 7, 66, 0
7, 60720, Note_on_c, 7, 67, 45
7, 60768, Note_on_c, 7, 67, 0
7, 60768, Note_on_c, 7, 66, 45
7, 60816, Note_on_c, 7, 66, 0
7, 60816, Note_on_c, 7, 67, 45
7, 60864, Note_on_c, 7, 67, 0
7, 60864, Note_on_c, 7, 66, 45
7, 60912, Note_on_c, 7, 66, 0
7, 60912, Note_on_c, 7, 67, 45
7, 60960, Note_on_c, 7, 67, 0
7, 60960, Note_on_c, 7, 66, 45
7, 61008, Note_on_c, 7, 66, 0
7, 61008, Note_on_c, 7, 69, 45
7, 61054, Note_on_c, 7, 69, 0
7, 61056, Note_on_c, 7, 68, 45
7, 61104, Note_on_c, 7, 68, 0
7, 61104, Note_on_c, 7, 69, 45
7, 61152, Note_on_c, 7, 69, 0
7, 61152, Note_on_c, 7, 68, 45
7, 61200, Note_on_c, 7, 68, 0
7, 61200, Note_on_c, 7, 69, 45
7, 61248, Note_on_c, 7, 69, 0
7, 61248, Note_on_c, 7, 68, 45
7, 61296, Note_on_c, 7, 68, 0
7, 61296, Note_on_c, 7, 69, 45
7, 61344, Note_on_c, 7, 69, 0
7, 61344, Note_on_c, 7, 68, 45
7, 61392, Note_on_c, 7, 68, 0
7, 61392, Note_on_c, 7, 71, 45
7, 61438, Note_on_c, 7, 71, 0
7, 61440, Note_on_c, 7, 69, 45
7, 61488, Note_on_c, 7, 69, 0
7, 61488, Note_on_c, 7, 71, 45
7, 61536, Note_on_c, 7, 71, 0
7, 61536, Note_on_c, 7, 69, 45
7, 61584, Note_on_c, 7, 69, 0
7, 61584, Note_on_c, 7, 71, 45
7, 61632, Note_on_c, 7, 71, 0
7, 61632, Note_on_c, 7, 69, 45
7, 61680, Note_on_c, 7, 69, 0
7, 61680, Note_on_c, 7, 71, 45
7, 61728, Note_on_c, 7, 71, 0
7, 61728, Note_on_c, 7, 69, 45
7, 61776, Note_on_c, 7, 69, 0
7, 61776, Note_on_c, 7, 71, 45
7, 61822, Note_on_c, 7, 71, 0
7, 61824, Note_on_c, 7, 67, 45
7, 61872, Note_on_c, 7, 67, 0
7, 61872, Note_on_c, 7, 69, 45
7, 61920, Note_on_c, 7, 69, 0
7, 61920, Note_on_c, 7, 67, 45
7, 61968, Note_on_c, 7, 67, 0
7, 61968, Note_on_c, 7, 69, 45
7, 62016, Note_on_c, 7, 69, 0
7, 62016, Note_on_c, 7, 67, 45
7, 62064, Note_on_c, 7, 67, 0
7, 62064, Note_on_c, 7, 69, 45
7, 62112, Note_on_c, 7, 69, 0
7, 62112, Note_on_c, 7, 67, 45
7, 62160, Note_on_c, 7, 67, 0
7, 62160, Note_on_c, 7, 69, 45
7, 62206, Note_on_c, 7, 69, 0
7, 62208, Note_on_c, 7, 66, 45
7, 62256, Note_on_c, 7, 66, 0
7, 62256, Note_on_c, 7, 67, 45
7, 62304, Note_on_c, 7, 67, 0
7, 62304, Note_on_c, 7, 66, 45
7, 62352, Note_on_c, 7, 66, 0
7, 62352, Note_on_c, 7, 67, 45
7, 62400, Note_on_c, 7, 67, 0
7, 62400, Note_on_c, 7, 66, 45
7, 62448, Note_on_c, 7, 66, 0
7, 62448, Note_on_c, 7, 67, 45
7, 62496, Note_on_c, 7, 67, 0
7, 62496, Note_on_c, 7, 66, 45
7, 62544, Note_on_c, 7, 66, 0
7, 62544, Note_on_c, 7, 69, 45
7, 62590, Note_on_c, 7, 69, 0
7, 62592, Note_on_c, 7, 68, 45
7, 62640, Note_on_c, 7, 68, 0
7, 62640, Note_on_c, 7, 69, 45
7, 62688, Note_on_c, 7, 69, 0
7, 62688, Note_on_c, 7, 68, 45
7, 62736, Note_on_c, 7, 68, 0
7, 62736, Note_on_c, 7, 69, 45
7, 62784, Note_on_c, 7, 69, 0
7, 62784, Note_on_c, 7, 68, 45
7, 62832, Note_on_c, 7, 68, 0
7, 62832, Note_on_c, 7, 69, 45
7, 62880, Note_on_c, 7, 69, 0
7, 62880, Note_on_c, 7, 68, 45
7, 62928, Note_on_c, 7, 68, 0
7, 62928, Note_on_c, 7, 71, 45
7, 62974, Note_on_c, 7, 71, 0
7, 62976, Note_on_c, 7, 73, 45
7, 63136, Note_on_c, 7, 73, 0
7, 63360, Note_on_c, 7, 76, 45
7, 63454, Note_on_c, 7, 76, 0
7, 63456, Note_on_c, 7, 76, 45
7, 63550, Note_on_c, 7, 76, 0
7, 63552, Note_on_c, 7, 76, 45
7, 63646, Note_on_c, 7, 76, 0
7, 63648, Note_on_c, 7, 76, 45
7, 63742, Note_on_c, 7, 76, 0
7, 63744, Note_on_c, 7, 76, 45
7, 63838, Note_on_c, 7, 76, 0
7, 63840, Note_on_c, 7, 76, 45
7, 63934, Note_on_c, 7, 76, 0
7, 63936, Note_on_c, 7, 76, 45
7, 64030, Note_on_c, 7, 76, 0
7, 64032, Note_on_c, 7, 76, 45
7, 64126, Note_on_c, 7, 76, 0
7, 64128, Note_on_c, 7, 76, 45
7, 64222, Note_on_c, 7, 76, 0
7, 64224, Note_on_c, 7, 76, 45
7, 64318, Note_on_c, 7, 76, 0
7, 64320, Note_on_c, 7, 76, 45
7, 64414, Note_on_c, 7, 76, 0
7, 64416, Note_on_c, 7, 76, 45
7, 64510, Note_on_c, 7, 76, 0
7, 64512, Note_on_c, 7, 76, 45
7, 64606, Note_on_c, 7, 76, 0
7, 64608, Note_on_c, 7, 76, 45
7, 64702, Note_on_c, 7, 76, 0
7, 64704, Note_on_c, 7, 76, 45
7, 64798, Note_on_c, 7, 76, 0
7, 64800, Note_on_c, 7, 76, 45
7, 64894, Note_on_c, 7, 76, 0
7, 64896, Note_on_c, 7, 76, 45
7, 64990, Note_on_c, 7, 76, 0
7, 64992, Note_on_c, 7, 76, 45
7, 65086, Note_on_c, 7, 76, 0
7, 65088, Note_on_c, 7, 76, 45
7, 65182, Note_on_c, 7, 76, 0
7, 65184, Note_on_c, 7, 76, 45
7, 65278, Note_on_c, 7, 76, 0
7, 65280, Note_on_c, 7, 76, 45
7, 65374, Note_on_c, 7, 76, 0
7, 65376, Note_on_c, 7, 76, 45
7, 65470, Note_on_c, 7, 76, 0
7, 65472, Note_on_c, 7, 76, 45
7, 65566, Note_on_c, 7, 76, 0
7, 65568, Note_on_c, 7, 76, 45
7, 65662, Note_on_c, 7, 76, 0
7, 65664, Note_on_c, 7, 76, 45
7, 65758, Note_on_c, 7, 76, 0
7, 65760, Note_on_c, 7, 76, 45
7, 65854, Note_on_c, 7, 76, 0
7, 65856, Note_on_c, 7, 76, 45
7, 65950, Note_on_c, 7, 76, 0
7, 65952, Note_on_c, 7, 76, 45
7, 66046, Note_on_c, 7, 76, 0
7, 66048, Note_on_c, 7, 76, 45
7, 66080, Note_on_c, 7, 76, 0
7, 66144, Note_on_c, 7, 77, 45
7, 66240, Note_on_c, 7, 77, 0
7, 66240, Note_on_c, 7, 78, 45
7, 66334, Note_on_c, 7, 78, 0
7, 66336, Note_on_c, 7, 73, 45
7, 66432, Note_on_c, 7, 73, 0
7, 66432, Note_on_c, 7, 74, 45
7, 66526, Note_on_c, 7, 74, 0
7, 66528, Note_on_c, 7, 70, 45
7, 66624, Note_on_c, 7, 70, 0
7, 66624, Note_on_c, 7, 71, 45
7, 66718, Note_on_c, 7, 71, 0
7, 66720, Note_on_c, 7, 67, 45
7, 66814, Note_on_c, 7, 67, 0
7, 66816, Note_on_c, 7, 66, 45
7, 66910, Note_on_c, 7, 66, 0
7, 66912, Note_on_c, 7, 66, 45
7, 67006, Note_on_c, 7, 66, 0
7, 67008, Note_on_c, 7, 66, 45
7, 67102, Note_on_c, 7, 66, 0
7, 67104, Note_on_c, 7, 66, 45
7, 67198, Note_on_c, 7, 66, 0
7, 67200, Note_on_c, 7, 68, 45
7, 67294, Note_on_c, 7, 68, 0
7, 67296, Note_on_c, 7, 68, 45
7, 67390, Note_on_c, 7, 68, 0
7, 67392, Note_on_c, 7, 68, 45
7, 67486, Note_on_c, 7, 68, 0
7, 67488, Note_on_c, 7, 68, 45
7, 67582, Note_on_c, 7, 68, 0
7, 67584, Note_on_c, 7, 69, 45
7, 67678, Note_on_c, 7, 69, 0
7, 67680, Note_on_c, 7, 69, 45
7, 67774, Note_on_c, 7, 69, 0
7, 67776, Note_on_c, 7, 69, 45
7, 67870, Note_on_c, 7, 69, 0
7, 67872, Note_on_c, 7, 69, 45
7, 67966, Note_on_c, 7, 69, 0
7, 67968, Note_on_c, 7, 69, 45
7, 68062, Note_on_c, 7, 69, 0
7, 68064, Note_on_c, 7, 69, 45
7, 68158, Note_on_c, 7, 69, 0
7, 68160, Note_on_c, 7, 68, 45
7, 68254, Note_on_c, 7, 68, 0
7, 68256, Note_on_c, 7, 68, 45
7, 68350, Note_on_c, 7, 68, 0
7, 68352, Note_on_c, 7, 69, 45
7, 68512, Note_on_c, 7, 69, 0
7, 68832, Note_on_c, 7, 69, 45
7, 68926, Note_on_c, 7, 69, 0
7, 68928, Note_on_c, 7, 69, 45
7, 69022, Note_on_c, 7, 69, 0
7, 69024, Note_on_c, 7, 69, 45
7, 69118, Note_on_c, 7, 69, 0
7, 69120, Note_on_c, 7, 71, 45
7, 69280, Note_on_c, 7, 71, 0
7, 69600, Note_on_c, 7, 71, 45
7, 69694, Note_on_c, 7, 71, 0
7, 69696, Note_on_c, 7, 71, 45
7, 69790, Note_on_c, 7, 71, 0
7, 69792, Note_on_c, 7, 71, 45
7, 69886, Note_on_c, 7, 71, 0
7, 69888, Note_on_c, 7, 73, 45
7, 69982, Note_on_c, 7, 73, 0
7, 69984, Note_on_c, 7, 73, 45
7, 70078, Note_on_c, 7, 73, 0
7, 70080, Note_on_c, 7, 73, 45
7, 70174, Note_on_c, 7, 73, 0
7, 70176, Note_on_c, 7, 73, 45
7, 70270, Note_on_c, 7, 73, 0
7, 70272, Note_on_c, 7, 71, 45
7, 70366, Note_on_c, 7, 71, 0
7, 70368, Note_on_c, 7, 71, 45
7, 70462, Note_on_c, 7, 71, 0
7, 70464, Note_on_c, 7, 71, 45
7, 70558, Note_on_c, 7, 71, 0
7, 70560, Note_on_c, 7, 71, 45
7, 70654, Note_on_c, 7, 71, 0
7, 70656, Note_on_c, 7, 69, 45
7, 70816, Note_on_c, 7, 69, 0
7, 71136, Note_on_c, 7, 69, 45
7, 71230, Note_on_c, 7, 69, 0
7, 71232, Note_on_c, 7, 69, 45
7, 71326, Note_on_c, 7, 69, 0
7, 71328, Note_on_c, 7, 69, 45
7, 71422, Note_on_c, 7, 69, 0
7, 71424, Note_on_c, 7, 69, 45
7, 71584, Note_on_c, 7, 69, 0
7, 71904, Note_on_c, 7, 74, 45
7, 71998, Note_on_c, 7, 74, 0
7, 72000, Note_on_c, 7, 74, 45
7, 72094, Note_on_c, 7, 74, 0
7, 72096, Note_on_c, 7, 74, 45
7, 72190, Note_on_c, 7, 74, 0
7, 72192, Note_on_c, 7, 73, 45
7, 72286, Note_on_c, 7, 73, 0
7, 72288, Note_on_c, 7, 73, 45
7, 72382, Note_on_c, 7, 73, 0
7, 72384, Note_on_c, 7, 73, 45
7, 72478, Note_on_c, 7, 73, 0
7, 72480, Note_on_c, 7, 73, 45
7, 72574, Note_on_c, 7, 73, 0
7, 72576, Note_on_c, 7, 73, 45
7, 72670, Note_on_c, 7, 73, 0
7, 72672, Note_on_c, 7, 73, 45
7, 72766, Note_on_c, 7, 73, 0
7, 72768, Note_on_c, 7, 73, 45
7, 72862, Note_on_c, 7, 73, 0
7, 72864, Note_on_c, 7, 73, 45
7, 72958, Note_on_c, 7, 73, 0
7, 72960, Note_on_c, 7, 74, 45
7, 73006, Note_on_c, 7, 74, 0
7, 73008, Note_on_c, 7, 74, 45
7, 73054, Note_on_c, 7, 74, 0
7, 73056, Note_on_c, 7, 74, 45
7, 73102, Note_on_c, 7, 74, 0
7, 73104, Note_on_c, 7, 74, 45
7, 73150, Note_on_c, 7, 74, 0
7, 73152, Note_on_c, 7, 71, 45
7, 73198, Note_on_c, 7, 71, 0
7, 73200, Note_on_c, 7, 71, 48
7, 73246, Note_on_c, 7, 71, 0
7, 73248, Note_on_c, 7, 71, 52
7, 73294, Note_on_c, 7, 71, 0
7, 73296, Note_on_c, 7, 71, 56
7, 73342, Note_on_c, 7, 71, 0
7, 73344, Note_on_c, 7, 86, 60
7, 73390, Note_on_c, 7, 86, 0
7, 73392, Note_on_c, 7, 86, 64
7, 73438, Note_on_c, 7, 86, 0
7, 73440, Note_on_c, 7, 86, 68
7, 73486, Note_on_c, 7, 86, 0
7, 73488, Note_on_c, 7, 86, 72
7, 73534, Note_on_c, 7, 86, 0
7, 73536, Note_on_c, 7, 80, 76
7, 73582, Note_on_c, 7, 80, 0
7, 73584, Note_on_c, 7, 80, 80
7, 73630, Note_on_c, 7, 80, 0
7, 73632, Note_on_c, 7, 80, 84
7, 73678, Note_on_c, 7, 80, 0
7, 73680, Note_on_c, 7, 80, 88
7, 73726, Note_on_c, 7, 80, 0
7, 73728, Note_on_c, 7, 81, 92
7, 73822, Note_on_c, 7, 81, 0
7, 73824, Note_on_c, 7, 81, 92
7, 73984, Note_on_c, 7, 81, 0
7, 74016, Note_on_c, 7, 81, 92
7, 74110, Note_on_c, 7, 81, 0
7, 74112, Note_on_c, 7, 79, 92
7, 74206, Note_on_c, 7, 79, 0
7, 74208, Note_on_c, 7, 79, 92
7, 74368, Note_on_c, 7, 79, 0
7, 74400, Note_on_c, 7, 79, 92
7, 74494, Note_on_c, 7, 79, 0
7, 74496, Note_on_c, 7, 78, 92
7, 74544, Note_on_c, 7, 78, 0
7, 74544, Note_on_c, 7, 80, 92
7, 74590, Note_on_c, 7, 80, 0
7, 74592, Note_on_c, 7, 81, 92
7, 74624, Note_on_c, 7, 81, 0
7, 74640, Note_on_c, 7, 80, 92
7, 74672, Note_on_c, 7, 80, 0
7, 74688, Note_on_c, 7, 81, 92
7, 74782, Note_on_c, 7, 81, 0
7, 74880, Note_on_c, 7, 83, 92
7, 74928, Note_on_c, 7, 83, 0
7, 74928, Note_on_c, 7, 85, 92
7, 74974, Note_on_c, 7, 85, 0
7, 74976, Note_on_c, 7, 86, 92
7, 75008, Note_on_c, 7, 86, 0
7, 75024, Note_on_c, 7, 85, 92
7, 75056, Note_on_c, 7, 85, 0
7, 75072, Note_on_c, 7, 86, 92
7, 75166, Note_on_c, 7, 86, 0
7, 75168, Note_on_c, 7, 83, 92
7, 75262, Note_on_c, 7, 83, 0
7, 75264, Note_on_c, 7, 85, 92
7, 75358, Note_on_c, 7, 85, 0
7, 75360, Note_on_c, 7, 88, 92
7, 75406, Note_on_c, 7, 88, 0
7, 75408, Note_on_c, 7, 85, 92
7, 75454, Note_on_c, 7, 85, 0
7, 75456, Note_on_c, 7, 81, 92
7, 75550, Note_on_c, 7, 81, 0
7, 75552, Note_on_c, 7, 85, 92
7, 75598, Note_on_c, 7, 85, 0
7, 75600, Note_on_c, 7, 81, 92
7, 75646, Note_on_c, 7, 81, 0
7, 75648, Note_on_c, 7, 76, 92
7, 75808, Note_on_c, 7, 76, 0
7, 75840, Note_on_c, 7, 64, 92
7, 75840, Note_on_c, 7, 71, 92
7, 75840, Note_on_c, 7, 80, 92
7, 76000, Note_on_c, 7, 64, 0
7, 76000, Note_on_c, 7, 71, 0
7, 76000, Note_on_c, 7, 80, 0
7, 76032, Note_on_c, 7, 64, 92
7, 76032, Note_on_c, 7, 73, 92
7, 76032, Note_on_c, 7, 81, 92
7, 76192, Note_on_c, 7, 64, 0
7, 76192, Note_on_c, 7, 73, 0
7, 76192, Note_on_c, 7, 81, 0
7, 76224, Note_on_c, 7, 69, 45
7, 76272, Note_on_c, 7, 69, 0
7, 76272, Note_on_c, 7, 71, 45
7, 76318, Note_on_c, 7, 71, 0
7, 76320, Note_on_c, 7, 73, 45
7, 76352, Note_on_c, 7, 73, 0
7, 76368, Note_on_c, 7, 74, 45
7, 76400, Note_on_c, 7, 74, 0
7, 76416, Note_on_c, 7, 76, 45
7, 76448, Note_on_c, 7, 76, 0
7, 76512, Note_on_c, 7, 76, 45
7, 76544, Note_on_c, 7, 76, 0
7, 76608, Note_on_c, 7, 76, 45
7, 76640, Note_on_c, 7, 76, 0
7, 76704, Note_on_c, 7, 76, 45
7, 76736, Note_on_c, 7, 76, 0
7, 76800, Note_on_c, 7, 76, 45
7, 76894, Note_on_c, 7, 76, 0
7, 76992, Note_on_c, 7, 81, 92
7, 77086, Note_on_c, 7, 81, 0
7, 77088, Note_on_c, 7, 76, 92
7, 77182, Note_on_c, 7, 76, 0
7, 77184, Note_on_c, 7, 73, 92
7, 77326, Note_on_c, 7, 73, 0
7, 77328, Note_on_c, 7, 76, 92
7, 77374, Note_on_c, 7, 76, 0
7, 77376, Note_on_c, 7, 76, 92
7, 77422, Note_on_c, 7, 76, 0
7, 77424, Note_on_c, 7, 74, 92
7, 77470, Note_on_c, 7, 74, 0
7, 77472, Note_on_c, 7, 73, 92
7, 77518, Note_on_c, 7, 73, 0
7, 77520, Note_on_c, 7, 71, 92
7, 77566, Note_on_c, 7, 71, 0
7, 77568, Note_on_c, 7, 69, 92
7, 77662, Note_on_c, 7, 69, 0
7, 77760, Note_on_c, 7, 69, 45
7, 77808, Note_on_c, 7, 69, 0
7, 77808, Note_on_c, 7, 71, 45
7, 77854, Note_on_c, 7, 71, 0
7, 77856, Note_on_c, 7, 73, 45
7, 77888, Note_on_c, 7, 73, 0
7, 77904, Note_on_c, 7, 74, 45
7, 77936, Note_on_c, 7, 74, 0
7, 77952, Note_on_c, 7, 76, 45
7, 77998, Note_on_c, 7, 76, 0
7, 78000, Note_on_c, 7, 76, 45
7, 78046, Note_on_c, 7, 76, 0
7, 78048, Note_on_c, 7, 76, 45
7, 78094, Note_on_c, 7, 76, 0
7, 78096, Note_on_c, 7, 76, 45
7, 78142, Note_on_c, 7, 76, 0
7, 78144, Note_on_c, 7, 76, 45
7, 78190, Note_on_c, 7, 76, 0
7, 78192, Note_on_c, 7, 76, 45
7, 78238, Note_on_c, 7, 76, 0
7, 78240, Note_on_c, 7, 76, 45
7, 78286, Note_on_c, 7, 76, 0
7, 78288, Note_on_c, 7, 76, 45
7, 78334, Note_on_c, 7, 76, 0
7, 78336, Note_on_c, 7, 76, 45
7, 78430, Note_on_c, 7, 76, 0
7, 78528, Note_on_c, 7, 81, 92
7, 78622, Note_on_c, 7, 81, 0
7, 78624, Note_on_c, 7, 76, 92
7, 78718, Note_on_c, 7, 76, 0
7, 78720, Note_on_c, 7, 73, 92
7, 78768, Note_on_c, 7, 73, 0
7, 78768, Note_on_c, 7, 76, 92
7, 78814, Note_on_c, 7, 76, 0
7, 78816, Note_on_c, 7, 73, 92
7, 78848, Note_on_c, 7, 73, 0
7, 78864, Note_on_c, 7, 76, 92
7, 78896, Note_on_c, 7, 76, 0
7, 78912, Note_on_c, 7, 76, 92
7, 78958, Note_on_c, 7, 76, 0
7, 78960, Note_on_c, 7, 74, 92
7, 79006, Note_on_c, 7, 74, 0
7, 79008, Note_on_c, 7, 73, 92
7, 79054, Note_on_c, 7, 73, 0
7, 79056, Note_on_c, 7, 71, 92
7, 79102, Note_on_c, 7, 71, 0
7, 79104, Note_on_c, 7, 73, 92
7, 79152, Note_on_c, 7, 73, 0
7, 79152, Note_on_c, 7, 69, 92
7, 79198, Note_on_c, 7, 69, 0
7, 79200, Note_on_c, 7, 76, 92
7, 79232, Note_on_c, 7, 76, 0
7, 79248, Note_on_c, 7, 73, 92
7, 79280, Note_on_c, 7, 73, 0
7, 79296, Note_on_c, 7, 81, 92
7, 79344, Note_on_c, 7, 81, 0
7, 79344, Note_on_c, 7, 76, 92
7, 79390, Note_on_c, 7, 76, 0
7, 79392, Note_on_c, 7, 81, 92
7, 79424, Note_on_c, 7, 81, 0
7, 79440, Note_on_c, 7, 76, 92
7, 79472, Note_on_c, 7, 76, 0
7, 79488, Note_on_c, 7, 85, 92
7, 79536, Note_on_c, 7, 85, 0
7, 79536, Note_on_c, 7, 88, 92
7, 79582, Note_on_c, 7, 88, 0
7, 79584, Note_on_c, 7, 85, 92
7, 79616, Note_on_c, 7, 85, 0
7, 79632, Note_on_c, 7, 88, 92
7, 79664, Note_on_c, 7, 88, 0
7, 79680, Note_on_c, 7, 88, 92
7, 79726, Note_on_c, 7, 88, 0
7, 79728, Note_on_c, 7, 86, 92
7, 79774, Note_on_c, 7, 86, 0
7, 79776, Note_on_c, 7, 85, 92
7, 79822, Note_on_c, 7, 85, 0
7, 79824, Note_on_c, 7, 83, 92
7, 79870, Note_on_c, 7, 83, 0
7, 79872, Note_on_c, 7, 81, 92
7, 79966, Note_on_c, 7, 81, 0
7, 79968, Note_on_c, 7, 69, 92
7, 80062, Note_on_c, 7, 69, 0
7, 80064, Note_on_c, 7, 71, 92
7, 80088, Note_on_c, 7, 71, 0
7, 80088, Note_on_c, 7, 69, 92
7, 80112, Note_on_c, 7, 69, 0
7, 80112, Note_on_c, 7, 71, 92
7, 80136, Note_on_c, 7, 71, 0
7, 80136, Note_on_c, 7, 69, 92
7, 80160, Note_on_c, 7, 69, 0
7, 80160, Note_on_c, 7, 71, 92
7, 80184, Note_on_c, 7, 71, 0
7, 80184, Note_on_c, 7, 69, 92
7, 80208, Note_on_c, 7, 69, 0
7, 80208, Note_on_c, 7, 68, 92
7, 80232, Note_on_c, 7, 68, 0
7, 80232, Note_on_c, 7, 69, 92
7, 80254, Note_on_c, 7, 69, 0
7, 80256, Note_on_c, 7, 73, 92
7, 80288, Note_on_c, 7, 73, 0
7, 80352, Note_on_c, 7, 69, 92
7, 80384, Note_on_c, 7, 69, 0
7, 80448, Note_on_c, 7, 64, 92
7, 80480, Note_on_c, 7, 64, 0
7, 80544, Note_on_c, 7, 61, 92
7, 80576, Note_on_c, 7, 61, 0
7, 80640, Note_on_c, 7, 57, 92
7, 80800, Note_on_c, 7, 57, 0
7, 81408, Note_on_c, 7, 61, 45
7, 81502, Note_on_c, 7, 61, 0
7, 81504, Note_on_c, 7, 61, 45
7, 81598, Note_on_c, 7, 61, 0
7, 81600, Note_on_c, 7, 61, 45
7, 81694, Note_on_c, 7, 61, 0
7, 81696, Note_on_c, 7, 61, 45
7, 81790, Note_on_c, 7, 61, 0
7, 81792, Note_on_c, 7, 61, 45
7, 81886, Note_on_c, 7, 61, 0
7, 81888, Note_on_c, 7, 61, 45
7, 81982, Note_on_c, 7, 61, 0
7, 81984, Note_on_c, 7, 61, 45
7, 82078, Note_on_c, 7, 61, 0
7, 82080, Note_on_c, 7, 61, 45
7, 82174, Note_on_c, 7, 61, 0
7, 82176, Note_on_c, 7, 62, 45
7, 82270, Note_on_c, 7, 62, 0
7, 82272, Note_on_c, 7, 62, 45
7, 82366, Note_on_c, 7, 62, 0
7, 82368, Note_on_c, 7, 62, 45
7, 82462, Note_on_c, 7, 62, 0
7, 82464, Note_on_c, 7, 62, 45
7, 82558, Note_on_c, 7, 62, 0
7, 82560, Note_on_c, 7, 62, 45
7, 82654, Note_on_c, 7, 62, 0
7, 82656, Note_on_c, 7, 62, 45
7, 82750, Note_on_c, 7, 62, 0
7, 82752, Note_on_c, 7, 62, 45
7, 82846, Note_on_c, 7, 62, 0
7, 82848, Note_on_c, 7, 62, 45
7, 82942, Note_on_c, 7, 62, 0
7, 82944, Note_on_c, 7, 67, 45
7, 83038, Note_on_c, 7, 67, 0
7, 83040, Note_on_c, 7, 67, 45
7, 83134, Note_on_c, 7, 67, 0
7, 83136, Note_on_c, 7, 67, 45
7, 83230, Note_on_c, 7, 67, 0
7, 83232, Note_on_c, 7, 67, 45
7, 83326, Note_on_c, 7, 67, 0
7, 83328, Note_on_c, 7, 67, 45
7, 83422, Note_on_c, 7, 67, 0
7, 83424, Note_on_c, 7, 67, 45
7, 83518, Note_on_c, 7, 67, 0
7, 83520, Note_on_c, 7, 67, 45
7, 83614, Note_on_c, 7, 67, 0
7, 83616, Note_on_c, 7, 67, 45
7, 83710, Note_on_c, 7, 67, 0
7, 83712, Note_on_c, 7, 67, 45
7, 83806, Note_on_c, 7, 67, 0
7, 83808, Note_on_c, 7, 67, 45
7, 83902, Note_on_c, 7, 67, 0
7, 83904, Note_on_c, 7, 67, 45
7, 83998, Note_on_c, 7, 67, 0
7, 84000, Note_on_c, 7, 67, 45
7, 84094, Note_on_c, 7, 67, 0
7, 84096, Note_on_c, 7, 67, 45
7, 84190, Note_on_c, 7, 67, 0
7, 84192, Note_on_c, 7, 67, 45
7, 84286, Note_on_c, 7, 67, 0
7, 84288, Note_on_c, 7, 73, 45
7, 84382, Note_on_c, 7, 73, 0
7, 84384, Note_on_c, 7, 73, 45
7, 84478, Note_on_c, 7, 73, 0
7, 84480, Note_on_c, 7, 74, 45
7, 84576, Note_on_c, 7, 74, 0
7, 84576, Note_on_c, 7, 69, 45
7, 84670, Note_on_c, 7, 69, 0
7, 84672, Note_on_c, 7, 69, 45
7, 84704, Note_on_c, 7, 69, 0
7, 84768, Note_on_c, 7, 69, 45
7, 84800, Note_on_c, 7, 69, 0
7, 84864, Note_on_c, 7, 69, 45
7, 84958, Note_on_c, 7, 69, 0
7, 84960, Note_on_c, 7, 69, 45
7, 85054, Note_on_c, 7, 69, 0
7, 85056, Note_on_c, 7, 69, 45
7, 85150, Note_on_c, 7, 69, 0
7, 85152, Note_on_c, 7, 69, 45
7, 85246, Note_on_c, 7, 69, 0
7, 85248, Note_on_c, 7, 66, 45
7, 85342, Note_on_c, 7, 66, 0
7, 85344, Note_on_c, 7, 66, 45
7, 85438, Note_on_c, 7, 66, 0
7, 85440, Note_on_c, 7, 66, 45
7, 85534, Note_on_c, 7, 66, 0
7, 85536, Note_on_c, 7, 66, 45
7, 85630, Note_on_c, 7, 66, 0
7, 85632, Note_on_c, 7, 66, 45
7, 85726, Note_on_c, 7, 66, 0
7, 85728, Note_on_c, 7, 66, 45
7, 85822, Note_on_c, 7, 66, 0
7, 85824, Note_on_c, 7, 66, 45
7, 85918, Note_on_c, 7, 66, 0
7, 85920, Note_on_c, 7, 66, 45
7, 86014, Note_on_c, 7, 66, 0
7, 86016, Note_on_c, 7, 65, 45
7, 86110, Note_on_c, 7, 65, 0
7, 86112, Note_on_c, 7, 65, 45
7, 86206, Note_on_c, 7, 65, 0
7, 86208, Note_on_c, 7, 62, 45
7, 86302, Note_on_c, 7, 62, 0
7, 86304, Note_on_c, 7, 62, 45
7, 86398, Note_on_c, 7, 62, 0
7, 86400, Note_on_c, 7, 64, 45
7, 86494, Note_on_c, 7, 64, 0
7, 86496, Note_on_c, 7, 64, 45
7, 86590, Note_on_c, 7, 64, 0
7, 86592, Note_on_c, 7, 65, 45
7, 86686, Note_on_c, 7, 65, 0
7, 86688, Note_on_c, 7, 65, 45
7, 86782, Note_on_c, 7, 65, 0
7, 86784, Note_on_c, 7, 64, 45
7, 86944, Note_on_c, 7, 64, 0
7, 87456, Note_on_c, 7, 74, 45
7, 87552, Note_on_c, 7, 74, 0
7, 87552, Note_on_c, 7, 73, 45
7, 87712, Note_on_c, 7, 73, 0
7, 88224, Note_on_c, 7, 74, 45
7, 88320, Note_on_c, 7, 74, 0
7, 88320, Note_on_c, 7, 73, 45
7, 88414, Note_on_c, 7, 73, 0
7, 88416, Note_on_c, 7, 73, 45
7, 88448, Note_on_c, 7, 73, 0
7, 88512, Note_on_c, 7, 73, 45
7, 88544, Note_on_c, 7, 73, 0
7, 88608, Note_on_c, 7, 73, 45
7, 88640, Note_on_c, 7, 73, 0
7, 88704, Note_on_c, 7, 74, 45
7, 88798, Note_on_c, 7, 74, 0
7, 88800, Note_on_c, 7, 74, 45
7, 88894, Note_on_c, 7, 74, 0
7, 88896, Note_on_c, 7, 74, 45
7, 88990, Note_on_c, 7, 74, 0
7, 88992, Note_on_c, 7, 74, 45
7, 89086, Note_on_c, 7, 74, 0
7, 89088, Note_on_c, 7, 76, 45
7, 89182, Note_on_c, 7, 76, 0
7, 89184, Note_on_c, 7, 76, 45
7, 89278, Note_on_c, 7, 76, 0
7, 89280, Note_on_c, 7, 76, 45
7, 89374, Note_on_c, 7, 76, 0
7, 89376, Note_on_c, 7, 76, 45
7, 89470, Note_on_c, 7, 76, 0
7, 89472, Note_on_c, 7, 78, 45
7, 89566, Note_on_c, 7, 78, 0
7, 89568, Note_on_c, 7, 78, 45
7, 89662, Note_on_c, 7, 78, 0
7, 89664, Note_on_c, 7, 78, 45
7, 89758, Note_on_c, 7, 78, 0
7, 89760, Note_on_c, 7, 78, 45
7, 89854, Note_on_c, 7, 78, 0
7, 89856, Note_on_c, 7, 79, 45
7, 89950, Note_on_c, 7, 79, 0
7, 90048, Note_on_c, 7, 64, 45
7, 90142, Note_on_c, 7, 64, 0
7, 90144, Note_on_c, 7, 66, 45
7, 90238, Note_on_c, 7, 66, 0
7, 90240, Note_on_c, 7, 67, 45
7, 90334, Note_on_c, 7, 67, 0
7, 90432, Note_on_c, 7, 64, 45
7, 90526, Note_on_c, 7, 64, 0
7, 90528, Note_on_c, 7, 66, 45
7, 90622, Note_on_c, 7, 66, 0
7, 90624, Note_on_c, 7, 67, 45
7, 90718, Note_on_c, 7, 67, 0
7, 90816, Note_on_c, 7, 76, 45
7, 90910, Note_on_c, 7, 76, 0
7, 91008, Note_on_c, 7, 79, 45
7, 91102, Note_on_c, 7, 79, 0
7, 91200, Note_on_c, 7, 73, 45
7, 91294, Note_on_c, 7, 73, 0
7, 91392, Note_on_c, 7, 57, 92
7, 91392, Note_on_c, 7, 66, 92
7, 91392, Note_on_c, 7, 74, 92
7, 91552, Note_on_c, 7, 57, 0
7, 91552, Note_on_c, 7, 66, 0
7, 91552, Note_on_c, 7, 74, 0
7, 91584, Note_on_c, 7, 74, 92
7, 91920, Note_on_c, 7, 74, 0
7, 91968, Note_on_c, 7, 73, 92
7, 92016, Note_on_c, 7, 73, 0
7, 92016, Note_on_c, 7, 74, 92
7, 92062, Note_on_c, 7, 74, 0
7, 92064, Note_on_c, 7, 73, 92
7, 92112, Note_on_c, 7, 73, 0
7, 92112, Note_on_c, 7, 74, 92
7, 92158, Note_on_c, 7, 74, 0
7, 92160, Note_on_c, 7, 79, 92
7, 92320, Note_on_c, 7, 79, 0
7, 92352, Note_on_c, 7, 79, 92
7, 92688, Note_on_c, 7, 79, 0
7, 92736, Note_on_c, 7, 79, 92
7, 92896, Note_on_c, 7, 79, 0
7, 92928, Note_on_c, 7, 77, 45
7, 93024, Note_on_c, 7, 77, 0
7, 93024, Note_on_c, 7, 78, 45
7, 93118, Note_on_c, 7, 78, 0
7, 93120, Note_on_c, 7, 78, 45
7, 93456, Note_on_c, 7, 78, 0
7, 93504, Note_on_c, 7, 79, 45
7, 93552, Note_on_c, 7, 79, 0
7, 93552, Note_on_c, 7, 78, 45
7, 93598, Note_on_c, 7, 78, 0
7, 93600, Note_on_c, 7, 79, 45
7, 93648, Note_on_c, 7, 79, 0
7, 93648, Note_on_c, 7, 78, 45
7, 93694, Note_on_c, 7, 78, 0
7, 93696, Note_on_c, 7, 83, 45
7, 93856, Note_on_c, 7, 83, 0
7, 93888, Note_on_c, 7, 83, 45
7, 94224, Note_on_c, 7, 83, 0
7, 94272, Note_on_c, 7, 83, 45
7, 94432, Note_on_c, 7, 83, 0
7, 94464, Note_on_c, 7, 80, 45
7, 94560, Note_on_c, 7, 80, 0
7, 94560, Note_on_c, 7, 81, 45
7, 94654, Note_on_c, 7, 81, 0
7, 94656, Note_on_c, 7, 81, 45
7, 94688, Note_on_c, 7, 81, 0
7, 94752, Note_on_c, 7, 81, 45
7, 94784, Note_on_c, 7, 81, 0
7, 94944, Note_on_c, 7, 81, 45
7, 94976, Note_on_c, 7, 81, 0
7, 95040, Note_on_c, 7, 81, 45
7, 95072, Note_on_c, 7, 81, 0
7, 95136, Note_on_c, 7, 81, 45
7, 95168, Note_on_c, 7, 81, 0
7, 95328, Note_on_c, 7, 79, 45
7, 95422, Note_on_c, 7, 79, 0
7, 95424, Note_on_c, 7, 79, 45
7, 95518, Note_on_c, 7, 79, 0
7, 95520, Note_on_c, 7, 79, 45
7, 95614, Note_on_c, 7, 79, 0
7, 95712, Note_on_c, 7, 78, 45
7, 95806, Note_on_c, 7, 78, 0
7, 95808, Note_on_c, 7, 78, 45
7, 95902, Note_on_c, 7, 78, 0
7, 95904, Note_on_c, 7, 78, 45
7, 95998, Note_on_c, 7, 78, 0
7, 96096, Note_on_c, 7, 71, 45
7, 96190, Note_on_c, 7, 71, 0
7, 96192, Note_on_c, 7, 71, 45
7, 96286, Note_on_c, 7, 71, 0
7, 96288, Note_on_c, 7, 71, 45
7, 96382, Note_on_c, 7, 71, 0
7, 96480, Note_on_c, 7, 72, 45
7, 96574, Note_on_c, 7, 72, 0
7, 96576, Note_on_c, 7, 72, 45
7, 96670, Note_on_c, 7, 72, 0
7, 96672, Note_on_c, 7, 72, 45
7, 96766, Note_on_c, 7, 72, 0
7, 96864, Note_on_c, 7, 71, 45
7, 96958, Note_on_c, 7, 71, 0
7, 96960, Note_on_c, 7, 71, 45
7, 97054, Note_on_c, 7, 71, 0
7, 97056, Note_on_c, 7, 71, 45
7, 97150, Note_on_c, 7, 71, 0
7, 97152, Note_on_c, 7, 69, 45
7, 97246, Note_on_c, 7, 69, 0
7, 97248, Note_on_c, 7, 69, 45
7, 97342, Note_on_c, 7, 69, 0
7, 97344, Note_on_c, 7, 69, 45
7, 97438, Note_on_c, 7, 69, 0
7, 97440, Note_on_c, 7, 69, 45
7, 97534, Note_on_c, 7, 69, 0
7, 97632, Note_on_c, 7, 67, 45
7, 97726, Note_on_c, 7, 67, 0
7, 97728, Note_on_c, 7, 71, 45
7, 97822, Note_on_c, 7, 71, 0
7, 97824, Note_on_c, 7, 76, 45
7, 97918, Note_on_c, 7, 76, 0
7, 97920, Note_on_c, 7, 79, 45
7, 98016, Note_on_c, 7, 79, 0
7, 98016, Note_on_c, 7, 83, 45
7, 98110, Note_on_c, 7, 83, 0
7, 98112, Note_on_c, 7, 83, 45
7, 98144, Note_on_c, 7, 83, 0
7, 98208, Note_on_c, 7, 83, 45
7, 98240, Note_on_c, 7, 83, 0
7, 98400, Note_on_c, 7, 81, 45
7, 98494, Note_on_c, 7, 81, 0
7, 98496, Note_on_c, 7, 81, 45
7, 98590, Note_on_c, 7, 81, 0
7, 98592, Note_on_c, 7, 81, 45
7, 98686, Note_on_c, 7, 81, 0
7, 98784, Note_on_c, 7, 79, 45
7, 98878, Note_on_c, 7, 79, 0
7, 98880, Note_on_c, 7, 79, 45
7, 98974, Note_on_c, 7, 79, 0
7, 98976, Note_on_c, 7, 79, 45
7, 99070, Note_on_c, 7, 79, 0
7, 99168, Note_on_c, 7, 78, 45
7, 99262, Note_on_c, 7, 78, 0
7, 99264, Note_on_c, 7, 78, 45
7, 99358, Note_on_c, 7, 78, 0
7, 99360, Note_on_c, 7, 78, 45
7, 99454, Note_on_c, 7, 78, 0
7, 99552, Note_on_c, 7, 76, 45
7, 99646, Note_on_c, 7, 76, 0
7, 99648, Note_on_c, 7, 76, 45
7, 99742, Note_on_c, 7, 76, 0
7, 99744, Note_on_c, 7, 76, 45
7, 99838, Note_on_c, 7, 76, 0
7, 99840, Note_on_c, 7, 74, 45
7, 99936, Note_on_c, 7, 74, 0
7, 99936, Note_on_c, 7, 69, 45
7, 100030, Note_on_c, 7, 69, 0
7, 100032, Note_on_c, 7, 69, 45
7, 100064, Note_on_c, 7, 69, 0
7, 100128, Note_on_c, 7, 69, 45
7, 100160, Note_on_c, 7, 69, 0
7, 100224, Note_on_c, 7, 69, 45
7, 100320, Note_on_c, 7, 69, 0
7, 100320, Note_on_c, 7, 66, 45
7, 100414, Note_on_c, 7, 66, 0
7, 100416, Note_on_c, 7, 67, 45
7, 100512, Note_on_c, 7, 67, 0
7, 100512, Note_on_c, 7, 64, 45
7, 100606, Note_on_c, 7, 64, 0
7, 100608, Note_on_c, 7, 62, 45
7, 100768, Note_on_c, 7, 62, 0
7, 101088, Note_on_c, 7, 66, 45
7, 101184, Note_on_c, 7, 66, 0
7, 101184, Note_on_c, 7, 67, 45
7, 101280, Note_on_c, 7, 67, 0
7, 101280, Note_on_c, 7, 69, 45
7, 101374, Note_on_c, 7, 69, 0
7, 101376, Note_on_c, 7, 71, 45
7, 101470, Note_on_c, 7, 71, 0
7, 101472, Note_on_c, 7, 71, 45
7, 101566, Note_on_c, 7, 71, 0
7, 101568, Note_on_c, 7, 71, 45
7, 101662, Note_on_c, 7, 71, 0
7, 101664, Note_on_c, 7, 71, 45
7, 101758, Note_on_c, 7, 71, 0
7, 101760, Note_on_c, 7, 72, 45
7, 101854, Note_on_c, 7, 72, 0
7, 101856, Note_on_c, 7, 72, 45
7, 101950, Note_on_c, 7, 72, 0
7, 101952, Note_on_c, 7, 72, 45
7, 102046, Note_on_c, 7, 72, 0
7, 102048, Note_on_c, 7, 72, 45
7, 102142, Note_on_c, 7, 72, 0
7, 102144, Note_on_c, 7, 71, 45
7, 102238, Note_on_c, 7, 71, 0
7, 102240, Note_on_c, 7, 71, 45
7, 102334, Note_on_c, 7, 71, 0
7, 102336, Note_on_c, 7, 71, 45
7, 102430, Note_on_c, 7, 71, 0
7, 102432, Note_on_c, 7, 71, 45
7, 102526, Note_on_c, 7, 71, 0
7, 102528, Note_on_c, 7, 72, 45
7, 102622, Note_on_c, 7, 72, 0
7, 102624, Note_on_c, 7, 72, 45
7, 102718, Note_on_c, 7, 72, 0
7, 102720, Note_on_c, 7, 72, 45
7, 102814, Note_on_c, 7, 72, 0
7, 102816, Note_on_c, 7, 72, 45
7, 102910, Note_on_c, 7, 72, 0
7, 102912, Note_on_c, 7, 71, 45
7, 103006, Note_on_c, 7, 71, 0
7, 103008, Note_on_c, 7, 71, 45
7, 103102, Note_on_c, 7, 71, 0
7, 103104, Note_on_c, 7, 71, 45
7, 103198, Note_on_c, 7, 71, 0
7, 103200, Note_on_c, 7, 71, 45
7, 103294, Note_on_c, 7, 71, 0
7, 103296, Note_on_c, 7, 71, 45
7, 103390, Note_on_c, 7, 71, 0
7, 103392, Note_on_c, 7, 71, 45
7, 103486, Note_on_c, 7, 71, 0
7, 103488, Note_on_c, 7, 71, 45
7, 103582, Note_on_c, 7, 71, 0
7, 103584, Note_on_c, 7, 71, 45
7, 103678, Note_on_c, 7, 71, 0
7, 103680, Note_on_c, 7, 64, 45
7, 103840, Note_on_c, 7, 64, 0
7, 105312, Note_on_c, 7, 67, 45
7, 105406, Note_on_c, 7, 67, 0
7, 105408, Note_on_c, 7, 67, 45
7, 105502, Note_on_c, 7, 67, 0
7, 105504, Note_on_c, 7, 67, 45
7, 105598, Note_on_c, 7, 67, 0
7, 105600, Note_on_c, 7, 67, 45
7, 105694, Note_on_c, 7, 67, 0
7, 105696, Note_on_c, 7, 67, 45
7, 105790, Note_on_c, 7, 67, 0
7, 105792, Note_on_c, 7, 67, 45
7, 105886, Note_on_c, 7, 67, 0
7, 105888, Note_on_c, 7, 67, 45
7, 105982, Note_on_c, 7, 67, 0
7, 105984, Note_on_c, 7, 66, 45
7, 106144, Note_on_c, 7, 66, 0
7, 106848, Note_on_c, 7, 66, 45
7, 106942, Note_on_c, 7, 66, 0
7, 106944, Note_on_c, 7, 66, 45
7, 107038, Note_on_c, 7, 66, 0
7, 107040, Note_on_c, 7, 66, 45
7, 107134, Note_on_c, 7, 66, 0
7, 107136, Note_on_c, 7, 66, 45
7, 107230, Note_on_c, 7, 66, 0
7, 107232, Note_on_c, 7, 66, 45
7, 107326, Note_on_c, 7, 66, 0
7, 107328, Note_on_c, 7, 66, 45
7, 107422, Note_on_c, 7, 66, 0
7, 107424, Note_on_c, 7, 66, 45
7, 107518, Note_on_c, 7, 66, 0
7, 107520, Note_on_c, 7, 67, 45
7, 107680, Note_on_c, 7, 67, 0
7, 108384, Note_on_c, 7, 67, 45
7, 108478, Note_on_c, 7, 67, 0
7, 108480, Note_on_c, 7, 67, 45
7, 108574, Note_on_c, 7, 67, 0
7, 108576, Note_on_c, 7, 67, 45
7, 108670, Note_on_c, 7, 67, 0
7, 108672, Note_on_c, 7, 67, 45
7, 108766, Note_on_c, 7, 67, 0
7, 108768, Note_on_c, 7, 67, 45
7, 108862, Note_on_c, 7, 67, 0
7, 108864, Note_on_c, 7, 67, 45
7, 108958, Note_on_c, 7, 67, 0
7, 108960, Note_on_c, 7, 67, 45
7, 109054, Note_on_c, 7, 67, 0
7, 109056, Note_on_c, 7, 66, 45
7, 109150, Note_on_c, 7, 66, 0
7, 109248, Note_on_c, 7, 78, 45
7, 109296, Note_on_c, 7, 78, 0
7, 109296, Note_on_c, 7, 81, 45
7, 109342, Note_on_c, 7, 81, 0
7, 109344, Note_on_c, 7, 79, 45
7, 109392, Note_on_c, 7, 79, 0
7, 109392, Note_on_c, 7, 83, 45
7, 109438, Note_on_c, 7, 83, 0
7, 109440, Note_on_c, 7, 81, 45
7, 109534, Note_on_c, 7, 81, 0
7, 109824, Note_on_c, 7, 79, 45
7, 109918, Note_on_c, 7, 79, 0
7, 110016, Note_on_c, 7, 79, 45
7, 110064, Note_on_c, 7, 79, 0
7, 110064, Note_on_c, 7, 83, 45
7, 110110, Note_on_c, 7, 83, 0
7, 110112, Note_on_c, 7, 81, 45
7, 110160, Note_on_c, 7, 81, 0
7, 110160, Note_on_c, 7, 84, 45
7, 110206, Note_on_c, 7, 84, 0
7, 110208, Note_on_c, 7, 83, 45
7, 110302, Note_on_c, 7, 83, 0
7, 110592, Note_on_c, 7, 81, 45
7, 110686, Note_on_c, 7, 81, 0
7, 110784, Note_on_c, 7, 69, 45
7, 110832, Note_on_c, 7, 69, 0
7, 110832, Note_on_c, 7, 72, 45
7, 110878, Note_on_c, 7, 72, 0
7, 110880, Note_on_c, 7, 71, 45
7, 110928, Note_on_c, 7, 71, 0
7, 110928, Note_on_c, 7, 74, 45
7, 110974, Note_on_c, 7, 74, 0
7, 110976, Note_on_c, 7, 72, 45
7, 111070, Note_on_c, 7, 72, 0
7, 111408, Note_on_c, 7, 71, 45
7, 111456, Note_on_c, 7, 71, 0
7, 111456, Note_on_c, 7, 69, 45
7, 111504, Note_on_c, 7, 69, 0
7, 111504, Note_on_c, 7, 71, 45
7, 111552, Note_on_c, 7, 71, 0
7, 111552, Note_on_c, 7, 72, 45
7, 111600, Note_on_c, 7, 72, 0
7, 111600, Note_on_c, 7, 71, 45
7, 111648, Note_on_c, 7, 71, 0
7, 111648, Note_on_c, 7, 69, 45
7, 111696, Note_on_c, 7, 69, 0
7, 111696, Note_on_c, 7, 71, 45
7, 111742, Note_on_c, 7, 71, 0
7, 111792, Note_on_c, 7, 69, 45
7, 111840, Note_on_c, 7, 69, 0
7, 111840, Note_on_c, 7, 67, 45
7, 111888, Note_on_c, 7, 67, 0
7, 111888, Note_on_c, 7, 69, 45
7, 111936, Note_on_c, 7, 69, 0
7, 111936, Note_on_c, 7, 71, 45
7, 111984, Note_on_c, 7, 71, 0
7, 111984, Note_on_c, 7, 69, 45
7, 112032, Note_on_c, 7, 69, 0
7, 112032, Note_on_c, 7, 67, 45
7, 112080, Note_on_c, 7, 67, 0
7, 112080, Note_on_c, 7, 69, 45
7, 112126, Note_on_c, 7, 69, 0
7, 112128, Note_on_c, 7, 68, 92
7, 112222, Note_on_c, 7, 68, 0
7, 112224, Note_on_c, 7, 68, 45
7, 112318, Note_on_c, 7, 68, 0
7, 112320, Note_on_c, 7, 68, 45
7, 112414, Note_on_c, 7, 68, 0
7, 112416, Note_on_c, 7, 68, 45
7, 112510, Note_on_c, 7, 68, 0
7, 112512, Note_on_c, 7, 77, 45
7, 112606, Note_on_c, 7, 77, 0
7, 112608, Note_on_c, 7, 77, 45
7, 112702, Note_on_c, 7, 77, 0
7, 112704, Note_on_c, 7, 77, 45
7, 112798, Note_on_c, 7, 77, 0
7, 112800, Note_on_c, 7, 77, 45
7, 112894, Note_on_c, 7, 77, 0
7, 112896, Note_on_c, 7, 78, 45
7, 112992, Note_on_c, 7, 78, 0
7, 112992, Note_on_c, 7, 76, 45
7, 113086, Note_on_c, 7, 76, 0
7, 113088, Note_on_c, 7, 76, 45
7, 113120, Note_on_c, 7, 76, 0
7, 113184, Note_on_c, 7, 76, 45
7, 113216, Note_on_c, 7, 76, 0
7, 113376, Note_on_c, 7, 76, 45
7, 113472, Note_on_c, 7, 76, 0
7, 113472, Note_on_c, 7, 83, 45
7, 113566, Note_on_c, 7, 83, 0
7, 113568, Note_on_c, 7, 83, 45
7, 113600, Note_on_c, 7, 83, 0
7, 113760, Note_on_c, 7, 81, 45
7, 113854, Note_on_c, 7, 81, 0
7, 113952, Note_on_c, 7, 74, 45
7, 114046, Note_on_c, 7, 74, 0
7, 114144, Note_on_c, 7, 74, 45
7, 114238, Note_on_c, 7, 74, 0
7, 114336, Note_on_c, 7, 79, 45
7, 114430, Note_on_c, 7, 79, 0
7, 114432, Note_on_c, 7, 78, 45
7, 114526, Note_on_c, 7, 78, 0
7, 114528, Note_on_c, 7, 78, 45
7, 114622, Note_on_c, 7, 78, 0
7, 114624, Note_on_c, 7, 78, 45
7, 114718, Note_on_c, 7, 78, 0
7, 114720, Note_on_c, 7, 78, 45
7, 114814, Note_on_c, 7, 78, 0
7, 114816, Note_on_c, 7, 79, 45
7, 114912, Note_on_c, 7, 79, 0
7, 114912, Note_on_c, 7, 76, 45
7, 115006, Note_on_c, 7, 76, 0
7, 115008, Note_on_c, 7, 76, 45
7, 115104, Note_on_c, 7, 76, 0
7, 115104, Note_on_c, 7, 73, 45
7, 115198, Note_on_c, 7, 73, 0
7, 115200, Note_on_c, 7, 74, 92
7, 115270, Note_on_c, 7, 74, 0
7, 115272, Note_on_c, 7, 76, 92
7, 115294, Note_on_c, 7, 76, 0
7, 115296, Note_on_c, 7, 74, 92
7, 115342, Note_on_c, 7, 74, 0
7, 115344, Note_on_c, 7, 73, 92
7, 115390, Note_on_c, 7, 73, 0
7, 115392, Note_on_c, 7, 74, 92
7, 115486, Note_on_c, 7, 74, 0
7, 115488, Note_on_c, 7, 76, 92
7, 115582, Note_on_c, 7, 76, 0
7, 115584, Note_on_c, 7, 78, 92
7, 115654, Note_on_c, 7, 78, 0
7, 115656, Note_on_c, 7, 79, 92
7, 115678, Note_on_c, 7, 79, 0
7, 115680, Note_on_c, 7, 78, 92
7, 115726, Note_on_c, 7, 78, 0
7, 115728, Note_on_c, 7, 76, 92
7, 115774, Note_on_c, 7, 76, 0
7, 115776, Note_on_c, 7, 78, 92
7, 115870, Note_on_c, 7, 78, 0
7, 115872, Note_on_c, 7, 80, 92
7, 115966, Note_on_c, 7, 80, 0
7, 115968, Note_on_c, 7, 81, 92
7, 116128, Note_on_c, 7, 81, 0
7, 116160, Note_on_c, 7, 76, 92
7, 116160, Note_on_c, 7, 85, 92
7, 116320, Note_on_c, 7, 76, 0
7, 116320, Note_on_c, 7, 85, 0
7, 116352, Note_on_c, 7, 64, 92
7, 116352, Note_on_c, 7, 73, 92
7, 116352, Note_on_c, 7, 81, 92
7, 116512, Note_on_c, 7, 64, 0
7, 116512, Note_on_c, 7, 73, 0
7, 116512, Note_on_c, 7, 81, 0
7, 117504, Note_on_c, 7, 62, 45
7, 117552, Note_on_c, 7, 62, 0
7, 117552, Note_on_c, 7, 64, 45
7, 117600, Note_on_c, 7, 64, 0
7, 117600, Note_on_c, 7, 62, 45
7, 117648, Note_on_c, 7, 62, 0
7, 117648, Note_on_c, 7, 64, 45
7, 117696, Note_on_c, 7, 64, 0
7, 117696, Note_on_c, 7, 62, 45
7, 117744, Note_on_c, 7, 62, 0
7, 117744, Note_on_c, 7, 64, 45
7, 117792, Note_on_c, 7, 64, 0
7, 117792, Note_on_c, 7, 62, 45
7, 117840, Note_on_c, 7, 62, 0
7, 117840, Note_on_c, 7, 64, 45
7, 117886, Note_on_c, 7, 64, 0
7, 117888, Note_on_c, 7, 60, 45
7, 117936, Note_on_c, 7, 60, 0
7, 117936, Note_on_c, 7, 62, 45
7, 117984, Note_on_c, 7, 62, 0
7, 117984, Note_on_c, 7, 60, 45
7, 118032, Note_on_c, 7, 60, 0
7, 118032, Note_on_c, 7, 62, 45
7, 118080, Note_on_c, 7, 62, 0
7, 118080, Note_on_c, 7, 60, 45
7, 118128, Note_on_c, 7, 60, 0
7, 118128, Note_on_c, 7, 62, 45
7, 118176, Note_on_c, 7, 62, 0
7, 118176, Note_on_c, 7, 60, 45
7, 118224, Note_on_c, 7, 60, 0
7, 118224, Note_on_c, 7, 62, 45
7, 118270, Note_on_c, 7, 62, 0
7, 118272, Note_on_c, 7, 59, 45
7, 118320, Note_on_c, 7, 59, 0
7, 118320, Note_on_c, 7, 60, 45
7, 118368, Note_on_c, 7, 60, 0
7, 118368, Note_on_c, 7, 59, 45
7, 118416, Note_on_c, 7, 59, 0
7, 118416, Note_on_c, 7, 60, 45
7, 118464, Note_on_c, 7, 60, 0
7, 118464, Note_on_c, 7, 59, 45
7, 118512, Note_on_c, 7, 59, 0
7, 118512, Note_on_c, 7, 60, 45
7, 118560, Note_on_c, 7, 60, 0
7, 118560, Note_on_c, 7, 59, 45
7, 118608, Note_on_c, 7, 59, 0
7, 118608, Note_on_c, 7, 62, 45
7, 118654, Note_on_c, 7, 62, 0
7, 118656, Note_on_c, 7, 61, 45
7, 118704, Note_on_c, 7, 61, 0
7, 118704, Note_on_c, 7, 62, 45
7, 118752, Note_on_c, 7, 62, 0
7, 118752, Note_on_c, 7, 61, 45
7, 118800, Note_on_c, 7, 61, 0
7, 118800, Note_on_c, 7, 62, 45
7, 118848, Note_on_c, 7, 62, 0
7, 118848, Note_on_c, 7, 61, 45
7, 118896, Note_on_c, 7, 61, 0
7, 118896, Note_on_c, 7, 62, 45
7, 118944, Note_on_c, 7, 62, 0
7, 118944, Note_on_c, 7, 61, 45
7, 118992, Note_on_c, 7, 61, 0
7, 118992, Note_on_c, 7, 64, 45
7, 119038, Note_on_c, 7, 64, 0
7, 119040, Note_on_c, 7, 62, 45
7, 119088, Note_on_c, 7, 62, 0
7, 119088, Note_on_c, 7, 64, 45
7, 119136, Note_on_c, 7, 64, 0
7, 119136, Note_on_c, 7, 62, 45
7, 119184, Note_on_c, 7, 62, 0
7, 119184, Note_on_c, 7, 64, 45
7, 119232, Note_on_c, 7, 64, 0
7, 119232, Note_on_c, 7, 62, 45
7, 119280, Note_on_c, 7, 62, 0
7, 119280, Note_on_c, 7, 64, 45
7, 119328, Note_on_c, 7, 64, 0
7, 119328, Note_on_c, 7, 62, 45
7, 119376, Note_on_c, 7, 62, 0
7, 119376, Note_on_c, 7, 64, 45
7, 119422, Note_on_c, 7, 64, 0
7, 119424, Note_on_c, 7, 60, 45
7, 119472, Note_on_c, 7, 60, 0
7, 119472, Note_on_c, 7, 62, 45
7, 119520, Note_on_c, 7, 62, 0
7, 119520, Note_on_c, 7, 60, 45
7, 119568, Note_on_c, 7, 60, 0
7, 119568, Note_on_c, 7, 62, 45
7, 119616, Note_on_c, 7, 62, 0
7, 119616, Note_on_c, 7, 60, 45
7, 119664, Note_on_c, 7, 60, 0
7, 119664, Note_on_c, 7, 62, 45
7, 119712, Note_on_c, 7, 62, 0
7, 119712, Note_on_c, 7, 60, 45
7, 119760, Note_on_c, 7, 60, 0
7, 119760, Note_on_c, 7, 62, 45
7, 119806, Note_on_c, 7, 62, 0
7, 119808, Note_on_c, 7, 59, 45
7, 119854, Note_on_c, 7, 59, 0
7, 119856, Note_on_c, 7, 60, 45
7, 119902, Note_on_c, 7, 60, 0
7, 119904, Note_on_c, 7, 59, 45
7, 119950, Note_on_c, 7, 59, 0
7, 119952, Note_on_c, 7, 60, 45
7, 119998, Note_on_c, 7, 60, 0
7, 120000, Note_on_c, 7, 59, 45
7, 120046, Note_on_c, 7, 59, 0
7, 120048, Note_on_c, 7, 60, 45
7, 120094, Note_on_c, 7, 60, 0
7, 120096, Note_on_c, 7, 59, 45
7, 120142, Note_on_c, 7, 59, 0
7, 120144, Note_on_c, 7, 62, 45
7, 120190, Note_on_c, 7, 62, 0
7, 120192, Note_on_c, 7, 61, 45
7, 120238, Note_on_c, 7, 61, 0
7, 120240, Note_on_c, 7, 62, 45
7, 120286, Note_on_c, 7, 62, 0
7, 120288, Note_on_c, 7, 61, 45
7, 120334, Note_on_c, 7, 61, 0
7, 120336, Note_on_c, 7, 62, 45
7, 120382, Note_on_c, 7, 62, 0
7, 120384, Note_on_c, 7, 61, 45
7, 120430, Note_on_c, 7, 61, 0
7, 120432, Note_on_c, 7, 62, 45
7, 120478, Note_on_c, 7, 62, 0
7, 120480, Note_on_c, 7, 61, 45
7, 120526, Note_on_c, 7, 61, 0
7, 120528, Note_on_c, 7, 64, 45
7, 120574, Note_on_c, 7, 64, 0
7, 120576, Note_on_c, 7, 66, 45
7, 120736, Note_on_c, 7, 66, 0
7, 120960, Note_on_c, 7, 69, 45
7, 121054, Note_on_c, 7, 69, 0
7, 121056, Note_on_c, 7, 69, 45
7, 121150, Note_on_c, 7, 69, 0
7, 121152, Note_on_c, 7, 69, 45
7, 121246, Note_on_c, 7, 69, 0
7, 121248, Note_on_c, 7, 69, 45
7, 121342, Note_on_c, 7, 69, 0
7, 121344, Note_on_c, 7, 69, 45
7, 121438, Note_on_c, 7, 69, 0
7, 121440, Note_on_c, 7, 69, 45
7, 121534, Note_on_c, 7, 69, 0
7, 121536, Note_on_c, 7, 69, 45
7, 121630, Note_on_c, 7, 69, 0
7, 121632, Note_on_c, 7, 69, 45
7, 121726, Note_on_c, 7, 69, 0
7, 121728, Note_on_c, 7, 69, 45
7, 121822, Note_on_c, 7, 69, 0
7, 121824, Note_on_c, 7, 69, 45
7, 121918, Note_on_c, 7, 69, 0
7, 121920, Note_on_c, 7, 69, 45
7, 122014, Note_on_c, 7, 69, 0
7, 122016, Note_on_c, 7, 69, 45
7, 122110, Note_on_c, 7, 69, 0
7, 122112, Note_on_c, 7, 69, 45
7, 122206, Note_on_c, 7, 69, 0
7, 122208, Note_on_c, 7, 69, 45
7, 122302, Note_on_c, 7, 69, 0
7, 122304, Note_on_c, 7, 69, 45
7, 122398, Note_on_c, 7, 69, 0
7, 122400, Note_on_c, 7, 69, 45
7, 122494, Note_on_c, 7, 69, 0
7, 122496, Note_on_c, 7, 69, 45
7, 122590, Note_on_c, 7, 69, 0
7, 122592, Note_on_c, 7, 69, 45
7, 122686, Note_on_c, 7, 69, 0
7, 122688, Note_on_c, 7, 69, 45
7, 122782, Note_on_c, 7, 69, 0
7, 122784, Note_on_c, 7, 69, 45
7, 122878, Note_on_c, 7, 69, 0
7, 122880, Note_on_c, 7, 69, 45
7, 122974, Note_on_c, 7, 69, 0
7, 122976, Note_on_c, 7, 69, 45
7, 123070, Note_on_c, 7, 69, 0
7, 123072, Note_on_c, 7, 69, 45
7, 123166, Note_on_c, 7, 69, 0
7, 123168, Note_on_c, 7, 69, 45
7, 123262, Note_on_c, 7, 69, 0
7, 123264, Note_on_c, 7, 69, 45
7, 123358, Note_on_c, 7, 69, 0
7, 123360, Note_on_c, 7, 69, 45
7, 123454, Note_on_c, 7, 69, 0
7, 123456, Note_on_c, 7, 69, 45
7, 123550, Note_on_c, 7, 69, 0
7, 123552, Note_on_c, 7, 69, 45
7, 123646, Note_on_c, 7, 69, 0
7, 123648, Note_on_c, 7, 69, 45
7, 123742, Note_on_c, 7, 69, 0
7, 123744, Note_on_c, 7, 66, 45
7, 123838, Note_on_c, 7, 66, 0
7, 123840, Note_on_c, 7, 66, 45
7, 123934, Note_on_c, 7, 66, 0
7, 123936, Note_on_c, 7, 66, 45
7, 124030, Note_on_c, 7, 66, 0
7, 124128, Note_on_c, 7, 67, 45
7, 124222, Note_on_c, 7, 67, 0
7, 124224, Note_on_c, 7, 67, 45
7, 124318, Note_on_c, 7, 67, 0
7, 124320, Note_on_c, 7, 67, 45
7, 124414, Note_on_c, 7, 67, 0
7, 124512, Note_on_c, 7, 69, 45
7, 124606, Note_on_c, 7, 69, 0
7, 124608, Note_on_c, 7, 69, 45
7, 124702, Note_on_c, 7, 69, 0
7, 124704, Note_on_c, 7, 69, 45
7, 124798, Note_on_c, 7, 69, 0
7, 124896, Note_on_c, 7, 71, 45
7, 124990, Note_on_c, 7, 71, 0
7, 124992, Note_on_c, 7, 71, 45
7, 125086, Note_on_c, 7, 71, 0
7, 125088, Note_on_c, 7, 71, 45
7, 125182, Note_on_c, 7, 71, 0
7, 125184, Note_on_c, 7, 72, 45
7, 125216, Note_on_c, 7, 72, 0
7, 125280, Note_on_c, 7, 71, 45
7, 125312, Note_on_c, 7, 71, 0
7, 125376, Note_on_c, 7, 69, 45
7, 125408, Note_on_c, 7, 69, 0
7, 125472, Note_on_c, 7, 67, 45
7, 125504, Note_on_c, 7, 67, 0
7, 125568, Note_on_c, 7, 66, 45
7, 125600, Note_on_c, 7, 66, 0
7, 125664, Note_on_c, 7, 64, 45
7, 125696, Note_on_c, 7, 64, 0
7, 125760, Note_on_c, 7, 62, 45
7, 125792, Note_on_c, 7, 62, 0
7, 125856, Note_on_c, 7, 60, 45
7, 125888, Note_on_c, 7, 60, 0
7, 125952, Note_on_c, 7, 59, 45
7, 126046, Note_on_c, 7, 59, 0
7, 126048, Note_on_c, 7, 71, 45
7, 126142, Note_on_c, 7, 71, 0
7, 126144, Note_on_c, 7, 71, 45
7, 126238, Note_on_c, 7, 71, 0
7, 126240, Note_on_c, 7, 71, 45
7, 126334, Note_on_c, 7, 71, 0
7, 126336, Note_on_c, 7, 73, 45
7, 126430, Note_on_c, 7, 73, 0
7, 126432, Note_on_c, 7, 73, 45
7, 126526, Note_on_c, 7, 73, 0
7, 126528, Note_on_c, 7, 73, 45
7, 126622, Note_on_c, 7, 73, 0
7, 126624, Note_on_c, 7, 73, 45
7, 126718, Note_on_c, 7, 73, 0
7, 126720, Note_on_c, 7, 74, 45
7, 126814, Note_on_c, 7, 74, 0
7, 126816, Note_on_c, 7, 74, 45
7, 126910, Note_on_c, 7, 74, 0
7, 126912, Note_on_c, 7, 74, 45
7, 127006, Note_on_c, 7, 74, 0
7, 127008, Note_on_c, 7, 74, 45
7, 127102, Note_on_c, 7, 74, 0
7, 127104, Note_on_c, 7, 74, 45
7, 127198, Note_on_c, 7, 74, 0
7, 127200, Note_on_c, 7, 74, 45
7, 127294, Note_on_c, 7, 74, 0
7, 127296, Note_on_c, 7, 73, 45
7, 127390, Note_on_c, 7, 73, 0
7, 127392, Note_on_c, 7, 73, 45
7, 127486, Note_on_c, 7, 73, 0
7, 127488, Note_on_c, 7, 74, 45
7, 127648, Note_on_c, 7, 74, 0
7, 127968, Note_on_c, 7, 74, 45
7, 128062, Note_on_c, 7, 74, 0
7, 128064, Note_on_c, 7, 74, 45
7, 128158, Note_on_c, 7, 74, 0
7, 128160, Note_on_c, 7, 74, 45
7, 128254, Note_on_c, 7, 74, 0
7, 128256, Note_on_c, 7, 74, 45
7, 128416, Note_on_c, 7, 74, 0
7, 128736, Note_on_c, 7, 74, 45
7, 128830, Note_on_c, 7, 74, 0
7, 128832, Note_on_c, 7, 74, 45
7, 128926, Note_on_c, 7, 74, 0
7, 128928, Note_on_c, 7, 74, 45
7, 129022, Note_on_c, 7, 74, 0
7, 129024, Note_on_c, 7, 74, 45
7, 129118, Note_on_c, 7, 74, 0
7, 129120, Note_on_c, 7, 74, 45
7, 129214, Note_on_c, 7, 74, 0
7, 129216, Note_on_c, 7, 74, 45
7, 129310, Note_on_c, 7, 74, 0
7, 129312, Note_on_c, 7, 74, 45
7, 129406, Note_on_c, 7, 74, 0
7, 129408, Note_on_c, 7, 74, 45
7, 129502, Note_on_c, 7, 74, 0
7, 129504, Note_on_c, 7, 74, 45
7, 129598, Note_on_c, 7, 74, 0
7, 129600, Note_on_c, 7, 73, 45
7, 129694, Note_on_c, 7, 73, 0
7, 129696, Note_on_c, 7, 73, 45
7, 129790, Note_on_c, 7, 73, 0
7, 129792, Note_on_c, 7, 74, 45
7, 129952, Note_on_c, 7, 74, 0
7, 130272, Note_on_c, 7, 74, 45
7, 130366, Note_on_c, 7, 74, 0
7, 130368, Note_on_c, 7, 74, 45
7, 130462, Note_on_c, 7, 74, 0
7, 130464, Note_on_c, 7, 74, 45
7, 130558, Note_on_c, 7, 74, 0
7, 130560, Note_on_c, 7, 74, 45
7, 130720, Note_on_c, 7, 74, 0
7, 131040, Note_on_c, 7, 74, 45
7, 131134, Note_on_c, 7, 74, 0
7, 131136, Note_on_c, 7, 74, 45
7, 131230, Note_on_c, 7, 74, 0
7, 131232, Note_on_c, 7, 74, 45
7, 131326, Note_on_c, 7, 74, 0
7, 131328, Note_on_c, 7, 74, 45
7, 131422, Note_on_c, 7, 74, 0
7, 131424, Note_on_c, 7, 74, 45
7, 131518, Note_on_c, 7, 74, 0
7, 131520, Note_on_c, 7, 74, 45
7, 131614, Note_on_c, 7, 74, 0
7, 131616, Note_on_c, 7, 74, 45
7, 131710, Note_on_c, 7, 74, 0
7, 131712, Note_on_c, 7, 74, 45
7, 131806, Note_on_c, 7, 74, 0
7, 131808, Note_on_c, 7, 74, 45
7, 131902, Note_on_c, 7, 74, 0
7, 131904, Note_on_c, 7, 74, 45
7, 131998, Note_on_c, 7, 74, 0
7, 132000, Note_on_c, 7, 74, 45
7, 132094, Note_on_c, 7, 74, 0
7, 132096, Note_on_c, 7, 73, 45
7, 132142, Note_on_c, 7, 73, 0
7, 132144, Note_on_c, 7, 73, 45
7, 132190, Note_on_c, 7, 73, 0
7, 132192, Note_on_c, 7, 73, 45
7, 132238, Note_on_c, 7, 73, 0
7, 132240, Note_on_c, 7, 73, 45
7, 132286, Note_on_c, 7, 73, 0
7, 132288, Note_on_c, 7, 76, 45
7, 132334, Note_on_c, 7, 76, 0
7, 132336, Note_on_c, 7, 76, 48
7, 132382, Note_on_c, 7, 76, 0
7, 132384, Note_on_c, 7, 76, 52
7, 132430, Note_on_c, 7, 76, 0
7, 132432, Note_on_c, 7, 76, 56
7, 132478, Note_on_c, 7, 76, 0
7, 132480, Note_on_c, 7, 79, 60
7, 132526, Note_on_c, 7, 79, 0
7, 132528, Note_on_c, 7, 79, 64
7, 132574, Note_on_c, 7, 79, 0
7, 132576, Note_on_c, 7, 79, 68
7, 132622, Note_on_c, 7, 79, 0
7, 132624, Note_on_c, 7, 79, 72
7, 132670, Note_on_c, 7, 79, 0
7, 132672, Note_on_c, 7, 85, 76
7, 132718, Note_on_c, 7, 85, 0
7, 132720, Note_on_c, 7, 85, 80
7, 132766, Note_on_c, 7, 85, 0
7, 132768, Note_on_c, 7, 85, 84
7, 132814, Note_on_c, 7, 85, 0
7, 132816, Note_on_c, 7, 85, 88
7, 132862, Note_on_c, 7, 85, 0
7, 132864, Note_on_c, 7, 86, 92
7, 133024, Note_on_c, 7, 86, 0
7, 133056, Note_on_c, 7, 74, 92
7, 133392, Note_on_c, 7, 74, 0
7, 133440, Note_on_c, 7, 73, 92
7, 133488, Note_on_c, 7, 73, 0
7, 133488, Note_on_c, 7, 74, 92
7, 133534, Note_on_c, 7, 74, 0
7, 133536, Note_on_c, 7, 73, 92
7, 133584, Note_on_c, 7, 73, 0
7, 133584, Note_on_c, 7, 74, 92
7, 133630, Note_on_c, 7, 74, 0
7, 133632, Note_on_c, 7, 79, 92
7, 133792, Note_on_c, 7, 79, 0
7, 133824, Note_on_c, 7, 78, 92
7, 134160, Note_on_c, 7, 78, 0
7, 134208, Note_on_c, 7, 73, 92
7, 134256, Note_on_c, 7, 73, 0
7, 134256, Note_on_c, 7, 74, 92
7, 134302, Note_on_c, 7, 74, 0
7, 134304, Note_on_c, 7, 73, 92
7, 134352, Note_on_c, 7, 73, 0
7, 134352, Note_on_c, 7, 74, 92
7, 134398, Note_on_c, 7, 74, 0
7, 134400, Note_on_c, 7, 84, 92
7, 134560, Note_on_c, 7, 84, 0
7, 134592, Note_on_c, 7, 83, 92
7, 134928, Note_on_c, 7, 83, 0
7, 134976, Note_on_c, 7, 73, 92
7, 135024, Note_on_c, 7, 73, 0
7, 135024, Note_on_c, 7, 74, 92
7, 135070, Note_on_c, 7, 74, 0
7, 135072, Note_on_c, 7, 73, 92
7, 135120, Note_on_c, 7, 73, 0
7, 135120, Note_on_c, 7, 74, 92
7, 135166, Note_on_c, 7, 74, 0
7, 135168, Note_on_c, 7, 86, 92
7, 135262, Note_on_c, 7, 86, 0
7, 135264, Note_on_c, 7, 74, 92
7, 135358, Note_on_c, 7, 74, 0
7, 135360, Note_on_c, 7, 76, 92
7, 135384, Note_on_c, 7, 76, 0
7, 135384, Note_on_c, 7, 74, 92
7, 135408, Note_on_c, 7, 74, 0
7, 135408, Note_on_c, 7, 76, 92
7, 135432, Note_on_c, 7, 76, 0
7, 135432, Note_on_c, 7, 74, 92
7, 135456, Note_on_c, 7, 74, 0
7, 135456, Note_on_c, 7, 76, 92
7, 135480, Note_on_c, 7, 76, 0
7, 135480, Note_on_c, 7, 74, 92
7, 135504, Note_on_c, 7, 74, 0
7, 135504, Note_on_c, 7, 73, 92
7, 135528, Note_on_c, 7, 73, 0
7, 135528, Note_on_c, 7, 74, 92
7, 135550, Note_on_c, 7, 74, 0
7, 135552, Note_on_c, 7, 78, 92
7, 135584, Note_on_c, 7, 78, 0
7, 135648, Note_on_c, 7, 74, 92
7, 135680, Note_on_c, 7, 74, 0
7, 135744, Note_on_c, 7, 71, 92
7, 135776, Note_on_c, 7, 71, 0
7, 135840, Note_on_c, 7, 68, 92
7, 135872, Note_on_c, 7, 68, 0
7, 135936, Note_on_c, 7, 57, 92
7, 135936, Note_on_c, 7, 69, 92
7, 136272, Note_on_c, 7, 57, 0
7, 136272, Note_on_c, 7, 69, 0
7, 165888, Note_on_c, 7, 66, 92
7, 165888, Note_on_c, 7, 74, 92
7, 165982, Note_on_c, 7, 66, 0
7, 165982, Note_on_c, 7, 74, 0
7, 165984, Note_on_c, 7, 66, 92
7, 165984, Note_on_c, 7, 74, 92
7, 166144, Note_on_c, 7, 66, 0
7, 166144, Note_on_c, 7, 74, 0
7, 166176, Note_on_c, 7, 74, 92
7, 166270, Note_on_c, 7, 74, 0
7, 166272, Note_on_c, 7, 74, 92
7, 166272, Note_on_c, 7, 84, 92
7, 166366, Note_on_c, 7, 74, 0
7, 166366, Note_on_c, 7, 84, 0
7, 166368, Note_on_c, 7, 74, 92
7, 166368, Note_on_c, 7, 84, 92
7, 166528, Note_on_c, 7, 74, 0
7, 166528, Note_on_c, 7, 84, 0
7, 166560, Note_on_c, 7, 74, 92
7, 166560, Note_on_c, 7, 84, 92
7, 166654, Note_on_c, 7, 74, 0
7, 166654, Note_on_c, 7, 84, 0
7, 166656, Note_on_c, 7, 83, 92
7, 166704, Note_on_c, 7, 83, 0
7, 166704, Note_on_c, 7, 85, 92
7, 166750, Note_on_c, 7, 85, 0
7, 166752, Note_on_c, 7, 86, 92
7, 166784, Note_on_c, 7, 86, 0
7, 166800, Note_on_c, 7, 85, 92
7, 166832, Note_on_c, 7, 85, 0
7, 166848, Note_on_c, 7, 86, 92
7, 166942, Note_on_c, 7, 86, 0
7, 167040, Note_on_c, 7, 79, 92
7, 167088, Note_on_c, 7, 79, 0
7, 167088, Note_on_c, 7, 81, 92
7, 167134, Note_on_c, 7, 81, 0
7, 167136, Note_on_c, 7, 83, 92
7, 167168, Note_on_c, 7, 83, 0
7, 167184, Note_on_c, 7, 81, 92
7, 167216, Note_on_c, 7, 81, 0
7, 167232, Note_on_c, 7, 83, 92
7, 167264, Note_on_c, 7, 83, 0
7, 167328, Note_on_c, 7, 79, 92
7, 167360, Note_on_c, 7, 79, 0
7, 167424, Note_on_c, 7, 78, 92
7, 167518, Note_on_c, 7, 78, 0
7, 167520, Note_on_c, 7, 81, 92
7, 167566, Note_on_c, 7, 81, 0
7, 167568, Note_on_c, 7, 78, 92
7, 167614, Note_on_c, 7, 78, 0
7, 167616, Note_on_c, 7, 74, 92
7, 167710, Note_on_c, 7, 74, 0
7, 167712, Note_on_c, 7, 78, 92
7, 167758, Note_on_c, 7, 78, 0
7, 167760, Note_on_c, 7, 74, 92
7, 167806, Note_on_c, 7, 74, 0
7, 167808, Note_on_c, 7, 69, 92
7, 167968, Note_on_c, 7, 69, 0
7, 168000, Note_on_c, 7, 57, 92
7, 168000, Note_on_c, 7, 64, 92
7, 168000, Note_on_c, 7, 73, 92
7, 168160, Note_on_c, 7, 57, 0
7, 168160, Note_on_c, 7, 64, 0
7, 168160, Note_on_c, 7, 73, 0
7, 168192, Note_on_c, 7, 57, 92
7, 168192, Note_on_c, 7, 66, 92
7, 168192, Note_on_c, 7, 74, 92
7, 168352, Note_on_c, 7, 57, 0
7, 168352, Note_on_c, 7, 66, 0
7, 168352, Note_on_c, 7, 74, 0
7, 168384, Note_on_c, 7, 74, 45
7, 168432, Note_on_c, 7, 74, 0
7, 168432, Note_on_c, 7, 76, 45
7, 168478, Note_on_c, 7, 76, 0
7, 168480, Note_on_c, 7, 78, 45
7, 168512, Note_on_c, 7, 78, 0
7, 168528, Note_on_c, 7, 79, 45
7, 168560, Note_on_c, 7, 79, 0
7, 168576, Note_on_c, 7, 81, 45
7, 168608, Note_on_c, 7, 81, 0
7, 168672, Note_on_c, 7, 81, 45
7, 168704, Note_on_c, 7, 81, 0
7, 168768, Note_on_c, 7, 81, 45
7, 168800, Note_on_c, 7, 81, 0
7, 168864, Note_on_c, 7, 81, 45
7, 168896, Note_on_c, 7, 81, 0
7, 168960, Note_on_c, 7, 81, 45
7, 169054, Note_on_c, 7, 81, 0
7, 169152, Note_on_c, 7, 86, 92
7, 169246, Note_on_c, 7, 86, 0
7, 169248, Note_on_c, 7, 81, 92
7, 169342, Note_on_c, 7, 81, 0
7, 169344, Note_on_c, 7, 78, 92
7, 169486, Note_on_c, 7, 78, 0
7, 169488, Note_on_c, 7, 81, 92
7, 169534, Note_on_c, 7, 81, 0
7, 169536, Note_on_c, 7, 81, 92
7, 169582, Note_on_c, 7, 81, 0
7, 169584, Note_on_c, 7, 79, 92
7, 169630, Note_on_c, 7, 79, 0
7, 169632, Note_on_c, 7, 78, 92
7, 169678, Note_on_c, 7, 78, 0
7, 169680, Note_on_c, 7, 76, 92
7, 169726, Note_on_c, 7, 76, 0
7, 169728, Note_on_c, 7, 74, 92
7, 169822, Note_on_c, 7, 74, 0
7, 169920, Note_on_c, 7, 74, 45
7, 169968, Note_on_c, 7, 74, 0
7, 169968, Note_on_c, 7, 76, 45
7, 170014, Note_on_c, 7, 76, 0
7, 170016, Note_on_c, 7, 78, 45
7, 170048, Note_on_c, 7, 78, 0
7, 170064, Note_on_c, 7, 79, 45
7, 170096, Note_on_c, 7, 79, 0
7, 170112, Note_on_c, 7, 81, 45
7, 170158, Note_on_c, 7, 81, 0
7, 170160, Note_on_c, 7, 81, 45
7, 170206, Note_on_c, 7, 81, 0
7, 170208, Note_on_c, 7, 81, 45
7, 170254, Note_on_c, 7, 81, 0
7, 170256, Note_on_c, 7, 81, 45
7, 170302, Note_on_c, 7, 81, 0
7, 170304, Note_on_c, 7, 81, 45
7, 170350, Note_on_c, 7, 81, 0
7, 170352, Note_on_c, 7, 81, 45
7, 170398, Note_on_c, 7, 81, 0
7, 170400, Note_on_c, 7, 81, 45
7, 170446, Note_on_c, 7, 81, 0
7, 170448, Note_on_c, 7, 81, 45
7, 170494, Note_on_c, 7, 81, 0
7, 170496, Note_on_c, 7, 81, 45
7, 170590, Note_on_c, 7, 81, 0
7, 170688, Note_on_c, 7, 86, 92
7, 170782, Note_on_c, 7, 86, 0
7, 170784, Note_on_c, 7, 81, 92
7, 170878, Note_on_c, 7, 81, 0
7, 170880, Note_on_c, 7, 78, 92
7, 170928, Note_on_c, 7, 78, 0
7, 170928, Note_on_c, 7, 81, 92
7, 170974, Note_on_c, 7, 81, 0
7, 170976, Note_on_c, 7, 78, 92
7, 171008, Note_on_c, 7, 78, 0
7, 171024, Note_on_c, 7, 81, 92
7, 171056, Note_on_c, 7, 81, 0
7, 171072, Note_on_c, 7, 81, 92
7, 171118, Note_on_c, 7, 81, 0
7, 171120, Note_on_c, 7, 79, 92
7, 171166, Note_on_c, 7, 79, 0
7, 171168, Note_on_c, 7, 78, 92
7, 171214, Note_on_c, 7, 78, 0
7, 171216, Note_on_c, 7, 76, 92
7, 171262, Note_on_c, 7, 76, 0
7, 171264, Note_on_c, 7, 78, 92
7, 171312, Note_on_c, 7, 78, 0
7, 171312, Note_on_c, 7, 74, 92
7, 171358, Note_on_c, 7, 74, 0
7, 171360, Note_on_c, 7, 81, 92
7, 171392, Note_on_c, 7, 81, 0
7, 171408, Note_on_c, 7, 78, 92
7, 171440, Note_on_c, 7, 78, 0
7, 171456, Note_on_c, 7, 86, 92
7, 171504, Note_on_c, 7, 86, 0
7, 171504, Note_on_c, 7, 81, 92
7, 171550, Note_on_c, 7, 81, 0
7, 171552, Note_on_c, 7, 86, 92
7, 171584, Note_on_c, 7, 86, 0
7, 171600, Note_on_c, 7, 81, 92
7, 171632, Note_on_c, 7, 81, 0
7, 171648, Note_on_c, 7, 78, 92
7, 171696, Note_on_c, 7, 78, 0
7, 171696, Note_on_c, 7, 81, 92
7, 171742, Note_on_c, 7, 81, 0
7, 171744, Note_on_c, 7, 78, 92
7, 171776, Note_on_c, 7, 78, 0
7, 171792, Note_on_c, 7, 81, 92
7, 171824, Note_on_c, 7, 81, 0
7, 171840, Note_on_c, 7, 81, 92
7, 171886, Note_on_c, 7, 81, 0
7, 171888, Note_on_c, 7, 79, 92
7, 171934, Note_on_c, 7, 79, 0
7, 171936, Note_on_c, 7, 78, 92
7, 171982, Note_on_c, 7, 78, 0
7, 171984, Note_on_c, 7, 76, 92
7, 172030, Note_on_c, 7, 76, 0
7, 172032, Note_on_c, 7, 74, 92
7, 172064, Note_on_c, 7, 74, 0
7, 172128, Note_on_c, 7, 74, 92
7, 172160, Note_on_c, 7, 74, 0
7, 172224, Note_on_c, 7, 76, 92
7, 172248, Note_on_c, 7, 76, 0
7, 172248, Note_on_c, 7, 74, 92
7, 172272, Note_on_c, 7, 74, 0
7, 172272, Note_on_c, 7, 76, 92
7, 172296, Note_on_c, 7, 76, 0
7, 172296, Note_on_c, 7, 74, 92
7, 172320, Note_on_c, 7, 74, 0
7, 172320, Note_on_c, 7, 76, 92
7, 172344, Note_on_c, 7, 76, 0
7, 172344, Note_on_c, 7, 74, 92
7, 172368, Note_on_c, 7, 74, 0
7, 172368, Note_on_c, 7, 73, 92
7, 172392, Note_on_c, 7, 73, 0
7, 172392, Note_on_c, 7, 74, 92
7, 172414, Note_on_c, 7, 74, 0
7, 172416, Note_on_c, 7, 78, 92
7, 172448, Note_on_c, 7, 78, 0
7, 172512, Note_on_c, 7, 74, 92
7, 172544, Note_on_c, 7, 74, 0
7, 172608, Note_on_c, 7, 69, 92
7, 172640, Note_on_c, 7, 69, 0
7, 172704, Note_on_c, 7, 66, 92
7, 172736, Note_on_c, 7, 66, 0
7, 172800, Note_on_c, 7, 62, 92
7, 172960, Note_on_c, 7, 62, 0
7, 172992, Note_on_c, 7, 78, 92
7, 172992, Note_on_c, 7, 86, 92
7, 173152, Note_on_c, 7, 78, 0
7, 173152, Note_on_c, 7, 86, 0
7, 173184, Note_on_c, 7, 78, 92
7, 173184, Note_on_c, 7, 86, 92
7, 173440, Note_on_c, 7, 78, 0
7, 173440, Note_on_c, 7, 86, 0
7, 173440, End_track
8, 0, Start_track
8, 0, MIDI_port, 0
8, 0, Title_t, "Violino II"
8, 0, Program_c, 8, 48
8, 0, Control_c, 8, 7, 127
8, 0, Control_c, 8, 10, 64
8, 0, Note_on_c, 8, 57, 92
8, 0, Note_on_c, 8, 66, 92
8, 160, Note_on_c, 8, 57, 0
8, 160, Note_on_c, 8, 66, 0
8, 192, Note_on_c, 8, 57, 92
8, 192, Note_on_c, 8, 66, 92
8, 528, Note_on_c, 8, 57, 0
8, 528, Note_on_c, 8, 66, 0
8, 576, Note_on_c, 8, 64, 92
8, 624, Note_on_c, 8, 64, 0
8, 624, Note_on_c, 8, 66, 92
8, 670, Note_on_c, 8, 66, 0
8, 672, Note_on_c, 8, 64, 92
8, 720, Note_on_c, 8, 64, 0
8, 720, Note_on_c, 8, 66, 92
8, 766, Note_on_c, 8, 66, 0
8, 768, Note_on_c, 8, 71, 92
8, 928, Note_on_c, 8, 71, 0
8, 960, Note_on_c, 8, 67, 92
8, 1102, Note_on_c, 8, 67, 0
8, 1104, Note_on_c, 8, 69, 92
8, 1150, Note_on_c, 8, 69, 0
8, 1152, Note_on_c, 8, 71, 92
8, 1312, Note_on_c, 8, 71, 0
8, 1344, Note_on_c, 8, 73, 92
8, 1504, Note_on_c, 8, 73, 0
8, 1536, Note_on_c, 8, 73, 92
8, 1632, Note_on_c, 8, 73, 0
8, 1632, Note_on_c, 8, 74, 92
8, 1726, Note_on_c, 8, 74, 0
8, 1728, Note_on_c, 8, 74, 92
8, 2064, Note_on_c, 8, 74, 0
8, 2112, Note_on_c, 8, 76, 92
8, 2160, Note_on_c, 8, 76, 0
8, 2160, Note_on_c, 8, 74, 92
8, 2206, Note_on_c, 8, 74, 0
8, 2208, Note_on_c, 8, 76, 92
8, 2256, Note_on_c, 8, 76, 0
8, 2256, Note_on_c, 8, 74, 92
8, 2302, Note_on_c, 8, 74, 0
8, 2304, Note_on_c, 8, 79, 92
8, 2464, Note_on_c, 8, 79, 0
8, 2496, Note_on_c, 8, 79, 92
8, 2832, Note_on_c, 8, 79, 0
8, 2880, Note_on_c, 8, 79, 92
8, 3040, Note_on_c, 8, 79, 0
8, 3072, Note_on_c, 8, 77, 92
8, 3168, Note_on_c, 8, 77, 0
8, 3168, Note_on_c, 8, 78, 92
8, 3262, Note_on_c, 8, 78, 0
8, 3264, Note_on_c, 8, 78, 92
8, 3424, Note_on_c, 8, 78, 0
8, 3552, Note_on_c, 8, 69, 45
8, 3584, Note_on_c, 8, 69, 0
8, 3648, Note_on_c, 8, 71, 45
8, 3680, Note_on_c, 8, 71, 0
8, 3744, Note_on_c, 8, 73, 45
8, 3776, Note_on_c, 8, 73, 0
8, 3840, Note_on_c, 8, 74, 45
8, 4224, Note_on_c, 8, 74, 0
8, 4224, Note_on_c, 8, 69, 45
8, 4384, Note_on_c, 8, 69, 0
8, 4416, Note_on_c, 8, 66, 45
8, 4576, Note_on_c, 8, 66, 0
8, 4608, Note_on_c, 8, 66, 45
8, 4704, Note_on_c, 8, 66, 0
8, 4704, Note_on_c, 8, 67, 45
8, 4800, Note_on_c, 8, 67, 0
8, 4800, Note_on_c, 8, 63, 45
8, 4896, Note_on_c, 8, 63, 0
8, 4896, Note_on_c, 8, 64, 45
8, 4990, Note_on_c, 8, 64, 0
8, 4992, Note_on_c, 8, 64, 45
8, 5152, Note_on_c, 8, 64, 0
8, 5376, Note_on_c, 8, 73, 92
8, 5422, Note_on_c, 8, 73, 0
8, 5424, Note_on_c, 8, 73, 92
8, 5470, Note_on_c, 8, 73, 0
8, 5472, Note_on_c, 8, 73, 92
8, 5518, Note_on_c, 8, 73, 0
8, 5520, Note_on_c, 8, 73, 92
8, 5566, Note_on_c, 8, 73, 0
8, 5568, Note_on_c, 8, 73, 92
8, 5662, Note_on_c, 8, 73, 0
8, 5664, Note_on_c, 8, 76, 92
8, 5758, Note_on_c, 8, 76, 0
8, 5760, Note_on_c, 8, 74, 92
8, 5806, Note_on_c, 8, 74, 0
8, 5808, Note_on_c, 8, 74, 92
8, 5854, Note_on_c, 8, 74, 0
8, 5856, Note_on_c, 8, 74, 92
8, 5902, Note_on_c, 8, 74, 0
8, 5904, Note_on_c, 8, 74, 92
8, 5950, Note_on_c, 8, 74, 0
8, 5952, Note_on_c, 8, 74, 92
8, 6046, Note_on_c, 8, 74, 0
8, 6048, Note_on_c, 8, 78, 92
8, 6142, Note_on_c, 8, 78, 0
8, 6144, Note_on_c, 8, 76, 92
8, 6190, Note_on_c, 8, 76, 0
8, 6192, Note_on_c, 8, 76, 92
8, 6238, Note_on_c, 8, 76, 0
8, 6240, Note_on_c, 8, 76, 92
8, 6286, Note_on_c, 8, 76, 0
8, 6288, Note_on_c, 8, 76, 92
8, 6334, Note_on_c, 8, 76, 0
8, 6336, Note_on_c, 8, 78, 92
8, 6382, Note_on_c, 8, 78, 0
8, 6384, Note_on_c, 8, 78, 92
8, 6430, Note_on_c, 8, 78, 0
8, 6432, Note_on_c, 8, 78, 92
8, 6478, Note_on_c, 8, 78, 0
8, 6480, Note_on_c, 8, 78, 92
8, 6526, Note_on_c, 8, 78, 0
8, 6528, Note_on_c, 8, 79, 92
8, 6574, Note_on_c, 8, 79, 0
8, 6576, Note_on_c, 8, 79, 92
8, 6622, Note_on_c, 8, 79, 0
8, 6624, Note_on_c, 8, 79, 92
8, 6670, Note_on_c, 8, 79, 0
8, 6672, Note_on_c, 8, 79, 92
8, 6718, Note_on_c, 8, 79, 0
8, 6720, Note_on_c, 8, 73, 92
8, 6766, Note_on_c, 8, 73, 0
8, 6768, Note_on_c, 8, 73, 92
8, 6814, Note_on_c, 8, 73, 0
8, 6816, Note_on_c, 8, 73, 92
8, 6862, Note_on_c, 8, 73, 0
8, 6864, Note_on_c, 8, 73, 92
8, 6910, Note_on_c, 8, 73, 0
8, 6912, Note_on_c, 8, 74, 92
8, 6982, Note_on_c, 8, 74, 0
8, 6984, Note_on_c, 8, 76, 92
8, 7006, Note_on_c, 8, 76, 0
8, 7008, Note_on_c, 8, 74, 92
8, 7054, Note_on_c, 8, 74, 0
8, 7056, Note_on_c, 8, 73, 92
8, 7102, Note_on_c, 8, 73, 0
8, 7104, Note_on_c, 8, 74, 92
8, 7198, Note_on_c, 8, 74, 0
8, 7200, Note_on_c, 8, 76, 92
8, 7294, Note_on_c, 8, 76, 0
8, 7296, Note_on_c, 8, 78, 92
8, 7366, Note_on_c, 8, 78, 0
8, 7368, Note_on_c, 8, 79, 92
8, 7390, Note_on_c, 8, 79, 0
8, 7392, Note_on_c, 8, 78, 92
8, 7438, Note_on_c, 8, 78, 0
8, 7440, Note_on_c, 8, 76, 92
8, 7486, Note_on_c, 8, 76, 0
8, 7488, Note_on_c, 8, 78, 92
8, 7582, Note_on_c, 8, 78, 0
8, 7584, Note_on_c, 8, 80, 92
8, 7678, Note_on_c, 8, 80, 0
8, 7680, Note_on_c, 8, 81, 92
8, 7840, Note_on_c, 8, 81, 0
8, 7872, Note_on_c, 8, 64, 92
8, 7872, Note_on_c, 8, 73, 92
8, 7872, Note_on_c, 8, 81, 92
8, 8032, Note_on_c, 8, 64, 0
8, 8032, Note_on_c, 8, 73, 0
8, 8032, Note_on_c, 8, 81, 0
8, 8064, Note_on_c, 8, 64, 92
8, 8064, Note_on_c, 8, 73, 92
8, 8064, Note_on_c, 8, 81, 92
8, 8224, Note_on_c, 8, 64, 0
8, 8224, Note_on_c, 8, 73, 0
8, 8224, Note_on_c, 8, 81, 0
8, 9216, Note_on_c, 8, 62, 45
8, 9264, Note_on_c, 8, 62, 0
8, 9264, Note_on_c, 8, 64, 45
8, 9312, Note_on_c, 8, 64, 0
8, 9312, Note_on_c, 8, 62, 45
8, 9360, Note_on_c, 8, 62, 0
8, 9360, Note_on_c, 8, 64, 45
8, 9408, Note_on_c, 8, 64, 0
8, 9408, Note_on_c, 8, 62, 45
8, 9456, Note_on_c, 8, 62, 0
8, 9456, Note_on_c, 8, 64, 45
8, 9504, Note_on_c, 8, 64, 0
8, 9504, Note_on_c, 8, 62, 45
8, 9552, Note_on_c, 8, 62, 0
8, 9552, Note_on_c, 8, 64, 45
8, 9598, Note_on_c, 8, 64, 0
8, 9600, Note_on_c, 8, 60, 45
8, 9648, Note_on_c, 8, 60, 0
8, 9648, Note_on_c, 8, 62, 45
8, 9696, Note_on_c, 8, 62, 0
8, 9696, Note_on_c, 8, 60, 45
8, 9744, Note_on_c, 8, 60, 0
8, 9744, Note_on_c, 8, 62, 45
8, 9792, Note_on_c, 8, 62, 0
8, 9792, Note_on_c, 8, 60, 45
8, 9840, Note_on_c, 8, 60, 0
8, 9840, Note_on_c, 8, 62, 45
8, 9888, Note_on_c, 8, 62, 0
8, 9888, Note_on_c, 8, 60, 45
8, 9936, Note_on_c, 8, 60, 0
8, 9936, Note_on_c, 8, 62, 45
8, 9982, Note_on_c, 8, 62, 0
8, 9984, Note_on_c, 8, 59, 45
8, 10032, Note_on_c, 8, 59, 0
8, 10032, Note_on_c, 8, 60, 45
8, 10080, Note_on_c, 8, 60, 0
8, 10080, Note_on_c, 8, 59, 45
8, 10128, Note_on_c, 8, 59, 0
8, 10128, Note_on_c, 8, 60, 45
8, 10176, Note_on_c, 8, 60, 0
8, 10176, Note_on_c, 8, 59, 45
8, 10224, Note_on_c, 8, 59, 0
8, 10224, Note_on_c, 8, 60, 45
8, 10272, Note_on_c, 8, 60, 0
8, 10272, Note_on_c, 8, 59, 45
8, 10320, Note_on_c, 8, 59, 0
8, 10320, Note_on_c, 8, 62, 45
8, 10366, Note_on_c, 8, 62, 0
8, 10368, Note_on_c, 8, 61, 45
8, 10416, Note_on_c, 8, 61, 0
8, 10416, Note_on_c, 8, 62, 45
8, 10464, Note_on_c, 8, 62, 0
8, 10464, Note_on_c, 8, 61, 45
8, 10512, Note_on_c, 8, 61, 0
8, 10512, Note_on_c, 8, 62, 45
8, 10560, Note_on_c, 8, 62, 0
8, 10560, Note_on_c, 8, 61, 45
8, 10608, Note_on_c, 8, 61, 0
8, 10608, Note_on_c, 8, 62, 45
8, 10656, Note_on_c, 8, 62, 0
8, 10656, Note_on_c, 8, 61, 45
8, 10704, Note_on_c, 8, 61, 0
8, 10704, Note_on_c, 8, 64, 45
8, 10750, Note_on_c, 8, 64, 0
8, 10752, Note_on_c, 8, 62, 45
8, 10800, Note_on_c, 8, 62, 0
8, 10800, Note_on_c, 8, 64, 45
8, 10848, Note_on_c, 8, 64, 0
8, 10848, Note_on_c, 8, 62, 45
8, 10896, Note_on_c, 8, 62, 0
8, 10896, Note_on_c, 8, 64, 45
8, 10944, Note_on_c, 8, 64, 0
8, 10944, Note_on_c, 8, 62, 45
8, 10992, Note_on_c, 8, 62, 0
8, 10992, Note_on_c, 8, 64, 45
8, 11040, Note_on_c, 8, 64, 0
8, 11040, Note_on_c, 8, 62, 45
8, 11088, Note_on_c, 8, 62, 0
8, 11088, Note_on_c, 8, 64, 45
8, 11134, Note_on_c, 8, 64, 0
8, 11136, Note_on_c, 8, 60, 45
8, 11184, Note_on_c, 8, 60, 0
8, 11184, Note_on_c, 8, 62, 45
8, 11232, Note_on_c, 8, 62, 0
8, 11232, Note_on_c, 8, 60, 45
8, 11280, Note_on_c, 8, 60, 0
8, 11280, Note_on_c, 8, 62, 45
8, 11328, Note_on_c, 8, 62, 0
8, 11328, Note_on_c, 8, 60, 45
8, 11376, Note_on_c, 8, 60, 0
8, 11376, Note_on_c, 8, 62, 45
8, 11424, Note_on_c, 8, 62, 0
8, 11424, Note_on_c, 8, 60, 45
8, 11472, Note_on_c, 8, 60, 0
8, 11472, Note_on_c, 8, 62, 45
8, 11518, Note_on_c, 8, 62, 0
8, 11520, Note_on_c, 8, 59, 45
8, 11566, Note_on_c, 8, 59, 0
8, 11568, Note_on_c, 8, 60, 45
8, 11614, Note_on_c, 8, 60, 0
8, 11616, Note_on_c, 8, 59, 45
8, 11662, Note_on_c, 8, 59, 0
8, 11664, Note_on_c, 8, 60, 45
8, 11710, Note_on_c, 8, 60, 0
8, 11712, Note_on_c, 8, 59, 45
8, 11758, Note_on_c, 8, 59, 0
8, 11760, Note_on_c, 8, 60, 45
8, 11806, Note_on_c, 8, 60, 0
8, 11808, Note_on_c, 8, 59, 45
8, 11854, Note_on_c, 8, 59, 0
8, 11856, Note_on_c, 8, 62, 45
8, 11902, Note_on_c, 8, 62, 0
8, 11904, Note_on_c, 8, 61, 45
8, 11950, Note_on_c, 8, 61, 0
8, 11952, Note_on_c, 8, 62, 45
8, 11998, Note_on_c, 8, 62, 0
8, 12000, Note_on_c, 8, 61, 45
8, 12046, Note_on_c, 8, 61, 0
8, 12048, Note_on_c, 8, 62, 45
8, 12094, Note_on_c, 8, 62, 0
8, 12096, Note_on_c, 8, 61, 45
8, 12142, Note_on_c, 8, 61, 0
8, 12144, Note_on_c, 8, 62, 45
8, 12190, Note_on_c, 8, 62, 0
8, 12192, Note_on_c, 8, 61, 45
8, 12238, Note_on_c, 8, 61, 0
8, 12240, Note_on_c, 8, 64, 45
8, 12286, Note_on_c, 8, 64, 0
8, 12288, Note_on_c, 8, 62, 45
8, 12334, Note_on_c, 8, 62, 0
8, 12336, Note_on_c, 8, 62, 45
8, 12382, Note_on_c, 8, 62, 0
8, 12384, Note_on_c, 8, 62, 45
8, 12430, Note_on_c, 8, 62, 0
8, 12432, Note_on_c, 8, 62, 45
8, 12478, Note_on_c, 8, 62, 0
8, 12480, Note_on_c, 8, 66, 45
8, 12574, Note_on_c, 8, 66, 0
8, 12576, Note_on_c, 8, 69, 45
8, 12670, Note_on_c, 8, 69, 0
8, 12672, Note_on_c, 8, 61, 45
8, 12718, Note_on_c, 8, 61, 0
8, 12720, Note_on_c, 8, 61, 45
8, 12766, Note_on_c, 8, 61, 0
8, 12768, Note_on_c, 8, 61, 45
8, 12814, Note_on_c, 8, 61, 0
8, 12816, Note_on_c, 8, 61, 45
8, 12862, Note_on_c, 8, 61, 0
8, 12864, Note_on_c, 8, 64, 45
8, 12958, Note_on_c, 8, 64, 0
8, 12960, Note_on_c, 8, 67, 45
8, 13054, Note_on_c, 8, 67, 0
8, 13056, Note_on_c, 8, 69, 45
8, 13102, Note_on_c, 8, 69, 0
8, 13104, Note_on_c, 8, 69, 45
8, 13150, Note_on_c, 8, 69, 0
8, 13152, Note_on_c, 8, 69, 45
8, 13198, Note_on_c, 8, 69, 0
8, 13200, Note_on_c, 8, 69, 45
8, 13246, Note_on_c, 8, 69, 0
8, 13248, Note_on_c, 8, 66, 45
8, 13342, Note_on_c, 8, 66, 0
8, 13344, Note_on_c, 8, 62, 45
8, 13438, Note_on_c, 8, 62, 0
8, 13440, Note_on_c, 8, 69, 45
8, 13486, Note_on_c, 8, 69, 0
8, 13488, Note_on_c, 8, 69, 45
8, 13534, Note_on_c, 8, 69, 0
8, 13536, Note_on_c, 8, 69, 45
8, 13582, Note_on_c, 8, 69, 0
8, 13584, Note_on_c, 8, 69, 45
8, 13630, Note_on_c, 8, 69, 0
8, 13632, Note_on_c, 8, 67, 45
8, 13726, Note_on_c, 8, 67, 0
8, 13728, Note_on_c, 8, 64, 45
8, 13822, Note_on_c, 8, 64, 0
8, 13824, Note_on_c, 8, 69, 45
8, 13870, Note_on_c, 8, 69, 0
8, 13872, Note_on_c, 8, 69, 45
8, 13918, Note_on_c, 8, 69, 0
8, 13920, Note_on_c, 8, 69, 45
8, 13966, Note_on_c, 8, 69, 0
8, 13968, Note_on_c, 8, 69, 45
8, 14014, Note_on_c, 8, 69, 0
8, 14016, Note_on_c, 8, 66, 45
8, 14110, Note_on_c, 8, 66, 0
8, 14112, Note_on_c, 8, 62, 45
8, 14206, Note_on_c, 8, 62, 0
8, 14208, Note_on_c, 8, 61, 45
8, 14254, Note_on_c, 8, 61, 0
8, 14256, Note_on_c, 8, 61, 45
8, 14302, Note_on_c, 8, 61, 0
8, 14304, Note_on_c, 8, 61, 45
8, 14350, Note_on_c, 8, 61, 0
8, 14352, Note_on_c, 8, 61, 45
8, 14398, Note_on_c, 8, 61, 0
8, 14400, Note_on_c, 8, 64, 45
8, 14446, Note_on_c, 8, 64, 0
8, 14448, Note_on_c, 8, 64, 45
8, 14494, Note_on_c, 8, 64, 0
8, 14496, Note_on_c, 8, 67, 45
8, 14542, Note_on_c, 8, 67, 0
8, 14544, Note_on_c, 8, 67, 45
8, 14590, Note_on_c, 8, 67, 0
8, 14592, Note_on_c, 8, 69, 45
8, 14638, Note_on_c, 8, 69, 0
8, 14640, Note_on_c, 8, 69, 45
8, 14686, Note_on_c, 8, 69, 0
8, 14688, Note_on_c, 8, 69, 45
8, 14734, Note_on_c, 8, 69, 0
8, 14736, Note_on_c, 8, 69, 45
8, 14782, Note_on_c, 8, 69, 0
8, 14784, Note_on_c, 8, 66, 45
8, 14830, Note_on_c, 8, 66, 0
8, 14832, Note_on_c, 8, 66, 45
8, 14878, Note_on_c, 8, 66, 0
8, 14880, Note_on_c, 8, 62, 45
8, 14926, Note_on_c, 8, 62, 0
8, 14928, Note_on_c, 8, 62, 45
8, 14974, Note_on_c, 8, 62, 0
8, 14976, Note_on_c, 8, 67, 45
8, 15022, Note_on_c, 8, 67, 0
8, 15024, Note_on_c, 8, 67, 45
8, 15070, Note_on_c, 8, 67, 0
8, 15072, Note_on_c, 8, 64, 45
8, 15118, Note_on_c, 8, 64, 0
8, 15120, Note_on_c, 8, 64, 45
8, 15166, Note_on_c, 8, 64, 0
8, 15168, Note_on_c, 8, 62, 45
8, 15214, Note_on_c, 8, 62, 0
8, 15216, Note_on_c, 8, 62, 45
8, 15262, Note_on_c, 8, 62, 0
8, 15264, Note_on_c, 8, 61, 45
8, 15310, Note_on_c, 8, 61, 0
8, 15312, Note_on_c, 8, 61, 45
8, 15358, Note_on_c, 8, 61, 0
8, 15360, Note_on_c, 8, 61, 45
8, 15454, Note_on_c, 8, 61, 0
8, 15456, Note_on_c, 8, 62, 45
8, 15616, Note_on_c, 8, 62, 0
8, 15648, Note_on_c, 8, 66, 45
8, 15742, Note_on_c, 8, 66, 0
8, 15744, Note_on_c, 8, 63, 45
8, 15840, Note_on_c, 8, 63, 0
8, 15840, Note_on_c, 8, 64, 48
8, 15936, Note_on_c, 8, 64, 0
8, 15936, Note_on_c, 8, 66, 52
8, 16032, Note_on_c, 8, 66, 0
8, 16032, Note_on_c, 8, 67, 56
8, 16126, Note_on_c, 8, 67, 0
8, 16128, Note_on_c, 8, 65, 60
8, 16224, Note_on_c, 8, 65, 0
8, 16224, Note_on_c, 8, 66, 64
8, 16320, Note_on_c, 8, 66, 0
8, 16320, Note_on_c, 8, 68, 68
8, 16416, Note_on_c, 8, 68, 0
8, 16416, Note_on_c, 8, 69, 72
8, 16510, Note_on_c, 8, 69, 0
8, 16512, Note_on_c, 8, 66, 76
8, 16608, Note_on_c, 8, 66, 0
8, 16608, Note_on_c, 8, 67, 80
8, 16704, Note_on_c, 8, 67, 0
8, 16704, Note_on_c, 8, 69, 84
8, 16800, Note_on_c, 8, 69, 0
8, 16800, Note_on_c, 8, 71, 88
8, 16894, Note_on_c, 8, 71, 0
8, 16896, Note_on_c, 8, 74, 92
8, 16896, Note_on_c, 8, 81, 92
8, 16990, Note_on_c, 8, 74, 0
8, 16990, Note_on_c, 8, 81, 0
8, 16992, Note_on_c, 8, 74, 92
8, 16992, Note_on_c, 8, 81, 92
8, 17152, Note_on_c, 8, 74, 0
8, 17152, Note_on_c, 8, 81, 0
8, 17184, Note_on_c, 8, 74, 92
8, 17184, Note_on_c, 8, 81, 92
8, 17344, Note_on_c, 8, 74, 0
8, 17344, Note_on_c, 8, 81, 0
8, 17376, Note_on_c, 8, 74, 92
8, 17376, Note_on_c, 8, 81, 92
8, 17536, Note_on_c, 8, 74, 0
8, 17536, Note_on_c, 8, 81, 0
8, 17568, Note_on_c, 8, 74, 92
8, 17568, Note_on_c, 8, 81, 92
8, 17662, Note_on_c, 8, 74, 0
8, 17662, Note_on_c, 8, 81, 0
8, 17664, Note_on_c, 8, 79, 92
8, 17712, Note_on_c, 8, 79, 0
8, 17712, Note_on_c, 8, 81, 92
8, 17758, Note_on_c, 8, 81, 0
8, 17760, Note_on_c, 8, 83, 92
8, 17792, Note_on_c, 8, 83, 0
8, 17808, Note_on_c, 8, 81, 92
8, 17840, Note_on_c, 8, 81, 0
8, 17856, Note_on_c, 8, 83, 92
8, 17950, Note_on_c, 8, 83, 0
8, 18048, Note_on_c, 8, 76, 92
8, 18096, Note_on_c, 8, 76, 0
8, 18096, Note_on_c, 8, 78, 92
8, 18142, Note_on_c, 8, 78, 0
8, 18144, Note_on_c, 8, 79, 92
8, 18176, Note_on_c, 8, 79, 0
8, 18192, Note_on_c, 8, 78, 92
8, 18224, Note_on_c, 8, 78, 0
8, 18240, Note_on_c, 8, 79, 92
8, 18272, Note_on_c, 8, 79, 0
8, 18336, Note_on_c, 8, 76, 92
8, 18368, Note_on_c, 8, 76, 0
8, 18432, Note_on_c, 8, 74, 92
8, 18526, Note_on_c, 8, 74, 0
8, 18528, Note_on_c, 8, 81, 92
8, 18574, Note_on_c, 8, 81, 0
8, 18576, Note_on_c, 8, 78, 92
8, 18622, Note_on_c, 8, 78, 0
8, 18624, Note_on_c, 8, 74, 92
8, 18718, Note_on_c, 8, 74, 0
8, 18720, Note_on_c, 8, 78, 92
8, 18766, Note_on_c, 8, 78, 0
8, 18768, Note_on_c, 8, 74, 92
8, 18814, Note_on_c, 8, 74, 0
8, 18816, Note_on_c, 8, 69, 92
8, 18910, Note_on_c, 8, 69, 0
8, 18912, Note_on_c, 8, 69, 92
8, 18958, Note_on_c, 8, 69, 0
8, 18960, Note_on_c, 8, 66, 92
8, 19006, Note_on_c, 8, 66, 0
8, 19008, Note_on_c, 8, 67, 92
8, 19102, Note_on_c, 8, 67, 0
8, 19104, Note_on_c, 8, 67, 92
8, 19150, Note_on_c, 8, 67, 0
8, 19152, Note_on_c, 8, 64, 92
8, 19198, Note_on_c, 8, 64, 0
8, 19200, Note_on_c, 8, 62, 92
8, 19360, Note_on_c, 8, 62, 0
8, 20160, Note_on_c, 8, 66, 92
8, 20254, Note_on_c, 8, 66, 0
8, 20256, Note_on_c, 8, 62, 92
8, 20350, Note_on_c, 8, 62, 0
8, 20352, Note_on_c, 8, 74, 92
8, 20494, Note_on_c, 8, 74, 0
8, 20496, Note_on_c, 8, 78, 92
8, 20542, Note_on_c, 8, 78, 0
8, 20544, Note_on_c, 8, 78, 92
8, 20590, Note_on_c, 8, 78, 0
8, 20592, Note_on_c, 8, 76, 92
8, 20638, Note_on_c, 8, 76, 0
8, 20640, Note_on_c, 8, 74, 92
8, 20686, Note_on_c, 8, 74, 0
8, 20688, Note_on_c, 8, 73, 92
8, 20734, Note_on_c, 8, 73, 0
8, 20736, Note_on_c, 8, 74, 92
8, 20830, Note_on_c, 8, 74, 0
8, 21696, Note_on_c, 8, 66, 92
8, 21790, Note_on_c, 8, 66, 0
8, 21792, Note_on_c, 8, 62, 92
8, 21886, Note_on_c, 8, 62, 0
8, 21888, Note_on_c, 8, 74, 92
8, 21936, Note_on_c, 8, 74, 0
8, 21936, Note_on_c, 8, 78, 92
8, 21982, Note_on_c, 8, 78, 0
8, 21984, Note_on_c, 8, 74, 92
8, 22016, Note_on_c, 8, 74, 0
8, 22032, Note_on_c, 8, 78, 92
8, 22064, Note_on_c, 8, 78, 0
8, 22080, Note_on_c, 8, 78, 92
8, 22126, Note_on_c, 8, 78, 0
8, 22128, Note_on_c, 8, 76, 92
8, 22174, Note_on_c, 8, 76, 0
8, 22176, Note_on_c, 8, 74, 92
8, 22222, Note_on_c, 8, 74, 0
8, 22224, Note_on_c, 8, 73, 92
8, 22270, Note_on_c, 8, 73, 0
8, 22272, Note_on_c, 8, 74, 92
8, 22366, Note_on_c, 8, 74, 0
8, 22368, Note_on_c, 8, 78, 92
8, 22400, Note_on_c, 8, 78, 0
8, 22416, Note_on_c, 8, 74, 92
8, 22448, Note_on_c, 8, 74, 0
8, 22464, Note_on_c, 8, 81, 92
8, 22512, Note_on_c, 8, 81, 0
8, 22512, Note_on_c, 8, 78, 92
8, 22558, Note_on_c, 8, 78, 0
8, 22560, Note_on_c, 8, 81, 92
8, 22592, Note_on_c, 8, 81, 0
8, 22608, Note_on_c, 8, 78, 92
8, 22640, Note_on_c, 8, 78, 0
8, 22656, Note_on_c, 8, 74, 92
8, 22704, Note_on_c, 8, 74, 0
8, 22704, Note_on_c, 8, 78, 92
8, 22750, Note_on_c, 8, 78, 0
8, 22752, Note_on_c, 8, 74, 92
8, 22784, Note_on_c, 8, 74, 0
8, 22800, Note_on_c, 8, 78, 92
8, 22832, Note_on_c, 8, 78, 0
8, 22848, Note_on_c, 8, 78, 92
8, 22894, Note_on_c, 8, 78, 0
8, 22896, Note_on_c, 8, 76, 92
8, 22942, Note_on_c, 8, 76, 0
8, 22944, Note_on_c, 8, 74, 92
8, 22990, Note_on_c, 8, 74, 0
8, 22992, Note_on_c, 8, 73, 92
8, 23038, Note_on_c, 8, 73, 0
8, 23040, Note_on_c, 8, 74, 92
8, 23072, Note_on_c, 8, 74, 0
8, 23136, Note_on_c, 8, 74, 92
8, 23168, Note_on_c, 8, 74, 0
8, 23232, Note_on_c, 8, 76, 92
8, 23256, Note_on_c, 8, 76, 0
8, 23256, Note_on_c, 8, 74, 92
8, 23280, Note_on_c, 8, 74, 0
8, 23280, Note_on_c, 8, 76, 92
8, 23304, Note_on_c, 8, 76, 0
8, 23304, Note_on_c, 8, 74, 92
8, 23328, Note_on_c, 8, 74, 0
8, 23328, Note_on_c, 8, 76, 92
8, 23352, Note_on_c, 8, 76, 0
8, 23352, Note_on_c, 8, 74, 92
8, 23376, Note_on_c, 8, 74, 0
8, 23376, Note_on_c, 8, 73, 92
8, 23400, Note_on_c, 8, 73, 0
8, 23400, Note_on_c, 8, 74, 92
8, 23422, Note_on_c, 8, 74, 0
8, 23424, Note_on_c, 8, 78, 92
8, 23456, Note_on_c, 8, 78, 0
8, 23520, Note_on_c, 8, 74, 92
8, 23552, Note_on_c, 8, 74, 0
8, 23616, Note_on_c, 8, 69, 92
8, 23648, Note_on_c, 8, 69, 0
8, 23712, Note_on_c, 8, 66, 92
8, 23744, Note_on_c, 8, 66, 0
8, 23808, Note_on_c, 8, 62, 92
8, 23968, Note_on_c, 8, 62, 0
8, 24576, Note_on_c, 8, 57, 45
8, 24576, Note_on_c, 8, 66, 45
8, 24736, Note_on_c, 8, 57, 0
8, 24736, Note_on_c, 8, 66, 0
8, 24768, Note_on_c, 8, 57, 45
8, 24768, Note_on_c, 8, 66, 45
8, 25104, Note_on_c, 8, 57, 0
8, 25104, Note_on_c, 8, 66, 0
8, 25152, Note_on_c, 8, 64, 45
8, 25200, Note_on_c, 8, 64, 0
8, 25200, Note_on_c, 8, 66, 45
8, 25246, Note_on_c, 8, 66, 0
8, 25248, Note_on_c, 8, 64, 45
8, 25296, Note_on_c, 8, 64, 0
8, 25296, Note_on_c, 8, 66, 45
8, 25342, Note_on_c, 8, 66, 0
8, 25344, Note_on_c, 8, 71, 45
8, 25504, Note_on_c, 8, 71, 0
8, 25536, Note_on_c, 8, 67, 45
8, 25678, Note_on_c, 8, 67, 0
8, 25680, Note_on_c, 8, 69, 45
8, 25726, Note_on_c, 8, 69, 0
8, 25728, Note_on_c, 8, 71, 45
8, 25888, Note_on_c, 8, 71, 0
8, 25920, Note_on_c, 8, 73, 45
8, 26080, Note_on_c, 8, 73, 0
8, 26112, Note_on_c, 8, 73, 45
8, 26208, Note_on_c, 8, 73, 0
8, 26208, Note_on_c, 8, 74, 45
8, 26302, Note_on_c, 8, 74, 0
8, 26304, Note_on_c, 8, 74, 45
8, 26640, Note_on_c, 8, 74, 0
8, 26688, Note_on_c, 8, 76, 45
8, 26736, Note_on_c, 8, 76, 0
8, 26736, Note_on_c, 8, 74, 45
8, 26782, Note_on_c, 8, 74, 0
8, 26784, Note_on_c, 8, 76, 45
8, 26832, Note_on_c, 8, 76, 0
8, 26832, Note_on_c, 8, 74, 45
8, 26878, Note_on_c, 8, 74, 0
8, 26880, Note_on_c, 8, 79, 45
8, 27040, Note_on_c, 8, 79, 0
8, 27072, Note_on_c, 8, 79, 45
8, 27408, Note_on_c, 8, 79, 0
8, 27456, Note_on_c, 8, 79, 45
8, 27616, Note_on_c, 8, 79, 0
8, 27648, Note_on_c, 8, 78, 45
8, 27742, Note_on_c, 8, 78, 0
8, 27744, Note_on_c, 8, 74, 45
8, 27838, Note_on_c, 8, 74, 0
8, 27840, Note_on_c, 8, 74, 45
8, 27934, Note_on_c, 8, 74, 0
8, 27936, Note_on_c, 8, 74, 45
8, 28030, Note_on_c, 8, 74, 0
8, 28032, Note_on_c, 8, 74, 45
8, 28126, Note_on_c, 8, 74, 0
8, 28128, Note_on_c, 8, 74, 45
8, 28222, Note_on_c, 8, 74, 0
8, 28224, Note_on_c, 8, 74, 45
8, 28318, Note_on_c, 8, 74, 0
8, 28320, Note_on_c, 8, 74, 45
8, 28414, Note_on_c, 8, 74, 0
8, 28416, Note_on_c, 8, 73, 45
8, 28510, Note_on_c, 8, 73, 0
8, 28512, Note_on_c, 8, 73, 45
8, 28606, Note_on_c, 8, 73, 0
8, 28608, Note_on_c, 8, 73, 45
8, 28702, Note_on_c, 8, 73, 0
8, 28704, Note_on_c, 8, 73, 45
8, 28798, Note_on_c, 8, 73, 0
8, 28800, Note_on_c, 8, 73, 45
8, 28894, Note_on_c, 8, 73, 0
8, 28896, Note_on_c, 8, 73, 45
8, 28990, Note_on_c, 8, 73, 0
8, 28992, Note_on_c, 8, 73, 45
8, 29086, Note_on_c, 8, 73, 0
8, 29088, Note_on_c, 8, 73, 45
8, 29182, Note_on_c, 8, 73, 0
8, 29184, Note_on_c, 8, 71, 45
8, 29278, Note_on_c, 8, 71, 0
8, 29280, Note_on_c, 8, 71, 45
8, 29374, Note_on_c, 8, 71, 0
8, 29376, Note_on_c, 8, 71, 45
8, 29470, Note_on_c, 8, 71, 0
8, 29472, Note_on_c, 8, 71, 45
8, 29566, Note_on_c, 8, 71, 0
8, 29568, Note_on_c, 8, 71, 45
8, 29662, Note_on_c, 8, 71, 0
8, 29664, Note_on_c, 8, 71, 45
8, 29758, Note_on_c, 8, 71, 0
8, 29760, Note_on_c, 8, 71, 45
8, 29854, Note_on_c, 8, 71, 0
8, 29856, Note_on_c, 8, 71, 45
8, 29950, Note_on_c, 8, 71, 0
8, 29952, Note_on_c, 8, 69, 45
8, 30046, Note_on_c, 8, 69, 0
8, 30048, Note_on_c, 8, 69, 45
8, 30142, Note_on_c, 8, 69, 0
8, 30144, Note_on_c, 8, 69, 45
8, 30238, Note_on_c, 8, 69, 0
8, 30240, Note_on_c, 8, 69, 45
8, 30334, Note_on_c, 8, 69, 0
8, 30336, Note_on_c, 8, 69, 45
8, 30430, Note_on_c, 8, 69, 0
8, 30432, Note_on_c, 8, 69, 45
8, 30526, Note_on_c, 8, 69, 0
8, 30528, Note_on_c, 8, 69, 45
8, 30622, Note_on_c, 8, 69, 0
8, 30624, Note_on_c, 8, 69, 45
8, 30718, Note_on_c, 8, 69, 0
8, 30720, Note_on_c, 8, 67, 45
8, 30814, Note_on_c, 8, 67, 0
8, 30816, Note_on_c, 8, 67, 45
8, 30910, Note_on_c, 8, 67, 0
8, 30912, Note_on_c, 8, 67, 45
8, 31006, Note_on_c, 8, 67, 0
8, 31008, Note_on_c, 8, 67, 45
8, 31102, Note_on_c, 8, 67, 0
8, 31104, Note_on_c, 8, 67, 45
8, 31198, Note_on_c, 8, 67, 0
8, 31200, Note_on_c, 8, 67, 45
8, 31294, Note_on_c, 8, 67, 0
8, 31296, Note_on_c, 8, 67, 45
8, 31390, Note_on_c, 8, 67, 0
8, 31392, Note_on_c, 8, 67, 45
8, 31486, Note_on_c, 8, 67, 0
8, 31488, Note_on_c, 8, 66, 45
8, 31582, Note_on_c, 8, 66, 0
8, 31584, Note_on_c, 8, 66, 45
8, 31678, Note_on_c, 8, 66, 0
8, 31680, Note_on_c, 8, 66, 45
8, 31774, Note_on_c, 8, 66, 0
8, 31776, Note_on_c, 8, 66, 45
8, 31870, Note_on_c, 8, 66, 0
8, 31872, Note_on_c, 8, 66, 45
8, 31966, Note_on_c, 8, 66, 0
8, 31968, Note_on_c, 8, 66, 45
8, 32062, Note_on_c, 8, 66, 0
8, 32064, Note_on_c, 8, 66, 45
8, 32158, Note_on_c, 8, 66, 0
8, 32160, Note_on_c, 8, 66, 45
8, 32254, Note_on_c, 8, 66, 0
8, 32256, Note_on_c, 8, 67, 45
8, 32592, Note_on_c, 8, 67, 0
8, 32640, Note_on_c, 8, 61, 45
8, 32640, Note_on_c, 8, 64, 45
8, 32976, Note_on_c, 8, 61, 0
8, 32976, Note_on_c, 8, 64, 0
8, 33024, Note_on_c, 8, 62, 45
8, 33216, Note_on_c, 8, 62, 0
8, 33216, Note_on_c, 8, 61, 45
8, 33408, Note_on_c, 8, 61, 0
8, 33408, Note_on_c, 8, 62, 45
8, 33600, Note_on_c, 8, 62, 0
8, 33600, Note_on_c, 8, 67, 45
8, 33760, Note_on_c, 8, 67, 0
8, 33792, Note_on_c, 8, 66, 45
8, 33984, Note_on_c, 8, 66, 0
8, 33984, Note_on_c, 8, 61, 45
8, 34176, Note_on_c, 8, 61, 0
8, 34176, Note_on_c, 8, 62, 45
8, 34368, Note_on_c, 8, 62, 0
8, 34368, Note_on_c, 8, 67, 45
8, 34528, Note_on_c, 8, 67, 0
8, 34560, Note_on_c, 8, 66, 45
8, 34654, Note_on_c, 8, 66, 0
8, 34656, Note_on_c, 8, 66, 45
8, 34750, Note_on_c, 8, 66, 0
8, 34752, Note_on_c, 8, 69, 45
8, 34846, Note_on_c, 8, 69, 0
8, 34848, Note_on_c, 8, 69, 45
8, 34942, Note_on_c, 8, 69, 0
8, 34944, Note_on_c, 8, 71, 45
8, 35038, Note_on_c, 8, 71, 0
8, 35040, Note_on_c, 8, 71, 45
8, 35134, Note_on_c, 8, 71, 0
8, 35136, Note_on_c, 8, 69, 45
8, 35230, Note_on_c, 8, 69, 0
8, 35232, Note_on_c, 8, 67, 45
8, 35326, Note_on_c, 8, 67, 0
8, 35328, Note_on_c, 8, 66, 45
8, 35422, Note_on_c, 8, 66, 0
8, 35520, Note_on_c, 8, 66, 92
8, 35614, Note_on_c, 8, 66, 0
8, 35616, Note_on_c, 8, 62, 92
8, 35710, Note_on_c, 8, 62, 0
8, 35712, Note_on_c, 8, 74, 92
8, 35854, Note_on_c, 8, 74, 0
8, 35856, Note_on_c, 8, 78, 92
8, 35902, Note_on_c, 8, 78, 0
8, 35904, Note_on_c, 8, 78, 92
8, 35950, Note_on_c, 8, 78, 0
8, 35952, Note_on_c, 8, 76, 92
8, 35998, Note_on_c, 8, 76, 0
8, 36000, Note_on_c, 8, 74, 92
8, 36046, Note_on_c, 8, 74, 0
8, 36048, Note_on_c, 8, 73, 92
8, 36094, Note_on_c, 8, 73, 0
8, 36096, Note_on_c, 8, 74, 92
8, 36190, Note_on_c, 8, 74, 0
8, 36192, Note_on_c, 8, 78, 92
8, 36224, Note_on_c, 8, 78, 0
8, 36240, Note_on_c, 8, 74, 92
8, 36272, Note_on_c, 8, 74, 0
8, 36288, Note_on_c, 8, 81, 92
8, 36336, Note_on_c, 8, 81, 0
8, 36336, Note_on_c, 8, 78, 92
8, 36382, Note_on_c, 8, 78, 0
8, 36384, Note_on_c, 8, 81, 92
8, 36416, Note_on_c, 8, 81, 0
8, 36432, Note_on_c, 8, 78, 92
8, 36464, Note_on_c, 8, 78, 0
8, 36480, Note_on_c, 8, 74, 92
8, 36528, Note_on_c, 8, 74, 0
8, 36528, Note_on_c, 8, 78, 92
8, 36574, Note_on_c, 8, 78, 0
8, 36576, Note_on_c, 8, 74, 92
8, 36608, Note_on_c, 8, 74, 0
8, 36624, Note_on_c, 8, 78, 92
8, 36656, Note_on_c, 8, 78, 0
8, 36672, Note_on_c, 8, 78, 92
8, 36718, Note_on_c, 8, 78, 0
8, 36720, Note_on_c, 8, 76, 92
8, 36766, Note_on_c, 8, 76, 0
8, 36768, Note_on_c, 8, 74, 92
8, 36814, Note_on_c, 8, 74, 0
8, 36816, Note_on_c, 8, 73, 92
8, 36862, Note_on_c, 8, 73, 0
8, 36864, Note_on_c, 8, 74, 92
8, 36896, Note_on_c, 8, 74, 0
8, 36960, Note_on_c, 8, 74, 92
8, 36992, Note_on_c, 8, 74, 0
8, 37056, Note_on_c, 8, 76, 92
8, 37080, Note_on_c, 8, 76, 0
8, 37080, Note_on_c, 8, 74, 92
8, 37104, Note_on_c, 8, 74, 0
8, 37104, Note_on_c, 8, 76, 92
8, 37128, Note_on_c, 8, 76, 0
8, 37128, Note_on_c, 8, 74, 92
8, 37152, Note_on_c, 8, 74, 0
8, 37152, Note_on_c, 8, 76, 92
8, 37176, Note_on_c, 8, 76, 0
8, 37176, Note_on_c, 8, 74, 92
8, 37200, Note_on_c, 8, 74, 0
8, 37200, Note_on_c, 8, 73, 92
8, 37224, Note_on_c, 8, 73, 0
8, 37224, Note_on_c, 8, 74, 92
8, 37246, Note_on_c, 8, 74, 0
8, 37248, Note_on_c, 8, 78, 92
8, 37280, Note_on_c, 8, 78, 0
8, 37344, Note_on_c, 8, 74, 92
8, 37376, Note_on_c, 8, 74, 0
8, 37440, Note_on_c, 8, 69, 92
8, 37472, Note_on_c, 8, 69, 0
8, 37536, Note_on_c, 8, 66, 92
8, 37568, Note_on_c, 8, 66, 0
8, 37632, Note_on_c, 8, 62, 92
8, 37792, Note_on_c, 8, 62, 0
8, 38400, Note_on_c, 8, 69, 45
8, 40096, Note_on_c, 8, 69, 0
8, 40704, Note_on_c, 8, 69, 45
8, 42400, Note_on_c, 8, 69, 0
8, 43008, Note_on_c, 8, 74, 45
8, 43102, Note_on_c, 8, 74, 0
8, 43104, Note_on_c, 8, 74, 45
8, 43198, Note_on_c, 8, 74, 0
8, 43200, Note_on_c, 8, 74, 45
8, 43294, Note_on_c, 8, 74, 0
8, 43296, Note_on_c, 8, 74, 45
8, 43390, Note_on_c, 8, 74, 0
8, 43392, Note_on_c, 8, 73, 45
8, 43486, Note_on_c, 8, 73, 0
8, 43488, Note_on_c, 8, 73, 45
8, 43582, Note_on_c, 8, 73, 0
8, 43584, Note_on_c, 8, 73, 45
8, 43678, Note_on_c, 8, 73, 0
8, 43680, Note_on_c, 8, 73, 45
8, 43774, Note_on_c, 8, 73, 0
8, 43776, Note_on_c, 8, 68, 45
8, 43870, Note_on_c, 8, 68, 0
8, 43872, Note_on_c, 8, 68, 45
8, 43966, Note_on_c, 8, 68, 0
8, 43968, Note_on_c, 8, 68, 45
8, 44062, Note_on_c, 8, 68, 0
8, 44064, Note_on_c, 8, 68, 45
8, 44158, Note_on_c, 8, 68, 0
8, 44160, Note_on_c, 8, 69, 45
8, 44254, Note_on_c, 8, 69, 0
8, 44256, Note_on_c, 8, 69, 45
8, 44350, Note_on_c, 8, 69, 0
8, 44352, Note_on_c, 8, 69, 45
8, 44446, Note_on_c, 8, 69, 0
8, 44448, Note_on_c, 8, 73, 45
8, 44542, Note_on_c, 8, 73, 0
8, 44544, Note_on_c, 8, 74, 45
8, 44638, Note_on_c, 8, 74, 0
8, 44640, Note_on_c, 8, 74, 45
8, 44734, Note_on_c, 8, 74, 0
8, 44736, Note_on_c, 8, 74, 45
8, 44830, Note_on_c, 8, 74, 0
8, 44832, Note_on_c, 8, 74, 45
8, 44926, Note_on_c, 8, 74, 0
8, 44928, Note_on_c, 8, 73, 45
8, 45022, Note_on_c, 8, 73, 0
8, 45024, Note_on_c, 8, 73, 45
8, 45118, Note_on_c, 8, 73, 0
8, 45120, Note_on_c, 8, 73, 45
8, 45214, Note_on_c, 8, 73, 0
8, 45216, Note_on_c, 8, 73, 45
8, 45310, Note_on_c, 8, 73, 0
8, 45312, Note_on_c, 8, 68, 45
8, 45406, Note_on_c, 8, 68, 0
8, 45408, Note_on_c, 8, 68, 45
8, 45502, Note_on_c, 8, 68, 0
8, 45504, Note_on_c, 8, 68, 45
8, 45598, Note_on_c, 8, 68, 0
8, 45600, Note_on_c, 8, 68, 45
8, 45694, Note_on_c, 8, 68, 0
8, 45696, Note_on_c, 8, 69, 45
8, 45790, Note_on_c, 8, 69, 0
8, 45792, Note_on_c, 8, 69, 45
8, 45888, Note_on_c, 8, 69, 0
8, 45888, Note_on_c, 8, 71, 45
8, 45984, Note_on_c, 8, 71, 0
8, 45984, Note_on_c, 8, 73, 45
8, 46078, Note_on_c, 8, 73, 0
8, 46080, Note_on_c, 8, 74, 45
8, 46174, Note_on_c, 8, 74, 0
8, 46176, Note_on_c, 8, 74, 45
8, 46270, Note_on_c, 8, 74, 0
8, 46272, Note_on_c, 8, 74, 45
8, 46366, Note_on_c, 8, 74, 0
8, 46368, Note_on_c, 8, 74, 45
8, 46462, Note_on_c, 8, 74, 0
8, 46464, Note_on_c, 8, 76, 45
8, 46558, Note_on_c, 8, 76, 0
8, 46560, Note_on_c, 8, 76, 45
8, 46654, Note_on_c, 8, 76, 0
8, 46656, Note_on_c, 8, 76, 45
8, 46750, Note_on_c, 8, 76, 0
8, 46752, Note_on_c, 8, 76, 45
8, 46846, Note_on_c, 8, 76, 0
8, 46848, Note_on_c, 8, 74, 45
8, 46942, Note_on_c, 8, 74, 0
8, 46944, Note_on_c, 8, 74, 45
8, 47038, Note_on_c, 8, 74, 0
8, 47040, Note_on_c, 8, 74, 45
8, 47134, Note_on_c, 8, 74, 0
8, 47136, Note_on_c, 8, 74, 45
8, 47230, Note_on_c, 8, 74, 0
8, 47232, Note_on_c, 8, 76, 45
8, 47326, Note_on_c, 8, 76, 0
8, 47328, Note_on_c, 8, 76, 45
8, 47422, Note_on_c, 8, 76, 0
8, 47424, Note_on_c, 8, 76, 45
8, 47518, Note_on_c, 8, 76, 0
8, 47520, Note_on_c, 8, 76, 45
8, 47614, Note_on_c, 8, 76, 0
8, 47616, Note_on_c, 8, 74, 45
8, 47710, Note_on_c, 8, 74, 0
8, 47712, Note_on_c, 8, 74, 45
8, 47806, Note_on_c, 8, 74, 0
8, 47808, Note_on_c, 8, 74, 45
8, 47902, Note_on_c, 8, 74, 0
8, 47904, Note_on_c, 8, 74, 45
8, 47998, Note_on_c, 8, 74, 0
8, 48000, Note_on_c, 8, 62, 45
8, 48094, Note_on_c, 8, 62, 0
8, 48096, Note_on_c, 8, 62, 45
8, 48190, Note_on_c, 8, 62, 0
8, 48192, Note_on_c, 8, 63, 45
8, 48286, Note_on_c, 8, 63, 0
8, 48288, Note_on_c, 8, 63, 45
8, 48382, Note_on_c, 8, 63, 0
8, 48384, Note_on_c, 8, 64, 45
8, 48544, Note_on_c, 8, 64, 0
8, 48960, Note_on_c, 8, 59, 45
8, 49120, Note_on_c, 8, 59, 0
8, 49152, Note_on_c, 8, 59, 45
8, 49246, Note_on_c, 8, 59, 0
8, 49248, Note_on_c, 8, 59, 45
8, 49342, Note_on_c, 8, 59, 0
8, 49344, Note_on_c, 8, 59, 45
8, 49438, Note_on_c, 8, 59, 0
8, 49440, Note_on_c, 8, 59, 45
8, 49534, Note_on_c, 8, 59, 0
8, 49536, Note_on_c, 8, 59, 45
8, 49696, Note_on_c, 8, 59, 0
8, 49920, Note_on_c, 8, 68, 45
8, 49920, Note_on_c, 8, 71, 45
8, 50014, Note_on_c, 8, 68, 0
8, 50014, Note_on_c, 8, 71, 0
8, 50016, Note_on_c, 8, 68, 45
8, 50016, Note_on_c, 8, 71, 45
8, 50110, Note_on_c, 8, 68, 0
8, 50110, Note_on_c, 8, 71, 0
8, 50112, Note_on_c, 8, 68, 45
8, 50112, Note_on_c, 8, 71, 45
8, 50206, Note_on_c, 8, 68, 0
8, 50206, Note_on_c, 8, 71, 0
8, 50208, Note_on_c, 8, 68, 45
8, 50208, Note_on_c, 8, 71, 45
8, 50302, Note_on_c, 8, 68, 0
8, 50302, Note_on_c, 8, 71, 0
8, 50304, Note_on_c, 8, 68, 45
8, 50304, Note_on_c, 8, 71, 45
8, 50464, Note_on_c, 8, 68, 0
8, 50464, Note_on_c, 8, 71, 0
8, 50688, Note_on_c, 8, 68, 45
8, 50688, Note_on_c, 8, 71, 45
8, 50782, Note_on_c, 8, 68, 0
8, 50782, Note_on_c, 8, 71, 0
8, 50880, Note_on_c, 8, 68, 45
8, 50880, Note_on_c, 8, 71, 45
8, 50974, Note_on_c, 8, 68, 0
8, 50974, Note_on_c, 8, 71, 0
8, 51072, Note_on_c, 8, 68, 45
8, 51072, Note_on_c, 8, 71, 45
8, 51166, Note_on_c, 8, 68, 0
8, 51166, Note_on_c, 8, 71, 0
8, 51264, Note_on_c, 8, 68, 45
8, 51264, Note_on_c, 8, 71, 45
8, 51358, Note_on_c, 8, 68, 0
8, 51358, Note_on_c, 8, 71, 0
8, 51456, Note_on_c, 8, 69, 45
8, 51550, Note_on_c, 8, 69, 0
8, 51648, Note_on_c, 8, 69, 45
8, 51696, Note_on_c, 8, 69, 0
8, 51696, Note_on_c, 8, 73, 45
8, 51742, Note_on_c, 8, 73, 0
8, 51744, Note_on_c, 8, 71, 45
8, 51792, Note_on_c, 8, 71, 0
8, 51792, Note_on_c, 8, 74, 45
8, 51838, Note_on_c, 8, 74, 0
8, 51840, Note_on_c, 8, 73, 45
8, 51934, Note_on_c, 8, 73, 0
8, 52224, Note_on_c, 8, 69, 45
8, 52318, Note_on_c, 8, 69, 0
8, 52416, Note_on_c, 8, 69, 45
8, 52464, Note_on_c, 8, 69, 0
8, 52464, Note_on_c, 8, 74, 45
8, 52510, Note_on_c, 8, 74, 0
8, 52512, Note_on_c, 8, 73, 45
8, 52560, Note_on_c, 8, 73, 0
8, 52560, Note_on_c, 8, 76, 45
8, 52606, Note_on_c, 8, 76, 0
8, 52608, Note_on_c, 8, 74, 45
8, 52702, Note_on_c, 8, 74, 0
8, 52992, Note_on_c, 8, 69, 45
8, 53086, Note_on_c, 8, 69, 0
8, 53184, Note_on_c, 8, 69, 45
8, 53232, Note_on_c, 8, 69, 0
8, 53232, Note_on_c, 8, 76, 45
8, 53278, Note_on_c, 8, 76, 0
8, 53280, Note_on_c, 8, 74, 45
8, 53328, Note_on_c, 8, 74, 0
8, 53328, Note_on_c, 8, 78, 45
8, 53374, Note_on_c, 8, 78, 0
8, 53376, Note_on_c, 8, 76, 45
8, 53470, Note_on_c, 8, 76, 0
8, 53808, Note_on_c, 8, 74, 45
8, 53856, Note_on_c, 8, 74, 0
8, 53856, Note_on_c, 8, 73, 45
8, 53904, Note_on_c, 8, 73, 0
8, 53904, Note_on_c, 8, 74, 45
8, 53952, Note_on_c, 8, 74, 0
8, 53952, Note_on_c, 8, 76, 45
8, 54000, Note_on_c, 8, 76, 0
8, 54000, Note_on_c, 8, 74, 45
8, 54048, Note_on_c, 8, 74, 0
8, 54048, Note_on_c, 8, 73, 45
8, 54096, Note_on_c, 8, 73, 0
8, 54096, Note_on_c, 8, 74, 45
8, 54142, Note_on_c, 8, 74, 0
8, 54192, Note_on_c, 8, 73, 45
8, 54240, Note_on_c, 8, 73, 0
8, 54240, Note_on_c, 8, 71, 45
8, 54288, Note_on_c, 8, 71, 0
8, 54288, Note_on_c, 8, 73, 45
8, 54336, Note_on_c, 8, 73, 0
8, 54336, Note_on_c, 8, 74, 45
8, 54384, Note_on_c, 8, 74, 0
8, 54384, Note_on_c, 8, 73, 45
8, 54432, Note_on_c, 8, 73, 0
8, 54432, Note_on_c, 8, 71, 45
8, 54480, Note_on_c, 8, 71, 0
8, 54480, Note_on_c, 8, 73, 45
8, 54526, Note_on_c, 8, 73, 0
8, 54528, Note_on_c, 8, 72, 92
8, 54622, Note_on_c, 8, 72, 0
8, 54624, Note_on_c, 8, 69, 45
8, 54718, Note_on_c, 8, 69, 0
8, 54720, Note_on_c, 8, 69, 45
8, 54814, Note_on_c, 8, 69, 0
8, 54816, Note_on_c, 8, 69, 45
8, 54910, Note_on_c, 8, 69, 0
8, 54912, Note_on_c, 8, 69, 45
8, 55008, Note_on_c, 8, 69, 0
8, 55008, Note_on_c, 8, 71, 45
8, 55102, Note_on_c, 8, 71, 0
8, 55104, Note_on_c, 8, 71, 45
8, 55200, Note_on_c, 8, 71, 0
8, 55200, Note_on_c, 8, 72, 45
8, 55294, Note_on_c, 8, 72, 0
8, 55392, Note_on_c, 8, 71, 45
8, 55486, Note_on_c, 8, 71, 0
8, 55488, Note_on_c, 8, 71, 45
8, 55582, Note_on_c, 8, 71, 0
8, 55584, Note_on_c, 8, 71, 45
8, 55678, Note_on_c, 8, 71, 0
8, 55776, Note_on_c, 8, 68, 45
8, 55870, Note_on_c, 8, 68, 0
8, 55872, Note_on_c, 8, 68, 45
8, 55966, Note_on_c, 8, 68, 0
8, 55968, Note_on_c, 8, 68, 45
8, 56062, Note_on_c, 8, 68, 0
8, 56160, Note_on_c, 8, 69, 45
8, 56254, Note_on_c, 8, 69, 0
8, 56352, Note_on_c, 8, 73, 45
8, 56446, Note_on_c, 8, 73, 0
8, 56544, Note_on_c, 8, 74, 45
8, 56638, Note_on_c, 8, 74, 0
8, 56736, Note_on_c, 8, 71, 45
8, 56830, Note_on_c, 8, 71, 0
8, 56832, Note_on_c, 8, 69, 45
8, 56926, Note_on_c, 8, 69, 0
8, 56928, Note_on_c, 8, 69, 45
8, 57022, Note_on_c, 8, 69, 0
8, 57024, Note_on_c, 8, 69, 45
8, 57118, Note_on_c, 8, 69, 0
8, 57120, Note_on_c, 8, 69, 45
8, 57214, Note_on_c, 8, 69, 0
8, 57216, Note_on_c, 8, 71, 45
8, 57312, Note_on_c, 8, 71, 0
8, 57312, Note_on_c, 8, 68, 45
8, 57406, Note_on_c, 8, 68, 0
8, 57408, Note_on_c, 8, 68, 45
8, 57504, Note_on_c, 8, 68, 0
8, 57504, Note_on_c, 8, 62, 45
8, 57598, Note_on_c, 8, 62, 0
8, 57600, Note_on_c, 8, 61, 92
8, 57670, Note_on_c, 8, 61, 0
8, 57672, Note_on_c, 8, 74, 92
8, 57694, Note_on_c, 8, 74, 0
8, 57696, Note_on_c, 8, 73, 92
8, 57742, Note_on_c, 8, 73, 0
8, 57744, Note_on_c, 8, 71, 92
8, 57790, Note_on_c, 8, 71, 0
8, 57792, Note_on_c, 8, 73, 92
8, 57886, Note_on_c, 8, 73, 0
8, 57888, Note_on_c, 8, 76, 92
8, 57982, Note_on_c, 8, 76, 0
8, 57984, Note_on_c, 8, 81, 92
8, 58054, Note_on_c, 8, 81, 0
8, 58056, Note_on_c, 8, 83, 92
8, 58078, Note_on_c, 8, 83, 0
8, 58080, Note_on_c, 8, 81, 92
8, 58126, Note_on_c, 8, 81, 0
8, 58128, Note_on_c, 8, 80, 92
8, 58174, Note_on_c, 8, 80, 0
8, 58176, Note_on_c, 8, 81, 92
8, 58270, Note_on_c, 8, 81, 0
8, 58272, Note_on_c, 8, 81, 92
8, 58366, Note_on_c, 8, 81, 0
8, 58368, Note_on_c, 8, 80, 92
8, 58528, Note_on_c, 8, 80, 0
8, 58560, Note_on_c, 8, 64, 92
8, 58560, Note_on_c, 8, 71, 92
8, 58560, Note_on_c, 8, 80, 92
8, 58720, Note_on_c, 8, 64, 0
8, 58720, Note_on_c, 8, 71, 0
8, 58720, Note_on_c, 8, 80, 0
8, 58752, Note_on_c, 8, 64, 92
8, 58912, Note_on_c, 8, 64, 0
8, 59904, Note_on_c, 8, 61, 45
8, 59904, Note_on_c, 8, 64, 45
8, 60624, Note_on_c, 8, 61, 0
8, 60624, Note_on_c, 8, 64, 0
8, 60672, Note_on_c, 8, 62, 45
8, 61008, Note_on_c, 8, 62, 0
8, 61056, Note_on_c, 8, 59, 45
8, 61248, Note_on_c, 8, 59, 0
8, 61248, Note_on_c, 8, 64, 45
8, 61408, Note_on_c, 8, 64, 0
8, 61440, Note_on_c, 8, 61, 45
8, 61440, Note_on_c, 8, 64, 45
8, 62160, Note_on_c, 8, 61, 0
8, 62160, Note_on_c, 8, 64, 0
8, 62208, Note_on_c, 8, 62, 45
8, 62544, Note_on_c, 8, 62, 0
8, 62592, Note_on_c, 8, 59, 45
8, 62784, Note_on_c, 8, 59, 0
8, 62784, Note_on_c, 8, 64, 45
8, 62944, Note_on_c, 8, 64, 0
8, 62976, Note_on_c, 8, 64, 45
8, 63136, Note_on_c, 8, 64, 0
8, 63360, Note_on_c, 8, 74, 45
8, 63454, Note_on_c, 8, 74, 0
8, 63456, Note_on_c, 8, 74, 45
8, 63550, Note_on_c, 8, 74, 0
8, 63552, Note_on_c, 8, 74, 45
8, 63646, Note_on_c, 8, 74, 0
8, 63648, Note_on_c, 8, 74, 45
8, 63742, Note_on_c, 8, 74, 0
8, 63744, Note_on_c, 8, 73, 45
8, 63838, Note_on_c, 8, 73, 0
8, 63840, Note_on_c, 8, 73, 45
8, 63934, Note_on_c, 8, 73, 0
8, 63936, Note_on_c, 8, 73, 45
8, 64030, Note_on_c, 8, 73, 0
8, 64032, Note_on_c, 8, 73, 45
8, 64126, Note_on_c, 8, 73, 0
8, 64128, Note_on_c, 8, 68, 45
8, 64222, Note_on_c, 8, 68, 0
8, 64224, Note_on_c, 8, 68, 45
8, 64318, Note_on_c, 8, 68, 0
8, 64320, Note_on_c, 8, 68, 45
8, 64414, Note_on_c, 8, 68, 0
8, 64416, Note_on_c, 8, 68, 45
8, 64510, Note_on_c, 8, 68, 0
8, 64512, Note_on_c, 8, 69, 45
8, 64606, Note_on_c, 8, 69, 0
8, 64608, Note_on_c, 8, 69, 45
8, 64702, Note_on_c, 8, 69, 0
8, 64704, Note_on_c, 8, 69, 45
8, 64798, Note_on_c, 8, 69, 0
8, 64800, Note_on_c, 8, 69, 45
8, 64894, Note_on_c, 8, 69, 0
8, 64896, Note_on_c, 8, 74, 45
8, 64990, Note_on_c, 8, 74, 0
8, 64992, Note_on_c, 8, 74, 45
8, 65086, Note_on_c, 8, 74, 0
8, 65088, Note_on_c, 8, 74, 45
8, 65182, Note_on_c, 8, 74, 0
8, 65184, Note_on_c, 8, 74, 45
8, 65278, Note_on_c, 8, 74, 0
8, 65280, Note_on_c, 8, 73, 45
8, 65374, Note_on_c, 8, 73, 0
8, 65376, Note_on_c, 8, 73, 45
8, 65470, Note_on_c, 8, 73, 0
8, 65472, Note_on_c, 8, 73, 45
8, 65566, Note_on_c, 8, 73, 0
8, 65568, Note_on_c, 8, 73, 45
8, 65662, Note_on_c, 8, 73, 0
8, 65664, Note_on_c, 8, 68, 45
8, 65758, Note_on_c, 8, 68, 0
8, 65760, Note_on_c, 8, 68, 45
8, 65854, Note_on_c, 8, 68, 0
8, 65856, Note_on_c, 8, 68, 45
8, 65950, Note_on_c, 8, 68, 0
8, 65952, Note_on_c, 8, 68, 45
8, 66046, Note_on_c, 8, 68, 0
8, 66048, Note_on_c, 8, 69, 45
8, 66208, Note_on_c, 8, 69, 0
8, 66720, Note_on_c, 8, 64, 45
8, 66814, Note_on_c, 8, 64, 0
8, 66816, Note_on_c, 8, 62, 45
8, 66910, Note_on_c, 8, 62, 0
8, 66912, Note_on_c, 8, 62, 45
8, 67006, Note_on_c, 8, 62, 0
8, 67008, Note_on_c, 8, 62, 45
8, 67102, Note_on_c, 8, 62, 0
8, 67104, Note_on_c, 8, 62, 45
8, 67198, Note_on_c, 8, 62, 0
8, 67200, Note_on_c, 8, 62, 45
8, 67294, Note_on_c, 8, 62, 0
8, 67296, Note_on_c, 8, 62, 45
8, 67390, Note_on_c, 8, 62, 0
8, 67392, Note_on_c, 8, 62, 45
8, 67486, Note_on_c, 8, 62, 0
8, 67488, Note_on_c, 8, 62, 45
8, 67582, Note_on_c, 8, 62, 0
8, 67584, Note_on_c, 8, 61, 45
8, 67678, Note_on_c, 8, 61, 0
8, 67680, Note_on_c, 8, 61, 45
8, 67774, Note_on_c, 8, 61, 0
8, 67776, Note_on_c, 8, 66, 45
8, 67870, Note_on_c, 8, 66, 0
8, 67872, Note_on_c, 8, 66, 45
8, 67966, Note_on_c, 8, 66, 0
8, 67968, Note_on_c, 8, 62, 45
8, 68062, Note_on_c, 8, 62, 0
8, 68064, Note_on_c, 8, 62, 45
8, 68158, Note_on_c, 8, 62, 0
8, 68160, Note_on_c, 8, 64, 45
8, 68254, Note_on_c, 8, 64, 0
8, 68256, Note_on_c, 8, 64, 45
8, 68350, Note_on_c, 8, 64, 0
8, 68352, Note_on_c, 8, 64, 45
8, 68512, Note_on_c, 8, 64, 0
8, 68832, Note_on_c, 8, 64, 45
8, 68926, Note_on_c, 8, 64, 0
8, 68928, Note_on_c, 8, 64, 45
8, 69022, Note_on_c, 8, 64, 0
8, 69024, Note_on_c, 8, 69, 45
8, 69118, Note_on_c, 8, 69, 0
8, 69120, Note_on_c, 8, 69, 45
8, 69280, Note_on_c, 8, 69, 0
8, 69600, Note_on_c, 8, 69, 45
8, 69694, Note_on_c, 8, 69, 0
8, 69696, Note_on_c, 8, 69, 45
8, 69790, Note_on_c, 8, 69, 0
8, 69792, Note_on_c, 8, 69, 45
8, 69886, Note_on_c, 8, 69, 0
8, 69888, Note_on_c, 8, 69, 45
8, 69982, Note_on_c, 8, 69, 0
8, 69984, Note_on_c, 8, 69, 45
8, 70078, Note_on_c, 8, 69, 0
8, 70080, Note_on_c, 8, 69, 45
8, 70174, Note_on_c, 8, 69, 0
8, 70176, Note_on_c, 8, 69, 45
8, 70270, Note_on_c, 8, 69, 0
8, 70272, Note_on_c, 8, 69, 45
8, 70366, Note_on_c, 8, 69, 0
8, 70368, Note_on_c, 8, 69, 45
8, 70462, Note_on_c, 8, 69, 0
8, 70464, Note_on_c, 8, 68, 45
8, 70558, Note_on_c, 8, 68, 0
8, 70560, Note_on_c, 8, 68, 45
8, 70654, Note_on_c, 8, 68, 0
8, 70656, Note_on_c, 8, 69, 45
8, 70816, Note_on_c, 8, 69, 0
8, 71136, Note_on_c, 8, 64, 45
8, 71230, Note_on_c, 8, 64, 0
8, 71232, Note_on_c, 8, 64, 45
8, 71326, Note_on_c, 8, 64, 0
8, 71328, Note_on_c, 8, 64, 45
8, 71422, Note_on_c, 8, 64, 0
8, 71424, Note_on_c, 8, 66, 45
8, 71584, Note_on_c, 8, 66, 0
8, 71904, Note_on_c, 8, 69, 45
8, 71998, Note_on_c, 8, 69, 0
8, 72000, Note_on_c, 8, 69, 45
8, 72094, Note_on_c, 8, 69, 0
8, 72096, Note_on_c, 8, 69, 45
8, 72190, Note_on_c, 8, 69, 0
8, 72192, Note_on_c, 8, 69, 45
8, 72286, Note_on_c, 8, 69, 0
8, 72288, Note_on_c, 8, 69, 45
8, 72382, Note_on_c, 8, 69, 0
8, 72384, Note_on_c, 8, 69, 45
8, 72478, Note_on_c, 8, 69, 0
8, 72480, Note_on_c, 8, 69, 45
8, 72574, Note_on_c, 8, 69, 0
8, 72576, Note_on_c, 8, 69, 45
8, 72670, Note_on_c, 8, 69, 0
8, 72672, Note_on_c, 8, 69, 45
8, 72766, Note_on_c, 8, 69, 0
8, 72768, Note_on_c, 8, 69, 45
8, 72862, Note_on_c, 8, 69, 0
8, 72864, Note_on_c, 8, 69, 45
8, 72958, Note_on_c, 8, 69, 0
8, 72960, Note_on_c, 8, 68, 45
8, 73006, Note_on_c, 8, 68, 0
8, 73008, Note_on_c, 8, 68, 45
8, 73054, Note_on_c, 8, 68, 0
8, 73056, Note_on_c, 8, 68, 45
8, 73102, Note_on_c, 8, 68, 0
8, 73104, Note_on_c, 8, 68, 45
8, 73150, Note_on_c, 8, 68, 0
8, 73152, Note_on_c, 8, 62, 45
8, 73198, Note_on_c, 8, 62, 0
8, 73200, Note_on_c, 8, 62, 48
8, 73246, Note_on_c, 8, 62, 0
8, 73248, Note_on_c, 8, 62, 52
8, 73294, Note_on_c, 8, 62, 0
8, 73296, Note_on_c, 8, 62, 56
8, 73342, Note_on_c, 8, 62, 0
8, 73344, Note_on_c, 8, 71, 60
8, 73390, Note_on_c, 8, 71, 0
8, 73392, Note_on_c, 8, 71, 64
8, 73438, Note_on_c, 8, 71, 0
8, 73440, Note_on_c, 8, 71, 68
8, 73486, Note_on_c, 8, 71, 0
8, 73488, Note_on_c, 8, 71, 72
8, 73534, Note_on_c, 8, 71, 0
8, 73536, Note_on_c, 8, 74, 76
8, 73582, Note_on_c, 8, 74, 0
8, 73584, Note_on_c, 8, 74, 80
8, 73630, Note_on_c, 8, 74, 0
8, 73632, Note_on_c, 8, 74, 84
8, 73678, Note_on_c, 8, 74, 0
8, 73680, Note_on_c, 8, 74, 88
8, 73726, Note_on_c, 8, 74, 0
8, 73728, Note_on_c, 8, 64, 92
8, 73728, Note_on_c, 8, 73, 92
8, 73822, Note_on_c, 8, 64, 0
8, 73822, Note_on_c, 8, 73, 0
8, 73824, Note_on_c, 8, 64, 92
8, 73824, Note_on_c, 8, 73, 92
8, 73984, Note_on_c, 8, 64, 0
8, 73984, Note_on_c, 8, 73, 0
8, 74016, Note_on_c, 8, 64, 92
8, 74016, Note_on_c, 8, 73, 92
8, 74176, Note_on_c, 8, 64, 0
8, 74176, Note_on_c, 8, 73, 0
8, 74208, Note_on_c, 8, 64, 92
8, 74208, Note_on_c, 8, 73, 92
8, 74368, Note_on_c, 8, 64, 0
8, 74368, Note_on_c, 8, 73, 0
8, 74400, Note_on_c, 8, 64, 92
8, 74400, Note_on_c, 8, 73, 92
8, 74494, Note_on_c, 8, 64, 0
8, 74494, Note_on_c, 8, 73, 0
8, 74496, Note_on_c, 8, 69, 92
8, 74544, Note_on_c, 8, 69, 0
8, 74544, Note_on_c, 8, 68, 92
8, 74592, Note_on_c, 8, 68, 0
8, 74592, Note_on_c, 8, 66, 92
8, 74640, Note_on_c, 8, 66, 0
8, 74640, Note_on_c, 8, 65, 92
8, 74686, Note_on_c, 8, 65, 0
8, 74688, Note_on_c, 8, 66, 92
8, 74782, Note_on_c, 8, 66, 0
8, 74880, Note_on_c, 8, 74, 92
8, 74928, Note_on_c, 8, 74, 0
8, 74928, Note_on_c, 8, 76, 92
8, 74974, Note_on_c, 8, 76, 0
8, 74976, Note_on_c, 8, 78, 92
8, 75008, Note_on_c, 8, 78, 0
8, 75024, Note_on_c, 8, 76, 92
8, 75056, Note_on_c, 8, 76, 0
8, 75072, Note_on_c, 8, 78, 92
8, 75166, Note_on_c, 8, 78, 0
8, 75168, Note_on_c, 8, 74, 92
8, 75262, Note_on_c, 8, 74, 0
8, 75264, Note_on_c, 8, 73, 92
8, 75358, Note_on_c, 8, 73, 0
8, 75360, Note_on_c, 8, 76, 92
8, 75406, Note_on_c, 8, 76, 0
8, 75408, Note_on_c, 8, 73, 92
8, 75454, Note_on_c, 8, 73, 0
8, 75456, Note_on_c, 8, 69, 92
8, 75550, Note_on_c, 8, 69, 0
8, 75552, Note_on_c, 8, 73, 92
8, 75598, Note_on_c, 8, 73, 0
8, 75600, Note_on_c, 8, 69, 92
8, 75646, Note_on_c, 8, 69, 0
8, 75648, Note_on_c, 8, 76, 92
8, 75742, Note_on_c, 8, 76, 0
8, 75744, Note_on_c, 8, 76, 92
8, 75790, Note_on_c, 8, 76, 0
8, 75792, Note_on_c, 8, 73, 92
8, 75838, Note_on_c, 8, 73, 0
8, 75840, Note_on_c, 8, 74, 92
8, 75934, Note_on_c, 8, 74, 0
8, 75936, Note_on_c, 8, 74, 92
8, 75982, Note_on_c, 8, 74, 0
8, 75984, Note_on_c, 8, 71, 92
8, 76030, Note_on_c, 8, 71, 0
8, 76032, Note_on_c, 8, 69, 92
8, 76192, Note_on_c, 8, 69, 0
8, 76992, Note_on_c, 8, 61, 92
8, 77086, Note_on_c, 8, 61, 0
8, 77088, Note_on_c, 8, 57, 92
8, 77182, Note_on_c, 8, 57, 0
8, 77184, Note_on_c, 8, 69, 92
8, 77326, Note_on_c, 8, 69, 0
8, 77328, Note_on_c, 8, 73, 92
8, 77374, Note_on_c, 8, 73, 0
8, 77376, Note_on_c, 8, 73, 92
8, 77422, Note_on_c, 8, 73, 0
8, 77424, Note_on_c, 8, 71, 92
8, 77470, Note_on_c, 8, 71, 0
8, 77472, Note_on_c, 8, 69, 92
8, 77518, Note_on_c, 8, 69, 0
8, 77520, Note_on_c, 8, 68, 92
8, 77566, Note_on_c, 8, 68, 0
8, 77568, Note_on_c, 8, 69, 92
8, 77662, Note_on_c, 8, 69, 0
8, 78528, Note_on_c, 8, 61, 92
8, 78622, Note_on_c, 8, 61, 0
8, 78624, Note_on_c, 8, 57, 92
8, 78718, Note_on_c, 8, 57, 0
8, 78720, Note_on_c, 8, 69, 92
8, 78768, Note_on_c, 8, 69, 0
8, 78768, Note_on_c, 8, 73, 92
8, 78814, Note_on_c, 8, 73, 0
8, 78816, Note_on_c, 8, 69, 92
8, 78848, Note_on_c, 8, 69, 0
8, 78864, Note_on_c, 8, 73, 92
8, 78896, Note_on_c, 8, 73, 0
8, 78912, Note_on_c, 8, 73, 92
8, 78958, Note_on_c, 8, 73, 0
8, 78960, Note_on_c, 8, 71, 92
8, 79006, Note_on_c, 8, 71, 0
8, 79008, Note_on_c, 8, 69, 92
8, 79054, Note_on_c, 8, 69, 0
8, 79056, Note_on_c, 8, 68, 92
8, 79102, Note_on_c, 8, 68, 0
8, 79104, Note_on_c, 8, 69, 92
8, 79198, Note_on_c, 8, 69, 0
8, 79200, Note_on_c, 8, 73, 92
8, 79246, Note_on_c, 8, 73, 0
8, 79248, Note_on_c, 8, 69, 92
8, 79294, Note_on_c, 8, 69, 0
8, 79296, Note_on_c, 8, 76, 92
8, 79344, Note_on_c, 8, 76, 0
8, 79344, Note_on_c, 8, 73, 92
8, 79390, Note_on_c, 8, 73, 0
8, 79392, Note_on_c, 8, 76, 92
8, 79424, Note_on_c, 8, 76, 0
8, 79440, Note_on_c, 8, 73, 92
8, 79472, Note_on_c, 8, 73, 0
8, 79488, Note_on_c, 8, 81, 92
8, 79536, Note_on_c, 8, 81, 0
8, 79536, Note_on_c, 8, 85, 92
8, 79582, Note_on_c, 8, 85, 0
8, 79584, Note_on_c, 8, 81, 92
8, 79616, Note_on_c, 8, 81, 0
8, 79632, Note_on_c, 8, 85, 92
8, 79664, Note_on_c, 8, 85, 0
8, 79680, Note_on_c, 8, 85, 92
8, 79726, Note_on_c, 8, 85, 0
8, 79728, Note_on_c, 8, 83, 92
8, 79774, Note_on_c, 8, 83, 0
8, 79776, Note_on_c, 8, 81, 92
8, 79822, Note_on_c, 8, 81, 0
8, 79824, Note_on_c, 8, 80, 92
8, 79870, Note_on_c, 8, 80, 0
8, 79872, Note_on_c, 8, 81, 92
8, 79966, Note_on_c, 8, 81, 0
8, 79968, Note_on_c, 8, 69, 92
8, 80062, Note_on_c, 8, 69, 0
8, 80064, Note_on_c, 8, 71, 92
8, 80088, Note_on_c, 8, 71, 0
8, 80088, Note_on_c, 8, 69, 92
8, 80112, Note_on_c, 8, 69, 0
8, 80112, Note_on_c, 8, 71, 92
8, 80136, Note_on_c, 8, 71, 0
8, 80136, Note_on_c, 8, 69, 92
8, 80160, Note_on_c, 8, 69, 0
8, 80160, Note_on_c, 8, 71, 92
8, 80184, Note_on_c, 8, 71, 0
8, 80184, Note_on_c, 8, 69, 92
8, 80208, Note_on_c, 8, 69, 0
8, 80208, Note_on_c, 8, 68, 92
8, 80232, Note_on_c, 8, 68, 0
8, 80232, Note_on_c, 8, 69, 92
8, 80254, Note_on_c, 8, 69, 0
8, 80256, Note_on_c, 8, 73, 92
8, 80288, Note_on_c, 8, 73, 0
8, 80352, Note_on_c, 8, 69, 92
8, 80384, Note_on_c, 8, 69, 0
8, 80448, Note_on_c, 8, 64, 92
8, 80480, Note_on_c, 8, 64, 0
8, 80544, Note_on_c, 8, 61, 92
8, 80576, Note_on_c, 8, 61, 0
8, 80640, Note_on_c, 8, 57, 92
8, 80800, Note_on_c, 8, 57, 0
8, 82272, Note_on_c, 8, 71, 45
8, 82366, Note_on_c, 8, 71, 0
8, 82368, Note_on_c, 8, 73, 45
8, 82392, Note_on_c, 8, 73, 0
8, 82392, Note_on_c, 8, 71, 45
8, 82416, Note_on_c, 8, 71, 0
8, 82416, Note_on_c, 8, 73, 45
8, 82440, Note_on_c, 8, 73, 0
8, 82440, Note_on_c, 8, 71, 45
8, 82464, Note_on_c, 8, 71, 0
8, 82464, Note_on_c, 8, 73, 45
8, 82488, Note_on_c, 8, 73, 0
8, 82488, Note_on_c, 8, 71, 45
8, 82512, Note_on_c, 8, 71, 0
8, 82512, Note_on_c, 8, 69, 45
8, 82536, Note_on_c, 8, 69, 0
8, 82536, Note_on_c, 8, 71, 45
8, 82558, Note_on_c, 8, 71, 0
8, 82560, Note_on_c, 8, 74, 45
8, 82592, Note_on_c, 8, 74, 0
8, 82656, Note_on_c, 8, 71, 45
8, 82688, Note_on_c, 8, 71, 0
8, 82752, Note_on_c, 8, 68, 45
8, 82784, Note_on_c, 8, 68, 0
8, 82848, Note_on_c, 8, 62, 45
8, 82880, Note_on_c, 8, 62, 0
8, 82944, Note_on_c, 8, 61, 45
8, 83104, Note_on_c, 8, 61, 0
8, 84576, Note_on_c, 8, 74, 45
8, 84670, Note_on_c, 8, 74, 0
8, 84672, Note_on_c, 8, 76, 45
8, 84696, Note_on_c, 8, 76, 0
8, 84696, Note_on_c, 8, 74, 45
8, 84720, Note_on_c, 8, 74, 0
8, 84720, Note_on_c, 8, 76, 45
8, 84744, Note_on_c, 8, 76, 0
8, 84744, Note_on_c, 8, 74, 45
8, 84768, Note_on_c, 8, 74, 0
8, 84768, Note_on_c, 8, 76, 45
8, 84792, Note_on_c, 8, 76, 0
8, 84792, Note_on_c, 8, 74, 45
8, 84816, Note_on_c, 8, 74, 0
8, 84816, Note_on_c, 8, 73, 45
8, 84840, Note_on_c, 8, 73, 0
8, 84840, Note_on_c, 8, 74, 45
8, 84862, Note_on_c, 8, 74, 0
8, 84864, Note_on_c, 8, 78, 45
8, 84896, Note_on_c, 8, 78, 0
8, 84960, Note_on_c, 8, 74, 45
8, 84992, Note_on_c, 8, 74, 0
8, 85056, Note_on_c, 8, 69, 45
8, 85088, Note_on_c, 8, 69, 0
8, 85152, Note_on_c, 8, 66, 45
8, 85184, Note_on_c, 8, 66, 0
8, 85248, Note_on_c, 8, 62, 45
8, 85408, Note_on_c, 8, 62, 0
8, 86016, Note_on_c, 8, 59, 45
8, 86110, Note_on_c, 8, 59, 0
8, 86112, Note_on_c, 8, 59, 45
8, 86206, Note_on_c, 8, 59, 0
8, 86208, Note_on_c, 8, 59, 45
8, 86302, Note_on_c, 8, 59, 0
8, 86304, Note_on_c, 8, 59, 45
8, 86398, Note_on_c, 8, 59, 0
8, 86400, Note_on_c, 8, 59, 45
8, 86494, Note_on_c, 8, 59, 0
8, 86496, Note_on_c, 8, 59, 45
8, 86590, Note_on_c, 8, 59, 0
8, 86592, Note_on_c, 8, 59, 45
8, 86686, Note_on_c, 8, 59, 0
8, 86688, Note_on_c, 8, 59, 45
8, 86782, Note_on_c, 8, 59, 0
8, 86784, Note_on_c, 8, 61, 45
8, 86944, Note_on_c, 8, 61, 0
8, 87456, Note_on_c, 8, 71, 45
8, 87552, Note_on_c, 8, 71, 0
8, 87552, Note_on_c, 8, 69, 45
8, 87712, Note_on_c, 8, 69, 0
8, 88224, Note_on_c, 8, 71, 45
8, 88320, Note_on_c, 8, 71, 0
8, 88320, Note_on_c, 8, 69, 45
8, 88414, Note_on_c, 8, 69, 0
8, 88416, Note_on_c, 8, 69, 45
8, 88448, Note_on_c, 8, 69, 0
8, 88512, Note_on_c, 8, 69, 45
8, 88544, Note_on_c, 8, 69, 0
8, 88608, Note_on_c, 8, 69, 45
8, 88640, Note_on_c, 8, 69, 0
8, 88704, Note_on_c, 8, 71, 45
8, 88798, Note_on_c, 8, 71, 0
8, 88800, Note_on_c, 8, 71, 45
8, 88894, Note_on_c, 8, 71, 0
8, 88896, Note_on_c, 8, 71, 45
8, 88990, Note_on_c, 8, 71, 0
8, 88992, Note_on_c, 8, 71, 45
8, 89086, Note_on_c, 8, 71, 0
8, 89088, Note_on_c, 8, 73, 45
8, 89182, Note_on_c, 8, 73, 0
8, 89184, Note_on_c, 8, 73, 45
8, 89278, Note_on_c, 8, 73, 0
8, 89280, Note_on_c, 8, 73, 45
8, 89374, Note_on_c, 8, 73, 0
8, 89376, Note_on_c, 8, 73, 45
8, 89470, Note_on_c, 8, 73, 0
8, 89472, Note_on_c, 8, 74, 45
8, 89566, Note_on_c, 8, 74, 0
8, 89568, Note_on_c, 8, 74, 45
8, 89662, Note_on_c, 8, 74, 0
8, 89664, Note_on_c, 8, 74, 45
8, 89758, Note_on_c, 8, 74, 0
8, 89760, Note_on_c, 8, 74, 45
8, 89854, Note_on_c, 8, 74, 0
8, 89856, Note_on_c, 8, 76, 45
8, 89950, Note_on_c, 8, 76, 0
8, 90048, Note_on_c, 8, 61, 45
8, 90142, Note_on_c, 8, 61, 0
8, 90144, Note_on_c, 8, 63, 45
8, 90238, Note_on_c, 8, 63, 0
8, 90240, Note_on_c, 8, 64, 45
8, 90334, Note_on_c, 8, 64, 0
8, 90432, Note_on_c, 8, 61, 45
8, 90526, Note_on_c, 8, 61, 0
8, 90528, Note_on_c, 8, 63, 45
8, 90622, Note_on_c, 8, 63, 0
8, 90624, Note_on_c, 8, 64, 45
8, 90718, Note_on_c, 8, 64, 0
8, 90816, Note_on_c, 8, 67, 45
8, 90910, Note_on_c, 8, 67, 0
8, 91008, Note_on_c, 8, 76, 45
8, 91102, Note_on_c, 8, 76, 0
8, 91200, Note_on_c, 8, 67, 45
8, 91294, Note_on_c, 8, 67, 0
8, 91392, Note_on_c, 8, 57, 92
8, 91392, Note_on_c, 8, 66, 92
8, 91552, Note_on_c, 8, 57, 0
8, 91552, Note_on_c, 8, 66, 0
8, 91584, Note_on_c, 8, 57, 92
8, 91584, Note_on_c, 8, 66, 92
8, 91920, Note_on_c, 8, 57, 0
8, 91920, Note_on_c, 8, 66, 0
8, 91968, Note_on_c, 8, 64, 92
8, 92016, Note_on_c, 8, 64, 0
8, 92016, Note_on_c, 8, 66, 92
8, 92062, Note_on_c, 8, 66, 0
8, 92064, Note_on_c, 8, 64, 92
8, 92112, Note_on_c, 8, 64, 0
8, 92112, Note_on_c, 8, 66, 92
8, 92158, Note_on_c, 8, 66, 0
8, 92160, Note_on_c, 8, 71, 92
8, 92320, Note_on_c, 8, 71, 0
8, 92352, Note_on_c, 8, 67, 92
8, 92494, Note_on_c, 8, 67, 0
8, 92496, Note_on_c, 8, 69, 92
8, 92542, Note_on_c, 8, 69, 0
8, 92544, Note_on_c, 8, 71, 92
8, 92704, Note_on_c, 8, 71, 0
8, 92736, Note_on_c, 8, 73, 92
8, 92896, Note_on_c, 8, 73, 0
8, 92928, Note_on_c, 8, 73, 45
8, 93024, Note_on_c, 8, 73, 0
8, 93024, Note_on_c, 8, 74, 45
8, 93118, Note_on_c, 8, 74, 0
8, 93120, Note_on_c, 8, 74, 45
8, 93456, Note_on_c, 8, 74, 0
8, 93504, Note_on_c, 8, 76, 45
8, 93552, Note_on_c, 8, 76, 0
8, 93552, Note_on_c, 8, 74, 45
8, 93598, Note_on_c, 8, 74, 0
8, 93600, Note_on_c, 8, 76, 45
8, 93648, Note_on_c, 8, 76, 0
8, 93648, Note_on_c, 8, 74, 45
8, 93694, Note_on_c, 8, 74, 0
8, 93696, Note_on_c, 8, 79, 45
8, 93856, Note_on_c, 8, 79, 0
8, 93888, Note_on_c, 8, 79, 45
8, 94224, Note_on_c, 8, 79, 0
8, 94272, Note_on_c, 8, 79, 45
8, 94432, Note_on_c, 8, 79, 0
8, 94464, Note_on_c, 8, 77, 45
8, 94560, Note_on_c, 8, 77, 0
8, 94560, Note_on_c, 8, 78, 45
8, 94654, Note_on_c, 8, 78, 0
8, 94656, Note_on_c, 8, 78, 45
8, 94688, Note_on_c, 8, 78, 0
8, 94752, Note_on_c, 8, 78, 45
8, 94784, Note_on_c, 8, 78, 0
8, 94944, Note_on_c, 8, 78, 45
8, 94976, Note_on_c, 8, 78, 0
8, 95040, Note_on_c, 8, 78, 45
8, 95072, Note_on_c, 8, 78, 0
8, 95136, Note_on_c, 8, 78, 45
8, 95168, Note_on_c, 8, 78, 0
8, 95328, Note_on_c, 8, 71, 45
8, 95422, Note_on_c, 8, 71, 0
8, 95424, Note_on_c, 8, 71, 45
8, 95518, Note_on_c, 8, 71, 0
8, 95520, Note_on_c, 8, 71, 45
8, 95614, Note_on_c, 8, 71, 0
8, 95712, Note_on_c, 8, 75, 45
8, 95806, Note_on_c, 8, 75, 0
8, 95808, Note_on_c, 8, 75, 45
8, 95902, Note_on_c, 8, 75, 0
8, 95904, Note_on_c, 8, 75, 45
8, 95998, Note_on_c, 8, 75, 0
8, 96096, Note_on_c, 8, 76, 45
8, 96190, Note_on_c, 8, 76, 0
8, 96192, Note_on_c, 8, 76, 45
8, 96286, Note_on_c, 8, 76, 0
8, 96288, Note_on_c, 8, 76, 45
8, 96382, Note_on_c, 8, 76, 0
8, 96480, Note_on_c, 8, 69, 45
8, 96574, Note_on_c, 8, 69, 0
8, 96576, Note_on_c, 8, 69, 45
8, 96670, Note_on_c, 8, 69, 0
8, 96672, Note_on_c, 8, 69, 45
8, 96766, Note_on_c, 8, 69, 0
8, 96864, Note_on_c, 8, 67, 45
8, 96958, Note_on_c, 8, 67, 0
8, 96960, Note_on_c, 8, 67, 45
8, 97054, Note_on_c, 8, 67, 0
8, 97056, Note_on_c, 8, 67, 45
8, 97150, Note_on_c, 8, 67, 0
8, 97152, Note_on_c, 8, 66, 45
8, 97246, Note_on_c, 8, 66, 0
8, 97248, Note_on_c, 8, 66, 45
8, 97342, Note_on_c, 8, 66, 0
8, 97344, Note_on_c, 8, 66, 45
8, 97438, Note_on_c, 8, 66, 0
8, 97440, Note_on_c, 8, 66, 45
8, 97534, Note_on_c, 8, 66, 0
8, 97632, Note_on_c, 8, 64, 45
8, 97726, Note_on_c, 8, 64, 0
8, 97728, Note_on_c, 8, 67, 45
8, 97822, Note_on_c, 8, 67, 0
8, 97824, Note_on_c, 8, 71, 45
8, 97918, Note_on_c, 8, 71, 0
8, 97920, Note_on_c, 8, 76, 45
8, 98016, Note_on_c, 8, 76, 0
8, 98016, Note_on_c, 8, 79, 45
8, 98110, Note_on_c, 8, 79, 0
8, 98112, Note_on_c, 8, 79, 45
8, 98144, Note_on_c, 8, 79, 0
8, 98208, Note_on_c, 8, 79, 45
8, 98240, Note_on_c, 8, 79, 0
8, 98400, Note_on_c, 8, 78, 45
8, 98494, Note_on_c, 8, 78, 0
8, 98496, Note_on_c, 8, 78, 45
8, 98590, Note_on_c, 8, 78, 0
8, 98592, Note_on_c, 8, 78, 45
8, 98686, Note_on_c, 8, 78, 0
8, 98784, Note_on_c, 8, 73, 45
8, 98878, Note_on_c, 8, 73, 0
8, 98880, Note_on_c, 8, 73, 45
8, 98974, Note_on_c, 8, 73, 0
8, 98976, Note_on_c, 8, 73, 45
8, 99070, Note_on_c, 8, 73, 0
8, 99168, Note_on_c, 8, 74, 45
8, 99262, Note_on_c, 8, 74, 0
8, 99264, Note_on_c, 8, 74, 45
8, 99358, Note_on_c, 8, 74, 0
8, 99360, Note_on_c, 8, 74, 45
8, 99454, Note_on_c, 8, 74, 0
8, 99552, Note_on_c, 8, 71, 45
8, 99646, Note_on_c, 8, 71, 0
8, 99648, Note_on_c, 8, 71, 45
8, 99742, Note_on_c, 8, 71, 0
8, 99744, Note_on_c, 8, 71, 45
8, 99838, Note_on_c, 8, 71, 0
8, 99840, Note_on_c, 8, 66, 45
8, 100000, Note_on_c, 8, 66, 0
8, 100032, Note_on_c, 8, 66, 45
8, 100064, Note_on_c, 8, 66, 0
8, 100128, Note_on_c, 8, 66, 45
8, 100160, Note_on_c, 8, 66, 0
8, 100224, Note_on_c, 8, 66, 45
8, 100320, Note_on_c, 8, 66, 0
8, 100320, Note_on_c, 8, 62, 45
8, 100414, Note_on_c, 8, 62, 0
8, 100416, Note_on_c, 8, 64, 45
8, 100512, Note_on_c, 8, 64, 0
8, 100512, Note_on_c, 8, 61, 45
8, 100606, Note_on_c, 8, 61, 0
8, 100608, Note_on_c, 8, 62, 45
8, 100768, Note_on_c, 8, 62, 0
8, 101088, Note_on_c, 8, 62, 45
8, 101184, Note_on_c, 8, 62, 0
8, 101184, Note_on_c, 8, 64, 45
8, 101280, Note_on_c, 8, 64, 0
8, 101280, Note_on_c, 8, 66, 45
8, 101374, Note_on_c, 8, 66, 0
8, 101376, Note_on_c, 8, 67, 45
8, 101470, Note_on_c, 8, 67, 0
8, 101472, Note_on_c, 8, 67, 45
8, 101566, Note_on_c, 8, 67, 0
8, 101568, Note_on_c, 8, 67, 45
8, 101662, Note_on_c, 8, 67, 0
8, 101664, Note_on_c, 8, 67, 45
8, 101758, Note_on_c, 8, 67, 0
8, 101760, Note_on_c, 8, 69, 45
8, 101854, Note_on_c, 8, 69, 0
8, 101856, Note_on_c, 8, 69, 45
8, 101950, Note_on_c, 8, 69, 0
8, 101952, Note_on_c, 8, 69, 45
8, 102046, Note_on_c, 8, 69, 0
8, 102048, Note_on_c, 8, 69, 45
8, 102142, Note_on_c, 8, 69, 0
8, 102144, Note_on_c, 8, 67, 45
8, 102238, Note_on_c, 8, 67, 0
8, 102240, Note_on_c, 8, 67, 45
8, 102334, Note_on_c, 8, 67, 0
8, 102336, Note_on_c, 8, 67, 45
8, 102430, Note_on_c, 8, 67, 0
8, 102432, Note_on_c, 8, 67, 45
8, 102526, Note_on_c, 8, 67, 0
8, 102528, Note_on_c, 8, 69, 45
8, 102622, Note_on_c, 8, 69, 0
8, 102624, Note_on_c, 8, 69, 45
8, 102718, Note_on_c, 8, 69, 0
8, 102720, Note_on_c, 8, 69, 45
8, 102814, Note_on_c, 8, 69, 0
8, 102816, Note_on_c, 8, 69, 45
8, 102910, Note_on_c, 8, 69, 0
8, 102912, Note_on_c, 8, 67, 45
8, 103006, Note_on_c, 8, 67, 0
8, 103008, Note_on_c, 8, 67, 45
8, 103102, Note_on_c, 8, 67, 0
8, 103104, Note_on_c, 8, 67, 45
8, 103198, Note_on_c, 8, 67, 0
8, 103200, Note_on_c, 8, 67, 45
8, 103294, Note_on_c, 8, 67, 0
8, 103296, Note_on_c, 8, 67, 45
8, 103390, Note_on_c, 8, 67, 0
8, 103392, Note_on_c, 8, 67, 45
8, 103486, Note_on_c, 8, 67, 0
8, 103488, Note_on_c, 8, 67, 45
8, 103582, Note_on_c, 8, 67, 0
8, 103584, Note_on_c, 8, 67, 45
8, 103678, Note_on_c, 8, 67, 0
8, 103680, Note_on_c, 8, 57, 45
8, 103680, Note_on_c, 8, 69, 45
8, 103840, Note_on_c, 8, 57, 0
8, 103840, Note_on_c, 8, 69, 0
8, 105312, Note_on_c, 8, 61, 45
8, 105312, Note_on_c, 8, 64, 45
8, 105406, Note_on_c, 8, 61, 0
8, 105406, Note_on_c, 8, 64, 0
8, 105408, Note_on_c, 8, 61, 45
8, 105408, Note_on_c, 8, 64, 45
8, 105502, Note_on_c, 8, 61, 0
8, 105502, Note_on_c, 8, 64, 0
8, 105504, Note_on_c, 8, 61, 45
8, 105504, Note_on_c, 8, 64, 45
8, 105598, Note_on_c, 8, 61, 0
8, 105598, Note_on_c, 8, 64, 0
8, 105600, Note_on_c, 8, 61, 45
8, 105600, Note_on_c, 8, 64, 45
8, 105694, Note_on_c, 8, 61, 0
8, 105694, Note_on_c, 8, 64, 0
8, 105696, Note_on_c, 8, 61, 45
8, 105696, Note_on_c, 8, 64, 45
8, 105790, Note_on_c, 8, 61, 0
8, 105790, Note_on_c, 8, 64, 0
8, 105792, Note_on_c, 8, 61, 45
8, 105792, Note_on_c, 8, 64, 45
8, 105886, Note_on_c, 8, 61, 0
8, 105886, Note_on_c, 8, 64, 0
8, 105888, Note_on_c, 8, 61, 45
8, 105888, Note_on_c, 8, 64, 45
8, 105982, Note_on_c, 8, 61, 0
8, 105982, Note_on_c, 8, 64, 0
8, 105984, Note_on_c, 8, 62, 45
8, 106144, Note_on_c, 8, 62, 0
8, 106848, Note_on_c, 8, 62, 45
8, 106942, Note_on_c, 8, 62, 0
8, 106944, Note_on_c, 8, 62, 45
8, 107038, Note_on_c, 8, 62, 0
8, 107040, Note_on_c, 8, 62, 45
8, 107134, Note_on_c, 8, 62, 0
8, 107136, Note_on_c, 8, 62, 45
8, 107230, Note_on_c, 8, 62, 0
8, 107232, Note_on_c, 8, 62, 45
8, 107326, Note_on_c, 8, 62, 0
8, 107328, Note_on_c, 8, 62, 45
8, 107422, Note_on_c, 8, 62, 0
8, 107424, Note_on_c, 8, 62, 45
8, 107518, Note_on_c, 8, 62, 0
8, 107520, Note_on_c, 8, 61, 45
8, 107520, Note_on_c, 8, 64, 45
8, 107680, Note_on_c, 8, 61, 0
8, 107680, Note_on_c, 8, 64, 0
8, 108384, Note_on_c, 8, 61, 45
8, 108384, Note_on_c, 8, 64, 45
8, 108478, Note_on_c, 8, 61, 0
8, 108478, Note_on_c, 8, 64, 0
8, 108480, Note_on_c, 8, 61, 45
8, 108480, Note_on_c, 8, 64, 45
8, 108574, Note_on_c, 8, 61, 0
8, 108574, Note_on_c, 8, 64, 0
8, 108576, Note_on_c, 8, 61, 45
8, 108576, Note_on_c, 8, 64, 45
8, 108670, Note_on_c, 8, 61, 0
8, 108670, Note_on_c, 8, 64, 0
8, 108672, Note_on_c, 8, 61, 45
8, 108672, Note_on_c, 8, 64, 45
8, 108766, Note_on_c, 8, 61, 0
8, 108766, Note_on_c, 8, 64, 0
8, 108768, Note_on_c, 8, 61, 45
8, 108768, Note_on_c, 8, 64, 45
8, 108862, Note_on_c, 8, 61, 0
8, 108862, Note_on_c, 8, 64, 0
8, 108864, Note_on_c, 8, 61, 45
8, 108864, Note_on_c, 8, 64, 45
8, 108958, Note_on_c, 8, 61, 0
8, 108958, Note_on_c, 8, 64, 0
8, 108960, Note_on_c, 8, 61, 45
8, 108960, Note_on_c, 8, 64, 45
8, 109054, Note_on_c, 8, 61, 0
8, 109054, Note_on_c, 8, 64, 0
8, 109056, Note_on_c, 8, 62, 45
8, 109150, Note_on_c, 8, 62, 0
8, 109248, Note_on_c, 8, 74, 45
8, 109296, Note_on_c, 8, 74, 0
8, 109296, Note_on_c, 8, 78, 45
8, 109342, Note_on_c, 8, 78, 0
8, 109344, Note_on_c, 8, 76, 45
8, 109392, Note_on_c, 8, 76, 0
8, 109392, Note_on_c, 8, 79, 45
8, 109438, Note_on_c, 8, 79, 0
8, 109440, Note_on_c, 8, 78, 45
8, 109534, Note_on_c, 8, 78, 0
8, 109824, Note_on_c, 8, 74, 45
8, 109918, Note_on_c, 8, 74, 0
8, 110016, Note_on_c, 8, 74, 45
8, 110064, Note_on_c, 8, 74, 0
8, 110064, Note_on_c, 8, 79, 45
8, 110110, Note_on_c, 8, 79, 0
8, 110112, Note_on_c, 8, 78, 45
8, 110160, Note_on_c, 8, 78, 0
8, 110160, Note_on_c, 8, 81, 45
8, 110206, Note_on_c, 8, 81, 0
8, 110208, Note_on_c, 8, 79, 45
8, 110302, Note_on_c, 8, 79, 0
8, 110592, Note_on_c, 8, 74, 45
8, 110686, Note_on_c, 8, 74, 0
8, 110784, Note_on_c, 8, 62, 45
8, 110832, Note_on_c, 8, 62, 0
8, 110832, Note_on_c, 8, 69, 45
8, 110878, Note_on_c, 8, 69, 0
8, 110880, Note_on_c, 8, 67, 45
8, 110928, Note_on_c, 8, 67, 0
8, 110928, Note_on_c, 8, 71, 45
8, 110974, Note_on_c, 8, 71, 0
8, 110976, Note_on_c, 8, 69, 45
8, 111070, Note_on_c, 8, 69, 0
8, 111408, Note_on_c, 8, 67, 45
8, 111456, Note_on_c, 8, 67, 0
8, 111456, Note_on_c, 8, 66, 45
8, 111504, Note_on_c, 8, 66, 0
8, 111504, Note_on_c, 8, 67, 45
8, 111552, Note_on_c, 8, 67, 0
8, 111552, Note_on_c, 8, 69, 45
8, 111600, Note_on_c, 8, 69, 0
8, 111600, Note_on_c, 8, 67, 45
8, 111648, Note_on_c, 8, 67, 0
8, 111648, Note_on_c, 8, 66, 45
8, 111696, Note_on_c, 8, 66, 0
8, 111696, Note_on_c, 8, 67, 45
8, 111742, Note_on_c, 8, 67, 0
8, 111792, Note_on_c, 8, 66, 45
8, 111840, Note_on_c, 8, 66, 0
8, 111840, Note_on_c, 8, 64, 45
8, 111888, Note_on_c, 8, 64, 0
8, 111888, Note_on_c, 8, 66, 45
8, 111936, Note_on_c, 8, 66, 0
8, 111936, Note_on_c, 8, 67, 45
8, 111984, Note_on_c, 8, 67, 0
8, 111984, Note_on_c, 8, 66, 45
8, 112032, Note_on_c, 8, 66, 0
8, 112032, Note_on_c, 8, 64, 45
8, 112080, Note_on_c, 8, 64, 0
8, 112080, Note_on_c, 8, 66, 45
8, 112126, Note_on_c, 8, 66, 0
8, 112128, Note_on_c, 8, 65, 92
8, 112222, Note_on_c, 8, 65, 0
8, 112224, Note_on_c, 8, 65, 45
8, 112318, Note_on_c, 8, 65, 0
8, 112320, Note_on_c, 8, 65, 45
8, 112414, Note_on_c, 8, 65, 0
8, 112416, Note_on_c, 8, 65, 45
8, 112510, Note_on_c, 8, 65, 0
8, 112512, Note_on_c, 8, 68, 45
8, 112606, Note_on_c, 8, 68, 0
8, 112608, Note_on_c, 8, 68, 45
8, 112702, Note_on_c, 8, 68, 0
8, 112704, Note_on_c, 8, 68, 45
8, 112798, Note_on_c, 8, 68, 0
8, 112800, Note_on_c, 8, 68, 45
8, 112894, Note_on_c, 8, 68, 0
8, 112896, Note_on_c, 8, 68, 45
8, 112992, Note_on_c, 8, 68, 0
8, 112992, Note_on_c, 8, 69, 45
8, 113086, Note_on_c, 8, 69, 0
8, 113088, Note_on_c, 8, 73, 45
8, 113120, Note_on_c, 8, 73, 0
8, 113184, Note_on_c, 8, 73, 45
8, 113216, Note_on_c, 8, 73, 0
8, 113376, Note_on_c, 8, 73, 45
8, 113470, Note_on_c, 8, 73, 0
8, 113472, Note_on_c, 8, 73, 45
8, 113566, Note_on_c, 8, 73, 0
8, 113568, Note_on_c, 8, 73, 45
8, 113662, Note_on_c, 8, 73, 0
8, 113760, Note_on_c, 8, 74, 45
8, 113854, Note_on_c, 8, 74, 0
8, 113952, Note_on_c, 8, 70, 45
8, 114046, Note_on_c, 8, 70, 0
8, 114144, Note_on_c, 8, 71, 45
8, 114238, Note_on_c, 8, 71, 0
8, 114336, Note_on_c, 8, 71, 45
8, 114430, Note_on_c, 8, 71, 0
8, 114432, Note_on_c, 8, 74, 45
8, 114526, Note_on_c, 8, 74, 0
8, 114528, Note_on_c, 8, 74, 45
8, 114622, Note_on_c, 8, 74, 0
8, 114624, Note_on_c, 8, 74, 45
8, 114718, Note_on_c, 8, 74, 0
8, 114720, Note_on_c, 8, 74, 45
8, 114814, Note_on_c, 8, 74, 0
8, 114816, Note_on_c, 8, 76, 45
8, 114912, Note_on_c, 8, 76, 0
8, 114912, Note_on_c, 8, 73, 45
8, 115006, Note_on_c, 8, 73, 0
8, 115008, Note_on_c, 8, 73, 45
8, 115104, Note_on_c, 8, 73, 0
8, 115104, Note_on_c, 8, 67, 45
8, 115198, Note_on_c, 8, 67, 0
8, 115200, Note_on_c, 8, 66, 92
8, 115270, Note_on_c, 8, 66, 0
8, 115272, Note_on_c, 8, 67, 92
8, 115294, Note_on_c, 8, 67, 0
8, 115296, Note_on_c, 8, 66, 92
8, 115342, Note_on_c, 8, 66, 0
8, 115344, Note_on_c, 8, 64, 92
8, 115390, Note_on_c, 8, 64, 0
8, 115392, Note_on_c, 8, 66, 92
8, 115486, Note_on_c, 8, 66, 0
8, 115488, Note_on_c, 8, 61, 92
8, 115582, Note_on_c, 8, 61, 0
8, 115584, Note_on_c, 8, 62, 92
8, 115654, Note_on_c, 8, 62, 0
8, 115656, Note_on_c, 8, 76, 92
8, 115678, Note_on_c, 8, 76, 0
8, 115680, Note_on_c, 8, 74, 92
8, 115726, Note_on_c, 8, 74, 0
8, 115728, Note_on_c, 8, 73, 92
8, 115774, Note_on_c, 8, 73, 0
8, 115776, Note_on_c, 8, 74, 92
8, 115870, Note_on_c, 8, 74, 0
8, 115872, Note_on_c, 8, 74, 92
8, 115966, Note_on_c, 8, 74, 0
8, 115968, Note_on_c, 8, 73, 92
8, 116128, Note_on_c, 8, 73, 0
8, 116160, Note_on_c, 8, 64, 92
8, 116160, Note_on_c, 8, 73, 92
8, 116160, Note_on_c, 8, 81, 92
8, 116320, Note_on_c, 8, 64, 0
8, 116320, Note_on_c, 8, 73, 0
8, 116320, Note_on_c, 8, 81, 0
8, 116352, Note_on_c, 8, 64, 92
8, 116352, Note_on_c, 8, 73, 92
8, 116352, Note_on_c, 8, 81, 92
8, 116512, Note_on_c, 8, 64, 0
8, 116512, Note_on_c, 8, 73, 0
8, 116512, Note_on_c, 8, 81, 0
8, 117504, Note_on_c, 8, 57, 45
8, 117504, Note_on_c, 8, 66, 45
8, 118224, Note_on_c, 8, 57, 0
8, 118224, Note_on_c, 8, 66, 0
8, 118272, Note_on_c, 8, 67, 45
8, 118608, Note_on_c, 8, 67, 0
8, 118656, Note_on_c, 8, 64, 45
8, 118848, Note_on_c, 8, 64, 0
8, 118848, Note_on_c, 8, 69, 45
8, 119008, Note_on_c, 8, 69, 0
8, 119040, Note_on_c, 8, 57, 45
8, 119040, Note_on_c, 8, 66, 45
8, 119760, Note_on_c, 8, 57, 0
8, 119760, Note_on_c, 8, 66, 0
8, 119808, Note_on_c, 8, 67, 45
8, 120144, Note_on_c, 8, 67, 0
8, 120192, Note_on_c, 8, 64, 45
8, 120384, Note_on_c, 8, 64, 0
8, 120384, Note_on_c, 8, 69, 45
8, 120544, Note_on_c, 8, 69, 0
8, 120576, Note_on_c, 8, 69, 45
8, 120736, Note_on_c, 8, 69, 0
8, 120960, Note_on_c, 8, 67, 45
8, 121054, Note_on_c, 8, 67, 0
8, 121056, Note_on_c, 8, 67, 45
8, 121150, Note_on_c, 8, 67, 0
8, 121152, Note_on_c, 8, 67, 45
8, 121246, Note_on_c, 8, 67, 0
8, 121248, Note_on_c, 8, 67, 45
8, 121342, Note_on_c, 8, 67, 0
8, 121344, Note_on_c, 8, 66, 45
8, 121438, Note_on_c, 8, 66, 0
8, 121440, Note_on_c, 8, 66, 45
8, 121534, Note_on_c, 8, 66, 0
8, 121536, Note_on_c, 8, 66, 45
8, 121630, Note_on_c, 8, 66, 0
8, 121632, Note_on_c, 8, 66, 45
8, 121726, Note_on_c, 8, 66, 0
8, 121728, Note_on_c, 8, 61, 45
8, 121822, Note_on_c, 8, 61, 0
8, 121824, Note_on_c, 8, 61, 45
8, 121918, Note_on_c, 8, 61, 0
8, 121920, Note_on_c, 8, 61, 45
8, 122014, Note_on_c, 8, 61, 0
8, 122016, Note_on_c, 8, 61, 45
8, 122110, Note_on_c, 8, 61, 0
8, 122112, Note_on_c, 8, 62, 45
8, 122206, Note_on_c, 8, 62, 0
8, 122208, Note_on_c, 8, 62, 45
8, 122302, Note_on_c, 8, 62, 0
8, 122304, Note_on_c, 8, 62, 45
8, 122398, Note_on_c, 8, 62, 0
8, 122400, Note_on_c, 8, 62, 45
8, 122494, Note_on_c, 8, 62, 0
8, 122496, Note_on_c, 8, 67, 45
8, 122590, Note_on_c, 8, 67, 0
8, 122592, Note_on_c, 8, 67, 45
8, 122686, Note_on_c, 8, 67, 0
8, 122688, Note_on_c, 8, 67, 45
8, 122782, Note_on_c, 8, 67, 0
8, 122784, Note_on_c, 8, 67, 45
8, 122878, Note_on_c, 8, 67, 0
8, 122880, Note_on_c, 8, 66, 45
8, 122974, Note_on_c, 8, 66, 0
8, 122976, Note_on_c, 8, 66, 45
8, 123070, Note_on_c, 8, 66, 0
8, 123072, Note_on_c, 8, 66, 45
8, 123166, Note_on_c, 8, 66, 0
8, 123168, Note_on_c, 8, 66, 45
8, 123262, Note_on_c, 8, 66, 0
8, 123264, Note_on_c, 8, 61, 45
8, 123358, Note_on_c, 8, 61, 0
8, 123360, Note_on_c, 8, 61, 45
8, 123454, Note_on_c, 8, 61, 0
8, 123456, Note_on_c, 8, 61, 45
8, 123550, Note_on_c, 8, 61, 0
8, 123552, Note_on_c, 8, 61, 45
8, 123646, Note_on_c, 8, 61, 0
8, 123648, Note_on_c, 8, 62, 45
8, 123742, Note_on_c, 8, 62, 0
8, 123744, Note_on_c, 8, 62, 45
8, 123838, Note_on_c, 8, 62, 0
8, 123840, Note_on_c, 8, 62, 45
8, 123934, Note_on_c, 8, 62, 0
8, 123936, Note_on_c, 8, 62, 45
8, 124030, Note_on_c, 8, 62, 0
8, 124128, Note_on_c, 8, 64, 45
8, 124222, Note_on_c, 8, 64, 0
8, 124224, Note_on_c, 8, 64, 45
8, 124318, Note_on_c, 8, 64, 0
8, 124320, Note_on_c, 8, 64, 45
8, 124414, Note_on_c, 8, 64, 0
8, 124512, Note_on_c, 8, 66, 45
8, 124606, Note_on_c, 8, 66, 0
8, 124608, Note_on_c, 8, 66, 45
8, 124702, Note_on_c, 8, 66, 0
8, 124704, Note_on_c, 8, 66, 45
8, 124798, Note_on_c, 8, 66, 0
8, 124896, Note_on_c, 8, 67, 45
8, 124990, Note_on_c, 8, 67, 0
8, 124992, Note_on_c, 8, 67, 45
8, 125086, Note_on_c, 8, 67, 0
8, 125088, Note_on_c, 8, 67, 45
8, 125182, Note_on_c, 8, 67, 0
8, 125184, Note_on_c, 8, 69, 45
8, 125216, Note_on_c, 8, 69, 0
8, 125280, Note_on_c, 8, 67, 45
8, 125312, Note_on_c, 8, 67, 0
8, 125376, Note_on_c, 8, 66, 45
8, 125408, Note_on_c, 8, 66, 0
8, 125472, Note_on_c, 8, 64, 45
8, 125504, Note_on_c, 8, 64, 0
8, 125568, Note_on_c, 8, 62, 45
8, 125600, Note_on_c, 8, 62, 0
8, 125664, Note_on_c, 8, 60, 45
8, 125696, Note_on_c, 8, 60, 0
8, 125760, Note_on_c, 8, 59, 45
8, 125792, Note_on_c, 8, 59, 0
8, 125856, Note_on_c, 8, 57, 45
8, 125888, Note_on_c, 8, 57, 0
8, 125952, Note_on_c, 8, 62, 45
8, 126046, Note_on_c, 8, 62, 0
8, 126048, Note_on_c, 8, 67, 45
8, 126142, Note_on_c, 8, 67, 0
8, 126144, Note_on_c, 8, 67, 45
8, 126238, Note_on_c, 8, 67, 0
8, 126240, Note_on_c, 8, 67, 45
8, 126334, Note_on_c, 8, 67, 0
8, 126336, Note_on_c, 8, 67, 45
8, 126430, Note_on_c, 8, 67, 0
8, 126432, Note_on_c, 8, 67, 45
8, 126526, Note_on_c, 8, 67, 0
8, 126528, Note_on_c, 8, 67, 45
8, 126622, Note_on_c, 8, 67, 0
8, 126624, Note_on_c, 8, 67, 45
8, 126718, Note_on_c, 8, 67, 0
8, 126720, Note_on_c, 8, 66, 45
8, 126814, Note_on_c, 8, 66, 0
8, 126816, Note_on_c, 8, 66, 45
8, 126910, Note_on_c, 8, 66, 0
8, 126912, Note_on_c, 8, 71, 45
8, 127006, Note_on_c, 8, 71, 0
8, 127008, Note_on_c, 8, 71, 45
8, 127102, Note_on_c, 8, 71, 0
8, 127104, Note_on_c, 8, 67, 45
8, 127198, Note_on_c, 8, 67, 0
8, 127200, Note_on_c, 8, 67, 45
8, 127294, Note_on_c, 8, 67, 0
8, 127296, Note_on_c, 8, 69, 45
8, 127390, Note_on_c, 8, 69, 0
8, 127392, Note_on_c, 8, 69, 45
8, 127486, Note_on_c, 8, 69, 0
8, 127488, Note_on_c, 8, 69, 45
8, 127648, Note_on_c, 8, 69, 0
8, 127968, Note_on_c, 8, 69, 45
8, 128062, Note_on_c, 8, 69, 0
8, 128064, Note_on_c, 8, 69, 45
8, 128158, Note_on_c, 8, 69, 0
8, 128160, Note_on_c, 8, 69, 45
8, 128254, Note_on_c, 8, 69, 0
8, 128256, Note_on_c, 8, 71, 45
8, 128416, Note_on_c, 8, 71, 0
8, 128736, Note_on_c, 8, 71, 45
8, 128830, Note_on_c, 8, 71, 0
8, 128832, Note_on_c, 8, 71, 45
8, 128926, Note_on_c, 8, 71, 0
8, 128928, Note_on_c, 8, 71, 45
8, 129022, Note_on_c, 8, 71, 0
8, 129024, Note_on_c, 8, 71, 45
8, 129120, Note_on_c, 8, 71, 0
8, 129120, Note_on_c, 8, 66, 45
8, 129214, Note_on_c, 8, 66, 0
8, 129216, Note_on_c, 8, 66, 45
8, 129248, Note_on_c, 8, 66, 0
8, 129312, Note_on_c, 8, 66, 45
8, 129344, Note_on_c, 8, 66, 0
8, 129408, Note_on_c, 8, 64, 45
8, 129502, Note_on_c, 8, 64, 0
8, 129504, Note_on_c, 8, 64, 45
8, 129598, Note_on_c, 8, 64, 0
8, 129600, Note_on_c, 8, 64, 45
8, 129694, Note_on_c, 8, 64, 0
8, 129696, Note_on_c, 8, 64, 45
8, 129790, Note_on_c, 8, 64, 0
8, 129792, Note_on_c, 8, 62, 45
8, 129952, Note_on_c, 8, 62, 0
8, 130272, Note_on_c, 8, 69, 45
8, 130366, Note_on_c, 8, 69, 0
8, 130368, Note_on_c, 8, 69, 45
8, 130462, Note_on_c, 8, 69, 0
8, 130464, Note_on_c, 8, 69, 45
8, 130558, Note_on_c, 8, 69, 0
8, 130560, Note_on_c, 8, 71, 45
8, 130720, Note_on_c, 8, 71, 0
8, 131040, Note_on_c, 8, 71, 45
8, 131134, Note_on_c, 8, 71, 0
8, 131136, Note_on_c, 8, 71, 45
8, 131230, Note_on_c, 8, 71, 0
8, 131232, Note_on_c, 8, 71, 45
8, 131326, Note_on_c, 8, 71, 0
8, 131328, Note_on_c, 8, 66, 45
8, 131422, Note_on_c, 8, 66, 0
8, 131424, Note_on_c, 8, 66, 45
8, 131518, Note_on_c, 8, 66, 0
8, 131520, Note_on_c, 8, 66, 45
8, 131614, Note_on_c, 8, 66, 0
8, 131616, Note_on_c, 8, 66, 45
8, 131710, Note_on_c, 8, 66, 0
8, 131712, Note_on_c, 8, 66, 45
8, 131806, Note_on_c, 8, 66, 0
8, 131808, Note_on_c, 8, 66, 45
8, 131902, Note_on_c, 8, 66, 0
8, 131904, Note_on_c, 8, 66, 45
8, 131998, Note_on_c, 8, 66, 0
8, 132000, Note_on_c, 8, 66, 45
8, 132094, Note_on_c, 8, 66, 0
8, 132096, Note_on_c, 8, 67, 45
8, 132142, Note_on_c, 8, 67, 0
8, 132144, Note_on_c, 8, 67, 45
8, 132190, Note_on_c, 8, 67, 0
8, 132192, Note_on_c, 8, 67, 45
8, 132238, Note_on_c, 8, 67, 0
8, 132240, Note_on_c, 8, 67, 45
8, 132286, Note_on_c, 8, 67, 0
8, 132288, Note_on_c, 8, 61, 45
8, 132334, Note_on_c, 8, 61, 0
8, 132336, Note_on_c, 8, 61, 48
8, 132382, Note_on_c, 8, 61, 0
8, 132384, Note_on_c, 8, 61, 52
8, 132430, Note_on_c, 8, 61, 0
8, 132432, Note_on_c, 8, 61, 56
8, 132478, Note_on_c, 8, 61, 0
8, 132480, Note_on_c, 8, 64, 60
8, 132526, Note_on_c, 8, 64, 0
8, 132528, Note_on_c, 8, 64, 64
8, 132574, Note_on_c, 8, 64, 0
8, 132576, Note_on_c, 8, 64, 68
8, 132622, Note_on_c, 8, 64, 0
8, 132624, Note_on_c, 8, 64, 72
8, 132670, Note_on_c, 8, 64, 0
8, 132672, Note_on_c, 8, 79, 76
8, 132718, Note_on_c, 8, 79, 0
8, 132720, Note_on_c, 8, 79, 80
8, 132766, Note_on_c, 8, 79, 0
8, 132768, Note_on_c, 8, 79, 84
8, 132814, Note_on_c, 8, 79, 0
8, 132816, Note_on_c, 8, 79, 88
8, 132862, Note_on_c, 8, 79, 0
8, 132864, Note_on_c, 8, 78, 92
8, 133024, Note_on_c, 8, 78, 0
8, 133056, Note_on_c, 8, 57, 92
8, 133056, Note_on_c, 8, 66, 92
8, 133392, Note_on_c, 8, 57, 0
8, 133392, Note_on_c, 8, 66, 0
8, 133440, Note_on_c, 8, 64, 92
8, 133488, Note_on_c, 8, 64, 0
8, 133488, Note_on_c, 8, 66, 92
8, 133534, Note_on_c, 8, 66, 0
8, 133536, Note_on_c, 8, 64, 92
8, 133584, Note_on_c, 8, 64, 0
8, 133584, Note_on_c, 8, 66, 92
8, 133630, Note_on_c, 8, 66, 0
8, 133632, Note_on_c, 8, 74, 92
8, 133792, Note_on_c, 8, 74, 0
8, 133824, Note_on_c, 8, 62, 92
8, 134160, Note_on_c, 8, 62, 0
8, 134208, Note_on_c, 8, 64, 92
8, 134256, Note_on_c, 8, 64, 0
8, 134256, Note_on_c, 8, 66, 92
8, 134302, Note_on_c, 8, 66, 0
8, 134304, Note_on_c, 8, 64, 92
8, 134352, Note_on_c, 8, 64, 0
8, 134352, Note_on_c, 8, 66, 92
8, 134398, Note_on_c, 8, 66, 0
8, 134400, Note_on_c, 8, 74, 92
8, 134560, Note_on_c, 8, 74, 0
8, 134592, Note_on_c, 8, 62, 92
8, 134928, Note_on_c, 8, 62, 0
8, 134976, Note_on_c, 8, 73, 92
8, 135024, Note_on_c, 8, 73, 0
8, 135024, Note_on_c, 8, 74, 92
8, 135070, Note_on_c, 8, 74, 0
8, 135072, Note_on_c, 8, 73, 92
8, 135120, Note_on_c, 8, 73, 0
8, 135120, Note_on_c, 8, 74, 92
8, 135166, Note_on_c, 8, 74, 0
8, 135168, Note_on_c, 8, 78, 92
8, 135262, Note_on_c, 8, 78, 0
8, 135264, Note_on_c, 8, 74, 92
8, 135358, Note_on_c, 8, 74, 0
8, 135360, Note_on_c, 8, 76, 92
8, 135384, Note_on_c, 8, 76, 0
8, 135384, Note_on_c, 8, 74, 92
8, 135408, Note_on_c, 8, 74, 0
8, 135408, Note_on_c, 8, 76, 92
8, 135432, Note_on_c, 8, 76, 0
8, 135432, Note_on_c, 8, 74, 92
8, 135456, Note_on_c, 8, 74, 0
8, 135456, Note_on_c, 8, 76, 92
8, 135480, Note_on_c, 8, 76, 0
8, 135480, Note_on_c, 8, 74, 92
8, 135504, Note_on_c, 8, 74, 0
8, 135504, Note_on_c, 8, 73, 92
8, 135528, Note_on_c, 8, 73, 0
8, 135528, Note_on_c, 8, 74, 92
8, 135550, Note_on_c, 8, 74, 0
8, 135552, Note_on_c, 8, 78, 92
8, 135584, Note_on_c, 8, 78, 0
8, 135648, Note_on_c, 8, 74, 92
8, 135680, Note_on_c, 8, 74, 0
8, 135744, Note_on_c, 8, 71, 92
8, 135776, Note_on_c, 8, 71, 0
8, 135840, Note_on_c, 8, 68, 92
8, 135872, Note_on_c, 8, 68, 0
8, 135936, Note_on_c, 8, 57, 92
8, 135936, Note_on_c, 8, 69, 92
8, 136272, Note_on_c, 8, 57, 0
8, 136272, Note_on_c, 8, 69, 0
8, 165888, Note_on_c, 8, 57, 92
8, 165888, Note_on_c, 8, 66, 92
8, 165982, Note_on_c, 8, 57, 0
8, 165982, Note_on_c, 8, 66, 0
8, 165984, Note_on_c, 8, 57, 92
8, 165984, Note_on_c, 8, 66, 92
8, 166144, Note_on_c, 8, 57, 0
8, 166144, Note_on_c, 8, 66, 0
8, 166176, Note_on_c, 8, 66, 92
8, 166270, Note_on_c, 8, 66, 0
8, 166272, Note_on_c, 8, 74, 92
8, 166272, Note_on_c, 8, 81, 92
8, 166366, Note_on_c, 8, 74, 0
8, 166366, Note_on_c, 8, 81, 0
8, 166368, Note_on_c, 8, 74, 92
8, 166368, Note_on_c, 8, 81, 92
8, 166528, Note_on_c, 8, 74, 0
8, 166528, Note_on_c, 8, 81, 0
8, 166560, Note_on_c, 8, 74, 92
8, 166560, Note_on_c, 8, 81, 92
8, 166654, Note_on_c, 8, 74, 0
8, 166654, Note_on_c, 8, 81, 0
8, 166656, Note_on_c, 8, 79, 92
8, 166704, Note_on_c, 8, 79, 0
8, 166704, Note_on_c, 8, 81, 92
8, 166750, Note_on_c, 8, 81, 0
8, 166752, Note_on_c, 8, 83, 92
8, 166784, Note_on_c, 8, 83, 0
8, 166800, Note_on_c, 8, 81, 92
8, 166832, Note_on_c, 8, 81, 0
8, 166848, Note_on_c, 8, 83, 92
8, 166942, Note_on_c, 8, 83, 0
8, 167040, Note_on_c, 8, 76, 92
8, 167088, Note_on_c, 8, 76, 0
8, 167088, Note_on_c, 8, 78, 92
8, 167134, Note_on_c, 8, 78, 0
8, 167136, Note_on_c, 8, 79, 92
8, 167168, Note_on_c, 8, 79, 0
8, 167184, Note_on_c, 8, 78, 92
8, 167216, Note_on_c, 8, 78, 0
8, 167232, Note_on_c, 8, 79, 92
8, 167264, Note_on_c, 8, 79, 0
8, 167328, Note_on_c, 8, 76, 92
8, 167360, Note_on_c, 8, 76, 0
8, 167424, Note_on_c, 8, 74, 92
8, 167518, Note_on_c, 8, 74, 0
8, 167520, Note_on_c, 8, 81, 92
8, 167566, Note_on_c, 8, 81, 0
8, 167568, Note_on_c, 8, 78, 92
8, 167614, Note_on_c, 8, 78, 0
8, 167616, Note_on_c, 8, 74, 92
8, 167710, Note_on_c, 8, 74, 0
8, 167712, Note_on_c, 8, 78, 92
8, 167758, Note_on_c, 8, 78, 0
8, 167760, Note_on_c, 8, 74, 92
8, 167806, Note_on_c, 8, 74, 0
8, 167808, Note_on_c, 8, 69, 92
8, 167902, Note_on_c, 8, 69, 0
8, 167904, Note_on_c, 8, 69, 92
8, 167950, Note_on_c, 8, 69, 0
8, 167952, Note_on_c, 8, 66, 92
8, 167998, Note_on_c, 8, 66, 0
8, 168000, Note_on_c, 8, 67, 92
8, 168094, Note_on_c, 8, 67, 0
8, 168096, Note_on_c, 8, 67, 92
8, 168142, Note_on_c, 8, 67, 0
8, 168144, Note_on_c, 8, 64, 92
8, 168190, Note_on_c, 8, 64, 0
8, 168192, Note_on_c, 8, 62, 92
8, 168352, Note_on_c, 8, 62, 0
8, 169152, Note_on_c, 8, 66, 92
8, 169246, Note_on_c, 8, 66, 0
8, 169248, Note_on_c, 8, 62, 92
8, 169342, Note_on_c, 8, 62, 0
8, 169344, Note_on_c, 8, 74, 92
8, 169486, Note_on_c, 8, 74, 0
8, 169488, Note_on_c, 8, 78, 92
8, 169534, Note_on_c, 8, 78, 0
8, 169536, Note_on_c, 8, 78, 92
8, 169582, Note_on_c, 8, 78, 0
8, 169584, Note_on_c, 8, 76, 92
8, 169630, Note_on_c, 8, 76, 0
8, 169632, Note_on_c, 8, 74, 92
8, 169678, Note_on_c, 8, 74, 0
8, 169680, Note_on_c, 8, 73, 92
8, 169726, Note_on_c, 8, 73, 0
8, 169728, Note_on_c, 8, 74, 92
8, 169822, Note_on_c, 8, 74, 0
8, 170688, Note_on_c, 8, 66, 92
8, 170782, Note_on_c, 8, 66, 0
8, 170784, Note_on_c, 8, 62, 92
8, 170878, Note_on_c, 8, 62, 0
8, 170880, Note_on_c, 8, 74, 92
8, 170928, Note_on_c, 8, 74, 0
8, 170928, Note_on_c, 8, 78, 92
8, 170974, Note_on_c, 8, 78, 0
8, 170976, Note_on_c, 8, 74, 92
8, 171008, Note_on_c, 8, 74, 0
8, 171024, Note_on_c, 8, 78, 92
8, 171056, Note_on_c, 8, 78, 0
8, 171072, Note_on_c, 8, 78, 92
8, 171118, Note_on_c, 8, 78, 0
8, 171120, Note_on_c, 8, 76, 92
8, 171166, Note_on_c, 8, 76, 0
8, 171168, Note_on_c, 8, 74, 92
8, 171214, Note_on_c, 8, 74, 0
8, 171216, Note_on_c, 8, 73, 92
8, 171262, Note_on_c, 8, 73, 0
8, 171264, Note_on_c, 8, 74, 92
8, 171358, Note_on_c, 8, 74, 0
8, 171360, Note_on_c, 8, 78, 92
8, 171392, Note_on_c, 8, 78, 0
8, 171408, Note_on_c, 8, 74, 92
8, 171440, Note_on_c, 8, 74, 0
8, 171456, Note_on_c, 8, 81, 92
8, 171504, Note_on_c, 8, 81, 0
8, 171504, Note_on_c, 8, 78, 92
8, 171550, Note_on_c, 8, 78, 0
8, 171552, Note_on_c, 8, 81, 92
8, 171584, Note_on_c, 8, 81, 0
8, 171600, Note_on_c, 8, 78, 92
8, 171632, Note_on_c, 8, 78, 0
8, 171648, Note_on_c, 8, 74, 92
8, 171696, Note_on_c, 8, 74, 0
8, 171696, Note_on_c, 8, 78, 92
8, 171742, Note_on_c, 8, 78, 0
8, 171744, Note_on_c, 8, 74, 92
8, 171776, Note_on_c, 8, 74, 0
8, 171792, Note_on_c, 8, 78, 92
8, 171824, Note_on_c, 8, 78, 0
8, 171840, Note_on_c, 8, 78, 92
8, 171886, Note_on_c, 8, 78, 0
8, 171888, Note_on_c, 8, 76, 92
8, 171934, Note_on_c, 8, 76, 0
8, 171936, Note_on_c, 8, 74, 92
8, 171982, Note_on_c, 8, 74, 0
8, 171984, Note_on_c, 8, 73, 92
8, 172030, Note_on_c, 8, 73, 0
8, 172032, Note_on_c, 8, 74, 92
8, 172064, Note_on_c, 8, 74, 0
8, 172128, Note_on_c, 8, 74, 92
8, 172160, Note_on_c, 8, 74, 0
8, 172224, Note_on_c, 8, 76, 92
8, 172248, Note_on_c, 8, 76, 0
8, 172248, Note_on_c, 8, 74, 92
8, 172272, Note_on_c, 8, 74, 0
8, 172272, Note_on_c, 8, 76, 92
8, 172296, Note_on_c, 8, 76, 0
8, 172296, Note_on_c, 8, 74, 92
8, 172320, Note_on_c, 8, 74, 0
8, 172320, Note_on_c, 8, 76, 92
8, 172344, Note_on_c, 8, 76, 0
8, 172344, Note_on_c, 8, 74, 92
8, 172368, Note_on_c, 8, 74, 0
8, 172368, Note_on_c, 8, 73, 92
8, 172392, Note_on_c, 8, 73, 0
8, 172392, Note_on_c, 8, 74, 92
8, 172414, Note_on_c, 8, 74, 0
8, 172416, Note_on_c, 8, 78, 92
8, 172448, Note_on_c, 8, 78, 0
8, 172512, Note_on_c, 8, 74, 92
8, 172544, Note_on_c, 8, 74, 0
8, 172608, Note_on_c, 8, 69, 92
8, 172640, Note_on_c, 8, 69, 0
8, 172704, Note_on_c, 8, 66, 92
8, 172736, Note_on_c, 8, 66, 0
8, 172800, Note_on_c, 8, 62, 92
8, 172960, Note_on_c, 8, 62, 0
8, 172992, Note_on_c, 8, 69, 92
8, 172992, Note_on_c, 8, 78, 92
8, 173152, Note_on_c, 8, 69, 0
8, 173152, Note_on_c, 8, 78, 0
8, 173184, Note_on_c, 8, 69, 92
8, 173184, Note_on_c, 8, 78, 92
8, 173440, Note_on_c, 8, 69, 0
8, 173440, Note_on_c, 8, 78, 0
8, 173440, End_track
9, 0, Start_track
9, 0, MIDI_port, 0
9, 0, Title_t, "Viola"
9, 0, Program_c, 10, 48
9, 0, Control_c, 10, 7, 127
9, 0, Control_c, 10, 10, 64
9, 0, Note_on_c, 10, 50, 92
9, 0, Note_on_c, 10, 62, 92
9, 94, Note_on_c, 10, 50, 0
9, 94, Note_on_c, 10, 62, 0
9, 96, Note_on_c, 10, 50, 92
9, 96, Note_on_c, 10, 62, 92
9, 190, Note_on_c, 10, 50, 0
9, 190, Note_on_c, 10, 62, 0
9, 192, Note_on_c, 10, 50, 92
9, 192, Note_on_c, 10, 62, 92
9, 286, Note_on_c, 10, 50, 0
9, 286, Note_on_c, 10, 62, 0
9, 288, Note_on_c, 10, 50, 92
9, 288, Note_on_c, 10, 62, 92
9, 382, Note_on_c, 10, 50, 0
9, 382, Note_on_c, 10, 62, 0
9, 384, Note_on_c, 10, 50, 92
9, 384, Note_on_c, 10, 62, 92
9, 478, Note_on_c, 10, 50, 0
9, 478, Note_on_c, 10, 62, 0
9, 480, Note_on_c, 10, 50, 92
9, 480, Note_on_c, 10, 62, 92
9, 574, Note_on_c, 10, 50, 0
9, 574, Note_on_c, 10, 62, 0
9, 576, Note_on_c, 10, 50, 92
9, 576, Note_on_c, 10, 62, 92
9, 670, Note_on_c, 10, 50, 0
9, 670, Note_on_c, 10, 62, 0
9, 672, Note_on_c, 10, 50, 92
9, 672, Note_on_c, 10, 62, 92
9, 766, Note_on_c, 10, 50, 0
9, 766, Note_on_c, 10, 62, 0
9, 768, Note_on_c, 10, 50, 92
9, 768, Note_on_c, 10, 62, 92
9, 862, Note_on_c, 10, 50, 0
9, 862, Note_on_c, 10, 62, 0
9, 864, Note_on_c, 10, 50, 92
9, 864, Note_on_c, 10, 62, 92
9, 958, Note_on_c, 10, 50, 0
9, 958, Note_on_c, 10, 62, 0
9, 960, Note_on_c, 10, 50, 92
9, 960, Note_on_c, 10, 62, 92
9, 1054, Note_on_c, 10, 50, 0
9, 1054, Note_on_c, 10, 62, 0
9, 1056, Note_on_c, 10, 50, 92
9, 1056, Note_on_c, 10, 62, 92
9, 1150, Note_on_c, 10, 50, 0
9, 1150, Note_on_c, 10, 62, 0
9, 1152, Note_on_c, 10, 50, 92
9, 1152, Note_on_c, 10, 62, 92
9, 1246, Note_on_c, 10, 50, 0
9, 1246, Note_on_c, 10, 62, 0
9, 1248, Note_on_c, 10, 50, 92
9, 1248, Note_on_c, 10, 62, 92
9, 1342, Note_on_c, 10, 50, 0
9, 1342, Note_on_c, 10, 62, 0
9, 1344, Note_on_c, 10, 50, 92
9, 1344, Note_on_c, 10, 62, 92
9, 1438, Note_on_c, 10, 50, 0
9, 1438, Note_on_c, 10, 62, 0
9, 1440, Note_on_c, 10, 50, 92
9, 1440, Note_on_c, 10, 62, 92
9, 1534, Note_on_c, 10, 50, 0
9, 1534, Note_on_c, 10, 62, 0
9, 1536, Note_on_c, 10, 50, 92
9, 1536, Note_on_c, 10, 62, 92
9, 1630, Note_on_c, 10, 50, 0
9, 1630, Note_on_c, 10, 62, 0
9, 1632, Note_on_c, 10, 50, 92
9, 1632, Note_on_c, 10, 62, 92
9, 1726, Note_on_c, 10, 50, 0
9, 1726, Note_on_c, 10, 62, 0
9, 1728, Note_on_c, 10, 50, 92
9, 1728, Note_on_c, 10, 62, 92
9, 1822, Note_on_c, 10, 50, 0
9, 1822, Note_on_c, 10, 62, 0
9, 1824, Note_on_c, 10, 50, 92
9, 1824, Note_on_c, 10, 62, 92
9, 1918, Note_on_c, 10, 50, 0
9, 1918, Note_on_c, 10, 62, 0
9, 1920, Note_on_c, 10, 62, 92
9, 2014, Note_on_c, 10, 62, 0
9, 2016, Note_on_c, 10, 62, 92
9, 2110, Note_on_c, 10, 62, 0
9, 2112, Note_on_c, 10, 62, 92
9, 2206, Note_on_c, 10, 62, 0
9, 2208, Note_on_c, 10, 62, 92
9, 2302, Note_on_c, 10, 62, 0
9, 2304, Note_on_c, 10, 71, 92
9, 2464, Note_on_c, 10, 71, 0
9, 2496, Note_on_c, 10, 67, 92
9, 2638, Note_on_c, 10, 67, 0
9, 2640, Note_on_c, 10, 69, 92
9, 2686, Note_on_c, 10, 69, 0
9, 2688, Note_on_c, 10, 71, 92
9, 2848, Note_on_c, 10, 71, 0
9, 2880, Note_on_c, 10, 73, 92
9, 3040, Note_on_c, 10, 73, 0
9, 3072, Note_on_c, 10, 74, 92
9, 3166, Note_on_c, 10, 74, 0
9, 3168, Note_on_c, 10, 54, 92
9, 3168, Note_on_c, 10, 62, 92
9, 3262, Note_on_c, 10, 54, 0
9, 3262, Note_on_c, 10, 62, 0
9, 3264, Note_on_c, 10, 54, 92
9, 3264, Note_on_c, 10, 62, 92
9, 3358, Note_on_c, 10, 54, 0
9, 3358, Note_on_c, 10, 62, 0
9, 3360, Note_on_c, 10, 54, 92
9, 3360, Note_on_c, 10, 62, 92
9, 3454, Note_on_c, 10, 54, 0
9, 3454, Note_on_c, 10, 62, 0
9, 3456, Note_on_c, 10, 54, 92
9, 3456, Note_on_c, 10, 62, 92
9, 3616, Note_on_c, 10, 54, 0
9, 3616, Note_on_c, 10, 62, 0
9, 3840, Note_on_c, 10, 57, 45
9, 3934, Note_on_c, 10, 57, 0
9, 3936, Note_on_c, 10, 57, 45
9, 4030, Note_on_c, 10, 57, 0
9, 4032, Note_on_c, 10, 57, 45
9, 4126, Note_on_c, 10, 57, 0
9, 4128, Note_on_c, 10, 57, 45
9, 4222, Note_on_c, 10, 57, 0
9, 4224, Note_on_c, 10, 57, 45
9, 4318, Note_on_c, 10, 57, 0
9, 4320, Note_on_c, 10, 57, 45
9, 4414, Note_on_c, 10, 57, 0
9, 4416, Note_on_c, 10, 57, 45
9, 4510, Note_on_c, 10, 57, 0
9, 4512, Note_on_c, 10, 57, 45
9, 4606, Note_on_c, 10, 57, 0
9, 4608, Note_on_c, 10, 59, 45
9, 4702, Note_on_c, 10, 59, 0
9, 4704, Note_on_c, 10, 59, 45
9, 4798, Note_on_c, 10, 59, 0
9, 4800, Note_on_c, 10, 59, 45
9, 4894, Note_on_c, 10, 59, 0
9, 4896, Note_on_c, 10, 59, 45
9, 4990, Note_on_c, 10, 59, 0
9, 4992, Note_on_c, 10, 59, 45
9, 5086, Note_on_c, 10, 59, 0
9, 5088, Note_on_c, 10, 59, 45
9, 5182, Note_on_c, 10, 59, 0
9, 5184, Note_on_c, 10, 59, 45
9, 5278, Note_on_c, 10, 59, 0
9, 5280, Note_on_c, 10, 59, 45
9, 5374, Note_on_c, 10, 59, 0
9, 5376, Note_on_c, 10, 64, 92
9, 5422, Note_on_c, 10, 64, 0
9, 5424, Note_on_c, 10, 64, 92
9, 5470, Note_on_c, 10, 64, 0
9, 5472, Note_on_c, 10, 64, 92
9, 5518, Note_on_c, 10, 64, 0
9, 5520, Note_on_c, 10, 64, 92
9, 5566, Note_on_c, 10, 64, 0
9, 5568, Note_on_c, 10, 64, 92
9, 5662, Note_on_c, 10, 64, 0
9, 5664, Note_on_c, 10, 67, 92
9, 5758, Note_on_c, 10, 67, 0
9, 5760, Note_on_c, 10, 66, 92
9, 5806, Note_on_c, 10, 66, 0
9, 5808, Note_on_c, 10, 66, 92
9, 5854, Note_on_c, 10, 66, 0
9, 5856, Note_on_c, 10, 66, 92
9, 5902, Note_on_c, 10, 66, 0
9, 5904, Note_on_c, 10, 66, 92
9, 5950, Note_on_c, 10, 66, 0
9, 5952, Note_on_c, 10, 66, 92
9, 6046, Note_on_c, 10, 66, 0
9, 6048, Note_on_c, 10, 74, 92
9, 6142, Note_on_c, 10, 74, 0
9, 6144, Note_on_c, 10, 73, 92
9, 6190, Note_on_c, 10, 73, 0
9, 6192, Note_on_c, 10, 73, 92
9, 6238, Note_on_c, 10, 73, 0
9, 6240, Note_on_c, 10, 73, 92
9, 6286, Note_on_c, 10, 73, 0
9, 6288, Note_on_c, 10, 73, 92
9, 6334, Note_on_c, 10, 73, 0
9, 6336, Note_on_c, 10, 74, 92
9, 6382, Note_on_c, 10, 74, 0
9, 6384, Note_on_c, 10, 74, 92
9, 6430, Note_on_c, 10, 74, 0
9, 6432, Note_on_c, 10, 74, 92
9, 6478, Note_on_c, 10, 74, 0
9, 6480, Note_on_c, 10, 74, 92
9, 6526, Note_on_c, 10, 74, 0
9, 6528, Note_on_c, 10, 76, 92
9, 6574, Note_on_c, 10, 76, 0
9, 6576, Note_on_c, 10, 76, 92
9, 6622, Note_on_c, 10, 76, 0
9, 6624, Note_on_c, 10, 76, 92
9, 6670, Note_on_c, 10, 76, 0
9, 6672, Note_on_c, 10, 76, 92
9, 6718, Note_on_c, 10, 76, 0
9, 6720, Note_on_c, 10, 67, 92
9, 6766, Note_on_c, 10, 67, 0
9, 6768, Note_on_c, 10, 67, 92
9, 6814, Note_on_c, 10, 67, 0
9, 6816, Note_on_c, 10, 67, 92
9, 6862, Note_on_c, 10, 67, 0
9, 6864, Note_on_c, 10, 67, 92
9, 6910, Note_on_c, 10, 67, 0
9, 6912, Note_on_c, 10, 66, 92
9, 7168, Note_on_c, 10, 66, 0
9, 7200, Note_on_c, 10, 61, 92
9, 7294, Note_on_c, 10, 61, 0
9, 7296, Note_on_c, 10, 62, 92
9, 7552, Note_on_c, 10, 62, 0
9, 7584, Note_on_c, 10, 74, 92
9, 7678, Note_on_c, 10, 74, 0
9, 7680, Note_on_c, 10, 73, 92
9, 7840, Note_on_c, 10, 73, 0
9, 7872, Note_on_c, 10, 69, 92
9, 8032, Note_on_c, 10, 69, 0
9, 8064, Note_on_c, 10, 57, 92
9, 8224, Note_on_c, 10, 57, 0
9, 9216, Note_on_c, 10, 66, 45
9, 9936, Note_on_c, 10, 66, 0
9, 9984, Note_on_c, 10, 67, 45
9, 10320, Note_on_c, 10, 67, 0
9, 10368, Note_on_c, 10, 64, 45
9, 10560, Note_on_c, 10, 64, 0
9, 10560, Note_on_c, 10, 69, 45
9, 10720, Note_on_c, 10, 69, 0
9, 10752, Note_on_c, 10, 66, 45
9, 10912, Note_on_c, 10, 66, 0
9, 10944, Note_on_c, 10, 66, 45
9, 11280, Note_on_c, 10, 66, 0
9, 11328, Note_on_c, 10, 66, 45
9, 11488, Note_on_c, 10, 66, 0
9, 11520, Note_on_c, 10, 67, 45
9, 11856, Note_on_c, 10, 67, 0
9, 11904, Note_on_c, 10, 64, 45
9, 12096, Note_on_c, 10, 64, 0
9, 12096, Note_on_c, 10, 69, 45
9, 12256, Note_on_c, 10, 69, 0
9, 12288, Note_on_c, 10, 66, 45
9, 12672, Note_on_c, 10, 66, 0
9, 12672, Note_on_c, 10, 67, 45
9, 13008, Note_on_c, 10, 67, 0
9, 13056, Note_on_c, 10, 69, 45
9, 13776, Note_on_c, 10, 69, 0
9, 13824, Note_on_c, 10, 69, 45
9, 14112, Note_on_c, 10, 69, 0
9, 14112, Note_on_c, 10, 66, 45
9, 14206, Note_on_c, 10, 66, 0
9, 14208, Note_on_c, 10, 67, 45
9, 14496, Note_on_c, 10, 67, 0
9, 14496, Note_on_c, 10, 64, 45
9, 14590, Note_on_c, 10, 64, 0
9, 14592, Note_on_c, 10, 66, 45
9, 14752, Note_on_c, 10, 66, 0
9, 14784, Note_on_c, 10, 69, 45
9, 15120, Note_on_c, 10, 69, 0
9, 15168, Note_on_c, 10, 69, 45
9, 15328, Note_on_c, 10, 69, 0
9, 15360, Note_on_c, 10, 74, 45
9, 15406, Note_on_c, 10, 74, 0
9, 15408, Note_on_c, 10, 74, 45
9, 15454, Note_on_c, 10, 74, 0
9, 15456, Note_on_c, 10, 74, 45
9, 15502, Note_on_c, 10, 74, 0
9, 15504, Note_on_c, 10, 74, 45
9, 15550, Note_on_c, 10, 74, 0
9, 15552, Note_on_c, 10, 74, 45
9, 15646, Note_on_c, 10, 74, 0
9, 15744, Note_on_c, 10, 74, 45
9, 15790, Note_on_c, 10, 74, 0
9, 15792, Note_on_c, 10, 74, 46
9, 15838, Note_on_c, 10, 74, 0
9, 15840, Note_on_c, 10, 74, 48
9, 15886, Note_on_c, 10, 74, 0
9, 15888, Note_on_c, 10, 74, 50
9, 15934, Note_on_c, 10, 74, 0
9, 15936, Note_on_c, 10, 74, 52
9, 16030, Note_on_c, 10, 74, 0
9, 16128, Note_on_c, 10, 74, 60
9, 16174, Note_on_c, 10, 74, 0
9, 16176, Note_on_c, 10, 74, 62
9, 16222, Note_on_c, 10, 74, 0
9, 16224, Note_on_c, 10, 74, 64
9, 16270, Note_on_c, 10, 74, 0
9, 16272, Note_on_c, 10, 74, 66
9, 16318, Note_on_c, 10, 74, 0
9, 16320, Note_on_c, 10, 74, 68
9, 16414, Note_on_c, 10, 74, 0
9, 16512, Note_on_c, 10, 74, 76
9, 16558, Note_on_c, 10, 74, 0
9, 16560, Note_on_c, 10, 74, 78
9, 16606, Note_on_c, 10, 74, 0
9, 16608, Note_on_c, 10, 74, 80
9, 16654, Note_on_c, 10, 74, 0
9, 16656, Note_on_c, 10, 74, 82
9, 16702, Note_on_c, 10, 74, 0
9, 16704, Note_on_c, 10, 74, 84
9, 16798, Note_on_c, 10, 74, 0
9, 16896, Note_on_c, 10, 66, 92
9, 16990, Note_on_c, 10, 66, 0
9, 16992, Note_on_c, 10, 69, 92
9, 17086, Note_on_c, 10, 69, 0
9, 17088, Note_on_c, 10, 66, 92
9, 17182, Note_on_c, 10, 66, 0
9, 17184, Note_on_c, 10, 69, 92
9, 17278, Note_on_c, 10, 69, 0
9, 17280, Note_on_c, 10, 66, 92
9, 17374, Note_on_c, 10, 66, 0
9, 17376, Note_on_c, 10, 69, 92
9, 17470, Note_on_c, 10, 69, 0
9, 17472, Note_on_c, 10, 66, 92
9, 17566, Note_on_c, 10, 66, 0
9, 17568, Note_on_c, 10, 69, 92
9, 17662, Note_on_c, 10, 69, 0
9, 17664, Note_on_c, 10, 62, 92
9, 17758, Note_on_c, 10, 62, 0
9, 17760, Note_on_c, 10, 62, 92
9, 17854, Note_on_c, 10, 62, 0
9, 17856, Note_on_c, 10, 62, 92
9, 17950, Note_on_c, 10, 62, 0
9, 17952, Note_on_c, 10, 62, 92
9, 18046, Note_on_c, 10, 62, 0
9, 18048, Note_on_c, 10, 71, 92
9, 18142, Note_on_c, 10, 71, 0
9, 18144, Note_on_c, 10, 71, 92
9, 18238, Note_on_c, 10, 71, 0
9, 18240, Note_on_c, 10, 71, 92
9, 18334, Note_on_c, 10, 71, 0
9, 18336, Note_on_c, 10, 71, 92
9, 18430, Note_on_c, 10, 71, 0
9, 18432, Note_on_c, 10, 69, 92
9, 18528, Note_on_c, 10, 69, 0
9, 18528, Note_on_c, 10, 74, 92
9, 18622, Note_on_c, 10, 74, 0
9, 18624, Note_on_c, 10, 66, 92
9, 18720, Note_on_c, 10, 66, 0
9, 18720, Note_on_c, 10, 69, 92
9, 18814, Note_on_c, 10, 69, 0
9, 18816, Note_on_c, 10, 66, 92
9, 18910, Note_on_c, 10, 66, 0
9, 18912, Note_on_c, 10, 66, 92
9, 18960, Note_on_c, 10, 66, 0
9, 18960, Note_on_c, 10, 62, 92
9, 19006, Note_on_c, 10, 62, 0
9, 19008, Note_on_c, 10, 64, 92
9, 19102, Note_on_c, 10, 64, 0
9, 19104, Note_on_c, 10, 64, 92
9, 19152, Note_on_c, 10, 64, 0
9, 19152, Note_on_c, 10, 61, 92
9, 19198, Note_on_c, 10, 61, 0
9, 19200, Note_on_c, 10, 62, 92
9, 19360, Note_on_c, 10, 62, 0
9, 20160, Note_on_c, 10, 57, 92
9, 20254, Note_on_c, 10, 57, 0
9, 20256, Note_on_c, 10, 69, 92
9, 20350, Note_on_c, 10, 69, 0
9, 20352, Note_on_c, 10, 69, 92
9, 20446, Note_on_c, 10, 69, 0
9, 20448, Note_on_c, 10, 69, 92
9, 20542, Note_on_c, 10, 69, 0
9, 20544, Note_on_c, 10, 69, 92
9, 20638, Note_on_c, 10, 69, 0
9, 20640, Note_on_c, 10, 69, 92
9, 20734, Note_on_c, 10, 69, 0
9, 20736, Note_on_c, 10, 57, 92
9, 20736, Note_on_c, 10, 66, 92
9, 20830, Note_on_c, 10, 57, 0
9, 20830, Note_on_c, 10, 66, 0
9, 21696, Note_on_c, 10, 57, 92
9, 21790, Note_on_c, 10, 57, 0
9, 21792, Note_on_c, 10, 69, 92
9, 21886, Note_on_c, 10, 69, 0
9, 21888, Note_on_c, 10, 69, 92
9, 21982, Note_on_c, 10, 69, 0
9, 21984, Note_on_c, 10, 69, 92
9, 22078, Note_on_c, 10, 69, 0
9, 22080, Note_on_c, 10, 69, 92
9, 22174, Note_on_c, 10, 69, 0
9, 22176, Note_on_c, 10, 69, 92
9, 22270, Note_on_c, 10, 69, 0
9, 22272, Note_on_c, 10, 69, 92
9, 22366, Note_on_c, 10, 69, 0
9, 22368, Note_on_c, 10, 69, 92
9, 22462, Note_on_c, 10, 69, 0
9, 22464, Note_on_c, 10, 69, 92
9, 22558, Note_on_c, 10, 69, 0
9, 22560, Note_on_c, 10, 69, 92
9, 22654, Note_on_c, 10, 69, 0
9, 22656, Note_on_c, 10, 57, 92
9, 22656, Note_on_c, 10, 69, 92
9, 22750, Note_on_c, 10, 57, 0
9, 22750, Note_on_c, 10, 69, 0
9, 22752, Note_on_c, 10, 57, 92
9, 22752, Note_on_c, 10, 69, 92
9, 22846, Note_on_c, 10, 57, 0
9, 22846, Note_on_c, 10, 69, 0
9, 22848, Note_on_c, 10, 57, 92
9, 22848, Note_on_c, 10, 69, 92
9, 22942, Note_on_c, 10, 57, 0
9, 22942, Note_on_c, 10, 69, 0
9, 22944, Note_on_c, 10, 57, 92
9, 22944, Note_on_c, 10, 69, 92
9, 23038, Note_on_c, 10, 57, 0
9, 23038, Note_on_c, 10, 69, 0
9, 23040, Note_on_c, 10, 57, 92
9, 23040, Note_on_c, 10, 66, 92
9, 23072, Note_on_c, 10, 57, 0
9, 23072, Note_on_c, 10, 66, 0
9, 23136, Note_on_c, 10, 62, 92
9, 23168, Note_on_c, 10, 62, 0
9, 23232, Note_on_c, 10, 64, 92
9, 23256, Note_on_c, 10, 64, 0
9, 23256, Note_on_c, 10, 62, 92
9, 23280, Note_on_c, 10, 62, 0
9, 23280, Note_on_c, 10, 64, 92
9, 23304, Note_on_c, 10, 64, 0
9, 23304, Note_on_c, 10, 62, 92
9, 23328, Note_on_c, 10, 62, 0
9, 23328, Note_on_c, 10, 64, 92
9, 23352, Note_on_c, 10, 64, 0
9, 23352, Note_on_c, 10, 62, 92
9, 23376, Note_on_c, 10, 62, 0
9, 23376, Note_on_c, 10, 61, 92
9, 23400, Note_on_c, 10, 61, 0
9, 23400, Note_on_c, 10, 62, 92
9, 23422, Note_on_c, 10, 62, 0
9, 23424, Note_on_c, 10, 66, 92
9, 23456, Note_on_c, 10, 66, 0
9, 23520, Note_on_c, 10, 62, 92
9, 23552, Note_on_c, 10, 62, 0
9, 23616, Note_on_c, 10, 57, 92
9, 23648, Note_on_c, 10, 57, 0
9, 23712, Note_on_c, 10, 54, 92
9, 23744, Note_on_c, 10, 54, 0
9, 23808, Note_on_c, 10, 50, 92
9, 23968, Note_on_c, 10, 50, 0
9, 24576, Note_on_c, 10, 62, 45
9, 24670, Note_on_c, 10, 62, 0
9, 24672, Note_on_c, 10, 62, 45
9, 24766, Note_on_c, 10, 62, 0
9, 24768, Note_on_c, 10, 62, 45
9, 24862, Note_on_c, 10, 62, 0
9, 24864, Note_on_c, 10, 62, 45
9, 24958, Note_on_c, 10, 62, 0
9, 24960, Note_on_c, 10, 62, 45
9, 25054, Note_on_c, 10, 62, 0
9, 25056, Note_on_c, 10, 62, 45
9, 25150, Note_on_c, 10, 62, 0
9, 25152, Note_on_c, 10, 62, 45
9, 25246, Note_on_c, 10, 62, 0
9, 25248, Note_on_c, 10, 62, 45
9, 25342, Note_on_c, 10, 62, 0
9, 25344, Note_on_c, 10, 62, 45
9, 25438, Note_on_c, 10, 62, 0
9, 25440, Note_on_c, 10, 62, 45
9, 25534, Note_on_c, 10, 62, 0
9, 25536, Note_on_c, 10, 62, 45
9, 25630, Note_on_c, 10, 62, 0
9, 25632, Note_on_c, 10, 62, 45
9, 25726, Note_on_c, 10, 62, 0
9, 25728, Note_on_c, 10, 62, 45
9, 25822, Note_on_c, 10, 62, 0
9, 25824, Note_on_c, 10, 62, 45
9, 25918, Note_on_c, 10, 62, 0
9, 25920, Note_on_c, 10, 64, 45
9, 26014, Note_on_c, 10, 64, 0
9, 26016, Note_on_c, 10, 64, 45
9, 26110, Note_on_c, 10, 64, 0
9, 26112, Note_on_c, 10, 57, 45
9, 26208, Note_on_c, 10, 57, 0
9, 26208, Note_on_c, 10, 62, 45
9, 26302, Note_on_c, 10, 62, 0
9, 26304, Note_on_c, 10, 62, 45
9, 26336, Note_on_c, 10, 62, 0
9, 26400, Note_on_c, 10, 62, 45
9, 26432, Note_on_c, 10, 62, 0
9, 26496, Note_on_c, 10, 69, 45
9, 26590, Note_on_c, 10, 69, 0
9, 26592, Note_on_c, 10, 69, 45
9, 26686, Note_on_c, 10, 69, 0
9, 26688, Note_on_c, 10, 69, 45
9, 26782, Note_on_c, 10, 69, 0
9, 26784, Note_on_c, 10, 69, 45
9, 26878, Note_on_c, 10, 69, 0
9, 26880, Note_on_c, 10, 71, 45
9, 27040, Note_on_c, 10, 71, 0
9, 27072, Note_on_c, 10, 67, 45
9, 27214, Note_on_c, 10, 67, 0
9, 27216, Note_on_c, 10, 69, 45
9, 27262, Note_on_c, 10, 69, 0
9, 27264, Note_on_c, 10, 71, 45
9, 27424, Note_on_c, 10, 71, 0
9, 27456, Note_on_c, 10, 73, 45
9, 27616, Note_on_c, 10, 73, 0
9, 27648, Note_on_c, 10, 74, 45
9, 27808, Note_on_c, 10, 74, 0
9, 32256, Note_on_c, 10, 64, 45
9, 32640, Note_on_c, 10, 64, 0
9, 32640, Note_on_c, 10, 57, 45
9, 32976, Note_on_c, 10, 57, 0
9, 33024, Note_on_c, 10, 57, 45
9, 33024, Note_on_c, 10, 69, 45
9, 34720, Note_on_c, 10, 57, 0
9, 34720, Note_on_c, 10, 69, 0
9, 34752, Note_on_c, 10, 66, 45
9, 34912, Note_on_c, 10, 66, 0
9, 34944, Note_on_c, 10, 67, 45
9, 35104, Note_on_c, 10, 67, 0
9, 35136, Note_on_c, 10, 69, 45
9, 35296, Note_on_c, 10, 69, 0
9, 35328, Note_on_c, 10, 69, 45
9, 35422, Note_on_c, 10, 69, 0
9, 35520, Note_on_c, 10, 57, 92
9, 35614, Note_on_c, 10, 57, 0
9, 35616, Note_on_c, 10, 69, 92
9, 35710, Note_on_c, 10, 69, 0
9, 35712, Note_on_c, 10, 69, 92
9, 35806, Note_on_c, 10, 69, 0
9, 35808, Note_on_c, 10, 69, 92
9, 35902, Note_on_c, 10, 69, 0
9, 35904, Note_on_c, 10, 69, 92
9, 35998, Note_on_c, 10, 69, 0
9, 36000, Note_on_c, 10, 69, 92
9, 36094, Note_on_c, 10, 69, 0
9, 36096, Note_on_c, 10, 69, 92
9, 36190, Note_on_c, 10, 69, 0
9, 36192, Note_on_c, 10, 69, 92
9, 36286, Note_on_c, 10, 69, 0
9, 36288, Note_on_c, 10, 69, 92
9, 36382, Note_on_c, 10, 69, 0
9, 36384, Note_on_c, 10, 69, 92
9, 36478, Note_on_c, 10, 69, 0
9, 36480, Note_on_c, 10, 57, 92
9, 36480, Note_on_c, 10, 69, 92
9, 36574, Note_on_c, 10, 57, 0
9, 36574, Note_on_c, 10, 69, 0
9, 36576, Note_on_c, 10, 57, 92
9, 36576, Note_on_c, 10, 69, 92
9, 36670, Note_on_c, 10, 57, 0
9, 36670, Note_on_c, 10, 69, 0
9, 36672, Note_on_c, 10, 57, 92
9, 36672, Note_on_c, 10, 69, 92
9, 36766, Note_on_c, 10, 57, 0
9, 36766, Note_on_c, 10, 69, 0
9, 36768, Note_on_c, 10, 57, 92
9, 36768, Note_on_c, 10, 69, 92
9, 36862, Note_on_c, 10, 57, 0
9, 36862, Note_on_c, 10, 69, 0
9, 36864, Note_on_c, 10, 57, 92
9, 36864, Note_on_c, 10, 66, 92
9, 36896, Note_on_c, 10, 57, 0
9, 36896, Note_on_c, 10, 66, 0
9, 36960, Note_on_c, 10, 62, 92
9, 36992, Note_on_c, 10, 62, 0
9, 37056, Note_on_c, 10, 64, 92
9, 37080, Note_on_c, 10, 64, 0
9, 37080, Note_on_c, 10, 62, 92
9, 37104, Note_on_c, 10, 62, 0
9, 37104, Note_on_c, 10, 64, 92
9, 37128, Note_on_c, 10, 64, 0
9, 37128, Note_on_c, 10, 62, 92
9, 37152, Note_on_c, 10, 62, 0
9, 37152, Note_on_c, 10, 64, 92
9, 37176, Note_on_c, 10, 64, 0
9, 37176, Note_on_c, 10, 62, 92
9, 37200, Note_on_c, 10, 62, 0
9, 37200, Note_on_c, 10, 61, 92
9, 37224, Note_on_c, 10, 61, 0
9, 37224, Note_on_c, 10, 62, 92
9, 37246, Note_on_c, 10, 62, 0
9, 37248, Note_on_c, 10, 66, 92
9, 37280, Note_on_c, 10, 66, 0
9, 37344, Note_on_c, 10, 62, 92
9, 37376, Note_on_c, 10, 62, 0
9, 37440, Note_on_c, 10, 57, 92
9, 37472, Note_on_c, 10, 57, 0
9, 37536, Note_on_c, 10, 54, 92
9, 37568, Note_on_c, 10, 54, 0
9, 37632, Note_on_c, 10, 50, 92
9, 37792, Note_on_c, 10, 50, 0
9, 38592, Note_on_c, 10, 66, 45
9, 38784, Note_on_c, 10, 66, 0
9, 38784, Note_on_c, 10, 64, 45
9, 38976, Note_on_c, 10, 64, 0
9, 38976, Note_on_c, 10, 62, 45
9, 39136, Note_on_c, 10, 62, 0
9, 39264, Note_on_c, 10, 69, 45
9, 39358, Note_on_c, 10, 69, 0
9, 39360, Note_on_c, 10, 71, 45
9, 39384, Note_on_c, 10, 71, 0
9, 39384, Note_on_c, 10, 69, 45
9, 39408, Note_on_c, 10, 69, 0
9, 39408, Note_on_c, 10, 71, 45
9, 39432, Note_on_c, 10, 71, 0
9, 39432, Note_on_c, 10, 69, 45
9, 39456, Note_on_c, 10, 69, 0
9, 39456, Note_on_c, 10, 71, 45
9, 39480, Note_on_c, 10, 71, 0
9, 39480, Note_on_c, 10, 69, 45
9, 39504, Note_on_c, 10, 69, 0
9, 39504, Note_on_c, 10, 68, 45
9, 39528, Note_on_c, 10, 68, 0
9, 39528, Note_on_c, 10, 69, 45
9, 39550, Note_on_c, 10, 69, 0
9, 39552, Note_on_c, 10, 73, 45
9, 39584, Note_on_c, 10, 73, 0
9, 39648, Note_on_c, 10, 69, 45
9, 39680, Note_on_c, 10, 69, 0
9, 39744, Note_on_c, 10, 64, 45
9, 39776, Note_on_c, 10, 64, 0
9, 39840, Note_on_c, 10, 61, 45
9, 39872, Note_on_c, 10, 61, 0
9, 39936, Note_on_c, 10, 57, 45
9, 40096, Note_on_c, 10, 57, 0
9, 40896, Note_on_c, 10, 67, 45
9, 41088, Note_on_c, 10, 67, 0
9, 41088, Note_on_c, 10, 66, 45
9, 41280, Note_on_c, 10, 66, 0
9, 41280, Note_on_c, 10, 61, 45
9, 41440, Note_on_c, 10, 61, 0
9, 41568, Note_on_c, 10, 62, 45
9, 41662, Note_on_c, 10, 62, 0
9, 41664, Note_on_c, 10, 64, 45
9, 41688, Note_on_c, 10, 64, 0
9, 41688, Note_on_c, 10, 62, 45
9, 41712, Note_on_c, 10, 62, 0
9, 41712, Note_on_c, 10, 64, 45
9, 41736, Note_on_c, 10, 64, 0
9, 41736, Note_on_c, 10, 62, 45
9, 41760, Note_on_c, 10, 62, 0
9, 41760, Note_on_c, 10, 64, 45
9, 41784, Note_on_c, 10, 64, 0
9, 41784, Note_on_c, 10, 62, 45
9, 41808, Note_on_c, 10, 62, 0
9, 41808, Note_on_c, 10, 61, 45
9, 41832, Note_on_c, 10, 61, 0
9, 41832, Note_on_c, 10, 62, 45
9, 41854, Note_on_c, 10, 62, 0
9, 41856, Note_on_c, 10, 66, 45
9, 41888, Note_on_c, 10, 66, 0
9, 41952, Note_on_c, 10, 62, 45
9, 41984, Note_on_c, 10, 62, 0
9, 42048, Note_on_c, 10, 57, 45
9, 42080, Note_on_c, 10, 57, 0
9, 42144, Note_on_c, 10, 54, 45
9, 42176, Note_on_c, 10, 54, 0
9, 42240, Note_on_c, 10, 50, 45
9, 42400, Note_on_c, 10, 50, 0
9, 48960, Note_on_c, 10, 64, 45
9, 49120, Note_on_c, 10, 64, 0
9, 49152, Note_on_c, 10, 64, 45
9, 49246, Note_on_c, 10, 64, 0
9, 49248, Note_on_c, 10, 64, 45
9, 49342, Note_on_c, 10, 64, 0
9, 49344, Note_on_c, 10, 64, 45
9, 49438, Note_on_c, 10, 64, 0
9, 49440, Note_on_c, 10, 64, 45
9, 49534, Note_on_c, 10, 64, 0
9, 49536, Note_on_c, 10, 64, 45
9, 49696, Note_on_c, 10, 64, 0
9, 49920, Note_on_c, 10, 59, 45
9, 50014, Note_on_c, 10, 59, 0
9, 50016, Note_on_c, 10, 59, 45
9, 50110, Note_on_c, 10, 59, 0
9, 50112, Note_on_c, 10, 59, 45
9, 50206, Note_on_c, 10, 59, 0
9, 50208, Note_on_c, 10, 59, 45
9, 50302, Note_on_c, 10, 59, 0
9, 50304, Note_on_c, 10, 59, 45
9, 50464, Note_on_c, 10, 59, 0
9, 50688, Note_on_c, 10, 64, 45
9, 50782, Note_on_c, 10, 64, 0
9, 50880, Note_on_c, 10, 64, 45
9, 50974, Note_on_c, 10, 64, 0
9, 51072, Note_on_c, 10, 64, 45
9, 51166, Note_on_c, 10, 64, 0
9, 51264, Note_on_c, 10, 64, 45
9, 51358, Note_on_c, 10, 64, 0
9, 51456, Note_on_c, 10, 64, 45
9, 51648, Note_on_c, 10, 64, 0
9, 51648, Note_on_c, 10, 57, 45
9, 51808, Note_on_c, 10, 57, 0
9, 52224, Note_on_c, 10, 66, 45
9, 52416, Note_on_c, 10, 66, 0
9, 52416, Note_on_c, 10, 57, 45
9, 52576, Note_on_c, 10, 57, 0
9, 52992, Note_on_c, 10, 67, 45
9, 53184, Note_on_c, 10, 67, 0
9, 53184, Note_on_c, 10, 57, 45
9, 53344, Note_on_c, 10, 57, 0
9, 53760, Note_on_c, 10, 62, 45
9, 54144, Note_on_c, 10, 62, 0
9, 54144, Note_on_c, 10, 64, 45
9, 54480, Note_on_c, 10, 64, 0
9, 54528, Note_on_c, 10, 65, 92
9, 54622, Note_on_c, 10, 65, 0
9, 54624, Note_on_c, 10, 65, 45
9, 54718, Note_on_c, 10, 65, 0
9, 54720, Note_on_c, 10, 65, 45
9, 54814, Note_on_c, 10, 65, 0
9, 54816, Note_on_c, 10, 65, 45
9, 54910, Note_on_c, 10, 65, 0
9, 54912, Note_on_c, 10, 65, 45
9, 55006, Note_on_c, 10, 65, 0
9, 55008, Note_on_c, 10, 65, 45
9, 55102, Note_on_c, 10, 65, 0
9, 55104, Note_on_c, 10, 65, 45
9, 55198, Note_on_c, 10, 65, 0
9, 55200, Note_on_c, 10, 65, 45
9, 55294, Note_on_c, 10, 65, 0
9, 55392, Note_on_c, 10, 59, 45
9, 55488, Note_on_c, 10, 59, 0
9, 55488, Note_on_c, 10, 64, 45
9, 55582, Note_on_c, 10, 64, 0
9, 55584, Note_on_c, 10, 64, 45
9, 55616, Note_on_c, 10, 64, 0
9, 55776, Note_on_c, 10, 62, 45
9, 55870, Note_on_c, 10, 62, 0
9, 55872, Note_on_c, 10, 62, 45
9, 55966, Note_on_c, 10, 62, 0
9, 55968, Note_on_c, 10, 62, 45
9, 56062, Note_on_c, 10, 62, 0
9, 56160, Note_on_c, 10, 61, 45
9, 56254, Note_on_c, 10, 61, 0
9, 56352, Note_on_c, 10, 57, 45
9, 56446, Note_on_c, 10, 57, 0
9, 56544, Note_on_c, 10, 62, 45
9, 56638, Note_on_c, 10, 62, 0
9, 56736, Note_on_c, 10, 66, 45
9, 56830, Note_on_c, 10, 66, 0
9, 56832, Note_on_c, 10, 64, 45
9, 56926, Note_on_c, 10, 64, 0
9, 56928, Note_on_c, 10, 64, 45
9, 57022, Note_on_c, 10, 64, 0
9, 57024, Note_on_c, 10, 64, 45
9, 57118, Note_on_c, 10, 64, 0
9, 57120, Note_on_c, 10, 64, 45
9, 57214, Note_on_c, 10, 64, 0
9, 57216, Note_on_c, 10, 64, 45
9, 57310, Note_on_c, 10, 64, 0
9, 57312, Note_on_c, 10, 64, 45
9, 57406, Note_on_c, 10, 64, 0
9, 57408, Note_on_c, 10, 64, 45
9, 57502, Note_on_c, 10, 64, 0
9, 57504, Note_on_c, 10, 64, 45
9, 57598, Note_on_c, 10, 64, 0
9, 57600, Note_on_c, 10, 64, 92
9, 57694, Note_on_c, 10, 64, 0
9, 57696, Note_on_c, 10, 64, 92
9, 57790, Note_on_c, 10, 64, 0
9, 57792, Note_on_c, 10, 64, 92
9, 57886, Note_on_c, 10, 64, 0
9, 57888, Note_on_c, 10, 64, 92
9, 57982, Note_on_c, 10, 64, 0
9, 57984, Note_on_c, 10, 66, 92
9, 58078, Note_on_c, 10, 66, 0
9, 58080, Note_on_c, 10, 69, 92
9, 58174, Note_on_c, 10, 69, 0
9, 58176, Note_on_c, 10, 69, 92
9, 58270, Note_on_c, 10, 69, 0
9, 58272, Note_on_c, 10, 69, 92
9, 58366, Note_on_c, 10, 69, 0
9, 58368, Note_on_c, 10, 71, 92
9, 58528, Note_on_c, 10, 71, 0
9, 58560, Note_on_c, 10, 64, 92
9, 58560, Note_on_c, 10, 71, 92
9, 58720, Note_on_c, 10, 64, 0
9, 58720, Note_on_c, 10, 71, 0
9, 58752, Note_on_c, 10, 64, 92
9, 58912, Note_on_c, 10, 64, 0
9, 59904, Note_on_c, 10, 57, 45
9, 61392, Note_on_c, 10, 57, 0
9, 61440, Note_on_c, 10, 69, 45
9, 63136, Note_on_c, 10, 69, 0
9, 68352, Note_on_c, 10, 61, 45
9, 68512, Note_on_c, 10, 61, 0
9, 68832, Note_on_c, 10, 61, 45
9, 68926, Note_on_c, 10, 61, 0
9, 68928, Note_on_c, 10, 61, 45
9, 69022, Note_on_c, 10, 61, 0
9, 69024, Note_on_c, 10, 64, 45
9, 69118, Note_on_c, 10, 64, 0
9, 69120, Note_on_c, 10, 66, 45
9, 69280, Note_on_c, 10, 66, 0
9, 69600, Note_on_c, 10, 66, 45
9, 69694, Note_on_c, 10, 66, 0
9, 69696, Note_on_c, 10, 66, 45
9, 69790, Note_on_c, 10, 66, 0
9, 69792, Note_on_c, 10, 66, 45
9, 69886, Note_on_c, 10, 66, 0
9, 69888, Note_on_c, 10, 64, 45
9, 69982, Note_on_c, 10, 64, 0
9, 69984, Note_on_c, 10, 64, 45
9, 70078, Note_on_c, 10, 64, 0
9, 70080, Note_on_c, 10, 61, 45
9, 70174, Note_on_c, 10, 61, 0
9, 70176, Note_on_c, 10, 61, 45
9, 70270, Note_on_c, 10, 61, 0
9, 70272, Note_on_c, 10, 66, 45
9, 70366, Note_on_c, 10, 66, 0
9, 70368, Note_on_c, 10, 66, 45
9, 70462, Note_on_c, 10, 66, 0
9, 70464, Note_on_c, 10, 64, 45
9, 70558, Note_on_c, 10, 64, 0
9, 70560, Note_on_c, 10, 64, 45
9, 70654, Note_on_c, 10, 64, 0
9, 70656, Note_on_c, 10, 64, 45
9, 70816, Note_on_c, 10, 64, 0
9, 71136, Note_on_c, 10, 61, 45
9, 71230, Note_on_c, 10, 61, 0
9, 71232, Note_on_c, 10, 61, 45
9, 71326, Note_on_c, 10, 61, 0
9, 71328, Note_on_c, 10, 61, 45
9, 71422, Note_on_c, 10, 61, 0
9, 71424, Note_on_c, 10, 59, 45
9, 71584, Note_on_c, 10, 59, 0
9, 71904, Note_on_c, 10, 59, 45
9, 71998, Note_on_c, 10, 59, 0
9, 72000, Note_on_c, 10, 59, 45
9, 72094, Note_on_c, 10, 59, 0
9, 72096, Note_on_c, 10, 59, 45
9, 72190, Note_on_c, 10, 59, 0
9, 72192, Note_on_c, 10, 64, 45
9, 72286, Note_on_c, 10, 64, 0
9, 72288, Note_on_c, 10, 64, 45
9, 72382, Note_on_c, 10, 64, 0
9, 72384, Note_on_c, 10, 64, 45
9, 72478, Note_on_c, 10, 64, 0
9, 72480, Note_on_c, 10, 64, 45
9, 72574, Note_on_c, 10, 64, 0
9, 72576, Note_on_c, 10, 64, 45
9, 72670, Note_on_c, 10, 64, 0
9, 72672, Note_on_c, 10, 64, 45
9, 72766, Note_on_c, 10, 64, 0
9, 72768, Note_on_c, 10, 64, 45
9, 72862, Note_on_c, 10, 64, 0
9, 72864, Note_on_c, 10, 64, 45
9, 72958, Note_on_c, 10, 64, 0
9, 72960, Note_on_c, 10, 64, 45
9, 73006, Note_on_c, 10, 64, 0
9, 73008, Note_on_c, 10, 64, 45
9, 73054, Note_on_c, 10, 64, 0
9, 73056, Note_on_c, 10, 64, 45
9, 73102, Note_on_c, 10, 64, 0
9, 73104, Note_on_c, 10, 64, 45
9, 73150, Note_on_c, 10, 64, 0
9, 73152, Note_on_c, 10, 64, 45
9, 73198, Note_on_c, 10, 64, 0
9, 73200, Note_on_c, 10, 64, 48
9, 73246, Note_on_c, 10, 64, 0
9, 73248, Note_on_c, 10, 64, 52
9, 73294, Note_on_c, 10, 64, 0
9, 73296, Note_on_c, 10, 64, 56
9, 73342, Note_on_c, 10, 64, 0
9, 73344, Note_on_c, 10, 64, 60
9, 73390, Note_on_c, 10, 64, 0
9, 73392, Note_on_c, 10, 64, 64
9, 73438, Note_on_c, 10, 64, 0
9, 73440, Note_on_c, 10, 64, 68
9, 73486, Note_on_c, 10, 64, 0
9, 73488, Note_on_c, 10, 64, 72
9, 73534, Note_on_c, 10, 64, 0
9, 73536, Note_on_c, 10, 64, 76
9, 73582, Note_on_c, 10, 64, 0
9, 73584, Note_on_c, 10, 64, 80
9, 73630, Note_on_c, 10, 64, 0
9, 73632, Note_on_c, 10, 64, 84
9, 73678, Note_on_c, 10, 64, 0
9, 73680, Note_on_c, 10, 64, 88
9, 73726, Note_on_c, 10, 64, 0
9, 73728, Note_on_c, 10, 64, 92
9, 73822, Note_on_c, 10, 64, 0
9, 73824, Note_on_c, 10, 69, 92
9, 73918, Note_on_c, 10, 69, 0
9, 73920, Note_on_c, 10, 73, 92
9, 74014, Note_on_c, 10, 73, 0
9, 74016, Note_on_c, 10, 69, 92
9, 74110, Note_on_c, 10, 69, 0
9, 74112, Note_on_c, 10, 64, 92
9, 74206, Note_on_c, 10, 64, 0
9, 74208, Note_on_c, 10, 69, 92
9, 74302, Note_on_c, 10, 69, 0
9, 74304, Note_on_c, 10, 73, 92
9, 74398, Note_on_c, 10, 73, 0
9, 74400, Note_on_c, 10, 69, 92
9, 74494, Note_on_c, 10, 69, 0
9, 74496, Note_on_c, 10, 69, 92
9, 74590, Note_on_c, 10, 69, 0
9, 74592, Note_on_c, 10, 69, 92
9, 74686, Note_on_c, 10, 69, 0
9, 74688, Note_on_c, 10, 69, 92
9, 74782, Note_on_c, 10, 69, 0
9, 74784, Note_on_c, 10, 69, 92
9, 74878, Note_on_c, 10, 69, 0
9, 74880, Note_on_c, 10, 66, 92
9, 74974, Note_on_c, 10, 66, 0
9, 74976, Note_on_c, 10, 66, 92
9, 75070, Note_on_c, 10, 66, 0
9, 75072, Note_on_c, 10, 66, 92
9, 75166, Note_on_c, 10, 66, 0
9, 75168, Note_on_c, 10, 66, 92
9, 75262, Note_on_c, 10, 66, 0
9, 75264, Note_on_c, 10, 64, 92
9, 75358, Note_on_c, 10, 64, 0
9, 75360, Note_on_c, 10, 69, 92
9, 75454, Note_on_c, 10, 69, 0
9, 75456, Note_on_c, 10, 73, 92
9, 75550, Note_on_c, 10, 73, 0
9, 75552, Note_on_c, 10, 76, 92
9, 75646, Note_on_c, 10, 76, 0
9, 75648, Note_on_c, 10, 73, 92
9, 75742, Note_on_c, 10, 73, 0
9, 75744, Note_on_c, 10, 73, 92
9, 75790, Note_on_c, 10, 73, 0
9, 75792, Note_on_c, 10, 69, 92
9, 75838, Note_on_c, 10, 69, 0
9, 75840, Note_on_c, 10, 71, 92
9, 75934, Note_on_c, 10, 71, 0
9, 75936, Note_on_c, 10, 71, 92
9, 75982, Note_on_c, 10, 71, 0
9, 75984, Note_on_c, 10, 68, 92
9, 76030, Note_on_c, 10, 68, 0
9, 76032, Note_on_c, 10, 69, 92
9, 76192, Note_on_c, 10, 69, 0
9, 76992, Note_on_c, 10, 52, 92
9, 77086, Note_on_c, 10, 52, 0
9, 77088, Note_on_c, 10, 64, 92
9, 77182, Note_on_c, 10, 64, 0
9, 77184, Note_on_c, 10, 64, 92
9, 77278, Note_on_c, 10, 64, 0
9, 77280, Note_on_c, 10, 64, 92
9, 77374, Note_on_c, 10, 64, 0
9, 77376, Note_on_c, 10, 64, 92
9, 77470, Note_on_c, 10, 64, 0
9, 77472, Note_on_c, 10, 64, 92
9, 77566, Note_on_c, 10, 64, 0
9, 77568, Note_on_c, 10, 61, 92
9, 77568, Note_on_c, 10, 64, 92
9, 77662, Note_on_c, 10, 61, 0
9, 77662, Note_on_c, 10, 64, 0
9, 78528, Note_on_c, 10, 52, 92
9, 78622, Note_on_c, 10, 52, 0
9, 78624, Note_on_c, 10, 64, 92
9, 78718, Note_on_c, 10, 64, 0
9, 78720, Note_on_c, 10, 64, 92
9, 78814, Note_on_c, 10, 64, 0
9, 78816, Note_on_c, 10, 64, 92
9, 78910, Note_on_c, 10, 64, 0
9, 78912, Note_on_c, 10, 64, 92
9, 79006, Note_on_c, 10, 64, 0
9, 79008, Note_on_c, 10, 64, 92
9, 79102, Note_on_c, 10, 64, 0
9, 79104, Note_on_c, 10, 64, 92
9, 79198, Note_on_c, 10, 64, 0
9, 79200, Note_on_c, 10, 64, 92
9, 79294, Note_on_c, 10, 64, 0
9, 79296, Note_on_c, 10, 64, 92
9, 79390, Note_on_c, 10, 64, 0
9, 79392, Note_on_c, 10, 64, 92
9, 79486, Note_on_c, 10, 64, 0
9, 79488, Note_on_c, 10, 64, 92
9, 79488, Note_on_c, 10, 76, 92
9, 79582, Note_on_c, 10, 64, 0
9, 79582, Note_on_c, 10, 76, 0
9, 79584, Note_on_c, 10, 64, 92
9, 79584, Note_on_c, 10, 76, 92
9, 79678, Note_on_c, 10, 64, 0
9, 79678, Note_on_c, 10, 76, 0
9, 79680, Note_on_c, 10, 64, 92
9, 79680, Note_on_c, 10, 76, 92
9, 79774, Note_on_c, 10, 64, 0
9, 79774, Note_on_c, 10, 76, 0
9, 79776, Note_on_c, 10, 64, 92
9, 79776, Note_on_c, 10, 76, 92
9, 79870, Note_on_c, 10, 64, 0
9, 79870, Note_on_c, 10, 76, 0
9, 79872, Note_on_c, 10, 64, 92
9, 79872, Note_on_c, 10, 73, 92
9, 79966, Note_on_c, 10, 64, 0
9, 79966, Note_on_c, 10, 73, 0
9, 79968, Note_on_c, 10, 69, 92
9, 80062, Note_on_c, 10, 69, 0
9, 80064, Note_on_c, 10, 71, 92
9, 80088, Note_on_c, 10, 71, 0
9, 80088, Note_on_c, 10, 69, 92
9, 80112, Note_on_c, 10, 69, 0
9, 80112, Note_on_c, 10, 71, 92
9, 80136, Note_on_c, 10, 71, 0
9, 80136, Note_on_c, 10, 69, 92
9, 80160, Note_on_c, 10, 69, 0
9, 80160, Note_on_c, 10, 71, 92
9, 80184, Note_on_c, 10, 71, 0
9, 80184, Note_on_c, 10, 69, 92
9, 80208, Note_on_c, 10, 69, 0
9, 80208, Note_on_c, 10, 68, 92
9, 80232, Note_on_c, 10, 68, 0
9, 80232, Note_on_c, 10, 69, 92
9, 80254, Note_on_c, 10, 69, 0
9, 80256, Note_on_c, 10, 73, 92
9, 80288, Note_on_c, 10, 73, 0
9, 80352, Note_on_c, 10, 69, 92
9, 80384, Note_on_c, 10, 69, 0
9, 80448, Note_on_c, 10, 64, 92
9, 80480, Note_on_c, 10, 64, 0
9, 80544, Note_on_c, 10, 61, 92
9, 80576, Note_on_c, 10, 61, 0
9, 80640, Note_on_c, 10, 57, 92
9, 80800, Note_on_c, 10, 57, 0
9, 81408, Note_on_c, 10, 57, 45
9, 81502, Note_on_c, 10, 57, 0
9, 81504, Note_on_c, 10, 57, 45
9, 81598, Note_on_c, 10, 57, 0
9, 81600, Note_on_c, 10, 57, 45
9, 81694, Note_on_c, 10, 57, 0
9, 81696, Note_on_c, 10, 57, 45
9, 81790, Note_on_c, 10, 57, 0
9, 81792, Note_on_c, 10, 57, 45
9, 81886, Note_on_c, 10, 57, 0
9, 81888, Note_on_c, 10, 57, 45
9, 81982, Note_on_c, 10, 57, 0
9, 81984, Note_on_c, 10, 57, 45
9, 82078, Note_on_c, 10, 57, 0
9, 82080, Note_on_c, 10, 57, 45
9, 82174, Note_on_c, 10, 57, 0
9, 82176, Note_on_c, 10, 59, 45
9, 82270, Note_on_c, 10, 59, 0
9, 82272, Note_on_c, 10, 59, 45
9, 82366, Note_on_c, 10, 59, 0
9, 82368, Note_on_c, 10, 59, 45
9, 82462, Note_on_c, 10, 59, 0
9, 82464, Note_on_c, 10, 59, 45
9, 82558, Note_on_c, 10, 59, 0
9, 82560, Note_on_c, 10, 59, 45
9, 82654, Note_on_c, 10, 59, 0
9, 82656, Note_on_c, 10, 59, 45
9, 82750, Note_on_c, 10, 59, 0
9, 82752, Note_on_c, 10, 59, 45
9, 82846, Note_on_c, 10, 59, 0
9, 82848, Note_on_c, 10, 59, 45
9, 82942, Note_on_c, 10, 59, 0
9, 82944, Note_on_c, 10, 64, 45
9, 83038, Note_on_c, 10, 64, 0
9, 83040, Note_on_c, 10, 64, 45
9, 83134, Note_on_c, 10, 64, 0
9, 83136, Note_on_c, 10, 64, 45
9, 83230, Note_on_c, 10, 64, 0
9, 83232, Note_on_c, 10, 64, 45
9, 83326, Note_on_c, 10, 64, 0
9, 83328, Note_on_c, 10, 64, 45
9, 83422, Note_on_c, 10, 64, 0
9, 83424, Note_on_c, 10, 64, 45
9, 83518, Note_on_c, 10, 64, 0
9, 83520, Note_on_c, 10, 64, 45
9, 83614, Note_on_c, 10, 64, 0
9, 83616, Note_on_c, 10, 64, 45
9, 83710, Note_on_c, 10, 64, 0
9, 83712, Note_on_c, 10, 64, 45
9, 83806, Note_on_c, 10, 64, 0
9, 83808, Note_on_c, 10, 64, 45
9, 83902, Note_on_c, 10, 64, 0
9, 83904, Note_on_c, 10, 64, 45
9, 83998, Note_on_c, 10, 64, 0
9, 84000, Note_on_c, 10, 64, 45
9, 84094, Note_on_c, 10, 64, 0
9, 84096, Note_on_c, 10, 64, 45
9, 84190, Note_on_c, 10, 64, 0
9, 84192, Note_on_c, 10, 64, 45
9, 84286, Note_on_c, 10, 64, 0
9, 84288, Note_on_c, 10, 64, 45
9, 84382, Note_on_c, 10, 64, 0
9, 84384, Note_on_c, 10, 64, 45
9, 84478, Note_on_c, 10, 64, 0
9, 84480, Note_on_c, 10, 62, 45
9, 84574, Note_on_c, 10, 62, 0
9, 84576, Note_on_c, 10, 62, 45
9, 84670, Note_on_c, 10, 62, 0
9, 84672, Note_on_c, 10, 62, 45
9, 84766, Note_on_c, 10, 62, 0
9, 84768, Note_on_c, 10, 62, 45
9, 84862, Note_on_c, 10, 62, 0
9, 84864, Note_on_c, 10, 62, 45
9, 84958, Note_on_c, 10, 62, 0
9, 84960, Note_on_c, 10, 62, 45
9, 85054, Note_on_c, 10, 62, 0
9, 85056, Note_on_c, 10, 62, 45
9, 85150, Note_on_c, 10, 62, 0
9, 85152, Note_on_c, 10, 62, 45
9, 85246, Note_on_c, 10, 62, 0
9, 85248, Note_on_c, 10, 57, 45
9, 85342, Note_on_c, 10, 57, 0
9, 85344, Note_on_c, 10, 57, 45
9, 85438, Note_on_c, 10, 57, 0
9, 85440, Note_on_c, 10, 57, 45
9, 85534, Note_on_c, 10, 57, 0
9, 85536, Note_on_c, 10, 57, 45
9, 85630, Note_on_c, 10, 57, 0
9, 85632, Note_on_c, 10, 57, 45
9, 85726, Note_on_c, 10, 57, 0
9, 85728, Note_on_c, 10, 57, 45
9, 85822, Note_on_c, 10, 57, 0
9, 85824, Note_on_c, 10, 57, 45
9, 85918, Note_on_c, 10, 57, 0
9, 85920, Note_on_c, 10, 57, 45
9, 86014, Note_on_c, 10, 57, 0
9, 86016, Note_on_c, 10, 56, 45
9, 86110, Note_on_c, 10, 56, 0
9, 86112, Note_on_c, 10, 56, 45
9, 86206, Note_on_c, 10, 56, 0
9, 86208, Note_on_c, 10, 56, 45
9, 86302, Note_on_c, 10, 56, 0
9, 86304, Note_on_c, 10, 56, 45
9, 86398, Note_on_c, 10, 56, 0
9, 86400, Note_on_c, 10, 56, 45
9, 86494, Note_on_c, 10, 56, 0
9, 86496, Note_on_c, 10, 56, 45
9, 86590, Note_on_c, 10, 56, 0
9, 86592, Note_on_c, 10, 56, 45
9, 86686, Note_on_c, 10, 56, 0
9, 86688, Note_on_c, 10, 56, 45
9, 86782, Note_on_c, 10, 56, 0
9, 86784, Note_on_c, 10, 57, 45
9, 86944, Note_on_c, 10, 57, 0
9, 87456, Note_on_c, 10, 65, 45
9, 87552, Note_on_c, 10, 65, 0
9, 87552, Note_on_c, 10, 64, 45
9, 87712, Note_on_c, 10, 64, 0
9, 88224, Note_on_c, 10, 65, 45
9, 88320, Note_on_c, 10, 65, 0
9, 88320, Note_on_c, 10, 64, 45
9, 88480, Note_on_c, 10, 64, 0
9, 89856, Note_on_c, 10, 69, 45
9, 89950, Note_on_c, 10, 69, 0
9, 89952, Note_on_c, 10, 69, 45
9, 90046, Note_on_c, 10, 69, 0
9, 90048, Note_on_c, 10, 69, 45
9, 90142, Note_on_c, 10, 69, 0
9, 90144, Note_on_c, 10, 69, 45
9, 90238, Note_on_c, 10, 69, 0
9, 90240, Note_on_c, 10, 69, 45
9, 90334, Note_on_c, 10, 69, 0
9, 90336, Note_on_c, 10, 69, 45
9, 90430, Note_on_c, 10, 69, 0
9, 90432, Note_on_c, 10, 69, 45
9, 90526, Note_on_c, 10, 69, 0
9, 90528, Note_on_c, 10, 69, 45
9, 90622, Note_on_c, 10, 69, 0
9, 90624, Note_on_c, 10, 69, 45
9, 90718, Note_on_c, 10, 69, 0
9, 90720, Note_on_c, 10, 69, 45
9, 90814, Note_on_c, 10, 69, 0
9, 90816, Note_on_c, 10, 69, 45
9, 90910, Note_on_c, 10, 69, 0
9, 90912, Note_on_c, 10, 69, 45
9, 91006, Note_on_c, 10, 69, 0
9, 91008, Note_on_c, 10, 69, 45
9, 91102, Note_on_c, 10, 69, 0
9, 91104, Note_on_c, 10, 69, 45
9, 91198, Note_on_c, 10, 69, 0
9, 91200, Note_on_c, 10, 69, 45
9, 91294, Note_on_c, 10, 69, 0
9, 91296, Note_on_c, 10, 69, 45
9, 91390, Note_on_c, 10, 69, 0
9, 91392, Note_on_c, 10, 50, 92
9, 91392, Note_on_c, 10, 62, 92
9, 91486, Note_on_c, 10, 50, 0
9, 91486, Note_on_c, 10, 62, 0
9, 91488, Note_on_c, 10, 50, 92
9, 91488, Note_on_c, 10, 62, 92
9, 91582, Note_on_c, 10, 50, 0
9, 91582, Note_on_c, 10, 62, 0
9, 91584, Note_on_c, 10, 50, 92
9, 91584, Note_on_c, 10, 62, 92
9, 91678, Note_on_c, 10, 50, 0
9, 91678, Note_on_c, 10, 62, 0
9, 91680, Note_on_c, 10, 50, 92
9, 91680, Note_on_c, 10, 62, 92
9, 91774, Note_on_c, 10, 50, 0
9, 91774, Note_on_c, 10, 62, 0
9, 91776, Note_on_c, 10, 50, 92
9, 91776, Note_on_c, 10, 62, 92
9, 91870, Note_on_c, 10, 50, 0
9, 91870, Note_on_c, 10, 62, 0
9, 91872, Note_on_c, 10, 50, 92
9, 91872, Note_on_c, 10, 62, 92
9, 91966, Note_on_c, 10, 50, 0
9, 91966, Note_on_c, 10, 62, 0
9, 91968, Note_on_c, 10, 50, 92
9, 91968, Note_on_c, 10, 62, 92
9, 92062, Note_on_c, 10, 50, 0
9, 92062, Note_on_c, 10, 62, 0
9, 92064, Note_on_c, 10, 50, 92
9, 92064, Note_on_c, 10, 62, 92
9, 92158, Note_on_c, 10, 50, 0
9, 92158, Note_on_c, 10, 62, 0
9, 92160, Note_on_c, 10, 50, 92
9, 92160, Note_on_c, 10, 62, 92
9, 92254, Note_on_c, 10, 50, 0
9, 92254, Note_on_c, 10, 62, 0
9, 92256, Note_on_c, 10, 50, 92
9, 92256, Note_on_c, 10, 62, 92
9, 92350, Note_on_c, 10, 50, 0
9, 92350, Note_on_c, 10, 62, 0
9, 92352, Note_on_c, 10, 50, 92
9, 92352, Note_on_c, 10, 62, 92
9, 92446, Note_on_c, 10, 50, 0
9, 92446, Note_on_c, 10, 62, 0
9, 92448, Note_on_c, 10, 50, 92
9, 92448, Note_on_c, 10, 62, 92
9, 92542, Note_on_c, 10, 50, 0
9, 92542, Note_on_c, 10, 62, 0
9, 92544, Note_on_c, 10, 50, 92
9, 92544, Note_on_c, 10, 62, 92
9, 92638, Note_on_c, 10, 50, 0
9, 92638, Note_on_c, 10, 62, 0
9, 92640, Note_on_c, 10, 50, 92
9, 92640, Note_on_c, 10, 62, 92
9, 92734, Note_on_c, 10, 50, 0
9, 92734, Note_on_c, 10, 62, 0
9, 92736, Note_on_c, 10, 50, 92
9, 92736, Note_on_c, 10, 62, 92
9, 92830, Note_on_c, 10, 50, 0
9, 92830, Note_on_c, 10, 62, 0
9, 92832, Note_on_c, 10, 50, 92
9, 92832, Note_on_c, 10, 62, 92
9, 92926, Note_on_c, 10, 50, 0
9, 92926, Note_on_c, 10, 62, 0
9, 92928, Note_on_c, 10, 50, 45
9, 92928, Note_on_c, 10, 62, 45
9, 93022, Note_on_c, 10, 50, 0
9, 93022, Note_on_c, 10, 62, 0
9, 93024, Note_on_c, 10, 50, 45
9, 93024, Note_on_c, 10, 62, 45
9, 93118, Note_on_c, 10, 50, 0
9, 93118, Note_on_c, 10, 62, 0
9, 93120, Note_on_c, 10, 50, 45
9, 93120, Note_on_c, 10, 62, 45
9, 93214, Note_on_c, 10, 50, 0
9, 93214, Note_on_c, 10, 62, 0
9, 93216, Note_on_c, 10, 50, 45
9, 93216, Note_on_c, 10, 62, 45
9, 93310, Note_on_c, 10, 50, 0
9, 93310, Note_on_c, 10, 62, 0
9, 93312, Note_on_c, 10, 62, 45
9, 93472, Note_on_c, 10, 62, 0
9, 93504, Note_on_c, 10, 61, 45
9, 93552, Note_on_c, 10, 61, 0
9, 93552, Note_on_c, 10, 62, 45
9, 93598, Note_on_c, 10, 62, 0
9, 93600, Note_on_c, 10, 61, 45
9, 93648, Note_on_c, 10, 61, 0
9, 93648, Note_on_c, 10, 62, 45
9, 93694, Note_on_c, 10, 62, 0
9, 93696, Note_on_c, 10, 71, 45
9, 93856, Note_on_c, 10, 71, 0
9, 93888, Note_on_c, 10, 67, 45
9, 94030, Note_on_c, 10, 67, 0
9, 94032, Note_on_c, 10, 69, 45
9, 94078, Note_on_c, 10, 69, 0
9, 94080, Note_on_c, 10, 71, 45
9, 94240, Note_on_c, 10, 71, 0
9, 94272, Note_on_c, 10, 73, 45
9, 94432, Note_on_c, 10, 73, 0
9, 94464, Note_on_c, 10, 74, 45
9, 94496, Note_on_c, 10, 74, 0
9, 94560, Note_on_c, 10, 66, 45
9, 94656, Note_on_c, 10, 66, 0
9, 94656, Note_on_c, 10, 69, 45
9, 94752, Note_on_c, 10, 69, 0
9, 94752, Note_on_c, 10, 66, 45
9, 94846, Note_on_c, 10, 66, 0
9, 94944, Note_on_c, 10, 63, 45
9, 94976, Note_on_c, 10, 63, 0
9, 95040, Note_on_c, 10, 63, 45
9, 95072, Note_on_c, 10, 63, 0
9, 95136, Note_on_c, 10, 63, 45
9, 95168, Note_on_c, 10, 63, 0
9, 95328, Note_on_c, 10, 64, 45
9, 95422, Note_on_c, 10, 64, 0
9, 95424, Note_on_c, 10, 64, 45
9, 95518, Note_on_c, 10, 64, 0
9, 95520, Note_on_c, 10, 64, 45
9, 95614, Note_on_c, 10, 64, 0
9, 95712, Note_on_c, 10, 72, 45
9, 95806, Note_on_c, 10, 72, 0
9, 95808, Note_on_c, 10, 72, 45
9, 95902, Note_on_c, 10, 72, 0
9, 95904, Note_on_c, 10, 72, 45
9, 95998, Note_on_c, 10, 72, 0
9, 96096, Note_on_c, 10, 71, 45
9, 96192, Note_on_c, 10, 71, 0
9, 96192, Note_on_c, 10, 67, 45
9, 96288, Note_on_c, 10, 67, 0
9, 96288, Note_on_c, 10, 64, 45
9, 96382, Note_on_c, 10, 64, 0
9, 96480, Note_on_c, 10, 57, 45
9, 96574, Note_on_c, 10, 57, 0
9, 96576, Note_on_c, 10, 57, 45
9, 96670, Note_on_c, 10, 57, 0
9, 96672, Note_on_c, 10, 57, 45
9, 96766, Note_on_c, 10, 57, 0
9, 96864, Note_on_c, 10, 59, 45
9, 96958, Note_on_c, 10, 59, 0
9, 96960, Note_on_c, 10, 59, 45
9, 97054, Note_on_c, 10, 59, 0
9, 97056, Note_on_c, 10, 59, 45
9, 97150, Note_on_c, 10, 59, 0
9, 97152, Note_on_c, 10, 59, 45
9, 97246, Note_on_c, 10, 59, 0
9, 97248, Note_on_c, 10, 59, 45
9, 97342, Note_on_c, 10, 59, 0
9, 97344, Note_on_c, 10, 59, 45
9, 97438, Note_on_c, 10, 59, 0
9, 97440, Note_on_c, 10, 59, 45
9, 97534, Note_on_c, 10, 59, 0
9, 97632, Note_on_c, 10, 59, 45
9, 97726, Note_on_c, 10, 59, 0
9, 97728, Note_on_c, 10, 55, 45
9, 97822, Note_on_c, 10, 55, 0
9, 97824, Note_on_c, 10, 52, 45
9, 97918, Note_on_c, 10, 52, 0
9, 98016, Note_on_c, 10, 61, 45
9, 98110, Note_on_c, 10, 61, 0
9, 98112, Note_on_c, 10, 61, 45
9, 98206, Note_on_c, 10, 61, 0
9, 98208, Note_on_c, 10, 61, 45
9, 98302, Note_on_c, 10, 61, 0
9, 98400, Note_on_c, 10, 62, 45
9, 98494, Note_on_c, 10, 62, 0
9, 98496, Note_on_c, 10, 62, 45
9, 98590, Note_on_c, 10, 62, 0
9, 98592, Note_on_c, 10, 62, 45
9, 98686, Note_on_c, 10, 62, 0
9, 98784, Note_on_c, 10, 57, 45
9, 98878, Note_on_c, 10, 57, 0
9, 98880, Note_on_c, 10, 57, 45
9, 98974, Note_on_c, 10, 57, 0
9, 98976, Note_on_c, 10, 57, 45
9, 99070, Note_on_c, 10, 57, 0
9, 99168, Note_on_c, 10, 59, 45
9, 99262, Note_on_c, 10, 59, 0
9, 99264, Note_on_c, 10, 59, 45
9, 99358, Note_on_c, 10, 59, 0
9, 99360, Note_on_c, 10, 59, 45
9, 99454, Note_on_c, 10, 59, 0
9, 99552, Note_on_c, 10, 67, 45
9, 99646, Note_on_c, 10, 67, 0
9, 99648, Note_on_c, 10, 67, 45
9, 99742, Note_on_c, 10, 67, 0
9, 99744, Note_on_c, 10, 67, 45
9, 99838, Note_on_c, 10, 67, 0
9, 99840, Note_on_c, 10, 69, 45
9, 100176, Note_on_c, 10, 69, 0
9, 100224, Note_on_c, 10, 57, 45
9, 100560, Note_on_c, 10, 57, 0
9, 100608, Note_on_c, 10, 57, 45
9, 100768, Note_on_c, 10, 57, 0
9, 103776, Note_on_c, 10, 69, 45
9, 103872, Note_on_c, 10, 69, 0
9, 103872, Note_on_c, 10, 68, 45
9, 103968, Note_on_c, 10, 68, 0
9, 103968, Note_on_c, 10, 69, 45
9, 104062, Note_on_c, 10, 69, 0
9, 104064, Note_on_c, 10, 57, 45
9, 104096, Note_on_c, 10, 57, 0
9, 104160, Note_on_c, 10, 61, 45
9, 104192, Note_on_c, 10, 61, 0
9, 104256, Note_on_c, 10, 64, 45
9, 104288, Note_on_c, 10, 64, 0
9, 104352, Note_on_c, 10, 61, 45
9, 104384, Note_on_c, 10, 61, 0
9, 104448, Note_on_c, 10, 57, 45
9, 104608, Note_on_c, 10, 57, 0
9, 105312, Note_on_c, 10, 57, 45
9, 105406, Note_on_c, 10, 57, 0
9, 105408, Note_on_c, 10, 57, 45
9, 105502, Note_on_c, 10, 57, 0
9, 105504, Note_on_c, 10, 57, 45
9, 105598, Note_on_c, 10, 57, 0
9, 105600, Note_on_c, 10, 57, 45
9, 105694, Note_on_c, 10, 57, 0
9, 105696, Note_on_c, 10, 57, 45
9, 105790, Note_on_c, 10, 57, 0
9, 105792, Note_on_c, 10, 57, 45
9, 105886, Note_on_c, 10, 57, 0
9, 105888, Note_on_c, 10, 57, 45
9, 105982, Note_on_c, 10, 57, 0
9, 105984, Note_on_c, 10, 57, 45
9, 106144, Note_on_c, 10, 57, 0
9, 106848, Note_on_c, 10, 57, 45
9, 106942, Note_on_c, 10, 57, 0
9, 106944, Note_on_c, 10, 57, 45
9, 107038, Note_on_c, 10, 57, 0
9, 107040, Note_on_c, 10, 57, 45
9, 107134, Note_on_c, 10, 57, 0
9, 107136, Note_on_c, 10, 57, 45
9, 107230, Note_on_c, 10, 57, 0
9, 107232, Note_on_c, 10, 57, 45
9, 107326, Note_on_c, 10, 57, 0
9, 107328, Note_on_c, 10, 57, 45
9, 107422, Note_on_c, 10, 57, 0
9, 107424, Note_on_c, 10, 57, 45
9, 107518, Note_on_c, 10, 57, 0
9, 107520, Note_on_c, 10, 57, 45
9, 107680, Note_on_c, 10, 57, 0
9, 108384, Note_on_c, 10, 57, 45
9, 108478, Note_on_c, 10, 57, 0
9, 108480, Note_on_c, 10, 57, 45
9, 108574, Note_on_c, 10, 57, 0
9, 108576, Note_on_c, 10, 57, 45
9, 108670, Note_on_c, 10, 57, 0
9, 108672, Note_on_c, 10, 57, 45
9, 108766, Note_on_c, 10, 57, 0
9, 108768, Note_on_c, 10, 57, 45
9, 108862, Note_on_c, 10, 57, 0
9, 108864, Note_on_c, 10, 57, 45
9, 108958, Note_on_c, 10, 57, 0
9, 108960, Note_on_c, 10, 57, 45
9, 109054, Note_on_c, 10, 57, 0
9, 109056, Note_on_c, 10, 57, 45
9, 109248, Note_on_c, 10, 57, 0
9, 109248, Note_on_c, 10, 50, 45
9, 109408, Note_on_c, 10, 50, 0
9, 109824, Note_on_c, 10, 71, 45
9, 110016, Note_on_c, 10, 71, 0
9, 110016, Note_on_c, 10, 62, 45
9, 110176, Note_on_c, 10, 62, 0
9, 110592, Note_on_c, 10, 60, 45
9, 110784, Note_on_c, 10, 60, 0
9, 110784, Note_on_c, 10, 50, 45
9, 110944, Note_on_c, 10, 50, 0
9, 111360, Note_on_c, 10, 55, 45
9, 111744, Note_on_c, 10, 55, 0
9, 111744, Note_on_c, 10, 57, 45
9, 112080, Note_on_c, 10, 57, 0
9, 112128, Note_on_c, 10, 58, 92
9, 112222, Note_on_c, 10, 58, 0
9, 112224, Note_on_c, 10, 62, 45
9, 112318, Note_on_c, 10, 62, 0
9, 112320, Note_on_c, 10, 62, 45
9, 112414, Note_on_c, 10, 62, 0
9, 112416, Note_on_c, 10, 62, 45
9, 112510, Note_on_c, 10, 62, 0
9, 112512, Note_on_c, 10, 62, 45
9, 112606, Note_on_c, 10, 62, 0
9, 112608, Note_on_c, 10, 62, 45
9, 112702, Note_on_c, 10, 62, 0
9, 112704, Note_on_c, 10, 62, 45
9, 112798, Note_on_c, 10, 62, 0
9, 112800, Note_on_c, 10, 62, 45
9, 112894, Note_on_c, 10, 62, 0
9, 112992, Note_on_c, 10, 57, 45
9, 113086, Note_on_c, 10, 57, 0
9, 113088, Note_on_c, 10, 69, 45
9, 113182, Note_on_c, 10, 69, 0
9, 113184, Note_on_c, 10, 69, 45
9, 113278, Note_on_c, 10, 69, 0
9, 113376, Note_on_c, 10, 67, 45
9, 113470, Note_on_c, 10, 67, 0
9, 113472, Note_on_c, 10, 67, 45
9, 113566, Note_on_c, 10, 67, 0
9, 113568, Note_on_c, 10, 67, 45
9, 113662, Note_on_c, 10, 67, 0
9, 113760, Note_on_c, 10, 66, 45
9, 113854, Note_on_c, 10, 66, 0
9, 113952, Note_on_c, 10, 66, 45
9, 114046, Note_on_c, 10, 66, 0
9, 114144, Note_on_c, 10, 67, 45
9, 114238, Note_on_c, 10, 67, 0
9, 114336, Note_on_c, 10, 64, 45
9, 114430, Note_on_c, 10, 64, 0
9, 114432, Note_on_c, 10, 69, 45
9, 114526, Note_on_c, 10, 69, 0
9, 114528, Note_on_c, 10, 69, 45
9, 114622, Note_on_c, 10, 69, 0
9, 114624, Note_on_c, 10, 69, 45
9, 114718, Note_on_c, 10, 69, 0
9, 114720, Note_on_c, 10, 69, 45
9, 114814, Note_on_c, 10, 69, 0
9, 114816, Note_on_c, 10, 57, 45
9, 114910, Note_on_c, 10, 57, 0
9, 114912, Note_on_c, 10, 57, 45
9, 115006, Note_on_c, 10, 57, 0
9, 115008, Note_on_c, 10, 57, 45
9, 115102, Note_on_c, 10, 57, 0
9, 115104, Note_on_c, 10, 57, 45
9, 115198, Note_on_c, 10, 57, 0
9, 115200, Note_on_c, 10, 59, 92
9, 115294, Note_on_c, 10, 59, 0
9, 115296, Note_on_c, 10, 59, 92
9, 115390, Note_on_c, 10, 59, 0
9, 115392, Note_on_c, 10, 59, 92
9, 115486, Note_on_c, 10, 59, 0
9, 115488, Note_on_c, 10, 59, 92
9, 115582, Note_on_c, 10, 59, 0
9, 115584, Note_on_c, 10, 59, 92
9, 115678, Note_on_c, 10, 59, 0
9, 115680, Note_on_c, 10, 59, 92
9, 115774, Note_on_c, 10, 59, 0
9, 115776, Note_on_c, 10, 62, 92
9, 115870, Note_on_c, 10, 62, 0
9, 115872, Note_on_c, 10, 62, 92
9, 115966, Note_on_c, 10, 62, 0
9, 115968, Note_on_c, 10, 64, 92
9, 116128, Note_on_c, 10, 64, 0
9, 116160, Note_on_c, 10, 69, 92
9, 116320, Note_on_c, 10, 69, 0
9, 116352, Note_on_c, 10, 57, 92
9, 116512, Note_on_c, 10, 57, 0
9, 117504, Note_on_c, 10, 50, 45
9, 117504, Note_on_c, 10, 62, 45
9, 118992, Note_on_c, 10, 50, 0
9, 118992, Note_on_c, 10, 62, 0
9, 119040, Note_on_c, 10, 74, 45
9, 120736, Note_on_c, 10, 74, 0
9, 123648, Note_on_c, 10, 62, 45
9, 124032, Note_on_c, 10, 62, 0
9, 124032, Note_on_c, 10, 61, 45
9, 124368, Note_on_c, 10, 61, 0
9, 124416, Note_on_c, 10, 60, 45
9, 124800, Note_on_c, 10, 60, 0
9, 124800, Note_on_c, 10, 59, 45
9, 125136, Note_on_c, 10, 59, 0
9, 125184, Note_on_c, 10, 54, 45
9, 125344, Note_on_c, 10, 54, 0
9, 125952, Note_on_c, 10, 55, 45
9, 126112, Note_on_c, 10, 55, 0
9, 127488, Note_on_c, 10, 66, 45
9, 127648, Note_on_c, 10, 66, 0
9, 127968, Note_on_c, 10, 66, 45
9, 128062, Note_on_c, 10, 66, 0
9, 128064, Note_on_c, 10, 66, 45
9, 128158, Note_on_c, 10, 66, 0
9, 128160, Note_on_c, 10, 66, 45
9, 128254, Note_on_c, 10, 66, 0
9, 128256, Note_on_c, 10, 64, 45
9, 128416, Note_on_c, 10, 64, 0
9, 128736, Note_on_c, 10, 64, 45
9, 128830, Note_on_c, 10, 64, 0
9, 128832, Note_on_c, 10, 64, 45
9, 128926, Note_on_c, 10, 64, 0
9, 128928, Note_on_c, 10, 64, 45
9, 129022, Note_on_c, 10, 64, 0
9, 129024, Note_on_c, 10, 66, 45
9, 129120, Note_on_c, 10, 66, 0
9, 129120, Note_on_c, 10, 69, 45
9, 129214, Note_on_c, 10, 69, 0
9, 129216, Note_on_c, 10, 69, 45
9, 129248, Note_on_c, 10, 69, 0
9, 129312, Note_on_c, 10, 69, 45
9, 129344, Note_on_c, 10, 69, 0
9, 129408, Note_on_c, 10, 69, 45
9, 129502, Note_on_c, 10, 69, 0
9, 129504, Note_on_c, 10, 69, 45
9, 129598, Note_on_c, 10, 69, 0
9, 129600, Note_on_c, 10, 69, 45
9, 129694, Note_on_c, 10, 69, 0
9, 129696, Note_on_c, 10, 69, 45
9, 129790, Note_on_c, 10, 69, 0
9, 129792, Note_on_c, 10, 69, 45
9, 129952, Note_on_c, 10, 69, 0
9, 130272, Note_on_c, 10, 66, 45
9, 130366, Note_on_c, 10, 66, 0
9, 130368, Note_on_c, 10, 66, 45
9, 130462, Note_on_c, 10, 66, 0
9, 130464, Note_on_c, 10, 66, 45
9, 130558, Note_on_c, 10, 66, 0
9, 130560, Note_on_c, 10, 64, 45
9, 130720, Note_on_c, 10, 64, 0
9, 131040, Note_on_c, 10, 64, 45
9, 131134, Note_on_c, 10, 64, 0
9, 131136, Note_on_c, 10, 64, 45
9, 131230, Note_on_c, 10, 64, 0
9, 131232, Note_on_c, 10, 64, 45
9, 131326, Note_on_c, 10, 64, 0
9, 131328, Note_on_c, 10, 69, 45
9, 131422, Note_on_c, 10, 69, 0
9, 131424, Note_on_c, 10, 69, 45
9, 131518, Note_on_c, 10, 69, 0
9, 131520, Note_on_c, 10, 69, 45
9, 131614, Note_on_c, 10, 69, 0
9, 131616, Note_on_c, 10, 69, 45
9, 131710, Note_on_c, 10, 69, 0
9, 131712, Note_on_c, 10, 69, 45
9, 131806, Note_on_c, 10, 69, 0
9, 131808, Note_on_c, 10, 69, 45
9, 131902, Note_on_c, 10, 69, 0
9, 131904, Note_on_c, 10, 69, 45
9, 131998, Note_on_c, 10, 69, 0
9, 132000, Note_on_c, 10, 69, 45
9, 132094, Note_on_c, 10, 69, 0
9, 132096, Note_on_c, 10, 69, 45
9, 132142, Note_on_c, 10, 69, 0
9, 132144, Note_on_c, 10, 69, 45
9, 132190, Note_on_c, 10, 69, 0
9, 132192, Note_on_c, 10, 69, 45
9, 132238, Note_on_c, 10, 69, 0
9, 132240, Note_on_c, 10, 69, 45
9, 132286, Note_on_c, 10, 69, 0
9, 132288, Note_on_c, 10, 69, 45
9, 132334, Note_on_c, 10, 69, 0
9, 132336, Note_on_c, 10, 69, 48
9, 132382, Note_on_c, 10, 69, 0
9, 132384, Note_on_c, 10, 69, 52
9, 132430, Note_on_c, 10, 69, 0
9, 132432, Note_on_c, 10, 69, 56
9, 132478, Note_on_c, 10, 69, 0
9, 132480, Note_on_c, 10, 69, 60
9, 132526, Note_on_c, 10, 69, 0
9, 132528, Note_on_c, 10, 69, 64
9, 132574, Note_on_c, 10, 69, 0
9, 132576, Note_on_c, 10, 69, 68
9, 132622, Note_on_c, 10, 69, 0
9, 132624, Note_on_c, 10, 69, 72
9, 132670, Note_on_c, 10, 69, 0
9, 132672, Note_on_c, 10, 69, 76
9, 132718, Note_on_c, 10, 69, 0
9, 132720, Note_on_c, 10, 69, 80
9, 132766, Note_on_c, 10, 69, 0
9, 132768, Note_on_c, 10, 69, 84
9, 132814, Note_on_c, 10, 69, 0
9, 132816, Note_on_c, 10, 69, 88
9, 132862, Note_on_c, 10, 69, 0
9, 132864, Note_on_c, 10, 69, 92
9, 132960, Note_on_c, 10, 69, 0
9, 132960, Note_on_c, 10, 66, 92
9, 133054, Note_on_c, 10, 66, 0
9, 133056, Note_on_c, 10, 62, 92
9, 133088, Note_on_c, 10, 62, 0
9, 133152, Note_on_c, 10, 62, 92
9, 133184, Note_on_c, 10, 62, 0
9, 133248, Note_on_c, 10, 62, 92
9, 133342, Note_on_c, 10, 62, 0
9, 133344, Note_on_c, 10, 69, 92
9, 133504, Note_on_c, 10, 69, 0
9, 133536, Note_on_c, 10, 69, 92
9, 133630, Note_on_c, 10, 69, 0
9, 133632, Note_on_c, 10, 67, 92
9, 133728, Note_on_c, 10, 67, 0
9, 133728, Note_on_c, 10, 71, 92
9, 133822, Note_on_c, 10, 71, 0
9, 133824, Note_on_c, 10, 69, 92
9, 133918, Note_on_c, 10, 69, 0
9, 133920, Note_on_c, 10, 69, 92
9, 134014, Note_on_c, 10, 69, 0
9, 134016, Note_on_c, 10, 69, 92
9, 134110, Note_on_c, 10, 69, 0
9, 134112, Note_on_c, 10, 69, 92
9, 134272, Note_on_c, 10, 69, 0
9, 134304, Note_on_c, 10, 69, 92
9, 134398, Note_on_c, 10, 69, 0
9, 134400, Note_on_c, 10, 66, 92
9, 134496, Note_on_c, 10, 66, 0
9, 134496, Note_on_c, 10, 69, 92
9, 134590, Note_on_c, 10, 69, 0
9, 134592, Note_on_c, 10, 67, 92
9, 134686, Note_on_c, 10, 67, 0
9, 134688, Note_on_c, 10, 67, 92
9, 134848, Note_on_c, 10, 67, 0
9, 134880, Note_on_c, 10, 67, 92
9, 135040, Note_on_c, 10, 67, 0
9, 135072, Note_on_c, 10, 67, 92
9, 135166, Note_on_c, 10, 67, 0
9, 135168, Note_on_c, 10, 68, 92
9, 135200, Note_on_c, 10, 68, 0
9, 135264, Note_on_c, 10, 74, 92
9, 135296, Note_on_c, 10, 74, 0
9, 135360, Note_on_c, 10, 76, 92
9, 135384, Note_on_c, 10, 76, 0
9, 135384, Note_on_c, 10, 74, 92
9, 135408, Note_on_c, 10, 74, 0
9, 135408, Note_on_c, 10, 76, 92
9, 135432, Note_on_c, 10, 76, 0
9, 135432, Note_on_c, 10, 74, 92
9, 135456, Note_on_c, 10, 74, 0
9, 135456, Note_on_c, 10, 76, 92
9, 135480, Note_on_c, 10, 76, 0
9, 135480, Note_on_c, 10, 74, 92
9, 135504, Note_on_c, 10, 74, 0
9, 135504, Note_on_c, 10, 73, 92
9, 135528, Note_on_c, 10, 73, 0
9, 135528, Note_on_c, 10, 74, 92
9, 135550, Note_on_c, 10, 74, 0
9, 135552, Note_on_c, 10, 78, 92
9, 135584, Note_on_c, 10, 78, 0
9, 135648, Note_on_c, 10, 74, 92
9, 135680, Note_on_c, 10, 74, 0
9, 135744, Note_on_c, 10, 71, 92
9, 135776, Note_on_c, 10, 71, 0
9, 135840, Note_on_c, 10, 68, 92
9, 135872, Note_on_c, 10, 68, 0
9, 135936, Note_on_c, 10, 57, 92
9, 135936, Note_on_c, 10, 69, 92
9, 136272, Note_on_c, 10, 57, 0
9, 136272, Note_on_c, 10, 69, 0
9, 165888, Note_on_c, 10, 66, 92
9, 165982, Note_on_c, 10, 66, 0
9, 165984, Note_on_c, 10, 69, 92
9, 166078, Note_on_c, 10, 69, 0
9, 166080, Note_on_c, 10, 66, 92
9, 166174, Note_on_c, 10, 66, 0
9, 166176, Note_on_c, 10, 69, 92
9, 166270, Note_on_c, 10, 69, 0
9, 166272, Note_on_c, 10, 66, 92
9, 166366, Note_on_c, 10, 66, 0
9, 166368, Note_on_c, 10, 69, 92
9, 166462, Note_on_c, 10, 69, 0
9, 166464, Note_on_c, 10, 66, 92
9, 166558, Note_on_c, 10, 66, 0
9, 166560, Note_on_c, 10, 69, 92
9, 166654, Note_on_c, 10, 69, 0
9, 166656, Note_on_c, 10, 62, 92
9, 166750, Note_on_c, 10, 62, 0
9, 166752, Note_on_c, 10, 62, 92
9, 166846, Note_on_c, 10, 62, 0
9, 166848, Note_on_c, 10, 62, 92
9, 166942, Note_on_c, 10, 62, 0
9, 166944, Note_on_c, 10, 62, 92
9, 167038, Note_on_c, 10, 62, 0
9, 167040, Note_on_c, 10, 71, 92
9, 167134, Note_on_c, 10, 71, 0
9, 167136, Note_on_c, 10, 71, 92
9, 167230, Note_on_c, 10, 71, 0
9, 167232, Note_on_c, 10, 71, 92
9, 167326, Note_on_c, 10, 71, 0
9, 167328, Note_on_c, 10, 71, 92
9, 167422, Note_on_c, 10, 71, 0
9, 167424, Note_on_c, 10, 69, 92
9, 167520, Note_on_c, 10, 69, 0
9, 167520, Note_on_c, 10, 74, 92
9, 167614, Note_on_c, 10, 74, 0
9, 167616, Note_on_c, 10, 66, 92
9, 167712, Note_on_c, 10, 66, 0
9, 167712, Note_on_c, 10, 69, 92
9, 167806, Note_on_c, 10, 69, 0
9, 167808, Note_on_c, 10, 66, 92
9, 167902, Note_on_c, 10, 66, 0
9, 167904, Note_on_c, 10, 66, 92
9, 167952, Note_on_c, 10, 66, 0
9, 167952, Note_on_c, 10, 62, 92
9, 167998, Note_on_c, 10, 62, 0
9, 168000, Note_on_c, 10, 64, 92
9, 168094, Note_on_c, 10, 64, 0
9, 168096, Note_on_c, 10, 64, 92
9, 168144, Note_on_c, 10, 64, 0
9, 168144, Note_on_c, 10, 61, 92
9, 168190, Note_on_c, 10, 61, 0
9, 168192, Note_on_c, 10, 62, 92
9, 168352, Note_on_c, 10, 62, 0
9, 169152, Note_on_c, 10, 57, 92
9, 169246, Note_on_c, 10, 57, 0
9, 169248, Note_on_c, 10, 69, 92
9, 169342, Note_on_c, 10, 69, 0
9, 169344, Note_on_c, 10, 69, 92
9, 169438, Note_on_c, 10, 69, 0
9, 169440, Note_on_c, 10, 69, 92
9, 169534, Note_on_c, 10, 69, 0
9, 169536, Note_on_c, 10, 69, 92
9, 169630, Note_on_c, 10, 69, 0
9, 169632, Note_on_c, 10, 69, 92
9, 169726, Note_on_c, 10, 69, 0
9, 169728, Note_on_c, 10, 57, 92
9, 169728, Note_on_c, 10, 66, 92
9, 169822, Note_on_c, 10, 57, 0
9, 169822, Note_on_c, 10, 66, 0
9, 170688, Note_on_c, 10, 57, 92
9, 170782, Note_on_c, 10, 57, 0
9, 170784, Note_on_c, 10, 69, 92
9, 170878, Note_on_c, 10, 69, 0
9, 170880, Note_on_c, 10, 69, 92
9, 170974, Note_on_c, 10, 69, 0
9, 170976, Note_on_c, 10, 69, 92
9, 171070, Note_on_c, 10, 69, 0
9, 171072, Note_on_c, 10, 69, 92
9, 171166, Note_on_c, 10, 69, 0
9, 171168, Note_on_c, 10, 69, 92
9, 171262, Note_on_c, 10, 69, 0
9, 171264, Note_on_c, 10, 69, 92
9, 171358, Note_on_c, 10, 69, 0
9, 171360, Note_on_c, 10, 69, 92
9, 171454, Note_on_c, 10, 69, 0
9, 171456, Note_on_c, 10, 69, 92
9, 171550, Note_on_c, 10, 69, 0
9, 171552, Note_on_c, 10, 69, 92
9, 171646, Note_on_c, 10, 69, 0
9, 171648, Note_on_c, 10, 57, 92
9, 171648, Note_on_c, 10, 69, 92
9, 171742, Note_on_c, 10, 57, 0
9, 171742, Note_on_c, 10, 69, 0
9, 171744, Note_on_c, 10, 57, 92
9, 171744, Note_on_c, 10, 69, 92
9, 171838, Note_on_c, 10, 57, 0
9, 171838, Note_on_c, 10, 69, 0
9, 171840, Note_on_c, 10, 57, 92
9, 171840, Note_on_c, 10, 69, 92
9, 171934, Note_on_c, 10, 57, 0
9, 171934, Note_on_c, 10, 69, 0
9, 171936, Note_on_c, 10, 57, 92
9, 171936, Note_on_c, 10, 69, 92
9, 172030, Note_on_c, 10, 57, 0
9, 172030, Note_on_c, 10, 69, 0
9, 172032, Note_on_c, 10, 57, 92
9, 172032, Note_on_c, 10, 66, 92
9, 172126, Note_on_c, 10, 57, 0
9, 172126, Note_on_c, 10, 66, 0
9, 172128, Note_on_c, 10, 62, 92
9, 172222, Note_on_c, 10, 62, 0
9, 172224, Note_on_c, 10, 64, 92
9, 172248, Note_on_c, 10, 64, 0
9, 172248, Note_on_c, 10, 62, 92
9, 172272, Note_on_c, 10, 62, 0
9, 172272, Note_on_c, 10, 64, 92
9, 172296, Note_on_c, 10, 64, 0
9, 172296, Note_on_c, 10, 62, 92
9, 172320, Note_on_c, 10, 62, 0
9, 172320, Note_on_c, 10, 64, 92
9, 172344, Note_on_c, 10, 64, 0
9, 172344, Note_on_c, 10, 62, 92
9, 172368, Note_on_c, 10, 62, 0
9, 172368, Note_on_c, 10, 61, 92
9, 172392, Note_on_c, 10, 61, 0
9, 172392, Note_on_c, 10, 62, 92
9, 172414, Note_on_c, 10, 62, 0
9, 172416, Note_on_c, 10, 66, 92
9, 172448, Note_on_c, 10, 66, 0
9, 172512, Note_on_c, 10, 62, 92
9, 172544, Note_on_c, 10, 62, 0
9, 172608, Note_on_c, 10, 57, 92
9, 172640, Note_on_c, 10, 57, 0
9, 172704, Note_on_c, 10, 54, 92
9, 172736, Note_on_c, 10, 54, 0
9, 172800, Note_on_c, 10, 50, 92
9, 172960, Note_on_c, 10, 50, 0
9, 172992, Note_on_c, 10, 50, 92
9, 172992, Note_on_c, 10, 62, 92
9, 173152, Note_on_c, 10, 50, 0
9, 173152, Note_on_c, 10, 62, 0
9, 173184, Note_on_c, 10, 50, 92
9, 173184, Note_on_c, 10, 62, 92
9, 173440, Note_on_c, 10, 50, 0
9, 173440, Note_on_c, 10, 62, 0
9, 173440, End_track
10, 0, Start_track
10, 0, MIDI_port, 0
10, 0, Title_t, "V'lncello"
10, 0, Program_c, 11, 48
10, 0, Control_c, 11, 7, 127
10, 0, Control_c, 11, 10, 64
10, 0, Note_on_c, 11, 50, 92
10, 94, Note_on_c, 11, 50, 0
10, 96, Note_on_c, 11, 50, 92
10, 190, Note_on_c, 11, 50, 0
10, 192, Note_on_c, 11, 50, 92
10, 286, Note_on_c, 11, 50, 0
10, 288, Note_on_c, 11, 50, 92
10, 382, Note_on_c, 11, 50, 0
10, 384, Note_on_c, 11, 50, 92
10, 478, Note_on_c, 11, 50, 0
10, 480, Note_on_c, 11, 50, 92
10, 574, Note_on_c, 11, 50, 0
10, 576, Note_on_c, 11, 50, 92
10, 670, Note_on_c, 11, 50, 0
10, 672, Note_on_c, 11, 50, 92
10, 766, Note_on_c, 11, 50, 0
10, 768, Note_on_c, 11, 50, 92
10, 862, Note_on_c, 11, 50, 0
10, 864, Note_on_c, 11, 50, 92
10, 958, Note_on_c, 11, 50, 0
10, 960, Note_on_c, 11, 50, 92
10, 1054, Note_on_c, 11, 50, 0
10, 1056, Note_on_c, 11, 50, 92
10, 1150, Note_on_c, 11, 50, 0
10, 1152, Note_on_c, 11, 50, 92
10, 1246, Note_on_c, 11, 50, 0
10, 1248, Note_on_c, 11, 50, 92
10, 1342, Note_on_c, 11, 50, 0
10, 1344, Note_on_c, 11, 50, 92
10, 1438, Note_on_c, 11, 50, 0
10, 1440, Note_on_c, 11, 50, 92
10, 1534, Note_on_c, 11, 50, 0
10, 1536, Note_on_c, 11, 50, 92
10, 1630, Note_on_c, 11, 50, 0
10, 1632, Note_on_c, 11, 50, 92
10, 1726, Note_on_c, 11, 50, 0
10, 1728, Note_on_c, 11, 50, 92
10, 1822, Note_on_c, 11, 50, 0
10, 1824, Note_on_c, 11, 50, 92
10, 1918, Note_on_c, 11, 50, 0
10, 1920, Note_on_c, 11, 50, 92
10, 2014, Note_on_c, 11, 50, 0
10, 2016, Note_on_c, 11, 50, 92
10, 2110, Note_on_c, 11, 50, 0
10, 2112, Note_on_c, 11, 50, 92
10, 2206, Note_on_c, 11, 50, 0
10, 2208, Note_on_c, 11, 50, 92
10, 2302, Note_on_c, 11, 50, 0
10, 2304, Note_on_c, 11, 50, 92
10, 2398, Note_on_c, 11, 50, 0
10, 2400, Note_on_c, 11, 50, 92
10, 2494, Note_on_c, 11, 50, 0
10, 2496, Note_on_c, 11, 50, 92
10, 2590, Note_on_c, 11, 50, 0
10, 2592, Note_on_c, 11, 50, 92
10, 2686, Note_on_c, 11, 50, 0
10, 2688, Note_on_c, 11, 50, 92
10, 2782, Note_on_c, 11, 50, 0
10, 2784, Note_on_c, 11, 50, 92
10, 2878, Note_on_c, 11, 50, 0
10, 2880, Note_on_c, 11, 50, 92
10, 2974, Note_on_c, 11, 50, 0
10, 2976, Note_on_c, 11, 50, 92
10, 3070, Note_on_c, 11, 50, 0
10, 3072, Note_on_c, 11, 50, 92
10, 3166, Note_on_c, 11, 50, 0
10, 3168, Note_on_c, 11, 62, 92
10, 3262, Note_on_c, 11, 62, 0
10, 3264, Note_on_c, 11, 50, 92
10, 3358, Note_on_c, 11, 50, 0
10, 3360, Note_on_c, 11, 50, 92
10, 3454, Note_on_c, 11, 50, 0
10, 3456, Note_on_c, 11, 50, 92
10, 3616, Note_on_c, 11, 50, 0
10, 3840, Note_on_c, 11, 54, 45
10, 3934, Note_on_c, 11, 54, 0
10, 3936, Note_on_c, 11, 54, 45
10, 4030, Note_on_c, 11, 54, 0
10, 4032, Note_on_c, 11, 54, 45
10, 4126, Note_on_c, 11, 54, 0
10, 4128, Note_on_c, 11, 54, 45
10, 4222, Note_on_c, 11, 54, 0
10, 4224, Note_on_c, 11, 54, 45
10, 4318, Note_on_c, 11, 54, 0
10, 4320, Note_on_c, 11, 54, 45
10, 4414, Note_on_c, 11, 54, 0
10, 4416, Note_on_c, 11, 54, 45
10, 4510, Note_on_c, 11, 54, 0
10, 4512, Note_on_c, 11, 54, 45
10, 4606, Note_on_c, 11, 54, 0
10, 4608, Note_on_c, 11, 55, 45
10, 4702, Note_on_c, 11, 55, 0
10, 4704, Note_on_c, 11, 55, 45
10, 4798, Note_on_c, 11, 55, 0
10, 4800, Note_on_c, 11, 55, 45
10, 4894, Note_on_c, 11, 55, 0
10, 4896, Note_on_c, 11, 55, 45
10, 4990, Note_on_c, 11, 55, 0
10, 4992, Note_on_c, 11, 55, 45
10, 5086, Note_on_c, 11, 55, 0
10, 5088, Note_on_c, 11, 55, 45
10, 5182, Note_on_c, 11, 55, 0
10, 5184, Note_on_c, 11, 55, 45
10, 5278, Note_on_c, 11, 55, 0
10, 5280, Note_on_c, 11, 55, 45
10, 5374, Note_on_c, 11, 55, 0
10, 5376, Note_on_c, 11, 57, 92
10, 5470, Note_on_c, 11, 57, 0
10, 5472, Note_on_c, 11, 57, 92
10, 5566, Note_on_c, 11, 57, 0
10, 5568, Note_on_c, 11, 57, 92
10, 5662, Note_on_c, 11, 57, 0
10, 5664, Note_on_c, 11, 57, 92
10, 5758, Note_on_c, 11, 57, 0
10, 5760, Note_on_c, 11, 57, 92
10, 5854, Note_on_c, 11, 57, 0
10, 5856, Note_on_c, 11, 57, 92
10, 5950, Note_on_c, 11, 57, 0
10, 5952, Note_on_c, 11, 57, 92
10, 6046, Note_on_c, 11, 57, 0
10, 6048, Note_on_c, 11, 57, 92
10, 6142, Note_on_c, 11, 57, 0
10, 6144, Note_on_c, 11, 57, 92
10, 6238, Note_on_c, 11, 57, 0
10, 6240, Note_on_c, 11, 57, 92
10, 6334, Note_on_c, 11, 57, 0
10, 6336, Note_on_c, 11, 57, 92
10, 6430, Note_on_c, 11, 57, 0
10, 6432, Note_on_c, 11, 57, 92
10, 6526, Note_on_c, 11, 57, 0
10, 6528, Note_on_c, 11, 57, 92
10, 6622, Note_on_c, 11, 57, 0
10, 6624, Note_on_c, 11, 57, 92
10, 6718, Note_on_c, 11, 57, 0
10, 6720, Note_on_c, 11, 57, 92
10, 6814, Note_on_c, 11, 57, 0
10, 6816, Note_on_c, 11, 57, 92
10, 6910, Note_on_c, 11, 57, 0
10, 6912, Note_on_c, 11, 59, 92
10, 7006, Note_on_c, 11, 59, 0
10, 7008, Note_on_c, 11, 59, 92
10, 7102, Note_on_c, 11, 59, 0
10, 7104, Note_on_c, 11, 59, 92
10, 7198, Note_on_c, 11, 59, 0
10, 7200, Note_on_c, 11, 59, 92
10, 7294, Note_on_c, 11, 59, 0
10, 7296, Note_on_c, 11, 59, 92
10, 7390, Note_on_c, 11, 59, 0
10, 7392, Note_on_c, 11, 59, 92
10, 7486, Note_on_c, 11, 59, 0
10, 7488, Note_on_c, 11, 59, 92
10, 7582, Note_on_c, 11, 59, 0
10, 7584, Note_on_c, 11, 59, 92
10, 7678, Note_on_c, 11, 59, 0
10, 7680, Note_on_c, 11, 57, 92
10, 7840, Note_on_c, 11, 57, 0
10, 7872, Note_on_c, 11, 57, 92
10, 8032, Note_on_c, 11, 57, 0
10, 8064, Note_on_c, 11, 45, 92
10, 8224, Note_on_c, 11, 45, 0
10, 9216, Note_on_c, 11, 50, 45
10, 9310, Note_on_c, 11, 50, 0
10, 9312, Note_on_c, 11, 50, 45
10, 9406, Note_on_c, 11, 50, 0
10, 9408, Note_on_c, 11, 50, 45
10, 9502, Note_on_c, 11, 50, 0
10, 9504, Note_on_c, 11, 50, 45
10, 9598, Note_on_c, 11, 50, 0
10, 9600, Note_on_c, 11, 50, 45
10, 9694, Note_on_c, 11, 50, 0
10, 9696, Note_on_c, 11, 50, 45
10, 9790, Note_on_c, 11, 50, 0
10, 9792, Note_on_c, 11, 50, 45
10, 9886, Note_on_c, 11, 50, 0
10, 9888, Note_on_c, 11, 50, 45
10, 9982, Note_on_c, 11, 50, 0
10, 9984, Note_on_c, 11, 50, 45
10, 10078, Note_on_c, 11, 50, 0
10, 10080, Note_on_c, 11, 50, 45
10, 10174, Note_on_c, 11, 50, 0
10, 10176, Note_on_c, 11, 50, 45
10, 10270, Note_on_c, 11, 50, 0
10, 10272, Note_on_c, 11, 50, 45
10, 10366, Note_on_c, 11, 50, 0
10, 10368, Note_on_c, 11, 50, 45
10, 10462, Note_on_c, 11, 50, 0
10, 10464, Note_on_c, 11, 50, 45
10, 10558, Note_on_c, 11, 50, 0
10, 10560, Note_on_c, 11, 50, 45
10, 10654, Note_on_c, 11, 50, 0
10, 10656, Note_on_c, 11, 50, 45
10, 10750, Note_on_c, 11, 50, 0
10, 10752, Note_on_c, 11, 50, 45
10, 10846, Note_on_c, 11, 50, 0
10, 10848, Note_on_c, 11, 50, 45
10, 10942, Note_on_c, 11, 50, 0
10, 10944, Note_on_c, 11, 50, 45
10, 11038, Note_on_c, 11, 50, 0
10, 11040, Note_on_c, 11, 50, 45
10, 11134, Note_on_c, 11, 50, 0
10, 11136, Note_on_c, 11, 50, 45
10, 11230, Note_on_c, 11, 50, 0
10, 11232, Note_on_c, 11, 50, 45
10, 11326, Note_on_c, 11, 50, 0
10, 11328, Note_on_c, 11, 50, 45
10, 11422, Note_on_c, 11, 50, 0
10, 11424, Note_on_c, 11, 50, 45
10, 11518, Note_on_c, 11, 50, 0
10, 11520, Note_on_c, 11, 50, 45
10, 11614, Note_on_c, 11, 50, 0
10, 11616, Note_on_c, 11, 50, 45
10, 11710, Note_on_c, 11, 50, 0
10, 11712, Note_on_c, 11, 50, 45
10, 11806, Note_on_c, 11, 50, 0
10, 11808, Note_on_c, 11, 50, 45
10, 11902, Note_on_c, 11, 50, 0
10, 11904, Note_on_c, 11, 50, 45
10, 11998, Note_on_c, 11, 50, 0
10, 12000, Note_on_c, 11, 50, 45
10, 12094, Note_on_c, 11, 50, 0
10, 12096, Note_on_c, 11, 50, 45
10, 12190, Note_on_c, 11, 50, 0
10, 12192, Note_on_c, 11, 50, 45
10, 12286, Note_on_c, 11, 50, 0
10, 12288, Note_on_c, 11, 50, 45
10, 12672, Note_on_c, 11, 50, 0
10, 12672, Note_on_c, 11, 52, 45
10, 13008, Note_on_c, 11, 52, 0
10, 13056, Note_on_c, 11, 54, 45
10, 13440, Note_on_c, 11, 54, 0
10, 13440, Note_on_c, 11, 49, 45
10, 13776, Note_on_c, 11, 49, 0
10, 13824, Note_on_c, 11, 50, 45
10, 14208, Note_on_c, 11, 50, 0
10, 14208, Note_on_c, 11, 52, 45
10, 14544, Note_on_c, 11, 52, 0
10, 14592, Note_on_c, 11, 54, 45
10, 14784, Note_on_c, 11, 54, 0
10, 14784, Note_on_c, 11, 50, 45
10, 14944, Note_on_c, 11, 50, 0
10, 14976, Note_on_c, 11, 49, 45
10, 15168, Note_on_c, 11, 49, 0
10, 15168, Note_on_c, 11, 57, 45
10, 15328, Note_on_c, 11, 57, 0
10, 15360, Note_on_c, 11, 50, 45
10, 15454, Note_on_c, 11, 50, 0
10, 15456, Note_on_c, 11, 50, 45
10, 15550, Note_on_c, 11, 50, 0
10, 15552, Note_on_c, 11, 50, 45
10, 15646, Note_on_c, 11, 50, 0
10, 15648, Note_on_c, 11, 50, 45
10, 15742, Note_on_c, 11, 50, 0
10, 15744, Note_on_c, 11, 50, 45
10, 15838, Note_on_c, 11, 50, 0
10, 15840, Note_on_c, 11, 50, 48
10, 15934, Note_on_c, 11, 50, 0
10, 15936, Note_on_c, 11, 50, 52
10, 16030, Note_on_c, 11, 50, 0
10, 16032, Note_on_c, 11, 50, 56
10, 16126, Note_on_c, 11, 50, 0
10, 16128, Note_on_c, 11, 50, 60
10, 16222, Note_on_c, 11, 50, 0
10, 16224, Note_on_c, 11, 50, 64
10, 16318, Note_on_c, 11, 50, 0
10, 16320, Note_on_c, 11, 50, 68
10, 16414, Note_on_c, 11, 50, 0
10, 16416, Note_on_c, 11, 50, 72
10, 16510, Note_on_c, 11, 50, 0
10, 16512, Note_on_c, 11, 50, 76
10, 16606, Note_on_c, 11, 50, 0
10, 16608, Note_on_c, 11, 50, 80
10, 16702, Note_on_c, 11, 50, 0
10, 16704, Note_on_c, 11, 50, 84
10, 16798, Note_on_c, 11, 50, 0
10, 16800, Note_on_c, 11, 50, 88
10, 16894, Note_on_c, 11, 50, 0
10, 16896, Note_on_c, 11, 50, 92
10, 16990, Note_on_c, 11, 50, 0
10, 16992, Note_on_c, 11, 54, 92
10, 17086, Note_on_c, 11, 54, 0
10, 17088, Note_on_c, 11, 57, 92
10, 17182, Note_on_c, 11, 57, 0
10, 17184, Note_on_c, 11, 54, 92
10, 17278, Note_on_c, 11, 54, 0
10, 17280, Note_on_c, 11, 50, 92
10, 17374, Note_on_c, 11, 50, 0
10, 17376, Note_on_c, 11, 54, 92
10, 17470, Note_on_c, 11, 54, 0
10, 17472, Note_on_c, 11, 57, 92
10, 17566, Note_on_c, 11, 57, 0
10, 17568, Note_on_c, 11, 54, 92
10, 17662, Note_on_c, 11, 54, 0
10, 17664, Note_on_c, 11, 55, 92
10, 17758, Note_on_c, 11, 55, 0
10, 17760, Note_on_c, 11, 55, 92
10, 17854, Note_on_c, 11, 55, 0
10, 17856, Note_on_c, 11, 55, 92
10, 17950, Note_on_c, 11, 55, 0
10, 17952, Note_on_c, 11, 55, 92
10, 18046, Note_on_c, 11, 55, 0
10, 18048, Note_on_c, 11, 55, 92
10, 18142, Note_on_c, 11, 55, 0
10, 18144, Note_on_c, 11, 55, 92
10, 18238, Note_on_c, 11, 55, 0
10, 18240, Note_on_c, 11, 55, 92
10, 18334, Note_on_c, 11, 55, 0
10, 18336, Note_on_c, 11, 55, 92
10, 18430, Note_on_c, 11, 55, 0
10, 18432, Note_on_c, 11, 57, 92
10, 18526, Note_on_c, 11, 57, 0
10, 18528, Note_on_c, 11, 57, 92
10, 18622, Note_on_c, 11, 57, 0
10, 18624, Note_on_c, 11, 57, 92
10, 18718, Note_on_c, 11, 57, 0
10, 18720, Note_on_c, 11, 57, 92
10, 18814, Note_on_c, 11, 57, 0
10, 18816, Note_on_c, 11, 45, 92
10, 18910, Note_on_c, 11, 45, 0
10, 18912, Note_on_c, 11, 45, 92
10, 19006, Note_on_c, 11, 45, 0
10, 19008, Note_on_c, 11, 45, 92
10, 19102, Note_on_c, 11, 45, 0
10, 19104, Note_on_c, 11, 45, 92
10, 19198, Note_on_c, 11, 45, 0
10, 19200, Note_on_c, 11, 50, 92
10, 19360, Note_on_c, 11, 50, 0
10, 20160, Note_on_c, 11, 50, 92
10, 20254, Note_on_c, 11, 50, 0
10, 20256, Note_on_c, 11, 54, 92
10, 20350, Note_on_c, 11, 54, 0
10, 20352, Note_on_c, 11, 57, 92
10, 20446, Note_on_c, 11, 57, 0
10, 20448, Note_on_c, 11, 57, 92
10, 20542, Note_on_c, 11, 57, 0
10, 20544, Note_on_c, 11, 57, 92
10, 20638, Note_on_c, 11, 57, 0
10, 20640, Note_on_c, 11, 57, 92
10, 20734, Note_on_c, 11, 57, 0
10, 20736, Note_on_c, 11, 62, 92
10, 20830, Note_on_c, 11, 62, 0
10, 21696, Note_on_c, 11, 50, 92
10, 21790, Note_on_c, 11, 50, 0
10, 21792, Note_on_c, 11, 54, 92
10, 21886, Note_on_c, 11, 54, 0
10, 21888, Note_on_c, 11, 57, 92
10, 21982, Note_on_c, 11, 57, 0
10, 21984, Note_on_c, 11, 57, 92
10, 22078, Note_on_c, 11, 57, 0
10, 22080, Note_on_c, 11, 57, 92
10, 22174, Note_on_c, 11, 57, 0
10, 22176, Note_on_c, 11, 57, 92
10, 22270, Note_on_c, 11, 57, 0
10, 22272, Note_on_c, 11, 62, 92
10, 22366, Note_on_c, 11, 62, 0
10, 22368, Note_on_c, 11, 57, 92
10, 22462, Note_on_c, 11, 57, 0
10, 22464, Note_on_c, 11, 54, 92
10, 22558, Note_on_c, 11, 54, 0
10, 22560, Note_on_c, 11, 50, 92
10, 22654, Note_on_c, 11, 50, 0
10, 22656, Note_on_c, 11, 45, 92
10, 22750, Note_on_c, 11, 45, 0
10, 22752, Note_on_c, 11, 45, 92
10, 22846, Note_on_c, 11, 45, 0
10, 22848, Note_on_c, 11, 57, 92
10, 22942, Note_on_c, 11, 57, 0
10, 22944, Note_on_c, 11, 57, 92
10, 23038, Note_on_c, 11, 57, 0
10, 23040, Note_on_c, 11, 50, 92
10, 23072, Note_on_c, 11, 50, 0
10, 23136, Note_on_c, 11, 62, 92
10, 23168, Note_on_c, 11, 62, 0
10, 23232, Note_on_c, 11, 64, 92
10, 23256, Note_on_c, 11, 64, 0
10, 23256, Note_on_c, 11, 62, 92
10, 23280, Note_on_c, 11, 62, 0
10, 23280, Note_on_c, 11, 64, 92
10, 23304, Note_on_c, 11, 64, 0
10, 23304, Note_on_c, 11, 62, 92
10, 23328, Note_on_c, 11, 62, 0
10, 23328, Note_on_c, 11, 64, 92
10, 23352, Note_on_c, 11, 64, 0
10, 23352, Note_on_c, 11, 62, 92
10, 23376, Note_on_c, 11, 62, 0
10, 23376, Note_on_c, 11, 61, 92
10, 23400, Note_on_c, 11, 61, 0
10, 23400, Note_on_c, 11, 62, 92
10, 23422, Note_on_c, 11, 62, 0
10, 23424, Note_on_c, 11, 66, 92
10, 23456, Note_on_c, 11, 66, 0
10, 23520, Note_on_c, 11, 62, 92
10, 23552, Note_on_c, 11, 62, 0
10, 23616, Note_on_c, 11, 57, 92
10, 23648, Note_on_c, 11, 57, 0
10, 23712, Note_on_c, 11, 54, 92
10, 23744, Note_on_c, 11, 54, 0
10, 23808, Note_on_c, 11, 50, 92
10, 23968, Note_on_c, 11, 50, 0
10, 24576, Note_on_c, 11, 50, 45
10, 24670, Note_on_c, 11, 50, 0
10, 24672, Note_on_c, 11, 50, 45
10, 24766, Note_on_c, 11, 50, 0
10, 24768, Note_on_c, 11, 50, 45
10, 24862, Note_on_c, 11, 50, 0
10, 24864, Note_on_c, 11, 50, 45
10, 24958, Note_on_c, 11, 50, 0
10, 24960, Note_on_c, 11, 50, 45
10, 25054, Note_on_c, 11, 50, 0
10, 25056, Note_on_c, 11, 50, 45
10, 25150, Note_on_c, 11, 50, 0
10, 25152, Note_on_c, 11, 50, 45
10, 25246, Note_on_c, 11, 50, 0
10, 25248, Note_on_c, 11, 50, 45
10, 25342, Note_on_c, 11, 50, 0
10, 25344, Note_on_c, 11, 50, 45
10, 25438, Note_on_c, 11, 50, 0
10, 25440, Note_on_c, 11, 50, 45
10, 25534, Note_on_c, 11, 50, 0
10, 25536, Note_on_c, 11, 50, 45
10, 25630, Note_on_c, 11, 50, 0
10, 25632, Note_on_c, 11, 50, 45
10, 25726, Note_on_c, 11, 50, 0
10, 25728, Note_on_c, 11, 50, 45
10, 25822, Note_on_c, 11, 50, 0
10, 25824, Note_on_c, 11, 50, 45
10, 25918, Note_on_c, 11, 50, 0
10, 25920, Note_on_c, 11, 50, 45
10, 26014, Note_on_c, 11, 50, 0
10, 26016, Note_on_c, 11, 50, 45
10, 26110, Note_on_c, 11, 50, 0
10, 26112, Note_on_c, 11, 50, 45
10, 26206, Note_on_c, 11, 50, 0
10, 26208, Note_on_c, 11, 50, 45
10, 26302, Note_on_c, 11, 50, 0
10, 26304, Note_on_c, 11, 50, 45
10, 26398, Note_on_c, 11, 50, 0
10, 26400, Note_on_c, 11, 50, 45
10, 26494, Note_on_c, 11, 50, 0
10, 26496, Note_on_c, 11, 50, 45
10, 26590, Note_on_c, 11, 50, 0
10, 26592, Note_on_c, 11, 50, 45
10, 26686, Note_on_c, 11, 50, 0
10, 26688, Note_on_c, 11, 50, 45
10, 26782, Note_on_c, 11, 50, 0
10, 26784, Note_on_c, 11, 50, 45
10, 26878, Note_on_c, 11, 50, 0
10, 26880, Note_on_c, 11, 50, 45
10, 26974, Note_on_c, 11, 50, 0
10, 26976, Note_on_c, 11, 50, 45
10, 27070, Note_on_c, 11, 50, 0
10, 27072, Note_on_c, 11, 50, 45
10, 27166, Note_on_c, 11, 50, 0
10, 27168, Note_on_c, 11, 50, 45
10, 27262, Note_on_c, 11, 50, 0
10, 27264, Note_on_c, 11, 50, 45
10, 27358, Note_on_c, 11, 50, 0
10, 27360, Note_on_c, 11, 50, 45
10, 27454, Note_on_c, 11, 50, 0
10, 27456, Note_on_c, 11, 50, 45
10, 27550, Note_on_c, 11, 50, 0
10, 27552, Note_on_c, 11, 50, 45
10, 27646, Note_on_c, 11, 50, 0
10, 27648, Note_on_c, 11, 50, 45
10, 27808, Note_on_c, 11, 50, 0
10, 33024, Note_on_c, 11, 50, 45
10, 33216, Note_on_c, 11, 50, 0
10, 33216, Note_on_c, 11, 52, 45
10, 33408, Note_on_c, 11, 52, 0
10, 33408, Note_on_c, 11, 50, 45
10, 33600, Note_on_c, 11, 50, 0
10, 33600, Note_on_c, 11, 49, 45
10, 33760, Note_on_c, 11, 49, 0
10, 33792, Note_on_c, 11, 50, 45
10, 33984, Note_on_c, 11, 50, 0
10, 33984, Note_on_c, 11, 52, 45
10, 34176, Note_on_c, 11, 52, 0
10, 34176, Note_on_c, 11, 50, 45
10, 34368, Note_on_c, 11, 50, 0
10, 34368, Note_on_c, 11, 49, 45
10, 34528, Note_on_c, 11, 49, 0
10, 34560, Note_on_c, 11, 50, 45
10, 34654, Note_on_c, 11, 50, 0
10, 34656, Note_on_c, 11, 50, 45
10, 34750, Note_on_c, 11, 50, 0
10, 34752, Note_on_c, 11, 54, 45
10, 34846, Note_on_c, 11, 54, 0
10, 34848, Note_on_c, 11, 54, 45
10, 34942, Note_on_c, 11, 54, 0
10, 34944, Note_on_c, 11, 55, 45
10, 35038, Note_on_c, 11, 55, 0
10, 35040, Note_on_c, 11, 55, 45
10, 35134, Note_on_c, 11, 55, 0
10, 35136, Note_on_c, 11, 57, 45
10, 35230, Note_on_c, 11, 57, 0
10, 35232, Note_on_c, 11, 57, 45
10, 35326, Note_on_c, 11, 57, 0
10, 35328, Note_on_c, 11, 62, 45
10, 35422, Note_on_c, 11, 62, 0
10, 35520, Note_on_c, 11, 50, 92
10, 35614, Note_on_c, 11, 50, 0
10, 35616, Note_on_c, 11, 54, 92
10, 35710, Note_on_c, 11, 54, 0
10, 35712, Note_on_c, 11, 57, 92
10, 35806, Note_on_c, 11, 57, 0
10, 35808, Note_on_c, 11, 57, 92
10, 35902, Note_on_c, 11, 57, 0
10, 35904, Note_on_c, 11, 57, 92
10, 35998, Note_on_c, 11, 57, 0
10, 36000, Note_on_c, 11, 57, 92
10, 36094, Note_on_c, 11, 57, 0
10, 36096, Note_on_c, 11, 62, 92
10, 36190, Note_on_c, 11, 62, 0
10, 36192, Note_on_c, 11, 57, 92
10, 36286, Note_on_c, 11, 57, 0
10, 36288, Note_on_c, 11, 54, 92
10, 36382, Note_on_c, 11, 54, 0
10, 36384, Note_on_c, 11, 50, 92
10, 36478, Note_on_c, 11, 50, 0
10, 36480, Note_on_c, 11, 45, 92
10, 36574, Note_on_c, 11, 45, 0
10, 36576, Note_on_c, 11, 45, 92
10, 36670, Note_on_c, 11, 45, 0
10, 36672, Note_on_c, 11, 57, 92
10, 36766, Note_on_c, 11, 57, 0
10, 36768, Note_on_c, 11, 57, 92
10, 36862, Note_on_c, 11, 57, 0
10, 36864, Note_on_c, 11, 50, 92
10, 36896, Note_on_c, 11, 50, 0
10, 36960, Note_on_c, 11, 62, 92
10, 36992, Note_on_c, 11, 62, 0
10, 37056, Note_on_c, 11, 64, 92
10, 37080, Note_on_c, 11, 64, 0
10, 37080, Note_on_c, 11, 62, 92
10, 37104, Note_on_c, 11, 62, 0
10, 37104, Note_on_c, 11, 64, 92
10, 37128, Note_on_c, 11, 64, 0
10, 37128, Note_on_c, 11, 62, 92
10, 37152, Note_on_c, 11, 62, 0
10, 37152, Note_on_c, 11, 64, 92
10, 37176, Note_on_c, 11, 64, 0
10, 37176, Note_on_c, 11, 62, 92
10, 37200, Note_on_c, 11, 62, 0
10, 37200, Note_on_c, 11, 61, 92
10, 37224, Note_on_c, 11, 61, 0
10, 37224, Note_on_c, 11, 62, 92
10, 37246, Note_on_c, 11, 62, 0
10, 37248, Note_on_c, 11, 66, 92
10, 37280, Note_on_c, 11, 66, 0
10, 37344, Note_on_c, 11, 62, 92
10, 37376, Note_on_c, 11, 62, 0
10, 37440, Note_on_c, 11, 57, 92
10, 37472, Note_on_c, 11, 57, 0
10, 37536, Note_on_c, 11, 54, 92
10, 37568, Note_on_c, 11, 54, 0
10, 37632, Note_on_c, 11, 50, 92
10, 37792, Note_on_c, 11, 50, 0
10, 39264, Note_on_c, 11, 57, 45
10, 39358, Note_on_c, 11, 57, 0
10, 39360, Note_on_c, 11, 59, 45
10, 39384, Note_on_c, 11, 59, 0
10, 39384, Note_on_c, 11, 57, 45
10, 39408, Note_on_c, 11, 57, 0
10, 39408, Note_on_c, 11, 59, 45
10, 39432, Note_on_c, 11, 59, 0
10, 39432, Note_on_c, 11, 57, 45
10, 39456, Note_on_c, 11, 57, 0
10, 39456, Note_on_c, 11, 59, 45
10, 39480, Note_on_c, 11, 59, 0
10, 39480, Note_on_c, 11, 57, 45
10, 39504, Note_on_c, 11, 57, 0
10, 39504, Note_on_c, 11, 56, 45
10, 39528, Note_on_c, 11, 56, 0
10, 39528, Note_on_c, 11, 57, 45
10, 39550, Note_on_c, 11, 57, 0
10, 39552, Note_on_c, 11, 61, 45
10, 39584, Note_on_c, 11, 61, 0
10, 39648, Note_on_c, 11, 57, 45
10, 39680, Note_on_c, 11, 57, 0
10, 39744, Note_on_c, 11, 52, 45
10, 39776, Note_on_c, 11, 52, 0
10, 39840, Note_on_c, 11, 49, 45
10, 39872, Note_on_c, 11, 49, 0
10, 39936, Note_on_c, 11, 45, 45
10, 40096, Note_on_c, 11, 45, 0
10, 41568, Note_on_c, 11, 62, 45
10, 41662, Note_on_c, 11, 62, 0
10, 41664, Note_on_c, 11, 64, 45
10, 41688, Note_on_c, 11, 64, 0
10, 41688, Note_on_c, 11, 62, 45
10, 41712, Note_on_c, 11, 62, 0
10, 41712, Note_on_c, 11, 64, 45
10, 41736, Note_on_c, 11, 64, 0
10, 41736, Note_on_c, 11, 62, 45
10, 41760, Note_on_c, 11, 62, 0
10, 41760, Note_on_c, 11, 64, 45
10, 41784, Note_on_c, 11, 64, 0
10, 41784, Note_on_c, 11, 62, 45
10, 41808, Note_on_c, 11, 62, 0
10, 41808, Note_on_c, 11, 61, 45
10, 41832, Note_on_c, 11, 61, 0
10, 41832, Note_on_c, 11, 62, 45
10, 41854, Note_on_c, 11, 62, 0
10, 41856, Note_on_c, 11, 66, 45
10, 41888, Note_on_c, 11, 66, 0
10, 41952, Note_on_c, 11, 62, 45
10, 41984, Note_on_c, 11, 62, 0
10, 42048, Note_on_c, 11, 57, 45
10, 42080, Note_on_c, 11, 57, 0
10, 42144, Note_on_c, 11, 54, 45
10, 42176, Note_on_c, 11, 54, 0
10, 42240, Note_on_c, 11, 50, 45
10, 42400, Note_on_c, 11, 50, 0
10, 48480, Note_on_c, 11, 64, 45
10, 48576, Note_on_c, 11, 64, 0
10, 48576, Note_on_c, 11, 63, 45
10, 48672, Note_on_c, 11, 63, 0
10, 48672, Note_on_c, 11, 64, 45
10, 48766, Note_on_c, 11, 64, 0
10, 48768, Note_on_c, 11, 52, 45
10, 48800, Note_on_c, 11, 52, 0
10, 48864, Note_on_c, 11, 56, 45
10, 48896, Note_on_c, 11, 56, 0
10, 48960, Note_on_c, 11, 59, 45
10, 48992, Note_on_c, 11, 59, 0
10, 49056, Note_on_c, 11, 56, 45
10, 49088, Note_on_c, 11, 56, 0
10, 49152, Note_on_c, 11, 52, 45
10, 49246, Note_on_c, 11, 52, 0
10, 49248, Note_on_c, 11, 52, 45
10, 49342, Note_on_c, 11, 52, 0
10, 49344, Note_on_c, 11, 52, 45
10, 49438, Note_on_c, 11, 52, 0
10, 49440, Note_on_c, 11, 52, 45
10, 49534, Note_on_c, 11, 52, 0
10, 49536, Note_on_c, 11, 52, 45
10, 49696, Note_on_c, 11, 52, 0
10, 49920, Note_on_c, 11, 52, 45
10, 50014, Note_on_c, 11, 52, 0
10, 50016, Note_on_c, 11, 52, 45
10, 50110, Note_on_c, 11, 52, 0
10, 50112, Note_on_c, 11, 52, 45
10, 50206, Note_on_c, 11, 52, 0
10, 50208, Note_on_c, 11, 52, 45
10, 50302, Note_on_c, 11, 52, 0
10, 50304, Note_on_c, 11, 52, 45
10, 50464, Note_on_c, 11, 52, 0
10, 50688, Note_on_c, 11, 52, 45
10, 50782, Note_on_c, 11, 52, 0
10, 50880, Note_on_c, 11, 52, 45
10, 50974, Note_on_c, 11, 52, 0
10, 51072, Note_on_c, 11, 52, 45
10, 51166, Note_on_c, 11, 52, 0
10, 51264, Note_on_c, 11, 52, 45
10, 51358, Note_on_c, 11, 52, 0
10, 51456, Note_on_c, 11, 57, 45
10, 51550, Note_on_c, 11, 57, 0
10, 51552, Note_on_c, 11, 57, 45
10, 51646, Note_on_c, 11, 57, 0
10, 51648, Note_on_c, 11, 57, 45
10, 51742, Note_on_c, 11, 57, 0
10, 51744, Note_on_c, 11, 57, 45
10, 51838, Note_on_c, 11, 57, 0
10, 51840, Note_on_c, 11, 57, 45
10, 51934, Note_on_c, 11, 57, 0
10, 51936, Note_on_c, 11, 57, 45
10, 52030, Note_on_c, 11, 57, 0
10, 52032, Note_on_c, 11, 57, 45
10, 52126, Note_on_c, 11, 57, 0
10, 52128, Note_on_c, 11, 57, 45
10, 52222, Note_on_c, 11, 57, 0
10, 52224, Note_on_c, 11, 54, 45
10, 52318, Note_on_c, 11, 54, 0
10, 52320, Note_on_c, 11, 54, 45
10, 52414, Note_on_c, 11, 54, 0
10, 52416, Note_on_c, 11, 54, 45
10, 52510, Note_on_c, 11, 54, 0
10, 52512, Note_on_c, 11, 54, 45
10, 52606, Note_on_c, 11, 54, 0
10, 52608, Note_on_c, 11, 54, 45
10, 52702, Note_on_c, 11, 54, 0
10, 52704, Note_on_c, 11, 54, 45
10, 52798, Note_on_c, 11, 54, 0
10, 52800, Note_on_c, 11, 54, 45
10, 52894, Note_on_c, 11, 54, 0
10, 52896, Note_on_c, 11, 54, 45
10, 52990, Note_on_c, 11, 54, 0
10, 52992, Note_on_c, 11, 49, 45
10, 53086, Note_on_c, 11, 49, 0
10, 53088, Note_on_c, 11, 49, 45
10, 53182, Note_on_c, 11, 49, 0
10, 53184, Note_on_c, 11, 49, 45
10, 53278, Note_on_c, 11, 49, 0
10, 53280, Note_on_c, 11, 49, 45
10, 53374, Note_on_c, 11, 49, 0
10, 53376, Note_on_c, 11, 49, 45
10, 53470, Note_on_c, 11, 49, 0
10, 53472, Note_on_c, 11, 49, 45
10, 53566, Note_on_c, 11, 49, 0
10, 53568, Note_on_c, 11, 49, 45
10, 53662, Note_on_c, 11, 49, 0
10, 53664, Note_on_c, 11, 49, 45
10, 53758, Note_on_c, 11, 49, 0
10, 53760, Note_on_c, 11, 50, 45
10, 54144, Note_on_c, 11, 50, 0
10, 54144, Note_on_c, 11, 52, 45
10, 54480, Note_on_c, 11, 52, 0
10, 54528, Note_on_c, 11, 53, 92
10, 54622, Note_on_c, 11, 53, 0
10, 54624, Note_on_c, 11, 53, 45
10, 54718, Note_on_c, 11, 53, 0
10, 54720, Note_on_c, 11, 53, 45
10, 54814, Note_on_c, 11, 53, 0
10, 54816, Note_on_c, 11, 53, 45
10, 54910, Note_on_c, 11, 53, 0
10, 54912, Note_on_c, 11, 53, 45
10, 55006, Note_on_c, 11, 53, 0
10, 55008, Note_on_c, 11, 53, 45
10, 55102, Note_on_c, 11, 53, 0
10, 55104, Note_on_c, 11, 53, 45
10, 55198, Note_on_c, 11, 53, 0
10, 55200, Note_on_c, 11, 53, 45
10, 55294, Note_on_c, 11, 53, 0
10, 55296, Note_on_c, 11, 52, 45
10, 55456, Note_on_c, 11, 52, 0
10, 55680, Note_on_c, 11, 50, 45
10, 55840, Note_on_c, 11, 50, 0
10, 56064, Note_on_c, 11, 49, 45
10, 56158, Note_on_c, 11, 49, 0
10, 56256, Note_on_c, 11, 45, 45
10, 56350, Note_on_c, 11, 45, 0
10, 56448, Note_on_c, 11, 50, 45
10, 56542, Note_on_c, 11, 50, 0
10, 56640, Note_on_c, 11, 50, 45
10, 56734, Note_on_c, 11, 50, 0
10, 56832, Note_on_c, 11, 52, 45
10, 56926, Note_on_c, 11, 52, 0
10, 56928, Note_on_c, 11, 52, 45
10, 57022, Note_on_c, 11, 52, 0
10, 57024, Note_on_c, 11, 52, 45
10, 57118, Note_on_c, 11, 52, 0
10, 57120, Note_on_c, 11, 52, 45
10, 57214, Note_on_c, 11, 52, 0
10, 57216, Note_on_c, 11, 52, 45
10, 57310, Note_on_c, 11, 52, 0
10, 57312, Note_on_c, 11, 52, 45
10, 57406, Note_on_c, 11, 52, 0
10, 57408, Note_on_c, 11, 52, 45
10, 57502, Note_on_c, 11, 52, 0
10, 57504, Note_on_c, 11, 52, 45
10, 57598, Note_on_c, 11, 52, 0
10, 57600, Note_on_c, 11, 57, 92
10, 57694, Note_on_c, 11, 57, 0
10, 57696, Note_on_c, 11, 57, 92
10, 57790, Note_on_c, 11, 57, 0
10, 57792, Note_on_c, 11, 57, 92
10, 57886, Note_on_c, 11, 57, 0
10, 57888, Note_on_c, 11, 56, 92
10, 57982, Note_on_c, 11, 56, 0
10, 57984, Note_on_c, 11, 54, 92
10, 58078, Note_on_c, 11, 54, 0
10, 58080, Note_on_c, 11, 54, 92
10, 58174, Note_on_c, 11, 54, 0
10, 58176, Note_on_c, 11, 54, 92
10, 58270, Note_on_c, 11, 54, 0
10, 58272, Note_on_c, 11, 54, 92
10, 58366, Note_on_c, 11, 54, 0
10, 58368, Note_on_c, 11, 52, 92
10, 58528, Note_on_c, 11, 52, 0
10, 58560, Note_on_c, 11, 52, 92
10, 58720, Note_on_c, 11, 52, 0
10, 58752, Note_on_c, 11, 52, 92
10, 58912, Note_on_c, 11, 52, 0
10, 59904, Note_on_c, 11, 57, 45
10, 59998, Note_on_c, 11, 57, 0
10, 60000, Note_on_c, 11, 57, 45
10, 60094, Note_on_c, 11, 57, 0
10, 60096, Note_on_c, 11, 57, 45
10, 60190, Note_on_c, 11, 57, 0
10, 60192, Note_on_c, 11, 57, 45
10, 60286, Note_on_c, 11, 57, 0
10, 60288, Note_on_c, 11, 57, 45
10, 60382, Note_on_c, 11, 57, 0
10, 60384, Note_on_c, 11, 57, 45
10, 60478, Note_on_c, 11, 57, 0
10, 60480, Note_on_c, 11, 57, 45
10, 60574, Note_on_c, 11, 57, 0
10, 60576, Note_on_c, 11, 57, 45
10, 60670, Note_on_c, 11, 57, 0
10, 60672, Note_on_c, 11, 57, 45
10, 60766, Note_on_c, 11, 57, 0
10, 60768, Note_on_c, 11, 57, 45
10, 60862, Note_on_c, 11, 57, 0
10, 60864, Note_on_c, 11, 57, 45
10, 60958, Note_on_c, 11, 57, 0
10, 60960, Note_on_c, 11, 57, 45
10, 61054, Note_on_c, 11, 57, 0
10, 61056, Note_on_c, 11, 57, 45
10, 61150, Note_on_c, 11, 57, 0
10, 61152, Note_on_c, 11, 57, 45
10, 61246, Note_on_c, 11, 57, 0
10, 61248, Note_on_c, 11, 57, 45
10, 61342, Note_on_c, 11, 57, 0
10, 61344, Note_on_c, 11, 57, 45
10, 61438, Note_on_c, 11, 57, 0
10, 61440, Note_on_c, 11, 57, 45
10, 61534, Note_on_c, 11, 57, 0
10, 61536, Note_on_c, 11, 57, 45
10, 61630, Note_on_c, 11, 57, 0
10, 61632, Note_on_c, 11, 57, 45
10, 61726, Note_on_c, 11, 57, 0
10, 61728, Note_on_c, 11, 57, 45
10, 61822, Note_on_c, 11, 57, 0
10, 61824, Note_on_c, 11, 57, 45
10, 61918, Note_on_c, 11, 57, 0
10, 61920, Note_on_c, 11, 57, 45
10, 62014, Note_on_c, 11, 57, 0
10, 62016, Note_on_c, 11, 57, 45
10, 62110, Note_on_c, 11, 57, 0
10, 62112, Note_on_c, 11, 57, 45
10, 62206, Note_on_c, 11, 57, 0
10, 62208, Note_on_c, 11, 57, 45
10, 62302, Note_on_c, 11, 57, 0
10, 62304, Note_on_c, 11, 57, 45
10, 62398, Note_on_c, 11, 57, 0
10, 62400, Note_on_c, 11, 57, 45
10, 62494, Note_on_c, 11, 57, 0
10, 62496, Note_on_c, 11, 57, 45
10, 62590, Note_on_c, 11, 57, 0
10, 62592, Note_on_c, 11, 57, 45
10, 62686, Note_on_c, 11, 57, 0
10, 62688, Note_on_c, 11, 57, 45
10, 62782, Note_on_c, 11, 57, 0
10, 62784, Note_on_c, 11, 57, 45
10, 62878, Note_on_c, 11, 57, 0
10, 62880, Note_on_c, 11, 57, 45
10, 62974, Note_on_c, 11, 57, 0
10, 62976, Note_on_c, 11, 57, 45
10, 63136, Note_on_c, 11, 57, 0
10, 68352, Note_on_c, 11, 49, 45
10, 68512, Note_on_c, 11, 49, 0
10, 68832, Note_on_c, 11, 49, 45
10, 68926, Note_on_c, 11, 49, 0
10, 68928, Note_on_c, 11, 49, 45
10, 69022, Note_on_c, 11, 49, 0
10, 69024, Note_on_c, 11, 49, 45
10, 69118, Note_on_c, 11, 49, 0
10, 69120, Note_on_c, 11, 50, 45
10, 69280, Note_on_c, 11, 50, 0
10, 69600, Note_on_c, 11, 50, 45
10, 69694, Note_on_c, 11, 50, 0
10, 69696, Note_on_c, 11, 50, 45
10, 69790, Note_on_c, 11, 50, 0
10, 69792, Note_on_c, 11, 50, 45
10, 69886, Note_on_c, 11, 50, 0
10, 69888, Note_on_c, 11, 52, 45
10, 69982, Note_on_c, 11, 52, 0
10, 69984, Note_on_c, 11, 52, 45
10, 70078, Note_on_c, 11, 52, 0
10, 70080, Note_on_c, 11, 54, 45
10, 70174, Note_on_c, 11, 54, 0
10, 70176, Note_on_c, 11, 54, 45
10, 70270, Note_on_c, 11, 54, 0
10, 70272, Note_on_c, 11, 50, 45
10, 70366, Note_on_c, 11, 50, 0
10, 70368, Note_on_c, 11, 50, 45
10, 70462, Note_on_c, 11, 50, 0
10, 70464, Note_on_c, 11, 52, 45
10, 70558, Note_on_c, 11, 52, 0
10, 70560, Note_on_c, 11, 50, 45
10, 70654, Note_on_c, 11, 50, 0
10, 70656, Note_on_c, 11, 49, 45
10, 70816, Note_on_c, 11, 49, 0
10, 71136, Note_on_c, 11, 49, 45
10, 71230, Note_on_c, 11, 49, 0
10, 71232, Note_on_c, 11, 49, 45
10, 71326, Note_on_c, 11, 49, 0
10, 71328, Note_on_c, 11, 49, 45
10, 71422, Note_on_c, 11, 49, 0
10, 71424, Note_on_c, 11, 50, 45
10, 71584, Note_on_c, 11, 50, 0
10, 71904, Note_on_c, 11, 54, 45
10, 71998, Note_on_c, 11, 54, 0
10, 72000, Note_on_c, 11, 54, 45
10, 72094, Note_on_c, 11, 54, 0
10, 72096, Note_on_c, 11, 54, 45
10, 72190, Note_on_c, 11, 54, 0
10, 72192, Note_on_c, 11, 52, 45
10, 72286, Note_on_c, 11, 52, 0
10, 72288, Note_on_c, 11, 52, 45
10, 72382, Note_on_c, 11, 52, 0
10, 72384, Note_on_c, 11, 52, 45
10, 72478, Note_on_c, 11, 52, 0
10, 72480, Note_on_c, 11, 52, 45
10, 72574, Note_on_c, 11, 52, 0
10, 72576, Note_on_c, 11, 52, 45
10, 72670, Note_on_c, 11, 52, 0
10, 72672, Note_on_c, 11, 52, 45
10, 72766, Note_on_c, 11, 52, 0
10, 72768, Note_on_c, 11, 52, 45
10, 72862, Note_on_c, 11, 52, 0
10, 72864, Note_on_c, 11, 52, 45
10, 72958, Note_on_c, 11, 52, 0
10, 72960, Note_on_c, 11, 52, 45
10, 73054, Note_on_c, 11, 52, 0
10, 73056, Note_on_c, 11, 52, 45
10, 73150, Note_on_c, 11, 52, 0
10, 73152, Note_on_c, 11, 52, 45
10, 73246, Note_on_c, 11, 52, 0
10, 73248, Note_on_c, 11, 52, 52
10, 73342, Note_on_c, 11, 52, 0
10, 73344, Note_on_c, 11, 52, 60
10, 73438, Note_on_c, 11, 52, 0
10, 73440, Note_on_c, 11, 52, 68
10, 73534, Note_on_c, 11, 52, 0
10, 73536, Note_on_c, 11, 52, 76
10, 73630, Note_on_c, 11, 52, 0
10, 73632, Note_on_c, 11, 52, 84
10, 73726, Note_on_c, 11, 52, 0
10, 73728, Note_on_c, 11, 57, 92
10, 73822, Note_on_c, 11, 57, 0
10, 73824, Note_on_c, 11, 61, 92
10, 73918, Note_on_c, 11, 61, 0
10, 73920, Note_on_c, 11, 64, 92
10, 74014, Note_on_c, 11, 64, 0
10, 74016, Note_on_c, 11, 61, 92
10, 74110, Note_on_c, 11, 61, 0
10, 74112, Note_on_c, 11, 57, 92
10, 74206, Note_on_c, 11, 57, 0
10, 74208, Note_on_c, 11, 61, 92
10, 74302, Note_on_c, 11, 61, 0
10, 74304, Note_on_c, 11, 64, 92
10, 74398, Note_on_c, 11, 64, 0
10, 74400, Note_on_c, 11, 61, 92
10, 74494, Note_on_c, 11, 61, 0
10, 74496, Note_on_c, 11, 62, 92
10, 74590, Note_on_c, 11, 62, 0
10, 74592, Note_on_c, 11, 62, 92
10, 74686, Note_on_c, 11, 62, 0
10, 74688, Note_on_c, 11, 62, 92
10, 74782, Note_on_c, 11, 62, 0
10, 74784, Note_on_c, 11, 62, 92
10, 74878, Note_on_c, 11, 62, 0
10, 74880, Note_on_c, 11, 62, 92
10, 74974, Note_on_c, 11, 62, 0
10, 74976, Note_on_c, 11, 62, 92
10, 75070, Note_on_c, 11, 62, 0
10, 75072, Note_on_c, 11, 62, 92
10, 75166, Note_on_c, 11, 62, 0
10, 75168, Note_on_c, 11, 62, 92
10, 75262, Note_on_c, 11, 62, 0
10, 75264, Note_on_c, 11, 64, 92
10, 75358, Note_on_c, 11, 64, 0
10, 75360, Note_on_c, 11, 64, 92
10, 75454, Note_on_c, 11, 64, 0
10, 75456, Note_on_c, 11, 64, 92
10, 75550, Note_on_c, 11, 64, 0
10, 75552, Note_on_c, 11, 64, 92
10, 75646, Note_on_c, 11, 64, 0
10, 75648, Note_on_c, 11, 52, 92
10, 75742, Note_on_c, 11, 52, 0
10, 75744, Note_on_c, 11, 52, 92
10, 75838, Note_on_c, 11, 52, 0
10, 75840, Note_on_c, 11, 52, 92
10, 75934, Note_on_c, 11, 52, 0
10, 75936, Note_on_c, 11, 52, 92
10, 76030, Note_on_c, 11, 52, 0
10, 76032, Note_on_c, 11, 57, 92
10, 76192, Note_on_c, 11, 57, 0
10, 76992, Note_on_c, 11, 57, 92
10, 77086, Note_on_c, 11, 57, 0
10, 77088, Note_on_c, 11, 61, 92
10, 77182, Note_on_c, 11, 61, 0
10, 77184, Note_on_c, 11, 64, 92
10, 77278, Note_on_c, 11, 64, 0
10, 77280, Note_on_c, 11, 64, 92
10, 77374, Note_on_c, 11, 64, 0
10, 77376, Note_on_c, 11, 64, 92
10, 77470, Note_on_c, 11, 64, 0
10, 77472, Note_on_c, 11, 64, 92
10, 77566, Note_on_c, 11, 64, 0
10, 77568, Note_on_c, 11, 57, 92
10, 77662, Note_on_c, 11, 57, 0
10, 78528, Note_on_c, 11, 57, 92
10, 78622, Note_on_c, 11, 57, 0
10, 78624, Note_on_c, 11, 61, 92
10, 78718, Note_on_c, 11, 61, 0
10, 78720, Note_on_c, 11, 64, 92
10, 78814, Note_on_c, 11, 64, 0
10, 78816, Note_on_c, 11, 64, 92
10, 78910, Note_on_c, 11, 64, 0
10, 78912, Note_on_c, 11, 64, 92
10, 79006, Note_on_c, 11, 64, 0
10, 79008, Note_on_c, 11, 64, 92
10, 79102, Note_on_c, 11, 64, 0
10, 79104, Note_on_c, 11, 57, 92
10, 79198, Note_on_c, 11, 57, 0
10, 79200, Note_on_c, 11, 52, 92
10, 79294, Note_on_c, 11, 52, 0
10, 79296, Note_on_c, 11, 49, 92
10, 79390, Note_on_c, 11, 49, 0
10, 79392, Note_on_c, 11, 45, 92
10, 79486, Note_on_c, 11, 45, 0
10, 79488, Note_on_c, 11, 52, 92
10, 79582, Note_on_c, 11, 52, 0
10, 79584, Note_on_c, 11, 52, 92
10, 79678, Note_on_c, 11, 52, 0
10, 79680, Note_on_c, 11, 52, 92
10, 79774, Note_on_c, 11, 52, 0
10, 79776, Note_on_c, 11, 52, 92
10, 79870, Note_on_c, 11, 52, 0
10, 79872, Note_on_c, 11, 45, 92
10, 79966, Note_on_c, 11, 45, 0
10, 79968, Note_on_c, 11, 57, 92
10, 80062, Note_on_c, 11, 57, 0
10, 80064, Note_on_c, 11, 59, 92
10, 80088, Note_on_c, 11, 59, 0
10, 80088, Note_on_c, 11, 57, 92
10, 80112, Note_on_c, 11, 57, 0
10, 80112, Note_on_c, 11, 59, 92
10, 80136, Note_on_c, 11, 59, 0
10, 80136, Note_on_c, 11, 57, 92
10, 80160, Note_on_c, 11, 57, 0
10, 80160, Note_on_c, 11, 59, 92
10, 80184, Note_on_c, 11, 59, 0
10, 80184, Note_on_c, 11, 57, 92
10, 80208, Note_on_c, 11, 57, 0
10, 80208, Note_on_c, 11, 56, 92
10, 80232, Note_on_c, 11, 56, 0
10, 80232, Note_on_c, 11, 57, 92
10, 80254, Note_on_c, 11, 57, 0
10, 80256, Note_on_c, 11, 61, 92
10, 80288, Note_on_c, 11, 61, 0
10, 80352, Note_on_c, 11, 57, 92
10, 80384, Note_on_c, 11, 57, 0
10, 80448, Note_on_c, 11, 52, 92
10, 80480, Note_on_c, 11, 52, 0
10, 80544, Note_on_c, 11, 49, 92
10, 80576, Note_on_c, 11, 49, 0
10, 80640, Note_on_c, 11, 45, 92
10, 80800, Note_on_c, 11, 45, 0
10, 81408, Note_on_c, 11, 45, 45
10, 81502, Note_on_c, 11, 45, 0
10, 81504, Note_on_c, 11, 45, 45
10, 81598, Note_on_c, 11, 45, 0
10, 81600, Note_on_c, 11, 45, 45
10, 81694, Note_on_c, 11, 45, 0
10, 81696, Note_on_c, 11, 45, 45
10, 81790, Note_on_c, 11, 45, 0
10, 81792, Note_on_c, 11, 45, 45
10, 81886, Note_on_c, 11, 45, 0
10, 81888, Note_on_c, 11, 45, 45
10, 81982, Note_on_c, 11, 45, 0
10, 81984, Note_on_c, 11, 45, 45
10, 82078, Note_on_c, 11, 45, 0
10, 82080, Note_on_c, 11, 45, 45
10, 82174, Note_on_c, 11, 45, 0
10, 82176, Note_on_c, 11, 45, 45
10, 82270, Note_on_c, 11, 45, 0
10, 82272, Note_on_c, 11, 45, 45
10, 82366, Note_on_c, 11, 45, 0
10, 82368, Note_on_c, 11, 45, 45
10, 82462, Note_on_c, 11, 45, 0
10, 82464, Note_on_c, 11, 45, 45
10, 82558, Note_on_c, 11, 45, 0
10, 82560, Note_on_c, 11, 45, 45
10, 82654, Note_on_c, 11, 45, 0
10, 82656, Note_on_c, 11, 45, 45
10, 82750, Note_on_c, 11, 45, 0
10, 82752, Note_on_c, 11, 45, 45
10, 82846, Note_on_c, 11, 45, 0
10, 82848, Note_on_c, 11, 45, 45
10, 82942, Note_on_c, 11, 45, 0
10, 82944, Note_on_c, 11, 45, 45
10, 83038, Note_on_c, 11, 45, 0
10, 83040, Note_on_c, 11, 45, 45
10, 83134, Note_on_c, 11, 45, 0
10, 83136, Note_on_c, 11, 45, 45
10, 83230, Note_on_c, 11, 45, 0
10, 83232, Note_on_c, 11, 45, 45
10, 83326, Note_on_c, 11, 45, 0
10, 83328, Note_on_c, 11, 45, 45
10, 83422, Note_on_c, 11, 45, 0
10, 83424, Note_on_c, 11, 45, 45
10, 83518, Note_on_c, 11, 45, 0
10, 83520, Note_on_c, 11, 45, 45
10, 83614, Note_on_c, 11, 45, 0
10, 83616, Note_on_c, 11, 45, 45
10, 83710, Note_on_c, 11, 45, 0
10, 83712, Note_on_c, 11, 45, 45
10, 83806, Note_on_c, 11, 45, 0
10, 83808, Note_on_c, 11, 45, 45
10, 83902, Note_on_c, 11, 45, 0
10, 83904, Note_on_c, 11, 45, 45
10, 83998, Note_on_c, 11, 45, 0
10, 84000, Note_on_c, 11, 45, 45
10, 84094, Note_on_c, 11, 45, 0
10, 84096, Note_on_c, 11, 45, 45
10, 84190, Note_on_c, 11, 45, 0
10, 84192, Note_on_c, 11, 45, 45
10, 84286, Note_on_c, 11, 45, 0
10, 84288, Note_on_c, 11, 45, 45
10, 84382, Note_on_c, 11, 45, 0
10, 84384, Note_on_c, 11, 45, 45
10, 84478, Note_on_c, 11, 45, 0
10, 84480, Note_on_c, 11, 45, 45
10, 84574, Note_on_c, 11, 45, 0
10, 84576, Note_on_c, 11, 45, 45
10, 84670, Note_on_c, 11, 45, 0
10, 84672, Note_on_c, 11, 45, 45
10, 84766, Note_on_c, 11, 45, 0
10, 84768, Note_on_c, 11, 45, 45
10, 84862, Note_on_c, 11, 45, 0
10, 84864, Note_on_c, 11, 45, 45
10, 84958, Note_on_c, 11, 45, 0
10, 84960, Note_on_c, 11, 45, 45
10, 85054, Note_on_c, 11, 45, 0
10, 85056, Note_on_c, 11, 45, 45
10, 85150, Note_on_c, 11, 45, 0
10, 85152, Note_on_c, 11, 45, 45
10, 85246, Note_on_c, 11, 45, 0
10, 85248, Note_on_c, 11, 45, 45
10, 85342, Note_on_c, 11, 45, 0
10, 85344, Note_on_c, 11, 45, 45
10, 85438, Note_on_c, 11, 45, 0
10, 85440, Note_on_c, 11, 45, 45
10, 85534, Note_on_c, 11, 45, 0
10, 85536, Note_on_c, 11, 45, 45
10, 85630, Note_on_c, 11, 45, 0
10, 85632, Note_on_c, 11, 57, 45
10, 85726, Note_on_c, 11, 57, 0
10, 85728, Note_on_c, 11, 57, 45
10, 85822, Note_on_c, 11, 57, 0
10, 85824, Note_on_c, 11, 57, 45
10, 85918, Note_on_c, 11, 57, 0
10, 85920, Note_on_c, 11, 57, 45
10, 86014, Note_on_c, 11, 57, 0
10, 86016, Note_on_c, 11, 56, 45
10, 86110, Note_on_c, 11, 56, 0
10, 86112, Note_on_c, 11, 56, 45
10, 86206, Note_on_c, 11, 56, 0
10, 86208, Note_on_c, 11, 56, 45
10, 86302, Note_on_c, 11, 56, 0
10, 86304, Note_on_c, 11, 56, 45
10, 86398, Note_on_c, 11, 56, 0
10, 86400, Note_on_c, 11, 56, 45
10, 86494, Note_on_c, 11, 56, 0
10, 86496, Note_on_c, 11, 56, 45
10, 86590, Note_on_c, 11, 56, 0
10, 86592, Note_on_c, 11, 56, 45
10, 86686, Note_on_c, 11, 56, 0
10, 86688, Note_on_c, 11, 56, 45
10, 86782, Note_on_c, 11, 56, 0
10, 86784, Note_on_c, 11, 57, 45
10, 86944, Note_on_c, 11, 57, 0
10, 87456, Note_on_c, 11, 56, 45
10, 87552, Note_on_c, 11, 56, 0
10, 87552, Note_on_c, 11, 57, 45
10, 87712, Note_on_c, 11, 57, 0
10, 88224, Note_on_c, 11, 56, 45
10, 88320, Note_on_c, 11, 56, 0
10, 88320, Note_on_c, 11, 57, 45
10, 88414, Note_on_c, 11, 57, 0
10, 88416, Note_on_c, 11, 57, 45
10, 88448, Note_on_c, 11, 57, 0
10, 88512, Note_on_c, 11, 57, 45
10, 88544, Note_on_c, 11, 57, 0
10, 88608, Note_on_c, 11, 57, 45
10, 88640, Note_on_c, 11, 57, 0
10, 88704, Note_on_c, 11, 57, 45
10, 88798, Note_on_c, 11, 57, 0
10, 88800, Note_on_c, 11, 57, 45
10, 88894, Note_on_c, 11, 57, 0
10, 88896, Note_on_c, 11, 57, 45
10, 88990, Note_on_c, 11, 57, 0
10, 88992, Note_on_c, 11, 57, 45
10, 89086, Note_on_c, 11, 57, 0
10, 89088, Note_on_c, 11, 57, 45
10, 89182, Note_on_c, 11, 57, 0
10, 89184, Note_on_c, 11, 57, 45
10, 89278, Note_on_c, 11, 57, 0
10, 89280, Note_on_c, 11, 57, 45
10, 89374, Note_on_c, 11, 57, 0
10, 89376, Note_on_c, 11, 57, 45
10, 89470, Note_on_c, 11, 57, 0
10, 89472, Note_on_c, 11, 57, 45
10, 89566, Note_on_c, 11, 57, 0
10, 89568, Note_on_c, 11, 57, 45
10, 89662, Note_on_c, 11, 57, 0
10, 89664, Note_on_c, 11, 57, 45
10, 89758, Note_on_c, 11, 57, 0
10, 89760, Note_on_c, 11, 57, 45
10, 89854, Note_on_c, 11, 57, 0
10, 89856, Note_on_c, 11, 57, 45
10, 90016, Note_on_c, 11, 57, 0
10, 91392, Note_on_c, 11, 50, 92
10, 91486, Note_on_c, 11, 50, 0
10, 91488, Note_on_c, 11, 50, 92
10, 91582, Note_on_c, 11, 50, 0
10, 91584, Note_on_c, 11, 50, 92
10, 91678, Note_on_c, 11, 50, 0
10, 91680, Note_on_c, 11, 50, 92
10, 91774, Note_on_c, 11, 50, 0
10, 91776, Note_on_c, 11, 50, 92
10, 91870, Note_on_c, 11, 50, 0
10, 91872, Note_on_c, 11, 50, 92
10, 91966, Note_on_c, 11, 50, 0
10, 91968, Note_on_c, 11, 50, 92
10, 92062, Note_on_c, 11, 50, 0
10, 92064, Note_on_c, 11, 50, 92
10, 92158, Note_on_c, 11, 50, 0
10, 92160, Note_on_c, 11, 50, 92
10, 92254, Note_on_c, 11, 50, 0
10, 92256, Note_on_c, 11, 50, 92
10, 92350, Note_on_c, 11, 50, 0
10, 92352, Note_on_c, 11, 50, 92
10, 92446, Note_on_c, 11, 50, 0
10, 92448, Note_on_c, 11, 50, 92
10, 92542, Note_on_c, 11, 50, 0
10, 92544, Note_on_c, 11, 50, 92
10, 92638, Note_on_c, 11, 50, 0
10, 92640, Note_on_c, 11, 50, 92
10, 92734, Note_on_c, 11, 50, 0
10, 92736, Note_on_c, 11, 50, 92
10, 92830, Note_on_c, 11, 50, 0
10, 92832, Note_on_c, 11, 50, 92
10, 92926, Note_on_c, 11, 50, 0
10, 92928, Note_on_c, 11, 50, 45
10, 93022, Note_on_c, 11, 50, 0
10, 93024, Note_on_c, 11, 50, 45
10, 93118, Note_on_c, 11, 50, 0
10, 93120, Note_on_c, 11, 50, 45
10, 93214, Note_on_c, 11, 50, 0
10, 93216, Note_on_c, 11, 50, 45
10, 93310, Note_on_c, 11, 50, 0
10, 93312, Note_on_c, 11, 50, 45
10, 93406, Note_on_c, 11, 50, 0
10, 93408, Note_on_c, 11, 50, 45
10, 93502, Note_on_c, 11, 50, 0
10, 93504, Note_on_c, 11, 50, 45
10, 93598, Note_on_c, 11, 50, 0
10, 93600, Note_on_c, 11, 50, 45
10, 93694, Note_on_c, 11, 50, 0
10, 93696, Note_on_c, 11, 50, 45
10, 93790, Note_on_c, 11, 50, 0
10, 93792, Note_on_c, 11, 50, 45
10, 93886, Note_on_c, 11, 50, 0
10, 93888, Note_on_c, 11, 50, 45
10, 93982, Note_on_c, 11, 50, 0
10, 93984, Note_on_c, 11, 50, 45
10, 94078, Note_on_c, 11, 50, 0
10, 94080, Note_on_c, 11, 50, 45
10, 94174, Note_on_c, 11, 50, 0
10, 94176, Note_on_c, 11, 50, 45
10, 94270, Note_on_c, 11, 50, 0
10, 94272, Note_on_c, 11, 50, 45
10, 94366, Note_on_c, 11, 50, 0
10, 94368, Note_on_c, 11, 50, 45
10, 94462, Note_on_c, 11, 50, 0
10, 94464, Note_on_c, 11, 50, 45
10, 94558, Note_on_c, 11, 50, 0
10, 94560, Note_on_c, 11, 51, 45
10, 94654, Note_on_c, 11, 51, 0
10, 94656, Note_on_c, 11, 51, 45
10, 94750, Note_on_c, 11, 51, 0
10, 94752, Note_on_c, 11, 51, 45
10, 94846, Note_on_c, 11, 51, 0
10, 94848, Note_on_c, 11, 51, 45
10, 95008, Note_on_c, 11, 51, 0
10, 95232, Note_on_c, 11, 52, 45
10, 95392, Note_on_c, 11, 52, 0
10, 95616, Note_on_c, 11, 54, 45
10, 95776, Note_on_c, 11, 54, 0
10, 96000, Note_on_c, 11, 55, 45
10, 96160, Note_on_c, 11, 55, 0
10, 96384, Note_on_c, 11, 57, 45
10, 96544, Note_on_c, 11, 57, 0
10, 96768, Note_on_c, 11, 59, 45
10, 96928, Note_on_c, 11, 59, 0
10, 97152, Note_on_c, 11, 47, 45
10, 97312, Note_on_c, 11, 47, 0
10, 97536, Note_on_c, 11, 52, 45
10, 97872, Note_on_c, 11, 52, 0
10, 97920, Note_on_c, 11, 49, 45
10, 98080, Note_on_c, 11, 49, 0
10, 98304, Note_on_c, 11, 50, 45
10, 98464, Note_on_c, 11, 50, 0
10, 98688, Note_on_c, 11, 57, 45
10, 98848, Note_on_c, 11, 57, 0
10, 99072, Note_on_c, 11, 59, 45
10, 99232, Note_on_c, 11, 59, 0
10, 99456, Note_on_c, 11, 55, 45
10, 99616, Note_on_c, 11, 55, 0
10, 99840, Note_on_c, 11, 57, 45
10, 100176, Note_on_c, 11, 57, 0
10, 100224, Note_on_c, 11, 45, 45
10, 100560, Note_on_c, 11, 45, 0
10, 100608, Note_on_c, 11, 50, 45
10, 100768, Note_on_c, 11, 50, 0
10, 103776, Note_on_c, 11, 57, 45
10, 103872, Note_on_c, 11, 57, 0
10, 103872, Note_on_c, 11, 56, 45
10, 103968, Note_on_c, 11, 56, 0
10, 103968, Note_on_c, 11, 57, 45
10, 104062, Note_on_c, 11, 57, 0
10, 104064, Note_on_c, 11, 45, 45
10, 104096, Note_on_c, 11, 45, 0
10, 104160, Note_on_c, 11, 49, 45
10, 104192, Note_on_c, 11, 49, 0
10, 104256, Note_on_c, 11, 52, 45
10, 104288, Note_on_c, 11, 52, 0
10, 104352, Note_on_c, 11, 49, 45
10, 104384, Note_on_c, 11, 49, 0
10, 104448, Note_on_c, 11, 45, 45
10, 104608, Note_on_c, 11, 45, 0
10, 105312, Note_on_c, 11, 57, 45
10, 105406, Note_on_c, 11, 57, 0
10, 105408, Note_on_c, 11, 57, 45
10, 105502, Note_on_c, 11, 57, 0
10, 105504, Note_on_c, 11, 57, 45
10, 105598, Note_on_c, 11, 57, 0
10, 105600, Note_on_c, 11, 57, 45
10, 105694, Note_on_c, 11, 57, 0
10, 105696, Note_on_c, 11, 57, 45
10, 105790, Note_on_c, 11, 57, 0
10, 105792, Note_on_c, 11, 57, 45
10, 105886, Note_on_c, 11, 57, 0
10, 105888, Note_on_c, 11, 57, 45
10, 105982, Note_on_c, 11, 57, 0
10, 105984, Note_on_c, 11, 45, 45
10, 106144, Note_on_c, 11, 45, 0
10, 106848, Note_on_c, 11, 57, 45
10, 106942, Note_on_c, 11, 57, 0
10, 106944, Note_on_c, 11, 57, 45
10, 107038, Note_on_c, 11, 57, 0
10, 107040, Note_on_c, 11, 57, 45
10, 107134, Note_on_c, 11, 57, 0
10, 107136, Note_on_c, 11, 57, 45
10, 107230, Note_on_c, 11, 57, 0
10, 107232, Note_on_c, 11, 57, 45
10, 107326, Note_on_c, 11, 57, 0
10, 107328, Note_on_c, 11, 57, 45
10, 107422, Note_on_c, 11, 57, 0
10, 107424, Note_on_c, 11, 57, 45
10, 107518, Note_on_c, 11, 57, 0
10, 107520, Note_on_c, 11, 45, 45
10, 107680, Note_on_c, 11, 45, 0
10, 108384, Note_on_c, 11, 57, 45
10, 108478, Note_on_c, 11, 57, 0
10, 108480, Note_on_c, 11, 57, 45
10, 108574, Note_on_c, 11, 57, 0
10, 108576, Note_on_c, 11, 57, 45
10, 108670, Note_on_c, 11, 57, 0
10, 108672, Note_on_c, 11, 57, 45
10, 108766, Note_on_c, 11, 57, 0
10, 108768, Note_on_c, 11, 57, 45
10, 108862, Note_on_c, 11, 57, 0
10, 108864, Note_on_c, 11, 57, 45
10, 108958, Note_on_c, 11, 57, 0
10, 108960, Note_on_c, 11, 57, 45
10, 109054, Note_on_c, 11, 57, 0
10, 109056, Note_on_c, 11, 62, 45
10, 109150, Note_on_c, 11, 62, 0
10, 109152, Note_on_c, 11, 62, 45
10, 109246, Note_on_c, 11, 62, 0
10, 109248, Note_on_c, 11, 62, 45
10, 109342, Note_on_c, 11, 62, 0
10, 109344, Note_on_c, 11, 62, 45
10, 109438, Note_on_c, 11, 62, 0
10, 109440, Note_on_c, 11, 62, 45
10, 109534, Note_on_c, 11, 62, 0
10, 109536, Note_on_c, 11, 62, 45
10, 109630, Note_on_c, 11, 62, 0
10, 109632, Note_on_c, 11, 62, 45
10, 109726, Note_on_c, 11, 62, 0
10, 109728, Note_on_c, 11, 62, 45
10, 109822, Note_on_c, 11, 62, 0
10, 109824, Note_on_c, 11, 59, 45
10, 109918, Note_on_c, 11, 59, 0
10, 109920, Note_on_c, 11, 59, 45
10, 110014, Note_on_c, 11, 59, 0
10, 110016, Note_on_c, 11, 59, 45
10, 110110, Note_on_c, 11, 59, 0
10, 110112, Note_on_c, 11, 59, 45
10, 110206, Note_on_c, 11, 59, 0
10, 110208, Note_on_c, 11, 59, 45
10, 110302, Note_on_c, 11, 59, 0
10, 110304, Note_on_c, 11, 59, 45
10, 110398, Note_on_c, 11, 59, 0
10, 110400, Note_on_c, 11, 59, 45
10, 110494, Note_on_c, 11, 59, 0
10, 110496, Note_on_c, 11, 59, 45
10, 110590, Note_on_c, 11, 59, 0
10, 110592, Note_on_c, 11, 54, 45
10, 110686, Note_on_c, 11, 54, 0
10, 110688, Note_on_c, 11, 54, 45
10, 110782, Note_on_c, 11, 54, 0
10, 110784, Note_on_c, 11, 54, 45
10, 110878, Note_on_c, 11, 54, 0
10, 110880, Note_on_c, 11, 54, 45
10, 110974, Note_on_c, 11, 54, 0
10, 110976, Note_on_c, 11, 54, 45
10, 111070, Note_on_c, 11, 54, 0
10, 111072, Note_on_c, 11, 54, 45
10, 111166, Note_on_c, 11, 54, 0
10, 111168, Note_on_c, 11, 54, 45
10, 111262, Note_on_c, 11, 54, 0
10, 111264, Note_on_c, 11, 54, 45
10, 111358, Note_on_c, 11, 54, 0
10, 111360, Note_on_c, 11, 55, 45
10, 111744, Note_on_c, 11, 55, 0
10, 111744, Note_on_c, 11, 57, 45
10, 112080, Note_on_c, 11, 57, 0
10, 112128, Note_on_c, 11, 58, 92
10, 112222, Note_on_c, 11, 58, 0
10, 112224, Note_on_c, 11, 58, 45
10, 112318, Note_on_c, 11, 58, 0
10, 112320, Note_on_c, 11, 58, 45
10, 112414, Note_on_c, 11, 58, 0
10, 112416, Note_on_c, 11, 58, 45
10, 112510, Note_on_c, 11, 58, 0
10, 112512, Note_on_c, 11, 58, 45
10, 112606, Note_on_c, 11, 58, 0
10, 112608, Note_on_c, 11, 58, 45
10, 112702, Note_on_c, 11, 58, 0
10, 112704, Note_on_c, 11, 58, 45
10, 112798, Note_on_c, 11, 58, 0
10, 112800, Note_on_c, 11, 58, 45
10, 112894, Note_on_c, 11, 58, 0
10, 112896, Note_on_c, 11, 57, 45
10, 113056, Note_on_c, 11, 57, 0
10, 113280, Note_on_c, 11, 55, 45
10, 113440, Note_on_c, 11, 55, 0
10, 113664, Note_on_c, 11, 54, 45
10, 113758, Note_on_c, 11, 54, 0
10, 113856, Note_on_c, 11, 54, 45
10, 113950, Note_on_c, 11, 54, 0
10, 114048, Note_on_c, 11, 55, 45
10, 114142, Note_on_c, 11, 55, 0
10, 114240, Note_on_c, 11, 55, 45
10, 114334, Note_on_c, 11, 55, 0
10, 114432, Note_on_c, 11, 57, 45
10, 114526, Note_on_c, 11, 57, 0
10, 114528, Note_on_c, 11, 57, 45
10, 114622, Note_on_c, 11, 57, 0
10, 114624, Note_on_c, 11, 57, 45
10, 114718, Note_on_c, 11, 57, 0
10, 114720, Note_on_c, 11, 57, 45
10, 114814, Note_on_c, 11, 57, 0
10, 114816, Note_on_c, 11, 57, 45
10, 114910, Note_on_c, 11, 57, 0
10, 114912, Note_on_c, 11, 57, 45
10, 115006, Note_on_c, 11, 57, 0
10, 115008, Note_on_c, 11, 57, 45
10, 115102, Note_on_c, 11, 57, 0
10, 115104, Note_on_c, 11, 57, 45
10, 115198, Note_on_c, 11, 57, 0
10, 115200, Note_on_c, 11, 59, 92
10, 115294, Note_on_c, 11, 59, 0
10, 115296, Note_on_c, 11, 59, 92
10, 115390, Note_on_c, 11, 59, 0
10, 115392, Note_on_c, 11, 59, 92
10, 115486, Note_on_c, 11, 59, 0
10, 115488, Note_on_c, 11, 59, 92
10, 115582, Note_on_c, 11, 59, 0
10, 115584, Note_on_c, 11, 59, 92
10, 115678, Note_on_c, 11, 59, 0
10, 115680, Note_on_c, 11, 59, 92
10, 115774, Note_on_c, 11, 59, 0
10, 115776, Note_on_c, 11, 59, 92
10, 115870, Note_on_c, 11, 59, 0
10, 115872, Note_on_c, 11, 59, 92
10, 115966, Note_on_c, 11, 59, 0
10, 115968, Note_on_c, 11, 57, 92
10, 116128, Note_on_c, 11, 57, 0
10, 116160, Note_on_c, 11, 57, 92
10, 116320, Note_on_c, 11, 57, 0
10, 116352, Note_on_c, 11, 45, 92
10, 116512, Note_on_c, 11, 45, 0
10, 117504, Note_on_c, 11, 50, 45
10, 117598, Note_on_c, 11, 50, 0
10, 117600, Note_on_c, 11, 50, 45
10, 117694, Note_on_c, 11, 50, 0
10, 117696, Note_on_c, 11, 50, 45
10, 117790, Note_on_c, 11, 50, 0
10, 117792, Note_on_c, 11, 50, 45
10, 117886, Note_on_c, 11, 50, 0
10, 117888, Note_on_c, 11, 50, 45
10, 117982, Note_on_c, 11, 50, 0
10, 117984, Note_on_c, 11, 50, 45
10, 118078, Note_on_c, 11, 50, 0
10, 118080, Note_on_c, 11, 50, 45
10, 118174, Note_on_c, 11, 50, 0
10, 118176, Note_on_c, 11, 50, 45
10, 118270, Note_on_c, 11, 50, 0
10, 118272, Note_on_c, 11, 50, 45
10, 118366, Note_on_c, 11, 50, 0
10, 118368, Note_on_c, 11, 50, 45
10, 118462, Note_on_c, 11, 50, 0
10, 118464, Note_on_c, 11, 50, 45
10, 118558, Note_on_c, 11, 50, 0
10, 118560, Note_on_c, 11, 50, 45
10, 118654, Note_on_c, 11, 50, 0
10, 118656, Note_on_c, 11, 50, 45
10, 118750, Note_on_c, 11, 50, 0
10, 118752, Note_on_c, 11, 50, 45
10, 118846, Note_on_c, 11, 50, 0
10, 118848, Note_on_c, 11, 50, 45
10, 118942, Note_on_c, 11, 50, 0
10, 118944, Note_on_c, 11, 50, 45
10, 119038, Note_on_c, 11, 50, 0
10, 119040, Note_on_c, 11, 50, 45
10, 119134, Note_on_c, 11, 50, 0
10, 119136, Note_on_c, 11, 50, 45
10, 119230, Note_on_c, 11, 50, 0
10, 119232, Note_on_c, 11, 50, 45
10, 119326, Note_on_c, 11, 50, 0
10, 119328, Note_on_c, 11, 50, 45
10, 119422, Note_on_c, 11, 50, 0
10, 119424, Note_on_c, 11, 50, 45
10, 119518, Note_on_c, 11, 50, 0
10, 119520, Note_on_c, 11, 50, 45
10, 119614, Note_on_c, 11, 50, 0
10, 119616, Note_on_c, 11, 50, 45
10, 119710, Note_on_c, 11, 50, 0
10, 119712, Note_on_c, 11, 50, 45
10, 119806, Note_on_c, 11, 50, 0
10, 119808, Note_on_c, 11, 50, 45
10, 119902, Note_on_c, 11, 50, 0
10, 119904, Note_on_c, 11, 50, 45
10, 119998, Note_on_c, 11, 50, 0
10, 120000, Note_on_c, 11, 50, 45
10, 120094, Note_on_c, 11, 50, 0
10, 120096, Note_on_c, 11, 50, 45
10, 120190, Note_on_c, 11, 50, 0
10, 120192, Note_on_c, 11, 50, 45
10, 120286, Note_on_c, 11, 50, 0
10, 120288, Note_on_c, 11, 50, 45
10, 120382, Note_on_c, 11, 50, 0
10, 120384, Note_on_c, 11, 50, 45
10, 120478, Note_on_c, 11, 50, 0
10, 120480, Note_on_c, 11, 50, 45
10, 120574, Note_on_c, 11, 50, 0
10, 120576, Note_on_c, 11, 50, 45
10, 120736, Note_on_c, 11, 50, 0
10, 123648, Note_on_c, 11, 50, 45
10, 123742, Note_on_c, 11, 50, 0
10, 123744, Note_on_c, 11, 50, 45
10, 123838, Note_on_c, 11, 50, 0
10, 123840, Note_on_c, 11, 50, 45
10, 123934, Note_on_c, 11, 50, 0
10, 123936, Note_on_c, 11, 50, 45
10, 124030, Note_on_c, 11, 50, 0
10, 124032, Note_on_c, 11, 50, 45
10, 124126, Note_on_c, 11, 50, 0
10, 124128, Note_on_c, 11, 50, 45
10, 124222, Note_on_c, 11, 50, 0
10, 124224, Note_on_c, 11, 50, 45
10, 124318, Note_on_c, 11, 50, 0
10, 124320, Note_on_c, 11, 50, 45
10, 124414, Note_on_c, 11, 50, 0
10, 124416, Note_on_c, 11, 50, 45
10, 124510, Note_on_c, 11, 50, 0
10, 124512, Note_on_c, 11, 50, 45
10, 124606, Note_on_c, 11, 50, 0
10, 124608, Note_on_c, 11, 50, 45
10, 124702, Note_on_c, 11, 50, 0
10, 124704, Note_on_c, 11, 50, 45
10, 124798, Note_on_c, 11, 50, 0
10, 124800, Note_on_c, 11, 50, 45
10, 124894, Note_on_c, 11, 50, 0
10, 124896, Note_on_c, 11, 50, 45
10, 124990, Note_on_c, 11, 50, 0
10, 124992, Note_on_c, 11, 50, 45
10, 125086, Note_on_c, 11, 50, 0
10, 125088, Note_on_c, 11, 50, 45
10, 125182, Note_on_c, 11, 50, 0
10, 125184, Note_on_c, 11, 50, 45
10, 125344, Note_on_c, 11, 50, 0
10, 127488, Note_on_c, 11, 54, 45
10, 127648, Note_on_c, 11, 54, 0
10, 127968, Note_on_c, 11, 54, 45
10, 128062, Note_on_c, 11, 54, 0
10, 128064, Note_on_c, 11, 54, 45
10, 128158, Note_on_c, 11, 54, 0
10, 128160, Note_on_c, 11, 54, 45
10, 128254, Note_on_c, 11, 54, 0
10, 128256, Note_on_c, 11, 55, 45
10, 128416, Note_on_c, 11, 55, 0
10, 128736, Note_on_c, 11, 55, 45
10, 128830, Note_on_c, 11, 55, 0
10, 128832, Note_on_c, 11, 55, 45
10, 128926, Note_on_c, 11, 55, 0
10, 128928, Note_on_c, 11, 55, 45
10, 129022, Note_on_c, 11, 55, 0
10, 129024, Note_on_c, 11, 57, 45
10, 129118, Note_on_c, 11, 57, 0
10, 129120, Note_on_c, 11, 57, 45
10, 129214, Note_on_c, 11, 57, 0
10, 129216, Note_on_c, 11, 57, 45
10, 129310, Note_on_c, 11, 57, 0
10, 129312, Note_on_c, 11, 57, 45
10, 129406, Note_on_c, 11, 57, 0
10, 129408, Note_on_c, 11, 57, 45
10, 129502, Note_on_c, 11, 57, 0
10, 129504, Note_on_c, 11, 57, 45
10, 129598, Note_on_c, 11, 57, 0
10, 129600, Note_on_c, 11, 55, 45
10, 129694, Note_on_c, 11, 55, 0
10, 129696, Note_on_c, 11, 55, 45
10, 129790, Note_on_c, 11, 55, 0
10, 129792, Note_on_c, 11, 54, 45
10, 129952, Note_on_c, 11, 54, 0
10, 130272, Note_on_c, 11, 54, 45
10, 130366, Note_on_c, 11, 54, 0
10, 130368, Note_on_c, 11, 54, 45
10, 130462, Note_on_c, 11, 54, 0
10, 130464, Note_on_c, 11, 54, 45
10, 130558, Note_on_c, 11, 54, 0
10, 130560, Note_on_c, 11, 55, 45
10, 130720, Note_on_c, 11, 55, 0
10, 131040, Note_on_c, 11, 55, 45
10, 131134, Note_on_c, 11, 55, 0
10, 131136, Note_on_c, 11, 55, 45
10, 131230, Note_on_c, 11, 55, 0
10, 131232, Note_on_c, 11, 56, 45
10, 131326, Note_on_c, 11, 56, 0
10, 131328, Note_on_c, 11, 57, 45
10, 131422, Note_on_c, 11, 57, 0
10, 131424, Note_on_c, 11, 57, 45
10, 131518, Note_on_c, 11, 57, 0
10, 131520, Note_on_c, 11, 57, 45
10, 131614, Note_on_c, 11, 57, 0
10, 131616, Note_on_c, 11, 57, 45
10, 131710, Note_on_c, 11, 57, 0
10, 131712, Note_on_c, 11, 57, 45
10, 131806, Note_on_c, 11, 57, 0
10, 131808, Note_on_c, 11, 57, 45
10, 131902, Note_on_c, 11, 57, 0
10, 131904, Note_on_c, 11, 57, 45
10, 131998, Note_on_c, 11, 57, 0
10, 132000, Note_on_c, 11, 57, 45
10, 132094, Note_on_c, 11, 57, 0
10, 132096, Note_on_c, 11, 57, 45
10, 132190, Note_on_c, 11, 57, 0
10, 132192, Note_on_c, 11, 57, 45
10, 132286, Note_on_c, 11, 57, 0
10, 132288, Note_on_c, 11, 57, 45
10, 132382, Note_on_c, 11, 57, 0
10, 132384, Note_on_c, 11, 57, 52
10, 132478, Note_on_c, 11, 57, 0
10, 132480, Note_on_c, 11, 57, 60
10, 132574, Note_on_c, 11, 57, 0
10, 132576, Note_on_c, 11, 57, 68
10, 132670, Note_on_c, 11, 57, 0
10, 132672, Note_on_c, 11, 57, 76
10, 132766, Note_on_c, 11, 57, 0
10, 132768, Note_on_c, 11, 57, 84
10, 132862, Note_on_c, 11, 57, 0
10, 132864, Note_on_c, 11, 50, 92
10, 132896, Note_on_c, 11, 50, 0
10, 132960, Note_on_c, 11, 50, 92
10, 132992, Note_on_c, 11, 50, 0
10, 133056, Note_on_c, 11, 50, 92
10, 133088, Note_on_c, 11, 50, 0
10, 133152, Note_on_c, 11, 62, 92
10, 133184, Note_on_c, 11, 62, 0
10, 133248, Note_on_c, 11, 61, 92
10, 133344, Note_on_c, 11, 61, 0
10, 133344, Note_on_c, 11, 62, 92
10, 133438, Note_on_c, 11, 62, 0
10, 133440, Note_on_c, 11, 62, 92
10, 133472, Note_on_c, 11, 62, 0
10, 133536, Note_on_c, 11, 62, 92
10, 133568, Note_on_c, 11, 62, 0
10, 133632, Note_on_c, 11, 59, 92
10, 133726, Note_on_c, 11, 59, 0
10, 133728, Note_on_c, 11, 62, 92
10, 133822, Note_on_c, 11, 62, 0
10, 133824, Note_on_c, 11, 57, 92
10, 133918, Note_on_c, 11, 57, 0
10, 133920, Note_on_c, 11, 62, 92
10, 134014, Note_on_c, 11, 62, 0
10, 134016, Note_on_c, 11, 61, 92
10, 134112, Note_on_c, 11, 61, 0
10, 134112, Note_on_c, 11, 62, 92
10, 134206, Note_on_c, 11, 62, 0
10, 134208, Note_on_c, 11, 62, 92
10, 134240, Note_on_c, 11, 62, 0
10, 134304, Note_on_c, 11, 62, 92
10, 134336, Note_on_c, 11, 62, 0
10, 134400, Note_on_c, 11, 54, 92
10, 134494, Note_on_c, 11, 54, 0
10, 134496, Note_on_c, 11, 62, 92
10, 134590, Note_on_c, 11, 62, 0
10, 134592, Note_on_c, 11, 55, 92
10, 134686, Note_on_c, 11, 55, 0
10, 134688, Note_on_c, 11, 62, 92
10, 134782, Note_on_c, 11, 62, 0
10, 134784, Note_on_c, 11, 61, 92
10, 134880, Note_on_c, 11, 61, 0
10, 134880, Note_on_c, 11, 62, 92
10, 134974, Note_on_c, 11, 62, 0
10, 134976, Note_on_c, 11, 62, 92
10, 135008, Note_on_c, 11, 62, 0
10, 135072, Note_on_c, 11, 62, 92
10, 135104, Note_on_c, 11, 62, 0
10, 135168, Note_on_c, 11, 56, 92
10, 135200, Note_on_c, 11, 56, 0
10, 135264, Note_on_c, 11, 62, 92
10, 135296, Note_on_c, 11, 62, 0
10, 135360, Note_on_c, 11, 64, 92
10, 135384, Note_on_c, 11, 64, 0
10, 135384, Note_on_c, 11, 62, 92
10, 135408, Note_on_c, 11, 62, 0
10, 135408, Note_on_c, 11, 64, 92
10, 135432, Note_on_c, 11, 64, 0
10, 135432, Note_on_c, 11, 62, 92
10, 135456, Note_on_c, 11, 62, 0
10, 135456, Note_on_c, 11, 64, 92
10, 135480, Note_on_c, 11, 64, 0
10, 135480, Note_on_c, 11, 62, 92
10, 135504, Note_on_c, 11, 62, 0
10, 135504, Note_on_c, 11, 61, 92
10, 135528, Note_on_c, 11, 61, 0
10, 135528, Note_on_c, 11, 62, 92
10, 135550, Note_on_c, 11, 62, 0
10, 135552, Note_on_c, 11, 66, 92
10, 135584, Note_on_c, 11, 66, 0
10, 135648, Note_on_c, 11, 62, 92
10, 135680, Note_on_c, 11, 62, 0
10, 135744, Note_on_c, 11, 59, 92
10, 135776, Note_on_c, 11, 59, 0
10, 135840, Note_on_c, 11, 56, 92
10, 135872, Note_on_c, 11, 56, 0
10, 135936, Note_on_c, 11, 57, 92
10, 136272, Note_on_c, 11, 57, 0
10, 165888, Note_on_c, 11, 50, 92
10, 165982, Note_on_c, 11, 50, 0
10, 165984, Note_on_c, 11, 54, 92
10, 166078, Note_on_c, 11, 54, 0
10, 166080, Note_on_c, 11, 57, 92
10, 166174, Note_on_c, 11, 57, 0
10, 166176, Note_on_c, 11, 54, 92
10, 166270, Note_on_c, 11, 54, 0
10, 166272, Note_on_c, 11, 50, 92
10, 166366, Note_on_c, 11, 50, 0
10, 166368, Note_on_c, 11, 54, 92
10, 166462, Note_on_c, 11, 54, 0
10, 166464, Note_on_c, 11, 57, 92
10, 166558, Note_on_c, 11, 57, 0
10, 166560, Note_on_c, 11, 54, 92
10, 166654, Note_on_c, 11, 54, 0
10, 166656, Note_on_c, 11, 55, 92
10, 166750, Note_on_c, 11, 55, 0
10, 166752, Note_on_c, 11, 55, 92
10, 166846, Note_on_c, 11, 55, 0
10, 166848, Note_on_c, 11, 55, 92
10, 166942, Note_on_c, 11, 55, 0
10, 166944, Note_on_c, 11, 55, 92
10, 167038, Note_on_c, 11, 55, 0
10, 167040, Note_on_c, 11, 55, 92
10, 167134, Note_on_c, 11, 55, 0
10, 167136, Note_on_c, 11, 55, 92
10, 167230, Note_on_c, 11, 55, 0
10, 167232, Note_on_c, 11, 55, 92
10, 167326, Note_on_c, 11, 55, 0
10, 167328, Note_on_c, 11, 55, 92
10, 167422, Note_on_c, 11, 55, 0
10, 167424, Note_on_c, 11, 57, 92
10, 167518, Note_on_c, 11, 57, 0
10, 167520, Note_on_c, 11, 57, 92
10, 167614, Note_on_c, 11, 57, 0
10, 167616, Note_on_c, 11, 57, 92
10, 167710, Note_on_c, 11, 57, 0
10, 167712, Note_on_c, 11, 57, 92
10, 167806, Note_on_c, 11, 57, 0
10, 167808, Note_on_c, 11, 45, 92
10, 167902, Note_on_c, 11, 45, 0
10, 167904, Note_on_c, 11, 45, 92
10, 167998, Note_on_c, 11, 45, 0
10, 168000, Note_on_c, 11, 45, 92
10, 168094, Note_on_c, 11, 45, 0
10, 168096, Note_on_c, 11, 45, 92
10, 168190, Note_on_c, 11, 45, 0
10, 168192, Note_on_c, 11, 50, 92
10, 168352, Note_on_c, 11, 50, 0
10, 169152, Note_on_c, 11, 50, 92
10, 169246, Note_on_c, 11, 50, 0
10, 169248, Note_on_c, 11, 54, 92
10, 169342, Note_on_c, 11, 54, 0
10, 169344, Note_on_c, 11, 57, 92
10, 169438, Note_on_c, 11, 57, 0
10, 169440, Note_on_c, 11, 57, 92
10, 169534, Note_on_c, 11, 57, 0
10, 169536, Note_on_c, 11, 57, 92
10, 169630, Note_on_c, 11, 57, 0
10, 169632, Note_on_c, 11, 57, 92
10, 169726, Note_on_c, 11, 57, 0
10, 169728, Note_on_c, 11, 62, 92
10, 169822, Note_on_c, 11, 62, 0
10, 170688, Note_on_c, 11, 50, 92
10, 170782, Note_on_c, 11, 50, 0
10, 170784, Note_on_c, 11, 54, 92
10, 170878, Note_on_c, 11, 54, 0
10, 170880, Note_on_c, 11, 57, 92
10, 170974, Note_on_c, 11, 57, 0
10, 170976, Note_on_c, 11, 57, 92
10, 171070, Note_on_c, 11, 57, 0
10, 171072, Note_on_c, 11, 57, 92
10, 171166, Note_on_c, 11, 57, 0
10, 171168, Note_on_c, 11, 57, 92
10, 171262, Note_on_c, 11, 57, 0
10, 171264, Note_on_c, 11, 62, 92
10, 171358, Note_on_c, 11, 62, 0
10, 171360, Note_on_c, 11, 57, 92
10, 171454, Note_on_c, 11, 57, 0
10, 171456, Note_on_c, 11, 54, 92
10, 171550, Note_on_c, 11, 54, 0
10, 171552, Note_on_c, 11, 50, 92
10, 171646, Note_on_c, 11, 50, 0
10, 171648, Note_on_c, 11, 45, 92
10, 171742, Note_on_c, 11, 45, 0
10, 171744, Note_on_c, 11, 45, 92
10, 171838, Note_on_c, 11, 45, 0
10, 171840, Note_on_c, 11, 57, 92
10, 171934, Note_on_c, 11, 57, 0
10, 171936, Note_on_c, 11, 57, 92
10, 172030, Note_on_c, 11, 57, 0
10, 172032, Note_on_c, 11, 50, 92
10, 172064, Note_on_c, 11, 50, 0
10, 172128, Note_on_c, 11, 62, 92
10, 172160, Note_on_c, 11, 62, 0
10, 172224, Note_on_c, 11, 64, 92
10, 172248, Note_on_c, 11, 64, 0
10, 172248, Note_on_c, 11, 62, 92
10, 172272, Note_on_c, 11, 62, 0
10, 172272, Note_on_c, 11, 64, 92
10, 172296, Note_on_c, 11, 64, 0
10, 172296, Note_on_c, 11, 62, 92
10, 172320, Note_on_c, 11, 62, 0
10, 172320, Note_on_c, 11, 64, 92
10, 172344, Note_on_c, 11, 64, 0
10, 172344, Note_on_c, 11, 62, 92
10, 172368, Note_on_c, 11, 62, 0
10, 172368, Note_on_c, 11, 61, 92
10, 172392, Note_on_c, 11, 61, 0
10, 172392, Note_on_c, 11, 62, 92
10, 172414, Note_on_c, 11, 62, 0
10, 172416, Note_on_c, 11, 66, 92
10, 172448, Note_on_c, 11, 66, 0
10, 172512, Note_on_c, 11, 62, 92
10, 172544, Note_on_c, 11, 62, 0
10, 172608, Note_on_c, 11, 57, 92
10, 172640, Note_on_c, 11, 57, 0
10, 172704, Note_on_c, 11, 54, 92
10, 172736, Note_on_c, 11, 54, 0
10, 172800, Note_on_c, 11, 50, 92
10, 172960, Note_on_c, 11, 50, 0
10, 172992, Note_on_c, 11, 50, 92
10, 173152, Note_on_c, 11, 50, 0
10, 173184, Note_on_c, 11, 50, 92
10, 173440, Note_on_c, 11, 50, 0
10, 173440, End_track
11, 0, Start_track
11, 0, MIDI_port, 0
11, 0, Title_t, "e Contrabasso"
11, 0, Program_c, 12, 43
11, 0, Control_c, 12, 7, 127
11, 0, Control_c, 12, 10, 64
11, 0, Note_on_c, 12, 38, 92
11, 94, Note_on_c, 12, 38, 0
11, 96, Note_on_c, 12, 38, 92
11, 190, Note_on_c, 12, 38, 0
11, 192, Note_on_c, 12, 38, 92
11, 286, Note_on_c, 12, 38, 0
11, 288, Note_on_c, 12, 38, 92
11, 382, Note_on_c, 12, 38, 0
11, 384, Note_on_c, 12, 38, 92
11, 478, Note_on_c, 12, 38, 0
11, 480, Note_on_c, 12, 38, 92
11, 574, Note_on_c, 12, 38, 0
11, 576, Note_on_c, 12, 38, 92
11, 670, Note_on_c, 12, 38, 0
11, 672, Note_on_c, 12, 38, 92
11, 766, Note_on_c, 12, 38, 0
11, 768, Note_on_c, 12, 38, 92
11, 862, Note_on_c, 12, 38, 0
11, 864, Note_on_c, 12, 38, 92
11, 958, Note_on_c, 12, 38, 0
11, 960, Note_on_c, 12, 38, 92
11, 1054, Note_on_c, 12, 38, 0
11, 1056, Note_on_c, 12, 38, 92
11, 1150, Note_on_c, 12, 38, 0
11, 1152, Note_on_c, 12, 38, 92
11, 1246, Note_on_c, 12, 38, 0
11, 1248, Note_on_c, 12, 38, 92
11, 1342, Note_on_c, 12, 38, 0
11, 1344, Note_on_c, 12, 38, 92
11, 1438, Note_on_c, 12, 38, 0
11, 1440, Note_on_c, 12, 38, 92
11, 1534, Note_on_c, 12, 38, 0
11, 1536, Note_on_c, 12, 38, 92
11, 1630, Note_on_c, 12, 38, 0
11, 1632, Note_on_c, 12, 38, 92
11, 1726, Note_on_c, 12, 38, 0
11, 1728, Note_on_c, 12, 38, 92
11, 1822, Note_on_c, 12, 38, 0
11, 1824, Note_on_c, 12, 38, 92
11, 1918, Note_on_c, 12, 38, 0
11, 1920, Note_on_c, 12, 38, 92
11, 2014, Note_on_c, 12, 38, 0
11, 2016, Note_on_c, 12, 38, 92
11, 2110, Note_on_c, 12, 38, 0
11, 2112, Note_on_c, 12, 38, 92
11, 2206, Note_on_c, 12, 38, 0
11, 2208, Note_on_c, 12, 38, 92
11, 2302, Note_on_c, 12, 38, 0
11, 2304, Note_on_c, 12, 38, 92
11, 2398, Note_on_c, 12, 38, 0
11, 2400, Note_on_c, 12, 38, 92
11, 2494, Note_on_c, 12, 38, 0
11, 2496, Note_on_c, 12, 38, 92
11, 2590, Note_on_c, 12, 38, 0
11, 2592, Note_on_c, 12, 38, 92
11, 2686, Note_on_c, 12, 38, 0
11, 2688, Note_on_c, 12, 38, 92
11, 2782, Note_on_c, 12, 38, 0
11, 2784, Note_on_c, 12, 38, 92
11, 2878, Note_on_c, 12, 38, 0
11, 2880, Note_on_c, 12, 38, 92
11, 2974, Note_on_c, 12, 38, 0
11, 2976, Note_on_c, 12, 38, 92
11, 3070, Note_on_c, 12, 38, 0
11, 3072, Note_on_c, 12, 38, 92
11, 3166, Note_on_c, 12, 38, 0
11, 3168, Note_on_c, 12, 50, 92
11, 3262, Note_on_c, 12, 50, 0
11, 3264, Note_on_c, 12, 38, 92
11, 3358, Note_on_c, 12, 38, 0
11, 3360, Note_on_c, 12, 38, 92
11, 3454, Note_on_c, 12, 38, 0
11, 3456, Note_on_c, 12, 38, 92
11, 3616, Note_on_c, 12, 38, 0
11, 3840, Note_on_c, 12, 42, 45
11, 3934, Note_on_c, 12, 42, 0
11, 3936, Note_on_c, 12, 42, 45
11, 4030, Note_on_c, 12, 42, 0
11, 4032, Note_on_c, 12, 42, 45
11, 4126, Note_on_c, 12, 42, 0
11, 4128, Note_on_c, 12, 42, 45
11, 4222, Note_on_c, 12, 42, 0
11, 4224, Note_on_c, 12, 42, 45
11, 4318, Note_on_c, 12, 42, 0
11, 4320, Note_on_c, 12, 42, 45
11, 4414, Note_on_c, 12, 42, 0
11, 4416, Note_on_c, 12, 42, 45
11, 4510, Note_on_c, 12, 42, 0
11, 4512, Note_on_c, 12, 42, 45
11, 4606, Note_on_c, 12, 42, 0
11, 4608, Note_on_c, 12, 43, 45
11, 4702, Note_on_c, 12, 43, 0
11, 4704, Note_on_c, 12, 43, 45
11, 4798, Note_on_c, 12, 43, 0
11, 4800, Note_on_c, 12, 43, 45
11, 4894, Note_on_c, 12, 43, 0
11, 4896, Note_on_c, 12, 43, 45
11, 4990, Note_on_c, 12, 43, 0
11, 4992, Note_on_c, 12, 43, 45
11, 5086, Note_on_c, 12, 43, 0
11, 5088, Note_on_c, 12, 43, 45
11, 5182, Note_on_c, 12, 43, 0
11, 5184, Note_on_c, 12, 43, 45
11, 5278, Note_on_c, 12, 43, 0
11, 5280, Note_on_c, 12, 43, 45
11, 5374, Note_on_c, 12, 43, 0
11, 5376, Note_on_c, 12, 45, 92
11, 5470, Note_on_c, 12, 45, 0
11, 5472, Note_on_c, 12, 45, 92
11, 5566, Note_on_c, 12, 45, 0
11, 5568, Note_on_c, 12, 45, 92
11, 5662, Note_on_c, 12, 45, 0
11, 5664, Note_on_c, 12, 45, 92
11, 5758, Note_on_c, 12, 45, 0
11, 5760, Note_on_c, 12, 45, 92
11, 5854, Note_on_c, 12, 45, 0
11, 5856, Note_on_c, 12, 45, 92
11, 5950, Note_on_c, 12, 45, 0
11, 5952, Note_on_c, 12, 45, 92
11, 6046, Note_on_c, 12, 45, 0
11, 6048, Note_on_c, 12, 45, 92
11, 6142, Note_on_c, 12, 45, 0
11, 6144, Note_on_c, 12, 45, 92
11, 6238, Note_on_c, 12, 45, 0
11, 6240, Note_on_c, 12, 45, 92
11, 6334, Note_on_c, 12, 45, 0
11, 6336, Note_on_c, 12, 45, 92
11, 6430, Note_on_c, 12, 45, 0
11, 6432, Note_on_c, 12, 45, 92
11, 6526, Note_on_c, 12, 45, 0
11, 6528, Note_on_c, 12, 45, 92
11, 6622, Note_on_c, 12, 45, 0
11, 6624, Note_on_c, 12, 45, 92
11, 6718, Note_on_c, 12, 45, 0
11, 6720, Note_on_c, 12, 45, 92
11, 6814, Note_on_c, 12, 45, 0
11, 6816, Note_on_c, 12, 45, 92
11, 6910, Note_on_c, 12, 45, 0
11, 6912, Note_on_c, 12, 47, 92
11, 7006, Note_on_c, 12, 47, 0
11, 7008, Note_on_c, 12, 47, 92
11, 7102, Note_on_c, 12, 47, 0
11, 7104, Note_on_c, 12, 47, 92
11, 7198, Note_on_c, 12, 47, 0
11, 7200, Note_on_c, 12, 47, 92
11, 7294, Note_on_c, 12, 47, 0
11, 7296, Note_on_c, 12, 47, 92
11, 7390, Note_on_c, 12, 47, 0
11, 7392, Note_on_c, 12, 47, 92
11, 7486, Note_on_c, 12, 47, 0
11, 7488, Note_on_c, 12, 47, 92
11, 7582, Note_on_c, 12, 47, 0
11, 7584, Note_on_c, 12, 47, 92
11, 7678, Note_on_c, 12, 47, 0
11, 7680, Note_on_c, 12, 45, 92
11, 7840, Note_on_c, 12, 45, 0
11, 7872, Note_on_c, 12, 45, 92
11, 8032, Note_on_c, 12, 45, 0
11, 8064, Note_on_c, 12, 33, 92
11, 8224, Note_on_c, 12, 33, 0
11, 9216, Note_on_c, 12, 38, 45
11, 9310, Note_on_c, 12, 38, 0
11, 9312, Note_on_c, 12, 38, 45
11, 9406, Note_on_c, 12, 38, 0
11, 9408, Note_on_c, 12, 38, 45
11, 9502, Note_on_c, 12, 38, 0
11, 9504, Note_on_c, 12, 38, 45
11, 9598, Note_on_c, 12, 38, 0
11, 9600, Note_on_c, 12, 38, 45
11, 9694, Note_on_c, 12, 38, 0
11, 9696, Note_on_c, 12, 38, 45
11, 9790, Note_on_c, 12, 38, 0
11, 9792, Note_on_c, 12, 38, 45
11, 9886, Note_on_c, 12, 38, 0
11, 9888, Note_on_c, 12, 38, 45
11, 9982, Note_on_c, 12, 38, 0
11, 9984, Note_on_c, 12, 38, 45
11, 10078, Note_on_c, 12, 38, 0
11, 10080, Note_on_c, 12, 38, 45
11, 10174, Note_on_c, 12, 38, 0
11, 10176, Note_on_c, 12, 38, 45
11, 10270, Note_on_c, 12, 38, 0
11, 10272, Note_on_c, 12, 38, 45
11, 10366, Note_on_c, 12, 38, 0
11, 10368, Note_on_c, 12, 38, 45
11, 10462, Note_on_c, 12, 38, 0
11, 10464, Note_on_c, 12, 38, 45
11, 10558, Note_on_c, 12, 38, 0
11, 10560, Note_on_c, 12, 38, 45
11, 10654, Note_on_c, 12, 38, 0
11, 10656, Note_on_c, 12, 38, 45
11, 10750, Note_on_c, 12, 38, 0
11, 10752, Note_on_c, 12, 38, 45
11, 10846, Note_on_c, 12, 38, 0
11, 10848, Note_on_c, 12, 38, 45
11, 10942, Note_on_c, 12, 38, 0
11, 10944, Note_on_c, 12, 38, 45
11, 11038, Note_on_c, 12, 38, 0
11, 11040, Note_on_c, 12, 38, 45
11, 11134, Note_on_c, 12, 38, 0
11, 11136, Note_on_c, 12, 38, 45
11, 11230, Note_on_c, 12, 38, 0
11, 11232, Note_on_c, 12, 38, 45
11, 11326, Note_on_c, 12, 38, 0
11, 11328, Note_on_c, 12, 38, 45
11, 11422, Note_on_c, 12, 38, 0
11, 11424, Note_on_c, 12, 38, 45
11, 11518, Note_on_c, 12, 38, 0
11, 11520, Note_on_c, 12, 38, 45
11, 11614, Note_on_c, 12, 38, 0
11, 11616, Note_on_c, 12, 38, 45
11, 11710, Note_on_c, 12, 38, 0
11, 11712, Note_on_c, 12, 38, 45
11, 11806, Note_on_c, 12, 38, 0
11, 11808, Note_on_c, 12, 38, 45
11, 11902, Note_on_c, 12, 38, 0
11, 11904, Note_on_c, 12, 38, 45
11, 11998, Note_on_c, 12, 38, 0
11, 12000, Note_on_c, 12, 38, 45
11, 12094, Note_on_c, 12, 38, 0
11, 12096, Note_on_c, 12, 38, 45
11, 12190, Note_on_c, 12, 38, 0
11, 12192, Note_on_c, 12, 38, 45
11, 12286, Note_on_c, 12, 38, 0
11, 12288, Note_on_c, 12, 38, 45
11, 12672, Note_on_c, 12, 38, 0
11, 12672, Note_on_c, 12, 40, 45
11, 13008, Note_on_c, 12, 40, 0
11, 13056, Note_on_c, 12, 42, 45
11, 13440, Note_on_c, 12, 42, 0
11, 13440, Note_on_c, 12, 37, 45
11, 13776, Note_on_c, 12, 37, 0
11, 13824, Note_on_c, 12, 38, 45
11, 14208, Note_on_c, 12, 38, 0
11, 14208, Note_on_c, 12, 40, 45
11, 14544, Note_on_c, 12, 40, 0
11, 14592, Note_on_c, 12, 42, 45
11, 14784, Note_on_c, 12, 42, 0
11, 14784, Note_on_c, 12, 38, 45
11, 14944, Note_on_c, 12, 38, 0
11, 14976, Note_on_c, 12, 37, 45
11, 15168, Note_on_c, 12, 37, 0
11, 15168, Note_on_c, 12, 45, 45
11, 15328, Note_on_c, 12, 45, 0
11, 15360, Note_on_c, 12, 38, 45
11, 15454, Note_on_c, 12, 38, 0
11, 15456, Note_on_c, 12, 38, 45
11, 15550, Note_on_c, 12, 38, 0
11, 15552, Note_on_c, 12, 38, 45
11, 15646, Note_on_c, 12, 38, 0
11, 15648, Note_on_c, 12, 38, 45
11, 15742, Note_on_c, 12, 38, 0
11, 15744, Note_on_c, 12, 38, 45
11, 15838, Note_on_c, 12, 38, 0
11, 15840, Note_on_c, 12, 38, 48
11, 15934, Note_on_c, 12, 38, 0
11, 15936, Note_on_c, 12, 38, 52
11, 16030, Note_on_c, 12, 38, 0
11, 16032, Note_on_c, 12, 38, 56
11, 16126, Note_on_c, 12, 38, 0
11, 16128, Note_on_c, 12, 38, 60
11, 16222, Note_on_c, 12, 38, 0
11, 16224, Note_on_c, 12, 38, 64
11, 16318, Note_on_c, 12, 38, 0
11, 16320, Note_on_c, 12, 38, 68
11, 16414, Note_on_c, 12, 38, 0
11, 16416, Note_on_c, 12, 38, 72
11, 16510, Note_on_c, 12, 38, 0
11, 16512, Note_on_c, 12, 38, 76
11, 16606, Note_on_c, 12, 38, 0
11, 16608, Note_on_c, 12, 38, 80
11, 16702, Note_on_c, 12, 38, 0
11, 16704, Note_on_c, 12, 38, 84
11, 16798, Note_on_c, 12, 38, 0
11, 16800, Note_on_c, 12, 38, 88
11, 16894, Note_on_c, 12, 38, 0
11, 16896, Note_on_c, 12, 38, 92
11, 16990, Note_on_c, 12, 38, 0
11, 16992, Note_on_c, 12, 42, 92
11, 17086, Note_on_c, 12, 42, 0
11, 17088, Note_on_c, 12, 45, 92
11, 17182, Note_on_c, 12, 45, 0
11, 17184, Note_on_c, 12, 42, 92
11, 17278, Note_on_c, 12, 42, 0
11, 17280, Note_on_c, 12, 38, 92
11, 17374, Note_on_c, 12, 38, 0
11, 17376, Note_on_c, 12, 42, 92
11, 17470, Note_on_c, 12, 42, 0
11, 17472, Note_on_c, 12, 45, 92
11, 17566, Note_on_c, 12, 45, 0
11, 17568, Note_on_c, 12, 42, 92
11, 17662, Note_on_c, 12, 42, 0
11, 17664, Note_on_c, 12, 43, 92
11, 17758, Note_on_c, 12, 43, 0
11, 17760, Note_on_c, 12, 43, 92
11, 17854, Note_on_c, 12, 43, 0
11, 17856, Note_on_c, 12, 43, 92
11, 17950, Note_on_c, 12, 43, 0
11, 17952, Note_on_c, 12, 43, 92
11, 18046, Note_on_c, 12, 43, 0
11, 18048, Note_on_c, 12, 43, 92
11, 18142, Note_on_c, 12, 43, 0
11, 18144, Note_on_c, 12, 43, 92
11, 18238, Note_on_c, 12, 43, 0
11, 18240, Note_on_c, 12, 43, 92
11, 18334, Note_on_c, 12, 43, 0
11, 18336, Note_on_c, 12, 43, 92
11, 18430, Note_on_c, 12, 43, 0
11, 18432, Note_on_c, 12, 45, 92
11, 18526, Note_on_c, 12, 45, 0
11, 18528, Note_on_c, 12, 45, 92
11, 18622, Note_on_c, 12, 45, 0
11, 18624, Note_on_c, 12, 45, 92
11, 18718, Note_on_c, 12, 45, 0
11, 18720, Note_on_c, 12, 45, 92
11, 18814, Note_on_c, 12, 45, 0
11, 18816, Note_on_c, 12, 33, 92
11, 18910, Note_on_c, 12, 33, 0
11, 18912, Note_on_c, 12, 33, 92
11, 19006, Note_on_c, 12, 33, 0
11, 19008, Note_on_c, 12, 33, 92
11, 19102, Note_on_c, 12, 33, 0
11, 19104, Note_on_c, 12, 33, 92
11, 19198, Note_on_c, 12, 33, 0
11, 19200, Note_on_c, 12, 38, 92
11, 19360, Note_on_c, 12, 38, 0
11, 20160, Note_on_c, 12, 38, 92
11, 20254, Note_on_c, 12, 38, 0
11, 20256, Note_on_c, 12, 42, 92
11, 20350, Note_on_c, 12, 42, 0
11, 20352, Note_on_c, 12, 45, 92
11, 20446, Note_on_c, 12, 45, 0
11, 20448, Note_on_c, 12, 45, 92
11, 20542, Note_on_c, 12, 45, 0
11, 20544, Note_on_c, 12, 45, 92
11, 20638, Note_on_c, 12, 45, 0
11, 20640, Note_on_c, 12, 45, 92
11, 20734, Note_on_c, 12, 45, 0
11, 20736, Note_on_c, 12, 50, 92
11, 20830, Note_on_c, 12, 50, 0
11, 21696, Note_on_c, 12, 38, 92
11, 21790, Note_on_c, 12, 38, 0
11, 21792, Note_on_c, 12, 42, 92
11, 21886, Note_on_c, 12, 42, 0
11, 21888, Note_on_c, 12, 45, 92
11, 21982, Note_on_c, 12, 45, 0
11, 21984, Note_on_c, 12, 45, 92
11, 22078, Note_on_c, 12, 45, 0
11, 22080, Note_on_c, 12, 45, 92
11, 22174, Note_on_c, 12, 45, 0
11, 22176, Note_on_c, 12, 45, 92
11, 22270, Note_on_c, 12, 45, 0
11, 22272, Note_on_c, 12, 50, 92
11, 22366, Note_on_c, 12, 50, 0
11, 22368, Note_on_c, 12, 45, 92
11, 22462, Note_on_c, 12, 45, 0
11, 22464, Note_on_c, 12, 42, 92
11, 22558, Note_on_c, 12, 42, 0
11, 22560, Note_on_c, 12, 38, 92
11, 22654, Note_on_c, 12, 38, 0
11, 22656, Note_on_c, 12, 33, 92
11, 22750, Note_on_c, 12, 33, 0
11, 22752, Note_on_c, 12, 33, 92
11, 22846, Note_on_c, 12, 33, 0
11, 22848, Note_on_c, 12, 45, 92
11, 22942, Note_on_c, 12, 45, 0
11, 22944, Note_on_c, 12, 45, 92
11, 23038, Note_on_c, 12, 45, 0
11, 23040, Note_on_c, 12, 38, 92
11, 23072, Note_on_c, 12, 38, 0
11, 23136, Note_on_c, 12, 50, 92
11, 23168, Note_on_c, 12, 50, 0
11, 23232, Note_on_c, 12, 52, 92
11, 23256, Note_on_c, 12, 52, 0
11, 23256, Note_on_c, 12, 50, 92
11, 23280, Note_on_c, 12, 50, 0
11, 23280, Note_on_c, 12, 52, 92
11, 23304, Note_on_c, 12, 52, 0
11, 23304, Note_on_c, 12, 50, 92
11, 23328, Note_on_c, 12, 50, 0
11, 23328, Note_on_c, 12, 52, 92
11, 23352, Note_on_c, 12, 52, 0
11, 23352, Note_on_c, 12, 50, 92
11, 23376, Note_on_c, 12, 50, 0
11, 23376, Note_on_c, 12, 49, 92
11, 23400, Note_on_c, 12, 49, 0
11, 23400, Note_on_c, 12, 50, 92
11, 23422, Note_on_c, 12, 50, 0
11, 23424, Note_on_c, 12, 54, 92
11, 23456, Note_on_c, 12, 54, 0
11, 23520, Note_on_c, 12, 50, 92
11, 23552, Note_on_c, 12, 50, 0
11, 23616, Note_on_c, 12, 45, 92
11, 23648, Note_on_c, 12, 45, 0
11, 23712, Note_on_c, 12, 42, 92
11, 23744, Note_on_c, 12, 42, 0
11, 23808, Note_on_c, 12, 38, 92
11, 23968, Note_on_c, 12, 38, 0
11, 24576, Note_on_c, 12, 38, 45
11, 24670, Note_on_c, 12, 38, 0
11, 24672, Note_on_c, 12, 38, 45
11, 24766, Note_on_c, 12, 38, 0
11, 24768, Note_on_c, 12, 38, 45
11, 24862, Note_on_c, 12, 38, 0
11, 24864, Note_on_c, 12, 38, 45
11, 24958, Note_on_c, 12, 38, 0
11, 24960, Note_on_c, 12, 38, 45
11, 25054, Note_on_c, 12, 38, 0
11, 25056, Note_on_c, 12, 38, 45
11, 25150, Note_on_c, 12, 38, 0
11, 25152, Note_on_c, 12, 38, 45
11, 25246, Note_on_c, 12, 38, 0
11, 25248, Note_on_c, 12, 38, 45
11, 25342, Note_on_c, 12, 38, 0
11, 25344, Note_on_c, 12, 38, 45
11, 25438, Note_on_c, 12, 38, 0
11, 25440, Note_on_c, 12, 38, 45
11, 25534, Note_on_c, 12, 38, 0
11, 25536, Note_on_c, 12, 38, 45
11, 25630, Note_on_c, 12, 38, 0
11, 25632, Note_on_c, 12, 38, 45
11, 25726, Note_on_c, 12, 38, 0
11, 25728, Note_on_c, 12, 38, 45
11, 25822, Note_on_c, 12, 38, 0
11, 25824, Note_on_c, 12, 38, 45
11, 25918, Note_on_c, 12, 38, 0
11, 25920, Note_on_c, 12, 38, 45
11, 26014, Note_on_c, 12, 38, 0
11, 26016, Note_on_c, 12, 38, 45
11, 26110, Note_on_c, 12, 38, 0
11, 26112, Note_on_c, 12, 38, 45
11, 26206, Note_on_c, 12, 38, 0
11, 26208, Note_on_c, 12, 38, 45
11, 26302, Note_on_c, 12, 38, 0
11, 26304, Note_on_c, 12, 38, 45
11, 26398, Note_on_c, 12, 38, 0
11, 26400, Note_on_c, 12, 38, 45
11, 26494, Note_on_c, 12, 38, 0
11, 26496, Note_on_c, 12, 38, 45
11, 26590, Note_on_c, 12, 38, 0
11, 26592, Note_on_c, 12, 38, 45
11, 26686, Note_on_c, 12, 38, 0
11, 26688, Note_on_c, 12, 38, 45
11, 26782, Note_on_c, 12, 38, 0
11, 26784, Note_on_c, 12, 38, 45
11, 26878, Note_on_c, 12, 38, 0
11, 26880, Note_on_c, 12, 38, 45
11, 26974, Note_on_c, 12, 38, 0
11, 26976, Note_on_c, 12, 38, 45
11, 27070, Note_on_c, 12, 38, 0
11, 27072, Note_on_c, 12, 38, 45
11, 27166, Note_on_c, 12, 38, 0
11, 27168, Note_on_c, 12, 38, 45
11, 27262, Note_on_c, 12, 38, 0
11, 27264, Note_on_c, 12, 38, 45
11, 27358, Note_on_c, 12, 38, 0
11, 27360, Note_on_c, 12, 38, 45
11, 27454, Note_on_c, 12, 38, 0
11, 27456, Note_on_c, 12, 38, 45
11, 27550, Note_on_c, 12, 38, 0
11, 27552, Note_on_c, 12, 38, 45
11, 27646, Note_on_c, 12, 38, 0
11, 27648, Note_on_c, 12, 38, 45
11, 27808, Note_on_c, 12, 38, 0
11, 33024, Note_on_c, 12, 38, 45
11, 33216, Note_on_c, 12, 38, 0
11, 33216, Note_on_c, 12, 40, 45
11, 33408, Note_on_c, 12, 40, 0
11, 33408, Note_on_c, 12, 38, 45
11, 33600, Note_on_c, 12, 38, 0
11, 33600, Note_on_c, 12, 37, 45
11, 33760, Note_on_c, 12, 37, 0
11, 33792, Note_on_c, 12, 38, 45
11, 33984, Note_on_c, 12, 38, 0
11, 33984, Note_on_c, 12, 40, 45
11, 34176, Note_on_c, 12, 40, 0
11, 34176, Note_on_c, 12, 38, 45
11, 34368, Note_on_c, 12, 38, 0
11, 34368, Note_on_c, 12, 37, 45
11, 34528, Note_on_c, 12, 37, 0
11, 34560, Note_on_c, 12, 38, 45
11, 34654, Note_on_c, 12, 38, 0
11, 34656, Note_on_c, 12, 38, 45
11, 34750, Note_on_c, 12, 38, 0
11, 34752, Note_on_c, 12, 42, 45
11, 34846, Note_on_c, 12, 42, 0
11, 34848, Note_on_c, 12, 42, 45
11, 34942, Note_on_c, 12, 42, 0
11, 34944, Note_on_c, 12, 43, 45
11, 35038, Note_on_c, 12, 43, 0
11, 35040, Note_on_c, 12, 43, 45
11, 35134, Note_on_c, 12, 43, 0
11, 35136, Note_on_c, 12, 45, 45
11, 35230, Note_on_c, 12, 45, 0
11, 35232, Note_on_c, 12, 45, 45
11, 35326, Note_on_c, 12, 45, 0
11, 35328, Note_on_c, 12, 50, 45
11, 35422, Note_on_c, 12, 50, 0
11, 35520, Note_on_c, 12, 38, 92
11, 35614, Note_on_c, 12, 38, 0
11, 35616, Note_on_c, 12, 42, 92
11, 35710, Note_on_c, 12, 42, 0
11, 35712, Note_on_c, 12, 45, 92
11, 35806, Note_on_c, 12, 45, 0
11, 35808, Note_on_c, 12, 45, 92
11, 35902, Note_on_c, 12, 45, 0
11, 35904, Note_on_c, 12, 45, 92
11, 35998, Note_on_c, 12, 45, 0
11, 36000, Note_on_c, 12, 45, 92
11, 36094, Note_on_c, 12, 45, 0
11, 36096, Note_on_c, 12, 50, 92
11, 36190, Note_on_c, 12, 50, 0
11, 36192, Note_on_c, 12, 45, 92
11, 36286, Note_on_c, 12, 45, 0
11, 36288, Note_on_c, 12, 42, 92
11, 36382, Note_on_c, 12, 42, 0
11, 36384, Note_on_c, 12, 38, 92
11, 36478, Note_on_c, 12, 38, 0
11, 36480, Note_on_c, 12, 33, 92
11, 36574, Note_on_c, 12, 33, 0
11, 36576, Note_on_c, 12, 33, 92
11, 36670, Note_on_c, 12, 33, 0
11, 36672, Note_on_c, 12, 45, 92
11, 36766, Note_on_c, 12, 45, 0
11, 36768, Note_on_c, 12, 45, 92
11, 36862, Note_on_c, 12, 45, 0
11, 36864, Note_on_c, 12, 38, 92
11, 36896, Note_on_c, 12, 38, 0
11, 36960, Note_on_c, 12, 50, 92
11, 36992, Note_on_c, 12, 50, 0
11, 37056, Note_on_c, 12, 52, 92
11, 37080, Note_on_c, 12, 52, 0
11, 37080, Note_on_c, 12, 50, 92
11, 37104, Note_on_c, 12, 50, 0
11, 37104, Note_on_c, 12, 52, 92
11, 37128, Note_on_c, 12, 52, 0
11, 37128, Note_on_c, 12, 50, 92
11, 37152, Note_on_c, 12, 50, 0
11, 37152, Note_on_c, 12, 52, 92
11, 37176, Note_on_c, 12, 52, 0
11, 37176, Note_on_c, 12, 50, 92
11, 37200, Note_on_c, 12, 50, 0
11, 37200, Note_on_c, 12, 49, 92
11, 37224, Note_on_c, 12, 49, 0
11, 37224, Note_on_c, 12, 50, 92
11, 37246, Note_on_c, 12, 50, 0
11, 37248, Note_on_c, 12, 54, 92
11, 37280, Note_on_c, 12, 54, 0
11, 37344, Note_on_c, 12, 50, 92
11, 37376, Note_on_c, 12, 50, 0
11, 37440, Note_on_c, 12, 45, 92
11, 37472, Note_on_c, 12, 45, 0
11, 37536, Note_on_c, 12, 42, 92
11, 37568, Note_on_c, 12, 42, 0
11, 37632, Note_on_c, 12, 38, 92
11, 37792, Note_on_c, 12, 38, 0
11, 39264, Note_on_c, 12, 45, 45
11, 39358, Note_on_c, 12, 45, 0
11, 39360, Note_on_c, 12, 47, 45
11, 39384, Note_on_c, 12, 47, 0
11, 39384, Note_on_c, 12, 45, 45
11, 39408, Note_on_c, 12, 45, 0
11, 39408, Note_on_c, 12, 47, 45
11, 39432, Note_on_c, 12, 47, 0
11, 39432, Note_on_c, 12, 45, 45
11, 39456, Note_on_c, 12, 45, 0
11, 39456, Note_on_c, 12, 47, 45
11, 39480, Note_on_c, 12, 47, 0
11, 39480, Note_on_c, 12, 45, 45
11, 39504, Note_on_c, 12, 45, 0
11, 39504, Note_on_c, 12, 44, 45
11, 39528, Note_on_c, 12, 44, 0
11, 39528, Note_on_c, 12, 45, 45
11, 39550, Note_on_c, 12, 45, 0
11, 39552, Note_on_c, 12, 49, 45
11, 39584, Note_on_c, 12, 49, 0
11, 39648, Note_on_c, 12, 45, 45
11, 39680, Note_on_c, 12, 45, 0
11, 39744, Note_on_c, 12, 40, 45
11, 39776, Note_on_c, 12, 40, 0
11, 39840, Note_on_c, 12, 37, 45
11, 39872, Note_on_c, 12, 37, 0
11, 39936, Note_on_c, 12, 33, 45
11, 40096, Note_on_c, 12, 33, 0
11, 41568, Note_on_c, 12, 50, 45
11, 41662, Note_on_c, 12, 50, 0
11, 41664, Note_on_c, 12, 52, 45
11, 41688, Note_on_c, 12, 52, 0
11, 41688, Note_on_c, 12, 50, 45
11, 41712, Note_on_c, 12, 50, 0
11, 41712, Note_on_c, 12, 52, 45
11, 41736, Note_on_c, 12, 52, 0
11, 41736, Note_on_c, 12, 50, 45
11, 41760, Note_on_c, 12, 50, 0
11, 41760, Note_on_c, 12, 52, 45
11, 41784, Note_on_c, 12, 52, 0
11, 41784, Note_on_c, 12, 50, 45
11, 41808, Note_on_c, 12, 50, 0
11, 41808, Note_on_c, 12, 49, 45
11, 41832, Note_on_c, 12, 49, 0
11, 41832, Note_on_c, 12, 50, 45
11, 41854, Note_on_c, 12, 50, 0
11, 41856, Note_on_c, 12, 54, 45
11, 41888, Note_on_c, 12, 54, 0
11, 41952, Note_on_c, 12, 50, 45
11, 41984, Note_on_c, 12, 50, 0
11, 42048, Note_on_c, 12, 45, 45
11, 42080, Note_on_c, 12, 45, 0
11, 42144, Note_on_c, 12, 42, 45
11, 42176, Note_on_c, 12, 42, 0
11, 42240, Note_on_c, 12, 38, 45
11, 42400, Note_on_c, 12, 38, 0
11, 48480, Note_on_c, 12, 52, 45
11, 48576, Note_on_c, 12, 52, 0
11, 48576, Note_on_c, 12, 51, 45
11, 48672, Note_on_c, 12, 51, 0
11, 48672, Note_on_c, 12, 52, 45
11, 48766, Note_on_c, 12, 52, 0
11, 48768, Note_on_c, 12, 40, 45
11, 48800, Note_on_c, 12, 40, 0
11, 48864, Note_on_c, 12, 44, 45
11, 48896, Note_on_c, 12, 44, 0
11, 48960, Note_on_c, 12, 47, 45
11, 48992, Note_on_c, 12, 47, 0
11, 49056, Note_on_c, 12, 44, 45
11, 49088, Note_on_c, 12, 44, 0
11, 49152, Note_on_c, 12, 40, 45
11, 49246, Note_on_c, 12, 40, 0
11, 49248, Note_on_c, 12, 40, 45
11, 49342, Note_on_c, 12, 40, 0
11, 49344, Note_on_c, 12, 40, 45
11, 49438, Note_on_c, 12, 40, 0
11, 49440, Note_on_c, 12, 40, 45
11, 49534, Note_on_c, 12, 40, 0
11, 49536, Note_on_c, 12, 40, 45
11, 49696, Note_on_c, 12, 40, 0
11, 49920, Note_on_c, 12, 40, 45
11, 50014, Note_on_c, 12, 40, 0
11, 50016, Note_on_c, 12, 40, 45
11, 50110, Note_on_c, 12, 40, 0
11, 50112, Note_on_c, 12, 40, 45
11, 50206, Note_on_c, 12, 40, 0
11, 50208, Note_on_c, 12, 40, 45
11, 50302, Note_on_c, 12, 40, 0
11, 50304, Note_on_c, 12, 40, 45
11, 50464, Note_on_c, 12, 40, 0
11, 50688, Note_on_c, 12, 40, 45
11, 50782, Note_on_c, 12, 40, 0
11, 50880, Note_on_c, 12, 40, 45
11, 50974, Note_on_c, 12, 40, 0
11, 51072, Note_on_c, 12, 40, 45
11, 51166, Note_on_c, 12, 40, 0
11, 51264, Note_on_c, 12, 40, 45
11, 51358, Note_on_c, 12, 40, 0
11, 51456, Note_on_c, 12, 45, 45
11, 51550, Note_on_c, 12, 45, 0
11, 51552, Note_on_c, 12, 45, 45
11, 51646, Note_on_c, 12, 45, 0
11, 51648, Note_on_c, 12, 45, 45
11, 51742, Note_on_c, 12, 45, 0
11, 51744, Note_on_c, 12, 45, 45
11, 51838, Note_on_c, 12, 45, 0
11, 51840, Note_on_c, 12, 45, 45
11, 51934, Note_on_c, 12, 45, 0
11, 51936, Note_on_c, 12, 45, 45
11, 52030, Note_on_c, 12, 45, 0
11, 52032, Note_on_c, 12, 45, 45
11, 52126, Note_on_c, 12, 45, 0
11, 52128, Note_on_c, 12, 45, 45
11, 52222, Note_on_c, 12, 45, 0
11, 52224, Note_on_c, 12, 42, 45
11, 52318, Note_on_c, 12, 42, 0
11, 52320, Note_on_c, 12, 42, 45
11, 52414, Note_on_c, 12, 42, 0
11, 52416, Note_on_c, 12, 42, 45
11, 52510, Note_on_c, 12, 42, 0
11, 52512, Note_on_c, 12, 42, 45
11, 52606, Note_on_c, 12, 42, 0
11, 52608, Note_on_c, 12, 42, 45
11, 52702, Note_on_c, 12, 42, 0
11, 52704, Note_on_c, 12, 42, 45
11, 52798, Note_on_c, 12, 42, 0
11, 52800, Note_on_c, 12, 42, 45
11, 52894, Note_on_c, 12, 42, 0
11, 52896, Note_on_c, 12, 42, 45
11, 52990, Note_on_c, 12, 42, 0
11, 52992, Note_on_c, 12, 37, 45
11, 53086, Note_on_c, 12, 37, 0
11, 53088, Note_on_c, 12, 37, 45
11, 53182, Note_on_c, 12, 37, 0
11, 53184, Note_on_c, 12, 37, 45
11, 53278, Note_on_c, 12, 37, 0
11, 53280, Note_on_c, 12, 37, 45
11, 53374, Note_on_c, 12, 37, 0
11, 53376, Note_on_c, 12, 37, 45
11, 53470, Note_on_c, 12, 37, 0
11, 53472, Note_on_c, 12, 37, 45
11, 53566, Note_on_c, 12, 37, 0
11, 53568, Note_on_c, 12, 37, 45
11, 53662, Note_on_c, 12, 37, 0
11, 53664, Note_on_c, 12, 37, 45
11, 53758, Note_on_c, 12, 37, 0
11, 53760, Note_on_c, 12, 38, 45
11, 54144, Note_on_c, 12, 38, 0
11, 54144, Note_on_c, 12, 40, 45
11, 54480, Note_on_c, 12, 40, 0
11, 54528, Note_on_c, 12, 41, 92
11, 54622, Note_on_c, 12, 41, 0
11, 54624, Note_on_c, 12, 41, 45
11, 54718, Note_on_c, 12, 41, 0
11, 54720, Note_on_c, 12, 41, 45
11, 54814, Note_on_c, 12, 41, 0
11, 54816, Note_on_c, 12, 41, 45
11, 54910, Note_on_c, 12, 41, 0
11, 54912, Note_on_c, 12, 41, 45
11, 55006, Note_on_c, 12, 41, 0
11, 55008, Note_on_c, 12, 41, 45
11, 55102, Note_on_c, 12, 41, 0
11, 55104, Note_on_c, 12, 41, 45
11, 55198, Note_on_c, 12, 41, 0
11, 55200, Note_on_c, 12, 41, 45
11, 55294, Note_on_c, 12, 41, 0
11, 55296, Note_on_c, 12, 40, 45
11, 55456, Note_on_c, 12, 40, 0
11, 55680, Note_on_c, 12, 38, 45
11, 55840, Note_on_c, 12, 38, 0
11, 56064, Note_on_c, 12, 37, 45
11, 56158, Note_on_c, 12, 37, 0
11, 56256, Note_on_c, 12, 33, 45
11, 56350, Note_on_c, 12, 33, 0
11, 56448, Note_on_c, 12, 38, 45
11, 56542, Note_on_c, 12, 38, 0
11, 56640, Note_on_c, 12, 38, 45
11, 56734, Note_on_c, 12, 38, 0
11, 56832, Note_on_c, 12, 40, 45
11, 56926, Note_on_c, 12, 40, 0
11, 56928, Note_on_c, 12, 40, 45
11, 57022, Note_on_c, 12, 40, 0
11, 57024, Note_on_c, 12, 40, 45
11, 57118, Note_on_c, 12, 40, 0
11, 57120, Note_on_c, 12, 40, 45
11, 57214, Note_on_c, 12, 40, 0
11, 57216, Note_on_c, 12, 40, 45
11, 57310, Note_on_c, 12, 40, 0
11, 57312, Note_on_c, 12, 40, 45
11, 57406, Note_on_c, 12, 40, 0
11, 57408, Note_on_c, 12, 40, 45
11, 57502, Note_on_c, 12, 40, 0
11, 57504, Note_on_c, 12, 40, 45
11, 57598, Note_on_c, 12, 40, 0
11, 57600, Note_on_c, 12, 45, 92
11, 57694, Note_on_c, 12, 45, 0
11, 57696, Note_on_c, 12, 45, 92
11, 57790, Note_on_c, 12, 45, 0
11, 57792, Note_on_c, 12, 45, 92
11, 57886, Note_on_c, 12, 45, 0
11, 57888, Note_on_c, 12, 44, 92
11, 57982, Note_on_c, 12, 44, 0
11, 57984, Note_on_c, 12, 42, 92
11, 58078, Note_on_c, 12, 42, 0
11, 58080, Note_on_c, 12, 42, 92
11, 58174, Note_on_c, 12, 42, 0
11, 58176, Note_on_c, 12, 42, 92
11, 58270, Note_on_c, 12, 42, 0
11, 58272, Note_on_c, 12, 42, 92
11, 58366, Note_on_c, 12, 42, 0
11, 58368, Note_on_c, 12, 40, 92
11, 58528, Note_on_c, 12, 40, 0
11, 58560, Note_on_c, 12, 40, 92
11, 58720, Note_on_c, 12, 40, 0
11, 58752, Note_on_c, 12, 40, 92
11, 58912, Note_on_c, 12, 40, 0
11, 59904, Note_on_c, 12, 45, 45
11, 59998, Note_on_c, 12, 45, 0
11, 60000, Note_on_c, 12, 45, 45
11, 60094, Note_on_c, 12, 45, 0
11, 60096, Note_on_c, 12, 45, 45
11, 60190, Note_on_c, 12, 45, 0
11, 60192, Note_on_c, 12, 45, 45
11, 60286, Note_on_c, 12, 45, 0
11, 60288, Note_on_c, 12, 45, 45
11, 60382, Note_on_c, 12, 45, 0
11, 60384, Note_on_c, 12, 45, 45
11, 60478, Note_on_c, 12, 45, 0
11, 60480, Note_on_c, 12, 45, 45
11, 60574, Note_on_c, 12, 45, 0
11, 60576, Note_on_c, 12, 45, 45
11, 60670, Note_on_c, 12, 45, 0
11, 60672, Note_on_c, 12, 45, 45
11, 60766, Note_on_c, 12, 45, 0
11, 60768, Note_on_c, 12, 45, 45
11, 60862, Note_on_c, 12, 45, 0
11, 60864, Note_on_c, 12, 45, 45
11, 60958, Note_on_c, 12, 45, 0
11, 60960, Note_on_c, 12, 45, 45
11, 61054, Note_on_c, 12, 45, 0
11, 61056, Note_on_c, 12, 45, 45
11, 61150, Note_on_c, 12, 45, 0
11, 61152, Note_on_c, 12, 45, 45
11, 61246, Note_on_c, 12, 45, 0
11, 61248, Note_on_c, 12, 45, 45
11, 61342, Note_on_c, 12, 45, 0
11, 61344, Note_on_c, 12, 45, 45
11, 61438, Note_on_c, 12, 45, 0
11, 61440, Note_on_c, 12, 45, 45
11, 61534, Note_on_c, 12, 45, 0
11, 61536, Note_on_c, 12, 45, 45
11, 61630, Note_on_c, 12, 45, 0
11, 61632, Note_on_c, 12, 45, 45
11, 61726, Note_on_c, 12, 45, 0
11, 61728, Note_on_c, 12, 45, 45
11, 61822, Note_on_c, 12, 45, 0
11, 61824, Note_on_c, 12, 45, 45
11, 61918, Note_on_c, 12, 45, 0
11, 61920, Note_on_c, 12, 45, 45
11, 62014, Note_on_c, 12, 45, 0
11, 62016, Note_on_c, 12, 45, 45
11, 62110, Note_on_c, 12, 45, 0
11, 62112, Note_on_c, 12, 45, 45
11, 62206, Note_on_c, 12, 45, 0
11, 62208, Note_on_c, 12, 45, 45
11, 62302, Note_on_c, 12, 45, 0
11, 62304, Note_on_c, 12, 45, 45
11, 62398, Note_on_c, 12, 45, 0
11, 62400, Note_on_c, 12, 45, 45
11, 62494, Note_on_c, 12, 45, 0
11, 62496, Note_on_c, 12, 45, 45
11, 62590, Note_on_c, 12, 45, 0
11, 62592, Note_on_c, 12, 45, 45
11, 62686, Note_on_c, 12, 45, 0
11, 62688, Note_on_c, 12, 45, 45
11, 62782, Note_on_c, 12, 45, 0
11, 62784, Note_on_c, 12, 45, 45
11, 62878, Note_on_c, 12, 45, 0
11, 62880, Note_on_c, 12, 45, 45
11, 62974, Note_on_c, 12, 45, 0
11, 62976, Note_on_c, 12, 45, 45
11, 63136, Note_on_c, 12, 45, 0
11, 68352, Note_on_c, 12, 37, 45
11, 68512, Note_on_c, 12, 37, 0
11, 68832, Note_on_c, 12, 37, 45
11, 68926, Note_on_c, 12, 37, 0
11, 68928, Note_on_c, 12, 37, 45
11, 69022, Note_on_c, 12, 37, 0
11, 69024, Note_on_c, 12, 37, 45
11, 69118, Note_on_c, 12, 37, 0
11, 69120, Note_on_c, 12, 38, 45
11, 69280, Note_on_c, 12, 38, 0
11, 69600, Note_on_c, 12, 38, 45
11, 69694, Note_on_c, 12, 38, 0
11, 69696, Note_on_c, 12, 38, 45
11, 69790, Note_on_c, 12, 38, 0
11, 69792, Note_on_c, 12, 38, 45
11, 69886, Note_on_c, 12, 38, 0
11, 69888, Note_on_c, 12, 40, 45
11, 69982, Note_on_c, 12, 40, 0
11, 69984, Note_on_c, 12, 40, 45
11, 70078, Note_on_c, 12, 40, 0
11, 70080, Note_on_c, 12, 42, 45
11, 70174, Note_on_c, 12, 42, 0
11, 70176, Note_on_c, 12, 42, 45
11, 70270, Note_on_c, 12, 42, 0
11, 70272, Note_on_c, 12, 38, 45
11, 70366, Note_on_c, 12, 38, 0
11, 70368, Note_on_c, 12, 38, 45
11, 70462, Note_on_c, 12, 38, 0
11, 70464, Note_on_c, 12, 40, 45
11, 70558, Note_on_c, 12, 40, 0
11, 70560, Note_on_c, 12, 38, 45
11, 70654, Note_on_c, 12, 38, 0
11, 70656, Note_on_c, 12, 37, 45
11, 70816, Note_on_c, 12, 37, 0
11, 71136, Note_on_c, 12, 37, 45
11, 71230, Note_on_c, 12, 37, 0
11, 71232, Note_on_c, 12, 37, 45
11, 71326, Note_on_c, 12, 37, 0
11, 71328, Note_on_c, 12, 37, 45
11, 71422, Note_on_c, 12, 37, 0
11, 71424, Note_on_c, 12, 38, 45
11, 71584, Note_on_c, 12, 38, 0
11, 71904, Note_on_c, 12, 42, 45
11, 71998, Note_on_c, 12, 42, 0
11, 72000, Note_on_c, 12, 42, 45
11, 72094, Note_on_c, 12, 42, 0
11, 72096, Note_on_c, 12, 42, 45
11, 72190, Note_on_c, 12, 42, 0
11, 72192, Note_on_c, 12, 40, 45
11, 72286, Note_on_c, 12, 40, 0
11, 72288, Note_on_c, 12, 40, 45
11, 72382, Note_on_c, 12, 40, 0
11, 72384, Note_on_c, 12, 40, 45
11, 72478, Note_on_c, 12, 40, 0
11, 72480, Note_on_c, 12, 40, 45
11, 72574, Note_on_c, 12, 40, 0
11, 72576, Note_on_c, 12, 40, 45
11, 72670, Note_on_c, 12, 40, 0
11, 72672, Note_on_c, 12, 40, 45
11, 72766, Note_on_c, 12, 40, 0
11, 72768, Note_on_c, 12, 40, 45
11, 72862, Note_on_c, 12, 40, 0
11, 72864, Note_on_c, 12, 40, 45
11, 72958, Note_on_c, 12, 40, 0
11, 72960, Note_on_c, 12, 40, 45
11, 73054, Note_on_c, 12, 40, 0
11, 73056, Note_on_c, 12, 40, 45
11, 73150, Note_on_c, 12, 40, 0
11, 73152, Note_on_c, 12, 40, 45
11, 73246, Note_on_c, 12, 40, 0
11, 73248, Note_on_c, 12, 40, 52
11, 73342, Note_on_c, 12, 40, 0
11, 73344, Note_on_c, 12, 40, 60
11, 73438, Note_on_c, 12, 40, 0
11, 73440, Note_on_c, 12, 40, 68
11, 73534, Note_on_c, 12, 40, 0
11, 73536, Note_on_c, 12, 40, 76
11, 73630, Note_on_c, 12, 40, 0
11, 73632, Note_on_c, 12, 40, 84
11, 73726, Note_on_c, 12, 40, 0
11, 73728, Note_on_c, 12, 45, 92
11, 73822, Note_on_c, 12, 45, 0
11, 73824, Note_on_c, 12, 49, 92
11, 73918, Note_on_c, 12, 49, 0
11, 73920, Note_on_c, 12, 52, 92
11, 74014, Note_on_c, 12, 52, 0
11, 74016, Note_on_c, 12, 49, 92
11, 74110, Note_on_c, 12, 49, 0
11, 74112, Note_on_c, 12, 45, 92
11, 74206, Note_on_c, 12, 45, 0
11, 74208, Note_on_c, 12, 49, 92
11, 74302, Note_on_c, 12, 49, 0
11, 74304, Note_on_c, 12, 52, 92
11, 74398, Note_on_c, 12, 52, 0
11, 74400, Note_on_c, 12, 49, 92
11, 74494, Note_on_c, 12, 49, 0
11, 74496, Note_on_c, 12, 50, 92
11, 74590, Note_on_c, 12, 50, 0
11, 74592, Note_on_c, 12, 50, 92
11, 74686, Note_on_c, 12, 50, 0
11, 74688, Note_on_c, 12, 50, 92
11, 74782, Note_on_c, 12, 50, 0
11, 74784, Note_on_c, 12, 50, 92
11, 74878, Note_on_c, 12, 50, 0
11, 74880, Note_on_c, 12, 50, 92
11, 74974, Note_on_c, 12, 50, 0
11, 74976, Note_on_c, 12, 50, 92
11, 75070, Note_on_c, 12, 50, 0
11, 75072, Note_on_c, 12, 50, 92
11, 75166, Note_on_c, 12, 50, 0
11, 75168, Note_on_c, 12, 50, 92
11, 75262, Note_on_c, 12, 50, 0
11, 75264, Note_on_c, 12, 52, 92
11, 75358, Note_on_c, 12, 52, 0
11, 75360, Note_on_c, 12, 52, 92
11, 75454, Note_on_c, 12, 52, 0
11, 75456, Note_on_c, 12, 52, 92
11, 75550, Note_on_c, 12, 52, 0
11, 75552, Note_on_c, 12, 52, 92
11, 75646, Note_on_c, 12, 52, 0
11, 75648, Note_on_c, 12, 40, 92
11, 75742, Note_on_c, 12, 40, 0
11, 75744, Note_on_c, 12, 40, 92
11, 75838, Note_on_c, 12, 40, 0
11, 75840, Note_on_c, 12, 40, 92
11, 75934, Note_on_c, 12, 40, 0
11, 75936, Note_on_c, 12, 40, 92
11, 76030, Note_on_c, 12, 40, 0
11, 76032, Note_on_c, 12, 45, 92
11, 76192, Note_on_c, 12, 45, 0
11, 76992, Note_on_c, 12, 45, 92
11, 77086, Note_on_c, 12, 45, 0
11, 77088, Note_on_c, 12, 49, 92
11, 77182, Note_on_c, 12, 49, 0
11, 77184, Note_on_c, 12, 52, 92
11, 77278, Note_on_c, 12, 52, 0
11, 77280, Note_on_c, 12, 52, 92
11, 77374, Note_on_c, 12, 52, 0
11, 77376, Note_on_c, 12, 52, 92
11, 77470, Note_on_c, 12, 52, 0
11, 77472, Note_on_c, 12, 52, 92
11, 77566, Note_on_c, 12, 52, 0
11, 77568, Note_on_c, 12, 45, 92
11, 77662, Note_on_c, 12, 45, 0
11, 78528, Note_on_c, 12, 45, 92
11, 78622, Note_on_c, 12, 45, 0
11, 78624, Note_on_c, 12, 49, 92
11, 78718, Note_on_c, 12, 49, 0
11, 78720, Note_on_c, 12, 52, 92
11, 78814, Note_on_c, 12, 52, 0
11, 78816, Note_on_c, 12, 52, 92
11, 78910, Note_on_c, 12, 52, 0
11, 78912, Note_on_c, 12, 52, 92
11, 79006, Note_on_c, 12, 52, 0
11, 79008, Note_on_c, 12, 52, 92
11, 79102, Note_on_c, 12, 52, 0
11, 79104, Note_on_c, 12, 45, 92
11, 79198, Note_on_c, 12, 45, 0
11, 79200, Note_on_c, 12, 40, 92
11, 79294, Note_on_c, 12, 40, 0
11, 79296, Note_on_c, 12, 37, 92
11, 79390, Note_on_c, 12, 37, 0
11, 79392, Note_on_c, 12, 33, 92
11, 79486, Note_on_c, 12, 33, 0
11, 79488, Note_on_c, 12, 40, 92
11, 79582, Note_on_c, 12, 40, 0
11, 79584, Note_on_c, 12, 40, 92
11, 79678, Note_on_c, 12, 40, 0
11, 79680, Note_on_c, 12, 40, 92
11, 79774, Note_on_c, 12, 40, 0
11, 79776, Note_on_c, 12, 40, 92
11, 79870, Note_on_c, 12, 40, 0
11, 79872, Note_on_c, 12, 33, 92
11, 79966, Note_on_c, 12, 33, 0
11, 79968, Note_on_c, 12, 45, 92
11, 80062, Note_on_c, 12, 45, 0
11, 80064, Note_on_c, 12, 47, 92
11, 80088, Note_on_c, 12, 47, 0
11, 80088, Note_on_c, 12, 45, 92
11, 80112, Note_on_c, 12, 45, 0
11, 80112, Note_on_c, 12, 47, 92
11, 80136, Note_on_c, 12, 47, 0
11, 80136, Note_on_c, 12, 45, 92
11, 80160, Note_on_c, 12, 45, 0
11, 80160, Note_on_c, 12, 47, 92
11, 80184, Note_on_c, 12, 47, 0
11, 80184, Note_on_c, 12, 45, 92
11, 80208, Note_on_c, 12, 45, 0
11, 80208, Note_on_c, 12, 44, 92
11, 80232, Note_on_c, 12, 44, 0
11, 80232, Note_on_c, 12, 45, 92
11, 80254, Note_on_c, 12, 45, 0
11, 80256, Note_on_c, 12, 49, 92
11, 80288, Note_on_c, 12, 49, 0
11, 80352, Note_on_c, 12, 45, 92
11, 80384, Note_on_c, 12, 45, 0
11, 80448, Note_on_c, 12, 40, 92
11, 80480, Note_on_c, 12, 40, 0
11, 80544, Note_on_c, 12, 37, 92
11, 80576, Note_on_c, 12, 37, 0
11, 80640, Note_on_c, 12, 33, 92
11, 80800, Note_on_c, 12, 33, 0
11, 81408, Note_on_c, 12, 33, 45
11, 81502, Note_on_c, 12, 33, 0
11, 81504, Note_on_c, 12, 33, 45
11, 81598, Note_on_c, 12, 33, 0
11, 81600, Note_on_c, 12, 33, 45
11, 81694, Note_on_c, 12, 33, 0
11, 81696, Note_on_c, 12, 33, 45
11, 81790, Note_on_c, 12, 33, 0
11, 81792, Note_on_c, 12, 33, 45
11, 81886, Note_on_c, 12, 33, 0
11, 81888, Note_on_c, 12, 33, 45
11, 81982, Note_on_c, 12, 33, 0
11, 81984, Note_on_c, 12, 33, 45
11, 82078, Note_on_c, 12, 33, 0
11, 82080, Note_on_c, 12, 33, 45
11, 82174, Note_on_c, 12, 33, 0
11, 82176, Note_on_c, 12, 33, 45
11, 82270, Note_on_c, 12, 33, 0
11, 82272, Note_on_c, 12, 33, 45
11, 82366, Note_on_c, 12, 33, 0
11, 82368, Note_on_c, 12, 33, 45
11, 82462, Note_on_c, 12, 33, 0
11, 82464, Note_on_c, 12, 33, 45
11, 82558, Note_on_c, 12, 33, 0
11, 82560, Note_on_c, 12, 33, 45
11, 82654, Note_on_c, 12, 33, 0
11, 82656, Note_on_c, 12, 33, 45
11, 82750, Note_on_c, 12, 33, 0
11, 82752, Note_on_c, 12, 33, 45
11, 82846, Note_on_c, 12, 33, 0
11, 82848, Note_on_c, 12, 33, 45
11, 82942, Note_on_c, 12, 33, 0
11, 82944, Note_on_c, 12, 33, 45
11, 83038, Note_on_c, 12, 33, 0
11, 83040, Note_on_c, 12, 33, 45
11, 83134, Note_on_c, 12, 33, 0
11, 83136, Note_on_c, 12, 33, 45
11, 83230, Note_on_c, 12, 33, 0
11, 83232, Note_on_c, 12, 33, 45
11, 83326, Note_on_c, 12, 33, 0
11, 83328, Note_on_c, 12, 33, 45
11, 83422, Note_on_c, 12, 33, 0
11, 83424, Note_on_c, 12, 33, 45
11, 83518, Note_on_c, 12, 33, 0
11, 83520, Note_on_c, 12, 33, 45
11, 83614, Note_on_c, 12, 33, 0
11, 83616, Note_on_c, 12, 33, 45
11, 83710, Note_on_c, 12, 33, 0
11, 83712, Note_on_c, 12, 33, 45
11, 83806, Note_on_c, 12, 33, 0
11, 83808, Note_on_c, 12, 33, 45
11, 83902, Note_on_c, 12, 33, 0
11, 83904, Note_on_c, 12, 33, 45
11, 83998, Note_on_c, 12, 33, 0
11, 84000, Note_on_c, 12, 33, 45
11, 84094, Note_on_c, 12, 33, 0
11, 84096, Note_on_c, 12, 33, 45
11, 84190, Note_on_c, 12, 33, 0
11, 84192, Note_on_c, 12, 33, 45
11, 84286, Note_on_c, 12, 33, 0
11, 84288, Note_on_c, 12, 33, 45
11, 84382, Note_on_c, 12, 33, 0
11, 84384, Note_on_c, 12, 33, 45
11, 84478, Note_on_c, 12, 33, 0
11, 84480, Note_on_c, 12, 33, 45
11, 84574, Note_on_c, 12, 33, 0
11, 84576, Note_on_c, 12, 33, 45
11, 84670, Note_on_c, 12, 33, 0
11, 84672, Note_on_c, 12, 33, 45
11, 84766, Note_on_c, 12, 33, 0
11, 84768, Note_on_c, 12, 33, 45
11, 84862, Note_on_c, 12, 33, 0
11, 84864, Note_on_c, 12, 33, 45
11, 84958, Note_on_c, 12, 33, 0
11, 84960, Note_on_c, 12, 33, 45
11, 85054, Note_on_c, 12, 33, 0
11, 85056, Note_on_c, 12, 33, 45
11, 85150, Note_on_c, 12, 33, 0
11, 85152, Note_on_c, 12, 33, 45
11, 85246, Note_on_c, 12, 33, 0
11, 85248, Note_on_c, 12, 33, 45
11, 85342, Note_on_c, 12, 33, 0
11, 85344, Note_on_c, 12, 33, 45
11, 85438, Note_on_c, 12, 33, 0
11, 85440, Note_on_c, 12, 33, 45
11, 85534, Note_on_c, 12, 33, 0
11, 85536, Note_on_c, 12, 33, 45
11, 85630, Note_on_c, 12, 33, 0
11, 85632, Note_on_c, 12, 45, 45
11, 85726, Note_on_c, 12, 45, 0
11, 85728, Note_on_c, 12, 45, 45
11, 85822, Note_on_c, 12, 45, 0
11, 85824, Note_on_c, 12, 45, 45
11, 85918, Note_on_c, 12, 45, 0
11, 85920, Note_on_c, 12, 45, 45
11, 86014, Note_on_c, 12, 45, 0
11, 86016, Note_on_c, 12, 44, 45
11, 86110, Note_on_c, 12, 44, 0
11, 86112, Note_on_c, 12, 44, 45
11, 86206, Note_on_c, 12, 44, 0
11, 86208, Note_on_c, 12, 44, 45
11, 86302, Note_on_c, 12, 44, 0
11, 86304, Note_on_c, 12, 44, 45
11, 86398, Note_on_c, 12, 44, 0
11, 86400, Note_on_c, 12, 44, 45
11, 86494, Note_on_c, 12, 44, 0
11, 86496, Note_on_c, 12, 44, 45
11, 86590, Note_on_c, 12, 44, 0
11, 86592, Note_on_c, 12, 44, 45
11, 86686, Note_on_c, 12, 44, 0
11, 86688, Note_on_c, 12, 44, 45
11, 86782, Note_on_c, 12, 44, 0
11, 86784, Note_on_c, 12, 45, 45
11, 86944, Note_on_c, 12, 45, 0
11, 87456, Note_on_c, 12, 44, 45
11, 87552, Note_on_c, 12, 44, 0
11, 87552, Note_on_c, 12, 45, 45
11, 87712, Note_on_c, 12, 45, 0
11, 88224, Note_on_c, 12, 44, 45
11, 88320, Note_on_c, 12, 44, 0
11, 88320, Note_on_c, 12, 45, 45
11, 88414, Note_on_c, 12, 45, 0
11, 88416, Note_on_c, 12, 45, 45
11, 88448, Note_on_c, 12, 45, 0
11, 88512, Note_on_c, 12, 45, 45
11, 88544, Note_on_c, 12, 45, 0
11, 88608, Note_on_c, 12, 45, 45
11, 88640, Note_on_c, 12, 45, 0
11, 88704, Note_on_c, 12, 45, 45
11, 88798, Note_on_c, 12, 45, 0
11, 88800, Note_on_c, 12, 45, 45
11, 88894, Note_on_c, 12, 45, 0
11, 88896, Note_on_c, 12, 45, 45
11, 88990, Note_on_c, 12, 45, 0
11, 88992, Note_on_c, 12, 45, 45
11, 89086, Note_on_c, 12, 45, 0
11, 89088, Note_on_c, 12, 45, 45
11, 89182, Note_on_c, 12, 45, 0
11, 89184, Note_on_c, 12, 45, 45
11, 89278, Note_on_c, 12, 45, 0
11, 89280, Note_on_c, 12, 45, 45
11, 89374, Note_on_c, 12, 45, 0
11, 89376, Note_on_c, 12, 45, 45
11, 89470, Note_on_c, 12, 45, 0
11, 89472, Note_on_c, 12, 45, 45
11, 89566, Note_on_c, 12, 45, 0
11, 89568, Note_on_c, 12, 45, 45
11, 89662, Note_on_c, 12, 45, 0
11, 89664, Note_on_c, 12, 45, 45
11, 89758, Note_on_c, 12, 45, 0
11, 89760, Note_on_c, 12, 45, 45
11, 89854, Note_on_c, 12, 45, 0
11, 89856, Note_on_c, 12, 45, 45
11, 90016, Note_on_c, 12, 45, 0
11, 91392, Note_on_c, 12, 38, 92
11, 91486, Note_on_c, 12, 38, 0
11, 91488, Note_on_c, 12, 38, 92
11, 91582, Note_on_c, 12, 38, 0
11, 91584, Note_on_c, 12, 38, 92
11, 91678, Note_on_c, 12, 38, 0
11, 91680, Note_on_c, 12, 38, 92
11, 91774, Note_on_c, 12, 38, 0
11, 91776, Note_on_c, 12, 38, 92
11, 91870, Note_on_c, 12, 38, 0
11, 91872, Note_on_c, 12, 38, 92
11, 91966, Note_on_c, 12, 38, 0
11, 91968, Note_on_c, 12, 38, 92
11, 92062, Note_on_c, 12, 38, 0
11, 92064, Note_on_c, 12, 38, 92
11, 92158, Note_on_c, 12, 38, 0
11, 92160, Note_on_c, 12, 38, 92
11, 92254, Note_on_c, 12, 38, 0
11, 92256, Note_on_c, 12, 38, 92
11, 92350, Note_on_c, 12, 38, 0
11, 92352, Note_on_c, 12, 38, 92
11, 92446, Note_on_c, 12, 38, 0
11, 92448, Note_on_c, 12, 38, 92
11, 92542, Note_on_c, 12, 38, 0
11, 92544, Note_on_c, 12, 38, 92
11, 92638, Note_on_c, 12, 38, 0
11, 92640, Note_on_c, 12, 38, 92
11, 92734, Note_on_c, 12, 38, 0
11, 92736, Note_on_c, 12, 38, 92
11, 92830, Note_on_c, 12, 38, 0
11, 92832, Note_on_c, 12, 38, 92
11, 92926, Note_on_c, 12, 38, 0
11, 92928, Note_on_c, 12, 38, 45
11, 93022, Note_on_c, 12, 38, 0
11, 93024, Note_on_c, 12, 38, 45
11, 93118, Note_on_c, 12, 38, 0
11, 93120, Note_on_c, 12, 38, 45
11, 93214, Note_on_c, 12, 38, 0
11, 93216, Note_on_c, 12, 38, 45
11, 93310, Note_on_c, 12, 38, 0
11, 93312, Note_on_c, 12, 38, 45
11, 93406, Note_on_c, 12, 38, 0
11, 93408, Note_on_c, 12, 38, 45
11, 93502, Note_on_c, 12, 38, 0
11, 93504, Note_on_c, 12, 38, 45
11, 93598, Note_on_c, 12, 38, 0
11, 93600, Note_on_c, 12, 38, 45
11, 93694, Note_on_c, 12, 38, 0
11, 93696, Note_on_c, 12, 38, 45
11, 93790, Note_on_c, 12, 38, 0
11, 93792, Note_on_c, 12, 38, 45
11, 93886, Note_on_c, 12, 38, 0
11, 93888, Note_on_c, 12, 38, 45
11, 93982, Note_on_c, 12, 38, 0
11, 93984, Note_on_c, 12, 38, 45
11, 94078, Note_on_c, 12, 38, 0
11, 94080, Note_on_c, 12, 38, 45
11, 94174, Note_on_c, 12, 38, 0
11, 94176, Note_on_c, 12, 38, 45
11, 94270, Note_on_c, 12, 38, 0
11, 94272, Note_on_c, 12, 38, 45
11, 94366, Note_on_c, 12, 38, 0
11, 94368, Note_on_c, 12, 38, 45
11, 94462, Note_on_c, 12, 38, 0
11, 94464, Note_on_c, 12, 38, 45
11, 94558, Note_on_c, 12, 38, 0
11, 94560, Note_on_c, 12, 39, 45
11, 94654, Note_on_c, 12, 39, 0
11, 94656, Note_on_c, 12, 39, 45
11, 94750, Note_on_c, 12, 39, 0
11, 94752, Note_on_c, 12, 39, 45
11, 94846, Note_on_c, 12, 39, 0
11, 94848, Note_on_c, 12, 39, 45
11, 95008, Note_on_c, 12, 39, 0
11, 95232, Note_on_c, 12, 40, 45
11, 95392, Note_on_c, 12, 40, 0
11, 95616, Note_on_c, 12, 42, 45
11, 95776, Note_on_c, 12, 42, 0
11, 96000, Note_on_c, 12, 43, 45
11, 96160, Note_on_c, 12, 43, 0
11, 96384, Note_on_c, 12, 45, 45
11, 96544, Note_on_c, 12, 45, 0
11, 96768, Note_on_c, 12, 47, 45
11, 96928, Note_on_c, 12, 47, 0
11, 97152, Note_on_c, 12, 35, 45
11, 97312, Note_on_c, 12, 35, 0
11, 97536, Note_on_c, 12, 40, 45
11, 97872, Note_on_c, 12, 40, 0
11, 97920, Note_on_c, 12, 37, 45
11, 98080, Note_on_c, 12, 37, 0
11, 98304, Note_on_c, 12, 38, 45
11, 98464, Note_on_c, 12, 38, 0
11, 98688, Note_on_c, 12, 45, 45
11, 98848, Note_on_c, 12, 45, 0
11, 99072, Note_on_c, 12, 47, 45
11, 99232, Note_on_c, 12, 47, 0
11, 99456, Note_on_c, 12, 43, 45
11, 99616, Note_on_c, 12, 43, 0
11, 99840, Note_on_c, 12, 45, 45
11, 100176, Note_on_c, 12, 45, 0
11, 100224, Note_on_c, 12, 33, 45
11, 100560, Note_on_c, 12, 33, 0
11, 100608, Note_on_c, 12, 38, 45
11, 100768, Note_on_c, 12, 38, 0
11, 103776, Note_on_c, 12, 45, 45
11, 103872, Note_on_c, 12, 45, 0
11, 103872, Note_on_c, 12, 44, 45
11, 103968, Note_on_c, 12, 44, 0
11, 103968, Note_on_c, 12, 45, 45
11, 104062, Note_on_c, 12, 45, 0
11, 104064, Note_on_c, 12, 33, 45
11, 104096, Note_on_c, 12, 33, 0
11, 104160, Note_on_c, 12, 37, 45
11, 104192, Note_on_c, 12, 37, 0
11, 104256, Note_on_c, 12, 40, 45
11, 104288, Note_on_c, 12, 40, 0
11, 104352, Note_on_c, 12, 37, 45
11, 104384, Note_on_c, 12, 37, 0
11, 104448, Note_on_c, 12, 33, 45
11, 104608, Note_on_c, 12, 33, 0
11, 105312, Note_on_c, 12, 45, 45
11, 105406, Note_on_c, 12, 45, 0
11, 105408, Note_on_c, 12, 45, 45
11, 105502, Note_on_c, 12, 45, 0
11, 105504, Note_on_c, 12, 45, 45
11, 105598, Note_on_c, 12, 45, 0
11, 105600, Note_on_c, 12, 45, 45
11, 105694, Note_on_c, 12, 45, 0
11, 105696, Note_on_c, 12, 45, 45
11, 105790, Note_on_c, 12, 45, 0
11, 105792, Note_on_c, 12, 45, 45
11, 105886, Note_on_c, 12, 45, 0
11, 105888, Note_on_c, 12, 45, 45
11, 105982, Note_on_c, 12, 45, 0
11, 105984, Note_on_c, 12, 33, 45
11, 106144, Note_on_c, 12, 33, 0
11, 106848, Note_on_c, 12, 45, 45
11, 106942, Note_on_c, 12, 45, 0
11, 106944, Note_on_c, 12, 45, 45
11, 107038, Note_on_c, 12, 45, 0
11, 107040, Note_on_c, 12, 45, 45
11, 107134, Note_on_c, 12, 45, 0
11, 107136, Note_on_c, 12, 45, 45
11, 107230, Note_on_c, 12, 45, 0
11, 107232, Note_on_c, 12, 45, 45
11, 107326, Note_on_c, 12, 45, 0
11, 107328, Note_on_c, 12, 45, 45
11, 107422, Note_on_c, 12, 45, 0
11, 107424, Note_on_c, 12, 45, 45
11, 107518, Note_on_c, 12, 45, 0
11, 107520, Note_on_c, 12, 33, 45
11, 107680, Note_on_c, 12, 33, 0
11, 108384, Note_on_c, 12, 45, 45
11, 108478, Note_on_c, 12, 45, 0
11, 108480, Note_on_c, 12, 45, 45
11, 108574, Note_on_c, 12, 45, 0
11, 108576, Note_on_c, 12, 45, 45
11, 108670, Note_on_c, 12, 45, 0
11, 108672, Note_on_c, 12, 45, 45
11, 108766, Note_on_c, 12, 45, 0
11, 108768, Note_on_c, 12, 45, 45
11, 108862, Note_on_c, 12, 45, 0
11, 108864, Note_on_c, 12, 45, 45
11, 108958, Note_on_c, 12, 45, 0
11, 108960, Note_on_c, 12, 45, 45
11, 109054, Note_on_c, 12, 45, 0
11, 109056, Note_on_c, 12, 50, 45
11, 109150, Note_on_c, 12, 50, 0
11, 109152, Note_on_c, 12, 50, 45
11, 109246, Note_on_c, 12, 50, 0
11, 109248, Note_on_c, 12, 50, 45
11, 109342, Note_on_c, 12, 50, 0
11, 109344, Note_on_c, 12, 50, 45
11, 109438, Note_on_c, 12, 50, 0
11, 109440, Note_on_c, 12, 50, 45
11, 109534, Note_on_c, 12, 50, 0
11, 109536, Note_on_c, 12, 50, 45
11, 109630, Note_on_c, 12, 50, 0
11, 109632, Note_on_c, 12, 50, 45
11, 109726, Note_on_c, 12, 50, 0
11, 109728, Note_on_c, 12, 50, 45
11, 109822, Note_on_c, 12, 50, 0
11, 109824, Note_on_c, 12, 47, 45
11, 109918, Note_on_c, 12, 47, 0
11, 109920, Note_on_c, 12, 47, 45
11, 110014, Note_on_c, 12, 47, 0
11, 110016, Note_on_c, 12, 47, 45
11, 110110, Note_on_c, 12, 47, 0
11, 110112, Note_on_c, 12, 47, 45
11, 110206, Note_on_c, 12, 47, 0
11, 110208, Note_on_c, 12, 47, 45
11, 110302, Note_on_c, 12, 47, 0
11, 110304, Note_on_c, 12, 47, 45
11, 110398, Note_on_c, 12, 47, 0
11, 110400, Note_on_c, 12, 47, 45
11, 110494, Note_on_c, 12, 47, 0
11, 110496, Note_on_c, 12, 47, 45
11, 110590, Note_on_c, 12, 47, 0
11, 110592, Note_on_c, 12, 42, 45
11, 110686, Note_on_c, 12, 42, 0
11, 110688, Note_on_c, 12, 42, 45
11, 110782, Note_on_c, 12, 42, 0
11, 110784, Note_on_c, 12, 42, 45
11, 110878, Note_on_c, 12, 42, 0
11, 110880, Note_on_c, 12, 42, 45
11, 110974, Note_on_c, 12, 42, 0
11, 110976, Note_on_c, 12, 42, 45
11, 111070, Note_on_c, 12, 42, 0
11, 111072, Note_on_c, 12, 42, 45
11, 111166, Note_on_c, 12, 42, 0
11, 111168, Note_on_c, 12, 42, 45
11, 111262, Note_on_c, 12, 42, 0
11, 111264, Note_on_c, 12, 42, 45
11, 111358, Note_on_c, 12, 42, 0
11, 111360, Note_on_c, 12, 43, 45
11, 111744, Note_on_c, 12, 43, 0
11, 111744, Note_on_c, 12, 45, 45
11, 112080, Note_on_c, 12, 45, 0
11, 112128, Note_on_c, 12, 46, 92
11, 112222, Note_on_c, 12, 46, 0
11, 112224, Note_on_c, 12, 46, 45
11, 112318, Note_on_c, 12, 46, 0
11, 112320, Note_on_c, 12, 46, 45
11, 112414, Note_on_c, 12, 46, 0
11, 112416, Note_on_c, 12, 46, 45
11, 112510, Note_on_c, 12, 46, 0
11, 112512, Note_on_c, 12, 46, 45
11, 112606, Note_on_c, 12, 46, 0
11, 112608, Note_on_c, 12, 46, 45
11, 112702, Note_on_c, 12, 46, 0
11, 112704, Note_on_c, 12, 46, 45
11, 112798, Note_on_c, 12, 46, 0
11, 112800, Note_on_c, 12, 46, 45
11, 112894, Note_on_c, 12, 46, 0
11, 112896, Note_on_c, 12, 45, 45
11, 113056, Note_on_c, 12, 45, 0
11, 113280, Note_on_c, 12, 43, 45
11, 113440, Note_on_c, 12, 43, 0
11, 113664, Note_on_c, 12, 42, 45
11, 113758, Note_on_c, 12, 42, 0
11, 113856, Note_on_c, 12, 42, 45
11, 113950, Note_on_c, 12, 42, 0
11, 114048, Note_on_c, 12, 43, 45
11, 114142, Note_on_c, 12, 43, 0
11, 114240, Note_on_c, 12, 43, 45
11, 114334, Note_on_c, 12, 43, 0
11, 114432, Note_on_c, 12, 45, 45
11, 114526, Note_on_c, 12, 45, 0
11, 114528, Note_on_c, 12, 45, 45
11, 114622, Note_on_c, 12, 45, 0
11, 114624, Note_on_c, 12, 45, 45
11, 114718, Note_on_c, 12, 45, 0
11, 114720, Note_on_c, 12, 45, 45
11, 114814, Note_on_c, 12, 45, 0
11, 114816, Note_on_c, 12, 45, 45
11, 114910, Note_on_c, 12, 45, 0
11, 114912, Note_on_c, 12, 45, 45
11, 115006, Note_on_c, 12, 45, 0
11, 115008, Note_on_c, 12, 45, 45
11, 115102, Note_on_c, 12, 45, 0
11, 115104, Note_on_c, 12, 45, 45
11, 115198, Note_on_c, 12, 45, 0
11, 115200, Note_on_c, 12, 47, 92
11, 115294, Note_on_c, 12, 47, 0
11, 115296, Note_on_c, 12, 47, 92
11, 115390, Note_on_c, 12, 47, 0
11, 115392, Note_on_c, 12, 47, 92
11, 115486, Note_on_c, 12, 47, 0
11, 115488, Note_on_c, 12, 47, 92
11, 115582, Note_on_c, 12, 47, 0
11, 115584, Note_on_c, 12, 47, 92
11, 115678, Note_on_c, 12, 47, 0
11, 115680, Note_on_c, 12, 47, 92
11, 115774, Note_on_c, 12, 47, 0
11, 115776, Note_on_c, 12, 47, 92
11, 115870, Note_on_c, 12, 47, 0
11, 115872, Note_on_c, 12, 47, 92
11, 115966, Note_on_c, 12, 47, 0
11, 115968, Note_on_c, 12, 45, 92
11, 116128, Note_on_c, 12, 45, 0
11, 116160, Note_on_c, 12, 45, 92
11, 116320, Note_on_c, 12, 45, 0
11, 116352, Note_on_c, 12, 33, 92
11, 116512, Note_on_c, 12, 33, 0
11, 117504, Note_on_c, 12, 38, 45
11, 117598, Note_on_c, 12, 38, 0
11, 117600, Note_on_c, 12, 38, 45
11, 117694, Note_on_c, 12, 38, 0
11, 117696, Note_on_c, 12, 38, 45
11, 117790, Note_on_c, 12, 38, 0
11, 117792, Note_on_c, 12, 38, 45
11, 117886, Note_on_c, 12, 38, 0
11, 117888, Note_on_c, 12, 38, 45
11, 117982, Note_on_c, 12, 38, 0
11, 117984, Note_on_c, 12, 38, 45
11, 118078, Note_on_c, 12, 38, 0
11, 118080, Note_on_c, 12, 38, 45
11, 118174, Note_on_c, 12, 38, 0
11, 118176, Note_on_c, 12, 38, 45
11, 118270, Note_on_c, 12, 38, 0
11, 118272, Note_on_c, 12, 38, 45
11, 118366, Note_on_c, 12, 38, 0
11, 118368, Note_on_c, 12, 38, 45
11, 118462, Note_on_c, 12, 38, 0
11, 118464, Note_on_c, 12, 38, 45
11, 118558, Note_on_c, 12, 38, 0
11, 118560, Note_on_c, 12, 38, 45
11, 118654, Note_on_c, 12, 38, 0
11, 118656, Note_on_c, 12, 38, 45
11, 118750, Note_on_c, 12, 38, 0
11, 118752, Note_on_c, 12, 38, 45
11, 118846, Note_on_c, 12, 38, 0
11, 118848, Note_on_c, 12, 38, 45
11, 118942, Note_on_c, 12, 38, 0
11, 118944, Note_on_c, 12, 38, 45
11, 119038, Note_on_c, 12, 38, 0
11, 119040, Note_on_c, 12, 38, 45
11, 119134, Note_on_c, 12, 38, 0
11, 119136, Note_on_c, 12, 38, 45
11, 119230, Note_on_c, 12, 38, 0
11, 119232, Note_on_c, 12, 38, 45
11, 119326, Note_on_c, 12, 38, 0
11, 119328, Note_on_c, 12, 38, 45
11, 119422, Note_on_c, 12, 38, 0
11, 119424, Note_on_c, 12, 38, 45
11, 119518, Note_on_c, 12, 38, 0
11, 119520, Note_on_c, 12, 38, 45
11, 119614, Note_on_c, 12, 38, 0
11, 119616, Note_on_c, 12, 38, 45
11, 119710, Note_on_c, 12, 38, 0
11, 119712, Note_on_c, 12, 38, 45
11, 119806, Note_on_c, 12, 38, 0
11, 119808, Note_on_c, 12, 38, 45
11, 119902, Note_on_c, 12, 38, 0
11, 119904, Note_on_c, 12, 38, 45
11, 119998, Note_on_c, 12, 38, 0
11, 120000, Note_on_c, 12, 38, 45
11, 120094, Note_on_c, 12, 38, 0
11, 120096, Note_on_c, 12, 38, 45
11, 120190, Note_on_c, 12, 38, 0
11, 120192, Note_on_c, 12, 38, 45
11, 120286, Note_on_c, 12, 38, 0
11, 120288, Note_on_c, 12, 38, 45
11, 120382, Note_on_c, 12, 38, 0
11, 120384, Note_on_c, 12, 38, 45
11, 120478, Note_on_c, 12, 38, 0
11, 120480, Note_on_c, 12, 38, 45
11, 120574, Note_on_c, 12, 38, 0
11, 120576, Note_on_c, 12, 38, 45
11, 120736, Note_on_c, 12, 38, 0
11, 123648, Note_on_c, 12, 38, 45
11, 123742, Note_on_c, 12, 38, 0
11, 123744, Note_on_c, 12, 38, 45
11, 123838, Note_on_c, 12, 38, 0
11, 123840, Note_on_c, 12, 38, 45
11, 123934, Note_on_c, 12, 38, 0
11, 123936, Note_on_c, 12, 38, 45
11, 124030, Note_on_c, 12, 38, 0
11, 124032, Note_on_c, 12, 38, 45
11, 124126, Note_on_c, 12, 38, 0
11, 124128, Note_on_c, 12, 38, 45
11, 124222, Note_on_c, 12, 38, 0
11, 124224, Note_on_c, 12, 38, 45
11, 124318, Note_on_c, 12, 38, 0
11, 124320, Note_on_c, 12, 38, 45
11, 124414, Note_on_c, 12, 38, 0
11, 124416, Note_on_c, 12, 38, 45
11, 124510, Note_on_c, 12, 38, 0
11, 124512, Note_on_c, 12, 38, 45
11, 124606, Note_on_c, 12, 38, 0
11, 124608, Note_on_c, 12, 38, 45
11, 124702, Note_on_c, 12, 38, 0
11, 124704, Note_on_c, 12, 38, 45
11, 124798, Note_on_c, 12, 38, 0
11, 124800, Note_on_c, 12, 38, 45
11, 124894, Note_on_c, 12, 38, 0
11, 124896, Note_on_c, 12, 38, 45
11, 124990, Note_on_c, 12, 38, 0
11, 124992, Note_on_c, 12, 38, 45
11, 125086, Note_on_c, 12, 38, 0
11, 125088, Note_on_c, 12, 38, 45
11, 125182, Note_on_c, 12, 38, 0
11, 125184, Note_on_c, 12, 38, 45
11, 125344, Note_on_c, 12, 38, 0
11, 127488, Note_on_c, 12, 42, 45
11, 127648, Note_on_c, 12, 42, 0
11, 127968, Note_on_c, 12, 42, 45
11, 128062, Note_on_c, 12, 42, 0
11, 128064, Note_on_c, 12, 42, 45
11, 128158, Note_on_c, 12, 42, 0
11, 128160, Note_on_c, 12, 42, 45
11, 128254, Note_on_c, 12, 42, 0
11, 128256, Note_on_c, 12, 43, 45
11, 128416, Note_on_c, 12, 43, 0
11, 128736, Note_on_c, 12, 43, 45
11, 128830, Note_on_c, 12, 43, 0
11, 128832, Note_on_c, 12, 43, 45
11, 128926, Note_on_c, 12, 43, 0
11, 128928, Note_on_c, 12, 43, 45
11, 129022, Note_on_c, 12, 43, 0
11, 129024, Note_on_c, 12, 45, 45
11, 129118, Note_on_c, 12, 45, 0
11, 129120, Note_on_c, 12, 45, 45
11, 129214, Note_on_c, 12, 45, 0
11, 129216, Note_on_c, 12, 45, 45
11, 129310, Note_on_c, 12, 45, 0
11, 129312, Note_on_c, 12, 45, 45
11, 129406, Note_on_c, 12, 45, 0
11, 129408, Note_on_c, 12, 45, 45
11, 129502, Note_on_c, 12, 45, 0
11, 129504, Note_on_c, 12, 45, 45
11, 129598, Note_on_c, 12, 45, 0
11, 129600, Note_on_c, 12, 43, 45
11, 129694, Note_on_c, 12, 43, 0
11, 129696, Note_on_c, 12, 43, 45
11, 129790, Note_on_c, 12, 43, 0
11, 129792, Note_on_c, 12, 42, 45
11, 129952, Note_on_c, 12, 42, 0
11, 130272, Note_on_c, 12, 42, 45
11, 130366, Note_on_c, 12, 42, 0
11, 130368, Note_on_c, 12, 42, 45
11, 130462, Note_on_c, 12, 42, 0
11, 130464, Note_on_c, 12, 42, 45
11, 130558, Note_on_c, 12, 42, 0
11, 130560, Note_on_c, 12, 43, 45
11, 130720, Note_on_c, 12, 43, 0
11, 131040, Note_on_c, 12, 43, 45
11, 131134, Note_on_c, 12, 43, 0
11, 131136, Note_on_c, 12, 43, 45
11, 131230, Note_on_c, 12, 43, 0
11, 131232, Note_on_c, 12, 44, 45
11, 131326, Note_on_c, 12, 44, 0
11, 131328, Note_on_c, 12, 45, 45
11, 131422, Note_on_c, 12, 45, 0
11, 131424, Note_on_c, 12, 45, 45
11, 131518, Note_on_c, 12, 45, 0
11, 131520, Note_on_c, 12, 45, 45
11, 131614, Note_on_c, 12, 45, 0
11, 131616, Note_on_c, 12, 45, 45
11, 131710, Note_on_c, 12, 45, 0
11, 131712, Note_on_c, 12, 45, 45
11, 131806, Note_on_c, 12, 45, 0
11, 131808, Note_on_c, 12, 45, 45
11, 131902, Note_on_c, 12, 45, 0
11, 131904, Note_on_c, 12, 45, 45
11, 131998, Note_on_c, 12, 45, 0
11, 132000, Note_on_c, 12, 45, 45
11, 132094, Note_on_c, 12, 45, 0
11, 132096, Note_on_c, 12, 45, 45
11, 132190, Note_on_c, 12, 45, 0
11, 132192, Note_on_c, 12, 45, 45
11, 132286, Note_on_c, 12, 45, 0
11, 132288, Note_on_c, 12, 45, 45
11, 132382, Note_on_c, 12, 45, 0
11, 132384, Note_on_c, 12, 45, 52
11, 132478, Note_on_c, 12, 45, 0
11, 132480, Note_on_c, 12, 45, 60
11, 132574, Note_on_c, 12, 45, 0
11, 132576, Note_on_c, 12, 45, 68
11, 132670, Note_on_c, 12, 45, 0
11, 132672, Note_on_c, 12, 45, 76
11, 132766, Note_on_c, 12, 45, 0
11, 132768, Note_on_c, 12, 45, 84
11, 132862, Note_on_c, 12, 45, 0
11, 132864, Note_on_c, 12, 38, 92
11, 132896, Note_on_c, 12, 38, 0
11, 132960, Note_on_c, 12, 38, 92
11, 132992, Note_on_c, 12, 38, 0
11, 133056, Note_on_c, 12, 38, 92
11, 133088, Note_on_c, 12, 38, 0
11, 133152, Note_on_c, 12, 50, 92
11, 133184, Note_on_c, 12, 50, 0
11, 133248, Note_on_c, 12, 49, 92
11, 133344, Note_on_c, 12, 49, 0
11, 133344, Note_on_c, 12, 50, 92
11, 133438, Note_on_c, 12, 50, 0
11, 133440, Note_on_c, 12, 50, 92
11, 133472, Note_on_c, 12, 50, 0
11, 133536, Note_on_c, 12, 50, 92
11, 133568, Note_on_c, 12, 50, 0
11, 133632, Note_on_c, 12, 47, 92
11, 133726, Note_on_c, 12, 47, 0
11, 133728, Note_on_c, 12, 50, 92
11, 133822, Note_on_c, 12, 50, 0
11, 133824, Note_on_c, 12, 45, 92
11, 133918, Note_on_c, 12, 45, 0
11, 133920, Note_on_c, 12, 50, 92
11, 134014, Note_on_c, 12, 50, 0
11, 134016, Note_on_c, 12, 49, 92
11, 134112, Note_on_c, 12, 49, 0
11, 134112, Note_on_c, 12, 50, 92
11, 134206, Note_on_c, 12, 50, 0
11, 134208, Note_on_c, 12, 50, 92
11, 134240, Note_on_c, 12, 50, 0
11, 134304, Note_on_c, 12, 50, 92
11, 134336, Note_on_c, 12, 50, 0
11, 134400, Note_on_c, 12, 42, 92
11, 134494, Note_on_c, 12, 42, 0
11, 134496, Note_on_c, 12, 50, 92
11, 134590, Note_on_c, 12, 50, 0
11, 134592, Note_on_c, 12, 43, 92
11, 134686, Note_on_c, 12, 43, 0
11, 134688, Note_on_c, 12, 50, 92
11, 134782, Note_on_c, 12, 50, 0
11, 134784, Note_on_c, 12, 49, 92
11, 134880, Note_on_c, 12, 49, 0
11, 134880, Note_on_c, 12, 50, 92
11, 134974, Note_on_c, 12, 50, 0
11, 134976, Note_on_c, 12, 50, 92
11, 135008, Note_on_c, 12, 50, 0
11, 135072, Note_on_c, 12, 50, 92
11, 135104, Note_on_c, 12, 50, 0
11, 135168, Note_on_c, 12, 44, 92
11, 135200, Note_on_c, 12, 44, 0
11, 135264, Note_on_c, 12, 50, 92
11, 135296, Note_on_c, 12, 50, 0
11, 135360, Note_on_c, 12, 52, 92
11, 135384, Note_on_c, 12, 52, 0
11, 135384, Note_on_c, 12, 50, 92
11, 135408, Note_on_c, 12, 50, 0
11, 135408, Note_on_c, 12, 52, 92
11, 135432, Note_on_c, 12, 52, 0
11, 135432, Note_on_c, 12, 50, 92
11, 135456, Note_on_c, 12, 50, 0
11, 135456, Note_on_c, 12, 52, 92
11, 135480, Note_on_c, 12, 52, 0
11, 135480, Note_on_c, 12, 50, 92
11, 135504, Note_on_c, 12, 50, 0
11, 135504, Note_on_c, 12, 49, 92
11, 135528, Note_on_c, 12, 49, 0
11, 135528, Note_on_c, 12, 50, 92
11, 135550, Note_on_c, 12, 50, 0
11, 135552, Note_on_c, 12, 54, 92
11, 135584, Note_on_c, 12, 54, 0
11, 135648, Note_on_c, 12, 50, 92
11, 135680, Note_on_c, 12, 50, 0
11, 135744, Note_on_c, 12, 47, 92
11, 135776, Note_on_c, 12, 47, 0
11, 135840, Note_on_c, 12, 44, 92
11, 135872, Note_on_c, 12, 44, 0
11, 135936, Note_on_c, 12, 45, 92
11, 136272, Note_on_c, 12, 45, 0
11, 165888, Note_on_c, 12, 38, 92
11, 165982, Note_on_c, 12, 38, 0
11, 165984, Note_on_c, 12, 42, 92
11, 166078, Note_on_c, 12, 42, 0
11, 166080, Note_on_c, 12, 45, 92
11, 166174, Note_on_c, 12, 45, 0
11, 166176, Note_on_c, 12, 42, 92
11, 166270, Note_on_c, 12, 42, 0
11, 166272, Note_on_c, 12, 38, 92
11, 166366, Note_on_c, 12, 38, 0
11, 166368, Note_on_c, 12, 42, 92
11, 166462, Note_on_c, 12, 42, 0
11, 166464, Note_on_c, 12, 45, 92
11, 166558, Note_on_c, 12, 45, 0
11, 166560, Note_on_c, 12, 42, 92
11, 166654, Note_on_c, 12, 42, 0
11, 166656, Note_on_c, 12, 43, 92
11, 166750, Note_on_c, 12, 43, 0
11, 166752, Note_on_c, 12, 43, 92
11, 166846, Note_on_c, 12, 43, 0
11, 166848, Note_on_c, 12, 43, 92
11, 166942, Note_on_c, 12, 43, 0
11, 166944, Note_on_c, 12, 43, 92
11, 167038, Note_on_c, 12, 43, 0
11, 167040, Note_on_c, 12, 43, 92
11, 167134, Note_on_c, 12, 43, 0
11, 167136, Note_on_c, 12, 43, 92
11, 167230, Note_on_c, 12, 43, 0
11, 167232, Note_on_c, 12, 43, 92
11, 167326, Note_on_c, 12, 43, 0
11, 167328, Note_on_c, 12, 43, 92
11, 167422, Note_on_c, 12, 43, 0
11, 167424, Note_on_c, 12, 45, 92
11, 167518, Note_on_c, 12, 45, 0
11, 167520, Note_on_c, 12, 45, 92
11, 167614, Note_on_c, 12, 45, 0
11, 167616, Note_on_c, 12, 45, 92
11, 167710, Note_on_c, 12, 45, 0
11, 167712, Note_on_c, 12, 45, 92
11, 167806, Note_on_c, 12, 45, 0
11, 167808, Note_on_c, 12, 33, 92
11, 167902, Note_on_c, 12, 33, 0
11, 167904, Note_on_c, 12, 33, 92
11, 167998, Note_on_c, 12, 33, 0
11, 168000, Note_on_c, 12, 33, 92
11, 168094, Note_on_c, 12, 33, 0
11, 168096, Note_on_c, 12, 33, 92
11, 168190, Note_on_c, 12, 33, 0
11, 168192, Note_on_c, 12, 38, 92
11, 168352, Note_on_c, 12, 38, 0
11, 169152, Note_on_c, 12, 38, 92
11, 169246, Note_on_c, 12, 38, 0
11, 169248, Note_on_c, 12, 42, 92
11, 169342, Note_on_c, 12, 42, 0
11, 169344, Note_on_c, 12, 45, 92
11, 169438, Note_on_c, 12, 45, 0
11, 169440, Note_on_c, 12, 45, 92
11, 169534, Note_on_c, 12, 45, 0
11, 169536, Note_on_c, 12, 45, 92
11, 169630, Note_on_c, 12, 45, 0
11, 169632, Note_on_c, 12, 45, 92
11, 169726, Note_on_c, 12, 45, 0
11, 169728, Note_on_c, 12, 50, 92
11, 169822, Note_on_c, 12, 50, 0
11, 170688, Note_on_c, 12, 38, 92
11, 170782, Note_on_c, 12, 38, 0
11, 170784, Note_on_c, 12, 42, 92
11, 170878, Note_on_c, 12, 42, 0
11, 170880, Note_on_c, 12, 45, 92
11, 170974, Note_on_c, 12, 45, 0
11, 170976, Note_on_c, 12, 45, 92
11, 171070, Note_on_c, 12, 45, 0
11, 171072, Note_on_c, 12, 45, 92
11, 171166, Note_on_c, 12, 45, 0
11, 171168, Note_on_c, 12, 45, 92
11, 171262, Note_on_c, 12, 45, 0
11, 171264, Note_on_c, 12, 50, 92
11, 171358, Note_on_c, 12, 50, 0
11, 171360, Note_on_c, 12, 45, 92
11, 171454, Note_on_c, 12, 45, 0
11, 171456, Note_on_c, 12, 42, 92
11, 171550, Note_on_c, 12, 42, 0
11, 171552, Note_on_c, 12, 38, 92
11, 171646, Note_on_c, 12, 38, 0
11, 171648, Note_on_c, 12, 33, 92
11, 171742, Note_on_c, 12, 33, 0
11, 171744, Note_on_c, 12, 33, 92
11, 171838, Note_on_c, 12, 33, 0
11, 171840, Note_on_c, 12, 45, 92
11, 171934, Note_on_c, 12, 45, 0
11, 171936, Note_on_c, 12, 45, 92
11, 172030, Note_on_c, 12, 45, 0
11, 172032, Note_on_c, 12, 38, 92
11, 172064, Note_on_c, 12, 38, 0
11, 172128, Note_on_c, 12, 50, 92
11, 172160, Note_on_c, 12, 50, 0
11, 172224, Note_on_c, 12, 52, 92
11, 172248, Note_on_c, 12, 52, 0
11, 172248, Note_on_c, 12, 50, 92
11, 172272, Note_on_c, 12, 50, 0
11, 172272, Note_on_c, 12, 52, 92
11, 172296, Note_on_c, 12, 52, 0
11, 172296, Note_on_c, 12, 50, 92
11, 172320, Note_on_c, 12, 50, 0
11, 172320, Note_on_c, 12, 52, 92
11, 172344, Note_on_c, 12, 52, 0
11, 172344, Note_on_c, 12, 50, 92
11, 172368, Note_on_c, 12, 50, 0
11, 172368, Note_on_c, 12, 49, 92
11, 172392, Note_on_c, 12, 49, 0
11, 172392, Note_on_c, 12, 50, 92
11, 172414, Note_on_c, 12, 50, 0
11, 172416, Note_on_c, 12, 54, 92
11, 172448, Note_on_c, 12, 54, 0
11, 172512, Note_on_c, 12, 50, 92
11, 172544, Note_on_c, 12, 50, 0
11, 172608, Note_on_c, 12, 45, 92
11, 172640, Note_on_c, 12, 45, 0
11, 172704, Note_on_c, 12, 42, 92
11, 172736, Note_on_c, 12, 42, 0
11, 172800, Note_on_c, 12, 38, 92
11, 172960, Note_on_c, 12, 38, 0
11, 172992, Note_on_c, 12, 38, 92
11, 173152, Note_on_c, 12, 38, 0
11, 173184, Note_on_c, 12, 38, 92
11, 173440, Note_on_c, 12, 38, 0
11, 173440, End_track
0, 0, End_of_file