0, 0, Header, 1, 16, 240
1, 0, Start_track
1, 0, Title_t, "W. A. Mozart - (Formerly called) Symphony No. 37 in G Major, K.444  "
1, 0, Time_signature, 3, 2, 24, 8
1, 0, Key_signature, 1, "major"
1, 0, Tempo, 1666667
1, 0, Marker_t, "Conductor Track"
1, 13680, Tempo, 2000000
1, 14400, Tempo, 1666667
1, 14400, End_track
2, 0, Start_track
2, 0, Title_t, "Introduction to a symphony in G Major by Michael Haydn - Adagio maestoso"
2, 0, End_track
3, 0, Start_track
3, 0, Title_t, "Sequenced by D. L. Viens 17 Mar 2001"
3, 0, End_track
4, 0, Start_track
4, 0, Title_t, "dlviens@empire.net"
4, 0, End_track
5, 0, Start_track
5, 0, Title_t, "Symphony No. 37 was previously credited to Mozart. It has later been determined  "
5, 0, End_track
6, 0, Start_track
6, 0, Title_t, "only the introduction is by him. The remainder is by Michael Haydn"
6, 0, End_track
7, 0, Start_track
7, 0, End_track
8, 0, Start_track
8, 0, Title_t, "Oboe"
8, 0, Program_c, 0, 68
8, 0, Control_c, 0, 7, 96
8, 0, Control_c, 0, 10, 80
8, 0, Control_c, 0, 11, 127
8, 0, Note_on_c, 0, 67, 80
8, 239, Note_on_c, 0, 67, 0
8, 660, Note_on_c, 0, 67, 80
8, 715, Note_on_c, 0, 67, 0
8, 720, Note_on_c, 0, 60, 80
8, 951, Note_on_c, 0, 60, 0
8, 960, Note_on_c, 0, 76, 80
8, 1199, Note_on_c, 0, 76, 0
8, 4560, Note_on_c, 0, 79, 80
8, 4560, Note_on_c, 0, 74, 80
8, 5031, Note_on_c, 0, 74, 0
8, 5040, Note_on_c, 0, 73, 80
8, 5271, Note_on_c, 0, 73, 0
8, 5280, Note_on_c, 0, 76, 80
8, 5751, Note_on_c, 0, 76, 0
8, 5751, Note_on_c, 0, 79, 0
8, 5760, Note_on_c, 0, 78, 44
8, 5760, Note_on_c, 0, 74, 44
8, 5879, Note_on_c, 0, 74, 0
8, 5879, Note_on_c, 0, 78, 0
8, 6240, Note_on_c, 0, 76, 44
8, 6240, Note_on_c, 0, 73, 44
8, 6479, Note_on_c, 0, 73, 0
8, 6479, Note_on_c, 0, 76, 0
8, 6480, Note_on_c, 0, 78, 44
8, 6480, Note_on_c, 0, 74, 44
8, 6599, Note_on_c, 0, 74, 0
8, 6599, Note_on_c, 0, 78, 0
8, 6960, Note_on_c, 0, 76, 44
8, 6960, Note_on_c, 0, 73, 44
8, 7199, Note_on_c, 0, 73, 0
8, 7199, Note_on_c, 0, 76, 0
8, 7200, Note_on_c, 0, 74, 44
8, 7319, Note_on_c, 0, 74, 0
8, 7440, Note_on_c, 0, 74, 32
8, 7559, Note_on_c, 0, 74, 0
8, 7680, Note_on_c, 0, 74, 32
8, 7799, Note_on_c, 0, 74, 0
8, 7920, Note_on_c, 0, 74, 32
8, 8031, Note_on_c, 0, 74, 0
8, 8040, Note_on_c, 0, 62, 32
8, 8151, Note_on_c, 0, 62, 0
8, 8160, Note_on_c, 0, 62, 32
8, 8271, Note_on_c, 0, 62, 0
8, 8280, Note_on_c, 0, 62, 32
8, 8391, Note_on_c, 0, 62, 0
8, 8400, Note_on_c, 0, 62, 32
8, 8511, Note_on_c, 0, 62, 0
8, 8520, Note_on_c, 0, 62, 32
8, 8631, Note_on_c, 0, 62, 0
8, 8640, Note_on_c, 0, 62, 80
8, 8871, Note_on_c, 0, 62, 0
8, 8880, Note_on_c, 0, 72, 80
8, 8880, Note_on_c, 0, 69, 80
8, 9111, Note_on_c, 0, 69, 0
8, 9111, Note_on_c, 0, 72, 0
8, 9120, Note_on_c, 0, 81, 80
8, 9120, Note_on_c, 0, 72, 80
8, 9359, Note_on_c, 0, 72, 0
8, 9359, Note_on_c, 0, 81, 0
8, 9540, Note_on_c, 0, 71, 80
8, 9540, Note_on_c, 0, 67, 80
8, 9595, Note_on_c, 0, 67, 0
8, 9595, Note_on_c, 0, 71, 0
8, 9600, Note_on_c, 0, 74, 80
8, 9600, Note_on_c, 0, 67, 80
8, 9831, Note_on_c, 0, 67, 0
8, 9831, Note_on_c, 0, 74, 0
8, 9840, Note_on_c, 0, 79, 80
8, 9840, Note_on_c, 0, 71, 80
8, 10079, Note_on_c, 0, 71, 0
8, 10079, Note_on_c, 0, 79, 0
8, 10320, Note_on_c, 0, 72, 80
8, 10320, Note_on_c, 0, 69, 80
8, 10551, Note_on_c, 0, 69, 0
8, 10551, Note_on_c, 0, 72, 0
8, 10560, Note_on_c, 0, 84, 80
8, 10560, Note_on_c, 0, 81, 80
8, 10799, Note_on_c, 0, 81, 0
8, 10799, Note_on_c, 0, 84, 0
8, 10980, Note_on_c, 0, 70, 80
8, 11035, Note_on_c, 0, 70, 0
8, 11040, Note_on_c, 0, 74, 80
8, 11040, Note_on_c, 0, 67, 80
8, 11271, Note_on_c, 0, 67, 0
8, 11271, Note_on_c, 0, 74, 0
8, 11280, Note_on_c, 0, 70, 80
8, 11280, Note_on_c, 0, 79, 80
8, 11511, Note_on_c, 0, 79, 0
8, 11511, Note_on_c, 0, 70, 0
8, 11520, Note_on_c, 0, 82, 80
8, 11520, Note_on_c, 0, 79, 80
8, 11991, Note_on_c, 0, 79, 0
8, 11991, Note_on_c, 0, 82, 0
8, 12000, Note_on_c, 0, 73, 80
8, 12000, Note_on_c, 0, 67, 80
8, 12231, Note_on_c, 0, 67, 0
8, 12231, Note_on_c, 0, 73, 0
8, 12240, Note_on_c, 0, 74, 80
8, 12240, Note_on_c, 0, 66, 80
8, 12359, Note_on_c, 0, 66, 0
8, 12359, Note_on_c, 0, 74, 0
8, 13080, Note_on_c, 0, 72, 80
8, 13080, Note_on_c, 0, 62, 80
8, 13191, Note_on_c, 0, 62, 0
8, 13191, Note_on_c, 0, 72, 0
8, 13200, Note_on_c, 0, 84, 80
8, 13200, Note_on_c, 0, 66, 80
8, 13311, Note_on_c, 0, 66, 0
8, 13311, Note_on_c, 0, 84, 0
8, 13320, Note_on_c, 0, 81, 80
8, 13320, Note_on_c, 0, 69, 80
8, 13431, Note_on_c, 0, 69, 0
8, 13431, Note_on_c, 0, 81, 0
8, 13440, Note_on_c, 0, 78, 80
8, 13440, Note_on_c, 0, 72, 80
8, 13551, Note_on_c, 0, 72, 0
8, 13551, Note_on_c, 0, 78, 0
8, 13560, Note_on_c, 0, 78, 44
8, 13560, Note_on_c, 0, 72, 44
8, 13671, Note_on_c, 0, 72, 0
8, 13671, Note_on_c, 0, 78, 0
8, 13680, Note_on_c, 0, 78, 44
8, 13680, Note_on_c, 0, 72, 44
8, 14339, Note_on_c, 0, 72, 0
8, 14339, Note_on_c, 0, 78, 0
8, 14339, End_track
9, 0, Start_track
9, 0, Title_t, "French Horn in G"
9, 0, Program_c, 1, 60
9, 0, Control_c, 1, 7, 104
9, 0, Control_c, 1, 10, 46
9, 0, Control_c, 1, 11, 127
9, 0, Note_on_c, 1, 67, 80
9, 231, Note_on_c, 1, 67, 0
9, 240, Note_on_c, 1, 59, 80
9, 479, Note_on_c, 1, 59, 0
9, 4320, Note_on_c, 1, 55, 80
9, 4320, Note_on_c, 1, 67, 80
9, 4791, Note_on_c, 1, 55, 0
9, 4799, Note_on_c, 1, 67, 0
9, 4800, Note_on_c, 1, 67, 80
9, 5031, Note_on_c, 1, 67, 0
9, 5040, Note_on_c, 1, 69, 80
9, 5751, Note_on_c, 1, 69, 0
9, 5760, Note_on_c, 1, 69, 44
9, 5760, Note_on_c, 1, 62, 44
9, 5879, Note_on_c, 1, 62, 0
9, 5879, Note_on_c, 1, 69, 0
9, 6240, Note_on_c, 1, 69, 44
9, 6471, Note_on_c, 1, 69, 0
9, 6480, Note_on_c, 1, 69, 44
9, 6480, Note_on_c, 1, 62, 44
9, 6599, Note_on_c, 1, 62, 0
9, 6599, Note_on_c, 1, 69, 0
9, 6960, Note_on_c, 1, 69, 44
9, 7191, Note_on_c, 1, 69, 0
9, 7200, Note_on_c, 1, 69, 44
9, 7200, Note_on_c, 1, 62, 44
9, 7319, Note_on_c, 1, 62, 0
9, 7319, Note_on_c, 1, 69, 0
9, 7440, Note_on_c, 1, 69, 32
9, 7440, Note_on_c, 1, 62, 32
9, 7559, Note_on_c, 1, 62, 0
9, 7559, Note_on_c, 1, 69, 0
9, 7680, Note_on_c, 1, 62, 32
9, 7680, Note_on_c, 1, 69, 32
9, 7799, Note_on_c, 1, 69, 0
9, 7799, Note_on_c, 1, 62, 0
9, 7920, Note_on_c, 1, 69, 32
9, 7920, Note_on_c, 1, 62, 32
9, 8031, Note_on_c, 1, 62, 0
9, 8031, Note_on_c, 1, 69, 0
9, 8040, Note_on_c, 1, 62, 32
9, 8151, Note_on_c, 1, 62, 0
9, 8160, Note_on_c, 1, 62, 32
9, 8271, Note_on_c, 1, 62, 0
9, 8280, Note_on_c, 1, 62, 32
9, 8391, Note_on_c, 1, 62, 0
9, 8400, Note_on_c, 1, 62, 32
9, 8511, Note_on_c, 1, 62, 0
9, 8520, Note_on_c, 1, 62, 32
9, 8631, Note_on_c, 1, 62, 0
9, 8640, Note_on_c, 1, 62, 80
9, 8751, Note_on_c, 1, 62, 0
9, 8760, Note_on_c, 1, 62, 80
9, 8871, Note_on_c, 1, 62, 0
9, 8880, Note_on_c, 1, 62, 80
9, 8991, Note_on_c, 1, 62, 0
9, 9000, Note_on_c, 1, 62, 80
9, 9111, Note_on_c, 1, 62, 0
9, 9120, Note_on_c, 1, 62, 80
9, 9231, Note_on_c, 1, 62, 0
9, 9240, Note_on_c, 1, 62, 80
9, 9351, Note_on_c, 1, 62, 0
9, 9360, Note_on_c, 1, 62, 80
9, 9471, Note_on_c, 1, 62, 0
9, 9480, Note_on_c, 1, 62, 80
9, 9591, Note_on_c, 1, 62, 0
9, 9600, Note_on_c, 1, 62, 80
9, 9711, Note_on_c, 1, 62, 0
9, 9720, Note_on_c, 1, 62, 80
9, 9831, Note_on_c, 1, 62, 0
9, 9840, Note_on_c, 1, 62, 80
9, 9951, Note_on_c, 1, 62, 0
9, 9960, Note_on_c, 1, 62, 80
9, 10071, Note_on_c, 1, 62, 0
9, 10080, Note_on_c, 1, 62, 80
9, 10191, Note_on_c, 1, 62, 0
9, 10200, Note_on_c, 1, 62, 80
9, 10311, Note_on_c, 1, 62, 0
9, 10320, Note_on_c, 1, 62, 80
9, 10431, Note_on_c, 1, 62, 0
9, 10440, Note_on_c, 1, 62, 80
9, 10551, Note_on_c, 1, 62, 0
9, 10560, Note_on_c, 1, 62, 80
9, 10671, Note_on_c, 1, 62, 0
9, 10680, Note_on_c, 1, 62, 80
9, 10791, Note_on_c, 1, 62, 0
9, 10800, Note_on_c, 1, 62, 80
9, 10911, Note_on_c, 1, 62, 0
9, 10920, Note_on_c, 1, 62, 80
9, 11031, Note_on_c, 1, 62, 0
9, 11040, Note_on_c, 1, 62, 80
9, 11151, Note_on_c, 1, 62, 0
9, 11160, Note_on_c, 1, 62, 80
9, 11271, Note_on_c, 1, 62, 0
9, 11280, Note_on_c, 1, 62, 80
9, 11391, Note_on_c, 1, 62, 0
9, 11400, Note_on_c, 1, 62, 80
9, 11511, Note_on_c, 1, 62, 0
9, 11520, Note_on_c, 1, 55, 80
9, 11520, Note_on_c, 1, 67, 80
9, 11631, Note_on_c, 1, 67, 0
9, 11631, Note_on_c, 1, 55, 0
9, 11640, Note_on_c, 1, 67, 80
9, 11640, Note_on_c, 1, 55, 80
9, 11751, Note_on_c, 1, 55, 0
9, 11751, Note_on_c, 1, 67, 0
9, 11760, Note_on_c, 1, 67, 80
9, 11760, Note_on_c, 1, 55, 80
9, 11871, Note_on_c, 1, 55, 0
9, 11871, Note_on_c, 1, 67, 0
9, 11880, Note_on_c, 1, 67, 80
9, 11880, Note_on_c, 1, 55, 80
9, 11991, Note_on_c, 1, 55, 0
9, 11991, Note_on_c, 1, 67, 0
9, 12000, Note_on_c, 1, 67, 80
9, 12000, Note_on_c, 1, 55, 80
9, 12111, Note_on_c, 1, 55, 0
9, 12111, Note_on_c, 1, 67, 0
9, 12120, Note_on_c, 1, 55, 80
9, 12120, Note_on_c, 1, 67, 80
9, 12231, Note_on_c, 1, 67, 0
9, 12231, Note_on_c, 1, 55, 0
9, 12240, Note_on_c, 1, 62, 80
9, 12359, Note_on_c, 1, 62, 0
9, 13080, Note_on_c, 1, 62, 80
9, 13080, Note_on_c, 1, 50, 80
9, 13191, Note_on_c, 1, 50, 0
9, 13191, Note_on_c, 1, 62, 0
9, 13200, Note_on_c, 1, 62, 80
9, 13200, Note_on_c, 1, 50, 80
9, 13311, Note_on_c, 1, 50, 0
9, 13311, Note_on_c, 1, 62, 0
9, 13320, Note_on_c, 1, 50, 80
9, 13320, Note_on_c, 1, 62, 80
9, 13431, Note_on_c, 1, 62, 0
9, 13431, Note_on_c, 1, 50, 0
9, 13440, Note_on_c, 1, 62, 80
9, 13440, Note_on_c, 1, 50, 80
9, 13551, Note_on_c, 1, 50, 0
9, 13551, Note_on_c, 1, 62, 0
9, 13560, Note_on_c, 1, 62, 44
9, 13560, Note_on_c, 1, 50, 44
9, 13671, Note_on_c, 1, 50, 0
9, 13671, Note_on_c, 1, 62, 0
9, 13680, Note_on_c, 1, 62, 44
9, 13680, Note_on_c, 1, 50, 44
9, 14339, Note_on_c, 1, 50, 0
9, 14339, Note_on_c, 1, 62, 0
9, 14339, End_track
10, 0, Start_track
10, 0, Title_t, "Violin I"
10, 0, Program_c, 11, 48
10, 0, Control_c, 11, 7, 102
10, 0, Control_c, 11, 10, 38
10, 0, Control_c, 11, 11, 127
10, 0, Note_on_c, 11, 67, 80
10, 231, Note_on_c, 11, 67, 0
10, 240, Note_on_c, 11, 59, 80
10, 479, Note_on_c, 11, 59, 0
10, 660, Note_on_c, 11, 67, 80
10, 715, Note_on_c, 11, 67, 0
10, 720, Note_on_c, 11, 60, 80
10, 951, Note_on_c, 11, 60, 0
10, 960, Note_on_c, 11, 76, 80
10, 1199, Note_on_c, 11, 76, 0
10, 1440, Note_on_c, 11, 62, 44
10, 1671, Note_on_c, 11, 62, 0
10, 1680, Note_on_c, 11, 64, 44
10, 1911, Note_on_c, 11, 64, 0
10, 1920, Note_on_c, 11, 66, 44
10, 2151, Note_on_c, 11, 66, 0
10, 2160, Note_on_c, 11, 67, 44
10, 2271, Note_on_c, 11, 67, 0
10, 2280, Note_on_c, 11, 69, 44
10, 2294, Note_on_c, 11, 69, 0
10, 2295, Note_on_c, 11, 67, 44
10, 2309, Note_on_c, 11, 67, 0
10, 2310, Note_on_c, 11, 66, 44
10, 2324, Note_on_c, 11, 66, 0
10, 2325, Note_on_c, 11, 67, 44
10, 2370, Note_on_c, 11, 74, 44
10, 2371, Note_on_c, 11, 67, 0
10, 2395, Note_on_c, 11, 74, 0
10, 2400, Note_on_c, 11, 74, 44
10, 2639, Note_on_c, 11, 74, 0
10, 2640, Note_on_c, 11, 74, 44
10, 2699, Note_on_c, 11, 74, 0
10, 2700, Note_on_c, 11, 73, 44
10, 2759, Note_on_c, 11, 73, 0
10, 2760, Note_on_c, 11, 72, 44
10, 2819, Note_on_c, 11, 72, 0
10, 2820, Note_on_c, 11, 69, 44
10, 2875, Note_on_c, 11, 69, 0
10, 2880, Note_on_c, 11, 67, 44
10, 2909, Note_on_c, 11, 67, 0
10, 2910, Note_on_c, 11, 69, 44
10, 2939, Note_on_c, 11, 69, 0
10, 2940, Note_on_c, 11, 66, 44
10, 2969, Note_on_c, 11, 66, 0
10, 2970, Note_on_c, 11, 69, 44
10, 2995, Note_on_c, 11, 69, 0
10, 3000, Note_on_c, 11, 67, 44
10, 3059, Note_on_c, 11, 67, 0
10, 3060, Note_on_c, 11, 71, 44
10, 3111, Note_on_c, 11, 71, 0
10, 3120, Note_on_c, 11, 64, 44
10, 3179, Note_on_c, 11, 64, 0
10, 3180, Note_on_c, 11, 76, 44
10, 3471, Note_on_c, 11, 76, 0
10, 3480, Note_on_c, 11, 74, 44
10, 3509, Note_on_c, 11, 74, 0
10, 3510, Note_on_c, 11, 72, 44
10, 3535, Note_on_c, 11, 72, 0
10, 3540, Note_on_c, 11, 71, 44
10, 3569, Note_on_c, 11, 71, 0
10, 3570, Note_on_c, 11, 69, 44
10, 3595, Note_on_c, 11, 69, 0
10, 3600, Note_on_c, 11, 67, 44
10, 3839, Note_on_c, 11, 67, 0
10, 3840, Note_on_c, 11, 67, 44
10, 3899, Note_on_c, 11, 67, 0
10, 3900, Note_on_c, 11, 66, 44
10, 3959, Note_on_c, 11, 66, 0
10, 3960, Note_on_c, 11, 69, 44
10, 4019, Note_on_c, 11, 69, 0
10, 4020, Note_on_c, 11, 66, 44
10, 4075, Note_on_c, 11, 66, 0
10, 4080, Note_on_c, 11, 62, 44
10, 4139, Note_on_c, 11, 62, 0
10, 4140, Note_on_c, 11, 72, 44
10, 4195, Note_on_c, 11, 72, 0
10, 4200, Note_on_c, 11, 69, 44
10, 4259, Note_on_c, 11, 69, 0
10, 4260, Note_on_c, 11, 66, 44
10, 4315, Note_on_c, 11, 66, 0
10, 4320, Note_on_c, 11, 67, 80
10, 4551, Note_on_c, 11, 67, 0
10, 4560, Note_on_c, 11, 58, 80
10, 4799, Note_on_c, 11, 58, 0
10, 4980, Note_on_c, 11, 67, 80
10, 5035, Note_on_c, 11, 67, 0
10, 5040, Note_on_c, 11, 57, 80
10, 5271, Note_on_c, 11, 57, 0
10, 5280, Note_on_c, 11, 73, 80
10, 5519, Note_on_c, 11, 73, 0
10, 5700, Note_on_c, 11, 69, 44
10, 5755, Note_on_c, 11, 69, 0
10, 5760, Note_on_c, 11, 78, 44
10, 5819, Note_on_c, 11, 78, 0
10, 5820, Note_on_c, 11, 81, 44
10, 5875, Note_on_c, 11, 81, 0
10, 5880, Note_on_c, 11, 74, 44
10, 5939, Note_on_c, 11, 74, 0
10, 5940, Note_on_c, 11, 78, 44
10, 5995, Note_on_c, 11, 78, 0
10, 6000, Note_on_c, 11, 69, 44
10, 6171, Note_on_c, 11, 69, 0
10, 6180, Note_on_c, 11, 74, 44
10, 6235, Note_on_c, 11, 74, 0
10, 6240, Note_on_c, 11, 73, 44
10, 6299, Note_on_c, 11, 73, 0
10, 6300, Note_on_c, 11, 76, 44
10, 6355, Note_on_c, 11, 76, 0
10, 6360, Note_on_c, 11, 69, 44
10, 6419, Note_on_c, 11, 69, 0
10, 6420, Note_on_c, 11, 76, 44
10, 6475, Note_on_c, 11, 76, 0
10, 6480, Note_on_c, 11, 78, 44
10, 6539, Note_on_c, 11, 78, 0
10, 6540, Note_on_c, 11, 81, 44
10, 6595, Note_on_c, 11, 81, 0
10, 6600, Note_on_c, 11, 74, 44
10, 6659, Note_on_c, 11, 74, 0
10, 6660, Note_on_c, 11, 78, 44
10, 6715, Note_on_c, 11, 78, 0
10, 6720, Note_on_c, 11, 69, 44
10, 6891, Note_on_c, 11, 69, 0
10, 6900, Note_on_c, 11, 74, 44
10, 6955, Note_on_c, 11, 74, 0
10, 6960, Note_on_c, 11, 73, 44
10, 7019, Note_on_c, 11, 73, 0
10, 7020, Note_on_c, 11, 76, 44
10, 7075, Note_on_c, 11, 76, 0
10, 7080, Note_on_c, 11, 69, 44
10, 7139, Note_on_c, 11, 69, 0
10, 7140, Note_on_c, 11, 73, 44
10, 7195, Note_on_c, 11, 73, 0
10, 7200, Note_on_c, 11, 74, 32
10, 7259, Note_on_c, 11, 74, 0
10, 7260, Note_on_c, 11, 78, 32
10, 7315, Note_on_c, 11, 78, 0
10, 7320, Note_on_c, 11, 69, 32
10, 7379, Note_on_c, 11, 69, 0
10, 7380, Note_on_c, 11, 73, 32
10, 7435, Note_on_c, 11, 73, 0
10, 7440, Note_on_c, 11, 74, 32
10, 7499, Note_on_c, 11, 74, 0
10, 7500, Note_on_c, 11, 78, 32
10, 7555, Note_on_c, 11, 78, 0
10, 7560, Note_on_c, 11, 69, 32
10, 7619, Note_on_c, 11, 69, 0
10, 7620, Note_on_c, 11, 73, 32
10, 7675, Note_on_c, 11, 73, 0
10, 7680, Note_on_c, 11, 74, 32
10, 7739, Note_on_c, 11, 74, 0
10, 7740, Note_on_c, 11, 78, 32
10, 7795, Note_on_c, 11, 78, 0
10, 7800, Note_on_c, 11, 69, 32
10, 7859, Note_on_c, 11, 69, 0
10, 7860, Note_on_c, 11, 73, 32
10, 7891, Note_on_c, 11, 73, 0
10, 7920, Note_on_c, 11, 76, 32
10, 7934, Note_on_c, 11, 76, 0
10, 7935, Note_on_c, 11, 74, 32
10, 7949, Note_on_c, 11, 74, 0
10, 7950, Note_on_c, 11, 73, 32
10, 7964, Note_on_c, 11, 73, 0
10, 7965, Note_on_c, 11, 74, 32
10, 8039, Note_on_c, 11, 74, 0
10, 8640, Note_on_c, 11, 81, 80
10, 8871, Note_on_c, 11, 81, 0
10, 8880, Note_on_c, 11, 72, 80
10, 9119, Note_on_c, 11, 72, 0
10, 9300, Note_on_c, 11, 72, 80
10, 9355, Note_on_c, 11, 72, 0
10, 9360, Note_on_c, 11, 71, 80
10, 9591, Note_on_c, 11, 71, 0
10, 9600, Note_on_c, 11, 79, 80
10, 9839, Note_on_c, 11, 79, 0
10, 10020, Note_on_c, 11, 74, 80
10, 10075, Note_on_c, 11, 74, 0
10, 10080, Note_on_c, 11, 84, 80
10, 10311, Note_on_c, 11, 84, 0
10, 10320, Note_on_c, 11, 72, 80
10, 10559, Note_on_c, 11, 72, 0
10, 10740, Note_on_c, 11, 72, 80
10, 10795, Note_on_c, 11, 72, 0
10, 10800, Note_on_c, 11, 70, 80
10, 11031, Note_on_c, 11, 70, 0
10, 11040, Note_on_c, 11, 79, 80
10, 11279, Note_on_c, 11, 79, 0
10, 11460, Note_on_c, 11, 79, 80
10, 11515, Note_on_c, 11, 79, 0
10, 11520, Note_on_c, 11, 82, 80
10, 11575, Note_on_c, 11, 82, 0
10, 11580, Note_on_c, 11, 82, 80
10, 11691, Note_on_c, 11, 82, 0
10, 11700, Note_on_c, 11, 79, 80
10, 11755, Note_on_c, 11, 79, 0
10, 11760, Note_on_c, 11, 82, 80
10, 11815, Note_on_c, 11, 82, 0
10, 11820, Note_on_c, 11, 82, 80
10, 11931, Note_on_c, 11, 82, 0
10, 11940, Note_on_c, 11, 79, 80
10, 11995, Note_on_c, 11, 79, 0
10, 12000, Note_on_c, 11, 82, 80
10, 12055, Note_on_c, 11, 82, 0
10, 12060, Note_on_c, 11, 82, 80
10, 12171, Note_on_c, 11, 82, 0
10, 12180, Note_on_c, 11, 73, 80
10, 12235, Note_on_c, 11, 73, 0
10, 12240, Note_on_c, 11, 74, 44
10, 12359, Note_on_c, 11, 74, 0
10, 12360, Note_on_c, 11, 62, 44
10, 12479, Note_on_c, 11, 62, 0
10, 12480, Note_on_c, 11, 66, 44
10, 12599, Note_on_c, 11, 66, 0
10, 12600, Note_on_c, 11, 69, 44
10, 12711, Note_on_c, 11, 69, 0
10, 12720, Note_on_c, 11, 72, 44
10, 12831, Note_on_c, 11, 72, 0
10, 12840, Note_on_c, 11, 72, 44
10, 12951, Note_on_c, 11, 72, 0
10, 12960, Note_on_c, 11, 72, 80
10, 13071, Note_on_c, 11, 72, 0
10, 13080, Note_on_c, 11, 69, 80
10, 13191, Note_on_c, 11, 69, 0
10, 13200, Note_on_c, 11, 84, 80
10, 13319, Note_on_c, 11, 84, 0
10, 13320, Note_on_c, 11, 81, 80
10, 13439, Note_on_c, 11, 81, 0
10, 13440, Note_on_c, 11, 78, 80
10, 13551, Note_on_c, 11, 78, 0
10, 13560, Note_on_c, 11, 78, 44
10, 13649, Note_on_c, 11, 78, 0
10, 13680, Note_on_c, 11, 78, 44
10, 14039, Note_on_c, 11, 78, 0
10, 14040, Note_on_c, 11, 78, 44
10, 14339, Note_on_c, 11, 78, 0
10, 14339, End_track
11, 0, Start_track
11, 0, Title_t, "Violin II"
11, 0, Program_c, 12, 48
11, 0, Control_c, 12, 7, 101
11, 0, Control_c, 12, 10, 43
11, 0, Control_c, 12, 11, 127
11, 0, Note_on_c, 12, 67, 80
11, 231, Note_on_c, 12, 67, 0
11, 240, Note_on_c, 12, 59, 80
11, 479, Note_on_c, 12, 59, 0
11, 660, Note_on_c, 12, 67, 80
11, 715, Note_on_c, 12, 67, 0
11, 720, Note_on_c, 12, 60, 80
11, 951, Note_on_c, 12, 60, 0
11, 960, Note_on_c, 12, 76, 80
11, 1199, Note_on_c, 12, 76, 0
11, 1440, Note_on_c, 12, 62, 44
11, 1671, Note_on_c, 12, 62, 0
11, 1680, Note_on_c, 12, 61, 44
11, 1911, Note_on_c, 12, 61, 0
11, 1920, Note_on_c, 12, 60, 44
11, 2151, Note_on_c, 12, 60, 0
11, 2160, Note_on_c, 12, 59, 44
11, 2279, Note_on_c, 12, 59, 0
11, 2280, Note_on_c, 12, 59, 44
11, 2319, Note_on_c, 12, 59, 0
11, 2320, Note_on_c, 12, 62, 44
11, 2359, Note_on_c, 12, 62, 0
11, 2360, Note_on_c, 12, 67, 44
11, 2395, Note_on_c, 12, 67, 0
11, 2400, Note_on_c, 12, 66, 44
11, 2759, Note_on_c, 12, 66, 0
11, 3000, Note_on_c, 12, 55, 44
11, 3239, Note_on_c, 12, 55, 0
11, 3240, Note_on_c, 12, 56, 44
11, 3351, Note_on_c, 12, 56, 0
11, 3360, Note_on_c, 12, 57, 44
11, 3471, Note_on_c, 12, 57, 0
11, 3480, Note_on_c, 12, 64, 44
11, 3539, Note_on_c, 12, 64, 0
11, 3540, Note_on_c, 12, 60, 44
11, 3595, Note_on_c, 12, 60, 0
11, 3600, Note_on_c, 12, 59, 44
11, 3839, Note_on_c, 12, 59, 0
11, 3840, Note_on_c, 12, 57, 44
11, 3959, Note_on_c, 12, 57, 0
11, 4320, Note_on_c, 12, 67, 80
11, 4551, Note_on_c, 12, 67, 0
11, 4560, Note_on_c, 12, 58, 80
11, 4799, Note_on_c, 12, 58, 0
11, 4980, Note_on_c, 12, 67, 80
11, 5035, Note_on_c, 12, 67, 0
11, 5040, Note_on_c, 12, 57, 80
11, 5271, Note_on_c, 12, 57, 0
11, 5280, Note_on_c, 12, 73, 80
11, 5519, Note_on_c, 12, 73, 0
11, 5820, Note_on_c, 12, 62, 44
11, 5850, Note_on_c, 12, 66, 44
11, 5851, Note_on_c, 12, 62, 0
11, 5880, Note_on_c, 12, 69, 44
11, 5881, Note_on_c, 12, 66, 0
11, 5935, Note_on_c, 12, 69, 0
11, 5940, Note_on_c, 12, 69, 44
11, 5999, Note_on_c, 12, 69, 0
11, 6060, Note_on_c, 12, 62, 44
11, 6090, Note_on_c, 12, 66, 44
11, 6091, Note_on_c, 12, 62, 0
11, 6120, Note_on_c, 12, 69, 44
11, 6121, Note_on_c, 12, 66, 0
11, 6175, Note_on_c, 12, 69, 0
11, 6180, Note_on_c, 12, 69, 44
11, 6239, Note_on_c, 12, 69, 0
11, 6300, Note_on_c, 12, 61, 44
11, 6330, Note_on_c, 12, 64, 44
11, 6331, Note_on_c, 12, 61, 0
11, 6360, Note_on_c, 12, 67, 44
11, 6361, Note_on_c, 12, 64, 0
11, 6415, Note_on_c, 12, 67, 0
11, 6420, Note_on_c, 12, 67, 44
11, 6479, Note_on_c, 12, 67, 0
11, 6540, Note_on_c, 12, 62, 44
11, 6570, Note_on_c, 12, 66, 44
11, 6571, Note_on_c, 12, 62, 0
11, 6600, Note_on_c, 12, 69, 44
11, 6601, Note_on_c, 12, 66, 0
11, 6655, Note_on_c, 12, 69, 0
11, 6660, Note_on_c, 12, 69, 44
11, 6719, Note_on_c, 12, 69, 0
11, 6780, Note_on_c, 12, 62, 44
11, 6810, Note_on_c, 12, 66, 44
11, 6811, Note_on_c, 12, 62, 0
11, 6840, Note_on_c, 12, 69, 44
11, 6841, Note_on_c, 12, 66, 0
11, 6895, Note_on_c, 12, 69, 0
11, 6900, Note_on_c, 12, 69, 44
11, 6959, Note_on_c, 12, 69, 0
11, 7020, Note_on_c, 12, 61, 44
11, 7050, Note_on_c, 12, 64, 44
11, 7051, Note_on_c, 12, 61, 0
11, 7080, Note_on_c, 12, 67, 44
11, 7081, Note_on_c, 12, 64, 0
11, 7135, Note_on_c, 12, 67, 0
11, 7140, Note_on_c, 12, 67, 44
11, 7195, Note_on_c, 12, 67, 0
11, 7200, Note_on_c, 12, 66, 32
11, 7259, Note_on_c, 12, 66, 0
11, 7260, Note_on_c, 12, 62, 32
11, 7315, Note_on_c, 12, 62, 0
11, 7320, Note_on_c, 12, 69, 32
11, 7364, Note_on_c, 12, 69, 0
11, 7380, Note_on_c, 12, 67, 32
11, 7424, Note_on_c, 12, 67, 0
11, 7440, Note_on_c, 12, 67, 32
11, 7454, Note_on_c, 12, 67, 0
11, 7455, Note_on_c, 12, 66, 32
11, 7469, Note_on_c, 12, 66, 0
11, 7470, Note_on_c, 12, 64, 32
11, 7484, Note_on_c, 12, 64, 0
11, 7485, Note_on_c, 12, 66, 32
11, 7551, Note_on_c, 12, 66, 0
11, 7560, Note_on_c, 12, 69, 32
11, 7604, Note_on_c, 12, 69, 0
11, 7620, Note_on_c, 12, 67, 32
11, 7664, Note_on_c, 12, 67, 0
11, 7680, Note_on_c, 12, 67, 32
11, 7694, Note_on_c, 12, 67, 0
11, 7695, Note_on_c, 12, 66, 32
11, 7709, Note_on_c, 12, 66, 0
11, 7710, Note_on_c, 12, 64, 32
11, 7724, Note_on_c, 12, 64, 0
11, 7725, Note_on_c, 12, 66, 32
11, 7791, Note_on_c, 12, 66, 0
11, 7800, Note_on_c, 12, 69, 32
11, 7844, Note_on_c, 12, 69, 0
11, 7860, Note_on_c, 12, 67, 32
11, 7904, Note_on_c, 12, 67, 0
11, 7920, Note_on_c, 12, 67, 32
11, 7934, Note_on_c, 12, 67, 0
11, 7935, Note_on_c, 12, 66, 32
11, 7949, Note_on_c, 12, 66, 0
11, 7950, Note_on_c, 12, 64, 32
11, 7964, Note_on_c, 12, 64, 0
11, 7965, Note_on_c, 12, 66, 32
11, 8039, Note_on_c, 12, 66, 0
11, 8640, Note_on_c, 12, 72, 80
11, 8871, Note_on_c, 12, 72, 0
11, 8880, Note_on_c, 12, 69, 80
11, 9119, Note_on_c, 12, 69, 0
11, 9300, Note_on_c, 12, 66, 80
11, 9355, Note_on_c, 12, 66, 0
11, 9360, Note_on_c, 12, 67, 80
11, 9591, Note_on_c, 12, 67, 0
11, 9600, Note_on_c, 12, 62, 80
11, 9839, Note_on_c, 12, 62, 0
11, 10020, Note_on_c, 12, 74, 80
11, 10075, Note_on_c, 12, 74, 0
11, 10080, Note_on_c, 12, 81, 80
11, 10311, Note_on_c, 12, 81, 0
11, 10320, Note_on_c, 12, 69, 80
11, 10559, Note_on_c, 12, 69, 0
11, 10740, Note_on_c, 12, 66, 80
11, 10795, Note_on_c, 12, 66, 0
11, 10800, Note_on_c, 12, 67, 80
11, 11031, Note_on_c, 12, 67, 0
11, 11040, Note_on_c, 12, 62, 80
11, 11279, Note_on_c, 12, 62, 0
11, 11460, Note_on_c, 12, 71, 80
11, 11515, Note_on_c, 12, 71, 0
11, 11520, Note_on_c, 12, 79, 80
11, 11575, Note_on_c, 12, 79, 0
11, 11580, Note_on_c, 12, 79, 80
11, 11691, Note_on_c, 12, 79, 0
11, 11700, Note_on_c, 12, 70, 80
11, 11755, Note_on_c, 12, 70, 0
11, 11760, Note_on_c, 12, 79, 80
11, 11815, Note_on_c, 12, 79, 0
11, 11820, Note_on_c, 12, 79, 80
11, 11931, Note_on_c, 12, 79, 0
11, 11940, Note_on_c, 12, 70, 80
11, 11995, Note_on_c, 12, 70, 0
11, 12000, Note_on_c, 12, 79, 80
11, 12055, Note_on_c, 12, 79, 0
11, 12060, Note_on_c, 12, 79, 80
11, 12171, Note_on_c, 12, 79, 0
11, 12180, Note_on_c, 12, 67, 80
11, 12235, Note_on_c, 12, 67, 0
11, 12240, Note_on_c, 12, 66, 44
11, 12359, Note_on_c, 12, 66, 0
11, 12480, Note_on_c, 12, 62, 44
11, 12599, Note_on_c, 12, 62, 0
11, 12600, Note_on_c, 12, 66, 44
11, 12711, Note_on_c, 12, 66, 0
11, 12720, Note_on_c, 12, 69, 44
11, 12809, Note_on_c, 12, 69, 0
11, 12840, Note_on_c, 12, 69, 44
11, 12929, Note_on_c, 12, 69, 0
11, 12960, Note_on_c, 12, 69, 80
11, 13071, Note_on_c, 12, 69, 0
11, 13080, Note_on_c, 12, 66, 80
11, 13191, Note_on_c, 12, 66, 0
11, 13200, Note_on_c, 12, 81, 80
11, 13319, Note_on_c, 12, 81, 0
11, 13320, Note_on_c, 12, 78, 80
11, 13439, Note_on_c, 12, 78, 0
11, 13440, Note_on_c, 12, 74, 80
11, 13551, Note_on_c, 12, 74, 0
11, 13560, Note_on_c, 12, 69, 44
11, 13649, Note_on_c, 12, 69, 0
11, 13680, Note_on_c, 12, 69, 44
11, 14039, Note_on_c, 12, 69, 0
11, 14040, Note_on_c, 12, 69, 44
11, 14339, Note_on_c, 12, 69, 0
11, 14339, End_track
12, 0, Start_track
12, 0, Title_t, "Viola "
12, 0, Program_c, 13, 48
12, 0, Control_c, 13, 7, 101
12, 0, Control_c, 13, 10, 85
12, 0, Control_c, 13, 11, 127
12, 0, Note_on_c, 13, 67, 80
12, 231, Note_on_c, 13, 67, 0
12, 240, Note_on_c, 13, 59, 80
12, 479, Note_on_c, 13, 59, 0
12, 660, Note_on_c, 13, 67, 80
12, 715, Note_on_c, 13, 67, 0
12, 720, Note_on_c, 13, 60, 80
12, 951, Note_on_c, 13, 60, 0
12, 960, Note_on_c, 13, 76, 80
12, 1199, Note_on_c, 13, 76, 0
12, 1440, Note_on_c, 13, 54, 44
12, 1671, Note_on_c, 13, 54, 0
12, 1680, Note_on_c, 13, 55, 44
12, 1911, Note_on_c, 13, 55, 0
12, 1920, Note_on_c, 13, 57, 44
12, 2151, Note_on_c, 13, 57, 0
12, 2160, Note_on_c, 13, 62, 44
12, 2339, Note_on_c, 13, 62, 0
12, 2340, Note_on_c, 13, 59, 44
12, 2395, Note_on_c, 13, 59, 0
12, 2400, Note_on_c, 13, 57, 44
12, 2759, Note_on_c, 13, 57, 0
12, 3000, Note_on_c, 13, 59, 44
12, 3119, Note_on_c, 13, 59, 0
12, 3120, Note_on_c, 13, 60, 44
12, 3239, Note_on_c, 13, 60, 0
12, 3240, Note_on_c, 13, 64, 44
12, 3359, Note_on_c, 13, 64, 0
12, 3360, Note_on_c, 13, 60, 44
12, 3479, Note_on_c, 13, 60, 0
12, 3480, Note_on_c, 13, 57, 44
12, 3591, Note_on_c, 13, 57, 0
12, 3600, Note_on_c, 13, 62, 44
12, 3831, Note_on_c, 13, 62, 0
12, 3840, Note_on_c, 13, 50, 44
12, 4079, Note_on_c, 13, 50, 0
12, 4320, Note_on_c, 13, 67, 80
12, 4551, Note_on_c, 13, 67, 0
12, 4560, Note_on_c, 13, 58, 80
12, 4799, Note_on_c, 13, 58, 0
12, 4980, Note_on_c, 13, 67, 80
12, 5035, Note_on_c, 13, 67, 0
12, 5040, Note_on_c, 13, 57, 80
12, 5271, Note_on_c, 13, 57, 0
12, 5280, Note_on_c, 13, 73, 80
12, 5519, Note_on_c, 13, 73, 0
12, 5820, Note_on_c, 13, 57, 44
12, 5850, Note_on_c, 13, 62, 44
12, 5851, Note_on_c, 13, 57, 0
12, 5880, Note_on_c, 13, 66, 44
12, 5881, Note_on_c, 13, 62, 0
12, 5935, Note_on_c, 13, 66, 0
12, 5940, Note_on_c, 13, 66, 44
12, 5999, Note_on_c, 13, 66, 0
12, 6060, Note_on_c, 13, 54, 44
12, 6090, Note_on_c, 13, 57, 44
12, 6091, Note_on_c, 13, 54, 0
12, 6120, Note_on_c, 13, 62, 44
12, 6121, Note_on_c, 13, 57, 0
12, 6175, Note_on_c, 13, 62, 0
12, 6180, Note_on_c, 13, 62, 44
12, 6239, Note_on_c, 13, 62, 0
12, 6300, Note_on_c, 13, 57, 44
12, 6330, Note_on_c, 13, 61, 44
12, 6331, Note_on_c, 13, 57, 0
12, 6360, Note_on_c, 13, 64, 44
12, 6361, Note_on_c, 13, 61, 0
12, 6415, Note_on_c, 13, 64, 0
12, 6420, Note_on_c, 13, 64, 44
12, 6479, Note_on_c, 13, 64, 0
12, 6540, Note_on_c, 13, 57, 44
12, 6570, Note_on_c, 13, 62, 44
12, 6571, Note_on_c, 13, 57, 0
12, 6600, Note_on_c, 13, 66, 44
12, 6601, Note_on_c, 13, 62, 0
12, 6655, Note_on_c, 13, 66, 0
12, 6660, Note_on_c, 13, 66, 44
12, 6719, Note_on_c, 13, 66, 0
12, 6780, Note_on_c, 13, 54, 44
12, 6810, Note_on_c, 13, 57, 44
12, 6811, Note_on_c, 13, 54, 0
12, 6840, Note_on_c, 13, 62, 44
12, 6841, Note_on_c, 13, 57, 0
12, 6895, Note_on_c, 13, 62, 0
12, 6900, Note_on_c, 13, 62, 44
12, 6959, Note_on_c, 13, 62, 0
12, 7020, Note_on_c, 13, 57, 44
12, 7050, Note_on_c, 13, 61, 44
12, 7051, Note_on_c, 13, 57, 0
12, 7080, Note_on_c, 13, 64, 44
12, 7081, Note_on_c, 13, 61, 0
12, 7135, Note_on_c, 13, 64, 0
12, 7140, Note_on_c, 13, 64, 44
12, 7195, Note_on_c, 13, 64, 0
12, 7200, Note_on_c, 13, 62, 32
12, 7259, Note_on_c, 13, 62, 0
12, 7260, Note_on_c, 13, 57, 32
12, 7315, Note_on_c, 13, 57, 0
12, 7320, Note_on_c, 13, 66, 32
12, 7364, Note_on_c, 13, 66, 0
12, 7380, Note_on_c, 13, 64, 32
12, 7424, Note_on_c, 13, 64, 0
12, 7440, Note_on_c, 13, 64, 32
12, 7454, Note_on_c, 13, 64, 0
12, 7455, Note_on_c, 13, 62, 32
12, 7469, Note_on_c, 13, 62, 0
12, 7470, Note_on_c, 13, 61, 32
12, 7484, Note_on_c, 13, 61, 0
12, 7485, Note_on_c, 13, 62, 32
12, 7551, Note_on_c, 13, 62, 0
12, 7560, Note_on_c, 13, 66, 32
12, 7604, Note_on_c, 13, 66, 0
12, 7620, Note_on_c, 13, 64, 32
12, 7664, Note_on_c, 13, 64, 0
12, 7680, Note_on_c, 13, 64, 32
12, 7694, Note_on_c, 13, 64, 0
12, 7695, Note_on_c, 13, 62, 32
12, 7709, Note_on_c, 13, 62, 0
12, 7710, Note_on_c, 13, 61, 32
12, 7724, Note_on_c, 13, 61, 0
12, 7725, Note_on_c, 13, 62, 32
12, 7791, Note_on_c, 13, 62, 0
12, 7800, Note_on_c, 13, 66, 32
12, 7844, Note_on_c, 13, 66, 0
12, 7860, Note_on_c, 13, 64, 32
12, 7904, Note_on_c, 13, 64, 0
12, 7920, Note_on_c, 13, 62, 32
12, 8031, Note_on_c, 13, 62, 0
12, 8040, Note_on_c, 13, 62, 32
12, 8151, Note_on_c, 13, 62, 0
12, 8160, Note_on_c, 13, 62, 32
12, 8271, Note_on_c, 13, 62, 0
12, 8280, Note_on_c, 13, 62, 32
12, 8391, Note_on_c, 13, 62, 0
12, 8400, Note_on_c, 13, 62, 32
12, 8511, Note_on_c, 13, 62, 0
12, 8520, Note_on_c, 13, 62, 32
12, 8631, Note_on_c, 13, 62, 0
12, 8640, Note_on_c, 13, 66, 80
12, 8699, Note_on_c, 13, 66, 0
12, 8700, Note_on_c, 13, 62, 80
12, 8755, Note_on_c, 13, 62, 0
12, 8760, Note_on_c, 13, 66, 80
12, 8819, Note_on_c, 13, 66, 0
12, 8820, Note_on_c, 13, 69, 80
12, 8875, Note_on_c, 13, 69, 0
12, 8880, Note_on_c, 13, 62, 80
12, 8939, Note_on_c, 13, 62, 0
12, 8940, Note_on_c, 13, 57, 80
12, 8995, Note_on_c, 13, 57, 0
12, 9000, Note_on_c, 13, 62, 80
12, 9059, Note_on_c, 13, 62, 0
12, 9060, Note_on_c, 13, 57, 80
12, 9115, Note_on_c, 13, 57, 0
12, 9120, Note_on_c, 13, 66, 80
12, 9179, Note_on_c, 13, 66, 0
12, 9180, Note_on_c, 13, 62, 80
12, 9235, Note_on_c, 13, 62, 0
12, 9240, Note_on_c, 13, 66, 80
12, 9299, Note_on_c, 13, 66, 0
12, 9300, Note_on_c, 13, 69, 80
12, 9355, Note_on_c, 13, 69, 0
12, 9360, Note_on_c, 13, 67, 80
12, 9419, Note_on_c, 13, 67, 0
12, 9420, Note_on_c, 13, 62, 80
12, 9475, Note_on_c, 13, 62, 0
12, 9480, Note_on_c, 13, 67, 80
12, 9539, Note_on_c, 13, 67, 0
12, 9540, Note_on_c, 13, 71, 80
12, 9595, Note_on_c, 13, 71, 0
12, 9600, Note_on_c, 13, 67, 80
12, 9659, Note_on_c, 13, 67, 0
12, 9660, Note_on_c, 13, 62, 80
12, 9715, Note_on_c, 13, 62, 0
12, 9720, Note_on_c, 13, 67, 80
12, 9779, Note_on_c, 13, 67, 0
12, 9780, Note_on_c, 13, 62, 80
12, 9835, Note_on_c, 13, 62, 0
12, 9840, Note_on_c, 13, 59, 80
12, 9899, Note_on_c, 13, 59, 0
12, 9900, Note_on_c, 13, 62, 80
12, 9955, Note_on_c, 13, 62, 0
12, 9960, Note_on_c, 13, 67, 80
12, 10019, Note_on_c, 13, 67, 0
12, 10020, Note_on_c, 13, 71, 80
12, 10075, Note_on_c, 13, 71, 0
12, 10080, Note_on_c, 13, 66, 80
12, 10139, Note_on_c, 13, 66, 0
12, 10140, Note_on_c, 13, 62, 80
12, 10195, Note_on_c, 13, 62, 0
12, 10200, Note_on_c, 13, 66, 80
12, 10259, Note_on_c, 13, 66, 0
12, 10260, Note_on_c, 13, 69, 80
12, 10315, Note_on_c, 13, 69, 0
12, 10320, Note_on_c, 13, 62, 80
12, 10379, Note_on_c, 13, 62, 0
12, 10380, Note_on_c, 13, 57, 80
12, 10435, Note_on_c, 13, 57, 0
12, 10440, Note_on_c, 13, 62, 80
12, 10499, Note_on_c, 13, 62, 0
12, 10500, Note_on_c, 13, 57, 80
12, 10555, Note_on_c, 13, 57, 0
12, 10560, Note_on_c, 13, 66, 80
12, 10619, Note_on_c, 13, 66, 0
12, 10620, Note_on_c, 13, 62, 80
12, 10675, Note_on_c, 13, 62, 0
12, 10680, Note_on_c, 13, 66, 80
12, 10739, Note_on_c, 13, 66, 0
12, 10740, Note_on_c, 13, 69, 80
12, 10795, Note_on_c, 13, 69, 0
12, 10800, Note_on_c, 13, 67, 80
12, 10859, Note_on_c, 13, 67, 0
12, 10860, Note_on_c, 13, 62, 80
12, 10915, Note_on_c, 13, 62, 0
12, 10920, Note_on_c, 13, 67, 80
12, 10979, Note_on_c, 13, 67, 0
12, 10980, Note_on_c, 13, 70, 80
12, 11035, Note_on_c, 13, 70, 0
12, 11040, Note_on_c, 13, 67, 80
12, 11099, Note_on_c, 13, 67, 0
12, 11100, Note_on_c, 13, 62, 80
12, 11155, Note_on_c, 13, 62, 0
12, 11160, Note_on_c, 13, 67, 80
12, 11219, Note_on_c, 13, 67, 0
12, 11220, Note_on_c, 13, 62, 80
12, 11275, Note_on_c, 13, 62, 0
12, 11280, Note_on_c, 13, 58, 80
12, 11339, Note_on_c, 13, 58, 0
12, 11340, Note_on_c, 13, 62, 80
12, 11395, Note_on_c, 13, 62, 0
12, 11400, Note_on_c, 13, 67, 80
12, 11459, Note_on_c, 13, 67, 0
12, 11460, Note_on_c, 13, 62, 80
12, 11515, Note_on_c, 13, 62, 0
12, 11520, Note_on_c, 13, 61, 80
12, 11631, Note_on_c, 13, 61, 0
12, 11640, Note_on_c, 13, 61, 80
12, 11751, Note_on_c, 13, 61, 0
12, 11760, Note_on_c, 13, 61, 80
12, 11871, Note_on_c, 13, 61, 0
12, 11880, Note_on_c, 13, 61, 80
12, 11991, Note_on_c, 13, 61, 0
12, 12000, Note_on_c, 13, 55, 80
12, 12111, Note_on_c, 13, 55, 0
12, 12120, Note_on_c, 13, 55, 80
12, 12231, Note_on_c, 13, 55, 0
12, 12240, Note_on_c, 13, 57, 80
12, 12359, Note_on_c, 13, 57, 0
12, 13080, Note_on_c, 13, 50, 80
12, 13199, Note_on_c, 13, 50, 0
12, 13200, Note_on_c, 13, 54, 80
12, 13319, Note_on_c, 13, 54, 0
12, 13320, Note_on_c, 13, 57, 80
12, 13439, Note_on_c, 13, 57, 0
12, 13440, Note_on_c, 13, 60, 80
12, 13551, Note_on_c, 13, 60, 0
12, 13560, Note_on_c, 13, 60, 44
12, 13649, Note_on_c, 13, 60, 0
12, 13680, Note_on_c, 13, 60, 44
12, 14039, Note_on_c, 13, 60, 0
12, 14040, Note_on_c, 13, 60, 44
12, 14339, Note_on_c, 13, 60, 0
12, 14339, End_track
13, 0, Start_track
13, 0, Title_t, "Cello"
13, 0, Program_c, 14, 48
13, 0, Control_c, 14, 7, 105
13, 0, Control_c, 14, 10, 91
13, 0, Control_c, 14, 11, 127
13, 0, Note_on_c, 14, 55, 80
13, 231, Note_on_c, 14, 55, 0
13, 240, Note_on_c, 14, 47, 80
13, 479, Note_on_c, 14, 47, 0
13, 660, Note_on_c, 14, 55, 80
13, 715, Note_on_c, 14, 55, 0
13, 720, Note_on_c, 14, 48, 80
13, 951, Note_on_c, 14, 48, 0
13, 960, Note_on_c, 14, 64, 80
13, 1199, Note_on_c, 14, 64, 0
13, 1440, Note_on_c, 14, 50, 44
13, 1551, Note_on_c, 14, 50, 0
13, 1560, Note_on_c, 14, 50, 44
13, 1671, Note_on_c, 14, 50, 0
13, 1680, Note_on_c, 14, 50, 44
13, 1791, Note_on_c, 14, 50, 0
13, 1800, Note_on_c, 14, 50, 44
13, 1911, Note_on_c, 14, 50, 0
13, 1920, Note_on_c, 14, 50, 44
13, 2031, Note_on_c, 14, 50, 0
13, 2040, Note_on_c, 14, 50, 44
13, 2151, Note_on_c, 14, 50, 0
13, 2160, Note_on_c, 14, 50, 44
13, 2271, Note_on_c, 14, 50, 0
13, 2280, Note_on_c, 14, 50, 44
13, 2391, Note_on_c, 14, 50, 0
13, 2400, Note_on_c, 14, 50, 44
13, 2511, Note_on_c, 14, 50, 0
13, 2520, Note_on_c, 14, 50, 44
13, 2631, Note_on_c, 14, 50, 0
13, 2640, Note_on_c, 14, 50, 44
13, 2759, Note_on_c, 14, 50, 0
13, 2880, Note_on_c, 14, 52, 44
13, 3111, Note_on_c, 14, 52, 0
13, 3120, Note_on_c, 14, 48, 44
13, 3351, Note_on_c, 14, 48, 0
13, 3360, Note_on_c, 14, 48, 44
13, 3591, Note_on_c, 14, 48, 0
13, 3600, Note_on_c, 14, 50, 44
13, 3831, Note_on_c, 14, 50, 0
13, 3840, Note_on_c, 14, 50, 44
13, 4079, Note_on_c, 14, 50, 0
13, 4320, Note_on_c, 14, 55, 80
13, 4551, Note_on_c, 14, 55, 0
13, 4560, Note_on_c, 14, 46, 80
13, 4799, Note_on_c, 14, 46, 0
13, 4980, Note_on_c, 14, 55, 80
13, 5035, Note_on_c, 14, 55, 0
13, 5040, Note_on_c, 14, 45, 80
13, 5271, Note_on_c, 14, 45, 0
13, 5280, Note_on_c, 14, 61, 80
13, 5519, Note_on_c, 14, 61, 0
13, 5760, Note_on_c, 14, 50, 44
13, 5991, Note_on_c, 14, 50, 0
13, 6000, Note_on_c, 14, 54, 44
13, 6231, Note_on_c, 14, 54, 0
13, 6240, Note_on_c, 14, 57, 44
13, 6471, Note_on_c, 14, 57, 0
13, 6480, Note_on_c, 14, 50, 44
13, 6711, Note_on_c, 14, 50, 0
13, 6720, Note_on_c, 14, 54, 44
13, 6951, Note_on_c, 14, 54, 0
13, 6960, Note_on_c, 14, 57, 44
13, 7191, Note_on_c, 14, 57, 0
13, 7200, Note_on_c, 14, 50, 32
13, 7319, Note_on_c, 14, 50, 0
13, 7440, Note_on_c, 14, 50, 32
13, 7559, Note_on_c, 14, 50, 0
13, 7680, Note_on_c, 14, 50, 32
13, 7799, Note_on_c, 14, 50, 0
13, 7920, Note_on_c, 14, 50, 32
13, 8039, Note_on_c, 14, 50, 0
13, 8880, Note_on_c, 14, 54, 80
13, 9111, Note_on_c, 14, 54, 0
13, 9120, Note_on_c, 14, 50, 80
13, 9359, Note_on_c, 14, 50, 0
13, 9540, Note_on_c, 14, 50, 80
13, 9595, Note_on_c, 14, 50, 0
13, 9600, Note_on_c, 14, 59, 80
13, 9831, Note_on_c, 14, 59, 0
13, 9840, Note_on_c, 14, 55, 80
13, 10079, Note_on_c, 14, 55, 0
13, 10320, Note_on_c, 14, 54, 80
13, 10551, Note_on_c, 14, 54, 0
13, 10560, Note_on_c, 14, 50, 80
13, 10799, Note_on_c, 14, 50, 0
13, 10980, Note_on_c, 14, 50, 80
13, 11035, Note_on_c, 14, 50, 0
13, 11040, Note_on_c, 14, 58, 80
13, 11271, Note_on_c, 14, 58, 0
13, 11280, Note_on_c, 14, 55, 80
13, 11511, Note_on_c, 14, 55, 0
13, 11520, Note_on_c, 14, 51, 80
13, 11631, Note_on_c, 14, 51, 0
13, 11640, Note_on_c, 14, 51, 80
13, 11751, Note_on_c, 14, 51, 0
13, 11760, Note_on_c, 14, 51, 80
13, 11871, Note_on_c, 14, 51, 0
13, 11880, Note_on_c, 14, 51, 80
13, 11991, Note_on_c, 14, 51, 0
13, 12000, Note_on_c, 14, 51, 80
13, 12111, Note_on_c, 14, 51, 0
13, 12120, Note_on_c, 14, 51, 80
13, 12231, Note_on_c, 14, 51, 0
13, 12240, Note_on_c, 14, 50, 80
13, 12359, Note_on_c, 14, 50, 0
13, 13080, Note_on_c, 14, 50, 80
13, 13191, Note_on_c, 14, 50, 0
13, 13200, Note_on_c, 14, 50, 80
13, 13311, Note_on_c, 14, 50, 0
13, 13320, Note_on_c, 14, 50, 80
13, 13431, Note_on_c, 14, 50, 0
13, 13440, Note_on_c, 14, 50, 80
13, 13551, Note_on_c, 14, 50, 0
13, 13560, Note_on_c, 14, 50, 44
13, 13671, Note_on_c, 14, 50, 0
13, 13680, Note_on_c, 14, 50, 44
13, 14039, Note_on_c, 14, 50, 0
13, 14040, Note_on_c, 14, 50, 44
13, 14339, Note_on_c, 14, 50, 0
13, 14339, End_track
14, 0, Start_track
14, 0, Title_t, "Contrabass"
14, 0, Program_c, 15, 48
14, 0, Control_c, 15, 7, 105
14, 0, Control_c, 15, 10, 80
14, 0, Control_c, 15, 11, 127
14, 0, Note_on_c, 15, 43, 80
14, 231, Note_on_c, 15, 43, 0
14, 240, Note_on_c, 15, 35, 80
14, 479, Note_on_c, 15, 35, 0
14, 660, Note_on_c, 15, 43, 80
14, 715, Note_on_c, 15, 43, 0
14, 720, Note_on_c, 15, 36, 80
14, 951, Note_on_c, 15, 36, 0
14, 960, Note_on_c, 15, 52, 80
14, 1199, Note_on_c, 15, 52, 0
14, 1440, Note_on_c, 15, 38, 44
14, 1551, Note_on_c, 15, 38, 0
14, 1560, Note_on_c, 15, 38, 44
14, 1671, Note_on_c, 15, 38, 0
14, 1680, Note_on_c, 15, 38, 44
14, 1791, Note_on_c, 15, 38, 0
14, 1800, Note_on_c, 15, 38, 44
14, 1911, Note_on_c, 15, 38, 0
14, 1920, Note_on_c, 15, 38, 44
14, 2031, Note_on_c, 15, 38, 0
14, 2040, Note_on_c, 15, 38, 44
14, 2151, Note_on_c, 15, 38, 0
14, 2160, Note_on_c, 15, 38, 44
14, 2271, Note_on_c, 15, 38, 0
14, 2280, Note_on_c, 15, 38, 44
14, 2391, Note_on_c, 15, 38, 0
14, 2400, Note_on_c, 15, 38, 44
14, 2511, Note_on_c, 15, 38, 0
14, 2520, Note_on_c, 15, 38, 44
14, 2631, Note_on_c, 15, 38, 0
14, 2640, Note_on_c, 15, 38, 44
14, 2759, Note_on_c, 15, 38, 0
14, 2880, Note_on_c, 15, 40, 44
14, 3111, Note_on_c, 15, 40, 0
14, 3120, Note_on_c, 15, 36, 44
14, 3351, Note_on_c, 15, 36, 0
14, 3360, Note_on_c, 15, 36, 44
14, 3591, Note_on_c, 15, 36, 0
14, 3600, Note_on_c, 15, 38, 44
14, 3831, Note_on_c, 15, 38, 0
14, 3840, Note_on_c, 15, 38, 44
14, 4079, Note_on_c, 15, 38, 0
14, 4320, Note_on_c, 15, 43, 80
14, 4551, Note_on_c, 15, 43, 0
14, 4560, Note_on_c, 15, 34, 80
14, 4799, Note_on_c, 15, 34, 0
14, 4980, Note_on_c, 15, 43, 80
14, 5035, Note_on_c, 15, 43, 0
14, 5040, Note_on_c, 15, 33, 80
14, 5271, Note_on_c, 15, 33, 0
14, 5280, Note_on_c, 15, 49, 80
14, 5519, Note_on_c, 15, 49, 0
14, 5760, Note_on_c, 15, 38, 44
14, 5991, Note_on_c, 15, 38, 0
14, 6000, Note_on_c, 15, 42, 44
14, 6231, Note_on_c, 15, 42, 0
14, 6240, Note_on_c, 15, 45, 44
14, 6471, Note_on_c, 15, 45, 0
14, 6480, Note_on_c, 15, 38, 44
14, 6711, Note_on_c, 15, 38, 0
14, 6720, Note_on_c, 15, 42, 44
14, 6951, Note_on_c, 15, 42, 0
14, 6960, Note_on_c, 15, 45, 44
14, 7191, Note_on_c, 15, 45, 0
14, 7200, Note_on_c, 15, 38, 32
14, 7319, Note_on_c, 15, 38, 0
14, 7440, Note_on_c, 15, 38, 32
14, 7559, Note_on_c, 15, 38, 0
14, 7680, Note_on_c, 15, 38, 32
14, 7799, Note_on_c, 15, 38, 0
14, 7920, Note_on_c, 15, 38, 32
14, 8039, Note_on_c, 15, 38, 0
14, 8880, Note_on_c, 15, 42, 80
14, 9111, Note_on_c, 15, 42, 0
14, 9120, Note_on_c, 15, 38, 80
14, 9359, Note_on_c, 15, 38, 0
14, 9540, Note_on_c, 15, 38, 80
14, 9595, Note_on_c, 15, 38, 0
14, 9600, Note_on_c, 15, 47, 80
14, 9831, Note_on_c, 15, 47, 0
14, 9840, Note_on_c, 15, 43, 80
14, 10079, Note_on_c, 15, 43, 0
14, 10320, Note_on_c, 15, 42, 80
14, 10551, Note_on_c, 15, 42, 0
14, 10560, Note_on_c, 15, 38, 80
14, 10799, Note_on_c, 15, 38, 0
14, 10980, Note_on_c, 15, 38, 80
14, 11035, Note_on_c, 15, 38, 0
14, 11040, Note_on_c, 15, 46, 80
14, 11271, Note_on_c, 15, 46, 0
14, 11280, Note_on_c, 15, 43, 80
14, 11511, Note_on_c, 15, 43, 0
14, 11520, Note_on_c, 15, 39, 80
14, 11631, Note_on_c, 15, 39, 0
14, 11640, Note_on_c, 15, 39, 80
14, 11751, Note_on_c, 15, 39, 0
14, 11760, Note_on_c, 15, 39, 80
14, 11871, Note_on_c, 15, 39, 0
14, 11880, Note_on_c, 15, 39, 80
14, 11991, Note_on_c, 15, 39, 0
14, 12000, Note_on_c, 15, 39, 80
14, 12111, Note_on_c, 15, 39, 0
14, 12120, Note_on_c, 15, 39, 80
14, 12231, Note_on_c, 15, 39, 0
14, 12240, Note_on_c, 15, 38, 80
14, 12359, Note_on_c, 15, 38, 0
14, 13080, Note_on_c, 15, 38, 80
14, 13191, Note_on_c, 15, 38, 0
14, 13200, Note_on_c, 15, 38, 80
14, 13311, Note_on_c, 15, 38, 0
14, 13320, Note_on_c, 15, 38, 80
14, 13431, Note_on_c, 15, 38, 0
14, 13440, Note_on_c, 15, 38, 80
14, 13551, Note_on_c, 15, 38, 0
14, 13560, Note_on_c, 15, 38, 44
14, 13671, Note_on_c, 15, 38, 0
14, 13680, Note_on_c, 15, 38, 44
14, 14039, Note_on_c, 15, 38, 0
14, 14040, Note_on_c, 15, 38, 44
14, 14339, Note_on_c, 15, 38, 0
14, 14339, End_track
15, 0, Start_track
15, 0, Title_t, "W. A. Mozart - Introduction to a Symphony in G Major by Michael Haydn (Ex. K.444)"
15, 0, End_track
16, 0, Start_track
16, 0, End_track
0, 0, End_of_file