0, 0, Header, 1, 7, 480
1, 0, Start_track
1, 0, Title_t, "Untitled"
1, 0, Time_signature, 3, 2, 24, 8
1, 0, Key_signature, 0, "major"
1, 0, Tempo, 500000
1, 0, Marker_t, "Mozart"
1, 1440, Tempo, 400000
1, 1440, Marker_t, "Piano Sonata No.12"
1, 2880, Marker_t, "Bunji Hisamori"
1, 4320, Marker_t, "March  2000,  Rev.1"
1, 5700, Tempo, 402685
1, 6920, Tempo, 408163
1, 6975, Tempo, 441176
1, 7200, Tempo, 402685
1, 8600, Tempo, 408163
1, 8640, Tempo, 402685
1, 9120, Tempo, 408163
1, 9825, Tempo, 413793
1, 10080, Tempo, 402685
1, 12000, Tempo, 408163
1, 12825, Tempo, 413793
1, 12960, Tempo, 402685
1, 14340, Tempo, 408163
1, 14400, Tempo, 402685
1, 15800, Tempo, 408163
1, 17240, Tempo, 428571
1, 17280, Tempo, 408163
1, 17760, Tempo, 428571
1, 18200, Tempo, 428571
1, 18240, Tempo, 419580
1, 21540, Tempo, 425532
1, 21600, Tempo, 419580
1, 22980, Tempo, 425532
1, 23750, Tempo, 441176
1, 24000, Tempo, 419580
1, 27320, Tempo, 425532
1, 28760, Tempo, 428571
1, 28800, Tempo, 425532
1, 30200, Tempo, 425532
1, 31640, Tempo, 428571
1, 33080, Tempo, 434783
1, 33120, Tempo, 400000
1, 35940, Tempo, 402685
1, 36000, Tempo, 400000
1, 38840, Tempo, 402685
1, 38880, Tempo, 400000
1, 41700, Tempo, 402685
1, 41760, Tempo, 400000
1, 44600, Tempo, 402685
1, 44640, Tempo, 400000
1, 47480, Tempo, 408163
1, 47520, Tempo, 400000
1, 50360, Tempo, 408163
1, 50400, Tempo, 400000
1, 53240, Tempo, 402685
1, 53280, Tempo, 400000
1, 54660, Tempo, 402685
1, 54720, Tempo, 400000
1, 56120, Tempo, 402685
1, 56160, Tempo, 400000
1, 56760, Tempo, 402685
1, 57540, Tempo, 408163
1, 57600, Tempo, 413793
1, 58080, Tempo, 441176
1, 58560, Tempo, 540541
1, 59040, Tempo, 402685
1, 59160, Tempo, 425532
1, 59520, Tempo, 402685
1, 60420, Tempo, 408163
1, 60600, Tempo, 419580
1, 61200, Tempo, 402685
1, 61860, Tempo, 408163
1, 61920, Tempo, 413793
1, 63320, Tempo, 419580
1, 64760, Tempo, 434783
1, 64800, Tempo, 402685
1, 67640, Tempo, 408163
1, 67680, Tempo, 402685
1, 69080, Tempo, 408163
1, 70520, Tempo, 413793
1, 70560, Tempo, 400000
1, 73400, Tempo, 402685
1, 74840, Tempo, 408163
1, 75840, Tempo, 425532
1, 76320, Tempo, 400000
1, 79160, Tempo, 402685
1, 80600, Tempo, 408163
1, 80640, Tempo, 400000
1, 83480, Tempo, 402685
1, 83520, Tempo, 400000
1, 86360, Tempo, 402685
1, 86400, Tempo, 400000
1, 87800, Tempo, 402685
1, 87840, Tempo, 400000
1, 89240, Tempo, 402685
1, 89280, Tempo, 400000
1, 90680, Tempo, 402685
1, 90720, Tempo, 400000
1, 92120, Tempo, 402685
1, 92160, Tempo, 400000
1, 93080, Tempo, 402685
1, 93120, Tempo, 400000
1, 94040, Tempo, 402685
1, 94080, Tempo, 400000
1, 95000, Tempo, 408163
1, 95040, Tempo, 400000
1, 96440, Tempo, 402685
1, 97880, Tempo, 405405
1, 99320, Tempo, 408163
1, 100760, Tempo, 425532
1, 100800, Tempo, 419580
1, 101950, Tempo, 428571
1, 102000, Tempo, 588235
1, 102240, Tempo, 419580
1, 103640, Tempo, 425532
1, 103680, Tempo, 419580
1, 105080, Tempo, 425532
1, 105120, Tempo, 419580
1, 106500, Tempo, 425532
1, 106560, Tempo, 419580
1, 107940, Tempo, 425532
1, 108000, Tempo, 419580
1, 109380, Tempo, 425532
1, 109480, Tempo, 419580
1, 110840, Tempo, 425532
1, 110880, Tempo, 419580
1, 112280, Tempo, 425532
1, 112320, Tempo, 419580
1, 113720, Tempo, 425532
1, 113760, Tempo, 419580
1, 115160, Tempo, 425532
1, 115200, Tempo, 419580
1, 116580, Tempo, 425532
1, 116640, Tempo, 419580
1, 118020, Tempo, 428571
1, 118080, Tempo, 408163
1, 119497, Tempo, 413793
1, 120900, Tempo, 419580
1, 120960, Tempo, 408163
1, 122340, Tempo, 413793
1, 123800, Tempo, 441176
1, 123840, Tempo, 408163
1, 125220, Tempo, 413793
1, 125280, Tempo, 408163
1, 126660, Tempo, 413793
1, 126720, Tempo, 408163
1, 128100, Tempo, 413793
1, 128160, Tempo, 408163
1, 129560, Tempo, 425532
1, 129600, Tempo, 419580
1, 130080, Tempo, 425532
1, 130910, Tempo, 428571
1, 131040, Tempo, 434783
1, 132440, Tempo, 419580
1, 132480, Tempo, 419580
1, 132960, Tempo, 425532
1, 133440, Tempo, 447761
1, 133920, Tempo, 461538
1, 134400, Tempo, 540541
1, 134880, Tempo, 600000
1, 135360, Tempo, 419580
1, 136740, Tempo, 425532
1, 136800, Tempo, 419580
1, 138130, Tempo, 425532
1, 138260, Tempo, 419580
1, 139620, Tempo, 425532
1, 139680, Tempo, 419580
1, 140990, Tempo, 425532
1, 143940, Tempo, 428571
1, 145380, Tempo, 461538
1, 145440, Tempo, 425532
1, 146820, Tempo, 428571
1, 146880, Tempo, 428571
1, 148260, Tempo, 434783
1, 148320, Tempo, 428571
1, 149720, Tempo, 434783
1, 149780, Tempo, 428571
1, 151140, Tempo, 434783
1, 151200, Tempo, 428571
1, 152600, Tempo, 434783
1, 154040, Tempo, 447761
1, 154080, Tempo, 441176
1, 155460, Tempo, 447761
1, 155520, Tempo, 441176
1, 156440, Tempo, 447761
1, 156830, Tempo, 465116
1, 156960, Tempo, 400000
1, 159800, Tempo, 408163
1, 159840, Tempo, 402685
1, 162680, Tempo, 408163
1, 162720, Tempo, 402685
1, 164120, Tempo, 408163
1, 164160, Tempo, 402685
1, 165560, Tempo, 408163
1, 165600, Tempo, 402685
1, 167000, Tempo, 408163
1, 167040, Tempo, 402685
1, 168440, Tempo, 408163
1, 168480, Tempo, 402685
1, 169880, Tempo, 408163
1, 169920, Tempo, 402685
1, 171320, Tempo, 408163
1, 171360, Tempo, 402685
1, 172760, Tempo, 408163
1, 172800, Tempo, 402685
1, 174200, Tempo, 408163
1, 174240, Tempo, 402685
1, 175640, Tempo, 408163
1, 175680, Tempo, 402685
1, 177080, Tempo, 408163
1, 177120, Tempo, 402685
1, 178515, Tempo, 405405
1, 179940, Tempo, 408163
1, 181400, Tempo, 413793
1, 182805, Tempo, 419580
1, 184280, Tempo, 425532
1, 185760, Tempo, 402685
1, 187160, Tempo, 408163
1, 188640, Tempo, 413793
1, 190040, Tempo, 419580
1, 191040, Tempo, 1071429
1, 191520, Tempo, 400000
1, 195780, Tempo, 402685
1, 197000, Tempo, 408163
1, 197055, Tempo, 434783
1, 197280, Tempo, 402685
1, 198680, Tempo, 408163
1, 198720, Tempo, 402685
1, 199200, Tempo, 408163
1, 200100, Tempo, 413793
1, 200160, Tempo, 402685
1, 202080, Tempo, 408163
1, 202815, Tempo, 413793
1, 203040, Tempo, 402685
1, 204420, Tempo, 408163
1, 204480, Tempo, 402685
1, 205880, Tempo, 408163
1, 207320, Tempo, 428571
1, 207360, Tempo, 408163
1, 207840, Tempo, 428571
1, 208280, Tempo, 428571
1, 208320, Tempo, 419580
1, 211620, Tempo, 425532
1, 211680, Tempo, 419580
1, 213060, Tempo, 425532
1, 213840, Tempo, 441176
1, 214080, Tempo, 419580
1, 217400, Tempo, 425532
1, 218840, Tempo, 428571
1, 218880, Tempo, 425532
1, 220280, Tempo, 425532
1, 221720, Tempo, 428571
1, 223160, Tempo, 434783
1, 223200, Tempo, 400000
1, 226020, Tempo, 402685
1, 226080, Tempo, 400000
1, 228920, Tempo, 402685
1, 228960, Tempo, 400000
1, 231780, Tempo, 402685
1, 231840, Tempo, 400000
1, 234680, Tempo, 402685
1, 234720, Tempo, 400000
1, 237560, Tempo, 402685
1, 237600, Tempo, 400000
1, 240440, Tempo, 402685
1, 240480, Tempo, 400000
1, 243320, Tempo, 402685
1, 243360, Tempo, 400000
1, 246200, Tempo, 402685
1, 246240, Tempo, 400000
1, 249060, Tempo, 402685
1, 249120, Tempo, 400000
1, 250500, Tempo, 402685
1, 250560, Tempo, 400000
1, 251960, Tempo, 402685
1, 252000, Tempo, 400000
1, 252480, Tempo, 402685
1, 253380, Tempo, 408163
1, 253440, Tempo, 413793
1, 253920, Tempo, 441176
1, 254400, Tempo, 461538
1, 254880, Tempo, 402685
1, 255000, Tempo, 425532
1, 255360, Tempo, 402685
1, 256260, Tempo, 408163
1, 256440, Tempo, 419580
1, 257040, Tempo, 402685
1, 257700, Tempo, 408163
1, 257760, Tempo, 413793
1, 259160, Tempo, 419580
1, 260160, Tempo, 425532
1, 260640, Tempo, 402685
1, 264920, Tempo, 408163
1, 264960, Tempo, 402685
1, 266360, Tempo, 408163
1, 266400, Tempo, 400000
1, 269240, Tempo, 402685
1, 270680, Tempo, 408163
1, 271680, Tempo, 419580
1, 272160, Tempo, 402685
1, 275000, Tempo, 408163
1, 276440, Tempo, 419580
1, 276480, Tempo, 400000
1, 279320, Tempo, 402685
1, 279360, Tempo, 400000
1, 282200, Tempo, 402685
1, 282240, Tempo, 400000
1, 283640, Tempo, 402685
1, 283680, Tempo, 400000
1, 285080, Tempo, 402685
1, 285120, Tempo, 400000
1, 286520, Tempo, 402685
1, 286560, Tempo, 400000
1, 287960, Tempo, 402685
1, 288000, Tempo, 400000
1, 288920, Tempo, 402685
1, 288960, Tempo, 400000
1, 289880, Tempo, 402685
1, 289920, Tempo, 400000
1, 290840, Tempo, 402685
1, 290880, Tempo, 400000
1, 292280, Tempo, 402685
1, 293700, Tempo, 405405
1, 295160, Tempo, 408163
1, 296600, Tempo, 419580
1, 296700, Tempo, 428571
1, 297600, Tempo, 434783
1, 297840, Tempo, 582524
1, 297960, Tempo, 674157
1, 298080, Tempo, 419580
1, 299480, Tempo, 425532
1, 299520, Tempo, 419580
1, 300920, Tempo, 425532
1, 300960, Tempo, 419580
1, 302340, Tempo, 425532
1, 302400, Tempo, 419580
1, 303780, Tempo, 425532
1, 303840, Tempo, 419580
1, 305220, Tempo, 425532
1, 305350, Tempo, 419580
1, 306680, Tempo, 428571
1, 306720, Tempo, 419580
1, 308120, Tempo, 425532
1, 308160, Tempo, 419580
1, 309560, Tempo, 425532
1, 309600, Tempo, 419580
1, 311000, Tempo, 425532
1, 311040, Tempo, 419580
1, 312420, Tempo, 425532
1, 312480, Tempo, 419580
1, 313860, Tempo, 428571
1, 313920, Tempo, 408163
1, 316740, Tempo, 413793
1, 316800, Tempo, 408163
1, 319620, Tempo, 413793
1, 319680, Tempo, 408163
1, 321060, Tempo, 413793
1, 321120, Tempo, 408163
1, 322520, Tempo, 413793
1, 322560, Tempo, 408163
1, 323960, Tempo, 413793
1, 324000, Tempo, 408163
1, 325400, Tempo, 428571
1, 325440, Tempo, 419580
1, 325920, Tempo, 425532
1, 326760, Tempo, 428571
1, 326880, Tempo, 434783
1, 328280, Tempo, 419580
1, 328320, Tempo, 419580
1, 328800, Tempo, 425532
1, 329280, Tempo, 472441
1, 329760, Tempo, 550459
1, 330240, Tempo, 625000
1, 330610, Tempo, 2727273
1, 331200, Time_signature, 4, 2, 24, 8
1, 331200, Tempo, 1071429
1, 331200, Marker_t, "(2) "
1, 334800, Tempo, 1132075
1, 335040, Tempo, 1071429
1, 338640, Tempo, 1176471
1, 338880, Tempo, 1071429
1, 340760, Tempo, 1111111
1, 340800, Tempo, 1071429
1, 342510, Tempo, 1111111
1, 342720, Tempo, 1071429
1, 343640, Tempo, 1111111
1, 343680, Tempo, 1071429
1, 344600, Tempo, 1111111
1, 345540, Tempo, 1132075
1, 345600, Tempo, 1224490
1, 345800, Tempo, 1176471
1, 346440, Tempo, 1666667
1, 346560, Tempo, 1071429
1, 350145, Tempo, 1132075
1, 350400, Tempo, 1071429
1, 354030, Tempo, 1176471
1, 354240, Tempo, 1111111
1, 354285, Tempo, 1071429
1, 356120, Tempo, 1111111
1, 356160, Tempo, 1071429
1, 356960, Tempo, 1111111
1, 357000, Tempo, 1071429
1, 358040, Tempo, 1111111
1, 358980, Tempo, 1132075
1, 359445, Tempo, 1176471
1, 359775, Tempo, 1578947
1, 360000, Tempo, 1071429
1, 361880, Tempo, 1111111
1, 361920, Tempo, 1071429
1, 363800, Tempo, 1111111
1, 363840, Tempo, 1071429
1, 365720, Tempo, 1111111
1, 365760, Tempo, 1071429
1, 367640, Tempo, 1111111
1, 367680, Tempo, 1071429
1, 368160, Tempo, 1176471
1, 368600, Tempo, 1111111
1, 370520, Tempo, 1132075
1, 371280, Tempo, 1363636
1, 371520, Tempo, 1333333
1, 372480, Tempo, 1176471
1, 372720, Tempo, 1111111
1, 373380, Tempo, 1176471
1, 373440, Tempo, 1111111
1, 374340, Tempo, 1132075
1, 375240, Tempo, 1224490
1, 375360, Tempo, 1071429
1, 377240, Tempo, 1111111
1, 377280, Tempo, 1071429
1, 379160, Tempo, 1111111
1, 379200, Tempo, 1071429
1, 381080, Tempo, 1111111
1, 381120, Tempo, 1071429
1, 383000, Tempo, 1111111
1, 383040, Tempo, 1071429
1, 383520, Tempo, 1176471
1, 383960, Tempo, 1111111
1, 385880, Tempo, 1132075
1, 386640, Tempo, 1363636
1, 386880, Tempo, 1333333
1, 387840, Tempo, 1176471
1, 388080, Tempo, 1111111
1, 388760, Tempo, 1176471
1, 388800, Tempo, 1111111
1, 389700, Tempo, 1132075
1, 390465, Tempo, 1176471
1, 390720, Tempo, 1071429
1, 391640, Tempo, 1111111
1, 391680, Tempo, 1071429
1, 392600, Tempo, 1111111
1, 392640, Tempo, 1071429
1, 393600, Tempo, 1111111
1, 394520, Tempo, 1132075
1, 394560, Tempo, 1111111
1, 396440, Tempo, 1132075
1, 396480, Tempo, 1111111
1, 398295, Tempo, 1333333
1, 398400, Tempo, 1132075
1, 398440, Tempo, 1111111
1, 400280, Tempo, 1176471
1, 400320, Tempo, 1111111
1, 402200, Tempo, 1132075
1, 402240, Tempo, 1111111
1, 404120, Tempo, 1132075
1, 404160, Tempo, 1111111
1, 405060, Tempo, 1132075
1, 405780, Tempo, 1176471
1, 406005, Tempo, 2068966
1, 406080, Tempo, 1578947
1, 407040, Tempo, 1276596
1, 407760, Tempo, 1333333
1, 407880, Tempo, 2068966
1, 408000, Tempo, 1071429
1, 411600, Tempo, 1132075
1, 411840, Tempo, 1071429
1, 415455, Tempo, 1176471
1, 415680, Tempo, 1071429
1, 417560, Tempo, 1111111
1, 417600, Tempo, 1071429
1, 419480, Tempo, 1111111
1, 419520, Tempo, 1071429
1, 420440, Tempo, 1111111
1, 420480, Tempo, 1071429
1, 421400, Tempo, 1132075
1, 421440, Tempo, 1111111
1, 422340, Tempo, 1132075
1, 422400, Tempo, 1224490
1, 422600, Tempo, 1176471
1, 423240, Tempo, 1578947
1, 423360, Tempo, 1071429
1, 426960, Tempo, 1132075
1, 427200, Tempo, 1071429
1, 430830, Tempo, 1176471
1, 431040, Tempo, 1111111
1, 431100, Tempo, 1071429
1, 432920, Tempo, 1111111
1, 432960, Tempo, 1071429
1, 433875, Tempo, 1111111
1, 433905, Tempo, 1071429
1, 434840, Tempo, 1111111
1, 435780, Tempo, 1132075
1, 436275, Tempo, 1176471
1, 436560, Tempo, 1333333
1, 436680, Tempo, 1578947
1, 436800, Tempo, 1071429
1, 438680, Tempo, 1111111
1, 438720, Tempo, 1071429
1, 440600, Tempo, 1111111
1, 440640, Tempo, 1071429
1, 442520, Tempo, 1111111
1, 442560, Tempo, 1071429
1, 444440, Tempo, 1111111
1, 444480, Tempo, 1071429
1, 444960, Tempo, 1176471
1, 445400, Tempo, 1111111
1, 447320, Tempo, 1132075
1, 448080, Tempo, 1363636
1, 448320, Tempo, 1333333
1, 449280, Tempo, 1176471
1, 449520, Tempo, 1111111
1, 450180, Tempo, 1132075
1, 450240, Tempo, 1111111
1, 451140, Tempo, 1132075
1, 452040, Tempo, 1176471
1, 452160, Tempo, 1071429
1, 454040, Tempo, 1111111
1, 454080, Tempo, 1071429
1, 455960, Tempo, 1111111
1, 456000, Tempo, 1071429
1, 457880, Tempo, 1111111
1, 457920, Tempo, 1071429
1, 459800, Tempo, 1111111
1, 459840, Tempo, 1071429
1, 460320, Tempo, 1176471
1, 460760, Tempo, 1111111
1, 462680, Tempo, 1132075
1, 463440, Tempo, 1333333
1, 463620, Tempo, 1818182
1, 463680, Tempo, 1132075
1, 464640, Tempo, 1176471
1, 464880, Tempo, 1111111
1, 465560, Tempo, 1132075
1, 465600, Tempo, 1111111
1, 466500, Tempo, 1132075
1, 467355, Tempo, 1333333
1, 467520, Tempo, 1071429
1, 468440, Tempo, 1111111
1, 468480, Tempo, 1071429
1, 469400, Tempo, 1111111
1, 469440, Tempo, 1071429
1, 469920, Tempo, 1111111
1, 470400, Tempo, 1132075
1, 471320, Tempo, 1176471
1, 471360, Tempo, 1111111
1, 473240, Tempo, 1176471
1, 473280, Tempo, 1111111
1, 475160, Tempo, 1276596
1, 475200, Tempo, 1132075
1, 475260, Tempo, 1111111
1, 477080, Tempo, 1176471
1, 477120, Tempo, 1111111
1, 479000, Tempo, 1132075
1, 479040, Tempo, 1111111
1, 480920, Tempo, 1132075
1, 480960, Tempo, 1111111
1, 481880, Tempo, 1132075
1, 481920, Tempo, 1111111
1, 482340, Tempo, 1132075
1, 482400, Tempo, 1176471
1, 482820, Tempo, 2400000
1, 482880, Tempo, 1666667
1, 484320, Tempo, 2727273
1, 484800, Time_signature, 6, 3, 12, 8
1, 484800, Tempo, 384615
1, 484800, Marker_t, "(3) "
1, 484860, Tempo, 377358
1, 490520, Tempo, 379747
1, 490560, Tempo, 377358
1, 491240, Tempo, 379747
1, 491280, Tempo, 377358
1, 492680, Tempo, 379747
1, 493320, Tempo, 600000
1, 493440, Tempo, 384615
1, 493500, Tempo, 377358
1, 499160, Tempo, 379747
1, 499200, Tempo, 377358
1, 499880, Tempo, 379747
1, 499920, Tempo, 377358
1, 500600, Tempo, 379747
1, 501320, Tempo, 384615
1, 502040, Tempo, 389610
1, 502560, Tempo, 500000
1, 502800, Tempo, 379747
1, 503480, Tempo, 384615
1, 503520, Tempo, 379747
1, 504920, Tempo, 384615
1, 504960, Tempo, 379747
1, 507800, Tempo, 384615
1, 507840, Tempo, 379747
1, 510680, Tempo, 384615
1, 510720, Tempo, 379747
1, 514980, Tempo, 384615
1, 515520, Tempo, 377358
1, 517880, Tempo, 379747
1, 517920, Tempo, 377358
1, 519320, Tempo, 379747
1, 520760, Tempo, 384615
1, 522720, Tempo, 377358
1, 525080, Tempo, 379747
1, 525120, Tempo, 377358
1, 526520, Tempo, 379747
1, 527240, Tempo, 384615
1, 527960, Tempo, 389610
1, 529400, Tempo, 394737
1, 529440, Tempo, 384615
1, 532280, Tempo, 389610
1, 532320, Tempo, 384615
1, 533720, Tempo, 400000
1, 533760, Tempo, 461538
1, 534490, Tempo, 600000
1, 535200, Tempo, 379747
1, 539480, Tempo, 384615
1, 539520, Tempo, 377358
1, 542360, Tempo, 379747
1, 546680, Tempo, 384615
1, 546720, Tempo, 377358
1, 549560, Tempo, 379747
1, 549600, Tempo, 377358
1, 555200, Tempo, 379747
1, 555320, Tempo, 389610
1, 555360, Tempo, 379747
1, 558200, Tempo, 384615
1, 558240, Tempo, 379747
1, 561080, Tempo, 384615
1, 561120, Tempo, 379747
1, 563960, Tempo, 384615
1, 564000, Tempo, 379747
1, 566760, Tempo, 384615
1, 566880, Tempo, 379747
1, 569720, Tempo, 384615
1, 569760, Tempo, 379747
1, 572520, Tempo, 384615
1, 572640, Tempo, 379747
1, 575480, Tempo, 384615
1, 576920, Tempo, 389610
1, 576960, Tempo, 377358
1, 581240, Tempo, 379747
1, 581280, Tempo, 377358
1, 584120, Tempo, 379747
1, 584160, Tempo, 377358
1, 585560, Tempo, 379747
1, 587000, Tempo, 384615
1, 588440, Tempo, 389610
1, 589880, Tempo, 394737
1, 589920, Tempo, 377358
1, 594200, Tempo, 379747
1, 594240, Tempo, 377358
1, 597080, Tempo, 379747
1, 597120, Tempo, 377358
1, 598520, Tempo, 379747
1, 599960, Tempo, 384615
1, 601400, Tempo, 389610
1, 602840, Tempo, 389610
1, 602880, Tempo, 377358
1, 604280, Tempo, 379747
1, 605720, Tempo, 384615
1, 605760, Tempo, 377358
1, 610040, Tempo, 379747
1, 610080, Tempo, 377358
1, 611480, Tempo, 379747
1, 611520, Tempo, 384615
1, 612240, Tempo, 408163
1, 612960, Tempo, 394737
1, 613920, Tempo, 500000
1, 614400, Tempo, 384615
1, 614460, Tempo, 377358
1, 620120, Tempo, 379747
1, 620160, Tempo, 377358
1, 620840, Tempo, 379747
1, 620880, Tempo, 377358
1, 624440, Tempo, 379747
1, 625160, Tempo, 384615
1, 625200, Tempo, 379747
1, 625880, Tempo, 389610
1, 625920, Tempo, 377358
1, 627320, Tempo, 379747
1, 627360, Tempo, 377358
1, 630200, Tempo, 379747
1, 630920, Tempo, 384615
1, 630960, Tempo, 379747
1, 631640, Tempo, 389610
1, 631680, Tempo, 377358
1, 635960, Tempo, 379747
1, 636680, Tempo, 384615
1, 636720, Tempo, 379747
1, 637400, Tempo, 389610
1, 637440, Tempo, 377358
1, 641720, Tempo, 379747
1, 642440, Tempo, 384615
1, 642480, Tempo, 379747
1, 643160, Tempo, 389610
1, 643200, Tempo, 377358
1, 644480, Tempo, 379747
1, 644600, Tempo, 384615
1, 644640, Tempo, 379747
1, 647480, Tempo, 384615
1, 647520, Tempo, 379747
1, 650360, Tempo, 384615
1, 650400, Tempo, 379747
1, 651800, Tempo, 384615
1, 653240, Tempo, 389610
1, 654680, Tempo, 394737
1, 656120, Tempo, 402685
1, 656160, Tempo, 377358
1, 659000, Tempo, 379747
1, 659040, Tempo, 377358
1, 661880, Tempo, 379747
1, 664760, Tempo, 384615
1, 666120, Tempo, 434783
1, 666240, Tempo, 400000
1, 667200, Tempo, 379747
1, 669080, Tempo, 384615
1, 669120, Tempo, 379747
1, 671960, Tempo, 384615
1, 672000, Tempo, 379747
1, 674840, Tempo, 384615
1, 674880, Tempo, 379747
1, 676280, Tempo, 384615
1, 677720, Tempo, 389610
1, 677760, Tempo, 379747
1, 680600, Tempo, 379747
1, 682040, Tempo, 384615
1, 683480, Tempo, 394737
1, 683520, Tempo, 379747
1, 687630, Tempo, 461538
1, 687760, Tempo, 508475
1, 687840, Tempo, 400000
1, 689220, Tempo, 402685
1, 689280, Tempo, 895522
1, 689400, Tempo, 428571
1, 689520, Tempo, 389610
1, 689640, Tempo, 377358
1, 696320, Tempo, 379747
1, 696460, Tempo, 394737
1, 696480, Tempo, 384615
1, 696540, Tempo, 377358
1, 702200, Tempo, 379747
1, 702240, Tempo, 377358
1, 702920, Tempo, 379747
1, 702960, Tempo, 377358
1, 704360, Tempo, 379747
1, 705000, Tempo, 600000
1, 705120, Tempo, 384615
1, 705180, Tempo, 377358
1, 710840, Tempo, 379747
1, 710880, Tempo, 377358
1, 711560, Tempo, 379747
1, 711600, Tempo, 377358
1, 712280, Tempo, 379747
1, 713000, Tempo, 384615
1, 713720, Tempo, 389610
1, 714240, Tempo, 500000
1, 714480, Tempo, 379747
1, 715160, Tempo, 384615
1, 715200, Tempo, 379747
1, 716600, Tempo, 384615
1, 716640, Tempo, 379747
1, 719480, Tempo, 384615
1, 719520, Tempo, 379747
1, 722360, Tempo, 384615
1, 722400, Tempo, 379747
1, 726660, Tempo, 384615
1, 726720, Tempo, 384615
1, 727200, Tempo, 408163
1, 727440, Tempo, 379747
1, 728120, Tempo, 384615
1, 728160, Tempo, 379747
1, 732440, Tempo, 384615
1, 732480, Tempo, 377358
1, 735320, Tempo, 379747
1, 739640, Tempo, 384615
1, 739680, Tempo, 377358
1, 742520, Tempo, 379747
1, 742560, Tempo, 377358
1, 749600, Tempo, 379747
1, 749720, Tempo, 389610
1, 749760, Tempo, 379747
1, 752600, Tempo, 384615
1, 752640, Tempo, 379747
1, 755480, Tempo, 384615
1, 755520, Tempo, 379747
1, 758360, Tempo, 384615
1, 758400, Tempo, 379747
1, 761240, Tempo, 384615
1, 761280, Tempo, 379747
1, 764120, Tempo, 384615
1, 764160, Tempo, 379747
1, 767000, Tempo, 384615
1, 767040, Tempo, 379747
1, 769880, Tempo, 400000
1, 769920, Tempo, 384615
1, 771320, Tempo, 389610
1, 771360, Tempo, 377358
1, 774200, Tempo, 379747
1, 774240, Tempo, 377358
1, 777080, Tempo, 379747
1, 777120, Tempo, 377358
1, 779960, Tempo, 379747
1, 780000, Tempo, 377358
1, 781400, Tempo, 379747
1, 782840, Tempo, 384615
1, 784280, Tempo, 389610
1, 785720, Tempo, 394737
1, 785760, Tempo, 377358
1, 788600, Tempo, 379747
1, 788640, Tempo, 377358
1, 791480, Tempo, 379747
1, 791520, Tempo, 377358
1, 794360, Tempo, 379747
1, 794400, Tempo, 377358
1, 795800, Tempo, 379747
1, 797240, Tempo, 384615
1, 798680, Tempo, 389610
1, 800120, Tempo, 394737
1, 800160, Tempo, 377358
1, 801560, Tempo, 379747
1, 803000, Tempo, 384615
1, 803040, Tempo, 377358
1, 807320, Tempo, 379747
1, 807360, Tempo, 377358
1, 808760, Tempo, 379747
1, 808800, Tempo, 384615
1, 809520, Tempo, 389610
1, 810240, Tempo, 394737
1, 811680, Tempo, 389610
1, 812400, Tempo, 428571
1, 813120, Tempo, 394737
1, 814080, Tempo, 600000
1, 814560, Tempo, 379747
1, 815960, Tempo, 384615
1, 817400, Tempo, 389610
1, 817440, Tempo, 384615
1, 817920, Tempo, 377358
1, 820280, Tempo, 379747
1, 820320, Tempo, 377358
1, 821720, Tempo, 379747
1, 823160, Tempo, 384615
1, 825120, Tempo, 377358
1, 827480, Tempo, 379747
1, 827520, Tempo, 377358
1, 828920, Tempo, 379747
1, 829640, Tempo, 384615
1, 830400, Tempo, 384615
1, 831800, Tempo, 389610
1, 831840, Tempo, 384615
1, 834660, Tempo, 389610
1, 834720, Tempo, 384615
1, 835860, Tempo, 500000
1, 836040, Tempo, 540541
1, 836160, Tempo, 1111111
1, 836880, Tempo, 1578947
1, 836880, End_track
2, 0, Start_track
2, 0, Title_t, "Unnamed Track"
2, 0, Control_c, 1, 0, 0
2, 0, Control_c, 1, 7, 127
2, 0, Control_c, 1, 10, 73
2, 0, Control_c, 1, 91, 100
2, 0, Control_c, 1, 93, 19
2, 0, Control_c, 1, 64, 0
2, 0, Control_c, 1, 1, 0
2, 0, Pitch_bend_c, 1, 8192
2, 1, Control_c, 1, 32, 0
2, 1, Program_c, 1, 0
2, 1440, Control_c, 1, 64, 0
2, 1440, Note_on_c, 1, 65, 44
2, 2400, Note_on_c, 1, 65, 0
2, 2400, Note_on_c, 1, 69, 47
2, 2760, Note_on_c, 1, 69, 0
2, 2880, Note_on_c, 1, 72, 49
2, 3840, Note_on_c, 1, 72, 0
2, 3840, Note_on_c, 1, 69, 52
2, 4205, Note_on_c, 1, 69, 0
2, 4320, Note_on_c, 1, 70, 54
2, 5280, Note_on_c, 1, 70, 0
2, 5280, Note_on_c, 1, 79, 58
2, 5640, Note_on_c, 1, 79, 0
2, 5760, Note_on_c, 1, 77, 63
2, 6000, Note_on_c, 1, 77, 0
2, 6000, Note_on_c, 1, 76, 59
2, 6190, Note_on_c, 1, 76, 0
2, 6240, Note_on_c, 1, 76, 52
2, 6605, Note_on_c, 1, 76, 0
2, 7200, Note_on_c, 1, 77, 53
2, 7680, Note_on_c, 1, 77, 0
2, 7680, Note_on_c, 1, 69, 51
2, 8160, Note_on_c, 1, 69, 0
2, 8160, Note_on_c, 1, 74, 48
2, 8525, Note_on_c, 1, 74, 0
2, 8640, Note_on_c, 1, 67, 52
2, 9120, Note_on_c, 1, 67, 0
2, 9120, Note_on_c, 1, 72, 57
2, 9840, Note_on_c, 1, 72, 0
2, 9840, Note_on_c, 1, 69, 50
2, 10030, Note_on_c, 1, 69, 0
2, 10080, Note_on_c, 1, 65, 47
2, 11520, Note_on_c, 1, 67, 42
2, 11990, Note_on_c, 1, 65, 0
2, 12840, Note_on_c, 1, 67, 0
2, 12960, Note_on_c, 1, 69, 41
2, 13440, Note_on_c, 1, 69, 0
2, 13440, Note_on_c, 1, 70, 45
2, 13920, Note_on_c, 1, 70, 0
2, 13920, Note_on_c, 1, 74, 50
2, 14285, Note_on_c, 1, 74, 0
2, 14400, Note_on_c, 1, 74, 55
2, 14640, Note_on_c, 1, 74, 0
2, 14640, Note_on_c, 1, 72, 57
2, 14880, Note_on_c, 1, 72, 0
2, 14880, Note_on_c, 1, 70, 59
2, 15120, Note_on_c, 1, 70, 0
2, 15120, Note_on_c, 1, 69, 62
2, 15360, Note_on_c, 1, 69, 0
2, 15360, Note_on_c, 1, 67, 64
2, 15600, Note_on_c, 1, 67, 0
2, 15600, Note_on_c, 1, 65, 66
2, 15790, Note_on_c, 1, 65, 0
2, 15840, Note_on_c, 1, 67, 70
2, 16320, Note_on_c, 1, 67, 0
2, 16320, Note_on_c, 1, 70, 63
2, 16680, Note_on_c, 1, 70, 0
2, 16800, Note_on_c, 1, 64, 55
2, 17280, Note_on_c, 1, 64, 0
2, 17280, Note_on_c, 1, 65, 47
2, 17645, Note_on_c, 1, 65, 0
2, 18240, Note_on_c, 1, 84, 57
2, 18600, Note_on_c, 1, 84, 0
2, 18600, Note_on_c, 1, 82, 56
2, 18720, Note_on_c, 1, 82, 0
2, 18720, Note_on_c, 1, 81, 56
2, 18960, Note_on_c, 1, 81, 0
2, 19200, Note_on_c, 1, 81, 54
2, 19440, Note_on_c, 1, 81, 0
2, 19680, Note_on_c, 1, 81, 53
2, 20040, Note_on_c, 1, 81, 0
2, 20040, Note_on_c, 1, 79, 52
2, 20160, Note_on_c, 1, 79, 0
2, 20160, Note_on_c, 1, 77, 52
2, 20400, Note_on_c, 1, 77, 0
2, 20640, Note_on_c, 1, 77, 50
2, 20880, Note_on_c, 1, 77, 0
2, 21120, Note_on_c, 1, 77, 49
2, 21600, Note_on_c, 1, 77, 0
2, 21600, Note_on_c, 1, 79, 47
2, 21840, Note_on_c, 1, 79, 0
2, 22080, Note_on_c, 1, 79, 46
2, 22320, Note_on_c, 1, 79, 0
2, 22560, Note_on_c, 1, 79, 45
2, 22800, Note_on_c, 1, 79, 0
2, 23040, Note_on_c, 1, 79, 43
2, 23520, Note_on_c, 1, 79, 0
2, 23520, Note_on_c, 1, 81, 38
2, 23820, Note_on_c, 1, 81, 0
2, 24000, Note_on_c, 1, 84, 55
2, 24120, Note_on_c, 1, 84, 0
2, 24120, Note_on_c, 1, 86, 55
2, 24240, Note_on_c, 1, 86, 0
2, 24240, Note_on_c, 1, 84, 55
2, 24360, Note_on_c, 1, 84, 0
2, 24360, Note_on_c, 1, 82, 55
2, 24480, Note_on_c, 1, 82, 0
2, 24480, Note_on_c, 1, 81, 54
2, 24720, Note_on_c, 1, 81, 0
2, 24960, Note_on_c, 1, 81, 54
2, 25200, Note_on_c, 1, 81, 0
2, 25440, Note_on_c, 1, 81, 53
2, 25560, Note_on_c, 1, 81, 0
2, 25560, Note_on_c, 1, 82, 52
2, 25680, Note_on_c, 1, 82, 0
2, 25680, Note_on_c, 1, 81, 52
2, 25800, Note_on_c, 1, 81, 0
2, 25800, Note_on_c, 1, 79, 52
2, 25920, Note_on_c, 1, 79, 0
2, 25920, Note_on_c, 1, 77, 52
2, 26160, Note_on_c, 1, 77, 0
2, 26400, Note_on_c, 1, 77, 51
2, 26640, Note_on_c, 1, 77, 0
2, 26880, Note_on_c, 1, 77, 50
2, 27120, Note_on_c, 1, 77, 0
2, 27360, Note_on_c, 1, 79, 51
2, 27840, Note_on_c, 1, 79, 0
2, 27840, Note_on_c, 1, 82, 50
2, 28080, Note_on_c, 1, 82, 0
2, 28320, Note_on_c, 1, 76, 49
2, 28800, Note_on_c, 1, 76, 0
2, 28800, Note_on_c, 1, 77, 46
2, 29185, Note_on_c, 1, 77, 0
2, 29760, Note_on_c, 1, 84, 45
2, 30240, Note_on_c, 1, 84, 0
2, 30240, Note_on_c, 1, 77, 43
2, 30625, Note_on_c, 1, 77, 0
2, 31200, Note_on_c, 1, 72, 39
2, 31680, Note_on_c, 1, 72, 0
2, 31680, Note_on_c, 1, 65, 37
2, 32065, Note_on_c, 1, 65, 0
2, 32640, Note_on_c, 1, 61, 89
2, 33120, Note_on_c, 1, 61, 0
2, 33120, Note_on_c, 1, 62, 89
2, 33840, Note_on_c, 1, 62, 0
2, 33840, Note_on_c, 1, 65, 88
2, 33960, Note_on_c, 1, 65, 0
2, 33960, Note_on_c, 1, 69, 88
2, 34080, Note_on_c, 1, 69, 0
2, 34080, Note_on_c, 1, 74, 88
2, 34270, Note_on_c, 1, 74, 0
2, 34320, Note_on_c, 1, 69, 88
2, 34440, Note_on_c, 1, 69, 0
2, 34440, Note_on_c, 1, 74, 88
2, 34560, Note_on_c, 1, 74, 0
2, 34560, Note_on_c, 1, 77, 88
2, 34750, Note_on_c, 1, 77, 0
2, 34800, Note_on_c, 1, 74, 88
2, 34920, Note_on_c, 1, 74, 0
2, 34920, Note_on_c, 1, 77, 87
2, 35040, Note_on_c, 1, 77, 0
2, 35040, Note_on_c, 1, 81, 87
2, 35230, Note_on_c, 1, 81, 0
2, 35280, Note_on_c, 1, 81, 87
2, 35520, Note_on_c, 1, 81, 0
2, 35520, Note_on_c, 1, 77, 87
2, 35760, Note_on_c, 1, 77, 0
2, 35760, Note_on_c, 1, 74, 87
2, 35950, Note_on_c, 1, 74, 0
2, 36120, Note_on_c, 1, 82, 95
2, 36720, Note_on_c, 1, 81, 89
2, 36735, Note_on_c, 1, 82, 0
2, 36840, Note_on_c, 1, 81, 0
2, 36840, Note_on_c, 1, 79, 88
2, 36960, Note_on_c, 1, 79, 0
2, 36960, Note_on_c, 1, 77, 87
2, 37080, Note_on_c, 1, 77, 0
2, 37080, Note_on_c, 1, 76, 86
2, 37200, Note_on_c, 1, 76, 0
2, 37200, Note_on_c, 1, 74, 85
2, 37320, Note_on_c, 1, 74, 0
2, 37320, Note_on_c, 1, 73, 84
2, 37415, Note_on_c, 1, 73, 0
2, 37440, Note_on_c, 1, 82, 93
2, 38160, Note_on_c, 1, 82, 0
2, 38160, Note_on_c, 1, 81, 86
2, 38280, Note_on_c, 1, 81, 0
2, 38280, Note_on_c, 1, 79, 86
2, 38400, Note_on_c, 1, 79, 0
2, 38400, Note_on_c, 1, 77, 85
2, 38520, Note_on_c, 1, 77, 0
2, 38520, Note_on_c, 1, 76, 84
2, 38640, Note_on_c, 1, 76, 0
2, 38640, Note_on_c, 1, 74, 83
2, 38760, Note_on_c, 1, 74, 0
2, 38760, Note_on_c, 1, 73, 82
2, 38855, Note_on_c, 1, 73, 0
2, 38880, Note_on_c, 1, 74, 84
2, 39600, Note_on_c, 1, 74, 0
2, 39600, Note_on_c, 1, 65, 84
2, 39720, Note_on_c, 1, 65, 0
2, 39720, Note_on_c, 1, 69, 83
2, 39840, Note_on_c, 1, 69, 0
2, 39840, Note_on_c, 1, 74, 83
2, 40030, Note_on_c, 1, 74, 0
2, 40080, Note_on_c, 1, 69, 83
2, 40200, Note_on_c, 1, 69, 0
2, 40200, Note_on_c, 1, 74, 83
2, 40320, Note_on_c, 1, 74, 0
2, 40320, Note_on_c, 1, 77, 83
2, 40510, Note_on_c, 1, 77, 0
2, 40560, Note_on_c, 1, 74, 83
2, 40680, Note_on_c, 1, 74, 0
2, 40680, Note_on_c, 1, 77, 83
2, 40800, Note_on_c, 1, 77, 0
2, 40800, Note_on_c, 1, 81, 83
2, 40990, Note_on_c, 1, 81, 0
2, 41040, Note_on_c, 1, 81, 82
2, 41280, Note_on_c, 1, 81, 0
2, 41280, Note_on_c, 1, 77, 82
2, 41520, Note_on_c, 1, 77, 0
2, 41520, Note_on_c, 1, 74, 82
2, 41710, Note_on_c, 1, 74, 0
2, 41760, Note_on_c, 1, 80, 88
2, 42480, Note_on_c, 1, 80, 0
2, 42480, Note_on_c, 1, 79, 84
2, 42600, Note_on_c, 1, 79, 0
2, 42600, Note_on_c, 1, 77, 83
2, 42720, Note_on_c, 1, 77, 0
2, 42720, Note_on_c, 1, 75, 82
2, 42840, Note_on_c, 1, 75, 0
2, 42840, Note_on_c, 1, 74, 81
2, 42960, Note_on_c, 1, 74, 0
2, 42960, Note_on_c, 1, 72, 80
2, 43080, Note_on_c, 1, 72, 0
2, 43080, Note_on_c, 1, 71, 81
2, 43175, Note_on_c, 1, 71, 0
2, 43200, Note_on_c, 1, 80, 88
2, 43920, Note_on_c, 1, 80, 0
2, 43920, Note_on_c, 1, 79, 83
2, 44040, Note_on_c, 1, 79, 0
2, 44040, Note_on_c, 1, 77, 82
2, 44160, Note_on_c, 1, 77, 0
2, 44160, Note_on_c, 1, 75, 81
2, 44280, Note_on_c, 1, 75, 0
2, 44280, Note_on_c, 1, 74, 81
2, 44400, Note_on_c, 1, 74, 0
2, 44400, Note_on_c, 1, 72, 80
2, 44520, Note_on_c, 1, 72, 0
2, 44520, Note_on_c, 1, 71, 79
2, 44615, Note_on_c, 1, 71, 0
2, 44640, Control_c, 1, 64, 0
2, 44640, Note_on_c, 1, 72, 81
2, 45240, Note_on_c, 1, 72, 0
2, 45240, Note_on_c, 1, 67, 78
2, 45360, Note_on_c, 1, 67, 0
2, 45360, Note_on_c, 1, 72, 78
2, 45480, Note_on_c, 1, 72, 0
2, 45480, Note_on_c, 1, 67, 77
2, 45600, Note_on_c, 1, 67, 0
2, 45600, Note_on_c, 1, 75, 76
2, 45720, Note_on_c, 1, 75, 0
2, 45720, Note_on_c, 1, 72, 76
2, 45840, Note_on_c, 1, 72, 0
2, 45840, Note_on_c, 1, 75, 75
2, 45960, Note_on_c, 1, 75, 0
2, 45960, Note_on_c, 1, 72, 74
2, 46080, Note_on_c, 1, 72, 0
2, 46080, Note_on_c, 1, 79, 74
2, 46200, Note_on_c, 1, 79, 0
2, 46200, Note_on_c, 1, 75, 73
2, 46320, Note_on_c, 1, 75, 0
2, 46320, Note_on_c, 1, 79, 73
2, 46440, Note_on_c, 1, 79, 0
2, 46440, Note_on_c, 1, 75, 72
2, 46560, Note_on_c, 1, 75, 0
2, 46560, Note_on_c, 1, 84, 71
2, 46925, Note_on_c, 1, 84, 0
2, 47520, Note_on_c, 1, 72, 75
2, 48120, Note_on_c, 1, 72, 0
2, 48120, Note_on_c, 1, 68, 72
2, 48240, Note_on_c, 1, 68, 0
2, 48240, Note_on_c, 1, 72, 72
2, 48360, Note_on_c, 1, 72, 0
2, 48360, Note_on_c, 1, 68, 71
2, 48480, Note_on_c, 1, 68, 0
2, 48480, Note_on_c, 1, 75, 71
2, 48600, Note_on_c, 1, 75, 0
2, 48600, Note_on_c, 1, 72, 70
2, 48720, Note_on_c, 1, 72, 0
2, 48720, Note_on_c, 1, 75, 69
2, 48840, Note_on_c, 1, 75, 0
2, 48840, Note_on_c, 1, 72, 69
2, 48960, Note_on_c, 1, 72, 0
2, 48960, Note_on_c, 1, 80, 68
2, 49080, Note_on_c, 1, 80, 0
2, 49080, Note_on_c, 1, 75, 68
2, 49200, Note_on_c, 1, 75, 0
2, 49200, Note_on_c, 1, 80, 67
2, 49320, Note_on_c, 1, 80, 0
2, 49320, Note_on_c, 1, 75, 67
2, 49440, Note_on_c, 1, 75, 0
2, 49440, Note_on_c, 1, 84, 66
2, 49825, Note_on_c, 1, 84, 0
2, 50400, Note_on_c, 1, 72, 71
2, 51000, Note_on_c, 1, 66, 68
2, 51005, Note_on_c, 1, 72, 0
2, 51120, Note_on_c, 1, 66, 0
2, 51120, Note_on_c, 1, 72, 67
2, 51240, Note_on_c, 1, 72, 0
2, 51240, Note_on_c, 1, 66, 66
2, 51360, Note_on_c, 1, 66, 0
2, 51360, Note_on_c, 1, 75, 66
2, 51480, Note_on_c, 1, 75, 0
2, 51480, Note_on_c, 1, 72, 65
2, 51600, Note_on_c, 1, 72, 0
2, 51600, Note_on_c, 1, 75, 65
2, 51720, Note_on_c, 1, 75, 0
2, 51720, Note_on_c, 1, 72, 64
2, 51840, Note_on_c, 1, 72, 0
2, 51840, Note_on_c, 1, 78, 63
2, 51960, Note_on_c, 1, 78, 0
2, 51960, Note_on_c, 1, 75, 63
2, 52080, Note_on_c, 1, 75, 0
2, 52080, Note_on_c, 1, 78, 62
2, 52200, Note_on_c, 1, 78, 0
2, 52200, Note_on_c, 1, 75, 61
2, 52320, Note_on_c, 1, 75, 0
2, 52320, Note_on_c, 1, 84, 61
2, 52800, Note_on_c, 1, 84, 0
2, 52800, Note_on_c, 1, 78, 58
2, 53185, Note_on_c, 1, 78, 0
2, 53400, Note_on_c, 1, 79, 65
2, 54240, Note_on_c, 1, 79, 0
2, 54240, Note_on_c, 1, 77, 60
2, 54360, Note_on_c, 1, 77, 0
2, 54360, Note_on_c, 1, 75, 59
2, 54480, Note_on_c, 1, 75, 0
2, 54480, Note_on_c, 1, 74, 59
2, 54600, Note_on_c, 1, 74, 0
2, 54600, Note_on_c, 1, 72, 58
2, 54695, Note_on_c, 1, 72, 0
2, 54720, Note_on_c, 1, 79, 61
2, 55680, Note_on_c, 1, 79, 0
2, 55680, Note_on_c, 1, 77, 54
2, 55800, Note_on_c, 1, 77, 0
2, 55800, Note_on_c, 1, 75, 53
2, 55920, Note_on_c, 1, 75, 0
2, 55920, Note_on_c, 1, 74, 53
2, 56040, Note_on_c, 1, 74, 0
2, 56040, Note_on_c, 1, 72, 52
2, 56135, Note_on_c, 1, 72, 0
2, 56160, Note_on_c, 1, 79, 57
2, 56880, Note_on_c, 1, 79, 0
2, 56880, Note_on_c, 1, 80, 52
2, 57000, Note_on_c, 1, 80, 0
2, 57000, Note_on_c, 1, 79, 51
2, 57120, Note_on_c, 1, 79, 0
2, 57120, Note_on_c, 1, 77, 51
2, 57240, Note_on_c, 1, 77, 0
2, 57240, Note_on_c, 1, 75, 50
2, 57360, Note_on_c, 1, 75, 0
2, 57360, Note_on_c, 1, 74, 49
2, 57480, Note_on_c, 1, 74, 0
2, 57480, Note_on_c, 1, 72, 48
2, 57575, Note_on_c, 1, 72, 0
2, 57600, Note_on_c, 1, 79, 48
2, 57910, Note_on_c, 1, 79, 0
2, 58080, Note_on_c, 1, 67, 45
2, 58390, Note_on_c, 1, 67, 0
2, 59040, Control_c, 1, 64, 127
2, 59040, Note_on_c, 1, 67, 44
2, 59160, Note_on_c, 1, 76, 44
2, 59220, Note_on_c, 1, 67, 0
2, 59285, Note_on_c, 1, 76, 0
2, 59520, Control_c, 1, 64, 0
2, 59520, Note_on_c, 1, 76, 46
2, 59705, Note_on_c, 1, 76, 0
2, 60000, Note_on_c, 1, 76, 48
2, 60180, Note_on_c, 1, 76, 0
2, 60480, Control_c, 1, 64, 127
2, 60480, Note_on_c, 1, 71, 50
2, 60600, Note_on_c, 1, 79, 55
2, 60725, Note_on_c, 1, 71, 0
2, 60960, Control_c, 1, 64, 0
2, 61200, Note_on_c, 1, 77, 50
2, 61215, Note_on_c, 1, 79, 0
2, 61440, Note_on_c, 1, 77, 0
2, 61440, Note_on_c, 1, 74, 49
2, 61825, Note_on_c, 1, 74, 0
2, 61920, Note_on_c, 1, 74, 48
2, 62160, Note_on_c, 1, 74, 0
2, 62160, Note_on_c, 1, 72, 48
2, 62345, Note_on_c, 1, 72, 0
2, 62400, Note_on_c, 1, 72, 47
2, 63120, Note_on_c, 1, 72, 0
2, 63120, Note_on_c, 1, 74, 46
2, 63310, Note_on_c, 1, 74, 0
2, 63360, Note_on_c, 1, 74, 45
2, 64320, Note_on_c, 1, 74, 0
2, 64320, Note_on_c, 1, 76, 43
2, 64705, Note_on_c, 1, 76, 0
2, 64800, Note_on_c, 1, 77, 42
2, 65520, Note_on_c, 1, 77, 0
2, 65520, Note_on_c, 1, 79, 45
2, 65580, Note_on_c, 1, 79, 0
2, 65580, Note_on_c, 1, 77, 46
2, 65640, Note_on_c, 1, 77, 0
2, 65640, Note_on_c, 1, 76, 46
2, 65700, Note_on_c, 1, 76, 0
2, 65700, Note_on_c, 1, 77, 46
2, 65760, Note_on_c, 1, 77, 0
2, 65760, Note_on_c, 1, 79, 47
2, 66000, Note_on_c, 1, 79, 0
2, 66000, Note_on_c, 1, 81, 48
2, 66190, Note_on_c, 1, 81, 0
2, 66240, Note_on_c, 1, 81, 49
2, 66480, Note_on_c, 1, 81, 0
2, 66480, Note_on_c, 1, 79, 50
2, 66720, Note_on_c, 1, 79, 0
2, 66720, Note_on_c, 1, 78, 51
2, 66960, Note_on_c, 1, 78, 0
2, 66960, Note_on_c, 1, 79, 52
2, 67200, Note_on_c, 1, 79, 0
2, 67200, Note_on_c, 1, 77, 53
2, 67440, Note_on_c, 1, 77, 0
2, 67440, Note_on_c, 1, 74, 54
2, 67630, Note_on_c, 1, 74, 0
2, 67680, Note_on_c, 1, 75, 55
2, 67920, Note_on_c, 1, 75, 0
2, 67920, Note_on_c, 1, 76, 56
2, 68160, Note_on_c, 1, 76, 0
2, 68160, Note_on_c, 1, 77, 57
2, 68400, Note_on_c, 1, 77, 0
2, 68400, Note_on_c, 1, 76, 58
2, 68640, Note_on_c, 1, 76, 0
2, 68640, Note_on_c, 1, 79, 59
2, 68880, Note_on_c, 1, 79, 0
2, 68880, Note_on_c, 1, 77, 60
2, 69070, Note_on_c, 1, 77, 0
2, 69120, Note_on_c, 1, 76, 61
2, 69360, Note_on_c, 1, 76, 0
2, 69360, Note_on_c, 1, 74, 58
2, 69600, Note_on_c, 1, 74, 0
2, 69600, Note_on_c, 1, 72, 54
2, 69840, Note_on_c, 1, 72, 0
2, 69840, Note_on_c, 1, 71, 51
2, 70080, Note_on_c, 1, 71, 0
2, 70080, Note_on_c, 1, 69, 47
2, 70320, Note_on_c, 1, 69, 0
2, 70320, Note_on_c, 1, 67, 44
2, 70510, Note_on_c, 1, 67, 0
2, 70560, Note_on_c, 1, 75, 44
2, 70800, Note_on_c, 1, 75, 0
2, 70800, Note_on_c, 1, 76, 44
2, 70990, Note_on_c, 1, 76, 0
2, 71040, Note_on_c, 1, 75, 45
2, 71280, Note_on_c, 1, 75, 0
2, 71280, Note_on_c, 1, 76, 46
2, 71470, Note_on_c, 1, 76, 0
2, 71520, Note_on_c, 1, 75, 46
2, 71760, Note_on_c, 1, 75, 0
2, 71760, Note_on_c, 1, 76, 47
2, 71950, Note_on_c, 1, 76, 0
2, 72000, Note_on_c, 1, 78, 48
2, 72240, Note_on_c, 1, 78, 0
2, 72240, Note_on_c, 1, 79, 48
2, 72430, Note_on_c, 1, 79, 0
2, 72480, Note_on_c, 1, 78, 49
2, 72720, Note_on_c, 1, 78, 0
2, 72720, Note_on_c, 1, 79, 49
2, 72910, Note_on_c, 1, 79, 0
2, 72960, Note_on_c, 1, 77, 50
2, 73200, Note_on_c, 1, 77, 0
2, 73200, Note_on_c, 1, 74, 51
2, 73390, Note_on_c, 1, 74, 0
2, 73440, Note_on_c, 1, 74, 51
2, 73680, Note_on_c, 1, 74, 0
2, 73680, Note_on_c, 1, 72, 52
2, 73870, Note_on_c, 1, 72, 0
2, 73920, Note_on_c, 1, 74, 53
2, 74160, Note_on_c, 1, 74, 0
2, 74160, Note_on_c, 1, 72, 53
2, 74350, Note_on_c, 1, 72, 0
2, 74400, Note_on_c, 1, 76, 54
2, 74640, Note_on_c, 1, 76, 0
2, 74640, Note_on_c, 1, 74, 54
2, 74830, Note_on_c, 1, 74, 0
2, 74880, Note_on_c, 1, 74, 58
2, 75600, Note_on_c, 1, 74, 0
2, 75600, Note_on_c, 1, 75, 48
2, 75790, Note_on_c, 1, 75, 0
2, 75840, Note_on_c, 1, 76, 45
2, 76225, Note_on_c, 1, 76, 0
2, 76320, Note_on_c, 1, 77, 49
2, 77040, Note_on_c, 1, 77, 0
2, 77040, Note_on_c, 1, 79, 54
2, 77100, Note_on_c, 1, 79, 0
2, 77100, Note_on_c, 1, 77, 54
2, 77160, Note_on_c, 1, 77, 0
2, 77160, Note_on_c, 1, 76, 55
2, 77220, Note_on_c, 1, 76, 0
2, 77220, Note_on_c, 1, 77, 55
2, 77280, Note_on_c, 1, 77, 0
2, 77280, Note_on_c, 1, 79, 56
2, 77520, Note_on_c, 1, 79, 0
2, 77520, Note_on_c, 1, 81, 57
2, 77705, Note_on_c, 1, 81, 0
2, 77760, Note_on_c, 1, 81, 59
2, 78000, Note_on_c, 1, 81, 0
2, 78000, Note_on_c, 1, 79, 61
2, 78240, Note_on_c, 1, 79, 0
2, 78240, Note_on_c, 1, 78, 62
2, 78480, Note_on_c, 1, 78, 0
2, 78480, Note_on_c, 1, 79, 64
2, 78720, Note_on_c, 1, 79, 0
2, 78720, Note_on_c, 1, 77, 66
2, 78960, Note_on_c, 1, 77, 0
2, 78960, Note_on_c, 1, 74, 67
2, 79150, Note_on_c, 1, 74, 0
2, 79200, Note_on_c, 1, 75, 67
2, 79440, Note_on_c, 1, 75, 0
2, 79440, Note_on_c, 1, 76, 64
2, 79680, Note_on_c, 1, 76, 0
2, 79680, Note_on_c, 1, 79, 60
2, 79920, Note_on_c, 1, 79, 0
2, 79920, Note_on_c, 1, 77, 57
2, 80160, Note_on_c, 1, 77, 0
2, 80160, Note_on_c, 1, 74, 53
2, 80400, Note_on_c, 1, 74, 0
2, 80400, Note_on_c, 1, 71, 50
2, 80590, Note_on_c, 1, 71, 0
2, 80640, Note_on_c, 1, 72, 55
2, 80880, Note_on_c, 1, 72, 0
2, 80880, Note_on_c, 1, 67, 53
2, 81070, Note_on_c, 1, 67, 0
2, 81360, Note_on_c, 1, 67, 50
2, 81550, Note_on_c, 1, 67, 0
2, 81840, Note_on_c, 1, 67, 49
2, 82030, Note_on_c, 1, 67, 0
2, 82080, Note_on_c, 1, 67, 54
2, 82270, Note_on_c, 1, 67, 0
2, 82320, Note_on_c, 1, 67, 50
2, 82510, Note_on_c, 1, 67, 0
2, 82800, Note_on_c, 1, 67, 47
2, 82990, Note_on_c, 1, 67, 0
2, 83280, Note_on_c, 1, 67, 46
2, 83470, Note_on_c, 1, 67, 0
2, 83520, Note_on_c, 1, 67, 50
2, 83710, Note_on_c, 1, 67, 0
2, 83760, Note_on_c, 1, 67, 47
2, 83950, Note_on_c, 1, 67, 0
2, 84240, Note_on_c, 1, 67, 44
2, 84430, Note_on_c, 1, 67, 0
2, 84720, Note_on_c, 1, 67, 43
2, 84910, Note_on_c, 1, 67, 0
2, 84960, Note_on_c, 1, 67, 49
2, 85150, Note_on_c, 1, 67, 0
2, 85200, Note_on_c, 1, 67, 44
2, 85390, Note_on_c, 1, 67, 0
2, 85680, Note_on_c, 1, 67, 41
2, 85870, Note_on_c, 1, 67, 0
2, 86160, Note_on_c, 1, 67, 40
2, 86350, Note_on_c, 1, 67, 0
2, 86400, Note_on_c, 1, 67, 77
2, 86590, Note_on_c, 1, 67, 0
2, 86640, Note_on_c, 1, 67, 63
2, 86830, Note_on_c, 1, 67, 0
2, 87120, Note_on_c, 1, 67, 54
2, 87310, Note_on_c, 1, 67, 0
2, 87600, Note_on_c, 1, 67, 46
2, 87790, Note_on_c, 1, 67, 0
2, 87840, Note_on_c, 1, 68, 80
2, 88030, Note_on_c, 1, 68, 0
2, 88080, Note_on_c, 1, 68, 64
2, 88270, Note_on_c, 1, 68, 0
2, 88560, Note_on_c, 1, 68, 58
2, 88750, Note_on_c, 1, 68, 0
2, 89040, Note_on_c, 1, 68, 52
2, 89230, Note_on_c, 1, 68, 0
2, 89280, Note_on_c, 1, 68, 84
2, 89470, Note_on_c, 1, 68, 0
2, 89520, Note_on_c, 1, 68, 70
2, 89710, Note_on_c, 1, 68, 0
2, 90000, Note_on_c, 1, 68, 64
2, 90190, Note_on_c, 1, 68, 0
2, 90480, Note_on_c, 1, 68, 58
2, 90670, Note_on_c, 1, 68, 0
2, 90720, Note_on_c, 1, 67, 90
2, 90910, Note_on_c, 1, 67, 0
2, 90960, Note_on_c, 1, 67, 76
2, 91150, Note_on_c, 1, 67, 0
2, 91440, Note_on_c, 1, 67, 69
2, 91630, Note_on_c, 1, 67, 0
2, 91920, Note_on_c, 1, 67, 62
2, 92110, Note_on_c, 1, 67, 0
2, 92160, Note_on_c, 1, 67, 95
2, 92350, Note_on_c, 1, 67, 0
2, 92400, Note_on_c, 1, 67, 79
2, 92590, Note_on_c, 1, 67, 0
2, 92880, Note_on_c, 1, 67, 66
2, 93070, Note_on_c, 1, 67, 0
2, 93120, Note_on_c, 1, 65, 92
2, 93310, Note_on_c, 1, 65, 0
2, 93360, Note_on_c, 1, 65, 73
2, 93550, Note_on_c, 1, 65, 0
2, 93840, Note_on_c, 1, 65, 58
2, 94030, Note_on_c, 1, 65, 0
2, 94080, Note_on_c, 1, 65, 86
2, 94270, Note_on_c, 1, 65, 0
2, 94320, Note_on_c, 1, 65, 68
2, 94510, Note_on_c, 1, 65, 0
2, 94800, Note_on_c, 1, 65, 56
2, 94990, Note_on_c, 1, 65, 0
2, 95280, Note_on_c, 1, 63, 55
2, 95470, Note_on_c, 1, 63, 0
2, 95760, Note_on_c, 1, 63, 50
2, 95950, Note_on_c, 1, 63, 0
2, 96240, Note_on_c, 1, 63, 45
2, 96430, Note_on_c, 1, 63, 0
2, 96480, Note_on_c, 1, 62, 43
2, 96670, Note_on_c, 1, 62, 0
2, 96720, Note_on_c, 1, 67, 49
2, 96960, Note_on_c, 1, 67, 0
2, 96960, Note_on_c, 1, 65, 47
2, 97200, Note_on_c, 1, 65, 0
2, 97200, Note_on_c, 1, 63, 46
2, 97440, Note_on_c, 1, 63, 0
2, 97440, Note_on_c, 1, 62, 44
2, 97680, Note_on_c, 1, 62, 0
2, 97680, Note_on_c, 1, 63, 42
2, 97920, Note_on_c, 1, 63, 0
2, 97920, Note_on_c, 1, 62, 41
2, 98110, Note_on_c, 1, 62, 0
2, 98160, Note_on_c, 1, 67, 47
2, 98400, Note_on_c, 1, 67, 0
2, 98400, Note_on_c, 1, 65, 45
2, 98640, Note_on_c, 1, 65, 0
2, 98640, Note_on_c, 1, 63, 43
2, 98880, Note_on_c, 1, 63, 0
2, 98880, Note_on_c, 1, 62, 40
2, 99120, Note_on_c, 1, 62, 0
2, 99120, Note_on_c, 1, 63, 38
2, 99360, Note_on_c, 1, 63, 0
2, 99360, Note_on_c, 1, 62, 38
2, 99600, Note_on_c, 1, 62, 0
2, 99600, Note_on_c, 1, 63, 36
2, 99840, Note_on_c, 1, 63, 0
2, 99840, Note_on_c, 1, 62, 35
2, 100080, Note_on_c, 1, 62, 0
2, 100080, Note_on_c, 1, 63, 34
2, 100320, Note_on_c, 1, 63, 0
2, 100320, Note_on_c, 1, 62, 33
2, 100560, Note_on_c, 1, 62, 0
2, 100560, Note_on_c, 1, 63, 32
2, 100800, Note_on_c, 1, 63, 0
2, 100800, Note_on_c, 1, 62, 34
2, 100990, Note_on_c, 1, 62, 0
2, 101040, Note_on_c, 1, 61, 36
2, 101280, Note_on_c, 1, 61, 0
2, 101280, Note_on_c, 1, 62, 39
2, 101520, Note_on_c, 1, 62, 0
2, 101520, Note_on_c, 1, 64, 41
2, 101760, Note_on_c, 1, 64, 0
2, 101760, Note_on_c, 1, 65, 44
2, 102000, Note_on_c, 1, 65, 0
2, 102000, Note_on_c, 1, 67, 49
2, 102190, Note_on_c, 1, 67, 0
2, 102240, Note_on_c, 1, 69, 54
2, 102550, Note_on_c, 1, 69, 0
2, 102720, Note_on_c, 1, 69, 55
2, 103030, Note_on_c, 1, 69, 0
2, 103200, Note_on_c, 1, 69, 56
2, 103510, Note_on_c, 1, 69, 0
2, 103680, Note_on_c, 1, 69, 59
2, 104640, Note_on_c, 1, 69, 0
2, 104640, Note_on_c, 1, 67, 51
2, 104950, Note_on_c, 1, 67, 0
2, 105120, Note_on_c, 1, 67, 48
2, 105240, Note_on_c, 1, 67, 0
2, 105240, Note_on_c, 1, 65, 48
2, 105435, Note_on_c, 1, 65, 0
2, 105600, Note_on_c, 1, 65, 49
2, 105910, Note_on_c, 1, 65, 0
2, 106080, Note_on_c, 1, 65, 51
2, 106390, Note_on_c, 1, 65, 0
2, 106560, Note_on_c, 1, 65, 53
2, 107520, Note_on_c, 1, 65, 0
2, 107520, Note_on_c, 1, 64, 42
2, 107830, Note_on_c, 1, 64, 0
2, 108000, Note_on_c, 1, 67, 43
2, 108240, Note_on_c, 1, 67, 0
2, 108240, Note_on_c, 1, 65, 42
2, 108425, Note_on_c, 1, 65, 0
2, 108480, Note_on_c, 1, 64, 41
2, 108960, Note_on_c, 1, 64, 0
2, 108960, Note_on_c, 1, 62, 39
2, 109345, Note_on_c, 1, 62, 0
2, 109440, Note_on_c, 1, 64, 43
2, 109595, Note_on_c, 1, 64, 0
2, 109680, Note_on_c, 1, 72, 44
2, 109835, Note_on_c, 1, 72, 0
2, 109920, Note_on_c, 1, 74, 47
2, 110075, Note_on_c, 1, 74, 0
2, 110160, Note_on_c, 1, 76, 50
2, 110315, Note_on_c, 1, 76, 0
2, 110400, Note_on_c, 1, 77, 53
2, 110555, Note_on_c, 1, 77, 0
2, 110640, Note_on_c, 1, 79, 56
2, 110795, Note_on_c, 1, 79, 0
2, 110880, Note_on_c, 1, 81, 61
2, 111190, Note_on_c, 1, 81, 0
2, 111360, Note_on_c, 1, 81, 63
2, 111670, Note_on_c, 1, 81, 0
2, 111840, Note_on_c, 1, 81, 64
2, 112150, Note_on_c, 1, 81, 0
2, 112320, Note_on_c, 1, 81, 66
2, 113040, Note_on_c, 1, 81, 0
2, 113040, Note_on_c, 1, 83, 58
2, 113160, Note_on_c, 1, 83, 0
2, 113160, Note_on_c, 1, 81, 56
2, 113280, Note_on_c, 1, 81, 0
2, 113280, Note_on_c, 1, 79, 55
2, 113590, Note_on_c, 1, 79, 0
2, 113760, Note_on_c, 1, 79, 52
2, 113880, Note_on_c, 1, 79, 0
2, 113880, Note_on_c, 1, 77, 52
2, 114075, Note_on_c, 1, 77, 0
2, 114240, Note_on_c, 1, 77, 53
2, 114550, Note_on_c, 1, 77, 0
2, 114720, Note_on_c, 1, 77, 55
2, 115030, Note_on_c, 1, 77, 0
2, 115200, Note_on_c, 1, 77, 57
2, 116160, Note_on_c, 1, 77, 0
2, 116160, Note_on_c, 1, 76, 49
2, 116470, Note_on_c, 1, 76, 0
2, 116640, Note_on_c, 1, 79, 49
2, 116880, Note_on_c, 1, 79, 0
2, 116880, Note_on_c, 1, 77, 47
2, 117065, Note_on_c, 1, 77, 0
2, 117120, Note_on_c, 1, 76, 45
2, 117430, Note_on_c, 1, 76, 0
2, 117600, Note_on_c, 1, 74, 41
2, 117910, Note_on_c, 1, 74, 0
2, 118080, Note_on_c, 1, 79, 74
2, 118270, Note_on_c, 1, 79, 0
2, 118320, Note_on_c, 1, 79, 69
2, 118510, Note_on_c, 1, 79, 0
2, 118800, Note_on_c, 1, 77, 59
2, 118990, Note_on_c, 1, 77, 0
2, 119280, Note_on_c, 1, 76, 54
2, 119470, Note_on_c, 1, 76, 0
2, 119760, Note_on_c, 1, 74, 49
2, 119950, Note_on_c, 1, 74, 0
2, 120240, Note_on_c, 1, 72, 44
2, 120430, Note_on_c, 1, 72, 0
2, 120720, Note_on_c, 1, 71, 43
2, 120910, Note_on_c, 1, 71, 0
2, 121080, Note_on_c, 1, 76, 77
2, 121200, Note_on_c, 1, 76, 0
2, 121200, Note_on_c, 1, 79, 73
2, 121320, Note_on_c, 1, 79, 0
2, 121320, Note_on_c, 1, 76, 70
2, 121440, Note_on_c, 1, 76, 0
2, 121560, Note_on_c, 1, 74, 63
2, 121680, Note_on_c, 1, 74, 0
2, 121680, Note_on_c, 1, 77, 62
2, 121800, Note_on_c, 1, 77, 0
2, 121800, Note_on_c, 1, 74, 60
2, 121920, Note_on_c, 1, 74, 0
2, 122040, Note_on_c, 1, 72, 57
2, 122160, Note_on_c, 1, 72, 0
2, 122160, Note_on_c, 1, 76, 55
2, 122280, Note_on_c, 1, 76, 0
2, 122280, Note_on_c, 1, 72, 54
2, 122400, Note_on_c, 1, 72, 0
2, 122520, Note_on_c, 1, 65, 51
2, 122640, Note_on_c, 1, 65, 0
2, 122640, Note_on_c, 1, 74, 50
2, 122760, Note_on_c, 1, 74, 0
2, 122760, Note_on_c, 1, 65, 50
2, 122880, Note_on_c, 1, 65, 0
2, 123000, Note_on_c, 1, 64, 48
2, 123120, Note_on_c, 1, 64, 0
2, 123120, Note_on_c, 1, 72, 48
2, 123240, Note_on_c, 1, 72, 0
2, 123240, Note_on_c, 1, 64, 47
2, 123360, Note_on_c, 1, 64, 0
2, 123480, Note_on_c, 1, 62, 46
2, 123600, Note_on_c, 1, 62, 0
2, 123600, Note_on_c, 1, 71, 45
2, 123720, Note_on_c, 1, 71, 0
2, 123720, Note_on_c, 1, 62, 44
2, 123840, Note_on_c, 1, 62, 0
2, 123840, Note_on_c, 1, 72, 44
2, 124320, Note_on_c, 1, 72, 0
2, 124800, Note_on_c, 1, 76, 42
2, 124860, Note_on_c, 1, 76, 0
2, 124860, Note_on_c, 1, 77, 43
2, 124920, Note_on_c, 1, 77, 0
2, 124920, Note_on_c, 1, 76, 44
2, 124980, Note_on_c, 1, 76, 0
2, 124980, Note_on_c, 1, 77, 45
2, 125040, Note_on_c, 1, 77, 0
2, 125040, Note_on_c, 1, 76, 46
2, 125080, Note_on_c, 1, 76, 0
2, 125080, Note_on_c, 1, 77, 47
2, 125120, Note_on_c, 1, 77, 0
2, 125120, Note_on_c, 1, 76, 48
2, 125160, Note_on_c, 1, 76, 0
2, 125160, Note_on_c, 1, 74, 49
2, 125220, Note_on_c, 1, 74, 0
2, 125220, Note_on_c, 1, 72, 50
2, 125280, Note_on_c, 1, 72, 0
2, 125280, Note_on_c, 1, 79, 51
2, 126125, Note_on_c, 1, 79, 0
2, 126240, Note_on_c, 1, 83, 46
2, 126300, Note_on_c, 1, 83, 0
2, 126300, Note_on_c, 1, 84, 48
2, 126360, Note_on_c, 1, 84, 0
2, 126360, Note_on_c, 1, 83, 49
2, 126420, Note_on_c, 1, 83, 0
2, 126420, Note_on_c, 1, 84, 50
2, 126480, Note_on_c, 1, 84, 0
2, 126480, Note_on_c, 1, 83, 51
2, 126520, Note_on_c, 1, 83, 0
2, 126520, Note_on_c, 1, 84, 52
2, 126560, Note_on_c, 1, 84, 0
2, 126560, Note_on_c, 1, 83, 53
2, 126600, Note_on_c, 1, 83, 0
2, 126600, Note_on_c, 1, 81, 54
2, 126660, Note_on_c, 1, 81, 0
2, 126660, Note_on_c, 1, 79, 55
2, 126720, Note_on_c, 1, 79, 0
2, 126720, Note_on_c, 1, 84, 56
2, 127560, Note_on_c, 1, 84, 0
2, 127680, Note_on_c, 1, 76, 51
2, 127740, Note_on_c, 1, 76, 0
2, 127740, Note_on_c, 1, 77, 53
2, 127800, Note_on_c, 1, 77, 0
2, 127800, Note_on_c, 1, 76, 54
2, 127860, Note_on_c, 1, 76, 0
2, 127860, Note_on_c, 1, 77, 56
2, 127920, Note_on_c, 1, 77, 0
2, 127920, Note_on_c, 1, 76, 57
2, 127960, Note_on_c, 1, 76, 0
2, 127960, Note_on_c, 1, 77, 59
2, 128000, Note_on_c, 1, 77, 0
2, 128000, Note_on_c, 1, 76, 60
2, 128040, Note_on_c, 1, 76, 0
2, 128040, Note_on_c, 1, 74, 61
2, 128100, Note_on_c, 1, 74, 0
2, 128100, Note_on_c, 1, 72, 62
2, 128160, Note_on_c, 1, 72, 0
2, 128160, Note_on_c, 1, 79, 63
2, 128545, Note_on_c, 1, 79, 0
2, 128640, Note_on_c, 1, 79, 65
2, 129025, Note_on_c, 1, 79, 0
2, 129120, Note_on_c, 1, 83, 58
2, 129180, Note_on_c, 1, 83, 0
2, 129180, Note_on_c, 1, 84, 60
2, 129240, Note_on_c, 1, 84, 0
2, 129240, Note_on_c, 1, 83, 61
2, 129300, Note_on_c, 1, 83, 0
2, 129300, Note_on_c, 1, 84, 62
2, 129360, Note_on_c, 1, 84, 0
2, 129360, Note_on_c, 1, 83, 64
2, 129400, Note_on_c, 1, 83, 0
2, 129400, Note_on_c, 1, 84, 65
2, 129440, Note_on_c, 1, 84, 0
2, 129440, Note_on_c, 1, 83, 66
2, 129480, Note_on_c, 1, 83, 0
2, 129480, Note_on_c, 1, 81, 67
2, 129540, Note_on_c, 1, 81, 0
2, 129540, Note_on_c, 1, 79, 68
2, 129600, Note_on_c, 1, 79, 0
2, 129600, Note_on_c, 1, 84, 71
2, 129985, Note_on_c, 1, 84, 0
2, 130080, Note_on_c, 1, 88, 81
2, 130685, Note_on_c, 1, 88, 0
2, 130800, Note_on_c, 1, 80, 76
2, 130990, Note_on_c, 1, 80, 0
2, 131040, Note_on_c, 1, 81, 78
2, 131425, Note_on_c, 1, 81, 0
2, 131520, Note_on_c, 1, 84, 87
2, 132125, Note_on_c, 1, 84, 0
2, 132240, Note_on_c, 1, 76, 84
2, 132430, Note_on_c, 1, 76, 0
2, 132480, Note_on_c, 1, 77, 74
2, 132540, Note_on_c, 1, 77, 0
2, 132540, Note_on_c, 1, 79, 75
2, 132600, Note_on_c, 1, 79, 0
2, 132600, Note_on_c, 1, 77, 77
2, 132660, Note_on_c, 1, 77, 0
2, 132660, Note_on_c, 1, 79, 78
2, 132720, Note_on_c, 1, 79, 0
2, 132720, Note_on_c, 1, 77, 79
2, 132760, Note_on_c, 1, 77, 0
2, 132760, Note_on_c, 1, 79, 80
2, 132800, Note_on_c, 1, 79, 0
2, 132800, Note_on_c, 1, 77, 81
2, 132840, Note_on_c, 1, 77, 0
2, 132840, Note_on_c, 1, 76, 82
2, 132900, Note_on_c, 1, 76, 0
2, 132900, Note_on_c, 1, 74, 83
2, 132960, Note_on_c, 1, 74, 0
2, 132960, Note_on_c, 1, 79, 84
2, 133345, Note_on_c, 1, 79, 0
2, 133440, Note_on_c, 1, 83, 91
2, 133825, Note_on_c, 1, 83, 0
2, 133920, Note_on_c, 1, 84, 100
2, 134305, Note_on_c, 1, 84, 0
2, 134400, Note_on_c, 1, 60, 88
2, 134785, Note_on_c, 1, 60, 0
2, 135360, Control_c, 1, 64, 0
2, 135360, Note_on_c, 1, 67, 41
2, 135840, Note_on_c, 1, 72, 43
2, 136320, Note_on_c, 1, 72, 0
2, 136320, Note_on_c, 1, 76, 46
2, 136680, Note_on_c, 1, 67, 0
2, 136705, Note_on_c, 1, 76, 0
2, 136800, Note_on_c, 1, 76, 55
2, 137760, Note_on_c, 1, 76, 0
2, 137760, Note_on_c, 1, 74, 44
2, 138145, Note_on_c, 1, 74, 0
2, 138240, Note_on_c, 1, 79, 47
2, 138720, Note_on_c, 1, 79, 0
2, 138720, Note_on_c, 1, 72, 49
2, 139200, Note_on_c, 1, 72, 0
2, 139200, Note_on_c, 1, 76, 53
2, 139585, Note_on_c, 1, 76, 0
2, 139680, Note_on_c, 1, 76, 61
2, 140640, Note_on_c, 1, 76, 0
2, 140640, Note_on_c, 1, 74, 51
2, 141005, Note_on_c, 1, 74, 0
2, 141120, Note_on_c, 1, 69, 53
2, 141600, Note_on_c, 1, 69, 0
2, 141600, Note_on_c, 1, 74, 55
2, 142080, Note_on_c, 1, 74, 0
2, 142080, Note_on_c, 1, 77, 59
2, 142560, Note_on_c, 1, 77, 0
2, 142560, Note_on_c, 1, 76, 63
2, 143040, Note_on_c, 1, 76, 0
2, 143040, Note_on_c, 1, 74, 58
2, 143400, Note_on_c, 1, 74, 0
2, 143520, Note_on_c, 1, 81, 76
2, 144480, Note_on_c, 1, 81, 0
2, 144480, Note_on_c, 1, 79, 62
2, 144865, Note_on_c, 1, 79, 0
2, 144960, Note_on_c, 1, 71, 55
2, 145345, Note_on_c, 1, 71, 0
2, 145440, Note_on_c, 1, 72, 52
2, 145680, Note_on_c, 1, 72, 0
2, 145680, Note_on_c, 1, 67, 50
2, 145920, Note_on_c, 1, 67, 0
2, 145920, Note_on_c, 1, 64, 48
2, 146160, Note_on_c, 1, 64, 0
2, 146160, Note_on_c, 1, 67, 46
2, 146400, Note_on_c, 1, 67, 0
2, 146400, Note_on_c, 1, 65, 44
2, 146640, Note_on_c, 1, 65, 0
2, 146640, Note_on_c, 1, 62, 42
2, 146830, Note_on_c, 1, 62, 0
2, 146880, Note_on_c, 1, 60, 42
2, 147240, Note_on_c, 1, 60, 0
2, 147240, Note_on_c, 1, 55, 45
2, 147360, Note_on_c, 1, 55, 0
2, 147360, Note_on_c, 1, 60, 46
2, 147840, Note_on_c, 1, 60, 0
2, 147840, Note_on_c, 1, 64, 51
2, 148205, Note_on_c, 1, 64, 0
2, 148320, Note_on_c, 1, 64, 60
2, 149280, Note_on_c, 1, 64, 0
2, 149280, Note_on_c, 1, 62, 44
2, 149665, Note_on_c, 1, 62, 0
2, 149760, Note_on_c, 1, 67, 48
2, 150240, Note_on_c, 1, 67, 0
2, 150240, Note_on_c, 1, 60, 51
2, 150720, Note_on_c, 1, 60, 0
2, 150720, Note_on_c, 1, 64, 54
2, 151105, Note_on_c, 1, 64, 0
2, 151200, Note_on_c, 1, 64, 66
2, 152160, Note_on_c, 1, 64, 0
2, 152160, Note_on_c, 1, 62, 53
2, 152545, Note_on_c, 1, 62, 0
2, 152640, Note_on_c, 1, 57, 54
2, 153120, Note_on_c, 1, 57, 0
2, 153120, Note_on_c, 1, 62, 58
2, 153600, Note_on_c, 1, 62, 0
2, 153600, Note_on_c, 1, 65, 62
2, 154080, Note_on_c, 1, 65, 0
2, 154080, Note_on_c, 1, 64, 68
2, 154560, Note_on_c, 1, 64, 0
2, 154560, Note_on_c, 1, 62, 62
2, 154925, Note_on_c, 1, 62, 0
2, 155040, Note_on_c, 1, 69, 79
2, 156000, Note_on_c, 1, 69, 0
2, 156000, Note_on_c, 1, 67, 64
2, 156385, Note_on_c, 1, 67, 0
2, 156480, Note_on_c, 1, 59, 56
2, 156865, Note_on_c, 1, 59, 0
2, 157200, Note_on_c, 1, 67, 58
2, 157390, Note_on_c, 1, 67, 0
2, 157680, Note_on_c, 1, 67, 53
2, 157870, Note_on_c, 1, 67, 0
2, 158160, Note_on_c, 1, 67, 48
2, 158350, Note_on_c, 1, 67, 0
2, 158400, Note_on_c, 1, 67, 58
2, 158590, Note_on_c, 1, 67, 0
2, 158640, Note_on_c, 1, 67, 57
2, 158830, Note_on_c, 1, 67, 0
2, 159120, Note_on_c, 1, 67, 52
2, 159310, Note_on_c, 1, 67, 0
2, 159600, Note_on_c, 1, 67, 47
2, 159790, Note_on_c, 1, 67, 0
2, 159840, Note_on_c, 1, 67, 54
2, 160030, Note_on_c, 1, 67, 0
2, 160080, Note_on_c, 1, 67, 52
2, 160270, Note_on_c, 1, 67, 0
2, 160560, Note_on_c, 1, 67, 48
2, 160750, Note_on_c, 1, 67, 0
2, 161040, Note_on_c, 1, 67, 45
2, 161230, Note_on_c, 1, 67, 0
2, 161280, Note_on_c, 1, 67, 53
2, 161470, Note_on_c, 1, 67, 0
2, 161520, Note_on_c, 1, 67, 50
2, 161710, Note_on_c, 1, 67, 0
2, 162000, Note_on_c, 1, 67, 45
2, 162190, Note_on_c, 1, 67, 0
2, 162480, Note_on_c, 1, 67, 41
2, 162670, Note_on_c, 1, 67, 0
2, 162720, Note_on_c, 1, 67, 80
2, 162910, Note_on_c, 1, 67, 0
2, 162960, Note_on_c, 1, 67, 72
2, 163150, Note_on_c, 1, 67, 0
2, 163440, Note_on_c, 1, 67, 59
2, 163630, Note_on_c, 1, 67, 0
2, 163920, Note_on_c, 1, 67, 53
2, 164110, Note_on_c, 1, 67, 0
2, 164160, Note_on_c, 1, 66, 81
2, 164350, Note_on_c, 1, 66, 0
2, 164400, Note_on_c, 1, 66, 73
2, 164590, Note_on_c, 1, 66, 0
2, 164880, Note_on_c, 1, 66, 64
2, 165070, Note_on_c, 1, 66, 0
2, 165360, Note_on_c, 1, 66, 60
2, 165550, Note_on_c, 1, 66, 0
2, 165600, Note_on_c, 1, 67, 87
2, 165790, Note_on_c, 1, 67, 0
2, 165840, Note_on_c, 1, 67, 79
2, 166030, Note_on_c, 1, 67, 0
2, 166320, Note_on_c, 1, 67, 69
2, 166510, Note_on_c, 1, 67, 0
2, 166800, Note_on_c, 1, 67, 64
2, 166990, Note_on_c, 1, 67, 0
2, 167040, Note_on_c, 1, 72, 90
2, 167230, Note_on_c, 1, 72, 0
2, 167280, Note_on_c, 1, 72, 82
2, 167470, Note_on_c, 1, 72, 0
2, 167760, Note_on_c, 1, 72, 72
2, 167950, Note_on_c, 1, 72, 0
2, 168240, Note_on_c, 1, 72, 68
2, 168430, Note_on_c, 1, 72, 0
2, 168480, Note_on_c, 1, 70, 91
2, 168670, Note_on_c, 1, 70, 0
2, 168720, Note_on_c, 1, 70, 83
2, 168910, Note_on_c, 1, 70, 0
2, 169200, Note_on_c, 1, 70, 77
2, 169390, Note_on_c, 1, 70, 0
2, 169680, Note_on_c, 1, 70, 75
2, 169870, Note_on_c, 1, 70, 0
2, 169920, Note_on_c, 1, 73, 96
2, 170110, Note_on_c, 1, 73, 0
2, 170160, Note_on_c, 1, 73, 88
2, 170350, Note_on_c, 1, 73, 0
2, 170640, Note_on_c, 1, 73, 81
2, 170830, Note_on_c, 1, 73, 0
2, 171120, Note_on_c, 1, 73, 77
2, 171310, Note_on_c, 1, 73, 0
2, 171360, Note_on_c, 1, 74, 97
2, 171550, Note_on_c, 1, 74, 0
2, 171600, Note_on_c, 1, 74, 90
2, 171790, Note_on_c, 1, 74, 0
2, 172080, Note_on_c, 1, 74, 85
2, 172270, Note_on_c, 1, 74, 0
2, 172560, Note_on_c, 1, 74, 82
2, 172750, Note_on_c, 1, 74, 0
2, 172800, Note_on_c, 1, 79, 101
2, 172990, Note_on_c, 1, 79, 0
2, 173040, Note_on_c, 1, 79, 93
2, 173230, Note_on_c, 1, 79, 0
2, 173520, Note_on_c, 1, 79, 89
2, 173710, Note_on_c, 1, 79, 0
2, 174000, Note_on_c, 1, 79, 86
2, 174190, Note_on_c, 1, 79, 0
2, 174240, Note_on_c, 1, 77, 109
2, 174430, Note_on_c, 1, 77, 0
2, 174480, Note_on_c, 1, 77, 100
2, 174670, Note_on_c, 1, 77, 0
2, 174960, Note_on_c, 1, 77, 94
2, 175150, Note_on_c, 1, 77, 0
2, 175440, Note_on_c, 1, 77, 91
2, 175630, Note_on_c, 1, 77, 0
2, 175680, Note_on_c, 1, 80, 114
2, 175870, Note_on_c, 1, 80, 0
2, 175920, Note_on_c, 1, 80, 106
2, 176110, Note_on_c, 1, 80, 0
2, 176400, Note_on_c, 1, 80, 99
2, 176590, Note_on_c, 1, 80, 0
2, 176880, Note_on_c, 1, 80, 94
2, 177070, Note_on_c, 1, 80, 0
2, 177120, Note_on_c, 1, 81, 97
2, 177310, Note_on_c, 1, 81, 0
2, 177360, Note_on_c, 1, 81, 102
2, 177600, Note_on_c, 1, 81, 0
2, 177600, Note_on_c, 1, 79, 98
2, 177840, Note_on_c, 1, 79, 0
2, 177840, Note_on_c, 1, 77, 95
2, 178080, Note_on_c, 1, 77, 0
2, 178080, Note_on_c, 1, 76, 91
2, 178320, Note_on_c, 1, 76, 0
2, 178320, Note_on_c, 1, 77, 87
2, 178560, Note_on_c, 1, 77, 0
2, 178560, Note_on_c, 1, 76, 83
2, 178750, Note_on_c, 1, 76, 0
2, 178800, Note_on_c, 1, 69, 88
2, 179040, Note_on_c, 1, 69, 0
2, 179040, Note_on_c, 1, 67, 84
2, 179280, Note_on_c, 1, 67, 0
2, 179280, Note_on_c, 1, 65, 81
2, 179520, Note_on_c, 1, 65, 0
2, 179520, Note_on_c, 1, 64, 77
2, 179760, Note_on_c, 1, 64, 0
2, 179760, Note_on_c, 1, 65, 73
2, 180000, Note_on_c, 1, 65, 0
2, 180000, Note_on_c, 1, 64, 69
2, 180240, Note_on_c, 1, 64, 0
2, 180240, Note_on_c, 1, 65, 73
2, 180480, Note_on_c, 1, 65, 0
2, 180480, Note_on_c, 1, 64, 69
2, 180720, Note_on_c, 1, 64, 0
2, 180720, Note_on_c, 1, 65, 66
2, 180960, Note_on_c, 1, 65, 0
2, 180960, Note_on_c, 1, 64, 62
2, 181200, Note_on_c, 1, 64, 0
2, 181200, Note_on_c, 1, 65, 59
2, 181440, Note_on_c, 1, 65, 0
2, 181440, Note_on_c, 1, 64, 56
2, 181825, Note_on_c, 1, 64, 0
2, 182880, Note_on_c, 1, 64, 43
2, 183120, Note_on_c, 1, 64, 0
2, 183120, Note_on_c, 1, 65, 40
2, 183360, Note_on_c, 1, 65, 0
2, 183360, Note_on_c, 1, 64, 38
2, 183600, Note_on_c, 1, 64, 0
2, 183600, Note_on_c, 1, 65, 36
2, 183840, Note_on_c, 1, 65, 0
2, 183840, Note_on_c, 1, 64, 33
2, 184080, Note_on_c, 1, 64, 0
2, 184080, Note_on_c, 1, 65, 31
2, 184320, Note_on_c, 1, 65, 0
2, 184320, Note_on_c, 1, 64, 29
2, 184705, Note_on_c, 1, 64, 0
2, 185760, Note_on_c, 1, 64, 83
2, 186000, Note_on_c, 1, 64, 0
2, 186000, Note_on_c, 1, 65, 80
2, 186240, Note_on_c, 1, 65, 0
2, 186240, Note_on_c, 1, 64, 77
2, 186480, Note_on_c, 1, 64, 0
2, 186480, Note_on_c, 1, 65, 74
2, 186720, Note_on_c, 1, 65, 0
2, 186720, Note_on_c, 1, 64, 71
2, 186960, Note_on_c, 1, 64, 0
2, 186960, Note_on_c, 1, 65, 68
2, 187200, Note_on_c, 1, 65, 0
2, 187200, Note_on_c, 1, 64, 65
2, 187585, Note_on_c, 1, 64, 0
2, 188640, Note_on_c, 1, 82, 54
2, 188880, Note_on_c, 1, 82, 0
2, 188880, Note_on_c, 1, 81, 51
2, 189120, Note_on_c, 1, 81, 0
2, 189120, Note_on_c, 1, 82, 49
2, 189360, Note_on_c, 1, 82, 0
2, 189360, Note_on_c, 1, 81, 46
2, 189600, Note_on_c, 1, 81, 0
2, 189600, Note_on_c, 1, 82, 44
2, 189840, Note_on_c, 1, 82, 0
2, 189840, Note_on_c, 1, 81, 41
2, 190080, Note_on_c, 1, 81, 0
2, 190080, Note_on_c, 1, 82, 39
2, 190465, Note_on_c, 1, 82, 0
2, 191520, Control_c, 1, 64, 0
2, 191520, Note_on_c, 1, 65, 44
2, 192480, Note_on_c, 1, 65, 0
2, 192480, Note_on_c, 1, 69, 47
2, 192840, Note_on_c, 1, 69, 0
2, 192960, Note_on_c, 1, 72, 49
2, 193920, Note_on_c, 1, 72, 0
2, 193920, Note_on_c, 1, 69, 52
2, 194285, Note_on_c, 1, 69, 0
2, 194400, Note_on_c, 1, 70, 54
2, 195360, Note_on_c, 1, 70, 0
2, 195360, Note_on_c, 1, 79, 58
2, 195720, Note_on_c, 1, 79, 0
2, 195840, Note_on_c, 1, 77, 63
2, 196080, Note_on_c, 1, 77, 0
2, 196080, Note_on_c, 1, 76, 59
2, 196270, Note_on_c, 1, 76, 0
2, 196320, Note_on_c, 1, 76, 55
2, 196685, Note_on_c, 1, 76, 0
2, 197280, Note_on_c, 1, 77, 53
2, 197760, Note_on_c, 1, 77, 0
2, 197760, Note_on_c, 1, 69, 51
2, 198240, Note_on_c, 1, 69, 0
2, 198240, Note_on_c, 1, 74, 48
2, 198605, Note_on_c, 1, 74, 0
2, 198720, Note_on_c, 1, 67, 52
2, 199200, Note_on_c, 1, 67, 0
2, 199200, Note_on_c, 1, 72, 57
2, 199920, Note_on_c, 1, 72, 0
2, 199920, Note_on_c, 1, 69, 50
2, 200110, Note_on_c, 1, 69, 0
2, 200160, Note_on_c, 1, 65, 47
2, 201600, Note_on_c, 1, 67, 42
2, 202070, Note_on_c, 1, 65, 0
2, 202920, Note_on_c, 1, 67, 0
2, 203040, Note_on_c, 1, 69, 41
2, 203520, Note_on_c, 1, 69, 0
2, 203520, Note_on_c, 1, 70, 45
2, 204000, Note_on_c, 1, 70, 0
2, 204000, Note_on_c, 1, 74, 50
2, 204365, Note_on_c, 1, 74, 0
2, 204480, Note_on_c, 1, 74, 55
2, 204720, Note_on_c, 1, 74, 0
2, 204720, Note_on_c, 1, 72, 57
2, 204960, Note_on_c, 1, 72, 0
2, 204960, Note_on_c, 1, 70, 59
2, 205200, Note_on_c, 1, 70, 0
2, 205200, Note_on_c, 1, 69, 62
2, 205440, Note_on_c, 1, 69, 0
2, 205440, Note_on_c, 1, 67, 64
2, 205680, Note_on_c, 1, 67, 0
2, 205680, Note_on_c, 1, 65, 66
2, 205870, Note_on_c, 1, 65, 0
2, 205920, Note_on_c, 1, 67, 70
2, 206400, Note_on_c, 1, 67, 0
2, 206400, Note_on_c, 1, 70, 63
2, 206760, Note_on_c, 1, 70, 0
2, 206880, Note_on_c, 1, 64, 55
2, 207360, Note_on_c, 1, 64, 0
2, 207360, Note_on_c, 1, 65, 47
2, 207725, Note_on_c, 1, 65, 0
2, 208320, Note_on_c, 1, 84, 57
2, 208680, Note_on_c, 1, 84, 0
2, 208680, Note_on_c, 1, 82, 56
2, 208800, Note_on_c, 1, 82, 0
2, 208800, Note_on_c, 1, 81, 56
2, 209040, Note_on_c, 1, 81, 0
2, 209280, Note_on_c, 1, 81, 54
2, 209520, Note_on_c, 1, 81, 0
2, 209760, Note_on_c, 1, 81, 53
2, 210120, Note_on_c, 1, 81, 0
2, 210120, Note_on_c, 1, 79, 52
2, 210240, Note_on_c, 1, 79, 0
2, 210240, Note_on_c, 1, 77, 52
2, 210480, Note_on_c, 1, 77, 0
2, 210720, Note_on_c, 1, 77, 50
2, 210960, Note_on_c, 1, 77, 0
2, 211200, Note_on_c, 1, 77, 49
2, 211680, Note_on_c, 1, 77, 0
2, 211680, Note_on_c, 1, 79, 47
2, 211920, Note_on_c, 1, 79, 0
2, 212160, Note_on_c, 1, 79, 46
2, 212400, Note_on_c, 1, 79, 0
2, 212640, Note_on_c, 1, 79, 45
2, 212880, Note_on_c, 1, 79, 0
2, 213120, Note_on_c, 1, 79, 43
2, 213600, Note_on_c, 1, 79, 0
2, 213600, Note_on_c, 1, 81, 38
2, 213900, Note_on_c, 1, 81, 0
2, 214080, Note_on_c, 1, 84, 55
2, 214200, Note_on_c, 1, 84, 0
2, 214200, Note_on_c, 1, 86, 55
2, 214320, Note_on_c, 1, 86, 0
2, 214320, Note_on_c, 1, 84, 55
2, 214440, Note_on_c, 1, 84, 0
2, 214440, Note_on_c, 1, 82, 55
2, 214560, Note_on_c, 1, 82, 0
2, 214560, Note_on_c, 1, 81, 54
2, 214800, Note_on_c, 1, 81, 0
2, 215040, Note_on_c, 1, 81, 54
2, 215280, Note_on_c, 1, 81, 0
2, 215520, Note_on_c, 1, 81, 53
2, 215640, Note_on_c, 1, 81, 0
2, 215640, Note_on_c, 1, 82, 52
2, 215760, Note_on_c, 1, 82, 0
2, 215760, Note_on_c, 1, 81, 52
2, 215880, Note_on_c, 1, 81, 0
2, 215880, Note_on_c, 1, 79, 52
2, 216000, Note_on_c, 1, 79, 0
2, 216000, Note_on_c, 1, 77, 52
2, 216240, Note_on_c, 1, 77, 0
2, 216480, Note_on_c, 1, 77, 51
2, 216720, Note_on_c, 1, 77, 0
2, 216960, Note_on_c, 1, 77, 50
2, 217200, Note_on_c, 1, 77, 0
2, 217440, Note_on_c, 1, 79, 51
2, 217920, Note_on_c, 1, 79, 0
2, 217920, Note_on_c, 1, 82, 50
2, 218160, Note_on_c, 1, 82, 0
2, 218400, Note_on_c, 1, 76, 49
2, 218880, Note_on_c, 1, 76, 0
2, 218880, Note_on_c, 1, 77, 48
2, 219265, Note_on_c, 1, 77, 0
2, 219840, Note_on_c, 1, 84, 45
2, 220320, Note_on_c, 1, 84, 0
2, 220320, Note_on_c, 1, 77, 43
2, 220705, Note_on_c, 1, 77, 0
2, 221280, Note_on_c, 1, 72, 39
2, 221760, Note_on_c, 1, 72, 0
2, 221760, Note_on_c, 1, 65, 37
2, 222145, Note_on_c, 1, 65, 0
2, 222720, Note_on_c, 1, 61, 89
2, 223200, Note_on_c, 1, 61, 0
2, 223200, Note_on_c, 1, 62, 89
2, 223920, Note_on_c, 1, 62, 0
2, 223920, Note_on_c, 1, 65, 88
2, 224040, Note_on_c, 1, 65, 0
2, 224040, Note_on_c, 1, 69, 88
2, 224160, Note_on_c, 1, 69, 0
2, 224160, Note_on_c, 1, 74, 88
2, 224350, Note_on_c, 1, 74, 0
2, 224400, Note_on_c, 1, 69, 88
2, 224520, Note_on_c, 1, 69, 0
2, 224520, Note_on_c, 1, 74, 88
2, 224640, Note_on_c, 1, 74, 0
2, 224640, Note_on_c, 1, 77, 88
2, 224830, Note_on_c, 1, 77, 0
2, 224880, Note_on_c, 1, 74, 88
2, 225000, Note_on_c, 1, 74, 0
2, 225000, Note_on_c, 1, 77, 87
2, 225120, Note_on_c, 1, 77, 0
2, 225120, Note_on_c, 1, 81, 87
2, 225310, Note_on_c, 1, 81, 0
2, 225360, Note_on_c, 1, 81, 87
2, 225600, Note_on_c, 1, 81, 0
2, 225600, Note_on_c, 1, 77, 87
2, 225840, Note_on_c, 1, 77, 0
2, 225840, Note_on_c, 1, 74, 87
2, 226030, Note_on_c, 1, 74, 0
2, 226200, Note_on_c, 1, 82, 95
2, 226800, Note_on_c, 1, 81, 89
2, 226815, Note_on_c, 1, 82, 0
2, 226920, Note_on_c, 1, 81, 0
2, 226920, Note_on_c, 1, 79, 88
2, 227040, Note_on_c, 1, 79, 0
2, 227040, Note_on_c, 1, 77, 87
2, 227160, Note_on_c, 1, 77, 0
2, 227160, Note_on_c, 1, 76, 86
2, 227280, Note_on_c, 1, 76, 0
2, 227280, Note_on_c, 1, 74, 85
2, 227400, Note_on_c, 1, 74, 0
2, 227400, Note_on_c, 1, 73, 84
2, 227495, Note_on_c, 1, 73, 0
2, 227520, Note_on_c, 1, 82, 94
2, 228240, Note_on_c, 1, 82, 0
2, 228240, Note_on_c, 1, 81, 86
2, 228360, Note_on_c, 1, 81, 0
2, 228360, Note_on_c, 1, 79, 86
2, 228480, Note_on_c, 1, 79, 0
2, 228480, Note_on_c, 1, 77, 85
2, 228600, Note_on_c, 1, 77, 0
2, 228600, Note_on_c, 1, 76, 84
2, 228720, Note_on_c, 1, 76, 0
2, 228720, Note_on_c, 1, 74, 83
2, 228840, Note_on_c, 1, 74, 0
2, 228840, Note_on_c, 1, 73, 82
2, 228935, Note_on_c, 1, 73, 0
2, 228960, Note_on_c, 1, 74, 84
2, 229680, Note_on_c, 1, 74, 0
2, 229680, Note_on_c, 1, 65, 84
2, 229800, Note_on_c, 1, 65, 0
2, 229800, Note_on_c, 1, 69, 83
2, 229920, Note_on_c, 1, 69, 0
2, 229920, Note_on_c, 1, 74, 83
2, 230110, Note_on_c, 1, 74, 0
2, 230160, Note_on_c, 1, 69, 83
2, 230280, Note_on_c, 1, 69, 0
2, 230280, Note_on_c, 1, 74, 83
2, 230400, Note_on_c, 1, 74, 0
2, 230400, Note_on_c, 1, 77, 83
2, 230590, Note_on_c, 1, 77, 0
2, 230640, Note_on_c, 1, 74, 83
2, 230760, Note_on_c, 1, 74, 0
2, 230760, Note_on_c, 1, 77, 83
2, 230880, Note_on_c, 1, 77, 0
2, 230880, Note_on_c, 1, 81, 83
2, 231070, Note_on_c, 1, 81, 0
2, 231120, Note_on_c, 1, 81, 82
2, 231360, Note_on_c, 1, 81, 0
2, 231360, Note_on_c, 1, 77, 82
2, 231600, Note_on_c, 1, 77, 0
2, 231600, Note_on_c, 1, 74, 82
2, 231790, Note_on_c, 1, 74, 0
2, 231840, Note_on_c, 1, 80, 88
2, 232560, Note_on_c, 1, 80, 0
2, 232560, Note_on_c, 1, 79, 84
2, 232680, Note_on_c, 1, 79, 0
2, 232680, Note_on_c, 1, 77, 83
2, 232800, Note_on_c, 1, 77, 0
2, 232800, Note_on_c, 1, 75, 82
2, 232920, Note_on_c, 1, 75, 0
2, 232920, Note_on_c, 1, 74, 81
2, 233040, Note_on_c, 1, 74, 0
2, 233040, Note_on_c, 1, 72, 80
2, 233160, Note_on_c, 1, 72, 0
2, 233160, Note_on_c, 1, 71, 81
2, 233255, Note_on_c, 1, 71, 0
2, 233280, Note_on_c, 1, 80, 88
2, 234000, Note_on_c, 1, 80, 0
2, 234000, Note_on_c, 1, 79, 83
2, 234120, Note_on_c, 1, 79, 0
2, 234120, Note_on_c, 1, 77, 82
2, 234240, Note_on_c, 1, 77, 0
2, 234240, Note_on_c, 1, 75, 81
2, 234360, Note_on_c, 1, 75, 0
2, 234360, Note_on_c, 1, 74, 81
2, 234480, Note_on_c, 1, 74, 0
2, 234480, Note_on_c, 1, 72, 80
2, 234600, Note_on_c, 1, 72, 0
2, 234600, Note_on_c, 1, 71, 79
2, 234695, Note_on_c, 1, 71, 0
2, 234720, Control_c, 1, 64, 0
2, 234720, Note_on_c, 1, 72, 81
2, 235440, Note_on_c, 1, 72, 0
2, 235440, Note_on_c, 1, 63, 80
2, 235560, Note_on_c, 1, 63, 0
2, 235560, Note_on_c, 1, 67, 80
2, 235680, Note_on_c, 1, 67, 0
2, 235680, Note_on_c, 1, 72, 80
2, 235870, Note_on_c, 1, 72, 0
2, 235920, Note_on_c, 1, 67, 80
2, 236040, Note_on_c, 1, 67, 0
2, 236040, Note_on_c, 1, 72, 80
2, 236160, Note_on_c, 1, 72, 0
2, 236160, Note_on_c, 1, 75, 79
2, 236350, Note_on_c, 1, 75, 0
2, 236400, Note_on_c, 1, 72, 79
2, 236520, Note_on_c, 1, 72, 0
2, 236520, Note_on_c, 1, 75, 79
2, 236640, Note_on_c, 1, 75, 0
2, 236640, Note_on_c, 1, 79, 79
2, 236830, Note_on_c, 1, 79, 0
2, 236880, Note_on_c, 1, 79, 79
2, 237120, Note_on_c, 1, 79, 0
2, 237120, Note_on_c, 1, 75, 79
2, 237360, Note_on_c, 1, 75, 0
2, 237360, Note_on_c, 1, 72, 78
2, 237550, Note_on_c, 1, 72, 0
2, 237720, Note_on_c, 1, 78, 85
2, 238320, Note_on_c, 1, 77, 80
2, 238325, Note_on_c, 1, 78, 0
2, 238440, Note_on_c, 1, 77, 0
2, 238440, Note_on_c, 1, 75, 78
2, 238560, Note_on_c, 1, 75, 0
2, 238560, Note_on_c, 1, 73, 77
2, 238680, Note_on_c, 1, 73, 0
2, 238680, Note_on_c, 1, 72, 76
2, 238800, Note_on_c, 1, 72, 0
2, 238800, Note_on_c, 1, 70, 75
2, 238920, Note_on_c, 1, 70, 0
2, 238920, Note_on_c, 1, 69, 74
2, 239015, Note_on_c, 1, 69, 0
2, 239040, Note_on_c, 1, 78, 85
2, 239760, Note_on_c, 1, 78, 0
2, 239760, Note_on_c, 1, 77, 78
2, 239880, Note_on_c, 1, 77, 0
2, 239880, Note_on_c, 1, 75, 77
2, 240000, Note_on_c, 1, 75, 0
2, 240000, Note_on_c, 1, 73, 76
2, 240120, Note_on_c, 1, 73, 0
2, 240120, Note_on_c, 1, 72, 75
2, 240240, Note_on_c, 1, 72, 0
2, 240240, Note_on_c, 1, 70, 75
2, 240360, Note_on_c, 1, 70, 0
2, 240360, Note_on_c, 1, 69, 74
2, 240455, Note_on_c, 1, 69, 0
2, 240480, Note_on_c, 1, 70, 77
2, 241080, Note_on_c, 1, 65, 75
2, 241085, Note_on_c, 1, 70, 0
2, 241200, Note_on_c, 1, 65, 0
2, 241200, Note_on_c, 1, 70, 74
2, 241320, Note_on_c, 1, 70, 0
2, 241320, Note_on_c, 1, 65, 74
2, 241440, Note_on_c, 1, 65, 0
2, 241440, Note_on_c, 1, 73, 73
2, 241560, Note_on_c, 1, 73, 0
2, 241560, Note_on_c, 1, 70, 73
2, 241680, Note_on_c, 1, 70, 0
2, 241680, Note_on_c, 1, 73, 72
2, 241800, Note_on_c, 1, 73, 0
2, 241800, Note_on_c, 1, 70, 72
2, 241920, Note_on_c, 1, 70, 0
2, 241920, Note_on_c, 1, 77, 71
2, 242040, Note_on_c, 1, 77, 0
2, 242040, Note_on_c, 1, 73, 71
2, 242160, Note_on_c, 1, 73, 0
2, 242160, Note_on_c, 1, 77, 70
2, 242280, Note_on_c, 1, 77, 0
2, 242280, Note_on_c, 1, 73, 70
2, 242400, Note_on_c, 1, 73, 0
2, 242400, Note_on_c, 1, 82, 69
2, 242785, Note_on_c, 1, 82, 0
2, 243360, Note_on_c, 1, 69, 73
2, 243960, Note_on_c, 1, 65, 71
2, 243965, Note_on_c, 1, 69, 0
2, 244080, Note_on_c, 1, 65, 0
2, 244080, Note_on_c, 1, 69, 70
2, 244200, Note_on_c, 1, 69, 0
2, 244200, Note_on_c, 1, 65, 70
2, 244320, Note_on_c, 1, 65, 0
2, 244320, Note_on_c, 1, 72, 69
2, 244440, Note_on_c, 1, 72, 0
2, 244440, Note_on_c, 1, 69, 68
2, 244560, Note_on_c, 1, 69, 0
2, 244560, Note_on_c, 1, 72, 68
2, 244680, Note_on_c, 1, 72, 0
2, 244680, Note_on_c, 1, 69, 67
2, 244800, Note_on_c, 1, 69, 0
2, 244800, Note_on_c, 1, 77, 67
2, 244920, Note_on_c, 1, 77, 0
2, 244920, Note_on_c, 1, 72, 66
2, 245040, Note_on_c, 1, 72, 0
2, 245040, Note_on_c, 1, 77, 66
2, 245160, Note_on_c, 1, 77, 0
2, 245160, Note_on_c, 1, 72, 65
2, 245280, Note_on_c, 1, 72, 0
2, 245280, Note_on_c, 1, 81, 65
2, 245665, Note_on_c, 1, 81, 0
2, 246240, Note_on_c, 1, 68, 67
2, 246840, Note_on_c, 1, 68, 0
2, 246840, Note_on_c, 1, 65, 65
2, 246960, Note_on_c, 1, 65, 0
2, 246960, Note_on_c, 1, 68, 65
2, 247080, Note_on_c, 1, 68, 0
2, 247080, Note_on_c, 1, 65, 64
2, 247200, Note_on_c, 1, 65, 0
2, 247200, Note_on_c, 1, 74, 64
2, 247320, Note_on_c, 1, 74, 0
2, 247320, Note_on_c, 1, 68, 63
2, 247440, Note_on_c, 1, 68, 0
2, 247440, Note_on_c, 1, 74, 63
2, 247560, Note_on_c, 1, 74, 0
2, 247560, Note_on_c, 1, 68, 62
2, 247680, Note_on_c, 1, 68, 0
2, 247680, Note_on_c, 1, 77, 62
2, 247800, Note_on_c, 1, 77, 0
2, 247800, Note_on_c, 1, 74, 61
2, 247920, Note_on_c, 1, 74, 0
2, 247920, Note_on_c, 1, 77, 61
2, 248040, Note_on_c, 1, 77, 0
2, 248040, Note_on_c, 1, 74, 61
2, 248160, Note_on_c, 1, 74, 0
2, 248160, Note_on_c, 1, 80, 60
2, 248640, Note_on_c, 1, 80, 0
2, 248640, Note_on_c, 1, 77, 61
2, 249025, Note_on_c, 1, 77, 0
2, 249240, Note_on_c, 1, 84, 65
2, 250070, Note_on_c, 1, 84, 0
2, 250080, Note_on_c, 1, 82, 59
2, 250200, Note_on_c, 1, 82, 0
2, 250200, Note_on_c, 1, 80, 58
2, 250320, Note_on_c, 1, 80, 0
2, 250320, Note_on_c, 1, 79, 57
2, 250440, Note_on_c, 1, 79, 0
2, 250440, Note_on_c, 1, 77, 56
2, 250535, Note_on_c, 1, 77, 0
2, 250560, Note_on_c, 1, 84, 59
2, 251520, Note_on_c, 1, 84, 0
2, 251520, Note_on_c, 1, 82, 54
2, 251640, Note_on_c, 1, 82, 0
2, 251640, Note_on_c, 1, 80, 53
2, 251760, Note_on_c, 1, 80, 0
2, 251760, Note_on_c, 1, 79, 52
2, 251880, Note_on_c, 1, 79, 0
2, 251880, Note_on_c, 1, 77, 52
2, 251975, Note_on_c, 1, 77, 0
2, 252000, Note_on_c, 1, 72, 55
2, 252720, Note_on_c, 1, 72, 0
2, 252720, Note_on_c, 1, 73, 49
2, 252840, Note_on_c, 1, 73, 0
2, 252840, Note_on_c, 1, 72, 48
2, 252960, Note_on_c, 1, 72, 0
2, 252960, Note_on_c, 1, 70, 47
2, 253080, Note_on_c, 1, 70, 0
2, 253080, Note_on_c, 1, 68, 46
2, 253200, Note_on_c, 1, 68, 0
2, 253200, Note_on_c, 1, 67, 45
2, 253320, Note_on_c, 1, 67, 0
2, 253320, Note_on_c, 1, 65, 44
2, 253415, Note_on_c, 1, 65, 0
2, 253440, Note_on_c, 1, 72, 44
2, 253705, Note_on_c, 1, 72, 0
2, 253920, Note_on_c, 1, 60, 41
2, 254185, Note_on_c, 1, 60, 0
2, 254880, Control_c, 1, 64, 127
2, 254880, Note_on_c, 1, 60, 40
2, 254940, Note_on_c, 1, 69, 40
2, 255005, Note_on_c, 1, 60, 0
2, 255065, Note_on_c, 1, 69, 0
2, 255360, Control_c, 1, 64, 0
2, 255360, Note_on_c, 1, 69, 43
2, 255545, Note_on_c, 1, 69, 0
2, 255840, Note_on_c, 1, 69, 46
2, 256020, Note_on_c, 1, 69, 0
2, 256320, Control_c, 1, 64, 127
2, 256320, Note_on_c, 1, 64, 49
2, 256380, Note_on_c, 1, 72, 50
2, 256440, Note_on_c, 1, 64, 0
2, 256800, Control_c, 1, 64, 0
2, 257040, Note_on_c, 1, 70, 47
2, 257055, Note_on_c, 1, 72, 0
2, 257280, Note_on_c, 1, 70, 0
2, 257280, Note_on_c, 1, 67, 47
2, 257665, Note_on_c, 1, 67, 0
2, 257760, Note_on_c, 1, 67, 44
2, 258000, Note_on_c, 1, 67, 0
2, 258000, Note_on_c, 1, 65, 44
2, 258240, Note_on_c, 1, 65, 0
2, 258240, Note_on_c, 1, 65, 45
2, 258960, Note_on_c, 1, 65, 0
2, 258960, Note_on_c, 1, 67, 47
2, 259150, Note_on_c, 1, 67, 0
2, 259200, Note_on_c, 1, 67, 47
2, 260160, Note_on_c, 1, 67, 0
2, 260160, Note_on_c, 1, 69, 39
2, 260545, Note_on_c, 1, 69, 0
2, 260640, Note_on_c, 1, 70, 40
2, 261360, Note_on_c, 1, 70, 0
2, 261360, Note_on_c, 1, 72, 44
2, 261420, Note_on_c, 1, 70, 44
2, 261425, Note_on_c, 1, 72, 0
2, 261480, Note_on_c, 1, 70, 0
2, 261480, Note_on_c, 1, 69, 44
2, 261540, Note_on_c, 1, 69, 0
2, 261540, Note_on_c, 1, 70, 44
2, 261600, Note_on_c, 1, 72, 45
2, 261605, Note_on_c, 1, 70, 0
2, 261840, Note_on_c, 1, 72, 0
2, 261840, Note_on_c, 1, 74, 46
2, 262030, Note_on_c, 1, 74, 0
2, 262080, Note_on_c, 1, 74, 47
2, 262320, Note_on_c, 1, 74, 0
2, 262320, Note_on_c, 1, 72, 48
2, 262560, Note_on_c, 1, 72, 0
2, 262560, Note_on_c, 1, 71, 49
2, 262800, Note_on_c, 1, 71, 0
2, 262800, Note_on_c, 1, 72, 51
2, 263040, Note_on_c, 1, 72, 0
2, 263040, Note_on_c, 1, 70, 52
2, 263280, Note_on_c, 1, 70, 0
2, 263280, Note_on_c, 1, 67, 53
2, 263470, Note_on_c, 1, 67, 0
2, 263520, Note_on_c, 1, 68, 54
2, 263760, Note_on_c, 1, 68, 0
2, 263760, Note_on_c, 1, 69, 55
2, 264000, Note_on_c, 1, 69, 0
2, 264000, Note_on_c, 1, 70, 57
2, 264240, Note_on_c, 1, 70, 0
2, 264240, Note_on_c, 1, 69, 58
2, 264480, Note_on_c, 1, 69, 0
2, 264480, Note_on_c, 1, 72, 59
2, 264720, Note_on_c, 1, 72, 0
2, 264720, Note_on_c, 1, 70, 60
2, 264910, Note_on_c, 1, 70, 0
2, 264960, Note_on_c, 1, 69, 63
2, 265200, Note_on_c, 1, 69, 0
2, 265200, Note_on_c, 1, 67, 61
2, 265440, Note_on_c, 1, 67, 0
2, 265440, Note_on_c, 1, 65, 58
2, 265680, Note_on_c, 1, 65, 0
2, 265680, Note_on_c, 1, 64, 54
2, 265920, Note_on_c, 1, 64, 0
2, 265920, Note_on_c, 1, 62, 51
2, 266160, Note_on_c, 1, 62, 0
2, 266160, Note_on_c, 1, 60, 48
2, 266350, Note_on_c, 1, 60, 0
2, 266400, Note_on_c, 1, 80, 62
2, 266640, Note_on_c, 1, 80, 0
2, 266640, Note_on_c, 1, 81, 63
2, 266830, Note_on_c, 1, 81, 0
2, 266880, Note_on_c, 1, 80, 64
2, 267120, Note_on_c, 1, 80, 0
2, 267120, Note_on_c, 1, 81, 64
2, 267310, Note_on_c, 1, 81, 0
2, 267360, Note_on_c, 1, 80, 65
2, 267600, Note_on_c, 1, 80, 0
2, 267600, Note_on_c, 1, 81, 66
2, 267790, Note_on_c, 1, 81, 0
2, 267840, Note_on_c, 1, 83, 67
2, 268080, Note_on_c, 1, 83, 0
2, 268080, Note_on_c, 1, 84, 67
2, 268270, Note_on_c, 1, 84, 0
2, 268320, Note_on_c, 1, 83, 68
2, 268560, Note_on_c, 1, 83, 0
2, 268560, Note_on_c, 1, 84, 69
2, 268750, Note_on_c, 1, 84, 0
2, 268800, Note_on_c, 1, 82, 70
2, 269040, Note_on_c, 1, 82, 0
2, 269040, Note_on_c, 1, 79, 71
2, 269230, Note_on_c, 1, 79, 0
2, 269280, Note_on_c, 1, 79, 70
2, 269520, Note_on_c, 1, 79, 0
2, 269520, Note_on_c, 1, 77, 67
2, 269710, Note_on_c, 1, 77, 0
2, 269760, Note_on_c, 1, 79, 64
2, 270000, Note_on_c, 1, 79, 0
2, 270000, Note_on_c, 1, 77, 61
2, 270190, Note_on_c, 1, 77, 0
2, 270240, Note_on_c, 1, 81, 58
2, 270480, Note_on_c, 1, 81, 0
2, 270480, Note_on_c, 1, 79, 55
2, 270670, Note_on_c, 1, 79, 0
2, 270720, Note_on_c, 1, 79, 52
2, 271440, Note_on_c, 1, 79, 0
2, 271440, Note_on_c, 1, 80, 45
2, 271680, Note_on_c, 1, 80, 0
2, 271680, Note_on_c, 1, 81, 43
2, 272065, Note_on_c, 1, 81, 0
2, 272160, Note_on_c, 1, 82, 47
2, 272880, Note_on_c, 1, 84, 53
2, 272885, Note_on_c, 1, 82, 0
2, 272940, Note_on_c, 1, 84, 0
2, 272940, Note_on_c, 1, 82, 53
2, 273000, Note_on_c, 1, 82, 0
2, 273000, Note_on_c, 1, 81, 54
2, 273060, Note_on_c, 1, 81, 0
2, 273060, Note_on_c, 1, 82, 54
2, 273120, Note_on_c, 1, 82, 0
2, 273120, Note_on_c, 1, 84, 55
2, 273360, Note_on_c, 1, 84, 0
2, 273360, Note_on_c, 1, 86, 57
2, 273550, Note_on_c, 1, 86, 0
2, 273600, Note_on_c, 1, 86, 59
2, 273840, Note_on_c, 1, 86, 0
2, 273840, Note_on_c, 1, 84, 60
2, 274080, Note_on_c, 1, 84, 0
2, 274080, Note_on_c, 1, 83, 62
2, 274320, Note_on_c, 1, 83, 0
2, 274320, Note_on_c, 1, 84, 64
2, 274560, Note_on_c, 1, 84, 0
2, 274560, Note_on_c, 1, 82, 66
2, 274800, Note_on_c, 1, 82, 0
2, 274800, Note_on_c, 1, 79, 68
2, 274990, Note_on_c, 1, 79, 0
2, 275040, Note_on_c, 1, 80, 72
2, 275280, Note_on_c, 1, 80, 0
2, 275280, Note_on_c, 1, 81, 69
2, 275520, Note_on_c, 1, 81, 0
2, 275520, Note_on_c, 1, 84, 66
2, 275760, Note_on_c, 1, 84, 0
2, 275760, Note_on_c, 1, 82, 63
2, 276000, Note_on_c, 1, 82, 0
2, 276000, Note_on_c, 1, 79, 59
2, 276240, Note_on_c, 1, 79, 0
2, 276240, Note_on_c, 1, 76, 56
2, 276430, Note_on_c, 1, 76, 0
2, 276480, Note_on_c, 1, 77, 57
2, 276720, Note_on_c, 1, 77, 0
2, 276720, Note_on_c, 1, 72, 52
2, 276910, Note_on_c, 1, 72, 0
2, 277200, Note_on_c, 1, 72, 48
2, 277390, Note_on_c, 1, 72, 0
2, 277680, Note_on_c, 1, 72, 44
2, 277870, Note_on_c, 1, 72, 0
2, 277920, Note_on_c, 1, 72, 52
2, 278110, Note_on_c, 1, 72, 0
2, 278160, Note_on_c, 1, 72, 50
2, 278350, Note_on_c, 1, 72, 0
2, 278640, Note_on_c, 1, 72, 45
2, 278830, Note_on_c, 1, 72, 0
2, 279120, Note_on_c, 1, 72, 41
2, 279310, Note_on_c, 1, 72, 0
2, 279360, Note_on_c, 1, 72, 49
2, 279550, Note_on_c, 1, 72, 0
2, 279600, Note_on_c, 1, 72, 47
2, 279790, Note_on_c, 1, 72, 0
2, 280080, Note_on_c, 1, 72, 44
2, 280270, Note_on_c, 1, 72, 0
2, 280560, Note_on_c, 1, 72, 40
2, 280750, Note_on_c, 1, 72, 0
2, 280800, Note_on_c, 1, 72, 48
2, 280990, Note_on_c, 1, 72, 0
2, 281040, Note_on_c, 1, 72, 44
2, 281230, Note_on_c, 1, 72, 0
2, 281520, Note_on_c, 1, 72, 41
2, 281710, Note_on_c, 1, 72, 0
2, 282000, Note_on_c, 1, 72, 38
2, 282190, Note_on_c, 1, 72, 0
2, 282240, Note_on_c, 1, 72, 74
2, 282430, Note_on_c, 1, 72, 0
2, 282480, Note_on_c, 1, 72, 65
2, 282670, Note_on_c, 1, 72, 0
2, 282960, Note_on_c, 1, 72, 54
2, 283150, Note_on_c, 1, 72, 0
2, 283440, Note_on_c, 1, 72, 50
2, 283630, Note_on_c, 1, 72, 0
2, 283680, Note_on_c, 1, 73, 77
2, 283870, Note_on_c, 1, 73, 0
2, 283920, Note_on_c, 1, 73, 69
2, 284110, Note_on_c, 1, 73, 0
2, 284400, Note_on_c, 1, 73, 59
2, 284590, Note_on_c, 1, 73, 0
2, 284880, Note_on_c, 1, 73, 57
2, 285070, Note_on_c, 1, 73, 0
2, 285120, Note_on_c, 1, 73, 84
2, 285310, Note_on_c, 1, 73, 0
2, 285360, Note_on_c, 1, 73, 77
2, 285550, Note_on_c, 1, 73, 0
2, 285840, Note_on_c, 1, 73, 67
2, 286030, Note_on_c, 1, 73, 0
2, 286320, Note_on_c, 1, 73, 65
2, 286510, Note_on_c, 1, 73, 0
2, 286560, Note_on_c, 1, 72, 88
2, 286750, Note_on_c, 1, 72, 0
2, 286800, Note_on_c, 1, 72, 81
2, 286990, Note_on_c, 1, 72, 0
2, 287280, Note_on_c, 1, 72, 73
2, 287470, Note_on_c, 1, 72, 0
2, 287760, Note_on_c, 1, 72, 70
2, 287950, Note_on_c, 1, 72, 0
2, 288000, Note_on_c, 1, 72, 94
2, 288190, Note_on_c, 1, 72, 0
2, 288240, Note_on_c, 1, 72, 80
2, 288430, Note_on_c, 1, 72, 0
2, 288720, Note_on_c, 1, 72, 67
2, 288910, Note_on_c, 1, 72, 0
2, 288960, Note_on_c, 1, 70, 89
2, 289150, Note_on_c, 1, 70, 0
2, 289200, Note_on_c, 1, 70, 80
2, 289390, Note_on_c, 1, 70, 0
2, 289680, Note_on_c, 1, 70, 67
2, 289870, Note_on_c, 1, 70, 0
2, 289920, Note_on_c, 1, 70, 82
2, 290110, Note_on_c, 1, 70, 0
2, 290160, Note_on_c, 1, 70, 73
2, 290350, Note_on_c, 1, 70, 0
2, 290640, Note_on_c, 1, 70, 65
2, 290830, Note_on_c, 1, 70, 0
2, 291120, Note_on_c, 1, 68, 58
2, 291310, Note_on_c, 1, 68, 0
2, 291600, Note_on_c, 1, 68, 56
2, 291790, Note_on_c, 1, 68, 0
2, 292080, Note_on_c, 1, 68, 54
2, 292270, Note_on_c, 1, 68, 0
2, 292320, Note_on_c, 1, 67, 53
2, 292510, Note_on_c, 1, 67, 0
2, 292560, Note_on_c, 1, 72, 56
2, 292800, Note_on_c, 1, 72, 0
2, 292800, Note_on_c, 1, 70, 53
2, 293040, Note_on_c, 1, 70, 0
2, 293040, Note_on_c, 1, 68, 51
2, 293280, Note_on_c, 1, 68, 0
2, 293280, Note_on_c, 1, 67, 48
2, 293520, Note_on_c, 1, 67, 0
2, 293520, Note_on_c, 1, 68, 45
2, 293760, Note_on_c, 1, 68, 0
2, 293760, Note_on_c, 1, 67, 43
2, 293950, Note_on_c, 1, 67, 0
2, 294000, Note_on_c, 1, 72, 53
2, 294240, Note_on_c, 1, 72, 0
2, 294240, Note_on_c, 1, 70, 51
2, 294480, Note_on_c, 1, 70, 0
2, 294480, Note_on_c, 1, 68, 48
2, 294720, Note_on_c, 1, 68, 0
2, 294720, Note_on_c, 1, 67, 46
2, 294960, Note_on_c, 1, 67, 0
2, 294960, Note_on_c, 1, 68, 43
2, 295200, Note_on_c, 1, 68, 0
2, 295200, Note_on_c, 1, 67, 41
2, 295440, Note_on_c, 1, 67, 0
2, 295440, Note_on_c, 1, 68, 41
2, 295680, Note_on_c, 1, 68, 0
2, 295680, Note_on_c, 1, 67, 39
2, 295920, Note_on_c, 1, 67, 0
2, 295920, Note_on_c, 1, 68, 38
2, 296160, Note_on_c, 1, 68, 0
2, 296160, Note_on_c, 1, 67, 36
2, 296400, Note_on_c, 1, 67, 0
2, 296400, Note_on_c, 1, 68, 35
2, 296640, Note_on_c, 1, 68, 0
2, 296640, Note_on_c, 1, 67, 37
2, 296830, Note_on_c, 1, 67, 0
2, 296880, Note_on_c, 1, 66, 39
2, 297120, Note_on_c, 1, 66, 0
2, 297120, Note_on_c, 1, 67, 41
2, 297360, Note_on_c, 1, 67, 0
2, 297360, Note_on_c, 1, 69, 43
2, 297600, Note_on_c, 1, 69, 0
2, 297600, Note_on_c, 1, 70, 45
2, 297840, Note_on_c, 1, 70, 0
2, 297840, Note_on_c, 1, 72, 47
2, 298080, Note_on_c, 1, 72, 0
2, 298080, Note_on_c, 1, 74, 51
2, 298390, Note_on_c, 1, 74, 0
2, 298560, Note_on_c, 1, 74, 51
2, 298870, Note_on_c, 1, 74, 0
2, 299040, Note_on_c, 1, 74, 52
2, 299350, Note_on_c, 1, 74, 0
2, 299520, Note_on_c, 1, 74, 54
2, 300480, Note_on_c, 1, 74, 0
2, 300480, Note_on_c, 1, 72, 46
2, 300790, Note_on_c, 1, 72, 0
2, 300960, Note_on_c, 1, 72, 44
2, 301020, Note_on_c, 1, 72, 0
2, 301020, Note_on_c, 1, 70, 44
2, 301320, Note_on_c, 1, 70, 0
2, 301440, Note_on_c, 1, 70, 45
2, 301750, Note_on_c, 1, 70, 0
2, 301920, Note_on_c, 1, 70, 47
2, 302230, Note_on_c, 1, 70, 0
2, 302400, Note_on_c, 1, 70, 49
2, 303360, Note_on_c, 1, 70, 0
2, 303360, Note_on_c, 1, 69, 40
2, 303670, Note_on_c, 1, 69, 0
2, 303840, Note_on_c, 1, 72, 43
2, 304080, Note_on_c, 1, 72, 0
2, 304080, Note_on_c, 1, 70, 42
2, 304265, Note_on_c, 1, 70, 0
2, 304320, Note_on_c, 1, 69, 41
2, 304800, Note_on_c, 1, 69, 0
2, 304800, Note_on_c, 1, 67, 39
2, 305110, Note_on_c, 1, 67, 0
2, 305280, Note_on_c, 1, 69, 36
2, 305470, Note_on_c, 1, 69, 0
2, 305520, Note_on_c, 1, 77, 39
2, 305675, Note_on_c, 1, 77, 0
2, 305760, Note_on_c, 1, 79, 42
2, 305915, Note_on_c, 1, 79, 0
2, 306000, Note_on_c, 1, 81, 44
2, 306155, Note_on_c, 1, 81, 0
2, 306240, Note_on_c, 1, 82, 47
2, 306395, Note_on_c, 1, 82, 0
2, 306480, Note_on_c, 1, 84, 49
2, 306635, Note_on_c, 1, 84, 0
2, 306720, Note_on_c, 1, 86, 55
2, 307030, Note_on_c, 1, 86, 0
2, 307200, Note_on_c, 1, 86, 54
2, 307510, Note_on_c, 1, 86, 0
2, 307680, Note_on_c, 1, 86, 56
2, 307990, Note_on_c, 1, 86, 0
2, 308160, Note_on_c, 1, 86, 58
2, 308880, Note_on_c, 1, 86, 0
2, 308880, Note_on_c, 1, 88, 53
2, 309000, Note_on_c, 1, 88, 0
2, 309000, Note_on_c, 1, 86, 52
2, 309120, Note_on_c, 1, 86, 0
2, 309120, Note_on_c, 1, 84, 51
2, 309505, Note_on_c, 1, 84, 0
2, 309600, Note_on_c, 1, 84, 50
2, 309660, Note_on_c, 1, 84, 0
2, 309660, Note_on_c, 1, 82, 50
2, 309965, Note_on_c, 1, 82, 0
2, 310080, Note_on_c, 1, 82, 51
2, 310390, Note_on_c, 1, 82, 0
2, 310560, Note_on_c, 1, 82, 52
2, 310870, Note_on_c, 1, 82, 0
2, 311040, Note_on_c, 1, 82, 53
2, 312000, Note_on_c, 1, 82, 0
2, 312000, Note_on_c, 1, 81, 46
2, 312385, Note_on_c, 1, 81, 0
2, 312480, Note_on_c, 1, 84, 48
2, 312720, Note_on_c, 1, 84, 0
2, 312720, Note_on_c, 1, 82, 47
2, 312900, Note_on_c, 1, 82, 0
2, 312960, Note_on_c, 1, 81, 45
2, 313440, Note_on_c, 1, 81, 0
2, 313440, Note_on_c, 1, 79, 43
2, 313825, Note_on_c, 1, 79, 0
2, 313920, Note_on_c, 1, 84, 80
2, 314110, Note_on_c, 1, 84, 0
2, 314160, Note_on_c, 1, 84, 73
2, 314350, Note_on_c, 1, 84, 0
2, 314640, Note_on_c, 1, 82, 64
2, 314830, Note_on_c, 1, 82, 0
2, 315120, Note_on_c, 1, 81, 58
2, 315310, Note_on_c, 1, 81, 0
2, 315600, Note_on_c, 1, 79, 53
2, 315790, Note_on_c, 1, 79, 0
2, 316080, Note_on_c, 1, 77, 50
2, 316270, Note_on_c, 1, 77, 0
2, 316560, Note_on_c, 1, 76, 48
2, 316750, Note_on_c, 1, 76, 0
2, 316920, Note_on_c, 1, 81, 75
2, 317040, Note_on_c, 1, 81, 0
2, 317040, Note_on_c, 1, 84, 72
2, 317160, Note_on_c, 1, 84, 0
2, 317160, Note_on_c, 1, 81, 69
2, 317255, Note_on_c, 1, 81, 0
2, 317400, Note_on_c, 1, 79, 65
2, 317520, Note_on_c, 1, 79, 0
2, 317520, Note_on_c, 1, 82, 64
2, 317640, Note_on_c, 1, 82, 0
2, 317640, Note_on_c, 1, 79, 62
2, 317735, Note_on_c, 1, 79, 0
2, 317880, Note_on_c, 1, 77, 59
2, 318000, Note_on_c, 1, 77, 0
2, 318000, Note_on_c, 1, 81, 57
2, 318120, Note_on_c, 1, 81, 0
2, 318120, Note_on_c, 1, 77, 56
2, 318215, Note_on_c, 1, 77, 0
2, 318360, Note_on_c, 1, 70, 52
2, 318480, Note_on_c, 1, 70, 0
2, 318480, Note_on_c, 1, 79, 51
2, 318600, Note_on_c, 1, 79, 0
2, 318600, Note_on_c, 1, 70, 51
2, 318695, Note_on_c, 1, 70, 0
2, 318840, Note_on_c, 1, 69, 49
2, 318960, Note_on_c, 1, 69, 0
2, 318960, Note_on_c, 1, 77, 48
2, 319080, Note_on_c, 1, 77, 0
2, 319080, Note_on_c, 1, 69, 47
2, 319175, Note_on_c, 1, 69, 0
2, 319320, Note_on_c, 1, 67, 46
2, 319440, Note_on_c, 1, 67, 0
2, 319440, Note_on_c, 1, 76, 45
2, 319560, Note_on_c, 1, 76, 0
2, 319560, Note_on_c, 1, 67, 44
2, 319655, Note_on_c, 1, 67, 0
2, 319680, Note_on_c, 1, 77, 46
2, 320160, Note_on_c, 1, 77, 0
2, 320640, Note_on_c, 1, 69, 43
2, 320700, Note_on_c, 1, 69, 0
2, 320700, Note_on_c, 1, 70, 44
2, 320760, Note_on_c, 1, 70, 0
2, 320760, Note_on_c, 1, 69, 45
2, 320820, Note_on_c, 1, 69, 0
2, 320820, Note_on_c, 1, 70, 47
2, 320880, Note_on_c, 1, 70, 0
2, 320880, Note_on_c, 1, 69, 48
2, 320920, Note_on_c, 1, 69, 0
2, 320920, Note_on_c, 1, 70, 49
2, 320960, Note_on_c, 1, 70, 0
2, 320960, Note_on_c, 1, 69, 49
2, 321000, Note_on_c, 1, 69, 0
2, 321000, Note_on_c, 1, 67, 50
2, 321060, Note_on_c, 1, 67, 0
2, 321060, Note_on_c, 1, 65, 51
2, 321120, Note_on_c, 1, 65, 0
2, 321120, Note_on_c, 1, 72, 54
2, 321965, Note_on_c, 1, 72, 0
2, 322080, Note_on_c, 1, 76, 50
2, 322140, Note_on_c, 1, 76, 0
2, 322140, Note_on_c, 1, 77, 52
2, 322200, Note_on_c, 1, 77, 0
2, 322200, Note_on_c, 1, 76, 53
2, 322260, Note_on_c, 1, 76, 0
2, 322260, Note_on_c, 1, 77, 55
2, 322320, Note_on_c, 1, 77, 0
2, 322320, Note_on_c, 1, 76, 56
2, 322360, Note_on_c, 1, 76, 0
2, 322360, Note_on_c, 1, 77, 57
2, 322400, Note_on_c, 1, 77, 0
2, 322400, Note_on_c, 1, 76, 58
2, 322440, Note_on_c, 1, 76, 0
2, 322440, Note_on_c, 1, 74, 59
2, 322500, Note_on_c, 1, 72, 61
2, 322505, Note_on_c, 1, 74, 0
2, 322560, Note_on_c, 1, 77, 65
2, 322565, Note_on_c, 1, 72, 0
2, 323405, Note_on_c, 1, 77, 0
2, 323520, Note_on_c, 1, 81, 60
2, 323580, Note_on_c, 1, 81, 0
2, 323580, Note_on_c, 1, 82, 61
2, 323640, Note_on_c, 1, 82, 0
2, 323640, Note_on_c, 1, 81, 63
2, 323700, Note_on_c, 1, 81, 0
2, 323700, Note_on_c, 1, 82, 64
2, 323760, Note_on_c, 1, 82, 0
2, 323760, Note_on_c, 1, 81, 66
2, 323800, Note_on_c, 1, 81, 0
2, 323800, Note_on_c, 1, 82, 67
2, 323840, Note_on_c, 1, 82, 0
2, 323840, Note_on_c, 1, 81, 68
2, 323880, Note_on_c, 1, 81, 0
2, 323880, Note_on_c, 1, 79, 69
2, 323940, Note_on_c, 1, 79, 0
2, 323940, Note_on_c, 1, 77, 71
2, 324000, Note_on_c, 1, 77, 0
2, 324000, Note_on_c, 1, 84, 75
2, 324385, Note_on_c, 1, 84, 0
2, 324480, Note_on_c, 1, 84, 76
2, 324865, Note_on_c, 1, 84, 0
2, 324960, Note_on_c, 1, 88, 66
2, 325020, Note_on_c, 1, 88, 0
2, 325020, Note_on_c, 1, 89, 68
2, 325080, Note_on_c, 1, 89, 0
2, 325080, Note_on_c, 1, 88, 70
2, 325140, Note_on_c, 1, 88, 0
2, 325140, Note_on_c, 1, 89, 71
2, 325200, Note_on_c, 1, 89, 0
2, 325200, Note_on_c, 1, 88, 73
2, 325240, Note_on_c, 1, 88, 0
2, 325240, Note_on_c, 1, 89, 75
2, 325280, Note_on_c, 1, 89, 0
2, 325280, Note_on_c, 1, 88, 76
2, 325320, Note_on_c, 1, 88, 0
2, 325320, Note_on_c, 1, 86, 77
2, 325380, Note_on_c, 1, 86, 0
2, 325380, Note_on_c, 1, 84, 79
2, 325440, Note_on_c, 1, 84, 0
2, 325440, Note_on_c, 1, 89, 83
2, 325825, Note_on_c, 1, 89, 0
2, 325920, Note_on_c, 1, 81, 93
2, 326525, Note_on_c, 1, 81, 0
2, 326640, Note_on_c, 1, 73, 89
2, 326830, Note_on_c, 1, 73, 0
2, 326880, Note_on_c, 1, 74, 91
2, 327265, Note_on_c, 1, 74, 0
2, 327360, Note_on_c, 1, 77, 102
2, 327960, Note_on_c, 1, 77, 0
2, 328080, Note_on_c, 1, 69, 98
2, 328270, Note_on_c, 1, 69, 0
2, 328320, Note_on_c, 1, 70, 77
2, 328380, Note_on_c, 1, 70, 0
2, 328380, Note_on_c, 1, 72, 79
2, 328440, Note_on_c, 1, 72, 0
2, 328440, Note_on_c, 1, 70, 81
2, 328500, Note_on_c, 1, 70, 0
2, 328500, Note_on_c, 1, 72, 82
2, 328560, Note_on_c, 1, 72, 0
2, 328560, Note_on_c, 1, 70, 84
2, 328600, Note_on_c, 1, 70, 0
2, 328600, Note_on_c, 1, 72, 85
2, 328640, Note_on_c, 1, 72, 0
2, 328640, Note_on_c, 1, 70, 86
2, 328680, Note_on_c, 1, 70, 0
2, 328680, Note_on_c, 1, 69, 87
2, 328740, Note_on_c, 1, 69, 0
2, 328740, Note_on_c, 1, 67, 89
2, 328800, Note_on_c, 1, 67, 0
2, 328800, Note_on_c, 1, 72, 93
2, 329185, Note_on_c, 1, 72, 0
2, 329280, Note_on_c, 1, 76, 101
2, 329665, Note_on_c, 1, 76, 0
2, 329760, Note_on_c, 1, 77, 109
2, 330145, Note_on_c, 1, 77, 0
2, 330240, Note_on_c, 1, 65, 103
2, 330625, Note_on_c, 1, 65, 0
2, 331200, Control_c, 1, 64, 0
2, 331200, Note_on_c, 1, 70, 40
2, 331970, Note_on_c, 1, 70, 0
2, 332160, Note_on_c, 1, 74, 43
2, 332460, Note_on_c, 1, 75, 43
2, 332475, Note_on_c, 1, 74, 0
2, 332520, Note_on_c, 1, 75, 0
2, 332520, Note_on_c, 1, 74, 43
2, 332580, Note_on_c, 1, 74, 0
2, 332580, Note_on_c, 1, 72, 44
2, 332640, Note_on_c, 1, 72, 0
2, 332640, Note_on_c, 1, 74, 45
2, 332880, Note_on_c, 1, 74, 0
2, 332880, Note_on_c, 1, 75, 48
2, 333070, Note_on_c, 1, 75, 0
2, 333120, Note_on_c, 1, 76, 51
2, 333840, Note_on_c, 1, 76, 0
2, 333840, Note_on_c, 1, 77, 42
2, 334080, Note_on_c, 1, 77, 0
2, 334080, Note_on_c, 1, 72, 39
2, 334465, Note_on_c, 1, 72, 0
2, 335040, Note_on_c, 1, 75, 44
2, 335340, Note_on_c, 1, 75, 0
2, 335340, Note_on_c, 1, 77, 45
2, 335400, Note_on_c, 1, 77, 0
2, 335400, Note_on_c, 1, 75, 45
2, 335460, Note_on_c, 1, 75, 0
2, 335460, Note_on_c, 1, 74, 46
2, 335520, Note_on_c, 1, 74, 0
2, 335520, Note_on_c, 1, 75, 46
2, 335760, Note_on_c, 1, 75, 0
2, 335760, Note_on_c, 1, 77, 47
2, 335950, Note_on_c, 1, 77, 0
2, 336000, Note_on_c, 1, 79, 48
2, 336300, Note_on_c, 1, 81, 50
2, 336305, Note_on_c, 1, 79, 0
2, 336360, Note_on_c, 1, 81, 0
2, 336360, Note_on_c, 1, 79, 50
2, 336420, Note_on_c, 1, 79, 0
2, 336420, Note_on_c, 1, 77, 50
2, 336480, Note_on_c, 1, 77, 0
2, 336480, Note_on_c, 1, 79, 51
2, 336720, Note_on_c, 1, 79, 0
2, 336720, Note_on_c, 1, 81, 52
2, 336910, Note_on_c, 1, 81, 0
2, 336960, Note_on_c, 1, 81, 57
2, 337680, Note_on_c, 1, 81, 0
2, 337680, Note_on_c, 1, 82, 47
2, 337920, Note_on_c, 1, 82, 0
2, 337920, Note_on_c, 1, 77, 42
2, 338305, Note_on_c, 1, 77, 0
2, 338880, Note_on_c, 1, 79, 57
2, 339600, Note_on_c, 1, 79, 0
2, 339600, Note_on_c, 1, 80, 53
2, 339720, Note_on_c, 1, 80, 0
2, 339720, Note_on_c, 1, 79, 53
2, 339840, Note_on_c, 1, 79, 0
2, 339840, Note_on_c, 1, 77, 53
2, 340080, Note_on_c, 1, 77, 0
2, 340080, Note_on_c, 1, 75, 51
2, 340320, Note_on_c, 1, 75, 0
2, 340320, Note_on_c, 1, 74, 48
2, 340560, Note_on_c, 1, 74, 0
2, 340560, Note_on_c, 1, 72, 46
2, 340750, Note_on_c, 1, 72, 0
2, 340800, Note_on_c, 1, 76, 51
2, 341040, Note_on_c, 1, 76, 0
2, 341040, Note_on_c, 1, 77, 53
2, 341520, Note_on_c, 1, 77, 0
2, 341520, Note_on_c, 1, 79, 50
2, 341640, Note_on_c, 1, 79, 0
2, 341640, Note_on_c, 1, 77, 49
2, 341760, Note_on_c, 1, 77, 0
2, 341760, Note_on_c, 1, 75, 48
2, 342000, Note_on_c, 1, 75, 0
2, 342000, Note_on_c, 1, 74, 46
2, 342240, Note_on_c, 1, 74, 0
2, 342240, Note_on_c, 1, 72, 44
2, 342480, Note_on_c, 1, 72, 0
2, 342480, Note_on_c, 1, 70, 42
2, 342670, Note_on_c, 1, 70, 0
2, 342720, Note_on_c, 1, 77, 57
2, 342960, Note_on_c, 1, 77, 0
2, 342960, Note_on_c, 1, 75, 50
2, 343440, Note_on_c, 1, 75, 0
2, 343440, Note_on_c, 1, 72, 44
2, 343630, Note_on_c, 1, 72, 0
2, 343680, Note_on_c, 1, 75, 55
2, 343920, Note_on_c, 1, 75, 0
2, 343920, Note_on_c, 1, 74, 47
2, 344400, Note_on_c, 1, 74, 0
2, 344400, Note_on_c, 1, 70, 41
2, 344590, Note_on_c, 1, 70, 0
2, 344640, Note_on_c, 1, 74, 47
2, 345360, Note_on_c, 1, 74, 0
2, 345360, Note_on_c, 1, 75, 42
2, 345480, Note_on_c, 1, 75, 0
2, 345480, Note_on_c, 1, 74, 42
2, 345600, Note_on_c, 1, 74, 0
2, 345600, Note_on_c, 1, 72, 41
2, 345790, Note_on_c, 1, 72, 0
2, 345840, Note_on_c, 1, 77, 41
2, 346080, Note_on_c, 1, 77, 0
2, 346080, Note_on_c, 1, 75, 38
2, 346320, Note_on_c, 1, 75, 0
2, 346320, Note_on_c, 1, 72, 34
2, 346510, Note_on_c, 1, 72, 0
2, 346560, Note_on_c, 1, 70, 36
2, 346860, Note_on_c, 1, 72, 38
2, 346880, Note_on_c, 1, 70, 0
2, 346920, Note_on_c, 1, 72, 0
2, 346920, Note_on_c, 1, 70, 39
2, 346980, Note_on_c, 1, 70, 0
2, 346980, Note_on_c, 1, 69, 39
2, 347040, Note_on_c, 1, 69, 0
2, 347040, Note_on_c, 1, 70, 39
2, 347280, Note_on_c, 1, 70, 0
2, 347280, Note_on_c, 1, 72, 41
2, 347470, Note_on_c, 1, 72, 0
2, 347520, Note_on_c, 1, 73, 42
2, 347820, Note_on_c, 1, 75, 44
2, 347825, Note_on_c, 1, 73, 0
2, 347880, Note_on_c, 1, 73, 45
2, 347900, Note_on_c, 1, 75, 0
2, 347940, Note_on_c, 1, 73, 0
2, 347940, Note_on_c, 1, 72, 45
2, 348000, Note_on_c, 1, 72, 0
2, 348000, Note_on_c, 1, 73, 45
2, 348240, Note_on_c, 1, 73, 0
2, 348240, Note_on_c, 1, 75, 47
2, 348430, Note_on_c, 1, 75, 0
2, 348480, Note_on_c, 1, 76, 50
2, 349200, Note_on_c, 1, 76, 0
2, 349200, Note_on_c, 1, 77, 45
2, 349440, Note_on_c, 1, 77, 0
2, 349440, Note_on_c, 1, 72, 40
2, 349825, Note_on_c, 1, 72, 0
2, 350400, Note_on_c, 1, 75, 50
2, 350700, Note_on_c, 1, 75, 0
2, 350700, Note_on_c, 1, 77, 51
2, 350760, Note_on_c, 1, 77, 0
2, 350760, Note_on_c, 1, 75, 52
2, 350820, Note_on_c, 1, 75, 0
2, 350820, Note_on_c, 1, 74, 52
2, 350880, Note_on_c, 1, 74, 0
2, 350880, Note_on_c, 1, 75, 53
2, 351120, Note_on_c, 1, 75, 0
2, 351120, Note_on_c, 1, 77, 54
2, 351310, Note_on_c, 1, 77, 0
2, 351360, Note_on_c, 1, 78, 56
2, 351660, Note_on_c, 1, 80, 58
2, 351665, Note_on_c, 1, 78, 0
2, 351720, Note_on_c, 1, 80, 0
2, 351720, Note_on_c, 1, 78, 58
2, 351780, Note_on_c, 1, 78, 0
2, 351780, Note_on_c, 1, 77, 58
2, 351840, Note_on_c, 1, 77, 0
2, 351840, Note_on_c, 1, 78, 59
2, 352080, Note_on_c, 1, 78, 0
2, 352080, Note_on_c, 1, 80, 60
2, 352270, Note_on_c, 1, 80, 0
2, 352320, Note_on_c, 1, 81, 67
2, 353040, Note_on_c, 1, 81, 0
2, 353040, Note_on_c, 1, 82, 59
2, 353280, Note_on_c, 1, 82, 0
2, 353280, Note_on_c, 1, 77, 54
2, 353665, Note_on_c, 1, 77, 0
2, 354240, Note_on_c, 1, 76, 68
2, 354300, Note_on_c, 1, 85, 77
2, 354360, Note_on_c, 1, 76, 0
2, 355430, Note_on_c, 1, 85, 0
2, 355440, Note_on_c, 1, 84, 63
2, 355560, Note_on_c, 1, 84, 0
2, 355560, Note_on_c, 1, 82, 62
2, 355655, Note_on_c, 1, 82, 0
2, 355680, Note_on_c, 1, 80, 60
2, 355800, Note_on_c, 1, 80, 0
2, 355800, Note_on_c, 1, 79, 59
2, 355895, Note_on_c, 1, 79, 0
2, 355920, Note_on_c, 1, 77, 58
2, 356040, Note_on_c, 1, 77, 0
2, 356040, Note_on_c, 1, 76, 56
2, 356135, Note_on_c, 1, 76, 0
2, 356160, Note_on_c, 1, 79, 61
2, 356640, Note_on_c, 1, 79, 0
2, 356640, Note_on_c, 1, 77, 57
2, 357360, Note_on_c, 1, 75, 52
2, 357365, Note_on_c, 1, 77, 0
2, 357840, Note_on_c, 1, 75, 0
2, 357840, Note_on_c, 1, 73, 48
2, 358080, Note_on_c, 1, 73, 0
2, 358080, Note_on_c, 1, 72, 46
2, 358320, Note_on_c, 1, 72, 0
2, 358380, Note_on_c, 1, 73, 43
2, 358440, Note_on_c, 1, 73, 0
2, 358440, Note_on_c, 1, 72, 43
2, 358500, Note_on_c, 1, 72, 0
2, 358500, Note_on_c, 1, 70, 44
2, 358560, Note_on_c, 1, 70, 0
2, 358560, Note_on_c, 1, 72, 45
2, 358800, Note_on_c, 1, 72, 0
2, 358800, Note_on_c, 1, 73, 48
2, 359040, Note_on_c, 1, 73, 0
2, 359040, Note_on_c, 1, 65, 51
2, 359520, Note_on_c, 1, 65, 0
2, 359520, Note_on_c, 1, 68, 45
2, 359760, Note_on_c, 1, 68, 0
2, 359760, Note_on_c, 1, 67, 42
2, 360000, Note_on_c, 1, 67, 0
2, 360000, Note_on_c, 1, 65, 39
2, 360720, Note_on_c, 1, 65, 0
2, 361920, Note_on_c, 1, 70, 43
2, 362305, Note_on_c, 1, 70, 0
2, 362880, Note_on_c, 1, 67, 46
2, 363265, Note_on_c, 1, 67, 0
2, 363360, Note_on_c, 1, 64, 49
2, 363745, Note_on_c, 1, 64, 0
2, 363840, Note_on_c, 1, 72, 52
2, 364200, Note_on_c, 1, 72, 0
2, 364200, Note_on_c, 1, 69, 47
2, 364320, Note_on_c, 1, 69, 0
2, 364320, Note_on_c, 1, 72, 44
2, 364705, Note_on_c, 1, 72, 0
2, 365760, Note_on_c, 1, 70, 50
2, 366145, Note_on_c, 1, 70, 0
2, 366720, Note_on_c, 1, 67, 53
2, 367105, Note_on_c, 1, 67, 0
2, 367200, Note_on_c, 1, 64, 56
2, 367585, Note_on_c, 1, 64, 0
2, 367680, Note_on_c, 1, 72, 60
2, 368040, Note_on_c, 1, 72, 0
2, 368040, Note_on_c, 1, 69, 52
2, 368160, Note_on_c, 1, 69, 0
2, 368160, Note_on_c, 1, 72, 49
2, 368545, Note_on_c, 1, 72, 0
2, 368640, Note_on_c, 1, 81, 61
2, 368880, Note_on_c, 1, 81, 0
2, 368880, Note_on_c, 1, 79, 55
2, 369120, Note_on_c, 1, 79, 0
2, 369120, Note_on_c, 1, 77, 53
2, 369360, Note_on_c, 1, 77, 0
2, 369360, Note_on_c, 1, 76, 50
2, 369550, Note_on_c, 1, 76, 0
2, 369600, Note_on_c, 1, 77, 58
2, 369840, Note_on_c, 1, 77, 0
2, 369840, Note_on_c, 1, 76, 52
2, 370080, Note_on_c, 1, 76, 0
2, 370080, Note_on_c, 1, 74, 49
2, 370320, Note_on_c, 1, 74, 0
2, 370320, Note_on_c, 1, 73, 47
2, 370510, Note_on_c, 1, 73, 0
2, 370560, Note_on_c, 1, 74, 54
2, 370800, Note_on_c, 1, 74, 0
2, 370800, Note_on_c, 1, 72, 48
2, 371040, Note_on_c, 1, 72, 0
2, 371040, Note_on_c, 1, 70, 45
2, 371280, Note_on_c, 1, 70, 0
2, 371280, Note_on_c, 1, 69, 42
2, 371470, Note_on_c, 1, 69, 0
2, 371520, Note_on_c, 1, 69, 50
2, 372480, Note_on_c, 1, 69, 0
2, 372480, Note_on_c, 1, 70, 37
2, 372670, Note_on_c, 1, 70, 0
2, 372720, Note_on_c, 1, 70, 37
2, 372760, Note_on_c, 1, 70, 0
2, 372760, Note_on_c, 1, 72, 38
2, 372800, Note_on_c, 1, 72, 0
2, 372800, Note_on_c, 1, 70, 38
2, 372840, Note_on_c, 1, 70, 0
2, 372840, Note_on_c, 1, 69, 39
2, 372900, Note_on_c, 1, 69, 0
2, 372900, Note_on_c, 1, 70, 40
2, 372960, Note_on_c, 1, 70, 0
2, 372960, Note_on_c, 1, 72, 41
2, 373200, Note_on_c, 1, 72, 0
2, 373200, Note_on_c, 1, 74, 44
2, 373390, Note_on_c, 1, 74, 0
2, 373440, Note_on_c, 1, 72, 49
2, 373600, Note_on_c, 1, 72, 0
2, 373600, Note_on_c, 1, 70, 47
2, 373760, Note_on_c, 1, 70, 0
2, 373760, Note_on_c, 1, 69, 44
2, 373920, Note_on_c, 1, 69, 0
2, 373920, Note_on_c, 1, 67, 42
2, 374080, Note_on_c, 1, 67, 0
2, 374080, Note_on_c, 1, 70, 40
2, 374240, Note_on_c, 1, 70, 0
2, 374240, Note_on_c, 1, 74, 38
2, 374370, Note_on_c, 1, 74, 0
2, 374400, Note_on_c, 1, 65, 40
2, 374880, Note_on_c, 1, 65, 0
2, 374880, Note_on_c, 1, 67, 36
2, 375265, Note_on_c, 1, 67, 0
2, 375360, Note_on_c, 1, 67, 43
2, 375720, Note_on_c, 1, 67, 0
2, 375720, Note_on_c, 1, 68, 39
2, 375840, Note_on_c, 1, 68, 0
2, 375840, Note_on_c, 1, 69, 34
2, 376225, Note_on_c, 1, 69, 0
2, 377280, Note_on_c, 1, 70, 42
2, 377665, Note_on_c, 1, 70, 0
2, 378240, Note_on_c, 1, 67, 44
2, 378625, Note_on_c, 1, 67, 0
2, 378720, Note_on_c, 1, 64, 47
2, 379105, Note_on_c, 1, 64, 0
2, 379200, Note_on_c, 1, 72, 50
2, 379560, Note_on_c, 1, 72, 0
2, 379560, Note_on_c, 1, 69, 45
2, 379680, Note_on_c, 1, 69, 0
2, 379680, Note_on_c, 1, 72, 40
2, 380065, Note_on_c, 1, 72, 0
2, 381120, Note_on_c, 1, 70, 45
2, 381480, Note_on_c, 1, 70, 0
2, 382080, Note_on_c, 1, 67, 48
2, 382465, Note_on_c, 1, 67, 0
2, 382560, Note_on_c, 1, 64, 51
2, 382945, Note_on_c, 1, 64, 0
2, 383040, Note_on_c, 1, 72, 55
2, 383400, Note_on_c, 1, 72, 0
2, 383400, Note_on_c, 1, 77, 47
2, 383520, Note_on_c, 1, 77, 0
2, 383520, Note_on_c, 1, 72, 42
2, 383905, Note_on_c, 1, 72, 0
2, 384000, Note_on_c, 1, 81, 56
2, 384240, Note_on_c, 1, 81, 0
2, 384240, Note_on_c, 1, 79, 49
2, 384480, Note_on_c, 1, 79, 0
2, 384480, Note_on_c, 1, 77, 46
2, 384720, Note_on_c, 1, 77, 0
2, 384720, Note_on_c, 1, 76, 44
2, 384910, Note_on_c, 1, 76, 0
2, 384960, Note_on_c, 1, 77, 55
2, 385200, Note_on_c, 1, 77, 0
2, 385200, Note_on_c, 1, 76, 48
2, 385440, Note_on_c, 1, 76, 0
2, 385440, Note_on_c, 1, 74, 45
2, 385680, Note_on_c, 1, 74, 0
2, 385680, Note_on_c, 1, 73, 43
2, 385870, Note_on_c, 1, 73, 0
2, 385920, Note_on_c, 1, 74, 50
2, 386160, Note_on_c, 1, 74, 0
2, 386160, Note_on_c, 1, 72, 45
2, 386400, Note_on_c, 1, 72, 0
2, 386400, Note_on_c, 1, 70, 42
2, 386640, Note_on_c, 1, 70, 0
2, 386640, Note_on_c, 1, 69, 39
2, 386830, Note_on_c, 1, 69, 0
2, 386880, Note_on_c, 1, 69, 43
2, 387840, Note_on_c, 1, 69, 0
2, 387840, Note_on_c, 1, 70, 34
2, 388030, Note_on_c, 1, 70, 0
2, 388080, Note_on_c, 1, 70, 35
2, 388120, Note_on_c, 1, 70, 0
2, 388120, Note_on_c, 1, 72, 36
2, 388160, Note_on_c, 1, 72, 0
2, 388160, Note_on_c, 1, 70, 36
2, 388200, Note_on_c, 1, 70, 0
2, 388200, Note_on_c, 1, 69, 37
2, 388260, Note_on_c, 1, 69, 0
2, 388260, Note_on_c, 1, 70, 37
2, 388320, Note_on_c, 1, 70, 0
2, 388320, Note_on_c, 1, 72, 38
2, 388560, Note_on_c, 1, 72, 0
2, 388560, Note_on_c, 1, 74, 43
2, 388750, Note_on_c, 1, 74, 0
2, 388800, Note_on_c, 1, 72, 48
2, 388960, Note_on_c, 1, 72, 0
2, 388960, Note_on_c, 1, 70, 46
2, 389120, Note_on_c, 1, 70, 0
2, 389120, Note_on_c, 1, 69, 44
2, 389280, Note_on_c, 1, 69, 0
2, 389280, Note_on_c, 1, 67, 42
2, 389440, Note_on_c, 1, 67, 0
2, 389440, Note_on_c, 1, 70, 40
2, 389600, Note_on_c, 1, 70, 0
2, 389600, Note_on_c, 1, 74, 37
2, 389730, Note_on_c, 1, 74, 0
2, 389760, Note_on_c, 1, 65, 35
2, 390240, Note_on_c, 1, 65, 0
2, 390240, Note_on_c, 1, 64, 28
2, 390625, Note_on_c, 1, 64, 0
2, 390720, Note_on_c, 1, 69, 56
2, 390780, Note_on_c, 1, 81, 60
2, 390840, Note_on_c, 1, 69, 0
2, 391380, Note_on_c, 1, 77, 55
2, 391385, Note_on_c, 1, 81, 0
2, 391440, Note_on_c, 1, 77, 0
2, 391440, Note_on_c, 1, 77, 57
2, 391480, Note_on_c, 1, 77, 0
2, 391480, Note_on_c, 1, 79, 58
2, 391520, Note_on_c, 1, 79, 0
2, 391520, Note_on_c, 1, 77, 59
2, 391560, Note_on_c, 1, 77, 0
2, 391560, Note_on_c, 1, 76, 60
2, 391620, Note_on_c, 1, 76, 0
2, 391620, Note_on_c, 1, 77, 62
2, 391680, Note_on_c, 1, 77, 0
2, 391680, Note_on_c, 1, 70, 64
2, 391740, Note_on_c, 1, 82, 66
2, 391800, Note_on_c, 1, 70, 0
2, 392340, Note_on_c, 1, 79, 61
2, 392345, Note_on_c, 1, 82, 0
2, 392400, Note_on_c, 1, 79, 0
2, 392400, Note_on_c, 1, 79, 63
2, 392440, Note_on_c, 1, 79, 0
2, 392440, Note_on_c, 1, 81, 65
2, 392480, Note_on_c, 1, 81, 0
2, 392480, Note_on_c, 1, 79, 66
2, 392520, Note_on_c, 1, 79, 0
2, 392520, Note_on_c, 1, 78, 67
2, 392580, Note_on_c, 1, 78, 0
2, 392580, Note_on_c, 1, 79, 69
2, 392640, Note_on_c, 1, 79, 0
2, 392640, Note_on_c, 1, 84, 73
2, 393000, Note_on_c, 1, 84, 0
2, 393000, Note_on_c, 1, 81, 68
2, 393120, Note_on_c, 1, 81, 0
2, 393120, Note_on_c, 1, 77, 67
2, 393840, Note_on_c, 1, 77, 0
2, 393840, Note_on_c, 1, 75, 65
2, 394080, Note_on_c, 1, 75, 0
2, 394080, Note_on_c, 1, 74, 63
2, 394320, Note_on_c, 1, 74, 0
2, 394320, Note_on_c, 1, 73, 62
2, 394560, Note_on_c, 1, 73, 0
2, 394560, Note_on_c, 1, 74, 61
2, 394750, Note_on_c, 1, 74, 0
2, 394800, Note_on_c, 1, 76, 59
2, 394895, Note_on_c, 1, 76, 0
2, 394920, Note_on_c, 1, 78, 59
2, 395015, Note_on_c, 1, 78, 0
2, 395040, Note_on_c, 1, 79, 58
2, 395135, Note_on_c, 1, 79, 0
2, 395160, Note_on_c, 1, 81, 57
2, 395255, Note_on_c, 1, 81, 0
2, 395280, Note_on_c, 1, 82, 56
2, 395375, Note_on_c, 1, 82, 0
2, 395400, Note_on_c, 1, 85, 55
2, 395520, Note_on_c, 1, 85, 0
2, 395520, Note_on_c, 1, 86, 54
2, 395615, Note_on_c, 1, 86, 0
2, 395640, Note_on_c, 1, 84, 53
2, 395760, Note_on_c, 1, 84, 0
2, 395760, Note_on_c, 1, 82, 52
2, 395855, Note_on_c, 1, 82, 0
2, 395880, Note_on_c, 1, 81, 52
2, 395975, Note_on_c, 1, 81, 0
2, 396000, Note_on_c, 1, 79, 51
2, 396095, Note_on_c, 1, 79, 0
2, 396120, Note_on_c, 1, 77, 50
2, 396215, Note_on_c, 1, 77, 0
2, 396240, Note_on_c, 1, 76, 49
2, 396335, Note_on_c, 1, 76, 0
2, 396360, Note_on_c, 1, 74, 48
2, 396455, Note_on_c, 1, 74, 0
2, 396480, Note_on_c, 1, 72, 50
2, 396840, Note_on_c, 1, 72, 0
2, 396960, Note_on_c, 1, 84, 70
2, 397600, Note_on_c, 1, 81, 62
2, 397610, Note_on_c, 1, 84, 0
2, 397760, Note_on_c, 1, 81, 0
2, 397760, Note_on_c, 1, 77, 60
2, 397920, Note_on_c, 1, 77, 0
2, 397920, Note_on_c, 1, 72, 58
2, 398040, Note_on_c, 1, 72, 0
2, 398040, Note_on_c, 1, 69, 56
2, 398160, Note_on_c, 1, 77, 55
2, 398165, Note_on_c, 1, 69, 0
2, 398280, Note_on_c, 1, 77, 0
2, 398340, Note_on_c, 1, 65, 59
2, 398400, Note_on_c, 1, 65, 0
2, 398400, Note_on_c, 1, 67, 58
2, 398440, Note_on_c, 1, 67, 0
2, 400320, Note_on_c, 1, 65, 42
2, 400705, Note_on_c, 1, 65, 0
2, 400920, Note_on_c, 1, 77, 42
2, 401015, Note_on_c, 1, 77, 0
2, 401040, Note_on_c, 1, 77, 47
2, 401080, Note_on_c, 1, 77, 0
2, 401080, Note_on_c, 1, 79, 48
2, 401120, Note_on_c, 1, 79, 0
2, 401120, Note_on_c, 1, 77, 50
2, 401160, Note_on_c, 1, 77, 0
2, 401160, Note_on_c, 1, 76, 51
2, 401220, Note_on_c, 1, 76, 0
2, 401220, Note_on_c, 1, 77, 53
2, 401280, Note_on_c, 1, 77, 0
2, 401280, Note_on_c, 1, 84, 56
2, 401520, Note_on_c, 1, 84, 0
2, 401520, Note_on_c, 1, 82, 51
2, 401760, Note_on_c, 1, 82, 0
2, 401760, Note_on_c, 1, 81, 49
2, 402000, Note_on_c, 1, 81, 0
2, 402000, Note_on_c, 1, 79, 47
2, 402190, Note_on_c, 1, 79, 0
2, 402240, Note_on_c, 1, 79, 45
2, 402480, Note_on_c, 1, 79, 0
2, 402480, Note_on_c, 1, 77, 40
2, 402670, Note_on_c, 1, 77, 0
2, 402840, Note_on_c, 1, 77, 45
2, 402935, Note_on_c, 1, 77, 0
2, 402960, Note_on_c, 1, 77, 47
2, 403000, Note_on_c, 1, 77, 0
2, 403000, Note_on_c, 1, 79, 47
2, 403040, Note_on_c, 1, 79, 0
2, 403040, Note_on_c, 1, 77, 48
2, 403080, Note_on_c, 1, 77, 0
2, 403080, Note_on_c, 1, 76, 49
2, 403140, Note_on_c, 1, 76, 0
2, 403140, Note_on_c, 1, 77, 50
2, 403200, Note_on_c, 1, 77, 0
2, 403200, Note_on_c, 1, 84, 52
2, 403440, Note_on_c, 1, 84, 0
2, 403440, Note_on_c, 1, 82, 50
2, 403680, Note_on_c, 1, 82, 0
2, 403680, Note_on_c, 1, 81, 49
2, 403920, Note_on_c, 1, 81, 0
2, 403920, Note_on_c, 1, 79, 47
2, 404110, Note_on_c, 1, 79, 0
2, 404160, Note_on_c, 1, 79, 46
2, 404400, Note_on_c, 1, 79, 0
2, 404400, Note_on_c, 1, 77, 43
2, 404595, Note_on_c, 1, 77, 0
2, 404640, Note_on_c, 1, 77, 45
2, 405025, Note_on_c, 1, 77, 0
2, 405120, Note_on_c, 1, 77, 43
2, 405505, Note_on_c, 1, 77, 0
2, 405600, Note_on_c, 1, 77, 41
2, 405985, Note_on_c, 1, 77, 0
2, 406080, Note_on_c, 1, 77, 38
2, 406805, Note_on_c, 1, 77, 0
2, 407040, Note_on_c, 1, 76, 35
2, 407160, Note_on_c, 1, 76, 0
2, 407160, Note_on_c, 1, 77, 37
2, 407280, Note_on_c, 1, 77, 0
2, 407280, Note_on_c, 1, 79, 39
2, 407400, Note_on_c, 1, 79, 0
2, 407400, Note_on_c, 1, 77, 39
2, 407495, Note_on_c, 1, 77, 0
2, 407520, Note_on_c, 1, 77, 37
2, 407640, Note_on_c, 1, 77, 0
2, 407640, Note_on_c, 1, 75, 36
2, 407760, Note_on_c, 1, 75, 0
2, 407760, Note_on_c, 1, 74, 34
2, 407880, Note_on_c, 1, 74, 0
2, 407880, Note_on_c, 1, 72, 33
2, 407975, Note_on_c, 1, 72, 0
2, 408000, Note_on_c, 1, 70, 32
2, 408300, Note_on_c, 1, 72, 34
2, 408320, Note_on_c, 1, 70, 0
2, 408360, Note_on_c, 1, 72, 0
2, 408360, Note_on_c, 1, 70, 34
2, 408420, Note_on_c, 1, 70, 0
2, 408420, Note_on_c, 1, 69, 35
2, 408480, Note_on_c, 1, 69, 0
2, 408480, Note_on_c, 1, 70, 35
2, 408720, Note_on_c, 1, 70, 0
2, 408720, Note_on_c, 1, 72, 36
2, 408910, Note_on_c, 1, 72, 0
2, 408960, Note_on_c, 1, 74, 38
2, 409260, Note_on_c, 1, 75, 40
2, 409275, Note_on_c, 1, 74, 0
2, 409320, Note_on_c, 1, 75, 0
2, 409320, Note_on_c, 1, 74, 40
2, 409380, Note_on_c, 1, 74, 0
2, 409380, Note_on_c, 1, 72, 40
2, 409440, Note_on_c, 1, 72, 0
2, 409440, Note_on_c, 1, 74, 41
2, 409680, Note_on_c, 1, 74, 0
2, 409680, Note_on_c, 1, 75, 42
2, 409870, Note_on_c, 1, 75, 0
2, 409920, Note_on_c, 1, 76, 47
2, 410640, Note_on_c, 1, 76, 0
2, 410640, Note_on_c, 1, 77, 41
2, 410880, Note_on_c, 1, 77, 0
2, 410880, Note_on_c, 1, 72, 37
2, 411265, Note_on_c, 1, 72, 0
2, 411840, Note_on_c, 1, 75, 40
2, 412140, Note_on_c, 1, 75, 0
2, 412140, Note_on_c, 1, 77, 42
2, 412200, Note_on_c, 1, 77, 0
2, 412200, Note_on_c, 1, 75, 43
2, 412260, Note_on_c, 1, 75, 0
2, 412260, Note_on_c, 1, 74, 44
2, 412320, Note_on_c, 1, 74, 0
2, 412320, Note_on_c, 1, 75, 44
2, 412560, Note_on_c, 1, 75, 0
2, 412560, Note_on_c, 1, 77, 47
2, 412750, Note_on_c, 1, 77, 0
2, 412800, Note_on_c, 1, 79, 49
2, 413100, Note_on_c, 1, 81, 52
2, 413105, Note_on_c, 1, 79, 0
2, 413160, Note_on_c, 1, 81, 0
2, 413160, Note_on_c, 1, 79, 53
2, 413220, Note_on_c, 1, 79, 0
2, 413220, Note_on_c, 1, 77, 53
2, 413280, Note_on_c, 1, 77, 0
2, 413280, Note_on_c, 1, 79, 54
2, 413520, Note_on_c, 1, 79, 0
2, 413520, Note_on_c, 1, 81, 56
2, 413710, Note_on_c, 1, 81, 0
2, 413760, Note_on_c, 1, 81, 61
2, 414480, Note_on_c, 1, 81, 0
2, 414480, Note_on_c, 1, 82, 53
2, 414720, Note_on_c, 1, 82, 0
2, 414720, Note_on_c, 1, 77, 49
2, 415105, Note_on_c, 1, 77, 0
2, 415680, Note_on_c, 1, 78, 55
2, 415800, Note_on_c, 1, 78, 0
2, 415800, Note_on_c, 1, 79, 59
2, 416400, Note_on_c, 1, 80, 54
2, 416415, Note_on_c, 1, 79, 0
2, 416520, Note_on_c, 1, 80, 0
2, 416520, Note_on_c, 1, 79, 52
2, 416640, Note_on_c, 1, 79, 0
2, 416640, Note_on_c, 1, 77, 52
2, 416795, Note_on_c, 1, 77, 0
2, 416880, Note_on_c, 1, 75, 50
2, 417035, Note_on_c, 1, 75, 0
2, 417120, Note_on_c, 1, 74, 49
2, 417275, Note_on_c, 1, 74, 0
2, 417360, Note_on_c, 1, 72, 47
2, 417515, Note_on_c, 1, 72, 0
2, 417600, Note_on_c, 1, 79, 50
2, 417720, Note_on_c, 1, 79, 0
2, 417720, Note_on_c, 1, 77, 53
2, 418320, Note_on_c, 1, 79, 51
2, 418335, Note_on_c, 1, 77, 0
2, 418440, Note_on_c, 1, 79, 0
2, 418440, Note_on_c, 1, 77, 50
2, 418560, Note_on_c, 1, 77, 0
2, 418560, Note_on_c, 1, 77, 49
2, 418680, Note_on_c, 1, 75, 49
2, 418685, Note_on_c, 1, 77, 0
2, 418770, Note_on_c, 1, 75, 0
2, 418800, Note_on_c, 1, 75, 48
2, 418920, Note_on_c, 1, 74, 47
2, 418925, Note_on_c, 1, 75, 0
2, 419015, Note_on_c, 1, 74, 0
2, 419040, Note_on_c, 1, 74, 46
2, 419160, Note_on_c, 1, 74, 0
2, 419160, Note_on_c, 1, 72, 45
2, 419255, Note_on_c, 1, 72, 0
2, 419280, Note_on_c, 1, 72, 45
2, 419400, Note_on_c, 1, 72, 0
2, 419400, Note_on_c, 1, 70, 44
2, 419505, Note_on_c, 1, 70, 0
2, 419520, Note_on_c, 1, 77, 45
2, 419600, Note_on_c, 1, 77, 0
2, 419640, Note_on_c, 1, 76, 48
2, 419720, Note_on_c, 1, 76, 0
2, 419760, Note_on_c, 1, 75, 59
2, 420240, Note_on_c, 1, 75, 0
2, 420240, Note_on_c, 1, 72, 44
2, 420430, Note_on_c, 1, 72, 0
2, 420480, Note_on_c, 1, 75, 43
2, 420560, Note_on_c, 1, 75, 0
2, 420600, Note_on_c, 1, 73, 49
2, 420680, Note_on_c, 1, 73, 0
2, 420720, Note_on_c, 1, 74, 56
2, 421200, Note_on_c, 1, 74, 0
2, 421200, Note_on_c, 1, 70, 42
2, 421390, Note_on_c, 1, 70, 0
2, 421440, Note_on_c, 1, 74, 47
2, 422160, Note_on_c, 1, 74, 0
2, 422160, Note_on_c, 1, 75, 40
2, 422280, Note_on_c, 1, 75, 0
2, 422280, Note_on_c, 1, 74, 39
2, 422400, Note_on_c, 1, 74, 0
2, 422400, Note_on_c, 1, 72, 38
2, 422530, Note_on_c, 1, 72, 0
2, 422560, Note_on_c, 1, 77, 40
2, 422690, Note_on_c, 1, 77, 0
2, 422720, Note_on_c, 1, 76, 42
2, 422850, Note_on_c, 1, 76, 0
2, 422880, Note_on_c, 1, 75, 44
2, 423000, Note_on_c, 1, 75, 0
2, 423000, Note_on_c, 1, 74, 43
2, 423120, Note_on_c, 1, 75, 40
2, 423125, Note_on_c, 1, 74, 0
2, 423240, Note_on_c, 1, 72, 36
2, 423245, Note_on_c, 1, 75, 0
2, 423335, Note_on_c, 1, 72, 0
2, 423360, Note_on_c, 1, 70, 36
2, 423660, Note_on_c, 1, 72, 38
2, 423680, Note_on_c, 1, 70, 0
2, 423720, Note_on_c, 1, 72, 0
2, 423720, Note_on_c, 1, 70, 39
2, 423780, Note_on_c, 1, 70, 0
2, 423780, Note_on_c, 1, 69, 39
2, 423840, Note_on_c, 1, 69, 0
2, 423840, Note_on_c, 1, 70, 40
2, 424080, Note_on_c, 1, 70, 0
2, 424080, Note_on_c, 1, 72, 42
2, 424270, Note_on_c, 1, 72, 0
2, 424320, Note_on_c, 1, 73, 44
2, 424620, Note_on_c, 1, 75, 47
2, 424625, Note_on_c, 1, 73, 0
2, 424680, Note_on_c, 1, 73, 48
2, 424700, Note_on_c, 1, 75, 0
2, 424740, Note_on_c, 1, 73, 0
2, 424740, Note_on_c, 1, 72, 49
2, 424800, Note_on_c, 1, 72, 0
2, 424800, Note_on_c, 1, 73, 49
2, 425040, Note_on_c, 1, 73, 0
2, 425040, Note_on_c, 1, 75, 51
2, 425230, Note_on_c, 1, 75, 0
2, 425280, Note_on_c, 1, 76, 56
2, 426000, Note_on_c, 1, 76, 0
2, 426000, Note_on_c, 1, 77, 51
2, 426240, Note_on_c, 1, 77, 0
2, 426240, Note_on_c, 1, 72, 46
2, 426625, Note_on_c, 1, 72, 0
2, 427200, Note_on_c, 1, 63, 52
2, 427800, Note_on_c, 1, 63, 0
2, 427800, Note_on_c, 1, 65, 46
2, 427860, Note_on_c, 1, 65, 0
2, 427860, Note_on_c, 1, 63, 47
2, 427920, Note_on_c, 1, 63, 0
2, 427920, Note_on_c, 1, 62, 48
2, 427980, Note_on_c, 1, 62, 0
2, 427980, Note_on_c, 1, 63, 50
2, 428040, Note_on_c, 1, 63, 0
2, 428040, Note_on_c, 1, 64, 51
2, 428100, Note_on_c, 1, 64, 0
2, 428100, Note_on_c, 1, 65, 52
2, 428160, Note_on_c, 1, 65, 0
2, 428160, Note_on_c, 1, 66, 54
2, 428220, Note_on_c, 1, 66, 0
2, 428220, Note_on_c, 1, 67, 55
2, 428280, Note_on_c, 1, 67, 0
2, 428280, Note_on_c, 1, 68, 56
2, 428340, Note_on_c, 1, 68, 0
2, 428340, Note_on_c, 1, 69, 58
2, 428400, Note_on_c, 1, 69, 0
2, 428400, Note_on_c, 1, 70, 59
2, 428460, Note_on_c, 1, 70, 0
2, 428460, Note_on_c, 1, 71, 60
2, 428520, Note_on_c, 1, 71, 0
2, 428520, Note_on_c, 1, 72, 62
2, 428580, Note_on_c, 1, 72, 0
2, 428580, Note_on_c, 1, 73, 63
2, 428640, Note_on_c, 1, 73, 0
2, 428640, Note_on_c, 1, 74, 64
2, 428700, Note_on_c, 1, 74, 0
2, 428700, Note_on_c, 1, 75, 66
2, 428760, Note_on_c, 1, 75, 0
2, 428760, Note_on_c, 1, 76, 67
2, 428820, Note_on_c, 1, 76, 0
2, 428820, Note_on_c, 1, 77, 68
2, 428880, Note_on_c, 1, 77, 0
2, 428880, Note_on_c, 1, 78, 70
2, 428940, Note_on_c, 1, 78, 0
2, 428940, Note_on_c, 1, 79, 71
2, 429000, Note_on_c, 1, 79, 0
2, 429000, Note_on_c, 1, 80, 72
2, 429060, Note_on_c, 1, 80, 0
2, 429060, Note_on_c, 1, 81, 74
2, 429120, Note_on_c, 1, 81, 0
2, 429120, Note_on_c, 1, 81, 76
2, 429420, Note_on_c, 1, 82, 71
2, 429440, Note_on_c, 1, 81, 0
2, 429480, Note_on_c, 1, 82, 0
2, 429480, Note_on_c, 1, 81, 70
2, 429540, Note_on_c, 1, 81, 0
2, 429540, Note_on_c, 1, 79, 68
2, 429600, Note_on_c, 1, 79, 0
2, 429600, Note_on_c, 1, 81, 67
2, 429840, Note_on_c, 1, 81, 0
2, 429840, Note_on_c, 1, 82, 61
2, 430080, Note_on_c, 1, 82, 0
2, 430080, Note_on_c, 1, 77, 56
2, 430465, Note_on_c, 1, 77, 0
2, 431040, Note_on_c, 1, 76, 72
2, 431100, Note_on_c, 1, 85, 77
2, 431160, Note_on_c, 1, 76, 0
2, 432240, Note_on_c, 1, 85, 0
2, 432240, Note_on_c, 1, 84, 63
2, 432360, Note_on_c, 1, 84, 0
2, 432360, Note_on_c, 1, 82, 61
2, 432455, Note_on_c, 1, 82, 0
2, 432480, Note_on_c, 1, 80, 59
2, 432600, Note_on_c, 1, 80, 0
2, 432600, Note_on_c, 1, 79, 56
2, 432695, Note_on_c, 1, 79, 0
2, 432720, Note_on_c, 1, 77, 54
2, 432840, Note_on_c, 1, 77, 0
2, 432840, Note_on_c, 1, 76, 52
2, 432935, Note_on_c, 1, 76, 0
2, 432960, Note_on_c, 1, 79, 59
2, 433440, Note_on_c, 1, 79, 0
2, 433440, Note_on_c, 1, 77, 54
2, 434155, Note_on_c, 1, 77, 0
2, 434160, Note_on_c, 1, 76, 48
2, 434400, Note_on_c, 1, 76, 0
2, 434400, Note_on_c, 1, 75, 46
2, 434560, Note_on_c, 1, 75, 0
2, 434560, Note_on_c, 1, 74, 44
2, 434720, Note_on_c, 1, 73, 42
2, 434725, Note_on_c, 1, 74, 0
2, 434850, Note_on_c, 1, 73, 0
2, 434880, Note_on_c, 1, 72, 47
2, 435180, Note_on_c, 1, 73, 44
2, 435185, Note_on_c, 1, 72, 0
2, 435240, Note_on_c, 1, 73, 0
2, 435240, Note_on_c, 1, 72, 44
2, 435300, Note_on_c, 1, 72, 0
2, 435300, Note_on_c, 1, 70, 43
2, 435360, Note_on_c, 1, 70, 0
2, 435360, Note_on_c, 1, 72, 43
2, 435600, Note_on_c, 1, 72, 0
2, 435600, Note_on_c, 1, 73, 41
2, 435790, Note_on_c, 1, 73, 0
2, 435840, Note_on_c, 1, 65, 45
2, 436320, Note_on_c, 1, 65, 0
2, 436320, Note_on_c, 1, 68, 41
2, 436560, Note_on_c, 1, 68, 0
2, 436560, Note_on_c, 1, 67, 38
2, 436800, Note_on_c, 1, 67, 0
2, 436800, Note_on_c, 1, 65, 36
2, 437520, Note_on_c, 1, 65, 0
2, 438720, Note_on_c, 1, 75, 41
2, 439105, Note_on_c, 1, 75, 0
2, 439680, Note_on_c, 1, 72, 43
2, 440065, Note_on_c, 1, 72, 0
2, 440160, Note_on_c, 1, 69, 46
2, 440545, Note_on_c, 1, 69, 0
2, 440640, Note_on_c, 1, 77, 55
2, 441000, Note_on_c, 1, 77, 0
2, 441000, Note_on_c, 1, 74, 49
2, 441120, Note_on_c, 1, 74, 0
2, 441120, Note_on_c, 1, 77, 47
2, 441505, Note_on_c, 1, 77, 0
2, 442560, Note_on_c, 1, 77, 55
2, 442800, Note_on_c, 1, 75, 48
2, 442805, Note_on_c, 1, 77, 0
2, 443040, Note_on_c, 1, 75, 0
2, 443520, Note_on_c, 1, 74, 55
2, 443760, Note_on_c, 1, 74, 0
2, 443760, Note_on_c, 1, 72, 47
2, 443880, Note_on_c, 1, 72, 0
2, 444000, Note_on_c, 1, 70, 59
2, 444240, Note_on_c, 1, 70, 0
2, 444240, Note_on_c, 1, 69, 51
2, 444355, Note_on_c, 1, 69, 0
2, 444480, Note_on_c, 1, 77, 62
2, 444840, Note_on_c, 1, 77, 0
2, 444840, Note_on_c, 1, 74, 55
2, 444960, Note_on_c, 1, 74, 0
2, 444960, Note_on_c, 1, 77, 51
2, 445345, Note_on_c, 1, 77, 0
2, 445440, Note_on_c, 1, 86, 62
2, 445680, Note_on_c, 1, 86, 0
2, 445680, Note_on_c, 1, 84, 55
2, 445920, Note_on_c, 1, 84, 0
2, 445920, Note_on_c, 1, 82, 52
2, 446160, Note_on_c, 1, 82, 0
2, 446160, Note_on_c, 1, 81, 48
2, 446350, Note_on_c, 1, 81, 0
2, 446400, Note_on_c, 1, 82, 55
2, 446640, Note_on_c, 1, 82, 0
2, 446640, Note_on_c, 1, 81, 52
2, 446880, Note_on_c, 1, 81, 0
2, 446880, Note_on_c, 1, 79, 49
2, 447120, Note_on_c, 1, 79, 0
2, 447120, Note_on_c, 1, 78, 47
2, 447310, Note_on_c, 1, 78, 0
2, 447360, Note_on_c, 1, 79, 53
2, 447600, Note_on_c, 1, 79, 0
2, 447600, Note_on_c, 1, 77, 48
2, 447840, Note_on_c, 1, 77, 0
2, 447840, Note_on_c, 1, 75, 45
2, 448080, Note_on_c, 1, 75, 0
2, 448080, Note_on_c, 1, 74, 42
2, 448270, Note_on_c, 1, 74, 0
2, 448320, Note_on_c, 1, 74, 47
2, 449280, Note_on_c, 1, 74, 0
2, 449280, Note_on_c, 1, 75, 37
2, 449470, Note_on_c, 1, 75, 0
2, 449520, Note_on_c, 1, 75, 39
2, 449560, Note_on_c, 1, 75, 0
2, 449560, Note_on_c, 1, 77, 40
2, 449600, Note_on_c, 1, 77, 0
2, 449600, Note_on_c, 1, 75, 40
2, 449640, Note_on_c, 1, 75, 0
2, 449640, Note_on_c, 1, 74, 41
2, 449700, Note_on_c, 1, 74, 0
2, 449700, Note_on_c, 1, 75, 41
2, 449760, Note_on_c, 1, 75, 0
2, 449760, Note_on_c, 1, 77, 42
2, 450000, Note_on_c, 1, 77, 0
2, 450000, Note_on_c, 1, 79, 44
2, 450190, Note_on_c, 1, 79, 0
2, 450240, Note_on_c, 1, 79, 49
2, 450360, Note_on_c, 1, 79, 0
2, 450360, Note_on_c, 1, 77, 47
2, 450480, Note_on_c, 1, 77, 0
2, 450480, Note_on_c, 1, 75, 46
2, 450600, Note_on_c, 1, 75, 0
2, 450600, Note_on_c, 1, 74, 45
2, 450720, Note_on_c, 1, 71, 43
2, 450725, Note_on_c, 1, 74, 0
2, 450840, Note_on_c, 1, 71, 0
2, 450840, Note_on_c, 1, 72, 42
2, 450960, Note_on_c, 1, 72, 0
2, 450960, Note_on_c, 1, 75, 41
2, 451075, Note_on_c, 1, 75, 0
2, 451080, Note_on_c, 1, 79, 39
2, 451175, Note_on_c, 1, 79, 0
2, 451200, Note_on_c, 1, 70, 38
2, 451680, Note_on_c, 1, 70, 0
2, 451680, Note_on_c, 1, 72, 32
2, 452065, Note_on_c, 1, 72, 0
2, 452160, Note_on_c, 1, 72, 39
2, 452520, Note_on_c, 1, 72, 0
2, 452520, Note_on_c, 1, 73, 36
2, 452640, Note_on_c, 1, 73, 0
2, 452640, Note_on_c, 1, 74, 32
2, 453025, Note_on_c, 1, 74, 0
2, 454080, Note_on_c, 1, 77, 43
2, 454320, Note_on_c, 1, 77, 0
2, 454320, Note_on_c, 1, 75, 38
2, 454510, Note_on_c, 1, 75, 0
2, 455040, Note_on_c, 1, 74, 47
2, 455280, Note_on_c, 1, 74, 0
2, 455280, Note_on_c, 1, 72, 40
2, 455470, Note_on_c, 1, 72, 0
2, 455520, Note_on_c, 1, 70, 51
2, 455760, Note_on_c, 1, 70, 0
2, 455760, Note_on_c, 1, 69, 46
2, 455950, Note_on_c, 1, 69, 0
2, 456000, Note_on_c, 1, 77, 54
2, 456360, Note_on_c, 1, 77, 0
2, 456360, Note_on_c, 1, 74, 45
2, 456480, Note_on_c, 1, 74, 0
2, 456480, Note_on_c, 1, 77, 40
2, 456865, Note_on_c, 1, 77, 0
2, 457920, Note_on_c, 1, 77, 51
2, 458015, Note_on_c, 1, 77, 0
2, 458040, Note_on_c, 1, 76, 48
2, 458135, Note_on_c, 1, 76, 0
2, 458160, Note_on_c, 1, 75, 45
2, 458350, Note_on_c, 1, 75, 0
2, 458880, Note_on_c, 1, 74, 53
2, 458975, Note_on_c, 1, 74, 0
2, 459000, Note_on_c, 1, 74, 50
2, 459120, Note_on_c, 1, 74, 0
2, 459120, Note_on_c, 1, 75, 47
2, 459240, Note_on_c, 1, 75, 0
2, 459240, Note_on_c, 1, 72, 44
2, 459360, Note_on_c, 1, 72, 0
2, 459360, Note_on_c, 1, 70, 55
2, 459455, Note_on_c, 1, 70, 0
2, 459480, Note_on_c, 1, 70, 51
2, 459600, Note_on_c, 1, 70, 0
2, 459600, Note_on_c, 1, 72, 48
2, 459720, Note_on_c, 1, 72, 0
2, 459720, Note_on_c, 1, 69, 45
2, 459840, Note_on_c, 1, 69, 0
2, 459840, Note_on_c, 1, 77, 63
2, 459900, Note_on_c, 1, 77, 0
2, 459900, Note_on_c, 1, 79, 60
2, 459960, Note_on_c, 1, 79, 0
2, 459960, Note_on_c, 1, 77, 58
2, 460020, Note_on_c, 1, 77, 0
2, 460020, Note_on_c, 1, 76, 55
2, 460080, Note_on_c, 1, 76, 0
2, 460080, Note_on_c, 1, 77, 53
2, 460200, Note_on_c, 1, 77, 0
2, 460200, Note_on_c, 1, 82, 47
2, 460320, Note_on_c, 1, 82, 0
2, 460320, Note_on_c, 1, 77, 42
2, 460660, Note_on_c, 1, 77, 0
2, 460920, Note_on_c, 1, 86, 58
2, 461160, Note_on_c, 1, 86, 0
2, 461160, Note_on_c, 1, 84, 56
2, 461400, Note_on_c, 1, 84, 0
2, 461400, Note_on_c, 1, 82, 53
2, 461640, Note_on_c, 1, 82, 0
2, 461640, Note_on_c, 1, 81, 49
2, 461820, Note_on_c, 1, 81, 0
2, 461880, Note_on_c, 1, 82, 52
2, 462120, Note_on_c, 1, 82, 0
2, 462120, Note_on_c, 1, 81, 50
2, 462360, Note_on_c, 1, 81, 0
2, 462360, Note_on_c, 1, 79, 47
2, 462600, Note_on_c, 1, 79, 0
2, 462600, Note_on_c, 1, 78, 43
2, 462790, Note_on_c, 1, 78, 0
2, 462840, Note_on_c, 1, 79, 46
2, 463080, Note_on_c, 1, 79, 0
2, 463080, Note_on_c, 1, 77, 43
2, 463320, Note_on_c, 1, 77, 0
2, 463320, Note_on_c, 1, 75, 41
2, 463560, Note_on_c, 1, 75, 0
2, 463560, Note_on_c, 1, 74, 38
2, 463655, Note_on_c, 1, 74, 0
2, 463680, Note_on_c, 1, 74, 46
2, 464640, Note_on_c, 1, 74, 0
2, 464640, Note_on_c, 1, 75, 40
2, 464830, Note_on_c, 1, 75, 0
2, 464880, Note_on_c, 1, 75, 43
2, 464920, Note_on_c, 1, 75, 0
2, 464920, Note_on_c, 1, 77, 43
2, 464960, Note_on_c, 1, 77, 0
2, 464960, Note_on_c, 1, 75, 43
2, 465000, Note_on_c, 1, 75, 0
2, 465000, Note_on_c, 1, 74, 44
2, 465060, Note_on_c, 1, 74, 0
2, 465060, Note_on_c, 1, 75, 44
2, 465120, Note_on_c, 1, 75, 0
2, 465120, Note_on_c, 1, 77, 45
2, 465360, Note_on_c, 1, 77, 0
2, 465360, Note_on_c, 1, 79, 47
2, 465550, Note_on_c, 1, 79, 0
2, 465600, Note_on_c, 1, 77, 51
2, 465760, Note_on_c, 1, 82, 49
2, 465765, Note_on_c, 1, 77, 0
2, 465920, Note_on_c, 1, 82, 0
2, 465920, Note_on_c, 1, 74, 48
2, 466080, Note_on_c, 1, 74, 0
2, 466080, Note_on_c, 1, 72, 46
2, 466240, Note_on_c, 1, 72, 0
2, 466240, Note_on_c, 1, 75, 45
2, 466400, Note_on_c, 1, 79, 43
2, 466405, Note_on_c, 1, 75, 0
2, 466545, Note_on_c, 1, 79, 0
2, 466560, Note_on_c, 1, 70, 41
2, 467040, Note_on_c, 1, 70, 0
2, 467040, Note_on_c, 1, 69, 34
2, 467425, Note_on_c, 1, 69, 0
2, 467520, Note_on_c, 1, 62, 72
2, 467580, Note_on_c, 1, 74, 74
2, 467640, Note_on_c, 1, 62, 0
2, 468180, Note_on_c, 1, 74, 0
2, 468180, Note_on_c, 1, 70, 69
2, 468240, Note_on_c, 1, 70, 0
2, 468240, Note_on_c, 1, 70, 71
2, 468280, Note_on_c, 1, 72, 71
2, 468300, Note_on_c, 1, 70, 0
2, 468320, Note_on_c, 1, 70, 72
2, 468340, Note_on_c, 1, 72, 0
2, 468360, Note_on_c, 1, 69, 73
2, 468380, Note_on_c, 1, 70, 0
2, 468420, Note_on_c, 1, 69, 0
2, 468420, Note_on_c, 1, 70, 74
2, 468480, Note_on_c, 1, 70, 0
2, 468480, Note_on_c, 1, 63, 75
2, 468540, Note_on_c, 1, 75, 76
2, 468600, Note_on_c, 1, 63, 0
2, 469140, Note_on_c, 1, 72, 71
2, 469160, Note_on_c, 1, 75, 0
2, 469200, Note_on_c, 1, 72, 0
2, 469200, Note_on_c, 1, 72, 73
2, 469240, Note_on_c, 1, 72, 0
2, 469240, Note_on_c, 1, 74, 74
2, 469280, Note_on_c, 1, 74, 0
2, 469280, Note_on_c, 1, 72, 75
2, 469320, Note_on_c, 1, 72, 0
2, 469320, Note_on_c, 1, 71, 76
2, 469380, Note_on_c, 1, 71, 0
2, 469380, Note_on_c, 1, 72, 77
2, 469440, Note_on_c, 1, 72, 0
2, 469440, Note_on_c, 1, 77, 79
2, 469800, Note_on_c, 1, 77, 0
2, 469800, Note_on_c, 1, 74, 78
2, 469920, Note_on_c, 1, 74, 0
2, 469920, Note_on_c, 1, 82, 83
2, 470640, Note_on_c, 1, 82, 0
2, 470640, Note_on_c, 1, 80, 72
2, 470880, Note_on_c, 1, 80, 0
2, 470880, Note_on_c, 1, 79, 69
2, 471120, Note_on_c, 1, 79, 0
2, 471120, Note_on_c, 1, 78, 65
2, 471470, Note_on_c, 1, 78, 0
2, 471480, Note_on_c, 1, 79, 67
2, 471600, Note_on_c, 1, 79, 0
2, 471600, Note_on_c, 1, 82, 66
2, 471720, Note_on_c, 1, 82, 0
2, 471720, Note_on_c, 1, 79, 65
2, 471840, Note_on_c, 1, 79, 0
2, 471840, Note_on_c, 1, 74, 65
2, 471960, Note_on_c, 1, 74, 0
2, 471960, Note_on_c, 1, 75, 64
2, 472080, Note_on_c, 1, 75, 0
2, 472080, Note_on_c, 1, 79, 63
2, 472200, Note_on_c, 1, 79, 0
2, 472200, Note_on_c, 1, 75, 62
2, 472295, Note_on_c, 1, 75, 0
2, 472320, Note_on_c, 1, 71, 62
2, 472440, Note_on_c, 1, 71, 0
2, 472440, Note_on_c, 1, 72, 61
2, 472560, Note_on_c, 1, 72, 0
2, 472560, Note_on_c, 1, 75, 60
2, 472680, Note_on_c, 1, 75, 0
2, 472680, Note_on_c, 1, 74, 59
2, 472800, Note_on_c, 1, 74, 0
2, 472800, Note_on_c, 1, 77, 59
2, 472920, Note_on_c, 1, 77, 0
2, 472920, Note_on_c, 1, 75, 58
2, 473040, Note_on_c, 1, 75, 0
2, 473040, Note_on_c, 1, 74, 57
2, 473160, Note_on_c, 1, 74, 0
2, 473160, Note_on_c, 1, 72, 56
2, 473255, Note_on_c, 1, 72, 0
2, 473280, Note_on_c, 1, 65, 56
2, 473340, Note_on_c, 1, 77, 54
2, 473400, Note_on_c, 1, 65, 0
2, 473475, Note_on_c, 1, 77, 0
2, 473520, Note_on_c, 1, 77, 56
2, 473910, Note_on_c, 1, 77, 0
2, 474000, Note_on_c, 1, 77, 59
2, 474285, Note_on_c, 1, 77, 0
2, 474360, Note_on_c, 1, 75, 60
2, 474480, Note_on_c, 1, 75, 0
2, 474480, Note_on_c, 1, 74, 61
2, 474600, Note_on_c, 1, 74, 0
2, 474600, Note_on_c, 1, 75, 63
2, 474720, Note_on_c, 1, 75, 0
2, 474720, Note_on_c, 1, 77, 65
2, 474840, Note_on_c, 1, 77, 0
2, 474840, Note_on_c, 1, 79, 66
2, 474960, Note_on_c, 1, 79, 0
2, 474960, Note_on_c, 1, 81, 68
2, 475080, Note_on_c, 1, 81, 0
2, 475080, Note_on_c, 1, 82, 69
2, 475175, Note_on_c, 1, 82, 0
2, 475200, Note_on_c, 1, 72, 71
2, 475240, Note_on_c, 1, 72, 0
2, 477120, Note_on_c, 1, 70, 55
2, 477600, Note_on_c, 1, 70, 0
2, 477780, Note_on_c, 1, 70, 49
2, 477825, Note_on_c, 1, 70, 0
2, 477840, Note_on_c, 1, 70, 50
2, 477880, Note_on_c, 1, 70, 0
2, 477880, Note_on_c, 1, 72, 51
2, 477920, Note_on_c, 1, 72, 0
2, 477920, Note_on_c, 1, 70, 51
2, 477960, Note_on_c, 1, 70, 0
2, 477960, Note_on_c, 1, 69, 52
2, 478020, Note_on_c, 1, 69, 0
2, 478020, Note_on_c, 1, 70, 53
2, 478080, Note_on_c, 1, 70, 0
2, 478080, Note_on_c, 1, 77, 55
2, 478320, Note_on_c, 1, 77, 0
2, 478320, Note_on_c, 1, 75, 53
2, 478560, Note_on_c, 1, 75, 0
2, 478560, Note_on_c, 1, 74, 51
2, 478800, Note_on_c, 1, 74, 0
2, 478800, Note_on_c, 1, 72, 48
2, 478985, Note_on_c, 1, 72, 0
2, 479040, Note_on_c, 1, 72, 46
2, 479280, Note_on_c, 1, 72, 0
2, 479280, Note_on_c, 1, 70, 42
2, 479470, Note_on_c, 1, 70, 0
2, 479700, Note_on_c, 1, 70, 42
2, 479745, Note_on_c, 1, 70, 0
2, 479760, Note_on_c, 1, 70, 43
2, 479800, Note_on_c, 1, 70, 0
2, 479800, Note_on_c, 1, 72, 45
2, 479840, Note_on_c, 1, 72, 0
2, 479840, Note_on_c, 1, 70, 46
2, 479880, Note_on_c, 1, 70, 0
2, 479880, Note_on_c, 1, 69, 47
2, 479940, Note_on_c, 1, 69, 0
2, 479940, Note_on_c, 1, 70, 49
2, 480000, Note_on_c, 1, 70, 0
2, 480000, Note_on_c, 1, 77, 52
2, 480240, Note_on_c, 1, 77, 0
2, 480240, Note_on_c, 1, 75, 50
2, 480480, Note_on_c, 1, 75, 0
2, 480480, Note_on_c, 1, 74, 48
2, 480720, Note_on_c, 1, 74, 0
2, 480720, Note_on_c, 1, 72, 47
2, 480960, Note_on_c, 1, 72, 0
2, 480960, Note_on_c, 1, 70, 45
2, 481200, Note_on_c, 1, 70, 0
2, 481440, Note_on_c, 1, 75, 49
2, 481800, Note_on_c, 1, 75, 0
2, 481800, Note_on_c, 1, 69, 44
2, 481920, Note_on_c, 1, 69, 0
2, 481920, Note_on_c, 1, 70, 42
2, 482105, Note_on_c, 1, 70, 0
2, 482400, Note_on_c, 1, 75, 45
2, 482760, Note_on_c, 1, 75, 0
2, 482760, Note_on_c, 1, 69, 39
2, 482855, Note_on_c, 1, 69, 0
2, 482880, Note_on_c, 1, 69, 40
2, 483840, Note_on_c, 1, 69, 0
2, 483840, Note_on_c, 1, 70, 30
2, 484320, Note_on_c, 1, 70, 0
2, 484800, Control_c, 1, 64, 0
2, 484920, Note_on_c, 1, 84, 85
2, 485015, Note_on_c, 1, 84, 0
2, 485040, Note_on_c, 1, 83, 84
2, 485135, Note_on_c, 1, 83, 0
2, 485160, Note_on_c, 1, 84, 84
2, 485255, Note_on_c, 1, 84, 0
2, 485280, Note_on_c, 1, 89, 84
2, 485375, Note_on_c, 1, 89, 0
2, 485400, Note_on_c, 1, 84, 83
2, 485495, Note_on_c, 1, 84, 0
2, 485520, Note_on_c, 1, 82, 83
2, 485615, Note_on_c, 1, 82, 0
2, 485640, Note_on_c, 1, 81, 82
2, 485735, Note_on_c, 1, 81, 0
2, 485760, Note_on_c, 1, 80, 82
2, 485855, Note_on_c, 1, 80, 0
2, 485880, Note_on_c, 1, 81, 82
2, 485975, Note_on_c, 1, 81, 0
2, 486000, Note_on_c, 1, 84, 81
2, 486095, Note_on_c, 1, 84, 0
2, 486120, Note_on_c, 1, 81, 81
2, 486215, Note_on_c, 1, 81, 0
2, 486240, Note_on_c, 1, 79, 81
2, 486335, Note_on_c, 1, 79, 0
2, 486360, Note_on_c, 1, 77, 80
2, 486455, Note_on_c, 1, 77, 0
2, 486480, Note_on_c, 1, 76, 80
2, 486575, Note_on_c, 1, 76, 0
2, 486600, Note_on_c, 1, 77, 80
2, 486695, Note_on_c, 1, 77, 0
2, 486720, Note_on_c, 1, 81, 79
2, 486815, Note_on_c, 1, 81, 0
2, 486840, Note_on_c, 1, 77, 79
2, 486935, Note_on_c, 1, 77, 0
2, 486960, Note_on_c, 1, 74, 78
2, 487055, Note_on_c, 1, 74, 0
2, 487080, Note_on_c, 1, 72, 78
2, 487175, Note_on_c, 1, 72, 0
2, 487200, Note_on_c, 1, 71, 78
2, 487295, Note_on_c, 1, 71, 0
2, 487320, Note_on_c, 1, 72, 77
2, 487415, Note_on_c, 1, 72, 0
2, 487440, Note_on_c, 1, 77, 77
2, 487535, Note_on_c, 1, 77, 0
2, 487560, Note_on_c, 1, 72, 77
2, 487655, Note_on_c, 1, 72, 0
2, 487680, Note_on_c, 1, 70, 76
2, 487775, Note_on_c, 1, 70, 0
2, 487800, Note_on_c, 1, 69, 77
2, 487895, Note_on_c, 1, 69, 0
2, 487920, Note_on_c, 1, 68, 78
2, 488015, Note_on_c, 1, 68, 0
2, 488040, Note_on_c, 1, 69, 79
2, 488135, Note_on_c, 1, 69, 0
2, 488160, Note_on_c, 1, 72, 80
2, 488255, Note_on_c, 1, 72, 0
2, 488280, Note_on_c, 1, 69, 81
2, 488375, Note_on_c, 1, 69, 0
2, 488400, Note_on_c, 1, 65, 82
2, 488495, Note_on_c, 1, 65, 0
2, 488640, Note_on_c, 1, 64, 84
2, 488832, Note_on_c, 1, 64, 0
2, 488880, Note_on_c, 1, 65, 86
2, 489072, Note_on_c, 1, 65, 0
2, 489120, Note_on_c, 1, 67, 88
2, 489312, Note_on_c, 1, 67, 0
2, 489360, Note_on_c, 1, 65, 90
2, 489552, Note_on_c, 1, 65, 0
2, 489600, Note_on_c, 1, 67, 92
2, 489792, Note_on_c, 1, 67, 0
2, 489840, Note_on_c, 1, 69, 94
2, 490032, Note_on_c, 1, 69, 0
2, 490080, Note_on_c, 1, 67, 96
2, 490272, Note_on_c, 1, 67, 0
2, 490320, Note_on_c, 1, 69, 98
2, 490512, Note_on_c, 1, 69, 0
2, 490560, Note_on_c, 1, 70, 101
2, 491040, Note_on_c, 1, 70, 0
2, 491040, Note_on_c, 1, 69, 94
2, 491232, Note_on_c, 1, 69, 0
2, 491280, Note_on_c, 1, 70, 99
2, 491760, Note_on_c, 1, 70, 0
2, 491760, Note_on_c, 1, 69, 90
2, 491952, Note_on_c, 1, 69, 0
2, 492000, Note_on_c, 1, 68, 86
2, 492192, Note_on_c, 1, 68, 0
2, 492240, Note_on_c, 1, 68, 78
2, 492432, Note_on_c, 1, 68, 0
2, 492480, Note_on_c, 1, 68, 70
2, 492672, Note_on_c, 1, 68, 0
2, 492720, Note_on_c, 1, 67, 63
2, 493010, Note_on_c, 1, 67, 0
2, 493560, Note_on_c, 1, 84, 81
2, 493655, Note_on_c, 1, 84, 0
2, 493680, Note_on_c, 1, 83, 80
2, 493775, Note_on_c, 1, 83, 0
2, 493800, Note_on_c, 1, 84, 80
2, 493895, Note_on_c, 1, 84, 0
2, 493920, Note_on_c, 1, 89, 80
2, 494015, Note_on_c, 1, 89, 0
2, 494040, Note_on_c, 1, 84, 79
2, 494135, Note_on_c, 1, 84, 0
2, 494160, Note_on_c, 1, 82, 79
2, 494255, Note_on_c, 1, 82, 0
2, 494280, Note_on_c, 1, 81, 78
2, 494375, Note_on_c, 1, 81, 0
2, 494400, Note_on_c, 1, 80, 78
2, 494495, Note_on_c, 1, 80, 0
2, 494520, Note_on_c, 1, 81, 78
2, 494615, Note_on_c, 1, 81, 0
2, 494640, Note_on_c, 1, 84, 77
2, 494735, Note_on_c, 1, 84, 0
2, 494760, Note_on_c, 1, 81, 77
2, 494855, Note_on_c, 1, 81, 0
2, 494880, Note_on_c, 1, 79, 76
2, 494975, Note_on_c, 1, 79, 0
2, 495000, Note_on_c, 1, 77, 76
2, 495095, Note_on_c, 1, 77, 0
2, 495120, Note_on_c, 1, 76, 76
2, 495215, Note_on_c, 1, 76, 0
2, 495240, Note_on_c, 1, 77, 75
2, 495335, Note_on_c, 1, 77, 0
2, 495360, Note_on_c, 1, 81, 75
2, 495455, Note_on_c, 1, 81, 0
2, 495480, Note_on_c, 1, 77, 74
2, 495575, Note_on_c, 1, 77, 0
2, 495600, Note_on_c, 1, 74, 74
2, 495695, Note_on_c, 1, 74, 0
2, 495720, Note_on_c, 1, 72, 74
2, 495815, Note_on_c, 1, 72, 0
2, 495840, Note_on_c, 1, 71, 73
2, 495935, Note_on_c, 1, 71, 0
2, 495960, Note_on_c, 1, 72, 73
2, 496055, Note_on_c, 1, 72, 0
2, 496080, Note_on_c, 1, 77, 72
2, 496175, Note_on_c, 1, 77, 0
2, 496200, Note_on_c, 1, 72, 72
2, 496295, Note_on_c, 1, 72, 0
2, 496320, Note_on_c, 1, 70, 70
2, 496415, Note_on_c, 1, 70, 0
2, 496440, Note_on_c, 1, 69, 71
2, 496535, Note_on_c, 1, 69, 0
2, 496560, Note_on_c, 1, 68, 72
2, 496655, Note_on_c, 1, 68, 0
2, 496680, Note_on_c, 1, 69, 73
2, 496775, Note_on_c, 1, 69, 0
2, 496800, Note_on_c, 1, 72, 74
2, 496895, Note_on_c, 1, 72, 0
2, 496920, Note_on_c, 1, 69, 75
2, 497015, Note_on_c, 1, 69, 0
2, 497040, Note_on_c, 1, 65, 76
2, 497232, Note_on_c, 1, 65, 0
2, 497280, Note_on_c, 1, 64, 78
2, 497472, Note_on_c, 1, 64, 0
2, 497520, Note_on_c, 1, 65, 80
2, 497712, Note_on_c, 1, 65, 0
2, 497760, Note_on_c, 1, 67, 82
2, 497952, Note_on_c, 1, 67, 0
2, 498000, Note_on_c, 1, 65, 84
2, 498192, Note_on_c, 1, 65, 0
2, 498240, Note_on_c, 1, 67, 86
2, 498432, Note_on_c, 1, 67, 0
2, 498480, Note_on_c, 1, 69, 89
2, 498672, Note_on_c, 1, 69, 0
2, 498720, Note_on_c, 1, 67, 91
2, 498912, Note_on_c, 1, 67, 0
2, 498960, Note_on_c, 1, 69, 93
2, 499152, Note_on_c, 1, 69, 0
2, 499200, Note_on_c, 1, 70, 97
2, 499680, Note_on_c, 1, 70, 0
2, 499680, Note_on_c, 1, 69, 90
2, 499872, Note_on_c, 1, 69, 0
2, 499920, Note_on_c, 1, 70, 95
2, 500400, Note_on_c, 1, 70, 0
2, 500400, Note_on_c, 1, 69, 85
2, 500592, Note_on_c, 1, 69, 0
2, 500640, Note_on_c, 1, 68, 80
2, 500832, Note_on_c, 1, 68, 0
2, 501360, Note_on_c, 1, 67, 64
2, 501552, Note_on_c, 1, 67, 0
2, 502080, Note_on_c, 1, 66, 48
2, 502272, Note_on_c, 1, 66, 0
2, 503040, Note_on_c, 1, 62, 73
2, 503160, Note_on_c, 1, 62, 0
2, 503160, Note_on_c, 1, 67, 76
2, 503280, Note_on_c, 1, 67, 0
2, 503280, Note_on_c, 1, 70, 79
2, 503400, Note_on_c, 1, 70, 0
2, 503400, Note_on_c, 1, 74, 82
2, 503495, Note_on_c, 1, 74, 0
2, 503520, Note_on_c, 1, 72, 86
2, 503640, Note_on_c, 1, 72, 0
2, 503640, Note_on_c, 1, 70, 82
2, 503760, Note_on_c, 1, 70, 0
2, 503760, Note_on_c, 1, 69, 79
2, 503880, Note_on_c, 1, 69, 0
2, 503880, Note_on_c, 1, 67, 76
2, 504000, Note_on_c, 1, 67, 0
2, 504000, Note_on_c, 1, 65, 72
2, 504120, Note_on_c, 1, 65, 0
2, 504120, Note_on_c, 1, 64, 69
2, 504240, Note_on_c, 1, 64, 0
2, 504240, Note_on_c, 1, 65, 65
2, 504395, Note_on_c, 1, 65, 0
2, 504480, Note_on_c, 1, 60, 57
2, 504635, Note_on_c, 1, 60, 0
2, 504720, Note_on_c, 1, 60, 57
2, 504875, Note_on_c, 1, 60, 0
2, 504960, Note_on_c, 1, 64, 57
2, 505020, Note_on_c, 1, 64, 0
2, 505020, Note_on_c, 1, 70, 56
2, 505860, Note_on_c, 1, 70, 0
2, 505920, Note_on_c, 1, 69, 59
2, 506075, Note_on_c, 1, 69, 0
2, 506160, Note_on_c, 1, 67, 60
2, 506315, Note_on_c, 1, 67, 0
2, 506400, Note_on_c, 1, 67, 61
2, 506460, Note_on_c, 1, 67, 0
2, 506460, Note_on_c, 1, 65, 60
2, 507000, Note_on_c, 1, 65, 0
2, 507120, Note_on_c, 1, 65, 52
2, 507720, Note_on_c, 1, 65, 0
2, 507840, Note_on_c, 1, 64, 52
2, 507900, Note_on_c, 1, 64, 0
2, 507900, Note_on_c, 1, 70, 52
2, 508740, Note_on_c, 1, 70, 0
2, 508800, Note_on_c, 1, 69, 55
2, 508955, Note_on_c, 1, 69, 0
2, 509040, Note_on_c, 1, 67, 56
2, 509195, Note_on_c, 1, 67, 0
2, 509280, Note_on_c, 1, 71, 57
2, 510000, Note_on_c, 1, 71, 0
2, 510000, Note_on_c, 1, 72, 52
2, 510190, Note_on_c, 1, 72, 0
2, 510720, Note_on_c, 1, 64, 48
2, 510780, Note_on_c, 1, 64, 0
2, 510780, Note_on_c, 1, 70, 48
2, 511605, Note_on_c, 1, 70, 0
2, 511680, Note_on_c, 1, 69, 52
2, 511835, Note_on_c, 1, 69, 0
2, 511920, Note_on_c, 1, 67, 53
2, 512075, Note_on_c, 1, 67, 0
2, 512160, Note_on_c, 1, 65, 54
2, 512520, Note_on_c, 1, 65, 0
2, 512640, Note_on_c, 1, 69, 58
2, 513240, Note_on_c, 1, 69, 0
2, 513360, Note_on_c, 1, 72, 65
2, 513960, Note_on_c, 1, 72, 0
2, 514080, Note_on_c, 1, 70, 71
2, 514695, Note_on_c, 1, 70, 0
2, 514800, Note_on_c, 1, 67, 66
2, 514990, Note_on_c, 1, 67, 0
2, 515040, Control_c, 1, 64, 0
2, 515040, Note_on_c, 1, 65, 56
2, 515230, Note_on_c, 1, 65, 0
2, 515520, Note_on_c, 1, 57, 82
2, 515675, Note_on_c, 1, 57, 0
2, 515760, Note_on_c, 1, 58, 84
2, 515915, Note_on_c, 1, 58, 0
2, 516240, Note_on_c, 1, 59, 87
2, 516395, Note_on_c, 1, 59, 0
2, 516480, Note_on_c, 1, 60, 88
2, 516635, Note_on_c, 1, 60, 0
2, 516960, Note_on_c, 1, 61, 92
2, 517115, Note_on_c, 1, 61, 0
2, 517200, Note_on_c, 1, 62, 93
2, 517355, Note_on_c, 1, 62, 0
2, 517680, Note_on_c, 1, 64, 97
2, 517835, Note_on_c, 1, 64, 0
2, 517920, Note_on_c, 1, 82, 100
2, 518880, Note_on_c, 1, 81, 86
2, 518885, Note_on_c, 1, 82, 0
2, 519000, Note_on_c, 1, 81, 0
2, 519000, Note_on_c, 1, 79, 84
2, 519120, Note_on_c, 1, 79, 0
2, 519120, Note_on_c, 1, 77, 82
2, 519240, Note_on_c, 1, 77, 0
2, 519240, Note_on_c, 1, 76, 80
2, 519335, Note_on_c, 1, 76, 0
2, 519360, Note_on_c, 1, 77, 78
2, 519515, Note_on_c, 1, 77, 0
2, 519600, Note_on_c, 1, 79, 73
2, 519755, Note_on_c, 1, 79, 0
2, 519840, Note_on_c, 1, 81, 69
2, 519995, Note_on_c, 1, 81, 0
2, 520080, Note_on_c, 1, 72, 65
2, 520560, Note_on_c, 1, 72, 0
2, 520560, Note_on_c, 1, 70, 57
2, 520750, Note_on_c, 1, 70, 0
2, 520800, Note_on_c, 1, 70, 60
2, 521520, Note_on_c, 1, 70, 0
2, 521520, Note_on_c, 1, 69, 46
2, 521710, Note_on_c, 1, 69, 0
2, 522720, Note_on_c, 1, 57, 75
2, 522875, Note_on_c, 1, 57, 0
2, 522960, Note_on_c, 1, 58, 76
2, 523115, Note_on_c, 1, 58, 0
2, 523440, Note_on_c, 1, 59, 80
2, 523595, Note_on_c, 1, 59, 0
2, 523680, Note_on_c, 1, 60, 81
2, 523835, Note_on_c, 1, 60, 0
2, 524160, Note_on_c, 1, 61, 84
2, 524315, Note_on_c, 1, 61, 0
2, 524400, Note_on_c, 1, 62, 86
2, 524555, Note_on_c, 1, 62, 0
2, 524880, Note_on_c, 1, 64, 91
2, 525035, Note_on_c, 1, 64, 0
2, 525120, Note_on_c, 1, 82, 95
2, 526080, Note_on_c, 1, 81, 78
2, 526085, Note_on_c, 1, 82, 0
2, 526200, Note_on_c, 1, 81, 0
2, 526200, Note_on_c, 1, 79, 77
2, 526320, Note_on_c, 1, 79, 0
2, 526320, Note_on_c, 1, 77, 75
2, 526440, Note_on_c, 1, 77, 0
2, 526440, Note_on_c, 1, 76, 73
2, 526535, Note_on_c, 1, 76, 0
2, 526560, Note_on_c, 1, 77, 71
2, 526620, Note_on_c, 1, 77, 0
2, 526620, Note_on_c, 1, 79, 70
2, 526680, Note_on_c, 1, 79, 0
2, 526680, Note_on_c, 1, 81, 70
2, 526920, Note_on_c, 1, 81, 0
2, 527280, Note_on_c, 1, 74, 61
2, 527340, Note_on_c, 1, 74, 0
2, 527340, Note_on_c, 1, 76, 60
2, 527400, Note_on_c, 1, 76, 0
2, 527400, Note_on_c, 1, 77, 59
2, 527645, Note_on_c, 1, 77, 0
2, 528000, Note_on_c, 1, 65, 50
2, 528720, Note_on_c, 1, 65, 0
2, 528720, Note_on_c, 1, 69, 40
2, 528780, Note_on_c, 1, 69, 0
2, 528780, Note_on_c, 1, 67, 39
2, 529200, Note_on_c, 1, 65, 33
2, 529205, Note_on_c, 1, 67, 0
2, 529390, Note_on_c, 1, 65, 0
2, 529440, Note_on_c, 1, 65, 52
2, 529920, Note_on_c, 1, 69, 58
2, 530160, Note_on_c, 1, 69, 0
2, 530160, Note_on_c, 1, 72, 61
2, 530165, Note_on_c, 1, 65, 0
2, 530400, Note_on_c, 1, 72, 0
2, 530400, Note_on_c, 1, 70, 57
2, 530640, Note_on_c, 1, 70, 0
2, 530640, Note_on_c, 1, 67, 52
2, 530830, Note_on_c, 1, 67, 0
2, 530880, Note_on_c, 1, 65, 48
2, 531360, Note_on_c, 1, 69, 53
2, 531600, Note_on_c, 1, 69, 0
2, 531600, Note_on_c, 1, 65, 0
2, 531600, Note_on_c, 1, 72, 55
2, 531840, Note_on_c, 1, 72, 0
2, 531840, Note_on_c, 1, 70, 50
2, 532080, Note_on_c, 1, 70, 0
2, 532080, Note_on_c, 1, 67, 45
2, 532270, Note_on_c, 1, 67, 0
2, 532320, Note_on_c, 1, 65, 41
2, 532560, Note_on_c, 1, 65, 0
2, 532560, Note_on_c, 1, 60, 43
2, 532800, Note_on_c, 1, 60, 0
2, 532800, Note_on_c, 1, 69, 47
2, 533040, Note_on_c, 1, 69, 0
2, 533040, Note_on_c, 1, 65, 36
2, 533280, Note_on_c, 1, 65, 0
2, 533280, Note_on_c, 1, 60, 38
2, 533520, Note_on_c, 1, 60, 0
2, 533520, Note_on_c, 1, 69, 45
2, 533710, Note_on_c, 1, 69, 0
2, 533760, Note_on_c, 1, 67, 38
2, 534480, Note_on_c, 1, 67, 0
2, 534480, Note_on_c, 1, 65, 25
2, 534720, Note_on_c, 1, 65, 0
2, 535200, Note_on_c, 1, 81, 101
2, 535830, Note_on_c, 1, 81, 0
2, 535920, Note_on_c, 1, 79, 98
2, 536495, Note_on_c, 1, 79, 0
2, 536640, Note_on_c, 1, 77, 95
2, 537275, Note_on_c, 1, 77, 0
2, 537360, Note_on_c, 1, 76, 92
2, 537935, Note_on_c, 1, 76, 0
2, 538080, Note_on_c, 1, 74, 90
2, 538710, Note_on_c, 1, 74, 0
2, 538800, Note_on_c, 1, 73, 87
2, 539375, Note_on_c, 1, 73, 0
2, 539520, Note_on_c, 1, 74, 68
2, 539712, Note_on_c, 1, 74, 0
2, 540000, Note_on_c, 1, 74, 73
2, 540192, Note_on_c, 1, 74, 0
2, 540240, Note_on_c, 1, 76, 75
2, 540432, Note_on_c, 1, 76, 0
2, 540720, Note_on_c, 1, 76, 80
2, 540912, Note_on_c, 1, 76, 0
2, 540960, Note_on_c, 1, 77, 82
2, 541152, Note_on_c, 1, 77, 0
2, 541440, Note_on_c, 1, 77, 87
2, 541632, Note_on_c, 1, 77, 0
2, 541680, Note_on_c, 1, 78, 90
2, 541872, Note_on_c, 1, 78, 0
2, 542160, Note_on_c, 1, 78, 94
2, 542352, Note_on_c, 1, 78, 0
2, 542400, Note_on_c, 1, 79, 99
2, 542880, Note_on_c, 1, 79, 0
2, 542880, Note_on_c, 1, 81, 96
2, 543000, Note_on_c, 1, 81, 0
2, 543000, Note_on_c, 1, 79, 95
2, 543095, Note_on_c, 1, 79, 0
2, 543120, Note_on_c, 1, 77, 94
2, 543600, Note_on_c, 1, 77, 0
2, 543600, Note_on_c, 1, 79, 91
2, 543720, Note_on_c, 1, 79, 0
2, 543720, Note_on_c, 1, 77, 90
2, 543815, Note_on_c, 1, 77, 0
2, 543840, Note_on_c, 1, 76, 89
2, 544320, Note_on_c, 1, 76, 0
2, 544320, Note_on_c, 1, 77, 86
2, 544440, Note_on_c, 1, 77, 0
2, 544440, Note_on_c, 1, 76, 85
2, 544535, Note_on_c, 1, 76, 0
2, 544560, Note_on_c, 1, 74, 84
2, 545040, Note_on_c, 1, 74, 0
2, 545040, Note_on_c, 1, 76, 81
2, 545160, Note_on_c, 1, 76, 0
2, 545160, Note_on_c, 1, 74, 80
2, 545255, Note_on_c, 1, 74, 0
2, 545280, Note_on_c, 1, 72, 79
2, 545760, Note_on_c, 1, 72, 0
2, 545760, Note_on_c, 1, 74, 75
2, 545880, Note_on_c, 1, 74, 0
2, 545880, Note_on_c, 1, 72, 74
2, 545975, Note_on_c, 1, 72, 0
2, 546000, Note_on_c, 1, 71, 72
2, 546480, Note_on_c, 1, 71, 0
2, 546480, Note_on_c, 1, 72, 67
2, 546600, Note_on_c, 1, 72, 0
2, 546600, Note_on_c, 1, 71, 66
2, 546695, Note_on_c, 1, 71, 0
2, 546720, Note_on_c, 1, 74, 58
2, 546815, Note_on_c, 1, 74, 0
2, 546840, Note_on_c, 1, 72, 59
2, 546935, Note_on_c, 1, 72, 0
2, 546960, Note_on_c, 1, 71, 59
2, 547055, Note_on_c, 1, 71, 0
2, 547080, Note_on_c, 1, 72, 60
2, 547175, Note_on_c, 1, 72, 0
2, 547200, Note_on_c, 1, 71, 61
2, 547295, Note_on_c, 1, 71, 0
2, 547320, Note_on_c, 1, 72, 62
2, 547415, Note_on_c, 1, 72, 0
2, 547440, Note_on_c, 1, 76, 62
2, 547535, Note_on_c, 1, 76, 0
2, 547560, Note_on_c, 1, 74, 63
2, 547655, Note_on_c, 1, 74, 0
2, 547680, Note_on_c, 1, 73, 64
2, 547775, Note_on_c, 1, 73, 0
2, 547800, Note_on_c, 1, 74, 65
2, 547895, Note_on_c, 1, 74, 0
2, 547920, Note_on_c, 1, 73, 65
2, 548015, Note_on_c, 1, 73, 0
2, 548040, Note_on_c, 1, 74, 66
2, 548135, Note_on_c, 1, 74, 0
2, 548160, Note_on_c, 1, 76, 67
2, 548255, Note_on_c, 1, 76, 0
2, 548280, Note_on_c, 1, 74, 68
2, 548375, Note_on_c, 1, 74, 0
2, 548400, Note_on_c, 1, 72, 68
2, 548495, Note_on_c, 1, 72, 0
2, 548520, Note_on_c, 1, 74, 69
2, 548615, Note_on_c, 1, 74, 0
2, 548640, Note_on_c, 1, 76, 70
2, 548735, Note_on_c, 1, 76, 0
2, 548760, Note_on_c, 1, 77, 71
2, 548855, Note_on_c, 1, 77, 0
2, 548880, Note_on_c, 1, 79, 72
2, 548975, Note_on_c, 1, 79, 0
2, 549000, Note_on_c, 1, 77, 72
2, 549095, Note_on_c, 1, 77, 0
2, 549120, Note_on_c, 1, 76, 73
2, 549215, Note_on_c, 1, 76, 0
2, 549240, Note_on_c, 1, 77, 74
2, 549335, Note_on_c, 1, 77, 0
2, 549360, Note_on_c, 1, 79, 75
2, 549455, Note_on_c, 1, 79, 0
2, 549480, Note_on_c, 1, 80, 75
2, 549575, Note_on_c, 1, 80, 0
2, 549600, Note_on_c, 1, 81, 76
2, 549695, Note_on_c, 1, 81, 0
2, 549720, Note_on_c, 1, 82, 77
2, 549815, Note_on_c, 1, 82, 0
2, 549840, Note_on_c, 1, 81, 78
2, 549935, Note_on_c, 1, 81, 0
2, 549960, Note_on_c, 1, 79, 78
2, 550055, Note_on_c, 1, 79, 0
2, 550080, Note_on_c, 1, 77, 79
2, 550175, Note_on_c, 1, 77, 0
2, 550200, Note_on_c, 1, 76, 80
2, 550295, Note_on_c, 1, 76, 0
2, 550320, Note_on_c, 1, 74, 81
2, 550415, Note_on_c, 1, 74, 0
2, 550440, Note_on_c, 1, 85, 81
2, 550535, Note_on_c, 1, 85, 0
2, 550560, Note_on_c, 1, 86, 82
2, 550655, Note_on_c, 1, 86, 0
2, 550680, Note_on_c, 1, 84, 83
2, 550775, Note_on_c, 1, 84, 0
2, 550800, Note_on_c, 1, 83, 84
2, 550895, Note_on_c, 1, 83, 0
2, 550920, Note_on_c, 1, 81, 84
2, 551015, Note_on_c, 1, 81, 0
2, 551040, Note_on_c, 1, 79, 85
2, 551135, Note_on_c, 1, 79, 0
2, 551160, Note_on_c, 1, 81, 86
2, 551255, Note_on_c, 1, 81, 0
2, 551280, Note_on_c, 1, 79, 87
2, 551375, Note_on_c, 1, 79, 0
2, 551400, Note_on_c, 1, 77, 87
2, 551495, Note_on_c, 1, 77, 0
2, 551520, Note_on_c, 1, 76, 88
2, 551615, Note_on_c, 1, 76, 0
2, 551640, Note_on_c, 1, 74, 89
2, 551735, Note_on_c, 1, 74, 0
2, 551760, Note_on_c, 1, 72, 90
2, 551855, Note_on_c, 1, 72, 0
2, 551880, Note_on_c, 1, 83, 90
2, 551975, Note_on_c, 1, 83, 0
2, 552000, Note_on_c, 1, 84, 91
2, 552095, Note_on_c, 1, 84, 0
2, 552120, Note_on_c, 1, 83, 92
2, 552215, Note_on_c, 1, 83, 0
2, 552240, Note_on_c, 1, 81, 93
2, 552335, Note_on_c, 1, 81, 0
2, 552360, Note_on_c, 1, 79, 94
2, 552455, Note_on_c, 1, 79, 0
2, 552480, Note_on_c, 1, 77, 94
2, 552575, Note_on_c, 1, 77, 0
2, 552600, Note_on_c, 1, 85, 95
2, 552695, Note_on_c, 1, 85, 0
2, 552720, Note_on_c, 1, 86, 96
2, 552815, Note_on_c, 1, 86, 0
2, 552840, Note_on_c, 1, 83, 97
2, 552935, Note_on_c, 1, 83, 0
2, 552960, Note_on_c, 1, 79, 97
2, 553055, Note_on_c, 1, 79, 0
2, 553080, Note_on_c, 1, 77, 98
2, 553175, Note_on_c, 1, 77, 0
2, 553200, Note_on_c, 1, 76, 99
2, 553295, Note_on_c, 1, 76, 0
2, 553320, Note_on_c, 1, 83, 100
2, 553415, Note_on_c, 1, 83, 0
2, 553440, Note_on_c, 1, 84, 100
2, 553535, Note_on_c, 1, 84, 0
2, 553560, Note_on_c, 1, 79, 101
2, 553655, Note_on_c, 1, 79, 0
2, 553680, Note_on_c, 1, 77, 102
2, 553775, Note_on_c, 1, 77, 0
2, 553800, Note_on_c, 1, 76, 103
2, 553895, Note_on_c, 1, 76, 0
2, 553920, Note_on_c, 1, 74, 103
2, 554015, Note_on_c, 1, 74, 0
2, 554040, Note_on_c, 1, 76, 98
2, 554135, Note_on_c, 1, 76, 0
2, 554160, Note_on_c, 1, 74, 93
2, 554255, Note_on_c, 1, 74, 0
2, 554280, Note_on_c, 1, 72, 87
2, 554375, Note_on_c, 1, 72, 0
2, 554400, Note_on_c, 1, 71, 81
2, 554495, Note_on_c, 1, 71, 0
2, 554520, Note_on_c, 1, 69, 76
2, 554615, Note_on_c, 1, 69, 0
2, 554640, Note_on_c, 1, 67, 70
2, 554735, Note_on_c, 1, 67, 0
2, 554760, Note_on_c, 1, 69, 64
2, 554855, Note_on_c, 1, 69, 0
2, 554880, Note_on_c, 1, 67, 59
2, 554975, Note_on_c, 1, 67, 0
2, 555000, Note_on_c, 1, 65, 53
2, 555095, Note_on_c, 1, 65, 0
2, 555120, Note_on_c, 1, 64, 48
2, 555215, Note_on_c, 1, 64, 0
2, 555240, Note_on_c, 1, 62, 42
2, 555335, Note_on_c, 1, 62, 0
2, 555360, Note_on_c, 1, 75, 42
2, 556200, Note_on_c, 1, 75, 0
2, 556320, Note_on_c, 1, 74, 50
2, 556475, Note_on_c, 1, 74, 0
2, 556560, Note_on_c, 1, 72, 52
2, 556715, Note_on_c, 1, 72, 0
2, 556800, Note_on_c, 1, 78, 54
2, 557280, Note_on_c, 1, 78, 0
2, 557280, Note_on_c, 1, 79, 47
2, 557520, Note_on_c, 1, 79, 0
2, 557520, Note_on_c, 1, 74, 43
2, 558000, Note_on_c, 1, 74, 0
2, 558240, Note_on_c, 1, 80, 46
2, 559080, Note_on_c, 1, 80, 0
2, 559200, Note_on_c, 1, 79, 55
2, 559355, Note_on_c, 1, 79, 0
2, 559440, Note_on_c, 1, 77, 57
2, 559595, Note_on_c, 1, 77, 0
2, 559680, Note_on_c, 1, 75, 61
2, 559870, Note_on_c, 1, 75, 0
2, 559920, Note_on_c, 1, 77, 56
2, 559985, Note_on_c, 1, 77, 0
2, 560000, Note_on_c, 1, 75, 55
2, 560065, Note_on_c, 1, 75, 0
2, 560080, Note_on_c, 1, 74, 53
2, 560145, Note_on_c, 1, 74, 0
2, 560160, Note_on_c, 1, 75, 52
2, 560255, Note_on_c, 1, 75, 0
2, 560280, Note_on_c, 1, 77, 49
2, 560375, Note_on_c, 1, 77, 0
2, 560400, Note_on_c, 1, 79, 47
2, 560785, Note_on_c, 1, 79, 0
2, 561120, Note_on_c, 1, 84, 71
2, 561840, Note_on_c, 1, 84, 0
2, 561840, Note_on_c, 1, 82, 67
2, 562320, Note_on_c, 1, 82, 0
2, 562320, Note_on_c, 1, 84, 65
2, 562510, Note_on_c, 1, 84, 0
2, 562560, Note_on_c, 1, 82, 63
2, 563040, Note_on_c, 1, 82, 0
2, 563040, Note_on_c, 1, 80, 61
2, 563280, Note_on_c, 1, 79, 60
2, 563285, Note_on_c, 1, 80, 0
2, 563930, Note_on_c, 1, 79, 0
2, 564000, Note_on_c, 1, 77, 56
2, 564480, Note_on_c, 1, 77, 0
2, 564480, Note_on_c, 1, 75, 53
2, 564670, Note_on_c, 1, 75, 0
2, 564720, Note_on_c, 1, 74, 52
2, 565200, Note_on_c, 1, 74, 0
2, 565200, Note_on_c, 1, 72, 50
2, 565400, Note_on_c, 1, 72, 0
2, 565440, Note_on_c, 1, 75, 48
2, 566160, Note_on_c, 1, 75, 0
2, 566160, Note_on_c, 1, 74, 44
2, 566350, Note_on_c, 1, 74, 0
2, 566880, Note_on_c, 1, 75, 46
2, 567735, Note_on_c, 1, 75, 0
2, 567840, Note_on_c, 1, 74, 55
2, 567995, Note_on_c, 1, 74, 0
2, 568080, Note_on_c, 1, 72, 57
2, 568235, Note_on_c, 1, 72, 0
2, 568320, Note_on_c, 1, 78, 60
2, 568800, Note_on_c, 1, 78, 0
2, 568800, Note_on_c, 1, 79, 53
2, 569040, Note_on_c, 1, 79, 0
2, 569040, Note_on_c, 1, 74, 49
2, 569520, Note_on_c, 1, 74, 0
2, 569760, Note_on_c, 1, 80, 56
2, 570590, Note_on_c, 1, 80, 0
2, 570720, Note_on_c, 1, 79, 66
2, 570875, Note_on_c, 1, 79, 0
2, 570960, Note_on_c, 1, 77, 68
2, 571115, Note_on_c, 1, 77, 0
2, 571200, Note_on_c, 1, 76, 72
2, 571680, Note_on_c, 1, 76, 0
2, 571680, Note_on_c, 1, 77, 63
2, 571800, Note_on_c, 1, 77, 0
2, 571800, Note_on_c, 1, 79, 61
2, 571920, Note_on_c, 1, 79, 0
2, 571920, Note_on_c, 1, 77, 59
2, 572400, Note_on_c, 1, 77, 0
2, 572640, Note_on_c, 1, 87, 83
2, 573480, Note_on_c, 1, 87, 0
2, 573600, Note_on_c, 1, 86, 73
2, 573755, Note_on_c, 1, 86, 0
2, 573840, Note_on_c, 1, 84, 70
2, 573995, Note_on_c, 1, 84, 0
2, 574080, Note_on_c, 1, 83, 68
2, 574800, Note_on_c, 1, 83, 0
2, 574800, Note_on_c, 1, 84, 60
2, 575280, Note_on_c, 1, 84, 0
2, 575280, Note_on_c, 1, 80, 55
2, 575520, Note_on_c, 1, 80, 0
2, 575520, Note_on_c, 1, 72, 52
2, 576240, Note_on_c, 1, 72, 0
2, 576240, Note_on_c, 1, 75, 44
2, 576360, Note_on_c, 1, 75, 0
2, 576360, Note_on_c, 1, 74, 43
2, 576905, Note_on_c, 1, 74, 0
2, 576960, Note_on_c, 1, 72, 78
2, 577055, Note_on_c, 1, 72, 0
2, 577080, Note_on_c, 1, 79, 78
2, 577175, Note_on_c, 1, 79, 0
2, 577200, Note_on_c, 1, 78, 79
2, 577295, Note_on_c, 1, 78, 0
2, 577320, Note_on_c, 1, 79, 79
2, 577415, Note_on_c, 1, 79, 0
2, 577440, Note_on_c, 1, 81, 80
2, 577535, Note_on_c, 1, 81, 0
2, 577560, Note_on_c, 1, 79, 81
2, 577655, Note_on_c, 1, 79, 0
2, 577680, Note_on_c, 1, 77, 81
2, 577775, Note_on_c, 1, 77, 0
2, 577800, Note_on_c, 1, 79, 82
2, 577895, Note_on_c, 1, 79, 0
2, 577920, Note_on_c, 1, 77, 82
2, 578015, Note_on_c, 1, 77, 0
2, 578040, Note_on_c, 1, 79, 83
2, 578135, Note_on_c, 1, 79, 0
2, 578160, Note_on_c, 1, 77, 83
2, 578255, Note_on_c, 1, 77, 0
2, 578280, Note_on_c, 1, 79, 84
2, 578375, Note_on_c, 1, 79, 0
2, 578400, Note_on_c, 1, 76, 84
2, 578495, Note_on_c, 1, 76, 0
2, 578520, Note_on_c, 1, 79, 85
2, 578615, Note_on_c, 1, 79, 0
2, 578640, Note_on_c, 1, 78, 85
2, 578735, Note_on_c, 1, 78, 0
2, 578760, Note_on_c, 1, 79, 86
2, 578855, Note_on_c, 1, 79, 0
2, 578880, Note_on_c, 1, 84, 86
2, 578975, Note_on_c, 1, 84, 0
2, 579000, Note_on_c, 1, 79, 87
2, 579095, Note_on_c, 1, 79, 0
2, 579120, Note_on_c, 1, 77, 88
2, 579215, Note_on_c, 1, 77, 0
2, 579240, Note_on_c, 1, 79, 88
2, 579335, Note_on_c, 1, 79, 0
2, 579360, Note_on_c, 1, 77, 89
2, 579455, Note_on_c, 1, 77, 0
2, 579480, Note_on_c, 1, 79, 89
2, 579575, Note_on_c, 1, 79, 0
2, 579600, Note_on_c, 1, 77, 90
2, 579695, Note_on_c, 1, 77, 0
2, 579720, Note_on_c, 1, 79, 90
2, 579815, Note_on_c, 1, 79, 0
2, 579840, Note_on_c, 1, 76, 91
2, 579935, Note_on_c, 1, 76, 0
2, 579960, Note_on_c, 1, 79, 91
2, 580055, Note_on_c, 1, 79, 0
2, 580080, Note_on_c, 1, 78, 92
2, 580175, Note_on_c, 1, 78, 0
2, 580200, Note_on_c, 1, 79, 92
2, 580295, Note_on_c, 1, 79, 0
2, 580320, Note_on_c, 1, 84, 93
2, 580415, Note_on_c, 1, 84, 0
2, 580440, Note_on_c, 1, 79, 93
2, 580535, Note_on_c, 1, 79, 0
2, 580560, Note_on_c, 1, 77, 94
2, 580655, Note_on_c, 1, 77, 0
2, 580680, Note_on_c, 1, 79, 95
2, 580775, Note_on_c, 1, 79, 0
2, 580800, Note_on_c, 1, 77, 95
2, 580895, Note_on_c, 1, 77, 0
2, 580920, Note_on_c, 1, 79, 96
2, 581015, Note_on_c, 1, 79, 0
2, 581040, Note_on_c, 1, 77, 96
2, 581135, Note_on_c, 1, 77, 0
2, 581160, Note_on_c, 1, 79, 97
2, 581255, Note_on_c, 1, 79, 0
2, 581280, Note_on_c, 1, 76, 97
2, 581375, Note_on_c, 1, 76, 0
2, 581400, Note_on_c, 1, 79, 96
2, 581495, Note_on_c, 1, 79, 0
2, 581520, Note_on_c, 1, 84, 95
2, 581615, Note_on_c, 1, 84, 0
2, 581640, Note_on_c, 1, 76, 94
2, 581735, Note_on_c, 1, 76, 0
2, 581760, Note_on_c, 1, 74, 93
2, 581880, Note_on_c, 1, 83, 92
2, 581940, Note_on_c, 1, 74, 0
2, 581975, Note_on_c, 1, 83, 0
2, 582000, Note_on_c, 1, 72, 91
2, 582120, Note_on_c, 1, 81, 90
2, 582180, Note_on_c, 1, 72, 0
2, 582215, Note_on_c, 1, 81, 0
2, 582240, Note_on_c, 1, 71, 89
2, 582360, Note_on_c, 1, 79, 88
2, 582420, Note_on_c, 1, 71, 0
2, 582455, Note_on_c, 1, 79, 0
2, 582480, Note_on_c, 1, 69, 87
2, 582600, Note_on_c, 1, 77, 86
2, 582660, Note_on_c, 1, 69, 0
2, 582695, Note_on_c, 1, 77, 0
2, 582720, Note_on_c, 1, 67, 85
2, 582840, Note_on_c, 1, 76, 84
2, 582900, Note_on_c, 1, 67, 0
2, 582935, Note_on_c, 1, 76, 0
2, 582960, Note_on_c, 1, 65, 83
2, 583080, Note_on_c, 1, 74, 82
2, 583140, Note_on_c, 1, 65, 0
2, 583175, Note_on_c, 1, 74, 0
2, 583200, Note_on_c, 1, 64, 81
2, 583320, Note_on_c, 1, 72, 80
2, 583380, Note_on_c, 1, 64, 0
2, 583415, Note_on_c, 1, 72, 0
2, 583440, Note_on_c, 1, 62, 79
2, 583560, Note_on_c, 1, 71, 78
2, 583620, Note_on_c, 1, 62, 0
2, 583655, Note_on_c, 1, 71, 0
2, 583680, Note_on_c, 1, 60, 77
2, 583800, Note_on_c, 1, 69, 76
2, 583860, Note_on_c, 1, 60, 0
2, 583895, Note_on_c, 1, 69, 0
2, 583920, Note_on_c, 1, 59, 75
2, 584040, Note_on_c, 1, 67, 74
2, 584100, Note_on_c, 1, 59, 0
2, 584135, Note_on_c, 1, 67, 0
2, 584160, Note_on_c, 1, 66, 73
2, 584760, Note_on_c, 1, 66, 0
2, 584880, Note_on_c, 1, 65, 67
2, 585485, Note_on_c, 1, 65, 0
2, 585600, Note_on_c, 1, 77, 61
2, 586205, Note_on_c, 1, 77, 0
2, 586320, Note_on_c, 1, 71, 55
2, 586920, Note_on_c, 1, 71, 0
2, 587280, Note_on_c, 1, 79, 47
2, 587435, Note_on_c, 1, 79, 0
2, 587520, Note_on_c, 1, 79, 45
2, 587675, Note_on_c, 1, 79, 0
2, 588000, Note_on_c, 1, 81, 41
2, 588155, Note_on_c, 1, 81, 0
2, 588240, Note_on_c, 1, 81, 39
2, 588395, Note_on_c, 1, 81, 0
2, 588480, Note_on_c, 1, 72, 41
2, 589200, Note_on_c, 1, 72, 0
2, 589200, Note_on_c, 1, 76, 32
2, 589320, Note_on_c, 1, 76, 0
2, 589320, Note_on_c, 1, 74, 30
2, 589800, Note_on_c, 1, 74, 0
2, 589920, Note_on_c, 1, 72, 72
2, 590015, Note_on_c, 1, 72, 0
2, 590040, Note_on_c, 1, 79, 72
2, 590135, Note_on_c, 1, 79, 0
2, 590160, Note_on_c, 1, 78, 73
2, 590255, Note_on_c, 1, 78, 0
2, 590280, Note_on_c, 1, 79, 73
2, 590375, Note_on_c, 1, 79, 0
2, 590400, Note_on_c, 1, 81, 73
2, 590495, Note_on_c, 1, 81, 0
2, 590520, Note_on_c, 1, 79, 74
2, 590615, Note_on_c, 1, 79, 0
2, 590640, Note_on_c, 1, 77, 74
2, 590735, Note_on_c, 1, 77, 0
2, 590760, Note_on_c, 1, 79, 74
2, 590855, Note_on_c, 1, 79, 0
2, 590880, Note_on_c, 1, 77, 75
2, 590975, Note_on_c, 1, 77, 0
2, 591000, Note_on_c, 1, 79, 75
2, 591095, Note_on_c, 1, 79, 0
2, 591120, Note_on_c, 1, 77, 75
2, 591215, Note_on_c, 1, 77, 0
2, 591240, Note_on_c, 1, 79, 76
2, 591335, Note_on_c, 1, 79, 0
2, 591360, Note_on_c, 1, 76, 76
2, 591455, Note_on_c, 1, 76, 0
2, 591480, Note_on_c, 1, 79, 77
2, 591575, Note_on_c, 1, 79, 0
2, 591600, Note_on_c, 1, 78, 77
2, 591695, Note_on_c, 1, 78, 0
2, 591720, Note_on_c, 1, 79, 77
2, 591815, Note_on_c, 1, 79, 0
2, 591840, Note_on_c, 1, 84, 78
2, 591935, Note_on_c, 1, 84, 0
2, 591960, Note_on_c, 1, 79, 78
2, 592055, Note_on_c, 1, 79, 0
2, 592080, Note_on_c, 1, 77, 78
2, 592175, Note_on_c, 1, 77, 0
2, 592200, Note_on_c, 1, 79, 79
2, 592295, Note_on_c, 1, 79, 0
2, 592320, Note_on_c, 1, 77, 79
2, 592415, Note_on_c, 1, 77, 0
2, 592440, Note_on_c, 1, 79, 79
2, 592535, Note_on_c, 1, 79, 0
2, 592560, Note_on_c, 1, 77, 80
2, 592655, Note_on_c, 1, 77, 0
2, 592680, Note_on_c, 1, 79, 80
2, 592775, Note_on_c, 1, 79, 0
2, 592800, Note_on_c, 1, 76, 81
2, 592895, Note_on_c, 1, 76, 0
2, 592920, Note_on_c, 1, 79, 81
2, 593015, Note_on_c, 1, 79, 0
2, 593040, Note_on_c, 1, 78, 81
2, 593135, Note_on_c, 1, 78, 0
2, 593160, Note_on_c, 1, 79, 82
2, 593255, Note_on_c, 1, 79, 0
2, 593280, Note_on_c, 1, 84, 82
2, 593375, Note_on_c, 1, 84, 0
2, 593400, Note_on_c, 1, 79, 82
2, 593495, Note_on_c, 1, 79, 0
2, 593520, Note_on_c, 1, 77, 83
2, 593615, Note_on_c, 1, 77, 0
2, 593640, Note_on_c, 1, 79, 83
2, 593735, Note_on_c, 1, 79, 0
2, 593760, Note_on_c, 1, 77, 83
2, 593855, Note_on_c, 1, 77, 0
2, 593880, Note_on_c, 1, 79, 84
2, 593975, Note_on_c, 1, 79, 0
2, 594000, Note_on_c, 1, 77, 84
2, 594095, Note_on_c, 1, 77, 0
2, 594120, Note_on_c, 1, 79, 85
2, 594215, Note_on_c, 1, 79, 0
2, 594240, Note_on_c, 1, 76, 85
2, 594335, Note_on_c, 1, 76, 0
2, 594360, Note_on_c, 1, 79, 84
2, 594455, Note_on_c, 1, 79, 0
2, 594480, Note_on_c, 1, 84, 83
2, 594575, Note_on_c, 1, 84, 0
2, 594600, Note_on_c, 1, 76, 83
2, 594695, Note_on_c, 1, 76, 0
2, 594720, Note_on_c, 1, 74, 82
2, 594840, Note_on_c, 1, 83, 81
2, 594900, Note_on_c, 1, 74, 0
2, 594935, Note_on_c, 1, 83, 0
2, 594960, Note_on_c, 1, 72, 80
2, 595080, Note_on_c, 1, 81, 79
2, 595140, Note_on_c, 1, 72, 0
2, 595175, Note_on_c, 1, 81, 0
2, 595200, Note_on_c, 1, 71, 78
2, 595320, Note_on_c, 1, 79, 77
2, 595380, Note_on_c, 1, 71, 0
2, 595415, Note_on_c, 1, 79, 0
2, 595440, Note_on_c, 1, 69, 76
2, 595560, Note_on_c, 1, 77, 76
2, 595620, Note_on_c, 1, 69, 0
2, 595655, Note_on_c, 1, 77, 0
2, 595680, Note_on_c, 1, 67, 75
2, 595800, Note_on_c, 1, 76, 74
2, 595860, Note_on_c, 1, 67, 0
2, 595895, Note_on_c, 1, 76, 0
2, 595920, Note_on_c, 1, 65, 73
2, 596040, Note_on_c, 1, 74, 72
2, 596100, Note_on_c, 1, 65, 0
2, 596135, Note_on_c, 1, 74, 0
2, 596160, Note_on_c, 1, 64, 71
2, 596280, Note_on_c, 1, 72, 70
2, 596340, Note_on_c, 1, 64, 0
2, 596375, Note_on_c, 1, 72, 0
2, 596400, Note_on_c, 1, 62, 70
2, 596520, Note_on_c, 1, 71, 69
2, 596580, Note_on_c, 1, 62, 0
2, 596615, Note_on_c, 1, 71, 0
2, 596640, Note_on_c, 1, 60, 68
2, 596760, Note_on_c, 1, 69, 67
2, 596820, Note_on_c, 1, 60, 0
2, 596855, Note_on_c, 1, 69, 0
2, 596880, Note_on_c, 1, 59, 66
2, 597000, Note_on_c, 1, 67, 65
2, 597060, Note_on_c, 1, 59, 0
2, 597095, Note_on_c, 1, 67, 0
2, 597120, Note_on_c, 1, 66, 64
2, 597720, Note_on_c, 1, 66, 0
2, 597840, Note_on_c, 1, 65, 59
2, 598440, Note_on_c, 1, 65, 0
2, 598560, Note_on_c, 1, 77, 54
2, 599165, Note_on_c, 1, 77, 0
2, 599280, Note_on_c, 1, 71, 49
2, 599880, Note_on_c, 1, 71, 0
2, 600240, Note_on_c, 1, 79, 42
2, 600395, Note_on_c, 1, 79, 0
2, 600480, Note_on_c, 1, 79, 40
2, 600635, Note_on_c, 1, 79, 0
2, 600960, Note_on_c, 1, 81, 37
2, 601115, Note_on_c, 1, 81, 0
2, 601200, Note_on_c, 1, 81, 35
2, 601355, Note_on_c, 1, 81, 0
2, 601440, Note_on_c, 1, 72, 33
2, 602160, Note_on_c, 1, 72, 0
2, 602160, Note_on_c, 1, 71, 26
2, 602765, Note_on_c, 1, 71, 0
2, 602880, Note_on_c, 1, 78, 89
2, 603000, Note_on_c, 1, 78, 0
2, 603000, Note_on_c, 1, 79, 89
2, 603120, Note_on_c, 1, 79, 0
2, 603120, Note_on_c, 1, 78, 89
2, 603240, Note_on_c, 1, 78, 0
2, 603240, Note_on_c, 1, 79, 88
2, 603360, Note_on_c, 1, 79, 0
2, 603360, Note_on_c, 1, 78, 88
2, 603480, Note_on_c, 1, 78, 0
2, 603480, Note_on_c, 1, 79, 88
2, 603575, Note_on_c, 1, 79, 0
2, 603600, Note_on_c, 1, 80, 87
2, 603720, Note_on_c, 1, 80, 0
2, 603720, Note_on_c, 1, 81, 87
2, 603840, Note_on_c, 1, 81, 0
2, 603840, Note_on_c, 1, 80, 87
2, 603960, Note_on_c, 1, 80, 0
2, 603960, Note_on_c, 1, 81, 86
2, 604080, Note_on_c, 1, 81, 0
2, 604080, Note_on_c, 1, 83, 86
2, 604200, Note_on_c, 1, 83, 0
2, 604200, Note_on_c, 1, 84, 86
2, 604295, Note_on_c, 1, 84, 0
2, 604320, Note_on_c, 1, 72, 85
2, 605040, Note_on_c, 1, 72, 0
2, 605040, Note_on_c, 1, 76, 83
2, 605160, Note_on_c, 1, 76, 0
2, 605160, Note_on_c, 1, 74, 83
2, 605640, Note_on_c, 1, 72, 82
2, 605650, Note_on_c, 1, 74, 0
2, 605735, Note_on_c, 1, 72, 0
2, 605760, Note_on_c, 1, 72, 81
2, 605855, Note_on_c, 1, 72, 0
2, 605880, Note_on_c, 1, 76, 81
2, 605975, Note_on_c, 1, 76, 0
2, 606000, Note_on_c, 1, 79, 81
2, 606095, Note_on_c, 1, 79, 0
2, 606120, Note_on_c, 1, 84, 81
2, 606215, Note_on_c, 1, 84, 0
2, 606240, Note_on_c, 1, 83, 80
2, 606335, Note_on_c, 1, 83, 0
2, 606360, Note_on_c, 1, 81, 80
2, 606455, Note_on_c, 1, 81, 0
2, 606480, Note_on_c, 1, 79, 80
2, 606575, Note_on_c, 1, 79, 0
2, 606600, Note_on_c, 1, 81, 79
2, 606695, Note_on_c, 1, 81, 0
2, 606720, Note_on_c, 1, 79, 79
2, 606815, Note_on_c, 1, 79, 0
2, 606840, Note_on_c, 1, 77, 79
2, 606935, Note_on_c, 1, 77, 0
2, 606960, Note_on_c, 1, 76, 78
2, 607055, Note_on_c, 1, 76, 0
2, 607080, Note_on_c, 1, 74, 78
2, 607175, Note_on_c, 1, 74, 0
2, 607200, Note_on_c, 1, 72, 78
2, 607295, Note_on_c, 1, 72, 0
2, 607320, Note_on_c, 1, 76, 77
2, 607415, Note_on_c, 1, 76, 0
2, 607440, Note_on_c, 1, 74, 77
2, 607535, Note_on_c, 1, 74, 0
2, 607560, Note_on_c, 1, 72, 77
2, 607655, Note_on_c, 1, 72, 0
2, 607680, Note_on_c, 1, 71, 76
2, 607775, Note_on_c, 1, 71, 0
2, 607800, Note_on_c, 1, 69, 76
2, 607895, Note_on_c, 1, 69, 0
2, 607920, Note_on_c, 1, 67, 76
2, 608015, Note_on_c, 1, 67, 0
2, 608040, Note_on_c, 1, 69, 75
2, 608135, Note_on_c, 1, 69, 0
2, 608160, Note_on_c, 1, 67, 75
2, 608255, Note_on_c, 1, 67, 0
2, 608280, Note_on_c, 1, 65, 75
2, 608375, Note_on_c, 1, 65, 0
2, 608400, Note_on_c, 1, 64, 74
2, 608495, Note_on_c, 1, 64, 0
2, 608520, Note_on_c, 1, 62, 74
2, 608615, Note_on_c, 1, 62, 0
2, 608640, Note_on_c, 1, 60, 74
2, 608735, Note_on_c, 1, 60, 0
2, 608760, Note_on_c, 1, 64, 73
2, 608855, Note_on_c, 1, 64, 0
2, 608880, Note_on_c, 1, 62, 73
2, 608975, Note_on_c, 1, 62, 0
2, 609000, Note_on_c, 1, 60, 73
2, 609095, Note_on_c, 1, 60, 0
2, 609120, Note_on_c, 1, 59, 72
2, 609215, Note_on_c, 1, 59, 0
2, 609240, Note_on_c, 1, 57, 72
2, 609335, Note_on_c, 1, 57, 0
2, 609360, Note_on_c, 1, 55, 72
2, 609455, Note_on_c, 1, 55, 0
2, 609480, Note_on_c, 1, 57, 71
2, 609575, Note_on_c, 1, 57, 0
2, 609600, Note_on_c, 1, 55, 71
2, 609695, Note_on_c, 1, 55, 0
2, 609720, Note_on_c, 1, 53, 71
2, 609815, Note_on_c, 1, 53, 0
2, 609840, Note_on_c, 1, 52, 70
2, 609935, Note_on_c, 1, 52, 0
2, 609960, Note_on_c, 1, 50, 70
2, 610055, Note_on_c, 1, 50, 0
2, 610080, Note_on_c, 1, 48, 68
2, 610235, Note_on_c, 1, 48, 0
2, 610320, Note_on_c, 1, 52, 71
2, 610475, Note_on_c, 1, 52, 0
2, 610560, Note_on_c, 1, 55, 74
2, 610715, Note_on_c, 1, 55, 0
2, 610800, Note_on_c, 1, 60, 77
2, 610955, Note_on_c, 1, 60, 0
2, 611040, Note_on_c, 1, 64, 80
2, 611195, Note_on_c, 1, 64, 0
2, 611280, Note_on_c, 1, 67, 83
2, 611435, Note_on_c, 1, 67, 0
2, 611520, Note_on_c, 1, 72, 88
2, 611905, Note_on_c, 1, 72, 0
2, 612240, Note_on_c, 1, 79, 90
2, 612625, Note_on_c, 1, 79, 0
2, 612960, Note_on_c, 1, 84, 93
2, 613345, Note_on_c, 1, 84, 0
2, 614520, Note_on_c, 1, 79, 92
2, 614615, Note_on_c, 1, 79, 0
2, 614640, Note_on_c, 1, 78, 92
2, 614735, Note_on_c, 1, 78, 0
2, 614760, Note_on_c, 1, 79, 91
2, 614855, Note_on_c, 1, 79, 0
2, 614880, Note_on_c, 1, 84, 91
2, 614975, Note_on_c, 1, 84, 0
2, 615000, Note_on_c, 1, 79, 90
2, 615095, Note_on_c, 1, 79, 0
2, 615120, Note_on_c, 1, 77, 90
2, 615215, Note_on_c, 1, 77, 0
2, 615240, Note_on_c, 1, 75, 89
2, 615335, Note_on_c, 1, 75, 0
2, 615360, Note_on_c, 1, 74, 88
2, 615455, Note_on_c, 1, 74, 0
2, 615480, Note_on_c, 1, 75, 88
2, 615575, Note_on_c, 1, 75, 0
2, 615600, Note_on_c, 1, 79, 87
2, 615695, Note_on_c, 1, 79, 0
2, 615720, Note_on_c, 1, 75, 87
2, 615815, Note_on_c, 1, 75, 0
2, 615840, Note_on_c, 1, 74, 86
2, 615935, Note_on_c, 1, 74, 0
2, 615960, Note_on_c, 1, 72, 86
2, 616055, Note_on_c, 1, 72, 0
2, 616080, Note_on_c, 1, 71, 85
2, 616175, Note_on_c, 1, 71, 0
2, 616200, Note_on_c, 1, 72, 85
2, 616295, Note_on_c, 1, 72, 0
2, 616320, Note_on_c, 1, 75, 84
2, 616415, Note_on_c, 1, 75, 0
2, 616440, Note_on_c, 1, 72, 84
2, 616535, Note_on_c, 1, 72, 0
2, 616560, Note_on_c, 1, 68, 83
2, 616655, Note_on_c, 1, 68, 0
2, 616680, Note_on_c, 1, 67, 83
2, 616775, Note_on_c, 1, 67, 0
2, 616800, Note_on_c, 1, 66, 82
2, 616895, Note_on_c, 1, 66, 0
2, 616920, Note_on_c, 1, 67, 81
2, 617015, Note_on_c, 1, 67, 0
2, 617040, Note_on_c, 1, 72, 81
2, 617135, Note_on_c, 1, 72, 0
2, 617160, Note_on_c, 1, 67, 80
2, 617255, Note_on_c, 1, 67, 0
2, 617280, Note_on_c, 1, 65, 80
2, 617375, Note_on_c, 1, 65, 0
2, 617400, Note_on_c, 1, 63, 81
2, 617495, Note_on_c, 1, 63, 0
2, 617520, Note_on_c, 1, 62, 81
2, 617615, Note_on_c, 1, 62, 0
2, 617640, Note_on_c, 1, 63, 82
2, 617735, Note_on_c, 1, 63, 0
2, 617760, Note_on_c, 1, 67, 82
2, 617855, Note_on_c, 1, 67, 0
2, 617880, Note_on_c, 1, 63, 83
2, 617975, Note_on_c, 1, 63, 0
2, 618000, Note_on_c, 1, 60, 83
2, 618192, Note_on_c, 1, 60, 0
2, 618240, Note_on_c, 1, 59, 84
2, 618432, Note_on_c, 1, 59, 0
2, 618480, Note_on_c, 1, 60, 86
2, 618672, Note_on_c, 1, 60, 0
2, 618720, Note_on_c, 1, 62, 87
2, 618912, Note_on_c, 1, 62, 0
2, 618960, Note_on_c, 1, 60, 88
2, 619152, Note_on_c, 1, 60, 0
2, 619200, Note_on_c, 1, 62, 89
2, 619392, Note_on_c, 1, 62, 0
2, 619440, Note_on_c, 1, 64, 90
2, 619632, Note_on_c, 1, 64, 0
2, 619680, Note_on_c, 1, 62, 91
2, 619872, Note_on_c, 1, 62, 0
2, 619920, Note_on_c, 1, 64, 92
2, 620112, Note_on_c, 1, 64, 0
2, 620160, Note_on_c, 1, 65, 99
2, 620640, Note_on_c, 1, 65, 0
2, 620640, Note_on_c, 1, 63, 91
2, 620832, Note_on_c, 1, 63, 0
2, 620880, Note_on_c, 1, 65, 95
2, 621360, Note_on_c, 1, 65, 0
2, 621360, Note_on_c, 1, 63, 89
2, 621552, Note_on_c, 1, 63, 0
2, 621600, Note_on_c, 1, 62, 86
2, 621792, Note_on_c, 1, 62, 0
2, 621840, Note_on_c, 1, 63, 86
2, 622032, Note_on_c, 1, 63, 0
2, 622080, Note_on_c, 1, 62, 86
2, 622272, Note_on_c, 1, 62, 0
2, 622320, Note_on_c, 1, 63, 85
2, 622512, Note_on_c, 1, 63, 0
2, 622560, Note_on_c, 1, 65, 85
2, 622752, Note_on_c, 1, 65, 0
2, 622800, Note_on_c, 1, 63, 85
2, 622992, Note_on_c, 1, 63, 0
2, 623040, Note_on_c, 1, 62, 84
2, 623232, Note_on_c, 1, 62, 0
2, 623280, Note_on_c, 1, 63, 84
2, 623472, Note_on_c, 1, 63, 0
2, 623520, Note_on_c, 1, 62, 83
2, 623712, Note_on_c, 1, 62, 0
2, 623760, Note_on_c, 1, 63, 83
2, 623952, Note_on_c, 1, 63, 0
2, 624000, Note_on_c, 1, 65, 83
2, 624192, Note_on_c, 1, 65, 0
2, 624240, Note_on_c, 1, 63, 82
2, 624432, Note_on_c, 1, 63, 0
2, 624480, Note_on_c, 1, 62, 82
2, 624865, Note_on_c, 1, 62, 0
2, 625080, Note_on_c, 1, 66, 85
2, 625200, Note_on_c, 1, 66, 0
2, 625200, Note_on_c, 1, 72, 88
2, 625385, Note_on_c, 1, 72, 0
2, 625800, Note_on_c, 1, 78, 89
2, 625920, Note_on_c, 1, 78, 0
2, 625920, Note_on_c, 1, 84, 92
2, 626015, Note_on_c, 1, 84, 0
2, 626040, Note_on_c, 1, 82, 90
2, 626135, Note_on_c, 1, 82, 0
2, 626160, Note_on_c, 1, 81, 89
2, 626255, Note_on_c, 1, 81, 0
2, 626280, Note_on_c, 1, 79, 88
2, 626375, Note_on_c, 1, 79, 0
2, 626400, Note_on_c, 1, 78, 86
2, 626495, Note_on_c, 1, 78, 0
2, 626520, Note_on_c, 1, 79, 85
2, 626615, Note_on_c, 1, 79, 0
2, 626640, Note_on_c, 1, 78, 84
2, 626735, Note_on_c, 1, 78, 0
2, 626760, Note_on_c, 1, 79, 83
2, 626855, Note_on_c, 1, 79, 0
2, 626880, Note_on_c, 1, 78, 82
2, 626975, Note_on_c, 1, 78, 0
2, 627000, Note_on_c, 1, 75, 80
2, 627095, Note_on_c, 1, 75, 0
2, 627120, Note_on_c, 1, 74, 79
2, 627215, Note_on_c, 1, 74, 0
2, 627240, Note_on_c, 1, 72, 78
2, 627335, Note_on_c, 1, 72, 0
2, 627360, Note_on_c, 1, 71, 77
2, 627552, Note_on_c, 1, 71, 0
2, 627600, Note_on_c, 1, 72, 77
2, 627792, Note_on_c, 1, 72, 0
2, 627840, Note_on_c, 1, 71, 76
2, 628032, Note_on_c, 1, 71, 0
2, 628080, Note_on_c, 1, 72, 76
2, 628272, Note_on_c, 1, 72, 0
2, 628320, Note_on_c, 1, 73, 75
2, 628512, Note_on_c, 1, 73, 0
2, 628560, Note_on_c, 1, 72, 75
2, 628752, Note_on_c, 1, 72, 0
2, 628800, Note_on_c, 1, 71, 74
2, 628992, Note_on_c, 1, 71, 0
2, 629040, Note_on_c, 1, 72, 74
2, 629232, Note_on_c, 1, 72, 0
2, 629280, Note_on_c, 1, 71, 74
2, 629472, Note_on_c, 1, 71, 0
2, 629520, Note_on_c, 1, 72, 73
2, 629712, Note_on_c, 1, 72, 0
2, 629760, Note_on_c, 1, 73, 73
2, 629952, Note_on_c, 1, 73, 0
2, 630000, Note_on_c, 1, 72, 72
2, 630192, Note_on_c, 1, 72, 0
2, 630240, Note_on_c, 1, 71, 72
2, 630480, Note_on_c, 1, 71, 0
2, 630840, Note_on_c, 1, 71, 77
2, 630960, Note_on_c, 1, 71, 0
2, 630960, Note_on_c, 1, 77, 80
2, 631155, Note_on_c, 1, 77, 0
2, 631560, Note_on_c, 1, 83, 84
2, 631680, Note_on_c, 1, 83, 0
2, 631680, Note_on_c, 1, 89, 87
2, 631775, Note_on_c, 1, 89, 0
2, 631800, Note_on_c, 1, 87, 83
2, 631895, Note_on_c, 1, 87, 0
2, 631920, Note_on_c, 1, 86, 81
2, 632015, Note_on_c, 1, 86, 0
2, 632040, Note_on_c, 1, 84, 79
2, 632135, Note_on_c, 1, 84, 0
2, 632160, Note_on_c, 1, 83, 78
2, 632255, Note_on_c, 1, 83, 0
2, 632280, Note_on_c, 1, 80, 76
2, 632375, Note_on_c, 1, 80, 0
2, 632400, Note_on_c, 1, 79, 74
2, 632495, Note_on_c, 1, 79, 0
2, 632520, Note_on_c, 1, 78, 72
2, 632615, Note_on_c, 1, 78, 0
2, 632640, Note_on_c, 1, 79, 71
2, 632735, Note_on_c, 1, 79, 0
2, 632760, Note_on_c, 1, 80, 69
2, 632855, Note_on_c, 1, 80, 0
2, 632880, Note_on_c, 1, 79, 67
2, 632975, Note_on_c, 1, 79, 0
2, 633000, Note_on_c, 1, 77, 66
2, 633095, Note_on_c, 1, 77, 0
2, 633120, Note_on_c, 1, 76, 67
2, 633312, Note_on_c, 1, 76, 0
2, 633360, Note_on_c, 1, 77, 67
2, 633552, Note_on_c, 1, 77, 0
2, 633600, Note_on_c, 1, 76, 66
2, 633792, Note_on_c, 1, 76, 0
2, 633840, Note_on_c, 1, 77, 66
2, 634032, Note_on_c, 1, 77, 0
2, 634080, Note_on_c, 1, 76, 65
2, 634272, Note_on_c, 1, 76, 0
2, 634320, Note_on_c, 1, 77, 65
2, 634512, Note_on_c, 1, 77, 0
2, 634560, Note_on_c, 1, 76, 65
2, 634752, Note_on_c, 1, 76, 0
2, 634800, Note_on_c, 1, 77, 64
2, 634992, Note_on_c, 1, 77, 0
2, 635040, Note_on_c, 1, 76, 64
2, 635232, Note_on_c, 1, 76, 0
2, 635280, Note_on_c, 1, 77, 63
2, 635472, Note_on_c, 1, 77, 0
2, 635520, Note_on_c, 1, 76, 63
2, 635712, Note_on_c, 1, 76, 0
2, 635760, Note_on_c, 1, 77, 63
2, 635952, Note_on_c, 1, 77, 0
2, 636000, Note_on_c, 1, 76, 62
2, 636240, Note_on_c, 1, 76, 0
2, 636600, Note_on_c, 1, 64, 68
2, 636720, Note_on_c, 1, 64, 0
2, 636720, Note_on_c, 1, 70, 70
2, 636900, Note_on_c, 1, 70, 0
2, 637320, Note_on_c, 1, 76, 75
2, 637440, Note_on_c, 1, 76, 0
2, 637440, Note_on_c, 1, 82, 78
2, 637535, Note_on_c, 1, 82, 0
2, 637560, Note_on_c, 1, 81, 75
2, 637655, Note_on_c, 1, 81, 0
2, 637680, Note_on_c, 1, 79, 73
2, 637775, Note_on_c, 1, 79, 0
2, 637800, Note_on_c, 1, 77, 71
2, 637895, Note_on_c, 1, 77, 0
2, 637920, Note_on_c, 1, 76, 69
2, 638015, Note_on_c, 1, 76, 0
2, 638040, Note_on_c, 1, 74, 67
2, 638135, Note_on_c, 1, 74, 0
2, 638160, Note_on_c, 1, 72, 66
2, 638255, Note_on_c, 1, 72, 0
2, 638280, Note_on_c, 1, 74, 64
2, 638375, Note_on_c, 1, 74, 0
2, 638400, Note_on_c, 1, 72, 62
2, 638495, Note_on_c, 1, 72, 0
2, 638520, Note_on_c, 1, 70, 60
2, 638615, Note_on_c, 1, 70, 0
2, 638640, Note_on_c, 1, 69, 58
2, 638735, Note_on_c, 1, 69, 0
2, 638760, Note_on_c, 1, 67, 56
2, 638855, Note_on_c, 1, 67, 0
2, 638880, Note_on_c, 1, 65, 57
2, 639072, Note_on_c, 1, 65, 0
2, 639120, Note_on_c, 1, 66, 57
2, 639312, Note_on_c, 1, 66, 0
2, 639360, Note_on_c, 1, 65, 57
2, 639552, Note_on_c, 1, 65, 0
2, 639600, Note_on_c, 1, 66, 56
2, 639792, Note_on_c, 1, 66, 0
2, 639840, Note_on_c, 1, 68, 56
2, 640032, Note_on_c, 1, 68, 0
2, 640080, Note_on_c, 1, 66, 55
2, 640272, Note_on_c, 1, 66, 0
2, 640320, Note_on_c, 1, 65, 55
2, 640512, Note_on_c, 1, 65, 0
2, 640560, Note_on_c, 1, 66, 54
2, 640752, Note_on_c, 1, 66, 0
2, 640800, Note_on_c, 1, 65, 54
2, 640992, Note_on_c, 1, 65, 0
2, 641040, Note_on_c, 1, 66, 54
2, 641232, Note_on_c, 1, 66, 0
2, 641280, Note_on_c, 1, 68, 53
2, 641472, Note_on_c, 1, 68, 0
2, 641520, Note_on_c, 1, 66, 53
2, 641712, Note_on_c, 1, 66, 0
2, 641760, Note_on_c, 1, 65, 52
2, 641950, Note_on_c, 1, 65, 0
2, 642360, Note_on_c, 1, 69, 56
2, 642480, Note_on_c, 1, 69, 0
2, 642480, Note_on_c, 1, 75, 60
2, 642665, Note_on_c, 1, 75, 0
2, 643080, Note_on_c, 1, 81, 60
2, 643200, Note_on_c, 1, 81, 0
2, 643200, Note_on_c, 1, 87, 68
2, 643295, Note_on_c, 1, 87, 0
2, 643320, Note_on_c, 1, 86, 62
2, 643415, Note_on_c, 1, 86, 0
2, 643440, Note_on_c, 1, 84, 60
2, 643535, Note_on_c, 1, 84, 0
2, 643560, Note_on_c, 1, 82, 58
2, 643655, Note_on_c, 1, 82, 0
2, 643680, Note_on_c, 1, 81, 57
2, 643775, Note_on_c, 1, 81, 0
2, 643800, Note_on_c, 1, 79, 55
2, 643895, Note_on_c, 1, 79, 0
2, 643920, Note_on_c, 1, 77, 53
2, 644015, Note_on_c, 1, 77, 0
2, 644040, Note_on_c, 1, 79, 52
2, 644135, Note_on_c, 1, 79, 0
2, 644160, Note_on_c, 1, 77, 50
2, 644255, Note_on_c, 1, 77, 0
2, 644280, Note_on_c, 1, 75, 48
2, 644375, Note_on_c, 1, 75, 0
2, 644400, Note_on_c, 1, 74, 47
2, 644495, Note_on_c, 1, 74, 0
2, 644520, Note_on_c, 1, 72, 45
2, 644615, Note_on_c, 1, 72, 0
2, 644640, Note_on_c, 1, 74, 42
2, 644830, Note_on_c, 1, 74, 0
2, 645120, Note_on_c, 1, 74, 46
2, 645360, Note_on_c, 1, 74, 0
2, 645360, Note_on_c, 1, 72, 48
2, 645550, Note_on_c, 1, 72, 0
2, 645840, Note_on_c, 1, 72, 51
2, 646080, Note_on_c, 1, 72, 0
2, 646080, Note_on_c, 1, 75, 59
2, 647280, Note_on_c, 1, 75, 0
2, 647280, Note_on_c, 1, 74, 47
2, 647520, Note_on_c, 1, 74, 0
2, 647520, Note_on_c, 1, 75, 47
2, 647710, Note_on_c, 1, 75, 0
2, 648000, Note_on_c, 1, 75, 51
2, 648240, Note_on_c, 1, 75, 0
2, 648240, Note_on_c, 1, 74, 53
2, 648430, Note_on_c, 1, 74, 0
2, 648720, Note_on_c, 1, 74, 57
2, 648960, Note_on_c, 1, 74, 0
2, 648960, Note_on_c, 1, 79, 67
2, 650160, Note_on_c, 1, 77, 55
2, 650165, Note_on_c, 1, 79, 0
2, 650350, Note_on_c, 1, 77, 0
2, 650400, Note_on_c, 1, 77, 58
2, 650640, Note_on_c, 1, 77, 0
2, 650640, Note_on_c, 1, 76, 55
2, 650830, Note_on_c, 1, 76, 0
2, 650880, Note_on_c, 1, 72, 53
2, 651240, Note_on_c, 1, 72, 0
2, 651360, Note_on_c, 1, 74, 48
2, 651600, Note_on_c, 1, 74, 0
2, 651600, Note_on_c, 1, 75, 46
2, 651840, Note_on_c, 1, 75, 0
2, 651840, Note_on_c, 1, 75, 53
2, 652080, Note_on_c, 1, 75, 0
2, 652080, Note_on_c, 1, 74, 51
2, 652270, Note_on_c, 1, 74, 0
2, 652320, Note_on_c, 1, 70, 49
2, 652685, Note_on_c, 1, 70, 0
2, 652800, Note_on_c, 1, 72, 44
2, 653040, Note_on_c, 1, 72, 0
2, 653040, Note_on_c, 1, 73, 42
2, 653520, Note_on_c, 1, 73, 0
2, 653520, Note_on_c, 1, 72, 47
2, 653710, Note_on_c, 1, 72, 0
2, 653760, Note_on_c, 1, 73, 45
2, 654240, Note_on_c, 1, 73, 0
2, 654240, Note_on_c, 1, 72, 41
2, 654480, Note_on_c, 1, 72, 0
2, 654480, Note_on_c, 1, 70, 39
2, 654670, Note_on_c, 1, 70, 0
2, 654720, Note_on_c, 1, 69, 43
2, 655440, Note_on_c, 1, 69, 0
2, 655440, Note_on_c, 1, 72, 38
2, 655630, Note_on_c, 1, 72, 0
2, 656160, Note_on_c, 1, 74, 75
2, 656352, Note_on_c, 1, 74, 0
2, 656640, Note_on_c, 1, 74, 78
2, 656832, Note_on_c, 1, 74, 0
2, 656880, Note_on_c, 1, 72, 80
2, 657072, Note_on_c, 1, 72, 0
2, 657360, Note_on_c, 1, 72, 84
2, 657552, Note_on_c, 1, 72, 0
2, 657600, Note_on_c, 1, 75, 89
2, 658560, Note_on_c, 1, 75, 0
2, 658800, Note_on_c, 1, 74, 81
2, 658992, Note_on_c, 1, 74, 0
2, 659040, Note_on_c, 1, 75, 80
2, 659232, Note_on_c, 1, 75, 0
2, 659520, Note_on_c, 1, 75, 85
2, 659712, Note_on_c, 1, 75, 0
2, 659760, Note_on_c, 1, 74, 87
2, 659952, Note_on_c, 1, 74, 0
2, 660240, Note_on_c, 1, 74, 93
2, 660432, Note_on_c, 1, 74, 0
2, 660480, Note_on_c, 1, 79, 97
2, 661440, Note_on_c, 1, 79, 0
2, 661680, Note_on_c, 1, 77, 86
2, 661872, Note_on_c, 1, 77, 0
2, 662520, Note_on_c, 1, 76, 84
2, 662640, Note_on_c, 1, 76, 0
2, 663240, Note_on_c, 1, 75, 79
2, 663360, Note_on_c, 1, 75, 0
2, 663960, Note_on_c, 1, 74, 75
2, 664080, Note_on_c, 1, 74, 0
2, 664680, Note_on_c, 1, 72, 71
2, 664800, Note_on_c, 1, 72, 0
2, 665400, Note_on_c, 1, 70, 67
2, 665520, Note_on_c, 1, 70, 0
2, 666120, Note_on_c, 1, 69, 62
2, 666240, Note_on_c, 1, 69, 0
2, 667920, Note_on_c, 1, 50, 65
2, 668160, Note_on_c, 1, 50, 0
2, 668160, Note_on_c, 1, 53, 65
2, 668400, Note_on_c, 1, 53, 0
2, 668400, Note_on_c, 1, 58, 64
2, 668640, Note_on_c, 1, 58, 0
2, 668640, Note_on_c, 1, 62, 63
2, 668880, Note_on_c, 1, 62, 0
2, 668880, Note_on_c, 1, 65, 63
2, 669070, Note_on_c, 1, 65, 0
2, 669120, Note_on_c, 1, 66, 62
2, 669360, Note_on_c, 1, 66, 0
2, 669360, Note_on_c, 1, 69, 61
2, 669600, Note_on_c, 1, 69, 0
2, 669600, Note_on_c, 1, 72, 60
2, 669840, Note_on_c, 1, 72, 0
2, 669840, Note_on_c, 1, 75, 60
2, 670080, Note_on_c, 1, 75, 0
2, 670080, Note_on_c, 1, 78, 59
2, 670320, Note_on_c, 1, 78, 0
2, 670320, Note_on_c, 1, 81, 58
2, 670560, Note_on_c, 1, 81, 0
2, 670560, Note_on_c, 1, 84, 58
2, 670800, Note_on_c, 1, 84, 0
2, 670800, Note_on_c, 1, 81, 57
2, 671040, Note_on_c, 1, 81, 0
2, 671040, Note_on_c, 1, 78, 56
2, 671280, Note_on_c, 1, 78, 0
2, 671280, Note_on_c, 1, 75, 56
2, 671520, Note_on_c, 1, 75, 0
2, 671520, Note_on_c, 1, 74, 55
2, 671760, Note_on_c, 1, 74, 0
2, 671760, Note_on_c, 1, 66, 54
2, 671960, Note_on_c, 1, 66, 0
2, 672000, Note_on_c, 1, 69, 54
2, 672240, Note_on_c, 1, 69, 0
2, 672240, Note_on_c, 1, 67, 53
2, 672480, Note_on_c, 1, 67, 0
2, 672480, Note_on_c, 1, 73, 52
2, 672720, Note_on_c, 1, 73, 0
2, 672720, Note_on_c, 1, 74, 52
2, 672960, Note_on_c, 1, 74, 0
2, 672960, Note_on_c, 1, 78, 51
2, 673200, Note_on_c, 1, 78, 0
2, 673200, Note_on_c, 1, 79, 50
2, 673440, Note_on_c, 1, 79, 0
2, 673440, Note_on_c, 1, 85, 50
2, 673680, Note_on_c, 1, 85, 0
2, 673680, Note_on_c, 1, 86, 49
2, 673920, Note_on_c, 1, 86, 0
2, 673920, Note_on_c, 1, 81, 48
2, 674160, Note_on_c, 1, 81, 0
2, 674160, Note_on_c, 1, 82, 47
2, 674400, Note_on_c, 1, 82, 0
2, 674400, Note_on_c, 1, 78, 47
2, 674640, Note_on_c, 1, 78, 0
2, 674640, Note_on_c, 1, 79, 46
2, 674830, Note_on_c, 1, 79, 0
2, 675120, Note_on_c, 1, 77, 45
2, 675360, Note_on_c, 1, 77, 0
2, 675360, Note_on_c, 1, 76, 41
2, 675550, Note_on_c, 1, 76, 0
2, 675840, Note_on_c, 1, 76, 43
2, 676080, Note_on_c, 1, 76, 0
2, 676080, Note_on_c, 1, 85, 40
2, 676270, Note_on_c, 1, 85, 0
2, 676560, Note_on_c, 1, 85, 41
2, 676800, Note_on_c, 1, 85, 0
2, 676800, Note_on_c, 1, 84, 38
2, 676990, Note_on_c, 1, 84, 0
2, 677280, Note_on_c, 1, 84, 39
2, 677520, Note_on_c, 1, 84, 0
2, 677520, Note_on_c, 1, 76, 36
2, 677710, Note_on_c, 1, 76, 0
2, 678000, Note_on_c, 1, 76, 56
2, 678240, Note_on_c, 1, 76, 0
2, 678240, Note_on_c, 1, 77, 56
2, 678480, Note_on_c, 1, 77, 0
2, 678480, Note_on_c, 1, 84, 55
2, 678720, Note_on_c, 1, 84, 0
2, 678720, Note_on_c, 1, 79, 54
2, 678960, Note_on_c, 1, 79, 0
2, 678960, Note_on_c, 1, 82, 54
2, 679200, Note_on_c, 1, 82, 0
2, 679200, Note_on_c, 1, 80, 53
2, 679440, Note_on_c, 1, 80, 0
2, 679440, Note_on_c, 1, 76, 52
2, 679680, Note_on_c, 1, 76, 0
2, 679680, Note_on_c, 1, 79, 52
2, 679920, Note_on_c, 1, 79, 0
2, 679920, Note_on_c, 1, 77, 51
2, 680160, Note_on_c, 1, 77, 0
2, 680160, Note_on_c, 1, 75, 50
2, 680400, Note_on_c, 1, 75, 0
2, 680400, Note_on_c, 1, 73, 50
2, 680590, Note_on_c, 1, 73, 0
2, 680640, Note_on_c, 1, 72, 49
2, 681360, Note_on_c, 1, 72, 0
2, 681360, Note_on_c, 1, 71, 47
2, 681950, Note_on_c, 1, 71, 0
2, 682080, Note_on_c, 1, 77, 45
2, 682800, Note_on_c, 1, 77, 0
2, 682800, Note_on_c, 1, 71, 43
2, 683405, Note_on_c, 1, 71, 0
2, 683760, Note_on_c, 1, 72, 65
2, 684000, Note_on_c, 1, 72, 0
2, 684000, Note_on_c, 1, 74, 60
2, 684190, Note_on_c, 1, 74, 0
2, 684480, Note_on_c, 1, 74, 71
2, 684720, Note_on_c, 1, 74, 0
2, 684720, Note_on_c, 1, 76, 68
2, 684910, Note_on_c, 1, 76, 0
2, 685200, Note_on_c, 1, 76, 77
2, 685440, Note_on_c, 1, 76, 0
2, 685440, Note_on_c, 1, 77, 74
2, 685630, Note_on_c, 1, 77, 0
2, 685920, Note_on_c, 1, 78, 83
2, 686160, Note_on_c, 1, 78, 0
2, 686160, Note_on_c, 1, 79, 81
2, 686350, Note_on_c, 1, 79, 0
2, 686640, Note_on_c, 1, 79, 89
2, 686880, Note_on_c, 1, 79, 0
2, 686880, Note_on_c, 1, 81, 86
2, 687070, Note_on_c, 1, 81, 0
2, 687360, Note_on_c, 1, 81, 95
2, 687600, Note_on_c, 1, 81, 0
2, 687600, Note_on_c, 1, 82, 92
2, 687790, Note_on_c, 1, 82, 0
2, 687840, Note_on_c, 1, 82, 100
2, 689400, Note_on_c, 1, 82, 0
2, 689400, Note_on_c, 1, 84, 57
2, 689495, Note_on_c, 1, 84, 0
2, 689520, Note_on_c, 1, 86, 57
2, 689615, Note_on_c, 1, 86, 0
2, 689640, Note_on_c, 1, 84, 57
2, 689735, Note_on_c, 1, 84, 0
2, 689760, Note_on_c, 1, 82, 58
2, 689855, Note_on_c, 1, 82, 0
2, 689880, Note_on_c, 1, 81, 58
2, 689975, Note_on_c, 1, 81, 0
2, 690000, Note_on_c, 1, 79, 59
2, 690095, Note_on_c, 1, 79, 0
2, 690120, Note_on_c, 1, 81, 59
2, 690215, Note_on_c, 1, 81, 0
2, 690240, Note_on_c, 1, 82, 60
2, 690335, Note_on_c, 1, 82, 0
2, 690360, Note_on_c, 1, 81, 60
2, 690455, Note_on_c, 1, 81, 0
2, 690480, Note_on_c, 1, 79, 61
2, 690575, Note_on_c, 1, 79, 0
2, 690600, Note_on_c, 1, 77, 61
2, 690695, Note_on_c, 1, 77, 0
2, 690720, Note_on_c, 1, 76, 62
2, 690815, Note_on_c, 1, 76, 0
2, 690840, Note_on_c, 1, 77, 62
2, 690935, Note_on_c, 1, 77, 0
2, 690960, Note_on_c, 1, 79, 63
2, 691055, Note_on_c, 1, 79, 0
2, 691080, Note_on_c, 1, 77, 63
2, 691175, Note_on_c, 1, 77, 0
2, 691200, Note_on_c, 1, 76, 63
2, 691295, Note_on_c, 1, 76, 0
2, 691320, Note_on_c, 1, 74, 64
2, 691415, Note_on_c, 1, 74, 0
2, 691440, Note_on_c, 1, 72, 64
2, 691535, Note_on_c, 1, 72, 0
2, 691560, Note_on_c, 1, 73, 65
2, 691655, Note_on_c, 1, 73, 0
2, 691680, Note_on_c, 1, 74, 65
2, 691775, Note_on_c, 1, 74, 0
2, 691800, Note_on_c, 1, 72, 66
2, 691895, Note_on_c, 1, 72, 0
2, 691920, Note_on_c, 1, 70, 66
2, 692015, Note_on_c, 1, 70, 0
2, 692040, Note_on_c, 1, 69, 67
2, 692135, Note_on_c, 1, 69, 0
2, 692160, Note_on_c, 1, 67, 67
2, 692255, Note_on_c, 1, 67, 0
2, 692280, Note_on_c, 1, 69, 68
2, 692375, Note_on_c, 1, 69, 0
2, 692400, Note_on_c, 1, 70, 68
2, 692495, Note_on_c, 1, 70, 0
2, 692520, Note_on_c, 1, 69, 69
2, 692615, Note_on_c, 1, 69, 0
2, 692640, Note_on_c, 1, 67, 69
2, 692735, Note_on_c, 1, 67, 0
2, 692760, Note_on_c, 1, 65, 70
2, 692855, Note_on_c, 1, 65, 0
2, 692880, Note_on_c, 1, 64, 70
2, 692975, Note_on_c, 1, 64, 0
2, 693000, Note_on_c, 1, 65, 70
2, 693095, Note_on_c, 1, 65, 0
2, 693120, Note_on_c, 1, 67, 71
2, 693215, Note_on_c, 1, 67, 0
2, 693240, Note_on_c, 1, 65, 71
2, 693335, Note_on_c, 1, 65, 0
2, 693360, Note_on_c, 1, 64, 72
2, 693455, Note_on_c, 1, 64, 0
2, 693480, Note_on_c, 1, 62, 72
2, 693575, Note_on_c, 1, 62, 0
2, 693600, Note_on_c, 1, 60, 73
2, 693695, Note_on_c, 1, 60, 0
2, 693720, Note_on_c, 1, 61, 73
2, 693815, Note_on_c, 1, 61, 0
2, 693840, Note_on_c, 1, 62, 74
2, 693935, Note_on_c, 1, 62, 0
2, 693960, Note_on_c, 1, 60, 74
2, 694055, Note_on_c, 1, 60, 0
2, 694080, Note_on_c, 1, 58, 75
2, 694175, Note_on_c, 1, 58, 0
2, 694200, Note_on_c, 1, 57, 75
2, 694295, Note_on_c, 1, 57, 0
2, 694320, Note_on_c, 1, 55, 76
2, 694415, Note_on_c, 1, 55, 0
2, 694440, Note_on_c, 1, 57, 76
2, 694535, Note_on_c, 1, 57, 0
2, 694560, Note_on_c, 1, 58, 76
2, 694655, Note_on_c, 1, 58, 0
2, 694680, Note_on_c, 1, 57, 77
2, 694775, Note_on_c, 1, 57, 0
2, 694800, Note_on_c, 1, 55, 77
2, 694895, Note_on_c, 1, 55, 0
2, 694920, Note_on_c, 1, 53, 78
2, 695015, Note_on_c, 1, 53, 0
2, 695040, Note_on_c, 1, 52, 78
2, 695135, Note_on_c, 1, 52, 0
2, 695160, Note_on_c, 1, 53, 79
2, 695255, Note_on_c, 1, 53, 0
2, 695280, Note_on_c, 1, 55, 79
2, 695375, Note_on_c, 1, 55, 0
2, 695400, Note_on_c, 1, 53, 80
2, 695495, Note_on_c, 1, 53, 0
2, 695520, Note_on_c, 1, 52, 80
2, 695615, Note_on_c, 1, 52, 0
2, 695640, Note_on_c, 1, 50, 81
2, 695735, Note_on_c, 1, 50, 0
2, 695760, Note_on_c, 1, 48, 81
2, 695855, Note_on_c, 1, 48, 0
2, 695880, Note_on_c, 1, 50, 82
2, 695975, Note_on_c, 1, 50, 0
2, 696000, Note_on_c, 1, 48, 82
2, 696095, Note_on_c, 1, 48, 0
2, 696120, Note_on_c, 1, 46, 82
2, 696215, Note_on_c, 1, 46, 0
2, 696240, Note_on_c, 1, 45, 83
2, 696335, Note_on_c, 1, 45, 0
2, 696360, Note_on_c, 1, 43, 83
2, 696455, Note_on_c, 1, 43, 0
2, 696480, Control_c, 1, 64, 0
2, 696600, Note_on_c, 1, 84, 85
2, 696695, Note_on_c, 1, 84, 0
2, 696720, Note_on_c, 1, 83, 84
2, 696815, Note_on_c, 1, 83, 0
2, 696840, Note_on_c, 1, 84, 84
2, 696935, Note_on_c, 1, 84, 0
2, 696960, Note_on_c, 1, 89, 84
2, 697055, Note_on_c, 1, 89, 0
2, 697080, Note_on_c, 1, 84, 83
2, 697175, Note_on_c, 1, 84, 0
2, 697200, Note_on_c, 1, 82, 83
2, 697295, Note_on_c, 1, 82, 0
2, 697320, Note_on_c, 1, 81, 82
2, 697415, Note_on_c, 1, 81, 0
2, 697440, Note_on_c, 1, 80, 82
2, 697535, Note_on_c, 1, 80, 0
2, 697560, Note_on_c, 1, 81, 82
2, 697655, Note_on_c, 1, 81, 0
2, 697680, Note_on_c, 1, 84, 81
2, 697775, Note_on_c, 1, 84, 0
2, 697800, Note_on_c, 1, 81, 81
2, 697895, Note_on_c, 1, 81, 0
2, 697920, Note_on_c, 1, 79, 81
2, 698015, Note_on_c, 1, 79, 0
2, 698040, Note_on_c, 1, 77, 80
2, 698135, Note_on_c, 1, 77, 0
2, 698160, Note_on_c, 1, 76, 80
2, 698255, Note_on_c, 1, 76, 0
2, 698280, Note_on_c, 1, 77, 80
2, 698375, Note_on_c, 1, 77, 0
2, 698400, Note_on_c, 1, 81, 79
2, 698495, Note_on_c, 1, 81, 0
2, 698520, Note_on_c, 1, 77, 79
2, 698615, Note_on_c, 1, 77, 0
2, 698640, Note_on_c, 1, 74, 78
2, 698735, Note_on_c, 1, 74, 0
2, 698760, Note_on_c, 1, 72, 78
2, 698855, Note_on_c, 1, 72, 0
2, 698880, Note_on_c, 1, 71, 78
2, 698975, Note_on_c, 1, 71, 0
2, 699000, Note_on_c, 1, 72, 77
2, 699095, Note_on_c, 1, 72, 0
2, 699120, Note_on_c, 1, 77, 77
2, 699215, Note_on_c, 1, 77, 0
2, 699240, Note_on_c, 1, 72, 77
2, 699335, Note_on_c, 1, 72, 0
2, 699360, Note_on_c, 1, 70, 76
2, 699455, Note_on_c, 1, 70, 0
2, 699480, Note_on_c, 1, 69, 77
2, 699575, Note_on_c, 1, 69, 0
2, 699600, Note_on_c, 1, 68, 78
2, 699695, Note_on_c, 1, 68, 0
2, 699720, Note_on_c, 1, 69, 79
2, 699815, Note_on_c, 1, 69, 0
2, 699840, Note_on_c, 1, 72, 80
2, 699935, Note_on_c, 1, 72, 0
2, 699960, Note_on_c, 1, 69, 81
2, 700055, Note_on_c, 1, 69, 0
2, 700080, Note_on_c, 1, 65, 82
2, 700272, Note_on_c, 1, 65, 0
2, 700320, Note_on_c, 1, 64, 84
2, 700512, Note_on_c, 1, 64, 0
2, 700560, Note_on_c, 1, 65, 86
2, 700752, Note_on_c, 1, 65, 0
2, 700800, Note_on_c, 1, 67, 88
2, 700992, Note_on_c, 1, 67, 0
2, 701040, Note_on_c, 1, 65, 90
2, 701232, Note_on_c, 1, 65, 0
2, 701280, Note_on_c, 1, 67, 92
2, 701472, Note_on_c, 1, 67, 0
2, 701520, Note_on_c, 1, 69, 94
2, 701712, Note_on_c, 1, 69, 0
2, 701760, Note_on_c, 1, 67, 96
2, 701952, Note_on_c, 1, 67, 0
2, 702000, Note_on_c, 1, 69, 98
2, 702192, Note_on_c, 1, 69, 0
2, 702240, Note_on_c, 1, 70, 101
2, 702720, Note_on_c, 1, 70, 0
2, 702720, Note_on_c, 1, 69, 94
2, 702912, Note_on_c, 1, 69, 0
2, 702960, Note_on_c, 1, 70, 99
2, 703440, Note_on_c, 1, 70, 0
2, 703440, Note_on_c, 1, 69, 90
2, 703632, Note_on_c, 1, 69, 0
2, 703680, Note_on_c, 1, 68, 86
2, 703872, Note_on_c, 1, 68, 0
2, 703920, Note_on_c, 1, 68, 78
2, 704112, Note_on_c, 1, 68, 0
2, 704160, Note_on_c, 1, 68, 70
2, 704352, Note_on_c, 1, 68, 0
2, 704400, Note_on_c, 1, 67, 62
2, 704690, Note_on_c, 1, 67, 0
2, 705240, Note_on_c, 1, 84, 81
2, 705335, Note_on_c, 1, 84, 0
2, 705360, Note_on_c, 1, 83, 80
2, 705455, Note_on_c, 1, 83, 0
2, 705480, Note_on_c, 1, 84, 80
2, 705575, Note_on_c, 1, 84, 0
2, 705600, Note_on_c, 1, 89, 80
2, 705695, Note_on_c, 1, 89, 0
2, 705720, Note_on_c, 1, 84, 79
2, 705815, Note_on_c, 1, 84, 0
2, 705840, Note_on_c, 1, 82, 79
2, 705935, Note_on_c, 1, 82, 0
2, 705960, Note_on_c, 1, 81, 78
2, 706055, Note_on_c, 1, 81, 0
2, 706080, Note_on_c, 1, 80, 78
2, 706175, Note_on_c, 1, 80, 0
2, 706200, Note_on_c, 1, 81, 78
2, 706295, Note_on_c, 1, 81, 0
2, 706320, Note_on_c, 1, 84, 77
2, 706415, Note_on_c, 1, 84, 0
2, 706440, Note_on_c, 1, 81, 77
2, 706535, Note_on_c, 1, 81, 0
2, 706560, Note_on_c, 1, 79, 76
2, 706655, Note_on_c, 1, 79, 0
2, 706680, Note_on_c, 1, 77, 76
2, 706775, Note_on_c, 1, 77, 0
2, 706800, Note_on_c, 1, 76, 76
2, 706895, Note_on_c, 1, 76, 0
2, 706920, Note_on_c, 1, 77, 75
2, 707015, Note_on_c, 1, 77, 0
2, 707040, Note_on_c, 1, 81, 75
2, 707135, Note_on_c, 1, 81, 0
2, 707160, Note_on_c, 1, 77, 74
2, 707255, Note_on_c, 1, 77, 0
2, 707280, Note_on_c, 1, 74, 74
2, 707375, Note_on_c, 1, 74, 0
2, 707400, Note_on_c, 1, 72, 74
2, 707495, Note_on_c, 1, 72, 0
2, 707520, Note_on_c, 1, 71, 73
2, 707615, Note_on_c, 1, 71, 0
2, 707640, Note_on_c, 1, 72, 73
2, 707735, Note_on_c, 1, 72, 0
2, 707760, Note_on_c, 1, 77, 72
2, 707855, Note_on_c, 1, 77, 0
2, 707880, Note_on_c, 1, 72, 72
2, 707975, Note_on_c, 1, 72, 0
2, 708000, Note_on_c, 1, 70, 70
2, 708095, Note_on_c, 1, 70, 0
2, 708120, Note_on_c, 1, 69, 71
2, 708215, Note_on_c, 1, 69, 0
2, 708240, Note_on_c, 1, 68, 72
2, 708335, Note_on_c, 1, 68, 0
2, 708360, Note_on_c, 1, 69, 73
2, 708455, Note_on_c, 1, 69, 0
2, 708480, Note_on_c, 1, 72, 74
2, 708575, Note_on_c, 1, 72, 0
2, 708600, Note_on_c, 1, 69, 75
2, 708695, Note_on_c, 1, 69, 0
2, 708720, Note_on_c, 1, 65, 76
2, 708912, Note_on_c, 1, 65, 0
2, 708960, Note_on_c, 1, 64, 78
2, 709152, Note_on_c, 1, 64, 0
2, 709200, Note_on_c, 1, 65, 80
2, 709392, Note_on_c, 1, 65, 0
2, 709440, Note_on_c, 1, 67, 82
2, 709632, Note_on_c, 1, 67, 0
2, 709680, Note_on_c, 1, 65, 84
2, 709872, Note_on_c, 1, 65, 0
2, 709920, Note_on_c, 1, 67, 86
2, 710112, Note_on_c, 1, 67, 0
2, 710160, Note_on_c, 1, 69, 89
2, 710352, Note_on_c, 1, 69, 0
2, 710400, Note_on_c, 1, 67, 91
2, 710592, Note_on_c, 1, 67, 0
2, 710640, Note_on_c, 1, 69, 93
2, 710832, Note_on_c, 1, 69, 0
2, 710880, Note_on_c, 1, 70, 97
2, 711360, Note_on_c, 1, 70, 0
2, 711360, Note_on_c, 1, 69, 90
2, 711552, Note_on_c, 1, 69, 0
2, 711600, Note_on_c, 1, 70, 95
2, 712080, Note_on_c, 1, 70, 0
2, 712080, Note_on_c, 1, 69, 85
2, 712272, Note_on_c, 1, 69, 0
2, 712320, Note_on_c, 1, 68, 80
2, 712512, Note_on_c, 1, 68, 0
2, 713040, Note_on_c, 1, 67, 64
2, 713232, Note_on_c, 1, 67, 0
2, 713760, Note_on_c, 1, 66, 48
2, 713952, Note_on_c, 1, 66, 0
2, 714720, Note_on_c, 1, 62, 75
2, 714840, Note_on_c, 1, 62, 0
2, 714840, Note_on_c, 1, 67, 77
2, 714960, Note_on_c, 1, 67, 0
2, 714960, Note_on_c, 1, 70, 79
2, 715080, Note_on_c, 1, 70, 0
2, 715080, Note_on_c, 1, 74, 81
2, 715175, Note_on_c, 1, 74, 0
2, 715200, Note_on_c, 1, 72, 82
2, 715320, Note_on_c, 1, 72, 0
2, 715320, Note_on_c, 1, 70, 78
2, 715440, Note_on_c, 1, 70, 0
2, 715440, Note_on_c, 1, 69, 75
2, 715560, Note_on_c, 1, 69, 0
2, 715560, Note_on_c, 1, 67, 71
2, 715680, Note_on_c, 1, 67, 0
2, 715680, Note_on_c, 1, 65, 68
2, 715800, Note_on_c, 1, 65, 0
2, 715800, Note_on_c, 1, 64, 65
2, 715920, Note_on_c, 1, 64, 0
2, 715920, Note_on_c, 1, 65, 61
2, 716075, Note_on_c, 1, 65, 0
2, 716640, Note_on_c, 1, 64, 56
2, 716700, Note_on_c, 1, 64, 0
2, 716700, Note_on_c, 1, 70, 56
2, 717540, Note_on_c, 1, 70, 0
2, 717600, Note_on_c, 1, 69, 60
2, 717755, Note_on_c, 1, 69, 0
2, 717840, Note_on_c, 1, 67, 62
2, 717995, Note_on_c, 1, 67, 0
2, 718080, Note_on_c, 1, 67, 63
2, 718140, Note_on_c, 1, 67, 0
2, 718140, Note_on_c, 1, 65, 65
2, 718680, Note_on_c, 1, 65, 0
2, 718800, Note_on_c, 1, 65, 54
2, 719400, Note_on_c, 1, 65, 0
2, 719520, Note_on_c, 1, 64, 53
2, 719580, Note_on_c, 1, 64, 0
2, 719580, Note_on_c, 1, 70, 52
2, 720420, Note_on_c, 1, 70, 0
2, 720480, Note_on_c, 1, 69, 57
2, 720635, Note_on_c, 1, 69, 0
2, 720720, Note_on_c, 1, 67, 58
2, 720875, Note_on_c, 1, 67, 0
2, 720960, Note_on_c, 1, 71, 61
2, 721680, Note_on_c, 1, 71, 0
2, 721680, Note_on_c, 1, 72, 50
2, 721870, Note_on_c, 1, 72, 0
2, 722400, Note_on_c, 1, 64, 48
2, 722460, Note_on_c, 1, 64, 0
2, 722460, Note_on_c, 1, 70, 48
2, 723285, Note_on_c, 1, 70, 0
2, 723360, Note_on_c, 1, 69, 53
2, 723515, Note_on_c, 1, 69, 0
2, 723600, Note_on_c, 1, 67, 54
2, 723755, Note_on_c, 1, 67, 0
2, 723840, Note_on_c, 1, 65, 55
2, 724200, Note_on_c, 1, 65, 0
2, 724320, Note_on_c, 1, 69, 58
2, 724920, Note_on_c, 1, 69, 0
2, 725040, Note_on_c, 1, 72, 65
2, 725640, Note_on_c, 1, 72, 0
2, 725760, Note_on_c, 1, 70, 71
2, 726375, Note_on_c, 1, 70, 0
2, 726480, Note_on_c, 1, 67, 66
2, 726670, Note_on_c, 1, 67, 0
2, 726720, Control_c, 1, 64, 0
2, 726720, Note_on_c, 1, 65, 56
2, 726910, Note_on_c, 1, 65, 0
2, 727440, Note_on_c, 1, 85, 96
2, 728015, Note_on_c, 1, 85, 0
2, 728160, Note_on_c, 1, 86, 99
2, 728760, Note_on_c, 1, 86, 0
2, 728880, Note_on_c, 1, 84, 95
2, 729455, Note_on_c, 1, 84, 0
2, 729600, Note_on_c, 1, 82, 91
2, 730200, Note_on_c, 1, 82, 0
2, 730320, Note_on_c, 1, 81, 87
2, 730895, Note_on_c, 1, 81, 0
2, 731040, Note_on_c, 1, 79, 83
2, 731645, Note_on_c, 1, 79, 0
2, 731760, Note_on_c, 1, 78, 79
2, 732335, Note_on_c, 1, 78, 0
2, 732480, Note_on_c, 1, 79, 59
2, 732672, Note_on_c, 1, 79, 0
2, 732960, Note_on_c, 1, 79, 64
2, 733152, Note_on_c, 1, 79, 0
2, 733200, Note_on_c, 1, 81, 67
2, 733392, Note_on_c, 1, 81, 0
2, 733680, Note_on_c, 1, 81, 72
2, 733872, Note_on_c, 1, 81, 0
2, 733920, Note_on_c, 1, 82, 74
2, 734112, Note_on_c, 1, 82, 0
2, 734400, Note_on_c, 1, 82, 80
2, 734592, Note_on_c, 1, 82, 0
2, 734640, Note_on_c, 1, 83, 82
2, 734832, Note_on_c, 1, 83, 0
2, 735120, Note_on_c, 1, 83, 87
2, 735312, Note_on_c, 1, 83, 0
2, 735360, Note_on_c, 1, 84, 93
2, 735840, Note_on_c, 1, 84, 0
2, 735840, Note_on_c, 1, 86, 91
2, 735960, Note_on_c, 1, 86, 0
2, 735960, Note_on_c, 1, 84, 90
2, 736055, Note_on_c, 1, 84, 0
2, 736080, Note_on_c, 1, 82, 90
2, 736560, Note_on_c, 1, 82, 0
2, 736560, Note_on_c, 1, 84, 88
2, 736680, Note_on_c, 1, 84, 0
2, 736680, Note_on_c, 1, 82, 87
2, 736775, Note_on_c, 1, 82, 0
2, 736800, Note_on_c, 1, 81, 87
2, 737280, Note_on_c, 1, 81, 0
2, 737280, Note_on_c, 1, 82, 84
2, 737400, Note_on_c, 1, 82, 0
2, 737400, Note_on_c, 1, 81, 84
2, 737495, Note_on_c, 1, 81, 0
2, 737520, Note_on_c, 1, 79, 83
2, 738000, Note_on_c, 1, 79, 0
2, 738000, Note_on_c, 1, 81, 81
2, 738120, Note_on_c, 1, 81, 0
2, 738120, Note_on_c, 1, 79, 81
2, 738215, Note_on_c, 1, 79, 0
2, 738240, Note_on_c, 1, 77, 80
2, 738720, Note_on_c, 1, 77, 0
2, 738720, Note_on_c, 1, 79, 78
2, 738840, Note_on_c, 1, 79, 0
2, 738840, Note_on_c, 1, 77, 78
2, 738935, Note_on_c, 1, 77, 0
2, 738960, Note_on_c, 1, 76, 77
2, 739440, Note_on_c, 1, 76, 0
2, 739440, Note_on_c, 1, 77, 75
2, 739560, Note_on_c, 1, 77, 0
2, 739560, Note_on_c, 1, 76, 74
2, 739655, Note_on_c, 1, 76, 0
2, 739680, Note_on_c, 1, 79, 56
2, 739800, Note_on_c, 1, 79, 0
2, 739800, Note_on_c, 1, 77, 56
2, 739920, Note_on_c, 1, 77, 0
2, 739920, Note_on_c, 1, 76, 57
2, 740040, Note_on_c, 1, 76, 0
2, 740040, Note_on_c, 1, 77, 58
2, 740160, Note_on_c, 1, 77, 0
2, 740160, Note_on_c, 1, 76, 58
2, 740280, Note_on_c, 1, 76, 0
2, 740280, Note_on_c, 1, 77, 59
2, 740375, Note_on_c, 1, 77, 0
2, 740400, Note_on_c, 1, 81, 59
2, 740520, Note_on_c, 1, 81, 0
2, 740520, Note_on_c, 1, 79, 60
2, 740640, Note_on_c, 1, 79, 0
2, 740640, Note_on_c, 1, 78, 60
2, 740760, Note_on_c, 1, 78, 0
2, 740760, Note_on_c, 1, 79, 61
2, 740880, Note_on_c, 1, 79, 0
2, 740880, Note_on_c, 1, 78, 62
2, 741000, Note_on_c, 1, 78, 0
2, 741000, Note_on_c, 1, 79, 62
2, 741095, Note_on_c, 1, 79, 0
2, 741120, Note_on_c, 1, 81, 63
2, 741240, Note_on_c, 1, 81, 0
2, 741240, Note_on_c, 1, 79, 63
2, 741360, Note_on_c, 1, 79, 0
2, 741360, Note_on_c, 1, 77, 64
2, 741480, Note_on_c, 1, 77, 0
2, 741480, Note_on_c, 1, 79, 64
2, 741600, Note_on_c, 1, 79, 0
2, 741600, Note_on_c, 1, 81, 65
2, 741720, Note_on_c, 1, 81, 0
2, 741720, Note_on_c, 1, 82, 66
2, 741840, Note_on_c, 1, 84, 66
2, 741855, Note_on_c, 1, 82, 0
2, 741960, Note_on_c, 1, 84, 0
2, 741960, Note_on_c, 1, 82, 67
2, 742080, Note_on_c, 1, 82, 0
2, 742080, Note_on_c, 1, 81, 67
2, 742200, Note_on_c, 1, 81, 0
2, 742200, Note_on_c, 1, 82, 68
2, 742320, Note_on_c, 1, 82, 0
2, 742320, Note_on_c, 1, 84, 68
2, 742440, Note_on_c, 1, 84, 0
2, 742440, Note_on_c, 1, 85, 69
2, 742535, Note_on_c, 1, 85, 0
2, 742560, Note_on_c, 1, 86, 70
2, 742680, Note_on_c, 1, 74, 70
2, 742740, Note_on_c, 1, 86, 0
2, 742775, Note_on_c, 1, 74, 0
2, 742800, Note_on_c, 1, 86, 71
2, 742895, Note_on_c, 1, 86, 0
2, 742920, Note_on_c, 1, 84, 71
2, 743015, Note_on_c, 1, 84, 0
2, 743040, Note_on_c, 1, 82, 72
2, 743135, Note_on_c, 1, 82, 0
2, 743160, Note_on_c, 1, 81, 73
2, 743255, Note_on_c, 1, 81, 0
2, 743280, Note_on_c, 1, 79, 73
2, 743375, Note_on_c, 1, 79, 0
2, 743400, Note_on_c, 1, 78, 74
2, 743495, Note_on_c, 1, 78, 0
2, 743520, Note_on_c, 1, 79, 74
2, 743615, Note_on_c, 1, 79, 0
2, 743640, Note_on_c, 1, 81, 75
2, 743735, Note_on_c, 1, 81, 0
2, 743760, Note_on_c, 1, 82, 75
2, 743855, Note_on_c, 1, 82, 0
2, 743880, Note_on_c, 1, 83, 76
2, 743975, Note_on_c, 1, 83, 0
2, 744000, Note_on_c, 1, 84, 77
2, 744120, Note_on_c, 1, 72, 77
2, 744180, Note_on_c, 1, 84, 0
2, 744240, Note_on_c, 1, 72, 0
2, 744240, Note_on_c, 1, 84, 78
2, 744335, Note_on_c, 1, 84, 0
2, 744360, Note_on_c, 1, 82, 78
2, 744455, Note_on_c, 1, 82, 0
2, 744480, Note_on_c, 1, 81, 79
2, 744575, Note_on_c, 1, 81, 0
2, 744600, Note_on_c, 1, 79, 79
2, 744695, Note_on_c, 1, 79, 0
2, 744720, Note_on_c, 1, 77, 80
2, 744815, Note_on_c, 1, 77, 0
2, 744840, Note_on_c, 1, 76, 81
2, 744935, Note_on_c, 1, 76, 0
2, 744960, Note_on_c, 1, 77, 81
2, 745055, Note_on_c, 1, 77, 0
2, 745080, Note_on_c, 1, 79, 82
2, 745175, Note_on_c, 1, 79, 0
2, 745200, Note_on_c, 1, 80, 82
2, 745295, Note_on_c, 1, 80, 0
2, 745320, Note_on_c, 1, 81, 83
2, 745415, Note_on_c, 1, 81, 0
2, 745440, Note_on_c, 1, 82, 83
2, 745535, Note_on_c, 1, 82, 0
2, 745560, Note_on_c, 1, 84, 84
2, 745655, Note_on_c, 1, 84, 0
2, 745680, Note_on_c, 1, 82, 85
2, 745775, Note_on_c, 1, 82, 0
2, 745800, Note_on_c, 1, 81, 85
2, 745895, Note_on_c, 1, 81, 0
2, 745920, Note_on_c, 1, 79, 86
2, 746015, Note_on_c, 1, 79, 0
2, 746040, Note_on_c, 1, 77, 86
2, 746135, Note_on_c, 1, 77, 0
2, 746160, Note_on_c, 1, 76, 87
2, 746255, Note_on_c, 1, 76, 0
2, 746280, Note_on_c, 1, 77, 87
2, 746375, Note_on_c, 1, 77, 0
2, 746400, Note_on_c, 1, 76, 88
2, 746495, Note_on_c, 1, 76, 0
2, 746520, Note_on_c, 1, 74, 89
2, 746615, Note_on_c, 1, 74, 0
2, 746640, Note_on_c, 1, 72, 89
2, 746735, Note_on_c, 1, 72, 0
2, 746760, Note_on_c, 1, 70, 90
2, 746855, Note_on_c, 1, 70, 0
2, 746880, Note_on_c, 1, 69, 90
2, 746975, Note_on_c, 1, 69, 0
2, 747000, Note_on_c, 1, 72, 91
2, 747095, Note_on_c, 1, 72, 0
2, 747120, Note_on_c, 1, 77, 91
2, 747215, Note_on_c, 1, 77, 0
2, 747240, Note_on_c, 1, 79, 92
2, 747335, Note_on_c, 1, 79, 0
2, 747360, Note_on_c, 1, 77, 93
2, 747455, Note_on_c, 1, 77, 0
2, 747480, Note_on_c, 1, 76, 93
2, 747575, Note_on_c, 1, 76, 0
2, 747600, Note_on_c, 1, 74, 94
2, 747695, Note_on_c, 1, 74, 0
2, 747720, Note_on_c, 1, 72, 94
2, 747815, Note_on_c, 1, 72, 0
2, 747840, Note_on_c, 1, 70, 95
2, 747935, Note_on_c, 1, 70, 0
2, 747960, Note_on_c, 1, 69, 96
2, 748055, Note_on_c, 1, 69, 0
2, 748080, Note_on_c, 1, 67, 96
2, 748175, Note_on_c, 1, 67, 0
2, 748200, Note_on_c, 1, 65, 97
2, 748295, Note_on_c, 1, 65, 0
2, 748320, Note_on_c, 1, 64, 97
2, 748415, Note_on_c, 1, 64, 0
2, 748440, Note_on_c, 1, 65, 92
2, 748535, Note_on_c, 1, 65, 0
2, 748560, Note_on_c, 1, 67, 87
2, 748655, Note_on_c, 1, 67, 0
2, 748680, Note_on_c, 1, 65, 82
2, 748775, Note_on_c, 1, 65, 0
2, 748800, Note_on_c, 1, 64, 76
2, 748895, Note_on_c, 1, 64, 0
2, 748920, Note_on_c, 1, 62, 71
2, 749015, Note_on_c, 1, 62, 0
2, 749040, Note_on_c, 1, 60, 66
2, 749135, Note_on_c, 1, 60, 0
2, 749160, Note_on_c, 1, 62, 61
2, 749255, Note_on_c, 1, 62, 0
2, 749280, Note_on_c, 1, 60, 55
2, 749375, Note_on_c, 1, 60, 0
2, 749400, Note_on_c, 1, 58, 50
2, 749495, Note_on_c, 1, 58, 0
2, 749520, Note_on_c, 1, 57, 45
2, 749615, Note_on_c, 1, 57, 0
2, 749640, Note_on_c, 1, 55, 40
2, 749735, Note_on_c, 1, 55, 0
2, 749760, Note_on_c, 1, 68, 40
2, 750605, Note_on_c, 1, 68, 0
2, 750720, Note_on_c, 1, 67, 46
2, 750875, Note_on_c, 1, 67, 0
2, 750960, Note_on_c, 1, 65, 47
2, 751115, Note_on_c, 1, 65, 0
2, 751200, Note_on_c, 1, 71, 51
2, 751680, Note_on_c, 1, 71, 0
2, 751680, Note_on_c, 1, 72, 45
2, 751920, Note_on_c, 1, 72, 0
2, 751920, Note_on_c, 1, 67, 42
2, 752400, Note_on_c, 1, 67, 0
2, 752640, Note_on_c, 1, 73, 46
2, 753485, Note_on_c, 1, 73, 0
2, 753600, Note_on_c, 1, 72, 53
2, 753755, Note_on_c, 1, 72, 0
2, 753840, Note_on_c, 1, 70, 55
2, 753995, Note_on_c, 1, 70, 0
2, 754080, Note_on_c, 1, 68, 60
2, 754320, Note_on_c, 1, 68, 0
2, 754320, Note_on_c, 1, 70, 54
2, 754360, Note_on_c, 1, 70, 0
2, 754360, Note_on_c, 1, 68, 53
2, 754400, Note_on_c, 1, 68, 0
2, 754400, Note_on_c, 1, 67, 52
2, 754440, Note_on_c, 1, 67, 0
2, 754440, Note_on_c, 1, 68, 51
2, 754500, Note_on_c, 1, 68, 0
2, 754500, Note_on_c, 1, 70, 49
2, 754560, Note_on_c, 1, 70, 0
2, 754560, Note_on_c, 1, 70, 48
2, 754800, Note_on_c, 1, 70, 0
2, 754800, Note_on_c, 1, 72, 42
2, 755280, Note_on_c, 1, 72, 0
2, 755520, Note_on_c, 1, 77, 69
2, 756240, Note_on_c, 1, 77, 0
2, 756240, Note_on_c, 1, 75, 66
2, 756720, Note_on_c, 1, 75, 0
2, 756720, Note_on_c, 1, 77, 64
2, 756910, Note_on_c, 1, 77, 0
2, 756960, Note_on_c, 1, 75, 63
2, 757440, Note_on_c, 1, 75, 0
2, 757440, Note_on_c, 1, 73, 61
2, 757680, Note_on_c, 1, 73, 0
2, 757680, Note_on_c, 1, 72, 60
2, 758160, Note_on_c, 1, 72, 0
2, 758400, Note_on_c, 1, 70, 57
2, 758880, Note_on_c, 1, 70, 0
2, 758880, Note_on_c, 1, 68, 55
2, 759070, Note_on_c, 1, 68, 0
2, 759120, Note_on_c, 1, 67, 54
2, 759600, Note_on_c, 1, 67, 0
2, 759600, Note_on_c, 1, 65, 52
2, 759790, Note_on_c, 1, 65, 0
2, 759840, Note_on_c, 1, 68, 51
2, 760560, Note_on_c, 1, 68, 0
2, 760560, Note_on_c, 1, 67, 48
2, 760750, Note_on_c, 1, 67, 0
2, 761280, Note_on_c, 1, 80, 46
2, 762120, Note_on_c, 1, 80, 0
2, 762240, Note_on_c, 1, 79, 54
2, 762395, Note_on_c, 1, 79, 0
2, 762480, Note_on_c, 1, 77, 57
2, 762635, Note_on_c, 1, 77, 0
2, 762720, Note_on_c, 1, 83, 58
2, 763200, Note_on_c, 1, 83, 0
2, 763200, Note_on_c, 1, 84, 52
2, 763440, Note_on_c, 1, 84, 0
2, 763440, Note_on_c, 1, 79, 49
2, 763920, Note_on_c, 1, 79, 0
2, 764160, Note_on_c, 1, 85, 54
2, 765000, Note_on_c, 1, 85, 0
2, 765120, Note_on_c, 1, 84, 60
2, 765275, Note_on_c, 1, 84, 0
2, 765360, Note_on_c, 1, 82, 62
2, 765515, Note_on_c, 1, 82, 0
2, 765600, Note_on_c, 1, 81, 66
2, 766080, Note_on_c, 1, 81, 0
2, 766080, Note_on_c, 1, 84, 60
2, 766320, Note_on_c, 1, 84, 0
2, 766320, Note_on_c, 1, 82, 56
2, 766800, Note_on_c, 1, 82, 0
2, 767040, Note_on_c, 1, 83, 72
2, 767645, Note_on_c, 1, 83, 0
2, 767760, Note_on_c, 1, 84, 74
2, 768360, Note_on_c, 1, 84, 0
2, 768480, Note_on_c, 1, 85, 76
2, 769200, Note_on_c, 1, 85, 0
2, 769200, Note_on_c, 1, 84, 78
2, 769680, Note_on_c, 1, 84, 0
2, 769800, Note_on_c, 1, 89, 79
2, 769895, Note_on_c, 1, 89, 0
2, 769920, Note_on_c, 1, 77, 70
2, 770640, Note_on_c, 1, 77, 0
2, 770640, Note_on_c, 1, 80, 55
2, 770760, Note_on_c, 1, 80, 0
2, 770760, Note_on_c, 1, 79, 52
2, 771300, Note_on_c, 1, 79, 0
2, 771360, Note_on_c, 1, 77, 60
2, 771455, Note_on_c, 1, 77, 0
2, 771480, Note_on_c, 1, 72, 60
2, 771575, Note_on_c, 1, 72, 0
2, 771600, Note_on_c, 1, 71, 61
2, 771695, Note_on_c, 1, 71, 0
2, 771720, Note_on_c, 1, 72, 62
2, 771815, Note_on_c, 1, 72, 0
2, 771840, Note_on_c, 1, 74, 62
2, 771935, Note_on_c, 1, 74, 0
2, 771960, Note_on_c, 1, 72, 63
2, 772055, Note_on_c, 1, 72, 0
2, 772080, Note_on_c, 1, 70, 63
2, 772175, Note_on_c, 1, 70, 0
2, 772200, Note_on_c, 1, 72, 64
2, 772295, Note_on_c, 1, 72, 0
2, 772320, Note_on_c, 1, 70, 64
2, 772415, Note_on_c, 1, 70, 0
2, 772440, Note_on_c, 1, 72, 65
2, 772535, Note_on_c, 1, 72, 0
2, 772560, Note_on_c, 1, 70, 66
2, 772655, Note_on_c, 1, 70, 0
2, 772680, Note_on_c, 1, 72, 66
2, 772775, Note_on_c, 1, 72, 0
2, 772800, Note_on_c, 1, 69, 67
2, 772895, Note_on_c, 1, 69, 0
2, 772920, Note_on_c, 1, 72, 67
2, 773015, Note_on_c, 1, 72, 0
2, 773040, Note_on_c, 1, 71, 68
2, 773135, Note_on_c, 1, 71, 0
2, 773160, Note_on_c, 1, 72, 68
2, 773255, Note_on_c, 1, 72, 0
2, 773280, Note_on_c, 1, 77, 69
2, 773375, Note_on_c, 1, 77, 0
2, 773400, Note_on_c, 1, 72, 69
2, 773495, Note_on_c, 1, 72, 0
2, 773520, Note_on_c, 1, 70, 70
2, 773615, Note_on_c, 1, 70, 0
2, 773640, Note_on_c, 1, 72, 71
2, 773735, Note_on_c, 1, 72, 0
2, 773760, Note_on_c, 1, 70, 71
2, 773855, Note_on_c, 1, 70, 0
2, 773880, Note_on_c, 1, 72, 72
2, 773975, Note_on_c, 1, 72, 0
2, 774000, Note_on_c, 1, 70, 72
2, 774095, Note_on_c, 1, 70, 0
2, 774120, Note_on_c, 1, 72, 73
2, 774215, Note_on_c, 1, 72, 0
2, 774240, Note_on_c, 1, 69, 73
2, 774335, Note_on_c, 1, 69, 0
2, 774360, Note_on_c, 1, 84, 74
2, 774455, Note_on_c, 1, 84, 0
2, 774480, Note_on_c, 1, 83, 75
2, 774575, Note_on_c, 1, 83, 0
2, 774600, Note_on_c, 1, 84, 75
2, 774695, Note_on_c, 1, 84, 0
2, 774720, Note_on_c, 1, 86, 76
2, 774815, Note_on_c, 1, 86, 0
2, 774840, Note_on_c, 1, 84, 76
2, 774935, Note_on_c, 1, 84, 0
2, 774960, Note_on_c, 1, 82, 77
2, 775055, Note_on_c, 1, 82, 0
2, 775080, Note_on_c, 1, 84, 77
2, 775175, Note_on_c, 1, 84, 0
2, 775200, Note_on_c, 1, 82, 78
2, 775295, Note_on_c, 1, 82, 0
2, 775320, Note_on_c, 1, 84, 79
2, 775415, Note_on_c, 1, 84, 0
2, 775440, Note_on_c, 1, 82, 79
2, 775535, Note_on_c, 1, 82, 0
2, 775560, Note_on_c, 1, 84, 80
2, 775655, Note_on_c, 1, 84, 0
2, 775680, Note_on_c, 1, 81, 80
2, 775775, Note_on_c, 1, 81, 0
2, 775800, Note_on_c, 1, 84, 81
2, 775895, Note_on_c, 1, 84, 0
2, 775920, Note_on_c, 1, 83, 81
2, 776015, Note_on_c, 1, 83, 0
2, 776040, Note_on_c, 1, 84, 82
2, 776135, Note_on_c, 1, 84, 0
2, 776160, Note_on_c, 1, 89, 83
2, 776255, Note_on_c, 1, 89, 0
2, 776280, Note_on_c, 1, 84, 83
2, 776375, Note_on_c, 1, 84, 0
2, 776400, Note_on_c, 1, 82, 84
2, 776495, Note_on_c, 1, 82, 0
2, 776520, Note_on_c, 1, 84, 84
2, 776615, Note_on_c, 1, 84, 0
2, 776640, Note_on_c, 1, 82, 85
2, 776735, Note_on_c, 1, 82, 0
2, 776760, Note_on_c, 1, 84, 85
2, 776855, Note_on_c, 1, 84, 0
2, 776880, Note_on_c, 1, 82, 86
2, 776975, Note_on_c, 1, 82, 0
2, 777000, Note_on_c, 1, 84, 87
2, 777095, Note_on_c, 1, 84, 0
2, 777120, Note_on_c, 1, 81, 87
2, 777215, Note_on_c, 1, 81, 0
2, 777240, Note_on_c, 1, 84, 86
2, 777335, Note_on_c, 1, 84, 0
2, 777360, Note_on_c, 1, 89, 86
2, 777455, Note_on_c, 1, 89, 0
2, 777480, Note_on_c, 1, 81, 85
2, 777575, Note_on_c, 1, 81, 0
2, 777600, Note_on_c, 1, 79, 84
2, 777720, Note_on_c, 1, 88, 84
2, 777780, Note_on_c, 1, 79, 0
2, 777815, Note_on_c, 1, 88, 0
2, 777840, Note_on_c, 1, 77, 83
2, 777960, Note_on_c, 1, 86, 82
2, 778020, Note_on_c, 1, 77, 0
2, 778055, Note_on_c, 1, 86, 0
2, 778080, Note_on_c, 1, 76, 81
2, 778200, Note_on_c, 1, 84, 81
2, 778260, Note_on_c, 1, 76, 0
2, 778295, Note_on_c, 1, 84, 0
2, 778320, Note_on_c, 1, 74, 80
2, 778440, Note_on_c, 1, 82, 79
2, 778500, Note_on_c, 1, 74, 0
2, 778535, Note_on_c, 1, 82, 0
2, 778560, Note_on_c, 1, 72, 78
2, 778680, Note_on_c, 1, 81, 78
2, 778740, Note_on_c, 1, 72, 0
2, 778775, Note_on_c, 1, 81, 0
2, 778800, Note_on_c, 1, 70, 77
2, 778920, Note_on_c, 1, 79, 76
2, 778980, Note_on_c, 1, 70, 0
2, 779015, Note_on_c, 1, 79, 0
2, 779040, Note_on_c, 1, 69, 75
2, 779160, Note_on_c, 1, 77, 75
2, 779220, Note_on_c, 1, 69, 0
2, 779255, Note_on_c, 1, 77, 0
2, 779280, Note_on_c, 1, 67, 74
2, 779400, Note_on_c, 1, 76, 73
2, 779460, Note_on_c, 1, 67, 0
2, 779495, Note_on_c, 1, 76, 0
2, 779520, Note_on_c, 1, 65, 72
2, 779640, Note_on_c, 1, 74, 72
2, 779700, Note_on_c, 1, 65, 0
2, 779735, Note_on_c, 1, 74, 0
2, 779760, Note_on_c, 1, 64, 71
2, 779880, Note_on_c, 1, 72, 70
2, 779940, Note_on_c, 1, 64, 0
2, 779975, Note_on_c, 1, 72, 0
2, 780000, Note_on_c, 1, 71, 69
2, 780605, Note_on_c, 1, 71, 0
2, 780720, Note_on_c, 1, 70, 65
2, 781325, Note_on_c, 1, 70, 0
2, 781440, Note_on_c, 1, 82, 61
2, 782040, Note_on_c, 1, 82, 0
2, 782160, Note_on_c, 1, 76, 56
2, 782760, Note_on_c, 1, 76, 0
2, 783120, Note_on_c, 1, 84, 50
2, 783275, Note_on_c, 1, 84, 0
2, 783360, Note_on_c, 1, 84, 49
2, 783515, Note_on_c, 1, 84, 0
2, 783840, Note_on_c, 1, 86, 46
2, 783995, Note_on_c, 1, 86, 0
2, 784080, Note_on_c, 1, 86, 44
2, 784235, Note_on_c, 1, 86, 0
2, 784320, Note_on_c, 1, 77, 43
2, 785040, Note_on_c, 1, 77, 0
2, 785040, Note_on_c, 1, 81, 39
2, 785160, Note_on_c, 1, 81, 0
2, 785160, Note_on_c, 1, 79, 38
2, 785700, Note_on_c, 1, 79, 0
2, 785760, Note_on_c, 1, 77, 56
2, 785855, Note_on_c, 1, 77, 0
2, 785880, Note_on_c, 1, 72, 57
2, 785975, Note_on_c, 1, 72, 0
2, 786000, Note_on_c, 1, 71, 57
2, 786095, Note_on_c, 1, 71, 0
2, 786120, Note_on_c, 1, 72, 57
2, 786215, Note_on_c, 1, 72, 0
2, 786240, Note_on_c, 1, 74, 58
2, 786335, Note_on_c, 1, 74, 0
2, 786360, Note_on_c, 1, 72, 58
2, 786455, Note_on_c, 1, 72, 0
2, 786480, Note_on_c, 1, 70, 59
2, 786575, Note_on_c, 1, 70, 0
2, 786600, Note_on_c, 1, 72, 59
2, 786695, Note_on_c, 1, 72, 0
2, 786720, Note_on_c, 1, 70, 59
2, 786815, Note_on_c, 1, 70, 0
2, 786840, Note_on_c, 1, 72, 60
2, 786935, Note_on_c, 1, 72, 0
2, 786960, Note_on_c, 1, 70, 60
2, 787055, Note_on_c, 1, 70, 0
2, 787080, Note_on_c, 1, 72, 61
2, 787175, Note_on_c, 1, 72, 0
2, 787200, Note_on_c, 1, 69, 61
2, 787295, Note_on_c, 1, 69, 0
2, 787320, Note_on_c, 1, 72, 61
2, 787415, Note_on_c, 1, 72, 0
2, 787440, Note_on_c, 1, 71, 62
2, 787535, Note_on_c, 1, 71, 0
2, 787560, Note_on_c, 1, 72, 62
2, 787655, Note_on_c, 1, 72, 0
2, 787680, Note_on_c, 1, 77, 62
2, 787775, Note_on_c, 1, 77, 0
2, 787800, Note_on_c, 1, 72, 63
2, 787895, Note_on_c, 1, 72, 0
2, 787920, Note_on_c, 1, 70, 63
2, 788015, Note_on_c, 1, 70, 0
2, 788040, Note_on_c, 1, 72, 64
2, 788135, Note_on_c, 1, 72, 0
2, 788160, Note_on_c, 1, 70, 64
2, 788255, Note_on_c, 1, 70, 0
2, 788280, Note_on_c, 1, 72, 64
2, 788375, Note_on_c, 1, 72, 0
2, 788400, Note_on_c, 1, 70, 65
2, 788495, Note_on_c, 1, 70, 0
2, 788520, Note_on_c, 1, 72, 65
2, 788615, Note_on_c, 1, 72, 0
2, 788640, Note_on_c, 1, 69, 66
2, 788735, Note_on_c, 1, 69, 0
2, 788760, Note_on_c, 1, 84, 66
2, 788855, Note_on_c, 1, 84, 0
2, 788880, Note_on_c, 1, 83, 66
2, 788975, Note_on_c, 1, 83, 0
2, 789000, Note_on_c, 1, 84, 67
2, 789095, Note_on_c, 1, 84, 0
2, 789120, Note_on_c, 1, 86, 67
2, 789215, Note_on_c, 1, 86, 0
2, 789240, Note_on_c, 1, 84, 68
2, 789335, Note_on_c, 1, 84, 0
2, 789360, Note_on_c, 1, 82, 68
2, 789455, Note_on_c, 1, 82, 0
2, 789480, Note_on_c, 1, 84, 68
2, 789575, Note_on_c, 1, 84, 0
2, 789600, Note_on_c, 1, 82, 69
2, 789695, Note_on_c, 1, 82, 0
2, 789720, Note_on_c, 1, 84, 69
2, 789815, Note_on_c, 1, 84, 0
2, 789840, Note_on_c, 1, 82, 69
2, 789935, Note_on_c, 1, 82, 0
2, 789960, Note_on_c, 1, 84, 70
2, 790055, Note_on_c, 1, 84, 0
2, 790080, Note_on_c, 1, 81, 70
2, 790175, Note_on_c, 1, 81, 0
2, 790200, Note_on_c, 1, 84, 71
2, 790295, Note_on_c, 1, 84, 0
2, 790320, Note_on_c, 1, 83, 71
2, 790415, Note_on_c, 1, 83, 0
2, 790440, Note_on_c, 1, 84, 71
2, 790535, Note_on_c, 1, 84, 0
2, 790560, Note_on_c, 1, 89, 72
2, 790655, Note_on_c, 1, 89, 0
2, 790680, Note_on_c, 1, 84, 72
2, 790775, Note_on_c, 1, 84, 0
2, 790800, Note_on_c, 1, 82, 73
2, 790895, Note_on_c, 1, 82, 0
2, 790920, Note_on_c, 1, 84, 73
2, 791015, Note_on_c, 1, 84, 0
2, 791040, Note_on_c, 1, 82, 73
2, 791135, Note_on_c, 1, 82, 0
2, 791160, Note_on_c, 1, 84, 74
2, 791255, Note_on_c, 1, 84, 0
2, 791280, Note_on_c, 1, 82, 74
2, 791375, Note_on_c, 1, 82, 0
2, 791400, Note_on_c, 1, 84, 74
2, 791495, Note_on_c, 1, 84, 0
2, 791520, Note_on_c, 1, 81, 75
2, 791615, Note_on_c, 1, 81, 0
2, 791640, Note_on_c, 1, 84, 75
2, 791735, Note_on_c, 1, 84, 0
2, 791760, Note_on_c, 1, 89, 75
2, 791855, Note_on_c, 1, 89, 0
2, 791880, Note_on_c, 1, 81, 75
2, 791975, Note_on_c, 1, 81, 0
2, 792000, Note_on_c, 1, 79, 74
2, 792120, Note_on_c, 1, 88, 73
2, 792180, Note_on_c, 1, 79, 0
2, 792215, Note_on_c, 1, 88, 0
2, 792240, Note_on_c, 1, 77, 73
2, 792360, Note_on_c, 1, 86, 72
2, 792420, Note_on_c, 1, 77, 0
2, 792455, Note_on_c, 1, 86, 0
2, 792480, Note_on_c, 1, 76, 72
2, 792600, Note_on_c, 1, 84, 71
2, 792660, Note_on_c, 1, 76, 0
2, 792695, Note_on_c, 1, 84, 0
2, 792720, Note_on_c, 1, 74, 71
2, 792840, Note_on_c, 1, 82, 70
2, 792900, Note_on_c, 1, 74, 0
2, 792935, Note_on_c, 1, 82, 0
2, 792960, Note_on_c, 1, 72, 69
2, 793080, Note_on_c, 1, 81, 69
2, 793140, Note_on_c, 1, 72, 0
2, 793175, Note_on_c, 1, 81, 0
2, 793200, Note_on_c, 1, 70, 68
2, 793320, Note_on_c, 1, 79, 68
2, 793380, Note_on_c, 1, 70, 0
2, 793415, Note_on_c, 1, 79, 0
2, 793440, Note_on_c, 1, 69, 67
2, 793560, Note_on_c, 1, 77, 66
2, 793620, Note_on_c, 1, 69, 0
2, 793655, Note_on_c, 1, 77, 0
2, 793680, Note_on_c, 1, 67, 66
2, 793800, Note_on_c, 1, 76, 65
2, 793860, Note_on_c, 1, 67, 0
2, 793895, Note_on_c, 1, 76, 0
2, 793920, Note_on_c, 1, 65, 65
2, 794040, Note_on_c, 1, 74, 64
2, 794100, Note_on_c, 1, 65, 0
2, 794135, Note_on_c, 1, 74, 0
2, 794160, Note_on_c, 1, 64, 63
2, 794280, Note_on_c, 1, 72, 63
2, 794340, Note_on_c, 1, 64, 0
2, 794375, Note_on_c, 1, 72, 0
2, 794400, Note_on_c, 1, 71, 62
2, 795005, Note_on_c, 1, 71, 0
2, 795120, Note_on_c, 1, 70, 59
2, 795725, Note_on_c, 1, 70, 0
2, 795840, Note_on_c, 1, 82, 55
2, 796440, Note_on_c, 1, 82, 0
2, 796560, Note_on_c, 1, 76, 51
2, 797160, Note_on_c, 1, 76, 0
2, 797520, Note_on_c, 1, 84, 47
2, 797675, Note_on_c, 1, 84, 0
2, 797760, Note_on_c, 1, 84, 46
2, 797915, Note_on_c, 1, 84, 0
2, 798240, Note_on_c, 1, 86, 43
2, 798395, Note_on_c, 1, 86, 0
2, 798480, Note_on_c, 1, 86, 42
2, 798635, Note_on_c, 1, 86, 0
2, 798720, Note_on_c, 1, 77, 41
2, 799440, Note_on_c, 1, 77, 0
2, 800160, Note_on_c, 1, 83, 75
2, 800280, Note_on_c, 1, 83, 0
2, 800280, Note_on_c, 1, 84, 76
2, 800400, Note_on_c, 1, 84, 0
2, 800400, Note_on_c, 1, 83, 77
2, 800520, Note_on_c, 1, 83, 0
2, 800520, Note_on_c, 1, 84, 78
2, 800640, Note_on_c, 1, 84, 0
2, 800640, Note_on_c, 1, 83, 79
2, 800760, Note_on_c, 1, 83, 0
2, 800760, Note_on_c, 1, 84, 80
2, 800855, Note_on_c, 1, 84, 0
2, 800880, Note_on_c, 1, 85, 80
2, 801000, Note_on_c, 1, 85, 0
2, 801000, Note_on_c, 1, 86, 81
2, 801120, Note_on_c, 1, 86, 0
2, 801120, Note_on_c, 1, 85, 82
2, 801240, Note_on_c, 1, 85, 0
2, 801240, Note_on_c, 1, 86, 83
2, 801360, Note_on_c, 1, 86, 0
2, 801360, Note_on_c, 1, 88, 84
2, 801480, Note_on_c, 1, 88, 0
2, 801480, Note_on_c, 1, 89, 85
2, 801575, Note_on_c, 1, 89, 0
2, 801600, Note_on_c, 1, 77, 87
2, 802320, Note_on_c, 1, 77, 0
2, 802320, Note_on_c, 1, 81, 82
2, 802440, Note_on_c, 1, 81, 0
2, 802440, Note_on_c, 1, 79, 81
2, 802920, Note_on_c, 1, 77, 78
2, 802935, Note_on_c, 1, 79, 0
2, 803015, Note_on_c, 1, 77, 0
2, 803040, Note_on_c, 1, 77, 85
2, 803135, Note_on_c, 1, 77, 0
2, 803160, Note_on_c, 1, 81, 85
2, 803255, Note_on_c, 1, 81, 0
2, 803280, Note_on_c, 1, 84, 84
2, 803375, Note_on_c, 1, 84, 0
2, 803400, Note_on_c, 1, 89, 83
2, 803495, Note_on_c, 1, 89, 0
2, 803520, Note_on_c, 1, 88, 83
2, 803615, Note_on_c, 1, 88, 0
2, 803640, Note_on_c, 1, 86, 82
2, 803735, Note_on_c, 1, 86, 0
2, 803760, Note_on_c, 1, 84, 82
2, 803855, Note_on_c, 1, 84, 0
2, 803880, Note_on_c, 1, 86, 81
2, 803975, Note_on_c, 1, 86, 0
2, 804000, Note_on_c, 1, 84, 81
2, 804095, Note_on_c, 1, 84, 0
2, 804120, Note_on_c, 1, 82, 80
2, 804215, Note_on_c, 1, 82, 0
2, 804240, Note_on_c, 1, 81, 79
2, 804335, Note_on_c, 1, 81, 0
2, 804360, Note_on_c, 1, 79, 79
2, 804455, Note_on_c, 1, 79, 0
2, 804480, Note_on_c, 1, 77, 78
2, 804575, Note_on_c, 1, 77, 0
2, 804600, Note_on_c, 1, 81, 78
2, 804695, Note_on_c, 1, 81, 0
2, 804720, Note_on_c, 1, 79, 77
2, 804815, Note_on_c, 1, 79, 0
2, 804840, Note_on_c, 1, 77, 76
2, 804935, Note_on_c, 1, 77, 0
2, 804960, Note_on_c, 1, 76, 76
2, 805055, Note_on_c, 1, 76, 0
2, 805080, Note_on_c, 1, 74, 75
2, 805175, Note_on_c, 1, 74, 0
2, 805200, Note_on_c, 1, 72, 75
2, 805295, Note_on_c, 1, 72, 0
2, 805320, Note_on_c, 1, 74, 74
2, 805415, Note_on_c, 1, 74, 0
2, 805440, Note_on_c, 1, 72, 74
2, 805535, Note_on_c, 1, 72, 0
2, 805560, Note_on_c, 1, 70, 73
2, 805655, Note_on_c, 1, 70, 0
2, 805680, Note_on_c, 1, 69, 72
2, 805775, Note_on_c, 1, 69, 0
2, 805800, Note_on_c, 1, 67, 72
2, 805895, Note_on_c, 1, 67, 0
2, 805920, Note_on_c, 1, 65, 71
2, 806015, Note_on_c, 1, 65, 0
2, 806040, Note_on_c, 1, 69, 71
2, 806135, Note_on_c, 1, 69, 0
2, 806160, Note_on_c, 1, 67, 70
2, 806255, Note_on_c, 1, 67, 0
2, 806280, Note_on_c, 1, 65, 70
2, 806375, Note_on_c, 1, 65, 0
2, 806400, Note_on_c, 1, 64, 69
2, 806495, Note_on_c, 1, 64, 0
2, 806520, Note_on_c, 1, 62, 68
2, 806615, Note_on_c, 1, 62, 0
2, 806640, Note_on_c, 1, 60, 68
2, 806735, Note_on_c, 1, 60, 0
2, 806760, Note_on_c, 1, 62, 67
2, 806855, Note_on_c, 1, 62, 0
2, 806880, Note_on_c, 1, 60, 67
2, 806975, Note_on_c, 1, 60, 0
2, 807000, Note_on_c, 1, 58, 66
2, 807095, Note_on_c, 1, 58, 0
2, 807120, Note_on_c, 1, 57, 65
2, 807215, Note_on_c, 1, 57, 0
2, 807240, Note_on_c, 1, 55, 65
2, 807335, Note_on_c, 1, 55, 0
2, 807360, Note_on_c, 1, 53, 64
2, 807515, Note_on_c, 1, 53, 0
2, 807600, Note_on_c, 1, 57, 66
2, 807755, Note_on_c, 1, 57, 0
2, 807840, Note_on_c, 1, 60, 68
2, 807995, Note_on_c, 1, 60, 0
2, 808080, Note_on_c, 1, 65, 70
2, 808235, Note_on_c, 1, 65, 0
2, 808320, Note_on_c, 1, 69, 72
2, 808475, Note_on_c, 1, 69, 0
2, 808560, Note_on_c, 1, 72, 74
2, 808715, Note_on_c, 1, 72, 0
2, 808800, Note_on_c, 1, 77, 76
2, 809280, Note_on_c, 1, 77, 0
2, 809520, Note_on_c, 1, 84, 82
2, 810000, Note_on_c, 1, 84, 0
2, 810240, Note_on_c, 1, 87, 89
2, 810720, Note_on_c, 1, 87, 0
2, 811680, Note_on_c, 1, 86, 74
2, 812160, Note_on_c, 1, 86, 0
2, 813120, Note_on_c, 1, 89, 64
2, 813600, Note_on_c, 1, 89, 0
2, 814560, Note_on_c, 1, 65, 51
2, 816000, Note_on_c, 1, 65, 0
2, 816000, Note_on_c, 1, 69, 45
2, 816120, Note_on_c, 1, 69, 0
2, 816120, Note_on_c, 1, 67, 44
2, 817200, Note_on_c, 1, 67, 0
2, 817200, Note_on_c, 1, 65, 40
2, 817385, Note_on_c, 1, 65, 0
2, 817440, Note_on_c, 1, 65, 39
2, 817680, Note_on_c, 1, 65, 0
2, 817920, Note_on_c, 1, 57, 82
2, 818075, Note_on_c, 1, 57, 0
2, 818160, Note_on_c, 1, 58, 83
2, 818315, Note_on_c, 1, 58, 0
2, 818640, Note_on_c, 1, 59, 86
2, 818795, Note_on_c, 1, 59, 0
2, 818880, Note_on_c, 1, 60, 87
2, 819035, Note_on_c, 1, 60, 0
2, 819360, Note_on_c, 1, 61, 90
2, 819515, Note_on_c, 1, 61, 0
2, 819600, Note_on_c, 1, 62, 92
2, 819755, Note_on_c, 1, 62, 0
2, 820080, Note_on_c, 1, 64, 95
2, 820235, Note_on_c, 1, 64, 0
2, 820320, Note_on_c, 1, 82, 101
2, 821280, Note_on_c, 1, 81, 78
2, 821285, Note_on_c, 1, 82, 0
2, 821400, Note_on_c, 1, 81, 0
2, 821400, Note_on_c, 1, 79, 76
2, 821520, Note_on_c, 1, 79, 0
2, 821520, Note_on_c, 1, 77, 75
2, 821640, Note_on_c, 1, 77, 0
2, 821640, Note_on_c, 1, 76, 73
2, 821735, Note_on_c, 1, 76, 0
2, 821760, Note_on_c, 1, 77, 71
2, 821915, Note_on_c, 1, 77, 0
2, 822000, Note_on_c, 1, 79, 68
2, 822155, Note_on_c, 1, 79, 0
2, 822240, Note_on_c, 1, 81, 65
2, 822395, Note_on_c, 1, 81, 0
2, 822480, Note_on_c, 1, 72, 62
2, 822960, Note_on_c, 1, 72, 0
2, 822960, Note_on_c, 1, 70, 55
2, 823150, Note_on_c, 1, 70, 0
2, 823200, Note_on_c, 1, 70, 52
2, 823920, Note_on_c, 1, 70, 0
2, 823920, Note_on_c, 1, 69, 43
2, 824110, Note_on_c, 1, 69, 0
2, 825120, Note_on_c, 1, 57, 71
2, 825275, Note_on_c, 1, 57, 0
2, 825360, Note_on_c, 1, 58, 72
2, 825515, Note_on_c, 1, 58, 0
2, 825840, Note_on_c, 1, 59, 75
2, 825995, Note_on_c, 1, 59, 0
2, 826080, Note_on_c, 1, 60, 76
2, 826235, Note_on_c, 1, 60, 0
2, 826560, Note_on_c, 1, 61, 78
2, 826715, Note_on_c, 1, 61, 0
2, 826800, Note_on_c, 1, 62, 80
2, 826955, Note_on_c, 1, 62, 0
2, 827280, Note_on_c, 1, 64, 82
2, 827435, Note_on_c, 1, 64, 0
2, 827520, Note_on_c, 1, 82, 91
2, 828480, Note_on_c, 1, 81, 71
2, 828485, Note_on_c, 1, 82, 0
2, 828600, Note_on_c, 1, 81, 0
2, 828600, Note_on_c, 1, 79, 70
2, 828720, Note_on_c, 1, 79, 0
2, 828720, Note_on_c, 1, 77, 69
2, 828840, Note_on_c, 1, 77, 0
2, 828840, Note_on_c, 1, 76, 68
2, 828935, Note_on_c, 1, 76, 0
2, 828960, Note_on_c, 1, 77, 66
2, 829020, Note_on_c, 1, 77, 0
2, 829020, Note_on_c, 1, 79, 66
2, 829080, Note_on_c, 1, 79, 0
2, 829080, Note_on_c, 1, 81, 65
2, 829325, Note_on_c, 1, 81, 0
2, 829680, Note_on_c, 1, 74, 59
2, 829740, Note_on_c, 1, 74, 0
2, 829740, Note_on_c, 1, 76, 59
2, 829800, Note_on_c, 1, 76, 0
2, 829800, Note_on_c, 1, 77, 58
2, 830040, Note_on_c, 1, 77, 0
2, 830400, Note_on_c, 1, 65, 52
2, 831120, Note_on_c, 1, 65, 0
2, 831120, Note_on_c, 1, 69, 45
2, 831180, Note_on_c, 1, 69, 0
2, 831180, Note_on_c, 1, 67, 44
2, 831600, Note_on_c, 1, 65, 40
2, 831605, Note_on_c, 1, 67, 0
2, 831795, Note_on_c, 1, 65, 0
2, 831840, Note_on_c, 1, 65, 42
2, 832320, Note_on_c, 1, 69, 48
2, 832560, Note_on_c, 1, 69, 0
2, 832560, Note_on_c, 1, 72, 53
2, 832565, Note_on_c, 1, 65, 0
2, 832800, Note_on_c, 1, 72, 0
2, 832800, Note_on_c, 1, 70, 49
2, 833040, Note_on_c, 1, 70, 0
2, 833040, Note_on_c, 1, 67, 45
2, 833225, Note_on_c, 1, 67, 0
2, 833280, Note_on_c, 1, 65, 44
2, 833520, Note_on_c, 1, 60, 42
2, 833760, Note_on_c, 1, 60, 0
2, 833760, Note_on_c, 1, 69, 44
2, 834000, Note_on_c, 1, 69, 0
2, 834000, Note_on_c, 1, 65, 0
2, 834000, Note_on_c, 1, 72, 47
2, 834240, Note_on_c, 1, 72, 0
2, 834240, Note_on_c, 1, 70, 42
2, 834480, Note_on_c, 1, 70, 0
2, 834480, Note_on_c, 1, 67, 37
2, 834665, Note_on_c, 1, 67, 0
2, 834720, Note_on_c, 1, 65, 37
2, 834960, Note_on_c, 1, 65, 0
2, 834960, Note_on_c, 1, 60, 38
2, 835200, Note_on_c, 1, 60, 0
2, 835200, Note_on_c, 1, 69, 42
2, 835440, Note_on_c, 1, 69, 0
2, 835440, Note_on_c, 1, 65, 33
2, 835680, Note_on_c, 1, 65, 0
2, 835680, Note_on_c, 1, 60, 34
2, 835920, Note_on_c, 1, 60, 0
2, 835920, Note_on_c, 1, 69, 39
2, 836105, Note_on_c, 1, 69, 0
2, 836160, Note_on_c, 1, 67, 33
2, 836880, Note_on_c, 1, 67, 0
2, 836880, Note_on_c, 1, 65, 25
2, 837120, Note_on_c, 1, 65, 0
2, 837120, End_track
3, 0, Start_track
3, 0, Title_t, "Unnamed Track"
3, 0, Control_c, 2, 0, 0
3, 0, Control_c, 2, 7, 122
3, 0, Control_c, 2, 10, 73
3, 0, Control_c, 2, 91, 100
3, 0, Control_c, 2, 93, 19
3, 0, Control_c, 2, 1, 0
3, 0, Pitch_bend_c, 2, 8192
3, 0, Control_c, 2, 64, 0
3, 0, Control_c, 2, 64, 0
3, 1, Control_c, 2, 32, 0
3, 1, Program_c, 2, 0
3, 1440, Control_c, 2, 64, 0
3, 12000, Note_on_c, 2, 64, 40
3, 12060, Note_on_c, 2, 65, 39
3, 12065, Note_on_c, 2, 64, 0
3, 12120, Note_on_c, 2, 64, 39
3, 12125, Note_on_c, 2, 65, 0
3, 12240, Note_on_c, 2, 62, 38
3, 12295, Note_on_c, 2, 64, 0
3, 12480, Note_on_c, 2, 62, 0
3, 12480, Note_on_c, 2, 64, 37
3, 12855, Note_on_c, 2, 64, 0
3, 12960, Note_on_c, 2, 65, 41
3, 15600, Note_on_c, 2, 65, 0
3, 16800, Note_on_c, 2, 58, 55
3, 17280, Note_on_c, 2, 57, 47
3, 17285, Note_on_c, 2, 58, 0
3, 17645, Note_on_c, 2, 57, 0
3, 21600, Note_on_c, 2, 76, 47
3, 21840, Note_on_c, 2, 76, 0
3, 22080, Note_on_c, 2, 76, 46
3, 22320, Note_on_c, 2, 76, 0
3, 22560, Note_on_c, 2, 76, 45
3, 22800, Note_on_c, 2, 76, 0
3, 23040, Note_on_c, 2, 76, 43
3, 23520, Note_on_c, 2, 76, 0
3, 23520, Note_on_c, 2, 77, 38
3, 23825, Note_on_c, 2, 77, 0
3, 36000, Note_on_c, 2, 73, 89
3, 36040, Note_on_c, 2, 76, 91
3, 36060, Note_on_c, 2, 73, 0
3, 36080, Note_on_c, 2, 79, 93
3, 36085, Note_on_c, 2, 76, 0
3, 36120, Note_on_c, 2, 79, 0
3, 41760, Note_on_c, 2, 74, 88
3, 41760, Note_on_c, 2, 77, 88
3, 41760, Note_on_c, 2, 71, 88
3, 42480, Note_on_c, 2, 71, 0
3, 42480, Note_on_c, 2, 77, 0
3, 42480, Note_on_c, 2, 74, 0
3, 53280, Note_on_c, 2, 67, 58
3, 53320, Note_on_c, 2, 67, 0
3, 53320, Note_on_c, 2, 71, 59
3, 53360, Note_on_c, 2, 71, 0
3, 53360, Note_on_c, 2, 74, 60
3, 53400, Note_on_c, 2, 74, 0
3, 61920, Note_on_c, 2, 64, 48
3, 62345, Note_on_c, 2, 64, 0
3, 62400, Note_on_c, 2, 67, 47
3, 63120, Note_on_c, 2, 67, 0
3, 63120, Note_on_c, 2, 71, 46
3, 63310, Note_on_c, 2, 71, 0
3, 63360, Note_on_c, 2, 71, 45
3, 64320, Note_on_c, 2, 71, 0
3, 64320, Note_on_c, 2, 72, 43
3, 64705, Note_on_c, 2, 72, 0
3, 73920, Note_on_c, 2, 67, 53
3, 74305, Note_on_c, 2, 67, 0
3, 74400, Note_on_c, 2, 71, 54
3, 74785, Note_on_c, 2, 71, 0
3, 74880, Note_on_c, 2, 71, 58
3, 75795, Note_on_c, 2, 71, 0
3, 75840, Note_on_c, 2, 72, 45
3, 76225, Note_on_c, 2, 72, 0
3, 82080, Note_on_c, 2, 65, 54
3, 82270, Note_on_c, 2, 65, 0
3, 82320, Note_on_c, 2, 65, 50
3, 82510, Note_on_c, 2, 65, 0
3, 82800, Note_on_c, 2, 65, 47
3, 82990, Note_on_c, 2, 65, 0
3, 83280, Note_on_c, 2, 65, 46
3, 83470, Note_on_c, 2, 65, 0
3, 83520, Note_on_c, 2, 63, 50
3, 83710, Note_on_c, 2, 63, 0
3, 83760, Note_on_c, 2, 63, 47
3, 83950, Note_on_c, 2, 63, 0
3, 84240, Note_on_c, 2, 63, 44
3, 84430, Note_on_c, 2, 63, 0
3, 84720, Note_on_c, 2, 63, 43
3, 84910, Note_on_c, 2, 63, 0
3, 84960, Note_on_c, 2, 65, 49
3, 85150, Note_on_c, 2, 65, 0
3, 85200, Note_on_c, 2, 65, 44
3, 85390, Note_on_c, 2, 65, 0
3, 85680, Note_on_c, 2, 65, 41
3, 85870, Note_on_c, 2, 65, 0
3, 86160, Note_on_c, 2, 65, 40
3, 86350, Note_on_c, 2, 65, 0
3, 86400, Note_on_c, 2, 63, 77
3, 86590, Note_on_c, 2, 63, 0
3, 86640, Note_on_c, 2, 63, 63
3, 86830, Note_on_c, 2, 63, 0
3, 87120, Note_on_c, 2, 63, 54
3, 87310, Note_on_c, 2, 63, 0
3, 87600, Note_on_c, 2, 63, 46
3, 87790, Note_on_c, 2, 63, 0
3, 87840, Note_on_c, 2, 63, 80
3, 88030, Note_on_c, 2, 63, 0
3, 88080, Note_on_c, 2, 63, 64
3, 88270, Note_on_c, 2, 63, 0
3, 88560, Note_on_c, 2, 63, 58
3, 88750, Note_on_c, 2, 63, 0
3, 89040, Note_on_c, 2, 63, 52
3, 89230, Note_on_c, 2, 63, 0
3, 89280, Note_on_c, 2, 62, 84
3, 89470, Note_on_c, 2, 62, 0
3, 89520, Note_on_c, 2, 62, 70
3, 89710, Note_on_c, 2, 62, 0
3, 90000, Note_on_c, 2, 62, 64
3, 90190, Note_on_c, 2, 62, 0
3, 90480, Note_on_c, 2, 62, 58
3, 90670, Note_on_c, 2, 62, 0
3, 90720, Note_on_c, 2, 62, 90
3, 90910, Note_on_c, 2, 62, 0
3, 90960, Note_on_c, 2, 62, 76
3, 91150, Note_on_c, 2, 62, 0
3, 91440, Note_on_c, 2, 62, 69
3, 91630, Note_on_c, 2, 62, 0
3, 91920, Note_on_c, 2, 62, 62
3, 92110, Note_on_c, 2, 62, 0
3, 92160, Note_on_c, 2, 60, 95
3, 92350, Note_on_c, 2, 60, 0
3, 92400, Note_on_c, 2, 60, 79
3, 92590, Note_on_c, 2, 60, 0
3, 92880, Note_on_c, 2, 60, 66
3, 93070, Note_on_c, 2, 60, 0
3, 93120, Note_on_c, 2, 60, 92
3, 93310, Note_on_c, 2, 60, 0
3, 93360, Note_on_c, 2, 60, 73
3, 93550, Note_on_c, 2, 60, 0
3, 93840, Note_on_c, 2, 60, 58
3, 94030, Note_on_c, 2, 60, 0
3, 94080, Note_on_c, 2, 59, 86
3, 94270, Note_on_c, 2, 59, 0
3, 94320, Note_on_c, 2, 59, 68
3, 94510, Note_on_c, 2, 59, 0
3, 94800, Note_on_c, 2, 59, 56
3, 94990, Note_on_c, 2, 59, 0
3, 95280, Note_on_c, 2, 60, 55
3, 95470, Note_on_c, 2, 60, 0
3, 95760, Note_on_c, 2, 60, 50
3, 95950, Note_on_c, 2, 60, 0
3, 96240, Note_on_c, 2, 60, 45
3, 96430, Note_on_c, 2, 60, 0
3, 96480, Note_on_c, 2, 59, 43
3, 96670, Note_on_c, 2, 59, 0
3, 96720, Note_on_c, 2, 63, 49
3, 96960, Note_on_c, 2, 63, 0
3, 96960, Note_on_c, 2, 62, 47
3, 97200, Note_on_c, 2, 62, 0
3, 97200, Note_on_c, 2, 60, 46
3, 97440, Note_on_c, 2, 60, 0
3, 97440, Note_on_c, 2, 59, 44
3, 97680, Note_on_c, 2, 59, 0
3, 97680, Note_on_c, 2, 60, 42
3, 97920, Note_on_c, 2, 60, 0
3, 97920, Note_on_c, 2, 59, 41
3, 98110, Note_on_c, 2, 59, 0
3, 98160, Note_on_c, 2, 63, 47
3, 98400, Note_on_c, 2, 63, 0
3, 98400, Note_on_c, 2, 62, 45
3, 98640, Note_on_c, 2, 62, 0
3, 98640, Note_on_c, 2, 60, 43
3, 98880, Note_on_c, 2, 60, 0
3, 98880, Note_on_c, 2, 59, 40
3, 99120, Note_on_c, 2, 59, 0
3, 99120, Note_on_c, 2, 60, 38
3, 99360, Note_on_c, 2, 60, 0
3, 99360, Note_on_c, 2, 59, 38
3, 99600, Note_on_c, 2, 59, 0
3, 99600, Note_on_c, 2, 60, 36
3, 99840, Note_on_c, 2, 60, 0
3, 99840, Note_on_c, 2, 59, 35
3, 100080, Note_on_c, 2, 59, 0
3, 100080, Note_on_c, 2, 60, 34
3, 100320, Note_on_c, 2, 60, 0
3, 100320, Note_on_c, 2, 59, 33
3, 100560, Note_on_c, 2, 59, 0
3, 100560, Note_on_c, 2, 60, 32
3, 100800, Note_on_c, 2, 60, 0
3, 100800, Note_on_c, 2, 59, 34
3, 100990, Note_on_c, 2, 59, 0
3, 101040, Note_on_c, 2, 58, 36
3, 101280, Note_on_c, 2, 58, 0
3, 101280, Note_on_c, 2, 59, 39
3, 101520, Note_on_c, 2, 59, 0
3, 101520, Note_on_c, 2, 61, 41
3, 101760, Note_on_c, 2, 61, 0
3, 101760, Note_on_c, 2, 62, 44
3, 102000, Note_on_c, 2, 62, 0
3, 102000, Note_on_c, 2, 64, 49
3, 102190, Note_on_c, 2, 64, 0
3, 102240, Note_on_c, 2, 65, 54
3, 102550, Note_on_c, 2, 65, 0
3, 102720, Note_on_c, 2, 65, 55
3, 102720, Note_on_c, 2, 60, 55
3, 103030, Note_on_c, 2, 60, 0
3, 103030, Note_on_c, 2, 65, 0
3, 103200, Note_on_c, 2, 65, 56
3, 103200, Note_on_c, 2, 60, 56
3, 103510, Note_on_c, 2, 60, 0
3, 103510, Note_on_c, 2, 65, 0
3, 103680, Note_on_c, 2, 65, 57
3, 103680, Note_on_c, 2, 60, 57
3, 104640, Note_on_c, 2, 65, 0
3, 104640, Note_on_c, 2, 64, 49
3, 104945, Note_on_c, 2, 60, 0
3, 104950, Note_on_c, 2, 64, 0
3, 105120, Note_on_c, 2, 59, 48
3, 105120, Note_on_c, 2, 62, 48
3, 105430, Note_on_c, 2, 62, 0
3, 105430, Note_on_c, 2, 59, 0
3, 105600, Note_on_c, 2, 62, 48
3, 105600, Note_on_c, 2, 59, 48
3, 105910, Note_on_c, 2, 59, 0
3, 105910, Note_on_c, 2, 62, 0
3, 106080, Note_on_c, 2, 62, 49
3, 106080, Note_on_c, 2, 59, 49
3, 106390, Note_on_c, 2, 59, 0
3, 106390, Note_on_c, 2, 62, 0
3, 106560, Note_on_c, 2, 62, 49
3, 106560, Note_on_c, 2, 59, 49
3, 107520, Note_on_c, 2, 59, 0
3, 107520, Note_on_c, 2, 62, 0
3, 107520, Note_on_c, 2, 60, 42
3, 107830, Note_on_c, 2, 60, 0
3, 108000, Note_on_c, 2, 64, 45
3, 108240, Note_on_c, 2, 64, 0
3, 108240, Note_on_c, 2, 62, 44
3, 108425, Note_on_c, 2, 62, 0
3, 108480, Note_on_c, 2, 60, 42
3, 108960, Note_on_c, 2, 59, 39
3, 108965, Note_on_c, 2, 60, 0
3, 109345, Note_on_c, 2, 59, 0
3, 109440, Note_on_c, 2, 60, 43
3, 109595, Note_on_c, 2, 60, 0
3, 113760, Note_on_c, 2, 71, 53
3, 114070, Note_on_c, 2, 71, 0
3, 114240, Note_on_c, 2, 71, 53
3, 114550, Note_on_c, 2, 71, 0
3, 114720, Note_on_c, 2, 71, 54
3, 115030, Note_on_c, 2, 71, 0
3, 115200, Note_on_c, 2, 71, 55
3, 116160, Note_on_c, 2, 71, 0
3, 116160, Note_on_c, 2, 72, 46
3, 116470, Note_on_c, 2, 72, 0
3, 116640, Note_on_c, 2, 76, 49
3, 116880, Note_on_c, 2, 76, 0
3, 116880, Note_on_c, 2, 74, 47
3, 117065, Note_on_c, 2, 74, 0
3, 117120, Note_on_c, 2, 72, 46
3, 117430, Note_on_c, 2, 72, 0
3, 117600, Note_on_c, 2, 71, 43
3, 117910, Note_on_c, 2, 71, 0
3, 118080, Note_on_c, 2, 76, 74
3, 118270, Note_on_c, 2, 76, 0
3, 118320, Note_on_c, 2, 76, 69
3, 118510, Note_on_c, 2, 76, 0
3, 118800, Note_on_c, 2, 74, 59
3, 118990, Note_on_c, 2, 74, 0
3, 119280, Note_on_c, 2, 72, 54
3, 119470, Note_on_c, 2, 72, 0
3, 119760, Note_on_c, 2, 65, 49
3, 119950, Note_on_c, 2, 65, 0
3, 120240, Note_on_c, 2, 64, 44
3, 120430, Note_on_c, 2, 64, 0
3, 120720, Note_on_c, 2, 62, 43
3, 120910, Note_on_c, 2, 62, 0
3, 123840, Note_on_c, 2, 67, 44
3, 123840, Note_on_c, 2, 64, 44
3, 124320, Note_on_c, 2, 64, 0
3, 124320, Note_on_c, 2, 67, 0
3, 133440, Note_on_c, 2, 77, 91
3, 133440, Note_on_c, 2, 74, 91
3, 133440, Note_on_c, 2, 79, 91
3, 133825, Note_on_c, 2, 79, 0
3, 133825, Note_on_c, 2, 74, 0
3, 133825, Note_on_c, 2, 77, 0
3, 133920, Note_on_c, 2, 79, 100
3, 133920, Note_on_c, 2, 76, 100
3, 134305, Note_on_c, 2, 76, 0
3, 134305, Note_on_c, 2, 79, 0
3, 136800, Note_on_c, 2, 72, 55
3, 136800, Note_on_c, 2, 67, 55
3, 137760, Note_on_c, 2, 72, 0
3, 137760, Note_on_c, 2, 71, 44
3, 138120, Note_on_c, 2, 67, 0
3, 138145, Note_on_c, 2, 71, 0
3, 138720, Note_on_c, 2, 67, 49
3, 139560, Note_on_c, 2, 67, 0
3, 139680, Note_on_c, 2, 72, 61
3, 139680, Note_on_c, 2, 67, 61
3, 140640, Note_on_c, 2, 72, 0
3, 140640, Note_on_c, 2, 71, 51
3, 141000, Note_on_c, 2, 71, 0
3, 141000, Note_on_c, 2, 67, 0
3, 148320, Note_on_c, 2, 60, 60
3, 149280, Note_on_c, 2, 60, 0
3, 149280, Note_on_c, 2, 59, 44
3, 149665, Note_on_c, 2, 59, 0
3, 151200, Note_on_c, 2, 60, 66
3, 152160, Note_on_c, 2, 60, 0
3, 152160, Note_on_c, 2, 59, 53
3, 152545, Note_on_c, 2, 59, 0
3, 158400, Note_on_c, 2, 65, 58
3, 158590, Note_on_c, 2, 65, 0
3, 158640, Note_on_c, 2, 65, 57
3, 158830, Note_on_c, 2, 65, 0
3, 159120, Note_on_c, 2, 65, 52
3, 159310, Note_on_c, 2, 65, 0
3, 159600, Note_on_c, 2, 65, 47
3, 159790, Note_on_c, 2, 65, 0
3, 159840, Note_on_c, 2, 63, 54
3, 160030, Note_on_c, 2, 63, 0
3, 160080, Note_on_c, 2, 63, 52
3, 160270, Note_on_c, 2, 63, 0
3, 160560, Note_on_c, 2, 63, 48
3, 160750, Note_on_c, 2, 63, 0
3, 161040, Note_on_c, 2, 63, 45
3, 161230, Note_on_c, 2, 63, 0
3, 161280, Note_on_c, 2, 65, 53
3, 161470, Note_on_c, 2, 65, 0
3, 161520, Note_on_c, 2, 65, 50
3, 161710, Note_on_c, 2, 65, 0
3, 162000, Note_on_c, 2, 65, 45
3, 162190, Note_on_c, 2, 65, 0
3, 162480, Note_on_c, 2, 65, 41
3, 162670, Note_on_c, 2, 65, 0
3, 162720, Note_on_c, 2, 63, 80
3, 162910, Note_on_c, 2, 63, 0
3, 162960, Note_on_c, 2, 63, 72
3, 163150, Note_on_c, 2, 63, 0
3, 163440, Note_on_c, 2, 63, 59
3, 163630, Note_on_c, 2, 63, 0
3, 163920, Note_on_c, 2, 63, 53
3, 164110, Note_on_c, 2, 63, 0
3, 164160, Note_on_c, 2, 60, 81
3, 164160, Note_on_c, 2, 63, 81
3, 164350, Note_on_c, 2, 63, 0
3, 164350, Note_on_c, 2, 60, 0
3, 164400, Note_on_c, 2, 60, 73
3, 164400, Note_on_c, 2, 63, 73
3, 164590, Note_on_c, 2, 63, 0
3, 164590, Note_on_c, 2, 60, 0
3, 164880, Note_on_c, 2, 60, 64
3, 164880, Note_on_c, 2, 63, 64
3, 165070, Note_on_c, 2, 63, 0
3, 165070, Note_on_c, 2, 60, 0
3, 165360, Note_on_c, 2, 60, 60
3, 165360, Note_on_c, 2, 63, 60
3, 165550, Note_on_c, 2, 63, 0
3, 165550, Note_on_c, 2, 60, 0
3, 165600, Note_on_c, 2, 62, 87
3, 165790, Note_on_c, 2, 62, 0
3, 165840, Note_on_c, 2, 62, 79
3, 166030, Note_on_c, 2, 62, 0
3, 166320, Note_on_c, 2, 62, 69
3, 166510, Note_on_c, 2, 62, 0
3, 166800, Note_on_c, 2, 62, 64
3, 166990, Note_on_c, 2, 62, 0
3, 167040, Note_on_c, 2, 69, 90
3, 167040, Note_on_c, 2, 62, 90
3, 167230, Note_on_c, 2, 62, 0
3, 167230, Note_on_c, 2, 69, 0
3, 167280, Note_on_c, 2, 69, 82
3, 167280, Note_on_c, 2, 62, 82
3, 167470, Note_on_c, 2, 62, 0
3, 167470, Note_on_c, 2, 69, 0
3, 167760, Note_on_c, 2, 69, 72
3, 167760, Note_on_c, 2, 62, 72
3, 167950, Note_on_c, 2, 62, 0
3, 167950, Note_on_c, 2, 69, 0
3, 168240, Note_on_c, 2, 62, 68
3, 168240, Note_on_c, 2, 69, 68
3, 168430, Note_on_c, 2, 69, 0
3, 168430, Note_on_c, 2, 62, 0
3, 168480, Note_on_c, 2, 67, 91
3, 168480, Note_on_c, 2, 62, 91
3, 168670, Note_on_c, 2, 62, 0
3, 168670, Note_on_c, 2, 67, 0
3, 168720, Note_on_c, 2, 67, 83
3, 168720, Note_on_c, 2, 62, 83
3, 168910, Note_on_c, 2, 62, 0
3, 168910, Note_on_c, 2, 67, 0
3, 169200, Note_on_c, 2, 62, 77
3, 169200, Note_on_c, 2, 67, 77
3, 169390, Note_on_c, 2, 67, 0
3, 169390, Note_on_c, 2, 62, 0
3, 169680, Note_on_c, 2, 67, 75
3, 169680, Note_on_c, 2, 62, 75
3, 169870, Note_on_c, 2, 62, 0
3, 169870, Note_on_c, 2, 67, 0
3, 169920, Note_on_c, 2, 70, 96
3, 169920, Note_on_c, 2, 67, 96
3, 170110, Note_on_c, 2, 67, 0
3, 170110, Note_on_c, 2, 70, 0
3, 170160, Note_on_c, 2, 70, 88
3, 170160, Note_on_c, 2, 67, 88
3, 170350, Note_on_c, 2, 67, 0
3, 170350, Note_on_c, 2, 70, 0
3, 170640, Note_on_c, 2, 70, 81
3, 170640, Note_on_c, 2, 67, 81
3, 170830, Note_on_c, 2, 67, 0
3, 170830, Note_on_c, 2, 70, 0
3, 171120, Note_on_c, 2, 70, 77
3, 171120, Note_on_c, 2, 67, 77
3, 171310, Note_on_c, 2, 67, 0
3, 171310, Note_on_c, 2, 70, 0
3, 171360, Note_on_c, 2, 69, 97
3, 171550, Note_on_c, 2, 69, 0
3, 171600, Note_on_c, 2, 69, 90
3, 171790, Note_on_c, 2, 69, 0
3, 172080, Note_on_c, 2, 69, 85
3, 172270, Note_on_c, 2, 69, 0
3, 172560, Note_on_c, 2, 69, 82
3, 172750, Note_on_c, 2, 69, 0
3, 172800, Note_on_c, 2, 76, 101
3, 172800, Note_on_c, 2, 69, 101
3, 172990, Note_on_c, 2, 69, 0
3, 172990, Note_on_c, 2, 76, 0
3, 173040, Note_on_c, 2, 76, 93
3, 173040, Note_on_c, 2, 69, 93
3, 173230, Note_on_c, 2, 69, 0
3, 173230, Note_on_c, 2, 76, 0
3, 173520, Note_on_c, 2, 76, 89
3, 173520, Note_on_c, 2, 69, 89
3, 173710, Note_on_c, 2, 69, 0
3, 173710, Note_on_c, 2, 76, 0
3, 174000, Note_on_c, 2, 76, 86
3, 174000, Note_on_c, 2, 69, 86
3, 174190, Note_on_c, 2, 69, 0
3, 174190, Note_on_c, 2, 76, 0
3, 174240, Note_on_c, 2, 74, 109
3, 174240, Note_on_c, 2, 69, 109
3, 174430, Note_on_c, 2, 69, 0
3, 174430, Note_on_c, 2, 74, 0
3, 174480, Note_on_c, 2, 74, 100
3, 174480, Note_on_c, 2, 69, 100
3, 174670, Note_on_c, 2, 69, 0
3, 174670, Note_on_c, 2, 74, 0
3, 174960, Note_on_c, 2, 74, 94
3, 174960, Note_on_c, 2, 69, 94
3, 175150, Note_on_c, 2, 69, 0
3, 175150, Note_on_c, 2, 74, 0
3, 175440, Note_on_c, 2, 74, 91
3, 175440, Note_on_c, 2, 69, 91
3, 175630, Note_on_c, 2, 69, 0
3, 175630, Note_on_c, 2, 74, 0
3, 175680, Note_on_c, 2, 74, 114
3, 175870, Note_on_c, 2, 74, 0
3, 175920, Note_on_c, 2, 74, 106
3, 176110, Note_on_c, 2, 74, 0
3, 176400, Note_on_c, 2, 74, 99
3, 176590, Note_on_c, 2, 74, 0
3, 176880, Note_on_c, 2, 74, 94
3, 177070, Note_on_c, 2, 74, 0
3, 177120, Note_on_c, 2, 73, 97
3, 177310, Note_on_c, 2, 73, 0
3, 177360, Note_on_c, 2, 77, 102
3, 177600, Note_on_c, 2, 77, 0
3, 177600, Note_on_c, 2, 76, 98
3, 177840, Note_on_c, 2, 76, 0
3, 177840, Note_on_c, 2, 74, 95
3, 178080, Note_on_c, 2, 74, 0
3, 178080, Note_on_c, 2, 73, 91
3, 178320, Note_on_c, 2, 73, 0
3, 178320, Note_on_c, 2, 74, 87
3, 178560, Note_on_c, 2, 74, 0
3, 178560, Note_on_c, 2, 73, 83
3, 178750, Note_on_c, 2, 73, 0
3, 178800, Note_on_c, 2, 65, 88
3, 179040, Note_on_c, 2, 65, 0
3, 179040, Note_on_c, 2, 64, 84
3, 179280, Note_on_c, 2, 64, 0
3, 179280, Note_on_c, 2, 62, 81
3, 179520, Note_on_c, 2, 62, 0
3, 179520, Note_on_c, 2, 61, 77
3, 179760, Note_on_c, 2, 61, 0
3, 179760, Note_on_c, 2, 62, 73
3, 180000, Note_on_c, 2, 62, 0
3, 180000, Note_on_c, 2, 61, 69
3, 180240, Note_on_c, 2, 61, 0
3, 180240, Note_on_c, 2, 62, 73
3, 180480, Note_on_c, 2, 62, 0
3, 180480, Note_on_c, 2, 61, 69
3, 180720, Note_on_c, 2, 61, 0
3, 180720, Note_on_c, 2, 62, 66
3, 180960, Note_on_c, 2, 62, 0
3, 180960, Note_on_c, 2, 61, 62
3, 181200, Note_on_c, 2, 61, 0
3, 181200, Note_on_c, 2, 62, 59
3, 181440, Note_on_c, 2, 62, 0
3, 181440, Note_on_c, 2, 61, 56
3, 181825, Note_on_c, 2, 61, 0
3, 182880, Note_on_c, 2, 60, 43
3, 183120, Note_on_c, 2, 60, 0
3, 183120, Note_on_c, 2, 62, 40
3, 183360, Note_on_c, 2, 62, 0
3, 183360, Note_on_c, 2, 60, 38
3, 183600, Note_on_c, 2, 60, 0
3, 183600, Note_on_c, 2, 62, 36
3, 183840, Note_on_c, 2, 62, 0
3, 183840, Note_on_c, 2, 60, 33
3, 184080, Note_on_c, 2, 60, 0
3, 184080, Note_on_c, 2, 62, 31
3, 184320, Note_on_c, 2, 62, 0
3, 184320, Note_on_c, 2, 60, 29
3, 184705, Note_on_c, 2, 60, 0
3, 185760, Note_on_c, 2, 58, 83
3, 185760, Note_on_c, 2, 60, 83
3, 187565, Note_on_c, 2, 60, 0
3, 187580, Note_on_c, 2, 58, 0
3, 188640, Note_on_c, 2, 76, 54
3, 190445, Note_on_c, 2, 76, 0
3, 191520, Control_c, 2, 64, 0
3, 202080, Note_on_c, 2, 64, 40
3, 202140, Note_on_c, 2, 65, 39
3, 202145, Note_on_c, 2, 64, 0
3, 202200, Note_on_c, 2, 64, 39
3, 202205, Note_on_c, 2, 65, 0
3, 202320, Note_on_c, 2, 62, 38
3, 202375, Note_on_c, 2, 64, 0
3, 202560, Note_on_c, 2, 62, 0
3, 202560, Note_on_c, 2, 64, 37
3, 202935, Note_on_c, 2, 64, 0
3, 203040, Note_on_c, 2, 65, 41
3, 205680, Note_on_c, 2, 65, 0
3, 206880, Note_on_c, 2, 58, 55
3, 207360, Note_on_c, 2, 57, 47
3, 207365, Note_on_c, 2, 58, 0
3, 207725, Note_on_c, 2, 57, 0
3, 211680, Note_on_c, 2, 76, 47
3, 211920, Note_on_c, 2, 76, 0
3, 212160, Note_on_c, 2, 76, 46
3, 212400, Note_on_c, 2, 76, 0
3, 212640, Note_on_c, 2, 76, 45
3, 212880, Note_on_c, 2, 76, 0
3, 213120, Note_on_c, 2, 76, 43
3, 213600, Note_on_c, 2, 76, 0
3, 213600, Note_on_c, 2, 77, 38
3, 213905, Note_on_c, 2, 77, 0
3, 226080, Note_on_c, 2, 73, 89
3, 226120, Note_on_c, 2, 76, 91
3, 226140, Note_on_c, 2, 73, 0
3, 226160, Note_on_c, 2, 79, 93
3, 226165, Note_on_c, 2, 76, 0
3, 226200, Note_on_c, 2, 79, 0
3, 231840, Note_on_c, 2, 71, 88
3, 231840, Note_on_c, 2, 77, 88
3, 231840, Note_on_c, 2, 74, 88
3, 232560, Note_on_c, 2, 74, 0
3, 232560, Note_on_c, 2, 77, 0
3, 232560, Note_on_c, 2, 71, 0
3, 237600, Note_on_c, 2, 69, 81
3, 237640, Note_on_c, 2, 69, 0
3, 237640, Note_on_c, 2, 72, 83
3, 237680, Note_on_c, 2, 72, 0
3, 237680, Note_on_c, 2, 75, 84
3, 237720, Note_on_c, 2, 75, 0
3, 249120, Note_on_c, 2, 72, 60
3, 249160, Note_on_c, 2, 72, 0
3, 249160, Note_on_c, 2, 76, 60
3, 249200, Note_on_c, 2, 76, 0
3, 249200, Note_on_c, 2, 79, 60
3, 249240, Note_on_c, 2, 79, 0
3, 257760, Note_on_c, 2, 57, 46
3, 258145, Note_on_c, 2, 57, 0
3, 258240, Note_on_c, 2, 60, 45
3, 258960, Note_on_c, 2, 60, 0
3, 258960, Note_on_c, 2, 64, 47
3, 259150, Note_on_c, 2, 64, 0
3, 259200, Note_on_c, 2, 64, 47
3, 260160, Note_on_c, 2, 64, 0
3, 260160, Note_on_c, 2, 65, 39
3, 260545, Note_on_c, 2, 65, 0
3, 266400, Note_on_c, 2, 68, 62
3, 266640, Note_on_c, 2, 68, 0
3, 266640, Note_on_c, 2, 69, 63
3, 266830, Note_on_c, 2, 69, 0
3, 266880, Note_on_c, 2, 68, 64
3, 267120, Note_on_c, 2, 68, 0
3, 267120, Note_on_c, 2, 69, 64
3, 267310, Note_on_c, 2, 69, 0
3, 267360, Note_on_c, 2, 68, 65
3, 267600, Note_on_c, 2, 68, 0
3, 267600, Note_on_c, 2, 69, 66
3, 267790, Note_on_c, 2, 69, 0
3, 267840, Note_on_c, 2, 71, 67
3, 268080, Note_on_c, 2, 71, 0
3, 268080, Note_on_c, 2, 72, 67
3, 268270, Note_on_c, 2, 72, 0
3, 268320, Note_on_c, 2, 71, 68
3, 268560, Note_on_c, 2, 71, 0
3, 268560, Note_on_c, 2, 72, 69
3, 268750, Note_on_c, 2, 72, 0
3, 268800, Note_on_c, 2, 70, 70
3, 269040, Note_on_c, 2, 70, 0
3, 269040, Note_on_c, 2, 67, 71
3, 269230, Note_on_c, 2, 67, 0
3, 277920, Note_on_c, 2, 70, 52
3, 278110, Note_on_c, 2, 70, 0
3, 278160, Note_on_c, 2, 70, 50
3, 278350, Note_on_c, 2, 70, 0
3, 278640, Note_on_c, 2, 70, 45
3, 278830, Note_on_c, 2, 70, 0
3, 279120, Note_on_c, 2, 70, 41
3, 279310, Note_on_c, 2, 70, 0
3, 279360, Note_on_c, 2, 68, 49
3, 279550, Note_on_c, 2, 68, 0
3, 279600, Note_on_c, 2, 68, 47
3, 279790, Note_on_c, 2, 68, 0
3, 280080, Note_on_c, 2, 68, 44
3, 280270, Note_on_c, 2, 68, 0
3, 280560, Note_on_c, 2, 68, 40
3, 280750, Note_on_c, 2, 68, 0
3, 280800, Note_on_c, 2, 70, 48
3, 280990, Note_on_c, 2, 70, 0
3, 281040, Note_on_c, 2, 70, 44
3, 281230, Note_on_c, 2, 70, 0
3, 281520, Note_on_c, 2, 70, 41
3, 281710, Note_on_c, 2, 70, 0
3, 282000, Note_on_c, 2, 70, 38
3, 282190, Note_on_c, 2, 70, 0
3, 282240, Note_on_c, 2, 68, 74
3, 282430, Note_on_c, 2, 68, 0
3, 282480, Note_on_c, 2, 68, 65
3, 282670, Note_on_c, 2, 68, 0
3, 282960, Note_on_c, 2, 68, 54
3, 283150, Note_on_c, 2, 68, 0
3, 283440, Note_on_c, 2, 68, 50
3, 283630, Note_on_c, 2, 68, 0
3, 283680, Note_on_c, 2, 68, 77
3, 283870, Note_on_c, 2, 68, 0
3, 283920, Note_on_c, 2, 68, 69
3, 284110, Note_on_c, 2, 68, 0
3, 284400, Note_on_c, 2, 68, 59
3, 284590, Note_on_c, 2, 68, 0
3, 284880, Note_on_c, 2, 68, 57
3, 285070, Note_on_c, 2, 68, 0
3, 285120, Note_on_c, 2, 67, 84
3, 285310, Note_on_c, 2, 67, 0
3, 285360, Note_on_c, 2, 67, 77
3, 285550, Note_on_c, 2, 67, 0
3, 285840, Note_on_c, 2, 67, 67
3, 286030, Note_on_c, 2, 67, 0
3, 286320, Note_on_c, 2, 67, 65
3, 286510, Note_on_c, 2, 67, 0
3, 286560, Note_on_c, 2, 67, 88
3, 286750, Note_on_c, 2, 67, 0
3, 286800, Note_on_c, 2, 67, 81
3, 286990, Note_on_c, 2, 67, 0
3, 287280, Note_on_c, 2, 67, 73
3, 287470, Note_on_c, 2, 67, 0
3, 287760, Note_on_c, 2, 67, 70
3, 287950, Note_on_c, 2, 67, 0
3, 288000, Note_on_c, 2, 65, 94
3, 288190, Note_on_c, 2, 65, 0
3, 288240, Note_on_c, 2, 65, 80
3, 288430, Note_on_c, 2, 65, 0
3, 288720, Note_on_c, 2, 65, 67
3, 288910, Note_on_c, 2, 65, 0
3, 288960, Note_on_c, 2, 65, 89
3, 289150, Note_on_c, 2, 65, 0
3, 289200, Note_on_c, 2, 65, 80
3, 289390, Note_on_c, 2, 65, 0
3, 289680, Note_on_c, 2, 65, 67
3, 289870, Note_on_c, 2, 65, 0
3, 289920, Note_on_c, 2, 64, 82
3, 290110, Note_on_c, 2, 64, 0
3, 290160, Note_on_c, 2, 64, 73
3, 290350, Note_on_c, 2, 64, 0
3, 290640, Note_on_c, 2, 64, 65
3, 290830, Note_on_c, 2, 64, 0
3, 291120, Note_on_c, 2, 65, 58
3, 291310, Note_on_c, 2, 65, 0
3, 291600, Note_on_c, 2, 65, 56
3, 291790, Note_on_c, 2, 65, 0
3, 292080, Note_on_c, 2, 65, 54
3, 292270, Note_on_c, 2, 65, 0
3, 292320, Note_on_c, 2, 64, 53
3, 292510, Note_on_c, 2, 64, 0
3, 292560, Note_on_c, 2, 68, 56
3, 292800, Note_on_c, 2, 68, 0
3, 292800, Note_on_c, 2, 67, 53
3, 293040, Note_on_c, 2, 67, 0
3, 293040, Note_on_c, 2, 65, 51
3, 293280, Note_on_c, 2, 65, 0
3, 293280, Note_on_c, 2, 64, 48
3, 293520, Note_on_c, 2, 64, 0
3, 293520, Note_on_c, 2, 65, 45
3, 293760, Note_on_c, 2, 65, 0
3, 293760, Note_on_c, 2, 64, 43
3, 293950, Note_on_c, 2, 64, 0
3, 294000, Note_on_c, 2, 68, 53
3, 294240, Note_on_c, 2, 68, 0
3, 294240, Note_on_c, 2, 67, 51
3, 294480, Note_on_c, 2, 67, 0
3, 294480, Note_on_c, 2, 65, 48
3, 294720, Note_on_c, 2, 65, 0
3, 294720, Note_on_c, 2, 64, 46
3, 294960, Note_on_c, 2, 64, 0
3, 294960, Note_on_c, 2, 65, 43
3, 295200, Note_on_c, 2, 65, 0
3, 295200, Note_on_c, 2, 64, 41
3, 295440, Note_on_c, 2, 64, 0
3, 295440, Note_on_c, 2, 65, 41
3, 295680, Note_on_c, 2, 65, 0
3, 295680, Note_on_c, 2, 64, 39
3, 295920, Note_on_c, 2, 64, 0
3, 295920, Note_on_c, 2, 65, 38
3, 296160, Note_on_c, 2, 65, 0
3, 296160, Note_on_c, 2, 64, 36
3, 296400, Note_on_c, 2, 64, 0
3, 296400, Note_on_c, 2, 65, 35
3, 296640, Note_on_c, 2, 65, 0
3, 296640, Note_on_c, 2, 64, 37
3, 296830, Note_on_c, 2, 64, 0
3, 296880, Note_on_c, 2, 63, 39
3, 297120, Note_on_c, 2, 63, 0
3, 297120, Note_on_c, 2, 64, 41
3, 297360, Note_on_c, 2, 64, 0
3, 297360, Note_on_c, 2, 66, 43
3, 297600, Note_on_c, 2, 66, 0
3, 297600, Note_on_c, 2, 67, 45
3, 297840, Note_on_c, 2, 67, 0
3, 297840, Note_on_c, 2, 69, 47
3, 298080, Note_on_c, 2, 69, 0
3, 298080, Note_on_c, 2, 70, 51
3, 298390, Note_on_c, 2, 70, 0
3, 298560, Note_on_c, 2, 70, 51
3, 298560, Note_on_c, 2, 65, 51
3, 298870, Note_on_c, 2, 65, 0
3, 298870, Note_on_c, 2, 70, 0
3, 299040, Note_on_c, 2, 70, 52
3, 299040, Note_on_c, 2, 65, 52
3, 299350, Note_on_c, 2, 65, 0
3, 299350, Note_on_c, 2, 70, 0
3, 299520, Note_on_c, 2, 70, 53
3, 299520, Note_on_c, 2, 65, 53
3, 300480, Note_on_c, 2, 70, 0
3, 300480, Note_on_c, 2, 69, 46
3, 300785, Note_on_c, 2, 65, 0
3, 300790, Note_on_c, 2, 69, 0
3, 300960, Note_on_c, 2, 64, 45
3, 300960, Note_on_c, 2, 67, 45
3, 301320, Note_on_c, 2, 64, 0
3, 301325, Note_on_c, 2, 67, 0
3, 301440, Note_on_c, 2, 64, 45
3, 301440, Note_on_c, 2, 67, 45
3, 301750, Note_on_c, 2, 67, 0
3, 301750, Note_on_c, 2, 64, 0
3, 301920, Note_on_c, 2, 64, 47
3, 301920, Note_on_c, 2, 67, 47
3, 302230, Note_on_c, 2, 67, 0
3, 302230, Note_on_c, 2, 64, 0
3, 302400, Note_on_c, 2, 67, 48
3, 302400, Note_on_c, 2, 64, 48
3, 303360, Note_on_c, 2, 64, 0
3, 303360, Note_on_c, 2, 67, 0
3, 303360, Note_on_c, 2, 65, 40
3, 303670, Note_on_c, 2, 65, 0
3, 303840, Note_on_c, 2, 69, 43
3, 304080, Note_on_c, 2, 69, 0
3, 304080, Note_on_c, 2, 67, 42
3, 304265, Note_on_c, 2, 67, 0
3, 304320, Note_on_c, 2, 65, 41
3, 304800, Note_on_c, 2, 65, 0
3, 304800, Note_on_c, 2, 64, 40
3, 305110, Note_on_c, 2, 64, 0
3, 305280, Note_on_c, 2, 65, 38
3, 305480, Note_on_c, 2, 65, 0
3, 309600, Note_on_c, 2, 76, 50
3, 309985, Note_on_c, 2, 76, 0
3, 310080, Note_on_c, 2, 76, 48
3, 310390, Note_on_c, 2, 76, 0
3, 310560, Note_on_c, 2, 76, 50
3, 310870, Note_on_c, 2, 76, 0
3, 311040, Note_on_c, 2, 76, 53
3, 312000, Note_on_c, 2, 76, 0
3, 312000, Note_on_c, 2, 77, 46
3, 312385, Note_on_c, 2, 77, 0
3, 312480, Note_on_c, 2, 81, 49
3, 312720, Note_on_c, 2, 81, 0
3, 312720, Note_on_c, 2, 79, 47
3, 312905, Note_on_c, 2, 79, 0
3, 312960, Note_on_c, 2, 77, 46
3, 313440, Note_on_c, 2, 77, 0
3, 313440, Note_on_c, 2, 76, 42
3, 313825, Note_on_c, 2, 76, 0
3, 313920, Note_on_c, 2, 81, 80
3, 314110, Note_on_c, 2, 81, 0
3, 314160, Note_on_c, 2, 81, 73
3, 314350, Note_on_c, 2, 81, 0
3, 314640, Note_on_c, 2, 79, 64
3, 314830, Note_on_c, 2, 79, 0
3, 315120, Note_on_c, 2, 77, 58
3, 315310, Note_on_c, 2, 77, 0
3, 315600, Note_on_c, 2, 70, 53
3, 315790, Note_on_c, 2, 70, 0
3, 316080, Note_on_c, 2, 69, 50
3, 316270, Note_on_c, 2, 69, 0
3, 316560, Note_on_c, 2, 67, 48
3, 316750, Note_on_c, 2, 67, 0
3, 319680, Note_on_c, 2, 69, 46
3, 319680, Note_on_c, 2, 72, 46
3, 320160, Note_on_c, 2, 72, 0
3, 320160, Note_on_c, 2, 69, 0
3, 329280, Note_on_c, 2, 67, 101
3, 329280, Note_on_c, 2, 72, 101
3, 329665, Note_on_c, 2, 72, 0
3, 329665, Note_on_c, 2, 67, 0
3, 329760, Note_on_c, 2, 69, 109
3, 329760, Note_on_c, 2, 72, 109
3, 330145, Note_on_c, 2, 72, 0
3, 330145, Note_on_c, 2, 69, 0
3, 331200, Control_c, 2, 64, 0
3, 359520, Note_on_c, 2, 64, 45
3, 360000, Note_on_c, 2, 64, 0
3, 368640, Note_on_c, 2, 77, 61
3, 368880, Note_on_c, 2, 77, 0
3, 368880, Note_on_c, 2, 76, 55
3, 369120, Note_on_c, 2, 76, 0
3, 369120, Note_on_c, 2, 74, 53
3, 369360, Note_on_c, 2, 74, 0
3, 369360, Note_on_c, 2, 73, 50
3, 369550, Note_on_c, 2, 73, 0
3, 369600, Note_on_c, 2, 74, 58
3, 369840, Note_on_c, 2, 74, 0
3, 369840, Note_on_c, 2, 72, 52
3, 370080, Note_on_c, 2, 72, 0
3, 370080, Note_on_c, 2, 70, 49
3, 370320, Note_on_c, 2, 70, 0
3, 370320, Note_on_c, 2, 69, 47
3, 370510, Note_on_c, 2, 69, 0
3, 370560, Note_on_c, 2, 70, 54
3, 370800, Note_on_c, 2, 70, 0
3, 370800, Note_on_c, 2, 69, 48
3, 371040, Note_on_c, 2, 69, 0
3, 371040, Note_on_c, 2, 67, 45
3, 371280, Note_on_c, 2, 67, 0
3, 371280, Note_on_c, 2, 66, 42
3, 371470, Note_on_c, 2, 66, 0
3, 371520, Note_on_c, 2, 66, 50
3, 372480, Note_on_c, 2, 66, 0
3, 372480, Note_on_c, 2, 67, 37
3, 372670, Note_on_c, 2, 67, 0
3, 374880, Note_on_c, 2, 64, 36
3, 375265, Note_on_c, 2, 64, 0
3, 375360, Note_on_c, 2, 64, 43
3, 375840, Note_on_c, 2, 65, 38
3, 375845, Note_on_c, 2, 64, 0
3, 376225, Note_on_c, 2, 65, 0
3, 384000, Note_on_c, 2, 77, 56
3, 384240, Note_on_c, 2, 77, 0
3, 384240, Note_on_c, 2, 76, 49
3, 384480, Note_on_c, 2, 76, 0
3, 384480, Note_on_c, 2, 74, 46
3, 384720, Note_on_c, 2, 74, 0
3, 384720, Note_on_c, 2, 73, 44
3, 384910, Note_on_c, 2, 73, 0
3, 384960, Note_on_c, 2, 74, 55
3, 385200, Note_on_c, 2, 74, 0
3, 385200, Note_on_c, 2, 72, 48
3, 385440, Note_on_c, 2, 72, 0
3, 385440, Note_on_c, 2, 70, 45
3, 385680, Note_on_c, 2, 70, 0
3, 385680, Note_on_c, 2, 69, 43
3, 385870, Note_on_c, 2, 69, 0
3, 385920, Note_on_c, 2, 70, 50
3, 386160, Note_on_c, 2, 70, 0
3, 386160, Note_on_c, 2, 69, 45
3, 386400, Note_on_c, 2, 69, 0
3, 386400, Note_on_c, 2, 67, 42
3, 386640, Note_on_c, 2, 67, 0
3, 386640, Note_on_c, 2, 66, 39
3, 386830, Note_on_c, 2, 66, 0
3, 386880, Note_on_c, 2, 62, 43
3, 386880, Note_on_c, 2, 66, 43
3, 387840, Note_on_c, 2, 66, 0
3, 387840, Note_on_c, 2, 67, 34
3, 388030, Note_on_c, 2, 67, 0
3, 388320, Note_on_c, 2, 62, 0
3, 398440, Note_on_c, 2, 69, 58
3, 398480, Note_on_c, 2, 69, 0
3, 398480, Note_on_c, 2, 67, 58
3, 398520, Note_on_c, 2, 67, 0
3, 398520, Note_on_c, 2, 69, 57
3, 398560, Note_on_c, 2, 69, 0
3, 398560, Note_on_c, 2, 67, 57
3, 398600, Note_on_c, 2, 67, 0
3, 398600, Note_on_c, 2, 69, 57
3, 398640, Note_on_c, 2, 69, 0
3, 398640, Note_on_c, 2, 67, 56
3, 398680, Note_on_c, 2, 67, 0
3, 398680, Note_on_c, 2, 69, 56
3, 398720, Note_on_c, 2, 69, 0
3, 398720, Note_on_c, 2, 67, 56
3, 398760, Note_on_c, 2, 67, 0
3, 398760, Note_on_c, 2, 69, 55
3, 398800, Note_on_c, 2, 69, 0
3, 398800, Note_on_c, 2, 67, 55
3, 398840, Note_on_c, 2, 67, 0
3, 398840, Note_on_c, 2, 69, 55
3, 398880, Note_on_c, 2, 69, 0
3, 398880, Note_on_c, 2, 67, 54
3, 398920, Note_on_c, 2, 67, 0
3, 398920, Note_on_c, 2, 69, 54
3, 398960, Note_on_c, 2, 69, 0
3, 398960, Note_on_c, 2, 67, 54
3, 399000, Note_on_c, 2, 67, 0
3, 399000, Note_on_c, 2, 69, 53
3, 399040, Note_on_c, 2, 69, 0
3, 399040, Note_on_c, 2, 67, 53
3, 399080, Note_on_c, 2, 67, 0
3, 399080, Note_on_c, 2, 69, 53
3, 399120, Note_on_c, 2, 69, 0
3, 399120, Note_on_c, 2, 67, 52
3, 399160, Note_on_c, 2, 67, 0
3, 399160, Note_on_c, 2, 69, 52
3, 399200, Note_on_c, 2, 69, 0
3, 399200, Note_on_c, 2, 67, 51
3, 399240, Note_on_c, 2, 67, 0
3, 399240, Note_on_c, 2, 69, 51
3, 399280, Note_on_c, 2, 69, 0
3, 399280, Note_on_c, 2, 67, 51
3, 399320, Note_on_c, 2, 67, 0
3, 399320, Note_on_c, 2, 69, 50
3, 399360, Note_on_c, 2, 69, 0
3, 399360, Note_on_c, 2, 67, 50
3, 399400, Note_on_c, 2, 67, 0
3, 399400, Note_on_c, 2, 69, 50
3, 399440, Note_on_c, 2, 69, 0
3, 399440, Note_on_c, 2, 67, 49
3, 399480, Note_on_c, 2, 67, 0
3, 399480, Note_on_c, 2, 69, 49
3, 399520, Note_on_c, 2, 69, 0
3, 399520, Note_on_c, 2, 67, 49
3, 399560, Note_on_c, 2, 67, 0
3, 399560, Note_on_c, 2, 69, 48
3, 399600, Note_on_c, 2, 69, 0
3, 399600, Note_on_c, 2, 67, 48
3, 399640, Note_on_c, 2, 67, 0
3, 399640, Note_on_c, 2, 69, 48
3, 399680, Note_on_c, 2, 69, 0
3, 399680, Note_on_c, 2, 67, 47
3, 399720, Note_on_c, 2, 67, 0
3, 399720, Note_on_c, 2, 69, 47
3, 399760, Note_on_c, 2, 69, 0
3, 399760, Note_on_c, 2, 67, 47
3, 399800, Note_on_c, 2, 67, 0
3, 399800, Note_on_c, 2, 69, 46
3, 399840, Note_on_c, 2, 69, 0
3, 399840, Note_on_c, 2, 67, 46
3, 399880, Note_on_c, 2, 67, 0
3, 399880, Note_on_c, 2, 69, 46
3, 399920, Note_on_c, 2, 69, 0
3, 399920, Note_on_c, 2, 67, 45
3, 399960, Note_on_c, 2, 67, 0
3, 399960, Note_on_c, 2, 69, 45
3, 400000, Note_on_c, 2, 69, 0
3, 400000, Note_on_c, 2, 67, 45
3, 400040, Note_on_c, 2, 67, 0
3, 400040, Note_on_c, 2, 69, 44
3, 400080, Note_on_c, 2, 69, 0
3, 400080, Note_on_c, 2, 67, 44
3, 400120, Note_on_c, 2, 67, 0
3, 400120, Note_on_c, 2, 69, 44
3, 400160, Note_on_c, 2, 69, 0
3, 400160, Note_on_c, 2, 67, 43
3, 400200, Note_on_c, 2, 67, 0
3, 400200, Note_on_c, 2, 65, 43
3, 400260, Note_on_c, 2, 65, 0
3, 400260, Note_on_c, 2, 67, 43
3, 400320, Note_on_c, 2, 67, 0
3, 436320, Note_on_c, 2, 64, 41
3, 436745, Note_on_c, 2, 64, 0
3, 445440, Note_on_c, 2, 82, 60
3, 445680, Note_on_c, 2, 82, 0
3, 445680, Note_on_c, 2, 81, 55
3, 445920, Note_on_c, 2, 81, 0
3, 445920, Note_on_c, 2, 79, 52
3, 446160, Note_on_c, 2, 79, 0
3, 446160, Note_on_c, 2, 78, 48
3, 446350, Note_on_c, 2, 78, 0
3, 446400, Note_on_c, 2, 79, 55
3, 446640, Note_on_c, 2, 79, 0
3, 446640, Note_on_c, 2, 77, 52
3, 446880, Note_on_c, 2, 77, 0
3, 446880, Note_on_c, 2, 75, 49
3, 447120, Note_on_c, 2, 75, 0
3, 447120, Note_on_c, 2, 74, 47
3, 447310, Note_on_c, 2, 74, 0
3, 447360, Note_on_c, 2, 75, 53
3, 447600, Note_on_c, 2, 75, 0
3, 447600, Note_on_c, 2, 74, 48
3, 447840, Note_on_c, 2, 74, 0
3, 447840, Note_on_c, 2, 72, 45
3, 448080, Note_on_c, 2, 72, 0
3, 448080, Note_on_c, 2, 71, 42
3, 448270, Note_on_c, 2, 71, 0
3, 448320, Note_on_c, 2, 67, 47
3, 448320, Note_on_c, 2, 71, 47
3, 449280, Note_on_c, 2, 71, 0
3, 449280, Note_on_c, 2, 72, 37
3, 449470, Note_on_c, 2, 72, 0
3, 449760, Note_on_c, 2, 67, 0
3, 451680, Note_on_c, 2, 69, 32
3, 452065, Note_on_c, 2, 69, 0
3, 452160, Note_on_c, 2, 69, 39
3, 452640, Note_on_c, 2, 69, 0
3, 452640, Note_on_c, 2, 70, 32
3, 453025, Note_on_c, 2, 70, 0
3, 460920, Note_on_c, 2, 82, 58
3, 461160, Note_on_c, 2, 82, 0
3, 461160, Note_on_c, 2, 81, 56
3, 461400, Note_on_c, 2, 81, 0
3, 461400, Note_on_c, 2, 79, 53
3, 461640, Note_on_c, 2, 79, 0
3, 461640, Note_on_c, 2, 78, 51
3, 461820, Note_on_c, 2, 78, 0
3, 461880, Note_on_c, 2, 79, 52
3, 462120, Note_on_c, 2, 79, 0
3, 462120, Note_on_c, 2, 77, 50
3, 462360, Note_on_c, 2, 77, 0
3, 462360, Note_on_c, 2, 75, 46
3, 462600, Note_on_c, 2, 75, 0
3, 462600, Note_on_c, 2, 74, 42
3, 462790, Note_on_c, 2, 74, 0
3, 462840, Note_on_c, 2, 75, 46
3, 463080, Note_on_c, 2, 75, 0
3, 463080, Note_on_c, 2, 74, 43
3, 463320, Note_on_c, 2, 74, 0
3, 463320, Note_on_c, 2, 72, 41
3, 463560, Note_on_c, 2, 72, 0
3, 463560, Note_on_c, 2, 71, 38
3, 463655, Note_on_c, 2, 71, 0
3, 463680, Note_on_c, 2, 67, 46
3, 463680, Note_on_c, 2, 71, 46
3, 464640, Note_on_c, 2, 71, 0
3, 464640, Note_on_c, 2, 72, 40
3, 464830, Note_on_c, 2, 72, 0
3, 465120, Note_on_c, 2, 67, 0
3, 475240, Note_on_c, 2, 74, 68
3, 475280, Note_on_c, 2, 74, 0
3, 475280, Note_on_c, 2, 72, 67
3, 475320, Note_on_c, 2, 72, 0
3, 475320, Note_on_c, 2, 74, 66
3, 475360, Note_on_c, 2, 74, 0
3, 475360, Note_on_c, 2, 72, 66
3, 475400, Note_on_c, 2, 72, 0
3, 475400, Note_on_c, 2, 74, 66
3, 475440, Note_on_c, 2, 74, 0
3, 475440, Note_on_c, 2, 72, 66
3, 475480, Note_on_c, 2, 72, 0
3, 475480, Note_on_c, 2, 74, 65
3, 475520, Note_on_c, 2, 74, 0
3, 475520, Note_on_c, 2, 72, 65
3, 475560, Note_on_c, 2, 72, 0
3, 475560, Note_on_c, 2, 74, 65
3, 475600, Note_on_c, 2, 74, 0
3, 475600, Note_on_c, 2, 72, 64
3, 475640, Note_on_c, 2, 72, 0
3, 475640, Note_on_c, 2, 74, 64
3, 475680, Note_on_c, 2, 74, 0
3, 475680, Note_on_c, 2, 72, 64
3, 475720, Note_on_c, 2, 72, 0
3, 475720, Note_on_c, 2, 74, 64
3, 475760, Note_on_c, 2, 74, 0
3, 475760, Note_on_c, 2, 72, 63
3, 475800, Note_on_c, 2, 72, 0
3, 475800, Note_on_c, 2, 74, 63
3, 475840, Note_on_c, 2, 74, 0
3, 475840, Note_on_c, 2, 72, 63
3, 475880, Note_on_c, 2, 72, 0
3, 475880, Note_on_c, 2, 74, 62
3, 475920, Note_on_c, 2, 74, 0
3, 475920, Note_on_c, 2, 72, 62
3, 475960, Note_on_c, 2, 72, 0
3, 475960, Note_on_c, 2, 74, 62
3, 476000, Note_on_c, 2, 74, 0
3, 476000, Note_on_c, 2, 72, 62
3, 476040, Note_on_c, 2, 72, 0
3, 476040, Note_on_c, 2, 74, 61
3, 476080, Note_on_c, 2, 74, 0
3, 476080, Note_on_c, 2, 72, 61
3, 476120, Note_on_c, 2, 72, 0
3, 476120, Note_on_c, 2, 74, 61
3, 476160, Note_on_c, 2, 74, 0
3, 476160, Note_on_c, 2, 72, 61
3, 476200, Note_on_c, 2, 72, 0
3, 476200, Note_on_c, 2, 74, 60
3, 476240, Note_on_c, 2, 74, 0
3, 476240, Note_on_c, 2, 72, 60
3, 476280, Note_on_c, 2, 72, 0
3, 476280, Note_on_c, 2, 74, 60
3, 476320, Note_on_c, 2, 74, 0
3, 476320, Note_on_c, 2, 72, 59
3, 476360, Note_on_c, 2, 72, 0
3, 476360, Note_on_c, 2, 74, 59
3, 476400, Note_on_c, 2, 74, 0
3, 476400, Note_on_c, 2, 72, 59
3, 476440, Note_on_c, 2, 72, 0
3, 476440, Note_on_c, 2, 74, 59
3, 476480, Note_on_c, 2, 74, 0
3, 476480, Note_on_c, 2, 72, 58
3, 476520, Note_on_c, 2, 72, 0
3, 476520, Note_on_c, 2, 74, 58
3, 476560, Note_on_c, 2, 74, 0
3, 476560, Note_on_c, 2, 72, 58
3, 476600, Note_on_c, 2, 72, 0
3, 476600, Note_on_c, 2, 74, 58
3, 476640, Note_on_c, 2, 74, 0
3, 476640, Note_on_c, 2, 72, 57
3, 476680, Note_on_c, 2, 72, 0
3, 476680, Note_on_c, 2, 74, 57
3, 476720, Note_on_c, 2, 74, 0
3, 476720, Note_on_c, 2, 72, 57
3, 476760, Note_on_c, 2, 72, 0
3, 476760, Note_on_c, 2, 74, 56
3, 476800, Note_on_c, 2, 74, 0
3, 476800, Note_on_c, 2, 72, 56
3, 476840, Note_on_c, 2, 72, 0
3, 476840, Note_on_c, 2, 74, 56
3, 476880, Note_on_c, 2, 74, 0
3, 476880, Note_on_c, 2, 72, 56
3, 476920, Note_on_c, 2, 72, 0
3, 476920, Note_on_c, 2, 74, 55
3, 476960, Note_on_c, 2, 74, 0
3, 476960, Note_on_c, 2, 72, 55
3, 477000, Note_on_c, 2, 72, 0
3, 477000, Note_on_c, 2, 70, 55
3, 477060, Note_on_c, 2, 70, 0
3, 477060, Note_on_c, 2, 72, 54
3, 477120, Note_on_c, 2, 72, 0
3, 484800, Control_c, 2, 64, 0
3, 516000, Note_on_c, 2, 67, 85
3, 516155, Note_on_c, 2, 67, 0
3, 516720, Note_on_c, 2, 69, 90
3, 516875, Note_on_c, 2, 69, 0
3, 517440, Note_on_c, 2, 70, 95
3, 517595, Note_on_c, 2, 70, 0
3, 520080, Note_on_c, 2, 69, 65
3, 520560, Note_on_c, 2, 69, 0
3, 520560, Note_on_c, 2, 67, 57
3, 520750, Note_on_c, 2, 67, 0
3, 520800, Note_on_c, 2, 67, 60
3, 521520, Note_on_c, 2, 67, 0
3, 521520, Note_on_c, 2, 65, 46
3, 521710, Note_on_c, 2, 65, 0
3, 523200, Note_on_c, 2, 67, 78
3, 523355, Note_on_c, 2, 67, 0
3, 523920, Note_on_c, 2, 69, 83
3, 524075, Note_on_c, 2, 69, 0
3, 524640, Note_on_c, 2, 70, 88
3, 524795, Note_on_c, 2, 70, 0
3, 530160, Note_on_c, 2, 64, 61
3, 530825, Note_on_c, 2, 64, 0
3, 531600, Note_on_c, 2, 64, 55
3, 532265, Note_on_c, 2, 64, 0
3, 533760, Note_on_c, 2, 58, 38
3, 534480, Note_on_c, 2, 58, 0
3, 534480, Note_on_c, 2, 57, 25
3, 534720, Note_on_c, 2, 57, 0
3, 535200, Note_on_c, 2, 69, 101
3, 535835, Note_on_c, 2, 69, 0
3, 535920, Note_on_c, 2, 69, 98
3, 536495, Note_on_c, 2, 69, 0
3, 536640, Note_on_c, 2, 69, 95
3, 537285, Note_on_c, 2, 69, 0
3, 537360, Note_on_c, 2, 69, 92
3, 537935, Note_on_c, 2, 69, 0
3, 538080, Note_on_c, 2, 69, 90
3, 538715, Note_on_c, 2, 69, 0
3, 538800, Note_on_c, 2, 67, 87
3, 538800, Note_on_c, 2, 69, 87
3, 539375, Note_on_c, 2, 69, 0
3, 539375, Note_on_c, 2, 67, 0
3, 576240, Note_on_c, 2, 71, 44
3, 576900, Note_on_c, 2, 71, 0
3, 584160, Note_on_c, 2, 57, 73
3, 584765, Note_on_c, 2, 57, 0
3, 584880, Note_on_c, 2, 56, 67
3, 585480, Note_on_c, 2, 56, 0
3, 585600, Note_on_c, 2, 68, 61
3, 586200, Note_on_c, 2, 68, 0
3, 586320, Note_on_c, 2, 62, 55
3, 586925, Note_on_c, 2, 62, 0
3, 589200, Note_on_c, 2, 71, 32
3, 589800, Note_on_c, 2, 71, 0
3, 597120, Note_on_c, 2, 57, 64
3, 597725, Note_on_c, 2, 57, 0
3, 597840, Note_on_c, 2, 56, 59
3, 598440, Note_on_c, 2, 56, 0
3, 598560, Note_on_c, 2, 68, 54
3, 599160, Note_on_c, 2, 68, 0
3, 599280, Note_on_c, 2, 62, 49
3, 599885, Note_on_c, 2, 62, 0
3, 605040, Note_on_c, 2, 71, 83
3, 605720, Note_on_c, 2, 71, 0
3, 612240, Note_on_c, 2, 67, 90
3, 612240, Note_on_c, 2, 72, 90
3, 612240, Note_on_c, 2, 76, 90
3, 612625, Note_on_c, 2, 76, 0
3, 612625, Note_on_c, 2, 72, 0
3, 612625, Note_on_c, 2, 67, 0
3, 612960, Note_on_c, 2, 79, 93
3, 612960, Note_on_c, 2, 72, 93
3, 612960, Note_on_c, 2, 76, 93
3, 613345, Note_on_c, 2, 76, 0
3, 613345, Note_on_c, 2, 72, 0
3, 613345, Note_on_c, 2, 79, 0
3, 662280, Note_on_c, 2, 67, 85
3, 662400, Note_on_c, 2, 67, 0
3, 662400, Note_on_c, 2, 70, 84
3, 662520, Note_on_c, 2, 70, 0
3, 663000, Note_on_c, 2, 69, 81
3, 663120, Note_on_c, 2, 69, 0
3, 663120, Note_on_c, 2, 72, 80
3, 663240, Note_on_c, 2, 72, 0
3, 663720, Note_on_c, 2, 67, 77
3, 663840, Note_on_c, 2, 67, 0
3, 663840, Note_on_c, 2, 70, 76
3, 663960, Note_on_c, 2, 70, 0
3, 664440, Note_on_c, 2, 63, 72
3, 664560, Note_on_c, 2, 63, 0
3, 664560, Note_on_c, 2, 67, 72
3, 664680, Note_on_c, 2, 67, 0
3, 665160, Note_on_c, 2, 62, 68
3, 665280, Note_on_c, 2, 62, 0
3, 665280, Note_on_c, 2, 65, 67
3, 665400, Note_on_c, 2, 65, 0
3, 665880, Note_on_c, 2, 63, 64
3, 666000, Note_on_c, 2, 63, 0
3, 666000, Note_on_c, 2, 65, 63
3, 666120, Note_on_c, 2, 65, 0
3, 683760, Note_on_c, 2, 64, 65
3, 683760, Note_on_c, 2, 67, 65
3, 684000, Note_on_c, 2, 67, 0
3, 684000, Note_on_c, 2, 64, 0
3, 684000, Note_on_c, 2, 65, 60
3, 684000, Note_on_c, 2, 71, 60
3, 684190, Note_on_c, 2, 71, 0
3, 684190, Note_on_c, 2, 65, 0
3, 684480, Note_on_c, 2, 71, 71
3, 684480, Note_on_c, 2, 65, 71
3, 684720, Note_on_c, 2, 65, 0
3, 684720, Note_on_c, 2, 71, 0
3, 684720, Note_on_c, 2, 67, 68
3, 684720, Note_on_c, 2, 70, 68
3, 684910, Note_on_c, 2, 70, 0
3, 684910, Note_on_c, 2, 67, 0
3, 685200, Note_on_c, 2, 67, 77
3, 685200, Note_on_c, 2, 70, 77
3, 685440, Note_on_c, 2, 70, 0
3, 685440, Note_on_c, 2, 67, 0
3, 685440, Note_on_c, 2, 72, 74
3, 685440, Note_on_c, 2, 69, 74
3, 685630, Note_on_c, 2, 69, 0
3, 685630, Note_on_c, 2, 72, 0
3, 685920, Note_on_c, 2, 72, 83
3, 685920, Note_on_c, 2, 69, 83
3, 686160, Note_on_c, 2, 69, 0
3, 686160, Note_on_c, 2, 72, 0
3, 686160, Note_on_c, 2, 76, 81
3, 686160, Note_on_c, 2, 70, 81
3, 686350, Note_on_c, 2, 70, 0
3, 686350, Note_on_c, 2, 76, 0
3, 686640, Note_on_c, 2, 76, 89
3, 686640, Note_on_c, 2, 70, 89
3, 686880, Note_on_c, 2, 70, 0
3, 686880, Note_on_c, 2, 76, 0
3, 686880, Note_on_c, 2, 72, 86
3, 687070, Note_on_c, 2, 72, 0
3, 687360, Note_on_c, 2, 72, 95
3, 687360, Note_on_c, 2, 78, 95
3, 687600, Note_on_c, 2, 78, 0
3, 687600, Note_on_c, 2, 72, 0
3, 687600, Note_on_c, 2, 76, 92
3, 687600, Note_on_c, 2, 79, 92
3, 687790, Note_on_c, 2, 79, 0
3, 687790, Note_on_c, 2, 76, 0
3, 687840, Note_on_c, 2, 76, 100
3, 687840, Note_on_c, 2, 79, 100
3, 689400, Note_on_c, 2, 79, 0
3, 689405, Note_on_c, 2, 76, 0
3, 712440, Note_on_c, 2, 77, 77
3, 712685, Note_on_c, 2, 77, 0
3, 713160, Note_on_c, 2, 76, 61
3, 713405, Note_on_c, 2, 76, 0
3, 713880, Note_on_c, 2, 75, 45
3, 714120, Note_on_c, 2, 75, 0
3, 727440, Note_on_c, 2, 73, 96
3, 728015, Note_on_c, 2, 73, 0
3, 728160, Note_on_c, 2, 74, 99
3, 728765, Note_on_c, 2, 74, 0
3, 728880, Note_on_c, 2, 74, 95
3, 729455, Note_on_c, 2, 74, 0
3, 729600, Note_on_c, 2, 74, 91
3, 730200, Note_on_c, 2, 74, 0
3, 730320, Note_on_c, 2, 74, 87
3, 730895, Note_on_c, 2, 74, 0
3, 731040, Note_on_c, 2, 74, 83
3, 731640, Note_on_c, 2, 74, 0
3, 731760, Note_on_c, 2, 74, 79
3, 731760, Note_on_c, 2, 72, 79
3, 732335, Note_on_c, 2, 72, 0
3, 732335, Note_on_c, 2, 74, 0
3, 761280, Note_on_c, 2, 68, 46
3, 762135, Note_on_c, 2, 68, 0
3, 762240, Note_on_c, 2, 67, 54
3, 762395, Note_on_c, 2, 67, 0
3, 762480, Note_on_c, 2, 65, 57
3, 762635, Note_on_c, 2, 65, 0
3, 762720, Note_on_c, 2, 71, 58
3, 763200, Note_on_c, 2, 71, 0
3, 763200, Note_on_c, 2, 72, 52
3, 763440, Note_on_c, 2, 72, 0
3, 763440, Note_on_c, 2, 67, 49
3, 763920, Note_on_c, 2, 67, 0
3, 764160, Note_on_c, 2, 73, 54
3, 765005, Note_on_c, 2, 73, 0
3, 765120, Note_on_c, 2, 72, 60
3, 765275, Note_on_c, 2, 72, 0
3, 765360, Note_on_c, 2, 70, 62
3, 765515, Note_on_c, 2, 70, 0
3, 765600, Note_on_c, 2, 69, 66
3, 766080, Note_on_c, 2, 69, 0
3, 766080, Note_on_c, 2, 72, 60
3, 766320, Note_on_c, 2, 72, 0
3, 766320, Note_on_c, 2, 70, 56
3, 766800, Note_on_c, 2, 70, 0
3, 767040, Note_on_c, 2, 71, 72
3, 767640, Note_on_c, 2, 71, 0
3, 767760, Note_on_c, 2, 72, 74
3, 768360, Note_on_c, 2, 72, 0
3, 768480, Note_on_c, 2, 73, 76
3, 769200, Note_on_c, 2, 73, 0
3, 769200, Note_on_c, 2, 72, 78
3, 769680, Note_on_c, 2, 72, 0
3, 769920, Note_on_c, 2, 72, 70
3, 770640, Note_on_c, 2, 72, 0
3, 770640, Note_on_c, 2, 76, 55
3, 771305, Note_on_c, 2, 76, 0
3, 780000, Note_on_c, 2, 62, 69
3, 780605, Note_on_c, 2, 62, 0
3, 780720, Note_on_c, 2, 61, 65
3, 781325, Note_on_c, 2, 61, 0
3, 781440, Note_on_c, 2, 73, 61
3, 782045, Note_on_c, 2, 73, 0
3, 782160, Note_on_c, 2, 67, 56
3, 782765, Note_on_c, 2, 67, 0
3, 784320, Note_on_c, 2, 72, 43
3, 785040, Note_on_c, 2, 72, 0
3, 785040, Note_on_c, 2, 76, 39
3, 785700, Note_on_c, 2, 76, 0
3, 794400, Note_on_c, 2, 62, 62
3, 795005, Note_on_c, 2, 62, 0
3, 795120, Note_on_c, 2, 61, 59
3, 795720, Note_on_c, 2, 61, 0
3, 795840, Note_on_c, 2, 73, 55
3, 796440, Note_on_c, 2, 73, 0
3, 796560, Note_on_c, 2, 67, 51
3, 797160, Note_on_c, 2, 67, 0
3, 798720, Note_on_c, 2, 72, 41
3, 799440, Note_on_c, 2, 76, 37
3, 800040, Note_on_c, 2, 76, 0
3, 800040, Note_on_c, 2, 72, 0
3, 801600, Note_on_c, 2, 72, 87
3, 802320, Note_on_c, 2, 72, 0
3, 802320, Note_on_c, 2, 76, 82
3, 803010, Note_on_c, 2, 76, 0
3, 809520, Note_on_c, 2, 81, 82
3, 809520, Note_on_c, 2, 72, 82
3, 810000, Note_on_c, 2, 72, 0
3, 810000, Note_on_c, 2, 81, 0
3, 810240, Note_on_c, 2, 84, 89
3, 810240, Note_on_c, 2, 77, 89
3, 810720, Note_on_c, 2, 77, 0
3, 810720, Note_on_c, 2, 84, 0
3, 811680, Note_on_c, 2, 77, 74
3, 811680, Note_on_c, 2, 82, 74
3, 812160, Note_on_c, 2, 82, 0
3, 812160, Note_on_c, 2, 77, 0
3, 813120, Note_on_c, 2, 86, 64
3, 813120, Note_on_c, 2, 77, 64
3, 813120, Note_on_c, 2, 80, 64
3, 813600, Note_on_c, 2, 80, 0
3, 813600, Note_on_c, 2, 77, 0
3, 813600, Note_on_c, 2, 86, 0
3, 814560, Note_on_c, 2, 60, 51
3, 816000, Note_on_c, 2, 60, 0
3, 816000, Note_on_c, 2, 64, 45
3, 816000, Note_on_c, 2, 60, 45
3, 817380, Note_on_c, 2, 64, 0
3, 817385, Note_on_c, 2, 60, 0
3, 818400, Note_on_c, 2, 67, 85
3, 818555, Note_on_c, 2, 67, 0
3, 819120, Note_on_c, 2, 69, 89
3, 819275, Note_on_c, 2, 69, 0
3, 819840, Note_on_c, 2, 70, 93
3, 819995, Note_on_c, 2, 70, 0
3, 822480, Note_on_c, 2, 69, 62
3, 822960, Note_on_c, 2, 69, 0
3, 822960, Note_on_c, 2, 67, 55
3, 823150, Note_on_c, 2, 67, 0
3, 823200, Note_on_c, 2, 67, 52
3, 823920, Note_on_c, 2, 67, 0
3, 823920, Note_on_c, 2, 65, 43
3, 824110, Note_on_c, 2, 65, 0
3, 825600, Note_on_c, 2, 67, 73
3, 825755, Note_on_c, 2, 67, 0
3, 826320, Note_on_c, 2, 69, 77
3, 826475, Note_on_c, 2, 69, 0
3, 827040, Note_on_c, 2, 70, 81
3, 827195, Note_on_c, 2, 70, 0
3, 831120, Note_on_c, 2, 64, 45
3, 831800, Note_on_c, 2, 64, 0
3, 832560, Note_on_c, 2, 64, 53
3, 833220, Note_on_c, 2, 64, 0
3, 834000, Note_on_c, 2, 64, 47
3, 834660, Note_on_c, 2, 64, 0
3, 836880, Note_on_c, 2, 57, 25
3, 837120, Note_on_c, 2, 57, 0
3, 837120, End_track
4, 0, Start_track
4, 0, Title_t, "Unnamed Track"
4, 0, Control_c, 3, 0, 0
4, 0, Control_c, 3, 7, 112
4, 0, Control_c, 3, 10, 64
4, 0, Control_c, 3, 91, 100
4, 0, Control_c, 3, 93, 19
4, 0, Control_c, 3, 64, 0
4, 0, Control_c, 3, 1, 0
4, 0, Pitch_bend_c, 3, 8192
4, 0, Control_c, 3, 64, 0
4, 0, Control_c, 3, 64, 0
4, 0, Control_c, 3, 64, 0
4, 1, Control_c, 3, 32, 0
4, 1, Program_c, 3, 0
4, 1440, Control_c, 3, 64, 127
4, 1680, Note_on_c, 3, 57, 45
4, 1920, Note_on_c, 3, 57, 0
4, 1920, Note_on_c, 3, 60, 45
4, 2160, Note_on_c, 3, 60, 0
4, 2160, Note_on_c, 3, 57, 46
4, 2400, Note_on_c, 3, 57, 0
4, 2400, Note_on_c, 3, 60, 47
4, 2640, Note_on_c, 3, 60, 0
4, 2640, Note_on_c, 3, 57, 48
4, 2820, Control_c, 3, 64, 0
4, 2880, Note_on_c, 3, 57, 0
4, 2880, Control_c, 3, 64, 127
4, 3120, Note_on_c, 3, 60, 50
4, 3360, Note_on_c, 3, 60, 0
4, 3360, Note_on_c, 3, 63, 51
4, 3600, Note_on_c, 3, 63, 0
4, 3600, Note_on_c, 3, 60, 51
4, 3840, Note_on_c, 3, 60, 0
4, 3840, Note_on_c, 3, 63, 52
4, 4080, Note_on_c, 3, 63, 0
4, 4080, Note_on_c, 3, 60, 53
4, 4260, Control_c, 3, 64, 0
4, 4270, Note_on_c, 3, 60, 0
4, 4320, Control_c, 3, 64, 127
4, 4560, Note_on_c, 3, 58, 55
4, 4800, Note_on_c, 3, 58, 0
4, 4800, Note_on_c, 3, 62, 56
4, 5040, Note_on_c, 3, 62, 0
4, 5040, Note_on_c, 3, 58, 57
4, 5280, Note_on_c, 3, 58, 0
4, 5280, Note_on_c, 3, 62, 58
4, 5520, Note_on_c, 3, 62, 0
4, 5520, Note_on_c, 3, 58, 58
4, 5700, Control_c, 3, 64, 0
4, 5710, Note_on_c, 3, 58, 0
4, 5760, Control_c, 3, 64, 127
4, 6000, Note_on_c, 3, 55, 59
4, 6240, Note_on_c, 3, 55, 0
4, 6240, Note_on_c, 3, 58, 55
4, 6480, Note_on_c, 3, 58, 0
4, 6480, Note_on_c, 3, 55, 51
4, 6720, Note_on_c, 3, 55, 0
4, 6720, Note_on_c, 3, 58, 51
4, 6960, Note_on_c, 3, 58, 0
4, 6960, Note_on_c, 3, 55, 49
4, 7140, Control_c, 3, 64, 0
4, 7150, Note_on_c, 3, 55, 0
4, 7200, Note_on_c, 3, 57, 53
4, 7585, Note_on_c, 3, 57, 0
4, 33120, Control_c, 3, 64, 127
4, 33360, Note_on_c, 3, 53, 89
4, 33550, Note_on_c, 3, 53, 0
4, 33600, Note_on_c, 3, 57, 89
4, 33790, Note_on_c, 3, 57, 0
4, 33840, Note_on_c, 3, 53, 88
4, 34030, Note_on_c, 3, 53, 0
4, 34080, Note_on_c, 3, 57, 88
4, 34270, Note_on_c, 3, 57, 0
4, 34320, Note_on_c, 3, 53, 88
4, 34500, Control_c, 3, 64, 0
4, 34510, Note_on_c, 3, 53, 0
4, 34560, Control_c, 3, 64, 127
4, 34800, Note_on_c, 3, 53, 88
4, 34990, Note_on_c, 3, 53, 0
4, 35040, Note_on_c, 3, 57, 87
4, 35230, Note_on_c, 3, 57, 0
4, 35280, Note_on_c, 3, 53, 87
4, 35470, Note_on_c, 3, 53, 0
4, 35520, Note_on_c, 3, 57, 87
4, 35710, Note_on_c, 3, 57, 0
4, 35760, Note_on_c, 3, 53, 87
4, 35940, Control_c, 3, 64, 0
4, 35950, Note_on_c, 3, 53, 0
4, 38880, Control_c, 3, 64, 127
4, 39120, Note_on_c, 3, 57, 84
4, 39310, Note_on_c, 3, 57, 0
4, 39360, Note_on_c, 3, 62, 84
4, 39550, Note_on_c, 3, 62, 0
4, 39600, Note_on_c, 3, 57, 84
4, 39790, Note_on_c, 3, 57, 0
4, 39840, Note_on_c, 3, 62, 83
4, 40030, Note_on_c, 3, 62, 0
4, 40080, Note_on_c, 3, 57, 83
4, 40260, Control_c, 3, 64, 0
4, 40270, Note_on_c, 3, 57, 0
4, 40320, Control_c, 3, 64, 127
4, 40560, Note_on_c, 3, 57, 83
4, 40750, Note_on_c, 3, 57, 0
4, 40800, Note_on_c, 3, 62, 83
4, 40990, Note_on_c, 3, 62, 0
4, 41040, Note_on_c, 3, 57, 82
4, 41230, Note_on_c, 3, 57, 0
4, 41280, Note_on_c, 3, 62, 82
4, 41470, Note_on_c, 3, 62, 0
4, 41520, Note_on_c, 3, 57, 82
4, 41700, Control_c, 3, 64, 0
4, 41710, Note_on_c, 3, 57, 0
4, 44640, Control_c, 3, 64, 0
4, 44640, Control_c, 3, 64, 127
4, 44880, Note_on_c, 3, 55, 79
4, 45070, Note_on_c, 3, 55, 0
4, 45120, Note_on_c, 3, 60, 78
4, 45310, Note_on_c, 3, 60, 0
4, 45360, Note_on_c, 3, 55, 78
4, 45550, Note_on_c, 3, 55, 0
4, 45600, Note_on_c, 3, 60, 77
4, 45790, Note_on_c, 3, 60, 0
4, 45840, Note_on_c, 3, 55, 77
4, 46020, Control_c, 3, 64, 0
4, 46030, Note_on_c, 3, 55, 0
4, 46080, Control_c, 3, 64, 127
4, 46320, Note_on_c, 3, 55, 76
4, 46510, Note_on_c, 3, 55, 0
4, 46560, Note_on_c, 3, 60, 75
4, 46750, Note_on_c, 3, 60, 0
4, 46800, Note_on_c, 3, 55, 74
4, 46990, Note_on_c, 3, 55, 0
4, 47040, Note_on_c, 3, 60, 74
4, 47230, Note_on_c, 3, 60, 0
4, 47280, Note_on_c, 3, 55, 73
4, 47460, Control_c, 3, 64, 0
4, 47470, Note_on_c, 3, 55, 0
4, 47520, Control_c, 3, 64, 127
4, 47760, Note_on_c, 3, 51, 72
4, 47950, Note_on_c, 3, 51, 0
4, 48000, Note_on_c, 3, 56, 72
4, 48190, Note_on_c, 3, 56, 0
4, 48240, Note_on_c, 3, 51, 71
4, 48430, Note_on_c, 3, 51, 0
4, 48480, Note_on_c, 3, 56, 71
4, 48670, Note_on_c, 3, 56, 0
4, 48720, Note_on_c, 3, 51, 70
4, 48900, Control_c, 3, 64, 0
4, 48910, Note_on_c, 3, 51, 0
4, 48960, Control_c, 3, 64, 127
4, 49200, Note_on_c, 3, 51, 69
4, 49390, Note_on_c, 3, 51, 0
4, 49440, Note_on_c, 3, 56, 68
4, 49630, Note_on_c, 3, 56, 0
4, 49680, Note_on_c, 3, 51, 68
4, 49870, Note_on_c, 3, 51, 0
4, 49920, Note_on_c, 3, 56, 67
4, 50110, Note_on_c, 3, 56, 0
4, 50160, Note_on_c, 3, 51, 67
4, 50340, Control_c, 3, 64, 0
4, 50350, Note_on_c, 3, 51, 0
4, 50400, Control_c, 3, 64, 127
4, 50640, Note_on_c, 3, 48, 66
4, 50830, Note_on_c, 3, 48, 0
4, 50880, Note_on_c, 3, 51, 65
4, 51070, Note_on_c, 3, 51, 0
4, 51120, Note_on_c, 3, 48, 65
4, 51310, Note_on_c, 3, 48, 0
4, 51360, Note_on_c, 3, 51, 64
4, 51550, Note_on_c, 3, 51, 0
4, 51600, Note_on_c, 3, 48, 63
4, 51780, Control_c, 3, 64, 0
4, 51790, Note_on_c, 3, 48, 0
4, 51840, Control_c, 3, 64, 127
4, 52080, Note_on_c, 3, 48, 62
4, 52270, Note_on_c, 3, 48, 0
4, 52320, Note_on_c, 3, 51, 62
4, 52510, Note_on_c, 3, 51, 0
4, 52560, Note_on_c, 3, 48, 61
4, 52750, Note_on_c, 3, 48, 0
4, 52800, Note_on_c, 3, 51, 61
4, 52990, Note_on_c, 3, 51, 0
4, 53040, Note_on_c, 3, 48, 60
4, 53220, Control_c, 3, 64, 0
4, 53230, Note_on_c, 3, 48, 0
4, 53280, Control_c, 3, 64, 127
4, 53520, Note_on_c, 3, 47, 59
4, 53710, Note_on_c, 3, 47, 0
4, 53760, Note_on_c, 3, 50, 59
4, 53950, Note_on_c, 3, 50, 0
4, 54000, Note_on_c, 3, 55, 58
4, 54180, Control_c, 3, 64, 0
4, 54190, Note_on_c, 3, 55, 0
4, 54240, Control_c, 3, 64, 127
4, 54480, Note_on_c, 3, 51, 57
4, 54660, Control_c, 3, 64, 0
4, 54670, Note_on_c, 3, 51, 0
4, 54720, Control_c, 3, 64, 127
4, 54960, Note_on_c, 3, 47, 56
4, 55150, Note_on_c, 3, 47, 0
4, 55200, Note_on_c, 3, 50, 55
4, 55390, Note_on_c, 3, 50, 0
4, 55440, Note_on_c, 3, 55, 55
4, 55620, Control_c, 3, 64, 0
4, 55630, Note_on_c, 3, 55, 0
4, 55680, Control_c, 3, 64, 127
4, 55920, Note_on_c, 3, 51, 54
4, 56100, Control_c, 3, 64, 0
4, 56110, Note_on_c, 3, 51, 0
4, 59040, Control_c, 3, 64, 127
4, 59520, Control_c, 3, 64, 0
4, 60480, Control_c, 3, 64, 127
4, 60960, Control_c, 3, 64, 0
4, 70560, Control_c, 3, 64, 127
4, 70720, Note_on_c, 3, 64, 44
4, 70875, Note_on_c, 3, 64, 0
4, 70880, Note_on_c, 3, 67, 45
4, 70980, Control_c, 3, 64, 0
4, 71035, Note_on_c, 3, 67, 0
4, 71040, Control_c, 3, 64, 127
4, 71200, Note_on_c, 3, 64, 45
4, 71355, Note_on_c, 3, 64, 0
4, 71360, Note_on_c, 3, 67, 46
4, 71460, Control_c, 3, 64, 0
4, 71515, Note_on_c, 3, 67, 0
4, 71520, Control_c, 3, 64, 127
4, 71680, Note_on_c, 3, 64, 47
4, 71835, Note_on_c, 3, 64, 0
4, 71840, Note_on_c, 3, 67, 47
4, 71940, Control_c, 3, 64, 0
4, 71995, Note_on_c, 3, 67, 0
4, 72000, Control_c, 3, 64, 127
4, 72160, Note_on_c, 3, 62, 48
4, 72315, Note_on_c, 3, 62, 0
4, 72320, Note_on_c, 3, 67, 48
4, 72420, Control_c, 3, 64, 0
4, 72475, Note_on_c, 3, 67, 0
4, 72480, Control_c, 3, 64, 127
4, 72640, Note_on_c, 3, 62, 49
4, 72795, Note_on_c, 3, 62, 0
4, 72800, Note_on_c, 3, 67, 50
4, 72900, Control_c, 3, 64, 0
4, 72955, Note_on_c, 3, 67, 0
4, 72960, Control_c, 3, 64, 127
4, 73120, Note_on_c, 3, 65, 50
4, 73275, Note_on_c, 3, 65, 0
4, 73280, Note_on_c, 3, 67, 51
4, 73380, Control_c, 3, 64, 0
4, 73435, Note_on_c, 3, 67, 0
4, 76320, Control_c, 3, 64, 127
4, 76560, Note_on_c, 3, 60, 51
4, 76800, Note_on_c, 3, 60, 0
4, 76800, Note_on_c, 3, 65, 52
4, 77040, Note_on_c, 3, 65, 0
4, 77040, Note_on_c, 3, 60, 54
4, 77220, Control_c, 3, 64, 0
4, 77280, Note_on_c, 3, 60, 0
4, 77280, Control_c, 3, 64, 127
4, 77520, Note_on_c, 3, 60, 57
4, 77700, Control_c, 3, 64, 0
4, 77710, Note_on_c, 3, 60, 0
4, 77760, Control_c, 3, 64, 127
4, 78000, Note_on_c, 3, 62, 61
4, 78240, Note_on_c, 3, 62, 0
4, 78240, Note_on_c, 3, 67, 62
4, 78480, Note_on_c, 3, 67, 0
4, 78480, Note_on_c, 3, 62, 64
4, 78660, Control_c, 3, 64, 0
4, 78720, Note_on_c, 3, 62, 0
4, 78720, Control_c, 3, 64, 127
4, 78960, Note_on_c, 3, 62, 64
4, 79140, Control_c, 3, 64, 0
4, 79150, Note_on_c, 3, 62, 0
4, 123840, Control_c, 3, 64, 127
4, 123960, Note_on_c, 3, 52, 44
4, 124055, Note_on_c, 3, 52, 0
4, 124080, Note_on_c, 3, 55, 45
4, 124175, Note_on_c, 3, 55, 0
4, 124200, Note_on_c, 3, 60, 45
4, 124260, Control_c, 3, 64, 0
4, 124295, Note_on_c, 3, 60, 0
4, 124320, Control_c, 3, 64, 127
4, 124440, Note_on_c, 3, 52, 46
4, 124535, Note_on_c, 3, 52, 0
4, 124560, Note_on_c, 3, 55, 47
4, 124655, Note_on_c, 3, 55, 0
4, 124680, Note_on_c, 3, 60, 48
4, 124740, Control_c, 3, 64, 0
4, 124775, Note_on_c, 3, 60, 0
4, 124800, Control_c, 3, 64, 127
4, 124920, Note_on_c, 3, 52, 49
4, 125015, Note_on_c, 3, 52, 0
4, 125040, Note_on_c, 3, 55, 49
4, 125135, Note_on_c, 3, 55, 0
4, 125160, Note_on_c, 3, 60, 50
4, 125220, Control_c, 3, 64, 0
4, 125255, Note_on_c, 3, 60, 0
4, 125280, Control_c, 3, 64, 127
4, 125400, Note_on_c, 3, 52, 51
4, 125495, Note_on_c, 3, 52, 0
4, 125520, Note_on_c, 3, 55, 51
4, 125615, Note_on_c, 3, 55, 0
4, 125640, Note_on_c, 3, 60, 52
4, 125700, Control_c, 3, 64, 0
4, 125735, Note_on_c, 3, 60, 0
4, 125760, Control_c, 3, 64, 127
4, 125880, Note_on_c, 3, 52, 53
4, 125975, Note_on_c, 3, 52, 0
4, 126000, Note_on_c, 3, 55, 54
4, 126095, Note_on_c, 3, 55, 0
4, 126120, Note_on_c, 3, 60, 54
4, 126180, Control_c, 3, 64, 0
4, 126215, Note_on_c, 3, 60, 0
4, 126240, Control_c, 3, 64, 127
4, 126360, Note_on_c, 3, 52, 55
4, 126455, Note_on_c, 3, 52, 0
4, 126480, Note_on_c, 3, 55, 56
4, 126575, Note_on_c, 3, 55, 0
4, 126600, Note_on_c, 3, 60, 56
4, 126660, Control_c, 3, 64, 0
4, 126695, Note_on_c, 3, 60, 0
4, 126720, Control_c, 3, 64, 127
4, 126840, Note_on_c, 3, 52, 57
4, 126935, Note_on_c, 3, 52, 0
4, 126960, Note_on_c, 3, 55, 58
4, 127055, Note_on_c, 3, 55, 0
4, 127080, Note_on_c, 3, 60, 58
4, 127140, Control_c, 3, 64, 0
4, 127175, Note_on_c, 3, 60, 0
4, 127200, Control_c, 3, 64, 127
4, 127320, Note_on_c, 3, 52, 60
4, 127415, Note_on_c, 3, 52, 0
4, 127440, Note_on_c, 3, 55, 60
4, 127535, Note_on_c, 3, 55, 0
4, 127560, Note_on_c, 3, 60, 61
4, 127620, Control_c, 3, 64, 0
4, 127655, Note_on_c, 3, 60, 0
4, 127680, Control_c, 3, 64, 127
4, 127800, Note_on_c, 3, 52, 62
4, 127895, Note_on_c, 3, 52, 0
4, 127920, Note_on_c, 3, 55, 62
4, 128015, Note_on_c, 3, 55, 0
4, 128040, Note_on_c, 3, 60, 63
4, 128100, Control_c, 3, 64, 0
4, 128135, Note_on_c, 3, 60, 0
4, 128160, Control_c, 3, 64, 127
4, 128280, Note_on_c, 3, 52, 64
4, 128375, Note_on_c, 3, 52, 0
4, 128400, Note_on_c, 3, 55, 64
4, 128495, Note_on_c, 3, 55, 0
4, 128520, Note_on_c, 3, 60, 65
4, 128580, Control_c, 3, 64, 0
4, 128615, Note_on_c, 3, 60, 0
4, 128640, Control_c, 3, 64, 127
4, 128760, Note_on_c, 3, 52, 66
4, 128855, Note_on_c, 3, 52, 0
4, 128880, Note_on_c, 3, 55, 67
4, 128975, Note_on_c, 3, 55, 0
4, 129000, Note_on_c, 3, 60, 67
4, 129060, Control_c, 3, 64, 0
4, 129095, Note_on_c, 3, 60, 0
4, 129120, Control_c, 3, 64, 127
4, 129240, Note_on_c, 3, 53, 68
4, 129335, Note_on_c, 3, 53, 0
4, 129360, Note_on_c, 3, 55, 69
4, 129455, Note_on_c, 3, 55, 0
4, 129480, Note_on_c, 3, 60, 69
4, 129540, Control_c, 3, 64, 0
4, 129575, Note_on_c, 3, 60, 0
4, 135360, Control_c, 3, 64, 0
4, 191520, Control_c, 3, 64, 127
4, 191760, Note_on_c, 3, 57, 45
4, 192000, Note_on_c, 3, 57, 0
4, 192000, Note_on_c, 3, 60, 45
4, 192240, Note_on_c, 3, 60, 0
4, 192240, Note_on_c, 3, 57, 46
4, 192480, Note_on_c, 3, 57, 0
4, 192480, Note_on_c, 3, 60, 47
4, 192720, Note_on_c, 3, 60, 0
4, 192720, Note_on_c, 3, 57, 48
4, 192900, Control_c, 3, 64, 0
4, 192960, Note_on_c, 3, 57, 0
4, 192960, Control_c, 3, 64, 127
4, 193200, Note_on_c, 3, 60, 50
4, 193440, Note_on_c, 3, 60, 0
4, 193440, Note_on_c, 3, 63, 51
4, 193680, Note_on_c, 3, 63, 0
4, 193680, Note_on_c, 3, 60, 51
4, 193920, Note_on_c, 3, 60, 0
4, 193920, Note_on_c, 3, 63, 52
4, 194160, Note_on_c, 3, 63, 0
4, 194160, Note_on_c, 3, 60, 53
4, 194340, Control_c, 3, 64, 0
4, 194350, Note_on_c, 3, 60, 0
4, 194400, Control_c, 3, 64, 127
4, 194640, Note_on_c, 3, 58, 55
4, 194880, Note_on_c, 3, 58, 0
4, 194880, Note_on_c, 3, 62, 56
4, 195120, Note_on_c, 3, 62, 0
4, 195120, Note_on_c, 3, 58, 57
4, 195360, Note_on_c, 3, 58, 0
4, 195360, Note_on_c, 3, 62, 58
4, 195600, Note_on_c, 3, 62, 0
4, 195600, Note_on_c, 3, 58, 58
4, 195780, Control_c, 3, 64, 0
4, 195790, Note_on_c, 3, 58, 0
4, 195840, Control_c, 3, 64, 127
4, 196080, Note_on_c, 3, 55, 59
4, 196320, Note_on_c, 3, 55, 0
4, 196320, Note_on_c, 3, 58, 55
4, 196560, Note_on_c, 3, 58, 0
4, 196560, Note_on_c, 3, 55, 51
4, 196800, Note_on_c, 3, 55, 0
4, 196800, Note_on_c, 3, 58, 51
4, 197040, Note_on_c, 3, 58, 0
4, 197040, Note_on_c, 3, 55, 49
4, 197220, Control_c, 3, 64, 0
4, 197230, Note_on_c, 3, 55, 0
4, 197280, Note_on_c, 3, 57, 53
4, 197665, Note_on_c, 3, 57, 0
4, 223200, Control_c, 3, 64, 127
4, 223440, Note_on_c, 3, 53, 89
4, 223630, Note_on_c, 3, 53, 0
4, 223680, Note_on_c, 3, 57, 89
4, 223870, Note_on_c, 3, 57, 0
4, 223920, Note_on_c, 3, 53, 88
4, 224110, Note_on_c, 3, 53, 0
4, 224160, Note_on_c, 3, 57, 88
4, 224350, Note_on_c, 3, 57, 0
4, 224400, Note_on_c, 3, 53, 88
4, 224580, Control_c, 3, 64, 0
4, 224590, Note_on_c, 3, 53, 0
4, 224640, Control_c, 3, 64, 127
4, 224880, Note_on_c, 3, 53, 88
4, 225070, Note_on_c, 3, 53, 0
4, 225120, Note_on_c, 3, 57, 87
4, 225310, Note_on_c, 3, 57, 0
4, 225360, Note_on_c, 3, 53, 87
4, 225550, Note_on_c, 3, 53, 0
4, 225600, Note_on_c, 3, 57, 87
4, 225790, Note_on_c, 3, 57, 0
4, 225840, Note_on_c, 3, 53, 87
4, 226020, Control_c, 3, 64, 0
4, 226030, Note_on_c, 3, 53, 0
4, 228960, Control_c, 3, 64, 127
4, 229200, Note_on_c, 3, 57, 84
4, 229390, Note_on_c, 3, 57, 0
4, 229440, Note_on_c, 3, 62, 84
4, 229630, Note_on_c, 3, 62, 0
4, 229680, Note_on_c, 3, 57, 84
4, 229870, Note_on_c, 3, 57, 0
4, 229920, Note_on_c, 3, 62, 83
4, 230110, Note_on_c, 3, 62, 0
4, 230160, Note_on_c, 3, 57, 83
4, 230340, Control_c, 3, 64, 0
4, 230350, Note_on_c, 3, 57, 0
4, 230400, Control_c, 3, 64, 127
4, 230640, Note_on_c, 3, 57, 83
4, 230830, Note_on_c, 3, 57, 0
4, 230880, Note_on_c, 3, 62, 83
4, 231070, Note_on_c, 3, 62, 0
4, 231120, Note_on_c, 3, 57, 82
4, 231310, Note_on_c, 3, 57, 0
4, 231360, Note_on_c, 3, 62, 82
4, 231550, Note_on_c, 3, 62, 0
4, 231600, Note_on_c, 3, 57, 82
4, 231780, Control_c, 3, 64, 0
4, 231790, Note_on_c, 3, 57, 0
4, 234720, Control_c, 3, 64, 127
4, 234960, Note_on_c, 3, 55, 80
4, 235150, Note_on_c, 3, 55, 0
4, 235200, Note_on_c, 3, 60, 80
4, 235390, Note_on_c, 3, 60, 0
4, 235440, Note_on_c, 3, 55, 80
4, 235630, Note_on_c, 3, 55, 0
4, 235680, Note_on_c, 3, 60, 80
4, 235870, Note_on_c, 3, 60, 0
4, 235920, Note_on_c, 3, 55, 80
4, 236100, Control_c, 3, 64, 0
4, 236110, Note_on_c, 3, 55, 0
4, 236160, Control_c, 3, 64, 127
4, 236400, Note_on_c, 3, 55, 79
4, 236590, Note_on_c, 3, 55, 0
4, 236640, Note_on_c, 3, 60, 79
4, 236830, Note_on_c, 3, 60, 0
4, 236880, Note_on_c, 3, 55, 79
4, 237070, Note_on_c, 3, 55, 0
4, 237120, Note_on_c, 3, 60, 79
4, 237310, Note_on_c, 3, 60, 0
4, 237360, Note_on_c, 3, 55, 78
4, 237540, Control_c, 3, 64, 0
4, 237550, Note_on_c, 3, 55, 0
4, 240480, Control_c, 3, 64, 127
4, 240720, Note_on_c, 3, 53, 77
4, 240910, Note_on_c, 3, 53, 0
4, 240960, Note_on_c, 3, 58, 76
4, 241150, Note_on_c, 3, 58, 0
4, 241200, Note_on_c, 3, 53, 76
4, 241390, Note_on_c, 3, 53, 0
4, 241440, Note_on_c, 3, 58, 76
4, 241630, Note_on_c, 3, 58, 0
4, 241680, Note_on_c, 3, 53, 75
4, 241860, Control_c, 3, 64, 0
4, 241870, Note_on_c, 3, 53, 0
4, 241920, Control_c, 3, 64, 127
4, 242160, Note_on_c, 3, 53, 74
4, 242350, Note_on_c, 3, 53, 0
4, 242400, Note_on_c, 3, 58, 74
4, 242590, Note_on_c, 3, 58, 0
4, 242640, Note_on_c, 3, 53, 73
4, 242830, Note_on_c, 3, 53, 0
4, 242880, Note_on_c, 3, 58, 73
4, 243070, Note_on_c, 3, 58, 0
4, 243120, Note_on_c, 3, 53, 72
4, 243300, Control_c, 3, 64, 0
4, 243310, Note_on_c, 3, 53, 0
4, 243360, Control_c, 3, 64, 127
4, 243600, Note_on_c, 3, 53, 71
4, 243790, Note_on_c, 3, 53, 0
4, 243840, Note_on_c, 3, 57, 71
4, 244030, Note_on_c, 3, 57, 0
4, 244080, Note_on_c, 3, 53, 70
4, 244270, Note_on_c, 3, 53, 0
4, 244320, Note_on_c, 3, 57, 70
4, 244510, Note_on_c, 3, 57, 0
4, 244560, Note_on_c, 3, 53, 69
4, 244740, Control_c, 3, 64, 0
4, 244750, Note_on_c, 3, 53, 0
4, 244800, Control_c, 3, 64, 127
4, 245040, Note_on_c, 3, 53, 68
4, 245230, Note_on_c, 3, 53, 0
4, 245280, Note_on_c, 3, 57, 68
4, 245470, Note_on_c, 3, 57, 0
4, 245520, Note_on_c, 3, 53, 67
4, 245710, Note_on_c, 3, 53, 0
4, 245760, Note_on_c, 3, 57, 67
4, 245950, Note_on_c, 3, 57, 0
4, 246000, Note_on_c, 3, 53, 66
4, 246180, Control_c, 3, 64, 0
4, 246190, Note_on_c, 3, 53, 0
4, 246240, Control_c, 3, 64, 127
4, 246480, Note_on_c, 3, 53, 65
4, 246670, Note_on_c, 3, 53, 0
4, 246720, Note_on_c, 3, 56, 65
4, 246910, Note_on_c, 3, 56, 0
4, 246960, Note_on_c, 3, 53, 64
4, 247150, Note_on_c, 3, 53, 0
4, 247200, Note_on_c, 3, 56, 64
4, 247390, Note_on_c, 3, 56, 0
4, 247440, Note_on_c, 3, 53, 63
4, 247620, Control_c, 3, 64, 0
4, 247630, Note_on_c, 3, 53, 0
4, 247680, Control_c, 3, 64, 127
4, 247920, Note_on_c, 3, 53, 63
4, 248110, Note_on_c, 3, 53, 0
4, 248160, Note_on_c, 3, 56, 62
4, 248350, Note_on_c, 3, 56, 0
4, 248400, Note_on_c, 3, 53, 62
4, 248590, Note_on_c, 3, 53, 0
4, 248640, Note_on_c, 3, 56, 61
4, 248830, Note_on_c, 3, 56, 0
4, 248880, Note_on_c, 3, 53, 61
4, 249060, Control_c, 3, 64, 0
4, 249070, Note_on_c, 3, 53, 0
4, 249120, Control_c, 3, 64, 127
4, 249360, Note_on_c, 3, 52, 60
4, 249550, Note_on_c, 3, 52, 0
4, 249600, Note_on_c, 3, 55, 59
4, 249790, Note_on_c, 3, 55, 0
4, 249840, Note_on_c, 3, 60, 59
4, 250030, Note_on_c, 3, 60, 0
4, 250320, Note_on_c, 3, 56, 58
4, 250500, Control_c, 3, 64, 0
4, 250510, Note_on_c, 3, 56, 0
4, 250560, Control_c, 3, 64, 127
4, 250800, Note_on_c, 3, 52, 57
4, 250990, Note_on_c, 3, 52, 0
4, 251040, Note_on_c, 3, 55, 56
4, 251230, Note_on_c, 3, 55, 0
4, 251280, Note_on_c, 3, 60, 56
4, 251470, Note_on_c, 3, 60, 0
4, 251760, Note_on_c, 3, 56, 55
4, 251940, Control_c, 3, 64, 0
4, 251950, Note_on_c, 3, 56, 0
4, 254880, Control_c, 3, 64, 127
4, 255360, Control_c, 3, 64, 0
4, 256320, Control_c, 3, 64, 127
4, 256800, Control_c, 3, 64, 0
4, 266400, Control_c, 3, 64, 127
4, 266560, Note_on_c, 3, 57, 63
4, 266680, Note_on_c, 3, 57, 0
4, 266720, Note_on_c, 3, 60, 63
4, 266820, Control_c, 3, 64, 0
4, 266840, Note_on_c, 3, 60, 0
4, 266880, Control_c, 3, 64, 127
4, 267040, Note_on_c, 3, 57, 64
4, 267160, Note_on_c, 3, 57, 0
4, 267200, Note_on_c, 3, 60, 65
4, 267300, Control_c, 3, 64, 0
4, 267320, Note_on_c, 3, 60, 0
4, 267360, Control_c, 3, 64, 127
4, 267520, Note_on_c, 3, 57, 66
4, 267640, Note_on_c, 3, 57, 0
4, 267680, Note_on_c, 3, 60, 66
4, 267780, Control_c, 3, 64, 0
4, 267800, Note_on_c, 3, 60, 0
4, 267840, Control_c, 3, 64, 127
4, 268000, Note_on_c, 3, 55, 67
4, 268120, Note_on_c, 3, 55, 0
4, 268160, Note_on_c, 3, 60, 68
4, 268260, Control_c, 3, 64, 0
4, 268280, Note_on_c, 3, 60, 0
4, 268320, Control_c, 3, 64, 127
4, 268480, Note_on_c, 3, 55, 69
4, 268600, Note_on_c, 3, 55, 0
4, 268640, Note_on_c, 3, 60, 69
4, 268740, Control_c, 3, 64, 0
4, 268760, Note_on_c, 3, 60, 0
4, 268800, Control_c, 3, 64, 127
4, 268960, Note_on_c, 3, 58, 70
4, 269080, Note_on_c, 3, 58, 0
4, 269120, Note_on_c, 3, 60, 71
4, 269220, Control_c, 3, 64, 0
4, 269240, Note_on_c, 3, 60, 0
4, 272160, Control_c, 3, 64, 127
4, 272400, Note_on_c, 3, 65, 49
4, 272640, Note_on_c, 3, 65, 0
4, 272640, Note_on_c, 3, 70, 51
4, 272880, Note_on_c, 3, 70, 0
4, 272880, Note_on_c, 3, 65, 53
4, 273060, Control_c, 3, 64, 0
4, 273120, Note_on_c, 3, 65, 0
4, 273120, Control_c, 3, 64, 127
4, 273360, Note_on_c, 3, 65, 57
4, 273540, Control_c, 3, 64, 0
4, 273550, Note_on_c, 3, 65, 0
4, 273600, Control_c, 3, 64, 127
4, 273840, Note_on_c, 3, 67, 60
4, 274080, Note_on_c, 3, 67, 0
4, 274080, Note_on_c, 3, 72, 62
4, 274320, Note_on_c, 3, 72, 0
4, 274320, Note_on_c, 3, 67, 64
4, 274500, Control_c, 3, 64, 0
4, 274560, Note_on_c, 3, 67, 0
4, 274560, Control_c, 3, 64, 127
4, 274800, Note_on_c, 3, 67, 68
4, 274980, Control_c, 3, 64, 0
4, 274990, Note_on_c, 3, 67, 0
4, 275520, Note_on_c, 3, 67, 66
4, 275905, Note_on_c, 3, 67, 0
4, 276000, Note_on_c, 3, 70, 59
4, 276385, Note_on_c, 3, 70, 0
4, 276480, Note_on_c, 3, 69, 55
4, 276865, Note_on_c, 3, 69, 0
4, 319680, Control_c, 3, 64, 127
4, 319800, Note_on_c, 3, 45, 47
4, 319920, Note_on_c, 3, 45, 0
4, 319920, Note_on_c, 3, 48, 47
4, 320040, Note_on_c, 3, 48, 0
4, 320040, Note_on_c, 3, 53, 48
4, 320100, Control_c, 3, 64, 0
4, 320160, Note_on_c, 3, 53, 0
4, 320160, Control_c, 3, 64, 127
4, 320280, Note_on_c, 3, 45, 50
4, 320400, Note_on_c, 3, 45, 0
4, 320400, Note_on_c, 3, 48, 50
4, 320520, Note_on_c, 3, 48, 0
4, 320520, Note_on_c, 3, 53, 51
4, 320580, Control_c, 3, 64, 0
4, 320640, Note_on_c, 3, 53, 0
4, 320640, Control_c, 3, 64, 127
4, 320760, Note_on_c, 3, 45, 53
4, 320880, Note_on_c, 3, 45, 0
4, 320880, Note_on_c, 3, 48, 53
4, 321000, Note_on_c, 3, 48, 0
4, 321000, Note_on_c, 3, 53, 54
4, 321060, Control_c, 3, 64, 0
4, 321120, Note_on_c, 3, 53, 0
4, 321120, Control_c, 3, 64, 127
4, 321240, Note_on_c, 3, 45, 56
4, 321360, Note_on_c, 3, 45, 0
4, 321360, Note_on_c, 3, 48, 56
4, 321480, Note_on_c, 3, 48, 0
4, 321480, Note_on_c, 3, 53, 57
4, 321540, Control_c, 3, 64, 0
4, 321600, Note_on_c, 3, 53, 0
4, 321600, Control_c, 3, 64, 127
4, 321720, Note_on_c, 3, 45, 59
4, 321840, Note_on_c, 3, 45, 0
4, 321840, Note_on_c, 3, 48, 59
4, 321960, Note_on_c, 3, 48, 0
4, 321960, Note_on_c, 3, 53, 60
4, 322020, Control_c, 3, 64, 0
4, 322080, Note_on_c, 3, 53, 0
4, 322080, Control_c, 3, 64, 127
4, 322200, Note_on_c, 3, 46, 62
4, 322320, Note_on_c, 3, 46, 0
4, 322320, Note_on_c, 3, 48, 62
4, 322440, Note_on_c, 3, 48, 0
4, 322440, Note_on_c, 3, 53, 63
4, 322500, Control_c, 3, 64, 0
4, 322560, Note_on_c, 3, 53, 0
4, 322560, Control_c, 3, 64, 127
4, 322680, Note_on_c, 3, 45, 65
4, 322800, Note_on_c, 3, 45, 0
4, 322800, Note_on_c, 3, 48, 65
4, 322920, Note_on_c, 3, 48, 0
4, 322920, Note_on_c, 3, 53, 66
4, 322980, Control_c, 3, 64, 0
4, 323040, Note_on_c, 3, 53, 0
4, 323040, Control_c, 3, 64, 127
4, 323160, Note_on_c, 3, 45, 68
4, 323280, Note_on_c, 3, 45, 0
4, 323280, Note_on_c, 3, 48, 68
4, 323400, Note_on_c, 3, 48, 0
4, 323400, Note_on_c, 3, 53, 69
4, 323460, Control_c, 3, 64, 0
4, 323520, Note_on_c, 3, 53, 0
4, 323520, Control_c, 3, 64, 127
4, 323640, Note_on_c, 3, 45, 71
4, 323760, Note_on_c, 3, 45, 0
4, 323760, Note_on_c, 3, 48, 71
4, 323880, Note_on_c, 3, 48, 0
4, 323880, Note_on_c, 3, 53, 72
4, 323940, Control_c, 3, 64, 0
4, 324000, Note_on_c, 3, 53, 0
4, 324000, Control_c, 3, 64, 127
4, 324120, Note_on_c, 3, 45, 74
4, 324240, Note_on_c, 3, 45, 0
4, 324240, Note_on_c, 3, 48, 74
4, 324360, Note_on_c, 3, 48, 0
4, 324360, Note_on_c, 3, 53, 75
4, 324420, Control_c, 3, 64, 0
4, 324480, Note_on_c, 3, 53, 0
4, 324480, Control_c, 3, 64, 127
4, 324600, Note_on_c, 3, 45, 77
4, 324720, Note_on_c, 3, 45, 0
4, 324720, Note_on_c, 3, 48, 77
4, 324840, Note_on_c, 3, 48, 0
4, 324840, Note_on_c, 3, 53, 78
4, 324900, Control_c, 3, 64, 0
4, 324960, Note_on_c, 3, 53, 0
4, 324960, Control_c, 3, 64, 127
4, 325080, Note_on_c, 3, 46, 80
4, 325200, Note_on_c, 3, 46, 0
4, 325200, Note_on_c, 3, 48, 80
4, 325320, Note_on_c, 3, 48, 0
4, 325320, Note_on_c, 3, 53, 81
4, 325380, Control_c, 3, 64, 0
4, 325440, Note_on_c, 3, 53, 0
4, 331200, Control_c, 3, 64, 127
4, 331440, Note_on_c, 3, 65, 40
4, 331680, Note_on_c, 3, 65, 0
4, 331680, Note_on_c, 3, 62, 41
4, 331920, Note_on_c, 3, 62, 0
4, 331920, Note_on_c, 3, 65, 42
4, 332100, Control_c, 3, 64, 0
4, 332160, Note_on_c, 3, 65, 0
4, 332160, Control_c, 3, 64, 127
4, 332400, Note_on_c, 3, 65, 43
4, 332640, Note_on_c, 3, 65, 0
4, 332640, Note_on_c, 3, 62, 44
4, 332880, Note_on_c, 3, 62, 0
4, 332880, Note_on_c, 3, 65, 44
4, 333060, Control_c, 3, 64, 0
4, 333070, Note_on_c, 3, 65, 0
4, 333120, Control_c, 3, 64, 127
4, 333360, Note_on_c, 3, 65, 47
4, 333600, Note_on_c, 3, 65, 0
4, 333600, Note_on_c, 3, 60, 45
4, 333840, Note_on_c, 3, 60, 0
4, 333840, Note_on_c, 3, 65, 44
4, 334020, Control_c, 3, 64, 0
4, 334080, Note_on_c, 3, 65, 0
4, 334080, Control_c, 3, 64, 127
4, 334320, Note_on_c, 3, 65, 42
4, 334560, Note_on_c, 3, 65, 0
4, 334560, Note_on_c, 3, 60, 41
4, 334800, Note_on_c, 3, 60, 0
4, 334800, Note_on_c, 3, 65, 40
4, 334980, Control_c, 3, 64, 0
4, 334990, Note_on_c, 3, 65, 0
4, 335040, Control_c, 3, 64, 127
4, 335280, Note_on_c, 3, 63, 42
4, 335520, Note_on_c, 3, 63, 0
4, 335520, Note_on_c, 3, 58, 44
4, 335760, Note_on_c, 3, 58, 0
4, 335760, Note_on_c, 3, 63, 46
4, 335940, Control_c, 3, 64, 0
4, 336000, Note_on_c, 3, 63, 0
4, 336000, Control_c, 3, 64, 127
4, 336240, Note_on_c, 3, 58, 49
4, 336480, Note_on_c, 3, 58, 0
4, 336480, Note_on_c, 3, 55, 51
4, 336720, Note_on_c, 3, 55, 0
4, 336720, Note_on_c, 3, 58, 52
4, 336900, Control_c, 3, 64, 0
4, 336910, Note_on_c, 3, 58, 0
4, 336960, Control_c, 3, 64, 127
4, 337200, Note_on_c, 3, 58, 52
4, 337440, Note_on_c, 3, 58, 0
4, 337440, Note_on_c, 3, 53, 51
4, 337680, Note_on_c, 3, 53, 0
4, 337680, Note_on_c, 3, 58, 50
4, 337860, Control_c, 3, 64, 0
4, 337920, Note_on_c, 3, 58, 0
4, 337920, Control_c, 3, 64, 127
4, 338160, Note_on_c, 3, 58, 48
4, 338400, Note_on_c, 3, 58, 0
4, 338400, Note_on_c, 3, 53, 47
4, 338640, Note_on_c, 3, 53, 0
4, 338640, Note_on_c, 3, 58, 46
4, 338820, Control_c, 3, 64, 0
4, 338830, Note_on_c, 3, 58, 0
4, 338880, Control_c, 3, 64, 127
4, 339120, Note_on_c, 3, 55, 52
4, 339300, Control_c, 3, 64, 0
4, 339360, Note_on_c, 3, 55, 0
4, 339360, Control_c, 3, 64, 127
4, 339600, Note_on_c, 3, 59, 48
4, 339780, Control_c, 3, 64, 0
4, 339840, Note_on_c, 3, 59, 0
4, 339840, Control_c, 3, 64, 127
4, 340080, Note_on_c, 3, 60, 44
4, 340260, Control_c, 3, 64, 0
4, 340320, Note_on_c, 3, 60, 0
4, 340320, Control_c, 3, 64, 127
4, 340560, Note_on_c, 3, 63, 40
4, 340740, Control_c, 3, 64, 0
4, 340750, Note_on_c, 3, 63, 0
4, 340800, Control_c, 3, 64, 127
4, 341040, Note_on_c, 3, 53, 46
4, 341220, Control_c, 3, 64, 0
4, 341280, Note_on_c, 3, 53, 0
4, 341280, Control_c, 3, 64, 127
4, 341520, Note_on_c, 3, 57, 43
4, 341700, Control_c, 3, 64, 0
4, 341760, Note_on_c, 3, 57, 0
4, 341760, Control_c, 3, 64, 127
4, 342000, Note_on_c, 3, 58, 40
4, 342180, Control_c, 3, 64, 0
4, 342240, Note_on_c, 3, 58, 0
4, 342240, Control_c, 3, 64, 127
4, 342480, Note_on_c, 3, 62, 38
4, 342660, Control_c, 3, 64, 0
4, 342670, Note_on_c, 3, 62, 0
4, 342720, Control_c, 3, 64, 127
4, 342960, Note_on_c, 3, 65, 50
4, 343200, Note_on_c, 3, 65, 0
4, 343200, Note_on_c, 3, 60, 46
4, 343440, Note_on_c, 3, 60, 0
4, 343440, Note_on_c, 3, 65, 44
4, 343620, Control_c, 3, 64, 0
4, 343630, Note_on_c, 3, 65, 0
4, 343680, Control_c, 3, 64, 127
4, 343920, Note_on_c, 3, 65, 47
4, 344160, Note_on_c, 3, 65, 0
4, 344160, Note_on_c, 3, 62, 44
4, 344400, Note_on_c, 3, 62, 0
4, 344400, Note_on_c, 3, 65, 41
4, 344580, Control_c, 3, 64, 0
4, 344590, Note_on_c, 3, 65, 0
4, 344640, Control_c, 3, 64, 127
4, 344880, Note_on_c, 3, 62, 46
4, 345070, Note_on_c, 3, 62, 0
4, 345120, Note_on_c, 3, 58, 44
4, 345310, Note_on_c, 3, 58, 0
4, 345360, Note_on_c, 3, 62, 42
4, 345540, Control_c, 3, 64, 0
4, 345550, Note_on_c, 3, 62, 0
4, 345600, Note_on_c, 3, 60, 41
4, 345600, Note_on_c, 3, 57, 41
4, 345985, Note_on_c, 3, 57, 0
4, 345985, Note_on_c, 3, 60, 0
4, 346500, Control_c, 3, 64, 0
4, 346560, Control_c, 3, 64, 127
4, 346800, Note_on_c, 3, 65, 39
4, 347040, Note_on_c, 3, 65, 0
4, 347040, Note_on_c, 3, 61, 40
4, 347280, Note_on_c, 3, 61, 0
4, 347280, Note_on_c, 3, 65, 41
4, 347460, Control_c, 3, 64, 0
4, 347520, Note_on_c, 3, 65, 0
4, 347520, Control_c, 3, 64, 127
4, 347760, Note_on_c, 3, 65, 44
4, 348000, Note_on_c, 3, 65, 0
4, 348000, Note_on_c, 3, 61, 45
4, 348240, Note_on_c, 3, 61, 0
4, 348240, Note_on_c, 3, 65, 46
4, 348420, Control_c, 3, 64, 0
4, 348430, Note_on_c, 3, 65, 0
4, 348480, Control_c, 3, 64, 127
4, 348720, Note_on_c, 3, 65, 47
4, 348960, Note_on_c, 3, 65, 0
4, 348960, Note_on_c, 3, 60, 46
4, 349200, Note_on_c, 3, 60, 0
4, 349200, Note_on_c, 3, 65, 46
4, 349380, Control_c, 3, 64, 0
4, 349440, Note_on_c, 3, 65, 0
4, 349440, Control_c, 3, 64, 127
4, 349680, Note_on_c, 3, 65, 45
4, 349920, Note_on_c, 3, 65, 0
4, 349920, Note_on_c, 3, 60, 44
4, 350160, Note_on_c, 3, 60, 0
4, 350160, Note_on_c, 3, 65, 44
4, 350340, Control_c, 3, 64, 0
4, 350350, Note_on_c, 3, 65, 0
4, 350400, Control_c, 3, 64, 127
4, 350640, Note_on_c, 3, 63, 48
4, 350880, Note_on_c, 3, 63, 0
4, 350880, Note_on_c, 3, 58, 49
4, 351120, Note_on_c, 3, 58, 0
4, 351120, Note_on_c, 3, 63, 50
4, 351300, Control_c, 3, 64, 0
4, 351360, Note_on_c, 3, 63, 0
4, 351360, Control_c, 3, 64, 127
4, 351600, Note_on_c, 3, 58, 53
4, 351840, Note_on_c, 3, 58, 0
4, 351840, Note_on_c, 3, 54, 54
4, 352080, Note_on_c, 3, 54, 0
4, 352080, Note_on_c, 3, 58, 56
4, 352260, Control_c, 3, 64, 0
4, 352270, Note_on_c, 3, 58, 0
4, 352320, Control_c, 3, 64, 127
4, 352560, Note_on_c, 3, 58, 59
4, 352800, Note_on_c, 3, 58, 0
4, 352800, Note_on_c, 3, 53, 57
4, 353040, Note_on_c, 3, 53, 0
4, 353040, Note_on_c, 3, 58, 56
4, 353220, Control_c, 3, 64, 0
4, 353280, Note_on_c, 3, 58, 0
4, 353280, Control_c, 3, 64, 127
4, 353520, Note_on_c, 3, 58, 54
4, 353760, Note_on_c, 3, 58, 0
4, 353760, Note_on_c, 3, 53, 53
4, 354000, Note_on_c, 3, 53, 0
4, 354000, Note_on_c, 3, 58, 52
4, 354180, Control_c, 3, 64, 0
4, 354190, Note_on_c, 3, 58, 0
4, 354240, Control_c, 3, 64, 127
4, 354480, Note_on_c, 3, 58, 63
4, 354720, Note_on_c, 3, 58, 0
4, 354720, Note_on_c, 3, 55, 62
4, 354960, Note_on_c, 3, 55, 0
4, 354960, Note_on_c, 3, 58, 62
4, 355140, Control_c, 3, 64, 0
4, 355200, Note_on_c, 3, 58, 0
4, 355200, Control_c, 3, 64, 127
4, 355440, Note_on_c, 3, 58, 60
4, 355680, Note_on_c, 3, 58, 0
4, 355680, Note_on_c, 3, 55, 59
4, 355920, Note_on_c, 3, 55, 0
4, 355920, Note_on_c, 3, 58, 59
4, 356100, Control_c, 3, 64, 0
4, 356110, Note_on_c, 3, 58, 0
4, 356160, Control_c, 3, 64, 127
4, 356400, Note_on_c, 3, 56, 57
4, 356640, Note_on_c, 3, 56, 0
4, 356640, Note_on_c, 3, 53, 57
4, 356880, Note_on_c, 3, 53, 0
4, 356880, Note_on_c, 3, 56, 56
4, 357060, Control_c, 3, 64, 0
4, 357120, Note_on_c, 3, 56, 0
4, 357120, Control_c, 3, 64, 127
4, 357360, Note_on_c, 3, 55, 55
4, 357600, Note_on_c, 3, 55, 0
4, 357600, Note_on_c, 3, 49, 54
4, 357840, Note_on_c, 3, 49, 0
4, 357840, Note_on_c, 3, 55, 53
4, 358020, Control_c, 3, 64, 0
4, 358030, Note_on_c, 3, 55, 0
4, 358080, Control_c, 3, 64, 127
4, 358320, Note_on_c, 3, 56, 52
4, 358560, Note_on_c, 3, 56, 0
4, 358560, Note_on_c, 3, 53, 51
4, 358800, Note_on_c, 3, 53, 0
4, 358800, Note_on_c, 3, 56, 50
4, 358980, Control_c, 3, 64, 0
4, 358990, Note_on_c, 3, 56, 0
4, 359040, Control_c, 3, 64, 127
4, 359280, Note_on_c, 3, 58, 49
4, 359520, Note_on_c, 3, 58, 0
4, 359520, Note_on_c, 3, 55, 48
4, 359760, Note_on_c, 3, 55, 0
4, 359760, Note_on_c, 3, 58, 48
4, 359940, Control_c, 3, 64, 0
4, 359950, Note_on_c, 3, 58, 0
4, 360240, Note_on_c, 3, 60, 42
4, 360395, Note_on_c, 3, 60, 0
4, 360480, Note_on_c, 3, 60, 42
4, 360635, Note_on_c, 3, 60, 0
4, 360720, Note_on_c, 3, 60, 43
4, 360875, Note_on_c, 3, 60, 0
4, 361200, Note_on_c, 3, 60, 43
4, 361355, Note_on_c, 3, 60, 0
4, 361680, Note_on_c, 3, 60, 44
4, 361835, Note_on_c, 3, 60, 0
4, 362160, Note_on_c, 3, 60, 45
4, 362315, Note_on_c, 3, 60, 0
4, 362400, Note_on_c, 3, 60, 45
4, 362555, Note_on_c, 3, 60, 0
4, 362640, Note_on_c, 3, 60, 45
4, 362795, Note_on_c, 3, 60, 0
4, 363120, Note_on_c, 3, 60, 46
4, 363275, Note_on_c, 3, 60, 0
4, 363600, Note_on_c, 3, 60, 47
4, 363755, Note_on_c, 3, 60, 0
4, 364080, Note_on_c, 3, 60, 48
4, 364235, Note_on_c, 3, 60, 0
4, 364320, Note_on_c, 3, 60, 48
4, 364475, Note_on_c, 3, 60, 0
4, 364560, Note_on_c, 3, 60, 48
4, 364715, Note_on_c, 3, 60, 0
4, 365040, Note_on_c, 3, 60, 49
4, 365195, Note_on_c, 3, 60, 0
4, 365520, Note_on_c, 3, 60, 50
4, 365675, Note_on_c, 3, 60, 0
4, 366000, Note_on_c, 3, 60, 51
4, 366155, Note_on_c, 3, 60, 0
4, 366240, Note_on_c, 3, 60, 51
4, 366395, Note_on_c, 3, 60, 0
4, 366480, Note_on_c, 3, 60, 51
4, 366635, Note_on_c, 3, 60, 0
4, 366960, Note_on_c, 3, 60, 52
4, 367115, Note_on_c, 3, 60, 0
4, 367440, Note_on_c, 3, 60, 53
4, 367595, Note_on_c, 3, 60, 0
4, 375600, Note_on_c, 3, 60, 36
4, 375755, Note_on_c, 3, 60, 0
4, 375840, Note_on_c, 3, 60, 37
4, 375995, Note_on_c, 3, 60, 0
4, 376080, Note_on_c, 3, 60, 37
4, 376235, Note_on_c, 3, 60, 0
4, 376560, Note_on_c, 3, 60, 38
4, 376715, Note_on_c, 3, 60, 0
4, 377040, Note_on_c, 3, 60, 38
4, 377195, Note_on_c, 3, 60, 0
4, 377520, Note_on_c, 3, 60, 39
4, 377675, Note_on_c, 3, 60, 0
4, 377760, Note_on_c, 3, 60, 40
4, 377915, Note_on_c, 3, 60, 0
4, 378000, Note_on_c, 3, 60, 40
4, 378155, Note_on_c, 3, 60, 0
4, 378480, Note_on_c, 3, 60, 41
4, 378635, Note_on_c, 3, 60, 0
4, 378960, Note_on_c, 3, 60, 41
4, 379115, Note_on_c, 3, 60, 0
4, 379440, Note_on_c, 3, 60, 42
4, 379595, Note_on_c, 3, 60, 0
4, 379680, Note_on_c, 3, 60, 42
4, 379835, Note_on_c, 3, 60, 0
4, 379920, Note_on_c, 3, 60, 43
4, 380075, Note_on_c, 3, 60, 0
4, 380400, Note_on_c, 3, 60, 43
4, 380555, Note_on_c, 3, 60, 0
4, 380880, Note_on_c, 3, 60, 44
4, 381035, Note_on_c, 3, 60, 0
4, 381360, Note_on_c, 3, 60, 45
4, 381515, Note_on_c, 3, 60, 0
4, 381600, Note_on_c, 3, 60, 45
4, 381755, Note_on_c, 3, 60, 0
4, 381840, Note_on_c, 3, 60, 46
4, 381995, Note_on_c, 3, 60, 0
4, 382320, Note_on_c, 3, 60, 46
4, 382475, Note_on_c, 3, 60, 0
4, 382800, Note_on_c, 3, 60, 47
4, 382955, Note_on_c, 3, 60, 0
4, 390960, Control_c, 3, 64, 127
4, 391620, Control_c, 3, 64, 0
4, 391920, Control_c, 3, 64, 127
4, 392580, Control_c, 3, 64, 0
4, 392880, Control_c, 3, 64, 127
4, 393300, Control_c, 3, 64, 0
4, 396480, Control_c, 3, 64, 127
4, 396720, Note_on_c, 3, 57, 56
4, 396960, Note_on_c, 3, 57, 0
4, 396960, Note_on_c, 3, 53, 59
4, 397200, Note_on_c, 3, 53, 0
4, 397200, Note_on_c, 3, 57, 61
4, 397380, Control_c, 3, 64, 0
4, 397440, Note_on_c, 3, 57, 0
4, 397440, Control_c, 3, 64, 127
4, 397680, Note_on_c, 3, 57, 55
4, 397920, Note_on_c, 3, 57, 0
4, 397920, Note_on_c, 3, 53, 52
4, 398160, Note_on_c, 3, 53, 0
4, 398160, Note_on_c, 3, 57, 55
4, 398340, Control_c, 3, 64, 0
4, 398350, Note_on_c, 3, 57, 0
4, 398400, Control_c, 3, 64, 127
4, 398640, Note_on_c, 3, 58, 56
4, 398880, Note_on_c, 3, 58, 0
4, 398880, Note_on_c, 3, 52, 54
4, 399120, Note_on_c, 3, 52, 0
4, 399120, Note_on_c, 3, 58, 52
4, 399300, Control_c, 3, 64, 0
4, 399360, Note_on_c, 3, 58, 0
4, 399360, Control_c, 3, 64, 127
4, 399600, Note_on_c, 3, 58, 48
4, 399840, Note_on_c, 3, 58, 0
4, 399840, Note_on_c, 3, 52, 46
4, 400080, Note_on_c, 3, 52, 0
4, 400080, Note_on_c, 3, 58, 44
4, 400260, Control_c, 3, 64, 0
4, 400270, Note_on_c, 3, 58, 0
4, 408000, Control_c, 3, 64, 127
4, 408240, Note_on_c, 3, 65, 35
4, 408480, Note_on_c, 3, 65, 0
4, 408480, Note_on_c, 3, 62, 37
4, 408720, Note_on_c, 3, 62, 0
4, 408720, Note_on_c, 3, 65, 38
4, 408900, Control_c, 3, 64, 0
4, 408960, Note_on_c, 3, 65, 0
4, 408960, Control_c, 3, 64, 127
4, 409200, Note_on_c, 3, 65, 41
4, 409440, Note_on_c, 3, 65, 0
4, 409440, Note_on_c, 3, 62, 42
4, 409680, Note_on_c, 3, 62, 0
4, 409680, Note_on_c, 3, 65, 44
4, 409860, Control_c, 3, 64, 0
4, 409870, Note_on_c, 3, 65, 0
4, 409920, Control_c, 3, 64, 127
4, 410160, Note_on_c, 3, 65, 45
4, 410400, Note_on_c, 3, 65, 0
4, 410400, Note_on_c, 3, 60, 43
4, 410640, Note_on_c, 3, 60, 0
4, 410640, Note_on_c, 3, 65, 42
4, 410820, Control_c, 3, 64, 0
4, 410880, Note_on_c, 3, 65, 0
4, 410880, Control_c, 3, 64, 127
4, 411120, Note_on_c, 3, 65, 40
4, 411360, Note_on_c, 3, 65, 0
4, 411360, Note_on_c, 3, 60, 39
4, 411600, Note_on_c, 3, 60, 0
4, 411600, Note_on_c, 3, 65, 38
4, 411780, Control_c, 3, 64, 0
4, 411790, Note_on_c, 3, 65, 0
4, 411840, Control_c, 3, 64, 127
4, 412080, Note_on_c, 3, 63, 43
4, 412320, Note_on_c, 3, 63, 0
4, 412320, Note_on_c, 3, 58, 44
4, 412560, Note_on_c, 3, 58, 0
4, 412560, Note_on_c, 3, 63, 46
4, 412740, Control_c, 3, 64, 0
4, 412800, Note_on_c, 3, 63, 0
4, 412800, Control_c, 3, 64, 127
4, 413040, Note_on_c, 3, 58, 49
4, 413280, Note_on_c, 3, 58, 0
4, 413280, Note_on_c, 3, 55, 50
4, 413520, Note_on_c, 3, 55, 0
4, 413520, Note_on_c, 3, 58, 51
4, 413700, Control_c, 3, 64, 0
4, 413710, Note_on_c, 3, 58, 0
4, 413760, Control_c, 3, 64, 127
4, 414000, Note_on_c, 3, 58, 53
4, 414240, Note_on_c, 3, 58, 0
4, 414240, Note_on_c, 3, 53, 52
4, 414480, Note_on_c, 3, 53, 0
4, 414480, Note_on_c, 3, 58, 51
4, 414660, Control_c, 3, 64, 0
4, 414720, Note_on_c, 3, 58, 0
4, 414720, Control_c, 3, 64, 127
4, 414960, Note_on_c, 3, 58, 49
4, 415200, Note_on_c, 3, 58, 0
4, 415200, Note_on_c, 3, 53, 49
4, 415440, Note_on_c, 3, 53, 0
4, 415440, Note_on_c, 3, 58, 48
4, 415620, Control_c, 3, 64, 0
4, 415630, Note_on_c, 3, 58, 0
4, 415680, Control_c, 3, 64, 127
4, 415920, Note_on_c, 3, 55, 50
4, 416100, Control_c, 3, 64, 0
4, 416160, Note_on_c, 3, 55, 0
4, 416160, Control_c, 3, 64, 127
4, 416400, Note_on_c, 3, 59, 48
4, 416580, Control_c, 3, 64, 0
4, 416640, Note_on_c, 3, 59, 0
4, 416640, Control_c, 3, 64, 127
4, 416880, Note_on_c, 3, 60, 45
4, 417060, Control_c, 3, 64, 0
4, 417120, Note_on_c, 3, 60, 0
4, 417120, Control_c, 3, 64, 127
4, 417360, Note_on_c, 3, 63, 42
4, 417540, Control_c, 3, 64, 0
4, 417550, Note_on_c, 3, 63, 0
4, 417600, Control_c, 3, 64, 127
4, 417840, Note_on_c, 3, 53, 48
4, 418020, Control_c, 3, 64, 0
4, 418080, Note_on_c, 3, 53, 0
4, 418080, Control_c, 3, 64, 127
4, 418320, Note_on_c, 3, 57, 45
4, 418500, Control_c, 3, 64, 0
4, 418560, Note_on_c, 3, 57, 0
4, 418560, Control_c, 3, 64, 127
4, 418740, Control_c, 3, 64, 0
4, 418800, Control_c, 3, 64, 127
4, 418800, Note_on_c, 3, 58, 41
4, 419040, Note_on_c, 3, 58, 0
4, 419280, Note_on_c, 3, 62, 38
4, 419460, Control_c, 3, 64, 0
4, 419470, Note_on_c, 3, 62, 0
4, 419520, Control_c, 3, 64, 127
4, 419760, Note_on_c, 3, 65, 45
4, 420000, Note_on_c, 3, 65, 0
4, 420000, Note_on_c, 3, 60, 44
4, 420240, Note_on_c, 3, 60, 0
4, 420240, Note_on_c, 3, 65, 44
4, 420420, Control_c, 3, 64, 0
4, 420430, Note_on_c, 3, 65, 0
4, 420480, Control_c, 3, 64, 127
4, 420720, Note_on_c, 3, 65, 43
4, 420960, Note_on_c, 3, 65, 0
4, 420960, Note_on_c, 3, 62, 42
4, 421200, Note_on_c, 3, 62, 0
4, 421200, Note_on_c, 3, 65, 42
4, 421380, Control_c, 3, 64, 0
4, 421390, Note_on_c, 3, 65, 0
4, 421440, Control_c, 3, 64, 127
4, 421680, Note_on_c, 3, 62, 42
4, 421920, Note_on_c, 3, 62, 0
4, 421920, Note_on_c, 3, 58, 40
4, 422160, Note_on_c, 3, 58, 0
4, 422160, Note_on_c, 3, 62, 39
4, 422340, Control_c, 3, 64, 0
4, 422350, Note_on_c, 3, 62, 0
4, 422400, Note_on_c, 3, 60, 38
4, 422400, Note_on_c, 3, 57, 38
4, 422760, Note_on_c, 3, 57, 0
4, 422760, Note_on_c, 3, 60, 0
4, 423360, Control_c, 3, 64, 127
4, 423600, Note_on_c, 3, 65, 41
4, 423840, Note_on_c, 3, 65, 0
4, 423840, Note_on_c, 3, 61, 43
4, 424080, Note_on_c, 3, 61, 0
4, 424080, Note_on_c, 3, 65, 44
4, 424260, Control_c, 3, 64, 0
4, 424320, Note_on_c, 3, 65, 0
4, 424320, Control_c, 3, 64, 127
4, 424560, Note_on_c, 3, 65, 47
4, 424800, Note_on_c, 3, 65, 0
4, 424800, Note_on_c, 3, 61, 48
4, 425040, Note_on_c, 3, 61, 0
4, 425040, Note_on_c, 3, 65, 49
4, 425220, Control_c, 3, 64, 0
4, 425230, Note_on_c, 3, 65, 0
4, 425280, Control_c, 3, 64, 127
4, 425520, Note_on_c, 3, 65, 51
4, 425760, Note_on_c, 3, 65, 0
4, 425760, Note_on_c, 3, 60, 50
4, 426000, Note_on_c, 3, 60, 0
4, 426000, Note_on_c, 3, 65, 49
4, 426180, Control_c, 3, 64, 0
4, 426240, Note_on_c, 3, 65, 0
4, 426240, Control_c, 3, 64, 127
4, 426480, Note_on_c, 3, 65, 48
4, 426720, Note_on_c, 3, 65, 0
4, 426720, Note_on_c, 3, 60, 47
4, 426960, Note_on_c, 3, 60, 0
4, 426960, Note_on_c, 3, 65, 46
4, 427140, Control_c, 3, 64, 0
4, 427150, Note_on_c, 3, 65, 0
4, 427200, Control_c, 3, 64, 127
4, 427440, Note_on_c, 3, 58, 50
4, 427680, Note_on_c, 3, 58, 0
4, 427680, Note_on_c, 3, 54, 51
4, 427920, Note_on_c, 3, 54, 0
4, 427920, Note_on_c, 3, 58, 53
4, 428160, Note_on_c, 3, 58, 0
4, 428400, Note_on_c, 3, 58, 56
4, 428640, Note_on_c, 3, 58, 0
4, 428640, Note_on_c, 3, 54, 58
4, 428880, Note_on_c, 3, 54, 0
4, 428880, Note_on_c, 3, 58, 59
4, 429060, Control_c, 3, 64, 0
4, 429070, Note_on_c, 3, 58, 0
4, 429120, Control_c, 3, 64, 127
4, 429360, Note_on_c, 3, 58, 63
4, 429600, Note_on_c, 3, 58, 0
4, 429600, Note_on_c, 3, 53, 61
4, 429840, Note_on_c, 3, 53, 0
4, 429840, Note_on_c, 3, 58, 60
4, 430020, Control_c, 3, 64, 0
4, 430030, Note_on_c, 3, 58, 0
4, 430080, Control_c, 3, 64, 127
4, 430320, Note_on_c, 3, 58, 58
4, 430560, Note_on_c, 3, 58, 0
4, 430560, Note_on_c, 3, 53, 57
4, 430800, Note_on_c, 3, 53, 0
4, 430800, Note_on_c, 3, 58, 56
4, 430980, Control_c, 3, 64, 0
4, 430990, Note_on_c, 3, 58, 0
4, 431040, Control_c, 3, 64, 127
4, 431280, Note_on_c, 3, 58, 63
4, 431520, Note_on_c, 3, 58, 0
4, 431520, Note_on_c, 3, 55, 61
4, 431760, Note_on_c, 3, 55, 0
4, 431760, Note_on_c, 3, 58, 60
4, 431940, Control_c, 3, 64, 0
4, 432000, Note_on_c, 3, 58, 0
4, 432000, Control_c, 3, 64, 127
4, 432240, Note_on_c, 3, 58, 58
4, 432480, Note_on_c, 3, 58, 0
4, 432480, Note_on_c, 3, 55, 57
4, 432720, Note_on_c, 3, 55, 0
4, 432720, Note_on_c, 3, 58, 55
4, 432900, Control_c, 3, 64, 0
4, 432960, Note_on_c, 3, 58, 0
4, 432960, Control_c, 3, 64, 127
4, 433200, Note_on_c, 3, 56, 53
4, 433440, Note_on_c, 3, 56, 0
4, 433440, Note_on_c, 3, 53, 52
4, 433680, Note_on_c, 3, 53, 0
4, 433680, Note_on_c, 3, 56, 51
4, 433860, Control_c, 3, 64, 0
4, 433870, Note_on_c, 3, 56, 0
4, 433920, Control_c, 3, 64, 127
4, 434160, Note_on_c, 3, 55, 48
4, 434400, Note_on_c, 3, 55, 0
4, 434400, Note_on_c, 3, 49, 47
4, 434640, Note_on_c, 3, 49, 0
4, 434640, Note_on_c, 3, 55, 46
4, 434820, Control_c, 3, 64, 0
4, 434830, Note_on_c, 3, 55, 0
4, 434880, Control_c, 3, 64, 127
4, 435120, Note_on_c, 3, 56, 44
4, 435360, Note_on_c, 3, 56, 0
4, 435360, Note_on_c, 3, 53, 42
4, 435600, Note_on_c, 3, 53, 0
4, 435600, Note_on_c, 3, 56, 41
4, 435780, Control_c, 3, 64, 0
4, 435790, Note_on_c, 3, 56, 0
4, 435840, Control_c, 3, 64, 127
4, 436080, Note_on_c, 3, 58, 39
4, 436320, Note_on_c, 3, 58, 0
4, 436320, Note_on_c, 3, 55, 38
4, 436560, Note_on_c, 3, 55, 0
4, 436560, Note_on_c, 3, 58, 36
4, 436740, Control_c, 3, 64, 0
4, 436750, Note_on_c, 3, 58, 0
4, 437040, Note_on_c, 3, 65, 38
4, 437195, Note_on_c, 3, 65, 0
4, 437280, Note_on_c, 3, 65, 39
4, 437435, Note_on_c, 3, 65, 0
4, 437520, Note_on_c, 3, 65, 39
4, 437675, Note_on_c, 3, 65, 0
4, 438000, Note_on_c, 3, 65, 40
4, 438155, Note_on_c, 3, 65, 0
4, 438240, Note_on_c, 3, 63, 40
4, 438480, Note_on_c, 3, 65, 41
4, 438625, Note_on_c, 3, 63, 0
4, 438635, Note_on_c, 3, 65, 0
4, 438960, Note_on_c, 3, 65, 42
4, 439115, Note_on_c, 3, 65, 0
4, 439200, Note_on_c, 3, 65, 42
4, 439355, Note_on_c, 3, 65, 0
4, 439440, Note_on_c, 3, 65, 43
4, 439595, Note_on_c, 3, 65, 0
4, 439920, Note_on_c, 3, 65, 44
4, 440075, Note_on_c, 3, 65, 0
4, 440160, Note_on_c, 3, 63, 44
4, 440400, Note_on_c, 3, 63, 0
4, 440400, Note_on_c, 3, 65, 45
4, 440555, Note_on_c, 3, 65, 0
4, 440880, Note_on_c, 3, 65, 46
4, 441035, Note_on_c, 3, 65, 0
4, 441120, Note_on_c, 3, 65, 46
4, 441275, Note_on_c, 3, 65, 0
4, 441360, Note_on_c, 3, 65, 47
4, 441515, Note_on_c, 3, 65, 0
4, 441840, Note_on_c, 3, 65, 48
4, 441995, Note_on_c, 3, 65, 0
4, 442080, Note_on_c, 3, 63, 48
4, 442320, Note_on_c, 3, 63, 0
4, 442320, Note_on_c, 3, 65, 49
4, 442475, Note_on_c, 3, 65, 0
4, 442800, Note_on_c, 3, 65, 50
4, 442955, Note_on_c, 3, 65, 0
4, 443040, Note_on_c, 3, 65, 50
4, 443195, Note_on_c, 3, 65, 0
4, 443280, Note_on_c, 3, 65, 50
4, 443435, Note_on_c, 3, 65, 0
4, 443760, Note_on_c, 3, 65, 51
4, 444000, Note_on_c, 3, 65, 0
4, 444000, Note_on_c, 3, 63, 52
4, 444240, Note_on_c, 3, 63, 0
4, 444240, Note_on_c, 3, 65, 52
4, 444430, Note_on_c, 3, 65, 0
4, 452400, Note_on_c, 3, 65, 37
4, 452555, Note_on_c, 3, 65, 0
4, 452640, Note_on_c, 3, 65, 37
4, 452795, Note_on_c, 3, 65, 0
4, 452880, Note_on_c, 3, 65, 38
4, 453035, Note_on_c, 3, 65, 0
4, 453360, Note_on_c, 3, 65, 39
4, 453515, Note_on_c, 3, 65, 0
4, 453840, Note_on_c, 3, 65, 40
4, 453995, Note_on_c, 3, 65, 0
4, 454320, Note_on_c, 3, 65, 40
4, 454475, Note_on_c, 3, 65, 0
4, 454560, Note_on_c, 3, 65, 41
4, 454715, Note_on_c, 3, 65, 0
4, 454800, Note_on_c, 3, 65, 41
4, 454955, Note_on_c, 3, 65, 0
4, 455280, Note_on_c, 3, 65, 42
4, 455435, Note_on_c, 3, 65, 0
4, 455520, Note_on_c, 3, 63, 43
4, 455760, Note_on_c, 3, 63, 0
4, 455760, Note_on_c, 3, 65, 43
4, 455915, Note_on_c, 3, 65, 0
4, 456240, Note_on_c, 3, 65, 44
4, 456395, Note_on_c, 3, 65, 0
4, 456480, Note_on_c, 3, 65, 45
4, 456635, Note_on_c, 3, 65, 0
4, 456720, Note_on_c, 3, 65, 45
4, 456875, Note_on_c, 3, 65, 0
4, 457200, Note_on_c, 3, 65, 46
4, 457440, Note_on_c, 3, 65, 0
4, 457440, Note_on_c, 3, 63, 46
4, 457680, Note_on_c, 3, 63, 0
4, 457680, Note_on_c, 3, 65, 47
4, 457870, Note_on_c, 3, 65, 0
4, 458160, Note_on_c, 3, 65, 48
4, 458315, Note_on_c, 3, 65, 0
4, 458400, Note_on_c, 3, 65, 48
4, 458555, Note_on_c, 3, 65, 0
4, 458640, Note_on_c, 3, 65, 49
4, 458795, Note_on_c, 3, 65, 0
4, 459120, Note_on_c, 3, 65, 50
4, 459275, Note_on_c, 3, 65, 0
4, 459360, Note_on_c, 3, 63, 50
4, 459600, Note_on_c, 3, 63, 0
4, 459600, Note_on_c, 3, 65, 51
4, 459755, Note_on_c, 3, 65, 0
4, 467760, Control_c, 3, 64, 127
4, 468420, Control_c, 3, 64, 0
4, 468720, Control_c, 3, 64, 127
4, 469380, Control_c, 3, 64, 0
4, 469680, Control_c, 3, 64, 127
4, 470340, Control_c, 3, 64, 0
4, 473280, Control_c, 3, 64, 127
4, 473520, Note_on_c, 3, 62, 56
4, 473760, Note_on_c, 3, 62, 0
4, 473760, Note_on_c, 3, 58, 57
4, 474000, Note_on_c, 3, 58, 0
4, 474000, Note_on_c, 3, 62, 59
4, 474180, Control_c, 3, 64, 0
4, 474240, Note_on_c, 3, 62, 0
4, 474240, Control_c, 3, 64, 127
4, 474480, Note_on_c, 3, 62, 62
4, 474720, Note_on_c, 3, 62, 0
4, 474720, Note_on_c, 3, 58, 64
4, 474960, Note_on_c, 3, 58, 0
4, 474960, Note_on_c, 3, 62, 65
4, 475140, Control_c, 3, 64, 0
4, 475150, Note_on_c, 3, 62, 0
4, 475200, Control_c, 3, 64, 127
4, 475440, Note_on_c, 3, 63, 66
4, 475680, Note_on_c, 3, 63, 0
4, 475680, Note_on_c, 3, 57, 64
4, 475920, Note_on_c, 3, 57, 0
4, 475920, Note_on_c, 3, 63, 62
4, 476100, Control_c, 3, 64, 0
4, 476160, Note_on_c, 3, 63, 0
4, 476160, Control_c, 3, 64, 127
4, 476400, Note_on_c, 3, 63, 59
4, 476640, Note_on_c, 3, 63, 0
4, 476640, Note_on_c, 3, 57, 57
4, 476880, Note_on_c, 3, 57, 0
4, 476880, Note_on_c, 3, 63, 56
4, 477060, Control_c, 3, 64, 0
4, 477070, Note_on_c, 3, 63, 0
4, 484800, Control_c, 3, 64, 0
4, 488520, Note_on_c, 3, 77, 83
4, 488615, Note_on_c, 3, 77, 0
4, 488760, Note_on_c, 3, 77, 85
4, 488855, Note_on_c, 3, 77, 0
4, 489000, Note_on_c, 3, 77, 87
4, 489095, Note_on_c, 3, 77, 0
4, 489240, Note_on_c, 3, 77, 89
4, 489335, Note_on_c, 3, 77, 0
4, 489480, Note_on_c, 3, 77, 91
4, 489575, Note_on_c, 3, 77, 0
4, 489720, Note_on_c, 3, 77, 93
4, 489815, Note_on_c, 3, 77, 0
4, 489960, Note_on_c, 3, 77, 95
4, 490055, Note_on_c, 3, 77, 0
4, 490200, Note_on_c, 3, 77, 97
4, 490295, Note_on_c, 3, 77, 0
4, 490440, Note_on_c, 3, 77, 99
4, 490535, Note_on_c, 3, 77, 0
4, 490680, Note_on_c, 3, 77, 99
4, 490775, Note_on_c, 3, 77, 0
4, 490800, Note_on_c, 3, 70, 97
4, 490895, Note_on_c, 3, 70, 0
4, 490920, Note_on_c, 3, 77, 96
4, 491015, Note_on_c, 3, 77, 0
4, 491160, Note_on_c, 3, 77, 92
4, 491255, Note_on_c, 3, 77, 0
4, 491400, Note_on_c, 3, 77, 97
4, 491495, Note_on_c, 3, 77, 0
4, 491520, Note_on_c, 3, 70, 95
4, 491615, Note_on_c, 3, 70, 0
4, 491640, Note_on_c, 3, 77, 92
4, 491735, Note_on_c, 3, 77, 0
4, 491880, Note_on_c, 3, 77, 88
4, 491975, Note_on_c, 3, 77, 0
4, 492120, Note_on_c, 3, 77, 82
4, 492215, Note_on_c, 3, 77, 0
4, 492360, Note_on_c, 3, 77, 74
4, 492455, Note_on_c, 3, 77, 0
4, 492600, Note_on_c, 3, 77, 66
4, 492695, Note_on_c, 3, 77, 0
4, 492720, Note_on_c, 3, 76, 63
4, 493010, Note_on_c, 3, 76, 0
4, 497160, Note_on_c, 3, 77, 77
4, 497255, Note_on_c, 3, 77, 0
4, 497400, Note_on_c, 3, 77, 79
4, 497495, Note_on_c, 3, 77, 0
4, 497640, Note_on_c, 3, 77, 81
4, 497735, Note_on_c, 3, 77, 0
4, 497880, Note_on_c, 3, 77, 83
4, 497975, Note_on_c, 3, 77, 0
4, 498120, Note_on_c, 3, 77, 85
4, 498215, Note_on_c, 3, 77, 0
4, 498360, Note_on_c, 3, 77, 87
4, 498455, Note_on_c, 3, 77, 0
4, 498600, Note_on_c, 3, 77, 90
4, 498695, Note_on_c, 3, 77, 0
4, 498840, Note_on_c, 3, 77, 92
4, 498935, Note_on_c, 3, 77, 0
4, 499080, Note_on_c, 3, 77, 94
4, 499175, Note_on_c, 3, 77, 0
4, 499320, Note_on_c, 3, 77, 95
4, 499415, Note_on_c, 3, 77, 0
4, 499440, Note_on_c, 3, 70, 94
4, 499535, Note_on_c, 3, 70, 0
4, 499560, Note_on_c, 3, 77, 92
4, 499655, Note_on_c, 3, 77, 0
4, 499800, Note_on_c, 3, 77, 89
4, 499895, Note_on_c, 3, 77, 0
4, 500040, Note_on_c, 3, 77, 93
4, 500135, Note_on_c, 3, 77, 0
4, 500160, Note_on_c, 3, 70, 90
4, 500255, Note_on_c, 3, 70, 0
4, 500280, Note_on_c, 3, 77, 87
4, 500375, Note_on_c, 3, 77, 0
4, 500520, Note_on_c, 3, 77, 82
4, 500615, Note_on_c, 3, 77, 0
4, 500760, Note_on_c, 3, 77, 77
4, 501005, Note_on_c, 3, 77, 0
4, 501480, Note_on_c, 3, 76, 61
4, 501725, Note_on_c, 3, 76, 0
4, 502200, Note_on_c, 3, 75, 45
4, 502440, Note_on_c, 3, 75, 0
4, 505200, Note_on_c, 3, 60, 48
4, 505200, Note_on_c, 3, 58, 48
4, 505390, Note_on_c, 3, 58, 0
4, 505390, Note_on_c, 3, 60, 0
4, 505440, Note_on_c, 3, 58, 50
4, 505440, Note_on_c, 3, 60, 50
4, 505630, Note_on_c, 3, 60, 0
4, 505630, Note_on_c, 3, 58, 0
4, 505680, Note_on_c, 3, 58, 51
4, 505680, Note_on_c, 3, 60, 51
4, 505870, Note_on_c, 3, 60, 0
4, 505870, Note_on_c, 3, 58, 0
4, 505920, Note_on_c, 3, 60, 53
4, 505920, Note_on_c, 3, 58, 53
4, 506110, Note_on_c, 3, 58, 0
4, 506110, Note_on_c, 3, 60, 0
4, 506160, Note_on_c, 3, 58, 54
4, 506160, Note_on_c, 3, 60, 54
4, 506350, Note_on_c, 3, 60, 0
4, 506350, Note_on_c, 3, 58, 0
4, 506640, Note_on_c, 3, 60, 54
4, 506640, Note_on_c, 3, 57, 54
4, 506830, Note_on_c, 3, 57, 0
4, 506830, Note_on_c, 3, 60, 0
4, 506880, Note_on_c, 3, 60, 53
4, 506880, Note_on_c, 3, 57, 53
4, 507070, Note_on_c, 3, 57, 0
4, 507070, Note_on_c, 3, 60, 0
4, 507120, Note_on_c, 3, 60, 51
4, 507120, Note_on_c, 3, 57, 51
4, 507310, Note_on_c, 3, 57, 0
4, 507310, Note_on_c, 3, 60, 0
4, 507360, Note_on_c, 3, 60, 49
4, 507360, Note_on_c, 3, 57, 49
4, 507550, Note_on_c, 3, 57, 0
4, 507550, Note_on_c, 3, 60, 0
4, 507600, Note_on_c, 3, 60, 48
4, 507600, Note_on_c, 3, 57, 48
4, 507790, Note_on_c, 3, 57, 0
4, 507790, Note_on_c, 3, 60, 0
4, 508080, Note_on_c, 3, 60, 48
4, 508080, Note_on_c, 3, 55, 48
4, 508270, Note_on_c, 3, 55, 0
4, 508270, Note_on_c, 3, 60, 0
4, 508320, Note_on_c, 3, 60, 49
4, 508320, Note_on_c, 3, 55, 49
4, 508510, Note_on_c, 3, 55, 0
4, 508510, Note_on_c, 3, 60, 0
4, 508560, Note_on_c, 3, 60, 50
4, 508560, Note_on_c, 3, 55, 50
4, 508750, Note_on_c, 3, 55, 0
4, 508750, Note_on_c, 3, 60, 0
4, 508800, Note_on_c, 3, 60, 51
4, 508800, Note_on_c, 3, 55, 51
4, 508990, Note_on_c, 3, 55, 0
4, 508990, Note_on_c, 3, 60, 0
4, 509040, Note_on_c, 3, 60, 52
4, 509040, Note_on_c, 3, 55, 52
4, 509230, Note_on_c, 3, 55, 0
4, 509230, Note_on_c, 3, 60, 0
4, 509520, Note_on_c, 3, 60, 54
4, 509520, Note_on_c, 3, 57, 54
4, 509710, Note_on_c, 3, 57, 0
4, 509710, Note_on_c, 3, 60, 0
4, 509760, Note_on_c, 3, 60, 52
4, 509760, Note_on_c, 3, 57, 52
4, 509950, Note_on_c, 3, 57, 0
4, 509950, Note_on_c, 3, 60, 0
4, 510000, Note_on_c, 3, 60, 50
4, 510000, Note_on_c, 3, 57, 50
4, 510190, Note_on_c, 3, 57, 0
4, 510190, Note_on_c, 3, 60, 0
4, 510240, Note_on_c, 3, 60, 49
4, 510240, Note_on_c, 3, 57, 49
4, 510430, Note_on_c, 3, 57, 0
4, 510430, Note_on_c, 3, 60, 0
4, 510480, Note_on_c, 3, 60, 47
4, 510480, Note_on_c, 3, 57, 47
4, 510670, Note_on_c, 3, 57, 0
4, 510670, Note_on_c, 3, 60, 0
4, 510960, Note_on_c, 3, 58, 46
4, 510960, Note_on_c, 3, 60, 46
4, 511150, Note_on_c, 3, 60, 0
4, 511150, Note_on_c, 3, 58, 0
4, 511200, Note_on_c, 3, 58, 47
4, 511200, Note_on_c, 3, 60, 47
4, 511390, Note_on_c, 3, 60, 0
4, 511390, Note_on_c, 3, 58, 0
4, 511440, Note_on_c, 3, 58, 49
4, 511440, Note_on_c, 3, 60, 49
4, 511630, Note_on_c, 3, 60, 0
4, 511630, Note_on_c, 3, 58, 0
4, 511680, Note_on_c, 3, 58, 50
4, 511680, Note_on_c, 3, 60, 50
4, 511870, Note_on_c, 3, 60, 0
4, 511870, Note_on_c, 3, 58, 0
4, 511920, Note_on_c, 3, 60, 51
4, 511920, Note_on_c, 3, 58, 51
4, 512110, Note_on_c, 3, 58, 0
4, 512110, Note_on_c, 3, 60, 0
4, 512400, Note_on_c, 3, 60, 55
4, 512400, Note_on_c, 3, 57, 55
4, 512590, Note_on_c, 3, 57, 0
4, 512590, Note_on_c, 3, 60, 0
4, 512640, Note_on_c, 3, 60, 57
4, 512640, Note_on_c, 3, 57, 57
4, 512830, Note_on_c, 3, 57, 0
4, 512830, Note_on_c, 3, 60, 0
4, 512880, Note_on_c, 3, 60, 60
4, 512880, Note_on_c, 3, 57, 60
4, 513070, Note_on_c, 3, 57, 0
4, 513070, Note_on_c, 3, 60, 0
4, 513120, Note_on_c, 3, 60, 62
4, 513120, Note_on_c, 3, 57, 62
4, 513310, Note_on_c, 3, 57, 0
4, 513310, Note_on_c, 3, 60, 0
4, 513360, Note_on_c, 3, 60, 64
4, 513360, Note_on_c, 3, 57, 64
4, 513550, Note_on_c, 3, 57, 0
4, 513550, Note_on_c, 3, 60, 0
4, 513840, Note_on_c, 3, 60, 69
4, 513840, Note_on_c, 3, 55, 69
4, 514030, Note_on_c, 3, 55, 0
4, 514030, Note_on_c, 3, 60, 0
4, 514080, Note_on_c, 3, 60, 71
4, 514080, Note_on_c, 3, 55, 71
4, 514270, Note_on_c, 3, 55, 0
4, 514270, Note_on_c, 3, 60, 0
4, 514320, Note_on_c, 3, 58, 73
4, 514320, Note_on_c, 3, 60, 73
4, 514510, Note_on_c, 3, 60, 0
4, 514510, Note_on_c, 3, 58, 0
4, 514560, Note_on_c, 3, 60, 71
4, 514560, Note_on_c, 3, 58, 71
4, 514750, Note_on_c, 3, 58, 0
4, 514750, Note_on_c, 3, 60, 0
4, 514800, Note_on_c, 3, 60, 63
4, 514800, Note_on_c, 3, 58, 63
4, 514990, Note_on_c, 3, 58, 0
4, 514990, Note_on_c, 3, 60, 0
4, 515040, Note_on_c, 3, 57, 56
4, 515040, Note_on_c, 3, 60, 56
4, 515230, Note_on_c, 3, 60, 0
4, 515230, Note_on_c, 3, 57, 0
4, 539640, Note_on_c, 3, 69, 69
4, 539735, Note_on_c, 3, 69, 0
4, 539760, Note_on_c, 3, 65, 70
4, 539760, Note_on_c, 3, 53, 70
4, 539855, Note_on_c, 3, 65, 0
4, 539880, Note_on_c, 3, 69, 72
4, 539950, Note_on_c, 3, 53, 0
4, 539975, Note_on_c, 3, 69, 0
4, 540000, Note_on_c, 3, 57, 73
4, 540120, Note_on_c, 3, 69, 74
4, 540190, Note_on_c, 3, 57, 0
4, 540215, Note_on_c, 3, 69, 0
4, 540360, Note_on_c, 3, 69, 76
4, 540455, Note_on_c, 3, 69, 0
4, 540480, Note_on_c, 3, 67, 78
4, 540480, Note_on_c, 3, 52, 78
4, 540575, Note_on_c, 3, 67, 0
4, 540600, Note_on_c, 3, 69, 79
4, 540670, Note_on_c, 3, 52, 0
4, 540695, Note_on_c, 3, 69, 0
4, 540720, Note_on_c, 3, 57, 80
4, 540840, Note_on_c, 3, 69, 81
4, 540910, Note_on_c, 3, 57, 0
4, 540935, Note_on_c, 3, 69, 0
4, 541080, Note_on_c, 3, 74, 84
4, 541175, Note_on_c, 3, 74, 0
4, 541200, Note_on_c, 3, 69, 85
4, 541200, Note_on_c, 3, 53, 85
4, 541295, Note_on_c, 3, 69, 0
4, 541320, Note_on_c, 3, 74, 86
4, 541390, Note_on_c, 3, 53, 0
4, 541415, Note_on_c, 3, 74, 0
4, 541440, Note_on_c, 3, 57, 87
4, 541560, Note_on_c, 3, 74, 88
4, 541630, Note_on_c, 3, 57, 0
4, 541655, Note_on_c, 3, 74, 0
4, 541800, Note_on_c, 3, 74, 91
4, 541895, Note_on_c, 3, 74, 0
4, 541920, Note_on_c, 3, 69, 92
4, 541920, Note_on_c, 3, 54, 92
4, 542015, Note_on_c, 3, 69, 0
4, 542040, Note_on_c, 3, 74, 93
4, 542110, Note_on_c, 3, 54, 0
4, 542135, Note_on_c, 3, 74, 0
4, 542160, Note_on_c, 3, 57, 94
4, 542280, Note_on_c, 3, 74, 96
4, 542350, Note_on_c, 3, 57, 0
4, 542375, Note_on_c, 3, 74, 0
4, 546960, Note_on_c, 3, 64, 59
4, 547150, Note_on_c, 3, 64, 0
4, 547200, Note_on_c, 3, 67, 61
4, 547390, Note_on_c, 3, 67, 0
4, 547680, Note_on_c, 3, 65, 64
4, 547870, Note_on_c, 3, 65, 0
4, 547920, Note_on_c, 3, 67, 65
4, 548110, Note_on_c, 3, 67, 0
4, 548160, Note_on_c, 3, 64, 67
4, 548160, Note_on_c, 3, 67, 67
4, 548400, Note_on_c, 3, 67, 0
4, 548400, Note_on_c, 3, 64, 0
4, 555600, Note_on_c, 3, 63, 37
4, 555840, Note_on_c, 3, 63, 0
4, 555840, Note_on_c, 3, 67, 39
4, 556080, Note_on_c, 3, 67, 0
4, 556320, Note_on_c, 3, 63, 43
4, 556560, Note_on_c, 3, 63, 0
4, 556560, Note_on_c, 3, 67, 45
4, 556740, Note_on_c, 3, 67, 0
4, 557040, Note_on_c, 3, 62, 48
4, 557280, Note_on_c, 3, 62, 0
4, 557280, Note_on_c, 3, 67, 47
4, 557520, Note_on_c, 3, 67, 0
4, 557760, Note_on_c, 3, 62, 44
4, 558000, Note_on_c, 3, 62, 0
4, 558000, Note_on_c, 3, 67, 43
4, 558195, Note_on_c, 3, 67, 0
4, 558480, Note_on_c, 3, 62, 45
4, 558720, Note_on_c, 3, 62, 0
4, 558720, Note_on_c, 3, 65, 47
4, 558960, Note_on_c, 3, 65, 0
4, 559200, Note_on_c, 3, 62, 51
4, 559440, Note_on_c, 3, 62, 0
4, 559440, Note_on_c, 3, 67, 53
4, 559620, Note_on_c, 3, 67, 0
4, 559920, Note_on_c, 3, 63, 56
4, 560160, Note_on_c, 3, 63, 0
4, 560160, Note_on_c, 3, 67, 54
4, 560400, Note_on_c, 3, 67, 0
4, 560640, Note_on_c, 3, 63, 51
4, 560880, Note_on_c, 3, 63, 0
4, 560880, Note_on_c, 3, 67, 50
4, 561070, Note_on_c, 3, 67, 0
4, 561360, Note_on_c, 3, 67, 70
4, 561600, Note_on_c, 3, 67, 0
4, 561600, Note_on_c, 3, 72, 69
4, 561840, Note_on_c, 3, 72, 0
4, 562080, Note_on_c, 3, 65, 66
4, 562320, Note_on_c, 3, 65, 0
4, 562320, Note_on_c, 3, 70, 65
4, 562510, Note_on_c, 3, 70, 0
4, 562800, Note_on_c, 3, 63, 62
4, 563040, Note_on_c, 3, 63, 0
4, 563040, Note_on_c, 3, 68, 61
4, 563280, Note_on_c, 3, 68, 0
4, 563520, Note_on_c, 3, 62, 58
4, 563760, Note_on_c, 3, 62, 0
4, 563760, Note_on_c, 3, 67, 57
4, 563950, Note_on_c, 3, 67, 0
4, 564240, Note_on_c, 3, 60, 55
4, 564480, Note_on_c, 3, 60, 0
4, 564480, Note_on_c, 3, 65, 53
4, 564720, Note_on_c, 3, 65, 0
4, 564960, Note_on_c, 3, 60, 51
4, 565200, Note_on_c, 3, 60, 0
4, 565200, Note_on_c, 3, 66, 50
4, 565390, Note_on_c, 3, 66, 0
4, 565680, Note_on_c, 3, 60, 47
4, 565920, Note_on_c, 3, 60, 0
4, 565920, Note_on_c, 3, 67, 46
4, 566160, Note_on_c, 3, 67, 0
4, 566400, Note_on_c, 3, 59, 43
4, 566640, Note_on_c, 3, 59, 0
4, 566640, Note_on_c, 3, 67, 40
4, 566830, Note_on_c, 3, 67, 0
4, 567120, Note_on_c, 3, 63, 44
4, 567360, Note_on_c, 3, 63, 0
4, 567360, Note_on_c, 3, 67, 46
4, 567600, Note_on_c, 3, 67, 0
4, 567840, Note_on_c, 3, 63, 50
4, 568080, Note_on_c, 3, 63, 0
4, 568080, Note_on_c, 3, 67, 52
4, 568270, Note_on_c, 3, 67, 0
4, 568560, Note_on_c, 3, 62, 54
4, 568800, Note_on_c, 3, 62, 0
4, 568800, Note_on_c, 3, 67, 52
4, 569040, Note_on_c, 3, 67, 0
4, 569280, Note_on_c, 3, 62, 49
4, 569520, Note_on_c, 3, 62, 0
4, 569520, Note_on_c, 3, 67, 48
4, 569710, Note_on_c, 3, 67, 0
4, 570000, Note_on_c, 3, 62, 53
4, 570240, Note_on_c, 3, 62, 0
4, 570240, Note_on_c, 3, 65, 55
4, 570480, Note_on_c, 3, 65, 0
4, 570720, Note_on_c, 3, 62, 59
4, 570960, Note_on_c, 3, 62, 0
4, 570960, Note_on_c, 3, 67, 61
4, 571150, Note_on_c, 3, 67, 0
4, 571440, Note_on_c, 3, 61, 63
4, 571680, Note_on_c, 3, 61, 0
4, 571680, Note_on_c, 3, 67, 61
4, 571920, Note_on_c, 3, 67, 0
4, 572160, Note_on_c, 3, 60, 58
4, 572400, Note_on_c, 3, 60, 0
4, 572400, Note_on_c, 3, 65, 56
4, 572590, Note_on_c, 3, 65, 0
4, 572880, Note_on_c, 3, 60, 79
4, 573120, Note_on_c, 3, 60, 0
4, 573120, Note_on_c, 3, 66, 77
4, 573360, Note_on_c, 3, 66, 0
4, 573600, Note_on_c, 3, 60, 72
4, 573840, Note_on_c, 3, 60, 0
4, 573840, Note_on_c, 3, 67, 70
4, 574030, Note_on_c, 3, 67, 0
4, 574320, Note_on_c, 3, 56, 66
4, 574560, Note_on_c, 3, 56, 0
4, 574560, Note_on_c, 3, 62, 64
4, 574800, Note_on_c, 3, 62, 0
4, 575040, Note_on_c, 3, 60, 59
4, 575280, Note_on_c, 3, 60, 0
4, 575280, Note_on_c, 3, 53, 57
4, 575470, Note_on_c, 3, 53, 0
4, 575760, Note_on_c, 3, 60, 52
4, 576000, Note_on_c, 3, 60, 0
4, 576000, Note_on_c, 3, 63, 49
4, 576240, Note_on_c, 3, 63, 0
4, 576480, Note_on_c, 3, 62, 44
4, 576720, Note_on_c, 3, 62, 0
4, 576720, Note_on_c, 3, 65, 41
4, 576910, Note_on_c, 3, 65, 0
4, 603120, Note_on_c, 3, 55, 89
4, 603360, Note_on_c, 3, 55, 0
4, 603360, Note_on_c, 3, 60, 88
4, 603600, Note_on_c, 3, 60, 0
4, 603840, Note_on_c, 3, 57, 87
4, 604080, Note_on_c, 3, 57, 0
4, 604080, Note_on_c, 3, 60, 86
4, 604265, Note_on_c, 3, 60, 0
4, 604560, Note_on_c, 3, 60, 85
4, 604800, Note_on_c, 3, 60, 0
4, 604800, Note_on_c, 3, 64, 84
4, 605040, Note_on_c, 3, 64, 0
4, 605280, Note_on_c, 3, 62, 83
4, 605520, Note_on_c, 3, 62, 0
4, 605520, Note_on_c, 3, 65, 82
4, 605730, Note_on_c, 3, 65, 0
4, 618120, Note_on_c, 3, 72, 84
4, 618215, Note_on_c, 3, 72, 0
4, 618360, Note_on_c, 3, 72, 85
4, 618455, Note_on_c, 3, 72, 0
4, 618600, Note_on_c, 3, 72, 86
4, 618695, Note_on_c, 3, 72, 0
4, 618840, Note_on_c, 3, 72, 87
4, 618935, Note_on_c, 3, 72, 0
4, 619080, Note_on_c, 3, 72, 88
4, 619175, Note_on_c, 3, 72, 0
4, 619320, Note_on_c, 3, 72, 89
4, 619415, Note_on_c, 3, 72, 0
4, 619560, Note_on_c, 3, 72, 91
4, 619655, Note_on_c, 3, 72, 0
4, 619800, Note_on_c, 3, 72, 92
4, 619895, Note_on_c, 3, 72, 0
4, 620040, Note_on_c, 3, 72, 93
4, 620135, Note_on_c, 3, 72, 0
4, 620280, Note_on_c, 3, 72, 97
4, 620375, Note_on_c, 3, 72, 0
4, 620400, Note_on_c, 3, 65, 95
4, 620495, Note_on_c, 3, 65, 0
4, 620520, Note_on_c, 3, 72, 93
4, 620615, Note_on_c, 3, 72, 0
4, 620760, Note_on_c, 3, 72, 89
4, 620855, Note_on_c, 3, 72, 0
4, 621000, Note_on_c, 3, 72, 93
4, 621095, Note_on_c, 3, 72, 0
4, 621120, Note_on_c, 3, 65, 92
4, 621215, Note_on_c, 3, 65, 0
4, 621240, Note_on_c, 3, 72, 90
4, 621335, Note_on_c, 3, 72, 0
4, 621480, Note_on_c, 3, 72, 88
4, 621575, Note_on_c, 3, 72, 0
4, 621720, Note_on_c, 3, 72, 87
4, 621840, Note_on_c, 3, 72, 0
4, 621960, Note_on_c, 3, 72, 86
4, 622080, Note_on_c, 3, 72, 0
4, 622200, Note_on_c, 3, 72, 86
4, 622320, Note_on_c, 3, 72, 0
4, 622440, Note_on_c, 3, 72, 85
4, 622560, Note_on_c, 3, 72, 0
4, 622680, Note_on_c, 3, 72, 85
4, 622800, Note_on_c, 3, 72, 0
4, 622920, Note_on_c, 3, 72, 84
4, 623015, Note_on_c, 3, 72, 0
4, 623160, Note_on_c, 3, 72, 84
4, 623280, Note_on_c, 3, 72, 0
4, 623400, Note_on_c, 3, 72, 84
4, 623520, Note_on_c, 3, 72, 0
4, 623640, Note_on_c, 3, 72, 83
4, 623760, Note_on_c, 3, 72, 0
4, 623880, Note_on_c, 3, 72, 83
4, 624000, Note_on_c, 3, 72, 0
4, 624120, Note_on_c, 3, 72, 82
4, 624240, Note_on_c, 3, 72, 0
4, 624360, Note_on_c, 3, 72, 82
4, 624455, Note_on_c, 3, 72, 0
4, 627480, Note_on_c, 3, 77, 77
4, 627600, Note_on_c, 3, 77, 0
4, 627720, Note_on_c, 3, 77, 76
4, 627840, Note_on_c, 3, 77, 0
4, 627960, Note_on_c, 3, 77, 76
4, 628080, Note_on_c, 3, 77, 0
4, 628200, Note_on_c, 3, 77, 75
4, 628320, Note_on_c, 3, 77, 0
4, 628440, Note_on_c, 3, 77, 75
4, 628560, Note_on_c, 3, 77, 0
4, 628680, Note_on_c, 3, 77, 75
4, 628775, Note_on_c, 3, 77, 0
4, 628920, Note_on_c, 3, 77, 74
4, 629040, Note_on_c, 3, 77, 0
4, 629160, Note_on_c, 3, 77, 74
4, 629280, Note_on_c, 3, 77, 0
4, 629400, Note_on_c, 3, 77, 73
4, 629520, Note_on_c, 3, 77, 0
4, 629640, Note_on_c, 3, 77, 73
4, 629760, Note_on_c, 3, 77, 0
4, 629880, Note_on_c, 3, 77, 73
4, 630000, Note_on_c, 3, 77, 0
4, 630120, Note_on_c, 3, 77, 72
4, 630215, Note_on_c, 3, 77, 0
4, 633240, Note_on_c, 3, 67, 67
4, 633360, Note_on_c, 3, 67, 0
4, 633480, Note_on_c, 3, 67, 67
4, 633600, Note_on_c, 3, 67, 0
4, 633720, Note_on_c, 3, 67, 66
4, 633840, Note_on_c, 3, 67, 0
4, 633960, Note_on_c, 3, 67, 66
4, 634080, Note_on_c, 3, 67, 0
4, 634200, Note_on_c, 3, 67, 65
4, 634320, Note_on_c, 3, 67, 0
4, 634440, Note_on_c, 3, 67, 65
4, 634535, Note_on_c, 3, 67, 0
4, 634680, Note_on_c, 3, 67, 64
4, 634800, Note_on_c, 3, 67, 0
4, 634920, Note_on_c, 3, 67, 64
4, 635040, Note_on_c, 3, 67, 0
4, 635160, Note_on_c, 3, 67, 64
4, 635280, Note_on_c, 3, 67, 0
4, 635400, Note_on_c, 3, 67, 63
4, 635520, Note_on_c, 3, 67, 0
4, 635640, Note_on_c, 3, 67, 63
4, 635760, Note_on_c, 3, 67, 0
4, 635880, Note_on_c, 3, 67, 62
4, 635975, Note_on_c, 3, 67, 0
4, 644880, Note_on_c, 3, 62, 44
4, 645120, Note_on_c, 3, 62, 0
4, 645120, Note_on_c, 3, 65, 46
4, 645305, Note_on_c, 3, 65, 0
4, 645600, Note_on_c, 3, 60, 49
4, 645840, Note_on_c, 3, 60, 0
4, 645840, Note_on_c, 3, 65, 51
4, 646020, Note_on_c, 3, 65, 0
4, 646320, Note_on_c, 3, 58, 50
4, 646560, Note_on_c, 3, 58, 0
4, 646560, Note_on_c, 3, 63, 49
4, 646740, Note_on_c, 3, 63, 0
4, 647040, Note_on_c, 3, 57, 48
4, 647280, Note_on_c, 3, 57, 0
4, 647280, Note_on_c, 3, 62, 47
4, 647465, Note_on_c, 3, 62, 0
4, 647760, Note_on_c, 3, 58, 49
4, 648000, Note_on_c, 3, 58, 0
4, 648000, Note_on_c, 3, 63, 51
4, 648185, Note_on_c, 3, 63, 0
4, 648480, Note_on_c, 3, 57, 55
4, 648720, Note_on_c, 3, 57, 0
4, 648720, Note_on_c, 3, 62, 57
4, 648905, Note_on_c, 3, 62, 0
4, 649200, Note_on_c, 3, 55, 58
4, 649440, Note_on_c, 3, 55, 0
4, 649440, Note_on_c, 3, 60, 56
4, 649625, Note_on_c, 3, 60, 0
4, 649920, Note_on_c, 3, 53, 54
4, 650160, Note_on_c, 3, 53, 0
4, 650160, Note_on_c, 3, 58, 52
4, 650345, Note_on_c, 3, 58, 0
4, 650640, Note_on_c, 3, 55, 55
4, 650880, Note_on_c, 3, 55, 0
4, 650880, Note_on_c, 3, 58, 53
4, 651065, Note_on_c, 3, 58, 0
4, 651360, Note_on_c, 3, 57, 48
4, 651600, Note_on_c, 3, 57, 0
4, 651600, Note_on_c, 3, 60, 46
4, 651780, Note_on_c, 3, 60, 0
4, 652080, Note_on_c, 3, 53, 51
4, 652320, Note_on_c, 3, 53, 0
4, 652320, Note_on_c, 3, 58, 49
4, 652505, Note_on_c, 3, 58, 0
4, 652800, Note_on_c, 3, 58, 44
4, 653040, Note_on_c, 3, 58, 0
4, 653040, Note_on_c, 3, 61, 42
4, 653225, Note_on_c, 3, 61, 0
4, 653520, Note_on_c, 3, 54, 47
4, 653760, Note_on_c, 3, 54, 0
4, 653760, Note_on_c, 3, 58, 45
4, 653945, Note_on_c, 3, 58, 0
4, 654240, Note_on_c, 3, 55, 41
4, 654480, Note_on_c, 3, 55, 0
4, 654480, Note_on_c, 3, 61, 39
4, 654650, Note_on_c, 3, 61, 0
4, 654960, Note_on_c, 3, 57, 41
4, 655200, Note_on_c, 3, 57, 0
4, 655200, Note_on_c, 3, 60, 40
4, 655440, Note_on_c, 3, 60, 0
4, 656280, Note_on_c, 3, 70, 76
4, 656375, Note_on_c, 3, 70, 0
4, 656400, Note_on_c, 3, 65, 77
4, 656495, Note_on_c, 3, 65, 0
4, 656520, Note_on_c, 3, 70, 78
4, 656615, Note_on_c, 3, 70, 0
4, 656760, Note_on_c, 3, 70, 79
4, 656855, Note_on_c, 3, 70, 0
4, 657000, Note_on_c, 3, 69, 81
4, 657095, Note_on_c, 3, 69, 0
4, 657120, Note_on_c, 3, 65, 82
4, 657215, Note_on_c, 3, 65, 0
4, 657240, Note_on_c, 3, 69, 83
4, 657335, Note_on_c, 3, 69, 0
4, 657480, Note_on_c, 3, 69, 85
4, 657575, Note_on_c, 3, 69, 0
4, 657720, Note_on_c, 3, 70, 88
4, 657815, Note_on_c, 3, 70, 0
4, 657840, Note_on_c, 3, 67, 88
4, 657935, Note_on_c, 3, 67, 0
4, 657960, Note_on_c, 3, 70, 87
4, 658055, Note_on_c, 3, 70, 0
4, 658080, Note_on_c, 3, 75, 86
4, 658175, Note_on_c, 3, 75, 0
4, 658200, Note_on_c, 3, 70, 85
4, 658295, Note_on_c, 3, 70, 0
4, 658320, Note_on_c, 3, 75, 84
4, 658415, Note_on_c, 3, 75, 0
4, 658440, Note_on_c, 3, 70, 84
4, 658535, Note_on_c, 3, 70, 0
4, 658560, Note_on_c, 3, 75, 83
4, 658655, Note_on_c, 3, 75, 0
4, 658680, Note_on_c, 3, 70, 82
4, 658775, Note_on_c, 3, 70, 0
4, 658920, Note_on_c, 3, 69, 81
4, 659015, Note_on_c, 3, 69, 0
4, 659160, Note_on_c, 3, 70, 81
4, 659255, Note_on_c, 3, 70, 0
4, 659280, Note_on_c, 3, 67, 82
4, 659375, Note_on_c, 3, 67, 0
4, 659400, Note_on_c, 3, 70, 83
4, 659495, Note_on_c, 3, 70, 0
4, 659640, Note_on_c, 3, 70, 86
4, 659735, Note_on_c, 3, 70, 0
4, 659880, Note_on_c, 3, 69, 89
4, 659975, Note_on_c, 3, 69, 0
4, 660000, Note_on_c, 3, 65, 90
4, 660095, Note_on_c, 3, 65, 0
4, 660120, Note_on_c, 3, 69, 91
4, 660215, Note_on_c, 3, 69, 0
4, 660360, Note_on_c, 3, 69, 94
4, 660455, Note_on_c, 3, 69, 0
4, 660600, Note_on_c, 3, 70, 96
4, 660695, Note_on_c, 3, 70, 0
4, 660720, Note_on_c, 3, 67, 95
4, 660815, Note_on_c, 3, 67, 0
4, 660840, Note_on_c, 3, 70, 94
4, 660935, Note_on_c, 3, 70, 0
4, 660960, Note_on_c, 3, 79, 93
4, 661055, Note_on_c, 3, 79, 0
4, 661080, Note_on_c, 3, 70, 92
4, 661175, Note_on_c, 3, 70, 0
4, 661200, Note_on_c, 3, 79, 90
4, 661295, Note_on_c, 3, 79, 0
4, 661320, Note_on_c, 3, 70, 89
4, 661415, Note_on_c, 3, 70, 0
4, 661440, Note_on_c, 3, 79, 88
4, 661535, Note_on_c, 3, 79, 0
4, 661560, Note_on_c, 3, 70, 87
4, 661655, Note_on_c, 3, 70, 0
4, 661800, Note_on_c, 3, 70, 84
4, 661895, Note_on_c, 3, 70, 0
4, 700200, Note_on_c, 3, 77, 83
4, 700295, Note_on_c, 3, 77, 0
4, 700440, Note_on_c, 3, 77, 85
4, 700535, Note_on_c, 3, 77, 0
4, 700680, Note_on_c, 3, 77, 87
4, 700775, Note_on_c, 3, 77, 0
4, 700920, Note_on_c, 3, 77, 89
4, 701015, Note_on_c, 3, 77, 0
4, 701160, Note_on_c, 3, 77, 91
4, 701255, Note_on_c, 3, 77, 0
4, 701400, Note_on_c, 3, 77, 93
4, 701495, Note_on_c, 3, 77, 0
4, 701640, Note_on_c, 3, 77, 95
4, 701735, Note_on_c, 3, 77, 0
4, 701880, Note_on_c, 3, 77, 97
4, 701975, Note_on_c, 3, 77, 0
4, 702120, Note_on_c, 3, 77, 99
4, 702215, Note_on_c, 3, 77, 0
4, 702360, Note_on_c, 3, 77, 99
4, 702455, Note_on_c, 3, 77, 0
4, 702480, Note_on_c, 3, 70, 97
4, 702575, Note_on_c, 3, 70, 0
4, 702600, Note_on_c, 3, 77, 96
4, 702695, Note_on_c, 3, 77, 0
4, 702840, Note_on_c, 3, 77, 92
4, 702935, Note_on_c, 3, 77, 0
4, 703080, Note_on_c, 3, 77, 97
4, 703175, Note_on_c, 3, 77, 0
4, 703200, Note_on_c, 3, 70, 95
4, 703295, Note_on_c, 3, 70, 0
4, 703320, Note_on_c, 3, 77, 92
4, 703415, Note_on_c, 3, 77, 0
4, 703560, Note_on_c, 3, 77, 88
4, 703655, Note_on_c, 3, 77, 0
4, 703800, Note_on_c, 3, 77, 82
4, 703895, Note_on_c, 3, 77, 0
4, 704040, Note_on_c, 3, 77, 74
4, 704135, Note_on_c, 3, 77, 0
4, 704280, Note_on_c, 3, 77, 66
4, 704375, Note_on_c, 3, 77, 0
4, 704400, Note_on_c, 3, 76, 62
4, 704690, Note_on_c, 3, 76, 0
4, 708840, Note_on_c, 3, 77, 77
4, 708935, Note_on_c, 3, 77, 0
4, 709080, Note_on_c, 3, 77, 79
4, 709175, Note_on_c, 3, 77, 0
4, 709320, Note_on_c, 3, 77, 81
4, 709415, Note_on_c, 3, 77, 0
4, 709560, Note_on_c, 3, 77, 83
4, 709655, Note_on_c, 3, 77, 0
4, 709800, Note_on_c, 3, 77, 85
4, 709895, Note_on_c, 3, 77, 0
4, 710040, Note_on_c, 3, 77, 87
4, 710135, Note_on_c, 3, 77, 0
4, 710280, Note_on_c, 3, 77, 90
4, 710375, Note_on_c, 3, 77, 0
4, 710520, Note_on_c, 3, 77, 92
4, 710615, Note_on_c, 3, 77, 0
4, 710760, Note_on_c, 3, 77, 94
4, 710855, Note_on_c, 3, 77, 0
4, 711000, Note_on_c, 3, 77, 95
4, 711095, Note_on_c, 3, 77, 0
4, 711120, Note_on_c, 3, 70, 94
4, 711240, Note_on_c, 3, 70, 0
4, 711240, Note_on_c, 3, 77, 92
4, 711335, Note_on_c, 3, 77, 0
4, 711480, Note_on_c, 3, 77, 89
4, 711575, Note_on_c, 3, 77, 0
4, 711720, Note_on_c, 3, 77, 93
4, 711815, Note_on_c, 3, 77, 0
4, 711840, Note_on_c, 3, 70, 90
4, 711936, Note_on_c, 3, 70, 0
4, 711960, Note_on_c, 3, 77, 87
4, 712055, Note_on_c, 3, 77, 0
4, 712200, Note_on_c, 3, 77, 82
4, 712295, Note_on_c, 3, 77, 0
4, 716160, Note_on_c, 3, 60, 55
4, 716315, Note_on_c, 3, 60, 0
4, 716400, Note_on_c, 3, 60, 52
4, 716555, Note_on_c, 3, 60, 0
4, 716880, Note_on_c, 3, 58, 50
4, 716880, Note_on_c, 3, 60, 50
4, 717070, Note_on_c, 3, 60, 0
4, 717070, Note_on_c, 3, 58, 0
4, 717120, Note_on_c, 3, 60, 52
4, 717120, Note_on_c, 3, 58, 52
4, 717310, Note_on_c, 3, 58, 0
4, 717310, Note_on_c, 3, 60, 0
4, 717360, Note_on_c, 3, 60, 53
4, 717360, Note_on_c, 3, 58, 53
4, 717550, Note_on_c, 3, 58, 0
4, 717550, Note_on_c, 3, 60, 0
4, 717600, Note_on_c, 3, 58, 54
4, 717600, Note_on_c, 3, 60, 54
4, 717790, Note_on_c, 3, 60, 0
4, 717790, Note_on_c, 3, 58, 0
4, 717840, Note_on_c, 3, 60, 55
4, 717840, Note_on_c, 3, 58, 55
4, 718030, Note_on_c, 3, 58, 0
4, 718030, Note_on_c, 3, 60, 0
4, 718320, Note_on_c, 3, 57, 54
4, 718320, Note_on_c, 3, 60, 54
4, 718510, Note_on_c, 3, 60, 0
4, 718510, Note_on_c, 3, 57, 0
4, 718560, Note_on_c, 3, 57, 53
4, 718560, Note_on_c, 3, 60, 53
4, 718750, Note_on_c, 3, 60, 0
4, 718750, Note_on_c, 3, 57, 0
4, 718800, Note_on_c, 3, 57, 51
4, 718800, Note_on_c, 3, 60, 51
4, 718990, Note_on_c, 3, 60, 0
4, 718990, Note_on_c, 3, 57, 0
4, 719040, Note_on_c, 3, 57, 50
4, 719040, Note_on_c, 3, 60, 50
4, 719230, Note_on_c, 3, 60, 0
4, 719230, Note_on_c, 3, 57, 0
4, 719280, Note_on_c, 3, 57, 48
4, 719280, Note_on_c, 3, 60, 48
4, 719470, Note_on_c, 3, 60, 0
4, 719470, Note_on_c, 3, 57, 0
4, 719760, Note_on_c, 3, 55, 48
4, 719760, Note_on_c, 3, 60, 48
4, 719950, Note_on_c, 3, 60, 0
4, 719950, Note_on_c, 3, 55, 0
4, 720000, Note_on_c, 3, 55, 49
4, 720000, Note_on_c, 3, 60, 49
4, 720190, Note_on_c, 3, 60, 0
4, 720190, Note_on_c, 3, 55, 0
4, 720240, Note_on_c, 3, 55, 50
4, 720240, Note_on_c, 3, 60, 50
4, 720430, Note_on_c, 3, 60, 0
4, 720430, Note_on_c, 3, 55, 0
4, 720480, Note_on_c, 3, 55, 51
4, 720480, Note_on_c, 3, 60, 51
4, 720670, Note_on_c, 3, 60, 0
4, 720670, Note_on_c, 3, 55, 0
4, 720720, Note_on_c, 3, 55, 52
4, 720720, Note_on_c, 3, 60, 52
4, 720910, Note_on_c, 3, 60, 0
4, 720910, Note_on_c, 3, 55, 0
4, 721200, Note_on_c, 3, 57, 52
4, 721200, Note_on_c, 3, 60, 52
4, 721390, Note_on_c, 3, 60, 0
4, 721390, Note_on_c, 3, 57, 0
4, 721440, Note_on_c, 3, 57, 50
4, 721440, Note_on_c, 3, 60, 50
4, 721630, Note_on_c, 3, 60, 0
4, 721630, Note_on_c, 3, 57, 0
4, 721680, Note_on_c, 3, 57, 48
4, 721680, Note_on_c, 3, 60, 48
4, 721870, Note_on_c, 3, 60, 0
4, 721870, Note_on_c, 3, 57, 0
4, 721920, Note_on_c, 3, 57, 46
4, 721920, Note_on_c, 3, 60, 46
4, 722110, Note_on_c, 3, 60, 0
4, 722110, Note_on_c, 3, 57, 0
4, 722160, Note_on_c, 3, 57, 44
4, 722160, Note_on_c, 3, 60, 44
4, 722350, Note_on_c, 3, 60, 0
4, 722350, Note_on_c, 3, 57, 0
4, 722640, Note_on_c, 3, 60, 42
4, 722640, Note_on_c, 3, 58, 42
4, 722830, Note_on_c, 3, 58, 0
4, 722830, Note_on_c, 3, 60, 0
4, 722880, Note_on_c, 3, 60, 44
4, 722880, Note_on_c, 3, 58, 44
4, 723070, Note_on_c, 3, 58, 0
4, 723070, Note_on_c, 3, 60, 0
4, 723120, Note_on_c, 3, 60, 45
4, 723120, Note_on_c, 3, 58, 45
4, 723310, Note_on_c, 3, 58, 0
4, 723310, Note_on_c, 3, 60, 0
4, 723360, Note_on_c, 3, 60, 47
4, 723360, Note_on_c, 3, 58, 47
4, 723550, Note_on_c, 3, 58, 0
4, 723550, Note_on_c, 3, 60, 0
4, 723600, Note_on_c, 3, 58, 48
4, 723600, Note_on_c, 3, 60, 48
4, 723790, Note_on_c, 3, 60, 0
4, 723790, Note_on_c, 3, 58, 0
4, 724080, Note_on_c, 3, 57, 56
4, 724080, Note_on_c, 3, 60, 56
4, 724270, Note_on_c, 3, 60, 0
4, 724270, Note_on_c, 3, 57, 0
4, 724320, Note_on_c, 3, 57, 58
4, 724320, Note_on_c, 3, 60, 58
4, 724510, Note_on_c, 3, 60, 0
4, 724510, Note_on_c, 3, 57, 0
4, 724560, Note_on_c, 3, 57, 60
4, 724560, Note_on_c, 3, 60, 60
4, 724750, Note_on_c, 3, 60, 0
4, 724750, Note_on_c, 3, 57, 0
4, 724800, Note_on_c, 3, 57, 63
4, 724800, Note_on_c, 3, 60, 63
4, 724990, Note_on_c, 3, 60, 0
4, 724990, Note_on_c, 3, 57, 0
4, 725040, Note_on_c, 3, 57, 65
4, 725040, Note_on_c, 3, 60, 65
4, 725230, Note_on_c, 3, 60, 0
4, 725230, Note_on_c, 3, 57, 0
4, 725520, Note_on_c, 3, 55, 69
4, 725520, Note_on_c, 3, 60, 69
4, 725710, Note_on_c, 3, 60, 0
4, 725710, Note_on_c, 3, 55, 0
4, 725760, Note_on_c, 3, 55, 71
4, 725760, Note_on_c, 3, 60, 71
4, 725950, Note_on_c, 3, 60, 0
4, 725950, Note_on_c, 3, 55, 0
4, 726000, Note_on_c, 3, 60, 73
4, 726000, Note_on_c, 3, 58, 73
4, 726190, Note_on_c, 3, 58, 0
4, 726190, Note_on_c, 3, 60, 0
4, 726240, Note_on_c, 3, 58, 71
4, 726240, Note_on_c, 3, 60, 71
4, 726430, Note_on_c, 3, 60, 0
4, 726430, Note_on_c, 3, 58, 0
4, 726480, Note_on_c, 3, 58, 66
4, 726480, Note_on_c, 3, 60, 66
4, 726670, Note_on_c, 3, 60, 0
4, 726670, Note_on_c, 3, 58, 0
4, 732600, Note_on_c, 3, 74, 60
4, 732695, Note_on_c, 3, 74, 0
4, 732720, Note_on_c, 3, 70, 61
4, 732720, Note_on_c, 3, 58, 67
4, 732815, Note_on_c, 3, 70, 0
4, 732840, Note_on_c, 3, 74, 63
4, 732935, Note_on_c, 3, 74, 0
4, 732960, Note_on_c, 3, 58, 0
4, 732960, Note_on_c, 3, 62, 69
4, 733080, Note_on_c, 3, 74, 65
4, 733150, Note_on_c, 3, 62, 0
4, 733175, Note_on_c, 3, 74, 0
4, 733320, Note_on_c, 3, 74, 68
4, 733415, Note_on_c, 3, 74, 0
4, 733440, Note_on_c, 3, 72, 69
4, 733440, Note_on_c, 3, 57, 73
4, 733535, Note_on_c, 3, 72, 0
4, 733560, Note_on_c, 3, 74, 70
4, 733655, Note_on_c, 3, 74, 0
4, 733680, Note_on_c, 3, 57, 0
4, 733680, Note_on_c, 3, 62, 75
4, 733800, Note_on_c, 3, 74, 73
4, 733870, Note_on_c, 3, 62, 0
4, 733895, Note_on_c, 3, 74, 0
4, 734040, Note_on_c, 3, 79, 76
4, 734135, Note_on_c, 3, 79, 0
4, 734160, Note_on_c, 3, 74, 77
4, 734160, Note_on_c, 3, 58, 79
4, 734255, Note_on_c, 3, 74, 0
4, 734280, Note_on_c, 3, 79, 78
4, 734375, Note_on_c, 3, 79, 0
4, 734400, Note_on_c, 3, 58, 0
4, 734400, Note_on_c, 3, 62, 82
4, 734520, Note_on_c, 3, 79, 81
4, 734590, Note_on_c, 3, 62, 0
4, 734615, Note_on_c, 3, 79, 0
4, 734760, Note_on_c, 3, 79, 83
4, 734855, Note_on_c, 3, 79, 0
4, 734880, Note_on_c, 3, 74, 85
4, 734880, Note_on_c, 3, 59, 86
4, 734975, Note_on_c, 3, 74, 0
4, 735000, Note_on_c, 3, 79, 86
4, 735095, Note_on_c, 3, 79, 0
4, 735120, Note_on_c, 3, 59, 0
4, 735120, Note_on_c, 3, 62, 88
4, 735240, Note_on_c, 3, 79, 89
4, 735310, Note_on_c, 3, 62, 0
4, 735360, Note_on_c, 3, 79, 0
4, 739920, Note_on_c, 3, 69, 57
4, 740160, Note_on_c, 3, 69, 0
4, 740160, Note_on_c, 3, 72, 58
4, 740360, Note_on_c, 3, 72, 0
4, 740640, Note_on_c, 3, 67, 60
4, 740880, Note_on_c, 3, 67, 0
4, 740880, Note_on_c, 3, 72, 62
4, 741075, Note_on_c, 3, 72, 0
4, 741120, Note_on_c, 3, 69, 63
4, 741120, Note_on_c, 3, 72, 63
4, 741360, Note_on_c, 3, 72, 0
4, 741360, Note_on_c, 3, 69, 0
4, 750000, Note_on_c, 3, 56, 39
4, 750240, Note_on_c, 3, 56, 0
4, 750240, Note_on_c, 3, 60, 41
4, 750430, Note_on_c, 3, 60, 0
4, 750720, Note_on_c, 3, 56, 44
4, 750960, Note_on_c, 3, 56, 0
4, 750960, Note_on_c, 3, 60, 45
4, 751150, Note_on_c, 3, 60, 0
4, 751440, Note_on_c, 3, 55, 46
4, 751680, Note_on_c, 3, 55, 0
4, 751680, Note_on_c, 3, 60, 45
4, 751870, Note_on_c, 3, 60, 0
4, 752160, Note_on_c, 3, 55, 43
4, 752400, Note_on_c, 3, 55, 0
4, 752400, Note_on_c, 3, 60, 42
4, 752590, Note_on_c, 3, 60, 0
4, 752880, Note_on_c, 3, 55, 43
4, 753120, Note_on_c, 3, 55, 0
4, 753120, Note_on_c, 3, 58, 46
4, 753290, Note_on_c, 3, 58, 0
4, 753600, Note_on_c, 3, 55, 50
4, 753840, Note_on_c, 3, 55, 0
4, 753840, Note_on_c, 3, 60, 52
4, 754030, Note_on_c, 3, 60, 0
4, 754320, Note_on_c, 3, 56, 54
4, 754560, Note_on_c, 3, 56, 0
4, 754560, Note_on_c, 3, 60, 52
4, 754750, Note_on_c, 3, 60, 0
4, 755040, Note_on_c, 3, 56, 49
4, 755280, Note_on_c, 3, 56, 0
4, 755280, Note_on_c, 3, 60, 48
4, 755470, Note_on_c, 3, 60, 0
4, 755760, Note_on_c, 3, 60, 68
4, 756000, Note_on_c, 3, 60, 0
4, 756000, Note_on_c, 3, 65, 67
4, 756190, Note_on_c, 3, 65, 0
4, 756480, Note_on_c, 3, 58, 65
4, 756720, Note_on_c, 3, 58, 0
4, 756720, Note_on_c, 3, 63, 64
4, 756910, Note_on_c, 3, 63, 0
4, 757200, Note_on_c, 3, 56, 62
4, 757440, Note_on_c, 3, 56, 0
4, 757440, Note_on_c, 3, 61, 61
4, 757630, Note_on_c, 3, 61, 0
4, 757920, Note_on_c, 3, 55, 59
4, 758160, Note_on_c, 3, 55, 0
4, 758160, Note_on_c, 3, 60, 58
4, 758350, Note_on_c, 3, 60, 0
4, 758640, Note_on_c, 3, 53, 56
4, 758880, Note_on_c, 3, 53, 0
4, 758880, Note_on_c, 3, 58, 55
4, 759070, Note_on_c, 3, 58, 0
4, 759360, Note_on_c, 3, 53, 53
4, 759600, Note_on_c, 3, 53, 0
4, 759600, Note_on_c, 3, 59, 52
4, 759790, Note_on_c, 3, 59, 0
4, 760080, Note_on_c, 3, 53, 50
4, 760320, Note_on_c, 3, 53, 0
4, 760320, Note_on_c, 3, 60, 49
4, 760510, Note_on_c, 3, 60, 0
4, 760800, Note_on_c, 3, 52, 47
4, 761040, Note_on_c, 3, 52, 0
4, 761040, Note_on_c, 3, 60, 46
4, 761230, Note_on_c, 3, 60, 0
4, 761520, Note_on_c, 3, 56, 47
4, 761760, Note_on_c, 3, 56, 0
4, 761760, Note_on_c, 3, 60, 49
4, 761950, Note_on_c, 3, 60, 0
4, 762240, Note_on_c, 3, 56, 52
4, 762480, Note_on_c, 3, 56, 0
4, 762480, Note_on_c, 3, 60, 53
4, 762670, Note_on_c, 3, 60, 0
4, 762960, Note_on_c, 3, 55, 54
4, 763200, Note_on_c, 3, 55, 0
4, 763200, Note_on_c, 3, 60, 53
4, 763390, Note_on_c, 3, 60, 0
4, 763680, Note_on_c, 3, 55, 51
4, 763920, Note_on_c, 3, 55, 0
4, 763920, Note_on_c, 3, 60, 50
4, 764110, Note_on_c, 3, 60, 0
4, 764400, Note_on_c, 3, 55, 54
4, 764640, Note_on_c, 3, 55, 0
4, 764640, Note_on_c, 3, 58, 56
4, 764830, Note_on_c, 3, 58, 0
4, 765120, Note_on_c, 3, 55, 59
4, 765360, Note_on_c, 3, 55, 0
4, 765360, Note_on_c, 3, 60, 61
4, 765550, Note_on_c, 3, 60, 0
4, 765840, Note_on_c, 3, 54, 64
4, 766080, Note_on_c, 3, 54, 0
4, 766080, Note_on_c, 3, 57, 62
4, 766270, Note_on_c, 3, 57, 0
4, 766560, Note_on_c, 3, 53, 59
4, 766800, Note_on_c, 3, 53, 0
4, 766800, Note_on_c, 3, 58, 58
4, 766990, Note_on_c, 3, 58, 0
4, 767280, Note_on_c, 3, 53, 72
4, 767520, Note_on_c, 3, 53, 0
4, 767520, Note_on_c, 3, 56, 73
4, 767710, Note_on_c, 3, 56, 0
4, 768000, Note_on_c, 3, 53, 74
4, 768240, Note_on_c, 3, 53, 0
4, 768240, Note_on_c, 3, 56, 75
4, 768430, Note_on_c, 3, 56, 0
4, 768720, Note_on_c, 3, 52, 76
4, 768960, Note_on_c, 3, 52, 0
4, 768960, Note_on_c, 3, 55, 77
4, 769150, Note_on_c, 3, 55, 0
4, 769440, Note_on_c, 3, 48, 78
4, 769680, Note_on_c, 3, 48, 0
4, 769680, Note_on_c, 3, 53, 79
4, 769870, Note_on_c, 3, 53, 0
4, 770160, Note_on_c, 3, 53, 65
4, 770400, Note_on_c, 3, 53, 0
4, 770400, Note_on_c, 3, 56, 60
4, 770590, Note_on_c, 3, 56, 0
4, 770880, Note_on_c, 3, 55, 50
4, 771120, Note_on_c, 3, 55, 0
4, 771120, Note_on_c, 3, 58, 45
4, 771310, Note_on_c, 3, 58, 0
4, 800400, Note_on_c, 3, 60, 77
4, 800640, Note_on_c, 3, 60, 0
4, 800640, Note_on_c, 3, 65, 79
4, 800830, Note_on_c, 3, 65, 0
4, 801120, Note_on_c, 3, 62, 82
4, 801360, Note_on_c, 3, 62, 0
4, 801360, Note_on_c, 3, 67, 84
4, 801550, Note_on_c, 3, 67, 0
4, 801840, Note_on_c, 3, 65, 86
4, 802080, Note_on_c, 3, 65, 0
4, 802080, Note_on_c, 3, 69, 84
4, 802270, Note_on_c, 3, 69, 0
4, 802560, Note_on_c, 3, 67, 80
4, 802800, Note_on_c, 3, 67, 0
4, 802800, Note_on_c, 3, 70, 79
4, 802990, Note_on_c, 3, 70, 0
4, 802990, End_track
5, 0, Start_track
5, 0, Title_t, "Unnamed Track"
5, 0, Control_c, 4, 0, 0
5, 0, Control_c, 4, 7, 120
5, 0, Control_c, 4, 10, 55
5, 0, Control_c, 4, 91, 100
5, 0, Control_c, 4, 93, 19
5, 0, Control_c, 4, 64, 0
5, 0, Control_c, 4, 1, 0
5, 0, Pitch_bend_c, 4, 8192
5, 0, Control_c, 4, 64, 0
5, 0, Control_c, 4, 64, 0
5, 0, Control_c, 4, 64, 0
5, 1, Control_c, 4, 32, 0
5, 1, Program_c, 4, 0
5, 1440, Control_c, 4, 64, 127
5, 2820, Control_c, 4, 64, 0
5, 2880, Control_c, 4, 64, 127
5, 4260, Control_c, 4, 64, 0
5, 4320, Control_c, 4, 64, 127
5, 5700, Control_c, 4, 64, 0
5, 5760, Control_c, 4, 64, 127
5, 7140, Control_c, 4, 64, 0
5, 18240, Note_on_c, 4, 72, 57
5, 18600, Note_on_c, 4, 72, 0
5, 18600, Note_on_c, 4, 70, 56
5, 18720, Note_on_c, 4, 70, 0
5, 18720, Note_on_c, 4, 69, 56
5, 18960, Note_on_c, 4, 69, 0
5, 19200, Note_on_c, 4, 69, 54
5, 19440, Note_on_c, 4, 69, 0
5, 19680, Note_on_c, 4, 69, 53
5, 20040, Note_on_c, 4, 69, 0
5, 20040, Note_on_c, 4, 67, 52
5, 20160, Note_on_c, 4, 67, 0
5, 20160, Note_on_c, 4, 65, 52
5, 20400, Note_on_c, 4, 65, 0
5, 20640, Note_on_c, 4, 65, 50
5, 20880, Note_on_c, 4, 65, 0
5, 21120, Note_on_c, 4, 65, 49
5, 21600, Note_on_c, 4, 65, 0
5, 21600, Note_on_c, 4, 67, 47
5, 21840, Note_on_c, 4, 67, 0
5, 22080, Note_on_c, 4, 67, 46
5, 22320, Note_on_c, 4, 67, 0
5, 22560, Note_on_c, 4, 67, 45
5, 22800, Note_on_c, 4, 67, 0
5, 23040, Note_on_c, 4, 67, 43
5, 23520, Note_on_c, 4, 67, 0
5, 23520, Note_on_c, 4, 69, 38
5, 23820, Note_on_c, 4, 69, 0
5, 24000, Note_on_c, 4, 72, 55
5, 24360, Note_on_c, 4, 72, 0
5, 24360, Note_on_c, 4, 70, 55
5, 24480, Note_on_c, 4, 70, 0
5, 24480, Note_on_c, 4, 69, 54
5, 24720, Note_on_c, 4, 69, 0
5, 24960, Note_on_c, 4, 69, 54
5, 25200, Note_on_c, 4, 69, 0
5, 25440, Note_on_c, 4, 69, 53
5, 25800, Note_on_c, 4, 69, 0
5, 25800, Note_on_c, 4, 67, 52
5, 25920, Note_on_c, 4, 67, 0
5, 25920, Note_on_c, 4, 65, 53
5, 26160, Note_on_c, 4, 65, 0
5, 26400, Note_on_c, 4, 65, 52
5, 26640, Note_on_c, 4, 65, 0
5, 26880, Note_on_c, 4, 65, 50
5, 27120, Note_on_c, 4, 65, 0
5, 27360, Note_on_c, 4, 67, 49
5, 27745, Note_on_c, 4, 67, 0
5, 28320, Note_on_c, 4, 70, 49
5, 28320, Note_on_c, 4, 67, 49
5, 28800, Note_on_c, 4, 67, 0
5, 28800, Note_on_c, 4, 70, 0
5, 28800, Note_on_c, 4, 69, 47
5, 29185, Note_on_c, 4, 69, 0
5, 29760, Note_on_c, 4, 64, 45
5, 29760, Note_on_c, 4, 70, 45
5, 30240, Note_on_c, 4, 70, 0
5, 30240, Note_on_c, 4, 64, 0
5, 30240, Note_on_c, 4, 69, 43
5, 30625, Note_on_c, 4, 69, 0
5, 31200, Note_on_c, 4, 52, 39
5, 31200, Note_on_c, 4, 58, 39
5, 31680, Note_on_c, 4, 58, 0
5, 31680, Note_on_c, 4, 52, 0
5, 31680, Note_on_c, 4, 57, 37
5, 32065, Note_on_c, 4, 57, 0
5, 36000, Note_on_c, 4, 52, 89
5, 36385, Note_on_c, 4, 52, 0
5, 36480, Note_on_c, 4, 55, 86
5, 36480, Note_on_c, 4, 58, 86
5, 36480, Note_on_c, 4, 61, 86
5, 36960, Note_on_c, 4, 61, 0
5, 36960, Note_on_c, 4, 58, 0
5, 36960, Note_on_c, 4, 55, 0
5, 37440, Note_on_c, 4, 52, 94
5, 37825, Note_on_c, 4, 52, 0
5, 37920, Note_on_c, 4, 55, 85
5, 37920, Note_on_c, 4, 58, 85
5, 37920, Note_on_c, 4, 61, 85
5, 38305, Note_on_c, 4, 61, 0
5, 38305, Note_on_c, 4, 58, 0
5, 38305, Note_on_c, 4, 55, 0
5, 42240, Note_on_c, 4, 53, 81
5, 42240, Note_on_c, 4, 56, 81
5, 42240, Note_on_c, 4, 59, 81
5, 42625, Note_on_c, 4, 59, 0
5, 42625, Note_on_c, 4, 56, 0
5, 42625, Note_on_c, 4, 53, 0
5, 43680, Note_on_c, 4, 53, 80
5, 43680, Note_on_c, 4, 59, 80
5, 43680, Note_on_c, 4, 56, 80
5, 44065, Note_on_c, 4, 56, 0
5, 44065, Note_on_c, 4, 59, 0
5, 44065, Note_on_c, 4, 53, 0
5, 56100, Control_c, 4, 64, 0
5, 59040, Control_c, 4, 64, 127
5, 59100, Note_on_c, 4, 55, 44
5, 59145, Note_on_c, 4, 55, 0
5, 59160, Note_on_c, 4, 60, 44
5, 59220, Note_on_c, 4, 60, 0
5, 59520, Control_c, 4, 64, 0
5, 60480, Control_c, 4, 64, 127
5, 60540, Note_on_c, 4, 62, 51
5, 60585, Note_on_c, 4, 62, 0
5, 60600, Note_on_c, 4, 65, 51
5, 60660, Note_on_c, 4, 65, 0
5, 60960, Control_c, 4, 64, 0
5, 65280, Note_on_c, 4, 60, 44
5, 65280, Note_on_c, 4, 65, 44
5, 65665, Note_on_c, 4, 65, 0
5, 65665, Note_on_c, 4, 60, 0
5, 66720, Note_on_c, 4, 67, 51
5, 66720, Note_on_c, 4, 62, 51
5, 67105, Note_on_c, 4, 62, 0
5, 67105, Note_on_c, 4, 67, 0
5, 68160, Note_on_c, 4, 60, 57
5, 68640, Note_on_c, 4, 60, 0
5, 68640, Note_on_c, 4, 62, 59
5, 69025, Note_on_c, 4, 62, 0
5, 69120, Note_on_c, 4, 59, 61
5, 69505, Note_on_c, 4, 59, 0
5, 70560, Control_c, 4, 64, 127
5, 70980, Control_c, 4, 64, 0
5, 71040, Control_c, 4, 64, 127
5, 71460, Control_c, 4, 64, 0
5, 71520, Control_c, 4, 64, 127
5, 71940, Control_c, 4, 64, 0
5, 72000, Control_c, 4, 64, 127
5, 72420, Control_c, 4, 64, 0
5, 72480, Control_c, 4, 64, 127
5, 72900, Control_c, 4, 64, 0
5, 72960, Control_c, 4, 64, 127
5, 73380, Control_c, 4, 64, 0
5, 73440, Note_on_c, 4, 64, 51
5, 73825, Note_on_c, 4, 64, 0
5, 76320, Control_c, 4, 64, 127
5, 77220, Control_c, 4, 64, 0
5, 77280, Control_c, 4, 64, 127
5, 77700, Control_c, 4, 64, 0
5, 77760, Control_c, 4, 64, 127
5, 78660, Control_c, 4, 64, 0
5, 78720, Control_c, 4, 64, 127
5, 79140, Control_c, 4, 64, 0
5, 79680, Note_on_c, 4, 62, 62
5, 80065, Note_on_c, 4, 62, 0
5, 80160, Note_on_c, 4, 65, 53
5, 80545, Note_on_c, 4, 65, 0
5, 80640, Note_on_c, 4, 64, 55
5, 81025, Note_on_c, 4, 64, 0
5, 81120, Note_on_c, 4, 64, 50
5, 81505, Note_on_c, 4, 64, 0
5, 110880, Note_on_c, 4, 65, 61
5, 111190, Note_on_c, 4, 65, 0
5, 111360, Note_on_c, 4, 65, 59
5, 111670, Note_on_c, 4, 65, 0
5, 111840, Note_on_c, 4, 65, 61
5, 112150, Note_on_c, 4, 65, 0
5, 112320, Note_on_c, 4, 65, 63
5, 113280, Note_on_c, 4, 65, 0
5, 113280, Note_on_c, 4, 64, 55
5, 113590, Note_on_c, 4, 64, 0
5, 113760, Note_on_c, 4, 62, 53
5, 114070, Note_on_c, 4, 62, 0
5, 114240, Note_on_c, 4, 62, 54
5, 114550, Note_on_c, 4, 62, 0
5, 114720, Note_on_c, 4, 62, 54
5, 115030, Note_on_c, 4, 62, 0
5, 115200, Note_on_c, 4, 62, 54
5, 116160, Note_on_c, 4, 62, 0
5, 116160, Note_on_c, 4, 60, 46
5, 116470, Note_on_c, 4, 60, 0
5, 123840, Control_c, 4, 64, 127
5, 124260, Control_c, 4, 64, 0
5, 124320, Control_c, 4, 64, 127
5, 124740, Control_c, 4, 64, 0
5, 124800, Control_c, 4, 64, 127
5, 125220, Control_c, 4, 64, 0
5, 125280, Control_c, 4, 64, 127
5, 125700, Control_c, 4, 64, 0
5, 125760, Control_c, 4, 64, 127
5, 126180, Control_c, 4, 64, 0
5, 126240, Control_c, 4, 64, 127
5, 126660, Control_c, 4, 64, 0
5, 126720, Control_c, 4, 64, 127
5, 127140, Control_c, 4, 64, 0
5, 127200, Control_c, 4, 64, 127
5, 127620, Control_c, 4, 64, 0
5, 127680, Control_c, 4, 64, 127
5, 128100, Control_c, 4, 64, 0
5, 128160, Control_c, 4, 64, 127
5, 128580, Control_c, 4, 64, 0
5, 128640, Control_c, 4, 64, 127
5, 129060, Control_c, 4, 64, 0
5, 129120, Control_c, 4, 64, 127
5, 129540, Control_c, 4, 64, 0
5, 129600, Note_on_c, 4, 52, 70
5, 129600, Note_on_c, 4, 55, 70
5, 129985, Note_on_c, 4, 55, 0
5, 129985, Note_on_c, 4, 52, 0
5, 135360, Control_c, 4, 64, 0
5, 141120, Note_on_c, 4, 62, 53
5, 141120, Note_on_c, 4, 57, 53
5, 141505, Note_on_c, 4, 57, 0
5, 141505, Note_on_c, 4, 62, 0
5, 142560, Note_on_c, 4, 62, 63
5, 142560, Note_on_c, 4, 57, 63
5, 142945, Note_on_c, 4, 57, 0
5, 142945, Note_on_c, 4, 62, 0
5, 144000, Note_on_c, 4, 62, 69
5, 144000, Note_on_c, 4, 65, 69
5, 145355, Note_on_c, 4, 65, 0
5, 145355, Note_on_c, 4, 62, 0
5, 145440, Note_on_c, 4, 64, 52
5, 145825, Note_on_c, 4, 64, 0
5, 148320, Note_on_c, 4, 55, 60
5, 149675, Note_on_c, 4, 55, 0
5, 150240, Note_on_c, 4, 55, 51
5, 151095, Note_on_c, 4, 55, 0
5, 151200, Note_on_c, 4, 55, 66
5, 152555, Note_on_c, 4, 55, 0
5, 152640, Note_on_c, 4, 45, 54
5, 152640, Note_on_c, 4, 50, 54
5, 153025, Note_on_c, 4, 50, 0
5, 153025, Note_on_c, 4, 45, 0
5, 154080, Note_on_c, 4, 45, 68
5, 154080, Note_on_c, 4, 50, 68
5, 154465, Note_on_c, 4, 50, 0
5, 154465, Note_on_c, 4, 45, 0
5, 155520, Note_on_c, 4, 50, 72
5, 155520, Note_on_c, 4, 53, 72
5, 155905, Note_on_c, 4, 53, 0
5, 155905, Note_on_c, 4, 50, 0
5, 156960, Note_on_c, 4, 52, 61
5, 156960, Note_on_c, 4, 60, 61
5, 157200, Note_on_c, 4, 60, 0
5, 157345, Note_on_c, 4, 52, 0
5, 188640, Note_on_c, 4, 67, 54
5, 188880, Note_on_c, 4, 67, 0
5, 188880, Note_on_c, 4, 66, 51
5, 189120, Note_on_c, 4, 66, 0
5, 189120, Note_on_c, 4, 67, 49
5, 189360, Note_on_c, 4, 67, 0
5, 189360, Note_on_c, 4, 66, 46
5, 189600, Note_on_c, 4, 66, 0
5, 189600, Note_on_c, 4, 67, 44
5, 189840, Note_on_c, 4, 67, 0
5, 189840, Note_on_c, 4, 66, 41
5, 190080, Note_on_c, 4, 66, 0
5, 190080, Note_on_c, 4, 67, 39
5, 190465, Note_on_c, 4, 67, 0
5, 191520, Control_c, 4, 64, 127
5, 192900, Control_c, 4, 64, 0
5, 192960, Control_c, 4, 64, 127
5, 194340, Control_c, 4, 64, 0
5, 194400, Control_c, 4, 64, 127
5, 195780, Control_c, 4, 64, 0
5, 195840, Control_c, 4, 64, 127
5, 197220, Control_c, 4, 64, 0
5, 208320, Note_on_c, 4, 72, 57
5, 208680, Note_on_c, 4, 72, 0
5, 208680, Note_on_c, 4, 70, 56
5, 208800, Note_on_c, 4, 70, 0
5, 208800, Note_on_c, 4, 69, 56
5, 209040, Note_on_c, 4, 69, 0
5, 209280, Note_on_c, 4, 69, 54
5, 209520, Note_on_c, 4, 69, 0
5, 209760, Note_on_c, 4, 69, 53
5, 210120, Note_on_c, 4, 69, 0
5, 210120, Note_on_c, 4, 67, 52
5, 210240, Note_on_c, 4, 67, 0
5, 210240, Note_on_c, 4, 65, 52
5, 210480, Note_on_c, 4, 65, 0
5, 210720, Note_on_c, 4, 65, 50
5, 210960, Note_on_c, 4, 65, 0
5, 211200, Note_on_c, 4, 65, 49
5, 211680, Note_on_c, 4, 65, 0
5, 211680, Note_on_c, 4, 67, 47
5, 211920, Note_on_c, 4, 67, 0
5, 212160, Note_on_c, 4, 67, 46
5, 212400, Note_on_c, 4, 67, 0
5, 212640, Note_on_c, 4, 67, 45
5, 212880, Note_on_c, 4, 67, 0
5, 213120, Note_on_c, 4, 67, 43
5, 213600, Note_on_c, 4, 67, 0
5, 213600, Note_on_c, 4, 69, 38
5, 213900, Note_on_c, 4, 69, 0
5, 214080, Note_on_c, 4, 72, 55
5, 214440, Note_on_c, 4, 72, 0
5, 214440, Note_on_c, 4, 70, 55
5, 214560, Note_on_c, 4, 70, 0
5, 214560, Note_on_c, 4, 69, 54
5, 214800, Note_on_c, 4, 69, 0
5, 215040, Note_on_c, 4, 69, 54
5, 215280, Note_on_c, 4, 69, 0
5, 215520, Note_on_c, 4, 69, 53
5, 215880, Note_on_c, 4, 69, 0
5, 215880, Note_on_c, 4, 67, 52
5, 216000, Note_on_c, 4, 67, 0
5, 216000, Note_on_c, 4, 65, 53
5, 216240, Note_on_c, 4, 65, 0
5, 216480, Note_on_c, 4, 65, 52
5, 216720, Note_on_c, 4, 65, 0
5, 216960, Note_on_c, 4, 65, 50
5, 217200, Note_on_c, 4, 65, 0
5, 217440, Note_on_c, 4, 67, 49
5, 217825, Note_on_c, 4, 67, 0
5, 218400, Note_on_c, 4, 67, 49
5, 218400, Note_on_c, 4, 70, 49
5, 218880, Note_on_c, 4, 70, 0
5, 218880, Note_on_c, 4, 67, 0
5, 218880, Note_on_c, 4, 69, 47
5, 219265, Note_on_c, 4, 69, 0
5, 219840, Note_on_c, 4, 70, 45
5, 219840, Note_on_c, 4, 64, 45
5, 220320, Note_on_c, 4, 64, 0
5, 220320, Note_on_c, 4, 70, 0
5, 220320, Note_on_c, 4, 69, 43
5, 220705, Note_on_c, 4, 69, 0
5, 221280, Note_on_c, 4, 58, 39
5, 221280, Note_on_c, 4, 52, 39
5, 221760, Note_on_c, 4, 52, 0
5, 221760, Note_on_c, 4, 58, 0
5, 221760, Note_on_c, 4, 57, 37
5, 222145, Note_on_c, 4, 57, 0
5, 226080, Note_on_c, 4, 52, 89
5, 226465, Note_on_c, 4, 52, 0
5, 226560, Note_on_c, 4, 61, 86
5, 226560, Note_on_c, 4, 58, 86
5, 226560, Note_on_c, 4, 55, 86
5, 227040, Note_on_c, 4, 55, 0
5, 227040, Note_on_c, 4, 58, 0
5, 227040, Note_on_c, 4, 61, 0
5, 227520, Note_on_c, 4, 52, 94
5, 227905, Note_on_c, 4, 52, 0
5, 228000, Note_on_c, 4, 61, 85
5, 228000, Note_on_c, 4, 58, 85
5, 228000, Note_on_c, 4, 55, 85
5, 228385, Note_on_c, 4, 55, 0
5, 228385, Note_on_c, 4, 58, 0
5, 228385, Note_on_c, 4, 61, 0
5, 232320, Note_on_c, 4, 59, 81
5, 232320, Note_on_c, 4, 56, 81
5, 232320, Note_on_c, 4, 53, 81
5, 232705, Note_on_c, 4, 53, 0
5, 232705, Note_on_c, 4, 56, 0
5, 232705, Note_on_c, 4, 59, 0
5, 233760, Note_on_c, 4, 56, 80
5, 233760, Note_on_c, 4, 59, 80
5, 233760, Note_on_c, 4, 53, 80
5, 234145, Note_on_c, 4, 53, 0
5, 234145, Note_on_c, 4, 59, 0
5, 234145, Note_on_c, 4, 56, 0
5, 238080, Note_on_c, 4, 51, 78
5, 238080, Note_on_c, 4, 60, 78
5, 238080, Note_on_c, 4, 57, 78
5, 238080, Note_on_c, 4, 54, 78
5, 238465, Note_on_c, 4, 54, 0
5, 238465, Note_on_c, 4, 51, 0
5, 238465, Note_on_c, 4, 60, 0
5, 238465, Note_on_c, 4, 57, 0
5, 239520, Note_on_c, 4, 51, 77
5, 239520, Note_on_c, 4, 54, 77
5, 239520, Note_on_c, 4, 57, 77
5, 239520, Note_on_c, 4, 60, 77
5, 239905, Note_on_c, 4, 60, 0
5, 239905, Note_on_c, 4, 51, 0
5, 239905, Note_on_c, 4, 54, 0
5, 239905, Note_on_c, 4, 57, 0
5, 251940, Control_c, 4, 64, 0
5, 254880, Control_c, 4, 64, 127
5, 254920, Note_on_c, 4, 48, 40
5, 254960, Note_on_c, 4, 48, 0
5, 254960, Note_on_c, 4, 53, 41
5, 255000, Note_on_c, 4, 53, 0
5, 255360, Control_c, 4, 64, 0
5, 256320, Control_c, 4, 64, 127
5, 256360, Note_on_c, 4, 55, 49
5, 256400, Note_on_c, 4, 55, 0
5, 256400, Note_on_c, 4, 58, 49
5, 256440, Note_on_c, 4, 58, 0
5, 256800, Control_c, 4, 64, 0
5, 261120, Note_on_c, 4, 58, 42
5, 261505, Note_on_c, 4, 58, 0
5, 262560, Note_on_c, 4, 60, 49
5, 262945, Note_on_c, 4, 60, 0
5, 264000, Note_on_c, 4, 53, 57
5, 264480, Note_on_c, 4, 53, 0
5, 264480, Note_on_c, 4, 53, 59
5, 264960, Note_on_c, 4, 53, 0
5, 264960, Note_on_c, 4, 52, 63
5, 265345, Note_on_c, 4, 52, 0
5, 266400, Control_c, 4, 64, 127
5, 266820, Control_c, 4, 64, 0
5, 266880, Control_c, 4, 64, 127
5, 267300, Control_c, 4, 64, 0
5, 267360, Control_c, 4, 64, 127
5, 267780, Control_c, 4, 64, 0
5, 267840, Control_c, 4, 64, 127
5, 268260, Control_c, 4, 64, 0
5, 268320, Control_c, 4, 64, 127
5, 268740, Control_c, 4, 64, 0
5, 268800, Control_c, 4, 64, 127
5, 269220, Control_c, 4, 64, 0
5, 269280, Note_on_c, 4, 57, 68
5, 269665, Note_on_c, 4, 57, 0
5, 272160, Control_c, 4, 64, 127
5, 273060, Control_c, 4, 64, 0
5, 273120, Control_c, 4, 64, 127
5, 273540, Control_c, 4, 64, 0
5, 273600, Control_c, 4, 64, 127
5, 274500, Control_c, 4, 64, 0
5, 274560, Control_c, 4, 64, 127
5, 274980, Control_c, 4, 64, 0
5, 306720, Note_on_c, 4, 70, 55
5, 307030, Note_on_c, 4, 70, 0
5, 307200, Note_on_c, 4, 70, 55
5, 307510, Note_on_c, 4, 70, 0
5, 307680, Note_on_c, 4, 70, 56
5, 307990, Note_on_c, 4, 70, 0
5, 308160, Note_on_c, 4, 70, 57
5, 309120, Note_on_c, 4, 70, 0
5, 309120, Note_on_c, 4, 69, 51
5, 309505, Note_on_c, 4, 69, 0
5, 309600, Note_on_c, 4, 67, 50
5, 309910, Note_on_c, 4, 67, 0
5, 310080, Note_on_c, 4, 67, 51
5, 310390, Note_on_c, 4, 67, 0
5, 310560, Note_on_c, 4, 67, 52
5, 310870, Note_on_c, 4, 67, 0
5, 311040, Note_on_c, 4, 67, 53
5, 312000, Note_on_c, 4, 67, 0
5, 312000, Note_on_c, 4, 65, 46
5, 312385, Note_on_c, 4, 65, 0
5, 319680, Control_c, 4, 64, 127
5, 320100, Control_c, 4, 64, 0
5, 320160, Control_c, 4, 64, 127
5, 320580, Control_c, 4, 64, 0
5, 320640, Control_c, 4, 64, 127
5, 321060, Control_c, 4, 64, 0
5, 321120, Control_c, 4, 64, 127
5, 321540, Control_c, 4, 64, 0
5, 321600, Control_c, 4, 64, 127
5, 322020, Control_c, 4, 64, 0
5, 322080, Control_c, 4, 64, 127
5, 322500, Control_c, 4, 64, 0
5, 322560, Control_c, 4, 64, 127
5, 322980, Control_c, 4, 64, 0
5, 323040, Control_c, 4, 64, 127
5, 323460, Control_c, 4, 64, 0
5, 323520, Control_c, 4, 64, 127
5, 323940, Control_c, 4, 64, 0
5, 324000, Control_c, 4, 64, 127
5, 324420, Control_c, 4, 64, 0
5, 324480, Control_c, 4, 64, 127
5, 324900, Control_c, 4, 64, 0
5, 324960, Control_c, 4, 64, 127
5, 325380, Control_c, 4, 64, 0
5, 325440, Note_on_c, 4, 48, 82
5, 325440, Note_on_c, 4, 45, 82
5, 325825, Note_on_c, 4, 45, 0
5, 325825, Note_on_c, 4, 48, 0
5, 331200, Control_c, 4, 64, 127
5, 332100, Control_c, 4, 64, 0
5, 332160, Control_c, 4, 64, 127
5, 333060, Control_c, 4, 64, 0
5, 333120, Control_c, 4, 64, 127
5, 334020, Control_c, 4, 64, 0
5, 334080, Control_c, 4, 64, 127
5, 334980, Control_c, 4, 64, 0
5, 335040, Control_c, 4, 64, 127
5, 335940, Control_c, 4, 64, 0
5, 336000, Control_c, 4, 64, 127
5, 336900, Control_c, 4, 64, 0
5, 336960, Control_c, 4, 64, 127
5, 337860, Control_c, 4, 64, 0
5, 337920, Control_c, 4, 64, 127
5, 338820, Control_c, 4, 64, 0
5, 338880, Control_c, 4, 64, 127
5, 339300, Control_c, 4, 64, 0
5, 339360, Control_c, 4, 64, 127
5, 339360, Note_on_c, 4, 51, 50
5, 339600, Note_on_c, 4, 51, 0
5, 339780, Control_c, 4, 64, 0
5, 339840, Control_c, 4, 64, 127
5, 340260, Control_c, 4, 64, 0
5, 340320, Control_c, 4, 64, 127
5, 340320, Note_on_c, 4, 51, 42
5, 340560, Note_on_c, 4, 51, 0
5, 340740, Control_c, 4, 64, 0
5, 340800, Control_c, 4, 64, 127
5, 341220, Control_c, 4, 64, 0
5, 341280, Control_c, 4, 64, 127
5, 341280, Note_on_c, 4, 50, 45
5, 341520, Note_on_c, 4, 50, 0
5, 341700, Control_c, 4, 64, 0
5, 341760, Control_c, 4, 64, 127
5, 342180, Control_c, 4, 64, 0
5, 342240, Control_c, 4, 64, 127
5, 342240, Note_on_c, 4, 50, 39
5, 342480, Note_on_c, 4, 50, 0
5, 342660, Control_c, 4, 64, 0
5, 342720, Control_c, 4, 64, 127
5, 343620, Control_c, 4, 64, 0
5, 343680, Control_c, 4, 64, 127
5, 344580, Control_c, 4, 64, 0
5, 344640, Control_c, 4, 64, 127
5, 345540, Control_c, 4, 64, 0
5, 346500, Control_c, 4, 64, 0
5, 346560, Control_c, 4, 64, 127
5, 347460, Control_c, 4, 64, 0
5, 347520, Control_c, 4, 64, 127
5, 348420, Control_c, 4, 64, 0
5, 348480, Control_c, 4, 64, 127
5, 349380, Control_c, 4, 64, 0
5, 349440, Control_c, 4, 64, 127
5, 350340, Control_c, 4, 64, 0
5, 350400, Control_c, 4, 64, 127
5, 351300, Control_c, 4, 64, 0
5, 351360, Control_c, 4, 64, 127
5, 352260, Control_c, 4, 64, 0
5, 352320, Control_c, 4, 64, 127
5, 353220, Control_c, 4, 64, 0
5, 353280, Control_c, 4, 64, 127
5, 354180, Control_c, 4, 64, 0
5, 354240, Control_c, 4, 64, 127
5, 355140, Control_c, 4, 64, 0
5, 355200, Control_c, 4, 64, 127
5, 356100, Control_c, 4, 64, 0
5, 356160, Control_c, 4, 64, 127
5, 357060, Control_c, 4, 64, 0
5, 357120, Control_c, 4, 64, 127
5, 358020, Control_c, 4, 64, 0
5, 358080, Control_c, 4, 64, 127
5, 358980, Control_c, 4, 64, 0
5, 359040, Control_c, 4, 64, 127
5, 359940, Control_c, 4, 64, 0
5, 360000, Note_on_c, 4, 57, 47
5, 360240, Note_on_c, 4, 57, 0
5, 360960, Note_on_c, 4, 57, 43
5, 361200, Note_on_c, 4, 57, 0
5, 361440, Note_on_c, 4, 58, 44
5, 361680, Note_on_c, 4, 58, 0
5, 361920, Note_on_c, 4, 55, 44
5, 362160, Note_on_c, 4, 55, 0
5, 362880, Note_on_c, 4, 52, 46
5, 363120, Note_on_c, 4, 52, 0
5, 363360, Note_on_c, 4, 58, 47
5, 363600, Note_on_c, 4, 58, 0
5, 363840, Note_on_c, 4, 57, 47
5, 364080, Note_on_c, 4, 57, 0
5, 364800, Note_on_c, 4, 57, 49
5, 365040, Note_on_c, 4, 57, 0
5, 365280, Note_on_c, 4, 58, 50
5, 365520, Note_on_c, 4, 58, 0
5, 365760, Note_on_c, 4, 55, 50
5, 366000, Note_on_c, 4, 55, 0
5, 366720, Note_on_c, 4, 52, 52
5, 366960, Note_on_c, 4, 52, 0
5, 367200, Note_on_c, 4, 58, 52
5, 367440, Note_on_c, 4, 58, 0
5, 367680, Note_on_c, 4, 57, 53
5, 368160, Note_on_c, 4, 57, 0
5, 371520, Note_on_c, 4, 60, 50
5, 371520, Note_on_c, 4, 57, 50
5, 371520, Note_on_c, 4, 54, 50
5, 372480, Note_on_c, 4, 54, 0
5, 372480, Note_on_c, 4, 57, 0
5, 372480, Note_on_c, 4, 60, 0
5, 372480, Note_on_c, 4, 58, 39
5, 372960, Note_on_c, 4, 64, 42
5, 372965, Note_on_c, 4, 58, 0
5, 373440, Note_on_c, 4, 64, 0
5, 373440, Note_on_c, 4, 65, 49
5, 373825, Note_on_c, 4, 65, 0
5, 374400, Note_on_c, 4, 57, 40
5, 374880, Note_on_c, 4, 57, 0
5, 374880, Note_on_c, 4, 58, 35
5, 375265, Note_on_c, 4, 58, 0
5, 375360, Note_on_c, 4, 57, 36
5, 375600, Note_on_c, 4, 57, 0
5, 376320, Note_on_c, 4, 57, 37
5, 376560, Note_on_c, 4, 57, 0
5, 376800, Note_on_c, 4, 58, 38
5, 377040, Note_on_c, 4, 58, 0
5, 377280, Note_on_c, 4, 55, 39
5, 377520, Note_on_c, 4, 55, 0
5, 378240, Note_on_c, 4, 52, 40
5, 378480, Note_on_c, 4, 52, 0
5, 378720, Note_on_c, 4, 58, 41
5, 378960, Note_on_c, 4, 58, 0
5, 379200, Note_on_c, 4, 57, 42
5, 379440, Note_on_c, 4, 57, 0
5, 380160, Note_on_c, 4, 57, 43
5, 380400, Note_on_c, 4, 57, 0
5, 380640, Note_on_c, 4, 58, 44
5, 380880, Note_on_c, 4, 58, 0
5, 381120, Note_on_c, 4, 55, 44
5, 381360, Note_on_c, 4, 55, 0
5, 382080, Note_on_c, 4, 52, 46
5, 382320, Note_on_c, 4, 52, 0
5, 382560, Note_on_c, 4, 58, 47
5, 382800, Note_on_c, 4, 58, 0
5, 383040, Note_on_c, 4, 57, 47
5, 383425, Note_on_c, 4, 57, 0
5, 386880, Note_on_c, 4, 60, 43
5, 386880, Note_on_c, 4, 54, 43
5, 386880, Note_on_c, 4, 57, 43
5, 387840, Note_on_c, 4, 57, 0
5, 387840, Note_on_c, 4, 54, 0
5, 387840, Note_on_c, 4, 60, 0
5, 387840, Note_on_c, 4, 58, 34
5, 388320, Note_on_c, 4, 58, 0
5, 388320, Note_on_c, 4, 64, 38
5, 388800, Note_on_c, 4, 64, 0
5, 388800, Note_on_c, 4, 65, 43
5, 389185, Note_on_c, 4, 65, 0
5, 389280, Note_on_c, 4, 62, 40
5, 389665, Note_on_c, 4, 62, 0
5, 389760, Note_on_c, 4, 57, 36
5, 390240, Note_on_c, 4, 57, 0
5, 390240, Note_on_c, 4, 55, 31
5, 390625, Note_on_c, 4, 55, 0
5, 390960, Control_c, 4, 64, 127
5, 391200, Note_on_c, 4, 57, 52
5, 391440, Note_on_c, 4, 57, 0
5, 391440, Note_on_c, 4, 62, 53
5, 391620, Control_c, 4, 64, 0
5, 391650, Note_on_c, 4, 62, 0
5, 391920, Control_c, 4, 64, 127
5, 392160, Note_on_c, 4, 58, 57
5, 392400, Note_on_c, 4, 58, 0
5, 392400, Note_on_c, 4, 64, 59
5, 392580, Control_c, 4, 64, 0
5, 392615, Note_on_c, 4, 64, 0
5, 392880, Control_c, 4, 64, 127
5, 393120, Note_on_c, 4, 60, 63
5, 393300, Control_c, 4, 64, 0
5, 393360, Note_on_c, 4, 60, 0
5, 393360, Note_on_c, 4, 65, 64
5, 394080, Note_on_c, 4, 63, 63
5, 394560, Note_on_c, 4, 63, 0
5, 394560, Note_on_c, 4, 62, 61
5, 394945, Note_on_c, 4, 62, 0
5, 394950, Note_on_c, 4, 65, 0
5, 395520, Note_on_c, 4, 67, 55
5, 395520, Note_on_c, 4, 62, 55
5, 395905, Note_on_c, 4, 62, 0
5, 395905, Note_on_c, 4, 67, 0
5, 396480, Control_c, 4, 64, 127
5, 397380, Control_c, 4, 64, 0
5, 397440, Control_c, 4, 64, 127
5, 398340, Control_c, 4, 64, 0
5, 398400, Control_c, 4, 64, 127
5, 399300, Control_c, 4, 64, 0
5, 399360, Control_c, 4, 64, 127
5, 400260, Control_c, 4, 64, 0
5, 400560, Note_on_c, 4, 60, 45
5, 400800, Note_on_c, 4, 60, 0
5, 400800, Note_on_c, 4, 65, 47
5, 401040, Note_on_c, 4, 65, 0
5, 401040, Note_on_c, 4, 63, 50
5, 401280, Note_on_c, 4, 63, 0
5, 401280, Note_on_c, 4, 62, 54
5, 401760, Note_on_c, 4, 62, 0
5, 401760, Note_on_c, 4, 58, 49
5, 402145, Note_on_c, 4, 58, 0
5, 402240, Note_on_c, 4, 57, 45
5, 402480, Note_on_c, 4, 57, 0
5, 402480, Note_on_c, 4, 60, 42
5, 402720, Note_on_c, 4, 60, 0
5, 402720, Note_on_c, 4, 65, 43
5, 402960, Note_on_c, 4, 65, 0
5, 402960, Note_on_c, 4, 63, 47
5, 403200, Note_on_c, 4, 63, 0
5, 403200, Note_on_c, 4, 62, 52
5, 403680, Note_on_c, 4, 62, 0
5, 403680, Note_on_c, 4, 58, 49
5, 404065, Note_on_c, 4, 58, 0
5, 404160, Note_on_c, 4, 57, 46
5, 404400, Note_on_c, 4, 57, 0
5, 404400, Note_on_c, 4, 58, 46
5, 404400, Note_on_c, 4, 55, 46
5, 404640, Note_on_c, 4, 55, 0
5, 404640, Note_on_c, 4, 58, 0
5, 404640, Note_on_c, 4, 57, 45
5, 404640, Note_on_c, 4, 60, 45
5, 404880, Note_on_c, 4, 60, 0
5, 404880, Note_on_c, 4, 57, 0
5, 404880, Note_on_c, 4, 62, 44
5, 404880, Note_on_c, 4, 58, 44
5, 405120, Note_on_c, 4, 58, 0
5, 405120, Note_on_c, 4, 62, 0
5, 405120, Note_on_c, 4, 63, 43
5, 405120, Note_on_c, 4, 60, 43
5, 405360, Note_on_c, 4, 60, 0
5, 405360, Note_on_c, 4, 63, 0
5, 405360, Note_on_c, 4, 62, 42
5, 405360, Note_on_c, 4, 59, 42
5, 405600, Note_on_c, 4, 59, 0
5, 405600, Note_on_c, 4, 62, 0
5, 405600, Note_on_c, 4, 63, 41
5, 405600, Note_on_c, 4, 60, 41
5, 405840, Note_on_c, 4, 60, 0
5, 405840, Note_on_c, 4, 63, 0
5, 405840, Note_on_c, 4, 62, 39
5, 405840, Note_on_c, 4, 59, 39
5, 406080, Note_on_c, 4, 59, 0
5, 406080, Note_on_c, 4, 62, 0
5, 406080, Note_on_c, 4, 63, 38
5, 406080, Note_on_c, 4, 60, 38
5, 406800, Note_on_c, 4, 60, 0
5, 406800, Note_on_c, 4, 63, 0
5, 408000, Control_c, 4, 64, 127
5, 408900, Control_c, 4, 64, 0
5, 408960, Control_c, 4, 64, 127
5, 409860, Control_c, 4, 64, 0
5, 409920, Control_c, 4, 64, 127
5, 410820, Control_c, 4, 64, 0
5, 410880, Control_c, 4, 64, 127
5, 411780, Control_c, 4, 64, 0
5, 411840, Control_c, 4, 64, 127
5, 412740, Control_c, 4, 64, 0
5, 412800, Control_c, 4, 64, 127
5, 413700, Control_c, 4, 64, 0
5, 413760, Control_c, 4, 64, 127
5, 414660, Control_c, 4, 64, 0
5, 414720, Control_c, 4, 64, 127
5, 415620, Control_c, 4, 64, 0
5, 415680, Control_c, 4, 64, 127
5, 416100, Control_c, 4, 64, 0
5, 416160, Control_c, 4, 64, 127
5, 416160, Note_on_c, 4, 51, 49
5, 416400, Note_on_c, 4, 51, 0
5, 416580, Control_c, 4, 64, 0
5, 416640, Control_c, 4, 64, 127
5, 417060, Control_c, 4, 64, 0
5, 417120, Control_c, 4, 64, 127
5, 417120, Note_on_c, 4, 51, 43
5, 417360, Note_on_c, 4, 51, 0
5, 417540, Control_c, 4, 64, 0
5, 417600, Control_c, 4, 64, 127
5, 418020, Control_c, 4, 64, 0
5, 418080, Control_c, 4, 64, 127
5, 418080, Note_on_c, 4, 50, 46
5, 418320, Note_on_c, 4, 50, 0
5, 418500, Control_c, 4, 64, 0
5, 418560, Control_c, 4, 64, 127
5, 418740, Control_c, 4, 64, 0
5, 418800, Control_c, 4, 64, 127
5, 419040, Note_on_c, 4, 50, 40
5, 419280, Note_on_c, 4, 50, 0
5, 419460, Control_c, 4, 64, 0
5, 419520, Control_c, 4, 64, 127
5, 420420, Control_c, 4, 64, 0
5, 420480, Control_c, 4, 64, 127
5, 421380, Control_c, 4, 64, 0
5, 421440, Control_c, 4, 64, 127
5, 422340, Control_c, 4, 64, 0
5, 423360, Control_c, 4, 64, 127
5, 424260, Control_c, 4, 64, 0
5, 424320, Control_c, 4, 64, 127
5, 425220, Control_c, 4, 64, 0
5, 425280, Control_c, 4, 64, 127
5, 426180, Control_c, 4, 64, 0
5, 426240, Control_c, 4, 64, 127
5, 427140, Control_c, 4, 64, 0
5, 427200, Control_c, 4, 64, 127
5, 428100, Control_c, 4, 64, 0
5, 428160, Control_c, 4, 64, 127
5, 429060, Control_c, 4, 64, 0
5, 429120, Control_c, 4, 64, 127
5, 430020, Control_c, 4, 64, 0
5, 430080, Control_c, 4, 64, 127
5, 430980, Control_c, 4, 64, 0
5, 431040, Control_c, 4, 64, 127
5, 431940, Control_c, 4, 64, 0
5, 432000, Control_c, 4, 64, 127
5, 432900, Control_c, 4, 64, 0
5, 432960, Control_c, 4, 64, 127
5, 433860, Control_c, 4, 64, 0
5, 433920, Control_c, 4, 64, 127
5, 434820, Control_c, 4, 64, 0
5, 434880, Control_c, 4, 64, 127
5, 435780, Control_c, 4, 64, 0
5, 435840, Control_c, 4, 64, 127
5, 436740, Control_c, 4, 64, 0
5, 436800, Note_on_c, 4, 57, 38
5, 437040, Note_on_c, 4, 57, 0
5, 437760, Note_on_c, 4, 62, 40
5, 438240, Note_on_c, 4, 62, 0
5, 438720, Note_on_c, 4, 60, 41
5, 438960, Note_on_c, 4, 60, 0
5, 439680, Note_on_c, 4, 57, 43
5, 439920, Note_on_c, 4, 57, 0
5, 440640, Note_on_c, 4, 62, 45
5, 440880, Note_on_c, 4, 62, 0
5, 441600, Note_on_c, 4, 62, 47
5, 441840, Note_on_c, 4, 62, 0
5, 442560, Note_on_c, 4, 60, 49
5, 442800, Note_on_c, 4, 60, 0
5, 443520, Note_on_c, 4, 57, 51
5, 443760, Note_on_c, 4, 57, 0
5, 444480, Note_on_c, 4, 62, 55
5, 444865, Note_on_c, 4, 62, 0
5, 445440, Note_on_c, 4, 74, 61
5, 445680, Note_on_c, 4, 74, 0
5, 445680, Note_on_c, 4, 72, 55
5, 445920, Note_on_c, 4, 72, 0
5, 445920, Note_on_c, 4, 70, 52
5, 446160, Note_on_c, 4, 70, 0
5, 446160, Note_on_c, 4, 69, 48
5, 446350, Note_on_c, 4, 69, 0
5, 446400, Note_on_c, 4, 70, 55
5, 446640, Note_on_c, 4, 70, 0
5, 446640, Note_on_c, 4, 69, 52
5, 446880, Note_on_c, 4, 69, 0
5, 446880, Note_on_c, 4, 67, 49
5, 447120, Note_on_c, 4, 67, 0
5, 447120, Note_on_c, 4, 66, 47
5, 447310, Note_on_c, 4, 66, 0
5, 447360, Note_on_c, 4, 67, 53
5, 447600, Note_on_c, 4, 67, 0
5, 447600, Note_on_c, 4, 65, 48
5, 447840, Note_on_c, 4, 65, 0
5, 447840, Note_on_c, 4, 63, 45
5, 448080, Note_on_c, 4, 63, 0
5, 448080, Note_on_c, 4, 62, 42
5, 448270, Note_on_c, 4, 62, 0
5, 448320, Note_on_c, 4, 65, 47
5, 448320, Note_on_c, 4, 62, 47
5, 448320, Note_on_c, 4, 59, 47
5, 449280, Note_on_c, 4, 59, 0
5, 449280, Note_on_c, 4, 62, 0
5, 449280, Note_on_c, 4, 65, 0
5, 449280, Note_on_c, 4, 63, 37
5, 449760, Note_on_c, 4, 63, 0
5, 449760, Note_on_c, 4, 69, 42
5, 450240, Note_on_c, 4, 69, 0
5, 450240, Note_on_c, 4, 70, 49
5, 450625, Note_on_c, 4, 70, 0
5, 450720, Note_on_c, 4, 67, 43
5, 451105, Note_on_c, 4, 67, 0
5, 451200, Note_on_c, 4, 62, 38
5, 451680, Note_on_c, 4, 62, 0
5, 451680, Note_on_c, 4, 63, 32
5, 452065, Note_on_c, 4, 63, 0
5, 452160, Note_on_c, 4, 57, 36
5, 452400, Note_on_c, 4, 57, 0
5, 453120, Note_on_c, 4, 62, 38
5, 453600, Note_on_c, 4, 62, 0
5, 453600, Note_on_c, 4, 63, 39
5, 453960, Note_on_c, 4, 63, 0
5, 454080, Note_on_c, 4, 60, 40
5, 454320, Note_on_c, 4, 60, 0
5, 455040, Note_on_c, 4, 57, 42
5, 455280, Note_on_c, 4, 57, 0
5, 456000, Note_on_c, 4, 62, 44
5, 456240, Note_on_c, 4, 62, 0
5, 456960, Note_on_c, 4, 62, 46
5, 457200, Note_on_c, 4, 62, 0
5, 457920, Note_on_c, 4, 60, 47
5, 458160, Note_on_c, 4, 60, 0
5, 458880, Note_on_c, 4, 57, 49
5, 459120, Note_on_c, 4, 57, 0
5, 459840, Note_on_c, 4, 62, 51
5, 460225, Note_on_c, 4, 62, 0
5, 460800, Note_on_c, 4, 74, 59
5, 461040, Note_on_c, 4, 74, 0
5, 461040, Note_on_c, 4, 72, 57
5, 461280, Note_on_c, 4, 72, 0
5, 461280, Note_on_c, 4, 70, 53
5, 461520, Note_on_c, 4, 70, 0
5, 461520, Note_on_c, 4, 69, 50
5, 461760, Note_on_c, 4, 69, 0
5, 461760, Note_on_c, 4, 70, 53
5, 462000, Note_on_c, 4, 70, 0
5, 462000, Note_on_c, 4, 69, 49
5, 462240, Note_on_c, 4, 69, 0
5, 462240, Note_on_c, 4, 67, 47
5, 462480, Note_on_c, 4, 67, 0
5, 462480, Note_on_c, 4, 66, 44
5, 462670, Note_on_c, 4, 66, 0
5, 462720, Note_on_c, 4, 67, 46
5, 462960, Note_on_c, 4, 67, 0
5, 462960, Note_on_c, 4, 65, 44
5, 463200, Note_on_c, 4, 65, 0
5, 463200, Note_on_c, 4, 63, 41
5, 463440, Note_on_c, 4, 63, 0
5, 463440, Note_on_c, 4, 62, 39
5, 463630, Note_on_c, 4, 62, 0
5, 463680, Note_on_c, 4, 65, 46
5, 463680, Note_on_c, 4, 62, 46
5, 463680, Note_on_c, 4, 59, 46
5, 464640, Note_on_c, 4, 59, 0
5, 464640, Note_on_c, 4, 62, 0
5, 464640, Note_on_c, 4, 65, 0
5, 464640, Note_on_c, 4, 63, 40
5, 465120, Note_on_c, 4, 63, 0
5, 465120, Note_on_c, 4, 69, 45
5, 465600, Note_on_c, 4, 69, 0
5, 465600, Note_on_c, 4, 70, 51
5, 465985, Note_on_c, 4, 70, 0
5, 466080, Note_on_c, 4, 67, 46
5, 466465, Note_on_c, 4, 67, 0
5, 466560, Note_on_c, 4, 62, 41
5, 467040, Note_on_c, 4, 62, 0
5, 467040, Note_on_c, 4, 60, 37
5, 467425, Note_on_c, 4, 60, 0
5, 467760, Control_c, 4, 64, 127
5, 468000, Note_on_c, 4, 50, 68
5, 468240, Note_on_c, 4, 55, 69
5, 468245, Note_on_c, 4, 50, 0
5, 468420, Control_c, 4, 64, 0
5, 468425, Note_on_c, 4, 55, 0
5, 468720, Control_c, 4, 64, 127
5, 468960, Note_on_c, 4, 51, 71
5, 469200, Note_on_c, 4, 57, 72
5, 469205, Note_on_c, 4, 51, 0
5, 469380, Control_c, 4, 64, 0
5, 469410, Note_on_c, 4, 57, 0
5, 469680, Control_c, 4, 64, 127
5, 469920, Note_on_c, 4, 53, 75
5, 470160, Note_on_c, 4, 58, 75
5, 470165, Note_on_c, 4, 53, 0
5, 470340, Control_c, 4, 64, 0
5, 470880, Note_on_c, 4, 56, 70
5, 471360, Note_on_c, 4, 56, 0
5, 471360, Note_on_c, 4, 55, 68
5, 471745, Note_on_c, 4, 55, 0
5, 471750, Note_on_c, 4, 58, 0
5, 472320, Note_on_c, 4, 55, 62
5, 472320, Note_on_c, 4, 60, 62
5, 472705, Note_on_c, 4, 60, 0
5, 472705, Note_on_c, 4, 55, 0
5, 473280, Control_c, 4, 64, 127
5, 474180, Control_c, 4, 64, 0
5, 474240, Control_c, 4, 64, 127
5, 475140, Control_c, 4, 64, 0
5, 475200, Control_c, 4, 64, 127
5, 476100, Control_c, 4, 64, 0
5, 476160, Control_c, 4, 64, 127
5, 477060, Control_c, 4, 64, 0
5, 477360, Note_on_c, 4, 62, 50
5, 477600, Note_on_c, 4, 62, 0
5, 477600, Note_on_c, 4, 65, 46
5, 477840, Note_on_c, 4, 65, 0
5, 477840, Note_on_c, 4, 68, 50
5, 478080, Note_on_c, 4, 68, 0
5, 478080, Note_on_c, 4, 67, 55
5, 478560, Note_on_c, 4, 67, 0
5, 478560, Note_on_c, 4, 63, 51
5, 478980, Note_on_c, 4, 63, 0
5, 479040, Note_on_c, 4, 62, 46
5, 479280, Note_on_c, 4, 62, 0
5, 479280, Note_on_c, 4, 65, 44
5, 479520, Note_on_c, 4, 65, 0
5, 479520, Note_on_c, 4, 68, 42
5, 479760, Note_on_c, 4, 68, 0
5, 479760, Note_on_c, 4, 66, 45
5, 480000, Note_on_c, 4, 66, 0
5, 480000, Note_on_c, 4, 67, 52
5, 480480, Note_on_c, 4, 67, 0
5, 480480, Note_on_c, 4, 63, 48
5, 480900, Note_on_c, 4, 63, 0
5, 481200, Note_on_c, 4, 62, 44
5, 481200, Note_on_c, 4, 65, 44
5, 481440, Note_on_c, 4, 65, 0
5, 481440, Note_on_c, 4, 62, 0
5, 481440, Note_on_c, 4, 63, 49
5, 481440, Note_on_c, 4, 67, 49
5, 481680, Note_on_c, 4, 67, 0
5, 481680, Note_on_c, 4, 63, 0
5, 481680, Note_on_c, 4, 60, 45
5, 481680, Note_on_c, 4, 63, 45
5, 481920, Note_on_c, 4, 63, 0
5, 481920, Note_on_c, 4, 60, 0
5, 481920, Note_on_c, 4, 62, 42
5, 482160, Note_on_c, 4, 62, 0
5, 482160, Note_on_c, 4, 62, 38
5, 482160, Note_on_c, 4, 65, 38
5, 482400, Note_on_c, 4, 65, 0
5, 482400, Note_on_c, 4, 62, 0
5, 482400, Note_on_c, 4, 67, 45
5, 482400, Note_on_c, 4, 63, 45
5, 482640, Note_on_c, 4, 63, 0
5, 482640, Note_on_c, 4, 67, 0
5, 482640, Note_on_c, 4, 60, 41
5, 482640, Note_on_c, 4, 63, 41
5, 482830, Note_on_c, 4, 63, 0
5, 482830, Note_on_c, 4, 60, 0
5, 482880, Note_on_c, 4, 63, 40
5, 482880, Note_on_c, 4, 65, 40
5, 482880, Note_on_c, 4, 60, 40
5, 483840, Note_on_c, 4, 60, 0
5, 483840, Note_on_c, 4, 65, 0
5, 483840, Note_on_c, 4, 63, 0
5, 483840, Note_on_c, 4, 62, 30
5, 483840, Note_on_c, 4, 65, 30
5, 483840, Note_on_c, 4, 53, 30
5, 483840, Note_on_c, 4, 50, 30
5, 484320, Note_on_c, 4, 50, 0
5, 484320, Note_on_c, 4, 62, 0
5, 484320, Note_on_c, 4, 65, 0
5, 484320, Note_on_c, 4, 53, 0
5, 484800, Control_c, 4, 64, 0
5, 484800, Note_on_c, 4, 48, 85
5, 484800, Note_on_c, 4, 45, 85
5, 485520, Note_on_c, 4, 45, 0
5, 485520, Note_on_c, 4, 48, 0
5, 493440, Note_on_c, 4, 45, 81
5, 493440, Note_on_c, 4, 48, 81
5, 494160, Note_on_c, 4, 48, 0
5, 494160, Note_on_c, 4, 45, 0
5, 502920, Note_on_c, 4, 58, 70
5, 503040, Note_on_c, 4, 58, 0
5, 503520, Note_on_c, 4, 55, 86
5, 503520, Note_on_c, 4, 58, 86
5, 504240, Note_on_c, 4, 58, 0
5, 504240, Note_on_c, 4, 55, 0
5, 504240, Note_on_c, 4, 57, 65
5, 504430, Note_on_c, 4, 57, 0
5, 515040, Note_on_c, 4, 53, 56
5, 515230, Note_on_c, 4, 53, 0
5, 516000, Note_on_c, 4, 55, 85
5, 516155, Note_on_c, 4, 55, 0
5, 516720, Note_on_c, 4, 57, 90
5, 516875, Note_on_c, 4, 57, 0
5, 517440, Note_on_c, 4, 58, 95
5, 517595, Note_on_c, 4, 58, 0
5, 518640, Note_on_c, 4, 67, 90
5, 518640, Note_on_c, 4, 64, 90
5, 518640, Note_on_c, 4, 60, 90
5, 519360, Note_on_c, 4, 60, 0
5, 519360, Note_on_c, 4, 64, 0
5, 519360, Note_on_c, 4, 67, 0
5, 519360, Note_on_c, 4, 60, 78
5, 519360, Note_on_c, 4, 65, 78
5, 519600, Note_on_c, 4, 65, 0
5, 519600, Note_on_c, 4, 60, 0
5, 523200, Note_on_c, 4, 55, 78
5, 523355, Note_on_c, 4, 55, 0
5, 523920, Note_on_c, 4, 57, 83
5, 524075, Note_on_c, 4, 57, 0
5, 524640, Note_on_c, 4, 58, 88
5, 524795, Note_on_c, 4, 58, 0
5, 525840, Note_on_c, 4, 60, 82
5, 525840, Note_on_c, 4, 64, 82
5, 525840, Note_on_c, 4, 67, 82
5, 526560, Note_on_c, 4, 67, 0
5, 526560, Note_on_c, 4, 64, 0
5, 526560, Note_on_c, 4, 60, 0
5, 526560, Note_on_c, 4, 65, 71
5, 526560, Note_on_c, 4, 60, 71
5, 526800, Note_on_c, 4, 60, 0
5, 526800, Note_on_c, 4, 65, 0
5, 527280, Note_on_c, 4, 62, 61
5, 527280, Note_on_c, 4, 65, 61
5, 527520, Note_on_c, 4, 65, 0
5, 527520, Note_on_c, 4, 62, 0
5, 528000, Note_on_c, 4, 57, 50
5, 528720, Note_on_c, 4, 57, 0
5, 528720, Note_on_c, 4, 58, 40
5, 528720, Note_on_c, 4, 64, 40
5, 529380, Note_on_c, 4, 64, 0
5, 529380, Note_on_c, 4, 58, 0
5, 529680, Note_on_c, 4, 57, 55
5, 529920, Note_on_c, 4, 57, 0
5, 529920, Note_on_c, 4, 60, 58
5, 530160, Note_on_c, 4, 60, 0
5, 530400, Note_on_c, 4, 55, 57
5, 530640, Note_on_c, 4, 55, 0
5, 530640, Note_on_c, 4, 58, 52
5, 530830, Note_on_c, 4, 58, 0
5, 531120, Note_on_c, 4, 57, 50
5, 531120, Note_on_c, 4, 60, 50
5, 531360, Note_on_c, 4, 60, 0
5, 531360, Note_on_c, 4, 57, 0
5, 531360, Note_on_c, 4, 60, 53
5, 531600, Note_on_c, 4, 60, 0
5, 531840, Note_on_c, 4, 55, 50
5, 532080, Note_on_c, 4, 55, 0
5, 532080, Note_on_c, 4, 58, 45
5, 532260, Note_on_c, 4, 58, 0
5, 532560, Note_on_c, 4, 57, 43
5, 532800, Note_on_c, 4, 57, 0
5, 532800, Note_on_c, 4, 60, 47
5, 533040, Note_on_c, 4, 60, 0
5, 533280, Note_on_c, 4, 57, 38
5, 533520, Note_on_c, 4, 57, 0
5, 533520, Note_on_c, 4, 60, 42
5, 533710, Note_on_c, 4, 60, 0
5, 544560, Note_on_c, 4, 67, 84
5, 545135, Note_on_c, 4, 67, 0
5, 545280, Note_on_c, 4, 67, 79
5, 545930, Note_on_c, 4, 67, 0
5, 546000, Note_on_c, 4, 65, 72
5, 546000, Note_on_c, 4, 67, 72
5, 546575, Note_on_c, 4, 67, 0
5, 546575, Note_on_c, 4, 65, 0
5, 576960, Note_on_c, 4, 64, 78
5, 577345, Note_on_c, 4, 64, 0
5, 588480, Note_on_c, 4, 67, 41
5, 588480, Note_on_c, 4, 64, 41
5, 589200, Note_on_c, 4, 64, 0
5, 589200, Note_on_c, 4, 67, 0
5, 589200, Note_on_c, 4, 65, 32
5, 589800, Note_on_c, 4, 65, 0
5, 589920, Note_on_c, 4, 64, 72
5, 590305, Note_on_c, 4, 64, 0
5, 601440, Note_on_c, 4, 67, 33
5, 601440, Note_on_c, 4, 64, 33
5, 602160, Note_on_c, 4, 64, 0
5, 602160, Note_on_c, 4, 62, 26
5, 602760, Note_on_c, 4, 67, 0
5, 602765, Note_on_c, 4, 62, 0
5, 605760, Note_on_c, 4, 64, 81
5, 606240, Note_on_c, 4, 64, 0
5, 606480, Note_on_c, 4, 65, 80
5, 606480, Note_on_c, 4, 59, 80
5, 606960, Note_on_c, 4, 59, 0
5, 606960, Note_on_c, 4, 65, 0
5, 607200, Note_on_c, 4, 64, 78
5, 607680, Note_on_c, 4, 64, 0
5, 607920, Note_on_c, 4, 59, 76
5, 607920, Note_on_c, 4, 65, 76
5, 608400, Note_on_c, 4, 59, 0
5, 608407, Note_on_c, 4, 65, 0
5, 608640, Note_on_c, 4, 52, 74
5, 609120, Note_on_c, 4, 52, 0
5, 609360, Note_on_c, 4, 47, 72
5, 609360, Note_on_c, 4, 53, 72
5, 609840, Note_on_c, 4, 47, 0
5, 609847, Note_on_c, 4, 53, 0
5, 612240, Note_on_c, 4, 55, 89
5, 612240, Note_on_c, 4, 60, 89
5, 612240, Note_on_c, 4, 52, 89
5, 612625, Note_on_c, 4, 52, 0
5, 612625, Note_on_c, 4, 60, 0
5, 612625, Note_on_c, 4, 55, 0
5, 612960, Note_on_c, 4, 55, 92
5, 612960, Note_on_c, 4, 52, 92
5, 612960, Note_on_c, 4, 60, 92
5, 613345, Note_on_c, 4, 60, 0
5, 613345, Note_on_c, 4, 52, 0
5, 613345, Note_on_c, 4, 55, 0
5, 614400, Note_on_c, 4, 43, 93
5, 614400, Note_on_c, 4, 39, 93
5, 615120, Note_on_c, 4, 39, 0
5, 615120, Note_on_c, 4, 43, 0
5, 662040, Note_on_c, 4, 55, 89
5, 662160, Note_on_c, 4, 55, 0
5, 662160, Note_on_c, 4, 58, 88
5, 662280, Note_on_c, 4, 58, 0
5, 662760, Note_on_c, 4, 57, 84
5, 662880, Note_on_c, 4, 57, 0
5, 662880, Note_on_c, 4, 60, 84
5, 663000, Note_on_c, 4, 60, 0
5, 663480, Note_on_c, 4, 58, 80
5, 663600, Note_on_c, 4, 58, 0
5, 663600, Note_on_c, 4, 62, 80
5, 663720, Note_on_c, 4, 62, 0
5, 664200, Note_on_c, 4, 55, 76
5, 664320, Note_on_c, 4, 55, 0
5, 664320, Note_on_c, 4, 60, 76
5, 664440, Note_on_c, 4, 60, 0
5, 664920, Note_on_c, 4, 50, 72
5, 665040, Note_on_c, 4, 50, 0
5, 665040, Note_on_c, 4, 53, 71
5, 665160, Note_on_c, 4, 53, 0
5, 665640, Note_on_c, 4, 48, 68
5, 665760, Note_on_c, 4, 48, 0
5, 665760, Note_on_c, 4, 53, 67
5, 665880, Note_on_c, 4, 53, 0
5, 667200, Note_on_c, 4, 38, 67
5, 667440, Note_on_c, 4, 38, 0
5, 667440, Note_on_c, 4, 41, 67
5, 667680, Note_on_c, 4, 41, 0
5, 667680, Note_on_c, 4, 46, 66
5, 669065, Note_on_c, 4, 46, 0
5, 669120, Note_on_c, 4, 48, 62
5, 669120, Note_on_c, 4, 51, 62
5, 670560, Note_on_c, 4, 51, 0
5, 670560, Note_on_c, 4, 48, 0
5, 670560, Note_on_c, 4, 48, 58
5, 670560, Note_on_c, 4, 54, 58
5, 671945, Note_on_c, 4, 54, 0
5, 671945, Note_on_c, 4, 48, 0
5, 672000, Note_on_c, 4, 50, 54
5, 672000, Note_on_c, 4, 55, 54
5, 674820, Note_on_c, 4, 55, 0
5, 674825, Note_on_c, 4, 50, 0
5, 674880, Note_on_c, 4, 61, 45
5, 675265, Note_on_c, 4, 61, 0
5, 675600, Note_on_c, 4, 61, 43
5, 675985, Note_on_c, 4, 61, 0
5, 676320, Note_on_c, 4, 60, 41
5, 676705, Note_on_c, 4, 60, 0
5, 677040, Note_on_c, 4, 60, 39
5, 677425, Note_on_c, 4, 60, 0
5, 680880, Note_on_c, 4, 64, 48
5, 681120, Note_on_c, 4, 64, 0
5, 681120, Note_on_c, 4, 65, 52
5, 681360, Note_on_c, 4, 65, 0
5, 681360, Note_on_c, 4, 68, 44
5, 681600, Note_on_c, 4, 68, 0
5, 681600, Note_on_c, 4, 64, 45
5, 681840, Note_on_c, 4, 64, 0
5, 681840, Note_on_c, 4, 65, 47
5, 682080, Note_on_c, 4, 65, 0
5, 682080, Note_on_c, 4, 68, 48
5, 682320, Note_on_c, 4, 68, 0
5, 682320, Note_on_c, 4, 64, 44
5, 682560, Note_on_c, 4, 64, 0
5, 682560, Note_on_c, 4, 65, 43
5, 682800, Note_on_c, 4, 65, 0
5, 682800, Note_on_c, 4, 68, 47
5, 683040, Note_on_c, 4, 68, 0
5, 683040, Note_on_c, 4, 67, 44
5, 683280, Note_on_c, 4, 67, 0
5, 683280, Note_on_c, 4, 65, 40
5, 683470, Note_on_c, 4, 65, 0
5, 683520, Note_on_c, 4, 60, 63
5, 683905, Note_on_c, 4, 60, 0
5, 684240, Note_on_c, 4, 60, 69
5, 684625, Note_on_c, 4, 60, 0
5, 684960, Note_on_c, 4, 60, 75
5, 685345, Note_on_c, 4, 60, 0
5, 685680, Note_on_c, 4, 60, 81
5, 686065, Note_on_c, 4, 60, 0
5, 686400, Note_on_c, 4, 60, 87
5, 686785, Note_on_c, 4, 60, 0
5, 687120, Note_on_c, 4, 60, 93
5, 687505, Note_on_c, 4, 60, 0
5, 696480, Note_on_c, 4, 45, 85
5, 696480, Note_on_c, 4, 48, 85
5, 697200, Note_on_c, 4, 48, 0
5, 697200, Note_on_c, 4, 45, 0
5, 705120, Note_on_c, 4, 48, 81
5, 705120, Note_on_c, 4, 45, 81
5, 705840, Note_on_c, 4, 45, 0
5, 705840, Note_on_c, 4, 48, 0
5, 714600, Note_on_c, 4, 58, 73
5, 714720, Note_on_c, 4, 58, 0
5, 715200, Note_on_c, 4, 58, 82
5, 715200, Note_on_c, 4, 55, 82
5, 715920, Note_on_c, 4, 55, 0
5, 715920, Note_on_c, 4, 58, 0
5, 715920, Note_on_c, 4, 57, 61
5, 716110, Note_on_c, 4, 57, 0
5, 726720, Note_on_c, 4, 57, 56
5, 726720, Note_on_c, 4, 60, 56
5, 726910, Note_on_c, 4, 60, 0
5, 726910, Note_on_c, 4, 57, 0
5, 727440, Note_on_c, 4, 55, 92
5, 727440, Note_on_c, 4, 61, 92
5, 728015, Note_on_c, 4, 61, 0
5, 728015, Note_on_c, 4, 55, 0
5, 728160, Note_on_c, 4, 62, 99
5, 728765, Note_on_c, 4, 62, 0
5, 737520, Note_on_c, 4, 72, 83
5, 738095, Note_on_c, 4, 72, 0
5, 738240, Note_on_c, 4, 72, 80
5, 738840, Note_on_c, 4, 72, 0
5, 738960, Note_on_c, 4, 70, 77
5, 738960, Note_on_c, 4, 72, 77
5, 739535, Note_on_c, 4, 72, 0
5, 739535, Note_on_c, 4, 70, 0
5, 771360, Note_on_c, 4, 57, 60
5, 771745, Note_on_c, 4, 57, 0
5, 784320, Note_on_c, 4, 69, 43
5, 784860, Note_on_c, 4, 69, 0
5, 785040, Note_on_c, 4, 70, 39
5, 785705, Note_on_c, 4, 70, 0
5, 785760, Note_on_c, 4, 57, 56
5, 786145, Note_on_c, 4, 57, 0
5, 798720, Note_on_c, 4, 69, 41
5, 799440, Note_on_c, 4, 69, 0
5, 799440, Note_on_c, 4, 70, 37
5, 800060, Note_on_c, 4, 70, 0
5, 803040, Note_on_c, 4, 69, 85
5, 803425, Note_on_c, 4, 69, 0
5, 803760, Note_on_c, 4, 64, 82
5, 803760, Note_on_c, 4, 70, 82
5, 804145, Note_on_c, 4, 70, 0
5, 804145, Note_on_c, 4, 64, 0
5, 804480, Note_on_c, 4, 69, 78
5, 804865, Note_on_c, 4, 69, 0
5, 805200, Note_on_c, 4, 64, 75
5, 805200, Note_on_c, 4, 70, 75
5, 805582, Note_on_c, 4, 70, 0
5, 805585, Note_on_c, 4, 64, 0
5, 805920, Note_on_c, 4, 57, 71
5, 806300, Note_on_c, 4, 57, 0
5, 806640, Note_on_c, 4, 52, 68
5, 806640, Note_on_c, 4, 58, 68
5, 807022, Note_on_c, 4, 58, 0
5, 807025, Note_on_c, 4, 52, 0
5, 809520, Note_on_c, 4, 65, 85
5, 810000, Note_on_c, 4, 65, 0
5, 810240, Note_on_c, 4, 57, 91
5, 810720, Note_on_c, 4, 57, 0
5, 811680, Note_on_c, 4, 58, 74
5, 812160, Note_on_c, 4, 58, 0
5, 813120, Note_on_c, 4, 59, 64
5, 813600, Note_on_c, 4, 59, 0
5, 814560, Note_on_c, 4, 57, 51
5, 816000, Note_on_c, 4, 57, 0
5, 816000, Note_on_c, 4, 58, 45
5, 817380, Note_on_c, 4, 58, 0
5, 817440, Note_on_c, 4, 57, 39
5, 817680, Note_on_c, 4, 57, 0
5, 818400, Note_on_c, 4, 55, 85
5, 818555, Note_on_c, 4, 55, 0
5, 819120, Note_on_c, 4, 57, 89
5, 819275, Note_on_c, 4, 57, 0
5, 819840, Note_on_c, 4, 58, 93
5, 819995, Note_on_c, 4, 58, 0
5, 821040, Note_on_c, 4, 60, 81
5, 821040, Note_on_c, 4, 64, 81
5, 821040, Note_on_c, 4, 67, 81
5, 821760, Note_on_c, 4, 67, 0
5, 821760, Note_on_c, 4, 64, 0
5, 821760, Note_on_c, 4, 60, 0
5, 821760, Note_on_c, 4, 60, 71
5, 821760, Note_on_c, 4, 65, 71
5, 821950, Note_on_c, 4, 65, 0
5, 821950, Note_on_c, 4, 60, 0
5, 825600, Note_on_c, 4, 55, 73
5, 825755, Note_on_c, 4, 55, 0
5, 826320, Note_on_c, 4, 57, 77
5, 826475, Note_on_c, 4, 57, 0
5, 827040, Note_on_c, 4, 58, 81
5, 827195, Note_on_c, 4, 58, 0
5, 828240, Note_on_c, 4, 60, 74
5, 828240, Note_on_c, 4, 64, 74
5, 828240, Note_on_c, 4, 67, 74
5, 828905, Note_on_c, 4, 60, 0
5, 828920, Note_on_c, 4, 64, 0
5, 828930, Note_on_c, 4, 67, 0
5, 828960, Note_on_c, 4, 60, 66
5, 828960, Note_on_c, 4, 65, 66
5, 829200, Note_on_c, 4, 65, 0
5, 829200, Note_on_c, 4, 60, 0
5, 829680, Note_on_c, 4, 65, 59
5, 829680, Note_on_c, 4, 62, 59
5, 829920, Note_on_c, 4, 62, 0
5, 829920, Note_on_c, 4, 65, 0
5, 830400, Note_on_c, 4, 57, 52
5, 831120, Note_on_c, 4, 57, 0
5, 831120, Note_on_c, 4, 58, 45
5, 831800, Note_on_c, 4, 58, 0
5, 832080, Note_on_c, 4, 57, 45
5, 832320, Note_on_c, 4, 57, 0
5, 832320, Note_on_c, 4, 60, 48
5, 832560, Note_on_c, 4, 60, 0
5, 832800, Note_on_c, 4, 55, 49
5, 833040, Note_on_c, 4, 55, 0
5, 833040, Note_on_c, 4, 58, 45
5, 833225, Note_on_c, 4, 58, 0
5, 833520, Note_on_c, 4, 57, 42
5, 833760, Note_on_c, 4, 57, 0
5, 833760, Note_on_c, 4, 60, 44
5, 834000, Note_on_c, 4, 60, 0
5, 834240, Note_on_c, 4, 55, 42
5, 834480, Note_on_c, 4, 55, 0
5, 834480, Note_on_c, 4, 58, 37
5, 834665, Note_on_c, 4, 58, 0
5, 834960, Note_on_c, 4, 57, 38
5, 835200, Note_on_c, 4, 57, 0
5, 835200, Note_on_c, 4, 60, 42
5, 835440, Note_on_c, 4, 60, 0
5, 835680, Note_on_c, 4, 57, 34
5, 835920, Note_on_c, 4, 57, 0
5, 835920, Note_on_c, 4, 60, 39
5, 836100, Note_on_c, 4, 60, 0
5, 836160, Note_on_c, 4, 53, 33
5, 836160, Note_on_c, 4, 58, 33
5, 836880, Note_on_c, 4, 58, 0
5, 837135, Note_on_c, 4, 53, 0
5, 837135, End_track
6, 0, Start_track
6, 0, Title_t, "Unnamed Track"
6, 0, Control_c, 5, 0, 0
6, 0, Control_c, 5, 7, 125
6, 0, Control_c, 5, 10, 55
6, 0, Control_c, 5, 91, 100
6, 0, Control_c, 5, 93, 19
6, 0, Control_c, 5, 64, 0
6, 0, Control_c, 5, 64, 0
6, 0, Pitch_bend_c, 5, 8192
6, 0, Control_c, 5, 1, 0
6, 1, Control_c, 5, 32, 0
6, 1, Program_c, 5, 0
6, 1440, Control_c, 5, 64, 127
6, 1440, Note_on_c, 5, 53, 44
6, 1680, Note_on_c, 5, 53, 0
6, 2820, Control_c, 5, 64, 0
6, 2880, Control_c, 5, 64, 127
6, 2880, Note_on_c, 5, 53, 49
6, 3120, Note_on_c, 5, 53, 0
6, 4260, Control_c, 5, 64, 0
6, 4320, Control_c, 5, 64, 127
6, 4320, Note_on_c, 5, 53, 54
6, 4560, Note_on_c, 5, 53, 0
6, 5700, Control_c, 5, 64, 0
6, 5760, Control_c, 5, 64, 127
6, 5760, Note_on_c, 5, 53, 63
6, 6000, Note_on_c, 5, 53, 0
6, 7140, Control_c, 5, 64, 0
6, 7200, Note_on_c, 5, 53, 53
6, 7585, Note_on_c, 5, 53, 0
6, 10080, Note_on_c, 5, 53, 44
6, 10560, Note_on_c, 5, 53, 0
6, 10560, Note_on_c, 5, 45, 43
6, 11040, Note_on_c, 5, 45, 0
6, 11040, Note_on_c, 5, 50, 42
6, 11400, Note_on_c, 5, 50, 0
6, 11520, Note_on_c, 5, 43, 44
6, 12000, Note_on_c, 5, 43, 0
6, 12000, Note_on_c, 5, 48, 48
6, 12720, Note_on_c, 5, 48, 0
6, 12720, Note_on_c, 5, 45, 41
6, 12910, Note_on_c, 5, 45, 0
6, 12960, Note_on_c, 5, 41, 41
6, 13440, Note_on_c, 5, 41, 0
6, 13440, Note_on_c, 5, 50, 45
6, 13920, Note_on_c, 5, 50, 0
6, 13920, Note_on_c, 5, 46, 50
6, 14285, Note_on_c, 5, 46, 0
6, 14400, Note_on_c, 5, 45, 55
6, 14765, Note_on_c, 5, 45, 0
6, 15360, Note_on_c, 5, 50, 64
6, 15725, Note_on_c, 5, 50, 0
6, 15840, Note_on_c, 5, 46, 70
6, 16200, Note_on_c, 5, 46, 0
6, 16800, Note_on_c, 5, 48, 55
6, 17280, Note_on_c, 5, 48, 0
6, 17280, Note_on_c, 5, 41, 47
6, 17640, Note_on_c, 5, 41, 0
6, 18240, Note_on_c, 5, 69, 57
6, 18600, Note_on_c, 5, 69, 0
6, 18600, Note_on_c, 5, 67, 56
6, 18720, Note_on_c, 5, 67, 0
6, 18720, Note_on_c, 5, 65, 56
6, 18960, Note_on_c, 5, 65, 0
6, 19200, Note_on_c, 5, 65, 54
6, 19440, Note_on_c, 5, 65, 0
6, 19680, Note_on_c, 5, 65, 53
6, 20040, Note_on_c, 5, 65, 0
6, 20040, Note_on_c, 5, 60, 52
6, 20160, Note_on_c, 5, 60, 0
6, 20160, Note_on_c, 5, 57, 52
6, 20400, Note_on_c, 5, 57, 0
6, 20640, Note_on_c, 5, 57, 50
6, 20880, Note_on_c, 5, 57, 0
6, 21120, Note_on_c, 5, 57, 49
6, 21600, Note_on_c, 5, 57, 0
6, 21600, Note_on_c, 5, 60, 47
6, 21840, Note_on_c, 5, 60, 0
6, 22080, Note_on_c, 5, 60, 46
6, 22320, Note_on_c, 5, 60, 0
6, 22560, Note_on_c, 5, 60, 45
6, 22800, Note_on_c, 5, 60, 0
6, 23040, Note_on_c, 5, 60, 43
6, 23520, Note_on_c, 5, 60, 0
6, 23520, Note_on_c, 5, 65, 38
6, 23820, Note_on_c, 5, 65, 0
6, 24000, Note_on_c, 5, 69, 55
6, 24360, Note_on_c, 5, 69, 0
6, 24360, Note_on_c, 5, 67, 55
6, 24480, Note_on_c, 5, 67, 0
6, 24480, Note_on_c, 5, 65, 54
6, 24720, Note_on_c, 5, 65, 0
6, 24960, Note_on_c, 5, 65, 54
6, 25200, Note_on_c, 5, 65, 0
6, 25440, Note_on_c, 5, 65, 53
6, 25800, Note_on_c, 5, 65, 0
6, 25800, Note_on_c, 5, 60, 52
6, 25920, Note_on_c, 5, 60, 0
6, 25920, Note_on_c, 5, 57, 53
6, 26160, Note_on_c, 5, 57, 0
6, 26400, Note_on_c, 5, 57, 52
6, 26640, Note_on_c, 5, 57, 0
6, 26880, Note_on_c, 5, 57, 50
6, 27120, Note_on_c, 5, 57, 0
6, 27360, Note_on_c, 5, 60, 49
6, 27745, Note_on_c, 5, 60, 0
6, 28320, Note_on_c, 5, 60, 49
6, 28800, Note_on_c, 5, 60, 0
6, 28800, Note_on_c, 5, 65, 47
6, 29185, Note_on_c, 5, 65, 0
6, 29760, Note_on_c, 5, 60, 45
6, 30240, Note_on_c, 5, 60, 0
6, 30240, Note_on_c, 5, 65, 43
6, 30625, Note_on_c, 5, 65, 0
6, 31200, Note_on_c, 5, 48, 39
6, 31680, Note_on_c, 5, 48, 0
6, 31680, Note_on_c, 5, 53, 37
6, 32065, Note_on_c, 5, 53, 0
6, 32640, Note_on_c, 5, 37, 89
6, 32640, Note_on_c, 5, 49, 89
6, 33120, Note_on_c, 5, 49, 0
6, 33120, Note_on_c, 5, 37, 0
6, 33120, Note_on_c, 5, 38, 89
6, 33120, Note_on_c, 5, 50, 89
6, 34505, Note_on_c, 5, 50, 0
6, 34560, Note_on_c, 5, 50, 88
6, 35865, Note_on_c, 5, 38, 0
6, 35894, Note_on_c, 5, 50, 0
6, 36000, Note_on_c, 5, 40, 89
6, 36385, Note_on_c, 5, 40, 0
6, 36480, Note_on_c, 5, 52, 86
6, 36960, Note_on_c, 5, 52, 0
6, 37440, Note_on_c, 5, 40, 94
6, 37825, Note_on_c, 5, 40, 0
6, 37920, Note_on_c, 5, 52, 85
6, 38305, Note_on_c, 5, 52, 0
6, 38880, Note_on_c, 5, 53, 84
6, 40280, Note_on_c, 5, 53, 0
6, 40320, Note_on_c, 5, 53, 83
6, 41705, Note_on_c, 5, 53, 0
6, 41760, Note_on_c, 5, 50, 88
6, 41760, Note_on_c, 5, 38, 88
6, 42145, Note_on_c, 5, 38, 0
6, 42145, Note_on_c, 5, 50, 0
6, 42240, Note_on_c, 5, 50, 81
6, 42625, Note_on_c, 5, 50, 0
6, 43200, Note_on_c, 5, 38, 88
6, 43200, Note_on_c, 5, 50, 88
6, 43585, Note_on_c, 5, 50, 0
6, 43585, Note_on_c, 5, 38, 0
6, 43680, Note_on_c, 5, 50, 80
6, 44065, Note_on_c, 5, 50, 0
6, 44640, Note_on_c, 5, 51, 79
6, 46025, Note_on_c, 5, 51, 0
6, 46080, Note_on_c, 5, 51, 76
6, 47475, Note_on_c, 5, 51, 0
6, 47520, Note_on_c, 5, 48, 73
6, 48900, Note_on_c, 5, 48, 0
6, 48960, Note_on_c, 5, 48, 70
6, 50355, Note_on_c, 5, 48, 0
6, 50400, Note_on_c, 5, 44, 66
6, 51795, Note_on_c, 5, 44, 0
6, 51840, Note_on_c, 5, 44, 63
6, 53235, Note_on_c, 5, 44, 0
6, 53280, Note_on_c, 5, 43, 60
6, 54000, Note_on_c, 5, 43, 0
6, 54240, Note_on_c, 5, 48, 57
6, 54524, Note_on_c, 5, 48, 0
6, 54720, Note_on_c, 5, 43, 56
6, 55440, Note_on_c, 5, 43, 0
6, 55680, Note_on_c, 5, 48, 54
6, 55964, Note_on_c, 5, 48, 0
6, 56100, Control_c, 5, 64, 0
6, 56160, Note_on_c, 5, 55, 53
6, 56160, Note_on_c, 5, 43, 53
6, 56880, Note_on_c, 5, 43, 0
6, 56880, Note_on_c, 5, 55, 0
6, 56880, Note_on_c, 5, 56, 51
6, 57000, Note_on_c, 5, 56, 0
6, 57000, Note_on_c, 5, 55, 51
6, 57120, Note_on_c, 5, 55, 0
6, 57120, Note_on_c, 5, 53, 51
6, 57240, Note_on_c, 5, 53, 0
6, 57240, Note_on_c, 5, 51, 51
6, 57360, Note_on_c, 5, 51, 0
6, 57360, Note_on_c, 5, 50, 50
6, 57480, Note_on_c, 5, 50, 0
6, 57480, Note_on_c, 5, 48, 50
6, 57575, Note_on_c, 5, 48, 0
6, 57600, Note_on_c, 5, 55, 50
6, 57910, Note_on_c, 5, 55, 0
6, 58080, Note_on_c, 5, 43, 45
6, 58390, Note_on_c, 5, 43, 0
6, 59040, Control_c, 5, 64, 127
6, 59040, Note_on_c, 5, 48, 44
6, 59100, Note_on_c, 5, 48, 0
6, 59520, Control_c, 5, 64, 0
6, 60480, Control_c, 5, 64, 127
6, 60480, Note_on_c, 5, 55, 50
6, 60540, Note_on_c, 5, 55, 0
6, 60960, Control_c, 5, 64, 0
6, 61920, Note_on_c, 5, 48, 48
6, 62305, Note_on_c, 5, 48, 0
6, 62400, Note_on_c, 5, 52, 47
6, 62785, Note_on_c, 5, 52, 0
6, 62880, Note_on_c, 5, 55, 46
6, 63265, Note_on_c, 5, 55, 0
6, 63360, Note_on_c, 5, 60, 45
6, 63745, Note_on_c, 5, 60, 0
6, 63840, Note_on_c, 5, 48, 44
6, 64225, Note_on_c, 5, 48, 0
6, 64800, Note_on_c, 5, 57, 42
6, 65280, Note_on_c, 5, 57, 0
6, 66240, Note_on_c, 5, 59, 49
6, 66720, Note_on_c, 5, 59, 0
6, 67680, Note_on_c, 5, 60, 55
6, 68065, Note_on_c, 5, 60, 0
6, 68160, Note_on_c, 5, 57, 57
6, 68640, Note_on_c, 5, 57, 0
6, 68640, Note_on_c, 5, 53, 59
6, 69025, Note_on_c, 5, 53, 0
6, 69120, Note_on_c, 5, 55, 61
6, 69505, Note_on_c, 5, 55, 0
6, 70560, Control_c, 5, 64, 127
6, 70560, Note_on_c, 5, 60, 44
6, 70720, Note_on_c, 5, 60, 0
6, 70980, Control_c, 5, 64, 0
6, 71040, Control_c, 5, 64, 127
6, 71040, Note_on_c, 5, 60, 45
6, 71195, Note_on_c, 5, 60, 0
6, 71460, Control_c, 5, 64, 0
6, 71520, Control_c, 5, 64, 127
6, 71520, Note_on_c, 5, 60, 46
6, 71675, Note_on_c, 5, 60, 0
6, 71940, Control_c, 5, 64, 0
6, 72000, Control_c, 5, 64, 127
6, 72000, Note_on_c, 5, 59, 48
6, 72155, Note_on_c, 5, 59, 0
6, 72420, Control_c, 5, 64, 0
6, 72480, Control_c, 5, 64, 127
6, 72480, Note_on_c, 5, 59, 49
6, 72635, Note_on_c, 5, 59, 0
6, 72900, Control_c, 5, 64, 0
6, 72960, Control_c, 5, 64, 127
6, 72960, Note_on_c, 5, 59, 50
6, 73115, Note_on_c, 5, 59, 0
6, 73380, Control_c, 5, 64, 0
6, 73440, Note_on_c, 5, 60, 51
6, 73825, Note_on_c, 5, 60, 0
6, 73920, Note_on_c, 5, 52, 53
6, 74305, Note_on_c, 5, 52, 0
6, 74400, Note_on_c, 5, 55, 54
6, 74785, Note_on_c, 5, 55, 0
6, 74880, Note_on_c, 5, 60, 57
6, 75265, Note_on_c, 5, 60, 0
6, 75360, Note_on_c, 5, 55, 49
6, 75745, Note_on_c, 5, 55, 0
6, 75840, Note_on_c, 5, 48, 41
6, 76225, Note_on_c, 5, 48, 0
6, 76320, Control_c, 5, 64, 127
6, 76320, Note_on_c, 5, 57, 49
6, 76560, Note_on_c, 5, 57, 0
6, 77220, Control_c, 5, 64, 0
6, 77280, Control_c, 5, 64, 127
6, 77280, Note_on_c, 5, 57, 56
6, 77520, Note_on_c, 5, 57, 0
6, 77700, Control_c, 5, 64, 0
6, 77760, Control_c, 5, 64, 127
6, 77760, Note_on_c, 5, 59, 59
6, 78000, Note_on_c, 5, 59, 0
6, 78660, Control_c, 5, 64, 0
6, 78720, Control_c, 5, 64, 127
6, 78720, Note_on_c, 5, 59, 66
6, 78960, Note_on_c, 5, 59, 0
6, 79140, Control_c, 5, 64, 0
6, 79200, Note_on_c, 5, 60, 68
6, 79585, Note_on_c, 5, 60, 0
6, 79680, Note_on_c, 5, 53, 62
6, 80065, Note_on_c, 5, 53, 0
6, 80160, Note_on_c, 5, 55, 53
6, 80545, Note_on_c, 5, 55, 0
6, 80640, Note_on_c, 5, 60, 55
6, 81025, Note_on_c, 5, 60, 0
6, 81600, Note_on_c, 5, 60, 49
6, 81985, Note_on_c, 5, 60, 0
6, 82080, Note_on_c, 5, 62, 54
6, 82465, Note_on_c, 5, 62, 0
6, 82560, Note_on_c, 5, 59, 45
6, 82945, Note_on_c, 5, 59, 0
6, 83040, Note_on_c, 5, 55, 46
6, 83425, Note_on_c, 5, 55, 0
6, 83520, Note_on_c, 5, 48, 50
6, 83905, Note_on_c, 5, 48, 0
6, 84000, Note_on_c, 5, 51, 43
6, 84385, Note_on_c, 5, 51, 0
6, 84480, Note_on_c, 5, 48, 43
6, 84865, Note_on_c, 5, 48, 0
6, 84960, Note_on_c, 5, 50, 49
6, 85345, Note_on_c, 5, 50, 0
6, 85440, Note_on_c, 5, 47, 39
6, 85825, Note_on_c, 5, 47, 0
6, 85920, Note_on_c, 5, 43, 40
6, 86305, Note_on_c, 5, 43, 0
6, 86400, Note_on_c, 5, 36, 77
6, 86400, Note_on_c, 5, 48, 77
6, 86785, Note_on_c, 5, 48, 0
6, 86785, Note_on_c, 5, 36, 0
6, 86880, Note_on_c, 5, 51, 59
6, 87265, Note_on_c, 5, 51, 0
6, 87360, Note_on_c, 5, 55, 50
6, 87745, Note_on_c, 5, 55, 0
6, 87840, Note_on_c, 5, 41, 80
6, 87840, Note_on_c, 5, 53, 80
6, 88225, Note_on_c, 5, 53, 0
6, 88225, Note_on_c, 5, 41, 0
6, 88320, Note_on_c, 5, 56, 61
6, 88705, Note_on_c, 5, 56, 0
6, 88800, Note_on_c, 5, 60, 55
6, 89185, Note_on_c, 5, 60, 0
6, 89280, Note_on_c, 5, 46, 84
6, 89280, Note_on_c, 5, 34, 84
6, 89665, Note_on_c, 5, 34, 0
6, 89665, Note_on_c, 5, 46, 0
6, 89760, Note_on_c, 5, 50, 67
6, 90145, Note_on_c, 5, 50, 0
6, 90240, Note_on_c, 5, 53, 61
6, 90625, Note_on_c, 5, 53, 0
6, 90720, Note_on_c, 5, 51, 90
6, 90720, Note_on_c, 5, 39, 90
6, 91105, Note_on_c, 5, 39, 0
6, 91105, Note_on_c, 5, 51, 0
6, 91200, Note_on_c, 5, 55, 72
6, 91585, Note_on_c, 5, 55, 0
6, 91680, Note_on_c, 5, 58, 66
6, 92065, Note_on_c, 5, 58, 0
6, 92160, Note_on_c, 5, 44, 95
6, 92160, Note_on_c, 5, 32, 95
6, 92545, Note_on_c, 5, 32, 0
6, 92545, Note_on_c, 5, 44, 0
6, 92640, Note_on_c, 5, 56, 73
6, 93025, Note_on_c, 5, 56, 0
6, 93120, Note_on_c, 5, 50, 92
6, 93120, Note_on_c, 5, 38, 92
6, 93505, Note_on_c, 5, 38, 0
6, 93505, Note_on_c, 5, 50, 0
6, 93600, Note_on_c, 5, 62, 65
6, 93985, Note_on_c, 5, 62, 0
6, 94080, Note_on_c, 5, 43, 86
6, 94080, Note_on_c, 5, 31, 86
6, 94465, Note_on_c, 5, 31, 0
6, 94465, Note_on_c, 5, 43, 0
6, 94560, Note_on_c, 5, 55, 62
6, 95040, Note_on_c, 5, 55, 0
6, 95040, Note_on_c, 5, 56, 60
6, 95520, Note_on_c, 5, 56, 0
6, 95520, Note_on_c, 5, 55, 52
6, 96000, Note_on_c, 5, 55, 0
6, 96000, Note_on_c, 5, 54, 47
6, 96480, Note_on_c, 5, 54, 0
6, 96480, Note_on_c, 5, 55, 43
6, 96865, Note_on_c, 5, 55, 0
6, 97680, Note_on_c, 5, 54, 42
6, 97920, Note_on_c, 5, 54, 0
6, 97920, Note_on_c, 5, 55, 41
6, 98305, Note_on_c, 5, 55, 0
6, 99120, Note_on_c, 5, 54, 38
6, 99360, Note_on_c, 5, 54, 0
6, 99360, Note_on_c, 5, 55, 38
6, 99600, Note_on_c, 5, 55, 0
6, 99600, Note_on_c, 5, 54, 36
6, 99840, Note_on_c, 5, 54, 0
6, 99840, Note_on_c, 5, 55, 35
6, 100080, Note_on_c, 5, 55, 0
6, 100080, Note_on_c, 5, 54, 34
6, 100320, Note_on_c, 5, 54, 0
6, 100320, Note_on_c, 5, 55, 33
6, 100560, Note_on_c, 5, 55, 0
6, 100560, Note_on_c, 5, 54, 32
6, 100800, Note_on_c, 5, 54, 0
6, 100800, Note_on_c, 5, 55, 34
6, 101280, Note_on_c, 5, 55, 0
6, 102240, Note_on_c, 5, 53, 55
6, 102550, Note_on_c, 5, 53, 0
6, 102720, Note_on_c, 5, 53, 55
6, 103030, Note_on_c, 5, 53, 0
6, 103200, Note_on_c, 5, 53, 56
6, 103510, Note_on_c, 5, 53, 0
6, 103680, Note_on_c, 5, 53, 57
6, 104640, Note_on_c, 5, 53, 0
6, 104640, Note_on_c, 5, 48, 49
6, 104950, Note_on_c, 5, 48, 0
6, 105120, Note_on_c, 5, 43, 48
6, 105430, Note_on_c, 5, 43, 0
6, 105600, Note_on_c, 5, 43, 49
6, 105910, Note_on_c, 5, 43, 0
6, 106080, Note_on_c, 5, 43, 50
6, 106390, Note_on_c, 5, 43, 0
6, 106560, Note_on_c, 5, 43, 51
6, 107520, Note_on_c, 5, 43, 0
6, 107520, Note_on_c, 5, 45, 42
6, 107830, Note_on_c, 5, 45, 0
6, 108000, Note_on_c, 5, 41, 45
6, 108385, Note_on_c, 5, 41, 0
6, 108480, Note_on_c, 5, 43, 42
6, 108865, Note_on_c, 5, 43, 0
6, 108960, Note_on_c, 5, 43, 39
6, 109345, Note_on_c, 5, 43, 0
6, 109440, Note_on_c, 5, 48, 43
6, 109920, Note_on_c, 5, 48, 0
6, 110880, Note_on_c, 5, 60, 61
6, 111190, Note_on_c, 5, 60, 0
6, 111360, Note_on_c, 5, 60, 59
6, 111670, Note_on_c, 5, 60, 0
6, 111840, Note_on_c, 5, 60, 61
6, 112150, Note_on_c, 5, 60, 0
6, 112320, Note_on_c, 5, 60, 63
6, 113600, Note_on_c, 5, 60, 0
6, 113760, Note_on_c, 5, 55, 53
6, 114070, Note_on_c, 5, 55, 0
6, 114240, Note_on_c, 5, 55, 51
6, 114550, Note_on_c, 5, 55, 0
6, 114720, Note_on_c, 5, 55, 53
6, 115030, Note_on_c, 5, 55, 0
6, 115200, Note_on_c, 5, 55, 55
6, 116160, Note_on_c, 5, 55, 0
6, 116160, Note_on_c, 5, 57, 46
6, 116470, Note_on_c, 5, 57, 0
6, 116640, Note_on_c, 5, 53, 48
6, 117025, Note_on_c, 5, 53, 0
6, 117120, Note_on_c, 5, 55, 44
6, 117505, Note_on_c, 5, 55, 0
6, 117600, Note_on_c, 5, 53, 40
6, 117910, Note_on_c, 5, 53, 0
6, 118080, Note_on_c, 5, 52, 74
6, 118080, Note_on_c, 5, 40, 74
6, 118320, Note_on_c, 5, 40, 0
6, 118320, Note_on_c, 5, 52, 0
6, 118560, Note_on_c, 5, 56, 64
6, 118800, Note_on_c, 5, 56, 0
6, 119040, Note_on_c, 5, 57, 56
6, 119280, Note_on_c, 5, 57, 0
6, 119520, Note_on_c, 5, 53, 51
6, 119760, Note_on_c, 5, 53, 0
6, 120000, Note_on_c, 5, 55, 47
6, 120240, Note_on_c, 5, 55, 0
6, 120480, Note_on_c, 5, 53, 42
6, 120720, Note_on_c, 5, 53, 0
6, 120960, Note_on_c, 5, 40, 80
6, 120960, Note_on_c, 5, 52, 80
6, 121345, Note_on_c, 5, 52, 0
6, 121345, Note_on_c, 5, 40, 0
6, 121440, Note_on_c, 5, 44, 67
6, 121440, Note_on_c, 5, 56, 67
6, 121825, Note_on_c, 5, 56, 0
6, 121825, Note_on_c, 5, 44, 0
6, 121920, Note_on_c, 5, 57, 58
6, 121920, Note_on_c, 5, 45, 58
6, 122305, Note_on_c, 5, 45, 0
6, 122305, Note_on_c, 5, 57, 0
6, 122400, Note_on_c, 5, 41, 52
6, 122400, Note_on_c, 5, 53, 52
6, 122785, Note_on_c, 5, 53, 0
6, 122785, Note_on_c, 5, 41, 0
6, 122880, Note_on_c, 5, 43, 49
6, 122880, Note_on_c, 5, 55, 49
6, 123265, Note_on_c, 5, 55, 0
6, 123265, Note_on_c, 5, 43, 0
6, 123360, Note_on_c, 5, 43, 46
6, 123360, Note_on_c, 5, 55, 46
6, 123745, Note_on_c, 5, 55, 0
6, 123745, Note_on_c, 5, 43, 0
6, 123840, Control_c, 5, 64, 127
6, 123840, Note_on_c, 5, 48, 44
6, 123935, Note_on_c, 5, 48, 0
6, 124260, Control_c, 5, 64, 0
6, 124320, Control_c, 5, 64, 127
6, 124320, Note_on_c, 5, 48, 46
6, 124415, Note_on_c, 5, 48, 0
6, 124740, Control_c, 5, 64, 0
6, 124800, Control_c, 5, 64, 127
6, 124800, Note_on_c, 5, 48, 48
6, 124895, Note_on_c, 5, 48, 0
6, 125220, Control_c, 5, 64, 0
6, 125280, Control_c, 5, 64, 127
6, 125280, Note_on_c, 5, 48, 50
6, 125375, Note_on_c, 5, 48, 0
6, 125700, Control_c, 5, 64, 0
6, 125760, Control_c, 5, 64, 127
6, 125760, Note_on_c, 5, 48, 52
6, 125855, Note_on_c, 5, 48, 0
6, 126180, Control_c, 5, 64, 0
6, 126240, Control_c, 5, 64, 127
6, 126240, Note_on_c, 5, 48, 55
6, 126335, Note_on_c, 5, 48, 0
6, 126660, Control_c, 5, 64, 0
6, 126720, Control_c, 5, 64, 127
6, 126720, Note_on_c, 5, 48, 57
6, 126815, Note_on_c, 5, 48, 0
6, 127140, Control_c, 5, 64, 0
6, 127200, Control_c, 5, 64, 127
6, 127200, Note_on_c, 5, 48, 59
6, 127295, Note_on_c, 5, 48, 0
6, 127620, Control_c, 5, 64, 0
6, 127680, Control_c, 5, 64, 127
6, 127680, Note_on_c, 5, 48, 61
6, 127775, Note_on_c, 5, 48, 0
6, 128100, Control_c, 5, 64, 0
6, 128160, Control_c, 5, 64, 127
6, 128160, Note_on_c, 5, 48, 63
6, 128255, Note_on_c, 5, 48, 0
6, 128580, Control_c, 5, 64, 0
6, 128640, Control_c, 5, 64, 127
6, 128640, Note_on_c, 5, 48, 65
6, 128735, Note_on_c, 5, 48, 0
6, 129060, Control_c, 5, 64, 0
6, 129120, Control_c, 5, 64, 127
6, 129120, Note_on_c, 5, 48, 68
6, 129215, Note_on_c, 5, 48, 0
6, 129540, Control_c, 5, 64, 0
6, 129600, Note_on_c, 5, 48, 70
6, 129600, Note_on_c, 5, 60, 70
6, 129985, Note_on_c, 5, 60, 0
6, 129985, Note_on_c, 5, 48, 0
6, 130080, Note_on_c, 5, 64, 81
6, 130080, Note_on_c, 5, 52, 81
6, 130680, Note_on_c, 5, 52, 0
6, 130680, Note_on_c, 5, 64, 0
6, 130800, Note_on_c, 5, 44, 76
6, 130800, Note_on_c, 5, 56, 76
6, 130990, Note_on_c, 5, 56, 0
6, 130990, Note_on_c, 5, 44, 0
6, 131040, Note_on_c, 5, 57, 78
6, 131040, Note_on_c, 5, 45, 78
6, 131425, Note_on_c, 5, 45, 0
6, 131425, Note_on_c, 5, 57, 0
6, 131520, Note_on_c, 5, 60, 87
6, 131520, Note_on_c, 5, 48, 87
6, 132120, Note_on_c, 5, 60, 0
6, 132125, Note_on_c, 5, 48, 0
6, 132240, Note_on_c, 5, 52, 84
6, 132430, Note_on_c, 5, 52, 0
6, 132480, Note_on_c, 5, 53, 73
6, 132540, Note_on_c, 5, 53, 0
6, 132540, Note_on_c, 5, 55, 74
6, 132600, Note_on_c, 5, 55, 0
6, 132600, Note_on_c, 5, 53, 75
6, 132660, Note_on_c, 5, 53, 0
6, 132660, Note_on_c, 5, 55, 76
6, 132720, Note_on_c, 5, 55, 0
6, 132720, Note_on_c, 5, 53, 78
6, 132760, Note_on_c, 5, 53, 0
6, 132760, Note_on_c, 5, 55, 78
6, 132800, Note_on_c, 5, 55, 0
6, 132800, Note_on_c, 5, 53, 79
6, 132840, Note_on_c, 5, 53, 0
6, 132840, Note_on_c, 5, 52, 80
6, 132900, Note_on_c, 5, 52, 0
6, 132900, Note_on_c, 5, 50, 81
6, 132960, Note_on_c, 5, 50, 0
6, 132960, Note_on_c, 5, 55, 84
6, 133345, Note_on_c, 5, 55, 0
6, 133440, Note_on_c, 5, 55, 91
6, 133440, Note_on_c, 5, 43, 91
6, 133825, Note_on_c, 5, 43, 0
6, 133825, Note_on_c, 5, 55, 0
6, 133920, Note_on_c, 5, 48, 100
6, 133920, Note_on_c, 5, 60, 100
6, 134305, Note_on_c, 5, 60, 0
6, 134305, Note_on_c, 5, 48, 0
6, 134400, Note_on_c, 5, 36, 88
6, 134400, Note_on_c, 5, 48, 88
6, 134785, Note_on_c, 5, 48, 0
6, 134785, Note_on_c, 5, 36, 0
6, 135360, Control_c, 5, 64, 0
6, 135840, Note_on_c, 5, 52, 43
6, 136320, Note_on_c, 5, 52, 0
6, 136320, Note_on_c, 5, 48, 46
6, 136705, Note_on_c, 5, 48, 0
6, 136800, Note_on_c, 5, 55, 55
6, 138150, Note_on_c, 5, 55, 0
6, 138720, Note_on_c, 5, 52, 49
6, 139200, Note_on_c, 5, 52, 0
6, 139200, Note_on_c, 5, 48, 53
6, 139585, Note_on_c, 5, 48, 0
6, 139680, Note_on_c, 5, 55, 64
6, 141000, Note_on_c, 5, 55, 0
6, 141120, Note_on_c, 5, 53, 53
6, 141505, Note_on_c, 5, 53, 0
6, 142560, Note_on_c, 5, 53, 63
6, 142945, Note_on_c, 5, 53, 0
6, 144000, Note_on_c, 5, 55, 69
6, 145355, Note_on_c, 5, 55, 0
6, 145440, Note_on_c, 5, 60, 52
6, 145825, Note_on_c, 5, 60, 0
6, 147360, Note_on_c, 5, 52, 46
6, 147840, Note_on_c, 5, 52, 0
6, 147840, Note_on_c, 5, 48, 49
6, 148265, Note_on_c, 5, 48, 0
6, 148320, Note_on_c, 5, 43, 60
6, 149675, Note_on_c, 5, 43, 0
6, 150240, Note_on_c, 5, 52, 51
6, 150720, Note_on_c, 5, 52, 0
6, 150720, Note_on_c, 5, 48, 54
6, 151105, Note_on_c, 5, 48, 0
6, 151200, Note_on_c, 5, 43, 66
6, 152555, Note_on_c, 5, 43, 0
6, 152640, Note_on_c, 5, 41, 54
6, 153025, Note_on_c, 5, 41, 0
6, 154080, Note_on_c, 5, 41, 68
6, 154465, Note_on_c, 5, 41, 0
6, 155520, Note_on_c, 5, 43, 72
6, 155905, Note_on_c, 5, 43, 0
6, 156960, Note_on_c, 5, 48, 61
6, 157345, Note_on_c, 5, 48, 0
6, 157440, Note_on_c, 5, 64, 55
6, 157825, Note_on_c, 5, 64, 0
6, 157920, Note_on_c, 5, 60, 51
6, 158305, Note_on_c, 5, 60, 0
6, 158400, Note_on_c, 5, 62, 58
6, 158785, Note_on_c, 5, 62, 0
6, 158880, Note_on_c, 5, 59, 55
6, 159265, Note_on_c, 5, 59, 0
6, 159360, Note_on_c, 5, 55, 50
6, 159745, Note_on_c, 5, 55, 0
6, 159840, Note_on_c, 5, 48, 54
6, 160225, Note_on_c, 5, 48, 0
6, 160320, Note_on_c, 5, 51, 50
6, 160705, Note_on_c, 5, 51, 0
6, 160800, Note_on_c, 5, 48, 47
6, 161185, Note_on_c, 5, 48, 0
6, 161280, Note_on_c, 5, 50, 53
6, 161665, Note_on_c, 5, 50, 0
6, 161760, Note_on_c, 5, 47, 48
6, 162145, Note_on_c, 5, 47, 0
6, 162240, Note_on_c, 5, 43, 43
6, 162625, Note_on_c, 5, 43, 0
6, 162720, Note_on_c, 5, 36, 80
6, 162720, Note_on_c, 5, 48, 80
6, 163105, Note_on_c, 5, 48, 0
6, 163105, Note_on_c, 5, 36, 0
6, 163200, Note_on_c, 5, 60, 64
6, 163585, Note_on_c, 5, 60, 0
6, 163680, Note_on_c, 5, 48, 56
6, 164065, Note_on_c, 5, 48, 0
6, 164160, Note_on_c, 5, 33, 81
6, 164160, Note_on_c, 5, 45, 81
6, 164545, Note_on_c, 5, 45, 0
6, 164545, Note_on_c, 5, 33, 0
6, 164640, Note_on_c, 5, 57, 65
6, 165025, Note_on_c, 5, 57, 0
6, 165120, Note_on_c, 5, 45, 62
6, 165505, Note_on_c, 5, 45, 0
6, 165600, Note_on_c, 5, 46, 87
6, 165600, Note_on_c, 5, 34, 87
6, 165985, Note_on_c, 5, 34, 0
6, 165985, Note_on_c, 5, 46, 0
6, 166080, Note_on_c, 5, 58, 70
6, 166465, Note_on_c, 5, 58, 0
6, 166560, Note_on_c, 5, 46, 67
6, 166945, Note_on_c, 5, 46, 0
6, 167040, Note_on_c, 5, 30, 90
6, 167040, Note_on_c, 5, 42, 90
6, 167425, Note_on_c, 5, 42, 0
6, 167425, Note_on_c, 5, 30, 0
6, 167520, Note_on_c, 5, 54, 74
6, 167905, Note_on_c, 5, 54, 0
6, 168000, Note_on_c, 5, 42, 70
6, 168385, Note_on_c, 5, 42, 0
6, 168480, Note_on_c, 5, 43, 91
6, 168480, Note_on_c, 5, 31, 91
6, 168865, Note_on_c, 5, 31, 0
6, 168865, Note_on_c, 5, 43, 0
6, 168960, Note_on_c, 5, 55, 79
6, 169345, Note_on_c, 5, 55, 0
6, 169440, Note_on_c, 5, 43, 76
6, 169825, Note_on_c, 5, 43, 0
6, 169920, Note_on_c, 5, 40, 96
6, 169920, Note_on_c, 5, 52, 96
6, 170305, Note_on_c, 5, 52, 0
6, 170305, Note_on_c, 5, 40, 0
6, 170400, Note_on_c, 5, 64, 83
6, 170785, Note_on_c, 5, 64, 0
6, 170880, Note_on_c, 5, 52, 79
6, 171265, Note_on_c, 5, 52, 0
6, 171360, Note_on_c, 5, 53, 97
6, 171360, Note_on_c, 5, 41, 97
6, 171745, Note_on_c, 5, 41, 0
6, 171745, Note_on_c, 5, 53, 0
6, 171840, Note_on_c, 5, 65, 86
6, 172225, Note_on_c, 5, 65, 0
6, 172320, Note_on_c, 5, 53, 84
6, 172705, Note_on_c, 5, 53, 0
6, 172800, Note_on_c, 5, 37, 101
6, 172800, Note_on_c, 5, 49, 101
6, 173185, Note_on_c, 5, 49, 0
6, 173185, Note_on_c, 5, 37, 0
6, 173280, Note_on_c, 5, 61, 90
6, 173665, Note_on_c, 5, 61, 0
6, 173760, Note_on_c, 5, 49, 88
6, 174145, Note_on_c, 5, 49, 0
6, 174240, Note_on_c, 5, 38, 109
6, 174240, Note_on_c, 5, 50, 109
6, 174625, Note_on_c, 5, 50, 0
6, 174625, Note_on_c, 5, 38, 0
6, 174720, Note_on_c, 5, 62, 96
6, 175105, Note_on_c, 5, 62, 0
6, 175200, Note_on_c, 5, 50, 92
6, 175585, Note_on_c, 5, 50, 0
6, 175680, Note_on_c, 5, 34, 114
6, 175680, Note_on_c, 5, 46, 114
6, 176065, Note_on_c, 5, 46, 0
6, 176065, Note_on_c, 5, 34, 0
6, 176160, Note_on_c, 5, 58, 101
6, 176545, Note_on_c, 5, 58, 0
6, 176640, Note_on_c, 5, 46, 97
6, 177025, Note_on_c, 5, 46, 0
6, 177120, Note_on_c, 5, 45, 97
6, 177505, Note_on_c, 5, 45, 0
6, 178320, Note_on_c, 5, 68, 87
6, 178560, Note_on_c, 5, 68, 0
6, 178560, Note_on_c, 5, 69, 83
6, 178920, Note_on_c, 5, 69, 0
6, 179760, Note_on_c, 5, 56, 73
6, 180000, Note_on_c, 5, 56, 0
6, 180000, Note_on_c, 5, 57, 69
6, 180240, Note_on_c, 5, 57, 0
6, 180240, Note_on_c, 5, 56, 73
6, 180480, Note_on_c, 5, 56, 0
6, 180480, Note_on_c, 5, 57, 69
6, 180720, Note_on_c, 5, 57, 0
6, 180720, Note_on_c, 5, 56, 66
6, 180960, Note_on_c, 5, 56, 0
6, 180960, Note_on_c, 5, 57, 62
6, 181200, Note_on_c, 5, 57, 0
6, 181200, Note_on_c, 5, 56, 59
6, 181440, Note_on_c, 5, 56, 0
6, 181440, Note_on_c, 5, 57, 56
6, 181825, Note_on_c, 5, 57, 0
6, 182880, Note_on_c, 5, 57, 43
6, 183120, Note_on_c, 5, 57, 0
6, 183120, Note_on_c, 5, 56, 40
6, 183360, Note_on_c, 5, 56, 0
6, 183360, Note_on_c, 5, 57, 38
6, 183600, Note_on_c, 5, 57, 0
6, 183600, Note_on_c, 5, 56, 36
6, 183840, Note_on_c, 5, 56, 0
6, 183840, Note_on_c, 5, 57, 33
6, 184080, Note_on_c, 5, 57, 0
6, 184080, Note_on_c, 5, 56, 31
6, 184320, Note_on_c, 5, 56, 0
6, 184320, Note_on_c, 5, 57, 29
6, 184705, Note_on_c, 5, 57, 0
6, 185760, Note_on_c, 5, 55, 83
6, 186000, Note_on_c, 5, 55, 0
6, 186000, Note_on_c, 5, 57, 80
6, 186240, Note_on_c, 5, 57, 0
6, 186240, Note_on_c, 5, 55, 77
6, 186480, Note_on_c, 5, 55, 0
6, 186480, Note_on_c, 5, 57, 74
6, 186720, Note_on_c, 5, 57, 0
6, 186720, Note_on_c, 5, 55, 71
6, 186960, Note_on_c, 5, 55, 0
6, 186960, Note_on_c, 5, 57, 68
6, 187200, Note_on_c, 5, 57, 0
6, 187200, Note_on_c, 5, 55, 65
6, 187585, Note_on_c, 5, 55, 0
6, 188640, Note_on_c, 5, 60, 54
6, 190445, Note_on_c, 5, 60, 0
6, 191520, Control_c, 5, 64, 127
6, 191520, Note_on_c, 5, 53, 44
6, 191760, Note_on_c, 5, 53, 0
6, 192900, Control_c, 5, 64, 0
6, 192960, Control_c, 5, 64, 127
6, 192960, Note_on_c, 5, 53, 49
6, 193200, Note_on_c, 5, 53, 0
6, 194340, Control_c, 5, 64, 0
6, 194400, Control_c, 5, 64, 127
6, 194400, Note_on_c, 5, 53, 54
6, 194640, Note_on_c, 5, 53, 0
6, 195780, Control_c, 5, 64, 0
6, 195840, Control_c, 5, 64, 127
6, 195840, Note_on_c, 5, 53, 63
6, 196080, Note_on_c, 5, 53, 0
6, 197220, Control_c, 5, 64, 0
6, 197280, Note_on_c, 5, 53, 53
6, 197665, Note_on_c, 5, 53, 0
6, 200160, Note_on_c, 5, 53, 44
6, 200640, Note_on_c, 5, 53, 0
6, 200640, Note_on_c, 5, 45, 43
6, 201120, Note_on_c, 5, 45, 0
6, 201120, Note_on_c, 5, 50, 42
6, 201480, Note_on_c, 5, 50, 0
6, 201600, Note_on_c, 5, 43, 44
6, 202080, Note_on_c, 5, 43, 0
6, 202080, Note_on_c, 5, 48, 48
6, 202800, Note_on_c, 5, 48, 0
6, 202800, Note_on_c, 5, 45, 41
6, 202990, Note_on_c, 5, 45, 0
6, 203040, Note_on_c, 5, 41, 41
6, 203520, Note_on_c, 5, 41, 0
6, 203520, Note_on_c, 5, 50, 45
6, 204000, Note_on_c, 5, 50, 0
6, 204000, Note_on_c, 5, 46, 50
6, 204365, Note_on_c, 5, 46, 0
6, 204480, Note_on_c, 5, 45, 55
6, 204845, Note_on_c, 5, 45, 0
6, 205440, Note_on_c, 5, 50, 64
6, 205805, Note_on_c, 5, 50, 0
6, 205920, Note_on_c, 5, 46, 70
6, 206280, Note_on_c, 5, 46, 0
6, 206880, Note_on_c, 5, 48, 55
6, 207360, Note_on_c, 5, 48, 0
6, 207360, Note_on_c, 5, 41, 47
6, 207720, Note_on_c, 5, 41, 0
6, 208320, Note_on_c, 5, 69, 57
6, 208680, Note_on_c, 5, 69, 0
6, 208680, Note_on_c, 5, 67, 56
6, 208800, Note_on_c, 5, 67, 0
6, 208800, Note_on_c, 5, 65, 56
6, 209040, Note_on_c, 5, 65, 0
6, 209280, Note_on_c, 5, 65, 54
6, 209520, Note_on_c, 5, 65, 0
6, 209760, Note_on_c, 5, 65, 53
6, 210120, Note_on_c, 5, 65, 0
6, 210120, Note_on_c, 5, 60, 52
6, 210240, Note_on_c, 5, 60, 0
6, 210240, Note_on_c, 5, 57, 52
6, 210480, Note_on_c, 5, 57, 0
6, 210720, Note_on_c, 5, 57, 50
6, 210960, Note_on_c, 5, 57, 0
6, 211200, Note_on_c, 5, 57, 49
6, 211680, Note_on_c, 5, 57, 0
6, 211680, Note_on_c, 5, 60, 47
6, 211920, Note_on_c, 5, 60, 0
6, 212160, Note_on_c, 5, 60, 46
6, 212400, Note_on_c, 5, 60, 0
6, 212640, Note_on_c, 5, 60, 45
6, 212880, Note_on_c, 5, 60, 0
6, 213120, Note_on_c, 5, 60, 43
6, 213600, Note_on_c, 5, 60, 0
6, 213600, Note_on_c, 5, 65, 38
6, 213900, Note_on_c, 5, 65, 0
6, 214080, Note_on_c, 5, 69, 55
6, 214440, Note_on_c, 5, 69, 0
6, 214440, Note_on_c, 5, 67, 55
6, 214560, Note_on_c, 5, 67, 0
6, 214560, Note_on_c, 5, 65, 54
6, 214800, Note_on_c, 5, 65, 0
6, 215040, Note_on_c, 5, 65, 54
6, 215280, Note_on_c, 5, 65, 0
6, 215520, Note_on_c, 5, 65, 53
6, 215880, Note_on_c, 5, 65, 0
6, 215880, Note_on_c, 5, 60, 52
6, 216000, Note_on_c, 5, 60, 0
6, 216000, Note_on_c, 5, 57, 53
6, 216240, Note_on_c, 5, 57, 0
6, 216480, Note_on_c, 5, 57, 52
6, 216720, Note_on_c, 5, 57, 0
6, 216960, Note_on_c, 5, 57, 50
6, 217200, Note_on_c, 5, 57, 0
6, 217440, Note_on_c, 5, 60, 49
6, 217825, Note_on_c, 5, 60, 0
6, 218400, Note_on_c, 5, 60, 49
6, 218880, Note_on_c, 5, 60, 0
6, 218880, Note_on_c, 5, 65, 47
6, 219265, Note_on_c, 5, 65, 0
6, 219840, Note_on_c, 5, 60, 45
6, 220320, Note_on_c, 5, 60, 0
6, 220320, Note_on_c, 5, 65, 43
6, 220705, Note_on_c, 5, 65, 0
6, 221280, Note_on_c, 5, 48, 39
6, 221760, Note_on_c, 5, 48, 0
6, 221760, Note_on_c, 5, 53, 37
6, 222145, Note_on_c, 5, 53, 0
6, 222720, Note_on_c, 5, 49, 89
6, 222720, Note_on_c, 5, 37, 89
6, 223200, Note_on_c, 5, 37, 0
6, 223200, Note_on_c, 5, 49, 0
6, 223200, Note_on_c, 5, 50, 89
6, 223200, Note_on_c, 5, 38, 89
6, 224585, Note_on_c, 5, 50, 0
6, 224640, Note_on_c, 5, 50, 88
6, 225945, Note_on_c, 5, 38, 0
6, 225974, Note_on_c, 5, 50, 0
6, 226080, Note_on_c, 5, 40, 89
6, 226465, Note_on_c, 5, 40, 0
6, 226560, Note_on_c, 5, 52, 86
6, 227040, Note_on_c, 5, 52, 0
6, 227520, Note_on_c, 5, 40, 94
6, 227905, Note_on_c, 5, 40, 0
6, 228000, Note_on_c, 5, 52, 85
6, 228385, Note_on_c, 5, 52, 0
6, 228960, Note_on_c, 5, 53, 84
6, 230360, Note_on_c, 5, 53, 0
6, 230400, Note_on_c, 5, 53, 83
6, 231785, Note_on_c, 5, 53, 0
6, 231840, Note_on_c, 5, 38, 88
6, 231840, Note_on_c, 5, 50, 88
6, 232225, Note_on_c, 5, 50, 0
6, 232225, Note_on_c, 5, 38, 0
6, 232320, Note_on_c, 5, 50, 81
6, 232705, Note_on_c, 5, 50, 0
6, 233280, Note_on_c, 5, 50, 88
6, 233280, Note_on_c, 5, 38, 88
6, 233665, Note_on_c, 5, 38, 0
6, 233665, Note_on_c, 5, 50, 0
6, 233760, Note_on_c, 5, 50, 80
6, 234145, Note_on_c, 5, 50, 0
6, 234720, Note_on_c, 5, 51, 81
6, 236105, Note_on_c, 5, 51, 0
6, 236160, Note_on_c, 5, 51, 79
6, 237540, Note_on_c, 5, 51, 0
6, 237600, Note_on_c, 5, 39, 81
6, 237985, Note_on_c, 5, 39, 0
6, 239040, Note_on_c, 5, 39, 85
6, 239425, Note_on_c, 5, 39, 0
6, 240480, Note_on_c, 5, 49, 77
6, 241865, Note_on_c, 5, 49, 0
6, 241920, Note_on_c, 5, 49, 75
6, 243300, Note_on_c, 5, 49, 0
6, 243360, Note_on_c, 5, 48, 72
6, 244755, Note_on_c, 5, 48, 0
6, 244800, Note_on_c, 5, 48, 69
6, 246185, Note_on_c, 5, 48, 0
6, 246240, Note_on_c, 5, 47, 66
6, 247620, Note_on_c, 5, 47, 0
6, 247680, Note_on_c, 5, 47, 63
6, 249065, Note_on_c, 5, 47, 0
6, 249120, Note_on_c, 5, 48, 60
6, 249960, Note_on_c, 5, 48, 0
6, 250080, Note_on_c, 5, 53, 58
6, 250447, Note_on_c, 5, 53, 0
6, 250560, Note_on_c, 5, 48, 57
6, 251400, Note_on_c, 5, 48, 0
6, 251520, Note_on_c, 5, 53, 55
6, 251880, Note_on_c, 5, 53, 0
6, 251940, Control_c, 5, 64, 0
6, 252000, Note_on_c, 5, 60, 55
6, 252720, Note_on_c, 5, 60, 0
6, 252720, Note_on_c, 5, 61, 49
6, 252840, Note_on_c, 5, 61, 0
6, 252840, Note_on_c, 5, 60, 48
6, 252960, Note_on_c, 5, 60, 0
6, 252960, Note_on_c, 5, 58, 48
6, 253080, Note_on_c, 5, 58, 0
6, 253080, Note_on_c, 5, 56, 47
6, 253200, Note_on_c, 5, 56, 0
6, 253200, Note_on_c, 5, 55, 46
6, 253320, Note_on_c, 5, 55, 0
6, 253320, Note_on_c, 5, 53, 45
6, 253415, Note_on_c, 5, 53, 0
6, 253440, Note_on_c, 5, 60, 44
6, 253705, Note_on_c, 5, 60, 0
6, 253920, Note_on_c, 5, 48, 41
6, 254185, Note_on_c, 5, 48, 0
6, 254880, Control_c, 5, 64, 127
6, 254880, Note_on_c, 5, 41, 40
6, 254920, Note_on_c, 5, 41, 0
6, 255360, Control_c, 5, 64, 0
6, 256320, Control_c, 5, 64, 127
6, 256320, Note_on_c, 5, 48, 49
6, 256360, Note_on_c, 5, 48, 0
6, 256800, Control_c, 5, 64, 0
6, 257760, Note_on_c, 5, 41, 46
6, 258145, Note_on_c, 5, 41, 0
6, 258240, Note_on_c, 5, 45, 45
6, 258625, Note_on_c, 5, 45, 0
6, 258720, Note_on_c, 5, 48, 47
6, 259105, Note_on_c, 5, 48, 0
6, 259200, Note_on_c, 5, 53, 49
6, 259585, Note_on_c, 5, 53, 0
6, 259680, Note_on_c, 5, 41, 40
6, 260065, Note_on_c, 5, 41, 0
6, 260640, Note_on_c, 5, 50, 40
6, 261120, Note_on_c, 5, 50, 0
6, 261120, Note_on_c, 5, 53, 42
6, 261505, Note_on_c, 5, 53, 0
6, 262080, Note_on_c, 5, 52, 47
6, 262560, Note_on_c, 5, 52, 0
6, 262560, Note_on_c, 5, 55, 49
6, 262945, Note_on_c, 5, 55, 0
6, 263520, Note_on_c, 5, 53, 54
6, 264000, Note_on_c, 5, 53, 0
6, 264000, Note_on_c, 5, 50, 57
6, 264480, Note_on_c, 5, 50, 0
6, 264480, Note_on_c, 5, 46, 59
6, 264960, Note_on_c, 5, 46, 0
6, 264960, Note_on_c, 5, 48, 63
6, 265345, Note_on_c, 5, 48, 0
6, 266400, Control_c, 5, 64, 127
6, 266400, Note_on_c, 5, 53, 62
6, 266520, Note_on_c, 5, 53, 0
6, 266820, Control_c, 5, 64, 0
6, 266880, Control_c, 5, 64, 127
6, 266880, Note_on_c, 5, 53, 64
6, 267000, Note_on_c, 5, 53, 0
6, 267300, Control_c, 5, 64, 0
6, 267360, Control_c, 5, 64, 127
6, 267360, Note_on_c, 5, 53, 65
6, 267480, Note_on_c, 5, 53, 0
6, 267780, Control_c, 5, 64, 0
6, 267840, Control_c, 5, 64, 127
6, 267840, Note_on_c, 5, 52, 67
6, 267960, Note_on_c, 5, 52, 0
6, 268260, Control_c, 5, 64, 0
6, 268320, Control_c, 5, 64, 127
6, 268320, Note_on_c, 5, 52, 68
6, 268440, Note_on_c, 5, 52, 0
6, 268740, Control_c, 5, 64, 0
6, 268800, Control_c, 5, 64, 127
6, 268800, Note_on_c, 5, 52, 70
6, 268920, Note_on_c, 5, 52, 0
6, 269220, Control_c, 5, 64, 0
6, 269280, Note_on_c, 5, 53, 68
6, 269665, Note_on_c, 5, 53, 0
6, 269760, Note_on_c, 5, 57, 63
6, 270145, Note_on_c, 5, 57, 0
6, 270240, Note_on_c, 5, 60, 58
6, 270625, Note_on_c, 5, 60, 0
6, 270720, Note_on_c, 5, 65, 53
6, 271105, Note_on_c, 5, 65, 0
6, 271200, Note_on_c, 5, 60, 47
6, 271585, Note_on_c, 5, 60, 0
6, 271680, Note_on_c, 5, 53, 43
6, 272065, Note_on_c, 5, 53, 0
6, 272160, Control_c, 5, 64, 127
6, 272160, Note_on_c, 5, 62, 47
6, 272400, Note_on_c, 5, 62, 0
6, 273060, Control_c, 5, 64, 0
6, 273120, Control_c, 5, 64, 127
6, 273120, Note_on_c, 5, 62, 55
6, 273360, Note_on_c, 5, 62, 0
6, 273540, Control_c, 5, 64, 0
6, 273600, Control_c, 5, 64, 127
6, 273600, Note_on_c, 5, 64, 59
6, 273840, Note_on_c, 5, 64, 0
6, 274500, Control_c, 5, 64, 0
6, 274560, Control_c, 5, 64, 127
6, 274560, Note_on_c, 5, 64, 66
6, 274800, Note_on_c, 5, 64, 0
6, 274980, Control_c, 5, 64, 0
6, 275040, Note_on_c, 5, 65, 72
6, 275425, Note_on_c, 5, 65, 0
6, 275520, Note_on_c, 5, 58, 66
6, 275905, Note_on_c, 5, 58, 0
6, 276000, Note_on_c, 5, 60, 59
6, 276385, Note_on_c, 5, 60, 0
6, 276480, Note_on_c, 5, 65, 55
6, 276865, Note_on_c, 5, 65, 0
6, 276960, Note_on_c, 5, 69, 50
6, 277345, Note_on_c, 5, 69, 0
6, 277440, Note_on_c, 5, 65, 46
6, 277825, Note_on_c, 5, 65, 0
6, 277920, Note_on_c, 5, 67, 52
6, 278305, Note_on_c, 5, 67, 0
6, 278400, Note_on_c, 5, 64, 47
6, 278785, Note_on_c, 5, 64, 0
6, 278880, Note_on_c, 5, 60, 43
6, 279265, Note_on_c, 5, 60, 0
6, 279360, Note_on_c, 5, 53, 49
6, 279745, Note_on_c, 5, 53, 0
6, 279840, Note_on_c, 5, 56, 46
6, 280225, Note_on_c, 5, 56, 0
6, 280320, Note_on_c, 5, 53, 42
6, 280705, Note_on_c, 5, 53, 0
6, 280800, Note_on_c, 5, 55, 48
6, 281185, Note_on_c, 5, 55, 0
6, 281280, Note_on_c, 5, 52, 42
6, 281665, Note_on_c, 5, 52, 0
6, 281760, Note_on_c, 5, 48, 39
6, 282145, Note_on_c, 5, 48, 0
6, 282240, Note_on_c, 5, 41, 74
6, 282240, Note_on_c, 5, 53, 74
6, 282625, Note_on_c, 5, 53, 0
6, 282625, Note_on_c, 5, 41, 0
6, 282720, Note_on_c, 5, 56, 56
6, 283105, Note_on_c, 5, 56, 0
6, 283200, Note_on_c, 5, 60, 52
6, 283585, Note_on_c, 5, 60, 0
6, 283680, Note_on_c, 5, 46, 77
6, 283680, Note_on_c, 5, 58, 77
6, 284065, Note_on_c, 5, 58, 0
6, 284065, Note_on_c, 5, 46, 0
6, 284160, Note_on_c, 5, 61, 62
6, 284545, Note_on_c, 5, 61, 0
6, 284640, Note_on_c, 5, 65, 58
6, 285025, Note_on_c, 5, 65, 0
6, 285120, Note_on_c, 5, 51, 84
6, 285120, Note_on_c, 5, 39, 84
6, 285505, Note_on_c, 5, 39, 0
6, 285505, Note_on_c, 5, 51, 0
6, 285600, Note_on_c, 5, 55, 70
6, 285985, Note_on_c, 5, 55, 0
6, 286080, Note_on_c, 5, 58, 66
6, 286465, Note_on_c, 5, 58, 0
6, 286560, Note_on_c, 5, 44, 88
6, 286560, Note_on_c, 5, 56, 88
6, 286945, Note_on_c, 5, 56, 0
6, 286945, Note_on_c, 5, 44, 0
6, 287040, Note_on_c, 5, 60, 74
6, 287425, Note_on_c, 5, 60, 0
6, 287520, Note_on_c, 5, 63, 72
6, 287905, Note_on_c, 5, 63, 0
6, 288000, Note_on_c, 5, 37, 94
6, 288000, Note_on_c, 5, 49, 94
6, 288385, Note_on_c, 5, 49, 0
6, 288385, Note_on_c, 5, 37, 0
6, 288480, Note_on_c, 5, 61, 71
6, 288865, Note_on_c, 5, 61, 0
6, 288960, Note_on_c, 5, 43, 89
6, 288960, Note_on_c, 5, 55, 89
6, 289345, Note_on_c, 5, 55, 0
6, 289345, Note_on_c, 5, 43, 0
6, 289440, Note_on_c, 5, 67, 70
6, 289825, Note_on_c, 5, 67, 0
6, 289920, Note_on_c, 5, 48, 82
6, 289920, Note_on_c, 5, 36, 82
6, 290305, Note_on_c, 5, 36, 0
6, 290305, Note_on_c, 5, 48, 0
6, 290400, Note_on_c, 5, 60, 63
6, 290880, Note_on_c, 5, 60, 0
6, 290880, Note_on_c, 5, 61, 61
6, 291360, Note_on_c, 5, 61, 0
6, 291360, Note_on_c, 5, 60, 57
6, 291840, Note_on_c, 5, 60, 0
6, 291840, Note_on_c, 5, 59, 55
6, 292320, Note_on_c, 5, 59, 0
6, 292320, Note_on_c, 5, 60, 53
6, 292705, Note_on_c, 5, 60, 0
6, 293520, Note_on_c, 5, 59, 45
6, 293760, Note_on_c, 5, 59, 0
6, 293760, Note_on_c, 5, 60, 43
6, 294145, Note_on_c, 5, 60, 0
6, 294960, Note_on_c, 5, 59, 43
6, 295200, Note_on_c, 5, 59, 0
6, 295200, Note_on_c, 5, 60, 41
6, 295440, Note_on_c, 5, 60, 0
6, 295440, Note_on_c, 5, 59, 41
6, 295680, Note_on_c, 5, 59, 0
6, 295680, Note_on_c, 5, 60, 39
6, 295920, Note_on_c, 5, 60, 0
6, 295920, Note_on_c, 5, 59, 38
6, 296160, Note_on_c, 5, 59, 0
6, 296160, Note_on_c, 5, 60, 36
6, 296400, Note_on_c, 5, 60, 0
6, 296400, Note_on_c, 5, 59, 35
6, 296640, Note_on_c, 5, 59, 0
6, 296640, Note_on_c, 5, 60, 37
6, 297025, Note_on_c, 5, 60, 0
6, 298080, Note_on_c, 5, 58, 51
6, 298390, Note_on_c, 5, 58, 0
6, 298560, Note_on_c, 5, 58, 50
6, 298870, Note_on_c, 5, 58, 0
6, 299040, Note_on_c, 5, 58, 52
6, 299350, Note_on_c, 5, 58, 0
6, 299520, Note_on_c, 5, 58, 55
6, 300480, Note_on_c, 5, 58, 0
6, 300480, Note_on_c, 5, 53, 46
6, 300790, Note_on_c, 5, 53, 0
6, 300960, Note_on_c, 5, 48, 44
6, 301270, Note_on_c, 5, 48, 0
6, 301440, Note_on_c, 5, 48, 45
6, 301750, Note_on_c, 5, 48, 0
6, 301920, Note_on_c, 5, 48, 47
6, 302230, Note_on_c, 5, 48, 0
6, 302400, Note_on_c, 5, 48, 49
6, 303360, Note_on_c, 5, 48, 0
6, 303360, Note_on_c, 5, 50, 40
6, 303670, Note_on_c, 5, 50, 0
6, 303840, Note_on_c, 5, 46, 45
6, 304150, Note_on_c, 5, 46, 0
6, 304320, Note_on_c, 5, 48, 43
6, 304705, Note_on_c, 5, 48, 0
6, 304800, Note_on_c, 5, 48, 41
6, 305110, Note_on_c, 5, 48, 0
6, 305280, Note_on_c, 5, 53, 39
6, 305760, Note_on_c, 5, 53, 0
6, 306720, Note_on_c, 5, 65, 55
6, 307030, Note_on_c, 5, 65, 0
6, 307200, Note_on_c, 5, 65, 55
6, 307510, Note_on_c, 5, 65, 0
6, 307680, Note_on_c, 5, 65, 56
6, 307990, Note_on_c, 5, 65, 0
6, 308160, Note_on_c, 5, 65, 57
6, 309515, Note_on_c, 5, 65, 0
6, 309600, Note_on_c, 5, 60, 50
6, 309910, Note_on_c, 5, 60, 0
6, 310080, Note_on_c, 5, 60, 51
6, 310390, Note_on_c, 5, 60, 0
6, 310560, Note_on_c, 5, 60, 53
6, 310870, Note_on_c, 5, 60, 0
6, 311040, Note_on_c, 5, 60, 55
6, 312000, Note_on_c, 5, 60, 0
6, 312000, Note_on_c, 5, 62, 46
6, 312385, Note_on_c, 5, 62, 0
6, 312480, Note_on_c, 5, 58, 50
6, 312865, Note_on_c, 5, 58, 0
6, 312960, Note_on_c, 5, 60, 47
6, 313345, Note_on_c, 5, 60, 0
6, 313440, Note_on_c, 5, 58, 44
6, 313750, Note_on_c, 5, 58, 0
6, 313920, Note_on_c, 5, 57, 80
6, 313920, Note_on_c, 5, 45, 80
6, 314160, Note_on_c, 5, 45, 0
6, 314160, Note_on_c, 5, 57, 0
6, 314400, Note_on_c, 5, 61, 66
6, 314640, Note_on_c, 5, 61, 0
6, 314880, Note_on_c, 5, 62, 61
6, 315120, Note_on_c, 5, 62, 0
6, 315360, Note_on_c, 5, 58, 54
6, 315600, Note_on_c, 5, 58, 0
6, 315840, Note_on_c, 5, 60, 51
6, 316080, Note_on_c, 5, 60, 0
6, 316320, Note_on_c, 5, 58, 49
6, 316560, Note_on_c, 5, 58, 0
6, 316800, Note_on_c, 5, 57, 78
6, 316800, Note_on_c, 5, 45, 78
6, 317040, Note_on_c, 5, 45, 0
6, 317040, Note_on_c, 5, 57, 0
6, 317280, Note_on_c, 5, 49, 66
6, 317280, Note_on_c, 5, 61, 66
6, 317520, Note_on_c, 5, 61, 0
6, 317520, Note_on_c, 5, 49, 0
6, 317760, Note_on_c, 5, 62, 60
6, 317760, Note_on_c, 5, 50, 60
6, 318000, Note_on_c, 5, 50, 0
6, 318000, Note_on_c, 5, 62, 0
6, 318240, Note_on_c, 5, 46, 53
6, 318240, Note_on_c, 5, 58, 53
6, 318480, Note_on_c, 5, 58, 0
6, 318480, Note_on_c, 5, 46, 0
6, 318720, Note_on_c, 5, 60, 50
6, 318720, Note_on_c, 5, 48, 50
6, 318960, Note_on_c, 5, 48, 0
6, 318960, Note_on_c, 5, 60, 0
6, 319200, Note_on_c, 5, 48, 47
6, 319200, Note_on_c, 5, 36, 47
6, 319440, Note_on_c, 5, 36, 0
6, 319440, Note_on_c, 5, 48, 0
6, 319680, Control_c, 5, 64, 127
6, 319680, Note_on_c, 5, 41, 46
6, 319800, Note_on_c, 5, 41, 0
6, 320100, Control_c, 5, 64, 0
6, 320160, Control_c, 5, 64, 127
6, 320160, Note_on_c, 5, 41, 49
6, 320280, Note_on_c, 5, 41, 0
6, 320580, Control_c, 5, 64, 0
6, 320640, Control_c, 5, 64, 127
6, 320640, Note_on_c, 5, 41, 52
6, 320760, Note_on_c, 5, 41, 0
6, 321060, Control_c, 5, 64, 0
6, 321120, Control_c, 5, 64, 127
6, 321120, Note_on_c, 5, 41, 55
6, 321240, Note_on_c, 5, 41, 0
6, 321540, Control_c, 5, 64, 0
6, 321600, Control_c, 5, 64, 127
6, 321600, Note_on_c, 5, 41, 58
6, 321720, Note_on_c, 5, 41, 0
6, 322020, Control_c, 5, 64, 0
6, 322080, Control_c, 5, 64, 127
6, 322080, Note_on_c, 5, 41, 61
6, 322200, Note_on_c, 5, 41, 0
6, 322500, Control_c, 5, 64, 0
6, 322560, Control_c, 5, 64, 127
6, 322560, Note_on_c, 5, 41, 64
6, 322680, Note_on_c, 5, 41, 0
6, 322980, Control_c, 5, 64, 0
6, 323040, Control_c, 5, 64, 127
6, 323040, Note_on_c, 5, 41, 67
6, 323160, Note_on_c, 5, 41, 0
6, 323460, Control_c, 5, 64, 0
6, 323520, Control_c, 5, 64, 127
6, 323520, Note_on_c, 5, 41, 70
6, 323640, Note_on_c, 5, 41, 0
6, 323940, Control_c, 5, 64, 0
6, 324000, Control_c, 5, 64, 127
6, 324000, Note_on_c, 5, 41, 73
6, 324120, Note_on_c, 5, 41, 0
6, 324420, Control_c, 5, 64, 0
6, 324480, Control_c, 5, 64, 127
6, 324480, Note_on_c, 5, 41, 76
6, 324600, Note_on_c, 5, 41, 0
6, 324900, Control_c, 5, 64, 0
6, 324960, Control_c, 5, 64, 127
6, 324960, Note_on_c, 5, 41, 79
6, 325080, Note_on_c, 5, 41, 0
6, 325380, Control_c, 5, 64, 0
6, 325440, Note_on_c, 5, 53, 82
6, 325440, Note_on_c, 5, 41, 82
6, 325825, Note_on_c, 5, 41, 0
6, 325825, Note_on_c, 5, 53, 0
6, 325920, Note_on_c, 5, 57, 93
6, 325920, Note_on_c, 5, 45, 93
6, 326520, Note_on_c, 5, 45, 0
6, 326520, Note_on_c, 5, 57, 0
6, 326640, Note_on_c, 5, 61, 89
6, 326640, Note_on_c, 5, 49, 89
6, 326830, Note_on_c, 5, 49, 0
6, 326830, Note_on_c, 5, 61, 0
6, 326880, Note_on_c, 5, 62, 91
6, 326880, Note_on_c, 5, 50, 91
6, 327265, Note_on_c, 5, 50, 0
6, 327265, Note_on_c, 5, 62, 0
6, 327360, Note_on_c, 5, 65, 102
6, 327360, Note_on_c, 5, 53, 102
6, 327965, Note_on_c, 5, 53, 0
6, 327965, Note_on_c, 5, 65, 0
6, 328080, Note_on_c, 5, 57, 98
6, 328270, Note_on_c, 5, 57, 0
6, 328320, Note_on_c, 5, 58, 77
6, 328380, Note_on_c, 5, 58, 0
6, 328380, Note_on_c, 5, 60, 79
6, 328440, Note_on_c, 5, 60, 0
6, 328440, Note_on_c, 5, 58, 81
6, 328500, Note_on_c, 5, 58, 0
6, 328500, Note_on_c, 5, 60, 83
6, 328560, Note_on_c, 5, 60, 0
6, 328560, Note_on_c, 5, 58, 84
6, 328600, Note_on_c, 5, 58, 0
6, 328600, Note_on_c, 5, 60, 85
6, 328640, Note_on_c, 5, 60, 0
6, 328640, Note_on_c, 5, 58, 86
6, 328680, Note_on_c, 5, 58, 0
6, 328680, Note_on_c, 5, 57, 88
6, 328740, Note_on_c, 5, 57, 0
6, 328740, Note_on_c, 5, 55, 89
6, 328800, Note_on_c, 5, 55, 0
6, 328800, Note_on_c, 5, 60, 93
6, 329185, Note_on_c, 5, 60, 0
6, 329280, Note_on_c, 5, 48, 101
6, 329280, Note_on_c, 5, 60, 101
6, 329665, Note_on_c, 5, 60, 0
6, 329665, Note_on_c, 5, 48, 0
6, 329760, Note_on_c, 5, 65, 109
6, 329760, Note_on_c, 5, 53, 109
6, 330145, Note_on_c, 5, 53, 0
6, 330145, Note_on_c, 5, 65, 0
6, 330240, Note_on_c, 5, 53, 103
6, 330240, Note_on_c, 5, 41, 103
6, 330625, Note_on_c, 5, 41, 0
6, 330625, Note_on_c, 5, 53, 0
6, 331200, Control_c, 5, 64, 127
6, 331200, Note_on_c, 5, 58, 40
6, 331440, Note_on_c, 5, 58, 0
6, 332100, Control_c, 5, 64, 0
6, 332160, Control_c, 5, 64, 127
6, 332160, Note_on_c, 5, 58, 42
6, 332400, Note_on_c, 5, 58, 0
6, 333060, Control_c, 5, 64, 0
6, 333120, Control_c, 5, 64, 127
6, 333120, Note_on_c, 5, 57, 47
6, 333360, Note_on_c, 5, 57, 0
6, 334020, Control_c, 5, 64, 0
6, 334080, Control_c, 5, 64, 127
6, 334080, Note_on_c, 5, 57, 43
6, 334320, Note_on_c, 5, 57, 0
6, 334980, Control_c, 5, 64, 0
6, 335040, Control_c, 5, 64, 127
6, 335040, Note_on_c, 5, 55, 41
6, 335280, Note_on_c, 5, 55, 0
6, 335940, Control_c, 5, 64, 0
6, 336000, Control_c, 5, 64, 127
6, 336000, Note_on_c, 5, 51, 47
6, 336240, Note_on_c, 5, 51, 0
6, 336900, Control_c, 5, 64, 0
6, 336960, Control_c, 5, 64, 127
6, 336960, Note_on_c, 5, 50, 55
6, 337200, Note_on_c, 5, 50, 0
6, 337860, Control_c, 5, 64, 0
6, 337920, Control_c, 5, 64, 127
6, 337920, Note_on_c, 5, 50, 49
6, 338160, Note_on_c, 5, 50, 0
6, 338820, Control_c, 5, 64, 0
6, 338880, Control_c, 5, 64, 127
6, 338880, Note_on_c, 5, 51, 55
6, 339120, Note_on_c, 5, 51, 0
6, 339300, Control_c, 5, 64, 0
6, 339360, Control_c, 5, 64, 127
6, 339780, Control_c, 5, 64, 0
6, 339840, Control_c, 5, 64, 127
6, 339840, Note_on_c, 5, 51, 46
6, 340080, Note_on_c, 5, 51, 0
6, 340260, Control_c, 5, 64, 0
6, 340320, Control_c, 5, 64, 127
6, 340740, Control_c, 5, 64, 0
6, 340800, Control_c, 5, 64, 127
6, 340800, Note_on_c, 5, 50, 49
6, 341040, Note_on_c, 5, 50, 0
6, 341220, Control_c, 5, 64, 0
6, 341280, Control_c, 5, 64, 127
6, 341700, Control_c, 5, 64, 0
6, 341760, Control_c, 5, 64, 127
6, 341760, Note_on_c, 5, 50, 42
6, 342000, Note_on_c, 5, 50, 0
6, 342180, Control_c, 5, 64, 0
6, 342240, Control_c, 5, 64, 127
6, 342660, Control_c, 5, 64, 0
6, 342720, Control_c, 5, 64, 127
6, 342720, Note_on_c, 5, 57, 57
6, 342960, Note_on_c, 5, 57, 0
6, 343620, Control_c, 5, 64, 0
6, 343680, Control_c, 5, 64, 127
6, 343680, Note_on_c, 5, 58, 55
6, 343920, Note_on_c, 5, 58, 0
6, 344580, Control_c, 5, 64, 0
6, 344640, Control_c, 5, 64, 127
6, 344640, Note_on_c, 5, 53, 47
6, 344830, Note_on_c, 5, 53, 0
6, 345540, Control_c, 5, 64, 0
6, 345600, Note_on_c, 5, 53, 41
6, 345985, Note_on_c, 5, 53, 0
6, 346500, Control_c, 5, 64, 0
6, 346560, Control_c, 5, 64, 127
6, 346560, Note_on_c, 5, 58, 38
6, 346800, Note_on_c, 5, 58, 0
6, 347460, Control_c, 5, 64, 0
6, 347520, Control_c, 5, 64, 127
6, 347520, Note_on_c, 5, 58, 42
6, 347760, Note_on_c, 5, 58, 0
6, 348420, Control_c, 5, 64, 0
6, 348480, Control_c, 5, 64, 127
6, 348480, Note_on_c, 5, 56, 49
6, 348720, Note_on_c, 5, 56, 0
6, 349380, Control_c, 5, 64, 0
6, 349440, Control_c, 5, 64, 127
6, 349440, Note_on_c, 5, 56, 45
6, 349680, Note_on_c, 5, 56, 0
6, 350340, Control_c, 5, 64, 0
6, 350400, Control_c, 5, 64, 127
6, 350400, Note_on_c, 5, 54, 46
6, 350640, Note_on_c, 5, 54, 0
6, 351300, Control_c, 5, 64, 0
6, 351360, Control_c, 5, 64, 127
6, 351360, Note_on_c, 5, 51, 52
6, 351600, Note_on_c, 5, 51, 0
6, 352260, Control_c, 5, 64, 0
6, 352320, Control_c, 5, 64, 127
6, 352320, Note_on_c, 5, 50, 59
6, 352560, Note_on_c, 5, 50, 0
6, 353220, Control_c, 5, 64, 0
6, 353280, Control_c, 5, 64, 127
6, 353280, Note_on_c, 5, 49, 55
6, 353520, Note_on_c, 5, 49, 0
6, 354180, Control_c, 5, 64, 0
6, 354240, Control_c, 5, 64, 127
6, 354240, Note_on_c, 5, 48, 65
6, 354480, Note_on_c, 5, 48, 0
6, 355140, Control_c, 5, 64, 0
6, 355200, Control_c, 5, 64, 127
6, 355200, Note_on_c, 5, 48, 61
6, 355440, Note_on_c, 5, 48, 0
6, 356100, Control_c, 5, 64, 0
6, 356160, Control_c, 5, 64, 127
6, 356160, Note_on_c, 5, 49, 58
6, 356400, Note_on_c, 5, 49, 0
6, 357060, Control_c, 5, 64, 0
6, 357120, Control_c, 5, 64, 127
6, 357120, Note_on_c, 5, 46, 55
6, 357360, Note_on_c, 5, 46, 0
6, 358020, Control_c, 5, 64, 0
6, 358080, Control_c, 5, 64, 127
6, 358080, Note_on_c, 5, 48, 52
6, 358320, Note_on_c, 5, 48, 0
6, 358980, Control_c, 5, 64, 0
6, 359040, Control_c, 5, 64, 127
6, 359040, Note_on_c, 5, 48, 50
6, 359280, Note_on_c, 5, 48, 0
6, 359940, Control_c, 5, 64, 0
6, 360000, Note_on_c, 5, 53, 47
6, 360385, Note_on_c, 5, 53, 0
6, 360960, Note_on_c, 5, 53, 43
6, 361440, Note_on_c, 5, 53, 0
6, 361440, Note_on_c, 5, 55, 44
6, 361825, Note_on_c, 5, 55, 0
6, 361920, Note_on_c, 5, 52, 44
6, 362305, Note_on_c, 5, 52, 0
6, 362880, Note_on_c, 5, 48, 46
6, 363360, Note_on_c, 5, 48, 0
6, 363360, Note_on_c, 5, 55, 47
6, 363745, Note_on_c, 5, 55, 0
6, 363840, Note_on_c, 5, 53, 47
6, 364225, Note_on_c, 5, 53, 0
6, 364800, Note_on_c, 5, 53, 49
6, 365280, Note_on_c, 5, 53, 0
6, 365280, Note_on_c, 5, 55, 50
6, 365665, Note_on_c, 5, 55, 0
6, 365760, Note_on_c, 5, 52, 50
6, 366145, Note_on_c, 5, 52, 0
6, 366720, Note_on_c, 5, 48, 52
6, 367200, Note_on_c, 5, 48, 0
6, 367200, Note_on_c, 5, 55, 52
6, 367585, Note_on_c, 5, 55, 0
6, 367680, Note_on_c, 5, 53, 53
6, 368160, Note_on_c, 5, 53, 0
6, 371520, Note_on_c, 5, 50, 50
6, 372480, Note_on_c, 5, 50, 0
6, 372480, Note_on_c, 5, 55, 39
6, 373440, Note_on_c, 5, 55, 0
6, 373440, Note_on_c, 5, 57, 49
6, 373825, Note_on_c, 5, 57, 0
6, 373920, Note_on_c, 5, 58, 44
6, 374305, Note_on_c, 5, 58, 0
6, 374400, Note_on_c, 5, 48, 40
6, 375245, Note_on_c, 5, 48, 0
6, 375360, Note_on_c, 5, 53, 36
6, 375745, Note_on_c, 5, 53, 0
6, 376320, Note_on_c, 5, 53, 37
6, 376800, Note_on_c, 5, 53, 0
6, 376800, Note_on_c, 5, 55, 38
6, 377185, Note_on_c, 5, 55, 0
6, 377280, Note_on_c, 5, 52, 39
6, 377665, Note_on_c, 5, 52, 0
6, 378240, Note_on_c, 5, 48, 40
6, 378720, Note_on_c, 5, 48, 0
6, 378720, Note_on_c, 5, 55, 41
6, 379105, Note_on_c, 5, 55, 0
6, 379200, Note_on_c, 5, 53, 42
6, 379585, Note_on_c, 5, 53, 0
6, 380160, Note_on_c, 5, 53, 43
6, 380640, Note_on_c, 5, 53, 0
6, 380640, Note_on_c, 5, 55, 44
6, 381025, Note_on_c, 5, 55, 0
6, 381120, Note_on_c, 5, 52, 44
6, 381505, Note_on_c, 5, 52, 0
6, 382080, Note_on_c, 5, 48, 46
6, 382560, Note_on_c, 5, 48, 0
6, 382560, Note_on_c, 5, 55, 47
6, 382945, Note_on_c, 5, 55, 0
6, 383040, Note_on_c, 5, 53, 47
6, 383425, Note_on_c, 5, 53, 0
6, 386880, Note_on_c, 5, 50, 43
6, 387840, Note_on_c, 5, 50, 0
6, 387840, Note_on_c, 5, 55, 34
6, 388800, Note_on_c, 5, 55, 0
6, 388800, Note_on_c, 5, 57, 43
6, 389185, Note_on_c, 5, 57, 0
6, 389280, Note_on_c, 5, 58, 40
6, 389665, Note_on_c, 5, 58, 0
6, 389760, Note_on_c, 5, 48, 36
6, 390615, Note_on_c, 5, 48, 0
6, 390960, Control_c, 5, 64, 127
6, 390960, Note_on_c, 5, 53, 50
6, 391200, Note_on_c, 5, 53, 0
6, 391620, Control_c, 5, 64, 0
6, 391920, Control_c, 5, 64, 127
6, 391920, Note_on_c, 5, 55, 56
6, 392160, Note_on_c, 5, 55, 0
6, 392580, Control_c, 5, 64, 0
6, 392880, Control_c, 5, 64, 127
6, 392880, Note_on_c, 5, 57, 62
6, 393120, Note_on_c, 5, 57, 0
6, 393300, Control_c, 5, 64, 0
6, 393600, Note_on_c, 5, 57, 66
6, 394560, Note_on_c, 5, 57, 0
6, 394560, Note_on_c, 5, 58, 61
6, 394945, Note_on_c, 5, 58, 0
6, 395520, Note_on_c, 5, 58, 55
6, 395905, Note_on_c, 5, 58, 0
6, 396480, Control_c, 5, 64, 127
6, 396480, Note_on_c, 5, 48, 53
6, 396720, Note_on_c, 5, 48, 0
6, 397380, Control_c, 5, 64, 0
6, 397440, Control_c, 5, 64, 127
6, 397440, Note_on_c, 5, 48, 58
6, 397680, Note_on_c, 5, 48, 0
6, 398340, Control_c, 5, 64, 0
6, 398400, Control_c, 5, 64, 127
6, 398400, Note_on_c, 5, 48, 58
6, 398640, Note_on_c, 5, 48, 0
6, 399300, Control_c, 5, 64, 0
6, 399360, Control_c, 5, 64, 127
6, 399360, Note_on_c, 5, 48, 50
6, 399600, Note_on_c, 5, 48, 0
6, 400260, Control_c, 5, 64, 0
6, 400320, Note_on_c, 5, 53, 42
6, 404100, Note_on_c, 5, 53, 0
6, 404160, Note_on_c, 5, 53, 46
6, 406800, Note_on_c, 5, 53, 0
6, 408000, Control_c, 5, 64, 127
6, 408000, Note_on_c, 5, 58, 34
6, 408240, Note_on_c, 5, 58, 0
6, 408900, Control_c, 5, 64, 0
6, 408960, Control_c, 5, 64, 127
6, 408960, Note_on_c, 5, 58, 39
6, 409200, Note_on_c, 5, 58, 0
6, 409860, Control_c, 5, 64, 0
6, 409920, Control_c, 5, 64, 127
6, 409920, Note_on_c, 5, 57, 47
6, 410160, Note_on_c, 5, 57, 0
6, 410820, Control_c, 5, 64, 0
6, 410880, Control_c, 5, 64, 127
6, 410880, Note_on_c, 5, 57, 41
6, 411120, Note_on_c, 5, 57, 0
6, 411780, Control_c, 5, 64, 0
6, 411840, Control_c, 5, 64, 127
6, 411840, Note_on_c, 5, 55, 42
6, 412080, Note_on_c, 5, 55, 0
6, 412740, Control_c, 5, 64, 0
6, 412800, Control_c, 5, 64, 127
6, 412800, Note_on_c, 5, 51, 47
6, 413040, Note_on_c, 5, 51, 0
6, 413700, Control_c, 5, 64, 0
6, 413760, Control_c, 5, 64, 127
6, 413760, Note_on_c, 5, 50, 55
6, 414000, Note_on_c, 5, 50, 0
6, 414660, Control_c, 5, 64, 0
6, 414720, Control_c, 5, 64, 127
6, 414720, Note_on_c, 5, 50, 50
6, 414960, Note_on_c, 5, 50, 0
6, 415620, Control_c, 5, 64, 0
6, 415680, Control_c, 5, 64, 127
6, 415680, Note_on_c, 5, 51, 53
6, 415920, Note_on_c, 5, 51, 0
6, 416100, Control_c, 5, 64, 0
6, 416160, Control_c, 5, 64, 127
6, 416580, Control_c, 5, 64, 0
6, 416640, Control_c, 5, 64, 127
6, 416640, Note_on_c, 5, 51, 46
6, 416880, Note_on_c, 5, 51, 0
6, 417060, Control_c, 5, 64, 0
6, 417120, Control_c, 5, 64, 127
6, 417540, Control_c, 5, 64, 0
6, 417600, Control_c, 5, 64, 127
6, 417600, Note_on_c, 5, 50, 49
6, 417840, Note_on_c, 5, 50, 0
6, 418020, Control_c, 5, 64, 0
6, 418080, Control_c, 5, 64, 127
6, 418500, Control_c, 5, 64, 0
6, 418560, Control_c, 5, 64, 127
6, 418560, Note_on_c, 5, 50, 43
6, 418740, Control_c, 5, 64, 0
6, 418800, Note_on_c, 5, 50, 0
6, 418800, Control_c, 5, 64, 127
6, 419460, Control_c, 5, 64, 0
6, 419520, Control_c, 5, 64, 127
6, 419520, Note_on_c, 5, 57, 52
6, 419760, Note_on_c, 5, 57, 0
6, 420420, Control_c, 5, 64, 0
6, 420480, Control_c, 5, 64, 127
6, 420480, Note_on_c, 5, 58, 49
6, 420720, Note_on_c, 5, 58, 0
6, 421380, Control_c, 5, 64, 0
6, 421440, Control_c, 5, 64, 127
6, 421440, Note_on_c, 5, 53, 43
6, 421680, Note_on_c, 5, 53, 0
6, 422340, Control_c, 5, 64, 0
6, 422400, Note_on_c, 5, 53, 38
6, 422760, Note_on_c, 5, 53, 0
6, 423360, Control_c, 5, 64, 127
6, 423360, Note_on_c, 5, 58, 40
6, 423600, Note_on_c, 5, 58, 0
6, 424260, Control_c, 5, 64, 0
6, 424320, Control_c, 5, 64, 127
6, 424320, Note_on_c, 5, 58, 45
6, 424560, Note_on_c, 5, 58, 0
6, 425220, Control_c, 5, 64, 0
6, 425280, Control_c, 5, 64, 127
6, 425280, Note_on_c, 5, 56, 53
6, 425520, Note_on_c, 5, 56, 0
6, 426180, Control_c, 5, 64, 0
6, 426240, Control_c, 5, 64, 127
6, 426240, Note_on_c, 5, 56, 48
6, 426480, Note_on_c, 5, 56, 0
6, 427140, Control_c, 5, 64, 0
6, 427200, Control_c, 5, 64, 127
6, 427200, Note_on_c, 5, 54, 48
6, 427440, Note_on_c, 5, 54, 0
6, 428100, Control_c, 5, 64, 0
6, 428160, Control_c, 5, 64, 127
6, 428160, Note_on_c, 5, 51, 55
6, 428400, Note_on_c, 5, 51, 0
6, 429060, Control_c, 5, 64, 0
6, 429120, Control_c, 5, 64, 127
6, 429120, Note_on_c, 5, 50, 65
6, 429360, Note_on_c, 5, 50, 0
6, 430020, Control_c, 5, 64, 0
6, 430080, Control_c, 5, 64, 127
6, 430080, Note_on_c, 5, 49, 59
6, 430320, Note_on_c, 5, 49, 0
6, 430980, Control_c, 5, 64, 0
6, 431040, Control_c, 5, 64, 127
6, 431040, Note_on_c, 5, 48, 69
6, 431280, Note_on_c, 5, 48, 0
6, 431940, Control_c, 5, 64, 0
6, 432000, Control_c, 5, 64, 127
6, 432000, Note_on_c, 5, 48, 61
6, 432240, Note_on_c, 5, 48, 0
6, 432900, Control_c, 5, 64, 0
6, 432960, Control_c, 5, 64, 127
6, 432960, Note_on_c, 5, 49, 54
6, 433200, Note_on_c, 5, 49, 0
6, 433860, Control_c, 5, 64, 0
6, 433920, Control_c, 5, 64, 127
6, 433920, Note_on_c, 5, 46, 49
6, 434160, Note_on_c, 5, 46, 0
6, 434820, Control_c, 5, 64, 0
6, 434880, Control_c, 5, 64, 127
6, 434880, Note_on_c, 5, 48, 45
6, 435120, Note_on_c, 5, 48, 0
6, 435780, Control_c, 5, 64, 0
6, 435840, Control_c, 5, 64, 127
6, 435840, Note_on_c, 5, 48, 40
6, 436080, Note_on_c, 5, 48, 0
6, 436740, Control_c, 5, 64, 0
6, 436800, Note_on_c, 5, 53, 38
6, 437185, Note_on_c, 5, 53, 0
6, 437760, Note_on_c, 5, 58, 40
6, 438240, Note_on_c, 5, 58, 0
6, 438240, Note_on_c, 5, 60, 40
6, 438480, Note_on_c, 5, 60, 0
6, 438720, Note_on_c, 5, 57, 41
6, 439105, Note_on_c, 5, 57, 0
6, 439680, Note_on_c, 5, 53, 43
6, 440160, Note_on_c, 5, 53, 0
6, 440160, Note_on_c, 5, 60, 44
6, 440545, Note_on_c, 5, 60, 0
6, 440640, Note_on_c, 5, 58, 45
6, 441025, Note_on_c, 5, 58, 0
6, 441600, Note_on_c, 5, 58, 47
6, 442080, Note_on_c, 5, 58, 0
6, 442080, Note_on_c, 5, 60, 48
6, 442465, Note_on_c, 5, 60, 0
6, 442560, Note_on_c, 5, 57, 49
6, 442945, Note_on_c, 5, 57, 0
6, 443520, Note_on_c, 5, 53, 51
6, 444000, Note_on_c, 5, 53, 0
6, 444000, Note_on_c, 5, 60, 52
6, 444385, Note_on_c, 5, 60, 0
6, 444480, Note_on_c, 5, 58, 55
6, 444865, Note_on_c, 5, 58, 0
6, 445440, Note_on_c, 5, 70, 60
6, 445680, Note_on_c, 5, 70, 0
6, 445680, Note_on_c, 5, 69, 55
6, 445920, Note_on_c, 5, 69, 0
6, 445920, Note_on_c, 5, 67, 52
6, 446160, Note_on_c, 5, 67, 0
6, 446160, Note_on_c, 5, 66, 48
6, 446350, Note_on_c, 5, 66, 0
6, 446400, Note_on_c, 5, 67, 55
6, 446640, Note_on_c, 5, 67, 0
6, 446640, Note_on_c, 5, 65, 52
6, 446880, Note_on_c, 5, 65, 0
6, 446880, Note_on_c, 5, 63, 49
6, 447120, Note_on_c, 5, 63, 0
6, 447120, Note_on_c, 5, 62, 47
6, 447310, Note_on_c, 5, 62, 0
6, 447360, Note_on_c, 5, 63, 53
6, 447600, Note_on_c, 5, 63, 0
6, 447600, Note_on_c, 5, 62, 48
6, 447840, Note_on_c, 5, 62, 0
6, 447840, Note_on_c, 5, 60, 45
6, 448080, Note_on_c, 5, 60, 0
6, 448080, Note_on_c, 5, 59, 42
6, 448270, Note_on_c, 5, 59, 0
6, 448320, Note_on_c, 5, 55, 47
6, 449280, Note_on_c, 5, 55, 0
6, 449280, Note_on_c, 5, 60, 37
6, 450240, Note_on_c, 5, 60, 0
6, 450240, Note_on_c, 5, 62, 49
6, 450625, Note_on_c, 5, 62, 0
6, 450720, Note_on_c, 5, 63, 43
6, 451105, Note_on_c, 5, 63, 0
6, 451200, Note_on_c, 5, 53, 38
6, 452045, Note_on_c, 5, 53, 0
6, 452160, Note_on_c, 5, 53, 36
6, 452545, Note_on_c, 5, 53, 0
6, 453120, Note_on_c, 5, 58, 38
6, 453360, Note_on_c, 5, 58, 0
6, 453600, Note_on_c, 5, 60, 39
6, 453840, Note_on_c, 5, 60, 0
6, 454080, Note_on_c, 5, 57, 40
6, 454445, Note_on_c, 5, 57, 0
6, 455040, Note_on_c, 5, 53, 42
6, 455520, Note_on_c, 5, 53, 0
6, 455520, Note_on_c, 5, 60, 43
6, 455905, Note_on_c, 5, 60, 0
6, 456000, Note_on_c, 5, 58, 44
6, 456385, Note_on_c, 5, 58, 0
6, 456960, Note_on_c, 5, 58, 46
6, 457440, Note_on_c, 5, 58, 0
6, 457440, Note_on_c, 5, 60, 46
6, 457825, Note_on_c, 5, 60, 0
6, 457920, Note_on_c, 5, 57, 47
6, 458305, Note_on_c, 5, 57, 0
6, 458880, Note_on_c, 5, 53, 49
6, 459360, Note_on_c, 5, 53, 0
6, 459360, Note_on_c, 5, 60, 50
6, 459745, Note_on_c, 5, 60, 0
6, 459840, Note_on_c, 5, 58, 51
6, 460225, Note_on_c, 5, 58, 0
6, 460800, Note_on_c, 5, 70, 59
6, 461040, Note_on_c, 5, 70, 0
6, 461040, Note_on_c, 5, 69, 57
6, 461280, Note_on_c, 5, 69, 0
6, 461280, Note_on_c, 5, 67, 53
6, 461520, Note_on_c, 5, 67, 0
6, 461520, Note_on_c, 5, 66, 50
6, 461760, Note_on_c, 5, 66, 0
6, 461760, Note_on_c, 5, 67, 53
6, 462000, Note_on_c, 5, 67, 0
6, 462000, Note_on_c, 5, 65, 51
6, 462240, Note_on_c, 5, 65, 0
6, 462240, Note_on_c, 5, 63, 48
6, 462480, Note_on_c, 5, 63, 0
6, 462480, Note_on_c, 5, 62, 45
6, 462670, Note_on_c, 5, 62, 0
6, 462720, Note_on_c, 5, 63, 46
6, 462960, Note_on_c, 5, 63, 0
6, 462960, Note_on_c, 5, 62, 43
6, 463200, Note_on_c, 5, 62, 0
6, 463200, Note_on_c, 5, 60, 41
6, 463440, Note_on_c, 5, 60, 0
6, 463440, Note_on_c, 5, 59, 38
6, 463630, Note_on_c, 5, 59, 0
6, 463680, Note_on_c, 5, 55, 46
6, 464640, Note_on_c, 5, 55, 0
6, 464640, Note_on_c, 5, 60, 40
6, 465600, Note_on_c, 5, 60, 0
6, 465600, Note_on_c, 5, 62, 51
6, 465985, Note_on_c, 5, 62, 0
6, 466080, Note_on_c, 5, 63, 46
6, 466465, Note_on_c, 5, 63, 0
6, 466560, Note_on_c, 5, 53, 41
6, 467405, Note_on_c, 5, 53, 0
6, 467760, Control_c, 5, 64, 127
6, 467760, Note_on_c, 5, 46, 66
6, 468005, Note_on_c, 5, 46, 0
6, 468420, Control_c, 5, 64, 0
6, 468720, Control_c, 5, 64, 127
6, 468720, Note_on_c, 5, 48, 70
6, 468965, Note_on_c, 5, 48, 0
6, 469380, Control_c, 5, 64, 0
6, 469680, Control_c, 5, 64, 127
6, 469680, Note_on_c, 5, 50, 75
6, 469925, Note_on_c, 5, 50, 0
6, 470340, Control_c, 5, 64, 0
6, 470400, Note_on_c, 5, 50, 73
6, 471360, Note_on_c, 5, 50, 0
6, 471360, Note_on_c, 5, 51, 68
6, 471745, Note_on_c, 5, 51, 0
6, 472320, Note_on_c, 5, 51, 62
6, 472705, Note_on_c, 5, 51, 0
6, 473280, Control_c, 5, 64, 127
6, 473280, Note_on_c, 5, 53, 56
6, 473520, Note_on_c, 5, 53, 0
6, 474180, Control_c, 5, 64, 0
6, 474240, Control_c, 5, 64, 127
6, 474240, Note_on_c, 5, 53, 61
6, 474480, Note_on_c, 5, 53, 0
6, 475140, Control_c, 5, 64, 0
6, 475200, Control_c, 5, 64, 127
6, 475200, Note_on_c, 5, 53, 68
6, 475440, Note_on_c, 5, 53, 0
6, 476100, Control_c, 5, 64, 0
6, 476160, Control_c, 5, 64, 127
6, 476160, Note_on_c, 5, 53, 61
6, 476400, Note_on_c, 5, 53, 0
6, 477060, Control_c, 5, 64, 0
6, 477120, Note_on_c, 5, 58, 55
6, 480900, Note_on_c, 5, 58, 0
6, 480960, Note_on_c, 5, 58, 45
6, 481920, Note_on_c, 5, 58, 0
6, 481920, Note_on_c, 5, 58, 42
6, 482825, Note_on_c, 5, 58, 0
6, 482880, Note_on_c, 5, 58, 40
6, 482880, Note_on_c, 5, 46, 40
6, 484320, Note_on_c, 5, 46, 0
6, 484325, Note_on_c, 5, 58, 0
6, 484800, Control_c, 5, 64, 0
6, 484800, Note_on_c, 5, 53, 85
6, 484800, Note_on_c, 5, 41, 85
6, 485520, Note_on_c, 5, 41, 0
6, 485520, Note_on_c, 5, 53, 0
6, 488400, Note_on_c, 5, 57, 82
6, 488590, Note_on_c, 5, 57, 0
6, 488640, Note_on_c, 5, 55, 84
6, 488830, Note_on_c, 5, 55, 0
6, 488880, Note_on_c, 5, 57, 86
6, 489070, Note_on_c, 5, 57, 0
6, 489120, Note_on_c, 5, 58, 88
6, 489310, Note_on_c, 5, 58, 0
6, 489360, Note_on_c, 5, 57, 90
6, 489550, Note_on_c, 5, 57, 0
6, 489600, Note_on_c, 5, 58, 92
6, 489790, Note_on_c, 5, 58, 0
6, 489840, Note_on_c, 5, 60, 94
6, 490030, Note_on_c, 5, 60, 0
6, 490080, Note_on_c, 5, 58, 96
6, 490270, Note_on_c, 5, 58, 0
6, 490320, Note_on_c, 5, 60, 98
6, 490510, Note_on_c, 5, 60, 0
6, 490560, Note_on_c, 5, 62, 104
6, 491040, Note_on_c, 5, 62, 0
6, 491040, Note_on_c, 5, 60, 94
6, 491230, Note_on_c, 5, 60, 0
6, 491280, Note_on_c, 5, 62, 103
6, 491760, Note_on_c, 5, 62, 0
6, 491760, Note_on_c, 5, 60, 90
6, 491950, Note_on_c, 5, 60, 0
6, 492000, Note_on_c, 5, 59, 86
6, 492190, Note_on_c, 5, 59, 0
6, 492240, Note_on_c, 5, 59, 78
6, 492430, Note_on_c, 5, 59, 0
6, 492480, Note_on_c, 5, 59, 70
6, 492670, Note_on_c, 5, 59, 0
6, 492720, Note_on_c, 5, 60, 63
6, 493005, Note_on_c, 5, 60, 0
6, 493440, Note_on_c, 5, 41, 81
6, 493440, Note_on_c, 5, 53, 81
6, 494160, Note_on_c, 5, 53, 0
6, 494160, Note_on_c, 5, 41, 0
6, 497040, Note_on_c, 5, 57, 76
6, 497230, Note_on_c, 5, 57, 0
6, 497280, Note_on_c, 5, 55, 78
6, 497470, Note_on_c, 5, 55, 0
6, 497520, Note_on_c, 5, 57, 80
6, 497710, Note_on_c, 5, 57, 0
6, 497760, Note_on_c, 5, 58, 82
6, 497950, Note_on_c, 5, 58, 0
6, 498000, Note_on_c, 5, 57, 84
6, 498190, Note_on_c, 5, 57, 0
6, 498240, Note_on_c, 5, 58, 86
6, 498430, Note_on_c, 5, 58, 0
6, 498480, Note_on_c, 5, 60, 89
6, 498670, Note_on_c, 5, 60, 0
6, 498720, Note_on_c, 5, 58, 91
6, 498910, Note_on_c, 5, 58, 0
6, 498960, Note_on_c, 5, 60, 93
6, 499150, Note_on_c, 5, 60, 0
6, 499200, Note_on_c, 5, 62, 100
6, 499680, Note_on_c, 5, 62, 0
6, 499680, Note_on_c, 5, 60, 90
6, 499870, Note_on_c, 5, 60, 0
6, 499920, Note_on_c, 5, 62, 97
6, 500400, Note_on_c, 5, 62, 0
6, 500400, Note_on_c, 5, 60, 85
6, 500590, Note_on_c, 5, 60, 0
6, 500640, Note_on_c, 5, 59, 80
6, 500830, Note_on_c, 5, 59, 0
6, 501360, Note_on_c, 5, 58, 64
6, 501550, Note_on_c, 5, 58, 0
6, 502080, Note_on_c, 5, 57, 48
6, 502270, Note_on_c, 5, 57, 0
6, 502800, Note_on_c, 5, 46, 67
6, 502920, Note_on_c, 5, 46, 0
6, 503520, Note_on_c, 5, 48, 86
6, 504240, Note_on_c, 5, 48, 0
6, 504240, Note_on_c, 5, 53, 65
6, 504600, Note_on_c, 5, 53, 0
6, 504960, Note_on_c, 5, 48, 57
6, 505920, Note_on_c, 5, 48, 0
6, 506400, Note_on_c, 5, 53, 57
6, 507360, Note_on_c, 5, 53, 0
6, 507840, Note_on_c, 5, 48, 52
6, 508800, Note_on_c, 5, 48, 0
6, 509280, Note_on_c, 5, 53, 55
6, 510240, Note_on_c, 5, 53, 0
6, 510720, Note_on_c, 5, 48, 50
6, 511680, Note_on_c, 5, 48, 0
6, 512160, Note_on_c, 5, 53, 54
6, 513120, Note_on_c, 5, 53, 0
6, 513600, Note_on_c, 5, 48, 67
6, 514560, Note_on_c, 5, 48, 0
6, 515040, Control_c, 5, 64, 0
6, 515520, Note_on_c, 5, 45, 82
6, 515675, Note_on_c, 5, 45, 0
6, 515760, Note_on_c, 5, 46, 84
6, 515915, Note_on_c, 5, 46, 0
6, 516240, Note_on_c, 5, 47, 87
6, 516395, Note_on_c, 5, 47, 0
6, 516480, Note_on_c, 5, 48, 88
6, 516635, Note_on_c, 5, 48, 0
6, 516960, Note_on_c, 5, 49, 92
6, 517115, Note_on_c, 5, 49, 0
6, 517200, Note_on_c, 5, 50, 93
6, 517355, Note_on_c, 5, 50, 0
6, 517680, Note_on_c, 5, 52, 97
6, 517835, Note_on_c, 5, 52, 0
6, 518640, Note_on_c, 5, 58, 90
6, 519360, Note_on_c, 5, 58, 0
6, 519360, Note_on_c, 5, 57, 78
6, 519600, Note_on_c, 5, 57, 0
6, 520080, Note_on_c, 5, 60, 65
6, 520560, Note_on_c, 5, 60, 0
6, 520560, Note_on_c, 5, 61, 57
6, 520750, Note_on_c, 5, 61, 0
6, 520800, Note_on_c, 5, 62, 60
6, 521705, Note_on_c, 5, 62, 0
6, 522720, Note_on_c, 5, 45, 75
6, 522875, Note_on_c, 5, 45, 0
6, 522960, Note_on_c, 5, 46, 76
6, 523115, Note_on_c, 5, 46, 0
6, 523440, Note_on_c, 5, 47, 80
6, 523595, Note_on_c, 5, 47, 0
6, 523680, Note_on_c, 5, 48, 81
6, 523835, Note_on_c, 5, 48, 0
6, 524160, Note_on_c, 5, 49, 84
6, 524315, Note_on_c, 5, 49, 0
6, 524400, Note_on_c, 5, 50, 86
6, 524555, Note_on_c, 5, 50, 0
6, 524880, Note_on_c, 5, 52, 91
6, 525035, Note_on_c, 5, 52, 0
6, 525840, Note_on_c, 5, 58, 82
6, 526560, Note_on_c, 5, 58, 0
6, 526560, Note_on_c, 5, 57, 71
6, 526800, Note_on_c, 5, 57, 0
6, 527280, Note_on_c, 5, 58, 61
6, 527520, Note_on_c, 5, 58, 0
6, 528000, Note_on_c, 5, 48, 50
6, 529380, Note_on_c, 5, 48, 0
6, 529440, Note_on_c, 5, 53, 52
6, 530160, Note_on_c, 5, 53, 0
6, 530160, Note_on_c, 5, 53, 61
6, 530825, Note_on_c, 5, 53, 0
6, 530880, Note_on_c, 5, 53, 48
6, 531600, Note_on_c, 5, 53, 0
6, 531600, Note_on_c, 5, 53, 55
6, 532260, Note_on_c, 5, 53, 0
6, 532320, Note_on_c, 5, 53, 41
6, 533040, Note_on_c, 5, 53, 0
6, 533040, Note_on_c, 5, 53, 36
6, 533705, Note_on_c, 5, 53, 0
6, 533760, Note_on_c, 5, 53, 38
6, 533760, Note_on_c, 5, 41, 38
6, 534725, Note_on_c, 5, 41, 0
6, 534725, Note_on_c, 5, 53, 0
6, 536640, Note_on_c, 5, 57, 95
6, 536640, Note_on_c, 5, 45, 95
6, 537285, Note_on_c, 5, 45, 0
6, 537285, Note_on_c, 5, 57, 0
6, 537360, Note_on_c, 5, 43, 92
6, 537360, Note_on_c, 5, 55, 92
6, 537935, Note_on_c, 5, 55, 0
6, 537935, Note_on_c, 5, 43, 0
6, 538080, Note_on_c, 5, 53, 90
6, 538080, Note_on_c, 5, 41, 90
6, 538710, Note_on_c, 5, 41, 0
6, 538725, Note_on_c, 5, 53, 0
6, 538800, Note_on_c, 5, 52, 87
6, 538800, Note_on_c, 5, 40, 87
6, 539375, Note_on_c, 5, 40, 0
6, 539375, Note_on_c, 5, 52, 0
6, 539520, Note_on_c, 5, 50, 68
6, 539880, Note_on_c, 5, 50, 0
6, 540240, Note_on_c, 5, 49, 75
6, 540600, Note_on_c, 5, 49, 0
6, 540960, Note_on_c, 5, 50, 82
6, 541320, Note_on_c, 5, 50, 0
6, 541680, Note_on_c, 5, 48, 90
6, 542040, Note_on_c, 5, 48, 0
6, 542400, Note_on_c, 5, 47, 99
6, 542880, Note_on_c, 5, 47, 0
6, 543840, Note_on_c, 5, 67, 89
6, 544475, Note_on_c, 5, 67, 0
6, 544560, Note_on_c, 5, 65, 84
6, 545135, Note_on_c, 5, 65, 0
6, 545280, Note_on_c, 5, 64, 79
6, 545925, Note_on_c, 5, 64, 0
6, 546000, Note_on_c, 5, 62, 72
6, 546575, Note_on_c, 5, 62, 0
6, 546720, Note_on_c, 5, 60, 58
6, 547080, Note_on_c, 5, 60, 0
6, 547440, Note_on_c, 5, 59, 62
6, 547800, Note_on_c, 5, 59, 0
6, 548160, Note_on_c, 5, 60, 67
6, 548400, Note_on_c, 5, 60, 0
6, 549600, Note_on_c, 5, 53, 76
6, 549755, Note_on_c, 5, 53, 0
6, 549840, Note_on_c, 5, 65, 78
6, 549995, Note_on_c, 5, 65, 0
6, 550320, Note_on_c, 5, 47, 81
6, 550475, Note_on_c, 5, 47, 0
6, 550560, Note_on_c, 5, 59, 82
6, 550715, Note_on_c, 5, 59, 0
6, 551040, Note_on_c, 5, 52, 85
6, 551195, Note_on_c, 5, 52, 0
6, 551280, Note_on_c, 5, 64, 87
6, 551435, Note_on_c, 5, 64, 0
6, 551760, Note_on_c, 5, 45, 90
6, 551915, Note_on_c, 5, 45, 0
6, 552000, Note_on_c, 5, 57, 91
6, 552155, Note_on_c, 5, 57, 0
6, 552480, Note_on_c, 5, 50, 94
6, 552670, Note_on_c, 5, 50, 0
6, 552960, Note_on_c, 5, 59, 97
6, 553150, Note_on_c, 5, 59, 0
6, 553200, Note_on_c, 5, 60, 99
6, 553390, Note_on_c, 5, 60, 0
6, 553680, Note_on_c, 5, 48, 102
6, 553870, Note_on_c, 5, 48, 0
6, 553920, Note_on_c, 5, 55, 103
6, 554110, Note_on_c, 5, 55, 0
6, 555360, Note_on_c, 5, 60, 38
6, 555720, Note_on_c, 5, 60, 0
6, 556080, Note_on_c, 5, 60, 41
6, 556440, Note_on_c, 5, 60, 0
6, 556800, Note_on_c, 5, 59, 49
6, 557160, Note_on_c, 5, 59, 0
6, 557520, Note_on_c, 5, 59, 45
6, 557880, Note_on_c, 5, 59, 0
6, 558240, Note_on_c, 5, 59, 45
6, 558600, Note_on_c, 5, 59, 0
6, 558960, Note_on_c, 5, 59, 49
6, 559320, Note_on_c, 5, 59, 0
6, 559680, Note_on_c, 5, 60, 57
6, 560040, Note_on_c, 5, 60, 0
6, 560400, Note_on_c, 5, 60, 53
6, 560760, Note_on_c, 5, 60, 0
6, 561120, Note_on_c, 5, 63, 71
6, 561480, Note_on_c, 5, 63, 0
6, 561840, Note_on_c, 5, 62, 67
6, 562200, Note_on_c, 5, 62, 0
6, 562560, Note_on_c, 5, 60, 63
6, 562920, Note_on_c, 5, 60, 0
6, 563280, Note_on_c, 5, 58, 60
6, 563640, Note_on_c, 5, 58, 0
6, 564000, Note_on_c, 5, 56, 56
6, 564360, Note_on_c, 5, 56, 0
6, 564720, Note_on_c, 5, 56, 52
6, 565080, Note_on_c, 5, 56, 0
6, 565440, Note_on_c, 5, 55, 48
6, 565800, Note_on_c, 5, 55, 0
6, 566160, Note_on_c, 5, 55, 44
6, 566520, Note_on_c, 5, 55, 0
6, 566880, Note_on_c, 5, 60, 42
6, 567240, Note_on_c, 5, 60, 0
6, 567600, Note_on_c, 5, 60, 48
6, 567960, Note_on_c, 5, 60, 0
6, 568320, Note_on_c, 5, 59, 55
6, 568680, Note_on_c, 5, 59, 0
6, 569040, Note_on_c, 5, 59, 51
6, 569400, Note_on_c, 5, 59, 0
6, 569760, Note_on_c, 5, 59, 51
6, 570120, Note_on_c, 5, 59, 0
6, 570480, Note_on_c, 5, 59, 57
6, 570840, Note_on_c, 5, 59, 0
6, 571200, Note_on_c, 5, 58, 65
6, 571560, Note_on_c, 5, 58, 0
6, 571920, Note_on_c, 5, 57, 60
6, 572280, Note_on_c, 5, 57, 0
6, 572640, Note_on_c, 5, 56, 81
6, 573000, Note_on_c, 5, 56, 0
6, 573360, Note_on_c, 5, 55, 74
6, 573720, Note_on_c, 5, 55, 0
6, 574080, Note_on_c, 5, 53, 68
6, 574440, Note_on_c, 5, 53, 0
6, 574800, Note_on_c, 5, 51, 61
6, 575160, Note_on_c, 5, 51, 0
6, 575520, Note_on_c, 5, 55, 55
6, 575880, Note_on_c, 5, 55, 0
6, 576240, Note_on_c, 5, 55, 46
6, 576600, Note_on_c, 5, 55, 0
6, 576960, Note_on_c, 5, 60, 78
6, 577345, Note_on_c, 5, 60, 0
6, 577680, Note_on_c, 5, 62, 81
6, 577835, Note_on_c, 5, 62, 0
6, 577920, Note_on_c, 5, 59, 82
6, 578075, Note_on_c, 5, 59, 0
6, 578160, Note_on_c, 5, 55, 83
6, 578315, Note_on_c, 5, 55, 0
6, 578400, Note_on_c, 5, 60, 84
6, 578785, Note_on_c, 5, 60, 0
6, 579120, Note_on_c, 5, 62, 88
6, 579275, Note_on_c, 5, 62, 0
6, 579360, Note_on_c, 5, 59, 89
6, 579515, Note_on_c, 5, 59, 0
6, 579600, Note_on_c, 5, 55, 90
6, 579755, Note_on_c, 5, 55, 0
6, 579840, Note_on_c, 5, 60, 91
6, 580225, Note_on_c, 5, 60, 0
6, 580560, Note_on_c, 5, 62, 94
6, 580715, Note_on_c, 5, 62, 0
6, 580800, Note_on_c, 5, 59, 95
6, 580955, Note_on_c, 5, 59, 0
6, 581040, Note_on_c, 5, 55, 96
6, 581195, Note_on_c, 5, 55, 0
6, 581280, Note_on_c, 5, 60, 97
6, 581665, Note_on_c, 5, 60, 0
6, 584400, Note_on_c, 5, 45, 61
6, 584640, Note_on_c, 5, 45, 0
6, 584640, Note_on_c, 5, 48, 67
6, 584880, Note_on_c, 5, 48, 0
6, 584880, Note_on_c, 5, 51, 72
6, 585120, Note_on_c, 5, 51, 0
6, 585120, Note_on_c, 5, 50, 67
6, 585360, Note_on_c, 5, 50, 0
6, 585360, Note_on_c, 5, 48, 62
6, 585780, Note_on_c, 5, 48, 0
6, 585840, Note_on_c, 5, 47, 53
6, 586080, Note_on_c, 5, 47, 0
6, 586080, Note_on_c, 5, 50, 56
6, 586320, Note_on_c, 5, 50, 0
6, 586320, Note_on_c, 5, 56, 60
6, 586560, Note_on_c, 5, 56, 0
6, 586560, Note_on_c, 5, 55, 56
6, 586800, Note_on_c, 5, 55, 0
6, 586800, Note_on_c, 5, 53, 51
6, 586990, Note_on_c, 5, 53, 0
6, 587040, Note_on_c, 5, 52, 47
6, 587280, Note_on_c, 5, 52, 0
6, 587760, Note_on_c, 5, 53, 43
6, 588000, Note_on_c, 5, 53, 0
6, 588480, Note_on_c, 5, 55, 41
6, 589800, Note_on_c, 5, 55, 0
6, 589920, Note_on_c, 5, 60, 72
6, 590305, Note_on_c, 5, 60, 0
6, 590640, Note_on_c, 5, 62, 74
6, 590795, Note_on_c, 5, 62, 0
6, 590880, Note_on_c, 5, 59, 75
6, 591035, Note_on_c, 5, 59, 0
6, 591120, Note_on_c, 5, 55, 75
6, 591275, Note_on_c, 5, 55, 0
6, 591360, Note_on_c, 5, 60, 76
6, 591745, Note_on_c, 5, 60, 0
6, 592080, Note_on_c, 5, 62, 78
6, 592235, Note_on_c, 5, 62, 0
6, 592320, Note_on_c, 5, 59, 79
6, 592475, Note_on_c, 5, 59, 0
6, 592560, Note_on_c, 5, 55, 80
6, 592715, Note_on_c, 5, 55, 0
6, 592800, Note_on_c, 5, 60, 81
6, 593185, Note_on_c, 5, 60, 0
6, 593520, Note_on_c, 5, 62, 83
6, 593675, Note_on_c, 5, 62, 0
6, 593760, Note_on_c, 5, 59, 83
6, 593915, Note_on_c, 5, 59, 0
6, 594000, Note_on_c, 5, 55, 84
6, 594155, Note_on_c, 5, 55, 0
6, 594240, Note_on_c, 5, 60, 85
6, 594625, Note_on_c, 5, 60, 0
6, 597360, Note_on_c, 5, 45, 57
6, 597600, Note_on_c, 5, 45, 0
6, 597600, Note_on_c, 5, 48, 60
6, 597840, Note_on_c, 5, 48, 0
6, 597840, Note_on_c, 5, 51, 63
6, 598080, Note_on_c, 5, 51, 0
6, 598080, Note_on_c, 5, 50, 60
6, 598320, Note_on_c, 5, 50, 0
6, 598320, Note_on_c, 5, 48, 56
6, 598745, Note_on_c, 5, 48, 0
6, 598800, Note_on_c, 5, 47, 47
6, 599040, Note_on_c, 5, 47, 0
6, 599040, Note_on_c, 5, 50, 50
6, 599280, Note_on_c, 5, 50, 0
6, 599280, Note_on_c, 5, 56, 53
6, 599520, Note_on_c, 5, 56, 0
6, 599520, Note_on_c, 5, 55, 50
6, 599760, Note_on_c, 5, 55, 0
6, 599760, Note_on_c, 5, 53, 47
6, 599950, Note_on_c, 5, 53, 0
6, 600000, Note_on_c, 5, 52, 44
6, 600240, Note_on_c, 5, 52, 0
6, 600720, Note_on_c, 5, 53, 38
6, 600960, Note_on_c, 5, 53, 0
6, 601440, Note_on_c, 5, 55, 33
6, 602160, Note_on_c, 5, 55, 0
6, 602160, Note_on_c, 5, 53, 26
6, 602760, Note_on_c, 5, 53, 0
6, 602880, Note_on_c, 5, 52, 89
6, 603240, Note_on_c, 5, 52, 0
6, 603600, Note_on_c, 5, 53, 87
6, 603960, Note_on_c, 5, 53, 0
6, 604320, Note_on_c, 5, 55, 85
6, 604680, Note_on_c, 5, 55, 0
6, 605040, Note_on_c, 5, 55, 83
6, 605400, Note_on_c, 5, 55, 0
6, 605760, Note_on_c, 5, 60, 81
6, 606240, Note_on_c, 5, 60, 0
6, 606480, Note_on_c, 5, 55, 80
6, 606960, Note_on_c, 5, 55, 0
6, 607200, Note_on_c, 5, 60, 78
6, 607680, Note_on_c, 5, 60, 0
6, 607920, Note_on_c, 5, 55, 76
6, 608400, Note_on_c, 5, 55, 0
6, 608640, Note_on_c, 5, 48, 74
6, 609120, Note_on_c, 5, 48, 0
6, 609360, Note_on_c, 5, 43, 72
6, 609840, Note_on_c, 5, 43, 0
6, 610080, Note_on_c, 5, 36, 70
6, 610235, Note_on_c, 5, 36, 0
6, 610320, Note_on_c, 5, 40, 73
6, 610475, Note_on_c, 5, 40, 0
6, 610560, Note_on_c, 5, 43, 75
6, 610715, Note_on_c, 5, 43, 0
6, 610800, Note_on_c, 5, 48, 78
6, 610955, Note_on_c, 5, 48, 0
6, 611040, Note_on_c, 5, 52, 80
6, 611195, Note_on_c, 5, 52, 0
6, 611280, Note_on_c, 5, 55, 83
6, 611435, Note_on_c, 5, 55, 0
6, 611520, Note_on_c, 5, 60, 86
6, 611905, Note_on_c, 5, 60, 0
6, 612240, Note_on_c, 5, 48, 89
6, 612625, Note_on_c, 5, 48, 0
6, 612960, Note_on_c, 5, 48, 92
6, 613345, Note_on_c, 5, 48, 0
6, 614400, Note_on_c, 5, 36, 93
6, 614400, Note_on_c, 5, 48, 93
6, 615120, Note_on_c, 5, 48, 0
6, 615120, Note_on_c, 5, 36, 0
6, 618000, Note_on_c, 5, 51, 83
6, 618190, Note_on_c, 5, 51, 0
6, 618240, Note_on_c, 5, 50, 84
6, 618430, Note_on_c, 5, 50, 0
6, 618480, Note_on_c, 5, 51, 86
6, 618670, Note_on_c, 5, 51, 0
6, 618720, Note_on_c, 5, 53, 87
6, 618910, Note_on_c, 5, 53, 0
6, 618960, Note_on_c, 5, 51, 88
6, 619150, Note_on_c, 5, 51, 0
6, 619200, Note_on_c, 5, 53, 89
6, 619390, Note_on_c, 5, 53, 0
6, 619440, Note_on_c, 5, 55, 90
6, 619630, Note_on_c, 5, 55, 0
6, 619680, Note_on_c, 5, 53, 91
6, 619870, Note_on_c, 5, 53, 0
6, 619920, Note_on_c, 5, 55, 92
6, 620110, Note_on_c, 5, 55, 0
6, 620160, Note_on_c, 5, 56, 102
6, 620640, Note_on_c, 5, 56, 0
6, 620640, Note_on_c, 5, 55, 91
6, 620830, Note_on_c, 5, 55, 0
6, 620880, Note_on_c, 5, 56, 97
6, 621360, Note_on_c, 5, 56, 0
6, 621360, Note_on_c, 5, 55, 89
6, 621550, Note_on_c, 5, 55, 0
6, 621600, Note_on_c, 5, 54, 86
6, 621840, Note_on_c, 5, 54, 0
6, 621840, Note_on_c, 5, 55, 86
6, 622080, Note_on_c, 5, 55, 0
6, 622080, Note_on_c, 5, 54, 86
6, 622320, Note_on_c, 5, 54, 0
6, 622320, Note_on_c, 5, 55, 85
6, 622560, Note_on_c, 5, 55, 0
6, 622560, Note_on_c, 5, 56, 85
6, 622800, Note_on_c, 5, 56, 0
6, 622800, Note_on_c, 5, 55, 85
6, 622995, Note_on_c, 5, 55, 0
6, 623040, Note_on_c, 5, 54, 84
6, 623280, Note_on_c, 5, 54, 0
6, 623280, Note_on_c, 5, 55, 84
6, 623520, Note_on_c, 5, 55, 0
6, 623520, Note_on_c, 5, 54, 83
6, 623760, Note_on_c, 5, 54, 0
6, 623760, Note_on_c, 5, 55, 83
6, 624000, Note_on_c, 5, 55, 0
6, 624000, Note_on_c, 5, 56, 83
6, 624240, Note_on_c, 5, 56, 0
6, 624240, Note_on_c, 5, 55, 82
6, 624440, Note_on_c, 5, 55, 0
6, 624600, Note_on_c, 5, 54, 82
6, 624720, Note_on_c, 5, 54, 0
6, 624720, Note_on_c, 5, 57, 83
6, 624840, Note_on_c, 5, 57, 0
6, 624840, Note_on_c, 5, 60, 84
6, 624960, Note_on_c, 5, 60, 0
6, 624960, Note_on_c, 5, 62, 84
6, 625055, Note_on_c, 5, 62, 0
6, 625320, Note_on_c, 5, 62, 86
6, 625440, Note_on_c, 5, 62, 0
6, 625440, Note_on_c, 5, 66, 87
6, 625560, Note_on_c, 5, 66, 0
6, 625560, Note_on_c, 5, 69, 88
6, 625680, Note_on_c, 5, 69, 0
6, 625680, Note_on_c, 5, 72, 88
6, 625775, Note_on_c, 5, 72, 0
6, 627360, Note_on_c, 5, 55, 77
6, 627600, Note_on_c, 5, 55, 0
6, 627600, Note_on_c, 5, 56, 77
6, 627840, Note_on_c, 5, 56, 0
6, 627840, Note_on_c, 5, 55, 76
6, 628080, Note_on_c, 5, 55, 0
6, 628080, Note_on_c, 5, 56, 76
6, 628320, Note_on_c, 5, 56, 0
6, 628320, Note_on_c, 5, 58, 75
6, 628560, Note_on_c, 5, 58, 0
6, 628560, Note_on_c, 5, 56, 75
6, 628770, Note_on_c, 5, 56, 0
6, 628800, Note_on_c, 5, 55, 74
6, 629040, Note_on_c, 5, 55, 0
6, 629040, Note_on_c, 5, 56, 74
6, 629280, Note_on_c, 5, 56, 0
6, 629280, Note_on_c, 5, 55, 74
6, 629520, Note_on_c, 5, 55, 0
6, 629520, Note_on_c, 5, 56, 73
6, 629760, Note_on_c, 5, 56, 0
6, 629760, Note_on_c, 5, 58, 73
6, 630000, Note_on_c, 5, 58, 0
6, 630000, Note_on_c, 5, 56, 72
6, 630190, Note_on_c, 5, 56, 0
6, 630360, Note_on_c, 5, 55, 73
6, 630480, Note_on_c, 5, 55, 0
6, 630480, Note_on_c, 5, 59, 74
6, 630600, Note_on_c, 5, 59, 0
6, 630600, Note_on_c, 5, 62, 75
6, 630720, Note_on_c, 5, 62, 0
6, 630720, Note_on_c, 5, 65, 76
6, 630815, Note_on_c, 5, 65, 0
6, 631080, Note_on_c, 5, 67, 79
6, 631200, Note_on_c, 5, 67, 0
6, 631200, Note_on_c, 5, 71, 81
6, 631320, Note_on_c, 5, 71, 0
6, 631320, Note_on_c, 5, 74, 82
6, 631440, Note_on_c, 5, 74, 0
6, 631440, Note_on_c, 5, 77, 83
6, 631535, Note_on_c, 5, 77, 0
6, 633120, Note_on_c, 5, 60, 67
6, 633360, Note_on_c, 5, 60, 0
6, 633360, Note_on_c, 5, 59, 67
6, 633600, Note_on_c, 5, 59, 0
6, 633600, Note_on_c, 5, 60, 66
6, 633840, Note_on_c, 5, 60, 0
6, 633840, Note_on_c, 5, 61, 66
6, 634080, Note_on_c, 5, 61, 0
6, 634080, Note_on_c, 5, 60, 65
6, 634320, Note_on_c, 5, 60, 0
6, 634320, Note_on_c, 5, 59, 65
6, 634535, Note_on_c, 5, 59, 0
6, 634560, Note_on_c, 5, 60, 65
6, 634800, Note_on_c, 5, 60, 0
6, 634800, Note_on_c, 5, 59, 64
6, 635040, Note_on_c, 5, 59, 0
6, 635040, Note_on_c, 5, 60, 64
6, 635280, Note_on_c, 5, 60, 0
6, 635280, Note_on_c, 5, 61, 63
6, 635520, Note_on_c, 5, 61, 0
6, 635520, Note_on_c, 5, 60, 63
6, 635760, Note_on_c, 5, 60, 0
6, 635760, Note_on_c, 5, 59, 63
6, 635975, Note_on_c, 5, 59, 0
6, 636120, Note_on_c, 5, 48, 62
6, 636240, Note_on_c, 5, 48, 0
6, 636240, Note_on_c, 5, 52, 64
6, 636360, Note_on_c, 5, 52, 0
6, 636360, Note_on_c, 5, 55, 65
6, 636480, Note_on_c, 5, 55, 0
6, 636480, Note_on_c, 5, 58, 66
6, 636575, Note_on_c, 5, 58, 0
6, 636840, Note_on_c, 5, 60, 70
6, 636960, Note_on_c, 5, 60, 0
6, 636960, Note_on_c, 5, 64, 71
6, 637080, Note_on_c, 5, 64, 0
6, 637080, Note_on_c, 5, 67, 73
6, 637200, Note_on_c, 5, 67, 0
6, 637200, Note_on_c, 5, 70, 74
6, 637295, Note_on_c, 5, 70, 0
6, 638880, Note_on_c, 5, 57, 57
6, 639120, Note_on_c, 5, 57, 0
6, 639120, Note_on_c, 5, 58, 57
6, 639360, Note_on_c, 5, 58, 0
6, 639360, Note_on_c, 5, 57, 57
6, 639600, Note_on_c, 5, 57, 0
6, 639600, Note_on_c, 5, 58, 56
6, 639840, Note_on_c, 5, 58, 0
6, 639840, Note_on_c, 5, 59, 56
6, 640080, Note_on_c, 5, 59, 0
6, 640080, Note_on_c, 5, 58, 55
6, 640280, Note_on_c, 5, 58, 0
6, 640320, Note_on_c, 5, 57, 55
6, 640560, Note_on_c, 5, 57, 0
6, 640560, Note_on_c, 5, 58, 54
6, 640800, Note_on_c, 5, 58, 0
6, 640800, Note_on_c, 5, 57, 54
6, 641040, Note_on_c, 5, 57, 0
6, 641040, Note_on_c, 5, 58, 54
6, 641280, Note_on_c, 5, 58, 0
6, 641280, Note_on_c, 5, 59, 53
6, 641520, Note_on_c, 5, 59, 0
6, 641520, Note_on_c, 5, 58, 53
6, 641720, Note_on_c, 5, 58, 0
6, 641880, Note_on_c, 5, 57, 53
6, 642000, Note_on_c, 5, 57, 0
6, 642000, Note_on_c, 5, 60, 53
6, 642120, Note_on_c, 5, 60, 0
6, 642120, Note_on_c, 5, 63, 54
6, 642240, Note_on_c, 5, 63, 0
6, 642240, Note_on_c, 5, 65, 55
6, 642335, Note_on_c, 5, 65, 0
6, 642600, Note_on_c, 5, 65, 57
6, 642720, Note_on_c, 5, 65, 0
6, 642720, Note_on_c, 5, 69, 58
6, 642840, Note_on_c, 5, 69, 0
6, 642840, Note_on_c, 5, 72, 59
6, 642960, Note_on_c, 5, 72, 0
6, 642960, Note_on_c, 5, 75, 60
6, 643055, Note_on_c, 5, 75, 0
6, 644640, Note_on_c, 5, 58, 42
6, 645000, Note_on_c, 5, 58, 0
6, 645360, Note_on_c, 5, 57, 48
6, 645720, Note_on_c, 5, 57, 0
6, 646080, Note_on_c, 5, 55, 54
6, 646440, Note_on_c, 5, 55, 0
6, 646800, Note_on_c, 5, 54, 48
6, 647160, Note_on_c, 5, 54, 0
6, 647520, Note_on_c, 5, 55, 47
6, 647880, Note_on_c, 5, 55, 0
6, 648240, Note_on_c, 5, 53, 53
6, 648600, Note_on_c, 5, 53, 0
6, 648960, Note_on_c, 5, 51, 62
6, 649320, Note_on_c, 5, 51, 0
6, 649680, Note_on_c, 5, 50, 55
6, 650040, Note_on_c, 5, 50, 0
6, 650400, Note_on_c, 5, 48, 57
6, 650760, Note_on_c, 5, 48, 0
6, 651120, Note_on_c, 5, 53, 51
6, 651480, Note_on_c, 5, 53, 0
6, 651840, Note_on_c, 5, 46, 53
6, 652200, Note_on_c, 5, 46, 0
6, 652560, Note_on_c, 5, 54, 46
6, 652920, Note_on_c, 5, 54, 0
6, 653280, Note_on_c, 5, 51, 49
6, 653640, Note_on_c, 5, 51, 0
6, 654000, Note_on_c, 5, 52, 43
6, 654360, Note_on_c, 5, 52, 0
6, 654720, Note_on_c, 5, 53, 43
6, 655080, Note_on_c, 5, 53, 0
6, 655440, Note_on_c, 5, 53, 38
6, 655680, Note_on_c, 5, 53, 0
6, 655680, Note_on_c, 5, 51, 36
6, 655920, Note_on_c, 5, 51, 0
6, 655920, Note_on_c, 5, 48, 34
6, 656105, Note_on_c, 5, 48, 0
6, 656160, Note_on_c, 5, 58, 75
6, 656160, Note_on_c, 5, 46, 75
6, 656640, Note_on_c, 5, 46, 0
6, 656640, Note_on_c, 5, 58, 0
6, 656880, Note_on_c, 5, 57, 80
6, 656880, Note_on_c, 5, 45, 80
6, 657360, Note_on_c, 5, 45, 0
6, 657360, Note_on_c, 5, 57, 0
6, 657600, Note_on_c, 5, 43, 91
6, 657600, Note_on_c, 5, 55, 91
6, 658560, Note_on_c, 5, 55, 0
6, 658560, Note_on_c, 5, 43, 0
6, 658800, Note_on_c, 5, 42, 81
6, 658800, Note_on_c, 5, 54, 81
6, 658990, Note_on_c, 5, 54, 0
6, 658990, Note_on_c, 5, 42, 0
6, 659040, Note_on_c, 5, 55, 80
6, 659040, Note_on_c, 5, 43, 80
6, 659520, Note_on_c, 5, 43, 0
6, 659520, Note_on_c, 5, 55, 0
6, 659760, Note_on_c, 5, 53, 87
6, 659760, Note_on_c, 5, 41, 87
6, 660240, Note_on_c, 5, 41, 0
6, 660240, Note_on_c, 5, 53, 0
6, 660480, Note_on_c, 5, 39, 97
6, 660480, Note_on_c, 5, 51, 97
6, 661440, Note_on_c, 5, 51, 0
6, 661440, Note_on_c, 5, 39, 0
6, 661680, Note_on_c, 5, 38, 86
6, 661680, Note_on_c, 5, 50, 86
6, 661870, Note_on_c, 5, 50, 0
6, 661870, Note_on_c, 5, 38, 0
6, 661920, Note_on_c, 5, 48, 89
6, 662040, Note_on_c, 5, 48, 0
6, 662640, Note_on_c, 5, 54, 85
6, 662760, Note_on_c, 5, 54, 0
6, 663360, Note_on_c, 5, 55, 81
6, 663480, Note_on_c, 5, 55, 0
6, 664080, Note_on_c, 5, 51, 77
6, 664200, Note_on_c, 5, 51, 0
6, 664800, Note_on_c, 5, 41, 73
6, 664920, Note_on_c, 5, 41, 0
6, 665520, Note_on_c, 5, 41, 69
6, 665640, Note_on_c, 5, 41, 0
6, 666240, Note_on_c, 5, 34, 75
6, 669065, Note_on_c, 5, 34, 0
6, 669120, Note_on_c, 5, 45, 62
6, 670560, Note_on_c, 5, 45, 0
6, 670560, Note_on_c, 5, 45, 58
6, 671930, Note_on_c, 5, 45, 0
6, 672000, Note_on_c, 5, 46, 54
6, 674820, Note_on_c, 5, 46, 0
6, 674880, Note_on_c, 5, 58, 45
6, 675265, Note_on_c, 5, 58, 0
6, 675600, Note_on_c, 5, 58, 43
6, 675985, Note_on_c, 5, 58, 0
6, 676320, Note_on_c, 5, 58, 41
6, 676705, Note_on_c, 5, 58, 0
6, 677040, Note_on_c, 5, 58, 39
6, 677425, Note_on_c, 5, 58, 0
6, 677760, Note_on_c, 5, 56, 57
6, 677760, Note_on_c, 5, 44, 57
6, 680580, Note_on_c, 5, 44, 0
6, 680585, Note_on_c, 5, 56, 0
6, 680640, Note_on_c, 5, 62, 46
6, 682080, Note_on_c, 5, 62, 0
6, 682080, Note_on_c, 5, 61, 48
6, 683465, Note_on_c, 5, 61, 0
6, 683520, Note_on_c, 5, 48, 63
6, 683905, Note_on_c, 5, 48, 0
6, 684240, Note_on_c, 5, 48, 69
6, 684625, Note_on_c, 5, 48, 0
6, 684960, Note_on_c, 5, 48, 75
6, 685345, Note_on_c, 5, 48, 0
6, 685680, Note_on_c, 5, 48, 81
6, 686065, Note_on_c, 5, 48, 0
6, 686400, Note_on_c, 5, 48, 87
6, 686785, Note_on_c, 5, 48, 0
6, 687120, Note_on_c, 5, 48, 93
6, 687505, Note_on_c, 5, 48, 0
6, 687840, Note_on_c, 5, 36, 100
6, 688000, Note_on_c, 5, 36, 0
6, 688080, Note_on_c, 5, 40, 93
6, 688240, Note_on_c, 5, 40, 0
6, 688320, Note_on_c, 5, 43, 87
6, 688480, Note_on_c, 5, 43, 0
6, 688560, Note_on_c, 5, 48, 82
6, 688720, Note_on_c, 5, 48, 0
6, 688800, Note_on_c, 5, 52, 76
6, 688960, Note_on_c, 5, 52, 0
6, 689040, Note_on_c, 5, 55, 70
6, 689200, Note_on_c, 5, 55, 0
6, 689280, Note_on_c, 5, 60, 64
6, 689590, Note_on_c, 5, 60, 0
6, 696480, Control_c, 5, 64, 0
6, 696480, Note_on_c, 5, 41, 85
6, 696480, Note_on_c, 5, 53, 85
6, 697200, Note_on_c, 5, 53, 0
6, 697200, Note_on_c, 5, 41, 0
6, 700080, Note_on_c, 5, 57, 82
6, 700270, Note_on_c, 5, 57, 0
6, 700320, Note_on_c, 5, 55, 84
6, 700510, Note_on_c, 5, 55, 0
6, 700560, Note_on_c, 5, 57, 86
6, 700750, Note_on_c, 5, 57, 0
6, 700800, Note_on_c, 5, 58, 88
6, 700990, Note_on_c, 5, 58, 0
6, 701040, Note_on_c, 5, 57, 90
6, 701230, Note_on_c, 5, 57, 0
6, 701280, Note_on_c, 5, 58, 92
6, 701470, Note_on_c, 5, 58, 0
6, 701520, Note_on_c, 5, 60, 94
6, 701710, Note_on_c, 5, 60, 0
6, 701760, Note_on_c, 5, 58, 96
6, 701950, Note_on_c, 5, 58, 0
6, 702000, Note_on_c, 5, 60, 98
6, 702190, Note_on_c, 5, 60, 0
6, 702240, Note_on_c, 5, 62, 104
6, 702720, Note_on_c, 5, 62, 0
6, 702720, Note_on_c, 5, 60, 94
6, 702910, Note_on_c, 5, 60, 0
6, 702960, Note_on_c, 5, 62, 102
6, 703440, Note_on_c, 5, 62, 0
6, 703440, Note_on_c, 5, 60, 90
6, 703630, Note_on_c, 5, 60, 0
6, 703680, Note_on_c, 5, 59, 86
6, 703870, Note_on_c, 5, 59, 0
6, 703920, Note_on_c, 5, 59, 78
6, 704110, Note_on_c, 5, 59, 0
6, 704160, Note_on_c, 5, 59, 70
6, 704350, Note_on_c, 5, 59, 0
6, 704400, Note_on_c, 5, 60, 62
6, 704685, Note_on_c, 5, 60, 0
6, 705120, Note_on_c, 5, 53, 81
6, 705120, Note_on_c, 5, 41, 81
6, 705840, Note_on_c, 5, 41, 0
6, 705840, Note_on_c, 5, 53, 0
6, 708720, Note_on_c, 5, 57, 76
6, 708910, Note_on_c, 5, 57, 0
6, 708960, Note_on_c, 5, 55, 78
6, 709150, Note_on_c, 5, 55, 0
6, 709200, Note_on_c, 5, 57, 80
6, 709390, Note_on_c, 5, 57, 0
6, 709440, Note_on_c, 5, 58, 82
6, 709630, Note_on_c, 5, 58, 0
6, 709680, Note_on_c, 5, 57, 84
6, 709870, Note_on_c, 5, 57, 0
6, 709920, Note_on_c, 5, 58, 86
6, 710110, Note_on_c, 5, 58, 0
6, 710160, Note_on_c, 5, 60, 89
6, 710350, Note_on_c, 5, 60, 0
6, 710400, Note_on_c, 5, 58, 91
6, 710590, Note_on_c, 5, 58, 0
6, 710640, Note_on_c, 5, 60, 93
6, 710830, Note_on_c, 5, 60, 0
6, 710880, Note_on_c, 5, 62, 99
6, 711360, Note_on_c, 5, 62, 0
6, 711360, Note_on_c, 5, 60, 90
6, 711550, Note_on_c, 5, 60, 0
6, 711600, Note_on_c, 5, 62, 98
6, 712080, Note_on_c, 5, 62, 0
6, 712080, Note_on_c, 5, 60, 85
6, 712270, Note_on_c, 5, 60, 0
6, 712320, Note_on_c, 5, 59, 80
6, 712510, Note_on_c, 5, 59, 0
6, 713040, Note_on_c, 5, 58, 64
6, 713230, Note_on_c, 5, 58, 0
6, 713760, Note_on_c, 5, 57, 48
6, 713950, Note_on_c, 5, 57, 0
6, 714480, Note_on_c, 5, 46, 71
6, 714600, Note_on_c, 5, 46, 0
6, 715200, Note_on_c, 5, 48, 82
6, 715920, Note_on_c, 5, 48, 0
6, 715920, Note_on_c, 5, 53, 61
6, 716280, Note_on_c, 5, 53, 0
6, 716640, Note_on_c, 5, 48, 57
6, 717600, Note_on_c, 5, 48, 0
6, 718080, Note_on_c, 5, 53, 56
6, 719040, Note_on_c, 5, 53, 0
6, 719520, Note_on_c, 5, 48, 53
6, 720480, Note_on_c, 5, 48, 0
6, 720960, Note_on_c, 5, 53, 55
6, 721920, Note_on_c, 5, 53, 0
6, 722400, Note_on_c, 5, 48, 49
6, 723360, Note_on_c, 5, 48, 0
6, 723840, Note_on_c, 5, 53, 54
6, 724800, Note_on_c, 5, 53, 0
6, 725280, Note_on_c, 5, 48, 67
6, 726240, Note_on_c, 5, 48, 0
6, 726720, Control_c, 5, 64, 0
6, 726720, Note_on_c, 5, 53, 56
6, 726910, Note_on_c, 5, 53, 0
6, 727440, Note_on_c, 5, 51, 92
6, 728015, Note_on_c, 5, 51, 0
6, 728160, Note_on_c, 5, 54, 99
6, 728765, Note_on_c, 5, 54, 0
6, 729600, Note_on_c, 5, 62, 91
6, 729600, Note_on_c, 5, 50, 91
6, 730200, Note_on_c, 5, 62, 0
6, 730205, Note_on_c, 5, 50, 0
6, 730320, Note_on_c, 5, 48, 87
6, 730320, Note_on_c, 5, 60, 87
6, 730895, Note_on_c, 5, 60, 0
6, 730895, Note_on_c, 5, 48, 0
6, 731040, Note_on_c, 5, 58, 83
6, 731040, Note_on_c, 5, 46, 83
6, 731645, Note_on_c, 5, 46, 0
6, 731645, Note_on_c, 5, 58, 0
6, 731760, Note_on_c, 5, 45, 79
6, 731760, Note_on_c, 5, 57, 79
6, 732335, Note_on_c, 5, 57, 0
6, 732335, Note_on_c, 5, 45, 0
6, 732480, Note_on_c, 5, 55, 65
6, 732840, Note_on_c, 5, 55, 0
6, 733200, Note_on_c, 5, 54, 71
6, 733560, Note_on_c, 5, 54, 0
6, 733920, Note_on_c, 5, 55, 77
6, 734280, Note_on_c, 5, 55, 0
6, 734640, Note_on_c, 5, 53, 84
6, 735000, Note_on_c, 5, 53, 0
6, 735360, Note_on_c, 5, 52, 93
6, 735745, Note_on_c, 5, 52, 0
6, 736800, Note_on_c, 5, 72, 87
6, 737405, Note_on_c, 5, 72, 0
6, 737520, Note_on_c, 5, 70, 83
6, 738095, Note_on_c, 5, 70, 0
6, 738240, Note_on_c, 5, 69, 80
6, 738840, Note_on_c, 5, 69, 0
6, 738960, Note_on_c, 5, 67, 77
6, 739535, Note_on_c, 5, 67, 0
6, 739680, Note_on_c, 5, 65, 56
6, 740040, Note_on_c, 5, 65, 0
6, 740400, Note_on_c, 5, 64, 59
6, 740760, Note_on_c, 5, 64, 0
6, 741120, Note_on_c, 5, 65, 63
6, 741360, Note_on_c, 5, 65, 0
6, 742560, Note_on_c, 5, 46, 70
6, 742715, Note_on_c, 5, 46, 0
6, 742800, Note_on_c, 5, 58, 71
6, 742955, Note_on_c, 5, 58, 0
6, 743280, Note_on_c, 5, 52, 73
6, 743435, Note_on_c, 5, 52, 0
6, 743520, Note_on_c, 5, 64, 74
6, 743675, Note_on_c, 5, 64, 0
6, 744000, Note_on_c, 5, 45, 77
6, 744155, Note_on_c, 5, 45, 0
6, 744240, Note_on_c, 5, 57, 78
6, 744395, Note_on_c, 5, 57, 0
6, 744720, Note_on_c, 5, 50, 80
6, 744875, Note_on_c, 5, 50, 0
6, 744960, Note_on_c, 5, 62, 81
6, 745115, Note_on_c, 5, 62, 0
6, 745440, Note_on_c, 5, 43, 83
6, 745595, Note_on_c, 5, 43, 0
6, 745680, Note_on_c, 5, 45, 85
6, 745835, Note_on_c, 5, 45, 0
6, 745920, Note_on_c, 5, 46, 86
6, 746075, Note_on_c, 5, 46, 0
6, 746160, Note_on_c, 5, 48, 87
6, 746315, Note_on_c, 5, 48, 0
6, 746400, Note_on_c, 5, 50, 88
6, 746555, Note_on_c, 5, 50, 0
6, 746640, Note_on_c, 5, 52, 89
6, 746795, Note_on_c, 5, 52, 0
6, 746880, Note_on_c, 5, 53, 90
6, 747070, Note_on_c, 5, 53, 0
6, 747360, Note_on_c, 5, 45, 93
6, 747550, Note_on_c, 5, 45, 0
6, 747600, Note_on_c, 5, 46, 94
6, 747790, Note_on_c, 5, 46, 0
6, 748080, Note_on_c, 5, 47, 96
6, 748270, Note_on_c, 5, 47, 0
6, 748320, Note_on_c, 5, 48, 97
6, 748510, Note_on_c, 5, 48, 0
6, 749760, Note_on_c, 5, 53, 38
6, 750120, Note_on_c, 5, 53, 0
6, 750480, Note_on_c, 5, 53, 42
6, 750840, Note_on_c, 5, 53, 0
6, 751200, Note_on_c, 5, 52, 47
6, 751560, Note_on_c, 5, 52, 0
6, 751920, Note_on_c, 5, 52, 44
6, 752280, Note_on_c, 5, 52, 0
6, 752640, Note_on_c, 5, 52, 41
6, 753000, Note_on_c, 5, 52, 0
6, 753360, Note_on_c, 5, 52, 48
6, 753720, Note_on_c, 5, 52, 0
6, 754080, Note_on_c, 5, 53, 55
6, 754440, Note_on_c, 5, 53, 0
6, 754800, Note_on_c, 5, 53, 51
6, 755160, Note_on_c, 5, 53, 0
6, 755520, Note_on_c, 5, 56, 69
6, 755880, Note_on_c, 5, 56, 0
6, 756240, Note_on_c, 5, 55, 66
6, 756600, Note_on_c, 5, 55, 0
6, 756960, Note_on_c, 5, 53, 63
6, 757320, Note_on_c, 5, 53, 0
6, 757680, Note_on_c, 5, 51, 60
6, 758040, Note_on_c, 5, 51, 0
6, 758400, Note_on_c, 5, 49, 57
6, 758760, Note_on_c, 5, 49, 0
6, 759120, Note_on_c, 5, 49, 54
6, 759480, Note_on_c, 5, 49, 0
6, 759840, Note_on_c, 5, 48, 51
6, 760200, Note_on_c, 5, 48, 0
6, 760560, Note_on_c, 5, 48, 48
6, 760920, Note_on_c, 5, 48, 0
6, 761280, Note_on_c, 5, 53, 46
6, 761640, Note_on_c, 5, 53, 0
6, 762000, Note_on_c, 5, 53, 50
6, 762360, Note_on_c, 5, 53, 0
6, 762720, Note_on_c, 5, 52, 55
6, 763080, Note_on_c, 5, 52, 0
6, 763440, Note_on_c, 5, 52, 52
6, 763800, Note_on_c, 5, 52, 0
6, 764160, Note_on_c, 5, 52, 53
6, 764520, Note_on_c, 5, 52, 0
6, 764880, Note_on_c, 5, 52, 58
6, 765240, Note_on_c, 5, 52, 0
6, 765600, Note_on_c, 5, 51, 65
6, 765960, Note_on_c, 5, 51, 0
6, 766320, Note_on_c, 5, 50, 61
6, 766680, Note_on_c, 5, 50, 0
6, 767040, Note_on_c, 5, 49, 72
6, 767400, Note_on_c, 5, 49, 0
6, 767760, Note_on_c, 5, 48, 74
6, 768120, Note_on_c, 5, 48, 0
6, 768480, Note_on_c, 5, 46, 76
6, 768840, Note_on_c, 5, 46, 0
6, 769200, Note_on_c, 5, 44, 78
6, 769560, Note_on_c, 5, 44, 0
6, 769920, Note_on_c, 5, 48, 70
6, 770280, Note_on_c, 5, 48, 0
6, 770640, Note_on_c, 5, 48, 55
6, 771000, Note_on_c, 5, 48, 0
6, 771360, Note_on_c, 5, 53, 60
6, 771745, Note_on_c, 5, 53, 0
6, 772080, Note_on_c, 5, 55, 63
6, 772235, Note_on_c, 5, 55, 0
6, 772320, Note_on_c, 5, 52, 64
6, 772475, Note_on_c, 5, 52, 0
6, 772560, Note_on_c, 5, 48, 66
6, 772715, Note_on_c, 5, 48, 0
6, 772800, Note_on_c, 5, 53, 67
6, 773185, Note_on_c, 5, 53, 0
6, 773520, Note_on_c, 5, 55, 70
6, 773675, Note_on_c, 5, 55, 0
6, 773760, Note_on_c, 5, 52, 71
6, 773915, Note_on_c, 5, 52, 0
6, 774000, Note_on_c, 5, 48, 72
6, 774155, Note_on_c, 5, 48, 0
6, 774240, Note_on_c, 5, 53, 73
6, 774625, Note_on_c, 5, 53, 0
6, 774960, Note_on_c, 5, 67, 77
6, 775115, Note_on_c, 5, 67, 0
6, 775200, Note_on_c, 5, 64, 78
6, 775355, Note_on_c, 5, 64, 0
6, 775440, Note_on_c, 5, 60, 79
6, 775595, Note_on_c, 5, 60, 0
6, 775680, Note_on_c, 5, 65, 80
6, 776065, Note_on_c, 5, 65, 0
6, 776400, Note_on_c, 5, 67, 84
6, 776555, Note_on_c, 5, 67, 0
6, 776640, Note_on_c, 5, 64, 85
6, 776795, Note_on_c, 5, 64, 0
6, 776880, Note_on_c, 5, 60, 86
6, 777035, Note_on_c, 5, 60, 0
6, 777120, Note_on_c, 5, 65, 87
6, 777505, Note_on_c, 5, 65, 0
6, 780240, Note_on_c, 5, 50, 61
6, 780480, Note_on_c, 5, 50, 0
6, 780480, Note_on_c, 5, 53, 63
6, 780720, Note_on_c, 5, 53, 0
6, 780720, Note_on_c, 5, 56, 67
6, 780960, Note_on_c, 5, 56, 0
6, 780960, Note_on_c, 5, 55, 64
6, 781200, Note_on_c, 5, 55, 0
6, 781200, Note_on_c, 5, 53, 62
6, 781610, Note_on_c, 5, 53, 0
6, 781680, Note_on_c, 5, 52, 54
6, 781920, Note_on_c, 5, 52, 0
6, 781920, Note_on_c, 5, 55, 57
6, 782160, Note_on_c, 5, 55, 0
6, 782160, Note_on_c, 5, 61, 59
6, 782400, Note_on_c, 5, 61, 0
6, 782400, Note_on_c, 5, 60, 56
6, 782640, Note_on_c, 5, 60, 0
6, 782640, Note_on_c, 5, 58, 53
6, 782830, Note_on_c, 5, 58, 0
6, 782880, Note_on_c, 5, 57, 52
6, 783120, Note_on_c, 5, 57, 0
6, 783600, Note_on_c, 5, 58, 47
6, 783840, Note_on_c, 5, 58, 0
6, 784320, Note_on_c, 5, 60, 43
6, 785690, Note_on_c, 5, 60, 0
6, 785760, Note_on_c, 5, 53, 56
6, 786145, Note_on_c, 5, 53, 0
6, 786480, Note_on_c, 5, 55, 59
6, 786635, Note_on_c, 5, 55, 0
6, 786720, Note_on_c, 5, 52, 59
6, 786875, Note_on_c, 5, 52, 0
6, 786960, Note_on_c, 5, 48, 60
6, 787115, Note_on_c, 5, 48, 0
6, 787200, Note_on_c, 5, 53, 61
6, 787585, Note_on_c, 5, 53, 0
6, 787920, Note_on_c, 5, 55, 63
6, 788075, Note_on_c, 5, 55, 0
6, 788160, Note_on_c, 5, 52, 64
6, 788315, Note_on_c, 5, 52, 0
6, 788400, Note_on_c, 5, 48, 65
6, 788555, Note_on_c, 5, 48, 0
6, 788640, Note_on_c, 5, 53, 66
6, 789025, Note_on_c, 5, 53, 0
6, 789360, Note_on_c, 5, 67, 68
6, 789515, Note_on_c, 5, 67, 0
6, 789600, Note_on_c, 5, 64, 69
6, 789755, Note_on_c, 5, 64, 0
6, 789840, Note_on_c, 5, 60, 69
6, 789995, Note_on_c, 5, 60, 0
6, 790080, Note_on_c, 5, 65, 70
6, 790465, Note_on_c, 5, 65, 0
6, 790800, Note_on_c, 5, 67, 73
6, 790955, Note_on_c, 5, 67, 0
6, 791040, Note_on_c, 5, 64, 73
6, 791195, Note_on_c, 5, 64, 0
6, 791280, Note_on_c, 5, 60, 74
6, 791435, Note_on_c, 5, 60, 0
6, 791520, Note_on_c, 5, 65, 75
6, 791905, Note_on_c, 5, 65, 0
6, 794640, Note_on_c, 5, 50, 55
6, 794880, Note_on_c, 5, 50, 0
6, 794880, Note_on_c, 5, 53, 58
6, 795120, Note_on_c, 5, 53, 0
6, 795120, Note_on_c, 5, 56, 61
6, 795360, Note_on_c, 5, 56, 0
6, 795360, Note_on_c, 5, 55, 58
6, 795600, Note_on_c, 5, 55, 0
6, 795600, Note_on_c, 5, 53, 56
6, 796025, Note_on_c, 5, 53, 0
6, 796080, Note_on_c, 5, 52, 51
6, 796320, Note_on_c, 5, 52, 0
6, 796320, Note_on_c, 5, 55, 53
6, 796560, Note_on_c, 5, 55, 0
6, 796560, Note_on_c, 5, 61, 55
6, 796800, Note_on_c, 5, 61, 0
6, 796800, Note_on_c, 5, 60, 52
6, 797040, Note_on_c, 5, 60, 0
6, 797040, Note_on_c, 5, 58, 49
6, 797195, Note_on_c, 5, 58, 0
6, 797280, Note_on_c, 5, 57, 47
6, 797470, Note_on_c, 5, 57, 0
6, 798000, Note_on_c, 5, 58, 44
6, 798190, Note_on_c, 5, 58, 0
6, 798720, Note_on_c, 5, 60, 41
6, 800040, Note_on_c, 5, 60, 0
6, 800160, Note_on_c, 5, 57, 75
6, 800520, Note_on_c, 5, 57, 0
6, 800880, Note_on_c, 5, 58, 80
6, 801240, Note_on_c, 5, 58, 0
6, 801600, Note_on_c, 5, 60, 87
6, 801960, Note_on_c, 5, 60, 0
6, 802320, Note_on_c, 5, 60, 82
6, 802680, Note_on_c, 5, 60, 0
6, 803040, Note_on_c, 5, 65, 85
6, 803425, Note_on_c, 5, 65, 0
6, 803760, Note_on_c, 5, 60, 82
6, 804145, Note_on_c, 5, 60, 0
6, 804480, Note_on_c, 5, 65, 78
6, 804865, Note_on_c, 5, 65, 0
6, 805200, Note_on_c, 5, 60, 75
6, 805585, Note_on_c, 5, 60, 0
6, 805920, Note_on_c, 5, 53, 71
6, 806300, Note_on_c, 5, 53, 0
6, 806640, Note_on_c, 5, 48, 68
6, 807025, Note_on_c, 5, 48, 0
6, 807360, Note_on_c, 5, 41, 66
6, 807515, Note_on_c, 5, 41, 0
6, 807600, Note_on_c, 5, 45, 68
6, 807755, Note_on_c, 5, 45, 0
6, 807840, Note_on_c, 5, 48, 70
6, 807995, Note_on_c, 5, 48, 0
6, 808080, Note_on_c, 5, 53, 72
6, 808235, Note_on_c, 5, 53, 0
6, 808320, Note_on_c, 5, 57, 74
6, 808475, Note_on_c, 5, 57, 0
6, 808560, Note_on_c, 5, 60, 76
6, 808715, Note_on_c, 5, 60, 0
6, 808800, Note_on_c, 5, 65, 79
6, 809280, Note_on_c, 5, 65, 0
6, 809520, Note_on_c, 5, 53, 85
6, 810000, Note_on_c, 5, 53, 0
6, 810240, Note_on_c, 5, 45, 91
6, 810720, Note_on_c, 5, 45, 0
6, 811680, Note_on_c, 5, 46, 74
6, 812160, Note_on_c, 5, 46, 0
6, 813120, Note_on_c, 5, 47, 64
6, 813600, Note_on_c, 5, 47, 0
6, 814560, Note_on_c, 5, 48, 51
6, 817385, Note_on_c, 5, 48, 0
6, 817440, Note_on_c, 5, 53, 39
6, 817680, Note_on_c, 5, 53, 0
6, 817920, Note_on_c, 5, 45, 82
6, 818075, Note_on_c, 5, 45, 0
6, 818160, Note_on_c, 5, 46, 83
6, 818315, Note_on_c, 5, 46, 0
6, 818640, Note_on_c, 5, 47, 86
6, 818795, Note_on_c, 5, 47, 0
6, 818880, Note_on_c, 5, 48, 87
6, 819035, Note_on_c, 5, 48, 0
6, 819360, Note_on_c, 5, 49, 90
6, 819515, Note_on_c, 5, 49, 0
6, 819600, Note_on_c, 5, 50, 92
6, 819755, Note_on_c, 5, 50, 0
6, 820080, Note_on_c, 5, 52, 95
6, 820235, Note_on_c, 5, 52, 0
6, 821040, Note_on_c, 5, 58, 81
6, 821760, Note_on_c, 5, 58, 0
6, 821760, Note_on_c, 5, 57, 71
6, 821950, Note_on_c, 5, 57, 0
6, 822480, Note_on_c, 5, 60, 62
6, 822960, Note_on_c, 5, 60, 0
6, 822960, Note_on_c, 5, 61, 55
6, 823150, Note_on_c, 5, 61, 0
6, 823200, Note_on_c, 5, 62, 52
6, 824105, Note_on_c, 5, 62, 0
6, 825120, Note_on_c, 5, 45, 71
6, 825275, Note_on_c, 5, 45, 0
6, 825360, Note_on_c, 5, 46, 72
6, 825515, Note_on_c, 5, 46, 0
6, 825840, Note_on_c, 5, 47, 75
6, 825995, Note_on_c, 5, 47, 0
6, 826080, Note_on_c, 5, 48, 76
6, 826235, Note_on_c, 5, 48, 0
6, 826560, Note_on_c, 5, 49, 78
6, 826715, Note_on_c, 5, 49, 0
6, 826800, Note_on_c, 5, 50, 80
6, 826955, Note_on_c, 5, 50, 0
6, 827280, Note_on_c, 5, 52, 82
6, 827435, Note_on_c, 5, 52, 0
6, 828240, Note_on_c, 5, 58, 74
6, 828905, Note_on_c, 5, 58, 0
6, 828960, Note_on_c, 5, 57, 66
6, 829200, Note_on_c, 5, 57, 0
6, 829680, Note_on_c, 5, 58, 59
6, 829920, Note_on_c, 5, 58, 0
6, 830400, Note_on_c, 5, 48, 52
6, 831810, Note_on_c, 5, 48, 0
6, 831840, Note_on_c, 5, 53, 42
6, 832560, Note_on_c, 5, 53, 0
6, 832560, Note_on_c, 5, 53, 53
6, 833220, Note_on_c, 5, 53, 0
6, 833280, Note_on_c, 5, 53, 44
6, 834000, Note_on_c, 5, 53, 0
6, 834000, Note_on_c, 5, 53, 47
6, 834660, Note_on_c, 5, 53, 0
6, 834720, Note_on_c, 5, 53, 37
6, 835440, Note_on_c, 5, 53, 0
6, 835440, Note_on_c, 5, 53, 33
6, 836100, Note_on_c, 5, 53, 0
6, 836160, Note_on_c, 5, 41, 33
6, 837125, Note_on_c, 5, 41, 0
6, 837125, End_track
7, 0, Start_track
7, 0, Title_t, "Pista 6"
7, 0, Program_c, 10, 30
7, 0, Control_c, 10, 7, 127
7, 0, End_track
0, 0, End_of_file