0, 0, Header, 1, 19, 480
1, 0, Start_track
1, 0, Time_signature, 4, 2, 24, 8
1, 0, Tempo, 1000000
1, 70048, Tempo, 1000000
1, 70248, Tempo, 1034482
1, 70448, Tempo, 1052631
1, 70648, Tempo, 1090909
1, 70848, Tempo, 1111111
1, 70864, Tempo, 1111111
1, 71040, Tempo, 967741
1, 134400, Tempo, 983606
1, 138240, Tempo, 1052631
1, 140160, Tempo, 1000000
1, 190080, Tempo, 1000000
1, 197760, Tempo, 1071428
1, 198688, Tempo, 1111111
1, 199184, Tempo, 1200000
1, 199384, Tempo, 1463414
1, 199568, Tempo, 2142857
1, 199680, Tempo, 1621621
1, 200608, Tempo, 1000000
1, 200608, End_track
2, 0, Start_track
2, 0, Sequencer_specific, 04, 43, 00, 01, 00
2, 0, Program_c, 0, 73
2, 0, Control_c, 0, 7, 76
2, 0, Control_c, 0, 91, 95
2, 0, Control_c, 0, 10, 56
2, 15360, Note_on_c, 0, 84, 70
2, 17280, Note_on_c, 0, 84, 0
2, 17280, Note_on_c, 0, 82, 60
2, 19162, Note_on_c, 0, 82, 0
2, 19200, Note_on_c, 0, 86, 60
2, 21120, Note_on_c, 0, 86, 0
2, 21120, Note_on_c, 0, 84, 60
2, 23002, Note_on_c, 0, 84, 0
2, 23520, Note_on_c, 0, 73, 60
2, 24000, Note_on_c, 0, 73, 0
2, 24000, Note_on_c, 0, 85, 60
2, 24960, Note_on_c, 0, 85, 0
2, 25440, Note_on_c, 0, 72, 60
2, 25920, Note_on_c, 0, 72, 0
2, 25920, Note_on_c, 0, 84, 60
2, 26880, Note_on_c, 0, 84, 0
2, 27360, Note_on_c, 0, 70, 60
2, 27840, Note_on_c, 0, 70, 0
2, 27840, Note_on_c, 0, 82, 60
2, 28800, Note_on_c, 0, 82, 0
2, 29280, Note_on_c, 0, 68, 60
2, 29760, Note_on_c, 0, 68, 0
2, 29760, Note_on_c, 0, 80, 60
2, 30720, Note_on_c, 0, 80, 0
2, 31200, Note_on_c, 0, 67, 60
2, 31680, Note_on_c, 0, 67, 0
2, 31680, Note_on_c, 0, 79, 60
2, 32640, Note_on_c, 0, 79, 0
2, 37600, Note_on_c, 0, 84, 70
2, 37760, Note_on_c, 0, 84, 0
2, 37760, Note_on_c, 0, 85, 70
2, 37920, Note_on_c, 0, 85, 0
2, 37920, Note_on_c, 0, 86, 70
2, 38080, Note_on_c, 0, 86, 0
2, 38080, Note_on_c, 0, 87, 70
2, 38240, Note_on_c, 0, 87, 0
2, 38240, Note_on_c, 0, 88, 70
2, 38400, Note_on_c, 0, 88, 0
2, 38400, Note_on_c, 0, 89, 70
2, 39340, Note_on_c, 0, 89, 0
2, 39360, Note_on_c, 0, 88, 70
2, 39600, Note_on_c, 0, 88, 0
2, 39600, Note_on_c, 0, 86, 70
2, 39828, Note_on_c, 0, 86, 0
2, 39840, Note_on_c, 0, 84, 70
2, 40080, Note_on_c, 0, 84, 0
2, 40080, Note_on_c, 0, 82, 70
2, 40308, Note_on_c, 0, 82, 0
2, 40320, Note_on_c, 0, 81, 70
2, 40800, Note_on_c, 0, 81, 0
2, 40800, Note_on_c, 0, 79, 70
2, 41520, Note_on_c, 0, 79, 0
2, 41520, Note_on_c, 0, 81, 70
2, 41580, Note_on_c, 0, 81, 0
2, 41580, Note_on_c, 0, 79, 70
2, 41640, Note_on_c, 0, 79, 0
2, 41640, Note_on_c, 0, 78, 70
2, 41700, Note_on_c, 0, 78, 0
2, 41700, Note_on_c, 0, 79, 70
2, 41760, Note_on_c, 0, 79, 0
2, 41760, Note_on_c, 0, 84, 70
2, 42240, Note_on_c, 0, 84, 0
2, 42240, Note_on_c, 0, 77, 60
2, 42368, Note_on_c, 0, 77, 0
2, 42400, Note_on_c, 0, 72, 60
2, 42528, Note_on_c, 0, 72, 0
2, 42560, Note_on_c, 0, 72, 60
2, 42688, Note_on_c, 0, 72, 0
2, 42720, Note_on_c, 0, 72, 60
2, 42848, Note_on_c, 0, 72, 0
2, 42880, Note_on_c, 0, 69, 60
2, 43008, Note_on_c, 0, 69, 0
2, 43040, Note_on_c, 0, 69, 60
2, 43168, Note_on_c, 0, 69, 0
2, 43200, Note_on_c, 0, 69, 60
2, 43328, Note_on_c, 0, 69, 0
2, 43360, Note_on_c, 0, 65, 60
2, 43488, Note_on_c, 0, 65, 0
2, 43520, Note_on_c, 0, 65, 60
2, 43648, Note_on_c, 0, 65, 0
2, 43680, Note_on_c, 0, 65, 60
2, 43808, Note_on_c, 0, 65, 0
2, 43840, Note_on_c, 0, 65, 60
2, 43968, Note_on_c, 0, 65, 0
2, 44000, Note_on_c, 0, 65, 60
2, 44128, Note_on_c, 0, 65, 0
2, 44160, Note_on_c, 0, 65, 60
2, 44544, Note_on_c, 0, 65, 0
2, 57600, Note_on_c, 0, 84, 60
2, 59482, Note_on_c, 0, 84, 0
2, 59520, Note_on_c, 0, 82, 60
2, 61402, Note_on_c, 0, 82, 0
2, 61440, Note_on_c, 0, 86, 60
2, 63322, Note_on_c, 0, 86, 0
2, 63360, Note_on_c, 0, 84, 60
2, 65242, Note_on_c, 0, 84, 0
2, 65280, Note_on_c, 0, 88, 60
2, 67162, Note_on_c, 0, 88, 0
2, 67200, Note_on_c, 0, 89, 60
2, 67328, Note_on_c, 0, 89, 0
2, 67360, Note_on_c, 0, 77, 60
2, 67488, Note_on_c, 0, 77, 0
2, 67520, Note_on_c, 0, 77, 60
2, 67648, Note_on_c, 0, 77, 0
2, 67680, Note_on_c, 0, 77, 60
2, 67808, Note_on_c, 0, 77, 0
2, 67840, Note_on_c, 0, 77, 60
2, 67968, Note_on_c, 0, 77, 0
2, 68000, Note_on_c, 0, 77, 60
2, 68128, Note_on_c, 0, 77, 0
2, 68160, Note_on_c, 0, 77, 60
2, 68288, Note_on_c, 0, 77, 0
2, 68320, Note_on_c, 0, 72, 60
2, 68448, Note_on_c, 0, 72, 0
2, 68480, Note_on_c, 0, 72, 60
2, 68608, Note_on_c, 0, 72, 0
2, 68640, Note_on_c, 0, 72, 60
2, 68768, Note_on_c, 0, 72, 0
2, 68800, Note_on_c, 0, 72, 60
2, 68928, Note_on_c, 0, 72, 0
2, 68960, Note_on_c, 0, 72, 60
2, 69088, Note_on_c, 0, 72, 0
2, 69120, Note_on_c, 0, 73, 60
2, 69248, Note_on_c, 0, 73, 0
2, 69280, Note_on_c, 0, 73, 60
2, 69408, Note_on_c, 0, 73, 0
2, 69440, Note_on_c, 0, 73, 60
2, 69568, Note_on_c, 0, 73, 0
2, 69600, Note_on_c, 0, 73, 60
2, 69728, Note_on_c, 0, 73, 0
2, 69760, Note_on_c, 0, 73, 60
2, 69888, Note_on_c, 0, 73, 0
2, 69920, Note_on_c, 0, 73, 60
2, 70048, Note_on_c, 0, 73, 0
2, 70080, Note_on_c, 0, 85, 60
2, 70208, Note_on_c, 0, 85, 0
2, 70240, Note_on_c, 0, 85, 60
2, 70368, Note_on_c, 0, 85, 0
2, 70400, Note_on_c, 0, 85, 60
2, 70528, Note_on_c, 0, 85, 0
2, 70560, Note_on_c, 0, 85, 60
2, 70688, Note_on_c, 0, 85, 0
2, 70720, Note_on_c, 0, 85, 60
2, 70848, Note_on_c, 0, 85, 0
2, 70880, Note_on_c, 0, 85, 60
2, 71008, Note_on_c, 0, 85, 0
2, 71040, Note_on_c, 0, 86, 60
2, 71424, Note_on_c, 0, 86, 0
2, 86880, Note_on_c, 0, 77, 60
2, 87840, Note_on_c, 0, 77, 0
2, 88800, Note_on_c, 0, 79, 60
2, 89760, Note_on_c, 0, 79, 0
2, 90720, Note_on_c, 0, 80, 60
2, 91200, Note_on_c, 0, 80, 0
2, 91200, Note_on_c, 0, 79, 60
2, 91584, Note_on_c, 0, 79, 0
2, 92640, Note_on_c, 0, 78, 60
2, 93120, Note_on_c, 0, 78, 0
2, 93120, Note_on_c, 0, 81, 60
2, 93504, Note_on_c, 0, 81, 0
2, 94560, Note_on_c, 0, 89, 60
2, 95040, Note_on_c, 0, 89, 0
2, 95040, Note_on_c, 0, 86, 60
2, 95520, Note_on_c, 0, 86, 0
2, 95520, Note_on_c, 0, 83, 60
2, 96000, Note_on_c, 0, 83, 0
2, 96000, Note_on_c, 0, 84, 60
2, 96384, Note_on_c, 0, 84, 0
2, 101760, Note_on_c, 0, 84, 60
2, 102672, Note_on_c, 0, 84, 0
2, 102720, Note_on_c, 0, 83, 70
2, 102960, Note_on_c, 0, 83, 0
2, 102960, Note_on_c, 0, 81, 70
2, 103188, Note_on_c, 0, 81, 0
2, 103200, Note_on_c, 0, 79, 70
2, 103440, Note_on_c, 0, 79, 0
2, 103440, Note_on_c, 0, 77, 70
2, 103668, Note_on_c, 0, 77, 0
2, 103680, Note_on_c, 0, 76, 70
2, 104160, Note_on_c, 0, 76, 0
2, 104160, Note_on_c, 0, 74, 70
2, 105120, Note_on_c, 0, 74, 0
2, 105120, Note_on_c, 0, 79, 70
2, 105576, Note_on_c, 0, 79, 0
2, 105600, Note_on_c, 0, 72, 70
2, 105984, Note_on_c, 0, 72, 0
2, 107520, Note_on_c, 0, 87, 73
2, 109440, Note_on_c, 0, 87, 0
2, 109440, Note_on_c, 0, 86, 73
2, 110400, Note_on_c, 0, 86, 0
2, 110400, Note_on_c, 0, 86, 70
2, 110430, Note_on_c, 0, 86, 0
2, 110430, Note_on_c, 0, 84, 70
2, 110460, Note_on_c, 0, 84, 0
2, 110460, Note_on_c, 0, 86, 70
2, 110490, Note_on_c, 0, 86, 0
2, 110490, Note_on_c, 0, 84, 70
2, 110520, Note_on_c, 0, 84, 0
2, 110520, Note_on_c, 0, 86, 70
2, 110550, Note_on_c, 0, 86, 0
2, 110550, Note_on_c, 0, 84, 70
2, 110580, Note_on_c, 0, 84, 0
2, 110580, Note_on_c, 0, 86, 70
2, 110610, Note_on_c, 0, 86, 0
2, 110610, Note_on_c, 0, 84, 70
2, 110640, Note_on_c, 0, 84, 0
2, 110640, Note_on_c, 0, 86, 70
2, 110670, Note_on_c, 0, 86, 0
2, 110670, Note_on_c, 0, 84, 70
2, 110700, Note_on_c, 0, 84, 0
2, 110700, Note_on_c, 0, 86, 70
2, 110730, Note_on_c, 0, 86, 0
2, 110730, Note_on_c, 0, 84, 70
2, 110760, Note_on_c, 0, 84, 0
2, 110760, Note_on_c, 0, 86, 70
2, 110790, Note_on_c, 0, 86, 0
2, 110790, Note_on_c, 0, 84, 70
2, 110820, Note_on_c, 0, 84, 0
2, 110820, Note_on_c, 0, 86, 70
2, 110850, Note_on_c, 0, 86, 0
2, 110850, Note_on_c, 0, 84, 70
2, 110880, Note_on_c, 0, 84, 0
2, 110880, Note_on_c, 0, 86, 70
2, 110910, Note_on_c, 0, 86, 0
2, 110910, Note_on_c, 0, 84, 70
2, 110940, Note_on_c, 0, 84, 0
2, 110940, Note_on_c, 0, 86, 70
2, 110970, Note_on_c, 0, 86, 0
2, 110970, Note_on_c, 0, 84, 70
2, 111000, Note_on_c, 0, 84, 0
2, 111000, Note_on_c, 0, 86, 70
2, 111030, Note_on_c, 0, 86, 0
2, 111030, Note_on_c, 0, 84, 70
2, 111060, Note_on_c, 0, 84, 0
2, 111060, Note_on_c, 0, 86, 70
2, 111090, Note_on_c, 0, 86, 0
2, 111090, Note_on_c, 0, 84, 70
2, 111120, Note_on_c, 0, 84, 0
2, 111120, Note_on_c, 0, 82, 70
2, 111240, Note_on_c, 0, 82, 0
2, 111240, Note_on_c, 0, 84, 70
2, 111360, Note_on_c, 0, 84, 0
2, 111360, Note_on_c, 0, 82, 60
2, 111744, Note_on_c, 0, 82, 0
2, 117280, Note_on_c, 0, 77, 90
2, 117384, Note_on_c, 0, 77, 0
2, 117440, Note_on_c, 0, 77, 90
2, 117544, Note_on_c, 0, 77, 0
2, 117600, Note_on_c, 0, 77, 90
2, 117704, Note_on_c, 0, 77, 0
2, 117760, Note_on_c, 0, 77, 90
2, 117864, Note_on_c, 0, 77, 0
2, 117920, Note_on_c, 0, 77, 90
2, 118024, Note_on_c, 0, 77, 0
2, 118080, Note_on_c, 0, 77, 90
2, 118184, Note_on_c, 0, 77, 0
2, 118240, Note_on_c, 0, 77, 90
2, 118344, Note_on_c, 0, 77, 0
2, 118400, Note_on_c, 0, 77, 90
2, 118504, Note_on_c, 0, 77, 0
2, 118560, Note_on_c, 0, 77, 90
2, 118664, Note_on_c, 0, 77, 0
2, 118720, Note_on_c, 0, 77, 90
2, 118824, Note_on_c, 0, 77, 0
2, 118880, Note_on_c, 0, 77, 90
2, 118984, Note_on_c, 0, 77, 0
2, 119040, Note_on_c, 0, 77, 90
2, 119424, Note_on_c, 0, 77, 0
2, 126720, Note_on_c, 0, 87, 60
2, 128602, Note_on_c, 0, 87, 0
2, 128640, Note_on_c, 0, 86, 60
2, 130522, Note_on_c, 0, 86, 0
2, 130560, Note_on_c, 0, 85, 60
2, 132442, Note_on_c, 0, 85, 0
2, 132480, Note_on_c, 0, 84, 60
2, 134362, Note_on_c, 0, 84, 0
2, 138240, Note_on_c, 0, 75, 60
2, 139200, Note_on_c, 0, 75, 0
2, 139200, Note_on_c, 0, 79, 60
2, 140160, Note_on_c, 0, 79, 0
2, 140160, Note_on_c, 0, 80, 60
2, 140544, Note_on_c, 0, 80, 0
2, 155520, Note_on_c, 0, 80, 60
2, 156480, Note_on_c, 0, 80, 0
2, 156480, Note_on_c, 0, 79, 60
2, 156960, Note_on_c, 0, 79, 0
2, 156960, Note_on_c, 0, 77, 60
2, 157440, Note_on_c, 0, 77, 0
2, 157440, Note_on_c, 0, 76, 60
2, 157824, Note_on_c, 0, 76, 0
2, 159840, Note_on_c, 0, 73, 60
2, 160320, Note_on_c, 0, 73, 0
2, 160320, Note_on_c, 0, 85, 60
2, 161280, Note_on_c, 0, 85, 0
2, 161760, Note_on_c, 0, 72, 60
2, 162240, Note_on_c, 0, 72, 0
2, 162240, Note_on_c, 0, 84, 60
2, 163200, Note_on_c, 0, 84, 0
2, 163680, Note_on_c, 0, 70, 60
2, 164160, Note_on_c, 0, 70, 0
2, 164160, Note_on_c, 0, 82, 60
2, 165120, Note_on_c, 0, 82, 0
2, 165600, Note_on_c, 0, 68, 60
2, 166080, Note_on_c, 0, 68, 0
2, 166080, Note_on_c, 0, 80, 60
2, 167040, Note_on_c, 0, 80, 0
2, 167520, Note_on_c, 0, 67, 60
2, 168000, Note_on_c, 0, 67, 0
2, 168000, Note_on_c, 0, 79, 60
2, 168960, Note_on_c, 0, 79, 0
2, 174720, Note_on_c, 0, 89, 70
2, 175660, Note_on_c, 0, 89, 0
2, 175680, Note_on_c, 0, 88, 70
2, 175920, Note_on_c, 0, 88, 0
2, 175920, Note_on_c, 0, 86, 70
2, 176156, Note_on_c, 0, 86, 0
2, 176160, Note_on_c, 0, 84, 70
2, 176400, Note_on_c, 0, 84, 0
2, 176400, Note_on_c, 0, 82, 70
2, 176636, Note_on_c, 0, 82, 0
2, 176640, Note_on_c, 0, 81, 70
2, 177120, Note_on_c, 0, 81, 0
2, 177120, Note_on_c, 0, 79, 70
2, 178080, Note_on_c, 0, 79, 0
2, 178080, Note_on_c, 0, 84, 70
2, 178550, Note_on_c, 0, 84, 0
2, 178560, Note_on_c, 0, 89, 70
2, 180864, Note_on_c, 0, 89, 0
2, 182400, Note_on_c, 0, 86, 60
2, 182880, Note_on_c, 0, 86, 0
2, 182880, Note_on_c, 0, 85, 74
2, 183360, Note_on_c, 0, 85, 0
2, 183360, Note_on_c, 0, 86, 89
2, 183840, Note_on_c, 0, 86, 0
2, 183840, Note_on_c, 0, 88, 90
2, 184320, Note_on_c, 0, 88, 0
2, 184320, Note_on_c, 0, 89, 52
2, 184704, Note_on_c, 0, 89, 0
2, 186240, Note_on_c, 0, 84, 60
2, 188160, Note_on_c, 0, 84, 0
2, 188160, Note_on_c, 0, 88, 60
2, 190080, Note_on_c, 0, 88, 0
2, 190080, Note_on_c, 0, 89, 60
2, 190464, Note_on_c, 0, 89, 0
2, 192000, Note_on_c, 0, 72, 60
2, 192104, Note_on_c, 0, 72, 0
2, 192160, Note_on_c, 0, 72, 60
2, 192264, Note_on_c, 0, 72, 0
2, 192320, Note_on_c, 0, 72, 60
2, 192424, Note_on_c, 0, 72, 0
2, 192480, Note_on_c, 0, 72, 60
2, 192584, Note_on_c, 0, 72, 0
2, 192640, Note_on_c, 0, 72, 60
2, 192744, Note_on_c, 0, 72, 0
2, 192800, Note_on_c, 0, 72, 60
2, 192904, Note_on_c, 0, 72, 0
2, 192960, Note_on_c, 0, 72, 60
2, 193064, Note_on_c, 0, 72, 0
2, 193120, Note_on_c, 0, 72, 60
2, 193224, Note_on_c, 0, 72, 0
2, 193280, Note_on_c, 0, 72, 60
2, 193384, Note_on_c, 0, 72, 0
2, 193440, Note_on_c, 0, 72, 60
2, 193544, Note_on_c, 0, 72, 0
2, 193600, Note_on_c, 0, 72, 60
2, 193704, Note_on_c, 0, 72, 0
2, 193760, Note_on_c, 0, 72, 60
2, 193864, Note_on_c, 0, 72, 0
2, 193920, Note_on_c, 0, 72, 60
2, 194024, Note_on_c, 0, 72, 0
2, 194080, Note_on_c, 0, 72, 60
2, 194184, Note_on_c, 0, 72, 0
2, 194240, Note_on_c, 0, 72, 60
2, 194344, Note_on_c, 0, 72, 0
2, 194400, Note_on_c, 0, 72, 60
2, 194504, Note_on_c, 0, 72, 0
2, 194560, Note_on_c, 0, 72, 60
2, 194664, Note_on_c, 0, 72, 0
2, 194720, Note_on_c, 0, 72, 60
2, 194824, Note_on_c, 0, 72, 0
2, 194880, Note_on_c, 0, 72, 60
2, 194984, Note_on_c, 0, 72, 0
2, 195040, Note_on_c, 0, 72, 60
2, 195144, Note_on_c, 0, 72, 0
2, 195200, Note_on_c, 0, 72, 60
2, 195304, Note_on_c, 0, 72, 0
2, 195360, Note_on_c, 0, 72, 60
2, 195464, Note_on_c, 0, 72, 0
2, 195520, Note_on_c, 0, 72, 60
2, 195624, Note_on_c, 0, 72, 0
2, 195680, Note_on_c, 0, 72, 60
2, 195784, Note_on_c, 0, 72, 0
2, 195840, Note_on_c, 0, 72, 60
2, 195944, Note_on_c, 0, 72, 0
2, 196000, Note_on_c, 0, 72, 60
2, 196104, Note_on_c, 0, 72, 0
2, 196160, Note_on_c, 0, 72, 60
2, 196264, Note_on_c, 0, 72, 0
2, 196320, Note_on_c, 0, 72, 60
2, 196424, Note_on_c, 0, 72, 0
2, 196480, Note_on_c, 0, 72, 60
2, 196584, Note_on_c, 0, 72, 0
2, 196640, Note_on_c, 0, 72, 60
2, 196744, Note_on_c, 0, 72, 0
2, 196800, Note_on_c, 0, 72, 60
2, 196904, Note_on_c, 0, 72, 0
2, 196960, Note_on_c, 0, 72, 60
2, 197064, Note_on_c, 0, 72, 0
2, 197120, Note_on_c, 0, 72, 60
2, 197224, Note_on_c, 0, 72, 0
2, 197280, Note_on_c, 0, 72, 60
2, 197384, Note_on_c, 0, 72, 0
2, 197440, Note_on_c, 0, 72, 60
2, 197544, Note_on_c, 0, 72, 0
2, 197600, Note_on_c, 0, 72, 60
2, 197704, Note_on_c, 0, 72, 0
2, 197760, Note_on_c, 0, 72, 54
2, 197856, Note_on_c, 0, 72, 0
2, 197920, Note_on_c, 0, 72, 53
2, 198016, Note_on_c, 0, 72, 0
2, 198080, Note_on_c, 0, 72, 53
2, 198176, Note_on_c, 0, 72, 0
2, 198240, Note_on_c, 0, 72, 53
2, 198336, Note_on_c, 0, 72, 0
2, 198400, Note_on_c, 0, 69, 52
2, 198496, Note_on_c, 0, 69, 0
2, 198560, Note_on_c, 0, 69, 52
2, 198656, Note_on_c, 0, 69, 0
2, 198720, Note_on_c, 0, 69, 52
2, 198816, Note_on_c, 0, 69, 0
2, 198880, Note_on_c, 0, 65, 51
2, 198976, Note_on_c, 0, 65, 0
2, 199040, Note_on_c, 0, 65, 51
2, 199136, Note_on_c, 0, 65, 0
2, 199200, Note_on_c, 0, 65, 51
2, 199296, Note_on_c, 0, 65, 0
2, 199360, Note_on_c, 0, 65, 50
2, 199456, Note_on_c, 0, 65, 0
2, 199520, Note_on_c, 0, 65, 50
2, 199616, Note_on_c, 0, 65, 0
2, 199680, Note_on_c, 0, 65, 50
2, 200176, Note_on_c, 0, 65, 0
2, 200176, End_track
3, 0, Start_track
3, 0, Sequencer_specific, 04, 43, 00, 01, 00
3, 0, Program_c, 1, 68
3, 0, Control_c, 1, 7, 76
3, 0, Control_c, 1, 10, 64
3, 0, Control_c, 1, 91, 95
3, 15360, Note_on_c, 1, 77, 60
3, 19162, Note_on_c, 1, 77, 0
3, 19200, Note_on_c, 1, 80, 60
3, 23002, Note_on_c, 1, 80, 0
3, 23520, Note_on_c, 1, 79, 60
3, 24000, Note_on_c, 1, 79, 0
3, 24000, Note_on_c, 1, 76, 60
3, 24480, Note_on_c, 1, 76, 0
3, 25440, Note_on_c, 1, 80, 60
3, 25920, Note_on_c, 1, 80, 0
3, 25920, Note_on_c, 1, 77, 60
3, 26400, Note_on_c, 1, 77, 0
3, 27360, Note_on_c, 1, 76, 60
3, 28320, Note_on_c, 1, 76, 0
3, 29280, Note_on_c, 1, 77, 60
3, 30240, Note_on_c, 1, 77, 0
3, 31200, Note_on_c, 1, 77, 60
3, 31680, Note_on_c, 1, 77, 0
3, 31680, Note_on_c, 1, 76, 60
3, 32160, Note_on_c, 1, 76, 0
3, 32160, Note_on_c, 1, 72, 60
3, 32640, Note_on_c, 1, 72, 0
3, 32640, Note_on_c, 1, 77, 80
3, 33552, Note_on_c, 1, 77, 0
3, 33600, Note_on_c, 1, 76, 80
3, 33840, Note_on_c, 1, 76, 0
3, 33840, Note_on_c, 1, 74, 80
3, 34068, Note_on_c, 1, 74, 0
3, 34080, Note_on_c, 1, 72, 80
3, 34320, Note_on_c, 1, 72, 0
3, 34320, Note_on_c, 1, 70, 80
3, 34548, Note_on_c, 1, 70, 0
3, 34560, Note_on_c, 1, 69, 80
3, 35040, Note_on_c, 1, 69, 0
3, 35040, Note_on_c, 1, 67, 80
3, 36000, Note_on_c, 1, 67, 0
3, 36000, Note_on_c, 1, 72, 80
3, 36456, Note_on_c, 1, 72, 0
3, 36480, Note_on_c, 1, 70, 80
3, 36960, Note_on_c, 1, 70, 0
3, 36960, Note_on_c, 1, 69, 70
3, 37344, Note_on_c, 1, 69, 0
3, 37600, Note_on_c, 1, 72, 70
3, 37760, Note_on_c, 1, 72, 0
3, 37760, Note_on_c, 1, 73, 70
3, 37920, Note_on_c, 1, 73, 0
3, 37920, Note_on_c, 1, 74, 70
3, 38080, Note_on_c, 1, 74, 0
3, 38080, Note_on_c, 1, 75, 70
3, 38240, Note_on_c, 1, 75, 0
3, 38240, Note_on_c, 1, 76, 70
3, 38400, Note_on_c, 1, 76, 0
3, 38400, Note_on_c, 1, 77, 70
3, 39340, Note_on_c, 1, 77, 0
3, 39360, Note_on_c, 1, 76, 70
3, 39600, Note_on_c, 1, 76, 0
3, 39600, Note_on_c, 1, 74, 70
3, 39828, Note_on_c, 1, 74, 0
3, 39840, Note_on_c, 1, 72, 70
3, 40080, Note_on_c, 1, 72, 0
3, 40080, Note_on_c, 1, 70, 70
3, 40308, Note_on_c, 1, 70, 0
3, 40320, Note_on_c, 1, 69, 70
3, 40800, Note_on_c, 1, 69, 0
3, 40800, Note_on_c, 1, 67, 70
3, 41520, Note_on_c, 1, 67, 0
3, 41520, Note_on_c, 1, 69, 70
3, 41580, Note_on_c, 1, 69, 0
3, 41580, Note_on_c, 1, 67, 70
3, 41640, Note_on_c, 1, 67, 0
3, 41640, Note_on_c, 1, 66, 70
3, 41700, Note_on_c, 1, 66, 0
3, 41700, Note_on_c, 1, 67, 70
3, 41760, Note_on_c, 1, 67, 0
3, 41760, Note_on_c, 1, 72, 70
3, 42240, Note_on_c, 1, 72, 0
3, 42240, Note_on_c, 1, 65, 60
3, 42368, Note_on_c, 1, 65, 0
3, 42400, Note_on_c, 1, 69, 60
3, 42528, Note_on_c, 1, 69, 0
3, 42560, Note_on_c, 1, 69, 60
3, 42688, Note_on_c, 1, 69, 0
3, 42720, Note_on_c, 1, 69, 60
3, 42848, Note_on_c, 1, 69, 0
3, 42880, Note_on_c, 1, 65, 60
3, 43008, Note_on_c, 1, 65, 0
3, 43040, Note_on_c, 1, 65, 60
3, 43168, Note_on_c, 1, 65, 0
3, 43200, Note_on_c, 1, 65, 60
3, 43328, Note_on_c, 1, 65, 0
3, 43360, Note_on_c, 1, 65, 60
3, 43488, Note_on_c, 1, 65, 0
3, 43520, Note_on_c, 1, 65, 60
3, 43648, Note_on_c, 1, 65, 0
3, 43680, Note_on_c, 1, 65, 60
3, 43808, Note_on_c, 1, 65, 0
3, 43840, Note_on_c, 1, 65, 60
3, 43968, Note_on_c, 1, 65, 0
3, 44000, Note_on_c, 1, 65, 60
3, 44128, Note_on_c, 1, 65, 0
3, 44160, Note_on_c, 1, 65, 60
3, 44544, Note_on_c, 1, 65, 0
3, 57600, Note_on_c, 1, 77, 60
3, 61402, Note_on_c, 1, 77, 0
3, 61440, Note_on_c, 1, 80, 60
3, 63322, Note_on_c, 1, 80, 0
3, 63360, Note_on_c, 1, 81, 60
3, 65242, Note_on_c, 1, 81, 0
3, 65280, Note_on_c, 1, 82, 60
3, 67162, Note_on_c, 1, 82, 0
3, 67200, Note_on_c, 1, 81, 60
3, 67200, Note_on_c, 1, 77, 60
3, 67328, Note_on_c, 1, 77, 0
3, 67328, Note_on_c, 1, 81, 0
3, 67360, Note_on_c, 1, 72, 60
3, 67360, Note_on_c, 1, 69, 60
3, 67488, Note_on_c, 1, 69, 0
3, 67488, Note_on_c, 1, 72, 0
3, 67520, Note_on_c, 1, 72, 60
3, 67520, Note_on_c, 1, 69, 60
3, 67648, Note_on_c, 1, 69, 0
3, 67648, Note_on_c, 1, 72, 0
3, 67680, Note_on_c, 1, 72, 60
3, 67680, Note_on_c, 1, 69, 60
3, 67808, Note_on_c, 1, 69, 0
3, 67808, Note_on_c, 1, 72, 0
3, 67840, Note_on_c, 1, 69, 60
3, 67840, Note_on_c, 1, 72, 60
3, 67968, Note_on_c, 1, 72, 0
3, 67968, Note_on_c, 1, 69, 0
3, 68000, Note_on_c, 1, 72, 60
3, 68000, Note_on_c, 1, 69, 60
3, 68128, Note_on_c, 1, 69, 0
3, 68128, Note_on_c, 1, 72, 0
3, 68160, Note_on_c, 1, 69, 60
3, 68160, Note_on_c, 1, 72, 60
3, 68288, Note_on_c, 1, 72, 0
3, 68288, Note_on_c, 1, 69, 0
3, 68320, Note_on_c, 1, 69, 60
3, 68320, Note_on_c, 1, 65, 60
3, 68448, Note_on_c, 1, 65, 0
3, 68448, Note_on_c, 1, 69, 0
3, 68480, Note_on_c, 1, 65, 60
3, 68480, Note_on_c, 1, 69, 60
3, 68608, Note_on_c, 1, 69, 0
3, 68608, Note_on_c, 1, 65, 0
3, 68640, Note_on_c, 1, 69, 60
3, 68640, Note_on_c, 1, 65, 60
3, 68768, Note_on_c, 1, 65, 0
3, 68768, Note_on_c, 1, 69, 0
3, 68800, Note_on_c, 1, 65, 60
3, 68800, Note_on_c, 1, 69, 60
3, 68928, Note_on_c, 1, 69, 0
3, 68928, Note_on_c, 1, 65, 0
3, 68960, Note_on_c, 1, 65, 60
3, 68960, Note_on_c, 1, 69, 60
3, 69088, Note_on_c, 1, 69, 0
3, 69088, Note_on_c, 1, 65, 0
3, 69120, Note_on_c, 1, 67, 60
3, 69120, Note_on_c, 1, 70, 60
3, 69248, Note_on_c, 1, 70, 0
3, 69248, Note_on_c, 1, 67, 0
3, 69280, Note_on_c, 1, 67, 60
3, 69280, Note_on_c, 1, 70, 60
3, 69408, Note_on_c, 1, 70, 0
3, 69408, Note_on_c, 1, 67, 0
3, 69440, Note_on_c, 1, 70, 60
3, 69440, Note_on_c, 1, 67, 60
3, 69568, Note_on_c, 1, 67, 0
3, 69568, Note_on_c, 1, 70, 0
3, 69600, Note_on_c, 1, 67, 60
3, 69600, Note_on_c, 1, 70, 60
3, 69728, Note_on_c, 1, 70, 0
3, 69728, Note_on_c, 1, 67, 0
3, 69760, Note_on_c, 1, 67, 60
3, 69760, Note_on_c, 1, 70, 60
3, 69888, Note_on_c, 1, 70, 0
3, 69888, Note_on_c, 1, 67, 0
3, 69920, Note_on_c, 1, 67, 60
3, 69920, Note_on_c, 1, 70, 60
3, 70048, Note_on_c, 1, 70, 0
3, 70048, Note_on_c, 1, 67, 0
3, 70080, Note_on_c, 1, 76, 60
3, 70080, Note_on_c, 1, 79, 60
3, 70208, Note_on_c, 1, 79, 0
3, 70208, Note_on_c, 1, 76, 0
3, 70240, Note_on_c, 1, 76, 60
3, 70240, Note_on_c, 1, 79, 60
3, 70368, Note_on_c, 1, 79, 0
3, 70368, Note_on_c, 1, 76, 0
3, 70400, Note_on_c, 1, 76, 60
3, 70400, Note_on_c, 1, 79, 60
3, 70528, Note_on_c, 1, 79, 0
3, 70528, Note_on_c, 1, 76, 0
3, 70560, Note_on_c, 1, 76, 60
3, 70560, Note_on_c, 1, 79, 60
3, 70688, Note_on_c, 1, 79, 0
3, 70688, Note_on_c, 1, 76, 0
3, 70720, Note_on_c, 1, 79, 60
3, 70720, Note_on_c, 1, 76, 60
3, 70848, Note_on_c, 1, 76, 0
3, 70848, Note_on_c, 1, 79, 0
3, 70880, Note_on_c, 1, 79, 60
3, 70880, Note_on_c, 1, 76, 60
3, 71008, Note_on_c, 1, 76, 0
3, 71008, Note_on_c, 1, 79, 0
3, 71040, Note_on_c, 1, 74, 60
3, 71040, Note_on_c, 1, 77, 60
3, 71424, Note_on_c, 1, 77, 0
3, 71424, Note_on_c, 1, 74, 0
3, 84960, Note_on_c, 1, 79, 60
3, 85440, Note_on_c, 1, 79, 0
3, 85440, Note_on_c, 1, 75, 60
3, 85920, Note_on_c, 1, 75, 0
3, 85920, Note_on_c, 1, 72, 60
3, 86880, Note_on_c, 1, 72, 0
3, 86880, Note_on_c, 1, 71, 60
3, 87360, Note_on_c, 1, 71, 0
3, 87360, Note_on_c, 1, 74, 60
3, 88800, Note_on_c, 1, 74, 0
3, 88800, Note_on_c, 1, 72, 60
3, 89280, Note_on_c, 1, 72, 0
3, 89280, Note_on_c, 1, 75, 60
3, 90720, Note_on_c, 1, 75, 0
3, 90720, Note_on_c, 1, 74, 60
3, 91200, Note_on_c, 1, 74, 0
3, 91200, Note_on_c, 1, 77, 60
3, 92640, Note_on_c, 1, 77, 0
3, 92640, Note_on_c, 1, 75, 60
3, 93120, Note_on_c, 1, 75, 0
3, 93120, Note_on_c, 1, 78, 60
3, 93888, Note_on_c, 1, 78, 0
3, 94080, Note_on_c, 1, 79, 60
3, 94560, Note_on_c, 1, 79, 0
3, 94560, Note_on_c, 1, 80, 60
3, 95040, Note_on_c, 1, 80, 0
3, 95040, Note_on_c, 1, 79, 60
3, 95424, Note_on_c, 1, 79, 0
3, 105600, Note_on_c, 1, 72, 60
3, 108000, Note_on_c, 1, 72, 0
3, 108000, Note_on_c, 1, 78, 60
3, 108960, Note_on_c, 1, 78, 0
3, 108960, Note_on_c, 1, 79, 60
3, 109440, Note_on_c, 1, 79, 0
3, 109440, Note_on_c, 1, 81, 60
3, 109920, Note_on_c, 1, 81, 0
3, 109920, Note_on_c, 1, 78, 60
3, 110880, Note_on_c, 1, 78, 0
3, 110880, Note_on_c, 1, 81, 60
3, 111360, Note_on_c, 1, 81, 0
3, 111360, Note_on_c, 1, 79, 60
3, 111744, Note_on_c, 1, 79, 0
3, 117280, Note_on_c, 1, 74, 90
3, 117384, Note_on_c, 1, 74, 0
3, 117440, Note_on_c, 1, 74, 90
3, 117544, Note_on_c, 1, 74, 0
3, 117600, Note_on_c, 1, 74, 90
3, 117704, Note_on_c, 1, 74, 0
3, 117760, Note_on_c, 1, 74, 90
3, 117864, Note_on_c, 1, 74, 0
3, 117920, Note_on_c, 1, 74, 90
3, 118024, Note_on_c, 1, 74, 0
3, 118080, Note_on_c, 1, 75, 90
3, 118184, Note_on_c, 1, 75, 0
3, 118240, Note_on_c, 1, 75, 90
3, 118344, Note_on_c, 1, 75, 0
3, 118400, Note_on_c, 1, 75, 90
3, 118504, Note_on_c, 1, 75, 0
3, 118560, Note_on_c, 1, 75, 90
3, 118664, Note_on_c, 1, 75, 0
3, 118720, Note_on_c, 1, 75, 90
3, 118824, Note_on_c, 1, 75, 0
3, 118880, Note_on_c, 1, 75, 90
3, 118984, Note_on_c, 1, 75, 0
3, 119040, Note_on_c, 1, 74, 90
3, 119424, Note_on_c, 1, 74, 0
3, 126720, Note_on_c, 1, 78, 60
3, 128602, Note_on_c, 1, 78, 0
3, 128640, Note_on_c, 1, 79, 60
3, 130522, Note_on_c, 1, 79, 0
3, 130560, Note_on_c, 1, 76, 60
3, 132442, Note_on_c, 1, 76, 0
3, 132480, Note_on_c, 1, 77, 60
3, 134362, Note_on_c, 1, 77, 0
3, 138240, Note_on_c, 1, 67, 60
3, 139200, Note_on_c, 1, 67, 0
3, 139200, Note_on_c, 1, 70, 60
3, 140160, Note_on_c, 1, 70, 0
3, 140160, Note_on_c, 1, 72, 60
3, 140544, Note_on_c, 1, 72, 0
3, 144000, Note_on_c, 1, 75, 60
3, 150144, Note_on_c, 1, 75, 0
3, 151680, Note_on_c, 1, 78, 60
3, 152640, Note_on_c, 1, 78, 0
3, 152640, Note_on_c, 1, 77, 60
3, 153120, Note_on_c, 1, 77, 0
3, 153120, Note_on_c, 1, 75, 60
3, 153600, Note_on_c, 1, 75, 0
3, 153600, Note_on_c, 1, 73, 60
3, 153984, Note_on_c, 1, 73, 0
3, 155520, Note_on_c, 1, 68, 60
3, 156480, Note_on_c, 1, 68, 0
3, 156480, Note_on_c, 1, 67, 60
3, 156960, Note_on_c, 1, 67, 0
3, 156960, Note_on_c, 1, 65, 60
3, 157440, Note_on_c, 1, 65, 0
3, 157440, Note_on_c, 1, 64, 60
3, 157824, Note_on_c, 1, 64, 0
3, 159840, Note_on_c, 1, 79, 60
3, 160320, Note_on_c, 1, 79, 0
3, 160320, Note_on_c, 1, 76, 60
3, 160800, Note_on_c, 1, 76, 0
3, 161760, Note_on_c, 1, 80, 60
3, 162240, Note_on_c, 1, 80, 0
3, 162240, Note_on_c, 1, 77, 60
3, 162720, Note_on_c, 1, 77, 0
3, 163680, Note_on_c, 1, 76, 60
3, 164640, Note_on_c, 1, 76, 0
3, 165600, Note_on_c, 1, 77, 60
3, 166560, Note_on_c, 1, 77, 0
3, 167520, Note_on_c, 1, 77, 60
3, 168000, Note_on_c, 1, 77, 0
3, 168000, Note_on_c, 1, 76, 60
3, 168480, Note_on_c, 1, 76, 0
3, 168480, Note_on_c, 1, 72, 60
3, 168960, Note_on_c, 1, 72, 0
3, 168960, Note_on_c, 1, 77, 80
3, 169900, Note_on_c, 1, 77, 0
3, 169920, Note_on_c, 1, 76, 80
3, 170160, Note_on_c, 1, 76, 0
3, 170160, Note_on_c, 1, 74, 80
3, 170396, Note_on_c, 1, 74, 0
3, 170400, Note_on_c, 1, 72, 80
3, 170640, Note_on_c, 1, 72, 0
3, 170640, Note_on_c, 1, 70, 80
3, 170876, Note_on_c, 1, 70, 0
3, 170880, Note_on_c, 1, 69, 80
3, 171360, Note_on_c, 1, 69, 0
3, 171360, Note_on_c, 1, 67, 80
3, 172320, Note_on_c, 1, 67, 0
3, 172320, Note_on_c, 1, 72, 80
3, 172790, Note_on_c, 1, 72, 0
3, 172800, Note_on_c, 1, 70, 80
3, 173280, Note_on_c, 1, 70, 0
3, 173280, Note_on_c, 1, 69, 80
3, 173664, Note_on_c, 1, 69, 0
3, 174720, Note_on_c, 1, 77, 70
3, 175660, Note_on_c, 1, 77, 0
3, 175680, Note_on_c, 1, 76, 70
3, 175920, Note_on_c, 1, 76, 0
3, 175920, Note_on_c, 1, 74, 70
3, 176156, Note_on_c, 1, 74, 0
3, 176160, Note_on_c, 1, 72, 70
3, 176400, Note_on_c, 1, 72, 0
3, 176400, Note_on_c, 1, 70, 70
3, 176636, Note_on_c, 1, 70, 0
3, 176640, Note_on_c, 1, 69, 70
3, 177120, Note_on_c, 1, 69, 0
3, 177120, Note_on_c, 1, 67, 70
3, 178080, Note_on_c, 1, 67, 0
3, 178080, Note_on_c, 1, 72, 70
3, 178550, Note_on_c, 1, 72, 0
3, 178560, Note_on_c, 1, 65, 70
3, 178560, Note_on_c, 1, 77, 70
3, 180864, Note_on_c, 1, 77, 0
3, 180864, Note_on_c, 1, 65, 0
3, 182400, Note_on_c, 1, 65, 60
3, 182504, Note_on_c, 1, 65, 0
3, 182560, Note_on_c, 1, 65, 63
3, 182664, Note_on_c, 1, 65, 0
3, 182720, Note_on_c, 1, 65, 68
3, 182824, Note_on_c, 1, 65, 0
3, 182880, Note_on_c, 1, 64, 74
3, 182984, Note_on_c, 1, 64, 0
3, 183040, Note_on_c, 1, 64, 79
3, 183144, Note_on_c, 1, 64, 0
3, 183200, Note_on_c, 1, 64, 85
3, 183304, Note_on_c, 1, 64, 0
3, 183360, Note_on_c, 1, 65, 91
3, 183464, Note_on_c, 1, 65, 0
3, 183520, Note_on_c, 1, 65, 96
3, 183624, Note_on_c, 1, 65, 0
3, 183680, Note_on_c, 1, 65, 102
3, 183784, Note_on_c, 1, 65, 0
3, 183840, Note_on_c, 1, 64, 113
3, 183840, Note_on_c, 1, 67, 113
3, 183944, Note_on_c, 1, 67, 0
3, 183944, Note_on_c, 1, 64, 0
3, 184000, Note_on_c, 1, 64, 105
3, 184000, Note_on_c, 1, 67, 105
3, 184104, Note_on_c, 1, 67, 0
3, 184104, Note_on_c, 1, 64, 0
3, 184160, Note_on_c, 1, 64, 98
3, 184160, Note_on_c, 1, 67, 98
3, 184264, Note_on_c, 1, 67, 0
3, 184264, Note_on_c, 1, 64, 0
3, 184320, Note_on_c, 1, 65, 66
3, 184320, Note_on_c, 1, 68, 66
3, 184704, Note_on_c, 1, 68, 0
3, 184704, Note_on_c, 1, 65, 0
3, 186240, Note_on_c, 1, 81, 60
3, 188160, Note_on_c, 1, 81, 0
3, 188160, Note_on_c, 1, 82, 60
3, 190080, Note_on_c, 1, 82, 0
3, 190080, Note_on_c, 1, 81, 60
3, 190464, Note_on_c, 1, 81, 0
3, 192000, Note_on_c, 1, 70, 60
3, 192104, Note_on_c, 1, 70, 0
3, 192160, Note_on_c, 1, 70, 60
3, 192264, Note_on_c, 1, 70, 0
3, 192320, Note_on_c, 1, 70, 60
3, 192424, Note_on_c, 1, 70, 0
3, 192480, Note_on_c, 1, 70, 60
3, 192584, Note_on_c, 1, 70, 0
3, 192640, Note_on_c, 1, 70, 60
3, 192744, Note_on_c, 1, 70, 0
3, 192800, Note_on_c, 1, 70, 60
3, 192904, Note_on_c, 1, 70, 0
3, 192960, Note_on_c, 1, 70, 60
3, 193064, Note_on_c, 1, 70, 0
3, 193120, Note_on_c, 1, 70, 60
3, 193224, Note_on_c, 1, 70, 0
3, 193280, Note_on_c, 1, 70, 60
3, 193384, Note_on_c, 1, 70, 0
3, 193440, Note_on_c, 1, 70, 60
3, 193544, Note_on_c, 1, 70, 0
3, 193600, Note_on_c, 1, 70, 60
3, 193704, Note_on_c, 1, 70, 0
3, 193760, Note_on_c, 1, 70, 60
3, 193864, Note_on_c, 1, 70, 0
3, 193920, Note_on_c, 1, 69, 60
3, 194024, Note_on_c, 1, 69, 0
3, 194080, Note_on_c, 1, 69, 60
3, 194184, Note_on_c, 1, 69, 0
3, 194240, Note_on_c, 1, 69, 60
3, 194344, Note_on_c, 1, 69, 0
3, 194400, Note_on_c, 1, 69, 60
3, 194504, Note_on_c, 1, 69, 0
3, 194560, Note_on_c, 1, 69, 60
3, 194664, Note_on_c, 1, 69, 0
3, 194720, Note_on_c, 1, 69, 60
3, 194824, Note_on_c, 1, 69, 0
3, 194880, Note_on_c, 1, 69, 60
3, 194984, Note_on_c, 1, 69, 0
3, 195040, Note_on_c, 1, 69, 60
3, 195144, Note_on_c, 1, 69, 0
3, 195200, Note_on_c, 1, 69, 60
3, 195304, Note_on_c, 1, 69, 0
3, 195360, Note_on_c, 1, 69, 60
3, 195464, Note_on_c, 1, 69, 0
3, 195520, Note_on_c, 1, 69, 60
3, 195624, Note_on_c, 1, 69, 0
3, 195680, Note_on_c, 1, 69, 60
3, 195784, Note_on_c, 1, 69, 0
3, 195840, Note_on_c, 1, 70, 60
3, 195944, Note_on_c, 1, 70, 0
3, 196000, Note_on_c, 1, 70, 60
3, 196104, Note_on_c, 1, 70, 0
3, 196160, Note_on_c, 1, 70, 60
3, 196264, Note_on_c, 1, 70, 0
3, 196320, Note_on_c, 1, 70, 60
3, 196424, Note_on_c, 1, 70, 0
3, 196480, Note_on_c, 1, 70, 60
3, 196584, Note_on_c, 1, 70, 0
3, 196640, Note_on_c, 1, 70, 60
3, 196744, Note_on_c, 1, 70, 0
3, 196800, Note_on_c, 1, 70, 60
3, 196904, Note_on_c, 1, 70, 0
3, 196960, Note_on_c, 1, 70, 60
3, 197064, Note_on_c, 1, 70, 0
3, 197120, Note_on_c, 1, 70, 60
3, 197224, Note_on_c, 1, 70, 0
3, 197280, Note_on_c, 1, 70, 60
3, 197384, Note_on_c, 1, 70, 0
3, 197440, Note_on_c, 1, 70, 60
3, 197544, Note_on_c, 1, 70, 0
3, 197600, Note_on_c, 1, 70, 60
3, 197704, Note_on_c, 1, 70, 0
3, 197760, Note_on_c, 1, 69, 54
3, 197856, Note_on_c, 1, 69, 0
3, 197920, Note_on_c, 1, 69, 53
3, 198016, Note_on_c, 1, 69, 0
3, 198080, Note_on_c, 1, 69, 53
3, 198176, Note_on_c, 1, 69, 0
3, 198240, Note_on_c, 1, 69, 53
3, 198336, Note_on_c, 1, 69, 0
3, 198400, Note_on_c, 1, 65, 53
3, 198496, Note_on_c, 1, 65, 0
3, 198560, Note_on_c, 1, 65, 53
3, 198656, Note_on_c, 1, 65, 0
3, 198720, Note_on_c, 1, 65, 53
3, 198816, Note_on_c, 1, 65, 0
3, 198880, Note_on_c, 1, 65, 53
3, 198976, Note_on_c, 1, 65, 0
3, 199040, Note_on_c, 1, 65, 53
3, 199136, Note_on_c, 1, 65, 0
3, 199200, Note_on_c, 1, 65, 53
3, 199296, Note_on_c, 1, 65, 0
3, 199360, Note_on_c, 1, 65, 53
3, 199456, Note_on_c, 1, 65, 0
3, 199520, Note_on_c, 1, 65, 53
3, 199616, Note_on_c, 1, 65, 0
3, 199680, Note_on_c, 1, 65, 53
3, 200144, Note_on_c, 1, 65, 0
3, 200144, End_track
4, 0, Start_track
4, 0, Sequencer_specific, 04, 43, 00, 01, 00
4, 0, Program_c, 1, 68
4, 0, Control_c, 1, 7, 76
4, 0, Control_c, 1, 10, 64
4, 0, Control_c, 1, 91, 95
4, 15360, Note_on_c, 1, 75, 70
4, 17280, Note_on_c, 1, 75, 0
4, 17280, Note_on_c, 1, 74, 70
4, 19162, Note_on_c, 1, 74, 0
4, 19200, Note_on_c, 1, 77, 60
4, 23002, Note_on_c, 1, 77, 0
4, 23520, Note_on_c, 1, 70, 60
4, 24480, Note_on_c, 1, 70, 0
4, 25440, Note_on_c, 1, 72, 60
4, 26400, Note_on_c, 1, 72, 0
4, 27360, Note_on_c, 1, 73, 60
4, 27840, Note_on_c, 1, 73, 0
4, 27840, Note_on_c, 1, 72, 60
4, 28320, Note_on_c, 1, 72, 0
4, 29280, Note_on_c, 1, 71, 60
4, 29760, Note_on_c, 1, 71, 0
4, 29760, Note_on_c, 1, 74, 60
4, 30144, Note_on_c, 1, 74, 0
4, 31200, Note_on_c, 1, 70, 60
4, 31680, Note_on_c, 1, 70, 0
4, 31680, Note_on_c, 1, 67, 60
4, 32160, Note_on_c, 1, 67, 0
4, 42400, Note_on_c, 1, 65, 60
4, 42528, Note_on_c, 1, 65, 0
4, 42560, Note_on_c, 1, 65, 60
4, 42688, Note_on_c, 1, 65, 0
4, 42720, Note_on_c, 1, 65, 60
4, 42848, Note_on_c, 1, 65, 0
4, 42880, Note_on_c, 1, 60, 60
4, 43008, Note_on_c, 1, 60, 0
4, 43040, Note_on_c, 1, 60, 60
4, 43168, Note_on_c, 1, 60, 0
4, 43200, Note_on_c, 1, 60, 60
4, 43328, Note_on_c, 1, 60, 0
4, 43360, Note_on_c, 1, 60, 60
4, 43488, Note_on_c, 1, 60, 0
4, 43520, Note_on_c, 1, 60, 60
4, 43648, Note_on_c, 1, 60, 0
4, 43680, Note_on_c, 1, 60, 60
4, 43808, Note_on_c, 1, 60, 0
4, 43840, Note_on_c, 1, 60, 60
4, 43968, Note_on_c, 1, 60, 0
4, 44000, Note_on_c, 1, 60, 60
4, 44128, Note_on_c, 1, 60, 0
4, 44160, Note_on_c, 1, 60, 60
4, 44544, Note_on_c, 1, 60, 0
4, 57600, Note_on_c, 1, 75, 60
4, 59482, Note_on_c, 1, 75, 0
4, 59520, Note_on_c, 1, 74, 60
4, 61402, Note_on_c, 1, 74, 0
4, 61440, Note_on_c, 1, 77, 60
4, 65242, Note_on_c, 1, 77, 0
4, 65280, Note_on_c, 1, 79, 60
4, 67162, Note_on_c, 1, 79, 0
4, 86880, Note_on_c, 1, 62, 80
4, 87360, Note_on_c, 1, 62, 0
4, 87360, Note_on_c, 1, 71, 60
4, 87744, Note_on_c, 1, 71, 0
4, 88800, Note_on_c, 1, 63, 80
4, 89280, Note_on_c, 1, 63, 0
4, 89280, Note_on_c, 1, 72, 60
4, 89664, Note_on_c, 1, 72, 0
4, 90720, Note_on_c, 1, 71, 60
4, 91680, Note_on_c, 1, 71, 0
4, 92640, Note_on_c, 1, 72, 60
4, 93600, Note_on_c, 1, 72, 0
4, 94560, Note_on_c, 1, 72, 60
4, 95040, Note_on_c, 1, 72, 0
4, 95040, Note_on_c, 1, 71, 60
4, 95424, Note_on_c, 1, 71, 0
4, 117280, Note_on_c, 1, 69, 90
4, 117384, Note_on_c, 1, 69, 0
4, 117440, Note_on_c, 1, 69, 90
4, 117544, Note_on_c, 1, 69, 0
4, 117600, Note_on_c, 1, 69, 90
4, 117704, Note_on_c, 1, 69, 0
4, 117760, Note_on_c, 1, 69, 90
4, 117864, Note_on_c, 1, 69, 0
4, 117920, Note_on_c, 1, 69, 90
4, 118024, Note_on_c, 1, 69, 0
4, 118080, Note_on_c, 1, 69, 90
4, 118184, Note_on_c, 1, 69, 0
4, 118240, Note_on_c, 1, 69, 90
4, 118344, Note_on_c, 1, 69, 0
4, 118400, Note_on_c, 1, 69, 90
4, 118504, Note_on_c, 1, 69, 0
4, 118560, Note_on_c, 1, 69, 90
4, 118664, Note_on_c, 1, 69, 0
4, 118720, Note_on_c, 1, 69, 90
4, 118880, Note_on_c, 1, 69, 0
4, 118880, Note_on_c, 1, 72, 90
4, 118984, Note_on_c, 1, 72, 0
4, 119040, Note_on_c, 1, 70, 90
4, 119424, Note_on_c, 1, 70, 0
4, 126720, Note_on_c, 1, 75, 60
4, 128602, Note_on_c, 1, 75, 0
4, 128640, Note_on_c, 1, 74, 60
4, 130522, Note_on_c, 1, 74, 0
4, 130560, Note_on_c, 1, 73, 60
4, 132442, Note_on_c, 1, 73, 0
4, 132480, Note_on_c, 1, 72, 60
4, 134362, Note_on_c, 1, 72, 0
4, 159840, Note_on_c, 1, 70, 60
4, 160800, Note_on_c, 1, 70, 0
4, 161760, Note_on_c, 1, 72, 60
4, 162720, Note_on_c, 1, 72, 0
4, 163680, Note_on_c, 1, 73, 60
4, 164160, Note_on_c, 1, 73, 0
4, 164160, Note_on_c, 1, 72, 60
4, 164640, Note_on_c, 1, 72, 0
4, 165600, Note_on_c, 1, 71, 60
4, 166080, Note_on_c, 1, 71, 0
4, 166080, Note_on_c, 1, 74, 60
4, 166560, Note_on_c, 1, 74, 0
4, 167520, Note_on_c, 1, 70, 60
4, 168000, Note_on_c, 1, 70, 0
4, 168000, Note_on_c, 1, 67, 60
4, 168480, Note_on_c, 1, 67, 0
4, 186240, Note_on_c, 1, 77, 60
4, 188160, Note_on_c, 1, 77, 0
4, 188160, Note_on_c, 1, 79, 60
4, 189120, Note_on_c, 1, 79, 0
4, 189120, Note_on_c, 1, 76, 60
4, 190080, Note_on_c, 1, 76, 0
4, 190080, Note_on_c, 1, 77, 60
4, 190464, Note_on_c, 1, 77, 0
4, 192000, Note_on_c, 1, 64, 60
4, 192104, Note_on_c, 1, 64, 0
4, 192160, Note_on_c, 1, 64, 60
4, 192264, Note_on_c, 1, 64, 0
4, 192320, Note_on_c, 1, 64, 60
4, 192424, Note_on_c, 1, 64, 0
4, 192480, Note_on_c, 1, 64, 60
4, 192584, Note_on_c, 1, 64, 0
4, 192640, Note_on_c, 1, 64, 60
4, 192744, Note_on_c, 1, 64, 0
4, 192800, Note_on_c, 1, 64, 60
4, 192904, Note_on_c, 1, 64, 0
4, 192960, Note_on_c, 1, 64, 60
4, 193064, Note_on_c, 1, 64, 0
4, 193120, Note_on_c, 1, 64, 60
4, 193224, Note_on_c, 1, 64, 0
4, 193280, Note_on_c, 1, 64, 60
4, 193384, Note_on_c, 1, 64, 0
4, 193440, Note_on_c, 1, 64, 60
4, 193544, Note_on_c, 1, 64, 0
4, 193600, Note_on_c, 1, 64, 60
4, 193704, Note_on_c, 1, 64, 0
4, 193760, Note_on_c, 1, 64, 60
4, 193864, Note_on_c, 1, 64, 0
4, 193920, Note_on_c, 1, 65, 60
4, 194024, Note_on_c, 1, 65, 0
4, 194080, Note_on_c, 1, 65, 60
4, 194184, Note_on_c, 1, 65, 0
4, 194240, Note_on_c, 1, 65, 60
4, 194344, Note_on_c, 1, 65, 0
4, 194400, Note_on_c, 1, 65, 60
4, 194504, Note_on_c, 1, 65, 0
4, 194560, Note_on_c, 1, 65, 60
4, 194664, Note_on_c, 1, 65, 0
4, 194720, Note_on_c, 1, 65, 60
4, 194824, Note_on_c, 1, 65, 0
4, 194880, Note_on_c, 1, 65, 60
4, 194984, Note_on_c, 1, 65, 0
4, 195040, Note_on_c, 1, 65, 60
4, 195144, Note_on_c, 1, 65, 0
4, 195200, Note_on_c, 1, 65, 60
4, 195304, Note_on_c, 1, 65, 0
4, 195360, Note_on_c, 1, 65, 60
4, 195464, Note_on_c, 1, 65, 0
4, 195520, Note_on_c, 1, 65, 60
4, 195624, Note_on_c, 1, 65, 0
4, 195680, Note_on_c, 1, 65, 60
4, 195784, Note_on_c, 1, 65, 0
4, 195840, Note_on_c, 1, 64, 60
4, 195944, Note_on_c, 1, 64, 0
4, 196000, Note_on_c, 1, 64, 60
4, 196104, Note_on_c, 1, 64, 0
4, 196160, Note_on_c, 1, 64, 60
4, 196264, Note_on_c, 1, 64, 0
4, 196320, Note_on_c, 1, 64, 60
4, 196424, Note_on_c, 1, 64, 0
4, 196480, Note_on_c, 1, 64, 60
4, 196584, Note_on_c, 1, 64, 0
4, 196640, Note_on_c, 1, 64, 60
4, 196744, Note_on_c, 1, 64, 0
4, 196800, Note_on_c, 1, 64, 60
4, 196904, Note_on_c, 1, 64, 0
4, 196960, Note_on_c, 1, 64, 60
4, 197064, Note_on_c, 1, 64, 0
4, 197120, Note_on_c, 1, 64, 60
4, 197224, Note_on_c, 1, 64, 0
4, 197280, Note_on_c, 1, 64, 60
4, 197384, Note_on_c, 1, 64, 0
4, 197440, Note_on_c, 1, 64, 60
4, 197544, Note_on_c, 1, 64, 0
4, 197600, Note_on_c, 1, 64, 60
4, 197704, Note_on_c, 1, 64, 0
4, 197760, Note_on_c, 1, 65, 54
4, 197856, Note_on_c, 1, 65, 0
4, 197920, Note_on_c, 1, 65, 53
4, 198016, Note_on_c, 1, 65, 0
4, 198080, Note_on_c, 1, 65, 53
4, 198176, Note_on_c, 1, 65, 0
4, 198240, Note_on_c, 1, 65, 53
4, 198336, Note_on_c, 1, 65, 0
4, 198400, Note_on_c, 1, 60, 53
4, 198496, Note_on_c, 1, 60, 0
4, 198560, Note_on_c, 1, 60, 53
4, 198656, Note_on_c, 1, 60, 0
4, 198720, Note_on_c, 1, 60, 53
4, 198816, Note_on_c, 1, 60, 0
4, 198880, Note_on_c, 1, 60, 52
4, 198976, Note_on_c, 1, 60, 0
4, 199040, Note_on_c, 1, 60, 52
4, 199136, Note_on_c, 1, 60, 0
4, 199200, Note_on_c, 1, 60, 52
4, 199296, Note_on_c, 1, 60, 0
4, 199360, Note_on_c, 1, 60, 52
4, 199456, Note_on_c, 1, 60, 0
4, 199520, Note_on_c, 1, 60, 52
4, 199616, Note_on_c, 1, 60, 0
4, 199680, Note_on_c, 1, 60, 52
4, 200144, Note_on_c, 1, 60, 0
4, 200144, End_track
5, 0, Start_track
5, 0, Sequencer_specific, 04, 43, 00, 01, 00
5, 0, Program_c, 2, 70
5, 0, Control_c, 2, 7, 76
5, 0, Control_c, 2, 10, 80
5, 0, Control_c, 2, 91, 95
5, 15360, Note_on_c, 2, 60, 70
5, 17280, Note_on_c, 2, 60, 0
5, 17280, Note_on_c, 2, 62, 60
5, 19162, Note_on_c, 2, 62, 0
5, 19200, Note_on_c, 2, 62, 60
5, 21120, Note_on_c, 2, 62, 0
5, 21120, Note_on_c, 2, 60, 70
5, 22560, Note_on_c, 2, 60, 0
5, 22560, Note_on_c, 2, 53, 60
5, 23520, Note_on_c, 2, 53, 0
5, 23520, Note_on_c, 2, 52, 60
5, 24000, Note_on_c, 2, 52, 0
5, 24000, Note_on_c, 2, 55, 60
5, 25440, Note_on_c, 2, 55, 0
5, 25440, Note_on_c, 2, 53, 60
5, 25920, Note_on_c, 2, 53, 0
5, 25920, Note_on_c, 2, 56, 60
5, 27360, Note_on_c, 2, 56, 0
5, 27360, Note_on_c, 2, 55, 60
5, 27840, Note_on_c, 2, 55, 0
5, 27840, Note_on_c, 2, 58, 60
5, 29280, Note_on_c, 2, 58, 0
5, 29280, Note_on_c, 2, 56, 60
5, 29760, Note_on_c, 2, 56, 0
5, 29760, Note_on_c, 2, 59, 60
5, 30700, Note_on_c, 2, 59, 0
5, 30720, Note_on_c, 2, 60, 60
5, 31200, Note_on_c, 2, 60, 0
5, 31200, Note_on_c, 2, 61, 60
5, 31680, Note_on_c, 2, 61, 0
5, 31680, Note_on_c, 2, 60, 60
5, 32064, Note_on_c, 2, 60, 0
5, 37600, Note_on_c, 2, 60, 70
5, 37760, Note_on_c, 2, 60, 0
5, 37760, Note_on_c, 2, 61, 70
5, 37920, Note_on_c, 2, 61, 0
5, 37920, Note_on_c, 2, 62, 70
5, 38080, Note_on_c, 2, 62, 0
5, 38080, Note_on_c, 2, 63, 70
5, 38240, Note_on_c, 2, 63, 0
5, 38240, Note_on_c, 2, 64, 70
5, 38400, Note_on_c, 2, 64, 0
5, 38400, Note_on_c, 2, 65, 70
5, 39340, Note_on_c, 2, 65, 0
5, 39360, Note_on_c, 2, 64, 70
5, 39600, Note_on_c, 2, 64, 0
5, 39600, Note_on_c, 2, 62, 70
5, 39828, Note_on_c, 2, 62, 0
5, 39840, Note_on_c, 2, 60, 70
5, 40080, Note_on_c, 2, 60, 0
5, 40080, Note_on_c, 2, 58, 70
5, 40308, Note_on_c, 2, 58, 0
5, 40320, Note_on_c, 2, 57, 70
5, 40800, Note_on_c, 2, 57, 0
5, 40800, Note_on_c, 2, 55, 70
5, 41520, Note_on_c, 2, 55, 0
5, 41520, Note_on_c, 2, 57, 70
5, 41580, Note_on_c, 2, 57, 0
5, 41580, Note_on_c, 2, 55, 70
5, 41640, Note_on_c, 2, 55, 0
5, 41640, Note_on_c, 2, 54, 70
5, 41700, Note_on_c, 2, 54, 0
5, 41700, Note_on_c, 2, 55, 70
5, 41760, Note_on_c, 2, 55, 0
5, 41760, Note_on_c, 2, 60, 70
5, 42240, Note_on_c, 2, 60, 0
5, 42240, Note_on_c, 2, 53, 60
5, 42368, Note_on_c, 2, 53, 0
5, 42400, Note_on_c, 2, 53, 60
5, 42400, Note_on_c, 2, 57, 60
5, 42528, Note_on_c, 2, 57, 0
5, 42528, Note_on_c, 2, 53, 0
5, 42560, Note_on_c, 2, 57, 60
5, 42560, Note_on_c, 2, 53, 60
5, 42688, Note_on_c, 2, 53, 0
5, 42688, Note_on_c, 2, 57, 0
5, 42720, Note_on_c, 2, 53, 60
5, 42720, Note_on_c, 2, 57, 60
5, 42848, Note_on_c, 2, 57, 0
5, 42848, Note_on_c, 2, 53, 0
5, 42880, Note_on_c, 2, 53, 60
5, 43008, Note_on_c, 2, 53, 0
5, 43040, Note_on_c, 2, 53, 60
5, 43168, Note_on_c, 2, 53, 0
5, 43200, Note_on_c, 2, 53, 60
5, 43328, Note_on_c, 2, 53, 0
5, 43360, Note_on_c, 2, 48, 60
5, 43360, Note_on_c, 2, 41, 60
5, 43488, Note_on_c, 2, 41, 0
5, 43488, Note_on_c, 2, 48, 0
5, 43520, Note_on_c, 2, 41, 60
5, 43520, Note_on_c, 2, 48, 60
5, 43648, Note_on_c, 2, 48, 0
5, 43648, Note_on_c, 2, 41, 0
5, 43680, Note_on_c, 2, 41, 60
5, 43680, Note_on_c, 2, 48, 60
5, 43808, Note_on_c, 2, 48, 0
5, 43808, Note_on_c, 2, 41, 0
5, 43840, Note_on_c, 2, 41, 60
5, 43840, Note_on_c, 2, 48, 60
5, 43968, Note_on_c, 2, 48, 0
5, 43968, Note_on_c, 2, 41, 0
5, 44000, Note_on_c, 2, 48, 60
5, 44000, Note_on_c, 2, 41, 60
5, 44128, Note_on_c, 2, 41, 0
5, 44128, Note_on_c, 2, 48, 0
5, 44160, Note_on_c, 2, 41, 60
5, 44160, Note_on_c, 2, 48, 60
5, 44544, Note_on_c, 2, 48, 0
5, 44544, Note_on_c, 2, 41, 0
5, 57600, Note_on_c, 2, 60, 60
5, 59482, Note_on_c, 2, 60, 0
5, 59520, Note_on_c, 2, 62, 60
5, 63322, Note_on_c, 2, 62, 0
5, 63360, Note_on_c, 2, 60, 60
5, 65242, Note_on_c, 2, 60, 0
5, 65280, Note_on_c, 2, 64, 60
5, 67162, Note_on_c, 2, 64, 0
5, 67200, Note_on_c, 2, 65, 60
5, 67584, Note_on_c, 2, 65, 0
5, 68320, Note_on_c, 2, 53, 60
5, 68320, Note_on_c, 2, 57, 60
5, 68448, Note_on_c, 2, 57, 0
5, 68448, Note_on_c, 2, 53, 0
5, 68480, Note_on_c, 2, 57, 60
5, 68480, Note_on_c, 2, 53, 60
5, 68608, Note_on_c, 2, 53, 0
5, 68608, Note_on_c, 2, 57, 0
5, 68640, Note_on_c, 2, 53, 60
5, 68640, Note_on_c, 2, 57, 60
5, 68768, Note_on_c, 2, 57, 0
5, 68768, Note_on_c, 2, 53, 0
5, 68800, Note_on_c, 2, 57, 60
5, 68800, Note_on_c, 2, 53, 60
5, 68928, Note_on_c, 2, 53, 0
5, 68928, Note_on_c, 2, 57, 0
5, 68960, Note_on_c, 2, 53, 60
5, 68960, Note_on_c, 2, 57, 60
5, 69088, Note_on_c, 2, 57, 0
5, 69088, Note_on_c, 2, 53, 0
5, 69120, Note_on_c, 2, 55, 60
5, 69120, Note_on_c, 2, 52, 60
5, 69248, Note_on_c, 2, 52, 0
5, 69248, Note_on_c, 2, 55, 0
5, 69280, Note_on_c, 2, 52, 60
5, 69280, Note_on_c, 2, 55, 60
5, 69408, Note_on_c, 2, 55, 0
5, 69408, Note_on_c, 2, 52, 0
5, 69440, Note_on_c, 2, 52, 60
5, 69440, Note_on_c, 2, 55, 60
5, 69568, Note_on_c, 2, 55, 0
5, 69568, Note_on_c, 2, 52, 0
5, 69600, Note_on_c, 2, 52, 60
5, 69600, Note_on_c, 2, 55, 60
5, 69728, Note_on_c, 2, 55, 0
5, 69728, Note_on_c, 2, 52, 0
5, 69760, Note_on_c, 2, 55, 60
5, 69760, Note_on_c, 2, 52, 60
5, 69888, Note_on_c, 2, 52, 0
5, 69888, Note_on_c, 2, 55, 0
5, 69920, Note_on_c, 2, 55, 60
5, 69920, Note_on_c, 2, 52, 60
5, 70048, Note_on_c, 2, 52, 0
5, 70048, Note_on_c, 2, 55, 0
5, 70080, Note_on_c, 2, 55, 60
5, 70080, Note_on_c, 2, 61, 60
5, 70208, Note_on_c, 2, 61, 0
5, 70208, Note_on_c, 2, 55, 0
5, 70240, Note_on_c, 2, 55, 60
5, 70240, Note_on_c, 2, 61, 60
5, 70368, Note_on_c, 2, 61, 0
5, 70368, Note_on_c, 2, 55, 0
5, 70400, Note_on_c, 2, 61, 60
5, 70400, Note_on_c, 2, 55, 60
5, 70528, Note_on_c, 2, 55, 0
5, 70528, Note_on_c, 2, 61, 0
5, 70560, Note_on_c, 2, 61, 60
5, 70560, Note_on_c, 2, 55, 60
5, 70688, Note_on_c, 2, 55, 0
5, 70688, Note_on_c, 2, 61, 0
5, 70720, Note_on_c, 2, 55, 60
5, 70720, Note_on_c, 2, 61, 60
5, 70848, Note_on_c, 2, 61, 0
5, 70848, Note_on_c, 2, 55, 0
5, 70880, Note_on_c, 2, 55, 60
5, 70880, Note_on_c, 2, 61, 60
5, 71008, Note_on_c, 2, 61, 0
5, 71008, Note_on_c, 2, 55, 0
5, 71040, Note_on_c, 2, 53, 60
5, 71040, Note_on_c, 2, 62, 60
5, 71424, Note_on_c, 2, 62, 0
5, 71424, Note_on_c, 2, 53, 0
5, 86880, Note_on_c, 2, 56, 60
5, 88320, Note_on_c, 2, 56, 0
5, 88800, Note_on_c, 2, 55, 60
5, 89280, Note_on_c, 2, 55, 0
5, 89280, Note_on_c, 2, 67, 60
5, 90240, Note_on_c, 2, 67, 0
5, 90720, Note_on_c, 2, 53, 60
5, 91200, Note_on_c, 2, 53, 0
5, 91200, Note_on_c, 2, 65, 60
5, 92160, Note_on_c, 2, 65, 0
5, 92640, Note_on_c, 2, 51, 60
5, 93120, Note_on_c, 2, 51, 0
5, 93120, Note_on_c, 2, 63, 60
5, 94080, Note_on_c, 2, 63, 0
5, 94560, Note_on_c, 2, 50, 60
5, 95040, Note_on_c, 2, 50, 0
5, 95040, Note_on_c, 2, 62, 60
5, 96000, Note_on_c, 2, 62, 0
5, 96000, Note_on_c, 2, 60, 60
5, 96384, Note_on_c, 2, 60, 0
5, 101760, Note_on_c, 2, 60, 60
5, 102672, Note_on_c, 2, 60, 0
5, 102720, Note_on_c, 2, 59, 60
5, 102960, Note_on_c, 2, 59, 0
5, 102960, Note_on_c, 2, 57, 60
5, 103188, Note_on_c, 2, 57, 0
5, 103200, Note_on_c, 2, 55, 60
5, 103440, Note_on_c, 2, 55, 0
5, 103440, Note_on_c, 2, 53, 60
5, 103668, Note_on_c, 2, 53, 0
5, 103680, Note_on_c, 2, 52, 60
5, 104160, Note_on_c, 2, 52, 0
5, 104160, Note_on_c, 2, 50, 60
5, 105120, Note_on_c, 2, 50, 0
5, 105120, Note_on_c, 2, 55, 60
5, 105576, Note_on_c, 2, 55, 0
5, 105600, Note_on_c, 2, 52, 60
5, 105984, Note_on_c, 2, 52, 0
5, 107520, Note_on_c, 2, 60, 60
5, 109920, Note_on_c, 2, 60, 0
5, 109920, Note_on_c, 2, 57, 60
5, 110880, Note_on_c, 2, 57, 0
5, 110880, Note_on_c, 2, 62, 60
5, 111360, Note_on_c, 2, 62, 0
5, 111360, Note_on_c, 2, 62, 60
5, 111744, Note_on_c, 2, 62, 0
5, 118080, Note_on_c, 2, 63, 90
5, 118184, Note_on_c, 2, 63, 0
5, 118240, Note_on_c, 2, 63, 90
5, 118344, Note_on_c, 2, 63, 0
5, 118400, Note_on_c, 2, 63, 90
5, 118504, Note_on_c, 2, 63, 0
5, 118560, Note_on_c, 2, 63, 90
5, 118664, Note_on_c, 2, 63, 0
5, 118720, Note_on_c, 2, 63, 90
5, 118824, Note_on_c, 2, 63, 0
5, 118880, Note_on_c, 2, 63, 90
5, 118984, Note_on_c, 2, 63, 0
5, 119040, Note_on_c, 2, 62, 90
5, 119424, Note_on_c, 2, 62, 0
5, 126720, Note_on_c, 2, 57, 60
5, 126720, Note_on_c, 2, 60, 60
5, 128602, Note_on_c, 2, 60, 0
5, 128602, Note_on_c, 2, 57, 0
5, 128640, Note_on_c, 2, 58, 60
5, 128640, Note_on_c, 2, 62, 60
5, 130522, Note_on_c, 2, 62, 0
5, 130522, Note_on_c, 2, 58, 0
5, 130560, Note_on_c, 2, 55, 60
5, 130560, Note_on_c, 2, 58, 60
5, 132442, Note_on_c, 2, 58, 0
5, 132442, Note_on_c, 2, 55, 0
5, 132480, Note_on_c, 2, 56, 60
5, 132480, Note_on_c, 2, 60, 60
5, 134362, Note_on_c, 2, 60, 0
5, 134362, Note_on_c, 2, 56, 0
5, 138240, Note_on_c, 2, 63, 60
5, 140544, Note_on_c, 2, 63, 0
5, 144000, Note_on_c, 2, 63, 60
5, 150144, Note_on_c, 2, 63, 0
5, 151680, Note_on_c, 2, 66, 60
5, 152640, Note_on_c, 2, 66, 0
5, 152640, Note_on_c, 2, 65, 60
5, 153120, Note_on_c, 2, 65, 0
5, 153120, Note_on_c, 2, 63, 60
5, 153600, Note_on_c, 2, 63, 0
5, 153600, Note_on_c, 2, 61, 60
5, 153984, Note_on_c, 2, 61, 0
5, 157920, Note_on_c, 2, 60, 60
5, 158400, Note_on_c, 2, 60, 0
5, 158400, Note_on_c, 2, 56, 60
5, 158880, Note_on_c, 2, 56, 0
5, 158880, Note_on_c, 2, 53, 60
5, 159840, Note_on_c, 2, 53, 0
5, 159840, Note_on_c, 2, 52, 60
5, 160224, Note_on_c, 2, 52, 0
5, 160320, Note_on_c, 2, 55, 60
5, 161760, Note_on_c, 2, 55, 0
5, 161760, Note_on_c, 2, 53, 60
5, 162144, Note_on_c, 2, 53, 0
5, 162240, Note_on_c, 2, 56, 60
5, 163680, Note_on_c, 2, 56, 0
5, 163680, Note_on_c, 2, 55, 60
5, 164064, Note_on_c, 2, 55, 0
5, 164160, Note_on_c, 2, 58, 60
5, 165600, Note_on_c, 2, 58, 0
5, 165600, Note_on_c, 2, 56, 60
5, 166032, Note_on_c, 2, 56, 0
5, 166080, Note_on_c, 2, 59, 60
5, 166992, Note_on_c, 2, 59, 0
5, 167040, Note_on_c, 2, 60, 60
5, 167520, Note_on_c, 2, 60, 0
5, 167520, Note_on_c, 2, 61, 60
5, 168000, Note_on_c, 2, 61, 0
5, 168000, Note_on_c, 2, 60, 60
5, 168384, Note_on_c, 2, 60, 0
5, 174720, Note_on_c, 2, 65, 60
5, 175660, Note_on_c, 2, 65, 0
5, 175680, Note_on_c, 2, 64, 60
5, 175920, Note_on_c, 2, 64, 0
5, 175920, Note_on_c, 2, 62, 60
5, 176156, Note_on_c, 2, 62, 0
5, 176160, Note_on_c, 2, 60, 60
5, 176400, Note_on_c, 2, 60, 0
5, 176400, Note_on_c, 2, 58, 60
5, 176636, Note_on_c, 2, 58, 0
5, 176640, Note_on_c, 2, 57, 60
5, 177120, Note_on_c, 2, 57, 0
5, 177120, Note_on_c, 2, 55, 60
5, 178080, Note_on_c, 2, 55, 0
5, 178080, Note_on_c, 2, 60, 60
5, 178550, Note_on_c, 2, 60, 0
5, 178560, Note_on_c, 2, 57, 64
5, 178560, Note_on_c, 2, 60, 64
5, 178664, Note_on_c, 2, 60, 0
5, 178664, Note_on_c, 2, 57, 0
5, 178720, Note_on_c, 2, 60, 67
5, 178720, Note_on_c, 2, 57, 67
5, 178824, Note_on_c, 2, 57, 0
5, 178824, Note_on_c, 2, 60, 0
5, 178880, Note_on_c, 2, 57, 70
5, 178880, Note_on_c, 2, 60, 70
5, 178984, Note_on_c, 2, 60, 0
5, 178984, Note_on_c, 2, 57, 0
5, 179040, Note_on_c, 2, 59, 73
5, 179040, Note_on_c, 2, 56, 73
5, 179144, Note_on_c, 2, 56, 0
5, 179144, Note_on_c, 2, 59, 0
5, 179200, Note_on_c, 2, 56, 76
5, 179200, Note_on_c, 2, 59, 76
5, 179304, Note_on_c, 2, 59, 0
5, 179304, Note_on_c, 2, 56, 0
5, 179360, Note_on_c, 2, 56, 79
5, 179360, Note_on_c, 2, 59, 79
5, 179464, Note_on_c, 2, 59, 0
5, 179464, Note_on_c, 2, 56, 0
5, 179520, Note_on_c, 2, 60, 83
5, 179520, Note_on_c, 2, 57, 83
5, 179624, Note_on_c, 2, 57, 0
5, 179624, Note_on_c, 2, 60, 0
5, 179680, Note_on_c, 2, 60, 86
5, 179680, Note_on_c, 2, 57, 86
5, 179784, Note_on_c, 2, 57, 0
5, 179784, Note_on_c, 2, 60, 0
5, 179840, Note_on_c, 2, 60, 89
5, 179840, Note_on_c, 2, 57, 89
5, 179944, Note_on_c, 2, 57, 0
5, 179944, Note_on_c, 2, 60, 0
5, 180000, Note_on_c, 2, 62, 92
5, 180000, Note_on_c, 2, 59, 92
5, 180104, Note_on_c, 2, 59, 0
5, 180104, Note_on_c, 2, 62, 0
5, 180160, Note_on_c, 2, 62, 95
5, 180160, Note_on_c, 2, 59, 95
5, 180264, Note_on_c, 2, 59, 0
5, 180264, Note_on_c, 2, 62, 0
5, 180320, Note_on_c, 2, 59, 97
5, 180320, Note_on_c, 2, 62, 97
5, 180424, Note_on_c, 2, 62, 0
5, 180424, Note_on_c, 2, 59, 0
5, 180480, Note_on_c, 2, 63, 60
5, 180480, Note_on_c, 2, 60, 60
5, 180864, Note_on_c, 2, 60, 0
5, 180864, Note_on_c, 2, 63, 0
5, 182400, Note_on_c, 2, 62, 62
5, 182504, Note_on_c, 2, 62, 0
5, 182560, Note_on_c, 2, 62, 67
5, 182664, Note_on_c, 2, 62, 0
5, 182720, Note_on_c, 2, 62, 72
5, 182824, Note_on_c, 2, 62, 0
5, 182880, Note_on_c, 2, 61, 77
5, 182984, Note_on_c, 2, 61, 0
5, 183040, Note_on_c, 2, 61, 82
5, 183144, Note_on_c, 2, 61, 0
5, 183200, Note_on_c, 2, 61, 88
5, 183304, Note_on_c, 2, 61, 0
5, 183360, Note_on_c, 2, 62, 93
5, 183464, Note_on_c, 2, 62, 0
5, 183520, Note_on_c, 2, 62, 98
5, 183624, Note_on_c, 2, 62, 0
5, 183680, Note_on_c, 2, 62, 103
5, 183784, Note_on_c, 2, 62, 0
5, 183840, Note_on_c, 2, 61, 104
5, 183944, Note_on_c, 2, 61, 0
5, 184000, Note_on_c, 2, 61, 99
5, 184104, Note_on_c, 2, 61, 0
5, 184160, Note_on_c, 2, 61, 94
5, 184264, Note_on_c, 2, 61, 0
5, 184320, Note_on_c, 2, 62, 50
5, 184704, Note_on_c, 2, 62, 0
5, 186240, Note_on_c, 2, 60, 60
5, 188160, Note_on_c, 2, 60, 0
5, 188160, Note_on_c, 2, 64, 60
5, 190080, Note_on_c, 2, 64, 0
5, 190080, Note_on_c, 2, 65, 60
5, 190464, Note_on_c, 2, 65, 0
5, 192000, Note_on_c, 2, 58, 60
5, 192104, Note_on_c, 2, 58, 0
5, 192160, Note_on_c, 2, 58, 60
5, 192264, Note_on_c, 2, 58, 0
5, 192320, Note_on_c, 2, 58, 60
5, 192424, Note_on_c, 2, 58, 0
5, 192480, Note_on_c, 2, 58, 60
5, 192584, Note_on_c, 2, 58, 0
5, 192640, Note_on_c, 2, 58, 60
5, 192744, Note_on_c, 2, 58, 0
5, 192800, Note_on_c, 2, 58, 60
5, 192904, Note_on_c, 2, 58, 0
5, 192960, Note_on_c, 2, 58, 60
5, 193064, Note_on_c, 2, 58, 0
5, 193120, Note_on_c, 2, 58, 60
5, 193224, Note_on_c, 2, 58, 0
5, 193280, Note_on_c, 2, 58, 60
5, 193384, Note_on_c, 2, 58, 0
5, 193440, Note_on_c, 2, 58, 60
5, 193544, Note_on_c, 2, 58, 0
5, 193600, Note_on_c, 2, 58, 60
5, 193704, Note_on_c, 2, 58, 0
5, 193760, Note_on_c, 2, 58, 60
5, 193864, Note_on_c, 2, 58, 0
5, 193920, Note_on_c, 2, 57, 60
5, 194024, Note_on_c, 2, 57, 0
5, 194080, Note_on_c, 2, 57, 60
5, 194184, Note_on_c, 2, 57, 0
5, 194240, Note_on_c, 2, 57, 60
5, 194344, Note_on_c, 2, 57, 0
5, 194400, Note_on_c, 2, 57, 60
5, 194504, Note_on_c, 2, 57, 0
5, 194560, Note_on_c, 2, 57, 60
5, 194664, Note_on_c, 2, 57, 0
5, 194720, Note_on_c, 2, 57, 60
5, 194824, Note_on_c, 2, 57, 0
5, 194880, Note_on_c, 2, 57, 60
5, 194984, Note_on_c, 2, 57, 0
5, 195040, Note_on_c, 2, 57, 60
5, 195144, Note_on_c, 2, 57, 0
5, 195200, Note_on_c, 2, 57, 60
5, 195304, Note_on_c, 2, 57, 0
5, 195360, Note_on_c, 2, 57, 60
5, 195464, Note_on_c, 2, 57, 0
5, 195520, Note_on_c, 2, 57, 60
5, 195624, Note_on_c, 2, 57, 0
5, 195680, Note_on_c, 2, 57, 60
5, 195784, Note_on_c, 2, 57, 0
5, 195840, Note_on_c, 2, 58, 60
5, 195944, Note_on_c, 2, 58, 0
5, 196000, Note_on_c, 2, 58, 60
5, 196104, Note_on_c, 2, 58, 0
5, 196160, Note_on_c, 2, 58, 60
5, 196264, Note_on_c, 2, 58, 0
5, 196320, Note_on_c, 2, 58, 60
5, 196424, Note_on_c, 2, 58, 0
5, 196480, Note_on_c, 2, 58, 60
5, 196584, Note_on_c, 2, 58, 0
5, 196640, Note_on_c, 2, 58, 60
5, 196744, Note_on_c, 2, 58, 0
5, 196800, Note_on_c, 2, 58, 60
5, 196904, Note_on_c, 2, 58, 0
5, 196960, Note_on_c, 2, 58, 60
5, 197064, Note_on_c, 2, 58, 0
5, 197120, Note_on_c, 2, 58, 60
5, 197224, Note_on_c, 2, 58, 0
5, 197280, Note_on_c, 2, 58, 60
5, 197384, Note_on_c, 2, 58, 0
5, 197440, Note_on_c, 2, 58, 60
5, 197544, Note_on_c, 2, 58, 0
5, 197600, Note_on_c, 2, 58, 60
5, 197704, Note_on_c, 2, 58, 0
5, 197760, Note_on_c, 2, 57, 49
5, 197856, Note_on_c, 2, 57, 0
5, 197920, Note_on_c, 2, 57, 48
5, 198016, Note_on_c, 2, 57, 0
5, 198080, Note_on_c, 2, 57, 48
5, 198176, Note_on_c, 2, 57, 0
5, 198240, Note_on_c, 2, 57, 48
5, 198336, Note_on_c, 2, 57, 0
5, 198400, Note_on_c, 2, 53, 48
5, 198496, Note_on_c, 2, 53, 0
5, 198560, Note_on_c, 2, 53, 48
5, 198656, Note_on_c, 2, 53, 0
5, 198720, Note_on_c, 2, 53, 48
5, 198816, Note_on_c, 2, 53, 0
5, 198880, Note_on_c, 2, 48, 47
5, 198976, Note_on_c, 2, 48, 0
5, 199040, Note_on_c, 2, 48, 47
5, 199136, Note_on_c, 2, 48, 0
5, 199200, Note_on_c, 2, 48, 47
5, 199296, Note_on_c, 2, 48, 0
5, 199360, Note_on_c, 2, 48, 47
5, 199456, Note_on_c, 2, 48, 0
5, 199520, Note_on_c, 2, 48, 47
5, 199616, Note_on_c, 2, 48, 0
5, 199680, Note_on_c, 2, 48, 47
5, 200144, Note_on_c, 2, 48, 0
5, 200144, End_track
6, 0, Start_track
6, 0, Sequencer_specific, 04, 43, 00, 01, 00
6, 0, Program_c, 2, 70
6, 0, Control_c, 2, 7, 76
6, 0, Control_c, 2, 10, 80
6, 0, Control_c, 2, 91, 95
6, 15360, Note_on_c, 2, 57, 70
6, 17280, Note_on_c, 2, 57, 0
6, 17280, Note_on_c, 2, 58, 60
6, 19162, Note_on_c, 2, 58, 0
6, 19200, Note_on_c, 2, 59, 60
6, 21120, Note_on_c, 2, 59, 0
6, 22080, Note_on_c, 2, 48, 60
6, 32160, Note_on_c, 2, 48, 0
6, 32160, Note_on_c, 2, 46, 60
6, 32640, Note_on_c, 2, 46, 0
6, 32640, Note_on_c, 2, 45, 60
6, 33024, Note_on_c, 2, 45, 0
6, 57600, Note_on_c, 2, 57, 60
6, 59482, Note_on_c, 2, 57, 0
6, 59520, Note_on_c, 2, 58, 60
6, 61402, Note_on_c, 2, 58, 0
6, 61440, Note_on_c, 2, 59, 60
6, 63322, Note_on_c, 2, 59, 0
6, 64320, Note_on_c, 2, 57, 60
6, 65260, Note_on_c, 2, 57, 0
6, 65280, Note_on_c, 2, 55, 60
6, 67162, Note_on_c, 2, 55, 0
6, 67200, Note_on_c, 2, 53, 60
6, 67584, Note_on_c, 2, 53, 0
6, 84480, Note_on_c, 2, 43, 60
6, 95520, Note_on_c, 2, 43, 0
6, 95520, Note_on_c, 2, 41, 60
6, 96000, Note_on_c, 2, 41, 0
6, 96000, Note_on_c, 2, 40, 60
6, 96384, Note_on_c, 2, 40, 0
6, 105600, Note_on_c, 2, 48, 70
6, 107040, Note_on_c, 2, 48, 0
6, 107040, Note_on_c, 2, 46, 70
6, 107520, Note_on_c, 2, 46, 0
6, 107520, Note_on_c, 2, 45, 70
6, 108960, Note_on_c, 2, 45, 0
6, 108960, Note_on_c, 2, 43, 70
6, 109440, Note_on_c, 2, 43, 0
6, 109440, Note_on_c, 2, 42, 70
6, 109920, Note_on_c, 2, 42, 0
6, 109920, Note_on_c, 2, 45, 70
6, 110400, Note_on_c, 2, 45, 0
6, 110400, Note_on_c, 2, 50, 70
6, 110880, Note_on_c, 2, 50, 0
6, 110880, Note_on_c, 2, 54, 70
6, 111360, Note_on_c, 2, 54, 0
6, 111360, Note_on_c, 2, 55, 60
6, 111648, Note_on_c, 2, 55, 0
6, 111840, Note_on_c, 2, 57, 70
6, 112800, Note_on_c, 2, 57, 0
6, 112800, Note_on_c, 2, 53, 70
6, 113256, Note_on_c, 2, 53, 0
6, 113280, Note_on_c, 2, 51, 70
6, 114720, Note_on_c, 2, 51, 0
6, 114720, Note_on_c, 2, 50, 70
6, 115176, Note_on_c, 2, 50, 0
6, 115200, Note_on_c, 2, 49, 70
6, 115680, Note_on_c, 2, 49, 0
6, 115680, Note_on_c, 2, 52, 70
6, 116160, Note_on_c, 2, 52, 0
6, 116160, Note_on_c, 2, 45, 70
6, 116640, Note_on_c, 2, 45, 0
6, 116640, Note_on_c, 2, 49, 70
6, 117120, Note_on_c, 2, 49, 0
6, 117120, Note_on_c, 2, 50, 70
6, 117432, Note_on_c, 2, 50, 0
6, 118080, Note_on_c, 2, 57, 90
6, 118184, Note_on_c, 2, 57, 0
6, 118240, Note_on_c, 2, 57, 90
6, 118344, Note_on_c, 2, 57, 0
6, 118400, Note_on_c, 2, 57, 90
6, 118504, Note_on_c, 2, 57, 0
6, 118560, Note_on_c, 2, 57, 90
6, 118664, Note_on_c, 2, 57, 0
6, 118720, Note_on_c, 2, 57, 90
6, 118880, Note_on_c, 2, 57, 0
6, 118880, Note_on_c, 2, 60, 90
6, 118984, Note_on_c, 2, 60, 0
6, 119040, Note_on_c, 2, 58, 90
6, 119424, Note_on_c, 2, 58, 0
6, 138240, Note_on_c, 2, 60, 60
6, 139200, Note_on_c, 2, 60, 0
6, 139200, Note_on_c, 2, 58, 60
6, 140160, Note_on_c, 2, 58, 0
6, 140160, Note_on_c, 2, 56, 60
6, 140544, Note_on_c, 2, 56, 0
6, 157440, Note_on_c, 2, 48, 60
6, 168480, Note_on_c, 2, 48, 0
6, 168480, Note_on_c, 2, 46, 60
6, 168864, Note_on_c, 2, 46, 0
6, 168960, Note_on_c, 2, 45, 60
6, 169344, Note_on_c, 2, 45, 0
6, 182400, Note_on_c, 2, 46, 60
6, 182504, Note_on_c, 2, 46, 0
6, 182560, Note_on_c, 2, 46, 69
6, 182664, Note_on_c, 2, 46, 0
6, 182720, Note_on_c, 2, 46, 74
6, 182824, Note_on_c, 2, 46, 0
6, 182880, Note_on_c, 2, 46, 78
6, 182984, Note_on_c, 2, 46, 0
6, 183040, Note_on_c, 2, 46, 83
6, 183144, Note_on_c, 2, 46, 0
6, 183200, Note_on_c, 2, 46, 87
6, 183304, Note_on_c, 2, 46, 0
6, 183360, Note_on_c, 2, 46, 92
6, 183464, Note_on_c, 2, 46, 0
6, 183520, Note_on_c, 2, 46, 96
6, 183624, Note_on_c, 2, 46, 0
6, 183680, Note_on_c, 2, 46, 100
6, 183784, Note_on_c, 2, 46, 0
6, 183840, Note_on_c, 2, 46, 109
6, 183944, Note_on_c, 2, 46, 0
6, 184000, Note_on_c, 2, 46, 103
6, 184104, Note_on_c, 2, 46, 0
6, 184160, Note_on_c, 2, 46, 97
6, 184264, Note_on_c, 2, 46, 0
6, 184320, Note_on_c, 2, 47, 50
6, 184704, Note_on_c, 2, 47, 0
6, 186240, Note_on_c, 2, 57, 60
6, 188160, Note_on_c, 2, 57, 0
6, 188160, Note_on_c, 2, 55, 60
6, 190080, Note_on_c, 2, 55, 0
6, 190080, Note_on_c, 2, 57, 60
6, 190464, Note_on_c, 2, 57, 0
6, 192000, Note_on_c, 2, 55, 60
6, 192104, Note_on_c, 2, 55, 0
6, 192160, Note_on_c, 2, 55, 60
6, 192264, Note_on_c, 2, 55, 0
6, 192320, Note_on_c, 2, 55, 60
6, 192424, Note_on_c, 2, 55, 0
6, 192480, Note_on_c, 2, 55, 60
6, 192584, Note_on_c, 2, 55, 0
6, 192640, Note_on_c, 2, 55, 60
6, 192744, Note_on_c, 2, 55, 0
6, 192800, Note_on_c, 2, 55, 60
6, 192904, Note_on_c, 2, 55, 0
6, 192960, Note_on_c, 2, 55, 60
6, 193064, Note_on_c, 2, 55, 0
6, 193120, Note_on_c, 2, 55, 60
6, 193224, Note_on_c, 2, 55, 0
6, 193280, Note_on_c, 2, 55, 60
6, 193384, Note_on_c, 2, 55, 0
6, 193440, Note_on_c, 2, 55, 60
6, 193544, Note_on_c, 2, 55, 0
6, 193600, Note_on_c, 2, 55, 60
6, 193704, Note_on_c, 2, 55, 0
6, 193760, Note_on_c, 2, 55, 60
6, 193864, Note_on_c, 2, 55, 0
6, 193920, Note_on_c, 2, 53, 60
6, 194024, Note_on_c, 2, 53, 0
6, 194080, Note_on_c, 2, 53, 60
6, 194184, Note_on_c, 2, 53, 0
6, 194240, Note_on_c, 2, 53, 60
6, 194344, Note_on_c, 2, 53, 0
6, 194400, Note_on_c, 2, 53, 60
6, 194504, Note_on_c, 2, 53, 0
6, 194560, Note_on_c, 2, 53, 60
6, 194664, Note_on_c, 2, 53, 0
6, 194720, Note_on_c, 2, 53, 60
6, 194824, Note_on_c, 2, 53, 0
6, 194880, Note_on_c, 2, 53, 60
6, 194984, Note_on_c, 2, 53, 0
6, 195040, Note_on_c, 2, 53, 60
6, 195144, Note_on_c, 2, 53, 0
6, 195200, Note_on_c, 2, 53, 60
6, 195304, Note_on_c, 2, 53, 0
6, 195360, Note_on_c, 2, 53, 60
6, 195464, Note_on_c, 2, 53, 0
6, 195520, Note_on_c, 2, 53, 60
6, 195624, Note_on_c, 2, 53, 0
6, 195680, Note_on_c, 2, 53, 60
6, 195784, Note_on_c, 2, 53, 0
6, 195840, Note_on_c, 2, 55, 60
6, 195944, Note_on_c, 2, 55, 0
6, 196000, Note_on_c, 2, 55, 60
6, 196104, Note_on_c, 2, 55, 0
6, 196160, Note_on_c, 2, 55, 60
6, 196264, Note_on_c, 2, 55, 0
6, 196320, Note_on_c, 2, 55, 60
6, 196424, Note_on_c, 2, 55, 0
6, 196480, Note_on_c, 2, 55, 60
6, 196584, Note_on_c, 2, 55, 0
6, 196640, Note_on_c, 2, 55, 60
6, 196744, Note_on_c, 2, 55, 0
6, 196800, Note_on_c, 2, 55, 60
6, 196904, Note_on_c, 2, 55, 0
6, 196960, Note_on_c, 2, 55, 60
6, 197064, Note_on_c, 2, 55, 0
6, 197120, Note_on_c, 2, 55, 60
6, 197224, Note_on_c, 2, 55, 0
6, 197280, Note_on_c, 2, 55, 60
6, 197384, Note_on_c, 2, 55, 0
6, 197440, Note_on_c, 2, 55, 60
6, 197544, Note_on_c, 2, 55, 0
6, 197600, Note_on_c, 2, 55, 60
6, 197704, Note_on_c, 2, 55, 0
6, 197760, Note_on_c, 2, 53, 60
6, 197856, Note_on_c, 2, 53, 0
6, 197920, Note_on_c, 2, 53, 60
6, 198016, Note_on_c, 2, 53, 0
6, 198080, Note_on_c, 2, 53, 60
6, 198176, Note_on_c, 2, 53, 0
6, 198240, Note_on_c, 2, 53, 60
6, 198384, Note_on_c, 2, 53, 0
6, 198960, Note_on_c, 2, 41, 60
6, 199056, Note_on_c, 2, 41, 0
6, 199120, Note_on_c, 2, 41, 60
6, 199216, Note_on_c, 2, 41, 0
6, 199280, Note_on_c, 2, 41, 60
6, 199376, Note_on_c, 2, 41, 0
6, 199440, Note_on_c, 2, 41, 60
6, 199536, Note_on_c, 2, 41, 0
6, 199600, Note_on_c, 2, 41, 60
6, 199680, Note_on_c, 2, 41, 60
6, 199696, Note_on_c, 2, 41, 0
6, 200144, Note_on_c, 2, 41, 0
6, 200144, End_track
7, 0, Start_track
7, 0, Sequencer_specific, 04, 43, 00, 01, 00
7, 0, Program_c, 3, 60
7, 0, Control_c, 3, 7, 97
7, 0, Control_c, 3, 10, 36
7, 0, Control_c, 3, 91, 80
7, 15360, Note_on_c, 3, 53, 60
7, 15360, Note_on_c, 3, 65, 60
7, 19162, Note_on_c, 3, 65, 0
7, 19162, Note_on_c, 3, 53, 0
7, 19200, Note_on_c, 3, 53, 60
7, 19200, Note_on_c, 3, 65, 60
7, 21082, Note_on_c, 3, 65, 0
7, 21082, Note_on_c, 3, 53, 0
7, 21120, Note_on_c, 3, 48, 60
7, 21120, Note_on_c, 3, 60, 60
7, 32256, Note_on_c, 3, 60, 0
7, 32256, Note_on_c, 3, 48, 0
7, 38400, Note_on_c, 3, 53, 60
7, 38400, Note_on_c, 3, 65, 60
7, 40282, Note_on_c, 3, 65, 0
7, 40282, Note_on_c, 3, 53, 0
7, 40320, Note_on_c, 3, 48, 60
7, 40320, Note_on_c, 3, 60, 60
7, 40790, Note_on_c, 3, 60, 0
7, 40790, Note_on_c, 3, 48, 0
7, 40800, Note_on_c, 3, 53, 60
7, 40800, Note_on_c, 3, 65, 60
7, 41270, Note_on_c, 3, 65, 0
7, 41270, Note_on_c, 3, 53, 0
7, 41280, Note_on_c, 3, 60, 60
7, 41280, Note_on_c, 3, 48, 60
7, 42220, Note_on_c, 3, 48, 0
7, 42220, Note_on_c, 3, 60, 0
7, 42240, Note_on_c, 3, 53, 60
7, 42240, Note_on_c, 3, 60, 60
7, 42344, Note_on_c, 3, 60, 0
7, 42344, Note_on_c, 3, 53, 0
7, 42400, Note_on_c, 3, 60, 60
7, 42400, Note_on_c, 3, 65, 60
7, 42504, Note_on_c, 3, 65, 0
7, 42504, Note_on_c, 3, 60, 0
7, 42560, Note_on_c, 3, 60, 60
7, 42560, Note_on_c, 3, 65, 60
7, 42664, Note_on_c, 3, 65, 0
7, 42664, Note_on_c, 3, 60, 0
7, 42720, Note_on_c, 3, 65, 60
7, 42720, Note_on_c, 3, 60, 60
7, 42824, Note_on_c, 3, 60, 0
7, 42824, Note_on_c, 3, 65, 0
7, 42880, Note_on_c, 3, 60, 60
7, 42880, Note_on_c, 3, 57, 60
7, 42984, Note_on_c, 3, 57, 0
7, 42984, Note_on_c, 3, 60, 0
7, 43040, Note_on_c, 3, 57, 60
7, 43040, Note_on_c, 3, 60, 60
7, 43144, Note_on_c, 3, 60, 0
7, 43144, Note_on_c, 3, 57, 0
7, 43200, Note_on_c, 3, 60, 60
7, 43200, Note_on_c, 3, 57, 60
7, 43304, Note_on_c, 3, 57, 0
7, 43304, Note_on_c, 3, 60, 0
7, 43360, Note_on_c, 3, 57, 60
7, 43360, Note_on_c, 3, 53, 60
7, 43464, Note_on_c, 3, 53, 0
7, 43464, Note_on_c, 3, 57, 0
7, 43520, Note_on_c, 3, 53, 60
7, 43520, Note_on_c, 3, 57, 60
7, 43624, Note_on_c, 3, 57, 0
7, 43624, Note_on_c, 3, 53, 0
7, 43680, Note_on_c, 3, 57, 60
7, 43680, Note_on_c, 3, 53, 60
7, 43784, Note_on_c, 3, 53, 0
7, 43784, Note_on_c, 3, 57, 0
7, 43840, Note_on_c, 3, 53, 60
7, 43840, Note_on_c, 3, 57, 60
7, 43944, Note_on_c, 3, 57, 0
7, 43944, Note_on_c, 3, 53, 0
7, 44000, Note_on_c, 3, 57, 60
7, 44000, Note_on_c, 3, 53, 60
7, 44104, Note_on_c, 3, 53, 0
7, 44104, Note_on_c, 3, 57, 0
7, 44160, Note_on_c, 3, 53, 60
7, 44160, Note_on_c, 3, 57, 60
7, 44544, Note_on_c, 3, 57, 0
7, 44544, Note_on_c, 3, 53, 0
7, 57600, Note_on_c, 3, 65, 60
7, 57600, Note_on_c, 3, 53, 60
7, 63322, Note_on_c, 3, 53, 0
7, 63322, Note_on_c, 3, 65, 0
7, 63360, Note_on_c, 3, 69, 60
7, 63360, Note_on_c, 3, 65, 60
7, 65242, Note_on_c, 3, 65, 0
7, 65242, Note_on_c, 3, 69, 0
7, 65280, Note_on_c, 3, 60, 60
7, 65280, Note_on_c, 3, 67, 60
7, 67162, Note_on_c, 3, 67, 0
7, 67162, Note_on_c, 3, 60, 0
7, 67200, Note_on_c, 3, 65, 60
7, 67200, Note_on_c, 3, 57, 60
7, 67584, Note_on_c, 3, 57, 0
7, 67584, Note_on_c, 3, 65, 0
7, 70080, Note_on_c, 3, 57, 60
7, 70080, Note_on_c, 3, 69, 60
7, 70208, Note_on_c, 3, 69, 0
7, 70208, Note_on_c, 3, 57, 0
7, 70240, Note_on_c, 3, 69, 60
7, 70240, Note_on_c, 3, 57, 60
7, 70368, Note_on_c, 3, 57, 0
7, 70368, Note_on_c, 3, 69, 0
7, 70400, Note_on_c, 3, 57, 60
7, 70400, Note_on_c, 3, 69, 60
7, 70528, Note_on_c, 3, 69, 0
7, 70528, Note_on_c, 3, 57, 0
7, 70560, Note_on_c, 3, 69, 60
7, 70560, Note_on_c, 3, 57, 60
7, 70688, Note_on_c, 3, 57, 0
7, 70688, Note_on_c, 3, 69, 0
7, 70720, Note_on_c, 3, 57, 60
7, 70720, Note_on_c, 3, 69, 60
7, 70848, Note_on_c, 3, 69, 0
7, 70848, Note_on_c, 3, 57, 0
7, 70880, Note_on_c, 3, 57, 60
7, 70880, Note_on_c, 3, 69, 60
7, 71008, Note_on_c, 3, 69, 0
7, 71008, Note_on_c, 3, 57, 0
7, 71040, Note_on_c, 3, 57, 60
7, 71040, Note_on_c, 3, 69, 60
7, 71424, Note_on_c, 3, 69, 0
7, 71424, Note_on_c, 3, 57, 0
7, 117280, Note_on_c, 3, 65, 90
7, 117280, Note_on_c, 3, 53, 90
7, 117384, Note_on_c, 3, 53, 0
7, 117384, Note_on_c, 3, 65, 0
7, 117440, Note_on_c, 3, 53, 90
7, 117440, Note_on_c, 3, 65, 90
7, 117544, Note_on_c, 3, 65, 0
7, 117544, Note_on_c, 3, 53, 0
7, 117600, Note_on_c, 3, 65, 90
7, 117600, Note_on_c, 3, 53, 90
7, 117704, Note_on_c, 3, 53, 0
7, 117704, Note_on_c, 3, 65, 0
7, 117760, Note_on_c, 3, 53, 90
7, 117760, Note_on_c, 3, 65, 90
7, 117864, Note_on_c, 3, 65, 0
7, 117864, Note_on_c, 3, 53, 0
7, 117920, Note_on_c, 3, 65, 90
7, 117920, Note_on_c, 3, 53, 90
7, 118024, Note_on_c, 3, 53, 0
7, 118024, Note_on_c, 3, 65, 0
7, 118080, Note_on_c, 3, 65, 90
7, 118080, Note_on_c, 3, 53, 90
7, 118184, Note_on_c, 3, 53, 0
7, 118184, Note_on_c, 3, 65, 0
7, 118240, Note_on_c, 3, 65, 90
7, 118240, Note_on_c, 3, 53, 90
7, 118344, Note_on_c, 3, 53, 0
7, 118344, Note_on_c, 3, 65, 0
7, 118400, Note_on_c, 3, 65, 90
7, 118400, Note_on_c, 3, 53, 90
7, 118504, Note_on_c, 3, 53, 0
7, 118504, Note_on_c, 3, 65, 0
7, 118560, Note_on_c, 3, 65, 90
7, 118560, Note_on_c, 3, 53, 90
7, 118664, Note_on_c, 3, 53, 0
7, 118664, Note_on_c, 3, 65, 0
7, 118720, Note_on_c, 3, 53, 90
7, 118720, Note_on_c, 3, 65, 90
7, 118824, Note_on_c, 3, 65, 0
7, 118824, Note_on_c, 3, 53, 0
7, 118880, Note_on_c, 3, 65, 90
7, 118880, Note_on_c, 3, 53, 90
7, 118984, Note_on_c, 3, 53, 0
7, 118984, Note_on_c, 3, 65, 0
7, 119040, Note_on_c, 3, 65, 90
7, 119040, Note_on_c, 3, 53, 90
7, 119424, Note_on_c, 3, 53, 0
7, 119424, Note_on_c, 3, 65, 0
7, 157440, Note_on_c, 3, 48, 60
7, 157440, Note_on_c, 3, 60, 60
7, 168922, Note_on_c, 3, 60, 0
7, 168922, Note_on_c, 3, 48, 0
7, 173280, Note_on_c, 3, 69, 60
7, 173280, Note_on_c, 3, 65, 60
7, 174240, Note_on_c, 3, 65, 0
7, 174240, Note_on_c, 3, 69, 0
7, 174240, Note_on_c, 3, 67, 60
7, 174240, Note_on_c, 3, 60, 60
7, 174720, Note_on_c, 3, 60, 0
7, 174720, Note_on_c, 3, 67, 0
7, 174720, Note_on_c, 3, 65, 60
7, 174720, Note_on_c, 3, 53, 60
7, 176602, Note_on_c, 3, 53, 0
7, 176602, Note_on_c, 3, 65, 0
7, 176640, Note_on_c, 3, 60, 60
7, 176640, Note_on_c, 3, 48, 60
7, 177120, Note_on_c, 3, 48, 0
7, 177120, Note_on_c, 3, 60, 0
7, 177120, Note_on_c, 3, 65, 60
7, 177120, Note_on_c, 3, 53, 60
7, 177590, Note_on_c, 3, 53, 0
7, 177590, Note_on_c, 3, 65, 0
7, 177600, Note_on_c, 3, 60, 60
7, 177600, Note_on_c, 3, 48, 60
7, 178540, Note_on_c, 3, 48, 0
7, 178540, Note_on_c, 3, 60, 0
7, 178560, Note_on_c, 3, 53, 60
7, 178560, Note_on_c, 3, 65, 60
7, 178664, Note_on_c, 3, 65, 0
7, 178664, Note_on_c, 3, 53, 0
7, 178720, Note_on_c, 3, 53, 61
7, 178720, Note_on_c, 3, 65, 61
7, 178824, Note_on_c, 3, 65, 0
7, 178824, Note_on_c, 3, 53, 0
7, 178880, Note_on_c, 3, 53, 65
7, 178880, Note_on_c, 3, 65, 65
7, 178984, Note_on_c, 3, 65, 0
7, 178984, Note_on_c, 3, 53, 0
7, 179040, Note_on_c, 3, 65, 69
7, 179040, Note_on_c, 3, 53, 69
7, 179144, Note_on_c, 3, 53, 0
7, 179144, Note_on_c, 3, 65, 0
7, 179200, Note_on_c, 3, 53, 72
7, 179200, Note_on_c, 3, 65, 72
7, 179304, Note_on_c, 3, 65, 0
7, 179304, Note_on_c, 3, 53, 0
7, 179360, Note_on_c, 3, 53, 76
7, 179360, Note_on_c, 3, 65, 76
7, 179464, Note_on_c, 3, 65, 0
7, 179464, Note_on_c, 3, 53, 0
7, 179520, Note_on_c, 3, 65, 80
7, 179520, Note_on_c, 3, 53, 80
7, 179624, Note_on_c, 3, 53, 0
7, 179624, Note_on_c, 3, 65, 0
7, 179680, Note_on_c, 3, 65, 84
7, 179680, Note_on_c, 3, 53, 84
7, 179784, Note_on_c, 3, 53, 0
7, 179784, Note_on_c, 3, 65, 0
7, 179840, Note_on_c, 3, 65, 88
7, 179840, Note_on_c, 3, 53, 88
7, 179944, Note_on_c, 3, 53, 0
7, 179944, Note_on_c, 3, 65, 0
7, 180000, Note_on_c, 3, 53, 91
7, 180000, Note_on_c, 3, 65, 91
7, 180104, Note_on_c, 3, 65, 0
7, 180104, Note_on_c, 3, 53, 0
7, 180160, Note_on_c, 3, 65, 95
7, 180160, Note_on_c, 3, 53, 95
7, 180264, Note_on_c, 3, 53, 0
7, 180264, Note_on_c, 3, 65, 0
7, 180320, Note_on_c, 3, 53, 99
7, 180320, Note_on_c, 3, 65, 99
7, 180424, Note_on_c, 3, 65, 0
7, 180424, Note_on_c, 3, 53, 0
7, 180480, Note_on_c, 3, 65, 60
7, 180480, Note_on_c, 3, 53, 60
7, 180864, Note_on_c, 3, 53, 0
7, 180864, Note_on_c, 3, 65, 0
7, 186240, Note_on_c, 3, 69, 60
7, 186240, Note_on_c, 3, 65, 60
7, 188160, Note_on_c, 3, 65, 0
7, 188160, Note_on_c, 3, 69, 0
7, 188160, Note_on_c, 3, 60, 60
7, 188160, Note_on_c, 3, 67, 60
7, 190080, Note_on_c, 3, 67, 0
7, 190080, Note_on_c, 3, 60, 0
7, 190080, Note_on_c, 3, 53, 60
7, 190080, Note_on_c, 3, 65, 60
7, 190184, Note_on_c, 3, 65, 0
7, 190184, Note_on_c, 3, 53, 0
7, 190240, Note_on_c, 3, 48, 60
7, 190240, Note_on_c, 3, 60, 60
7, 190344, Note_on_c, 3, 60, 0
7, 190344, Note_on_c, 3, 48, 0
7, 190400, Note_on_c, 3, 48, 60
7, 190400, Note_on_c, 3, 60, 60
7, 190504, Note_on_c, 3, 60, 0
7, 190504, Note_on_c, 3, 48, 0
7, 190560, Note_on_c, 3, 48, 60
7, 190560, Note_on_c, 3, 60, 60
7, 190664, Note_on_c, 3, 60, 0
7, 190664, Note_on_c, 3, 48, 0
7, 190720, Note_on_c, 3, 48, 60
7, 190720, Note_on_c, 3, 60, 60
7, 190824, Note_on_c, 3, 60, 0
7, 190824, Note_on_c, 3, 48, 0
7, 190880, Note_on_c, 3, 60, 60
7, 190880, Note_on_c, 3, 48, 60
7, 190984, Note_on_c, 3, 48, 0
7, 190984, Note_on_c, 3, 60, 0
7, 191040, Note_on_c, 3, 60, 60
7, 191040, Note_on_c, 3, 48, 60
7, 191144, Note_on_c, 3, 48, 0
7, 191144, Note_on_c, 3, 60, 0
7, 191200, Note_on_c, 3, 60, 60
7, 191200, Note_on_c, 3, 48, 60
7, 191304, Note_on_c, 3, 48, 0
7, 191304, Note_on_c, 3, 60, 0
7, 191360, Note_on_c, 3, 48, 60
7, 191360, Note_on_c, 3, 60, 60
7, 191464, Note_on_c, 3, 60, 0
7, 191464, Note_on_c, 3, 48, 0
7, 191520, Note_on_c, 3, 48, 60
7, 191520, Note_on_c, 3, 60, 60
7, 191624, Note_on_c, 3, 60, 0
7, 191624, Note_on_c, 3, 48, 0
7, 191680, Note_on_c, 3, 48, 60
7, 191680, Note_on_c, 3, 60, 60
7, 191784, Note_on_c, 3, 60, 0
7, 191784, Note_on_c, 3, 48, 0
7, 191840, Note_on_c, 3, 48, 60
7, 191840, Note_on_c, 3, 60, 60
7, 191944, Note_on_c, 3, 60, 0
7, 191944, Note_on_c, 3, 48, 0
7, 192000, Note_on_c, 3, 48, 60
7, 192000, Note_on_c, 3, 60, 60
7, 192104, Note_on_c, 3, 60, 0
7, 192104, Note_on_c, 3, 48, 0
7, 192160, Note_on_c, 3, 60, 60
7, 192160, Note_on_c, 3, 48, 60
7, 192264, Note_on_c, 3, 48, 0
7, 192264, Note_on_c, 3, 60, 0
7, 192320, Note_on_c, 3, 60, 60
7, 192320, Note_on_c, 3, 48, 60
7, 192424, Note_on_c, 3, 48, 0
7, 192424, Note_on_c, 3, 60, 0
7, 192480, Note_on_c, 3, 60, 60
7, 192480, Note_on_c, 3, 48, 60
7, 192584, Note_on_c, 3, 48, 0
7, 192584, Note_on_c, 3, 60, 0
7, 192640, Note_on_c, 3, 60, 60
7, 192640, Note_on_c, 3, 48, 60
7, 192744, Note_on_c, 3, 48, 0
7, 192744, Note_on_c, 3, 60, 0
7, 192800, Note_on_c, 3, 48, 60
7, 192800, Note_on_c, 3, 60, 60
7, 192904, Note_on_c, 3, 60, 0
7, 192904, Note_on_c, 3, 48, 0
7, 192960, Note_on_c, 3, 48, 60
7, 192960, Note_on_c, 3, 60, 60
7, 193064, Note_on_c, 3, 60, 0
7, 193064, Note_on_c, 3, 48, 0
7, 193120, Note_on_c, 3, 60, 60
7, 193120, Note_on_c, 3, 48, 60
7, 193224, Note_on_c, 3, 48, 0
7, 193224, Note_on_c, 3, 60, 0
7, 193280, Note_on_c, 3, 48, 60
7, 193280, Note_on_c, 3, 60, 60
7, 193384, Note_on_c, 3, 60, 0
7, 193384, Note_on_c, 3, 48, 0
7, 193440, Note_on_c, 3, 60, 60
7, 193440, Note_on_c, 3, 48, 60
7, 193544, Note_on_c, 3, 48, 0
7, 193544, Note_on_c, 3, 60, 0
7, 193600, Note_on_c, 3, 60, 60
7, 193600, Note_on_c, 3, 48, 60
7, 193704, Note_on_c, 3, 48, 0
7, 193704, Note_on_c, 3, 60, 0
7, 193760, Note_on_c, 3, 60, 60
7, 193760, Note_on_c, 3, 48, 60
7, 193864, Note_on_c, 3, 48, 0
7, 193864, Note_on_c, 3, 60, 0
7, 193920, Note_on_c, 3, 60, 60
7, 193920, Note_on_c, 3, 48, 60
7, 194024, Note_on_c, 3, 48, 0
7, 194024, Note_on_c, 3, 60, 0
7, 194080, Note_on_c, 3, 60, 60
7, 194080, Note_on_c, 3, 48, 60
7, 194184, Note_on_c, 3, 48, 0
7, 194184, Note_on_c, 3, 60, 0
7, 194240, Note_on_c, 3, 48, 60
7, 194240, Note_on_c, 3, 60, 60
7, 194344, Note_on_c, 3, 60, 0
7, 194344, Note_on_c, 3, 48, 0
7, 194400, Note_on_c, 3, 60, 60
7, 194400, Note_on_c, 3, 48, 60
7, 194504, Note_on_c, 3, 48, 0
7, 194504, Note_on_c, 3, 60, 0
7, 194560, Note_on_c, 3, 48, 60
7, 194560, Note_on_c, 3, 60, 60
7, 194664, Note_on_c, 3, 60, 0
7, 194664, Note_on_c, 3, 48, 0
7, 194720, Note_on_c, 3, 48, 60
7, 194720, Note_on_c, 3, 60, 60
7, 194824, Note_on_c, 3, 60, 0
7, 194824, Note_on_c, 3, 48, 0
7, 194880, Note_on_c, 3, 48, 60
7, 194880, Note_on_c, 3, 60, 60
7, 194984, Note_on_c, 3, 60, 0
7, 194984, Note_on_c, 3, 48, 0
7, 195040, Note_on_c, 3, 48, 60
7, 195040, Note_on_c, 3, 60, 60
7, 195144, Note_on_c, 3, 60, 0
7, 195144, Note_on_c, 3, 48, 0
7, 195200, Note_on_c, 3, 48, 60
7, 195200, Note_on_c, 3, 60, 60
7, 195304, Note_on_c, 3, 60, 0
7, 195304, Note_on_c, 3, 48, 0
7, 195360, Note_on_c, 3, 60, 60
7, 195360, Note_on_c, 3, 48, 60
7, 195464, Note_on_c, 3, 48, 0
7, 195464, Note_on_c, 3, 60, 0
7, 195520, Note_on_c, 3, 60, 60
7, 195520, Note_on_c, 3, 48, 60
7, 195624, Note_on_c, 3, 48, 0
7, 195624, Note_on_c, 3, 60, 0
7, 195680, Note_on_c, 3, 60, 60
7, 195680, Note_on_c, 3, 48, 60
7, 195784, Note_on_c, 3, 48, 0
7, 195784, Note_on_c, 3, 60, 0
7, 195840, Note_on_c, 3, 60, 60
7, 195840, Note_on_c, 3, 48, 60
7, 195944, Note_on_c, 3, 48, 0
7, 195944, Note_on_c, 3, 60, 0
7, 196000, Note_on_c, 3, 60, 60
7, 196000, Note_on_c, 3, 48, 60
7, 196104, Note_on_c, 3, 48, 0
7, 196104, Note_on_c, 3, 60, 0
7, 196160, Note_on_c, 3, 48, 60
7, 196160, Note_on_c, 3, 60, 60
7, 196264, Note_on_c, 3, 60, 0
7, 196264, Note_on_c, 3, 48, 0
7, 196320, Note_on_c, 3, 60, 60
7, 196320, Note_on_c, 3, 48, 60
7, 196424, Note_on_c, 3, 48, 0
7, 196424, Note_on_c, 3, 60, 0
7, 196480, Note_on_c, 3, 48, 60
7, 196480, Note_on_c, 3, 60, 60
7, 196584, Note_on_c, 3, 60, 0
7, 196584, Note_on_c, 3, 48, 0
7, 196640, Note_on_c, 3, 48, 60
7, 196640, Note_on_c, 3, 60, 60
7, 196744, Note_on_c, 3, 60, 0
7, 196744, Note_on_c, 3, 48, 0
7, 196800, Note_on_c, 3, 48, 60
7, 196800, Note_on_c, 3, 60, 60
7, 196904, Note_on_c, 3, 60, 0
7, 196904, Note_on_c, 3, 48, 0
7, 196960, Note_on_c, 3, 48, 60
7, 196960, Note_on_c, 3, 60, 60
7, 197064, Note_on_c, 3, 60, 0
7, 197064, Note_on_c, 3, 48, 0
7, 197120, Note_on_c, 3, 48, 60
7, 197120, Note_on_c, 3, 60, 60
7, 197224, Note_on_c, 3, 60, 0
7, 197224, Note_on_c, 3, 48, 0
7, 197280, Note_on_c, 3, 48, 60
7, 197280, Note_on_c, 3, 60, 60
7, 197384, Note_on_c, 3, 60, 0
7, 197384, Note_on_c, 3, 48, 0
7, 197440, Note_on_c, 3, 48, 60
7, 197440, Note_on_c, 3, 60, 60
7, 197544, Note_on_c, 3, 60, 0
7, 197544, Note_on_c, 3, 48, 0
7, 197600, Note_on_c, 3, 48, 60
7, 197600, Note_on_c, 3, 60, 60
7, 197704, Note_on_c, 3, 60, 0
7, 197704, Note_on_c, 3, 48, 0
7, 197760, Note_on_c, 3, 53, 60
7, 197760, Note_on_c, 3, 60, 60
7, 197856, Note_on_c, 3, 60, 0
7, 197856, Note_on_c, 3, 53, 0
7, 197920, Note_on_c, 3, 60, 60
7, 197920, Note_on_c, 3, 65, 60
7, 198016, Note_on_c, 3, 65, 0
7, 198016, Note_on_c, 3, 60, 0
7, 198080, Note_on_c, 3, 60, 60
7, 198080, Note_on_c, 3, 65, 60
7, 198176, Note_on_c, 3, 65, 0
7, 198176, Note_on_c, 3, 60, 0
7, 198240, Note_on_c, 3, 65, 60
7, 198240, Note_on_c, 3, 60, 60
7, 198336, Note_on_c, 3, 60, 0
7, 198336, Note_on_c, 3, 65, 0
7, 198400, Note_on_c, 3, 60, 60
7, 198400, Note_on_c, 3, 57, 60
7, 198496, Note_on_c, 3, 57, 0
7, 198496, Note_on_c, 3, 60, 0
7, 198560, Note_on_c, 3, 60, 60
7, 198560, Note_on_c, 3, 57, 60
7, 198656, Note_on_c, 3, 57, 0
7, 198656, Note_on_c, 3, 60, 0
7, 198720, Note_on_c, 3, 60, 60
7, 198720, Note_on_c, 3, 57, 60
7, 198816, Note_on_c, 3, 57, 0
7, 198816, Note_on_c, 3, 60, 0
7, 198880, Note_on_c, 3, 57, 60
7, 198880, Note_on_c, 3, 53, 60
7, 198976, Note_on_c, 3, 53, 0
7, 198976, Note_on_c, 3, 57, 0
7, 199040, Note_on_c, 3, 57, 60
7, 199040, Note_on_c, 3, 53, 60
7, 199136, Note_on_c, 3, 53, 0
7, 199136, Note_on_c, 3, 57, 0
7, 199200, Note_on_c, 3, 57, 60
7, 199200, Note_on_c, 3, 53, 60
7, 199296, Note_on_c, 3, 53, 0
7, 199296, Note_on_c, 3, 57, 0
7, 199360, Note_on_c, 3, 57, 60
7, 199360, Note_on_c, 3, 53, 60
7, 199456, Note_on_c, 3, 53, 0
7, 199456, Note_on_c, 3, 57, 0
7, 199520, Note_on_c, 3, 57, 60
7, 199520, Note_on_c, 3, 53, 60
7, 199616, Note_on_c, 3, 53, 0
7, 199616, Note_on_c, 3, 57, 0
7, 199680, Note_on_c, 3, 57, 60
7, 199680, Note_on_c, 3, 53, 60
7, 200160, Note_on_c, 3, 53, 0
7, 200160, Note_on_c, 3, 57, 0
7, 200160, End_track
8, 0, Start_track
8, 0, Sequencer_specific, 04, 43, 00, 01, 00
8, 0, Program_c, 4, 0
8, 0, Control_c, 4, 7, 126
8, 0, Control_c, 4, 91, 100
8, 46080, Note_on_c, 4, 77, 80
8, 46920, Note_on_c, 4, 77, 0
8, 46920, Note_on_c, 4, 72, 80
8, 47040, Note_on_c, 4, 72, 0
8, 47040, Note_on_c, 4, 81, 80
8, 47880, Note_on_c, 4, 81, 0
8, 47880, Note_on_c, 4, 77, 80
8, 48000, Note_on_c, 4, 77, 0
8, 48000, Note_on_c, 4, 84, 80
8, 49440, Note_on_c, 4, 84, 0
8, 49440, Note_on_c, 4, 82, 80
8, 49560, Note_on_c, 4, 82, 0
8, 49560, Note_on_c, 4, 81, 80
8, 49680, Note_on_c, 4, 81, 0
8, 49680, Note_on_c, 4, 79, 80
8, 49800, Note_on_c, 4, 79, 0
8, 49800, Note_on_c, 4, 77, 80
8, 49920, Note_on_c, 4, 77, 0
8, 49920, Note_on_c, 4, 78, 82
8, 50400, Note_on_c, 4, 78, 0
8, 50400, Note_on_c, 4, 79, 76
8, 50784, Note_on_c, 4, 79, 0
8, 51840, Note_on_c, 4, 72, 80
8, 52800, Note_on_c, 4, 72, 0
8, 52800, Note_on_c, 4, 76, 80
8, 53280, Note_on_c, 4, 76, 0
8, 53280, Note_on_c, 4, 79, 80
8, 53750, Note_on_c, 4, 79, 0
8, 53760, Note_on_c, 4, 82, 80
8, 54960, Note_on_c, 4, 82, 0
8, 54960, Note_on_c, 4, 86, 80
8, 55200, Note_on_c, 4, 86, 0
8, 55200, Note_on_c, 4, 84, 81
8, 55440, Note_on_c, 4, 84, 0
8, 55440, Note_on_c, 4, 82, 82
8, 55680, Note_on_c, 4, 82, 0
8, 55680, Note_on_c, 4, 80, 85
8, 55920, Note_on_c, 4, 80, 0
8, 55920, Note_on_c, 4, 81, 82
8, 56160, Note_on_c, 4, 81, 0
8, 56160, Note_on_c, 4, 81, 80
8, 56544, Note_on_c, 4, 81, 0
8, 57600, Note_on_c, 4, 84, 110
8, 58540, Note_on_c, 4, 84, 0
8, 61440, Note_on_c, 4, 86, 110
8, 62380, Note_on_c, 4, 86, 0
8, 63840, Note_on_c, 4, 84, 110
8, 64800, Note_on_c, 4, 84, 0
8, 64800, Note_on_c, 4, 82, 93
8, 64920, Note_on_c, 4, 82, 0
8, 64920, Note_on_c, 4, 81, 89
8, 65040, Note_on_c, 4, 81, 0
8, 65040, Note_on_c, 4, 79, 86
8, 65160, Note_on_c, 4, 79, 0
8, 65160, Note_on_c, 4, 77, 83
8, 65280, Note_on_c, 4, 77, 0
8, 65280, Note_on_c, 4, 77, 80
8, 65310, Note_on_c, 4, 77, 0
8, 65310, Note_on_c, 4, 76, 80
8, 65340, Note_on_c, 4, 76, 0
8, 65340, Note_on_c, 4, 77, 80
8, 65370, Note_on_c, 4, 77, 0
8, 65370, Note_on_c, 4, 76, 80
8, 65400, Note_on_c, 4, 76, 0
8, 65400, Note_on_c, 4, 77, 80
8, 65430, Note_on_c, 4, 77, 0
8, 65430, Note_on_c, 4, 76, 80
8, 65460, Note_on_c, 4, 76, 0
8, 65460, Note_on_c, 4, 77, 80
8, 65490, Note_on_c, 4, 77, 0
8, 65490, Note_on_c, 4, 76, 80
8, 65520, Note_on_c, 4, 76, 0
8, 65520, Note_on_c, 4, 77, 80
8, 65550, Note_on_c, 4, 77, 0
8, 65550, Note_on_c, 4, 76, 80
8, 65580, Note_on_c, 4, 76, 0
8, 65580, Note_on_c, 4, 77, 80
8, 65610, Note_on_c, 4, 77, 0
8, 65610, Note_on_c, 4, 76, 80
8, 65640, Note_on_c, 4, 76, 0
8, 65640, Note_on_c, 4, 77, 80
8, 65670, Note_on_c, 4, 77, 0
8, 65670, Note_on_c, 4, 76, 80
8, 65700, Note_on_c, 4, 76, 0
8, 65700, Note_on_c, 4, 77, 80
8, 65730, Note_on_c, 4, 77, 0
8, 65730, Note_on_c, 4, 76, 80
8, 65760, Note_on_c, 4, 76, 0
8, 65760, Note_on_c, 4, 77, 80
8, 65790, Note_on_c, 4, 77, 0
8, 65790, Note_on_c, 4, 76, 80
8, 65820, Note_on_c, 4, 76, 0
8, 65820, Note_on_c, 4, 77, 80
8, 65850, Note_on_c, 4, 77, 0
8, 65850, Note_on_c, 4, 76, 80
8, 65880, Note_on_c, 4, 76, 0
8, 65880, Note_on_c, 4, 77, 80
8, 65910, Note_on_c, 4, 77, 0
8, 65910, Note_on_c, 4, 76, 80
8, 65940, Note_on_c, 4, 76, 0
8, 65940, Note_on_c, 4, 77, 80
8, 65970, Note_on_c, 4, 77, 0
8, 65970, Note_on_c, 4, 76, 80
8, 66000, Note_on_c, 4, 76, 0
8, 66000, Note_on_c, 4, 77, 80
8, 66030, Note_on_c, 4, 77, 0
8, 66030, Note_on_c, 4, 76, 80
8, 66060, Note_on_c, 4, 76, 0
8, 66060, Note_on_c, 4, 77, 80
8, 66090, Note_on_c, 4, 77, 0
8, 66090, Note_on_c, 4, 76, 80
8, 66120, Note_on_c, 4, 76, 0
8, 66120, Note_on_c, 4, 77, 80
8, 66150, Note_on_c, 4, 77, 0
8, 66150, Note_on_c, 4, 76, 80
8, 66180, Note_on_c, 4, 76, 0
8, 66180, Note_on_c, 4, 77, 80
8, 66210, Note_on_c, 4, 77, 0
8, 66210, Note_on_c, 4, 76, 80
8, 66240, Note_on_c, 4, 76, 0
8, 66240, Note_on_c, 4, 77, 80
8, 66270, Note_on_c, 4, 77, 0
8, 66270, Note_on_c, 4, 76, 80
8, 66300, Note_on_c, 4, 76, 0
8, 66300, Note_on_c, 4, 77, 80
8, 66330, Note_on_c, 4, 77, 0
8, 66330, Note_on_c, 4, 76, 80
8, 66360, Note_on_c, 4, 76, 0
8, 66360, Note_on_c, 4, 77, 80
8, 66390, Note_on_c, 4, 77, 0
8, 66390, Note_on_c, 4, 76, 80
8, 66420, Note_on_c, 4, 76, 0
8, 66420, Note_on_c, 4, 77, 80
8, 66450, Note_on_c, 4, 77, 0
8, 66450, Note_on_c, 4, 76, 80
8, 66480, Note_on_c, 4, 76, 0
8, 66480, Note_on_c, 4, 77, 80
8, 66510, Note_on_c, 4, 77, 0
8, 66510, Note_on_c, 4, 76, 80
8, 66540, Note_on_c, 4, 76, 0
8, 66540, Note_on_c, 4, 77, 80
8, 66570, Note_on_c, 4, 77, 0
8, 66570, Note_on_c, 4, 76, 80
8, 66600, Note_on_c, 4, 76, 0
8, 66600, Note_on_c, 4, 77, 80
8, 66630, Note_on_c, 4, 77, 0
8, 66630, Note_on_c, 4, 76, 80
8, 66660, Note_on_c, 4, 76, 0
8, 66660, Note_on_c, 4, 77, 80
8, 66690, Note_on_c, 4, 77, 0
8, 66690, Note_on_c, 4, 77, 80
8, 66720, Note_on_c, 4, 77, 0
8, 66720, Note_on_c, 4, 76, 80
8, 66750, Note_on_c, 4, 76, 0
8, 66750, Note_on_c, 4, 77, 80
8, 66780, Note_on_c, 4, 77, 0
8, 66780, Note_on_c, 4, 76, 80
8, 66810, Note_on_c, 4, 76, 0
8, 66810, Note_on_c, 4, 77, 80
8, 66840, Note_on_c, 4, 77, 0
8, 66840, Note_on_c, 4, 76, 80
8, 66870, Note_on_c, 4, 76, 0
8, 66870, Note_on_c, 4, 77, 80
8, 66900, Note_on_c, 4, 77, 0
8, 66900, Note_on_c, 4, 76, 80
8, 66930, Note_on_c, 4, 76, 0
8, 66930, Note_on_c, 4, 77, 80
8, 66960, Note_on_c, 4, 77, 0
8, 66960, Note_on_c, 4, 76, 80
8, 66990, Note_on_c, 4, 76, 0
8, 66990, Note_on_c, 4, 77, 80
8, 67020, Note_on_c, 4, 77, 0
8, 67020, Note_on_c, 4, 76, 80
8, 67050, Note_on_c, 4, 76, 0
8, 67050, Note_on_c, 4, 74, 80
8, 67110, Note_on_c, 4, 74, 0
8, 67110, Note_on_c, 4, 76, 80
8, 67170, Note_on_c, 4, 76, 0
8, 67200, Note_on_c, 4, 77, 70
8, 67584, Note_on_c, 4, 77, 0
8, 71040, Note_on_c, 4, 69, 90
8, 71160, Note_on_c, 4, 69, 0
8, 71160, Note_on_c, 4, 81, 90
8, 71520, Note_on_c, 4, 81, 0
8, 71520, Note_on_c, 4, 81, 90
8, 72160, Note_on_c, 4, 81, 0
8, 72160, Note_on_c, 4, 77, 90
8, 72320, Note_on_c, 4, 77, 0
8, 72320, Note_on_c, 4, 74, 90
8, 72480, Note_on_c, 4, 74, 0
8, 72480, Note_on_c, 4, 79, 90
8, 72640, Note_on_c, 4, 79, 0
8, 72640, Note_on_c, 4, 76, 90
8, 72800, Note_on_c, 4, 76, 0
8, 72800, Note_on_c, 4, 73, 90
8, 72960, Note_on_c, 4, 73, 0
8, 72960, Note_on_c, 4, 74, 90
8, 73140, Note_on_c, 4, 74, 0
8, 73140, Note_on_c, 4, 76, 90
8, 73200, Note_on_c, 4, 76, 0
8, 73200, Note_on_c, 4, 74, 90
8, 73260, Note_on_c, 4, 74, 0
8, 73260, Note_on_c, 4, 73, 90
8, 73320, Note_on_c, 4, 73, 0
8, 73320, Note_on_c, 4, 76, 90
8, 73440, Note_on_c, 4, 76, 0
8, 73440, Note_on_c, 4, 77, 90
8, 73824, Note_on_c, 4, 77, 0
8, 74160, Note_on_c, 4, 77, 105
8, 74400, Note_on_c, 4, 77, 0
8, 74400, Note_on_c, 4, 79, 105
8, 74640, Note_on_c, 4, 79, 0
8, 74640, Note_on_c, 4, 81, 105
8, 74880, Note_on_c, 4, 81, 0
8, 74880, Note_on_c, 4, 76, 103
8, 74940, Note_on_c, 4, 76, 0
8, 74940, Note_on_c, 4, 79, 105
8, 75000, Note_on_c, 4, 79, 0
8, 75000, Note_on_c, 4, 82, 107
8, 75120, Note_on_c, 4, 82, 0
8, 75360, Note_on_c, 4, 82, 125
8, 75960, Note_on_c, 4, 82, 0
8, 75960, Note_on_c, 4, 79, 80
8, 76056, Note_on_c, 4, 79, 0
8, 76080, Note_on_c, 4, 79, 80
8, 76200, Note_on_c, 4, 79, 0
8, 76200, Note_on_c, 4, 76, 80
8, 76296, Note_on_c, 4, 76, 0
8, 76320, Note_on_c, 4, 76, 80
8, 76440, Note_on_c, 4, 76, 0
8, 76440, Note_on_c, 4, 72, 80
8, 76536, Note_on_c, 4, 72, 0
8, 76560, Note_on_c, 4, 79, 80
8, 76680, Note_on_c, 4, 79, 0
8, 76680, Note_on_c, 4, 70, 80
8, 76776, Note_on_c, 4, 70, 0
8, 76800, Note_on_c, 4, 72, 80
8, 77040, Note_on_c, 4, 72, 0
8, 77040, Note_on_c, 4, 72, 80
8, 77070, Note_on_c, 4, 72, 0
8, 77070, Note_on_c, 4, 70, 80
8, 77100, Note_on_c, 4, 70, 0
8, 77100, Note_on_c, 4, 72, 80
8, 77130, Note_on_c, 4, 72, 0
8, 77130, Note_on_c, 4, 70, 80
8, 77160, Note_on_c, 4, 70, 0
8, 77160, Note_on_c, 4, 72, 80
8, 77190, Note_on_c, 4, 72, 0
8, 77190, Note_on_c, 4, 70, 80
8, 77220, Note_on_c, 4, 70, 0
8, 77220, Note_on_c, 4, 72, 80
8, 77250, Note_on_c, 4, 72, 0
8, 77250, Note_on_c, 4, 70, 80
8, 77280, Note_on_c, 4, 70, 0
8, 77280, Note_on_c, 4, 69, 80
8, 77856, Note_on_c, 4, 69, 0
8, 78000, Note_on_c, 4, 72, 82
8, 78240, Note_on_c, 4, 72, 0
8, 78240, Note_on_c, 4, 77, 85
8, 78480, Note_on_c, 4, 77, 0
8, 78480, Note_on_c, 4, 81, 89
8, 78720, Note_on_c, 4, 81, 0
8, 78720, Note_on_c, 4, 84, 101
8, 78960, Note_on_c, 4, 84, 0
8, 78960, Note_on_c, 4, 79, 96
8, 79152, Note_on_c, 4, 79, 0
8, 79200, Note_on_c, 4, 79, 90
8, 80160, Note_on_c, 4, 79, 0
8, 80160, Note_on_c, 4, 77, 90
8, 80400, Note_on_c, 4, 77, 0
8, 80400, Note_on_c, 4, 76, 80
8, 80640, Note_on_c, 4, 76, 0
8, 80640, Note_on_c, 4, 73, 87
8, 81120, Note_on_c, 4, 73, 0
8, 81120, Note_on_c, 4, 74, 80
8, 81504, Note_on_c, 4, 74, 0
8, 81840, Note_on_c, 4, 74, 80
8, 81984, Note_on_c, 4, 74, 0
8, 82080, Note_on_c, 4, 74, 80
8, 82224, Note_on_c, 4, 74, 0
8, 82320, Note_on_c, 4, 74, 80
8, 82464, Note_on_c, 4, 74, 0
8, 82560, Note_on_c, 4, 74, 82
8, 82920, Note_on_c, 4, 74, 0
8, 82920, Note_on_c, 4, 76, 87
8, 83040, Note_on_c, 4, 76, 0
8, 83040, Note_on_c, 4, 78, 89
8, 83400, Note_on_c, 4, 78, 0
8, 83400, Note_on_c, 4, 79, 94
8, 83520, Note_on_c, 4, 79, 0
8, 83520, Note_on_c, 4, 81, 96
8, 83880, Note_on_c, 4, 81, 0
8, 83880, Note_on_c, 4, 83, 101
8, 84000, Note_on_c, 4, 83, 0
8, 84000, Note_on_c, 4, 84, 103
8, 84360, Note_on_c, 4, 84, 0
8, 84360, Note_on_c, 4, 72, 90
8, 84480, Note_on_c, 4, 72, 0
8, 84480, Note_on_c, 4, 72, 90
8, 84600, Note_on_c, 4, 72, 0
8, 84600, Note_on_c, 4, 71, 90
8, 84720, Note_on_c, 4, 71, 0
8, 84720, Note_on_c, 4, 69, 90
8, 84840, Note_on_c, 4, 69, 0
8, 84840, Note_on_c, 4, 67, 90
8, 84936, Note_on_c, 4, 67, 0
8, 84960, Note_on_c, 4, 67, 80
8, 85344, Note_on_c, 4, 67, 0
8, 85920, Note_on_c, 4, 79, 80
8, 86304, Note_on_c, 4, 79, 0
8, 86400, Note_on_c, 4, 80, 90
8, 87516, Note_on_c, 4, 80, 0
8, 87520, Note_on_c, 4, 74, 90
8, 87676, Note_on_c, 4, 74, 0
8, 87680, Note_on_c, 4, 73, 90
8, 87836, Note_on_c, 4, 73, 0
8, 87840, Note_on_c, 4, 74, 90
8, 87996, Note_on_c, 4, 74, 0
8, 88000, Note_on_c, 4, 75, 90
8, 88156, Note_on_c, 4, 75, 0
8, 88160, Note_on_c, 4, 77, 90
8, 88316, Note_on_c, 4, 77, 0
8, 88320, Note_on_c, 4, 79, 90
8, 89436, Note_on_c, 4, 79, 0
8, 89440, Note_on_c, 4, 72, 90
8, 89596, Note_on_c, 4, 72, 0
8, 89600, Note_on_c, 4, 71, 90
8, 89756, Note_on_c, 4, 71, 0
8, 89760, Note_on_c, 4, 72, 90
8, 89916, Note_on_c, 4, 72, 0
8, 89920, Note_on_c, 4, 74, 90
8, 90076, Note_on_c, 4, 74, 0
8, 90080, Note_on_c, 4, 75, 90
8, 90236, Note_on_c, 4, 75, 0
8, 90240, Note_on_c, 4, 77, 90
8, 91356, Note_on_c, 4, 77, 0
8, 91360, Note_on_c, 4, 71, 90
8, 91516, Note_on_c, 4, 71, 0
8, 91520, Note_on_c, 4, 69, 90
8, 91676, Note_on_c, 4, 69, 0
8, 91680, Note_on_c, 4, 71, 90
8, 91836, Note_on_c, 4, 71, 0
8, 91840, Note_on_c, 4, 72, 90
8, 91996, Note_on_c, 4, 72, 0
8, 92000, Note_on_c, 4, 74, 90
8, 92156, Note_on_c, 4, 74, 0
8, 92160, Note_on_c, 4, 75, 90
8, 93276, Note_on_c, 4, 75, 0
8, 93280, Note_on_c, 4, 69, 90
8, 93436, Note_on_c, 4, 69, 0
8, 93440, Note_on_c, 4, 68, 90
8, 93596, Note_on_c, 4, 68, 0
8, 93600, Note_on_c, 4, 69, 90
8, 93756, Note_on_c, 4, 69, 0
8, 93760, Note_on_c, 4, 71, 90
8, 93916, Note_on_c, 4, 71, 0
8, 93920, Note_on_c, 4, 72, 90
8, 94076, Note_on_c, 4, 72, 0
8, 94080, Note_on_c, 4, 74, 90
8, 95196, Note_on_c, 4, 74, 0
8, 95200, Note_on_c, 4, 67, 90
8, 95356, Note_on_c, 4, 67, 0
8, 95360, Note_on_c, 4, 66, 90
8, 95516, Note_on_c, 4, 66, 0
8, 95520, Note_on_c, 4, 67, 90
8, 95676, Note_on_c, 4, 67, 0
8, 95680, Note_on_c, 4, 69, 90
8, 95836, Note_on_c, 4, 69, 0
8, 95840, Note_on_c, 4, 71, 90
8, 95996, Note_on_c, 4, 71, 0
8, 96000, Note_on_c, 4, 72, 101
8, 96120, Note_on_c, 4, 72, 0
8, 96120, Note_on_c, 4, 84, 110
8, 96936, Note_on_c, 4, 84, 0
8, 96960, Note_on_c, 4, 83, 90
8, 97200, Note_on_c, 4, 83, 0
8, 97200, Note_on_c, 4, 81, 90
8, 97428, Note_on_c, 4, 81, 0
8, 97440, Note_on_c, 4, 79, 90
8, 97680, Note_on_c, 4, 79, 0
8, 97680, Note_on_c, 4, 77, 90
8, 97908, Note_on_c, 4, 77, 0
8, 97920, Note_on_c, 4, 76, 90
8, 98400, Note_on_c, 4, 76, 0
8, 98400, Note_on_c, 4, 74, 90
8, 99360, Note_on_c, 4, 74, 0
8, 99360, Note_on_c, 4, 79, 90
8, 99816, Note_on_c, 4, 79, 0
8, 99840, Note_on_c, 4, 77, 95
8, 100320, Note_on_c, 4, 77, 0
8, 100320, Note_on_c, 4, 76, 82
8, 100704, Note_on_c, 4, 76, 0
8, 101760, Note_on_c, 4, 72, 101
8, 101880, Note_on_c, 4, 72, 0
8, 101880, Note_on_c, 4, 84, 106
8, 102696, Note_on_c, 4, 84, 0
8, 102720, Note_on_c, 4, 83, 90
8, 102960, Note_on_c, 4, 83, 0
8, 102960, Note_on_c, 4, 81, 90
8, 103188, Note_on_c, 4, 81, 0
8, 103200, Note_on_c, 4, 79, 90
8, 103440, Note_on_c, 4, 79, 0
8, 103440, Note_on_c, 4, 77, 90
8, 103668, Note_on_c, 4, 77, 0
8, 103680, Note_on_c, 4, 76, 90
8, 104160, Note_on_c, 4, 76, 0
8, 104160, Note_on_c, 4, 74, 90
8, 105120, Note_on_c, 4, 74, 0
8, 105120, Note_on_c, 4, 79, 90
8, 105576, Note_on_c, 4, 79, 0
8, 105600, Note_on_c, 4, 72, 70
8, 105984, Note_on_c, 4, 72, 0
8, 111360, Note_on_c, 4, 67, 80
8, 113280, Note_on_c, 4, 67, 0
8, 113280, Note_on_c, 4, 82, 100
8, 115200, Note_on_c, 4, 82, 0
8, 115200, Note_on_c, 4, 81, 100
8, 116160, Note_on_c, 4, 81, 0
8, 116160, Note_on_c, 4, 81, 80
8, 116190, Note_on_c, 4, 81, 0
8, 116190, Note_on_c, 4, 79, 80
8, 116220, Note_on_c, 4, 79, 0
8, 116220, Note_on_c, 4, 81, 80
8, 116250, Note_on_c, 4, 81, 0
8, 116250, Note_on_c, 4, 79, 80
8, 116280, Note_on_c, 4, 79, 0
8, 116280, Note_on_c, 4, 81, 80
8, 116310, Note_on_c, 4, 81, 0
8, 116310, Note_on_c, 4, 79, 80
8, 116340, Note_on_c, 4, 79, 0
8, 116340, Note_on_c, 4, 81, 80
8, 116370, Note_on_c, 4, 81, 0
8, 116370, Note_on_c, 4, 79, 80
8, 116400, Note_on_c, 4, 79, 0
8, 116400, Note_on_c, 4, 81, 80
8, 116430, Note_on_c, 4, 81, 0
8, 116430, Note_on_c, 4, 79, 80
8, 116460, Note_on_c, 4, 79, 0
8, 116460, Note_on_c, 4, 81, 80
8, 116490, Note_on_c, 4, 81, 0
8, 116490, Note_on_c, 4, 79, 80
8, 116520, Note_on_c, 4, 79, 0
8, 116520, Note_on_c, 4, 81, 80
8, 116550, Note_on_c, 4, 81, 0
8, 116550, Note_on_c, 4, 79, 80
8, 116580, Note_on_c, 4, 79, 0
8, 116580, Note_on_c, 4, 81, 80
8, 116610, Note_on_c, 4, 81, 0
8, 116610, Note_on_c, 4, 79, 80
8, 116640, Note_on_c, 4, 79, 0
8, 116640, Note_on_c, 4, 81, 80
8, 116670, Note_on_c, 4, 81, 0
8, 116670, Note_on_c, 4, 79, 80
8, 116700, Note_on_c, 4, 79, 0
8, 116700, Note_on_c, 4, 81, 80
8, 116730, Note_on_c, 4, 81, 0
8, 116730, Note_on_c, 4, 79, 80
8, 116760, Note_on_c, 4, 79, 0
8, 116760, Note_on_c, 4, 81, 80
8, 116790, Note_on_c, 4, 81, 0
8, 116790, Note_on_c, 4, 79, 80
8, 116820, Note_on_c, 4, 79, 0
8, 116820, Note_on_c, 4, 81, 80
8, 116850, Note_on_c, 4, 81, 0
8, 116850, Note_on_c, 4, 79, 80
8, 116880, Note_on_c, 4, 79, 0
8, 116880, Note_on_c, 4, 77, 80
8, 117000, Note_on_c, 4, 77, 0
8, 117000, Note_on_c, 4, 79, 80
8, 117120, Note_on_c, 4, 79, 0
8, 117120, Note_on_c, 4, 77, 80
8, 117504, Note_on_c, 4, 77, 0
8, 119040, Note_on_c, 4, 82, 110
8, 119952, Note_on_c, 4, 82, 0
8, 120000, Note_on_c, 4, 77, 90
8, 120240, Note_on_c, 4, 77, 0
8, 120240, Note_on_c, 4, 79, 90
8, 120300, Note_on_c, 4, 79, 0
8, 120300, Note_on_c, 4, 77, 90
8, 120360, Note_on_c, 4, 77, 0
8, 120360, Note_on_c, 4, 76, 90
8, 120420, Note_on_c, 4, 76, 0
8, 120420, Note_on_c, 4, 77, 90
8, 120672, Note_on_c, 4, 77, 0
8, 120720, Note_on_c, 4, 79, 90
8, 120912, Note_on_c, 4, 79, 0
8, 120960, Note_on_c, 4, 70, 80
8, 121440, Note_on_c, 4, 70, 0
8, 121440, Note_on_c, 4, 69, 60
8, 121824, Note_on_c, 4, 69, 0
8, 122280, Note_on_c, 4, 75, 90
8, 122400, Note_on_c, 4, 75, 0
8, 122400, Note_on_c, 4, 84, 90
8, 122760, Note_on_c, 4, 84, 0
8, 122760, Note_on_c, 4, 81, 90
8, 122880, Note_on_c, 4, 81, 0
8, 122880, Note_on_c, 4, 87, 90
8, 123108, Note_on_c, 4, 87, 0
8, 123120, Note_on_c, 4, 84, 90
8, 123576, Note_on_c, 4, 84, 0
8, 123600, Note_on_c, 4, 81, 90
8, 124056, Note_on_c, 4, 81, 0
8, 124080, Note_on_c, 4, 77, 90
8, 124536, Note_on_c, 4, 77, 0
8, 124560, Note_on_c, 4, 75, 90
8, 124788, Note_on_c, 4, 75, 0
8, 124800, Note_on_c, 4, 77, 90
8, 125040, Note_on_c, 4, 77, 0
8, 125040, Note_on_c, 4, 77, 90
8, 125070, Note_on_c, 4, 77, 0
8, 125070, Note_on_c, 4, 75, 90
8, 125100, Note_on_c, 4, 75, 0
8, 125100, Note_on_c, 4, 77, 90
8, 125130, Note_on_c, 4, 77, 0
8, 125130, Note_on_c, 4, 75, 90
8, 125160, Note_on_c, 4, 75, 0
8, 125160, Note_on_c, 4, 77, 90
8, 125190, Note_on_c, 4, 77, 0
8, 125190, Note_on_c, 4, 75, 90
8, 125220, Note_on_c, 4, 75, 0
8, 125220, Note_on_c, 4, 77, 90
8, 125250, Note_on_c, 4, 77, 0
8, 125250, Note_on_c, 4, 75, 90
8, 125280, Note_on_c, 4, 75, 0
8, 125280, Note_on_c, 4, 74, 90
8, 125664, Note_on_c, 4, 74, 0
8, 127840, Note_on_c, 4, 75, 90
8, 127968, Note_on_c, 4, 75, 0
8, 128000, Note_on_c, 4, 78, 90
8, 128128, Note_on_c, 4, 78, 0
8, 128160, Note_on_c, 4, 81, 90
8, 128288, Note_on_c, 4, 81, 0
8, 128320, Note_on_c, 4, 84, 90
8, 128448, Note_on_c, 4, 84, 0
8, 128480, Note_on_c, 4, 87, 90
8, 128608, Note_on_c, 4, 87, 0
8, 129760, Note_on_c, 4, 70, 90
8, 129888, Note_on_c, 4, 70, 0
8, 129920, Note_on_c, 4, 74, 90
8, 130048, Note_on_c, 4, 74, 0
8, 130080, Note_on_c, 4, 79, 90
8, 130208, Note_on_c, 4, 79, 0
8, 130240, Note_on_c, 4, 82, 90
8, 130368, Note_on_c, 4, 82, 0
8, 130400, Note_on_c, 4, 86, 90
8, 130528, Note_on_c, 4, 86, 0
8, 131680, Note_on_c, 4, 73, 90
8, 131808, Note_on_c, 4, 73, 0
8, 131840, Note_on_c, 4, 76, 90
8, 131968, Note_on_c, 4, 76, 0
8, 132000, Note_on_c, 4, 79, 90
8, 132128, Note_on_c, 4, 79, 0
8, 132160, Note_on_c, 4, 82, 90
8, 132288, Note_on_c, 4, 82, 0
8, 132320, Note_on_c, 4, 85, 90
8, 132448, Note_on_c, 4, 85, 0
8, 133600, Note_on_c, 4, 68, 91
8, 133728, Note_on_c, 4, 68, 0
8, 133760, Note_on_c, 4, 72, 94
8, 133888, Note_on_c, 4, 72, 0
8, 133920, Note_on_c, 4, 77, 97
8, 134048, Note_on_c, 4, 77, 0
8, 134080, Note_on_c, 4, 80, 100
8, 134208, Note_on_c, 4, 80, 0
8, 134240, Note_on_c, 4, 84, 103
8, 134368, Note_on_c, 4, 84, 0
8, 134400, Note_on_c, 4, 84, 105
8, 134640, Note_on_c, 4, 84, 0
8, 134640, Note_on_c, 4, 83, 93
8, 134880, Note_on_c, 4, 83, 0
8, 134880, Note_on_c, 4, 80, 82
8, 135840, Note_on_c, 4, 80, 0
8, 135840, Note_on_c, 4, 79, 80
8, 136080, Note_on_c, 4, 79, 0
8, 136080, Note_on_c, 4, 77, 80
8, 136272, Note_on_c, 4, 77, 0
8, 136320, Note_on_c, 4, 77, 80
8, 136560, Note_on_c, 4, 77, 0
8, 136560, Note_on_c, 4, 76, 80
8, 136800, Note_on_c, 4, 76, 0
8, 136800, Note_on_c, 4, 74, 80
8, 137040, Note_on_c, 4, 74, 0
8, 137040, Note_on_c, 4, 72, 80
8, 137280, Note_on_c, 4, 72, 0
8, 137280, Note_on_c, 4, 71, 80
8, 137520, Note_on_c, 4, 71, 0
8, 137520, Note_on_c, 4, 72, 80
8, 137760, Note_on_c, 4, 72, 0
8, 137760, Note_on_c, 4, 73, 80
8, 138000, Note_on_c, 4, 73, 0
8, 138000, Note_on_c, 4, 72, 80
8, 138240, Note_on_c, 4, 72, 0
8, 138240, Note_on_c, 4, 72, 80
8, 138480, Note_on_c, 4, 72, 0
8, 138480, Note_on_c, 4, 73, 80
8, 138540, Note_on_c, 4, 73, 0
8, 138540, Note_on_c, 4, 72, 80
8, 138600, Note_on_c, 4, 72, 0
8, 138600, Note_on_c, 4, 70, 80
8, 138660, Note_on_c, 4, 70, 0
8, 138660, Note_on_c, 4, 72, 80
8, 138720, Note_on_c, 4, 72, 0
8, 138720, Note_on_c, 4, 75, 80
8, 139080, Note_on_c, 4, 75, 0
8, 139080, Note_on_c, 4, 73, 80
8, 139176, Note_on_c, 4, 73, 0
8, 139200, Note_on_c, 4, 73, 80
8, 139440, Note_on_c, 4, 73, 0
8, 139440, Note_on_c, 4, 75, 80
8, 139500, Note_on_c, 4, 75, 0
8, 139500, Note_on_c, 4, 73, 80
8, 139560, Note_on_c, 4, 73, 0
8, 139560, Note_on_c, 4, 72, 80
8, 139620, Note_on_c, 4, 72, 0
8, 139620, Note_on_c, 4, 73, 80
8, 139680, Note_on_c, 4, 73, 0
8, 139680, Note_on_c, 4, 77, 80
8, 140040, Note_on_c, 4, 77, 0
8, 140040, Note_on_c, 4, 75, 80
8, 140136, Note_on_c, 4, 75, 0
8, 140160, Note_on_c, 4, 75, 80
8, 141000, Note_on_c, 4, 75, 0
8, 141000, Note_on_c, 4, 72, 80
8, 141096, Note_on_c, 4, 72, 0
8, 141120, Note_on_c, 4, 80, 80
8, 141480, Note_on_c, 4, 80, 0
8, 141480, Note_on_c, 4, 75, 80
8, 141576, Note_on_c, 4, 75, 0
8, 141600, Note_on_c, 4, 84, 80
8, 141960, Note_on_c, 4, 84, 0
8, 141960, Note_on_c, 4, 80, 80
8, 142056, Note_on_c, 4, 80, 0
8, 142080, Note_on_c, 4, 87, 80
8, 143520, Note_on_c, 4, 87, 0
8, 143520, Note_on_c, 4, 85, 80
8, 143640, Note_on_c, 4, 85, 0
8, 143640, Note_on_c, 4, 84, 80
8, 143760, Note_on_c, 4, 84, 0
8, 143760, Note_on_c, 4, 82, 80
8, 143880, Note_on_c, 4, 82, 0
8, 143880, Note_on_c, 4, 80, 80
8, 144000, Note_on_c, 4, 80, 0
8, 144000, Note_on_c, 4, 81, 80
8, 144240, Note_on_c, 4, 81, 0
8, 144240, Note_on_c, 4, 82, 80
8, 144432, Note_on_c, 4, 82, 0
8, 144480, Note_on_c, 4, 82, 80
8, 144864, Note_on_c, 4, 82, 0
8, 145440, Note_on_c, 4, 75, 80
8, 145824, Note_on_c, 4, 75, 0
8, 145920, Note_on_c, 4, 75, 80
8, 146640, Note_on_c, 4, 75, 0
8, 146640, Note_on_c, 4, 77, 80
8, 146700, Note_on_c, 4, 77, 0
8, 146700, Note_on_c, 4, 75, 80
8, 146760, Note_on_c, 4, 75, 0
8, 146760, Note_on_c, 4, 74, 80
8, 146820, Note_on_c, 4, 74, 0
8, 146820, Note_on_c, 4, 75, 80
8, 146880, Note_on_c, 4, 75, 0
8, 146880, Note_on_c, 4, 79, 80
8, 147360, Note_on_c, 4, 79, 0
8, 147360, Note_on_c, 4, 82, 80
8, 147840, Note_on_c, 4, 82, 0
8, 147840, Note_on_c, 4, 85, 80
8, 148560, Note_on_c, 4, 85, 0
8, 148560, Note_on_c, 4, 84, 80
8, 148680, Note_on_c, 4, 84, 0
8, 148680, Note_on_c, 4, 82, 80
8, 148800, Note_on_c, 4, 82, 0
8, 148800, Note_on_c, 4, 80, 80
8, 148920, Note_on_c, 4, 80, 0
8, 148920, Note_on_c, 4, 79, 80
8, 149040, Note_on_c, 4, 79, 0
8, 149040, Note_on_c, 4, 77, 80
8, 149160, Note_on_c, 4, 77, 0
8, 149160, Note_on_c, 4, 75, 80
8, 149280, Note_on_c, 4, 75, 0
8, 149280, Note_on_c, 4, 74, 80
8, 149400, Note_on_c, 4, 74, 0
8, 149400, Note_on_c, 4, 75, 80
8, 149520, Note_on_c, 4, 75, 0
8, 149520, Note_on_c, 4, 77, 80
8, 149640, Note_on_c, 4, 77, 0
8, 149640, Note_on_c, 4, 73, 80
8, 149760, Note_on_c, 4, 73, 0
8, 149760, Note_on_c, 4, 75, 80
8, 150000, Note_on_c, 4, 75, 0
8, 150000, Note_on_c, 4, 75, 80
8, 150030, Note_on_c, 4, 75, 0
8, 150030, Note_on_c, 4, 73, 80
8, 150060, Note_on_c, 4, 73, 0
8, 150060, Note_on_c, 4, 75, 80
8, 150090, Note_on_c, 4, 75, 0
8, 150090, Note_on_c, 4, 73, 80
8, 150120, Note_on_c, 4, 73, 0
8, 150120, Note_on_c, 4, 75, 80
8, 150150, Note_on_c, 4, 75, 0
8, 150150, Note_on_c, 4, 73, 80
8, 150180, Note_on_c, 4, 73, 0
8, 150180, Note_on_c, 4, 75, 80
8, 150210, Note_on_c, 4, 75, 0
8, 150210, Note_on_c, 4, 73, 80
8, 150240, Note_on_c, 4, 73, 0
8, 150240, Note_on_c, 4, 72, 80
8, 150624, Note_on_c, 4, 72, 0
8, 150960, Note_on_c, 4, 75, 80
8, 151080, Note_on_c, 4, 75, 0
8, 151080, Note_on_c, 4, 74, 80
8, 151200, Note_on_c, 4, 74, 0
8, 151200, Note_on_c, 4, 77, 80
8, 151320, Note_on_c, 4, 77, 0
8, 151320, Note_on_c, 4, 75, 80
8, 151440, Note_on_c, 4, 75, 0
8, 151440, Note_on_c, 4, 73, 80
8, 151560, Note_on_c, 4, 73, 0
8, 151560, Note_on_c, 4, 72, 80
8, 151680, Note_on_c, 4, 72, 0
8, 151680, Note_on_c, 4, 70, 80
8, 151920, Note_on_c, 4, 70, 0
8, 151920, Note_on_c, 4, 69, 80
8, 152112, Note_on_c, 4, 69, 0
8, 152400, Note_on_c, 4, 84, 80
8, 152592, Note_on_c, 4, 84, 0
8, 152880, Note_on_c, 4, 87, 80
8, 153072, Note_on_c, 4, 87, 0
8, 153360, Note_on_c, 4, 81, 80
8, 153552, Note_on_c, 4, 81, 0
8, 153600, Note_on_c, 4, 84, 85
8, 154080, Note_on_c, 4, 84, 0
8, 154080, Note_on_c, 4, 82, 71
8, 154464, Note_on_c, 4, 82, 0
8, 154680, Note_on_c, 4, 77, 80
8, 154800, Note_on_c, 4, 77, 0
8, 154800, Note_on_c, 4, 76, 80
8, 154920, Note_on_c, 4, 76, 0
8, 154920, Note_on_c, 4, 77, 80
8, 155040, Note_on_c, 4, 77, 0
8, 155040, Note_on_c, 4, 78, 80
8, 155160, Note_on_c, 4, 78, 0
8, 155160, Note_on_c, 4, 77, 80
8, 155280, Note_on_c, 4, 77, 0
8, 155280, Note_on_c, 4, 75, 80
8, 155400, Note_on_c, 4, 75, 0
8, 155400, Note_on_c, 4, 74, 80
8, 155520, Note_on_c, 4, 74, 0
8, 155520, Note_on_c, 4, 72, 80
8, 155760, Note_on_c, 4, 72, 0
8, 155760, Note_on_c, 4, 71, 80
8, 155952, Note_on_c, 4, 71, 0
8, 156240, Note_on_c, 4, 86, 80
8, 156432, Note_on_c, 4, 86, 0
8, 156720, Note_on_c, 4, 89, 80
8, 156912, Note_on_c, 4, 89, 0
8, 157200, Note_on_c, 4, 83, 80
8, 157392, Note_on_c, 4, 83, 0
8, 157440, Note_on_c, 4, 86, 85
8, 157920, Note_on_c, 4, 86, 0
8, 157920, Note_on_c, 4, 84, 72
8, 158304, Note_on_c, 4, 84, 0
8, 158880, Note_on_c, 4, 84, 80
8, 159264, Note_on_c, 4, 84, 0
8, 159360, Note_on_c, 4, 85, 90
8, 160476, Note_on_c, 4, 85, 0
8, 160480, Note_on_c, 4, 79, 90
8, 160636, Note_on_c, 4, 79, 0
8, 160640, Note_on_c, 4, 78, 90
8, 160796, Note_on_c, 4, 78, 0
8, 160800, Note_on_c, 4, 79, 90
8, 160956, Note_on_c, 4, 79, 0
8, 160960, Note_on_c, 4, 80, 90
8, 161116, Note_on_c, 4, 80, 0
8, 161120, Note_on_c, 4, 82, 90
8, 161276, Note_on_c, 4, 82, 0
8, 161280, Note_on_c, 4, 84, 90
8, 162396, Note_on_c, 4, 84, 0
8, 162400, Note_on_c, 4, 77, 90
8, 162556, Note_on_c, 4, 77, 0
8, 162560, Note_on_c, 4, 76, 90
8, 162716, Note_on_c, 4, 76, 0
8, 162720, Note_on_c, 4, 77, 90
8, 162876, Note_on_c, 4, 77, 0
8, 162880, Note_on_c, 4, 79, 90
8, 163036, Note_on_c, 4, 79, 0
8, 163040, Note_on_c, 4, 80, 90
8, 163196, Note_on_c, 4, 80, 0
8, 163200, Note_on_c, 4, 82, 90
8, 164316, Note_on_c, 4, 82, 0
8, 164320, Note_on_c, 4, 76, 90
8, 164476, Note_on_c, 4, 76, 0
8, 164480, Note_on_c, 4, 74, 90
8, 164636, Note_on_c, 4, 74, 0
8, 164640, Note_on_c, 4, 76, 90
8, 164796, Note_on_c, 4, 76, 0
8, 164800, Note_on_c, 4, 77, 90
8, 164956, Note_on_c, 4, 77, 0
8, 164960, Note_on_c, 4, 79, 90
8, 165116, Note_on_c, 4, 79, 0
8, 165120, Note_on_c, 4, 80, 90
8, 166236, Note_on_c, 4, 80, 0
8, 166240, Note_on_c, 4, 74, 90
8, 166396, Note_on_c, 4, 74, 0
8, 166400, Note_on_c, 4, 73, 90
8, 166556, Note_on_c, 4, 73, 0
8, 166560, Note_on_c, 4, 74, 90
8, 166716, Note_on_c, 4, 74, 0
8, 166720, Note_on_c, 4, 76, 90
8, 166876, Note_on_c, 4, 76, 0
8, 166880, Note_on_c, 4, 77, 90
8, 167036, Note_on_c, 4, 77, 0
8, 167040, Note_on_c, 4, 79, 90
8, 168128, Note_on_c, 4, 79, 0
8, 168160, Note_on_c, 4, 72, 90
8, 168288, Note_on_c, 4, 72, 0
8, 168320, Note_on_c, 4, 73, 91
8, 168448, Note_on_c, 4, 73, 0
8, 168480, Note_on_c, 4, 74, 94
8, 168608, Note_on_c, 4, 74, 0
8, 168640, Note_on_c, 4, 75, 98
8, 168768, Note_on_c, 4, 75, 0
8, 168800, Note_on_c, 4, 76, 101
8, 168928, Note_on_c, 4, 76, 0
8, 168960, Note_on_c, 4, 77, 104
8, 169900, Note_on_c, 4, 77, 0
8, 169920, Note_on_c, 4, 76, 90
8, 170160, Note_on_c, 4, 76, 0
8, 170160, Note_on_c, 4, 74, 90
8, 170396, Note_on_c, 4, 74, 0
8, 170400, Note_on_c, 4, 72, 90
8, 170640, Note_on_c, 4, 72, 0
8, 170640, Note_on_c, 4, 70, 90
8, 170876, Note_on_c, 4, 70, 0
8, 170880, Note_on_c, 4, 69, 90
8, 171360, Note_on_c, 4, 69, 0
8, 171360, Note_on_c, 4, 67, 90
8, 172320, Note_on_c, 4, 67, 0
8, 172320, Note_on_c, 4, 72, 90
8, 172790, Note_on_c, 4, 72, 0
8, 172800, Note_on_c, 4, 70, 90
8, 173280, Note_on_c, 4, 70, 0
8, 173280, Note_on_c, 4, 69, 70
8, 173664, Note_on_c, 4, 69, 0
8, 174720, Note_on_c, 4, 77, 95
8, 175660, Note_on_c, 4, 77, 0
8, 175680, Note_on_c, 4, 76, 89
8, 175920, Note_on_c, 4, 76, 0
8, 175920, Note_on_c, 4, 74, 90
8, 176156, Note_on_c, 4, 74, 0
8, 176160, Note_on_c, 4, 72, 90
8, 176400, Note_on_c, 4, 72, 0
8, 176400, Note_on_c, 4, 70, 90
8, 176636, Note_on_c, 4, 70, 0
8, 176640, Note_on_c, 4, 69, 90
8, 177120, Note_on_c, 4, 69, 0
8, 177120, Note_on_c, 4, 67, 90
8, 178080, Note_on_c, 4, 67, 0
8, 178080, Note_on_c, 4, 72, 90
8, 178550, Note_on_c, 4, 72, 0
8, 178560, Note_on_c, 4, 65, 70
8, 178944, Note_on_c, 4, 65, 0
8, 180480, Note_on_c, 4, 84, 90
8, 181392, Note_on_c, 4, 84, 0
8, 184320, Note_on_c, 4, 86, 110
8, 185232, Note_on_c, 4, 86, 0
8, 186720, Note_on_c, 4, 89, 110
8, 187296, Note_on_c, 4, 89, 0
8, 187440, Note_on_c, 4, 84, 90
8, 187632, Note_on_c, 4, 84, 0
8, 187680, Note_on_c, 4, 81, 90
8, 187872, Note_on_c, 4, 81, 0
8, 187920, Note_on_c, 4, 77, 90
8, 188112, Note_on_c, 4, 77, 0
8, 188160, Note_on_c, 4, 77, 80
8, 188190, Note_on_c, 4, 77, 0
8, 188190, Note_on_c, 4, 76, 80
8, 188220, Note_on_c, 4, 76, 0
8, 188220, Note_on_c, 4, 77, 80
8, 188250, Note_on_c, 4, 77, 0
8, 188250, Note_on_c, 4, 76, 80
8, 188280, Note_on_c, 4, 76, 0
8, 188280, Note_on_c, 4, 77, 80
8, 188310, Note_on_c, 4, 77, 0
8, 188310, Note_on_c, 4, 76, 80
8, 188340, Note_on_c, 4, 76, 0
8, 188340, Note_on_c, 4, 77, 80
8, 188370, Note_on_c, 4, 77, 0
8, 188370, Note_on_c, 4, 76, 80
8, 188400, Note_on_c, 4, 76, 0
8, 188400, Note_on_c, 4, 77, 80
8, 188430, Note_on_c, 4, 77, 0
8, 188430, Note_on_c, 4, 76, 80
8, 188460, Note_on_c, 4, 76, 0
8, 188460, Note_on_c, 4, 77, 80
8, 188490, Note_on_c, 4, 77, 0
8, 188490, Note_on_c, 4, 76, 80
8, 188520, Note_on_c, 4, 76, 0
8, 188520, Note_on_c, 4, 77, 80
8, 188550, Note_on_c, 4, 77, 0
8, 188550, Note_on_c, 4, 76, 80
8, 188580, Note_on_c, 4, 76, 0
8, 188580, Note_on_c, 4, 77, 80
8, 188610, Note_on_c, 4, 77, 0
8, 188610, Note_on_c, 4, 76, 80
8, 188640, Note_on_c, 4, 76, 0
8, 188640, Note_on_c, 4, 77, 80
8, 188670, Note_on_c, 4, 77, 0
8, 188670, Note_on_c, 4, 76, 80
8, 188700, Note_on_c, 4, 76, 0
8, 188700, Note_on_c, 4, 77, 80
8, 188730, Note_on_c, 4, 77, 0
8, 188730, Note_on_c, 4, 76, 80
8, 188760, Note_on_c, 4, 76, 0
8, 188760, Note_on_c, 4, 77, 80
8, 188790, Note_on_c, 4, 77, 0
8, 188790, Note_on_c, 4, 76, 80
8, 188820, Note_on_c, 4, 76, 0
8, 188820, Note_on_c, 4, 77, 80
8, 188850, Note_on_c, 4, 77, 0
8, 188850, Note_on_c, 4, 76, 80
8, 188880, Note_on_c, 4, 76, 0
8, 188880, Note_on_c, 4, 77, 80
8, 188910, Note_on_c, 4, 77, 0
8, 188910, Note_on_c, 4, 76, 80
8, 188940, Note_on_c, 4, 76, 0
8, 188940, Note_on_c, 4, 77, 80
8, 188970, Note_on_c, 4, 77, 0
8, 188970, Note_on_c, 4, 76, 80
8, 189000, Note_on_c, 4, 76, 0
8, 189000, Note_on_c, 4, 77, 80
8, 189030, Note_on_c, 4, 77, 0
8, 189030, Note_on_c, 4, 76, 80
8, 189060, Note_on_c, 4, 76, 0
8, 189060, Note_on_c, 4, 77, 80
8, 189090, Note_on_c, 4, 77, 0
8, 189090, Note_on_c, 4, 76, 80
8, 189120, Note_on_c, 4, 76, 0
8, 189120, Note_on_c, 4, 81, 80
8, 189150, Note_on_c, 4, 81, 0
8, 189150, Note_on_c, 4, 79, 80
8, 189180, Note_on_c, 4, 79, 0
8, 189180, Note_on_c, 4, 81, 80
8, 189210, Note_on_c, 4, 81, 0
8, 189210, Note_on_c, 4, 79, 80
8, 189240, Note_on_c, 4, 79, 0
8, 189240, Note_on_c, 4, 81, 80
8, 189270, Note_on_c, 4, 81, 0
8, 189270, Note_on_c, 4, 79, 80
8, 189300, Note_on_c, 4, 79, 0
8, 189300, Note_on_c, 4, 81, 80
8, 189330, Note_on_c, 4, 81, 0
8, 189330, Note_on_c, 4, 79, 80
8, 189360, Note_on_c, 4, 79, 0
8, 189360, Note_on_c, 4, 81, 80
8, 189390, Note_on_c, 4, 81, 0
8, 189390, Note_on_c, 4, 79, 80
8, 189420, Note_on_c, 4, 79, 0
8, 189420, Note_on_c, 4, 81, 80
8, 189450, Note_on_c, 4, 81, 0
8, 189450, Note_on_c, 4, 79, 80
8, 189480, Note_on_c, 4, 79, 0
8, 189480, Note_on_c, 4, 81, 80
8, 189510, Note_on_c, 4, 81, 0
8, 189510, Note_on_c, 4, 79, 80
8, 189540, Note_on_c, 4, 79, 0
8, 189540, Note_on_c, 4, 81, 80
8, 189570, Note_on_c, 4, 81, 0
8, 189570, Note_on_c, 4, 79, 80
8, 189600, Note_on_c, 4, 79, 0
8, 189600, Note_on_c, 4, 81, 80
8, 189630, Note_on_c, 4, 81, 0
8, 189630, Note_on_c, 4, 79, 80
8, 189660, Note_on_c, 4, 79, 0
8, 189660, Note_on_c, 4, 81, 80
8, 189690, Note_on_c, 4, 81, 0
8, 189690, Note_on_c, 4, 79, 80
8, 189720, Note_on_c, 4, 79, 0
8, 189720, Note_on_c, 4, 81, 80
8, 189750, Note_on_c, 4, 81, 0
8, 189750, Note_on_c, 4, 79, 80
8, 189780, Note_on_c, 4, 79, 0
8, 189780, Note_on_c, 4, 81, 80
8, 189810, Note_on_c, 4, 81, 0
8, 189810, Note_on_c, 4, 79, 80
8, 189840, Note_on_c, 4, 79, 0
8, 189840, Note_on_c, 4, 77, 80
8, 189960, Note_on_c, 4, 77, 0
8, 189960, Note_on_c, 4, 79, 80
8, 190080, Note_on_c, 4, 79, 0
8, 190080, Note_on_c, 4, 77, 70
8, 190464, Note_on_c, 4, 77, 0
8, 191520, Note_on_c, 4, 81, 80
8, 191880, Note_on_c, 4, 81, 0
8, 191880, Note_on_c, 4, 77, 80
8, 192000, Note_on_c, 4, 77, 0
8, 192000, Note_on_c, 4, 84, 80
8, 192384, Note_on_c, 4, 84, 0
8, 192480, Note_on_c, 4, 84, 80
8, 192864, Note_on_c, 4, 84, 0
8, 192960, Note_on_c, 4, 84, 80
8, 193344, Note_on_c, 4, 84, 0
8, 193440, Note_on_c, 4, 84, 80
8, 193824, Note_on_c, 4, 84, 0
8, 193920, Note_on_c, 4, 84, 80
8, 194400, Note_on_c, 4, 84, 0
8, 194400, Note_on_c, 4, 89, 80
8, 194784, Note_on_c, 4, 89, 0
8, 195360, Note_on_c, 4, 81, 80
8, 195720, Note_on_c, 4, 81, 0
8, 195720, Note_on_c, 4, 77, 80
8, 195840, Note_on_c, 4, 77, 0
8, 195840, Note_on_c, 4, 84, 80
8, 196224, Note_on_c, 4, 84, 0
8, 196320, Note_on_c, 4, 84, 80
8, 196704, Note_on_c, 4, 84, 0
8, 196800, Note_on_c, 4, 84, 80
8, 197520, Note_on_c, 4, 84, 0
8, 197520, Note_on_c, 4, 82, 80
8, 197600, Note_on_c, 4, 82, 0
8, 197600, Note_on_c, 4, 81, 80
8, 197680, Note_on_c, 4, 81, 0
8, 197680, Note_on_c, 4, 79, 80
8, 197760, Note_on_c, 4, 79, 0
8, 197760, Note_on_c, 4, 77, 63
8, 198144, Note_on_c, 4, 77, 0
8, 198720, Note_on_c, 4, 84, 67
8, 198720, Note_on_c, 4, 72, 60
8, 199104, Note_on_c, 4, 72, 0
8, 199104, Note_on_c, 4, 84, 0
8, 199680, Note_on_c, 4, 89, 78
8, 199680, Note_on_c, 4, 77, 60
8, 200192, Note_on_c, 4, 77, 0
8, 200224, Note_on_c, 4, 89, 0
8, 200224, End_track
9, 0, Start_track
9, 0, Sequencer_specific, 04, 43, 00, 01, 00
9, 0, Program_c, 5, 0
9, 0, Control_c, 5, 7, 122
9, 0, Control_c, 5, 91, 100
9, 0, Control_c, 5, 91, 100
9, 44320, Note_on_c, 5, 60, 60
9, 44320, Note_on_c, 5, 57, 60
9, 44448, Note_on_c, 5, 57, 0
9, 44448, Note_on_c, 5, 60, 0
9, 44480, Note_on_c, 5, 57, 60
9, 44480, Note_on_c, 5, 60, 60
9, 44608, Note_on_c, 5, 60, 0
9, 44608, Note_on_c, 5, 57, 0
9, 44640, Note_on_c, 5, 57, 60
9, 44640, Note_on_c, 5, 60, 60
9, 44768, Note_on_c, 5, 60, 0
9, 44768, Note_on_c, 5, 57, 0
9, 44800, Note_on_c, 5, 60, 60
9, 44800, Note_on_c, 5, 57, 60
9, 44928, Note_on_c, 5, 57, 0
9, 44928, Note_on_c, 5, 60, 0
9, 44960, Note_on_c, 5, 57, 60
9, 44960, Note_on_c, 5, 60, 60
9, 45088, Note_on_c, 5, 60, 0
9, 45088, Note_on_c, 5, 57, 0
9, 45280, Note_on_c, 5, 60, 60
9, 45280, Note_on_c, 5, 57, 60
9, 45408, Note_on_c, 5, 57, 0
9, 45408, Note_on_c, 5, 60, 0
9, 45440, Note_on_c, 5, 57, 60
9, 45440, Note_on_c, 5, 60, 60
9, 45568, Note_on_c, 5, 60, 0
9, 45568, Note_on_c, 5, 57, 0
9, 45600, Note_on_c, 5, 60, 60
9, 45600, Note_on_c, 5, 57, 60
9, 45728, Note_on_c, 5, 57, 0
9, 45728, Note_on_c, 5, 60, 0
9, 45760, Note_on_c, 5, 57, 60
9, 45760, Note_on_c, 5, 60, 60
9, 45888, Note_on_c, 5, 60, 0
9, 45888, Note_on_c, 5, 57, 0
9, 45920, Note_on_c, 5, 57, 60
9, 45920, Note_on_c, 5, 60, 60
9, 46048, Note_on_c, 5, 60, 0
9, 46048, Note_on_c, 5, 57, 0
9, 46240, Note_on_c, 5, 60, 60
9, 46240, Note_on_c, 5, 57, 60
9, 46368, Note_on_c, 5, 57, 0
9, 46368, Note_on_c, 5, 60, 0
9, 46400, Note_on_c, 5, 60, 60
9, 46400, Note_on_c, 5, 57, 60
9, 46528, Note_on_c, 5, 57, 0
9, 46528, Note_on_c, 5, 60, 0
9, 46560, Note_on_c, 5, 57, 60
9, 46560, Note_on_c, 5, 60, 60
9, 46688, Note_on_c, 5, 60, 0
9, 46688, Note_on_c, 5, 57, 0
9, 46720, Note_on_c, 5, 60, 60
9, 46720, Note_on_c, 5, 57, 60
9, 46848, Note_on_c, 5, 57, 0
9, 46848, Note_on_c, 5, 60, 0
9, 46880, Note_on_c, 5, 57, 60
9, 46880, Note_on_c, 5, 60, 60
9, 47008, Note_on_c, 5, 60, 0
9, 47008, Note_on_c, 5, 57, 0
9, 47200, Note_on_c, 5, 57, 60
9, 47200, Note_on_c, 5, 60, 60
9, 47328, Note_on_c, 5, 60, 0
9, 47328, Note_on_c, 5, 57, 0
9, 47360, Note_on_c, 5, 57, 60
9, 47360, Note_on_c, 5, 60, 60
9, 47488, Note_on_c, 5, 60, 0
9, 47488, Note_on_c, 5, 57, 0
9, 47520, Note_on_c, 5, 57, 60
9, 47520, Note_on_c, 5, 60, 60
9, 47648, Note_on_c, 5, 60, 0
9, 47648, Note_on_c, 5, 57, 0
9, 47680, Note_on_c, 5, 57, 60
9, 47680, Note_on_c, 5, 60, 60
9, 47808, Note_on_c, 5, 60, 0
9, 47808, Note_on_c, 5, 57, 0
9, 47840, Note_on_c, 5, 60, 60
9, 47840, Note_on_c, 5, 57, 60
9, 47968, Note_on_c, 5, 57, 0
9, 47968, Note_on_c, 5, 60, 0
9, 48160, Note_on_c, 5, 60, 60
9, 48160, Note_on_c, 5, 57, 60
9, 48288, Note_on_c, 5, 57, 0
9, 48288, Note_on_c, 5, 60, 0
9, 48320, Note_on_c, 5, 57, 60
9, 48320, Note_on_c, 5, 60, 60
9, 48448, Note_on_c, 5, 60, 0
9, 48448, Note_on_c, 5, 57, 0
9, 48480, Note_on_c, 5, 60, 60
9, 48480, Note_on_c, 5, 57, 60
9, 48608, Note_on_c, 5, 57, 0
9, 48608, Note_on_c, 5, 60, 0
9, 48640, Note_on_c, 5, 57, 60
9, 48640, Note_on_c, 5, 60, 60
9, 48768, Note_on_c, 5, 60, 0
9, 48768, Note_on_c, 5, 57, 0
9, 48800, Note_on_c, 5, 60, 60
9, 48800, Note_on_c, 5, 57, 60
9, 48928, Note_on_c, 5, 57, 0
9, 48928, Note_on_c, 5, 60, 0
9, 49120, Note_on_c, 5, 60, 60
9, 49120, Note_on_c, 5, 57, 60
9, 49248, Note_on_c, 5, 57, 0
9, 49248, Note_on_c, 5, 60, 0
9, 49280, Note_on_c, 5, 57, 60
9, 49280, Note_on_c, 5, 60, 60
9, 49408, Note_on_c, 5, 60, 0
9, 49408, Note_on_c, 5, 57, 0
9, 49440, Note_on_c, 5, 57, 60
9, 49440, Note_on_c, 5, 60, 60
9, 49568, Note_on_c, 5, 60, 0
9, 49568, Note_on_c, 5, 57, 0
9, 49600, Note_on_c, 5, 57, 60
9, 49600, Note_on_c, 5, 60, 60
9, 49728, Note_on_c, 5, 60, 0
9, 49728, Note_on_c, 5, 57, 0
9, 49760, Note_on_c, 5, 57, 60
9, 49760, Note_on_c, 5, 60, 60
9, 49888, Note_on_c, 5, 60, 0
9, 49888, Note_on_c, 5, 57, 0
9, 50080, Note_on_c, 5, 55, 60
9, 50080, Note_on_c, 5, 52, 60
9, 50080, Note_on_c, 5, 58, 60
9, 50208, Note_on_c, 5, 58, 0
9, 50208, Note_on_c, 5, 52, 0
9, 50208, Note_on_c, 5, 55, 0
9, 50240, Note_on_c, 5, 58, 60
9, 50240, Note_on_c, 5, 52, 60
9, 50240, Note_on_c, 5, 55, 60
9, 50368, Note_on_c, 5, 55, 0
9, 50368, Note_on_c, 5, 52, 0
9, 50368, Note_on_c, 5, 58, 0
9, 50400, Note_on_c, 5, 58, 60
9, 50400, Note_on_c, 5, 52, 60
9, 50400, Note_on_c, 5, 55, 60
9, 50528, Note_on_c, 5, 55, 0
9, 50528, Note_on_c, 5, 52, 0
9, 50528, Note_on_c, 5, 58, 0
9, 50560, Note_on_c, 5, 58, 60
9, 50560, Note_on_c, 5, 52, 60
9, 50560, Note_on_c, 5, 55, 60
9, 50688, Note_on_c, 5, 55, 0
9, 50688, Note_on_c, 5, 52, 0
9, 50688, Note_on_c, 5, 58, 0
9, 50720, Note_on_c, 5, 55, 60
9, 50720, Note_on_c, 5, 58, 60
9, 50720, Note_on_c, 5, 52, 60
9, 50848, Note_on_c, 5, 52, 0
9, 50848, Note_on_c, 5, 58, 0
9, 50848, Note_on_c, 5, 55, 0
9, 51040, Note_on_c, 5, 55, 60
9, 51040, Note_on_c, 5, 52, 60
9, 51040, Note_on_c, 5, 58, 60
9, 51168, Note_on_c, 5, 58, 0
9, 51168, Note_on_c, 5, 52, 0
9, 51168, Note_on_c, 5, 55, 0
9, 51200, Note_on_c, 5, 52, 60
9, 51200, Note_on_c, 5, 55, 60
9, 51200, Note_on_c, 5, 58, 60
9, 51328, Note_on_c, 5, 58, 0
9, 51328, Note_on_c, 5, 55, 0
9, 51328, Note_on_c, 5, 52, 0
9, 51360, Note_on_c, 5, 58, 60
9, 51360, Note_on_c, 5, 55, 60
9, 51360, Note_on_c, 5, 52, 60
9, 51488, Note_on_c, 5, 52, 0
9, 51488, Note_on_c, 5, 55, 0
9, 51488, Note_on_c, 5, 58, 0
9, 51520, Note_on_c, 5, 58, 60
9, 51520, Note_on_c, 5, 52, 60
9, 51520, Note_on_c, 5, 55, 60
9, 51648, Note_on_c, 5, 55, 0
9, 51648, Note_on_c, 5, 52, 0
9, 51648, Note_on_c, 5, 58, 0
9, 51680, Note_on_c, 5, 58, 60
9, 51680, Note_on_c, 5, 55, 60
9, 51680, Note_on_c, 5, 52, 60
9, 51808, Note_on_c, 5, 52, 0
9, 51808, Note_on_c, 5, 55, 0
9, 51808, Note_on_c, 5, 58, 0
9, 52000, Note_on_c, 5, 52, 60
9, 52000, Note_on_c, 5, 55, 60
9, 52000, Note_on_c, 5, 58, 60
9, 52128, Note_on_c, 5, 58, 0
9, 52128, Note_on_c, 5, 55, 0
9, 52128, Note_on_c, 5, 52, 0
9, 52160, Note_on_c, 5, 58, 60
9, 52160, Note_on_c, 5, 55, 60
9, 52160, Note_on_c, 5, 52, 60
9, 52288, Note_on_c, 5, 52, 0
9, 52288, Note_on_c, 5, 55, 0
9, 52288, Note_on_c, 5, 58, 0
9, 52320, Note_on_c, 5, 55, 60
9, 52320, Note_on_c, 5, 52, 60
9, 52320, Note_on_c, 5, 58, 60
9, 52448, Note_on_c, 5, 58, 0
9, 52448, Note_on_c, 5, 52, 0
9, 52448, Note_on_c, 5, 55, 0
9, 52480, Note_on_c, 5, 55, 60
9, 52480, Note_on_c, 5, 58, 60
9, 52480, Note_on_c, 5, 52, 60
9, 52608, Note_on_c, 5, 52, 0
9, 52608, Note_on_c, 5, 58, 0
9, 52608, Note_on_c, 5, 55, 0
9, 52640, Note_on_c, 5, 52, 60
9, 52640, Note_on_c, 5, 55, 60
9, 52640, Note_on_c, 5, 58, 60
9, 52768, Note_on_c, 5, 58, 0
9, 52768, Note_on_c, 5, 55, 0
9, 52768, Note_on_c, 5, 52, 0
9, 52960, Note_on_c, 5, 52, 60
9, 52960, Note_on_c, 5, 55, 60
9, 52960, Note_on_c, 5, 58, 60
9, 53088, Note_on_c, 5, 58, 0
9, 53088, Note_on_c, 5, 55, 0
9, 53088, Note_on_c, 5, 52, 0
9, 53120, Note_on_c, 5, 58, 60
9, 53120, Note_on_c, 5, 55, 60
9, 53120, Note_on_c, 5, 52, 60
9, 53248, Note_on_c, 5, 52, 0
9, 53248, Note_on_c, 5, 55, 0
9, 53248, Note_on_c, 5, 58, 0
9, 53280, Note_on_c, 5, 52, 60
9, 53280, Note_on_c, 5, 55, 60
9, 53280, Note_on_c, 5, 58, 60
9, 53408, Note_on_c, 5, 58, 0
9, 53408, Note_on_c, 5, 55, 0
9, 53408, Note_on_c, 5, 52, 0
9, 53440, Note_on_c, 5, 55, 60
9, 53440, Note_on_c, 5, 58, 60
9, 53440, Note_on_c, 5, 52, 60
9, 53568, Note_on_c, 5, 52, 0
9, 53568, Note_on_c, 5, 58, 0
9, 53568, Note_on_c, 5, 55, 0
9, 53600, Note_on_c, 5, 58, 60
9, 53600, Note_on_c, 5, 55, 60
9, 53600, Note_on_c, 5, 52, 60
9, 53728, Note_on_c, 5, 52, 0
9, 53728, Note_on_c, 5, 55, 0
9, 53728, Note_on_c, 5, 58, 0
9, 53920, Note_on_c, 5, 55, 60
9, 53920, Note_on_c, 5, 52, 60
9, 53920, Note_on_c, 5, 58, 60
9, 54048, Note_on_c, 5, 58, 0
9, 54048, Note_on_c, 5, 52, 0
9, 54048, Note_on_c, 5, 55, 0
9, 54080, Note_on_c, 5, 58, 60
9, 54080, Note_on_c, 5, 55, 60
9, 54080, Note_on_c, 5, 52, 60
9, 54208, Note_on_c, 5, 52, 0
9, 54208, Note_on_c, 5, 55, 0
9, 54208, Note_on_c, 5, 58, 0
9, 54240, Note_on_c, 5, 55, 60
9, 54240, Note_on_c, 5, 52, 60
9, 54240, Note_on_c, 5, 58, 60
9, 54368, Note_on_c, 5, 58, 0
9, 54368, Note_on_c, 5, 52, 0
9, 54368, Note_on_c, 5, 55, 0
9, 54400, Note_on_c, 5, 52, 60
9, 54400, Note_on_c, 5, 58, 60
9, 54400, Note_on_c, 5, 55, 60
9, 54528, Note_on_c, 5, 55, 0
9, 54528, Note_on_c, 5, 58, 0
9, 54528, Note_on_c, 5, 52, 0
9, 54560, Note_on_c, 5, 55, 60
9, 54560, Note_on_c, 5, 58, 60
9, 54560, Note_on_c, 5, 52, 60
9, 54688, Note_on_c, 5, 52, 0
9, 54688, Note_on_c, 5, 58, 0
9, 54688, Note_on_c, 5, 55, 0
9, 54880, Note_on_c, 5, 58, 60
9, 54880, Note_on_c, 5, 52, 60
9, 54880, Note_on_c, 5, 55, 60
9, 55008, Note_on_c, 5, 55, 0
9, 55008, Note_on_c, 5, 52, 0
9, 55008, Note_on_c, 5, 58, 0
9, 55040, Note_on_c, 5, 58, 60
9, 55040, Note_on_c, 5, 55, 60
9, 55040, Note_on_c, 5, 52, 60
9, 55168, Note_on_c, 5, 52, 0
9, 55168, Note_on_c, 5, 55, 0
9, 55168, Note_on_c, 5, 58, 0
9, 55200, Note_on_c, 5, 58, 60
9, 55200, Note_on_c, 5, 52, 60
9, 55200, Note_on_c, 5, 55, 60
9, 55328, Note_on_c, 5, 55, 0
9, 55328, Note_on_c, 5, 52, 0
9, 55328, Note_on_c, 5, 58, 0
9, 55360, Note_on_c, 5, 55, 60
9, 55360, Note_on_c, 5, 52, 60
9, 55360, Note_on_c, 5, 58, 60
9, 55488, Note_on_c, 5, 58, 0
9, 55488, Note_on_c, 5, 52, 0
9, 55488, Note_on_c, 5, 55, 0
9, 55520, Note_on_c, 5, 52, 60
9, 55520, Note_on_c, 5, 58, 60
9, 55520, Note_on_c, 5, 55, 60
9, 55648, Note_on_c, 5, 55, 0
9, 55648, Note_on_c, 5, 58, 0
9, 55648, Note_on_c, 5, 52, 0
9, 55840, Note_on_c, 5, 57, 60
9, 55840, Note_on_c, 5, 60, 60
9, 55968, Note_on_c, 5, 60, 0
9, 55968, Note_on_c, 5, 57, 0
9, 56000, Note_on_c, 5, 57, 60
9, 56000, Note_on_c, 5, 60, 60
9, 56128, Note_on_c, 5, 60, 0
9, 56128, Note_on_c, 5, 57, 0
9, 56160, Note_on_c, 5, 57, 60
9, 56160, Note_on_c, 5, 60, 60
9, 56288, Note_on_c, 5, 60, 0
9, 56288, Note_on_c, 5, 57, 0
9, 56320, Note_on_c, 5, 57, 60
9, 56320, Note_on_c, 5, 60, 60
9, 56448, Note_on_c, 5, 60, 0
9, 56448, Note_on_c, 5, 57, 0
9, 56480, Note_on_c, 5, 60, 60
9, 56480, Note_on_c, 5, 57, 60
9, 56608, Note_on_c, 5, 57, 0
9, 56608, Note_on_c, 5, 60, 0
9, 56800, Note_on_c, 5, 60, 60
9, 56800, Note_on_c, 5, 57, 60
9, 56928, Note_on_c, 5, 57, 0
9, 56928, Note_on_c, 5, 60, 0
9, 56960, Note_on_c, 5, 60, 60
9, 56960, Note_on_c, 5, 57, 60
9, 57088, Note_on_c, 5, 57, 0
9, 57088, Note_on_c, 5, 60, 0
9, 57120, Note_on_c, 5, 57, 60
9, 57120, Note_on_c, 5, 60, 60
9, 57248, Note_on_c, 5, 60, 0
9, 57248, Note_on_c, 5, 57, 0
9, 57280, Note_on_c, 5, 57, 60
9, 57280, Note_on_c, 5, 60, 60
9, 57408, Note_on_c, 5, 60, 0
9, 57408, Note_on_c, 5, 57, 0
9, 57440, Note_on_c, 5, 57, 60
9, 57440, Note_on_c, 5, 60, 60
9, 57568, Note_on_c, 5, 60, 0
9, 57568, Note_on_c, 5, 57, 0
9, 57600, Note_on_c, 5, 57, 80
9, 57760, Note_on_c, 5, 65, 60
9, 57760, Note_on_c, 5, 60, 60
9, 57760, Note_on_c, 5, 63, 60
9, 57888, Note_on_c, 5, 63, 0
9, 57888, Note_on_c, 5, 60, 0
9, 57888, Note_on_c, 5, 65, 0
9, 57920, Note_on_c, 5, 60, 60
9, 57920, Note_on_c, 5, 63, 60
9, 57920, Note_on_c, 5, 65, 60
9, 58048, Note_on_c, 5, 65, 0
9, 58048, Note_on_c, 5, 63, 0
9, 58048, Note_on_c, 5, 60, 0
9, 58080, Note_on_c, 5, 63, 60
9, 58080, Note_on_c, 5, 60, 60
9, 58080, Note_on_c, 5, 65, 60
9, 58208, Note_on_c, 5, 65, 0
9, 58208, Note_on_c, 5, 60, 0
9, 58208, Note_on_c, 5, 63, 0
9, 58240, Note_on_c, 5, 60, 60
9, 58240, Note_on_c, 5, 63, 60
9, 58240, Note_on_c, 5, 65, 60
9, 58368, Note_on_c, 5, 65, 0
9, 58368, Note_on_c, 5, 63, 0
9, 58368, Note_on_c, 5, 60, 0
9, 58400, Note_on_c, 5, 60, 60
9, 58400, Note_on_c, 5, 65, 60
9, 58400, Note_on_c, 5, 63, 60
9, 58528, Note_on_c, 5, 63, 0
9, 58528, Note_on_c, 5, 65, 0
9, 58528, Note_on_c, 5, 60, 0
9, 58540, Note_on_c, 5, 57, 0
9, 58560, Note_on_c, 5, 57, 60
9, 58720, Note_on_c, 5, 60, 60
9, 58720, Note_on_c, 5, 63, 60
9, 58720, Note_on_c, 5, 65, 60
9, 58848, Note_on_c, 5, 65, 0
9, 58848, Note_on_c, 5, 63, 0
9, 58848, Note_on_c, 5, 60, 0
9, 58880, Note_on_c, 5, 60, 60
9, 58880, Note_on_c, 5, 65, 60
9, 58880, Note_on_c, 5, 63, 60
9, 59008, Note_on_c, 5, 63, 0
9, 59008, Note_on_c, 5, 65, 0
9, 59008, Note_on_c, 5, 60, 0
9, 59040, Note_on_c, 5, 65, 60
9, 59040, Note_on_c, 5, 63, 60
9, 59040, Note_on_c, 5, 60, 60
9, 59168, Note_on_c, 5, 60, 0
9, 59168, Note_on_c, 5, 63, 0
9, 59168, Note_on_c, 5, 65, 0
9, 59200, Note_on_c, 5, 60, 60
9, 59200, Note_on_c, 5, 65, 60
9, 59200, Note_on_c, 5, 63, 60
9, 59328, Note_on_c, 5, 63, 0
9, 59328, Note_on_c, 5, 65, 0
9, 59328, Note_on_c, 5, 60, 0
9, 59360, Note_on_c, 5, 63, 60
9, 59360, Note_on_c, 5, 60, 60
9, 59360, Note_on_c, 5, 65, 60
9, 59488, Note_on_c, 5, 65, 0
9, 59488, Note_on_c, 5, 60, 0
9, 59488, Note_on_c, 5, 63, 0
9, 59500, Note_on_c, 5, 57, 0
9, 59520, Note_on_c, 5, 58, 60
9, 59680, Note_on_c, 5, 65, 60
9, 59680, Note_on_c, 5, 62, 60
9, 59808, Note_on_c, 5, 62, 0
9, 59808, Note_on_c, 5, 65, 0
9, 59840, Note_on_c, 5, 62, 60
9, 59840, Note_on_c, 5, 65, 60
9, 59968, Note_on_c, 5, 65, 0
9, 59968, Note_on_c, 5, 62, 0
9, 60000, Note_on_c, 5, 65, 60
9, 60000, Note_on_c, 5, 62, 60
9, 60128, Note_on_c, 5, 62, 0
9, 60128, Note_on_c, 5, 65, 0
9, 60160, Note_on_c, 5, 62, 60
9, 60160, Note_on_c, 5, 65, 60
9, 60288, Note_on_c, 5, 65, 0
9, 60288, Note_on_c, 5, 62, 0
9, 60320, Note_on_c, 5, 65, 60
9, 60320, Note_on_c, 5, 62, 60
9, 60448, Note_on_c, 5, 62, 0
9, 60448, Note_on_c, 5, 65, 0
9, 60460, Note_on_c, 5, 58, 0
9, 60480, Note_on_c, 5, 58, 60
9, 60640, Note_on_c, 5, 62, 60
9, 60640, Note_on_c, 5, 65, 60
9, 60768, Note_on_c, 5, 65, 0
9, 60768, Note_on_c, 5, 62, 0
9, 60800, Note_on_c, 5, 65, 60
9, 60800, Note_on_c, 5, 62, 60
9, 60928, Note_on_c, 5, 62, 0
9, 60928, Note_on_c, 5, 65, 0
9, 60960, Note_on_c, 5, 62, 60
9, 60960, Note_on_c, 5, 65, 60
9, 61088, Note_on_c, 5, 65, 0
9, 61088, Note_on_c, 5, 62, 0
9, 61120, Note_on_c, 5, 62, 60
9, 61120, Note_on_c, 5, 65, 60
9, 61248, Note_on_c, 5, 65, 0
9, 61248, Note_on_c, 5, 62, 0
9, 61280, Note_on_c, 5, 65, 60
9, 61280, Note_on_c, 5, 62, 60
9, 61408, Note_on_c, 5, 62, 0
9, 61408, Note_on_c, 5, 65, 0
9, 61420, Note_on_c, 5, 58, 0
9, 61440, Note_on_c, 5, 59, 80
9, 61600, Note_on_c, 5, 68, 60
9, 61600, Note_on_c, 5, 62, 60
9, 61600, Note_on_c, 5, 65, 60
9, 61728, Note_on_c, 5, 65, 0
9, 61728, Note_on_c, 5, 62, 0
9, 61728, Note_on_c, 5, 68, 0
9, 61760, Note_on_c, 5, 65, 60
9, 61760, Note_on_c, 5, 68, 60
9, 61760, Note_on_c, 5, 62, 60
9, 61888, Note_on_c, 5, 62, 0
9, 61888, Note_on_c, 5, 68, 0
9, 61888, Note_on_c, 5, 65, 0
9, 61920, Note_on_c, 5, 62, 60
9, 61920, Note_on_c, 5, 68, 60
9, 61920, Note_on_c, 5, 65, 60
9, 62048, Note_on_c, 5, 65, 0
9, 62048, Note_on_c, 5, 68, 0
9, 62048, Note_on_c, 5, 62, 0
9, 62080, Note_on_c, 5, 65, 60
9, 62080, Note_on_c, 5, 68, 60
9, 62080, Note_on_c, 5, 62, 60
9, 62208, Note_on_c, 5, 62, 0
9, 62208, Note_on_c, 5, 68, 0
9, 62208, Note_on_c, 5, 65, 0
9, 62240, Note_on_c, 5, 65, 60
9, 62240, Note_on_c, 5, 68, 60
9, 62240, Note_on_c, 5, 62, 60
9, 62368, Note_on_c, 5, 62, 0
9, 62368, Note_on_c, 5, 68, 0
9, 62368, Note_on_c, 5, 65, 0
9, 62380, Note_on_c, 5, 59, 0
9, 62400, Note_on_c, 5, 59, 60
9, 62560, Note_on_c, 5, 65, 60
9, 62560, Note_on_c, 5, 62, 60
9, 62560, Note_on_c, 5, 68, 60
9, 62688, Note_on_c, 5, 68, 0
9, 62688, Note_on_c, 5, 62, 0
9, 62688, Note_on_c, 5, 65, 0
9, 62720, Note_on_c, 5, 65, 60
9, 62720, Note_on_c, 5, 68, 60
9, 62720, Note_on_c, 5, 62, 60
9, 62848, Note_on_c, 5, 62, 0
9, 62848, Note_on_c, 5, 68, 0
9, 62848, Note_on_c, 5, 65, 0
9, 62880, Note_on_c, 5, 62, 60
9, 62880, Note_on_c, 5, 68, 60
9, 62880, Note_on_c, 5, 65, 60
9, 63008, Note_on_c, 5, 65, 0
9, 63008, Note_on_c, 5, 68, 0
9, 63008, Note_on_c, 5, 62, 0
9, 63040, Note_on_c, 5, 65, 60
9, 63040, Note_on_c, 5, 62, 60
9, 63040, Note_on_c, 5, 68, 60
9, 63168, Note_on_c, 5, 68, 0
9, 63168, Note_on_c, 5, 62, 0
9, 63168, Note_on_c, 5, 65, 0
9, 63200, Note_on_c, 5, 65, 60
9, 63200, Note_on_c, 5, 62, 60
9, 63200, Note_on_c, 5, 68, 60
9, 63328, Note_on_c, 5, 68, 0
9, 63328, Note_on_c, 5, 62, 0
9, 63328, Note_on_c, 5, 65, 0
9, 63340, Note_on_c, 5, 59, 0
9, 63360, Note_on_c, 5, 60, 60
9, 63520, Note_on_c, 5, 69, 60
9, 63520, Note_on_c, 5, 65, 60
9, 63648, Note_on_c, 5, 65, 0
9, 63648, Note_on_c, 5, 69, 0
9, 63680, Note_on_c, 5, 65, 60
9, 63680, Note_on_c, 5, 69, 60
9, 63808, Note_on_c, 5, 69, 0
9, 63808, Note_on_c, 5, 65, 0
9, 63840, Note_on_c, 5, 65, 60
9, 63840, Note_on_c, 5, 69, 60
9, 63968, Note_on_c, 5, 69, 0
9, 63968, Note_on_c, 5, 65, 0
9, 64000, Note_on_c, 5, 65, 60
9, 64000, Note_on_c, 5, 69, 60
9, 64128, Note_on_c, 5, 69, 0
9, 64128, Note_on_c, 5, 65, 0
9, 64160, Note_on_c, 5, 65, 60
9, 64160, Note_on_c, 5, 69, 60
9, 64288, Note_on_c, 5, 69, 0
9, 64288, Note_on_c, 5, 65, 0
9, 64300, Note_on_c, 5, 60, 0
9, 64320, Note_on_c, 5, 60, 60
9, 64480, Note_on_c, 5, 65, 60
9, 64480, Note_on_c, 5, 69, 60
9, 64608, Note_on_c, 5, 69, 0
9, 64608, Note_on_c, 5, 65, 0
9, 64640, Note_on_c, 5, 69, 60
9, 64640, Note_on_c, 5, 65, 60
9, 64768, Note_on_c, 5, 65, 0
9, 64768, Note_on_c, 5, 69, 0
9, 64800, Note_on_c, 5, 65, 60
9, 64800, Note_on_c, 5, 69, 60
9, 64928, Note_on_c, 5, 69, 0
9, 64928, Note_on_c, 5, 65, 0
9, 64960, Note_on_c, 5, 65, 60
9, 64960, Note_on_c, 5, 69, 60
9, 65088, Note_on_c, 5, 69, 0
9, 65088, Note_on_c, 5, 65, 0
9, 65120, Note_on_c, 5, 69, 60
9, 65120, Note_on_c, 5, 65, 60
9, 65248, Note_on_c, 5, 65, 0
9, 65248, Note_on_c, 5, 69, 0
9, 65260, Note_on_c, 5, 60, 0
9, 65280, Note_on_c, 5, 60, 60
9, 65440, Note_on_c, 5, 67, 60
9, 65440, Note_on_c, 5, 70, 60
9, 65568, Note_on_c, 5, 70, 0
9, 65568, Note_on_c, 5, 67, 0
9, 65600, Note_on_c, 5, 67, 60
9, 65600, Note_on_c, 5, 70, 60
9, 65728, Note_on_c, 5, 70, 0
9, 65728, Note_on_c, 5, 67, 0
9, 65760, Note_on_c, 5, 70, 60
9, 65760, Note_on_c, 5, 67, 60
9, 65888, Note_on_c, 5, 67, 0
9, 65888, Note_on_c, 5, 70, 0
9, 65920, Note_on_c, 5, 67, 60
9, 65920, Note_on_c, 5, 70, 60
9, 66048, Note_on_c, 5, 70, 0
9, 66048, Note_on_c, 5, 67, 0
9, 66080, Note_on_c, 5, 67, 60
9, 66080, Note_on_c, 5, 70, 60
9, 66208, Note_on_c, 5, 70, 0
9, 66208, Note_on_c, 5, 67, 0
9, 66220, Note_on_c, 5, 60, 0
9, 66240, Note_on_c, 5, 60, 60
9, 66400, Note_on_c, 5, 70, 60
9, 66400, Note_on_c, 5, 67, 60
9, 66528, Note_on_c, 5, 67, 0
9, 66528, Note_on_c, 5, 70, 0
9, 66560, Note_on_c, 5, 70, 60
9, 66560, Note_on_c, 5, 67, 60
9, 66688, Note_on_c, 5, 67, 0
9, 66688, Note_on_c, 5, 70, 0
9, 66720, Note_on_c, 5, 70, 60
9, 66720, Note_on_c, 5, 67, 60
9, 66848, Note_on_c, 5, 67, 0
9, 66848, Note_on_c, 5, 70, 0
9, 66880, Note_on_c, 5, 70, 60
9, 66880, Note_on_c, 5, 67, 60
9, 67008, Note_on_c, 5, 67, 0
9, 67008, Note_on_c, 5, 70, 0
9, 67040, Note_on_c, 5, 67, 60
9, 67040, Note_on_c, 5, 70, 60
9, 67168, Note_on_c, 5, 70, 0
9, 67168, Note_on_c, 5, 67, 0
9, 67180, Note_on_c, 5, 60, 0
9, 67200, Note_on_c, 5, 69, 60
9, 67200, Note_on_c, 5, 65, 60
9, 67584, Note_on_c, 5, 65, 0
9, 67584, Note_on_c, 5, 69, 0
9, 71040, Note_on_c, 5, 50, 70
9, 71424, Note_on_c, 5, 50, 0
9, 72000, Note_on_c, 5, 62, 70
9, 72384, Note_on_c, 5, 62, 0
9, 72480, Note_on_c, 5, 57, 70
9, 72864, Note_on_c, 5, 57, 0
9, 72960, Note_on_c, 5, 50, 70
9, 73344, Note_on_c, 5, 50, 0
9, 73920, Note_on_c, 5, 50, 70
9, 74304, Note_on_c, 5, 50, 0
9, 96000, Note_on_c, 5, 52, 60
9, 96160, Note_on_c, 5, 52, 0
9, 96160, Note_on_c, 5, 55, 60
9, 96320, Note_on_c, 5, 55, 0
9, 96320, Note_on_c, 5, 60, 60
9, 96480, Note_on_c, 5, 60, 0
9, 96480, Note_on_c, 5, 48, 60
9, 96640, Note_on_c, 5, 48, 0
9, 96640, Note_on_c, 5, 52, 60
9, 96800, Note_on_c, 5, 52, 0
9, 96800, Note_on_c, 5, 60, 60
9, 96960, Note_on_c, 5, 60, 0
9, 96960, Note_on_c, 5, 53, 60
9, 97120, Note_on_c, 5, 53, 0
9, 97120, Note_on_c, 5, 57, 60
9, 97280, Note_on_c, 5, 57, 0
9, 97280, Note_on_c, 5, 60, 60
9, 97440, Note_on_c, 5, 60, 0
9, 97440, Note_on_c, 5, 50, 60
9, 97600, Note_on_c, 5, 50, 0
9, 97600, Note_on_c, 5, 53, 60
9, 97760, Note_on_c, 5, 53, 0
9, 97760, Note_on_c, 5, 60, 60
9, 97920, Note_on_c, 5, 60, 0
9, 97920, Note_on_c, 5, 55, 60
9, 98080, Note_on_c, 5, 55, 0
9, 98080, Note_on_c, 5, 60, 60
9, 98240, Note_on_c, 5, 60, 0
9, 98240, Note_on_c, 5, 62, 60
9, 98400, Note_on_c, 5, 62, 0
9, 98400, Note_on_c, 5, 53, 60
9, 98560, Note_on_c, 5, 53, 0
9, 98560, Note_on_c, 5, 60, 60
9, 98720, Note_on_c, 5, 60, 0
9, 98720, Note_on_c, 5, 62, 60
9, 98880, Note_on_c, 5, 62, 0
9, 98880, Note_on_c, 5, 55, 60
9, 99040, Note_on_c, 5, 55, 0
9, 99040, Note_on_c, 5, 60, 60
9, 99200, Note_on_c, 5, 60, 0
9, 99200, Note_on_c, 5, 62, 60
9, 99360, Note_on_c, 5, 62, 0
9, 99360, Note_on_c, 5, 55, 60
9, 99520, Note_on_c, 5, 55, 0
9, 99520, Note_on_c, 5, 59, 60
9, 99680, Note_on_c, 5, 59, 0
9, 99680, Note_on_c, 5, 62, 60
9, 99840, Note_on_c, 5, 62, 0
9, 99840, Note_on_c, 5, 56, 60
9, 100000, Note_on_c, 5, 56, 0
9, 100000, Note_on_c, 5, 59, 60
9, 100160, Note_on_c, 5, 59, 0
9, 100160, Note_on_c, 5, 62, 60
9, 100320, Note_on_c, 5, 62, 0
9, 100320, Note_on_c, 5, 57, 60
9, 100480, Note_on_c, 5, 57, 0
9, 100480, Note_on_c, 5, 60, 60
9, 100640, Note_on_c, 5, 60, 0
9, 100640, Note_on_c, 5, 64, 60
9, 100800, Note_on_c, 5, 64, 0
9, 100800, Note_on_c, 5, 55, 60
9, 100960, Note_on_c, 5, 55, 0
9, 100960, Note_on_c, 5, 60, 60
9, 101120, Note_on_c, 5, 60, 0
9, 101120, Note_on_c, 5, 64, 60
9, 101280, Note_on_c, 5, 64, 0
9, 101280, Note_on_c, 5, 53, 60
9, 101440, Note_on_c, 5, 53, 0
9, 101440, Note_on_c, 5, 59, 60
9, 101600, Note_on_c, 5, 59, 0
9, 101600, Note_on_c, 5, 62, 60
9, 101760, Note_on_c, 5, 62, 0
9, 101760, Note_on_c, 5, 52, 60
9, 101920, Note_on_c, 5, 52, 0
9, 101920, Note_on_c, 5, 55, 60
9, 102080, Note_on_c, 5, 55, 0
9, 102080, Note_on_c, 5, 60, 60
9, 102240, Note_on_c, 5, 60, 0
9, 102240, Note_on_c, 5, 48, 60
9, 102400, Note_on_c, 5, 48, 0
9, 102400, Note_on_c, 5, 52, 60
9, 102560, Note_on_c, 5, 52, 0
9, 102560, Note_on_c, 5, 60, 60
9, 102720, Note_on_c, 5, 60, 0
9, 102720, Note_on_c, 5, 53, 60
9, 102880, Note_on_c, 5, 53, 0
9, 102880, Note_on_c, 5, 57, 60
9, 103040, Note_on_c, 5, 57, 0
9, 103040, Note_on_c, 5, 60, 60
9, 103200, Note_on_c, 5, 60, 0
9, 103200, Note_on_c, 5, 50, 60
9, 103360, Note_on_c, 5, 50, 0
9, 103360, Note_on_c, 5, 53, 60
9, 103520, Note_on_c, 5, 53, 0
9, 103520, Note_on_c, 5, 60, 60
9, 103680, Note_on_c, 5, 60, 0
9, 103680, Note_on_c, 5, 55, 60
9, 103840, Note_on_c, 5, 55, 0
9, 103840, Note_on_c, 5, 60, 60
9, 104000, Note_on_c, 5, 60, 0
9, 104000, Note_on_c, 5, 62, 60
9, 104160, Note_on_c, 5, 62, 0
9, 104160, Note_on_c, 5, 53, 60
9, 104320, Note_on_c, 5, 53, 0
9, 104320, Note_on_c, 5, 60, 60
9, 104480, Note_on_c, 5, 60, 0
9, 104480, Note_on_c, 5, 62, 60
9, 104640, Note_on_c, 5, 62, 0
9, 104640, Note_on_c, 5, 55, 60
9, 104800, Note_on_c, 5, 55, 0
9, 104800, Note_on_c, 5, 60, 60
9, 104960, Note_on_c, 5, 60, 0
9, 104960, Note_on_c, 5, 62, 60
9, 105120, Note_on_c, 5, 62, 0
9, 105120, Note_on_c, 5, 55, 60
9, 105280, Note_on_c, 5, 55, 0
9, 105280, Note_on_c, 5, 59, 60
9, 105440, Note_on_c, 5, 59, 0
9, 105440, Note_on_c, 5, 65, 60
9, 105600, Note_on_c, 5, 65, 0
9, 105600, Note_on_c, 5, 60, 60
9, 105600, Note_on_c, 5, 64, 60
9, 105984, Note_on_c, 5, 64, 0
9, 105984, Note_on_c, 5, 60, 0
9, 111360, Note_on_c, 5, 55, 60
9, 111488, Note_on_c, 5, 55, 0
9, 111520, Note_on_c, 5, 58, 60
9, 111680, Note_on_c, 5, 58, 0
9, 111680, Note_on_c, 5, 62, 60
9, 111840, Note_on_c, 5, 62, 0
9, 111840, Note_on_c, 5, 55, 60
9, 112000, Note_on_c, 5, 55, 0
9, 112000, Note_on_c, 5, 58, 60
9, 112160, Note_on_c, 5, 58, 0
9, 112160, Note_on_c, 5, 62, 60
9, 112320, Note_on_c, 5, 62, 0
9, 112320, Note_on_c, 5, 55, 60
9, 112480, Note_on_c, 5, 55, 0
9, 112480, Note_on_c, 5, 58, 60
9, 112640, Note_on_c, 5, 58, 0
9, 112640, Note_on_c, 5, 62, 60
9, 112800, Note_on_c, 5, 62, 0
9, 112800, Note_on_c, 5, 55, 60
9, 112960, Note_on_c, 5, 55, 0
9, 112960, Note_on_c, 5, 58, 60
9, 113120, Note_on_c, 5, 58, 0
9, 113120, Note_on_c, 5, 62, 60
9, 113280, Note_on_c, 5, 62, 0
9, 113280, Note_on_c, 5, 55, 60
9, 113440, Note_on_c, 5, 55, 0
9, 113440, Note_on_c, 5, 58, 60
9, 113600, Note_on_c, 5, 58, 0
9, 113600, Note_on_c, 5, 61, 60
9, 113760, Note_on_c, 5, 61, 0
9, 113760, Note_on_c, 5, 55, 60
9, 113920, Note_on_c, 5, 55, 0
9, 113920, Note_on_c, 5, 58, 60
9, 114080, Note_on_c, 5, 58, 0
9, 114080, Note_on_c, 5, 61, 60
9, 114240, Note_on_c, 5, 61, 0
9, 114240, Note_on_c, 5, 55, 60
9, 114400, Note_on_c, 5, 55, 0
9, 114400, Note_on_c, 5, 58, 60
9, 114560, Note_on_c, 5, 58, 0
9, 114560, Note_on_c, 5, 61, 60
9, 114720, Note_on_c, 5, 61, 0
9, 114720, Note_on_c, 5, 55, 60
9, 114880, Note_on_c, 5, 55, 0
9, 114880, Note_on_c, 5, 58, 60
9, 115040, Note_on_c, 5, 58, 0
9, 115040, Note_on_c, 5, 62, 60
9, 115200, Note_on_c, 5, 62, 0
9, 115200, Note_on_c, 5, 55, 60
9, 115360, Note_on_c, 5, 55, 0
9, 115360, Note_on_c, 5, 57, 60
9, 115520, Note_on_c, 5, 57, 0
9, 115520, Note_on_c, 5, 64, 60
9, 115680, Note_on_c, 5, 64, 0
9, 115680, Note_on_c, 5, 55, 60
9, 115840, Note_on_c, 5, 55, 0
9, 115840, Note_on_c, 5, 57, 60
9, 116000, Note_on_c, 5, 57, 0
9, 116000, Note_on_c, 5, 64, 60
9, 116160, Note_on_c, 5, 64, 0
9, 116160, Note_on_c, 5, 57, 60
9, 116320, Note_on_c, 5, 57, 0
9, 116320, Note_on_c, 5, 64, 60
9, 116480, Note_on_c, 5, 64, 0
9, 116480, Note_on_c, 5, 69, 60
9, 116640, Note_on_c, 5, 69, 0
9, 116640, Note_on_c, 5, 57, 60
9, 116800, Note_on_c, 5, 57, 0
9, 116800, Note_on_c, 5, 64, 60
9, 116960, Note_on_c, 5, 64, 0
9, 116960, Note_on_c, 5, 69, 60
9, 117120, Note_on_c, 5, 69, 0
9, 117120, Note_on_c, 5, 69, 60
9, 117120, Note_on_c, 5, 62, 60
9, 117504, Note_on_c, 5, 62, 0
9, 117504, Note_on_c, 5, 69, 0
9, 135360, Note_on_c, 5, 59, 70
9, 136320, Note_on_c, 5, 59, 0
9, 136320, Note_on_c, 5, 60, 70
9, 136704, Note_on_c, 5, 60, 0
9, 140320, Note_on_c, 5, 60, 60
9, 140320, Note_on_c, 5, 63, 60
9, 140448, Note_on_c, 5, 63, 0
9, 140448, Note_on_c, 5, 60, 0
9, 140480, Note_on_c, 5, 63, 60
9, 140480, Note_on_c, 5, 60, 60
9, 140608, Note_on_c, 5, 60, 0
9, 140608, Note_on_c, 5, 63, 0
9, 140640, Note_on_c, 5, 63, 60
9, 140640, Note_on_c, 5, 60, 60
9, 140768, Note_on_c, 5, 60, 0
9, 140768, Note_on_c, 5, 63, 0
9, 140800, Note_on_c, 5, 63, 60
9, 140800, Note_on_c, 5, 60, 60
9, 140928, Note_on_c, 5, 60, 0
9, 140928, Note_on_c, 5, 63, 0
9, 140960, Note_on_c, 5, 63, 60
9, 140960, Note_on_c, 5, 60, 60
9, 141088, Note_on_c, 5, 60, 0
9, 141088, Note_on_c, 5, 63, 0
9, 141280, Note_on_c, 5, 60, 60
9, 141280, Note_on_c, 5, 63, 60
9, 141408, Note_on_c, 5, 63, 0
9, 141408, Note_on_c, 5, 60, 0
9, 141440, Note_on_c, 5, 60, 60
9, 141440, Note_on_c, 5, 63, 60
9, 141568, Note_on_c, 5, 63, 0
9, 141568, Note_on_c, 5, 60, 0
9, 141600, Note_on_c, 5, 60, 60
9, 141600, Note_on_c, 5, 63, 60
9, 141728, Note_on_c, 5, 63, 0
9, 141728, Note_on_c, 5, 60, 0
9, 141760, Note_on_c, 5, 63, 60
9, 141760, Note_on_c, 5, 60, 60
9, 141888, Note_on_c, 5, 60, 0
9, 141888, Note_on_c, 5, 63, 0
9, 141920, Note_on_c, 5, 60, 60
9, 141920, Note_on_c, 5, 63, 60
9, 142048, Note_on_c, 5, 63, 0
9, 142048, Note_on_c, 5, 60, 0
9, 142240, Note_on_c, 5, 60, 60
9, 142240, Note_on_c, 5, 63, 60
9, 142368, Note_on_c, 5, 63, 0
9, 142368, Note_on_c, 5, 60, 0
9, 142400, Note_on_c, 5, 63, 60
9, 142400, Note_on_c, 5, 60, 60
9, 142528, Note_on_c, 5, 60, 0
9, 142528, Note_on_c, 5, 63, 0
9, 142560, Note_on_c, 5, 60, 60
9, 142560, Note_on_c, 5, 63, 60
9, 142688, Note_on_c, 5, 63, 0
9, 142688, Note_on_c, 5, 60, 0
9, 142720, Note_on_c, 5, 60, 60
9, 142720, Note_on_c, 5, 63, 60
9, 142848, Note_on_c, 5, 63, 0
9, 142848, Note_on_c, 5, 60, 0
9, 142880, Note_on_c, 5, 63, 60
9, 142880, Note_on_c, 5, 60, 60
9, 143008, Note_on_c, 5, 60, 0
9, 143008, Note_on_c, 5, 63, 0
9, 143200, Note_on_c, 5, 63, 60
9, 143200, Note_on_c, 5, 60, 60
9, 143328, Note_on_c, 5, 60, 0
9, 143328, Note_on_c, 5, 63, 0
9, 143360, Note_on_c, 5, 60, 60
9, 143360, Note_on_c, 5, 63, 60
9, 143488, Note_on_c, 5, 63, 0
9, 143488, Note_on_c, 5, 60, 0
9, 143520, Note_on_c, 5, 60, 60
9, 143520, Note_on_c, 5, 63, 60
9, 143648, Note_on_c, 5, 63, 0
9, 143648, Note_on_c, 5, 60, 0
9, 143680, Note_on_c, 5, 63, 60
9, 143680, Note_on_c, 5, 60, 60
9, 143808, Note_on_c, 5, 60, 0
9, 143808, Note_on_c, 5, 63, 0
9, 143840, Note_on_c, 5, 60, 60
9, 143840, Note_on_c, 5, 63, 60
9, 143968, Note_on_c, 5, 63, 0
9, 143968, Note_on_c, 5, 60, 0
9, 144160, Note_on_c, 5, 63, 60
9, 144160, Note_on_c, 5, 61, 60
9, 144288, Note_on_c, 5, 61, 0
9, 144288, Note_on_c, 5, 63, 0
9, 144320, Note_on_c, 5, 63, 60
9, 144320, Note_on_c, 5, 61, 60
9, 144448, Note_on_c, 5, 61, 0
9, 144448, Note_on_c, 5, 63, 0
9, 144480, Note_on_c, 5, 61, 60
9, 144480, Note_on_c, 5, 63, 60
9, 144608, Note_on_c, 5, 63, 0
9, 144608, Note_on_c, 5, 61, 0
9, 144640, Note_on_c, 5, 61, 60
9, 144640, Note_on_c, 5, 63, 60
9, 144768, Note_on_c, 5, 63, 0
9, 144768, Note_on_c, 5, 61, 0
9, 144800, Note_on_c, 5, 61, 60
9, 144800, Note_on_c, 5, 63, 60
9, 144928, Note_on_c, 5, 63, 0
9, 144928, Note_on_c, 5, 61, 0
9, 145120, Note_on_c, 5, 63, 60
9, 145120, Note_on_c, 5, 61, 60
9, 145248, Note_on_c, 5, 61, 0
9, 145248, Note_on_c, 5, 63, 0
9, 145280, Note_on_c, 5, 63, 60
9, 145280, Note_on_c, 5, 61, 60
9, 145408, Note_on_c, 5, 61, 0
9, 145408, Note_on_c, 5, 63, 0
9, 145440, Note_on_c, 5, 61, 60
9, 145440, Note_on_c, 5, 63, 60
9, 145568, Note_on_c, 5, 63, 0
9, 145568, Note_on_c, 5, 61, 0
9, 145600, Note_on_c, 5, 63, 60
9, 145600, Note_on_c, 5, 61, 60
9, 145728, Note_on_c, 5, 61, 0
9, 145728, Note_on_c, 5, 63, 0
9, 145760, Note_on_c, 5, 61, 60
9, 145760, Note_on_c, 5, 63, 60
9, 145888, Note_on_c, 5, 63, 0
9, 145888, Note_on_c, 5, 61, 0
9, 146080, Note_on_c, 5, 55, 60
9, 146080, Note_on_c, 5, 61, 60
9, 146080, Note_on_c, 5, 58, 60
9, 146208, Note_on_c, 5, 58, 0
9, 146208, Note_on_c, 5, 61, 0
9, 146208, Note_on_c, 5, 55, 0
9, 146240, Note_on_c, 5, 55, 60
9, 146240, Note_on_c, 5, 58, 60
9, 146240, Note_on_c, 5, 61, 60
9, 146368, Note_on_c, 5, 61, 0
9, 146368, Note_on_c, 5, 58, 0
9, 146368, Note_on_c, 5, 55, 0
9, 146400, Note_on_c, 5, 61, 60
9, 146400, Note_on_c, 5, 58, 60
9, 146400, Note_on_c, 5, 55, 60
9, 146528, Note_on_c, 5, 55, 0
9, 146528, Note_on_c, 5, 58, 0
9, 146528, Note_on_c, 5, 61, 0
9, 146560, Note_on_c, 5, 58, 60
9, 146560, Note_on_c, 5, 55, 60
9, 146560, Note_on_c, 5, 61, 60
9, 146688, Note_on_c, 5, 61, 0
9, 146688, Note_on_c, 5, 55, 0
9, 146688, Note_on_c, 5, 58, 0
9, 146720, Note_on_c, 5, 61, 60
9, 146720, Note_on_c, 5, 58, 60
9, 146720, Note_on_c, 5, 55, 60
9, 146848, Note_on_c, 5, 55, 0
9, 146848, Note_on_c, 5, 58, 0
9, 146848, Note_on_c, 5, 61, 0
9, 147040, Note_on_c, 5, 55, 60
9, 147040, Note_on_c, 5, 58, 60
9, 147040, Note_on_c, 5, 61, 60
9, 147168, Note_on_c, 5, 61, 0
9, 147168, Note_on_c, 5, 58, 0
9, 147168, Note_on_c, 5, 55, 0
9, 147200, Note_on_c, 5, 61, 60
9, 147200, Note_on_c, 5, 55, 60
9, 147200, Note_on_c, 5, 58, 60
9, 147328, Note_on_c, 5, 58, 0
9, 147328, Note_on_c, 5, 55, 0
9, 147328, Note_on_c, 5, 61, 0
9, 147360, Note_on_c, 5, 58, 60
9, 147360, Note_on_c, 5, 61, 60
9, 147360, Note_on_c, 5, 55, 60
9, 147488, Note_on_c, 5, 55, 0
9, 147488, Note_on_c, 5, 61, 0
9, 147488, Note_on_c, 5, 58, 0
9, 147520, Note_on_c, 5, 55, 60
9, 147520, Note_on_c, 5, 61, 60
9, 147520, Note_on_c, 5, 58, 60
9, 147648, Note_on_c, 5, 58, 0
9, 147648, Note_on_c, 5, 61, 0
9, 147648, Note_on_c, 5, 55, 0
9, 147680, Note_on_c, 5, 61, 60
9, 147680, Note_on_c, 5, 58, 60
9, 147680, Note_on_c, 5, 55, 60
9, 147808, Note_on_c, 5, 55, 0
9, 147808, Note_on_c, 5, 58, 0
9, 147808, Note_on_c, 5, 61, 0
9, 148000, Note_on_c, 5, 58, 60
9, 148000, Note_on_c, 5, 61, 60
9, 148000, Note_on_c, 5, 55, 60
9, 148128, Note_on_c, 5, 55, 0
9, 148128, Note_on_c, 5, 61, 0
9, 148128, Note_on_c, 5, 58, 0
9, 148160, Note_on_c, 5, 58, 60
9, 148160, Note_on_c, 5, 61, 60
9, 148160, Note_on_c, 5, 55, 60
9, 148288, Note_on_c, 5, 55, 0
9, 148288, Note_on_c, 5, 61, 0
9, 148288, Note_on_c, 5, 58, 0
9, 148320, Note_on_c, 5, 58, 60
9, 148320, Note_on_c, 5, 61, 60
9, 148320, Note_on_c, 5, 55, 60
9, 148448, Note_on_c, 5, 55, 0
9, 148448, Note_on_c, 5, 61, 0
9, 148448, Note_on_c, 5, 58, 0
9, 148480, Note_on_c, 5, 55, 60
9, 148480, Note_on_c, 5, 58, 60
9, 148480, Note_on_c, 5, 61, 60
9, 148608, Note_on_c, 5, 61, 0
9, 148608, Note_on_c, 5, 58, 0
9, 148608, Note_on_c, 5, 55, 0
9, 148640, Note_on_c, 5, 55, 60
9, 148640, Note_on_c, 5, 61, 60
9, 148640, Note_on_c, 5, 58, 60
9, 148768, Note_on_c, 5, 58, 0
9, 148768, Note_on_c, 5, 61, 0
9, 148768, Note_on_c, 5, 55, 0
9, 148960, Note_on_c, 5, 61, 60
9, 148960, Note_on_c, 5, 58, 60
9, 148960, Note_on_c, 5, 55, 60
9, 149088, Note_on_c, 5, 55, 0
9, 149088, Note_on_c, 5, 58, 0
9, 149088, Note_on_c, 5, 61, 0
9, 149120, Note_on_c, 5, 55, 60
9, 149120, Note_on_c, 5, 58, 60
9, 149120, Note_on_c, 5, 61, 60
9, 149248, Note_on_c, 5, 61, 0
9, 149248, Note_on_c, 5, 58, 0
9, 149248, Note_on_c, 5, 55, 0
9, 149280, Note_on_c, 5, 58, 60
9, 149280, Note_on_c, 5, 61, 60
9, 149280, Note_on_c, 5, 55, 60
9, 149408, Note_on_c, 5, 55, 0
9, 149408, Note_on_c, 5, 61, 0
9, 149408, Note_on_c, 5, 58, 0
9, 149440, Note_on_c, 5, 55, 60
9, 149440, Note_on_c, 5, 58, 60
9, 149440, Note_on_c, 5, 61, 60
9, 149568, Note_on_c, 5, 61, 0
9, 149568, Note_on_c, 5, 58, 0
9, 149568, Note_on_c, 5, 55, 0
9, 149600, Note_on_c, 5, 58, 60
9, 149600, Note_on_c, 5, 61, 60
9, 149600, Note_on_c, 5, 55, 60
9, 149728, Note_on_c, 5, 55, 0
9, 149728, Note_on_c, 5, 61, 0
9, 149728, Note_on_c, 5, 58, 0
9, 149920, Note_on_c, 5, 63, 60
9, 149920, Note_on_c, 5, 60, 60
9, 150048, Note_on_c, 5, 60, 0
9, 150048, Note_on_c, 5, 63, 0
9, 150080, Note_on_c, 5, 63, 60
9, 150080, Note_on_c, 5, 60, 60
9, 150208, Note_on_c, 5, 60, 0
9, 150208, Note_on_c, 5, 63, 0
9, 150240, Note_on_c, 5, 60, 60
9, 150240, Note_on_c, 5, 63, 60
9, 150368, Note_on_c, 5, 63, 0
9, 150368, Note_on_c, 5, 60, 0
9, 150400, Note_on_c, 5, 63, 60
9, 150400, Note_on_c, 5, 60, 60
9, 150528, Note_on_c, 5, 60, 0
9, 150528, Note_on_c, 5, 63, 0
9, 150560, Note_on_c, 5, 63, 60
9, 150560, Note_on_c, 5, 60, 60
9, 150688, Note_on_c, 5, 60, 0
9, 150688, Note_on_c, 5, 63, 0
9, 150880, Note_on_c, 5, 63, 60
9, 150880, Note_on_c, 5, 60, 60
9, 151008, Note_on_c, 5, 60, 0
9, 151008, Note_on_c, 5, 63, 0
9, 151040, Note_on_c, 5, 63, 60
9, 151040, Note_on_c, 5, 60, 60
9, 151168, Note_on_c, 5, 60, 0
9, 151168, Note_on_c, 5, 63, 0
9, 151360, Note_on_c, 5, 63, 60
9, 151360, Note_on_c, 5, 60, 60
9, 151488, Note_on_c, 5, 60, 0
9, 151488, Note_on_c, 5, 63, 0
9, 151520, Note_on_c, 5, 63, 60
9, 151520, Note_on_c, 5, 60, 60
9, 151648, Note_on_c, 5, 60, 0
9, 151648, Note_on_c, 5, 63, 0
9, 151840, Note_on_c, 5, 63, 60
9, 151840, Note_on_c, 5, 60, 60
9, 151840, Note_on_c, 5, 57, 60
9, 151968, Note_on_c, 5, 57, 0
9, 151968, Note_on_c, 5, 60, 0
9, 151968, Note_on_c, 5, 63, 0
9, 152000, Note_on_c, 5, 57, 60
9, 152000, Note_on_c, 5, 63, 60
9, 152000, Note_on_c, 5, 60, 60
9, 152128, Note_on_c, 5, 60, 0
9, 152128, Note_on_c, 5, 63, 0
9, 152128, Note_on_c, 5, 57, 0
9, 152160, Note_on_c, 5, 60, 60
9, 152160, Note_on_c, 5, 57, 60
9, 152160, Note_on_c, 5, 63, 60
9, 152288, Note_on_c, 5, 63, 0
9, 152288, Note_on_c, 5, 57, 0
9, 152288, Note_on_c, 5, 60, 0
9, 152320, Note_on_c, 5, 63, 60
9, 152320, Note_on_c, 5, 57, 60
9, 152320, Note_on_c, 5, 60, 60
9, 152448, Note_on_c, 5, 60, 0
9, 152448, Note_on_c, 5, 57, 0
9, 152448, Note_on_c, 5, 63, 0
9, 152480, Note_on_c, 5, 63, 60
9, 152480, Note_on_c, 5, 60, 60
9, 152480, Note_on_c, 5, 57, 60
9, 152608, Note_on_c, 5, 57, 0
9, 152608, Note_on_c, 5, 60, 0
9, 152608, Note_on_c, 5, 63, 0
9, 152800, Note_on_c, 5, 60, 60
9, 152800, Note_on_c, 5, 57, 60
9, 152800, Note_on_c, 5, 63, 60
9, 152928, Note_on_c, 5, 63, 0
9, 152928, Note_on_c, 5, 57, 0
9, 152928, Note_on_c, 5, 60, 0
9, 152960, Note_on_c, 5, 60, 60
9, 152960, Note_on_c, 5, 57, 60
9, 152960, Note_on_c, 5, 63, 60
9, 153088, Note_on_c, 5, 63, 0
9, 153088, Note_on_c, 5, 57, 0
9, 153088, Note_on_c, 5, 60, 0
9, 153120, Note_on_c, 5, 63, 60
9, 153120, Note_on_c, 5, 60, 60
9, 153120, Note_on_c, 5, 57, 60
9, 153248, Note_on_c, 5, 57, 0
9, 153248, Note_on_c, 5, 60, 0
9, 153248, Note_on_c, 5, 63, 0
9, 153280, Note_on_c, 5, 57, 60
9, 153280, Note_on_c, 5, 60, 60
9, 153280, Note_on_c, 5, 63, 60
9, 153408, Note_on_c, 5, 63, 0
9, 153408, Note_on_c, 5, 60, 0
9, 153408, Note_on_c, 5, 57, 0
9, 153440, Note_on_c, 5, 63, 60
9, 153440, Note_on_c, 5, 57, 60
9, 153440, Note_on_c, 5, 60, 60
9, 153568, Note_on_c, 5, 60, 0
9, 153568, Note_on_c, 5, 57, 0
9, 153568, Note_on_c, 5, 63, 0
9, 153760, Note_on_c, 5, 65, 60
9, 153760, Note_on_c, 5, 61, 60
9, 153888, Note_on_c, 5, 61, 0
9, 153888, Note_on_c, 5, 65, 0
9, 153920, Note_on_c, 5, 65, 60
9, 153920, Note_on_c, 5, 61, 60
9, 154048, Note_on_c, 5, 61, 0
9, 154048, Note_on_c, 5, 65, 0
9, 154080, Note_on_c, 5, 61, 60
9, 154080, Note_on_c, 5, 65, 60
9, 154208, Note_on_c, 5, 65, 0
9, 154208, Note_on_c, 5, 61, 0
9, 154240, Note_on_c, 5, 65, 60
9, 154240, Note_on_c, 5, 61, 60
9, 154368, Note_on_c, 5, 61, 0
9, 154368, Note_on_c, 5, 65, 0
9, 154400, Note_on_c, 5, 61, 60
9, 154400, Note_on_c, 5, 65, 60
9, 154528, Note_on_c, 5, 65, 0
9, 154528, Note_on_c, 5, 61, 0
9, 154720, Note_on_c, 5, 65, 60
9, 154720, Note_on_c, 5, 61, 60
9, 154848, Note_on_c, 5, 61, 0
9, 154848, Note_on_c, 5, 65, 0
9, 154880, Note_on_c, 5, 61, 60
9, 154880, Note_on_c, 5, 65, 60
9, 155008, Note_on_c, 5, 65, 0
9, 155008, Note_on_c, 5, 61, 0
9, 155200, Note_on_c, 5, 65, 60
9, 155200, Note_on_c, 5, 60, 60
9, 155328, Note_on_c, 5, 60, 0
9, 155328, Note_on_c, 5, 65, 0
9, 155360, Note_on_c, 5, 60, 60
9, 155360, Note_on_c, 5, 65, 60
9, 155488, Note_on_c, 5, 65, 0
9, 155488, Note_on_c, 5, 60, 0
9, 155680, Note_on_c, 5, 62, 60
9, 155680, Note_on_c, 5, 59, 60
9, 155680, Note_on_c, 5, 65, 60
9, 155808, Note_on_c, 5, 65, 0
9, 155808, Note_on_c, 5, 59, 0
9, 155808, Note_on_c, 5, 62, 0
9, 155840, Note_on_c, 5, 65, 60
9, 155840, Note_on_c, 5, 62, 60
9, 155840, Note_on_c, 5, 59, 60
9, 155968, Note_on_c, 5, 59, 0
9, 155968, Note_on_c, 5, 62, 0
9, 155968, Note_on_c, 5, 65, 0
9, 156000, Note_on_c, 5, 59, 60
9, 156000, Note_on_c, 5, 65, 60
9, 156000, Note_on_c, 5, 62, 60
9, 156128, Note_on_c, 5, 62, 0
9, 156128, Note_on_c, 5, 65, 0
9, 156128, Note_on_c, 5, 59, 0
9, 156160, Note_on_c, 5, 65, 60
9, 156160, Note_on_c, 5, 59, 60
9, 156160, Note_on_c, 5, 62, 60
9, 156288, Note_on_c, 5, 62, 0
9, 156288, Note_on_c, 5, 59, 0
9, 156288, Note_on_c, 5, 65, 0
9, 156320, Note_on_c, 5, 59, 60
9, 156320, Note_on_c, 5, 65, 60
9, 156320, Note_on_c, 5, 62, 60
9, 156448, Note_on_c, 5, 62, 0
9, 156448, Note_on_c, 5, 65, 0
9, 156448, Note_on_c, 5, 59, 0
9, 156640, Note_on_c, 5, 65, 60
9, 156640, Note_on_c, 5, 62, 60
9, 156640, Note_on_c, 5, 59, 60
9, 156768, Note_on_c, 5, 59, 0
9, 156768, Note_on_c, 5, 62, 0
9, 156768, Note_on_c, 5, 65, 0
9, 156800, Note_on_c, 5, 65, 60
9, 156800, Note_on_c, 5, 59, 60
9, 156800, Note_on_c, 5, 62, 60
9, 156928, Note_on_c, 5, 62, 0
9, 156928, Note_on_c, 5, 59, 0
9, 156928, Note_on_c, 5, 65, 0
9, 156960, Note_on_c, 5, 62, 60
9, 156960, Note_on_c, 5, 65, 60
9, 156960, Note_on_c, 5, 59, 60
9, 157088, Note_on_c, 5, 59, 0
9, 157088, Note_on_c, 5, 65, 0
9, 157088, Note_on_c, 5, 62, 0
9, 157120, Note_on_c, 5, 59, 60
9, 157120, Note_on_c, 5, 62, 60
9, 157120, Note_on_c, 5, 65, 60
9, 157248, Note_on_c, 5, 65, 0
9, 157248, Note_on_c, 5, 62, 0
9, 157248, Note_on_c, 5, 59, 0
9, 157280, Note_on_c, 5, 65, 60
9, 157280, Note_on_c, 5, 62, 60
9, 157280, Note_on_c, 5, 59, 60
9, 157408, Note_on_c, 5, 59, 0
9, 157408, Note_on_c, 5, 62, 0
9, 157408, Note_on_c, 5, 65, 0
9, 157440, Note_on_c, 5, 64, 60
9, 157440, Note_on_c, 5, 60, 60
9, 157824, Note_on_c, 5, 60, 0
9, 157824, Note_on_c, 5, 64, 0
9, 159360, Note_on_c, 5, 48, 60
9, 159360, Note_on_c, 5, 60, 60
9, 159744, Note_on_c, 5, 60, 0
9, 159744, Note_on_c, 5, 48, 0
9, 161280, Note_on_c, 5, 48, 60
9, 161280, Note_on_c, 5, 60, 60
9, 161664, Note_on_c, 5, 60, 0
9, 161664, Note_on_c, 5, 48, 0
9, 163200, Note_on_c, 5, 48, 60
9, 163200, Note_on_c, 5, 60, 60
9, 163584, Note_on_c, 5, 60, 0
9, 163584, Note_on_c, 5, 48, 0
9, 165120, Note_on_c, 5, 48, 60
9, 165120, Note_on_c, 5, 60, 60
9, 165504, Note_on_c, 5, 60, 0
9, 165504, Note_on_c, 5, 48, 0
9, 167040, Note_on_c, 5, 48, 60
9, 167040, Note_on_c, 5, 60, 60
9, 167424, Note_on_c, 5, 60, 0
9, 167424, Note_on_c, 5, 48, 0
9, 168480, Note_on_c, 5, 46, 60
9, 168864, Note_on_c, 5, 46, 0
9, 168960, Note_on_c, 5, 45, 60
9, 169120, Note_on_c, 5, 45, 0
9, 169120, Note_on_c, 5, 48, 60
9, 169280, Note_on_c, 5, 48, 0
9, 169280, Note_on_c, 5, 53, 60
9, 169440, Note_on_c, 5, 53, 0
9, 169440, Note_on_c, 5, 41, 60
9, 169600, Note_on_c, 5, 41, 0
9, 169600, Note_on_c, 5, 45, 60
9, 169760, Note_on_c, 5, 45, 0
9, 169760, Note_on_c, 5, 53, 60
9, 169920, Note_on_c, 5, 53, 0
9, 169920, Note_on_c, 5, 46, 60
9, 170080, Note_on_c, 5, 46, 0
9, 170080, Note_on_c, 5, 50, 60
9, 170240, Note_on_c, 5, 50, 0
9, 170240, Note_on_c, 5, 53, 60
9, 170400, Note_on_c, 5, 53, 0
9, 170400, Note_on_c, 5, 43, 60
9, 170560, Note_on_c, 5, 43, 0
9, 170560, Note_on_c, 5, 50, 60
9, 170720, Note_on_c, 5, 50, 0
9, 170720, Note_on_c, 5, 53, 60
9, 170880, Note_on_c, 5, 53, 0
9, 170880, Note_on_c, 5, 48, 60
9, 171040, Note_on_c, 5, 48, 0
9, 171040, Note_on_c, 5, 53, 60
9, 171200, Note_on_c, 5, 53, 0
9, 171200, Note_on_c, 5, 55, 60
9, 171360, Note_on_c, 5, 55, 0
9, 171360, Note_on_c, 5, 46, 60
9, 171520, Note_on_c, 5, 46, 0
9, 171520, Note_on_c, 5, 53, 60
9, 171680, Note_on_c, 5, 53, 0
9, 171680, Note_on_c, 5, 55, 60
9, 171840, Note_on_c, 5, 55, 0
9, 171840, Note_on_c, 5, 48, 60
9, 172000, Note_on_c, 5, 48, 0
9, 172000, Note_on_c, 5, 53, 60
9, 172160, Note_on_c, 5, 53, 0
9, 172160, Note_on_c, 5, 55, 60
9, 172320, Note_on_c, 5, 55, 0
9, 172320, Note_on_c, 5, 48, 60
9, 172480, Note_on_c, 5, 48, 0
9, 172480, Note_on_c, 5, 52, 60
9, 172640, Note_on_c, 5, 52, 0
9, 172640, Note_on_c, 5, 55, 60
9, 172800, Note_on_c, 5, 55, 0
9, 172800, Note_on_c, 5, 49, 60
9, 172960, Note_on_c, 5, 49, 0
9, 172960, Note_on_c, 5, 52, 60
9, 173120, Note_on_c, 5, 52, 0
9, 173120, Note_on_c, 5, 55, 60
9, 173280, Note_on_c, 5, 55, 0
9, 173280, Note_on_c, 5, 50, 60
9, 173440, Note_on_c, 5, 50, 0
9, 173440, Note_on_c, 5, 53, 60
9, 173600, Note_on_c, 5, 53, 0
9, 173600, Note_on_c, 5, 57, 60
9, 173760, Note_on_c, 5, 57, 0
9, 173760, Note_on_c, 5, 48, 60
9, 173920, Note_on_c, 5, 48, 0
9, 173920, Note_on_c, 5, 53, 60
9, 174080, Note_on_c, 5, 53, 0
9, 174080, Note_on_c, 5, 57, 60
9, 174240, Note_on_c, 5, 57, 0
9, 174240, Note_on_c, 5, 46, 60
9, 174400, Note_on_c, 5, 46, 0
9, 174400, Note_on_c, 5, 53, 60
9, 174560, Note_on_c, 5, 53, 0
9, 174560, Note_on_c, 5, 55, 60
9, 174720, Note_on_c, 5, 55, 0
9, 174720, Note_on_c, 5, 45, 60
9, 174880, Note_on_c, 5, 45, 0
9, 174880, Note_on_c, 5, 48, 60
9, 175040, Note_on_c, 5, 48, 0
9, 175040, Note_on_c, 5, 53, 60
9, 175200, Note_on_c, 5, 53, 0
9, 175200, Note_on_c, 5, 41, 60
9, 175360, Note_on_c, 5, 41, 0
9, 175360, Note_on_c, 5, 45, 60
9, 175520, Note_on_c, 5, 45, 0
9, 175520, Note_on_c, 5, 53, 60
9, 175680, Note_on_c, 5, 53, 0
9, 175680, Note_on_c, 5, 46, 60
9, 175840, Note_on_c, 5, 46, 0
9, 175840, Note_on_c, 5, 50, 60
9, 176000, Note_on_c, 5, 50, 0
9, 176000, Note_on_c, 5, 53, 60
9, 176160, Note_on_c, 5, 53, 0
9, 176160, Note_on_c, 5, 43, 60
9, 176320, Note_on_c, 5, 43, 0
9, 176320, Note_on_c, 5, 50, 60
9, 176480, Note_on_c, 5, 50, 0
9, 176480, Note_on_c, 5, 53, 60
9, 176640, Note_on_c, 5, 53, 0
9, 176640, Note_on_c, 5, 48, 60
9, 176800, Note_on_c, 5, 48, 0
9, 176800, Note_on_c, 5, 53, 60
9, 176960, Note_on_c, 5, 53, 0
9, 176960, Note_on_c, 5, 55, 60
9, 177120, Note_on_c, 5, 55, 0
9, 177120, Note_on_c, 5, 47, 60
9, 177280, Note_on_c, 5, 47, 0
9, 177280, Note_on_c, 5, 53, 60
9, 177440, Note_on_c, 5, 53, 0
9, 177440, Note_on_c, 5, 55, 60
9, 177600, Note_on_c, 5, 55, 0
9, 177600, Note_on_c, 5, 48, 60
9, 177760, Note_on_c, 5, 48, 0
9, 177760, Note_on_c, 5, 53, 60
9, 177920, Note_on_c, 5, 53, 0
9, 177920, Note_on_c, 5, 55, 60
9, 178080, Note_on_c, 5, 55, 0
9, 178080, Note_on_c, 5, 48, 60
9, 178240, Note_on_c, 5, 48, 0
9, 178240, Note_on_c, 5, 52, 60
9, 178400, Note_on_c, 5, 52, 0
9, 178400, Note_on_c, 5, 58, 60
9, 178560, Note_on_c, 5, 58, 0
9, 178560, Note_on_c, 5, 57, 60
9, 178560, Note_on_c, 5, 53, 60
9, 178944, Note_on_c, 5, 53, 0
9, 178944, Note_on_c, 5, 57, 0
9, 180480, Note_on_c, 5, 57, 60
9, 180640, Note_on_c, 5, 60, 60
9, 180640, Note_on_c, 5, 63, 60
9, 180640, Note_on_c, 5, 65, 60
9, 180768, Note_on_c, 5, 65, 0
9, 180768, Note_on_c, 5, 63, 0
9, 180768, Note_on_c, 5, 60, 0
9, 180800, Note_on_c, 5, 60, 60
9, 180800, Note_on_c, 5, 63, 60
9, 180800, Note_on_c, 5, 65, 60
9, 180928, Note_on_c, 5, 65, 0
9, 180928, Note_on_c, 5, 63, 0
9, 180928, Note_on_c, 5, 60, 0
9, 180960, Note_on_c, 5, 63, 60
9, 180960, Note_on_c, 5, 60, 60
9, 180960, Note_on_c, 5, 65, 60
9, 181088, Note_on_c, 5, 65, 0
9, 181088, Note_on_c, 5, 60, 0
9, 181088, Note_on_c, 5, 63, 0
9, 181120, Note_on_c, 5, 65, 60
9, 181120, Note_on_c, 5, 63, 60
9, 181120, Note_on_c, 5, 60, 60
9, 181248, Note_on_c, 5, 60, 0
9, 181248, Note_on_c, 5, 63, 0
9, 181248, Note_on_c, 5, 65, 0
9, 181280, Note_on_c, 5, 60, 60
9, 181280, Note_on_c, 5, 65, 60
9, 181280, Note_on_c, 5, 63, 60
9, 181392, Note_on_c, 5, 57, 0
9, 181408, Note_on_c, 5, 63, 0
9, 181408, Note_on_c, 5, 65, 0
9, 181408, Note_on_c, 5, 60, 0
9, 181440, Note_on_c, 5, 57, 60
9, 181600, Note_on_c, 5, 63, 60
9, 181600, Note_on_c, 5, 60, 60
9, 181600, Note_on_c, 5, 65, 60
9, 181728, Note_on_c, 5, 65, 0
9, 181728, Note_on_c, 5, 60, 0
9, 181728, Note_on_c, 5, 63, 0
9, 181760, Note_on_c, 5, 63, 60
9, 181760, Note_on_c, 5, 65, 60
9, 181760, Note_on_c, 5, 60, 60
9, 181888, Note_on_c, 5, 60, 0
9, 181888, Note_on_c, 5, 65, 0
9, 181888, Note_on_c, 5, 63, 0
9, 181920, Note_on_c, 5, 63, 60
9, 181920, Note_on_c, 5, 60, 60
9, 181920, Note_on_c, 5, 65, 60
9, 182048, Note_on_c, 5, 65, 0
9, 182048, Note_on_c, 5, 60, 0
9, 182048, Note_on_c, 5, 63, 0
9, 182080, Note_on_c, 5, 65, 60
9, 182080, Note_on_c, 5, 63, 60
9, 182080, Note_on_c, 5, 60, 60
9, 182208, Note_on_c, 5, 60, 0
9, 182208, Note_on_c, 5, 63, 0
9, 182208, Note_on_c, 5, 65, 0
9, 182240, Note_on_c, 5, 60, 60
9, 182240, Note_on_c, 5, 63, 60
9, 182240, Note_on_c, 5, 65, 60
9, 182352, Note_on_c, 5, 57, 0
9, 182368, Note_on_c, 5, 65, 0
9, 182368, Note_on_c, 5, 63, 0
9, 182368, Note_on_c, 5, 60, 0
9, 182400, Note_on_c, 5, 58, 60
9, 182784, Note_on_c, 5, 58, 0
9, 184320, Note_on_c, 5, 59, 60
9, 184480, Note_on_c, 5, 65, 60
9, 184480, Note_on_c, 5, 62, 60
9, 184480, Note_on_c, 5, 68, 60
9, 184608, Note_on_c, 5, 68, 0
9, 184608, Note_on_c, 5, 62, 0
9, 184608, Note_on_c, 5, 65, 0
9, 184640, Note_on_c, 5, 65, 60
9, 184640, Note_on_c, 5, 62, 60
9, 184640, Note_on_c, 5, 68, 60
9, 184768, Note_on_c, 5, 68, 0
9, 184768, Note_on_c, 5, 62, 0
9, 184768, Note_on_c, 5, 65, 0
9, 184800, Note_on_c, 5, 62, 60
9, 184800, Note_on_c, 5, 68, 60
9, 184800, Note_on_c, 5, 65, 60
9, 184928, Note_on_c, 5, 65, 0
9, 184928, Note_on_c, 5, 68, 0
9, 184928, Note_on_c, 5, 62, 0
9, 184960, Note_on_c, 5, 65, 60
9, 184960, Note_on_c, 5, 62, 60
9, 184960, Note_on_c, 5, 68, 60
9, 185088, Note_on_c, 5, 68, 0
9, 185088, Note_on_c, 5, 62, 0
9, 185088, Note_on_c, 5, 65, 0
9, 185088, Note_on_c, 5, 59, 0
9, 185120, Note_on_c, 5, 65, 60
9, 185120, Note_on_c, 5, 68, 60
9, 185120, Note_on_c, 5, 62, 60
9, 185248, Note_on_c, 5, 62, 0
9, 185248, Note_on_c, 5, 68, 0
9, 185248, Note_on_c, 5, 65, 0
9, 185280, Note_on_c, 5, 59, 60
9, 185440, Note_on_c, 5, 68, 60
9, 185440, Note_on_c, 5, 62, 60
9, 185440, Note_on_c, 5, 65, 60
9, 185568, Note_on_c, 5, 65, 0
9, 185568, Note_on_c, 5, 62, 0
9, 185568, Note_on_c, 5, 68, 0
9, 185600, Note_on_c, 5, 62, 60
9, 185600, Note_on_c, 5, 68, 60
9, 185600, Note_on_c, 5, 65, 60
9, 185728, Note_on_c, 5, 65, 0
9, 185728, Note_on_c, 5, 68, 0
9, 185728, Note_on_c, 5, 62, 0
9, 185760, Note_on_c, 5, 62, 60
9, 185760, Note_on_c, 5, 65, 60
9, 185760, Note_on_c, 5, 68, 60
9, 185888, Note_on_c, 5, 68, 0
9, 185888, Note_on_c, 5, 65, 0
9, 185888, Note_on_c, 5, 62, 0
9, 185920, Note_on_c, 5, 62, 60
9, 185920, Note_on_c, 5, 68, 60
9, 185920, Note_on_c, 5, 65, 60
9, 186048, Note_on_c, 5, 65, 0
9, 186048, Note_on_c, 5, 68, 0
9, 186048, Note_on_c, 5, 62, 0
9, 186048, Note_on_c, 5, 59, 0
9, 186080, Note_on_c, 5, 62, 60
9, 186080, Note_on_c, 5, 68, 60
9, 186080, Note_on_c, 5, 65, 60
9, 186208, Note_on_c, 5, 65, 0
9, 186208, Note_on_c, 5, 68, 0
9, 186208, Note_on_c, 5, 62, 0
9, 186240, Note_on_c, 5, 60, 60
9, 186400, Note_on_c, 5, 65, 60
9, 186400, Note_on_c, 5, 69, 60
9, 186528, Note_on_c, 5, 69, 0
9, 186528, Note_on_c, 5, 65, 0
9, 186560, Note_on_c, 5, 69, 60
9, 186560, Note_on_c, 5, 65, 60
9, 186688, Note_on_c, 5, 65, 0
9, 186688, Note_on_c, 5, 69, 0
9, 186720, Note_on_c, 5, 69, 60
9, 186720, Note_on_c, 5, 65, 60
9, 186848, Note_on_c, 5, 65, 0
9, 186848, Note_on_c, 5, 69, 0
9, 186880, Note_on_c, 5, 69, 60
9, 186880, Note_on_c, 5, 65, 60
9, 187008, Note_on_c, 5, 65, 0
9, 187008, Note_on_c, 5, 69, 0
9, 187008, Note_on_c, 5, 60, 0
9, 187040, Note_on_c, 5, 65, 60
9, 187040, Note_on_c, 5, 69, 60
9, 187168, Note_on_c, 5, 69, 0
9, 187168, Note_on_c, 5, 65, 0
9, 187200, Note_on_c, 5, 60, 60
9, 187360, Note_on_c, 5, 65, 60
9, 187360, Note_on_c, 5, 69, 60
9, 187488, Note_on_c, 5, 69, 0
9, 187488, Note_on_c, 5, 65, 0
9, 187520, Note_on_c, 5, 69, 60
9, 187520, Note_on_c, 5, 65, 60
9, 187648, Note_on_c, 5, 65, 0
9, 187648, Note_on_c, 5, 69, 0
9, 187680, Note_on_c, 5, 65, 60
9, 187680, Note_on_c, 5, 69, 60
9, 187808, Note_on_c, 5, 69, 0
9, 187808, Note_on_c, 5, 65, 0
9, 187840, Note_on_c, 5, 65, 60
9, 187840, Note_on_c, 5, 69, 60
9, 187968, Note_on_c, 5, 69, 0
9, 187968, Note_on_c, 5, 65, 0
9, 187968, Note_on_c, 5, 60, 0
9, 188000, Note_on_c, 5, 69, 60
9, 188000, Note_on_c, 5, 65, 60
9, 188128, Note_on_c, 5, 65, 0
9, 188128, Note_on_c, 5, 69, 0
9, 188160, Note_on_c, 5, 60, 60
9, 188320, Note_on_c, 5, 67, 60
9, 188320, Note_on_c, 5, 70, 60
9, 188448, Note_on_c, 5, 70, 0
9, 188448, Note_on_c, 5, 67, 0
9, 188480, Note_on_c, 5, 67, 60
9, 188480, Note_on_c, 5, 70, 60
9, 188608, Note_on_c, 5, 70, 0
9, 188608, Note_on_c, 5, 67, 0
9, 188640, Note_on_c, 5, 70, 60
9, 188640, Note_on_c, 5, 67, 60
9, 188768, Note_on_c, 5, 67, 0
9, 188768, Note_on_c, 5, 70, 0
9, 188800, Note_on_c, 5, 70, 60
9, 188800, Note_on_c, 5, 67, 60
9, 188928, Note_on_c, 5, 67, 0
9, 188928, Note_on_c, 5, 70, 0
9, 188928, Note_on_c, 5, 60, 0
9, 188960, Note_on_c, 5, 70, 60
9, 188960, Note_on_c, 5, 67, 60
9, 189088, Note_on_c, 5, 67, 0
9, 189088, Note_on_c, 5, 70, 0
9, 189120, Note_on_c, 5, 60, 60
9, 189280, Note_on_c, 5, 64, 60
9, 189280, Note_on_c, 5, 70, 60
9, 189408, Note_on_c, 5, 70, 0
9, 189408, Note_on_c, 5, 64, 0
9, 189440, Note_on_c, 5, 70, 60
9, 189440, Note_on_c, 5, 64, 60
9, 189568, Note_on_c, 5, 64, 0
9, 189568, Note_on_c, 5, 70, 0
9, 189600, Note_on_c, 5, 64, 60
9, 189600, Note_on_c, 5, 70, 60
9, 189728, Note_on_c, 5, 70, 0
9, 189728, Note_on_c, 5, 64, 0
9, 189760, Note_on_c, 5, 64, 60
9, 189760, Note_on_c, 5, 70, 60
9, 189888, Note_on_c, 5, 70, 0
9, 189888, Note_on_c, 5, 64, 0
9, 189888, Note_on_c, 5, 60, 0
9, 189920, Note_on_c, 5, 64, 60
9, 189920, Note_on_c, 5, 70, 60
9, 190048, Note_on_c, 5, 70, 0
9, 190048, Note_on_c, 5, 64, 0
9, 190080, Note_on_c, 5, 69, 60
9, 190080, Note_on_c, 5, 65, 60
9, 190464, Note_on_c, 5, 65, 0
9, 190464, Note_on_c, 5, 69, 0
9, 191520, Note_on_c, 5, 69, 70
9, 191880, Note_on_c, 5, 69, 0
9, 191880, Note_on_c, 5, 65, 70
9, 192000, Note_on_c, 5, 65, 0
9, 192000, Note_on_c, 5, 72, 70
9, 192384, Note_on_c, 5, 72, 0
9, 192480, Note_on_c, 5, 72, 70
9, 192864, Note_on_c, 5, 72, 0
9, 192960, Note_on_c, 5, 72, 70
9, 193344, Note_on_c, 5, 72, 0
9, 193440, Note_on_c, 5, 72, 70
9, 193824, Note_on_c, 5, 72, 0
9, 193920, Note_on_c, 5, 72, 70
9, 194400, Note_on_c, 5, 72, 0
9, 194400, Note_on_c, 5, 77, 70
9, 194784, Note_on_c, 5, 77, 0
9, 195360, Note_on_c, 5, 69, 70
9, 195720, Note_on_c, 5, 69, 0
9, 195720, Note_on_c, 5, 65, 70
9, 195840, Note_on_c, 5, 65, 0
9, 195840, Note_on_c, 5, 72, 70
9, 196224, Note_on_c, 5, 72, 0
9, 196320, Note_on_c, 5, 72, 70
9, 196704, Note_on_c, 5, 72, 0
9, 196800, Note_on_c, 5, 72, 70
9, 197520, Note_on_c, 5, 72, 0
9, 197520, Note_on_c, 5, 70, 68
9, 197600, Note_on_c, 5, 70, 0
9, 197600, Note_on_c, 5, 69, 65
9, 197680, Note_on_c, 5, 69, 0
9, 197680, Note_on_c, 5, 67, 63
9, 197760, Note_on_c, 5, 67, 0
9, 197760, Note_on_c, 5, 65, 61
9, 198144, Note_on_c, 5, 65, 0
9, 198720, Note_on_c, 5, 65, 60
9, 198720, Note_on_c, 5, 69, 60
9, 199104, Note_on_c, 5, 69, 0
9, 199104, Note_on_c, 5, 65, 0
9, 199680, Note_on_c, 5, 69, 60
9, 199680, Note_on_c, 5, 65, 60
9, 200176, Note_on_c, 5, 65, 0
9, 200176, Note_on_c, 5, 69, 0
9, 200176, End_track
10, 0, Start_track
10, 0, Sequencer_specific, 04, 43, 00, 01, 00
10, 0, Program_c, 6, 0
10, 0, Control_c, 6, 7, 123
10, 0, Control_c, 6, 91, 100
10, 44160, Note_on_c, 6, 53, 60
10, 45100, Note_on_c, 6, 53, 0
10, 45120, Note_on_c, 6, 53, 60
10, 46060, Note_on_c, 6, 53, 0
10, 46080, Note_on_c, 6, 53, 60
10, 47020, Note_on_c, 6, 53, 0
10, 47040, Note_on_c, 6, 53, 60
10, 47980, Note_on_c, 6, 53, 0
10, 48000, Note_on_c, 6, 53, 60
10, 48940, Note_on_c, 6, 53, 0
10, 48960, Note_on_c, 6, 53, 60
10, 49900, Note_on_c, 6, 53, 0
10, 49920, Note_on_c, 6, 48, 60
10, 50860, Note_on_c, 6, 48, 0
10, 50880, Note_on_c, 6, 48, 60
10, 51820, Note_on_c, 6, 48, 0
10, 51840, Note_on_c, 6, 48, 60
10, 52780, Note_on_c, 6, 48, 0
10, 52800, Note_on_c, 6, 48, 60
10, 53740, Note_on_c, 6, 48, 0
10, 53760, Note_on_c, 6, 48, 60
10, 54700, Note_on_c, 6, 48, 0
10, 54720, Note_on_c, 6, 48, 60
10, 55660, Note_on_c, 6, 48, 0
10, 55680, Note_on_c, 6, 53, 60
10, 56620, Note_on_c, 6, 53, 0
10, 56640, Note_on_c, 6, 53, 60
10, 57580, Note_on_c, 6, 53, 0
10, 58560, Note_on_c, 6, 45, 90
10, 59266, Note_on_c, 6, 45, 0
10, 59280, Note_on_c, 6, 45, 90
10, 59516, Note_on_c, 6, 45, 0
10, 59520, Note_on_c, 6, 48, 90
10, 59760, Note_on_c, 6, 48, 0
10, 59760, Note_on_c, 6, 46, 90
10, 59996, Note_on_c, 6, 46, 0
10, 60000, Note_on_c, 6, 46, 90
10, 60384, Note_on_c, 6, 46, 0
10, 62400, Note_on_c, 6, 47, 90
10, 63106, Note_on_c, 6, 47, 0
10, 63120, Note_on_c, 6, 47, 90
10, 63356, Note_on_c, 6, 47, 0
10, 63360, Note_on_c, 6, 48, 90
10, 63744, Note_on_c, 6, 48, 0
10, 74880, Note_on_c, 6, 36, 80
10, 74880, Note_on_c, 6, 48, 80
10, 75264, Note_on_c, 6, 48, 0
10, 75264, Note_on_c, 6, 36, 0
10, 75840, Note_on_c, 6, 48, 60
10, 76224, Note_on_c, 6, 48, 0
10, 76800, Note_on_c, 6, 53, 60
10, 77184, Note_on_c, 6, 53, 0
10, 77760, Note_on_c, 6, 53, 60
10, 78144, Note_on_c, 6, 53, 0
10, 78720, Note_on_c, 6, 52, 60
10, 79104, Note_on_c, 6, 52, 0
10, 79680, Note_on_c, 6, 52, 60
10, 80064, Note_on_c, 6, 52, 0
10, 80640, Note_on_c, 6, 53, 60
10, 81024, Note_on_c, 6, 53, 0
10, 81600, Note_on_c, 6, 53, 60
10, 81984, Note_on_c, 6, 53, 0
10, 82560, Note_on_c, 6, 54, 60
10, 82944, Note_on_c, 6, 54, 0
10, 83520, Note_on_c, 6, 54, 60
10, 83904, Note_on_c, 6, 54, 0
10, 84480, Note_on_c, 6, 55, 60
10, 84864, Note_on_c, 6, 55, 0
10, 86400, Note_on_c, 6, 55, 60
10, 86400, Note_on_c, 6, 43, 60
10, 86784, Note_on_c, 6, 43, 0
10, 86784, Note_on_c, 6, 55, 0
10, 88320, Note_on_c, 6, 55, 60
10, 88320, Note_on_c, 6, 43, 60
10, 88704, Note_on_c, 6, 43, 0
10, 88704, Note_on_c, 6, 55, 0
10, 90240, Note_on_c, 6, 55, 60
10, 90240, Note_on_c, 6, 43, 60
10, 90624, Note_on_c, 6, 43, 0
10, 90624, Note_on_c, 6, 55, 0
10, 92160, Note_on_c, 6, 55, 60
10, 92160, Note_on_c, 6, 43, 60
10, 92544, Note_on_c, 6, 43, 0
10, 92544, Note_on_c, 6, 55, 0
10, 94080, Note_on_c, 6, 43, 60
10, 94080, Note_on_c, 6, 55, 60
10, 94464, Note_on_c, 6, 55, 0
10, 94464, Note_on_c, 6, 43, 0
10, 95520, Note_on_c, 6, 53, 60
10, 95904, Note_on_c, 6, 53, 0
10, 119040, Note_on_c, 6, 58, 60
10, 119424, Note_on_c, 6, 58, 0
10, 120000, Note_on_c, 6, 58, 60
10, 120384, Note_on_c, 6, 58, 0
10, 120960, Note_on_c, 6, 60, 60
10, 121344, Note_on_c, 6, 60, 0
10, 121920, Note_on_c, 6, 60, 60
10, 122304, Note_on_c, 6, 60, 0
10, 122880, Note_on_c, 6, 53, 60
10, 123264, Note_on_c, 6, 53, 0
10, 123840, Note_on_c, 6, 53, 60
10, 124224, Note_on_c, 6, 53, 0
10, 124800, Note_on_c, 6, 58, 60
10, 125184, Note_on_c, 6, 58, 0
10, 125760, Note_on_c, 6, 58, 60
10, 126144, Note_on_c, 6, 58, 0
10, 126720, Note_on_c, 6, 45, 80
10, 126720, Note_on_c, 6, 57, 80
10, 127104, Note_on_c, 6, 57, 0
10, 127104, Note_on_c, 6, 45, 0
10, 128640, Note_on_c, 6, 46, 80
10, 128640, Note_on_c, 6, 58, 80
10, 129024, Note_on_c, 6, 58, 0
10, 129024, Note_on_c, 6, 46, 0
10, 130560, Note_on_c, 6, 43, 80
10, 130560, Note_on_c, 6, 55, 80
10, 130944, Note_on_c, 6, 55, 0
10, 130944, Note_on_c, 6, 43, 0
10, 132480, Note_on_c, 6, 44, 80
10, 132480, Note_on_c, 6, 56, 80
10, 132864, Note_on_c, 6, 56, 0
10, 132864, Note_on_c, 6, 44, 0
10, 134400, Note_on_c, 6, 49, 70
10, 136320, Note_on_c, 6, 49, 0
10, 136320, Note_on_c, 6, 48, 70
10, 136704, Note_on_c, 6, 48, 0
10, 140160, Note_on_c, 6, 56, 60
10, 141100, Note_on_c, 6, 56, 0
10, 141120, Note_on_c, 6, 56, 60
10, 142060, Note_on_c, 6, 56, 0
10, 142080, Note_on_c, 6, 56, 60
10, 143020, Note_on_c, 6, 56, 0
10, 143040, Note_on_c, 6, 56, 60
10, 143980, Note_on_c, 6, 56, 0
10, 144000, Note_on_c, 6, 55, 60
10, 144940, Note_on_c, 6, 55, 0
10, 144960, Note_on_c, 6, 55, 60
10, 145900, Note_on_c, 6, 55, 0
10, 145920, Note_on_c, 6, 51, 60
10, 146860, Note_on_c, 6, 51, 0
10, 146880, Note_on_c, 6, 51, 60
10, 147820, Note_on_c, 6, 51, 0
10, 147840, Note_on_c, 6, 51, 60
10, 148780, Note_on_c, 6, 51, 0
10, 148800, Note_on_c, 6, 51, 60
10, 149184, Note_on_c, 6, 51, 0
10, 149760, Note_on_c, 6, 56, 60
10, 150700, Note_on_c, 6, 56, 0
10, 150720, Note_on_c, 6, 56, 60
10, 151190, Note_on_c, 6, 56, 0
10, 151200, Note_on_c, 6, 54, 60
10, 151670, Note_on_c, 6, 54, 0
10, 151680, Note_on_c, 6, 53, 60
10, 152620, Note_on_c, 6, 53, 0
10, 152640, Note_on_c, 6, 53, 60
10, 153580, Note_on_c, 6, 53, 0
10, 153600, Note_on_c, 6, 58, 60
10, 154540, Note_on_c, 6, 58, 0
10, 154560, Note_on_c, 6, 58, 60
10, 155030, Note_on_c, 6, 58, 0
10, 155040, Note_on_c, 6, 56, 60
10, 155510, Note_on_c, 6, 56, 0
10, 155520, Note_on_c, 6, 55, 60
10, 156460, Note_on_c, 6, 55, 0
10, 156480, Note_on_c, 6, 55, 60
10, 157420, Note_on_c, 6, 55, 0
10, 181440, Note_on_c, 6, 45, 80
10, 182124, Note_on_c, 6, 45, 0
10, 182160, Note_on_c, 6, 45, 80
10, 182388, Note_on_c, 6, 45, 0
10, 182400, Note_on_c, 6, 48, 80
10, 182640, Note_on_c, 6, 48, 0
10, 182640, Note_on_c, 6, 46, 80
10, 182832, Note_on_c, 6, 46, 0
10, 182880, Note_on_c, 6, 46, 80
10, 183264, Note_on_c, 6, 46, 0
10, 185280, Note_on_c, 6, 47, 90
10, 185964, Note_on_c, 6, 47, 0
10, 186000, Note_on_c, 6, 47, 90
10, 186228, Note_on_c, 6, 47, 0
10, 186240, Note_on_c, 6, 48, 80
10, 186624, Note_on_c, 6, 48, 0
10, 186624, End_track
11, 0, Start_track
11, 0, Sequencer_specific, 04, 43, 00, 01, 00
11, 0, Program_c, 7, 48
11, 0, Control_c, 7, 7, 114
11, 0, Control_c, 7, 10, 28
11, 0, Control_c, 7, 91, 80
11, 3840, Note_on_c, 7, 77, 70
11, 4680, Note_on_c, 7, 77, 0
11, 4680, Note_on_c, 7, 72, 70
11, 4776, Note_on_c, 7, 72, 0
11, 4800, Note_on_c, 7, 81, 70
11, 5640, Note_on_c, 7, 81, 0
11, 5640, Note_on_c, 7, 77, 70
11, 5736, Note_on_c, 7, 77, 0
11, 5760, Note_on_c, 7, 84, 70
11, 7172, Note_on_c, 7, 84, 0
11, 7200, Note_on_c, 7, 82, 70
11, 7320, Note_on_c, 7, 82, 0
11, 7320, Note_on_c, 7, 81, 70
11, 7440, Note_on_c, 7, 81, 0
11, 7440, Note_on_c, 7, 79, 70
11, 7560, Note_on_c, 7, 79, 0
11, 7560, Note_on_c, 7, 77, 70
11, 7680, Note_on_c, 7, 77, 0
11, 7680, Note_on_c, 7, 78, 70
11, 8160, Note_on_c, 7, 78, 0
11, 8160, Note_on_c, 7, 79, 60
11, 8544, Note_on_c, 7, 79, 0
11, 9600, Note_on_c, 7, 72, 70
11, 10560, Note_on_c, 7, 72, 0
11, 10560, Note_on_c, 7, 76, 70
11, 11040, Note_on_c, 7, 76, 0
11, 11040, Note_on_c, 7, 79, 70
11, 11520, Note_on_c, 7, 79, 0
11, 11520, Note_on_c, 7, 82, 70
11, 12720, Note_on_c, 7, 82, 0
11, 12720, Note_on_c, 7, 86, 70
11, 12960, Note_on_c, 7, 86, 0
11, 12960, Note_on_c, 7, 84, 70
11, 13200, Note_on_c, 7, 84, 0
11, 13200, Note_on_c, 7, 82, 70
11, 13440, Note_on_c, 7, 82, 0
11, 13440, Note_on_c, 7, 80, 70
11, 13680, Note_on_c, 7, 80, 0
11, 13680, Note_on_c, 7, 81, 60
11, 13916, Note_on_c, 7, 81, 0
11, 13920, Note_on_c, 7, 81, 60
11, 14304, Note_on_c, 7, 81, 0
11, 15360, Note_on_c, 7, 84, 100
11, 16272, Note_on_c, 7, 84, 0
11, 16320, Note_on_c, 7, 57, 80
11, 17004, Note_on_c, 7, 57, 0
11, 17040, Note_on_c, 7, 57, 80
11, 17268, Note_on_c, 7, 57, 0
11, 17280, Note_on_c, 7, 60, 80
11, 17520, Note_on_c, 7, 60, 0
11, 17520, Note_on_c, 7, 58, 80
11, 17748, Note_on_c, 7, 58, 0
11, 17760, Note_on_c, 7, 58, 80
11, 18216, Note_on_c, 7, 58, 0
11, 19200, Note_on_c, 7, 86, 100
11, 20112, Note_on_c, 7, 86, 0
11, 20160, Note_on_c, 7, 59, 80
11, 20844, Note_on_c, 7, 59, 0
11, 20880, Note_on_c, 7, 59, 80
11, 21108, Note_on_c, 7, 59, 0
11, 21120, Note_on_c, 7, 60, 80
11, 22488, Note_on_c, 7, 60, 0
11, 22560, Note_on_c, 7, 84, 70
11, 23040, Note_on_c, 7, 84, 0
11, 23040, Note_on_c, 7, 85, 70
11, 24480, Note_on_c, 7, 85, 0
11, 24480, Note_on_c, 7, 79, 70
11, 24960, Note_on_c, 7, 79, 0
11, 24960, Note_on_c, 7, 84, 70
11, 26400, Note_on_c, 7, 84, 0
11, 26400, Note_on_c, 7, 77, 70
11, 26880, Note_on_c, 7, 77, 0
11, 26880, Note_on_c, 7, 82, 70
11, 28320, Note_on_c, 7, 82, 0
11, 28320, Note_on_c, 7, 76, 70
11, 28800, Note_on_c, 7, 76, 0
11, 28800, Note_on_c, 7, 80, 70
11, 30240, Note_on_c, 7, 80, 0
11, 30240, Note_on_c, 7, 74, 70
11, 30720, Note_on_c, 7, 74, 0
11, 30720, Note_on_c, 7, 79, 70
11, 32160, Note_on_c, 7, 79, 0
11, 32160, Note_on_c, 7, 72, 70
11, 32630, Note_on_c, 7, 72, 0
11, 32640, Note_on_c, 7, 77, 70
11, 33580, Note_on_c, 7, 77, 0
11, 33600, Note_on_c, 7, 76, 80
11, 33840, Note_on_c, 7, 76, 0
11, 33840, Note_on_c, 7, 74, 80
11, 34068, Note_on_c, 7, 74, 0
11, 34080, Note_on_c, 7, 72, 80
11, 34320, Note_on_c, 7, 72, 0
11, 34320, Note_on_c, 7, 70, 80
11, 34548, Note_on_c, 7, 70, 0
11, 34560, Note_on_c, 7, 69, 80
11, 35040, Note_on_c, 7, 69, 0
11, 35040, Note_on_c, 7, 67, 80
11, 36000, Note_on_c, 7, 67, 0
11, 36000, Note_on_c, 7, 72, 80
11, 36456, Note_on_c, 7, 72, 0
11, 36480, Note_on_c, 7, 70, 80
11, 36960, Note_on_c, 7, 70, 0
11, 36960, Note_on_c, 7, 69, 70
11, 37344, Note_on_c, 7, 69, 0
11, 38400, Note_on_c, 7, 77, 80
11, 39340, Note_on_c, 7, 77, 0
11, 39360, Note_on_c, 7, 76, 80
11, 39600, Note_on_c, 7, 76, 0
11, 39600, Note_on_c, 7, 74, 80
11, 39828, Note_on_c, 7, 74, 0
11, 39840, Note_on_c, 7, 72, 80
11, 40080, Note_on_c, 7, 72, 0
11, 40080, Note_on_c, 7, 70, 80
11, 40308, Note_on_c, 7, 70, 0
11, 40320, Note_on_c, 7, 69, 80
11, 40800, Note_on_c, 7, 69, 0
11, 40800, Note_on_c, 7, 67, 80
11, 41520, Note_on_c, 7, 67, 0
11, 41520, Note_on_c, 7, 69, 80
11, 41580, Note_on_c, 7, 69, 0
11, 41580, Note_on_c, 7, 67, 80
11, 41640, Note_on_c, 7, 67, 0
11, 41640, Note_on_c, 7, 66, 80
11, 41700, Note_on_c, 7, 66, 0
11, 41700, Note_on_c, 7, 67, 80
11, 41760, Note_on_c, 7, 67, 0
11, 41760, Note_on_c, 7, 72, 80
11, 42240, Note_on_c, 7, 72, 0
11, 42240, Note_on_c, 7, 65, 60
11, 42624, Note_on_c, 7, 65, 0
11, 68160, Note_on_c, 7, 81, 70
11, 69120, Note_on_c, 7, 81, 0
11, 69120, Note_on_c, 7, 82, 70
11, 70080, Note_on_c, 7, 82, 0
11, 70080, Note_on_c, 7, 73, 70
11, 71040, Note_on_c, 7, 73, 0
11, 71040, Note_on_c, 7, 74, 70
11, 71136, Note_on_c, 7, 74, 0
11, 71200, Note_on_c, 7, 65, 60
11, 71360, Note_on_c, 7, 65, 0
11, 71360, Note_on_c, 7, 67, 60
11, 71520, Note_on_c, 7, 67, 0
11, 71520, Note_on_c, 7, 69, 60
11, 71616, Note_on_c, 7, 69, 0
11, 71680, Note_on_c, 7, 69, 60
11, 71776, Note_on_c, 7, 69, 0
11, 71840, Note_on_c, 7, 69, 60
11, 71936, Note_on_c, 7, 69, 0
11, 72160, Note_on_c, 7, 65, 60
11, 72320, Note_on_c, 7, 65, 0
11, 72320, Note_on_c, 7, 69, 60
11, 72448, Note_on_c, 7, 69, 0
11, 72640, Note_on_c, 7, 64, 60
11, 72800, Note_on_c, 7, 64, 0
11, 72800, Note_on_c, 7, 67, 60
11, 72928, Note_on_c, 7, 67, 0
11, 73120, Note_on_c, 7, 65, 60
11, 73280, Note_on_c, 7, 65, 0
11, 73280, Note_on_c, 7, 67, 60
11, 73440, Note_on_c, 7, 67, 0
11, 73440, Note_on_c, 7, 69, 60
11, 73536, Note_on_c, 7, 69, 0
11, 73600, Note_on_c, 7, 69, 60
11, 73696, Note_on_c, 7, 69, 0
11, 73760, Note_on_c, 7, 69, 60
11, 73856, Note_on_c, 7, 69, 0
11, 74080, Note_on_c, 7, 65, 60
11, 74240, Note_on_c, 7, 65, 0
11, 74240, Note_on_c, 7, 67, 60
11, 74400, Note_on_c, 7, 67, 0
11, 74400, Note_on_c, 7, 69, 60
11, 74496, Note_on_c, 7, 69, 0
11, 74560, Note_on_c, 7, 69, 60
11, 74656, Note_on_c, 7, 69, 0
11, 74720, Note_on_c, 7, 69, 60
11, 74816, Note_on_c, 7, 69, 0
11, 75040, Note_on_c, 7, 64, 90
11, 75168, Note_on_c, 7, 64, 0
11, 75200, Note_on_c, 7, 65, 90
11, 75328, Note_on_c, 7, 65, 0
11, 75360, Note_on_c, 7, 67, 90
11, 75488, Note_on_c, 7, 67, 0
11, 75520, Note_on_c, 7, 67, 80
11, 75648, Note_on_c, 7, 67, 0
11, 75680, Note_on_c, 7, 67, 80
11, 75808, Note_on_c, 7, 67, 0
11, 76000, Note_on_c, 7, 64, 60
11, 76128, Note_on_c, 7, 64, 0
11, 76160, Note_on_c, 7, 65, 60
11, 76288, Note_on_c, 7, 65, 0
11, 76320, Note_on_c, 7, 67, 60
11, 76448, Note_on_c, 7, 67, 0
11, 76480, Note_on_c, 7, 67, 60
11, 76608, Note_on_c, 7, 67, 0
11, 76640, Note_on_c, 7, 67, 60
11, 76768, Note_on_c, 7, 67, 0
11, 76960, Note_on_c, 7, 64, 60
11, 77120, Note_on_c, 7, 64, 0
11, 77120, Note_on_c, 7, 67, 60
11, 77248, Note_on_c, 7, 67, 0
11, 77280, Note_on_c, 7, 69, 60
11, 77408, Note_on_c, 7, 69, 0
11, 77440, Note_on_c, 7, 69, 60
11, 77568, Note_on_c, 7, 69, 0
11, 77600, Note_on_c, 7, 69, 60
11, 77728, Note_on_c, 7, 69, 0
11, 77760, Note_on_c, 7, 69, 60
11, 77888, Note_on_c, 7, 69, 0
11, 77920, Note_on_c, 7, 69, 60
11, 78048, Note_on_c, 7, 69, 0
11, 78080, Note_on_c, 7, 69, 60
11, 78208, Note_on_c, 7, 69, 0
11, 78240, Note_on_c, 7, 69, 60
11, 78368, Note_on_c, 7, 69, 0
11, 78400, Note_on_c, 7, 69, 60
11, 78528, Note_on_c, 7, 69, 0
11, 78560, Note_on_c, 7, 69, 60
11, 78688, Note_on_c, 7, 69, 0
11, 78720, Note_on_c, 7, 67, 60
11, 78880, Note_on_c, 7, 67, 0
11, 78880, Note_on_c, 7, 72, 60
11, 79008, Note_on_c, 7, 72, 0
11, 79040, Note_on_c, 7, 72, 60
11, 79168, Note_on_c, 7, 72, 0
11, 79200, Note_on_c, 7, 72, 60
11, 79328, Note_on_c, 7, 72, 0
11, 79360, Note_on_c, 7, 72, 60
11, 79488, Note_on_c, 7, 72, 0
11, 79520, Note_on_c, 7, 72, 60
11, 79648, Note_on_c, 7, 72, 0
11, 79680, Note_on_c, 7, 72, 60
11, 79808, Note_on_c, 7, 72, 0
11, 79840, Note_on_c, 7, 72, 60
11, 79968, Note_on_c, 7, 72, 0
11, 80000, Note_on_c, 7, 72, 60
11, 80128, Note_on_c, 7, 72, 0
11, 80160, Note_on_c, 7, 72, 60
11, 80288, Note_on_c, 7, 72, 0
11, 80320, Note_on_c, 7, 72, 60
11, 80448, Note_on_c, 7, 72, 0
11, 80480, Note_on_c, 7, 72, 60
11, 80608, Note_on_c, 7, 72, 0
11, 80640, Note_on_c, 7, 72, 60
11, 80768, Note_on_c, 7, 72, 0
11, 80800, Note_on_c, 7, 72, 60
11, 80928, Note_on_c, 7, 72, 0
11, 80960, Note_on_c, 7, 72, 60
11, 81088, Note_on_c, 7, 72, 0
11, 81120, Note_on_c, 7, 72, 60
11, 81248, Note_on_c, 7, 72, 0
11, 81280, Note_on_c, 7, 72, 60
11, 81408, Note_on_c, 7, 72, 0
11, 81440, Note_on_c, 7, 72, 60
11, 81568, Note_on_c, 7, 72, 0
11, 81600, Note_on_c, 7, 72, 60
11, 81728, Note_on_c, 7, 72, 0
11, 81760, Note_on_c, 7, 72, 60
11, 81888, Note_on_c, 7, 72, 0
11, 81920, Note_on_c, 7, 72, 60
11, 82048, Note_on_c, 7, 72, 0
11, 82080, Note_on_c, 7, 72, 60
11, 82208, Note_on_c, 7, 72, 0
11, 82240, Note_on_c, 7, 72, 60
11, 82368, Note_on_c, 7, 72, 0
11, 82400, Note_on_c, 7, 72, 60
11, 82528, Note_on_c, 7, 72, 0
11, 82560, Note_on_c, 7, 72, 60
11, 82688, Note_on_c, 7, 72, 0
11, 82720, Note_on_c, 7, 72, 60
11, 82848, Note_on_c, 7, 72, 0
11, 82880, Note_on_c, 7, 72, 60
11, 83008, Note_on_c, 7, 72, 0
11, 83040, Note_on_c, 7, 72, 60
11, 83168, Note_on_c, 7, 72, 0
11, 83200, Note_on_c, 7, 72, 60
11, 83328, Note_on_c, 7, 72, 0
11, 83360, Note_on_c, 7, 72, 60
11, 83488, Note_on_c, 7, 72, 0
11, 83520, Note_on_c, 7, 72, 60
11, 83648, Note_on_c, 7, 72, 0
11, 83680, Note_on_c, 7, 72, 60
11, 83808, Note_on_c, 7, 72, 0
11, 83840, Note_on_c, 7, 72, 60
11, 83968, Note_on_c, 7, 72, 0
11, 84000, Note_on_c, 7, 72, 60
11, 84128, Note_on_c, 7, 72, 0
11, 84160, Note_on_c, 7, 72, 60
11, 84288, Note_on_c, 7, 72, 0
11, 84320, Note_on_c, 7, 72, 60
11, 84448, Note_on_c, 7, 72, 0
11, 84480, Note_on_c, 7, 71, 53
11, 84864, Note_on_c, 7, 71, 0
11, 84960, Note_on_c, 7, 79, 54
11, 85440, Note_on_c, 7, 79, 0
11, 85440, Note_on_c, 7, 75, 56
11, 85920, Note_on_c, 7, 75, 0
11, 85920, Note_on_c, 7, 72, 58
11, 86400, Note_on_c, 7, 72, 0
11, 86400, Note_on_c, 7, 80, 60
11, 87840, Note_on_c, 7, 80, 0
11, 87840, Note_on_c, 7, 74, 60
11, 88320, Note_on_c, 7, 74, 0
11, 88320, Note_on_c, 7, 79, 60
11, 89760, Note_on_c, 7, 79, 0
11, 89760, Note_on_c, 7, 72, 60
11, 90240, Note_on_c, 7, 72, 0
11, 90240, Note_on_c, 7, 77, 60
11, 91680, Note_on_c, 7, 77, 0
11, 91680, Note_on_c, 7, 71, 60
11, 92160, Note_on_c, 7, 71, 0
11, 92160, Note_on_c, 7, 75, 60
11, 93600, Note_on_c, 7, 75, 0
11, 93600, Note_on_c, 7, 69, 60
11, 94080, Note_on_c, 7, 69, 0
11, 94080, Note_on_c, 7, 74, 60
11, 95520, Note_on_c, 7, 74, 0
11, 95520, Note_on_c, 7, 67, 60
11, 96000, Note_on_c, 7, 67, 0
11, 96000, Note_on_c, 7, 72, 70
11, 96912, Note_on_c, 7, 72, 0
11, 96960, Note_on_c, 7, 71, 70
11, 97200, Note_on_c, 7, 71, 0
11, 97200, Note_on_c, 7, 69, 70
11, 97428, Note_on_c, 7, 69, 0
11, 97440, Note_on_c, 7, 67, 70
11, 97680, Note_on_c, 7, 67, 0
11, 97680, Note_on_c, 7, 65, 70
11, 97908, Note_on_c, 7, 65, 0
11, 97920, Note_on_c, 7, 64, 70
11, 98400, Note_on_c, 7, 64, 0
11, 98400, Note_on_c, 7, 62, 70
11, 99360, Note_on_c, 7, 62, 0
11, 99360, Note_on_c, 7, 67, 70
11, 99816, Note_on_c, 7, 67, 0
11, 99840, Note_on_c, 7, 65, 70
11, 100320, Note_on_c, 7, 65, 0
11, 100320, Note_on_c, 7, 64, 70
11, 100608, Note_on_c, 7, 64, 0
11, 101760, Note_on_c, 7, 72, 70
11, 102672, Note_on_c, 7, 72, 0
11, 102720, Note_on_c, 7, 71, 70
11, 102960, Note_on_c, 7, 71, 0
11, 102960, Note_on_c, 7, 69, 70
11, 103188, Note_on_c, 7, 69, 0
11, 103200, Note_on_c, 7, 67, 70
11, 103440, Note_on_c, 7, 67, 0
11, 103440, Note_on_c, 7, 65, 70
11, 103668, Note_on_c, 7, 65, 0
11, 103680, Note_on_c, 7, 64, 70
11, 104160, Note_on_c, 7, 64, 0
11, 104160, Note_on_c, 7, 62, 70
11, 105120, Note_on_c, 7, 62, 0
11, 105120, Note_on_c, 7, 67, 70
11, 105576, Note_on_c, 7, 67, 0
11, 105600, Note_on_c, 7, 60, 60
11, 105728, Note_on_c, 7, 60, 0
11, 105760, Note_on_c, 7, 60, 60
11, 105888, Note_on_c, 7, 60, 0
11, 105920, Note_on_c, 7, 60, 60
11, 106048, Note_on_c, 7, 60, 0
11, 106080, Note_on_c, 7, 60, 60
11, 106208, Note_on_c, 7, 60, 0
11, 106240, Note_on_c, 7, 60, 60
11, 106368, Note_on_c, 7, 60, 0
11, 106400, Note_on_c, 7, 60, 60
11, 106528, Note_on_c, 7, 60, 0
11, 106560, Note_on_c, 7, 60, 60
11, 106688, Note_on_c, 7, 60, 0
11, 106720, Note_on_c, 7, 60, 60
11, 106848, Note_on_c, 7, 60, 0
11, 106880, Note_on_c, 7, 60, 60
11, 107008, Note_on_c, 7, 60, 0
11, 107040, Note_on_c, 7, 60, 60
11, 107168, Note_on_c, 7, 60, 0
11, 107200, Note_on_c, 7, 60, 60
11, 107328, Note_on_c, 7, 60, 0
11, 107360, Note_on_c, 7, 60, 60
11, 107488, Note_on_c, 7, 60, 0
11, 107520, Note_on_c, 7, 60, 60
11, 107680, Note_on_c, 7, 60, 0
11, 107680, Note_on_c, 7, 66, 60
11, 107808, Note_on_c, 7, 66, 0
11, 107840, Note_on_c, 7, 66, 60
11, 107968, Note_on_c, 7, 66, 0
11, 108000, Note_on_c, 7, 66, 60
11, 108128, Note_on_c, 7, 66, 0
11, 108160, Note_on_c, 7, 66, 60
11, 108288, Note_on_c, 7, 66, 0
11, 108320, Note_on_c, 7, 66, 60
11, 108448, Note_on_c, 7, 66, 0
11, 108480, Note_on_c, 7, 66, 60
11, 108608, Note_on_c, 7, 66, 0
11, 108640, Note_on_c, 7, 66, 60
11, 108768, Note_on_c, 7, 66, 0
11, 108800, Note_on_c, 7, 66, 60
11, 108928, Note_on_c, 7, 66, 0
11, 108960, Note_on_c, 7, 67, 60
11, 109088, Note_on_c, 7, 67, 0
11, 109120, Note_on_c, 7, 67, 60
11, 109248, Note_on_c, 7, 67, 0
11, 109280, Note_on_c, 7, 67, 60
11, 109408, Note_on_c, 7, 67, 0
11, 109440, Note_on_c, 7, 69, 60
11, 109568, Note_on_c, 7, 69, 0
11, 109600, Note_on_c, 7, 69, 60
11, 109728, Note_on_c, 7, 69, 0
11, 109760, Note_on_c, 7, 69, 60
11, 109888, Note_on_c, 7, 69, 0
11, 109920, Note_on_c, 7, 69, 60
11, 110048, Note_on_c, 7, 69, 0
11, 110080, Note_on_c, 7, 69, 60
11, 110208, Note_on_c, 7, 69, 0
11, 110240, Note_on_c, 7, 69, 60
11, 110368, Note_on_c, 7, 69, 0
11, 110400, Note_on_c, 7, 69, 60
11, 110528, Note_on_c, 7, 69, 0
11, 110560, Note_on_c, 7, 69, 60
11, 110688, Note_on_c, 7, 69, 0
11, 110720, Note_on_c, 7, 69, 60
11, 110848, Note_on_c, 7, 69, 0
11, 110880, Note_on_c, 7, 69, 60
11, 111008, Note_on_c, 7, 69, 0
11, 111040, Note_on_c, 7, 69, 60
11, 111168, Note_on_c, 7, 69, 0
11, 111200, Note_on_c, 7, 69, 60
11, 111328, Note_on_c, 7, 69, 0
11, 111360, Note_on_c, 7, 67, 60
11, 111744, Note_on_c, 7, 67, 0
11, 117120, Note_on_c, 7, 77, 105
11, 118060, Note_on_c, 7, 77, 0
11, 118080, Note_on_c, 7, 87, 105
11, 118800, Note_on_c, 7, 87, 0
11, 118800, Note_on_c, 7, 81, 105
11, 119036, Note_on_c, 7, 81, 0
11, 119040, Note_on_c, 7, 82, 105
11, 119136, Note_on_c, 7, 82, 0
11, 119200, Note_on_c, 7, 74, 60
11, 119360, Note_on_c, 7, 74, 0
11, 119360, Note_on_c, 7, 75, 60
11, 119520, Note_on_c, 7, 75, 0
11, 119520, Note_on_c, 7, 77, 60
11, 119624, Note_on_c, 7, 77, 0
11, 119680, Note_on_c, 7, 77, 60
11, 119784, Note_on_c, 7, 77, 0
11, 119840, Note_on_c, 7, 77, 60
11, 119944, Note_on_c, 7, 77, 0
11, 120160, Note_on_c, 7, 70, 60
11, 120320, Note_on_c, 7, 70, 0
11, 120320, Note_on_c, 7, 72, 60
11, 120480, Note_on_c, 7, 72, 0
11, 120480, Note_on_c, 7, 74, 60
11, 120584, Note_on_c, 7, 74, 0
11, 120640, Note_on_c, 7, 74, 60
11, 120744, Note_on_c, 7, 74, 0
11, 120800, Note_on_c, 7, 74, 60
11, 120904, Note_on_c, 7, 74, 0
11, 121120, Note_on_c, 7, 60, 60
11, 121280, Note_on_c, 7, 60, 0
11, 121280, Note_on_c, 7, 62, 60
11, 121384, Note_on_c, 7, 62, 0
11, 121440, Note_on_c, 7, 63, 60
11, 121544, Note_on_c, 7, 63, 0
11, 121600, Note_on_c, 7, 63, 60
11, 121704, Note_on_c, 7, 63, 0
11, 121760, Note_on_c, 7, 63, 60
11, 121864, Note_on_c, 7, 63, 0
11, 122080, Note_on_c, 7, 72, 60
11, 122240, Note_on_c, 7, 72, 0
11, 122240, Note_on_c, 7, 74, 60
11, 122344, Note_on_c, 7, 74, 0
11, 122400, Note_on_c, 7, 75, 60
11, 122504, Note_on_c, 7, 75, 0
11, 122560, Note_on_c, 7, 75, 60
11, 122664, Note_on_c, 7, 75, 0
11, 122720, Note_on_c, 7, 75, 60
11, 122824, Note_on_c, 7, 75, 0
11, 123040, Note_on_c, 7, 69, 60
11, 123200, Note_on_c, 7, 69, 0
11, 123200, Note_on_c, 7, 70, 60
11, 123304, Note_on_c, 7, 70, 0
11, 123360, Note_on_c, 7, 72, 60
11, 123464, Note_on_c, 7, 72, 0
11, 123520, Note_on_c, 7, 72, 60
11, 123624, Note_on_c, 7, 72, 0
11, 123680, Note_on_c, 7, 72, 60
11, 123784, Note_on_c, 7, 72, 0
11, 124000, Note_on_c, 7, 81, 60
11, 124160, Note_on_c, 7, 81, 0
11, 124160, Note_on_c, 7, 82, 60
11, 124264, Note_on_c, 7, 82, 0
11, 124320, Note_on_c, 7, 84, 60
11, 124424, Note_on_c, 7, 84, 0
11, 124480, Note_on_c, 7, 84, 60
11, 124584, Note_on_c, 7, 84, 0
11, 124640, Note_on_c, 7, 84, 60
11, 124744, Note_on_c, 7, 84, 0
11, 124960, Note_on_c, 7, 62, 60
11, 125120, Note_on_c, 7, 62, 0
11, 125120, Note_on_c, 7, 63, 60
11, 125224, Note_on_c, 7, 63, 0
11, 125280, Note_on_c, 7, 65, 60
11, 125384, Note_on_c, 7, 65, 0
11, 125440, Note_on_c, 7, 65, 60
11, 125544, Note_on_c, 7, 65, 0
11, 125600, Note_on_c, 7, 65, 60
11, 125704, Note_on_c, 7, 65, 0
11, 125920, Note_on_c, 7, 74, 60
11, 126080, Note_on_c, 7, 74, 0
11, 126080, Note_on_c, 7, 75, 60
11, 126184, Note_on_c, 7, 75, 0
11, 126240, Note_on_c, 7, 77, 60
11, 126344, Note_on_c, 7, 77, 0
11, 126400, Note_on_c, 7, 77, 60
11, 126504, Note_on_c, 7, 77, 0
11, 126560, Note_on_c, 7, 77, 60
11, 126664, Note_on_c, 7, 77, 0
11, 126720, Note_on_c, 7, 87, 90
11, 127660, Note_on_c, 7, 87, 0
11, 128640, Note_on_c, 7, 86, 90
11, 129580, Note_on_c, 7, 86, 0
11, 130560, Note_on_c, 7, 85, 90
11, 131500, Note_on_c, 7, 85, 0
11, 132480, Note_on_c, 7, 84, 90
11, 133420, Note_on_c, 7, 84, 0
11, 134400, Note_on_c, 7, 68, 60
11, 135360, Note_on_c, 7, 68, 0
11, 135360, Note_on_c, 7, 71, 60
11, 136320, Note_on_c, 7, 71, 0
11, 136320, Note_on_c, 7, 72, 60
11, 136704, Note_on_c, 7, 72, 0
11, 157920, Note_on_c, 7, 84, 52
11, 158400, Note_on_c, 7, 84, 0
11, 158400, Note_on_c, 7, 80, 56
11, 158880, Note_on_c, 7, 80, 0
11, 158880, Note_on_c, 7, 77, 61
11, 159350, Note_on_c, 7, 77, 0
11, 159360, Note_on_c, 7, 85, 70
11, 160800, Note_on_c, 7, 85, 0
11, 160800, Note_on_c, 7, 79, 70
11, 161270, Note_on_c, 7, 79, 0
11, 161280, Note_on_c, 7, 84, 70
11, 162720, Note_on_c, 7, 84, 0
11, 162720, Note_on_c, 7, 77, 70
11, 163190, Note_on_c, 7, 77, 0
11, 163200, Note_on_c, 7, 82, 70
11, 164640, Note_on_c, 7, 82, 0
11, 164640, Note_on_c, 7, 76, 70
11, 165110, Note_on_c, 7, 76, 0
11, 165120, Note_on_c, 7, 80, 70
11, 166560, Note_on_c, 7, 80, 0
11, 166560, Note_on_c, 7, 74, 70
11, 167030, Note_on_c, 7, 74, 0
11, 167040, Note_on_c, 7, 79, 70
11, 168480, Note_on_c, 7, 79, 0
11, 168480, Note_on_c, 7, 72, 70
11, 168950, Note_on_c, 7, 72, 0
11, 168960, Note_on_c, 7, 77, 70
11, 169344, Note_on_c, 7, 77, 0
11, 169344, End_track
12, 0, Start_track
12, 0, Sequencer_specific, 04, 43, 00, 01, 00
12, 0, Program_c, 8, 48
12, 0, Control_c, 8, 7, 101
12, 0, Control_c, 8, 10, 40
12, 0, Control_c, 8, 91, 80
12, 1920, Note_on_c, 8, 60, 60
12, 2024, Note_on_c, 8, 60, 0
12, 2080, Note_on_c, 8, 60, 60
12, 2184, Note_on_c, 8, 60, 0
12, 2240, Note_on_c, 8, 60, 60
12, 2344, Note_on_c, 8, 60, 0
12, 2400, Note_on_c, 8, 60, 60
12, 2504, Note_on_c, 8, 60, 0
12, 2560, Note_on_c, 8, 60, 60
12, 2664, Note_on_c, 8, 60, 0
12, 2720, Note_on_c, 8, 60, 60
12, 2824, Note_on_c, 8, 60, 0
12, 2880, Note_on_c, 8, 60, 60
12, 2984, Note_on_c, 8, 60, 0
12, 3040, Note_on_c, 8, 60, 60
12, 3144, Note_on_c, 8, 60, 0
12, 3200, Note_on_c, 8, 60, 60
12, 3304, Note_on_c, 8, 60, 0
12, 3360, Note_on_c, 8, 60, 60
12, 3464, Note_on_c, 8, 60, 0
12, 3520, Note_on_c, 8, 60, 60
12, 3624, Note_on_c, 8, 60, 0
12, 3680, Note_on_c, 8, 60, 60
12, 3784, Note_on_c, 8, 60, 0
12, 3840, Note_on_c, 8, 60, 60
12, 3944, Note_on_c, 8, 60, 0
12, 4000, Note_on_c, 8, 60, 60
12, 4104, Note_on_c, 8, 60, 0
12, 4160, Note_on_c, 8, 60, 60
12, 4264, Note_on_c, 8, 60, 0
12, 4320, Note_on_c, 8, 60, 60
12, 4424, Note_on_c, 8, 60, 0
12, 4480, Note_on_c, 8, 60, 60
12, 4584, Note_on_c, 8, 60, 0
12, 4640, Note_on_c, 8, 60, 60
12, 4744, Note_on_c, 8, 60, 0
12, 4800, Note_on_c, 8, 60, 60
12, 4904, Note_on_c, 8, 60, 0
12, 4960, Note_on_c, 8, 60, 60
12, 5064, Note_on_c, 8, 60, 0
12, 5120, Note_on_c, 8, 60, 60
12, 5224, Note_on_c, 8, 60, 0
12, 5280, Note_on_c, 8, 60, 60
12, 5384, Note_on_c, 8, 60, 0
12, 5440, Note_on_c, 8, 60, 60
12, 5544, Note_on_c, 8, 60, 0
12, 5600, Note_on_c, 8, 60, 60
12, 5704, Note_on_c, 8, 60, 0
12, 5760, Note_on_c, 8, 60, 60
12, 5864, Note_on_c, 8, 60, 0
12, 5920, Note_on_c, 8, 60, 60
12, 6024, Note_on_c, 8, 60, 0
12, 6080, Note_on_c, 8, 60, 60
12, 6184, Note_on_c, 8, 60, 0
12, 6240, Note_on_c, 8, 60, 60
12, 6344, Note_on_c, 8, 60, 0
12, 6400, Note_on_c, 8, 60, 60
12, 6504, Note_on_c, 8, 60, 0
12, 6560, Note_on_c, 8, 60, 60
12, 6664, Note_on_c, 8, 60, 0
12, 6720, Note_on_c, 8, 60, 60
12, 6824, Note_on_c, 8, 60, 0
12, 6880, Note_on_c, 8, 60, 60
12, 6984, Note_on_c, 8, 60, 0
12, 7040, Note_on_c, 8, 60, 60
12, 7144, Note_on_c, 8, 60, 0
12, 7200, Note_on_c, 8, 60, 60
12, 7304, Note_on_c, 8, 60, 0
12, 7360, Note_on_c, 8, 60, 60
12, 7464, Note_on_c, 8, 60, 0
12, 7520, Note_on_c, 8, 60, 60
12, 7624, Note_on_c, 8, 60, 0
12, 7680, Note_on_c, 8, 60, 60
12, 7784, Note_on_c, 8, 60, 0
12, 7840, Note_on_c, 8, 60, 60
12, 7944, Note_on_c, 8, 60, 0
12, 8000, Note_on_c, 8, 60, 60
12, 8104, Note_on_c, 8, 60, 0
12, 8160, Note_on_c, 8, 60, 60
12, 8264, Note_on_c, 8, 60, 0
12, 8320, Note_on_c, 8, 60, 60
12, 8424, Note_on_c, 8, 60, 0
12, 8480, Note_on_c, 8, 60, 60
12, 8584, Note_on_c, 8, 60, 0
12, 8640, Note_on_c, 8, 60, 60
12, 8744, Note_on_c, 8, 60, 0
12, 8800, Note_on_c, 8, 60, 60
12, 8904, Note_on_c, 8, 60, 0
12, 8960, Note_on_c, 8, 60, 60
12, 9064, Note_on_c, 8, 60, 0
12, 9120, Note_on_c, 8, 60, 60
12, 9224, Note_on_c, 8, 60, 0
12, 9280, Note_on_c, 8, 60, 60
12, 9384, Note_on_c, 8, 60, 0
12, 9440, Note_on_c, 8, 60, 60
12, 9544, Note_on_c, 8, 60, 0
12, 9600, Note_on_c, 8, 60, 60
12, 9704, Note_on_c, 8, 60, 0
12, 9760, Note_on_c, 8, 60, 60
12, 9864, Note_on_c, 8, 60, 0
12, 9920, Note_on_c, 8, 60, 60
12, 10024, Note_on_c, 8, 60, 0
12, 10080, Note_on_c, 8, 60, 60
12, 10184, Note_on_c, 8, 60, 0
12, 10240, Note_on_c, 8, 60, 60
12, 10344, Note_on_c, 8, 60, 0
12, 10400, Note_on_c, 8, 60, 60
12, 10504, Note_on_c, 8, 60, 0
12, 10560, Note_on_c, 8, 60, 60
12, 10664, Note_on_c, 8, 60, 0
12, 10720, Note_on_c, 8, 60, 60
12, 10824, Note_on_c, 8, 60, 0
12, 10880, Note_on_c, 8, 60, 60
12, 10984, Note_on_c, 8, 60, 0
12, 11040, Note_on_c, 8, 60, 60
12, 11144, Note_on_c, 8, 60, 0
12, 11200, Note_on_c, 8, 60, 60
12, 11304, Note_on_c, 8, 60, 0
12, 11360, Note_on_c, 8, 60, 60
12, 11464, Note_on_c, 8, 60, 0
12, 11520, Note_on_c, 8, 60, 60
12, 11624, Note_on_c, 8, 60, 0
12, 11680, Note_on_c, 8, 60, 60
12, 11784, Note_on_c, 8, 60, 0
12, 11840, Note_on_c, 8, 60, 60
12, 11944, Note_on_c, 8, 60, 0
12, 12000, Note_on_c, 8, 60, 60
12, 12104, Note_on_c, 8, 60, 0
12, 12160, Note_on_c, 8, 60, 60
12, 12264, Note_on_c, 8, 60, 0
12, 12320, Note_on_c, 8, 60, 60
12, 12424, Note_on_c, 8, 60, 0
12, 12480, Note_on_c, 8, 60, 60
12, 12584, Note_on_c, 8, 60, 0
12, 12640, Note_on_c, 8, 60, 60
12, 12744, Note_on_c, 8, 60, 0
12, 12800, Note_on_c, 8, 60, 60
12, 12904, Note_on_c, 8, 60, 0
12, 12960, Note_on_c, 8, 60, 60
12, 13064, Note_on_c, 8, 60, 0
12, 13120, Note_on_c, 8, 60, 60
12, 13224, Note_on_c, 8, 60, 0
12, 13280, Note_on_c, 8, 60, 60
12, 13384, Note_on_c, 8, 60, 0
12, 13440, Note_on_c, 8, 60, 60
12, 13544, Note_on_c, 8, 60, 0
12, 13600, Note_on_c, 8, 60, 60
12, 13704, Note_on_c, 8, 60, 0
12, 13760, Note_on_c, 8, 60, 60
12, 13864, Note_on_c, 8, 60, 0
12, 13920, Note_on_c, 8, 60, 60
12, 14024, Note_on_c, 8, 60, 0
12, 14080, Note_on_c, 8, 60, 60
12, 14184, Note_on_c, 8, 60, 0
12, 14240, Note_on_c, 8, 60, 60
12, 14344, Note_on_c, 8, 60, 0
12, 14400, Note_on_c, 8, 60, 60
12, 14504, Note_on_c, 8, 60, 0
12, 14560, Note_on_c, 8, 60, 60
12, 14664, Note_on_c, 8, 60, 0
12, 14720, Note_on_c, 8, 60, 60
12, 14824, Note_on_c, 8, 60, 0
12, 14880, Note_on_c, 8, 60, 60
12, 14984, Note_on_c, 8, 60, 0
12, 15040, Note_on_c, 8, 60, 60
12, 15144, Note_on_c, 8, 60, 0
12, 15200, Note_on_c, 8, 60, 60
12, 15304, Note_on_c, 8, 60, 0
12, 15360, Note_on_c, 8, 65, 100
12, 15488, Note_on_c, 8, 65, 0
12, 15520, Note_on_c, 8, 65, 100
12, 15648, Note_on_c, 8, 65, 0
12, 15680, Note_on_c, 8, 65, 80
12, 15808, Note_on_c, 8, 65, 0
12, 15840, Note_on_c, 8, 65, 80
12, 15968, Note_on_c, 8, 65, 0
12, 16000, Note_on_c, 8, 65, 80
12, 16128, Note_on_c, 8, 65, 0
12, 16160, Note_on_c, 8, 65, 80
12, 16288, Note_on_c, 8, 65, 0
12, 16320, Note_on_c, 8, 65, 60
12, 16448, Note_on_c, 8, 65, 0
12, 16480, Note_on_c, 8, 65, 60
12, 16608, Note_on_c, 8, 65, 0
12, 16640, Note_on_c, 8, 65, 60
12, 16768, Note_on_c, 8, 65, 0
12, 16800, Note_on_c, 8, 65, 60
12, 16928, Note_on_c, 8, 65, 0
12, 16960, Note_on_c, 8, 65, 60
12, 17088, Note_on_c, 8, 65, 0
12, 17120, Note_on_c, 8, 65, 60
12, 17248, Note_on_c, 8, 65, 0
12, 17280, Note_on_c, 8, 65, 60
12, 17408, Note_on_c, 8, 65, 0
12, 17440, Note_on_c, 8, 65, 60
12, 17568, Note_on_c, 8, 65, 0
12, 17600, Note_on_c, 8, 65, 60
12, 17728, Note_on_c, 8, 65, 0
12, 17760, Note_on_c, 8, 65, 60
12, 17888, Note_on_c, 8, 65, 0
12, 17920, Note_on_c, 8, 65, 60
12, 18048, Note_on_c, 8, 65, 0
12, 18080, Note_on_c, 8, 65, 60
12, 18208, Note_on_c, 8, 65, 0
12, 18240, Note_on_c, 8, 65, 60
12, 18368, Note_on_c, 8, 65, 0
12, 18400, Note_on_c, 8, 65, 60
12, 18528, Note_on_c, 8, 65, 0
12, 18560, Note_on_c, 8, 65, 60
12, 18688, Note_on_c, 8, 65, 0
12, 18720, Note_on_c, 8, 65, 60
12, 18848, Note_on_c, 8, 65, 0
12, 18880, Note_on_c, 8, 65, 60
12, 19008, Note_on_c, 8, 65, 0
12, 19040, Note_on_c, 8, 65, 60
12, 19168, Note_on_c, 8, 65, 0
12, 19200, Note_on_c, 8, 65, 100
12, 19328, Note_on_c, 8, 65, 0
12, 19360, Note_on_c, 8, 65, 100
12, 19488, Note_on_c, 8, 65, 0
12, 19520, Note_on_c, 8, 65, 80
12, 19648, Note_on_c, 8, 65, 0
12, 19680, Note_on_c, 8, 65, 80
12, 19808, Note_on_c, 8, 65, 0
12, 19840, Note_on_c, 8, 65, 80
12, 19968, Note_on_c, 8, 65, 0
12, 20000, Note_on_c, 8, 65, 80
12, 20128, Note_on_c, 8, 65, 0
12, 20160, Note_on_c, 8, 65, 60
12, 20288, Note_on_c, 8, 65, 0
12, 20320, Note_on_c, 8, 65, 60
12, 20448, Note_on_c, 8, 65, 0
12, 20480, Note_on_c, 8, 65, 60
12, 20608, Note_on_c, 8, 65, 0
12, 20640, Note_on_c, 8, 65, 60
12, 20768, Note_on_c, 8, 65, 0
12, 20800, Note_on_c, 8, 65, 60
12, 20928, Note_on_c, 8, 65, 0
12, 20960, Note_on_c, 8, 65, 60
12, 21088, Note_on_c, 8, 65, 0
12, 21120, Note_on_c, 8, 65, 60
12, 21248, Note_on_c, 8, 65, 0
12, 21280, Note_on_c, 8, 65, 60
12, 21408, Note_on_c, 8, 65, 0
12, 21440, Note_on_c, 8, 65, 60
12, 21568, Note_on_c, 8, 65, 0
12, 21600, Note_on_c, 8, 65, 60
12, 21728, Note_on_c, 8, 65, 0
12, 21760, Note_on_c, 8, 65, 60
12, 21888, Note_on_c, 8, 65, 0
12, 21920, Note_on_c, 8, 65, 60
12, 22048, Note_on_c, 8, 65, 0
12, 22080, Note_on_c, 8, 65, 60
12, 22208, Note_on_c, 8, 65, 0
12, 22240, Note_on_c, 8, 65, 60
12, 22368, Note_on_c, 8, 65, 0
12, 22400, Note_on_c, 8, 65, 60
12, 22528, Note_on_c, 8, 65, 0
12, 22560, Note_on_c, 8, 65, 60
12, 22688, Note_on_c, 8, 65, 0
12, 22720, Note_on_c, 8, 65, 60
12, 22848, Note_on_c, 8, 65, 0
12, 22880, Note_on_c, 8, 65, 60
12, 23008, Note_on_c, 8, 65, 0
12, 23040, Note_on_c, 8, 65, 60
12, 23168, Note_on_c, 8, 65, 0
12, 23200, Note_on_c, 8, 65, 60
12, 23328, Note_on_c, 8, 65, 0
12, 23360, Note_on_c, 8, 65, 60
12, 23488, Note_on_c, 8, 65, 0
12, 23520, Note_on_c, 8, 64, 60
12, 23648, Note_on_c, 8, 64, 0
12, 23680, Note_on_c, 8, 64, 60
12, 23808, Note_on_c, 8, 64, 0
12, 23840, Note_on_c, 8, 64, 60
12, 23968, Note_on_c, 8, 64, 0
12, 24000, Note_on_c, 8, 67, 60
12, 24128, Note_on_c, 8, 67, 0
12, 24160, Note_on_c, 8, 67, 60
12, 24288, Note_on_c, 8, 67, 0
12, 24320, Note_on_c, 8, 67, 60
12, 24448, Note_on_c, 8, 67, 0
12, 24480, Note_on_c, 8, 67, 60
12, 24608, Note_on_c, 8, 67, 0
12, 24640, Note_on_c, 8, 67, 60
12, 24768, Note_on_c, 8, 67, 0
12, 24800, Note_on_c, 8, 67, 60
12, 24928, Note_on_c, 8, 67, 0
12, 24960, Note_on_c, 8, 67, 60
12, 25088, Note_on_c, 8, 67, 0
12, 25120, Note_on_c, 8, 67, 60
12, 25248, Note_on_c, 8, 67, 0
12, 25280, Note_on_c, 8, 67, 60
12, 25408, Note_on_c, 8, 67, 0
12, 25440, Note_on_c, 8, 65, 60
12, 25568, Note_on_c, 8, 65, 0
12, 25600, Note_on_c, 8, 65, 60
12, 25728, Note_on_c, 8, 65, 0
12, 25760, Note_on_c, 8, 65, 60
12, 25888, Note_on_c, 8, 65, 0
12, 25920, Note_on_c, 8, 68, 60
12, 26048, Note_on_c, 8, 68, 0
12, 26080, Note_on_c, 8, 68, 60
12, 26208, Note_on_c, 8, 68, 0
12, 26240, Note_on_c, 8, 68, 60
12, 26368, Note_on_c, 8, 68, 0
12, 26400, Note_on_c, 8, 68, 60
12, 26528, Note_on_c, 8, 68, 0
12, 26560, Note_on_c, 8, 68, 60
12, 26688, Note_on_c, 8, 68, 0
12, 26720, Note_on_c, 8, 68, 60
12, 26848, Note_on_c, 8, 68, 0
12, 26880, Note_on_c, 8, 68, 60
12, 27008, Note_on_c, 8, 68, 0
12, 27040, Note_on_c, 8, 68, 60
12, 27168, Note_on_c, 8, 68, 0
12, 27200, Note_on_c, 8, 68, 60
12, 27328, Note_on_c, 8, 68, 0
12, 27360, Note_on_c, 8, 67, 60
12, 27488, Note_on_c, 8, 67, 0
12, 27520, Note_on_c, 8, 67, 60
12, 27648, Note_on_c, 8, 67, 0
12, 27680, Note_on_c, 8, 67, 60
12, 27808, Note_on_c, 8, 67, 0
12, 27840, Note_on_c, 8, 70, 60
12, 27968, Note_on_c, 8, 70, 0
12, 28000, Note_on_c, 8, 70, 60
12, 28128, Note_on_c, 8, 70, 0
12, 28160, Note_on_c, 8, 70, 60
12, 28288, Note_on_c, 8, 70, 0
12, 28320, Note_on_c, 8, 70, 60
12, 28448, Note_on_c, 8, 70, 0
12, 28480, Note_on_c, 8, 70, 60
12, 28608, Note_on_c, 8, 70, 0
12, 28640, Note_on_c, 8, 70, 60
12, 28768, Note_on_c, 8, 70, 0
12, 28800, Note_on_c, 8, 70, 60
12, 28928, Note_on_c, 8, 70, 0
12, 28960, Note_on_c, 8, 70, 60
12, 29088, Note_on_c, 8, 70, 0
12, 29120, Note_on_c, 8, 70, 60
12, 29248, Note_on_c, 8, 70, 0
12, 29280, Note_on_c, 8, 68, 60
12, 29408, Note_on_c, 8, 68, 0
12, 29440, Note_on_c, 8, 68, 60
12, 29568, Note_on_c, 8, 68, 0
12, 29600, Note_on_c, 8, 68, 60
12, 29728, Note_on_c, 8, 68, 0
12, 29760, Note_on_c, 8, 71, 60
12, 29888, Note_on_c, 8, 71, 0
12, 29920, Note_on_c, 8, 71, 60
12, 30048, Note_on_c, 8, 71, 0
12, 30080, Note_on_c, 8, 71, 60
12, 30208, Note_on_c, 8, 71, 0
12, 30240, Note_on_c, 8, 71, 60
12, 30368, Note_on_c, 8, 71, 0
12, 30400, Note_on_c, 8, 71, 60
12, 30528, Note_on_c, 8, 71, 0
12, 30560, Note_on_c, 8, 71, 60
12, 30688, Note_on_c, 8, 71, 0
12, 30720, Note_on_c, 8, 72, 60
12, 30848, Note_on_c, 8, 72, 0
12, 30880, Note_on_c, 8, 72, 60
12, 31008, Note_on_c, 8, 72, 0
12, 31040, Note_on_c, 8, 72, 60
12, 31168, Note_on_c, 8, 72, 0
12, 31200, Note_on_c, 8, 73, 60
12, 31328, Note_on_c, 8, 73, 0
12, 31360, Note_on_c, 8, 73, 60
12, 31488, Note_on_c, 8, 73, 0
12, 31520, Note_on_c, 8, 73, 60
12, 31648, Note_on_c, 8, 73, 0
12, 31680, Note_on_c, 8, 72, 60
12, 31808, Note_on_c, 8, 72, 0
12, 31840, Note_on_c, 8, 72, 60
12, 31968, Note_on_c, 8, 72, 0
12, 32000, Note_on_c, 8, 72, 60
12, 32128, Note_on_c, 8, 72, 0
12, 32160, Note_on_c, 8, 64, 60
12, 32288, Note_on_c, 8, 64, 0
12, 32320, Note_on_c, 8, 64, 60
12, 32448, Note_on_c, 8, 64, 0
12, 32480, Note_on_c, 8, 64, 60
12, 32608, Note_on_c, 8, 64, 0
12, 32640, Note_on_c, 8, 65, 70
12, 32768, Note_on_c, 8, 65, 0
12, 32800, Note_on_c, 8, 65, 70
12, 32928, Note_on_c, 8, 65, 0
12, 32960, Note_on_c, 8, 65, 70
12, 33088, Note_on_c, 8, 65, 0
12, 33120, Note_on_c, 8, 65, 70
12, 33248, Note_on_c, 8, 65, 0
12, 33280, Note_on_c, 8, 65, 70
12, 33408, Note_on_c, 8, 65, 0
12, 33440, Note_on_c, 8, 65, 70
12, 33568, Note_on_c, 8, 65, 0
12, 33600, Note_on_c, 8, 65, 70
12, 33728, Note_on_c, 8, 65, 0
12, 33760, Note_on_c, 8, 65, 70
12, 33888, Note_on_c, 8, 65, 0
12, 33920, Note_on_c, 8, 65, 70
12, 34048, Note_on_c, 8, 65, 0
12, 34080, Note_on_c, 8, 65, 70
12, 34208, Note_on_c, 8, 65, 0
12, 34240, Note_on_c, 8, 65, 70
12, 34368, Note_on_c, 8, 65, 0
12, 34400, Note_on_c, 8, 65, 70
12, 34528, Note_on_c, 8, 65, 0
12, 34560, Note_on_c, 8, 65, 70
12, 34688, Note_on_c, 8, 65, 0
12, 34720, Note_on_c, 8, 65, 70
12, 34848, Note_on_c, 8, 65, 0
12, 34880, Note_on_c, 8, 65, 70
12, 35008, Note_on_c, 8, 65, 0
12, 35040, Note_on_c, 8, 65, 70
12, 35168, Note_on_c, 8, 65, 0
12, 35200, Note_on_c, 8, 65, 70
12, 35328, Note_on_c, 8, 65, 0
12, 35360, Note_on_c, 8, 65, 70
12, 35488, Note_on_c, 8, 65, 0
12, 35520, Note_on_c, 8, 65, 70
12, 35648, Note_on_c, 8, 65, 0
12, 35680, Note_on_c, 8, 65, 70
12, 35808, Note_on_c, 8, 65, 0
12, 35840, Note_on_c, 8, 65, 70
12, 35968, Note_on_c, 8, 65, 0
12, 36000, Note_on_c, 8, 64, 70
12, 36128, Note_on_c, 8, 64, 0
12, 36160, Note_on_c, 8, 64, 70
12, 36288, Note_on_c, 8, 64, 0
12, 36320, Note_on_c, 8, 64, 70
12, 36448, Note_on_c, 8, 64, 0
12, 36480, Note_on_c, 8, 64, 70
12, 36608, Note_on_c, 8, 64, 0
12, 36640, Note_on_c, 8, 64, 70
12, 36768, Note_on_c, 8, 64, 0
12, 36800, Note_on_c, 8, 64, 70
12, 36928, Note_on_c, 8, 64, 0
12, 36960, Note_on_c, 8, 65, 70
12, 37088, Note_on_c, 8, 65, 0
12, 37120, Note_on_c, 8, 65, 70
12, 37248, Note_on_c, 8, 65, 0
12, 37280, Note_on_c, 8, 65, 70
12, 37408, Note_on_c, 8, 65, 0
12, 37440, Note_on_c, 8, 65, 70
12, 37568, Note_on_c, 8, 65, 0
12, 37600, Note_on_c, 8, 65, 70
12, 37728, Note_on_c, 8, 65, 0
12, 37760, Note_on_c, 8, 65, 70
12, 37888, Note_on_c, 8, 65, 0
12, 37920, Note_on_c, 8, 67, 70
12, 38048, Note_on_c, 8, 67, 0
12, 38080, Note_on_c, 8, 67, 70
12, 38208, Note_on_c, 8, 67, 0
12, 38240, Note_on_c, 8, 67, 70
12, 38368, Note_on_c, 8, 67, 0
12, 38400, Note_on_c, 8, 65, 70
12, 38528, Note_on_c, 8, 65, 0
12, 38560, Note_on_c, 8, 65, 70
12, 38688, Note_on_c, 8, 65, 0
12, 38720, Note_on_c, 8, 65, 70
12, 38848, Note_on_c, 8, 65, 0
12, 38880, Note_on_c, 8, 65, 70
12, 39008, Note_on_c, 8, 65, 0
12, 39040, Note_on_c, 8, 65, 70
12, 39168, Note_on_c, 8, 65, 0
12, 39200, Note_on_c, 8, 65, 70
12, 39328, Note_on_c, 8, 65, 0
12, 39360, Note_on_c, 8, 65, 70
12, 39488, Note_on_c, 8, 65, 0
12, 39520, Note_on_c, 8, 65, 70
12, 39648, Note_on_c, 8, 65, 0
12, 39680, Note_on_c, 8, 65, 70
12, 39808, Note_on_c, 8, 65, 0
12, 39840, Note_on_c, 8, 65, 70
12, 39968, Note_on_c, 8, 65, 0
12, 40000, Note_on_c, 8, 65, 70
12, 40128, Note_on_c, 8, 65, 0
12, 40160, Note_on_c, 8, 65, 70
12, 40288, Note_on_c, 8, 65, 0
12, 40320, Note_on_c, 8, 65, 70
12, 40448, Note_on_c, 8, 65, 0
12, 40480, Note_on_c, 8, 65, 70
12, 40608, Note_on_c, 8, 65, 0
12, 40640, Note_on_c, 8, 65, 70
12, 40768, Note_on_c, 8, 65, 0
12, 40800, Note_on_c, 8, 65, 70
12, 40928, Note_on_c, 8, 65, 0
12, 40960, Note_on_c, 8, 65, 70
12, 41088, Note_on_c, 8, 65, 0
12, 41120, Note_on_c, 8, 65, 70
12, 41248, Note_on_c, 8, 65, 0
12, 41280, Note_on_c, 8, 65, 70
12, 41408, Note_on_c, 8, 65, 0
12, 41440, Note_on_c, 8, 65, 70
12, 41568, Note_on_c, 8, 65, 0
12, 41600, Note_on_c, 8, 65, 70
12, 41728, Note_on_c, 8, 65, 0
12, 41760, Note_on_c, 8, 64, 70
12, 41888, Note_on_c, 8, 64, 0
12, 41920, Note_on_c, 8, 64, 70
12, 42048, Note_on_c, 8, 64, 0
12, 42080, Note_on_c, 8, 64, 70
12, 42208, Note_on_c, 8, 64, 0
12, 42240, Note_on_c, 8, 65, 60
12, 42624, Note_on_c, 8, 65, 0
12, 71200, Note_on_c, 8, 62, 60
12, 71360, Note_on_c, 8, 62, 0
12, 71360, Note_on_c, 8, 64, 60
12, 71520, Note_on_c, 8, 64, 0
12, 71520, Note_on_c, 8, 65, 60
12, 71616, Note_on_c, 8, 65, 0
12, 71680, Note_on_c, 8, 65, 60
12, 71776, Note_on_c, 8, 65, 0
12, 71840, Note_on_c, 8, 65, 60
12, 71936, Note_on_c, 8, 65, 0
12, 72160, Note_on_c, 8, 62, 60
12, 72320, Note_on_c, 8, 62, 0
12, 72320, Note_on_c, 8, 65, 60
12, 72448, Note_on_c, 8, 65, 0
12, 72640, Note_on_c, 8, 61, 60
12, 72800, Note_on_c, 8, 61, 0
12, 72800, Note_on_c, 8, 64, 60
12, 72928, Note_on_c, 8, 64, 0
12, 73120, Note_on_c, 8, 62, 60
12, 73280, Note_on_c, 8, 62, 0
12, 73280, Note_on_c, 8, 64, 60
12, 73440, Note_on_c, 8, 64, 0
12, 73440, Note_on_c, 8, 65, 60
12, 73536, Note_on_c, 8, 65, 0
12, 73600, Note_on_c, 8, 65, 60
12, 73696, Note_on_c, 8, 65, 0
12, 73760, Note_on_c, 8, 65, 60
12, 73856, Note_on_c, 8, 65, 0
12, 74080, Note_on_c, 8, 62, 60
12, 74240, Note_on_c, 8, 62, 0
12, 74240, Note_on_c, 8, 64, 60
12, 74400, Note_on_c, 8, 64, 0
12, 74400, Note_on_c, 8, 65, 60
12, 74496, Note_on_c, 8, 65, 0
12, 74560, Note_on_c, 8, 65, 60
12, 74656, Note_on_c, 8, 65, 0
12, 74720, Note_on_c, 8, 65, 60
12, 74816, Note_on_c, 8, 65, 0
12, 75040, Note_on_c, 8, 55, 90
12, 75168, Note_on_c, 8, 55, 0
12, 75200, Note_on_c, 8, 57, 90
12, 75328, Note_on_c, 8, 57, 0
12, 75360, Note_on_c, 8, 58, 90
12, 75488, Note_on_c, 8, 58, 0
12, 75520, Note_on_c, 8, 58, 90
12, 75648, Note_on_c, 8, 58, 0
12, 75680, Note_on_c, 8, 58, 80
12, 75808, Note_on_c, 8, 58, 0
12, 76000, Note_on_c, 8, 60, 60
12, 76128, Note_on_c, 8, 60, 0
12, 76160, Note_on_c, 8, 62, 60
12, 76288, Note_on_c, 8, 62, 0
12, 76320, Note_on_c, 8, 64, 60
12, 76448, Note_on_c, 8, 64, 0
12, 76480, Note_on_c, 8, 64, 60
12, 76608, Note_on_c, 8, 64, 0
12, 76640, Note_on_c, 8, 64, 60
12, 76768, Note_on_c, 8, 64, 0
12, 76960, Note_on_c, 8, 60, 60
12, 77120, Note_on_c, 8, 60, 0
12, 77120, Note_on_c, 8, 64, 60
12, 77248, Note_on_c, 8, 64, 0
12, 77280, Note_on_c, 8, 65, 60
12, 77408, Note_on_c, 8, 65, 0
12, 77440, Note_on_c, 8, 65, 60
12, 77568, Note_on_c, 8, 65, 0
12, 77600, Note_on_c, 8, 65, 60
12, 77728, Note_on_c, 8, 65, 0
12, 77760, Note_on_c, 8, 65, 60
12, 77888, Note_on_c, 8, 65, 0
12, 77920, Note_on_c, 8, 65, 60
12, 78048, Note_on_c, 8, 65, 0
12, 78080, Note_on_c, 8, 65, 60
12, 78208, Note_on_c, 8, 65, 0
12, 78240, Note_on_c, 8, 65, 60
12, 78368, Note_on_c, 8, 65, 0
12, 78400, Note_on_c, 8, 65, 60
12, 78528, Note_on_c, 8, 65, 0
12, 78560, Note_on_c, 8, 65, 60
12, 78688, Note_on_c, 8, 65, 0
12, 78720, Note_on_c, 8, 67, 60
12, 78848, Note_on_c, 8, 67, 0
12, 78880, Note_on_c, 8, 67, 60
12, 79008, Note_on_c, 8, 67, 0
12, 79040, Note_on_c, 8, 67, 60
12, 79168, Note_on_c, 8, 67, 0
12, 79200, Note_on_c, 8, 67, 60
12, 79328, Note_on_c, 8, 67, 0
12, 79360, Note_on_c, 8, 67, 60
12, 79488, Note_on_c, 8, 67, 0
12, 79520, Note_on_c, 8, 67, 60
12, 79648, Note_on_c, 8, 67, 0
12, 79680, Note_on_c, 8, 67, 60
12, 79808, Note_on_c, 8, 67, 0
12, 79840, Note_on_c, 8, 67, 60
12, 79968, Note_on_c, 8, 67, 0
12, 80000, Note_on_c, 8, 67, 60
12, 80128, Note_on_c, 8, 67, 0
12, 80160, Note_on_c, 8, 67, 60
12, 80288, Note_on_c, 8, 67, 0
12, 80320, Note_on_c, 8, 67, 60
12, 80448, Note_on_c, 8, 67, 0
12, 80480, Note_on_c, 8, 67, 60
12, 80608, Note_on_c, 8, 67, 0
12, 80640, Note_on_c, 8, 69, 60
12, 80768, Note_on_c, 8, 69, 0
12, 80800, Note_on_c, 8, 69, 60
12, 80928, Note_on_c, 8, 69, 0
12, 80960, Note_on_c, 8, 69, 60
12, 81088, Note_on_c, 8, 69, 0
12, 81120, Note_on_c, 8, 69, 60
12, 81248, Note_on_c, 8, 69, 0
12, 81280, Note_on_c, 8, 69, 60
12, 81408, Note_on_c, 8, 69, 0
12, 81440, Note_on_c, 8, 69, 60
12, 81568, Note_on_c, 8, 69, 0
12, 81600, Note_on_c, 8, 69, 60
12, 81728, Note_on_c, 8, 69, 0
12, 81760, Note_on_c, 8, 69, 60
12, 81888, Note_on_c, 8, 69, 0
12, 81920, Note_on_c, 8, 69, 60
12, 82048, Note_on_c, 8, 69, 0
12, 82080, Note_on_c, 8, 69, 60
12, 82208, Note_on_c, 8, 69, 0
12, 82240, Note_on_c, 8, 69, 60
12, 82368, Note_on_c, 8, 69, 0
12, 82400, Note_on_c, 8, 69, 60
12, 82528, Note_on_c, 8, 69, 0
12, 82560, Note_on_c, 8, 69, 60
12, 82688, Note_on_c, 8, 69, 0
12, 82720, Note_on_c, 8, 69, 60
12, 82848, Note_on_c, 8, 69, 0
12, 82880, Note_on_c, 8, 69, 60
12, 83008, Note_on_c, 8, 69, 0
12, 83040, Note_on_c, 8, 69, 60
12, 83168, Note_on_c, 8, 69, 0
12, 83200, Note_on_c, 8, 69, 60
12, 83328, Note_on_c, 8, 69, 0
12, 83360, Note_on_c, 8, 69, 60
12, 83488, Note_on_c, 8, 69, 0
12, 83520, Note_on_c, 8, 69, 60
12, 83648, Note_on_c, 8, 69, 0
12, 83680, Note_on_c, 8, 69, 60
12, 83808, Note_on_c, 8, 69, 0
12, 83840, Note_on_c, 8, 69, 60
12, 83968, Note_on_c, 8, 69, 0
12, 84000, Note_on_c, 8, 69, 60
12, 84128, Note_on_c, 8, 69, 0
12, 84160, Note_on_c, 8, 69, 60
12, 84288, Note_on_c, 8, 69, 0
12, 84320, Note_on_c, 8, 69, 60
12, 84448, Note_on_c, 8, 69, 0
12, 84480, Note_on_c, 8, 67, 60
12, 84608, Note_on_c, 8, 67, 0
12, 84640, Note_on_c, 8, 67, 60
12, 84768, Note_on_c, 8, 67, 0
12, 84800, Note_on_c, 8, 67, 60
12, 84928, Note_on_c, 8, 67, 0
12, 84960, Note_on_c, 8, 67, 60
12, 85088, Note_on_c, 8, 67, 0
12, 85120, Note_on_c, 8, 67, 60
12, 85248, Note_on_c, 8, 67, 0
12, 85280, Note_on_c, 8, 67, 60
12, 85408, Note_on_c, 8, 67, 0
12, 85440, Note_on_c, 8, 63, 60
12, 85568, Note_on_c, 8, 63, 0
12, 85600, Note_on_c, 8, 63, 60
12, 85728, Note_on_c, 8, 63, 0
12, 85760, Note_on_c, 8, 63, 60
12, 85888, Note_on_c, 8, 63, 0
12, 85920, Note_on_c, 8, 60, 60
12, 86048, Note_on_c, 8, 60, 0
12, 86080, Note_on_c, 8, 60, 60
12, 86208, Note_on_c, 8, 60, 0
12, 86240, Note_on_c, 8, 60, 60
12, 86368, Note_on_c, 8, 60, 0
12, 86400, Note_on_c, 8, 60, 60
12, 86528, Note_on_c, 8, 60, 0
12, 86560, Note_on_c, 8, 60, 60
12, 86688, Note_on_c, 8, 60, 0
12, 86720, Note_on_c, 8, 60, 60
12, 86848, Note_on_c, 8, 60, 0
12, 86880, Note_on_c, 8, 59, 60
12, 87008, Note_on_c, 8, 59, 0
12, 87040, Note_on_c, 8, 59, 60
12, 87168, Note_on_c, 8, 59, 0
12, 87200, Note_on_c, 8, 59, 60
12, 87328, Note_on_c, 8, 59, 0
12, 87360, Note_on_c, 8, 62, 60
12, 87488, Note_on_c, 8, 62, 0
12, 87520, Note_on_c, 8, 62, 60
12, 87648, Note_on_c, 8, 62, 0
12, 87680, Note_on_c, 8, 62, 60
12, 87808, Note_on_c, 8, 62, 0
12, 87840, Note_on_c, 8, 62, 60
12, 87968, Note_on_c, 8, 62, 0
12, 88000, Note_on_c, 8, 62, 60
12, 88128, Note_on_c, 8, 62, 0
12, 88160, Note_on_c, 8, 62, 60
12, 88288, Note_on_c, 8, 62, 0
12, 88320, Note_on_c, 8, 62, 60
12, 88448, Note_on_c, 8, 62, 0
12, 88480, Note_on_c, 8, 62, 60
12, 88608, Note_on_c, 8, 62, 0
12, 88640, Note_on_c, 8, 62, 60
12, 88768, Note_on_c, 8, 62, 0
12, 88800, Note_on_c, 8, 60, 60
12, 88928, Note_on_c, 8, 60, 0
12, 88960, Note_on_c, 8, 60, 60
12, 89088, Note_on_c, 8, 60, 0
12, 89120, Note_on_c, 8, 60, 60
12, 89248, Note_on_c, 8, 60, 0
12, 89280, Note_on_c, 8, 63, 60
12, 89408, Note_on_c, 8, 63, 0
12, 89440, Note_on_c, 8, 63, 60
12, 89568, Note_on_c, 8, 63, 0
12, 89600, Note_on_c, 8, 63, 60
12, 89728, Note_on_c, 8, 63, 0
12, 89760, Note_on_c, 8, 63, 60
12, 89888, Note_on_c, 8, 63, 0
12, 89920, Note_on_c, 8, 63, 60
12, 90048, Note_on_c, 8, 63, 0
12, 90080, Note_on_c, 8, 63, 60
12, 90208, Note_on_c, 8, 63, 0
12, 90240, Note_on_c, 8, 63, 60
12, 90368, Note_on_c, 8, 63, 0
12, 90400, Note_on_c, 8, 63, 60
12, 90528, Note_on_c, 8, 63, 0
12, 90560, Note_on_c, 8, 63, 60
12, 90688, Note_on_c, 8, 63, 0
12, 90720, Note_on_c, 8, 62, 60
12, 90848, Note_on_c, 8, 62, 0
12, 90880, Note_on_c, 8, 62, 60
12, 91008, Note_on_c, 8, 62, 0
12, 91040, Note_on_c, 8, 62, 60
12, 91168, Note_on_c, 8, 62, 0
12, 91200, Note_on_c, 8, 65, 60
12, 91328, Note_on_c, 8, 65, 0
12, 91360, Note_on_c, 8, 65, 60
12, 91488, Note_on_c, 8, 65, 0
12, 91520, Note_on_c, 8, 65, 60
12, 91648, Note_on_c, 8, 65, 0
12, 91680, Note_on_c, 8, 65, 60
12, 91808, Note_on_c, 8, 65, 0
12, 91840, Note_on_c, 8, 65, 60
12, 91968, Note_on_c, 8, 65, 0
12, 92000, Note_on_c, 8, 65, 60
12, 92128, Note_on_c, 8, 65, 0
12, 92160, Note_on_c, 8, 65, 60
12, 92288, Note_on_c, 8, 65, 0
12, 92320, Note_on_c, 8, 65, 60
12, 92448, Note_on_c, 8, 65, 0
12, 92480, Note_on_c, 8, 65, 60
12, 92608, Note_on_c, 8, 65, 0
12, 92640, Note_on_c, 8, 63, 60
12, 92768, Note_on_c, 8, 63, 0
12, 92800, Note_on_c, 8, 63, 60
12, 92928, Note_on_c, 8, 63, 0
12, 92960, Note_on_c, 8, 63, 60
12, 93088, Note_on_c, 8, 63, 0
12, 93120, Note_on_c, 8, 66, 60
12, 93248, Note_on_c, 8, 66, 0
12, 93280, Note_on_c, 8, 66, 60
12, 93408, Note_on_c, 8, 66, 0
12, 93440, Note_on_c, 8, 66, 60
12, 93568, Note_on_c, 8, 66, 0
12, 93600, Note_on_c, 8, 66, 60
12, 93728, Note_on_c, 8, 66, 0
12, 93760, Note_on_c, 8, 66, 60
12, 93888, Note_on_c, 8, 66, 0
12, 93920, Note_on_c, 8, 66, 60
12, 94048, Note_on_c, 8, 66, 0
12, 94080, Note_on_c, 8, 67, 60
12, 94208, Note_on_c, 8, 67, 0
12, 94240, Note_on_c, 8, 67, 60
12, 94368, Note_on_c, 8, 67, 0
12, 94400, Note_on_c, 8, 67, 60
12, 94528, Note_on_c, 8, 67, 0
12, 94560, Note_on_c, 8, 68, 60
12, 94688, Note_on_c, 8, 68, 0
12, 94720, Note_on_c, 8, 68, 60
12, 94848, Note_on_c, 8, 68, 0
12, 94880, Note_on_c, 8, 68, 60
12, 95008, Note_on_c, 8, 68, 0
12, 95040, Note_on_c, 8, 67, 60
12, 95168, Note_on_c, 8, 67, 0
12, 95200, Note_on_c, 8, 67, 60
12, 95328, Note_on_c, 8, 67, 0
12, 95360, Note_on_c, 8, 67, 60
12, 95488, Note_on_c, 8, 67, 0
12, 95520, Note_on_c, 8, 62, 60
12, 95648, Note_on_c, 8, 62, 0
12, 95680, Note_on_c, 8, 62, 60
12, 95808, Note_on_c, 8, 62, 0
12, 95840, Note_on_c, 8, 62, 60
12, 95968, Note_on_c, 8, 62, 0
12, 96000, Note_on_c, 8, 67, 60
12, 96384, Note_on_c, 8, 67, 0
12, 105600, Note_on_c, 8, 55, 60
12, 105728, Note_on_c, 8, 55, 0
12, 105760, Note_on_c, 8, 55, 60
12, 105888, Note_on_c, 8, 55, 0
12, 105920, Note_on_c, 8, 55, 60
12, 106048, Note_on_c, 8, 55, 0
12, 106080, Note_on_c, 8, 55, 60
12, 106208, Note_on_c, 8, 55, 0
12, 106240, Note_on_c, 8, 55, 60
12, 106368, Note_on_c, 8, 55, 0
12, 106400, Note_on_c, 8, 55, 60
12, 106528, Note_on_c, 8, 55, 0
12, 106560, Note_on_c, 8, 55, 60
12, 106688, Note_on_c, 8, 55, 0
12, 106720, Note_on_c, 8, 55, 60
12, 106848, Note_on_c, 8, 55, 0
12, 106880, Note_on_c, 8, 55, 60
12, 107008, Note_on_c, 8, 55, 0
12, 107040, Note_on_c, 8, 55, 60
12, 107168, Note_on_c, 8, 55, 0
12, 107200, Note_on_c, 8, 55, 60
12, 107328, Note_on_c, 8, 55, 0
12, 107360, Note_on_c, 8, 55, 60
12, 107488, Note_on_c, 8, 55, 0
12, 107520, Note_on_c, 8, 57, 60
12, 107680, Note_on_c, 8, 57, 0
12, 107680, Note_on_c, 8, 60, 60
12, 107808, Note_on_c, 8, 60, 0
12, 107840, Note_on_c, 8, 60, 60
12, 107968, Note_on_c, 8, 60, 0
12, 108000, Note_on_c, 8, 60, 60
12, 108128, Note_on_c, 8, 60, 0
12, 108160, Note_on_c, 8, 60, 60
12, 108288, Note_on_c, 8, 60, 0
12, 108320, Note_on_c, 8, 60, 60
12, 108448, Note_on_c, 8, 60, 0
12, 108480, Note_on_c, 8, 60, 60
12, 108608, Note_on_c, 8, 60, 0
12, 108640, Note_on_c, 8, 60, 60
12, 108768, Note_on_c, 8, 60, 0
12, 108800, Note_on_c, 8, 60, 60
12, 108928, Note_on_c, 8, 60, 0
12, 108960, Note_on_c, 8, 63, 60
12, 109088, Note_on_c, 8, 63, 0
12, 109120, Note_on_c, 8, 63, 60
12, 109248, Note_on_c, 8, 63, 0
12, 109280, Note_on_c, 8, 63, 60
12, 109408, Note_on_c, 8, 63, 0
12, 109440, Note_on_c, 8, 62, 60
12, 109568, Note_on_c, 8, 62, 0
12, 109600, Note_on_c, 8, 62, 60
12, 109728, Note_on_c, 8, 62, 0
12, 109760, Note_on_c, 8, 62, 60
12, 109888, Note_on_c, 8, 62, 0
12, 109920, Note_on_c, 8, 62, 60
12, 110048, Note_on_c, 8, 62, 0
12, 110080, Note_on_c, 8, 62, 60
12, 110208, Note_on_c, 8, 62, 0
12, 110240, Note_on_c, 8, 62, 60
12, 110368, Note_on_c, 8, 62, 0
12, 110400, Note_on_c, 8, 62, 60
12, 110528, Note_on_c, 8, 62, 0
12, 110560, Note_on_c, 8, 62, 60
12, 110688, Note_on_c, 8, 62, 0
12, 110720, Note_on_c, 8, 62, 60
12, 110848, Note_on_c, 8, 62, 0
12, 110880, Note_on_c, 8, 62, 60
12, 111008, Note_on_c, 8, 62, 0
12, 111040, Note_on_c, 8, 62, 60
12, 111168, Note_on_c, 8, 62, 0
12, 111200, Note_on_c, 8, 62, 60
12, 111328, Note_on_c, 8, 62, 0
12, 111360, Note_on_c, 8, 62, 60
12, 111744, Note_on_c, 8, 62, 0
12, 117120, Note_on_c, 8, 65, 90
12, 118060, Note_on_c, 8, 65, 0
12, 118080, Note_on_c, 8, 75, 90
12, 118800, Note_on_c, 8, 75, 0
12, 118800, Note_on_c, 8, 69, 90
12, 119036, Note_on_c, 8, 69, 0
12, 119040, Note_on_c, 8, 70, 90
12, 119136, Note_on_c, 8, 70, 0
12, 119200, Note_on_c, 8, 70, 60
12, 119360, Note_on_c, 8, 70, 0
12, 119360, Note_on_c, 8, 72, 60
12, 119520, Note_on_c, 8, 72, 0
12, 119520, Note_on_c, 8, 74, 60
12, 119624, Note_on_c, 8, 74, 0
12, 119680, Note_on_c, 8, 74, 60
12, 119784, Note_on_c, 8, 74, 0
12, 119840, Note_on_c, 8, 74, 60
12, 119944, Note_on_c, 8, 74, 0
12, 120160, Note_on_c, 8, 62, 60
12, 120320, Note_on_c, 8, 62, 0
12, 120320, Note_on_c, 8, 63, 60
12, 120480, Note_on_c, 8, 63, 0
12, 120480, Note_on_c, 8, 65, 60
12, 120584, Note_on_c, 8, 65, 0
12, 120640, Note_on_c, 8, 65, 60
12, 120744, Note_on_c, 8, 65, 0
12, 120800, Note_on_c, 8, 65, 60
12, 120904, Note_on_c, 8, 65, 0
12, 121120, Note_on_c, 8, 57, 60
12, 121280, Note_on_c, 8, 57, 0
12, 121280, Note_on_c, 8, 58, 60
12, 121384, Note_on_c, 8, 58, 0
12, 121440, Note_on_c, 8, 60, 60
12, 121544, Note_on_c, 8, 60, 0
12, 121600, Note_on_c, 8, 60, 60
12, 121704, Note_on_c, 8, 60, 0
12, 121760, Note_on_c, 8, 60, 60
12, 121864, Note_on_c, 8, 60, 0
12, 122080, Note_on_c, 8, 69, 60
12, 122240, Note_on_c, 8, 69, 0
12, 122240, Note_on_c, 8, 70, 60
12, 122344, Note_on_c, 8, 70, 0
12, 122400, Note_on_c, 8, 72, 60
12, 122504, Note_on_c, 8, 72, 0
12, 122560, Note_on_c, 8, 72, 60
12, 122664, Note_on_c, 8, 72, 0
12, 122720, Note_on_c, 8, 72, 60
12, 122824, Note_on_c, 8, 72, 0
12, 123040, Note_on_c, 8, 65, 60
12, 123200, Note_on_c, 8, 65, 0
12, 123200, Note_on_c, 8, 67, 60
12, 123304, Note_on_c, 8, 67, 0
12, 123360, Note_on_c, 8, 69, 60
12, 123464, Note_on_c, 8, 69, 0
12, 123520, Note_on_c, 8, 69, 60
12, 123624, Note_on_c, 8, 69, 0
12, 123680, Note_on_c, 8, 69, 60
12, 123784, Note_on_c, 8, 69, 0
12, 124000, Note_on_c, 8, 77, 60
12, 124160, Note_on_c, 8, 77, 0
12, 124160, Note_on_c, 8, 79, 60
12, 124264, Note_on_c, 8, 79, 0
12, 124320, Note_on_c, 8, 81, 60
12, 124424, Note_on_c, 8, 81, 0
12, 124480, Note_on_c, 8, 81, 60
12, 124584, Note_on_c, 8, 81, 0
12, 124640, Note_on_c, 8, 81, 60
12, 124744, Note_on_c, 8, 81, 0
12, 124960, Note_on_c, 8, 58, 60
12, 125120, Note_on_c, 8, 58, 0
12, 125120, Note_on_c, 8, 60, 60
12, 125224, Note_on_c, 8, 60, 0
12, 125280, Note_on_c, 8, 62, 60
12, 125384, Note_on_c, 8, 62, 0
12, 125440, Note_on_c, 8, 62, 60
12, 125544, Note_on_c, 8, 62, 0
12, 125600, Note_on_c, 8, 62, 60
12, 125704, Note_on_c, 8, 62, 0
12, 125920, Note_on_c, 8, 70, 60
12, 126080, Note_on_c, 8, 70, 0
12, 126080, Note_on_c, 8, 72, 60
12, 126184, Note_on_c, 8, 72, 0
12, 126240, Note_on_c, 8, 74, 60
12, 126344, Note_on_c, 8, 74, 0
12, 126400, Note_on_c, 8, 74, 60
12, 126504, Note_on_c, 8, 74, 0
12, 126560, Note_on_c, 8, 74, 60
12, 126664, Note_on_c, 8, 74, 0
12, 126720, Note_on_c, 8, 66, 100
12, 126848, Note_on_c, 8, 66, 0
12, 126880, Note_on_c, 8, 66, 80
12, 127008, Note_on_c, 8, 66, 0
12, 127040, Note_on_c, 8, 66, 80
12, 127168, Note_on_c, 8, 66, 0
12, 127200, Note_on_c, 8, 66, 80
12, 127328, Note_on_c, 8, 66, 0
12, 127360, Note_on_c, 8, 66, 60
12, 127488, Note_on_c, 8, 66, 0
12, 127520, Note_on_c, 8, 66, 60
12, 127648, Note_on_c, 8, 66, 0
12, 127680, Note_on_c, 8, 66, 60
12, 127808, Note_on_c, 8, 66, 0
12, 127840, Note_on_c, 8, 66, 60
12, 127968, Note_on_c, 8, 66, 0
12, 128000, Note_on_c, 8, 66, 60
12, 128128, Note_on_c, 8, 66, 0
12, 128160, Note_on_c, 8, 66, 60
12, 128288, Note_on_c, 8, 66, 0
12, 128320, Note_on_c, 8, 66, 60
12, 128448, Note_on_c, 8, 66, 0
12, 128480, Note_on_c, 8, 66, 60
12, 128608, Note_on_c, 8, 66, 0
12, 128640, Note_on_c, 8, 67, 100
12, 128768, Note_on_c, 8, 67, 0
12, 128800, Note_on_c, 8, 67, 80
12, 128928, Note_on_c, 8, 67, 0
12, 128960, Note_on_c, 8, 67, 80
12, 129088, Note_on_c, 8, 67, 0
12, 129120, Note_on_c, 8, 67, 80
12, 129248, Note_on_c, 8, 67, 0
12, 129280, Note_on_c, 8, 67, 60
12, 129408, Note_on_c, 8, 67, 0
12, 129440, Note_on_c, 8, 67, 60
12, 129568, Note_on_c, 8, 67, 0
12, 129600, Note_on_c, 8, 67, 60
12, 129728, Note_on_c, 8, 67, 0
12, 129760, Note_on_c, 8, 67, 60
12, 129888, Note_on_c, 8, 67, 0
12, 129920, Note_on_c, 8, 67, 60
12, 130048, Note_on_c, 8, 67, 0
12, 130080, Note_on_c, 8, 67, 60
12, 130208, Note_on_c, 8, 67, 0
12, 130240, Note_on_c, 8, 67, 60
12, 130368, Note_on_c, 8, 67, 0
12, 130400, Note_on_c, 8, 67, 60
12, 130528, Note_on_c, 8, 67, 0
12, 130560, Note_on_c, 8, 64, 100
12, 130688, Note_on_c, 8, 64, 0
12, 130720, Note_on_c, 8, 64, 80
12, 130848, Note_on_c, 8, 64, 0
12, 130880, Note_on_c, 8, 64, 80
12, 131008, Note_on_c, 8, 64, 0
12, 131040, Note_on_c, 8, 64, 80
12, 131168, Note_on_c, 8, 64, 0
12, 131200, Note_on_c, 8, 64, 60
12, 131328, Note_on_c, 8, 64, 0
12, 131360, Note_on_c, 8, 64, 60
12, 131488, Note_on_c, 8, 64, 0
12, 131520, Note_on_c, 8, 64, 60
12, 131648, Note_on_c, 8, 64, 0
12, 131680, Note_on_c, 8, 64, 60
12, 131808, Note_on_c, 8, 64, 0
12, 131840, Note_on_c, 8, 64, 60
12, 131968, Note_on_c, 8, 64, 0
12, 132000, Note_on_c, 8, 64, 60
12, 132128, Note_on_c, 8, 64, 0
12, 132160, Note_on_c, 8, 64, 60
12, 132288, Note_on_c, 8, 64, 0
12, 132320, Note_on_c, 8, 64, 60
12, 132448, Note_on_c, 8, 64, 0
12, 132480, Note_on_c, 8, 65, 100
12, 132608, Note_on_c, 8, 65, 0
12, 132640, Note_on_c, 8, 65, 80
12, 132768, Note_on_c, 8, 65, 0
12, 132800, Note_on_c, 8, 65, 80
12, 132928, Note_on_c, 8, 65, 0
12, 132960, Note_on_c, 8, 65, 80
12, 133088, Note_on_c, 8, 65, 0
12, 133120, Note_on_c, 8, 65, 60
12, 133248, Note_on_c, 8, 65, 0
12, 133280, Note_on_c, 8, 65, 60
12, 133408, Note_on_c, 8, 65, 0
12, 133440, Note_on_c, 8, 65, 60
12, 133568, Note_on_c, 8, 65, 0
12, 133600, Note_on_c, 8, 65, 60
12, 133728, Note_on_c, 8, 65, 0
12, 133760, Note_on_c, 8, 65, 60
12, 133888, Note_on_c, 8, 65, 0
12, 133920, Note_on_c, 8, 65, 60
12, 134048, Note_on_c, 8, 65, 0
12, 134080, Note_on_c, 8, 65, 60
12, 134208, Note_on_c, 8, 65, 0
12, 134240, Note_on_c, 8, 65, 60
12, 134368, Note_on_c, 8, 65, 0
12, 134400, Note_on_c, 8, 65, 60
12, 136320, Note_on_c, 8, 65, 0
12, 136320, Note_on_c, 8, 64, 60
12, 136704, Note_on_c, 8, 64, 0
12, 157440, Note_on_c, 8, 67, 60
12, 157568, Note_on_c, 8, 67, 0
12, 157600, Note_on_c, 8, 67, 60
12, 157728, Note_on_c, 8, 67, 0
12, 157760, Note_on_c, 8, 67, 60
12, 157888, Note_on_c, 8, 67, 0
12, 157920, Note_on_c, 8, 72, 60
12, 158048, Note_on_c, 8, 72, 0
12, 158080, Note_on_c, 8, 72, 60
12, 158208, Note_on_c, 8, 72, 0
12, 158240, Note_on_c, 8, 72, 60
12, 158368, Note_on_c, 8, 72, 0
12, 158400, Note_on_c, 8, 68, 60
12, 158528, Note_on_c, 8, 68, 0
12, 158560, Note_on_c, 8, 68, 60
12, 158688, Note_on_c, 8, 68, 0
12, 158720, Note_on_c, 8, 68, 60
12, 158848, Note_on_c, 8, 68, 0
12, 158880, Note_on_c, 8, 65, 60
12, 159008, Note_on_c, 8, 65, 0
12, 159040, Note_on_c, 8, 65, 60
12, 159168, Note_on_c, 8, 65, 0
12, 159200, Note_on_c, 8, 65, 60
12, 159328, Note_on_c, 8, 65, 0
12, 159360, Note_on_c, 8, 65, 60
12, 159488, Note_on_c, 8, 65, 0
12, 159520, Note_on_c, 8, 65, 60
12, 159648, Note_on_c, 8, 65, 0
12, 159680, Note_on_c, 8, 65, 60
12, 159808, Note_on_c, 8, 65, 0
12, 159840, Note_on_c, 8, 64, 60
12, 159968, Note_on_c, 8, 64, 0
12, 160000, Note_on_c, 8, 64, 60
12, 160128, Note_on_c, 8, 64, 0
12, 160160, Note_on_c, 8, 64, 60
12, 160288, Note_on_c, 8, 64, 0
12, 160320, Note_on_c, 8, 67, 60
12, 160448, Note_on_c, 8, 67, 0
12, 160480, Note_on_c, 8, 67, 60
12, 160608, Note_on_c, 8, 67, 0
12, 160640, Note_on_c, 8, 67, 60
12, 160768, Note_on_c, 8, 67, 0
12, 160800, Note_on_c, 8, 67, 60
12, 160928, Note_on_c, 8, 67, 0
12, 160960, Note_on_c, 8, 67, 60
12, 161088, Note_on_c, 8, 67, 0
12, 161120, Note_on_c, 8, 67, 60
12, 161248, Note_on_c, 8, 67, 0
12, 161280, Note_on_c, 8, 67, 60
12, 161408, Note_on_c, 8, 67, 0
12, 161440, Note_on_c, 8, 67, 60
12, 161568, Note_on_c, 8, 67, 0
12, 161600, Note_on_c, 8, 67, 60
12, 161728, Note_on_c, 8, 67, 0
12, 161760, Note_on_c, 8, 65, 60
12, 161888, Note_on_c, 8, 65, 0
12, 161920, Note_on_c, 8, 65, 60
12, 162048, Note_on_c, 8, 65, 0
12, 162080, Note_on_c, 8, 65, 60
12, 162208, Note_on_c, 8, 65, 0
12, 162240, Note_on_c, 8, 68, 60
12, 162368, Note_on_c, 8, 68, 0
12, 162400, Note_on_c, 8, 68, 60
12, 162528, Note_on_c, 8, 68, 0
12, 162560, Note_on_c, 8, 68, 60
12, 162688, Note_on_c, 8, 68, 0
12, 162720, Note_on_c, 8, 68, 60
12, 162848, Note_on_c, 8, 68, 0
12, 162880, Note_on_c, 8, 68, 60
12, 163008, Note_on_c, 8, 68, 0
12, 163040, Note_on_c, 8, 68, 60
12, 163168, Note_on_c, 8, 68, 0
12, 163200, Note_on_c, 8, 68, 60
12, 163328, Note_on_c, 8, 68, 0
12, 163360, Note_on_c, 8, 68, 60
12, 163488, Note_on_c, 8, 68, 0
12, 163520, Note_on_c, 8, 68, 60
12, 163648, Note_on_c, 8, 68, 0
12, 163680, Note_on_c, 8, 67, 60
12, 163808, Note_on_c, 8, 67, 0
12, 163840, Note_on_c, 8, 67, 60
12, 163968, Note_on_c, 8, 67, 0
12, 164000, Note_on_c, 8, 67, 60
12, 164128, Note_on_c, 8, 67, 0
12, 164160, Note_on_c, 8, 70, 60
12, 164288, Note_on_c, 8, 70, 0
12, 164320, Note_on_c, 8, 70, 60
12, 164448, Note_on_c, 8, 70, 0
12, 164480, Note_on_c, 8, 70, 60
12, 164608, Note_on_c, 8, 70, 0
12, 164640, Note_on_c, 8, 70, 60
12, 164768, Note_on_c, 8, 70, 0
12, 164800, Note_on_c, 8, 70, 60
12, 164928, Note_on_c, 8, 70, 0
12, 164960, Note_on_c, 8, 70, 60
12, 165088, Note_on_c, 8, 70, 0
12, 165120, Note_on_c, 8, 70, 60
12, 165248, Note_on_c, 8, 70, 0
12, 165280, Note_on_c, 8, 70, 60
12, 165408, Note_on_c, 8, 70, 0
12, 165440, Note_on_c, 8, 70, 60
12, 165568, Note_on_c, 8, 70, 0
12, 165600, Note_on_c, 8, 68, 60
12, 165728, Note_on_c, 8, 68, 0
12, 165760, Note_on_c, 8, 68, 60
12, 165888, Note_on_c, 8, 68, 0
12, 165920, Note_on_c, 8, 68, 60
12, 166048, Note_on_c, 8, 68, 0
12, 166080, Note_on_c, 8, 71, 60
12, 166208, Note_on_c, 8, 71, 0
12, 166240, Note_on_c, 8, 71, 60
12, 166368, Note_on_c, 8, 71, 0
12, 166400, Note_on_c, 8, 71, 60
12, 166528, Note_on_c, 8, 71, 0
12, 166560, Note_on_c, 8, 71, 60
12, 166688, Note_on_c, 8, 71, 0
12, 166720, Note_on_c, 8, 71, 60
12, 166848, Note_on_c, 8, 71, 0
12, 166880, Note_on_c, 8, 71, 60
12, 167008, Note_on_c, 8, 71, 0
12, 167040, Note_on_c, 8, 72, 60
12, 167168, Note_on_c, 8, 72, 0
12, 167200, Note_on_c, 8, 72, 60
12, 167328, Note_on_c, 8, 72, 0
12, 167360, Note_on_c, 8, 72, 60
12, 167488, Note_on_c, 8, 72, 0
12, 167520, Note_on_c, 8, 73, 60
12, 167648, Note_on_c, 8, 73, 0
12, 167680, Note_on_c, 8, 73, 60
12, 167808, Note_on_c, 8, 73, 0
12, 167840, Note_on_c, 8, 73, 60
12, 167968, Note_on_c, 8, 73, 0
12, 168000, Note_on_c, 8, 72, 60
12, 168128, Note_on_c, 8, 72, 0
12, 168160, Note_on_c, 8, 72, 60
12, 168288, Note_on_c, 8, 72, 0
12, 168320, Note_on_c, 8, 72, 60
12, 168448, Note_on_c, 8, 72, 0
12, 168480, Note_on_c, 8, 64, 60
12, 168608, Note_on_c, 8, 64, 0
12, 168640, Note_on_c, 8, 64, 60
12, 168768, Note_on_c, 8, 64, 0
12, 168800, Note_on_c, 8, 64, 60
12, 168928, Note_on_c, 8, 64, 0
12, 168960, Note_on_c, 8, 65, 60
12, 169344, Note_on_c, 8, 65, 0
12, 169344, End_track
13, 0, Start_track
13, 0, Sequencer_specific, 04, 43, 00, 01, 00
13, 0, Program_c, 10, 48
13, 0, Control_c, 10, 7, 97
13, 0, Control_c, 10, 10, 98
13, 0, Control_c, 10, 91, 80
13, 1920, Note_on_c, 10, 53, 60
13, 1920, Note_on_c, 10, 57, 60
13, 2024, Note_on_c, 10, 57, 0
13, 2024, Note_on_c, 10, 53, 0
13, 2080, Note_on_c, 10, 57, 60
13, 2080, Note_on_c, 10, 53, 60
13, 2184, Note_on_c, 10, 53, 0
13, 2184, Note_on_c, 10, 57, 0
13, 2240, Note_on_c, 10, 53, 60
13, 2240, Note_on_c, 10, 57, 60
13, 2344, Note_on_c, 10, 57, 0
13, 2344, Note_on_c, 10, 53, 0
13, 2400, Note_on_c, 10, 57, 60
13, 2400, Note_on_c, 10, 53, 60
13, 2504, Note_on_c, 10, 53, 0
13, 2504, Note_on_c, 10, 57, 0
13, 2560, Note_on_c, 10, 53, 60
13, 2560, Note_on_c, 10, 57, 60
13, 2664, Note_on_c, 10, 57, 0
13, 2664, Note_on_c, 10, 53, 0
13, 2720, Note_on_c, 10, 57, 60
13, 2720, Note_on_c, 10, 53, 60
13, 2824, Note_on_c, 10, 53, 0
13, 2824, Note_on_c, 10, 57, 0
13, 2880, Note_on_c, 10, 53, 60
13, 2880, Note_on_c, 10, 57, 60
13, 2984, Note_on_c, 10, 57, 0
13, 2984, Note_on_c, 10, 53, 0
13, 3040, Note_on_c, 10, 53, 60
13, 3040, Note_on_c, 10, 57, 60
13, 3144, Note_on_c, 10, 57, 0
13, 3144, Note_on_c, 10, 53, 0
13, 3200, Note_on_c, 10, 53, 60
13, 3200, Note_on_c, 10, 57, 60
13, 3304, Note_on_c, 10, 57, 0
13, 3304, Note_on_c, 10, 53, 0
13, 3360, Note_on_c, 10, 53, 60
13, 3360, Note_on_c, 10, 57, 60
13, 3464, Note_on_c, 10, 57, 0
13, 3464, Note_on_c, 10, 53, 0
13, 3520, Note_on_c, 10, 53, 60
13, 3520, Note_on_c, 10, 57, 60
13, 3624, Note_on_c, 10, 57, 0
13, 3624, Note_on_c, 10, 53, 0
13, 3680, Note_on_c, 10, 53, 60
13, 3680, Note_on_c, 10, 57, 60
13, 3784, Note_on_c, 10, 57, 0
13, 3784, Note_on_c, 10, 53, 0
13, 3840, Note_on_c, 10, 57, 60
13, 3840, Note_on_c, 10, 53, 60
13, 3944, Note_on_c, 10, 53, 0
13, 3944, Note_on_c, 10, 57, 0
13, 4000, Note_on_c, 10, 57, 60
13, 4000, Note_on_c, 10, 53, 60
13, 4104, Note_on_c, 10, 53, 0
13, 4104, Note_on_c, 10, 57, 0
13, 4160, Note_on_c, 10, 53, 60
13, 4160, Note_on_c, 10, 57, 60
13, 4264, Note_on_c, 10, 57, 0
13, 4264, Note_on_c, 10, 53, 0
13, 4320, Note_on_c, 10, 53, 60
13, 4320, Note_on_c, 10, 57, 60
13, 4424, Note_on_c, 10, 57, 0
13, 4424, Note_on_c, 10, 53, 0
13, 4480, Note_on_c, 10, 57, 60
13, 4480, Note_on_c, 10, 53, 60
13, 4584, Note_on_c, 10, 53, 0
13, 4584, Note_on_c, 10, 57, 0
13, 4640, Note_on_c, 10, 57, 60
13, 4640, Note_on_c, 10, 53, 60
13, 4744, Note_on_c, 10, 53, 0
13, 4744, Note_on_c, 10, 57, 0
13, 4800, Note_on_c, 10, 53, 60
13, 4800, Note_on_c, 10, 57, 60
13, 4904, Note_on_c, 10, 57, 0
13, 4904, Note_on_c, 10, 53, 0
13, 4960, Note_on_c, 10, 57, 60
13, 4960, Note_on_c, 10, 53, 60
13, 5064, Note_on_c, 10, 53, 0
13, 5064, Note_on_c, 10, 57, 0
13, 5120, Note_on_c, 10, 53, 60
13, 5120, Note_on_c, 10, 57, 60
13, 5224, Note_on_c, 10, 57, 0
13, 5224, Note_on_c, 10, 53, 0
13, 5280, Note_on_c, 10, 57, 60
13, 5280, Note_on_c, 10, 53, 60
13, 5384, Note_on_c, 10, 53, 0
13, 5384, Note_on_c, 10, 57, 0
13, 5440, Note_on_c, 10, 53, 60
13, 5440, Note_on_c, 10, 57, 60
13, 5544, Note_on_c, 10, 57, 0
13, 5544, Note_on_c, 10, 53, 0
13, 5600, Note_on_c, 10, 53, 60
13, 5600, Note_on_c, 10, 57, 60
13, 5704, Note_on_c, 10, 57, 0
13, 5704, Note_on_c, 10, 53, 0
13, 5760, Note_on_c, 10, 53, 60
13, 5760, Note_on_c, 10, 57, 60
13, 5864, Note_on_c, 10, 57, 0
13, 5864, Note_on_c, 10, 53, 0
13, 5920, Note_on_c, 10, 53, 60
13, 5920, Note_on_c, 10, 57, 60
13, 6024, Note_on_c, 10, 57, 0
13, 6024, Note_on_c, 10, 53, 0
13, 6080, Note_on_c, 10, 53, 60
13, 6080, Note_on_c, 10, 57, 60
13, 6184, Note_on_c, 10, 57, 0
13, 6184, Note_on_c, 10, 53, 0
13, 6240, Note_on_c, 10, 57, 60
13, 6240, Note_on_c, 10, 53, 60
13, 6344, Note_on_c, 10, 53, 0
13, 6344, Note_on_c, 10, 57, 0
13, 6400, Note_on_c, 10, 53, 60
13, 6400, Note_on_c, 10, 57, 60
13, 6504, Note_on_c, 10, 57, 0
13, 6504, Note_on_c, 10, 53, 0
13, 6560, Note_on_c, 10, 53, 60
13, 6560, Note_on_c, 10, 57, 60
13, 6664, Note_on_c, 10, 57, 0
13, 6664, Note_on_c, 10, 53, 0
13, 6720, Note_on_c, 10, 53, 60
13, 6720, Note_on_c, 10, 57, 60
13, 6824, Note_on_c, 10, 57, 0
13, 6824, Note_on_c, 10, 53, 0
13, 6880, Note_on_c, 10, 53, 60
13, 6880, Note_on_c, 10, 57, 60
13, 6984, Note_on_c, 10, 57, 0
13, 6984, Note_on_c, 10, 53, 0
13, 7040, Note_on_c, 10, 53, 60
13, 7040, Note_on_c, 10, 57, 60
13, 7144, Note_on_c, 10, 57, 0
13, 7144, Note_on_c, 10, 53, 0
13, 7200, Note_on_c, 10, 57, 60
13, 7200, Note_on_c, 10, 53, 60
13, 7304, Note_on_c, 10, 53, 0
13, 7304, Note_on_c, 10, 57, 0
13, 7360, Note_on_c, 10, 57, 60
13, 7360, Note_on_c, 10, 53, 60
13, 7464, Note_on_c, 10, 53, 0
13, 7464, Note_on_c, 10, 57, 0
13, 7520, Note_on_c, 10, 57, 60
13, 7520, Note_on_c, 10, 53, 60
13, 7624, Note_on_c, 10, 53, 0
13, 7624, Note_on_c, 10, 57, 0
13, 7680, Note_on_c, 10, 52, 60
13, 7680, Note_on_c, 10, 58, 60
13, 7808, Note_on_c, 10, 58, 0
13, 7808, Note_on_c, 10, 52, 0
13, 7840, Note_on_c, 10, 58, 60
13, 7840, Note_on_c, 10, 52, 60
13, 7968, Note_on_c, 10, 52, 0
13, 7968, Note_on_c, 10, 58, 0
13, 8000, Note_on_c, 10, 52, 60
13, 8000, Note_on_c, 10, 58, 60
13, 8128, Note_on_c, 10, 58, 0
13, 8128, Note_on_c, 10, 52, 0
13, 8160, Note_on_c, 10, 58, 60
13, 8160, Note_on_c, 10, 52, 60
13, 8288, Note_on_c, 10, 52, 0
13, 8288, Note_on_c, 10, 58, 0
13, 8320, Note_on_c, 10, 52, 60
13, 8320, Note_on_c, 10, 58, 60
13, 8448, Note_on_c, 10, 58, 0
13, 8448, Note_on_c, 10, 52, 0
13, 8480, Note_on_c, 10, 58, 60
13, 8480, Note_on_c, 10, 52, 60
13, 8608, Note_on_c, 10, 52, 0
13, 8608, Note_on_c, 10, 58, 0
13, 8640, Note_on_c, 10, 52, 60
13, 8640, Note_on_c, 10, 58, 60
13, 8768, Note_on_c, 10, 58, 0
13, 8768, Note_on_c, 10, 52, 0
13, 8800, Note_on_c, 10, 52, 60
13, 8800, Note_on_c, 10, 58, 60
13, 8928, Note_on_c, 10, 58, 0
13, 8928, Note_on_c, 10, 52, 0
13, 8960, Note_on_c, 10, 52, 60
13, 8960, Note_on_c, 10, 58, 60
13, 9088, Note_on_c, 10, 58, 0
13, 9088, Note_on_c, 10, 52, 0
13, 9120, Note_on_c, 10, 58, 60
13, 9120, Note_on_c, 10, 52, 60
13, 9248, Note_on_c, 10, 52, 0
13, 9248, Note_on_c, 10, 58, 0
13, 9280, Note_on_c, 10, 52, 60
13, 9280, Note_on_c, 10, 58, 60
13, 9408, Note_on_c, 10, 58, 0
13, 9408, Note_on_c, 10, 52, 0
13, 9440, Note_on_c, 10, 58, 60
13, 9440, Note_on_c, 10, 52, 60
13, 9568, Note_on_c, 10, 52, 0
13, 9568, Note_on_c, 10, 58, 0
13, 9600, Note_on_c, 10, 52, 60
13, 9600, Note_on_c, 10, 58, 60
13, 9728, Note_on_c, 10, 58, 0
13, 9728, Note_on_c, 10, 52, 0
13, 9760, Note_on_c, 10, 58, 60
13, 9760, Note_on_c, 10, 52, 60
13, 9888, Note_on_c, 10, 52, 0
13, 9888, Note_on_c, 10, 58, 0
13, 9920, Note_on_c, 10, 52, 60
13, 9920, Note_on_c, 10, 58, 60
13, 10048, Note_on_c, 10, 58, 0
13, 10048, Note_on_c, 10, 52, 0
13, 10080, Note_on_c, 10, 52, 60
13, 10080, Note_on_c, 10, 58, 60
13, 10208, Note_on_c, 10, 58, 0
13, 10208, Note_on_c, 10, 52, 0
13, 10240, Note_on_c, 10, 58, 60
13, 10240, Note_on_c, 10, 52, 60
13, 10368, Note_on_c, 10, 52, 0
13, 10368, Note_on_c, 10, 58, 0
13, 10400, Note_on_c, 10, 52, 60
13, 10400, Note_on_c, 10, 58, 60
13, 10528, Note_on_c, 10, 58, 0
13, 10528, Note_on_c, 10, 52, 0
13, 10560, Note_on_c, 10, 52, 60
13, 10560, Note_on_c, 10, 58, 60
13, 10688, Note_on_c, 10, 58, 0
13, 10688, Note_on_c, 10, 52, 0
13, 10720, Note_on_c, 10, 58, 60
13, 10720, Note_on_c, 10, 52, 60
13, 10848, Note_on_c, 10, 52, 0
13, 10848, Note_on_c, 10, 58, 0
13, 10880, Note_on_c, 10, 52, 60
13, 10880, Note_on_c, 10, 58, 60
13, 11008, Note_on_c, 10, 58, 0
13, 11008, Note_on_c, 10, 52, 0
13, 11040, Note_on_c, 10, 52, 60
13, 11040, Note_on_c, 10, 58, 60
13, 11168, Note_on_c, 10, 58, 0
13, 11168, Note_on_c, 10, 52, 0
13, 11200, Note_on_c, 10, 58, 60
13, 11200, Note_on_c, 10, 52, 60
13, 11328, Note_on_c, 10, 52, 0
13, 11328, Note_on_c, 10, 58, 0
13, 11360, Note_on_c, 10, 52, 60
13, 11360, Note_on_c, 10, 58, 60
13, 11488, Note_on_c, 10, 58, 0
13, 11488, Note_on_c, 10, 52, 0
13, 11520, Note_on_c, 10, 52, 60
13, 11520, Note_on_c, 10, 58, 60
13, 11648, Note_on_c, 10, 58, 0
13, 11648, Note_on_c, 10, 52, 0
13, 11680, Note_on_c, 10, 58, 60
13, 11680, Note_on_c, 10, 52, 60
13, 11808, Note_on_c, 10, 52, 0
13, 11808, Note_on_c, 10, 58, 0
13, 11840, Note_on_c, 10, 58, 60
13, 11840, Note_on_c, 10, 52, 60
13, 11968, Note_on_c, 10, 52, 0
13, 11968, Note_on_c, 10, 58, 0
13, 12000, Note_on_c, 10, 52, 60
13, 12000, Note_on_c, 10, 58, 60
13, 12128, Note_on_c, 10, 58, 0
13, 12128, Note_on_c, 10, 52, 0
13, 12160, Note_on_c, 10, 52, 60
13, 12160, Note_on_c, 10, 58, 60
13, 12288, Note_on_c, 10, 58, 0
13, 12288, Note_on_c, 10, 52, 0
13, 12320, Note_on_c, 10, 52, 60
13, 12320, Note_on_c, 10, 58, 60
13, 12448, Note_on_c, 10, 58, 0
13, 12448, Note_on_c, 10, 52, 0
13, 12480, Note_on_c, 10, 58, 60
13, 12480, Note_on_c, 10, 52, 60
13, 12608, Note_on_c, 10, 52, 0
13, 12608, Note_on_c, 10, 58, 0
13, 12640, Note_on_c, 10, 58, 60
13, 12640, Note_on_c, 10, 52, 60
13, 12768, Note_on_c, 10, 52, 0
13, 12768, Note_on_c, 10, 58, 0
13, 12800, Note_on_c, 10, 52, 60
13, 12800, Note_on_c, 10, 58, 60
13, 12928, Note_on_c, 10, 58, 0
13, 12928, Note_on_c, 10, 52, 0
13, 12960, Note_on_c, 10, 52, 60
13, 12960, Note_on_c, 10, 55, 60
13, 13088, Note_on_c, 10, 55, 0
13, 13088, Note_on_c, 10, 52, 0
13, 13120, Note_on_c, 10, 52, 60
13, 13120, Note_on_c, 10, 55, 60
13, 13248, Note_on_c, 10, 55, 0
13, 13248, Note_on_c, 10, 52, 0
13, 13280, Note_on_c, 10, 55, 60
13, 13280, Note_on_c, 10, 52, 60
13, 13408, Note_on_c, 10, 52, 0
13, 13408, Note_on_c, 10, 55, 0
13, 13440, Note_on_c, 10, 57, 60
13, 13440, Note_on_c, 10, 53, 60
13, 13544, Note_on_c, 10, 53, 0
13, 13544, Note_on_c, 10, 57, 0
13, 13600, Note_on_c, 10, 53, 60
13, 13600, Note_on_c, 10, 57, 60
13, 13704, Note_on_c, 10, 57, 0
13, 13704, Note_on_c, 10, 53, 0
13, 13760, Note_on_c, 10, 57, 60
13, 13760, Note_on_c, 10, 53, 60
13, 13864, Note_on_c, 10, 53, 0
13, 13864, Note_on_c, 10, 57, 0
13, 13920, Note_on_c, 10, 57, 60
13, 13920, Note_on_c, 10, 53, 60
13, 14024, Note_on_c, 10, 53, 0
13, 14024, Note_on_c, 10, 57, 0
13, 14080, Note_on_c, 10, 53, 60
13, 14080, Note_on_c, 10, 57, 60
13, 14184, Note_on_c, 10, 57, 0
13, 14184, Note_on_c, 10, 53, 0
13, 14240, Note_on_c, 10, 57, 60
13, 14240, Note_on_c, 10, 53, 60
13, 14344, Note_on_c, 10, 53, 0
13, 14344, Note_on_c, 10, 57, 0
13, 14400, Note_on_c, 10, 53, 60
13, 14400, Note_on_c, 10, 57, 60
13, 14504, Note_on_c, 10, 57, 0
13, 14504, Note_on_c, 10, 53, 0
13, 14560, Note_on_c, 10, 53, 60
13, 14560, Note_on_c, 10, 57, 60
13, 14664, Note_on_c, 10, 57, 0
13, 14664, Note_on_c, 10, 53, 0
13, 14720, Note_on_c, 10, 53, 60
13, 14720, Note_on_c, 10, 57, 60
13, 14824, Note_on_c, 10, 57, 0
13, 14824, Note_on_c, 10, 53, 0
13, 14880, Note_on_c, 10, 53, 60
13, 14880, Note_on_c, 10, 57, 60
13, 14984, Note_on_c, 10, 57, 0
13, 14984, Note_on_c, 10, 53, 0
13, 15040, Note_on_c, 10, 57, 60
13, 15040, Note_on_c, 10, 53, 60
13, 15144, Note_on_c, 10, 53, 0
13, 15144, Note_on_c, 10, 57, 0
13, 15200, Note_on_c, 10, 57, 60
13, 15200, Note_on_c, 10, 53, 60
13, 15304, Note_on_c, 10, 53, 0
13, 15304, Note_on_c, 10, 57, 0
13, 15360, Note_on_c, 10, 63, 80
13, 15360, Note_on_c, 10, 60, 80
13, 15488, Note_on_c, 10, 60, 0
13, 15488, Note_on_c, 10, 63, 0
13, 15520, Note_on_c, 10, 60, 80
13, 15520, Note_on_c, 10, 63, 80
13, 15648, Note_on_c, 10, 63, 0
13, 15648, Note_on_c, 10, 60, 0
13, 15680, Note_on_c, 10, 60, 80
13, 15680, Note_on_c, 10, 63, 80
13, 15808, Note_on_c, 10, 63, 0
13, 15808, Note_on_c, 10, 60, 0
13, 15840, Note_on_c, 10, 60, 60
13, 15840, Note_on_c, 10, 63, 80
13, 15968, Note_on_c, 10, 63, 0
13, 15968, Note_on_c, 10, 60, 0
13, 16000, Note_on_c, 10, 60, 60
13, 16000, Note_on_c, 10, 63, 80
13, 16128, Note_on_c, 10, 63, 0
13, 16128, Note_on_c, 10, 60, 0
13, 16160, Note_on_c, 10, 63, 60
13, 16160, Note_on_c, 10, 60, 60
13, 16288, Note_on_c, 10, 60, 0
13, 16288, Note_on_c, 10, 63, 0
13, 16320, Note_on_c, 10, 60, 60
13, 16320, Note_on_c, 10, 63, 60
13, 16448, Note_on_c, 10, 63, 0
13, 16448, Note_on_c, 10, 60, 0
13, 16480, Note_on_c, 10, 63, 60
13, 16480, Note_on_c, 10, 60, 60
13, 16608, Note_on_c, 10, 60, 0
13, 16608, Note_on_c, 10, 63, 0
13, 16640, Note_on_c, 10, 63, 60
13, 16640, Note_on_c, 10, 60, 60
13, 16768, Note_on_c, 10, 60, 0
13, 16768, Note_on_c, 10, 63, 0
13, 16800, Note_on_c, 10, 60, 60
13, 16800, Note_on_c, 10, 63, 60
13, 16928, Note_on_c, 10, 63, 0
13, 16928, Note_on_c, 10, 60, 0
13, 16960, Note_on_c, 10, 63, 60
13, 16960, Note_on_c, 10, 60, 60
13, 17088, Note_on_c, 10, 60, 0
13, 17088, Note_on_c, 10, 63, 0
13, 17120, Note_on_c, 10, 60, 60
13, 17120, Note_on_c, 10, 63, 60
13, 17248, Note_on_c, 10, 63, 0
13, 17248, Note_on_c, 10, 60, 0
13, 17280, Note_on_c, 10, 58, 60
13, 17280, Note_on_c, 10, 62, 60
13, 17408, Note_on_c, 10, 62, 0
13, 17408, Note_on_c, 10, 58, 0
13, 17440, Note_on_c, 10, 58, 60
13, 17440, Note_on_c, 10, 62, 60
13, 17568, Note_on_c, 10, 62, 0
13, 17568, Note_on_c, 10, 58, 0
13, 17600, Note_on_c, 10, 62, 60
13, 17600, Note_on_c, 10, 58, 60
13, 17728, Note_on_c, 10, 58, 0
13, 17728, Note_on_c, 10, 62, 0
13, 17760, Note_on_c, 10, 58, 60
13, 17760, Note_on_c, 10, 62, 60
13, 17888, Note_on_c, 10, 62, 0
13, 17888, Note_on_c, 10, 58, 0
13, 17920, Note_on_c, 10, 58, 60
13, 17920, Note_on_c, 10, 62, 60
13, 18048, Note_on_c, 10, 62, 0
13, 18048, Note_on_c, 10, 58, 0
13, 18080, Note_on_c, 10, 58, 60
13, 18080, Note_on_c, 10, 62, 60
13, 18208, Note_on_c, 10, 62, 0
13, 18208, Note_on_c, 10, 58, 0
13, 18240, Note_on_c, 10, 62, 60
13, 18240, Note_on_c, 10, 58, 60
13, 18368, Note_on_c, 10, 58, 0
13, 18368, Note_on_c, 10, 62, 0
13, 18400, Note_on_c, 10, 58, 60
13, 18400, Note_on_c, 10, 62, 60
13, 18528, Note_on_c, 10, 62, 0
13, 18528, Note_on_c, 10, 58, 0
13, 18560, Note_on_c, 10, 62, 60
13, 18560, Note_on_c, 10, 58, 60
13, 18688, Note_on_c, 10, 58, 0
13, 18688, Note_on_c, 10, 62, 0
13, 18720, Note_on_c, 10, 62, 60
13, 18720, Note_on_c, 10, 58, 60
13, 18848, Note_on_c, 10, 58, 0
13, 18848, Note_on_c, 10, 62, 0
13, 18880, Note_on_c, 10, 62, 60
13, 18880, Note_on_c, 10, 58, 60
13, 19008, Note_on_c, 10, 58, 0
13, 19008, Note_on_c, 10, 62, 0
13, 19040, Note_on_c, 10, 62, 60
13, 19040, Note_on_c, 10, 58, 60
13, 19168, Note_on_c, 10, 58, 0
13, 19168, Note_on_c, 10, 62, 0
13, 19200, Note_on_c, 10, 56, 80
13, 19200, Note_on_c, 10, 62, 80
13, 19328, Note_on_c, 10, 62, 0
13, 19328, Note_on_c, 10, 56, 0
13, 19360, Note_on_c, 10, 56, 80
13, 19360, Note_on_c, 10, 62, 80
13, 19488, Note_on_c, 10, 62, 0
13, 19488, Note_on_c, 10, 56, 0
13, 19520, Note_on_c, 10, 62, 80
13, 19520, Note_on_c, 10, 56, 60
13, 19648, Note_on_c, 10, 56, 0
13, 19648, Note_on_c, 10, 62, 0
13, 19680, Note_on_c, 10, 56, 60
13, 19680, Note_on_c, 10, 62, 80
13, 19808, Note_on_c, 10, 62, 0
13, 19808, Note_on_c, 10, 56, 0
13, 19840, Note_on_c, 10, 62, 80
13, 19840, Note_on_c, 10, 56, 60
13, 19968, Note_on_c, 10, 56, 0
13, 19968, Note_on_c, 10, 62, 0
13, 20000, Note_on_c, 10, 56, 60
13, 20000, Note_on_c, 10, 62, 60
13, 20128, Note_on_c, 10, 62, 0
13, 20128, Note_on_c, 10, 56, 0
13, 20160, Note_on_c, 10, 62, 60
13, 20160, Note_on_c, 10, 56, 60
13, 20288, Note_on_c, 10, 56, 0
13, 20288, Note_on_c, 10, 62, 0
13, 20320, Note_on_c, 10, 56, 60
13, 20320, Note_on_c, 10, 62, 60
13, 20448, Note_on_c, 10, 62, 0
13, 20448, Note_on_c, 10, 56, 0
13, 20480, Note_on_c, 10, 56, 60
13, 20480, Note_on_c, 10, 62, 60
13, 20608, Note_on_c, 10, 62, 0
13, 20608, Note_on_c, 10, 56, 0
13, 20640, Note_on_c, 10, 62, 60
13, 20640, Note_on_c, 10, 56, 60
13, 20768, Note_on_c, 10, 56, 0
13, 20768, Note_on_c, 10, 62, 0
13, 20800, Note_on_c, 10, 56, 60
13, 20800, Note_on_c, 10, 62, 60
13, 20928, Note_on_c, 10, 62, 0
13, 20928, Note_on_c, 10, 56, 0
13, 20960, Note_on_c, 10, 56, 60
13, 20960, Note_on_c, 10, 62, 60
13, 21088, Note_on_c, 10, 62, 0
13, 21088, Note_on_c, 10, 56, 0
13, 21120, Note_on_c, 10, 56, 60
13, 21120, Note_on_c, 10, 60, 60
13, 21248, Note_on_c, 10, 60, 0
13, 21248, Note_on_c, 10, 56, 0
13, 21280, Note_on_c, 10, 60, 60
13, 21280, Note_on_c, 10, 56, 60
13, 21408, Note_on_c, 10, 56, 0
13, 21408, Note_on_c, 10, 60, 0
13, 21440, Note_on_c, 10, 60, 60
13, 21440, Note_on_c, 10, 56, 60
13, 21568, Note_on_c, 10, 56, 0
13, 21568, Note_on_c, 10, 60, 0
13, 21600, Note_on_c, 10, 60, 60
13, 21600, Note_on_c, 10, 56, 60
13, 21728, Note_on_c, 10, 56, 0
13, 21728, Note_on_c, 10, 60, 0
13, 21760, Note_on_c, 10, 56, 60
13, 21760, Note_on_c, 10, 60, 60
13, 21888, Note_on_c, 10, 60, 0
13, 21888, Note_on_c, 10, 56, 0
13, 21920, Note_on_c, 10, 56, 60
13, 21920, Note_on_c, 10, 60, 60
13, 22048, Note_on_c, 10, 60, 0
13, 22048, Note_on_c, 10, 56, 0
13, 22080, Note_on_c, 10, 56, 60
13, 22080, Note_on_c, 10, 60, 60
13, 22208, Note_on_c, 10, 60, 0
13, 22208, Note_on_c, 10, 56, 0
13, 22240, Note_on_c, 10, 60, 60
13, 22240, Note_on_c, 10, 56, 60
13, 22368, Note_on_c, 10, 56, 0
13, 22368, Note_on_c, 10, 60, 0
13, 22400, Note_on_c, 10, 60, 60
13, 22400, Note_on_c, 10, 56, 60
13, 22528, Note_on_c, 10, 56, 0
13, 22528, Note_on_c, 10, 60, 0
13, 22560, Note_on_c, 10, 60, 60
13, 22560, Note_on_c, 10, 56, 60
13, 22688, Note_on_c, 10, 56, 0
13, 22688, Note_on_c, 10, 60, 0
13, 22720, Note_on_c, 10, 56, 60
13, 22720, Note_on_c, 10, 60, 60
13, 22848, Note_on_c, 10, 60, 0
13, 22848, Note_on_c, 10, 56, 0
13, 22880, Note_on_c, 10, 56, 60
13, 22880, Note_on_c, 10, 60, 60
13, 23008, Note_on_c, 10, 60, 0
13, 23008, Note_on_c, 10, 56, 0
13, 23040, Note_on_c, 10, 55, 60
13, 23040, Note_on_c, 10, 58, 60
13, 23168, Note_on_c, 10, 58, 0
13, 23168, Note_on_c, 10, 55, 0
13, 23200, Note_on_c, 10, 55, 60
13, 23200, Note_on_c, 10, 58, 60
13, 23328, Note_on_c, 10, 58, 0
13, 23328, Note_on_c, 10, 55, 0
13, 23360, Note_on_c, 10, 58, 60
13, 23360, Note_on_c, 10, 55, 60
13, 23488, Note_on_c, 10, 55, 0
13, 23488, Note_on_c, 10, 58, 0
13, 23520, Note_on_c, 10, 58, 60
13, 23520, Note_on_c, 10, 55, 60
13, 23648, Note_on_c, 10, 55, 0
13, 23648, Note_on_c, 10, 58, 0
13, 23680, Note_on_c, 10, 55, 60
13, 23680, Note_on_c, 10, 58, 60
13, 23808, Note_on_c, 10, 58, 0
13, 23808, Note_on_c, 10, 55, 0
13, 23840, Note_on_c, 10, 58, 60
13, 23840, Note_on_c, 10, 55, 60
13, 23968, Note_on_c, 10, 55, 0
13, 23968, Note_on_c, 10, 58, 0
13, 24000, Note_on_c, 10, 52, 60
13, 24000, Note_on_c, 10, 58, 60
13, 24128, Note_on_c, 10, 58, 0
13, 24128, Note_on_c, 10, 52, 0
13, 24160, Note_on_c, 10, 52, 60
13, 24160, Note_on_c, 10, 58, 60
13, 24288, Note_on_c, 10, 58, 0
13, 24288, Note_on_c, 10, 52, 0
13, 24320, Note_on_c, 10, 52, 60
13, 24320, Note_on_c, 10, 58, 60
13, 24448, Note_on_c, 10, 58, 0
13, 24448, Note_on_c, 10, 52, 0
13, 24480, Note_on_c, 10, 52, 60
13, 24480, Note_on_c, 10, 58, 60
13, 24608, Note_on_c, 10, 58, 0
13, 24608, Note_on_c, 10, 52, 0
13, 24640, Note_on_c, 10, 52, 60
13, 24640, Note_on_c, 10, 58, 60
13, 24768, Note_on_c, 10, 58, 0
13, 24768, Note_on_c, 10, 52, 0
13, 24800, Note_on_c, 10, 58, 60
13, 24800, Note_on_c, 10, 52, 60
13, 24928, Note_on_c, 10, 52, 0
13, 24928, Note_on_c, 10, 58, 0
13, 24960, Note_on_c, 10, 56, 60
13, 24960, Note_on_c, 10, 60, 60
13, 25088, Note_on_c, 10, 60, 0
13, 25088, Note_on_c, 10, 56, 0
13, 25120, Note_on_c, 10, 56, 60
13, 25120, Note_on_c, 10, 60, 60
13, 25248, Note_on_c, 10, 60, 0
13, 25248, Note_on_c, 10, 56, 0
13, 25280, Note_on_c, 10, 56, 60
13, 25280, Note_on_c, 10, 60, 60
13, 25408, Note_on_c, 10, 60, 0
13, 25408, Note_on_c, 10, 56, 0
13, 25440, Note_on_c, 10, 60, 60
13, 25440, Note_on_c, 10, 56, 60
13, 25568, Note_on_c, 10, 56, 0
13, 25568, Note_on_c, 10, 60, 0
13, 25600, Note_on_c, 10, 56, 60
13, 25600, Note_on_c, 10, 60, 60
13, 25728, Note_on_c, 10, 60, 0
13, 25728, Note_on_c, 10, 56, 0
13, 25760, Note_on_c, 10, 56, 60
13, 25760, Note_on_c, 10, 60, 60
13, 25888, Note_on_c, 10, 60, 0
13, 25888, Note_on_c, 10, 56, 0
13, 25920, Note_on_c, 10, 60, 60
13, 25920, Note_on_c, 10, 53, 60
13, 26048, Note_on_c, 10, 53, 0
13, 26048, Note_on_c, 10, 60, 0
13, 26080, Note_on_c, 10, 53, 60
13, 26080, Note_on_c, 10, 60, 60
13, 26208, Note_on_c, 10, 60, 0
13, 26208, Note_on_c, 10, 53, 0
13, 26240, Note_on_c, 10, 53, 60
13, 26240, Note_on_c, 10, 60, 60
13, 26368, Note_on_c, 10, 60, 0
13, 26368, Note_on_c, 10, 53, 0
13, 26400, Note_on_c, 10, 53, 60
13, 26400, Note_on_c, 10, 60, 60
13, 26528, Note_on_c, 10, 60, 0
13, 26528, Note_on_c, 10, 53, 0
13, 26560, Note_on_c, 10, 60, 60
13, 26560, Note_on_c, 10, 53, 60
13, 26688, Note_on_c, 10, 53, 0
13, 26688, Note_on_c, 10, 60, 0
13, 26720, Note_on_c, 10, 53, 60
13, 26720, Note_on_c, 10, 60, 60
13, 26848, Note_on_c, 10, 60, 0
13, 26848, Note_on_c, 10, 53, 0
13, 26880, Note_on_c, 10, 61, 60
13, 26880, Note_on_c, 10, 64, 60
13, 27008, Note_on_c, 10, 64, 0
13, 27008, Note_on_c, 10, 61, 0
13, 27040, Note_on_c, 10, 61, 60
13, 27040, Note_on_c, 10, 64, 60
13, 27168, Note_on_c, 10, 64, 0
13, 27168, Note_on_c, 10, 61, 0
13, 27200, Note_on_c, 10, 64, 60
13, 27200, Note_on_c, 10, 61, 60
13, 27328, Note_on_c, 10, 61, 0
13, 27328, Note_on_c, 10, 64, 0
13, 27360, Note_on_c, 10, 64, 60
13, 27360, Note_on_c, 10, 61, 60
13, 27488, Note_on_c, 10, 61, 0
13, 27488, Note_on_c, 10, 64, 0
13, 27520, Note_on_c, 10, 64, 60
13, 27520, Note_on_c, 10, 61, 60
13, 27648, Note_on_c, 10, 61, 0
13, 27648, Note_on_c, 10, 64, 0
13, 27680, Note_on_c, 10, 61, 60
13, 27680, Note_on_c, 10, 64, 60
13, 27808, Note_on_c, 10, 64, 0
13, 27808, Note_on_c, 10, 61, 0
13, 27840, Note_on_c, 10, 64, 60
13, 27840, Note_on_c, 10, 60, 60
13, 27968, Note_on_c, 10, 60, 0
13, 27968, Note_on_c, 10, 64, 0
13, 28000, Note_on_c, 10, 64, 60
13, 28000, Note_on_c, 10, 60, 60
13, 28128, Note_on_c, 10, 60, 0
13, 28128, Note_on_c, 10, 64, 0
13, 28160, Note_on_c, 10, 60, 60
13, 28160, Note_on_c, 10, 64, 60
13, 28288, Note_on_c, 10, 64, 0
13, 28288, Note_on_c, 10, 60, 0
13, 28320, Note_on_c, 10, 60, 60
13, 28320, Note_on_c, 10, 67, 60
13, 28448, Note_on_c, 10, 67, 0
13, 28448, Note_on_c, 10, 60, 0
13, 28480, Note_on_c, 10, 60, 60
13, 28480, Note_on_c, 10, 67, 60
13, 28608, Note_on_c, 10, 67, 0
13, 28608, Note_on_c, 10, 60, 0
13, 28640, Note_on_c, 10, 60, 60
13, 28640, Note_on_c, 10, 67, 60
13, 28768, Note_on_c, 10, 67, 0
13, 28768, Note_on_c, 10, 60, 0
13, 28800, Note_on_c, 10, 59, 60
13, 28800, Note_on_c, 10, 65, 60
13, 28928, Note_on_c, 10, 65, 0
13, 28928, Note_on_c, 10, 59, 0
13, 28960, Note_on_c, 10, 59, 60
13, 28960, Note_on_c, 10, 65, 60
13, 29088, Note_on_c, 10, 65, 0
13, 29088, Note_on_c, 10, 59, 0
13, 29120, Note_on_c, 10, 59, 60
13, 29120, Note_on_c, 10, 65, 60
13, 29248, Note_on_c, 10, 65, 0
13, 29248, Note_on_c, 10, 59, 0
13, 29280, Note_on_c, 10, 59, 60
13, 29280, Note_on_c, 10, 65, 60
13, 29408, Note_on_c, 10, 65, 0
13, 29408, Note_on_c, 10, 59, 0
13, 29440, Note_on_c, 10, 65, 60
13, 29440, Note_on_c, 10, 59, 60
13, 29568, Note_on_c, 10, 59, 0
13, 29568, Note_on_c, 10, 65, 0
13, 29600, Note_on_c, 10, 65, 60
13, 29600, Note_on_c, 10, 59, 60
13, 29728, Note_on_c, 10, 59, 0
13, 29728, Note_on_c, 10, 65, 0
13, 29760, Note_on_c, 10, 62, 60
13, 29760, Note_on_c, 10, 65, 60
13, 29888, Note_on_c, 10, 65, 0
13, 29888, Note_on_c, 10, 62, 0
13, 29920, Note_on_c, 10, 65, 60
13, 29920, Note_on_c, 10, 62, 60
13, 30048, Note_on_c, 10, 62, 0
13, 30048, Note_on_c, 10, 65, 0
13, 30080, Note_on_c, 10, 65, 60
13, 30080, Note_on_c, 10, 62, 60
13, 30208, Note_on_c, 10, 62, 0
13, 30208, Note_on_c, 10, 65, 0
13, 30240, Note_on_c, 10, 65, 60
13, 30240, Note_on_c, 10, 68, 60
13, 30368, Note_on_c, 10, 68, 0
13, 30368, Note_on_c, 10, 65, 0
13, 30400, Note_on_c, 10, 68, 60
13, 30400, Note_on_c, 10, 65, 60
13, 30528, Note_on_c, 10, 65, 0
13, 30528, Note_on_c, 10, 68, 0
13, 30560, Note_on_c, 10, 65, 60
13, 30560, Note_on_c, 10, 68, 60
13, 30688, Note_on_c, 10, 68, 0
13, 30688, Note_on_c, 10, 65, 0
13, 30720, Note_on_c, 10, 67, 60
13, 30720, Note_on_c, 10, 65, 60
13, 30848, Note_on_c, 10, 65, 0
13, 30848, Note_on_c, 10, 67, 0
13, 30880, Note_on_c, 10, 67, 60
13, 30880, Note_on_c, 10, 65, 60
13, 31008, Note_on_c, 10, 65, 0
13, 31008, Note_on_c, 10, 67, 0
13, 31040, Note_on_c, 10, 67, 60
13, 31040, Note_on_c, 10, 65, 60
13, 31168, Note_on_c, 10, 65, 0
13, 31168, Note_on_c, 10, 67, 0
13, 31200, Note_on_c, 10, 65, 60
13, 31200, Note_on_c, 10, 67, 60
13, 31328, Note_on_c, 10, 67, 0
13, 31328, Note_on_c, 10, 65, 0
13, 31360, Note_on_c, 10, 67, 60
13, 31360, Note_on_c, 10, 65, 60
13, 31488, Note_on_c, 10, 65, 0
13, 31488, Note_on_c, 10, 67, 0
13, 31520, Note_on_c, 10, 65, 60
13, 31520, Note_on_c, 10, 67, 60
13, 31648, Note_on_c, 10, 67, 0
13, 31648, Note_on_c, 10, 65, 0
13, 31680, Note_on_c, 10, 64, 60
13, 31680, Note_on_c, 10, 67, 60
13, 31808, Note_on_c, 10, 67, 0
13, 31808, Note_on_c, 10, 64, 0
13, 31840, Note_on_c, 10, 64, 60
13, 31840, Note_on_c, 10, 67, 60
13, 31968, Note_on_c, 10, 67, 0
13, 31968, Note_on_c, 10, 64, 0
13, 32000, Note_on_c, 10, 67, 60
13, 32000, Note_on_c, 10, 64, 60
13, 32128, Note_on_c, 10, 64, 0
13, 32128, Note_on_c, 10, 67, 0
13, 32160, Note_on_c, 10, 60, 60
13, 32160, Note_on_c, 10, 55, 60
13, 32288, Note_on_c, 10, 55, 0
13, 32288, Note_on_c, 10, 60, 0
13, 32320, Note_on_c, 10, 60, 60
13, 32320, Note_on_c, 10, 55, 60
13, 32448, Note_on_c, 10, 55, 0
13, 32448, Note_on_c, 10, 60, 0
13, 32480, Note_on_c, 10, 60, 60
13, 32480, Note_on_c, 10, 55, 60
13, 32608, Note_on_c, 10, 55, 0
13, 32608, Note_on_c, 10, 60, 0
13, 32640, Note_on_c, 10, 57, 60
13, 32640, Note_on_c, 10, 60, 60
13, 32768, Note_on_c, 10, 60, 0
13, 32768, Note_on_c, 10, 57, 0
13, 32800, Note_on_c, 10, 60, 60
13, 32800, Note_on_c, 10, 57, 60
13, 32928, Note_on_c, 10, 57, 0
13, 32928, Note_on_c, 10, 60, 0
13, 32960, Note_on_c, 10, 57, 60
13, 32960, Note_on_c, 10, 60, 60
13, 33088, Note_on_c, 10, 60, 0
13, 33088, Note_on_c, 10, 57, 0
13, 33120, Note_on_c, 10, 60, 60
13, 33120, Note_on_c, 10, 57, 60
13, 33248, Note_on_c, 10, 57, 0
13, 33248, Note_on_c, 10, 60, 0
13, 33280, Note_on_c, 10, 57, 60
13, 33280, Note_on_c, 10, 60, 60
13, 33408, Note_on_c, 10, 60, 0
13, 33408, Note_on_c, 10, 57, 0
13, 33440, Note_on_c, 10, 60, 60
13, 33440, Note_on_c, 10, 57, 60
13, 33568, Note_on_c, 10, 57, 0
13, 33568, Note_on_c, 10, 60, 0
13, 33600, Note_on_c, 10, 55, 60
13, 33600, Note_on_c, 10, 62, 60
13, 33728, Note_on_c, 10, 62, 0
13, 33728, Note_on_c, 10, 55, 0
13, 33760, Note_on_c, 10, 55, 60
13, 33760, Note_on_c, 10, 62, 60
13, 33888, Note_on_c, 10, 62, 0
13, 33888, Note_on_c, 10, 55, 0
13, 33920, Note_on_c, 10, 55, 60
13, 33920, Note_on_c, 10, 62, 60
13, 34048, Note_on_c, 10, 62, 0
13, 34048, Note_on_c, 10, 55, 0
13, 34080, Note_on_c, 10, 55, 60
13, 34080, Note_on_c, 10, 62, 60
13, 34208, Note_on_c, 10, 62, 0
13, 34208, Note_on_c, 10, 55, 0
13, 34240, Note_on_c, 10, 62, 60
13, 34240, Note_on_c, 10, 55, 60
13, 34368, Note_on_c, 10, 55, 0
13, 34368, Note_on_c, 10, 62, 0
13, 34400, Note_on_c, 10, 55, 60
13, 34400, Note_on_c, 10, 62, 60
13, 34528, Note_on_c, 10, 62, 0
13, 34528, Note_on_c, 10, 55, 0
13, 34560, Note_on_c, 10, 60, 60
13, 34560, Note_on_c, 10, 55, 60
13, 34688, Note_on_c, 10, 55, 0
13, 34688, Note_on_c, 10, 60, 0
13, 34720, Note_on_c, 10, 60, 60
13, 34720, Note_on_c, 10, 55, 60
13, 34848, Note_on_c, 10, 55, 0
13, 34848, Note_on_c, 10, 60, 0
13, 34880, Note_on_c, 10, 60, 60
13, 34880, Note_on_c, 10, 55, 60
13, 35008, Note_on_c, 10, 55, 0
13, 35008, Note_on_c, 10, 60, 0
13, 35040, Note_on_c, 10, 55, 60
13, 35040, Note_on_c, 10, 62, 60
13, 35168, Note_on_c, 10, 62, 0
13, 35168, Note_on_c, 10, 55, 0
13, 35200, Note_on_c, 10, 62, 60
13, 35200, Note_on_c, 10, 55, 60
13, 35328, Note_on_c, 10, 55, 0
13, 35328, Note_on_c, 10, 62, 0
13, 35360, Note_on_c, 10, 62, 60
13, 35360, Note_on_c, 10, 55, 60
13, 35488, Note_on_c, 10, 55, 0
13, 35488, Note_on_c, 10, 62, 0
13, 35520, Note_on_c, 10, 60, 60
13, 35520, Note_on_c, 10, 55, 60
13, 35648, Note_on_c, 10, 55, 0
13, 35648, Note_on_c, 10, 60, 0
13, 35680, Note_on_c, 10, 60, 60
13, 35680, Note_on_c, 10, 55, 60
13, 35808, Note_on_c, 10, 55, 0
13, 35808, Note_on_c, 10, 60, 0
13, 35840, Note_on_c, 10, 60, 60
13, 35840, Note_on_c, 10, 55, 60
13, 35968, Note_on_c, 10, 55, 0
13, 35968, Note_on_c, 10, 60, 0
13, 36000, Note_on_c, 10, 55, 60
13, 36000, Note_on_c, 10, 60, 60
13, 36128, Note_on_c, 10, 60, 0
13, 36128, Note_on_c, 10, 55, 0
13, 36160, Note_on_c, 10, 60, 60
13, 36160, Note_on_c, 10, 55, 60
13, 36288, Note_on_c, 10, 55, 0
13, 36288, Note_on_c, 10, 60, 0
13, 36320, Note_on_c, 10, 60, 60
13, 36320, Note_on_c, 10, 55, 60
13, 36448, Note_on_c, 10, 55, 0
13, 36448, Note_on_c, 10, 60, 0
13, 36480, Note_on_c, 10, 55, 60
13, 36608, Note_on_c, 10, 55, 0
13, 36640, Note_on_c, 10, 55, 60
13, 36768, Note_on_c, 10, 55, 0
13, 36800, Note_on_c, 10, 55, 60
13, 36928, Note_on_c, 10, 55, 0
13, 36960, Note_on_c, 10, 53, 60
13, 37088, Note_on_c, 10, 53, 0
13, 37120, Note_on_c, 10, 53, 60
13, 37248, Note_on_c, 10, 53, 0
13, 37280, Note_on_c, 10, 53, 60
13, 37408, Note_on_c, 10, 53, 0
13, 37440, Note_on_c, 10, 57, 60
13, 37568, Note_on_c, 10, 57, 0
13, 37600, Note_on_c, 10, 57, 60
13, 37728, Note_on_c, 10, 57, 0
13, 37760, Note_on_c, 10, 57, 60
13, 37888, Note_on_c, 10, 57, 0
13, 37920, Note_on_c, 10, 60, 60
13, 38048, Note_on_c, 10, 60, 0
13, 38080, Note_on_c, 10, 60, 60
13, 38208, Note_on_c, 10, 60, 0
13, 38240, Note_on_c, 10, 60, 60
13, 38368, Note_on_c, 10, 60, 0
13, 38400, Note_on_c, 10, 57, 60
13, 38400, Note_on_c, 10, 60, 60
13, 38528, Note_on_c, 10, 60, 0
13, 38528, Note_on_c, 10, 57, 0
13, 38560, Note_on_c, 10, 57, 60
13, 38560, Note_on_c, 10, 60, 60
13, 38688, Note_on_c, 10, 60, 0
13, 38688, Note_on_c, 10, 57, 0
13, 38720, Note_on_c, 10, 60, 60
13, 38720, Note_on_c, 10, 57, 60
13, 38848, Note_on_c, 10, 57, 0
13, 38848, Note_on_c, 10, 60, 0
13, 38880, Note_on_c, 10, 60, 60
13, 38880, Note_on_c, 10, 57, 60
13, 39008, Note_on_c, 10, 57, 0
13, 39008, Note_on_c, 10, 60, 0
13, 39040, Note_on_c, 10, 60, 60
13, 39040, Note_on_c, 10, 57, 60
13, 39168, Note_on_c, 10, 57, 0
13, 39168, Note_on_c, 10, 60, 0
13, 39200, Note_on_c, 10, 60, 60
13, 39200, Note_on_c, 10, 57, 60
13, 39328, Note_on_c, 10, 57, 0
13, 39328, Note_on_c, 10, 60, 0
13, 39360, Note_on_c, 10, 55, 60
13, 39360, Note_on_c, 10, 62, 60
13, 39488, Note_on_c, 10, 62, 0
13, 39488, Note_on_c, 10, 55, 0
13, 39520, Note_on_c, 10, 55, 60
13, 39520, Note_on_c, 10, 62, 60
13, 39648, Note_on_c, 10, 62, 0
13, 39648, Note_on_c, 10, 55, 0
13, 39680, Note_on_c, 10, 55, 60
13, 39680, Note_on_c, 10, 62, 60
13, 39808, Note_on_c, 10, 62, 0
13, 39808, Note_on_c, 10, 55, 0
13, 39840, Note_on_c, 10, 55, 60
13, 39840, Note_on_c, 10, 62, 60
13, 39968, Note_on_c, 10, 62, 0
13, 39968, Note_on_c, 10, 55, 0
13, 40000, Note_on_c, 10, 62, 60
13, 40000, Note_on_c, 10, 55, 60
13, 40128, Note_on_c, 10, 55, 0
13, 40128, Note_on_c, 10, 62, 0
13, 40160, Note_on_c, 10, 55, 60
13, 40160, Note_on_c, 10, 62, 60
13, 40288, Note_on_c, 10, 62, 0
13, 40288, Note_on_c, 10, 55, 0
13, 40320, Note_on_c, 10, 55, 60
13, 40320, Note_on_c, 10, 60, 60
13, 40448, Note_on_c, 10, 60, 0
13, 40448, Note_on_c, 10, 55, 0
13, 40480, Note_on_c, 10, 60, 60
13, 40480, Note_on_c, 10, 55, 60
13, 40608, Note_on_c, 10, 55, 0
13, 40608, Note_on_c, 10, 60, 0
13, 40640, Note_on_c, 10, 60, 60
13, 40640, Note_on_c, 10, 55, 60
13, 40768, Note_on_c, 10, 55, 0
13, 40768, Note_on_c, 10, 60, 0
13, 40800, Note_on_c, 10, 62, 60
13, 40800, Note_on_c, 10, 55, 60
13, 40928, Note_on_c, 10, 55, 0
13, 40928, Note_on_c, 10, 62, 0
13, 40960, Note_on_c, 10, 55, 60
13, 40960, Note_on_c, 10, 62, 60
13, 41088, Note_on_c, 10, 62, 0
13, 41088, Note_on_c, 10, 55, 0
13, 41120, Note_on_c, 10, 55, 60
13, 41120, Note_on_c, 10, 62, 60
13, 41248, Note_on_c, 10, 62, 0
13, 41248, Note_on_c, 10, 55, 0
13, 41280, Note_on_c, 10, 60, 60
13, 41280, Note_on_c, 10, 55, 60
13, 41408, Note_on_c, 10, 55, 0
13, 41408, Note_on_c, 10, 60, 0
13, 41440, Note_on_c, 10, 55, 60
13, 41440, Note_on_c, 10, 60, 60
13, 41568, Note_on_c, 10, 60, 0
13, 41568, Note_on_c, 10, 55, 0
13, 41600, Note_on_c, 10, 60, 60
13, 41600, Note_on_c, 10, 55, 60
13, 41728, Note_on_c, 10, 55, 0
13, 41728, Note_on_c, 10, 60, 0
13, 41760, Note_on_c, 10, 58, 60
13, 41760, Note_on_c, 10, 60, 60
13, 41888, Note_on_c, 10, 60, 0
13, 41888, Note_on_c, 10, 58, 0
13, 41920, Note_on_c, 10, 58, 60
13, 41920, Note_on_c, 10, 60, 60
13, 42048, Note_on_c, 10, 60, 0
13, 42048, Note_on_c, 10, 58, 0
13, 42080, Note_on_c, 10, 60, 60
13, 42080, Note_on_c, 10, 58, 60
13, 42208, Note_on_c, 10, 58, 0
13, 42208, Note_on_c, 10, 60, 0
13, 42240, Note_on_c, 10, 60, 60
13, 42240, Note_on_c, 10, 57, 60
13, 42624, Note_on_c, 10, 57, 0
13, 42624, Note_on_c, 10, 60, 0
13, 71040, Note_on_c, 10, 57, 60
13, 71424, Note_on_c, 10, 57, 0
13, 72000, Note_on_c, 10, 57, 60
13, 73344, Note_on_c, 10, 57, 0
13, 73920, Note_on_c, 10, 57, 60
13, 74304, Note_on_c, 10, 57, 0
13, 74880, Note_on_c, 10, 60, 80
13, 75264, Note_on_c, 10, 60, 0
13, 75840, Note_on_c, 10, 60, 60
13, 76224, Note_on_c, 10, 60, 0
13, 76960, Note_on_c, 10, 60, 60
13, 77088, Note_on_c, 10, 60, 0
13, 77120, Note_on_c, 10, 60, 60
13, 77248, Note_on_c, 10, 60, 0
13, 77280, Note_on_c, 10, 60, 60
13, 77408, Note_on_c, 10, 60, 0
13, 77440, Note_on_c, 10, 60, 60
13, 77568, Note_on_c, 10, 60, 0
13, 77600, Note_on_c, 10, 60, 60
13, 77728, Note_on_c, 10, 60, 0
13, 77760, Note_on_c, 10, 60, 60
13, 77888, Note_on_c, 10, 60, 0
13, 77920, Note_on_c, 10, 60, 60
13, 78048, Note_on_c, 10, 60, 0
13, 78080, Note_on_c, 10, 60, 60
13, 78208, Note_on_c, 10, 60, 0
13, 78240, Note_on_c, 10, 60, 60
13, 78368, Note_on_c, 10, 60, 0
13, 78400, Note_on_c, 10, 60, 60
13, 78528, Note_on_c, 10, 60, 0
13, 78560, Note_on_c, 10, 60, 60
13, 78688, Note_on_c, 10, 60, 0
13, 78720, Note_on_c, 10, 60, 60
13, 78880, Note_on_c, 10, 60, 0
13, 78880, Note_on_c, 10, 64, 60
13, 79008, Note_on_c, 10, 64, 0
13, 79040, Note_on_c, 10, 64, 60
13, 79168, Note_on_c, 10, 64, 0
13, 79200, Note_on_c, 10, 64, 60
13, 79328, Note_on_c, 10, 64, 0
13, 79360, Note_on_c, 10, 64, 60
13, 79488, Note_on_c, 10, 64, 0
13, 79520, Note_on_c, 10, 64, 60
13, 79648, Note_on_c, 10, 64, 0
13, 79680, Note_on_c, 10, 64, 60
13, 79808, Note_on_c, 10, 64, 0
13, 79840, Note_on_c, 10, 64, 60
13, 79968, Note_on_c, 10, 64, 0
13, 80000, Note_on_c, 10, 64, 60
13, 80128, Note_on_c, 10, 64, 0
13, 80160, Note_on_c, 10, 64, 60
13, 80288, Note_on_c, 10, 64, 0
13, 80320, Note_on_c, 10, 64, 60
13, 80448, Note_on_c, 10, 64, 0
13, 80640, Note_on_c, 10, 62, 60
13, 80768, Note_on_c, 10, 62, 0
13, 80800, Note_on_c, 10, 62, 60
13, 80928, Note_on_c, 10, 62, 0
13, 80960, Note_on_c, 10, 62, 60
13, 81088, Note_on_c, 10, 62, 0
13, 81120, Note_on_c, 10, 62, 60
13, 81248, Note_on_c, 10, 62, 0
13, 81280, Note_on_c, 10, 62, 60
13, 81408, Note_on_c, 10, 62, 0
13, 81440, Note_on_c, 10, 62, 60
13, 81568, Note_on_c, 10, 62, 0
13, 81600, Note_on_c, 10, 62, 60
13, 81728, Note_on_c, 10, 62, 0
13, 81760, Note_on_c, 10, 62, 60
13, 81888, Note_on_c, 10, 62, 0
13, 81920, Note_on_c, 10, 62, 60
13, 82048, Note_on_c, 10, 62, 0
13, 82080, Note_on_c, 10, 62, 60
13, 82208, Note_on_c, 10, 62, 0
13, 82240, Note_on_c, 10, 62, 60
13, 82368, Note_on_c, 10, 62, 0
13, 82400, Note_on_c, 10, 62, 60
13, 82528, Note_on_c, 10, 62, 0
13, 82560, Note_on_c, 10, 62, 60
13, 82688, Note_on_c, 10, 62, 0
13, 82720, Note_on_c, 10, 62, 60
13, 82848, Note_on_c, 10, 62, 0
13, 82880, Note_on_c, 10, 62, 60
13, 83008, Note_on_c, 10, 62, 0
13, 83040, Note_on_c, 10, 62, 60
13, 83168, Note_on_c, 10, 62, 0
13, 83200, Note_on_c, 10, 62, 60
13, 83328, Note_on_c, 10, 62, 0
13, 83360, Note_on_c, 10, 62, 60
13, 83488, Note_on_c, 10, 62, 0
13, 83520, Note_on_c, 10, 62, 60
13, 83648, Note_on_c, 10, 62, 0
13, 83680, Note_on_c, 10, 62, 60
13, 83808, Note_on_c, 10, 62, 0
13, 83840, Note_on_c, 10, 62, 60
13, 83968, Note_on_c, 10, 62, 0
13, 84000, Note_on_c, 10, 62, 60
13, 84128, Note_on_c, 10, 62, 0
13, 84160, Note_on_c, 10, 62, 60
13, 84288, Note_on_c, 10, 62, 0
13, 84320, Note_on_c, 10, 62, 60
13, 84448, Note_on_c, 10, 62, 0
13, 84480, Note_on_c, 10, 62, 60
13, 84608, Note_on_c, 10, 62, 0
13, 84640, Note_on_c, 10, 62, 60
13, 84768, Note_on_c, 10, 62, 0
13, 84800, Note_on_c, 10, 62, 60
13, 84928, Note_on_c, 10, 62, 0
13, 84960, Note_on_c, 10, 50, 60
13, 84960, Note_on_c, 10, 59, 60
13, 85088, Note_on_c, 10, 59, 0
13, 85088, Note_on_c, 10, 50, 0
13, 85120, Note_on_c, 10, 59, 60
13, 85120, Note_on_c, 10, 50, 60
13, 85248, Note_on_c, 10, 50, 0
13, 85248, Note_on_c, 10, 59, 0
13, 85280, Note_on_c, 10, 59, 60
13, 85280, Note_on_c, 10, 50, 60
13, 85408, Note_on_c, 10, 50, 0
13, 85408, Note_on_c, 10, 59, 0
13, 85440, Note_on_c, 10, 48, 60
13, 85440, Note_on_c, 10, 60, 60
13, 85568, Note_on_c, 10, 60, 0
13, 85568, Note_on_c, 10, 48, 0
13, 85600, Note_on_c, 10, 60, 60
13, 85600, Note_on_c, 10, 48, 60
13, 85728, Note_on_c, 10, 48, 0
13, 85728, Note_on_c, 10, 60, 0
13, 85760, Note_on_c, 10, 60, 60
13, 85760, Note_on_c, 10, 48, 60
13, 85888, Note_on_c, 10, 48, 0
13, 85888, Note_on_c, 10, 60, 0
13, 85920, Note_on_c, 10, 55, 60
13, 85920, Note_on_c, 10, 51, 60
13, 86048, Note_on_c, 10, 51, 0
13, 86048, Note_on_c, 10, 55, 0
13, 86080, Note_on_c, 10, 51, 60
13, 86080, Note_on_c, 10, 55, 60
13, 86208, Note_on_c, 10, 55, 0
13, 86208, Note_on_c, 10, 51, 0
13, 86240, Note_on_c, 10, 51, 60
13, 86240, Note_on_c, 10, 55, 60
13, 86368, Note_on_c, 10, 55, 0
13, 86368, Note_on_c, 10, 51, 0
13, 86400, Note_on_c, 10, 53, 60
13, 86400, Note_on_c, 10, 50, 60
13, 86528, Note_on_c, 10, 50, 0
13, 86528, Note_on_c, 10, 53, 0
13, 86560, Note_on_c, 10, 50, 60
13, 86560, Note_on_c, 10, 53, 60
13, 86688, Note_on_c, 10, 53, 0
13, 86688, Note_on_c, 10, 50, 0
13, 86720, Note_on_c, 10, 53, 60
13, 86720, Note_on_c, 10, 50, 60
13, 86848, Note_on_c, 10, 50, 0
13, 86848, Note_on_c, 10, 53, 0
13, 86880, Note_on_c, 10, 53, 60
13, 86880, Note_on_c, 10, 50, 60
13, 87008, Note_on_c, 10, 50, 0
13, 87008, Note_on_c, 10, 53, 0
13, 87040, Note_on_c, 10, 50, 60
13, 87040, Note_on_c, 10, 53, 60
13, 87168, Note_on_c, 10, 53, 0
13, 87168, Note_on_c, 10, 50, 0
13, 87200, Note_on_c, 10, 53, 60
13, 87200, Note_on_c, 10, 50, 60
13, 87328, Note_on_c, 10, 50, 0
13, 87328, Note_on_c, 10, 53, 0
13, 87360, Note_on_c, 10, 53, 60
13, 87360, Note_on_c, 10, 59, 60
13, 87488, Note_on_c, 10, 59, 0
13, 87488, Note_on_c, 10, 53, 0
13, 87520, Note_on_c, 10, 59, 60
13, 87520, Note_on_c, 10, 53, 60
13, 87648, Note_on_c, 10, 53, 0
13, 87648, Note_on_c, 10, 59, 0
13, 87680, Note_on_c, 10, 53, 60
13, 87680, Note_on_c, 10, 59, 60
13, 87808, Note_on_c, 10, 59, 0
13, 87808, Note_on_c, 10, 53, 0
13, 87840, Note_on_c, 10, 53, 60
13, 87840, Note_on_c, 10, 59, 60
13, 87968, Note_on_c, 10, 59, 0
13, 87968, Note_on_c, 10, 53, 0
13, 88000, Note_on_c, 10, 59, 60
13, 88000, Note_on_c, 10, 53, 60
13, 88128, Note_on_c, 10, 53, 0
13, 88128, Note_on_c, 10, 59, 0
13, 88160, Note_on_c, 10, 59, 60
13, 88160, Note_on_c, 10, 53, 60
13, 88288, Note_on_c, 10, 53, 0
13, 88288, Note_on_c, 10, 59, 0
13, 88320, Note_on_c, 10, 55, 60
13, 88320, Note_on_c, 10, 51, 60
13, 88448, Note_on_c, 10, 51, 0
13, 88448, Note_on_c, 10, 55, 0
13, 88480, Note_on_c, 10, 51, 60
13, 88480, Note_on_c, 10, 55, 60
13, 88608, Note_on_c, 10, 55, 0
13, 88608, Note_on_c, 10, 51, 0
13, 88640, Note_on_c, 10, 51, 60
13, 88640, Note_on_c, 10, 55, 60
13, 88768, Note_on_c, 10, 55, 0
13, 88768, Note_on_c, 10, 51, 0
13, 88800, Note_on_c, 10, 51, 60
13, 88800, Note_on_c, 10, 55, 60
13, 88928, Note_on_c, 10, 55, 0
13, 88928, Note_on_c, 10, 51, 0
13, 88960, Note_on_c, 10, 51, 60
13, 88960, Note_on_c, 10, 55, 60
13, 89088, Note_on_c, 10, 55, 0
13, 89088, Note_on_c, 10, 51, 0
13, 89120, Note_on_c, 10, 55, 60
13, 89120, Note_on_c, 10, 51, 60
13, 89248, Note_on_c, 10, 51, 0
13, 89248, Note_on_c, 10, 55, 0
13, 89280, Note_on_c, 10, 55, 60
13, 89280, Note_on_c, 10, 48, 60
13, 89408, Note_on_c, 10, 48, 0
13, 89408, Note_on_c, 10, 55, 0
13, 89440, Note_on_c, 10, 48, 60
13, 89440, Note_on_c, 10, 55, 60
13, 89568, Note_on_c, 10, 55, 0
13, 89568, Note_on_c, 10, 48, 0
13, 89600, Note_on_c, 10, 55, 60
13, 89600, Note_on_c, 10, 48, 60
13, 89728, Note_on_c, 10, 48, 0
13, 89728, Note_on_c, 10, 55, 0
13, 89760, Note_on_c, 10, 55, 60
13, 89760, Note_on_c, 10, 48, 60
13, 89888, Note_on_c, 10, 48, 0
13, 89888, Note_on_c, 10, 55, 0
13, 89920, Note_on_c, 10, 55, 60
13, 89920, Note_on_c, 10, 48, 60
13, 90048, Note_on_c, 10, 48, 0
13, 90048, Note_on_c, 10, 55, 0
13, 90080, Note_on_c, 10, 55, 60
13, 90080, Note_on_c, 10, 48, 60
13, 90208, Note_on_c, 10, 48, 0
13, 90208, Note_on_c, 10, 55, 0
13, 90240, Note_on_c, 10, 59, 60
13, 90240, Note_on_c, 10, 56, 60
13, 90368, Note_on_c, 10, 56, 0
13, 90368, Note_on_c, 10, 59, 0
13, 90400, Note_on_c, 10, 59, 60
13, 90400, Note_on_c, 10, 56, 60
13, 90528, Note_on_c, 10, 56, 0
13, 90528, Note_on_c, 10, 59, 0
13, 90560, Note_on_c, 10, 56, 60
13, 90560, Note_on_c, 10, 59, 60
13, 90688, Note_on_c, 10, 59, 0
13, 90688, Note_on_c, 10, 56, 0
13, 90720, Note_on_c, 10, 56, 60
13, 90720, Note_on_c, 10, 59, 60
13, 90848, Note_on_c, 10, 59, 0
13, 90848, Note_on_c, 10, 56, 0
13, 90880, Note_on_c, 10, 56, 60
13, 90880, Note_on_c, 10, 59, 60
13, 91008, Note_on_c, 10, 59, 0
13, 91008, Note_on_c, 10, 56, 0
13, 91040, Note_on_c, 10, 59, 60
13, 91040, Note_on_c, 10, 56, 60
13, 91168, Note_on_c, 10, 56, 0
13, 91168, Note_on_c, 10, 59, 0
13, 91200, Note_on_c, 10, 59, 60
13, 91200, Note_on_c, 10, 55, 60
13, 91328, Note_on_c, 10, 55, 0
13, 91328, Note_on_c, 10, 59, 0
13, 91360, Note_on_c, 10, 55, 60
13, 91360, Note_on_c, 10, 59, 60
13, 91488, Note_on_c, 10, 59, 0
13, 91488, Note_on_c, 10, 55, 0
13, 91520, Note_on_c, 10, 59, 60
13, 91520, Note_on_c, 10, 55, 60
13, 91648, Note_on_c, 10, 55, 0
13, 91648, Note_on_c, 10, 59, 0
13, 91680, Note_on_c, 10, 62, 60
13, 91680, Note_on_c, 10, 55, 60
13, 91808, Note_on_c, 10, 55, 0
13, 91808, Note_on_c, 10, 62, 0
13, 91840, Note_on_c, 10, 62, 60
13, 91840, Note_on_c, 10, 55, 60
13, 91968, Note_on_c, 10, 55, 0
13, 91968, Note_on_c, 10, 62, 0
13, 92000, Note_on_c, 10, 62, 60
13, 92000, Note_on_c, 10, 55, 60
13, 92128, Note_on_c, 10, 55, 0
13, 92128, Note_on_c, 10, 62, 0
13, 92160, Note_on_c, 10, 60, 60
13, 92160, Note_on_c, 10, 54, 60
13, 92288, Note_on_c, 10, 54, 0
13, 92288, Note_on_c, 10, 60, 0
13, 92320, Note_on_c, 10, 60, 60
13, 92320, Note_on_c, 10, 54, 60
13, 92448, Note_on_c, 10, 54, 0
13, 92448, Note_on_c, 10, 60, 0
13, 92480, Note_on_c, 10, 54, 60
13, 92480, Note_on_c, 10, 60, 60
13, 92608, Note_on_c, 10, 60, 0
13, 92608, Note_on_c, 10, 54, 0
13, 92640, Note_on_c, 10, 54, 60
13, 92640, Note_on_c, 10, 60, 60
13, 92768, Note_on_c, 10, 60, 0
13, 92768, Note_on_c, 10, 54, 0
13, 92800, Note_on_c, 10, 60, 60
13, 92800, Note_on_c, 10, 54, 60
13, 92928, Note_on_c, 10, 54, 0
13, 92928, Note_on_c, 10, 60, 0
13, 92960, Note_on_c, 10, 60, 60
13, 92960, Note_on_c, 10, 54, 60
13, 93088, Note_on_c, 10, 54, 0
13, 93088, Note_on_c, 10, 60, 0
13, 93120, Note_on_c, 10, 57, 60
13, 93120, Note_on_c, 10, 60, 60
13, 93248, Note_on_c, 10, 60, 0
13, 93248, Note_on_c, 10, 57, 0
13, 93280, Note_on_c, 10, 57, 60
13, 93280, Note_on_c, 10, 60, 60
13, 93408, Note_on_c, 10, 60, 0
13, 93408, Note_on_c, 10, 57, 0
13, 93440, Note_on_c, 10, 60, 60
13, 93440, Note_on_c, 10, 57, 60
13, 93568, Note_on_c, 10, 57, 0
13, 93568, Note_on_c, 10, 60, 0
13, 93600, Note_on_c, 10, 63, 60
13, 93600, Note_on_c, 10, 60, 60
13, 93728, Note_on_c, 10, 60, 0
13, 93728, Note_on_c, 10, 63, 0
13, 93760, Note_on_c, 10, 63, 60
13, 93760, Note_on_c, 10, 60, 60
13, 93888, Note_on_c, 10, 60, 0
13, 93888, Note_on_c, 10, 63, 0
13, 93920, Note_on_c, 10, 63, 60
13, 93920, Note_on_c, 10, 60, 60
13, 94048, Note_on_c, 10, 60, 0
13, 94048, Note_on_c, 10, 63, 0
13, 94080, Note_on_c, 10, 62, 60
13, 94080, Note_on_c, 10, 60, 60
13, 94208, Note_on_c, 10, 60, 0
13, 94208, Note_on_c, 10, 62, 0
13, 94240, Note_on_c, 10, 62, 60
13, 94240, Note_on_c, 10, 60, 60
13, 94368, Note_on_c, 10, 60, 0
13, 94368, Note_on_c, 10, 62, 0
13, 94400, Note_on_c, 10, 60, 60
13, 94400, Note_on_c, 10, 62, 60
13, 94528, Note_on_c, 10, 62, 0
13, 94528, Note_on_c, 10, 60, 0
13, 94560, Note_on_c, 10, 60, 60
13, 94560, Note_on_c, 10, 62, 60
13, 94688, Note_on_c, 10, 62, 0
13, 94688, Note_on_c, 10, 60, 0
13, 94720, Note_on_c, 10, 62, 60
13, 94720, Note_on_c, 10, 60, 60
13, 94848, Note_on_c, 10, 60, 0
13, 94848, Note_on_c, 10, 62, 0
13, 94880, Note_on_c, 10, 62, 60
13, 94880, Note_on_c, 10, 60, 60
13, 95008, Note_on_c, 10, 60, 0
13, 95008, Note_on_c, 10, 62, 0
13, 95040, Note_on_c, 10, 59, 60
13, 95040, Note_on_c, 10, 62, 60
13, 95168, Note_on_c, 10, 62, 0
13, 95168, Note_on_c, 10, 59, 0
13, 95200, Note_on_c, 10, 59, 60
13, 95200, Note_on_c, 10, 62, 60
13, 95328, Note_on_c, 10, 62, 0
13, 95328, Note_on_c, 10, 59, 0
13, 95360, Note_on_c, 10, 59, 60
13, 95360, Note_on_c, 10, 62, 60
13, 95488, Note_on_c, 10, 62, 0
13, 95488, Note_on_c, 10, 59, 0
13, 95520, Note_on_c, 10, 59, 60
13, 95520, Note_on_c, 10, 55, 60
13, 95648, Note_on_c, 10, 55, 0
13, 95648, Note_on_c, 10, 59, 0
13, 95680, Note_on_c, 10, 59, 60
13, 95680, Note_on_c, 10, 55, 60
13, 95808, Note_on_c, 10, 55, 0
13, 95808, Note_on_c, 10, 59, 0
13, 95840, Note_on_c, 10, 55, 60
13, 95840, Note_on_c, 10, 59, 60
13, 95968, Note_on_c, 10, 59, 0
13, 95968, Note_on_c, 10, 55, 0
13, 96000, Note_on_c, 10, 55, 60
13, 96000, Note_on_c, 10, 60, 60
13, 96384, Note_on_c, 10, 60, 0
13, 96384, Note_on_c, 10, 55, 0
13, 105600, Note_on_c, 10, 52, 60
13, 105728, Note_on_c, 10, 52, 0
13, 105760, Note_on_c, 10, 52, 60
13, 105888, Note_on_c, 10, 52, 0
13, 105920, Note_on_c, 10, 52, 60
13, 106048, Note_on_c, 10, 52, 0
13, 106080, Note_on_c, 10, 52, 60
13, 106208, Note_on_c, 10, 52, 0
13, 106240, Note_on_c, 10, 52, 60
13, 106368, Note_on_c, 10, 52, 0
13, 106400, Note_on_c, 10, 52, 60
13, 106528, Note_on_c, 10, 52, 0
13, 106560, Note_on_c, 10, 52, 60
13, 106688, Note_on_c, 10, 52, 0
13, 106720, Note_on_c, 10, 52, 60
13, 106848, Note_on_c, 10, 52, 0
13, 106880, Note_on_c, 10, 52, 60
13, 107008, Note_on_c, 10, 52, 0
13, 107040, Note_on_c, 10, 52, 60
13, 107168, Note_on_c, 10, 52, 0
13, 107200, Note_on_c, 10, 52, 60
13, 107328, Note_on_c, 10, 52, 0
13, 107360, Note_on_c, 10, 52, 60
13, 107488, Note_on_c, 10, 52, 0
13, 107520, Note_on_c, 10, 54, 60
13, 107680, Note_on_c, 10, 54, 0
13, 107680, Note_on_c, 10, 57, 60
13, 107808, Note_on_c, 10, 57, 0
13, 107840, Note_on_c, 10, 57, 60
13, 107968, Note_on_c, 10, 57, 0
13, 108000, Note_on_c, 10, 57, 60
13, 108128, Note_on_c, 10, 57, 0
13, 108160, Note_on_c, 10, 57, 60
13, 108288, Note_on_c, 10, 57, 0
13, 108320, Note_on_c, 10, 57, 60
13, 108448, Note_on_c, 10, 57, 0
13, 108480, Note_on_c, 10, 57, 60
13, 108608, Note_on_c, 10, 57, 0
13, 108640, Note_on_c, 10, 57, 60
13, 108768, Note_on_c, 10, 57, 0
13, 108800, Note_on_c, 10, 57, 60
13, 108928, Note_on_c, 10, 57, 0
13, 108960, Note_on_c, 10, 60, 60
13, 109088, Note_on_c, 10, 60, 0
13, 109120, Note_on_c, 10, 60, 60
13, 109248, Note_on_c, 10, 60, 0
13, 109280, Note_on_c, 10, 60, 60
13, 109408, Note_on_c, 10, 60, 0
13, 109440, Note_on_c, 10, 60, 60
13, 109568, Note_on_c, 10, 60, 0
13, 109600, Note_on_c, 10, 60, 60
13, 109728, Note_on_c, 10, 60, 0
13, 109760, Note_on_c, 10, 60, 60
13, 109888, Note_on_c, 10, 60, 0
13, 109920, Note_on_c, 10, 60, 60
13, 110048, Note_on_c, 10, 60, 0
13, 110080, Note_on_c, 10, 60, 60
13, 110208, Note_on_c, 10, 60, 0
13, 110240, Note_on_c, 10, 60, 60
13, 110368, Note_on_c, 10, 60, 0
13, 110400, Note_on_c, 10, 60, 60
13, 110528, Note_on_c, 10, 60, 0
13, 110560, Note_on_c, 10, 60, 60
13, 110688, Note_on_c, 10, 60, 0
13, 110720, Note_on_c, 10, 60, 60
13, 110848, Note_on_c, 10, 60, 0
13, 110880, Note_on_c, 10, 60, 60
13, 111008, Note_on_c, 10, 60, 0
13, 111040, Note_on_c, 10, 60, 60
13, 111168, Note_on_c, 10, 60, 0
13, 111200, Note_on_c, 10, 60, 60
13, 111328, Note_on_c, 10, 60, 0
13, 111360, Note_on_c, 10, 58, 60
13, 111744, Note_on_c, 10, 58, 0
13, 119040, Note_on_c, 10, 58, 60
13, 119424, Note_on_c, 10, 58, 0
13, 120000, Note_on_c, 10, 58, 60
13, 120384, Note_on_c, 10, 58, 0
13, 120960, Note_on_c, 10, 60, 60
13, 121344, Note_on_c, 10, 60, 0
13, 121920, Note_on_c, 10, 60, 60
13, 122304, Note_on_c, 10, 60, 0
13, 122880, Note_on_c, 10, 65, 60
13, 123264, Note_on_c, 10, 65, 0
13, 123840, Note_on_c, 10, 65, 60
13, 124224, Note_on_c, 10, 65, 0
13, 124800, Note_on_c, 10, 58, 60
13, 125184, Note_on_c, 10, 58, 0
13, 125760, Note_on_c, 10, 58, 60
13, 126144, Note_on_c, 10, 58, 0
13, 126720, Note_on_c, 10, 60, 60
13, 126720, Note_on_c, 10, 63, 100
13, 126848, Note_on_c, 10, 63, 0
13, 126848, Note_on_c, 10, 60, 0
13, 126880, Note_on_c, 10, 63, 80
13, 126880, Note_on_c, 10, 60, 60
13, 127008, Note_on_c, 10, 60, 0
13, 127008, Note_on_c, 10, 63, 0
13, 127040, Note_on_c, 10, 60, 60
13, 127040, Note_on_c, 10, 63, 80
13, 127168, Note_on_c, 10, 63, 0
13, 127168, Note_on_c, 10, 60, 0
13, 127200, Note_on_c, 10, 60, 60
13, 127200, Note_on_c, 10, 63, 80
13, 127328, Note_on_c, 10, 63, 0
13, 127328, Note_on_c, 10, 60, 0
13, 127360, Note_on_c, 10, 60, 60
13, 127360, Note_on_c, 10, 63, 60
13, 127488, Note_on_c, 10, 63, 0
13, 127488, Note_on_c, 10, 60, 0
13, 127520, Note_on_c, 10, 60, 60
13, 127520, Note_on_c, 10, 63, 60
13, 127648, Note_on_c, 10, 63, 0
13, 127648, Note_on_c, 10, 60, 0
13, 127680, Note_on_c, 10, 60, 60
13, 127680, Note_on_c, 10, 63, 60
13, 127808, Note_on_c, 10, 63, 0
13, 127808, Note_on_c, 10, 60, 0
13, 127840, Note_on_c, 10, 60, 60
13, 127840, Note_on_c, 10, 63, 60
13, 127968, Note_on_c, 10, 63, 0
13, 127968, Note_on_c, 10, 60, 0
13, 128000, Note_on_c, 10, 63, 60
13, 128000, Note_on_c, 10, 60, 60
13, 128128, Note_on_c, 10, 60, 0
13, 128128, Note_on_c, 10, 63, 0
13, 128160, Note_on_c, 10, 63, 60
13, 128160, Note_on_c, 10, 60, 60
13, 128288, Note_on_c, 10, 60, 0
13, 128288, Note_on_c, 10, 63, 0
13, 128320, Note_on_c, 10, 63, 60
13, 128320, Note_on_c, 10, 60, 60
13, 128448, Note_on_c, 10, 60, 0
13, 128448, Note_on_c, 10, 63, 0
13, 128480, Note_on_c, 10, 60, 60
13, 128480, Note_on_c, 10, 63, 60
13, 128608, Note_on_c, 10, 63, 0
13, 128608, Note_on_c, 10, 60, 0
13, 128640, Note_on_c, 10, 58, 60
13, 128640, Note_on_c, 10, 62, 100
13, 128768, Note_on_c, 10, 62, 0
13, 128768, Note_on_c, 10, 58, 0
13, 128800, Note_on_c, 10, 62, 80
13, 128800, Note_on_c, 10, 58, 60
13, 128928, Note_on_c, 10, 58, 0
13, 128928, Note_on_c, 10, 62, 0
13, 128960, Note_on_c, 10, 62, 80
13, 128960, Note_on_c, 10, 58, 60
13, 129088, Note_on_c, 10, 58, 0
13, 129088, Note_on_c, 10, 62, 0
13, 129120, Note_on_c, 10, 62, 80
13, 129120, Note_on_c, 10, 58, 60
13, 129248, Note_on_c, 10, 58, 0
13, 129248, Note_on_c, 10, 62, 0
13, 129280, Note_on_c, 10, 62, 60
13, 129280, Note_on_c, 10, 58, 60
13, 129408, Note_on_c, 10, 58, 0
13, 129408, Note_on_c, 10, 62, 0
13, 129440, Note_on_c, 10, 62, 60
13, 129440, Note_on_c, 10, 58, 60
13, 129568, Note_on_c, 10, 58, 0
13, 129568, Note_on_c, 10, 62, 0
13, 129600, Note_on_c, 10, 62, 60
13, 129600, Note_on_c, 10, 58, 60
13, 129728, Note_on_c, 10, 58, 0
13, 129728, Note_on_c, 10, 62, 0
13, 129760, Note_on_c, 10, 58, 60
13, 129760, Note_on_c, 10, 62, 60
13, 129888, Note_on_c, 10, 62, 0
13, 129888, Note_on_c, 10, 58, 0
13, 129920, Note_on_c, 10, 62, 60
13, 129920, Note_on_c, 10, 58, 60
13, 130048, Note_on_c, 10, 58, 0
13, 130048, Note_on_c, 10, 62, 0
13, 130080, Note_on_c, 10, 62, 60
13, 130080, Note_on_c, 10, 58, 60
13, 130208, Note_on_c, 10, 58, 0
13, 130208, Note_on_c, 10, 62, 0
13, 130240, Note_on_c, 10, 62, 60
13, 130240, Note_on_c, 10, 58, 60
13, 130368, Note_on_c, 10, 58, 0
13, 130368, Note_on_c, 10, 62, 0
13, 130400, Note_on_c, 10, 58, 60
13, 130400, Note_on_c, 10, 62, 60
13, 130528, Note_on_c, 10, 62, 0
13, 130528, Note_on_c, 10, 58, 0
13, 130560, Note_on_c, 10, 58, 60
13, 130560, Note_on_c, 10, 61, 100
13, 130688, Note_on_c, 10, 61, 0
13, 130688, Note_on_c, 10, 58, 0
13, 130720, Note_on_c, 10, 58, 60
13, 130720, Note_on_c, 10, 61, 80
13, 130848, Note_on_c, 10, 61, 0
13, 130848, Note_on_c, 10, 58, 0
13, 130880, Note_on_c, 10, 61, 80
13, 130880, Note_on_c, 10, 58, 60
13, 131008, Note_on_c, 10, 58, 0
13, 131008, Note_on_c, 10, 61, 0
13, 131040, Note_on_c, 10, 58, 60
13, 131040, Note_on_c, 10, 61, 80
13, 131168, Note_on_c, 10, 61, 0
13, 131168, Note_on_c, 10, 58, 0
13, 131200, Note_on_c, 10, 58, 60
13, 131200, Note_on_c, 10, 61, 60
13, 131328, Note_on_c, 10, 61, 0
13, 131328, Note_on_c, 10, 58, 0
13, 131360, Note_on_c, 10, 58, 60
13, 131360, Note_on_c, 10, 61, 60
13, 131488, Note_on_c, 10, 61, 0
13, 131488, Note_on_c, 10, 58, 0
13, 131520, Note_on_c, 10, 61, 60
13, 131520, Note_on_c, 10, 58, 60
13, 131648, Note_on_c, 10, 58, 0
13, 131648, Note_on_c, 10, 61, 0
13, 131680, Note_on_c, 10, 61, 60
13, 131680, Note_on_c, 10, 58, 60
13, 131808, Note_on_c, 10, 58, 0
13, 131808, Note_on_c, 10, 61, 0
13, 131840, Note_on_c, 10, 58, 60
13, 131840, Note_on_c, 10, 61, 60
13, 131968, Note_on_c, 10, 61, 0
13, 131968, Note_on_c, 10, 58, 0
13, 132000, Note_on_c, 10, 61, 60
13, 132000, Note_on_c, 10, 58, 60
13, 132128, Note_on_c, 10, 58, 0
13, 132128, Note_on_c, 10, 61, 0
13, 132160, Note_on_c, 10, 58, 60
13, 132160, Note_on_c, 10, 61, 60
13, 132288, Note_on_c, 10, 61, 0
13, 132288, Note_on_c, 10, 58, 0
13, 132320, Note_on_c, 10, 61, 60
13, 132320, Note_on_c, 10, 58, 60
13, 132448, Note_on_c, 10, 58, 0
13, 132448, Note_on_c, 10, 61, 0
13, 132480, Note_on_c, 10, 56, 60
13, 132480, Note_on_c, 10, 60, 100
13, 132608, Note_on_c, 10, 60, 0
13, 132608, Note_on_c, 10, 56, 0
13, 132640, Note_on_c, 10, 56, 60
13, 132640, Note_on_c, 10, 60, 80
13, 132768, Note_on_c, 10, 60, 0
13, 132768, Note_on_c, 10, 56, 0
13, 132800, Note_on_c, 10, 60, 80
13, 132800, Note_on_c, 10, 56, 60
13, 132928, Note_on_c, 10, 56, 0
13, 132928, Note_on_c, 10, 60, 0
13, 132960, Note_on_c, 10, 56, 60
13, 132960, Note_on_c, 10, 60, 80
13, 133088, Note_on_c, 10, 60, 0
13, 133088, Note_on_c, 10, 56, 0
13, 133120, Note_on_c, 10, 60, 60
13, 133120, Note_on_c, 10, 56, 60
13, 133248, Note_on_c, 10, 56, 0
13, 133248, Note_on_c, 10, 60, 0
13, 133280, Note_on_c, 10, 60, 60
13, 133280, Note_on_c, 10, 56, 60
13, 133408, Note_on_c, 10, 56, 0
13, 133408, Note_on_c, 10, 60, 0
13, 133440, Note_on_c, 10, 60, 60
13, 133440, Note_on_c, 10, 56, 60
13, 133568, Note_on_c, 10, 56, 0
13, 133568, Note_on_c, 10, 60, 0
13, 133600, Note_on_c, 10, 56, 60
13, 133600, Note_on_c, 10, 60, 60
13, 133728, Note_on_c, 10, 60, 0
13, 133728, Note_on_c, 10, 56, 0
13, 133760, Note_on_c, 10, 60, 60
13, 133760, Note_on_c, 10, 56, 60
13, 133888, Note_on_c, 10, 56, 0
13, 133888, Note_on_c, 10, 60, 0
13, 133920, Note_on_c, 10, 56, 60
13, 133920, Note_on_c, 10, 60, 60
13, 134048, Note_on_c, 10, 60, 0
13, 134048, Note_on_c, 10, 56, 0
13, 134080, Note_on_c, 10, 60, 60
13, 134080, Note_on_c, 10, 56, 60
13, 134208, Note_on_c, 10, 56, 0
13, 134208, Note_on_c, 10, 60, 0
13, 134240, Note_on_c, 10, 56, 60
13, 134240, Note_on_c, 10, 60, 60
13, 134368, Note_on_c, 10, 60, 0
13, 134368, Note_on_c, 10, 56, 0
13, 134400, Note_on_c, 10, 53, 60
13, 136320, Note_on_c, 10, 53, 0
13, 136320, Note_on_c, 10, 55, 60
13, 136704, Note_on_c, 10, 55, 0
13, 157440, Note_on_c, 10, 64, 60
13, 157440, Note_on_c, 10, 60, 60
13, 157568, Note_on_c, 10, 60, 0
13, 157568, Note_on_c, 10, 64, 0
13, 157600, Note_on_c, 10, 64, 60
13, 157600, Note_on_c, 10, 60, 60
13, 157728, Note_on_c, 10, 60, 0
13, 157728, Note_on_c, 10, 64, 0
13, 157760, Note_on_c, 10, 64, 60
13, 157760, Note_on_c, 10, 60, 60
13, 157888, Note_on_c, 10, 60, 0
13, 157888, Note_on_c, 10, 64, 0
13, 157920, Note_on_c, 10, 64, 60
13, 157920, Note_on_c, 10, 55, 60
13, 158048, Note_on_c, 10, 55, 0
13, 158048, Note_on_c, 10, 64, 0
13, 158080, Note_on_c, 10, 64, 60
13, 158080, Note_on_c, 10, 55, 60
13, 158208, Note_on_c, 10, 55, 0
13, 158208, Note_on_c, 10, 64, 0
13, 158240, Note_on_c, 10, 64, 60
13, 158240, Note_on_c, 10, 55, 60
13, 158368, Note_on_c, 10, 55, 0
13, 158368, Note_on_c, 10, 64, 0
13, 158400, Note_on_c, 10, 65, 60
13, 158400, Note_on_c, 10, 53, 60
13, 158528, Note_on_c, 10, 53, 0
13, 158528, Note_on_c, 10, 65, 0
13, 158560, Note_on_c, 10, 65, 60
13, 158560, Note_on_c, 10, 53, 60
13, 158688, Note_on_c, 10, 53, 0
13, 158688, Note_on_c, 10, 65, 0
13, 158720, Note_on_c, 10, 53, 60
13, 158720, Note_on_c, 10, 65, 60
13, 158848, Note_on_c, 10, 65, 0
13, 158848, Note_on_c, 10, 53, 0
13, 158880, Note_on_c, 10, 60, 60
13, 158880, Note_on_c, 10, 56, 60
13, 159008, Note_on_c, 10, 56, 0
13, 159008, Note_on_c, 10, 60, 0
13, 159040, Note_on_c, 10, 60, 60
13, 159040, Note_on_c, 10, 56, 60
13, 159168, Note_on_c, 10, 56, 0
13, 159168, Note_on_c, 10, 60, 0
13, 159200, Note_on_c, 10, 56, 60
13, 159200, Note_on_c, 10, 60, 60
13, 159328, Note_on_c, 10, 60, 0
13, 159328, Note_on_c, 10, 56, 0
13, 159360, Note_on_c, 10, 55, 60
13, 159360, Note_on_c, 10, 58, 60
13, 159488, Note_on_c, 10, 58, 0
13, 159488, Note_on_c, 10, 55, 0
13, 159520, Note_on_c, 10, 55, 60
13, 159520, Note_on_c, 10, 58, 60
13, 159648, Note_on_c, 10, 58, 0
13, 159648, Note_on_c, 10, 55, 0
13, 159680, Note_on_c, 10, 58, 60
13, 159680, Note_on_c, 10, 55, 60
13, 159808, Note_on_c, 10, 55, 0
13, 159808, Note_on_c, 10, 58, 0
13, 159840, Note_on_c, 10, 55, 60
13, 159840, Note_on_c, 10, 58, 60
13, 159968, Note_on_c, 10, 58, 0
13, 159968, Note_on_c, 10, 55, 0
13, 160000, Note_on_c, 10, 58, 60
13, 160000, Note_on_c, 10, 55, 60
13, 160128, Note_on_c, 10, 55, 0
13, 160128, Note_on_c, 10, 58, 0
13, 160160, Note_on_c, 10, 55, 60
13, 160160, Note_on_c, 10, 58, 60
13, 160288, Note_on_c, 10, 58, 0
13, 160288, Note_on_c, 10, 55, 0
13, 160320, Note_on_c, 10, 52, 60
13, 160320, Note_on_c, 10, 58, 60
13, 160448, Note_on_c, 10, 58, 0
13, 160448, Note_on_c, 10, 52, 0
13, 160480, Note_on_c, 10, 52, 60
13, 160480, Note_on_c, 10, 58, 60
13, 160608, Note_on_c, 10, 58, 0
13, 160608, Note_on_c, 10, 52, 0
13, 160640, Note_on_c, 10, 52, 60
13, 160640, Note_on_c, 10, 58, 60
13, 160768, Note_on_c, 10, 58, 0
13, 160768, Note_on_c, 10, 52, 0
13, 160800, Note_on_c, 10, 58, 60
13, 160800, Note_on_c, 10, 52, 60
13, 160928, Note_on_c, 10, 52, 0
13, 160928, Note_on_c, 10, 58, 0
13, 160960, Note_on_c, 10, 58, 60
13, 160960, Note_on_c, 10, 52, 60
13, 161088, Note_on_c, 10, 52, 0
13, 161088, Note_on_c, 10, 58, 0
13, 161120, Note_on_c, 10, 58, 60
13, 161120, Note_on_c, 10, 52, 60
13, 161248, Note_on_c, 10, 52, 0
13, 161248, Note_on_c, 10, 58, 0
13, 161280, Note_on_c, 10, 56, 60
13, 161280, Note_on_c, 10, 60, 60
13, 161408, Note_on_c, 10, 60, 0
13, 161408, Note_on_c, 10, 56, 0
13, 161440, Note_on_c, 10, 60, 60
13, 161440, Note_on_c, 10, 56, 60
13, 161568, Note_on_c, 10, 56, 0
13, 161568, Note_on_c, 10, 60, 0
13, 161600, Note_on_c, 10, 60, 60
13, 161600, Note_on_c, 10, 56, 60
13, 161728, Note_on_c, 10, 56, 0
13, 161728, Note_on_c, 10, 60, 0
13, 161760, Note_on_c, 10, 56, 60
13, 161760, Note_on_c, 10, 60, 60
13, 161888, Note_on_c, 10, 60, 0
13, 161888, Note_on_c, 10, 56, 0
13, 161920, Note_on_c, 10, 56, 60
13, 161920, Note_on_c, 10, 60, 60
13, 162048, Note_on_c, 10, 60, 0
13, 162048, Note_on_c, 10, 56, 0
13, 162080, Note_on_c, 10, 60, 60
13, 162080, Note_on_c, 10, 56, 60
13, 162208, Note_on_c, 10, 56, 0
13, 162208, Note_on_c, 10, 60, 0
13, 162240, Note_on_c, 10, 53, 60
13, 162240, Note_on_c, 10, 60, 60
13, 162368, Note_on_c, 10, 60, 0
13, 162368, Note_on_c, 10, 53, 0
13, 162400, Note_on_c, 10, 60, 60
13, 162400, Note_on_c, 10, 53, 60
13, 162528, Note_on_c, 10, 53, 0
13, 162528, Note_on_c, 10, 60, 0
13, 162560, Note_on_c, 10, 60, 60
13, 162560, Note_on_c, 10, 53, 60
13, 162688, Note_on_c, 10, 53, 0
13, 162688, Note_on_c, 10, 60, 0
13, 162720, Note_on_c, 10, 53, 60
13, 162720, Note_on_c, 10, 60, 60
13, 162848, Note_on_c, 10, 60, 0
13, 162848, Note_on_c, 10, 53, 0
13, 162880, Note_on_c, 10, 53, 60
13, 162880, Note_on_c, 10, 60, 60
13, 163008, Note_on_c, 10, 60, 0
13, 163008, Note_on_c, 10, 53, 0
13, 163040, Note_on_c, 10, 53, 60
13, 163040, Note_on_c, 10, 60, 60
13, 163168, Note_on_c, 10, 60, 0
13, 163168, Note_on_c, 10, 53, 0
13, 163200, Note_on_c, 10, 61, 60
13, 163200, Note_on_c, 10, 64, 60
13, 163328, Note_on_c, 10, 64, 0
13, 163328, Note_on_c, 10, 61, 0
13, 163360, Note_on_c, 10, 61, 60
13, 163360, Note_on_c, 10, 64, 60
13, 163488, Note_on_c, 10, 64, 0
13, 163488, Note_on_c, 10, 61, 0
13, 163520, Note_on_c, 10, 64, 60
13, 163520, Note_on_c, 10, 61, 60
13, 163648, Note_on_c, 10, 61, 0
13, 163648, Note_on_c, 10, 64, 0
13, 163680, Note_on_c, 10, 61, 60
13, 163680, Note_on_c, 10, 64, 60
13, 163808, Note_on_c, 10, 64, 0
13, 163808, Note_on_c, 10, 61, 0
13, 163840, Note_on_c, 10, 61, 60
13, 163840, Note_on_c, 10, 64, 60
13, 163968, Note_on_c, 10, 64, 0
13, 163968, Note_on_c, 10, 61, 0
13, 164000, Note_on_c, 10, 64, 60
13, 164000, Note_on_c, 10, 61, 60
13, 164128, Note_on_c, 10, 61, 0
13, 164128, Note_on_c, 10, 64, 0
13, 164160, Note_on_c, 10, 64, 60
13, 164160, Note_on_c, 10, 60, 60
13, 164288, Note_on_c, 10, 60, 0
13, 164288, Note_on_c, 10, 64, 0
13, 164320, Note_on_c, 10, 64, 60
13, 164320, Note_on_c, 10, 60, 60
13, 164448, Note_on_c, 10, 60, 0
13, 164448, Note_on_c, 10, 64, 0
13, 164480, Note_on_c, 10, 64, 60
13, 164480, Note_on_c, 10, 60, 60
13, 164608, Note_on_c, 10, 60, 0
13, 164608, Note_on_c, 10, 64, 0
13, 164640, Note_on_c, 10, 60, 60
13, 164640, Note_on_c, 10, 67, 60
13, 164768, Note_on_c, 10, 67, 0
13, 164768, Note_on_c, 10, 60, 0
13, 164800, Note_on_c, 10, 60, 60
13, 164800, Note_on_c, 10, 67, 60
13, 164928, Note_on_c, 10, 67, 0
13, 164928, Note_on_c, 10, 60, 0
13, 164960, Note_on_c, 10, 60, 60
13, 164960, Note_on_c, 10, 67, 60
13, 165088, Note_on_c, 10, 67, 0
13, 165088, Note_on_c, 10, 60, 0
13, 165120, Note_on_c, 10, 59, 60
13, 165120, Note_on_c, 10, 65, 60
13, 165248, Note_on_c, 10, 65, 0
13, 165248, Note_on_c, 10, 59, 0
13, 165280, Note_on_c, 10, 59, 60
13, 165280, Note_on_c, 10, 65, 60
13, 165408, Note_on_c, 10, 65, 0
13, 165408, Note_on_c, 10, 59, 0
13, 165440, Note_on_c, 10, 59, 60
13, 165440, Note_on_c, 10, 65, 60
13, 165568, Note_on_c, 10, 65, 0
13, 165568, Note_on_c, 10, 59, 0
13, 165600, Note_on_c, 10, 65, 60
13, 165600, Note_on_c, 10, 59, 60
13, 165728, Note_on_c, 10, 59, 0
13, 165728, Note_on_c, 10, 65, 0
13, 165760, Note_on_c, 10, 59, 60
13, 165760, Note_on_c, 10, 65, 60
13, 165888, Note_on_c, 10, 65, 0
13, 165888, Note_on_c, 10, 59, 0
13, 165920, Note_on_c, 10, 59, 60
13, 165920, Note_on_c, 10, 65, 60
13, 166048, Note_on_c, 10, 65, 0
13, 166048, Note_on_c, 10, 59, 0
13, 166080, Note_on_c, 10, 65, 60
13, 166080, Note_on_c, 10, 62, 60
13, 166208, Note_on_c, 10, 62, 0
13, 166208, Note_on_c, 10, 65, 0
13, 166240, Note_on_c, 10, 65, 60
13, 166240, Note_on_c, 10, 62, 60
13, 166368, Note_on_c, 10, 62, 0
13, 166368, Note_on_c, 10, 65, 0
13, 166400, Note_on_c, 10, 65, 60
13, 166400, Note_on_c, 10, 62, 60
13, 166528, Note_on_c, 10, 62, 0
13, 166528, Note_on_c, 10, 65, 0
13, 166560, Note_on_c, 10, 65, 60
13, 166560, Note_on_c, 10, 68, 60
13, 166688, Note_on_c, 10, 68, 0
13, 166688, Note_on_c, 10, 65, 0
13, 166720, Note_on_c, 10, 68, 60
13, 166720, Note_on_c, 10, 65, 60
13, 166848, Note_on_c, 10, 65, 0
13, 166848, Note_on_c, 10, 68, 0
13, 166880, Note_on_c, 10, 65, 60
13, 166880, Note_on_c, 10, 68, 60
13, 167008, Note_on_c, 10, 68, 0
13, 167008, Note_on_c, 10, 65, 0
13, 167040, Note_on_c, 10, 67, 60
13, 167040, Note_on_c, 10, 65, 60
13, 167168, Note_on_c, 10, 65, 0
13, 167168, Note_on_c, 10, 67, 0
13, 167200, Note_on_c, 10, 67, 60
13, 167200, Note_on_c, 10, 65, 60
13, 167328, Note_on_c, 10, 65, 0
13, 167328, Note_on_c, 10, 67, 0
13, 167360, Note_on_c, 10, 65, 60
13, 167360, Note_on_c, 10, 67, 60
13, 167488, Note_on_c, 10, 67, 0
13, 167488, Note_on_c, 10, 65, 0
13, 167520, Note_on_c, 10, 65, 60
13, 167520, Note_on_c, 10, 67, 60
13, 167648, Note_on_c, 10, 67, 0
13, 167648, Note_on_c, 10, 65, 0
13, 167680, Note_on_c, 10, 65, 60
13, 167680, Note_on_c, 10, 67, 60
13, 167808, Note_on_c, 10, 67, 0
13, 167808, Note_on_c, 10, 65, 0
13, 167840, Note_on_c, 10, 67, 60
13, 167840, Note_on_c, 10, 65, 60
13, 167968, Note_on_c, 10, 65, 0
13, 167968, Note_on_c, 10, 67, 0
13, 168000, Note_on_c, 10, 67, 60
13, 168000, Note_on_c, 10, 64, 60
13, 168128, Note_on_c, 10, 64, 0
13, 168128, Note_on_c, 10, 67, 0
13, 168160, Note_on_c, 10, 67, 60
13, 168160, Note_on_c, 10, 64, 60
13, 168288, Note_on_c, 10, 64, 0
13, 168288, Note_on_c, 10, 67, 0
13, 168320, Note_on_c, 10, 67, 60
13, 168320, Note_on_c, 10, 64, 60
13, 168448, Note_on_c, 10, 64, 0
13, 168448, Note_on_c, 10, 67, 0
13, 168480, Note_on_c, 10, 55, 60
13, 168480, Note_on_c, 10, 60, 60
13, 168608, Note_on_c, 10, 60, 0
13, 168608, Note_on_c, 10, 55, 0
13, 168640, Note_on_c, 10, 60, 60
13, 168640, Note_on_c, 10, 55, 60
13, 168768, Note_on_c, 10, 55, 0
13, 168768, Note_on_c, 10, 60, 0
13, 168800, Note_on_c, 10, 60, 60
13, 168800, Note_on_c, 10, 55, 60
13, 168928, Note_on_c, 10, 55, 0
13, 168928, Note_on_c, 10, 60, 0
13, 168960, Note_on_c, 10, 60, 60
13, 168960, Note_on_c, 10, 57, 60
13, 169344, Note_on_c, 10, 57, 0
13, 169344, Note_on_c, 10, 60, 0
13, 169344, End_track
14, 0, Start_track
14, 0, Sequencer_specific, 04, 43, 00, 01, 00
14, 0, Program_c, 11, 48
14, 0, Control_c, 11, 7, 101
14, 0, Control_c, 11, 10, 84
14, 0, Control_c, 11, 91, 80
14, 1920, Note_on_c, 11, 53, 60
14, 2112, Note_on_c, 11, 53, 0
14, 2400, Note_on_c, 11, 57, 60
14, 2592, Note_on_c, 11, 57, 0
14, 2880, Note_on_c, 11, 60, 60
14, 3072, Note_on_c, 11, 60, 0
14, 3840, Note_on_c, 11, 53, 60
14, 4032, Note_on_c, 11, 53, 0
14, 4320, Note_on_c, 11, 57, 60
14, 4512, Note_on_c, 11, 57, 0
14, 4800, Note_on_c, 11, 60, 60
14, 4992, Note_on_c, 11, 60, 0
14, 5760, Note_on_c, 11, 53, 60
14, 5952, Note_on_c, 11, 53, 0
14, 6240, Note_on_c, 11, 57, 60
14, 6432, Note_on_c, 11, 57, 0
14, 6720, Note_on_c, 11, 60, 60
14, 6912, Note_on_c, 11, 60, 0
14, 7200, Note_on_c, 11, 53, 60
14, 7392, Note_on_c, 11, 53, 0
14, 7680, Note_on_c, 11, 48, 60
14, 7872, Note_on_c, 11, 48, 0
14, 8160, Note_on_c, 11, 52, 60
14, 8352, Note_on_c, 11, 52, 0
14, 8640, Note_on_c, 11, 55, 60
14, 8832, Note_on_c, 11, 55, 0
14, 9600, Note_on_c, 11, 48, 60
14, 9792, Note_on_c, 11, 48, 0
14, 10080, Note_on_c, 11, 52, 60
14, 10272, Note_on_c, 11, 52, 0
14, 10560, Note_on_c, 11, 55, 60
14, 10752, Note_on_c, 11, 55, 0
14, 11520, Note_on_c, 11, 48, 60
14, 11712, Note_on_c, 11, 48, 0
14, 12000, Note_on_c, 11, 52, 60
14, 12192, Note_on_c, 11, 52, 0
14, 12480, Note_on_c, 11, 55, 60
14, 12672, Note_on_c, 11, 55, 0
14, 12960, Note_on_c, 11, 48, 60
14, 13152, Note_on_c, 11, 48, 0
14, 13440, Note_on_c, 11, 53, 60
14, 13632, Note_on_c, 11, 53, 0
14, 13920, Note_on_c, 11, 57, 60
14, 14112, Note_on_c, 11, 57, 0
14, 14400, Note_on_c, 11, 60, 60
14, 14592, Note_on_c, 11, 60, 0
14, 15360, Note_on_c, 11, 45, 100
14, 15552, Note_on_c, 11, 45, 0
14, 15840, Note_on_c, 11, 48, 80
14, 16032, Note_on_c, 11, 48, 0
14, 16320, Note_on_c, 11, 53, 60
14, 16512, Note_on_c, 11, 53, 0
14, 17280, Note_on_c, 11, 46, 60
14, 17472, Note_on_c, 11, 46, 0
14, 17760, Note_on_c, 11, 50, 60
14, 17952, Note_on_c, 11, 50, 0
14, 18240, Note_on_c, 11, 53, 60
14, 18432, Note_on_c, 11, 53, 0
14, 19200, Note_on_c, 11, 47, 100
14, 19392, Note_on_c, 11, 47, 0
14, 19680, Note_on_c, 11, 50, 80
14, 19872, Note_on_c, 11, 50, 0
14, 20160, Note_on_c, 11, 53, 60
14, 20352, Note_on_c, 11, 53, 0
14, 21120, Note_on_c, 11, 48, 60
14, 21312, Note_on_c, 11, 48, 0
14, 21600, Note_on_c, 11, 53, 60
14, 21792, Note_on_c, 11, 53, 0
14, 22080, Note_on_c, 11, 56, 60
14, 22272, Note_on_c, 11, 56, 0
14, 23040, Note_on_c, 11, 48, 60
14, 23232, Note_on_c, 11, 48, 0
14, 23520, Note_on_c, 11, 55, 60
14, 23712, Note_on_c, 11, 55, 0
14, 24000, Note_on_c, 11, 58, 60
14, 24192, Note_on_c, 11, 58, 0
14, 24960, Note_on_c, 11, 48, 60
14, 25152, Note_on_c, 11, 48, 0
14, 25440, Note_on_c, 11, 56, 60
14, 25632, Note_on_c, 11, 56, 0
14, 25920, Note_on_c, 11, 60, 60
14, 26112, Note_on_c, 11, 60, 0
14, 26880, Note_on_c, 11, 48, 60
14, 27072, Note_on_c, 11, 48, 0
14, 27360, Note_on_c, 11, 52, 60
14, 27552, Note_on_c, 11, 52, 0
14, 27840, Note_on_c, 11, 55, 60
14, 28032, Note_on_c, 11, 55, 0
14, 28800, Note_on_c, 11, 48, 60
14, 28992, Note_on_c, 11, 48, 0
14, 29280, Note_on_c, 11, 53, 60
14, 29472, Note_on_c, 11, 53, 0
14, 29760, Note_on_c, 11, 56, 60
14, 29952, Note_on_c, 11, 56, 0
14, 30720, Note_on_c, 11, 48, 60
14, 30912, Note_on_c, 11, 48, 0
14, 31200, Note_on_c, 11, 55, 60
14, 31392, Note_on_c, 11, 55, 0
14, 31680, Note_on_c, 11, 58, 60
14, 31872, Note_on_c, 11, 58, 0
14, 32160, Note_on_c, 11, 46, 60
14, 32352, Note_on_c, 11, 46, 0
14, 32640, Note_on_c, 11, 45, 70
14, 32832, Note_on_c, 11, 45, 0
14, 33120, Note_on_c, 11, 53, 70
14, 33312, Note_on_c, 11, 53, 0
14, 33600, Note_on_c, 11, 46, 70
14, 33792, Note_on_c, 11, 46, 0
14, 34080, Note_on_c, 11, 55, 70
14, 34272, Note_on_c, 11, 55, 0
14, 34560, Note_on_c, 11, 48, 70
14, 34752, Note_on_c, 11, 48, 0
14, 35040, Note_on_c, 11, 46, 70
14, 35232, Note_on_c, 11, 46, 0
14, 35520, Note_on_c, 11, 48, 70
14, 35712, Note_on_c, 11, 48, 0
14, 36000, Note_on_c, 11, 48, 70
14, 36192, Note_on_c, 11, 48, 0
14, 36480, Note_on_c, 11, 49, 70
14, 36672, Note_on_c, 11, 49, 0
14, 36960, Note_on_c, 11, 50, 70
14, 37152, Note_on_c, 11, 50, 0
14, 37440, Note_on_c, 11, 48, 70
14, 37632, Note_on_c, 11, 48, 0
14, 37920, Note_on_c, 11, 46, 70
14, 38112, Note_on_c, 11, 46, 0
14, 38400, Note_on_c, 11, 45, 70
14, 38592, Note_on_c, 11, 45, 0
14, 38880, Note_on_c, 11, 53, 70
14, 39072, Note_on_c, 11, 53, 0
14, 39360, Note_on_c, 11, 46, 70
14, 39552, Note_on_c, 11, 46, 0
14, 39840, Note_on_c, 11, 55, 70
14, 40032, Note_on_c, 11, 55, 0
14, 40320, Note_on_c, 11, 48, 70
14, 40512, Note_on_c, 11, 48, 0
14, 40800, Note_on_c, 11, 46, 70
14, 40992, Note_on_c, 11, 46, 0
14, 41280, Note_on_c, 11, 48, 70
14, 41472, Note_on_c, 11, 48, 0
14, 41760, Note_on_c, 11, 48, 70
14, 41952, Note_on_c, 11, 48, 0
14, 42240, Note_on_c, 11, 53, 60
14, 42624, Note_on_c, 11, 53, 0
14, 71040, Note_on_c, 11, 50, 60
14, 71424, Note_on_c, 11, 50, 0
14, 72000, Note_on_c, 11, 62, 60
14, 72192, Note_on_c, 11, 62, 0
14, 72480, Note_on_c, 11, 57, 60
14, 72672, Note_on_c, 11, 57, 0
14, 72960, Note_on_c, 11, 50, 60
14, 73344, Note_on_c, 11, 50, 0
14, 73920, Note_on_c, 11, 50, 60
14, 74304, Note_on_c, 11, 50, 0
14, 74880, Note_on_c, 11, 48, 80
14, 75264, Note_on_c, 11, 48, 0
14, 75840, Note_on_c, 11, 48, 60
14, 76224, Note_on_c, 11, 48, 0
14, 76800, Note_on_c, 11, 53, 60
14, 77184, Note_on_c, 11, 53, 0
14, 119040, Note_on_c, 11, 58, 60
14, 119424, Note_on_c, 11, 58, 0
14, 120000, Note_on_c, 11, 58, 60
14, 120384, Note_on_c, 11, 58, 0
14, 120960, Note_on_c, 11, 60, 60
14, 121344, Note_on_c, 11, 60, 0
14, 121920, Note_on_c, 11, 60, 60
14, 122304, Note_on_c, 11, 60, 0
14, 122880, Note_on_c, 11, 53, 60
14, 123264, Note_on_c, 11, 53, 0
14, 123840, Note_on_c, 11, 53, 60
14, 124224, Note_on_c, 11, 53, 0
14, 124800, Note_on_c, 11, 58, 60
14, 125184, Note_on_c, 11, 58, 0
14, 125760, Note_on_c, 11, 58, 60
14, 126144, Note_on_c, 11, 58, 0
14, 134400, Note_on_c, 11, 49, 60
14, 136320, Note_on_c, 11, 49, 0
14, 136320, Note_on_c, 11, 48, 60
14, 136704, Note_on_c, 11, 48, 0
14, 136704, End_track
15, 0, Start_track
15, 0, Sequencer_specific, 04, 43, 00, 01, 00
15, 0, Program_c, 12, 43
15, 0, Control_c, 12, 7, 79
15, 0, Control_c, 12, 10, 96
15, 0, Control_c, 12, 91, 100
15, 1920, Note_on_c, 12, 41, 60
15, 2112, Note_on_c, 12, 41, 0
15, 2400, Note_on_c, 12, 45, 60
15, 2592, Note_on_c, 12, 45, 0
15, 2880, Note_on_c, 12, 48, 60
15, 3072, Note_on_c, 12, 48, 0
15, 3840, Note_on_c, 12, 41, 60
15, 4032, Note_on_c, 12, 41, 0
15, 4320, Note_on_c, 12, 45, 60
15, 4512, Note_on_c, 12, 45, 0
15, 4800, Note_on_c, 12, 48, 60
15, 4992, Note_on_c, 12, 48, 0
15, 5760, Note_on_c, 12, 41, 60
15, 5952, Note_on_c, 12, 41, 0
15, 6240, Note_on_c, 12, 45, 60
15, 6432, Note_on_c, 12, 45, 0
15, 6720, Note_on_c, 12, 48, 60
15, 6912, Note_on_c, 12, 48, 0
15, 7200, Note_on_c, 12, 41, 60
15, 7392, Note_on_c, 12, 41, 0
15, 7680, Note_on_c, 12, 36, 60
15, 7872, Note_on_c, 12, 36, 0
15, 8160, Note_on_c, 12, 40, 60
15, 8352, Note_on_c, 12, 40, 0
15, 8640, Note_on_c, 12, 43, 60
15, 8832, Note_on_c, 12, 43, 0
15, 9600, Note_on_c, 12, 36, 60
15, 9792, Note_on_c, 12, 36, 0
15, 10080, Note_on_c, 12, 40, 60
15, 10272, Note_on_c, 12, 40, 0
15, 10560, Note_on_c, 12, 43, 60
15, 10752, Note_on_c, 12, 43, 0
15, 11520, Note_on_c, 12, 36, 60
15, 11712, Note_on_c, 12, 36, 0
15, 12000, Note_on_c, 12, 40, 60
15, 12192, Note_on_c, 12, 40, 0
15, 12480, Note_on_c, 12, 43, 60
15, 12672, Note_on_c, 12, 43, 0
15, 12960, Note_on_c, 12, 36, 60
15, 13152, Note_on_c, 12, 36, 0
15, 13440, Note_on_c, 12, 41, 60
15, 13632, Note_on_c, 12, 41, 0
15, 13920, Note_on_c, 12, 45, 60
15, 14112, Note_on_c, 12, 45, 0
15, 14400, Note_on_c, 12, 48, 60
15, 14592, Note_on_c, 12, 48, 0
15, 15360, Note_on_c, 12, 33, 100
15, 15552, Note_on_c, 12, 33, 0
15, 15840, Note_on_c, 12, 36, 80
15, 16032, Note_on_c, 12, 36, 0
15, 16320, Note_on_c, 12, 41, 60
15, 16512, Note_on_c, 12, 41, 0
15, 17280, Note_on_c, 12, 34, 60
15, 17472, Note_on_c, 12, 34, 0
15, 17760, Note_on_c, 12, 38, 60
15, 17952, Note_on_c, 12, 38, 0
15, 18240, Note_on_c, 12, 41, 60
15, 18432, Note_on_c, 12, 41, 0
15, 19200, Note_on_c, 12, 35, 100
15, 19392, Note_on_c, 12, 35, 0
15, 19680, Note_on_c, 12, 38, 80
15, 19872, Note_on_c, 12, 38, 0
15, 20160, Note_on_c, 12, 41, 60
15, 20352, Note_on_c, 12, 41, 0
15, 21120, Note_on_c, 12, 36, 60
15, 21312, Note_on_c, 12, 36, 0
15, 21600, Note_on_c, 12, 41, 60
15, 21792, Note_on_c, 12, 41, 0
15, 22080, Note_on_c, 12, 44, 60
15, 22272, Note_on_c, 12, 44, 0
15, 23040, Note_on_c, 12, 36, 60
15, 23232, Note_on_c, 12, 36, 0
15, 23520, Note_on_c, 12, 43, 60
15, 23712, Note_on_c, 12, 43, 0
15, 24000, Note_on_c, 12, 46, 60
15, 24192, Note_on_c, 12, 46, 0
15, 24960, Note_on_c, 12, 36, 60
15, 25152, Note_on_c, 12, 36, 0
15, 25440, Note_on_c, 12, 44, 60
15, 25632, Note_on_c, 12, 44, 0
15, 25920, Note_on_c, 12, 48, 60
15, 26112, Note_on_c, 12, 48, 0
15, 26880, Note_on_c, 12, 36, 60
15, 27072, Note_on_c, 12, 36, 0
15, 27360, Note_on_c, 12, 40, 60
15, 27552, Note_on_c, 12, 40, 0
15, 27840, Note_on_c, 12, 43, 60
15, 28032, Note_on_c, 12, 43, 0
15, 28800, Note_on_c, 12, 36, 60
15, 28992, Note_on_c, 12, 36, 0
15, 29280, Note_on_c, 12, 41, 60
15, 29472, Note_on_c, 12, 41, 0
15, 29760, Note_on_c, 12, 44, 60
15, 29952, Note_on_c, 12, 44, 0
15, 30720, Note_on_c, 12, 36, 60
15, 30912, Note_on_c, 12, 36, 0
15, 31200, Note_on_c, 12, 43, 60
15, 31392, Note_on_c, 12, 43, 0
15, 31680, Note_on_c, 12, 46, 60
15, 31872, Note_on_c, 12, 46, 0
15, 32160, Note_on_c, 12, 34, 60
15, 32352, Note_on_c, 12, 34, 0
15, 32640, Note_on_c, 12, 33, 70
15, 32832, Note_on_c, 12, 33, 0
15, 33120, Note_on_c, 12, 41, 70
15, 33312, Note_on_c, 12, 41, 0
15, 33600, Note_on_c, 12, 34, 70
15, 33792, Note_on_c, 12, 34, 0
15, 34080, Note_on_c, 12, 43, 70
15, 34272, Note_on_c, 12, 43, 0
15, 34560, Note_on_c, 12, 36, 70
15, 34752, Note_on_c, 12, 36, 0
15, 35040, Note_on_c, 12, 34, 70
15, 35232, Note_on_c, 12, 34, 0
15, 35520, Note_on_c, 12, 36, 70
15, 35712, Note_on_c, 12, 36, 0
15, 36000, Note_on_c, 12, 36, 70
15, 36192, Note_on_c, 12, 36, 0
15, 36480, Note_on_c, 12, 37, 70
15, 36672, Note_on_c, 12, 37, 0
15, 36960, Note_on_c, 12, 38, 70
15, 37152, Note_on_c, 12, 38, 0
15, 37440, Note_on_c, 12, 36, 70
15, 37632, Note_on_c, 12, 36, 0
15, 37920, Note_on_c, 12, 34, 70
15, 38112, Note_on_c, 12, 34, 0
15, 38400, Note_on_c, 12, 33, 70
15, 38592, Note_on_c, 12, 33, 0
15, 38880, Note_on_c, 12, 41, 70
15, 39072, Note_on_c, 12, 41, 0
15, 39360, Note_on_c, 12, 34, 70
15, 39552, Note_on_c, 12, 34, 0
15, 39840, Note_on_c, 12, 43, 70
15, 40032, Note_on_c, 12, 43, 0
15, 40320, Note_on_c, 12, 36, 70
15, 40512, Note_on_c, 12, 36, 0
15, 40800, Note_on_c, 12, 34, 70
15, 40992, Note_on_c, 12, 34, 0
15, 41280, Note_on_c, 12, 36, 70
15, 41472, Note_on_c, 12, 36, 0
15, 41760, Note_on_c, 12, 36, 70
15, 41952, Note_on_c, 12, 36, 0
15, 42240, Note_on_c, 12, 41, 60
15, 42624, Note_on_c, 12, 41, 0
15, 71040, Note_on_c, 12, 38, 60
15, 71424, Note_on_c, 12, 38, 0
15, 72000, Note_on_c, 12, 50, 60
15, 72192, Note_on_c, 12, 50, 0
15, 72480, Note_on_c, 12, 45, 60
15, 72672, Note_on_c, 12, 45, 0
15, 72960, Note_on_c, 12, 38, 60
15, 73344, Note_on_c, 12, 38, 0
15, 73920, Note_on_c, 12, 38, 60
15, 74304, Note_on_c, 12, 38, 0
15, 74880, Note_on_c, 12, 36, 80
15, 75264, Note_on_c, 12, 36, 0
15, 75840, Note_on_c, 12, 36, 60
15, 76224, Note_on_c, 12, 36, 0
15, 76800, Note_on_c, 12, 41, 60
15, 77184, Note_on_c, 12, 41, 0
15, 119040, Note_on_c, 12, 46, 60
15, 119424, Note_on_c, 12, 46, 0
15, 120000, Note_on_c, 12, 46, 60
15, 120384, Note_on_c, 12, 46, 0
15, 120960, Note_on_c, 12, 48, 60
15, 121344, Note_on_c, 12, 48, 0
15, 121920, Note_on_c, 12, 48, 60
15, 122304, Note_on_c, 12, 48, 0
15, 122880, Note_on_c, 12, 41, 60
15, 123264, Note_on_c, 12, 41, 0
15, 123840, Note_on_c, 12, 41, 60
15, 124224, Note_on_c, 12, 41, 0
15, 124800, Note_on_c, 12, 46, 60
15, 125184, Note_on_c, 12, 46, 0
15, 125760, Note_on_c, 12, 46, 60
15, 126144, Note_on_c, 12, 46, 0
15, 134400, Note_on_c, 12, 37, 60
15, 136320, Note_on_c, 12, 37, 0
15, 136320, Note_on_c, 12, 36, 60
15, 136704, Note_on_c, 12, 36, 0
15, 136704, End_track
16, 0, Start_track
16, 0, Sequencer_specific, 04, 43, 00, 01, 00
16, 0, Program_c, 13, 45
16, 0, Control_c, 13, 7, 81
16, 0, Control_c, 13, 91, 100
16, 0, Control_c, 13, 10, 34
16, 44160, Note_on_c, 13, 65, 70
16, 44352, Note_on_c, 13, 65, 0
16, 44640, Note_on_c, 13, 69, 70
16, 44832, Note_on_c, 13, 69, 0
16, 45120, Note_on_c, 13, 72, 70
16, 45312, Note_on_c, 13, 72, 0
16, 46080, Note_on_c, 13, 65, 70
16, 46272, Note_on_c, 13, 65, 0
16, 46560, Note_on_c, 13, 69, 70
16, 46752, Note_on_c, 13, 69, 0
16, 47040, Note_on_c, 13, 72, 70
16, 47232, Note_on_c, 13, 72, 0
16, 48000, Note_on_c, 13, 65, 70
16, 48192, Note_on_c, 13, 65, 0
16, 48480, Note_on_c, 13, 69, 70
16, 48672, Note_on_c, 13, 69, 0
16, 48960, Note_on_c, 13, 72, 70
16, 49152, Note_on_c, 13, 72, 0
16, 49440, Note_on_c, 13, 65, 70
16, 49632, Note_on_c, 13, 65, 0
16, 49920, Note_on_c, 13, 60, 70
16, 50112, Note_on_c, 13, 60, 0
16, 50400, Note_on_c, 13, 64, 70
16, 50592, Note_on_c, 13, 64, 0
16, 50880, Note_on_c, 13, 67, 70
16, 51072, Note_on_c, 13, 67, 0
16, 51840, Note_on_c, 13, 60, 60
16, 52032, Note_on_c, 13, 60, 0
16, 52320, Note_on_c, 13, 64, 60
16, 52512, Note_on_c, 13, 64, 0
16, 52800, Note_on_c, 13, 67, 60
16, 52992, Note_on_c, 13, 67, 0
16, 53760, Note_on_c, 13, 60, 60
16, 53952, Note_on_c, 13, 60, 0
16, 54240, Note_on_c, 13, 64, 60
16, 54432, Note_on_c, 13, 64, 0
16, 54720, Note_on_c, 13, 67, 60
16, 54912, Note_on_c, 13, 67, 0
16, 55200, Note_on_c, 13, 60, 60
16, 55392, Note_on_c, 13, 60, 0
16, 55680, Note_on_c, 13, 65, 60
16, 55872, Note_on_c, 13, 65, 0
16, 56160, Note_on_c, 13, 69, 60
16, 56352, Note_on_c, 13, 69, 0
16, 56640, Note_on_c, 13, 72, 60
16, 56832, Note_on_c, 13, 72, 0
16, 57600, Note_on_c, 13, 57, 60
16, 57792, Note_on_c, 13, 57, 0
16, 58080, Note_on_c, 13, 60, 60
16, 58272, Note_on_c, 13, 60, 0
16, 58560, Note_on_c, 13, 65, 60
16, 58752, Note_on_c, 13, 65, 0
16, 59520, Note_on_c, 13, 58, 60
16, 59712, Note_on_c, 13, 58, 0
16, 60000, Note_on_c, 13, 62, 60
16, 60192, Note_on_c, 13, 62, 0
16, 60480, Note_on_c, 13, 65, 60
16, 60672, Note_on_c, 13, 65, 0
16, 61440, Note_on_c, 13, 59, 60
16, 61632, Note_on_c, 13, 59, 0
16, 61920, Note_on_c, 13, 62, 60
16, 62112, Note_on_c, 13, 62, 0
16, 62400, Note_on_c, 13, 65, 60
16, 62592, Note_on_c, 13, 65, 0
16, 63360, Note_on_c, 13, 60, 60
16, 63552, Note_on_c, 13, 60, 0
16, 63840, Note_on_c, 13, 65, 60
16, 64032, Note_on_c, 13, 65, 0
16, 64320, Note_on_c, 13, 69, 60
16, 64512, Note_on_c, 13, 69, 0
16, 64800, Note_on_c, 13, 72, 60
16, 64992, Note_on_c, 13, 72, 0
16, 65280, Note_on_c, 13, 70, 60
16, 65472, Note_on_c, 13, 70, 0
16, 65760, Note_on_c, 13, 67, 60
16, 65952, Note_on_c, 13, 67, 0
16, 66240, Note_on_c, 13, 72, 60
16, 66432, Note_on_c, 13, 72, 0
16, 66720, Note_on_c, 13, 60, 60
16, 66912, Note_on_c, 13, 60, 0
16, 67200, Note_on_c, 13, 65, 60
16, 67392, Note_on_c, 13, 65, 0
16, 67440, Control_c, 13, 10, 40
16, 67680, Note_on_c, 13, 69, 60
16, 67872, Note_on_c, 13, 69, 0
16, 68160, Note_on_c, 13, 72, 60
16, 68352, Note_on_c, 13, 72, 0
16, 69120, Note_on_c, 13, 64, 60
16, 69312, Note_on_c, 13, 64, 0
16, 69600, Note_on_c, 13, 67, 60
16, 69792, Note_on_c, 13, 67, 0
16, 70080, Note_on_c, 13, 69, 60
16, 70272, Note_on_c, 13, 69, 0
16, 70560, Note_on_c, 13, 57, 60
16, 70752, Note_on_c, 13, 57, 0
16, 140160, Note_on_c, 13, 56, 60
16, 140352, Note_on_c, 13, 56, 0
16, 140640, Note_on_c, 13, 60, 60
16, 140832, Note_on_c, 13, 60, 0
16, 141120, Note_on_c, 13, 63, 60
16, 141312, Note_on_c, 13, 63, 0
16, 142080, Note_on_c, 13, 56, 60
16, 142272, Note_on_c, 13, 56, 0
16, 142560, Note_on_c, 13, 60, 60
16, 142752, Note_on_c, 13, 60, 0
16, 143040, Note_on_c, 13, 63, 60
16, 143232, Note_on_c, 13, 63, 0
16, 143520, Note_on_c, 13, 56, 60
16, 143712, Note_on_c, 13, 56, 0
16, 144000, Note_on_c, 13, 55, 60
16, 144192, Note_on_c, 13, 55, 0
16, 144480, Note_on_c, 13, 58, 60
16, 144672, Note_on_c, 13, 58, 0
16, 144960, Note_on_c, 13, 63, 60
16, 145152, Note_on_c, 13, 63, 0
16, 145920, Note_on_c, 13, 63, 60
16, 146112, Note_on_c, 13, 63, 0
16, 146400, Note_on_c, 13, 67, 60
16, 146592, Note_on_c, 13, 67, 0
16, 146880, Note_on_c, 13, 70, 60
16, 147072, Note_on_c, 13, 70, 0
16, 147840, Note_on_c, 13, 63, 60
16, 148032, Note_on_c, 13, 63, 0
16, 148320, Note_on_c, 13, 67, 60
16, 148512, Note_on_c, 13, 67, 0
16, 148800, Note_on_c, 13, 70, 60
16, 148992, Note_on_c, 13, 70, 0
16, 149280, Note_on_c, 13, 63, 60
16, 149472, Note_on_c, 13, 63, 0
16, 149760, Note_on_c, 13, 68, 60
16, 149952, Note_on_c, 13, 68, 0
16, 150240, Note_on_c, 13, 72, 60
16, 150432, Note_on_c, 13, 72, 0
16, 150720, Note_on_c, 13, 75, 60
16, 150912, Note_on_c, 13, 75, 0
16, 151200, Note_on_c, 13, 66, 60
16, 151392, Note_on_c, 13, 66, 0
16, 151680, Note_on_c, 13, 65, 60
16, 151872, Note_on_c, 13, 65, 0
16, 152160, Note_on_c, 13, 69, 60
16, 152352, Note_on_c, 13, 69, 0
16, 152640, Note_on_c, 13, 72, 60
16, 152832, Note_on_c, 13, 72, 0
16, 153600, Note_on_c, 13, 70, 60
16, 153792, Note_on_c, 13, 70, 0
16, 154080, Note_on_c, 13, 73, 60
16, 154272, Note_on_c, 13, 73, 0
16, 154560, Note_on_c, 13, 77, 60
16, 154752, Note_on_c, 13, 77, 0
16, 155040, Note_on_c, 13, 68, 60
16, 155232, Note_on_c, 13, 68, 0
16, 155520, Note_on_c, 13, 67, 60
16, 155712, Note_on_c, 13, 67, 0
16, 156000, Note_on_c, 13, 71, 60
16, 156192, Note_on_c, 13, 71, 0
16, 156480, Note_on_c, 13, 74, 60
16, 156672, Note_on_c, 13, 74, 0
16, 174720, Note_on_c, 13, 57, 60
16, 175032, Note_on_c, 13, 57, 0
16, 175200, Note_on_c, 13, 65, 60
16, 175512, Note_on_c, 13, 65, 0
16, 175680, Note_on_c, 13, 58, 60
16, 175992, Note_on_c, 13, 58, 0
16, 176160, Note_on_c, 13, 67, 60
16, 176472, Note_on_c, 13, 67, 0
16, 176640, Note_on_c, 13, 60, 60
16, 176952, Note_on_c, 13, 60, 0
16, 177120, Note_on_c, 13, 59, 60
16, 177432, Note_on_c, 13, 59, 0
16, 177600, Note_on_c, 13, 60, 60
16, 177912, Note_on_c, 13, 60, 0
16, 178080, Note_on_c, 13, 60, 60
16, 178392, Note_on_c, 13, 60, 0
16, 178560, Note_on_c, 13, 65, 60
16, 178944, Note_on_c, 13, 65, 0
16, 180480, Note_on_c, 13, 57, 60
16, 180672, Note_on_c, 13, 57, 0
16, 180960, Note_on_c, 13, 60, 60
16, 181152, Note_on_c, 13, 60, 0
16, 181440, Note_on_c, 13, 65, 60
16, 181632, Note_on_c, 13, 65, 0
16, 181920, Note_on_c, 13, 57, 60
16, 182112, Note_on_c, 13, 57, 0
16, 182400, Note_on_c, 13, 58, 60
16, 182784, Note_on_c, 13, 58, 0
16, 184320, Note_on_c, 13, 59, 60
16, 184512, Note_on_c, 13, 59, 0
16, 184800, Note_on_c, 13, 62, 60
16, 184992, Note_on_c, 13, 62, 0
16, 185280, Note_on_c, 13, 65, 60
16, 185472, Note_on_c, 13, 65, 0
16, 185760, Note_on_c, 13, 59, 60
16, 185952, Note_on_c, 13, 59, 0
16, 186240, Note_on_c, 13, 60, 60
16, 186432, Note_on_c, 13, 60, 0
16, 186720, Note_on_c, 13, 65, 60
16, 186912, Note_on_c, 13, 65, 0
16, 187200, Note_on_c, 13, 69, 60
16, 187392, Note_on_c, 13, 69, 0
16, 187680, Note_on_c, 13, 72, 60
16, 187872, Note_on_c, 13, 72, 0
16, 188160, Note_on_c, 13, 70, 60
16, 188352, Note_on_c, 13, 70, 0
16, 188640, Note_on_c, 13, 67, 60
16, 188832, Note_on_c, 13, 67, 0
16, 189120, Note_on_c, 13, 72, 60
16, 189312, Note_on_c, 13, 72, 0
16, 189600, Note_on_c, 13, 60, 60
16, 189792, Note_on_c, 13, 60, 0
16, 190080, Note_on_c, 13, 65, 60
16, 190272, Note_on_c, 13, 65, 0
16, 190560, Note_on_c, 13, 69, 60
16, 190752, Note_on_c, 13, 69, 0
16, 191040, Note_on_c, 13, 72, 60
16, 191232, Note_on_c, 13, 72, 0
16, 192000, Note_on_c, 13, 60, 60
16, 192192, Note_on_c, 13, 60, 0
16, 192480, Note_on_c, 13, 64, 60
16, 192672, Note_on_c, 13, 64, 0
16, 192960, Note_on_c, 13, 67, 60
16, 193152, Note_on_c, 13, 67, 0
16, 193440, Note_on_c, 13, 60, 60
16, 193632, Note_on_c, 13, 60, 0
16, 193920, Note_on_c, 13, 65, 60
16, 194112, Note_on_c, 13, 65, 0
16, 194400, Note_on_c, 13, 69, 60
16, 194592, Note_on_c, 13, 69, 0
16, 194880, Note_on_c, 13, 72, 60
16, 195072, Note_on_c, 13, 72, 0
16, 195840, Note_on_c, 13, 60, 60
16, 196032, Note_on_c, 13, 60, 0
16, 196320, Note_on_c, 13, 64, 60
16, 196512, Note_on_c, 13, 64, 0
16, 196800, Note_on_c, 13, 67, 60
16, 196992, Note_on_c, 13, 67, 0
16, 197280, Note_on_c, 13, 60, 60
16, 197472, Note_on_c, 13, 60, 0
16, 197760, Note_on_c, 13, 65, 52
16, 197952, Note_on_c, 13, 65, 0
16, 198240, Note_on_c, 13, 69, 51
16, 198432, Note_on_c, 13, 69, 0
16, 198720, Note_on_c, 13, 72, 51
16, 198912, Note_on_c, 13, 72, 0
16, 199200, Note_on_c, 13, 69, 51
16, 199392, Note_on_c, 13, 69, 0
16, 199680, Note_on_c, 13, 65, 51
16, 200160, Note_on_c, 13, 65, 0
16, 200160, End_track
17, 0, Start_track
17, 0, Sequencer_specific, 04, 43, 00, 01, 00
17, 0, Program_c, 14, 45
17, 0, Control_c, 14, 7, 78
17, 0, Control_c, 14, 10, 98
17, 0, Control_c, 14, 91, 100
17, 44160, Note_on_c, 14, 53, 34
17, 44352, Note_on_c, 14, 53, 0
17, 44640, Note_on_c, 14, 57, 34
17, 44832, Note_on_c, 14, 57, 0
17, 45120, Note_on_c, 14, 60, 34
17, 45312, Note_on_c, 14, 60, 0
17, 46080, Note_on_c, 14, 53, 34
17, 46272, Note_on_c, 14, 53, 0
17, 46560, Note_on_c, 14, 57, 34
17, 46752, Note_on_c, 14, 57, 0
17, 47040, Note_on_c, 14, 60, 34
17, 47232, Note_on_c, 14, 60, 0
17, 48000, Note_on_c, 14, 53, 34
17, 48192, Note_on_c, 14, 53, 0
17, 48480, Note_on_c, 14, 57, 34
17, 48672, Note_on_c, 14, 57, 0
17, 48960, Note_on_c, 14, 60, 34
17, 49152, Note_on_c, 14, 60, 0
17, 49440, Note_on_c, 14, 53, 34
17, 49632, Note_on_c, 14, 53, 0
17, 49920, Note_on_c, 14, 48, 34
17, 50112, Note_on_c, 14, 48, 0
17, 50400, Note_on_c, 14, 52, 34
17, 50592, Note_on_c, 14, 52, 0
17, 50880, Note_on_c, 14, 55, 34
17, 51072, Note_on_c, 14, 55, 0
17, 51840, Note_on_c, 14, 48, 60
17, 52032, Note_on_c, 14, 48, 0
17, 52320, Note_on_c, 14, 52, 60
17, 52512, Note_on_c, 14, 52, 0
17, 52800, Note_on_c, 14, 55, 60
17, 52992, Note_on_c, 14, 55, 0
17, 53760, Note_on_c, 14, 48, 60
17, 53952, Note_on_c, 14, 48, 0
17, 54240, Note_on_c, 14, 52, 60
17, 54432, Note_on_c, 14, 52, 0
17, 54720, Note_on_c, 14, 55, 60
17, 54912, Note_on_c, 14, 55, 0
17, 55200, Note_on_c, 14, 48, 60
17, 55392, Note_on_c, 14, 48, 0
17, 55680, Note_on_c, 14, 53, 60
17, 55872, Note_on_c, 14, 53, 0
17, 56160, Note_on_c, 14, 57, 60
17, 56352, Note_on_c, 14, 57, 0
17, 56640, Note_on_c, 14, 60, 60
17, 56832, Note_on_c, 14, 60, 0
17, 57600, Note_on_c, 14, 57, 60
17, 57792, Note_on_c, 14, 57, 0
17, 58080, Note_on_c, 14, 60, 60
17, 58272, Note_on_c, 14, 60, 0
17, 58560, Note_on_c, 14, 65, 60
17, 58752, Note_on_c, 14, 65, 0
17, 59520, Note_on_c, 14, 58, 60
17, 59712, Note_on_c, 14, 58, 0
17, 60000, Note_on_c, 14, 62, 60
17, 60192, Note_on_c, 14, 62, 0
17, 60480, Note_on_c, 14, 65, 60
17, 60672, Note_on_c, 14, 65, 0
17, 61440, Note_on_c, 14, 59, 60
17, 61632, Note_on_c, 14, 59, 0
17, 61920, Note_on_c, 14, 62, 60
17, 62112, Note_on_c, 14, 62, 0
17, 62400, Note_on_c, 14, 65, 60
17, 62592, Note_on_c, 14, 65, 0
17, 63360, Note_on_c, 14, 48, 60
17, 63552, Note_on_c, 14, 48, 0
17, 63840, Note_on_c, 14, 53, 60
17, 64032, Note_on_c, 14, 53, 0
17, 64320, Note_on_c, 14, 57, 60
17, 64512, Note_on_c, 14, 57, 0
17, 64800, Note_on_c, 14, 60, 60
17, 64992, Note_on_c, 14, 60, 0
17, 65280, Note_on_c, 14, 58, 60
17, 65472, Note_on_c, 14, 58, 0
17, 65760, Note_on_c, 14, 55, 60
17, 65952, Note_on_c, 14, 55, 0
17, 66240, Note_on_c, 14, 60, 60
17, 66432, Note_on_c, 14, 60, 0
17, 66720, Note_on_c, 14, 48, 60
17, 66912, Note_on_c, 14, 48, 0
17, 67200, Note_on_c, 14, 53, 60
17, 67392, Note_on_c, 14, 53, 0
17, 67680, Note_on_c, 14, 57, 60
17, 67872, Note_on_c, 14, 57, 0
17, 68160, Note_on_c, 14, 60, 60
17, 68352, Note_on_c, 14, 60, 0
17, 69120, Note_on_c, 14, 64, 60
17, 69312, Note_on_c, 14, 64, 0
17, 69600, Note_on_c, 14, 67, 60
17, 69792, Note_on_c, 14, 67, 0
17, 70080, Note_on_c, 14, 69, 60
17, 70272, Note_on_c, 14, 69, 0
17, 70560, Note_on_c, 14, 57, 60
17, 70752, Note_on_c, 14, 57, 0
17, 117120, Note_on_c, 14, 50, 90
17, 117312, Note_on_c, 14, 50, 0
17, 117600, Note_on_c, 14, 62, 90
17, 117792, Note_on_c, 14, 62, 0
17, 118080, Note_on_c, 14, 60, 90
17, 118272, Note_on_c, 14, 60, 0
17, 118560, Note_on_c, 14, 53, 90
17, 118752, Note_on_c, 14, 53, 0
17, 140160, Note_on_c, 14, 56, 60
17, 140352, Note_on_c, 14, 56, 0
17, 140640, Note_on_c, 14, 60, 60
17, 140832, Note_on_c, 14, 60, 0
17, 141120, Note_on_c, 14, 63, 60
17, 141312, Note_on_c, 14, 63, 0
17, 142080, Note_on_c, 14, 56, 60
17, 142272, Note_on_c, 14, 56, 0
17, 142560, Note_on_c, 14, 60, 60
17, 142752, Note_on_c, 14, 60, 0
17, 143040, Note_on_c, 14, 63, 60
17, 143232, Note_on_c, 14, 63, 0
17, 143520, Note_on_c, 14, 56, 60
17, 143712, Note_on_c, 14, 56, 0
17, 144000, Note_on_c, 14, 55, 60
17, 144192, Note_on_c, 14, 55, 0
17, 144480, Note_on_c, 14, 58, 60
17, 144672, Note_on_c, 14, 58, 0
17, 144960, Note_on_c, 14, 63, 60
17, 145152, Note_on_c, 14, 63, 0
17, 145920, Note_on_c, 14, 51, 60
17, 146112, Note_on_c, 14, 51, 0
17, 146400, Note_on_c, 14, 55, 60
17, 146592, Note_on_c, 14, 55, 0
17, 146880, Note_on_c, 14, 58, 60
17, 147072, Note_on_c, 14, 58, 0
17, 147840, Note_on_c, 14, 51, 60
17, 148032, Note_on_c, 14, 51, 0
17, 148320, Note_on_c, 14, 55, 60
17, 148512, Note_on_c, 14, 55, 0
17, 148800, Note_on_c, 14, 58, 60
17, 148992, Note_on_c, 14, 58, 0
17, 149280, Note_on_c, 14, 51, 60
17, 149472, Note_on_c, 14, 51, 0
17, 149760, Note_on_c, 14, 56, 60
17, 149952, Note_on_c, 14, 56, 0
17, 150240, Note_on_c, 14, 60, 60
17, 150432, Note_on_c, 14, 60, 0
17, 150720, Note_on_c, 14, 63, 60
17, 150912, Note_on_c, 14, 63, 0
17, 151200, Note_on_c, 14, 54, 60
17, 151392, Note_on_c, 14, 54, 0
17, 151680, Note_on_c, 14, 53, 60
17, 151872, Note_on_c, 14, 53, 0
17, 152160, Note_on_c, 14, 57, 60
17, 152352, Note_on_c, 14, 57, 0
17, 152640, Note_on_c, 14, 60, 60
17, 152832, Note_on_c, 14, 60, 0
17, 153600, Note_on_c, 14, 58, 60
17, 153792, Note_on_c, 14, 58, 0
17, 154080, Note_on_c, 14, 61, 60
17, 154272, Note_on_c, 14, 61, 0
17, 154560, Note_on_c, 14, 65, 60
17, 154752, Note_on_c, 14, 65, 0
17, 155040, Note_on_c, 14, 56, 60
17, 155232, Note_on_c, 14, 56, 0
17, 155520, Note_on_c, 14, 55, 60
17, 155712, Note_on_c, 14, 55, 0
17, 156000, Note_on_c, 14, 59, 60
17, 156192, Note_on_c, 14, 59, 0
17, 156480, Note_on_c, 14, 62, 60
17, 156672, Note_on_c, 14, 62, 0
17, 174720, Note_on_c, 14, 57, 60
17, 175032, Note_on_c, 14, 57, 0
17, 175200, Note_on_c, 14, 65, 60
17, 175512, Note_on_c, 14, 65, 0
17, 175680, Note_on_c, 14, 58, 60
17, 175992, Note_on_c, 14, 58, 0
17, 176160, Note_on_c, 14, 67, 60
17, 176472, Note_on_c, 14, 67, 0
17, 176640, Note_on_c, 14, 60, 60
17, 176952, Note_on_c, 14, 60, 0
17, 177120, Note_on_c, 14, 59, 60
17, 177432, Note_on_c, 14, 59, 0
17, 177600, Note_on_c, 14, 60, 60
17, 177912, Note_on_c, 14, 60, 0
17, 178080, Note_on_c, 14, 60, 60
17, 178392, Note_on_c, 14, 60, 0
17, 178560, Note_on_c, 14, 65, 60
17, 178944, Note_on_c, 14, 65, 0
17, 180480, Note_on_c, 14, 57, 60
17, 180672, Note_on_c, 14, 57, 0
17, 180960, Note_on_c, 14, 60, 60
17, 181152, Note_on_c, 14, 60, 0
17, 181440, Note_on_c, 14, 65, 60
17, 181632, Note_on_c, 14, 65, 0
17, 181920, Note_on_c, 14, 57, 60
17, 182112, Note_on_c, 14, 57, 0
17, 182400, Note_on_c, 14, 58, 60
17, 182784, Note_on_c, 14, 58, 0
17, 184320, Note_on_c, 14, 59, 60
17, 184512, Note_on_c, 14, 59, 0
17, 184800, Note_on_c, 14, 62, 60
17, 184992, Note_on_c, 14, 62, 0
17, 185280, Note_on_c, 14, 65, 60
17, 185472, Note_on_c, 14, 65, 0
17, 185760, Note_on_c, 14, 59, 60
17, 185952, Note_on_c, 14, 59, 0
17, 186240, Note_on_c, 14, 48, 60
17, 186432, Note_on_c, 14, 48, 0
17, 186720, Note_on_c, 14, 53, 60
17, 186912, Note_on_c, 14, 53, 0
17, 187200, Note_on_c, 14, 57, 60
17, 187392, Note_on_c, 14, 57, 0
17, 187680, Note_on_c, 14, 60, 60
17, 187872, Note_on_c, 14, 60, 0
17, 188160, Note_on_c, 14, 58, 60
17, 188352, Note_on_c, 14, 58, 0
17, 188640, Note_on_c, 14, 55, 60
17, 188832, Note_on_c, 14, 55, 0
17, 189120, Note_on_c, 14, 60, 60
17, 189312, Note_on_c, 14, 60, 0
17, 189600, Note_on_c, 14, 48, 60
17, 189792, Note_on_c, 14, 48, 0
17, 190080, Note_on_c, 14, 53, 60
17, 190272, Note_on_c, 14, 53, 0
17, 190560, Note_on_c, 14, 57, 60
17, 190752, Note_on_c, 14, 57, 0
17, 191040, Note_on_c, 14, 60, 60
17, 191232, Note_on_c, 14, 60, 0
17, 192000, Note_on_c, 14, 48, 60
17, 192192, Note_on_c, 14, 48, 0
17, 192480, Note_on_c, 14, 52, 60
17, 192672, Note_on_c, 14, 52, 0
17, 192960, Note_on_c, 14, 55, 60
17, 193152, Note_on_c, 14, 55, 0
17, 193440, Note_on_c, 14, 48, 60
17, 193632, Note_on_c, 14, 48, 0
17, 193920, Note_on_c, 14, 53, 60
17, 194112, Note_on_c, 14, 53, 0
17, 194400, Note_on_c, 14, 57, 60
17, 194592, Note_on_c, 14, 57, 0
17, 194880, Note_on_c, 14, 60, 60
17, 195072, Note_on_c, 14, 60, 0
17, 195840, Note_on_c, 14, 48, 60
17, 196032, Note_on_c, 14, 48, 0
17, 196320, Note_on_c, 14, 52, 60
17, 196512, Note_on_c, 14, 52, 0
17, 196800, Note_on_c, 14, 55, 60
17, 196992, Note_on_c, 14, 55, 0
17, 197280, Note_on_c, 14, 48, 60
17, 197472, Note_on_c, 14, 48, 0
17, 197760, Note_on_c, 14, 53, 38
17, 197952, Note_on_c, 14, 53, 0
17, 198240, Note_on_c, 14, 57, 36
17, 198432, Note_on_c, 14, 57, 0
17, 198720, Note_on_c, 14, 60, 35
17, 198912, Note_on_c, 14, 60, 0
17, 199200, Note_on_c, 14, 57, 33
17, 199392, Note_on_c, 14, 57, 0
17, 199680, Note_on_c, 14, 53, 32
17, 200160, Note_on_c, 14, 53, 0
17, 200160, End_track
18, 0, Start_track
18, 0, Sequencer_specific, 04, 43, 00, 01, 00
18, 0, Program_c, 15, 45
18, 0, Control_c, 15, 7, 78
18, 0, Control_c, 15, 10, 89
18, 0, Control_c, 15, 91, 100
18, 44160, Note_on_c, 15, 41, 60
18, 44160, Note_on_c, 15, 53, 60
18, 44352, Note_on_c, 15, 53, 0
18, 44352, Note_on_c, 15, 41, 0
18, 44640, Note_on_c, 15, 57, 60
18, 44640, Note_on_c, 15, 45, 60
18, 44832, Note_on_c, 15, 45, 0
18, 44832, Note_on_c, 15, 57, 0
18, 45120, Note_on_c, 15, 48, 60
18, 45120, Note_on_c, 15, 60, 60
18, 45312, Note_on_c, 15, 60, 0
18, 45312, Note_on_c, 15, 48, 0
18, 46080, Note_on_c, 15, 41, 60
18, 46080, Note_on_c, 15, 53, 60
18, 46272, Note_on_c, 15, 53, 0
18, 46272, Note_on_c, 15, 41, 0
18, 46560, Note_on_c, 15, 45, 60
18, 46560, Note_on_c, 15, 57, 60
18, 46752, Note_on_c, 15, 57, 0
18, 46752, Note_on_c, 15, 45, 0
18, 47040, Note_on_c, 15, 60, 60
18, 47040, Note_on_c, 15, 48, 60
18, 47232, Note_on_c, 15, 48, 0
18, 47232, Note_on_c, 15, 60, 0
18, 48000, Note_on_c, 15, 41, 60
18, 48000, Note_on_c, 15, 53, 60
18, 48192, Note_on_c, 15, 53, 0
18, 48192, Note_on_c, 15, 41, 0
18, 48480, Note_on_c, 15, 57, 60
18, 48480, Note_on_c, 15, 45, 60
18, 48672, Note_on_c, 15, 45, 0
18, 48672, Note_on_c, 15, 57, 0
18, 48960, Note_on_c, 15, 48, 60
18, 48960, Note_on_c, 15, 60, 60
18, 49152, Note_on_c, 15, 60, 0
18, 49152, Note_on_c, 15, 48, 0
18, 49440, Note_on_c, 15, 41, 60
18, 49440, Note_on_c, 15, 53, 60
18, 49632, Note_on_c, 15, 53, 0
18, 49632, Note_on_c, 15, 41, 0
18, 49920, Note_on_c, 15, 36, 60
18, 49920, Note_on_c, 15, 48, 60
18, 50112, Note_on_c, 15, 48, 0
18, 50112, Note_on_c, 15, 36, 0
18, 50400, Note_on_c, 15, 40, 60
18, 50400, Note_on_c, 15, 52, 60
18, 50592, Note_on_c, 15, 52, 0
18, 50592, Note_on_c, 15, 40, 0
18, 50880, Note_on_c, 15, 55, 60
18, 50880, Note_on_c, 15, 43, 60
18, 51072, Note_on_c, 15, 43, 0
18, 51072, Note_on_c, 15, 55, 0
18, 51840, Note_on_c, 15, 36, 60
18, 51840, Note_on_c, 15, 48, 60
18, 52032, Note_on_c, 15, 48, 0
18, 52032, Note_on_c, 15, 36, 0
18, 52320, Note_on_c, 15, 52, 60
18, 52320, Note_on_c, 15, 40, 60
18, 52512, Note_on_c, 15, 40, 0
18, 52512, Note_on_c, 15, 52, 0
18, 52800, Note_on_c, 15, 55, 60
18, 52800, Note_on_c, 15, 43, 60
18, 52992, Note_on_c, 15, 43, 0
18, 52992, Note_on_c, 15, 55, 0
18, 53760, Note_on_c, 15, 36, 60
18, 53760, Note_on_c, 15, 48, 60
18, 53952, Note_on_c, 15, 48, 0
18, 53952, Note_on_c, 15, 36, 0
18, 54240, Note_on_c, 15, 52, 60
18, 54240, Note_on_c, 15, 40, 60
18, 54432, Note_on_c, 15, 40, 0
18, 54432, Note_on_c, 15, 52, 0
18, 54720, Note_on_c, 15, 55, 60
18, 54720, Note_on_c, 15, 43, 60
18, 54912, Note_on_c, 15, 43, 0
18, 54912, Note_on_c, 15, 55, 0
18, 55200, Note_on_c, 15, 48, 60
18, 55200, Note_on_c, 15, 36, 60
18, 55392, Note_on_c, 15, 36, 0
18, 55392, Note_on_c, 15, 48, 0
18, 55680, Note_on_c, 15, 41, 60
18, 55680, Note_on_c, 15, 53, 60
18, 55872, Note_on_c, 15, 53, 0
18, 55872, Note_on_c, 15, 41, 0
18, 56160, Note_on_c, 15, 45, 60
18, 56160, Note_on_c, 15, 57, 60
18, 56352, Note_on_c, 15, 57, 0
18, 56352, Note_on_c, 15, 45, 0
18, 56640, Note_on_c, 15, 60, 60
18, 56640, Note_on_c, 15, 48, 60
18, 56832, Note_on_c, 15, 48, 0
18, 56832, Note_on_c, 15, 60, 0
18, 57600, Note_on_c, 15, 33, 60
18, 57600, Note_on_c, 15, 45, 60
18, 57792, Note_on_c, 15, 45, 0
18, 57792, Note_on_c, 15, 33, 0
18, 58080, Note_on_c, 15, 48, 60
18, 58080, Note_on_c, 15, 36, 60
18, 58272, Note_on_c, 15, 36, 0
18, 58272, Note_on_c, 15, 48, 0
18, 58560, Note_on_c, 15, 53, 60
18, 58560, Note_on_c, 15, 41, 60
18, 58752, Note_on_c, 15, 41, 0
18, 58752, Note_on_c, 15, 53, 0
18, 59520, Note_on_c, 15, 34, 60
18, 59520, Note_on_c, 15, 46, 60
18, 59712, Note_on_c, 15, 46, 0
18, 59712, Note_on_c, 15, 34, 0
18, 60000, Note_on_c, 15, 38, 60
18, 60000, Note_on_c, 15, 50, 60
18, 60192, Note_on_c, 15, 50, 0
18, 60192, Note_on_c, 15, 38, 0
18, 60480, Note_on_c, 15, 41, 60
18, 60480, Note_on_c, 15, 53, 60
18, 60672, Note_on_c, 15, 53, 0
18, 60672, Note_on_c, 15, 41, 0
18, 61440, Note_on_c, 15, 35, 60
18, 61440, Note_on_c, 15, 47, 60
18, 61632, Note_on_c, 15, 47, 0
18, 61632, Note_on_c, 15, 35, 0
18, 61920, Note_on_c, 15, 38, 60
18, 61920, Note_on_c, 15, 50, 60
18, 62112, Note_on_c, 15, 50, 0
18, 62112, Note_on_c, 15, 38, 0
18, 62400, Note_on_c, 15, 41, 60
18, 62400, Note_on_c, 15, 53, 60
18, 62592, Note_on_c, 15, 53, 0
18, 62592, Note_on_c, 15, 41, 0
18, 63360, Note_on_c, 15, 36, 60
18, 63360, Note_on_c, 15, 48, 60
18, 63552, Note_on_c, 15, 48, 0
18, 63552, Note_on_c, 15, 36, 0
18, 63840, Note_on_c, 15, 53, 60
18, 63840, Note_on_c, 15, 41, 60
18, 64032, Note_on_c, 15, 41, 0
18, 64032, Note_on_c, 15, 53, 0
18, 64320, Note_on_c, 15, 45, 60
18, 64320, Note_on_c, 15, 57, 60
18, 64512, Note_on_c, 15, 57, 0
18, 64512, Note_on_c, 15, 45, 0
18, 64800, Note_on_c, 15, 48, 60
18, 64800, Note_on_c, 15, 60, 60
18, 64992, Note_on_c, 15, 60, 0
18, 64992, Note_on_c, 15, 48, 0
18, 65280, Note_on_c, 15, 46, 60
18, 65280, Note_on_c, 15, 58, 60
18, 65472, Note_on_c, 15, 58, 0
18, 65472, Note_on_c, 15, 46, 0
18, 65760, Note_on_c, 15, 43, 60
18, 65760, Note_on_c, 15, 55, 60
18, 65952, Note_on_c, 15, 55, 0
18, 65952, Note_on_c, 15, 43, 0
18, 66240, Note_on_c, 15, 60, 60
18, 66240, Note_on_c, 15, 48, 60
18, 66432, Note_on_c, 15, 48, 0
18, 66432, Note_on_c, 15, 60, 0
18, 66720, Note_on_c, 15, 48, 60
18, 66720, Note_on_c, 15, 36, 60
18, 66912, Note_on_c, 15, 36, 0
18, 66912, Note_on_c, 15, 48, 0
18, 67200, Note_on_c, 15, 41, 60
18, 67200, Note_on_c, 15, 53, 60
18, 67392, Note_on_c, 15, 53, 0
18, 67392, Note_on_c, 15, 41, 0
18, 67680, Note_on_c, 15, 45, 60
18, 67680, Note_on_c, 15, 57, 60
18, 67872, Note_on_c, 15, 57, 0
18, 67872, Note_on_c, 15, 45, 0
18, 68160, Note_on_c, 15, 60, 60
18, 68160, Note_on_c, 15, 48, 60
18, 68352, Note_on_c, 15, 48, 0
18, 68352, Note_on_c, 15, 60, 0
18, 69120, Note_on_c, 15, 40, 60
18, 69120, Note_on_c, 15, 52, 60
18, 69312, Note_on_c, 15, 52, 0
18, 69312, Note_on_c, 15, 40, 0
18, 69600, Note_on_c, 15, 43, 60
18, 69600, Note_on_c, 15, 55, 60
18, 69792, Note_on_c, 15, 55, 0
18, 69792, Note_on_c, 15, 43, 0
18, 70080, Note_on_c, 15, 57, 60
18, 70080, Note_on_c, 15, 45, 60
18, 70272, Note_on_c, 15, 45, 0
18, 70272, Note_on_c, 15, 57, 0
18, 70560, Note_on_c, 15, 33, 60
18, 70560, Note_on_c, 15, 45, 60
18, 70752, Note_on_c, 15, 45, 0
18, 70752, Note_on_c, 15, 33, 0
18, 78720, Note_on_c, 15, 52, 60
18, 78912, Note_on_c, 15, 52, 0
18, 79200, Note_on_c, 15, 55, 60
18, 79392, Note_on_c, 15, 55, 0
18, 79680, Note_on_c, 15, 60, 60
18, 79872, Note_on_c, 15, 60, 0
18, 80640, Note_on_c, 15, 53, 60
18, 80832, Note_on_c, 15, 53, 0
18, 81120, Note_on_c, 15, 57, 60
18, 81312, Note_on_c, 15, 57, 0
18, 81600, Note_on_c, 15, 62, 60
18, 81792, Note_on_c, 15, 62, 0
18, 82560, Note_on_c, 15, 54, 60
18, 82752, Note_on_c, 15, 54, 0
18, 83040, Note_on_c, 15, 57, 60
18, 83232, Note_on_c, 15, 57, 0
18, 83520, Note_on_c, 15, 62, 60
18, 83712, Note_on_c, 15, 62, 0
18, 84480, Note_on_c, 15, 55, 60
18, 84864, Note_on_c, 15, 55, 0
18, 86400, Note_on_c, 15, 55, 60
18, 86592, Note_on_c, 15, 55, 0
18, 86880, Note_on_c, 15, 62, 60
18, 87072, Note_on_c, 15, 62, 0
18, 87360, Note_on_c, 15, 65, 60
18, 87552, Note_on_c, 15, 65, 0
18, 88320, Note_on_c, 15, 55, 60
18, 88512, Note_on_c, 15, 55, 0
18, 88800, Note_on_c, 15, 63, 60
18, 88992, Note_on_c, 15, 63, 0
18, 89280, Note_on_c, 15, 67, 60
18, 89472, Note_on_c, 15, 67, 0
18, 90240, Note_on_c, 15, 55, 60
18, 90432, Note_on_c, 15, 55, 0
18, 90720, Note_on_c, 15, 59, 60
18, 90912, Note_on_c, 15, 59, 0
18, 91200, Note_on_c, 15, 62, 60
18, 91392, Note_on_c, 15, 62, 0
18, 92160, Note_on_c, 15, 55, 60
18, 92352, Note_on_c, 15, 55, 0
18, 92640, Note_on_c, 15, 60, 60
18, 92832, Note_on_c, 15, 60, 0
18, 93120, Note_on_c, 15, 63, 60
18, 93312, Note_on_c, 15, 63, 0
18, 94080, Note_on_c, 15, 55, 60
18, 94272, Note_on_c, 15, 55, 0
18, 94560, Note_on_c, 15, 62, 60
18, 94752, Note_on_c, 15, 62, 0
18, 95040, Note_on_c, 15, 65, 60
18, 95232, Note_on_c, 15, 65, 0
18, 95520, Note_on_c, 15, 53, 60
18, 95712, Note_on_c, 15, 53, 0
18, 96000, Note_on_c, 15, 52, 60
18, 96192, Note_on_c, 15, 52, 0
18, 96480, Note_on_c, 15, 60, 60
18, 96672, Note_on_c, 15, 60, 0
18, 96960, Note_on_c, 15, 53, 60
18, 97152, Note_on_c, 15, 53, 0
18, 97440, Note_on_c, 15, 62, 60
18, 97632, Note_on_c, 15, 62, 0
18, 97920, Note_on_c, 15, 55, 60
18, 98112, Note_on_c, 15, 55, 0
18, 98400, Note_on_c, 15, 53, 60
18, 98592, Note_on_c, 15, 53, 0
18, 98880, Note_on_c, 15, 55, 60
18, 99072, Note_on_c, 15, 55, 0
18, 99360, Note_on_c, 15, 55, 60
18, 99552, Note_on_c, 15, 55, 0
18, 99840, Note_on_c, 15, 56, 60
18, 100032, Note_on_c, 15, 56, 0
18, 100320, Note_on_c, 15, 57, 60
18, 100512, Note_on_c, 15, 57, 0
18, 100800, Note_on_c, 15, 55, 60
18, 100992, Note_on_c, 15, 55, 0
18, 101280, Note_on_c, 15, 53, 60
18, 101472, Note_on_c, 15, 53, 0
18, 101760, Note_on_c, 15, 52, 60
18, 101952, Note_on_c, 15, 52, 0
18, 102240, Note_on_c, 15, 48, 60
18, 102432, Note_on_c, 15, 48, 0
18, 102720, Note_on_c, 15, 53, 60
18, 102912, Note_on_c, 15, 53, 0
18, 103200, Note_on_c, 15, 50, 60
18, 103392, Note_on_c, 15, 50, 0
18, 103680, Note_on_c, 15, 55, 60
18, 103872, Note_on_c, 15, 55, 0
18, 104160, Note_on_c, 15, 53, 60
18, 104352, Note_on_c, 15, 53, 0
18, 104640, Note_on_c, 15, 55, 60
18, 104832, Note_on_c, 15, 55, 0
18, 105120, Note_on_c, 15, 43, 60
18, 105312, Note_on_c, 15, 43, 0
18, 105600, Note_on_c, 15, 48, 60
18, 105792, Note_on_c, 15, 48, 0
18, 106080, Note_on_c, 15, 55, 60
18, 106272, Note_on_c, 15, 55, 0
18, 106560, Note_on_c, 15, 60, 60
18, 106752, Note_on_c, 15, 60, 0
18, 107040, Note_on_c, 15, 58, 60
18, 107232, Note_on_c, 15, 58, 0
18, 107520, Note_on_c, 15, 57, 60
18, 107712, Note_on_c, 15, 57, 0
18, 108000, Note_on_c, 15, 60, 60
18, 108192, Note_on_c, 15, 60, 0
18, 108480, Note_on_c, 15, 57, 60
18, 108672, Note_on_c, 15, 57, 0
18, 108960, Note_on_c, 15, 55, 60
18, 109152, Note_on_c, 15, 55, 0
18, 109440, Note_on_c, 15, 54, 60
18, 109632, Note_on_c, 15, 54, 0
18, 109920, Note_on_c, 15, 57, 60
18, 110112, Note_on_c, 15, 57, 0
18, 110400, Note_on_c, 15, 50, 60
18, 110592, Note_on_c, 15, 50, 0
18, 110880, Note_on_c, 15, 54, 60
18, 111072, Note_on_c, 15, 54, 0
18, 111360, Note_on_c, 15, 55, 60
18, 111552, Note_on_c, 15, 55, 0
18, 111840, Note_on_c, 15, 58, 60
18, 112032, Note_on_c, 15, 58, 0
18, 112320, Note_on_c, 15, 55, 60
18, 112512, Note_on_c, 15, 55, 0
18, 112800, Note_on_c, 15, 53, 60
18, 112992, Note_on_c, 15, 53, 0
18, 113280, Note_on_c, 15, 51, 60
18, 113472, Note_on_c, 15, 51, 0
18, 113760, Note_on_c, 15, 55, 60
18, 113952, Note_on_c, 15, 55, 0
18, 114240, Note_on_c, 15, 51, 60
18, 114432, Note_on_c, 15, 51, 0
18, 114720, Note_on_c, 15, 50, 60
18, 114912, Note_on_c, 15, 50, 0
18, 115200, Note_on_c, 15, 49, 60
18, 115392, Note_on_c, 15, 49, 0
18, 115680, Note_on_c, 15, 52, 60
18, 115872, Note_on_c, 15, 52, 0
18, 116160, Note_on_c, 15, 45, 60
18, 116352, Note_on_c, 15, 45, 0
18, 116640, Note_on_c, 15, 49, 60
18, 116832, Note_on_c, 15, 49, 0
18, 117120, Note_on_c, 15, 50, 90
18, 117312, Note_on_c, 15, 50, 0
18, 117600, Note_on_c, 15, 62, 90
18, 117792, Note_on_c, 15, 62, 0
18, 118080, Note_on_c, 15, 60, 90
18, 118272, Note_on_c, 15, 60, 0
18, 118560, Note_on_c, 15, 53, 90
18, 118752, Note_on_c, 15, 53, 0
18, 126720, Note_on_c, 15, 45, 100
18, 126912, Note_on_c, 15, 45, 0
18, 127200, Note_on_c, 15, 48, 80
18, 127392, Note_on_c, 15, 48, 0
18, 127680, Note_on_c, 15, 54, 60
18, 127872, Note_on_c, 15, 54, 0
18, 128640, Note_on_c, 15, 46, 100
18, 128832, Note_on_c, 15, 46, 0
18, 129120, Note_on_c, 15, 50, 80
18, 129312, Note_on_c, 15, 50, 0
18, 129600, Note_on_c, 15, 55, 60
18, 129792, Note_on_c, 15, 55, 0
18, 130560, Note_on_c, 15, 43, 100
18, 130752, Note_on_c, 15, 43, 0
18, 131040, Note_on_c, 15, 46, 80
18, 131232, Note_on_c, 15, 46, 0
18, 131520, Note_on_c, 15, 52, 60
18, 131712, Note_on_c, 15, 52, 0
18, 132480, Note_on_c, 15, 44, 100
18, 132672, Note_on_c, 15, 44, 0
18, 132960, Note_on_c, 15, 48, 80
18, 133152, Note_on_c, 15, 48, 0
18, 133440, Note_on_c, 15, 53, 60
18, 133632, Note_on_c, 15, 53, 0
18, 140160, Note_on_c, 15, 44, 60
18, 140352, Note_on_c, 15, 44, 0
18, 140640, Note_on_c, 15, 48, 60
18, 140832, Note_on_c, 15, 48, 0
18, 141120, Note_on_c, 15, 51, 60
18, 141312, Note_on_c, 15, 51, 0
18, 142080, Note_on_c, 15, 44, 60
18, 142272, Note_on_c, 15, 44, 0
18, 142560, Note_on_c, 15, 48, 60
18, 142752, Note_on_c, 15, 48, 0
18, 143040, Note_on_c, 15, 51, 60
18, 143232, Note_on_c, 15, 51, 0
18, 143520, Note_on_c, 15, 44, 60
18, 143712, Note_on_c, 15, 44, 0
18, 144000, Note_on_c, 15, 43, 60
18, 144192, Note_on_c, 15, 43, 0
18, 144480, Note_on_c, 15, 46, 60
18, 144672, Note_on_c, 15, 46, 0
18, 144960, Note_on_c, 15, 51, 60
18, 145152, Note_on_c, 15, 51, 0
18, 145920, Note_on_c, 15, 51, 60
18, 146112, Note_on_c, 15, 51, 0
18, 146400, Note_on_c, 15, 55, 60
18, 146592, Note_on_c, 15, 55, 0
18, 146880, Note_on_c, 15, 58, 60
18, 147072, Note_on_c, 15, 58, 0
18, 147840, Note_on_c, 15, 51, 60
18, 148032, Note_on_c, 15, 51, 0
18, 148320, Note_on_c, 15, 55, 60
18, 148512, Note_on_c, 15, 55, 0
18, 148800, Note_on_c, 15, 58, 60
18, 148992, Note_on_c, 15, 58, 0
18, 149280, Note_on_c, 15, 51, 60
18, 149472, Note_on_c, 15, 51, 0
18, 149760, Note_on_c, 15, 56, 60
18, 149952, Note_on_c, 15, 56, 0
18, 150240, Note_on_c, 15, 60, 60
18, 150432, Note_on_c, 15, 60, 0
18, 150720, Note_on_c, 15, 63, 60
18, 150912, Note_on_c, 15, 63, 0
18, 151200, Note_on_c, 15, 54, 60
18, 151392, Note_on_c, 15, 54, 0
18, 151680, Note_on_c, 15, 53, 60
18, 151872, Note_on_c, 15, 53, 0
18, 152160, Note_on_c, 15, 57, 60
18, 152352, Note_on_c, 15, 57, 0
18, 152640, Note_on_c, 15, 60, 60
18, 152832, Note_on_c, 15, 60, 0
18, 153600, Note_on_c, 15, 58, 60
18, 153792, Note_on_c, 15, 58, 0
18, 154080, Note_on_c, 15, 61, 60
18, 154272, Note_on_c, 15, 61, 0
18, 154560, Note_on_c, 15, 65, 60
18, 154752, Note_on_c, 15, 65, 0
18, 155040, Note_on_c, 15, 56, 60
18, 155232, Note_on_c, 15, 56, 0
18, 155520, Note_on_c, 15, 55, 60
18, 155712, Note_on_c, 15, 55, 0
18, 156000, Note_on_c, 15, 59, 60
18, 156192, Note_on_c, 15, 59, 0
18, 156480, Note_on_c, 15, 62, 60
18, 156672, Note_on_c, 15, 62, 0
18, 157440, Note_on_c, 15, 48, 60
18, 157824, Note_on_c, 15, 48, 0
18, 159360, Note_on_c, 15, 48, 60
18, 159648, Note_on_c, 15, 48, 0
18, 159840, Note_on_c, 15, 55, 60
18, 160128, Note_on_c, 15, 55, 0
18, 160320, Note_on_c, 15, 58, 60
18, 160608, Note_on_c, 15, 58, 0
18, 161280, Note_on_c, 15, 48, 60
18, 161568, Note_on_c, 15, 48, 0
18, 161760, Note_on_c, 15, 56, 60
18, 162048, Note_on_c, 15, 56, 0
18, 162240, Note_on_c, 15, 60, 60
18, 162528, Note_on_c, 15, 60, 0
18, 163200, Note_on_c, 15, 48, 60
18, 163488, Note_on_c, 15, 48, 0
18, 163680, Note_on_c, 15, 52, 60
18, 163968, Note_on_c, 15, 52, 0
18, 164160, Note_on_c, 15, 55, 60
18, 164448, Note_on_c, 15, 55, 0
18, 165120, Note_on_c, 15, 48, 60
18, 165408, Note_on_c, 15, 48, 0
18, 165600, Note_on_c, 15, 53, 60
18, 165888, Note_on_c, 15, 53, 0
18, 166080, Note_on_c, 15, 56, 60
18, 166368, Note_on_c, 15, 56, 0
18, 167040, Note_on_c, 15, 48, 60
18, 167328, Note_on_c, 15, 48, 0
18, 167520, Note_on_c, 15, 55, 60
18, 167808, Note_on_c, 15, 55, 0
18, 168000, Note_on_c, 15, 58, 60
18, 168288, Note_on_c, 15, 58, 0
18, 168480, Note_on_c, 15, 46, 60
18, 168768, Note_on_c, 15, 46, 0
18, 168960, Note_on_c, 15, 45, 60
18, 169248, Note_on_c, 15, 45, 0
18, 169440, Note_on_c, 15, 53, 60
18, 169728, Note_on_c, 15, 53, 0
18, 169920, Note_on_c, 15, 46, 60
18, 170208, Note_on_c, 15, 46, 0
18, 170400, Note_on_c, 15, 55, 60
18, 170688, Note_on_c, 15, 55, 0
18, 170880, Note_on_c, 15, 48, 60
18, 171168, Note_on_c, 15, 48, 0
18, 171360, Note_on_c, 15, 46, 60
18, 171648, Note_on_c, 15, 46, 0
18, 171840, Note_on_c, 15, 48, 60
18, 172128, Note_on_c, 15, 48, 0
18, 172320, Note_on_c, 15, 48, 60
18, 172608, Note_on_c, 15, 48, 0
18, 172800, Note_on_c, 15, 48, 60
18, 173088, Note_on_c, 15, 48, 0
18, 173280, Note_on_c, 15, 50, 60
18, 173568, Note_on_c, 15, 50, 0
18, 173760, Note_on_c, 15, 48, 60
18, 174048, Note_on_c, 15, 48, 0
18, 174240, Note_on_c, 15, 46, 60
18, 174528, Note_on_c, 15, 46, 0
18, 174720, Note_on_c, 15, 45, 60
18, 175032, Note_on_c, 15, 45, 0
18, 175200, Note_on_c, 15, 53, 60
18, 175512, Note_on_c, 15, 53, 0
18, 175680, Note_on_c, 15, 46, 60
18, 175992, Note_on_c, 15, 46, 0
18, 176160, Note_on_c, 15, 55, 60
18, 176472, Note_on_c, 15, 55, 0
18, 176640, Note_on_c, 15, 48, 60
18, 176952, Note_on_c, 15, 48, 0
18, 177120, Note_on_c, 15, 47, 60
18, 177432, Note_on_c, 15, 47, 0
18, 177600, Note_on_c, 15, 48, 60
18, 177912, Note_on_c, 15, 48, 0
18, 178080, Note_on_c, 15, 48, 60
18, 178392, Note_on_c, 15, 48, 0
18, 178560, Note_on_c, 15, 53, 60
18, 178944, Note_on_c, 15, 53, 0
18, 180480, Note_on_c, 15, 45, 60
18, 180672, Note_on_c, 15, 45, 0
18, 180960, Note_on_c, 15, 48, 60
18, 181152, Note_on_c, 15, 48, 0
18, 181440, Note_on_c, 15, 53, 60
18, 181632, Note_on_c, 15, 53, 0
18, 181920, Note_on_c, 15, 45, 60
18, 182112, Note_on_c, 15, 45, 0
18, 182400, Note_on_c, 15, 46, 60
18, 182784, Note_on_c, 15, 46, 0
18, 184320, Note_on_c, 15, 47, 60
18, 184512, Note_on_c, 15, 47, 0
18, 184800, Note_on_c, 15, 50, 60
18, 184992, Note_on_c, 15, 50, 0
18, 185280, Note_on_c, 15, 53, 60
18, 185472, Note_on_c, 15, 53, 0
18, 185760, Note_on_c, 15, 47, 60
18, 185952, Note_on_c, 15, 47, 0
18, 186240, Note_on_c, 15, 48, 60
18, 186432, Note_on_c, 15, 48, 0
18, 186720, Note_on_c, 15, 53, 60
18, 186912, Note_on_c, 15, 53, 0
18, 187200, Note_on_c, 15, 57, 60
18, 187392, Note_on_c, 15, 57, 0
18, 187680, Note_on_c, 15, 60, 60
18, 187872, Note_on_c, 15, 60, 0
18, 188160, Note_on_c, 15, 58, 60
18, 188352, Note_on_c, 15, 58, 0
18, 188640, Note_on_c, 15, 55, 60
18, 188832, Note_on_c, 15, 55, 0
18, 189120, Note_on_c, 15, 60, 60
18, 189312, Note_on_c, 15, 60, 0
18, 189600, Note_on_c, 15, 48, 60
18, 189792, Note_on_c, 15, 48, 0
18, 190080, Note_on_c, 15, 53, 60
18, 190272, Note_on_c, 15, 53, 0
18, 190560, Note_on_c, 15, 57, 60
18, 190752, Note_on_c, 15, 57, 0
18, 191040, Note_on_c, 15, 60, 60
18, 191232, Note_on_c, 15, 60, 0
18, 192000, Note_on_c, 15, 48, 60
18, 192192, Note_on_c, 15, 48, 0
18, 192480, Note_on_c, 15, 52, 60
18, 192672, Note_on_c, 15, 52, 0
18, 192960, Note_on_c, 15, 55, 60
18, 193152, Note_on_c, 15, 55, 0
18, 193440, Note_on_c, 15, 48, 60
18, 193632, Note_on_c, 15, 48, 0
18, 193920, Note_on_c, 15, 53, 60
18, 194112, Note_on_c, 15, 53, 0
18, 194400, Note_on_c, 15, 57, 60
18, 194592, Note_on_c, 15, 57, 0
18, 194880, Note_on_c, 15, 60, 60
18, 195072, Note_on_c, 15, 60, 0
18, 195840, Note_on_c, 15, 48, 60
18, 196032, Note_on_c, 15, 48, 0
18, 196320, Note_on_c, 15, 52, 60
18, 196512, Note_on_c, 15, 52, 0
18, 196800, Note_on_c, 15, 55, 60
18, 196992, Note_on_c, 15, 55, 0
18, 197280, Note_on_c, 15, 48, 60
18, 197472, Note_on_c, 15, 48, 0
18, 197760, Note_on_c, 15, 53, 55
18, 197952, Note_on_c, 15, 53, 0
18, 198240, Note_on_c, 15, 57, 54
18, 198432, Note_on_c, 15, 57, 0
18, 198720, Note_on_c, 15, 60, 54
18, 198912, Note_on_c, 15, 60, 0
18, 199200, Note_on_c, 15, 57, 53
18, 199392, Note_on_c, 15, 57, 0
18, 199680, Note_on_c, 15, 53, 53
18, 200144, Note_on_c, 15, 53, 0
18, 200144, End_track
19, 0, Start_track
19, 0, Sequencer_specific, 04, 43, 00, 01, 00
19, 0, Program_c, 15, 45
19, 0, Control_c, 15, 7, 78
19, 0, Control_c, 15, 10, 89
19, 0, Control_c, 15, 91, 100
19, 78720, Note_on_c, 15, 40, 60
19, 78912, Note_on_c, 15, 40, 0
19, 79200, Note_on_c, 15, 43, 60
19, 79392, Note_on_c, 15, 43, 0
19, 79680, Note_on_c, 15, 48, 60
19, 79872, Note_on_c, 15, 48, 0
19, 80640, Note_on_c, 15, 41, 60
19, 80832, Note_on_c, 15, 41, 0
19, 81120, Note_on_c, 15, 45, 60
19, 81312, Note_on_c, 15, 45, 0
19, 81600, Note_on_c, 15, 50, 60
19, 81792, Note_on_c, 15, 50, 0
19, 82560, Note_on_c, 15, 42, 60
19, 82752, Note_on_c, 15, 42, 0
19, 83040, Note_on_c, 15, 45, 60
19, 83232, Note_on_c, 15, 45, 0
19, 83520, Note_on_c, 15, 50, 60
19, 83712, Note_on_c, 15, 50, 0
19, 84480, Note_on_c, 15, 43, 60
19, 84864, Note_on_c, 15, 43, 0
19, 86400, Note_on_c, 15, 43, 60
19, 86592, Note_on_c, 15, 43, 0
19, 86880, Note_on_c, 15, 50, 60
19, 87072, Note_on_c, 15, 50, 0
19, 87360, Note_on_c, 15, 53, 60
19, 87552, Note_on_c, 15, 53, 0
19, 88320, Note_on_c, 15, 43, 60
19, 88512, Note_on_c, 15, 43, 0
19, 88800, Note_on_c, 15, 51, 60
19, 88992, Note_on_c, 15, 51, 0
19, 89280, Note_on_c, 15, 55, 60
19, 89472, Note_on_c, 15, 55, 0
19, 90240, Note_on_c, 15, 43, 60
19, 90432, Note_on_c, 15, 43, 0
19, 90720, Note_on_c, 15, 47, 60
19, 90912, Note_on_c, 15, 47, 0
19, 91200, Note_on_c, 15, 50, 60
19, 91392, Note_on_c, 15, 50, 0
19, 92160, Note_on_c, 15, 43, 60
19, 92352, Note_on_c, 15, 43, 0
19, 92640, Note_on_c, 15, 48, 60
19, 92832, Note_on_c, 15, 48, 0
19, 93120, Note_on_c, 15, 51, 60
19, 93312, Note_on_c, 15, 51, 0
19, 94080, Note_on_c, 15, 43, 60
19, 94272, Note_on_c, 15, 43, 0
19, 94560, Note_on_c, 15, 50, 60
19, 94752, Note_on_c, 15, 50, 0
19, 95040, Note_on_c, 15, 53, 60
19, 95232, Note_on_c, 15, 53, 0
19, 95520, Note_on_c, 15, 41, 60
19, 95712, Note_on_c, 15, 41, 0
19, 96000, Note_on_c, 15, 40, 60
19, 96192, Note_on_c, 15, 40, 0
19, 96480, Note_on_c, 15, 48, 60
19, 96672, Note_on_c, 15, 48, 0
19, 96960, Note_on_c, 15, 41, 60
19, 97152, Note_on_c, 15, 41, 0
19, 97440, Note_on_c, 15, 50, 60
19, 97632, Note_on_c, 15, 50, 0
19, 97920, Note_on_c, 15, 43, 60
19, 98112, Note_on_c, 15, 43, 0
19, 98400, Note_on_c, 15, 41, 60
19, 98592, Note_on_c, 15, 41, 0
19, 98880, Note_on_c, 15, 43, 60
19, 99072, Note_on_c, 15, 43, 0
19, 99360, Note_on_c, 15, 43, 60
19, 99552, Note_on_c, 15, 43, 0
19, 99840, Note_on_c, 15, 44, 60
19, 100032, Note_on_c, 15, 44, 0
19, 100320, Note_on_c, 15, 45, 60
19, 100512, Note_on_c, 15, 45, 0
19, 100800, Note_on_c, 15, 43, 60
19, 100992, Note_on_c, 15, 43, 0
19, 101280, Note_on_c, 15, 41, 60
19, 101472, Note_on_c, 15, 41, 0
19, 101760, Note_on_c, 15, 40, 60
19, 101952, Note_on_c, 15, 40, 0
19, 102240, Note_on_c, 15, 36, 60
19, 102432, Note_on_c, 15, 36, 0
19, 102720, Note_on_c, 15, 41, 60
19, 102912, Note_on_c, 15, 41, 0
19, 103200, Note_on_c, 15, 38, 60
19, 103392, Note_on_c, 15, 38, 0
19, 103680, Note_on_c, 15, 43, 60
19, 103872, Note_on_c, 15, 43, 0
19, 104160, Note_on_c, 15, 41, 60
19, 104352, Note_on_c, 15, 41, 0
19, 104640, Note_on_c, 15, 43, 60
19, 104832, Note_on_c, 15, 43, 0
19, 105120, Note_on_c, 15, 31, 60
19, 105312, Note_on_c, 15, 31, 0
19, 105600, Note_on_c, 15, 36, 60
19, 105792, Note_on_c, 15, 36, 0
19, 106080, Note_on_c, 15, 43, 60
19, 106272, Note_on_c, 15, 43, 0
19, 106560, Note_on_c, 15, 48, 60
19, 106752, Note_on_c, 15, 48, 0
19, 107040, Note_on_c, 15, 46, 60
19, 107232, Note_on_c, 15, 46, 0
19, 107520, Note_on_c, 15, 45, 60
19, 107712, Note_on_c, 15, 45, 0
19, 108000, Note_on_c, 15, 48, 60
19, 108192, Note_on_c, 15, 48, 0
19, 108480, Note_on_c, 15, 45, 60
19, 108672, Note_on_c, 15, 45, 0
19, 108960, Note_on_c, 15, 43, 60
19, 109152, Note_on_c, 15, 43, 0
19, 109440, Note_on_c, 15, 42, 60
19, 109632, Note_on_c, 15, 42, 0
19, 109920, Note_on_c, 15, 45, 60
19, 110112, Note_on_c, 15, 45, 0
19, 110400, Note_on_c, 15, 38, 60
19, 110592, Note_on_c, 15, 38, 0
19, 110880, Note_on_c, 15, 42, 60
19, 111072, Note_on_c, 15, 42, 0
19, 111360, Note_on_c, 15, 43, 60
19, 111552, Note_on_c, 15, 43, 0
19, 111840, Note_on_c, 15, 46, 60
19, 112032, Note_on_c, 15, 46, 0
19, 112320, Note_on_c, 15, 43, 60
19, 112512, Note_on_c, 15, 43, 0
19, 112800, Note_on_c, 15, 41, 60
19, 112992, Note_on_c, 15, 41, 0
19, 113280, Note_on_c, 15, 39, 60
19, 113472, Note_on_c, 15, 39, 0
19, 113760, Note_on_c, 15, 43, 60
19, 113952, Note_on_c, 15, 43, 0
19, 114240, Note_on_c, 15, 39, 60
19, 114432, Note_on_c, 15, 39, 0
19, 114720, Note_on_c, 15, 38, 60
19, 114912, Note_on_c, 15, 38, 0
19, 115200, Note_on_c, 15, 37, 60
19, 115392, Note_on_c, 15, 37, 0
19, 115680, Note_on_c, 15, 40, 60
19, 115872, Note_on_c, 15, 40, 0
19, 116160, Note_on_c, 15, 33, 60
19, 116352, Note_on_c, 15, 33, 0
19, 116640, Note_on_c, 15, 37, 60
19, 116832, Note_on_c, 15, 37, 0
19, 117120, Note_on_c, 15, 38, 105
19, 117312, Note_on_c, 15, 38, 0
19, 117600, Note_on_c, 15, 50, 105
19, 117792, Note_on_c, 15, 50, 0
19, 118080, Note_on_c, 15, 48, 105
19, 118272, Note_on_c, 15, 48, 0
19, 118560, Note_on_c, 15, 41, 105
19, 118752, Note_on_c, 15, 41, 0
19, 126720, Note_on_c, 15, 33, 100
19, 126912, Note_on_c, 15, 33, 0
19, 127200, Note_on_c, 15, 36, 80
19, 127392, Note_on_c, 15, 36, 0
19, 127680, Note_on_c, 15, 42, 60
19, 127872, Note_on_c, 15, 42, 0
19, 128640, Note_on_c, 15, 34, 100
19, 128832, Note_on_c, 15, 34, 0
19, 129120, Note_on_c, 15, 38, 80
19, 129312, Note_on_c, 15, 38, 0
19, 129600, Note_on_c, 15, 43, 60
19, 129792, Note_on_c, 15, 43, 0
19, 130560, Note_on_c, 15, 31, 100
19, 130752, Note_on_c, 15, 31, 0
19, 131040, Note_on_c, 15, 34, 80
19, 131232, Note_on_c, 15, 34, 0
19, 131520, Note_on_c, 15, 40, 60
19, 131712, Note_on_c, 15, 40, 0
19, 132480, Note_on_c, 15, 32, 100
19, 132672, Note_on_c, 15, 32, 0
19, 132960, Note_on_c, 15, 36, 80
19, 133152, Note_on_c, 15, 36, 0
19, 133440, Note_on_c, 15, 41, 60
19, 133632, Note_on_c, 15, 41, 0
19, 140160, Note_on_c, 15, 32, 60
19, 140352, Note_on_c, 15, 32, 0
19, 140640, Note_on_c, 15, 36, 60
19, 140832, Note_on_c, 15, 36, 0
19, 141120, Note_on_c, 15, 39, 60
19, 141312, Note_on_c, 15, 39, 0
19, 142080, Note_on_c, 15, 32, 60
19, 142272, Note_on_c, 15, 32, 0
19, 142560, Note_on_c, 15, 36, 60
19, 142752, Note_on_c, 15, 36, 0
19, 143040, Note_on_c, 15, 39, 60
19, 143232, Note_on_c, 15, 39, 0
19, 143520, Note_on_c, 15, 32, 60
19, 143712, Note_on_c, 15, 32, 0
19, 144000, Note_on_c, 15, 31, 60
19, 144192, Note_on_c, 15, 31, 0
19, 144480, Note_on_c, 15, 34, 60
19, 144672, Note_on_c, 15, 34, 0
19, 144960, Note_on_c, 15, 39, 60
19, 145152, Note_on_c, 15, 39, 0
19, 145920, Note_on_c, 15, 39, 60
19, 146112, Note_on_c, 15, 39, 0
19, 146400, Note_on_c, 15, 43, 60
19, 146592, Note_on_c, 15, 43, 0
19, 146880, Note_on_c, 15, 46, 60
19, 147072, Note_on_c, 15, 46, 0
19, 147840, Note_on_c, 15, 39, 60
19, 148032, Note_on_c, 15, 39, 0
19, 148320, Note_on_c, 15, 43, 60
19, 148512, Note_on_c, 15, 43, 0
19, 148800, Note_on_c, 15, 46, 60
19, 148992, Note_on_c, 15, 46, 0
19, 149280, Note_on_c, 15, 39, 60
19, 149472, Note_on_c, 15, 39, 0
19, 149760, Note_on_c, 15, 44, 60
19, 149952, Note_on_c, 15, 44, 0
19, 150240, Note_on_c, 15, 48, 60
19, 150432, Note_on_c, 15, 48, 0
19, 150720, Note_on_c, 15, 51, 60
19, 150912, Note_on_c, 15, 51, 0
19, 151200, Note_on_c, 15, 42, 60
19, 151392, Note_on_c, 15, 42, 0
19, 151680, Note_on_c, 15, 41, 60
19, 151872, Note_on_c, 15, 41, 0
19, 152160, Note_on_c, 15, 45, 60
19, 152352, Note_on_c, 15, 45, 0
19, 152640, Note_on_c, 15, 48, 60
19, 152832, Note_on_c, 15, 48, 0
19, 153600, Note_on_c, 15, 46, 60
19, 153792, Note_on_c, 15, 46, 0
19, 154080, Note_on_c, 15, 49, 60
19, 154272, Note_on_c, 15, 49, 0
19, 154560, Note_on_c, 15, 53, 60
19, 154752, Note_on_c, 15, 53, 0
19, 155040, Note_on_c, 15, 44, 60
19, 155232, Note_on_c, 15, 44, 0
19, 155520, Note_on_c, 15, 43, 60
19, 155712, Note_on_c, 15, 43, 0
19, 156000, Note_on_c, 15, 47, 60
19, 156192, Note_on_c, 15, 47, 0
19, 156480, Note_on_c, 15, 50, 60
19, 156672, Note_on_c, 15, 50, 0
19, 157440, Note_on_c, 15, 36, 60
19, 157824, Note_on_c, 15, 36, 0
19, 159360, Note_on_c, 15, 36, 60
19, 159648, Note_on_c, 15, 36, 0
19, 159840, Note_on_c, 15, 43, 60
19, 160128, Note_on_c, 15, 43, 0
19, 160320, Note_on_c, 15, 46, 60
19, 160608, Note_on_c, 15, 46, 0
19, 161280, Note_on_c, 15, 36, 60
19, 161568, Note_on_c, 15, 36, 0
19, 161760, Note_on_c, 15, 44, 60
19, 162048, Note_on_c, 15, 44, 0
19, 162240, Note_on_c, 15, 48, 60
19, 162528, Note_on_c, 15, 48, 0
19, 163200, Note_on_c, 15, 36, 60
19, 163488, Note_on_c, 15, 36, 0
19, 163680, Note_on_c, 15, 40, 60
19, 163968, Note_on_c, 15, 40, 0
19, 164160, Note_on_c, 15, 43, 60
19, 164448, Note_on_c, 15, 43, 0
19, 165120, Note_on_c, 15, 36, 60
19, 165408, Note_on_c, 15, 36, 0
19, 165600, Note_on_c, 15, 41, 60
19, 165888, Note_on_c, 15, 41, 0
19, 166080, Note_on_c, 15, 44, 60
19, 166368, Note_on_c, 15, 44, 0
19, 167040, Note_on_c, 15, 36, 60
19, 167328, Note_on_c, 15, 36, 0
19, 167520, Note_on_c, 15, 43, 60
19, 167808, Note_on_c, 15, 43, 0
19, 168000, Note_on_c, 15, 46, 60
19, 168288, Note_on_c, 15, 46, 0
19, 168480, Note_on_c, 15, 34, 60
19, 168768, Note_on_c, 15, 34, 0
19, 168960, Note_on_c, 15, 33, 60
19, 169248, Note_on_c, 15, 33, 0
19, 169440, Note_on_c, 15, 41, 60
19, 169728, Note_on_c, 15, 41, 0
19, 169920, Note_on_c, 15, 34, 60
19, 170208, Note_on_c, 15, 34, 0
19, 170400, Note_on_c, 15, 43, 60
19, 170688, Note_on_c, 15, 43, 0
19, 170880, Note_on_c, 15, 36, 60
19, 171168, Note_on_c, 15, 36, 0
19, 171360, Note_on_c, 15, 34, 60
19, 171648, Note_on_c, 15, 34, 0
19, 171840, Note_on_c, 15, 36, 60
19, 172128, Note_on_c, 15, 36, 0
19, 172320, Note_on_c, 15, 36, 60
19, 172608, Note_on_c, 15, 36, 0
19, 172800, Note_on_c, 15, 36, 60
19, 173088, Note_on_c, 15, 36, 0
19, 173280, Note_on_c, 15, 38, 60
19, 173568, Note_on_c, 15, 38, 0
19, 173760, Note_on_c, 15, 36, 60
19, 174048, Note_on_c, 15, 36, 0
19, 174240, Note_on_c, 15, 34, 60
19, 174528, Note_on_c, 15, 34, 0
19, 174720, Note_on_c, 15, 33, 60
19, 175008, Note_on_c, 15, 33, 0
19, 175200, Note_on_c, 15, 41, 60
19, 175488, Note_on_c, 15, 41, 0
19, 175680, Note_on_c, 15, 34, 60
19, 175968, Note_on_c, 15, 34, 0
19, 176160, Note_on_c, 15, 43, 60
19, 176448, Note_on_c, 15, 43, 0
19, 176640, Note_on_c, 15, 36, 60
19, 176928, Note_on_c, 15, 36, 0
19, 177120, Note_on_c, 15, 35, 60
19, 177408, Note_on_c, 15, 35, 0
19, 177600, Note_on_c, 15, 36, 60
19, 177888, Note_on_c, 15, 36, 0
19, 178080, Note_on_c, 15, 36, 60
19, 178368, Note_on_c, 15, 36, 0
19, 178560, Note_on_c, 15, 41, 60
19, 178944, Note_on_c, 15, 41, 0
19, 180480, Note_on_c, 15, 33, 60
19, 180672, Note_on_c, 15, 33, 0
19, 180960, Note_on_c, 15, 36, 60
19, 181152, Note_on_c, 15, 36, 0
19, 181440, Note_on_c, 15, 41, 60
19, 181632, Note_on_c, 15, 41, 0
19, 181920, Note_on_c, 15, 33, 60
19, 182112, Note_on_c, 15, 33, 0
19, 182400, Note_on_c, 15, 34, 60
19, 182784, Note_on_c, 15, 34, 0
19, 184320, Note_on_c, 15, 35, 60
19, 184512, Note_on_c, 15, 35, 0
19, 184800, Note_on_c, 15, 38, 60
19, 184992, Note_on_c, 15, 38, 0
19, 185280, Note_on_c, 15, 41, 60
19, 185472, Note_on_c, 15, 41, 0
19, 185760, Note_on_c, 15, 35, 60
19, 185952, Note_on_c, 15, 35, 0
19, 186240, Note_on_c, 15, 36, 60
19, 186432, Note_on_c, 15, 36, 0
19, 186720, Note_on_c, 15, 41, 60
19, 186912, Note_on_c, 15, 41, 0
19, 187200, Note_on_c, 15, 45, 60
19, 187392, Note_on_c, 15, 45, 0
19, 187680, Note_on_c, 15, 48, 60
19, 187872, Note_on_c, 15, 48, 0
19, 188160, Note_on_c, 15, 46, 60
19, 188352, Note_on_c, 15, 46, 0
19, 188640, Note_on_c, 15, 43, 60
19, 188832, Note_on_c, 15, 43, 0
19, 189120, Note_on_c, 15, 48, 60
19, 189312, Note_on_c, 15, 48, 0
19, 189600, Note_on_c, 15, 36, 60
19, 189792, Note_on_c, 15, 36, 0
19, 190080, Note_on_c, 15, 41, 60
19, 190272, Note_on_c, 15, 41, 0
19, 190560, Note_on_c, 15, 45, 60
19, 190752, Note_on_c, 15, 45, 0
19, 191040, Note_on_c, 15, 48, 60
19, 191232, Note_on_c, 15, 48, 0
19, 192000, Note_on_c, 15, 36, 60
19, 192192, Note_on_c, 15, 36, 0
19, 192480, Note_on_c, 15, 40, 60
19, 192672, Note_on_c, 15, 40, 0
19, 192960, Note_on_c, 15, 43, 60
19, 193152, Note_on_c, 15, 43, 0
19, 193440, Note_on_c, 15, 36, 60
19, 193632, Note_on_c, 15, 36, 0
19, 193920, Note_on_c, 15, 41, 60
19, 194112, Note_on_c, 15, 41, 0
19, 194400, Note_on_c, 15, 45, 60
19, 194592, Note_on_c, 15, 45, 0
19, 194880, Note_on_c, 15, 48, 60
19, 195072, Note_on_c, 15, 48, 0
19, 195840, Note_on_c, 15, 36, 60
19, 196032, Note_on_c, 15, 36, 0
19, 196320, Note_on_c, 15, 40, 60
19, 196512, Note_on_c, 15, 40, 0
19, 196800, Note_on_c, 15, 43, 60
19, 196992, Note_on_c, 15, 43, 0
19, 197280, Note_on_c, 15, 36, 60
19, 197472, Note_on_c, 15, 36, 0
19, 197760, Note_on_c, 15, 41, 56
19, 197952, Note_on_c, 15, 41, 0
19, 198240, Note_on_c, 15, 45, 55
19, 198432, Note_on_c, 15, 45, 0
19, 198720, Note_on_c, 15, 48, 55
19, 198912, Note_on_c, 15, 48, 0
19, 199200, Note_on_c, 15, 45, 54
19, 199392, Note_on_c, 15, 45, 0
19, 199680, Note_on_c, 15, 41, 54
19, 200160, Note_on_c, 15, 41, 0
19, 201600, Note_on_c, 15, 29, 1
19, 203136, Note_on_c, 15, 29, 0
19, 203136, End_track
0, 0, End_of_file