0, 0, Header, 1, 13, 120
1, 0, Start_track
1, 0, Time_signature, 6, 3, 12, 8
1, 0, Key_signature, -1, "major"
1, 0, Tempo, 722892
1, 0, Marker_t, "Agnus Dei"
1, 15190, Tempo, 1000000
1, 15460, Tempo, 722892
1, 19985, Tempo, 1558442
1, 20105, Tempo, 674157
1, 20160, Time_signature, 8, 3, 12, 8
1, 20160, Key_signature, 0, "major"
1, 26695, Tempo, 674157
1, 26705, Tempo, 670391
1, 26710, Tempo, 666667
1, 26720, Tempo, 662983
1, 26725, Tempo, 659341
1, 26735, Tempo, 655738
1, 26740, Tempo, 652174
1, 26750, Tempo, 648649
1, 26755, Tempo, 645161
1, 26765, Tempo, 641711
1, 26770, Tempo, 638298
1, 26780, Tempo, 634921
1, 26785, Tempo, 631579
1, 26795, Tempo, 628272
1, 26800, Tempo, 625000
1, 26810, Tempo, 621762
1, 26815, Tempo, 618557
1, 26825, Tempo, 615385
1, 26830, Tempo, 612245
1, 26840, Tempo, 609137
1, 26845, Tempo, 606061
1, 26855, Tempo, 603015
1, 26860, Tempo, 600000
1, 26870, Tempo, 597015
1, 26875, Tempo, 594059
1, 42710, Tempo, 594059
1, 42745, Tempo, 597015
1, 42780, Tempo, 600000
1, 42815, Tempo, 603015
1, 42850, Tempo, 606061
1, 42885, Tempo, 609137
1, 42920, Tempo, 612245
1, 42955, Tempo, 615385
1, 42990, Tempo, 618557
1, 43025, Tempo, 621762
1, 43060, Tempo, 625000
1, 43095, Tempo, 628272
1, 43130, Tempo, 631579
1, 43165, Tempo, 634921
1, 43200, Tempo, 638298
1, 43235, Tempo, 641711
1, 43270, Tempo, 645161
1, 43305, Tempo, 648649
1, 43340, Tempo, 652174
1, 43375, Tempo, 655738
1, 43410, Tempo, 659341
1, 43445, Tempo, 662983
1, 43480, Tempo, 666667
1, 43515, Tempo, 670391
1, 43550, Tempo, 674157
1, 43585, Tempo, 677966
1, 43620, Tempo, 681818
1, 43655, Tempo, 685714
1, 43690, Tempo, 689655
1, 43725, Tempo, 693642
1, 43760, Tempo, 697674
1, 43795, Tempo, 701754
1, 43830, Tempo, 705882
1, 43865, Tempo, 710059
1, 43900, Tempo, 714286
1, 43935, Tempo, 718563
1, 43970, Tempo, 722892
1, 44005, Tempo, 727273
1, 44040, Tempo, 731707
1, 44075, Tempo, 736196
1, 44110, Tempo, 740741
1, 44145, Tempo, 745342
1, 44175, Tempo, 750000
1, 44175, End_track
2, 0, Start_track
2, 0, MIDI_port, 0
2, 0, Title_t, "treble accomp"
2, 0, Program_c, 0, 0
2, 0, Note_on_c, 0, 65, 64
2, 240, Note_on_c, 0, 67, 54
2, 242, Note_on_c, 0, 65, 0
2, 360, Note_on_c, 0, 67, 0
2, 360, Note_on_c, 0, 65, 54
2, 415, Note_on_c, 0, 65, 0
2, 420, Note_on_c, 0, 64, 39
2, 465, Note_on_c, 0, 64, 0
2, 480, Note_on_c, 0, 65, 64
2, 480, Note_on_c, 0, 57, 59
2, 490, Note_on_c, 0, 57, 0
2, 507, Note_on_c, 0, 65, 0
2, 540, Note_on_c, 0, 57, 27
2, 540, Note_on_c, 0, 60, 45
2, 574, Note_on_c, 0, 60, 0
2, 597, Note_on_c, 0, 57, 0
2, 600, Note_on_c, 0, 65, 45
2, 600, Note_on_c, 0, 60, 50
2, 652, Note_on_c, 0, 60, 0
2, 652, Note_on_c, 0, 65, 0
2, 660, Note_on_c, 0, 67, 50
2, 660, Note_on_c, 0, 64, 43
2, 689, Note_on_c, 0, 64, 0
2, 690, Note_on_c, 0, 67, 0
2, 720, Note_on_c, 0, 69, 54
2, 720, Note_on_c, 0, 65, 59
2, 773, Note_on_c, 0, 65, 0
2, 780, Note_on_c, 0, 60, 37
2, 837, Note_on_c, 0, 60, 0
2, 840, Note_on_c, 0, 65, 45
2, 899, Note_on_c, 0, 65, 0
2, 900, Note_on_c, 0, 60, 45
2, 929, Note_on_c, 0, 60, 0
2, 952, Note_on_c, 0, 69, 0
2, 960, Note_on_c, 0, 70, 45
2, 960, Note_on_c, 0, 62, 34
2, 1020, Note_on_c, 0, 67, 50
2, 1026, Note_on_c, 0, 70, 0
2, 1036, Note_on_c, 0, 62, 0
2, 1072, Note_on_c, 0, 67, 0
2, 1080, Note_on_c, 0, 69, 50
2, 1080, Note_on_c, 0, 65, 54
2, 1135, Note_on_c, 0, 65, 0
2, 1140, Note_on_c, 0, 69, 0
2, 1140, Note_on_c, 0, 67, 45
2, 1140, Note_on_c, 0, 64, 32
2, 1191, Note_on_c, 0, 67, 0
2, 1192, Note_on_c, 0, 64, 0
2, 1200, Note_on_c, 0, 65, 45
2, 1200, Note_on_c, 0, 69, 43
2, 1256, Note_on_c, 0, 65, 0
2, 1260, Note_on_c, 0, 69, 0
2, 1260, Note_on_c, 0, 60, 37
2, 1320, Note_on_c, 0, 65, 54
2, 1328, Note_on_c, 0, 60, 0
2, 1375, Note_on_c, 0, 65, 0
2, 1380, Note_on_c, 0, 69, 59
2, 1414, Note_on_c, 0, 69, 0
2, 1440, Note_on_c, 0, 72, 54
2, 1440, Note_on_c, 0, 69, 54
2, 1440, Note_on_c, 0, 72, 43
2, 1500, Note_on_c, 0, 65, 59
2, 1502, Note_on_c, 0, 69, 0
2, 1506, Note_on_c, 0, 72, 0
2, 1533, Note_on_c, 0, 65, 0
2, 1680, Note_on_c, 0, 72, 0
2, 1680, Note_on_c, 0, 77, 54
2, 1757, Note_on_c, 0, 77, 0
2, 1800, Note_on_c, 0, 77, 59
2, 1824, Note_on_c, 0, 77, 0
2, 1830, Note_on_c, 0, 76, 43
2, 1853, Note_on_c, 0, 76, 0
2, 1860, Note_on_c, 0, 74, 50
2, 1890, Note_on_c, 0, 74, 0
2, 1890, Note_on_c, 0, 72, 37
2, 1919, Note_on_c, 0, 72, 0
2, 1920, Note_on_c, 0, 70, 59
2, 2040, Note_on_c, 0, 64, 50
2, 2047, Note_on_c, 0, 70, 0
2, 2096, Note_on_c, 0, 64, 0
2, 2100, Note_on_c, 0, 70, 54
2, 2100, Note_on_c, 0, 67, 43
2, 2116, Note_on_c, 0, 67, 0
2, 2124, Note_on_c, 0, 70, 0
2, 2160, Note_on_c, 0, 69, 54
2, 2160, Note_on_c, 0, 65, 64
2, 2218, Note_on_c, 0, 65, 0
2, 2220, Note_on_c, 0, 60, 43
2, 2241, Note_on_c, 0, 69, 0
2, 2250, Note_on_c, 0, 65, 70
2, 2251, Note_on_c, 0, 60, 0
2, 2271, Note_on_c, 0, 65, 0
2, 2280, Note_on_c, 0, 69, 70
2, 2280, Note_on_c, 0, 72, 54
2, 2337, Note_on_c, 0, 69, 0
2, 2340, Note_on_c, 0, 65, 50
2, 2366, Note_on_c, 0, 65, 0
2, 2366, Note_on_c, 0, 72, 0
2, 2370, Note_on_c, 0, 69, 50
2, 2375, Note_on_c, 0, 69, 0
2, 2400, Note_on_c, 0, 79, 43
2, 2400, Note_on_c, 0, 82, 85
2, 2400, Note_on_c, 0, 74, 70
2, 2434, Note_on_c, 0, 74, 0
2, 2460, Note_on_c, 0, 70, 85
2, 2475, Note_on_c, 0, 79, 0
2, 2489, Note_on_c, 0, 82, 0
2, 2496, Note_on_c, 0, 70, 0
2, 2520, Note_on_c, 0, 69, 59
2, 2520, Note_on_c, 0, 77, 70
2, 2520, Note_on_c, 0, 81, 30
2, 2594, Note_on_c, 0, 81, 0
2, 2600, Note_on_c, 0, 77, 0
2, 2612, Note_on_c, 0, 69, 0
2, 2640, Note_on_c, 0, 79, 54
2, 2640, Note_on_c, 0, 76, 54
2, 2640, Note_on_c, 0, 67, 34
2, 2659, Note_on_c, 0, 67, 0
2, 2661, Note_on_c, 0, 79, 0
2, 2667, Note_on_c, 0, 76, 0
2, 2670, Note_on_c, 0, 77, 43
2, 2670, Note_on_c, 0, 74, 26
2, 2693, Note_on_c, 0, 74, 0
2, 2700, Note_on_c, 0, 76, 37
2, 2700, Note_on_c, 0, 72, 39
2, 2702, Note_on_c, 0, 77, 0
2, 2705, Note_on_c, 0, 76, 0
2, 2707, Note_on_c, 0, 72, 0
2, 2730, Note_on_c, 0, 74, 34
2, 2730, Note_on_c, 0, 70, 54
2, 2739, Note_on_c, 0, 70, 0
2, 2751, Note_on_c, 0, 74, 0
2, 2760, Note_on_c, 0, 69, 45
2, 2760, Note_on_c, 0, 72, 54
2, 2767, Note_on_c, 0, 72, 0
2, 2772, Note_on_c, 0, 69, 0
2, 2790, Note_on_c, 0, 70, 70
2, 2790, Note_on_c, 0, 67, 54
2, 2800, Note_on_c, 0, 67, 0
2, 2800, Note_on_c, 0, 70, 0
2, 2820, Note_on_c, 0, 69, 37
2, 2820, Note_on_c, 0, 65, 43
2, 2829, Note_on_c, 0, 69, 0
2, 2831, Note_on_c, 0, 65, 0
2, 2850, Note_on_c, 0, 67, 50
2, 2850, Note_on_c, 0, 64, 32
2, 2858, Note_on_c, 0, 64, 0
2, 2860, Note_on_c, 0, 67, 0
2, 2880, Note_on_c, 0, 65, 50
2, 3120, Note_on_c, 0, 67, 50
2, 3122, Note_on_c, 0, 65, 0
2, 3180, Note_on_c, 0, 62, 50
2, 3220, Note_on_c, 0, 67, 0
2, 3229, Note_on_c, 0, 62, 0
2, 3240, Note_on_c, 0, 65, 59
2, 3296, Note_on_c, 0, 65, 0
2, 3300, Note_on_c, 0, 64, 54
2, 3354, Note_on_c, 0, 64, 0
2, 3360, Note_on_c, 0, 65, 59
2, 3360, Note_on_c, 0, 57, 43
2, 3381, Note_on_c, 0, 57, 0
2, 3399, Note_on_c, 0, 65, 0
2, 3420, Note_on_c, 0, 57, 30
2, 3420, Note_on_c, 0, 60, 50
2, 3446, Note_on_c, 0, 57, 0
2, 3447, Note_on_c, 0, 60, 0
2, 3480, Note_on_c, 0, 65, 59
2, 3480, Note_on_c, 0, 60, 32
2, 3524, Note_on_c, 0, 65, 0
2, 3525, Note_on_c, 0, 60, 0
2, 3540, Note_on_c, 0, 67, 50
2, 3540, Note_on_c, 0, 64, 54
2, 3574, Note_on_c, 0, 64, 0
2, 3574, Note_on_c, 0, 67, 0
2, 3600, Note_on_c, 0, 69, 50
2, 3600, Note_on_c, 0, 65, 59
2, 3639, Note_on_c, 0, 65, 0
2, 3660, Note_on_c, 0, 60, 21
2, 3709, Note_on_c, 0, 60, 0
2, 3720, Note_on_c, 0, 65, 50
2, 3779, Note_on_c, 0, 65, 0
2, 3780, Note_on_c, 0, 60, 37
2, 3810, Note_on_c, 0, 60, 0
2, 3823, Note_on_c, 0, 69, 0
2, 3840, Note_on_c, 0, 70, 77
2, 3840, Note_on_c, 0, 62, 59
2, 3900, Note_on_c, 0, 67, 43
2, 3917, Note_on_c, 0, 62, 0
2, 3918, Note_on_c, 0, 70, 0
2, 3955, Note_on_c, 0, 67, 0
2, 3960, Note_on_c, 0, 65, 54
2, 3960, Note_on_c, 0, 69, 54
2, 4012, Note_on_c, 0, 65, 0
2, 4019, Note_on_c, 0, 69, 0
2, 4020, Note_on_c, 0, 67, 54
2, 4020, Note_on_c, 0, 64, 39
2, 4072, Note_on_c, 0, 64, 0
2, 4072, Note_on_c, 0, 67, 0
2, 4080, Note_on_c, 0, 69, 45
2, 4080, Note_on_c, 0, 65, 70
2, 4134, Note_on_c, 0, 65, 0
2, 4138, Note_on_c, 0, 69, 0
2, 4140, Note_on_c, 0, 60, 50
2, 4200, Note_on_c, 0, 65, 50
2, 4205, Note_on_c, 0, 60, 0
2, 4260, Note_on_c, 0, 69, 54
2, 4262, Note_on_c, 0, 65, 0
2, 4312, Note_on_c, 0, 69, 0
2, 4320, Note_on_c, 0, 72, 64
2, 4380, Note_on_c, 0, 60, 39
2, 4435, Note_on_c, 0, 60, 0
2, 4440, Note_on_c, 0, 65, 50
2, 4498, Note_on_c, 0, 65, 0
2, 4500, Note_on_c, 0, 60, 37
2, 4549, Note_on_c, 0, 60, 0
2, 4560, Note_on_c, 0, 69, 50
2, 4617, Note_on_c, 0, 69, 0
2, 4620, Note_on_c, 0, 65, 59
2, 4624, Note_on_c, 0, 72, 0
2, 4680, Note_on_c, 0, 70, 64
2, 4680, Note_on_c, 0, 72, 50
2, 4686, Note_on_c, 0, 65, 0
2, 4737, Note_on_c, 0, 70, 0
2, 4740, Note_on_c, 0, 64, 54
2, 4800, Note_on_c, 0, 72, 0
2, 4800, Note_on_c, 0, 70, 64
2, 4800, Note_on_c, 0, 67, 54
2, 4802, Note_on_c, 0, 64, 0
2, 4875, Note_on_c, 0, 67, 0
2, 4878, Note_on_c, 0, 70, 0
2, 4980, Note_on_c, 0, 60, 37
2, 4980, Note_on_c, 0, 69, 50
2, 4999, Note_on_c, 0, 69, 0
2, 5006, Note_on_c, 0, 60, 0
2, 5040, Note_on_c, 0, 67, 59
2, 5040, Note_on_c, 0, 58, 59
2, 5100, Note_on_c, 0, 62, 54
2, 5110, Note_on_c, 0, 58, 0
2, 5123, Note_on_c, 0, 67, 0
2, 5156, Note_on_c, 0, 62, 0
2, 5160, Note_on_c, 0, 65, 70
2, 5160, Note_on_c, 0, 57, 39
2, 5216, Note_on_c, 0, 57, 0
2, 5220, Note_on_c, 0, 60, 59
2, 5280, Note_on_c, 0, 55, 30
2, 5283, Note_on_c, 0, 60, 0
2, 5288, Note_on_c, 0, 65, 0
2, 5340, Note_on_c, 0, 58, 64
2, 5340, Note_on_c, 0, 64, 54
2, 5355, Note_on_c, 0, 55, 0
2, 5370, Note_on_c, 0, 58, 0
2, 5385, Note_on_c, 0, 64, 0
2, 5400, Note_on_c, 0, 57, 54
2, 5400, Note_on_c, 0, 65, 59
2, 5441, Note_on_c, 0, 65, 0
2, 5443, Note_on_c, 0, 57, 0
2, 5460, Note_on_c, 0, 69, 59
2, 5460, Note_on_c, 0, 60, 54
2, 5490, Note_on_c, 0, 60, 0
2, 5495, Note_on_c, 0, 69, 0
2, 5580, Note_on_c, 0, 69, 45
2, 5580, Note_on_c, 0, 60, 45
2, 5611, Note_on_c, 0, 60, 0
2, 5613, Note_on_c, 0, 69, 0
2, 5700, Note_on_c, 0, 69, 50
2, 5700, Note_on_c, 0, 60, 34
2, 5724, Note_on_c, 0, 60, 0
2, 5731, Note_on_c, 0, 69, 0
2, 5820, Note_on_c, 0, 67, 54
2, 5820, Note_on_c, 0, 60, 45
2, 5849, Note_on_c, 0, 60, 0
2, 5855, Note_on_c, 0, 67, 0
2, 5940, Note_on_c, 0, 72, 45
2, 5940, Note_on_c, 0, 64, 39
2, 5974, Note_on_c, 0, 64, 0
2, 5976, Note_on_c, 0, 72, 0
2, 6060, Note_on_c, 0, 67, 54
2, 6060, Note_on_c, 0, 72, 54
2, 6085, Note_on_c, 0, 72, 0
2, 6088, Note_on_c, 0, 67, 0
2, 6180, Note_on_c, 0, 72, 54
2, 6180, Note_on_c, 0, 60, 50
2, 6271, Note_on_c, 0, 72, 0
2, 6275, Note_on_c, 0, 60, 0
2, 6300, Note_on_c, 0, 71, 50
2, 6300, Note_on_c, 0, 59, 50
2, 6375, Note_on_c, 0, 71, 0
2, 6384, Note_on_c, 0, 59, 0
2, 6420, Note_on_c, 0, 57, 59
2, 6420, Note_on_c, 0, 69, 54
2, 6441, Note_on_c, 0, 57, 0
2, 6453, Note_on_c, 0, 69, 0
2, 6480, Note_on_c, 0, 71, 70
2, 6480, Note_on_c, 0, 62, 32
2, 6600, Note_on_c, 0, 74, 54
2, 6602, Note_on_c, 0, 71, 0
2, 6700, Note_on_c, 0, 62, 0
2, 6720, Note_on_c, 0, 62, 50
2, 6721, Note_on_c, 0, 74, 0
2, 6811, Note_on_c, 0, 62, 0
2, 6840, Note_on_c, 0, 62, 45
2, 6840, Note_on_c, 0, 59, 43
2, 6855, Note_on_c, 0, 62, 0
2, 6860, Note_on_c, 0, 59, 0
2, 6900, Note_on_c, 0, 59, 45
2, 6900, Note_on_c, 0, 62, 50
2, 6961, Note_on_c, 0, 62, 0
2, 6961, Note_on_c, 0, 59, 0
2, 7020, Note_on_c, 0, 62, 45
2, 7020, Note_on_c, 0, 64, 39
2, 7020, Note_on_c, 0, 59, 32
2, 7095, Note_on_c, 0, 59, 0
2, 7095, Note_on_c, 0, 62, 0
2, 7096, Note_on_c, 0, 64, 0
2, 7140, Note_on_c, 0, 64, 43
2, 7140, Note_on_c, 0, 59, 43
2, 7140, Note_on_c, 0, 62, 54
2, 7153, Note_on_c, 0, 62, 0
2, 7156, Note_on_c, 0, 59, 0
2, 7162, Note_on_c, 0, 64, 0
2, 7200, Note_on_c, 0, 60, 50
2, 7200, Note_on_c, 0, 64, 64
2, 7275, Note_on_c, 0, 64, 0
2, 7276, Note_on_c, 0, 60, 0
2, 7440, Note_on_c, 0, 67, 45
2, 7440, Note_on_c, 0, 64, 59
2, 7440, Note_on_c, 0, 60, 34
2, 7509, Note_on_c, 0, 64, 0
2, 7510, Note_on_c, 0, 60, 0
2, 7510, Note_on_c, 0, 67, 0
2, 7560, Note_on_c, 0, 69, 54
2, 7560, Note_on_c, 0, 60, 54
2, 7646, Note_on_c, 0, 69, 0
2, 7650, Note_on_c, 0, 65, 54
2, 7680, Note_on_c, 0, 69, 64
2, 7681, Note_on_c, 0, 65, 0
2, 7734, Note_on_c, 0, 69, 0
2, 7744, Note_on_c, 0, 60, 0
2, 7920, Note_on_c, 0, 74, 45
2, 7920, Note_on_c, 0, 77, 70
2, 8023, Note_on_c, 0, 74, 0
2, 8025, Note_on_c, 0, 77, 0
2, 8040, Note_on_c, 0, 72, 45
2, 8040, Note_on_c, 0, 76, 39
2, 8155, Note_on_c, 0, 76, 0
2, 8160, Note_on_c, 0, 74, 45
2, 8160, Note_on_c, 0, 71, 50
2, 8172, Note_on_c, 0, 72, 0
2, 8278, Note_on_c, 0, 71, 0
2, 8280, Note_on_c, 0, 72, 54
2, 8281, Note_on_c, 0, 74, 0
2, 8459, Note_on_c, 0, 72, 0
2, 8460, Note_on_c, 0, 73, 77
2, 8520, Note_on_c, 0, 73, 0
2, 8520, Note_on_c, 0, 74, 54
2, 8571, Note_on_c, 0, 74, 0
2, 8580, Note_on_c, 0, 76, 54
2, 8639, Note_on_c, 0, 76, 0
2, 8640, Note_on_c, 0, 77, 54
2, 8873, Note_on_c, 0, 77, 0
2, 8880, Note_on_c, 0, 79, 54
2, 8957, Note_on_c, 0, 79, 0
2, 9000, Note_on_c, 0, 70, 70
2, 9000, Note_on_c, 0, 77, 54
2, 9000, Note_on_c, 0, 67, 28
2, 9055, Note_on_c, 0, 77, 0
2, 9059, Note_on_c, 0, 70, 0
2, 9060, Note_on_c, 0, 76, 50
2, 9062, Note_on_c, 0, 67, 0
2, 9117, Note_on_c, 0, 76, 0
2, 9120, Note_on_c, 0, 77, 59
2, 9120, Note_on_c, 0, 69, 59
2, 9167, Note_on_c, 0, 69, 0
2, 9180, Note_on_c, 0, 60, 54
2, 9180, Note_on_c, 0, 72, 70
2, 9183, Note_on_c, 0, 77, 0
2, 9240, Note_on_c, 0, 65, 70
2, 9240, Note_on_c, 0, 77, 64
2, 9245, Note_on_c, 0, 72, 0
2, 9251, Note_on_c, 0, 60, 0
2, 9297, Note_on_c, 0, 65, 0
2, 9300, Note_on_c, 0, 77, 0
2, 9300, Note_on_c, 0, 67, 45
2, 9300, Note_on_c, 0, 79, 64
2, 9349, Note_on_c, 0, 67, 0
2, 9360, Note_on_c, 0, 69, 59
2, 9360, Note_on_c, 0, 81, 59
2, 9361, Note_on_c, 0, 79, 0
2, 9481, Note_on_c, 0, 69, 0
2, 9600, Note_on_c, 0, 82, 64
2, 9607, Note_on_c, 0, 81, 0
2, 9706, Note_on_c, 0, 82, 0
2, 9720, Note_on_c, 0, 81, 43
2, 9720, Note_on_c, 0, 76, 39
2, 9720, Note_on_c, 0, 70, 64
2, 9780, Note_on_c, 0, 79, 50
2, 9784, Note_on_c, 0, 81, 0
2, 9789, Note_on_c, 0, 76, 0
2, 9816, Note_on_c, 0, 70, 0
2, 9836, Note_on_c, 0, 79, 0
2, 9840, Note_on_c, 0, 81, 45
2, 9840, Note_on_c, 0, 77, 59
2, 9840, Note_on_c, 0, 69, 50
2, 9876, Note_on_c, 0, 77, 0
2, 9900, Note_on_c, 0, 72, 50
2, 9900, Note_on_c, 0, 60, 70
2, 9914, Note_on_c, 0, 69, 0
2, 9927, Note_on_c, 0, 81, 0
2, 9946, Note_on_c, 0, 60, 0
2, 9955, Note_on_c, 0, 72, 0
2, 9960, Note_on_c, 0, 65, 39
2, 9960, Note_on_c, 0, 77, 30
2, 9994, Note_on_c, 0, 65, 0
2, 9996, Note_on_c, 0, 77, 0
2, 10020, Note_on_c, 0, 81, 50
2, 10020, Note_on_c, 0, 69, 50
2, 10028, Note_on_c, 0, 69, 0
2, 10039, Note_on_c, 0, 81, 0
2, 10080, Note_on_c, 0, 72, 93
2, 10080, Note_on_c, 0, 84, 85
2, 10320, Note_on_c, 0, 69, 64
2, 10380, Note_on_c, 0, 65, 64
2, 10383, Note_on_c, 0, 69, 0
2, 10437, Note_on_c, 0, 65, 0
2, 10440, Note_on_c, 0, 70, 59
2, 10496, Note_on_c, 0, 70, 0
2, 10500, Note_on_c, 0, 64, 64
2, 10558, Note_on_c, 0, 64, 0
2, 10560, Note_on_c, 0, 67, 59
2, 10617, Note_on_c, 0, 67, 0
2, 10620, Note_on_c, 0, 60, 59
2, 10680, Note_on_c, 0, 60, 0
2, 10680, Note_on_c, 0, 65, 59
2, 10736, Note_on_c, 0, 65, 0
2, 10740, Note_on_c, 0, 60, 54
2, 10762, Note_on_c, 0, 84, 0
2, 10769, Note_on_c, 0, 72, 0
2, 10772, Note_on_c, 0, 60, 0
2, 10860, Note_on_c, 0, 62, 54
2, 10860, Note_on_c, 0, 70, 64
2, 10894, Note_on_c, 0, 70, 0
2, 10898, Note_on_c, 0, 62, 0
2, 10980, Note_on_c, 0, 60, 50
2, 10980, Note_on_c, 0, 69, 59
2, 11009, Note_on_c, 0, 69, 0
2, 11017, Note_on_c, 0, 60, 0
2, 11100, Note_on_c, 0, 58, 54
2, 11100, Note_on_c, 0, 64, 45
2, 11126, Note_on_c, 0, 64, 0
2, 11126, Note_on_c, 0, 58, 0
2, 11220, Note_on_c, 0, 65, 59
2, 11220, Note_on_c, 0, 57, 50
2, 11302, Note_on_c, 0, 57, 0
2, 11304, Note_on_c, 0, 65, 0
2, 11340, Note_on_c, 0, 65, 59
2, 11340, Note_on_c, 0, 57, 45
2, 11427, Note_on_c, 0, 57, 0
2, 11430, Note_on_c, 0, 65, 0
2, 11460, Note_on_c, 0, 65, 59
2, 11460, Note_on_c, 0, 57, 54
2, 11488, Note_on_c, 0, 57, 0
2, 11491, Note_on_c, 0, 65, 0
2, 11580, Note_on_c, 0, 63, 77
2, 11580, Note_on_c, 0, 57, 45
2, 11580, Note_on_c, 0, 60, 50
2, 11660, Note_on_c, 0, 60, 0
2, 11662, Note_on_c, 0, 57, 0
2, 11666, Note_on_c, 0, 63, 0
2, 11700, Note_on_c, 0, 63, 70
2, 11700, Note_on_c, 0, 60, 43
2, 11700, Note_on_c, 0, 57, 37
2, 11781, Note_on_c, 0, 57, 0
2, 11785, Note_on_c, 0, 60, 0
2, 11785, Note_on_c, 0, 63, 0
2, 11820, Note_on_c, 0, 63, 77
2, 11820, Note_on_c, 0, 57, 54
2, 11820, Note_on_c, 0, 60, 50
2, 11839, Note_on_c, 0, 60, 0
2, 11840, Note_on_c, 0, 57, 0
2, 11846, Note_on_c, 0, 63, 0
2, 11880, Note_on_c, 0, 57, 54
2, 11940, Note_on_c, 0, 63, 70
2, 12053, Note_on_c, 0, 63, 0
2, 12060, Note_on_c, 0, 62, 59
2, 12178, Note_on_c, 0, 62, 0
2, 12180, Note_on_c, 0, 61, 64
2, 12251, Note_on_c, 0, 61, 0
2, 12283, Note_on_c, 0, 57, 0
2, 12300, Note_on_c, 0, 62, 50
2, 12300, Note_on_c, 0, 60, 45
2, 12384, Note_on_c, 0, 62, 0
2, 12386, Note_on_c, 0, 60, 0
2, 12420, Note_on_c, 0, 58, 70
2, 12420, Note_on_c, 0, 62, 45
2, 12505, Note_on_c, 0, 62, 0
2, 12506, Note_on_c, 0, 58, 0
2, 12540, Note_on_c, 0, 57, 50
2, 12540, Note_on_c, 0, 62, 54
2, 12580, Note_on_c, 0, 57, 0
2, 12581, Note_on_c, 0, 62, 0
2, 12660, Note_on_c, 0, 56, 70
2, 12660, Note_on_c, 0, 62, 54
2, 12672, Note_on_c, 0, 62, 0
2, 12674, Note_on_c, 0, 56, 0
2, 12720, Note_on_c, 0, 56, 54
2, 12720, Note_on_c, 0, 62, 50
2, 12732, Note_on_c, 0, 62, 0
2, 12735, Note_on_c, 0, 56, 0
2, 12780, Note_on_c, 0, 56, 64
2, 12780, Note_on_c, 0, 62, 54
2, 12792, Note_on_c, 0, 62, 0
2, 12794, Note_on_c, 0, 56, 0
2, 12840, Note_on_c, 0, 56, 64
2, 12840, Note_on_c, 0, 62, 37
2, 12850, Note_on_c, 0, 62, 0
2, 12856, Note_on_c, 0, 56, 0
2, 12900, Note_on_c, 0, 56, 70
2, 12900, Note_on_c, 0, 62, 64
2, 12914, Note_on_c, 0, 62, 0
2, 12919, Note_on_c, 0, 56, 0
2, 13020, Note_on_c, 0, 61, 77
2, 13020, Note_on_c, 0, 55, 54
2, 13039, Note_on_c, 0, 55, 0
2, 13041, Note_on_c, 0, 61, 0
2, 13080, Note_on_c, 0, 55, 43
2, 13080, Note_on_c, 0, 60, 43
2, 13096, Note_on_c, 0, 60, 0
2, 13097, Note_on_c, 0, 55, 0
2, 13140, Note_on_c, 0, 60, 77
2, 13140, Note_on_c, 0, 55, 64
2, 13152, Note_on_c, 0, 60, 0
2, 13153, Note_on_c, 0, 55, 0
2, 13200, Note_on_c, 0, 55, 45
2, 13200, Note_on_c, 0, 60, 50
2, 13216, Note_on_c, 0, 60, 0
2, 13216, Note_on_c, 0, 55, 0
2, 13260, Note_on_c, 0, 60, 54
2, 13260, Note_on_c, 0, 55, 50
2, 13277, Note_on_c, 0, 55, 0
2, 13279, Note_on_c, 0, 60, 0
2, 13380, Note_on_c, 0, 56, 77
2, 13380, Note_on_c, 0, 60, 59
2, 13394, Note_on_c, 0, 60, 0
2, 13395, Note_on_c, 0, 56, 0
2, 13440, Note_on_c, 0, 65, 70
2, 13440, Note_on_c, 0, 60, 50
2, 13453, Note_on_c, 0, 65, 0
2, 13462, Note_on_c, 0, 60, 0
2, 13500, Note_on_c, 0, 68, 85
2, 13500, Note_on_c, 0, 65, 64
2, 13515, Note_on_c, 0, 65, 0
2, 13520, Note_on_c, 0, 68, 0
2, 13560, Note_on_c, 0, 68, 93
2, 13560, Note_on_c, 0, 72, 45
2, 13571, Note_on_c, 0, 72, 0
2, 13572, Note_on_c, 0, 68, 0
2, 13620, Note_on_c, 0, 77, 77
2, 13620, Note_on_c, 0, 72, 54
2, 13633, Note_on_c, 0, 72, 0
2, 13634, Note_on_c, 0, 77, 0
2, 13740, Note_on_c, 0, 56, 77
2, 13740, Note_on_c, 0, 65, 59
2, 13757, Note_on_c, 0, 56, 0
2, 13761, Note_on_c, 0, 65, 0
2, 13800, Note_on_c, 0, 68, 85
2, 13800, Note_on_c, 0, 65, 77
2, 13816, Note_on_c, 0, 65, 0
2, 13820, Note_on_c, 0, 68, 0
2, 13860, Note_on_c, 0, 68, 85
2, 13860, Note_on_c, 0, 71, 77
2, 13878, Note_on_c, 0, 68, 0
2, 13881, Note_on_c, 0, 71, 0
2, 13920, Note_on_c, 0, 77, 77
2, 13920, Note_on_c, 0, 71, 70
2, 13940, Note_on_c, 0, 71, 0
2, 13943, Note_on_c, 0, 77, 0
2, 13980, Note_on_c, 0, 80, 77
2, 13980, Note_on_c, 0, 77, 70
2, 14077, Note_on_c, 0, 77, 0
2, 14080, Note_on_c, 0, 80, 0
2, 14100, Note_on_c, 0, 80, 125
2, 14100, Note_on_c, 0, 68, 125
2, 14187, Note_on_c, 0, 80, 0
2, 14188, Note_on_c, 0, 68, 0
2, 14220, Note_on_c, 0, 67, 59
2, 14220, Note_on_c, 0, 79, 64
2, 14303, Note_on_c, 0, 79, 0
2, 14308, Note_on_c, 0, 67, 0
2, 14340, Note_on_c, 0, 77, 54
2, 14340, Note_on_c, 0, 65, 59
2, 14367, Note_on_c, 0, 77, 0
2, 14370, Note_on_c, 0, 65, 0
2, 14400, Note_on_c, 0, 64, 59
2, 14400, Note_on_c, 0, 76, 50
2, 14419, Note_on_c, 0, 64, 0
2, 14433, Note_on_c, 0, 76, 0
2, 14460, Note_on_c, 0, 76, 59
2, 14460, Note_on_c, 0, 72, 54
2, 14479, Note_on_c, 0, 76, 0
2, 14480, Note_on_c, 0, 72, 0
2, 14520, Note_on_c, 0, 74, 45
2, 14520, Note_on_c, 0, 77, 16
2, 14540, Note_on_c, 0, 77, 0
2, 14543, Note_on_c, 0, 74, 0
2, 14580, Note_on_c, 0, 79, 59
2, 14580, Note_on_c, 0, 76, 54
2, 14592, Note_on_c, 0, 76, 0
2, 14598, Note_on_c, 0, 79, 0
2, 14640, Note_on_c, 0, 80, 64
2, 14640, Note_on_c, 0, 77, 39
2, 14717, Note_on_c, 0, 77, 0
2, 14719, Note_on_c, 0, 80, 0
2, 14730, Note_on_c, 0, 79, 45
2, 14730, Note_on_c, 0, 82, 45
2, 14745, Note_on_c, 0, 80, 59
2, 14745, Note_on_c, 0, 77, 32
2, 14746, Note_on_c, 0, 79, 0
2, 14750, Note_on_c, 0, 77, 0
2, 14751, Note_on_c, 0, 82, 0
2, 14754, Note_on_c, 0, 80, 0
2, 14760, Note_on_c, 0, 79, 64
2, 14760, Note_on_c, 0, 76, 59
2, 14769, Note_on_c, 0, 79, 0
2, 14771, Note_on_c, 0, 76, 0
2, 14820, Note_on_c, 0, 76, 70
2, 14820, Note_on_c, 0, 64, 64
2, 14820, Note_on_c, 0, 72, 54
2, 14840, Note_on_c, 0, 72, 0
2, 14840, Note_on_c, 0, 64, 0
2, 14846, Note_on_c, 0, 76, 0
2, 14880, Note_on_c, 0, 74, 64
2, 14880, Note_on_c, 0, 77, 70
2, 14880, Note_on_c, 0, 65, 59
2, 14893, Note_on_c, 0, 65, 0
2, 14897, Note_on_c, 0, 77, 0
2, 14898, Note_on_c, 0, 74, 0
2, 14940, Note_on_c, 0, 67, 70
2, 14940, Note_on_c, 0, 76, 70
2, 14940, Note_on_c, 0, 79, 64
2, 14949, Note_on_c, 0, 67, 0
2, 14952, Note_on_c, 0, 79, 0
2, 14952, Note_on_c, 0, 76, 0
2, 15000, Note_on_c, 0, 80, 59
2, 15000, Note_on_c, 0, 68, 50
2, 15000, Note_on_c, 0, 77, 54
2, 15054, Note_on_c, 0, 68, 0
2, 15057, Note_on_c, 0, 77, 0
2, 15058, Note_on_c, 0, 80, 0
2, 15090, Note_on_c, 0, 82, 70
2, 15090, Note_on_c, 0, 79, 59
2, 15105, Note_on_c, 0, 80, 70
2, 15105, Note_on_c, 0, 77, 64
2, 15106, Note_on_c, 0, 82, 0
2, 15108, Note_on_c, 0, 79, 0
2, 15115, Note_on_c, 0, 77, 0
2, 15120, Note_on_c, 0, 80, 0
2, 15120, Note_on_c, 0, 72, 70
2, 15120, Note_on_c, 0, 79, 54
2, 15120, Note_on_c, 0, 76, 77
2, 15189, Note_on_c, 0, 76, 0
2, 15192, Note_on_c, 0, 79, 0
2, 15192, Note_on_c, 0, 72, 0
2, 15540, Note_on_c, 0, 57, 45
2, 15540, Note_on_c, 0, 60, 50
2, 15569, Note_on_c, 0, 57, 0
2, 15576, Note_on_c, 0, 60, 0
2, 15600, Note_on_c, 0, 65, 70
2, 15600, Note_on_c, 0, 57, 59
2, 15620, Note_on_c, 0, 57, 0
2, 15626, Note_on_c, 0, 65, 0
2, 15660, Note_on_c, 0, 69, 43
2, 15660, Note_on_c, 0, 60, 24
2, 15687, Note_on_c, 0, 60, 0
2, 15692, Note_on_c, 0, 69, 0
2, 15720, Note_on_c, 0, 70, 64
2, 15720, Note_on_c, 0, 62, 54
2, 15737, Note_on_c, 0, 62, 0
2, 15760, Note_on_c, 0, 70, 0
2, 15780, Note_on_c, 0, 58, 59
2, 15780, Note_on_c, 0, 67, 54
2, 15795, Note_on_c, 0, 67, 0
2, 15803, Note_on_c, 0, 58, 0
2, 15840, Note_on_c, 0, 55, 50
2, 15840, Note_on_c, 0, 58, 77
2, 15864, Note_on_c, 0, 55, 0
2, 15867, Note_on_c, 0, 58, 0
2, 15900, Note_on_c, 0, 58, 70
2, 15900, Note_on_c, 0, 67, 64
2, 15927, Note_on_c, 0, 67, 0
2, 15927, Note_on_c, 0, 58, 0
2, 15960, Note_on_c, 0, 57, 64
2, 15960, Note_on_c, 0, 65, 70
2, 15978, Note_on_c, 0, 57, 0
2, 15981, Note_on_c, 0, 65, 0
2, 16020, Note_on_c, 0, 60, 28
2, 16020, Note_on_c, 0, 72, 70
2, 16039, Note_on_c, 0, 60, 0
2, 16044, Note_on_c, 0, 72, 0
2, 16080, Note_on_c, 0, 77, 77
2, 16080, Note_on_c, 0, 69, 85
2, 16080, Note_on_c, 0, 65, 70
2, 16099, Note_on_c, 0, 65, 0
2, 16102, Note_on_c, 0, 69, 0
2, 16103, Note_on_c, 0, 77, 0
2, 16140, Note_on_c, 0, 79, 77
2, 16140, Note_on_c, 0, 67, 54
2, 16140, Note_on_c, 0, 72, 70
2, 16140, Note_on_c, 0, 76, 59
2, 16156, Note_on_c, 0, 67, 0
2, 16158, Note_on_c, 0, 72, 0
2, 16159, Note_on_c, 0, 76, 0
2, 16162, Note_on_c, 0, 79, 0
2, 16200, Note_on_c, 0, 81, 64
2, 16200, Note_on_c, 0, 69, 50
2, 16200, Note_on_c, 0, 77, 54
2, 16218, Note_on_c, 0, 81, 0
2, 16219, Note_on_c, 0, 77, 0
2, 16227, Note_on_c, 0, 69, 0
2, 16260, Note_on_c, 0, 57, 43
2, 16260, Note_on_c, 0, 60, 37
2, 16285, Note_on_c, 0, 60, 0
2, 16287, Note_on_c, 0, 57, 0
2, 16320, Note_on_c, 0, 60, 54
2, 16320, Note_on_c, 0, 65, 64
2, 16340, Note_on_c, 0, 65, 0
2, 16341, Note_on_c, 0, 60, 0
2, 16380, Note_on_c, 0, 69, 54
2, 16380, Note_on_c, 0, 65, 70
2, 16405, Note_on_c, 0, 65, 0
2, 16406, Note_on_c, 0, 69, 0
2, 16440, Note_on_c, 0, 74, 77
2, 16440, Note_on_c, 0, 62, 77
2, 16474, Note_on_c, 0, 62, 0
2, 16474, Note_on_c, 0, 74, 0
2, 16500, Note_on_c, 0, 70, 77
2, 16500, Note_on_c, 0, 67, 45
2, 16526, Note_on_c, 0, 67, 0
2, 16528, Note_on_c, 0, 70, 0
2, 16560, Note_on_c, 0, 60, 59
2, 16587, Note_on_c, 0, 60, 0
2, 16620, Note_on_c, 0, 58, 70
2, 16620, Note_on_c, 0, 64, 64
2, 16644, Note_on_c, 0, 58, 0
2, 16646, Note_on_c, 0, 64, 0
2, 16680, Note_on_c, 0, 57, 70
2, 16680, Note_on_c, 0, 65, 70
2, 16695, Note_on_c, 0, 57, 0
2, 16699, Note_on_c, 0, 65, 0
2, 16740, Note_on_c, 0, 72, 77
2, 16740, Note_on_c, 0, 60, 64
2, 16756, Note_on_c, 0, 60, 0
2, 16762, Note_on_c, 0, 72, 0
2, 16800, Note_on_c, 0, 65, 77
2, 16800, Note_on_c, 0, 77, 39
2, 16817, Note_on_c, 0, 65, 0
2, 16821, Note_on_c, 0, 77, 0
2, 16860, Note_on_c, 0, 81, 59
2, 16860, Note_on_c, 0, 69, 59
2, 16873, Note_on_c, 0, 69, 0
2, 16878, Note_on_c, 0, 81, 0
2, 16920, Note_on_c, 0, 84, 77
2, 16920, Note_on_c, 0, 72, 64
2, 16940, Note_on_c, 0, 84, 0
2, 16945, Note_on_c, 0, 72, 0
2, 16980, Note_on_c, 0, 72, 70
2, 17011, Note_on_c, 0, 72, 0
2, 17040, Note_on_c, 0, 65, 59
2, 17067, Note_on_c, 0, 65, 0
2, 17100, Note_on_c, 0, 72, 54
2, 17124, Note_on_c, 0, 72, 0
2, 17160, Note_on_c, 0, 69, 32
2, 17192, Note_on_c, 0, 69, 0
2, 17220, Note_on_c, 0, 72, 54
2, 17241, Note_on_c, 0, 72, 0
2, 17280, Note_on_c, 0, 60, 64
2, 17300, Note_on_c, 0, 60, 0
2, 17340, Note_on_c, 0, 64, 50
2, 17355, Note_on_c, 0, 64, 0
2, 17400, Note_on_c, 0, 67, 59
2, 17400, Note_on_c, 0, 64, 59
2, 17420, Note_on_c, 0, 67, 0
2, 17421, Note_on_c, 0, 64, 0
2, 17460, Note_on_c, 0, 60, 54
2, 17480, Note_on_c, 0, 60, 0
2, 17520, Note_on_c, 0, 60, 59
2, 17543, Note_on_c, 0, 60, 0
2, 17580, Note_on_c, 0, 60, 64
2, 17599, Note_on_c, 0, 60, 0
2, 17640, Note_on_c, 0, 72, 59
2, 17788, Note_on_c, 0, 72, 0
2, 17790, Note_on_c, 0, 70, 59
2, 17819, Note_on_c, 0, 70, 0
2, 17820, Note_on_c, 0, 69, 43
2, 17850, Note_on_c, 0, 70, 59
2, 17852, Note_on_c, 0, 69, 0
2, 17878, Note_on_c, 0, 70, 0
2, 17880, Note_on_c, 0, 72, 54
2, 17908, Note_on_c, 0, 72, 0
2, 17910, Note_on_c, 0, 74, 59
2, 17937, Note_on_c, 0, 74, 0
2, 17940, Note_on_c, 0, 76, 37
2, 17968, Note_on_c, 0, 76, 0
2, 17970, Note_on_c, 0, 77, 70
2, 17987, Note_on_c, 0, 77, 0
2, 18000, Note_on_c, 0, 77, 45
2, 18025, Note_on_c, 0, 77, 0
2, 18030, Note_on_c, 0, 76, 43
2, 18060, Note_on_c, 0, 74, 59
2, 18064, Note_on_c, 0, 76, 0
2, 18087, Note_on_c, 0, 74, 0
2, 18090, Note_on_c, 0, 72, 45
2, 18120, Note_on_c, 0, 70, 59
2, 18121, Note_on_c, 0, 72, 0
2, 18237, Note_on_c, 0, 70, 0
2, 18300, Note_on_c, 0, 69, 54
2, 18324, Note_on_c, 0, 69, 0
2, 18360, Note_on_c, 0, 58, 64
2, 18360, Note_on_c, 0, 67, 45
2, 18420, Note_on_c, 0, 62, 59
2, 18425, Note_on_c, 0, 58, 0
2, 18438, Note_on_c, 0, 67, 0
2, 18475, Note_on_c, 0, 62, 0
2, 18480, Note_on_c, 0, 65, 64
2, 18480, Note_on_c, 0, 57, 54
2, 18540, Note_on_c, 0, 60, 54
2, 18547, Note_on_c, 0, 57, 0
2, 18600, Note_on_c, 0, 55, 50
2, 18603, Note_on_c, 0, 60, 0
2, 18624, Note_on_c, 0, 65, 0
2, 18660, Note_on_c, 0, 64, 54
2, 18660, Note_on_c, 0, 60, 50
2, 18675, Note_on_c, 0, 55, 0
2, 18719, Note_on_c, 0, 60, 0
2, 18720, Note_on_c, 0, 55, 125
2, 18720, Note_on_c, 0, 65, 125
2, 18720, Note_on_c, 0, 59, 125
2, 18725, Note_on_c, 0, 64, 0
2, 18749, Note_on_c, 0, 55, 0
2, 18751, Note_on_c, 0, 59, 0
2, 18756, Note_on_c, 0, 65, 0
2, 18780, Note_on_c, 0, 71, 64
2, 18780, Note_on_c, 0, 67, 64
2, 18780, Note_on_c, 0, 65, 50
2, 18804, Note_on_c, 0, 67, 0
2, 18805, Note_on_c, 0, 65, 0
2, 18808, Note_on_c, 0, 71, 0
2, 18840, Note_on_c, 0, 67, 45
2, 18840, Note_on_c, 0, 71, 43
2, 18840, Note_on_c, 0, 65, 45
2, 18865, Note_on_c, 0, 65, 0
2, 18866, Note_on_c, 0, 67, 0
2, 18868, Note_on_c, 0, 71, 0
2, 18900, Note_on_c, 0, 71, 43
2, 18900, Note_on_c, 0, 67, 45
2, 18900, Note_on_c, 0, 65, 45
2, 18921, Note_on_c, 0, 65, 0
2, 18921, Note_on_c, 0, 67, 0
2, 18928, Note_on_c, 0, 71, 0
2, 18960, Note_on_c, 0, 71, 50
2, 18960, Note_on_c, 0, 65, 45
2, 18960, Note_on_c, 0, 67, 54
2, 18982, Note_on_c, 0, 67, 0
2, 18984, Note_on_c, 0, 65, 0
2, 18988, Note_on_c, 0, 71, 0
2, 19020, Note_on_c, 0, 71, 45
2, 19020, Note_on_c, 0, 65, 45
2, 19020, Note_on_c, 0, 67, 59
2, 19037, Note_on_c, 0, 67, 0
2, 19043, Note_on_c, 0, 65, 0
2, 19046, Note_on_c, 0, 71, 0
2, 19140, Note_on_c, 0, 59, 125
2, 19140, Note_on_c, 0, 62, 125
2, 19140, Note_on_c, 0, 65, 125
2, 19165, Note_on_c, 0, 59, 0
2, 19167, Note_on_c, 0, 62, 0
2, 19169, Note_on_c, 0, 65, 0
2, 19200, Note_on_c, 0, 74, 77
2, 19200, Note_on_c, 0, 71, 85
2, 19200, Note_on_c, 0, 65, 77
2, 19225, Note_on_c, 0, 71, 0
2, 19226, Note_on_c, 0, 65, 0
2, 19226, Note_on_c, 0, 74, 0
2, 19260, Note_on_c, 0, 74, 50
2, 19260, Note_on_c, 0, 71, 64
2, 19260, Note_on_c, 0, 65, 50
2, 19281, Note_on_c, 0, 71, 0
2, 19283, Note_on_c, 0, 65, 0
2, 19285, Note_on_c, 0, 74, 0
2, 19320, Note_on_c, 0, 71, 59
2, 19320, Note_on_c, 0, 74, 54
2, 19320, Note_on_c, 0, 65, 54
2, 19342, Note_on_c, 0, 71, 0
2, 19343, Note_on_c, 0, 65, 0
2, 19347, Note_on_c, 0, 74, 0
2, 19380, Note_on_c, 0, 74, 54
2, 19380, Note_on_c, 0, 71, 64
2, 19380, Note_on_c, 0, 65, 54
2, 19398, Note_on_c, 0, 71, 0
2, 19400, Note_on_c, 0, 65, 0
2, 19403, Note_on_c, 0, 74, 0
2, 19500, Note_on_c, 0, 59, 113
2, 19500, Note_on_c, 0, 62, 113
2, 19500, Note_on_c, 0, 65, 125
2, 19524, Note_on_c, 0, 59, 0
2, 19527, Note_on_c, 0, 62, 0
2, 19529, Note_on_c, 0, 65, 0
2, 19560, Note_on_c, 0, 77, 64
2, 19560, Note_on_c, 0, 67, 50
2, 19560, Note_on_c, 0, 71, 59
2, 19560, Note_on_c, 0, 74, 59
2, 19583, Note_on_c, 0, 74, 0
2, 19583, Note_on_c, 0, 71, 0
2, 19583, Note_on_c, 0, 67, 0
2, 19587, Note_on_c, 0, 77, 0
2, 19620, Note_on_c, 0, 77, 54
2, 19620, Note_on_c, 0, 67, 43
2, 19620, Note_on_c, 0, 71, 54
2, 19620, Note_on_c, 0, 74, 50
2, 19639, Note_on_c, 0, 74, 0
2, 19639, Note_on_c, 0, 71, 0
2, 19641, Note_on_c, 0, 67, 0
2, 19646, Note_on_c, 0, 77, 0
2, 19680, Note_on_c, 0, 67, 39
2, 19680, Note_on_c, 0, 77, 39
2, 19680, Note_on_c, 0, 74, 45
2, 19680, Note_on_c, 0, 71, 43
2, 19694, Note_on_c, 0, 71, 0
2, 19698, Note_on_c, 0, 74, 0
2, 19698, Note_on_c, 0, 67, 0
2, 19702, Note_on_c, 0, 77, 0
2, 19740, Note_on_c, 0, 77, 50
2, 19740, Note_on_c, 0, 74, 50
2, 19740, Note_on_c, 0, 71, 50
2, 19740, Note_on_c, 0, 67, 21
2, 19752, Note_on_c, 0, 67, 0
2, 19755, Note_on_c, 0, 71, 0
2, 19758, Note_on_c, 0, 74, 0
2, 19763, Note_on_c, 0, 77, 0
2, 19860, Note_on_c, 0, 83, 113
2, 19860, Note_on_c, 0, 74, 113
2, 19860, Note_on_c, 0, 71, 125
2, 19860, Note_on_c, 0, 79, 113
2, 19886, Note_on_c, 0, 71, 0
2, 19887, Note_on_c, 0, 79, 0
2, 19887, Note_on_c, 0, 74, 0
2, 19888, Note_on_c, 0, 83, 0
2, 19920, Note_on_c, 0, 83, 103
2, 19920, Note_on_c, 0, 74, 125
2, 19920, Note_on_c, 0, 71, 113
2, 19920, Note_on_c, 0, 79, 113
2, 20041, Note_on_c, 0, 74, 0
2, 20042, Note_on_c, 0, 79, 0
2, 20042, Note_on_c, 0, 71, 0
2, 20045, Note_on_c, 0, 83, 0
2, 20190, Note_on_c, 0, 60, 43
2, 20219, Note_on_c, 0, 60, 0
2, 20220, Note_on_c, 0, 67, 45
2, 20220, Note_on_c, 0, 64, 30
2, 20244, Note_on_c, 0, 64, 0
2, 20248, Note_on_c, 0, 67, 0
2, 20250, Note_on_c, 0, 60, 32
2, 20276, Note_on_c, 0, 60, 0
2, 20280, Note_on_c, 0, 64, 39
2, 20280, Note_on_c, 0, 67, 43
2, 20308, Note_on_c, 0, 64, 0
2, 20310, Note_on_c, 0, 67, 0
2, 20310, Note_on_c, 0, 60, 45
2, 20336, Note_on_c, 0, 60, 0
2, 20340, Note_on_c, 0, 62, 45
2, 20340, Note_on_c, 0, 65, 54
2, 20367, Note_on_c, 0, 62, 0
2, 20370, Note_on_c, 0, 65, 0
2, 20370, Note_on_c, 0, 59, 30
2, 20374, Note_on_c, 0, 59, 0
2, 20400, Note_on_c, 0, 76, 64
2, 20580, Note_on_c, 0, 77, 54
2, 20584, Note_on_c, 0, 76, 0
2, 20622, Note_on_c, 0, 77, 0
2, 20625, Note_on_c, 0, 74, 45
2, 20640, Note_on_c, 0, 72, 54
2, 20644, Note_on_c, 0, 74, 0
2, 20665, Note_on_c, 0, 72, 0
2, 20670, Note_on_c, 0, 64, 45
2, 20700, Note_on_c, 0, 64, 0
2, 20700, Note_on_c, 0, 67, 50
2, 20722, Note_on_c, 0, 67, 0
2, 20730, Note_on_c, 0, 64, 50
2, 20757, Note_on_c, 0, 64, 0
2, 20760, Note_on_c, 0, 72, 45
2, 20760, Note_on_c, 0, 67, 45
2, 20790, Note_on_c, 0, 64, 54
2, 20800, Note_on_c, 0, 67, 0
2, 20815, Note_on_c, 0, 72, 0
2, 20820, Note_on_c, 0, 74, 64
2, 20822, Note_on_c, 0, 64, 0
2, 20847, Note_on_c, 0, 74, 0
2, 20880, Note_on_c, 0, 76, 59
2, 20910, Note_on_c, 0, 64, 50
2, 20938, Note_on_c, 0, 64, 0
2, 20940, Note_on_c, 0, 67, 50
2, 20967, Note_on_c, 0, 67, 0
2, 20970, Note_on_c, 0, 64, 45
2, 20996, Note_on_c, 0, 64, 0
2, 21000, Note_on_c, 0, 67, 39
2, 21019, Note_on_c, 0, 67, 0
2, 21024, Note_on_c, 0, 76, 0
2, 21030, Note_on_c, 0, 64, 34
2, 21045, Note_on_c, 0, 64, 0
2, 21060, Note_on_c, 0, 77, 59
2, 21060, Note_on_c, 0, 71, 43
2, 21087, Note_on_c, 0, 71, 0
2, 21087, Note_on_c, 0, 77, 0
2, 21090, Note_on_c, 0, 65, 54
2, 21105, Note_on_c, 0, 74, 77
2, 21107, Note_on_c, 0, 65, 0
2, 21120, Note_on_c, 0, 72, 64
2, 21123, Note_on_c, 0, 74, 0
2, 21150, Note_on_c, 0, 64, 59
2, 21172, Note_on_c, 0, 64, 0
2, 21179, Note_on_c, 0, 72, 0
2, 21180, Note_on_c, 0, 67, 59
2, 21207, Note_on_c, 0, 67, 0
2, 21210, Note_on_c, 0, 64, 50
2, 21223, Note_on_c, 0, 64, 0
2, 21270, Note_on_c, 0, 62, 43
2, 21299, Note_on_c, 0, 62, 0
2, 21300, Note_on_c, 0, 64, 32
2, 21300, Note_on_c, 0, 68, 59
2, 21324, Note_on_c, 0, 64, 0
2, 21326, Note_on_c, 0, 68, 0
2, 21330, Note_on_c, 0, 62, 45
2, 21346, Note_on_c, 0, 62, 0
2, 21390, Note_on_c, 0, 60, 50
2, 21419, Note_on_c, 0, 60, 0
2, 21420, Note_on_c, 0, 69, 54
2, 21420, Note_on_c, 0, 64, 37
2, 21444, Note_on_c, 0, 64, 0
2, 21450, Note_on_c, 0, 60, 45
2, 21451, Note_on_c, 0, 69, 0
2, 21468, Note_on_c, 0, 60, 0
2, 21510, Note_on_c, 0, 59, 50
2, 21539, Note_on_c, 0, 59, 0
2, 21540, Note_on_c, 0, 62, 32
2, 21540, Note_on_c, 0, 65, 45
2, 21567, Note_on_c, 0, 62, 0
2, 21570, Note_on_c, 0, 59, 54
2, 21573, Note_on_c, 0, 65, 0
2, 21587, Note_on_c, 0, 59, 0
2, 21630, Note_on_c, 0, 57, 50
2, 21659, Note_on_c, 0, 57, 0
2, 21660, Note_on_c, 0, 64, 39
2, 21660, Note_on_c, 0, 60, 37
2, 21686, Note_on_c, 0, 60, 0
2, 21689, Note_on_c, 0, 64, 0
2, 21690, Note_on_c, 0, 57, 54
2, 21705, Note_on_c, 0, 57, 0
2, 21750, Note_on_c, 0, 59, 59
2, 21780, Note_on_c, 0, 59, 0
2, 21780, Note_on_c, 0, 68, 70
2, 21780, Note_on_c, 0, 64, 54
2, 21807, Note_on_c, 0, 64, 0
2, 21808, Note_on_c, 0, 68, 0
2, 21810, Note_on_c, 0, 62, 59
2, 21830, Note_on_c, 0, 62, 0
2, 21840, Note_on_c, 0, 69, 64
2, 21869, Note_on_c, 0, 69, 0
2, 21870, Note_on_c, 0, 68, 85
2, 21899, Note_on_c, 0, 68, 0
2, 21900, Note_on_c, 0, 69, 77
2, 21930, Note_on_c, 0, 71, 70
2, 21934, Note_on_c, 0, 69, 0
2, 21959, Note_on_c, 0, 71, 0
2, 21960, Note_on_c, 0, 72, 50
2, 21988, Note_on_c, 0, 72, 0
2, 21990, Note_on_c, 0, 71, 54
2, 22016, Note_on_c, 0, 71, 0
2, 22020, Note_on_c, 0, 72, 28
2, 22050, Note_on_c, 0, 73, 54
2, 22051, Note_on_c, 0, 72, 0
2, 22070, Note_on_c, 0, 73, 0
2, 22080, Note_on_c, 0, 74, 70
2, 22110, Note_on_c, 0, 62, 45
2, 22113, Note_on_c, 0, 74, 0
2, 22140, Note_on_c, 0, 66, 64
2, 22140, Note_on_c, 0, 69, 45
2, 22141, Note_on_c, 0, 62, 0
2, 22170, Note_on_c, 0, 62, 54
2, 22171, Note_on_c, 0, 66, 0
2, 22174, Note_on_c, 0, 69, 0
2, 22181, Note_on_c, 0, 62, 0
2, 22230, Note_on_c, 0, 57, 50
2, 22257, Note_on_c, 0, 57, 0
2, 22260, Note_on_c, 0, 66, 70
2, 22260, Note_on_c, 0, 69, 59
2, 22290, Note_on_c, 0, 66, 0
2, 22290, Note_on_c, 0, 57, 64
2, 22292, Note_on_c, 0, 69, 0
2, 22303, Note_on_c, 0, 57, 0
2, 22350, Note_on_c, 0, 59, 45
2, 22380, Note_on_c, 0, 71, 70
2, 22380, Note_on_c, 0, 67, 45
2, 22382, Note_on_c, 0, 59, 0
2, 22410, Note_on_c, 0, 62, 54
2, 22411, Note_on_c, 0, 67, 0
2, 22416, Note_on_c, 0, 71, 0
2, 22421, Note_on_c, 0, 62, 0
2, 22470, Note_on_c, 0, 60, 45
2, 22498, Note_on_c, 0, 60, 0
2, 22500, Note_on_c, 0, 69, 50
2, 22500, Note_on_c, 0, 64, 39
2, 22525, Note_on_c, 0, 64, 0
2, 22530, Note_on_c, 0, 60, 50
2, 22531, Note_on_c, 0, 69, 0
2, 22546, Note_on_c, 0, 60, 0
2, 22590, Note_on_c, 0, 59, 45
2, 22619, Note_on_c, 0, 59, 0
2, 22620, Note_on_c, 0, 67, 45
2, 22620, Note_on_c, 0, 62, 45
2, 22649, Note_on_c, 0, 62, 0
2, 22650, Note_on_c, 0, 59, 50
2, 22653, Note_on_c, 0, 67, 0
2, 22663, Note_on_c, 0, 59, 0
2, 22710, Note_on_c, 0, 60, 50
2, 22740, Note_on_c, 0, 66, 70
2, 22740, Note_on_c, 0, 62, 39
2, 22741, Note_on_c, 0, 60, 0
2, 22766, Note_on_c, 0, 62, 0
2, 22770, Note_on_c, 0, 60, 45
2, 22772, Note_on_c, 0, 66, 0
2, 22784, Note_on_c, 0, 60, 0
2, 22830, Note_on_c, 0, 67, 45
2, 22858, Note_on_c, 0, 67, 0
2, 22860, Note_on_c, 0, 66, 64
2, 22876, Note_on_c, 0, 66, 0
2, 22890, Note_on_c, 0, 67, 59
2, 22910, Note_on_c, 0, 67, 0
2, 22920, Note_on_c, 0, 71, 43
2, 22943, Note_on_c, 0, 71, 0
2, 22950, Note_on_c, 0, 74, 59
2, 22976, Note_on_c, 0, 74, 0
2, 22980, Note_on_c, 0, 78, 59
2, 22999, Note_on_c, 0, 78, 0
2, 23010, Note_on_c, 0, 79, 64
2, 23023, Note_on_c, 0, 79, 0
2, 23040, Note_on_c, 0, 81, 59
2, 23095, Note_on_c, 0, 81, 0
2, 23100, Note_on_c, 0, 73, 77
2, 23128, Note_on_c, 0, 73, 0
2, 23130, Note_on_c, 0, 64, 45
2, 23154, Note_on_c, 0, 64, 0
2, 23190, Note_on_c, 0, 62, 37
2, 23217, Note_on_c, 0, 62, 0
2, 23220, Note_on_c, 0, 74, 50
2, 23220, Note_on_c, 0, 65, 54
2, 23250, Note_on_c, 0, 74, 0
2, 23250, Note_on_c, 0, 62, 54
2, 23254, Note_on_c, 0, 65, 0
2, 23266, Note_on_c, 0, 62, 0
2, 23310, Note_on_c, 0, 59, 50
2, 23340, Note_on_c, 0, 59, 0
2, 23340, Note_on_c, 0, 67, 59
2, 23340, Note_on_c, 0, 62, 45
2, 23363, Note_on_c, 0, 62, 0
2, 23365, Note_on_c, 0, 67, 0
2, 23370, Note_on_c, 0, 59, 45
2, 23384, Note_on_c, 0, 59, 0
2, 23430, Note_on_c, 0, 60, 50
2, 23458, Note_on_c, 0, 60, 0
2, 23460, Note_on_c, 0, 67, 54
2, 23460, Note_on_c, 0, 64, 43
2, 23485, Note_on_c, 0, 64, 0
2, 23490, Note_on_c, 0, 67, 0
2, 23490, Note_on_c, 0, 60, 54
2, 23503, Note_on_c, 0, 60, 0
2, 23550, Note_on_c, 0, 55, 58
2, 23570, Note_on_c, 0, 55, 0
2, 23580, Note_on_c, 0, 65, 70
2, 23580, Note_on_c, 0, 62, 39
2, 23607, Note_on_c, 0, 62, 0
2, 23607, Note_on_c, 0, 65, 0
2, 23610, Note_on_c, 0, 55, 39
2, 23640, Note_on_c, 0, 65, 64
2, 23640, Note_on_c, 0, 62, 54
2, 23642, Note_on_c, 0, 55, 0
2, 23666, Note_on_c, 0, 62, 0
2, 23669, Note_on_c, 0, 65, 0
2, 23670, Note_on_c, 0, 55, 50
2, 23700, Note_on_c, 0, 55, 0
2, 23700, Note_on_c, 0, 64, 54
2, 23700, Note_on_c, 0, 60, 50
2, 23730, Note_on_c, 0, 55, 59
2, 23731, Note_on_c, 0, 60, 0
2, 23733, Note_on_c, 0, 64, 0
2, 23741, Note_on_c, 0, 55, 0
2, 23790, Note_on_c, 0, 67, 54
2, 23817, Note_on_c, 0, 67, 0
2, 23820, Note_on_c, 0, 66, 64
2, 23836, Note_on_c, 0, 66, 0
2, 23850, Note_on_c, 0, 67, 50
2, 23877, Note_on_c, 0, 67, 0
2, 23880, Note_on_c, 0, 69, 45
2, 23907, Note_on_c, 0, 69, 0
2, 23910, Note_on_c, 0, 71, 50
2, 23935, Note_on_c, 0, 71, 0
2, 23940, Note_on_c, 0, 72, 50
2, 23962, Note_on_c, 0, 72, 0
2, 23970, Note_on_c, 0, 74, 32
2, 23996, Note_on_c, 0, 74, 0
2, 24000, Note_on_c, 0, 75, 77
2, 24060, Note_on_c, 0, 75, 0
2, 24060, Note_on_c, 0, 67, 43
2, 24083, Note_on_c, 0, 67, 0
2, 24090, Note_on_c, 0, 63, 70
2, 24110, Note_on_c, 0, 63, 0
2, 24120, Note_on_c, 0, 63, 64
2, 24120, Note_on_c, 0, 67, 54
2, 24146, Note_on_c, 0, 67, 0
2, 24147, Note_on_c, 0, 63, 0
2, 24150, Note_on_c, 0, 60, 48
2, 24178, Note_on_c, 0, 60, 0
2, 24180, Note_on_c, 0, 62, 45
2, 24180, Note_on_c, 0, 65, 59
2, 24210, Note_on_c, 0, 62, 0
2, 24210, Note_on_c, 0, 59, 54
2, 24212, Note_on_c, 0, 65, 0
2, 24225, Note_on_c, 0, 59, 0
2, 24270, Note_on_c, 0, 60, 43
2, 24297, Note_on_c, 0, 60, 0
2, 24300, Note_on_c, 0, 63, 64
2, 24300, Note_on_c, 0, 67, 45
2, 24326, Note_on_c, 0, 67, 0
2, 24327, Note_on_c, 0, 63, 0
2, 24330, Note_on_c, 0, 60, 45
2, 24355, Note_on_c, 0, 60, 0
2, 24360, Note_on_c, 0, 63, 70
2, 24360, Note_on_c, 0, 67, 50
2, 24385, Note_on_c, 0, 67, 0
2, 24389, Note_on_c, 0, 63, 0
2, 24390, Note_on_c, 0, 60, 45
2, 24419, Note_on_c, 0, 60, 0
2, 24420, Note_on_c, 0, 65, 59
2, 24420, Note_on_c, 0, 62, 43
2, 24446, Note_on_c, 0, 62, 0
2, 24450, Note_on_c, 0, 59, 54
2, 24453, Note_on_c, 0, 65, 0
2, 24461, Note_on_c, 0, 59, 0
2, 24510, Note_on_c, 0, 60, 43
2, 24540, Note_on_c, 0, 63, 77
2, 24540, Note_on_c, 0, 67, 37
2, 24541, Note_on_c, 0, 60, 0
2, 24564, Note_on_c, 0, 67, 0
2, 24565, Note_on_c, 0, 63, 0
2, 24570, Note_on_c, 0, 60, 45
2, 24600, Note_on_c, 0, 60, 0
2, 24600, Note_on_c, 0, 63, 70
2, 24600, Note_on_c, 0, 67, 45
2, 24627, Note_on_c, 0, 63, 0
2, 24628, Note_on_c, 0, 67, 0
2, 24630, Note_on_c, 0, 60, 45
2, 24660, Note_on_c, 0, 60, 0
2, 24660, Note_on_c, 0, 65, 54
2, 24660, Note_on_c, 0, 62, 37
2, 24690, Note_on_c, 0, 62, 0
2, 24690, Note_on_c, 0, 59, 54
2, 24694, Note_on_c, 0, 65, 0
2, 24705, Note_on_c, 0, 59, 0
2, 24750, Note_on_c, 0, 60, 50
2, 24778, Note_on_c, 0, 60, 0
2, 24780, Note_on_c, 0, 67, 50
2, 24780, Note_on_c, 0, 64, 50
2, 24804, Note_on_c, 0, 64, 0
2, 24806, Note_on_c, 0, 67, 0
2, 24810, Note_on_c, 0, 60, 50
2, 24837, Note_on_c, 0, 60, 0
2, 24840, Note_on_c, 0, 67, 34
2, 24840, Note_on_c, 0, 64, 39
2, 24864, Note_on_c, 0, 64, 0
2, 24867, Note_on_c, 0, 67, 0
2, 24870, Note_on_c, 0, 60, 37
2, 24896, Note_on_c, 0, 60, 0
2, 24900, Note_on_c, 0, 65, 45
2, 24900, Note_on_c, 0, 62, 43
2, 24928, Note_on_c, 0, 65, 0
2, 24929, Note_on_c, 0, 62, 0
2, 24930, Note_on_c, 0, 59, 64
2, 24944, Note_on_c, 0, 59, 0
2, 24990, Note_on_c, 0, 60, 54
2, 25020, Note_on_c, 0, 67, 37
2, 25020, Note_on_c, 0, 64, 45
2, 25022, Note_on_c, 0, 60, 0
2, 25046, Note_on_c, 0, 64, 0
2, 25047, Note_on_c, 0, 67, 0
2, 25050, Note_on_c, 0, 60, 54
2, 25067, Note_on_c, 0, 60, 0
2, 25110, Note_on_c, 0, 62, 59
2, 25140, Note_on_c, 0, 62, 0
2, 25140, Note_on_c, 0, 68, 70
2, 25140, Note_on_c, 0, 64, 39
2, 25166, Note_on_c, 0, 64, 0
2, 25170, Note_on_c, 0, 62, 45
2, 25173, Note_on_c, 0, 68, 0
2, 25189, Note_on_c, 0, 62, 0
2, 25230, Note_on_c, 0, 60, 50
2, 25260, Note_on_c, 0, 69, 54
2, 25260, Note_on_c, 0, 64, 50
2, 25261, Note_on_c, 0, 60, 0
2, 25287, Note_on_c, 0, 64, 0
2, 25290, Note_on_c, 0, 60, 54
2, 25300, Note_on_c, 0, 69, 0
2, 25305, Note_on_c, 0, 60, 0
2, 25350, Note_on_c, 0, 62, 50
2, 25350, Note_on_c, 0, 65, 64
2, 25363, Note_on_c, 0, 62, 0
2, 25376, Note_on_c, 0, 65, 0
2, 25380, Note_on_c, 0, 64, 45
2, 25380, Note_on_c, 0, 67, 45
2, 25396, Note_on_c, 0, 67, 0
2, 25397, Note_on_c, 0, 64, 0
2, 25410, Note_on_c, 0, 65, 59
2, 25410, Note_on_c, 0, 69, 59
2, 25422, Note_on_c, 0, 65, 0
2, 25424, Note_on_c, 0, 69, 0
2, 25470, Note_on_c, 0, 60, 50
2, 25499, Note_on_c, 0, 60, 0
2, 25500, Note_on_c, 0, 67, 43
2, 25500, Note_on_c, 0, 64, 34
2, 25526, Note_on_c, 0, 64, 0
2, 25530, Note_on_c, 0, 60, 50
2, 25535, Note_on_c, 0, 67, 0
2, 25544, Note_on_c, 0, 60, 0
2, 25590, Note_on_c, 0, 59, 50
2, 25619, Note_on_c, 0, 59, 0
2, 25620, Note_on_c, 0, 65, 50
2, 25620, Note_on_c, 0, 62, 32
2, 25649, Note_on_c, 0, 62, 0
2, 25650, Note_on_c, 0, 59, 59
2, 25651, Note_on_c, 0, 65, 0
2, 25654, Note_on_c, 0, 59, 0
2, 25680, Note_on_c, 0, 72, 85
2, 25680, Note_on_c, 0, 84, 77
2, 25800, Note_on_c, 0, 76, 45
2, 25920, Note_on_c, 0, 77, 64
2, 25923, Note_on_c, 0, 76, 0
2, 26037, Note_on_c, 0, 77, 0
2, 26040, Note_on_c, 0, 82, 77
2, 26133, Note_on_c, 0, 72, 0
2, 26142, Note_on_c, 0, 82, 0
2, 26143, Note_on_c, 0, 84, 0
2, 26160, Note_on_c, 0, 84, 77
2, 26160, Note_on_c, 0, 81, 70
2, 26212, Note_on_c, 0, 81, 0
2, 26212, Note_on_c, 0, 84, 0
2, 26220, Note_on_c, 0, 79, 50
2, 26220, Note_on_c, 0, 83, 45
2, 26247, Note_on_c, 0, 83, 0
2, 26250, Note_on_c, 0, 77, 50
2, 26250, Note_on_c, 0, 81, 43
2, 26252, Note_on_c, 0, 79, 0
2, 26257, Note_on_c, 0, 81, 0
2, 26259, Note_on_c, 0, 77, 0
2, 26280, Note_on_c, 0, 77, 85
2, 26280, Note_on_c, 0, 81, 70
2, 26318, Note_on_c, 0, 77, 0
2, 26336, Note_on_c, 0, 81, 0
2, 26340, Note_on_c, 0, 76, 45
2, 26340, Note_on_c, 0, 79, 43
2, 26349, Note_on_c, 0, 79, 0
2, 26351, Note_on_c, 0, 76, 0
2, 26370, Note_on_c, 0, 77, 59
2, 26370, Note_on_c, 0, 74, 54
2, 26379, Note_on_c, 0, 77, 0
2, 26381, Note_on_c, 0, 74, 0
2, 26400, Note_on_c, 0, 72, 59
2, 26400, Note_on_c, 0, 76, 54
2, 26509, Note_on_c, 0, 76, 0
2, 26512, Note_on_c, 0, 72, 0
2, 26520, Note_on_c, 0, 71, 50
2, 26520, Note_on_c, 0, 74, 59
2, 26634, Note_on_c, 0, 74, 0
2, 26635, Note_on_c, 0, 71, 0
2, 26640, Note_on_c, 0, 72, 70
2, 26700, Note_on_c, 0, 60, 77
2, 26704, Note_on_c, 0, 72, 0
2, 26725, Note_on_c, 0, 60, 0
2, 26745, Note_on_c, 0, 60, 54
2, 26760, Note_on_c, 0, 64, 93
2, 26765, Note_on_c, 0, 60, 0
2, 26782, Note_on_c, 0, 64, 0
2, 26805, Note_on_c, 0, 64, 103
2, 26820, Note_on_c, 0, 67, 103
2, 26821, Note_on_c, 0, 64, 0
2, 26836, Note_on_c, 0, 67, 0
2, 26865, Note_on_c, 0, 67, 70
2, 26880, Note_on_c, 0, 76, 113
2, 26884, Note_on_c, 0, 67, 0
2, 26906, Note_on_c, 0, 76, 0
2, 26910, Note_on_c, 0, 72, 64
2, 26940, Note_on_c, 0, 67, 77
2, 26946, Note_on_c, 0, 72, 0
2, 26963, Note_on_c, 0, 67, 0
2, 26970, Note_on_c, 0, 64, 77
2, 27000, Note_on_c, 0, 67, 64
2, 27005, Note_on_c, 0, 64, 0
2, 27021, Note_on_c, 0, 67, 0
2, 27030, Note_on_c, 0, 72, 70
2, 27053, Note_on_c, 0, 72, 0
2, 27060, Note_on_c, 0, 77, 103
2, 27060, Note_on_c, 0, 71, 93
2, 27084, Note_on_c, 0, 77, 0
2, 27090, Note_on_c, 0, 74, 85
2, 27092, Note_on_c, 0, 71, 0
2, 27115, Note_on_c, 0, 74, 0
2, 27120, Note_on_c, 0, 72, 101
2, 27150, Note_on_c, 0, 67, 93
2, 27180, Note_on_c, 0, 67, 93
2, 27208, Note_on_c, 0, 67, 0
2, 27210, Note_on_c, 0, 64, 77
2, 27234, Note_on_c, 0, 64, 0
2, 27237, Note_on_c, 0, 72, 0
2, 27240, Note_on_c, 0, 72, 93
2, 27265, Note_on_c, 0, 67, 0
2, 27270, Note_on_c, 0, 67, 77
2, 27273, Note_on_c, 0, 72, 0
2, 27300, Note_on_c, 0, 67, 0
2, 27300, Note_on_c, 0, 71, 93
2, 27300, Note_on_c, 0, 74, 93
2, 27330, Note_on_c, 0, 65, 77
2, 27332, Note_on_c, 0, 71, 0
2, 27338, Note_on_c, 0, 74, 0
2, 27357, Note_on_c, 0, 65, 0
2, 27360, Note_on_c, 0, 76, 103
2, 27390, Note_on_c, 0, 72, 77
2, 27418, Note_on_c, 0, 72, 0
2, 27420, Note_on_c, 0, 67, 77
2, 27450, Note_on_c, 0, 67, 0
2, 27450, Note_on_c, 0, 64, 77
2, 27480, Note_on_c, 0, 67, 70
2, 27485, Note_on_c, 0, 64, 0
2, 27500, Note_on_c, 0, 67, 0
2, 27509, Note_on_c, 0, 76, 0
2, 27510, Note_on_c, 0, 72, 70
2, 27535, Note_on_c, 0, 72, 0
2, 27540, Note_on_c, 0, 71, 103
2, 27540, Note_on_c, 0, 77, 93
2, 27563, Note_on_c, 0, 77, 0
2, 27570, Note_on_c, 0, 74, 85
2, 27572, Note_on_c, 0, 71, 0
2, 27595, Note_on_c, 0, 74, 0
2, 27600, Note_on_c, 0, 64, 103
2, 27600, Note_on_c, 0, 72, 93
2, 27682, Note_on_c, 0, 64, 0
2, 27685, Note_on_c, 0, 72, 0
2, 27720, Note_on_c, 0, 67, 103
2, 27720, Note_on_c, 0, 76, 93
2, 27739, Note_on_c, 0, 67, 0
2, 27748, Note_on_c, 0, 76, 0
2, 27780, Note_on_c, 0, 72, 103
2, 27780, Note_on_c, 0, 77, 93
2, 27804, Note_on_c, 0, 77, 0
2, 27805, Note_on_c, 0, 72, 0
2, 27840, Note_on_c, 0, 74, 103
2, 27840, Note_on_c, 0, 65, 113
2, 27864, Note_on_c, 0, 74, 0
2, 27876, Note_on_c, 0, 65, 0
2, 27900, Note_on_c, 0, 71, 93
2, 27900, Note_on_c, 0, 76, 85
2, 27922, Note_on_c, 0, 71, 0
2, 27924, Note_on_c, 0, 76, 0
2, 27960, Note_on_c, 0, 64, 103
2, 27960, Note_on_c, 0, 72, 103
2, 27983, Note_on_c, 0, 64, 0
2, 27984, Note_on_c, 0, 72, 0
2, 28020, Note_on_c, 0, 74, 113
2, 28020, Note_on_c, 0, 69, 103
2, 28039, Note_on_c, 0, 69, 0
2, 28041, Note_on_c, 0, 74, 0
2, 28080, Note_on_c, 0, 71, 93
2, 28080, Note_on_c, 0, 62, 103
2, 28118, Note_on_c, 0, 62, 0
2, 28126, Note_on_c, 0, 71, 0
2, 28140, Note_on_c, 0, 60, 85
2, 28140, Note_on_c, 0, 69, 93
2, 28152, Note_on_c, 0, 60, 0
2, 28158, Note_on_c, 0, 69, 0
2, 28170, Note_on_c, 0, 59, 77
2, 28170, Note_on_c, 0, 67, 70
2, 28182, Note_on_c, 0, 59, 0
2, 28184, Note_on_c, 0, 67, 0
2, 28200, Note_on_c, 0, 67, 103
2, 28200, Note_on_c, 0, 72, 103
2, 28226, Note_on_c, 0, 72, 0
2, 28228, Note_on_c, 0, 67, 0
2, 28260, Note_on_c, 0, 77, 113
2, 28260, Note_on_c, 0, 67, 103
2, 28260, Note_on_c, 0, 74, 113
2, 28284, Note_on_c, 0, 77, 0
2, 28285, Note_on_c, 0, 74, 0
2, 28287, Note_on_c, 0, 67, 0
2, 28320, Note_on_c, 0, 67, 113
2, 28320, Note_on_c, 0, 77, 113
2, 28320, Note_on_c, 0, 74, 113
2, 28437, Note_on_c, 0, 74, 0
2, 28438, Note_on_c, 0, 77, 0
2, 28440, Note_on_c, 0, 72, 93
2, 28440, Note_on_c, 0, 76, 85
2, 28443, Note_on_c, 0, 67, 0
2, 28525, Note_on_c, 0, 72, 0
2, 28527, Note_on_c, 0, 76, 0
2, 28560, Note_on_c, 0, 74, 103
2, 28560, Note_on_c, 0, 71, 93
2, 28560, Note_on_c, 0, 67, 93
2, 28595, Note_on_c, 0, 67, 0
2, 28601, Note_on_c, 0, 71, 0
2, 28601, Note_on_c, 0, 74, 0
2, 28620, Note_on_c, 0, 79, 103
2, 28620, Note_on_c, 0, 67, 113
2, 28648, Note_on_c, 0, 67, 0
2, 28649, Note_on_c, 0, 79, 0
2, 28665, Note_on_c, 0, 79, 103
2, 28665, Note_on_c, 0, 67, 93
2, 28672, Note_on_c, 0, 67, 0
2, 28673, Note_on_c, 0, 79, 0
2, 28680, Note_on_c, 0, 79, 113
2, 28680, Note_on_c, 0, 67, 113
2, 28722, Note_on_c, 0, 79, 0
2, 28723, Note_on_c, 0, 67, 0
2, 28740, Note_on_c, 0, 79, 103
2, 28740, Note_on_c, 0, 67, 103
2, 28771, Note_on_c, 0, 79, 0
2, 28778, Note_on_c, 0, 67, 0
2, 28800, Note_on_c, 0, 76, 103
2, 28830, Note_on_c, 0, 72, 77
2, 28860, Note_on_c, 0, 67, 85
2, 28862, Note_on_c, 0, 72, 0
2, 28888, Note_on_c, 0, 67, 0
2, 28890, Note_on_c, 0, 64, 77
2, 28920, Note_on_c, 0, 67, 85
2, 28924, Note_on_c, 0, 64, 0
2, 28944, Note_on_c, 0, 67, 0
2, 28950, Note_on_c, 0, 76, 0
2, 28950, Note_on_c, 0, 72, 64
2, 28972, Note_on_c, 0, 72, 0
2, 28980, Note_on_c, 0, 71, 103
2, 28980, Note_on_c, 0, 77, 103
2, 29007, Note_on_c, 0, 77, 0
2, 29010, Note_on_c, 0, 74, 70
2, 29014, Note_on_c, 0, 71, 0
2, 29039, Note_on_c, 0, 74, 0
2, 29040, Note_on_c, 0, 72, 103
2, 29070, Note_on_c, 0, 67, 77
2, 29086, Note_on_c, 0, 67, 0
2, 29100, Note_on_c, 0, 67, 113
2, 29103, Note_on_c, 0, 72, 0
2, 29129, Note_on_c, 0, 67, 0
2, 29130, Note_on_c, 0, 64, 77
2, 29160, Note_on_c, 0, 72, 103
2, 29165, Note_on_c, 0, 64, 0
2, 29190, Note_on_c, 0, 67, 77
2, 29192, Note_on_c, 0, 72, 0
2, 29220, Note_on_c, 0, 74, 103
2, 29220, Note_on_c, 0, 71, 103
2, 29222, Note_on_c, 0, 67, 0
2, 29248, Note_on_c, 0, 74, 0
2, 29250, Note_on_c, 0, 65, 85
2, 29252, Note_on_c, 0, 71, 0
2, 29280, Note_on_c, 0, 76, 103
2, 29282, Note_on_c, 0, 65, 0
2, 29310, Note_on_c, 0, 72, 59
2, 29311, Note_on_c, 0, 76, 0
2, 29338, Note_on_c, 0, 72, 0
2, 29340, Note_on_c, 0, 67, 103
2, 29340, Note_on_c, 0, 76, 93
2, 29370, Note_on_c, 0, 64, 59
2, 29372, Note_on_c, 0, 67, 0
2, 29398, Note_on_c, 0, 64, 0
2, 29400, Note_on_c, 0, 67, 85
2, 29425, Note_on_c, 0, 67, 0
2, 29430, Note_on_c, 0, 72, 77
2, 29433, Note_on_c, 0, 76, 0
2, 29452, Note_on_c, 0, 72, 0
2, 29460, Note_on_c, 0, 71, 103
2, 29460, Note_on_c, 0, 77, 93
2, 29485, Note_on_c, 0, 77, 0
2, 29490, Note_on_c, 0, 74, 85
2, 29493, Note_on_c, 0, 71, 0
2, 29520, Note_on_c, 0, 72, 93
2, 29524, Note_on_c, 0, 74, 0
2, 29547, Note_on_c, 0, 72, 0
2, 29550, Note_on_c, 0, 71, 85
2, 29580, Note_on_c, 0, 72, 85
2, 29586, Note_on_c, 0, 71, 0
2, 29610, Note_on_c, 0, 74, 77
2, 29612, Note_on_c, 0, 72, 0
2, 29639, Note_on_c, 0, 74, 0
2, 29640, Note_on_c, 0, 67, 113
2, 29640, Note_on_c, 0, 76, 85
2, 29669, Note_on_c, 0, 67, 0
2, 29675, Note_on_c, 0, 76, 0
2, 29700, Note_on_c, 0, 72, 103
2, 29700, Note_on_c, 0, 77, 103
2, 29725, Note_on_c, 0, 77, 0
2, 29729, Note_on_c, 0, 72, 0
2, 29760, Note_on_c, 0, 65, 113
2, 29760, Note_on_c, 0, 74, 103
2, 29786, Note_on_c, 0, 74, 0
2, 29791, Note_on_c, 0, 65, 0
2, 29820, Note_on_c, 0, 71, 113
2, 29820, Note_on_c, 0, 76, 93
2, 29843, Note_on_c, 0, 71, 0
2, 29845, Note_on_c, 0, 76, 0
2, 29880, Note_on_c, 0, 72, 103
2, 29880, Note_on_c, 0, 64, 103
2, 29906, Note_on_c, 0, 72, 0
2, 29907, Note_on_c, 0, 64, 0
2, 29940, Note_on_c, 0, 74, 103
2, 29940, Note_on_c, 0, 69, 103
2, 29960, Note_on_c, 0, 74, 0
2, 29967, Note_on_c, 0, 69, 0
2, 30000, Note_on_c, 0, 74, 113
2, 30000, Note_on_c, 0, 71, 103
2, 30000, Note_on_c, 0, 67, 103
2, 30040, Note_on_c, 0, 67, 0
2, 30046, Note_on_c, 0, 71, 0
2, 30047, Note_on_c, 0, 74, 0
2, 30060, Note_on_c, 0, 69, 93
2, 30090, Note_on_c, 0, 69, 0
2, 30090, Note_on_c, 0, 71, 77
2, 30120, Note_on_c, 0, 72, 93
2, 30127, Note_on_c, 0, 71, 0
2, 30150, Note_on_c, 0, 74, 103
2, 30151, Note_on_c, 0, 72, 0
2, 30180, Note_on_c, 0, 76, 85
2, 30197, Note_on_c, 0, 74, 0
2, 30206, Note_on_c, 0, 76, 0
2, 30210, Note_on_c, 0, 77, 85
2, 30235, Note_on_c, 0, 77, 0
2, 30240, Note_on_c, 0, 79, 103
2, 30240, Note_on_c, 0, 67, 103
2, 30240, Note_on_c, 0, 76, 93
2, 30277, Note_on_c, 0, 76, 0
2, 30279, Note_on_c, 0, 79, 0
2, 30297, Note_on_c, 0, 67, 0
2, 30300, Note_on_c, 0, 72, 103
2, 30300, Note_on_c, 0, 76, 93
2, 30353, Note_on_c, 0, 76, 0
2, 30360, Note_on_c, 0, 74, 103
2, 30415, Note_on_c, 0, 72, 0
2, 30420, Note_on_c, 0, 71, 85
2, 30424, Note_on_c, 0, 74, 0
2, 30450, Note_on_c, 0, 72, 77
2, 30453, Note_on_c, 0, 71, 0
2, 30465, Note_on_c, 0, 74, 85
2, 30467, Note_on_c, 0, 72, 0
2, 30474, Note_on_c, 0, 74, 0
2, 30480, Note_on_c, 0, 64, 103
2, 30480, Note_on_c, 0, 72, 113
2, 30521, Note_on_c, 0, 64, 0
2, 30533, Note_on_c, 0, 72, 0
2, 30540, Note_on_c, 0, 60, 103
2, 30589, Note_on_c, 0, 60, 0
2, 30600, Note_on_c, 0, 64, 103
2, 30659, Note_on_c, 0, 64, 0
2, 30660, Note_on_c, 0, 60, 93
2, 30695, Note_on_c, 0, 60, 0
2, 30720, Note_on_c, 0, 67, 50
2, 31020, Note_on_c, 0, 77, 39
2, 31020, Note_on_c, 0, 74, 50
2, 31062, Note_on_c, 0, 74, 0
2, 31062, Note_on_c, 0, 77, 0
2, 31080, Note_on_c, 0, 76, 43
2, 31080, Note_on_c, 0, 72, 45
2, 31108, Note_on_c, 0, 72, 0
2, 31109, Note_on_c, 0, 76, 0
2, 31140, Note_on_c, 0, 74, 39
2, 31140, Note_on_c, 0, 71, 50
2, 31163, Note_on_c, 0, 71, 0
2, 31168, Note_on_c, 0, 74, 0
2, 31170, Note_on_c, 0, 67, 0
2, 31200, Note_on_c, 0, 67, 54
2, 31500, Note_on_c, 0, 79, 43
2, 31500, Note_on_c, 0, 76, 45
2, 31523, Note_on_c, 0, 76, 0
2, 31528, Note_on_c, 0, 79, 0
2, 31560, Note_on_c, 0, 77, 54
2, 31560, Note_on_c, 0, 74, 54
2, 31591, Note_on_c, 0, 77, 0
2, 31594, Note_on_c, 0, 74, 0
2, 31620, Note_on_c, 0, 76, 50
2, 31620, Note_on_c, 0, 72, 43
2, 31643, Note_on_c, 0, 72, 0
2, 31643, Note_on_c, 0, 67, 0
2, 31649, Note_on_c, 0, 76, 0
2, 31680, Note_on_c, 0, 79, 54
2, 31680, Note_on_c, 0, 83, 64
2, 31733, Note_on_c, 0, 83, 0
2, 31740, Note_on_c, 0, 83, 64
2, 31860, Note_on_c, 0, 84, 64
2, 31863, Note_on_c, 0, 83, 0
2, 31910, Note_on_c, 0, 84, 0
2, 31920, Note_on_c, 0, 83, 45
2, 31958, Note_on_c, 0, 83, 0
2, 31980, Note_on_c, 0, 83, 59
2, 32100, Note_on_c, 0, 84, 70
2, 32111, Note_on_c, 0, 83, 0
2, 32112, Note_on_c, 0, 79, 0
2, 32141, Note_on_c, 0, 84, 0
2, 32160, Note_on_c, 0, 77, 64
2, 32193, Note_on_c, 0, 77, 0
2, 32220, Note_on_c, 0, 74, 54
2, 32220, Note_on_c, 0, 77, 54
2, 32323, Note_on_c, 0, 74, 0
2, 32330, Note_on_c, 0, 77, 0
2, 32340, Note_on_c, 0, 72, 50
2, 32340, Note_on_c, 0, 76, 50
2, 32368, Note_on_c, 0, 72, 0
2, 32369, Note_on_c, 0, 76, 0
2, 32400, Note_on_c, 0, 72, 50
2, 32400, Note_on_c, 0, 76, 45
2, 32425, Note_on_c, 0, 76, 0
2, 32425, Note_on_c, 0, 72, 0
2, 32460, Note_on_c, 0, 74, 45
2, 32460, Note_on_c, 0, 67, 50
2, 32460, Note_on_c, 0, 71, 59
2, 32521, Note_on_c, 0, 71, 0
2, 32523, Note_on_c, 0, 67, 0
2, 32525, Note_on_c, 0, 74, 0
2, 32640, Note_on_c, 0, 76, 113
2, 32640, Note_on_c, 0, 72, 125
2, 32758, Note_on_c, 0, 76, 0
2, 32759, Note_on_c, 0, 72, 0
2, 32760, Note_on_c, 0, 67, 113
2, 32760, Note_on_c, 0, 71, 113
2, 32760, Note_on_c, 0, 74, 113
2, 32845, Note_on_c, 0, 74, 0
2, 32849, Note_on_c, 0, 67, 0
2, 32850, Note_on_c, 0, 71, 0
2, 32850, Note_on_c, 0, 76, 103
2, 32850, Note_on_c, 0, 72, 93
2, 32858, Note_on_c, 0, 72, 0
2, 32860, Note_on_c, 0, 76, 0
2, 32880, Note_on_c, 0, 77, 113
2, 32880, Note_on_c, 0, 74, 113
2, 32880, Note_on_c, 0, 69, 103
2, 33004, Note_on_c, 0, 69, 0
2, 33006, Note_on_c, 0, 74, 0
2, 33008, Note_on_c, 0, 77, 0
2, 33120, Note_on_c, 0, 74, 125
2, 33120, Note_on_c, 0, 77, 113
2, 33234, Note_on_c, 0, 77, 0
2, 33235, Note_on_c, 0, 74, 0
2, 33240, Note_on_c, 0, 72, 113
2, 33240, Note_on_c, 0, 76, 103
2, 33324, Note_on_c, 0, 76, 0
2, 33329, Note_on_c, 0, 72, 0
2, 33330, Note_on_c, 0, 74, 113
2, 33330, Note_on_c, 0, 77, 103
2, 33337, Note_on_c, 0, 77, 0
2, 33338, Note_on_c, 0, 74, 0
2, 33360, Note_on_c, 0, 67, 113
2, 33360, Note_on_c, 0, 79, 103
2, 33360, Note_on_c, 0, 76, 103
2, 33482, Note_on_c, 0, 67, 0
2, 33483, Note_on_c, 0, 76, 0
2, 33489, Note_on_c, 0, 79, 0
2, 33600, Note_on_c, 0, 76, 103
2, 33600, Note_on_c, 0, 72, 113
2, 33600, Note_on_c, 0, 79, 125
2, 33705, Note_on_c, 0, 79, 0
2, 33708, Note_on_c, 0, 72, 0
2, 33708, Note_on_c, 0, 76, 0
2, 33720, Note_on_c, 0, 72, 103
2, 33720, Note_on_c, 0, 77, 103
2, 33794, Note_on_c, 0, 72, 0
2, 33797, Note_on_c, 0, 77, 0
2, 33810, Note_on_c, 0, 76, 85
2, 33810, Note_on_c, 0, 71, 93
2, 33810, Note_on_c, 0, 72, 85
2, 33822, Note_on_c, 0, 71, 0
2, 33827, Note_on_c, 0, 72, 0
2, 33828, Note_on_c, 0, 76, 0
2, 33840, Note_on_c, 0, 69, 113
2, 33840, Note_on_c, 0, 74, 113
2, 33840, Note_on_c, 0, 72, 113
2, 33911, Note_on_c, 0, 72, 0
2, 33913, Note_on_c, 0, 74, 0
2, 33913, Note_on_c, 0, 69, 0
2, 33930, Note_on_c, 0, 67, 103
2, 33930, Note_on_c, 0, 72, 93
2, 33943, Note_on_c, 0, 72, 0
2, 33943, Note_on_c, 0, 67, 0
2, 33960, Note_on_c, 0, 65, 113
2, 33960, Note_on_c, 0, 71, 113
2, 33960, Note_on_c, 0, 67, 113
2, 34019, Note_on_c, 0, 65, 0
2, 34023, Note_on_c, 0, 67, 0
2, 34029, Note_on_c, 0, 71, 0
2, 34050, Note_on_c, 0, 64, 103
2, 34050, Note_on_c, 0, 72, 103
2, 34057, Note_on_c, 0, 64, 0
2, 34060, Note_on_c, 0, 72, 0
2, 34080, Note_on_c, 0, 79, 103
2, 34080, Note_on_c, 0, 69, 113
2, 34080, Note_on_c, 0, 74, 113
2, 34171, Note_on_c, 0, 74, 0
2, 34177, Note_on_c, 0, 69, 0
2, 34185, Note_on_c, 0, 79, 0
2, 34200, Note_on_c, 0, 71, 113
2, 34200, Note_on_c, 0, 67, 113
2, 34200, Note_on_c, 0, 74, 113
2, 34295, Note_on_c, 0, 74, 0
2, 34295, Note_on_c, 0, 67, 0
2, 34295, Note_on_c, 0, 71, 0
2, 34320, Note_on_c, 0, 72, 113
2, 34320, Note_on_c, 0, 64, 113
2, 34365, Note_on_c, 0, 64, 0
2, 34373, Note_on_c, 0, 72, 0
2, 34380, Note_on_c, 0, 60, 85
2, 34420, Note_on_c, 0, 60, 0
2, 34440, Note_on_c, 0, 64, 113
2, 34481, Note_on_c, 0, 64, 0
2, 34500, Note_on_c, 0, 60, 85
2, 34529, Note_on_c, 0, 60, 0
2, 34560, Note_on_c, 0, 67, 59
2, 34860, Note_on_c, 0, 77, 54
2, 34860, Note_on_c, 0, 74, 54
2, 34872, Note_on_c, 0, 74, 0
2, 34876, Note_on_c, 0, 77, 0
2, 34920, Note_on_c, 0, 76, 30
2, 34920, Note_on_c, 0, 72, 26
2, 34939, Note_on_c, 0, 72, 0
2, 34941, Note_on_c, 0, 76, 0
2, 34980, Note_on_c, 0, 74, 43
2, 34980, Note_on_c, 0, 71, 50
2, 34994, Note_on_c, 0, 71, 0
2, 34995, Note_on_c, 0, 67, 0
2, 34998, Note_on_c, 0, 74, 0
2, 35040, Note_on_c, 0, 67, 64
2, 35340, Note_on_c, 0, 76, 54
2, 35340, Note_on_c, 0, 79, 50
2, 35354, Note_on_c, 0, 76, 0
2, 35356, Note_on_c, 0, 79, 0
2, 35400, Note_on_c, 0, 77, 59
2, 35400, Note_on_c, 0, 74, 54
2, 35418, Note_on_c, 0, 77, 0
2, 35420, Note_on_c, 0, 74, 0
2, 35460, Note_on_c, 0, 76, 50
2, 35460, Note_on_c, 0, 72, 45
2, 35470, Note_on_c, 0, 72, 0
2, 35470, Note_on_c, 0, 67, 0
2, 35476, Note_on_c, 0, 76, 0
2, 35520, Note_on_c, 0, 79, 43
2, 35520, Note_on_c, 0, 83, 64
2, 35544, Note_on_c, 0, 83, 0
2, 35580, Note_on_c, 0, 83, 45
2, 35698, Note_on_c, 0, 83, 0
2, 35700, Note_on_c, 0, 84, 54
2, 35757, Note_on_c, 0, 84, 0
2, 35760, Note_on_c, 0, 83, 43
2, 35780, Note_on_c, 0, 83, 0
2, 35820, Note_on_c, 0, 83, 54
2, 35940, Note_on_c, 0, 84, 59
2, 35943, Note_on_c, 0, 83, 0
2, 35952, Note_on_c, 0, 84, 0
2, 35978, Note_on_c, 0, 79, 0
2, 36000, Note_on_c, 0, 77, 70
2, 36030, Note_on_c, 0, 77, 0
2, 36060, Note_on_c, 0, 77, 59
2, 36060, Note_on_c, 0, 74, 59
2, 36172, Note_on_c, 0, 74, 0
2, 36176, Note_on_c, 0, 77, 0
2, 36180, Note_on_c, 0, 72, 45
2, 36180, Note_on_c, 0, 76, 39
2, 36199, Note_on_c, 0, 76, 0
2, 36200, Note_on_c, 0, 72, 0
2, 36240, Note_on_c, 0, 72, 59
2, 36240, Note_on_c, 0, 76, 59
2, 36269, Note_on_c, 0, 72, 0
2, 36279, Note_on_c, 0, 76, 0
2, 36300, Note_on_c, 0, 71, 64
2, 36300, Note_on_c, 0, 74, 54
2, 36300, Note_on_c, 0, 67, 43
2, 36373, Note_on_c, 0, 67, 0
2, 36373, Note_on_c, 0, 71, 0
2, 36374, Note_on_c, 0, 74, 0
2, 36480, Note_on_c, 0, 76, 113
2, 36480, Note_on_c, 0, 72, 113
2, 36593, Note_on_c, 0, 76, 0
2, 36597, Note_on_c, 0, 72, 0
2, 36600, Note_on_c, 0, 71, 113
2, 36600, Note_on_c, 0, 67, 113
2, 36600, Note_on_c, 0, 74, 113
2, 36686, Note_on_c, 0, 74, 0
2, 36689, Note_on_c, 0, 71, 0
2, 36690, Note_on_c, 0, 67, 0
2, 36690, Note_on_c, 0, 76, 93
2, 36690, Note_on_c, 0, 72, 93
2, 36699, Note_on_c, 0, 72, 0
2, 36699, Note_on_c, 0, 76, 0
2, 36720, Note_on_c, 0, 74, 113
2, 36720, Note_on_c, 0, 69, 113
2, 36720, Note_on_c, 0, 77, 103
2, 36843, Note_on_c, 0, 69, 0
2, 36846, Note_on_c, 0, 74, 0
2, 36848, Note_on_c, 0, 77, 0
2, 36960, Note_on_c, 0, 74, 125
2, 36960, Note_on_c, 0, 77, 125
2, 37078, Note_on_c, 0, 77, 0
2, 37078, Note_on_c, 0, 74, 0
2, 37080, Note_on_c, 0, 72, 113
2, 37080, Note_on_c, 0, 76, 113
2, 37162, Note_on_c, 0, 72, 0
2, 37165, Note_on_c, 0, 76, 0
2, 37170, Note_on_c, 0, 74, 103
2, 37170, Note_on_c, 0, 77, 93
2, 37180, Note_on_c, 0, 74, 0
2, 37185, Note_on_c, 0, 77, 0
2, 37200, Note_on_c, 0, 67, 113
2, 37200, Note_on_c, 0, 79, 103
2, 37200, Note_on_c, 0, 76, 103
2, 37313, Note_on_c, 0, 67, 0
2, 37315, Note_on_c, 0, 76, 0
2, 37318, Note_on_c, 0, 79, 0
2, 37440, Note_on_c, 0, 76, 113
2, 37440, Note_on_c, 0, 79, 113
2, 37440, Note_on_c, 0, 72, 113
2, 37543, Note_on_c, 0, 79, 0
2, 37545, Note_on_c, 0, 76, 0
2, 37547, Note_on_c, 0, 72, 0
2, 37560, Note_on_c, 0, 72, 113
2, 37560, Note_on_c, 0, 77, 113
2, 37632, Note_on_c, 0, 72, 0
2, 37633, Note_on_c, 0, 77, 0
2, 37650, Note_on_c, 0, 76, 93
2, 37650, Note_on_c, 0, 71, 93
2, 37650, Note_on_c, 0, 72, 93
2, 37661, Note_on_c, 0, 71, 0
2, 37666, Note_on_c, 0, 72, 0
2, 37666, Note_on_c, 0, 76, 0
2, 37680, Note_on_c, 0, 69, 113
2, 37680, Note_on_c, 0, 74, 113
2, 37680, Note_on_c, 0, 72, 113
2, 37739, Note_on_c, 0, 72, 0
2, 37742, Note_on_c, 0, 74, 0
2, 37743, Note_on_c, 0, 69, 0
2, 37770, Note_on_c, 0, 72, 103
2, 37770, Note_on_c, 0, 67, 113
2, 37779, Note_on_c, 0, 72, 0
2, 37780, Note_on_c, 0, 67, 0
2, 37800, Note_on_c, 0, 65, 113
2, 37800, Note_on_c, 0, 67, 113
2, 37800, Note_on_c, 0, 71, 113
2, 37857, Note_on_c, 0, 65, 0
2, 37866, Note_on_c, 0, 67, 0
2, 37869, Note_on_c, 0, 71, 0
2, 37890, Note_on_c, 0, 72, 103
2, 37890, Note_on_c, 0, 64, 103
2, 37897, Note_on_c, 0, 64, 0
2, 37901, Note_on_c, 0, 72, 0
2, 37920, Note_on_c, 0, 69, 113
2, 37920, Note_on_c, 0, 77, 113
2, 37920, Note_on_c, 0, 74, 113
2, 38017, Note_on_c, 0, 74, 0
2, 38018, Note_on_c, 0, 69, 0
2, 38024, Note_on_c, 0, 77, 0
2, 38040, Note_on_c, 0, 74, 125
2, 38040, Note_on_c, 0, 67, 113
2, 38040, Note_on_c, 0, 71, 113
2, 38132, Note_on_c, 0, 67, 0
2, 38137, Note_on_c, 0, 71, 0
2, 38148, Note_on_c, 0, 74, 0
2, 38160, Note_on_c, 0, 72, 113
2, 38160, Note_on_c, 0, 64, 113
2, 38177, Note_on_c, 0, 64, 0
2, 38181, Note_on_c, 0, 72, 0
2, 38220, Note_on_c, 0, 72, 59
2, 38220, Note_on_c, 0, 76, 50
2, 38242, Note_on_c, 0, 76, 0
2, 38243, Note_on_c, 0, 72, 0
2, 38280, Note_on_c, 0, 72, 85
2, 38280, Note_on_c, 0, 74, 93
2, 38302, Note_on_c, 0, 72, 0
2, 38304, Note_on_c, 0, 74, 0
2, 38340, Note_on_c, 0, 76, 93
2, 38340, Note_on_c, 0, 72, 93
2, 38356, Note_on_c, 0, 72, 0
2, 38361, Note_on_c, 0, 76, 0
2, 38400, Note_on_c, 0, 77, 113
2, 38400, Note_on_c, 0, 72, 113
2, 38485, Note_on_c, 0, 72, 0
2, 38488, Note_on_c, 0, 77, 0
2, 38490, Note_on_c, 0, 72, 93
2, 38490, Note_on_c, 0, 79, 93
2, 38504, Note_on_c, 0, 72, 0
2, 38510, Note_on_c, 0, 79, 0
2, 38520, Note_on_c, 0, 81, 113
2, 38520, Note_on_c, 0, 72, 113
2, 38561, Note_on_c, 0, 72, 0
2, 38568, Note_on_c, 0, 81, 0
2, 38580, Note_on_c, 0, 72, 103
2, 38580, Note_on_c, 0, 77, 113
2, 38613, Note_on_c, 0, 77, 0
2, 38617, Note_on_c, 0, 72, 0
2, 38640, Note_on_c, 0, 72, 103
2, 38640, Note_on_c, 0, 76, 103
2, 38734, Note_on_c, 0, 72, 0
2, 38743, Note_on_c, 0, 76, 0
2, 38760, Note_on_c, 0, 74, 113
2, 38760, Note_on_c, 0, 67, 113
2, 38760, Note_on_c, 0, 71, 103
2, 38850, Note_on_c, 0, 76, 77
2, 38851, Note_on_c, 0, 71, 0
2, 38853, Note_on_c, 0, 67, 0
2, 38856, Note_on_c, 0, 74, 0
2, 38866, Note_on_c, 0, 76, 0
2, 38880, Note_on_c, 0, 77, 113
2, 38880, Note_on_c, 0, 72, 113
2, 38920, Note_on_c, 0, 72, 0
2, 38923, Note_on_c, 0, 77, 0
2, 38940, Note_on_c, 0, 60, 93
2, 38940, Note_on_c, 0, 72, 93
2, 38953, Note_on_c, 0, 72, 0
2, 38953, Note_on_c, 0, 60, 0
2, 38970, Note_on_c, 0, 60, 93
2, 38970, Note_on_c, 0, 72, 93
2, 38985, Note_on_c, 0, 72, 0
2, 38986, Note_on_c, 0, 60, 0
2, 39000, Note_on_c, 0, 60, 103
2, 39000, Note_on_c, 0, 72, 103
2, 39037, Note_on_c, 0, 60, 0
2, 39038, Note_on_c, 0, 72, 0
2, 39060, Note_on_c, 0, 60, 103
2, 39060, Note_on_c, 0, 72, 113
2, 39091, Note_on_c, 0, 72, 0
2, 39091, Note_on_c, 0, 60, 0
2, 39120, Note_on_c, 0, 60, 103
2, 39120, Note_on_c, 0, 72, 113
2, 39157, Note_on_c, 0, 72, 0
2, 39160, Note_on_c, 0, 60, 0
2, 39180, Note_on_c, 0, 76, 103
2, 39180, Note_on_c, 0, 72, 93
2, 39203, Note_on_c, 0, 72, 0
2, 39205, Note_on_c, 0, 76, 0
2, 39240, Note_on_c, 0, 77, 103
2, 39240, Note_on_c, 0, 72, 93
2, 39267, Note_on_c, 0, 72, 0
2, 39272, Note_on_c, 0, 77, 0
2, 39300, Note_on_c, 0, 72, 93
2, 39300, Note_on_c, 0, 79, 103
2, 39323, Note_on_c, 0, 79, 0
2, 39324, Note_on_c, 0, 72, 0
2, 39360, Note_on_c, 0, 72, 103
2, 39360, Note_on_c, 0, 81, 113
2, 39430, Note_on_c, 0, 72, 0
2, 39435, Note_on_c, 0, 81, 0
2, 39450, Note_on_c, 0, 72, 93
2, 39450, Note_on_c, 0, 83, 113
2, 39464, Note_on_c, 0, 72, 0
2, 39465, Note_on_c, 0, 83, 0
2, 39480, Note_on_c, 0, 72, 113
2, 39480, Note_on_c, 0, 84, 113
2, 39513, Note_on_c, 0, 72, 0
2, 39520, Note_on_c, 0, 84, 0
2, 39540, Note_on_c, 0, 72, 103
2, 39540, Note_on_c, 0, 77, 103
2, 39562, Note_on_c, 0, 77, 0
2, 39567, Note_on_c, 0, 72, 0
2, 39600, Note_on_c, 0, 72, 113
2, 39600, Note_on_c, 0, 76, 113
2, 39680, Note_on_c, 0, 76, 0
2, 39684, Note_on_c, 0, 72, 0
2, 39720, Note_on_c, 0, 74, 113
2, 39720, Note_on_c, 0, 71, 125
2, 39720, Note_on_c, 0, 67, 113
2, 39798, Note_on_c, 0, 67, 0
2, 39798, Note_on_c, 0, 71, 0
2, 39798, Note_on_c, 0, 74, 0
2, 39840, Note_on_c, 0, 64, 113
2, 39840, Note_on_c, 0, 72, 113
2, 39872, Note_on_c, 0, 72, 0
2, 39872, Note_on_c, 0, 64, 0
2, 39900, Note_on_c, 0, 55, 45
2, 39953, Note_on_c, 0, 55, 0
2, 39960, Note_on_c, 0, 60, 43
2, 40007, Note_on_c, 0, 60, 0
2, 40020, Note_on_c, 0, 62, 43
2, 40020, Note_on_c, 0, 59, 45
2, 40074, Note_on_c, 0, 62, 0
2, 40078, Note_on_c, 0, 59, 0
2, 40080, Note_on_c, 0, 60, 39
2, 40080, Note_on_c, 0, 64, 45
2, 40243, Note_on_c, 0, 64, 0
2, 40249, Note_on_c, 0, 60, 0
2, 40260, Note_on_c, 0, 65, 59
2, 40260, Note_on_c, 0, 62, 59
2, 40274, Note_on_c, 0, 62, 0
2, 40284, Note_on_c, 0, 65, 0
2, 40290, Note_on_c, 0, 62, 45
2, 40290, Note_on_c, 0, 59, 54
2, 40301, Note_on_c, 0, 59, 0
2, 40307, Note_on_c, 0, 62, 0
2, 40320, Note_on_c, 0, 60, 64
2, 40380, Note_on_c, 0, 55, 39
2, 40381, Note_on_c, 0, 60, 0
2, 40433, Note_on_c, 0, 55, 0
2, 40440, Note_on_c, 0, 60, 50
2, 40499, Note_on_c, 0, 60, 0
2, 40500, Note_on_c, 0, 62, 45
2, 40500, Note_on_c, 0, 59, 34
2, 40547, Note_on_c, 0, 59, 0
2, 40552, Note_on_c, 0, 62, 0
2, 40560, Note_on_c, 0, 60, 45
2, 40560, Note_on_c, 0, 64, 50
2, 40719, Note_on_c, 0, 64, 0
2, 40722, Note_on_c, 0, 60, 0
2, 40740, Note_on_c, 0, 65, 50
2, 40740, Note_on_c, 0, 62, 50
2, 40752, Note_on_c, 0, 62, 0
2, 40756, Note_on_c, 0, 65, 0
2, 40770, Note_on_c, 0, 62, 59
2, 40770, Note_on_c, 0, 59, 54
2, 40777, Note_on_c, 0, 59, 0
2, 40782, Note_on_c, 0, 62, 0
2, 40800, Note_on_c, 0, 60, 59
2, 40860, Note_on_c, 0, 67, 64
2, 40867, Note_on_c, 0, 60, 0
2, 40895, Note_on_c, 0, 67, 0
2, 40920, Note_on_c, 0, 72, 77
2, 40920, Note_on_c, 0, 64, 64
2, 40920, Note_on_c, 0, 67, 70
2, 40953, Note_on_c, 0, 64, 0
2, 40955, Note_on_c, 0, 67, 0
2, 40965, Note_on_c, 0, 72, 0
2, 40980, Note_on_c, 0, 74, 77
2, 40980, Note_on_c, 0, 71, 77
2, 40980, Note_on_c, 0, 67, 77
2, 41004, Note_on_c, 0, 74, 0
2, 41006, Note_on_c, 0, 71, 0
2, 41015, Note_on_c, 0, 67, 0
2, 41040, Note_on_c, 0, 72, 77
2, 41040, Note_on_c, 0, 76, 70
2, 41070, Note_on_c, 0, 72, 0
2, 41072, Note_on_c, 0, 76, 0
2, 41100, Note_on_c, 0, 72, 125
2, 41100, Note_on_c, 0, 76, 113
2, 41130, Note_on_c, 0, 76, 0
2, 41131, Note_on_c, 0, 72, 0
2, 41160, Note_on_c, 0, 72, 113
2, 41160, Note_on_c, 0, 74, 125
2, 41187, Note_on_c, 0, 72, 0
2, 41188, Note_on_c, 0, 74, 0
2, 41220, Note_on_c, 0, 76, 113
2, 41220, Note_on_c, 0, 72, 113
2, 41243, Note_on_c, 0, 72, 0
2, 41245, Note_on_c, 0, 76, 0
2, 41280, Note_on_c, 0, 77, 113
2, 41280, Note_on_c, 0, 72, 103
2, 41353, Note_on_c, 0, 72, 0
2, 41359, Note_on_c, 0, 77, 0
2, 41370, Note_on_c, 0, 72, 103
2, 41370, Note_on_c, 0, 79, 85
2, 41385, Note_on_c, 0, 72, 0
2, 41387, Note_on_c, 0, 79, 0
2, 41400, Note_on_c, 0, 81, 113
2, 41400, Note_on_c, 0, 72, 113
2, 41433, Note_on_c, 0, 72, 0
2, 41441, Note_on_c, 0, 81, 0
2, 41460, Note_on_c, 0, 77, 113
2, 41460, Note_on_c, 0, 72, 103
2, 41487, Note_on_c, 0, 77, 0
2, 41494, Note_on_c, 0, 72, 0
2, 41520, Note_on_c, 0, 72, 113
2, 41520, Note_on_c, 0, 76, 113
2, 41608, Note_on_c, 0, 72, 0
2, 41614, Note_on_c, 0, 76, 0
2, 41640, Note_on_c, 0, 71, 103
2, 41640, Note_on_c, 0, 74, 113
2, 41640, Note_on_c, 0, 67, 113
2, 41728, Note_on_c, 0, 71, 0
2, 41730, Note_on_c, 0, 76, 85
2, 41731, Note_on_c, 0, 67, 0
2, 41735, Note_on_c, 0, 74, 0
2, 41748, Note_on_c, 0, 76, 0
2, 41760, Note_on_c, 0, 77, 113
2, 41760, Note_on_c, 0, 72, 125
2, 41798, Note_on_c, 0, 72, 0
2, 41803, Note_on_c, 0, 77, 0
2, 41820, Note_on_c, 0, 60, 103
2, 41820, Note_on_c, 0, 72, 113
2, 41835, Note_on_c, 0, 60, 0
2, 41836, Note_on_c, 0, 72, 0
2, 41850, Note_on_c, 0, 60, 93
2, 41850, Note_on_c, 0, 72, 113
2, 41865, Note_on_c, 0, 72, 0
2, 41868, Note_on_c, 0, 60, 0
2, 41880, Note_on_c, 0, 60, 113
2, 41880, Note_on_c, 0, 72, 113
2, 41914, Note_on_c, 0, 60, 0
2, 41915, Note_on_c, 0, 72, 0
2, 41940, Note_on_c, 0, 60, 103
2, 41940, Note_on_c, 0, 72, 113
2, 41972, Note_on_c, 0, 60, 0
2, 41980, Note_on_c, 0, 72, 0
2, 42000, Note_on_c, 0, 60, 113
2, 42000, Note_on_c, 0, 72, 103
2, 42035, Note_on_c, 0, 60, 0
2, 42036, Note_on_c, 0, 72, 0
2, 42060, Note_on_c, 0, 72, 113
2, 42060, Note_on_c, 0, 76, 125
2, 42078, Note_on_c, 0, 76, 0
2, 42078, Note_on_c, 0, 72, 0
2, 42120, Note_on_c, 0, 72, 113
2, 42120, Note_on_c, 0, 77, 113
2, 42142, Note_on_c, 0, 72, 0
2, 42145, Note_on_c, 0, 77, 0
2, 42180, Note_on_c, 0, 79, 103
2, 42180, Note_on_c, 0, 72, 103
2, 42196, Note_on_c, 0, 72, 0
2, 42200, Note_on_c, 0, 79, 0
2, 42240, Note_on_c, 0, 81, 113
2, 42240, Note_on_c, 0, 72, 113
2, 42311, Note_on_c, 0, 72, 0
2, 42311, Note_on_c, 0, 81, 0
2, 42330, Note_on_c, 0, 83, 113
2, 42330, Note_on_c, 0, 72, 103
2, 42342, Note_on_c, 0, 72, 0
2, 42344, Note_on_c, 0, 83, 0
2, 42360, Note_on_c, 0, 84, 113
2, 42360, Note_on_c, 0, 72, 113
2, 42381, Note_on_c, 0, 84, 0
2, 42387, Note_on_c, 0, 72, 0
2, 42420, Note_on_c, 0, 74, 113
2, 42420, Note_on_c, 0, 72, 113
2, 42420, Note_on_c, 0, 77, 113
2, 42456, Note_on_c, 0, 77, 0
2, 42456, Note_on_c, 0, 74, 0
2, 42460, Note_on_c, 0, 72, 0
2, 42480, Note_on_c, 0, 76, 113
2, 42480, Note_on_c, 0, 72, 113
2, 42563, Note_on_c, 0, 76, 0
2, 42565, Note_on_c, 0, 72, 0
2, 42600, Note_on_c, 0, 74, 113
2, 42600, Note_on_c, 0, 71, 125
2, 42600, Note_on_c, 0, 67, 125
2, 42678, Note_on_c, 0, 67, 0
2, 42681, Note_on_c, 0, 71, 0
2, 42683, Note_on_c, 0, 74, 0
2, 42720, Note_on_c, 0, 64, 125
2, 42720, Note_on_c, 0, 72, 113
2, 42757, Note_on_c, 0, 64, 0
2, 42760, Note_on_c, 0, 72, 0
2, 42840, Note_on_c, 0, 67, 125
2, 42840, Note_on_c, 0, 79, 113
2, 42840, Note_on_c, 0, 74, 113
2, 42874, Note_on_c, 0, 74, 0
2, 42876, Note_on_c, 0, 67, 0
2, 42878, Note_on_c, 0, 79, 0
2, 42960, Note_on_c, 0, 76, 113
2, 42960, Note_on_c, 0, 67, 125
2, 42960, Note_on_c, 0, 72, 113
2, 42993, Note_on_c, 0, 67, 0
2, 42998, Note_on_c, 0, 72, 0
2, 42999, Note_on_c, 0, 76, 0
2, 43080, Note_on_c, 0, 83, 125
2, 43080, Note_on_c, 0, 74, 125
2, 43080, Note_on_c, 0, 79, 113
2, 43113, Note_on_c, 0, 74, 0
2, 43115, Note_on_c, 0, 79, 0
2, 43115, Note_on_c, 0, 83, 0
2, 43200, Note_on_c, 0, 84, 113
2, 43200, Note_on_c, 0, 72, 113
2, 43200, Note_on_c, 0, 79, 113
2, 43200, Note_on_c, 0, 76, 103
2, 43235, Note_on_c, 0, 76, 0
2, 43235, Note_on_c, 0, 84, 0
2, 43237, Note_on_c, 0, 79, 0
2, 43238, Note_on_c, 0, 72, 0
2, 43320, Note_on_c, 0, 67, 113
2, 43320, Note_on_c, 0, 79, 113
2, 43320, Note_on_c, 0, 74, 125
2, 43353, Note_on_c, 0, 74, 0
2, 43356, Note_on_c, 0, 79, 0
2, 43358, Note_on_c, 0, 67, 0
2, 43440, Note_on_c, 0, 67, 113
2, 43440, Note_on_c, 0, 72, 113
2, 43440, Note_on_c, 0, 76, 113
2, 43471, Note_on_c, 0, 67, 0
2, 43475, Note_on_c, 0, 72, 0
2, 43477, Note_on_c, 0, 76, 0
2, 43560, Note_on_c, 0, 74, 125
2, 43560, Note_on_c, 0, 79, 113
2, 43560, Note_on_c, 0, 83, 125
2, 43593, Note_on_c, 0, 74, 0
2, 43596, Note_on_c, 0, 83, 0
2, 43596, Note_on_c, 0, 79, 0
2, 43680, Note_on_c, 0, 84, 113
2, 43680, Note_on_c, 0, 72, 113
2, 43680, Note_on_c, 0, 79, 113
2, 43680, Note_on_c, 0, 76, 103
2, 43782, Note_on_c, 0, 76, 0
2, 43782, Note_on_c, 0, 72, 0
2, 43783, Note_on_c, 0, 79, 0
2, 43785, Note_on_c, 0, 84, 0
2, 43785, End_track
3, 0, Start_track
3, 0, MIDI_port, 0
3, 0, Title_t, "bass accomp"
3, 0, Note_on_c, 0, 57, 49
3, 52, Note_on_c, 0, 57, 0
3, 60, Note_on_c, 0, 60, 54
3, 115, Note_on_c, 0, 60, 0
3, 119, Control_c, 0, 10, 103
3, 120, Note_on_c, 0, 57, 59
3, 120, Note_on_c, 0, 53, 32
3, 177, Note_on_c, 0, 53, 0
3, 180, Note_on_c, 0, 57, 0
3, 180, Note_on_c, 0, 60, 65
3, 240, Note_on_c, 0, 46, 54
3, 240, Note_on_c, 0, 58, 72
3, 242, Note_on_c, 0, 60, 0
3, 298, Note_on_c, 0, 46, 0
3, 299, Note_on_c, 0, 58, 0
3, 300, Note_on_c, 0, 62, 65
3, 358, Note_on_c, 0, 62, 0
3, 360, Note_on_c, 0, 48, 40
3, 360, Note_on_c, 0, 55, 59
3, 420, Note_on_c, 0, 55, 0
3, 420, Note_on_c, 0, 48, 0
3, 420, Note_on_c, 0, 58, 65
3, 454, Control_c, 0, 10, 104
3, 473, Note_on_c, 0, 58, 0
3, 480, Note_on_c, 0, 41, 65
3, 528, Note_on_c, 0, 41, 0
3, 840, Note_on_c, 0, 53, 54
3, 902, Note_on_c, 0, 53, 0
3, 960, Note_on_c, 0, 46, 49
3, 961, Control_c, 0, 10, 103
3, 1028, Note_on_c, 0, 46, 0
3, 1080, Note_on_c, 0, 48, 49
3, 1141, Note_on_c, 0, 48, 0
3, 1200, Note_on_c, 0, 41, 54
3, 1249, Note_on_c, 0, 41, 0
3, 1367, Control_c, 0, 10, 104
3, 1560, Note_on_c, 0, 57, 38
3, 1560, Note_on_c, 0, 60, 49
3, 1620, Note_on_c, 0, 60, 0
3, 1620, Note_on_c, 0, 65, 65
3, 1623, Note_on_c, 0, 57, 0
3, 1680, Note_on_c, 0, 65, 0
3, 1680, Note_on_c, 0, 57, 54
3, 1680, Note_on_c, 0, 53, 27
3, 1736, Note_on_c, 0, 57, 0
3, 1737, Note_on_c, 0, 53, 0
3, 1740, Note_on_c, 0, 60, 45
3, 1800, Note_on_c, 0, 58, 65
3, 1800, Note_on_c, 0, 55, 29
3, 1803, Note_on_c, 0, 60, 0
3, 1859, Note_on_c, 0, 55, 0
3, 1859, Note_on_c, 0, 58, 0
3, 1860, Note_on_c, 0, 64, 45
3, 1920, Note_on_c, 0, 64, 0
3, 1920, Note_on_c, 0, 52, 40
3, 1920, Note_on_c, 0, 55, 54
3, 1975, Note_on_c, 0, 52, 0
3, 1977, Note_on_c, 0, 55, 0
3, 1980, Note_on_c, 0, 58, 59
3, 2036, Note_on_c, 0, 58, 0
3, 2040, Note_on_c, 0, 48, 45
3, 2086, Note_on_c, 0, 48, 0
3, 2160, Note_on_c, 0, 53, 54
3, 2218, Note_on_c, 0, 53, 0
3, 2400, Note_on_c, 0, 58, 65
3, 2400, Note_on_c, 0, 46, 45
3, 2455, Note_on_c, 0, 46, 0
3, 2457, Control_c, 0, 10, 103
3, 2458, Note_on_c, 0, 58, 0
3, 2460, Note_on_c, 0, 55, 49
3, 2516, Note_on_c, 0, 55, 0
3, 2520, Note_on_c, 0, 48, 54
3, 2759, Note_on_c, 0, 48, 0
3, 2880, Note_on_c, 0, 57, 40
3, 2940, Note_on_c, 0, 60, 45
3, 2943, Note_on_c, 0, 57, 0
3, 2997, Note_on_c, 0, 60, 0
3, 3000, Note_on_c, 0, 53, 34
3, 3000, Note_on_c, 0, 57, 49
3, 3057, Note_on_c, 0, 57, 0
3, 3059, Note_on_c, 0, 53, 0
3, 3060, Note_on_c, 0, 60, 49
3, 3116, Note_on_c, 0, 60, 0
3, 3120, Note_on_c, 0, 46, 49
3, 3120, Note_on_c, 0, 58, 65
3, 3171, Note_on_c, 0, 46, 0
3, 3179, Note_on_c, 0, 58, 0
3, 3180, Note_on_c, 0, 62, 45
3, 3238, Note_on_c, 0, 62, 0
3, 3240, Note_on_c, 0, 55, 54
3, 3240, Note_on_c, 0, 48, 34
3, 3296, Note_on_c, 0, 55, 0
3, 3300, Note_on_c, 0, 58, 54
3, 3301, Note_on_c, 0, 48, 0
3, 3357, Note_on_c, 0, 58, 0
3, 3360, Note_on_c, 0, 41, 49
3, 3409, Note_on_c, 0, 41, 0
3, 3720, Note_on_c, 0, 53, 45
3, 3841, Note_on_c, 0, 53, 0
3, 3900, Note_on_c, 0, 46, 49
3, 3960, Note_on_c, 0, 48, 59
3, 4021, Note_on_c, 0, 46, 0
3, 4076, Note_on_c, 0, 48, 0
3, 4080, Note_on_c, 0, 41, 49
3, 4132, Note_on_c, 0, 41, 0
3, 4440, Note_on_c, 0, 57, 45
3, 4460, Control_c, 0, 10, 104
3, 4559, Note_on_c, 0, 57, 0
3, 4560, Note_on_c, 0, 53, 45
3, 4619, Note_on_c, 0, 53, 0
3, 4680, Note_on_c, 0, 55, 49
3, 4754, Note_on_c, 0, 55, 0
3, 4800, Note_on_c, 0, 52, 54
3, 4867, Note_on_c, 0, 52, 0
3, 4920, Note_on_c, 0, 53, 59
3, 4974, Note_on_c, 0, 53, 0
3, 5040, Note_on_c, 0, 46, 45
3, 5160, Note_on_c, 0, 48, 54
3, 5161, Note_on_c, 0, 46, 0
3, 5379, Note_on_c, 0, 48, 0
3, 5382, Control_c, 0, 10, 103
3, 5400, Note_on_c, 0, 41, 49
3, 5453, Note_on_c, 0, 41, 0
3, 5520, Note_on_c, 0, 53, 54
3, 5520, Note_on_c, 0, 41, 34
3, 5566, Note_on_c, 0, 41, 0
3, 5568, Note_on_c, 0, 53, 0
3, 5636, Control_c, 0, 10, 104
3, 5640, Note_on_c, 0, 41, 34
3, 5640, Note_on_c, 0, 53, 49
3, 5683, Note_on_c, 0, 53, 0
3, 5685, Note_on_c, 0, 41, 0
3, 5760, Note_on_c, 0, 40, 40
3, 5760, Note_on_c, 0, 52, 49
3, 5815, Note_on_c, 0, 52, 0
3, 5816, Note_on_c, 0, 40, 0
3, 5880, Note_on_c, 0, 52, 40
3, 5880, Note_on_c, 0, 40, 34
3, 5930, Note_on_c, 0, 40, 0
3, 5930, Note_on_c, 0, 52, 0
3, 6000, Note_on_c, 0, 52, 40
3, 6000, Note_on_c, 0, 40, 40
3, 6039, Note_on_c, 0, 52, 0
3, 6042, Note_on_c, 0, 40, 0
3, 6120, Note_on_c, 0, 38, 38
3, 6120, Note_on_c, 0, 50, 45
3, 6170, Note_on_c, 0, 50, 0
3, 6174, Note_on_c, 0, 38, 0
3, 6240, Note_on_c, 0, 50, 45
3, 6240, Note_on_c, 0, 38, 38
3, 6287, Note_on_c, 0, 50, 0
3, 6288, Note_on_c, 0, 38, 0
3, 6359, Control_c, 0, 10, 103
3, 6360, Note_on_c, 0, 38, 40
3, 6360, Note_on_c, 0, 50, 38
3, 6393, Note_on_c, 0, 50, 0
3, 6401, Note_on_c, 0, 38, 0
3, 6480, Note_on_c, 0, 43, 34
3, 6480, Note_on_c, 0, 31, 29
3, 6523, Control_c, 0, 10, 104
3, 6803, Note_on_c, 0, 31, 0
3, 6806, Note_on_c, 0, 43, 0
3, 6840, Note_on_c, 0, 44, 54
3, 6840, Note_on_c, 0, 32, 49
3, 6940, Note_on_c, 0, 44, 0
3, 6946, Note_on_c, 0, 32, 0
3, 6960, Note_on_c, 0, 44, 80
3, 6960, Note_on_c, 0, 56, 88
3, 7068, Note_on_c, 0, 56, 0
3, 7069, Note_on_c, 0, 44, 0
3, 7080, Note_on_c, 0, 56, 108
3, 7080, Note_on_c, 0, 44, 98
3, 7181, Note_on_c, 0, 44, 0
3, 7183, Note_on_c, 0, 56, 0
3, 7200, Note_on_c, 0, 57, 108
3, 7200, Note_on_c, 0, 45, 108
3, 7319, Note_on_c, 0, 45, 0
3, 7321, Note_on_c, 0, 57, 0
3, 7440, Note_on_c, 0, 46, 34
3, 7440, Note_on_c, 0, 55, 45
3, 7532, Note_on_c, 0, 46, 0
3, 7546, Note_on_c, 0, 55, 0
3, 7560, Note_on_c, 0, 45, 22
3, 7560, Note_on_c, 0, 53, 34
3, 7679, Note_on_c, 0, 45, 0
3, 7680, Note_on_c, 0, 41, 49
3, 7732, Note_on_c, 0, 53, 0
3, 7733, Note_on_c, 0, 41, 0
3, 7920, Note_on_c, 0, 62, 54
3, 7920, Note_on_c, 0, 53, 45
3, 8017, Note_on_c, 0, 53, 0
3, 8020, Note_on_c, 0, 62, 0
3, 8040, Note_on_c, 0, 55, 45
3, 8040, Note_on_c, 0, 64, 45
3, 8040, Note_on_c, 0, 60, 45
3, 8044, Control_c, 0, 10, 103
3, 8132, Note_on_c, 0, 60, 0
3, 8133, Note_on_c, 0, 55, 0
3, 8134, Note_on_c, 0, 64, 0
3, 8160, Note_on_c, 0, 62, 45
3, 8160, Note_on_c, 0, 55, 40
3, 8235, Note_on_c, 0, 55, 0
3, 8238, Note_on_c, 0, 62, 0
3, 8280, Note_on_c, 0, 48, 49
3, 8280, Note_on_c, 0, 60, 59
3, 8400, Note_on_c, 0, 48, 0
3, 8402, Note_on_c, 0, 60, 0
3, 8640, Note_on_c, 0, 57, 45
3, 8661, Control_c, 0, 10, 104
3, 8700, Note_on_c, 0, 60, 49
3, 8701, Note_on_c, 0, 57, 0
3, 8753, Note_on_c, 0, 60, 0
3, 8759, Control_c, 0, 10, 103
3, 8760, Note_on_c, 0, 53, 29
3, 8760, Note_on_c, 0, 57, 38
3, 8764, Control_c, 0, 10, 104
3, 8817, Note_on_c, 0, 57, 0
3, 8820, Note_on_c, 0, 60, 40
3, 8825, Note_on_c, 0, 53, 0
3, 8875, Note_on_c, 0, 60, 0
3, 8880, Note_on_c, 0, 58, 54
3, 8940, Note_on_c, 0, 62, 45
3, 8944, Note_on_c, 0, 58, 0
3, 8996, Note_on_c, 0, 62, 0
3, 9000, Note_on_c, 0, 48, 40
3, 9000, Note_on_c, 0, 60, 65
3, 9006, Note_on_c, 0, 60, 0
3, 9060, Note_on_c, 0, 60, 49
3, 9070, Note_on_c, 0, 60, 0
3, 9071, Control_c, 0, 10, 103
3, 9118, Note_on_c, 0, 48, 0
3, 9120, Note_on_c, 0, 60, 49
3, 9120, Note_on_c, 0, 53, 38
3, 9133, Note_on_c, 0, 60, 0
3, 9168, Note_on_c, 0, 53, 0
3, 9180, Note_on_c, 0, 57, 45
3, 9237, Note_on_c, 0, 57, 0
3, 9240, Note_on_c, 0, 60, 45
3, 9299, Note_on_c, 0, 60, 0
3, 9300, Note_on_c, 0, 64, 54
3, 9359, Note_on_c, 0, 64, 0
3, 9360, Note_on_c, 0, 65, 54
3, 9412, Note_on_c, 0, 65, 0
3, 9420, Note_on_c, 0, 60, 34
3, 9474, Note_on_c, 0, 60, 0
3, 9480, Note_on_c, 0, 53, 40
3, 9480, Note_on_c, 0, 65, 59
3, 9539, Note_on_c, 0, 65, 0
3, 9540, Note_on_c, 0, 60, 49
3, 9542, Note_on_c, 0, 53, 0
3, 9599, Note_on_c, 0, 60, 0
3, 9600, Note_on_c, 0, 58, 54
3, 9600, Note_on_c, 0, 62, 54
3, 9654, Note_on_c, 0, 62, 0
3, 9660, Note_on_c, 0, 67, 59
3, 9663, Note_on_c, 0, 58, 0
3, 9716, Note_on_c, 0, 67, 0
3, 9720, Note_on_c, 0, 60, 54
3, 9720, Note_on_c, 0, 48, 40
3, 9736, Note_on_c, 0, 60, 0
3, 9754, Note_on_c, 0, 48, 0
3, 9780, Note_on_c, 0, 60, 54
3, 9801, Note_on_c, 0, 60, 0
3, 9840, Note_on_c, 0, 60, 54
3, 9840, Note_on_c, 0, 53, 45
3, 9875, Note_on_c, 0, 60, 0
3, 9877, Note_on_c, 0, 53, 0
3, 10140, Note_on_c, 0, 60, 49
3, 10193, Note_on_c, 0, 60, 0
3, 10200, Note_on_c, 0, 57, 45
3, 10200, Note_on_c, 0, 65, 54
3, 10252, Note_on_c, 0, 65, 0
3, 10256, Note_on_c, 0, 57, 0
3, 10260, Note_on_c, 0, 60, 40
3, 10316, Note_on_c, 0, 60, 0
3, 10320, Note_on_c, 0, 53, 40
3, 10369, Note_on_c, 0, 53, 0
3, 10440, Note_on_c, 0, 55, 49
3, 10482, Note_on_c, 0, 55, 0
3, 10560, Note_on_c, 0, 52, 49
3, 10607, Note_on_c, 0, 52, 0
3, 10680, Note_on_c, 0, 53, 49
3, 10731, Note_on_c, 0, 53, 0
3, 10800, Note_on_c, 0, 46, 59
3, 10854, Note_on_c, 0, 46, 0
3, 10920, Note_on_c, 0, 48, 40
3, 10975, Note_on_c, 0, 48, 0
3, 11040, Note_on_c, 0, 48, 49
3, 11095, Note_on_c, 0, 48, 0
3, 11160, Note_on_c, 0, 41, 45
3, 11280, Note_on_c, 0, 53, 65
3, 11283, Note_on_c, 0, 41, 0
3, 11383, Note_on_c, 0, 53, 0
3, 11400, Note_on_c, 0, 53, 59
3, 11516, Note_on_c, 0, 53, 0
3, 11520, Note_on_c, 0, 41, 45
3, 11640, Note_on_c, 0, 53, 80
3, 11645, Note_on_c, 0, 41, 0
3, 11744, Note_on_c, 0, 53, 0
3, 11760, Note_on_c, 0, 53, 88
3, 11853, Note_on_c, 0, 53, 0
3, 11880, Note_on_c, 0, 53, 45
3, 11880, Note_on_c, 0, 41, 38
3, 11943, Note_on_c, 0, 53, 0
3, 11944, Note_on_c, 0, 41, 0
3, 11985, Note_on_c, 0, 41, 34
3, 11985, Note_on_c, 0, 53, 49
3, 12071, Note_on_c, 0, 53, 0
3, 12076, Note_on_c, 0, 41, 0
3, 12120, Note_on_c, 0, 53, 40
3, 12120, Note_on_c, 0, 41, 34
3, 12207, Note_on_c, 0, 41, 0
3, 12207, Note_on_c, 0, 53, 0
3, 12240, Note_on_c, 0, 42, 40
3, 12240, Note_on_c, 0, 54, 54
3, 12553, Note_on_c, 0, 42, 0
3, 12575, Note_on_c, 0, 54, 0
3, 12585, Note_on_c, 0, 41, 38
3, 12600, Note_on_c, 0, 53, 49
3, 12645, Note_on_c, 0, 41, 0
3, 12653, Note_on_c, 0, 53, 0
3, 12720, Note_on_c, 0, 41, 38
3, 12720, Note_on_c, 0, 53, 40
3, 12775, Note_on_c, 0, 53, 0
3, 12778, Note_on_c, 0, 41, 0
3, 12840, Note_on_c, 0, 41, 34
3, 12840, Note_on_c, 0, 53, 49
3, 12890, Note_on_c, 0, 53, 0
3, 12900, Note_on_c, 0, 41, 0
3, 12960, Note_on_c, 0, 40, 40
3, 12960, Note_on_c, 0, 52, 54
3, 13022, Note_on_c, 0, 52, 0
3, 13025, Note_on_c, 0, 40, 0
3, 13080, Note_on_c, 0, 40, 38
3, 13080, Note_on_c, 0, 52, 49
3, 13135, Note_on_c, 0, 52, 0
3, 13138, Note_on_c, 0, 40, 0
3, 13200, Note_on_c, 0, 40, 32
3, 13200, Note_on_c, 0, 52, 38
3, 13259, Note_on_c, 0, 52, 0
3, 13265, Note_on_c, 0, 40, 0
3, 13320, Note_on_c, 0, 41, 40
3, 13320, Note_on_c, 0, 53, 65
3, 13440, Note_on_c, 0, 53, 0
3, 13444, Note_on_c, 0, 41, 0
3, 13680, Note_on_c, 0, 49, 65
3, 13680, Note_on_c, 0, 37, 59
3, 13791, Note_on_c, 0, 37, 0
3, 13792, Note_on_c, 0, 49, 0
3, 13803, Control_c, 0, 10, 104
3, 14040, Note_on_c, 0, 49, 120
3, 14040, Note_on_c, 0, 37, 127
3, 14142, Note_on_c, 0, 37, 0
3, 14142, Note_on_c, 0, 49, 0
3, 14160, Note_on_c, 0, 49, 108
3, 14160, Note_on_c, 0, 37, 108
3, 14259, Note_on_c, 0, 37, 0
3, 14261, Note_on_c, 0, 49, 0
3, 14280, Note_on_c, 0, 37, 65
3, 14280, Note_on_c, 0, 49, 49
3, 14380, Note_on_c, 0, 37, 0
3, 14381, Note_on_c, 0, 49, 0
3, 14400, Note_on_c, 0, 48, 49
3, 14400, Note_on_c, 0, 36, 40
3, 14506, Note_on_c, 0, 36, 0
3, 14514, Note_on_c, 0, 48, 0
3, 14580, Note_on_c, 0, 48, 38
3, 14580, Note_on_c, 0, 60, 49
3, 14602, Note_on_c, 0, 60, 0
3, 14605, Note_on_c, 0, 48, 0
3, 14640, Note_on_c, 0, 56, 59
3, 14640, Note_on_c, 0, 44, 49
3, 14656, Note_on_c, 0, 56, 0
3, 14660, Note_on_c, 0, 44, 0
3, 14700, Note_on_c, 0, 41, 40
3, 14700, Note_on_c, 0, 53, 40
3, 14718, Note_on_c, 0, 53, 0
3, 14718, Note_on_c, 0, 41, 0
3, 14760, Note_on_c, 0, 48, 38
3, 14760, Note_on_c, 0, 36, 59
3, 14810, Note_on_c, 0, 36, 0
3, 14812, Note_on_c, 0, 48, 0
3, 14940, Note_on_c, 0, 48, 40
3, 14940, Note_on_c, 0, 60, 45
3, 14954, Note_on_c, 0, 60, 0
3, 14958, Note_on_c, 0, 48, 0
3, 15000, Note_on_c, 0, 56, 59
3, 15000, Note_on_c, 0, 44, 49
3, 15013, Note_on_c, 0, 56, 0
3, 15016, Note_on_c, 0, 44, 0
3, 15060, Note_on_c, 0, 41, 27
3, 15060, Note_on_c, 0, 53, 40
3, 15073, Note_on_c, 0, 53, 0
3, 15073, Note_on_c, 0, 41, 0
3, 15120, Note_on_c, 0, 48, 49
3, 15120, Note_on_c, 0, 36, 65
3, 15241, Note_on_c, 0, 36, 0
3, 15242, Note_on_c, 0, 48, 0
3, 15600, Note_on_c, 0, 53, 38
3, 15659, Note_on_c, 0, 53, 0
3, 15720, Note_on_c, 0, 46, 54
3, 15784, Note_on_c, 0, 46, 0
3, 15840, Note_on_c, 0, 48, 38
3, 15899, Note_on_c, 0, 48, 0
3, 15960, Note_on_c, 0, 41, 45
3, 16021, Note_on_c, 0, 41, 0
3, 16320, Note_on_c, 0, 53, 40
3, 16387, Note_on_c, 0, 53, 0
3, 16440, Note_on_c, 0, 46, 54
3, 16509, Note_on_c, 0, 46, 0
3, 16560, Note_on_c, 0, 48, 40
3, 16628, Note_on_c, 0, 48, 0
3, 16680, Note_on_c, 0, 41, 45
3, 16739, Note_on_c, 0, 41, 0
3, 17040, Note_on_c, 0, 60, 49
3, 17040, Note_on_c, 0, 57, 45
3, 17099, Note_on_c, 0, 57, 0
3, 17104, Note_on_c, 0, 60, 0
3, 17160, Note_on_c, 0, 65, 54
3, 17160, Note_on_c, 0, 53, 25
3, 17220, Note_on_c, 0, 65, 0
3, 17222, Note_on_c, 0, 53, 0
3, 17280, Note_on_c, 0, 58, 54
3, 17280, Note_on_c, 0, 55, 34
3, 17342, Note_on_c, 0, 58, 0
3, 17343, Note_on_c, 0, 55, 0
3, 17400, Note_on_c, 0, 48, 54
3, 17493, Note_on_c, 0, 48, 0
3, 17640, Note_on_c, 0, 60, 59
3, 17760, Note_on_c, 0, 57, 49
3, 17823, Note_on_c, 0, 57, 0
3, 17880, Note_on_c, 0, 53, 49
3, 17939, Note_on_c, 0, 53, 0
3, 18000, Note_on_c, 0, 55, 49
3, 18063, Note_on_c, 0, 55, 0
3, 18120, Note_on_c, 0, 52, 45
3, 18186, Note_on_c, 0, 52, 0
3, 18195, Note_on_c, 0, 60, 0
3, 18238, Note_on_c, 0, 53, 49
3, 18238, Note_on_c, 0, 57, 59
3, 18287, Note_on_c, 0, 57, 0
3, 18287, Note_on_c, 0, 53, 0
3, 18360, Note_on_c, 0, 46, 59
3, 18480, Note_on_c, 0, 48, 49
3, 18485, Note_on_c, 0, 46, 0
3, 18692, Note_on_c, 0, 48, 0
3, 18720, Note_on_c, 0, 38, 120
3, 18720, Note_on_c, 0, 50, 120
3, 18752, Note_on_c, 0, 50, 0
3, 18752, Note_on_c, 0, 38, 0
3, 18780, Note_on_c, 0, 38, 54
3, 18780, Note_on_c, 0, 50, 45
3, 18804, Note_on_c, 0, 50, 0
3, 18806, Note_on_c, 0, 38, 0
3, 18840, Note_on_c, 0, 38, 38
3, 18840, Note_on_c, 0, 50, 40
3, 18867, Note_on_c, 0, 50, 0
3, 18867, Note_on_c, 0, 38, 0
3, 18900, Note_on_c, 0, 38, 45
3, 18900, Note_on_c, 0, 50, 40
3, 18924, Note_on_c, 0, 38, 0
3, 18928, Note_on_c, 0, 50, 0
3, 18960, Note_on_c, 0, 50, 45
3, 18960, Note_on_c, 0, 38, 40
3, 18984, Note_on_c, 0, 50, 0
3, 18985, Note_on_c, 0, 38, 0
3, 19020, Note_on_c, 0, 50, 59
3, 19020, Note_on_c, 0, 38, 45
3, 19035, Note_on_c, 0, 38, 0
3, 19041, Note_on_c, 0, 50, 0
3, 19140, Note_on_c, 0, 43, 120
3, 19140, Note_on_c, 0, 55, 120
3, 19167, Note_on_c, 0, 55, 0
3, 19171, Note_on_c, 0, 43, 0
3, 19200, Note_on_c, 0, 43, 59
3, 19200, Note_on_c, 0, 31, 54
3, 19222, Note_on_c, 0, 31, 0
3, 19227, Note_on_c, 0, 43, 0
3, 19260, Note_on_c, 0, 43, 59
3, 19260, Note_on_c, 0, 31, 49
3, 19281, Note_on_c, 0, 31, 0
3, 19282, Note_on_c, 0, 43, 0
3, 19320, Note_on_c, 0, 31, 54
3, 19320, Note_on_c, 0, 43, 54
3, 19340, Note_on_c, 0, 31, 0
3, 19345, Note_on_c, 0, 43, 0
3, 19380, Note_on_c, 0, 43, 65
3, 19380, Note_on_c, 0, 31, 59
3, 19398, Note_on_c, 0, 31, 0
3, 19398, Note_on_c, 0, 43, 0
3, 19500, Note_on_c, 0, 43, 120
3, 19500, Note_on_c, 0, 55, 120
3, 19531, Note_on_c, 0, 55, 0
3, 19531, Note_on_c, 0, 43, 0
3, 19560, Note_on_c, 0, 43, 45
3, 19560, Note_on_c, 0, 31, 45
3, 19578, Note_on_c, 0, 31, 0
3, 19587, Note_on_c, 0, 43, 0
3, 19620, Note_on_c, 0, 43, 49
3, 19620, Note_on_c, 0, 31, 49
3, 19644, Note_on_c, 0, 31, 0
3, 19649, Note_on_c, 0, 43, 0
3, 19680, Note_on_c, 0, 43, 49
3, 19680, Note_on_c, 0, 31, 49
3, 19702, Note_on_c, 0, 31, 0
3, 19705, Note_on_c, 0, 43, 0
3, 19740, Note_on_c, 0, 43, 54
3, 19740, Note_on_c, 0, 31, 49
3, 19754, Note_on_c, 0, 31, 0
3, 19760, Note_on_c, 0, 43, 0
3, 19860, Note_on_c, 0, 43, 120
3, 19860, Note_on_c, 0, 55, 120
3, 19896, Note_on_c, 0, 43, 0
3, 19897, Note_on_c, 0, 55, 0
3, 19920, Note_on_c, 0, 43, 108
3, 19920, Note_on_c, 0, 31, 80
3, 20054, Note_on_c, 0, 31, 0
3, 20056, Note_on_c, 0, 43, 0
3, 20160, Note_on_c, 0, 48, 45
3, 20227, Note_on_c, 0, 48, 0
3, 20280, Note_on_c, 0, 55, 54
3, 20330, Note_on_c, 0, 55, 0
3, 20400, Note_on_c, 0, 48, 59
3, 20430, Note_on_c, 0, 48, 0
3, 20430, Note_on_c, 0, 60, 45
3, 20460, Note_on_c, 0, 67, 49
3, 20460, Note_on_c, 0, 64, 49
3, 20461, Note_on_c, 0, 60, 0
3, 20486, Note_on_c, 0, 67, 0
3, 20487, Note_on_c, 0, 64, 0
3, 20490, Note_on_c, 0, 60, 38
3, 20518, Note_on_c, 0, 60, 0
3, 20520, Note_on_c, 0, 67, 40
3, 20520, Note_on_c, 0, 64, 32
3, 20548, Note_on_c, 0, 64, 0
3, 20548, Note_on_c, 0, 67, 0
3, 20550, Note_on_c, 0, 60, 45
3, 20578, Note_on_c, 0, 60, 0
3, 20580, Note_on_c, 0, 65, 49
3, 20580, Note_on_c, 0, 62, 38
3, 20603, Note_on_c, 0, 62, 0
3, 20606, Note_on_c, 0, 65, 0
3, 20610, Note_on_c, 0, 59, 59
3, 20632, Note_on_c, 0, 59, 0
3, 20640, Note_on_c, 0, 60, 49
3, 20680, Note_on_c, 0, 60, 0
3, 20790, Note_on_c, 0, 55, 54
3, 20819, Note_on_c, 0, 55, 0
3, 20820, Note_on_c, 0, 62, 59
3, 20820, Note_on_c, 0, 59, 38
3, 20840, Note_on_c, 0, 59, 0
3, 20841, Note_on_c, 0, 62, 0
3, 20850, Note_on_c, 0, 65, 59
3, 20875, Note_on_c, 0, 65, 0
3, 20880, Note_on_c, 0, 48, 45
3, 20936, Note_on_c, 0, 48, 0
3, 20940, Note_on_c, 0, 55, 54
3, 20977, Note_on_c, 0, 55, 0
3, 21000, Note_on_c, 0, 52, 49
3, 21000, Note_on_c, 0, 60, 49
3, 21039, Note_on_c, 0, 52, 0
3, 21050, Note_on_c, 0, 60, 0
3, 21060, Note_on_c, 0, 62, 59
3, 21060, Note_on_c, 0, 55, 49
3, 21111, Note_on_c, 0, 55, 0
3, 21112, Note_on_c, 0, 62, 0
3, 21120, Note_on_c, 0, 60, 54
3, 21180, Note_on_c, 0, 60, 0
3, 21240, Note_on_c, 0, 59, 45
3, 21304, Note_on_c, 0, 59, 0
3, 21360, Note_on_c, 0, 57, 45
3, 21426, Note_on_c, 0, 57, 0
3, 21480, Note_on_c, 0, 50, 54
3, 21543, Note_on_c, 0, 50, 0
3, 21600, Note_on_c, 0, 52, 38
3, 21672, Note_on_c, 0, 52, 0
3, 21720, Note_on_c, 0, 52, 59
3, 21792, Note_on_c, 0, 52, 0
3, 21840, Note_on_c, 0, 57, 45
3, 21870, Note_on_c, 0, 60, 40
3, 21871, Note_on_c, 0, 57, 0
3, 21899, Note_on_c, 0, 60, 0
3, 21900, Note_on_c, 0, 64, 49
3, 21930, Note_on_c, 0, 64, 0
3, 21930, Note_on_c, 0, 60, 49
3, 21955, Note_on_c, 0, 60, 0
3, 21960, Note_on_c, 0, 55, 54
3, 21990, Note_on_c, 0, 64, 45
3, 21994, Note_on_c, 0, 55, 0
3, 22014, Note_on_c, 0, 64, 0
3, 22020, Note_on_c, 0, 69, 59
3, 22049, Note_on_c, 0, 69, 0
3, 22050, Note_on_c, 0, 64, 49
3, 22080, Note_on_c, 0, 54, 65
3, 22082, Note_on_c, 0, 64, 0
3, 22134, Note_on_c, 0, 54, 0
3, 22200, Note_on_c, 0, 48, 49
3, 22264, Note_on_c, 0, 48, 0
3, 22320, Note_on_c, 0, 47, 45
3, 22383, Note_on_c, 0, 47, 0
3, 22440, Note_on_c, 0, 48, 49
3, 22508, Note_on_c, 0, 48, 0
3, 22560, Note_on_c, 0, 50, 59
3, 22630, Note_on_c, 0, 50, 0
3, 22680, Note_on_c, 0, 50, 25
3, 22768, Note_on_c, 0, 50, 0
3, 22800, Note_on_c, 0, 43, 40
3, 22830, Note_on_c, 0, 59, 40
3, 22841, Note_on_c, 0, 43, 0
3, 22852, Note_on_c, 0, 59, 0
3, 22860, Note_on_c, 0, 62, 53
3, 22880, Note_on_c, 0, 62, 0
3, 22890, Note_on_c, 0, 59, 45
3, 22916, Note_on_c, 0, 59, 0
3, 22920, Note_on_c, 0, 55, 32
3, 22950, Note_on_c, 0, 55, 0
3, 22950, Note_on_c, 0, 59, 38
3, 22976, Note_on_c, 0, 59, 0
3, 22980, Note_on_c, 0, 62, 38
3, 23005, Note_on_c, 0, 62, 0
3, 23010, Note_on_c, 0, 59, 40
3, 23040, Note_on_c, 0, 55, 38
3, 23042, Note_on_c, 0, 59, 0
3, 23068, Note_on_c, 0, 55, 0
3, 23070, Note_on_c, 0, 61, 72
3, 23100, Note_on_c, 0, 61, 0
3, 23160, Note_on_c, 0, 53, 54
3, 23219, Note_on_c, 0, 53, 0
3, 23280, Note_on_c, 0, 53, 49
3, 23343, Note_on_c, 0, 53, 0
3, 23400, Note_on_c, 0, 52, 54
3, 23464, Note_on_c, 0, 52, 0
3, 23520, Note_on_c, 0, 47, 49
3, 23584, Note_on_c, 0, 47, 0
3, 23640, Note_on_c, 0, 47, 45
3, 23693, Note_on_c, 0, 47, 0
3, 23700, Note_on_c, 0, 48, 34
3, 23730, Note_on_c, 0, 48, 0
3, 23760, Note_on_c, 0, 55, 59
3, 23790, Note_on_c, 0, 59, 38
3, 23792, Note_on_c, 0, 55, 0
3, 23818, Note_on_c, 0, 59, 0
3, 23820, Note_on_c, 0, 62, 54
3, 23849, Note_on_c, 0, 62, 0
3, 23850, Note_on_c, 0, 59, 40
3, 23876, Note_on_c, 0, 59, 0
3, 23880, Note_on_c, 0, 55, 40
3, 23908, Note_on_c, 0, 55, 0
3, 23910, Note_on_c, 0, 62, 65
3, 23937, Note_on_c, 0, 62, 0
3, 23940, Note_on_c, 0, 65, 59
3, 23966, Note_on_c, 0, 65, 0
3, 23970, Note_on_c, 0, 62, 45
3, 24000, Note_on_c, 0, 62, 0
3, 24000, Note_on_c, 0, 60, 60
3, 24029, Note_on_c, 0, 60, 0
3, 24030, Note_on_c, 0, 63, 54
3, 24055, Note_on_c, 0, 63, 0
3, 24120, Note_on_c, 0, 55, 49
3, 24184, Note_on_c, 0, 55, 0
3, 24240, Note_on_c, 0, 48, 54
3, 24328, Note_on_c, 0, 48, 0
3, 24480, Note_on_c, 0, 48, 49
3, 24537, Note_on_c, 0, 48, 0
3, 24600, Note_on_c, 0, 55, 54
3, 24650, Note_on_c, 0, 55, 0
3, 24720, Note_on_c, 0, 48, 45
3, 24771, Note_on_c, 0, 48, 0
3, 24780, Note_on_c, 0, 55, 65
3, 24829, Note_on_c, 0, 55, 0
3, 24840, Note_on_c, 0, 60, 54
3, 24840, Note_on_c, 0, 52, 32
3, 24893, Note_on_c, 0, 60, 0
3, 24896, Note_on_c, 0, 52, 0
3, 24900, Note_on_c, 0, 55, 40
3, 24941, Note_on_c, 0, 55, 0
3, 24960, Note_on_c, 0, 60, 49
3, 25020, Note_on_c, 0, 60, 0
3, 25080, Note_on_c, 0, 59, 45
3, 25147, Note_on_c, 0, 59, 0
3, 25200, Note_on_c, 0, 57, 54
3, 25263, Note_on_c, 0, 57, 0
3, 25320, Note_on_c, 0, 53, 45
3, 25400, Note_on_c, 0, 53, 0
3, 25440, Note_on_c, 0, 55, 54
3, 25501, Note_on_c, 0, 55, 0
3, 25560, Note_on_c, 0, 56, 65
3, 25631, Note_on_c, 0, 56, 0
3, 25680, Note_on_c, 0, 57, 54
3, 25710, Note_on_c, 0, 57, 0
3, 25710, Note_on_c, 0, 60, 45
3, 25738, Note_on_c, 0, 60, 0
3, 25740, Note_on_c, 0, 64, 54
3, 25770, Note_on_c, 0, 60, 32
3, 25771, Note_on_c, 0, 64, 0
3, 25797, Note_on_c, 0, 60, 0
3, 25800, Note_on_c, 0, 58, 54
3, 25830, Note_on_c, 0, 64, 65
3, 25832, Note_on_c, 0, 58, 0
3, 25857, Note_on_c, 0, 64, 0
3, 25860, Note_on_c, 0, 67, 65
3, 25884, Note_on_c, 0, 67, 0
3, 25890, Note_on_c, 0, 64, 45
3, 25918, Note_on_c, 0, 64, 0
3, 25920, Note_on_c, 0, 57, 54
3, 25950, Note_on_c, 0, 60, 65
3, 25960, Note_on_c, 0, 57, 0
3, 25979, Note_on_c, 0, 60, 0
3, 25980, Note_on_c, 0, 69, 80
3, 26010, Note_on_c, 0, 60, 59
3, 26013, Note_on_c, 0, 69, 0
3, 26038, Note_on_c, 0, 60, 0
3, 26040, Note_on_c, 0, 55, 72
3, 26070, Note_on_c, 0, 60, 72
3, 26096, Note_on_c, 0, 55, 0
3, 26098, Note_on_c, 0, 60, 0
3, 26100, Note_on_c, 0, 64, 80
3, 26130, Note_on_c, 0, 64, 0
3, 26130, Note_on_c, 0, 60, 49
3, 26160, Note_on_c, 0, 53, 72
3, 26164, Note_on_c, 0, 60, 0
3, 26186, Note_on_c, 0, 53, 0
3, 26190, Note_on_c, 0, 65, 80
3, 26220, Note_on_c, 0, 67, 80
3, 26226, Note_on_c, 0, 65, 0
3, 26249, Note_on_c, 0, 67, 0
3, 26250, Note_on_c, 0, 69, 80
3, 26265, Note_on_c, 0, 69, 0
3, 26280, Note_on_c, 0, 53, 80
3, 26310, Note_on_c, 0, 62, 72
3, 26311, Note_on_c, 0, 53, 0
3, 26340, Note_on_c, 0, 64, 80
3, 26342, Note_on_c, 0, 62, 0
3, 26370, Note_on_c, 0, 65, 72
3, 26371, Note_on_c, 0, 64, 0
3, 26400, Note_on_c, 0, 55, 98
3, 26402, Note_on_c, 0, 65, 0
3, 26428, Note_on_c, 0, 55, 0
3, 26430, Note_on_c, 0, 60, 88
3, 26460, Note_on_c, 0, 64, 98
3, 26465, Note_on_c, 0, 60, 0
3, 26490, Note_on_c, 0, 60, 80
3, 26492, Note_on_c, 0, 64, 0
3, 26520, Note_on_c, 0, 60, 0
3, 26520, Note_on_c, 0, 55, 88
3, 26550, Note_on_c, 0, 62, 98
3, 26552, Note_on_c, 0, 55, 0
3, 26578, Note_on_c, 0, 62, 0
3, 26580, Note_on_c, 0, 65, 108
3, 26610, Note_on_c, 0, 62, 80
3, 26613, Note_on_c, 0, 65, 0
3, 26636, Note_on_c, 0, 62, 0
3, 26640, Note_on_c, 0, 60, 98
3, 26664, Note_on_c, 0, 60, 0
3, 26700, Note_on_c, 0, 36, 108
3, 26700, Note_on_c, 0, 48, 108
3, 26725, Note_on_c, 0, 48, 0
3, 26725, Note_on_c, 0, 36, 0
3, 26745, Note_on_c, 0, 36, 88
3, 26745, Note_on_c, 0, 48, 88
3, 26757, Note_on_c, 0, 48, 0
3, 26757, Note_on_c, 0, 36, 0
3, 26760, Note_on_c, 0, 40, 108
3, 26760, Note_on_c, 0, 52, 108
3, 26775, Note_on_c, 0, 52, 0
3, 26785, Note_on_c, 0, 40, 0
3, 26805, Note_on_c, 0, 52, 98
3, 26805, Note_on_c, 0, 40, 98
3, 26817, Note_on_c, 0, 40, 0
3, 26817, Note_on_c, 0, 52, 0
3, 26820, Note_on_c, 0, 43, 108
3, 26820, Note_on_c, 0, 55, 120
3, 26832, Note_on_c, 0, 55, 0
3, 26842, Note_on_c, 0, 43, 0
3, 26865, Note_on_c, 0, 43, 65
3, 26865, Note_on_c, 0, 55, 59
3, 26875, Note_on_c, 0, 43, 0
3, 26878, Note_on_c, 0, 55, 0
3, 26880, Note_on_c, 0, 48, 108
3, 26880, Note_on_c, 0, 60, 98
3, 26995, Note_on_c, 0, 60, 0
3, 26995, Note_on_c, 0, 48, 0
3, 27000, Note_on_c, 0, 43, 108
3, 27000, Note_on_c, 0, 55, 120
3, 27113, Note_on_c, 0, 43, 0
3, 27114, Note_on_c, 0, 55, 0
3, 27120, Note_on_c, 0, 36, 120
3, 27120, Note_on_c, 0, 48, 108
3, 27237, Note_on_c, 0, 48, 0
3, 27240, Note_on_c, 0, 43, 108
3, 27240, Note_on_c, 0, 55, 108
3, 27241, Note_on_c, 0, 36, 0
3, 27360, Note_on_c, 0, 55, 0
3, 27360, Note_on_c, 0, 48, 108
3, 27360, Note_on_c, 0, 60, 108
3, 27361, Note_on_c, 0, 43, 0
3, 27475, Note_on_c, 0, 48, 0
3, 27478, Note_on_c, 0, 60, 0
3, 27480, Note_on_c, 0, 43, 108
3, 27480, Note_on_c, 0, 55, 108
3, 27599, Note_on_c, 0, 43, 0
3, 27600, Note_on_c, 0, 36, 108
3, 27600, Note_on_c, 0, 48, 108
3, 27601, Note_on_c, 0, 55, 0
3, 27643, Note_on_c, 0, 36, 0
3, 27660, Note_on_c, 0, 52, 98
3, 27661, Note_on_c, 0, 48, 0
3, 27690, Note_on_c, 0, 55, 80
3, 27692, Note_on_c, 0, 52, 0
3, 27719, Note_on_c, 0, 55, 0
3, 27720, Note_on_c, 0, 48, 108
3, 27720, Note_on_c, 0, 60, 98
3, 27772, Note_on_c, 0, 48, 0
3, 27780, Note_on_c, 0, 45, 98
3, 27780, Note_on_c, 0, 57, 108
3, 27784, Note_on_c, 0, 60, 0
3, 27833, Note_on_c, 0, 45, 0
3, 27834, Note_on_c, 0, 57, 0
3, 27840, Note_on_c, 0, 47, 120
3, 27840, Note_on_c, 0, 59, 98
3, 27897, Note_on_c, 0, 47, 0
3, 27900, Note_on_c, 0, 43, 98
3, 27900, Note_on_c, 0, 55, 108
3, 27901, Note_on_c, 0, 59, 0
3, 27959, Note_on_c, 0, 55, 0
3, 27960, Note_on_c, 0, 43, 0
3, 27960, Note_on_c, 0, 45, 108
3, 27960, Note_on_c, 0, 57, 98
3, 28020, Note_on_c, 0, 57, 0
3, 28020, Note_on_c, 0, 54, 120
3, 28020, Note_on_c, 0, 42, 120
3, 28021, Note_on_c, 0, 45, 0
3, 28076, Note_on_c, 0, 42, 0
3, 28078, Note_on_c, 0, 54, 0
3, 28080, Note_on_c, 0, 43, 108
3, 28080, Note_on_c, 0, 55, 108
3, 28140, Note_on_c, 0, 43, 0
3, 28140, Note_on_c, 0, 53, 108
3, 28140, Note_on_c, 0, 41, 98
3, 28141, Note_on_c, 0, 55, 0
3, 28198, Note_on_c, 0, 53, 0
3, 28199, Note_on_c, 0, 41, 0
3, 28200, Note_on_c, 0, 40, 98
3, 28200, Note_on_c, 0, 52, 98
3, 28259, Note_on_c, 0, 52, 0
3, 28260, Note_on_c, 0, 40, 0
3, 28260, Note_on_c, 0, 35, 98
3, 28260, Note_on_c, 0, 47, 108
3, 28315, Note_on_c, 0, 35, 0
3, 28316, Note_on_c, 0, 47, 0
3, 28320, Note_on_c, 0, 36, 108
3, 28320, Note_on_c, 0, 48, 108
3, 28350, Note_on_c, 0, 47, 88
3, 28352, Note_on_c, 0, 48, 0
3, 28354, Note_on_c, 0, 36, 0
3, 28380, Note_on_c, 0, 48, 88
3, 28385, Note_on_c, 0, 47, 0
3, 28410, Note_on_c, 0, 50, 88
3, 28413, Note_on_c, 0, 48, 0
3, 28440, Note_on_c, 0, 52, 98
3, 28444, Note_on_c, 0, 50, 0
3, 28470, Note_on_c, 0, 50, 98
3, 28471, Note_on_c, 0, 52, 0
3, 28500, Note_on_c, 0, 52, 88
3, 28501, Note_on_c, 0, 50, 0
3, 28530, Note_on_c, 0, 53, 88
3, 28535, Note_on_c, 0, 52, 0
3, 28560, Note_on_c, 0, 55, 108
3, 28562, Note_on_c, 0, 53, 0
3, 28601, Note_on_c, 0, 55, 0
3, 28620, Note_on_c, 0, 55, 88
3, 28636, Note_on_c, 0, 55, 0
3, 28650, Note_on_c, 0, 57, 98
3, 28666, Note_on_c, 0, 57, 0
3, 28680, Note_on_c, 0, 55, 88
3, 28693, Note_on_c, 0, 55, 0
3, 28710, Note_on_c, 0, 53, 98
3, 28722, Note_on_c, 0, 53, 0
3, 28740, Note_on_c, 0, 52, 98
3, 28755, Note_on_c, 0, 52, 0
3, 28770, Note_on_c, 0, 50, 88
3, 28779, Note_on_c, 0, 50, 0
3, 28800, Note_on_c, 0, 48, 80
3, 28909, Note_on_c, 0, 48, 0
3, 28920, Note_on_c, 0, 43, 98
3, 28920, Note_on_c, 0, 55, 98
3, 29019, Note_on_c, 0, 43, 0
3, 29030, Note_on_c, 0, 55, 0
3, 29040, Note_on_c, 0, 48, 108
3, 29040, Note_on_c, 0, 60, 108
3, 29159, Note_on_c, 0, 48, 0
3, 29160, Note_on_c, 0, 43, 98
3, 29160, Note_on_c, 0, 55, 98
3, 29164, Note_on_c, 0, 60, 0
3, 29274, Note_on_c, 0, 55, 0
3, 29274, Note_on_c, 0, 43, 0
3, 29280, Note_on_c, 0, 60, 98
3, 29280, Note_on_c, 0, 48, 108
3, 29400, Note_on_c, 0, 55, 98
3, 29400, Note_on_c, 0, 43, 98
3, 29401, Note_on_c, 0, 48, 0
3, 29401, Note_on_c, 0, 60, 0
3, 29518, Note_on_c, 0, 43, 0
3, 29520, Note_on_c, 0, 55, 0
3, 29520, Note_on_c, 0, 48, 108
3, 29520, Note_on_c, 0, 36, 108
3, 29579, Note_on_c, 0, 36, 0
3, 29580, Note_on_c, 0, 48, 0
3, 29580, Note_on_c, 0, 52, 88
3, 29609, Note_on_c, 0, 52, 0
3, 29610, Note_on_c, 0, 55, 88
3, 29640, Note_on_c, 0, 48, 108
3, 29640, Note_on_c, 0, 60, 98
3, 29644, Note_on_c, 0, 55, 0
3, 29697, Note_on_c, 0, 60, 0
3, 29700, Note_on_c, 0, 48, 0
3, 29700, Note_on_c, 0, 57, 108
3, 29700, Note_on_c, 0, 45, 98
3, 29759, Note_on_c, 0, 45, 0
3, 29759, Note_on_c, 0, 57, 0
3, 29760, Note_on_c, 0, 47, 120
3, 29760, Note_on_c, 0, 59, 108
3, 29818, Note_on_c, 0, 47, 0
3, 29820, Note_on_c, 0, 43, 98
3, 29820, Note_on_c, 0, 55, 108
3, 29823, Note_on_c, 0, 59, 0
3, 29876, Note_on_c, 0, 55, 0
3, 29877, Note_on_c, 0, 43, 0
3, 29880, Note_on_c, 0, 45, 108
3, 29880, Note_on_c, 0, 57, 108
3, 29938, Note_on_c, 0, 45, 0
3, 29940, Note_on_c, 0, 54, 120
3, 29940, Note_on_c, 0, 42, 108
3, 29942, Note_on_c, 0, 57, 0
3, 29998, Note_on_c, 0, 42, 0
3, 29999, Note_on_c, 0, 54, 0
3, 30000, Note_on_c, 0, 43, 108
3, 30000, Note_on_c, 0, 55, 98
3, 30058, Note_on_c, 0, 43, 0
3, 30059, Note_on_c, 0, 55, 0
3, 30060, Note_on_c, 0, 53, 98
3, 30060, Note_on_c, 0, 41, 98
3, 30117, Note_on_c, 0, 53, 0
3, 30118, Note_on_c, 0, 41, 0
3, 30120, Note_on_c, 0, 52, 98
3, 30120, Note_on_c, 0, 40, 88
3, 30178, Note_on_c, 0, 40, 0
3, 30180, Note_on_c, 0, 52, 0
3, 30180, Note_on_c, 0, 38, 98
3, 30180, Note_on_c, 0, 50, 108
3, 30239, Note_on_c, 0, 50, 0
3, 30239, Note_on_c, 0, 38, 0
3, 30240, Note_on_c, 0, 36, 108
3, 30240, Note_on_c, 0, 48, 108
3, 30300, Note_on_c, 0, 40, 88
3, 30300, Note_on_c, 0, 52, 108
3, 30301, Note_on_c, 0, 36, 0
3, 30302, Note_on_c, 0, 48, 0
3, 30360, Note_on_c, 0, 40, 0
3, 30360, Note_on_c, 0, 52, 0
3, 30360, Note_on_c, 0, 43, 88
3, 30360, Note_on_c, 0, 55, 108
3, 30410, Note_on_c, 0, 43, 0
3, 30414, Note_on_c, 0, 55, 0
3, 30420, Note_on_c, 0, 31, 108
3, 30420, Note_on_c, 0, 43, 88
3, 30479, Note_on_c, 0, 43, 0
3, 30480, Note_on_c, 0, 31, 0
3, 30480, Note_on_c, 0, 36, 98
3, 30480, Note_on_c, 0, 48, 108
3, 30511, Note_on_c, 0, 48, 0
3, 30512, Note_on_c, 0, 36, 0
3, 30540, Note_on_c, 0, 48, 108
3, 30568, Note_on_c, 0, 48, 0
3, 30600, Note_on_c, 0, 52, 98
3, 30629, Note_on_c, 0, 52, 0
3, 30660, Note_on_c, 0, 48, 98
3, 30691, Note_on_c, 0, 48, 0
3, 30720, Note_on_c, 0, 55, 59
3, 30794, Note_on_c, 0, 55, 0
3, 30960, Note_on_c, 0, 43, 59
3, 31020, Note_on_c, 0, 62, 38
3, 31020, Note_on_c, 0, 59, 34
3, 31021, Note_on_c, 0, 43, 0
3, 31060, Note_on_c, 0, 62, 0
3, 31062, Note_on_c, 0, 59, 0
3, 31080, Note_on_c, 0, 60, 38
3, 31080, Note_on_c, 0, 64, 49
3, 31116, Note_on_c, 0, 64, 0
3, 31118, Note_on_c, 0, 60, 0
3, 31140, Note_on_c, 0, 62, 49
3, 31140, Note_on_c, 0, 65, 54
3, 31178, Note_on_c, 0, 65, 0
3, 31178, Note_on_c, 0, 62, 0
3, 31200, Note_on_c, 0, 55, 59
3, 31320, Note_on_c, 0, 55, 0
3, 31440, Note_on_c, 0, 43, 54
3, 31500, Note_on_c, 0, 64, 65
3, 31500, Note_on_c, 0, 60, 40
3, 31522, Note_on_c, 0, 43, 0
3, 31535, Note_on_c, 0, 60, 0
3, 31537, Note_on_c, 0, 64, 0
3, 31560, Note_on_c, 0, 65, 54
3, 31560, Note_on_c, 0, 62, 45
3, 31583, Note_on_c, 0, 62, 0
3, 31586, Note_on_c, 0, 65, 0
3, 31620, Note_on_c, 0, 64, 49
3, 31620, Note_on_c, 0, 67, 54
3, 31661, Note_on_c, 0, 64, 0
3, 31671, Note_on_c, 0, 67, 0
3, 31680, Note_on_c, 0, 55, 72
3, 31710, Note_on_c, 0, 67, 45
3, 31720, Note_on_c, 0, 55, 0
3, 31739, Note_on_c, 0, 67, 0
3, 31740, Note_on_c, 0, 65, 49
3, 31763, Note_on_c, 0, 65, 0
3, 31770, Note_on_c, 0, 67, 38
3, 31798, Note_on_c, 0, 67, 0
3, 31800, Note_on_c, 0, 65, 49
3, 31825, Note_on_c, 0, 65, 0
3, 31830, Note_on_c, 0, 67, 32
3, 31856, Note_on_c, 0, 67, 0
3, 31860, Note_on_c, 0, 64, 49
3, 31885, Note_on_c, 0, 64, 0
3, 31890, Note_on_c, 0, 67, 40
3, 31914, Note_on_c, 0, 67, 0
3, 31920, Note_on_c, 0, 55, 54
3, 31950, Note_on_c, 0, 67, 45
3, 31954, Note_on_c, 0, 55, 0
3, 31977, Note_on_c, 0, 67, 0
3, 31980, Note_on_c, 0, 65, 54
3, 32006, Note_on_c, 0, 65, 0
3, 32010, Note_on_c, 0, 67, 38
3, 32040, Note_on_c, 0, 65, 40
3, 32041, Note_on_c, 0, 67, 0
3, 32065, Note_on_c, 0, 65, 0
3, 32070, Note_on_c, 0, 67, 38
3, 32099, Note_on_c, 0, 67, 0
3, 32100, Note_on_c, 0, 64, 32
3, 32126, Note_on_c, 0, 64, 0
3, 32130, Note_on_c, 0, 67, 45
3, 32155, Note_on_c, 0, 67, 0
3, 32160, Note_on_c, 0, 55, 59
3, 32160, Note_on_c, 0, 55, 65
3, 32178, Note_on_c, 0, 55, 0
3, 32190, Note_on_c, 0, 62, 65
3, 32193, Note_on_c, 0, 55, 0
3, 32203, Note_on_c, 0, 62, 0
3, 32220, Note_on_c, 0, 55, 45
3, 32235, Note_on_c, 0, 55, 0
3, 32250, Note_on_c, 0, 62, 38
3, 32266, Note_on_c, 0, 62, 0
3, 32280, Note_on_c, 0, 47, 54
3, 32280, Note_on_c, 0, 55, 49
3, 32293, Note_on_c, 0, 55, 0
3, 32310, Note_on_c, 0, 62, 54
3, 32311, Note_on_c, 0, 47, 0
3, 32325, Note_on_c, 0, 62, 0
3, 32340, Note_on_c, 0, 48, 45
3, 32340, Note_on_c, 0, 55, 49
3, 32356, Note_on_c, 0, 55, 0
3, 32370, Note_on_c, 0, 60, 54
3, 32371, Note_on_c, 0, 48, 0
3, 32390, Note_on_c, 0, 60, 0
3, 32400, Note_on_c, 0, 43, 54
3, 32477, Note_on_c, 0, 43, 0
3, 32520, Note_on_c, 0, 55, 120
3, 32534, Note_on_c, 0, 55, 0
3, 32550, Note_on_c, 0, 53, 108
3, 32566, Note_on_c, 0, 53, 0
3, 32580, Note_on_c, 0, 52, 98
3, 32596, Note_on_c, 0, 52, 0
3, 32610, Note_on_c, 0, 50, 98
3, 32623, Note_on_c, 0, 50, 0
3, 32640, Note_on_c, 0, 48, 108
3, 32668, Note_on_c, 0, 48, 0
3, 32670, Note_on_c, 0, 50, 108
3, 32700, Note_on_c, 0, 52, 108
3, 32703, Note_on_c, 0, 50, 0
3, 32727, Note_on_c, 0, 52, 0
3, 32730, Note_on_c, 0, 48, 98
3, 32759, Note_on_c, 0, 48, 0
3, 32760, Note_on_c, 0, 53, 108
3, 32790, Note_on_c, 0, 53, 0
3, 32790, Note_on_c, 0, 55, 98
3, 32820, Note_on_c, 0, 55, 0
3, 32820, Note_on_c, 0, 53, 108
3, 32850, Note_on_c, 0, 52, 98
3, 32854, Note_on_c, 0, 53, 0
3, 32880, Note_on_c, 0, 50, 108
3, 32881, Note_on_c, 0, 52, 0
3, 32910, Note_on_c, 0, 52, 108
3, 32912, Note_on_c, 0, 50, 0
3, 32940, Note_on_c, 0, 52, 0
3, 32940, Note_on_c, 0, 50, 108
3, 32970, Note_on_c, 0, 50, 0
3, 32970, Note_on_c, 0, 49, 108
3, 32999, Note_on_c, 0, 49, 0
3, 33000, Note_on_c, 0, 50, 108
3, 33029, Note_on_c, 0, 50, 0
3, 33030, Note_on_c, 0, 45, 98
3, 33060, Note_on_c, 0, 47, 98
3, 33066, Note_on_c, 0, 45, 0
3, 33090, Note_on_c, 0, 47, 0
3, 33090, Note_on_c, 0, 49, 108
3, 33120, Note_on_c, 0, 49, 0
3, 33120, Note_on_c, 0, 50, 108
3, 33150, Note_on_c, 0, 52, 98
3, 33154, Note_on_c, 0, 50, 0
3, 33180, Note_on_c, 0, 53, 98
3, 33181, Note_on_c, 0, 52, 0
3, 33209, Note_on_c, 0, 53, 0
3, 33210, Note_on_c, 0, 50, 98
3, 33240, Note_on_c, 0, 50, 0
3, 33240, Note_on_c, 0, 55, 120
3, 33270, Note_on_c, 0, 55, 0
3, 33270, Note_on_c, 0, 57, 98
3, 33300, Note_on_c, 0, 55, 108
3, 33301, Note_on_c, 0, 57, 0
3, 33330, Note_on_c, 0, 55, 0
3, 33330, Note_on_c, 0, 53, 98
3, 33360, Note_on_c, 0, 52, 98
3, 33363, Note_on_c, 0, 53, 0
3, 33390, Note_on_c, 0, 53, 98
3, 33392, Note_on_c, 0, 52, 0
3, 33420, Note_on_c, 0, 52, 98
3, 33424, Note_on_c, 0, 53, 0
3, 33450, Note_on_c, 0, 50, 98
3, 33453, Note_on_c, 0, 52, 0
3, 33478, Note_on_c, 0, 50, 0
3, 33480, Note_on_c, 0, 48, 80
3, 33510, Note_on_c, 0, 43, 108
3, 33511, Note_on_c, 0, 48, 0
3, 33540, Note_on_c, 0, 45, 98
3, 33543, Note_on_c, 0, 43, 0
3, 33570, Note_on_c, 0, 47, 98
3, 33571, Note_on_c, 0, 45, 0
3, 33598, Note_on_c, 0, 47, 0
3, 33600, Note_on_c, 0, 48, 98
3, 33630, Note_on_c, 0, 52, 98
3, 33634, Note_on_c, 0, 48, 0
3, 33659, Note_on_c, 0, 52, 0
3, 33660, Note_on_c, 0, 55, 98
3, 33690, Note_on_c, 0, 60, 98
3, 33691, Note_on_c, 0, 55, 0
3, 33720, Note_on_c, 0, 57, 108
3, 33723, Note_on_c, 0, 60, 0
3, 33750, Note_on_c, 0, 59, 88
3, 33752, Note_on_c, 0, 57, 0
3, 33780, Note_on_c, 0, 57, 98
3, 33789, Note_on_c, 0, 59, 0
3, 33810, Note_on_c, 0, 55, 98
3, 33811, Note_on_c, 0, 57, 0
3, 33839, Note_on_c, 0, 55, 0
3, 33840, Note_on_c, 0, 53, 98
3, 33870, Note_on_c, 0, 55, 98
3, 33873, Note_on_c, 0, 53, 0
3, 33900, Note_on_c, 0, 53, 98
3, 33903, Note_on_c, 0, 55, 0
3, 33930, Note_on_c, 0, 52, 98
3, 33931, Note_on_c, 0, 53, 0
3, 33958, Note_on_c, 0, 52, 0
3, 33960, Note_on_c, 0, 50, 98
3, 33990, Note_on_c, 0, 52, 98
3, 33991, Note_on_c, 0, 50, 0
3, 34020, Note_on_c, 0, 50, 98
3, 34028, Note_on_c, 0, 52, 0
3, 34049, Note_on_c, 0, 50, 0
3, 34050, Note_on_c, 0, 48, 98
3, 34079, Note_on_c, 0, 48, 0
3, 34080, Note_on_c, 0, 53, 108
3, 34110, Note_on_c, 0, 50, 98
3, 34112, Note_on_c, 0, 53, 0
3, 34140, Note_on_c, 0, 52, 98
3, 34147, Note_on_c, 0, 50, 0
3, 34170, Note_on_c, 0, 53, 108
3, 34172, Note_on_c, 0, 52, 0
3, 34200, Note_on_c, 0, 55, 98
3, 34201, Note_on_c, 0, 53, 0
3, 34230, Note_on_c, 0, 54, 120
3, 34231, Note_on_c, 0, 55, 0
3, 34257, Note_on_c, 0, 54, 0
3, 34260, Note_on_c, 0, 55, 108
3, 34290, Note_on_c, 0, 43, 88
3, 34296, Note_on_c, 0, 55, 0
3, 34320, Note_on_c, 0, 48, 108
3, 34321, Note_on_c, 0, 43, 0
3, 34349, Note_on_c, 0, 48, 0
3, 34380, Note_on_c, 0, 48, 120
3, 34404, Note_on_c, 0, 48, 0
3, 34440, Note_on_c, 0, 52, 120
3, 34460, Note_on_c, 0, 52, 0
3, 34500, Note_on_c, 0, 48, 88
3, 34518, Note_on_c, 0, 48, 0
3, 34560, Note_on_c, 0, 55, 49
3, 34668, Note_on_c, 0, 55, 0
3, 34800, Note_on_c, 0, 43, 40
3, 34860, Note_on_c, 0, 62, 45
3, 34860, Note_on_c, 0, 59, 40
3, 34861, Note_on_c, 0, 43, 0
3, 34878, Note_on_c, 0, 59, 0
3, 34884, Note_on_c, 0, 62, 0
3, 34920, Note_on_c, 0, 64, 38
3, 34920, Note_on_c, 0, 60, 49
3, 34944, Note_on_c, 0, 60, 0
3, 34948, Note_on_c, 0, 64, 0
3, 34980, Note_on_c, 0, 62, 54
3, 34980, Note_on_c, 0, 65, 54
3, 35004, Note_on_c, 0, 62, 0
3, 35006, Note_on_c, 0, 65, 0
3, 35040, Note_on_c, 0, 55, 72
3, 35150, Note_on_c, 0, 55, 0
3, 35280, Note_on_c, 0, 43, 40
3, 35336, Note_on_c, 0, 43, 0
3, 35340, Note_on_c, 0, 64, 38
3, 35340, Note_on_c, 0, 60, 40
3, 35362, Note_on_c, 0, 60, 0
3, 35363, Note_on_c, 0, 64, 0
3, 35400, Note_on_c, 0, 62, 40
3, 35400, Note_on_c, 0, 65, 49
3, 35422, Note_on_c, 0, 65, 0
3, 35422, Note_on_c, 0, 62, 0
3, 35460, Note_on_c, 0, 64, 65
3, 35460, Note_on_c, 0, 67, 54
3, 35494, Note_on_c, 0, 64, 0
3, 35501, Note_on_c, 0, 67, 0
3, 35520, Note_on_c, 0, 55, 65
3, 35550, Note_on_c, 0, 67, 80
3, 35567, Note_on_c, 0, 55, 0
3, 35580, Note_on_c, 0, 65, 72
3, 35582, Note_on_c, 0, 67, 0
3, 35606, Note_on_c, 0, 65, 0
3, 35610, Note_on_c, 0, 67, 45
3, 35640, Note_on_c, 0, 65, 54
3, 35641, Note_on_c, 0, 67, 0
3, 35667, Note_on_c, 0, 65, 0
3, 35670, Note_on_c, 0, 67, 40
3, 35700, Note_on_c, 0, 64, 59
3, 35702, Note_on_c, 0, 67, 0
3, 35725, Note_on_c, 0, 64, 0
3, 35730, Note_on_c, 0, 67, 40
3, 35756, Note_on_c, 0, 67, 0
3, 35760, Note_on_c, 0, 55, 72
3, 35790, Note_on_c, 0, 67, 59
3, 35794, Note_on_c, 0, 55, 0
3, 35820, Note_on_c, 0, 65, 65
3, 35821, Note_on_c, 0, 67, 0
3, 35847, Note_on_c, 0, 65, 0
3, 35850, Note_on_c, 0, 67, 45
3, 35880, Note_on_c, 0, 65, 59
3, 35883, Note_on_c, 0, 67, 0
3, 35905, Note_on_c, 0, 65, 0
3, 35910, Note_on_c, 0, 67, 40
3, 35936, Note_on_c, 0, 67, 0
3, 35940, Note_on_c, 0, 64, 49
3, 35968, Note_on_c, 0, 64, 0
3, 35970, Note_on_c, 0, 67, 49
3, 35987, Note_on_c, 0, 67, 0
3, 36000, Note_on_c, 0, 55, 59
3, 36030, Note_on_c, 0, 62, 88
3, 36036, Note_on_c, 0, 55, 0
3, 36060, Note_on_c, 0, 55, 65
3, 36061, Note_on_c, 0, 62, 0
3, 36090, Note_on_c, 0, 62, 65
3, 36094, Note_on_c, 0, 55, 0
3, 36118, Note_on_c, 0, 62, 0
3, 36120, Note_on_c, 0, 47, 80
3, 36120, Note_on_c, 0, 55, 80
3, 36149, Note_on_c, 0, 55, 0
3, 36150, Note_on_c, 0, 62, 65
3, 36151, Note_on_c, 0, 47, 0
3, 36179, Note_on_c, 0, 62, 0
3, 36180, Note_on_c, 0, 55, 98
3, 36180, Note_on_c, 0, 48, 88
3, 36209, Note_on_c, 0, 55, 0
3, 36210, Note_on_c, 0, 60, 80
3, 36212, Note_on_c, 0, 48, 0
3, 36239, Note_on_c, 0, 60, 0
3, 36240, Note_on_c, 0, 43, 108
3, 36301, Note_on_c, 0, 43, 0
3, 36360, Note_on_c, 0, 55, 120
3, 36380, Note_on_c, 0, 55, 0
3, 36390, Note_on_c, 0, 53, 120
3, 36407, Note_on_c, 0, 53, 0
3, 36420, Note_on_c, 0, 52, 108
3, 36445, Note_on_c, 0, 52, 0
3, 36450, Note_on_c, 0, 50, 108
3, 36468, Note_on_c, 0, 50, 0
3, 36480, Note_on_c, 0, 48, 120
3, 36505, Note_on_c, 0, 48, 0
3, 36510, Note_on_c, 0, 50, 98
3, 36532, Note_on_c, 0, 50, 0
3, 36540, Note_on_c, 0, 52, 108
3, 36565, Note_on_c, 0, 52, 0
3, 36570, Note_on_c, 0, 48, 98
3, 36587, Note_on_c, 0, 48, 0
3, 36600, Note_on_c, 0, 53, 120
3, 36627, Note_on_c, 0, 53, 0
3, 36630, Note_on_c, 0, 55, 108
3, 36653, Note_on_c, 0, 55, 0
3, 36660, Note_on_c, 0, 53, 108
3, 36687, Note_on_c, 0, 53, 0
3, 36690, Note_on_c, 0, 52, 108
3, 36720, Note_on_c, 0, 50, 108
3, 36721, Note_on_c, 0, 52, 0
3, 36749, Note_on_c, 0, 50, 0
3, 36750, Note_on_c, 0, 52, 98
3, 36776, Note_on_c, 0, 52, 0
3, 36780, Note_on_c, 0, 50, 108
3, 36807, Note_on_c, 0, 50, 0
3, 36810, Note_on_c, 0, 49, 108
3, 36835, Note_on_c, 0, 49, 0
3, 36840, Note_on_c, 0, 50, 108
3, 36869, Note_on_c, 0, 50, 0
3, 36870, Note_on_c, 0, 45, 108
3, 36898, Note_on_c, 0, 45, 0
3, 36900, Note_on_c, 0, 47, 98
3, 36930, Note_on_c, 0, 49, 108
3, 36932, Note_on_c, 0, 47, 0
3, 36953, Note_on_c, 0, 49, 0
3, 36960, Note_on_c, 0, 50, 120
3, 36990, Note_on_c, 0, 52, 108
3, 36993, Note_on_c, 0, 50, 0
3, 37013, Note_on_c, 0, 52, 0
3, 37020, Note_on_c, 0, 53, 108
3, 37050, Note_on_c, 0, 50, 98
3, 37051, Note_on_c, 0, 53, 0
3, 37079, Note_on_c, 0, 50, 0
3, 37080, Note_on_c, 0, 55, 108
3, 37110, Note_on_c, 0, 55, 0
3, 37110, Note_on_c, 0, 57, 108
3, 37140, Note_on_c, 0, 55, 108
3, 37141, Note_on_c, 0, 57, 0
3, 37170, Note_on_c, 0, 53, 108
3, 37172, Note_on_c, 0, 55, 0
3, 37200, Note_on_c, 0, 52, 108
3, 37201, Note_on_c, 0, 53, 0
3, 37227, Note_on_c, 0, 52, 0
3, 37230, Note_on_c, 0, 53, 108
3, 37260, Note_on_c, 0, 52, 108
3, 37261, Note_on_c, 0, 53, 0
3, 37290, Note_on_c, 0, 50, 98
3, 37295, Note_on_c, 0, 52, 0
3, 37315, Note_on_c, 0, 50, 0
3, 37320, Note_on_c, 0, 48, 98
3, 37350, Note_on_c, 0, 43, 108
3, 37351, Note_on_c, 0, 48, 0
3, 37380, Note_on_c, 0, 45, 88
3, 37384, Note_on_c, 0, 43, 0
3, 37410, Note_on_c, 0, 45, 0
3, 37410, Note_on_c, 0, 47, 98
3, 37435, Note_on_c, 0, 47, 0
3, 37440, Note_on_c, 0, 48, 88
3, 37470, Note_on_c, 0, 52, 98
3, 37474, Note_on_c, 0, 48, 0
3, 37499, Note_on_c, 0, 52, 0
3, 37500, Note_on_c, 0, 55, 98
3, 37529, Note_on_c, 0, 55, 0
3, 37530, Note_on_c, 0, 60, 98
3, 37560, Note_on_c, 0, 57, 98
3, 37569, Note_on_c, 0, 60, 0
3, 37590, Note_on_c, 0, 59, 98
3, 37593, Note_on_c, 0, 57, 0
3, 37620, Note_on_c, 0, 57, 98
3, 37629, Note_on_c, 0, 59, 0
3, 37649, Note_on_c, 0, 57, 0
3, 37650, Note_on_c, 0, 55, 98
3, 37676, Note_on_c, 0, 55, 0
3, 37680, Note_on_c, 0, 53, 108
3, 37710, Note_on_c, 0, 55, 98
3, 37714, Note_on_c, 0, 53, 0
3, 37740, Note_on_c, 0, 53, 108
3, 37746, Note_on_c, 0, 55, 0
3, 37770, Note_on_c, 0, 52, 108
3, 37771, Note_on_c, 0, 53, 0
3, 37797, Note_on_c, 0, 52, 0
3, 37800, Note_on_c, 0, 50, 108
3, 37830, Note_on_c, 0, 52, 98
3, 37831, Note_on_c, 0, 50, 0
3, 37860, Note_on_c, 0, 50, 98
3, 37868, Note_on_c, 0, 52, 0
3, 37890, Note_on_c, 0, 50, 0
3, 37890, Note_on_c, 0, 48, 98
3, 37919, Note_on_c, 0, 48, 0
3, 37920, Note_on_c, 0, 53, 108
3, 37950, Note_on_c, 0, 50, 98
3, 37954, Note_on_c, 0, 53, 0
3, 37980, Note_on_c, 0, 52, 108
3, 37985, Note_on_c, 0, 50, 0
3, 38010, Note_on_c, 0, 53, 108
3, 38014, Note_on_c, 0, 52, 0
3, 38040, Note_on_c, 0, 53, 0
3, 38040, Note_on_c, 0, 55, 98
3, 38070, Note_on_c, 0, 54, 108
3, 38072, Note_on_c, 0, 55, 0
3, 38098, Note_on_c, 0, 54, 0
3, 38100, Note_on_c, 0, 55, 98
3, 38130, Note_on_c, 0, 43, 98
3, 38136, Note_on_c, 0, 55, 0
3, 38158, Note_on_c, 0, 43, 0
3, 38160, Note_on_c, 0, 48, 98
3, 38179, Note_on_c, 0, 48, 0
3, 38220, Note_on_c, 0, 48, 120
3, 38220, Note_on_c, 0, 60, 108
3, 38247, Note_on_c, 0, 48, 0
3, 38256, Note_on_c, 0, 60, 0
3, 38280, Note_on_c, 0, 47, 120
3, 38280, Note_on_c, 0, 59, 108
3, 38310, Note_on_c, 0, 59, 0
3, 38312, Note_on_c, 0, 47, 0
3, 38340, Note_on_c, 0, 46, 120
3, 38340, Note_on_c, 0, 58, 120
3, 38367, Note_on_c, 0, 46, 0
3, 38368, Note_on_c, 0, 58, 0
3, 38400, Note_on_c, 0, 45, 120
3, 38400, Note_on_c, 0, 57, 120
3, 38479, Note_on_c, 0, 57, 0
3, 38480, Note_on_c, 0, 45, 0
3, 38490, Note_on_c, 0, 55, 120
3, 38490, Note_on_c, 0, 43, 108
3, 38510, Note_on_c, 0, 43, 0
3, 38516, Note_on_c, 0, 55, 0
3, 38520, Note_on_c, 0, 41, 98
3, 38520, Note_on_c, 0, 53, 108
3, 38566, Note_on_c, 0, 53, 0
3, 38569, Note_on_c, 0, 41, 0
3, 38580, Note_on_c, 0, 57, 120
3, 38580, Note_on_c, 0, 45, 120
3, 38618, Note_on_c, 0, 45, 0
3, 38624, Note_on_c, 0, 57, 0
3, 38640, Note_on_c, 0, 43, 108
3, 38640, Note_on_c, 0, 55, 108
3, 38750, Note_on_c, 0, 55, 0
3, 38752, Note_on_c, 0, 43, 0
3, 38760, Note_on_c, 0, 43, 120
3, 38760, Note_on_c, 0, 55, 120
3, 38836, Note_on_c, 0, 43, 0
3, 38837, Note_on_c, 0, 55, 0
3, 38850, Note_on_c, 0, 43, 88
3, 38850, Note_on_c, 0, 55, 108
3, 38872, Note_on_c, 0, 55, 0
3, 38876, Note_on_c, 0, 43, 0
3, 38880, Note_on_c, 0, 45, 108
3, 38880, Note_on_c, 0, 57, 120
3, 39003, Note_on_c, 0, 57, 0
3, 39003, Note_on_c, 0, 45, 0
3, 39180, Note_on_c, 0, 46, 120
3, 39180, Note_on_c, 0, 58, 120
3, 39207, Note_on_c, 0, 58, 0
3, 39209, Note_on_c, 0, 46, 0
3, 39240, Note_on_c, 0, 45, 120
3, 39240, Note_on_c, 0, 57, 120
3, 39264, Note_on_c, 0, 57, 0
3, 39265, Note_on_c, 0, 45, 0
3, 39300, Note_on_c, 0, 55, 120
3, 39300, Note_on_c, 0, 43, 108
3, 39325, Note_on_c, 0, 55, 0
3, 39330, Note_on_c, 0, 43, 0
3, 39360, Note_on_c, 0, 53, 108
3, 39360, Note_on_c, 0, 41, 108
3, 39526, Note_on_c, 0, 53, 0
3, 39533, Note_on_c, 0, 41, 0
3, 39540, Note_on_c, 0, 45, 120
3, 39540, Note_on_c, 0, 57, 120
3, 39595, Note_on_c, 0, 45, 0
3, 39597, Note_on_c, 0, 57, 0
3, 39600, Note_on_c, 0, 55, 120
3, 39600, Note_on_c, 0, 43, 108
3, 39710, Note_on_c, 0, 43, 0
3, 39714, Note_on_c, 0, 55, 0
3, 39720, Note_on_c, 0, 43, 108
3, 39720, Note_on_c, 0, 31, 108
3, 39835, Note_on_c, 0, 31, 0
3, 39835, Note_on_c, 0, 43, 0
3, 39840, Note_on_c, 0, 36, 108
3, 39840, Note_on_c, 0, 48, 120
3, 39957, Note_on_c, 0, 48, 0
3, 39957, Note_on_c, 0, 36, 0
3, 40080, Note_on_c, 0, 48, 54
3, 40137, Note_on_c, 0, 48, 0
3, 40200, Note_on_c, 0, 55, 49
3, 40253, Note_on_c, 0, 55, 0
3, 40320, Note_on_c, 0, 48, 34
3, 40373, Note_on_c, 0, 48, 0
3, 40560, Note_on_c, 0, 48, 40
3, 40610, Note_on_c, 0, 48, 0
3, 40680, Note_on_c, 0, 55, 54
3, 40728, Note_on_c, 0, 55, 0
3, 40800, Note_on_c, 0, 48, 45
3, 40899, Note_on_c, 0, 48, 0
3, 41100, Note_on_c, 0, 48, 120
3, 41100, Note_on_c, 0, 60, 108
3, 41135, Note_on_c, 0, 48, 0
3, 41139, Note_on_c, 0, 60, 0
3, 41160, Note_on_c, 0, 59, 108
3, 41160, Note_on_c, 0, 47, 120
3, 41199, Note_on_c, 0, 47, 0
3, 41199, Note_on_c, 0, 59, 0
3, 41220, Note_on_c, 0, 58, 120
3, 41220, Note_on_c, 0, 46, 120
3, 41256, Note_on_c, 0, 46, 0
3, 41258, Note_on_c, 0, 58, 0
3, 41280, Note_on_c, 0, 45, 120
3, 41280, Note_on_c, 0, 57, 120
3, 41367, Note_on_c, 0, 45, 0
3, 41368, Note_on_c, 0, 57, 0
3, 41370, Note_on_c, 0, 43, 108
3, 41370, Note_on_c, 0, 55, 108
3, 41396, Note_on_c, 0, 43, 0
3, 41398, Note_on_c, 0, 55, 0
3, 41400, Note_on_c, 0, 41, 80
3, 41400, Note_on_c, 0, 53, 120
3, 41452, Note_on_c, 0, 53, 0
3, 41456, Note_on_c, 0, 41, 0
3, 41460, Note_on_c, 0, 45, 120
3, 41460, Note_on_c, 0, 57, 120
3, 41511, Note_on_c, 0, 45, 0
3, 41514, Note_on_c, 0, 57, 0
3, 41520, Note_on_c, 0, 43, 108
3, 41520, Note_on_c, 0, 55, 108
3, 41627, Note_on_c, 0, 55, 0
3, 41628, Note_on_c, 0, 43, 0
3, 41640, Note_on_c, 0, 43, 108
3, 41640, Note_on_c, 0, 55, 120
3, 41717, Note_on_c, 0, 55, 0
3, 41718, Note_on_c, 0, 43, 0
3, 41730, Note_on_c, 0, 43, 98
3, 41730, Note_on_c, 0, 55, 108
3, 41756, Note_on_c, 0, 55, 0
3, 41758, Note_on_c, 0, 43, 0
3, 41760, Note_on_c, 0, 45, 120
3, 41760, Note_on_c, 0, 57, 120
3, 41883, Note_on_c, 0, 57, 0
3, 41883, Note_on_c, 0, 45, 0
3, 42060, Note_on_c, 0, 46, 127
3, 42060, Note_on_c, 0, 58, 120
3, 42089, Note_on_c, 0, 58, 0
3, 42093, Note_on_c, 0, 46, 0
3, 42120, Note_on_c, 0, 57, 120
3, 42120, Note_on_c, 0, 45, 120
3, 42148, Note_on_c, 0, 57, 0
3, 42153, Note_on_c, 0, 45, 0
3, 42180, Note_on_c, 0, 43, 108
3, 42180, Note_on_c, 0, 55, 108
3, 42205, Note_on_c, 0, 55, 0
3, 42210, Note_on_c, 0, 43, 0
3, 42240, Note_on_c, 0, 41, 108
3, 42240, Note_on_c, 0, 53, 108
3, 42325, Note_on_c, 0, 53, 0
3, 42327, Note_on_c, 0, 41, 0
3, 42330, Note_on_c, 0, 43, 98
3, 42330, Note_on_c, 0, 55, 108
3, 42360, Note_on_c, 0, 55, 0
3, 42360, Note_on_c, 0, 57, 108
3, 42360, Note_on_c, 0, 45, 108
3, 42362, Note_on_c, 0, 43, 0
3, 42420, Note_on_c, 0, 45, 0
3, 42420, Note_on_c, 0, 41, 98
3, 42420, Note_on_c, 0, 53, 108
3, 42425, Note_on_c, 0, 57, 0
3, 42470, Note_on_c, 0, 53, 0
3, 42472, Note_on_c, 0, 41, 0
3, 42480, Note_on_c, 0, 43, 120
3, 42480, Note_on_c, 0, 55, 108
3, 42589, Note_on_c, 0, 43, 0
3, 42598, Note_on_c, 0, 55, 0
3, 42600, Note_on_c, 0, 43, 120
3, 42600, Note_on_c, 0, 31, 120
3, 42713, Note_on_c, 0, 43, 0
3, 42715, Note_on_c, 0, 31, 0
3, 42720, Note_on_c, 0, 48, 98
3, 42750, Note_on_c, 0, 52, 88
3, 42755, Note_on_c, 0, 48, 0
3, 42779, Note_on_c, 0, 52, 0
3, 42780, Note_on_c, 0, 55, 88
3, 42807, Note_on_c, 0, 55, 0
3, 42810, Note_on_c, 0, 60, 108
3, 42840, Note_on_c, 0, 59, 108
3, 42841, Note_on_c, 0, 60, 0
3, 42870, Note_on_c, 0, 57, 108
3, 42872, Note_on_c, 0, 59, 0
3, 42900, Note_on_c, 0, 59, 108
3, 42905, Note_on_c, 0, 57, 0
3, 42930, Note_on_c, 0, 59, 0
3, 42930, Note_on_c, 0, 55, 108
3, 42959, Note_on_c, 0, 55, 0
3, 42960, Note_on_c, 0, 60, 108
3, 42990, Note_on_c, 0, 60, 0
3, 42990, Note_on_c, 0, 55, 98
3, 43020, Note_on_c, 0, 52, 108
3, 43025, Note_on_c, 0, 55, 0
3, 43050, Note_on_c, 0, 52, 0
3, 43050, Note_on_c, 0, 48, 108
3, 43077, Note_on_c, 0, 48, 0
3, 43080, Note_on_c, 0, 55, 108
3, 43110, Note_on_c, 0, 55, 0
3, 43110, Note_on_c, 0, 54, 120
3, 43140, Note_on_c, 0, 54, 0
3, 43140, Note_on_c, 0, 55, 108
3, 43166, Note_on_c, 0, 55, 0
3, 43170, Note_on_c, 0, 43, 120
3, 43200, Note_on_c, 0, 48, 108
3, 43202, Note_on_c, 0, 43, 0
3, 43230, Note_on_c, 0, 52, 98
3, 43233, Note_on_c, 0, 48, 0
3, 43260, Note_on_c, 0, 55, 98
3, 43262, Note_on_c, 0, 52, 0
3, 43287, Note_on_c, 0, 55, 0
3, 43290, Note_on_c, 0, 60, 98
3, 43320, Note_on_c, 0, 60, 0
3, 43320, Note_on_c, 0, 59, 108
3, 43350, Note_on_c, 0, 57, 108
3, 43351, Note_on_c, 0, 59, 0
3, 43380, Note_on_c, 0, 57, 0
3, 43380, Note_on_c, 0, 59, 98
3, 43410, Note_on_c, 0, 55, 108
3, 43412, Note_on_c, 0, 59, 0
3, 43440, Note_on_c, 0, 60, 98
3, 43441, Note_on_c, 0, 55, 0
3, 43470, Note_on_c, 0, 55, 98
3, 43472, Note_on_c, 0, 60, 0
3, 43500, Note_on_c, 0, 52, 98
3, 43502, Note_on_c, 0, 55, 0
3, 43530, Note_on_c, 0, 48, 88
3, 43531, Note_on_c, 0, 52, 0
3, 43559, Note_on_c, 0, 48, 0
3, 43560, Note_on_c, 0, 55, 108
3, 43589, Note_on_c, 0, 55, 0
3, 43590, Note_on_c, 0, 54, 120
3, 43620, Note_on_c, 0, 54, 0
3, 43620, Note_on_c, 0, 55, 98
3, 43650, Note_on_c, 0, 43, 120
3, 43652, Note_on_c, 0, 55, 0
3, 43680, Note_on_c, 0, 48, 120
3, 43685, Note_on_c, 0, 43, 0
3, 43800, Note_on_c, 0, 48, 0
3, 43800, End_track
4, 0, Start_track
4, 0, MIDI_port, 0
4, 0, Title_t, "soprano"
4, 0, Program_c, 1, 52
4, 26880, Note_on_c, 1, 76, 90
4, 27059, Note_on_c, 1, 76, 0
4, 27060, Note_on_c, 1, 77, 78
4, 27090, Note_on_c, 1, 74, 78
4, 27092, Note_on_c, 1, 77, 0
4, 27120, Note_on_c, 1, 72, 90
4, 27125, Note_on_c, 1, 74, 0
4, 27180, Note_on_c, 1, 67, 68
4, 27184, Note_on_c, 1, 72, 0
4, 27238, Note_on_c, 1, 67, 0
4, 27240, Note_on_c, 1, 72, 78
4, 27295, Note_on_c, 1, 72, 0
4, 27300, Note_on_c, 1, 74, 90
4, 27358, Note_on_c, 1, 74, 0
4, 27360, Note_on_c, 1, 76, 68
4, 27540, Note_on_c, 1, 77, 78
4, 27542, Note_on_c, 1, 76, 0
4, 27570, Note_on_c, 1, 74, 68
4, 27571, Note_on_c, 1, 77, 0
4, 27599, Note_on_c, 1, 74, 0
4, 27600, Note_on_c, 1, 72, 78
4, 27697, Note_on_c, 1, 72, 0
4, 27720, Note_on_c, 1, 76, 78
4, 27776, Note_on_c, 1, 76, 0
4, 27780, Note_on_c, 1, 77, 78
4, 27840, Note_on_c, 1, 74, 78
4, 27841, Note_on_c, 1, 77, 0
4, 27900, Note_on_c, 1, 74, 0
4, 27900, Note_on_c, 1, 76, 78
4, 27959, Note_on_c, 1, 76, 0
4, 27960, Note_on_c, 1, 72, 68
4, 28020, Note_on_c, 1, 74, 78
4, 28021, Note_on_c, 1, 72, 0
4, 28080, Note_on_c, 1, 74, 0
4, 28080, Note_on_c, 1, 71, 78
4, 28139, Note_on_c, 1, 71, 0
4, 28140, Note_on_c, 1, 69, 78
4, 28167, Note_on_c, 1, 69, 0
4, 28170, Note_on_c, 1, 67, 78
4, 28197, Note_on_c, 1, 67, 0
4, 28200, Note_on_c, 1, 72, 78
4, 28260, Note_on_c, 1, 72, 0
4, 28260, Note_on_c, 1, 77, 58
4, 28304, Note_on_c, 1, 77, 0
4, 28320, Note_on_c, 1, 77, 78
4, 28440, Note_on_c, 1, 77, 0
4, 28440, Note_on_c, 1, 76, 90
4, 28556, Note_on_c, 1, 76, 0
4, 28560, Note_on_c, 1, 74, 90
4, 28681, Note_on_c, 1, 74, 0
4, 28800, Note_on_c, 1, 76, 78
4, 28980, Note_on_c, 1, 77, 78
4, 28981, Note_on_c, 1, 76, 0
4, 29010, Note_on_c, 1, 74, 68
4, 29016, Note_on_c, 1, 77, 0
4, 29039, Note_on_c, 1, 74, 0
4, 29040, Note_on_c, 1, 72, 78
4, 29100, Note_on_c, 1, 67, 68
4, 29102, Note_on_c, 1, 72, 0
4, 29156, Note_on_c, 1, 67, 0
4, 29160, Note_on_c, 1, 72, 78
4, 29219, Note_on_c, 1, 72, 0
4, 29220, Note_on_c, 1, 74, 78
4, 29276, Note_on_c, 1, 74, 0
4, 29280, Note_on_c, 1, 76, 78
4, 29459, Note_on_c, 1, 76, 0
4, 29460, Note_on_c, 1, 77, 78
4, 29489, Note_on_c, 1, 77, 0
4, 29490, Note_on_c, 1, 74, 68
4, 29520, Note_on_c, 1, 74, 0
4, 29520, Note_on_c, 1, 72, 90
4, 29629, Note_on_c, 1, 72, 0
4, 29640, Note_on_c, 1, 76, 78
4, 29698, Note_on_c, 1, 76, 0
4, 29700, Note_on_c, 1, 77, 78
4, 29760, Note_on_c, 1, 77, 0
4, 29760, Note_on_c, 1, 74, 68
4, 29815, Note_on_c, 1, 74, 0
4, 29820, Note_on_c, 1, 76, 68
4, 29880, Note_on_c, 1, 76, 0
4, 29880, Note_on_c, 1, 72, 78
4, 29939, Note_on_c, 1, 72, 0
4, 29940, Note_on_c, 1, 74, 78
4, 29998, Note_on_c, 1, 74, 0
4, 30000, Note_on_c, 1, 67, 78
4, 30060, Note_on_c, 1, 69, 68
4, 30068, Note_on_c, 1, 67, 0
4, 30090, Note_on_c, 1, 71, 58
4, 30093, Note_on_c, 1, 69, 0
4, 30120, Note_on_c, 1, 72, 78
4, 30122, Note_on_c, 1, 71, 0
4, 30150, Note_on_c, 1, 74, 78
4, 30155, Note_on_c, 1, 72, 0
4, 30180, Note_on_c, 1, 76, 68
4, 30184, Note_on_c, 1, 74, 0
4, 30210, Note_on_c, 1, 76, 0
4, 30210, Note_on_c, 1, 77, 68
4, 30240, Note_on_c, 1, 79, 78
4, 30247, Note_on_c, 1, 77, 0
4, 30300, Note_on_c, 1, 76, 78
4, 30305, Note_on_c, 1, 79, 0
4, 30358, Note_on_c, 1, 76, 0
4, 30360, Note_on_c, 1, 74, 78
4, 30478, Note_on_c, 1, 74, 0
4, 30480, Note_on_c, 1, 72, 78
4, 30590, Note_on_c, 1, 72, 0
4, 30720, Note_on_c, 1, 74, 35
4, 30897, Note_on_c, 1, 74, 0
4, 30900, Note_on_c, 1, 76, 35
4, 30930, Note_on_c, 1, 76, 0
4, 30930, Note_on_c, 1, 72, 24
4, 30953, Note_on_c, 1, 72, 0
4, 30960, Note_on_c, 1, 77, 42
4, 31014, Note_on_c, 1, 77, 0
4, 31200, Note_on_c, 1, 76, 29
4, 31374, Note_on_c, 1, 76, 0
4, 31380, Note_on_c, 1, 77, 24
4, 31408, Note_on_c, 1, 77, 0
4, 31410, Note_on_c, 1, 74, 35
4, 31439, Note_on_c, 1, 74, 0
4, 31440, Note_on_c, 1, 79, 24
4, 31485, Note_on_c, 1, 79, 0
4, 31680, Note_on_c, 1, 71, 42
4, 31860, Note_on_c, 1, 72, 15
4, 31862, Note_on_c, 1, 71, 0
4, 31897, Note_on_c, 1, 72, 0
4, 31920, Note_on_c, 1, 71, 35
4, 32097, Note_on_c, 1, 71, 0
4, 32100, Note_on_c, 1, 72, 35
4, 32129, Note_on_c, 1, 72, 0
4, 32160, Note_on_c, 1, 77, 42
4, 32338, Note_on_c, 1, 77, 0
4, 32340, Note_on_c, 1, 76, 29
4, 32375, Note_on_c, 1, 76, 0
4, 32400, Note_on_c, 1, 76, 35
4, 32458, Note_on_c, 1, 76, 0
4, 32460, Note_on_c, 1, 74, 35
4, 32506, Note_on_c, 1, 74, 0
4, 32640, Note_on_c, 1, 76, 90
4, 32760, Note_on_c, 1, 74, 90
4, 32762, Note_on_c, 1, 76, 0
4, 32844, Note_on_c, 1, 74, 0
4, 32850, Note_on_c, 1, 76, 78
4, 32878, Note_on_c, 1, 76, 0
4, 32880, Note_on_c, 1, 77, 78
4, 33003, Note_on_c, 1, 77, 0
4, 33120, Note_on_c, 1, 77, 90
4, 33238, Note_on_c, 1, 77, 0
4, 33240, Note_on_c, 1, 76, 78
4, 33330, Note_on_c, 1, 77, 78
4, 33333, Note_on_c, 1, 76, 0
4, 33356, Note_on_c, 1, 77, 0
4, 33360, Note_on_c, 1, 79, 68
4, 33490, Note_on_c, 1, 79, 0
4, 33600, Note_on_c, 1, 79, 90
4, 33715, Note_on_c, 1, 79, 0
4, 33720, Note_on_c, 1, 77, 78
4, 33807, Note_on_c, 1, 77, 0
4, 33810, Note_on_c, 1, 76, 68
4, 33840, Note_on_c, 1, 76, 0
4, 33840, Note_on_c, 1, 74, 78
4, 33930, Note_on_c, 1, 72, 68
4, 33932, Note_on_c, 1, 74, 0
4, 33960, Note_on_c, 1, 74, 90
4, 33963, Note_on_c, 1, 72, 0
4, 34050, Note_on_c, 1, 76, 78
4, 34051, Note_on_c, 1, 74, 0
4, 34076, Note_on_c, 1, 76, 0
4, 34080, Note_on_c, 1, 77, 68
4, 34196, Note_on_c, 1, 77, 0
4, 34200, Note_on_c, 1, 74, 78
4, 34319, Note_on_c, 1, 74, 0
4, 34320, Note_on_c, 1, 72, 90
4, 34435, Note_on_c, 1, 72, 0
4, 34560, Note_on_c, 1, 74, 35
4, 34734, Note_on_c, 1, 74, 0
4, 34740, Note_on_c, 1, 76, 15
4, 34770, Note_on_c, 1, 72, 10
4, 34772, Note_on_c, 1, 76, 0
4, 34799, Note_on_c, 1, 72, 0
4, 34800, Note_on_c, 1, 77, 15
4, 34861, Note_on_c, 1, 77, 0
4, 35040, Note_on_c, 1, 76, 15
4, 35215, Note_on_c, 1, 76, 0
4, 35220, Note_on_c, 1, 77, 29
4, 35250, Note_on_c, 1, 74, 24
4, 35251, Note_on_c, 1, 77, 0
4, 35280, Note_on_c, 1, 74, 0
4, 35280, Note_on_c, 1, 79, 19
4, 35320, Note_on_c, 1, 79, 0
4, 35520, Note_on_c, 1, 74, 35
4, 35699, Note_on_c, 1, 74, 0
4, 35700, Note_on_c, 1, 76, 19
4, 35733, Note_on_c, 1, 76, 0
4, 35760, Note_on_c, 1, 74, 29
4, 35935, Note_on_c, 1, 74, 0
4, 35940, Note_on_c, 1, 76, 19
4, 35979, Note_on_c, 1, 76, 0
4, 36000, Note_on_c, 1, 77, 35
4, 36131, Note_on_c, 1, 77, 0
4, 36180, Note_on_c, 1, 76, 50
4, 36225, Note_on_c, 1, 76, 0
4, 36240, Note_on_c, 1, 76, 42
4, 36297, Note_on_c, 1, 76, 0
4, 36300, Note_on_c, 1, 74, 42
4, 36355, Note_on_c, 1, 74, 0
4, 36480, Note_on_c, 1, 76, 78
4, 36600, Note_on_c, 1, 76, 0
4, 36600, Note_on_c, 1, 74, 90
4, 36682, Note_on_c, 1, 74, 0
4, 36690, Note_on_c, 1, 76, 78
4, 36718, Note_on_c, 1, 76, 0
4, 36720, Note_on_c, 1, 77, 90
4, 36846, Note_on_c, 1, 77, 0
4, 36960, Note_on_c, 1, 77, 78
4, 37078, Note_on_c, 1, 77, 0
4, 37080, Note_on_c, 1, 76, 90
4, 37169, Note_on_c, 1, 76, 0
4, 37170, Note_on_c, 1, 77, 78
4, 37200, Note_on_c, 1, 77, 0
4, 37200, Note_on_c, 1, 79, 78
4, 37325, Note_on_c, 1, 79, 0
4, 37440, Note_on_c, 1, 79, 78
4, 37560, Note_on_c, 1, 77, 78
4, 37564, Note_on_c, 1, 79, 0
4, 37647, Note_on_c, 1, 77, 0
4, 37650, Note_on_c, 1, 76, 68
4, 37679, Note_on_c, 1, 76, 0
4, 37680, Note_on_c, 1, 74, 78
4, 37767, Note_on_c, 1, 74, 0
4, 37770, Note_on_c, 1, 72, 68
4, 37800, Note_on_c, 1, 74, 78
4, 37808, Note_on_c, 1, 72, 0
4, 37890, Note_on_c, 1, 76, 68
4, 37891, Note_on_c, 1, 74, 0
4, 37916, Note_on_c, 1, 76, 0
4, 37920, Note_on_c, 1, 77, 78
4, 38038, Note_on_c, 1, 77, 0
4, 38040, Note_on_c, 1, 74, 78
4, 38157, Note_on_c, 1, 74, 0
4, 38160, Note_on_c, 1, 72, 90
4, 38217, Note_on_c, 1, 72, 0
4, 38220, Note_on_c, 1, 76, 78
4, 38280, Note_on_c, 1, 76, 0
4, 38280, Note_on_c, 1, 74, 90
4, 38340, Note_on_c, 1, 76, 78
4, 38342, Note_on_c, 1, 74, 0
4, 38400, Note_on_c, 1, 77, 78
4, 38401, Note_on_c, 1, 76, 0
4, 38460, Note_on_c, 1, 72, 78
4, 38461, Note_on_c, 1, 77, 0
4, 38577, Note_on_c, 1, 72, 0
4, 38580, Note_on_c, 1, 77, 78
4, 38635, Note_on_c, 1, 77, 0
4, 38640, Note_on_c, 1, 76, 78
4, 38758, Note_on_c, 1, 76, 0
4, 38760, Note_on_c, 1, 74, 78
4, 38850, Note_on_c, 1, 76, 78
4, 38853, Note_on_c, 1, 74, 0
4, 38876, Note_on_c, 1, 76, 0
4, 38880, Note_on_c, 1, 77, 68
4, 39007, Note_on_c, 1, 77, 0
4, 39180, Note_on_c, 1, 72, 90
4, 39287, Note_on_c, 1, 72, 0
4, 39300, Note_on_c, 1, 72, 78
4, 39341, Note_on_c, 1, 72, 0
4, 39360, Note_on_c, 1, 72, 78
4, 39448, Note_on_c, 1, 72, 0
4, 39450, Note_on_c, 1, 71, 78
4, 39479, Note_on_c, 1, 71, 0
4, 39480, Note_on_c, 1, 72, 78
4, 39537, Note_on_c, 1, 72, 0
4, 39540, Note_on_c, 1, 77, 78
4, 39595, Note_on_c, 1, 77, 0
4, 39600, Note_on_c, 1, 76, 78
4, 39720, Note_on_c, 1, 74, 90
4, 39725, Note_on_c, 1, 76, 0
4, 39836, Note_on_c, 1, 74, 0
4, 39840, Note_on_c, 1, 72, 78
4, 39960, Note_on_c, 1, 72, 0
4, 41100, Note_on_c, 1, 76, 90
4, 41160, Note_on_c, 1, 74, 78
4, 41161, Note_on_c, 1, 76, 0
4, 41212, Note_on_c, 1, 74, 0
4, 41220, Note_on_c, 1, 76, 78
4, 41280, Note_on_c, 1, 77, 90
4, 41281, Note_on_c, 1, 76, 0
4, 41370, Note_on_c, 1, 76, 78
4, 41371, Note_on_c, 1, 77, 0
4, 41399, Note_on_c, 1, 76, 0
4, 41400, Note_on_c, 1, 77, 90
4, 41452, Note_on_c, 1, 77, 0
4, 41460, Note_on_c, 1, 77, 90
4, 41520, Note_on_c, 1, 77, 0
4, 41520, Note_on_c, 1, 76, 78
4, 41636, Note_on_c, 1, 76, 0
4, 41640, Note_on_c, 1, 74, 90
4, 41730, Note_on_c, 1, 76, 78
4, 41732, Note_on_c, 1, 74, 0
4, 41751, Note_on_c, 1, 76, 0
4, 41760, Note_on_c, 1, 77, 90
4, 41882, Note_on_c, 1, 77, 0
4, 42060, Note_on_c, 1, 72, 90
4, 42169, Note_on_c, 1, 72, 0
4, 42180, Note_on_c, 1, 72, 78
4, 42225, Note_on_c, 1, 72, 0
4, 42240, Note_on_c, 1, 72, 78
4, 42324, Note_on_c, 1, 72, 0
4, 42330, Note_on_c, 1, 71, 78
4, 42360, Note_on_c, 1, 71, 0
4, 42360, Note_on_c, 1, 72, 78
4, 42417, Note_on_c, 1, 72, 0
4, 42420, Note_on_c, 1, 77, 90
4, 42477, Note_on_c, 1, 77, 0
4, 42480, Note_on_c, 1, 76, 90
4, 42600, Note_on_c, 1, 74, 78
4, 42602, Note_on_c, 1, 76, 0
4, 42714, Note_on_c, 1, 74, 0
4, 42720, Note_on_c, 1, 72, 90
4, 42836, Note_on_c, 1, 72, 0
4, 42840, Note_on_c, 1, 74, 90
4, 42918, Note_on_c, 1, 74, 0
4, 42930, Note_on_c, 1, 74, 78
4, 42956, Note_on_c, 1, 74, 0
4, 42960, Note_on_c, 1, 76, 78
4, 43006, Note_on_c, 1, 76, 0
4, 43020, Note_on_c, 1, 76, 90
4, 43075, Note_on_c, 1, 76, 0
4, 43080, Note_on_c, 1, 79, 78
4, 43200, Note_on_c, 1, 79, 0
4, 43200, Note_on_c, 1, 76, 78
4, 43318, Note_on_c, 1, 76, 0
4, 43320, Note_on_c, 1, 74, 90
4, 43395, Note_on_c, 1, 74, 0
4, 43410, Note_on_c, 1, 74, 78
4, 43439, Note_on_c, 1, 74, 0
4, 43440, Note_on_c, 1, 76, 78
4, 43488, Note_on_c, 1, 76, 0
4, 43500, Note_on_c, 1, 76, 68
4, 43555, Note_on_c, 1, 76, 0
4, 43560, Note_on_c, 1, 79, 90
4, 43680, Note_on_c, 1, 76, 78
4, 43681, Note_on_c, 1, 79, 0
4, 43794, Note_on_c, 1, 76, 0
4, 43794, End_track
5, 0, Start_track
5, 0, MIDI_port, 0
5, 0, Title_t, "alto"
5, 27000, Note_on_c, 1, 67, 78
5, 27165, Note_on_c, 1, 67, 0
5, 27180, Note_on_c, 1, 67, 78
5, 27220, Note_on_c, 1, 67, 0
5, 27240, Note_on_c, 1, 67, 78
5, 27399, Note_on_c, 1, 67, 0
5, 27420, Note_on_c, 1, 67, 78
5, 27464, Note_on_c, 1, 67, 0
5, 27480, Note_on_c, 1, 67, 78
5, 27638, Note_on_c, 1, 67, 0
5, 27660, Note_on_c, 1, 67, 68
5, 27703, Note_on_c, 1, 67, 0
5, 27720, Note_on_c, 1, 67, 90
5, 27780, Note_on_c, 1, 65, 78
5, 27781, Note_on_c, 1, 67, 0
5, 27829, Note_on_c, 1, 65, 0
5, 27840, Note_on_c, 1, 65, 90
5, 27898, Note_on_c, 1, 65, 0
5, 27900, Note_on_c, 1, 64, 78
5, 27944, Note_on_c, 1, 64, 0
5, 27960, Note_on_c, 1, 64, 68
5, 28018, Note_on_c, 1, 64, 0
5, 28020, Note_on_c, 1, 62, 68
5, 28061, Note_on_c, 1, 62, 0
5, 28080, Note_on_c, 1, 62, 78
5, 28198, Note_on_c, 1, 62, 0
5, 28200, Note_on_c, 1, 64, 78
5, 28258, Note_on_c, 1, 64, 0
5, 28260, Note_on_c, 1, 67, 78
5, 28305, Note_on_c, 1, 67, 0
5, 28320, Note_on_c, 1, 67, 78
5, 28543, Note_on_c, 1, 67, 0
5, 28560, Note_on_c, 1, 67, 68
5, 28681, Note_on_c, 1, 67, 0
5, 28920, Note_on_c, 1, 67, 90
5, 29085, Note_on_c, 1, 67, 0
5, 29100, Note_on_c, 1, 67, 78
5, 29143, Note_on_c, 1, 67, 0
5, 29160, Note_on_c, 1, 67, 78
5, 29316, Note_on_c, 1, 67, 0
5, 29340, Note_on_c, 1, 67, 78
5, 29383, Note_on_c, 1, 67, 0
5, 29400, Note_on_c, 1, 67, 78
5, 29557, Note_on_c, 1, 67, 0
5, 29580, Note_on_c, 1, 67, 78
5, 29620, Note_on_c, 1, 67, 0
5, 29640, Note_on_c, 1, 67, 78
5, 29697, Note_on_c, 1, 67, 0
5, 29700, Note_on_c, 1, 65, 90
5, 29742, Note_on_c, 1, 65, 0
5, 29760, Note_on_c, 1, 65, 90
5, 29819, Note_on_c, 1, 65, 0
5, 29820, Note_on_c, 1, 64, 78
5, 29866, Note_on_c, 1, 64, 0
5, 29880, Note_on_c, 1, 64, 68
5, 29934, Note_on_c, 1, 64, 0
5, 29940, Note_on_c, 1, 62, 68
5, 29980, Note_on_c, 1, 62, 0
5, 30000, Note_on_c, 1, 62, 90
5, 30120, Note_on_c, 1, 62, 0
5, 30120, Note_on_c, 1, 67, 78
5, 30175, Note_on_c, 1, 67, 0
5, 30180, Note_on_c, 1, 65, 78
5, 30240, Note_on_c, 1, 65, 0
5, 30240, Note_on_c, 1, 64, 68
5, 30300, Note_on_c, 1, 67, 78
5, 30301, Note_on_c, 1, 64, 0
5, 30344, Note_on_c, 1, 67, 0
5, 30360, Note_on_c, 1, 67, 78
5, 30475, Note_on_c, 1, 67, 0
5, 30480, Note_on_c, 1, 67, 90
5, 30596, Note_on_c, 1, 67, 0
5, 30720, Note_on_c, 1, 67, 35
5, 30945, Note_on_c, 1, 67, 0
5, 30960, Note_on_c, 1, 67, 29
5, 31013, Note_on_c, 1, 67, 0
5, 31200, Note_on_c, 1, 67, 29
5, 31425, Note_on_c, 1, 67, 0
5, 31440, Note_on_c, 1, 67, 29
5, 31494, Note_on_c, 1, 67, 0
5, 31680, Note_on_c, 1, 65, 50
5, 31853, Note_on_c, 1, 65, 0
5, 31860, Note_on_c, 1, 64, 35
5, 31893, Note_on_c, 1, 64, 0
5, 31920, Note_on_c, 1, 65, 42
5, 32099, Note_on_c, 1, 65, 0
5, 32100, Note_on_c, 1, 64, 29
5, 32131, Note_on_c, 1, 64, 0
5, 32160, Note_on_c, 1, 62, 19
5, 32220, Note_on_c, 1, 62, 0
5, 32220, Note_on_c, 1, 67, 35
5, 32322, Note_on_c, 1, 67, 0
5, 32340, Note_on_c, 1, 67, 42
5, 32380, Note_on_c, 1, 67, 0
5, 32400, Note_on_c, 1, 67, 24
5, 32439, Note_on_c, 1, 67, 0
5, 32460, Note_on_c, 1, 67, 35
5, 32499, Note_on_c, 1, 67, 0
5, 32640, Note_on_c, 1, 67, 90
5, 32875, Note_on_c, 1, 67, 0
5, 32880, Note_on_c, 1, 65, 90
5, 33002, Note_on_c, 1, 65, 0
5, 33120, Note_on_c, 1, 69, 90
5, 33237, Note_on_c, 1, 69, 0
5, 33240, Note_on_c, 1, 67, 78
5, 33350, Note_on_c, 1, 67, 0
5, 33360, Note_on_c, 1, 67, 90
5, 33485, Note_on_c, 1, 67, 0
5, 33600, Note_on_c, 1, 67, 90
5, 33712, Note_on_c, 1, 67, 0
5, 33720, Note_on_c, 1, 72, 78
5, 33810, Note_on_c, 1, 71, 78
5, 33815, Note_on_c, 1, 72, 0
5, 33840, Note_on_c, 1, 69, 78
5, 33841, Note_on_c, 1, 71, 0
5, 33928, Note_on_c, 1, 69, 0
5, 33930, Note_on_c, 1, 67, 78
5, 33947, Note_on_c, 1, 67, 0
5, 33960, Note_on_c, 1, 67, 90
5, 34077, Note_on_c, 1, 67, 0
5, 34080, Note_on_c, 1, 69, 90
5, 34197, Note_on_c, 1, 69, 0
5, 34200, Note_on_c, 1, 67, 78
5, 34313, Note_on_c, 1, 67, 0
5, 34320, Note_on_c, 1, 67, 78
5, 34435, Note_on_c, 1, 67, 0
5, 34560, Note_on_c, 1, 67, 29
5, 34782, Note_on_c, 1, 67, 0
5, 34800, Note_on_c, 1, 67, 35
5, 34858, Note_on_c, 1, 67, 0
5, 35040, Note_on_c, 1, 67, 29
5, 35255, Note_on_c, 1, 67, 0
5, 35280, Note_on_c, 1, 67, 42
5, 35326, Note_on_c, 1, 67, 0
5, 35520, Note_on_c, 1, 71, 24
5, 35700, Note_on_c, 1, 72, 29
5, 35703, Note_on_c, 1, 71, 0
5, 35732, Note_on_c, 1, 72, 0
5, 35760, Note_on_c, 1, 71, 19
5, 35940, Note_on_c, 1, 71, 0
5, 35940, Note_on_c, 1, 72, 29
5, 35973, Note_on_c, 1, 72, 0
5, 36000, Note_on_c, 1, 71, 35
5, 36057, Note_on_c, 1, 71, 0
5, 36060, Note_on_c, 1, 67, 42
5, 36162, Note_on_c, 1, 67, 0
5, 36180, Note_on_c, 1, 67, 35
5, 36221, Note_on_c, 1, 67, 0
5, 36240, Note_on_c, 1, 67, 42
5, 36280, Note_on_c, 1, 67, 0
5, 36300, Note_on_c, 1, 67, 50
5, 36347, Note_on_c, 1, 67, 0
5, 36480, Note_on_c, 1, 67, 90
5, 36719, Note_on_c, 1, 67, 0
5, 36720, Note_on_c, 1, 65, 90
5, 36785, Note_on_c, 1, 65, 0
5, 36960, Note_on_c, 1, 69, 90
5, 37077, Note_on_c, 1, 69, 0
5, 37080, Note_on_c, 1, 67, 78
5, 37181, Note_on_c, 1, 67, 0
5, 37200, Note_on_c, 1, 67, 90
5, 37326, Note_on_c, 1, 67, 0
5, 37440, Note_on_c, 1, 67, 78
5, 37554, Note_on_c, 1, 67, 0
5, 37560, Note_on_c, 1, 72, 78
5, 37650, Note_on_c, 1, 72, 0
5, 37650, Note_on_c, 1, 71, 78
5, 37680, Note_on_c, 1, 71, 0
5, 37680, Note_on_c, 1, 69, 78
5, 37767, Note_on_c, 1, 69, 0
5, 37770, Note_on_c, 1, 67, 78
5, 37786, Note_on_c, 1, 67, 0
5, 37800, Note_on_c, 1, 67, 90
5, 37917, Note_on_c, 1, 67, 0
5, 37920, Note_on_c, 1, 69, 90
5, 38040, Note_on_c, 1, 69, 0
5, 38040, Note_on_c, 1, 67, 78
5, 38144, Note_on_c, 1, 67, 0
5, 38160, Note_on_c, 1, 67, 78
5, 38214, Note_on_c, 1, 67, 0
5, 38220, Note_on_c, 1, 72, 90
5, 38331, Note_on_c, 1, 72, 0
5, 38340, Note_on_c, 1, 72, 90
5, 38385, Note_on_c, 1, 72, 0
5, 38400, Note_on_c, 1, 72, 90
5, 38580, Note_on_c, 1, 72, 0
5, 38580, Note_on_c, 1, 65, 90
5, 38635, Note_on_c, 1, 65, 0
5, 38640, Note_on_c, 1, 67, 78
5, 38880, Note_on_c, 1, 65, 90
5, 38881, Note_on_c, 1, 67, 0
5, 38998, Note_on_c, 1, 65, 0
5, 39180, Note_on_c, 1, 64, 68
5, 39240, Note_on_c, 1, 65, 78
5, 39243, Note_on_c, 1, 64, 0
5, 39300, Note_on_c, 1, 67, 78
5, 39302, Note_on_c, 1, 65, 0
5, 39360, Note_on_c, 1, 69, 78
5, 39361, Note_on_c, 1, 67, 0
5, 39450, Note_on_c, 1, 67, 78
5, 39454, Note_on_c, 1, 69, 0
5, 39478, Note_on_c, 1, 67, 0
5, 39480, Note_on_c, 1, 69, 78
5, 39540, Note_on_c, 1, 65, 90
5, 39542, Note_on_c, 1, 69, 0
5, 39599, Note_on_c, 1, 65, 0
5, 39600, Note_on_c, 1, 67, 78
5, 39830, Note_on_c, 1, 67, 0
5, 39840, Note_on_c, 1, 67, 90
5, 39956, Note_on_c, 1, 67, 0
5, 41100, Note_on_c, 1, 72, 90
5, 41211, Note_on_c, 1, 72, 0
5, 41220, Note_on_c, 1, 72, 90
5, 41258, Note_on_c, 1, 72, 0
5, 41280, Note_on_c, 1, 72, 90
5, 41460, Note_on_c, 1, 65, 90
5, 41462, Note_on_c, 1, 72, 0
5, 41516, Note_on_c, 1, 65, 0
5, 41520, Note_on_c, 1, 67, 90
5, 41760, Note_on_c, 1, 65, 90
5, 41763, Note_on_c, 1, 67, 0
5, 41884, Note_on_c, 1, 65, 0
5, 42060, Note_on_c, 1, 64, 90
5, 42120, Note_on_c, 1, 65, 90
5, 42121, Note_on_c, 1, 64, 0
5, 42175, Note_on_c, 1, 65, 0
5, 42180, Note_on_c, 1, 67, 78
5, 42238, Note_on_c, 1, 67, 0
5, 42240, Note_on_c, 1, 69, 78
5, 42330, Note_on_c, 1, 67, 78
5, 42338, Note_on_c, 1, 69, 0
5, 42359, Note_on_c, 1, 67, 0
5, 42360, Note_on_c, 1, 65, 90
5, 42414, Note_on_c, 1, 65, 0
5, 42420, Note_on_c, 1, 69, 78
5, 42480, Note_on_c, 1, 69, 0
5, 42480, Note_on_c, 1, 67, 90
5, 42701, Note_on_c, 1, 67, 0
5, 42720, Note_on_c, 1, 67, 90
5, 42822, Note_on_c, 1, 67, 0
5, 42840, Note_on_c, 1, 67, 90
5, 42922, Note_on_c, 1, 67, 0
5, 42930, Note_on_c, 1, 67, 78
5, 42946, Note_on_c, 1, 67, 0
5, 42960, Note_on_c, 1, 67, 90
5, 43004, Note_on_c, 1, 67, 0
5, 43020, Note_on_c, 1, 67, 90
5, 43060, Note_on_c, 1, 67, 0
5, 43080, Note_on_c, 1, 67, 90
5, 43180, Note_on_c, 1, 67, 0
5, 43200, Note_on_c, 1, 67, 90
5, 43305, Note_on_c, 1, 67, 0
5, 43320, Note_on_c, 1, 67, 90
5, 43405, Note_on_c, 1, 67, 0
5, 43410, Note_on_c, 1, 67, 78
5, 43426, Note_on_c, 1, 67, 0
5, 43440, Note_on_c, 1, 67, 78
5, 43483, Note_on_c, 1, 67, 0
5, 43500, Note_on_c, 1, 67, 90
5, 43542, Note_on_c, 1, 67, 0
5, 43560, Note_on_c, 1, 67, 78
5, 43665, Note_on_c, 1, 67, 0
5, 43680, Note_on_c, 1, 67, 90
5, 43808, Note_on_c, 1, 67, 0
5, 43808, End_track
6, 0, Start_track
6, 0, MIDI_port, 0
6, 0, Title_t, "tenor"
6, 27120, Note_on_c, 1, 64, 68
6, 27300, Note_on_c, 1, 65, 78
6, 27308, Note_on_c, 1, 64, 0
6, 27330, Note_on_c, 1, 62, 78
6, 27336, Note_on_c, 1, 65, 0
6, 27360, Note_on_c, 1, 60, 78
6, 27361, Note_on_c, 1, 62, 0
6, 27420, Note_on_c, 1, 55, 78
6, 27422, Note_on_c, 1, 60, 0
6, 27476, Note_on_c, 1, 55, 0
6, 27480, Note_on_c, 1, 60, 78
6, 27539, Note_on_c, 1, 60, 0
6, 27540, Note_on_c, 1, 62, 78
6, 27600, Note_on_c, 1, 62, 0
6, 27600, Note_on_c, 1, 64, 78
6, 27779, Note_on_c, 1, 64, 0
6, 27780, Note_on_c, 1, 60, 68
6, 27840, Note_on_c, 1, 60, 0
6, 27840, Note_on_c, 1, 62, 78
6, 27900, Note_on_c, 1, 62, 0
6, 27900, Note_on_c, 1, 59, 78
6, 27953, Note_on_c, 1, 59, 0
6, 27960, Note_on_c, 1, 60, 78
6, 28017, Note_on_c, 1, 60, 0
6, 28020, Note_on_c, 1, 57, 78
6, 28080, Note_on_c, 1, 55, 78
6, 28087, Note_on_c, 1, 57, 0
6, 28140, Note_on_c, 1, 57, 78
6, 28141, Note_on_c, 1, 55, 0
6, 28170, Note_on_c, 1, 59, 68
6, 28171, Note_on_c, 1, 57, 0
6, 28200, Note_on_c, 1, 60, 78
6, 28205, Note_on_c, 1, 59, 0
6, 28260, Note_on_c, 1, 62, 78
6, 28261, Note_on_c, 1, 60, 0
6, 28307, Note_on_c, 1, 62, 0
6, 28320, Note_on_c, 1, 62, 78
6, 28440, Note_on_c, 1, 60, 78
6, 28442, Note_on_c, 1, 62, 0
6, 28554, Note_on_c, 1, 60, 0
6, 28560, Note_on_c, 1, 59, 78
6, 28684, Note_on_c, 1, 59, 0
6, 29040, Note_on_c, 1, 64, 78
6, 29220, Note_on_c, 1, 65, 78
6, 29229, Note_on_c, 1, 64, 0
6, 29250, Note_on_c, 1, 62, 68
6, 29256, Note_on_c, 1, 65, 0
6, 29280, Note_on_c, 1, 60, 68
6, 29281, Note_on_c, 1, 62, 0
6, 29340, Note_on_c, 1, 55, 78
6, 29344, Note_on_c, 1, 60, 0
6, 29398, Note_on_c, 1, 55, 0
6, 29400, Note_on_c, 1, 60, 78
6, 29460, Note_on_c, 1, 62, 78
6, 29461, Note_on_c, 1, 60, 0
6, 29520, Note_on_c, 1, 62, 0
6, 29520, Note_on_c, 1, 64, 78
6, 29700, Note_on_c, 1, 60, 68
6, 29703, Note_on_c, 1, 64, 0
6, 29760, Note_on_c, 1, 62, 78
6, 29764, Note_on_c, 1, 60, 0
6, 29818, Note_on_c, 1, 62, 0
6, 29820, Note_on_c, 1, 59, 78
6, 29879, Note_on_c, 1, 59, 0
6, 29880, Note_on_c, 1, 60, 68
6, 29938, Note_on_c, 1, 60, 0
6, 29940, Note_on_c, 1, 57, 68
6, 29999, Note_on_c, 1, 57, 0
6, 30000, Note_on_c, 1, 59, 68
6, 30059, Note_on_c, 1, 59, 0
6, 30060, Note_on_c, 1, 57, 78
6, 30120, Note_on_c, 1, 55, 90
6, 30122, Note_on_c, 1, 57, 0
6, 30297, Note_on_c, 1, 55, 0
6, 30300, Note_on_c, 1, 60, 78
6, 30348, Note_on_c, 1, 60, 0
6, 30360, Note_on_c, 1, 60, 78
6, 30420, Note_on_c, 1, 59, 78
6, 30424, Note_on_c, 1, 60, 0
6, 30480, Note_on_c, 1, 60, 78
6, 30481, Note_on_c, 1, 59, 0
6, 30606, Note_on_c, 1, 60, 0
6, 30720, Note_on_c, 1, 59, 50
6, 30892, Note_on_c, 1, 59, 0
6, 30900, Note_on_c, 1, 60, 42
6, 30930, Note_on_c, 1, 60, 0
6, 30930, Note_on_c, 1, 57, 42
6, 30960, Note_on_c, 1, 62, 50
6, 30961, Note_on_c, 1, 57, 0
6, 31012, Note_on_c, 1, 62, 0
6, 31200, Note_on_c, 1, 60, 35
6, 31380, Note_on_c, 1, 60, 0
6, 31380, Note_on_c, 1, 62, 35
6, 31407, Note_on_c, 1, 62, 0
6, 31410, Note_on_c, 1, 59, 29
6, 31440, Note_on_c, 1, 64, 29
6, 31442, Note_on_c, 1, 59, 0
6, 31489, Note_on_c, 1, 64, 0
6, 31680, Note_on_c, 1, 62, 35
6, 31859, Note_on_c, 1, 62, 0
6, 31860, Note_on_c, 1, 60, 29
6, 31917, Note_on_c, 1, 60, 0
6, 31920, Note_on_c, 1, 62, 42
6, 32100, Note_on_c, 1, 60, 42
6, 32103, Note_on_c, 1, 62, 0
6, 32160, Note_on_c, 1, 60, 0
6, 32160, Note_on_c, 1, 59, 42
6, 32280, Note_on_c, 1, 62, 42
6, 32282, Note_on_c, 1, 59, 0
6, 32336, Note_on_c, 1, 62, 0
6, 32340, Note_on_c, 1, 60, 42
6, 32386, Note_on_c, 1, 60, 0
6, 32400, Note_on_c, 1, 60, 35
6, 32460, Note_on_c, 1, 59, 42
6, 32461, Note_on_c, 1, 60, 0
6, 32511, Note_on_c, 1, 59, 0
6, 32640, Note_on_c, 1, 60, 90
6, 32760, Note_on_c, 1, 59, 78
6, 32768, Note_on_c, 1, 60, 0
6, 32844, Note_on_c, 1, 59, 0
6, 32850, Note_on_c, 1, 60, 78
6, 32880, Note_on_c, 1, 57, 90
6, 32882, Note_on_c, 1, 60, 0
6, 33002, Note_on_c, 1, 57, 0
6, 33120, Note_on_c, 1, 57, 90
6, 33240, Note_on_c, 1, 60, 78
6, 33241, Note_on_c, 1, 57, 0
6, 33325, Note_on_c, 1, 60, 0
6, 33330, Note_on_c, 1, 62, 78
6, 33360, Note_on_c, 1, 64, 78
6, 33363, Note_on_c, 1, 62, 0
6, 33466, Note_on_c, 1, 64, 0
6, 33600, Note_on_c, 1, 64, 78
6, 33720, Note_on_c, 1, 60, 78
6, 33722, Note_on_c, 1, 64, 0
6, 33956, Note_on_c, 1, 60, 0
6, 33960, Note_on_c, 1, 65, 78
6, 34049, Note_on_c, 1, 65, 0
6, 34050, Note_on_c, 1, 64, 68
6, 34080, Note_on_c, 1, 64, 0
6, 34080, Note_on_c, 1, 62, 78
6, 34200, Note_on_c, 1, 59, 78
6, 34202, Note_on_c, 1, 62, 0
6, 34320, Note_on_c, 1, 59, 0
6, 34320, Note_on_c, 1, 60, 78
6, 34428, Note_on_c, 1, 60, 0
6, 34560, Note_on_c, 1, 59, 29
6, 34740, Note_on_c, 1, 60, 24
6, 34742, Note_on_c, 1, 59, 0
6, 34767, Note_on_c, 1, 60, 0
6, 34770, Note_on_c, 1, 57, 35
6, 34800, Note_on_c, 1, 57, 0
6, 34800, Note_on_c, 1, 62, 35
6, 34878, Note_on_c, 1, 62, 0
6, 35040, Note_on_c, 1, 60, 24
6, 35220, Note_on_c, 1, 62, 24
6, 35221, Note_on_c, 1, 60, 0
6, 35246, Note_on_c, 1, 62, 0
6, 35250, Note_on_c, 1, 59, 24
6, 35278, Note_on_c, 1, 59, 0
6, 35280, Note_on_c, 1, 64, 24
6, 35332, Note_on_c, 1, 64, 0
6, 35520, Note_on_c, 1, 65, 35
6, 35696, Note_on_c, 1, 65, 0
6, 35700, Note_on_c, 1, 64, 35
6, 35760, Note_on_c, 1, 65, 42
6, 35762, Note_on_c, 1, 64, 0
6, 35940, Note_on_c, 1, 64, 35
6, 35942, Note_on_c, 1, 65, 0
6, 36000, Note_on_c, 1, 62, 42
6, 36001, Note_on_c, 1, 64, 0
6, 36176, Note_on_c, 1, 62, 0
6, 36180, Note_on_c, 1, 60, 42
6, 36230, Note_on_c, 1, 60, 0
6, 36240, Note_on_c, 1, 60, 42
6, 36298, Note_on_c, 1, 60, 0
6, 36300, Note_on_c, 1, 59, 42
6, 36347, Note_on_c, 1, 59, 0
6, 36480, Note_on_c, 1, 60, 90
6, 36600, Note_on_c, 1, 59, 78
6, 36601, Note_on_c, 1, 60, 0
6, 36686, Note_on_c, 1, 59, 0
6, 36690, Note_on_c, 1, 60, 78
6, 36720, Note_on_c, 1, 57, 78
6, 36722, Note_on_c, 1, 60, 0
6, 36805, Note_on_c, 1, 57, 0
6, 36960, Note_on_c, 1, 57, 78
6, 37076, Note_on_c, 1, 57, 0
6, 37080, Note_on_c, 1, 60, 78
6, 37170, Note_on_c, 1, 62, 78
6, 37171, Note_on_c, 1, 60, 0
6, 37195, Note_on_c, 1, 62, 0
6, 37200, Note_on_c, 1, 64, 78
6, 37328, Note_on_c, 1, 64, 0
6, 37440, Note_on_c, 1, 64, 78
6, 37560, Note_on_c, 1, 60, 78
6, 37562, Note_on_c, 1, 64, 0
6, 37797, Note_on_c, 1, 60, 0
6, 37800, Note_on_c, 1, 65, 78
6, 37890, Note_on_c, 1, 64, 58
6, 37893, Note_on_c, 1, 65, 0
6, 37920, Note_on_c, 1, 62, 78
6, 37921, Note_on_c, 1, 64, 0
6, 38039, Note_on_c, 1, 62, 0
6, 38040, Note_on_c, 1, 59, 78
6, 38159, Note_on_c, 1, 59, 0
6, 38160, Note_on_c, 1, 60, 78
6, 38202, Note_on_c, 1, 60, 0
6, 38220, Note_on_c, 1, 60, 78
6, 38329, Note_on_c, 1, 60, 0
6, 38340, Note_on_c, 1, 60, 78
6, 38385, Note_on_c, 1, 60, 0
6, 38400, Note_on_c, 1, 60, 78
6, 38558, Note_on_c, 1, 60, 0
6, 38580, Note_on_c, 1, 60, 78
6, 38624, Note_on_c, 1, 60, 0
6, 38640, Note_on_c, 1, 60, 90
6, 38759, Note_on_c, 1, 60, 0
6, 38760, Note_on_c, 1, 59, 78
6, 38877, Note_on_c, 1, 59, 0
6, 38880, Note_on_c, 1, 60, 78
6, 38996, Note_on_c, 1, 60, 0
6, 39180, Note_on_c, 1, 60, 78
6, 39300, Note_on_c, 1, 64, 78
6, 39302, Note_on_c, 1, 60, 0
6, 39358, Note_on_c, 1, 64, 0
6, 39360, Note_on_c, 1, 65, 78
6, 39540, Note_on_c, 1, 60, 78
6, 39543, Note_on_c, 1, 65, 0
6, 39585, Note_on_c, 1, 60, 0
6, 39600, Note_on_c, 1, 60, 68
6, 39720, Note_on_c, 1, 59, 90
6, 39722, Note_on_c, 1, 60, 0
6, 39840, Note_on_c, 1, 60, 78
6, 39842, Note_on_c, 1, 59, 0
6, 39957, Note_on_c, 1, 60, 0
6, 41100, Note_on_c, 1, 60, 90
6, 41208, Note_on_c, 1, 60, 0
6, 41220, Note_on_c, 1, 60, 90
6, 41263, Note_on_c, 1, 60, 0
6, 41280, Note_on_c, 1, 60, 90
6, 41446, Note_on_c, 1, 60, 0
6, 41460, Note_on_c, 1, 60, 90
6, 41505, Note_on_c, 1, 60, 0
6, 41520, Note_on_c, 1, 60, 90
6, 41640, Note_on_c, 1, 59, 90
6, 41644, Note_on_c, 1, 60, 0
6, 41757, Note_on_c, 1, 59, 0
6, 41760, Note_on_c, 1, 60, 78
6, 41876, Note_on_c, 1, 60, 0
6, 42060, Note_on_c, 1, 60, 90
6, 42180, Note_on_c, 1, 64, 78
6, 42185, Note_on_c, 1, 60, 0
6, 42240, Note_on_c, 1, 65, 78
6, 42246, Note_on_c, 1, 64, 0
6, 42296, Note_on_c, 1, 65, 0
6, 42300, Note_on_c, 1, 60, 90
6, 42417, Note_on_c, 1, 60, 0
6, 42420, Note_on_c, 1, 57, 90
6, 42476, Note_on_c, 1, 57, 0
6, 42480, Note_on_c, 1, 60, 90
6, 42600, Note_on_c, 1, 59, 78
6, 42606, Note_on_c, 1, 60, 0
6, 42717, Note_on_c, 1, 59, 0
6, 42720, Note_on_c, 1, 60, 90
6, 42829, Note_on_c, 1, 60, 0
6, 42840, Note_on_c, 1, 65, 90
6, 42919, Note_on_c, 1, 65, 0
6, 42930, Note_on_c, 1, 65, 58
6, 42960, Note_on_c, 1, 64, 78
6, 42962, Note_on_c, 1, 65, 0
6, 43018, Note_on_c, 1, 64, 0
6, 43020, Note_on_c, 1, 60, 78
6, 43076, Note_on_c, 1, 60, 0
6, 43080, Note_on_c, 1, 59, 90
6, 43200, Note_on_c, 1, 59, 0
6, 43200, Note_on_c, 1, 60, 78
6, 43315, Note_on_c, 1, 60, 0
6, 43320, Note_on_c, 1, 65, 78
6, 43403, Note_on_c, 1, 65, 0
6, 43410, Note_on_c, 1, 65, 78
6, 43437, Note_on_c, 1, 65, 0
6, 43440, Note_on_c, 1, 64, 78
6, 43499, Note_on_c, 1, 64, 0
6, 43500, Note_on_c, 1, 60, 78
6, 43556, Note_on_c, 1, 60, 0
6, 43560, Note_on_c, 1, 59, 90
6, 43680, Note_on_c, 1, 60, 90
6, 43685, Note_on_c, 1, 59, 0
6, 43799, Note_on_c, 1, 60, 0
6, 43799, End_track
7, 0, Start_track
7, 0, MIDI_port, 0
7, 0, Title_t, "bass"
7, 26880, Note_on_c, 1, 60, 90
7, 26996, Note_on_c, 1, 60, 0
7, 27000, Note_on_c, 1, 55, 78
7, 27120, Note_on_c, 1, 52, 78
7, 27122, Note_on_c, 1, 55, 0
7, 27180, Note_on_c, 1, 52, 0
7, 27180, Note_on_c, 1, 48, 78
7, 27229, Note_on_c, 1, 48, 0
7, 27360, Note_on_c, 1, 60, 90
7, 27477, Note_on_c, 1, 60, 0
7, 27480, Note_on_c, 1, 55, 90
7, 27597, Note_on_c, 1, 55, 0
7, 27600, Note_on_c, 1, 52, 78
7, 27656, Note_on_c, 1, 52, 0
7, 27660, Note_on_c, 1, 48, 78
7, 27703, Note_on_c, 1, 48, 0
7, 27720, Note_on_c, 1, 60, 78
7, 27780, Note_on_c, 1, 60, 0
7, 27780, Note_on_c, 1, 57, 90
7, 27840, Note_on_c, 1, 59, 78
7, 27841, Note_on_c, 1, 57, 0
7, 27900, Note_on_c, 1, 59, 0
7, 27900, Note_on_c, 1, 55, 78
7, 27958, Note_on_c, 1, 55, 0
7, 27960, Note_on_c, 1, 57, 78
7, 28020, Note_on_c, 1, 54, 90
7, 28022, Note_on_c, 1, 57, 0
7, 28076, Note_on_c, 1, 54, 0
7, 28080, Note_on_c, 1, 55, 78
7, 28140, Note_on_c, 1, 53, 78
7, 28144, Note_on_c, 1, 55, 0
7, 28199, Note_on_c, 1, 53, 0
7, 28200, Note_on_c, 1, 52, 78
7, 28260, Note_on_c, 1, 52, 0
7, 28260, Note_on_c, 1, 47, 78
7, 28318, Note_on_c, 1, 47, 0
7, 28320, Note_on_c, 1, 48, 78
7, 28410, Note_on_c, 1, 48, 0
7, 28410, Note_on_c, 1, 50, 78
7, 28440, Note_on_c, 1, 52, 78
7, 28450, Note_on_c, 1, 50, 0
7, 28524, Note_on_c, 1, 52, 0
7, 28530, Note_on_c, 1, 53, 78
7, 28557, Note_on_c, 1, 53, 0
7, 28560, Note_on_c, 1, 55, 78
7, 28677, Note_on_c, 1, 55, 0
7, 28800, Note_on_c, 1, 60, 78
7, 28917, Note_on_c, 1, 60, 0
7, 28920, Note_on_c, 1, 55, 90
7, 29040, Note_on_c, 1, 52, 78
7, 29042, Note_on_c, 1, 55, 0
7, 29099, Note_on_c, 1, 52, 0
7, 29100, Note_on_c, 1, 48, 78
7, 29152, Note_on_c, 1, 48, 0
7, 29280, Note_on_c, 1, 60, 90
7, 29399, Note_on_c, 1, 60, 0
7, 29400, Note_on_c, 1, 55, 90
7, 29520, Note_on_c, 1, 52, 78
7, 29525, Note_on_c, 1, 55, 0
7, 29578, Note_on_c, 1, 52, 0
7, 29580, Note_on_c, 1, 48, 78
7, 29631, Note_on_c, 1, 48, 0
7, 29640, Note_on_c, 1, 60, 78
7, 29700, Note_on_c, 1, 60, 0
7, 29700, Note_on_c, 1, 57, 78
7, 29760, Note_on_c, 1, 59, 68
7, 29764, Note_on_c, 1, 57, 0
7, 29820, Note_on_c, 1, 59, 0
7, 29820, Note_on_c, 1, 55, 78
7, 29876, Note_on_c, 1, 55, 0
7, 29880, Note_on_c, 1, 57, 78
7, 29940, Note_on_c, 1, 54, 90
7, 29942, Note_on_c, 1, 57, 0
7, 29995, Note_on_c, 1, 54, 0
7, 30000, Note_on_c, 1, 55, 78
7, 30060, Note_on_c, 1, 53, 78
7, 30068, Note_on_c, 1, 55, 0
7, 30119, Note_on_c, 1, 53, 0
7, 30120, Note_on_c, 1, 52, 78
7, 30178, Note_on_c, 1, 52, 0
7, 30180, Note_on_c, 1, 50, 78
7, 30237, Note_on_c, 1, 50, 0
7, 30240, Note_on_c, 1, 48, 68
7, 30300, Note_on_c, 1, 52, 78
7, 30304, Note_on_c, 1, 48, 0
7, 30360, Note_on_c, 1, 52, 0
7, 30360, Note_on_c, 1, 55, 68
7, 30480, Note_on_c, 1, 48, 78
7, 30484, Note_on_c, 1, 55, 0
7, 30587, Note_on_c, 1, 48, 0
7, 30720, Note_on_c, 1, 55, 78
7, 30960, Note_on_c, 1, 43, 15
7, 30963, Note_on_c, 1, 55, 0
7, 31008, Note_on_c, 1, 43, 0
7, 31200, Note_on_c, 1, 55, 35
7, 31440, Note_on_c, 1, 43, 15
7, 31445, Note_on_c, 1, 55, 0
7, 31489, Note_on_c, 1, 43, 0
7, 31680, Note_on_c, 1, 55, 29
7, 31843, Note_on_c, 1, 55, 0
7, 31860, Note_on_c, 1, 55, 35
7, 31900, Note_on_c, 1, 55, 0
7, 31920, Note_on_c, 1, 55, 29
7, 32078, Note_on_c, 1, 55, 0
7, 32100, Note_on_c, 1, 55, 24
7, 32131, Note_on_c, 1, 55, 0
7, 32160, Note_on_c, 1, 55, 35
7, 32280, Note_on_c, 1, 59, 42
7, 32282, Note_on_c, 1, 55, 0
7, 32339, Note_on_c, 1, 59, 0
7, 32340, Note_on_c, 1, 60, 29
7, 32400, Note_on_c, 1, 55, 35
7, 32402, Note_on_c, 1, 60, 0
7, 32438, Note_on_c, 1, 55, 0
7, 32460, Note_on_c, 1, 55, 29
7, 32510, Note_on_c, 1, 55, 0
7, 32640, Note_on_c, 1, 48, 90
7, 32755, Note_on_c, 1, 48, 0
7, 32760, Note_on_c, 1, 53, 90
7, 32847, Note_on_c, 1, 53, 0
7, 32850, Note_on_c, 1, 52, 78
7, 32878, Note_on_c, 1, 52, 0
7, 32880, Note_on_c, 1, 50, 78
7, 33002, Note_on_c, 1, 50, 0
7, 33120, Note_on_c, 1, 50, 90
7, 33240, Note_on_c, 1, 50, 0
7, 33240, Note_on_c, 1, 55, 78
7, 33329, Note_on_c, 1, 55, 0
7, 33330, Note_on_c, 1, 53, 78
7, 33360, Note_on_c, 1, 53, 0
7, 33360, Note_on_c, 1, 52, 78
7, 33478, Note_on_c, 1, 52, 0
7, 33600, Note_on_c, 1, 60, 78
7, 33720, Note_on_c, 1, 57, 90
7, 33727, Note_on_c, 1, 60, 0
7, 33808, Note_on_c, 1, 57, 0
7, 33810, Note_on_c, 1, 55, 78
7, 33840, Note_on_c, 1, 55, 0
7, 33840, Note_on_c, 1, 53, 78
7, 33929, Note_on_c, 1, 53, 0
7, 33930, Note_on_c, 1, 52, 58
7, 33960, Note_on_c, 1, 50, 90
7, 33961, Note_on_c, 1, 52, 0
7, 34050, Note_on_c, 1, 50, 0
7, 34050, Note_on_c, 1, 48, 78
7, 34073, Note_on_c, 1, 48, 0
7, 34080, Note_on_c, 1, 53, 78
7, 34200, Note_on_c, 1, 55, 78
7, 34207, Note_on_c, 1, 53, 0
7, 34316, Note_on_c, 1, 55, 0
7, 34320, Note_on_c, 1, 48, 78
7, 34435, Note_on_c, 1, 48, 0
7, 34560, Note_on_c, 1, 55, 24
7, 34800, Note_on_c, 1, 43, 19
7, 34812, Note_on_c, 1, 55, 0
7, 34852, Note_on_c, 1, 43, 0
7, 35040, Note_on_c, 1, 55, 42
7, 35280, Note_on_c, 1, 43, 19
7, 35281, Note_on_c, 1, 55, 0
7, 35332, Note_on_c, 1, 43, 0
7, 35520, Note_on_c, 1, 55, 42
7, 35681, Note_on_c, 1, 55, 0
7, 35700, Note_on_c, 1, 55, 24
7, 35732, Note_on_c, 1, 55, 0
7, 35760, Note_on_c, 1, 55, 50
7, 35916, Note_on_c, 1, 55, 0
7, 35940, Note_on_c, 1, 55, 24
7, 35973, Note_on_c, 1, 55, 0
7, 36000, Note_on_c, 1, 55, 50
7, 36119, Note_on_c, 1, 55, 0
7, 36120, Note_on_c, 1, 59, 50
7, 36176, Note_on_c, 1, 59, 0
7, 36180, Note_on_c, 1, 60, 42
7, 36239, Note_on_c, 1, 60, 0
7, 36240, Note_on_c, 1, 55, 42
7, 36289, Note_on_c, 1, 55, 0
7, 36300, Note_on_c, 1, 55, 50
7, 36341, Note_on_c, 1, 55, 0
7, 36480, Note_on_c, 1, 48, 78
7, 36590, Note_on_c, 1, 48, 0
7, 36600, Note_on_c, 1, 53, 78
7, 36690, Note_on_c, 1, 52, 78
7, 36692, Note_on_c, 1, 53, 0
7, 36719, Note_on_c, 1, 52, 0
7, 36720, Note_on_c, 1, 50, 78
7, 36838, Note_on_c, 1, 50, 0
7, 36960, Note_on_c, 1, 50, 90
7, 37073, Note_on_c, 1, 50, 0
7, 37080, Note_on_c, 1, 55, 78
7, 37166, Note_on_c, 1, 55, 0
7, 37170, Note_on_c, 1, 53, 78
7, 37199, Note_on_c, 1, 53, 0
7, 37200, Note_on_c, 1, 52, 68
7, 37314, Note_on_c, 1, 52, 0
7, 37440, Note_on_c, 1, 60, 90
7, 37560, Note_on_c, 1, 57, 90
7, 37561, Note_on_c, 1, 60, 0
7, 37646, Note_on_c, 1, 57, 0
7, 37650, Note_on_c, 1, 55, 78
7, 37680, Note_on_c, 1, 53, 78
7, 37683, Note_on_c, 1, 55, 0
7, 37766, Note_on_c, 1, 53, 0
7, 37770, Note_on_c, 1, 52, 58
7, 37800, Note_on_c, 1, 52, 0
7, 37800, Note_on_c, 1, 50, 78
7, 37890, Note_on_c, 1, 48, 68
7, 37891, Note_on_c, 1, 50, 0
7, 37918, Note_on_c, 1, 48, 0
7, 37920, Note_on_c, 1, 53, 78
7, 38036, Note_on_c, 1, 53, 0
7, 38040, Note_on_c, 1, 55, 78
7, 38157, Note_on_c, 1, 55, 0
7, 38160, Note_on_c, 1, 48, 78
7, 38208, Note_on_c, 1, 48, 0
7, 38220, Note_on_c, 1, 60, 78
7, 38276, Note_on_c, 1, 60, 0
7, 38280, Note_on_c, 1, 59, 68
7, 38336, Note_on_c, 1, 59, 0
7, 38340, Note_on_c, 1, 58, 90
7, 38398, Note_on_c, 1, 58, 0
7, 38400, Note_on_c, 1, 57, 90
7, 38490, Note_on_c, 1, 55, 78
7, 38493, Note_on_c, 1, 57, 0
7, 38519, Note_on_c, 1, 55, 0
7, 38520, Note_on_c, 1, 53, 78
7, 38576, Note_on_c, 1, 53, 0
7, 38580, Note_on_c, 1, 57, 90
7, 38638, Note_on_c, 1, 57, 0
7, 38640, Note_on_c, 1, 55, 90
7, 38878, Note_on_c, 1, 55, 0
7, 38880, Note_on_c, 1, 57, 90
7, 38998, Note_on_c, 1, 57, 0
7, 39180, Note_on_c, 1, 58, 90
7, 39236, Note_on_c, 1, 58, 0
7, 39240, Note_on_c, 1, 57, 90
7, 39300, Note_on_c, 1, 57, 0
7, 39300, Note_on_c, 1, 55, 78
7, 39358, Note_on_c, 1, 55, 0
7, 39360, Note_on_c, 1, 53, 90
7, 39533, Note_on_c, 1, 53, 0
7, 39540, Note_on_c, 1, 57, 90
7, 39594, Note_on_c, 1, 57, 0
7, 39600, Note_on_c, 1, 55, 90
7, 39840, Note_on_c, 1, 48, 78
7, 39843, Note_on_c, 1, 55, 0
7, 39959, Note_on_c, 1, 48, 0
7, 41100, Note_on_c, 1, 60, 90
7, 41157, Note_on_c, 1, 60, 0
7, 41160, Note_on_c, 1, 59, 78
7, 41220, Note_on_c, 1, 58, 90
7, 41224, Note_on_c, 1, 59, 0
7, 41277, Note_on_c, 1, 58, 0
7, 41280, Note_on_c, 1, 57, 90
7, 41368, Note_on_c, 1, 57, 0
7, 41370, Note_on_c, 1, 55, 78
7, 41399, Note_on_c, 1, 55, 0
7, 41400, Note_on_c, 1, 53, 90
7, 41457, Note_on_c, 1, 53, 0
7, 41460, Note_on_c, 1, 57, 90
7, 41515, Note_on_c, 1, 57, 0
7, 41520, Note_on_c, 1, 55, 90
7, 41756, Note_on_c, 1, 55, 0
7, 41760, Note_on_c, 1, 57, 90
7, 41874, Note_on_c, 1, 57, 0
7, 42060, Note_on_c, 1, 58, 90
7, 42117, Note_on_c, 1, 58, 0
7, 42120, Note_on_c, 1, 57, 78
7, 42179, Note_on_c, 1, 57, 0
7, 42180, Note_on_c, 1, 55, 78
7, 42238, Note_on_c, 1, 55, 0
7, 42240, Note_on_c, 1, 53, 78
7, 42329, Note_on_c, 1, 53, 0
7, 42330, Note_on_c, 1, 55, 78
7, 42360, Note_on_c, 1, 55, 0
7, 42360, Note_on_c, 1, 57, 90
7, 42418, Note_on_c, 1, 57, 0
7, 42420, Note_on_c, 1, 53, 78
7, 42474, Note_on_c, 1, 53, 0
7, 42480, Note_on_c, 1, 55, 78
7, 42720, Note_on_c, 1, 48, 78
7, 42722, Note_on_c, 1, 55, 0
7, 42821, Note_on_c, 1, 48, 0
7, 42840, Note_on_c, 1, 55, 90
7, 42923, Note_on_c, 1, 55, 0
7, 42930, Note_on_c, 1, 55, 90
7, 42953, Note_on_c, 1, 55, 0
7, 42960, Note_on_c, 1, 60, 78
7, 43000, Note_on_c, 1, 60, 0
7, 43020, Note_on_c, 1, 60, 78
7, 43077, Note_on_c, 1, 60, 0
7, 43080, Note_on_c, 1, 55, 78
7, 43200, Note_on_c, 1, 48, 68
7, 43203, Note_on_c, 1, 55, 0
7, 43297, Note_on_c, 1, 48, 0
7, 43320, Note_on_c, 1, 55, 90
7, 43400, Note_on_c, 1, 55, 0
7, 43410, Note_on_c, 1, 55, 78
7, 43439, Note_on_c, 1, 55, 0
7, 43440, Note_on_c, 1, 60, 78
7, 43485, Note_on_c, 1, 60, 0
7, 43500, Note_on_c, 1, 60, 78
7, 43557, Note_on_c, 1, 60, 0
7, 43560, Note_on_c, 1, 55, 78
7, 43674, Note_on_c, 1, 55, 0
7, 43680, Note_on_c, 1, 48, 78
7, 43793, Note_on_c, 1, 48, 0
7, 43793, End_track
8, 0, Start_track
8, 0, MIDI_port, 0
8, 0, Title_t, "sop solo"
8, 0, Program_c, 2, 53
8, 2879, Note_on_c, 2, 65, 59
8, 3116, Note_on_c, 2, 65, 0
8, 3117, Note_on_c, 2, 67, 58
8, 3235, Note_on_c, 2, 65, 59
8, 3236, Note_on_c, 2, 67, 0
8, 3293, Note_on_c, 2, 65, 0
8, 3295, Note_on_c, 2, 64, 57
8, 3302, Note_on_c, 2, 65, 60
8, 3303, Note_on_c, 2, 64, 0
8, 3310, Note_on_c, 2, 64, 58
8, 3312, Note_on_c, 2, 65, 0
8, 3357, Note_on_c, 2, 64, 0
8, 3358, Note_on_c, 2, 65, 59
8, 3481, Note_on_c, 2, 65, 0
8, 3601, Note_on_c, 2, 69, 58
8, 3840, Note_on_c, 2, 69, 0
8, 3840, Note_on_c, 2, 70, 59
8, 3959, Note_on_c, 2, 70, 0
8, 3960, Note_on_c, 2, 69, 59
8, 4015, Note_on_c, 2, 69, 0
8, 4017, Note_on_c, 2, 67, 56
8, 4024, Note_on_c, 2, 69, 58
8, 4026, Note_on_c, 2, 67, 0
8, 4036, Note_on_c, 2, 67, 56
8, 4040, Note_on_c, 2, 69, 0
8, 4076, Note_on_c, 2, 69, 59
8, 4077, Note_on_c, 2, 67, 0
8, 4194, Note_on_c, 2, 69, 0
8, 4257, Note_on_c, 2, 72, 58
8, 4299, Note_on_c, 2, 72, 0
8, 4318, Note_on_c, 2, 72, 59
8, 4500, Note_on_c, 2, 74, 58
8, 4501, Note_on_c, 2, 72, 0
8, 4556, Note_on_c, 2, 76, 57
8, 4558, Note_on_c, 2, 74, 0
8, 4618, Note_on_c, 2, 76, 0
8, 4618, Note_on_c, 2, 77, 58
8, 4664, Note_on_c, 2, 77, 0
8, 4682, Note_on_c, 2, 77, 56
8, 4710, Note_on_c, 2, 76, 57
8, 4714, Note_on_c, 2, 77, 0
8, 4739, Note_on_c, 2, 76, 0
8, 4739, Note_on_c, 2, 74, 58
8, 4765, Note_on_c, 2, 74, 0
8, 4768, Note_on_c, 2, 72, 56
8, 4800, Note_on_c, 2, 70, 59
8, 4802, Note_on_c, 2, 72, 0
8, 4922, Note_on_c, 2, 70, 0
8, 4977, Note_on_c, 2, 69, 57
8, 5034, Note_on_c, 2, 69, 0
8, 5036, Note_on_c, 2, 67, 58
8, 5068, Note_on_c, 2, 74, 57
8, 5071, Note_on_c, 2, 67, 0
8, 5095, Note_on_c, 2, 70, 61
8, 5099, Note_on_c, 2, 74, 0
8, 5124, Note_on_c, 2, 70, 0
8, 5124, Note_on_c, 2, 67, 58
8, 5156, Note_on_c, 2, 67, 0
8, 5158, Note_on_c, 2, 65, 59
8, 5340, Note_on_c, 2, 65, 0
8, 5340, Note_on_c, 2, 69, 56
8, 5345, Note_on_c, 2, 67, 59
8, 5349, Note_on_c, 2, 69, 0
8, 5398, Note_on_c, 2, 67, 0
8, 5401, Note_on_c, 2, 65, 59
8, 5512, Note_on_c, 2, 65, 0
8, 5631, Note_on_c, 2, 70, 61
8, 5638, Note_on_c, 2, 69, 57
8, 5640, Note_on_c, 2, 70, 0
8, 5700, Note_on_c, 2, 67, 59
8, 5701, Note_on_c, 2, 69, 0
8, 5726, Note_on_c, 2, 67, 0
8, 5730, Note_on_c, 2, 65, 57
8, 5758, Note_on_c, 2, 65, 0
8, 5760, Note_on_c, 2, 72, 60
8, 5792, Note_on_c, 2, 72, 0
8, 5819, Note_on_c, 2, 72, 60
8, 5876, Note_on_c, 2, 72, 0
8, 5994, Note_on_c, 2, 74, 60
8, 6003, Note_on_c, 2, 72, 58
8, 6006, Note_on_c, 2, 74, 0
8, 6057, Note_on_c, 2, 72, 0
8, 6058, Note_on_c, 2, 71, 57
8, 6081, Note_on_c, 2, 71, 0
8, 6086, Note_on_c, 2, 69, 58
8, 6113, Note_on_c, 2, 69, 0
8, 6117, Note_on_c, 2, 67, 58
8, 6175, Note_on_c, 2, 67, 0
8, 6177, Note_on_c, 2, 65, 60
8, 6237, Note_on_c, 2, 65, 0
8, 6237, Note_on_c, 2, 77, 60
8, 6540, Note_on_c, 2, 74, 59
8, 6541, Note_on_c, 2, 77, 0
8, 6662, Note_on_c, 2, 71, 59
8, 6664, Note_on_c, 2, 74, 0
8, 6721, Note_on_c, 2, 67, 59
8, 6722, Note_on_c, 2, 71, 0
8, 6776, Note_on_c, 2, 67, 0
8, 6777, Note_on_c, 2, 65, 59
8, 6814, Note_on_c, 2, 65, 0
8, 6838, Note_on_c, 2, 65, 60
8, 6897, Note_on_c, 2, 65, 0
8, 6899, Note_on_c, 2, 64, 60
8, 6966, Note_on_c, 2, 64, 0
8, 7081, Note_on_c, 2, 76, 62
8, 7169, Note_on_c, 2, 74, 61
8, 7173, Note_on_c, 2, 76, 0
8, 7184, Note_on_c, 2, 74, 0
8, 7198, Note_on_c, 2, 74, 63
8, 7254, Note_on_c, 2, 74, 0
8, 7257, Note_on_c, 2, 72, 61
8, 7321, Note_on_c, 2, 72, 0
8, 7438, Note_on_c, 2, 72, 59
8, 7511, Note_on_c, 2, 72, 0
8, 7526, Note_on_c, 2, 72, 59
8, 7542, Note_on_c, 2, 72, 0
8, 7561, Note_on_c, 2, 72, 57
8, 7708, Note_on_c, 2, 72, 0
8, 7708, Note_on_c, 2, 71, 58
8, 7734, Note_on_c, 2, 71, 0
8, 7737, Note_on_c, 2, 72, 56
8, 7767, Note_on_c, 2, 72, 0
8, 7767, Note_on_c, 2, 71, 56
8, 7781, Note_on_c, 2, 71, 0
8, 7783, Note_on_c, 2, 74, 57
8, 7791, Note_on_c, 2, 72, 58
8, 7797, Note_on_c, 2, 74, 0
8, 7858, Note_on_c, 2, 71, 58
8, 7859, Note_on_c, 2, 72, 0
8, 7888, Note_on_c, 2, 71, 0
8, 7888, Note_on_c, 2, 69, 55
8, 7902, Note_on_c, 2, 69, 0
8, 7907, Note_on_c, 2, 71, 58
8, 7915, Note_on_c, 2, 69, 58
8, 7918, Note_on_c, 2, 71, 0
8, 7982, Note_on_c, 2, 67, 60
8, 7985, Note_on_c, 2, 69, 0
8, 8008, Note_on_c, 2, 67, 0
8, 8010, Note_on_c, 2, 65, 58
8, 8037, Note_on_c, 2, 65, 0
8, 8042, Note_on_c, 2, 64, 58
8, 8153, Note_on_c, 2, 64, 0
8, 8155, Note_on_c, 2, 62, 58
8, 8162, Note_on_c, 2, 64, 60
8, 8163, Note_on_c, 2, 62, 0
8, 8170, Note_on_c, 2, 62, 60
8, 8171, Note_on_c, 2, 64, 0
8, 8278, Note_on_c, 2, 62, 0
8, 8281, Note_on_c, 2, 60, 60
8, 8431, Note_on_c, 2, 60, 0
8, 8459, Note_on_c, 2, 61, 60
8, 8521, Note_on_c, 2, 61, 0
8, 8521, Note_on_c, 2, 62, 58
8, 8578, Note_on_c, 2, 62, 0
8, 8580, Note_on_c, 2, 64, 58
8, 8639, Note_on_c, 2, 64, 0
8, 8639, Note_on_c, 2, 65, 62
8, 8873, Note_on_c, 2, 69, 58
8, 8875, Note_on_c, 2, 65, 0
8, 8880, Note_on_c, 2, 67, 60
8, 8883, Note_on_c, 2, 69, 0
8, 9000, Note_on_c, 2, 67, 0
8, 9001, Note_on_c, 2, 65, 61
8, 9057, Note_on_c, 2, 65, 0
8, 9058, Note_on_c, 2, 64, 58
8, 9065, Note_on_c, 2, 65, 58
8, 9067, Note_on_c, 2, 64, 0
8, 9073, Note_on_c, 2, 64, 61
8, 9078, Note_on_c, 2, 65, 0
8, 9115, Note_on_c, 2, 64, 0
8, 9116, Note_on_c, 2, 65, 61
8, 9241, Note_on_c, 2, 65, 0
8, 9359, Note_on_c, 2, 69, 60
8, 9591, Note_on_c, 2, 72, 56
8, 9593, Note_on_c, 2, 69, 0
8, 9599, Note_on_c, 2, 72, 0
8, 9600, Note_on_c, 2, 70, 58
8, 9718, Note_on_c, 2, 69, 59
8, 9719, Note_on_c, 2, 70, 0
8, 9776, Note_on_c, 2, 69, 0
8, 9778, Note_on_c, 2, 67, 58
8, 9786, Note_on_c, 2, 69, 59
8, 9787, Note_on_c, 2, 67, 0
8, 9796, Note_on_c, 2, 67, 56
8, 9799, Note_on_c, 2, 69, 0
8, 9838, Note_on_c, 2, 69, 60
8, 9840, Note_on_c, 2, 67, 0
8, 9958, Note_on_c, 2, 69, 0
8, 10015, Note_on_c, 2, 72, 58
8, 10055, Note_on_c, 2, 72, 0
8, 10080, Note_on_c, 2, 72, 61
8, 10259, Note_on_c, 2, 74, 60
8, 10261, Note_on_c, 2, 72, 0
8, 10315, Note_on_c, 2, 76, 60
8, 10317, Note_on_c, 2, 74, 0
8, 10377, Note_on_c, 2, 76, 0
8, 10377, Note_on_c, 2, 77, 61
8, 10419, Note_on_c, 2, 77, 0
8, 10442, Note_on_c, 2, 77, 61
8, 10468, Note_on_c, 2, 76, 59
8, 10469, Note_on_c, 2, 77, 0
8, 10496, Note_on_c, 2, 74, 60
8, 10500, Note_on_c, 2, 76, 0
8, 10528, Note_on_c, 2, 74, 0
8, 10528, Note_on_c, 2, 72, 59
8, 10557, Note_on_c, 2, 72, 0
8, 10557, Note_on_c, 2, 70, 61
8, 10681, Note_on_c, 2, 70, 0
8, 10741, Note_on_c, 2, 69, 60
8, 10796, Note_on_c, 2, 69, 0
8, 10799, Note_on_c, 2, 67, 59
8, 10831, Note_on_c, 2, 74, 59
8, 10836, Note_on_c, 2, 67, 0
8, 10858, Note_on_c, 2, 70, 60
8, 10865, Note_on_c, 2, 74, 0
8, 10888, Note_on_c, 2, 70, 0
8, 10889, Note_on_c, 2, 67, 57
8, 10919, Note_on_c, 2, 67, 0
8, 10921, Note_on_c, 2, 65, 60
8, 11096, Note_on_c, 2, 65, 0
8, 11096, Note_on_c, 2, 69, 58
8, 11100, Note_on_c, 2, 67, 60
8, 11102, Note_on_c, 2, 69, 0
8, 11157, Note_on_c, 2, 67, 0
8, 11160, Note_on_c, 2, 65, 61
8, 11269, Note_on_c, 2, 65, 0
8, 11400, Note_on_c, 2, 65, 61
8, 11468, Note_on_c, 2, 65, 0
8, 11491, Note_on_c, 2, 65, 61
8, 11505, Note_on_c, 2, 65, 0
8, 11519, Note_on_c, 2, 65, 62
8, 11578, Note_on_c, 2, 63, 61
8, 11579, Note_on_c, 2, 65, 0
8, 11636, Note_on_c, 2, 63, 0
8, 11758, Note_on_c, 2, 63, 60
8, 11828, Note_on_c, 2, 63, 0
8, 11849, Note_on_c, 2, 63, 61
8, 11877, Note_on_c, 2, 63, 0
8, 11880, Note_on_c, 2, 75, 61
8, 12057, Note_on_c, 2, 74, 60
8, 12059, Note_on_c, 2, 75, 0
8, 12175, Note_on_c, 2, 73, 60
8, 12177, Note_on_c, 2, 74, 0
8, 12220, Note_on_c, 2, 73, 0
8, 12239, Note_on_c, 2, 73, 60
8, 12297, Note_on_c, 2, 74, 60
8, 12300, Note_on_c, 2, 73, 0
8, 12335, Note_on_c, 2, 74, 0
8, 12358, Note_on_c, 2, 74, 59
8, 12463, Note_on_c, 2, 74, 0
8, 12486, Note_on_c, 2, 74, 59
8, 12571, Note_on_c, 2, 72, 59
8, 12572, Note_on_c, 2, 74, 0
8, 12581, Note_on_c, 2, 72, 0
8, 12606, Note_on_c, 2, 71, 59
8, 12954, Note_on_c, 2, 71, 0
8, 12956, Note_on_c, 2, 70, 60
8, 13137, Note_on_c, 2, 70, 0
8, 13138, Note_on_c, 2, 69, 59
8, 13164, Note_on_c, 2, 70, 61
8, 13169, Note_on_c, 2, 69, 0
8, 13191, Note_on_c, 2, 70, 0
8, 13196, Note_on_c, 2, 72, 58
8, 13257, Note_on_c, 2, 72, 0
8, 13257, Note_on_c, 2, 70, 59
8, 13318, Note_on_c, 2, 68, 60
8, 13320, Note_on_c, 2, 70, 0
8, 13358, Note_on_c, 2, 68, 0
8, 13378, Note_on_c, 2, 68, 60
8, 13450, Note_on_c, 2, 68, 0
8, 13562, Note_on_c, 2, 65, 60
8, 13651, Note_on_c, 2, 72, 58
8, 13652, Note_on_c, 2, 65, 0
8, 13677, Note_on_c, 2, 72, 0
8, 13680, Note_on_c, 2, 71, 60
8, 13720, Note_on_c, 2, 71, 0
8, 13739, Note_on_c, 2, 71, 60
8, 13801, Note_on_c, 2, 71, 0
8, 13918, Note_on_c, 2, 71, 60
8, 13982, Note_on_c, 2, 71, 0
8, 14006, Note_on_c, 2, 71, 58
8, 14039, Note_on_c, 2, 71, 0
8, 14040, Note_on_c, 2, 77, 59
8, 14074, Note_on_c, 2, 77, 0
8, 14093, Note_on_c, 2, 77, 61
8, 14333, Note_on_c, 2, 71, 58
8, 14349, Note_on_c, 2, 77, 0
8, 14363, Note_on_c, 2, 72, 57
8, 14364, Note_on_c, 2, 71, 0
8, 14379, Note_on_c, 2, 72, 0
8, 14396, Note_on_c, 2, 72, 59
8, 15214, Note_on_c, 2, 72, 0
8, 15214, Note_on_c, 2, 70, 57
8, 15226, Note_on_c, 2, 70, 0
8, 15244, Note_on_c, 2, 70, 60
8, 15421, Note_on_c, 2, 67, 58
8, 15425, Note_on_c, 2, 70, 0
8, 15476, Note_on_c, 2, 67, 0
8, 15481, Note_on_c, 2, 65, 59
8, 15726, Note_on_c, 2, 67, 57
8, 15732, Note_on_c, 2, 65, 0
8, 15751, Note_on_c, 2, 69, 57
8, 15755, Note_on_c, 2, 67, 0
8, 15776, Note_on_c, 2, 69, 0
8, 15776, Note_on_c, 2, 70, 58
8, 15803, Note_on_c, 2, 67, 56
8, 15804, Note_on_c, 2, 70, 0
8, 15835, Note_on_c, 2, 67, 0
8, 15837, Note_on_c, 2, 65, 59
8, 15896, Note_on_c, 2, 65, 0
8, 15898, Note_on_c, 2, 64, 59
8, 15906, Note_on_c, 2, 64, 0
8, 15906, Note_on_c, 2, 65, 60
8, 15914, Note_on_c, 2, 64, 58
8, 15916, Note_on_c, 2, 65, 0
8, 15957, Note_on_c, 2, 64, 0
8, 15958, Note_on_c, 2, 65, 60
8, 16029, Note_on_c, 2, 65, 0
8, 16201, Note_on_c, 2, 69, 61
8, 16439, Note_on_c, 2, 70, 61
8, 16440, Note_on_c, 2, 69, 0
8, 16468, Note_on_c, 2, 72, 58
8, 16469, Note_on_c, 2, 70, 0
8, 16496, Note_on_c, 2, 72, 0
8, 16496, Note_on_c, 2, 74, 58
8, 16524, Note_on_c, 2, 70, 59
8, 16526, Note_on_c, 2, 74, 0
8, 16555, Note_on_c, 2, 70, 0
8, 16557, Note_on_c, 2, 69, 58
8, 16615, Note_on_c, 2, 69, 0
8, 16615, Note_on_c, 2, 67, 59
8, 16622, Note_on_c, 2, 69, 59
8, 16623, Note_on_c, 2, 67, 0
8, 16631, Note_on_c, 2, 67, 58
8, 16635, Note_on_c, 2, 69, 0
8, 16674, Note_on_c, 2, 67, 0
8, 16675, Note_on_c, 2, 69, 59
8, 16800, Note_on_c, 2, 69, 0
8, 16858, Note_on_c, 2, 72, 61
8, 16902, Note_on_c, 2, 72, 0
8, 16921, Note_on_c, 2, 72, 61
8, 17068, Note_on_c, 2, 70, 59
8, 17070, Note_on_c, 2, 72, 0
8, 17096, Note_on_c, 2, 70, 0
8, 17097, Note_on_c, 2, 69, 59
8, 17125, Note_on_c, 2, 70, 61
8, 17128, Note_on_c, 2, 69, 0
8, 17152, Note_on_c, 2, 70, 0
8, 17155, Note_on_c, 2, 72, 58
8, 17185, Note_on_c, 2, 74, 60
8, 17186, Note_on_c, 2, 72, 0
8, 17216, Note_on_c, 2, 74, 0
8, 17217, Note_on_c, 2, 76, 59
8, 17247, Note_on_c, 2, 77, 60
8, 17253, Note_on_c, 2, 76, 0
8, 17263, Note_on_c, 2, 77, 0
8, 17279, Note_on_c, 2, 77, 59
8, 17306, Note_on_c, 2, 76, 59
8, 17309, Note_on_c, 2, 77, 0
8, 17338, Note_on_c, 2, 74, 59
8, 17341, Note_on_c, 2, 76, 0
8, 17366, Note_on_c, 2, 74, 0
8, 17366, Note_on_c, 2, 72, 58
8, 17398, Note_on_c, 2, 72, 0
8, 17399, Note_on_c, 2, 70, 58
8, 17519, Note_on_c, 2, 70, 0
8, 18301, Note_on_c, 2, 69, 60
8, 18360, Note_on_c, 2, 67, 59
8, 18361, Note_on_c, 2, 69, 0
8, 18393, Note_on_c, 2, 67, 0
8, 18395, Note_on_c, 2, 74, 57
8, 18419, Note_on_c, 2, 70, 60
8, 18422, Note_on_c, 2, 74, 0
8, 18448, Note_on_c, 2, 67, 58
8, 18452, Note_on_c, 2, 70, 0
8, 18480, Note_on_c, 2, 67, 0
8, 18481, Note_on_c, 2, 65, 59
8, 18655, Note_on_c, 2, 69, 59
8, 18658, Note_on_c, 2, 65, 0
8, 18661, Note_on_c, 2, 67, 58
8, 18664, Note_on_c, 2, 69, 0
8, 18719, Note_on_c, 2, 67, 0
8, 18721, Note_on_c, 2, 65, 60
8, 18841, Note_on_c, 2, 65, 0
8, 18962, Note_on_c, 2, 65, 63
8, 19034, Note_on_c, 2, 65, 0
8, 19055, Note_on_c, 2, 65, 60
8, 19066, Note_on_c, 2, 65, 0
8, 19081, Note_on_c, 2, 65, 63
8, 19166, Note_on_c, 2, 65, 0
8, 19167, Note_on_c, 2, 71, 62
8, 19182, Note_on_c, 2, 71, 0
8, 19197, Note_on_c, 2, 71, 63
8, 19313, Note_on_c, 2, 71, 0
8, 19405, Note_on_c, 2, 71, 62
8, 19421, Note_on_c, 2, 71, 0
8, 19434, Note_on_c, 2, 71, 63
8, 19522, Note_on_c, 2, 74, 62
8, 19523, Note_on_c, 2, 71, 0
8, 19538, Note_on_c, 2, 74, 0
8, 19558, Note_on_c, 2, 74, 64
8, 19676, Note_on_c, 2, 74, 0
8, 19767, Note_on_c, 2, 74, 63
8, 19780, Note_on_c, 2, 74, 0
8, 19797, Note_on_c, 2, 74, 64
8, 19886, Note_on_c, 2, 74, 0
8, 19887, Note_on_c, 2, 77, 63
8, 19906, Note_on_c, 2, 77, 0
8, 19920, Note_on_c, 2, 77, 64
8, 20111, Note_on_c, 2, 77, 0
8, 20139, Note_on_c, 2, 74, 57
8, 20145, Note_on_c, 2, 75, 60
8, 20149, Note_on_c, 2, 76, 58
8, 20150, Note_on_c, 2, 74, 0
8, 20157, Note_on_c, 2, 75, 0
8, 20337, Note_on_c, 2, 77, 61
8, 20338, Note_on_c, 2, 76, 0
8, 20367, Note_on_c, 2, 74, 61
8, 20373, Note_on_c, 2, 77, 0
8, 20394, Note_on_c, 2, 74, 0
8, 20395, Note_on_c, 2, 72, 60
8, 20455, Note_on_c, 2, 72, 0
8, 20456, Note_on_c, 2, 67, 61
8, 20514, Note_on_c, 2, 72, 61
8, 20515, Note_on_c, 2, 67, 0
8, 20574, Note_on_c, 2, 74, 63
8, 20576, Note_on_c, 2, 72, 0
8, 20636, Note_on_c, 2, 74, 0
8, 20636, Note_on_c, 2, 76, 62
8, 20815, Note_on_c, 2, 77, 61
8, 20817, Note_on_c, 2, 76, 0
8, 20846, Note_on_c, 2, 74, 61
8, 20849, Note_on_c, 2, 77, 0
8, 20875, Note_on_c, 2, 74, 0
8, 20875, Note_on_c, 2, 72, 62
8, 20930, Note_on_c, 2, 72, 0
8, 21119, Note_on_c, 2, 76, 61
8, 21284, Note_on_c, 2, 76, 0
8, 21297, Note_on_c, 2, 76, 62
8, 21343, Note_on_c, 2, 76, 0
8, 21358, Note_on_c, 2, 76, 61
8, 21508, Note_on_c, 2, 77, 61
8, 21510, Note_on_c, 2, 76, 0
8, 21538, Note_on_c, 2, 74, 62
8, 21541, Note_on_c, 2, 77, 0
8, 21568, Note_on_c, 2, 74, 0
8, 21570, Note_on_c, 2, 71, 62
8, 21595, Note_on_c, 2, 71, 0
8, 21600, Note_on_c, 2, 69, 61
8, 21772, Note_on_c, 2, 72, 61
8, 21781, Note_on_c, 2, 69, 0
8, 21781, Note_on_c, 2, 71, 61
8, 21785, Note_on_c, 2, 72, 0
8, 21833, Note_on_c, 2, 71, 0
8, 21836, Note_on_c, 2, 69, 61
8, 21955, Note_on_c, 2, 69, 0
8, 23039, Note_on_c, 2, 69, 70
8, 23221, Note_on_c, 2, 77, 70
8, 23223, Note_on_c, 2, 69, 0
8, 23249, Note_on_c, 2, 74, 55
8, 23253, Note_on_c, 2, 77, 0
8, 23267, Note_on_c, 2, 74, 0
8, 23271, Note_on_c, 2, 72, 62
8, 23280, Note_on_c, 2, 71, 64
8, 23288, Note_on_c, 2, 72, 0
8, 23389, Note_on_c, 2, 71, 0
8, 23389, Note_on_c, 2, 74, 62
8, 23394, Note_on_c, 2, 72, 70
8, 23395, Note_on_c, 2, 74, 0
8, 23457, Note_on_c, 2, 72, 0
8, 23459, Note_on_c, 2, 71, 70
8, 23486, Note_on_c, 2, 69, 62
8, 23487, Note_on_c, 2, 71, 0
8, 23514, Note_on_c, 2, 69, 0
8, 23517, Note_on_c, 2, 67, 70
8, 23578, Note_on_c, 2, 67, 0
8, 23580, Note_on_c, 2, 65, 78
8, 23700, Note_on_c, 2, 65, 0
8, 23701, Note_on_c, 2, 64, 78
8, 23741, Note_on_c, 2, 64, 0
8, 23760, Note_on_c, 2, 64, 88
8, 23816, Note_on_c, 2, 64, 0
8, 23817, Note_on_c, 2, 62, 78
8, 23878, Note_on_c, 2, 62, 0
8, 24238, Note_on_c, 2, 75, 88
8, 24416, Note_on_c, 2, 75, 0
8, 24416, Note_on_c, 2, 77, 88
8, 24462, Note_on_c, 2, 74, 62
8, 24464, Note_on_c, 2, 77, 0
8, 24476, Note_on_c, 2, 74, 0
8, 24476, Note_on_c, 2, 72, 88
8, 24537, Note_on_c, 2, 72, 0
8, 24538, Note_on_c, 2, 67, 78
8, 24597, Note_on_c, 2, 67, 0
8, 24597, Note_on_c, 2, 72, 78
8, 24659, Note_on_c, 2, 72, 0
8, 24660, Note_on_c, 2, 74, 88
8, 24716, Note_on_c, 2, 76, 88
8, 24717, Note_on_c, 2, 74, 0
8, 24897, Note_on_c, 2, 77, 88
8, 24898, Note_on_c, 2, 76, 0
8, 24940, Note_on_c, 2, 77, 0
8, 24940, Note_on_c, 2, 74, 70
8, 24956, Note_on_c, 2, 74, 0
8, 24956, Note_on_c, 2, 72, 62
8, 25015, Note_on_c, 2, 72, 0
8, 25017, Note_on_c, 2, 76, 88
8, 25119, Note_on_c, 2, 76, 0
8, 25137, Note_on_c, 2, 76, 88
8, 25182, Note_on_c, 2, 76, 0
8, 25195, Note_on_c, 2, 76, 98
8, 25348, Note_on_c, 2, 74, 78
8, 25350, Note_on_c, 2, 76, 0
8, 25378, Note_on_c, 2, 76, 78
8, 25381, Note_on_c, 2, 74, 0
8, 25406, Note_on_c, 2, 77, 70
8, 25410, Note_on_c, 2, 76, 0
8, 25433, Note_on_c, 2, 77, 0
8, 25435, Note_on_c, 2, 72, 88
8, 25611, Note_on_c, 2, 76, 70
8, 25614, Note_on_c, 2, 72, 0
8, 25619, Note_on_c, 2, 74, 88
8, 25624, Note_on_c, 2, 76, 0
8, 25675, Note_on_c, 2, 74, 0
8, 25678, Note_on_c, 2, 72, 78
8, 25798, Note_on_c, 2, 72, 0
8, 25913, Note_on_c, 2, 72, 88
8, 26078, Note_on_c, 2, 72, 0
8, 26095, Note_on_c, 2, 72, 78
8, 26144, Note_on_c, 2, 72, 0
8, 26146, Note_on_c, 2, 74, 78
8, 26154, Note_on_c, 2, 72, 78
8, 26157, Note_on_c, 2, 74, 0
8, 26221, Note_on_c, 2, 71, 88
8, 26223, Note_on_c, 2, 72, 0
8, 26249, Note_on_c, 2, 71, 0
8, 26249, Note_on_c, 2, 69, 70
8, 26263, Note_on_c, 2, 69, 0
8, 26271, Note_on_c, 2, 71, 88
8, 26276, Note_on_c, 2, 69, 98
8, 26281, Note_on_c, 2, 71, 0
8, 26342, Note_on_c, 2, 67, 88
8, 26345, Note_on_c, 2, 69, 0
8, 26369, Note_on_c, 2, 67, 0
8, 26369, Note_on_c, 2, 65, 70
8, 26397, Note_on_c, 2, 65, 0
8, 26399, Note_on_c, 2, 64, 78
8, 26517, Note_on_c, 2, 62, 88
8, 26519, Note_on_c, 2, 64, 0
8, 26528, Note_on_c, 2, 64, 62
8, 26530, Note_on_c, 2, 62, 0
8, 26536, Note_on_c, 2, 62, 62
8, 26540, Note_on_c, 2, 64, 0
8, 26636, Note_on_c, 2, 62, 0
8, 26638, Note_on_c, 2, 60, 98
8, 26701, Note_on_c, 2, 60, 0
8, 40320, Note_on_c, 2, 76, 70
8, 40500, Note_on_c, 2, 77, 70
8, 40503, Note_on_c, 2, 76, 0
8, 40530, Note_on_c, 2, 74, 70
8, 40531, Note_on_c, 2, 77, 0
8, 40560, Note_on_c, 2, 74, 0
8, 40560, Note_on_c, 2, 72, 70
8, 40614, Note_on_c, 2, 72, 0
8, 40800, Note_on_c, 2, 76, 70
8, 40980, Note_on_c, 2, 77, 55
8, 40982, Note_on_c, 2, 76, 0
8, 41010, Note_on_c, 2, 77, 0
8, 41010, Note_on_c, 2, 74, 70
8, 41036, Note_on_c, 2, 74, 0
8, 41040, Note_on_c, 2, 72, 62
8, 41082, Note_on_c, 2, 72, 0
8, 41082, End_track
9, 0, Start_track
9, 0, MIDI_port, 0
9, 0, Title_t, "alt solo"
9, 24233, Note_on_c, 2, 72, 70
9, 24361, Note_on_c, 2, 67, 78
9, 24362, Note_on_c, 2, 72, 0
9, 24482, Note_on_c, 2, 63, 78
9, 24484, Note_on_c, 2, 67, 0
9, 24540, Note_on_c, 2, 63, 0
9, 24542, Note_on_c, 2, 60, 70
9, 24593, Note_on_c, 2, 60, 0
9, 24717, Note_on_c, 2, 72, 78
9, 24838, Note_on_c, 2, 67, 78
9, 24842, Note_on_c, 2, 72, 0
9, 24944, Note_on_c, 2, 67, 0
9, 24962, Note_on_c, 2, 67, 70
9, 25077, Note_on_c, 2, 68, 78
9, 25080, Note_on_c, 2, 67, 0
9, 25198, Note_on_c, 2, 68, 0
9, 25199, Note_on_c, 2, 69, 70
9, 25435, Note_on_c, 2, 69, 0
9, 25436, Note_on_c, 2, 67, 62
9, 25555, Note_on_c, 2, 67, 0
9, 25556, Note_on_c, 2, 65, 78
9, 25679, Note_on_c, 2, 65, 0
9, 25679, Note_on_c, 2, 64, 62
9, 25770, Note_on_c, 2, 64, 0
9, 25798, Note_on_c, 2, 67, 78
9, 25843, Note_on_c, 2, 67, 0
9, 25859, Note_on_c, 2, 67, 70
9, 25915, Note_on_c, 2, 67, 0
9, 25916, Note_on_c, 2, 69, 70
9, 26038, Note_on_c, 2, 69, 0
9, 26038, Note_on_c, 2, 70, 78
9, 26118, Note_on_c, 2, 70, 0
9, 26145, Note_on_c, 2, 70, 55
9, 26150, Note_on_c, 2, 69, 70
9, 26155, Note_on_c, 2, 70, 0
9, 26220, Note_on_c, 2, 67, 55
9, 26224, Note_on_c, 2, 69, 0
9, 26248, Note_on_c, 2, 67, 0
9, 26248, Note_on_c, 2, 65, 62
9, 26259, Note_on_c, 2, 65, 0
9, 26268, Note_on_c, 2, 67, 62
9, 26273, Note_on_c, 2, 65, 78
9, 26278, Note_on_c, 2, 67, 0
9, 26339, Note_on_c, 2, 65, 0
9, 26340, Note_on_c, 2, 64, 78
9, 26367, Note_on_c, 2, 64, 0
9, 26367, Note_on_c, 2, 62, 62
9, 26395, Note_on_c, 2, 62, 0
9, 26401, Note_on_c, 2, 60, 78
9, 26520, Note_on_c, 2, 60, 0
9, 26520, Note_on_c, 2, 59, 78
9, 26527, Note_on_c, 2, 60, 70
9, 26529, Note_on_c, 2, 59, 0
9, 26534, Note_on_c, 2, 59, 62
9, 26535, Note_on_c, 2, 60, 0
9, 26636, Note_on_c, 2, 59, 0
9, 26637, Note_on_c, 2, 60, 78
9, 26751, Note_on_c, 2, 60, 0
9, 40320, Note_on_c, 2, 67, 70
9, 40545, Note_on_c, 2, 67, 0
9, 40560, Note_on_c, 2, 67, 78
9, 40619, Note_on_c, 2, 67, 0
9, 40800, Note_on_c, 2, 67, 62
9, 41024, Note_on_c, 2, 67, 0
9, 41040, Note_on_c, 2, 67, 62
9, 41090, Note_on_c, 2, 67, 0
9, 41090, End_track
10, 0, Start_track
10, 0, MIDI_port, 0
10, 0, Title_t, "tenor solo"
10, 22085, Note_on_c, 2, 62, 78
10, 22240, Note_on_c, 2, 62, 0
10, 22260, Note_on_c, 2, 62, 78
10, 22305, Note_on_c, 2, 62, 0
10, 22320, Note_on_c, 2, 62, 78
10, 22468, Note_on_c, 2, 64, 78
10, 22470, Note_on_c, 2, 62, 0
10, 22496, Note_on_c, 2, 60, 70
10, 22501, Note_on_c, 2, 64, 0
10, 22526, Note_on_c, 2, 57, 70
10, 22528, Note_on_c, 2, 60, 0
10, 22556, Note_on_c, 2, 57, 0
10, 22557, Note_on_c, 2, 55, 78
10, 22731, Note_on_c, 2, 59, 70
10, 22732, Note_on_c, 2, 55, 0
10, 22738, Note_on_c, 2, 57, 70
10, 22741, Note_on_c, 2, 59, 0
10, 22798, Note_on_c, 2, 57, 0
10, 22799, Note_on_c, 2, 55, 78
10, 22915, Note_on_c, 2, 55, 0
10, 23998, Note_on_c, 2, 63, 78
10, 24176, Note_on_c, 2, 63, 0
10, 24178, Note_on_c, 2, 65, 70
10, 24222, Note_on_c, 2, 65, 0
10, 24223, Note_on_c, 2, 62, 78
10, 24234, Note_on_c, 2, 60, 70
10, 24238, Note_on_c, 2, 62, 0
10, 24297, Note_on_c, 2, 60, 0
10, 24298, Note_on_c, 2, 55, 70
10, 24359, Note_on_c, 2, 60, 70
10, 24360, Note_on_c, 2, 55, 0
10, 24421, Note_on_c, 2, 62, 78
10, 24422, Note_on_c, 2, 60, 0
10, 24479, Note_on_c, 2, 62, 0
10, 24479, Note_on_c, 2, 63, 88
10, 24657, Note_on_c, 2, 63, 0
10, 24658, Note_on_c, 2, 65, 78
10, 24705, Note_on_c, 2, 62, 70
10, 24707, Note_on_c, 2, 65, 0
10, 24717, Note_on_c, 2, 60, 62
10, 24720, Note_on_c, 2, 62, 0
10, 24793, Note_on_c, 2, 60, 0
10, 24955, Note_on_c, 2, 64, 70
10, 25076, Note_on_c, 2, 62, 70
10, 25077, Note_on_c, 2, 64, 0
10, 25195, Note_on_c, 2, 62, 0
10, 25196, Note_on_c, 2, 60, 55
10, 25348, Note_on_c, 2, 60, 0
10, 25348, Note_on_c, 2, 65, 62
10, 25380, Note_on_c, 2, 64, 55
10, 25385, Note_on_c, 2, 65, 0
10, 25408, Note_on_c, 2, 62, 62
10, 25410, Note_on_c, 2, 64, 0
10, 25441, Note_on_c, 2, 64, 55
10, 25445, Note_on_c, 2, 62, 0
10, 25557, Note_on_c, 2, 64, 0
10, 25557, Note_on_c, 2, 59, 70
10, 25673, Note_on_c, 2, 59, 0
10, 25675, Note_on_c, 2, 60, 70
10, 25796, Note_on_c, 2, 60, 0
10, 25796, Note_on_c, 2, 64, 70
10, 25839, Note_on_c, 2, 64, 0
10, 25856, Note_on_c, 2, 64, 55
10, 25917, Note_on_c, 2, 64, 0
10, 25918, Note_on_c, 2, 65, 70
10, 26035, Note_on_c, 2, 65, 0
10, 26035, Note_on_c, 2, 64, 70
10, 26159, Note_on_c, 2, 64, 0
10, 26159, Note_on_c, 2, 65, 78
10, 26215, Note_on_c, 2, 65, 0
10, 26216, Note_on_c, 2, 60, 78
10, 26338, Note_on_c, 2, 57, 70
10, 26340, Note_on_c, 2, 60, 0
10, 26392, Note_on_c, 2, 57, 0
10, 26397, Note_on_c, 2, 55, 88
10, 26516, Note_on_c, 2, 55, 0
10, 26518, Note_on_c, 2, 53, 70
10, 26524, Note_on_c, 2, 55, 70
10, 26528, Note_on_c, 2, 53, 0
10, 26531, Note_on_c, 2, 53, 49
10, 26534, Note_on_c, 2, 55, 0
10, 26634, Note_on_c, 2, 53, 0
10, 26636, Note_on_c, 2, 52, 88
10, 26726, Note_on_c, 2, 52, 0
10, 40320, Note_on_c, 2, 60, 62
10, 40500, Note_on_c, 2, 62, 49
10, 40506, Note_on_c, 2, 60, 0
10, 40529, Note_on_c, 2, 62, 0
10, 40530, Note_on_c, 2, 59, 55
10, 40560, Note_on_c, 2, 60, 55
10, 40561, Note_on_c, 2, 59, 0
10, 40607, Note_on_c, 2, 60, 0
10, 40800, Note_on_c, 2, 60, 55
10, 40980, Note_on_c, 2, 62, 55
10, 40981, Note_on_c, 2, 60, 0
10, 41006, Note_on_c, 2, 62, 0
10, 41010, Note_on_c, 2, 59, 44
10, 41040, Note_on_c, 2, 60, 55
10, 41041, Note_on_c, 2, 59, 0
10, 41084, Note_on_c, 2, 60, 0
10, 41084, End_track
11, 0, Start_track
11, 0, MIDI_port, 0
11, 0, Title_t, "bass solo"
11, 23997, Note_on_c, 2, 60, 70
11, 24121, Note_on_c, 2, 55, 70
11, 24124, Note_on_c, 2, 60, 0
11, 24240, Note_on_c, 2, 51, 78
11, 24243, Note_on_c, 2, 55, 0
11, 24299, Note_on_c, 2, 51, 0
11, 24300, Note_on_c, 2, 48, 70
11, 24353, Note_on_c, 2, 48, 0
11, 24481, Note_on_c, 2, 60, 88
11, 24601, Note_on_c, 2, 55, 70
11, 24602, Note_on_c, 2, 60, 0
11, 24720, Note_on_c, 2, 55, 0
11, 24720, Note_on_c, 2, 52, 62
11, 24778, Note_on_c, 2, 48, 70
11, 24779, Note_on_c, 2, 52, 0
11, 24833, Note_on_c, 2, 48, 0
11, 24960, Note_on_c, 2, 60, 78
11, 25078, Note_on_c, 2, 60, 0
11, 25079, Note_on_c, 2, 59, 78
11, 25200, Note_on_c, 2, 59, 0
11, 25200, Note_on_c, 2, 57, 88
11, 25320, Note_on_c, 2, 57, 0
11, 25320, Note_on_c, 2, 53, 78
11, 25439, Note_on_c, 2, 55, 78
11, 25442, Note_on_c, 2, 53, 0
11, 25558, Note_on_c, 2, 56, 88
11, 25559, Note_on_c, 2, 55, 0
11, 25671, Note_on_c, 2, 56, 0
11, 25675, Note_on_c, 2, 57, 88
11, 25800, Note_on_c, 2, 57, 0
11, 25800, Note_on_c, 2, 58, 88
11, 25849, Note_on_c, 2, 58, 0
11, 25861, Note_on_c, 2, 58, 88
11, 25922, Note_on_c, 2, 58, 0
11, 25922, Note_on_c, 2, 57, 88
11, 26040, Note_on_c, 2, 57, 0
11, 26040, Note_on_c, 2, 55, 78
11, 26156, Note_on_c, 2, 55, 0
11, 26156, Note_on_c, 2, 53, 78
11, 26313, Note_on_c, 2, 53, 0
11, 26339, Note_on_c, 2, 53, 78
11, 26402, Note_on_c, 2, 53, 0
11, 26402, Note_on_c, 2, 55, 98
11, 26519, Note_on_c, 2, 43, 62
11, 26522, Note_on_c, 2, 55, 0
11, 26637, Note_on_c, 2, 43, 0
11, 26638, Note_on_c, 2, 48, 88
11, 26730, Note_on_c, 2, 48, 0
11, 40320, Note_on_c, 2, 60, 62
11, 40440, Note_on_c, 2, 55, 49
11, 40447, Note_on_c, 2, 60, 0
11, 40556, Note_on_c, 2, 55, 0
11, 40560, Note_on_c, 2, 48, 44
11, 40606, Note_on_c, 2, 48, 0
11, 40800, Note_on_c, 2, 60, 55
11, 40920, Note_on_c, 2, 55, 39
11, 40929, Note_on_c, 2, 60, 0
11, 41035, Note_on_c, 2, 55, 0
11, 41040, Note_on_c, 2, 48, 44
11, 41074, Note_on_c, 2, 48, 0
11, 41074, End_track
12, 0, Start_track
12, 0, MIDI_port, 0
12, 0, Title_t, "pedal "
12, 0, Control_c, 0, 64, 127
12, 81, Control_c, 0, 64, 0
12, 122, Control_c, 0, 64, 127
12, 184, Control_c, 0, 64, 0
12, 229, Control_c, 0, 64, 127
12, 296, Control_c, 0, 64, 0
12, 351, Control_c, 0, 64, 127
12, 417, Control_c, 0, 64, 0
12, 468, Control_c, 0, 64, 127
12, 535, Control_c, 0, 64, 0
12, 744, Control_c, 0, 64, 127
12, 795, Control_c, 0, 64, 0
12, 841, Control_c, 0, 64, 127
12, 912, Control_c, 0, 64, 0
12, 958, Control_c, 0, 64, 127
12, 1025, Control_c, 0, 64, 0
12, 1071, Control_c, 0, 64, 127
12, 1142, Control_c, 0, 64, 0
12, 1193, Control_c, 0, 64, 127
12, 1264, Control_c, 0, 64, 0
12, 1443, Control_c, 0, 64, 127
12, 1508, Control_c, 0, 64, 0
12, 1555, Control_c, 0, 64, 127
12, 1621, Control_c, 0, 64, 0
12, 1672, Control_c, 0, 64, 127
12, 1738, Control_c, 0, 64, 0
12, 1790, Control_c, 0, 64, 127
12, 1861, Control_c, 0, 64, 0
12, 1912, Control_c, 0, 64, 127
12, 1982, Control_c, 0, 64, 0
12, 2035, Control_c, 0, 64, 127
12, 2100, Control_c, 0, 64, 0
12, 2157, Control_c, 0, 64, 127
12, 2228, Control_c, 0, 64, 0
12, 2275, Control_c, 0, 64, 127
12, 2345, Control_c, 0, 64, 0
12, 2397, Control_c, 0, 64, 127
12, 2463, Control_c, 0, 64, 0
12, 2514, Control_c, 0, 64, 127
12, 2596, Control_c, 0, 64, 0
12, 2626, Control_c, 0, 64, 127
12, 2692, Control_c, 0, 64, 0
12, 2758, Control_c, 0, 64, 127
12, 2829, Control_c, 0, 64, 0
12, 2870, Control_c, 0, 64, 127
12, 2942, Control_c, 0, 64, 0
12, 2988, Control_c, 0, 64, 127
12, 3064, Control_c, 0, 64, 0
12, 3115, Control_c, 0, 64, 127
12, 3186, Control_c, 0, 64, 0
12, 3227, Control_c, 0, 64, 127
12, 3304, Control_c, 0, 64, 0
12, 3350, Control_c, 0, 64, 127
12, 3422, Control_c, 0, 64, 0
12, 3467, Control_c, 0, 64, 127
12, 3538, Control_c, 0, 64, 0
12, 3589, Control_c, 0, 64, 127
12, 3661, Control_c, 0, 64, 0
12, 3717, Control_c, 0, 64, 127
12, 3783, Control_c, 0, 64, 0
12, 3834, Control_c, 0, 64, 127
12, 3906, Control_c, 0, 64, 0
12, 3952, Control_c, 0, 64, 127
12, 4027, Control_c, 0, 64, 0
12, 4079, Control_c, 0, 64, 127
12, 4145, Control_c, 0, 64, 0
12, 4202, Control_c, 0, 64, 127
12, 4262, Control_c, 0, 64, 0
12, 4314, Control_c, 0, 64, 127
12, 4384, Control_c, 0, 64, 0
12, 4431, Control_c, 0, 64, 127
12, 4502, Control_c, 0, 64, 0
12, 4549, Control_c, 0, 64, 127
12, 4624, Control_c, 0, 64, 0
12, 4676, Control_c, 0, 64, 127
12, 4741, Control_c, 0, 64, 0
12, 4793, Control_c, 0, 64, 127
12, 4859, Control_c, 0, 64, 0
12, 4921, Control_c, 0, 64, 127
12, 4987, Control_c, 0, 64, 0
12, 5033, Control_c, 0, 64, 127
12, 5098, Control_c, 0, 64, 0
12, 5155, Control_c, 0, 64, 127
12, 5232, Control_c, 0, 64, 0
12, 5268, Control_c, 0, 64, 127
12, 5338, Control_c, 0, 64, 0
12, 5385, Control_c, 0, 64, 127
12, 5455, Control_c, 0, 64, 0
12, 5507, Control_c, 0, 64, 127
12, 5578, Control_c, 0, 64, 0
12, 5629, Control_c, 0, 64, 127
12, 5695, Control_c, 0, 64, 0
12, 5751, Control_c, 0, 64, 127
12, 5829, Control_c, 0, 64, 0
12, 5874, Control_c, 0, 64, 127
12, 5951, Control_c, 0, 64, 0
12, 5996, Control_c, 0, 64, 127
12, 6068, Control_c, 0, 64, 0
12, 6119, Control_c, 0, 64, 127
12, 6190, Control_c, 0, 64, 0
12, 6236, Control_c, 0, 64, 127
12, 6307, Control_c, 0, 64, 0
12, 6353, Control_c, 0, 64, 127
12, 6425, Control_c, 0, 64, 0
12, 6476, Control_c, 0, 64, 127
12, 6552, Control_c, 0, 64, 0
12, 6598, Control_c, 0, 64, 127
12, 6669, Control_c, 0, 64, 0
12, 6715, Control_c, 0, 64, 127
12, 6791, Control_c, 0, 64, 0
12, 6838, Control_c, 0, 64, 127
12, 6908, Control_c, 0, 64, 0
12, 6954, Control_c, 0, 64, 127
12, 7026, Control_c, 0, 64, 0
12, 7073, Control_c, 0, 64, 127
12, 7143, Control_c, 0, 64, 0
12, 7200, Control_c, 0, 64, 127
12, 7271, Control_c, 0, 64, 0
12, 7317, Control_c, 0, 64, 127
12, 7389, Control_c, 0, 64, 0
12, 7430, Control_c, 0, 64, 127
12, 7500, Control_c, 0, 64, 0
12, 7552, Control_c, 0, 64, 127
12, 7623, Control_c, 0, 64, 0
12, 7669, Control_c, 0, 64, 127
12, 7746, Control_c, 0, 64, 0
12, 7787, Control_c, 0, 64, 127
12, 7862, Control_c, 0, 64, 0
12, 7903, Control_c, 0, 64, 127
12, 7980, Control_c, 0, 64, 0
12, 8021, Control_c, 0, 64, 127
12, 8098, Control_c, 0, 64, 0
12, 8143, Control_c, 0, 64, 127
12, 8220, Control_c, 0, 64, 0
12, 8265, Control_c, 0, 64, 127
12, 8342, Control_c, 0, 64, 0
12, 8387, Control_c, 0, 64, 127
12, 8459, Control_c, 0, 64, 0
12, 8514, Control_c, 0, 64, 127
12, 8577, Control_c, 0, 64, 0
12, 8627, Control_c, 0, 64, 127
12, 8704, Control_c, 0, 64, 0
12, 8750, Control_c, 0, 64, 127
12, 8816, Control_c, 0, 64, 0
12, 8866, Control_c, 0, 64, 127
12, 8939, Control_c, 0, 64, 0
12, 8984, Control_c, 0, 64, 127
12, 9056, Control_c, 0, 64, 0
12, 9107, Control_c, 0, 64, 127
12, 9178, Control_c, 0, 64, 0
12, 9229, Control_c, 0, 64, 127
12, 9300, Control_c, 0, 64, 0
12, 9346, Control_c, 0, 64, 127
12, 9418, Control_c, 0, 64, 0
12, 9469, Control_c, 0, 64, 127
12, 9540, Control_c, 0, 64, 0
12, 9592, Control_c, 0, 64, 127
12, 9658, Control_c, 0, 64, 0
12, 9709, Control_c, 0, 64, 127
12, 9775, Control_c, 0, 64, 0
12, 9826, Control_c, 0, 64, 127
12, 9897, Control_c, 0, 64, 0
12, 9943, Control_c, 0, 64, 127
12, 10020, Control_c, 0, 64, 0
12, 10066, Control_c, 0, 64, 127
12, 10142, Control_c, 0, 64, 0
12, 10193, Control_c, 0, 64, 127
12, 10265, Control_c, 0, 64, 0
12, 10316, Control_c, 0, 64, 127
12, 10382, Control_c, 0, 64, 0
12, 10433, Control_c, 0, 64, 127
12, 10498, Control_c, 0, 64, 0
12, 10550, Control_c, 0, 64, 127
12, 10616, Control_c, 0, 64, 0
12, 10667, Control_c, 0, 64, 127
12, 10738, Control_c, 0, 64, 0
12, 10789, Control_c, 0, 64, 127
12, 10856, Control_c, 0, 64, 0
12, 10902, Control_c, 0, 64, 127
12, 10973, Control_c, 0, 64, 0
12, 11029, Control_c, 0, 64, 127
12, 11096, Control_c, 0, 64, 0
12, 11151, Control_c, 0, 64, 127
12, 11218, Control_c, 0, 64, 0
12, 11273, Control_c, 0, 64, 127
12, 11345, Control_c, 0, 64, 0
12, 11396, Control_c, 0, 64, 127
12, 11468, Control_c, 0, 64, 0
12, 11519, Control_c, 0, 64, 127
12, 11585, Control_c, 0, 64, 0
12, 11636, Control_c, 0, 64, 127
12, 11707, Control_c, 0, 64, 0
12, 11754, Control_c, 0, 64, 127
12, 11825, Control_c, 0, 64, 0
12, 11870, Control_c, 0, 64, 127
12, 11937, Control_c, 0, 64, 0
12, 11987, Control_c, 0, 64, 127
12, 12049, Control_c, 0, 64, 0
12, 12105, Control_c, 0, 64, 127
12, 12176, Control_c, 0, 64, 0
12, 12228, Control_c, 0, 64, 127
12, 12299, Control_c, 0, 64, 0
12, 12355, Control_c, 0, 64, 127
12, 12427, Control_c, 0, 64, 0
12, 12473, Control_c, 0, 64, 127
12, 12538, Control_c, 0, 64, 0
12, 12590, Control_c, 0, 64, 127
12, 12655, Control_c, 0, 64, 0
12, 12707, Control_c, 0, 64, 127
12, 12778, Control_c, 0, 64, 0
12, 12835, Control_c, 0, 64, 127
12, 12900, Control_c, 0, 64, 0
12, 12957, Control_c, 0, 64, 127
12, 13023, Control_c, 0, 64, 0
12, 13074, Control_c, 0, 64, 127
12, 13140, Control_c, 0, 64, 0
12, 13192, Control_c, 0, 64, 127
12, 13252, Control_c, 0, 64, 0
12, 13304, Control_c, 0, 64, 127
12, 13370, Control_c, 0, 64, 0
12, 13426, Control_c, 0, 64, 127
12, 13487, Control_c, 0, 64, 0
12, 13543, Control_c, 0, 64, 127
12, 13610, Control_c, 0, 64, 0
12, 13670, Control_c, 0, 64, 127
12, 13737, Control_c, 0, 64, 0
12, 13793, Control_c, 0, 64, 127
12, 13844, Control_c, 0, 64, 0
12, 13910, Control_c, 0, 64, 127
12, 13972, Control_c, 0, 64, 0
12, 14037, Control_c, 0, 64, 127
12, 14094, Control_c, 0, 64, 0
12, 14150, Control_c, 0, 64, 127
12, 14211, Control_c, 0, 64, 0
12, 14278, Control_c, 0, 64, 127
12, 14354, Control_c, 0, 64, 0
12, 14400, Control_c, 0, 64, 127
12, 14461, Control_c, 0, 64, 0
12, 14506, Control_c, 0, 64, 127
12, 14568, Control_c, 0, 64, 0
12, 14624, Control_c, 0, 64, 127
12, 14686, Control_c, 0, 64, 0
12, 14746, Control_c, 0, 64, 127
12, 14808, Control_c, 0, 64, 0
12, 14864, Control_c, 0, 64, 127
12, 14925, Control_c, 0, 64, 0
12, 14981, Control_c, 0, 64, 127
12, 15037, Control_c, 0, 64, 0
12, 15108, Control_c, 0, 64, 127
12, 15169, Control_c, 0, 64, 0
12, 15231, Control_c, 0, 64, 127
12, 15292, Control_c, 0, 64, 0
12, 15358, Control_c, 0, 64, 127
12, 15415, Control_c, 0, 64, 0
12, 15486, Control_c, 0, 64, 127
12, 15542, Control_c, 0, 64, 0
12, 15603, Control_c, 0, 64, 127
12, 15659, Control_c, 0, 64, 0
12, 15720, Control_c, 0, 64, 127
12, 15776, Control_c, 0, 64, 0
12, 15833, Control_c, 0, 64, 127
12, 15893, Control_c, 0, 64, 0
12, 15960, Control_c, 0, 64, 127
12, 16022, Control_c, 0, 64, 0
12, 16082, Control_c, 0, 64, 127
12, 16149, Control_c, 0, 64, 0
12, 16205, Control_c, 0, 64, 127
12, 16266, Control_c, 0, 64, 0
12, 16327, Control_c, 0, 64, 127
12, 16389, Control_c, 0, 64, 0
12, 16449, Control_c, 0, 64, 127
12, 16507, Control_c, 0, 64, 0
12, 16562, Control_c, 0, 64, 127
12, 16628, Control_c, 0, 64, 0
12, 16684, Control_c, 0, 64, 127
12, 16741, Control_c, 0, 64, 0
12, 16796, Control_c, 0, 64, 127
12, 16863, Control_c, 0, 64, 0
12, 16919, Control_c, 0, 64, 127
12, 16985, Control_c, 0, 64, 0
12, 17040, Control_c, 0, 64, 127
12, 17102, Control_c, 0, 64, 0
12, 17158, Control_c, 0, 64, 127
12, 17220, Control_c, 0, 64, 0
12, 17271, Control_c, 0, 64, 127
12, 17332, Control_c, 0, 64, 0
12, 17394, Control_c, 0, 64, 127
12, 17454, Control_c, 0, 64, 0
12, 17515, Control_c, 0, 64, 127
12, 17581, Control_c, 0, 64, 0
12, 17633, Control_c, 0, 64, 127
12, 17699, Control_c, 0, 64, 0
12, 17760, Control_c, 0, 64, 127
12, 17822, Control_c, 0, 64, 0
12, 17883, Control_c, 0, 64, 127
12, 17938, Control_c, 0, 64, 0
12, 17995, Control_c, 0, 64, 127
12, 18050, Control_c, 0, 64, 0
12, 18112, Control_c, 0, 64, 127
12, 18167, Control_c, 0, 64, 0
12, 18225, Control_c, 0, 64, 127
12, 18290, Control_c, 0, 64, 0
12, 18352, Control_c, 0, 64, 127
12, 18418, Control_c, 0, 64, 0
12, 18474, Control_c, 0, 64, 127
12, 18546, Control_c, 0, 64, 0
12, 18591, Control_c, 0, 64, 127
12, 18657, Control_c, 0, 64, 0
12, 18713, Control_c, 0, 64, 127
12, 18780, Control_c, 0, 64, 0
12, 18836, Control_c, 0, 64, 127
12, 18908, Control_c, 0, 64, 0
12, 18958, Control_c, 0, 64, 127
12, 19025, Control_c, 0, 64, 0
12, 19081, Control_c, 0, 64, 127
12, 19147, Control_c, 0, 64, 0
12, 19198, Control_c, 0, 64, 127
12, 19265, Control_c, 0, 64, 0
12, 19310, Control_c, 0, 64, 127
12, 19382, Control_c, 0, 64, 0
12, 19427, Control_c, 0, 64, 127
12, 19494, Control_c, 0, 64, 0
12, 19550, Control_c, 0, 64, 127
12, 19616, Control_c, 0, 64, 0
12, 19672, Control_c, 0, 64, 127
12, 19734, Control_c, 0, 64, 0
12, 19790, Control_c, 0, 64, 127
12, 19856, Control_c, 0, 64, 0
12, 19906, Control_c, 0, 64, 127
12, 19973, Control_c, 0, 64, 0
12, 20029, Control_c, 0, 64, 127
12, 20131, Control_c, 0, 64, 0
12, 26704, Control_c, 0, 64, 127
12, 26740, Control_c, 0, 64, 0
12, 26765, Control_c, 0, 64, 127
12, 26791, Control_c, 0, 64, 0
12, 26817, Control_c, 0, 64, 127
12, 26847, Control_c, 0, 64, 0
12, 26893, Control_c, 0, 64, 127
12, 26949, Control_c, 0, 64, 0
12, 27010, Control_c, 0, 64, 127
12, 27072, Control_c, 0, 64, 0
12, 27123, Control_c, 0, 64, 127
12, 27194, Control_c, 0, 64, 0
12, 27240, Control_c, 0, 64, 127
12, 27306, Control_c, 0, 64, 0
12, 27357, Control_c, 0, 64, 127
12, 27428, Control_c, 0, 64, 0
12, 27479, Control_c, 0, 64, 127
12, 27561, Control_c, 0, 64, 0
12, 27602, Control_c, 0, 64, 127
12, 27678, Control_c, 0, 64, 0
12, 27724, Control_c, 0, 64, 127
12, 27790, Control_c, 0, 64, 0
12, 27840, Control_c, 0, 64, 127
12, 27912, Control_c, 0, 64, 0
12, 27964, Control_c, 0, 64, 127
12, 28041, Control_c, 0, 64, 0
12, 28087, Control_c, 0, 64, 127
12, 28152, Control_c, 0, 64, 0
12, 28198, Control_c, 0, 64, 127
12, 28264, Control_c, 0, 64, 0
12, 28320, Control_c, 0, 64, 127
12, 28391, Control_c, 0, 64, 0
12, 28443, Control_c, 0, 64, 127
12, 28509, Control_c, 0, 64, 0
12, 28566, Control_c, 0, 64, 127
12, 28632, Control_c, 0, 64, 0
12, 28678, Control_c, 0, 64, 127
12, 28744, Control_c, 0, 64, 0
12, 28795, Control_c, 0, 64, 127
12, 28882, Control_c, 0, 64, 0
12, 28917, Control_c, 0, 64, 127
12, 29000, Control_c, 0, 64, 0
12, 29039, Control_c, 0, 64, 127
12, 29116, Control_c, 0, 64, 0
12, 29157, Control_c, 0, 64, 127
12, 29234, Control_c, 0, 64, 0
12, 29274, Control_c, 0, 64, 127
12, 29346, Control_c, 0, 64, 0
12, 29397, Control_c, 0, 64, 127
12, 29474, Control_c, 0, 64, 0
12, 29529, Control_c, 0, 64, 127
12, 29596, Control_c, 0, 64, 0
12, 29636, Control_c, 0, 64, 127
12, 29703, Control_c, 0, 64, 0
12, 29754, Control_c, 0, 64, 127
12, 29825, Control_c, 0, 64, 0
12, 29876, Control_c, 0, 64, 127
12, 29947, Control_c, 0, 64, 0
12, 29998, Control_c, 0, 64, 127
12, 30075, Control_c, 0, 64, 0
12, 30116, Control_c, 0, 64, 127
12, 30187, Control_c, 0, 64, 0
12, 30233, Control_c, 0, 64, 127
12, 30304, Control_c, 0, 64, 0
12, 30355, Control_c, 0, 64, 127
12, 30426, Control_c, 0, 64, 0
12, 30478, Control_c, 0, 64, 127
12, 30549, Control_c, 0, 64, 0
12, 30600, Control_c, 0, 64, 127
12, 30667, Control_c, 0, 64, 0
12, 30718, Control_c, 0, 64, 127
12, 30905, Control_c, 0, 64, 0
12, 30953, Control_c, 0, 64, 127
12, 31064, Control_c, 0, 64, 0
12, 31197, Control_c, 0, 64, 127
12, 31482, Control_c, 0, 64, 0
12, 31691, Control_c, 0, 64, 127
12, 31757, Control_c, 0, 64, 0
12, 31809, Control_c, 0, 64, 127
12, 31876, Control_c, 0, 64, 0
12, 31930, Control_c, 0, 64, 127
12, 32008, Control_c, 0, 64, 0
12, 32048, Control_c, 0, 64, 127
12, 32120, Control_c, 0, 64, 0
12, 32166, Control_c, 0, 64, 127
12, 32233, Control_c, 0, 64, 0
12, 32283, Control_c, 0, 64, 127
12, 32344, Control_c, 0, 64, 0
12, 32395, Control_c, 0, 64, 127
12, 32472, Control_c, 0, 64, 0
12, 32645, Control_c, 0, 64, 127
12, 32716, Control_c, 0, 64, 0
12, 32772, Control_c, 0, 64, 127
12, 32828, Control_c, 0, 64, 0
12, 32894, Control_c, 0, 64, 127
12, 32946, Control_c, 0, 64, 0
12, 33002, Control_c, 0, 64, 127
12, 33063, Control_c, 0, 64, 0
12, 33119, Control_c, 0, 64, 127
12, 33190, Control_c, 0, 64, 0
12, 33241, Control_c, 0, 64, 127
12, 33307, Control_c, 0, 64, 0
12, 33354, Control_c, 0, 64, 127
12, 33419, Control_c, 0, 64, 0
12, 33476, Control_c, 0, 64, 127
12, 33542, Control_c, 0, 64, 0
12, 33598, Control_c, 0, 64, 127
12, 33669, Control_c, 0, 64, 0
12, 33727, Control_c, 0, 64, 127
12, 33797, Control_c, 0, 64, 0
12, 33844, Control_c, 0, 64, 127
12, 33909, Control_c, 0, 64, 0
12, 33960, Control_c, 0, 64, 127
12, 34032, Control_c, 0, 64, 0
12, 34083, Control_c, 0, 64, 127
12, 34144, Control_c, 0, 64, 0
12, 34200, Control_c, 0, 64, 127
12, 34272, Control_c, 0, 64, 0
12, 34317, Control_c, 0, 64, 127
12, 34383, Control_c, 0, 64, 0
12, 34557, Control_c, 0, 64, 127
12, 34858, Control_c, 0, 64, 0
12, 35046, Control_c, 0, 64, 127
12, 35317, Control_c, 0, 64, 0
12, 35536, Control_c, 0, 64, 127
12, 35602, Control_c, 0, 64, 0
12, 35648, Control_c, 0, 64, 127
12, 35735, Control_c, 0, 64, 0
12, 35771, Control_c, 0, 64, 127
12, 35883, Control_c, 0, 64, 0
12, 35898, Control_c, 0, 64, 127
12, 35965, Control_c, 0, 64, 0
12, 36000, Control_c, 0, 64, 127
12, 36076, Control_c, 0, 64, 0
12, 36118, Control_c, 0, 64, 127
12, 36205, Control_c, 0, 64, 0
12, 36251, Control_c, 0, 64, 127
12, 36331, Control_c, 0, 64, 0
12, 36480, Control_c, 0, 64, 127
12, 36571, Control_c, 0, 64, 0
12, 36612, Control_c, 0, 64, 127
12, 36689, Control_c, 0, 64, 0
12, 36729, Control_c, 0, 64, 127
12, 36807, Control_c, 0, 64, 0
12, 36846, Control_c, 0, 64, 127
12, 36924, Control_c, 0, 64, 0
12, 36964, Control_c, 0, 64, 127
12, 37056, Control_c, 0, 64, 0
12, 37091, Control_c, 0, 64, 127
12, 37163, Control_c, 0, 64, 0
12, 37203, Control_c, 0, 64, 127
12, 37281, Control_c, 0, 64, 0
12, 37326, Control_c, 0, 64, 127
12, 37392, Control_c, 0, 64, 0
12, 37427, Control_c, 0, 64, 127
12, 37530, Control_c, 0, 64, 0
12, 37566, Control_c, 0, 64, 127
12, 37642, Control_c, 0, 64, 0
12, 37677, Control_c, 0, 64, 127
12, 37759, Control_c, 0, 64, 0
12, 37800, Control_c, 0, 64, 127
12, 37887, Control_c, 0, 64, 0
12, 37923, Control_c, 0, 64, 127
12, 38004, Control_c, 0, 64, 0
12, 38044, Control_c, 0, 64, 127
12, 38116, Control_c, 0, 64, 0
12, 38162, Control_c, 0, 64, 127
12, 38223, Control_c, 0, 64, 0
12, 38580, Control_c, 0, 64, 127
12, 38627, Control_c, 0, 64, 0
12, 38652, Control_c, 0, 64, 127
12, 38734, Control_c, 0, 64, 0
12, 38764, Control_c, 0, 64, 127
12, 38840, Control_c, 0, 64, 0
12, 38876, Control_c, 0, 64, 127
12, 38947, Control_c, 0, 64, 0
12, 39376, Control_c, 0, 64, 127
12, 39443, Control_c, 0, 64, 0
12, 39488, Control_c, 0, 64, 127
12, 39519, Control_c, 0, 64, 0
12, 39549, Control_c, 0, 64, 127
12, 39575, Control_c, 0, 64, 0
12, 39610, Control_c, 0, 64, 127
12, 39688, Control_c, 0, 64, 0
12, 39722, Control_c, 0, 64, 127
12, 39789, Control_c, 0, 64, 0
12, 39839, Control_c, 0, 64, 127
12, 39891, Control_c, 0, 64, 0
12, 40344, Control_c, 0, 64, 127
12, 40375, Control_c, 0, 64, 0
12, 40564, Control_c, 0, 64, 127
12, 40615, Control_c, 0, 64, 0
12, 40809, Control_c, 0, 64, 127
12, 40874, Control_c, 0, 64, 0
12, 41533, Control_c, 0, 64, 127
12, 41732, Control_c, 0, 64, 0
12, 42257, Control_c, 0, 64, 127
12, 42303, Control_c, 0, 64, 0
12, 42971, Control_c, 0, 64, 127
12, 43017, Control_c, 0, 64, 0
12, 43083, Control_c, 0, 64, 127
12, 43129, Control_c, 0, 64, 0
12, 43200, Control_c, 0, 64, 127
12, 43262, Control_c, 0, 64, 0
12, 43318, Control_c, 0, 64, 127
12, 43374, Control_c, 0, 64, 0
12, 43440, Control_c, 0, 64, 127
12, 43486, Control_c, 0, 64, 0
12, 43558, Control_c, 0, 64, 127
12, 43613, Control_c, 0, 64, 0
12, 43680, Control_c, 0, 64, 127
12, 43803, Control_c, 0, 64, 0
12, 43803, End_track
13, 0, Start_track
13, 0, MIDI_port, 0
13, 0, Title_t, "sequenced by Michael Petri"
13, 0, End_track
0, 0, End_of_file