0, 0, Header, 1, 23, 240
1, 0, Start_track
1, 0, Title_t, "W.A. Mozart - Requiem K. 626"
1, 0, Time_signature, 12, 3, 12, 8
1, 0, Key_signature, -1, "major"
1, 0, Tempo, 923077
1, 0, Marker_t, "Conductor Track"
1, 44640, Tempo, 500000
1, 44640, End_track
2, 0, Start_track
2, 0, Title_t, "No. 7 - Lacrimosa"
2, 0, End_track
3, 0, Start_track
3, 0, Title_t, "Sequenced by D. Viens 28 Nov 1997"
3, 0, End_track
4, 0, Start_track
4, 0, Title_t, "dlviens@ix.netcom.com"
4, 0, End_track
5, 0, Start_track
5, 0, End_track
6, 0, Start_track
6, 0, Title_t, "Corni di Bassetto in F"
6, 0, Program_c, 0, 71
6, 0, Control_c, 0, 7, 96
6, 0, Control_c, 0, 10, 75
6, 0, Control_c, 0, 11, 127
6, 2880, Note_on_c, 0, 65, 48
6, 2880, Note_on_c, 0, 69, 48
6, 3359, Note_on_c, 0, 69, 0
6, 3359, Note_on_c, 0, 65, 0
6, 3360, Note_on_c, 0, 77, 48
6, 3360, Note_on_c, 0, 62, 48
6, 3479, Note_on_c, 0, 62, 0
6, 3479, Note_on_c, 0, 77, 0
6, 3480, Note_on_c, 0, 74, 48
6, 3480, Note_on_c, 0, 69, 48
6, 3599, Note_on_c, 0, 69, 0
6, 3599, Note_on_c, 0, 74, 0
6, 3600, Note_on_c, 0, 74, 48
6, 3600, Note_on_c, 0, 67, 48
6, 3959, Note_on_c, 0, 67, 0
6, 3959, Note_on_c, 0, 74, 0
6, 3960, Note_on_c, 0, 73, 48
6, 3960, Note_on_c, 0, 67, 48
6, 4079, Note_on_c, 0, 67, 0
6, 4079, Note_on_c, 0, 73, 0
6, 4320, Note_on_c, 0, 65, 48
6, 4320, Note_on_c, 0, 69, 48
6, 4799, Note_on_c, 0, 69, 0
6, 4799, Note_on_c, 0, 65, 0
6, 4800, Note_on_c, 0, 77, 48
6, 4800, Note_on_c, 0, 62, 48
6, 4919, Note_on_c, 0, 62, 0
6, 4919, Note_on_c, 0, 77, 0
6, 4920, Note_on_c, 0, 74, 48
6, 4920, Note_on_c, 0, 69, 48
6, 5039, Note_on_c, 0, 69, 0
6, 5039, Note_on_c, 0, 74, 0
6, 5040, Note_on_c, 0, 74, 48
6, 5040, Note_on_c, 0, 67, 48
6, 5399, Note_on_c, 0, 67, 0
6, 5399, Note_on_c, 0, 74, 0
6, 5400, Note_on_c, 0, 73, 48
6, 5400, Note_on_c, 0, 67, 48
6, 5519, Note_on_c, 0, 67, 0
6, 5519, Note_on_c, 0, 73, 0
6, 5760, Note_on_c, 0, 62, 48
6, 5760, Note_on_c, 0, 57, 48
6, 6119, Note_on_c, 0, 57, 0
6, 6119, Note_on_c, 0, 62, 0
6, 6120, Note_on_c, 0, 64, 48
6, 6120, Note_on_c, 0, 61, 48
6, 6479, Note_on_c, 0, 61, 0
6, 6479, Note_on_c, 0, 64, 0
6, 6480, Note_on_c, 0, 62, 48
6, 6480, Note_on_c, 0, 65, 48
6, 6839, Note_on_c, 0, 65, 0
6, 6839, Note_on_c, 0, 62, 0
6, 6840, Note_on_c, 0, 64, 48
6, 6840, Note_on_c, 0, 67, 48
6, 7199, Note_on_c, 0, 67, 0
6, 7199, Note_on_c, 0, 64, 0
6, 7200, Note_on_c, 0, 65, 48
6, 7200, Note_on_c, 0, 69, 48
6, 7559, Note_on_c, 0, 69, 0
6, 7559, Note_on_c, 0, 65, 0
6, 7560, Note_on_c, 0, 71, 48
6, 7560, Note_on_c, 0, 59, 48
6, 7919, Note_on_c, 0, 59, 0
6, 7919, Note_on_c, 0, 71, 0
6, 7920, Note_on_c, 0, 72, 48
6, 7920, Note_on_c, 0, 64, 48
6, 8279, Note_on_c, 0, 64, 0
6, 8279, Note_on_c, 0, 72, 0
6, 8280, Note_on_c, 0, 74, 48
6, 8280, Note_on_c, 0, 67, 48
6, 8639, Note_on_c, 0, 67, 0
6, 8639, Note_on_c, 0, 74, 0
6, 8640, Note_on_c, 0, 75, 48
6, 8640, Note_on_c, 0, 67, 48
6, 8999, Note_on_c, 0, 67, 0
6, 8999, Note_on_c, 0, 75, 0
6, 9000, Note_on_c, 0, 76, 54
6, 9000, Note_on_c, 0, 67, 54
6, 9359, Note_on_c, 0, 67, 0
6, 9359, Note_on_c, 0, 76, 0
6, 9360, Note_on_c, 0, 77, 60
6, 9360, Note_on_c, 0, 65, 60
6, 9719, Note_on_c, 0, 65, 0
6, 9719, Note_on_c, 0, 77, 0
6, 9720, Note_on_c, 0, 75, 66
6, 9720, Note_on_c, 0, 69, 66
6, 10079, Note_on_c, 0, 69, 0
6, 10079, Note_on_c, 0, 75, 0
6, 10080, Note_on_c, 0, 74, 72
6, 10080, Note_on_c, 0, 67, 72
6, 10439, Note_on_c, 0, 67, 0
6, 10439, Note_on_c, 0, 74, 0
6, 10440, Note_on_c, 0, 74, 72
6, 10440, Note_on_c, 0, 77, 72
6, 10799, Note_on_c, 0, 77, 0
6, 10799, Note_on_c, 0, 74, 0
6, 10800, Note_on_c, 0, 77, 72
6, 10800, Note_on_c, 0, 74, 72
6, 11159, Note_on_c, 0, 74, 0
6, 11159, Note_on_c, 0, 77, 0
6, 11160, Note_on_c, 0, 76, 72
6, 11160, Note_on_c, 0, 73, 72
6, 11399, Note_on_c, 0, 73, 0
6, 11399, Note_on_c, 0, 76, 0
6, 14400, Note_on_c, 0, 75, 72
6, 14400, Note_on_c, 0, 67, 72
6, 14999, Note_on_c, 0, 67, 0
6, 14999, Note_on_c, 0, 75, 0
6, 15000, Note_on_c, 0, 75, 72
6, 15000, Note_on_c, 0, 67, 72
6, 15119, Note_on_c, 0, 67, 0
6, 15119, Note_on_c, 0, 75, 0
6, 15120, Note_on_c, 0, 75, 72
6, 15120, Note_on_c, 0, 65, 72
6, 15479, Note_on_c, 0, 65, 0
6, 15479, Note_on_c, 0, 75, 0
6, 15480, Note_on_c, 0, 74, 72
6, 15480, Note_on_c, 0, 65, 72
6, 15719, Note_on_c, 0, 65, 0
6, 15719, Note_on_c, 0, 74, 0
6, 15840, Note_on_c, 0, 74, 72
6, 15840, Note_on_c, 0, 69, 72
6, 16199, Note_on_c, 0, 69, 0
6, 16199, Note_on_c, 0, 74, 0
6, 16200, Note_on_c, 0, 74, 72
6, 16200, Note_on_c, 0, 69, 72
6, 16319, Note_on_c, 0, 74, 0
6, 16320, Note_on_c, 0, 77, 72
6, 16439, Note_on_c, 0, 77, 0
6, 16439, Note_on_c, 0, 69, 0
6, 16440, Note_on_c, 0, 76, 72
6, 16440, Note_on_c, 0, 67, 72
6, 16559, Note_on_c, 0, 67, 0
6, 16559, Note_on_c, 0, 76, 0
6, 16560, Note_on_c, 0, 65, 72
6, 16560, Note_on_c, 0, 76, 72
6, 16919, Note_on_c, 0, 76, 0
6, 16920, Note_on_c, 0, 74, 72
6, 17039, Note_on_c, 0, 65, 0
6, 17040, Note_on_c, 0, 70, 72
6, 17159, Note_on_c, 0, 70, 0
6, 17159, Note_on_c, 0, 74, 0
6, 17160, Note_on_c, 0, 68, 72
6, 17279, Note_on_c, 0, 68, 0
6, 17280, Note_on_c, 0, 74, 72
6, 17280, Note_on_c, 0, 68, 72
6, 17639, Note_on_c, 0, 68, 0
6, 17640, Note_on_c, 0, 67, 72
6, 17879, Note_on_c, 0, 74, 0
6, 17880, Note_on_c, 0, 77, 72
6, 17999, Note_on_c, 0, 77, 0
6, 17999, Note_on_c, 0, 67, 0
6, 18000, Note_on_c, 0, 67, 72
6, 18000, Note_on_c, 0, 77, 72
6, 18359, Note_on_c, 0, 77, 0
6, 18359, Note_on_c, 0, 67, 0
6, 18360, Note_on_c, 0, 76, 72
6, 18360, Note_on_c, 0, 67, 72
6, 18599, Note_on_c, 0, 67, 0
6, 18599, Note_on_c, 0, 76, 0
6, 18720, Note_on_c, 0, 64, 72
6, 18720, Note_on_c, 0, 76, 72
6, 19199, Note_on_c, 0, 64, 0
6, 19200, Note_on_c, 0, 69, 72
6, 19319, Note_on_c, 0, 69, 0
6, 19319, Note_on_c, 0, 76, 0
6, 19320, Note_on_c, 0, 67, 72
6, 19320, Note_on_c, 0, 69, 72
6, 19439, Note_on_c, 0, 69, 0
6, 19439, Note_on_c, 0, 67, 0
6, 19440, Note_on_c, 0, 69, 72
6, 19440, Note_on_c, 0, 67, 72
6, 19799, Note_on_c, 0, 67, 0
6, 19799, Note_on_c, 0, 69, 0
6, 19800, Note_on_c, 0, 69, 72
6, 19800, Note_on_c, 0, 65, 72
6, 20039, Note_on_c, 0, 65, 0
6, 20039, Note_on_c, 0, 69, 0
6, 24840, Note_on_c, 0, 68, 48
6, 24840, Note_on_c, 0, 71, 48
6, 25199, Note_on_c, 0, 71, 0
6, 25199, Note_on_c, 0, 68, 0
6, 25200, Note_on_c, 0, 72, 48
6, 25200, Note_on_c, 0, 69, 48
6, 25559, Note_on_c, 0, 69, 0
6, 25560, Note_on_c, 0, 64, 48
6, 25679, Note_on_c, 0, 72, 0
6, 25680, Note_on_c, 0, 70, 48
6, 25799, Note_on_c, 0, 70, 0
6, 25800, Note_on_c, 0, 67, 48
6, 25919, Note_on_c, 0, 67, 0
6, 25919, Note_on_c, 0, 64, 0
6, 25920, Note_on_c, 0, 65, 48
6, 25920, Note_on_c, 0, 65, 48
6, 26279, Note_on_c, 0, 65, 0
6, 26280, Note_on_c, 0, 60, 48
6, 26639, Note_on_c, 0, 60, 0
6, 26640, Note_on_c, 0, 62, 48
6, 26999, Note_on_c, 0, 62, 0
6, 26999, Note_on_c, 0, 65, 0
6, 27000, Note_on_c, 0, 69, 48
6, 27000, Note_on_c, 0, 65, 48
6, 27119, Note_on_c, 0, 69, 0
6, 27120, Note_on_c, 0, 72, 48
6, 27239, Note_on_c, 0, 72, 0
6, 27240, Note_on_c, 0, 77, 48
6, 27359, Note_on_c, 0, 77, 0
6, 27359, Note_on_c, 0, 65, 0
6, 27360, Note_on_c, 0, 77, 48
6, 27360, Note_on_c, 0, 65, 48
6, 27839, Note_on_c, 0, 77, 0
6, 27840, Note_on_c, 0, 74, 48
6, 27959, Note_on_c, 0, 74, 0
6, 27960, Note_on_c, 0, 71, 48
6, 28079, Note_on_c, 0, 71, 0
6, 28080, Note_on_c, 0, 72, 48
6, 28439, Note_on_c, 0, 65, 0
6, 28440, Note_on_c, 0, 64, 48
6, 28559, Note_on_c, 0, 72, 0
6, 28560, Note_on_c, 0, 70, 48
6, 28679, Note_on_c, 0, 70, 0
6, 28680, Note_on_c, 0, 67, 48
6, 28799, Note_on_c, 0, 67, 0
6, 28799, Note_on_c, 0, 64, 0
6, 28800, Note_on_c, 0, 65, 48
6, 29039, Note_on_c, 0, 65, 0
6, 30240, Note_on_c, 0, 69, 72
6, 30240, Note_on_c, 0, 65, 72
6, 30719, Note_on_c, 0, 65, 0
6, 30719, Note_on_c, 0, 69, 0
6, 30720, Note_on_c, 0, 77, 72
6, 30720, Note_on_c, 0, 62, 72
6, 30839, Note_on_c, 0, 62, 0
6, 30839, Note_on_c, 0, 77, 0
6, 30840, Note_on_c, 0, 74, 72
6, 30840, Note_on_c, 0, 69, 72
6, 30959, Note_on_c, 0, 69, 0
6, 30959, Note_on_c, 0, 74, 0
6, 30960, Note_on_c, 0, 74, 72
6, 30960, Note_on_c, 0, 67, 72
6, 31319, Note_on_c, 0, 67, 0
6, 31319, Note_on_c, 0, 74, 0
6, 31320, Note_on_c, 0, 73, 72
6, 31320, Note_on_c, 0, 67, 72
6, 31439, Note_on_c, 0, 67, 0
6, 31439, Note_on_c, 0, 73, 0
6, 31680, Note_on_c, 0, 69, 72
6, 31680, Note_on_c, 0, 65, 72
6, 32159, Note_on_c, 0, 65, 0
6, 32159, Note_on_c, 0, 69, 0
6, 32160, Note_on_c, 0, 77, 72
6, 32160, Note_on_c, 0, 62, 72
6, 32279, Note_on_c, 0, 62, 0
6, 32279, Note_on_c, 0, 77, 0
6, 32280, Note_on_c, 0, 74, 72
6, 32280, Note_on_c, 0, 69, 72
6, 32399, Note_on_c, 0, 69, 0
6, 32399, Note_on_c, 0, 74, 0
6, 32400, Note_on_c, 0, 74, 72
6, 32400, Note_on_c, 0, 67, 72
6, 32759, Note_on_c, 0, 67, 0
6, 32759, Note_on_c, 0, 74, 0
6, 32760, Note_on_c, 0, 73, 72
6, 32760, Note_on_c, 0, 67, 72
6, 32879, Note_on_c, 0, 67, 0
6, 32879, Note_on_c, 0, 73, 0
6, 33840, Note_on_c, 0, 74, 72
6, 34199, Note_on_c, 0, 74, 0
6, 34200, Note_on_c, 0, 72, 72
6, 34559, Note_on_c, 0, 72, 0
6, 34560, Note_on_c, 0, 70, 72
6, 34560, Note_on_c, 0, 63, 72
6, 34919, Note_on_c, 0, 63, 0
6, 34919, Note_on_c, 0, 70, 0
6, 34920, Note_on_c, 0, 69, 72
6, 34920, Note_on_c, 0, 63, 72
6, 35279, Note_on_c, 0, 63, 0
6, 35279, Note_on_c, 0, 69, 0
6, 35280, Note_on_c, 0, 67, 72
6, 35280, Note_on_c, 0, 64, 72
6, 35639, Note_on_c, 0, 64, 0
6, 35639, Note_on_c, 0, 67, 0
6, 35640, Note_on_c, 0, 65, 72
6, 35640, Note_on_c, 0, 62, 72
6, 35999, Note_on_c, 0, 62, 0
6, 35999, Note_on_c, 0, 65, 0
6, 36000, Note_on_c, 0, 64, 72
6, 36000, Note_on_c, 0, 58, 72
6, 36359, Note_on_c, 0, 58, 0
6, 36359, Note_on_c, 0, 64, 0
6, 36360, Note_on_c, 0, 62, 72
6, 36360, Note_on_c, 0, 59, 72
6, 36719, Note_on_c, 0, 59, 0
6, 36719, Note_on_c, 0, 62, 0
6, 36720, Note_on_c, 0, 61, 72
6, 36720, Note_on_c, 0, 57, 72
6, 37079, Note_on_c, 0, 57, 0
6, 37079, Note_on_c, 0, 61, 0
6, 37080, Note_on_c, 0, 62, 72
6, 37080, Note_on_c, 0, 57, 72
6, 37439, Note_on_c, 0, 57, 0
6, 37439, Note_on_c, 0, 62, 0
6, 37440, Note_on_c, 0, 64, 72
6, 37440, Note_on_c, 0, 61, 72
6, 37799, Note_on_c, 0, 61, 0
6, 37799, Note_on_c, 0, 64, 0
6, 37800, Note_on_c, 0, 62, 72
6, 37800, Note_on_c, 0, 65, 72
6, 38159, Note_on_c, 0, 65, 0
6, 38160, Note_on_c, 0, 64, 72
6, 38519, Note_on_c, 0, 62, 0
6, 38520, Note_on_c, 0, 61, 72
6, 38879, Note_on_c, 0, 61, 0
6, 38879, Note_on_c, 0, 64, 0
6, 38880, Note_on_c, 0, 62, 72
6, 39239, Note_on_c, 0, 62, 0
6, 39240, Note_on_c, 0, 60, 72
6, 39240, Note_on_c, 0, 66, 72
6, 39599, Note_on_c, 0, 66, 0
6, 39599, Note_on_c, 0, 60, 0
6, 39600, Note_on_c, 0, 57, 72
6, 39600, Note_on_c, 0, 69, 72
6, 39959, Note_on_c, 0, 69, 0
6, 39959, Note_on_c, 0, 57, 0
6, 39960, Note_on_c, 0, 66, 72
6, 39960, Note_on_c, 0, 72, 72
6, 40319, Note_on_c, 0, 72, 0
6, 40319, Note_on_c, 0, 66, 0
6, 40320, Note_on_c, 0, 70, 72
6, 40320, Note_on_c, 0, 67, 72
6, 41759, Note_on_c, 0, 67, 0
6, 41759, Note_on_c, 0, 70, 0
6, 41760, Note_on_c, 0, 69, 72
6, 41760, Note_on_c, 0, 66, 72
6, 43199, Note_on_c, 0, 66, 0
6, 43199, Note_on_c, 0, 69, 0
6, 43199, End_track
7, 0, Start_track
7, 0, Title_t, "Bassoon"
7, 0, Program_c, 1, 70
7, 0, Control_c, 1, 7, 96
7, 0, Control_c, 1, 10, 65
7, 0, Control_c, 1, 11, 127
7, 2880, Note_on_c, 1, 62, 48
7, 2880, Note_on_c, 1, 50, 48
7, 3359, Note_on_c, 1, 62, 0
7, 3360, Note_on_c, 1, 57, 48
7, 3479, Note_on_c, 1, 57, 0
7, 3479, Note_on_c, 1, 50, 0
7, 3480, Note_on_c, 1, 53, 48
7, 3480, Note_on_c, 1, 50, 48
7, 3599, Note_on_c, 1, 50, 0
7, 3599, Note_on_c, 1, 53, 0
7, 3600, Note_on_c, 1, 58, 48
7, 3600, Note_on_c, 1, 52, 48
7, 3959, Note_on_c, 1, 52, 0
7, 3959, Note_on_c, 1, 58, 0
7, 3960, Note_on_c, 1, 57, 48
7, 3960, Note_on_c, 1, 45, 48
7, 4079, Note_on_c, 1, 45, 0
7, 4079, Note_on_c, 1, 57, 0
7, 4320, Note_on_c, 1, 57, 48
7, 4320, Note_on_c, 1, 50, 48
7, 4919, Note_on_c, 1, 50, 0
7, 4919, Note_on_c, 1, 57, 0
7, 4920, Note_on_c, 1, 53, 48
7, 4920, Note_on_c, 1, 50, 48
7, 5039, Note_on_c, 1, 50, 0
7, 5039, Note_on_c, 1, 53, 0
7, 5040, Note_on_c, 1, 58, 48
7, 5040, Note_on_c, 1, 52, 48
7, 5399, Note_on_c, 1, 52, 0
7, 5399, Note_on_c, 1, 58, 0
7, 5400, Note_on_c, 1, 57, 48
7, 5400, Note_on_c, 1, 45, 48
7, 5519, Note_on_c, 1, 45, 0
7, 5519, Note_on_c, 1, 57, 0
7, 5760, Note_on_c, 1, 53, 48
7, 5760, Note_on_c, 1, 50, 48
7, 6119, Note_on_c, 1, 50, 0
7, 6119, Note_on_c, 1, 53, 0
7, 6120, Note_on_c, 1, 57, 48
7, 6120, Note_on_c, 1, 45, 48
7, 6479, Note_on_c, 1, 45, 0
7, 6479, Note_on_c, 1, 57, 0
7, 6480, Note_on_c, 1, 57, 48
7, 6480, Note_on_c, 1, 50, 48
7, 6839, Note_on_c, 1, 50, 0
7, 6839, Note_on_c, 1, 57, 0
7, 6840, Note_on_c, 1, 60, 48
7, 6840, Note_on_c, 1, 48, 48
7, 7199, Note_on_c, 1, 48, 0
7, 7199, Note_on_c, 1, 60, 0
7, 7200, Note_on_c, 1, 60, 48
7, 7200, Note_on_c, 1, 53, 48
7, 7559, Note_on_c, 1, 53, 0
7, 7559, Note_on_c, 1, 60, 0
7, 7560, Note_on_c, 1, 56, 48
7, 7560, Note_on_c, 1, 52, 48
7, 7919, Note_on_c, 1, 52, 0
7, 7919, Note_on_c, 1, 56, 0
7, 7920, Note_on_c, 1, 57, 48
7, 8279, Note_on_c, 1, 57, 0
7, 8280, Note_on_c, 1, 59, 48
7, 8280, Note_on_c, 1, 55, 48
7, 8639, Note_on_c, 1, 55, 0
7, 8639, Note_on_c, 1, 59, 0
7, 8640, Note_on_c, 1, 60, 48
7, 8640, Note_on_c, 1, 48, 48
7, 8999, Note_on_c, 1, 48, 0
7, 8999, Note_on_c, 1, 60, 0
7, 9000, Note_on_c, 1, 60, 54
7, 9000, Note_on_c, 1, 58, 54
7, 9359, Note_on_c, 1, 58, 0
7, 9359, Note_on_c, 1, 60, 0
7, 9360, Note_on_c, 1, 60, 60
7, 9360, Note_on_c, 1, 57, 60
7, 9719, Note_on_c, 1, 57, 0
7, 9719, Note_on_c, 1, 60, 0
7, 9720, Note_on_c, 1, 63, 66
7, 9720, Note_on_c, 1, 60, 66
7, 10079, Note_on_c, 1, 60, 0
7, 10079, Note_on_c, 1, 63, 0
7, 10080, Note_on_c, 1, 62, 72
7, 10080, Note_on_c, 1, 59, 72
7, 10439, Note_on_c, 1, 59, 0
7, 10439, Note_on_c, 1, 62, 0
7, 10440, Note_on_c, 1, 65, 72
7, 10440, Note_on_c, 1, 58, 72
7, 10799, Note_on_c, 1, 58, 0
7, 10799, Note_on_c, 1, 65, 0
7, 10800, Note_on_c, 1, 65, 72
7, 10800, Note_on_c, 1, 57, 72
7, 11159, Note_on_c, 1, 57, 0
7, 11159, Note_on_c, 1, 65, 0
7, 11160, Note_on_c, 1, 64, 72
7, 11160, Note_on_c, 1, 45, 72
7, 11519, Note_on_c, 1, 45, 0
7, 11519, Note_on_c, 1, 64, 0
7, 14400, Note_on_c, 1, 58, 72
7, 14400, Note_on_c, 1, 55, 72
7, 14759, Note_on_c, 1, 55, 0
7, 14760, Note_on_c, 1, 43, 72
7, 14999, Note_on_c, 1, 58, 0
7, 15000, Note_on_c, 1, 58, 72
7, 15119, Note_on_c, 1, 58, 0
7, 15119, Note_on_c, 1, 43, 0
7, 15120, Note_on_c, 1, 44, 72
7, 15120, Note_on_c, 1, 58, 72
7, 15479, Note_on_c, 1, 58, 0
7, 15479, Note_on_c, 1, 44, 0
7, 15480, Note_on_c, 1, 58, 72
7, 15480, Note_on_c, 1, 56, 72
7, 15719, Note_on_c, 1, 56, 0
7, 15719, Note_on_c, 1, 58, 0
7, 15840, Note_on_c, 1, 65, 72
7, 15840, Note_on_c, 1, 57, 72
7, 16199, Note_on_c, 1, 57, 0
7, 16199, Note_on_c, 1, 65, 0
7, 16200, Note_on_c, 1, 45, 72
7, 16200, Note_on_c, 1, 65, 72
7, 16319, Note_on_c, 1, 65, 0
7, 16320, Note_on_c, 1, 62, 72
7, 16439, Note_on_c, 1, 62, 0
7, 16440, Note_on_c, 1, 57, 72
7, 16559, Note_on_c, 1, 57, 0
7, 16559, Note_on_c, 1, 45, 0
7, 16560, Note_on_c, 1, 46, 72
7, 16560, Note_on_c, 1, 62, 72
7, 16919, Note_on_c, 1, 62, 0
7, 16919, Note_on_c, 1, 46, 0
7, 16920, Note_on_c, 1, 62, 72
7, 16920, Note_on_c, 1, 58, 72
7, 17159, Note_on_c, 1, 58, 0
7, 17159, Note_on_c, 1, 62, 0
7, 17280, Note_on_c, 1, 65, 72
7, 17280, Note_on_c, 1, 59, 72
7, 17639, Note_on_c, 1, 59, 0
7, 17639, Note_on_c, 1, 65, 0
7, 17640, Note_on_c, 1, 47, 72
7, 17640, Note_on_c, 1, 65, 72
7, 17759, Note_on_c, 1, 65, 0
7, 17760, Note_on_c, 1, 62, 72
7, 17879, Note_on_c, 1, 62, 0
7, 17880, Note_on_c, 1, 59, 72
7, 17999, Note_on_c, 1, 59, 0
7, 17999, Note_on_c, 1, 47, 0
7, 18000, Note_on_c, 1, 48, 72
7, 18000, Note_on_c, 1, 55, 72
7, 18359, Note_on_c, 1, 48, 0
7, 18360, Note_on_c, 1, 60, 72
7, 18479, Note_on_c, 1, 55, 0
7, 18480, Note_on_c, 1, 60, 72
7, 18599, Note_on_c, 1, 60, 0
7, 18600, Note_on_c, 1, 58, 72
7, 18719, Note_on_c, 1, 58, 0
7, 18719, Note_on_c, 1, 60, 0
7, 18720, Note_on_c, 1, 61, 72
7, 18720, Note_on_c, 1, 58, 72
7, 19079, Note_on_c, 1, 61, 0
7, 19080, Note_on_c, 1, 49, 72
7, 19199, Note_on_c, 1, 58, 0
7, 19200, Note_on_c, 1, 57, 72
7, 19319, Note_on_c, 1, 57, 0
7, 19320, Note_on_c, 1, 64, 72
7, 19439, Note_on_c, 1, 64, 0
7, 19439, Note_on_c, 1, 49, 0
7, 19440, Note_on_c, 1, 64, 72
7, 19440, Note_on_c, 1, 62, 72
7, 19799, Note_on_c, 1, 62, 0
7, 19799, Note_on_c, 1, 64, 0
7, 19800, Note_on_c, 1, 62, 72
7, 19800, Note_on_c, 1, 50, 72
7, 20039, Note_on_c, 1, 50, 0
7, 20039, Note_on_c, 1, 62, 0
7, 24840, Note_on_c, 1, 65, 48
7, 24840, Note_on_c, 1, 62, 48
7, 25199, Note_on_c, 1, 62, 0
7, 25199, Note_on_c, 1, 65, 0
7, 25200, Note_on_c, 1, 65, 48
7, 25200, Note_on_c, 1, 60, 48
7, 25559, Note_on_c, 1, 60, 0
7, 25559, Note_on_c, 1, 65, 0
7, 25560, Note_on_c, 1, 58, 48
7, 25560, Note_on_c, 1, 48, 48
7, 25919, Note_on_c, 1, 48, 0
7, 25919, Note_on_c, 1, 58, 0
7, 25920, Note_on_c, 1, 57, 48
7, 25920, Note_on_c, 1, 53, 48
7, 26279, Note_on_c, 1, 53, 0
7, 26279, Note_on_c, 1, 57, 0
7, 26280, Note_on_c, 1, 63, 48
7, 26280, Note_on_c, 1, 45, 48
7, 26639, Note_on_c, 1, 45, 0
7, 26639, Note_on_c, 1, 63, 0
7, 26640, Note_on_c, 1, 62, 48
7, 26640, Note_on_c, 1, 46, 48
7, 26999, Note_on_c, 1, 46, 0
7, 26999, Note_on_c, 1, 62, 0
7, 27000, Note_on_c, 1, 63, 48
7, 27000, Note_on_c, 1, 48, 48
7, 27359, Note_on_c, 1, 48, 0
7, 27359, Note_on_c, 1, 63, 0
7, 27360, Note_on_c, 1, 62, 48
7, 27360, Note_on_c, 1, 46, 48
7, 27719, Note_on_c, 1, 46, 0
7, 27719, Note_on_c, 1, 62, 0
7, 27720, Note_on_c, 1, 56, 48
7, 27720, Note_on_c, 1, 50, 48
7, 28079, Note_on_c, 1, 50, 0
7, 28079, Note_on_c, 1, 56, 0
7, 28080, Note_on_c, 1, 57, 48
7, 28080, Note_on_c, 1, 48, 48
7, 28439, Note_on_c, 1, 48, 0
7, 28439, Note_on_c, 1, 57, 0
7, 28440, Note_on_c, 1, 36, 48
7, 28440, Note_on_c, 1, 58, 48
7, 28799, Note_on_c, 1, 58, 0
7, 28799, Note_on_c, 1, 36, 0
7, 28800, Note_on_c, 1, 57, 48
7, 28800, Note_on_c, 1, 41, 48
7, 29039, Note_on_c, 1, 41, 0
7, 29039, Note_on_c, 1, 57, 0
7, 30240, Note_on_c, 1, 62, 72
7, 30240, Note_on_c, 1, 50, 72
7, 30719, Note_on_c, 1, 62, 0
7, 30720, Note_on_c, 1, 57, 72
7, 30839, Note_on_c, 1, 57, 0
7, 30839, Note_on_c, 1, 50, 0
7, 30840, Note_on_c, 1, 53, 72
7, 30840, Note_on_c, 1, 50, 72
7, 30959, Note_on_c, 1, 50, 0
7, 30959, Note_on_c, 1, 53, 0
7, 30960, Note_on_c, 1, 58, 72
7, 30960, Note_on_c, 1, 52, 72
7, 31319, Note_on_c, 1, 52, 0
7, 31319, Note_on_c, 1, 58, 0
7, 31320, Note_on_c, 1, 57, 72
7, 31320, Note_on_c, 1, 45, 72
7, 31439, Note_on_c, 1, 45, 0
7, 31439, Note_on_c, 1, 57, 0
7, 31680, Note_on_c, 1, 57, 72
7, 31680, Note_on_c, 1, 50, 72
7, 32279, Note_on_c, 1, 50, 0
7, 32279, Note_on_c, 1, 57, 0
7, 32280, Note_on_c, 1, 53, 72
7, 32280, Note_on_c, 1, 50, 72
7, 32399, Note_on_c, 1, 50, 0
7, 32399, Note_on_c, 1, 53, 0
7, 32400, Note_on_c, 1, 58, 72
7, 32400, Note_on_c, 1, 52, 72
7, 32759, Note_on_c, 1, 52, 0
7, 32759, Note_on_c, 1, 58, 0
7, 32760, Note_on_c, 1, 57, 72
7, 32760, Note_on_c, 1, 45, 72
7, 32879, Note_on_c, 1, 45, 0
7, 32879, Note_on_c, 1, 57, 0
7, 33120, Note_on_c, 1, 62, 72
7, 33479, Note_on_c, 1, 62, 0
7, 33480, Note_on_c, 1, 60, 72
7, 33839, Note_on_c, 1, 60, 0
7, 33840, Note_on_c, 1, 62, 72
7, 33840, Note_on_c, 1, 58, 72
7, 34199, Note_on_c, 1, 58, 0
7, 34199, Note_on_c, 1, 62, 0
7, 34200, Note_on_c, 1, 66, 72
7, 34200, Note_on_c, 1, 57, 72
7, 34559, Note_on_c, 1, 57, 0
7, 34559, Note_on_c, 1, 66, 0
7, 34560, Note_on_c, 1, 67, 72
7, 34560, Note_on_c, 1, 55, 72
7, 34919, Note_on_c, 1, 55, 0
7, 34919, Note_on_c, 1, 67, 0
7, 34920, Note_on_c, 1, 55, 72
7, 34920, Note_on_c, 1, 48, 72
7, 35279, Note_on_c, 1, 48, 0
7, 35279, Note_on_c, 1, 55, 0
7, 35280, Note_on_c, 1, 58, 72
7, 35280, Note_on_c, 1, 49, 72
7, 35639, Note_on_c, 1, 49, 0
7, 35639, Note_on_c, 1, 58, 0
7, 35640, Note_on_c, 1, 57, 72
7, 35640, Note_on_c, 1, 50, 72
7, 35999, Note_on_c, 1, 50, 0
7, 35999, Note_on_c, 1, 57, 0
7, 36000, Note_on_c, 1, 55, 72
7, 36000, Note_on_c, 1, 43, 72
7, 36359, Note_on_c, 1, 43, 0
7, 36359, Note_on_c, 1, 55, 0
7, 36360, Note_on_c, 1, 53, 72
7, 36360, Note_on_c, 1, 44, 72
7, 36719, Note_on_c, 1, 44, 0
7, 36719, Note_on_c, 1, 53, 0
7, 36720, Note_on_c, 1, 52, 72
7, 36720, Note_on_c, 1, 45, 72
7, 37079, Note_on_c, 1, 52, 0
7, 37080, Note_on_c, 1, 53, 72
7, 37439, Note_on_c, 1, 53, 0
7, 37440, Note_on_c, 1, 57, 72
7, 38879, Note_on_c, 1, 57, 0
7, 38879, Note_on_c, 1, 45, 0
7, 38880, Note_on_c, 1, 57, 72
7, 38880, Note_on_c, 1, 50, 72
7, 39239, Note_on_c, 1, 50, 0
7, 39239, Note_on_c, 1, 57, 0
7, 39240, Note_on_c, 1, 54, 72
7, 39240, Note_on_c, 1, 50, 72
7, 39599, Note_on_c, 1, 50, 0
7, 39599, Note_on_c, 1, 54, 0
7, 39600, Note_on_c, 1, 60, 72
7, 39600, Note_on_c, 1, 54, 72
7, 39959, Note_on_c, 1, 54, 0
7, 39959, Note_on_c, 1, 60, 0
7, 39960, Note_on_c, 1, 57, 72
7, 40319, Note_on_c, 1, 57, 0
7, 40320, Note_on_c, 1, 58, 72
7, 40320, Note_on_c, 1, 55, 72
7, 41759, Note_on_c, 1, 55, 0
7, 41759, Note_on_c, 1, 58, 0
7, 41760, Note_on_c, 1, 57, 72
7, 41760, Note_on_c, 1, 50, 72
7, 43199, Note_on_c, 1, 50, 0
7, 43199, Note_on_c, 1, 57, 0
7, 43199, End_track
8, 0, Start_track
8, 0, Title_t, "Trumpet in D"
8, 0, Program_c, 2, 56
8, 0, Control_c, 2, 7, 96
8, 0, Control_c, 2, 10, 60
8, 0, Control_c, 2, 11, 127
8, 10800, Note_on_c, 2, 69, 72
8, 10800, Note_on_c, 2, 57, 72
8, 11039, Note_on_c, 2, 57, 0
8, 11039, Note_on_c, 2, 69, 0
8, 11160, Note_on_c, 2, 69, 72
8, 11160, Note_on_c, 2, 57, 72
8, 11399, Note_on_c, 2, 57, 0
8, 11399, Note_on_c, 2, 69, 0
8, 19080, Note_on_c, 2, 69, 72
8, 19080, Note_on_c, 2, 57, 72
8, 19319, Note_on_c, 2, 57, 0
8, 19319, Note_on_c, 2, 69, 0
8, 19440, Note_on_c, 2, 69, 72
8, 19440, Note_on_c, 2, 62, 72
8, 19679, Note_on_c, 2, 62, 0
8, 19679, Note_on_c, 2, 69, 0
8, 19800, Note_on_c, 2, 69, 72
8, 19800, Note_on_c, 2, 62, 72
8, 20039, Note_on_c, 2, 62, 0
8, 20039, Note_on_c, 2, 69, 0
8, 29880, Note_on_c, 2, 69, 72
8, 29880, Note_on_c, 2, 57, 72
8, 30119, Note_on_c, 2, 57, 0
8, 30119, Note_on_c, 2, 69, 0
8, 30240, Note_on_c, 2, 69, 72
8, 30240, Note_on_c, 2, 62, 72
8, 30479, Note_on_c, 2, 62, 0
8, 30479, Note_on_c, 2, 69, 0
8, 31320, Note_on_c, 2, 69, 72
8, 31320, Note_on_c, 2, 57, 72
8, 31559, Note_on_c, 2, 57, 0
8, 31559, Note_on_c, 2, 69, 0
8, 31680, Note_on_c, 2, 69, 72
8, 31680, Note_on_c, 2, 62, 72
8, 31919, Note_on_c, 2, 62, 0
8, 31919, Note_on_c, 2, 69, 0
8, 32760, Note_on_c, 2, 69, 72
8, 32760, Note_on_c, 2, 57, 72
8, 32999, Note_on_c, 2, 57, 0
8, 32999, Note_on_c, 2, 69, 0
8, 33120, Note_on_c, 2, 69, 72
8, 33120, Note_on_c, 2, 62, 72
8, 33359, Note_on_c, 2, 62, 0
8, 33359, Note_on_c, 2, 69, 0
8, 36720, Note_on_c, 2, 69, 72
8, 36720, Note_on_c, 2, 57, 72
8, 37439, Note_on_c, 2, 57, 0
8, 37439, Note_on_c, 2, 69, 0
8, 37440, Note_on_c, 2, 69, 72
8, 37440, Note_on_c, 2, 57, 72
8, 38879, Note_on_c, 2, 57, 0
8, 38879, Note_on_c, 2, 69, 0
8, 38880, Note_on_c, 2, 69, 72
8, 38880, Note_on_c, 2, 62, 72
8, 39119, Note_on_c, 2, 62, 0
8, 39119, Note_on_c, 2, 69, 0
8, 39240, Note_on_c, 2, 69, 72
8, 39240, Note_on_c, 2, 62, 72
8, 39479, Note_on_c, 2, 62, 0
8, 39479, Note_on_c, 2, 69, 0
8, 39600, Note_on_c, 2, 69, 72
8, 39600, Note_on_c, 2, 62, 72
8, 39839, Note_on_c, 2, 62, 0
8, 39839, Note_on_c, 2, 69, 0
8, 39960, Note_on_c, 2, 69, 72
8, 39960, Note_on_c, 2, 62, 72
8, 40199, Note_on_c, 2, 62, 0
8, 40199, Note_on_c, 2, 69, 0
8, 40320, Note_on_c, 2, 74, 72
8, 40320, Note_on_c, 2, 62, 72
8, 43199, Note_on_c, 2, 62, 0
8, 43199, Note_on_c, 2, 74, 0
8, 43199, End_track
9, 0, Start_track
9, 0, Title_t, "Alto Trombone"
9, 0, Program_c, 3, 57
9, 0, Control_c, 3, 7, 96
9, 0, Control_c, 3, 10, 96
9, 0, Control_c, 3, 11, 127
9, 5760, Note_on_c, 3, 62, 48
9, 6119, Note_on_c, 3, 62, 0
9, 6120, Note_on_c, 3, 61, 48
9, 6479, Note_on_c, 3, 61, 0
9, 6480, Note_on_c, 3, 62, 48
9, 6839, Note_on_c, 3, 62, 0
9, 6840, Note_on_c, 3, 64, 48
9, 7199, Note_on_c, 3, 64, 0
9, 7200, Note_on_c, 3, 65, 48
9, 7559, Note_on_c, 3, 65, 0
9, 7560, Note_on_c, 3, 59, 48
9, 7919, Note_on_c, 3, 59, 0
9, 7920, Note_on_c, 3, 64, 48
9, 8279, Note_on_c, 3, 64, 0
9, 8280, Note_on_c, 3, 67, 48
9, 8639, Note_on_c, 3, 67, 0
9, 8640, Note_on_c, 3, 67, 48
9, 8999, Note_on_c, 3, 67, 0
9, 9000, Note_on_c, 3, 67, 54
9, 9359, Note_on_c, 3, 67, 0
9, 9360, Note_on_c, 3, 65, 60
9, 9719, Note_on_c, 3, 65, 0
9, 9720, Note_on_c, 3, 69, 66
9, 10079, Note_on_c, 3, 69, 0
9, 10080, Note_on_c, 3, 67, 72
9, 10439, Note_on_c, 3, 67, 0
9, 10440, Note_on_c, 3, 74, 72
9, 10799, Note_on_c, 3, 74, 0
9, 10800, Note_on_c, 3, 74, 72
9, 11159, Note_on_c, 3, 74, 0
9, 11160, Note_on_c, 3, 73, 72
9, 11279, Note_on_c, 3, 73, 0
9, 11520, Note_on_c, 3, 67, 47
9, 12119, Note_on_c, 3, 67, 0
9, 12120, Note_on_c, 3, 67, 47
9, 12239, Note_on_c, 3, 67, 0
9, 12240, Note_on_c, 3, 65, 47
9, 12719, Note_on_c, 3, 65, 0
9, 12720, Note_on_c, 3, 62, 47
9, 12839, Note_on_c, 3, 62, 0
9, 12960, Note_on_c, 3, 67, 47
9, 13559, Note_on_c, 3, 67, 0
9, 13560, Note_on_c, 3, 61, 47
9, 13679, Note_on_c, 3, 61, 0
9, 13680, Note_on_c, 3, 69, 47
9, 14039, Note_on_c, 3, 69, 0
9, 14040, Note_on_c, 3, 65, 47
9, 14279, Note_on_c, 3, 65, 0
9, 14400, Note_on_c, 3, 70, 72
9, 14879, Note_on_c, 3, 70, 0
9, 14880, Note_on_c, 3, 67, 72
9, 14999, Note_on_c, 3, 67, 0
9, 15000, Note_on_c, 3, 70, 72
9, 15119, Note_on_c, 3, 70, 0
9, 15120, Note_on_c, 3, 70, 72
9, 15479, Note_on_c, 3, 70, 0
9, 15480, Note_on_c, 3, 70, 72
9, 15599, Note_on_c, 3, 70, 0
9, 15840, Note_on_c, 3, 69, 72
9, 16439, Note_on_c, 3, 69, 0
9, 16440, Note_on_c, 3, 67, 72
9, 16559, Note_on_c, 3, 67, 0
9, 16560, Note_on_c, 3, 65, 72
9, 17039, Note_on_c, 3, 65, 0
9, 17040, Note_on_c, 3, 70, 72
9, 17159, Note_on_c, 3, 70, 0
9, 17160, Note_on_c, 3, 68, 72
9, 17279, Note_on_c, 3, 68, 0
9, 17280, Note_on_c, 3, 68, 72
9, 17639, Note_on_c, 3, 68, 0
9, 17640, Note_on_c, 3, 67, 72
9, 17879, Note_on_c, 3, 67, 0
9, 17880, Note_on_c, 3, 67, 72
9, 17999, Note_on_c, 3, 67, 0
9, 18000, Note_on_c, 3, 67, 72
9, 18359, Note_on_c, 3, 67, 0
9, 18360, Note_on_c, 3, 67, 72
9, 18599, Note_on_c, 3, 67, 0
9, 18720, Note_on_c, 3, 64, 72
9, 19199, Note_on_c, 3, 64, 0
9, 19200, Note_on_c, 3, 69, 72
9, 19319, Note_on_c, 3, 69, 0
9, 19320, Note_on_c, 3, 67, 72
9, 19439, Note_on_c, 3, 67, 0
9, 19440, Note_on_c, 3, 67, 72
9, 19799, Note_on_c, 3, 67, 0
9, 19800, Note_on_c, 3, 65, 72
9, 20039, Note_on_c, 3, 65, 0
9, 20160, Note_on_c, 3, 68, 47
9, 20519, Note_on_c, 3, 68, 0
9, 20520, Note_on_c, 3, 68, 47
9, 20879, Note_on_c, 3, 68, 0
9, 20880, Note_on_c, 3, 68, 47
9, 21239, Note_on_c, 3, 68, 0
9, 21240, Note_on_c, 3, 68, 47
9, 21599, Note_on_c, 3, 68, 0
9, 21600, Note_on_c, 3, 68, 47
9, 21959, Note_on_c, 3, 68, 0
9, 21960, Note_on_c, 3, 68, 47
9, 22319, Note_on_c, 3, 68, 0
9, 22320, Note_on_c, 3, 68, 47
9, 22679, Note_on_c, 3, 68, 0
9, 22680, Note_on_c, 3, 68, 47
9, 23039, Note_on_c, 3, 68, 0
9, 23040, Note_on_c, 3, 67, 47
9, 23399, Note_on_c, 3, 67, 0
9, 23400, Note_on_c, 3, 67, 47
9, 23759, Note_on_c, 3, 67, 0
9, 23760, Note_on_c, 3, 67, 47
9, 24119, Note_on_c, 3, 67, 0
9, 24120, Note_on_c, 3, 60, 47
9, 24479, Note_on_c, 3, 60, 0
9, 24480, Note_on_c, 3, 62, 47
9, 24959, Note_on_c, 3, 62, 0
9, 24960, Note_on_c, 3, 65, 47
9, 25079, Note_on_c, 3, 65, 0
9, 25080, Note_on_c, 3, 65, 47
9, 25199, Note_on_c, 3, 65, 0
9, 25200, Note_on_c, 3, 65, 47
9, 25559, Note_on_c, 3, 65, 0
9, 25560, Note_on_c, 3, 64, 47
9, 25799, Note_on_c, 3, 64, 0
9, 25800, Note_on_c, 3, 64, 47
9, 25919, Note_on_c, 3, 64, 0
9, 25920, Note_on_c, 3, 65, 47
9, 28079, Note_on_c, 3, 65, 0
9, 28080, Note_on_c, 3, 69, 47
9, 28439, Note_on_c, 3, 69, 0
9, 28440, Note_on_c, 3, 67, 47
9, 28799, Note_on_c, 3, 67, 0
9, 28800, Note_on_c, 3, 65, 47
9, 29039, Note_on_c, 3, 65, 0
9, 29160, Note_on_c, 3, 69, 72
9, 29519, Note_on_c, 3, 69, 0
9, 29520, Note_on_c, 3, 67, 72
9, 29879, Note_on_c, 3, 67, 0
9, 29880, Note_on_c, 3, 64, 72
9, 30239, Note_on_c, 3, 64, 0
9, 30240, Note_on_c, 3, 65, 72
9, 30719, Note_on_c, 3, 65, 0
9, 30720, Note_on_c, 3, 62, 72
9, 30839, Note_on_c, 3, 62, 0
9, 30840, Note_on_c, 3, 69, 72
9, 30959, Note_on_c, 3, 69, 0
9, 30960, Note_on_c, 3, 67, 72
9, 31319, Note_on_c, 3, 67, 0
9, 31320, Note_on_c, 3, 67, 72
9, 31439, Note_on_c, 3, 67, 0
9, 31680, Note_on_c, 3, 65, 72
9, 32159, Note_on_c, 3, 65, 0
9, 32160, Note_on_c, 3, 62, 72
9, 32279, Note_on_c, 3, 62, 0
9, 32280, Note_on_c, 3, 69, 72
9, 32399, Note_on_c, 3, 69, 0
9, 32400, Note_on_c, 3, 67, 72
9, 32879, Note_on_c, 3, 67, 0
9, 34560, Note_on_c, 3, 63, 72
9, 34919, Note_on_c, 3, 63, 0
9, 34920, Note_on_c, 3, 63, 72
9, 35279, Note_on_c, 3, 63, 0
9, 35280, Note_on_c, 3, 64, 72
9, 35639, Note_on_c, 3, 64, 0
9, 35640, Note_on_c, 3, 62, 72
9, 35999, Note_on_c, 3, 62, 0
9, 36000, Note_on_c, 3, 58, 72
9, 36359, Note_on_c, 3, 58, 0
9, 36360, Note_on_c, 3, 59, 72
9, 36719, Note_on_c, 3, 59, 0
9, 36720, Note_on_c, 3, 57, 72
9, 37079, Note_on_c, 3, 57, 0
9, 37080, Note_on_c, 3, 57, 72
9, 37439, Note_on_c, 3, 57, 0
9, 37440, Note_on_c, 3, 61, 72
9, 37799, Note_on_c, 3, 61, 0
9, 37800, Note_on_c, 3, 62, 72
9, 38519, Note_on_c, 3, 62, 0
9, 38520, Note_on_c, 3, 61, 72
9, 38879, Note_on_c, 3, 61, 0
9, 38880, Note_on_c, 3, 62, 72
9, 39119, Note_on_c, 3, 62, 0
9, 40320, Note_on_c, 3, 67, 72
9, 41759, Note_on_c, 3, 67, 0
9, 41760, Note_on_c, 3, 66, 72
9, 43199, Note_on_c, 3, 66, 0
9, 43199, End_track
10, 0, Start_track
10, 0, Title_t, "Tenor Trombone"
10, 0, Program_c, 3, 57
10, 0, Control_c, 3, 7, 96
10, 0, Control_c, 3, 10, 96
10, 0, Control_c, 3, 11, 127
10, 5760, Note_on_c, 3, 53, 48
10, 6119, Note_on_c, 3, 53, 0
10, 6120, Note_on_c, 3, 57, 48
10, 6479, Note_on_c, 3, 57, 0
10, 6480, Note_on_c, 3, 57, 48
10, 6839, Note_on_c, 3, 57, 0
10, 6840, Note_on_c, 3, 60, 48
10, 7199, Note_on_c, 3, 60, 0
10, 7200, Note_on_c, 3, 60, 48
10, 7559, Note_on_c, 3, 60, 0
10, 7560, Note_on_c, 3, 56, 48
10, 7919, Note_on_c, 3, 56, 0
10, 7920, Note_on_c, 3, 57, 48
10, 8279, Note_on_c, 3, 57, 0
10, 8280, Note_on_c, 3, 59, 48
10, 8639, Note_on_c, 3, 59, 0
10, 8640, Note_on_c, 3, 60, 48
10, 8999, Note_on_c, 3, 60, 0
10, 9000, Note_on_c, 3, 60, 54
10, 9359, Note_on_c, 3, 60, 0
10, 9360, Note_on_c, 3, 60, 60
10, 9719, Note_on_c, 3, 60, 0
10, 9720, Note_on_c, 3, 63, 66
10, 10079, Note_on_c, 3, 63, 0
10, 10080, Note_on_c, 3, 62, 72
10, 10439, Note_on_c, 3, 62, 0
10, 10440, Note_on_c, 3, 65, 72
10, 10799, Note_on_c, 3, 65, 0
10, 10800, Note_on_c, 3, 65, 72
10, 11159, Note_on_c, 3, 65, 0
10, 11160, Note_on_c, 3, 64, 72
10, 11279, Note_on_c, 3, 64, 0
10, 11520, Note_on_c, 3, 64, 47
10, 11999, Note_on_c, 3, 64, 0
10, 12000, Note_on_c, 3, 62, 47
10, 12119, Note_on_c, 3, 62, 0
10, 12120, Note_on_c, 3, 61, 47
10, 12239, Note_on_c, 3, 61, 0
10, 12240, Note_on_c, 3, 62, 47
10, 12719, Note_on_c, 3, 62, 0
10, 12720, Note_on_c, 3, 57, 47
10, 12839, Note_on_c, 3, 57, 0
10, 12840, Note_on_c, 3, 53, 47
10, 12959, Note_on_c, 3, 53, 0
10, 12960, Note_on_c, 3, 58, 47
10, 13439, Note_on_c, 3, 58, 0
10, 13440, Note_on_c, 3, 57, 47
10, 13559, Note_on_c, 3, 57, 0
10, 13560, Note_on_c, 3, 57, 47
10, 13679, Note_on_c, 3, 57, 0
10, 13680, Note_on_c, 3, 57, 47
10, 14039, Note_on_c, 3, 57, 0
10, 14040, Note_on_c, 3, 57, 47
10, 14279, Note_on_c, 3, 57, 0
10, 14400, Note_on_c, 3, 63, 72
10, 14879, Note_on_c, 3, 63, 0
10, 14880, Note_on_c, 3, 58, 72
10, 14999, Note_on_c, 3, 58, 0
10, 15000, Note_on_c, 3, 67, 72
10, 15119, Note_on_c, 3, 67, 0
10, 15120, Note_on_c, 3, 65, 72
10, 15479, Note_on_c, 3, 65, 0
10, 15480, Note_on_c, 3, 65, 72
10, 15599, Note_on_c, 3, 65, 0
10, 15840, Note_on_c, 3, 65, 72
10, 16319, Note_on_c, 3, 65, 0
10, 16320, Note_on_c, 3, 62, 72
10, 16439, Note_on_c, 3, 62, 0
10, 16440, Note_on_c, 3, 57, 72
10, 16559, Note_on_c, 3, 57, 0
10, 16560, Note_on_c, 3, 62, 72
10, 16919, Note_on_c, 3, 62, 0
10, 16920, Note_on_c, 3, 62, 72
10, 17039, Note_on_c, 3, 62, 0
10, 17280, Note_on_c, 3, 65, 72
10, 17759, Note_on_c, 3, 65, 0
10, 17760, Note_on_c, 3, 62, 72
10, 17879, Note_on_c, 3, 62, 0
10, 17880, Note_on_c, 3, 59, 72
10, 17999, Note_on_c, 3, 59, 0
10, 18000, Note_on_c, 3, 55, 72
10, 18479, Note_on_c, 3, 55, 0
10, 18480, Note_on_c, 3, 60, 72
10, 18599, Note_on_c, 3, 60, 0
10, 18600, Note_on_c, 3, 58, 72
10, 18719, Note_on_c, 3, 58, 0
10, 18720, Note_on_c, 3, 58, 72
10, 19199, Note_on_c, 3, 58, 0
10, 19200, Note_on_c, 3, 57, 72
10, 19319, Note_on_c, 3, 57, 0
10, 19320, Note_on_c, 3, 64, 72
10, 19439, Note_on_c, 3, 64, 0
10, 19440, Note_on_c, 3, 64, 72
10, 19799, Note_on_c, 3, 64, 0
10, 19800, Note_on_c, 3, 62, 72
10, 20039, Note_on_c, 3, 62, 0
10, 20160, Note_on_c, 3, 65, 47
10, 20519, Note_on_c, 3, 65, 0
10, 20520, Note_on_c, 3, 65, 47
10, 20879, Note_on_c, 3, 65, 0
10, 20880, Note_on_c, 3, 65, 47
10, 21239, Note_on_c, 3, 65, 0
10, 21240, Note_on_c, 3, 65, 47
10, 21599, Note_on_c, 3, 65, 0
10, 21600, Note_on_c, 3, 65, 47
10, 21959, Note_on_c, 3, 65, 0
10, 21960, Note_on_c, 3, 65, 47
10, 22319, Note_on_c, 3, 65, 0
10, 22320, Note_on_c, 3, 65, 47
10, 22679, Note_on_c, 3, 65, 0
10, 22680, Note_on_c, 3, 65, 47
10, 23039, Note_on_c, 3, 65, 0
10, 23040, Note_on_c, 3, 65, 47
10, 23399, Note_on_c, 3, 65, 0
10, 23400, Note_on_c, 3, 64, 47
10, 23759, Note_on_c, 3, 64, 0
10, 23760, Note_on_c, 3, 64, 47
10, 24119, Note_on_c, 3, 64, 0
10, 24120, Note_on_c, 3, 65, 47
10, 24479, Note_on_c, 3, 65, 0
10, 24480, Note_on_c, 3, 58, 47
10, 24839, Note_on_c, 3, 58, 0
10, 24840, Note_on_c, 3, 56, 47
10, 25079, Note_on_c, 3, 56, 0
10, 25080, Note_on_c, 3, 56, 47
10, 25199, Note_on_c, 3, 56, 0
10, 25200, Note_on_c, 3, 57, 47
10, 25559, Note_on_c, 3, 57, 0
10, 25560, Note_on_c, 3, 58, 47
10, 25799, Note_on_c, 3, 58, 0
10, 25800, Note_on_c, 3, 58, 47
10, 25919, Note_on_c, 3, 58, 0
10, 25920, Note_on_c, 3, 53, 47
10, 28079, Note_on_c, 3, 53, 0
10, 28080, Note_on_c, 3, 60, 47
10, 28439, Note_on_c, 3, 60, 0
10, 28440, Note_on_c, 3, 58, 47
10, 28799, Note_on_c, 3, 58, 0
10, 28800, Note_on_c, 3, 57, 47
10, 29039, Note_on_c, 3, 57, 0
10, 29160, Note_on_c, 3, 57, 72
10, 29519, Note_on_c, 3, 57, 0
10, 29520, Note_on_c, 3, 58, 72
10, 29879, Note_on_c, 3, 58, 0
10, 29880, Note_on_c, 3, 61, 72
10, 30239, Note_on_c, 3, 61, 0
10, 30240, Note_on_c, 3, 62, 72
10, 30719, Note_on_c, 3, 62, 0
10, 30720, Note_on_c, 3, 57, 72
10, 30839, Note_on_c, 3, 57, 0
10, 30840, Note_on_c, 3, 53, 72
10, 30959, Note_on_c, 3, 53, 0
10, 30960, Note_on_c, 3, 58, 72
10, 31319, Note_on_c, 3, 58, 0
10, 31320, Note_on_c, 3, 57, 72
10, 31439, Note_on_c, 3, 57, 0
10, 31680, Note_on_c, 3, 57, 72
10, 32279, Note_on_c, 3, 57, 0
10, 32280, Note_on_c, 3, 53, 72
10, 32399, Note_on_c, 3, 53, 0
10, 32400, Note_on_c, 3, 58, 72
10, 32759, Note_on_c, 3, 58, 0
10, 32760, Note_on_c, 3, 57, 72
10, 32879, Note_on_c, 3, 57, 0
10, 33840, Note_on_c, 3, 62, 72
10, 34199, Note_on_c, 3, 62, 0
10, 34200, Note_on_c, 3, 66, 72
10, 34559, Note_on_c, 3, 66, 0
10, 34560, Note_on_c, 3, 67, 72
10, 34919, Note_on_c, 3, 67, 0
10, 34920, Note_on_c, 3, 55, 72
10, 35279, Note_on_c, 3, 55, 0
10, 35280, Note_on_c, 3, 58, 72
10, 35639, Note_on_c, 3, 58, 0
10, 35640, Note_on_c, 3, 57, 72
10, 35999, Note_on_c, 3, 57, 0
10, 36000, Note_on_c, 3, 55, 72
10, 36359, Note_on_c, 3, 55, 0
10, 36360, Note_on_c, 3, 53, 72
10, 36719, Note_on_c, 3, 53, 0
10, 36720, Note_on_c, 3, 52, 72
10, 37079, Note_on_c, 3, 52, 0
10, 37080, Note_on_c, 3, 53, 72
10, 37439, Note_on_c, 3, 53, 0
10, 37440, Note_on_c, 3, 57, 72
10, 38519, Note_on_c, 3, 57, 0
10, 38520, Note_on_c, 3, 57, 72
10, 38879, Note_on_c, 3, 57, 0
10, 38880, Note_on_c, 3, 57, 72
10, 39119, Note_on_c, 3, 57, 0
10, 40320, Note_on_c, 3, 58, 72
10, 41759, Note_on_c, 3, 58, 0
10, 41760, Note_on_c, 3, 57, 72
10, 43199, Note_on_c, 3, 57, 0
10, 43199, End_track
11, 0, Start_track
11, 0, Title_t, "Baritone Trombone"
11, 0, Program_c, 3, 57
11, 0, Control_c, 3, 7, 96
11, 0, Control_c, 3, 10, 96
11, 0, Control_c, 3, 11, 127
11, 5760, Note_on_c, 3, 50, 48
11, 6119, Note_on_c, 3, 50, 0
11, 6120, Note_on_c, 3, 45, 48
11, 6479, Note_on_c, 3, 45, 0
11, 6480, Note_on_c, 3, 50, 48
11, 6839, Note_on_c, 3, 50, 0
11, 6840, Note_on_c, 3, 48, 48
11, 7199, Note_on_c, 3, 48, 0
11, 7200, Note_on_c, 3, 53, 48
11, 7559, Note_on_c, 3, 53, 0
11, 7560, Note_on_c, 3, 52, 48
11, 7919, Note_on_c, 3, 52, 0
11, 7920, Note_on_c, 3, 45, 48
11, 8279, Note_on_c, 3, 45, 0
11, 8280, Note_on_c, 3, 43, 48
11, 8639, Note_on_c, 3, 43, 0
11, 8640, Note_on_c, 3, 48, 48
11, 8999, Note_on_c, 3, 48, 0
11, 9000, Note_on_c, 3, 58, 54
11, 9359, Note_on_c, 3, 58, 0
11, 9360, Note_on_c, 3, 57, 60
11, 9719, Note_on_c, 3, 57, 0
11, 9720, Note_on_c, 3, 60, 66
11, 10079, Note_on_c, 3, 60, 0
11, 10080, Note_on_c, 3, 59, 72
11, 10439, Note_on_c, 3, 59, 0
11, 10440, Note_on_c, 3, 58, 72
11, 10799, Note_on_c, 3, 58, 0
11, 10800, Note_on_c, 3, 57, 72
11, 11159, Note_on_c, 3, 57, 0
11, 11160, Note_on_c, 3, 57, 72
11, 11279, Note_on_c, 3, 57, 0
11, 11520, Note_on_c, 3, 49, 47
11, 11879, Note_on_c, 3, 49, 0
11, 11880, Note_on_c, 3, 45, 47
11, 12239, Note_on_c, 3, 45, 0
11, 12240, Note_on_c, 3, 50, 47
11, 12599, Note_on_c, 3, 50, 0
11, 12600, Note_on_c, 3, 45, 47
11, 12959, Note_on_c, 3, 45, 0
11, 12960, Note_on_c, 3, 52, 47
11, 13319, Note_on_c, 3, 52, 0
11, 13320, Note_on_c, 3, 45, 47
11, 13679, Note_on_c, 3, 45, 0
11, 13680, Note_on_c, 3, 53, 47
11, 14039, Note_on_c, 3, 53, 0
11, 14040, Note_on_c, 3, 45, 47
11, 14399, Note_on_c, 3, 45, 0
11, 14400, Note_on_c, 3, 55, 72
11, 14759, Note_on_c, 3, 55, 0
11, 14760, Note_on_c, 3, 43, 72
11, 15119, Note_on_c, 3, 43, 0
11, 15120, Note_on_c, 3, 44, 72
11, 15479, Note_on_c, 3, 44, 0
11, 15480, Note_on_c, 3, 56, 72
11, 15839, Note_on_c, 3, 56, 0
11, 15840, Note_on_c, 3, 57, 72
11, 16199, Note_on_c, 3, 57, 0
11, 16200, Note_on_c, 3, 45, 72
11, 16559, Note_on_c, 3, 45, 0
11, 16560, Note_on_c, 3, 46, 72
11, 16919, Note_on_c, 3, 46, 0
11, 16920, Note_on_c, 3, 58, 72
11, 17279, Note_on_c, 3, 58, 0
11, 17280, Note_on_c, 3, 59, 72
11, 17639, Note_on_c, 3, 59, 0
11, 17640, Note_on_c, 3, 47, 72
11, 17999, Note_on_c, 3, 47, 0
11, 18000, Note_on_c, 3, 48, 72
11, 18359, Note_on_c, 3, 48, 0
11, 18360, Note_on_c, 3, 60, 72
11, 18719, Note_on_c, 3, 60, 0
11, 18720, Note_on_c, 3, 61, 72
11, 19079, Note_on_c, 3, 61, 0
11, 19080, Note_on_c, 3, 49, 72
11, 19439, Note_on_c, 3, 49, 0
11, 19440, Note_on_c, 3, 62, 72
11, 19799, Note_on_c, 3, 62, 0
11, 19800, Note_on_c, 3, 50, 72
11, 20039, Note_on_c, 3, 50, 0
11, 20160, Note_on_c, 3, 62, 47
11, 20519, Note_on_c, 3, 62, 0
11, 20520, Note_on_c, 3, 60, 47
11, 20879, Note_on_c, 3, 60, 0
11, 20880, Note_on_c, 3, 59, 47
11, 21239, Note_on_c, 3, 59, 0
11, 21240, Note_on_c, 3, 59, 47
11, 21599, Note_on_c, 3, 59, 0
11, 21600, Note_on_c, 3, 59, 47
11, 21959, Note_on_c, 3, 59, 0
11, 21960, Note_on_c, 3, 60, 47
11, 22319, Note_on_c, 3, 60, 0
11, 22320, Note_on_c, 3, 61, 47
11, 22679, Note_on_c, 3, 61, 0
11, 22680, Note_on_c, 3, 61, 47
11, 23039, Note_on_c, 3, 61, 0
11, 23040, Note_on_c, 3, 62, 47
11, 23399, Note_on_c, 3, 62, 0
11, 23400, Note_on_c, 3, 60, 47
11, 23759, Note_on_c, 3, 60, 0
11, 23760, Note_on_c, 3, 58, 47
11, 24119, Note_on_c, 3, 58, 0
11, 24120, Note_on_c, 3, 57, 47
11, 24479, Note_on_c, 3, 57, 0
11, 24480, Note_on_c, 3, 46, 47
11, 24839, Note_on_c, 3, 46, 0
11, 24840, Note_on_c, 3, 50, 47
11, 25199, Note_on_c, 3, 50, 0
11, 25200, Note_on_c, 3, 48, 47
11, 25799, Note_on_c, 3, 48, 0
11, 25800, Note_on_c, 3, 48, 47
11, 25919, Note_on_c, 3, 48, 0
11, 25920, Note_on_c, 3, 41, 47
11, 26279, Note_on_c, 3, 41, 0
11, 26280, Note_on_c, 3, 45, 47
11, 26639, Note_on_c, 3, 45, 0
11, 26640, Note_on_c, 3, 46, 47
11, 26999, Note_on_c, 3, 46, 0
11, 27000, Note_on_c, 3, 48, 47
11, 27359, Note_on_c, 3, 48, 0
11, 27360, Note_on_c, 3, 46, 47
11, 27719, Note_on_c, 3, 46, 0
11, 27720, Note_on_c, 3, 50, 47
11, 28079, Note_on_c, 3, 50, 0
11, 28080, Note_on_c, 3, 48, 47
11, 28439, Note_on_c, 3, 48, 0
11, 28440, Note_on_c, 3, 48, 47
11, 28799, Note_on_c, 3, 48, 0
11, 28800, Note_on_c, 3, 41, 47
11, 29039, Note_on_c, 3, 41, 0
11, 29160, Note_on_c, 3, 53, 72
11, 29519, Note_on_c, 3, 53, 0
11, 29520, Note_on_c, 3, 52, 72
11, 29879, Note_on_c, 3, 52, 0
11, 29880, Note_on_c, 3, 45, 72
11, 30239, Note_on_c, 3, 45, 0
11, 30240, Note_on_c, 3, 50, 72
11, 30839, Note_on_c, 3, 50, 0
11, 30840, Note_on_c, 3, 50, 72
11, 30959, Note_on_c, 3, 50, 0
11, 30960, Note_on_c, 3, 52, 72
11, 31319, Note_on_c, 3, 52, 0
11, 31320, Note_on_c, 3, 45, 72
11, 31439, Note_on_c, 3, 45, 0
11, 31680, Note_on_c, 3, 50, 72
11, 32279, Note_on_c, 3, 50, 0
11, 32280, Note_on_c, 3, 50, 72
11, 32399, Note_on_c, 3, 50, 0
11, 32400, Note_on_c, 3, 52, 72
11, 32879, Note_on_c, 3, 52, 0
11, 33120, Note_on_c, 3, 62, 72
11, 33479, Note_on_c, 3, 62, 0
11, 33480, Note_on_c, 3, 60, 72
11, 33839, Note_on_c, 3, 60, 0
11, 33840, Note_on_c, 3, 58, 72
11, 34199, Note_on_c, 3, 58, 0
11, 34200, Note_on_c, 3, 57, 72
11, 34559, Note_on_c, 3, 57, 0
11, 34560, Note_on_c, 3, 55, 72
11, 34919, Note_on_c, 3, 55, 0
11, 34920, Note_on_c, 3, 48, 72
11, 35279, Note_on_c, 3, 48, 0
11, 35280, Note_on_c, 3, 49, 72
11, 35639, Note_on_c, 3, 49, 0
11, 35640, Note_on_c, 3, 50, 72
11, 35999, Note_on_c, 3, 50, 0
11, 36000, Note_on_c, 3, 43, 72
11, 36359, Note_on_c, 3, 43, 0
11, 36360, Note_on_c, 3, 44, 72
11, 36719, Note_on_c, 3, 44, 0
11, 36720, Note_on_c, 3, 45, 72
11, 38519, Note_on_c, 3, 45, 0
11, 38520, Note_on_c, 3, 45, 72
11, 38879, Note_on_c, 3, 45, 0
11, 38880, Note_on_c, 3, 50, 72
11, 39119, Note_on_c, 3, 50, 0
11, 40320, Note_on_c, 3, 55, 72
11, 41759, Note_on_c, 3, 55, 0
11, 41760, Note_on_c, 3, 50, 72
11, 43199, Note_on_c, 3, 50, 0
11, 43199, End_track
12, 0, Start_track
12, 0, Title_t, "Violin I"
12, 0, Program_c, 4, 48
12, 0, Control_c, 4, 7, 96
12, 0, Control_c, 4, 10, 48
12, 0, Control_c, 4, 11, 127
12, 120, Note_on_c, 4, 73, 48
12, 239, Note_on_c, 4, 73, 0
12, 240, Note_on_c, 4, 74, 48
12, 359, Note_on_c, 4, 74, 0
12, 480, Note_on_c, 4, 81, 48
12, 599, Note_on_c, 4, 81, 0
12, 600, Note_on_c, 4, 82, 48
12, 719, Note_on_c, 4, 82, 0
12, 840, Note_on_c, 4, 74, 48
12, 959, Note_on_c, 4, 74, 0
12, 960, Note_on_c, 4, 73, 48
12, 1079, Note_on_c, 4, 73, 0
12, 1200, Note_on_c, 4, 84, 48
12, 1319, Note_on_c, 4, 84, 0
12, 1320, Note_on_c, 4, 82, 48
12, 1439, Note_on_c, 4, 82, 0
12, 1560, Note_on_c, 4, 81, 48
12, 1679, Note_on_c, 4, 81, 0
12, 1680, Note_on_c, 4, 86, 48
12, 1799, Note_on_c, 4, 86, 0
12, 1920, Note_on_c, 4, 82, 48
12, 2039, Note_on_c, 4, 82, 0
12, 2040, Note_on_c, 4, 79, 48
12, 2159, Note_on_c, 4, 79, 0
12, 2280, Note_on_c, 4, 76, 48
12, 2399, Note_on_c, 4, 76, 0
12, 2400, Note_on_c, 4, 77, 48
12, 2519, Note_on_c, 4, 77, 0
12, 2640, Note_on_c, 4, 81, 48
12, 2759, Note_on_c, 4, 81, 0
12, 2760, Note_on_c, 4, 73, 48
12, 2879, Note_on_c, 4, 73, 0
12, 3000, Note_on_c, 4, 73, 48
12, 3119, Note_on_c, 4, 73, 0
12, 3120, Note_on_c, 4, 74, 48
12, 3239, Note_on_c, 4, 74, 0
12, 3360, Note_on_c, 4, 81, 48
12, 3479, Note_on_c, 4, 81, 0
12, 3480, Note_on_c, 4, 82, 48
12, 3599, Note_on_c, 4, 82, 0
12, 3720, Note_on_c, 4, 74, 48
12, 3839, Note_on_c, 4, 74, 0
12, 3840, Note_on_c, 4, 73, 48
12, 3959, Note_on_c, 4, 73, 0
12, 4080, Note_on_c, 4, 82, 48
12, 4199, Note_on_c, 4, 82, 0
12, 4200, Note_on_c, 4, 81, 48
12, 4319, Note_on_c, 4, 81, 0
12, 4440, Note_on_c, 4, 73, 48
12, 4559, Note_on_c, 4, 73, 0
12, 4560, Note_on_c, 4, 74, 48
12, 4679, Note_on_c, 4, 74, 0
12, 4800, Note_on_c, 4, 81, 48
12, 4919, Note_on_c, 4, 81, 0
12, 4920, Note_on_c, 4, 82, 48
12, 5039, Note_on_c, 4, 82, 0
12, 5160, Note_on_c, 4, 74, 48
12, 5279, Note_on_c, 4, 74, 0
12, 5280, Note_on_c, 4, 73, 48
12, 5399, Note_on_c, 4, 73, 0
12, 5520, Note_on_c, 4, 82, 48
12, 5639, Note_on_c, 4, 82, 0
12, 5640, Note_on_c, 4, 81, 48
12, 5759, Note_on_c, 4, 81, 0
12, 5880, Note_on_c, 4, 62, 48
12, 5999, Note_on_c, 4, 62, 0
12, 6000, Note_on_c, 4, 57, 48
12, 6119, Note_on_c, 4, 57, 0
12, 6240, Note_on_c, 4, 64, 48
12, 6359, Note_on_c, 4, 64, 0
12, 6360, Note_on_c, 4, 57, 48
12, 6479, Note_on_c, 4, 57, 0
12, 6600, Note_on_c, 4, 65, 48
12, 6719, Note_on_c, 4, 65, 0
12, 6720, Note_on_c, 4, 62, 48
12, 6839, Note_on_c, 4, 62, 0
12, 6960, Note_on_c, 4, 67, 48
12, 7079, Note_on_c, 4, 67, 0
12, 7080, Note_on_c, 4, 60, 48
12, 7199, Note_on_c, 4, 60, 0
12, 7320, Note_on_c, 4, 69, 48
12, 7439, Note_on_c, 4, 69, 0
12, 7440, Note_on_c, 4, 65, 48
12, 7559, Note_on_c, 4, 65, 0
12, 7680, Note_on_c, 4, 71, 48
12, 7799, Note_on_c, 4, 71, 0
12, 7800, Note_on_c, 4, 64, 48
12, 7919, Note_on_c, 4, 64, 0
12, 8040, Note_on_c, 4, 72, 48
12, 8159, Note_on_c, 4, 72, 0
12, 8160, Note_on_c, 4, 69, 48
12, 8279, Note_on_c, 4, 69, 0
12, 8400, Note_on_c, 4, 74, 48
12, 8519, Note_on_c, 4, 74, 0
12, 8520, Note_on_c, 4, 67, 48
12, 8639, Note_on_c, 4, 67, 0
12, 8760, Note_on_c, 4, 75, 51
12, 8879, Note_on_c, 4, 75, 0
12, 8880, Note_on_c, 4, 72, 54
12, 8999, Note_on_c, 4, 72, 0
12, 9120, Note_on_c, 4, 76, 57
12, 9239, Note_on_c, 4, 76, 0
12, 9240, Note_on_c, 4, 72, 60
12, 9359, Note_on_c, 4, 72, 0
12, 9480, Note_on_c, 4, 77, 63
12, 9599, Note_on_c, 4, 77, 0
12, 9600, Note_on_c, 4, 72, 66
12, 9719, Note_on_c, 4, 72, 0
12, 9840, Note_on_c, 4, 78, 69
12, 9959, Note_on_c, 4, 78, 0
12, 9960, Note_on_c, 4, 69, 72
12, 10079, Note_on_c, 4, 69, 0
12, 10200, Note_on_c, 4, 79, 72
12, 10319, Note_on_c, 4, 79, 0
12, 10320, Note_on_c, 4, 71, 72
12, 10439, Note_on_c, 4, 71, 0
12, 10560, Note_on_c, 4, 80, 72
12, 10679, Note_on_c, 4, 80, 0
12, 10680, Note_on_c, 4, 70, 72
12, 10799, Note_on_c, 4, 70, 0
12, 10920, Note_on_c, 4, 81, 72
12, 11039, Note_on_c, 4, 81, 0
12, 11040, Note_on_c, 4, 69, 72
12, 11159, Note_on_c, 4, 69, 0
12, 11280, Note_on_c, 4, 69, 72
12, 11399, Note_on_c, 4, 69, 0
12, 11400, Note_on_c, 4, 57, 72
12, 11519, Note_on_c, 4, 57, 0
12, 11640, Note_on_c, 4, 64, 48
12, 11759, Note_on_c, 4, 64, 0
12, 11760, Note_on_c, 4, 57, 48
12, 11879, Note_on_c, 4, 57, 0
12, 12000, Note_on_c, 4, 70, 48
12, 12119, Note_on_c, 4, 70, 0
12, 12120, Note_on_c, 4, 69, 48
12, 12239, Note_on_c, 4, 69, 0
12, 12360, Note_on_c, 4, 62, 48
12, 12479, Note_on_c, 4, 62, 0
12, 12480, Note_on_c, 4, 57, 48
12, 12599, Note_on_c, 4, 57, 0
12, 12720, Note_on_c, 4, 77, 48
12, 12839, Note_on_c, 4, 77, 0
12, 12840, Note_on_c, 4, 74, 48
12, 12959, Note_on_c, 4, 74, 0
12, 13080, Note_on_c, 4, 67, 48
12, 13199, Note_on_c, 4, 67, 0
12, 13200, Note_on_c, 4, 58, 48
12, 13319, Note_on_c, 4, 58, 0
12, 13440, Note_on_c, 4, 74, 48
12, 13559, Note_on_c, 4, 74, 0
12, 13560, Note_on_c, 4, 76, 48
12, 13679, Note_on_c, 4, 76, 0
12, 13800, Note_on_c, 4, 69, 48
12, 13919, Note_on_c, 4, 69, 0
12, 13920, Note_on_c, 4, 57, 48
12, 14039, Note_on_c, 4, 57, 0
12, 14160, Note_on_c, 4, 73, 48
12, 14279, Note_on_c, 4, 73, 0
12, 14280, Note_on_c, 4, 74, 48
12, 14399, Note_on_c, 4, 74, 0
12, 14520, Note_on_c, 4, 75, 72
12, 14639, Note_on_c, 4, 75, 0
12, 14640, Note_on_c, 4, 63, 72
12, 14759, Note_on_c, 4, 63, 0
12, 14880, Note_on_c, 4, 79, 72
12, 14999, Note_on_c, 4, 79, 0
12, 15000, Note_on_c, 4, 75, 72
12, 15119, Note_on_c, 4, 75, 0
12, 15240, Note_on_c, 4, 75, 72
12, 15359, Note_on_c, 4, 75, 0
12, 15360, Note_on_c, 4, 65, 72
12, 15479, Note_on_c, 4, 65, 0
12, 15600, Note_on_c, 4, 74, 72
12, 15719, Note_on_c, 4, 74, 0
12, 15720, Note_on_c, 4, 70, 72
12, 15839, Note_on_c, 4, 70, 0
12, 15960, Note_on_c, 4, 74, 72
12, 16079, Note_on_c, 4, 74, 0
12, 16080, Note_on_c, 4, 62, 72
12, 16199, Note_on_c, 4, 62, 0
12, 16320, Note_on_c, 4, 77, 72
12, 16439, Note_on_c, 4, 77, 0
12, 16440, Note_on_c, 4, 76, 72
12, 16559, Note_on_c, 4, 76, 0
12, 16680, Note_on_c, 4, 76, 72
12, 16799, Note_on_c, 4, 76, 0
12, 16800, Note_on_c, 4, 65, 72
12, 16919, Note_on_c, 4, 65, 0
12, 17040, Note_on_c, 4, 74, 72
12, 17159, Note_on_c, 4, 74, 0
12, 17160, Note_on_c, 4, 80, 72
12, 17279, Note_on_c, 4, 80, 0
12, 17400, Note_on_c, 4, 80, 72
12, 17519, Note_on_c, 4, 80, 0
12, 17520, Note_on_c, 4, 68, 72
12, 17639, Note_on_c, 4, 68, 0
12, 17760, Note_on_c, 4, 79, 72
12, 17879, Note_on_c, 4, 79, 0
12, 17880, Note_on_c, 4, 77, 72
12, 17999, Note_on_c, 4, 77, 0
12, 18120, Note_on_c, 4, 77, 72
12, 18239, Note_on_c, 4, 77, 0
12, 18240, Note_on_c, 4, 67, 72
12, 18359, Note_on_c, 4, 67, 0
12, 18480, Note_on_c, 4, 76, 72
12, 18599, Note_on_c, 4, 76, 0
12, 18600, Note_on_c, 4, 82, 72
12, 18719, Note_on_c, 4, 82, 0
12, 18840, Note_on_c, 4, 82, 72
12, 18959, Note_on_c, 4, 82, 0
12, 18960, Note_on_c, 4, 70, 72
12, 19079, Note_on_c, 4, 70, 0
12, 19200, Note_on_c, 4, 81, 72
12, 19319, Note_on_c, 4, 81, 0
12, 19320, Note_on_c, 4, 79, 72
12, 19439, Note_on_c, 4, 79, 0
12, 19560, Note_on_c, 4, 79, 72
12, 19679, Note_on_c, 4, 79, 0
12, 19680, Note_on_c, 4, 69, 72
12, 19799, Note_on_c, 4, 69, 0
12, 19920, Note_on_c, 4, 77, 72
12, 20039, Note_on_c, 4, 77, 0
12, 20040, Note_on_c, 4, 86, 72
12, 20159, Note_on_c, 4, 86, 0
12, 20280, Note_on_c, 4, 65, 48
12, 20399, Note_on_c, 4, 65, 0
12, 20400, Note_on_c, 4, 71, 48
12, 20519, Note_on_c, 4, 71, 0
12, 20640, Note_on_c, 4, 65, 48
12, 20759, Note_on_c, 4, 65, 0
12, 20760, Note_on_c, 4, 72, 48
12, 20879, Note_on_c, 4, 72, 0
12, 21000, Note_on_c, 4, 65, 48
12, 21119, Note_on_c, 4, 65, 0
12, 21120, Note_on_c, 4, 74, 48
12, 21239, Note_on_c, 4, 74, 0
12, 21360, Note_on_c, 4, 65, 48
12, 21479, Note_on_c, 4, 65, 0
12, 21480, Note_on_c, 4, 74, 48
12, 21599, Note_on_c, 4, 74, 0
12, 21720, Note_on_c, 4, 65, 48
12, 21839, Note_on_c, 4, 65, 0
12, 21840, Note_on_c, 4, 74, 48
12, 21959, Note_on_c, 4, 74, 0
12, 22080, Note_on_c, 4, 65, 48
12, 22199, Note_on_c, 4, 65, 0
12, 22200, Note_on_c, 4, 72, 48
12, 22319, Note_on_c, 4, 72, 0
12, 22440, Note_on_c, 4, 65, 48
12, 22559, Note_on_c, 4, 65, 0
12, 22560, Note_on_c, 4, 71, 48
12, 22679, Note_on_c, 4, 71, 0
12, 22800, Note_on_c, 4, 65, 48
12, 22919, Note_on_c, 4, 65, 0
12, 22920, Note_on_c, 4, 71, 48
12, 23039, Note_on_c, 4, 71, 0
12, 23160, Note_on_c, 4, 67, 48
12, 23279, Note_on_c, 4, 67, 0
12, 23280, Note_on_c, 4, 71, 48
12, 23399, Note_on_c, 4, 71, 0
12, 23520, Note_on_c, 4, 67, 48
12, 23639, Note_on_c, 4, 67, 0
12, 23640, Note_on_c, 4, 72, 48
12, 23759, Note_on_c, 4, 72, 0
12, 23880, Note_on_c, 4, 64, 48
12, 23999, Note_on_c, 4, 64, 0
12, 24000, Note_on_c, 4, 74, 48
12, 24119, Note_on_c, 4, 74, 0
12, 24240, Note_on_c, 4, 72, 48
12, 24359, Note_on_c, 4, 72, 0
12, 24360, Note_on_c, 4, 77, 48
12, 24479, Note_on_c, 4, 77, 0
12, 24600, Note_on_c, 4, 74, 48
12, 24719, Note_on_c, 4, 74, 0
12, 24720, Note_on_c, 4, 77, 48
12, 24839, Note_on_c, 4, 77, 0
12, 24960, Note_on_c, 4, 86, 48
12, 25079, Note_on_c, 4, 86, 0
12, 25080, Note_on_c, 4, 83, 48
12, 25199, Note_on_c, 4, 83, 0
12, 25320, Note_on_c, 4, 84, 48
12, 25439, Note_on_c, 4, 84, 0
12, 25440, Note_on_c, 4, 81, 48
12, 25559, Note_on_c, 4, 81, 0
12, 25680, Note_on_c, 4, 82, 48
12, 25799, Note_on_c, 4, 82, 0
12, 25800, Note_on_c, 4, 79, 48
12, 25919, Note_on_c, 4, 79, 0
12, 26040, Note_on_c, 4, 65, 48
12, 26159, Note_on_c, 4, 65, 0
12, 26160, Note_on_c, 4, 77, 48
12, 26279, Note_on_c, 4, 77, 0
12, 26400, Note_on_c, 4, 65, 48
12, 26519, Note_on_c, 4, 65, 0
12, 26520, Note_on_c, 4, 77, 48
12, 26639, Note_on_c, 4, 77, 0
12, 26760, Note_on_c, 4, 65, 48
12, 26879, Note_on_c, 4, 65, 0
12, 26880, Note_on_c, 4, 77, 48
12, 26999, Note_on_c, 4, 77, 0
12, 27120, Note_on_c, 4, 65, 48
12, 27239, Note_on_c, 4, 65, 0
12, 27240, Note_on_c, 4, 77, 48
12, 27359, Note_on_c, 4, 77, 0
12, 27480, Note_on_c, 4, 65, 48
12, 27599, Note_on_c, 4, 65, 0
12, 27600, Note_on_c, 4, 77, 48
12, 27719, Note_on_c, 4, 77, 0
12, 27840, Note_on_c, 4, 77, 48
12, 27959, Note_on_c, 4, 77, 0
12, 27960, Note_on_c, 4, 86, 48
12, 28079, Note_on_c, 4, 86, 0
12, 28200, Note_on_c, 4, 84, 48
12, 28319, Note_on_c, 4, 84, 0
12, 28320, Note_on_c, 4, 81, 48
12, 28439, Note_on_c, 4, 81, 0
12, 28560, Note_on_c, 4, 82, 48
12, 28679, Note_on_c, 4, 82, 0
12, 28680, Note_on_c, 4, 79, 48
12, 28799, Note_on_c, 4, 79, 0
12, 28920, Note_on_c, 4, 76, 48
12, 29039, Note_on_c, 4, 76, 0
12, 29040, Note_on_c, 4, 77, 48
12, 29159, Note_on_c, 4, 77, 0
12, 29280, Note_on_c, 4, 85, 72
12, 29399, Note_on_c, 4, 85, 0
12, 29400, Note_on_c, 4, 86, 72
12, 29519, Note_on_c, 4, 86, 0
12, 29640, Note_on_c, 4, 74, 72
12, 29759, Note_on_c, 4, 74, 0
12, 29760, Note_on_c, 4, 73, 72
12, 29879, Note_on_c, 4, 73, 0
12, 30000, Note_on_c, 4, 81, 72
12, 30119, Note_on_c, 4, 81, 0
12, 30120, Note_on_c, 4, 73, 72
12, 30239, Note_on_c, 4, 73, 0
12, 30360, Note_on_c, 4, 73, 72
12, 30479, Note_on_c, 4, 73, 0
12, 30480, Note_on_c, 4, 74, 72
12, 30599, Note_on_c, 4, 74, 0
12, 30720, Note_on_c, 4, 81, 72
12, 30839, Note_on_c, 4, 81, 0
12, 30840, Note_on_c, 4, 82, 72
12, 30959, Note_on_c, 4, 82, 0
12, 31080, Note_on_c, 4, 74, 72
12, 31199, Note_on_c, 4, 74, 0
12, 31200, Note_on_c, 4, 73, 72
12, 31319, Note_on_c, 4, 73, 0
12, 31440, Note_on_c, 4, 82, 72
12, 31559, Note_on_c, 4, 82, 0
12, 31560, Note_on_c, 4, 81, 72
12, 31679, Note_on_c, 4, 81, 0
12, 31800, Note_on_c, 4, 73, 72
12, 31919, Note_on_c, 4, 73, 0
12, 31920, Note_on_c, 4, 74, 72
12, 32039, Note_on_c, 4, 74, 0
12, 32160, Note_on_c, 4, 81, 72
12, 32279, Note_on_c, 4, 81, 0
12, 32280, Note_on_c, 4, 82, 72
12, 32399, Note_on_c, 4, 82, 0
12, 32520, Note_on_c, 4, 74, 72
12, 32639, Note_on_c, 4, 74, 0
12, 32640, Note_on_c, 4, 73, 72
12, 32759, Note_on_c, 4, 73, 0
12, 32880, Note_on_c, 4, 82, 72
12, 32999, Note_on_c, 4, 82, 0
12, 33000, Note_on_c, 4, 81, 72
12, 33119, Note_on_c, 4, 81, 0
12, 33240, Note_on_c, 4, 73, 72
12, 33359, Note_on_c, 4, 73, 0
12, 33360, Note_on_c, 4, 74, 72
12, 33479, Note_on_c, 4, 74, 0
12, 33600, Note_on_c, 4, 82, 72
12, 33719, Note_on_c, 4, 82, 0
12, 33720, Note_on_c, 4, 81, 72
12, 33839, Note_on_c, 4, 81, 0
12, 33960, Note_on_c, 4, 73, 72
12, 34079, Note_on_c, 4, 73, 0
12, 34080, Note_on_c, 4, 74, 72
12, 34199, Note_on_c, 4, 74, 0
12, 34320, Note_on_c, 4, 86, 72
12, 34439, Note_on_c, 4, 86, 0
12, 34440, Note_on_c, 4, 84, 72
12, 34559, Note_on_c, 4, 84, 0
12, 34680, Note_on_c, 4, 74, 72
12, 34799, Note_on_c, 4, 74, 0
12, 34800, Note_on_c, 4, 75, 72
12, 34919, Note_on_c, 4, 75, 0
12, 35040, Note_on_c, 4, 82, 72
12, 35159, Note_on_c, 4, 82, 0
12, 35160, Note_on_c, 4, 81, 72
12, 35279, Note_on_c, 4, 81, 0
12, 35400, Note_on_c, 4, 77, 72
12, 35519, Note_on_c, 4, 77, 0
12, 35520, Note_on_c, 4, 76, 72
12, 35639, Note_on_c, 4, 76, 0
12, 35760, Note_on_c, 4, 81, 72
12, 35879, Note_on_c, 4, 81, 0
12, 35880, Note_on_c, 4, 86, 72
12, 35999, Note_on_c, 4, 86, 0
12, 36120, Note_on_c, 4, 76, 72
12, 36239, Note_on_c, 4, 76, 0
12, 36240, Note_on_c, 4, 74, 72
12, 36359, Note_on_c, 4, 74, 0
12, 36480, Note_on_c, 4, 86, 72
12, 36599, Note_on_c, 4, 86, 0
12, 36600, Note_on_c, 4, 77, 72
12, 36719, Note_on_c, 4, 77, 0
12, 36840, Note_on_c, 4, 73, 72
12, 36959, Note_on_c, 4, 73, 0
12, 36960, Note_on_c, 4, 76, 72
12, 37079, Note_on_c, 4, 76, 0
12, 37200, Note_on_c, 4, 77, 72
12, 37319, Note_on_c, 4, 77, 0
12, 37320, Note_on_c, 4, 86, 72
12, 37439, Note_on_c, 4, 86, 0
12, 37560, Note_on_c, 4, 76, 72
12, 37679, Note_on_c, 4, 76, 0
12, 37680, Note_on_c, 4, 81, 72
12, 37799, Note_on_c, 4, 81, 0
12, 37920, Note_on_c, 4, 86, 72
12, 38039, Note_on_c, 4, 86, 0
12, 38040, Note_on_c, 4, 77, 72
12, 38159, Note_on_c, 4, 77, 0
12, 38280, Note_on_c, 4, 76, 72
12, 38399, Note_on_c, 4, 76, 0
12, 38400, Note_on_c, 4, 81, 72
12, 38519, Note_on_c, 4, 81, 0
12, 38640, Note_on_c, 4, 85, 72
12, 38759, Note_on_c, 4, 85, 0
12, 38760, Note_on_c, 4, 76, 72
12, 38879, Note_on_c, 4, 76, 0
12, 39000, Note_on_c, 4, 73, 72
12, 39119, Note_on_c, 4, 73, 0
12, 39120, Note_on_c, 4, 74, 72
12, 39239, Note_on_c, 4, 74, 0
12, 39360, Note_on_c, 4, 79, 72
12, 39479, Note_on_c, 4, 79, 0
12, 39480, Note_on_c, 4, 78, 72
12, 39599, Note_on_c, 4, 78, 0
12, 39720, Note_on_c, 4, 82, 72
12, 39839, Note_on_c, 4, 82, 0
12, 39840, Note_on_c, 4, 81, 72
12, 39959, Note_on_c, 4, 81, 0
12, 40080, Note_on_c, 4, 86, 72
12, 40199, Note_on_c, 4, 86, 0
12, 40200, Note_on_c, 4, 84, 72
12, 40319, Note_on_c, 4, 84, 0
12, 40440, Note_on_c, 4, 82, 72
12, 40559, Note_on_c, 4, 82, 0
12, 40560, Note_on_c, 4, 79, 72
12, 40679, Note_on_c, 4, 79, 0
12, 40800, Note_on_c, 4, 79, 72
12, 40919, Note_on_c, 4, 79, 0
12, 40920, Note_on_c, 4, 74, 72
12, 41039, Note_on_c, 4, 74, 0
12, 41160, Note_on_c, 4, 74, 72
12, 41279, Note_on_c, 4, 74, 0
12, 41280, Note_on_c, 4, 70, 72
12, 41399, Note_on_c, 4, 70, 0
12, 41520, Note_on_c, 4, 70, 72
12, 41639, Note_on_c, 4, 70, 0
12, 41640, Note_on_c, 4, 67, 72
12, 41759, Note_on_c, 4, 67, 0
12, 41760, Note_on_c, 4, 78, 72
12, 41760, Note_on_c, 4, 69, 72
12, 41760, Note_on_c, 4, 62, 72
12, 41999, Note_on_c, 4, 62, 0
12, 41999, Note_on_c, 4, 69, 0
12, 43199, Note_on_c, 4, 78, 0
12, 43199, End_track
13, 0, Start_track
13, 0, Title_t, "Violin II"
13, 0, Program_c, 5, 48
13, 0, Control_c, 5, 7, 96
13, 0, Control_c, 5, 10, 24
13, 0, Control_c, 5, 11, 127
13, 0, Note_on_c, 5, 65, 48
13, 239, Note_on_c, 5, 65, 0
13, 360, Note_on_c, 5, 69, 48
13, 599, Note_on_c, 5, 69, 0
13, 720, Note_on_c, 5, 67, 48
13, 959, Note_on_c, 5, 67, 0
13, 1080, Note_on_c, 5, 73, 48
13, 1319, Note_on_c, 5, 73, 0
13, 1440, Note_on_c, 5, 74, 48
13, 1679, Note_on_c, 5, 74, 0
13, 1800, Note_on_c, 5, 64, 48
13, 2039, Note_on_c, 5, 64, 0
13, 2160, Note_on_c, 5, 62, 48
13, 2399, Note_on_c, 5, 62, 0
13, 2520, Note_on_c, 5, 67, 48
13, 2759, Note_on_c, 5, 67, 0
13, 2880, Note_on_c, 5, 65, 48
13, 3119, Note_on_c, 5, 65, 0
13, 3240, Note_on_c, 5, 69, 48
13, 3479, Note_on_c, 5, 69, 0
13, 3600, Note_on_c, 5, 67, 48
13, 3839, Note_on_c, 5, 67, 0
13, 3960, Note_on_c, 5, 73, 48
13, 4199, Note_on_c, 5, 73, 0
13, 4320, Note_on_c, 5, 74, 48
13, 4559, Note_on_c, 5, 74, 0
13, 4680, Note_on_c, 5, 69, 48
13, 4919, Note_on_c, 5, 69, 0
13, 5040, Note_on_c, 5, 67, 48
13, 5279, Note_on_c, 5, 67, 0
13, 5400, Note_on_c, 5, 73, 48
13, 5639, Note_on_c, 5, 73, 0
13, 5760, Note_on_c, 5, 62, 48
13, 5999, Note_on_c, 5, 62, 0
13, 6120, Note_on_c, 5, 61, 48
13, 6359, Note_on_c, 5, 61, 0
13, 6480, Note_on_c, 5, 62, 48
13, 6719, Note_on_c, 5, 62, 0
13, 6840, Note_on_c, 5, 64, 48
13, 7079, Note_on_c, 5, 64, 0
13, 7200, Note_on_c, 5, 65, 48
13, 7439, Note_on_c, 5, 65, 0
13, 7560, Note_on_c, 5, 59, 48
13, 7799, Note_on_c, 5, 59, 0
13, 7920, Note_on_c, 5, 64, 48
13, 8159, Note_on_c, 5, 64, 0
13, 8280, Note_on_c, 5, 67, 48
13, 8519, Note_on_c, 5, 67, 0
13, 8640, Note_on_c, 5, 67, 51
13, 8879, Note_on_c, 5, 67, 0
13, 9000, Note_on_c, 5, 67, 57
13, 9239, Note_on_c, 5, 67, 0
13, 9360, Note_on_c, 5, 65, 63
13, 9599, Note_on_c, 5, 65, 0
13, 9720, Note_on_c, 5, 69, 69
13, 9959, Note_on_c, 5, 69, 0
13, 10080, Note_on_c, 5, 67, 72
13, 10319, Note_on_c, 5, 67, 0
13, 10440, Note_on_c, 5, 74, 72
13, 10679, Note_on_c, 5, 74, 0
13, 10800, Note_on_c, 5, 74, 72
13, 11039, Note_on_c, 5, 74, 0
13, 11160, Note_on_c, 5, 73, 72
13, 11399, Note_on_c, 5, 73, 0
13, 11520, Note_on_c, 5, 67, 48
13, 11759, Note_on_c, 5, 67, 0
13, 11880, Note_on_c, 5, 67, 48
13, 12119, Note_on_c, 5, 67, 0
13, 12240, Note_on_c, 5, 65, 48
13, 12479, Note_on_c, 5, 65, 0
13, 12600, Note_on_c, 5, 65, 48
13, 12839, Note_on_c, 5, 65, 0
13, 12960, Note_on_c, 5, 67, 48
13, 13199, Note_on_c, 5, 67, 0
13, 13320, Note_on_c, 5, 61, 48
13, 13559, Note_on_c, 5, 61, 0
13, 13680, Note_on_c, 5, 62, 48
13, 13919, Note_on_c, 5, 62, 0
13, 14040, Note_on_c, 5, 65, 48
13, 14279, Note_on_c, 5, 65, 0
13, 14400, Note_on_c, 5, 70, 72
13, 14639, Note_on_c, 5, 70, 0
13, 14760, Note_on_c, 5, 70, 72
13, 14999, Note_on_c, 5, 70, 0
13, 15120, Note_on_c, 5, 70, 72
13, 15359, Note_on_c, 5, 70, 0
13, 15480, Note_on_c, 5, 70, 72
13, 15719, Note_on_c, 5, 70, 0
13, 15840, Note_on_c, 5, 69, 72
13, 16079, Note_on_c, 5, 69, 0
13, 16200, Note_on_c, 5, 69, 72
13, 16439, Note_on_c, 5, 69, 0
13, 16440, Note_on_c, 5, 67, 72
13, 16559, Note_on_c, 5, 67, 0
13, 16560, Note_on_c, 5, 65, 72
13, 16799, Note_on_c, 5, 65, 0
13, 16920, Note_on_c, 5, 70, 72
13, 17159, Note_on_c, 5, 70, 0
13, 17160, Note_on_c, 5, 68, 72
13, 17279, Note_on_c, 5, 68, 0
13, 17280, Note_on_c, 5, 68, 72
13, 17519, Note_on_c, 5, 68, 0
13, 17640, Note_on_c, 5, 67, 72
13, 17879, Note_on_c, 5, 67, 0
13, 18000, Note_on_c, 5, 67, 72
13, 18239, Note_on_c, 5, 67, 0
13, 18360, Note_on_c, 5, 67, 72
13, 18599, Note_on_c, 5, 67, 0
13, 18720, Note_on_c, 5, 64, 72
13, 18959, Note_on_c, 5, 64, 0
13, 19080, Note_on_c, 5, 69, 72
13, 19319, Note_on_c, 5, 69, 0
13, 19320, Note_on_c, 5, 67, 72
13, 19439, Note_on_c, 5, 67, 0
13, 19440, Note_on_c, 5, 67, 72
13, 19679, Note_on_c, 5, 67, 0
13, 19800, Note_on_c, 5, 65, 72
13, 20039, Note_on_c, 5, 65, 0
13, 20160, Note_on_c, 5, 68, 48
13, 20399, Note_on_c, 5, 68, 0
13, 20520, Note_on_c, 5, 68, 48
13, 20759, Note_on_c, 5, 68, 0
13, 20880, Note_on_c, 5, 68, 48
13, 21119, Note_on_c, 5, 68, 0
13, 21240, Note_on_c, 5, 68, 48
13, 21479, Note_on_c, 5, 68, 0
13, 21600, Note_on_c, 5, 68, 48
13, 21839, Note_on_c, 5, 68, 0
13, 21960, Note_on_c, 5, 68, 48
13, 22199, Note_on_c, 5, 68, 0
13, 22320, Note_on_c, 5, 68, 48
13, 22559, Note_on_c, 5, 68, 0
13, 22680, Note_on_c, 5, 68, 48
13, 22919, Note_on_c, 5, 68, 0
13, 23040, Note_on_c, 5, 67, 48
13, 23279, Note_on_c, 5, 67, 0
13, 23400, Note_on_c, 5, 67, 48
13, 23639, Note_on_c, 5, 67, 0
13, 23760, Note_on_c, 5, 67, 48
13, 23999, Note_on_c, 5, 67, 0
13, 24120, Note_on_c, 5, 60, 48
13, 24359, Note_on_c, 5, 60, 0
13, 24480, Note_on_c, 5, 62, 48
13, 24719, Note_on_c, 5, 62, 0
13, 24840, Note_on_c, 5, 65, 48
13, 25079, Note_on_c, 5, 65, 0
13, 25200, Note_on_c, 5, 57, 48
13, 25439, Note_on_c, 5, 57, 0
13, 25560, Note_on_c, 5, 58, 48
13, 25799, Note_on_c, 5, 58, 0
13, 25920, Note_on_c, 5, 57, 48
13, 26159, Note_on_c, 5, 57, 0
13, 26280, Note_on_c, 5, 63, 48
13, 26519, Note_on_c, 5, 63, 0
13, 26640, Note_on_c, 5, 62, 48
13, 26879, Note_on_c, 5, 62, 0
13, 27000, Note_on_c, 5, 57, 48
13, 27239, Note_on_c, 5, 57, 0
13, 27360, Note_on_c, 5, 58, 48
13, 27599, Note_on_c, 5, 58, 0
13, 27720, Note_on_c, 5, 56, 48
13, 27959, Note_on_c, 5, 56, 0
13, 28080, Note_on_c, 5, 57, 48
13, 28319, Note_on_c, 5, 57, 0
13, 28440, Note_on_c, 5, 58, 48
13, 28679, Note_on_c, 5, 58, 0
13, 28800, Note_on_c, 5, 57, 48
13, 29039, Note_on_c, 5, 57, 0
13, 29160, Note_on_c, 5, 69, 72
13, 29399, Note_on_c, 5, 69, 0
13, 29520, Note_on_c, 5, 67, 72
13, 29759, Note_on_c, 5, 67, 0
13, 29880, Note_on_c, 5, 64, 72
13, 30119, Note_on_c, 5, 64, 0
13, 30240, Note_on_c, 5, 65, 72
13, 30479, Note_on_c, 5, 65, 0
13, 30600, Note_on_c, 5, 69, 72
13, 30839, Note_on_c, 5, 69, 0
13, 30960, Note_on_c, 5, 67, 72
13, 31199, Note_on_c, 5, 67, 0
13, 31320, Note_on_c, 5, 73, 72
13, 31559, Note_on_c, 5, 73, 0
13, 31680, Note_on_c, 5, 74, 72
13, 31919, Note_on_c, 5, 74, 0
13, 32040, Note_on_c, 5, 69, 72
13, 32279, Note_on_c, 5, 69, 0
13, 32400, Note_on_c, 5, 67, 72
13, 32639, Note_on_c, 5, 67, 0
13, 32760, Note_on_c, 5, 73, 72
13, 32999, Note_on_c, 5, 73, 0
13, 33120, Note_on_c, 5, 74, 72
13, 33359, Note_on_c, 5, 74, 0
13, 33480, Note_on_c, 5, 62, 72
13, 33719, Note_on_c, 5, 62, 0
13, 33840, Note_on_c, 5, 70, 72
13, 34079, Note_on_c, 5, 70, 0
13, 34200, Note_on_c, 5, 66, 72
13, 34439, Note_on_c, 5, 66, 0
13, 34560, Note_on_c, 5, 67, 72
13, 34799, Note_on_c, 5, 67, 0
13, 34920, Note_on_c, 5, 67, 72
13, 35159, Note_on_c, 5, 67, 0
13, 35280, Note_on_c, 5, 67, 72
13, 35519, Note_on_c, 5, 67, 0
13, 35640, Note_on_c, 5, 65, 72
13, 35879, Note_on_c, 5, 65, 0
13, 36000, Note_on_c, 5, 64, 72
13, 36239, Note_on_c, 5, 64, 0
13, 36360, Note_on_c, 5, 62, 72
13, 36599, Note_on_c, 5, 62, 0
13, 36720, Note_on_c, 5, 64, 72
13, 36959, Note_on_c, 5, 64, 0
13, 37080, Note_on_c, 5, 65, 72
13, 37319, Note_on_c, 5, 65, 0
13, 37440, Note_on_c, 5, 64, 72
13, 37679, Note_on_c, 5, 64, 0
13, 37800, Note_on_c, 5, 65, 72
13, 38039, Note_on_c, 5, 65, 0
13, 38160, Note_on_c, 5, 64, 72
13, 38399, Note_on_c, 5, 64, 0
13, 38520, Note_on_c, 5, 64, 72
13, 38759, Note_on_c, 5, 64, 0
13, 38880, Note_on_c, 5, 65, 72
13, 39119, Note_on_c, 5, 65, 0
13, 39240, Note_on_c, 5, 69, 72
13, 39479, Note_on_c, 5, 69, 0
13, 39600, Note_on_c, 5, 72, 72
13, 39839, Note_on_c, 5, 72, 0
13, 39960, Note_on_c, 5, 66, 72
13, 40199, Note_on_c, 5, 66, 0
13, 40320, Note_on_c, 5, 67, 72
13, 40559, Note_on_c, 5, 67, 0
13, 40680, Note_on_c, 5, 70, 72
13, 40919, Note_on_c, 5, 70, 0
13, 41040, Note_on_c, 5, 62, 72
13, 41279, Note_on_c, 5, 62, 0
13, 41400, Note_on_c, 5, 67, 72
13, 41639, Note_on_c, 5, 67, 0
13, 41760, Note_on_c, 5, 69, 72
13, 41760, Note_on_c, 5, 62, 72
13, 43199, Note_on_c, 5, 62, 0
13, 43199, Note_on_c, 5, 69, 0
13, 43199, End_track
14, 0, Start_track
14, 0, Title_t, "Viola"
14, 0, Program_c, 6, 48
14, 0, Control_c, 6, 7, 96
14, 0, Control_c, 6, 10, 80
14, 0, Control_c, 6, 11, 127
14, 0, Note_on_c, 6, 62, 48
14, 239, Note_on_c, 6, 62, 0
14, 360, Note_on_c, 6, 65, 48
14, 599, Note_on_c, 6, 65, 0
14, 720, Note_on_c, 6, 64, 48
14, 959, Note_on_c, 6, 64, 0
14, 1080, Note_on_c, 6, 67, 48
14, 1319, Note_on_c, 6, 67, 0
14, 1440, Note_on_c, 6, 65, 48
14, 1679, Note_on_c, 6, 65, 0
14, 1800, Note_on_c, 6, 55, 48
14, 2039, Note_on_c, 6, 55, 0
14, 2160, Note_on_c, 6, 57, 48
14, 2399, Note_on_c, 6, 57, 0
14, 2520, Note_on_c, 6, 57, 48
14, 2759, Note_on_c, 6, 57, 0
14, 2880, Note_on_c, 6, 62, 48
14, 3119, Note_on_c, 6, 62, 0
14, 3240, Note_on_c, 6, 65, 48
14, 3479, Note_on_c, 6, 65, 0
14, 3600, Note_on_c, 6, 64, 48
14, 3839, Note_on_c, 6, 64, 0
14, 3960, Note_on_c, 6, 67, 48
14, 4199, Note_on_c, 6, 67, 0
14, 4320, Note_on_c, 6, 65, 48
14, 4559, Note_on_c, 6, 65, 0
14, 4680, Note_on_c, 6, 65, 48
14, 4919, Note_on_c, 6, 65, 0
14, 5040, Note_on_c, 6, 64, 48
14, 5279, Note_on_c, 6, 64, 0
14, 5400, Note_on_c, 6, 67, 48
14, 5519, Note_on_c, 6, 67, 0
14, 5760, Note_on_c, 6, 53, 48
14, 5999, Note_on_c, 6, 53, 0
14, 6120, Note_on_c, 6, 57, 48
14, 6359, Note_on_c, 6, 57, 0
14, 6480, Note_on_c, 6, 57, 48
14, 6719, Note_on_c, 6, 57, 0
14, 6840, Note_on_c, 6, 60, 48
14, 7079, Note_on_c, 6, 60, 0
14, 7200, Note_on_c, 6, 60, 48
14, 7439, Note_on_c, 6, 60, 0
14, 7560, Note_on_c, 6, 56, 48
14, 7799, Note_on_c, 6, 56, 0
14, 7920, Note_on_c, 6, 57, 48
14, 8159, Note_on_c, 6, 57, 0
14, 8280, Note_on_c, 6, 59, 48
14, 8519, Note_on_c, 6, 59, 0
14, 8640, Note_on_c, 6, 60, 51
14, 8879, Note_on_c, 6, 60, 0
14, 9000, Note_on_c, 6, 60, 57
14, 9239, Note_on_c, 6, 60, 0
14, 9360, Note_on_c, 6, 60, 63
14, 9599, Note_on_c, 6, 60, 0
14, 9720, Note_on_c, 6, 63, 69
14, 9959, Note_on_c, 6, 63, 0
14, 10080, Note_on_c, 6, 62, 72
14, 10319, Note_on_c, 6, 62, 0
14, 10440, Note_on_c, 6, 65, 72
14, 10679, Note_on_c, 6, 65, 0
14, 10800, Note_on_c, 6, 65, 72
14, 11039, Note_on_c, 6, 65, 0
14, 11160, Note_on_c, 6, 64, 72
14, 11399, Note_on_c, 6, 64, 0
14, 11520, Note_on_c, 6, 64, 48
14, 11759, Note_on_c, 6, 64, 0
14, 11880, Note_on_c, 6, 61, 48
14, 12119, Note_on_c, 6, 61, 0
14, 12240, Note_on_c, 6, 57, 48
14, 12479, Note_on_c, 6, 57, 0
14, 12600, Note_on_c, 6, 62, 48
14, 12839, Note_on_c, 6, 62, 0
14, 12960, Note_on_c, 6, 58, 48
14, 13199, Note_on_c, 6, 58, 0
14, 13320, Note_on_c, 6, 57, 48
14, 13559, Note_on_c, 6, 57, 0
14, 13680, Note_on_c, 6, 57, 48
14, 13919, Note_on_c, 6, 57, 0
14, 14040, Note_on_c, 6, 62, 48
14, 14279, Note_on_c, 6, 62, 0
14, 14400, Note_on_c, 6, 63, 72
14, 14639, Note_on_c, 6, 63, 0
14, 14760, Note_on_c, 6, 63, 72
14, 14999, Note_on_c, 6, 63, 0
14, 15120, Note_on_c, 6, 65, 72
14, 15359, Note_on_c, 6, 65, 0
14, 15480, Note_on_c, 6, 65, 72
14, 15719, Note_on_c, 6, 65, 0
14, 15840, Note_on_c, 6, 65, 72
14, 16079, Note_on_c, 6, 65, 0
14, 16200, Note_on_c, 6, 62, 72
14, 16439, Note_on_c, 6, 62, 0
14, 16440, Note_on_c, 6, 64, 72
14, 16559, Note_on_c, 6, 64, 0
14, 16560, Note_on_c, 6, 62, 72
14, 16799, Note_on_c, 6, 62, 0
14, 16920, Note_on_c, 6, 65, 72
14, 17159, Note_on_c, 6, 65, 0
14, 17280, Note_on_c, 6, 65, 72
14, 17519, Note_on_c, 6, 65, 0
14, 17640, Note_on_c, 6, 62, 72
14, 17879, Note_on_c, 6, 62, 0
14, 18000, Note_on_c, 6, 60, 72
14, 18239, Note_on_c, 6, 60, 0
14, 18360, Note_on_c, 6, 60, 72
14, 18599, Note_on_c, 6, 60, 0
14, 18720, Note_on_c, 6, 67, 72
14, 18959, Note_on_c, 6, 67, 0
14, 19080, Note_on_c, 6, 64, 72
14, 19319, Note_on_c, 6, 64, 0
14, 19440, Note_on_c, 6, 64, 72
14, 19679, Note_on_c, 6, 64, 0
14, 19800, Note_on_c, 6, 62, 72
14, 20039, Note_on_c, 6, 62, 0
14, 20160, Note_on_c, 6, 65, 48
14, 20399, Note_on_c, 6, 65, 0
14, 20520, Note_on_c, 6, 65, 48
14, 20759, Note_on_c, 6, 65, 0
14, 20880, Note_on_c, 6, 65, 48
14, 21119, Note_on_c, 6, 65, 0
14, 21240, Note_on_c, 6, 65, 48
14, 21479, Note_on_c, 6, 65, 0
14, 21600, Note_on_c, 6, 65, 48
14, 21839, Note_on_c, 6, 65, 0
14, 21960, Note_on_c, 6, 65, 48
14, 22199, Note_on_c, 6, 65, 0
14, 22320, Note_on_c, 6, 65, 48
14, 22559, Note_on_c, 6, 65, 0
14, 22680, Note_on_c, 6, 65, 48
14, 22919, Note_on_c, 6, 65, 0
14, 23040, Note_on_c, 6, 65, 48
14, 23279, Note_on_c, 6, 65, 0
14, 23400, Note_on_c, 6, 64, 48
14, 23639, Note_on_c, 6, 64, 0
14, 23760, Note_on_c, 6, 64, 48
14, 23999, Note_on_c, 6, 64, 0
14, 24120, Note_on_c, 6, 65, 48
14, 24359, Note_on_c, 6, 65, 0
14, 24480, Note_on_c, 6, 58, 48
14, 24719, Note_on_c, 6, 58, 0
14, 24840, Note_on_c, 6, 62, 48
14, 25079, Note_on_c, 6, 62, 0
14, 25200, Note_on_c, 6, 60, 48
14, 25439, Note_on_c, 6, 60, 0
14, 25560, Note_on_c, 6, 52, 48
14, 25799, Note_on_c, 6, 52, 0
14, 25920, Note_on_c, 6, 53, 48
14, 26159, Note_on_c, 6, 53, 0
14, 26280, Note_on_c, 6, 60, 48
14, 26519, Note_on_c, 6, 60, 0
14, 26640, Note_on_c, 6, 58, 48
14, 26879, Note_on_c, 6, 58, 0
14, 27000, Note_on_c, 6, 63, 48
14, 27239, Note_on_c, 6, 63, 0
14, 27360, Note_on_c, 6, 62, 48
14, 27599, Note_on_c, 6, 62, 0
14, 27720, Note_on_c, 6, 59, 48
14, 27959, Note_on_c, 6, 59, 0
14, 28080, Note_on_c, 6, 60, 48
14, 28319, Note_on_c, 6, 60, 0
14, 28440, Note_on_c, 6, 52, 48
14, 28679, Note_on_c, 6, 52, 0
14, 28800, Note_on_c, 6, 53, 48
14, 29039, Note_on_c, 6, 53, 0
14, 29160, Note_on_c, 6, 62, 72
14, 29399, Note_on_c, 6, 62, 0
14, 29520, Note_on_c, 6, 58, 72
14, 29759, Note_on_c, 6, 58, 0
14, 29880, Note_on_c, 6, 57, 72
14, 30119, Note_on_c, 6, 57, 0
14, 30240, Note_on_c, 6, 62, 72
14, 30479, Note_on_c, 6, 62, 0
14, 30600, Note_on_c, 6, 65, 72
14, 30839, Note_on_c, 6, 65, 0
14, 30960, Note_on_c, 6, 64, 72
14, 31199, Note_on_c, 6, 64, 0
14, 31320, Note_on_c, 6, 67, 72
14, 31559, Note_on_c, 6, 67, 0
14, 31680, Note_on_c, 6, 65, 72
14, 31919, Note_on_c, 6, 65, 0
14, 32040, Note_on_c, 6, 65, 72
14, 32279, Note_on_c, 6, 65, 0
14, 32400, Note_on_c, 6, 64, 72
14, 32639, Note_on_c, 6, 64, 0
14, 32760, Note_on_c, 6, 67, 72
14, 32999, Note_on_c, 6, 67, 0
14, 33120, Note_on_c, 6, 65, 72
14, 33359, Note_on_c, 6, 65, 0
14, 33480, Note_on_c, 6, 66, 72
14, 33719, Note_on_c, 6, 66, 0
14, 33840, Note_on_c, 6, 67, 72
14, 34079, Note_on_c, 6, 67, 0
14, 34200, Note_on_c, 6, 57, 72
14, 34439, Note_on_c, 6, 57, 0
14, 34560, Note_on_c, 6, 55, 72
14, 34799, Note_on_c, 6, 55, 0
14, 34920, Note_on_c, 6, 57, 72
14, 35159, Note_on_c, 6, 57, 0
14, 35280, Note_on_c, 6, 58, 72
14, 35519, Note_on_c, 6, 58, 0
14, 35640, Note_on_c, 6, 57, 72
14, 35879, Note_on_c, 6, 57, 0
14, 36000, Note_on_c, 6, 58, 72
14, 36239, Note_on_c, 6, 58, 0
14, 36360, Note_on_c, 6, 59, 72
14, 36599, Note_on_c, 6, 59, 0
14, 36720, Note_on_c, 6, 57, 72
14, 36959, Note_on_c, 6, 57, 0
14, 37080, Note_on_c, 6, 57, 72
14, 37319, Note_on_c, 6, 57, 0
14, 37440, Note_on_c, 6, 61, 72
14, 37679, Note_on_c, 6, 61, 0
14, 37800, Note_on_c, 6, 62, 72
14, 38039, Note_on_c, 6, 62, 0
14, 38160, Note_on_c, 6, 62, 72
14, 38399, Note_on_c, 6, 62, 0
14, 38520, Note_on_c, 6, 61, 72
14, 38759, Note_on_c, 6, 61, 0
14, 38880, Note_on_c, 6, 62, 72
14, 39119, Note_on_c, 6, 62, 0
14, 39240, Note_on_c, 6, 60, 72
14, 39479, Note_on_c, 6, 60, 0
14, 39600, Note_on_c, 6, 54, 72
14, 39839, Note_on_c, 6, 54, 0
14, 39960, Note_on_c, 6, 57, 72
14, 40199, Note_on_c, 6, 57, 0
14, 40320, Note_on_c, 6, 58, 72
14, 40559, Note_on_c, 6, 58, 0
14, 40680, Note_on_c, 6, 67, 72
14, 40919, Note_on_c, 6, 67, 0
14, 41040, Note_on_c, 6, 55, 72
14, 41279, Note_on_c, 6, 55, 0
14, 41400, Note_on_c, 6, 58, 72
14, 41639, Note_on_c, 6, 58, 0
14, 41760, Note_on_c, 6, 57, 72
14, 43199, Note_on_c, 6, 57, 0
14, 43199, End_track
15, 0, Start_track
15, 0, Title_t, "Cello"
15, 0, Program_c, 7, 48
15, 0, Control_c, 7, 7, 96
15, 0, Control_c, 7, 10, 96
15, 0, Control_c, 7, 11, 127
15, 2880, Note_on_c, 7, 50, 48
15, 3119, Note_on_c, 7, 50, 0
15, 3240, Note_on_c, 7, 53, 48
15, 3479, Note_on_c, 7, 53, 0
15, 3600, Note_on_c, 7, 52, 48
15, 3839, Note_on_c, 7, 52, 0
15, 3960, Note_on_c, 7, 45, 48
15, 4199, Note_on_c, 7, 45, 0
15, 4320, Note_on_c, 7, 50, 48
15, 4559, Note_on_c, 7, 50, 0
15, 4680, Note_on_c, 7, 53, 48
15, 4919, Note_on_c, 7, 53, 0
15, 5040, Note_on_c, 7, 52, 48
15, 5279, Note_on_c, 7, 52, 0
15, 5400, Note_on_c, 7, 45, 48
15, 5639, Note_on_c, 7, 45, 0
15, 5760, Note_on_c, 7, 50, 48
15, 5999, Note_on_c, 7, 50, 0
15, 6120, Note_on_c, 7, 45, 48
15, 6359, Note_on_c, 7, 45, 0
15, 6480, Note_on_c, 7, 50, 48
15, 6719, Note_on_c, 7, 50, 0
15, 6840, Note_on_c, 7, 48, 48
15, 7079, Note_on_c, 7, 48, 0
15, 7200, Note_on_c, 7, 53, 48
15, 7439, Note_on_c, 7, 53, 0
15, 7560, Note_on_c, 7, 52, 48
15, 7799, Note_on_c, 7, 52, 0
15, 7920, Note_on_c, 7, 45, 48
15, 8159, Note_on_c, 7, 45, 0
15, 8280, Note_on_c, 7, 43, 48
15, 8519, Note_on_c, 7, 43, 0
15, 8640, Note_on_c, 7, 48, 51
15, 8879, Note_on_c, 7, 48, 0
15, 9000, Note_on_c, 7, 58, 57
15, 9239, Note_on_c, 7, 58, 0
15, 9360, Note_on_c, 7, 57, 63
15, 9599, Note_on_c, 7, 57, 0
15, 9720, Note_on_c, 7, 60, 69
15, 9959, Note_on_c, 7, 60, 0
15, 10080, Note_on_c, 7, 59, 72
15, 10319, Note_on_c, 7, 59, 0
15, 10440, Note_on_c, 7, 58, 72
15, 10679, Note_on_c, 7, 58, 0
15, 10800, Note_on_c, 7, 57, 72
15, 11039, Note_on_c, 7, 57, 0
15, 11160, Note_on_c, 7, 45, 72
15, 11399, Note_on_c, 7, 45, 0
15, 11520, Note_on_c, 7, 49, 48
15, 11879, Note_on_c, 7, 49, 0
15, 11880, Note_on_c, 7, 45, 48
15, 12239, Note_on_c, 7, 45, 0
15, 12240, Note_on_c, 7, 50, 48
15, 12599, Note_on_c, 7, 50, 0
15, 12600, Note_on_c, 7, 45, 48
15, 12959, Note_on_c, 7, 45, 0
15, 12960, Note_on_c, 7, 52, 48
15, 13199, Note_on_c, 7, 52, 0
15, 13320, Note_on_c, 7, 45, 48
15, 13559, Note_on_c, 7, 45, 0
15, 13680, Note_on_c, 7, 53, 48
15, 13919, Note_on_c, 7, 53, 0
15, 14040, Note_on_c, 7, 45, 48
15, 14279, Note_on_c, 7, 45, 0
15, 14400, Note_on_c, 7, 55, 72
15, 14639, Note_on_c, 7, 55, 0
15, 14760, Note_on_c, 7, 43, 72
15, 14999, Note_on_c, 7, 43, 0
15, 15120, Note_on_c, 7, 44, 72
15, 15359, Note_on_c, 7, 44, 0
15, 15480, Note_on_c, 7, 56, 72
15, 15719, Note_on_c, 7, 56, 0
15, 15840, Note_on_c, 7, 57, 72
15, 16079, Note_on_c, 7, 57, 0
15, 16200, Note_on_c, 7, 45, 72
15, 16439, Note_on_c, 7, 45, 0
15, 16560, Note_on_c, 7, 46, 72
15, 16799, Note_on_c, 7, 46, 0
15, 16920, Note_on_c, 7, 58, 72
15, 17159, Note_on_c, 7, 58, 0
15, 17280, Note_on_c, 7, 59, 72
15, 17519, Note_on_c, 7, 59, 0
15, 17640, Note_on_c, 7, 47, 72
15, 17879, Note_on_c, 7, 47, 0
15, 18000, Note_on_c, 7, 48, 72
15, 18239, Note_on_c, 7, 48, 0
15, 18360, Note_on_c, 7, 60, 72
15, 18599, Note_on_c, 7, 60, 0
15, 18720, Note_on_c, 7, 61, 72
15, 18959, Note_on_c, 7, 61, 0
15, 19080, Note_on_c, 7, 49, 72
15, 19319, Note_on_c, 7, 49, 0
15, 19440, Note_on_c, 7, 50, 72
15, 19679, Note_on_c, 7, 50, 0
15, 19800, Note_on_c, 7, 62, 72
15, 20039, Note_on_c, 7, 62, 0
15, 20160, Note_on_c, 7, 62, 48
15, 20399, Note_on_c, 7, 62, 0
15, 20520, Note_on_c, 7, 60, 48
15, 20759, Note_on_c, 7, 60, 0
15, 20880, Note_on_c, 7, 59, 48
15, 21119, Note_on_c, 7, 59, 0
15, 21240, Note_on_c, 7, 59, 48
15, 21479, Note_on_c, 7, 59, 0
15, 21600, Note_on_c, 7, 59, 48
15, 21839, Note_on_c, 7, 59, 0
15, 21960, Note_on_c, 7, 60, 48
15, 22199, Note_on_c, 7, 60, 0
15, 22320, Note_on_c, 7, 61, 48
15, 22559, Note_on_c, 7, 61, 0
15, 22680, Note_on_c, 7, 61, 48
15, 22919, Note_on_c, 7, 61, 0
15, 23040, Note_on_c, 7, 62, 48
15, 23279, Note_on_c, 7, 62, 0
15, 23400, Note_on_c, 7, 60, 48
15, 23639, Note_on_c, 7, 60, 0
15, 23760, Note_on_c, 7, 58, 48
15, 23999, Note_on_c, 7, 58, 0
15, 24120, Note_on_c, 7, 57, 48
15, 24359, Note_on_c, 7, 57, 0
15, 24480, Note_on_c, 7, 46, 48
15, 24719, Note_on_c, 7, 46, 0
15, 24840, Note_on_c, 7, 50, 48
15, 25079, Note_on_c, 7, 50, 0
15, 25200, Note_on_c, 7, 48, 48
15, 25439, Note_on_c, 7, 48, 0
15, 25560, Note_on_c, 7, 48, 48
15, 25799, Note_on_c, 7, 48, 0
15, 25920, Note_on_c, 7, 41, 48
15, 26159, Note_on_c, 7, 41, 0
15, 26280, Note_on_c, 7, 45, 48
15, 26519, Note_on_c, 7, 45, 0
15, 26640, Note_on_c, 7, 46, 48
15, 26879, Note_on_c, 7, 46, 0
15, 27000, Note_on_c, 7, 48, 48
15, 27239, Note_on_c, 7, 48, 0
15, 27360, Note_on_c, 7, 46, 48
15, 27599, Note_on_c, 7, 46, 0
15, 27720, Note_on_c, 7, 50, 48
15, 27959, Note_on_c, 7, 50, 0
15, 28080, Note_on_c, 7, 48, 48
15, 28319, Note_on_c, 7, 48, 0
15, 28440, Note_on_c, 7, 48, 48
15, 28679, Note_on_c, 7, 48, 0
15, 28800, Note_on_c, 7, 53, 48
15, 29039, Note_on_c, 7, 53, 0
15, 29160, Note_on_c, 7, 53, 72
15, 29399, Note_on_c, 7, 53, 0
15, 29520, Note_on_c, 7, 52, 72
15, 29759, Note_on_c, 7, 52, 0
15, 29880, Note_on_c, 7, 45, 72
15, 30119, Note_on_c, 7, 45, 0
15, 30240, Note_on_c, 7, 50, 72
15, 30479, Note_on_c, 7, 50, 0
15, 30600, Note_on_c, 7, 53, 72
15, 30839, Note_on_c, 7, 53, 0
15, 30960, Note_on_c, 7, 52, 72
15, 31199, Note_on_c, 7, 52, 0
15, 31320, Note_on_c, 7, 45, 72
15, 31559, Note_on_c, 7, 45, 0
15, 31680, Note_on_c, 7, 50, 72
15, 31919, Note_on_c, 7, 50, 0
15, 32040, Note_on_c, 7, 53, 72
15, 32279, Note_on_c, 7, 53, 0
15, 32400, Note_on_c, 7, 52, 72
15, 32639, Note_on_c, 7, 52, 0
15, 32760, Note_on_c, 7, 45, 72
15, 32999, Note_on_c, 7, 45, 0
15, 33120, Note_on_c, 7, 50, 72
15, 33359, Note_on_c, 7, 50, 0
15, 33480, Note_on_c, 7, 54, 72
15, 33719, Note_on_c, 7, 54, 0
15, 33840, Note_on_c, 7, 55, 72
15, 34079, Note_on_c, 7, 55, 0
15, 34200, Note_on_c, 7, 50, 72
15, 34439, Note_on_c, 7, 50, 0
15, 34560, Note_on_c, 7, 51, 72
15, 34799, Note_on_c, 7, 51, 0
15, 34920, Note_on_c, 7, 48, 72
15, 35159, Note_on_c, 7, 48, 0
15, 35280, Note_on_c, 7, 49, 72
15, 35519, Note_on_c, 7, 49, 0
15, 35640, Note_on_c, 7, 50, 72
15, 35879, Note_on_c, 7, 50, 0
15, 36000, Note_on_c, 7, 43, 72
15, 36239, Note_on_c, 7, 43, 0
15, 36360, Note_on_c, 7, 44, 72
15, 36599, Note_on_c, 7, 44, 0
15, 36720, Note_on_c, 7, 45, 72
15, 36959, Note_on_c, 7, 45, 0
15, 37080, Note_on_c, 7, 45, 72
15, 37319, Note_on_c, 7, 45, 0
15, 37440, Note_on_c, 7, 45, 72
15, 37679, Note_on_c, 7, 45, 0
15, 37800, Note_on_c, 7, 45, 72
15, 38039, Note_on_c, 7, 45, 0
15, 38160, Note_on_c, 7, 45, 72
15, 38399, Note_on_c, 7, 45, 0
15, 38520, Note_on_c, 7, 45, 72
15, 38759, Note_on_c, 7, 45, 0
15, 38880, Note_on_c, 7, 50, 72
15, 39119, Note_on_c, 7, 50, 0
15, 39240, Note_on_c, 7, 50, 72
15, 39479, Note_on_c, 7, 50, 0
15, 39600, Note_on_c, 7, 50, 72
15, 39839, Note_on_c, 7, 50, 0
15, 39960, Note_on_c, 7, 50, 72
15, 40199, Note_on_c, 7, 50, 0
15, 40320, Note_on_c, 7, 55, 72
15, 40559, Note_on_c, 7, 55, 0
15, 40680, Note_on_c, 7, 50, 72
15, 40919, Note_on_c, 7, 50, 0
15, 41040, Note_on_c, 7, 46, 72
15, 41279, Note_on_c, 7, 46, 0
15, 41400, Note_on_c, 7, 43, 72
15, 41639, Note_on_c, 7, 43, 0
15, 41760, Note_on_c, 7, 50, 72
15, 43199, Note_on_c, 7, 50, 0
15, 43199, End_track
16, 0, Start_track
16, 0, Title_t, "Contrabass"
16, 0, Program_c, 8, 48
16, 0, Control_c, 8, 7, 104
16, 0, Control_c, 8, 10, 112
16, 0, Control_c, 8, 11, 127
16, 2880, Note_on_c, 8, 38, 48
16, 3119, Note_on_c, 8, 38, 0
16, 3240, Note_on_c, 8, 41, 48
16, 3479, Note_on_c, 8, 41, 0
16, 3600, Note_on_c, 8, 40, 48
16, 3839, Note_on_c, 8, 40, 0
16, 3960, Note_on_c, 8, 33, 48
16, 4199, Note_on_c, 8, 33, 0
16, 4320, Note_on_c, 8, 38, 48
16, 4559, Note_on_c, 8, 38, 0
16, 4680, Note_on_c, 8, 41, 48
16, 4919, Note_on_c, 8, 41, 0
16, 5040, Note_on_c, 8, 40, 48
16, 5279, Note_on_c, 8, 40, 0
16, 5400, Note_on_c, 8, 33, 48
16, 5639, Note_on_c, 8, 33, 0
16, 5760, Note_on_c, 8, 38, 48
16, 5999, Note_on_c, 8, 38, 0
16, 6120, Note_on_c, 8, 33, 48
16, 6359, Note_on_c, 8, 33, 0
16, 6480, Note_on_c, 8, 38, 48
16, 6719, Note_on_c, 8, 38, 0
16, 6840, Note_on_c, 8, 36, 48
16, 7079, Note_on_c, 8, 36, 0
16, 7200, Note_on_c, 8, 41, 48
16, 7439, Note_on_c, 8, 41, 0
16, 7560, Note_on_c, 8, 40, 48
16, 7799, Note_on_c, 8, 40, 0
16, 7920, Note_on_c, 8, 33, 48
16, 8159, Note_on_c, 8, 33, 0
16, 8280, Note_on_c, 8, 31, 48
16, 8519, Note_on_c, 8, 31, 0
16, 8640, Note_on_c, 8, 36, 51
16, 8879, Note_on_c, 8, 36, 0
16, 9000, Note_on_c, 8, 46, 57
16, 9239, Note_on_c, 8, 46, 0
16, 9360, Note_on_c, 8, 45, 63
16, 9599, Note_on_c, 8, 45, 0
16, 9720, Note_on_c, 8, 48, 69
16, 9959, Note_on_c, 8, 48, 0
16, 10080, Note_on_c, 8, 47, 72
16, 10319, Note_on_c, 8, 47, 0
16, 10440, Note_on_c, 8, 46, 72
16, 10679, Note_on_c, 8, 46, 0
16, 10800, Note_on_c, 8, 45, 72
16, 11039, Note_on_c, 8, 45, 0
16, 11160, Note_on_c, 8, 33, 72
16, 11399, Note_on_c, 8, 33, 0
16, 11520, Note_on_c, 8, 37, 48
16, 11879, Note_on_c, 8, 37, 0
16, 11880, Note_on_c, 8, 33, 48
16, 12239, Note_on_c, 8, 33, 0
16, 12240, Note_on_c, 8, 38, 48
16, 12599, Note_on_c, 8, 38, 0
16, 12600, Note_on_c, 8, 33, 48
16, 12959, Note_on_c, 8, 33, 0
16, 12960, Note_on_c, 8, 40, 48
16, 13199, Note_on_c, 8, 40, 0
16, 13320, Note_on_c, 8, 33, 48
16, 13559, Note_on_c, 8, 33, 0
16, 13680, Note_on_c, 8, 41, 48
16, 13919, Note_on_c, 8, 41, 0
16, 14040, Note_on_c, 8, 33, 48
16, 14279, Note_on_c, 8, 33, 0
16, 14400, Note_on_c, 8, 43, 72
16, 14639, Note_on_c, 8, 43, 0
16, 14760, Note_on_c, 8, 31, 72
16, 14999, Note_on_c, 8, 31, 0
16, 15120, Note_on_c, 8, 32, 72
16, 15359, Note_on_c, 8, 32, 0
16, 15480, Note_on_c, 8, 44, 72
16, 15719, Note_on_c, 8, 44, 0
16, 15840, Note_on_c, 8, 45, 72
16, 16079, Note_on_c, 8, 45, 0
16, 16200, Note_on_c, 8, 33, 72
16, 16439, Note_on_c, 8, 33, 0
16, 16560, Note_on_c, 8, 34, 72
16, 16799, Note_on_c, 8, 34, 0
16, 16920, Note_on_c, 8, 46, 72
16, 17159, Note_on_c, 8, 46, 0
16, 17280, Note_on_c, 8, 47, 72
16, 17519, Note_on_c, 8, 47, 0
16, 17640, Note_on_c, 8, 35, 72
16, 17879, Note_on_c, 8, 35, 0
16, 18000, Note_on_c, 8, 36, 72
16, 18239, Note_on_c, 8, 36, 0
16, 18360, Note_on_c, 8, 48, 72
16, 18599, Note_on_c, 8, 48, 0
16, 18720, Note_on_c, 8, 49, 72
16, 18959, Note_on_c, 8, 49, 0
16, 19080, Note_on_c, 8, 37, 72
16, 19319, Note_on_c, 8, 37, 0
16, 19440, Note_on_c, 8, 38, 72
16, 19679, Note_on_c, 8, 38, 0
16, 19800, Note_on_c, 8, 50, 72
16, 20039, Note_on_c, 8, 50, 0
16, 20160, Note_on_c, 8, 50, 48
16, 20399, Note_on_c, 8, 50, 0
16, 20520, Note_on_c, 8, 48, 48
16, 20759, Note_on_c, 8, 48, 0
16, 20880, Note_on_c, 8, 47, 48
16, 21119, Note_on_c, 8, 47, 0
16, 21240, Note_on_c, 8, 47, 48
16, 21479, Note_on_c, 8, 47, 0
16, 21600, Note_on_c, 8, 47, 48
16, 21839, Note_on_c, 8, 47, 0
16, 21960, Note_on_c, 8, 48, 48
16, 22199, Note_on_c, 8, 48, 0
16, 22320, Note_on_c, 8, 49, 48
16, 22559, Note_on_c, 8, 49, 0
16, 22680, Note_on_c, 8, 49, 48
16, 22919, Note_on_c, 8, 49, 0
16, 23040, Note_on_c, 8, 50, 48
16, 23279, Note_on_c, 8, 50, 0
16, 23400, Note_on_c, 8, 48, 48
16, 23639, Note_on_c, 8, 48, 0
16, 23760, Note_on_c, 8, 46, 48
16, 23999, Note_on_c, 8, 46, 0
16, 24120, Note_on_c, 8, 45, 48
16, 24359, Note_on_c, 8, 45, 0
16, 24480, Note_on_c, 8, 34, 48
16, 24719, Note_on_c, 8, 34, 0
16, 24840, Note_on_c, 8, 38, 48
16, 25079, Note_on_c, 8, 38, 0
16, 25200, Note_on_c, 8, 36, 48
16, 25439, Note_on_c, 8, 36, 0
16, 25560, Note_on_c, 8, 36, 48
16, 25799, Note_on_c, 8, 36, 0
16, 25920, Note_on_c, 8, 29, 48
16, 26159, Note_on_c, 8, 29, 0
16, 26280, Note_on_c, 8, 33, 48
16, 26519, Note_on_c, 8, 33, 0
16, 26640, Note_on_c, 8, 34, 48
16, 26879, Note_on_c, 8, 34, 0
16, 27000, Note_on_c, 8, 36, 48
16, 27239, Note_on_c, 8, 36, 0
16, 27360, Note_on_c, 8, 34, 48
16, 27599, Note_on_c, 8, 34, 0
16, 27720, Note_on_c, 8, 38, 48
16, 27959, Note_on_c, 8, 38, 0
16, 28080, Note_on_c, 8, 36, 48
16, 28319, Note_on_c, 8, 36, 0
16, 28440, Note_on_c, 8, 36, 48
16, 28679, Note_on_c, 8, 36, 0
16, 28800, Note_on_c, 8, 41, 48
16, 29039, Note_on_c, 8, 41, 0
16, 29160, Note_on_c, 8, 41, 72
16, 29399, Note_on_c, 8, 41, 0
16, 29520, Note_on_c, 8, 40, 72
16, 29759, Note_on_c, 8, 40, 0
16, 29880, Note_on_c, 8, 33, 72
16, 30119, Note_on_c, 8, 33, 0
16, 30240, Note_on_c, 8, 38, 72
16, 30479, Note_on_c, 8, 38, 0
16, 30600, Note_on_c, 8, 41, 72
16, 30839, Note_on_c, 8, 41, 0
16, 30960, Note_on_c, 8, 40, 72
16, 31199, Note_on_c, 8, 40, 0
16, 31320, Note_on_c, 8, 33, 72
16, 31559, Note_on_c, 8, 33, 0
16, 31680, Note_on_c, 8, 38, 72
16, 31919, Note_on_c, 8, 38, 0
16, 32040, Note_on_c, 8, 41, 72
16, 32279, Note_on_c, 8, 41, 0
16, 32400, Note_on_c, 8, 40, 72
16, 32639, Note_on_c, 8, 40, 0
16, 32760, Note_on_c, 8, 33, 72
16, 32999, Note_on_c, 8, 33, 0
16, 33120, Note_on_c, 8, 38, 72
16, 33359, Note_on_c, 8, 38, 0
16, 33480, Note_on_c, 8, 42, 72
16, 33719, Note_on_c, 8, 42, 0
16, 33840, Note_on_c, 8, 43, 72
16, 34079, Note_on_c, 8, 43, 0
16, 34200, Note_on_c, 8, 38, 72
16, 34439, Note_on_c, 8, 38, 0
16, 34560, Note_on_c, 8, 39, 72
16, 34799, Note_on_c, 8, 39, 0
16, 34920, Note_on_c, 8, 36, 72
16, 35159, Note_on_c, 8, 36, 0
16, 35280, Note_on_c, 8, 37, 72
16, 35519, Note_on_c, 8, 37, 0
16, 35640, Note_on_c, 8, 38, 72
16, 35879, Note_on_c, 8, 38, 0
16, 36000, Note_on_c, 8, 31, 72
16, 36239, Note_on_c, 8, 31, 0
16, 36360, Note_on_c, 8, 32, 72
16, 36599, Note_on_c, 8, 32, 0
16, 36720, Note_on_c, 8, 33, 72
16, 36959, Note_on_c, 8, 33, 0
16, 37080, Note_on_c, 8, 33, 72
16, 37319, Note_on_c, 8, 33, 0
16, 37440, Note_on_c, 8, 33, 72
16, 37679, Note_on_c, 8, 33, 0
16, 37800, Note_on_c, 8, 33, 72
16, 38039, Note_on_c, 8, 33, 0
16, 38160, Note_on_c, 8, 33, 72
16, 38399, Note_on_c, 8, 33, 0
16, 38520, Note_on_c, 8, 33, 72
16, 38759, Note_on_c, 8, 33, 0
16, 38880, Note_on_c, 8, 38, 72
16, 39119, Note_on_c, 8, 38, 0
16, 39240, Note_on_c, 8, 38, 72
16, 39479, Note_on_c, 8, 38, 0
16, 39600, Note_on_c, 8, 38, 72
16, 39839, Note_on_c, 8, 38, 0
16, 39960, Note_on_c, 8, 38, 72
16, 40199, Note_on_c, 8, 38, 0
16, 40320, Note_on_c, 8, 43, 72
16, 40559, Note_on_c, 8, 43, 0
16, 40680, Note_on_c, 8, 38, 72
16, 40919, Note_on_c, 8, 38, 0
16, 41040, Note_on_c, 8, 34, 72
16, 41279, Note_on_c, 8, 34, 0
16, 41400, Note_on_c, 8, 31, 72
16, 41639, Note_on_c, 8, 31, 0
16, 41760, Note_on_c, 8, 38, 72
16, 43199, Note_on_c, 8, 38, 0
16, 43199, End_track
17, 0, Start_track
17, 0, Title_t, "Soprano "
17, 0, Program_c, 10, 52
17, 0, Control_c, 10, 7, 127
17, 0, Control_c, 10, 10, 24
17, 0, Control_c, 10, 11, 127
17, 2880, Note_on_c, 10, 69, 58
17, 3359, Note_on_c, 10, 69, 0
17, 3360, Note_on_c, 10, 77, 58
17, 3479, Note_on_c, 10, 77, 0
17, 3480, Note_on_c, 10, 74, 58
17, 3599, Note_on_c, 10, 74, 0
17, 3600, Note_on_c, 10, 74, 58
17, 3959, Note_on_c, 10, 74, 0
17, 3960, Note_on_c, 10, 73, 58
17, 4079, Note_on_c, 10, 73, 0
17, 4320, Note_on_c, 10, 69, 58
17, 4799, Note_on_c, 10, 69, 0
17, 4800, Note_on_c, 10, 77, 58
17, 4919, Note_on_c, 10, 77, 0
17, 4920, Note_on_c, 10, 74, 58
17, 5039, Note_on_c, 10, 74, 0
17, 5040, Note_on_c, 10, 74, 58
17, 5399, Note_on_c, 10, 74, 0
17, 5400, Note_on_c, 10, 73, 58
17, 5519, Note_on_c, 10, 73, 0
17, 5760, Note_on_c, 10, 62, 58
17, 5879, Note_on_c, 10, 62, 0
17, 6120, Note_on_c, 10, 64, 58
17, 6239, Note_on_c, 10, 64, 0
17, 6480, Note_on_c, 10, 65, 58
17, 6599, Note_on_c, 10, 65, 0
17, 6840, Note_on_c, 10, 67, 58
17, 6959, Note_on_c, 10, 67, 0
17, 7200, Note_on_c, 10, 69, 58
17, 7319, Note_on_c, 10, 69, 0
17, 7560, Note_on_c, 10, 71, 58
17, 7679, Note_on_c, 10, 71, 0
17, 7920, Note_on_c, 10, 72, 58
17, 8039, Note_on_c, 10, 72, 0
17, 8280, Note_on_c, 10, 74, 58
17, 8399, Note_on_c, 10, 74, 0
17, 8640, Note_on_c, 10, 75, 58
17, 8999, Note_on_c, 10, 75, 0
17, 9000, Note_on_c, 10, 76, 66
17, 9359, Note_on_c, 10, 76, 0
17, 9360, Note_on_c, 10, 77, 73
17, 9719, Note_on_c, 10, 77, 0
17, 9720, Note_on_c, 10, 78, 80
17, 10079, Note_on_c, 10, 78, 0
17, 10080, Note_on_c, 10, 79, 88
17, 10439, Note_on_c, 10, 79, 0
17, 10440, Note_on_c, 10, 80, 88
17, 10799, Note_on_c, 10, 80, 0
17, 10800, Note_on_c, 10, 81, 88
17, 11159, Note_on_c, 10, 81, 0
17, 11160, Note_on_c, 10, 69, 88
17, 11279, Note_on_c, 10, 69, 0
17, 11520, Note_on_c, 10, 69, 58
17, 11999, Note_on_c, 10, 69, 0
17, 12000, Note_on_c, 10, 70, 58
17, 12119, Note_on_c, 10, 70, 0
17, 12120, Note_on_c, 10, 69, 58
17, 12239, Note_on_c, 10, 69, 0
17, 12240, Note_on_c, 10, 69, 58
17, 12719, Note_on_c, 10, 69, 0
17, 12720, Note_on_c, 10, 77, 58
17, 12839, Note_on_c, 10, 77, 0
17, 12840, Note_on_c, 10, 74, 58
17, 12959, Note_on_c, 10, 74, 0
17, 12960, Note_on_c, 10, 73, 58
17, 13439, Note_on_c, 10, 73, 0
17, 13440, Note_on_c, 10, 74, 58
17, 13559, Note_on_c, 10, 74, 0
17, 13560, Note_on_c, 10, 76, 58
17, 13679, Note_on_c, 10, 76, 0
17, 13680, Note_on_c, 10, 76, 58
17, 14039, Note_on_c, 10, 76, 0
17, 14040, Note_on_c, 10, 74, 58
17, 14279, Note_on_c, 10, 74, 0
17, 14400, Note_on_c, 10, 75, 88
17, 14879, Note_on_c, 10, 75, 0
17, 14880, Note_on_c, 10, 79, 88
17, 14999, Note_on_c, 10, 79, 0
17, 15000, Note_on_c, 10, 75, 88
17, 15119, Note_on_c, 10, 75, 0
17, 15120, Note_on_c, 10, 75, 88
17, 15479, Note_on_c, 10, 75, 0
17, 15480, Note_on_c, 10, 74, 88
17, 15599, Note_on_c, 10, 74, 0
17, 15840, Note_on_c, 10, 74, 88
17, 16319, Note_on_c, 10, 74, 0
17, 16320, Note_on_c, 10, 77, 88
17, 16439, Note_on_c, 10, 77, 0
17, 16440, Note_on_c, 10, 76, 88
17, 16559, Note_on_c, 10, 76, 0
17, 16560, Note_on_c, 10, 76, 88
17, 16919, Note_on_c, 10, 76, 0
17, 16920, Note_on_c, 10, 74, 88
17, 17039, Note_on_c, 10, 74, 0
17, 17280, Note_on_c, 10, 74, 88
17, 17759, Note_on_c, 10, 74, 0
17, 17760, Note_on_c, 10, 79, 88
17, 17879, Note_on_c, 10, 79, 0
17, 17880, Note_on_c, 10, 77, 88
17, 17999, Note_on_c, 10, 77, 0
17, 18000, Note_on_c, 10, 77, 88
17, 18359, Note_on_c, 10, 77, 0
17, 18360, Note_on_c, 10, 76, 88
17, 18599, Note_on_c, 10, 76, 0
17, 18720, Note_on_c, 10, 76, 88
17, 19319, Note_on_c, 10, 76, 0
17, 19320, Note_on_c, 10, 69, 88
17, 19439, Note_on_c, 10, 69, 0
17, 19440, Note_on_c, 10, 69, 88
17, 19799, Note_on_c, 10, 69, 0
17, 19800, Note_on_c, 10, 69, 88
17, 20039, Note_on_c, 10, 69, 0
17, 20160, Note_on_c, 10, 71, 58
17, 20519, Note_on_c, 10, 71, 0
17, 20520, Note_on_c, 10, 72, 58
17, 20879, Note_on_c, 10, 72, 0
17, 20880, Note_on_c, 10, 74, 58
17, 21239, Note_on_c, 10, 74, 0
17, 21240, Note_on_c, 10, 74, 58
17, 21599, Note_on_c, 10, 74, 0
17, 21600, Note_on_c, 10, 74, 58
17, 21959, Note_on_c, 10, 74, 0
17, 21960, Note_on_c, 10, 72, 58
17, 22319, Note_on_c, 10, 72, 0
17, 22320, Note_on_c, 10, 71, 58
17, 22679, Note_on_c, 10, 71, 0
17, 22680, Note_on_c, 10, 71, 58
17, 23039, Note_on_c, 10, 71, 0
17, 23040, Note_on_c, 10, 71, 58
17, 23399, Note_on_c, 10, 71, 0
17, 23400, Note_on_c, 10, 72, 58
17, 23759, Note_on_c, 10, 72, 0
17, 23760, Note_on_c, 10, 74, 58
17, 24119, Note_on_c, 10, 74, 0
17, 24120, Note_on_c, 10, 72, 58
17, 24359, Note_on_c, 10, 72, 0
17, 24360, Note_on_c, 10, 77, 58
17, 24479, Note_on_c, 10, 77, 0
17, 24480, Note_on_c, 10, 77, 58
17, 24959, Note_on_c, 10, 77, 0
17, 24960, Note_on_c, 10, 74, 58
17, 25079, Note_on_c, 10, 74, 0
17, 25080, Note_on_c, 10, 71, 58
17, 25199, Note_on_c, 10, 71, 0
17, 25200, Note_on_c, 10, 72, 58
17, 25679, Note_on_c, 10, 72, 0
17, 25680, Note_on_c, 10, 70, 58
17, 25799, Note_on_c, 10, 70, 0
17, 25800, Note_on_c, 10, 67, 58
17, 25919, Note_on_c, 10, 67, 0
17, 25920, Note_on_c, 10, 65, 58
17, 26159, Note_on_c, 10, 65, 0
17, 30240, Note_on_c, 10, 69, 88
17, 30719, Note_on_c, 10, 69, 0
17, 30720, Note_on_c, 10, 77, 88
17, 30839, Note_on_c, 10, 77, 0
17, 30840, Note_on_c, 10, 74, 88
17, 30959, Note_on_c, 10, 74, 0
17, 30960, Note_on_c, 10, 74, 88
17, 31319, Note_on_c, 10, 74, 0
17, 31320, Note_on_c, 10, 73, 88
17, 31439, Note_on_c, 10, 73, 0
17, 31680, Note_on_c, 10, 69, 88
17, 32159, Note_on_c, 10, 69, 0
17, 32160, Note_on_c, 10, 77, 88
17, 32279, Note_on_c, 10, 77, 0
17, 32280, Note_on_c, 10, 74, 88
17, 32399, Note_on_c, 10, 74, 0
17, 32400, Note_on_c, 10, 74, 88
17, 32759, Note_on_c, 10, 74, 0
17, 32760, Note_on_c, 10, 73, 88
17, 32879, Note_on_c, 10, 73, 0
17, 33840, Note_on_c, 10, 74, 88
17, 34199, Note_on_c, 10, 74, 0
17, 34200, Note_on_c, 10, 72, 88
17, 34559, Note_on_c, 10, 72, 0
17, 34560, Note_on_c, 10, 70, 88
17, 34919, Note_on_c, 10, 70, 0
17, 34920, Note_on_c, 10, 69, 88
17, 35279, Note_on_c, 10, 69, 0
17, 35280, Note_on_c, 10, 67, 88
17, 35639, Note_on_c, 10, 67, 0
17, 35640, Note_on_c, 10, 65, 88
17, 35999, Note_on_c, 10, 65, 0
17, 36000, Note_on_c, 10, 64, 88
17, 36359, Note_on_c, 10, 64, 0
17, 36360, Note_on_c, 10, 62, 88
17, 36719, Note_on_c, 10, 62, 0
17, 36720, Note_on_c, 10, 61, 88
17, 37079, Note_on_c, 10, 61, 0
17, 37080, Note_on_c, 10, 62, 88
17, 37439, Note_on_c, 10, 62, 0
17, 37440, Note_on_c, 10, 64, 88
17, 37799, Note_on_c, 10, 64, 0
17, 37800, Note_on_c, 10, 65, 88
17, 38159, Note_on_c, 10, 65, 0
17, 38160, Note_on_c, 10, 64, 88
17, 38519, Note_on_c, 10, 64, 0
17, 38520, Note_on_c, 10, 64, 88
17, 38879, Note_on_c, 10, 64, 0
17, 38880, Note_on_c, 10, 62, 88
17, 39119, Note_on_c, 10, 62, 0
17, 40320, Note_on_c, 10, 74, 88
17, 41759, Note_on_c, 10, 74, 0
17, 41760, Note_on_c, 10, 74, 88
17, 43199, Note_on_c, 10, 74, 0
17, 43199, End_track
18, 0, Start_track
18, 0, Title_t, "Alto "
18, 0, Program_c, 11, 52
18, 0, Control_c, 11, 7, 127
18, 0, Control_c, 11, 10, 96
18, 0, Control_c, 11, 11, 127
18, 2880, Note_on_c, 11, 65, 58
18, 3359, Note_on_c, 11, 65, 0
18, 3360, Note_on_c, 11, 62, 58
18, 3479, Note_on_c, 11, 62, 0
18, 3480, Note_on_c, 11, 69, 58
18, 3599, Note_on_c, 11, 69, 0
18, 3600, Note_on_c, 11, 67, 58
18, 3959, Note_on_c, 11, 67, 0
18, 3960, Note_on_c, 11, 67, 58
18, 4079, Note_on_c, 11, 67, 0
18, 4320, Note_on_c, 11, 65, 58
18, 4799, Note_on_c, 11, 65, 0
18, 4800, Note_on_c, 11, 62, 58
18, 4919, Note_on_c, 11, 62, 0
18, 4920, Note_on_c, 11, 69, 58
18, 5039, Note_on_c, 11, 69, 0
18, 5040, Note_on_c, 11, 67, 58
18, 5399, Note_on_c, 11, 67, 0
18, 5400, Note_on_c, 11, 67, 58
18, 5519, Note_on_c, 11, 67, 0
18, 5760, Note_on_c, 11, 57, 58
18, 5879, Note_on_c, 11, 57, 0
18, 6120, Note_on_c, 11, 61, 58
18, 6239, Note_on_c, 11, 61, 0
18, 6480, Note_on_c, 11, 62, 58
18, 6599, Note_on_c, 11, 62, 0
18, 6840, Note_on_c, 11, 64, 58
18, 6959, Note_on_c, 11, 64, 0
18, 7200, Note_on_c, 11, 65, 58
18, 7319, Note_on_c, 11, 65, 0
18, 7560, Note_on_c, 11, 59, 58
18, 7679, Note_on_c, 11, 59, 0
18, 7920, Note_on_c, 11, 62, 58
18, 8039, Note_on_c, 11, 62, 0
18, 8280, Note_on_c, 11, 67, 58
18, 8399, Note_on_c, 11, 67, 0
18, 8640, Note_on_c, 11, 67, 58
18, 8999, Note_on_c, 11, 67, 0
18, 9000, Note_on_c, 11, 67, 66
18, 9359, Note_on_c, 11, 67, 0
18, 9360, Note_on_c, 11, 65, 73
18, 9719, Note_on_c, 11, 65, 0
18, 9720, Note_on_c, 11, 69, 80
18, 10079, Note_on_c, 11, 69, 0
18, 10080, Note_on_c, 11, 67, 88
18, 10439, Note_on_c, 11, 67, 0
18, 10440, Note_on_c, 11, 74, 88
18, 10799, Note_on_c, 11, 74, 0
18, 10800, Note_on_c, 11, 74, 88
18, 11159, Note_on_c, 11, 74, 0
18, 11160, Note_on_c, 11, 73, 88
18, 11279, Note_on_c, 11, 73, 0
18, 11520, Note_on_c, 11, 67, 58
18, 12119, Note_on_c, 11, 67, 0
18, 12120, Note_on_c, 11, 67, 58
18, 12239, Note_on_c, 11, 67, 0
18, 12240, Note_on_c, 11, 65, 58
18, 12719, Note_on_c, 11, 65, 0
18, 12720, Note_on_c, 11, 62, 58
18, 12839, Note_on_c, 11, 62, 0
18, 12960, Note_on_c, 11, 67, 58
18, 13559, Note_on_c, 11, 67, 0
18, 13560, Note_on_c, 11, 61, 58
18, 13679, Note_on_c, 11, 61, 0
18, 13680, Note_on_c, 11, 69, 58
18, 14039, Note_on_c, 11, 69, 0
18, 14040, Note_on_c, 11, 65, 58
18, 14279, Note_on_c, 11, 65, 0
18, 14400, Note_on_c, 11, 70, 88
18, 14879, Note_on_c, 11, 70, 0
18, 14880, Note_on_c, 11, 67, 88
18, 14999, Note_on_c, 11, 67, 0
18, 15000, Note_on_c, 11, 70, 88
18, 15119, Note_on_c, 11, 70, 0
18, 15120, Note_on_c, 11, 70, 88
18, 15479, Note_on_c, 11, 70, 0
18, 15480, Note_on_c, 11, 70, 88
18, 15599, Note_on_c, 11, 70, 0
18, 15840, Note_on_c, 11, 69, 88
18, 16439, Note_on_c, 11, 69, 0
18, 16440, Note_on_c, 11, 67, 88
18, 16559, Note_on_c, 11, 67, 0
18, 16560, Note_on_c, 11, 65, 88
18, 17039, Note_on_c, 11, 65, 0
18, 17040, Note_on_c, 11, 70, 88
18, 17159, Note_on_c, 11, 70, 0
18, 17160, Note_on_c, 11, 68, 88
18, 17279, Note_on_c, 11, 68, 0
18, 17280, Note_on_c, 11, 68, 88
18, 17639, Note_on_c, 11, 68, 0
18, 17640, Note_on_c, 11, 67, 88
18, 17879, Note_on_c, 11, 67, 0
18, 17880, Note_on_c, 11, 67, 88
18, 17999, Note_on_c, 11, 67, 0
18, 18000, Note_on_c, 11, 67, 88
18, 18359, Note_on_c, 11, 67, 0
18, 18360, Note_on_c, 11, 67, 88
18, 18599, Note_on_c, 11, 67, 0
18, 18720, Note_on_c, 11, 64, 88
18, 19199, Note_on_c, 11, 64, 0
18, 19200, Note_on_c, 11, 69, 88
18, 19319, Note_on_c, 11, 69, 0
18, 19320, Note_on_c, 11, 67, 88
18, 19439, Note_on_c, 11, 67, 0
18, 19440, Note_on_c, 11, 67, 88
18, 19799, Note_on_c, 11, 67, 0
18, 19800, Note_on_c, 11, 65, 88
18, 20039, Note_on_c, 11, 65, 0
18, 20160, Note_on_c, 11, 68, 58
18, 20519, Note_on_c, 11, 68, 0
18, 20520, Note_on_c, 11, 68, 58
18, 20879, Note_on_c, 11, 68, 0
18, 20880, Note_on_c, 11, 68, 58
18, 21239, Note_on_c, 11, 68, 0
18, 21240, Note_on_c, 11, 68, 58
18, 21599, Note_on_c, 11, 68, 0
18, 21600, Note_on_c, 11, 68, 58
18, 21959, Note_on_c, 11, 68, 0
18, 21960, Note_on_c, 11, 68, 58
18, 22319, Note_on_c, 11, 68, 0
18, 22320, Note_on_c, 11, 68, 58
18, 22679, Note_on_c, 11, 68, 0
18, 22680, Note_on_c, 11, 68, 58
18, 23039, Note_on_c, 11, 68, 0
18, 23040, Note_on_c, 11, 67, 58
18, 23399, Note_on_c, 11, 67, 0
18, 23400, Note_on_c, 11, 67, 58
18, 23759, Note_on_c, 11, 67, 0
18, 23760, Note_on_c, 11, 67, 58
18, 24119, Note_on_c, 11, 67, 0
18, 24120, Note_on_c, 11, 60, 58
18, 24479, Note_on_c, 11, 60, 0
18, 24480, Note_on_c, 11, 62, 58
18, 24959, Note_on_c, 11, 62, 0
18, 24960, Note_on_c, 11, 65, 58
18, 25079, Note_on_c, 11, 65, 0
18, 25080, Note_on_c, 11, 65, 58
18, 25199, Note_on_c, 11, 65, 0
18, 25200, Note_on_c, 11, 65, 58
18, 25559, Note_on_c, 11, 65, 0
18, 25560, Note_on_c, 11, 64, 58
18, 25799, Note_on_c, 11, 64, 0
18, 25800, Note_on_c, 11, 64, 58
18, 25919, Note_on_c, 11, 64, 0
18, 25920, Note_on_c, 11, 65, 58
18, 26159, Note_on_c, 11, 65, 0
18, 30240, Note_on_c, 11, 65, 88
18, 30719, Note_on_c, 11, 65, 0
18, 30720, Note_on_c, 11, 62, 88
18, 30839, Note_on_c, 11, 62, 0
18, 30840, Note_on_c, 11, 69, 88
18, 30959, Note_on_c, 11, 69, 0
18, 30960, Note_on_c, 11, 67, 88
18, 31319, Note_on_c, 11, 67, 0
18, 31320, Note_on_c, 11, 67, 88
18, 31439, Note_on_c, 11, 67, 0
18, 31680, Note_on_c, 11, 65, 88
18, 32159, Note_on_c, 11, 65, 0
18, 32160, Note_on_c, 11, 62, 88
18, 32279, Note_on_c, 11, 62, 0
18, 32280, Note_on_c, 11, 69, 88
18, 32399, Note_on_c, 11, 69, 0
18, 32400, Note_on_c, 11, 67, 88
18, 32879, Note_on_c, 11, 67, 0
18, 34560, Note_on_c, 11, 63, 88
18, 34919, Note_on_c, 11, 63, 0
18, 34920, Note_on_c, 11, 63, 88
18, 35279, Note_on_c, 11, 63, 0
18, 35280, Note_on_c, 11, 64, 88
18, 35639, Note_on_c, 11, 64, 0
18, 35640, Note_on_c, 11, 62, 88
18, 35999, Note_on_c, 11, 62, 0
18, 36000, Note_on_c, 11, 58, 88
18, 36359, Note_on_c, 11, 58, 0
18, 36360, Note_on_c, 11, 59, 88
18, 36719, Note_on_c, 11, 59, 0
18, 36720, Note_on_c, 11, 57, 88
18, 37079, Note_on_c, 11, 57, 0
18, 37080, Note_on_c, 11, 57, 88
18, 37439, Note_on_c, 11, 57, 0
18, 37440, Note_on_c, 11, 61, 88
18, 37799, Note_on_c, 11, 61, 0
18, 37800, Note_on_c, 11, 62, 88
18, 38519, Note_on_c, 11, 62, 0
18, 38520, Note_on_c, 11, 61, 88
18, 38879, Note_on_c, 11, 61, 0
18, 38880, Note_on_c, 11, 62, 88
18, 39119, Note_on_c, 11, 62, 0
18, 40320, Note_on_c, 11, 67, 88
18, 41759, Note_on_c, 11, 67, 0
18, 41760, Note_on_c, 11, 66, 88
18, 43199, Note_on_c, 11, 66, 0
18, 43199, End_track
19, 0, Start_track
19, 0, Title_t, "Tenor "
19, 0, Program_c, 12, 52
19, 0, Control_c, 12, 7, 127
19, 0, Control_c, 12, 10, 48
19, 0, Control_c, 12, 11, 127
19, 2880, Note_on_c, 12, 62, 58
19, 3359, Note_on_c, 12, 62, 0
19, 3360, Note_on_c, 12, 57, 58
19, 3479, Note_on_c, 12, 57, 0
19, 3480, Note_on_c, 12, 53, 58
19, 3599, Note_on_c, 12, 53, 0
19, 3600, Note_on_c, 12, 58, 58
19, 3959, Note_on_c, 12, 58, 0
19, 3960, Note_on_c, 12, 57, 58
19, 4079, Note_on_c, 12, 57, 0
19, 4320, Note_on_c, 12, 57, 58
19, 4919, Note_on_c, 12, 57, 0
19, 4920, Note_on_c, 12, 53, 58
19, 5039, Note_on_c, 12, 53, 0
19, 5040, Note_on_c, 12, 58, 58
19, 5399, Note_on_c, 12, 58, 0
19, 5400, Note_on_c, 12, 57, 58
19, 5519, Note_on_c, 12, 57, 0
19, 5760, Note_on_c, 12, 53, 58
19, 5879, Note_on_c, 12, 53, 0
19, 6120, Note_on_c, 12, 57, 58
19, 6239, Note_on_c, 12, 57, 0
19, 6480, Note_on_c, 12, 57, 58
19, 6599, Note_on_c, 12, 57, 0
19, 6840, Note_on_c, 12, 60, 58
19, 6959, Note_on_c, 12, 60, 0
19, 7200, Note_on_c, 12, 60, 58
19, 7319, Note_on_c, 12, 60, 0
19, 7560, Note_on_c, 12, 56, 58
19, 7679, Note_on_c, 12, 56, 0
19, 7920, Note_on_c, 12, 57, 58
19, 8039, Note_on_c, 12, 57, 0
19, 8280, Note_on_c, 12, 59, 58
19, 8399, Note_on_c, 12, 59, 0
19, 8640, Note_on_c, 12, 60, 58
19, 8999, Note_on_c, 12, 60, 0
19, 9000, Note_on_c, 12, 60, 66
19, 9359, Note_on_c, 12, 60, 0
19, 9360, Note_on_c, 12, 60, 73
19, 9719, Note_on_c, 12, 60, 0
19, 9720, Note_on_c, 12, 63, 80
19, 10079, Note_on_c, 12, 63, 0
19, 10080, Note_on_c, 12, 62, 88
19, 10439, Note_on_c, 12, 62, 0
19, 10440, Note_on_c, 12, 65, 88
19, 10799, Note_on_c, 12, 65, 0
19, 10800, Note_on_c, 12, 65, 88
19, 11159, Note_on_c, 12, 65, 0
19, 11160, Note_on_c, 12, 64, 88
19, 11279, Note_on_c, 12, 64, 0
19, 11520, Note_on_c, 12, 64, 58
19, 11999, Note_on_c, 12, 64, 0
19, 12000, Note_on_c, 12, 62, 58
19, 12119, Note_on_c, 12, 62, 0
19, 12120, Note_on_c, 12, 61, 58
19, 12239, Note_on_c, 12, 61, 0
19, 12240, Note_on_c, 12, 62, 58
19, 12719, Note_on_c, 12, 62, 0
19, 12720, Note_on_c, 12, 57, 58
19, 12839, Note_on_c, 12, 57, 0
19, 12840, Note_on_c, 12, 53, 58
19, 12959, Note_on_c, 12, 53, 0
19, 12960, Note_on_c, 12, 58, 58
19, 13439, Note_on_c, 12, 58, 0
19, 13440, Note_on_c, 12, 57, 58
19, 13559, Note_on_c, 12, 57, 0
19, 13560, Note_on_c, 12, 57, 58
19, 13679, Note_on_c, 12, 57, 0
19, 13680, Note_on_c, 12, 57, 58
19, 14039, Note_on_c, 12, 57, 0
19, 14040, Note_on_c, 12, 57, 58
19, 14279, Note_on_c, 12, 57, 0
19, 14400, Note_on_c, 12, 63, 88
19, 14879, Note_on_c, 12, 63, 0
19, 14880, Note_on_c, 12, 58, 88
19, 14999, Note_on_c, 12, 58, 0
19, 15000, Note_on_c, 12, 67, 88
19, 15119, Note_on_c, 12, 67, 0
19, 15120, Note_on_c, 12, 65, 88
19, 15479, Note_on_c, 12, 65, 0
19, 15480, Note_on_c, 12, 65, 88
19, 15599, Note_on_c, 12, 65, 0
19, 15840, Note_on_c, 12, 65, 88
19, 16319, Note_on_c, 12, 65, 0
19, 16320, Note_on_c, 12, 62, 88
19, 16439, Note_on_c, 12, 62, 0
19, 16440, Note_on_c, 12, 57, 88
19, 16559, Note_on_c, 12, 57, 0
19, 16560, Note_on_c, 12, 62, 88
19, 16919, Note_on_c, 12, 62, 0
19, 16920, Note_on_c, 12, 62, 88
19, 17039, Note_on_c, 12, 62, 0
19, 17280, Note_on_c, 12, 65, 88
19, 17759, Note_on_c, 12, 65, 0
19, 17760, Note_on_c, 12, 62, 88
19, 17879, Note_on_c, 12, 62, 0
19, 17880, Note_on_c, 12, 59, 88
19, 17999, Note_on_c, 12, 59, 0
19, 18000, Note_on_c, 12, 55, 88
19, 18479, Note_on_c, 12, 55, 0
19, 18480, Note_on_c, 12, 60, 88
19, 18599, Note_on_c, 12, 60, 0
19, 18600, Note_on_c, 12, 58, 88
19, 18719, Note_on_c, 12, 58, 0
19, 18720, Note_on_c, 12, 58, 88
19, 19199, Note_on_c, 12, 58, 0
19, 19200, Note_on_c, 12, 57, 88
19, 19319, Note_on_c, 12, 57, 0
19, 19320, Note_on_c, 12, 64, 88
19, 19439, Note_on_c, 12, 64, 0
19, 19440, Note_on_c, 12, 64, 88
19, 19799, Note_on_c, 12, 64, 0
19, 19800, Note_on_c, 12, 62, 88
19, 20039, Note_on_c, 12, 62, 0
19, 20160, Note_on_c, 12, 65, 58
19, 20519, Note_on_c, 12, 65, 0
19, 20520, Note_on_c, 12, 65, 58
19, 20879, Note_on_c, 12, 65, 0
19, 20880, Note_on_c, 12, 65, 58
19, 21239, Note_on_c, 12, 65, 0
19, 21240, Note_on_c, 12, 65, 58
19, 21599, Note_on_c, 12, 65, 0
19, 21600, Note_on_c, 12, 65, 58
19, 21959, Note_on_c, 12, 65, 0
19, 21960, Note_on_c, 12, 65, 58
19, 22319, Note_on_c, 12, 65, 0
19, 22320, Note_on_c, 12, 65, 58
19, 22679, Note_on_c, 12, 65, 0
19, 22680, Note_on_c, 12, 65, 58
19, 23039, Note_on_c, 12, 65, 0
19, 23040, Note_on_c, 12, 65, 58
19, 23399, Note_on_c, 12, 65, 0
19, 23400, Note_on_c, 12, 64, 58
19, 23759, Note_on_c, 12, 64, 0
19, 23760, Note_on_c, 12, 64, 58
19, 24119, Note_on_c, 12, 64, 0
19, 24120, Note_on_c, 12, 65, 58
19, 24479, Note_on_c, 12, 65, 0
19, 24480, Note_on_c, 12, 58, 58
19, 24839, Note_on_c, 12, 58, 0
19, 24840, Note_on_c, 12, 56, 58
19, 25079, Note_on_c, 12, 56, 0
19, 25080, Note_on_c, 12, 56, 58
19, 25199, Note_on_c, 12, 56, 0
19, 25200, Note_on_c, 12, 57, 58
19, 25559, Note_on_c, 12, 57, 0
19, 25560, Note_on_c, 12, 58, 58
19, 25799, Note_on_c, 12, 58, 0
19, 25800, Note_on_c, 12, 58, 58
19, 25919, Note_on_c, 12, 58, 0
19, 25920, Note_on_c, 12, 57, 58
19, 26159, Note_on_c, 12, 57, 0
19, 30240, Note_on_c, 12, 62, 88
19, 30719, Note_on_c, 12, 62, 0
19, 30720, Note_on_c, 12, 57, 88
19, 30839, Note_on_c, 12, 57, 0
19, 30840, Note_on_c, 12, 53, 88
19, 30959, Note_on_c, 12, 53, 0
19, 30960, Note_on_c, 12, 58, 88
19, 31319, Note_on_c, 12, 58, 0
19, 31320, Note_on_c, 12, 57, 88
19, 31439, Note_on_c, 12, 57, 0
19, 31680, Note_on_c, 12, 57, 88
19, 32279, Note_on_c, 12, 57, 0
19, 32280, Note_on_c, 12, 53, 88
19, 32399, Note_on_c, 12, 53, 0
19, 32400, Note_on_c, 12, 58, 88
19, 32759, Note_on_c, 12, 58, 0
19, 32760, Note_on_c, 12, 57, 88
19, 32879, Note_on_c, 12, 57, 0
19, 33840, Note_on_c, 12, 62, 88
19, 34199, Note_on_c, 12, 62, 0
19, 34200, Note_on_c, 12, 66, 88
19, 34559, Note_on_c, 12, 66, 0
19, 34560, Note_on_c, 12, 67, 88
19, 34919, Note_on_c, 12, 67, 0
19, 34920, Note_on_c, 12, 55, 88
19, 35279, Note_on_c, 12, 55, 0
19, 35280, Note_on_c, 12, 58, 88
19, 35639, Note_on_c, 12, 58, 0
19, 35640, Note_on_c, 12, 57, 88
19, 35999, Note_on_c, 12, 57, 0
19, 36000, Note_on_c, 12, 55, 88
19, 36359, Note_on_c, 12, 55, 0
19, 36360, Note_on_c, 12, 53, 88
19, 36719, Note_on_c, 12, 53, 0
19, 36720, Note_on_c, 12, 52, 88
19, 37079, Note_on_c, 12, 52, 0
19, 37080, Note_on_c, 12, 53, 88
19, 37439, Note_on_c, 12, 53, 0
19, 37440, Note_on_c, 12, 57, 88
19, 38519, Note_on_c, 12, 57, 0
19, 38520, Note_on_c, 12, 57, 88
19, 38879, Note_on_c, 12, 57, 0
19, 38880, Note_on_c, 12, 57, 88
19, 39119, Note_on_c, 12, 57, 0
19, 40320, Note_on_c, 12, 58, 88
19, 41759, Note_on_c, 12, 58, 0
19, 41760, Note_on_c, 12, 57, 88
19, 43199, Note_on_c, 12, 57, 0
19, 43199, End_track
20, 0, Start_track
20, 0, Title_t, "Bass "
20, 0, Program_c, 13, 52
20, 0, Control_c, 13, 7, 127
20, 0, Control_c, 13, 10, 80
20, 0, Control_c, 13, 11, 127
20, 2880, Note_on_c, 13, 50, 58
20, 3479, Note_on_c, 13, 50, 0
20, 3480, Note_on_c, 13, 50, 58
20, 3599, Note_on_c, 13, 50, 0
20, 3600, Note_on_c, 13, 52, 58
20, 3959, Note_on_c, 13, 52, 0
20, 3960, Note_on_c, 13, 45, 58
20, 4079, Note_on_c, 13, 45, 0
20, 4320, Note_on_c, 13, 50, 58
20, 4919, Note_on_c, 13, 50, 0
20, 4920, Note_on_c, 13, 50, 58
20, 5039, Note_on_c, 13, 50, 0
20, 5040, Note_on_c, 13, 52, 58
20, 5399, Note_on_c, 13, 52, 0
20, 5400, Note_on_c, 13, 45, 58
20, 5519, Note_on_c, 13, 45, 0
20, 5760, Note_on_c, 13, 50, 58
20, 5879, Note_on_c, 13, 50, 0
20, 6120, Note_on_c, 13, 45, 58
20, 6239, Note_on_c, 13, 45, 0
20, 6480, Note_on_c, 13, 50, 58
20, 6599, Note_on_c, 13, 50, 0
20, 6840, Note_on_c, 13, 48, 58
20, 6959, Note_on_c, 13, 48, 0
20, 7200, Note_on_c, 13, 53, 58
20, 7319, Note_on_c, 13, 53, 0
20, 7560, Note_on_c, 13, 52, 58
20, 7679, Note_on_c, 13, 52, 0
20, 7920, Note_on_c, 13, 45, 58
20, 8039, Note_on_c, 13, 45, 0
20, 8280, Note_on_c, 13, 43, 58
20, 8399, Note_on_c, 13, 43, 0
20, 8640, Note_on_c, 13, 48, 58
20, 8999, Note_on_c, 13, 48, 0
20, 9000, Note_on_c, 13, 58, 66
20, 9359, Note_on_c, 13, 58, 0
20, 9360, Note_on_c, 13, 57, 73
20, 9719, Note_on_c, 13, 57, 0
20, 9720, Note_on_c, 13, 60, 80
20, 10079, Note_on_c, 13, 60, 0
20, 10080, Note_on_c, 13, 59, 88
20, 10439, Note_on_c, 13, 59, 0
20, 10440, Note_on_c, 13, 58, 88
20, 10799, Note_on_c, 13, 58, 0
20, 10800, Note_on_c, 13, 57, 88
20, 11159, Note_on_c, 13, 57, 0
20, 11160, Note_on_c, 13, 57, 88
20, 11279, Note_on_c, 13, 57, 0
20, 11520, Note_on_c, 13, 49, 58
20, 11879, Note_on_c, 13, 49, 0
20, 11880, Note_on_c, 13, 45, 58
20, 12239, Note_on_c, 13, 45, 0
20, 12240, Note_on_c, 13, 50, 58
20, 12599, Note_on_c, 13, 50, 0
20, 12600, Note_on_c, 13, 45, 58
20, 12959, Note_on_c, 13, 45, 0
20, 12960, Note_on_c, 13, 52, 58
20, 13319, Note_on_c, 13, 52, 0
20, 13320, Note_on_c, 13, 45, 58
20, 13679, Note_on_c, 13, 45, 0
20, 13680, Note_on_c, 13, 53, 58
20, 14039, Note_on_c, 13, 53, 0
20, 14040, Note_on_c, 13, 45, 58
20, 14399, Note_on_c, 13, 45, 0
20, 14400, Note_on_c, 13, 55, 88
20, 14759, Note_on_c, 13, 55, 0
20, 14760, Note_on_c, 13, 43, 88
20, 15119, Note_on_c, 13, 43, 0
20, 15120, Note_on_c, 13, 44, 88
20, 15479, Note_on_c, 13, 44, 0
20, 15480, Note_on_c, 13, 56, 88
20, 15839, Note_on_c, 13, 56, 0
20, 15840, Note_on_c, 13, 57, 88
20, 16199, Note_on_c, 13, 57, 0
20, 16200, Note_on_c, 13, 45, 88
20, 16559, Note_on_c, 13, 45, 0
20, 16560, Note_on_c, 13, 46, 88
20, 16919, Note_on_c, 13, 46, 0
20, 16920, Note_on_c, 13, 58, 88
20, 17279, Note_on_c, 13, 58, 0
20, 17280, Note_on_c, 13, 59, 88
20, 17639, Note_on_c, 13, 59, 0
20, 17640, Note_on_c, 13, 47, 88
20, 17999, Note_on_c, 13, 47, 0
20, 18000, Note_on_c, 13, 48, 88
20, 18359, Note_on_c, 13, 48, 0
20, 18360, Note_on_c, 13, 60, 88
20, 18719, Note_on_c, 13, 60, 0
20, 18720, Note_on_c, 13, 61, 88
20, 19079, Note_on_c, 13, 61, 0
20, 19080, Note_on_c, 13, 49, 88
20, 19439, Note_on_c, 13, 49, 0
20, 19440, Note_on_c, 13, 62, 88
20, 19799, Note_on_c, 13, 62, 0
20, 19800, Note_on_c, 13, 50, 88
20, 20039, Note_on_c, 13, 50, 0
20, 20160, Note_on_c, 13, 62, 58
20, 20519, Note_on_c, 13, 62, 0
20, 20520, Note_on_c, 13, 60, 58
20, 20879, Note_on_c, 13, 60, 0
20, 20880, Note_on_c, 13, 59, 58
20, 21239, Note_on_c, 13, 59, 0
20, 21240, Note_on_c, 13, 59, 58
20, 21599, Note_on_c, 13, 59, 0
20, 21600, Note_on_c, 13, 59, 58
20, 21959, Note_on_c, 13, 59, 0
20, 21960, Note_on_c, 13, 60, 58
20, 22319, Note_on_c, 13, 60, 0
20, 22320, Note_on_c, 13, 61, 58
20, 22679, Note_on_c, 13, 61, 0
20, 22680, Note_on_c, 13, 61, 58
20, 23039, Note_on_c, 13, 61, 0
20, 23040, Note_on_c, 13, 62, 58
20, 23399, Note_on_c, 13, 62, 0
20, 23400, Note_on_c, 13, 60, 58
20, 23759, Note_on_c, 13, 60, 0
20, 23760, Note_on_c, 13, 58, 58
20, 24119, Note_on_c, 13, 58, 0
20, 24120, Note_on_c, 13, 57, 58
20, 24479, Note_on_c, 13, 57, 0
20, 24480, Note_on_c, 13, 46, 58
20, 24839, Note_on_c, 13, 46, 0
20, 24840, Note_on_c, 13, 50, 58
20, 25199, Note_on_c, 13, 50, 0
20, 25200, Note_on_c, 13, 48, 58
20, 25799, Note_on_c, 13, 48, 0
20, 25800, Note_on_c, 13, 48, 58
20, 25919, Note_on_c, 13, 48, 0
20, 25920, Note_on_c, 13, 41, 58
20, 26159, Note_on_c, 13, 41, 0
20, 30240, Note_on_c, 13, 50, 88
20, 30839, Note_on_c, 13, 50, 0
20, 30840, Note_on_c, 13, 50, 88
20, 30959, Note_on_c, 13, 50, 0
20, 30960, Note_on_c, 13, 52, 88
20, 31319, Note_on_c, 13, 52, 0
20, 31320, Note_on_c, 13, 45, 88
20, 31439, Note_on_c, 13, 45, 0
20, 31680, Note_on_c, 13, 50, 88
20, 32279, Note_on_c, 13, 50, 0
20, 32280, Note_on_c, 13, 50, 88
20, 32399, Note_on_c, 13, 50, 0
20, 32400, Note_on_c, 13, 52, 88
20, 32879, Note_on_c, 13, 52, 0
20, 33120, Note_on_c, 13, 62, 88
20, 33479, Note_on_c, 13, 62, 0
20, 33480, Note_on_c, 13, 60, 88
20, 33839, Note_on_c, 13, 60, 0
20, 33840, Note_on_c, 13, 58, 88
20, 34199, Note_on_c, 13, 58, 0
20, 34200, Note_on_c, 13, 57, 88
20, 34559, Note_on_c, 13, 57, 0
20, 34560, Note_on_c, 13, 55, 88
20, 34919, Note_on_c, 13, 55, 0
20, 34920, Note_on_c, 13, 48, 88
20, 35279, Note_on_c, 13, 48, 0
20, 35280, Note_on_c, 13, 49, 88
20, 35639, Note_on_c, 13, 49, 0
20, 35640, Note_on_c, 13, 50, 88
20, 35999, Note_on_c, 13, 50, 0
20, 36000, Note_on_c, 13, 43, 88
20, 36359, Note_on_c, 13, 43, 0
20, 36360, Note_on_c, 13, 44, 88
20, 36719, Note_on_c, 13, 44, 0
20, 36720, Note_on_c, 13, 45, 88
20, 38519, Note_on_c, 13, 45, 0
20, 38520, Note_on_c, 13, 45, 88
20, 38879, Note_on_c, 13, 45, 0
20, 38880, Note_on_c, 13, 50, 88
20, 39119, Note_on_c, 13, 50, 0
20, 40320, Note_on_c, 13, 55, 88
20, 41759, Note_on_c, 13, 55, 0
20, 41760, Note_on_c, 13, 50, 88
20, 43199, Note_on_c, 13, 50, 0
20, 43199, End_track
21, 0, Start_track
21, 0, Title_t, "Timpani"
21, 0, Program_c, 14, 47
21, 0, Control_c, 14, 7, 127
21, 0, Control_c, 14, 10, 25
21, 0, Control_c, 14, 11, 127
21, 10800, Note_on_c, 14, 45, 72
21, 11039, Note_on_c, 14, 45, 0
21, 11160, Note_on_c, 14, 45, 72
21, 11399, Note_on_c, 14, 45, 0
21, 19080, Note_on_c, 14, 45, 72
21, 19319, Note_on_c, 14, 45, 0
21, 19440, Note_on_c, 14, 50, 72
21, 19679, Note_on_c, 14, 50, 0
21, 19800, Note_on_c, 14, 50, 72
21, 20039, Note_on_c, 14, 50, 0
21, 29880, Note_on_c, 14, 45, 72
21, 30119, Note_on_c, 14, 45, 0
21, 30240, Note_on_c, 14, 50, 72
21, 30479, Note_on_c, 14, 50, 0
21, 31320, Note_on_c, 14, 45, 72
21, 31559, Note_on_c, 14, 45, 0
21, 31680, Note_on_c, 14, 50, 72
21, 31919, Note_on_c, 14, 50, 0
21, 32760, Note_on_c, 14, 45, 72
21, 32999, Note_on_c, 14, 45, 0
21, 33120, Note_on_c, 14, 50, 72
21, 33359, Note_on_c, 14, 50, 0
21, 36720, Note_on_c, 14, 45, 72
21, 36959, Note_on_c, 14, 45, 0
21, 37440, Note_on_c, 14, 45, 72
21, 37679, Note_on_c, 14, 45, 0
21, 38160, Note_on_c, 14, 45, 72
21, 38399, Note_on_c, 14, 45, 0
21, 38520, Note_on_c, 14, 45, 72
21, 38759, Note_on_c, 14, 45, 0
21, 38880, Note_on_c, 14, 50, 72
21, 39119, Note_on_c, 14, 50, 0
21, 39240, Note_on_c, 14, 50, 72
21, 39479, Note_on_c, 14, 50, 0
21, 39600, Note_on_c, 14, 50, 72
21, 39839, Note_on_c, 14, 50, 0
21, 39960, Note_on_c, 14, 50, 72
21, 40199, Note_on_c, 14, 50, 0
21, 40320, Note_on_c, 14, 50, 72
21, 40334, Note_on_c, 14, 50, 0
21, 40335, Note_on_c, 14, 50, 72
21, 40349, Note_on_c, 14, 50, 0
21, 40350, Note_on_c, 14, 50, 72
21, 40364, Note_on_c, 14, 50, 0
21, 40365, Note_on_c, 14, 50, 72
21, 40379, Note_on_c, 14, 50, 0
21, 40380, Note_on_c, 14, 50, 72
21, 40394, Note_on_c, 14, 50, 0
21, 40395, Note_on_c, 14, 50, 72
21, 40409, Note_on_c, 14, 50, 0
21, 40410, Note_on_c, 14, 50, 72
21, 40424, Note_on_c, 14, 50, 0
21, 40425, Note_on_c, 14, 50, 72
21, 40439, Note_on_c, 14, 50, 0
21, 40440, Note_on_c, 14, 50, 72
21, 40454, Note_on_c, 14, 50, 0
21, 40455, Note_on_c, 14, 50, 72
21, 40469, Note_on_c, 14, 50, 0
21, 40470, Note_on_c, 14, 50, 72
21, 40484, Note_on_c, 14, 50, 0
21, 40485, Note_on_c, 14, 50, 72
21, 40499, Note_on_c, 14, 50, 0
21, 40500, Note_on_c, 14, 50, 73
21, 40514, Note_on_c, 14, 50, 0
21, 40515, Note_on_c, 14, 50, 73
21, 40529, Note_on_c, 14, 50, 0
21, 40530, Note_on_c, 14, 50, 73
21, 40544, Note_on_c, 14, 50, 0
21, 40545, Note_on_c, 14, 50, 73
21, 40559, Note_on_c, 14, 50, 0
21, 40560, Note_on_c, 14, 50, 73
21, 40574, Note_on_c, 14, 50, 0
21, 40575, Note_on_c, 14, 50, 73
21, 40589, Note_on_c, 14, 50, 0
21, 40590, Note_on_c, 14, 50, 73
21, 40604, Note_on_c, 14, 50, 0
21, 40605, Note_on_c, 14, 50, 73
21, 40619, Note_on_c, 14, 50, 0
21, 40620, Note_on_c, 14, 50, 73
21, 40634, Note_on_c, 14, 50, 0
21, 40635, Note_on_c, 14, 50, 73
21, 40649, Note_on_c, 14, 50, 0
21, 40650, Note_on_c, 14, 50, 73
21, 40664, Note_on_c, 14, 50, 0
21, 40665, Note_on_c, 14, 50, 73
21, 40679, Note_on_c, 14, 50, 0
21, 40680, Note_on_c, 14, 50, 74
21, 40694, Note_on_c, 14, 50, 0
21, 40695, Note_on_c, 14, 50, 74
21, 40709, Note_on_c, 14, 50, 0
21, 40710, Note_on_c, 14, 50, 74
21, 40724, Note_on_c, 14, 50, 0
21, 40725, Note_on_c, 14, 50, 74
21, 40739, Note_on_c, 14, 50, 0
21, 40740, Note_on_c, 14, 50, 74
21, 40754, Note_on_c, 14, 50, 0
21, 40755, Note_on_c, 14, 50, 74
21, 40769, Note_on_c, 14, 50, 0
21, 40770, Note_on_c, 14, 50, 74
21, 40784, Note_on_c, 14, 50, 0
21, 40785, Note_on_c, 14, 50, 74
21, 40799, Note_on_c, 14, 50, 0
21, 40800, Note_on_c, 14, 50, 74
21, 40814, Note_on_c, 14, 50, 0
21, 40815, Note_on_c, 14, 50, 74
21, 40829, Note_on_c, 14, 50, 0
21, 40830, Note_on_c, 14, 50, 74
21, 40844, Note_on_c, 14, 50, 0
21, 40845, Note_on_c, 14, 50, 74
21, 40859, Note_on_c, 14, 50, 0
21, 40860, Note_on_c, 14, 50, 75
21, 40874, Note_on_c, 14, 50, 0
21, 40875, Note_on_c, 14, 50, 75
21, 40889, Note_on_c, 14, 50, 0
21, 40890, Note_on_c, 14, 50, 75
21, 40904, Note_on_c, 14, 50, 0
21, 40905, Note_on_c, 14, 50, 75
21, 40919, Note_on_c, 14, 50, 0
21, 40920, Note_on_c, 14, 50, 75
21, 40934, Note_on_c, 14, 50, 0
21, 40935, Note_on_c, 14, 50, 75
21, 40949, Note_on_c, 14, 50, 0
21, 40950, Note_on_c, 14, 50, 75
21, 40964, Note_on_c, 14, 50, 0
21, 40965, Note_on_c, 14, 50, 75
21, 40979, Note_on_c, 14, 50, 0
21, 40980, Note_on_c, 14, 50, 75
21, 40994, Note_on_c, 14, 50, 0
21, 40995, Note_on_c, 14, 50, 75
21, 41009, Note_on_c, 14, 50, 0
21, 41010, Note_on_c, 14, 50, 75
21, 41024, Note_on_c, 14, 50, 0
21, 41025, Note_on_c, 14, 50, 75
21, 41039, Note_on_c, 14, 50, 0
21, 41040, Note_on_c, 14, 50, 76
21, 41054, Note_on_c, 14, 50, 0
21, 41055, Note_on_c, 14, 50, 76
21, 41069, Note_on_c, 14, 50, 0
21, 41070, Note_on_c, 14, 50, 76
21, 41084, Note_on_c, 14, 50, 0
21, 41085, Note_on_c, 14, 50, 76
21, 41099, Note_on_c, 14, 50, 0
21, 41100, Note_on_c, 14, 50, 76
21, 41114, Note_on_c, 14, 50, 0
21, 41115, Note_on_c, 14, 50, 76
21, 41129, Note_on_c, 14, 50, 0
21, 41130, Note_on_c, 14, 50, 76
21, 41144, Note_on_c, 14, 50, 0
21, 41145, Note_on_c, 14, 50, 76
21, 41159, Note_on_c, 14, 50, 0
21, 41160, Note_on_c, 14, 50, 76
21, 41174, Note_on_c, 14, 50, 0
21, 41175, Note_on_c, 14, 50, 76
21, 41189, Note_on_c, 14, 50, 0
21, 41190, Note_on_c, 14, 50, 76
21, 41204, Note_on_c, 14, 50, 0
21, 41205, Note_on_c, 14, 50, 76
21, 41219, Note_on_c, 14, 50, 0
21, 41220, Note_on_c, 14, 50, 77
21, 41234, Note_on_c, 14, 50, 0
21, 41235, Note_on_c, 14, 50, 77
21, 41249, Note_on_c, 14, 50, 0
21, 41250, Note_on_c, 14, 50, 77
21, 41264, Note_on_c, 14, 50, 0
21, 41265, Note_on_c, 14, 50, 77
21, 41279, Note_on_c, 14, 50, 0
21, 41280, Note_on_c, 14, 50, 77
21, 41294, Note_on_c, 14, 50, 0
21, 41295, Note_on_c, 14, 50, 77
21, 41309, Note_on_c, 14, 50, 0
21, 41310, Note_on_c, 14, 50, 77
21, 41324, Note_on_c, 14, 50, 0
21, 41325, Note_on_c, 14, 50, 77
21, 41339, Note_on_c, 14, 50, 0
21, 41340, Note_on_c, 14, 50, 77
21, 41354, Note_on_c, 14, 50, 0
21, 41355, Note_on_c, 14, 50, 77
21, 41369, Note_on_c, 14, 50, 0
21, 41370, Note_on_c, 14, 50, 77
21, 41384, Note_on_c, 14, 50, 0
21, 41385, Note_on_c, 14, 50, 77
21, 41399, Note_on_c, 14, 50, 0
21, 41400, Note_on_c, 14, 50, 78
21, 41414, Note_on_c, 14, 50, 0
21, 41415, Note_on_c, 14, 50, 78
21, 41429, Note_on_c, 14, 50, 0
21, 41430, Note_on_c, 14, 50, 78
21, 41444, Note_on_c, 14, 50, 0
21, 41445, Note_on_c, 14, 50, 78
21, 41459, Note_on_c, 14, 50, 0
21, 41460, Note_on_c, 14, 50, 78
21, 41474, Note_on_c, 14, 50, 0
21, 41475, Note_on_c, 14, 50, 78
21, 41489, Note_on_c, 14, 50, 0
21, 41490, Note_on_c, 14, 50, 78
21, 41504, Note_on_c, 14, 50, 0
21, 41505, Note_on_c, 14, 50, 78
21, 41519, Note_on_c, 14, 50, 0
21, 41520, Note_on_c, 14, 50, 78
21, 41534, Note_on_c, 14, 50, 0
21, 41535, Note_on_c, 14, 50, 78
21, 41549, Note_on_c, 14, 50, 0
21, 41550, Note_on_c, 14, 50, 78
21, 41564, Note_on_c, 14, 50, 0
21, 41565, Note_on_c, 14, 50, 78
21, 41579, Note_on_c, 14, 50, 0
21, 41580, Note_on_c, 14, 50, 79
21, 41594, Note_on_c, 14, 50, 0
21, 41595, Note_on_c, 14, 50, 79
21, 41609, Note_on_c, 14, 50, 0
21, 41610, Note_on_c, 14, 50, 79
21, 41624, Note_on_c, 14, 50, 0
21, 41625, Note_on_c, 14, 50, 79
21, 41639, Note_on_c, 14, 50, 0
21, 41640, Note_on_c, 14, 50, 79
21, 41654, Note_on_c, 14, 50, 0
21, 41655, Note_on_c, 14, 50, 79
21, 41669, Note_on_c, 14, 50, 0
21, 41670, Note_on_c, 14, 50, 79
21, 41684, Note_on_c, 14, 50, 0
21, 41685, Note_on_c, 14, 50, 79
21, 41699, Note_on_c, 14, 50, 0
21, 41700, Note_on_c, 14, 50, 79
21, 41714, Note_on_c, 14, 50, 0
21, 41715, Note_on_c, 14, 50, 79
21, 41729, Note_on_c, 14, 50, 0
21, 41730, Note_on_c, 14, 50, 79
21, 41744, Note_on_c, 14, 50, 0
21, 41745, Note_on_c, 14, 50, 79
21, 41759, Note_on_c, 14, 50, 0
21, 41760, Note_on_c, 14, 50, 80
21, 41774, Note_on_c, 14, 50, 0
21, 41775, Note_on_c, 14, 50, 80
21, 41789, Note_on_c, 14, 50, 0
21, 41790, Note_on_c, 14, 50, 80
21, 41804, Note_on_c, 14, 50, 0
21, 41805, Note_on_c, 14, 50, 80
21, 41819, Note_on_c, 14, 50, 0
21, 41820, Note_on_c, 14, 50, 80
21, 41834, Note_on_c, 14, 50, 0
21, 41835, Note_on_c, 14, 50, 80
21, 41849, Note_on_c, 14, 50, 0
21, 41850, Note_on_c, 14, 50, 80
21, 41864, Note_on_c, 14, 50, 0
21, 41865, Note_on_c, 14, 50, 80
21, 41879, Note_on_c, 14, 50, 0
21, 41880, Note_on_c, 14, 50, 80
21, 41894, Note_on_c, 14, 50, 0
21, 41895, Note_on_c, 14, 50, 80
21, 41909, Note_on_c, 14, 50, 0
21, 41910, Note_on_c, 14, 50, 80
21, 41924, Note_on_c, 14, 50, 0
21, 41925, Note_on_c, 14, 50, 80
21, 41939, Note_on_c, 14, 50, 0
21, 41940, Note_on_c, 14, 50, 79
21, 41954, Note_on_c, 14, 50, 0
21, 41955, Note_on_c, 14, 50, 79
21, 41969, Note_on_c, 14, 50, 0
21, 41970, Note_on_c, 14, 50, 79
21, 41984, Note_on_c, 14, 50, 0
21, 41985, Note_on_c, 14, 50, 79
21, 41999, Note_on_c, 14, 50, 0
21, 42000, Note_on_c, 14, 50, 79
21, 42014, Note_on_c, 14, 50, 0
21, 42015, Note_on_c, 14, 50, 79
21, 42029, Note_on_c, 14, 50, 0
21, 42030, Note_on_c, 14, 50, 79
21, 42044, Note_on_c, 14, 50, 0
21, 42045, Note_on_c, 14, 50, 79
21, 42059, Note_on_c, 14, 50, 0
21, 42060, Note_on_c, 14, 50, 79
21, 42074, Note_on_c, 14, 50, 0
21, 42075, Note_on_c, 14, 50, 79
21, 42089, Note_on_c, 14, 50, 0
21, 42090, Note_on_c, 14, 50, 79
21, 42104, Note_on_c, 14, 50, 0
21, 42105, Note_on_c, 14, 50, 79
21, 42119, Note_on_c, 14, 50, 0
21, 42120, Note_on_c, 14, 50, 78
21, 42134, Note_on_c, 14, 50, 0
21, 42135, Note_on_c, 14, 50, 78
21, 42149, Note_on_c, 14, 50, 0
21, 42150, Note_on_c, 14, 50, 78
21, 42164, Note_on_c, 14, 50, 0
21, 42165, Note_on_c, 14, 50, 78
21, 42179, Note_on_c, 14, 50, 0
21, 42180, Note_on_c, 14, 50, 78
21, 42194, Note_on_c, 14, 50, 0
21, 42195, Note_on_c, 14, 50, 78
21, 42209, Note_on_c, 14, 50, 0
21, 42210, Note_on_c, 14, 50, 78
21, 42224, Note_on_c, 14, 50, 0
21, 42225, Note_on_c, 14, 50, 78
21, 42239, Note_on_c, 14, 50, 0
21, 42240, Note_on_c, 14, 50, 78
21, 42254, Note_on_c, 14, 50, 0
21, 42255, Note_on_c, 14, 50, 78
21, 42269, Note_on_c, 14, 50, 0
21, 42270, Note_on_c, 14, 50, 78
21, 42284, Note_on_c, 14, 50, 0
21, 42285, Note_on_c, 14, 50, 78
21, 42299, Note_on_c, 14, 50, 0
21, 42300, Note_on_c, 14, 50, 77
21, 42314, Note_on_c, 14, 50, 0
21, 42315, Note_on_c, 14, 50, 77
21, 42329, Note_on_c, 14, 50, 0
21, 42330, Note_on_c, 14, 50, 77
21, 42344, Note_on_c, 14, 50, 0
21, 42345, Note_on_c, 14, 50, 77
21, 42359, Note_on_c, 14, 50, 0
21, 42360, Note_on_c, 14, 50, 77
21, 42374, Note_on_c, 14, 50, 0
21, 42375, Note_on_c, 14, 50, 77
21, 42389, Note_on_c, 14, 50, 0
21, 42390, Note_on_c, 14, 50, 77
21, 42404, Note_on_c, 14, 50, 0
21, 42405, Note_on_c, 14, 50, 77
21, 42419, Note_on_c, 14, 50, 0
21, 42420, Note_on_c, 14, 50, 77
21, 42434, Note_on_c, 14, 50, 0
21, 42435, Note_on_c, 14, 50, 77
21, 42449, Note_on_c, 14, 50, 0
21, 42450, Note_on_c, 14, 50, 77
21, 42464, Note_on_c, 14, 50, 0
21, 42465, Note_on_c, 14, 50, 77
21, 42479, Note_on_c, 14, 50, 0
21, 42480, Note_on_c, 14, 50, 76
21, 42494, Note_on_c, 14, 50, 0
21, 42495, Note_on_c, 14, 50, 76
21, 42509, Note_on_c, 14, 50, 0
21, 42510, Note_on_c, 14, 50, 76
21, 42524, Note_on_c, 14, 50, 0
21, 42525, Note_on_c, 14, 50, 76
21, 42539, Note_on_c, 14, 50, 0
21, 42540, Note_on_c, 14, 50, 76
21, 42554, Note_on_c, 14, 50, 0
21, 42555, Note_on_c, 14, 50, 76
21, 42569, Note_on_c, 14, 50, 0
21, 42570, Note_on_c, 14, 50, 76
21, 42584, Note_on_c, 14, 50, 0
21, 42585, Note_on_c, 14, 50, 76
21, 42599, Note_on_c, 14, 50, 0
21, 42600, Note_on_c, 14, 50, 76
21, 42614, Note_on_c, 14, 50, 0
21, 42615, Note_on_c, 14, 50, 76
21, 42629, Note_on_c, 14, 50, 0
21, 42630, Note_on_c, 14, 50, 76
21, 42644, Note_on_c, 14, 50, 0
21, 42645, Note_on_c, 14, 50, 76
21, 42659, Note_on_c, 14, 50, 0
21, 42660, Note_on_c, 14, 50, 75
21, 42674, Note_on_c, 14, 50, 0
21, 42675, Note_on_c, 14, 50, 75
21, 42689, Note_on_c, 14, 50, 0
21, 42690, Note_on_c, 14, 50, 75
21, 42704, Note_on_c, 14, 50, 0
21, 42705, Note_on_c, 14, 50, 75
21, 42719, Note_on_c, 14, 50, 0
21, 42720, Note_on_c, 14, 50, 75
21, 42734, Note_on_c, 14, 50, 0
21, 42735, Note_on_c, 14, 50, 75
21, 42749, Note_on_c, 14, 50, 0
21, 42750, Note_on_c, 14, 50, 75
21, 42764, Note_on_c, 14, 50, 0
21, 42765, Note_on_c, 14, 50, 75
21, 42779, Note_on_c, 14, 50, 0
21, 42780, Note_on_c, 14, 50, 75
21, 42794, Note_on_c, 14, 50, 0
21, 42795, Note_on_c, 14, 50, 75
21, 42809, Note_on_c, 14, 50, 0
21, 42810, Note_on_c, 14, 50, 75
21, 42824, Note_on_c, 14, 50, 0
21, 42825, Note_on_c, 14, 50, 75
21, 42839, Note_on_c, 14, 50, 0
21, 42840, Note_on_c, 14, 50, 74
21, 42854, Note_on_c, 14, 50, 0
21, 42855, Note_on_c, 14, 50, 74
21, 42869, Note_on_c, 14, 50, 0
21, 42870, Note_on_c, 14, 50, 74
21, 42884, Note_on_c, 14, 50, 0
21, 42885, Note_on_c, 14, 50, 74
21, 42899, Note_on_c, 14, 50, 0
21, 42900, Note_on_c, 14, 50, 74
21, 42914, Note_on_c, 14, 50, 0
21, 42915, Note_on_c, 14, 50, 74
21, 42929, Note_on_c, 14, 50, 0
21, 42930, Note_on_c, 14, 50, 74
21, 42944, Note_on_c, 14, 50, 0
21, 42945, Note_on_c, 14, 50, 74
21, 42959, Note_on_c, 14, 50, 0
21, 42960, Note_on_c, 14, 50, 74
21, 42974, Note_on_c, 14, 50, 0
21, 42975, Note_on_c, 14, 50, 74
21, 42989, Note_on_c, 14, 50, 0
21, 42990, Note_on_c, 14, 50, 74
21, 43004, Note_on_c, 14, 50, 0
21, 43005, Note_on_c, 14, 50, 74
21, 43019, Note_on_c, 14, 50, 0
21, 43020, Note_on_c, 14, 50, 73
21, 43034, Note_on_c, 14, 50, 0
21, 43035, Note_on_c, 14, 50, 73
21, 43049, Note_on_c, 14, 50, 0
21, 43050, Note_on_c, 14, 50, 73
21, 43064, Note_on_c, 14, 50, 0
21, 43065, Note_on_c, 14, 50, 73
21, 43079, Note_on_c, 14, 50, 0
21, 43080, Note_on_c, 14, 50, 73
21, 43094, Note_on_c, 14, 50, 0
21, 43095, Note_on_c, 14, 50, 73
21, 43109, Note_on_c, 14, 50, 0
21, 43110, Note_on_c, 14, 50, 73
21, 43124, Note_on_c, 14, 50, 0
21, 43125, Note_on_c, 14, 50, 73
21, 43139, Note_on_c, 14, 50, 0
21, 43140, Note_on_c, 14, 50, 73
21, 43154, Note_on_c, 14, 50, 0
21, 43155, Note_on_c, 14, 50, 73
21, 43169, Note_on_c, 14, 50, 0
21, 43170, Note_on_c, 14, 50, 73
21, 43185, Note_on_c, 14, 50, 73
21, 43199, Note_on_c, 14, 50, 0
21, 43214, Note_on_c, 14, 50, 0
21, 43214, End_track
22, 0, Start_track
22, 0, Title_t, "Organ"
22, 0, Program_c, 15, 19
22, 0, Control_c, 15, 7, 45
22, 0, Control_c, 15, 10, 96
22, 0, Control_c, 15, 11, 127
22, 2880, Note_on_c, 15, 50, 48
22, 3119, Note_on_c, 15, 50, 0
22, 3240, Note_on_c, 15, 53, 48
22, 3479, Note_on_c, 15, 53, 0
22, 3600, Note_on_c, 15, 52, 48
22, 3839, Note_on_c, 15, 52, 0
22, 3960, Note_on_c, 15, 45, 48
22, 4199, Note_on_c, 15, 45, 0
22, 4320, Note_on_c, 15, 50, 48
22, 4559, Note_on_c, 15, 50, 0
22, 4680, Note_on_c, 15, 53, 48
22, 4919, Note_on_c, 15, 53, 0
22, 5040, Note_on_c, 15, 52, 48
22, 5279, Note_on_c, 15, 52, 0
22, 5400, Note_on_c, 15, 45, 48
22, 5639, Note_on_c, 15, 45, 0
22, 5760, Note_on_c, 15, 50, 48
22, 5999, Note_on_c, 15, 50, 0
22, 6120, Note_on_c, 15, 45, 48
22, 6359, Note_on_c, 15, 45, 0
22, 6480, Note_on_c, 15, 50, 48
22, 6719, Note_on_c, 15, 50, 0
22, 6840, Note_on_c, 15, 48, 48
22, 7079, Note_on_c, 15, 48, 0
22, 7200, Note_on_c, 15, 53, 48
22, 7439, Note_on_c, 15, 53, 0
22, 7560, Note_on_c, 15, 52, 48
22, 7799, Note_on_c, 15, 52, 0
22, 7920, Note_on_c, 15, 45, 48
22, 8159, Note_on_c, 15, 45, 0
22, 8280, Note_on_c, 15, 43, 48
22, 8519, Note_on_c, 15, 43, 0
22, 8640, Note_on_c, 15, 48, 51
22, 8879, Note_on_c, 15, 48, 0
22, 9000, Note_on_c, 15, 58, 57
22, 9239, Note_on_c, 15, 58, 0
22, 9360, Note_on_c, 15, 57, 63
22, 9599, Note_on_c, 15, 57, 0
22, 9720, Note_on_c, 15, 60, 69
22, 9959, Note_on_c, 15, 60, 0
22, 10080, Note_on_c, 15, 59, 72
22, 10319, Note_on_c, 15, 59, 0
22, 10440, Note_on_c, 15, 58, 72
22, 10679, Note_on_c, 15, 58, 0
22, 10800, Note_on_c, 15, 57, 72
22, 11039, Note_on_c, 15, 57, 0
22, 11160, Note_on_c, 15, 45, 72
22, 11399, Note_on_c, 15, 45, 0
22, 11520, Note_on_c, 15, 49, 48
22, 11879, Note_on_c, 15, 49, 0
22, 11880, Note_on_c, 15, 45, 48
22, 12239, Note_on_c, 15, 45, 0
22, 12240, Note_on_c, 15, 50, 48
22, 12599, Note_on_c, 15, 50, 0
22, 12600, Note_on_c, 15, 45, 48
22, 12959, Note_on_c, 15, 45, 0
22, 12960, Note_on_c, 15, 52, 48
22, 13199, Note_on_c, 15, 52, 0
22, 13320, Note_on_c, 15, 45, 48
22, 13559, Note_on_c, 15, 45, 0
22, 13680, Note_on_c, 15, 53, 48
22, 13919, Note_on_c, 15, 53, 0
22, 14040, Note_on_c, 15, 45, 48
22, 14279, Note_on_c, 15, 45, 0
22, 14400, Note_on_c, 15, 55, 72
22, 14400, Note_on_c, 15, 70, 72
22, 14400, Note_on_c, 15, 63, 72
22, 14639, Note_on_c, 15, 63, 0
22, 14639, Note_on_c, 15, 70, 0
22, 14639, Note_on_c, 15, 55, 0
22, 14760, Note_on_c, 15, 43, 72
22, 14760, Note_on_c, 15, 70, 72
22, 14760, Note_on_c, 15, 63, 72
22, 14999, Note_on_c, 15, 63, 0
22, 14999, Note_on_c, 15, 70, 0
22, 14999, Note_on_c, 15, 43, 0
22, 15120, Note_on_c, 15, 63, 72
22, 15120, Note_on_c, 15, 44, 72
22, 15120, Note_on_c, 15, 70, 72
22, 15120, Note_on_c, 15, 76, 72
22, 15359, Note_on_c, 15, 76, 0
22, 15359, Note_on_c, 15, 63, 0
22, 15359, Note_on_c, 15, 44, 0
22, 15359, Note_on_c, 15, 70, 0
22, 15480, Note_on_c, 15, 56, 72
22, 15480, Note_on_c, 15, 70, 72
22, 15480, Note_on_c, 15, 74, 72
22, 15719, Note_on_c, 15, 74, 0
22, 15719, Note_on_c, 15, 70, 0
22, 15719, Note_on_c, 15, 56, 0
22, 15840, Note_on_c, 15, 57, 72
22, 15840, Note_on_c, 15, 74, 72
22, 15840, Note_on_c, 15, 65, 72
22, 15840, Note_on_c, 15, 69, 72
22, 16079, Note_on_c, 15, 69, 0
22, 16079, Note_on_c, 15, 57, 0
22, 16079, Note_on_c, 15, 74, 0
22, 16079, Note_on_c, 15, 65, 0
22, 16200, Note_on_c, 15, 45, 72
22, 16200, Note_on_c, 15, 74, 72
22, 16200, Note_on_c, 15, 69, 72
22, 16200, Note_on_c, 15, 65, 72
22, 16200, Note_on_c, 15, 57, 72
22, 16439, Note_on_c, 15, 57, 0
22, 16439, Note_on_c, 15, 69, 0
22, 16439, Note_on_c, 15, 45, 0
22, 16439, Note_on_c, 15, 74, 0
22, 16439, Note_on_c, 15, 65, 0
22, 16440, Note_on_c, 15, 61, 72
22, 16440, Note_on_c, 15, 64, 72
22, 16440, Note_on_c, 15, 67, 72
22, 16559, Note_on_c, 15, 67, 0
22, 16559, Note_on_c, 15, 64, 0
22, 16559, Note_on_c, 15, 61, 0
22, 16560, Note_on_c, 15, 46, 72
22, 16560, Note_on_c, 15, 76, 72
22, 16560, Note_on_c, 15, 65, 72
22, 16799, Note_on_c, 15, 65, 0
22, 16799, Note_on_c, 15, 76, 0
22, 16799, Note_on_c, 15, 46, 0
22, 16920, Note_on_c, 15, 58, 72
22, 16920, Note_on_c, 15, 70, 72
22, 16920, Note_on_c, 15, 62, 72
22, 16920, Note_on_c, 15, 65, 72
22, 17159, Note_on_c, 15, 65, 0
22, 17159, Note_on_c, 15, 58, 0
22, 17159, Note_on_c, 15, 70, 0
22, 17159, Note_on_c, 15, 62, 0
22, 17160, Note_on_c, 15, 68, 72
22, 17160, Note_on_c, 15, 65, 72
22, 17160, Note_on_c, 15, 62, 72
22, 17279, Note_on_c, 15, 62, 0
22, 17279, Note_on_c, 15, 65, 0
22, 17279, Note_on_c, 15, 68, 0
22, 17280, Note_on_c, 15, 59, 72
22, 17280, Note_on_c, 15, 74, 72
22, 17280, Note_on_c, 15, 65, 72
22, 17280, Note_on_c, 15, 68, 72
22, 17519, Note_on_c, 15, 68, 0
22, 17519, Note_on_c, 15, 59, 0
22, 17519, Note_on_c, 15, 74, 0
22, 17519, Note_on_c, 15, 65, 0
22, 17640, Note_on_c, 15, 47, 72
22, 17640, Note_on_c, 15, 74, 72
22, 17640, Note_on_c, 15, 67, 72
22, 17759, Note_on_c, 15, 67, 0
22, 17760, Note_on_c, 15, 65, 72
22, 17879, Note_on_c, 15, 65, 0
22, 17879, Note_on_c, 15, 74, 0
22, 17879, Note_on_c, 15, 47, 0
22, 18000, Note_on_c, 15, 48, 72
22, 18000, Note_on_c, 15, 77, 72
22, 18000, Note_on_c, 15, 67, 72
22, 18000, Note_on_c, 15, 55, 72
22, 18239, Note_on_c, 15, 55, 0
22, 18239, Note_on_c, 15, 48, 0
22, 18239, Note_on_c, 15, 77, 0
22, 18239, Note_on_c, 15, 67, 0
22, 18360, Note_on_c, 15, 60, 72
22, 18360, Note_on_c, 15, 76, 72
22, 18360, Note_on_c, 15, 67, 72
22, 18599, Note_on_c, 15, 67, 0
22, 18599, Note_on_c, 15, 76, 0
22, 18599, Note_on_c, 15, 60, 0
22, 18720, Note_on_c, 15, 61, 72
22, 18720, Note_on_c, 15, 64, 72
22, 18720, Note_on_c, 15, 67, 72
22, 18720, Note_on_c, 15, 70, 72
22, 18959, Note_on_c, 15, 70, 0
22, 18959, Note_on_c, 15, 61, 0
22, 18959, Note_on_c, 15, 64, 0
22, 18959, Note_on_c, 15, 67, 0
22, 19080, Note_on_c, 15, 49, 72
22, 19080, Note_on_c, 15, 64, 72
22, 19080, Note_on_c, 15, 69, 72
22, 19080, Note_on_c, 15, 76, 72
22, 19319, Note_on_c, 15, 76, 0
22, 19319, Note_on_c, 15, 49, 0
22, 19319, Note_on_c, 15, 64, 0
22, 19319, Note_on_c, 15, 69, 0
22, 19440, Note_on_c, 15, 50, 72
22, 19440, Note_on_c, 15, 55, 72
22, 19440, Note_on_c, 15, 76, 72
22, 19440, Note_on_c, 15, 67, 72
22, 19679, Note_on_c, 15, 67, 0
22, 19679, Note_on_c, 15, 50, 0
22, 19679, Note_on_c, 15, 55, 0
22, 19679, Note_on_c, 15, 76, 0
22, 19800, Note_on_c, 15, 62, 72
22, 19800, Note_on_c, 15, 74, 72
22, 19800, Note_on_c, 15, 65, 72
22, 19800, Note_on_c, 15, 69, 72
22, 20039, Note_on_c, 15, 69, 0
22, 20039, Note_on_c, 15, 62, 0
22, 20039, Note_on_c, 15, 74, 0
22, 20039, Note_on_c, 15, 65, 0
22, 20160, Note_on_c, 15, 62, 48
22, 20160, Note_on_c, 15, 68, 48
22, 20160, Note_on_c, 15, 71, 48
22, 20160, Note_on_c, 15, 65, 48
22, 20399, Note_on_c, 15, 65, 0
22, 20399, Note_on_c, 15, 62, 0
22, 20399, Note_on_c, 15, 68, 0
22, 20399, Note_on_c, 15, 71, 0
22, 20520, Note_on_c, 15, 60, 48
22, 20520, Note_on_c, 15, 65, 48
22, 20520, Note_on_c, 15, 68, 48
22, 20520, Note_on_c, 15, 72, 48
22, 20759, Note_on_c, 15, 72, 0
22, 20759, Note_on_c, 15, 60, 0
22, 20759, Note_on_c, 15, 65, 0
22, 20759, Note_on_c, 15, 68, 0
22, 20880, Note_on_c, 15, 59, 48
22, 20880, Note_on_c, 15, 65, 48
22, 20880, Note_on_c, 15, 74, 48
22, 20880, Note_on_c, 15, 68, 48
22, 21119, Note_on_c, 15, 68, 0
22, 21119, Note_on_c, 15, 59, 0
22, 21119, Note_on_c, 15, 65, 0
22, 21119, Note_on_c, 15, 74, 0
22, 21240, Note_on_c, 15, 59, 48
22, 21240, Note_on_c, 15, 74, 48
22, 21240, Note_on_c, 15, 68, 48
22, 21240, Note_on_c, 15, 65, 48
22, 21479, Note_on_c, 15, 65, 0
22, 21479, Note_on_c, 15, 59, 0
22, 21479, Note_on_c, 15, 74, 0
22, 21479, Note_on_c, 15, 68, 0
22, 21600, Note_on_c, 15, 59, 48
22, 21600, Note_on_c, 15, 74, 48
22, 21600, Note_on_c, 15, 68, 48
22, 21600, Note_on_c, 15, 65, 48
22, 21839, Note_on_c, 15, 65, 0
22, 21839, Note_on_c, 15, 59, 0
22, 21839, Note_on_c, 15, 74, 0
22, 21839, Note_on_c, 15, 68, 0
22, 21960, Note_on_c, 15, 60, 48
22, 21960, Note_on_c, 15, 65, 48
22, 21960, Note_on_c, 15, 68, 48
22, 21960, Note_on_c, 15, 72, 48
22, 22199, Note_on_c, 15, 72, 0
22, 22199, Note_on_c, 15, 60, 0
22, 22199, Note_on_c, 15, 65, 0
22, 22199, Note_on_c, 15, 68, 0
22, 22320, Note_on_c, 15, 61, 48
22, 22320, Note_on_c, 15, 65, 48
22, 22320, Note_on_c, 15, 68, 48
22, 22320, Note_on_c, 15, 71, 48
22, 22559, Note_on_c, 15, 71, 0
22, 22559, Note_on_c, 15, 61, 0
22, 22559, Note_on_c, 15, 65, 0
22, 22559, Note_on_c, 15, 68, 0
22, 22680, Note_on_c, 15, 61, 48
22, 22680, Note_on_c, 15, 65, 48
22, 22680, Note_on_c, 15, 68, 48
22, 22680, Note_on_c, 15, 71, 48
22, 22919, Note_on_c, 15, 71, 0
22, 22919, Note_on_c, 15, 61, 0
22, 22919, Note_on_c, 15, 65, 0
22, 22919, Note_on_c, 15, 68, 0
22, 23040, Note_on_c, 15, 62, 48
22, 23040, Note_on_c, 15, 65, 48
22, 23040, Note_on_c, 15, 67, 48
22, 23040, Note_on_c, 15, 71, 48
22, 23279, Note_on_c, 15, 71, 0
22, 23279, Note_on_c, 15, 62, 0
22, 23279, Note_on_c, 15, 65, 0
22, 23279, Note_on_c, 15, 67, 0
22, 23400, Note_on_c, 15, 60, 48
22, 23400, Note_on_c, 15, 64, 48
22, 23400, Note_on_c, 15, 67, 48
22, 23400, Note_on_c, 15, 72, 48
22, 23639, Note_on_c, 15, 72, 0
22, 23639, Note_on_c, 15, 60, 0
22, 23639, Note_on_c, 15, 64, 0
22, 23639, Note_on_c, 15, 67, 0
22, 23760, Note_on_c, 15, 58, 48
22, 23760, Note_on_c, 15, 74, 48
22, 23760, Note_on_c, 15, 64, 48
22, 23760, Note_on_c, 15, 67, 48
22, 23999, Note_on_c, 15, 67, 0
22, 23999, Note_on_c, 15, 58, 0
22, 23999, Note_on_c, 15, 74, 0
22, 23999, Note_on_c, 15, 64, 0
22, 24120, Note_on_c, 15, 57, 48
22, 24120, Note_on_c, 15, 72, 48
22, 24120, Note_on_c, 15, 65, 48
22, 24120, Note_on_c, 15, 60, 48
22, 24359, Note_on_c, 15, 60, 0
22, 24359, Note_on_c, 15, 57, 0
22, 24359, Note_on_c, 15, 72, 0
22, 24359, Note_on_c, 15, 65, 0
22, 24480, Note_on_c, 15, 46, 48
22, 24480, Note_on_c, 15, 62, 48
22, 24480, Note_on_c, 15, 77, 48
22, 24719, Note_on_c, 15, 77, 0
22, 24719, Note_on_c, 15, 62, 0
22, 24719, Note_on_c, 15, 46, 0
22, 24840, Note_on_c, 15, 50, 48
22, 24840, Note_on_c, 15, 77, 48
22, 24840, Note_on_c, 15, 68, 48
22, 24840, Note_on_c, 15, 71, 48
22, 25079, Note_on_c, 15, 71, 0
22, 25079, Note_on_c, 15, 50, 0
22, 25079, Note_on_c, 15, 77, 0
22, 25079, Note_on_c, 15, 68, 0
22, 25200, Note_on_c, 15, 48, 48
22, 25200, Note_on_c, 15, 65, 48
22, 25200, Note_on_c, 15, 69, 48
22, 25200, Note_on_c, 15, 72, 48
22, 25439, Note_on_c, 15, 72, 0
22, 25439, Note_on_c, 15, 48, 0
22, 25439, Note_on_c, 15, 65, 0
22, 25439, Note_on_c, 15, 69, 0
22, 25560, Note_on_c, 15, 48, 48
22, 25560, Note_on_c, 15, 64, 48
22, 25560, Note_on_c, 15, 67, 48
22, 25560, Note_on_c, 15, 72, 48
22, 25799, Note_on_c, 15, 72, 0
22, 25799, Note_on_c, 15, 48, 0
22, 25799, Note_on_c, 15, 64, 0
22, 25799, Note_on_c, 15, 67, 0
22, 25920, Note_on_c, 15, 41, 48
22, 26159, Note_on_c, 15, 41, 0
22, 26280, Note_on_c, 15, 45, 48
22, 26519, Note_on_c, 15, 45, 0
22, 26640, Note_on_c, 15, 46, 48
22, 26879, Note_on_c, 15, 46, 0
22, 27000, Note_on_c, 15, 48, 48
22, 27239, Note_on_c, 15, 48, 0
22, 27360, Note_on_c, 15, 46, 48
22, 27599, Note_on_c, 15, 46, 0
22, 27720, Note_on_c, 15, 50, 48
22, 27959, Note_on_c, 15, 50, 0
22, 28080, Note_on_c, 15, 48, 48
22, 28319, Note_on_c, 15, 48, 0
22, 28440, Note_on_c, 15, 48, 48
22, 28679, Note_on_c, 15, 48, 0
22, 28800, Note_on_c, 15, 53, 48
22, 29039, Note_on_c, 15, 53, 0
22, 29160, Note_on_c, 15, 53, 72
22, 29399, Note_on_c, 15, 53, 0
22, 29520, Note_on_c, 15, 52, 72
22, 29759, Note_on_c, 15, 52, 0
22, 29880, Note_on_c, 15, 45, 72
22, 30119, Note_on_c, 15, 45, 0
22, 30240, Note_on_c, 15, 50, 72
22, 30479, Note_on_c, 15, 50, 0
22, 30600, Note_on_c, 15, 53, 72
22, 30839, Note_on_c, 15, 53, 0
22, 30960, Note_on_c, 15, 52, 72
22, 31199, Note_on_c, 15, 52, 0
22, 31320, Note_on_c, 15, 45, 72
22, 31559, Note_on_c, 15, 45, 0
22, 31680, Note_on_c, 15, 50, 72
22, 31919, Note_on_c, 15, 50, 0
22, 32040, Note_on_c, 15, 53, 72
22, 32279, Note_on_c, 15, 53, 0
22, 32400, Note_on_c, 15, 52, 72
22, 32639, Note_on_c, 15, 52, 0
22, 32760, Note_on_c, 15, 45, 72
22, 32999, Note_on_c, 15, 45, 0
22, 33120, Note_on_c, 15, 50, 72
22, 33359, Note_on_c, 15, 50, 0
22, 33480, Note_on_c, 15, 54, 72
22, 33719, Note_on_c, 15, 54, 0
22, 33840, Note_on_c, 15, 55, 72
22, 34079, Note_on_c, 15, 55, 0
22, 34200, Note_on_c, 15, 50, 72
22, 34439, Note_on_c, 15, 50, 0
22, 34560, Note_on_c, 15, 51, 72
22, 34560, Note_on_c, 15, 67, 72
22, 34560, Note_on_c, 15, 70, 72
22, 34560, Note_on_c, 15, 63, 72
22, 34799, Note_on_c, 15, 63, 0
22, 34799, Note_on_c, 15, 51, 0
22, 34799, Note_on_c, 15, 67, 0
22, 34799, Note_on_c, 15, 70, 0
22, 34920, Note_on_c, 15, 48, 72
22, 34920, Note_on_c, 15, 63, 72
22, 34920, Note_on_c, 15, 67, 72
22, 34920, Note_on_c, 15, 69, 72
22, 35159, Note_on_c, 15, 69, 0
22, 35159, Note_on_c, 15, 48, 0
22, 35159, Note_on_c, 15, 63, 0
22, 35159, Note_on_c, 15, 67, 0
22, 35280, Note_on_c, 15, 49, 72
22, 35280, Note_on_c, 15, 64, 72
22, 35280, Note_on_c, 15, 67, 72
22, 35280, Note_on_c, 15, 70, 72
22, 35519, Note_on_c, 15, 70, 0
22, 35519, Note_on_c, 15, 49, 0
22, 35519, Note_on_c, 15, 64, 0
22, 35519, Note_on_c, 15, 67, 0
22, 35640, Note_on_c, 15, 50, 72
22, 35640, Note_on_c, 15, 65, 72
22, 35640, Note_on_c, 15, 69, 72
22, 35640, Note_on_c, 15, 62, 72
22, 35879, Note_on_c, 15, 62, 0
22, 35879, Note_on_c, 15, 50, 0
22, 35879, Note_on_c, 15, 65, 0
22, 35879, Note_on_c, 15, 69, 0
22, 36000, Note_on_c, 15, 43, 72
22, 36000, Note_on_c, 15, 58, 72
22, 36000, Note_on_c, 15, 62, 72
22, 36000, Note_on_c, 15, 64, 72
22, 36239, Note_on_c, 15, 64, 0
22, 36239, Note_on_c, 15, 43, 0
22, 36239, Note_on_c, 15, 58, 0
22, 36239, Note_on_c, 15, 62, 0
22, 36360, Note_on_c, 15, 44, 72
22, 36360, Note_on_c, 15, 65, 72
22, 36360, Note_on_c, 15, 62, 72
22, 36360, Note_on_c, 15, 58, 72
22, 36599, Note_on_c, 15, 58, 0
22, 36599, Note_on_c, 15, 44, 0
22, 36599, Note_on_c, 15, 65, 0
22, 36599, Note_on_c, 15, 62, 0
22, 36720, Note_on_c, 15, 45, 72
22, 36720, Note_on_c, 15, 61, 72
22, 36720, Note_on_c, 15, 64, 72
22, 36720, Note_on_c, 15, 57, 72
22, 36959, Note_on_c, 15, 57, 0
22, 36959, Note_on_c, 15, 45, 0
22, 36959, Note_on_c, 15, 61, 0
22, 36959, Note_on_c, 15, 64, 0
22, 37080, Note_on_c, 15, 45, 72
22, 37080, Note_on_c, 15, 62, 72
22, 37080, Note_on_c, 15, 65, 72
22, 37080, Note_on_c, 15, 57, 72
22, 37319, Note_on_c, 15, 57, 0
22, 37319, Note_on_c, 15, 45, 0
22, 37319, Note_on_c, 15, 62, 0
22, 37319, Note_on_c, 15, 65, 0
22, 37440, Note_on_c, 15, 45, 72
22, 37440, Note_on_c, 15, 61, 72
22, 37440, Note_on_c, 15, 64, 72
22, 37440, Note_on_c, 15, 57, 72
22, 37679, Note_on_c, 15, 57, 0
22, 37679, Note_on_c, 15, 45, 0
22, 37679, Note_on_c, 15, 61, 0
22, 37679, Note_on_c, 15, 64, 0
22, 37800, Note_on_c, 15, 45, 72
22, 37800, Note_on_c, 15, 62, 72
22, 37800, Note_on_c, 15, 65, 72
22, 37800, Note_on_c, 15, 57, 72
22, 38039, Note_on_c, 15, 57, 0
22, 38039, Note_on_c, 15, 45, 0
22, 38039, Note_on_c, 15, 62, 0
22, 38039, Note_on_c, 15, 65, 0
22, 38160, Note_on_c, 15, 45, 72
22, 38160, Note_on_c, 15, 57, 72
22, 38160, Note_on_c, 15, 62, 72
22, 38160, Note_on_c, 15, 64, 72
22, 38399, Note_on_c, 15, 64, 0
22, 38399, Note_on_c, 15, 45, 0
22, 38399, Note_on_c, 15, 57, 0
22, 38399, Note_on_c, 15, 62, 0
22, 38520, Note_on_c, 15, 45, 72
22, 38520, Note_on_c, 15, 64, 72
22, 38520, Note_on_c, 15, 61, 72
22, 38520, Note_on_c, 15, 57, 72
22, 38759, Note_on_c, 15, 57, 0
22, 38759, Note_on_c, 15, 45, 0
22, 38759, Note_on_c, 15, 64, 0
22, 38759, Note_on_c, 15, 61, 0
22, 38880, Note_on_c, 15, 50, 72
22, 38880, Note_on_c, 15, 53, 72
22, 38880, Note_on_c, 15, 57, 72
22, 38880, Note_on_c, 15, 62, 72
22, 39119, Note_on_c, 15, 62, 0
22, 39119, Note_on_c, 15, 50, 0
22, 39119, Note_on_c, 15, 53, 0
22, 39119, Note_on_c, 15, 57, 0
22, 39240, Note_on_c, 15, 50, 72
22, 39240, Note_on_c, 15, 54, 72
22, 39240, Note_on_c, 15, 57, 72
22, 39240, Note_on_c, 15, 62, 72
22, 39479, Note_on_c, 15, 62, 0
22, 39479, Note_on_c, 15, 50, 0
22, 39479, Note_on_c, 15, 54, 0
22, 39479, Note_on_c, 15, 57, 0
22, 39600, Note_on_c, 15, 62, 72
22, 39600, Note_on_c, 15, 50, 72
22, 39600, Note_on_c, 15, 54, 72
22, 39600, Note_on_c, 15, 57, 72
22, 39839, Note_on_c, 15, 57, 0
22, 39839, Note_on_c, 15, 62, 0
22, 39839, Note_on_c, 15, 50, 0
22, 39839, Note_on_c, 15, 54, 0
22, 39960, Note_on_c, 15, 50, 72
22, 39960, Note_on_c, 15, 54, 72
22, 39960, Note_on_c, 15, 57, 72
22, 39960, Note_on_c, 15, 62, 72
22, 40199, Note_on_c, 15, 62, 0
22, 40199, Note_on_c, 15, 50, 0
22, 40199, Note_on_c, 15, 54, 0
22, 40199, Note_on_c, 15, 57, 0
22, 40320, Note_on_c, 15, 55, 72
22, 40320, Note_on_c, 15, 58, 72
22, 40320, Note_on_c, 15, 74, 72
22, 40320, Note_on_c, 15, 67, 72
22, 40559, Note_on_c, 15, 67, 0
22, 40559, Note_on_c, 15, 55, 0
22, 40559, Note_on_c, 15, 58, 0
22, 40559, Note_on_c, 15, 74, 0
22, 40680, Note_on_c, 15, 50, 72
22, 40680, Note_on_c, 15, 67, 72
22, 40680, Note_on_c, 15, 58, 72
22, 40680, Note_on_c, 15, 74, 72
22, 40919, Note_on_c, 15, 74, 0
22, 40919, Note_on_c, 15, 50, 0
22, 40919, Note_on_c, 15, 67, 0
22, 40919, Note_on_c, 15, 58, 0
22, 41040, Note_on_c, 15, 46, 72
22, 41040, Note_on_c, 15, 74, 72
22, 41040, Note_on_c, 15, 67, 72
22, 41040, Note_on_c, 15, 58, 72
22, 41279, Note_on_c, 15, 58, 0
22, 41279, Note_on_c, 15, 46, 0
22, 41279, Note_on_c, 15, 74, 0
22, 41279, Note_on_c, 15, 67, 0
22, 41400, Note_on_c, 15, 43, 72
22, 41400, Note_on_c, 15, 58, 72
22, 41400, Note_on_c, 15, 74, 72
22, 41400, Note_on_c, 15, 67, 72
22, 41639, Note_on_c, 15, 67, 0
22, 41639, Note_on_c, 15, 43, 0
22, 41639, Note_on_c, 15, 58, 0
22, 41639, Note_on_c, 15, 74, 0
22, 41760, Note_on_c, 15, 50, 72
22, 41760, Note_on_c, 15, 66, 72
22, 41760, Note_on_c, 15, 74, 72
22, 41760, Note_on_c, 15, 57, 72
22, 43199, Note_on_c, 15, 57, 0
22, 43199, Note_on_c, 15, 50, 0
22, 43199, Note_on_c, 15, 66, 0
22, 43199, Note_on_c, 15, 74, 0
22, 43199, End_track
23, 0, Start_track
23, 0, End_track
0, 0, End_of_file