0, 0, Header, 1, 22, 120
1, 0, Start_track
1, 0, Sequencer_specific, 0A, 00, 00, 5B, 23, 01, 00, 05, 04, 23, 00
1, 0, Title_t, "W. A. Mozart - Requiem K. 626"
1, 0, Instrument_name_t, "Conductor Track"
1, 0, SMPTE_offset, 96, 0, 3, 0, 0
1, 0, MIDI_port, 0
1, 0, Key_signature, -2, "major"
1, 0, Tempo, 1200000
1, 0, Time_signature, 4, 2, 24, 8
1, 10920, Tempo, 1200000
1, 10920, End_track
2, 0, Start_track
2, 0, Title_t, "No. 4 - Rex Tremendae"
2, 0, MIDI_port, 0
2, 0, End_track
3, 0, Start_track
3, 0, Title_t, "Sequenced by D. Viens 26 Oct 1997"
3, 0, MIDI_port, 0
3, 0, End_track
4, 0, Start_track
4, 0, Title_t, "dlviens@ix.netcom.com"
4, 0, MIDI_port, 0
4, 0, End_track
5, 0, Start_track
5, 0, MIDI_port, 0
5, 0, End_track
6, 0, Start_track
6, 0, Title_t, "Corni di Bassetto in F"
6, 0, MIDI_port, 0
6, 0, Control_c, 0, 7, 96
6, 0, Control_c, 0, 10, 70
6, 0, Control_c, 0, 11, 127
6, 0, Program_c, 0, 71
6, 120, Note_on_c, 0, 70, 72
6, 120, Note_on_c, 0, 67, 72
6, 239, Note_on_c, 0, 70, 0
6, 239, Note_on_c, 0, 67, 0
6, 600, Note_on_c, 0, 69, 72
6, 600, Note_on_c, 0, 72, 72
6, 659, Note_on_c, 0, 69, 0
6, 659, Note_on_c, 0, 72, 0
6, 720, Note_on_c, 0, 70, 72
6, 720, Note_on_c, 0, 67, 72
6, 779, Note_on_c, 0, 70, 0
6, 779, Note_on_c, 0, 67, 0
6, 840, Note_on_c, 0, 69, 72
6, 840, Note_on_c, 0, 66, 72
6, 899, Note_on_c, 0, 69, 0
6, 899, Note_on_c, 0, 66, 0
6, 1080, Note_on_c, 0, 70, 72
6, 1080, Note_on_c, 0, 67, 72
6, 1199, Note_on_c, 0, 70, 0
6, 1199, Note_on_c, 0, 67, 0
6, 1560, Note_on_c, 0, 70, 72
6, 1560, Note_on_c, 0, 67, 72
6, 1679, Note_on_c, 0, 70, 0
6, 1679, Note_on_c, 0, 67, 0
6, 2040, Note_on_c, 0, 75, 72
6, 2040, Note_on_c, 0, 67, 72
6, 2159, Note_on_c, 0, 75, 0
6, 2159, Note_on_c, 0, 67, 0
6, 2520, Note_on_c, 0, 74, 80
6, 2520, Note_on_c, 0, 69, 80
6, 2609, Note_on_c, 0, 74, 0
6, 2609, Note_on_c, 0, 69, 0
6, 2610, Note_on_c, 0, 74, 80
6, 2610, Note_on_c, 0, 69, 80
6, 2639, Note_on_c, 0, 74, 0
6, 2639, Note_on_c, 0, 69, 0
6, 2640, Note_on_c, 0, 74, 80
6, 2640, Note_on_c, 0, 70, 80
6, 2729, Note_on_c, 0, 74, 0
6, 2729, Note_on_c, 0, 70, 0
6, 2730, Note_on_c, 0, 74, 80
6, 2730, Note_on_c, 0, 70, 80
6, 2759, Note_on_c, 0, 74, 0
6, 2759, Note_on_c, 0, 70, 0
6, 2760, Note_on_c, 0, 74, 80
6, 2760, Note_on_c, 0, 70, 80
6, 2849, Note_on_c, 0, 74, 0
6, 2849, Note_on_c, 0, 70, 0
6, 2850, Note_on_c, 0, 74, 80
6, 2850, Note_on_c, 0, 70, 80
6, 2879, Note_on_c, 0, 74, 0
6, 2879, Note_on_c, 0, 70, 0
6, 2880, Note_on_c, 0, 74, 80
6, 2880, Note_on_c, 0, 69, 80
6, 2999, Note_on_c, 0, 74, 0
6, 2999, Note_on_c, 0, 69, 0
6, 3000, Note_on_c, 0, 62, 80
6, 3089, Note_on_c, 0, 62, 0
6, 3090, Note_on_c, 0, 62, 80
6, 3119, Note_on_c, 0, 62, 0
6, 3120, Note_on_c, 0, 70, 80
6, 3240, Note_on_c, 0, 67, 80
6, 3329, Note_on_c, 0, 67, 0
6, 3330, Note_on_c, 0, 67, 80
6, 3359, Note_on_c, 0, 67, 0
6, 3360, Note_on_c, 0, 75, 80
6, 3449, Note_on_c, 0, 70, 0
6, 3450, Note_on_c, 0, 67, 80
6, 3479, Note_on_c, 0, 67, 0
6, 3480, Note_on_c, 0, 72, 80
6, 3569, Note_on_c, 0, 72, 0
6, 3570, Note_on_c, 0, 70, 80
6, 3599, Note_on_c, 0, 70, 0
6, 3600, Note_on_c, 0, 69, 80
6, 3689, Note_on_c, 0, 75, 0
6, 3690, Note_on_c, 0, 72, 80
6, 3719, Note_on_c, 0, 72, 0
6, 3720, Note_on_c, 0, 77, 80
6, 3809, Note_on_c, 0, 77, 0
6, 3810, Note_on_c, 0, 75, 80
6, 3839, Note_on_c, 0, 75, 0
6, 3840, Note_on_c, 0, 74, 80
6, 3929, Note_on_c, 0, 69, 0
6, 3930, Note_on_c, 0, 65, 80
6, 3959, Note_on_c, 0, 65, 0
6, 3960, Note_on_c, 0, 70, 80
6, 4049, Note_on_c, 0, 70, 0
6, 4050, Note_on_c, 0, 69, 80
6, 4079, Note_on_c, 0, 69, 0
6, 4080, Note_on_c, 0, 67, 80
6, 4169, Note_on_c, 0, 74, 0
6, 4170, Note_on_c, 0, 70, 80
6, 4199, Note_on_c, 0, 70, 0
6, 4200, Note_on_c, 0, 75, 80
6, 4289, Note_on_c, 0, 75, 0
6, 4290, Note_on_c, 0, 74, 80
6, 4319, Note_on_c, 0, 74, 0
6, 4320, Note_on_c, 0, 72, 80
6, 4409, Note_on_c, 0, 67, 0
6, 4410, Note_on_c, 0, 70, 80
6, 4439, Note_on_c, 0, 70, 0
6, 4440, Note_on_c, 0, 69, 80
6, 4529, Note_on_c, 0, 69, 0
6, 4530, Note_on_c, 0, 67, 80
6, 4559, Note_on_c, 0, 67, 0
6, 4560, Note_on_c, 0, 66, 80
6, 4649, Note_on_c, 0, 72, 0
6, 4650, Note_on_c, 0, 75, 80
6, 4679, Note_on_c, 0, 75, 0
6, 4680, Note_on_c, 0, 74, 80
6, 4739, Note_on_c, 0, 66, 0
6, 4740, Note_on_c, 0, 67, 80
6, 4769, Note_on_c, 0, 74, 0
6, 4770, Note_on_c, 0, 72, 80
6, 4784, Note_on_c, 0, 67, 0
6, 4785, Note_on_c, 0, 69, 80
6, 4799, Note_on_c, 0, 72, 0
6, 4799, Note_on_c, 0, 69, 0
6, 4800, Note_on_c, 0, 70, 80
6, 4800, Note_on_c, 0, 67, 80
6, 4859, Note_on_c, 0, 70, 0
6, 4860, Note_on_c, 0, 67, 80
6, 4919, Note_on_c, 0, 67, 0
6, 4919, Note_on_c, 0, 67, 0
6, 4920, Note_on_c, 0, 79, 80
6, 4920, Note_on_c, 0, 67, 80
6, 5009, Note_on_c, 0, 79, 0
6, 5009, Note_on_c, 0, 67, 0
6, 5010, Note_on_c, 0, 77, 80
6, 5010, Note_on_c, 0, 69, 80
6, 5039, Note_on_c, 0, 77, 0
6, 5039, Note_on_c, 0, 69, 0
6, 5040, Note_on_c, 0, 76, 80
6, 5040, Note_on_c, 0, 70, 80
6, 5129, Note_on_c, 0, 76, 0
6, 5129, Note_on_c, 0, 70, 0
6, 5130, Note_on_c, 0, 74, 80
6, 5130, Note_on_c, 0, 69, 80
6, 5159, Note_on_c, 0, 74, 0
6, 5159, Note_on_c, 0, 69, 0
6, 5160, Note_on_c, 0, 72, 80
6, 5160, Note_on_c, 0, 67, 80
6, 5249, Note_on_c, 0, 72, 0
6, 5249, Note_on_c, 0, 67, 0
6, 5250, Note_on_c, 0, 70, 80
6, 5250, Note_on_c, 0, 64, 80
6, 5279, Note_on_c, 0, 70, 0
6, 5279, Note_on_c, 0, 64, 0
6, 5280, Note_on_c, 0, 69, 80
6, 5280, Note_on_c, 0, 65, 80
6, 5339, Note_on_c, 0, 69, 0
6, 5339, Note_on_c, 0, 65, 0
6, 5340, Note_on_c, 0, 65, 80
6, 5340, Note_on_c, 0, 60, 80
6, 5399, Note_on_c, 0, 65, 0
6, 5399, Note_on_c, 0, 60, 0
6, 5520, Note_on_c, 0, 69, 80
6, 5699, Note_on_c, 0, 69, 0
6, 5700, Note_on_c, 0, 74, 80
6, 5759, Note_on_c, 0, 74, 0
6, 5760, Note_on_c, 0, 74, 80
6, 5760, Note_on_c, 0, 62, 80
6, 5819, Note_on_c, 0, 74, 0
6, 5820, Note_on_c, 0, 67, 80
6, 5879, Note_on_c, 0, 67, 0
6, 5939, Note_on_c, 0, 62, 0
6, 5940, Note_on_c, 0, 67, 80
6, 5999, Note_on_c, 0, 67, 0
6, 6000, Note_on_c, 0, 67, 80
6, 6059, Note_on_c, 0, 67, 0
6, 6060, Note_on_c, 0, 60, 80
6, 6119, Note_on_c, 0, 60, 0
6, 6120, Note_on_c, 0, 69, 80
6, 6209, Note_on_c, 0, 69, 0
6, 6210, Note_on_c, 0, 72, 80
6, 6239, Note_on_c, 0, 72, 0
6, 6240, Note_on_c, 0, 72, 80
6, 6299, Note_on_c, 0, 72, 0
6, 6300, Note_on_c, 0, 65, 80
6, 6359, Note_on_c, 0, 65, 0
6, 6360, Note_on_c, 0, 60, 80
6, 6449, Note_on_c, 0, 60, 0
6, 6450, Note_on_c, 0, 65, 80
6, 6479, Note_on_c, 0, 65, 0
6, 6480, Note_on_c, 0, 65, 80
6, 6540, Note_on_c, 0, 58, 80
6, 6569, Note_on_c, 0, 65, 0
6, 6570, Note_on_c, 0, 65, 80
6, 6599, Note_on_c, 0, 58, 0
6, 6599, Note_on_c, 0, 65, 0
6, 6600, Note_on_c, 0, 77, 80
6, 6720, Note_on_c, 0, 70, 80
6, 6809, Note_on_c, 0, 77, 0
6, 6810, Note_on_c, 0, 77, 80
6, 6839, Note_on_c, 0, 77, 0
6, 6840, Note_on_c, 0, 76, 80
6, 6899, Note_on_c, 0, 70, 0
6, 6900, Note_on_c, 0, 70, 80
6, 6929, Note_on_c, 0, 76, 0
6, 6930, Note_on_c, 0, 74, 80
6, 6959, Note_on_c, 0, 70, 0
6, 6959, Note_on_c, 0, 74, 0
6, 6960, Note_on_c, 0, 73, 80
6, 6960, Note_on_c, 0, 69, 80
6, 7049, Note_on_c, 0, 73, 0
6, 7049, Note_on_c, 0, 69, 0
6, 7050, Note_on_c, 0, 73, 80
6, 7050, Note_on_c, 0, 69, 80
6, 7079, Note_on_c, 0, 73, 0
6, 7079, Note_on_c, 0, 69, 0
6, 7080, Note_on_c, 0, 74, 80
6, 7080, Note_on_c, 0, 69, 80
6, 7169, Note_on_c, 0, 74, 0
6, 7169, Note_on_c, 0, 69, 0
6, 7170, Note_on_c, 0, 74, 80
6, 7170, Note_on_c, 0, 69, 80
6, 7199, Note_on_c, 0, 74, 0
6, 7199, Note_on_c, 0, 69, 0
6, 7200, Note_on_c, 0, 74, 80
6, 7200, Note_on_c, 0, 69, 80
6, 7259, Note_on_c, 0, 74, 0
6, 7259, Note_on_c, 0, 69, 0
6, 7260, Note_on_c, 0, 73, 80
6, 7260, Note_on_c, 0, 69, 80
6, 7319, Note_on_c, 0, 73, 0
6, 7319, Note_on_c, 0, 69, 0
6, 7380, Note_on_c, 0, 73, 80
6, 7380, Note_on_c, 0, 69, 80
6, 7439, Note_on_c, 0, 73, 0
6, 7439, Note_on_c, 0, 69, 0
6, 7440, Note_on_c, 0, 74, 80
6, 7440, Note_on_c, 0, 69, 80
6, 7499, Note_on_c, 0, 74, 0
6, 7499, Note_on_c, 0, 69, 0
6, 7500, Note_on_c, 0, 69, 80
6, 7500, Note_on_c, 0, 73, 80
6, 7559, Note_on_c, 0, 69, 0
6, 7559, Note_on_c, 0, 73, 0
6, 7620, Note_on_c, 0, 76, 80
6, 7620, Note_on_c, 0, 69, 80
6, 7679, Note_on_c, 0, 76, 0
6, 7679, Note_on_c, 0, 69, 0
6, 7680, Note_on_c, 0, 77, 80
6, 7680, Note_on_c, 0, 69, 80
6, 7739, Note_on_c, 0, 77, 0
6, 7739, Note_on_c, 0, 69, 0
6, 7740, Note_on_c, 0, 76, 80
6, 7740, Note_on_c, 0, 69, 80
6, 7799, Note_on_c, 0, 76, 0
6, 7799, Note_on_c, 0, 69, 0
6, 8160, Note_on_c, 0, 77, 48
6, 8160, Note_on_c, 0, 69, 48
6, 8249, Note_on_c, 0, 77, 0
6, 8249, Note_on_c, 0, 69, 0
6, 8250, Note_on_c, 0, 76, 48
6, 8250, Note_on_c, 0, 67, 48
6, 8279, Note_on_c, 0, 76, 0
6, 8279, Note_on_c, 0, 67, 0
6, 8280, Note_on_c, 0, 74, 48
6, 8280, Note_on_c, 0, 65, 48
6, 8399, Note_on_c, 0, 74, 0
6, 8399, Note_on_c, 0, 65, 0
6, 8399, End_track
7, 0, Start_track
7, 0, Title_t, "Bassoon"
7, 0, MIDI_port, 0
7, 0, Program_c, 1, 70
7, 0, Control_c, 1, 7, 96
7, 0, Control_c, 1, 10, 65
7, 0, Control_c, 1, 11, 127
7, 120, Note_on_c, 1, 58, 72
7, 120, Note_on_c, 1, 62, 72
7, 239, Note_on_c, 1, 58, 0
7, 239, Note_on_c, 1, 62, 0
7, 600, Note_on_c, 1, 63, 72
7, 600, Note_on_c, 1, 48, 72
7, 659, Note_on_c, 1, 63, 0
7, 659, Note_on_c, 1, 48, 0
7, 720, Note_on_c, 1, 62, 72
7, 720, Note_on_c, 1, 50, 72
7, 779, Note_on_c, 1, 62, 0
7, 779, Note_on_c, 1, 50, 0
7, 840, Note_on_c, 1, 60, 72
7, 840, Note_on_c, 1, 50, 72
7, 899, Note_on_c, 1, 60, 0
7, 899, Note_on_c, 1, 50, 0
7, 1080, Note_on_c, 1, 62, 72
7, 1080, Note_on_c, 1, 58, 72
7, 1199, Note_on_c, 1, 62, 0
7, 1199, Note_on_c, 1, 58, 0
7, 1560, Note_on_c, 1, 63, 72
7, 1560, Note_on_c, 1, 55, 72
7, 1679, Note_on_c, 1, 63, 0
7, 1679, Note_on_c, 1, 55, 0
7, 2040, Note_on_c, 1, 63, 72
7, 2040, Note_on_c, 1, 60, 72
7, 2159, Note_on_c, 1, 63, 0
7, 2159, Note_on_c, 1, 60, 0
7, 2520, Note_on_c, 1, 66, 80
7, 2520, Note_on_c, 1, 62, 80
7, 2609, Note_on_c, 1, 66, 0
7, 2609, Note_on_c, 1, 62, 0
7, 2610, Note_on_c, 1, 66, 80
7, 2610, Note_on_c, 1, 62, 80
7, 2639, Note_on_c, 1, 66, 0
7, 2639, Note_on_c, 1, 62, 0
7, 2640, Note_on_c, 1, 67, 80
7, 2640, Note_on_c, 1, 58, 80
7, 2729, Note_on_c, 1, 67, 0
7, 2729, Note_on_c, 1, 58, 0
7, 2730, Note_on_c, 1, 67, 80
7, 2730, Note_on_c, 1, 58, 80
7, 2759, Note_on_c, 1, 67, 0
7, 2759, Note_on_c, 1, 58, 0
7, 2760, Note_on_c, 1, 67, 80
7, 2760, Note_on_c, 1, 55, 80
7, 2849, Note_on_c, 1, 67, 0
7, 2849, Note_on_c, 1, 55, 0
7, 2850, Note_on_c, 1, 67, 80
7, 2850, Note_on_c, 1, 55, 80
7, 2879, Note_on_c, 1, 67, 0
7, 2879, Note_on_c, 1, 55, 0
7, 2880, Note_on_c, 1, 66, 80
7, 2880, Note_on_c, 1, 50, 80
7, 2999, Note_on_c, 1, 66, 0
7, 2999, Note_on_c, 1, 50, 0
7, 3120, Note_on_c, 1, 62, 80
7, 3299, Note_on_c, 1, 62, 0
7, 3300, Note_on_c, 1, 67, 80
7, 3359, Note_on_c, 1, 67, 0
7, 3360, Note_on_c, 1, 67, 80
7, 3360, Note_on_c, 1, 55, 80
7, 3419, Note_on_c, 1, 67, 0
7, 3420, Note_on_c, 1, 60, 80
7, 3479, Note_on_c, 1, 60, 0
7, 3539, Note_on_c, 1, 55, 0
7, 3540, Note_on_c, 1, 60, 80
7, 3599, Note_on_c, 1, 60, 0
7, 3600, Note_on_c, 1, 60, 80
7, 3659, Note_on_c, 1, 60, 0
7, 3660, Note_on_c, 1, 53, 80
7, 3719, Note_on_c, 1, 53, 0
7, 3720, Note_on_c, 1, 60, 80
7, 3809, Note_on_c, 1, 60, 0
7, 3810, Note_on_c, 1, 65, 80
7, 3839, Note_on_c, 1, 65, 0
7, 3840, Note_on_c, 1, 65, 80
7, 3899, Note_on_c, 1, 65, 0
7, 3900, Note_on_c, 1, 58, 80
7, 3959, Note_on_c, 1, 58, 0
7, 3960, Note_on_c, 1, 53, 80
7, 4049, Note_on_c, 1, 53, 0
7, 4050, Note_on_c, 1, 58, 80
7, 4079, Note_on_c, 1, 58, 0
7, 4080, Note_on_c, 1, 58, 80
7, 4139, Note_on_c, 1, 58, 0
7, 4140, Note_on_c, 1, 51, 80
7, 4199, Note_on_c, 1, 51, 0
7, 4200, Note_on_c, 1, 58, 80
7, 4289, Note_on_c, 1, 58, 0
7, 4290, Note_on_c, 1, 63, 80
7, 4319, Note_on_c, 1, 63, 0
7, 4320, Note_on_c, 1, 63, 80
7, 4379, Note_on_c, 1, 63, 0
7, 4380, Note_on_c, 1, 57, 80
7, 4439, Note_on_c, 1, 57, 0
7, 4440, Note_on_c, 1, 57, 80
7, 4529, Note_on_c, 1, 57, 0
7, 4530, Note_on_c, 1, 57, 80
7, 4559, Note_on_c, 1, 57, 0
7, 4560, Note_on_c, 1, 57, 80
7, 4560, Note_on_c, 1, 50, 80
7, 4649, Note_on_c, 1, 57, 0
7, 4650, Note_on_c, 1, 57, 80
7, 4679, Note_on_c, 1, 57, 0
7, 4680, Note_on_c, 1, 62, 80
7, 4739, Note_on_c, 1, 50, 0
7, 4740, Note_on_c, 1, 52, 80
7, 4784, Note_on_c, 1, 52, 0
7, 4785, Note_on_c, 1, 54, 80
7, 4799, Note_on_c, 1, 54, 0
7, 4800, Note_on_c, 1, 55, 80
7, 4859, Note_on_c, 1, 62, 0
7, 4860, Note_on_c, 1, 58, 80
7, 4919, Note_on_c, 1, 55, 0
7, 4919, Note_on_c, 1, 58, 0
7, 4920, Note_on_c, 1, 62, 80
7, 4920, Note_on_c, 1, 58, 80
7, 5009, Note_on_c, 1, 62, 0
7, 5009, Note_on_c, 1, 58, 0
7, 5010, Note_on_c, 1, 60, 80
7, 5010, Note_on_c, 1, 57, 80
7, 5039, Note_on_c, 1, 60, 0
7, 5039, Note_on_c, 1, 57, 0
7, 5040, Note_on_c, 1, 58, 80
7, 5040, Note_on_c, 1, 55, 80
7, 5129, Note_on_c, 1, 58, 0
7, 5129, Note_on_c, 1, 55, 0
7, 5130, Note_on_c, 1, 62, 80
7, 5130, Note_on_c, 1, 54, 80
7, 5159, Note_on_c, 1, 62, 0
7, 5159, Note_on_c, 1, 54, 0
7, 5160, Note_on_c, 1, 55, 80
7, 5160, Note_on_c, 1, 52, 80
7, 5249, Note_on_c, 1, 55, 0
7, 5249, Note_on_c, 1, 52, 0
7, 5250, Note_on_c, 1, 60, 80
7, 5250, Note_on_c, 1, 48, 80
7, 5279, Note_on_c, 1, 60, 0
7, 5279, Note_on_c, 1, 48, 0
7, 5280, Note_on_c, 1, 60, 80
7, 5280, Note_on_c, 1, 53, 80
7, 5339, Note_on_c, 1, 60, 0
7, 5339, Note_on_c, 1, 53, 0
7, 5340, Note_on_c, 1, 57, 80
7, 5340, Note_on_c, 1, 53, 80
7, 5399, Note_on_c, 1, 57, 0
7, 5399, Note_on_c, 1, 53, 0
7, 5400, Note_on_c, 1, 57, 80
7, 5489, Note_on_c, 1, 57, 0
7, 5490, Note_on_c, 1, 57, 80
7, 5519, Note_on_c, 1, 57, 0
7, 5520, Note_on_c, 1, 65, 80
7, 5640, Note_on_c, 1, 50, 80
7, 5729, Note_on_c, 1, 50, 0
7, 5730, Note_on_c, 1, 50, 80
7, 5759, Note_on_c, 1, 50, 0
7, 5760, Note_on_c, 1, 58, 80
7, 5849, Note_on_c, 1, 65, 0
7, 5850, Note_on_c, 1, 62, 80
7, 5879, Note_on_c, 1, 62, 0
7, 5880, Note_on_c, 1, 67, 80
7, 5969, Note_on_c, 1, 67, 0
7, 5970, Note_on_c, 1, 65, 80
7, 5999, Note_on_c, 1, 65, 0
7, 6000, Note_on_c, 1, 64, 80
7, 6089, Note_on_c, 1, 58, 0
7, 6090, Note_on_c, 1, 55, 80
7, 6119, Note_on_c, 1, 55, 0
7, 6120, Note_on_c, 1, 60, 80
7, 6209, Note_on_c, 1, 60, 0
7, 6210, Note_on_c, 1, 58, 80
7, 6239, Note_on_c, 1, 58, 0
7, 6240, Note_on_c, 1, 57, 80
7, 6329, Note_on_c, 1, 64, 0
7, 6330, Note_on_c, 1, 60, 80
7, 6359, Note_on_c, 1, 60, 0
7, 6360, Note_on_c, 1, 65, 80
7, 6449, Note_on_c, 1, 65, 0
7, 6450, Note_on_c, 1, 64, 80
7, 6479, Note_on_c, 1, 64, 0
7, 6480, Note_on_c, 1, 62, 80
7, 6569, Note_on_c, 1, 57, 0
7, 6570, Note_on_c, 1, 53, 80
7, 6599, Note_on_c, 1, 53, 0
7, 6600, Note_on_c, 1, 58, 80
7, 6689, Note_on_c, 1, 58, 0
7, 6690, Note_on_c, 1, 57, 80
7, 6719, Note_on_c, 1, 57, 0
7, 6720, Note_on_c, 1, 55, 80
7, 6809, Note_on_c, 1, 62, 0
7, 6809, Note_on_c, 1, 55, 0
7, 6810, Note_on_c, 1, 62, 80
7, 6810, Note_on_c, 1, 58, 80
7, 6839, Note_on_c, 1, 62, 0
7, 6839, Note_on_c, 1, 58, 0
7, 6840, Note_on_c, 1, 67, 80
7, 6840, Note_on_c, 1, 52, 80
7, 6899, Note_on_c, 1, 52, 0
7, 6900, Note_on_c, 1, 53, 80
7, 6929, Note_on_c, 1, 67, 0
7, 6930, Note_on_c, 1, 65, 80
7, 6944, Note_on_c, 1, 53, 0
7, 6945, Note_on_c, 1, 55, 80
7, 6959, Note_on_c, 1, 65, 0
7, 6959, Note_on_c, 1, 55, 0
7, 6960, Note_on_c, 1, 64, 80
7, 6960, Note_on_c, 1, 57, 80
7, 7049, Note_on_c, 1, 64, 0
7, 7049, Note_on_c, 1, 57, 0
7, 7050, Note_on_c, 1, 64, 80
7, 7050, Note_on_c, 1, 57, 80
7, 7079, Note_on_c, 1, 64, 0
7, 7079, Note_on_c, 1, 57, 0
7, 7080, Note_on_c, 1, 65, 80
7, 7080, Note_on_c, 1, 53, 80
7, 7169, Note_on_c, 1, 65, 0
7, 7169, Note_on_c, 1, 53, 0
7, 7170, Note_on_c, 1, 65, 80
7, 7170, Note_on_c, 1, 50, 80
7, 7199, Note_on_c, 1, 65, 0
7, 7199, Note_on_c, 1, 50, 0
7, 7200, Note_on_c, 1, 65, 80
7, 7200, Note_on_c, 1, 57, 80
7, 7259, Note_on_c, 1, 65, 0
7, 7259, Note_on_c, 1, 57, 0
7, 7260, Note_on_c, 1, 64, 80
7, 7260, Note_on_c, 1, 45, 80
7, 7319, Note_on_c, 1, 64, 0
7, 7319, Note_on_c, 1, 45, 0
7, 7380, Note_on_c, 1, 64, 80
7, 7380, Note_on_c, 1, 57, 80
7, 7439, Note_on_c, 1, 64, 0
7, 7439, Note_on_c, 1, 57, 0
7, 7440, Note_on_c, 1, 65, 80
7, 7440, Note_on_c, 1, 62, 80
7, 7499, Note_on_c, 1, 65, 0
7, 7499, Note_on_c, 1, 62, 0
7, 7500, Note_on_c, 1, 64, 80
7, 7500, Note_on_c, 1, 57, 80
7, 7559, Note_on_c, 1, 64, 0
7, 7559, Note_on_c, 1, 57, 0
7, 7620, Note_on_c, 1, 61, 80
7, 7620, Note_on_c, 1, 57, 80
7, 7679, Note_on_c, 1, 61, 0
7, 7679, Note_on_c, 1, 57, 0
7, 7680, Note_on_c, 1, 62, 80
7, 7739, Note_on_c, 1, 62, 0
7, 7740, Note_on_c, 1, 61, 80
7, 7740, Note_on_c, 1, 57, 80
7, 7799, Note_on_c, 1, 61, 0
7, 7799, Note_on_c, 1, 57, 0
7, 8640, Note_on_c, 1, 62, 48
7, 8640, Note_on_c, 1, 53, 48
7, 8729, Note_on_c, 1, 62, 0
7, 8729, Note_on_c, 1, 53, 0
7, 8730, Note_on_c, 1, 60, 48
7, 8730, Note_on_c, 1, 51, 48
7, 8759, Note_on_c, 1, 60, 0
7, 8759, Note_on_c, 1, 51, 0
7, 8760, Note_on_c, 1, 58, 48
7, 8760, Note_on_c, 1, 50, 48
7, 8879, Note_on_c, 1, 58, 0
7, 8879, Note_on_c, 1, 50, 0
7, 8879, End_track
8, 0, Start_track
8, 0, Title_t, "Trumpet in D"
8, 0, MIDI_port, 0
8, 0, Program_c, 2, 56
8, 0, Control_c, 2, 7, 96
8, 0, Control_c, 2, 10, 64
8, 0, Control_c, 2, 11, 127
8, 2520, Note_on_c, 2, 62, 80
8, 2520, Note_on_c, 2, 74, 80
8, 2609, Note_on_c, 2, 62, 0
8, 2609, Note_on_c, 2, 74, 0
8, 2610, Note_on_c, 2, 74, 80
8, 2610, Note_on_c, 2, 62, 80
8, 2639, Note_on_c, 2, 74, 0
8, 2639, Note_on_c, 2, 62, 0
8, 2640, Note_on_c, 2, 74, 80
8, 2640, Note_on_c, 2, 62, 80
8, 2729, Note_on_c, 2, 74, 0
8, 2729, Note_on_c, 2, 62, 0
8, 2730, Note_on_c, 2, 74, 80
8, 2730, Note_on_c, 2, 62, 80
8, 2759, Note_on_c, 2, 74, 0
8, 2759, Note_on_c, 2, 62, 0
8, 2760, Note_on_c, 2, 74, 80
8, 2760, Note_on_c, 2, 62, 80
8, 2849, Note_on_c, 2, 74, 0
8, 2849, Note_on_c, 2, 62, 0
8, 2850, Note_on_c, 2, 74, 80
8, 2850, Note_on_c, 2, 62, 80
8, 2879, Note_on_c, 2, 74, 0
8, 2879, Note_on_c, 2, 62, 0
8, 2880, Note_on_c, 2, 74, 80
8, 2880, Note_on_c, 2, 62, 80
8, 2999, Note_on_c, 2, 74, 0
8, 2999, Note_on_c, 2, 62, 0
8, 4320, Note_on_c, 2, 69, 80
8, 4320, Note_on_c, 2, 57, 80
8, 4439, Note_on_c, 2, 69, 0
8, 4439, Note_on_c, 2, 57, 0
8, 4560, Note_on_c, 2, 69, 80
8, 4560, Note_on_c, 2, 62, 80
8, 4679, Note_on_c, 2, 69, 0
8, 4679, Note_on_c, 2, 62, 0
8, 6960, Note_on_c, 2, 69, 80
8, 6960, Note_on_c, 2, 57, 80
8, 7049, Note_on_c, 2, 69, 0
8, 7049, Note_on_c, 2, 57, 0
8, 7050, Note_on_c, 2, 69, 80
8, 7050, Note_on_c, 2, 57, 80
8, 7079, Note_on_c, 2, 69, 0
8, 7079, Note_on_c, 2, 57, 0
8, 7080, Note_on_c, 2, 69, 80
8, 7080, Note_on_c, 2, 62, 80
8, 7169, Note_on_c, 2, 69, 0
8, 7169, Note_on_c, 2, 62, 0
8, 7170, Note_on_c, 2, 69, 80
8, 7170, Note_on_c, 2, 62, 80
8, 7199, Note_on_c, 2, 69, 0
8, 7199, Note_on_c, 2, 62, 0
8, 7200, Note_on_c, 2, 69, 80
8, 7200, Note_on_c, 2, 57, 80
8, 7259, Note_on_c, 2, 69, 0
8, 7259, Note_on_c, 2, 57, 0
8, 7260, Note_on_c, 2, 57, 80
8, 7260, Note_on_c, 2, 69, 80
8, 7304, Note_on_c, 2, 57, 0
8, 7304, Note_on_c, 2, 69, 0
8, 7305, Note_on_c, 2, 69, 80
8, 7305, Note_on_c, 2, 57, 80
8, 7319, Note_on_c, 2, 69, 0
8, 7319, Note_on_c, 2, 57, 0
8, 7320, Note_on_c, 2, 69, 80
8, 7320, Note_on_c, 2, 57, 80
8, 7439, Note_on_c, 2, 69, 0
8, 7439, Note_on_c, 2, 57, 0
8, 7440, Note_on_c, 2, 69, 80
8, 7440, Note_on_c, 2, 57, 80
8, 7499, Note_on_c, 2, 69, 0
8, 7499, Note_on_c, 2, 57, 0
8, 7500, Note_on_c, 2, 69, 80
8, 7500, Note_on_c, 2, 57, 80
8, 7544, Note_on_c, 2, 69, 0
8, 7544, Note_on_c, 2, 57, 0
8, 7545, Note_on_c, 2, 57, 80
8, 7545, Note_on_c, 2, 69, 80
8, 7559, Note_on_c, 2, 57, 0
8, 7559, Note_on_c, 2, 69, 0
8, 7560, Note_on_c, 2, 69, 80
8, 7560, Note_on_c, 2, 62, 80
8, 7619, Note_on_c, 2, 69, 0
8, 7619, Note_on_c, 2, 62, 0
8, 7620, Note_on_c, 2, 69, 80
8, 7620, Note_on_c, 2, 57, 80
8, 7679, Note_on_c, 2, 69, 0
8, 7679, Note_on_c, 2, 57, 0
8, 7679, End_track
9, 0, Start_track
9, 0, Title_t, "Alto Trombone"
9, 0, MIDI_port, 0
9, 0, Control_c, 3, 7, 96
9, 0, Control_c, 3, 10, 96
9, 0, Control_c, 3, 11, 127
9, 0, Program_c, 3, 57
9, 120, Note_on_c, 3, 67, 72
9, 239, Note_on_c, 3, 67, 0
9, 600, Note_on_c, 3, 67, 72
9, 659, Note_on_c, 3, 67, 0
9, 720, Note_on_c, 3, 70, 72
9, 779, Note_on_c, 3, 70, 0
9, 840, Note_on_c, 3, 69, 72
9, 899, Note_on_c, 3, 69, 0
9, 1080, Note_on_c, 3, 67, 72
9, 1199, Note_on_c, 3, 67, 0
9, 1560, Note_on_c, 3, 67, 72
9, 1679, Note_on_c, 3, 67, 0
9, 2040, Note_on_c, 3, 67, 72
9, 2159, Note_on_c, 3, 67, 0
9, 2520, Note_on_c, 3, 69, 80
9, 2609, Note_on_c, 3, 69, 0
9, 2610, Note_on_c, 3, 69, 80
9, 2639, Note_on_c, 3, 69, 0
9, 2640, Note_on_c, 3, 70, 80
9, 2729, Note_on_c, 3, 70, 0
9, 2730, Note_on_c, 3, 70, 80
9, 2759, Note_on_c, 3, 70, 0
9, 2760, Note_on_c, 3, 70, 80
9, 2849, Note_on_c, 3, 70, 0
9, 2850, Note_on_c, 3, 70, 80
9, 2879, Note_on_c, 3, 70, 0
9, 2880, Note_on_c, 3, 69, 80
9, 2999, Note_on_c, 3, 69, 0
9, 3000, Note_on_c, 3, 62, 80
9, 3089, Note_on_c, 3, 62, 0
9, 3090, Note_on_c, 3, 62, 80
9, 3119, Note_on_c, 3, 62, 0
9, 3120, Note_on_c, 3, 70, 80
9, 3449, Note_on_c, 3, 70, 0
9, 3450, Note_on_c, 3, 67, 80
9, 3479, Note_on_c, 3, 67, 0
9, 3480, Note_on_c, 3, 72, 80
9, 3569, Note_on_c, 3, 72, 0
9, 3570, Note_on_c, 3, 70, 80
9, 3599, Note_on_c, 3, 70, 0
9, 3600, Note_on_c, 3, 69, 80
9, 3929, Note_on_c, 3, 69, 0
9, 3930, Note_on_c, 3, 65, 80
9, 3959, Note_on_c, 3, 65, 0
9, 3960, Note_on_c, 3, 70, 80
9, 4049, Note_on_c, 3, 70, 0
9, 4050, Note_on_c, 3, 69, 80
9, 4079, Note_on_c, 3, 69, 0
9, 4080, Note_on_c, 3, 67, 80
9, 4409, Note_on_c, 3, 67, 0
9, 4410, Note_on_c, 3, 70, 80
9, 4439, Note_on_c, 3, 70, 0
9, 4440, Note_on_c, 3, 69, 80
9, 4529, Note_on_c, 3, 69, 0
9, 4530, Note_on_c, 3, 67, 80
9, 4559, Note_on_c, 3, 67, 0
9, 4560, Note_on_c, 3, 66, 80
9, 4739, Note_on_c, 3, 66, 0
9, 4740, Note_on_c, 3, 67, 80
9, 4784, Note_on_c, 3, 67, 0
9, 4785, Note_on_c, 3, 69, 80
9, 4799, Note_on_c, 3, 69, 0
9, 4800, Note_on_c, 3, 67, 80
9, 4919, Note_on_c, 3, 67, 0
9, 4920, Note_on_c, 3, 67, 80
9, 5009, Note_on_c, 3, 67, 0
9, 5010, Note_on_c, 3, 69, 80
9, 5039, Note_on_c, 3, 69, 0
9, 5040, Note_on_c, 3, 70, 80
9, 5129, Note_on_c, 3, 70, 0
9, 5130, Note_on_c, 3, 69, 80
9, 5159, Note_on_c, 3, 69, 0
9, 5160, Note_on_c, 3, 67, 80
9, 5249, Note_on_c, 3, 67, 0
9, 5250, Note_on_c, 3, 64, 80
9, 5279, Note_on_c, 3, 64, 0
9, 5280, Note_on_c, 3, 65, 80
9, 5339, Note_on_c, 3, 65, 0
9, 5340, Note_on_c, 3, 65, 80
9, 5399, Note_on_c, 3, 65, 0
9, 5760, Note_on_c, 3, 62, 80
9, 5879, Note_on_c, 3, 62, 0
9, 5940, Note_on_c, 3, 67, 80
9, 5999, Note_on_c, 3, 67, 0
9, 6000, Note_on_c, 3, 67, 80
9, 6059, Note_on_c, 3, 67, 0
9, 6060, Note_on_c, 3, 60, 80
9, 6119, Note_on_c, 3, 60, 0
9, 6360, Note_on_c, 3, 60, 80
9, 6449, Note_on_c, 3, 60, 0
9, 6450, Note_on_c, 3, 65, 80
9, 6479, Note_on_c, 3, 65, 0
9, 6480, Note_on_c, 3, 65, 80
9, 6539, Note_on_c, 3, 65, 0
9, 6540, Note_on_c, 3, 58, 80
9, 6599, Note_on_c, 3, 58, 0
9, 6720, Note_on_c, 3, 70, 80
9, 6899, Note_on_c, 3, 70, 0
9, 6900, Note_on_c, 3, 70, 80
9, 6959, Note_on_c, 3, 70, 0
9, 6960, Note_on_c, 3, 69, 80
9, 7049, Note_on_c, 3, 69, 0
9, 7050, Note_on_c, 3, 69, 80
9, 7079, Note_on_c, 3, 69, 0
9, 7080, Note_on_c, 3, 69, 80
9, 7169, Note_on_c, 3, 69, 0
9, 7170, Note_on_c, 3, 69, 80
9, 7199, Note_on_c, 3, 69, 0
9, 7200, Note_on_c, 3, 69, 80
9, 7259, Note_on_c, 3, 69, 0
9, 7260, Note_on_c, 3, 69, 80
9, 7319, Note_on_c, 3, 69, 0
9, 7380, Note_on_c, 3, 69, 80
9, 7439, Note_on_c, 3, 69, 0
9, 7440, Note_on_c, 3, 69, 80
9, 7499, Note_on_c, 3, 69, 0
9, 7500, Note_on_c, 3, 69, 80
9, 7559, Note_on_c, 3, 69, 0
9, 7620, Note_on_c, 3, 69, 80
9, 7679, Note_on_c, 3, 69, 0
9, 7680, Note_on_c, 3, 69, 80
9, 7739, Note_on_c, 3, 69, 0
9, 7740, Note_on_c, 3, 69, 80
9, 7799, Note_on_c, 3, 69, 0
9, 7799, End_track
10, 0, Start_track
10, 0, Title_t, "Tenor Trombone"
10, 0, MIDI_port, 0
10, 0, Control_c, 3, 7, 96
10, 0, Control_c, 3, 10, 96
10, 0, Control_c, 3, 11, 127
10, 0, Program_c, 3, 57
10, 0, Note_on_c, 3, 58, 72
10, 119, Note_on_c, 3, 58, 0
10, 600, Note_on_c, 3, 63, 72
10, 659, Note_on_c, 3, 63, 0
10, 720, Note_on_c, 3, 62, 72
10, 779, Note_on_c, 3, 62, 0
10, 840, Note_on_c, 3, 62, 72
10, 899, Note_on_c, 3, 62, 0
10, 1080, Note_on_c, 3, 58, 72
10, 1199, Note_on_c, 3, 58, 0
10, 1560, Note_on_c, 3, 58, 72
10, 1679, Note_on_c, 3, 58, 0
10, 2040, Note_on_c, 3, 63, 72
10, 2159, Note_on_c, 3, 63, 0
10, 2520, Note_on_c, 3, 66, 80
10, 2609, Note_on_c, 3, 66, 0
10, 2610, Note_on_c, 3, 66, 80
10, 2639, Note_on_c, 3, 66, 0
10, 2640, Note_on_c, 3, 67, 80
10, 2729, Note_on_c, 3, 67, 0
10, 2730, Note_on_c, 3, 67, 80
10, 2759, Note_on_c, 3, 67, 0
10, 2760, Note_on_c, 3, 62, 80
10, 2849, Note_on_c, 3, 62, 0
10, 2850, Note_on_c, 3, 62, 80
10, 2879, Note_on_c, 3, 62, 0
10, 2880, Note_on_c, 3, 62, 80
10, 2999, Note_on_c, 3, 62, 0
10, 3120, Note_on_c, 3, 62, 80
10, 3239, Note_on_c, 3, 62, 0
10, 3300, Note_on_c, 3, 67, 80
10, 3359, Note_on_c, 3, 67, 0
10, 3360, Note_on_c, 3, 67, 80
10, 3419, Note_on_c, 3, 67, 0
10, 3420, Note_on_c, 3, 60, 80
10, 3479, Note_on_c, 3, 60, 0
10, 3720, Note_on_c, 3, 60, 80
10, 3809, Note_on_c, 3, 60, 0
10, 3810, Note_on_c, 3, 65, 80
10, 3839, Note_on_c, 3, 65, 0
10, 3840, Note_on_c, 3, 65, 80
10, 3899, Note_on_c, 3, 65, 0
10, 3900, Note_on_c, 3, 58, 80
10, 3959, Note_on_c, 3, 58, 0
10, 4200, Note_on_c, 3, 58, 80
10, 4289, Note_on_c, 3, 58, 0
10, 4290, Note_on_c, 3, 63, 80
10, 4319, Note_on_c, 3, 63, 0
10, 4320, Note_on_c, 3, 63, 80
10, 4379, Note_on_c, 3, 63, 0
10, 4380, Note_on_c, 3, 57, 80
10, 4439, Note_on_c, 3, 57, 0
10, 4560, Note_on_c, 3, 57, 80
10, 4649, Note_on_c, 3, 57, 0
10, 4650, Note_on_c, 3, 57, 80
10, 4679, Note_on_c, 3, 57, 0
10, 4680, Note_on_c, 3, 62, 80
10, 4859, Note_on_c, 3, 62, 0
10, 4860, Note_on_c, 3, 58, 80
10, 4919, Note_on_c, 3, 58, 0
10, 4920, Note_on_c, 3, 62, 80
10, 5009, Note_on_c, 3, 62, 0
10, 5010, Note_on_c, 3, 60, 80
10, 5039, Note_on_c, 3, 60, 0
10, 5040, Note_on_c, 3, 58, 80
10, 5129, Note_on_c, 3, 58, 0
10, 5130, Note_on_c, 3, 62, 80
10, 5159, Note_on_c, 3, 62, 0
10, 5160, Note_on_c, 3, 55, 80
10, 5249, Note_on_c, 3, 55, 0
10, 5250, Note_on_c, 3, 60, 80
10, 5279, Note_on_c, 3, 60, 0
10, 5280, Note_on_c, 3, 60, 80
10, 5339, Note_on_c, 3, 60, 0
10, 5340, Note_on_c, 3, 57, 80
10, 5399, Note_on_c, 3, 57, 0
10, 5400, Note_on_c, 3, 57, 80
10, 5489, Note_on_c, 3, 57, 0
10, 5490, Note_on_c, 3, 57, 80
10, 5519, Note_on_c, 3, 57, 0
10, 5520, Note_on_c, 3, 65, 80
10, 5849, Note_on_c, 3, 65, 0
10, 5850, Note_on_c, 3, 62, 80
10, 5879, Note_on_c, 3, 62, 0
10, 5880, Note_on_c, 3, 67, 80
10, 5969, Note_on_c, 3, 67, 0
10, 5970, Note_on_c, 3, 65, 80
10, 5999, Note_on_c, 3, 65, 0
10, 6000, Note_on_c, 3, 64, 80
10, 6329, Note_on_c, 3, 64, 0
10, 6330, Note_on_c, 3, 60, 80
10, 6359, Note_on_c, 3, 60, 0
10, 6360, Note_on_c, 3, 65, 80
10, 6449, Note_on_c, 3, 65, 0
10, 6450, Note_on_c, 3, 64, 80
10, 6479, Note_on_c, 3, 64, 0
10, 6480, Note_on_c, 3, 62, 80
10, 6809, Note_on_c, 3, 62, 0
10, 6810, Note_on_c, 3, 62, 80
10, 6839, Note_on_c, 3, 62, 0
10, 6840, Note_on_c, 3, 67, 80
10, 6929, Note_on_c, 3, 67, 0
10, 6930, Note_on_c, 3, 65, 80
10, 6959, Note_on_c, 3, 65, 0
10, 6960, Note_on_c, 3, 64, 80
10, 7049, Note_on_c, 3, 64, 0
10, 7050, Note_on_c, 3, 64, 80
10, 7079, Note_on_c, 3, 64, 0
10, 7080, Note_on_c, 3, 65, 80
10, 7169, Note_on_c, 3, 65, 0
10, 7170, Note_on_c, 3, 65, 80
10, 7199, Note_on_c, 3, 65, 0
10, 7200, Note_on_c, 3, 65, 80
10, 7259, Note_on_c, 3, 65, 0
10, 7260, Note_on_c, 3, 64, 80
10, 7319, Note_on_c, 3, 64, 0
10, 7380, Note_on_c, 3, 64, 80
10, 7439, Note_on_c, 3, 64, 0
10, 7440, Note_on_c, 3, 65, 80
10, 7499, Note_on_c, 3, 65, 0
10, 7500, Note_on_c, 3, 64, 80
10, 7559, Note_on_c, 3, 64, 0
10, 7620, Note_on_c, 3, 61, 80
10, 7679, Note_on_c, 3, 61, 0
10, 7680, Note_on_c, 3, 62, 80
10, 7739, Note_on_c, 3, 62, 0
10, 7740, Note_on_c, 3, 61, 80
10, 7799, Note_on_c, 3, 61, 0
10, 7799, End_track
11, 0, Start_track
11, 0, Title_t, "Baritone Trombone"
11, 0, MIDI_port, 0
11, 0, Control_c, 3, 7, 96
11, 0, Control_c, 3, 10, 96
11, 0, Control_c, 3, 11, 127
11, 0, Program_c, 3, 57
11, 120, Note_on_c, 3, 55, 72
11, 239, Note_on_c, 3, 55, 0
11, 600, Note_on_c, 3, 48, 72
11, 659, Note_on_c, 3, 48, 0
11, 720, Note_on_c, 3, 50, 72
11, 779, Note_on_c, 3, 50, 0
11, 840, Note_on_c, 3, 50, 72
11, 899, Note_on_c, 3, 50, 0
11, 1080, Note_on_c, 3, 55, 72
11, 1199, Note_on_c, 3, 55, 0
11, 1560, Note_on_c, 3, 51, 72
11, 1679, Note_on_c, 3, 51, 0
11, 2040, Note_on_c, 3, 48, 72
11, 2159, Note_on_c, 3, 48, 0
11, 2520, Note_on_c, 3, 62, 80
11, 2609, Note_on_c, 3, 62, 0
11, 2610, Note_on_c, 3, 62, 80
11, 2639, Note_on_c, 3, 62, 0
11, 2640, Note_on_c, 3, 58, 80
11, 2729, Note_on_c, 3, 58, 0
11, 2730, Note_on_c, 3, 58, 80
11, 2759, Note_on_c, 3, 58, 0
11, 2760, Note_on_c, 3, 55, 80
11, 2849, Note_on_c, 3, 55, 0
11, 2850, Note_on_c, 3, 55, 80
11, 2879, Note_on_c, 3, 55, 0
11, 2880, Note_on_c, 3, 50, 80
11, 2999, Note_on_c, 3, 50, 0
11, 3360, Note_on_c, 3, 55, 80
11, 3479, Note_on_c, 3, 55, 0
11, 3540, Note_on_c, 3, 60, 80
11, 3599, Note_on_c, 3, 60, 0
11, 3600, Note_on_c, 3, 60, 80
11, 3659, Note_on_c, 3, 60, 0
11, 3660, Note_on_c, 3, 53, 80
11, 3719, Note_on_c, 3, 53, 0
11, 3960, Note_on_c, 3, 53, 80
11, 4049, Note_on_c, 3, 53, 0
11, 4050, Note_on_c, 3, 58, 80
11, 4079, Note_on_c, 3, 58, 0
11, 4080, Note_on_c, 3, 58, 80
11, 4139, Note_on_c, 3, 58, 0
11, 4140, Note_on_c, 3, 51, 80
11, 4199, Note_on_c, 3, 51, 0
11, 4440, Note_on_c, 3, 57, 80
11, 4529, Note_on_c, 3, 57, 0
11, 4530, Note_on_c, 3, 57, 80
11, 4559, Note_on_c, 3, 57, 0
11, 4560, Note_on_c, 3, 50, 80
11, 4739, Note_on_c, 3, 50, 0
11, 4740, Note_on_c, 3, 52, 80
11, 4784, Note_on_c, 3, 52, 0
11, 4785, Note_on_c, 3, 54, 80
11, 4799, Note_on_c, 3, 54, 0
11, 4800, Note_on_c, 3, 55, 80
11, 4919, Note_on_c, 3, 55, 0
11, 4920, Note_on_c, 3, 58, 80
11, 5009, Note_on_c, 3, 58, 0
11, 5010, Note_on_c, 3, 57, 80
11, 5039, Note_on_c, 3, 57, 0
11, 5040, Note_on_c, 3, 55, 80
11, 5129, Note_on_c, 3, 55, 0
11, 5130, Note_on_c, 3, 53, 80
11, 5159, Note_on_c, 3, 53, 0
11, 5160, Note_on_c, 3, 52, 80
11, 5249, Note_on_c, 3, 52, 0
11, 5250, Note_on_c, 3, 48, 80
11, 5279, Note_on_c, 3, 48, 0
11, 5280, Note_on_c, 3, 53, 80
11, 5339, Note_on_c, 3, 53, 0
11, 5340, Note_on_c, 3, 53, 80
11, 5399, Note_on_c, 3, 53, 0
11, 5640, Note_on_c, 3, 50, 80
11, 5729, Note_on_c, 3, 50, 0
11, 5730, Note_on_c, 3, 50, 80
11, 5759, Note_on_c, 3, 50, 0
11, 5760, Note_on_c, 3, 58, 80
11, 6089, Note_on_c, 3, 58, 0
11, 6090, Note_on_c, 3, 55, 80
11, 6119, Note_on_c, 3, 55, 0
11, 6120, Note_on_c, 3, 60, 80
11, 6209, Note_on_c, 3, 60, 0
11, 6210, Note_on_c, 3, 58, 80
11, 6239, Note_on_c, 3, 58, 0
11, 6240, Note_on_c, 3, 57, 80
11, 6569, Note_on_c, 3, 57, 0
11, 6570, Note_on_c, 3, 53, 80
11, 6599, Note_on_c, 3, 53, 0
11, 6600, Note_on_c, 3, 58, 80
11, 6689, Note_on_c, 3, 58, 0
11, 6690, Note_on_c, 3, 57, 80
11, 6719, Note_on_c, 3, 57, 0
11, 6720, Note_on_c, 3, 55, 80
11, 6809, Note_on_c, 3, 55, 0
11, 6810, Note_on_c, 3, 58, 80
11, 6839, Note_on_c, 3, 58, 0
11, 6840, Note_on_c, 3, 52, 80
11, 6899, Note_on_c, 3, 52, 0
11, 6900, Note_on_c, 3, 53, 80
11, 6944, Note_on_c, 3, 53, 0
11, 6945, Note_on_c, 3, 55, 80
11, 6959, Note_on_c, 3, 55, 0
11, 6960, Note_on_c, 3, 57, 80
11, 7049, Note_on_c, 3, 57, 0
11, 7050, Note_on_c, 3, 57, 80
11, 7079, Note_on_c, 3, 57, 0
11, 7080, Note_on_c, 3, 53, 80
11, 7169, Note_on_c, 3, 53, 0
11, 7170, Note_on_c, 3, 50, 80
11, 7199, Note_on_c, 3, 50, 0
11, 7200, Note_on_c, 3, 57, 80
11, 7259, Note_on_c, 3, 57, 0
11, 7260, Note_on_c, 3, 45, 80
11, 7319, Note_on_c, 3, 45, 0
11, 7380, Note_on_c, 3, 57, 80
11, 7439, Note_on_c, 3, 57, 0
11, 7440, Note_on_c, 3, 62, 80
11, 7499, Note_on_c, 3, 62, 0
11, 7500, Note_on_c, 3, 57, 80
11, 7559, Note_on_c, 3, 57, 0
11, 7620, Note_on_c, 3, 57, 80
11, 7679, Note_on_c, 3, 57, 0
11, 7680, Note_on_c, 3, 62, 80
11, 7739, Note_on_c, 3, 62, 0
11, 7740, Note_on_c, 3, 57, 80
11, 7799, Note_on_c, 3, 57, 0
11, 7799, End_track
12, 0, Start_track
12, 0, Title_t, "Violin I"
12, 0, MIDI_port, 0
12, 0, Program_c, 4, 48
12, 0, Control_c, 4, 7, 96
12, 0, Control_c, 4, 10, 48
12, 0, Control_c, 4, 11, 127
12, 0, Note_on_c, 4, 79, 72
12, 0, Note_on_c, 4, 70, 72
12, 0, Note_on_c, 4, 62, 72
12, 59, Note_on_c, 4, 79, 0
12, 59, Note_on_c, 4, 70, 0
12, 59, Note_on_c, 4, 62, 0
12, 60, Note_on_c, 4, 67, 72
12, 119, Note_on_c, 4, 67, 0
12, 165, Note_on_c, 4, 79, 72
12, 179, Note_on_c, 4, 79, 0
12, 180, Note_on_c, 4, 77, 72
12, 224, Note_on_c, 4, 77, 0
12, 225, Note_on_c, 4, 75, 72
12, 239, Note_on_c, 4, 75, 0
12, 240, Note_on_c, 4, 74, 72
12, 284, Note_on_c, 4, 74, 0
12, 285, Note_on_c, 4, 72, 72
12, 299, Note_on_c, 4, 72, 0
12, 300, Note_on_c, 4, 70, 72
12, 344, Note_on_c, 4, 70, 0
12, 345, Note_on_c, 4, 69, 72
12, 359, Note_on_c, 4, 69, 0
12, 360, Note_on_c, 4, 67, 72
12, 404, Note_on_c, 4, 67, 0
12, 405, Note_on_c, 4, 65, 72
12, 419, Note_on_c, 4, 65, 0
12, 420, Note_on_c, 4, 63, 72
12, 464, Note_on_c, 4, 63, 0
12, 465, Note_on_c, 4, 62, 72
12, 479, Note_on_c, 4, 62, 0
12, 480, Note_on_c, 4, 60, 72
12, 539, Note_on_c, 4, 60, 0
12, 540, Note_on_c, 4, 75, 72
12, 540, Note_on_c, 4, 84, 72
12, 599, Note_on_c, 4, 75, 0
12, 599, Note_on_c, 4, 84, 0
12, 660, Note_on_c, 4, 72, 72
12, 660, Note_on_c, 4, 81, 72
12, 660, Note_on_c, 4, 63, 72
12, 719, Note_on_c, 4, 72, 0
12, 719, Note_on_c, 4, 81, 0
12, 719, Note_on_c, 4, 63, 0
12, 780, Note_on_c, 4, 79, 72
12, 780, Note_on_c, 4, 70, 72
12, 780, Note_on_c, 4, 62, 72
12, 839, Note_on_c, 4, 79, 0
12, 839, Note_on_c, 4, 70, 0
12, 839, Note_on_c, 4, 62, 0
12, 900, Note_on_c, 4, 78, 72
12, 900, Note_on_c, 4, 69, 72
12, 900, Note_on_c, 4, 62, 72
12, 959, Note_on_c, 4, 78, 0
12, 959, Note_on_c, 4, 69, 0
12, 959, Note_on_c, 4, 62, 0
12, 960, Note_on_c, 4, 79, 72
12, 960, Note_on_c, 4, 70, 72
12, 960, Note_on_c, 4, 62, 72
12, 1019, Note_on_c, 4, 79, 0
12, 1019, Note_on_c, 4, 70, 0
12, 1019, Note_on_c, 4, 62, 0
12, 1020, Note_on_c, 4, 67, 72
12, 1079, Note_on_c, 4, 67, 0
12, 1125, Note_on_c, 4, 79, 72
12, 1139, Note_on_c, 4, 79, 0
12, 1140, Note_on_c, 4, 77, 72
12, 1184, Note_on_c, 4, 77, 0
12, 1185, Note_on_c, 4, 75, 72
12, 1199, Note_on_c, 4, 75, 0
12, 1200, Note_on_c, 4, 74, 72
12, 1244, Note_on_c, 4, 74, 0
12, 1245, Note_on_c, 4, 72, 72
12, 1259, Note_on_c, 4, 72, 0
12, 1260, Note_on_c, 4, 70, 72
12, 1304, Note_on_c, 4, 70, 0
12, 1305, Note_on_c, 4, 69, 72
12, 1319, Note_on_c, 4, 69, 0
12, 1320, Note_on_c, 4, 67, 72
12, 1364, Note_on_c, 4, 67, 0
12, 1365, Note_on_c, 4, 70, 72
12, 1379, Note_on_c, 4, 70, 0
12, 1380, Note_on_c, 4, 65, 72
12, 1424, Note_on_c, 4, 65, 0
12, 1425, Note_on_c, 4, 70, 72
12, 1439, Note_on_c, 4, 70, 0
12, 1440, Note_on_c, 4, 63, 72
12, 1499, Note_on_c, 4, 63, 0
12, 1500, Note_on_c, 4, 75, 72
12, 1559, Note_on_c, 4, 75, 0
12, 1605, Note_on_c, 4, 75, 72
12, 1619, Note_on_c, 4, 75, 0
12, 1620, Note_on_c, 4, 74, 72
12, 1664, Note_on_c, 4, 74, 0
12, 1665, Note_on_c, 4, 72, 72
12, 1679, Note_on_c, 4, 72, 0
12, 1680, Note_on_c, 4, 70, 72
12, 1724, Note_on_c, 4, 70, 0
12, 1725, Note_on_c, 4, 68, 72
12, 1739, Note_on_c, 4, 68, 0
12, 1740, Note_on_c, 4, 67, 72
12, 1784, Note_on_c, 4, 67, 0
12, 1785, Note_on_c, 4, 65, 72
12, 1799, Note_on_c, 4, 65, 0
12, 1800, Note_on_c, 4, 63, 72
12, 1844, Note_on_c, 4, 63, 0
12, 1845, Note_on_c, 4, 67, 72
12, 1859, Note_on_c, 4, 67, 0
12, 1860, Note_on_c, 4, 62, 72
12, 1904, Note_on_c, 4, 62, 0
12, 1905, Note_on_c, 4, 67, 72
12, 1919, Note_on_c, 4, 67, 0
12, 1920, Note_on_c, 4, 60, 72
12, 1979, Note_on_c, 4, 60, 0
12, 1980, Note_on_c, 4, 72, 72
12, 2039, Note_on_c, 4, 72, 0
12, 2085, Note_on_c, 4, 75, 72
12, 2099, Note_on_c, 4, 75, 0
12, 2100, Note_on_c, 4, 87, 72
12, 2144, Note_on_c, 4, 87, 0
12, 2145, Note_on_c, 4, 86, 72
12, 2159, Note_on_c, 4, 86, 0
12, 2160, Note_on_c, 4, 84, 72
12, 2204, Note_on_c, 4, 84, 0
12, 2205, Note_on_c, 4, 72, 72
12, 2219, Note_on_c, 4, 72, 0
12, 2220, Note_on_c, 4, 84, 72
12, 2264, Note_on_c, 4, 84, 0
12, 2265, Note_on_c, 4, 82, 72
12, 2279, Note_on_c, 4, 82, 0
12, 2280, Note_on_c, 4, 81, 72
12, 2324, Note_on_c, 4, 81, 0
12, 2325, Note_on_c, 4, 69, 72
12, 2339, Note_on_c, 4, 69, 0
12, 2340, Note_on_c, 4, 81, 72
12, 2384, Note_on_c, 4, 81, 0
12, 2385, Note_on_c, 4, 79, 72
12, 2399, Note_on_c, 4, 79, 0
12, 2400, Note_on_c, 4, 78, 72
12, 2519, Note_on_c, 4, 78, 0
12, 2925, Note_on_c, 4, 74, 72
12, 2939, Note_on_c, 4, 74, 0
12, 2940, Note_on_c, 4, 81, 72
12, 2984, Note_on_c, 4, 81, 0
12, 2985, Note_on_c, 4, 79, 72
12, 2999, Note_on_c, 4, 79, 0
12, 3000, Note_on_c, 4, 78, 72
12, 3044, Note_on_c, 4, 78, 0
12, 3045, Note_on_c, 4, 75, 72
12, 3059, Note_on_c, 4, 75, 0
12, 3060, Note_on_c, 4, 74, 72
12, 3104, Note_on_c, 4, 74, 0
12, 3105, Note_on_c, 4, 72, 72
12, 3119, Note_on_c, 4, 72, 0
12, 3120, Note_on_c, 4, 70, 72
12, 3179, Note_on_c, 4, 70, 0
12, 3180, Note_on_c, 4, 86, 72
12, 3239, Note_on_c, 4, 86, 0
12, 3285, Note_on_c, 4, 70, 72
12, 3299, Note_on_c, 4, 70, 0
12, 3300, Note_on_c, 4, 72, 72
12, 3344, Note_on_c, 4, 72, 0
12, 3345, Note_on_c, 4, 74, 72
12, 3359, Note_on_c, 4, 74, 0
12, 3360, Note_on_c, 4, 75, 72
12, 3404, Note_on_c, 4, 75, 0
12, 3405, Note_on_c, 4, 77, 72
12, 3419, Note_on_c, 4, 77, 0
12, 3420, Note_on_c, 4, 79, 72
12, 3464, Note_on_c, 4, 79, 0
12, 3465, Note_on_c, 4, 77, 72
12, 3479, Note_on_c, 4, 77, 0
12, 3480, Note_on_c, 4, 75, 72
12, 3524, Note_on_c, 4, 75, 0
12, 3525, Note_on_c, 4, 74, 72
12, 3539, Note_on_c, 4, 74, 0
12, 3540, Note_on_c, 4, 72, 72
12, 3584, Note_on_c, 4, 72, 0
12, 3585, Note_on_c, 4, 70, 72
12, 3599, Note_on_c, 4, 70, 0
12, 3600, Note_on_c, 4, 69, 72
12, 3659, Note_on_c, 4, 69, 0
12, 3660, Note_on_c, 4, 84, 72
12, 3719, Note_on_c, 4, 84, 0
12, 3765, Note_on_c, 4, 69, 72
12, 3779, Note_on_c, 4, 69, 0
12, 3780, Note_on_c, 4, 70, 72
12, 3824, Note_on_c, 4, 70, 0
12, 3825, Note_on_c, 4, 72, 72
12, 3839, Note_on_c, 4, 72, 0
12, 3840, Note_on_c, 4, 74, 72
12, 3884, Note_on_c, 4, 74, 0
12, 3885, Note_on_c, 4, 75, 72
12, 3899, Note_on_c, 4, 75, 0
12, 3900, Note_on_c, 4, 77, 72
12, 3944, Note_on_c, 4, 77, 0
12, 3945, Note_on_c, 4, 75, 72
12, 3959, Note_on_c, 4, 75, 0
12, 3960, Note_on_c, 4, 74, 72
12, 4004, Note_on_c, 4, 74, 0
12, 4005, Note_on_c, 4, 72, 72
12, 4019, Note_on_c, 4, 72, 0
12, 4020, Note_on_c, 4, 70, 72
12, 4064, Note_on_c, 4, 70, 0
12, 4065, Note_on_c, 4, 69, 72
12, 4079, Note_on_c, 4, 69, 0
12, 4080, Note_on_c, 4, 67, 72
12, 4139, Note_on_c, 4, 67, 0
12, 4140, Note_on_c, 4, 82, 72
12, 4199, Note_on_c, 4, 82, 0
12, 4245, Note_on_c, 4, 67, 72
12, 4259, Note_on_c, 4, 67, 0
12, 4260, Note_on_c, 4, 69, 72
12, 4304, Note_on_c, 4, 69, 0
12, 4305, Note_on_c, 4, 70, 72
12, 4319, Note_on_c, 4, 70, 0
12, 4320, Note_on_c, 4, 72, 72
12, 4364, Note_on_c, 4, 72, 0
12, 4365, Note_on_c, 4, 74, 72
12, 4379, Note_on_c, 4, 74, 0
12, 4380, Note_on_c, 4, 75, 72
12, 4424, Note_on_c, 4, 75, 0
12, 4425, Note_on_c, 4, 77, 72
12, 4439, Note_on_c, 4, 77, 0
12, 4440, Note_on_c, 4, 79, 72
12, 4484, Note_on_c, 4, 79, 0
12, 4485, Note_on_c, 4, 72, 72
12, 4499, Note_on_c, 4, 72, 0
12, 4500, Note_on_c, 4, 74, 72
12, 4544, Note_on_c, 4, 74, 0
12, 4545, Note_on_c, 4, 75, 72
12, 4559, Note_on_c, 4, 75, 0
12, 4560, Note_on_c, 4, 66, 72
12, 4619, Note_on_c, 4, 66, 0
12, 4620, Note_on_c, 4, 81, 72
12, 4679, Note_on_c, 4, 81, 0
12, 4725, Note_on_c, 4, 65, 72
12, 4739, Note_on_c, 4, 65, 0
12, 4740, Note_on_c, 4, 67, 72
12, 4784, Note_on_c, 4, 67, 0
12, 4785, Note_on_c, 4, 69, 72
12, 4799, Note_on_c, 4, 69, 0
12, 4800, Note_on_c, 4, 62, 72
12, 4919, Note_on_c, 4, 62, 0
12, 5205, Note_on_c, 4, 72, 72
12, 5219, Note_on_c, 4, 72, 0
12, 5220, Note_on_c, 4, 84, 72
12, 5264, Note_on_c, 4, 84, 0
12, 5265, Note_on_c, 4, 82, 72
12, 5279, Note_on_c, 4, 82, 0
12, 5280, Note_on_c, 4, 81, 72
12, 5324, Note_on_c, 4, 81, 0
12, 5325, Note_on_c, 4, 69, 72
12, 5339, Note_on_c, 4, 69, 0
12, 5340, Note_on_c, 4, 81, 72
12, 5384, Note_on_c, 4, 81, 0
12, 5385, Note_on_c, 4, 79, 72
12, 5399, Note_on_c, 4, 79, 0
12, 5400, Note_on_c, 4, 77, 72
12, 5444, Note_on_c, 4, 77, 0
12, 5445, Note_on_c, 4, 65, 72
12, 5459, Note_on_c, 4, 65, 0
12, 5460, Note_on_c, 4, 77, 72
12, 5504, Note_on_c, 4, 77, 0
12, 5505, Note_on_c, 4, 76, 72
12, 5519, Note_on_c, 4, 76, 0
12, 5520, Note_on_c, 4, 74, 72
12, 5579, Note_on_c, 4, 74, 0
12, 5580, Note_on_c, 4, 62, 72
12, 5639, Note_on_c, 4, 62, 0
12, 5685, Note_on_c, 4, 77, 72
12, 5699, Note_on_c, 4, 77, 0
12, 5700, Note_on_c, 4, 79, 72
12, 5744, Note_on_c, 4, 79, 0
12, 5745, Note_on_c, 4, 81, 72
12, 5759, Note_on_c, 4, 81, 0
12, 5760, Note_on_c, 4, 82, 72
12, 5804, Note_on_c, 4, 82, 0
12, 5805, Note_on_c, 4, 84, 72
12, 5819, Note_on_c, 4, 84, 0
12, 5820, Note_on_c, 4, 86, 72
12, 5864, Note_on_c, 4, 86, 0
12, 5865, Note_on_c, 4, 84, 72
12, 5879, Note_on_c, 4, 84, 0
12, 5880, Note_on_c, 4, 82, 72
12, 5924, Note_on_c, 4, 82, 0
12, 5925, Note_on_c, 4, 81, 72
12, 5939, Note_on_c, 4, 81, 0
12, 5940, Note_on_c, 4, 79, 72
12, 5984, Note_on_c, 4, 79, 0
12, 5985, Note_on_c, 4, 77, 72
12, 5999, Note_on_c, 4, 77, 0
12, 6000, Note_on_c, 4, 76, 72
12, 6059, Note_on_c, 4, 76, 0
12, 6060, Note_on_c, 4, 60, 72
12, 6119, Note_on_c, 4, 60, 0
12, 6165, Note_on_c, 4, 76, 72
12, 6179, Note_on_c, 4, 76, 0
12, 6180, Note_on_c, 4, 77, 72
12, 6224, Note_on_c, 4, 77, 0
12, 6225, Note_on_c, 4, 79, 72
12, 6239, Note_on_c, 4, 79, 0
12, 6240, Note_on_c, 4, 81, 72
12, 6284, Note_on_c, 4, 81, 0
12, 6285, Note_on_c, 4, 82, 72
12, 6299, Note_on_c, 4, 82, 0
12, 6300, Note_on_c, 4, 84, 72
12, 6344, Note_on_c, 4, 84, 0
12, 6345, Note_on_c, 4, 82, 72
12, 6359, Note_on_c, 4, 82, 0
12, 6360, Note_on_c, 4, 81, 72
12, 6404, Note_on_c, 4, 81, 0
12, 6405, Note_on_c, 4, 79, 72
12, 6419, Note_on_c, 4, 79, 0
12, 6420, Note_on_c, 4, 77, 72
12, 6464, Note_on_c, 4, 77, 0
12, 6465, Note_on_c, 4, 76, 72
12, 6479, Note_on_c, 4, 76, 0
12, 6480, Note_on_c, 4, 74, 72
12, 6539, Note_on_c, 4, 74, 0
12, 6540, Note_on_c, 4, 58, 72
12, 6599, Note_on_c, 4, 58, 0
12, 6645, Note_on_c, 4, 74, 72
12, 6659, Note_on_c, 4, 74, 0
12, 6660, Note_on_c, 4, 75, 72
12, 6704, Note_on_c, 4, 75, 0
12, 6705, Note_on_c, 4, 77, 72
12, 6719, Note_on_c, 4, 77, 0
12, 6720, Note_on_c, 4, 79, 72
12, 6764, Note_on_c, 4, 79, 0
12, 6765, Note_on_c, 4, 81, 72
12, 6779, Note_on_c, 4, 81, 0
12, 6780, Note_on_c, 4, 82, 72
12, 6824, Note_on_c, 4, 82, 0
12, 6825, Note_on_c, 4, 81, 72
12, 6839, Note_on_c, 4, 81, 0
12, 6840, Note_on_c, 4, 79, 72
12, 6884, Note_on_c, 4, 79, 0
12, 6885, Note_on_c, 4, 77, 72
12, 6899, Note_on_c, 4, 77, 0
12, 6900, Note_on_c, 4, 76, 72
12, 6944, Note_on_c, 4, 76, 0
12, 6945, Note_on_c, 4, 74, 72
12, 6959, Note_on_c, 4, 74, 0
12, 6960, Note_on_c, 4, 73, 72
12, 7019, Note_on_c, 4, 73, 0
12, 7020, Note_on_c, 4, 57, 72
12, 7079, Note_on_c, 4, 57, 0
12, 7245, Note_on_c, 4, 69, 72
12, 7259, Note_on_c, 4, 69, 0
12, 7260, Note_on_c, 4, 73, 72
12, 7304, Note_on_c, 4, 73, 0
12, 7305, Note_on_c, 4, 76, 72
12, 7319, Note_on_c, 4, 76, 0
12, 7320, Note_on_c, 4, 81, 72
12, 7439, Note_on_c, 4, 81, 0
12, 7485, Note_on_c, 4, 69, 72
12, 7499, Note_on_c, 4, 69, 0
12, 7500, Note_on_c, 4, 73, 72
12, 7544, Note_on_c, 4, 73, 0
12, 7545, Note_on_c, 4, 76, 72
12, 7559, Note_on_c, 4, 76, 0
12, 7560, Note_on_c, 4, 81, 72
12, 7679, Note_on_c, 4, 81, 0
12, 7725, Note_on_c, 4, 69, 72
12, 7739, Note_on_c, 4, 69, 0
12, 7740, Note_on_c, 4, 73, 72
12, 7784, Note_on_c, 4, 73, 0
12, 7785, Note_on_c, 4, 76, 72
12, 7799, Note_on_c, 4, 76, 0
12, 7800, Note_on_c, 4, 81, 72
12, 7844, Note_on_c, 4, 81, 0
12, 7845, Note_on_c, 4, 69, 48
12, 7859, Note_on_c, 4, 69, 0
12, 7860, Note_on_c, 4, 69, 48
12, 7904, Note_on_c, 4, 69, 0
12, 7905, Note_on_c, 4, 69, 48
12, 7919, Note_on_c, 4, 69, 0
12, 7920, Note_on_c, 4, 69, 48
12, 7964, Note_on_c, 4, 69, 0
12, 7965, Note_on_c, 4, 70, 48
12, 7979, Note_on_c, 4, 70, 0
12, 7980, Note_on_c, 4, 67, 48
12, 8024, Note_on_c, 4, 67, 0
12, 8025, Note_on_c, 4, 69, 48
12, 8039, Note_on_c, 4, 69, 0
12, 8040, Note_on_c, 4, 65, 48
12, 8084, Note_on_c, 4, 65, 0
12, 8085, Note_on_c, 4, 67, 48
12, 8099, Note_on_c, 4, 67, 0
12, 8100, Note_on_c, 4, 64, 48
12, 8144, Note_on_c, 4, 64, 0
12, 8145, Note_on_c, 4, 65, 48
12, 8159, Note_on_c, 4, 65, 0
12, 8160, Note_on_c, 4, 62, 48
12, 8279, Note_on_c, 4, 62, 0
12, 8325, Note_on_c, 4, 69, 48
12, 8339, Note_on_c, 4, 69, 0
12, 8340, Note_on_c, 4, 81, 48
12, 8384, Note_on_c, 4, 81, 0
12, 8385, Note_on_c, 4, 79, 48
12, 8399, Note_on_c, 4, 79, 0
12, 8400, Note_on_c, 4, 77, 48
12, 8444, Note_on_c, 4, 77, 0
12, 8445, Note_on_c, 4, 79, 48
12, 8459, Note_on_c, 4, 79, 0
12, 8460, Note_on_c, 4, 76, 48
12, 8504, Note_on_c, 4, 76, 0
12, 8505, Note_on_c, 4, 77, 48
12, 8519, Note_on_c, 4, 77, 0
12, 8520, Note_on_c, 4, 74, 48
12, 8564, Note_on_c, 4, 74, 0
12, 8565, Note_on_c, 4, 75, 48
12, 8579, Note_on_c, 4, 75, 0
12, 8580, Note_on_c, 4, 72, 48
12, 8624, Note_on_c, 4, 72, 0
12, 8625, Note_on_c, 4, 74, 48
12, 8639, Note_on_c, 4, 74, 0
12, 8640, Note_on_c, 4, 70, 48
12, 8759, Note_on_c, 4, 70, 0
12, 8805, Note_on_c, 4, 65, 48
12, 8819, Note_on_c, 4, 65, 0
12, 8820, Note_on_c, 4, 77, 48
12, 8864, Note_on_c, 4, 77, 0
12, 8865, Note_on_c, 4, 75, 48
12, 8879, Note_on_c, 4, 75, 0
12, 8880, Note_on_c, 4, 74, 48
12, 8924, Note_on_c, 4, 74, 0
12, 8925, Note_on_c, 4, 75, 48
12, 8939, Note_on_c, 4, 75, 0
12, 8940, Note_on_c, 4, 72, 48
12, 8984, Note_on_c, 4, 72, 0
12, 8985, Note_on_c, 4, 74, 48
12, 8999, Note_on_c, 4, 74, 0
12, 9000, Note_on_c, 4, 70, 48
12, 9044, Note_on_c, 4, 70, 0
12, 9045, Note_on_c, 4, 72, 48
12, 9059, Note_on_c, 4, 72, 0
12, 9060, Note_on_c, 4, 69, 48
12, 9104, Note_on_c, 4, 69, 0
12, 9105, Note_on_c, 4, 70, 48
12, 9119, Note_on_c, 4, 70, 0
12, 9120, Note_on_c, 4, 67, 48
12, 9179, Note_on_c, 4, 67, 0
12, 9240, Note_on_c, 4, 79, 48
12, 9419, Note_on_c, 4, 79, 0
12, 9420, Note_on_c, 4, 77, 48
12, 9479, Note_on_c, 4, 77, 0
12, 9480, Note_on_c, 4, 75, 48
12, 9539, Note_on_c, 4, 75, 0
12, 9540, Note_on_c, 4, 74, 48
12, 9599, Note_on_c, 4, 74, 0
12, 9600, Note_on_c, 4, 73, 48
12, 9659, Note_on_c, 4, 73, 0
12, 9660, Note_on_c, 4, 73, 48
12, 9719, Note_on_c, 4, 73, 0
12, 9720, Note_on_c, 4, 74, 48
12, 9779, Note_on_c, 4, 74, 0
12, 9780, Note_on_c, 4, 74, 48
12, 9839, Note_on_c, 4, 74, 0
12, 9840, Note_on_c, 4, 74, 48
12, 9899, Note_on_c, 4, 74, 0
12, 9900, Note_on_c, 4, 74, 48
12, 9959, Note_on_c, 4, 74, 0
12, 9960, Note_on_c, 4, 73, 48
12, 10019, Note_on_c, 4, 73, 0
12, 10020, Note_on_c, 4, 73, 48
12, 10079, Note_on_c, 4, 73, 0
12, 10140, Note_on_c, 4, 74, 48
12, 10199, Note_on_c, 4, 74, 0
12, 10260, Note_on_c, 4, 69, 48
12, 10319, Note_on_c, 4, 69, 0
12, 10320, Note_on_c, 4, 65, 48
12, 10439, Note_on_c, 4, 65, 0
12, 10439, End_track
13, 0, Start_track
13, 0, Title_t, "Violin II"
13, 0, MIDI_port, 0
13, 0, Program_c, 5, 48
13, 0, Control_c, 5, 7, 96
13, 0, Control_c, 5, 10, 24
13, 0, Control_c, 5, 11, 127
13, 0, Note_on_c, 5, 79, 72
13, 0, Note_on_c, 5, 70, 72
13, 0, Note_on_c, 5, 62, 72
13, 59, Note_on_c, 5, 79, 0
13, 59, Note_on_c, 5, 70, 0
13, 59, Note_on_c, 5, 62, 0
13, 60, Note_on_c, 5, 67, 72
13, 119, Note_on_c, 5, 67, 0
13, 165, Note_on_c, 5, 79, 72
13, 179, Note_on_c, 5, 79, 0
13, 180, Note_on_c, 5, 77, 72
13, 224, Note_on_c, 5, 77, 0
13, 225, Note_on_c, 5, 75, 72
13, 239, Note_on_c, 5, 75, 0
13, 240, Note_on_c, 5, 74, 72
13, 284, Note_on_c, 5, 74, 0
13, 285, Note_on_c, 5, 72, 72
13, 299, Note_on_c, 5, 72, 0
13, 300, Note_on_c, 5, 70, 72
13, 344, Note_on_c, 5, 70, 0
13, 345, Note_on_c, 5, 69, 72
13, 359, Note_on_c, 5, 69, 0
13, 360, Note_on_c, 5, 67, 72
13, 404, Note_on_c, 5, 67, 0
13, 405, Note_on_c, 5, 65, 72
13, 419, Note_on_c, 5, 65, 0
13, 420, Note_on_c, 5, 63, 72
13, 464, Note_on_c, 5, 63, 0
13, 465, Note_on_c, 5, 62, 72
13, 479, Note_on_c, 5, 62, 0
13, 480, Note_on_c, 5, 60, 72
13, 539, Note_on_c, 5, 60, 0
13, 540, Note_on_c, 5, 75, 72
13, 540, Note_on_c, 5, 84, 72
13, 599, Note_on_c, 5, 75, 0
13, 599, Note_on_c, 5, 84, 0
13, 660, Note_on_c, 5, 63, 72
13, 660, Note_on_c, 5, 81, 72
13, 660, Note_on_c, 5, 72, 72
13, 719, Note_on_c, 5, 63, 0
13, 719, Note_on_c, 5, 81, 0
13, 719, Note_on_c, 5, 72, 0
13, 780, Note_on_c, 5, 62, 72
13, 780, Note_on_c, 5, 70, 72
13, 780, Note_on_c, 5, 79, 72
13, 839, Note_on_c, 5, 62, 0
13, 839, Note_on_c, 5, 70, 0
13, 839, Note_on_c, 5, 79, 0
13, 900, Note_on_c, 5, 62, 72
13, 900, Note_on_c, 5, 69, 72
13, 900, Note_on_c, 5, 78, 72
13, 959, Note_on_c, 5, 62, 0
13, 959, Note_on_c, 5, 69, 0
13, 959, Note_on_c, 5, 78, 0
13, 960, Note_on_c, 5, 79, 72
13, 960, Note_on_c, 5, 62, 72
13, 960, Note_on_c, 5, 70, 72
13, 1019, Note_on_c, 5, 79, 0
13, 1019, Note_on_c, 5, 62, 0
13, 1019, Note_on_c, 5, 70, 0
13, 1020, Note_on_c, 5, 67, 72
13, 1079, Note_on_c, 5, 67, 0
13, 1125, Note_on_c, 5, 79, 72
13, 1139, Note_on_c, 5, 79, 0
13, 1140, Note_on_c, 5, 77, 72
13, 1184, Note_on_c, 5, 77, 0
13, 1185, Note_on_c, 5, 75, 72
13, 1199, Note_on_c, 5, 75, 0
13, 1200, Note_on_c, 5, 74, 72
13, 1244, Note_on_c, 5, 74, 0
13, 1245, Note_on_c, 5, 72, 72
13, 1259, Note_on_c, 5, 72, 0
13, 1260, Note_on_c, 5, 70, 72
13, 1304, Note_on_c, 5, 70, 0
13, 1305, Note_on_c, 5, 69, 72
13, 1319, Note_on_c, 5, 69, 0
13, 1320, Note_on_c, 5, 67, 72
13, 1364, Note_on_c, 5, 67, 0
13, 1365, Note_on_c, 5, 70, 72
13, 1379, Note_on_c, 5, 70, 0
13, 1380, Note_on_c, 5, 65, 72
13, 1424, Note_on_c, 5, 65, 0
13, 1425, Note_on_c, 5, 70, 72
13, 1439, Note_on_c, 5, 70, 0
13, 1440, Note_on_c, 5, 63, 72
13, 1499, Note_on_c, 5, 63, 0
13, 1500, Note_on_c, 5, 75, 72
13, 1559, Note_on_c, 5, 75, 0
13, 1605, Note_on_c, 5, 75, 72
13, 1619, Note_on_c, 5, 75, 0
13, 1620, Note_on_c, 5, 74, 72
13, 1664, Note_on_c, 5, 74, 0
13, 1665, Note_on_c, 5, 72, 72
13, 1679, Note_on_c, 5, 72, 0
13, 1680, Note_on_c, 5, 70, 72
13, 1724, Note_on_c, 5, 70, 0
13, 1725, Note_on_c, 5, 68, 72
13, 1739, Note_on_c, 5, 68, 0
13, 1740, Note_on_c, 5, 67, 72
13, 1784, Note_on_c, 5, 67, 0
13, 1785, Note_on_c, 5, 65, 72
13, 1799, Note_on_c, 5, 65, 0
13, 1800, Note_on_c, 5, 63, 72
13, 1844, Note_on_c, 5, 63, 0
13, 1845, Note_on_c, 5, 67, 72
13, 1859, Note_on_c, 5, 67, 0
13, 1860, Note_on_c, 5, 62, 72
13, 1904, Note_on_c, 5, 62, 0
13, 1905, Note_on_c, 5, 67, 72
13, 1919, Note_on_c, 5, 67, 0
13, 1920, Note_on_c, 5, 60, 72
13, 1979, Note_on_c, 5, 60, 0
13, 1980, Note_on_c, 5, 72, 72
13, 2039, Note_on_c, 5, 72, 0
13, 2085, Note_on_c, 5, 75, 72
13, 2099, Note_on_c, 5, 75, 0
13, 2100, Note_on_c, 5, 75, 72
13, 2144, Note_on_c, 5, 75, 0
13, 2145, Note_on_c, 5, 74, 72
13, 2159, Note_on_c, 5, 74, 0
13, 2160, Note_on_c, 5, 72, 72
13, 2204, Note_on_c, 5, 72, 0
13, 2205, Note_on_c, 5, 60, 72
13, 2219, Note_on_c, 5, 60, 0
13, 2220, Note_on_c, 5, 72, 72
13, 2264, Note_on_c, 5, 72, 0
13, 2265, Note_on_c, 5, 70, 72
13, 2279, Note_on_c, 5, 70, 0
13, 2280, Note_on_c, 5, 69, 72
13, 2324, Note_on_c, 5, 69, 0
13, 2325, Note_on_c, 5, 57, 72
13, 2339, Note_on_c, 5, 57, 0
13, 2340, Note_on_c, 5, 69, 72
13, 2384, Note_on_c, 5, 69, 0
13, 2385, Note_on_c, 5, 67, 72
13, 2399, Note_on_c, 5, 67, 0
13, 2400, Note_on_c, 5, 66, 72
13, 2519, Note_on_c, 5, 66, 0
13, 2925, Note_on_c, 5, 70, 72
13, 2939, Note_on_c, 5, 70, 0
13, 2940, Note_on_c, 5, 78, 72
13, 2984, Note_on_c, 5, 78, 0
13, 2985, Note_on_c, 5, 75, 72
13, 2999, Note_on_c, 5, 75, 0
13, 3000, Note_on_c, 5, 74, 72
13, 3044, Note_on_c, 5, 74, 0
13, 3045, Note_on_c, 5, 72, 72
13, 3059, Note_on_c, 5, 72, 0
13, 3060, Note_on_c, 5, 70, 72
13, 3104, Note_on_c, 5, 70, 0
13, 3105, Note_on_c, 5, 69, 72
13, 3119, Note_on_c, 5, 69, 0
13, 3120, Note_on_c, 5, 67, 72
13, 3179, Note_on_c, 5, 67, 0
13, 3180, Note_on_c, 5, 82, 72
13, 3239, Note_on_c, 5, 82, 0
13, 3285, Note_on_c, 5, 67, 72
13, 3299, Note_on_c, 5, 67, 0
13, 3300, Note_on_c, 5, 69, 72
13, 3344, Note_on_c, 5, 69, 0
13, 3345, Note_on_c, 5, 70, 72
13, 3359, Note_on_c, 5, 70, 0
13, 3360, Note_on_c, 5, 72, 72
13, 3404, Note_on_c, 5, 72, 0
13, 3405, Note_on_c, 5, 74, 72
13, 3419, Note_on_c, 5, 74, 0
13, 3420, Note_on_c, 5, 75, 72
13, 3464, Note_on_c, 5, 75, 0
13, 3465, Note_on_c, 5, 74, 72
13, 3479, Note_on_c, 5, 74, 0
13, 3480, Note_on_c, 5, 72, 72
13, 3524, Note_on_c, 5, 72, 0
13, 3525, Note_on_c, 5, 70, 72
13, 3539, Note_on_c, 5, 70, 0
13, 3540, Note_on_c, 5, 69, 72
13, 3584, Note_on_c, 5, 69, 0
13, 3585, Note_on_c, 5, 67, 72
13, 3599, Note_on_c, 5, 67, 0
13, 3600, Note_on_c, 5, 65, 72
13, 3659, Note_on_c, 5, 65, 0
13, 3660, Note_on_c, 5, 81, 72
13, 3719, Note_on_c, 5, 81, 0
13, 3765, Note_on_c, 5, 65, 72
13, 3779, Note_on_c, 5, 65, 0
13, 3780, Note_on_c, 5, 67, 72
13, 3824, Note_on_c, 5, 67, 0
13, 3825, Note_on_c, 5, 69, 72
13, 3839, Note_on_c, 5, 69, 0
13, 3840, Note_on_c, 5, 70, 72
13, 3884, Note_on_c, 5, 70, 0
13, 3885, Note_on_c, 5, 72, 72
13, 3899, Note_on_c, 5, 72, 0
13, 3900, Note_on_c, 5, 74, 72
13, 3944, Note_on_c, 5, 74, 0
13, 3945, Note_on_c, 5, 72, 72
13, 3959, Note_on_c, 5, 72, 0
13, 3960, Note_on_c, 5, 70, 72
13, 4004, Note_on_c, 5, 70, 0
13, 4005, Note_on_c, 5, 69, 72
13, 4019, Note_on_c, 5, 69, 0
13, 4020, Note_on_c, 5, 67, 72
13, 4064, Note_on_c, 5, 67, 0
13, 4065, Note_on_c, 5, 65, 72
13, 4079, Note_on_c, 5, 65, 0
13, 4080, Note_on_c, 5, 63, 72
13, 4139, Note_on_c, 5, 63, 0
13, 4140, Note_on_c, 5, 79, 72
13, 4199, Note_on_c, 5, 79, 0
13, 4245, Note_on_c, 5, 63, 72
13, 4259, Note_on_c, 5, 63, 0
13, 4260, Note_on_c, 5, 65, 72
13, 4304, Note_on_c, 5, 65, 0
13, 4305, Note_on_c, 5, 67, 72
13, 4319, Note_on_c, 5, 67, 0
13, 4320, Note_on_c, 5, 69, 72
13, 4364, Note_on_c, 5, 69, 0
13, 4365, Note_on_c, 5, 70, 72
13, 4379, Note_on_c, 5, 70, 0
13, 4380, Note_on_c, 5, 72, 72
13, 4424, Note_on_c, 5, 72, 0
13, 4425, Note_on_c, 5, 74, 72
13, 4439, Note_on_c, 5, 74, 0
13, 4440, Note_on_c, 5, 75, 72
13, 4484, Note_on_c, 5, 75, 0
13, 4485, Note_on_c, 5, 72, 72
13, 4499, Note_on_c, 5, 72, 0
13, 4500, Note_on_c, 5, 69, 72
13, 4544, Note_on_c, 5, 69, 0
13, 4545, Note_on_c, 5, 67, 72
13, 4559, Note_on_c, 5, 67, 0
13, 4560, Note_on_c, 5, 66, 72
13, 4604, Note_on_c, 5, 66, 0
13, 4605, Note_on_c, 5, 67, 72
13, 4619, Note_on_c, 5, 67, 0
13, 4620, Note_on_c, 5, 69, 72
13, 4664, Note_on_c, 5, 69, 0
13, 4665, Note_on_c, 5, 70, 72
13, 4679, Note_on_c, 5, 70, 0
13, 4680, Note_on_c, 5, 72, 72
13, 4724, Note_on_c, 5, 72, 0
13, 4725, Note_on_c, 5, 69, 72
13, 4739, Note_on_c, 5, 69, 0
13, 4740, Note_on_c, 5, 74, 72
13, 4784, Note_on_c, 5, 74, 0
13, 4785, Note_on_c, 5, 72, 72
13, 4799, Note_on_c, 5, 72, 0
13, 4800, Note_on_c, 5, 70, 72
13, 4919, Note_on_c, 5, 70, 0
13, 5325, Note_on_c, 5, 60, 72
13, 5339, Note_on_c, 5, 60, 0
13, 5340, Note_on_c, 5, 72, 72
13, 5384, Note_on_c, 5, 72, 0
13, 5385, Note_on_c, 5, 70, 72
13, 5399, Note_on_c, 5, 70, 0
13, 5400, Note_on_c, 5, 69, 72
13, 5444, Note_on_c, 5, 69, 0
13, 5445, Note_on_c, 5, 57, 72
13, 5459, Note_on_c, 5, 57, 0
13, 5460, Note_on_c, 5, 69, 72
13, 5504, Note_on_c, 5, 69, 0
13, 5505, Note_on_c, 5, 67, 72
13, 5519, Note_on_c, 5, 67, 0
13, 5520, Note_on_c, 5, 65, 72
13, 5579, Note_on_c, 5, 65, 0
13, 5580, Note_on_c, 5, 65, 72
13, 5639, Note_on_c, 5, 65, 0
13, 5685, Note_on_c, 5, 74, 72
13, 5699, Note_on_c, 5, 74, 0
13, 5700, Note_on_c, 5, 76, 72
13, 5744, Note_on_c, 5, 76, 0
13, 5745, Note_on_c, 5, 77, 72
13, 5759, Note_on_c, 5, 77, 0
13, 5760, Note_on_c, 5, 79, 72
13, 5804, Note_on_c, 5, 79, 0
13, 5805, Note_on_c, 5, 81, 72
13, 5819, Note_on_c, 5, 81, 0
13, 5820, Note_on_c, 5, 82, 72
13, 5864, Note_on_c, 5, 82, 0
13, 5865, Note_on_c, 5, 81, 72
13, 5879, Note_on_c, 5, 81, 0
13, 5880, Note_on_c, 5, 79, 72
13, 5924, Note_on_c, 5, 79, 0
13, 5925, Note_on_c, 5, 77, 72
13, 5939, Note_on_c, 5, 77, 0
13, 5940, Note_on_c, 5, 76, 72
13, 5984, Note_on_c, 5, 76, 0
13, 5985, Note_on_c, 5, 74, 72
13, 5999, Note_on_c, 5, 74, 0
13, 6000, Note_on_c, 5, 72, 72
13, 6059, Note_on_c, 5, 72, 0
13, 6060, Note_on_c, 5, 60, 72
13, 6119, Note_on_c, 5, 60, 0
13, 6165, Note_on_c, 5, 72, 72
13, 6179, Note_on_c, 5, 72, 0
13, 6180, Note_on_c, 5, 74, 72
13, 6224, Note_on_c, 5, 74, 0
13, 6225, Note_on_c, 5, 76, 72
13, 6239, Note_on_c, 5, 76, 0
13, 6240, Note_on_c, 5, 77, 72
13, 6284, Note_on_c, 5, 77, 0
13, 6285, Note_on_c, 5, 79, 72
13, 6299, Note_on_c, 5, 79, 0
13, 6300, Note_on_c, 5, 81, 72
13, 6344, Note_on_c, 5, 81, 0
13, 6345, Note_on_c, 5, 79, 72
13, 6359, Note_on_c, 5, 79, 0
13, 6360, Note_on_c, 5, 77, 72
13, 6404, Note_on_c, 5, 77, 0
13, 6405, Note_on_c, 5, 76, 72
13, 6419, Note_on_c, 5, 76, 0
13, 6420, Note_on_c, 5, 74, 72
13, 6464, Note_on_c, 5, 74, 0
13, 6465, Note_on_c, 5, 72, 72
13, 6479, Note_on_c, 5, 72, 0
13, 6480, Note_on_c, 5, 70, 72
13, 6539, Note_on_c, 5, 70, 0
13, 6540, Note_on_c, 5, 58, 72
13, 6599, Note_on_c, 5, 58, 0
13, 6645, Note_on_c, 5, 62, 72
13, 6659, Note_on_c, 5, 62, 0
13, 6660, Note_on_c, 5, 64, 72
13, 6704, Note_on_c, 5, 64, 0
13, 6705, Note_on_c, 5, 65, 72
13, 6719, Note_on_c, 5, 65, 0
13, 6720, Note_on_c, 5, 67, 72
13, 6764, Note_on_c, 5, 67, 0
13, 6765, Note_on_c, 5, 69, 72
13, 6779, Note_on_c, 5, 69, 0
13, 6780, Note_on_c, 5, 70, 72
13, 6824, Note_on_c, 5, 70, 0
13, 6825, Note_on_c, 5, 69, 72
13, 6839, Note_on_c, 5, 69, 0
13, 6840, Note_on_c, 5, 67, 72
13, 6884, Note_on_c, 5, 67, 0
13, 6885, Note_on_c, 5, 65, 72
13, 6899, Note_on_c, 5, 65, 0
13, 6900, Note_on_c, 5, 64, 72
13, 6944, Note_on_c, 5, 64, 0
13, 6945, Note_on_c, 5, 62, 72
13, 6959, Note_on_c, 5, 62, 0
13, 6960, Note_on_c, 5, 69, 72
13, 7019, Note_on_c, 5, 69, 0
13, 7020, Note_on_c, 5, 57, 72
13, 7079, Note_on_c, 5, 57, 0
13, 7245, Note_on_c, 5, 69, 72
13, 7259, Note_on_c, 5, 69, 0
13, 7260, Note_on_c, 5, 64, 72
13, 7304, Note_on_c, 5, 64, 0
13, 7305, Note_on_c, 5, 61, 72
13, 7319, Note_on_c, 5, 61, 0
13, 7320, Note_on_c, 5, 57, 72
13, 7439, Note_on_c, 5, 57, 0
13, 7485, Note_on_c, 5, 69, 72
13, 7499, Note_on_c, 5, 69, 0
13, 7500, Note_on_c, 5, 64, 72
13, 7544, Note_on_c, 5, 64, 0
13, 7545, Note_on_c, 5, 61, 72
13, 7559, Note_on_c, 5, 61, 0
13, 7560, Note_on_c, 5, 57, 72
13, 7679, Note_on_c, 5, 57, 0
13, 7725, Note_on_c, 5, 69, 72
13, 7739, Note_on_c, 5, 69, 0
13, 7740, Note_on_c, 5, 73, 72
13, 7784, Note_on_c, 5, 73, 0
13, 7785, Note_on_c, 5, 76, 72
13, 7799, Note_on_c, 5, 76, 0
13, 7800, Note_on_c, 5, 81, 72
13, 7844, Note_on_c, 5, 81, 0
13, 7845, Note_on_c, 5, 69, 48
13, 7859, Note_on_c, 5, 69, 0
13, 7860, Note_on_c, 5, 69, 48
13, 7904, Note_on_c, 5, 69, 0
13, 7905, Note_on_c, 5, 69, 48
13, 7919, Note_on_c, 5, 69, 0
13, 7920, Note_on_c, 5, 69, 48
13, 7964, Note_on_c, 5, 69, 0
13, 7965, Note_on_c, 5, 70, 48
13, 7979, Note_on_c, 5, 70, 0
13, 7980, Note_on_c, 5, 67, 48
13, 8024, Note_on_c, 5, 67, 0
13, 8025, Note_on_c, 5, 69, 48
13, 8039, Note_on_c, 5, 69, 0
13, 8040, Note_on_c, 5, 65, 48
13, 8084, Note_on_c, 5, 65, 0
13, 8085, Note_on_c, 5, 67, 48
13, 8099, Note_on_c, 5, 67, 0
13, 8100, Note_on_c, 5, 64, 48
13, 8144, Note_on_c, 5, 64, 0
13, 8145, Note_on_c, 5, 65, 48
13, 8159, Note_on_c, 5, 65, 0
13, 8160, Note_on_c, 5, 62, 48
13, 8279, Note_on_c, 5, 62, 0
13, 8340, Note_on_c, 5, 64, 48
13, 8399, Note_on_c, 5, 64, 0
13, 8400, Note_on_c, 5, 65, 48
13, 8459, Note_on_c, 5, 65, 0
13, 8460, Note_on_c, 5, 70, 48
13, 8519, Note_on_c, 5, 70, 0
13, 8520, Note_on_c, 5, 69, 48
13, 8579, Note_on_c, 5, 69, 0
13, 8580, Note_on_c, 5, 65, 48
13, 8639, Note_on_c, 5, 65, 0
13, 8640, Note_on_c, 5, 65, 48
13, 8759, Note_on_c, 5, 65, 0
13, 8820, Note_on_c, 5, 60, 48
13, 8879, Note_on_c, 5, 60, 0
13, 8880, Note_on_c, 5, 62, 48
13, 8939, Note_on_c, 5, 62, 0
13, 8940, Note_on_c, 5, 69, 48
13, 8999, Note_on_c, 5, 69, 0
13, 9000, Note_on_c, 5, 67, 48
13, 9059, Note_on_c, 5, 67, 0
13, 9060, Note_on_c, 5, 66, 48
13, 9119, Note_on_c, 5, 66, 0
13, 9120, Note_on_c, 5, 67, 48
13, 9179, Note_on_c, 5, 67, 0
13, 9240, Note_on_c, 5, 70, 48
13, 9419, Note_on_c, 5, 70, 0
13, 9420, Note_on_c, 5, 70, 48
13, 9479, Note_on_c, 5, 70, 0
13, 9480, Note_on_c, 5, 70, 48
13, 9539, Note_on_c, 5, 70, 0
13, 9540, Note_on_c, 5, 70, 48
13, 9599, Note_on_c, 5, 70, 0
13, 9600, Note_on_c, 5, 70, 48
13, 9659, Note_on_c, 5, 70, 0
13, 9660, Note_on_c, 5, 70, 48
13, 9719, Note_on_c, 5, 70, 0
13, 9720, Note_on_c, 5, 69, 48
13, 9779, Note_on_c, 5, 69, 0
13, 9780, Note_on_c, 5, 69, 48
13, 9839, Note_on_c, 5, 69, 0
13, 9840, Note_on_c, 5, 69, 48
13, 9899, Note_on_c, 5, 69, 0
13, 9900, Note_on_c, 5, 69, 48
13, 9959, Note_on_c, 5, 69, 0
13, 9960, Note_on_c, 5, 67, 48
13, 10019, Note_on_c, 5, 67, 0
13, 10020, Note_on_c, 5, 67, 48
13, 10079, Note_on_c, 5, 67, 0
13, 10140, Note_on_c, 5, 65, 48
13, 10199, Note_on_c, 5, 65, 0
13, 10260, Note_on_c, 5, 65, 48
13, 10319, Note_on_c, 5, 65, 0
13, 10320, Note_on_c, 5, 62, 48
13, 10439, Note_on_c, 5, 62, 0
13, 10439, End_track
14, 0, Start_track
14, 0, Title_t, "Viola"
14, 0, MIDI_port, 0
14, 0, Program_c, 6, 48
14, 0, Control_c, 6, 7, 96
14, 0, Control_c, 6, 10, 80
14, 0, Control_c, 6, 11, 127
14, 0, Note_on_c, 6, 67, 72
14, 59, Note_on_c, 6, 67, 0
14, 60, Note_on_c, 6, 55, 72
14, 119, Note_on_c, 6, 55, 0
14, 165, Note_on_c, 6, 67, 72
14, 179, Note_on_c, 6, 67, 0
14, 180, Note_on_c, 6, 65, 72
14, 224, Note_on_c, 6, 65, 0
14, 225, Note_on_c, 6, 63, 72
14, 239, Note_on_c, 6, 63, 0
14, 240, Note_on_c, 6, 62, 72
14, 284, Note_on_c, 6, 62, 0
14, 285, Note_on_c, 6, 60, 72
14, 299, Note_on_c, 6, 60, 0
14, 300, Note_on_c, 6, 58, 72
14, 344, Note_on_c, 6, 58, 0
14, 345, Note_on_c, 6, 57, 72
14, 359, Note_on_c, 6, 57, 0
14, 360, Note_on_c, 6, 55, 72
14, 404, Note_on_c, 6, 55, 0
14, 405, Note_on_c, 6, 53, 72
14, 419, Note_on_c, 6, 53, 0
14, 420, Note_on_c, 6, 51, 72
14, 464, Note_on_c, 6, 51, 0
14, 465, Note_on_c, 6, 50, 72
14, 479, Note_on_c, 6, 50, 0
14, 480, Note_on_c, 6, 48, 72
14, 539, Note_on_c, 6, 48, 0
14, 540, Note_on_c, 6, 60, 72
14, 599, Note_on_c, 6, 60, 0
14, 660, Note_on_c, 6, 60, 72
14, 719, Note_on_c, 6, 60, 0
14, 780, Note_on_c, 6, 62, 72
14, 839, Note_on_c, 6, 62, 0
14, 900, Note_on_c, 6, 50, 72
14, 959, Note_on_c, 6, 50, 0
14, 960, Note_on_c, 6, 67, 72
14, 1019, Note_on_c, 6, 67, 0
14, 1020, Note_on_c, 6, 55, 72
14, 1079, Note_on_c, 6, 55, 0
14, 1125, Note_on_c, 6, 67, 72
14, 1139, Note_on_c, 6, 67, 0
14, 1140, Note_on_c, 6, 65, 72
14, 1184, Note_on_c, 6, 65, 0
14, 1185, Note_on_c, 6, 63, 72
14, 1199, Note_on_c, 6, 63, 0
14, 1200, Note_on_c, 6, 62, 72
14, 1244, Note_on_c, 6, 62, 0
14, 1245, Note_on_c, 6, 60, 72
14, 1259, Note_on_c, 6, 60, 0
14, 1260, Note_on_c, 6, 58, 72
14, 1304, Note_on_c, 6, 58, 0
14, 1305, Note_on_c, 6, 57, 72
14, 1319, Note_on_c, 6, 57, 0
14, 1320, Note_on_c, 6, 55, 72
14, 1364, Note_on_c, 6, 55, 0
14, 1365, Note_on_c, 6, 58, 72
14, 1379, Note_on_c, 6, 58, 0
14, 1380, Note_on_c, 6, 53, 72
14, 1424, Note_on_c, 6, 53, 0
14, 1425, Note_on_c, 6, 58, 72
14, 1439, Note_on_c, 6, 58, 0
14, 1440, Note_on_c, 6, 51, 72
14, 1499, Note_on_c, 6, 51, 0
14, 1500, Note_on_c, 6, 63, 72
14, 1559, Note_on_c, 6, 63, 0
14, 1605, Note_on_c, 6, 63, 72
14, 1619, Note_on_c, 6, 63, 0
14, 1620, Note_on_c, 6, 62, 72
14, 1664, Note_on_c, 6, 62, 0
14, 1665, Note_on_c, 6, 60, 72
14, 1679, Note_on_c, 6, 60, 0
14, 1680, Note_on_c, 6, 58, 72
14, 1724, Note_on_c, 6, 58, 0
14, 1725, Note_on_c, 6, 56, 72
14, 1739, Note_on_c, 6, 56, 0
14, 1740, Note_on_c, 6, 55, 72
14, 1784, Note_on_c, 6, 55, 0
14, 1785, Note_on_c, 6, 53, 72
14, 1799, Note_on_c, 6, 53, 0
14, 1800, Note_on_c, 6, 51, 72
14, 1844, Note_on_c, 6, 51, 0
14, 1845, Note_on_c, 6, 55, 72
14, 1859, Note_on_c, 6, 55, 0
14, 1860, Note_on_c, 6, 50, 72
14, 1904, Note_on_c, 6, 50, 0
14, 1905, Note_on_c, 6, 55, 72
14, 1919, Note_on_c, 6, 55, 0
14, 1920, Note_on_c, 6, 48, 72
14, 1979, Note_on_c, 6, 48, 0
14, 1980, Note_on_c, 6, 60, 72
14, 2039, Note_on_c, 6, 60, 0
14, 2085, Note_on_c, 6, 48, 72
14, 2099, Note_on_c, 6, 48, 0
14, 2100, Note_on_c, 6, 60, 72
14, 2144, Note_on_c, 6, 60, 0
14, 2145, Note_on_c, 6, 62, 72
14, 2159, Note_on_c, 6, 62, 0
14, 2160, Note_on_c, 6, 63, 72
14, 2204, Note_on_c, 6, 63, 0
14, 2205, Note_on_c, 6, 51, 72
14, 2219, Note_on_c, 6, 51, 0
14, 2220, Note_on_c, 6, 63, 72
14, 2264, Note_on_c, 6, 63, 0
14, 2265, Note_on_c, 6, 62, 72
14, 2279, Note_on_c, 6, 62, 0
14, 2280, Note_on_c, 6, 60, 72
14, 2324, Note_on_c, 6, 60, 0
14, 2325, Note_on_c, 6, 48, 72
14, 2339, Note_on_c, 6, 48, 0
14, 2340, Note_on_c, 6, 60, 72
14, 2384, Note_on_c, 6, 60, 0
14, 2385, Note_on_c, 6, 63, 72
14, 2399, Note_on_c, 6, 63, 0
14, 2400, Note_on_c, 6, 62, 72
14, 2519, Note_on_c, 6, 62, 0
14, 2880, Note_on_c, 6, 66, 72
14, 2880, Note_on_c, 6, 57, 72
14, 2999, Note_on_c, 6, 66, 0
14, 2999, Note_on_c, 6, 57, 0
14, 3045, Note_on_c, 6, 54, 72
14, 3059, Note_on_c, 6, 54, 0
14, 3060, Note_on_c, 6, 55, 72
14, 3104, Note_on_c, 6, 55, 0
14, 3105, Note_on_c, 6, 57, 72
14, 3119, Note_on_c, 6, 57, 0
14, 3120, Note_on_c, 6, 58, 72
14, 3164, Note_on_c, 6, 58, 0
14, 3165, Note_on_c, 6, 60, 72
14, 3179, Note_on_c, 6, 60, 0
14, 3180, Note_on_c, 6, 62, 72
14, 3224, Note_on_c, 6, 62, 0
14, 3225, Note_on_c, 6, 60, 72
14, 3239, Note_on_c, 6, 60, 0
14, 3240, Note_on_c, 6, 58, 72
14, 3284, Note_on_c, 6, 58, 0
14, 3285, Note_on_c, 6, 57, 72
14, 3299, Note_on_c, 6, 57, 0
14, 3300, Note_on_c, 6, 55, 72
14, 3344, Note_on_c, 6, 55, 0
14, 3345, Note_on_c, 6, 53, 72
14, 3359, Note_on_c, 6, 53, 0
14, 3360, Note_on_c, 6, 51, 72
14, 3419, Note_on_c, 6, 51, 0
14, 3420, Note_on_c, 6, 67, 72
14, 3479, Note_on_c, 6, 67, 0
14, 3525, Note_on_c, 6, 51, 72
14, 3539, Note_on_c, 6, 51, 0
14, 3540, Note_on_c, 6, 53, 72
14, 3584, Note_on_c, 6, 53, 0
14, 3585, Note_on_c, 6, 55, 72
14, 3599, Note_on_c, 6, 55, 0
14, 3600, Note_on_c, 6, 57, 72
14, 3644, Note_on_c, 6, 57, 0
14, 3645, Note_on_c, 6, 58, 72
14, 3659, Note_on_c, 6, 58, 0
14, 3660, Note_on_c, 6, 60, 72
14, 3704, Note_on_c, 6, 60, 0
14, 3705, Note_on_c, 6, 58, 72
14, 3719, Note_on_c, 6, 58, 0
14, 3720, Note_on_c, 6, 57, 72
14, 3764, Note_on_c, 6, 57, 0
14, 3765, Note_on_c, 6, 55, 72
14, 3779, Note_on_c, 6, 55, 0
14, 3780, Note_on_c, 6, 53, 72
14, 3824, Note_on_c, 6, 53, 0
14, 3825, Note_on_c, 6, 51, 72
14, 3839, Note_on_c, 6, 51, 0
14, 3840, Note_on_c, 6, 50, 72
14, 3899, Note_on_c, 6, 50, 0
14, 3900, Note_on_c, 6, 65, 72
14, 3959, Note_on_c, 6, 65, 0
14, 4005, Note_on_c, 6, 50, 72
14, 4019, Note_on_c, 6, 50, 0
14, 4020, Note_on_c, 6, 51, 72
14, 4064, Note_on_c, 6, 51, 0
14, 4065, Note_on_c, 6, 53, 72
14, 4079, Note_on_c, 6, 53, 0
14, 4080, Note_on_c, 6, 55, 72
14, 4124, Note_on_c, 6, 55, 0
14, 4125, Note_on_c, 6, 57, 72
14, 4139, Note_on_c, 6, 57, 0
14, 4140, Note_on_c, 6, 58, 72
14, 4184, Note_on_c, 6, 58, 0
14, 4185, Note_on_c, 6, 57, 72
14, 4199, Note_on_c, 6, 57, 0
14, 4200, Note_on_c, 6, 55, 72
14, 4244, Note_on_c, 6, 55, 0
14, 4245, Note_on_c, 6, 53, 72
14, 4259, Note_on_c, 6, 53, 0
14, 4260, Note_on_c, 6, 51, 72
14, 4304, Note_on_c, 6, 51, 0
14, 4305, Note_on_c, 6, 50, 72
14, 4319, Note_on_c, 6, 50, 0
14, 4320, Note_on_c, 6, 48, 72
14, 4379, Note_on_c, 6, 48, 0
14, 4380, Note_on_c, 6, 63, 72
14, 4439, Note_on_c, 6, 63, 0
14, 4485, Note_on_c, 6, 57, 72
14, 4499, Note_on_c, 6, 57, 0
14, 4500, Note_on_c, 6, 58, 72
14, 4544, Note_on_c, 6, 58, 0
14, 4545, Note_on_c, 6, 60, 72
14, 4559, Note_on_c, 6, 60, 0
14, 4560, Note_on_c, 6, 62, 72
14, 4604, Note_on_c, 6, 62, 0
14, 4605, Note_on_c, 6, 64, 72
14, 4619, Note_on_c, 6, 64, 0
14, 4620, Note_on_c, 6, 66, 72
14, 4664, Note_on_c, 6, 66, 0
14, 4665, Note_on_c, 6, 67, 72
14, 4679, Note_on_c, 6, 67, 0
14, 4680, Note_on_c, 6, 69, 72
14, 4724, Note_on_c, 6, 69, 0
14, 4725, Note_on_c, 6, 62, 72
14, 4739, Note_on_c, 6, 62, 0
14, 4740, Note_on_c, 6, 64, 72
14, 4784, Note_on_c, 6, 64, 0
14, 4785, Note_on_c, 6, 66, 72
14, 4799, Note_on_c, 6, 66, 0
14, 4800, Note_on_c, 6, 67, 72
14, 4919, Note_on_c, 6, 67, 0
14, 5445, Note_on_c, 6, 61, 72
14, 5459, Note_on_c, 6, 61, 0
14, 5460, Note_on_c, 6, 62, 72
14, 5504, Note_on_c, 6, 62, 0
14, 5505, Note_on_c, 6, 64, 72
14, 5519, Note_on_c, 6, 64, 0
14, 5520, Note_on_c, 6, 65, 72
14, 5564, Note_on_c, 6, 65, 0
14, 5565, Note_on_c, 6, 67, 72
14, 5579, Note_on_c, 6, 67, 0
14, 5580, Note_on_c, 6, 69, 72
14, 5624, Note_on_c, 6, 69, 0
14, 5625, Note_on_c, 6, 67, 72
14, 5639, Note_on_c, 6, 67, 0
14, 5640, Note_on_c, 6, 65, 72
14, 5684, Note_on_c, 6, 65, 0
14, 5685, Note_on_c, 6, 64, 72
14, 5699, Note_on_c, 6, 64, 0
14, 5700, Note_on_c, 6, 62, 72
14, 5744, Note_on_c, 6, 62, 0
14, 5745, Note_on_c, 6, 60, 72
14, 5759, Note_on_c, 6, 60, 0
14, 5760, Note_on_c, 6, 58, 72
14, 5819, Note_on_c, 6, 58, 0
14, 5820, Note_on_c, 6, 55, 72
14, 5879, Note_on_c, 6, 55, 0
14, 5925, Note_on_c, 6, 58, 72
14, 5939, Note_on_c, 6, 58, 0
14, 5940, Note_on_c, 6, 60, 72
14, 5984, Note_on_c, 6, 60, 0
14, 5985, Note_on_c, 6, 62, 72
14, 5999, Note_on_c, 6, 62, 0
14, 6000, Note_on_c, 6, 64, 72
14, 6044, Note_on_c, 6, 64, 0
14, 6045, Note_on_c, 6, 65, 72
14, 6059, Note_on_c, 6, 65, 0
14, 6060, Note_on_c, 6, 67, 72
14, 6104, Note_on_c, 6, 67, 0
14, 6105, Note_on_c, 6, 65, 72
14, 6119, Note_on_c, 6, 65, 0
14, 6120, Note_on_c, 6, 64, 72
14, 6164, Note_on_c, 6, 64, 0
14, 6165, Note_on_c, 6, 62, 72
14, 6179, Note_on_c, 6, 62, 0
14, 6180, Note_on_c, 6, 60, 72
14, 6224, Note_on_c, 6, 60, 0
14, 6225, Note_on_c, 6, 58, 72
14, 6239, Note_on_c, 6, 58, 0
14, 6240, Note_on_c, 6, 57, 72
14, 6299, Note_on_c, 6, 57, 0
14, 6300, Note_on_c, 6, 53, 72
14, 6359, Note_on_c, 6, 53, 0
14, 6405, Note_on_c, 6, 57, 72
14, 6419, Note_on_c, 6, 57, 0
14, 6420, Note_on_c, 6, 58, 72
14, 6464, Note_on_c, 6, 58, 0
14, 6465, Note_on_c, 6, 60, 72
14, 6479, Note_on_c, 6, 60, 0
14, 6480, Note_on_c, 6, 62, 72
14, 6524, Note_on_c, 6, 62, 0
14, 6525, Note_on_c, 6, 64, 72
14, 6539, Note_on_c, 6, 64, 0
14, 6540, Note_on_c, 6, 65, 72
14, 6584, Note_on_c, 6, 65, 0
14, 6585, Note_on_c, 6, 64, 72
14, 6599, Note_on_c, 6, 64, 0
14, 6600, Note_on_c, 6, 62, 72
14, 6644, Note_on_c, 6, 62, 0
14, 6645, Note_on_c, 6, 60, 72
14, 6659, Note_on_c, 6, 60, 0
14, 6660, Note_on_c, 6, 58, 72
14, 6704, Note_on_c, 6, 58, 0
14, 6705, Note_on_c, 6, 57, 72
14, 6719, Note_on_c, 6, 57, 0
14, 6720, Note_on_c, 6, 55, 72
14, 6839, Note_on_c, 6, 55, 0
14, 6885, Note_on_c, 6, 67, 72
14, 6899, Note_on_c, 6, 67, 0
14, 6900, Note_on_c, 6, 69, 72
14, 6944, Note_on_c, 6, 69, 0
14, 6945, Note_on_c, 6, 70, 72
14, 6959, Note_on_c, 6, 70, 0
14, 6960, Note_on_c, 6, 64, 72
14, 7079, Note_on_c, 6, 64, 0
14, 7245, Note_on_c, 6, 61, 72
14, 7259, Note_on_c, 6, 61, 0
14, 7260, Note_on_c, 6, 64, 72
14, 7304, Note_on_c, 6, 64, 0
14, 7305, Note_on_c, 6, 69, 72
14, 7319, Note_on_c, 6, 69, 0
14, 7320, Note_on_c, 6, 73, 72
14, 7439, Note_on_c, 6, 73, 0
14, 7485, Note_on_c, 6, 61, 72
14, 7499, Note_on_c, 6, 61, 0
14, 7500, Note_on_c, 6, 64, 72
14, 7544, Note_on_c, 6, 64, 0
14, 7545, Note_on_c, 6, 69, 72
14, 7559, Note_on_c, 6, 69, 0
14, 7560, Note_on_c, 6, 73, 72
14, 7679, Note_on_c, 6, 73, 0
14, 7725, Note_on_c, 6, 69, 72
14, 7739, Note_on_c, 6, 69, 0
14, 7740, Note_on_c, 6, 64, 72
14, 7784, Note_on_c, 6, 64, 0
14, 7785, Note_on_c, 6, 61, 72
14, 7799, Note_on_c, 6, 61, 0
14, 7800, Note_on_c, 6, 57, 72
14, 7844, Note_on_c, 6, 57, 0
14, 7845, Note_on_c, 6, 57, 48
14, 7859, Note_on_c, 6, 57, 0
14, 7860, Note_on_c, 6, 57, 48
14, 7904, Note_on_c, 6, 57, 0
14, 7905, Note_on_c, 6, 57, 48
14, 7919, Note_on_c, 6, 57, 0
14, 7920, Note_on_c, 6, 57, 48
14, 7964, Note_on_c, 6, 57, 0
14, 7965, Note_on_c, 6, 58, 48
14, 7979, Note_on_c, 6, 58, 0
14, 7980, Note_on_c, 6, 55, 48
14, 8024, Note_on_c, 6, 55, 0
14, 8025, Note_on_c, 6, 57, 48
14, 8039, Note_on_c, 6, 57, 0
14, 8040, Note_on_c, 6, 53, 48
14, 8084, Note_on_c, 6, 53, 0
14, 8085, Note_on_c, 6, 55, 48
14, 8099, Note_on_c, 6, 55, 0
14, 8100, Note_on_c, 6, 52, 48
14, 8144, Note_on_c, 6, 52, 0
14, 8145, Note_on_c, 6, 53, 48
14, 8159, Note_on_c, 6, 53, 0
14, 8160, Note_on_c, 6, 50, 48
14, 8279, Note_on_c, 6, 50, 0
14, 8340, Note_on_c, 6, 61, 48
14, 8399, Note_on_c, 6, 61, 0
14, 8400, Note_on_c, 6, 62, 48
14, 8459, Note_on_c, 6, 62, 0
14, 8460, Note_on_c, 6, 67, 48
14, 8519, Note_on_c, 6, 67, 0
14, 8520, Note_on_c, 6, 65, 48
14, 8579, Note_on_c, 6, 65, 0
14, 8580, Note_on_c, 6, 63, 48
14, 8639, Note_on_c, 6, 63, 0
14, 8640, Note_on_c, 6, 62, 48
14, 8759, Note_on_c, 6, 62, 0
14, 8820, Note_on_c, 6, 57, 48
14, 8879, Note_on_c, 6, 57, 0
14, 8880, Note_on_c, 6, 58, 48
14, 8939, Note_on_c, 6, 58, 0
14, 8940, Note_on_c, 6, 63, 48
14, 8999, Note_on_c, 6, 63, 0
14, 9000, Note_on_c, 6, 62, 48
14, 9059, Note_on_c, 6, 62, 0
14, 9060, Note_on_c, 6, 60, 48
14, 9119, Note_on_c, 6, 60, 0
14, 9120, Note_on_c, 6, 58, 48
14, 9179, Note_on_c, 6, 58, 0
14, 9179, End_track
15, 0, Start_track
15, 0, Title_t, "Cello"
15, 0, MIDI_port, 0
15, 0, Program_c, 7, 48
15, 0, Control_c, 7, 7, 96
15, 0, Control_c, 7, 10, 96
15, 0, Control_c, 7, 11, 127
15, 960, Note_on_c, 7, 55, 72
15, 1019, Note_on_c, 7, 55, 0
15, 1020, Note_on_c, 7, 43, 72
15, 1079, Note_on_c, 7, 43, 0
15, 1125, Note_on_c, 7, 67, 72
15, 1139, Note_on_c, 7, 67, 0
15, 1140, Note_on_c, 7, 65, 72
15, 1184, Note_on_c, 7, 65, 0
15, 1185, Note_on_c, 7, 63, 72
15, 1199, Note_on_c, 7, 63, 0
15, 1200, Note_on_c, 7, 62, 72
15, 1244, Note_on_c, 7, 62, 0
15, 1245, Note_on_c, 7, 60, 72
15, 1259, Note_on_c, 7, 60, 0
15, 1260, Note_on_c, 7, 58, 72
15, 1304, Note_on_c, 7, 58, 0
15, 1305, Note_on_c, 7, 57, 72
15, 1319, Note_on_c, 7, 57, 0
15, 1320, Note_on_c, 7, 55, 72
15, 1364, Note_on_c, 7, 55, 0
15, 1365, Note_on_c, 7, 58, 72
15, 1379, Note_on_c, 7, 58, 0
15, 1380, Note_on_c, 7, 53, 72
15, 1424, Note_on_c, 7, 53, 0
15, 1425, Note_on_c, 7, 58, 72
15, 1439, Note_on_c, 7, 58, 0
15, 1440, Note_on_c, 7, 51, 72
15, 1499, Note_on_c, 7, 51, 0
15, 1500, Note_on_c, 7, 63, 72
15, 1559, Note_on_c, 7, 63, 0
15, 1605, Note_on_c, 7, 63, 72
15, 1619, Note_on_c, 7, 63, 0
15, 1620, Note_on_c, 7, 62, 72
15, 1664, Note_on_c, 7, 62, 0
15, 1665, Note_on_c, 7, 60, 72
15, 1679, Note_on_c, 7, 60, 0
15, 1680, Note_on_c, 7, 58, 72
15, 1724, Note_on_c, 7, 58, 0
15, 1725, Note_on_c, 7, 56, 72
15, 1739, Note_on_c, 7, 56, 0
15, 1740, Note_on_c, 7, 55, 72
15, 1784, Note_on_c, 7, 55, 0
15, 1785, Note_on_c, 7, 53, 72
15, 1799, Note_on_c, 7, 53, 0
15, 1800, Note_on_c, 7, 51, 72
15, 1844, Note_on_c, 7, 51, 0
15, 1845, Note_on_c, 7, 55, 72
15, 1859, Note_on_c, 7, 55, 0
15, 1860, Note_on_c, 7, 50, 72
15, 1904, Note_on_c, 7, 50, 0
15, 1905, Note_on_c, 7, 55, 72
15, 1919, Note_on_c, 7, 55, 0
15, 1920, Note_on_c, 7, 48, 72
15, 1979, Note_on_c, 7, 48, 0
15, 1980, Note_on_c, 7, 60, 72
15, 2039, Note_on_c, 7, 60, 0
15, 2085, Note_on_c, 7, 48, 72
15, 2099, Note_on_c, 7, 48, 0
15, 2100, Note_on_c, 7, 60, 72
15, 2144, Note_on_c, 7, 60, 0
15, 2145, Note_on_c, 7, 62, 72
15, 2159, Note_on_c, 7, 62, 0
15, 2160, Note_on_c, 7, 63, 72
15, 2204, Note_on_c, 7, 63, 0
15, 2205, Note_on_c, 7, 51, 72
15, 2219, Note_on_c, 7, 51, 0
15, 2220, Note_on_c, 7, 63, 72
15, 2264, Note_on_c, 7, 63, 0
15, 2265, Note_on_c, 7, 62, 72
15, 2279, Note_on_c, 7, 62, 0
15, 2280, Note_on_c, 7, 60, 72
15, 2324, Note_on_c, 7, 60, 0
15, 2325, Note_on_c, 7, 48, 72
15, 2339, Note_on_c, 7, 48, 0
15, 2340, Note_on_c, 7, 60, 72
15, 2384, Note_on_c, 7, 60, 0
15, 2385, Note_on_c, 7, 63, 72
15, 2399, Note_on_c, 7, 63, 0
15, 2400, Note_on_c, 7, 62, 72
15, 2519, Note_on_c, 7, 62, 0
15, 2865, Note_on_c, 7, 50, 72
15, 2984, Note_on_c, 7, 50, 0
15, 3045, Note_on_c, 7, 50, 72
15, 3059, Note_on_c, 7, 50, 0
15, 3060, Note_on_c, 7, 52, 72
15, 3104, Note_on_c, 7, 52, 0
15, 3105, Note_on_c, 7, 54, 72
15, 3119, Note_on_c, 7, 54, 0
15, 3120, Note_on_c, 7, 55, 72
15, 3164, Note_on_c, 7, 55, 0
15, 3165, Note_on_c, 7, 57, 72
15, 3179, Note_on_c, 7, 57, 0
15, 3180, Note_on_c, 7, 58, 72
15, 3224, Note_on_c, 7, 58, 0
15, 3225, Note_on_c, 7, 57, 72
15, 3239, Note_on_c, 7, 57, 0
15, 3240, Note_on_c, 7, 55, 72
15, 3284, Note_on_c, 7, 55, 0
15, 3285, Note_on_c, 7, 53, 72
15, 3299, Note_on_c, 7, 53, 0
15, 3300, Note_on_c, 7, 51, 72
15, 3344, Note_on_c, 7, 51, 0
15, 3345, Note_on_c, 7, 50, 72
15, 3359, Note_on_c, 7, 50, 0
15, 3360, Note_on_c, 7, 48, 72
15, 3419, Note_on_c, 7, 48, 0
15, 3420, Note_on_c, 7, 63, 72
15, 3479, Note_on_c, 7, 63, 0
15, 3525, Note_on_c, 7, 48, 72
15, 3539, Note_on_c, 7, 48, 0
15, 3540, Note_on_c, 7, 50, 72
15, 3584, Note_on_c, 7, 50, 0
15, 3585, Note_on_c, 7, 51, 72
15, 3599, Note_on_c, 7, 51, 0
15, 3600, Note_on_c, 7, 53, 72
15, 3644, Note_on_c, 7, 53, 0
15, 3645, Note_on_c, 7, 55, 72
15, 3659, Note_on_c, 7, 55, 0
15, 3660, Note_on_c, 7, 57, 72
15, 3704, Note_on_c, 7, 57, 0
15, 3705, Note_on_c, 7, 55, 72
15, 3719, Note_on_c, 7, 55, 0
15, 3720, Note_on_c, 7, 53, 72
15, 3764, Note_on_c, 7, 53, 0
15, 3765, Note_on_c, 7, 51, 72
15, 3779, Note_on_c, 7, 51, 0
15, 3780, Note_on_c, 7, 50, 72
15, 3824, Note_on_c, 7, 50, 0
15, 3825, Note_on_c, 7, 48, 72
15, 3839, Note_on_c, 7, 48, 0
15, 3840, Note_on_c, 7, 46, 72
15, 3899, Note_on_c, 7, 46, 0
15, 3900, Note_on_c, 7, 62, 72
15, 3959, Note_on_c, 7, 62, 0
15, 4005, Note_on_c, 7, 46, 72
15, 4019, Note_on_c, 7, 46, 0
15, 4020, Note_on_c, 7, 48, 72
15, 4064, Note_on_c, 7, 48, 0
15, 4065, Note_on_c, 7, 50, 72
15, 4079, Note_on_c, 7, 50, 0
15, 4080, Note_on_c, 7, 51, 72
15, 4124, Note_on_c, 7, 51, 0
15, 4125, Note_on_c, 7, 53, 72
15, 4139, Note_on_c, 7, 53, 0
15, 4140, Note_on_c, 7, 55, 72
15, 4184, Note_on_c, 7, 55, 0
15, 4185, Note_on_c, 7, 53, 72
15, 4199, Note_on_c, 7, 53, 0
15, 4200, Note_on_c, 7, 51, 72
15, 4244, Note_on_c, 7, 51, 0
15, 4245, Note_on_c, 7, 50, 72
15, 4259, Note_on_c, 7, 50, 0
15, 4260, Note_on_c, 7, 48, 72
15, 4304, Note_on_c, 7, 48, 0
15, 4305, Note_on_c, 7, 46, 72
15, 4319, Note_on_c, 7, 46, 0
15, 4320, Note_on_c, 7, 45, 72
15, 4379, Note_on_c, 7, 45, 0
15, 4380, Note_on_c, 7, 60, 72
15, 4439, Note_on_c, 7, 60, 0
15, 4485, Note_on_c, 7, 45, 72
15, 4499, Note_on_c, 7, 45, 0
15, 4500, Note_on_c, 7, 46, 72
15, 4544, Note_on_c, 7, 46, 0
15, 4545, Note_on_c, 7, 48, 72
15, 4559, Note_on_c, 7, 48, 0
15, 4560, Note_on_c, 7, 50, 72
15, 4604, Note_on_c, 7, 50, 0
15, 4605, Note_on_c, 7, 52, 72
15, 4619, Note_on_c, 7, 52, 0
15, 4620, Note_on_c, 7, 54, 72
15, 4664, Note_on_c, 7, 54, 0
15, 4665, Note_on_c, 7, 55, 72
15, 4679, Note_on_c, 7, 55, 0
15, 4680, Note_on_c, 7, 57, 72
15, 4724, Note_on_c, 7, 57, 0
15, 4725, Note_on_c, 7, 50, 72
15, 4739, Note_on_c, 7, 50, 0
15, 4740, Note_on_c, 7, 51, 72
15, 4784, Note_on_c, 7, 51, 0
15, 4785, Note_on_c, 7, 53, 72
15, 4799, Note_on_c, 7, 53, 0
15, 4800, Note_on_c, 7, 55, 72
15, 4919, Note_on_c, 7, 55, 0
15, 4920, Note_on_c, 7, 58, 72
15, 5009, Note_on_c, 7, 58, 0
15, 5010, Note_on_c, 7, 57, 72
15, 5039, Note_on_c, 7, 57, 0
15, 5040, Note_on_c, 7, 55, 72
15, 5129, Note_on_c, 7, 55, 0
15, 5130, Note_on_c, 7, 53, 72
15, 5159, Note_on_c, 7, 53, 0
15, 5160, Note_on_c, 7, 52, 72
15, 5249, Note_on_c, 7, 52, 0
15, 5250, Note_on_c, 7, 48, 72
15, 5279, Note_on_c, 7, 48, 0
15, 5280, Note_on_c, 7, 53, 72
15, 5399, Note_on_c, 7, 53, 0
15, 5445, Note_on_c, 7, 57, 72
15, 5459, Note_on_c, 7, 57, 0
15, 5460, Note_on_c, 7, 59, 72
15, 5504, Note_on_c, 7, 59, 0
15, 5505, Note_on_c, 7, 61, 72
15, 5519, Note_on_c, 7, 61, 0
15, 5520, Note_on_c, 7, 62, 72
15, 5564, Note_on_c, 7, 62, 0
15, 5565, Note_on_c, 7, 64, 72
15, 5579, Note_on_c, 7, 64, 0
15, 5580, Note_on_c, 7, 65, 72
15, 5624, Note_on_c, 7, 65, 0
15, 5625, Note_on_c, 7, 64, 72
15, 5639, Note_on_c, 7, 64, 0
15, 5640, Note_on_c, 7, 62, 72
15, 5684, Note_on_c, 7, 62, 0
15, 5685, Note_on_c, 7, 60, 72
15, 5699, Note_on_c, 7, 60, 0
15, 5700, Note_on_c, 7, 58, 72
15, 5744, Note_on_c, 7, 58, 0
15, 5745, Note_on_c, 7, 57, 72
15, 5759, Note_on_c, 7, 57, 0
15, 5760, Note_on_c, 7, 55, 72
15, 5819, Note_on_c, 7, 55, 0
15, 5820, Note_on_c, 7, 43, 72
15, 5879, Note_on_c, 7, 43, 0
15, 5925, Note_on_c, 7, 55, 72
15, 5939, Note_on_c, 7, 55, 0
15, 5940, Note_on_c, 7, 57, 72
15, 5984, Note_on_c, 7, 57, 0
15, 5985, Note_on_c, 7, 58, 72
15, 5999, Note_on_c, 7, 58, 0
15, 6000, Note_on_c, 7, 60, 72
15, 6044, Note_on_c, 7, 60, 0
15, 6045, Note_on_c, 7, 62, 72
15, 6059, Note_on_c, 7, 62, 0
15, 6060, Note_on_c, 7, 64, 72
15, 6104, Note_on_c, 7, 64, 0
15, 6105, Note_on_c, 7, 62, 72
15, 6119, Note_on_c, 7, 62, 0
15, 6120, Note_on_c, 7, 60, 72
15, 6164, Note_on_c, 7, 60, 0
15, 6165, Note_on_c, 7, 58, 72
15, 6179, Note_on_c, 7, 58, 0
15, 6180, Note_on_c, 7, 57, 72
15, 6224, Note_on_c, 7, 57, 0
15, 6225, Note_on_c, 7, 55, 72
15, 6239, Note_on_c, 7, 55, 0
15, 6240, Note_on_c, 7, 53, 72
15, 6299, Note_on_c, 7, 53, 0
15, 6300, Note_on_c, 7, 41, 72
15, 6359, Note_on_c, 7, 41, 0
15, 6405, Note_on_c, 7, 53, 72
15, 6419, Note_on_c, 7, 53, 0
15, 6420, Note_on_c, 7, 55, 72
15, 6464, Note_on_c, 7, 55, 0
15, 6465, Note_on_c, 7, 57, 72
15, 6479, Note_on_c, 7, 57, 0
15, 6480, Note_on_c, 7, 58, 72
15, 6524, Note_on_c, 7, 58, 0
15, 6525, Note_on_c, 7, 60, 72
15, 6539, Note_on_c, 7, 60, 0
15, 6540, Note_on_c, 7, 62, 72
15, 6584, Note_on_c, 7, 62, 0
15, 6585, Note_on_c, 7, 60, 72
15, 6599, Note_on_c, 7, 60, 0
15, 6600, Note_on_c, 7, 58, 72
15, 6644, Note_on_c, 7, 58, 0
15, 6645, Note_on_c, 7, 57, 72
15, 6659, Note_on_c, 7, 57, 0
15, 6660, Note_on_c, 7, 55, 72
15, 6704, Note_on_c, 7, 55, 0
15, 6705, Note_on_c, 7, 53, 72
15, 6719, Note_on_c, 7, 53, 0
15, 6720, Note_on_c, 7, 52, 72
15, 6839, Note_on_c, 7, 52, 0
15, 6885, Note_on_c, 7, 52, 72
15, 6899, Note_on_c, 7, 52, 0
15, 6900, Note_on_c, 7, 53, 72
15, 6944, Note_on_c, 7, 53, 0
15, 6945, Note_on_c, 7, 55, 72
15, 6959, Note_on_c, 7, 55, 0
15, 6960, Note_on_c, 7, 57, 72
15, 7004, Note_on_c, 7, 57, 0
15, 7005, Note_on_c, 7, 57, 72
15, 7019, Note_on_c, 7, 57, 0
15, 7020, Note_on_c, 7, 45, 72
15, 7064, Note_on_c, 7, 45, 0
15, 7065, Note_on_c, 7, 57, 72
15, 7079, Note_on_c, 7, 57, 0
15, 7080, Note_on_c, 7, 53, 72
15, 7124, Note_on_c, 7, 53, 0
15, 7125, Note_on_c, 7, 57, 72
15, 7139, Note_on_c, 7, 57, 0
15, 7140, Note_on_c, 7, 53, 72
15, 7184, Note_on_c, 7, 53, 0
15, 7185, Note_on_c, 7, 50, 72
15, 7199, Note_on_c, 7, 50, 0
15, 7200, Note_on_c, 7, 57, 72
15, 7259, Note_on_c, 7, 57, 0
15, 7260, Note_on_c, 7, 45, 72
15, 7319, Note_on_c, 7, 45, 0
15, 7365, Note_on_c, 7, 57, 72
15, 7379, Note_on_c, 7, 57, 0
15, 7380, Note_on_c, 7, 45, 72
15, 7424, Note_on_c, 7, 45, 0
15, 7425, Note_on_c, 7, 57, 72
15, 7439, Note_on_c, 7, 57, 0
15, 7440, Note_on_c, 7, 62, 72
15, 7499, Note_on_c, 7, 62, 0
15, 7500, Note_on_c, 7, 57, 72
15, 7559, Note_on_c, 7, 57, 0
15, 7605, Note_on_c, 7, 57, 72
15, 7619, Note_on_c, 7, 57, 0
15, 7620, Note_on_c, 7, 45, 72
15, 7664, Note_on_c, 7, 45, 0
15, 7665, Note_on_c, 7, 57, 72
15, 7679, Note_on_c, 7, 57, 0
15, 7680, Note_on_c, 7, 62, 72
15, 7739, Note_on_c, 7, 62, 0
15, 7740, Note_on_c, 7, 57, 72
15, 7799, Note_on_c, 7, 57, 0
15, 7799, End_track
16, 0, Start_track
16, 0, Title_t, "Contrabass"
16, 0, MIDI_port, 0
16, 0, Program_c, 8, 48
16, 0, Control_c, 8, 7, 104
16, 0, Control_c, 8, 10, 112
16, 0, Control_c, 8, 11, 127
16, 960, Note_on_c, 8, 43, 72
16, 1019, Note_on_c, 8, 43, 0
16, 1020, Note_on_c, 8, 31, 72
16, 1079, Note_on_c, 8, 31, 0
16, 1125, Note_on_c, 8, 55, 72
16, 1139, Note_on_c, 8, 55, 0
16, 1140, Note_on_c, 8, 53, 72
16, 1184, Note_on_c, 8, 53, 0
16, 1185, Note_on_c, 8, 51, 72
16, 1199, Note_on_c, 8, 51, 0
16, 1200, Note_on_c, 8, 50, 72
16, 1244, Note_on_c, 8, 50, 0
16, 1245, Note_on_c, 8, 48, 72
16, 1259, Note_on_c, 8, 48, 0
16, 1260, Note_on_c, 8, 46, 72
16, 1304, Note_on_c, 8, 46, 0
16, 1305, Note_on_c, 8, 45, 72
16, 1319, Note_on_c, 8, 45, 0
16, 1320, Note_on_c, 8, 43, 72
16, 1364, Note_on_c, 8, 43, 0
16, 1365, Note_on_c, 8, 46, 72
16, 1379, Note_on_c, 8, 46, 0
16, 1380, Note_on_c, 8, 41, 72
16, 1424, Note_on_c, 8, 41, 0
16, 1425, Note_on_c, 8, 46, 72
16, 1439, Note_on_c, 8, 46, 0
16, 1440, Note_on_c, 8, 39, 72
16, 1499, Note_on_c, 8, 39, 0
16, 1500, Note_on_c, 8, 51, 72
16, 1559, Note_on_c, 8, 51, 0
16, 1605, Note_on_c, 8, 51, 72
16, 1619, Note_on_c, 8, 51, 0
16, 1620, Note_on_c, 8, 50, 72
16, 1664, Note_on_c, 8, 50, 0
16, 1665, Note_on_c, 8, 48, 72
16, 1679, Note_on_c, 8, 48, 0
16, 1680, Note_on_c, 8, 46, 72
16, 1724, Note_on_c, 8, 46, 0
16, 1725, Note_on_c, 8, 44, 72
16, 1739, Note_on_c, 8, 44, 0
16, 1740, Note_on_c, 8, 43, 72
16, 1784, Note_on_c, 8, 43, 0
16, 1785, Note_on_c, 8, 41, 72
16, 1799, Note_on_c, 8, 41, 0
16, 1800, Note_on_c, 8, 39, 72
16, 1844, Note_on_c, 8, 39, 0
16, 1845, Note_on_c, 8, 43, 72
16, 1859, Note_on_c, 8, 43, 0
16, 1860, Note_on_c, 8, 38, 72
16, 1904, Note_on_c, 8, 38, 0
16, 1905, Note_on_c, 8, 43, 72
16, 1919, Note_on_c, 8, 43, 0
16, 1920, Note_on_c, 8, 36, 72
16, 1979, Note_on_c, 8, 36, 0
16, 1980, Note_on_c, 8, 48, 72
16, 2039, Note_on_c, 8, 48, 0
16, 2085, Note_on_c, 8, 36, 72
16, 2099, Note_on_c, 8, 36, 0
16, 2100, Note_on_c, 8, 48, 72
16, 2144, Note_on_c, 8, 48, 0
16, 2145, Note_on_c, 8, 50, 72
16, 2159, Note_on_c, 8, 50, 0
16, 2160, Note_on_c, 8, 51, 72
16, 2204, Note_on_c, 8, 51, 0
16, 2205, Note_on_c, 8, 39, 72
16, 2219, Note_on_c, 8, 39, 0
16, 2220, Note_on_c, 8, 51, 72
16, 2264, Note_on_c, 8, 51, 0
16, 2265, Note_on_c, 8, 50, 72
16, 2279, Note_on_c, 8, 50, 0
16, 2280, Note_on_c, 8, 48, 72
16, 2324, Note_on_c, 8, 48, 0
16, 2325, Note_on_c, 8, 36, 72
16, 2339, Note_on_c, 8, 36, 0
16, 2340, Note_on_c, 8, 48, 72
16, 2384, Note_on_c, 8, 48, 0
16, 2385, Note_on_c, 8, 51, 72
16, 2399, Note_on_c, 8, 51, 0
16, 2400, Note_on_c, 8, 50, 72
16, 2519, Note_on_c, 8, 50, 0
16, 2865, Note_on_c, 8, 38, 72
16, 2984, Note_on_c, 8, 38, 0
16, 3045, Note_on_c, 8, 38, 72
16, 3059, Note_on_c, 8, 38, 0
16, 3060, Note_on_c, 8, 40, 72
16, 3104, Note_on_c, 8, 40, 0
16, 3105, Note_on_c, 8, 42, 72
16, 3119, Note_on_c, 8, 42, 0
16, 3120, Note_on_c, 8, 43, 72
16, 3164, Note_on_c, 8, 43, 0
16, 3165, Note_on_c, 8, 45, 72
16, 3179, Note_on_c, 8, 45, 0
16, 3180, Note_on_c, 8, 46, 72
16, 3224, Note_on_c, 8, 46, 0
16, 3225, Note_on_c, 8, 45, 72
16, 3239, Note_on_c, 8, 45, 0
16, 3240, Note_on_c, 8, 43, 72
16, 3284, Note_on_c, 8, 43, 0
16, 3285, Note_on_c, 8, 41, 72
16, 3299, Note_on_c, 8, 41, 0
16, 3300, Note_on_c, 8, 39, 72
16, 3344, Note_on_c, 8, 39, 0
16, 3345, Note_on_c, 8, 38, 72
16, 3359, Note_on_c, 8, 38, 0
16, 3360, Note_on_c, 8, 36, 72
16, 3419, Note_on_c, 8, 36, 0
16, 3420, Note_on_c, 8, 51, 72
16, 3479, Note_on_c, 8, 51, 0
16, 3525, Note_on_c, 8, 36, 72
16, 3539, Note_on_c, 8, 36, 0
16, 3540, Note_on_c, 8, 38, 72
16, 3584, Note_on_c, 8, 38, 0
16, 3585, Note_on_c, 8, 39, 72
16, 3599, Note_on_c, 8, 39, 0
16, 3600, Note_on_c, 8, 41, 72
16, 3644, Note_on_c, 8, 41, 0
16, 3645, Note_on_c, 8, 43, 72
16, 3659, Note_on_c, 8, 43, 0
16, 3660, Note_on_c, 8, 45, 72
16, 3704, Note_on_c, 8, 45, 0
16, 3705, Note_on_c, 8, 43, 72
16, 3719, Note_on_c, 8, 43, 0
16, 3720, Note_on_c, 8, 41, 72
16, 3764, Note_on_c, 8, 41, 0
16, 3765, Note_on_c, 8, 39, 72
16, 3779, Note_on_c, 8, 39, 0
16, 3780, Note_on_c, 8, 38, 72
16, 3824, Note_on_c, 8, 38, 0
16, 3825, Note_on_c, 8, 36, 72
16, 3839, Note_on_c, 8, 36, 0
16, 3840, Note_on_c, 8, 34, 72
16, 3899, Note_on_c, 8, 34, 0
16, 3900, Note_on_c, 8, 50, 72
16, 3959, Note_on_c, 8, 50, 0
16, 4005, Note_on_c, 8, 34, 72
16, 4019, Note_on_c, 8, 34, 0
16, 4020, Note_on_c, 8, 36, 72
16, 4064, Note_on_c, 8, 36, 0
16, 4065, Note_on_c, 8, 38, 72
16, 4079, Note_on_c, 8, 38, 0
16, 4080, Note_on_c, 8, 39, 72
16, 4124, Note_on_c, 8, 39, 0
16, 4125, Note_on_c, 8, 41, 72
16, 4139, Note_on_c, 8, 41, 0
16, 4140, Note_on_c, 8, 43, 72
16, 4184, Note_on_c, 8, 43, 0
16, 4185, Note_on_c, 8, 41, 72
16, 4199, Note_on_c, 8, 41, 0
16, 4200, Note_on_c, 8, 39, 72
16, 4244, Note_on_c, 8, 39, 0
16, 4245, Note_on_c, 8, 38, 72
16, 4259, Note_on_c, 8, 38, 0
16, 4260, Note_on_c, 8, 36, 72
16, 4304, Note_on_c, 8, 36, 0
16, 4305, Note_on_c, 8, 34, 72
16, 4319, Note_on_c, 8, 34, 0
16, 4320, Note_on_c, 8, 33, 72
16, 4379, Note_on_c, 8, 33, 0
16, 4380, Note_on_c, 8, 48, 72
16, 4439, Note_on_c, 8, 48, 0
16, 4485, Note_on_c, 8, 33, 72
16, 4499, Note_on_c, 8, 33, 0
16, 4500, Note_on_c, 8, 34, 72
16, 4544, Note_on_c, 8, 34, 0
16, 4545, Note_on_c, 8, 36, 72
16, 4559, Note_on_c, 8, 36, 0
16, 4560, Note_on_c, 8, 38, 72
16, 4604, Note_on_c, 8, 38, 0
16, 4605, Note_on_c, 8, 40, 72
16, 4619, Note_on_c, 8, 40, 0
16, 4620, Note_on_c, 8, 42, 72
16, 4664, Note_on_c, 8, 42, 0
16, 4665, Note_on_c, 8, 43, 72
16, 4679, Note_on_c, 8, 43, 0
16, 4680, Note_on_c, 8, 45, 72
16, 4724, Note_on_c, 8, 45, 0
16, 4725, Note_on_c, 8, 38, 72
16, 4739, Note_on_c, 8, 38, 0
16, 4740, Note_on_c, 8, 39, 72
16, 4784, Note_on_c, 8, 39, 0
16, 4785, Note_on_c, 8, 41, 72
16, 4799, Note_on_c, 8, 41, 0
16, 4800, Note_on_c, 8, 43, 72
16, 4919, Note_on_c, 8, 43, 0
16, 4920, Note_on_c, 8, 46, 72
16, 5009, Note_on_c, 8, 46, 0
16, 5010, Note_on_c, 8, 45, 72
16, 5039, Note_on_c, 8, 45, 0
16, 5040, Note_on_c, 8, 43, 72
16, 5129, Note_on_c, 8, 43, 0
16, 5130, Note_on_c, 8, 41, 72
16, 5159, Note_on_c, 8, 41, 0
16, 5160, Note_on_c, 8, 40, 72
16, 5249, Note_on_c, 8, 40, 0
16, 5250, Note_on_c, 8, 36, 72
16, 5279, Note_on_c, 8, 36, 0
16, 5280, Note_on_c, 8, 41, 72
16, 5399, Note_on_c, 8, 41, 0
16, 5445, Note_on_c, 8, 45, 72
16, 5459, Note_on_c, 8, 45, 0
16, 5460, Note_on_c, 8, 47, 72
16, 5504, Note_on_c, 8, 47, 0
16, 5505, Note_on_c, 8, 49, 72
16, 5519, Note_on_c, 8, 49, 0
16, 5520, Note_on_c, 8, 50, 72
16, 5564, Note_on_c, 8, 50, 0
16, 5565, Note_on_c, 8, 52, 72
16, 5579, Note_on_c, 8, 52, 0
16, 5580, Note_on_c, 8, 53, 72
16, 5624, Note_on_c, 8, 53, 0
16, 5625, Note_on_c, 8, 52, 72
16, 5639, Note_on_c, 8, 52, 0
16, 5640, Note_on_c, 8, 50, 72
16, 5684, Note_on_c, 8, 50, 0
16, 5685, Note_on_c, 8, 48, 72
16, 5699, Note_on_c, 8, 48, 0
16, 5700, Note_on_c, 8, 46, 72
16, 5744, Note_on_c, 8, 46, 0
16, 5745, Note_on_c, 8, 45, 72
16, 5759, Note_on_c, 8, 45, 0
16, 5760, Note_on_c, 8, 43, 72
16, 5819, Note_on_c, 8, 43, 0
16, 5820, Note_on_c, 8, 31, 72
16, 5879, Note_on_c, 8, 31, 0
16, 5925, Note_on_c, 8, 43, 72
16, 5939, Note_on_c, 8, 43, 0
16, 5940, Note_on_c, 8, 45, 72
16, 5984, Note_on_c, 8, 45, 0
16, 5985, Note_on_c, 8, 46, 72
16, 5999, Note_on_c, 8, 46, 0
16, 6000, Note_on_c, 8, 48, 72
16, 6044, Note_on_c, 8, 48, 0
16, 6045, Note_on_c, 8, 50, 72
16, 6059, Note_on_c, 8, 50, 0
16, 6060, Note_on_c, 8, 52, 72
16, 6104, Note_on_c, 8, 52, 0
16, 6105, Note_on_c, 8, 50, 72
16, 6119, Note_on_c, 8, 50, 0
16, 6120, Note_on_c, 8, 48, 72
16, 6164, Note_on_c, 8, 48, 0
16, 6165, Note_on_c, 8, 46, 72
16, 6179, Note_on_c, 8, 46, 0
16, 6180, Note_on_c, 8, 45, 72
16, 6224, Note_on_c, 8, 45, 0
16, 6225, Note_on_c, 8, 43, 72
16, 6239, Note_on_c, 8, 43, 0
16, 6240, Note_on_c, 8, 41, 72
16, 6299, Note_on_c, 8, 41, 0
16, 6300, Note_on_c, 8, 29, 72
16, 6359, Note_on_c, 8, 29, 0
16, 6405, Note_on_c, 8, 41, 72
16, 6419, Note_on_c, 8, 41, 0
16, 6420, Note_on_c, 8, 43, 72
16, 6464, Note_on_c, 8, 43, 0
16, 6465, Note_on_c, 8, 45, 72
16, 6479, Note_on_c, 8, 45, 0
16, 6480, Note_on_c, 8, 46, 72
16, 6524, Note_on_c, 8, 46, 0
16, 6525, Note_on_c, 8, 48, 72
16, 6539, Note_on_c, 8, 48, 0
16, 6540, Note_on_c, 8, 50, 72
16, 6584, Note_on_c, 8, 50, 0
16, 6585, Note_on_c, 8, 48, 72
16, 6599, Note_on_c, 8, 48, 0
16, 6600, Note_on_c, 8, 46, 72
16, 6644, Note_on_c, 8, 46, 0
16, 6645, Note_on_c, 8, 45, 72
16, 6659, Note_on_c, 8, 45, 0
16, 6660, Note_on_c, 8, 43, 72
16, 6704, Note_on_c, 8, 43, 0
16, 6705, Note_on_c, 8, 41, 72
16, 6719, Note_on_c, 8, 41, 0
16, 6720, Note_on_c, 8, 40, 72
16, 6839, Note_on_c, 8, 40, 0
16, 6885, Note_on_c, 8, 40, 72
16, 6899, Note_on_c, 8, 40, 0
16, 6900, Note_on_c, 8, 41, 72
16, 6944, Note_on_c, 8, 41, 0
16, 6945, Note_on_c, 8, 43, 72
16, 6959, Note_on_c, 8, 43, 0
16, 6960, Note_on_c, 8, 45, 72
16, 7004, Note_on_c, 8, 45, 0
16, 7005, Note_on_c, 8, 45, 72
16, 7019, Note_on_c, 8, 45, 0
16, 7020, Note_on_c, 8, 33, 72
16, 7064, Note_on_c, 8, 33, 0
16, 7065, Note_on_c, 8, 45, 72
16, 7079, Note_on_c, 8, 45, 0
16, 7080, Note_on_c, 8, 41, 72
16, 7124, Note_on_c, 8, 41, 0
16, 7125, Note_on_c, 8, 45, 72
16, 7139, Note_on_c, 8, 45, 0
16, 7140, Note_on_c, 8, 41, 72
16, 7184, Note_on_c, 8, 41, 0
16, 7185, Note_on_c, 8, 38, 72
16, 7199, Note_on_c, 8, 38, 0
16, 7200, Note_on_c, 8, 45, 72
16, 7259, Note_on_c, 8, 45, 0
16, 7260, Note_on_c, 8, 33, 72
16, 7319, Note_on_c, 8, 33, 0
16, 7365, Note_on_c, 8, 45, 72
16, 7379, Note_on_c, 8, 45, 0
16, 7380, Note_on_c, 8, 33, 72
16, 7424, Note_on_c, 8, 33, 0
16, 7425, Note_on_c, 8, 45, 72
16, 7439, Note_on_c, 8, 45, 0
16, 7440, Note_on_c, 8, 50, 72
16, 7499, Note_on_c, 8, 50, 0
16, 7500, Note_on_c, 8, 45, 72
16, 7559, Note_on_c, 8, 45, 0
16, 7605, Note_on_c, 8, 45, 72
16, 7619, Note_on_c, 8, 45, 0
16, 7620, Note_on_c, 8, 33, 72
16, 7664, Note_on_c, 8, 33, 0
16, 7665, Note_on_c, 8, 45, 72
16, 7679, Note_on_c, 8, 45, 0
16, 7680, Note_on_c, 8, 50, 72
16, 7739, Note_on_c, 8, 50, 0
16, 7740, Note_on_c, 8, 45, 72
16, 7799, Note_on_c, 8, 45, 0
16, 7799, End_track
17, 0, Start_track
17, 0, Title_t, "Soprano "
17, 0, MIDI_port, 0
17, 0, Program_c, 10, 73
17, 0, Control_c, 10, 7, 96
17, 0, Control_c, 10, 10, 24
17, 0, Control_c, 10, 11, 127
17, 1080, Note_on_c, 10, 79, 88
17, 1199, Note_on_c, 10, 79, 0
17, 1560, Note_on_c, 10, 79, 88
17, 1679, Note_on_c, 10, 79, 0
17, 2040, Note_on_c, 10, 75, 88
17, 2159, Note_on_c, 10, 75, 0
17, 2520, Note_on_c, 10, 74, 88
17, 2609, Note_on_c, 10, 74, 0
17, 2610, Note_on_c, 10, 74, 88
17, 2639, Note_on_c, 10, 74, 0
17, 2640, Note_on_c, 10, 74, 88
17, 2729, Note_on_c, 10, 74, 0
17, 2730, Note_on_c, 10, 74, 88
17, 2759, Note_on_c, 10, 74, 0
17, 2760, Note_on_c, 10, 79, 88
17, 2849, Note_on_c, 10, 79, 0
17, 2850, Note_on_c, 10, 79, 88
17, 2879, Note_on_c, 10, 79, 0
17, 2880, Note_on_c, 10, 78, 88
17, 2939, Note_on_c, 10, 78, 0
17, 2940, Note_on_c, 10, 74, 88
17, 2999, Note_on_c, 10, 74, 0
17, 3240, Note_on_c, 10, 67, 88
17, 3329, Note_on_c, 10, 67, 0
17, 3330, Note_on_c, 10, 67, 88
17, 3359, Note_on_c, 10, 67, 0
17, 3360, Note_on_c, 10, 75, 88
17, 3689, Note_on_c, 10, 75, 0
17, 3690, Note_on_c, 10, 72, 88
17, 3719, Note_on_c, 10, 72, 0
17, 3720, Note_on_c, 10, 77, 88
17, 3809, Note_on_c, 10, 77, 0
17, 3810, Note_on_c, 10, 75, 88
17, 3839, Note_on_c, 10, 75, 0
17, 3840, Note_on_c, 10, 74, 88
17, 4169, Note_on_c, 10, 74, 0
17, 4170, Note_on_c, 10, 70, 88
17, 4199, Note_on_c, 10, 70, 0
17, 4200, Note_on_c, 10, 75, 88
17, 4289, Note_on_c, 10, 75, 0
17, 4290, Note_on_c, 10, 74, 88
17, 4319, Note_on_c, 10, 74, 0
17, 4320, Note_on_c, 10, 72, 88
17, 4649, Note_on_c, 10, 72, 0
17, 4650, Note_on_c, 10, 75, 88
17, 4679, Note_on_c, 10, 75, 0
17, 4680, Note_on_c, 10, 74, 88
17, 4769, Note_on_c, 10, 74, 0
17, 4770, Note_on_c, 10, 72, 88
17, 4799, Note_on_c, 10, 72, 0
17, 4800, Note_on_c, 10, 70, 88
17, 4859, Note_on_c, 10, 70, 0
17, 4860, Note_on_c, 10, 67, 88
17, 4919, Note_on_c, 10, 67, 0
17, 4920, Note_on_c, 10, 79, 88
17, 5009, Note_on_c, 10, 79, 0
17, 5010, Note_on_c, 10, 77, 88
17, 5039, Note_on_c, 10, 77, 0
17, 5040, Note_on_c, 10, 76, 88
17, 5129, Note_on_c, 10, 76, 0
17, 5130, Note_on_c, 10, 74, 88
17, 5159, Note_on_c, 10, 74, 0
17, 5160, Note_on_c, 10, 72, 88
17, 5249, Note_on_c, 10, 72, 0
17, 5250, Note_on_c, 10, 70, 88
17, 5279, Note_on_c, 10, 70, 0
17, 5280, Note_on_c, 10, 69, 88
17, 5339, Note_on_c, 10, 69, 0
17, 5340, Note_on_c, 10, 65, 88
17, 5399, Note_on_c, 10, 65, 0
17, 5520, Note_on_c, 10, 69, 88
17, 5639, Note_on_c, 10, 69, 0
17, 5700, Note_on_c, 10, 74, 88
17, 5759, Note_on_c, 10, 74, 0
17, 5760, Note_on_c, 10, 74, 88
17, 5819, Note_on_c, 10, 74, 0
17, 5820, Note_on_c, 10, 67, 88
17, 5879, Note_on_c, 10, 67, 0
17, 6120, Note_on_c, 10, 67, 88
17, 6209, Note_on_c, 10, 67, 0
17, 6210, Note_on_c, 10, 72, 88
17, 6239, Note_on_c, 10, 72, 0
17, 6240, Note_on_c, 10, 72, 88
17, 6299, Note_on_c, 10, 72, 0
17, 6300, Note_on_c, 10, 65, 88
17, 6359, Note_on_c, 10, 65, 0
17, 6480, Note_on_c, 10, 65, 88
17, 6569, Note_on_c, 10, 65, 0
17, 6570, Note_on_c, 10, 65, 88
17, 6599, Note_on_c, 10, 65, 0
17, 6600, Note_on_c, 10, 77, 88
17, 6809, Note_on_c, 10, 77, 0
17, 6810, Note_on_c, 10, 77, 88
17, 6839, Note_on_c, 10, 77, 0
17, 6840, Note_on_c, 10, 76, 88
17, 6929, Note_on_c, 10, 76, 0
17, 6930, Note_on_c, 10, 74, 88
17, 6959, Note_on_c, 10, 74, 0
17, 6960, Note_on_c, 10, 73, 88
17, 7049, Note_on_c, 10, 73, 0
17, 7050, Note_on_c, 10, 73, 88
17, 7079, Note_on_c, 10, 73, 0
17, 7080, Note_on_c, 10, 74, 88
17, 7169, Note_on_c, 10, 74, 0
17, 7170, Note_on_c, 10, 74, 88
17, 7199, Note_on_c, 10, 74, 0
17, 7200, Note_on_c, 10, 74, 88
17, 7259, Note_on_c, 10, 74, 0
17, 7260, Note_on_c, 10, 73, 88
17, 7319, Note_on_c, 10, 73, 0
17, 7380, Note_on_c, 10, 73, 88
17, 7424, Note_on_c, 10, 73, 0
17, 7425, Note_on_c, 10, 73, 88
17, 7439, Note_on_c, 10, 73, 0
17, 7440, Note_on_c, 10, 74, 88
17, 7499, Note_on_c, 10, 74, 0
17, 7500, Note_on_c, 10, 73, 88
17, 7559, Note_on_c, 10, 73, 0
17, 7620, Note_on_c, 10, 76, 88
17, 7664, Note_on_c, 10, 76, 0
17, 7665, Note_on_c, 10, 76, 88
17, 7679, Note_on_c, 10, 76, 0
17, 7680, Note_on_c, 10, 77, 88
17, 7739, Note_on_c, 10, 77, 0
17, 7740, Note_on_c, 10, 76, 88
17, 7799, Note_on_c, 10, 76, 0
17, 8160, Note_on_c, 10, 77, 58
17, 8249, Note_on_c, 10, 77, 0
17, 8250, Note_on_c, 10, 76, 58
17, 8279, Note_on_c, 10, 76, 0
17, 8280, Note_on_c, 10, 74, 58
17, 8399, Note_on_c, 10, 74, 0
17, 9120, Note_on_c, 10, 79, 58
17, 9299, Note_on_c, 10, 79, 0
17, 9300, Note_on_c, 10, 79, 58
17, 9359, Note_on_c, 10, 79, 0
17, 9360, Note_on_c, 10, 79, 58
17, 9419, Note_on_c, 10, 79, 0
17, 9420, Note_on_c, 10, 77, 58
17, 9479, Note_on_c, 10, 77, 0
17, 9480, Note_on_c, 10, 75, 58
17, 9539, Note_on_c, 10, 75, 0
17, 9540, Note_on_c, 10, 74, 58
17, 9599, Note_on_c, 10, 74, 0
17, 9600, Note_on_c, 10, 73, 58
17, 9719, Note_on_c, 10, 73, 0
17, 9720, Note_on_c, 10, 74, 58
17, 9959, Note_on_c, 10, 74, 0
17, 9960, Note_on_c, 10, 73, 58
17, 10079, Note_on_c, 10, 73, 0
17, 10080, Note_on_c, 10, 74, 58
17, 10199, Note_on_c, 10, 74, 0
17, 10199, End_track
18, 0, Start_track
18, 0, Title_t, "Alto "
18, 0, MIDI_port, 0
18, 0, Program_c, 11, 73
18, 0, Control_c, 11, 7, 96
18, 0, Control_c, 11, 10, 96
18, 0, Control_c, 11, 11, 127
18, 1080, Note_on_c, 11, 70, 88
18, 1199, Note_on_c, 11, 70, 0
18, 1560, Note_on_c, 11, 70, 88
18, 1679, Note_on_c, 11, 70, 0
18, 2040, Note_on_c, 11, 69, 88
18, 2159, Note_on_c, 11, 69, 0
18, 2520, Note_on_c, 11, 69, 88
18, 2609, Note_on_c, 11, 69, 0
18, 2610, Note_on_c, 11, 69, 88
18, 2639, Note_on_c, 11, 69, 0
18, 2640, Note_on_c, 11, 70, 88
18, 2729, Note_on_c, 11, 70, 0
18, 2730, Note_on_c, 11, 70, 88
18, 2759, Note_on_c, 11, 70, 0
18, 2760, Note_on_c, 11, 70, 88
18, 2849, Note_on_c, 11, 70, 0
18, 2850, Note_on_c, 11, 70, 88
18, 2879, Note_on_c, 11, 70, 0
18, 2880, Note_on_c, 11, 69, 88
18, 2939, Note_on_c, 11, 69, 0
18, 2940, Note_on_c, 11, 69, 88
18, 2999, Note_on_c, 11, 69, 0
18, 3000, Note_on_c, 11, 62, 88
18, 3089, Note_on_c, 11, 62, 0
18, 3090, Note_on_c, 11, 62, 88
18, 3119, Note_on_c, 11, 62, 0
18, 3120, Note_on_c, 11, 70, 88
18, 3449, Note_on_c, 11, 70, 0
18, 3450, Note_on_c, 11, 67, 88
18, 3479, Note_on_c, 11, 67, 0
18, 3480, Note_on_c, 11, 72, 88
18, 3569, Note_on_c, 11, 72, 0
18, 3570, Note_on_c, 11, 70, 88
18, 3599, Note_on_c, 11, 70, 0
18, 3600, Note_on_c, 11, 69, 88
18, 3929, Note_on_c, 11, 69, 0
18, 3930, Note_on_c, 11, 65, 88
18, 3959, Note_on_c, 11, 65, 0
18, 3960, Note_on_c, 11, 70, 88
18, 4049, Note_on_c, 11, 70, 0
18, 4050, Note_on_c, 11, 69, 88
18, 4079, Note_on_c, 11, 69, 0
18, 4080, Note_on_c, 11, 67, 88
18, 4409, Note_on_c, 11, 67, 0
18, 4410, Note_on_c, 11, 70, 88
18, 4439, Note_on_c, 11, 70, 0
18, 4440, Note_on_c, 11, 69, 88
18, 4529, Note_on_c, 11, 69, 0
18, 4530, Note_on_c, 11, 67, 88
18, 4559, Note_on_c, 11, 67, 0
18, 4560, Note_on_c, 11, 66, 88
18, 4739, Note_on_c, 11, 66, 0
18, 4740, Note_on_c, 11, 67, 88
18, 4784, Note_on_c, 11, 67, 0
18, 4785, Note_on_c, 11, 69, 88
18, 4799, Note_on_c, 11, 69, 0
18, 4800, Note_on_c, 11, 67, 88
18, 4919, Note_on_c, 11, 67, 0
18, 4920, Note_on_c, 11, 67, 88
18, 5009, Note_on_c, 11, 67, 0
18, 5010, Note_on_c, 11, 69, 88
18, 5039, Note_on_c, 11, 69, 0
18, 5040, Note_on_c, 11, 70, 88
18, 5129, Note_on_c, 11, 70, 0
18, 5130, Note_on_c, 11, 69, 88
18, 5159, Note_on_c, 11, 69, 0
18, 5160, Note_on_c, 11, 67, 88
18, 5249, Note_on_c, 11, 67, 0
18, 5250, Note_on_c, 11, 64, 88
18, 5279, Note_on_c, 11, 64, 0
18, 5280, Note_on_c, 11, 65, 88
18, 5339, Note_on_c, 11, 65, 0
18, 5340, Note_on_c, 11, 65, 88
18, 5399, Note_on_c, 11, 65, 0
18, 5760, Note_on_c, 11, 62, 88
18, 5879, Note_on_c, 11, 62, 0
18, 5940, Note_on_c, 11, 67, 88
18, 5999, Note_on_c, 11, 67, 0
18, 6000, Note_on_c, 11, 67, 88
18, 6059, Note_on_c, 11, 67, 0
18, 6060, Note_on_c, 11, 60, 88
18, 6119, Note_on_c, 11, 60, 0
18, 6360, Note_on_c, 11, 60, 88
18, 6449, Note_on_c, 11, 60, 0
18, 6450, Note_on_c, 11, 65, 88
18, 6479, Note_on_c, 11, 65, 0
18, 6480, Note_on_c, 11, 65, 88
18, 6539, Note_on_c, 11, 65, 0
18, 6540, Note_on_c, 11, 58, 88
18, 6599, Note_on_c, 11, 58, 0
18, 6720, Note_on_c, 11, 70, 88
18, 6899, Note_on_c, 11, 70, 0
18, 6900, Note_on_c, 11, 70, 88
18, 6959, Note_on_c, 11, 70, 0
18, 6960, Note_on_c, 11, 69, 88
18, 7049, Note_on_c, 11, 69, 0
18, 7050, Note_on_c, 11, 69, 88
18, 7079, Note_on_c, 11, 69, 0
18, 7080, Note_on_c, 11, 69, 88
18, 7169, Note_on_c, 11, 69, 0
18, 7170, Note_on_c, 11, 69, 88
18, 7199, Note_on_c, 11, 69, 0
18, 7200, Note_on_c, 11, 69, 88
18, 7259, Note_on_c, 11, 69, 0
18, 7260, Note_on_c, 11, 69, 88
18, 7319, Note_on_c, 11, 69, 0
18, 7380, Note_on_c, 11, 69, 88
18, 7424, Note_on_c, 11, 69, 0
18, 7425, Note_on_c, 11, 69, 88
18, 7439, Note_on_c, 11, 69, 0
18, 7440, Note_on_c, 11, 69, 88
18, 7499, Note_on_c, 11, 69, 0
18, 7500, Note_on_c, 11, 69, 88
18, 7559, Note_on_c, 11, 69, 0
18, 7620, Note_on_c, 11, 69, 88
18, 7664, Note_on_c, 11, 69, 0
18, 7665, Note_on_c, 11, 69, 88
18, 7679, Note_on_c, 11, 69, 0
18, 7680, Note_on_c, 11, 69, 88
18, 7739, Note_on_c, 11, 69, 0
18, 7740, Note_on_c, 11, 69, 88
18, 7799, Note_on_c, 11, 69, 0
18, 8160, Note_on_c, 11, 69, 58
18, 8249, Note_on_c, 11, 69, 0
18, 8250, Note_on_c, 11, 67, 58
18, 8279, Note_on_c, 11, 67, 0
18, 8280, Note_on_c, 11, 65, 58
18, 8399, Note_on_c, 11, 65, 0
18, 9120, Note_on_c, 11, 70, 58
18, 9299, Note_on_c, 11, 70, 0
18, 9300, Note_on_c, 11, 70, 58
18, 9359, Note_on_c, 11, 70, 0
18, 9360, Note_on_c, 11, 70, 58
18, 9419, Note_on_c, 11, 70, 0
18, 9420, Note_on_c, 11, 70, 58
18, 9479, Note_on_c, 11, 70, 0
18, 9480, Note_on_c, 11, 70, 58
18, 9539, Note_on_c, 11, 70, 0
18, 9540, Note_on_c, 11, 70, 58
18, 9599, Note_on_c, 11, 70, 0
18, 9600, Note_on_c, 11, 70, 58
18, 9719, Note_on_c, 11, 70, 0
18, 9720, Note_on_c, 11, 69, 58
18, 10079, Note_on_c, 11, 69, 0
18, 10080, Note_on_c, 11, 69, 58
18, 10199, Note_on_c, 11, 69, 0
18, 10199, End_track
19, 0, Start_track
19, 0, Title_t, "Tenor "
19, 0, MIDI_port, 0
19, 0, Program_c, 12, 70
19, 0, Control_c, 12, 7, 96
19, 0, Control_c, 12, 10, 48
19, 0, Control_c, 12, 11, 127
19, 1080, Note_on_c, 12, 62, 88
19, 1199, Note_on_c, 12, 62, 0
19, 1560, Note_on_c, 12, 67, 88
19, 1679, Note_on_c, 12, 67, 0
19, 2040, Note_on_c, 12, 67, 88
19, 2159, Note_on_c, 12, 67, 0
19, 2520, Note_on_c, 12, 66, 88
19, 2609, Note_on_c, 12, 66, 0
19, 2610, Note_on_c, 12, 66, 88
19, 2639, Note_on_c, 12, 66, 0
19, 2640, Note_on_c, 12, 67, 88
19, 2729, Note_on_c, 12, 67, 0
19, 2730, Note_on_c, 12, 67, 88
19, 2759, Note_on_c, 12, 67, 0
19, 2760, Note_on_c, 12, 62, 88
19, 2849, Note_on_c, 12, 62, 0
19, 2850, Note_on_c, 12, 62, 88
19, 2879, Note_on_c, 12, 62, 0
19, 2880, Note_on_c, 12, 62, 88
19, 2939, Note_on_c, 12, 62, 0
19, 2940, Note_on_c, 12, 62, 88
19, 2999, Note_on_c, 12, 62, 0
19, 3120, Note_on_c, 12, 62, 88
19, 3239, Note_on_c, 12, 62, 0
19, 3300, Note_on_c, 12, 67, 88
19, 3359, Note_on_c, 12, 67, 0
19, 3360, Note_on_c, 12, 67, 88
19, 3419, Note_on_c, 12, 67, 0
19, 3420, Note_on_c, 12, 60, 88
19, 3479, Note_on_c, 12, 60, 0
19, 3720, Note_on_c, 12, 60, 88
19, 3809, Note_on_c, 12, 60, 0
19, 3810, Note_on_c, 12, 65, 88
19, 3839, Note_on_c, 12, 65, 0
19, 3840, Note_on_c, 12, 65, 88
19, 3899, Note_on_c, 12, 65, 0
19, 3900, Note_on_c, 12, 58, 88
19, 3959, Note_on_c, 12, 58, 0
19, 4200, Note_on_c, 12, 58, 88
19, 4289, Note_on_c, 12, 58, 0
19, 4290, Note_on_c, 12, 63, 88
19, 4319, Note_on_c, 12, 63, 0
19, 4320, Note_on_c, 12, 63, 88
19, 4379, Note_on_c, 12, 63, 0
19, 4380, Note_on_c, 12, 57, 88
19, 4439, Note_on_c, 12, 57, 0
19, 4560, Note_on_c, 12, 57, 88
19, 4649, Note_on_c, 12, 57, 0
19, 4650, Note_on_c, 12, 57, 88
19, 4679, Note_on_c, 12, 57, 0
19, 4680, Note_on_c, 12, 62, 88
19, 4859, Note_on_c, 12, 62, 0
19, 4860, Note_on_c, 12, 58, 88
19, 4919, Note_on_c, 12, 58, 0
19, 4920, Note_on_c, 12, 62, 88
19, 5009, Note_on_c, 12, 62, 0
19, 5010, Note_on_c, 12, 60, 88
19, 5039, Note_on_c, 12, 60, 0
19, 5040, Note_on_c, 12, 58, 88
19, 5129, Note_on_c, 12, 58, 0
19, 5130, Note_on_c, 12, 62, 88
19, 5159, Note_on_c, 12, 62, 0
19, 5160, Note_on_c, 12, 55, 88
19, 5249, Note_on_c, 12, 55, 0
19, 5250, Note_on_c, 12, 60, 88
19, 5279, Note_on_c, 12, 60, 0
19, 5280, Note_on_c, 12, 60, 88
19, 5339, Note_on_c, 12, 60, 0
19, 5340, Note_on_c, 12, 57, 88
19, 5399, Note_on_c, 12, 57, 0
19, 5400, Note_on_c, 12, 57, 88
19, 5489, Note_on_c, 12, 57, 0
19, 5490, Note_on_c, 12, 57, 88
19, 5519, Note_on_c, 12, 57, 0
19, 5520, Note_on_c, 12, 65, 88
19, 5849, Note_on_c, 12, 65, 0
19, 5850, Note_on_c, 12, 62, 88
19, 5879, Note_on_c, 12, 62, 0
19, 5880, Note_on_c, 12, 67, 88
19, 5969, Note_on_c, 12, 67, 0
19, 5970, Note_on_c, 12, 65, 88
19, 5999, Note_on_c, 12, 65, 0
19, 6000, Note_on_c, 12, 64, 88
19, 6329, Note_on_c, 12, 64, 0
19, 6330, Note_on_c, 12, 60, 88
19, 6359, Note_on_c, 12, 60, 0
19, 6360, Note_on_c, 12, 65, 88
19, 6449, Note_on_c, 12, 65, 0
19, 6450, Note_on_c, 12, 64, 88
19, 6479, Note_on_c, 12, 64, 0
19, 6480, Note_on_c, 12, 62, 88
19, 6809, Note_on_c, 12, 62, 0
19, 6810, Note_on_c, 12, 62, 88
19, 6839, Note_on_c, 12, 62, 0
19, 6840, Note_on_c, 12, 67, 88
19, 6929, Note_on_c, 12, 67, 0
19, 6930, Note_on_c, 12, 65, 88
19, 6959, Note_on_c, 12, 65, 0
19, 6960, Note_on_c, 12, 64, 88
19, 7049, Note_on_c, 12, 64, 0
19, 7050, Note_on_c, 12, 64, 88
19, 7079, Note_on_c, 12, 64, 0
19, 7080, Note_on_c, 12, 65, 88
19, 7169, Note_on_c, 12, 65, 0
19, 7170, Note_on_c, 12, 65, 88
19, 7199, Note_on_c, 12, 65, 0
19, 7200, Note_on_c, 12, 65, 88
19, 7259, Note_on_c, 12, 65, 0
19, 7260, Note_on_c, 12, 64, 88
19, 7319, Note_on_c, 12, 64, 0
19, 7380, Note_on_c, 12, 64, 88
19, 7424, Note_on_c, 12, 64, 0
19, 7425, Note_on_c, 12, 64, 88
19, 7439, Note_on_c, 12, 64, 0
19, 7440, Note_on_c, 12, 65, 88
19, 7499, Note_on_c, 12, 65, 0
19, 7500, Note_on_c, 12, 64, 88
19, 7559, Note_on_c, 12, 64, 0
19, 7620, Note_on_c, 12, 61, 88
19, 7664, Note_on_c, 12, 61, 0
19, 7665, Note_on_c, 12, 61, 88
19, 7679, Note_on_c, 12, 61, 0
19, 7680, Note_on_c, 12, 62, 88
19, 7739, Note_on_c, 12, 62, 0
19, 7740, Note_on_c, 12, 61, 88
19, 7799, Note_on_c, 12, 61, 0
19, 8640, Note_on_c, 12, 62, 58
19, 8729, Note_on_c, 12, 62, 0
19, 8730, Note_on_c, 12, 60, 58
19, 8759, Note_on_c, 12, 60, 0
19, 8760, Note_on_c, 12, 58, 58
19, 8879, Note_on_c, 12, 58, 0
19, 9120, Note_on_c, 12, 63, 58
19, 9299, Note_on_c, 12, 63, 0
19, 9300, Note_on_c, 12, 63, 58
19, 9359, Note_on_c, 12, 63, 0
19, 9360, Note_on_c, 12, 63, 58
19, 9419, Note_on_c, 12, 63, 0
19, 9420, Note_on_c, 12, 62, 58
19, 9479, Note_on_c, 12, 62, 0
19, 9480, Note_on_c, 12, 67, 58
19, 9539, Note_on_c, 12, 67, 0
19, 9540, Note_on_c, 12, 66, 58
19, 9599, Note_on_c, 12, 66, 0
19, 9600, Note_on_c, 12, 64, 58
19, 9719, Note_on_c, 12, 64, 0
19, 9720, Note_on_c, 12, 65, 58
19, 9839, Note_on_c, 12, 65, 0
19, 9840, Note_on_c, 12, 64, 58
19, 10079, Note_on_c, 12, 64, 0
19, 10080, Note_on_c, 12, 65, 58
19, 10199, Note_on_c, 12, 65, 0
19, 10199, End_track
20, 0, Start_track
20, 0, Title_t, "Bass "
20, 0, MIDI_port, 0
20, 0, Program_c, 13, 60
20, 0, Control_c, 13, 7, 96
20, 0, Control_c, 13, 10, 80
20, 0, Control_c, 13, 11, 127
20, 1080, Note_on_c, 13, 55, 88
20, 1199, Note_on_c, 13, 55, 0
20, 1560, Note_on_c, 13, 63, 88
20, 1679, Note_on_c, 13, 63, 0
20, 2040, Note_on_c, 13, 60, 88
20, 2159, Note_on_c, 13, 60, 0
20, 2520, Note_on_c, 13, 62, 88
20, 2609, Note_on_c, 13, 62, 0
20, 2610, Note_on_c, 13, 62, 88
20, 2639, Note_on_c, 13, 62, 0
20, 2640, Note_on_c, 13, 58, 88
20, 2729, Note_on_c, 13, 58, 0
20, 2730, Note_on_c, 13, 58, 88
20, 2759, Note_on_c, 13, 58, 0
20, 2760, Note_on_c, 13, 55, 88
20, 2849, Note_on_c, 13, 55, 0
20, 2850, Note_on_c, 13, 55, 88
20, 2879, Note_on_c, 13, 55, 0
20, 2880, Note_on_c, 13, 62, 88
20, 2939, Note_on_c, 13, 62, 0
20, 2940, Note_on_c, 13, 50, 88
20, 2999, Note_on_c, 13, 50, 0
20, 3360, Note_on_c, 13, 55, 88
20, 3479, Note_on_c, 13, 55, 0
20, 3540, Note_on_c, 13, 60, 88
20, 3599, Note_on_c, 13, 60, 0
20, 3600, Note_on_c, 13, 60, 88
20, 3659, Note_on_c, 13, 60, 0
20, 3660, Note_on_c, 13, 53, 88
20, 3719, Note_on_c, 13, 53, 0
20, 3960, Note_on_c, 13, 53, 88
20, 4049, Note_on_c, 13, 53, 0
20, 4050, Note_on_c, 13, 58, 88
20, 4079, Note_on_c, 13, 58, 0
20, 4080, Note_on_c, 13, 58, 88
20, 4139, Note_on_c, 13, 58, 0
20, 4140, Note_on_c, 13, 51, 88
20, 4199, Note_on_c, 13, 51, 0
20, 4440, Note_on_c, 13, 57, 88
20, 4529, Note_on_c, 13, 57, 0
20, 4530, Note_on_c, 13, 57, 88
20, 4559, Note_on_c, 13, 57, 0
20, 4560, Note_on_c, 13, 50, 88
20, 4739, Note_on_c, 13, 50, 0
20, 4740, Note_on_c, 13, 52, 88
20, 4784, Note_on_c, 13, 52, 0
20, 4785, Note_on_c, 13, 54, 88
20, 4799, Note_on_c, 13, 54, 0
20, 4800, Note_on_c, 13, 55, 88
20, 4919, Note_on_c, 13, 55, 0
20, 4920, Note_on_c, 13, 58, 88
20, 5009, Note_on_c, 13, 58, 0
20, 5010, Note_on_c, 13, 57, 88
20, 5039, Note_on_c, 13, 57, 0
20, 5040, Note_on_c, 13, 55, 88
20, 5129, Note_on_c, 13, 55, 0
20, 5130, Note_on_c, 13, 53, 88
20, 5159, Note_on_c, 13, 53, 0
20, 5160, Note_on_c, 13, 52, 88
20, 5249, Note_on_c, 13, 52, 0
20, 5250, Note_on_c, 13, 48, 88
20, 5279, Note_on_c, 13, 48, 0
20, 5280, Note_on_c, 13, 53, 88
20, 5339, Note_on_c, 13, 53, 0
20, 5340, Note_on_c, 13, 53, 88
20, 5399, Note_on_c, 13, 53, 0
20, 5640, Note_on_c, 13, 53, 88
20, 5729, Note_on_c, 13, 53, 0
20, 5730, Note_on_c, 13, 53, 88
20, 5759, Note_on_c, 13, 53, 0
20, 5760, Note_on_c, 13, 58, 88
20, 6089, Note_on_c, 13, 58, 0
20, 6090, Note_on_c, 13, 55, 88
20, 6119, Note_on_c, 13, 55, 0
20, 6120, Note_on_c, 13, 60, 88
20, 6209, Note_on_c, 13, 60, 0
20, 6210, Note_on_c, 13, 58, 88
20, 6239, Note_on_c, 13, 58, 0
20, 6240, Note_on_c, 13, 57, 88
20, 6569, Note_on_c, 13, 57, 0
20, 6570, Note_on_c, 13, 53, 88
20, 6599, Note_on_c, 13, 53, 0
20, 6600, Note_on_c, 13, 58, 88
20, 6689, Note_on_c, 13, 58, 0
20, 6690, Note_on_c, 13, 57, 88
20, 6719, Note_on_c, 13, 57, 0
20, 6720, Note_on_c, 13, 55, 88
20, 6809, Note_on_c, 13, 55, 0
20, 6810, Note_on_c, 13, 58, 88
20, 6839, Note_on_c, 13, 58, 0
20, 6840, Note_on_c, 13, 52, 88
20, 6899, Note_on_c, 13, 52, 0
20, 6900, Note_on_c, 13, 53, 88
20, 6944, Note_on_c, 13, 53, 0
20, 6945, Note_on_c, 13, 55, 88
20, 6959, Note_on_c, 13, 55, 0
20, 6960, Note_on_c, 13, 57, 88
20, 7049, Note_on_c, 13, 57, 0
20, 7050, Note_on_c, 13, 57, 88
20, 7079, Note_on_c, 13, 57, 0
20, 7080, Note_on_c, 13, 53, 88
20, 7169, Note_on_c, 13, 53, 0
20, 7170, Note_on_c, 13, 50, 88
20, 7199, Note_on_c, 13, 50, 0
20, 7200, Note_on_c, 13, 57, 88
20, 7259, Note_on_c, 13, 57, 0
20, 7260, Note_on_c, 13, 45, 88
20, 7319, Note_on_c, 13, 45, 0
20, 7380, Note_on_c, 13, 57, 88
20, 7424, Note_on_c, 13, 57, 0
20, 7425, Note_on_c, 13, 57, 88
20, 7439, Note_on_c, 13, 57, 0
20, 7440, Note_on_c, 13, 62, 88
20, 7499, Note_on_c, 13, 62, 0
20, 7500, Note_on_c, 13, 57, 88
20, 7559, Note_on_c, 13, 57, 0
20, 7620, Note_on_c, 13, 57, 88
20, 7664, Note_on_c, 13, 57, 0
20, 7665, Note_on_c, 13, 57, 88
20, 7679, Note_on_c, 13, 57, 0
20, 7680, Note_on_c, 13, 62, 88
20, 7739, Note_on_c, 13, 62, 0
20, 7740, Note_on_c, 13, 57, 88
20, 7799, Note_on_c, 13, 57, 0
20, 8640, Note_on_c, 13, 53, 58
20, 8729, Note_on_c, 13, 53, 0
20, 8730, Note_on_c, 13, 51, 58
20, 8759, Note_on_c, 13, 51, 0
20, 8760, Note_on_c, 13, 50, 58
20, 8879, Note_on_c, 13, 50, 0
20, 9120, Note_on_c, 13, 55, 58
20, 9299, Note_on_c, 13, 55, 0
20, 9300, Note_on_c, 13, 55, 58
20, 9359, Note_on_c, 13, 55, 0
20, 9360, Note_on_c, 13, 55, 58
20, 9419, Note_on_c, 13, 55, 0
20, 9420, Note_on_c, 13, 55, 58
20, 9479, Note_on_c, 13, 55, 0
20, 9480, Note_on_c, 13, 55, 58
20, 9539, Note_on_c, 13, 55, 0
20, 9540, Note_on_c, 13, 55, 58
20, 9599, Note_on_c, 13, 55, 0
20, 9600, Note_on_c, 13, 55, 58
20, 9719, Note_on_c, 13, 55, 0
20, 9720, Note_on_c, 13, 53, 58
20, 9779, Note_on_c, 13, 53, 0
20, 9780, Note_on_c, 13, 55, 58
20, 9839, Note_on_c, 13, 55, 0
20, 9840, Note_on_c, 13, 57, 58
20, 10079, Note_on_c, 13, 57, 0
20, 10080, Note_on_c, 13, 50, 58
20, 10199, Note_on_c, 13, 50, 0
20, 10199, End_track
21, 0, Start_track
21, 0, Title_t, "Timpani"
21, 0, MIDI_port, 0
21, 0, Control_c, 14, 7, 96
21, 0, Control_c, 14, 10, 25
21, 0, Control_c, 14, 11, 127
21, 0, Program_c, 14, 47
21, 2520, Note_on_c, 14, 50, 80
21, 2609, Note_on_c, 14, 50, 0
21, 2610, Note_on_c, 14, 50, 80
21, 2639, Note_on_c, 14, 50, 0
21, 2640, Note_on_c, 14, 50, 80
21, 2729, Note_on_c, 14, 50, 0
21, 2730, Note_on_c, 14, 50, 80
21, 2759, Note_on_c, 14, 50, 0
21, 2760, Note_on_c, 14, 50, 80
21, 2849, Note_on_c, 14, 50, 0
21, 2850, Note_on_c, 14, 50, 80
21, 2879, Note_on_c, 14, 50, 0
21, 2880, Note_on_c, 14, 50, 80
21, 2999, Note_on_c, 14, 50, 0
21, 4320, Note_on_c, 14, 45, 80
21, 4439, Note_on_c, 14, 45, 0
21, 4560, Note_on_c, 14, 50, 80
21, 4679, Note_on_c, 14, 50, 0
21, 6960, Note_on_c, 14, 45, 80
21, 7049, Note_on_c, 14, 45, 0
21, 7050, Note_on_c, 14, 45, 80
21, 7079, Note_on_c, 14, 45, 0
21, 7080, Note_on_c, 14, 50, 80
21, 7169, Note_on_c, 14, 50, 0
21, 7170, Note_on_c, 14, 50, 80
21, 7199, Note_on_c, 14, 50, 0
21, 7200, Note_on_c, 14, 45, 80
21, 7259, Note_on_c, 14, 45, 0
21, 7260, Note_on_c, 14, 45, 80
21, 7304, Note_on_c, 14, 45, 0
21, 7305, Note_on_c, 14, 45, 80
21, 7319, Note_on_c, 14, 45, 0
21, 7320, Note_on_c, 14, 45, 80
21, 7439, Note_on_c, 14, 45, 0
21, 7440, Note_on_c, 14, 50, 80
21, 7499, Note_on_c, 14, 50, 0
21, 7500, Note_on_c, 14, 45, 80
21, 7544, Note_on_c, 14, 45, 0
21, 7545, Note_on_c, 14, 45, 80
21, 7559, Note_on_c, 14, 45, 0
21, 7560, Note_on_c, 14, 45, 80
21, 7679, Note_on_c, 14, 45, 0
21, 7680, Note_on_c, 14, 50, 80
21, 7739, Note_on_c, 14, 50, 0
21, 7740, Note_on_c, 14, 45, 80
21, 7799, Note_on_c, 14, 45, 0
21, 7799, End_track
22, 0, Start_track
22, 0, Title_t, "Organ"
22, 0, MIDI_port, 0
22, 0, Program_c, 15, 19
22, 0, Control_c, 15, 7, 96
22, 0, Control_c, 15, 10, 64
22, 0, Control_c, 15, 11, 127
22, 0, Note_on_c, 15, 55, 72
22, 59, Note_on_c, 15, 55, 0
22, 60, Note_on_c, 15, 43, 72
22, 119, Note_on_c, 15, 43, 0
22, 165, Note_on_c, 15, 67, 72
22, 179, Note_on_c, 15, 67, 0
22, 180, Note_on_c, 15, 65, 72
22, 224, Note_on_c, 15, 65, 0
22, 225, Note_on_c, 15, 63, 72
22, 239, Note_on_c, 15, 63, 0
22, 240, Note_on_c, 15, 62, 72
22, 284, Note_on_c, 15, 62, 0
22, 285, Note_on_c, 15, 60, 72
22, 299, Note_on_c, 15, 60, 0
22, 300, Note_on_c, 15, 58, 72
22, 344, Note_on_c, 15, 58, 0
22, 345, Note_on_c, 15, 57, 72
22, 359, Note_on_c, 15, 57, 0
22, 360, Note_on_c, 15, 55, 72
22, 404, Note_on_c, 15, 55, 0
22, 405, Note_on_c, 15, 53, 72
22, 419, Note_on_c, 15, 53, 0
22, 420, Note_on_c, 15, 51, 72
22, 464, Note_on_c, 15, 51, 0
22, 465, Note_on_c, 15, 50, 72
22, 479, Note_on_c, 15, 50, 0
22, 480, Note_on_c, 15, 48, 72
22, 539, Note_on_c, 15, 48, 0
22, 600, Note_on_c, 15, 60, 72
22, 600, Note_on_c, 15, 63, 72
22, 600, Note_on_c, 15, 69, 72
22, 600, Note_on_c, 15, 72, 72
22, 659, Note_on_c, 15, 60, 0
22, 659, Note_on_c, 15, 63, 0
22, 659, Note_on_c, 15, 69, 0
22, 659, Note_on_c, 15, 72, 0
22, 720, Note_on_c, 15, 62, 72
22, 720, Note_on_c, 15, 67, 72
22, 720, Note_on_c, 15, 70, 72
22, 720, Note_on_c, 15, 74, 72
22, 779, Note_on_c, 15, 62, 0
22, 779, Note_on_c, 15, 67, 0
22, 779, Note_on_c, 15, 70, 0
22, 779, Note_on_c, 15, 74, 0
22, 840, Note_on_c, 15, 50, 72
22, 840, Note_on_c, 15, 78, 72
22, 840, Note_on_c, 15, 69, 72
22, 840, Note_on_c, 15, 62, 72
22, 899, Note_on_c, 15, 50, 0
22, 899, Note_on_c, 15, 78, 0
22, 899, Note_on_c, 15, 69, 0
22, 899, Note_on_c, 15, 62, 0
22, 960, Note_on_c, 15, 55, 72
22, 960, Note_on_c, 15, 70, 72
22, 960, Note_on_c, 15, 62, 72
22, 1019, Note_on_c, 15, 55, 0
22, 1019, Note_on_c, 15, 70, 0
22, 1019, Note_on_c, 15, 62, 0
22, 1020, Note_on_c, 15, 43, 72
22, 1079, Note_on_c, 15, 43, 0
22, 1125, Note_on_c, 15, 67, 72
22, 1139, Note_on_c, 15, 67, 0
22, 1140, Note_on_c, 15, 65, 72
22, 1184, Note_on_c, 15, 65, 0
22, 1185, Note_on_c, 15, 63, 72
22, 1199, Note_on_c, 15, 63, 0
22, 1200, Note_on_c, 15, 62, 72
22, 1244, Note_on_c, 15, 62, 0
22, 1245, Note_on_c, 15, 60, 72
22, 1259, Note_on_c, 15, 60, 0
22, 1260, Note_on_c, 15, 58, 72
22, 1304, Note_on_c, 15, 58, 0
22, 1305, Note_on_c, 15, 57, 72
22, 1319, Note_on_c, 15, 57, 0
22, 1320, Note_on_c, 15, 55, 72
22, 1364, Note_on_c, 15, 55, 0
22, 1365, Note_on_c, 15, 58, 72
22, 1379, Note_on_c, 15, 58, 0
22, 1380, Note_on_c, 15, 53, 72
22, 1424, Note_on_c, 15, 53, 0
22, 1425, Note_on_c, 15, 58, 72
22, 1439, Note_on_c, 15, 58, 0
22, 1440, Note_on_c, 15, 51, 72
22, 1499, Note_on_c, 15, 51, 0
22, 1500, Note_on_c, 15, 63, 72
22, 1559, Note_on_c, 15, 63, 0
22, 1605, Note_on_c, 15, 63, 72
22, 1619, Note_on_c, 15, 63, 0
22, 1620, Note_on_c, 15, 62, 72
22, 1664, Note_on_c, 15, 62, 0
22, 1665, Note_on_c, 15, 60, 72
22, 1679, Note_on_c, 15, 60, 0
22, 1680, Note_on_c, 15, 58, 72
22, 1724, Note_on_c, 15, 58, 0
22, 1725, Note_on_c, 15, 56, 72
22, 1739, Note_on_c, 15, 56, 0
22, 1740, Note_on_c, 15, 55, 72
22, 1784, Note_on_c, 15, 55, 0
22, 1785, Note_on_c, 15, 53, 72
22, 1799, Note_on_c, 15, 53, 0
22, 1800, Note_on_c, 15, 51, 72
22, 1844, Note_on_c, 15, 51, 0
22, 1845, Note_on_c, 15, 55, 72
22, 1859, Note_on_c, 15, 55, 0
22, 1860, Note_on_c, 15, 50, 72
22, 1904, Note_on_c, 15, 50, 0
22, 1905, Note_on_c, 15, 55, 72
22, 1919, Note_on_c, 15, 55, 0
22, 1920, Note_on_c, 15, 48, 72
22, 1979, Note_on_c, 15, 48, 0
22, 1980, Note_on_c, 15, 60, 72
22, 2039, Note_on_c, 15, 60, 0
22, 2085, Note_on_c, 15, 48, 72
22, 2099, Note_on_c, 15, 48, 0
22, 2100, Note_on_c, 15, 60, 72
22, 2144, Note_on_c, 15, 60, 0
22, 2145, Note_on_c, 15, 62, 72
22, 2159, Note_on_c, 15, 62, 0
22, 2160, Note_on_c, 15, 63, 72
22, 2204, Note_on_c, 15, 63, 0
22, 2205, Note_on_c, 15, 51, 72
22, 2219, Note_on_c, 15, 51, 0
22, 2220, Note_on_c, 15, 63, 72
22, 2264, Note_on_c, 15, 63, 0
22, 2265, Note_on_c, 15, 62, 72
22, 2279, Note_on_c, 15, 62, 0
22, 2280, Note_on_c, 15, 60, 72
22, 2324, Note_on_c, 15, 60, 0
22, 2325, Note_on_c, 15, 48, 72
22, 2339, Note_on_c, 15, 48, 0
22, 2340, Note_on_c, 15, 60, 72
22, 2384, Note_on_c, 15, 60, 0
22, 2385, Note_on_c, 15, 63, 72
22, 2399, Note_on_c, 15, 63, 0
22, 2400, Note_on_c, 15, 62, 72
22, 2519, Note_on_c, 15, 62, 0
22, 2865, Note_on_c, 15, 50, 72
22, 2984, Note_on_c, 15, 50, 0
22, 3045, Note_on_c, 15, 50, 72
22, 3059, Note_on_c, 15, 50, 0
22, 3060, Note_on_c, 15, 52, 72
22, 3104, Note_on_c, 15, 52, 0
22, 3105, Note_on_c, 15, 54, 72
22, 3119, Note_on_c, 15, 54, 0
22, 3120, Note_on_c, 15, 55, 72
22, 3164, Note_on_c, 15, 55, 0
22, 3165, Note_on_c, 15, 57, 72
22, 3179, Note_on_c, 15, 57, 0
22, 3180, Note_on_c, 15, 58, 72
22, 3224, Note_on_c, 15, 58, 0
22, 3225, Note_on_c, 15, 57, 72
22, 3239, Note_on_c, 15, 57, 0
22, 3240, Note_on_c, 15, 55, 72
22, 3284, Note_on_c, 15, 55, 0
22, 3285, Note_on_c, 15, 53, 72
22, 3299, Note_on_c, 15, 53, 0
22, 3300, Note_on_c, 15, 51, 72
22, 3344, Note_on_c, 15, 51, 0
22, 3345, Note_on_c, 15, 50, 72
22, 3359, Note_on_c, 15, 50, 0
22, 3360, Note_on_c, 15, 48, 72
22, 3419, Note_on_c, 15, 48, 0
22, 3420, Note_on_c, 15, 63, 72
22, 3479, Note_on_c, 15, 63, 0
22, 3525, Note_on_c, 15, 48, 72
22, 3539, Note_on_c, 15, 48, 0
22, 3540, Note_on_c, 15, 50, 72
22, 3584, Note_on_c, 15, 50, 0
22, 3585, Note_on_c, 15, 51, 72
22, 3599, Note_on_c, 15, 51, 0
22, 3600, Note_on_c, 15, 53, 72
22, 3644, Note_on_c, 15, 53, 0
22, 3645, Note_on_c, 15, 55, 72
22, 3659, Note_on_c, 15, 55, 0
22, 3660, Note_on_c, 15, 57, 72
22, 3704, Note_on_c, 15, 57, 0
22, 3705, Note_on_c, 15, 55, 72
22, 3719, Note_on_c, 15, 55, 0
22, 3720, Note_on_c, 15, 53, 72
22, 3764, Note_on_c, 15, 53, 0
22, 3765, Note_on_c, 15, 51, 72
22, 3779, Note_on_c, 15, 51, 0
22, 3780, Note_on_c, 15, 50, 72
22, 3824, Note_on_c, 15, 50, 0
22, 3825, Note_on_c, 15, 48, 72
22, 3839, Note_on_c, 15, 48, 0
22, 3840, Note_on_c, 15, 46, 72
22, 3899, Note_on_c, 15, 46, 0
22, 3900, Note_on_c, 15, 62, 72
22, 3959, Note_on_c, 15, 62, 0
22, 4005, Note_on_c, 15, 46, 72
22, 4019, Note_on_c, 15, 46, 0
22, 4020, Note_on_c, 15, 48, 72
22, 4064, Note_on_c, 15, 48, 0
22, 4065, Note_on_c, 15, 50, 72
22, 4079, Note_on_c, 15, 50, 0
22, 4080, Note_on_c, 15, 51, 72
22, 4124, Note_on_c, 15, 51, 0
22, 4125, Note_on_c, 15, 53, 72
22, 4139, Note_on_c, 15, 53, 0
22, 4140, Note_on_c, 15, 55, 72
22, 4184, Note_on_c, 15, 55, 0
22, 4185, Note_on_c, 15, 53, 72
22, 4199, Note_on_c, 15, 53, 0
22, 4200, Note_on_c, 15, 51, 72
22, 4244, Note_on_c, 15, 51, 0
22, 4245, Note_on_c, 15, 50, 72
22, 4259, Note_on_c, 15, 50, 0
22, 4260, Note_on_c, 15, 48, 72
22, 4304, Note_on_c, 15, 48, 0
22, 4305, Note_on_c, 15, 46, 72
22, 4319, Note_on_c, 15, 46, 0
22, 4320, Note_on_c, 15, 45, 72
22, 4379, Note_on_c, 15, 45, 0
22, 4380, Note_on_c, 15, 60, 72
22, 4439, Note_on_c, 15, 60, 0
22, 4485, Note_on_c, 15, 45, 72
22, 4499, Note_on_c, 15, 45, 0
22, 4500, Note_on_c, 15, 46, 72
22, 4544, Note_on_c, 15, 46, 0
22, 4545, Note_on_c, 15, 48, 72
22, 4559, Note_on_c, 15, 48, 0
22, 4560, Note_on_c, 15, 50, 72
22, 4604, Note_on_c, 15, 50, 0
22, 4605, Note_on_c, 15, 52, 72
22, 4619, Note_on_c, 15, 52, 0
22, 4620, Note_on_c, 15, 54, 72
22, 4664, Note_on_c, 15, 54, 0
22, 4665, Note_on_c, 15, 55, 72
22, 4679, Note_on_c, 15, 55, 0
22, 4680, Note_on_c, 15, 57, 72
22, 4724, Note_on_c, 15, 57, 0
22, 4725, Note_on_c, 15, 50, 72
22, 4739, Note_on_c, 15, 50, 0
22, 4740, Note_on_c, 15, 51, 72
22, 4784, Note_on_c, 15, 51, 0
22, 4785, Note_on_c, 15, 53, 72
22, 4799, Note_on_c, 15, 53, 0
22, 4800, Note_on_c, 15, 55, 72
22, 4919, Note_on_c, 15, 55, 0
22, 4920, Note_on_c, 15, 58, 72
22, 5009, Note_on_c, 15, 58, 0
22, 5010, Note_on_c, 15, 57, 72
22, 5039, Note_on_c, 15, 57, 0
22, 5040, Note_on_c, 15, 55, 72
22, 5129, Note_on_c, 15, 55, 0
22, 5130, Note_on_c, 15, 53, 72
22, 5159, Note_on_c, 15, 53, 0
22, 5160, Note_on_c, 15, 52, 72
22, 5249, Note_on_c, 15, 52, 0
22, 5250, Note_on_c, 15, 48, 72
22, 5279, Note_on_c, 15, 48, 0
22, 5280, Note_on_c, 15, 53, 72
22, 5399, Note_on_c, 15, 53, 0
22, 5445, Note_on_c, 15, 57, 72
22, 5459, Note_on_c, 15, 57, 0
22, 5460, Note_on_c, 15, 59, 72
22, 5504, Note_on_c, 15, 59, 0
22, 5505, Note_on_c, 15, 61, 72
22, 5519, Note_on_c, 15, 61, 0
22, 5520, Note_on_c, 15, 62, 72
22, 5564, Note_on_c, 15, 62, 0
22, 5565, Note_on_c, 15, 64, 72
22, 5579, Note_on_c, 15, 64, 0
22, 5580, Note_on_c, 15, 65, 72
22, 5624, Note_on_c, 15, 65, 0
22, 5625, Note_on_c, 15, 64, 72
22, 5639, Note_on_c, 15, 64, 0
22, 5640, Note_on_c, 15, 62, 72
22, 5684, Note_on_c, 15, 62, 0
22, 5685, Note_on_c, 15, 60, 72
22, 5699, Note_on_c, 15, 60, 0
22, 5700, Note_on_c, 15, 58, 72
22, 5744, Note_on_c, 15, 58, 0
22, 5745, Note_on_c, 15, 57, 72
22, 5759, Note_on_c, 15, 57, 0
22, 5760, Note_on_c, 15, 55, 72
22, 5819, Note_on_c, 15, 55, 0
22, 5820, Note_on_c, 15, 43, 72
22, 5879, Note_on_c, 15, 43, 0
22, 5925, Note_on_c, 15, 55, 72
22, 5939, Note_on_c, 15, 55, 0
22, 5940, Note_on_c, 15, 57, 72
22, 5984, Note_on_c, 15, 57, 0
22, 5985, Note_on_c, 15, 58, 72
22, 5999, Note_on_c, 15, 58, 0
22, 6000, Note_on_c, 15, 60, 72
22, 6044, Note_on_c, 15, 60, 0
22, 6045, Note_on_c, 15, 62, 72
22, 6059, Note_on_c, 15, 62, 0
22, 6060, Note_on_c, 15, 64, 72
22, 6104, Note_on_c, 15, 64, 0
22, 6105, Note_on_c, 15, 62, 72
22, 6119, Note_on_c, 15, 62, 0
22, 6120, Note_on_c, 15, 60, 72
22, 6164, Note_on_c, 15, 60, 0
22, 6165, Note_on_c, 15, 58, 72
22, 6179, Note_on_c, 15, 58, 0
22, 6180, Note_on_c, 15, 57, 72
22, 6224, Note_on_c, 15, 57, 0
22, 6225, Note_on_c, 15, 55, 72
22, 6239, Note_on_c, 15, 55, 0
22, 6240, Note_on_c, 15, 53, 72
22, 6299, Note_on_c, 15, 53, 0
22, 6300, Note_on_c, 15, 41, 72
22, 6359, Note_on_c, 15, 41, 0
22, 6405, Note_on_c, 15, 53, 72
22, 6419, Note_on_c, 15, 53, 0
22, 6420, Note_on_c, 15, 55, 72
22, 6464, Note_on_c, 15, 55, 0
22, 6465, Note_on_c, 15, 57, 72
22, 6479, Note_on_c, 15, 57, 0
22, 6480, Note_on_c, 15, 58, 72
22, 6524, Note_on_c, 15, 58, 0
22, 6525, Note_on_c, 15, 60, 72
22, 6539, Note_on_c, 15, 60, 0
22, 6540, Note_on_c, 15, 62, 72
22, 6584, Note_on_c, 15, 62, 0
22, 6585, Note_on_c, 15, 60, 72
22, 6599, Note_on_c, 15, 60, 0
22, 6600, Note_on_c, 15, 58, 72
22, 6644, Note_on_c, 15, 58, 0
22, 6645, Note_on_c, 15, 57, 72
22, 6659, Note_on_c, 15, 57, 0
22, 6660, Note_on_c, 15, 55, 72
22, 6704, Note_on_c, 15, 55, 0
22, 6705, Note_on_c, 15, 53, 72
22, 6719, Note_on_c, 15, 53, 0
22, 6720, Note_on_c, 15, 52, 72
22, 6839, Note_on_c, 15, 52, 0
22, 6885, Note_on_c, 15, 52, 72
22, 6899, Note_on_c, 15, 52, 0
22, 6900, Note_on_c, 15, 53, 72
22, 6944, Note_on_c, 15, 53, 0
22, 6945, Note_on_c, 15, 55, 72
22, 6959, Note_on_c, 15, 55, 0
22, 6960, Note_on_c, 15, 57, 72
22, 7004, Note_on_c, 15, 57, 0
22, 7005, Note_on_c, 15, 57, 72
22, 7019, Note_on_c, 15, 57, 0
22, 7020, Note_on_c, 15, 45, 72
22, 7064, Note_on_c, 15, 45, 0
22, 7065, Note_on_c, 15, 57, 72
22, 7079, Note_on_c, 15, 57, 0
22, 7080, Note_on_c, 15, 53, 72
22, 7124, Note_on_c, 15, 53, 0
22, 7125, Note_on_c, 15, 57, 72
22, 7139, Note_on_c, 15, 57, 0
22, 7140, Note_on_c, 15, 53, 72
22, 7184, Note_on_c, 15, 53, 0
22, 7185, Note_on_c, 15, 50, 72
22, 7199, Note_on_c, 15, 50, 0
22, 7200, Note_on_c, 15, 57, 72
22, 7259, Note_on_c, 15, 57, 0
22, 7260, Note_on_c, 15, 45, 72
22, 7319, Note_on_c, 15, 45, 0
22, 7365, Note_on_c, 15, 57, 72
22, 7379, Note_on_c, 15, 57, 0
22, 7380, Note_on_c, 15, 45, 72
22, 7424, Note_on_c, 15, 45, 0
22, 7425, Note_on_c, 15, 57, 72
22, 7439, Note_on_c, 15, 57, 0
22, 7440, Note_on_c, 15, 62, 72
22, 7499, Note_on_c, 15, 62, 0
22, 7500, Note_on_c, 15, 57, 72
22, 7559, Note_on_c, 15, 57, 0
22, 7605, Note_on_c, 15, 57, 72
22, 7619, Note_on_c, 15, 57, 0
22, 7620, Note_on_c, 15, 45, 72
22, 7664, Note_on_c, 15, 45, 0
22, 7665, Note_on_c, 15, 57, 72
22, 7679, Note_on_c, 15, 57, 0
22, 7680, Note_on_c, 15, 62, 72
22, 7680, Note_on_c, 15, 77, 72
22, 7680, Note_on_c, 15, 69, 72
22, 7739, Note_on_c, 15, 62, 0
22, 7739, Note_on_c, 15, 77, 0
22, 7739, Note_on_c, 15, 69, 0
22, 7740, Note_on_c, 15, 57, 72
22, 7740, Note_on_c, 15, 69, 72
22, 7740, Note_on_c, 15, 76, 72
22, 7740, Note_on_c, 15, 61, 72
22, 7799, Note_on_c, 15, 57, 0
22, 7799, Note_on_c, 15, 69, 0
22, 7799, Note_on_c, 15, 76, 0
22, 7799, Note_on_c, 15, 61, 0
22, 7845, Note_on_c, 15, 57, 48
22, 7859, Note_on_c, 15, 57, 0
22, 7860, Note_on_c, 15, 57, 48
22, 7904, Note_on_c, 15, 57, 0
22, 7905, Note_on_c, 15, 57, 48
22, 7919, Note_on_c, 15, 57, 0
22, 7920, Note_on_c, 15, 57, 48
22, 7979, Note_on_c, 15, 57, 0
22, 7980, Note_on_c, 15, 55, 48
22, 8039, Note_on_c, 15, 55, 0
22, 8040, Note_on_c, 15, 53, 48
22, 8099, Note_on_c, 15, 53, 0
22, 8100, Note_on_c, 15, 52, 48
22, 8159, Note_on_c, 15, 52, 0
22, 8160, Note_on_c, 15, 50, 48
22, 8279, Note_on_c, 15, 50, 0
22, 8460, Note_on_c, 15, 55, 48
22, 8489, Note_on_c, 15, 55, 0
22, 8520, Note_on_c, 15, 57, 48
22, 8549, Note_on_c, 15, 57, 0
22, 8580, Note_on_c, 15, 45, 48
22, 8609, Note_on_c, 15, 45, 0
22, 8640, Note_on_c, 15, 46, 48
22, 8759, Note_on_c, 15, 46, 0
22, 8940, Note_on_c, 15, 48, 48
22, 8999, Note_on_c, 15, 48, 0
22, 9000, Note_on_c, 15, 50, 48
22, 9059, Note_on_c, 15, 50, 0
22, 9060, Note_on_c, 15, 50, 48
22, 9119, Note_on_c, 15, 50, 0
22, 9120, Note_on_c, 15, 43, 48
22, 9120, Note_on_c, 15, 70, 48
22, 9120, Note_on_c, 15, 63, 48
22, 9120, Note_on_c, 15, 67, 48
22, 9179, Note_on_c, 15, 43, 0
22, 9180, Note_on_c, 15, 55, 48
22, 9239, Note_on_c, 15, 55, 0
22, 9240, Note_on_c, 15, 55, 48
22, 9299, Note_on_c, 15, 55, 0
22, 9300, Note_on_c, 15, 55, 48
22, 9359, Note_on_c, 15, 70, 0
22, 9359, Note_on_c, 15, 63, 0
22, 9359, Note_on_c, 15, 67, 0
22, 9359, Note_on_c, 15, 55, 0
22, 9360, Note_on_c, 15, 55, 48
22, 9360, Note_on_c, 15, 70, 48
22, 9360, Note_on_c, 15, 62, 48
22, 9360, Note_on_c, 15, 67, 48
22, 9419, Note_on_c, 15, 55, 0
22, 9420, Note_on_c, 15, 55, 48
22, 9479, Note_on_c, 15, 55, 0
22, 9480, Note_on_c, 15, 55, 48
22, 9539, Note_on_c, 15, 55, 0
22, 9540, Note_on_c, 15, 55, 48
22, 9599, Note_on_c, 15, 70, 0
22, 9599, Note_on_c, 15, 62, 0
22, 9599, Note_on_c, 15, 67, 0
22, 9599, Note_on_c, 15, 55, 0
22, 9600, Note_on_c, 15, 55, 48
22, 9600, Note_on_c, 15, 70, 48
22, 9600, Note_on_c, 15, 73, 48
22, 9600, Note_on_c, 15, 67, 48
22, 9659, Note_on_c, 15, 55, 0
22, 9660, Note_on_c, 15, 55, 48
22, 9719, Note_on_c, 15, 70, 0
22, 9719, Note_on_c, 15, 73, 0
22, 9719, Note_on_c, 15, 67, 0
22, 9719, Note_on_c, 15, 55, 0
22, 9720, Note_on_c, 15, 53, 48
22, 9720, Note_on_c, 15, 69, 48
22, 9720, Note_on_c, 15, 74, 48
22, 9720, Note_on_c, 15, 65, 48
22, 9779, Note_on_c, 15, 53, 0
22, 9780, Note_on_c, 15, 55, 48
22, 9839, Note_on_c, 15, 69, 0
22, 9839, Note_on_c, 15, 74, 0
22, 9839, Note_on_c, 15, 65, 0
22, 9839, Note_on_c, 15, 55, 0
22, 9840, Note_on_c, 15, 57, 48
22, 9840, Note_on_c, 15, 74, 48
22, 9840, Note_on_c, 15, 63, 48
22, 9840, Note_on_c, 15, 69, 48
22, 9899, Note_on_c, 15, 57, 0
22, 9900, Note_on_c, 15, 57, 48
22, 9959, Note_on_c, 15, 74, 0
22, 9959, Note_on_c, 15, 63, 0
22, 9959, Note_on_c, 15, 69, 0
22, 9959, Note_on_c, 15, 57, 0
22, 9960, Note_on_c, 15, 45, 48
22, 9960, Note_on_c, 15, 73, 48
22, 9960, Note_on_c, 15, 63, 48
22, 9960, Note_on_c, 15, 69, 48
22, 10019, Note_on_c, 15, 45, 0
22, 10020, Note_on_c, 15, 45, 48
22, 10079, Note_on_c, 15, 73, 0
22, 10079, Note_on_c, 15, 63, 0
22, 10079, Note_on_c, 15, 69, 0
22, 10079, Note_on_c, 15, 45, 0
22, 10080, Note_on_c, 15, 50, 48
22, 10080, Note_on_c, 15, 65, 48
22, 10080, Note_on_c, 15, 69, 48
22, 10080, Note_on_c, 15, 74, 48
22, 10139, Note_on_c, 15, 50, 0
22, 10139, Note_on_c, 15, 65, 0
22, 10139, Note_on_c, 15, 69, 0
22, 10139, Note_on_c, 15, 74, 0
22, 10200, Note_on_c, 15, 50, 48
22, 10200, Note_on_c, 15, 65, 48
22, 10200, Note_on_c, 15, 69, 48
22, 10200, Note_on_c, 15, 74, 48
22, 10259, Note_on_c, 15, 50, 0
22, 10259, Note_on_c, 15, 65, 0
22, 10259, Note_on_c, 15, 69, 0
22, 10259, Note_on_c, 15, 74, 0
22, 10320, Note_on_c, 15, 50, 48
22, 10320, Note_on_c, 15, 65, 48
22, 10320, Note_on_c, 15, 69, 48
22, 10320, Note_on_c, 15, 74, 48
22, 10439, Note_on_c, 15, 50, 0
22, 10439, Note_on_c, 15, 65, 0
22, 10439, Note_on_c, 15, 69, 0
22, 10439, Note_on_c, 15, 74, 0
22, 10439, End_track
0, 0, End_of_file